0, 0, Header, 1, 5, 120
1, 0, Start_track
1, 0, Title_t, "Spring Is Here"
1, 0, Title_t, "Bill Evans Changes"
1, 0, Text_t, "dougmck@pipeline.com.au\012"
1, 0, Time_signature, 4, 2, 24, 8
1, 0, Key_signature, 0, "major"
1, 0, Tempo, 1200000
1, 0, End_track
2, 0, Start_track
2, 0, Title_t, ""
2, 0, Program_c, 1, 32
2, 0, Control_c, 1, 7, 84
2, 7, Note_on_c, 1, 43, 95
2, 69, Note_on_c, 1, 43, 0
2, 75, Note_on_c, 1, 43, 89
2, 112, Note_on_c, 1, 43, 0
2, 125, Note_on_c, 1, 43, 80
2, 226, Note_on_c, 1, 42, 64
2, 229, Note_on_c, 1, 43, 0
2, 251, Note_on_c, 1, 42, 0
2, 255, Note_on_c, 1, 43, 53
2, 406, Note_on_c, 1, 43, 0
2, 417, Note_on_c, 1, 44, 94
2, 446, Note_on_c, 1, 46, 82
2, 452, Note_on_c, 1, 44, 0
2, 476, Note_on_c, 1, 46, 0
2, 480, Note_on_c, 1, 41, 90
2, 625, Note_on_c, 1, 55, 123
2, 663, Note_on_c, 1, 55, 0
2, 669, Note_on_c, 1, 53, 103
2, 721, Note_on_c, 1, 53, 0
2, 725, Note_on_c, 1, 51, 79
2, 766, Note_on_c, 1, 51, 0
2, 766, Note_on_c, 1, 48, 74
2, 838, Note_on_c, 1, 48, 0
2, 839, Note_on_c, 1, 46, 80
2, 874, Note_on_c, 1, 41, 0
2, 875, Note_on_c, 1, 46, 0
2, 879, Note_on_c, 1, 44, 76
2, 903, Note_on_c, 1, 44, 0
2, 910, Note_on_c, 1, 43, 70
2, 938, Note_on_c, 1, 43, 0
2, 941, Note_on_c, 1, 41, 80
2, 961, Note_on_c, 1, 41, 0
2, 969, Note_on_c, 1, 43, 95
2, 1105, Note_on_c, 1, 43, 0
2, 1124, Note_on_c, 1, 43, 84
2, 1137, Note_on_c, 1, 43, 0
2, 1150, Note_on_c, 1, 43, 82
2, 1161, Note_on_c, 1, 43, 0
2, 1171, Note_on_c, 1, 43, 71
2, 1180, Note_on_c, 1, 43, 0
2, 1194, Note_on_c, 1, 43, 83
2, 1237, Note_on_c, 1, 43, 0
2, 1243, Note_on_c, 1, 43, 76
2, 1352, Note_on_c, 1, 44, 92
2, 1377, Note_on_c, 1, 44, 0
2, 1387, Note_on_c, 1, 46, 79
2, 1411, Note_on_c, 1, 46, 0
2, 1419, Note_on_c, 1, 50, 87
2, 1449, Note_on_c, 1, 50, 0
2, 1452, Note_on_c, 1, 43, 0
2, 1454, Note_on_c, 1, 47, 63
2, 1484, Note_on_c, 1, 47, 0
2, 1484, Note_on_c, 1, 48, 80
2, 1514, Note_on_c, 1, 48, 0
2, 1518, Note_on_c, 1, 55, 90
2, 1556, Note_on_c, 1, 55, 0
2, 1561, Note_on_c, 1, 55, 87
2, 1585, Note_on_c, 1, 55, 0
2, 1593, Note_on_c, 1, 55, 76
2, 1618, Note_on_c, 1, 55, 0
2, 1620, Note_on_c, 1, 53, 72
2, 1646, Note_on_c, 1, 53, 0
2, 1652, Note_on_c, 1, 53, 82
2, 1876, Note_on_c, 1, 53, 0
2, 1896, Note_on_c, 1, 53, 96
2, 1910, Note_on_c, 1, 53, 0
2, 1913, Note_on_c, 1, 52, 85
2, 1913, Note_on_c, 1, 53, 24
2, 1919, Note_on_c, 1, 53, 0
2, 1931, Note_on_c, 1, 52, 0
2, 1937, Note_on_c, 1, 51, 95
2, 1975, Note_on_c, 1, 51, 0
2, 1981, Note_on_c, 1, 51, 82
2, 2126, Note_on_c, 1, 51, 0
2, 2141, Note_on_c, 1, 51, 74
2, 2157, Note_on_c, 1, 51, 0
2, 2158, Note_on_c, 1, 50, 68
2, 2169, Note_on_c, 1, 50, 0
2, 2178, Note_on_c, 1, 51, 87
2, 2304, Note_on_c, 1, 51, 0
2, 2334, Note_on_c, 1, 53, 118
2, 2361, Note_on_c, 1, 53, 0
2, 2371, Note_on_c, 1, 53, 99
2, 2386, Note_on_c, 1, 53, 0
2, 2412, Note_on_c, 1, 49, 93
2, 2444, Pitch_bend_c, 1, 8192
2, 2444, Pitch_bend_c, 1, 8192
2, 2444, Pitch_bend_c, 1, 8192
2, 2445, Pitch_bend_c, 1, 7552
2, 2446, Pitch_bend_c, 1, 7168
2, 2446, Pitch_bend_c, 1, 6784
2, 2447, Pitch_bend_c, 1, 6400
2, 2448, Pitch_bend_c, 1, 6016
2, 2449, Pitch_bend_c, 1, 5632
2, 2449, Pitch_bend_c, 1, 5120
2, 2450, Pitch_bend_c, 1, 4736
2, 2451, Pitch_bend_c, 1, 4480
2, 2451, Pitch_bend_c, 1, 4096
2, 2452, Pitch_bend_c, 1, 3840
2, 2453, Pitch_bend_c, 1, 3584
2, 2454, Pitch_bend_c, 1, 3456
2, 2454, Pitch_bend_c, 1, 3328
2, 2455, Pitch_bend_c, 1, 3200
2, 2465, Pitch_bend_c, 1, 3328
2, 2467, Pitch_bend_c, 1, 3584
2, 2468, Pitch_bend_c, 1, 3712
2, 2468, Pitch_bend_c, 1, 3840
2, 2469, Pitch_bend_c, 1, 3968
2, 2470, Pitch_bend_c, 1, 4096
2, 2470, Pitch_bend_c, 1, 4352
2, 2471, Pitch_bend_c, 1, 4608
2, 2472, Pitch_bend_c, 1, 4736
2, 2473, Pitch_bend_c, 1, 4992
2, 2473, Pitch_bend_c, 1, 5376
2, 2474, Pitch_bend_c, 1, 5632
2, 2475, Pitch_bend_c, 1, 5888
2, 2475, Pitch_bend_c, 1, 6272
2, 2476, Pitch_bend_c, 1, 6528
2, 2477, Pitch_bend_c, 1, 6912
2, 2478, Pitch_bend_c, 1, 7168
2, 2478, Pitch_bend_c, 1, 7424
2, 2479, Pitch_bend_c, 1, 8192
2, 2479, Pitch_bend_c, 1, 8192
2, 2480, Pitch_bend_c, 1, 8192
2, 2480, Pitch_bend_c, 1, 8192
2, 2481, Pitch_bend_c, 1, 8192
2, 2503, Pitch_bend_c, 1, 8192
2, 2503, Pitch_bend_c, 1, 8192
2, 2505, Pitch_bend_c, 1, 7680
2, 2505, Pitch_bend_c, 1, 7424
2, 2506, Pitch_bend_c, 1, 7040
2, 2507, Pitch_bend_c, 1, 6784
2, 2508, Pitch_bend_c, 1, 6528
2, 2508, Pitch_bend_c, 1, 6144
2, 2509, Pitch_bend_c, 1, 5888
2, 2510, Pitch_bend_c, 1, 5504
2, 2510, Pitch_bend_c, 1, 5120
2, 2511, Pitch_bend_c, 1, 4864
2, 2512, Pitch_bend_c, 1, 4608
2, 2513, Pitch_bend_c, 1, 4480
2, 2513, Pitch_bend_c, 1, 4224
2, 2514, Pitch_bend_c, 1, 4096
2, 2515, Pitch_bend_c, 1, 3968
2, 2515, Pitch_bend_c, 1, 3712
2, 2517, Pitch_bend_c, 1, 3584
2, 2523, Pitch_bend_c, 1, 3840
2, 2525, Pitch_bend_c, 1, 3968
2, 2527, Pitch_bend_c, 1, 4096
2, 2528, Pitch_bend_c, 1, 4352
2, 2531, Pitch_bend_c, 1, 4480
2, 2532, Pitch_bend_c, 1, 4608
2, 2534, Pitch_bend_c, 1, 4736
2, 2535, Pitch_bend_c, 1, 4992
2, 2536, Pitch_bend_c, 1, 5120
2, 2537, Pitch_bend_c, 1, 5376
2, 2537, Pitch_bend_c, 1, 5504
2, 2538, Pitch_bend_c, 1, 5760
2, 2539, Pitch_bend_c, 1, 5888
2, 2539, Pitch_bend_c, 1, 6144
2, 2540, Pitch_bend_c, 1, 6400
2, 2541, Pitch_bend_c, 1, 6528
2, 2542, Pitch_bend_c, 1, 6784
2, 2542, Pitch_bend_c, 1, 6912
2, 2543, Pitch_bend_c, 1, 7040
2, 2544, Pitch_bend_c, 1, 7296
2, 2544, Pitch_bend_c, 1, 7424
2, 2545, Pitch_bend_c, 1, 7552
2, 2546, Pitch_bend_c, 1, 7680
2, 2547, Pitch_bend_c, 1, 8192
2, 2547, Pitch_bend_c, 1, 8192
2, 2548, Pitch_bend_c, 1, 8192
2, 2549, Pitch_bend_c, 1, 8192
2, 2551, Pitch_bend_c, 1, 8192
2, 2656, Note_on_c, 1, 49, 0
2, 2808, Note_on_c, 1, 46, 97
2, 2835, Note_on_c, 1, 46, 0
2, 2836, Note_on_c, 1, 47, 84
2, 2854, Note_on_c, 1, 48, 80
2, 2857, Note_on_c, 1, 47, 0
2, 2866, Note_on_c, 1, 48, 0
2, 2873, Note_on_c, 1, 49, 80
2, 2887, Note_on_c, 1, 49, 0
2, 2890, Note_on_c, 1, 50, 75
2, 2908, Note_on_c, 1, 50, 0
2, 2913, Note_on_c, 1, 51, 87
2, 2939, Note_on_c, 1, 51, 0
2, 2947, Note_on_c, 1, 51, 85
2, 2970, Note_on_c, 1, 51, 0
2, 2983, Note_on_c, 1, 51, 91
2, 3101, Note_on_c, 1, 51, 0
2, 3106, Note_on_c, 1, 50, 96
2, 3127, Note_on_c, 1, 50, 0
2, 3135, Note_on_c, 1, 51, 94
2, 3158, Note_on_c, 1, 51, 0
2, 3166, Note_on_c, 1, 51, 88
2, 3182, Note_on_c, 1, 51, 0
2, 3199, Note_on_c, 1, 51, 90
2, 3214, Note_on_c, 1, 51, 0
2, 3220, Note_on_c, 1, 50, 51
2, 3233, Note_on_c, 1, 50, 0
2, 3242, Note_on_c, 1, 51, 79
2, 3338, Note_on_c, 1, 51, 0
2, 3344, Note_on_c, 1, 53, 83
2, 3362, Note_on_c, 1, 53, 0
2, 3379, Note_on_c, 1, 49, 95
2, 3398, Pitch_bend_c, 1, 8192
2, 3399, Pitch_bend_c, 1, 8192
2, 3400, Pitch_bend_c, 1, 8192
2, 3401, Pitch_bend_c, 1, 7680
2, 3402, Pitch_bend_c, 1, 7424
2, 3403, Pitch_bend_c, 1, 7296
2, 3404, Pitch_bend_c, 1, 7168
2, 3404, Pitch_bend_c, 1, 6912
2, 3405, Pitch_bend_c, 1, 6784
2, 3406, Pitch_bend_c, 1, 6528
2, 3406, Pitch_bend_c, 1, 6400
2, 3407, Pitch_bend_c, 1, 6144
2, 3408, Pitch_bend_c, 1, 5888
2, 3409, Pitch_bend_c, 1, 5632
2, 3409, Pitch_bend_c, 1, 5504
2, 3410, Pitch_bend_c, 1, 5120
2, 3411, Pitch_bend_c, 1, 4864
2, 3411, Pitch_bend_c, 1, 4736
2, 3412, Pitch_bend_c, 1, 4480
2, 3413, Pitch_bend_c, 1, 4224
2, 3414, Pitch_bend_c, 1, 3968
2, 3414, Pitch_bend_c, 1, 3840
2, 3415, Pitch_bend_c, 1, 3584
2, 3416, Pitch_bend_c, 1, 3456
2, 3416, Pitch_bend_c, 1, 3200
2, 3417, Pitch_bend_c, 1, 2944
2, 3418, Pitch_bend_c, 1, 2816
2, 3419, Pitch_bend_c, 1, 2560
2, 3419, Pitch_bend_c, 1, 2432
2, 3420, Pitch_bend_c, 1, 2176
2, 3421, Pitch_bend_c, 1, 2048
2, 3422, Pitch_bend_c, 1, 1792
2, 3423, Pitch_bend_c, 1, 1664
2, 3424, Pitch_bend_c, 1, 1536
2, 3424, Pitch_bend_c, 1, 1408
2, 3426, Pitch_bend_c, 1, 1280
2, 3430, Note_on_c, 1, 49, 0
2, 3431, Pitch_bend_c, 1, 1536
2, 3432, Pitch_bend_c, 1, 1792
2, 3433, Pitch_bend_c, 1, 2816
2, 3434, Pitch_bend_c, 1, 3840
2, 3434, Pitch_bend_c, 1, 5376
2, 3435, Pitch_bend_c, 1, 6784
2, 3436, Pitch_bend_c, 1, 8192
2, 3436, Pitch_bend_c, 1, 8192
2, 3490, Note_on_c, 1, 49, 88
2, 3511, Note_on_c, 1, 49, 0
2, 3520, Note_on_c, 1, 49, 84
2, 3556, Note_on_c, 1, 48, 57
2, 3560, Note_on_c, 1, 49, 0
2, 3574, Note_on_c, 1, 48, 0
2, 3579, Note_on_c, 1, 49, 60
2, 3807, Note_on_c, 1, 49, 0
2, 3812, Note_on_c, 1, 46, 62
2, 3829, Note_on_c, 1, 46, 0
2, 3832, Note_on_c, 1, 47, 64
2, 3849, Note_on_c, 1, 47, 0
2, 3855, Note_on_c, 1, 48, 88
2, 3910, Note_on_c, 1, 48, 0
2, 3915, Note_on_c, 1, 48, 66
2, 3947, Note_on_c, 1, 48, 0
2, 3975, Note_on_c, 1, 49, 84
2, 4008, Note_on_c, 1, 49, 0
2, 4017, Note_on_c, 1, 49, 80
2, 4053, Note_on_c, 1, 49, 0
2, 4058, Note_on_c, 1, 48, 79
2, 4083, Note_on_c, 1, 48, 0
2, 4090, Note_on_c, 1, 51, 91
2, 4125, Note_on_c, 1, 51, 0
2, 4132, Note_on_c, 1, 51, 83
2, 4174, Note_on_c, 1, 51, 0
2, 4174, Note_on_c, 1, 49, 87
2, 4188, Note_on_c, 1, 49, 0
2, 4194, Note_on_c, 1, 49, 73
2, 4209, Note_on_c, 1, 49, 0
2, 4217, Note_on_c, 1, 53, 91
2, 4245, Note_on_c, 1, 53, 0
2, 4254, Note_on_c, 1, 53, 89
2, 4289, Note_on_c, 1, 51, 67
2, 4291, Note_on_c, 1, 53, 0
2, 4301, Note_on_c, 1, 51, 0
2, 4310, Note_on_c, 1, 51, 68
2, 4326, Note_on_c, 1, 51, 0
2, 4333, Note_on_c, 1, 55, 91
2, 4361, Note_on_c, 1, 55, 0
2, 4370, Note_on_c, 1, 55, 89
2, 4399, Note_on_c, 1, 55, 0
2, 4405, Note_on_c, 1, 53, 67
2, 4416, Note_on_c, 1, 53, 0
2, 4425, Note_on_c, 1, 53, 58
2, 4436, Note_on_c, 1, 53, 0
2, 4447, Note_on_c, 1, 56, 82
2, 4475, Note_on_c, 1, 56, 0
2, 4484, Note_on_c, 1, 56, 77
2, 4518, Note_on_c, 1, 56, 0
2, 4522, Note_on_c, 1, 55, 77
2, 4535, Note_on_c, 1, 55, 0
2, 4542, Note_on_c, 1, 55, 82
2, 4559, Note_on_c, 1, 55, 0
2, 4569, Note_on_c, 1, 58, 91
2, 4600, Note_on_c, 1, 58, 0
2, 4612, Note_on_c, 1, 58, 98
2, 4649, Note_on_c, 1, 58, 0
2, 4652, Note_on_c, 1, 56, 83
2, 4669, Note_on_c, 1, 56, 0
2, 4687, Note_on_c, 1, 60, 108
2, 4710, Pitch_bend_c, 1, 8192
2, 4711, Pitch_bend_c, 1, 8192
2, 4712, Pitch_bend_c, 1, 8192
2, 4713, Pitch_bend_c, 1, 7552
2, 4714, Pitch_bend_c, 1, 7424
2, 4715, Pitch_bend_c, 1, 7296
2, 4716, Pitch_bend_c, 1, 7168
2, 4716, Pitch_bend_c, 1, 7040
2, 4717, Pitch_bend_c, 1, 6912
2, 4718, Pitch_bend_c, 1, 6784
2, 4720, Pitch_bend_c, 1, 6656
2, 4722, Pitch_bend_c, 1, 6528
2, 4739, Pitch_bend_c, 1, 6272
2, 4740, Pitch_bend_c, 1, 6016
2, 4742, Pitch_bend_c, 1, 5888
2, 4743, Pitch_bend_c, 1, 5760
2, 4744, Pitch_bend_c, 1, 5632
2, 4745, Note_on_c, 1, 60, 0
2, 4745, Pitch_bend_c, 1, 5504
2, 4746, Pitch_bend_c, 1, 5120
2, 4747, Pitch_bend_c, 1, 4992
2, 4748, Pitch_bend_c, 1, 4864
2, 4749, Pitch_bend_c, 1, 4736
2, 4750, Pitch_bend_c, 1, 4608
2, 4752, Pitch_bend_c, 1, 4480
2, 4758, Pitch_bend_c, 1, 4736
2, 4759, Pitch_bend_c, 1, 4992
2, 4760, Pitch_bend_c, 1, 5376
2, 4760, Pitch_bend_c, 1, 5632
2, 4761, Pitch_bend_c, 1, 6016
2, 4762, Pitch_bend_c, 1, 6656
2, 4762, Pitch_bend_c, 1, 7424
2, 4763, Pitch_bend_c, 1, 8192
2, 4764, Pitch_bend_c, 1, 8192
2, 4764, Pitch_bend_c, 1, 8192
2, 4764, Pitch_bend_c, 1, 8192
2, 4807, Note_on_c, 1, 53, 113
2, 4846, Note_on_c, 1, 52, 44
2, 4847, Note_on_c, 1, 53, 0
2, 4873, Note_on_c, 1, 52, 0
2, 4875, Note_on_c, 1, 53, 71
2, 5122, Note_on_c, 1, 53, 0
2, 5155, Note_on_c, 1, 52, 96
2, 5184, Note_on_c, 1, 52, 0
2, 5190, Note_on_c, 1, 53, 83
2, 5211, Note_on_c, 1, 53, 0
2, 5221, Note_on_c, 1, 56, 87
2, 5246, Note_on_c, 1, 56, 0
2, 5252, Note_on_c, 1, 60, 92
2, 5276, Note_on_c, 1, 60, 0
2, 5284, Note_on_c, 1, 56, 74
2, 5497, Note_on_c, 1, 56, 0
2, 5526, Note_on_c, 1, 58, 83
2, 5554, Note_on_c, 1, 58, 0
2, 5557, Note_on_c, 1, 56, 79
2, 5558, Note_on_c, 1, 58, 58
2, 5566, Note_on_c, 1, 58, 0
2, 5582, Note_on_c, 1, 56, 0
2, 5584, Note_on_c, 1, 51, 69
2, 5610, Note_on_c, 1, 51, 0
2, 5614, Note_on_c, 1, 47, 33
2, 5637, Note_on_c, 1, 47, 0
2, 5641, Note_on_c, 1, 52, 90
2, 5726, Note_on_c, 1, 48, 77
2, 5731, Note_on_c, 1, 52, 0
2, 5738, Note_on_c, 1, 48, 0
2, 5744, Note_on_c, 1, 47, 49
2, 5756, Note_on_c, 1, 47, 0
2, 5767, Note_on_c, 1, 47, 76
2, 5798, Note_on_c, 1, 48, 85
2, 5799, Note_on_c, 1, 47, 0
2, 5828, Note_on_c, 1, 48, 0
2, 5835, Note_on_c, 1, 48, 83
2, 5885, Note_on_c, 1, 48, 0
2, 5889, Note_on_c, 1, 50, 89
2, 5921, Note_on_c, 1, 50, 0
2, 5926, Note_on_c, 1, 50, 80
2, 5951, Note_on_c, 1, 50, 0
2, 5956, Note_on_c, 1, 50, 85
2, 6005, Note_on_c, 1, 50, 0
2, 6011, Note_on_c, 1, 52, 90
2, 6042, Note_on_c, 1, 52, 0
2, 6048, Note_on_c, 1, 52, 87
2, 6181, Note_on_c, 1, 52, 0
2, 6214, Note_on_c, 1, 53, 103
2, 6227, Note_on_c, 1, 53, 0
2, 6234, Note_on_c, 1, 53, 87
2, 6248, Note_on_c, 1, 53, 0
2, 6258, Note_on_c, 1, 55, 110
2, 6286, Note_on_c, 1, 55, 0
2, 6294, Note_on_c, 1, 55, 99
2, 6321, Note_on_c, 1, 55, 0
2, 6328, Note_on_c, 1, 55, 88
2, 6444, Note_on_c, 1, 55, 0
2, 6461, Note_on_c, 1, 56, 87
2, 6479, Note_on_c, 1, 56, 0
2, 6497, Note_on_c, 1, 58, 93
2, 6507, Pitch_bend_c, 1, 8192
2, 6508, Pitch_bend_c, 1, 8192
2, 6510, Pitch_bend_c, 1, 8192
2, 6512, Pitch_bend_c, 1, 8192
2, 6514, Pitch_bend_c, 1, 7680
2, 6517, Pitch_bend_c, 1, 7424
2, 6519, Pitch_bend_c, 1, 7296
2, 6520, Pitch_bend_c, 1, 7040
2, 6522, Pitch_bend_c, 1, 6912
2, 6523, Pitch_bend_c, 1, 6656
2, 6525, Pitch_bend_c, 1, 6528
2, 6526, Pitch_bend_c, 1, 6400
2, 6527, Pitch_bend_c, 1, 6144
2, 6528, Pitch_bend_c, 1, 6016
2, 6529, Pitch_bend_c, 1, 5888
2, 6529, Pitch_bend_c, 1, 5760
2, 6531, Pitch_bend_c, 1, 5504
2, 6531, Pitch_bend_c, 1, 5376
2, 6532, Pitch_bend_c, 1, 5120
2, 6533, Pitch_bend_c, 1, 4992
2, 6534, Pitch_bend_c, 1, 4864
2, 6534, Pitch_bend_c, 1, 4736
2, 6535, Pitch_bend_c, 1, 4608
2, 6536, Pitch_bend_c, 1, 4480
2, 6536, Pitch_bend_c, 1, 4224
2, 6537, Pitch_bend_c, 1, 4096
2, 6538, Pitch_bend_c, 1, 3968
2, 6539, Pitch_bend_c, 1, 3712
2, 6539, Pitch_bend_c, 1, 3584
2, 6541, Pitch_bend_c, 1, 3456
2, 6541, Pitch_bend_c, 1, 3328
2, 6542, Pitch_bend_c, 1, 3200
2, 6543, Note_on_c, 1, 58, 0
2, 6544, Pitch_bend_c, 1, 3072
2, 6544, Pitch_bend_c, 1, 2944
2, 6547, Pitch_bend_c, 1, 3072
2, 6548, Pitch_bend_c, 1, 3328
2, 6549, Pitch_bend_c, 1, 3584
2, 6549, Pitch_bend_c, 1, 3968
2, 6550, Pitch_bend_c, 1, 4352
2, 6551, Pitch_bend_c, 1, 4736
2, 6551, Pitch_bend_c, 1, 5376
2, 6552, Pitch_bend_c, 1, 5760
2, 6553, Pitch_bend_c, 1, 6272
2, 6554, Pitch_bend_c, 1, 6912
2, 6554, Pitch_bend_c, 1, 7424
2, 6555, Pitch_bend_c, 1, 8192
2, 6555, Pitch_bend_c, 1, 8192
2, 6672, Note_on_c, 1, 60, 110
2, 6694, Note_on_c, 1, 60, 0
2, 6704, Note_on_c, 1, 60, 99
2, 6723, Note_on_c, 1, 60, 0
2, 6737, Note_on_c, 1, 62, 108
2, 6763, Note_on_c, 1, 62, 0
2, 6764, Note_on_c, 1, 61, 67
2, 6783, Note_on_c, 1, 61, 0
2, 6789, Note_on_c, 1, 62, 88
2, 6946, Note_on_c, 1, 62, 0
2, 6949, Note_on_c, 1, 61, 72
2, 6971, Note_on_c, 1, 61, 0
2, 6979, Note_on_c, 1, 62, 74
2, 7009, Note_on_c, 1, 62, 0
2, 7009, Note_on_c, 1, 50, 54
2, 7029, Note_on_c, 1, 50, 0
2, 7041, Note_on_c, 1, 50, 57
2, 7169, Note_on_c, 1, 50, 0
2, 7206, Note_on_c, 1, 63, 86
2, 7240, Note_on_c, 1, 63, 0
2, 7259, Note_on_c, 1, 63, 87
2, 7290, Note_on_c, 1, 60, 72
2, 7291, Note_on_c, 1, 63, 0
2, 7312, Note_on_c, 1, 60, 0
2, 7317, Note_on_c, 1, 61, 80
2, 7345, Note_on_c, 1, 61, 0
2, 7349, Note_on_c, 1, 63, 81
2, 7421, Note_on_c, 1, 63, 0
2, 7437, Note_on_c, 1, 63, 80
2, 7604, Note_on_c, 1, 63, 0
2, 7651, Note_on_c, 1, 63, 76
2, 7660, Note_on_c, 1, 63, 0
2, 7684, Note_on_c, 1, 52, 118
2, 7689, Control_c, 1, 64, 0
2, 7765, Control_c, 1, 64, 127
2, 7809, Note_on_c, 1, 40, 101
2, 7816, Control_c, 1, 64, 0
2, 7821, Note_on_c, 1, 52, 0
2, 8030, Control_c, 1, 64, 127
2, 8043, Note_on_c, 1, 28, 96
2, 8045, Control_c, 1, 64, 0
2, 8070, Control_c, 1, 64, 127
2, 8143, Note_on_c, 1, 34, 27
2, 8158, Note_on_c, 1, 34, 0
2, 8161, Note_on_c, 1, 40, 0
2, 8162, Note_on_c, 1, 39, 99
2, 8164, Control_c, 1, 64, 0
2, 8171, Note_on_c, 1, 28, 0
2, 8230, Control_c, 1, 64, 127
2, 8282, Note_on_c, 1, 51, 104
2, 8286, Control_c, 1, 64, 0
2, 8638, Note_on_c, 1, 39, 0
2, 8643, Note_on_c, 1, 38, 91
2, 8647, Note_on_c, 1, 51, 0
2, 8815, Note_on_c, 1, 38, 0
2, 8820, Note_on_c, 1, 38, 95
2, 8870, Note_on_c, 1, 38, 0
2, 8875, Note_on_c, 1, 37, 77
2, 9058, Note_on_c, 1, 49, 108
2, 9108, Note_on_c, 1, 49, 0
2, 9114, Note_on_c, 1, 48, 113
2, 9128, Note_on_c, 1, 37, 0
2, 9167, Note_on_c, 1, 43, 82
2, 9225, Note_on_c, 1, 41, 103
2, 9226, Note_on_c, 1, 48, 0
2, 9229, Note_on_c, 1, 43, 0
2, 9416, Note_on_c, 1, 29, 81
2, 9600, Note_on_c, 1, 39, 102
2, 9603, Note_on_c, 1, 41, 0
2, 9610, Note_on_c, 1, 29, 0
2, 9771, Note_on_c, 1, 48, 115
2, 9829, Note_on_c, 1, 48, 0
2, 9830, Note_on_c, 1, 44, 95
2, 9884, Note_on_c, 1, 39, 0
2, 9952, Note_on_c, 1, 32, 90
2, 9957, Note_on_c, 1, 44, 0
2, 10077, Note_on_c, 1, 32, 0
2, 10077, Note_on_c, 1, 37, 87
2, 10124, Note_on_c, 1, 37, 0
2, 10133, Note_on_c, 1, 37, 80
2, 10327, Note_on_c, 1, 42, 93
2, 10332, Note_on_c, 1, 37, 0
2, 10538, Note_on_c, 1, 49, 108
2, 10565, Note_on_c, 1, 49, 0
2, 10568, Note_on_c, 1, 42, 0
2, 10570, Note_on_c, 1, 48, 95
2, 10607, Note_on_c, 1, 48, 0
2, 10611, Note_on_c, 1, 48, 90
2, 10652, Note_on_c, 1, 36, 83
2, 10667, Note_on_c, 1, 48, 0
2, 10680, Note_on_c, 1, 36, 0
2, 10685, Note_on_c, 1, 36, 95
2, 10804, Note_on_c, 1, 36, 0
2, 10805, Note_on_c, 1, 41, 101
2, 10983, Note_on_c, 1, 48, 108
2, 10999, Note_on_c, 1, 48, 0
2, 11012, Note_on_c, 1, 47, 95
2, 11028, Note_on_c, 1, 47, 0
2, 11046, Note_on_c, 1, 41, 0
2, 11046, Note_on_c, 1, 46, 86
2, 11080, Note_on_c, 1, 40, 85
2, 11082, Note_on_c, 1, 46, 0
2, 11110, Note_on_c, 1, 40, 0
2, 11115, Note_on_c, 1, 40, 87
2, 11281, Note_on_c, 1, 40, 0
2, 11281, Note_on_c, 1, 39, 83
2, 11382, Note_on_c, 1, 51, 111
2, 11410, Note_on_c, 1, 51, 0
2, 11418, Note_on_c, 1, 51, 95
2, 11449, Note_on_c, 1, 51, 0
2, 11453, Note_on_c, 1, 49, 93
2, 11465, Note_on_c, 1, 39, 0
2, 11472, Note_on_c, 1, 49, 0
2, 11479, Note_on_c, 1, 48, 69
2, 11500, Note_on_c, 1, 48, 0
2, 11507, Note_on_c, 1, 46, 87
2, 11530, Note_on_c, 1, 46, 0
2, 11535, Note_on_c, 1, 44, 94
2, 11537, Note_on_c, 1, 46, 44
2, 11540, Note_on_c, 1, 46, 0
2, 11645, Note_on_c, 1, 44, 0
2, 11649, Note_on_c, 1, 46, 97
2, 11757, Note_on_c, 1, 46, 0
2, 11762, Note_on_c, 1, 48, 84
2, 11820, Note_on_c, 1, 36, 89
2, 11828, Note_on_c, 1, 48, 0
2, 11878, Note_on_c, 1, 37, 91
2, 11881, Note_on_c, 1, 36, 0
2, 11938, Note_on_c, 1, 49, 111
2, 11983, Note_on_c, 1, 37, 0
2, 11993, Note_on_c, 1, 49, 0
2, 11994, Note_on_c, 1, 36, 108
2, 12050, Note_on_c, 1, 48, 125
2, 12109, Note_on_c, 1, 48, 0
2, 12111, Note_on_c, 1, 46, 93
2, 12114, Note_on_c, 1, 36, 0
2, 12170, Note_on_c, 1, 46, 0
2, 12171, Note_on_c, 1, 34, 93
2, 12221, Note_on_c, 1, 34, 0
2, 12227, Note_on_c, 1, 32, 94
2, 12231, Note_on_c, 1, 34, 61
2, 12234, Note_on_c, 1, 34, 0
2, 12358, Note_on_c, 1, 42, 113
2, 12367, Note_on_c, 1, 32, 0
2, 12420, Note_on_c, 1, 32, 52
2, 12430, Note_on_c, 1, 32, 0
2, 12472, Note_on_c, 1, 42, 0
2, 12476, Note_on_c, 1, 40, 113
2, 12706, Note_on_c, 1, 40, 0
2, 12715, Note_on_c, 1, 40, 92
2, 12958, Note_on_c, 1, 39, 97
2, 12963, Note_on_c, 1, 40, 0
2, 13075, Note_on_c, 1, 51, 97
2, 13172, Note_on_c, 1, 51, 0
2, 13174, Note_on_c, 1, 50, 88
2, 13176, Note_on_c, 1, 51, 49
2, 13194, Note_on_c, 1, 39, 0
2, 13200, Note_on_c, 1, 51, 0
2, 13202, Note_on_c, 1, 50, 0
2, 13206, Note_on_c, 1, 49, 97
2, 13293, Note_on_c, 1, 42, 91
2, 13316, Note_on_c, 1, 42, 0
2, 13322, Note_on_c, 1, 30, 83
2, 13325, Note_on_c, 1, 49, 0
2, 13379, Note_on_c, 1, 30, 0
2, 13382, Note_on_c, 1, 35, 80
2, 13432, Note_on_c, 1, 35, 0
2, 13436, Note_on_c, 1, 36, 101
2, 13679, Note_on_c, 1, 41, 123
2, 13681, Note_on_c, 1, 36, 0
2, 13741, Note_on_c, 1, 41, 0
2, 13741, Note_on_c, 1, 29, 91
2, 13911, Note_on_c, 1, 29, 0
2, 13914, Note_on_c, 1, 34, 88
2, 14101, Note_on_c, 1, 34, 0
2, 14101, Note_on_c, 1, 39, 87
2, 14154, Note_on_c, 1, 39, 0
2, 14160, Note_on_c, 1, 39, 83
2, 14335, Note_on_c, 1, 39, 0
2, 14340, Note_on_c, 1, 39, 91
2, 14392, Note_on_c, 1, 39, 0
2, 14398, Note_on_c, 1, 39, 81
2, 14572, Note_on_c, 1, 39, 0
2, 14578, Note_on_c, 1, 39, 83
2, 14630, Note_on_c, 1, 39, 0
2, 14635, Note_on_c, 1, 39, 90
2, 14812, Note_on_c, 1, 39, 0
2, 14819, Note_on_c, 1, 39, 82
2, 14872, Note_on_c, 1, 39, 0
2, 14878, Note_on_c, 1, 39, 83
2, 14938, Note_on_c, 1, 51, 104
2, 15137, Note_on_c, 1, 39, 0
2, 15177, Note_on_c, 1, 39, 97
2, 15299, Note_on_c, 1, 39, 0
2, 15299, Note_on_c, 1, 38, 53
2, 15323, Note_on_c, 1, 38, 0
2, 15328, Note_on_c, 1, 39, 80
2, 15343, Note_on_c, 1, 51, 0
2, 15359, Note_on_c, 1, 40, 113
2, 15363, Note_on_c, 1, 39, 0
2, 15601, Note_on_c, 1, 44, 106
2, 15697, Note_on_c, 1, 40, 0
2, 15781, Note_on_c, 1, 40, 94
2, 15830, Note_on_c, 1, 44, 0
2, 15839, Note_on_c, 1, 39, 86
2, 15842, Note_on_c, 1, 40, 0
2, 15894, Note_on_c, 1, 51, 92
2, 15950, Note_on_c, 1, 51, 0
2, 15956, Note_on_c, 1, 51, 91
2, 15998, Note_on_c, 1, 39, 0
2, 16016, Note_on_c, 1, 39, 83
2, 16020, Note_on_c, 1, 51, 0
2, 16320, Note_on_c, 1, 39, 0
2, 16324, Note_on_c, 1, 38, 90
2, 16472, Note_on_c, 1, 44, 55
2, 16479, Note_on_c, 1, 44, 0
2, 16497, Note_on_c, 1, 48, 67
2, 16502, Note_on_c, 1, 48, 0
2, 16525, Note_on_c, 1, 53, 96
2, 16545, Note_on_c, 1, 53, 0
2, 16551, Note_on_c, 1, 49, 86
2, 16559, Note_on_c, 1, 38, 0
2, 16610, Note_on_c, 1, 44, 78
2, 16771, Note_on_c, 1, 37, 85
2, 16779, Note_on_c, 1, 44, 0
2, 16782, Note_on_c, 1, 49, 0
2, 16795, Note_on_c, 1, 37, 0
2, 16798, Note_on_c, 1, 36, 87
2, 16860, Note_on_c, 1, 36, 0
2, 16864, Note_on_c, 1, 36, 91
2, 16978, Note_on_c, 1, 48, 115
2, 16984, Note_on_c, 1, 36, 0
2, 17008, Note_on_c, 1, 36, 80
2, 17024, Note_on_c, 1, 48, 0
2, 17032, Note_on_c, 1, 36, 0
2, 17035, Note_on_c, 1, 41, 96
2, 17073, Note_on_c, 1, 53, 92
2, 17142, Note_on_c, 1, 53, 0
2, 17151, Note_on_c, 1, 53, 91
2, 17275, Note_on_c, 1, 41, 0
2, 17277, Note_on_c, 1, 39, 90
2, 17293, Note_on_c, 1, 53, 0
2, 17522, Note_on_c, 1, 32, 84
2, 17524, Note_on_c, 1, 39, 0
2, 17645, Note_on_c, 1, 32, 0
2, 17645, Note_on_c, 1, 38, 88
2, 17757, Note_on_c, 1, 38, 0
2, 17761, Note_on_c, 1, 37, 83
2, 18003, Note_on_c, 1, 42, 99
2, 18021, Note_on_c, 1, 37, 0
2, 18180, Note_on_c, 1, 30, 80
2, 18190, Note_on_c, 1, 30, 0
2, 18250, Note_on_c, 1, 36, 103
2, 18254, Note_on_c, 1, 35, 32
2, 18257, Note_on_c, 1, 35, 0
2, 18297, Note_on_c, 1, 36, 0
2, 18303, Note_on_c, 1, 36, 101
2, 18310, Note_on_c, 1, 42, 0
2, 18482, Note_on_c, 1, 41, 125
2, 18485, Note_on_c, 1, 36, 0
2, 18533, Note_on_c, 1, 41, 0
2, 18540, Note_on_c, 1, 41, 110
2, 18655, Note_on_c, 1, 36, 90
2, 18709, Note_on_c, 1, 36, 0
2, 18713, Note_on_c, 1, 34, 88
2, 18717, Note_on_c, 1, 41, 0
2, 18774, Note_on_c, 1, 40, 95
2, 18821, Note_on_c, 1, 40, 0
2, 18836, Note_on_c, 1, 40, 99
2, 18876, Note_on_c, 1, 34, 0
2, 18955, Note_on_c, 1, 40, 0
2, 18961, Note_on_c, 1, 39, 99
2, 19012, Note_on_c, 1, 39, 0
2, 19019, Note_on_c, 1, 39, 94
2, 19136, Note_on_c, 1, 34, 76
2, 19144, Note_on_c, 1, 39, 0
2, 19151, Note_on_c, 1, 34, 0
2, 19168, Note_on_c, 1, 33, 75
2, 19184, Note_on_c, 1, 33, 0
2, 19196, Note_on_c, 1, 32, 87
2, 19321, Note_on_c, 1, 32, 0
2, 19322, Note_on_c, 1, 39, 97
2, 19441, Note_on_c, 1, 39, 0
2, 19443, Note_on_c, 1, 37, 91
2, 19501, Note_on_c, 1, 49, 104
2, 19551, Note_on_c, 1, 49, 0
2, 19559, Note_on_c, 1, 48, 113
2, 19586, Note_on_c, 1, 37, 0
2, 19616, Note_on_c, 1, 36, 90
2, 19619, Note_on_c, 1, 48, 0
2, 19675, Note_on_c, 1, 36, 0
2, 19676, Note_on_c, 1, 41, 103
2, 19679, Note_on_c, 1, 34, 37
2, 19683, Note_on_c, 1, 34, 0
2, 19733, Note_on_c, 1, 29, 91
2, 19788, Note_on_c, 1, 29, 0
2, 19792, Note_on_c, 1, 34, 91
2, 19796, Note_on_c, 1, 41, 0
2, 19916, Note_on_c, 1, 34, 0
2, 19917, Note_on_c, 1, 39, 92
2, 20036, Note_on_c, 1, 44, 97
2, 20043, Note_on_c, 1, 39, 0
2, 20161, Note_on_c, 1, 44, 0
2, 20162, Note_on_c, 1, 37, 83
2, 20217, Note_on_c, 1, 37, 0
2, 20222, Note_on_c, 1, 37, 84
2, 20334, Note_on_c, 1, 37, 0
2, 20342, Note_on_c, 1, 53, 118
2, 20342, Note_on_c, 1, 37, 78
2, 20394, Note_on_c, 1, 53, 0
2, 20397, Note_on_c, 1, 37, 0
2, 20399, Note_on_c, 1, 38, 87
2, 20400, Note_on_c, 1, 54, 90
2, 20454, Note_on_c, 1, 38, 0
2, 20455, Note_on_c, 1, 54, 0
2, 20461, Note_on_c, 1, 38, 66
2, 20462, Note_on_c, 1, 54, 77
2, 20631, Note_on_c, 1, 38, 0
2, 20634, Note_on_c, 1, 43, 89
2, 20636, Note_on_c, 1, 54, 0
2, 20636, Note_on_c, 1, 41, 71
2, 20639, Note_on_c, 1, 41, 0
2, 20692, Note_on_c, 1, 31, 90
2, 20867, Note_on_c, 1, 43, 0
2, 20870, Note_on_c, 1, 31, 0
2, 20874, Note_on_c, 1, 36, 54
2, 20906, Note_on_c, 1, 48, 110
2, 20927, Note_on_c, 1, 48, 0
2, 20935, Note_on_c, 1, 46, 91
2, 20938, Note_on_c, 1, 36, 0
2, 20989, Note_on_c, 1, 42, 95
2, 20990, Note_on_c, 1, 46, 0
2, 21081, Note_on_c, 1, 42, 0
2, 21086, Note_on_c, 1, 40, 70
2, 21111, Note_on_c, 1, 40, 0
2, 21114, Note_on_c, 1, 41, 92
2, 21171, Note_on_c, 1, 41, 0
2, 21176, Note_on_c, 1, 41, 88
2, 21297, Note_on_c, 1, 55, 115
2, 21299, Note_on_c, 1, 53, 60
2, 21302, Note_on_c, 1, 53, 0
2, 21325, Note_on_c, 1, 55, 0
2, 21330, Note_on_c, 1, 53, 94
2, 21413, Note_on_c, 1, 53, 0
2, 21421, Note_on_c, 1, 52, 108
2, 21433, Note_on_c, 1, 41, 0
2, 21472, Note_on_c, 1, 52, 0
2, 21478, Note_on_c, 1, 52, 108
2, 21535, Note_on_c, 1, 52, 0
2, 21538, Note_on_c, 1, 51, 97
2, 21595, Note_on_c, 1, 51, 0
2, 21599, Note_on_c, 1, 50, 91
2, 21659, Note_on_c, 1, 44, 94
2, 21664, Note_on_c, 1, 50, 0
2, 21780, Note_on_c, 1, 44, 0
2, 21780, Note_on_c, 1, 41, 82
2, 21833, Note_on_c, 1, 41, 0
2, 21838, Note_on_c, 1, 37, 86
2, 21953, Note_on_c, 1, 37, 0
2, 21958, Note_on_c, 1, 36, 89
2, 22071, Note_on_c, 1, 36, 0
2, 22079, Note_on_c, 1, 35, 82
2, 22141, Note_on_c, 1, 47, 101
2, 22184, Note_on_c, 1, 47, 0
2, 22197, Note_on_c, 1, 47, 94
2, 22253, Note_on_c, 1, 35, 0
2, 22256, Note_on_c, 1, 40, 91
2, 22308, Note_on_c, 1, 40, 0
2, 22315, Note_on_c, 1, 47, 0
2, 22315, Note_on_c, 1, 40, 94
2, 22556, Note_on_c, 1, 40, 0
2, 22556, Note_on_c, 1, 34, 91
2, 22775, Note_on_c, 1, 39, 75
2, 22779, Note_on_c, 1, 34, 0
2, 22807, Note_on_c, 1, 51, 104
2, 22859, Note_on_c, 1, 51, 0
2, 22864, Note_on_c, 1, 51, 94
2, 22973, Note_on_c, 1, 39, 0
2, 22979, Note_on_c, 1, 38, 39
2, 22998, Note_on_c, 1, 38, 0
2, 23010, Note_on_c, 1, 39, 72
2, 23033, Note_on_c, 1, 51, 0
2, 23036, Note_on_c, 1, 39, 0
2, 23040, Note_on_c, 1, 40, 82
2, 23073, Note_on_c, 1, 56, 62
2, 23247, Note_on_c, 1, 56, 0
2, 23274, Note_on_c, 1, 40, 0
2, 23282, Note_on_c, 1, 40, 94
2, 23519, Note_on_c, 1, 39, 94
2, 23523, Note_on_c, 1, 40, 0
2, 23919, Note_on_c, 1, 51, 99
2, 23939, Note_on_c, 1, 39, 0
2, 23957, Note_on_c, 1, 49, 74
2, 23963, Note_on_c, 1, 51, 0
2, 23970, Note_on_c, 1, 49, 0
2, 23975, Note_on_c, 1, 39, 65
2, 23985, Note_on_c, 1, 39, 0
2, 23997, Note_on_c, 1, 50, 101
2, 24039, Note_on_c, 1, 44, 85
2, 24043, Note_on_c, 1, 50, 0
2, 24062, Note_on_c, 1, 44, 0
2, 24063, Note_on_c, 1, 38, 85
2, 24215, Note_on_c, 1, 38, 0
2, 24215, Note_on_c, 1, 44, 77
2, 24237, Note_on_c, 1, 44, 0
2, 24240, Note_on_c, 1, 37, 85
2, 24398, Note_on_c, 1, 55, 105
2, 24410, Note_on_c, 1, 37, 0
2, 24437, Note_on_c, 1, 46, 55
2, 24441, Note_on_c, 1, 55, 0
2, 24451, Note_on_c, 1, 46, 0
2, 24458, Note_on_c, 1, 47, 78
2, 24478, Note_on_c, 1, 47, 0
2, 24479, Note_on_c, 1, 48, 82
2, 24512, Note_on_c, 1, 48, 0
2, 24515, Note_on_c, 1, 43, 44
2, 24528, Note_on_c, 1, 43, 0
2, 24535, Note_on_c, 1, 39, 80
2, 24628, Note_on_c, 1, 39, 0
2, 24631, Note_on_c, 1, 40, 71
2, 24653, Note_on_c, 1, 41, 105
2, 24657, Note_on_c, 1, 40, 0
2, 24842, Note_on_c, 1, 41, 0
2, 24843, Note_on_c, 1, 36, 81
2, 24898, Note_on_c, 1, 36, 0
2, 24902, Note_on_c, 1, 38, 88
2, 24946, Note_on_c, 1, 38, 0
2, 24958, Note_on_c, 1, 39, 85
2, 25200, Note_on_c, 1, 44, 94
2, 25206, Note_on_c, 1, 39, 0
2, 25319, Note_on_c, 1, 32, 83
2, 25446, Note_on_c, 1, 37, 83
2, 25448, Note_on_c, 1, 44, 0
2, 25450, Note_on_c, 1, 32, 0
2, 25678, Note_on_c, 1, 42, 98
2, 25682, Note_on_c, 1, 37, 0
2, 25682, Note_on_c, 1, 40, 41
2, 25685, Note_on_c, 1, 40, 0
2, 25901, Note_on_c, 1, 49, 104
2, 25928, Note_on_c, 1, 49, 0
2, 25931, Note_on_c, 1, 48, 94
2, 25978, Note_on_c, 1, 48, 0
2, 25986, Note_on_c, 1, 48, 83
2, 26005, Note_on_c, 1, 42, 0
2, 26131, Note_on_c, 1, 42, 87
2, 26154, Note_on_c, 1, 42, 0
2, 26161, Note_on_c, 1, 48, 0
2, 26161, Note_on_c, 1, 41, 92
2, 26215, Note_on_c, 1, 41, 0
2, 26221, Note_on_c, 1, 41, 85
2, 26340, Note_on_c, 1, 48, 85
2, 26349, Note_on_c, 1, 48, 0
2, 26370, Note_on_c, 1, 47, 81
2, 26381, Note_on_c, 1, 47, 0
2, 26400, Note_on_c, 1, 46, 82
2, 26454, Note_on_c, 1, 46, 0
2, 26462, Note_on_c, 1, 46, 86
2, 26465, Note_on_c, 1, 41, 0
2, 26518, Note_on_c, 1, 41, 80
2, 26525, Note_on_c, 1, 41, 0
2, 26552, Note_on_c, 1, 40, 80
2, 26562, Note_on_c, 1, 40, 0
2, 26581, Note_on_c, 1, 39, 88
2, 26606, Note_on_c, 1, 46, 0
2, 26639, Note_on_c, 1, 51, 82
2, 26698, Note_on_c, 1, 55, 79
2, 26702, Note_on_c, 1, 51, 0
2, 26819, Note_on_c, 1, 39, 0
2, 26819, Note_on_c, 1, 42, 58
2, 26830, Note_on_c, 1, 42, 0
2, 26848, Note_on_c, 1, 43, 57
2, 26871, Note_on_c, 1, 43, 0
2, 26876, Note_on_c, 1, 44, 92
2, 26938, Note_on_c, 1, 55, 0
2, 27005, Note_on_c, 1, 46, 99
2, 27046, Note_on_c, 1, 44, 0
2, 27120, Note_on_c, 1, 46, 0
2, 27126, Note_on_c, 1, 48, 91
2, 27240, Note_on_c, 1, 48, 0
2, 27244, Note_on_c, 1, 49, 82
2, 27302, Note_on_c, 1, 37, 86
2, 27312, Note_on_c, 1, 49, 0
2, 27353, Note_on_c, 1, 37, 0
2, 27358, Note_on_c, 1, 36, 92
2, 27414, Note_on_c, 1, 51, 97
2, 27468, Note_on_c, 1, 36, 0
2, 27473, Note_on_c, 1, 34, 75
2, 27477, Note_on_c, 1, 51, 0
2, 27528, Note_on_c, 1, 49, 94
2, 27578, Note_on_c, 1, 34, 0
2, 27589, Note_on_c, 1, 32, 84
2, 27594, Note_on_c, 1, 49, 0
2, 27642, Note_on_c, 1, 48, 103
2, 27687, Note_on_c, 1, 32, 0
2, 27706, Note_on_c, 1, 30, 77
2, 27707, Note_on_c, 1, 48, 0
2, 27825, Note_on_c, 1, 30, 0
2, 27826, Note_on_c, 1, 40, 96
2, 27889, Note_on_c, 1, 28, 90
2, 27895, Note_on_c, 1, 40, 0
2, 28076, Note_on_c, 1, 40, 105
2, 28205, Note_on_c, 1, 28, 0
2, 28278, Note_on_c, 1, 40, 0
2, 28284, Note_on_c, 1, 41, 73
2, 28291, Note_on_c, 1, 41, 0
2, 28303, Note_on_c, 1, 40, 83
2, 28317, Note_on_c, 1, 40, 0
2, 28323, Note_on_c, 1, 39, 90
2, 28558, Note_on_c, 1, 37, 83
2, 28564, Note_on_c, 1, 39, 0
2, 28675, Note_on_c, 1, 42, 98
2, 28676, Note_on_c, 1, 37, 0
2, 28797, Note_on_c, 1, 36, 96
2, 28800, Note_on_c, 1, 42, 0
2, 29042, Note_on_c, 1, 36, 0
2, 29043, Note_on_c, 1, 41, 108
2, 29213, Note_on_c, 1, 41, 0
2, 29220, Note_on_c, 1, 37, 67
2, 29226, Note_on_c, 1, 37, 0
2, 29255, Note_on_c, 1, 36, 72
2, 29261, Note_on_c, 1, 36, 0
2, 29279, Note_on_c, 1, 34, 83
2, 29397, Note_on_c, 1, 46, 95
2, 29506, Note_on_c, 1, 46, 0
2, 29518, Note_on_c, 1, 47, 113
2, 29533, Note_on_c, 1, 34, 0
2, 29614, Note_on_c, 1, 50, 92
2, 29634, Note_on_c, 1, 50, 0
2, 29644, Note_on_c, 1, 53, 91
2, 29673, Note_on_c, 1, 53, 0
2, 29678, Note_on_c, 1, 53, 87
2, 29695, Note_on_c, 1, 53, 0
2, 29705, Note_on_c, 1, 56, 80
2, 29718, Note_on_c, 1, 47, 0
2, 29730, Note_on_c, 1, 56, 0
2, 29737, Note_on_c, 1, 50, 81
2, 29762, Note_on_c, 1, 50, 0
2, 29766, Note_on_c, 1, 48, 82
2, 29808, Note_on_c, 1, 48, 0
2, 29821, Note_on_c, 1, 48, 83
2, 29972, Note_on_c, 1, 43, 70
2, 29994, Note_on_c, 1, 43, 0
2, 30000, Note_on_c, 1, 39, 84
2, 30004, Note_on_c, 1, 48, 0
2, 30062, Note_on_c, 1, 51, 106
2, 30209, Note_on_c, 1, 51, 0
2, 30211, Note_on_c, 1, 49, 81
2, 30230, Note_on_c, 1, 49, 0
2, 30234, Note_on_c, 1, 39, 0
2, 30239, Note_on_c, 1, 50, 88
2, 30268, Note_on_c, 1, 50, 0
2, 30271, Note_on_c, 1, 44, 79
2, 30420, Note_on_c, 1, 41, 74
2, 30422, Note_on_c, 1, 44, 0
2, 30478, Note_on_c, 1, 41, 0
2, 30480, Note_on_c, 1, 37, 71
2, 30541, Note_on_c, 1, 40, 83
2, 30543, Note_on_c, 1, 37, 0
2, 30601, Note_on_c, 1, 52, 115
2, 30636, Note_on_c, 1, 40, 0
2, 30641, Note_on_c, 1, 37, 25
2, 30645, Note_on_c, 1, 40, 45
2, 30650, Note_on_c, 1, 37, 0
2, 30658, Note_on_c, 1, 52, 0
2, 30660, Note_on_c, 1, 49, 97
2, 30661, Note_on_c, 1, 40, 0
2, 30699, Note_on_c, 1, 40, 32
2, 30704, Note_on_c, 1, 40, 0
2, 30718, Note_on_c, 1, 49, 0
2, 30719, Note_on_c, 1, 48, 95
2, 30919, Note_on_c, 1, 43, 58
2, 30926, Note_on_c, 1, 43, 0
2, 30937, Note_on_c, 1, 39, 58
2, 30955, Note_on_c, 1, 39, 0
2, 30958, Note_on_c, 1, 48, 0
2, 30958, Note_on_c, 1, 41, 99
2, 31080, Note_on_c, 1, 36, 95
2, 31085, Note_on_c, 1, 41, 0
2, 31170, Note_on_c, 1, 36, 0
2, 31173, Note_on_c, 1, 35, 75
2, 31190, Note_on_c, 1, 35, 0
2, 31201, Note_on_c, 1, 34, 81
2, 31382, Note_on_c, 1, 39, 84
2, 31388, Note_on_c, 1, 34, 0
2, 31434, Note_on_c, 1, 39, 0
2, 31440, Note_on_c, 1, 39, 83
2, 31679, Note_on_c, 1, 39, 0
2, 31681, Note_on_c, 1, 32, 87
2, 32430, Note_on_c, 1, 32, 0
2, 32430, End_track
3, 0, Start_track
3, 0, Title_t, ""
3, 0, Program_c, 9, 32
3, 4, Note_on_c, 9, 59, 74
3, 105, Note_on_c, 9, 59, 0
3, 125, Note_on_c, 9, 59, 66
3, 129, Note_on_c, 9, 59, 0
3, 240, Note_on_c, 9, 59, 50
3, 245, Note_on_c, 9, 59, 0
3, 254, Note_on_c, 9, 59, 68
3, 261, Note_on_c, 9, 59, 0
3, 304, Note_on_c, 9, 59, 80
3, 310, Note_on_c, 9, 59, 0
3, 349, Note_on_c, 9, 59, 77
3, 356, Note_on_c, 9, 59, 0
3, 452, Note_on_c, 9, 59, 55
3, 456, Note_on_c, 9, 59, 0
3, 473, Note_on_c, 9, 59, 77
3, 479, Note_on_c, 9, 59, 0
3, 600, Note_on_c, 9, 59, 57
3, 668, Note_on_c, 9, 59, 0
3, 710, Note_on_c, 9, 46, 57
3, 714, Note_on_c, 9, 59, 74
3, 718, Note_on_c, 9, 46, 0
3, 807, Note_on_c, 9, 59, 0
3, 839, Note_on_c, 9, 53, 54
3, 842, Note_on_c, 9, 59, 77
3, 845, Note_on_c, 9, 53, 0
3, 855, Note_on_c, 9, 59, 0
3, 887, Note_on_c, 9, 53, 60
3, 890, Note_on_c, 9, 53, 0
3, 892, Note_on_c, 9, 59, 82
3, 924, Note_on_c, 9, 59, 0
3, 953, Note_on_c, 9, 53, 57
3, 957, Note_on_c, 9, 53, 0
3, 957, Note_on_c, 9, 59, 82
3, 972, Note_on_c, 9, 59, 0
3, 1001, Note_on_c, 9, 53, 62
3, 1004, Note_on_c, 9, 59, 70
3, 1005, Note_on_c, 9, 53, 0
3, 1058, Note_on_c, 9, 59, 0
3, 1083, Note_on_c, 9, 59, 46
3, 1087, Note_on_c, 9, 59, 0
3, 1168, Note_on_c, 9, 59, 50
3, 1178, Note_on_c, 9, 59, 0
3, 1192, Note_on_c, 9, 59, 53
3, 1215, Note_on_c, 9, 59, 0
3, 1312, Note_on_c, 9, 59, 57
3, 1396, Note_on_c, 9, 59, 0
3, 1435, Note_on_c, 9, 59, 50
3, 1467, Note_on_c, 9, 59, 0
3, 1561, Note_on_c, 9, 53, 60
3, 1562, Note_on_c, 9, 51, 64
3, 1562, Note_on_c, 9, 46, 48
3, 1570, Note_on_c, 9, 53, 0
3, 1573, Note_on_c, 9, 46, 0
3, 1573, Note_on_c, 9, 51, 0
3, 1630, Note_on_c, 9, 51, 50
3, 1630, Note_on_c, 9, 53, 50
3, 1630, Note_on_c, 9, 46, 52
3, 1647, Note_on_c, 9, 51, 0
3, 1648, Note_on_c, 9, 46, 0
3, 1649, Note_on_c, 9, 53, 0
3, 1743, Note_on_c, 9, 59, 65
3, 1775, Note_on_c, 9, 59, 0
3, 1888, Note_on_c, 9, 59, 58
3, 1895, Note_on_c, 9, 59, 0
3, 1916, Note_on_c, 9, 59, 58
3, 1949, Note_on_c, 9, 59, 0
3, 1952, Note_on_c, 9, 44, 50
3, 1961, Note_on_c, 9, 44, 0
3, 1987, Note_on_c, 9, 59, 45
3, 1993, Note_on_c, 9, 59, 0
3, 2017, Note_on_c, 9, 59, 51
3, 2026, Note_on_c, 9, 59, 0
3, 2048, Note_on_c, 9, 59, 68
3, 2058, Note_on_c, 9, 59, 0
3, 2080, Note_on_c, 9, 44, 28
3, 2090, Note_on_c, 9, 44, 0
3, 2167, Note_on_c, 9, 59, 37
3, 2174, Note_on_c, 9, 59, 0
3, 2205, Note_on_c, 9, 59, 35
3, 2211, Note_on_c, 9, 59, 0
3, 2280, Note_on_c, 9, 59, 39
3, 2361, Note_on_c, 9, 59, 0
3, 2377, Note_on_c, 9, 59, 36
3, 2390, Note_on_c, 9, 59, 0
3, 2400, Note_on_c, 9, 59, 60
3, 2448, Note_on_c, 9, 59, 0
3, 2532, Note_on_c, 9, 59, 34
3, 2545, Note_on_c, 9, 59, 0
3, 2644, Note_on_c, 9, 53, 60
3, 2647, Note_on_c, 9, 53, 0
3, 2651, Note_on_c, 9, 59, 66
3, 2657, Note_on_c, 9, 59, 0
3, 2709, Note_on_c, 9, 53, 64
3, 2712, Note_on_c, 9, 53, 0
3, 2712, Note_on_c, 9, 59, 66
3, 2723, Note_on_c, 9, 59, 0
3, 2818, Note_on_c, 9, 53, 36
3, 2820, Note_on_c, 9, 59, 68
3, 2822, Note_on_c, 9, 53, 0
3, 2830, Note_on_c, 9, 59, 0
3, 2876, Note_on_c, 9, 53, 48
3, 2880, Note_on_c, 9, 53, 0
3, 2882, Note_on_c, 9, 59, 71
3, 2958, Note_on_c, 9, 59, 0
3, 3000, Note_on_c, 9, 59, 44
3, 3004, Note_on_c, 9, 59, 0
3, 3097, Note_on_c, 9, 59, 39
3, 3106, Note_on_c, 9, 59, 0
3, 3116, Note_on_c, 9, 59, 58
3, 3128, Note_on_c, 9, 59, 0
3, 3238, Note_on_c, 9, 59, 50
3, 3299, Note_on_c, 9, 59, 0
3, 3360, Note_on_c, 9, 59, 47
3, 3368, Note_on_c, 9, 59, 0
3, 3486, Note_on_c, 9, 59, 52
3, 3556, Note_on_c, 9, 59, 0
3, 3578, Note_on_c, 9, 59, 43
3, 3584, Note_on_c, 9, 59, 0
3, 3603, Note_on_c, 9, 59, 29
3, 3613, Note_on_c, 9, 59, 0
3, 3641, Note_on_c, 9, 44, 34
3, 3652, Note_on_c, 9, 44, 0
3, 3666, Note_on_c, 9, 59, 29
3, 3680, Note_on_c, 9, 59, 0
3, 3706, Note_on_c, 9, 44, 34
3, 3711, Note_on_c, 9, 44, 0
3, 3734, Note_on_c, 9, 59, 27
3, 3738, Note_on_c, 9, 59, 0
3, 3827, Note_on_c, 9, 44, 60
3, 3834, Note_on_c, 9, 44, 0
3, 3848, Note_on_c, 9, 59, 44
3, 3861, Note_on_c, 9, 59, 0
3, 3894, Note_on_c, 9, 59, 50
3, 3901, Note_on_c, 9, 59, 0
3, 3944, Note_on_c, 9, 59, 37
3, 3950, Note_on_c, 9, 59, 0
3, 3963, Note_on_c, 9, 59, 62
3, 3978, Note_on_c, 9, 59, 0
3, 4091, Note_on_c, 9, 59, 65
3, 4121, Note_on_c, 9, 59, 0
3, 4203, Note_on_c, 9, 59, 48
3, 4247, Note_on_c, 9, 59, 0
3, 4316, Note_on_c, 9, 51, 81
3, 4317, Note_on_c, 9, 53, 65
3, 4321, Note_on_c, 9, 53, 0
3, 4327, Note_on_c, 9, 51, 0
3, 4383, Note_on_c, 9, 51, 75
3, 4383, Note_on_c, 9, 53, 64
3, 4395, Note_on_c, 9, 53, 0
3, 4401, Note_on_c, 9, 51, 0
3, 4535, Note_on_c, 9, 59, 47
3, 4542, Note_on_c, 9, 59, 0
3, 4559, Note_on_c, 9, 59, 52
3, 4580, Note_on_c, 9, 59, 0
3, 4685, Note_on_c, 9, 59, 59
3, 4698, Note_on_c, 9, 59, 0
3, 4773, Note_on_c, 9, 51, 34
3, 4778, Note_on_c, 9, 51, 0
3, 4798, Note_on_c, 9, 57, 64
3, 4922, Note_on_c, 9, 57, 0
3, 4954, Note_on_c, 9, 59, 40
3, 4959, Note_on_c, 9, 59, 0
3, 4978, Note_on_c, 9, 59, 54
3, 4986, Note_on_c, 9, 59, 0
3, 5010, Note_on_c, 9, 59, 87
3, 5018, Note_on_c, 9, 59, 0
3, 5037, Note_on_c, 9, 59, 95
3, 5061, Note_on_c, 9, 59, 0
3, 5158, Note_on_c, 9, 59, 16
3, 5174, Note_on_c, 9, 59, 0
3, 5190, Note_on_c, 9, 59, 40
3, 5213, Note_on_c, 9, 59, 0
3, 5220, Note_on_c, 9, 59, 74
3, 5232, Note_on_c, 9, 59, 0
3, 5250, Note_on_c, 9, 59, 80
3, 5261, Note_on_c, 9, 59, 0
3, 5279, Note_on_c, 9, 59, 108
3, 5308, Note_on_c, 9, 59, 0
3, 5346, Note_on_c, 9, 59, 50
3, 5354, Note_on_c, 9, 59, 0
3, 5382, Note_on_c, 9, 59, 44
3, 5390, Note_on_c, 9, 59, 0
3, 5414, Note_on_c, 9, 59, 38
3, 5423, Note_on_c, 9, 59, 0
3, 5445, Note_on_c, 9, 51, 39
3, 5446, Note_on_c, 9, 53, 36
3, 5452, Note_on_c, 9, 53, 0
3, 5455, Note_on_c, 9, 51, 0
3, 5498, Note_on_c, 9, 59, 40
3, 5507, Note_on_c, 9, 59, 0
3, 5527, Note_on_c, 9, 59, 45
3, 5539, Note_on_c, 9, 59, 0
3, 5558, Note_on_c, 9, 51, 55
3, 5559, Note_on_c, 9, 53, 53
3, 5565, Note_on_c, 9, 53, 0
3, 5568, Note_on_c, 9, 51, 0
3, 5819, Note_on_c, 9, 59, 33
3, 5826, Note_on_c, 9, 59, 0
3, 5849, Note_on_c, 9, 59, 57
3, 5856, Note_on_c, 9, 59, 0
3, 5876, Note_on_c, 9, 59, 82
3, 5903, Note_on_c, 9, 59, 0
3, 5974, Note_on_c, 9, 59, 48
3, 5984, Note_on_c, 9, 59, 0
3, 5998, Note_on_c, 9, 59, 64
3, 6092, Note_on_c, 9, 59, 0
3, 6111, Note_on_c, 9, 59, 46
3, 6199, Note_on_c, 9, 59, 0
3, 6214, Note_on_c, 9, 51, 35
3, 6219, Note_on_c, 9, 51, 0
3, 6240, Note_on_c, 9, 59, 80
3, 6281, Note_on_c, 9, 59, 0
3, 6304, Note_on_c, 9, 59, 57
3, 6341, Note_on_c, 9, 59, 0
3, 6365, Note_on_c, 9, 59, 38
3, 6392, Note_on_c, 9, 59, 0
3, 6400, Note_on_c, 9, 44, 51
3, 6411, Note_on_c, 9, 44, 0
3, 6427, Note_on_c, 9, 59, 38
3, 6445, Note_on_c, 9, 59, 0
3, 6461, Note_on_c, 9, 44, 55
3, 6472, Note_on_c, 9, 44, 0
3, 6489, Note_on_c, 9, 59, 37
3, 6524, Note_on_c, 9, 59, 0
3, 6547, Note_on_c, 9, 59, 84
3, 6595, Note_on_c, 9, 59, 0
3, 6641, Note_on_c, 9, 59, 47
3, 6649, Note_on_c, 9, 59, 0
3, 6666, Note_on_c, 9, 59, 58
3, 6674, Note_on_c, 9, 59, 0
3, 6696, Note_on_c, 9, 59, 91
3, 6706, Note_on_c, 9, 59, 0
3, 6725, Note_on_c, 9, 59, 103
3, 6744, Note_on_c, 9, 59, 0
3, 6754, Note_on_c, 9, 59, 57
3, 6768, Note_on_c, 9, 59, 0
3, 6782, Note_on_c, 9, 59, 49
3, 6794, Note_on_c, 9, 59, 0
3, 6811, Note_on_c, 9, 59, 58
3, 6819, Note_on_c, 9, 59, 0
3, 6841, Note_on_c, 9, 59, 71
3, 6861, Note_on_c, 9, 59, 0
3, 6908, Note_on_c, 9, 59, 63
3, 6934, Note_on_c, 9, 59, 0
3, 6968, Note_on_c, 9, 59, 60
3, 6989, Note_on_c, 9, 59, 0
3, 7087, Note_on_c, 9, 59, 44
3, 7093, Note_on_c, 9, 59, 0
3, 7114, Note_on_c, 9, 59, 50
3, 7120, Note_on_c, 9, 59, 0
3, 7143, Note_on_c, 9, 59, 46
3, 7147, Note_on_c, 9, 59, 0
3, 7174, Note_on_c, 9, 59, 92
3, 7182, Note_on_c, 9, 59, 0
3, 7203, Note_on_c, 9, 59, 94
3, 7223, Note_on_c, 9, 59, 0
3, 7321, Note_on_c, 9, 59, 40
3, 7339, Note_on_c, 9, 59, 0
3, 7361, Note_on_c, 9, 51, 55
3, 7364, Note_on_c, 9, 53, 42
3, 7373, Note_on_c, 9, 53, 0
3, 7374, Note_on_c, 9, 51, 0
3, 7434, Note_on_c, 9, 59, 68
3, 7444, Note_on_c, 9, 59, 0
3, 7479, Note_on_c, 9, 51, 45
3, 7480, Note_on_c, 9, 53, 44
3, 7484, Note_on_c, 9, 53, 0
3, 7486, Note_on_c, 9, 51, 0
3, 7565, Note_on_c, 9, 59, 64
3, 7573, Note_on_c, 9, 59, 0
3, 7601, Note_on_c, 9, 51, 35
3, 7603, Note_on_c, 9, 53, 36
3, 7607, Note_on_c, 9, 53, 0
3, 7607, Note_on_c, 9, 51, 0
3, 7656, Note_on_c, 9, 51, 50
3, 7658, Note_on_c, 9, 53, 36
3, 7660, Note_on_c, 9, 51, 0
3, 7662, Note_on_c, 9, 53, 0
3, 7683, Note_on_c, 9, 57, 72
3, 7690, Note_on_c, 9, 57, 0
3, 7805, Note_on_c, 9, 59, 63
3, 7811, Note_on_c, 9, 59, 0
3, 7907, Note_on_c, 9, 59, 50
3, 7913, Note_on_c, 9, 59, 0
3, 7927, Note_on_c, 9, 59, 47
3, 7944, Note_on_c, 9, 59, 0
3, 7979, Note_on_c, 9, 59, 63
3, 7988, Note_on_c, 9, 59, 0
3, 8035, Note_on_c, 9, 59, 68
3, 8044, Note_on_c, 9, 59, 0
3, 8156, Note_on_c, 9, 59, 75
3, 8164, Note_on_c, 9, 59, 0
3, 8220, Note_on_c, 9, 59, 71
3, 8228, Note_on_c, 9, 59, 0
3, 8323, Note_on_c, 9, 59, 34
3, 8329, Note_on_c, 9, 59, 0
3, 8341, Note_on_c, 9, 59, 66
3, 8352, Note_on_c, 9, 59, 0
3, 8381, Note_on_c, 9, 59, 95
3, 8448, Note_on_c, 9, 59, 0
3, 8502, Note_on_c, 9, 59, 46
3, 8509, Note_on_c, 9, 59, 0
3, 8526, Note_on_c, 9, 59, 42
3, 8537, Note_on_c, 9, 59, 0
3, 8566, Note_on_c, 9, 59, 38
3, 8570, Note_on_c, 9, 59, 0
3, 8619, Note_on_c, 9, 53, 57
3, 8621, Note_on_c, 9, 59, 74
3, 8623, Note_on_c, 9, 53, 0
3, 8631, Note_on_c, 9, 59, 0
3, 8648, Note_on_c, 9, 59, 50
3, 8673, Note_on_c, 9, 59, 0
3, 8685, Note_on_c, 9, 59, 49
3, 8691, Note_on_c, 9, 59, 0
3, 8769, Note_on_c, 9, 59, 58
3, 8779, Note_on_c, 9, 59, 0
3, 8802, Note_on_c, 9, 44, 33
3, 8805, Note_on_c, 9, 44, 0
3, 8856, Note_on_c, 9, 44, 33
3, 8861, Note_on_c, 9, 44, 0
3, 8876, Note_on_c, 9, 59, 49
3, 8902, Note_on_c, 9, 59, 0
3, 8915, Note_on_c, 9, 59, 51
3, 8922, Note_on_c, 9, 59, 0
3, 8935, Note_on_c, 9, 59, 46
3, 8941, Note_on_c, 9, 59, 0
3, 8971, Note_on_c, 9, 59, 95
3, 8980, Note_on_c, 9, 59, 0
3, 9041, Note_on_c, 9, 59, 47
3, 9046, Note_on_c, 9, 59, 0
3, 9065, Note_on_c, 9, 59, 57
3, 9074, Note_on_c, 9, 59, 0
3, 9109, Note_on_c, 9, 44, 37
3, 9113, Note_on_c, 9, 44, 0
3, 9130, Note_on_c, 9, 59, 37
3, 9148, Note_on_c, 9, 59, 0
3, 9163, Note_on_c, 9, 59, 40
3, 9170, Note_on_c, 9, 59, 0
3, 9185, Note_on_c, 9, 59, 45
3, 9194, Note_on_c, 9, 59, 0
3, 9243, Note_on_c, 9, 59, 48
3, 9248, Note_on_c, 9, 59, 0
3, 9336, Note_on_c, 9, 44, 25
3, 9339, Note_on_c, 9, 44, 0
3, 9353, Note_on_c, 9, 59, 48
3, 9372, Note_on_c, 9, 59, 0
3, 9515, Note_on_c, 9, 51, 60
3, 9517, Note_on_c, 9, 53, 58
3, 9521, Note_on_c, 9, 53, 0
3, 9524, Note_on_c, 9, 51, 0
3, 9608, Note_on_c, 9, 59, 66
3, 9616, Note_on_c, 9, 59, 0
3, 9645, Note_on_c, 9, 59, 55
3, 9651, Note_on_c, 9, 59, 0
3, 9668, Note_on_c, 9, 59, 55
3, 9674, Note_on_c, 9, 59, 0
3, 9726, Note_on_c, 9, 59, 72
3, 9735, Note_on_c, 9, 59, 0
3, 9831, Note_on_c, 9, 59, 54
3, 9836, Note_on_c, 9, 59, 0
3, 9854, Note_on_c, 9, 59, 46
3, 9874, Note_on_c, 9, 59, 0
3, 9952, Note_on_c, 9, 59, 37
3, 9958, Note_on_c, 9, 59, 0
3, 9977, Note_on_c, 9, 59, 31
3, 9986, Note_on_c, 9, 59, 0
3, 10013, Note_on_c, 9, 51, 48
3, 10013, Note_on_c, 9, 53, 45
3, 10016, Note_on_c, 9, 51, 0
3, 10017, Note_on_c, 9, 53, 0
3, 10035, Note_on_c, 9, 59, 44
3, 10046, Note_on_c, 9, 59, 0
3, 10073, Note_on_c, 9, 59, 69
3, 10077, Note_on_c, 9, 59, 0
3, 10094, Note_on_c, 9, 59, 96
3, 10108, Note_on_c, 9, 59, 0
3, 10189, Note_on_c, 9, 59, 35
3, 10194, Note_on_c, 9, 59, 0
3, 10206, Note_on_c, 9, 59, 41
3, 10229, Note_on_c, 9, 59, 0
3, 10312, Note_on_c, 9, 59, 51
3, 10320, Note_on_c, 9, 59, 0
3, 10441, Note_on_c, 9, 59, 60
3, 10447, Note_on_c, 9, 59, 0
3, 10481, Note_on_c, 9, 59, 74
3, 10487, Note_on_c, 9, 59, 0
3, 10541, Note_on_c, 9, 59, 46
3, 10546, Note_on_c, 9, 59, 0
3, 10562, Note_on_c, 9, 59, 66
3, 10578, Note_on_c, 9, 59, 0
3, 10688, Note_on_c, 9, 59, 80
3, 10695, Note_on_c, 9, 59, 0
3, 10794, Note_on_c, 9, 59, 42
3, 10801, Note_on_c, 9, 59, 0
3, 10816, Note_on_c, 9, 59, 50
3, 10827, Note_on_c, 9, 59, 0
3, 10851, Note_on_c, 9, 51, 48
3, 10852, Note_on_c, 9, 53, 41
3, 10855, Note_on_c, 9, 51, 0
3, 10856, Note_on_c, 9, 53, 0
3, 10931, Note_on_c, 9, 59, 79
3, 10938, Note_on_c, 9, 59, 0
3, 10971, Note_on_c, 9, 59, 68
3, 10976, Note_on_c, 9, 59, 0
3, 11025, Note_on_c, 9, 59, 65
3, 11033, Note_on_c, 9, 59, 0
3, 11042, Note_on_c, 9, 59, 61
3, 11046, Note_on_c, 9, 59, 0
3, 11057, Note_on_c, 9, 53, 53
3, 11058, Note_on_c, 9, 51, 33
3, 11061, Note_on_c, 9, 53, 0
3, 11062, Note_on_c, 9, 51, 0
3, 11098, Note_on_c, 9, 59, 68
3, 11101, Note_on_c, 9, 59, 0
3, 11146, Note_on_c, 9, 59, 50
3, 11153, Note_on_c, 9, 59, 0
3, 11169, Note_on_c, 9, 59, 66
3, 11193, Note_on_c, 9, 59, 0
3, 11262, Note_on_c, 9, 59, 49
3, 11267, Note_on_c, 9, 59, 0
3, 11286, Note_on_c, 9, 59, 40
3, 11306, Note_on_c, 9, 59, 0
3, 11317, Note_on_c, 9, 44, 29
3, 11322, Note_on_c, 9, 44, 0
3, 11340, Note_on_c, 9, 59, 39
3, 11371, Note_on_c, 9, 59, 0
3, 11378, Note_on_c, 9, 44, 36
3, 11383, Note_on_c, 9, 44, 0
3, 11402, Note_on_c, 9, 59, 31
3, 11428, Note_on_c, 9, 59, 0
3, 11438, Note_on_c, 9, 44, 37
3, 11445, Note_on_c, 9, 44, 0
3, 11462, Note_on_c, 9, 59, 41
3, 11474, Note_on_c, 9, 59, 0
3, 11496, Note_on_c, 9, 44, 56
3, 11504, Note_on_c, 9, 44, 0
3, 11518, Note_on_c, 9, 59, 47
3, 11520, Note_on_c, 9, 57, 37
3, 11533, Note_on_c, 9, 57, 0
3, 11533, Note_on_c, 9, 59, 0
3, 11653, Note_on_c, 9, 59, 70
3, 11659, Note_on_c, 9, 59, 0
3, 11712, Note_on_c, 9, 59, 51
3, 11717, Note_on_c, 9, 59, 0
3, 11746, Note_on_c, 9, 59, 58
3, 11752, Note_on_c, 9, 59, 0
3, 11776, Note_on_c, 9, 59, 96
3, 11807, Note_on_c, 9, 59, 0
3, 11832, Note_on_c, 9, 59, 48
3, 11837, Note_on_c, 9, 59, 0
3, 11868, Note_on_c, 9, 59, 51
3, 11873, Note_on_c, 9, 59, 0
3, 11895, Note_on_c, 9, 51, 53
3, 11895, Note_on_c, 9, 59, 45
3, 11897, Note_on_c, 9, 53, 45
3, 11905, Note_on_c, 9, 59, 0
3, 11905, Note_on_c, 9, 51, 0
3, 11930, Note_on_c, 9, 53, 0
3, 11944, Note_on_c, 9, 59, 54
3, 11951, Note_on_c, 9, 59, 0
3, 11972, Note_on_c, 9, 59, 52
3, 11976, Note_on_c, 9, 59, 0
3, 11995, Note_on_c, 9, 51, 37
3, 12001, Note_on_c, 9, 59, 71
3, 12002, Note_on_c, 9, 53, 62
3, 12003, Note_on_c, 9, 51, 0
3, 12016, Note_on_c, 9, 53, 0
3, 12031, Note_on_c, 9, 59, 0
3, 12056, Note_on_c, 9, 59, 51
3, 12064, Note_on_c, 9, 59, 0
3, 12082, Note_on_c, 9, 59, 50
3, 12088, Note_on_c, 9, 59, 0
3, 12104, Note_on_c, 9, 51, 53
3, 12115, Note_on_c, 9, 51, 0
3, 12115, Note_on_c, 9, 59, 69
3, 12116, Note_on_c, 9, 53, 57
3, 12138, Note_on_c, 9, 53, 0
3, 12148, Note_on_c, 9, 59, 0
3, 12171, Note_on_c, 9, 59, 50
3, 12180, Note_on_c, 9, 59, 0
3, 12200, Note_on_c, 9, 59, 57
3, 12208, Note_on_c, 9, 59, 0
3, 12222, Note_on_c, 9, 51, 45
3, 12234, Note_on_c, 9, 53, 57
3, 12235, Note_on_c, 9, 59, 68
3, 12239, Note_on_c, 9, 51, 0
3, 12251, Note_on_c, 9, 53, 0
3, 12264, Note_on_c, 9, 59, 0
3, 12286, Note_on_c, 9, 59, 54
3, 12292, Note_on_c, 9, 59, 0
3, 12320, Note_on_c, 9, 59, 47
3, 12328, Note_on_c, 9, 59, 0
3, 12346, Note_on_c, 9, 51, 29
3, 12350, Note_on_c, 9, 53, 51
3, 12350, Note_on_c, 9, 59, 67
3, 12359, Note_on_c, 9, 51, 0
3, 12376, Note_on_c, 9, 59, 0
3, 12397, Note_on_c, 9, 53, 0
3, 12412, Note_on_c, 9, 59, 31
3, 12422, Note_on_c, 9, 59, 0
3, 12441, Note_on_c, 9, 51, 37
3, 12447, Note_on_c, 9, 51, 0
3, 12473, Note_on_c, 9, 57, 80
3, 12476, Note_on_c, 9, 36, 73
3, 12487, Note_on_c, 9, 36, 0
3, 12598, Note_on_c, 9, 57, 0
3, 12631, Note_on_c, 9, 59, 48
3, 12637, Note_on_c, 9, 59, 0
3, 12661, Note_on_c, 9, 59, 34
3, 12670, Note_on_c, 9, 59, 0
3, 12690, Note_on_c, 9, 59, 55
3, 12695, Note_on_c, 9, 59, 0
3, 12719, Note_on_c, 9, 59, 74
3, 12731, Note_on_c, 9, 59, 0
3, 12779, Note_on_c, 9, 59, 49
3, 12811, Note_on_c, 9, 59, 0
3, 12843, Note_on_c, 9, 59, 41
3, 12911, Note_on_c, 9, 59, 0
3, 12936, Note_on_c, 9, 59, 37
3, 12944, Note_on_c, 9, 59, 0
3, 12959, Note_on_c, 9, 53, 55
3, 12960, Note_on_c, 9, 59, 37
3, 12961, Note_on_c, 9, 51, 42
3, 12964, Note_on_c, 9, 59, 0
3, 12965, Note_on_c, 9, 51, 0
3, 12966, Note_on_c, 9, 53, 0
3, 13017, Note_on_c, 9, 59, 44
3, 13034, Note_on_c, 9, 59, 0
3, 13078, Note_on_c, 9, 59, 40
3, 13114, Note_on_c, 9, 59, 0
3, 13172, Note_on_c, 9, 59, 32
3, 13179, Note_on_c, 9, 59, 0
3, 13200, Note_on_c, 9, 59, 30
3, 13221, Note_on_c, 9, 59, 0
3, 13260, Note_on_c, 9, 59, 36
3, 13287, Note_on_c, 9, 59, 0
3, 13290, Note_on_c, 9, 44, 52
3, 13310, Note_on_c, 9, 44, 0
3, 13318, Note_on_c, 9, 59, 24
3, 13343, Note_on_c, 9, 59, 0
3, 13348, Note_on_c, 9, 44, 34
3, 13370, Note_on_c, 9, 44, 0
3, 13406, Note_on_c, 9, 44, 36
3, 13414, Note_on_c, 9, 44, 0
3, 13437, Note_on_c, 9, 59, 38
3, 13451, Note_on_c, 9, 59, 0
3, 13530, Note_on_c, 9, 59, 54
3, 13534, Note_on_c, 9, 59, 0
3, 13559, Note_on_c, 9, 59, 91
3, 13576, Note_on_c, 9, 59, 0
3, 13593, Note_on_c, 9, 59, 89
3, 13608, Note_on_c, 9, 59, 0
3, 13623, Note_on_c, 9, 59, 80
3, 13643, Note_on_c, 9, 59, 0
3, 13715, Note_on_c, 9, 59, 34
3, 13720, Note_on_c, 9, 59, 0
3, 13747, Note_on_c, 9, 59, 22
3, 13753, Note_on_c, 9, 59, 0
3, 13776, Note_on_c, 9, 51, 29
3, 13777, Note_on_c, 9, 53, 36
3, 13786, Note_on_c, 9, 53, 0
3, 13786, Note_on_c, 9, 51, 0
3, 13810, Note_on_c, 9, 51, 33
3, 13811, Note_on_c, 9, 53, 42
3, 13824, Note_on_c, 9, 51, 0
3, 13833, Note_on_c, 9, 53, 0
3, 13864, Note_on_c, 9, 59, 38
3, 13874, Note_on_c, 9, 59, 0
3, 13896, Note_on_c, 9, 59, 73
3, 13901, Note_on_c, 9, 59, 0
3, 13925, Note_on_c, 9, 59, 108
3, 13934, Note_on_c, 9, 59, 0
3, 14012, Note_on_c, 9, 59, 47
3, 14017, Note_on_c, 9, 59, 0
3, 14041, Note_on_c, 9, 59, 48
3, 14046, Note_on_c, 9, 59, 0
3, 14080, Note_on_c, 9, 51, 36
3, 14082, Note_on_c, 9, 53, 46
3, 14088, Note_on_c, 9, 51, 0
3, 14094, Note_on_c, 9, 53, 0
3, 14164, Note_on_c, 9, 59, 41
3, 14172, Note_on_c, 9, 59, 0
3, 14199, Note_on_c, 9, 59, 44
3, 14206, Note_on_c, 9, 59, 0
3, 14318, Note_on_c, 9, 59, 52
3, 14323, Note_on_c, 9, 59, 0
3, 14360, Note_on_c, 9, 59, 46
3, 14364, Note_on_c, 9, 59, 0
3, 14375, Note_on_c, 9, 59, 62
3, 14386, Note_on_c, 9, 59, 0
3, 14393, Note_on_c, 9, 59, 70
3, 14402, Note_on_c, 9, 59, 0
3, 14440, Note_on_c, 9, 59, 66
3, 14443, Note_on_c, 9, 59, 0
3, 14472, Note_on_c, 9, 59, 71
3, 14481, Note_on_c, 9, 59, 0
3, 14523, Note_on_c, 9, 59, 68
3, 14529, Note_on_c, 9, 59, 0
3, 14566, Note_on_c, 9, 59, 51
3, 14571, Note_on_c, 9, 59, 0
3, 14644, Note_on_c, 9, 59, 51
3, 14651, Note_on_c, 9, 59, 0
3, 14736, Note_on_c, 9, 59, 36
3, 14743, Note_on_c, 9, 59, 0
3, 14762, Note_on_c, 9, 59, 41
3, 14778, Note_on_c, 9, 59, 0
3, 14800, Note_on_c, 9, 59, 53
3, 14801, Note_on_c, 9, 46, 38
3, 14848, Note_on_c, 9, 46, 0
3, 14856, Note_on_c, 9, 59, 0
3, 14885, Note_on_c, 9, 59, 43
3, 14891, Note_on_c, 9, 59, 0
3, 14920, Note_on_c, 9, 46, 46
3, 14920, Note_on_c, 9, 59, 54
3, 14970, Note_on_c, 9, 59, 0
3, 14974, Note_on_c, 9, 46, 0
3, 14999, Note_on_c, 9, 59, 44
3, 15004, Note_on_c, 9, 59, 0
3, 15038, Note_on_c, 9, 59, 55
3, 15040, Note_on_c, 9, 46, 39
3, 15078, Note_on_c, 9, 59, 0
3, 15114, Note_on_c, 9, 46, 0
3, 15124, Note_on_c, 9, 59, 55
3, 15131, Note_on_c, 9, 59, 0
3, 15165, Note_on_c, 9, 59, 64
3, 15166, Note_on_c, 9, 46, 47
3, 15224, Note_on_c, 9, 59, 0
3, 15251, Note_on_c, 9, 46, 0
3, 15252, Note_on_c, 9, 59, 42
3, 15267, Note_on_c, 9, 59, 0
3, 15286, Note_on_c, 9, 46, 34
3, 15297, Note_on_c, 9, 46, 0
3, 15344, Note_on_c, 9, 46, 28
3, 15350, Note_on_c, 9, 46, 0
3, 15364, Note_on_c, 9, 59, 51
3, 15365, Note_on_c, 9, 57, 42
3, 15369, Note_on_c, 9, 57, 0
3, 15373, Note_on_c, 9, 59, 0
3, 15572, Note_on_c, 9, 59, 37
3, 15578, Note_on_c, 9, 59, 0
3, 15595, Note_on_c, 9, 59, 51
3, 15615, Note_on_c, 9, 59, 0
3, 15724, Note_on_c, 9, 59, 50
3, 15770, Note_on_c, 9, 59, 0
3, 15844, Note_on_c, 9, 59, 49
3, 15846, Note_on_c, 9, 49, 45
3, 15853, Note_on_c, 9, 49, 0
3, 15854, Note_on_c, 9, 59, 0
3, 15997, Note_on_c, 9, 59, 64
3, 16001, Note_on_c, 9, 59, 0
3, 16056, Note_on_c, 9, 59, 24
3, 16059, Note_on_c, 9, 59, 0
3, 16075, Note_on_c, 9, 59, 70
3, 16105, Note_on_c, 9, 59, 0
3, 16232, Note_on_c, 9, 59, 33
3, 16236, Note_on_c, 9, 59, 0
3, 16254, Note_on_c, 9, 59, 47
3, 16261, Note_on_c, 9, 59, 0
3, 16295, Note_on_c, 9, 59, 90
3, 16314, Note_on_c, 9, 59, 0
3, 16436, Note_on_c, 9, 59, 64
3, 16440, Note_on_c, 9, 59, 0
3, 16539, Note_on_c, 9, 59, 38
3, 16543, Note_on_c, 9, 59, 0
3, 16556, Note_on_c, 9, 59, 56
3, 16565, Note_on_c, 9, 59, 0
3, 16722, Note_on_c, 9, 53, 64
3, 16745, Note_on_c, 9, 53, 0
3, 16776, Note_on_c, 9, 59, 34
3, 16780, Note_on_c, 9, 59, 0
3, 16805, Note_on_c, 9, 59, 65
3, 16808, Note_on_c, 9, 53, 48
3, 16813, Note_on_c, 9, 59, 0
3, 16818, Note_on_c, 9, 53, 0
3, 16859, Note_on_c, 9, 59, 46
3, 16863, Note_on_c, 9, 59, 0
3, 16896, Note_on_c, 9, 59, 50
3, 16899, Note_on_c, 9, 53, 43
3, 16907, Note_on_c, 9, 59, 0
3, 16908, Note_on_c, 9, 53, 0
3, 16941, Note_on_c, 9, 59, 43
3, 16951, Note_on_c, 9, 59, 0
3, 16984, Note_on_c, 9, 59, 55
3, 16984, Note_on_c, 9, 53, 54
3, 16993, Note_on_c, 9, 53, 0
3, 16995, Note_on_c, 9, 59, 0
3, 17027, Note_on_c, 9, 59, 46
3, 17034, Note_on_c, 9, 59, 0
3, 17076, Note_on_c, 9, 53, 45
3, 17076, Note_on_c, 9, 59, 62
3, 17085, Note_on_c, 9, 59, 0
3, 17088, Note_on_c, 9, 53, 0
3, 17118, Note_on_c, 9, 59, 50
3, 17123, Note_on_c, 9, 59, 0
3, 17166, Note_on_c, 9, 59, 50
3, 17167, Note_on_c, 9, 53, 39
3, 17171, Note_on_c, 9, 59, 0
3, 17172, Note_on_c, 9, 53, 0
3, 17206, Note_on_c, 9, 59, 51
3, 17207, Note_on_c, 9, 53, 42
3, 17211, Note_on_c, 9, 53, 0
3, 17242, Note_on_c, 9, 59, 0
3, 17261, Note_on_c, 9, 37, 59
3, 17271, Note_on_c, 9, 37, 0
3, 17280, Note_on_c, 9, 36, 66
3, 17282, Note_on_c, 9, 59, 60
3, 17286, Note_on_c, 9, 36, 0
3, 17288, Note_on_c, 9, 59, 0
3, 17446, Note_on_c, 9, 59, 37
3, 17450, Note_on_c, 9, 59, 0
3, 17466, Note_on_c, 9, 59, 70
3, 17471, Note_on_c, 9, 59, 0
3, 17506, Note_on_c, 9, 59, 94
3, 17513, Note_on_c, 9, 59, 0
3, 17654, Note_on_c, 9, 59, 45
3, 17658, Note_on_c, 9, 59, 0
3, 17749, Note_on_c, 9, 59, 24
3, 17758, Note_on_c, 9, 59, 0
3, 17768, Note_on_c, 9, 59, 57
3, 17779, Note_on_c, 9, 59, 0
3, 17863, Note_on_c, 9, 59, 38
3, 17867, Note_on_c, 9, 59, 0
3, 17881, Note_on_c, 9, 59, 33
3, 17894, Note_on_c, 9, 59, 0
3, 17916, Note_on_c, 9, 44, 44
3, 17922, Note_on_c, 9, 44, 0
3, 17939, Note_on_c, 9, 59, 24
3, 17944, Note_on_c, 9, 59, 0
3, 17975, Note_on_c, 9, 44, 44
3, 17983, Note_on_c, 9, 44, 0
3, 17996, Note_on_c, 9, 59, 34
3, 18020, Note_on_c, 9, 59, 0
3, 18060, Note_on_c, 9, 59, 39
3, 18069, Note_on_c, 9, 59, 0
3, 18119, Note_on_c, 9, 59, 56
3, 18128, Note_on_c, 9, 59, 0
3, 18160, Note_on_c, 9, 44, 37
3, 18170, Note_on_c, 9, 44, 0
3, 18187, Note_on_c, 9, 59, 20
3, 18201, Note_on_c, 9, 59, 0
3, 18219, Note_on_c, 9, 44, 58
3, 18227, Note_on_c, 9, 44, 0
3, 18241, Note_on_c, 9, 59, 29
3, 18263, Note_on_c, 9, 59, 0
3, 18304, Note_on_c, 9, 59, 51
3, 18321, Note_on_c, 9, 59, 0
3, 18455, Note_on_c, 9, 59, 33
3, 18460, Note_on_c, 9, 59, 0
3, 18469, Note_on_c, 9, 59, 50
3, 18475, Note_on_c, 9, 59, 0
3, 18483, Note_on_c, 9, 59, 67
3, 18491, Note_on_c, 9, 59, 0
3, 18522, Note_on_c, 9, 58, 30
3, 18523, Note_on_c, 9, 59, 68
3, 18525, Note_on_c, 9, 58, 0
3, 18527, Note_on_c, 9, 59, 0
3, 18567, Note_on_c, 9, 59, 65
3, 18575, Note_on_c, 9, 59, 0
3, 18602, Note_on_c, 9, 59, 64
3, 18613, Note_on_c, 9, 59, 0
3, 18692, Note_on_c, 9, 59, 50
3, 18697, Note_on_c, 9, 59, 0
3, 18717, Note_on_c, 9, 59, 41
3, 18728, Note_on_c, 9, 59, 0
3, 18876, Note_on_c, 9, 59, 58
3, 18880, Note_on_c, 9, 59, 0
3, 18927, Note_on_c, 9, 52, 17
3, 18933, Note_on_c, 9, 52, 0
3, 18954, Note_on_c, 9, 53, 55
3, 18955, Note_on_c, 9, 51, 68
3, 18957, Note_on_c, 9, 53, 0
3, 18967, Note_on_c, 9, 51, 0
3, 18999, Note_on_c, 9, 53, 59
3, 19008, Note_on_c, 9, 53, 0
3, 19047, Note_on_c, 9, 51, 51
3, 19048, Note_on_c, 9, 53, 66
3, 19055, Note_on_c, 9, 51, 0
3, 19065, Note_on_c, 9, 53, 0
3, 19083, Note_on_c, 9, 53, 53
3, 19093, Note_on_c, 9, 53, 0
3, 19123, Note_on_c, 9, 59, 73
3, 19132, Note_on_c, 9, 59, 0
3, 19161, Note_on_c, 9, 53, 65
3, 19165, Note_on_c, 9, 53, 0
3, 19178, Note_on_c, 9, 53, 67
3, 19184, Note_on_c, 9, 53, 0
3, 19198, Note_on_c, 9, 51, 80
3, 19214, Note_on_c, 9, 51, 0
3, 19315, Note_on_c, 9, 51, 83
3, 19324, Note_on_c, 9, 51, 0
3, 19420, Note_on_c, 9, 51, 82
3, 19431, Note_on_c, 9, 51, 0
3, 19441, Note_on_c, 9, 51, 79
3, 19468, Note_on_c, 9, 51, 0
3, 19501, Note_on_c, 9, 51, 83
3, 19539, Note_on_c, 9, 51, 0
3, 19617, Note_on_c, 9, 51, 37
3, 19627, Note_on_c, 9, 51, 0
3, 19650, Note_on_c, 9, 51, 48
3, 19657, Note_on_c, 9, 51, 0
3, 19677, Note_on_c, 9, 51, 81
3, 19678, Note_on_c, 9, 46, 77
3, 19692, Note_on_c, 9, 51, 0
3, 19693, Note_on_c, 9, 46, 0
3, 19738, Note_on_c, 9, 51, 54
3, 19745, Note_on_c, 9, 51, 0
3, 19771, Note_on_c, 9, 51, 50
3, 19776, Note_on_c, 9, 51, 0
3, 19797, Note_on_c, 9, 51, 84
3, 19827, Note_on_c, 9, 51, 0
3, 19856, Note_on_c, 9, 51, 51
3, 19859, Note_on_c, 9, 51, 0
3, 19885, Note_on_c, 9, 51, 51
3, 19889, Note_on_c, 9, 51, 0
3, 19913, Note_on_c, 9, 51, 78
3, 19941, Note_on_c, 9, 51, 0
3, 19945, Note_on_c, 9, 44, 36
3, 19957, Note_on_c, 9, 44, 0
3, 19971, Note_on_c, 9, 44, 29
3, 19992, Note_on_c, 9, 44, 0
3, 20001, Note_on_c, 9, 51, 83
3, 20018, Note_on_c, 9, 51, 0
3, 20030, Note_on_c, 9, 51, 38
3, 20059, Note_on_c, 9, 51, 0
3, 20062, Note_on_c, 9, 44, 36
3, 20073, Note_on_c, 9, 44, 0
3, 20091, Note_on_c, 9, 44, 42
3, 20104, Note_on_c, 9, 44, 0
3, 20124, Note_on_c, 9, 51, 70
3, 20125, Note_on_c, 9, 53, 68
3, 20133, Note_on_c, 9, 51, 0
3, 20139, Note_on_c, 9, 53, 0
3, 20155, Note_on_c, 9, 51, 45
3, 20157, Note_on_c, 9, 53, 53
3, 20172, Note_on_c, 9, 51, 0
3, 20174, Note_on_c, 9, 53, 0
3, 20187, Note_on_c, 9, 44, 35
3, 20200, Note_on_c, 9, 44, 0
3, 20216, Note_on_c, 9, 44, 35
3, 20229, Note_on_c, 9, 44, 0
3, 20249, Note_on_c, 9, 51, 69
3, 20250, Note_on_c, 9, 53, 64
3, 20276, Note_on_c, 9, 51, 0
3, 20368, Note_on_c, 9, 53, 0
3, 20374, Note_on_c, 9, 51, 38
3, 20379, Note_on_c, 9, 51, 0
3, 20399, Note_on_c, 9, 51, 60
3, 20418, Note_on_c, 9, 51, 0
3, 20457, Note_on_c, 9, 51, 42
3, 20483, Note_on_c, 9, 51, 0
3, 20519, Note_on_c, 9, 51, 53
3, 20579, Note_on_c, 9, 51, 0
3, 20617, Note_on_c, 9, 51, 43
3, 20632, Note_on_c, 9, 51, 0
3, 20642, Note_on_c, 9, 51, 51
3, 20726, Note_on_c, 9, 51, 0
3, 20757, Note_on_c, 9, 51, 50
3, 20818, Note_on_c, 9, 51, 0
3, 20850, Note_on_c, 9, 51, 60
3, 20855, Note_on_c, 9, 51, 0
3, 20872, Note_on_c, 9, 51, 99
3, 20912, Note_on_c, 9, 51, 0
3, 20930, Note_on_c, 9, 51, 94
3, 20984, Note_on_c, 9, 51, 0
3, 21026, Note_on_c, 9, 51, 57
3, 21030, Note_on_c, 9, 53, 47
3, 21038, Note_on_c, 9, 51, 0
3, 21054, Note_on_c, 9, 53, 0
3, 21071, Note_on_c, 9, 51, 64
3, 21074, Note_on_c, 9, 53, 42
3, 21086, Note_on_c, 9, 51, 0
3, 21096, Note_on_c, 9, 53, 0
3, 21110, Note_on_c, 9, 51, 64
3, 21116, Note_on_c, 9, 53, 17
3, 21121, Note_on_c, 9, 51, 0
3, 21135, Note_on_c, 9, 53, 0
3, 21158, Note_on_c, 9, 51, 48
3, 21175, Note_on_c, 9, 51, 0
3, 21239, Note_on_c, 9, 51, 51
3, 21257, Note_on_c, 9, 51, 0
3, 21338, Note_on_c, 9, 51, 33
3, 21347, Note_on_c, 9, 51, 0
3, 21359, Note_on_c, 9, 51, 48
3, 21381, Note_on_c, 9, 51, 0
3, 21417, Note_on_c, 9, 51, 46
3, 21439, Note_on_c, 9, 51, 0
3, 21569, Note_on_c, 9, 51, 39
3, 21584, Note_on_c, 9, 51, 0
3, 21595, Note_on_c, 9, 51, 47
3, 21615, Note_on_c, 9, 51, 0
3, 21654, Note_on_c, 9, 51, 50
3, 21681, Note_on_c, 9, 51, 0
3, 21811, Note_on_c, 9, 51, 34
3, 21825, Note_on_c, 9, 51, 0
3, 21834, Note_on_c, 9, 51, 58
3, 21860, Note_on_c, 9, 51, 0
3, 21895, Note_on_c, 9, 51, 44
3, 21932, Note_on_c, 9, 51, 0
3, 22051, Note_on_c, 9, 51, 39
3, 22059, Note_on_c, 9, 51, 0
3, 22077, Note_on_c, 9, 49, 67
3, 22078, Note_on_c, 9, 51, 42
3, 22094, Note_on_c, 9, 51, 0
3, 22099, Note_on_c, 9, 49, 0
3, 22177, Note_on_c, 9, 51, 33
3, 22188, Note_on_c, 9, 51, 0
3, 22208, Note_on_c, 9, 51, 47
3, 22222, Note_on_c, 9, 51, 0
3, 22245, Note_on_c, 9, 51, 40
3, 22255, Note_on_c, 9, 51, 0
3, 22289, Note_on_c, 9, 51, 45
3, 22297, Note_on_c, 9, 51, 0
3, 22312, Note_on_c, 9, 51, 52
3, 22350, Note_on_c, 9, 44, 46
3, 22361, Note_on_c, 9, 44, 0
3, 22391, Note_on_c, 9, 51, 0
3, 22408, Note_on_c, 9, 51, 33
3, 22420, Note_on_c, 9, 51, 0
3, 22434, Note_on_c, 9, 51, 57
3, 22480, Note_on_c, 9, 44, 35
3, 22486, Note_on_c, 9, 44, 0
3, 22486, Note_on_c, 9, 51, 0
3, 22543, Note_on_c, 9, 51, 42
3, 22553, Note_on_c, 9, 51, 0
3, 22567, Note_on_c, 9, 51, 57
3, 22589, Note_on_c, 9, 51, 0
3, 22664, Note_on_c, 9, 51, 36
3, 22673, Note_on_c, 9, 51, 0
3, 22685, Note_on_c, 9, 51, 52
3, 22709, Note_on_c, 9, 51, 0
3, 22782, Note_on_c, 9, 51, 46
3, 22791, Note_on_c, 9, 51, 0
3, 22803, Note_on_c, 9, 51, 45
3, 22863, Note_on_c, 9, 51, 0
3, 22920, Note_on_c, 9, 51, 35
3, 22939, Note_on_c, 9, 51, 0
3, 23015, Note_on_c, 9, 59, 64
3, 23015, Note_on_c, 9, 53, 45
3, 23025, Note_on_c, 9, 53, 0
3, 23033, Note_on_c, 9, 59, 0
3, 23130, Note_on_c, 9, 53, 41
3, 23133, Note_on_c, 9, 59, 64
3, 23138, Note_on_c, 9, 53, 0
3, 23145, Note_on_c, 9, 59, 0
3, 23166, Note_on_c, 9, 59, 46
3, 23168, Note_on_c, 9, 53, 30
3, 23172, Note_on_c, 9, 53, 0
3, 23181, Note_on_c, 9, 59, 0
3, 23257, Note_on_c, 9, 53, 35
3, 23266, Note_on_c, 9, 53, 0
3, 23277, Note_on_c, 9, 59, 39
3, 23285, Note_on_c, 9, 59, 0
3, 23290, Note_on_c, 9, 59, 26
3, 23299, Note_on_c, 9, 59, 0
3, 23304, Note_on_c, 9, 59, 39
3, 23313, Note_on_c, 9, 59, 0
3, 23317, Note_on_c, 9, 59, 60
3, 23326, Note_on_c, 9, 59, 0
3, 23330, Note_on_c, 9, 59, 68
3, 23341, Note_on_c, 9, 59, 0
3, 23384, Note_on_c, 9, 59, 37
3, 23389, Note_on_c, 9, 59, 0
3, 23398, Note_on_c, 9, 59, 45
3, 23403, Note_on_c, 9, 59, 0
3, 23409, Note_on_c, 9, 59, 66
3, 23416, Note_on_c, 9, 59, 0
3, 23422, Note_on_c, 9, 59, 84
3, 23443, Note_on_c, 9, 59, 0
3, 23461, Note_on_c, 9, 59, 43
3, 23466, Note_on_c, 9, 59, 0
3, 23476, Note_on_c, 9, 59, 40
3, 23481, Note_on_c, 9, 59, 0
3, 23487, Note_on_c, 9, 59, 51
3, 23493, Note_on_c, 9, 59, 0
3, 23500, Note_on_c, 9, 59, 71
3, 23504, Note_on_c, 9, 53, 60
3, 23506, Note_on_c, 9, 51, 61
3, 23509, Note_on_c, 9, 59, 0
3, 23518, Note_on_c, 9, 51, 0
3, 23522, Note_on_c, 9, 53, 0
3, 23541, Note_on_c, 9, 59, 38
3, 23551, Note_on_c, 9, 59, 0
3, 23571, Note_on_c, 9, 59, 39
3, 23575, Note_on_c, 9, 59, 0
3, 23599, Note_on_c, 9, 59, 59
3, 23605, Note_on_c, 9, 59, 0
3, 23635, Note_on_c, 9, 59, 60
3, 23643, Note_on_c, 9, 59, 0
3, 23733, Note_on_c, 9, 59, 40
3, 23741, Note_on_c, 9, 59, 0
3, 23758, Note_on_c, 9, 59, 51
3, 23765, Note_on_c, 9, 59, 0
3, 23799, Note_on_c, 9, 51, 25
3, 23800, Note_on_c, 9, 53, 30
3, 23804, Note_on_c, 9, 53, 0
3, 23806, Note_on_c, 9, 51, 0
3, 23859, Note_on_c, 9, 51, 34
3, 23861, Note_on_c, 9, 53, 29
3, 23862, Note_on_c, 9, 51, 0
3, 23864, Note_on_c, 9, 53, 0
3, 23882, Note_on_c, 9, 59, 62
3, 23902, Note_on_c, 9, 59, 0
3, 23916, Note_on_c, 9, 51, 44
3, 23919, Note_on_c, 9, 53, 33
3, 23923, Note_on_c, 9, 53, 0
3, 23923, Note_on_c, 9, 51, 0
3, 23969, Note_on_c, 9, 51, 39
3, 23971, Note_on_c, 9, 53, 29
3, 23975, Note_on_c, 9, 53, 0
3, 23977, Note_on_c, 9, 51, 0
3, 23991, Note_on_c, 9, 59, 60
3, 24014, Note_on_c, 9, 59, 0
3, 24035, Note_on_c, 9, 59, 40
3, 24041, Note_on_c, 9, 59, 0
3, 24088, Note_on_c, 9, 51, 38
3, 24095, Note_on_c, 9, 51, 0
3, 24111, Note_on_c, 9, 59, 49
3, 24122, Note_on_c, 9, 59, 0
3, 24131, Note_on_c, 9, 59, 48
3, 24140, Note_on_c, 9, 59, 0
3, 24153, Note_on_c, 9, 53, 64
3, 24165, Note_on_c, 9, 53, 0
3, 24201, Note_on_c, 9, 59, 55
3, 24210, Note_on_c, 9, 59, 0
3, 24217, Note_on_c, 9, 59, 49
3, 24226, Note_on_c, 9, 59, 0
3, 24238, Note_on_c, 9, 53, 55
3, 24244, Note_on_c, 9, 53, 0
3, 24257, Note_on_c, 9, 59, 35
3, 24262, Note_on_c, 9, 59, 0
3, 24279, Note_on_c, 9, 59, 43
3, 24285, Note_on_c, 9, 59, 0
3, 24300, Note_on_c, 9, 53, 46
3, 24304, Note_on_c, 9, 53, 0
3, 24321, Note_on_c, 9, 59, 31
3, 24326, Note_on_c, 9, 59, 0
3, 24344, Note_on_c, 9, 59, 66
3, 24353, Note_on_c, 9, 59, 0
3, 24368, Note_on_c, 9, 53, 33
3, 24374, Note_on_c, 9, 53, 0
3, 24387, Note_on_c, 9, 59, 43
3, 24391, Note_on_c, 9, 59, 0
3, 24407, Note_on_c, 9, 59, 68
3, 24419, Note_on_c, 9, 59, 0
3, 24431, Note_on_c, 9, 53, 32
3, 24435, Note_on_c, 9, 53, 0
3, 24472, Note_on_c, 9, 59, 69
3, 24482, Note_on_c, 9, 59, 0
3, 24494, Note_on_c, 9, 53, 38
3, 24500, Note_on_c, 9, 53, 0
3, 24516, Note_on_c, 9, 59, 40
3, 24525, Note_on_c, 9, 59, 0
3, 24535, Note_on_c, 9, 59, 53
3, 24544, Note_on_c, 9, 59, 0
3, 24592, Note_on_c, 9, 59, 36
3, 24596, Note_on_c, 9, 59, 0
3, 24613, Note_on_c, 9, 59, 49
3, 24632, Note_on_c, 9, 59, 0
3, 24724, Note_on_c, 9, 59, 61
3, 24746, Note_on_c, 9, 59, 0
3, 24830, Note_on_c, 9, 59, 53
3, 24855, Note_on_c, 9, 59, 0
3, 24870, Note_on_c, 9, 53, 37
3, 24874, Note_on_c, 9, 53, 0
3, 24894, Note_on_c, 9, 59, 36
3, 24900, Note_on_c, 9, 59, 0
3, 24931, Note_on_c, 9, 51, 55
3, 24933, Note_on_c, 9, 53, 41
3, 24937, Note_on_c, 9, 53, 0
3, 24941, Note_on_c, 9, 51, 0
3, 24961, Note_on_c, 9, 59, 60
3, 24961, Note_on_c, 9, 53, 46
3, 24962, Note_on_c, 9, 51, 30
3, 24967, Note_on_c, 9, 51, 0
3, 24969, Note_on_c, 9, 59, 0
3, 24973, Note_on_c, 9, 53, 0
3, 25027, Note_on_c, 9, 59, 47
3, 25032, Note_on_c, 9, 59, 0
3, 25065, Note_on_c, 9, 59, 54
3, 25071, Note_on_c, 9, 59, 0
3, 25088, Note_on_c, 9, 59, 44
3, 25099, Note_on_c, 9, 59, 0
3, 25125, Note_on_c, 9, 51, 58
3, 25126, Note_on_c, 9, 53, 53
3, 25144, Note_on_c, 9, 51, 0
3, 25208, Note_on_c, 9, 53, 0
3, 25243, Note_on_c, 9, 59, 49
3, 25247, Note_on_c, 9, 59, 0
3, 25298, Note_on_c, 9, 59, 46
3, 25302, Note_on_c, 9, 59, 0
3, 25327, Note_on_c, 9, 51, 55
3, 25329, Note_on_c, 9, 53, 69
3, 25345, Note_on_c, 9, 51, 0
3, 25369, Note_on_c, 9, 53, 0
3, 25385, Note_on_c, 9, 59, 43
3, 25394, Note_on_c, 9, 59, 0
3, 25422, Note_on_c, 9, 59, 53
3, 25430, Note_on_c, 9, 59, 0
3, 25482, Note_on_c, 9, 59, 24
3, 25485, Note_on_c, 9, 59, 0
3, 25504, Note_on_c, 9, 59, 37
3, 25512, Note_on_c, 9, 59, 0
3, 25540, Note_on_c, 9, 53, 59
3, 25541, Note_on_c, 9, 51, 47
3, 25541, Note_on_c, 9, 46, 45
3, 25549, Note_on_c, 9, 46, 0
3, 25553, Note_on_c, 9, 53, 0
3, 25560, Note_on_c, 9, 51, 0
3, 25580, Note_on_c, 9, 59, 57
3, 25606, Note_on_c, 9, 59, 0
3, 25627, Note_on_c, 9, 59, 58
3, 25638, Note_on_c, 9, 59, 0
3, 25669, Note_on_c, 9, 59, 59
3, 25708, Note_on_c, 9, 59, 0
3, 25804, Note_on_c, 9, 51, 34
3, 25804, Note_on_c, 9, 53, 46
3, 25814, Note_on_c, 9, 53, 0
3, 25816, Note_on_c, 9, 51, 0
3, 25913, Note_on_c, 9, 59, 68
3, 25998, Note_on_c, 9, 59, 0
3, 26047, Note_on_c, 9, 59, 45
3, 26051, Note_on_c, 9, 59, 0
3, 26082, Note_on_c, 9, 51, 51
3, 26085, Note_on_c, 9, 53, 29
3, 26089, Note_on_c, 9, 53, 0
3, 26089, Note_on_c, 9, 51, 0
3, 26161, Note_on_c, 9, 59, 54
3, 26165, Note_on_c, 9, 59, 0
3, 26198, Note_on_c, 9, 51, 48
3, 26200, Note_on_c, 9, 53, 34
3, 26204, Note_on_c, 9, 53, 0
3, 26205, Note_on_c, 9, 51, 0
3, 26254, Note_on_c, 9, 51, 54
3, 26255, Note_on_c, 9, 53, 40
3, 26260, Note_on_c, 9, 53, 0
3, 26262, Note_on_c, 9, 51, 0
3, 26285, Note_on_c, 9, 51, 59
3, 26286, Note_on_c, 9, 53, 49
3, 26291, Note_on_c, 9, 53, 0
3, 26296, Note_on_c, 9, 51, 0
3, 26323, Note_on_c, 9, 59, 78
3, 26330, Note_on_c, 9, 59, 0
3, 26375, Note_on_c, 9, 59, 78
3, 26382, Note_on_c, 9, 59, 0
3, 26405, Note_on_c, 9, 59, 85
3, 26416, Note_on_c, 9, 59, 0
3, 26442, Note_on_c, 9, 51, 67
3, 26444, Note_on_c, 9, 53, 54
3, 26456, Note_on_c, 9, 53, 0
3, 26461, Note_on_c, 9, 51, 0
3, 26487, Note_on_c, 9, 51, 53
3, 26488, Note_on_c, 9, 53, 50
3, 26500, Note_on_c, 9, 53, 0
3, 26504, Note_on_c, 9, 51, 0
3, 26526, Note_on_c, 9, 51, 51
3, 26527, Note_on_c, 9, 53, 36
3, 26540, Note_on_c, 9, 53, 0
3, 26545, Note_on_c, 9, 51, 0
3, 26613, Note_on_c, 9, 51, 30
3, 26614, Note_on_c, 9, 53, 29
3, 26619, Note_on_c, 9, 53, 0
3, 26624, Note_on_c, 9, 51, 0
3, 26639, Note_on_c, 9, 59, 81
3, 26673, Note_on_c, 9, 59, 0
3, 26681, Note_on_c, 9, 51, 35
3, 26684, Note_on_c, 9, 53, 24
3, 26688, Note_on_c, 9, 53, 0
3, 26692, Note_on_c, 9, 51, 0
3, 26804, Note_on_c, 9, 51, 28
3, 26804, Note_on_c, 9, 53, 31
3, 26808, Note_on_c, 9, 53, 0
3, 26812, Note_on_c, 9, 51, 0
3, 26878, Note_on_c, 9, 59, 63
3, 26881, Note_on_c, 9, 51, 40
3, 26884, Note_on_c, 9, 53, 31
3, 26888, Note_on_c, 9, 59, 0
3, 26889, Note_on_c, 9, 53, 0
3, 26890, Note_on_c, 9, 51, 0
3, 26999, Note_on_c, 9, 59, 76
3, 27030, Note_on_c, 9, 59, 0
3, 27036, Note_on_c, 9, 51, 42
3, 27037, Note_on_c, 9, 53, 37
3, 27043, Note_on_c, 9, 53, 0
3, 27046, Note_on_c, 9, 51, 0
3, 27091, Note_on_c, 9, 51, 46
3, 27093, Note_on_c, 9, 53, 34
3, 27097, Note_on_c, 9, 53, 0
3, 27100, Note_on_c, 9, 51, 0
3, 27118, Note_on_c, 9, 59, 88
3, 27148, Note_on_c, 9, 59, 0
3, 27158, Note_on_c, 9, 51, 45
3, 27159, Note_on_c, 9, 53, 43
3, 27170, Note_on_c, 9, 53, 0
3, 27177, Note_on_c, 9, 51, 0
3, 27215, Note_on_c, 9, 51, 50
3, 27216, Note_on_c, 9, 53, 47
3, 27224, Note_on_c, 9, 53, 0
3, 27230, Note_on_c, 9, 51, 0
3, 27241, Note_on_c, 9, 59, 95
3, 27276, Note_on_c, 9, 59, 0
3, 27280, Note_on_c, 9, 51, 58
3, 27280, Note_on_c, 9, 53, 50
3, 27300, Note_on_c, 9, 53, 0
3, 27300, Note_on_c, 9, 51, 0
3, 27336, Note_on_c, 9, 53, 44
3, 27337, Note_on_c, 9, 51, 34
3, 27345, Note_on_c, 9, 53, 0
3, 27350, Note_on_c, 9, 51, 0
3, 27363, Note_on_c, 9, 59, 94
3, 27394, Note_on_c, 9, 59, 0
3, 27400, Note_on_c, 9, 53, 59
3, 27400, Note_on_c, 9, 51, 57
3, 27411, Note_on_c, 9, 53, 0
3, 27416, Note_on_c, 9, 51, 0
3, 27451, Note_on_c, 9, 51, 54
3, 27452, Note_on_c, 9, 53, 48
3, 27457, Note_on_c, 9, 53, 0
3, 27463, Note_on_c, 9, 51, 0
3, 27483, Note_on_c, 9, 59, 83
3, 27509, Note_on_c, 9, 59, 0
3, 27518, Note_on_c, 9, 51, 53
3, 27518, Note_on_c, 9, 53, 58
3, 27519, Note_on_c, 9, 46, 49
3, 27527, Note_on_c, 9, 46, 0
3, 27528, Note_on_c, 9, 53, 0
3, 27531, Note_on_c, 9, 51, 0
3, 27568, Note_on_c, 9, 51, 64
3, 27568, Note_on_c, 9, 46, 70
3, 27569, Note_on_c, 9, 53, 67
3, 27578, Note_on_c, 9, 53, 0
3, 27581, Note_on_c, 9, 46, 0
3, 27585, Note_on_c, 9, 51, 0
3, 27599, Note_on_c, 9, 59, 96
3, 27625, Note_on_c, 9, 59, 0
3, 27629, Note_on_c, 9, 46, 67
3, 27629, Note_on_c, 9, 51, 59
3, 27629, Note_on_c, 9, 53, 66
3, 27639, Note_on_c, 9, 53, 0
3, 27642, Note_on_c, 9, 46, 0
3, 27643, Note_on_c, 9, 51, 0
3, 27681, Note_on_c, 9, 46, 73
3, 27682, Note_on_c, 9, 51, 58
3, 27682, Note_on_c, 9, 53, 65
3, 27695, Note_on_c, 9, 46, 0
3, 27697, Note_on_c, 9, 53, 0
3, 27699, Note_on_c, 9, 51, 0
3, 27710, Note_on_c, 9, 59, 105
3, 27742, Note_on_c, 9, 59, 0
3, 27743, Note_on_c, 9, 51, 72
3, 27743, Note_on_c, 9, 46, 75
3, 27744, Note_on_c, 9, 53, 76
3, 27759, Note_on_c, 9, 53, 0
3, 27759, Note_on_c, 9, 51, 0
3, 27760, Note_on_c, 9, 46, 0
3, 27794, Note_on_c, 9, 46, 62
3, 27796, Note_on_c, 9, 51, 35
3, 27799, Note_on_c, 9, 51, 0
3, 27801, Note_on_c, 9, 46, 0
3, 27822, Note_on_c, 9, 57, 96
3, 27822, Note_on_c, 9, 46, 83
3, 27823, Note_on_c, 9, 51, 77
3, 27823, Note_on_c, 9, 59, 83
3, 27823, Note_on_c, 9, 53, 84
3, 27829, Note_on_c, 9, 59, 0
3, 27940, Note_on_c, 9, 57, 0
3, 27954, Note_on_c, 9, 59, 55
3, 27956, Note_on_c, 9, 53, 0
3, 27959, Note_on_c, 9, 51, 0
3, 27960, Note_on_c, 9, 46, 0
3, 27975, Note_on_c, 9, 59, 0
3, 28047, Note_on_c, 9, 59, 53
3, 28052, Note_on_c, 9, 59, 0
3, 28077, Note_on_c, 9, 59, 38
3, 28088, Note_on_c, 9, 59, 0
3, 28113, Note_on_c, 9, 51, 48
3, 28123, Note_on_c, 9, 51, 0
3, 28161, Note_on_c, 9, 53, 37
3, 28178, Note_on_c, 9, 53, 0
3, 28198, Note_on_c, 9, 59, 24
3, 28209, Note_on_c, 9, 59, 0
3, 28234, Note_on_c, 9, 51, 36
3, 28235, Note_on_c, 9, 53, 37
3, 28243, Note_on_c, 9, 51, 0
3, 28244, Note_on_c, 9, 53, 0
3, 28280, Note_on_c, 9, 59, 43
3, 28280, Note_on_c, 9, 51, 27
3, 28282, Note_on_c, 9, 53, 29
3, 28285, Note_on_c, 9, 51, 0
3, 28285, Note_on_c, 9, 59, 0
3, 28290, Note_on_c, 9, 53, 0
3, 28321, Note_on_c, 9, 53, 40
3, 28325, Note_on_c, 9, 53, 0
3, 28361, Note_on_c, 9, 59, 34
3, 28361, Note_on_c, 9, 53, 28
3, 28366, Note_on_c, 9, 59, 0
3, 28368, Note_on_c, 9, 53, 0
3, 28412, Note_on_c, 9, 59, 32
3, 28412, Note_on_c, 9, 53, 30
3, 28419, Note_on_c, 9, 53, 0
3, 28420, Note_on_c, 9, 59, 0
3, 28447, Note_on_c, 9, 59, 25
3, 28447, Note_on_c, 9, 53, 25
3, 28468, Note_on_c, 9, 53, 0
3, 28469, Note_on_c, 9, 59, 0
3, 28476, Note_on_c, 9, 44, 39
3, 28487, Note_on_c, 9, 44, 0
3, 28536, Note_on_c, 9, 44, 33
3, 28546, Note_on_c, 9, 44, 0
3, 28565, Note_on_c, 9, 59, 41
3, 28565, Note_on_c, 9, 53, 39
3, 28574, Note_on_c, 9, 59, 0
3, 28575, Note_on_c, 9, 53, 0
3, 28600, Note_on_c, 9, 44, 21
3, 28609, Note_on_c, 9, 44, 0
3, 28625, Note_on_c, 9, 53, 36
3, 28629, Note_on_c, 9, 59, 27
3, 28635, Note_on_c, 9, 59, 0
3, 28637, Note_on_c, 9, 53, 0
3, 28660, Note_on_c, 9, 59, 50
3, 28660, Note_on_c, 9, 53, 44
3, 28671, Note_on_c, 9, 59, 0
3, 28674, Note_on_c, 9, 53, 0
3, 28686, Note_on_c, 9, 51, 42
3, 28712, Note_on_c, 9, 51, 0
3, 28716, Note_on_c, 9, 44, 32
3, 28726, Note_on_c, 9, 44, 0
3, 28740, Note_on_c, 9, 59, 37
3, 28742, Note_on_c, 9, 53, 24
3, 28751, Note_on_c, 9, 59, 0
3, 28755, Note_on_c, 9, 53, 0
3, 28775, Note_on_c, 9, 51, 42
3, 28785, Note_on_c, 9, 51, 0
3, 28800, Note_on_c, 9, 59, 51
3, 28802, Note_on_c, 9, 53, 34
3, 28807, Note_on_c, 9, 53, 0
3, 28812, Note_on_c, 9, 59, 0
3, 28845, Note_on_c, 9, 59, 36
3, 28850, Note_on_c, 9, 59, 0
3, 28924, Note_on_c, 9, 59, 51
3, 28928, Note_on_c, 9, 59, 0
3, 29020, Note_on_c, 9, 59, 31
3, 29026, Note_on_c, 9, 59, 0
3, 29040, Note_on_c, 9, 59, 33
3, 29052, Note_on_c, 9, 59, 0
3, 29160, Note_on_c, 9, 59, 51
3, 29164, Note_on_c, 9, 59, 0
3, 29195, Note_on_c, 9, 59, 64
3, 29198, Note_on_c, 9, 59, 0
3, 29220, Note_on_c, 9, 59, 91
3, 29246, Note_on_c, 9, 59, 0
3, 29279, Note_on_c, 9, 59, 62
3, 29285, Note_on_c, 9, 59, 0
3, 29317, Note_on_c, 9, 59, 54
3, 29325, Note_on_c, 9, 59, 0
3, 29396, Note_on_c, 9, 59, 39
3, 29433, Note_on_c, 9, 59, 0
3, 29493, Note_on_c, 9, 51, 40
3, 29499, Note_on_c, 9, 53, 24
3, 29506, Note_on_c, 9, 53, 0
3, 29506, Note_on_c, 9, 51, 0
3, 29522, Note_on_c, 9, 51, 34
3, 29524, Note_on_c, 9, 53, 44
3, 29530, Note_on_c, 9, 51, 0
3, 29549, Note_on_c, 9, 53, 0
3, 29563, Note_on_c, 9, 59, 44
3, 29571, Note_on_c, 9, 59, 0
3, 29607, Note_on_c, 9, 59, 44
3, 29613, Note_on_c, 9, 59, 0
3, 29638, Note_on_c, 9, 59, 63
3, 29644, Note_on_c, 9, 59, 0
3, 29735, Note_on_c, 9, 59, 53
3, 29741, Note_on_c, 9, 59, 0
3, 29757, Note_on_c, 9, 59, 46
3, 29768, Note_on_c, 9, 59, 0
3, 29780, Note_on_c, 9, 59, 62
3, 29786, Note_on_c, 9, 59, 0
3, 29833, Note_on_c, 9, 59, 67
3, 29837, Note_on_c, 9, 59, 0
3, 29871, Note_on_c, 9, 59, 62
3, 29878, Note_on_c, 9, 59, 0
3, 29901, Note_on_c, 9, 59, 55
3, 29926, Note_on_c, 9, 59, 0
3, 29982, Note_on_c, 9, 59, 40
3, 29993, Note_on_c, 9, 59, 0
3, 30006, Note_on_c, 9, 59, 40
3, 30028, Note_on_c, 9, 59, 0
3, 30120, Note_on_c, 9, 59, 36
3, 30200, Note_on_c, 9, 59, 0
3, 30217, Note_on_c, 9, 51, 55
3, 30218, Note_on_c, 9, 53, 51
3, 30224, Note_on_c, 9, 53, 0
3, 30225, Note_on_c, 9, 51, 0
3, 30243, Note_on_c, 9, 59, 46
3, 30297, Note_on_c, 9, 59, 0
3, 30403, Note_on_c, 9, 59, 34
3, 30408, Note_on_c, 9, 59, 0
3, 30446, Note_on_c, 9, 59, 50
3, 30451, Note_on_c, 9, 59, 0
3, 30462, Note_on_c, 9, 59, 52
3, 30471, Note_on_c, 9, 59, 0
3, 30481, Note_on_c, 9, 51, 35
3, 30482, Note_on_c, 9, 53, 36
3, 30486, Note_on_c, 9, 53, 0
3, 30488, Note_on_c, 9, 51, 0
3, 30520, Note_on_c, 9, 59, 42
3, 30528, Note_on_c, 9, 59, 0
3, 30563, Note_on_c, 9, 59, 39
3, 30568, Note_on_c, 9, 59, 0
3, 30579, Note_on_c, 9, 59, 56
3, 30589, Note_on_c, 9, 59, 0
3, 30599, Note_on_c, 9, 51, 39
3, 30600, Note_on_c, 9, 53, 35
3, 30612, Note_on_c, 9, 51, 0
3, 30621, Note_on_c, 9, 53, 0
3, 30644, Note_on_c, 9, 59, 44
3, 30652, Note_on_c, 9, 59, 0
3, 30684, Note_on_c, 9, 59, 45
3, 30693, Note_on_c, 9, 59, 0
3, 30703, Note_on_c, 9, 59, 62
3, 30712, Note_on_c, 9, 59, 0
3, 30725, Note_on_c, 9, 53, 31
3, 30725, Note_on_c, 9, 51, 27
3, 30733, Note_on_c, 9, 53, 0
3, 30735, Note_on_c, 9, 51, 0
3, 30762, Note_on_c, 9, 59, 36
3, 30772, Note_on_c, 9, 59, 0
3, 30843, Note_on_c, 9, 59, 42
3, 30851, Note_on_c, 9, 59, 0
3, 30960, Note_on_c, 9, 59, 80
3, 31013, Note_on_c, 9, 59, 0
3, 31089, Note_on_c, 9, 59, 54
3, 31094, Note_on_c, 9, 59, 0
3, 31126, Note_on_c, 9, 51, 34
3, 31127, Note_on_c, 9, 53, 24
3, 31130, Note_on_c, 9, 51, 0
3, 31131, Note_on_c, 9, 53, 0
3, 31182, Note_on_c, 9, 59, 45
3, 31187, Note_on_c, 9, 59, 0
3, 31209, Note_on_c, 9, 59, 67
3, 31219, Note_on_c, 9, 59, 0
3, 31241, Note_on_c, 9, 51, 45
3, 31243, Note_on_c, 9, 53, 38
3, 31245, Note_on_c, 9, 51, 0
3, 31247, Note_on_c, 9, 53, 0
3, 31297, Note_on_c, 9, 59, 55
3, 31302, Note_on_c, 9, 59, 0
3, 31321, Note_on_c, 9, 59, 54
3, 31331, Note_on_c, 9, 59, 0
3, 31357, Note_on_c, 9, 51, 50
3, 31358, Note_on_c, 9, 53, 62
3, 31367, Note_on_c, 9, 51, 0
3, 31368, Note_on_c, 9, 53, 0
3, 31415, Note_on_c, 9, 59, 51
3, 31420, Note_on_c, 9, 59, 0
3, 31444, Note_on_c, 9, 59, 68
3, 31455, Note_on_c, 9, 59, 0
3, 31484, Note_on_c, 9, 53, 41
3, 31484, Note_on_c, 9, 51, 32
3, 31488, Note_on_c, 9, 53, 0
3, 31492, Note_on_c, 9, 51, 0
3, 31541, Note_on_c, 9, 53, 29
3, 31546, Note_on_c, 9, 53, 0
3, 31569, Note_on_c, 9, 59, 71
3, 31586, Note_on_c, 9, 59, 0
3, 31605, Note_on_c, 9, 53, 32
3, 31609, Note_on_c, 9, 53, 0
3, 31688, Note_on_c, 9, 57, 68
3, 31690, Note_on_c, 9, 44, 56
3, 31780, Note_on_c, 9, 57, 0
3, 31831, Note_on_c, 9, 44, 0
3, 31861, Note_on_c, 9, 59, 51
3, 31870, Note_on_c, 9, 59, 0
3, 31884, Note_on_c, 9, 59, 57
3, 31897, Note_on_c, 9, 59, 0
3, 31911, Note_on_c, 9, 59, 66
3, 31923, Note_on_c, 9, 59, 0
3, 31940, Note_on_c, 9, 59, 57
3, 31953, Note_on_c, 9, 59, 0
3, 31967, Note_on_c, 9, 59, 42
3, 31977, Note_on_c, 9, 59, 0
3, 31989, Note_on_c, 9, 59, 41
3, 31997, Note_on_c, 9, 59, 0
3, 32005, Note_on_c, 9, 59, 31
3, 32012, Note_on_c, 9, 59, 0
3, 32022, Note_on_c, 9, 59, 41
3, 32028, Note_on_c, 9, 59, 0
3, 32034, Note_on_c, 9, 59, 46
3, 32042, Note_on_c, 9, 59, 0
3, 32047, Note_on_c, 9, 59, 42
3, 32053, Note_on_c, 9, 59, 0
3, 32058, Note_on_c, 9, 59, 44
3, 32066, Note_on_c, 9, 59, 0
3, 32073, Note_on_c, 9, 59, 40
3, 32077, Note_on_c, 9, 59, 0
3, 32084, Note_on_c, 9, 59, 51
3, 32088, Note_on_c, 9, 59, 0
3, 32097, Note_on_c, 9, 59, 56
3, 32106, Note_on_c, 9, 59, 0
3, 32115, Note_on_c, 9, 59, 58
3, 32118, Note_on_c, 9, 59, 0
3, 32181, Note_on_c, 9, 59, 36
3, 32189, Note_on_c, 9, 51, 33
3, 32191, Note_on_c, 9, 59, 0
3, 32192, Note_on_c, 9, 53, 32
3, 32200, Note_on_c, 9, 51, 0
3, 32209, Note_on_c, 9, 53, 0
3, 32221, Note_on_c, 9, 59, 53
3, 32226, Note_on_c, 9, 51, 31
3, 32229, Note_on_c, 9, 53, 22
3, 32230, Note_on_c, 9, 51, 0
3, 32242, Note_on_c, 9, 59, 0
3, 32243, Note_on_c, 9, 53, 0
3, 32279, Note_on_c, 9, 51, 33
3, 32285, Note_on_c, 9, 53, 29
3, 32289, Note_on_c, 9, 59, 44
3, 32291, Note_on_c, 9, 51, 0
3, 32301, Note_on_c, 9, 53, 0
3, 32306, Note_on_c, 9, 59, 0
3, 32318, Note_on_c, 9, 51, 37
3, 32324, Note_on_c, 9, 53, 35
3, 32329, Note_on_c, 9, 51, 0
3, 32331, Note_on_c, 9, 53, 0
3, 32333, Note_on_c, 9, 59, 47
3, 32343, Note_on_c, 9, 59, 0
3, 32357, Note_on_c, 9, 51, 36
3, 32364, Note_on_c, 9, 53, 24
3, 32365, Note_on_c, 9, 51, 0
3, 32369, Note_on_c, 9, 59, 42
3, 32371, Note_on_c, 9, 53, 0
3, 32379, Note_on_c, 9, 59, 0
3, 32397, Note_on_c, 9, 51, 31
3, 32405, Note_on_c, 9, 51, 0
3, 32406, Note_on_c, 9, 59, 45
3, 32413, Note_on_c, 9, 59, 0
3, 32433, Note_on_c, 9, 51, 28
3, 32440, Note_on_c, 9, 51, 0
3, 32443, Note_on_c, 9, 59, 30
3, 32456, Note_on_c, 9, 59, 0
3, 32472, Note_on_c, 9, 51, 27
3, 32481, Note_on_c, 9, 51, 0
3, 32483, Note_on_c, 9, 59, 30
3, 32495, Note_on_c, 9, 59, 0
3, 32510, Note_on_c, 9, 51, 21
3, 32522, Note_on_c, 9, 51, 0
3, 32522, Note_on_c, 9, 59, 36
3, 32532, Note_on_c, 9, 59, 0
3, 32552, Note_on_c, 9, 51, 19
3, 32559, Note_on_c, 9, 51, 0
3, 32561, Note_on_c, 9, 59, 34
3, 32565, Note_on_c, 9, 59, 0
3, 32565, End_track
4, 0, Start_track
4, 0, Title_t, ""
4, 0, Program_c, 0, 0
4, 0, Control_c, 0, 64, 127
4, 0, Note_on_c, 0, 67, 40
4, 0, Note_on_c, 0, 62, 41
4, 0, Note_on_c, 0, 60, 54
4, 0, Control_c, 0, 64, 0
4, 0, Note_on_c, 0, 55, 54
4, 0, Note_on_c, 0, 56, 33
4, 23, Control_c, 0, 64, 127
4, 36, Note_on_c, 0, 55, 0
4, 165, Note_on_c, 0, 62, 0
4, 166, Note_on_c, 0, 60, 0
4, 177, Note_on_c, 0, 56, 0
4, 182, Note_on_c, 0, 67, 0
4, 234, Note_on_c, 0, 67, 30
4, 236, Note_on_c, 0, 62, 29
4, 237, Note_on_c, 0, 60, 40
4, 238, Note_on_c, 0, 56, 32
4, 240, Note_on_c, 0, 55, 37
4, 310, Note_on_c, 0, 55, 0
4, 321, Note_on_c, 0, 62, 0
4, 323, Note_on_c, 0, 60, 0
4, 328, Note_on_c, 0, 56, 0
4, 335, Note_on_c, 0, 67, 0
4, 358, Note_on_c, 0, 60, 50
4, 359, Note_on_c, 0, 56, 26
4, 360, Note_on_c, 0, 62, 29
4, 360, Note_on_c, 0, 55, 38
4, 404, Note_on_c, 0, 55, 0
4, 425, Note_on_c, 0, 62, 0
4, 431, Note_on_c, 0, 67, 76
4, 444, Note_on_c, 0, 67, 0
4, 445, Note_on_c, 0, 60, 0
4, 450, Note_on_c, 0, 56, 0
4, 478, Note_on_c, 0, 65, 51
4, 478, Control_c, 0, 64, 0
4, 479, Note_on_c, 0, 51, 36
4, 479, Note_on_c, 0, 58, 45
4, 481, Note_on_c, 0, 60, 32
4, 481, Note_on_c, 0, 55, 40
4, 482, Note_on_c, 0, 44, 31
4, 497, Note_on_c, 0, 55, 0
4, 497, Control_c, 0, 64, 127
4, 499, Note_on_c, 0, 60, 0
4, 502, Note_on_c, 0, 58, 0
4, 504, Note_on_c, 0, 65, 0
4, 528, Note_on_c, 0, 44, 0
4, 530, Note_on_c, 0, 51, 0
4, 531, Note_on_c, 0, 75, 69
4, 580, Note_on_c, 0, 75, 0
4, 594, Note_on_c, 0, 75, 30
4, 594, Note_on_c, 0, 70, 36
4, 594, Note_on_c, 0, 63, 30
4, 594, Note_on_c, 0, 67, 31
4, 596, Note_on_c, 0, 72, 36
4, 637, Note_on_c, 0, 75, 0
4, 719, Note_on_c, 0, 72, 0
4, 719, Note_on_c, 0, 63, 0
4, 723, Note_on_c, 0, 70, 0
4, 723, Note_on_c, 0, 67, 0
4, 877, Note_on_c, 0, 63, 63
4, 878, Note_on_c, 0, 51, 76
4, 878, Note_on_c, 0, 58, 77
4, 879, Note_on_c, 0, 60, 77
4, 879, Note_on_c, 0, 55, 87
4, 908, Note_on_c, 0, 63, 0
4, 917, Note_on_c, 0, 60, 0
4, 917, Note_on_c, 0, 55, 0
4, 921, Note_on_c, 0, 63, 80
4, 933, Note_on_c, 0, 58, 0
4, 936, Note_on_c, 0, 63, 0
4, 954, Note_on_c, 0, 51, 0
4, 956, Note_on_c, 0, 67, 78
4, 958, Note_on_c, 0, 60, 87
4, 958, Note_on_c, 0, 56, 83
4, 958, Note_on_c, 0, 62, 75
4, 959, Note_on_c, 0, 55, 81
4, 959, Control_c, 0, 64, 0
4, 1000, Note_on_c, 0, 67, 0
4, 1010, Note_on_c, 0, 67, 62
4, 1016, Control_c, 0, 64, 127
4, 1033, Note_on_c, 0, 67, 0
4, 1045, Note_on_c, 0, 62, 0
4, 1046, Note_on_c, 0, 56, 0
4, 1057, Note_on_c, 0, 55, 0
4, 1058, Note_on_c, 0, 60, 0
4, 1061, Note_on_c, 0, 67, 62
4, 1085, Note_on_c, 0, 67, 0
4, 1114, Note_on_c, 0, 67, 64
4, 1129, Note_on_c, 0, 67, 0
4, 1155, Note_on_c, 0, 67, 63
4, 1166, Note_on_c, 0, 67, 0
4, 1193, Note_on_c, 0, 67, 57
4, 1194, Note_on_c, 0, 58, 50
4, 1194, Note_on_c, 0, 63, 51
4, 1195, Note_on_c, 0, 49, 34
4, 1196, Note_on_c, 0, 53, 31
4, 1197, Note_on_c, 0, 59, 20
4, 1197, Control_c, 0, 64, 0
4, 1237, Control_c, 0, 64, 127
4, 1282, Note_on_c, 0, 59, 0
4, 1294, Note_on_c, 0, 63, 0
4, 1298, Note_on_c, 0, 58, 0
4, 1321, Note_on_c, 0, 63, 38
4, 1322, Note_on_c, 0, 58, 26
4, 1323, Note_on_c, 0, 59, 27
4, 1372, Note_on_c, 0, 59, 0
4, 1387, Note_on_c, 0, 53, 0
4, 1389, Note_on_c, 0, 58, 0
4, 1399, Note_on_c, 0, 67, 0
4, 1400, Note_on_c, 0, 49, 0
4, 1402, Note_on_c, 0, 63, 0
4, 1437, Control_c, 0, 64, 0
4, 1439, Note_on_c, 0, 58, 42
4, 1439, Note_on_c, 0, 63, 42
4, 1440, Note_on_c, 0, 65, 55
4, 1441, Note_on_c, 0, 55, 31
4, 1443, Note_on_c, 0, 48, 37
4, 1453, Control_c, 0, 64, 127
4, 1460, Note_on_c, 0, 58, 0
4, 1464, Note_on_c, 0, 65, 0
4, 1465, Note_on_c, 0, 63, 0
4, 1498, Note_on_c, 0, 48, 0
4, 1499, Note_on_c, 0, 77, 64
4, 1501, Note_on_c, 0, 55, 0
4, 1530, Note_on_c, 0, 77, 0
4, 1565, Note_on_c, 0, 77, 37
4, 1565, Note_on_c, 0, 75, 51
4, 1567, Note_on_c, 0, 70, 46
4, 1569, Note_on_c, 0, 67, 41
4, 1570, Note_on_c, 0, 63, 23
4, 1573, Note_on_c, 0, 65, 18
4, 1617, Note_on_c, 0, 65, 0
4, 1626, Note_on_c, 0, 63, 0
4, 1634, Note_on_c, 0, 77, 0
4, 1643, Note_on_c, 0, 75, 0
4, 1643, Note_on_c, 0, 70, 0
4, 1647, Note_on_c, 0, 67, 0
4, 1743, Note_on_c, 0, 70, 73
4, 1745, Note_on_c, 0, 67, 76
4, 1746, Note_on_c, 0, 63, 74
4, 1748, Note_on_c, 0, 58, 69
4, 1748, Note_on_c, 0, 60, 73
4, 1751, Note_on_c, 0, 60, 0
4, 1752, Control_c, 0, 64, 0
4, 1763, Note_on_c, 0, 60, 8
4, 1767, Control_c, 0, 64, 127
4, 1773, Note_on_c, 0, 67, 0
4, 1775, Note_on_c, 0, 58, 0
4, 1775, Note_on_c, 0, 70, 0
4, 1779, Note_on_c, 0, 63, 0
4, 1782, Note_on_c, 0, 60, 0
4, 1805, Note_on_c, 0, 67, 49
4, 1807, Note_on_c, 0, 60, 56
4, 1808, Note_on_c, 0, 63, 35
4, 1809, Note_on_c, 0, 56, 34
4, 1809, Note_on_c, 0, 55, 48
4, 1813, Control_c, 0, 64, 0
4, 1828, Control_c, 0, 64, 127
4, 1876, Note_on_c, 0, 60, 0
4, 1879, Note_on_c, 0, 56, 0
4, 1879, Note_on_c, 0, 55, 0
4, 1881, Note_on_c, 0, 67, 0
4, 1882, Note_on_c, 0, 63, 0
4, 1890, Note_on_c, 0, 65, 56
4, 1890, Note_on_c, 0, 56, 37
4, 1892, Note_on_c, 0, 53, 29
4, 1893, Note_on_c, 0, 60, 35
4, 1895, Note_on_c, 0, 65, 0
4, 1897, Note_on_c, 0, 60, 0
4, 1904, Note_on_c, 0, 56, 0
4, 1905, Note_on_c, 0, 53, 0
4, 1919, Control_c, 0, 64, 0
4, 1920, Note_on_c, 0, 63, 52
4, 1921, Note_on_c, 0, 54, 57
4, 1922, Note_on_c, 0, 58, 58
4, 1923, Note_on_c, 0, 51, 52
4, 1961, Control_c, 0, 64, 127
4, 2010, Note_on_c, 0, 54, 0
4, 2019, Note_on_c, 0, 58, 0
4, 2021, Note_on_c, 0, 63, 0
4, 2086, Note_on_c, 0, 75, 77
4, 2086, Note_on_c, 0, 63, 49
4, 2088, Note_on_c, 0, 66, 78
4, 2088, Note_on_c, 0, 70, 77
4, 2089, Note_on_c, 0, 73, 44
4, 2106, Note_on_c, 0, 73, 0
4, 2106, Note_on_c, 0, 66, 0
4, 2108, Note_on_c, 0, 75, 0
4, 2110, Note_on_c, 0, 51, 0
4, 2110, Note_on_c, 0, 70, 0
4, 2116, Note_on_c, 0, 63, 0
4, 2120, Note_on_c, 0, 77, 84
4, 2157, Note_on_c, 0, 70, 51
4, 2157, Note_on_c, 0, 74, 58
4, 2157, Note_on_c, 0, 65, 65
4, 2159, Control_c, 0, 64, 0
4, 2159, Note_on_c, 0, 54, 46
4, 2160, Note_on_c, 0, 77, 0
4, 2161, Note_on_c, 0, 60, 33
4, 2185, Control_c, 0, 64, 127
4, 2250, Note_on_c, 0, 70, 0
4, 2251, Note_on_c, 0, 74, 0
4, 2252, Note_on_c, 0, 60, 0
4, 2261, Note_on_c, 0, 65, 0
4, 2277, Note_on_c, 0, 72, 56
4, 2278, Note_on_c, 0, 68, 52
4, 2278, Note_on_c, 0, 65, 43
4, 2281, Note_on_c, 0, 60, 31
4, 2282, Control_c, 0, 64, 0
4, 2294, Control_c, 0, 64, 127
4, 2318, Note_on_c, 0, 60, 0
4, 2327, Note_on_c, 0, 54, 0
4, 2330, Note_on_c, 0, 72, 0
4, 2338, Note_on_c, 0, 68, 0
4, 2341, Note_on_c, 0, 65, 0
4, 2402, Note_on_c, 0, 68, 43
4, 2403, Note_on_c, 0, 64, 49
4, 2404, Note_on_c, 0, 59, 34
4, 2404, Control_c, 0, 64, 0
4, 2405, Note_on_c, 0, 49, 32
4, 2408, Note_on_c, 0, 56, 25
4, 2436, Control_c, 0, 64, 127
4, 2494, Note_on_c, 0, 64, 0
4, 2496, Note_on_c, 0, 59, 0
4, 2531, Note_on_c, 0, 64, 52
4, 2532, Note_on_c, 0, 59, 33
4, 2569, Note_on_c, 0, 59, 0
4, 2574, Note_on_c, 0, 49, 0
4, 2578, Note_on_c, 0, 64, 0
4, 2583, Note_on_c, 0, 68, 0
4, 2584, Note_on_c, 0, 56, 0
4, 2618, Note_on_c, 0, 75, 93
4, 2637, Note_on_c, 0, 75, 0
4, 2650, Note_on_c, 0, 75, 83
4, 2652, Note_on_c, 0, 68, 80
4, 2652, Note_on_c, 0, 72, 72
4, 2653, Note_on_c, 0, 63, 76
4, 2653, Note_on_c, 0, 64, 81
4, 2653, Control_c, 0, 64, 0
4, 2675, Control_c, 0, 64, 127
4, 2687, Note_on_c, 0, 75, 0
4, 2688, Note_on_c, 0, 72, 0
4, 2693, Note_on_c, 0, 73, 60
4, 2694, Note_on_c, 0, 61, 68
4, 2696, Note_on_c, 0, 63, 0
4, 2698, Control_c, 0, 64, 0
4, 2711, Control_c, 0, 64, 127
4, 2749, Note_on_c, 0, 64, 0
4, 2755, Note_on_c, 0, 68, 0
4, 2758, Note_on_c, 0, 61, 0
4, 2761, Note_on_c, 0, 73, 0
4, 2765, Control_c, 0, 64, 0
4, 2767, Note_on_c, 0, 72, 75
4, 2767, Note_on_c, 0, 68, 67
4, 2768, Note_on_c, 0, 60, 41
4, 2768, Note_on_c, 0, 64, 73
4, 2781, Control_c, 0, 64, 127
4, 2795, Note_on_c, 0, 64, 0
4, 2798, Note_on_c, 0, 68, 0
4, 2800, Note_on_c, 0, 72, 0
4, 2805, Note_on_c, 0, 60, 0
4, 2805, Note_on_c, 0, 73, 48
4, 2806, Note_on_c, 0, 68, 64
4, 2806, Note_on_c, 0, 64, 61
4, 2806, Note_on_c, 0, 61, 50
4, 2809, Control_c, 0, 64, 0
4, 2819, Control_c, 0, 64, 127
4, 2829, Note_on_c, 0, 61, 0
4, 2836, Note_on_c, 0, 64, 0
4, 2840, Note_on_c, 0, 68, 0
4, 2862, Note_on_c, 0, 73, 0
4, 2884, Note_on_c, 0, 75, 52
4, 2885, Control_c, 0, 64, 0
4, 2885, Note_on_c, 0, 66, 56
4, 2885, Note_on_c, 0, 70, 56
4, 2886, Note_on_c, 0, 72, 51
4, 2887, Note_on_c, 0, 58, 30
4, 2887, Note_on_c, 0, 48, 39
4, 2912, Control_c, 0, 64, 127
4, 2949, Note_on_c, 0, 58, 0
4, 2950, Note_on_c, 0, 72, 0
4, 2951, Note_on_c, 0, 70, 0
4, 2952, Note_on_c, 0, 75, 0
4, 2956, Note_on_c, 0, 66, 0
4, 3007, Note_on_c, 0, 48, 0
4, 3093, Note_on_c, 0, 63, 59
4, 3093, Note_on_c, 0, 54, 68
4, 3094, Note_on_c, 0, 58, 63
4, 3096, Note_on_c, 0, 60, 55
4, 3097, Note_on_c, 0, 54, 0
4, 3099, Note_on_c, 0, 60, 0
4, 3101, Note_on_c, 0, 58, 0
4, 3101, Control_c, 0, 64, 0
4, 3103, Note_on_c, 0, 63, 0
4, 3122, Note_on_c, 0, 68, 76
4, 3123, Note_on_c, 0, 56, 64
4, 3123, Note_on_c, 0, 61, 65
4, 3125, Note_on_c, 0, 57, 54
4, 3125, Note_on_c, 0, 59, 65
4, 3129, Note_on_c, 0, 59, 0
4, 3144, Control_c, 0, 64, 127
4, 3152, Note_on_c, 0, 61, 0
4, 3153, Note_on_c, 0, 57, 0
4, 3155, Note_on_c, 0, 68, 0
4, 3158, Control_c, 0, 64, 0
4, 3158, Note_on_c, 0, 66, 49
4, 3160, Note_on_c, 0, 61, 48
4, 3160, Note_on_c, 0, 57, 58
4, 3161, Note_on_c, 0, 56, 0
4, 3161, Note_on_c, 0, 63, 51
4, 3161, Note_on_c, 0, 54, 56
4, 3195, Control_c, 0, 64, 127
4, 3228, Note_on_c, 0, 57, 0
4, 3232, Note_on_c, 0, 66, 0
4, 3232, Note_on_c, 0, 61, 0
4, 3238, Note_on_c, 0, 63, 0
4, 3244, Note_on_c, 0, 57, 42
4, 3244, Note_on_c, 0, 61, 29
4, 3245, Note_on_c, 0, 63, 19
4, 3245, Note_on_c, 0, 53, 44
4, 3245, Note_on_c, 0, 65, 54
4, 3248, Note_on_c, 0, 54, 0
4, 3249, Control_c, 0, 64, 0
4, 3268, Control_c, 0, 64, 127
4, 3291, Note_on_c, 0, 63, 0
4, 3296, Note_on_c, 0, 65, 0
4, 3305, Note_on_c, 0, 57, 0
4, 3310, Note_on_c, 0, 61, 0
4, 3324, Note_on_c, 0, 53, 0
4, 3325, Note_on_c, 0, 63, 34
4, 3327, Note_on_c, 0, 61, 26
4, 3328, Note_on_c, 0, 51, 34
4, 3341, Note_on_c, 0, 61, 0
4, 3346, Note_on_c, 0, 51, 0
4, 3346, Note_on_c, 0, 63, 0
4, 3354, Control_c, 0, 64, 0
4, 3471, Note_on_c, 0, 73, 39
4, 3471, Note_on_c, 0, 61, 62
4, 3472, Note_on_c, 0, 58, 64
4, 3472, Note_on_c, 0, 64, 73
4, 3473, Note_on_c, 0, 68, 56
4, 3478, Note_on_c, 0, 61, 0
4, 3480, Note_on_c, 0, 58, 0
4, 3481, Note_on_c, 0, 73, 0
4, 3481, Note_on_c, 0, 64, 0
4, 3481, Note_on_c, 0, 68, 0
4, 3520, Note_on_c, 0, 73, 42
4, 3520, Note_on_c, 0, 61, 63
4, 3521, Note_on_c, 0, 58, 67
4, 3521, Note_on_c, 0, 68, 52
4, 3521, Note_on_c, 0, 64, 70
4, 3527, Note_on_c, 0, 61, 0
4, 3529, Note_on_c, 0, 64, 0
4, 3530, Note_on_c, 0, 58, 0
4, 3532, Note_on_c, 0, 68, 0
4, 3535, Note_on_c, 0, 73, 0
4, 3564, Note_on_c, 0, 73, 36
4, 3564, Note_on_c, 0, 58, 46
4, 3564, Note_on_c, 0, 68, 52
4, 3565, Note_on_c, 0, 64, 61
4, 3566, Note_on_c, 0, 61, 39
4, 3576, Control_c, 0, 64, 127
4, 3577, Note_on_c, 0, 61, 0
4, 3579, Note_on_c, 0, 64, 0
4, 3581, Note_on_c, 0, 68, 0
4, 3585, Note_on_c, 0, 58, 0
4, 3592, Note_on_c, 0, 73, 0
4, 3605, Note_on_c, 0, 73, 33
4, 3607, Note_on_c, 0, 64, 60
4, 3607, Note_on_c, 0, 51, 44
4, 3608, Control_c, 0, 64, 0
4, 3608, Note_on_c, 0, 58, 34
4, 3608, Note_on_c, 0, 61, 35
4, 3609, Note_on_c, 0, 67, 44
4, 3641, Control_c, 0, 64, 127
4, 3686, Note_on_c, 0, 58, 0
4, 3687, Note_on_c, 0, 67, 0
4, 3692, Note_on_c, 0, 73, 0
4, 3698, Note_on_c, 0, 61, 0
4, 3701, Note_on_c, 0, 64, 0
4, 3725, Note_on_c, 0, 70, 45
4, 3726, Note_on_c, 0, 61, 46
4, 3727, Note_on_c, 0, 64, 50
4, 3730, Note_on_c, 0, 67, 32
4, 3731, Note_on_c, 0, 56, 21
4, 3764, Note_on_c, 0, 56, 0
4, 3764, Note_on_c, 0, 51, 0
4, 3766, Note_on_c, 0, 67, 0
4, 3771, Note_on_c, 0, 64, 0
4, 3772, Note_on_c, 0, 70, 0
4, 3780, Note_on_c, 0, 61, 0
4, 3847, Note_on_c, 0, 63, 40
4, 3849, Note_on_c, 0, 58, 39
4, 3849, Note_on_c, 0, 51, 36
4, 3849, Control_c, 0, 64, 0
4, 3850, Note_on_c, 0, 55, 43
4, 3850, Note_on_c, 0, 60, 37
4, 3877, Control_c, 0, 64, 127
4, 3925, Note_on_c, 0, 55, 0
4, 3929, Note_on_c, 0, 60, 0
4, 3936, Note_on_c, 0, 63, 0
4, 3943, Note_on_c, 0, 58, 0
4, 3948, Note_on_c, 0, 51, 0
4, 3969, Note_on_c, 0, 65, 80
4, 3970, Note_on_c, 0, 51, 40
4, 3970, Note_on_c, 0, 54, 69
4, 3970, Note_on_c, 0, 61, 55
4, 3970, Note_on_c, 0, 58, 67
4, 3976, Control_c, 0, 64, 0
4, 4008, Control_c, 0, 64, 127
4, 4036, Note_on_c, 0, 54, 0
4, 4052, Note_on_c, 0, 65, 0
4, 4054, Note_on_c, 0, 58, 0
4, 4058, Note_on_c, 0, 61, 0
4, 4084, Note_on_c, 0, 51, 0
4, 4090, Note_on_c, 0, 68, 72
4, 4091, Note_on_c, 0, 65, 80
4, 4092, Note_on_c, 0, 61, 74
4, 4093, Note_on_c, 0, 60, 81
4, 4095, Note_on_c, 0, 56, 46
4, 4096, Control_c, 0, 64, 0
4, 4104, Note_on_c, 0, 56, 0
4, 4122, Control_c, 0, 64, 127
4, 4180, Note_on_c, 0, 60, 0
4, 4185, Note_on_c, 0, 61, 0
4, 4185, Note_on_c, 0, 65, 0
4, 4187, Note_on_c, 0, 68, 0
4, 4258, Note_on_c, 0, 67, 77
4, 4258, Note_on_c, 0, 63, 78
4, 4258, Note_on_c, 0, 58, 85
4, 4261, Control_c, 0, 64, 0
4, 4275, Control_c, 0, 64, 127
4, 4284, Note_on_c, 0, 67, 0
4, 4296, Note_on_c, 0, 58, 0
4, 4298, Note_on_c, 0, 63, 0
4, 4318, Note_on_c, 0, 63, 59
4, 4318, Note_on_c, 0, 67, 78
4, 4319, Note_on_c, 0, 56, 59
4, 4320, Note_on_c, 0, 60, 68
4, 4323, Control_c, 0, 64, 0
4, 4350, Control_c, 0, 64, 127
4, 4384, Note_on_c, 0, 67, 0
4, 4400, Note_on_c, 0, 63, 0
4, 4412, Note_on_c, 0, 56, 0
4, 4419, Note_on_c, 0, 60, 0
4, 4444, Note_on_c, 0, 61, 56
4, 4444, Note_on_c, 0, 56, 59
4, 4445, Note_on_c, 0, 65, 60
4, 4447, Note_on_c, 0, 46, 37
4, 4450, Control_c, 0, 64, 0
4, 4479, Control_c, 0, 64, 127
4, 4503, Note_on_c, 0, 46, 0
4, 4523, Note_on_c, 0, 56, 0
4, 4527, Note_on_c, 0, 65, 0
4, 4534, Note_on_c, 0, 61, 0
4, 4568, Note_on_c, 0, 61, 42
4, 4568, Note_on_c, 0, 54, 39
4, 4568, Control_c, 0, 64, 0
4, 4569, Note_on_c, 0, 58, 39
4, 4570, Note_on_c, 0, 39, 28
4, 4570, Note_on_c, 0, 51, 26
4, 4590, Control_c, 0, 64, 127
4, 4626, Note_on_c, 0, 61, 0
4, 4628, Note_on_c, 0, 54, 0
4, 4641, Note_on_c, 0, 58, 0
4, 4659, Note_on_c, 0, 51, 0
4, 4664, Note_on_c, 0, 39, 0
4, 4715, Control_c, 0, 64, 0
4, 4722, Note_on_c, 0, 62, 58
4, 4722, Note_on_c, 0, 65, 74
4, 4722, Note_on_c, 0, 57, 81
4, 4723, Note_on_c, 0, 54, 74
4, 4724, Note_on_c, 0, 44, 49
4, 4737, Control_c, 0, 64, 127
4, 4749, Note_on_c, 0, 65, 0
4, 4752, Note_on_c, 0, 54, 0
4, 4757, Note_on_c, 0, 65, 74
4, 4760, Note_on_c, 0, 54, 50
4, 4765, Note_on_c, 0, 62, 0
4, 4767, Note_on_c, 0, 57, 0
4, 4772, Note_on_c, 0, 65, 0
4, 4778, Note_on_c, 0, 54, 0
4, 4793, Note_on_c, 0, 44, 0
4, 4794, Note_on_c, 0, 63, 43
4, 4795, Note_on_c, 0, 56, 47
4, 4795, Note_on_c, 0, 60, 61
4, 4796, Note_on_c, 0, 53, 48
4, 4797, Control_c, 0, 64, 0
4, 4798, Note_on_c, 0, 49, 40
4, 4831, Control_c, 0, 64, 127
4, 4855, Note_on_c, 0, 53, 0
4, 4863, Note_on_c, 0, 60, 0
4, 4867, Note_on_c, 0, 56, 0
4, 4868, Note_on_c, 0, 63, 0
4, 4946, Note_on_c, 0, 49, 0
4, 5035, Note_on_c, 0, 89, 80
4, 5039, Note_on_c, 0, 84, 74
4, 5039, Note_on_c, 0, 58, 42
4, 5040, Note_on_c, 0, 54, 37
4, 5041, Note_on_c, 0, 60, 46
4, 5043, Note_on_c, 0, 65, 54
4, 5045, Control_c, 0, 64, 0
4, 5049, Note_on_c, 0, 77, 34
4, 5065, Control_c, 0, 64, 127
4, 5115, Note_on_c, 0, 65, 0
4, 5123, Note_on_c, 0, 60, 0
4, 5131, Note_on_c, 0, 58, 0
4, 5201, Note_on_c, 0, 89, 0
4, 5206, Note_on_c, 0, 84, 0
4, 5211, Note_on_c, 0, 77, 0
4, 5245, Note_on_c, 0, 54, 0
4, 5280, Note_on_c, 0, 80, 65
4, 5285, Note_on_c, 0, 75, 69
4, 5287, Note_on_c, 0, 71, 46
4, 5289, Note_on_c, 0, 59, 34
4, 5290, Note_on_c, 0, 53, 31
4, 5290, Note_on_c, 0, 64, 29
4, 5291, Control_c, 0, 64, 0
4, 5313, Control_c, 0, 64, 127
4, 5324, Note_on_c, 0, 80, 0
4, 5328, Note_on_c, 0, 59, 0
4, 5329, Note_on_c, 0, 75, 0
4, 5351, Note_on_c, 0, 59, 37
4, 5352, Note_on_c, 0, 64, 0
4, 5361, Note_on_c, 0, 71, 0
4, 5412, Note_on_c, 0, 63, 36
4, 5441, Note_on_c, 0, 75, 84
4, 5455, Note_on_c, 0, 63, 0
4, 5460, Note_on_c, 0, 59, 0
4, 5464, Note_on_c, 0, 75, 0
4, 5467, Note_on_c, 0, 53, 0
4, 5468, Note_on_c, 0, 71, 71
4, 5472, Note_on_c, 0, 73, 23
4, 5479, Note_on_c, 0, 73, 0
4, 5488, Note_on_c, 0, 68, 56
4, 5495, Note_on_c, 0, 71, 0
4, 5502, Note_on_c, 0, 68, 0
4, 5512, Control_c, 0, 64, 0
4, 5513, Note_on_c, 0, 75, 71
4, 5513, Note_on_c, 0, 68, 67
4, 5515, Note_on_c, 0, 64, 45
4, 5516, Note_on_c, 0, 58, 42
4, 5516, Note_on_c, 0, 48, 47
4, 5518, Note_on_c, 0, 65, 35
4, 5518, Note_on_c, 0, 72, 28
4, 5521, Note_on_c, 0, 65, 0
4, 5545, Control_c, 0, 64, 127
4, 5547, Note_on_c, 0, 72, 0
4, 5553, Note_on_c, 0, 73, 46
4, 5557, Note_on_c, 0, 75, 0
4, 5588, Note_on_c, 0, 58, 0
4, 5608, Note_on_c, 0, 73, 0
4, 5609, Note_on_c, 0, 68, 0
4, 5614, Note_on_c, 0, 64, 0
4, 5631, Note_on_c, 0, 68, 46
4, 5632, Note_on_c, 0, 64, 58
4, 5632, Note_on_c, 0, 58, 36
4, 5633, Note_on_c, 0, 72, 44
4, 5665, Note_on_c, 0, 48, 0
4, 5669, Note_on_c, 0, 68, 0
4, 5681, Note_on_c, 0, 64, 0
4, 5684, Note_on_c, 0, 58, 0
4, 5699, Note_on_c, 0, 68, 47
4, 5709, Note_on_c, 0, 72, 0
4, 5714, Note_on_c, 0, 68, 0
4, 5715, Note_on_c, 0, 64, 60
4, 5722, Note_on_c, 0, 64, 0
4, 5739, Note_on_c, 0, 67, 54
4, 5739, Note_on_c, 0, 70, 56
4, 5740, Note_on_c, 0, 60, 61
4, 5740, Note_on_c, 0, 63, 48
4, 5740, Note_on_c, 0, 58, 38
4, 5741, Control_c, 0, 64, 0
4, 5771, Control_c, 0, 64, 127
4, 5829, Note_on_c, 0, 60, 0
4, 5830, Note_on_c, 0, 67, 0
4, 5833, Note_on_c, 0, 63, 0
4, 5847, Note_on_c, 0, 70, 0
4, 5848, Note_on_c, 0, 58, 0
4, 5863, Note_on_c, 0, 68, 50
4, 5865, Note_on_c, 0, 60, 45
4, 5865, Note_on_c, 0, 63, 37
4, 5866, Note_on_c, 0, 58, 29
4, 5898, Note_on_c, 0, 68, 0
4, 5900, Note_on_c, 0, 58, 0
4, 5901, Note_on_c, 0, 63, 0
4, 5903, Note_on_c, 0, 60, 0
4, 5930, Note_on_c, 0, 67, 82
4, 5930, Note_on_c, 0, 56, 81
4, 5931, Note_on_c, 0, 55, 87
4, 5931, Note_on_c, 0, 63, 59
4, 5931, Note_on_c, 0, 60, 78
4, 5936, Control_c, 0, 64, 0
4, 5963, Control_c, 0, 64, 127
4, 5974, Note_on_c, 0, 60, 0
4, 5974, Note_on_c, 0, 56, 0
4, 5977, Note_on_c, 0, 67, 0
4, 5977, Note_on_c, 0, 63, 0
4, 5984, Note_on_c, 0, 56, 71
4, 5986, Note_on_c, 0, 60, 64
4, 5986, Note_on_c, 0, 63, 53
4, 5986, Note_on_c, 0, 53, 65
4, 5986, Note_on_c, 0, 65, 63
4, 5987, Control_c, 0, 64, 0
4, 5988, Note_on_c, 0, 55, 0
4, 6033, Control_c, 0, 64, 127
4, 6072, Note_on_c, 0, 60, 0
4, 6087, Note_on_c, 0, 63, 0
4, 6087, Note_on_c, 0, 56, 0
4, 6105, Note_on_c, 0, 65, 0
4, 6105, Note_on_c, 0, 56, 30
4, 6107, Note_on_c, 0, 60, 47
4, 6145, Note_on_c, 0, 53, 0
4, 6173, Note_on_c, 0, 56, 0
4, 6179, Note_on_c, 0, 60, 0
4, 6241, Note_on_c, 0, 56, 42
4, 6241, Note_on_c, 0, 64, 67
4, 6241, Control_c, 0, 64, 0
4, 6242, Note_on_c, 0, 67, 57
4, 6242, Note_on_c, 0, 60, 60
4, 6242, Note_on_c, 0, 55, 55
4, 6245, Note_on_c, 0, 53, 45
4, 6246, Note_on_c, 0, 50, 38
4, 6279, Control_c, 0, 64, 127
4, 6321, Note_on_c, 0, 53, 0
4, 6321, Note_on_c, 0, 64, 0
4, 6324, Note_on_c, 0, 56, 0
4, 6325, Note_on_c, 0, 60, 0
4, 6331, Note_on_c, 0, 55, 0
4, 6364, Note_on_c, 0, 67, 0
4, 6365, Note_on_c, 0, 56, 36
4, 6367, Note_on_c, 0, 64, 41
4, 6367, Note_on_c, 0, 60, 31
4, 6369, Note_on_c, 0, 55, 35
4, 6373, Note_on_c, 0, 53, 25
4, 6416, Note_on_c, 0, 55, 0
4, 6416, Note_on_c, 0, 60, 0
4, 6431, Note_on_c, 0, 50, 0
4, 6434, Note_on_c, 0, 64, 0
4, 6441, Note_on_c, 0, 56, 0
4, 6476, Note_on_c, 0, 53, 0
4, 6487, Control_c, 0, 64, 0
4, 6488, Note_on_c, 0, 64, 57
4, 6488, Note_on_c, 0, 68, 48
4, 6489, Note_on_c, 0, 59, 50
4, 6490, Note_on_c, 0, 49, 44
4, 6517, Control_c, 0, 64, 127
4, 6556, Note_on_c, 0, 59, 0
4, 6565, Note_on_c, 0, 64, 0
4, 6571, Note_on_c, 0, 68, 0
4, 6581, Note_on_c, 0, 49, 0
4, 6650, Control_c, 0, 64, 0
4, 6650, Note_on_c, 0, 72, 79
4, 6651, Note_on_c, 0, 48, 74
4, 6651, Note_on_c, 0, 68, 78
4, 6651, Note_on_c, 0, 56, 74
4, 6651, Note_on_c, 0, 63, 82
4, 6664, Control_c, 0, 64, 127
4, 6669, Note_on_c, 0, 72, 0
4, 6684, Note_on_c, 0, 68, 0
4, 6687, Note_on_c, 0, 73, 72
4, 6691, Note_on_c, 0, 48, 0
4, 6701, Note_on_c, 0, 56, 0
4, 6706, Note_on_c, 0, 63, 0
4, 6710, Note_on_c, 0, 73, 0
4, 6719, Note_on_c, 0, 74, 75
4, 6719, Note_on_c, 0, 66, 73
4, 6719, Note_on_c, 0, 62, 75
4, 6721, Note_on_c, 0, 57, 71
4, 6722, Control_c, 0, 64, 0
4, 6722, Note_on_c, 0, 47, 64
4, 6722, Note_on_c, 0, 72, 33
4, 6726, Note_on_c, 0, 72, 0
4, 6749, Control_c, 0, 64, 127
4, 6769, Note_on_c, 0, 74, 0
4, 6777, Note_on_c, 0, 74, 64
4, 6788, Note_on_c, 0, 57, 0
4, 6803, Note_on_c, 0, 74, 0
4, 6811, Note_on_c, 0, 47, 0
4, 6815, Note_on_c, 0, 62, 0
4, 6818, Note_on_c, 0, 74, 74
4, 6834, Note_on_c, 0, 74, 0
4, 6837, Note_on_c, 0, 66, 0
4, 6846, Note_on_c, 0, 74, 48
4, 6865, Note_on_c, 0, 74, 0
4, 6892, Note_on_c, 0, 74, 57
4, 6908, Note_on_c, 0, 74, 0
4, 6929, Note_on_c, 0, 74, 52
4, 6944, Note_on_c, 0, 74, 0
4, 6964, Note_on_c, 0, 74, 55
4, 6965, Control_c, 0, 64, 0
4, 6965, Note_on_c, 0, 67, 40
4, 6966, Note_on_c, 0, 56, 33
4, 6967, Note_on_c, 0, 62, 35
4, 6993, Control_c, 0, 64, 127
4, 6994, Note_on_c, 0, 76, 44
4, 6995, Note_on_c, 0, 74, 0
4, 7032, Note_on_c, 0, 62, 0
4, 7035, Note_on_c, 0, 67, 0
4, 7048, Note_on_c, 0, 76, 0
4, 7079, Note_on_c, 0, 76, 39
4, 7081, Note_on_c, 0, 67, 27
4, 7081, Note_on_c, 0, 62, 25
4, 7124, Note_on_c, 0, 67, 0
4, 7126, Note_on_c, 0, 62, 0
4, 7148, Note_on_c, 0, 76, 0
4, 7151, Note_on_c, 0, 56, 0
4, 7239, Note_on_c, 0, 87, 83
4, 7241, Note_on_c, 0, 56, 53
4, 7242, Note_on_c, 0, 84, 68
4, 7242, Note_on_c, 0, 61, 59
4, 7243, Note_on_c, 0, 60, 68
4, 7243, Control_c, 0, 64, 0
4, 7243, Note_on_c, 0, 65, 74
4, 7244, Note_on_c, 0, 80, 72
4, 7245, Note_on_c, 0, 75, 71
4, 7256, Control_c, 0, 64, 127
4, 7266, Note_on_c, 0, 75, 0
4, 7266, Note_on_c, 0, 87, 0
4, 7268, Note_on_c, 0, 65, 0
4, 7268, Note_on_c, 0, 84, 0
4, 7268, Note_on_c, 0, 60, 0
4, 7268, Note_on_c, 0, 80, 0
4, 7271, Note_on_c, 0, 61, 0
4, 7272, Note_on_c, 0, 56, 0
4, 7281, Note_on_c, 0, 87, 77
4, 7283, Control_c, 0, 64, 0
4, 7284, Note_on_c, 0, 84, 77
4, 7286, Note_on_c, 0, 56, 71
4, 7286, Note_on_c, 0, 65, 82
4, 7286, Note_on_c, 0, 61, 57
4, 7286, Note_on_c, 0, 80, 71
4, 7287, Note_on_c, 0, 75, 74
4, 7288, Note_on_c, 0, 60, 71
4, 7300, Control_c, 0, 64, 127
4, 7307, Note_on_c, 0, 75, 0
4, 7308, Note_on_c, 0, 87, 0
4, 7309, Note_on_c, 0, 84, 0
4, 7309, Note_on_c, 0, 80, 0
4, 7310, Note_on_c, 0, 65, 0
4, 7311, Note_on_c, 0, 60, 0
4, 7311, Note_on_c, 0, 56, 0
4, 7312, Note_on_c, 0, 61, 0
4, 7322, Control_c, 0, 64, 0
4, 7322, Note_on_c, 0, 87, 64
4, 7325, Note_on_c, 0, 84, 69
4, 7326, Note_on_c, 0, 80, 64
4, 7327, Note_on_c, 0, 65, 74
4, 7327, Note_on_c, 0, 75, 65
4, 7327, Note_on_c, 0, 56, 48
4, 7327, Note_on_c, 0, 61, 42
4, 7328, Note_on_c, 0, 60, 65
4, 7342, Note_on_c, 0, 75, 0
4, 7343, Control_c, 0, 64, 127
4, 7344, Note_on_c, 0, 80, 0
4, 7345, Note_on_c, 0, 65, 0
4, 7345, Note_on_c, 0, 61, 0
4, 7346, Note_on_c, 0, 87, 0
4, 7346, Note_on_c, 0, 60, 0
4, 7346, Note_on_c, 0, 84, 0
4, 7350, Note_on_c, 0, 56, 0
4, 7362, Control_c, 0, 64, 0
4, 7363, Note_on_c, 0, 87, 55
4, 7365, Note_on_c, 0, 84, 53
4, 7366, Note_on_c, 0, 65, 58
4, 7366, Note_on_c, 0, 56, 35
4, 7367, Note_on_c, 0, 80, 56
4, 7367, Note_on_c, 0, 61, 40
4, 7367, Note_on_c, 0, 60, 40
4, 7367, Note_on_c, 0, 75, 49
4, 7385, Control_c, 0, 64, 127
4, 7410, Note_on_c, 0, 84, 0
4, 7411, Note_on_c, 0, 65, 0
4, 7412, Note_on_c, 0, 60, 0
4, 7413, Note_on_c, 0, 75, 0
4, 7413, Note_on_c, 0, 80, 0
4, 7414, Note_on_c, 0, 61, 0
4, 7419, Note_on_c, 0, 87, 0
4, 7435, Note_on_c, 0, 56, 0
4, 7552, Note_on_c, 0, 55, 54
4, 7553, Note_on_c, 0, 66, 42
4, 7553, Note_on_c, 0, 61, 43
4, 7554, Control_c, 0, 64, 0
4, 7568, Control_c, 0, 64, 127
4, 7606, Note_on_c, 0, 55, 0
4, 7614, Note_on_c, 0, 61, 0
4, 7616, Note_on_c, 0, 66, 0
4, 7680, Note_on_c, 0, 79, 80
4, 7681, Note_on_c, 0, 74, 75
4, 7682, Note_on_c, 0, 71, 84
4, 7682, Note_on_c, 0, 68, 83
4, 7683, Control_c, 0, 64, 0
4, 7683, Note_on_c, 0, 67, 91
4, 7700, Control_c, 0, 64, 127
4, 7743, Note_on_c, 0, 67, 0
4, 7818, Note_on_c, 0, 67, 44
4, 7819, Note_on_c, 0, 62, 31
4, 7819, Note_on_c, 0, 56, 30
4, 7821, Control_c, 0, 64, 0
4, 7848, Control_c, 0, 64, 127
4, 7871, Note_on_c, 0, 71, 0
4, 7877, Note_on_c, 0, 68, 0
4, 7883, Note_on_c, 0, 74, 0
4, 7897, Note_on_c, 0, 62, 0
4, 7912, Note_on_c, 0, 79, 0
4, 7929, Note_on_c, 0, 67, 0
4, 7938, Note_on_c, 0, 56, 0
4, 7970, Control_c, 0, 64, 0
4, 7975, Note_on_c, 0, 67, 49
4, 7977, Note_on_c, 0, 62, 34
4, 7979, Note_on_c, 0, 56, 21
4, 7980, Note_on_c, 0, 60, 31
4, 7983, Note_on_c, 0, 60, 0
4, 7984, Note_on_c, 0, 67, 0
4, 7984, Note_on_c, 0, 62, 0
4, 7988, Note_on_c, 0, 56, 0
4, 8039, Note_on_c, 0, 67, 36
4, 8040, Note_on_c, 0, 62, 32
4, 8042, Note_on_c, 0, 56, 26
4, 8044, Note_on_c, 0, 60, 29
4, 8052, Control_c, 0, 64, 127
4, 8096, Note_on_c, 0, 67, 0
4, 8098, Note_on_c, 0, 62, 0
4, 8102, Note_on_c, 0, 60, 0
4, 8112, Note_on_c, 0, 56, 0
4, 8142, Note_on_c, 0, 92, 84
4, 8164, Note_on_c, 0, 92, 0
4, 8164, Control_c, 0, 64, 0
4, 8167, Note_on_c, 0, 63, 30
4, 8168, Note_on_c, 0, 60, 44
4, 8169, Note_on_c, 0, 53, 38
4, 8170, Note_on_c, 0, 58, 31
4, 8170, Note_on_c, 0, 89, 60
4, 8186, Note_on_c, 0, 89, 0
4, 8196, Note_on_c, 0, 87, 46
4, 8200, Note_on_c, 0, 87, 0
4, 8215, Note_on_c, 0, 89, 67
4, 8238, Control_c, 0, 64, 127
4, 8251, Note_on_c, 0, 84, 40
4, 8252, Note_on_c, 0, 89, 0
4, 8268, Note_on_c, 0, 84, 0
4, 8269, Control_c, 0, 64, 0
4, 8286, Note_on_c, 0, 87, 69
4, 8297, Note_on_c, 0, 87, 0
4, 8303, Note_on_c, 0, 79, 41
4, 8315, Note_on_c, 0, 79, 0
4, 8325, Note_on_c, 0, 84, 63
4, 8335, Note_on_c, 0, 84, 0
4, 8350, Note_on_c, 0, 82, 54
4, 8360, Note_on_c, 0, 82, 0
4, 8367, Note_on_c, 0, 72, 38
4, 8374, Note_on_c, 0, 72, 0
4, 8385, Note_on_c, 0, 79, 51
4, 8394, Note_on_c, 0, 79, 0
4, 8457, Note_on_c, 0, 60, 0
4, 8457, Note_on_c, 0, 58, 0
4, 8463, Note_on_c, 0, 63, 0
4, 8465, Control_c, 0, 64, 127
4, 8467, Note_on_c, 0, 53, 0
4, 8516, Note_on_c, 0, 63, 25
4, 8520, Note_on_c, 0, 58, 23
4, 8520, Note_on_c, 0, 60, 31
4, 8521, Note_on_c, 0, 53, 24
4, 8586, Note_on_c, 0, 63, 0
4, 8591, Note_on_c, 0, 60, 0
4, 8594, Note_on_c, 0, 67, 55
4, 8595, Note_on_c, 0, 53, 0
4, 8596, Note_on_c, 0, 58, 0
4, 8602, Note_on_c, 0, 68, 59
4, 8606, Note_on_c, 0, 67, 0
4, 8609, Control_c, 0, 64, 0
4, 8611, Note_on_c, 0, 69, 53
4, 8616, Note_on_c, 0, 69, 0
4, 8621, Note_on_c, 0, 70, 81
4, 8623, Note_on_c, 0, 68, 0
4, 8634, Note_on_c, 0, 70, 0
4, 8686, Note_on_c, 0, 67, 73
4, 8689, Note_on_c, 0, 56, 26
4, 8690, Note_on_c, 0, 50, 19
4, 8690, Note_on_c, 0, 60, 24
4, 8694, Note_on_c, 0, 67, 0
4, 8696, Note_on_c, 0, 60, 0
4, 8696, Note_on_c, 0, 50, 0
4, 8700, Note_on_c, 0, 56, 0
4, 8731, Note_on_c, 0, 67, 74
4, 8732, Note_on_c, 0, 56, 36
4, 8733, Note_on_c, 0, 60, 40
4, 8739, Note_on_c, 0, 60, 0
4, 8741, Note_on_c, 0, 67, 0
4, 8743, Note_on_c, 0, 56, 0
4, 8743, Note_on_c, 0, 66, 36
4, 8755, Note_on_c, 0, 66, 0
4, 8761, Note_on_c, 0, 67, 62
4, 8764, Note_on_c, 0, 60, 44
4, 8765, Note_on_c, 0, 56, 29
4, 8766, Note_on_c, 0, 50, 24
4, 8771, Note_on_c, 0, 50, 0
4, 8771, Note_on_c, 0, 60, 0
4, 8772, Note_on_c, 0, 67, 0
4, 8774, Note_on_c, 0, 56, 0
4, 8795, Note_on_c, 0, 67, 71
4, 8798, Note_on_c, 0, 60, 38
4, 8798, Note_on_c, 0, 56, 27
4, 8800, Note_on_c, 0, 50, 22
4, 8803, Note_on_c, 0, 60, 0
4, 8804, Note_on_c, 0, 50, 0
4, 8806, Note_on_c, 0, 67, 0
4, 8807, Note_on_c, 0, 66, 46
4, 8809, Note_on_c, 0, 56, 0
4, 8816, Note_on_c, 0, 66, 0
4, 8823, Note_on_c, 0, 67, 71
4, 8823, Note_on_c, 0, 60, 50
4, 8824, Note_on_c, 0, 56, 33
4, 8826, Note_on_c, 0, 50, 24
4, 8830, Note_on_c, 0, 50, 0
4, 8832, Note_on_c, 0, 67, 0
4, 8832, Note_on_c, 0, 60, 0
4, 8835, Note_on_c, 0, 56, 0
4, 8850, Note_on_c, 0, 67, 75
4, 8853, Note_on_c, 0, 60, 38
4, 8853, Note_on_c, 0, 56, 31
4, 8854, Note_on_c, 0, 50, 29
4, 8859, Note_on_c, 0, 60, 0
4, 8859, Note_on_c, 0, 67, 0
4, 8860, Note_on_c, 0, 50, 0
4, 8862, Note_on_c, 0, 66, 47
4, 8872, Note_on_c, 0, 66, 0
4, 8873, Note_on_c, 0, 56, 0
4, 8878, Note_on_c, 0, 53, 45
4, 8879, Note_on_c, 0, 59, 47
4, 8880, Note_on_c, 0, 67, 66
4, 8884, Note_on_c, 0, 49, 34
4, 8891, Note_on_c, 0, 67, 0
4, 8891, Note_on_c, 0, 53, 0
4, 8892, Note_on_c, 0, 59, 0
4, 8893, Note_on_c, 0, 49, 0
4, 8911, Note_on_c, 0, 67, 68
4, 8913, Note_on_c, 0, 58, 44
4, 8913, Note_on_c, 0, 59, 38
4, 8915, Note_on_c, 0, 63, 35
4, 8915, Note_on_c, 0, 53, 33
4, 8916, Note_on_c, 0, 49, 19
4, 8921, Note_on_c, 0, 58, 0
4, 8923, Note_on_c, 0, 67, 0
4, 8924, Note_on_c, 0, 63, 0
4, 8927, Note_on_c, 0, 59, 0
4, 8929, Note_on_c, 0, 67, 41
4, 8930, Note_on_c, 0, 53, 0
4, 8931, Note_on_c, 0, 49, 0
4, 8940, Note_on_c, 0, 67, 0
4, 9006, Control_c, 0, 64, 127
4, 9035, Control_c, 0, 64, 0
4, 9036, Note_on_c, 0, 67, 80
4, 9037, Note_on_c, 0, 58, 84
4, 9038, Note_on_c, 0, 63, 74
4, 9038, Note_on_c, 0, 49, 55
4, 9038, Note_on_c, 0, 59, 63
4, 9038, Note_on_c, 0, 53, 63
4, 9052, Control_c, 0, 64, 127
4, 9053, Note_on_c, 0, 59, 0
4, 9053, Note_on_c, 0, 58, 0
4, 9055, Note_on_c, 0, 63, 0
4, 9055, Note_on_c, 0, 53, 0
4, 9056, Note_on_c, 0, 49, 0
4, 9059, Note_on_c, 0, 67, 0
4, 9065, Control_c, 0, 64, 0
4, 9069, Note_on_c, 0, 67, 72
4, 9070, Note_on_c, 0, 58, 76
4, 9070, Note_on_c, 0, 49, 60
4, 9070, Note_on_c, 0, 63, 69
4, 9071, Note_on_c, 0, 59, 68
4, 9072, Note_on_c, 0, 53, 62
4, 9076, Control_c, 0, 64, 127
4, 9081, Note_on_c, 0, 59, 0
4, 9086, Note_on_c, 0, 58, 0
4, 9086, Note_on_c, 0, 67, 0
4, 9087, Note_on_c, 0, 53, 0
4, 9088, Note_on_c, 0, 59, 28
4, 9089, Note_on_c, 0, 68, 68
4, 9092, Note_on_c, 0, 67, 30
4, 9098, Note_on_c, 0, 63, 0
4, 9099, Note_on_c, 0, 59, 0
4, 9100, Note_on_c, 0, 67, 0
4, 9105, Note_on_c, 0, 68, 0
4, 9105, Note_on_c, 0, 49, 0
4, 9114, Note_on_c, 0, 58, 83
4, 9114, Note_on_c, 0, 63, 73
4, 9115, Control_c, 0, 64, 0
4, 9115, Note_on_c, 0, 48, 79
4, 9115, Note_on_c, 0, 65, 80
4, 9132, Control_c, 0, 64, 127
4, 9141, Note_on_c, 0, 58, 0
4, 9147, Note_on_c, 0, 65, 0
4, 9148, Note_on_c, 0, 63, 0
4, 9160, Note_on_c, 0, 58, 67
4, 9161, Note_on_c, 0, 48, 0
4, 9164, Note_on_c, 0, 77, 82
4, 9171, Note_on_c, 0, 58, 0
4, 9198, Note_on_c, 0, 77, 0
4, 9220, Note_on_c, 0, 77, 44
4, 9223, Note_on_c, 0, 70, 59
4, 9226, Note_on_c, 0, 67, 50
4, 9226, Note_on_c, 0, 63, 37
4, 9287, Note_on_c, 0, 77, 0
4, 9289, Note_on_c, 0, 63, 0
4, 9309, Note_on_c, 0, 67, 0
4, 9312, Note_on_c, 0, 77, 59
4, 9316, Note_on_c, 0, 70, 0
4, 9328, Note_on_c, 0, 77, 0
4, 9328, Note_on_c, 0, 75, 60
4, 9339, Note_on_c, 0, 75, 0
4, 9346, Control_c, 0, 64, 0
4, 9346, Note_on_c, 0, 77, 50
4, 9346, Note_on_c, 0, 63, 27
4, 9348, Note_on_c, 0, 60, 31
4, 9348, Note_on_c, 0, 72, 54
4, 9349, Note_on_c, 0, 68, 28
4, 9350, Note_on_c, 0, 53, 20
4, 9350, Note_on_c, 0, 56, 29
4, 9369, Control_c, 0, 64, 127
4, 9379, Note_on_c, 0, 63, 0
4, 9400, Note_on_c, 0, 72, 0
4, 9402, Note_on_c, 0, 68, 0
4, 9427, Note_on_c, 0, 77, 0
4, 9448, Note_on_c, 0, 60, 0
4, 9457, Note_on_c, 0, 56, 0
4, 9478, Note_on_c, 0, 63, 25
4, 9479, Note_on_c, 0, 68, 35
4, 9479, Note_on_c, 0, 72, 39
4, 9480, Note_on_c, 0, 65, 34
4, 9482, Note_on_c, 0, 60, 24
4, 9483, Note_on_c, 0, 56, 10
4, 9502, Note_on_c, 0, 65, 0
4, 9507, Note_on_c, 0, 72, 0
4, 9509, Note_on_c, 0, 68, 0
4, 9519, Note_on_c, 0, 60, 0
4, 9525, Note_on_c, 0, 63, 0
4, 9531, Note_on_c, 0, 53, 0
4, 9537, Note_on_c, 0, 56, 0
4, 9574, Control_c, 0, 64, 0
4, 9576, Note_on_c, 0, 54, 77
4, 9576, Note_on_c, 0, 65, 90
4, 9576, Note_on_c, 0, 61, 71
4, 9577, Note_on_c, 0, 58, 74
4, 9577, Note_on_c, 0, 88, 94
4, 9577, Note_on_c, 0, 82, 91
4, 9577, Note_on_c, 0, 76, 90
4, 9579, Note_on_c, 0, 85, 62
4, 9595, Note_on_c, 0, 88, 0
4, 9595, Control_c, 0, 64, 127
4, 9596, Note_on_c, 0, 54, 0
4, 9597, Note_on_c, 0, 76, 0
4, 9598, Note_on_c, 0, 85, 0
4, 9599, Note_on_c, 0, 65, 0
4, 9600, Note_on_c, 0, 61, 0
4, 9600, Note_on_c, 0, 82, 0
4, 9601, Note_on_c, 0, 58, 0
4, 9603, Control_c, 0, 64, 0
4, 9610, Note_on_c, 0, 75, 82
4, 9611, Note_on_c, 0, 87, 75
4, 9611, Note_on_c, 0, 65, 82
4, 9611, Note_on_c, 0, 82, 75
4, 9611, Note_on_c, 0, 61, 65
4, 9612, Note_on_c, 0, 58, 69
4, 9612, Note_on_c, 0, 54, 69
4, 9613, Note_on_c, 0, 85, 45
4, 9614, Note_on_c, 0, 82, 0
4, 9615, Note_on_c, 0, 75, 0
4, 9616, Note_on_c, 0, 85, 0
4, 9617, Note_on_c, 0, 87, 0
4, 9617, Note_on_c, 0, 65, 0
4, 9619, Note_on_c, 0, 54, 0
4, 9619, Note_on_c, 0, 61, 0
4, 9620, Note_on_c, 0, 58, 0
4, 9652, Note_on_c, 0, 75, 69
4, 9653, Note_on_c, 0, 87, 62
4, 9653, Note_on_c, 0, 65, 72
4, 9654, Note_on_c, 0, 82, 56
4, 9654, Note_on_c, 0, 58, 52
4, 9654, Note_on_c, 0, 61, 47
4, 9654, Note_on_c, 0, 54, 50
4, 9657, Note_on_c, 0, 82, 0
4, 9658, Note_on_c, 0, 87, 0
4, 9658, Note_on_c, 0, 75, 0
4, 9660, Note_on_c, 0, 65, 0
4, 9661, Note_on_c, 0, 54, 0
4, 9661, Note_on_c, 0, 61, 0
4, 9663, Note_on_c, 0, 58, 0
4, 9698, Note_on_c, 0, 58, 47
4, 9699, Note_on_c, 0, 65, 58
4, 9699, Note_on_c, 0, 87, 67
4, 9699, Note_on_c, 0, 54, 38
4, 9699, Note_on_c, 0, 61, 36
4, 9700, Note_on_c, 0, 75, 64
4, 9701, Note_on_c, 0, 82, 52
4, 9704, Note_on_c, 0, 65, 0
4, 9706, Note_on_c, 0, 75, 0
4, 9706, Note_on_c, 0, 87, 0
4, 9706, Note_on_c, 0, 82, 0
4, 9707, Note_on_c, 0, 61, 0
4, 9707, Note_on_c, 0, 54, 0
4, 9709, Note_on_c, 0, 58, 0
4, 9720, Note_on_c, 0, 73, 35
4, 9720, Note_on_c, 0, 61, 29
4, 9720, Note_on_c, 0, 58, 30
4, 9720, Note_on_c, 0, 65, 29
4, 9721, Note_on_c, 0, 85, 33
4, 9724, Note_on_c, 0, 65, 0
4, 9724, Note_on_c, 0, 61, 0
4, 9725, Note_on_c, 0, 73, 0
4, 9725, Note_on_c, 0, 58, 0
4, 9726, Note_on_c, 0, 85, 0
4, 9738, Note_on_c, 0, 87, 58
4, 9738, Note_on_c, 0, 54, 36
4, 9739, Note_on_c, 0, 65, 48
4, 9739, Note_on_c, 0, 58, 37
4, 9739, Note_on_c, 0, 75, 39
4, 9739, Note_on_c, 0, 61, 44
4, 9741, Note_on_c, 0, 82, 48
4, 9748, Control_c, 0, 64, 127
4, 9777, Note_on_c, 0, 82, 0
4, 9801, Note_on_c, 0, 54, 0
4, 9801, Note_on_c, 0, 75, 0
4, 9802, Note_on_c, 0, 87, 0
4, 9802, Note_on_c, 0, 65, 0
4, 9803, Note_on_c, 0, 58, 0
4, 9807, Note_on_c, 0, 61, 0
4, 9826, Note_on_c, 0, 61, 23
4, 9826, Note_on_c, 0, 85, 25
4, 9827, Note_on_c, 0, 58, 33
4, 9828, Note_on_c, 0, 80, 25
4, 9831, Note_on_c, 0, 85, 0
4, 9832, Note_on_c, 0, 80, 0
4, 9835, Note_on_c, 0, 61, 0
4, 9844, Note_on_c, 0, 58, 0
4, 9853, Control_c, 0, 64, 0
4, 9853, Note_on_c, 0, 89, 69
4, 9853, Note_on_c, 0, 65, 75
4, 9854, Note_on_c, 0, 77, 57
4, 9854, Note_on_c, 0, 84, 58
4, 9854, Note_on_c, 0, 60, 65
4, 9854, Note_on_c, 0, 54, 59
4, 9871, Control_c, 0, 64, 127
4, 9973, Note_on_c, 0, 65, 0
4, 9977, Note_on_c, 0, 54, 0
4, 9979, Note_on_c, 0, 84, 0
4, 9979, Note_on_c, 0, 89, 0
4, 9992, Note_on_c, 0, 60, 0
4, 9997, Note_on_c, 0, 77, 0
4, 10078, Note_on_c, 0, 68, 46
4, 10080, Control_c, 0, 64, 0
4, 10080, Note_on_c, 0, 64, 46
4, 10080, Note_on_c, 0, 63, 34
4, 10080, Note_on_c, 0, 73, 49
4, 10081, Note_on_c, 0, 59, 38
4, 10107, Control_c, 0, 64, 127
4, 10155, Note_on_c, 0, 68, 0
4, 10156, Note_on_c, 0, 75, 51
4, 10157, Note_on_c, 0, 73, 0
4, 10157, Control_c, 0, 64, 0
4, 10163, Note_on_c, 0, 64, 0
4, 10166, Note_on_c, 0, 63, 0
4, 10167, Note_on_c, 0, 73, 30
4, 10170, Note_on_c, 0, 75, 0
4, 10175, Note_on_c, 0, 72, 62
4, 10176, Note_on_c, 0, 73, 0
4, 10181, Note_on_c, 0, 72, 0
4, 10191, Note_on_c, 0, 73, 56
4, 10198, Note_on_c, 0, 73, 0
4, 10216, Note_on_c, 0, 59, 0
4, 10221, Note_on_c, 0, 75, 62
4, 10230, Note_on_c, 0, 75, 0
4, 10231, Note_on_c, 0, 73, 32
4, 10241, Note_on_c, 0, 73, 0
4, 10243, Note_on_c, 0, 72, 54
4, 10248, Note_on_c, 0, 72, 0
4, 10254, Note_on_c, 0, 73, 53
4, 10263, Note_on_c, 0, 73, 0
4, 10274, Note_on_c, 0, 75, 65
4, 10285, Note_on_c, 0, 75, 0
4, 10285, Note_on_c, 0, 73, 32
4, 10295, Note_on_c, 0, 73, 0
4, 10298, Note_on_c, 0, 72, 40
4, 10302, Note_on_c, 0, 72, 0
4, 10307, Note_on_c, 0, 73, 34
4, 10316, Note_on_c, 0, 75, 55
4, 10317, Note_on_c, 0, 73, 0
4, 10322, Note_on_c, 0, 63, 21
4, 10323, Note_on_c, 0, 52, 41
4, 10324, Note_on_c, 0, 58, 32
4, 10330, Note_on_c, 0, 75, 0
4, 10331, Note_on_c, 0, 73, 31
4, 10381, Control_c, 0, 64, 127
4, 10405, Note_on_c, 0, 63, 0
4, 10410, Note_on_c, 0, 52, 0
4, 10431, Note_on_c, 0, 58, 0
4, 10455, Note_on_c, 0, 63, 36
4, 10456, Note_on_c, 0, 58, 36
4, 10459, Note_on_c, 0, 52, 33
4, 10491, Note_on_c, 0, 63, 0
4, 10497, Note_on_c, 0, 52, 0
4, 10504, Note_on_c, 0, 58, 0
4, 10507, Note_on_c, 0, 73, 0
4, 10544, Note_on_c, 0, 75, 90
4, 10562, Note_on_c, 0, 75, 0
4, 10573, Note_on_c, 0, 75, 83
4, 10576, Note_on_c, 0, 70, 73
4, 10577, Note_on_c, 0, 72, 71
4, 10578, Note_on_c, 0, 63, 67
4, 10578, Note_on_c, 0, 58, 63
4, 10579, Note_on_c, 0, 54, 46
4, 10579, Note_on_c, 0, 48, 48
4, 10579, Control_c, 0, 64, 0
4, 10600, Control_c, 0, 64, 127
4, 10607, Note_on_c, 0, 75, 0
4, 10621, Note_on_c, 0, 72, 0
4, 10623, Note_on_c, 0, 75, 83
4, 10624, Note_on_c, 0, 58, 0
4, 10624, Note_on_c, 0, 72, 35
4, 10633, Note_on_c, 0, 63, 0
4, 10641, Note_on_c, 0, 75, 0
4, 10642, Note_on_c, 0, 72, 0
4, 10643, Note_on_c, 0, 70, 0
4, 10653, Note_on_c, 0, 75, 83
4, 10668, Note_on_c, 0, 75, 0
4, 10677, Note_on_c, 0, 75, 69
4, 10691, Note_on_c, 0, 75, 0
4, 10700, Note_on_c, 0, 75, 71
4, 10703, Note_on_c, 0, 72, 58
4, 10703, Note_on_c, 0, 70, 59
4, 10703, Note_on_c, 0, 58, 45
4, 10705, Note_on_c, 0, 63, 53
4, 10705, Control_c, 0, 64, 0
4, 10719, Control_c, 0, 64, 127
4, 10724, Note_on_c, 0, 75, 0
4, 10734, Note_on_c, 0, 72, 0
4, 10736, Note_on_c, 0, 63, 0
4, 10738, Note_on_c, 0, 75, 77
4, 10745, Note_on_c, 0, 48, 0
4, 10751, Note_on_c, 0, 70, 0
4, 10752, Note_on_c, 0, 58, 0
4, 10754, Note_on_c, 0, 54, 0
4, 10755, Note_on_c, 0, 75, 0
4, 10770, Note_on_c, 0, 75, 62
4, 10780, Note_on_c, 0, 75, 0
4, 10790, Note_on_c, 0, 75, 54
4, 10802, Note_on_c, 0, 75, 0
4, 10813, Note_on_c, 0, 75, 56
4, 10816, Control_c, 0, 64, 0
4, 10816, Note_on_c, 0, 66, 47
4, 10816, Note_on_c, 0, 63, 40
4, 10816, Note_on_c, 0, 72, 52
4, 10817, Note_on_c, 0, 69, 53
4, 10836, Control_c, 0, 64, 127
4, 10846, Note_on_c, 0, 69, 0
4, 10848, Note_on_c, 0, 72, 0
4, 10849, Note_on_c, 0, 66, 0
4, 10854, Note_on_c, 0, 75, 0
4, 10856, Note_on_c, 0, 63, 0
4, 10901, Note_on_c, 0, 78, 77
4, 10902, Note_on_c, 0, 75, 74
4, 10902, Note_on_c, 0, 69, 80
4, 10902, Note_on_c, 0, 66, 71
4, 10905, Control_c, 0, 64, 0
4, 10906, Note_on_c, 0, 69, 0
4, 10911, Note_on_c, 0, 75, 0
4, 10914, Note_on_c, 0, 78, 0
4, 10914, Control_c, 0, 64, 127
4, 10939, Control_c, 0, 64, 0
4, 10939, Note_on_c, 0, 78, 71
4, 10939, Note_on_c, 0, 84, 76
4, 10940, Note_on_c, 0, 66, 0
4, 10940, Note_on_c, 0, 75, 77
4, 10940, Note_on_c, 0, 81, 68
4, 10940, Note_on_c, 0, 69, 74
4, 10953, Control_c, 0, 64, 127
4, 10955, Note_on_c, 0, 81, 0
4, 10957, Note_on_c, 0, 84, 0
4, 10957, Note_on_c, 0, 78, 0
4, 10960, Note_on_c, 0, 75, 0
4, 10975, Note_on_c, 0, 69, 0
4, 10981, Note_on_c, 0, 87, 87
4, 10981, Note_on_c, 0, 78, 73
4, 10983, Note_on_c, 0, 72, 67
4, 10983, Note_on_c, 0, 81, 70
4, 10986, Control_c, 0, 64, 0
4, 10991, Control_c, 0, 64, 127
4, 10995, Note_on_c, 0, 72, 0
4, 11013, Note_on_c, 0, 87, 0
4, 11016, Note_on_c, 0, 81, 0
4, 11019, Note_on_c, 0, 78, 0
4, 11024, Note_on_c, 0, 85, 76
4, 11040, Note_on_c, 0, 85, 0
4, 11043, Note_on_c, 0, 84, 42
4, 11054, Note_on_c, 0, 84, 0
4, 11061, Control_c, 0, 64, 0
4, 11062, Note_on_c, 0, 85, 77
4, 11070, Note_on_c, 0, 85, 0
4, 11103, Control_c, 0, 64, 127
4, 11116, Control_c, 0, 64, 0
4, 11134, Note_on_c, 0, 73, 44
4, 11135, Note_on_c, 0, 68, 51
4, 11135, Note_on_c, 0, 64, 66
4, 11136, Note_on_c, 0, 61, 39
4, 11138, Note_on_c, 0, 57, 40
4, 11140, Note_on_c, 0, 61, 0
4, 11142, Note_on_c, 0, 64, 0
4, 11143, Note_on_c, 0, 57, 0
4, 11146, Note_on_c, 0, 68, 0
4, 11146, Note_on_c, 0, 73, 0
4, 11168, Note_on_c, 0, 73, 42
4, 11168, Note_on_c, 0, 61, 51
4, 11169, Note_on_c, 0, 68, 47
4, 11169, Note_on_c, 0, 64, 68
4, 11170, Note_on_c, 0, 57, 47
4, 11182, Control_c, 0, 64, 127
4, 11209, Note_on_c, 0, 73, 0
4, 11218, Note_on_c, 0, 73, 47
4, 11224, Note_on_c, 0, 64, 0
4, 11239, Note_on_c, 0, 57, 0
4, 11239, Note_on_c, 0, 73, 0
4, 11241, Note_on_c, 0, 68, 0
4, 11241, Note_on_c, 0, 61, 0
4, 11248, Note_on_c, 0, 73, 39
4, 11265, Note_on_c, 0, 73, 0
4, 11278, Note_on_c, 0, 73, 36
4, 11279, Note_on_c, 0, 61, 37
4, 11280, Note_on_c, 0, 51, 43
4, 11280, Note_on_c, 0, 64, 58
4, 11281, Control_c, 0, 64, 0
4, 11281, Note_on_c, 0, 60, 44
4, 11281, Note_on_c, 0, 67, 44
4, 11306, Control_c, 0, 64, 127
4, 11368, Note_on_c, 0, 64, 0
4, 11369, Note_on_c, 0, 60, 0
4, 11373, Note_on_c, 0, 61, 0
4, 11383, Note_on_c, 0, 73, 0
4, 11392, Note_on_c, 0, 67, 0
4, 11399, Note_on_c, 0, 61, 36
4, 11401, Note_on_c, 0, 64, 40
4, 11406, Note_on_c, 0, 58, 20
4, 11427, Note_on_c, 0, 58, 0
4, 11435, Note_on_c, 0, 51, 0
4, 11444, Note_on_c, 0, 64, 0
4, 11461, Note_on_c, 0, 61, 0
4, 11535, Note_on_c, 0, 67, 85
4, 11535, Note_on_c, 0, 72, 84
4, 11535, Note_on_c, 0, 60, 90
4, 11536, Note_on_c, 0, 44, 74
4, 11536, Note_on_c, 0, 55, 82
4, 11539, Control_c, 0, 64, 0
4, 11557, Control_c, 0, 64, 127
4, 11584, Note_on_c, 0, 55, 0
4, 11599, Note_on_c, 0, 53, 74
4, 11624, Note_on_c, 0, 60, 0
4, 11624, Note_on_c, 0, 72, 0
4, 11627, Note_on_c, 0, 67, 0
4, 11634, Note_on_c, 0, 53, 0
4, 11634, Note_on_c, 0, 44, 0
4, 11658, Note_on_c, 0, 73, 60
4, 11658, Note_on_c, 0, 46, 69
4, 11659, Note_on_c, 0, 61, 79
4, 11659, Note_on_c, 0, 65, 87
4, 11660, Note_on_c, 0, 56, 77
4, 11662, Control_c, 0, 64, 0
4, 11685, Control_c, 0, 64, 127
4, 11706, Note_on_c, 0, 56, 0
4, 11715, Note_on_c, 0, 55, 74
4, 11719, Note_on_c, 0, 65, 0
4, 11734, Note_on_c, 0, 61, 0
4, 11740, Note_on_c, 0, 46, 0
4, 11741, Note_on_c, 0, 55, 0
4, 11742, Note_on_c, 0, 73, 0
4, 11774, Note_on_c, 0, 75, 76
4, 11775, Note_on_c, 0, 57, 77
4, 11775, Note_on_c, 0, 67, 81
4, 11775, Note_on_c, 0, 48, 71
4, 11775, Note_on_c, 0, 63, 73
4, 11777, Control_c, 0, 64, 0
4, 11800, Control_c, 0, 64, 127
4, 11808, Note_on_c, 0, 57, 0
4, 11835, Note_on_c, 0, 67, 0
4, 11841, Note_on_c, 0, 63, 0
4, 11841, Note_on_c, 0, 48, 0
4, 11848, Note_on_c, 0, 75, 0
4, 11881, Note_on_c, 0, 60, 76
4, 11882, Note_on_c, 0, 49, 59
4, 11883, Note_on_c, 0, 77, 64
4, 11883, Note_on_c, 0, 72, 74
4, 11884, Note_on_c, 0, 65, 74
4, 11885, Control_c, 0, 64, 0
4, 11908, Control_c, 0, 64, 127
4, 11922, Note_on_c, 0, 60, 0
4, 11938, Note_on_c, 0, 58, 64
4, 11950, Note_on_c, 0, 65, 0
4, 11954, Note_on_c, 0, 77, 0
4, 11962, Note_on_c, 0, 72, 0
4, 11977, Note_on_c, 0, 58, 0
4, 11978, Note_on_c, 0, 49, 0
4, 11998, Note_on_c, 0, 79, 71
4, 11999, Control_c, 0, 64, 0
4, 11999, Note_on_c, 0, 70, 78
4, 11999, Note_on_c, 0, 58, 69
4, 12000, Note_on_c, 0, 75, 68
4, 12000, Note_on_c, 0, 48, 63
4, 12018, Control_c, 0, 64, 127
4, 12045, Note_on_c, 0, 58, 0
4, 12055, Note_on_c, 0, 57, 61
4, 12068, Note_on_c, 0, 79, 0
4, 12072, Note_on_c, 0, 70, 0
4, 12075, Note_on_c, 0, 75, 0
4, 12088, Note_on_c, 0, 48, 0
4, 12091, Note_on_c, 0, 57, 0
4, 12112, Control_c, 0, 64, 0
4, 12112, Note_on_c, 0, 80, 57
4, 12113, Note_on_c, 0, 56, 64
4, 12114, Note_on_c, 0, 73, 49
4, 12114, Note_on_c, 0, 68, 60
4, 12114, Note_on_c, 0, 46, 65
4, 12115, Note_on_c, 0, 77, 50
4, 12134, Control_c, 0, 64, 127
4, 12158, Note_on_c, 0, 56, 0
4, 12170, Note_on_c, 0, 55, 76
4, 12173, Note_on_c, 0, 68, 0
4, 12178, Note_on_c, 0, 77, 0
4, 12179, Note_on_c, 0, 73, 0
4, 12187, Note_on_c, 0, 80, 0
4, 12200, Note_on_c, 0, 46, 0
4, 12209, Note_on_c, 0, 55, 0
4, 12229, Note_on_c, 0, 82, 85
4, 12230, Control_c, 0, 64, 0
4, 12230, Note_on_c, 0, 44, 78
4, 12230, Note_on_c, 0, 75, 87
4, 12231, Note_on_c, 0, 70, 90
4, 12231, Note_on_c, 0, 55, 82
4, 12249, Control_c, 0, 64, 127
4, 12265, Note_on_c, 0, 55, 0
4, 12288, Note_on_c, 0, 53, 68
4, 12314, Note_on_c, 0, 44, 0
4, 12316, Note_on_c, 0, 70, 0
4, 12316, Note_on_c, 0, 75, 0
4, 12330, Note_on_c, 0, 82, 0
4, 12341, Note_on_c, 0, 53, 0
4, 12350, Note_on_c, 0, 42, 88
4, 12352, Control_c, 0, 64, 0
4, 12353, Note_on_c, 0, 84, 74
4, 12371, Control_c, 0, 64, 127
4, 12409, Note_on_c, 0, 53, 45
4, 12410, Note_on_c, 0, 75, 51
4, 12411, Note_on_c, 0, 80, 44
4, 12414, Note_on_c, 0, 53, 0
4, 12427, Note_on_c, 0, 42, 0
4, 12432, Note_on_c, 0, 84, 0
4, 12442, Note_on_c, 0, 80, 0
4, 12445, Note_on_c, 0, 75, 0
4, 12457, Note_on_c, 0, 40, 29
4, 12462, Note_on_c, 0, 40, 0
4, 12474, Note_on_c, 0, 40, 74
4, 12475, Note_on_c, 0, 28, 71
4, 12475, Note_on_c, 0, 85, 83
4, 12475, Note_on_c, 0, 78, 74
4, 12476, Control_c, 0, 64, 0
4, 12476, Note_on_c, 0, 74, 75
4, 12476, Note_on_c, 0, 81, 74
4, 12494, Note_on_c, 0, 28, 0
4, 12494, Control_c, 0, 64, 127
4, 12500, Note_on_c, 0, 40, 0
4, 12502, Note_on_c, 0, 85, 0
4, 12502, Note_on_c, 0, 81, 0
4, 12506, Note_on_c, 0, 78, 0
4, 12509, Note_on_c, 0, 74, 0
4, 12542, Note_on_c, 0, 73, 47
4, 12543, Note_on_c, 0, 66, 56
4, 12544, Note_on_c, 0, 62, 54
4, 12544, Note_on_c, 0, 69, 60
4, 12544, Note_on_c, 0, 56, 39
4, 12557, Note_on_c, 0, 62, 0
4, 12567, Note_on_c, 0, 73, 0
4, 12568, Note_on_c, 0, 69, 0
4, 12576, Note_on_c, 0, 66, 0
4, 12601, Note_on_c, 0, 74, 70
4, 12601, Note_on_c, 0, 64, 54
4, 12602, Note_on_c, 0, 66, 62
4, 12602, Note_on_c, 0, 69, 58
4, 12605, Note_on_c, 0, 70, 31
4, 12608, Note_on_c, 0, 70, 0
4, 12631, Note_on_c, 0, 64, 0
4, 12642, Note_on_c, 0, 66, 0
4, 12642, Note_on_c, 0, 69, 0
4, 12645, Note_on_c, 0, 74, 0
4, 12661, Note_on_c, 0, 64, 36
4, 12661, Note_on_c, 0, 74, 62
4, 12662, Note_on_c, 0, 66, 44
4, 12665, Note_on_c, 0, 69, 27
4, 12666, Note_on_c, 0, 64, 0
4, 12674, Note_on_c, 0, 69, 0
4, 12681, Note_on_c, 0, 56, 0
4, 12683, Note_on_c, 0, 66, 0
4, 12695, Note_on_c, 0, 74, 0
4, 12721, Note_on_c, 0, 74, 62
4, 12721, Note_on_c, 0, 66, 53
4, 12722, Note_on_c, 0, 62, 47
4, 12724, Note_on_c, 0, 56, 30
4, 12724, Note_on_c, 0, 52, 43
4, 12725, Note_on_c, 0, 69, 36
4, 12726, Control_c, 0, 64, 0
4, 12751, Control_c, 0, 64, 127
4, 12754, Note_on_c, 0, 62, 0
4, 12773, Note_on_c, 0, 66, 0
4, 12778, Note_on_c, 0, 69, 0
4, 12782, Note_on_c, 0, 66, 21
4, 12784, Note_on_c, 0, 62, 30
4, 12792, Note_on_c, 0, 62, 0
4, 12803, Note_on_c, 0, 66, 0
4, 12823, Note_on_c, 0, 56, 0
4, 12838, Note_on_c, 0, 62, 34
4, 12839, Note_on_c, 0, 68, 36
4, 12842, Note_on_c, 0, 56, 18
4, 12860, Note_on_c, 0, 52, 0
4, 12885, Note_on_c, 0, 62, 0
4, 12897, Note_on_c, 0, 52, 37
4, 12904, Note_on_c, 0, 52, 0
4, 12904, Note_on_c, 0, 74, 0
4, 12909, Note_on_c, 0, 68, 0
4, 12945, Note_on_c, 0, 56, 0
4, 12953, Control_c, 0, 64, 0
4, 12953, Note_on_c, 0, 75, 87
4, 12954, Note_on_c, 0, 68, 95
4, 12954, Note_on_c, 0, 70, 83
4, 12957, Note_on_c, 0, 51, 58
4, 12975, Control_c, 0, 64, 127
4, 13002, Note_on_c, 0, 75, 0
4, 13018, Note_on_c, 0, 75, 67
4, 13058, Note_on_c, 0, 70, 0
4, 13060, Note_on_c, 0, 68, 0
4, 13067, Note_on_c, 0, 75, 0
4, 13077, Note_on_c, 0, 75, 45
4, 13081, Note_on_c, 0, 67, 28
4, 13082, Note_on_c, 0, 63, 25
4, 13114, Note_on_c, 0, 51, 0
4, 13121, Note_on_c, 0, 75, 0
4, 13121, Note_on_c, 0, 67, 0
4, 13133, Note_on_c, 0, 63, 0
4, 13140, Note_on_c, 0, 51, 27
4, 13141, Note_on_c, 0, 75, 42
4, 13141, Note_on_c, 0, 67, 42
4, 13150, Note_on_c, 0, 51, 0
4, 13152, Note_on_c, 0, 67, 0
4, 13162, Note_on_c, 0, 75, 0
4, 13197, Note_on_c, 0, 75, 55
4, 13198, Control_c, 0, 64, 0
4, 13199, Note_on_c, 0, 49, 32
4, 13200, Note_on_c, 0, 71, 44
4, 13200, Note_on_c, 0, 64, 45
4, 13200, Note_on_c, 0, 59, 33
4, 13201, Note_on_c, 0, 68, 37
4, 13221, Control_c, 0, 64, 127
4, 13246, Note_on_c, 0, 75, 0
4, 13257, Note_on_c, 0, 49, 0
4, 13257, Note_on_c, 0, 75, 71
4, 13266, Note_on_c, 0, 59, 0
4, 13276, Note_on_c, 0, 71, 0
4, 13278, Note_on_c, 0, 75, 0
4, 13280, Note_on_c, 0, 64, 0
4, 13287, Note_on_c, 0, 73, 37
4, 13296, Note_on_c, 0, 68, 0
4, 13302, Note_on_c, 0, 73, 0
4, 13319, Note_on_c, 0, 75, 57
4, 13320, Note_on_c, 0, 64, 50
4, 13321, Note_on_c, 0, 70, 38
4, 13321, Note_on_c, 0, 68, 45
4, 13323, Note_on_c, 0, 63, 33
4, 13324, Control_c, 0, 64, 0
4, 13342, Control_c, 0, 64, 127
4, 13373, Note_on_c, 0, 63, 0
4, 13400, Note_on_c, 0, 75, 0
4, 13404, Note_on_c, 0, 70, 0
4, 13408, Note_on_c, 0, 64, 0
4, 13410, Note_on_c, 0, 73, 34
4, 13413, Note_on_c, 0, 68, 0
4, 13429, Note_on_c, 0, 73, 0
4, 13441, Note_on_c, 0, 75, 45
4, 13443, Note_on_c, 0, 63, 31
4, 13444, Note_on_c, 0, 72, 48
4, 13446, Note_on_c, 0, 70, 33
4, 13446, Control_c, 0, 64, 0
4, 13447, Note_on_c, 0, 48, 37
4, 13448, Note_on_c, 0, 58, 14
4, 13474, Control_c, 0, 64, 127
4, 13530, Note_on_c, 0, 63, 0
4, 13563, Note_on_c, 0, 70, 0
4, 13563, Note_on_c, 0, 72, 0
4, 13567, Note_on_c, 0, 63, 38
4, 13572, Note_on_c, 0, 48, 0
4, 13582, Note_on_c, 0, 75, 0
4, 13582, Note_on_c, 0, 63, 0
4, 13584, Note_on_c, 0, 58, 0
4, 13594, Note_on_c, 0, 70, 75
4, 13609, Note_on_c, 0, 70, 0
4, 13618, Note_on_c, 0, 72, 81
4, 13636, Note_on_c, 0, 72, 0
4, 13648, Note_on_c, 0, 74, 80
4, 13659, Note_on_c, 0, 74, 0
4, 13678, Note_on_c, 0, 75, 59
4, 13679, Note_on_c, 0, 68, 45
4, 13679, Control_c, 0, 64, 0
4, 13680, Note_on_c, 0, 63, 31
4, 13681, Note_on_c, 0, 56, 36
4, 13682, Note_on_c, 0, 53, 22
4, 13702, Control_c, 0, 64, 127
4, 13706, Note_on_c, 0, 68, 0
4, 13712, Note_on_c, 0, 75, 0
4, 13715, Note_on_c, 0, 65, 52
4, 13715, Note_on_c, 0, 72, 57
4, 13716, Note_on_c, 0, 68, 36
4, 13717, Note_on_c, 0, 63, 0
4, 13720, Note_on_c, 0, 65, 0
4, 13720, Note_on_c, 0, 60, 35
4, 13723, Note_on_c, 0, 68, 0
4, 13726, Note_on_c, 0, 72, 0
4, 13749, Note_on_c, 0, 80, 64
4, 13753, Note_on_c, 0, 63, 31
4, 13763, Note_on_c, 0, 60, 0
4, 13770, Note_on_c, 0, 80, 0
4, 13789, Note_on_c, 0, 63, 0
4, 13792, Note_on_c, 0, 80, 50
4, 13795, Note_on_c, 0, 68, 36
4, 13796, Note_on_c, 0, 60, 20
4, 13826, Note_on_c, 0, 68, 0
4, 13845, Note_on_c, 0, 63, 23
4, 13856, Note_on_c, 0, 53, 0
4, 13858, Note_on_c, 0, 60, 0
4, 13862, Note_on_c, 0, 80, 0
4, 13863, Note_on_c, 0, 63, 0
4, 13868, Note_on_c, 0, 56, 0
4, 13918, Control_c, 0, 64, 0
4, 13957, Note_on_c, 0, 76, 72
4, 13957, Note_on_c, 0, 67, 81
4, 13958, Note_on_c, 0, 84, 74
4, 13958, Note_on_c, 0, 62, 63
4, 13958, Note_on_c, 0, 72, 74
4, 13958, Note_on_c, 0, 79, 53
4, 13959, Note_on_c, 0, 56, 39
4, 13961, Note_on_c, 0, 72, 0
4, 13962, Note_on_c, 0, 79, 0
4, 13964, Note_on_c, 0, 67, 0
4, 13964, Note_on_c, 0, 76, 0
4, 13965, Note_on_c, 0, 62, 0
4, 13965, Note_on_c, 0, 84, 0
4, 13966, Note_on_c, 0, 56, 0
4, 14007, Note_on_c, 0, 67, 79
4, 14007, Note_on_c, 0, 76, 78
4, 14007, Note_on_c, 0, 84, 73
4, 14008, Note_on_c, 0, 62, 60
4, 14008, Note_on_c, 0, 79, 64
4, 14008, Note_on_c, 0, 56, 62
4, 14008, Note_on_c, 0, 72, 78
4, 14008, Note_on_c, 0, 60, 62
4, 14011, Note_on_c, 0, 72, 0
4, 14012, Note_on_c, 0, 60, 0
4, 14013, Note_on_c, 0, 67, 0
4, 14013, Note_on_c, 0, 79, 0
4, 14014, Note_on_c, 0, 76, 0
4, 14015, Note_on_c, 0, 84, 0
4, 14016, Note_on_c, 0, 62, 0
4, 14020, Note_on_c, 0, 56, 0
4, 14047, Note_on_c, 0, 62, 51
4, 14048, Note_on_c, 0, 67, 78
4, 14048, Note_on_c, 0, 56, 61
4, 14049, Note_on_c, 0, 76, 80
4, 14049, Note_on_c, 0, 60, 60
4, 14049, Note_on_c, 0, 79, 59
4, 14049, Control_c, 0, 64, 127
4, 14049, Note_on_c, 0, 84, 62
4, 14050, Note_on_c, 0, 72, 79
4, 14050, Note_on_c, 0, 83, 54
4, 14063, Note_on_c, 0, 84, 0
4, 14063, Note_on_c, 0, 76, 0
4, 14065, Note_on_c, 0, 72, 0
4, 14065, Note_on_c, 0, 79, 0
4, 14067, Note_on_c, 0, 83, 0
4, 14069, Note_on_c, 0, 67, 0
4, 14071, Note_on_c, 0, 60, 0
4, 14073, Note_on_c, 0, 56, 0
4, 14074, Note_on_c, 0, 62, 0
4, 14083, Note_on_c, 0, 62, 66
4, 14084, Note_on_c, 0, 85, 83
4, 14084, Note_on_c, 0, 56, 60
4, 14084, Note_on_c, 0, 67, 71
4, 14084, Control_c, 0, 64, 0
4, 14085, Note_on_c, 0, 60, 62
4, 14085, Note_on_c, 0, 73, 63
4, 14091, Control_c, 0, 64, 127
4, 14119, Note_on_c, 0, 62, 0
4, 14121, Note_on_c, 0, 67, 0
4, 14123, Note_on_c, 0, 60, 0
4, 14123, Note_on_c, 0, 85, 0
4, 14123, Note_on_c, 0, 73, 0
4, 14136, Note_on_c, 0, 56, 0
4, 14154, Note_on_c, 0, 84, 63
4, 14156, Control_c, 0, 64, 0
4, 14156, Note_on_c, 0, 72, 52
4, 14156, Note_on_c, 0, 77, 53
4, 14158, Note_on_c, 0, 61, 42
4, 14158, Note_on_c, 0, 65, 55
4, 14159, Note_on_c, 0, 55, 47
4, 14178, Control_c, 0, 64, 127
4, 14220, Note_on_c, 0, 65, 0
4, 14222, Note_on_c, 0, 84, 0
4, 14223, Note_on_c, 0, 55, 0
4, 14229, Note_on_c, 0, 77, 0
4, 14231, Note_on_c, 0, 61, 0
4, 14236, Note_on_c, 0, 72, 0
4, 14273, Note_on_c, 0, 82, 46
4, 14275, Note_on_c, 0, 70, 34
4, 14275, Note_on_c, 0, 75, 43
4, 14276, Note_on_c, 0, 64, 37
4, 14276, Note_on_c, 0, 61, 29
4, 14277, Note_on_c, 0, 79, 35
4, 14278, Note_on_c, 0, 55, 26
4, 14294, Note_on_c, 0, 79, 0
4, 14300, Note_on_c, 0, 82, 0
4, 14300, Note_on_c, 0, 64, 0
4, 14303, Note_on_c, 0, 75, 0
4, 14306, Note_on_c, 0, 70, 0
4, 14307, Note_on_c, 0, 61, 0
4, 14312, Note_on_c, 0, 55, 0
4, 14397, Note_on_c, 0, 63, 36
4, 14398, Control_c, 0, 64, 0
4, 14399, Note_on_c, 0, 58, 40
4, 14401, Note_on_c, 0, 60, 36
4, 14401, Note_on_c, 0, 51, 30
4, 14402, Note_on_c, 0, 44, 25
4, 14413, Note_on_c, 0, 60, 0
4, 14413, Control_c, 0, 64, 127
4, 14415, Note_on_c, 0, 58, 0
4, 14416, Note_on_c, 0, 63, 0
4, 14440, Note_on_c, 0, 74, 51
4, 14447, Note_on_c, 0, 74, 0
4, 14470, Note_on_c, 0, 70, 57
4, 14470, Note_on_c, 0, 67, 58
4, 14471, Note_on_c, 0, 72, 63
4, 14480, Note_on_c, 0, 72, 0
4, 14482, Note_on_c, 0, 70, 0
4, 14482, Note_on_c, 0, 67, 0
4, 14505, Note_on_c, 0, 63, 70
4, 14505, Note_on_c, 0, 70, 76
4, 14521, Note_on_c, 0, 63, 0
4, 14525, Note_on_c, 0, 70, 0
4, 14533, Note_on_c, 0, 67, 60
4, 14535, Note_on_c, 0, 63, 39
4, 14536, Note_on_c, 0, 60, 56
4, 14537, Note_on_c, 0, 55, 44
4, 14542, Note_on_c, 0, 67, 0
4, 14544, Note_on_c, 0, 63, 0
4, 14544, Note_on_c, 0, 55, 0
4, 14552, Note_on_c, 0, 60, 0
4, 14563, Note_on_c, 0, 60, 44
4, 14565, Note_on_c, 0, 67, 54
4, 14568, Note_on_c, 0, 55, 35
4, 14573, Note_on_c, 0, 55, 0
4, 14577, Note_on_c, 0, 67, 0
4, 14578, Note_on_c, 0, 51, 0
4, 14582, Note_on_c, 0, 60, 0
4, 14596, Note_on_c, 0, 51, 34
4, 14596, Note_on_c, 0, 63, 47
4, 14597, Note_on_c, 0, 56, 34
4, 14614, Note_on_c, 0, 51, 0
4, 14618, Note_on_c, 0, 56, 0
4, 14633, Note_on_c, 0, 63, 0
4, 14644, Note_on_c, 0, 55, 47
4, 14645, Note_on_c, 0, 63, 25
4, 14645, Note_on_c, 0, 51, 37
4, 14646, Note_on_c, 0, 60, 34
4, 14646, Note_on_c, 0, 58, 35
4, 14648, Control_c, 0, 64, 0
4, 14663, Control_c, 0, 64, 127
4, 14680, Note_on_c, 0, 51, 0
4, 14703, Note_on_c, 0, 51, 46
4, 14708, Note_on_c, 0, 55, 0
4, 14714, Note_on_c, 0, 60, 0
4, 14727, Note_on_c, 0, 58, 0
4, 14733, Note_on_c, 0, 51, 0
4, 14756, Note_on_c, 0, 58, 48
4, 14759, Note_on_c, 0, 55, 33
4, 14759, Note_on_c, 0, 51, 37
4, 14762, Note_on_c, 0, 55, 0
4, 14765, Note_on_c, 0, 63, 0
4, 14766, Note_on_c, 0, 44, 0
4, 14766, Note_on_c, 0, 58, 0
4, 14770, Note_on_c, 0, 51, 0
4, 14802, Note_on_c, 0, 75, 77
4, 14802, Note_on_c, 0, 70, 81
4, 14803, Note_on_c, 0, 72, 79
4, 14803, Note_on_c, 0, 67, 82
4, 14803, Note_on_c, 0, 63, 62
4, 14816, Note_on_c, 0, 63, 0
4, 14822, Note_on_c, 0, 75, 0
4, 14828, Note_on_c, 0, 70, 0
4, 14830, Note_on_c, 0, 67, 0
4, 14831, Note_on_c, 0, 72, 0
4, 14841, Note_on_c, 0, 75, 76
4, 14842, Note_on_c, 0, 63, 59
4, 14844, Note_on_c, 0, 67, 61
4, 14844, Note_on_c, 0, 70, 38
4, 14847, Note_on_c, 0, 70, 0
4, 14849, Note_on_c, 0, 67, 0
4, 14849, Note_on_c, 0, 63, 0
4, 14850, Note_on_c, 0, 75, 0
4, 14877, Note_on_c, 0, 72, 83
4, 14878, Note_on_c, 0, 61, 73
4, 14878, Note_on_c, 0, 65, 82
4, 14878, Note_on_c, 0, 68, 63
4, 14882, Control_c, 0, 64, 0
4, 14904, Control_c, 0, 64, 127
4, 14922, Note_on_c, 0, 51, 60
4, 14956, Note_on_c, 0, 51, 0
4, 14968, Note_on_c, 0, 65, 0
4, 14981, Note_on_c, 0, 68, 0
4, 14982, Note_on_c, 0, 61, 0
4, 14994, Note_on_c, 0, 72, 0
4, 15000, Note_on_c, 0, 61, 44
4, 15001, Note_on_c, 0, 68, 34
4, 15002, Note_on_c, 0, 65, 55
4, 15005, Note_on_c, 0, 58, 28
4, 15042, Note_on_c, 0, 51, 51
4, 15064, Note_on_c, 0, 51, 0
4, 15086, Note_on_c, 0, 51, 55
4, 15097, Note_on_c, 0, 65, 0
4, 15098, Note_on_c, 0, 68, 0
4, 15101, Note_on_c, 0, 51, 0
4, 15105, Note_on_c, 0, 61, 0
4, 15109, Note_on_c, 0, 58, 0
4, 15128, Note_on_c, 0, 72, 59
4, 15128, Note_on_c, 0, 64, 52
4, 15128, Note_on_c, 0, 51, 46
4, 15129, Note_on_c, 0, 61, 33
4, 15129, Note_on_c, 0, 67, 36
4, 15132, Control_c, 0, 64, 0
4, 15133, Note_on_c, 0, 58, 33
4, 15157, Control_c, 0, 64, 127
4, 15203, Note_on_c, 0, 61, 0
4, 15204, Note_on_c, 0, 51, 0
4, 15210, Note_on_c, 0, 67, 0
4, 15213, Note_on_c, 0, 58, 0
4, 15222, Note_on_c, 0, 64, 0
4, 15236, Note_on_c, 0, 72, 0
4, 15245, Note_on_c, 0, 51, 25
4, 15247, Note_on_c, 0, 58, 18
4, 15282, Note_on_c, 0, 51, 0
4, 15285, Note_on_c, 0, 58, 0
4, 15361, Note_on_c, 0, 67, 31
4, 15362, Note_on_c, 0, 62, 32
4, 15363, Note_on_c, 0, 56, 25
4, 15369, Control_c, 0, 64, 0
4, 15422, Note_on_c, 0, 67, 0
4, 15442, Note_on_c, 0, 68, 48
4, 15452, Note_on_c, 0, 70, 62
4, 15453, Note_on_c, 0, 68, 0
4, 15459, Note_on_c, 0, 70, 0
4, 15461, Note_on_c, 0, 71, 70
4, 15470, Note_on_c, 0, 71, 0
4, 15473, Note_on_c, 0, 73, 47
4, 15480, Note_on_c, 0, 73, 0
4, 15484, Note_on_c, 0, 74, 59
4, 15489, Note_on_c, 0, 62, 0
4, 15495, Note_on_c, 0, 74, 0
4, 15496, Note_on_c, 0, 76, 58
4, 15498, Note_on_c, 0, 56, 0
4, 15504, Note_on_c, 0, 76, 0
4, 15509, Note_on_c, 0, 77, 26
4, 15514, Note_on_c, 0, 77, 0
4, 15520, Note_on_c, 0, 79, 62
4, 15527, Note_on_c, 0, 79, 0
4, 15534, Note_on_c, 0, 80, 63
4, 15541, Note_on_c, 0, 80, 0
4, 15552, Note_on_c, 0, 82, 53
4, 15557, Note_on_c, 0, 82, 0
4, 15574, Note_on_c, 0, 83, 60
4, 15580, Note_on_c, 0, 83, 0
4, 15597, Note_on_c, 0, 84, 68
4, 15606, Note_on_c, 0, 84, 0
4, 15665, Control_c, 0, 64, 127
4, 15702, Note_on_c, 0, 91, 79
4, 15702, Note_on_c, 0, 79, 81
4, 15702, Note_on_c, 0, 56, 74
4, 15702, Note_on_c, 0, 67, 80
4, 15702, Note_on_c, 0, 62, 68
4, 15706, Note_on_c, 0, 89, 33
4, 15710, Note_on_c, 0, 89, 0
4, 15719, Note_on_c, 0, 91, 0
4, 15721, Note_on_c, 0, 79, 0
4, 15723, Note_on_c, 0, 67, 0
4, 15726, Note_on_c, 0, 56, 0
4, 15726, Note_on_c, 0, 62, 0
4, 15732, Control_c, 0, 64, 0
4, 15732, Note_on_c, 0, 92, 86
4, 15732, Note_on_c, 0, 80, 83
4, 15732, Note_on_c, 0, 56, 52
4, 15733, Note_on_c, 0, 67, 71
4, 15733, Note_on_c, 0, 62, 82
4, 15742, Control_c, 0, 64, 127
4, 15754, Note_on_c, 0, 80, 0
4, 15755, Note_on_c, 0, 92, 0
4, 15756, Note_on_c, 0, 67, 0
4, 15757, Note_on_c, 0, 56, 0
4, 15762, Note_on_c, 0, 62, 0
4, 15768, Note_on_c, 0, 94, 86
4, 15768, Note_on_c, 0, 82, 83
4, 15769, Note_on_c, 0, 56, 69
4, 15769, Note_on_c, 0, 67, 66
4, 15769, Note_on_c, 0, 62, 79
4, 15782, Note_on_c, 0, 94, 0
4, 15784, Note_on_c, 0, 82, 0
4, 15785, Note_on_c, 0, 67, 0
4, 15788, Note_on_c, 0, 56, 0
4, 15790, Note_on_c, 0, 62, 0
4, 15795, Note_on_c, 0, 92, 61
4, 15795, Note_on_c, 0, 67, 48
4, 15795, Note_on_c, 0, 80, 53
4, 15796, Note_on_c, 0, 62, 51
4, 15796, Note_on_c, 0, 56, 52
4, 15807, Note_on_c, 0, 80, 0
4, 15808, Note_on_c, 0, 92, 0
4, 15808, Note_on_c, 0, 67, 0
4, 15811, Note_on_c, 0, 56, 0
4, 15816, Note_on_c, 0, 62, 0
4, 15824, Note_on_c, 0, 94, 72
4, 15825, Note_on_c, 0, 56, 54
4, 15825, Note_on_c, 0, 82, 64
4, 15832, Note_on_c, 0, 82, 0
4, 15832, Note_on_c, 0, 94, 0
4, 15834, Note_on_c, 0, 56, 0
4, 15851, Control_c, 0, 64, 0
4, 15852, Note_on_c, 0, 63, 52
4, 15852, Note_on_c, 0, 89, 64
4, 15852, Note_on_c, 0, 60, 57
4, 15853, Note_on_c, 0, 77, 42
4, 15853, Note_on_c, 0, 58, 37
4, 15854, Note_on_c, 0, 84, 44
4, 15855, Note_on_c, 0, 53, 43
4, 15867, Control_c, 0, 64, 127
4, 15869, Note_on_c, 0, 89, 0
4, 15872, Note_on_c, 0, 84, 0
4, 15873, Note_on_c, 0, 53, 0
4, 15875, Note_on_c, 0, 63, 0
4, 15878, Note_on_c, 0, 77, 0
4, 15878, Note_on_c, 0, 58, 0
4, 15881, Note_on_c, 0, 60, 0
4, 15889, Note_on_c, 0, 87, 51
4, 15890, Note_on_c, 0, 63, 44
4, 15891, Note_on_c, 0, 60, 53
4, 15892, Note_on_c, 0, 75, 38
4, 15893, Note_on_c, 0, 82, 47
4, 15893, Note_on_c, 0, 53, 38
4, 15893, Note_on_c, 0, 58, 33
4, 15922, Note_on_c, 0, 82, 0
4, 15923, Note_on_c, 0, 87, 0
4, 15923, Note_on_c, 0, 53, 0
4, 15925, Note_on_c, 0, 63, 0
4, 15926, Note_on_c, 0, 75, 0
4, 15930, Note_on_c, 0, 60, 0
4, 15935, Note_on_c, 0, 58, 0
4, 15957, Note_on_c, 0, 84, 48
4, 15958, Note_on_c, 0, 72, 52
4, 15959, Control_c, 0, 64, 0
4, 15959, Note_on_c, 0, 60, 33
4, 15959, Note_on_c, 0, 79, 37
4, 15960, Note_on_c, 0, 63, 37
4, 15961, Note_on_c, 0, 58, 34
4, 15962, Note_on_c, 0, 53, 34
4, 15971, Control_c, 0, 64, 127
4, 16002, Note_on_c, 0, 79, 0
4, 16002, Note_on_c, 0, 84, 0
4, 16011, Note_on_c, 0, 63, 0
4, 16013, Note_on_c, 0, 72, 0
4, 16032, Note_on_c, 0, 60, 0
4, 16041, Note_on_c, 0, 58, 0
4, 16072, Note_on_c, 0, 70, 74
4, 16072, Note_on_c, 0, 58, 77
4, 16073, Note_on_c, 0, 67, 74
4, 16073, Note_on_c, 0, 63, 77
4, 16073, Note_on_c, 0, 60, 83
4, 16075, Control_c, 0, 64, 0
4, 16089, Control_c, 0, 64, 127
4, 16104, Note_on_c, 0, 60, 0
4, 16105, Note_on_c, 0, 67, 0
4, 16107, Note_on_c, 0, 70, 0
4, 16107, Note_on_c, 0, 63, 0
4, 16109, Note_on_c, 0, 58, 0
4, 16109, Note_on_c, 0, 53, 0
4, 16113, Note_on_c, 0, 63, 60
4, 16113, Note_on_c, 0, 56, 60
4, 16113, Note_on_c, 0, 68, 72
4, 16114, Note_on_c, 0, 60, 73
4, 16117, Control_c, 0, 64, 0
4, 16129, Control_c, 0, 64, 127
4, 16147, Note_on_c, 0, 68, 0
4, 16150, Note_on_c, 0, 63, 0
4, 16153, Note_on_c, 0, 60, 0
4, 16169, Note_on_c, 0, 56, 0
4, 16191, Note_on_c, 0, 67, 65
4, 16191, Control_c, 0, 64, 0
4, 16192, Note_on_c, 0, 56, 34
4, 16192, Note_on_c, 0, 60, 56
4, 16193, Note_on_c, 0, 63, 37
4, 16193, Note_on_c, 0, 55, 52
4, 16211, Control_c, 0, 64, 127
4, 16254, Note_on_c, 0, 56, 0
4, 16257, Note_on_c, 0, 60, 0
4, 16269, Note_on_c, 0, 55, 0
4, 16270, Note_on_c, 0, 63, 0
4, 16276, Note_on_c, 0, 67, 0
4, 16296, Note_on_c, 0, 67, 55
4, 16309, Note_on_c, 0, 67, 0
4, 16317, Control_c, 0, 64, 0
4, 16320, Note_on_c, 0, 56, 30
4, 16320, Note_on_c, 0, 60, 51
4, 16320, Note_on_c, 0, 50, 47
4, 16321, Note_on_c, 0, 67, 55
4, 16332, Note_on_c, 0, 67, 0
4, 16359, Note_on_c, 0, 67, 73
4, 16368, Note_on_c, 0, 67, 0
4, 16384, Note_on_c, 0, 67, 65
4, 16391, Note_on_c, 0, 50, 0
4, 16393, Note_on_c, 0, 60, 0
4, 16397, Note_on_c, 0, 67, 0
4, 16397, Note_on_c, 0, 68, 53
4, 16410, Note_on_c, 0, 67, 31
4, 16411, Note_on_c, 0, 68, 0
4, 16421, Note_on_c, 0, 56, 0
4, 16422, Note_on_c, 0, 67, 0
4, 16422, Note_on_c, 0, 65, 51
4, 16433, Note_on_c, 0, 65, 0
4, 16439, Note_on_c, 0, 67, 62
4, 16449, Note_on_c, 0, 67, 0
4, 16478, Note_on_c, 0, 67, 65
4, 16485, Note_on_c, 0, 67, 0
4, 16499, Note_on_c, 0, 67, 64
4, 16502, Note_on_c, 0, 60, 29
4, 16507, Note_on_c, 0, 60, 0
4, 16511, Note_on_c, 0, 67, 0
4, 16513, Note_on_c, 0, 68, 49
4, 16525, Note_on_c, 0, 67, 34
4, 16527, Note_on_c, 0, 68, 0
4, 16540, Note_on_c, 0, 67, 0
4, 16540, Note_on_c, 0, 65, 46
4, 16541, Control_c, 0, 64, 127
4, 16549, Control_c, 0, 64, 0
4, 16551, Note_on_c, 0, 65, 0
4, 16554, Note_on_c, 0, 59, 32
4, 16554, Note_on_c, 0, 49, 34
4, 16555, Note_on_c, 0, 53, 34
4, 16559, Note_on_c, 0, 67, 44
4, 16570, Control_c, 0, 64, 127
4, 16593, Note_on_c, 0, 59, 0
4, 16603, Note_on_c, 0, 53, 0
4, 16613, Note_on_c, 0, 67, 0
4, 16621, Note_on_c, 0, 67, 66
4, 16623, Note_on_c, 0, 63, 43
4, 16623, Note_on_c, 0, 59, 30
4, 16624, Note_on_c, 0, 58, 31
4, 16625, Note_on_c, 0, 53, 35
4, 16649, Note_on_c, 0, 58, 0
4, 16651, Note_on_c, 0, 59, 0
4, 16651, Note_on_c, 0, 53, 0
4, 16660, Note_on_c, 0, 63, 0
4, 16665, Note_on_c, 0, 67, 0
4, 16676, Control_c, 0, 64, 0
4, 16678, Note_on_c, 0, 67, 25
4, 16678, Note_on_c, 0, 58, 47
4, 16679, Note_on_c, 0, 59, 32
4, 16679, Note_on_c, 0, 53, 36
4, 16679, Note_on_c, 0, 63, 44
4, 16699, Control_c, 0, 64, 127
4, 16743, Note_on_c, 0, 49, 0
4, 16763, Note_on_c, 0, 67, 0
4, 16764, Note_on_c, 0, 59, 0
4, 16766, Note_on_c, 0, 58, 0
4, 16773, Note_on_c, 0, 68, 56
4, 16774, Note_on_c, 0, 49, 28
4, 16775, Note_on_c, 0, 53, 0
4, 16781, Note_on_c, 0, 63, 0
4, 16784, Note_on_c, 0, 49, 0
4, 16791, Note_on_c, 0, 68, 0
4, 16802, Control_c, 0, 64, 0
4, 16802, Note_on_c, 0, 58, 42
4, 16803, Note_on_c, 0, 63, 42
4, 16804, Note_on_c, 0, 65, 49
4, 16806, Note_on_c, 0, 48, 35
4, 16819, Control_c, 0, 64, 127
4, 16822, Note_on_c, 0, 65, 0
4, 16838, Note_on_c, 0, 48, 0
4, 16838, Note_on_c, 0, 63, 0
4, 16849, Note_on_c, 0, 58, 0
4, 16961, Note_on_c, 0, 63, 34
4, 16961, Note_on_c, 0, 67, 42
4, 16961, Note_on_c, 0, 62, 43
4, 16962, Note_on_c, 0, 58, 33
4, 16964, Control_c, 0, 64, 0
4, 16976, Control_c, 0, 64, 127
4, 16996, Note_on_c, 0, 62, 0
4, 16998, Note_on_c, 0, 67, 0
4, 17005, Note_on_c, 0, 74, 82
4, 17008, Note_on_c, 0, 58, 0
4, 17013, Note_on_c, 0, 74, 0
4, 17022, Note_on_c, 0, 75, 93
4, 17023, Note_on_c, 0, 63, 0
4, 17035, Note_on_c, 0, 75, 0
4, 17040, Control_c, 0, 64, 0
4, 17041, Note_on_c, 0, 67, 51
4, 17042, Note_on_c, 0, 72, 85
4, 17043, Note_on_c, 0, 79, 74
4, 17043, Note_on_c, 0, 56, 38
4, 17043, Note_on_c, 0, 60, 54
4, 17044, Note_on_c, 0, 63, 36
4, 17062, Note_on_c, 0, 79, 0
4, 17068, Note_on_c, 0, 77, 54
4, 17070, Control_c, 0, 64, 127
4, 17075, Note_on_c, 0, 72, 0
4, 17087, Note_on_c, 0, 77, 0
4, 17107, Note_on_c, 0, 67, 0
4, 17114, Note_on_c, 0, 60, 0
4, 17118, Note_on_c, 0, 63, 0
4, 17158, Note_on_c, 0, 63, 34
4, 17159, Note_on_c, 0, 67, 40
4, 17162, Note_on_c, 0, 60, 24
4, 17185, Note_on_c, 0, 67, 0
4, 17193, Note_on_c, 0, 60, 0
4, 17196, Note_on_c, 0, 63, 0
4, 17198, Note_on_c, 0, 75, 61
4, 17199, Note_on_c, 0, 68, 63
4, 17208, Note_on_c, 0, 56, 0
4, 17224, Note_on_c, 0, 68, 0
4, 17225, Note_on_c, 0, 75, 0
4, 17231, Note_on_c, 0, 72, 56
4, 17243, Note_on_c, 0, 72, 0
4, 17246, Note_on_c, 0, 68, 57
4, 17254, Note_on_c, 0, 68, 0
4, 17261, Note_on_c, 0, 51, 21
4, 17271, Note_on_c, 0, 61, 53
4, 17272, Note_on_c, 0, 65, 62
4, 17272, Note_on_c, 0, 68, 45
4, 17275, Note_on_c, 0, 58, 23
4, 17275, Note_on_c, 0, 54, 25
4, 17276, Note_on_c, 0, 56, 40
4, 17277, Control_c, 0, 64, 0
4, 17305, Control_c, 0, 64, 127
4, 17328, Note_on_c, 0, 61, 0
4, 17331, Note_on_c, 0, 65, 0
4, 17337, Note_on_c, 0, 68, 0
4, 17348, Note_on_c, 0, 54, 0
4, 17357, Note_on_c, 0, 58, 0
4, 17369, Note_on_c, 0, 56, 0
4, 17374, Note_on_c, 0, 87, 82
4, 17379, Note_on_c, 0, 75, 75
4, 17393, Note_on_c, 0, 87, 0
4, 17397, Note_on_c, 0, 75, 0
4, 17410, Control_c, 0, 64, 0
4, 17410, Note_on_c, 0, 58, 37
4, 17411, Note_on_c, 0, 87, 79
4, 17412, Note_on_c, 0, 54, 25
4, 17414, Note_on_c, 0, 56, 25
4, 17415, Note_on_c, 0, 75, 76
4, 17431, Control_c, 0, 64, 127
4, 17439, Note_on_c, 0, 87, 0
4, 17441, Note_on_c, 0, 75, 0
4, 17456, Note_on_c, 0, 87, 62
4, 17457, Note_on_c, 0, 75, 53
4, 17469, Note_on_c, 0, 51, 0
4, 17474, Note_on_c, 0, 54, 0
4, 17474, Note_on_c, 0, 58, 0
4, 17477, Note_on_c, 0, 87, 0
4, 17477, Note_on_c, 0, 75, 0
4, 17481, Note_on_c, 0, 56, 0
4, 17501, Note_on_c, 0, 87, 61
4, 17503, Note_on_c, 0, 75, 48
4, 17508, Note_on_c, 0, 75, 0
4, 17512, Note_on_c, 0, 87, 0
4, 17536, Note_on_c, 0, 89, 57
4, 17538, Control_c, 0, 64, 0
4, 17539, Note_on_c, 0, 86, 60
4, 17539, Note_on_c, 0, 54, 48
4, 17540, Note_on_c, 0, 65, 57
4, 17541, Note_on_c, 0, 60, 40
4, 17542, Note_on_c, 0, 77, 66
4, 17556, Control_c, 0, 64, 127
4, 17561, Note_on_c, 0, 86, 0
4, 17562, Note_on_c, 0, 89, 0
4, 17568, Note_on_c, 0, 77, 0
4, 17578, Note_on_c, 0, 65, 0
4, 17583, Note_on_c, 0, 54, 0
4, 17584, Note_on_c, 0, 60, 0
4, 17685, Note_on_c, 0, 78, 65
4, 17685, Control_c, 0, 64, 0
4, 17686, Note_on_c, 0, 74, 73
4, 17686, Note_on_c, 0, 86, 61
4, 17686, Note_on_c, 0, 81, 63
4, 17687, Note_on_c, 0, 54, 64
4, 17687, Note_on_c, 0, 60, 64
4, 17687, Note_on_c, 0, 65, 71
4, 17692, Control_c, 0, 64, 127
4, 17695, Note_on_c, 0, 74, 0
4, 17698, Note_on_c, 0, 78, 0
4, 17698, Note_on_c, 0, 65, 0
4, 17699, Note_on_c, 0, 81, 0
4, 17702, Note_on_c, 0, 60, 0
4, 17702, Note_on_c, 0, 86, 0
4, 17704, Note_on_c, 0, 54, 0
4, 17725, Control_c, 0, 64, 0
4, 17725, Note_on_c, 0, 96, 88
4, 17725, Note_on_c, 0, 54, 69
4, 17725, Note_on_c, 0, 91, 77
4, 17725, Note_on_c, 0, 60, 70
4, 17725, Note_on_c, 0, 84, 74
4, 17726, Note_on_c, 0, 65, 71
4, 17733, Note_on_c, 0, 65, 0
4, 17735, Note_on_c, 0, 91, 0
4, 17735, Control_c, 0, 64, 127
4, 17737, Note_on_c, 0, 96, 0
4, 17739, Note_on_c, 0, 84, 0
4, 17739, Note_on_c, 0, 60, 0
4, 17745, Note_on_c, 0, 54, 0
4, 17764, Note_on_c, 0, 92, 60
4, 17765, Note_on_c, 0, 87, 71
4, 17765, Control_c, 0, 64, 0
4, 17766, Note_on_c, 0, 63, 45
4, 17766, Note_on_c, 0, 80, 43
4, 17766, Note_on_c, 0, 60, 57
4, 17767, Note_on_c, 0, 56, 45
4, 17767, Note_on_c, 0, 53, 43
4, 17781, Control_c, 0, 64, 127
4, 17784, Note_on_c, 0, 87, 0
4, 17785, Note_on_c, 0, 92, 0
4, 17787, Note_on_c, 0, 53, 0
4, 17790, Note_on_c, 0, 80, 0
4, 17791, Note_on_c, 0, 63, 0
4, 17793, Note_on_c, 0, 60, 0
4, 17794, Note_on_c, 0, 56, 0
4, 17805, Note_on_c, 0, 89, 55
4, 17806, Note_on_c, 0, 63, 48
4, 17806, Note_on_c, 0, 60, 37
4, 17807, Note_on_c, 0, 77, 38
4, 17807, Note_on_c, 0, 84, 49
4, 17807, Note_on_c, 0, 53, 36
4, 17809, Note_on_c, 0, 56, 27
4, 17810, Control_c, 0, 64, 0
4, 17818, Control_c, 0, 64, 127
4, 17827, Note_on_c, 0, 89, 0
4, 17829, Note_on_c, 0, 84, 0
4, 17837, Note_on_c, 0, 77, 0
4, 17838, Note_on_c, 0, 53, 0
4, 17839, Note_on_c, 0, 63, 0
4, 17859, Note_on_c, 0, 60, 0
4, 17862, Note_on_c, 0, 56, 0
4, 17878, Note_on_c, 0, 84, 46
4, 17878, Note_on_c, 0, 63, 34
4, 17879, Note_on_c, 0, 80, 29
4, 17879, Note_on_c, 0, 56, 25
4, 17880, Note_on_c, 0, 72, 30
4, 17880, Note_on_c, 0, 60, 39
4, 17881, Note_on_c, 0, 77, 34
4, 17881, Control_c, 0, 64, 0
4, 17894, Control_c, 0, 64, 127
4, 17923, Note_on_c, 0, 84, 0
4, 17925, Note_on_c, 0, 53, 50
4, 17927, Note_on_c, 0, 77, 0
4, 17928, Note_on_c, 0, 80, 0
4, 17933, Note_on_c, 0, 72, 0
4, 17961, Note_on_c, 0, 53, 0
4, 17966, Note_on_c, 0, 60, 0
4, 17968, Note_on_c, 0, 63, 0
4, 17968, Note_on_c, 0, 72, 64
4, 17978, Note_on_c, 0, 72, 0
4, 17983, Note_on_c, 0, 56, 0
4, 17984, Note_on_c, 0, 73, 55
4, 17998, Note_on_c, 0, 73, 0
4, 18002, Note_on_c, 0, 61, 31
4, 18004, Note_on_c, 0, 68, 53
4, 18004, Note_on_c, 0, 72, 55
4, 18005, Note_on_c, 0, 75, 61
4, 18005, Note_on_c, 0, 63, 55
4, 18005, Note_on_c, 0, 64, 51
4, 18006, Control_c, 0, 64, 0
4, 18008, Note_on_c, 0, 61, 0
4, 18024, Note_on_c, 0, 72, 0
4, 18024, Note_on_c, 0, 64, 0
4, 18026, Note_on_c, 0, 75, 0
4, 18027, Note_on_c, 0, 68, 0
4, 18030, Note_on_c, 0, 61, 38
4, 18031, Note_on_c, 0, 63, 0
4, 18032, Note_on_c, 0, 73, 23
4, 18042, Note_on_c, 0, 73, 0
4, 18051, Note_on_c, 0, 64, 45
4, 18051, Note_on_c, 0, 68, 37
4, 18051, Note_on_c, 0, 75, 51
4, 18052, Note_on_c, 0, 61, 0
4, 18052, Note_on_c, 0, 72, 46
4, 18052, Note_on_c, 0, 63, 46
4, 18084, Control_c, 0, 64, 127
4, 18110, Note_on_c, 0, 64, 0
4, 18114, Note_on_c, 0, 72, 0
4, 18114, Note_on_c, 0, 68, 0
4, 18123, Note_on_c, 0, 75, 0
4, 18131, Note_on_c, 0, 64, 44
4, 18132, Note_on_c, 0, 73, 31
4, 18132, Note_on_c, 0, 68, 42
4, 18134, Note_on_c, 0, 63, 0
4, 18134, Note_on_c, 0, 61, 37
4, 18136, Control_c, 0, 64, 0
4, 18145, Control_c, 0, 64, 127
4, 18186, Note_on_c, 0, 61, 0
4, 18210, Note_on_c, 0, 68, 0
4, 18210, Note_on_c, 0, 73, 0
4, 18210, Note_on_c, 0, 64, 0
4, 18215, Note_on_c, 0, 72, 53
4, 18229, Note_on_c, 0, 72, 0
4, 18244, Note_on_c, 0, 63, 49
4, 18244, Note_on_c, 0, 75, 49
4, 18245, Note_on_c, 0, 72, 46
4, 18246, Note_on_c, 0, 70, 49
4, 18246, Control_c, 0, 64, 0
4, 18247, Note_on_c, 0, 58, 27
4, 18250, Note_on_c, 0, 48, 30
4, 18267, Control_c, 0, 64, 127
4, 18293, Note_on_c, 0, 75, 0
4, 18294, Note_on_c, 0, 72, 0
4, 18295, Note_on_c, 0, 70, 0
4, 18304, Note_on_c, 0, 63, 0
4, 18310, Note_on_c, 0, 58, 0
4, 18358, Note_on_c, 0, 54, 46
4, 18368, Control_c, 0, 64, 0
4, 18370, Note_on_c, 0, 54, 0
4, 18370, Note_on_c, 0, 56, 30
4, 18376, Note_on_c, 0, 58, 58
4, 18381, Note_on_c, 0, 56, 0
4, 18383, Note_on_c, 0, 58, 0
4, 18386, Note_on_c, 0, 54, 25
4, 18387, Note_on_c, 0, 60, 58
4, 18394, Note_on_c, 0, 60, 0
4, 18396, Note_on_c, 0, 61, 50
4, 18405, Note_on_c, 0, 61, 0
4, 18405, Note_on_c, 0, 48, 0
4, 18409, Note_on_c, 0, 63, 35
4, 18413, Note_on_c, 0, 63, 0
4, 18415, Note_on_c, 0, 54, 0
4, 18420, Note_on_c, 0, 65, 60
4, 18426, Note_on_c, 0, 65, 0
4, 18430, Note_on_c, 0, 66, 38
4, 18441, Note_on_c, 0, 66, 0
4, 18442, Note_on_c, 0, 68, 36
4, 18448, Note_on_c, 0, 68, 0
4, 18452, Note_on_c, 0, 70, 42
4, 18456, Note_on_c, 0, 70, 0
4, 18464, Note_on_c, 0, 72, 46
4, 18468, Note_on_c, 0, 72, 0
4, 18473, Note_on_c, 0, 73, 33
4, 18482, Note_on_c, 0, 73, 0
4, 18488, Note_on_c, 0, 75, 68
4, 18496, Note_on_c, 0, 75, 0
4, 18505, Note_on_c, 0, 77, 57
4, 18514, Note_on_c, 0, 77, 0
4, 18530, Note_on_c, 0, 73, 57
4, 18538, Note_on_c, 0, 73, 0
4, 18551, Note_on_c, 0, 72, 68
4, 18559, Note_on_c, 0, 72, 0
4, 18571, Note_on_c, 0, 70, 58
4, 18580, Note_on_c, 0, 70, 0
4, 18596, Note_on_c, 0, 69, 65
4, 18597, Note_on_c, 0, 66, 27
4, 18598, Note_on_c, 0, 63, 31
4, 18598, Note_on_c, 0, 61, 37
4, 18601, Note_on_c, 0, 57, 38
4, 18619, Note_on_c, 0, 69, 0
4, 18624, Note_on_c, 0, 72, 59
4, 18629, Control_c, 0, 64, 127
4, 18643, Note_on_c, 0, 72, 0
4, 18647, Note_on_c, 0, 66, 0
4, 18651, Note_on_c, 0, 70, 69
4, 18652, Note_on_c, 0, 57, 0
4, 18658, Note_on_c, 0, 63, 0
4, 18665, Note_on_c, 0, 70, 0
4, 18666, Note_on_c, 0, 61, 0
4, 18679, Note_on_c, 0, 69, 62
4, 18697, Note_on_c, 0, 69, 0
4, 18708, Note_on_c, 0, 65, 47
4, 18708, Note_on_c, 0, 70, 63
4, 18708, Note_on_c, 0, 61, 29
4, 18709, Control_c, 0, 64, 0
4, 18711, Note_on_c, 0, 60, 33
4, 18712, Note_on_c, 0, 56, 19
4, 18729, Control_c, 0, 64, 127
4, 18752, Note_on_c, 0, 65, 0
4, 18756, Note_on_c, 0, 70, 0
4, 18761, Note_on_c, 0, 60, 0
4, 18762, Note_on_c, 0, 61, 0
4, 18773, Note_on_c, 0, 56, 0
4, 18840, Note_on_c, 0, 73, 59
4, 18840, Note_on_c, 0, 61, 78
4, 18840, Note_on_c, 0, 57, 78
4, 18841, Note_on_c, 0, 64, 83
4, 18841, Note_on_c, 0, 68, 71
4, 18844, Control_c, 0, 64, 0
4, 18862, Control_c, 0, 64, 127
4, 18870, Note_on_c, 0, 64, 0
4, 18875, Note_on_c, 0, 73, 0
4, 18875, Note_on_c, 0, 68, 0
4, 18883, Note_on_c, 0, 61, 0
4, 18889, Note_on_c, 0, 58, 74
4, 18890, Note_on_c, 0, 57, 0
4, 18891, Note_on_c, 0, 75, 75
4, 18893, Note_on_c, 0, 73, 43
4, 18911, Note_on_c, 0, 75, 0
4, 18914, Note_on_c, 0, 73, 0
4, 18924, Note_on_c, 0, 58, 0
4, 18951, Note_on_c, 0, 63, 76
4, 18951, Note_on_c, 0, 70, 72
4, 18951, Note_on_c, 0, 75, 75
4, 18951, Note_on_c, 0, 67, 76
4, 18951, Control_c, 0, 64, 0
4, 18952, Note_on_c, 0, 64, 74
4, 18968, Control_c, 0, 64, 127
4, 18994, Note_on_c, 0, 64, 0
4, 18997, Note_on_c, 0, 67, 0
4, 18998, Note_on_c, 0, 70, 0
4, 19002, Note_on_c, 0, 75, 0
4, 19011, Note_on_c, 0, 61, 57
4, 19011, Note_on_c, 0, 73, 51
4, 19012, Note_on_c, 0, 63, 0
4, 19012, Note_on_c, 0, 64, 70
4, 19025, Note_on_c, 0, 64, 0
4, 19038, Note_on_c, 0, 73, 0
4, 19039, Note_on_c, 0, 61, 0
4, 19131, Note_on_c, 0, 85, 83
4, 19131, Note_on_c, 0, 73, 67
4, 19132, Note_on_c, 0, 80, 71
4, 19132, Note_on_c, 0, 66, 60
4, 19132, Note_on_c, 0, 61, 56
4, 19133, Note_on_c, 0, 55, 66
4, 19140, Note_on_c, 0, 66, 0
4, 19143, Note_on_c, 0, 55, 0
4, 19146, Note_on_c, 0, 61, 0
4, 19164, Note_on_c, 0, 80, 0
4, 19165, Note_on_c, 0, 73, 0
4, 19166, Note_on_c, 0, 85, 0
4, 19188, Control_c, 0, 64, 0
4, 19189, Note_on_c, 0, 84, 57
4, 19189, Note_on_c, 0, 72, 51
4, 19189, Note_on_c, 0, 79, 48
4, 19190, Note_on_c, 0, 55, 58
4, 19191, Note_on_c, 0, 44, 39
4, 19206, Control_c, 0, 64, 127
4, 19207, Note_on_c, 0, 84, 0
4, 19211, Note_on_c, 0, 79, 0
4, 19220, Note_on_c, 0, 44, 0
4, 19226, Note_on_c, 0, 55, 0
4, 19228, Note_on_c, 0, 72, 0
4, 19375, Control_c, 0, 64, 0
4, 19376, Note_on_c, 0, 73, 59
4, 19378, Note_on_c, 0, 66, 75
4, 19378, Note_on_c, 0, 63, 76
4, 19378, Note_on_c, 0, 70, 71
4, 19378, Note_on_c, 0, 51, 58
4, 19379, Note_on_c, 0, 61, 63
4, 19379, Note_on_c, 0, 58, 58
4, 19379, Note_on_c, 0, 54, 48
4, 19391, Control_c, 0, 64, 127
4, 19399, Note_on_c, 0, 58, 0
4, 19402, Note_on_c, 0, 61, 0
4, 19403, Note_on_c, 0, 51, 0
4, 19404, Note_on_c, 0, 54, 0
4, 19406, Note_on_c, 0, 63, 0
4, 19408, Note_on_c, 0, 66, 0
4, 19411, Note_on_c, 0, 73, 0
4, 19413, Note_on_c, 0, 70, 0
4, 19441, Note_on_c, 0, 75, 79
4, 19442, Note_on_c, 0, 72, 80
4, 19442, Note_on_c, 0, 68, 83
4, 19443, Note_on_c, 0, 60, 72
4, 19443, Note_on_c, 0, 53, 61
4, 19444, Note_on_c, 0, 49, 56
4, 19444, Note_on_c, 0, 56, 50
4, 19445, Note_on_c, 0, 65, 73
4, 19446, Control_c, 0, 64, 0
4, 19448, Note_on_c, 0, 65, 0
4, 19454, Note_on_c, 0, 65, 17
4, 19468, Control_c, 0, 64, 127
4, 19484, Note_on_c, 0, 75, 0
4, 19501, Note_on_c, 0, 75, 82
4, 19505, Note_on_c, 0, 73, 23
4, 19515, Note_on_c, 0, 65, 0
4, 19518, Note_on_c, 0, 60, 0
4, 19519, Note_on_c, 0, 72, 0
4, 19520, Note_on_c, 0, 68, 0
4, 19521, Note_on_c, 0, 56, 0
4, 19522, Note_on_c, 0, 73, 0
4, 19524, Note_on_c, 0, 53, 0
4, 19526, Note_on_c, 0, 75, 0
4, 19532, Note_on_c, 0, 49, 0
4, 19562, Note_on_c, 0, 77, 60
4, 19563, Note_on_c, 0, 48, 33
4, 19563, Note_on_c, 0, 58, 45
4, 19563, Control_c, 0, 64, 0
4, 19564, Note_on_c, 0, 70, 69
4, 19565, Note_on_c, 0, 67, 67
4, 19582, Control_c, 0, 64, 127
4, 19611, Note_on_c, 0, 67, 0
4, 19611, Note_on_c, 0, 58, 0
4, 19613, Note_on_c, 0, 48, 0
4, 19614, Note_on_c, 0, 70, 0
4, 19619, Note_on_c, 0, 77, 0
4, 19620, Note_on_c, 0, 55, 55
4, 19629, Note_on_c, 0, 55, 0
4, 19649, Note_on_c, 0, 72, 66
4, 19664, Note_on_c, 0, 72, 0
4, 19678, Note_on_c, 0, 79, 84
4, 19679, Note_on_c, 0, 68, 87
4, 19679, Note_on_c, 0, 72, 88
4, 19680, Note_on_c, 0, 75, 69
4, 19680, Note_on_c, 0, 67, 88
4, 19680, Control_c, 0, 64, 0
4, 19710, Control_c, 0, 64, 127
4, 19711, Note_on_c, 0, 66, 71
4, 19713, Note_on_c, 0, 67, 0
4, 19714, Note_on_c, 0, 68, 0
4, 19715, Note_on_c, 0, 75, 0
4, 19715, Note_on_c, 0, 72, 0
4, 19720, Note_on_c, 0, 79, 0
4, 19737, Note_on_c, 0, 66, 0
4, 19739, Note_on_c, 0, 68, 73
4, 19739, Note_on_c, 0, 72, 81
4, 19739, Control_c, 0, 64, 0
4, 19740, Note_on_c, 0, 77, 66
4, 19740, Note_on_c, 0, 65, 74
4, 19752, Note_on_c, 0, 65, 0
4, 19753, Control_c, 0, 64, 127
4, 19772, Note_on_c, 0, 75, 12
4, 19775, Note_on_c, 0, 72, 0
4, 19777, Note_on_c, 0, 77, 0
4, 19779, Note_on_c, 0, 75, 0
4, 19780, Note_on_c, 0, 68, 0
4, 19798, Note_on_c, 0, 80, 72
4, 19798, Note_on_c, 0, 70, 78
4, 19799, Note_on_c, 0, 77, 64
4, 19799, Note_on_c, 0, 73, 52
4, 19799, Note_on_c, 0, 46, 56
4, 19800, Note_on_c, 0, 56, 64
4, 19803, Control_c, 0, 64, 0
4, 19825, Control_c, 0, 64, 127
4, 19852, Note_on_c, 0, 56, 0
4, 19852, Note_on_c, 0, 53, 44
4, 19855, Note_on_c, 0, 46, 0
4, 19858, Note_on_c, 0, 53, 0
4, 19873, Note_on_c, 0, 70, 0
4, 19875, Note_on_c, 0, 77, 0
4, 19878, Note_on_c, 0, 73, 0
4, 19879, Note_on_c, 0, 80, 0
4, 19910, Note_on_c, 0, 82, 69
4, 19910, Note_on_c, 0, 61, 45
4, 19910, Note_on_c, 0, 73, 51
4, 19911, Note_on_c, 0, 78, 57
4, 19911, Note_on_c, 0, 51, 31
4, 19912, Note_on_c, 0, 54, 46
4, 19912, Note_on_c, 0, 58, 40
4, 19914, Control_c, 0, 64, 0
4, 19935, Control_c, 0, 64, 127
4, 19963, Note_on_c, 0, 82, 0
4, 19973, Note_on_c, 0, 51, 0
4, 19973, Note_on_c, 0, 54, 0
4, 19974, Note_on_c, 0, 58, 0
4, 19976, Note_on_c, 0, 82, 62
4, 19978, Note_on_c, 0, 61, 0
4, 19984, Note_on_c, 0, 78, 0
4, 19986, Note_on_c, 0, 73, 0
4, 19989, Note_on_c, 0, 82, 0
4, 20091, Control_c, 0, 64, 0
4, 20092, Note_on_c, 0, 84, 49
4, 20093, Note_on_c, 0, 76, 60
4, 20094, Note_on_c, 0, 72, 54
4, 20094, Note_on_c, 0, 65, 56
4, 20094, Note_on_c, 0, 81, 49
4, 20095, Note_on_c, 0, 80, 29
4, 20095, Note_on_c, 0, 83, 43
4, 20095, Note_on_c, 0, 60, 44
4, 20096, Note_on_c, 0, 54, 34
4, 20108, Control_c, 0, 64, 127
4, 20112, Note_on_c, 0, 81, 0
4, 20113, Note_on_c, 0, 84, 0
4, 20114, Note_on_c, 0, 65, 0
4, 20114, Note_on_c, 0, 83, 0
4, 20115, Note_on_c, 0, 76, 0
4, 20117, Note_on_c, 0, 80, 0
4, 20118, Note_on_c, 0, 60, 0
4, 20121, Note_on_c, 0, 72, 0
4, 20126, Note_on_c, 0, 54, 0
4, 20132, Note_on_c, 0, 78, 23
4, 20143, Note_on_c, 0, 78, 0
4, 20155, Note_on_c, 0, 68, 40
4, 20155, Note_on_c, 0, 63, 46
4, 20156, Note_on_c, 0, 75, 39
4, 20156, Note_on_c, 0, 80, 25
4, 20157, Control_c, 0, 64, 0
4, 20157, Note_on_c, 0, 77, 36
4, 20159, Note_on_c, 0, 58, 37
4, 20159, Note_on_c, 0, 53, 35
4, 20176, Control_c, 0, 64, 127
4, 20187, Note_on_c, 0, 75, 0
4, 20189, Note_on_c, 0, 77, 0
4, 20191, Note_on_c, 0, 80, 0
4, 20196, Note_on_c, 0, 68, 0
4, 20204, Note_on_c, 0, 63, 0
4, 20209, Note_on_c, 0, 58, 0
4, 20211, Note_on_c, 0, 53, 0
4, 20222, Note_on_c, 0, 77, 35
4, 20223, Note_on_c, 0, 63, 33
4, 20224, Note_on_c, 0, 65, 24
4, 20224, Note_on_c, 0, 72, 45
4, 20226, Note_on_c, 0, 53, 30
4, 20229, Note_on_c, 0, 58, 23
4, 20235, Note_on_c, 0, 65, 0
4, 20247, Note_on_c, 0, 72, 0
4, 20254, Note_on_c, 0, 53, 0
4, 20259, Note_on_c, 0, 63, 0
4, 20260, Note_on_c, 0, 58, 0
4, 20269, Note_on_c, 0, 77, 0
4, 20326, Note_on_c, 0, 63, 35
4, 20328, Note_on_c, 0, 53, 29
4, 20331, Note_on_c, 0, 58, 27
4, 20350, Note_on_c, 0, 53, 0
4, 20362, Note_on_c, 0, 63, 0
4, 20363, Note_on_c, 0, 58, 0
4, 20396, Note_on_c, 0, 65, 42
4, 20396, Note_on_c, 0, 54, 31
4, 20398, Note_on_c, 0, 60, 47
4, 20398, Control_c, 0, 64, 0
4, 20432, Note_on_c, 0, 96, 80
4, 20440, Note_on_c, 0, 96, 0
4, 20451, Note_on_c, 0, 101, 94
4, 20464, Note_on_c, 0, 101, 0
4, 20470, Note_on_c, 0, 99, 77
4, 20482, Note_on_c, 0, 99, 0
4, 20487, Note_on_c, 0, 96, 78
4, 20497, Note_on_c, 0, 96, 0
4, 20504, Note_on_c, 0, 90, 53
4, 20506, Note_on_c, 0, 65, 0
4, 20508, Note_on_c, 0, 60, 0
4, 20515, Note_on_c, 0, 90, 0
4, 20522, Note_on_c, 0, 89, 54
4, 20533, Note_on_c, 0, 89, 0
4, 20544, Note_on_c, 0, 87, 53
4, 20546, Note_on_c, 0, 65, 47
4, 20549, Note_on_c, 0, 60, 36
4, 20552, Note_on_c, 0, 87, 0
4, 20583, Note_on_c, 0, 89, 68
4, 20591, Control_c, 0, 64, 127
4, 20595, Note_on_c, 0, 65, 0
4, 20597, Note_on_c, 0, 89, 0
4, 20603, Note_on_c, 0, 60, 0
4, 20604, Control_c, 0, 64, 0
4, 20610, Note_on_c, 0, 87, 77
4, 20620, Note_on_c, 0, 54, 0
4, 20624, Note_on_c, 0, 87, 0
4, 20630, Note_on_c, 0, 85, 64
4, 20635, Control_c, 0, 64, 127
4, 20640, Note_on_c, 0, 85, 0
4, 20650, Control_c, 0, 64, 0
4, 20653, Note_on_c, 0, 83, 48
4, 20654, Note_on_c, 0, 63, 34
4, 20657, Note_on_c, 0, 59, 36
4, 20660, Note_on_c, 0, 53, 24
4, 20662, Note_on_c, 0, 56, 14
4, 20673, Note_on_c, 0, 83, 0
4, 20681, Note_on_c, 0, 80, 50
4, 20690, Note_on_c, 0, 80, 0
4, 20709, Note_on_c, 0, 80, 50
4, 20721, Note_on_c, 0, 80, 0
4, 20729, Note_on_c, 0, 63, 0
4, 20734, Note_on_c, 0, 59, 0
4, 20734, Control_c, 0, 64, 127
4, 20735, Note_on_c, 0, 80, 51
4, 20746, Note_on_c, 0, 80, 0
4, 20761, Note_on_c, 0, 80, 53
4, 20762, Note_on_c, 0, 63, 29
4, 20764, Note_on_c, 0, 59, 38
4, 20764, Control_c, 0, 64, 0
4, 20780, Note_on_c, 0, 80, 0
4, 20784, Note_on_c, 0, 82, 50
4, 20796, Note_on_c, 0, 80, 45
4, 20799, Note_on_c, 0, 82, 0
4, 20812, Note_on_c, 0, 80, 0
4, 20812, Note_on_c, 0, 79, 38
4, 20819, Note_on_c, 0, 79, 0
4, 20831, Note_on_c, 0, 59, 0
4, 20831, Note_on_c, 0, 80, 67
4, 20841, Note_on_c, 0, 80, 0
4, 20842, Note_on_c, 0, 53, 0
4, 20845, Note_on_c, 0, 82, 49
4, 20854, Note_on_c, 0, 63, 0
4, 20856, Control_c, 0, 64, 127
4, 20856, Note_on_c, 0, 80, 35
4, 20861, Note_on_c, 0, 82, 0
4, 20861, Note_on_c, 0, 56, 0
4, 20871, Note_on_c, 0, 80, 0
4, 20872, Note_on_c, 0, 79, 37
4, 20879, Control_c, 0, 64, 0
4, 20880, Note_on_c, 0, 79, 0
4, 20881, Note_on_c, 0, 63, 29
4, 20884, Note_on_c, 0, 58, 37
4, 20884, Note_on_c, 0, 52, 44
4, 20888, Note_on_c, 0, 80, 53
4, 20910, Note_on_c, 0, 80, 0
4, 20915, Note_on_c, 0, 79, 43
4, 20922, Control_c, 0, 64, 127
4, 20943, Note_on_c, 0, 79, 0
4, 20944, Note_on_c, 0, 76, 47
4, 20952, Note_on_c, 0, 63, 0
4, 20953, Note_on_c, 0, 58, 0
4, 20961, Note_on_c, 0, 76, 0
4, 20968, Note_on_c, 0, 73, 54
4, 20988, Note_on_c, 0, 73, 0
4, 20990, Control_c, 0, 64, 0
4, 20993, Note_on_c, 0, 63, 25
4, 20994, Note_on_c, 0, 58, 30
4, 20996, Note_on_c, 0, 72, 48
4, 21009, Note_on_c, 0, 72, 0
4, 21021, Note_on_c, 0, 70, 67
4, 21039, Note_on_c, 0, 70, 0
4, 21039, Note_on_c, 0, 63, 0
4, 21047, Note_on_c, 0, 68, 70
4, 21048, Control_c, 0, 64, 127
4, 21048, Note_on_c, 0, 63, 32
4, 21064, Note_on_c, 0, 68, 0
4, 21071, Note_on_c, 0, 52, 0
4, 21074, Note_on_c, 0, 58, 0
4, 21075, Note_on_c, 0, 67, 43
4, 21076, Note_on_c, 0, 63, 0
4, 21094, Note_on_c, 0, 67, 0
4, 21104, Control_c, 0, 64, 0
4, 21105, Note_on_c, 0, 68, 45
4, 21108, Note_on_c, 0, 60, 30
4, 21109, Note_on_c, 0, 56, 25
4, 21109, Note_on_c, 0, 53, 36
4, 21122, Control_c, 0, 64, 127
4, 21140, Note_on_c, 0, 68, 0
4, 21141, Note_on_c, 0, 53, 0
4, 21149, Note_on_c, 0, 60, 0
4, 21154, Note_on_c, 0, 56, 0
4, 21182, Note_on_c, 0, 67, 99
4, 21187, Note_on_c, 0, 61, 37
4, 21188, Control_c, 0, 64, 0
4, 21190, Note_on_c, 0, 61, 0
4, 21196, Control_c, 0, 64, 127
4, 21239, Note_on_c, 0, 72, 92
4, 21239, Note_on_c, 0, 68, 95
4, 21273, Note_on_c, 0, 67, 0
4, 21292, Note_on_c, 0, 68, 0
4, 21295, Note_on_c, 0, 72, 0
4, 21300, Note_on_c, 0, 68, 83
4, 21300, Note_on_c, 0, 74, 82
4, 21301, Note_on_c, 0, 65, 95
4, 21303, Control_c, 0, 64, 0
4, 21303, Note_on_c, 0, 72, 50
4, 21306, Note_on_c, 0, 72, 0
4, 21317, Control_c, 0, 64, 127
4, 21334, Note_on_c, 0, 74, 0
4, 21343, Note_on_c, 0, 68, 0
4, 21354, Note_on_c, 0, 65, 0
4, 21356, Note_on_c, 0, 76, 75
4, 21357, Note_on_c, 0, 72, 74
4, 21357, Note_on_c, 0, 64, 90
4, 21358, Note_on_c, 0, 68, 80
4, 21358, Note_on_c, 0, 65, 87
4, 21361, Control_c, 0, 64, 0
4, 21380, Control_c, 0, 64, 127
4, 21405, Note_on_c, 0, 64, 0
4, 21415, Note_on_c, 0, 64, 89
4, 21432, Note_on_c, 0, 72, 0
4, 21433, Note_on_c, 0, 76, 0
4, 21436, Note_on_c, 0, 68, 0
4, 21440, Note_on_c, 0, 65, 0
4, 21475, Note_on_c, 0, 77, 74
4, 21475, Note_on_c, 0, 63, 86
4, 21476, Note_on_c, 0, 68, 85
4, 21476, Note_on_c, 0, 72, 88
4, 21476, Control_c, 0, 64, 0
4, 21482, Note_on_c, 0, 64, 0
4, 21497, Control_c, 0, 64, 127
4, 21525, Note_on_c, 0, 63, 0
4, 21537, Note_on_c, 0, 63, 71
4, 21542, Note_on_c, 0, 77, 0
4, 21543, Note_on_c, 0, 68, 0
4, 21547, Note_on_c, 0, 63, 0
4, 21550, Note_on_c, 0, 72, 0
4, 21595, Note_on_c, 0, 79, 73
4, 21597, Note_on_c, 0, 72, 83
4, 21597, Control_c, 0, 64, 0
4, 21598, Note_on_c, 0, 68, 72
4, 21599, Note_on_c, 0, 60, 72
4, 21599, Note_on_c, 0, 50, 62
4, 21600, Note_on_c, 0, 75, 35
4, 21624, Control_c, 0, 64, 127
4, 21659, Note_on_c, 0, 56, 53
4, 21660, Note_on_c, 0, 72, 0
4, 21666, Note_on_c, 0, 60, 0
4, 21677, Note_on_c, 0, 68, 0
4, 21684, Note_on_c, 0, 75, 0
4, 21715, Note_on_c, 0, 68, 38
4, 21716, Note_on_c, 0, 60, 39
4, 21716, Note_on_c, 0, 72, 53
4, 21722, Note_on_c, 0, 79, 0
4, 21744, Note_on_c, 0, 50, 0
4, 21745, Note_on_c, 0, 72, 0
4, 21768, Note_on_c, 0, 68, 0
4, 21775, Note_on_c, 0, 60, 0
4, 21775, Note_on_c, 0, 50, 38
4, 21777, Note_on_c, 0, 80, 63
4, 21786, Note_on_c, 0, 50, 0
4, 21790, Note_on_c, 0, 80, 0
4, 21815, Note_on_c, 0, 56, 0
4, 21833, Control_c, 0, 64, 0
4, 21835, Note_on_c, 0, 82, 61
4, 21837, Note_on_c, 0, 75, 60
4, 21838, Note_on_c, 0, 71, 55
4, 21839, Note_on_c, 0, 49, 38
4, 21839, Note_on_c, 0, 59, 36
4, 21853, Control_c, 0, 64, 127
4, 21895, Note_on_c, 0, 59, 0
4, 21899, Note_on_c, 0, 71, 0
4, 21906, Note_on_c, 0, 49, 0
4, 21907, Note_on_c, 0, 75, 0
4, 21911, Note_on_c, 0, 82, 0
4, 21956, Note_on_c, 0, 75, 56
4, 21957, Note_on_c, 0, 84, 55
4, 21957, Note_on_c, 0, 80, 40
4, 21958, Control_c, 0, 64, 0
4, 21959, Note_on_c, 0, 56, 32
4, 21960, Note_on_c, 0, 48, 38
4, 21973, Control_c, 0, 64, 127
4, 21984, Note_on_c, 0, 84, 0
4, 21996, Note_on_c, 0, 80, 0
4, 21997, Note_on_c, 0, 75, 0
4, 22013, Note_on_c, 0, 48, 0
4, 22030, Note_on_c, 0, 56, 0
4, 22082, Note_on_c, 0, 74, 44
4, 22083, Note_on_c, 0, 62, 37
4, 22084, Note_on_c, 0, 66, 37
4, 22084, Control_c, 0, 64, 0
4, 22086, Note_on_c, 0, 57, 33
4, 22087, Note_on_c, 0, 47, 40
4, 22101, Control_c, 0, 64, 127
4, 22127, Note_on_c, 0, 62, 0
4, 22135, Note_on_c, 0, 74, 0
4, 22143, Note_on_c, 0, 66, 0
4, 22148, Note_on_c, 0, 57, 0
4, 22201, Note_on_c, 0, 57, 27
4, 22210, Control_c, 0, 64, 0
4, 22215, Note_on_c, 0, 62, 50
4, 22226, Note_on_c, 0, 62, 0
4, 22227, Note_on_c, 0, 64, 58
4, 22237, Note_on_c, 0, 47, 0
4, 22239, Note_on_c, 0, 64, 0
4, 22239, Note_on_c, 0, 66, 53
4, 22247, Note_on_c, 0, 57, 0
4, 22250, Note_on_c, 0, 66, 0
4, 22252, Note_on_c, 0, 68, 56
4, 22258, Note_on_c, 0, 68, 0
4, 22265, Note_on_c, 0, 69, 62
4, 22269, Note_on_c, 0, 69, 0
4, 22278, Note_on_c, 0, 71, 60
4, 22285, Note_on_c, 0, 71, 0
4, 22294, Note_on_c, 0, 73, 43
4, 22301, Note_on_c, 0, 73, 0
4, 22308, Note_on_c, 0, 74, 62
4, 22318, Note_on_c, 0, 74, 0
4, 22323, Note_on_c, 0, 75, 62
4, 22331, Note_on_c, 0, 62, 26
4, 22332, Note_on_c, 0, 67, 34
4, 22333, Note_on_c, 0, 56, 25
4, 22334, Note_on_c, 0, 75, 0
4, 22340, Note_on_c, 0, 76, 40
4, 22362, Note_on_c, 0, 76, 0
4, 22365, Note_on_c, 0, 67, 0
4, 22369, Note_on_c, 0, 62, 0
4, 22375, Note_on_c, 0, 56, 0
4, 22448, Note_on_c, 0, 67, 31
4, 22449, Note_on_c, 0, 62, 34
4, 22451, Note_on_c, 0, 56, 21
4, 22459, Note_on_c, 0, 67, 0
4, 22461, Note_on_c, 0, 62, 0
4, 22469, Note_on_c, 0, 56, 0
4, 22483, Note_on_c, 0, 84, 58
4, 22491, Note_on_c, 0, 84, 0
4, 22491, Note_on_c, 0, 85, 71
4, 22501, Note_on_c, 0, 84, 54
4, 22504, Note_on_c, 0, 85, 0
4, 22514, Note_on_c, 0, 84, 0
4, 22517, Note_on_c, 0, 82, 34
4, 22521, Note_on_c, 0, 82, 0
4, 22536, Note_on_c, 0, 84, 68
4, 22545, Note_on_c, 0, 84, 0
4, 22555, Note_on_c, 0, 85, 77
4, 22564, Note_on_c, 0, 85, 0
4, 22578, Note_on_c, 0, 87, 63
4, 22583, Note_on_c, 0, 87, 0
4, 22622, Note_on_c, 0, 68, 71
4, 22623, Note_on_c, 0, 75, 64
4, 22623, Note_on_c, 0, 72, 73
4, 22625, Note_on_c, 0, 65, 59
4, 22625, Note_on_c, 0, 63, 43
4, 22625, Note_on_c, 0, 61, 47
4, 22628, Note_on_c, 0, 68, 0
4, 22629, Note_on_c, 0, 65, 0
4, 22630, Note_on_c, 0, 72, 0
4, 22631, Note_on_c, 0, 75, 0
4, 22632, Note_on_c, 0, 63, 0
4, 22635, Note_on_c, 0, 61, 0
4, 22656, Note_on_c, 0, 75, 82
4, 22656, Note_on_c, 0, 68, 78
4, 22657, Note_on_c, 0, 72, 68
4, 22658, Note_on_c, 0, 61, 56
4, 22658, Note_on_c, 0, 65, 70
4, 22659, Note_on_c, 0, 63, 49
4, 22660, Note_on_c, 0, 68, 0
4, 22661, Note_on_c, 0, 72, 0
4, 22662, Note_on_c, 0, 65, 0
4, 22663, Note_on_c, 0, 75, 0
4, 22664, Note_on_c, 0, 63, 0
4, 22665, Note_on_c, 0, 61, 0
4, 22690, Note_on_c, 0, 61, 64
4, 22690, Note_on_c, 0, 75, 75
4, 22691, Note_on_c, 0, 68, 71
4, 22691, Note_on_c, 0, 72, 75
4, 22691, Note_on_c, 0, 63, 53
4, 22692, Note_on_c, 0, 65, 66
4, 22694, Note_on_c, 0, 72, 0
4, 22694, Note_on_c, 0, 68, 0
4, 22695, Note_on_c, 0, 63, 0
4, 22695, Note_on_c, 0, 65, 0
4, 22697, Note_on_c, 0, 61, 0
4, 22698, Note_on_c, 0, 75, 0
4, 22724, Note_on_c, 0, 68, 71
4, 22724, Note_on_c, 0, 75, 60
4, 22724, Note_on_c, 0, 72, 71
4, 22725, Note_on_c, 0, 65, 64
4, 22725, Note_on_c, 0, 61, 50
4, 22725, Note_on_c, 0, 63, 45
4, 22728, Note_on_c, 0, 72, 0
4, 22729, Note_on_c, 0, 65, 0
4, 22729, Note_on_c, 0, 75, 0
4, 22730, Note_on_c, 0, 68, 0
4, 22730, Note_on_c, 0, 61, 0
4, 22732, Note_on_c, 0, 63, 0
4, 22758, Note_on_c, 0, 68, 64
4, 22759, Note_on_c, 0, 72, 66
4, 22759, Note_on_c, 0, 75, 51
4, 22759, Note_on_c, 0, 63, 52
4, 22760, Note_on_c, 0, 61, 42
4, 22762, Note_on_c, 0, 72, 0
4, 22763, Note_on_c, 0, 68, 0
4, 22763, Note_on_c, 0, 75, 0
4, 22764, Note_on_c, 0, 61, 0
4, 22767, Note_on_c, 0, 63, 0
4, 22789, Note_on_c, 0, 61, 52
4, 22791, Note_on_c, 0, 68, 67
4, 22792, Note_on_c, 0, 72, 49
4, 22793, Note_on_c, 0, 75, 34
4, 22796, Note_on_c, 0, 72, 0
4, 22796, Note_on_c, 0, 61, 0
4, 22797, Note_on_c, 0, 75, 0
4, 22798, Note_on_c, 0, 68, 0
4, 22821, Note_on_c, 0, 67, 50
4, 22821, Note_on_c, 0, 61, 29
4, 22821, Note_on_c, 0, 75, 45
4, 22821, Note_on_c, 0, 55, 35
4, 22822, Note_on_c, 0, 64, 36
4, 22822, Note_on_c, 0, 71, 41
4, 22829, Note_on_c, 0, 67, 0
4, 22831, Note_on_c, 0, 64, 0
4, 22831, Note_on_c, 0, 71, 0
4, 22833, Note_on_c, 0, 75, 0
4, 22834, Note_on_c, 0, 55, 0
4, 22835, Note_on_c, 0, 61, 0
4, 22844, Control_c, 0, 64, 127
4, 22857, Note_on_c, 0, 75, 43
4, 22857, Note_on_c, 0, 71, 36
4, 22857, Note_on_c, 0, 61, 32
4, 22858, Note_on_c, 0, 67, 36
4, 22858, Note_on_c, 0, 64, 36
4, 22858, Note_on_c, 0, 55, 37
4, 22896, Note_on_c, 0, 61, 0
4, 22897, Note_on_c, 0, 64, 0
4, 22907, Note_on_c, 0, 67, 0
4, 22908, Note_on_c, 0, 71, 0
4, 22912, Note_on_c, 0, 75, 0
4, 22931, Note_on_c, 0, 75, 37
4, 22931, Note_on_c, 0, 64, 35
4, 22933, Note_on_c, 0, 61, 28
4, 22933, Note_on_c, 0, 67, 37
4, 22933, Note_on_c, 0, 71, 32
4, 22941, Note_on_c, 0, 64, 0
4, 22946, Note_on_c, 0, 61, 0
4, 22953, Note_on_c, 0, 55, 0
4, 22953, Note_on_c, 0, 71, 0
4, 22954, Note_on_c, 0, 75, 0
4, 22960, Note_on_c, 0, 67, 0
4, 23042, Note_on_c, 0, 67, 91
4, 23044, Note_on_c, 0, 60, 91
4, 23044, Note_on_c, 0, 62, 76
4, 23045, Note_on_c, 0, 56, 86
4, 23047, Control_c, 0, 64, 0
4, 23059, Note_on_c, 0, 56, 0
4, 23066, Note_on_c, 0, 56, 31
4, 23068, Note_on_c, 0, 60, 0
4, 23069, Note_on_c, 0, 67, 0
4, 23069, Control_c, 0, 64, 127
4, 23071, Note_on_c, 0, 62, 0
4, 23078, Note_on_c, 0, 56, 0
4, 23079, Note_on_c, 0, 60, 61
4, 23080, Note_on_c, 0, 67, 30
4, 23081, Note_on_c, 0, 62, 40
4, 23088, Note_on_c, 0, 56, 46
4, 23089, Note_on_c, 0, 67, 0
4, 23091, Note_on_c, 0, 60, 0
4, 23093, Note_on_c, 0, 62, 0
4, 23100, Note_on_c, 0, 56, 0
4, 23101, Note_on_c, 0, 60, 64
4, 23102, Note_on_c, 0, 62, 27
4, 23112, Note_on_c, 0, 56, 39
4, 23113, Note_on_c, 0, 60, 0
4, 23114, Note_on_c, 0, 62, 0
4, 23123, Note_on_c, 0, 56, 0
4, 23123, Note_on_c, 0, 60, 50
4, 23125, Note_on_c, 0, 67, 27
4, 23125, Note_on_c, 0, 62, 41
4, 23134, Note_on_c, 0, 56, 55
4, 23135, Note_on_c, 0, 67, 0
4, 23136, Note_on_c, 0, 60, 0
4, 23137, Note_on_c, 0, 62, 0
4, 23145, Note_on_c, 0, 60, 66
4, 23146, Note_on_c, 0, 56, 0
4, 23146, Note_on_c, 0, 55, 105
4, 23147, Note_on_c, 0, 67, 38
4, 23148, Note_on_c, 0, 62, 53
4, 23156, Note_on_c, 0, 56, 63
4, 23157, Note_on_c, 0, 67, 0
4, 23159, Note_on_c, 0, 62, 0
4, 23159, Note_on_c, 0, 60, 0
4, 23167, Note_on_c, 0, 56, 0
4, 23169, Note_on_c, 0, 60, 64
4, 23169, Note_on_c, 0, 62, 51
4, 23169, Note_on_c, 0, 67, 29
4, 23174, Note_on_c, 0, 67, 0
4, 23177, Note_on_c, 0, 56, 60
4, 23179, Note_on_c, 0, 62, 0
4, 23180, Note_on_c, 0, 60, 0
4, 23188, Note_on_c, 0, 56, 0
4, 23189, Note_on_c, 0, 62, 40
4, 23190, Note_on_c, 0, 67, 28
4, 23190, Note_on_c, 0, 60, 60
4, 23198, Note_on_c, 0, 67, 0
4, 23199, Note_on_c, 0, 56, 57
4, 23200, Note_on_c, 0, 62, 0
4, 23203, Note_on_c, 0, 60, 0
4, 23209, Note_on_c, 0, 67, 34
4, 23210, Note_on_c, 0, 56, 0
4, 23211, Note_on_c, 0, 62, 51
4, 23211, Note_on_c, 0, 60, 56
4, 23215, Note_on_c, 0, 55, 0
4, 23216, Note_on_c, 0, 52, 91
4, 23218, Note_on_c, 0, 67, 0
4, 23220, Note_on_c, 0, 56, 56
4, 23220, Control_c, 0, 64, 0
4, 23223, Note_on_c, 0, 60, 0
4, 23223, Note_on_c, 0, 62, 0
4, 23231, Note_on_c, 0, 56, 0
4, 23232, Note_on_c, 0, 60, 54
4, 23233, Note_on_c, 0, 62, 48
4, 23240, Note_on_c, 0, 62, 0
4, 23240, Note_on_c, 0, 56, 51
4, 23244, Note_on_c, 0, 60, 0
4, 23245, Control_c, 0, 64, 127
4, 23250, Note_on_c, 0, 67, 20
4, 23251, Note_on_c, 0, 56, 0
4, 23254, Note_on_c, 0, 60, 46
4, 23254, Note_on_c, 0, 62, 36
4, 23255, Note_on_c, 0, 67, 0
4, 23260, Note_on_c, 0, 56, 51
4, 23261, Note_on_c, 0, 62, 0
4, 23264, Note_on_c, 0, 60, 0
4, 23272, Note_on_c, 0, 56, 0
4, 23276, Note_on_c, 0, 62, 31
4, 23276, Note_on_c, 0, 60, 42
4, 23281, Note_on_c, 0, 62, 0
4, 23282, Note_on_c, 0, 56, 51
4, 23285, Note_on_c, 0, 60, 0
4, 23294, Note_on_c, 0, 56, 0
4, 23295, Note_on_c, 0, 60, 50
4, 23296, Note_on_c, 0, 67, 24
4, 23302, Note_on_c, 0, 67, 0
4, 23306, Note_on_c, 0, 56, 46
4, 23307, Note_on_c, 0, 60, 0
4, 23318, Note_on_c, 0, 56, 0
4, 23318, Note_on_c, 0, 60, 44
4, 23320, Note_on_c, 0, 62, 19
4, 23326, Note_on_c, 0, 62, 0
4, 23328, Note_on_c, 0, 56, 46
4, 23329, Note_on_c, 0, 60, 0
4, 23338, Note_on_c, 0, 56, 0
4, 23340, Note_on_c, 0, 60, 49
4, 23341, Note_on_c, 0, 62, 22
4, 23349, Note_on_c, 0, 62, 0
4, 23349, Note_on_c, 0, 56, 48
4, 23351, Note_on_c, 0, 60, 0
4, 23359, Control_c, 0, 64, 0
4, 23360, Note_on_c, 0, 56, 0
4, 23361, Note_on_c, 0, 67, 25
4, 23362, Note_on_c, 0, 60, 50
4, 23362, Note_on_c, 0, 62, 33
4, 23366, Note_on_c, 0, 67, 0
4, 23369, Note_on_c, 0, 56, 51
4, 23370, Note_on_c, 0, 62, 0
4, 23372, Note_on_c, 0, 60, 0
4, 23380, Note_on_c, 0, 56, 0
4, 23381, Note_on_c, 0, 67, 31
4, 23382, Note_on_c, 0, 60, 40
4, 23383, Note_on_c, 0, 62, 28
4, 23386, Note_on_c, 0, 67, 0
4, 23390, Note_on_c, 0, 56, 46
4, 23393, Note_on_c, 0, 55, 72
4, 23395, Note_on_c, 0, 52, 0
4, 23398, Note_on_c, 0, 67, 25
4, 23414, Note_on_c, 0, 60, 0
4, 23415, Note_on_c, 0, 62, 0
4, 23417, Control_c, 0, 64, 127
4, 23420, Note_on_c, 0, 56, 0
4, 23437, Note_on_c, 0, 67, 0
4, 23440, Note_on_c, 0, 56, 23
4, 23450, Note_on_c, 0, 56, 0
4, 23451, Note_on_c, 0, 67, 14
4, 23460, Note_on_c, 0, 67, 0
4, 23461, Note_on_c, 0, 56, 48
4, 23466, Note_on_c, 0, 55, 0
4, 23480, Note_on_c, 0, 68, 60
4, 23497, Note_on_c, 0, 56, 0
4, 23501, Note_on_c, 0, 68, 0
4, 23518, Note_on_c, 0, 55, 48
4, 23520, Note_on_c, 0, 65, 49
4, 23521, Note_on_c, 0, 60, 34
4, 23521, Control_c, 0, 64, 0
4, 23522, Note_on_c, 0, 44, 37
4, 23538, Control_c, 0, 64, 127
4, 23544, Note_on_c, 0, 55, 0
4, 23551, Note_on_c, 0, 44, 0
4, 23552, Note_on_c, 0, 60, 0
4, 23557, Note_on_c, 0, 65, 0
4, 23582, Note_on_c, 0, 58, 35
4, 23595, Note_on_c, 0, 60, 44
4, 23602, Note_on_c, 0, 60, 0
4, 23606, Note_on_c, 0, 63, 49
4, 23611, Note_on_c, 0, 63, 0
4, 23620, Note_on_c, 0, 65, 68
4, 23621, Note_on_c, 0, 60, 22
4, 23630, Note_on_c, 0, 65, 0
4, 23630, Note_on_c, 0, 67, 54
4, 23640, Note_on_c, 0, 67, 0
4, 23642, Note_on_c, 0, 70, 64
4, 23644, Note_on_c, 0, 63, 9
4, 23647, Note_on_c, 0, 70, 0
4, 23653, Note_on_c, 0, 72, 69
4, 23654, Control_c, 0, 64, 0
4, 23660, Note_on_c, 0, 72, 0
4, 23664, Note_on_c, 0, 75, 53
4, 23667, Note_on_c, 0, 75, 0
4, 23675, Note_on_c, 0, 63, 0
4, 23675, Note_on_c, 0, 77, 51
4, 23685, Note_on_c, 0, 77, 0
4, 23685, Note_on_c, 0, 79, 38
4, 23690, Note_on_c, 0, 79, 0
4, 23696, Note_on_c, 0, 82, 57
4, 23703, Note_on_c, 0, 82, 0
4, 23707, Note_on_c, 0, 58, 0
4, 23710, Note_on_c, 0, 84, 54
4, 23716, Note_on_c, 0, 84, 0
4, 23716, Note_on_c, 0, 60, 0
4, 23720, Note_on_c, 0, 87, 46
4, 23724, Note_on_c, 0, 87, 0
4, 23746, Note_on_c, 0, 91, 65
4, 23755, Note_on_c, 0, 91, 0
4, 23802, Note_on_c, 0, 63, 30
4, 23803, Control_c, 0, 64, 127
4, 23806, Note_on_c, 0, 60, 34
4, 23808, Note_on_c, 0, 58, 17
4, 23833, Note_on_c, 0, 75, 59
4, 23834, Note_on_c, 0, 70, 65
4, 23846, Note_on_c, 0, 63, 0
4, 23852, Note_on_c, 0, 75, 0
4, 23852, Note_on_c, 0, 70, 0
4, 23854, Note_on_c, 0, 67, 46
4, 23854, Note_on_c, 0, 72, 50
4, 23862, Note_on_c, 0, 60, 0
4, 23865, Note_on_c, 0, 67, 0
4, 23869, Note_on_c, 0, 72, 0
4, 23874, Control_c, 0, 64, 0
4, 23876, Note_on_c, 0, 75, 57
4, 23877, Note_on_c, 0, 70, 61
4, 23878, Note_on_c, 0, 63, 33
4, 23879, Note_on_c, 0, 60, 36
4, 23890, Control_c, 0, 64, 127
4, 23892, Note_on_c, 0, 75, 0
4, 23895, Note_on_c, 0, 70, 0
4, 23897, Note_on_c, 0, 67, 46
4, 23900, Note_on_c, 0, 60, 0
4, 23900, Note_on_c, 0, 72, 51
4, 23903, Note_on_c, 0, 63, 0
4, 23909, Note_on_c, 0, 67, 0
4, 23913, Note_on_c, 0, 72, 0
4, 23919, Note_on_c, 0, 70, 64
4, 23920, Note_on_c, 0, 75, 67
4, 23923, Note_on_c, 0, 63, 32
4, 23924, Note_on_c, 0, 60, 34
4, 23934, Note_on_c, 0, 75, 0
4, 23938, Note_on_c, 0, 70, 0
4, 23939, Note_on_c, 0, 63, 0
4, 23940, Note_on_c, 0, 58, 0
4, 23941, Note_on_c, 0, 67, 54
4, 23941, Note_on_c, 0, 72, 61
4, 23943, Note_on_c, 0, 60, 0
4, 23953, Note_on_c, 0, 67, 0
4, 23955, Note_on_c, 0, 72, 0
4, 23956, Control_c, 0, 64, 0
4, 23962, Note_on_c, 0, 70, 69
4, 23962, Note_on_c, 0, 63, 35
4, 23962, Note_on_c, 0, 75, 71
4, 23965, Note_on_c, 0, 58, 36
4, 23967, Note_on_c, 0, 63, 0
4, 23969, Control_c, 0, 64, 127
4, 23973, Note_on_c, 0, 58, 0
4, 23977, Note_on_c, 0, 75, 0
4, 23979, Note_on_c, 0, 70, 0
4, 23982, Note_on_c, 0, 67, 54
4, 23983, Note_on_c, 0, 72, 56
4, 23989, Note_on_c, 0, 67, 0
4, 23991, Note_on_c, 0, 72, 0
4, 24004, Note_on_c, 0, 72, 65
4, 24004, Note_on_c, 0, 56, 39
4, 24004, Note_on_c, 0, 50, 43
4, 24004, Note_on_c, 0, 79, 68
4, 24004, Note_on_c, 0, 60, 48
4, 24005, Control_c, 0, 64, 0
4, 24020, Note_on_c, 0, 79, 0
4, 24020, Note_on_c, 0, 72, 0
4, 24023, Note_on_c, 0, 67, 64
4, 24026, Control_c, 0, 64, 127
4, 24026, Note_on_c, 0, 77, 38
4, 24035, Note_on_c, 0, 67, 0
4, 24037, Note_on_c, 0, 60, 0
4, 24040, Note_on_c, 0, 77, 0
4, 24044, Control_c, 0, 64, 0
4, 24047, Note_on_c, 0, 79, 68
4, 24048, Note_on_c, 0, 72, 69
4, 24049, Note_on_c, 0, 60, 35
4, 24058, Note_on_c, 0, 79, 0
4, 24060, Note_on_c, 0, 72, 0
4, 24065, Control_c, 0, 64, 127
4, 24065, Note_on_c, 0, 67, 38
4, 24065, Note_on_c, 0, 77, 30
4, 24067, Note_on_c, 0, 60, 0
4, 24072, Note_on_c, 0, 56, 0
4, 24078, Note_on_c, 0, 67, 0
4, 24082, Note_on_c, 0, 77, 0
4, 24090, Note_on_c, 0, 79, 67
4, 24090, Note_on_c, 0, 72, 68
4, 24092, Note_on_c, 0, 60, 36
4, 24093, Note_on_c, 0, 67, 42
4, 24096, Note_on_c, 0, 56, 19
4, 24102, Note_on_c, 0, 67, 0
4, 24102, Note_on_c, 0, 72, 0
4, 24103, Note_on_c, 0, 79, 0
4, 24110, Note_on_c, 0, 60, 0
4, 24111, Note_on_c, 0, 77, 38
4, 24114, Note_on_c, 0, 56, 0
4, 24123, Note_on_c, 0, 77, 0
4, 24131, Control_c, 0, 64, 0
4, 24132, Note_on_c, 0, 79, 58
4, 24134, Note_on_c, 0, 67, 44
4, 24134, Note_on_c, 0, 72, 47
4, 24135, Note_on_c, 0, 60, 31
4, 24137, Note_on_c, 0, 56, 28
4, 24141, Control_c, 0, 64, 127
4, 24144, Note_on_c, 0, 50, 0
4, 24147, Note_on_c, 0, 79, 0
4, 24147, Note_on_c, 0, 67, 0
4, 24148, Note_on_c, 0, 72, 0
4, 24152, Note_on_c, 0, 77, 55
4, 24167, Note_on_c, 0, 77, 0
4, 24176, Note_on_c, 0, 79, 73
4, 24178, Note_on_c, 0, 50, 31
4, 24178, Note_on_c, 0, 75, 60
4, 24179, Note_on_c, 0, 70, 39
4, 24183, Note_on_c, 0, 50, 0
4, 24184, Note_on_c, 0, 60, 0
4, 24187, Note_on_c, 0, 75, 0
4, 24193, Note_on_c, 0, 79, 0
4, 24193, Note_on_c, 0, 70, 0
4, 24198, Note_on_c, 0, 77, 46
4, 24208, Note_on_c, 0, 56, 0
4, 24213, Note_on_c, 0, 77, 0
4, 24213, Control_c, 0, 64, 0
4, 24218, Note_on_c, 0, 79, 73
4, 24219, Note_on_c, 0, 70, 74
4, 24220, Note_on_c, 0, 59, 48
4, 24221, Note_on_c, 0, 75, 42
4, 24221, Note_on_c, 0, 49, 37
4, 24221, Note_on_c, 0, 53, 46
4, 24224, Note_on_c, 0, 75, 0
4, 24230, Control_c, 0, 64, 127
4, 24236, Note_on_c, 0, 53, 0
4, 24238, Note_on_c, 0, 70, 0
4, 24238, Note_on_c, 0, 49, 0
4, 24241, Note_on_c, 0, 75, 69
4, 24242, Note_on_c, 0, 79, 0
4, 24244, Note_on_c, 0, 59, 0
4, 24252, Note_on_c, 0, 75, 0
4, 24265, Note_on_c, 0, 82, 82
4, 24265, Note_on_c, 0, 75, 82
4, 24266, Note_on_c, 0, 53, 45
4, 24266, Note_on_c, 0, 63, 46
4, 24267, Note_on_c, 0, 59, 57
4, 24268, Control_c, 0, 64, 0
4, 24282, Note_on_c, 0, 75, 0
4, 24285, Note_on_c, 0, 82, 0
4, 24286, Control_c, 0, 64, 127
4, 24287, Note_on_c, 0, 79, 41
4, 24288, Note_on_c, 0, 71, 40
4, 24300, Note_on_c, 0, 71, 0
4, 24303, Note_on_c, 0, 79, 0
4, 24306, Note_on_c, 0, 63, 0
4, 24307, Control_c, 0, 64, 0
4, 24309, Note_on_c, 0, 82, 48
4, 24310, Note_on_c, 0, 75, 60
4, 24323, Note_on_c, 0, 75, 0
4, 24324, Control_c, 0, 64, 127
4, 24325, Note_on_c, 0, 82, 0
4, 24331, Note_on_c, 0, 79, 35
4, 24332, Note_on_c, 0, 71, 24
4, 24334, Note_on_c, 0, 59, 0
4, 24340, Note_on_c, 0, 71, 0
4, 24344, Note_on_c, 0, 79, 0
4, 24350, Note_on_c, 0, 82, 59
4, 24351, Note_on_c, 0, 75, 59
4, 24353, Note_on_c, 0, 63, 33
4, 24354, Note_on_c, 0, 71, 32
4, 24359, Note_on_c, 0, 59, 22
4, 24371, Note_on_c, 0, 82, 0
4, 24373, Note_on_c, 0, 53, 0
4, 24374, Note_on_c, 0, 75, 0
4, 24379, Note_on_c, 0, 71, 0
4, 24383, Note_on_c, 0, 63, 0
4, 24386, Note_on_c, 0, 59, 0
4, 24417, Note_on_c, 0, 79, 65
4, 24418, Note_on_c, 0, 75, 73
4, 24418, Note_on_c, 0, 67, 65
4, 24420, Note_on_c, 0, 63, 50
4, 24422, Note_on_c, 0, 59, 55
4, 24422, Note_on_c, 0, 53, 36
4, 24423, Control_c, 0, 64, 0
4, 24428, Control_c, 0, 64, 127
4, 24435, Note_on_c, 0, 53, 0
4, 24435, Note_on_c, 0, 67, 0
4, 24435, Note_on_c, 0, 63, 0
4, 24436, Note_on_c, 0, 79, 0
4, 24439, Note_on_c, 0, 75, 0
4, 24440, Note_on_c, 0, 59, 0
4, 24446, Note_on_c, 0, 75, 71
4, 24446, Note_on_c, 0, 79, 38
4, 24447, Note_on_c, 0, 67, 60
4, 24448, Note_on_c, 0, 63, 46
4, 24449, Note_on_c, 0, 59, 55
4, 24450, Note_on_c, 0, 77, 28
4, 24451, Note_on_c, 0, 53, 34
4, 24453, Note_on_c, 0, 59, 0
4, 24454, Note_on_c, 0, 67, 0
4, 24454, Note_on_c, 0, 79, 0
4, 24456, Note_on_c, 0, 63, 0
4, 24456, Note_on_c, 0, 77, 0
4, 24458, Note_on_c, 0, 53, 0
4, 24462, Note_on_c, 0, 75, 0
4, 24470, Note_on_c, 0, 80, 59
4, 24471, Note_on_c, 0, 70, 53
4, 24476, Note_on_c, 0, 70, 0
4, 24477, Note_on_c, 0, 80, 0
4, 24493, Note_on_c, 0, 77, 62
4, 24493, Note_on_c, 0, 58, 47
4, 24493, Note_on_c, 0, 65, 66
4, 24494, Control_c, 0, 64, 0
4, 24494, Note_on_c, 0, 48, 43
4, 24512, Control_c, 0, 64, 127
4, 24532, Note_on_c, 0, 58, 0
4, 24533, Note_on_c, 0, 54, 39
4, 24538, Note_on_c, 0, 48, 0
4, 24545, Note_on_c, 0, 54, 0
4, 24555, Note_on_c, 0, 65, 0
4, 24593, Note_on_c, 0, 70, 48
4, 24594, Note_on_c, 0, 65, 51
4, 24595, Note_on_c, 0, 58, 36
4, 24596, Note_on_c, 0, 60, 28
4, 24637, Note_on_c, 0, 70, 0
4, 24639, Note_on_c, 0, 65, 0
4, 24646, Note_on_c, 0, 60, 0
4, 24657, Note_on_c, 0, 58, 0
4, 24665, Note_on_c, 0, 77, 0
4, 24710, Note_on_c, 0, 67, 71
4, 24711, Note_on_c, 0, 56, 61
4, 24712, Note_on_c, 0, 60, 71
4, 24712, Note_on_c, 0, 55, 65
4, 24713, Note_on_c, 0, 63, 44
4, 24716, Control_c, 0, 64, 0
4, 24725, Note_on_c, 0, 60, 0
4, 24725, Note_on_c, 0, 67, 0
4, 24727, Note_on_c, 0, 56, 0
4, 24729, Note_on_c, 0, 63, 0
4, 24736, Note_on_c, 0, 55, 0
4, 24744, Note_on_c, 0, 54, 35
4, 24760, Note_on_c, 0, 54, 0
4, 24769, Note_on_c, 0, 56, 30
4, 24770, Note_on_c, 0, 60, 54
4, 24770, Note_on_c, 0, 53, 37
4, 24770, Note_on_c, 0, 65, 48
4, 24771, Note_on_c, 0, 63, 33
4, 24784, Control_c, 0, 64, 127
4, 24794, Note_on_c, 0, 65, 0
4, 24795, Note_on_c, 0, 60, 0
4, 24795, Note_on_c, 0, 63, 0
4, 24799, Note_on_c, 0, 53, 0
4, 24802, Note_on_c, 0, 56, 0
4, 24829, Note_on_c, 0, 56, 37
4, 24829, Note_on_c, 0, 60, 50
4, 24831, Note_on_c, 0, 53, 27
4, 24833, Control_c, 0, 64, 0
4, 24835, Note_on_c, 0, 48, 16
4, 24848, Control_c, 0, 64, 127
4, 24851, Note_on_c, 0, 53, 0
4, 24858, Note_on_c, 0, 60, 0
4, 24863, Note_on_c, 0, 56, 0
4, 24888, Note_on_c, 0, 48, 0
4, 24962, Note_on_c, 0, 61, 29
4, 24963, Note_on_c, 0, 87, 60
4, 24964, Note_on_c, 0, 51, 31
4, 24965, Note_on_c, 0, 58, 35
4, 24965, Note_on_c, 0, 75, 29
4, 24965, Note_on_c, 0, 54, 34
4, 24969, Control_c, 0, 64, 0
4, 24989, Control_c, 0, 64, 127
4, 25003, Note_on_c, 0, 87, 0
4, 25006, Note_on_c, 0, 75, 0
4, 25011, Note_on_c, 0, 58, 0
4, 25012, Note_on_c, 0, 51, 0
4, 25012, Note_on_c, 0, 54, 0
4, 25016, Note_on_c, 0, 61, 0
4, 25023, Note_on_c, 0, 87, 67
4, 25040, Note_on_c, 0, 87, 0
4, 25083, Note_on_c, 0, 65, 81
4, 25084, Note_on_c, 0, 58, 62
4, 25084, Note_on_c, 0, 61, 53
4, 25084, Note_on_c, 0, 54, 61
4, 25084, Note_on_c, 0, 87, 82
4, 25085, Control_c, 0, 64, 0
4, 25086, Note_on_c, 0, 82, 78
4, 25086, Note_on_c, 0, 75, 74
4, 25094, Control_c, 0, 64, 127
4, 25111, Note_on_c, 0, 75, 0
4, 25111, Note_on_c, 0, 54, 0
4, 25113, Note_on_c, 0, 65, 0
4, 25113, Note_on_c, 0, 82, 0
4, 25115, Note_on_c, 0, 87, 0
4, 25116, Note_on_c, 0, 61, 0
4, 25116, Note_on_c, 0, 58, 0
4, 25126, Note_on_c, 0, 58, 71
4, 25126, Note_on_c, 0, 65, 83
4, 25127, Note_on_c, 0, 54, 73
4, 25127, Note_on_c, 0, 61, 59
4, 25128, Note_on_c, 0, 82, 80
4, 25128, Note_on_c, 0, 89, 74
4, 25129, Note_on_c, 0, 77, 69
4, 25130, Note_on_c, 0, 88, 50
4, 25132, Control_c, 0, 64, 0
4, 25134, Note_on_c, 0, 88, 0
4, 25142, Note_on_c, 0, 89, 0
4, 25146, Note_on_c, 0, 77, 0
4, 25148, Note_on_c, 0, 54, 0
4, 25148, Note_on_c, 0, 82, 0
4, 25149, Note_on_c, 0, 65, 0
4, 25150, Note_on_c, 0, 58, 0
4, 25152, Note_on_c, 0, 61, 0
4, 25164, Note_on_c, 0, 87, 69
4, 25165, Note_on_c, 0, 75, 69
4, 25165, Note_on_c, 0, 65, 75
4, 25165, Note_on_c, 0, 61, 53
4, 25166, Note_on_c, 0, 58, 64
4, 25167, Control_c, 0, 64, 127
4, 25167, Note_on_c, 0, 82, 53
4, 25167, Note_on_c, 0, 54, 47
4, 25170, Note_on_c, 0, 82, 0
4, 25172, Note_on_c, 0, 75, 0
4, 25175, Note_on_c, 0, 87, 0
4, 25176, Note_on_c, 0, 65, 0
4, 25178, Note_on_c, 0, 54, 0
4, 25183, Note_on_c, 0, 61, 0
4, 25191, Note_on_c, 0, 58, 0
4, 25203, Note_on_c, 0, 65, 72
4, 25203, Note_on_c, 0, 89, 75
4, 25204, Note_on_c, 0, 60, 65
4, 25204, Note_on_c, 0, 82, 64
4, 25204, Note_on_c, 0, 54, 64
4, 25204, Note_on_c, 0, 77, 60
4, 25205, Control_c, 0, 64, 0
4, 25205, Note_on_c, 0, 86, 53
4, 25224, Control_c, 0, 64, 127
4, 25278, Note_on_c, 0, 89, 0
4, 25278, Note_on_c, 0, 65, 0
4, 25281, Note_on_c, 0, 86, 0
4, 25283, Note_on_c, 0, 60, 0
4, 25285, Note_on_c, 0, 77, 0
4, 25287, Note_on_c, 0, 54, 0
4, 25297, Note_on_c, 0, 82, 0
4, 25324, Note_on_c, 0, 87, 56
4, 25324, Note_on_c, 0, 64, 46
4, 25325, Note_on_c, 0, 60, 42
4, 25325, Note_on_c, 0, 54, 43
4, 25325, Note_on_c, 0, 82, 47
4, 25326, Note_on_c, 0, 75, 31
4, 25327, Control_c, 0, 64, 0
4, 25342, Control_c, 0, 64, 127
4, 25359, Note_on_c, 0, 87, 0
4, 25362, Note_on_c, 0, 82, 0
4, 25367, Note_on_c, 0, 64, 0
4, 25367, Note_on_c, 0, 75, 0
4, 25376, Note_on_c, 0, 60, 0
4, 25387, Note_on_c, 0, 54, 0
4, 25440, Note_on_c, 0, 59, 46
4, 25441, Note_on_c, 0, 64, 54
4, 25444, Note_on_c, 0, 49, 35
4, 25444, Control_c, 0, 64, 0
4, 25467, Control_c, 0, 64, 127
4, 25513, Note_on_c, 0, 59, 0
4, 25514, Note_on_c, 0, 56, 25
4, 25518, Note_on_c, 0, 64, 0
4, 25541, Note_on_c, 0, 49, 0
4, 25550, Note_on_c, 0, 75, 80
4, 25552, Note_on_c, 0, 56, 0
4, 25565, Note_on_c, 0, 75, 0
4, 25594, Note_on_c, 0, 75, 82
4, 25595, Note_on_c, 0, 64, 79
4, 25596, Note_on_c, 0, 68, 50
4, 25597, Note_on_c, 0, 71, 46
4, 25620, Note_on_c, 0, 71, 0
4, 25620, Note_on_c, 0, 64, 0
4, 25624, Note_on_c, 0, 75, 0
4, 25625, Note_on_c, 0, 68, 0
4, 25630, Note_on_c, 0, 73, 59
4, 25634, Note_on_c, 0, 68, 30
4, 25639, Note_on_c, 0, 68, 0
4, 25658, Note_on_c, 0, 73, 0
4, 25674, Note_on_c, 0, 75, 76
4, 25675, Note_on_c, 0, 68, 64
4, 25675, Note_on_c, 0, 70, 64
4, 25675, Note_on_c, 0, 64, 73
4, 25675, Control_c, 0, 64, 0
4, 25676, Note_on_c, 0, 63, 69
4, 25697, Control_c, 0, 64, 127
4, 25710, Note_on_c, 0, 75, 0
4, 25711, Note_on_c, 0, 64, 0
4, 25712, Note_on_c, 0, 63, 0
4, 25714, Note_on_c, 0, 68, 0
4, 25715, Note_on_c, 0, 70, 0
4, 25720, Note_on_c, 0, 75, 70
4, 25720, Note_on_c, 0, 68, 64
4, 25721, Note_on_c, 0, 63, 63
4, 25721, Note_on_c, 0, 64, 68
4, 25721, Note_on_c, 0, 70, 74
4, 25748, Note_on_c, 0, 64, 0
4, 25752, Note_on_c, 0, 68, 0
4, 25752, Note_on_c, 0, 75, 0
4, 25752, Note_on_c, 0, 70, 0
4, 25757, Note_on_c, 0, 61, 77
4, 25757, Note_on_c, 0, 73, 54
4, 25758, Note_on_c, 0, 63, 0
4, 25758, Note_on_c, 0, 64, 71
4, 25758, Note_on_c, 0, 68, 56
4, 25759, Note_on_c, 0, 70, 60
4, 25772, Note_on_c, 0, 70, 0
4, 25774, Note_on_c, 0, 64, 0
4, 25777, Note_on_c, 0, 68, 0
4, 25782, Note_on_c, 0, 73, 0
4, 25793, Control_c, 0, 64, 0
4, 25793, Note_on_c, 0, 75, 79
4, 25793, Note_on_c, 0, 68, 81
4, 25793, Note_on_c, 0, 70, 80
4, 25793, Note_on_c, 0, 63, 79
4, 25794, Note_on_c, 0, 64, 87
4, 25796, Note_on_c, 0, 73, 23
4, 25801, Note_on_c, 0, 61, 0
4, 25804, Note_on_c, 0, 64, 0
4, 25806, Control_c, 0, 64, 127
4, 25812, Note_on_c, 0, 68, 0
4, 25815, Note_on_c, 0, 73, 0
4, 25816, Note_on_c, 0, 75, 0
4, 25816, Note_on_c, 0, 70, 0
4, 25817, Note_on_c, 0, 63, 0
4, 25826, Note_on_c, 0, 65, 82
4, 25827, Control_c, 0, 64, 0
4, 25827, Note_on_c, 0, 77, 74
4, 25840, Note_on_c, 0, 77, 0
4, 25840, Note_on_c, 0, 65, 0
4, 25853, Control_c, 0, 64, 127
4, 25853, Note_on_c, 0, 63, 67
4, 25854, Note_on_c, 0, 75, 78
4, 25857, Note_on_c, 0, 68, 35
4, 25857, Note_on_c, 0, 64, 38
4, 25859, Note_on_c, 0, 65, 35
4, 25862, Note_on_c, 0, 65, 0
4, 25864, Note_on_c, 0, 63, 0
4, 25866, Note_on_c, 0, 64, 0
4, 25871, Note_on_c, 0, 75, 0
4, 25875, Note_on_c, 0, 68, 0
4, 25882, Note_on_c, 0, 73, 34
4, 25894, Note_on_c, 0, 73, 0
4, 25909, Note_on_c, 0, 75, 55
4, 25911, Note_on_c, 0, 66, 46
4, 25911, Note_on_c, 0, 72, 54
4, 25912, Note_on_c, 0, 58, 46
4, 25912, Note_on_c, 0, 70, 44
4, 25914, Note_on_c, 0, 48, 44
4, 25914, Control_c, 0, 64, 0
4, 25938, Control_c, 0, 64, 127
4, 25964, Note_on_c, 0, 58, 0
4, 25965, Note_on_c, 0, 54, 39
4, 25990, Note_on_c, 0, 72, 0
4, 26004, Note_on_c, 0, 70, 0
4, 26005, Note_on_c, 0, 66, 0
4, 26043, Note_on_c, 0, 66, 27
4, 26044, Note_on_c, 0, 75, 0
4, 26045, Note_on_c, 0, 58, 31
4, 26071, Note_on_c, 0, 66, 0
4, 26075, Note_on_c, 0, 48, 0
4, 26077, Note_on_c, 0, 70, 68
4, 26084, Note_on_c, 0, 54, 0
4, 26087, Note_on_c, 0, 58, 0
4, 26101, Note_on_c, 0, 70, 0
4, 26106, Note_on_c, 0, 72, 57
4, 26108, Note_on_c, 0, 70, 17
4, 26122, Note_on_c, 0, 70, 0
4, 26123, Note_on_c, 0, 72, 0
4, 26134, Note_on_c, 0, 75, 63
4, 26147, Note_on_c, 0, 75, 0
4, 26163, Control_c, 0, 64, 0
4, 26164, Note_on_c, 0, 75, 57
4, 26165, Note_on_c, 0, 63, 38
4, 26166, Note_on_c, 0, 66, 32
4, 26166, Note_on_c, 0, 69, 46
4, 26168, Note_on_c, 0, 72, 32
4, 26171, Note_on_c, 0, 69, 0
4, 26173, Note_on_c, 0, 72, 0
4, 26174, Note_on_c, 0, 66, 0
4, 26175, Control_c, 0, 64, 127
4, 26176, Note_on_c, 0, 63, 0
4, 26178, Note_on_c, 0, 75, 0
4, 26204, Note_on_c, 0, 80, 82
4, 26204, Note_on_c, 0, 72, 83
4, 26205, Note_on_c, 0, 75, 76
4, 26205, Note_on_c, 0, 69, 77
4, 26206, Note_on_c, 0, 68, 75
4, 26209, Note_on_c, 0, 78, 23
4, 26210, Note_on_c, 0, 71, 25
4, 26210, Control_c, 0, 64, 0
4, 26213, Note_on_c, 0, 71, 0
4, 26215, Note_on_c, 0, 78, 0
4, 26229, Control_c, 0, 64, 127
4, 26236, Note_on_c, 0, 72, 0
4, 26236, Note_on_c, 0, 75, 0
4, 26237, Note_on_c, 0, 69, 0
4, 26239, Note_on_c, 0, 80, 0
4, 26243, Note_on_c, 0, 68, 0
4, 26243, Control_c, 0, 64, 0
4, 26244, Note_on_c, 0, 75, 52
4, 26244, Note_on_c, 0, 78, 56
4, 26244, Note_on_c, 0, 66, 65
4, 26245, Note_on_c, 0, 69, 63
4, 26245, Note_on_c, 0, 72, 55
4, 26255, Note_on_c, 0, 72, 0
4, 26256, Control_c, 0, 64, 127
4, 26257, Note_on_c, 0, 75, 0
4, 26258, Note_on_c, 0, 78, 0
4, 26262, Note_on_c, 0, 69, 0
4, 26280, Note_on_c, 0, 66, 0
4, 26284, Note_on_c, 0, 77, 54
4, 26284, Control_c, 0, 64, 0
4, 26285, Note_on_c, 0, 66, 38
4, 26285, Note_on_c, 0, 69, 55
4, 26285, Note_on_c, 0, 65, 62
4, 26288, Note_on_c, 0, 72, 19
4, 26299, Control_c, 0, 64, 127
4, 26309, Note_on_c, 0, 72, 0
4, 26311, Note_on_c, 0, 69, 0
4, 26312, Note_on_c, 0, 77, 0
4, 26314, Note_on_c, 0, 66, 0
4, 26323, Note_on_c, 0, 66, 48
4, 26324, Note_on_c, 0, 65, 0
4, 26324, Note_on_c, 0, 75, 52
4, 26325, Note_on_c, 0, 63, 39
4, 26328, Note_on_c, 0, 72, 44
4, 26329, Note_on_c, 0, 69, 30
4, 26335, Note_on_c, 0, 69, 0
4, 26337, Note_on_c, 0, 75, 0
4, 26342, Note_on_c, 0, 63, 0
4, 26343, Note_on_c, 0, 72, 0
4, 26347, Note_on_c, 0, 66, 0
4, 26361, Note_on_c, 0, 73, 37
4, 26361, Note_on_c, 0, 66, 37
4, 26369, Note_on_c, 0, 66, 0
4, 26389, Note_on_c, 0, 73, 0
4, 26398, Control_c, 0, 64, 0
4, 26400, Note_on_c, 0, 46, 59
4, 26418, Control_c, 0, 64, 127
4, 26433, Note_on_c, 0, 46, 0
4, 26442, Note_on_c, 0, 73, 50
4, 26442, Note_on_c, 0, 61, 63
4, 26443, Note_on_c, 0, 65, 70
4, 26444, Note_on_c, 0, 68, 48
4, 26445, Note_on_c, 0, 60, 57
4, 26448, Control_c, 0, 64, 0
4, 26466, Control_c, 0, 64, 127
4, 26470, Control_c, 0, 64, 0
4, 26471, Note_on_c, 0, 65, 0
4, 26472, Note_on_c, 0, 68, 0
4, 26472, Note_on_c, 0, 73, 0
4, 26472, Note_on_c, 0, 61, 0
4, 26476, Note_on_c, 0, 70, 62
4, 26479, Note_on_c, 0, 60, 0
4, 26479, Note_on_c, 0, 58, 74
4, 26487, Control_c, 0, 64, 127
4, 26490, Note_on_c, 0, 70, 0
4, 26500, Note_on_c, 0, 68, 30
4, 26504, Note_on_c, 0, 68, 0
4, 26510, Note_on_c, 0, 61, 33
4, 26516, Note_on_c, 0, 58, 0
4, 26516, Note_on_c, 0, 75, 85
4, 26516, Note_on_c, 0, 67, 91
4, 26516, Note_on_c, 0, 70, 80
4, 26517, Note_on_c, 0, 64, 89
4, 26517, Note_on_c, 0, 63, 83
4, 26519, Control_c, 0, 64, 0
4, 26522, Note_on_c, 0, 61, 0
4, 26535, Control_c, 0, 64, 127
4, 26551, Note_on_c, 0, 75, 0
4, 26552, Note_on_c, 0, 64, 0
4, 26553, Note_on_c, 0, 70, 0
4, 26555, Note_on_c, 0, 67, 0
4, 26557, Note_on_c, 0, 63, 0
4, 26559, Note_on_c, 0, 73, 51
4, 26560, Note_on_c, 0, 64, 70
4, 26560, Note_on_c, 0, 70, 64
4, 26560, Note_on_c, 0, 61, 57
4, 26561, Control_c, 0, 64, 0
4, 26562, Note_on_c, 0, 67, 22
4, 26566, Note_on_c, 0, 67, 0
4, 26568, Note_on_c, 0, 70, 0
4, 26569, Control_c, 0, 64, 127
4, 26572, Note_on_c, 0, 73, 0
4, 26573, Note_on_c, 0, 64, 0
4, 26581, Note_on_c, 0, 68, 39
4, 26585, Note_on_c, 0, 68, 0
4, 26593, Note_on_c, 0, 61, 0
4, 26598, Note_on_c, 0, 64, 67
4, 26598, Note_on_c, 0, 72, 58
4, 26599, Note_on_c, 0, 61, 49
4, 26599, Note_on_c, 0, 60, 64
4, 26601, Control_c, 0, 64, 0
4, 26602, Note_on_c, 0, 70, 31
4, 26614, Control_c, 0, 64, 127
4, 26616, Note_on_c, 0, 70, 0
4, 26619, Note_on_c, 0, 60, 0
4, 26624, Note_on_c, 0, 64, 0
4, 26624, Note_on_c, 0, 72, 0
4, 26624, Note_on_c, 0, 61, 0
4, 26639, Note_on_c, 0, 70, 56
4, 26639, Note_on_c, 0, 61, 52
4, 26640, Control_c, 0, 64, 0
4, 26640, Note_on_c, 0, 64, 60
4, 26641, Note_on_c, 0, 58, 49
4, 26643, Note_on_c, 0, 67, 26
4, 26662, Control_c, 0, 64, 127
4, 26670, Note_on_c, 0, 67, 0
4, 26676, Note_on_c, 0, 61, 0
4, 26677, Note_on_c, 0, 64, 0
4, 26685, Note_on_c, 0, 61, 37
4, 26686, Note_on_c, 0, 67, 35
4, 26686, Note_on_c, 0, 64, 58
4, 26699, Note_on_c, 0, 58, 0
4, 26707, Note_on_c, 0, 70, 0
4, 26709, Note_on_c, 0, 67, 0
4, 26711, Note_on_c, 0, 64, 0
4, 26718, Note_on_c, 0, 61, 0
4, 26757, Note_on_c, 0, 64, 58
4, 26757, Note_on_c, 0, 55, 56
4, 26757, Note_on_c, 0, 61, 35
4, 26758, Note_on_c, 0, 59, 56
4, 26760, Note_on_c, 0, 51, 38
4, 26765, Control_c, 0, 64, 0
4, 26784, Control_c, 0, 64, 127
4, 26793, Note_on_c, 0, 51, 0
4, 26812, Note_on_c, 0, 55, 0
4, 26816, Note_on_c, 0, 59, 0
4, 26820, Note_on_c, 0, 51, 53
4, 26825, Note_on_c, 0, 61, 0
4, 26826, Note_on_c, 0, 64, 0
4, 26837, Note_on_c, 0, 51, 0
4, 26880, Note_on_c, 0, 72, 60
4, 26880, Note_on_c, 0, 67, 65
4, 26881, Note_on_c, 0, 60, 47
4, 26881, Note_on_c, 0, 55, 59
4, 26882, Note_on_c, 0, 44, 37
4, 26883, Control_c, 0, 64, 0
4, 26903, Control_c, 0, 64, 127
4, 26909, Note_on_c, 0, 55, 0
4, 26919, Note_on_c, 0, 54, 73
4, 26929, Note_on_c, 0, 67, 0
4, 26939, Note_on_c, 0, 60, 0
4, 26940, Note_on_c, 0, 54, 0
4, 26951, Note_on_c, 0, 60, 47
4, 26952, Note_on_c, 0, 53, 58
4, 26952, Note_on_c, 0, 65, 71
4, 26953, Control_c, 0, 64, 0
4, 26969, Control_c, 0, 64, 127
4, 26975, Note_on_c, 0, 60, 0
4, 26976, Note_on_c, 0, 72, 0
4, 26980, Note_on_c, 0, 44, 0
4, 26982, Note_on_c, 0, 53, 0
4, 26983, Note_on_c, 0, 65, 0
4, 27001, Note_on_c, 0, 73, 62
4, 27002, Note_on_c, 0, 57, 66
4, 27002, Note_on_c, 0, 46, 57
4, 27002, Note_on_c, 0, 61, 73
4, 27002, Note_on_c, 0, 65, 85
4, 27005, Control_c, 0, 64, 0
4, 27028, Note_on_c, 0, 57, 0
4, 27037, Note_on_c, 0, 56, 72
4, 27058, Note_on_c, 0, 56, 0
4, 27069, Note_on_c, 0, 55, 77
4, 27069, Control_c, 0, 64, 127
4, 27074, Note_on_c, 0, 65, 0
4, 27087, Note_on_c, 0, 61, 0
4, 27091, Note_on_c, 0, 46, 0
4, 27094, Note_on_c, 0, 55, 0
4, 27095, Note_on_c, 0, 73, 0
4, 27122, Note_on_c, 0, 75, 83
4, 27122, Note_on_c, 0, 58, 87
4, 27123, Note_on_c, 0, 63, 79
4, 27123, Note_on_c, 0, 48, 68
4, 27123, Note_on_c, 0, 67, 83
4, 27125, Control_c, 0, 64, 0
4, 27155, Note_on_c, 0, 58, 0
4, 27165, Note_on_c, 0, 57, 71
4, 27183, Control_c, 0, 64, 127
4, 27207, Note_on_c, 0, 57, 0
4, 27207, Note_on_c, 0, 67, 0
4, 27209, Note_on_c, 0, 56, 42
4, 27212, Note_on_c, 0, 63, 0
4, 27218, Note_on_c, 0, 48, 0
4, 27218, Note_on_c, 0, 75, 0
4, 27247, Note_on_c, 0, 60, 68
4, 27248, Note_on_c, 0, 77, 51
4, 27248, Note_on_c, 0, 65, 54
4, 27248, Note_on_c, 0, 49, 42
4, 27249, Control_c, 0, 64, 0
4, 27249, Note_on_c, 0, 72, 61
4, 27257, Note_on_c, 0, 56, 0
4, 27274, Control_c, 0, 64, 127
4, 27279, Note_on_c, 0, 60, 0
4, 27291, Note_on_c, 0, 59, 49
4, 27312, Note_on_c, 0, 59, 0
4, 27328, Note_on_c, 0, 77, 0
4, 27331, Note_on_c, 0, 58, 50
4, 27333, Note_on_c, 0, 72, 0
4, 27337, Note_on_c, 0, 65, 0
4, 27353, Note_on_c, 0, 58, 0
4, 27359, Note_on_c, 0, 49, 0
4, 27369, Control_c, 0, 64, 0
4, 27369, Note_on_c, 0, 48, 69
4, 27373, Note_on_c, 0, 79, 41
4, 27393, Control_c, 0, 64, 127
4, 27409, Note_on_c, 0, 75, 57
4, 27410, Note_on_c, 0, 67, 51
4, 27410, Note_on_c, 0, 58, 54
4, 27444, Note_on_c, 0, 48, 0
4, 27446, Note_on_c, 0, 58, 0
4, 27450, Note_on_c, 0, 67, 0
4, 27452, Note_on_c, 0, 79, 0
4, 27456, Note_on_c, 0, 75, 0
4, 27480, Note_on_c, 0, 80, 61
4, 27480, Note_on_c, 0, 68, 74
4, 27481, Note_on_c, 0, 56, 64
4, 27481, Note_on_c, 0, 75, 73
4, 27484, Control_c, 0, 64, 0
4, 27484, Note_on_c, 0, 46, 45
4, 27488, Note_on_c, 0, 46, 0
4, 27505, Control_c, 0, 64, 127
4, 27523, Note_on_c, 0, 46, 55
4, 27540, Note_on_c, 0, 68, 0
4, 27549, Note_on_c, 0, 80, 0
4, 27550, Note_on_c, 0, 46, 0
4, 27553, Note_on_c, 0, 56, 0
4, 27554, Note_on_c, 0, 75, 0
4, 27593, Control_c, 0, 64, 0
4, 27594, Note_on_c, 0, 82, 61
4, 27595, Note_on_c, 0, 70, 56
4, 27595, Note_on_c, 0, 75, 60
4, 27595, Note_on_c, 0, 79, 45
4, 27595, Note_on_c, 0, 55, 66
4, 27595, Note_on_c, 0, 44, 51
4, 27614, Control_c, 0, 64, 127
4, 27640, Note_on_c, 0, 55, 0
4, 27641, Note_on_c, 0, 51, 64
4, 27650, Note_on_c, 0, 79, 0
4, 27651, Note_on_c, 0, 70, 0
4, 27651, Note_on_c, 0, 51, 0
4, 27652, Note_on_c, 0, 44, 0
4, 27659, Note_on_c, 0, 75, 0
4, 27664, Note_on_c, 0, 82, 0
4, 27705, Note_on_c, 0, 42, 83
4, 27705, Note_on_c, 0, 80, 78
4, 27706, Note_on_c, 0, 77, 88
4, 27706, Note_on_c, 0, 84, 87
4, 27706, Note_on_c, 0, 72, 90
4, 27707, Note_on_c, 0, 30, 74
4, 27707, Control_c, 0, 64, 0
4, 27726, Control_c, 0, 64, 127
4, 27775, Note_on_c, 0, 30, 0
4, 27776, Note_on_c, 0, 42, 0
4, 27776, Note_on_c, 0, 72, 0
4, 27779, Note_on_c, 0, 77, 0
4, 27780, Note_on_c, 0, 84, 0
4, 27781, Note_on_c, 0, 80, 0
4, 27826, Note_on_c, 0, 40, 96
4, 27826, Note_on_c, 0, 28, 94
4, 27827, Note_on_c, 0, 78, 77
4, 27828, Note_on_c, 0, 86, 80
4, 27829, Note_on_c, 0, 74, 80
4, 27829, Control_c, 0, 64, 0
4, 27830, Note_on_c, 0, 81, 60
4, 27832, Note_on_c, 0, 82, 29
4, 27835, Note_on_c, 0, 82, 0
4, 27847, Control_c, 0, 64, 127
4, 27849, Note_on_c, 0, 28, 0
4, 27853, Note_on_c, 0, 40, 0
4, 27854, Note_on_c, 0, 86, 0
4, 27854, Note_on_c, 0, 81, 0
4, 27858, Note_on_c, 0, 78, 0
4, 27859, Note_on_c, 0, 74, 0
4, 27891, Note_on_c, 0, 66, 84
4, 27892, Note_on_c, 0, 74, 79
4, 27892, Note_on_c, 0, 62, 95
4, 27892, Note_on_c, 0, 69, 89
4, 27893, Note_on_c, 0, 52, 82
4, 27893, Note_on_c, 0, 72, 72
4, 27897, Note_on_c, 0, 71, 31
4, 27902, Note_on_c, 0, 71, 0
4, 27913, Note_on_c, 0, 62, 0
4, 27917, Note_on_c, 0, 72, 0
4, 27922, Note_on_c, 0, 66, 0
4, 27929, Note_on_c, 0, 74, 0
4, 27929, Note_on_c, 0, 69, 0
4, 27951, Note_on_c, 0, 74, 95
4, 27951, Note_on_c, 0, 66, 95
4, 27952, Note_on_c, 0, 64, 87
4, 27952, Note_on_c, 0, 69, 92
4, 27952, Note_on_c, 0, 59, 75
4, 27954, Note_on_c, 0, 72, 54
4, 27958, Note_on_c, 0, 72, 0
4, 27993, Note_on_c, 0, 52, 0
4, 27996, Note_on_c, 0, 66, 0
4, 27997, Note_on_c, 0, 74, 0
4, 27999, Note_on_c, 0, 64, 0
4, 27999, Note_on_c, 0, 69, 0
4, 28004, Note_on_c, 0, 59, 0
4, 28010, Note_on_c, 0, 74, 83
4, 28010, Note_on_c, 0, 59, 55
4, 28010, Note_on_c, 0, 66, 86
4, 28010, Note_on_c, 0, 69, 75
4, 28011, Note_on_c, 0, 52, 74
4, 28014, Note_on_c, 0, 72, 36
4, 28035, Note_on_c, 0, 69, 0
4, 28036, Note_on_c, 0, 66, 0
4, 28037, Note_on_c, 0, 52, 0
4, 28039, Note_on_c, 0, 72, 0
4, 28053, Note_on_c, 0, 74, 0
4, 28055, Note_on_c, 0, 59, 0
4, 28067, Note_on_c, 0, 74, 83
4, 28068, Note_on_c, 0, 68, 92
4, 28068, Note_on_c, 0, 71, 85
4, 28069, Note_on_c, 0, 64, 92
4, 28069, Note_on_c, 0, 62, 82
4, 28069, Note_on_c, 0, 56, 68
4, 28070, Note_on_c, 0, 52, 74
4, 28071, Note_on_c, 0, 72, 63
4, 28072, Control_c, 0, 64, 0
4, 28083, Note_on_c, 0, 72, 0
4, 28104, Control_c, 0, 64, 127
4, 28117, Note_on_c, 0, 62, 0
4, 28121, Note_on_c, 0, 64, 0
4, 28124, Note_on_c, 0, 74, 0
4, 28124, Note_on_c, 0, 68, 0
4, 28125, Note_on_c, 0, 71, 0
4, 28126, Note_on_c, 0, 56, 0
4, 28131, Note_on_c, 0, 68, 71
4, 28131, Note_on_c, 0, 62, 64
4, 28131, Note_on_c, 0, 74, 64
4, 28132, Note_on_c, 0, 56, 45
4, 28132, Note_on_c, 0, 64, 71
4, 28132, Note_on_c, 0, 71, 77
4, 28134, Note_on_c, 0, 72, 64
4, 28137, Note_on_c, 0, 72, 0
4, 28165, Note_on_c, 0, 62, 0
4, 28168, Note_on_c, 0, 56, 0
4, 28172, Note_on_c, 0, 71, 0
4, 28175, Note_on_c, 0, 64, 0
4, 28176, Note_on_c, 0, 68, 0
4, 28181, Note_on_c, 0, 74, 0
4, 28193, Note_on_c, 0, 68, 60
4, 28194, Note_on_c, 0, 74, 48
4, 28194, Note_on_c, 0, 62, 60
4, 28195, Note_on_c, 0, 71, 51
4, 28195, Note_on_c, 0, 64, 62
4, 28196, Note_on_c, 0, 56, 37
4, 28228, Note_on_c, 0, 62, 0
4, 28230, Note_on_c, 0, 64, 0
4, 28232, Note_on_c, 0, 52, 0
4, 28234, Note_on_c, 0, 68, 0
4, 28235, Note_on_c, 0, 71, 0
4, 28237, Note_on_c, 0, 74, 0
4, 28242, Note_on_c, 0, 56, 0
4, 28257, Note_on_c, 0, 62, 34
4, 28257, Note_on_c, 0, 68, 39
4, 28257, Note_on_c, 0, 74, 35
4, 28258, Note_on_c, 0, 64, 43
4, 28259, Note_on_c, 0, 56, 18
4, 28260, Note_on_c, 0, 52, 33
4, 28260, Note_on_c, 0, 71, 30
4, 28265, Note_on_c, 0, 52, 0
4, 28266, Note_on_c, 0, 62, 0
4, 28273, Note_on_c, 0, 64, 0
4, 28277, Note_on_c, 0, 74, 0
4, 28278, Note_on_c, 0, 68, 0
4, 28281, Note_on_c, 0, 71, 0
4, 28289, Note_on_c, 0, 56, 0
4, 28318, Note_on_c, 0, 75, 62
4, 28319, Control_c, 0, 64, 0
4, 28319, Note_on_c, 0, 68, 43
4, 28319, Note_on_c, 0, 70, 57
4, 28320, Note_on_c, 0, 61, 37
4, 28321, Note_on_c, 0, 51, 42
4, 28322, Note_on_c, 0, 58, 35
4, 28328, Note_on_c, 0, 68, 0
4, 28339, Note_on_c, 0, 75, 0
4, 28339, Control_c, 0, 64, 127
4, 28340, Note_on_c, 0, 70, 0
4, 28343, Note_on_c, 0, 61, 0
4, 28343, Note_on_c, 0, 68, 19
4, 28352, Note_on_c, 0, 68, 0
4, 28353, Note_on_c, 0, 75, 25
4, 28355, Note_on_c, 0, 70, 34
4, 28363, Note_on_c, 0, 75, 0
4, 28364, Note_on_c, 0, 70, 0
4, 28364, Note_on_c, 0, 68, 34
4, 28365, Note_on_c, 0, 51, 0
4, 28370, Note_on_c, 0, 58, 0
4, 28375, Note_on_c, 0, 68, 0
4, 28375, Note_on_c, 0, 75, 25
4, 28377, Note_on_c, 0, 70, 39
4, 28385, Note_on_c, 0, 68, 34
4, 28386, Note_on_c, 0, 70, 0
4, 28386, Note_on_c, 0, 75, 0
4, 28397, Note_on_c, 0, 68, 0
4, 28398, Note_on_c, 0, 70, 46
4, 28398, Note_on_c, 0, 75, 25
4, 28407, Note_on_c, 0, 68, 44
4, 28408, Note_on_c, 0, 75, 0
4, 28408, Note_on_c, 0, 70, 0
4, 28417, Note_on_c, 0, 68, 0
4, 28418, Note_on_c, 0, 75, 37
4, 28418, Note_on_c, 0, 70, 47
4, 28427, Note_on_c, 0, 68, 45
4, 28428, Note_on_c, 0, 70, 0
4, 28430, Note_on_c, 0, 75, 0
4, 28437, Note_on_c, 0, 68, 0
4, 28437, Note_on_c, 0, 75, 25
4, 28438, Note_on_c, 0, 70, 52
4, 28439, Note_on_c, 0, 63, 84
4, 28448, Note_on_c, 0, 70, 0
4, 28448, Note_on_c, 0, 75, 0
4, 28448, Note_on_c, 0, 68, 52
4, 28458, Note_on_c, 0, 68, 0
4, 28459, Note_on_c, 0, 75, 32
4, 28460, Note_on_c, 0, 70, 55
4, 28468, Note_on_c, 0, 75, 0
4, 28468, Note_on_c, 0, 68, 47
4, 28469, Note_on_c, 0, 70, 0
4, 28477, Note_on_c, 0, 68, 0
4, 28479, Note_on_c, 0, 75, 33
4, 28480, Note_on_c, 0, 70, 48
4, 28489, Note_on_c, 0, 70, 0
4, 28490, Note_on_c, 0, 75, 0
4, 28490, Note_on_c, 0, 68, 48
4, 28497, Note_on_c, 0, 68, 0
4, 28500, Note_on_c, 0, 75, 35
4, 28501, Note_on_c, 0, 70, 48
4, 28510, Note_on_c, 0, 75, 0
4, 28510, Note_on_c, 0, 63, 0
4, 28512, Note_on_c, 0, 68, 45
4, 28514, Note_on_c, 0, 70, 0
4, 28524, Note_on_c, 0, 75, 25
4, 28531, Note_on_c, 0, 75, 0
4, 28533, Note_on_c, 0, 68, 0
4, 28541, Note_on_c, 0, 70, 2
4, 28541, Note_on_c, 0, 75, 35
4, 28556, Note_on_c, 0, 75, 0
4, 28556, Note_on_c, 0, 70, 0
4, 28564, Note_on_c, 0, 68, 44
4, 28565, Note_on_c, 0, 59, 44
4, 28565, Note_on_c, 0, 63, 37
4, 28567, Note_on_c, 0, 75, 38
4, 28567, Note_on_c, 0, 64, 53
4, 28572, Control_c, 0, 64, 0
4, 28592, Control_c, 0, 64, 127
4, 28625, Note_on_c, 0, 64, 0
4, 28627, Note_on_c, 0, 59, 0
4, 28631, Note_on_c, 0, 68, 0
4, 28635, Note_on_c, 0, 63, 0
4, 28680, Note_on_c, 0, 68, 47
4, 28683, Note_on_c, 0, 63, 28
4, 28683, Note_on_c, 0, 58, 32
4, 28685, Control_c, 0, 64, 0
4, 28685, Note_on_c, 0, 64, 40
4, 28689, Note_on_c, 0, 75, 0
4, 28700, Control_c, 0, 64, 127
4, 28737, Note_on_c, 0, 64, 0
4, 28742, Note_on_c, 0, 68, 0
4, 28747, Note_on_c, 0, 63, 0
4, 28747, Note_on_c, 0, 58, 0
4, 28772, Note_on_c, 0, 84, 60
4, 28786, Note_on_c, 0, 85, 71
4, 28790, Note_on_c, 0, 84, 0
4, 28796, Note_on_c, 0, 85, 0
4, 28798, Control_c, 0, 64, 0
4, 28800, Note_on_c, 0, 86, 39
4, 28808, Note_on_c, 0, 67, 34
4, 28808, Note_on_c, 0, 63, 31
4, 28810, Note_on_c, 0, 86, 0
4, 28810, Note_on_c, 0, 62, 24
4, 28811, Note_on_c, 0, 58, 29
4, 28815, Note_on_c, 0, 87, 67
4, 28824, Note_on_c, 0, 87, 0
4, 28847, Note_on_c, 0, 87, 46
4, 28852, Note_on_c, 0, 87, 0
4, 28873, Note_on_c, 0, 87, 57
4, 28880, Note_on_c, 0, 87, 0
4, 28900, Note_on_c, 0, 87, 60
4, 28907, Note_on_c, 0, 87, 0
4, 28928, Note_on_c, 0, 87, 61
4, 28941, Note_on_c, 0, 87, 0
4, 28950, Note_on_c, 0, 89, 63
4, 28959, Note_on_c, 0, 89, 0
4, 28976, Note_on_c, 0, 87, 60
4, 28985, Note_on_c, 0, 62, 0
4, 28985, Control_c, 0, 64, 127
4, 28993, Note_on_c, 0, 67, 0
4, 28997, Note_on_c, 0, 58, 0
4, 28998, Note_on_c, 0, 63, 0
4, 29036, Note_on_c, 0, 87, 0
4, 29036, Note_on_c, 0, 80, 43
4, 29038, Control_c, 0, 64, 0
4, 29039, Note_on_c, 0, 63, 27
4, 29040, Note_on_c, 0, 60, 34
4, 29040, Note_on_c, 0, 67, 18
4, 29041, Note_on_c, 0, 56, 28
4, 29079, Control_c, 0, 64, 127
4, 29096, Note_on_c, 0, 67, 0
4, 29100, Note_on_c, 0, 60, 0
4, 29107, Note_on_c, 0, 63, 0
4, 29163, Note_on_c, 0, 67, 27
4, 29163, Note_on_c, 0, 63, 31
4, 29163, Note_on_c, 0, 60, 40
4, 29204, Note_on_c, 0, 80, 0
4, 29236, Note_on_c, 0, 67, 0
4, 29244, Note_on_c, 0, 80, 45
4, 29246, Note_on_c, 0, 63, 0
4, 29247, Note_on_c, 0, 56, 0
4, 29249, Note_on_c, 0, 60, 0
4, 29253, Note_on_c, 0, 80, 0
4, 29275, Control_c, 0, 64, 0
4, 29277, Note_on_c, 0, 84, 101
4, 29277, Note_on_c, 0, 62, 70
4, 29278, Note_on_c, 0, 56, 69
4, 29278, Note_on_c, 0, 67, 75
4, 29287, Note_on_c, 0, 84, 0
4, 29288, Note_on_c, 0, 67, 0
4, 29290, Note_on_c, 0, 62, 0
4, 29295, Note_on_c, 0, 56, 0
4, 29316, Note_on_c, 0, 84, 113
4, 29317, Note_on_c, 0, 56, 77
4, 29317, Note_on_c, 0, 67, 85
4, 29317, Note_on_c, 0, 62, 80
4, 29323, Note_on_c, 0, 67, 0
4, 29323, Note_on_c, 0, 84, 0
4, 29325, Note_on_c, 0, 62, 0
4, 29331, Note_on_c, 0, 56, 0
4, 29348, Note_on_c, 0, 84, 108
4, 29350, Note_on_c, 0, 67, 87
4, 29350, Note_on_c, 0, 56, 76
4, 29350, Note_on_c, 0, 62, 70
4, 29354, Note_on_c, 0, 84, 0
4, 29356, Note_on_c, 0, 67, 0
4, 29356, Note_on_c, 0, 62, 0
4, 29359, Note_on_c, 0, 56, 0
4, 29379, Note_on_c, 0, 84, 95
4, 29380, Note_on_c, 0, 56, 64
4, 29380, Note_on_c, 0, 67, 68
4, 29380, Note_on_c, 0, 62, 58
4, 29386, Note_on_c, 0, 67, 0
4, 29387, Note_on_c, 0, 84, 0
4, 29388, Note_on_c, 0, 62, 0
4, 29389, Note_on_c, 0, 56, 0
4, 29409, Note_on_c, 0, 84, 72
4, 29410, Note_on_c, 0, 62, 56
4, 29411, Note_on_c, 0, 67, 67
4, 29411, Note_on_c, 0, 56, 57
4, 29412, Control_c, 0, 64, 127
4, 29443, Note_on_c, 0, 84, 0
4, 29458, Note_on_c, 0, 62, 0
4, 29458, Note_on_c, 0, 67, 0
4, 29466, Note_on_c, 0, 56, 0
4, 29516, Control_c, 0, 64, 0
4, 29516, Note_on_c, 0, 79, 83
4, 29517, Note_on_c, 0, 71, 91
4, 29517, Note_on_c, 0, 68, 98
4, 29517, Note_on_c, 0, 74, 77
4, 29518, Note_on_c, 0, 67, 101
4, 29519, Note_on_c, 0, 65, 89
4, 29523, Note_on_c, 0, 65, 0
4, 29534, Control_c, 0, 64, 127
4, 29544, Note_on_c, 0, 68, 0
4, 29546, Note_on_c, 0, 79, 0
4, 29547, Note_on_c, 0, 67, 0
4, 29547, Note_on_c, 0, 71, 0
4, 29550, Note_on_c, 0, 74, 0
4, 29550, Control_c, 0, 64, 0
4, 29555, Note_on_c, 0, 79, 67
4, 29555, Note_on_c, 0, 71, 80
4, 29555, Note_on_c, 0, 68, 94
4, 29556, Note_on_c, 0, 67, 77
4, 29556, Note_on_c, 0, 74, 83
4, 29573, Note_on_c, 0, 68, 0
4, 29577, Note_on_c, 0, 67, 0
4, 29578, Note_on_c, 0, 79, 0
4, 29580, Note_on_c, 0, 71, 0
4, 29582, Note_on_c, 0, 74, 0
4, 29586, Note_on_c, 0, 79, 68
4, 29587, Note_on_c, 0, 71, 83
4, 29587, Note_on_c, 0, 67, 72
4, 29588, Note_on_c, 0, 68, 90
4, 29588, Note_on_c, 0, 74, 74
4, 29595, Control_c, 0, 64, 127
4, 29604, Note_on_c, 0, 68, 0
4, 29606, Note_on_c, 0, 67, 0
4, 29608, Note_on_c, 0, 79, 0
4, 29608, Note_on_c, 0, 71, 0
4, 29609, Note_on_c, 0, 74, 0
4, 29613, Control_c, 0, 64, 0
4, 29616, Note_on_c, 0, 79, 67
4, 29616, Note_on_c, 0, 67, 69
4, 29617, Note_on_c, 0, 68, 85
4, 29618, Note_on_c, 0, 71, 68
4, 29619, Note_on_c, 0, 74, 54
4, 29619, Control_c, 0, 64, 127
4, 29632, Note_on_c, 0, 68, 0
4, 29634, Note_on_c, 0, 67, 0
4, 29635, Note_on_c, 0, 71, 0
4, 29636, Note_on_c, 0, 79, 0
4, 29639, Note_on_c, 0, 74, 0
4, 29643, Control_c, 0, 64, 0
4, 29646, Note_on_c, 0, 79, 56
4, 29647, Note_on_c, 0, 68, 85
4, 29647, Note_on_c, 0, 71, 71
4, 29647, Note_on_c, 0, 67, 71
4, 29648, Note_on_c, 0, 78, 43
4, 29648, Note_on_c, 0, 74, 58
4, 29654, Control_c, 0, 64, 127
4, 29659, Note_on_c, 0, 68, 0
4, 29660, Note_on_c, 0, 71, 0
4, 29661, Note_on_c, 0, 79, 0
4, 29661, Note_on_c, 0, 74, 0
4, 29662, Note_on_c, 0, 67, 0
4, 29663, Note_on_c, 0, 78, 0
4, 29698, Note_on_c, 0, 80, 76
4, 29699, Note_on_c, 0, 71, 72
4, 29700, Note_on_c, 0, 74, 56
4, 29700, Note_on_c, 0, 68, 83
4, 29702, Control_c, 0, 64, 0
4, 29709, Note_on_c, 0, 68, 0
4, 29714, Note_on_c, 0, 80, 0
4, 29714, Note_on_c, 0, 71, 0
4, 29714, Note_on_c, 0, 74, 0
4, 29723, Note_on_c, 0, 79, 75
4, 29725, Note_on_c, 0, 67, 68
4, 29725, Note_on_c, 0, 71, 58
4, 29728, Note_on_c, 0, 74, 39
4, 29733, Control_c, 0, 64, 127
4, 29735, Note_on_c, 0, 79, 0
4, 29738, Note_on_c, 0, 71, 0
4, 29740, Note_on_c, 0, 67, 0
4, 29740, Control_c, 0, 64, 0
4, 29744, Note_on_c, 0, 74, 0
4, 29747, Note_on_c, 0, 78, 56
4, 29748, Note_on_c, 0, 71, 62
4, 29748, Note_on_c, 0, 66, 60
4, 29749, Note_on_c, 0, 68, 64
4, 29753, Control_c, 0, 64, 127
4, 29753, Note_on_c, 0, 74, 24
4, 29757, Note_on_c, 0, 74, 0
4, 29761, Note_on_c, 0, 71, 0
4, 29762, Note_on_c, 0, 78, 0
4, 29764, Note_on_c, 0, 68, 0
4, 29769, Note_on_c, 0, 66, 0
4, 29770, Note_on_c, 0, 77, 59
4, 29771, Note_on_c, 0, 68, 51
4, 29773, Control_c, 0, 64, 0
4, 29773, Note_on_c, 0, 71, 44
4, 29773, Note_on_c, 0, 65, 61
4, 29781, Note_on_c, 0, 71, 0
4, 29787, Note_on_c, 0, 77, 0
4, 29788, Note_on_c, 0, 68, 0
4, 29790, Note_on_c, 0, 65, 0
4, 29794, Note_on_c, 0, 75, 68
4, 29795, Note_on_c, 0, 67, 66
4, 29796, Note_on_c, 0, 70, 61
4, 29796, Note_on_c, 0, 63, 51
4, 29809, Note_on_c, 0, 70, 0
4, 29809, Note_on_c, 0, 67, 0
4, 29812, Control_c, 0, 64, 127
4, 29814, Note_on_c, 0, 63, 0
4, 29815, Note_on_c, 0, 75, 0
4, 29865, Note_on_c, 0, 67, 64
4, 29866, Note_on_c, 0, 63, 59
4, 29866, Note_on_c, 0, 70, 48
4, 29867, Note_on_c, 0, 75, 46
4, 29867, Note_on_c, 0, 72, 41
4, 29873, Note_on_c, 0, 67, 0
4, 29877, Note_on_c, 0, 75, 0
4, 29877, Note_on_c, 0, 72, 0
4, 29877, Note_on_c, 0, 70, 0
4, 29884, Note_on_c, 0, 63, 0
4, 29898, Control_c, 0, 64, 0
4, 29899, Note_on_c, 0, 75, 55
4, 29899, Note_on_c, 0, 70, 57
4, 29901, Note_on_c, 0, 63, 46
4, 29901, Note_on_c, 0, 67, 45
4, 29901, Note_on_c, 0, 72, 51
4, 29905, Control_c, 0, 64, 127
4, 29911, Note_on_c, 0, 72, 0
4, 29920, Note_on_c, 0, 67, 0
4, 29923, Note_on_c, 0, 75, 0
4, 29925, Note_on_c, 0, 70, 0
4, 29930, Note_on_c, 0, 63, 0
4, 29934, Note_on_c, 0, 70, 49
4, 29934, Note_on_c, 0, 75, 64
4, 29935, Note_on_c, 0, 67, 41
4, 29948, Note_on_c, 0, 75, 0
4, 29951, Note_on_c, 0, 70, 0
4, 29953, Note_on_c, 0, 67, 0
4, 30061, Note_on_c, 0, 61, 82
4, 30062, Note_on_c, 0, 60, 76
4, 30062, Note_on_c, 0, 72, 83
4, 30062, Note_on_c, 0, 65, 77
4, 30063, Note_on_c, 0, 68, 62
4, 30066, Control_c, 0, 64, 0
4, 30067, Note_on_c, 0, 60, 0
4, 30067, Note_on_c, 0, 61, 0
4, 30070, Note_on_c, 0, 65, 0
4, 30071, Note_on_c, 0, 72, 0
4, 30071, Note_on_c, 0, 68, 0
4, 30098, Control_c, 0, 64, 127
4, 30124, Note_on_c, 0, 61, 61
4, 30124, Note_on_c, 0, 70, 56
4, 30125, Note_on_c, 0, 51, 46
4, 30125, Note_on_c, 0, 65, 68
4, 30125, Note_on_c, 0, 58, 48
4, 30125, Control_c, 0, 64, 0
4, 30125, Note_on_c, 0, 68, 51
4, 30145, Control_c, 0, 64, 127
4, 30160, Note_on_c, 0, 58, 0
4, 30163, Note_on_c, 0, 68, 0
4, 30165, Note_on_c, 0, 65, 0
4, 30168, Note_on_c, 0, 51, 0
4, 30168, Note_on_c, 0, 61, 0
4, 30176, Note_on_c, 0, 70, 0
4, 30183, Note_on_c, 0, 51, 57
4, 30184, Note_on_c, 0, 68, 67
4, 30184, Note_on_c, 0, 61, 62
4, 30185, Note_on_c, 0, 65, 65
4, 30191, Note_on_c, 0, 56, 36
4, 30214, Note_on_c, 0, 65, 0
4, 30216, Note_on_c, 0, 61, 0
4, 30224, Note_on_c, 0, 51, 0
4, 30227, Note_on_c, 0, 68, 0
4, 30229, Note_on_c, 0, 56, 0
4, 30245, Control_c, 0, 64, 0
4, 30248, Note_on_c, 0, 67, 48
4, 30248, Note_on_c, 0, 60, 41
4, 30248, Note_on_c, 0, 56, 37
4, 30248, Note_on_c, 0, 65, 53
4, 30251, Note_on_c, 0, 50, 29
4, 30264, Control_c, 0, 64, 127
4, 30267, Note_on_c, 0, 60, 0
4, 30274, Note_on_c, 0, 65, 0
4, 30275, Note_on_c, 0, 67, 0
4, 30302, Note_on_c, 0, 72, 78
4, 30331, Note_on_c, 0, 72, 0
4, 30334, Note_on_c, 0, 50, 0
4, 30344, Note_on_c, 0, 56, 0
4, 30364, Note_on_c, 0, 60, 56
4, 30364, Note_on_c, 0, 56, 27
4, 30366, Note_on_c, 0, 50, 38
4, 30368, Control_c, 0, 64, 0
4, 30382, Control_c, 0, 64, 127
4, 30428, Note_on_c, 0, 60, 0
4, 30430, Note_on_c, 0, 50, 0
4, 30438, Note_on_c, 0, 56, 0
4, 30479, Note_on_c, 0, 75, 79
4, 30480, Note_on_c, 0, 68, 82
4, 30480, Note_on_c, 0, 71, 80
4, 30480, Note_on_c, 0, 63, 84
4, 30480, Note_on_c, 0, 64, 92
4, 30481, Note_on_c, 0, 73, 37
4, 30482, Control_c, 0, 64, 0
4, 30495, Note_on_c, 0, 73, 0
4, 30509, Control_c, 0, 64, 127
4, 30532, Note_on_c, 0, 75, 0
4, 30532, Note_on_c, 0, 64, 0
4, 30536, Note_on_c, 0, 71, 0
4, 30537, Note_on_c, 0, 68, 0
4, 30540, Note_on_c, 0, 61, 64
4, 30540, Note_on_c, 0, 73, 59
4, 30541, Note_on_c, 0, 63, 0
4, 30541, Note_on_c, 0, 68, 52
4, 30541, Note_on_c, 0, 64, 80
4, 30544, Note_on_c, 0, 71, 33
4, 30548, Note_on_c, 0, 71, 0
4, 30548, Note_on_c, 0, 61, 0
4, 30564, Note_on_c, 0, 68, 0
4, 30581, Note_on_c, 0, 64, 0
4, 30601, Note_on_c, 0, 68, 64
4, 30602, Note_on_c, 0, 59, 52
4, 30603, Control_c, 0, 64, 0
4, 30603, Note_on_c, 0, 64, 64
4, 30604, Note_on_c, 0, 49, 33
4, 30620, Control_c, 0, 64, 127
4, 30624, Note_on_c, 0, 73, 0
4, 30627, Note_on_c, 0, 68, 0
4, 30631, Note_on_c, 0, 64, 0
4, 30638, Note_on_c, 0, 49, 0
4, 30640, Note_on_c, 0, 59, 0
4, 30657, Note_on_c, 0, 62, 54
4, 30657, Note_on_c, 0, 65, 68
4, 30660, Note_on_c, 0, 49, 46
4, 30661, Note_on_c, 0, 59, 40
4, 30680, Note_on_c, 0, 59, 0
4, 30692, Note_on_c, 0, 65, 0
4, 30694, Note_on_c, 0, 62, 0
4, 30701, Note_on_c, 0, 49, 0
4, 30720, Note_on_c, 0, 63, 53
4, 30720, Control_c, 0, 64, 0
4, 30720, Note_on_c, 0, 58, 50
4, 30721, Note_on_c, 0, 60, 49
4, 30722, Note_on_c, 0, 48, 46
4, 30745, Control_c, 0, 64, 127
4, 30784, Note_on_c, 0, 55, 51
4, 30808, Note_on_c, 0, 58, 0
4, 30815, Note_on_c, 0, 60, 0
4, 30820, Note_on_c, 0, 63, 0
4, 30841, Note_on_c, 0, 63, 47
4, 30843, Note_on_c, 0, 60, 49
4, 30844, Note_on_c, 0, 58, 39
4, 30847, Note_on_c, 0, 60, 0
4, 30854, Note_on_c, 0, 63, 0
4, 30872, Note_on_c, 0, 67, 92
4, 30885, Note_on_c, 0, 48, 0
4, 30888, Note_on_c, 0, 55, 0
4, 30888, Note_on_c, 0, 67, 0
4, 30893, Note_on_c, 0, 68, 90
4, 30896, Note_on_c, 0, 67, 32
4, 30898, Note_on_c, 0, 58, 0
4, 30900, Note_on_c, 0, 67, 0
4, 30908, Note_on_c, 0, 68, 0
4, 30912, Note_on_c, 0, 70, 84
4, 30913, Note_on_c, 0, 68, 64
4, 30917, Note_on_c, 0, 68, 0
4, 30925, Note_on_c, 0, 70, 0
4, 30932, Note_on_c, 0, 72, 90
4, 30944, Note_on_c, 0, 72, 0
4, 30951, Note_on_c, 0, 75, 87
4, 30964, Note_on_c, 0, 75, 0
4, 30966, Control_c, 0, 64, 0
4, 30968, Note_on_c, 0, 63, 31
4, 30970, Note_on_c, 0, 60, 38
4, 30972, Note_on_c, 0, 56, 34
4, 30973, Note_on_c, 0, 79, 83
4, 30973, Note_on_c, 0, 53, 29
4, 30993, Note_on_c, 0, 79, 0
4, 31001, Note_on_c, 0, 79, 63
4, 31002, Control_c, 0, 64, 127
4, 31026, Note_on_c, 0, 63, 0
4, 31027, Note_on_c, 0, 79, 0
4, 31029, Note_on_c, 0, 77, 50
4, 31046, Note_on_c, 0, 60, 0
4, 31070, Note_on_c, 0, 63, 32
4, 31071, Note_on_c, 0, 72, 47
4, 31071, Note_on_c, 0, 68, 33
4, 31072, Note_on_c, 0, 60, 18
4, 31082, Note_on_c, 0, 53, 0
4, 31118, Note_on_c, 0, 77, 0
4, 31126, Note_on_c, 0, 63, 0
4, 31127, Note_on_c, 0, 72, 0
4, 31139, Note_on_c, 0, 68, 0
4, 31142, Note_on_c, 0, 60, 0
4, 31160, Note_on_c, 0, 56, 0
4, 31199, Note_on_c, 0, 62, 36
4, 31199, Control_c, 0, 64, 0
4, 31200, Note_on_c, 0, 65, 49
4, 31200, Note_on_c, 0, 72, 44
4, 31201, Note_on_c, 0, 46, 37
4, 31202, Note_on_c, 0, 56, 25
4, 31224, Control_c, 0, 64, 127
4, 31237, Note_on_c, 0, 62, 0
4, 31238, Note_on_c, 0, 65, 0
4, 31238, Note_on_c, 0, 72, 0
4, 31241, Note_on_c, 0, 46, 0
4, 31248, Note_on_c, 0, 56, 0
4, 31262, Note_on_c, 0, 72, 79
4, 31262, Note_on_c, 0, 65, 80
4, 31262, Note_on_c, 0, 62, 78
4, 31263, Note_on_c, 0, 56, 55
4, 31263, Note_on_c, 0, 46, 62
4, 31300, Note_on_c, 0, 62, 0
4, 31301, Note_on_c, 0, 65, 0
4, 31302, Note_on_c, 0, 46, 0
4, 31303, Note_on_c, 0, 72, 0
4, 31304, Note_on_c, 0, 56, 0
4, 31323, Note_on_c, 0, 56, 48
4, 31323, Note_on_c, 0, 72, 53
4, 31324, Note_on_c, 0, 46, 42
4, 31324, Note_on_c, 0, 65, 67
4, 31325, Note_on_c, 0, 62, 54
4, 31349, Note_on_c, 0, 46, 0
4, 31356, Note_on_c, 0, 62, 0
4, 31357, Note_on_c, 0, 65, 0
4, 31357, Note_on_c, 0, 56, 0
4, 31359, Note_on_c, 0, 72, 0
4, 31382, Note_on_c, 0, 56, 37
4, 31382, Note_on_c, 0, 46, 49
4, 31383, Note_on_c, 0, 72, 40
4, 31383, Note_on_c, 0, 65, 62
4, 31384, Note_on_c, 0, 62, 48
4, 31387, Note_on_c, 0, 56, 0
4, 31394, Note_on_c, 0, 46, 0
4, 31403, Note_on_c, 0, 62, 0
4, 31405, Note_on_c, 0, 72, 0
4, 31405, Note_on_c, 0, 65, 0
4, 31445, Note_on_c, 0, 72, 90
4, 31446, Note_on_c, 0, 65, 89
4, 31446, Control_c, 0, 64, 0
4, 31446, Note_on_c, 0, 68, 68
4, 31446, Note_on_c, 0, 39, 76
4, 31446, Note_on_c, 0, 61, 77
4, 31447, Note_on_c, 0, 27, 77
4, 31470, Control_c, 0, 64, 127
4, 31517, Note_on_c, 0, 27, 0
4, 31521, Note_on_c, 0, 65, 0
4, 31523, Note_on_c, 0, 68, 0
4, 31524, Note_on_c, 0, 72, 0
4, 31524, Note_on_c, 0, 39, 0
4, 31527, Note_on_c, 0, 61, 0
4, 31561, Note_on_c, 0, 61, 59
4, 31561, Note_on_c, 0, 70, 59
4, 31563, Note_on_c, 0, 27, 55
4, 31563, Note_on_c, 0, 39, 55
4, 31563, Note_on_c, 0, 65, 54
4, 31564, Control_c, 0, 64, 0
4, 31580, Control_c, 0, 64, 127
4, 31602, Note_on_c, 0, 27, 0
4, 31609, Note_on_c, 0, 39, 0
4, 31615, Note_on_c, 0, 65, 0
4, 31615, Note_on_c, 0, 70, 0
4, 31628, Note_on_c, 0, 61, 0
4, 31694, Note_on_c, 0, 67, 88
4, 31694, Note_on_c, 0, 55, 101
4, 31694, Note_on_c, 0, 59, 89
4, 31695, Note_on_c, 0, 56, 92
4, 31695, Note_on_c, 0, 62, 79
4, 31696, Control_c, 0, 64, 0
4, 31712, Control_c, 0, 64, 127
4, 31746, Note_on_c, 0, 67, 0
4, 31751, Note_on_c, 0, 55, 0
4, 31755, Note_on_c, 0, 62, 0
4, 31756, Note_on_c, 0, 59, 0
4, 31763, Note_on_c, 0, 56, 0
4, 31805, Note_on_c, 0, 62, 60
4, 31807, Note_on_c, 0, 56, 48
4, 31808, Note_on_c, 0, 53, 49
4, 31808, Note_on_c, 0, 59, 47
4, 31809, Note_on_c, 0, 52, 61
4, 31814, Note_on_c, 0, 62, 0
4, 31819, Note_on_c, 0, 59, 0
4, 31822, Note_on_c, 0, 53, 0
4, 31831, Note_on_c, 0, 56, 0
4, 31839, Note_on_c, 0, 64, 73
4, 31839, Note_on_c, 0, 54, 76
4, 31840, Control_c, 0, 64, 0
4, 31841, Note_on_c, 0, 52, 0
4, 31841, Note_on_c, 0, 57, 73
4, 31841, Note_on_c, 0, 60, 64
4, 31841, Note_on_c, 0, 53, 64
4, 31848, Note_on_c, 0, 57, 0
4, 31849, Control_c, 0, 64, 127
4, 31850, Note_on_c, 0, 60, 0
4, 31852, Note_on_c, 0, 64, 0
4, 31854, Note_on_c, 0, 54, 0
4, 31861, Note_on_c, 0, 53, 0
4, 31868, Note_on_c, 0, 66, 27
4, 31868, Control_c, 0, 64, 0
4, 31872, Note_on_c, 0, 56, 77
4, 31872, Note_on_c, 0, 59, 78
4, 31873, Note_on_c, 0, 55, 81
4, 31873, Note_on_c, 0, 62, 64
4, 31888, Control_c, 0, 64, 127
4, 31890, Note_on_c, 0, 62, 0
4, 31890, Note_on_c, 0, 59, 0
4, 31893, Note_on_c, 0, 57, 31
4, 31894, Note_on_c, 0, 66, 0
4, 31897, Note_on_c, 0, 56, 0
4, 31899, Note_on_c, 0, 57, 0
4, 31910, Control_c, 0, 64, 0
4, 31911, Note_on_c, 0, 56, 81
4, 31911, Note_on_c, 0, 61, 62
4, 31911, Note_on_c, 0, 68, 72
4, 31912, Note_on_c, 0, 57, 53
4, 31913, Note_on_c, 0, 59, 61
4, 31913, Note_on_c, 0, 64, 59
4, 31914, Note_on_c, 0, 55, 0
4, 31916, Note_on_c, 0, 66, 29
4, 31917, Note_on_c, 0, 59, 0
4, 31923, Note_on_c, 0, 64, 0
4, 31923, Control_c, 0, 64, 127
4, 31926, Note_on_c, 0, 61, 0
4, 31928, Note_on_c, 0, 68, 0
4, 31928, Note_on_c, 0, 57, 0
4, 31929, Note_on_c, 0, 66, 0
4, 31943, Control_c, 0, 64, 0
4, 31945, Note_on_c, 0, 59, 36
4, 31945, Note_on_c, 0, 62, 61
4, 31946, Note_on_c, 0, 65, 64
4, 31946, Note_on_c, 0, 70, 67
4, 31946, Note_on_c, 0, 58, 80
4, 31952, Note_on_c, 0, 56, 0
4, 31956, Note_on_c, 0, 62, 0
4, 31958, Note_on_c, 0, 65, 0
4, 31958, Control_c, 0, 64, 127
4, 31960, Note_on_c, 0, 59, 0
4, 31969, Note_on_c, 0, 70, 0
4, 32027, Note_on_c, 0, 62, 64
4, 32028, Note_on_c, 0, 71, 53
4, 32029, Control_c, 0, 64, 0
4, 32030, Note_on_c, 0, 59, 52
4, 32030, Note_on_c, 0, 68, 42
4, 32030, Note_on_c, 0, 65, 57
4, 32034, Note_on_c, 0, 58, 0
4, 32037, Note_on_c, 0, 71, 0
4, 32043, Note_on_c, 0, 68, 0
4, 32049, Note_on_c, 0, 62, 0
4, 32053, Note_on_c, 0, 73, 49
4, 32055, Note_on_c, 0, 61, 55
4, 32057, Note_on_c, 0, 65, 0
4, 32060, Control_c, 0, 64, 127
4, 32061, Note_on_c, 0, 59, 0
4, 32065, Note_on_c, 0, 73, 0
4, 32073, Control_c, 0, 64, 0
4, 32077, Note_on_c, 0, 74, 63
4, 32079, Note_on_c, 0, 64, 44
4, 32079, Note_on_c, 0, 65, 49
4, 32079, Note_on_c, 0, 62, 58
4, 32084, Note_on_c, 0, 61, 0
4, 32086, Note_on_c, 0, 64, 0
4, 32087, Note_on_c, 0, 74, 0
4, 32088, Note_on_c, 0, 65, 0
4, 32091, Control_c, 0, 64, 127
4, 32102, Note_on_c, 0, 62, 0
4, 32108, Note_on_c, 0, 76, 60
4, 32110, Control_c, 0, 64, 0
4, 32110, Note_on_c, 0, 66, 38
4, 32110, Note_on_c, 0, 64, 64
4, 32111, Note_on_c, 0, 69, 58
4, 32119, Note_on_c, 0, 69, 0
4, 32121, Note_on_c, 0, 76, 0
4, 32123, Control_c, 0, 64, 127
4, 32127, Note_on_c, 0, 66, 0
4, 32130, Note_on_c, 0, 64, 0
4, 32135, Control_c, 0, 64, 0
4, 32142, Note_on_c, 0, 69, 64
4, 32142, Note_on_c, 0, 77, 54
4, 32143, Note_on_c, 0, 66, 59
4, 32143, Note_on_c, 0, 72, 58
4, 32144, Note_on_c, 0, 65, 68
4, 32150, Note_on_c, 0, 69, 0
4, 32152, Note_on_c, 0, 72, 0
4, 32154, Note_on_c, 0, 77, 0
4, 32155, Note_on_c, 0, 66, 0
4, 32158, Note_on_c, 0, 65, 0
4, 32158, Control_c, 0, 64, 127
4, 32167, Control_c, 0, 64, 0
4, 32176, Note_on_c, 0, 68, 64
4, 32177, Note_on_c, 0, 71, 62
4, 32177, Note_on_c, 0, 79, 54
4, 32177, Note_on_c, 0, 67, 66
4, 32178, Note_on_c, 0, 74, 54
4, 32178, Note_on_c, 0, 78, 23
4, 32186, Note_on_c, 0, 71, 0
4, 32188, Note_on_c, 0, 74, 0
4, 32188, Note_on_c, 0, 68, 0
4, 32189, Note_on_c, 0, 78, 0
4, 32190, Note_on_c, 0, 79, 0
4, 32197, Note_on_c, 0, 67, 0
4, 32210, Note_on_c, 0, 80, 56
4, 32211, Note_on_c, 0, 73, 25
4, 32212, Note_on_c, 0, 68, 51
4, 32213, Note_on_c, 0, 69, 35
4, 32214, Note_on_c, 0, 71, 34
4, 32218, Control_c, 0, 64, 127
4, 32220, Note_on_c, 0, 71, 0
4, 32220, Note_on_c, 0, 73, 0
4, 32220, Note_on_c, 0, 69, 0
4, 32225, Note_on_c, 0, 80, 0
4, 32242, Note_on_c, 0, 68, 0
4, 32244, Control_c, 0, 64, 0
4, 32245, Note_on_c, 0, 70, 63
4, 32245, Note_on_c, 0, 74, 49
4, 32245, Note_on_c, 0, 82, 56
4, 32246, Note_on_c, 0, 71, 25
4, 32248, Note_on_c, 0, 77, 34
4, 32253, Control_c, 0, 64, 127
4, 32259, Note_on_c, 0, 70, 0
4, 32260, Note_on_c, 0, 74, 0
4, 32260, Note_on_c, 0, 77, 0
4, 32263, Note_on_c, 0, 82, 0
4, 32268, Note_on_c, 0, 71, 0
4, 32284, Control_c, 0, 64, 0
4, 32285, Note_on_c, 0, 79, 60
4, 32286, Note_on_c, 0, 71, 57
4, 32286, Note_on_c, 0, 74, 57
4, 32286, Note_on_c, 0, 67, 57
4, 32292, Control_c, 0, 64, 127
4, 32293, Note_on_c, 0, 68, 10
4, 32299, Note_on_c, 0, 79, 0
4, 32304, Note_on_c, 0, 71, 0
4, 32307, Note_on_c, 0, 67, 0
4, 32307, Note_on_c, 0, 74, 0
4, 32310, Note_on_c, 0, 68, 0
4, 32322, Control_c, 0, 64, 0
4, 32322, Note_on_c, 0, 68, 60
4, 32323, Note_on_c, 0, 77, 49
4, 32323, Note_on_c, 0, 71, 48
4, 32324, Note_on_c, 0, 65, 44
4, 32324, Control_c, 0, 64, 127
4, 32330, Note_on_c, 0, 71, 0
4, 32333, Note_on_c, 0, 77, 0
4, 32338, Note_on_c, 0, 68, 0
4, 32342, Note_on_c, 0, 65, 0
4, 32359, Control_c, 0, 64, 0
4, 32361, Note_on_c, 0, 76, 45
4, 32361, Note_on_c, 0, 64, 45
4, 32362, Note_on_c, 0, 68, 48
4, 32363, Note_on_c, 0, 71, 45
4, 32363, Note_on_c, 0, 65, 44
4, 32365, Control_c, 0, 64, 127
4, 32374, Note_on_c, 0, 76, 0
4, 32381, Note_on_c, 0, 68, 0
4, 32382, Note_on_c, 0, 71, 0
4, 32384, Note_on_c, 0, 65, 0
4, 32390, Note_on_c, 0, 64, 0
4, 32400, Note_on_c, 0, 74, 40
4, 32402, Note_on_c, 0, 65, 44
4, 32402, Note_on_c, 0, 62, 40
4, 32403, Note_on_c, 0, 68, 30
4, 32407, Note_on_c, 0, 62, 0
4, 32412, Note_on_c, 0, 74, 0
4, 32412, Note_on_c, 0, 65, 0
4, 32413, Note_on_c, 0, 68, 0
4, 32450, Note_on_c, 0, 75, 42
4, 32450, Note_on_c, 0, 67, 38
4, 32451, Note_on_c, 0, 70, 42
4, 32451, Control_c, 0, 64, 0
4, 32453, Note_on_c, 0, 44, 39
4, 32455, Note_on_c, 0, 72, 40
4, 32468, Control_c, 0, 64, 127
4, 32470, Note_on_c, 0, 44, 0
4, 32488, Note_on_c, 0, 72, 0
4, 32491, Note_on_c, 0, 75, 0
4, 32492, Note_on_c, 0, 70, 0
4, 32494, Note_on_c, 0, 67, 0
4, 32497, Note_on_c, 0, 58, 34
4, 32521, Note_on_c, 0, 60, 58
4, 32531, Note_on_c, 0, 60, 0
4, 32537, Note_on_c, 0, 60, 17
4, 32553, Note_on_c, 0, 65, 51
4, 32567, Note_on_c, 0, 65, 0
4, 32570, Note_on_c, 0, 67, 68
4, 32573, Note_on_c, 0, 63, 27
4, 32575, Note_on_c, 0, 60, 0
4, 32579, Note_on_c, 0, 67, 0
4, 32583, Note_on_c, 0, 70, 57
4, 32590, Note_on_c, 0, 70, 0
4, 32594, Note_on_c, 0, 72, 68
4, 32598, Note_on_c, 0, 60, 28
4, 32600, Note_on_c, 0, 63, 0
4, 32603, Note_on_c, 0, 60, 0
4, 32604, Note_on_c, 0, 72, 0
4, 32607, Note_on_c, 0, 75, 67
4, 32608, Note_on_c, 0, 58, 0
4, 32614, Note_on_c, 0, 75, 0
4, 32620, Note_on_c, 0, 77, 56
4, 32632, Note_on_c, 0, 79, 50
4, 32633, Note_on_c, 0, 77, 0
4, 32642, Note_on_c, 0, 79, 0
4, 32645, Note_on_c, 0, 82, 53
4, 32651, Note_on_c, 0, 82, 0
4, 32659, Note_on_c, 0, 84, 54
4, 32666, Note_on_c, 0, 84, 0
4, 32672, Note_on_c, 0, 87, 57
4, 32677, Note_on_c, 0, 87, 0
4, 32686, Note_on_c, 0, 89, 62
4, 32698, Note_on_c, 0, 89, 0
4, 32699, Note_on_c, 0, 91, 51
4, 32707, Note_on_c, 0, 91, 0
4, 32713, Note_on_c, 0, 94, 46
4, 32720, Note_on_c, 0, 94, 0
4, 32729, Note_on_c, 0, 95, 27
4, 32730, Note_on_c, 0, 96, 28
4, 32734, Note_on_c, 0, 95, 0
4, 32735, Note_on_c, 0, 96, 0
4, 32742, Note_on_c, 0, 99, 57
4, 32750, Note_on_c, 0, 99, 0
4, 32759, Note_on_c, 0, 101, 65
4, 32769, Note_on_c, 0, 101, 0
4, 32775, Note_on_c, 0, 103, 49
4, 32786, Note_on_c, 0, 103, 0
4, 32791, Note_on_c, 0, 106, 59
4, 32806, Note_on_c, 0, 106, 0
4, 32810, Note_on_c, 0, 51, 31
4, 32811, Note_on_c, 0, 108, 80
4, 32811, Note_on_c, 0, 44, 46
4, 32855, Note_on_c, 0, 108, 0
4, 32856, Note_on_c, 0, 51, 0
4, 32861, Note_on_c, 0, 44, 0
4, 32950, Note_on_c, 0, 27, 34
4, 33127, Note_on_c, 0, 32, 35
4, 33128, Note_on_c, 0, 27, 0
4, 33177, Note_on_c, 0, 32, 0
4, 33255, Control_c, 0, 64, 0
4, 33255, End_track
5, 0, Start_track
5, 0, Title_t, ""
5, 0, Program_c, 9, 32
5, 0, Control_c, 9, 7, 81
5, 1, Note_on_c, 9, 36, 60
5, 14, Note_on_c, 9, 36, 0
5, 600, Note_on_c, 9, 36, 19
5, 611, Note_on_c, 9, 36, 0
5, 641, Note_on_c, 9, 36, 25
5, 649, Note_on_c, 9, 36, 0
5, 816, Note_on_c, 9, 38, 42
5, 822, Note_on_c, 9, 38, 0
5, 840, Note_on_c, 9, 38, 31
5, 846, Note_on_c, 9, 38, 0
5, 879, Note_on_c, 9, 36, 27
5, 894, Note_on_c, 9, 36, 0
5, 1159, Note_on_c, 9, 38, 39
5, 1168, Note_on_c, 9, 38, 0
5, 1200, Note_on_c, 9, 36, 51
5, 1217, Note_on_c, 9, 36, 0
5, 1237, Note_on_c, 9, 36, 45
5, 1257, Note_on_c, 9, 36, 0
5, 1717, Note_on_c, 9, 37, 35
5, 1722, Note_on_c, 9, 37, 0
5, 1745, Note_on_c, 9, 37, 39
5, 1755, Note_on_c, 9, 37, 0
5, 1843, Note_on_c, 9, 37, 33
5, 1854, Note_on_c, 9, 37, 0
5, 1873, Note_on_c, 9, 37, 28
5, 1886, Note_on_c, 9, 37, 0
5, 1904, Note_on_c, 9, 36, 31
5, 1919, Note_on_c, 9, 36, 0
5, 1929, Note_on_c, 9, 36, 59
5, 1958, Note_on_c, 9, 36, 0
5, 1981, Note_on_c, 9, 36, 62
5, 2020, Note_on_c, 9, 36, 0
5, 2269, Note_on_c, 9, 46, 48
5, 2274, Note_on_c, 9, 46, 0
5, 2298, Note_on_c, 9, 46, 42
5, 2301, Note_on_c, 9, 46, 0
5, 2334, Note_on_c, 9, 36, 32
5, 2362, Note_on_c, 9, 36, 0
5, 2383, Note_on_c, 9, 36, 36
5, 2397, Note_on_c, 9, 36, 0
5, 2406, Note_on_c, 9, 36, 41
5, 2433, Note_on_c, 9, 36, 0
5, 2807, Note_on_c, 9, 37, 42
5, 2817, Note_on_c, 9, 37, 0
5, 2849, Note_on_c, 9, 37, 54
5, 2871, Note_on_c, 9, 37, 0
5, 2890, Note_on_c, 9, 37, 48
5, 2909, Note_on_c, 9, 37, 0
5, 2931, Note_on_c, 9, 37, 35
5, 2945, Note_on_c, 9, 37, 0
5, 3357, Note_on_c, 9, 36, 33
5, 3364, Note_on_c, 9, 36, 0
5, 3406, Note_on_c, 9, 36, 35
5, 3413, Note_on_c, 9, 36, 0
5, 3534, Note_on_c, 9, 38, 36
5, 3539, Note_on_c, 9, 38, 0
5, 3556, Note_on_c, 9, 36, 30
5, 3565, Note_on_c, 9, 36, 0
5, 3597, Note_on_c, 9, 36, 32
5, 3606, Note_on_c, 9, 36, 0
5, 3824, Note_on_c, 9, 38, 60
5, 3836, Note_on_c, 9, 38, 0
5, 3850, Note_on_c, 9, 36, 26
5, 3865, Note_on_c, 9, 36, 0
5, 4070, Note_on_c, 9, 38, 53
5, 4074, Note_on_c, 9, 38, 0
5, 4093, Note_on_c, 9, 36, 22
5, 4098, Note_on_c, 9, 36, 0
5, 4136, Note_on_c, 9, 36, 24
5, 4143, Note_on_c, 9, 36, 0
5, 4155, Note_on_c, 9, 36, 36
5, 4173, Note_on_c, 9, 36, 0
5, 4191, Note_on_c, 9, 36, 55
5, 4205, Note_on_c, 9, 36, 0
5, 4444, Note_on_c, 9, 38, 34
5, 4451, Note_on_c, 9, 38, 0
5, 4459, Note_on_c, 9, 38, 42
5, 4466, Note_on_c, 9, 38, 0
5, 4658, Note_on_c, 9, 38, 47
5, 4662, Note_on_c, 9, 38, 0
5, 4680, Note_on_c, 9, 36, 25
5, 4688, Note_on_c, 9, 36, 0
5, 4718, Note_on_c, 9, 38, 51
5, 4722, Note_on_c, 9, 38, 0
5, 4780, Note_on_c, 9, 38, 57
5, 4786, Note_on_c, 9, 38, 0
5, 5164, Note_on_c, 9, 38, 39
5, 5168, Note_on_c, 9, 38, 0
5, 5198, Note_on_c, 9, 38, 29
5, 5201, Note_on_c, 9, 38, 0
5, 5223, Note_on_c, 9, 38, 64
5, 5228, Note_on_c, 9, 38, 0
5, 5529, Note_on_c, 9, 36, 22
5, 5537, Note_on_c, 9, 36, 0
5, 5732, Note_on_c, 9, 36, 37
5, 5739, Note_on_c, 9, 36, 0
5, 5758, Note_on_c, 9, 36, 36
5, 5781, Note_on_c, 9, 36, 0
5, 5797, Note_on_c, 9, 36, 30
5, 5803, Note_on_c, 9, 36, 0
5, 6092, Note_on_c, 9, 40, 55
5, 6097, Note_on_c, 9, 38, 35
5, 6105, Note_on_c, 9, 40, 0
5, 6106, Note_on_c, 9, 38, 0
5, 6131, Note_on_c, 9, 38, 33
5, 6140, Note_on_c, 9, 38, 0
5, 6220, Note_on_c, 9, 36, 40
5, 6237, Note_on_c, 9, 36, 0
5, 6249, Note_on_c, 9, 36, 41
5, 6261, Note_on_c, 9, 36, 0
5, 6536, Note_on_c, 9, 36, 51
5, 6557, Note_on_c, 9, 36, 0
5, 6676, Note_on_c, 9, 36, 29
5, 6691, Note_on_c, 9, 36, 0
5, 6710, Note_on_c, 9, 36, 41
5, 6724, Note_on_c, 9, 36, 0
5, 6736, Note_on_c, 9, 36, 44
5, 6759, Note_on_c, 9, 36, 0
5, 6774, Note_on_c, 9, 36, 48
5, 6787, Note_on_c, 9, 36, 0
5, 6814, Note_on_c, 9, 36, 35
5, 6834, Note_on_c, 9, 36, 0
5, 6846, Note_on_c, 9, 36, 41
5, 6875, Note_on_c, 9, 36, 0
5, 7093, Note_on_c, 9, 40, 36
5, 7112, Note_on_c, 9, 40, 0
5, 7122, Note_on_c, 9, 40, 53
5, 7134, Note_on_c, 9, 40, 0
5, 7176, Note_on_c, 9, 36, 49
5, 7196, Note_on_c, 9, 36, 0
5, 7204, Note_on_c, 9, 36, 71
5, 7234, Note_on_c, 9, 36, 0
5, 7421, Note_on_c, 9, 38, 34
5, 7425, Note_on_c, 9, 38, 0
5, 7454, Note_on_c, 9, 36, 22
5, 7466, Note_on_c, 9, 36, 0
5, 7662, Note_on_c, 9, 38, 31
5, 7667, Note_on_c, 9, 38, 0
5, 7682, Note_on_c, 9, 36, 50
5, 7709, Note_on_c, 9, 36, 0
5, 7966, Note_on_c, 9, 46, 51
5, 7974, Note_on_c, 9, 46, 0
5, 7992, Note_on_c, 9, 46, 53
5, 8016, Note_on_c, 9, 46, 0
5, 8022, Note_on_c, 9, 36, 39
5, 8035, Note_on_c, 9, 36, 0
5, 8046, Note_on_c, 9, 36, 39
5, 8077, Note_on_c, 9, 36, 0
5, 8433, Note_on_c, 9, 44, 53
5, 8438, Note_on_c, 9, 44, 0
5, 8506, Note_on_c, 9, 36, 40
5, 8516, Note_on_c, 9, 36, 0
5, 8528, Note_on_c, 9, 36, 51
5, 8552, Note_on_c, 9, 36, 0
5, 8564, Note_on_c, 9, 36, 49
5, 8578, Note_on_c, 9, 36, 0
5, 8624, Note_on_c, 9, 46, 54
5, 8628, Note_on_c, 9, 46, 0
5, 8642, Note_on_c, 9, 36, 28
5, 8667, Note_on_c, 9, 36, 0
5, 8683, Note_on_c, 9, 36, 40
5, 8688, Note_on_c, 9, 36, 0
5, 8825, Note_on_c, 9, 38, 40
5, 8833, Note_on_c, 9, 38, 0
5, 8843, Note_on_c, 9, 38, 44
5, 8849, Note_on_c, 9, 38, 0
5, 8862, Note_on_c, 9, 36, 45
5, 8879, Note_on_c, 9, 36, 0
5, 8977, Note_on_c, 9, 38, 44
5, 8981, Note_on_c, 9, 38, 0
5, 8996, Note_on_c, 9, 38, 61
5, 9004, Note_on_c, 9, 38, 0
5, 9011, Note_on_c, 9, 38, 49
5, 9017, Note_on_c, 9, 38, 0
5, 9033, Note_on_c, 9, 36, 50
5, 9047, Note_on_c, 9, 36, 0
5, 9578, Note_on_c, 9, 36, 48
5, 9586, Note_on_c, 9, 36, 0
5, 9600, Note_on_c, 9, 36, 30
5, 9633, Note_on_c, 9, 36, 0
5, 9648, Note_on_c, 9, 36, 30
5, 9655, Note_on_c, 9, 36, 0
5, 9832, Note_on_c, 9, 36, 24
5, 9837, Note_on_c, 9, 36, 0
5, 9852, Note_on_c, 9, 36, 42
5, 9879, Note_on_c, 9, 36, 0
5, 9946, Note_on_c, 9, 38, 34
5, 9960, Note_on_c, 9, 38, 0
5, 9977, Note_on_c, 9, 38, 49
5, 9987, Note_on_c, 9, 38, 0
5, 10011, Note_on_c, 9, 38, 39
5, 10018, Note_on_c, 9, 38, 0
5, 10092, Note_on_c, 9, 36, 47
5, 10116, Note_on_c, 9, 36, 0
5, 10128, Note_on_c, 9, 36, 43
5, 10138, Note_on_c, 9, 36, 0
5, 10386, Note_on_c, 9, 46, 36
5, 10392, Note_on_c, 9, 46, 0
5, 10487, Note_on_c, 9, 36, 29
5, 10496, Note_on_c, 9, 36, 0
5, 10512, Note_on_c, 9, 36, 35
5, 10530, Note_on_c, 9, 36, 0
5, 10548, Note_on_c, 9, 36, 65
5, 10561, Note_on_c, 9, 36, 0
5, 10968, Note_on_c, 9, 38, 55
5, 10972, Note_on_c, 9, 38, 0
5, 11024, Note_on_c, 9, 38, 55
5, 11035, Note_on_c, 9, 38, 0
5, 11048, Note_on_c, 9, 36, 31
5, 11070, Note_on_c, 9, 36, 0
5, 11316, Note_on_c, 9, 40, 39
5, 11320, Note_on_c, 9, 38, 41
5, 11328, Note_on_c, 9, 40, 0
5, 11332, Note_on_c, 9, 38, 0
5, 11360, Note_on_c, 9, 36, 33
5, 11390, Note_on_c, 9, 36, 0
5, 11405, Note_on_c, 9, 36, 31
5, 11426, Note_on_c, 9, 36, 0
5, 11442, Note_on_c, 9, 36, 29
5, 11450, Note_on_c, 9, 36, 0
5, 11498, Note_on_c, 9, 47, 47
5, 11500, Note_on_c, 9, 45, 45
5, 11503, Note_on_c, 9, 47, 0
5, 11505, Note_on_c, 9, 45, 0
5, 11521, Note_on_c, 9, 36, 27
5, 11547, Note_on_c, 9, 36, 0
5, 11569, Note_on_c, 9, 36, 34
5, 11575, Note_on_c, 9, 36, 0
5, 11696, Note_on_c, 9, 36, 29
5, 11710, Note_on_c, 9, 36, 0
5, 11719, Note_on_c, 9, 36, 53
5, 11745, Note_on_c, 9, 36, 0
5, 11774, Note_on_c, 9, 36, 38
5, 11779, Note_on_c, 9, 38, 33
5, 11800, Note_on_c, 9, 36, 0
5, 11802, Note_on_c, 9, 38, 0
5, 11832, Note_on_c, 9, 36, 36
5, 11843, Note_on_c, 9, 36, 0
5, 11868, Note_on_c, 9, 36, 53
5, 11880, Note_on_c, 9, 36, 0
5, 11923, Note_on_c, 9, 38, 40
5, 11931, Note_on_c, 9, 38, 0
5, 11950, Note_on_c, 9, 38, 26
5, 11968, Note_on_c, 9, 38, 0
5, 11975, Note_on_c, 9, 36, 44
5, 11996, Note_on_c, 9, 36, 0
5, 12114, Note_on_c, 9, 38, 48
5, 12142, Note_on_c, 9, 38, 0
5, 12145, Note_on_c, 9, 36, 53
5, 12160, Note_on_c, 9, 36, 0
5, 12173, Note_on_c, 9, 36, 44
5, 12197, Note_on_c, 9, 36, 0
5, 12231, Note_on_c, 9, 38, 53
5, 12253, Note_on_c, 9, 38, 0
5, 12260, Note_on_c, 9, 36, 52
5, 12279, Note_on_c, 9, 36, 0
5, 12289, Note_on_c, 9, 36, 60
5, 12316, Note_on_c, 9, 36, 0
5, 12474, Note_on_c, 9, 38, 38
5, 12475, Note_on_c, 9, 36, 54
5, 12480, Note_on_c, 9, 38, 0
5, 12482, Note_on_c, 9, 36, 0
5, 12697, Note_on_c, 9, 36, 34
5, 12710, Note_on_c, 9, 36, 0
5, 12725, Note_on_c, 9, 36, 32
5, 12777, Note_on_c, 9, 36, 0
5, 12874, Note_on_c, 9, 40, 22
5, 12882, Note_on_c, 9, 40, 0
5, 12897, Note_on_c, 9, 40, 52
5, 12920, Note_on_c, 9, 40, 0
5, 12928, Note_on_c, 9, 36, 40
5, 12946, Note_on_c, 9, 36, 0
5, 12955, Note_on_c, 9, 36, 76
5, 12992, Note_on_c, 9, 36, 0
5, 13352, Note_on_c, 9, 38, 38
5, 13369, Note_on_c, 9, 38, 0
5, 13381, Note_on_c, 9, 38, 33
5, 13407, Note_on_c, 9, 38, 0
5, 13412, Note_on_c, 9, 36, 45
5, 13420, Note_on_c, 9, 36, 0
5, 13443, Note_on_c, 9, 46, 61
5, 13443, Note_on_c, 9, 36, 66
5, 13605, Note_on_c, 9, 46, 0
5, 13607, Note_on_c, 9, 36, 0
5, 13656, Note_on_c, 9, 36, 38
5, 13661, Note_on_c, 9, 36, 0
5, 13679, Note_on_c, 9, 46, 37
5, 13680, Note_on_c, 9, 36, 45
5, 13777, Note_on_c, 9, 46, 0
5, 13808, Note_on_c, 9, 36, 0
5, 13835, Note_on_c, 9, 40, 75
5, 13841, Note_on_c, 9, 40, 0
5, 13899, Note_on_c, 9, 36, 62
5, 13916, Note_on_c, 9, 36, 0
5, 13924, Note_on_c, 9, 36, 73
5, 14078, Note_on_c, 9, 46, 34
5, 14084, Note_on_c, 9, 46, 0
5, 14102, Note_on_c, 9, 36, 0
5, 14105, Note_on_c, 9, 46, 50
5, 14112, Note_on_c, 9, 46, 0
5, 14140, Note_on_c, 9, 36, 41
5, 14146, Note_on_c, 9, 36, 0
5, 14167, Note_on_c, 9, 36, 49
5, 14211, Note_on_c, 9, 36, 0
5, 14262, Note_on_c, 9, 36, 25
5, 14268, Note_on_c, 9, 36, 0
5, 14317, Note_on_c, 9, 40, 53
5, 14322, Note_on_c, 9, 40, 0
5, 14342, Note_on_c, 9, 46, 60
5, 14347, Note_on_c, 9, 46, 0
5, 14374, Note_on_c, 9, 36, 57
5, 14390, Note_on_c, 9, 36, 0
5, 14400, Note_on_c, 9, 36, 79
5, 14438, Note_on_c, 9, 36, 0
5, 14459, Note_on_c, 9, 36, 66
5, 14606, Note_on_c, 9, 36, 0
5, 14652, Note_on_c, 9, 36, 38
5, 14661, Note_on_c, 9, 36, 0
5, 14682, Note_on_c, 9, 38, 27
5, 14687, Note_on_c, 9, 38, 0
5, 14738, Note_on_c, 9, 38, 37
5, 14746, Note_on_c, 9, 38, 0
5, 14762, Note_on_c, 9, 38, 32
5, 14788, Note_on_c, 9, 38, 0
5, 14796, Note_on_c, 9, 36, 47
5, 14810, Note_on_c, 9, 36, 0
5, 14911, Note_on_c, 9, 38, 50
5, 14915, Note_on_c, 9, 40, 39
5, 14921, Note_on_c, 9, 38, 0
5, 14935, Note_on_c, 9, 40, 0
5, 14964, Note_on_c, 9, 36, 37
5, 14978, Note_on_c, 9, 36, 0
5, 14998, Note_on_c, 9, 36, 36
5, 15025, Note_on_c, 9, 36, 0
5, 15219, Note_on_c, 9, 38, 45
5, 15223, Note_on_c, 9, 38, 0
5, 15277, Note_on_c, 9, 38, 29
5, 15292, Note_on_c, 9, 38, 0
5, 15344, Note_on_c, 9, 38, 30
5, 15348, Note_on_c, 9, 38, 0
5, 15366, Note_on_c, 9, 36, 27
5, 15384, Note_on_c, 9, 36, 0
5, 15418, Note_on_c, 9, 36, 40
5, 15452, Note_on_c, 9, 36, 0
5, 15582, Note_on_c, 9, 36, 30
5, 15588, Note_on_c, 9, 36, 0
5, 15605, Note_on_c, 9, 36, 33
5, 15677, Note_on_c, 9, 36, 0
5, 16053, Note_on_c, 9, 36, 22
5, 16060, Note_on_c, 9, 36, 0
5, 16248, Note_on_c, 9, 40, 40
5, 16254, Note_on_c, 9, 40, 0
5, 16287, Note_on_c, 9, 36, 39
5, 16299, Note_on_c, 9, 36, 0
5, 16310, Note_on_c, 9, 36, 45
5, 16337, Note_on_c, 9, 36, 0
5, 16779, Note_on_c, 9, 36, 27
5, 16787, Note_on_c, 9, 36, 0
5, 16801, Note_on_c, 9, 36, 33
5, 16815, Note_on_c, 9, 36, 0
5, 16923, Note_on_c, 9, 36, 29
5, 16943, Note_on_c, 9, 36, 0
5, 16962, Note_on_c, 9, 46, 48
5, 16974, Note_on_c, 9, 46, 0
5, 17017, Note_on_c, 9, 36, 32
5, 17026, Note_on_c, 9, 36, 0
5, 17044, Note_on_c, 9, 46, 57
5, 17065, Note_on_c, 9, 46, 0
5, 17097, Note_on_c, 9, 36, 38
5, 17104, Note_on_c, 9, 36, 0
5, 17132, Note_on_c, 9, 46, 78
5, 17172, Note_on_c, 9, 46, 0
5, 17219, Note_on_c, 9, 46, 60
5, 17230, Note_on_c, 9, 46, 0
5, 17259, Note_on_c, 9, 36, 62
5, 17264, Note_on_c, 9, 36, 0
5, 17505, Note_on_c, 9, 36, 67
5, 17512, Note_on_c, 9, 38, 22
5, 17519, Note_on_c, 9, 38, 0
5, 17528, Note_on_c, 9, 36, 0
5, 17536, Note_on_c, 9, 36, 40
5, 17544, Note_on_c, 9, 36, 0
5, 17573, Note_on_c, 9, 36, 41
5, 17586, Note_on_c, 9, 36, 0
5, 17659, Note_on_c, 9, 36, 27
5, 17667, Note_on_c, 9, 36, 0
5, 17776, Note_on_c, 9, 36, 28
5, 17782, Note_on_c, 9, 36, 0
5, 17794, Note_on_c, 9, 40, 41
5, 17803, Note_on_c, 9, 40, 0
5, 17813, Note_on_c, 9, 40, 42
5, 17824, Note_on_c, 9, 40, 0
5, 17832, Note_on_c, 9, 40, 48
5, 17837, Note_on_c, 9, 40, 0
5, 17918, Note_on_c, 9, 36, 36
5, 17926, Note_on_c, 9, 36, 0
5, 17942, Note_on_c, 9, 36, 35
5, 17962, Note_on_c, 9, 36, 0
5, 17973, Note_on_c, 9, 36, 59
5, 17989, Note_on_c, 9, 36, 0
5, 17999, Note_on_c, 9, 36, 54
5, 18016, Note_on_c, 9, 36, 0
5, 18103, Note_on_c, 9, 40, 35
5, 18110, Note_on_c, 9, 40, 0
5, 18120, Note_on_c, 9, 40, 38
5, 18129, Note_on_c, 9, 40, 0
5, 18137, Note_on_c, 9, 40, 53
5, 18154, Note_on_c, 9, 40, 0
5, 18169, Note_on_c, 9, 40, 63
5, 18181, Note_on_c, 9, 40, 0
5, 18206, Note_on_c, 9, 40, 58
5, 18215, Note_on_c, 9, 40, 0
5, 18223, Note_on_c, 9, 40, 65
5, 18231, Note_on_c, 9, 40, 0
5, 18241, Note_on_c, 9, 36, 51
5, 18264, Note_on_c, 9, 36, 0
5, 18286, Note_on_c, 9, 36, 47
5, 18301, Note_on_c, 9, 36, 0
5, 18369, Note_on_c, 9, 36, 48
5, 18381, Note_on_c, 9, 36, 0
5, 18690, Note_on_c, 9, 36, 29
5, 18696, Note_on_c, 9, 36, 0
5, 18716, Note_on_c, 9, 36, 32
5, 18732, Note_on_c, 9, 36, 0
5, 18874, Note_on_c, 9, 52, 34
5, 18879, Note_on_c, 9, 52, 0
5, 18902, Note_on_c, 9, 52, 67
5, 18941, Note_on_c, 9, 52, 0
5, 18994, Note_on_c, 9, 36, 31
5, 18999, Note_on_c, 9, 36, 0
5, 19024, Note_on_c, 9, 49, 25
5, 19033, Note_on_c, 9, 49, 0
5, 19055, Note_on_c, 9, 49, 54
5, 19063, Note_on_c, 9, 49, 0
5, 19118, Note_on_c, 9, 49, 39
5, 19122, Note_on_c, 9, 49, 0
5, 19173, Note_on_c, 9, 36, 32
5, 19184, Note_on_c, 9, 36, 0
5, 19197, Note_on_c, 9, 36, 52
5, 19230, Note_on_c, 9, 36, 0
5, 19447, Note_on_c, 9, 36, 34
5, 19460, Note_on_c, 9, 36, 0
5, 19599, Note_on_c, 9, 57, 24
5, 19611, Note_on_c, 9, 57, 0
5, 19624, Note_on_c, 9, 57, 31
5, 19644, Note_on_c, 9, 57, 0
5, 19655, Note_on_c, 9, 57, 41
5, 19664, Note_on_c, 9, 57, 0
5, 19714, Note_on_c, 9, 36, 41
5, 19720, Note_on_c, 9, 36, 0
5, 19740, Note_on_c, 9, 36, 33
5, 19752, Note_on_c, 9, 36, 0
5, 19769, Note_on_c, 9, 36, 60
5, 19786, Note_on_c, 9, 36, 0
5, 19891, Note_on_c, 9, 38, 53
5, 19909, Note_on_c, 9, 38, 0
5, 19918, Note_on_c, 9, 38, 56
5, 19950, Note_on_c, 9, 36, 34
5, 19963, Note_on_c, 9, 36, 0
5, 19974, Note_on_c, 9, 36, 46
5, 20004, Note_on_c, 9, 38, 0
5, 20007, Note_on_c, 9, 36, 0
5, 20067, Note_on_c, 9, 38, 43
5, 20083, Note_on_c, 9, 38, 0
5, 20093, Note_on_c, 9, 38, 51
5, 20123, Note_on_c, 9, 36, 56
5, 20132, Note_on_c, 9, 38, 0
5, 20135, Note_on_c, 9, 36, 0
5, 20151, Note_on_c, 9, 57, 45
5, 20151, Note_on_c, 9, 38, 50
5, 20152, Note_on_c, 9, 36, 50
5, 20172, Note_on_c, 9, 57, 0
5, 20299, Note_on_c, 9, 38, 0
5, 20302, Note_on_c, 9, 36, 0
5, 20617, Note_on_c, 9, 38, 44
5, 20629, Note_on_c, 9, 38, 0
5, 20642, Note_on_c, 9, 38, 26
5, 20656, Note_on_c, 9, 38, 0
5, 20797, Note_on_c, 9, 38, 24
5, 20810, Note_on_c, 9, 38, 0
5, 20818, Note_on_c, 9, 38, 46
5, 20822, Note_on_c, 9, 38, 0
5, 21025, Note_on_c, 9, 40, 76
5, 21039, Note_on_c, 9, 40, 0
5, 21051, Note_on_c, 9, 40, 50
5, 21061, Note_on_c, 9, 40, 0
5, 21080, Note_on_c, 9, 36, 36
5, 21092, Note_on_c, 9, 36, 0
5, 21106, Note_on_c, 9, 38, 31
5, 21130, Note_on_c, 9, 38, 0
5, 21142, Note_on_c, 9, 38, 32
5, 21159, Note_on_c, 9, 38, 0
5, 21173, Note_on_c, 9, 38, 33
5, 21194, Note_on_c, 9, 38, 0
5, 21333, Note_on_c, 9, 38, 25
5, 21339, Note_on_c, 9, 38, 0
5, 21360, Note_on_c, 9, 38, 19
5, 21374, Note_on_c, 9, 38, 0
5, 21422, Note_on_c, 9, 38, 30
5, 21500, Note_on_c, 9, 38, 0
5, 21752, Note_on_c, 9, 38, 43
5, 21758, Note_on_c, 9, 38, 0
5, 21783, Note_on_c, 9, 36, 15
5, 21792, Note_on_c, 9, 36, 0
5, 21809, Note_on_c, 9, 36, 49
5, 21828, Note_on_c, 9, 36, 0
5, 21839, Note_on_c, 9, 36, 48
5, 21852, Note_on_c, 9, 36, 0
5, 22059, Note_on_c, 9, 36, 58
5, 22069, Note_on_c, 9, 36, 0
5, 22083, Note_on_c, 9, 36, 68
5, 22132, Note_on_c, 9, 36, 0
5, 22143, Note_on_c, 9, 36, 60
5, 22305, Note_on_c, 9, 36, 0
5, 22481, Note_on_c, 9, 38, 36
5, 22481, Note_on_c, 9, 40, 61
5, 22491, Note_on_c, 9, 38, 0
5, 22502, Note_on_c, 9, 40, 0
5, 22535, Note_on_c, 9, 36, 19
5, 22547, Note_on_c, 9, 36, 0
5, 22559, Note_on_c, 9, 36, 49
5, 22598, Note_on_c, 9, 36, 0
5, 22812, Note_on_c, 9, 36, 38
5, 22824, Note_on_c, 9, 36, 0
5, 22992, Note_on_c, 9, 36, 1
5, 23009, Note_on_c, 9, 36, 0
5, 23022, Note_on_c, 9, 52, 73
5, 23044, Note_on_c, 9, 52, 0
5, 23054, Note_on_c, 9, 49, 33
5, 23081, Note_on_c, 9, 49, 0
5, 23087, Note_on_c, 9, 36, 52
5, 23109, Note_on_c, 9, 36, 0
5, 23143, Note_on_c, 9, 36, 33
5, 23152, Note_on_c, 9, 36, 0
5, 23169, Note_on_c, 9, 36, 36
5, 23214, Note_on_c, 9, 52, 34
5, 23219, Note_on_c, 9, 52, 0
5, 23238, Note_on_c, 9, 36, 0
5, 23249, Note_on_c, 9, 49, 61
5, 23250, Note_on_c, 9, 52, 63
5, 23263, Note_on_c, 9, 49, 0
5, 23273, Note_on_c, 9, 52, 0
5, 23290, Note_on_c, 9, 52, 54
5, 23290, Note_on_c, 9, 49, 23
5, 23296, Note_on_c, 9, 49, 0
5, 23311, Note_on_c, 9, 52, 0
5, 23328, Note_on_c, 9, 49, 32
5, 23332, Note_on_c, 9, 49, 0
5, 23335, Note_on_c, 9, 36, 24
5, 23339, Note_on_c, 9, 36, 0
5, 23381, Note_on_c, 9, 36, 32
5, 23392, Note_on_c, 9, 36, 0
5, 23411, Note_on_c, 9, 36, 40
5, 23423, Note_on_c, 9, 36, 0
5, 23444, Note_on_c, 9, 49, 42
5, 23449, Note_on_c, 9, 52, 64
5, 23461, Note_on_c, 9, 49, 0
5, 23469, Note_on_c, 9, 52, 0
5, 23489, Note_on_c, 9, 36, 44
5, 23510, Note_on_c, 9, 36, 0
5, 23523, Note_on_c, 9, 36, 44
5, 23550, Note_on_c, 9, 36, 0
5, 23829, Note_on_c, 9, 38, 37
5, 23833, Note_on_c, 9, 38, 0
5, 23842, Note_on_c, 9, 38, 50
5, 23847, Note_on_c, 9, 38, 0
5, 23855, Note_on_c, 9, 38, 37
5, 23859, Note_on_c, 9, 38, 0
5, 23899, Note_on_c, 9, 36, 31
5, 23903, Note_on_c, 9, 36, 0
5, 23960, Note_on_c, 9, 38, 40
5, 23966, Note_on_c, 9, 38, 0
5, 23975, Note_on_c, 9, 38, 24
5, 23980, Note_on_c, 9, 38, 0
5, 23987, Note_on_c, 9, 38, 51
5, 23990, Note_on_c, 9, 38, 0
5, 24220, Note_on_c, 9, 36, 35
5, 24228, Note_on_c, 9, 36, 0
5, 24239, Note_on_c, 9, 36, 42
5, 24255, Note_on_c, 9, 36, 0
5, 24273, Note_on_c, 9, 36, 40
5, 24291, Note_on_c, 9, 36, 0
5, 24414, Note_on_c, 9, 38, 35
5, 24420, Note_on_c, 9, 38, 0
5, 24432, Note_on_c, 9, 38, 19
5, 24441, Note_on_c, 9, 38, 0
5, 24450, Note_on_c, 9, 38, 43
5, 24458, Note_on_c, 9, 38, 0
5, 24551, Note_on_c, 9, 38, 34
5, 24560, Note_on_c, 9, 38, 0
5, 24568, Note_on_c, 9, 38, 24
5, 24580, Note_on_c, 9, 38, 0
5, 24587, Note_on_c, 9, 38, 49
5, 24609, Note_on_c, 9, 38, 0
5, 24670, Note_on_c, 9, 36, 29
5, 24676, Note_on_c, 9, 36, 0
5, 25178, Note_on_c, 9, 38, 62
5, 25183, Note_on_c, 9, 38, 0
5, 25202, Note_on_c, 9, 36, 27
5, 25228, Note_on_c, 9, 36, 0
5, 25242, Note_on_c, 9, 36, 34
5, 25250, Note_on_c, 9, 36, 0
5, 25265, Note_on_c, 9, 36, 30
5, 25298, Note_on_c, 9, 36, 0
5, 25540, Note_on_c, 9, 38, 71
5, 25541, Note_on_c, 9, 40, 70
5, 25546, Note_on_c, 9, 38, 0
5, 25549, Note_on_c, 9, 40, 0
5, 25564, Note_on_c, 9, 36, 28
5, 25580, Note_on_c, 9, 36, 0
5, 25603, Note_on_c, 9, 36, 56
5, 25613, Note_on_c, 9, 36, 0
5, 25624, Note_on_c, 9, 36, 47
5, 25656, Note_on_c, 9, 36, 0
5, 25917, Note_on_c, 9, 36, 24
5, 25927, Note_on_c, 9, 36, 0
5, 26256, Note_on_c, 9, 36, 45
5, 26270, Note_on_c, 9, 36, 0
5, 26283, Note_on_c, 9, 36, 41
5, 26321, Note_on_c, 9, 36, 0
5, 26524, Note_on_c, 9, 40, 44
5, 26536, Note_on_c, 9, 40, 0
5, 26560, Note_on_c, 9, 38, 38
5, 26569, Note_on_c, 9, 38, 0
5, 26600, Note_on_c, 9, 38, 62
5, 26601, Note_on_c, 9, 36, 45
5, 26603, Note_on_c, 9, 40, 47
5, 26619, Note_on_c, 9, 38, 0
5, 26623, Note_on_c, 9, 36, 0
5, 26626, Note_on_c, 9, 40, 0
5, 26636, Note_on_c, 9, 38, 40
5, 26650, Note_on_c, 9, 38, 0
5, 26677, Note_on_c, 9, 38, 57
5, 26679, Note_on_c, 9, 36, 49
5, 26680, Note_on_c, 9, 40, 48
5, 26691, Note_on_c, 9, 38, 0
5, 26708, Note_on_c, 9, 36, 0
5, 26710, Note_on_c, 9, 40, 0
5, 26718, Note_on_c, 9, 38, 32
5, 26735, Note_on_c, 9, 38, 0
5, 26756, Note_on_c, 9, 38, 43
5, 26759, Note_on_c, 9, 36, 38
5, 26762, Note_on_c, 9, 40, 32
5, 26773, Note_on_c, 9, 38, 0
5, 26790, Note_on_c, 9, 40, 0
5, 26793, Note_on_c, 9, 36, 0
5, 26800, Note_on_c, 9, 38, 36
5, 26813, Note_on_c, 9, 38, 0
5, 26839, Note_on_c, 9, 38, 45
5, 26842, Note_on_c, 9, 40, 51
5, 26851, Note_on_c, 9, 38, 0
5, 26856, Note_on_c, 9, 40, 0
5, 26864, Note_on_c, 9, 36, 36
5, 26873, Note_on_c, 9, 36, 0
5, 26884, Note_on_c, 9, 36, 49
5, 26914, Note_on_c, 9, 36, 0
5, 26928, Note_on_c, 9, 36, 45
5, 26943, Note_on_c, 9, 36, 0
5, 27125, Note_on_c, 9, 36, 30
5, 27131, Note_on_c, 9, 36, 0
5, 27150, Note_on_c, 9, 38, 47
5, 27168, Note_on_c, 9, 38, 0
5, 27181, Note_on_c, 9, 38, 37
5, 27205, Note_on_c, 9, 38, 0
5, 27212, Note_on_c, 9, 36, 39
5, 27224, Note_on_c, 9, 36, 0
5, 27240, Note_on_c, 9, 36, 54
5, 27265, Note_on_c, 9, 36, 0
5, 27274, Note_on_c, 9, 38, 47
5, 27284, Note_on_c, 9, 38, 0
5, 27302, Note_on_c, 9, 38, 63
5, 27324, Note_on_c, 9, 38, 0
5, 27333, Note_on_c, 9, 36, 36
5, 27352, Note_on_c, 9, 36, 0
5, 27365, Note_on_c, 9, 36, 46
5, 27386, Note_on_c, 9, 36, 0
5, 27397, Note_on_c, 9, 38, 52
5, 27415, Note_on_c, 9, 38, 0
5, 27425, Note_on_c, 9, 38, 66
5, 27450, Note_on_c, 9, 38, 0
5, 27454, Note_on_c, 9, 36, 47
5, 27468, Note_on_c, 9, 36, 0
5, 27571, Note_on_c, 9, 38, 54
5, 27572, Note_on_c, 9, 40, 60
5, 27589, Note_on_c, 9, 38, 0
5, 27594, Note_on_c, 9, 40, 0
5, 27603, Note_on_c, 9, 38, 64
5, 27604, Note_on_c, 9, 40, 31
5, 27623, Note_on_c, 9, 38, 0
5, 27629, Note_on_c, 9, 40, 0
5, 27629, Note_on_c, 9, 36, 32
5, 27644, Note_on_c, 9, 36, 0
5, 27683, Note_on_c, 9, 36, 37
5, 27696, Note_on_c, 9, 36, 0
5, 27712, Note_on_c, 9, 38, 41
5, 27712, Note_on_c, 9, 40, 45
5, 27723, Note_on_c, 9, 38, 0
5, 27726, Note_on_c, 9, 40, 0
5, 27742, Note_on_c, 9, 36, 57
5, 27752, Note_on_c, 9, 36, 0
5, 27795, Note_on_c, 9, 36, 32
5, 27801, Note_on_c, 9, 36, 0
5, 27823, Note_on_c, 9, 52, 80
5, 27823, Note_on_c, 9, 49, 75
5, 27823, Note_on_c, 9, 38, 55
5, 27824, Note_on_c, 9, 40, 53
5, 27880, Note_on_c, 9, 49, 0
5, 27881, Note_on_c, 9, 52, 0
5, 27915, Note_on_c, 9, 40, 0
5, 27917, Note_on_c, 9, 38, 0
5, 27986, Note_on_c, 9, 36, 45
5, 27995, Note_on_c, 9, 36, 0
5, 28016, Note_on_c, 9, 36, 37
5, 28036, Note_on_c, 9, 36, 0
5, 28193, Note_on_c, 9, 38, 34
5, 28198, Note_on_c, 9, 38, 0
5, 28223, Note_on_c, 9, 38, 49
5, 28230, Note_on_c, 9, 38, 0
5, 28252, Note_on_c, 9, 38, 34
5, 28270, Note_on_c, 9, 38, 0
5, 28283, Note_on_c, 9, 36, 27
5, 28292, Note_on_c, 9, 36, 0
5, 28313, Note_on_c, 9, 49, 59
5, 28313, Note_on_c, 9, 52, 61
5, 28315, Note_on_c, 9, 36, 51
5, 28320, Note_on_c, 9, 49, 0
5, 28323, Note_on_c, 9, 52, 0
5, 28326, Note_on_c, 9, 36, 0
5, 28792, Note_on_c, 9, 36, 50
5, 28810, Note_on_c, 9, 36, 0
5, 28866, Note_on_c, 9, 36, 34
5, 28994, Note_on_c, 9, 36, 0
5, 29203, Note_on_c, 9, 37, 30
5, 29206, Note_on_c, 9, 37, 0
5, 29226, Note_on_c, 9, 37, 44
5, 29230, Note_on_c, 9, 37, 0
5, 29260, Note_on_c, 9, 36, 31
5, 29267, Note_on_c, 9, 36, 0
5, 29284, Note_on_c, 9, 36, 39
5, 29312, Note_on_c, 9, 36, 0
5, 29341, Note_on_c, 9, 36, 49
5, 29362, Note_on_c, 9, 36, 0
5, 29503, Note_on_c, 9, 38, 62
5, 29506, Note_on_c, 9, 38, 0
5, 29525, Note_on_c, 9, 36, 39
5, 29535, Note_on_c, 9, 36, 0
5, 29562, Note_on_c, 9, 36, 47
5, 29568, Note_on_c, 9, 36, 0
5, 29738, Note_on_c, 9, 36, 32
5, 29743, Note_on_c, 9, 36, 0
5, 29757, Note_on_c, 9, 52, 41
5, 29783, Note_on_c, 9, 52, 0
5, 29981, Note_on_c, 9, 36, 74
5, 29999, Note_on_c, 9, 36, 0
5, 30008, Note_on_c, 9, 36, 60
5, 30042, Note_on_c, 9, 36, 0
5, 30067, Note_on_c, 9, 36, 44
5, 30095, Note_on_c, 9, 36, 0
5, 30225, Note_on_c, 9, 38, 36
5, 30233, Note_on_c, 9, 38, 0
5, 30247, Note_on_c, 9, 38, 50
5, 30277, Note_on_c, 9, 38, 0
5, 30286, Note_on_c, 9, 36, 26
5, 30291, Note_on_c, 9, 36, 0
5, 30305, Note_on_c, 9, 36, 33
5, 30332, Note_on_c, 9, 36, 0
5, 30406, Note_on_c, 9, 38, 53
5, 30411, Note_on_c, 9, 38, 0
5, 30460, Note_on_c, 9, 38, 44
5, 30470, Note_on_c, 9, 38, 0
5, 30483, Note_on_c, 9, 36, 29
5, 30499, Note_on_c, 9, 36, 0
5, 30528, Note_on_c, 9, 36, 28
5, 30532, Note_on_c, 9, 36, 0
5, 30641, Note_on_c, 9, 38, 28
5, 30645, Note_on_c, 9, 38, 0
5, 30694, Note_on_c, 9, 38, 36
5, 30700, Note_on_c, 9, 38, 0
5, 30721, Note_on_c, 9, 46, 47
5, 30721, Note_on_c, 9, 36, 32
5, 30725, Note_on_c, 9, 46, 0
5, 30727, Note_on_c, 9, 36, 0
5, 30876, Note_on_c, 9, 38, 40
5, 30881, Note_on_c, 9, 38, 0
5, 30901, Note_on_c, 9, 36, 34
5, 30907, Note_on_c, 9, 36, 0
5, 30961, Note_on_c, 9, 46, 50
5, 30962, Note_on_c, 9, 36, 44
5, 30968, Note_on_c, 9, 46, 0
5, 30971, Note_on_c, 9, 36, 0
5, 31145, Note_on_c, 9, 38, 46
5, 31149, Note_on_c, 9, 38, 0
5, 31161, Note_on_c, 9, 38, 46
5, 31167, Note_on_c, 9, 38, 0
5, 31181, Note_on_c, 9, 36, 41
5, 31194, Note_on_c, 9, 36, 0
5, 31206, Note_on_c, 9, 36, 47
5, 31234, Note_on_c, 9, 36, 0
5, 31263, Note_on_c, 9, 36, 53
5, 31294, Note_on_c, 9, 36, 0
5, 31325, Note_on_c, 9, 44, 49
5, 31327, Note_on_c, 9, 46, 37
5, 31332, Note_on_c, 9, 44, 0
5, 31345, Note_on_c, 9, 46, 0
5, 31415, Note_on_c, 9, 36, 50
5, 31426, Note_on_c, 9, 36, 0
5, 31444, Note_on_c, 9, 36, 58
5, 31692, Note_on_c, 9, 49, 35
5, 31701, Note_on_c, 9, 52, 43
5, 31703, Note_on_c, 9, 49, 0
5, 31707, Note_on_c, 9, 52, 0
5, 31715, Note_on_c, 9, 49, 28
5, 31727, Note_on_c, 9, 49, 0
5, 31729, Note_on_c, 9, 52, 31
5, 31730, Note_on_c, 9, 36, 0
5, 31735, Note_on_c, 9, 52, 0
5, 31738, Note_on_c, 9, 49, 34
5, 31749, Note_on_c, 9, 52, 34
5, 31751, Note_on_c, 9, 49, 0
5, 31760, Note_on_c, 9, 52, 0
5, 31761, Note_on_c, 9, 49, 25
5, 31772, Note_on_c, 9, 49, 0
5, 31773, Note_on_c, 9, 52, 37
5, 31781, Note_on_c, 9, 52, 0
5, 31783, Note_on_c, 9, 49, 33
5, 31793, Note_on_c, 9, 49, 0
5, 31795, Note_on_c, 9, 52, 36
5, 31802, Note_on_c, 9, 52, 0
5, 31802, Note_on_c, 9, 49, 25
5, 31813, Note_on_c, 9, 49, 0
5, 31815, Note_on_c, 9, 52, 37
5, 31821, Note_on_c, 9, 52, 0
5, 31823, Note_on_c, 9, 49, 36
5, 31833, Note_on_c, 9, 49, 0
5, 31836, Note_on_c, 9, 52, 43
5, 31843, Note_on_c, 9, 52, 0
5, 31844, Note_on_c, 9, 49, 35
5, 31854, Note_on_c, 9, 49, 0
5, 31855, Note_on_c, 9, 52, 48
5, 31863, Note_on_c, 9, 52, 0
5, 31863, Note_on_c, 9, 49, 35
5, 31874, Note_on_c, 9, 49, 0
5, 31874, Note_on_c, 9, 52, 51
5, 31883, Note_on_c, 9, 52, 0
5, 31883, Note_on_c, 9, 49, 38
5, 31893, Note_on_c, 9, 49, 0
5, 31894, Note_on_c, 9, 52, 48
5, 31902, Note_on_c, 9, 52, 0
5, 31902, Note_on_c, 9, 49, 34
5, 31913, Note_on_c, 9, 49, 0
5, 31914, Note_on_c, 9, 52, 50
5, 31922, Note_on_c, 9, 49, 44
5, 31923, Note_on_c, 9, 52, 0
5, 31934, Note_on_c, 9, 49, 0
5, 31935, Note_on_c, 9, 52, 50
5, 31935, Note_on_c, 9, 36, 76
5, 31943, Note_on_c, 9, 49, 43
5, 31944, Note_on_c, 9, 52, 0
5, 31955, Note_on_c, 9, 49, 0
5, 31955, Note_on_c, 9, 52, 44
5, 31964, Note_on_c, 9, 49, 35
5, 31965, Note_on_c, 9, 52, 0
5, 31975, Note_on_c, 9, 49, 0
5, 31976, Note_on_c, 9, 52, 46
5, 31985, Note_on_c, 9, 52, 0
5, 31986, Note_on_c, 9, 49, 40
5, 31996, Note_on_c, 9, 49, 0
5, 31997, Note_on_c, 9, 52, 38
5, 32005, Note_on_c, 9, 52, 0
5, 32005, Note_on_c, 9, 49, 27
5, 32012, Note_on_c, 9, 36, 0
5, 32016, Note_on_c, 9, 49, 0
5, 32018, Note_on_c, 9, 52, 38
5, 32028, Note_on_c, 9, 52, 0
5, 32028, Note_on_c, 9, 49, 33
5, 32039, Note_on_c, 9, 49, 0
5, 32042, Note_on_c, 9, 52, 38
5, 32050, Note_on_c, 9, 52, 0
5, 32051, Note_on_c, 9, 49, 20
5, 32063, Note_on_c, 9, 49, 0
5, 32066, Note_on_c, 9, 52, 29
5, 32075, Note_on_c, 9, 52, 0
5, 32079, Note_on_c, 9, 49, 15
5, 32086, Note_on_c, 9, 49, 0
5, 32105, Note_on_c, 9, 49, 11
5, 32129, Note_on_c, 9, 57, 37
5, 32242, Note_on_c, 9, 57, 0
5, 32250, Note_on_c, 9, 49, 0
5, 32955, Note_on_c, 9, 40, 51
5, 32963, Note_on_c, 9, 40, 0
5, 32977, Note_on_c, 9, 40, 53
5, 32984, Note_on_c, 9, 40, 0
5, 33006, Note_on_c, 9, 37, 58
5, 33008, Note_on_c, 9, 57, 73
5, 33109, Note_on_c, 9, 57, 0
5, 33154, Note_on_c, 9, 37, 0
5, 33154, End_track
0, 0, End_of_file
