0, 0, Header, 1, 5, 120
1, 0, Start_track
1, 0, Title_t, " Spring Is Here"
1, 0, Title_t, "Bill Evans Changes"
1, 0, Text_t, "dougmck@pipeline.com.au\012"
1, 0, Text_t, " \012"
1, 0, Time_signature, 4, 2, 24, 8
1, 0, Key_signature, -4, "major"
1, 0, Tempo, 1200000
1, 0, Marker_t, "Begins at Bar 17."
1, 1920, Marker_t, "These are 'Red Garland' type voicings - LH plays typical rootless voicing while RH plays Octave with perfect 5th betwwen the octave. All are played together as bIG chords!"
1, 3840, Marker_t, "On this ascending melody line, an internal voice on each chord moves from the 7th to the 6th "
1, 7683, Marker_t, "Up the diminished (half step/whole step) scale on E7#9"
1, 10637, Marker_t, "On Cm7b5 running up the Locrian (i.e. Db Maj scale)"
1, 14508, Marker_t, "B dorian (A maj scale) on Bm7"
1, 15360, Marker_t, "Tremolo with RH on E7#9 chord while Left Hand playys melodic phraseH "
1, 15880, Marker_t, "Eb pentatonic scale on AbMaj7/Eb"
1, 16131, Marker_t, "Alternating pair of 4ths (2nd and 5th together then Maj7th and 3rd) on AbMaj7/Eb"
1, 16320, Marker_t, "Same idea on Dm7b5 (alternating 7th and 11th with 4th and 10th)"
1, 16576, Marker_t, "On Db9#11 alternate 9th and  13th with 7th and #11th)"
1, 19200, Marker_t, "Again on each chord, play a moving internal voice  usually descending from the 7th to the 6th with a chromatic passing note"
1, 20640, Marker_t, "Tremolo on Eb 13 sus 4-3"
1, 21835, Marker_t, "Play these voicings With RH except bottom note played with L Hand doubles top note"
1, 24097, Marker_t, "On this Abdim (Maj7) block chords up Diminished scale. Each voicing parallel with the others. (The intervals are maintained)"
1, 24833, Marker_t, "Basically an Eb pentatonic scale over Ab Maj7 chord"
1, 24833, End_track
2, 0, Start_track
2, 0, Title_t, ""
2, 0, Program_c, 0, 0
2, 0, Note_on_c, 0, 79, 80
2, 1, Note_on_c, 0, 74, 75
2, 2, Note_on_c, 0, 71, 84
2, 2, Note_on_c, 0, 68, 83
2, 3, Control_c, 0, 64, 0
2, 3, Note_on_c, 0, 67, 91
2, 20, Control_c, 0, 64, 127
2, 63, Note_on_c, 0, 67, 0
2, 138, Note_on_c, 0, 67, 44
2, 139, Note_on_c, 0, 62, 31
2, 139, Note_on_c, 0, 56, 30
2, 141, Control_c, 0, 64, 0
2, 168, Control_c, 0, 64, 127
2, 191, Note_on_c, 0, 71, 0
2, 197, Note_on_c, 0, 68, 0
2, 203, Note_on_c, 0, 74, 0
2, 217, Note_on_c, 0, 62, 0
2, 232, Note_on_c, 0, 79, 0
2, 249, Note_on_c, 0, 67, 0
2, 258, Note_on_c, 0, 56, 0
2, 290, Control_c, 0, 64, 0
2, 295, Note_on_c, 0, 67, 49
2, 297, Note_on_c, 0, 62, 34
2, 299, Note_on_c, 0, 56, 21
2, 300, Note_on_c, 0, 60, 31
2, 303, Note_on_c, 0, 60, 0
2, 304, Note_on_c, 0, 67, 0
2, 304, Note_on_c, 0, 62, 0
2, 308, Note_on_c, 0, 56, 0
2, 359, Note_on_c, 0, 67, 36
2, 360, Note_on_c, 0, 62, 32
2, 362, Note_on_c, 0, 56, 26
2, 364, Note_on_c, 0, 60, 29
2, 372, Control_c, 0, 64, 127
2, 416, Note_on_c, 0, 67, 0
2, 418, Note_on_c, 0, 62, 0
2, 422, Note_on_c, 0, 60, 0
2, 432, Note_on_c, 0, 56, 0
2, 462, Note_on_c, 0, 92, 84
2, 484, Note_on_c, 0, 92, 0
2, 484, Control_c, 0, 64, 0
2, 487, Note_on_c, 0, 63, 30
2, 488, Note_on_c, 0, 60, 44
2, 489, Note_on_c, 0, 53, 38
2, 490, Note_on_c, 0, 58, 31
2, 490, Note_on_c, 0, 89, 60
2, 506, Note_on_c, 0, 89, 0
2, 516, Note_on_c, 0, 87, 46
2, 520, Note_on_c, 0, 87, 0
2, 535, Note_on_c, 0, 89, 67
2, 558, Control_c, 0, 64, 127
2, 571, Note_on_c, 0, 84, 40
2, 572, Note_on_c, 0, 89, 0
2, 588, Note_on_c, 0, 84, 0
2, 589, Control_c, 0, 64, 0
2, 606, Note_on_c, 0, 87, 69
2, 617, Note_on_c, 0, 87, 0
2, 623, Note_on_c, 0, 79, 41
2, 635, Note_on_c, 0, 79, 0
2, 645, Note_on_c, 0, 84, 63
2, 655, Note_on_c, 0, 84, 0
2, 670, Note_on_c, 0, 82, 54
2, 680, Note_on_c, 0, 82, 0
2, 687, Note_on_c, 0, 72, 38
2, 694, Note_on_c, 0, 72, 0
2, 705, Note_on_c, 0, 79, 51
2, 714, Note_on_c, 0, 79, 0
2, 777, Note_on_c, 0, 60, 0
2, 777, Note_on_c, 0, 58, 0
2, 783, Note_on_c, 0, 63, 0
2, 785, Control_c, 0, 64, 127
2, 787, Note_on_c, 0, 53, 0
2, 836, Note_on_c, 0, 63, 25
2, 840, Note_on_c, 0, 58, 23
2, 840, Note_on_c, 0, 60, 31
2, 841, Note_on_c, 0, 53, 24
2, 906, Note_on_c, 0, 63, 0
2, 911, Note_on_c, 0, 60, 0
2, 914, Note_on_c, 0, 67, 55
2, 915, Note_on_c, 0, 53, 0
2, 916, Note_on_c, 0, 58, 0
2, 922, Note_on_c, 0, 68, 59
2, 926, Note_on_c, 0, 67, 0
2, 929, Control_c, 0, 64, 0
2, 931, Note_on_c, 0, 69, 53
2, 936, Note_on_c, 0, 69, 0
2, 941, Note_on_c, 0, 70, 81
2, 943, Note_on_c, 0, 68, 0
2, 954, Note_on_c, 0, 70, 0
2, 1006, Note_on_c, 0, 67, 73
2, 1009, Note_on_c, 0, 56, 26
2, 1010, Note_on_c, 0, 50, 19
2, 1010, Note_on_c, 0, 60, 24
2, 1014, Note_on_c, 0, 67, 0
2, 1016, Note_on_c, 0, 60, 0
2, 1016, Note_on_c, 0, 50, 0
2, 1020, Note_on_c, 0, 56, 0
2, 1051, Note_on_c, 0, 67, 74
2, 1052, Note_on_c, 0, 56, 36
2, 1053, Note_on_c, 0, 60, 40
2, 1059, Note_on_c, 0, 60, 0
2, 1061, Note_on_c, 0, 67, 0
2, 1063, Note_on_c, 0, 56, 0
2, 1063, Note_on_c, 0, 66, 36
2, 1075, Note_on_c, 0, 66, 0
2, 1081, Note_on_c, 0, 67, 62
2, 1084, Note_on_c, 0, 60, 44
2, 1085, Note_on_c, 0, 56, 29
2, 1086, Note_on_c, 0, 50, 24
2, 1091, Note_on_c, 0, 50, 0
2, 1091, Note_on_c, 0, 60, 0
2, 1092, Note_on_c, 0, 67, 0
2, 1094, Note_on_c, 0, 56, 0
2, 1115, Note_on_c, 0, 67, 71
2, 1118, Note_on_c, 0, 60, 38
2, 1118, Note_on_c, 0, 56, 27
2, 1120, Note_on_c, 0, 50, 22
2, 1123, Note_on_c, 0, 60, 0
2, 1124, Note_on_c, 0, 50, 0
2, 1126, Note_on_c, 0, 67, 0
2, 1127, Note_on_c, 0, 66, 46
2, 1129, Note_on_c, 0, 56, 0
2, 1136, Note_on_c, 0, 66, 0
2, 1143, Note_on_c, 0, 67, 71
2, 1143, Note_on_c, 0, 60, 50
2, 1144, Note_on_c, 0, 56, 33
2, 1146, Note_on_c, 0, 50, 24
2, 1150, Note_on_c, 0, 50, 0
2, 1152, Note_on_c, 0, 67, 0
2, 1152, Note_on_c, 0, 60, 0
2, 1155, Note_on_c, 0, 56, 0
2, 1170, Note_on_c, 0, 67, 75
2, 1173, Note_on_c, 0, 60, 38
2, 1173, Note_on_c, 0, 56, 31
2, 1174, Note_on_c, 0, 50, 29
2, 1179, Note_on_c, 0, 60, 0
2, 1179, Note_on_c, 0, 67, 0
2, 1180, Note_on_c, 0, 50, 0
2, 1182, Note_on_c, 0, 66, 47
2, 1192, Note_on_c, 0, 66, 0
2, 1193, Note_on_c, 0, 56, 0
2, 1198, Note_on_c, 0, 53, 45
2, 1199, Note_on_c, 0, 59, 47
2, 1200, Note_on_c, 0, 67, 66
2, 1204, Note_on_c, 0, 49, 34
2, 1211, Note_on_c, 0, 67, 0
2, 1211, Note_on_c, 0, 53, 0
2, 1212, Note_on_c, 0, 59, 0
2, 1213, Note_on_c, 0, 49, 0
2, 1231, Note_on_c, 0, 67, 68
2, 1233, Note_on_c, 0, 58, 44
2, 1233, Note_on_c, 0, 59, 38
2, 1235, Note_on_c, 0, 63, 35
2, 1235, Note_on_c, 0, 53, 33
2, 1236, Note_on_c, 0, 49, 19
2, 1241, Note_on_c, 0, 58, 0
2, 1243, Note_on_c, 0, 67, 0
2, 1244, Note_on_c, 0, 63, 0
2, 1247, Note_on_c, 0, 59, 0
2, 1249, Note_on_c, 0, 67, 41
2, 1250, Note_on_c, 0, 53, 0
2, 1251, Note_on_c, 0, 49, 0
2, 1260, Note_on_c, 0, 67, 0
2, 1326, Control_c, 0, 64, 127
2, 1355, Control_c, 0, 64, 0
2, 1356, Note_on_c, 0, 67, 80
2, 1357, Note_on_c, 0, 58, 84
2, 1358, Note_on_c, 0, 63, 74
2, 1358, Note_on_c, 0, 49, 55
2, 1358, Note_on_c, 0, 59, 63
2, 1358, Note_on_c, 0, 53, 63
2, 1372, Control_c, 0, 64, 127
2, 1373, Note_on_c, 0, 59, 0
2, 1373, Note_on_c, 0, 58, 0
2, 1375, Note_on_c, 0, 63, 0
2, 1375, Note_on_c, 0, 53, 0
2, 1376, Note_on_c, 0, 49, 0
2, 1379, Note_on_c, 0, 67, 0
2, 1385, Control_c, 0, 64, 0
2, 1389, Note_on_c, 0, 67, 72
2, 1390, Note_on_c, 0, 58, 76
2, 1390, Note_on_c, 0, 49, 60
2, 1390, Note_on_c, 0, 63, 69
2, 1391, Note_on_c, 0, 59, 68
2, 1392, Note_on_c, 0, 53, 62
2, 1396, Control_c, 0, 64, 127
2, 1401, Note_on_c, 0, 59, 0
2, 1406, Note_on_c, 0, 58, 0
2, 1406, Note_on_c, 0, 67, 0
2, 1407, Note_on_c, 0, 53, 0
2, 1408, Note_on_c, 0, 59, 28
2, 1409, Note_on_c, 0, 68, 68
2, 1412, Note_on_c, 0, 67, 30
2, 1418, Note_on_c, 0, 63, 0
2, 1419, Note_on_c, 0, 59, 0
2, 1420, Note_on_c, 0, 67, 0
2, 1425, Note_on_c, 0, 68, 0
2, 1425, Note_on_c, 0, 49, 0
2, 1434, Note_on_c, 0, 58, 83
2, 1434, Note_on_c, 0, 63, 73
2, 1435, Control_c, 0, 64, 0
2, 1435, Note_on_c, 0, 48, 79
2, 1435, Note_on_c, 0, 65, 80
2, 1452, Control_c, 0, 64, 127
2, 1461, Note_on_c, 0, 58, 0
2, 1467, Note_on_c, 0, 65, 0
2, 1468, Note_on_c, 0, 63, 0
2, 1480, Note_on_c, 0, 58, 67
2, 1481, Note_on_c, 0, 48, 0
2, 1484, Note_on_c, 0, 77, 82
2, 1491, Note_on_c, 0, 58, 0
2, 1518, Note_on_c, 0, 77, 0
2, 1540, Note_on_c, 0, 77, 44
2, 1543, Note_on_c, 0, 70, 59
2, 1546, Note_on_c, 0, 67, 50
2, 1546, Note_on_c, 0, 63, 37
2, 1607, Note_on_c, 0, 77, 0
2, 1609, Note_on_c, 0, 63, 0
2, 1629, Note_on_c, 0, 67, 0
2, 1632, Note_on_c, 0, 77, 59
2, 1636, Note_on_c, 0, 70, 0
2, 1648, Note_on_c, 0, 77, 0
2, 1648, Note_on_c, 0, 75, 60
2, 1659, Note_on_c, 0, 75, 0
2, 1666, Control_c, 0, 64, 0
2, 1666, Note_on_c, 0, 77, 50
2, 1666, Note_on_c, 0, 63, 27
2, 1668, Note_on_c, 0, 60, 31
2, 1668, Note_on_c, 0, 72, 54
2, 1669, Note_on_c, 0, 68, 28
2, 1670, Note_on_c, 0, 53, 20
2, 1670, Note_on_c, 0, 56, 29
2, 1689, Control_c, 0, 64, 127
2, 1699, Note_on_c, 0, 63, 0
2, 1720, Note_on_c, 0, 72, 0
2, 1722, Note_on_c, 0, 68, 0
2, 1747, Note_on_c, 0, 77, 0
2, 1768, Note_on_c, 0, 60, 0
2, 1777, Note_on_c, 0, 56, 0
2, 1798, Note_on_c, 0, 63, 25
2, 1799, Note_on_c, 0, 68, 35
2, 1799, Note_on_c, 0, 72, 39
2, 1800, Note_on_c, 0, 65, 34
2, 1802, Note_on_c, 0, 60, 24
2, 1803, Note_on_c, 0, 56, 10
2, 1822, Note_on_c, 0, 65, 0
2, 1827, Note_on_c, 0, 72, 0
2, 1829, Note_on_c, 0, 68, 0
2, 1839, Note_on_c, 0, 60, 0
2, 1845, Note_on_c, 0, 63, 0
2, 1851, Note_on_c, 0, 53, 0
2, 1857, Note_on_c, 0, 56, 0
2, 1894, Control_c, 0, 64, 0
2, 1896, Note_on_c, 0, 54, 77
2, 1896, Note_on_c, 0, 65, 90
2, 1896, Note_on_c, 0, 61, 71
2, 1897, Note_on_c, 0, 58, 74
2, 1897, Note_on_c, 0, 88, 94
2, 1897, Note_on_c, 0, 82, 91
2, 1897, Note_on_c, 0, 76, 90
2, 1899, Note_on_c, 0, 85, 62
2, 1915, Note_on_c, 0, 88, 0
2, 1915, Control_c, 0, 64, 127
2, 1916, Note_on_c, 0, 54, 0
2, 1917, Note_on_c, 0, 76, 0
2, 1918, Note_on_c, 0, 85, 0
2, 1919, Note_on_c, 0, 65, 0
2, 1920, Note_on_c, 0, 61, 0
2, 1920, Note_on_c, 0, 82, 0
2, 1921, Note_on_c, 0, 58, 0
2, 1923, Control_c, 0, 64, 0
2, 1930, Note_on_c, 0, 75, 82
2, 1931, Note_on_c, 0, 87, 75
2, 1931, Note_on_c, 0, 65, 82
2, 1931, Note_on_c, 0, 82, 75
2, 1931, Note_on_c, 0, 61, 65
2, 1932, Note_on_c, 0, 58, 69
2, 1932, Note_on_c, 0, 54, 69
2, 1933, Note_on_c, 0, 85, 45
2, 1934, Note_on_c, 0, 82, 0
2, 1935, Note_on_c, 0, 75, 0
2, 1936, Note_on_c, 0, 85, 0
2, 1937, Note_on_c, 0, 87, 0
2, 1937, Note_on_c, 0, 65, 0
2, 1939, Note_on_c, 0, 54, 0
2, 1939, Note_on_c, 0, 61, 0
2, 1940, Note_on_c, 0, 58, 0
2, 1972, Note_on_c, 0, 75, 69
2, 1973, Note_on_c, 0, 87, 62
2, 1973, Note_on_c, 0, 65, 72
2, 1974, Note_on_c, 0, 82, 56
2, 1974, Note_on_c, 0, 58, 52
2, 1974, Note_on_c, 0, 61, 47
2, 1974, Note_on_c, 0, 54, 50
2, 1977, Note_on_c, 0, 82, 0
2, 1978, Note_on_c, 0, 87, 0
2, 1978, Note_on_c, 0, 75, 0
2, 1980, Note_on_c, 0, 65, 0
2, 1981, Note_on_c, 0, 54, 0
2, 1981, Note_on_c, 0, 61, 0
2, 1983, Note_on_c, 0, 58, 0
2, 2018, Note_on_c, 0, 58, 47
2, 2019, Note_on_c, 0, 65, 58
2, 2019, Note_on_c, 0, 87, 67
2, 2019, Note_on_c, 0, 54, 38
2, 2019, Note_on_c, 0, 61, 36
2, 2020, Note_on_c, 0, 75, 64
2, 2021, Note_on_c, 0, 82, 52
2, 2024, Note_on_c, 0, 65, 0
2, 2026, Note_on_c, 0, 75, 0
2, 2026, Note_on_c, 0, 87, 0
2, 2026, Note_on_c, 0, 82, 0
2, 2027, Note_on_c, 0, 61, 0
2, 2027, Note_on_c, 0, 54, 0
2, 2029, Note_on_c, 0, 58, 0
2, 2040, Note_on_c, 0, 73, 35
2, 2040, Note_on_c, 0, 61, 29
2, 2040, Note_on_c, 0, 58, 30
2, 2040, Note_on_c, 0, 65, 29
2, 2041, Note_on_c, 0, 85, 33
2, 2044, Note_on_c, 0, 65, 0
2, 2044, Note_on_c, 0, 61, 0
2, 2045, Note_on_c, 0, 73, 0
2, 2045, Note_on_c, 0, 58, 0
2, 2046, Note_on_c, 0, 85, 0
2, 2058, Note_on_c, 0, 87, 58
2, 2058, Note_on_c, 0, 54, 36
2, 2059, Note_on_c, 0, 65, 48
2, 2059, Note_on_c, 0, 58, 37
2, 2059, Note_on_c, 0, 75, 39
2, 2059, Note_on_c, 0, 61, 44
2, 2061, Note_on_c, 0, 82, 48
2, 2068, Control_c, 0, 64, 127
2, 2097, Note_on_c, 0, 82, 0
2, 2121, Note_on_c, 0, 54, 0
2, 2121, Note_on_c, 0, 75, 0
2, 2122, Note_on_c, 0, 87, 0
2, 2122, Note_on_c, 0, 65, 0
2, 2123, Note_on_c, 0, 58, 0
2, 2127, Note_on_c, 0, 61, 0
2, 2146, Note_on_c, 0, 61, 23
2, 2146, Note_on_c, 0, 85, 25
2, 2147, Note_on_c, 0, 58, 33
2, 2148, Note_on_c, 0, 80, 25
2, 2151, Note_on_c, 0, 85, 0
2, 2152, Note_on_c, 0, 80, 0
2, 2155, Note_on_c, 0, 61, 0
2, 2164, Note_on_c, 0, 58, 0
2, 2173, Control_c, 0, 64, 0
2, 2173, Note_on_c, 0, 89, 69
2, 2173, Note_on_c, 0, 65, 75
2, 2174, Note_on_c, 0, 77, 57
2, 2174, Note_on_c, 0, 84, 58
2, 2174, Note_on_c, 0, 60, 65
2, 2174, Note_on_c, 0, 54, 59
2, 2191, Control_c, 0, 64, 127
2, 2293, Note_on_c, 0, 65, 0
2, 2297, Note_on_c, 0, 54, 0
2, 2299, Note_on_c, 0, 84, 0
2, 2299, Note_on_c, 0, 89, 0
2, 2312, Note_on_c, 0, 60, 0
2, 2317, Note_on_c, 0, 77, 0
2, 2398, Note_on_c, 0, 68, 46
2, 2400, Control_c, 0, 64, 0
2, 2400, Note_on_c, 0, 64, 46
2, 2400, Note_on_c, 0, 63, 34
2, 2400, Note_on_c, 0, 73, 49
2, 2401, Note_on_c, 0, 59, 38
2, 2427, Control_c, 0, 64, 127
2, 2475, Note_on_c, 0, 68, 0
2, 2476, Note_on_c, 0, 75, 51
2, 2477, Note_on_c, 0, 73, 0
2, 2477, Control_c, 0, 64, 0
2, 2483, Note_on_c, 0, 64, 0
2, 2486, Note_on_c, 0, 63, 0
2, 2487, Note_on_c, 0, 73, 30
2, 2490, Note_on_c, 0, 75, 0
2, 2495, Note_on_c, 0, 72, 62
2, 2496, Note_on_c, 0, 73, 0
2, 2501, Note_on_c, 0, 72, 0
2, 2511, Note_on_c, 0, 73, 56
2, 2518, Note_on_c, 0, 73, 0
2, 2536, Note_on_c, 0, 59, 0
2, 2541, Note_on_c, 0, 75, 62
2, 2550, Note_on_c, 0, 75, 0
2, 2551, Note_on_c, 0, 73, 32
2, 2561, Note_on_c, 0, 73, 0
2, 2563, Note_on_c, 0, 72, 54
2, 2568, Note_on_c, 0, 72, 0
2, 2574, Note_on_c, 0, 73, 53
2, 2583, Note_on_c, 0, 73, 0
2, 2594, Note_on_c, 0, 75, 65
2, 2605, Note_on_c, 0, 75, 0
2, 2605, Note_on_c, 0, 73, 32
2, 2615, Note_on_c, 0, 73, 0
2, 2618, Note_on_c, 0, 72, 40
2, 2622, Note_on_c, 0, 72, 0
2, 2627, Note_on_c, 0, 73, 34
2, 2636, Note_on_c, 0, 75, 55
2, 2637, Note_on_c, 0, 73, 0
2, 2642, Note_on_c, 0, 63, 21
2, 2643, Note_on_c, 0, 52, 41
2, 2644, Note_on_c, 0, 58, 32
2, 2650, Note_on_c, 0, 75, 0
2, 2651, Note_on_c, 0, 73, 31
2, 2701, Control_c, 0, 64, 127
2, 2725, Note_on_c, 0, 63, 0
2, 2730, Note_on_c, 0, 52, 0
2, 2751, Note_on_c, 0, 58, 0
2, 2775, Note_on_c, 0, 63, 36
2, 2776, Note_on_c, 0, 58, 36
2, 2779, Note_on_c, 0, 52, 33
2, 2811, Note_on_c, 0, 63, 0
2, 2817, Note_on_c, 0, 52, 0
2, 2824, Note_on_c, 0, 58, 0
2, 2827, Note_on_c, 0, 73, 0
2, 2864, Note_on_c, 0, 75, 90
2, 2882, Note_on_c, 0, 75, 0
2, 2893, Note_on_c, 0, 75, 83
2, 2896, Note_on_c, 0, 70, 73
2, 2897, Note_on_c, 0, 72, 71
2, 2898, Note_on_c, 0, 63, 67
2, 2898, Note_on_c, 0, 58, 63
2, 2899, Note_on_c, 0, 54, 46
2, 2899, Note_on_c, 0, 48, 48
2, 2899, Control_c, 0, 64, 0
2, 2920, Control_c, 0, 64, 127
2, 2927, Note_on_c, 0, 75, 0
2, 2941, Note_on_c, 0, 72, 0
2, 2943, Note_on_c, 0, 75, 83
2, 2944, Note_on_c, 0, 58, 0
2, 2944, Note_on_c, 0, 72, 35
2, 2953, Note_on_c, 0, 63, 0
2, 2961, Note_on_c, 0, 75, 0
2, 2962, Note_on_c, 0, 72, 0
2, 2963, Note_on_c, 0, 70, 0
2, 2973, Note_on_c, 0, 75, 83
2, 2988, Note_on_c, 0, 75, 0
2, 2997, Note_on_c, 0, 75, 69
2, 3011, Note_on_c, 0, 75, 0
2, 3020, Note_on_c, 0, 75, 71
2, 3023, Note_on_c, 0, 72, 58
2, 3023, Note_on_c, 0, 70, 59
2, 3023, Note_on_c, 0, 58, 45
2, 3025, Note_on_c, 0, 63, 53
2, 3025, Control_c, 0, 64, 0
2, 3039, Control_c, 0, 64, 127
2, 3044, Note_on_c, 0, 75, 0
2, 3054, Note_on_c, 0, 72, 0
2, 3056, Note_on_c, 0, 63, 0
2, 3058, Note_on_c, 0, 75, 77
2, 3065, Note_on_c, 0, 48, 0
2, 3071, Note_on_c, 0, 70, 0
2, 3072, Note_on_c, 0, 58, 0
2, 3074, Note_on_c, 0, 54, 0
2, 3075, Note_on_c, 0, 75, 0
2, 3090, Note_on_c, 0, 75, 62
2, 3100, Note_on_c, 0, 75, 0
2, 3110, Note_on_c, 0, 75, 54
2, 3122, Note_on_c, 0, 75, 0
2, 3133, Note_on_c, 0, 75, 56
2, 3136, Control_c, 0, 64, 0
2, 3136, Note_on_c, 0, 66, 47
2, 3136, Note_on_c, 0, 63, 40
2, 3136, Note_on_c, 0, 72, 52
2, 3137, Note_on_c, 0, 69, 53
2, 3156, Control_c, 0, 64, 127
2, 3166, Note_on_c, 0, 69, 0
2, 3168, Note_on_c, 0, 72, 0
2, 3169, Note_on_c, 0, 66, 0
2, 3174, Note_on_c, 0, 75, 0
2, 3176, Note_on_c, 0, 63, 0
2, 3221, Note_on_c, 0, 78, 77
2, 3222, Note_on_c, 0, 75, 74
2, 3222, Note_on_c, 0, 69, 80
2, 3222, Note_on_c, 0, 66, 71
2, 3225, Control_c, 0, 64, 0
2, 3226, Note_on_c, 0, 69, 0
2, 3231, Note_on_c, 0, 75, 0
2, 3234, Note_on_c, 0, 78, 0
2, 3234, Control_c, 0, 64, 127
2, 3259, Control_c, 0, 64, 0
2, 3259, Note_on_c, 0, 78, 71
2, 3259, Note_on_c, 0, 84, 76
2, 3260, Note_on_c, 0, 66, 0
2, 3260, Note_on_c, 0, 75, 77
2, 3260, Note_on_c, 0, 81, 68
2, 3260, Note_on_c, 0, 69, 74
2, 3273, Control_c, 0, 64, 127
2, 3275, Note_on_c, 0, 81, 0
2, 3277, Note_on_c, 0, 84, 0
2, 3277, Note_on_c, 0, 78, 0
2, 3280, Note_on_c, 0, 75, 0
2, 3295, Note_on_c, 0, 69, 0
2, 3301, Note_on_c, 0, 87, 87
2, 3301, Note_on_c, 0, 78, 73
2, 3303, Note_on_c, 0, 72, 67
2, 3303, Note_on_c, 0, 81, 70
2, 3306, Control_c, 0, 64, 0
2, 3311, Control_c, 0, 64, 127
2, 3315, Note_on_c, 0, 72, 0
2, 3333, Note_on_c, 0, 87, 0
2, 3336, Note_on_c, 0, 81, 0
2, 3339, Note_on_c, 0, 78, 0
2, 3344, Note_on_c, 0, 85, 76
2, 3360, Note_on_c, 0, 85, 0
2, 3363, Note_on_c, 0, 84, 42
2, 3374, Note_on_c, 0, 84, 0
2, 3381, Control_c, 0, 64, 0
2, 3382, Note_on_c, 0, 85, 77
2, 3390, Note_on_c, 0, 85, 0
2, 3423, Control_c, 0, 64, 127
2, 3436, Control_c, 0, 64, 0
2, 3454, Note_on_c, 0, 73, 44
2, 3455, Note_on_c, 0, 68, 51
2, 3455, Note_on_c, 0, 64, 66
2, 3456, Note_on_c, 0, 61, 39
2, 3458, Note_on_c, 0, 57, 40
2, 3460, Note_on_c, 0, 61, 0
2, 3462, Note_on_c, 0, 64, 0
2, 3463, Note_on_c, 0, 57, 0
2, 3466, Note_on_c, 0, 68, 0
2, 3466, Note_on_c, 0, 73, 0
2, 3488, Note_on_c, 0, 73, 42
2, 3488, Note_on_c, 0, 61, 51
2, 3489, Note_on_c, 0, 68, 47
2, 3489, Note_on_c, 0, 64, 68
2, 3490, Note_on_c, 0, 57, 47
2, 3502, Control_c, 0, 64, 127
2, 3529, Note_on_c, 0, 73, 0
2, 3538, Note_on_c, 0, 73, 47
2, 3544, Note_on_c, 0, 64, 0
2, 3559, Note_on_c, 0, 57, 0
2, 3559, Note_on_c, 0, 73, 0
2, 3561, Note_on_c, 0, 68, 0
2, 3561, Note_on_c, 0, 61, 0
2, 3568, Note_on_c, 0, 73, 39
2, 3585, Note_on_c, 0, 73, 0
2, 3598, Note_on_c, 0, 73, 36
2, 3599, Note_on_c, 0, 61, 37
2, 3600, Note_on_c, 0, 51, 43
2, 3600, Note_on_c, 0, 64, 58
2, 3601, Control_c, 0, 64, 0
2, 3601, Note_on_c, 0, 60, 44
2, 3601, Note_on_c, 0, 67, 44
2, 3626, Control_c, 0, 64, 127
2, 3688, Note_on_c, 0, 64, 0
2, 3689, Note_on_c, 0, 60, 0
2, 3693, Note_on_c, 0, 61, 0
2, 3703, Note_on_c, 0, 73, 0
2, 3712, Note_on_c, 0, 67, 0
2, 3719, Note_on_c, 0, 61, 36
2, 3721, Note_on_c, 0, 64, 40
2, 3726, Note_on_c, 0, 58, 20
2, 3747, Note_on_c, 0, 58, 0
2, 3755, Note_on_c, 0, 51, 0
2, 3764, Note_on_c, 0, 64, 0
2, 3781, Note_on_c, 0, 61, 0
2, 3855, Note_on_c, 0, 67, 85
2, 3855, Note_on_c, 0, 72, 84
2, 3855, Note_on_c, 0, 60, 90
2, 3856, Note_on_c, 0, 44, 74
2, 3856, Note_on_c, 0, 55, 82
2, 3859, Control_c, 0, 64, 0
2, 3877, Control_c, 0, 64, 127
2, 3904, Note_on_c, 0, 55, 0
2, 3919, Note_on_c, 0, 53, 74
2, 3944, Note_on_c, 0, 60, 0
2, 3944, Note_on_c, 0, 72, 0
2, 3947, Note_on_c, 0, 67, 0
2, 3954, Note_on_c, 0, 53, 0
2, 3954, Note_on_c, 0, 44, 0
2, 3978, Note_on_c, 0, 73, 60
2, 3978, Note_on_c, 0, 46, 69
2, 3979, Note_on_c, 0, 61, 79
2, 3979, Note_on_c, 0, 65, 87
2, 3980, Note_on_c, 0, 56, 77
2, 3982, Control_c, 0, 64, 0
2, 4005, Control_c, 0, 64, 127
2, 4026, Note_on_c, 0, 56, 0
2, 4035, Note_on_c, 0, 55, 74
2, 4039, Note_on_c, 0, 65, 0
2, 4054, Note_on_c, 0, 61, 0
2, 4060, Note_on_c, 0, 46, 0
2, 4061, Note_on_c, 0, 55, 0
2, 4062, Note_on_c, 0, 73, 0
2, 4094, Note_on_c, 0, 75, 76
2, 4095, Note_on_c, 0, 57, 77
2, 4095, Note_on_c, 0, 67, 81
2, 4095, Note_on_c, 0, 48, 71
2, 4095, Note_on_c, 0, 63, 73
2, 4097, Control_c, 0, 64, 0
2, 4120, Control_c, 0, 64, 127
2, 4128, Note_on_c, 0, 57, 0
2, 4155, Note_on_c, 0, 67, 0
2, 4161, Note_on_c, 0, 63, 0
2, 4161, Note_on_c, 0, 48, 0
2, 4168, Note_on_c, 0, 75, 0
2, 4201, Note_on_c, 0, 60, 76
2, 4202, Note_on_c, 0, 49, 59
2, 4203, Note_on_c, 0, 77, 64
2, 4203, Note_on_c, 0, 72, 74
2, 4204, Note_on_c, 0, 65, 74
2, 4205, Control_c, 0, 64, 0
2, 4228, Control_c, 0, 64, 127
2, 4242, Note_on_c, 0, 60, 0
2, 4258, Note_on_c, 0, 58, 64
2, 4270, Note_on_c, 0, 65, 0
2, 4274, Note_on_c, 0, 77, 0
2, 4282, Note_on_c, 0, 72, 0
2, 4297, Note_on_c, 0, 58, 0
2, 4298, Note_on_c, 0, 49, 0
2, 4318, Note_on_c, 0, 79, 71
2, 4319, Control_c, 0, 64, 0
2, 4319, Note_on_c, 0, 70, 78
2, 4319, Note_on_c, 0, 58, 69
2, 4320, Note_on_c, 0, 75, 68
2, 4320, Note_on_c, 0, 48, 63
2, 4338, Control_c, 0, 64, 127
2, 4365, Note_on_c, 0, 58, 0
2, 4375, Note_on_c, 0, 57, 61
2, 4388, Note_on_c, 0, 79, 0
2, 4392, Note_on_c, 0, 70, 0
2, 4395, Note_on_c, 0, 75, 0
2, 4408, Note_on_c, 0, 48, 0
2, 4411, Note_on_c, 0, 57, 0
2, 4432, Control_c, 0, 64, 0
2, 4432, Note_on_c, 0, 80, 57
2, 4433, Note_on_c, 0, 56, 64
2, 4434, Note_on_c, 0, 73, 49
2, 4434, Note_on_c, 0, 68, 60
2, 4434, Note_on_c, 0, 46, 65
2, 4435, Note_on_c, 0, 77, 50
2, 4454, Control_c, 0, 64, 127
2, 4478, Note_on_c, 0, 56, 0
2, 4490, Note_on_c, 0, 55, 76
2, 4493, Note_on_c, 0, 68, 0
2, 4498, Note_on_c, 0, 77, 0
2, 4499, Note_on_c, 0, 73, 0
2, 4507, Note_on_c, 0, 80, 0
2, 4520, Note_on_c, 0, 46, 0
2, 4529, Note_on_c, 0, 55, 0
2, 4549, Note_on_c, 0, 82, 85
2, 4550, Control_c, 0, 64, 0
2, 4550, Note_on_c, 0, 44, 78
2, 4550, Note_on_c, 0, 75, 87
2, 4551, Note_on_c, 0, 70, 90
2, 4551, Note_on_c, 0, 55, 82
2, 4569, Control_c, 0, 64, 127
2, 4585, Note_on_c, 0, 55, 0
2, 4608, Note_on_c, 0, 53, 68
2, 4634, Note_on_c, 0, 44, 0
2, 4636, Note_on_c, 0, 70, 0
2, 4636, Note_on_c, 0, 75, 0
2, 4650, Note_on_c, 0, 82, 0
2, 4661, Note_on_c, 0, 53, 0
2, 4670, Note_on_c, 0, 42, 88
2, 4672, Control_c, 0, 64, 0
2, 4673, Note_on_c, 0, 84, 74
2, 4691, Control_c, 0, 64, 127
2, 4729, Note_on_c, 0, 53, 45
2, 4730, Note_on_c, 0, 75, 51
2, 4731, Note_on_c, 0, 80, 44
2, 4734, Note_on_c, 0, 53, 0
2, 4747, Note_on_c, 0, 42, 0
2, 4752, Note_on_c, 0, 84, 0
2, 4762, Note_on_c, 0, 80, 0
2, 4765, Note_on_c, 0, 75, 0
2, 4777, Note_on_c, 0, 40, 29
2, 4782, Note_on_c, 0, 40, 0
2, 4794, Note_on_c, 0, 40, 74
2, 4795, Note_on_c, 0, 28, 71
2, 4795, Note_on_c, 0, 85, 83
2, 4795, Note_on_c, 0, 78, 74
2, 4796, Control_c, 0, 64, 0
2, 4796, Note_on_c, 0, 74, 75
2, 4796, Note_on_c, 0, 81, 74
2, 4814, Note_on_c, 0, 28, 0
2, 4814, Control_c, 0, 64, 127
2, 4820, Note_on_c, 0, 40, 0
2, 4822, Note_on_c, 0, 85, 0
2, 4822, Note_on_c, 0, 81, 0
2, 4826, Note_on_c, 0, 78, 0
2, 4829, Note_on_c, 0, 74, 0
2, 4862, Note_on_c, 0, 73, 47
2, 4863, Note_on_c, 0, 66, 56
2, 4864, Note_on_c, 0, 62, 54
2, 4864, Note_on_c, 0, 69, 60
2, 4864, Note_on_c, 0, 56, 39
2, 4877, Note_on_c, 0, 62, 0
2, 4887, Note_on_c, 0, 73, 0
2, 4888, Note_on_c, 0, 69, 0
2, 4896, Note_on_c, 0, 66, 0
2, 4921, Note_on_c, 0, 74, 70
2, 4921, Note_on_c, 0, 64, 54
2, 4922, Note_on_c, 0, 66, 62
2, 4922, Note_on_c, 0, 69, 58
2, 4925, Note_on_c, 0, 70, 31
2, 4928, Note_on_c, 0, 70, 0
2, 4951, Note_on_c, 0, 64, 0
2, 4962, Note_on_c, 0, 66, 0
2, 4962, Note_on_c, 0, 69, 0
2, 4965, Note_on_c, 0, 74, 0
2, 4981, Note_on_c, 0, 64, 36
2, 4981, Note_on_c, 0, 74, 62
2, 4982, Note_on_c, 0, 66, 44
2, 4985, Note_on_c, 0, 69, 27
2, 4986, Note_on_c, 0, 64, 0
2, 4994, Note_on_c, 0, 69, 0
2, 5001, Note_on_c, 0, 56, 0
2, 5003, Note_on_c, 0, 66, 0
2, 5015, Note_on_c, 0, 74, 0
2, 5041, Note_on_c, 0, 74, 62
2, 5041, Note_on_c, 0, 66, 53
2, 5042, Note_on_c, 0, 62, 47
2, 5044, Note_on_c, 0, 56, 30
2, 5044, Note_on_c, 0, 52, 43
2, 5045, Note_on_c, 0, 69, 36
2, 5046, Control_c, 0, 64, 0
2, 5071, Control_c, 0, 64, 127
2, 5074, Note_on_c, 0, 62, 0
2, 5093, Note_on_c, 0, 66, 0
2, 5098, Note_on_c, 0, 69, 0
2, 5102, Note_on_c, 0, 66, 21
2, 5104, Note_on_c, 0, 62, 30
2, 5112, Note_on_c, 0, 62, 0
2, 5123, Note_on_c, 0, 66, 0
2, 5143, Note_on_c, 0, 56, 0
2, 5158, Note_on_c, 0, 62, 34
2, 5159, Note_on_c, 0, 68, 36
2, 5162, Note_on_c, 0, 56, 18
2, 5180, Note_on_c, 0, 52, 0
2, 5205, Note_on_c, 0, 62, 0
2, 5217, Note_on_c, 0, 52, 37
2, 5224, Note_on_c, 0, 52, 0
2, 5224, Note_on_c, 0, 74, 0
2, 5229, Note_on_c, 0, 68, 0
2, 5265, Note_on_c, 0, 56, 0
2, 5273, Control_c, 0, 64, 0
2, 5273, Note_on_c, 0, 75, 87
2, 5274, Note_on_c, 0, 68, 95
2, 5274, Note_on_c, 0, 70, 83
2, 5277, Note_on_c, 0, 51, 58
2, 5295, Control_c, 0, 64, 127
2, 5322, Note_on_c, 0, 75, 0
2, 5338, Note_on_c, 0, 75, 67
2, 5378, Note_on_c, 0, 70, 0
2, 5380, Note_on_c, 0, 68, 0
2, 5387, Note_on_c, 0, 75, 0
2, 5397, Note_on_c, 0, 75, 45
2, 5401, Note_on_c, 0, 67, 28
2, 5402, Note_on_c, 0, 63, 25
2, 5434, Note_on_c, 0, 51, 0
2, 5441, Note_on_c, 0, 75, 0
2, 5441, Note_on_c, 0, 67, 0
2, 5453, Note_on_c, 0, 63, 0
2, 5460, Note_on_c, 0, 51, 27
2, 5461, Note_on_c, 0, 75, 42
2, 5461, Note_on_c, 0, 67, 42
2, 5470, Note_on_c, 0, 51, 0
2, 5472, Note_on_c, 0, 67, 0
2, 5482, Note_on_c, 0, 75, 0
2, 5517, Note_on_c, 0, 75, 55
2, 5518, Control_c, 0, 64, 0
2, 5519, Note_on_c, 0, 49, 32
2, 5520, Note_on_c, 0, 71, 44
2, 5520, Note_on_c, 0, 64, 45
2, 5520, Note_on_c, 0, 59, 33
2, 5521, Note_on_c, 0, 68, 37
2, 5541, Control_c, 0, 64, 127
2, 5566, Note_on_c, 0, 75, 0
2, 5577, Note_on_c, 0, 49, 0
2, 5577, Note_on_c, 0, 75, 71
2, 5586, Note_on_c, 0, 59, 0
2, 5596, Note_on_c, 0, 71, 0
2, 5598, Note_on_c, 0, 75, 0
2, 5600, Note_on_c, 0, 64, 0
2, 5607, Note_on_c, 0, 73, 37
2, 5616, Note_on_c, 0, 68, 0
2, 5622, Note_on_c, 0, 73, 0
2, 5639, Note_on_c, 0, 75, 57
2, 5640, Note_on_c, 0, 64, 50
2, 5641, Note_on_c, 0, 70, 38
2, 5641, Note_on_c, 0, 68, 45
2, 5643, Note_on_c, 0, 63, 33
2, 5644, Control_c, 0, 64, 0
2, 5662, Control_c, 0, 64, 127
2, 5693, Note_on_c, 0, 63, 0
2, 5720, Note_on_c, 0, 75, 0
2, 5724, Note_on_c, 0, 70, 0
2, 5728, Note_on_c, 0, 64, 0
2, 5730, Note_on_c, 0, 73, 34
2, 5733, Note_on_c, 0, 68, 0
2, 5749, Note_on_c, 0, 73, 0
2, 5761, Note_on_c, 0, 75, 45
2, 5763, Note_on_c, 0, 63, 31
2, 5764, Note_on_c, 0, 72, 48
2, 5766, Note_on_c, 0, 70, 33
2, 5766, Control_c, 0, 64, 0
2, 5767, Note_on_c, 0, 48, 37
2, 5768, Note_on_c, 0, 58, 14
2, 5794, Control_c, 0, 64, 127
2, 5850, Note_on_c, 0, 63, 0
2, 5883, Note_on_c, 0, 70, 0
2, 5883, Note_on_c, 0, 72, 0
2, 5887, Note_on_c, 0, 63, 38
2, 5892, Note_on_c, 0, 48, 0
2, 5902, Note_on_c, 0, 75, 0
2, 5902, Note_on_c, 0, 63, 0
2, 5904, Note_on_c, 0, 58, 0
2, 5914, Note_on_c, 0, 70, 75
2, 5929, Note_on_c, 0, 70, 0
2, 5938, Note_on_c, 0, 72, 81
2, 5956, Note_on_c, 0, 72, 0
2, 5968, Note_on_c, 0, 74, 80
2, 5979, Note_on_c, 0, 74, 0
2, 5998, Note_on_c, 0, 75, 59
2, 5999, Note_on_c, 0, 68, 45
2, 5999, Control_c, 0, 64, 0
2, 6000, Note_on_c, 0, 63, 31
2, 6001, Note_on_c, 0, 56, 36
2, 6002, Note_on_c, 0, 53, 22
2, 6022, Control_c, 0, 64, 127
2, 6026, Note_on_c, 0, 68, 0
2, 6032, Note_on_c, 0, 75, 0
2, 6035, Note_on_c, 0, 65, 52
2, 6035, Note_on_c, 0, 72, 57
2, 6036, Note_on_c, 0, 68, 36
2, 6037, Note_on_c, 0, 63, 0
2, 6040, Note_on_c, 0, 65, 0
2, 6040, Note_on_c, 0, 60, 35
2, 6043, Note_on_c, 0, 68, 0
2, 6046, Note_on_c, 0, 72, 0
2, 6069, Note_on_c, 0, 80, 64
2, 6073, Note_on_c, 0, 63, 31
2, 6083, Note_on_c, 0, 60, 0
2, 6090, Note_on_c, 0, 80, 0
2, 6109, Note_on_c, 0, 63, 0
2, 6112, Note_on_c, 0, 80, 50
2, 6115, Note_on_c, 0, 68, 36
2, 6116, Note_on_c, 0, 60, 20
2, 6146, Note_on_c, 0, 68, 0
2, 6165, Note_on_c, 0, 63, 23
2, 6176, Note_on_c, 0, 53, 0
2, 6178, Note_on_c, 0, 60, 0
2, 6182, Note_on_c, 0, 80, 0
2, 6183, Note_on_c, 0, 63, 0
2, 6188, Note_on_c, 0, 56, 0
2, 6238, Control_c, 0, 64, 0
2, 6277, Note_on_c, 0, 76, 72
2, 6277, Note_on_c, 0, 67, 81
2, 6278, Note_on_c, 0, 84, 74
2, 6278, Note_on_c, 0, 62, 63
2, 6278, Note_on_c, 0, 72, 74
2, 6278, Note_on_c, 0, 79, 53
2, 6279, Note_on_c, 0, 56, 39
2, 6281, Note_on_c, 0, 72, 0
2, 6282, Note_on_c, 0, 79, 0
2, 6284, Note_on_c, 0, 67, 0
2, 6284, Note_on_c, 0, 76, 0
2, 6285, Note_on_c, 0, 62, 0
2, 6285, Note_on_c, 0, 84, 0
2, 6286, Note_on_c, 0, 56, 0
2, 6327, Note_on_c, 0, 67, 79
2, 6327, Note_on_c, 0, 76, 78
2, 6327, Note_on_c, 0, 84, 73
2, 6328, Note_on_c, 0, 62, 60
2, 6328, Note_on_c, 0, 79, 64
2, 6328, Note_on_c, 0, 56, 62
2, 6328, Note_on_c, 0, 72, 78
2, 6328, Note_on_c, 0, 60, 62
2, 6331, Note_on_c, 0, 72, 0
2, 6332, Note_on_c, 0, 60, 0
2, 6333, Note_on_c, 0, 67, 0
2, 6333, Note_on_c, 0, 79, 0
2, 6334, Note_on_c, 0, 76, 0
2, 6335, Note_on_c, 0, 84, 0
2, 6336, Note_on_c, 0, 62, 0
2, 6340, Note_on_c, 0, 56, 0
2, 6367, Note_on_c, 0, 62, 51
2, 6368, Note_on_c, 0, 67, 78
2, 6368, Note_on_c, 0, 56, 61
2, 6369, Note_on_c, 0, 76, 80
2, 6369, Note_on_c, 0, 60, 60
2, 6369, Note_on_c, 0, 79, 59
2, 6369, Control_c, 0, 64, 127
2, 6369, Note_on_c, 0, 84, 62
2, 6370, Note_on_c, 0, 72, 79
2, 6370, Note_on_c, 0, 83, 54
2, 6383, Note_on_c, 0, 84, 0
2, 6383, Note_on_c, 0, 76, 0
2, 6385, Note_on_c, 0, 72, 0
2, 6385, Note_on_c, 0, 79, 0
2, 6387, Note_on_c, 0, 83, 0
2, 6389, Note_on_c, 0, 67, 0
2, 6391, Note_on_c, 0, 60, 0
2, 6393, Note_on_c, 0, 56, 0
2, 6394, Note_on_c, 0, 62, 0
2, 6403, Note_on_c, 0, 62, 66
2, 6404, Note_on_c, 0, 85, 83
2, 6404, Note_on_c, 0, 56, 60
2, 6404, Note_on_c, 0, 67, 71
2, 6404, Control_c, 0, 64, 0
2, 6405, Note_on_c, 0, 60, 62
2, 6405, Note_on_c, 0, 73, 63
2, 6411, Control_c, 0, 64, 127
2, 6439, Note_on_c, 0, 62, 0
2, 6441, Note_on_c, 0, 67, 0
2, 6443, Note_on_c, 0, 60, 0
2, 6443, Note_on_c, 0, 85, 0
2, 6443, Note_on_c, 0, 73, 0
2, 6456, Note_on_c, 0, 56, 0
2, 6474, Note_on_c, 0, 84, 63
2, 6476, Control_c, 0, 64, 0
2, 6476, Note_on_c, 0, 72, 52
2, 6476, Note_on_c, 0, 77, 53
2, 6478, Note_on_c, 0, 61, 42
2, 6478, Note_on_c, 0, 65, 55
2, 6479, Note_on_c, 0, 55, 47
2, 6498, Control_c, 0, 64, 127
2, 6540, Note_on_c, 0, 65, 0
2, 6542, Note_on_c, 0, 84, 0
2, 6543, Note_on_c, 0, 55, 0
2, 6549, Note_on_c, 0, 77, 0
2, 6551, Note_on_c, 0, 61, 0
2, 6556, Note_on_c, 0, 72, 0
2, 6593, Note_on_c, 0, 82, 46
2, 6595, Note_on_c, 0, 70, 34
2, 6595, Note_on_c, 0, 75, 43
2, 6596, Note_on_c, 0, 64, 37
2, 6596, Note_on_c, 0, 61, 29
2, 6597, Note_on_c, 0, 79, 35
2, 6598, Note_on_c, 0, 55, 26
2, 6614, Note_on_c, 0, 79, 0
2, 6620, Note_on_c, 0, 82, 0
2, 6620, Note_on_c, 0, 64, 0
2, 6623, Note_on_c, 0, 75, 0
2, 6626, Note_on_c, 0, 70, 0
2, 6627, Note_on_c, 0, 61, 0
2, 6632, Note_on_c, 0, 55, 0
2, 6717, Note_on_c, 0, 63, 36
2, 6718, Control_c, 0, 64, 0
2, 6719, Note_on_c, 0, 58, 40
2, 6721, Note_on_c, 0, 60, 36
2, 6721, Note_on_c, 0, 51, 30
2, 6722, Note_on_c, 0, 44, 25
2, 6733, Note_on_c, 0, 60, 0
2, 6733, Control_c, 0, 64, 127
2, 6735, Note_on_c, 0, 58, 0
2, 6736, Note_on_c, 0, 63, 0
2, 6790, Note_on_c, 0, 70, 57
2, 6790, Note_on_c, 0, 67, 58
2, 6791, Note_on_c, 0, 72, 63
2, 6800, Note_on_c, 0, 72, 0
2, 6802, Note_on_c, 0, 70, 0
2, 6802, Note_on_c, 0, 67, 0
2, 6825, Note_on_c, 0, 63, 70
2, 6825, Note_on_c, 0, 70, 76
2, 6841, Note_on_c, 0, 63, 0
2, 6845, Note_on_c, 0, 70, 0
2, 6853, Note_on_c, 0, 67, 60
2, 6855, Note_on_c, 0, 63, 39
2, 6856, Note_on_c, 0, 60, 56
2, 6857, Note_on_c, 0, 55, 44
2, 6862, Note_on_c, 0, 67, 0
2, 6864, Note_on_c, 0, 63, 0
2, 6864, Note_on_c, 0, 55, 0
2, 6872, Note_on_c, 0, 60, 0
2, 6883, Note_on_c, 0, 60, 44
2, 6885, Note_on_c, 0, 67, 54
2, 6888, Note_on_c, 0, 55, 35
2, 6893, Note_on_c, 0, 55, 0
2, 6897, Note_on_c, 0, 67, 0
2, 6898, Note_on_c, 0, 51, 0
2, 6902, Note_on_c, 0, 60, 0
2, 6916, Note_on_c, 0, 51, 34
2, 6916, Note_on_c, 0, 63, 47
2, 6917, Note_on_c, 0, 56, 34
2, 6934, Note_on_c, 0, 51, 0
2, 6938, Note_on_c, 0, 56, 0
2, 6953, Note_on_c, 0, 63, 0
2, 6964, Note_on_c, 0, 55, 47
2, 6965, Note_on_c, 0, 63, 25
2, 6965, Note_on_c, 0, 51, 37
2, 6966, Note_on_c, 0, 60, 34
2, 6966, Note_on_c, 0, 58, 35
2, 6968, Control_c, 0, 64, 0
2, 6983, Control_c, 0, 64, 127
2, 7000, Note_on_c, 0, 51, 0
2, 7023, Note_on_c, 0, 51, 46
2, 7028, Note_on_c, 0, 55, 0
2, 7034, Note_on_c, 0, 60, 0
2, 7047, Note_on_c, 0, 58, 0
2, 7053, Note_on_c, 0, 51, 0
2, 7076, Note_on_c, 0, 58, 48
2, 7079, Note_on_c, 0, 55, 33
2, 7079, Note_on_c, 0, 51, 37
2, 7082, Note_on_c, 0, 55, 0
2, 7085, Note_on_c, 0, 63, 0
2, 7086, Note_on_c, 0, 44, 0
2, 7086, Note_on_c, 0, 58, 0
2, 7090, Note_on_c, 0, 51, 0
2, 7122, Note_on_c, 0, 75, 77
2, 7122, Note_on_c, 0, 70, 81
2, 7123, Note_on_c, 0, 72, 79
2, 7123, Note_on_c, 0, 67, 82
2, 7123, Note_on_c, 0, 63, 62
2, 7136, Note_on_c, 0, 63, 0
2, 7142, Note_on_c, 0, 75, 0
2, 7148, Note_on_c, 0, 70, 0
2, 7150, Note_on_c, 0, 67, 0
2, 7151, Note_on_c, 0, 72, 0
2, 7161, Note_on_c, 0, 75, 76
2, 7162, Note_on_c, 0, 63, 59
2, 7164, Note_on_c, 0, 67, 61
2, 7164, Note_on_c, 0, 70, 38
2, 7167, Note_on_c, 0, 70, 0
2, 7169, Note_on_c, 0, 67, 0
2, 7169, Note_on_c, 0, 63, 0
2, 7170, Note_on_c, 0, 75, 0
2, 7197, Note_on_c, 0, 72, 83
2, 7198, Note_on_c, 0, 61, 73
2, 7198, Note_on_c, 0, 65, 82
2, 7198, Note_on_c, 0, 68, 63
2, 7202, Control_c, 0, 64, 0
2, 7224, Control_c, 0, 64, 127
2, 7260, Note_on_c, 0, 51, 60
2, 7288, Note_on_c, 0, 65, 0
2, 7294, Note_on_c, 0, 51, 0
2, 7301, Note_on_c, 0, 68, 0
2, 7302, Note_on_c, 0, 61, 0
2, 7314, Note_on_c, 0, 72, 0
2, 7320, Note_on_c, 0, 61, 44
2, 7321, Note_on_c, 0, 68, 34
2, 7322, Note_on_c, 0, 65, 55
2, 7325, Note_on_c, 0, 58, 28
2, 7362, Note_on_c, 0, 51, 51
2, 7384, Note_on_c, 0, 51, 0
2, 7406, Note_on_c, 0, 51, 55
2, 7417, Note_on_c, 0, 65, 0
2, 7418, Note_on_c, 0, 68, 0
2, 7421, Note_on_c, 0, 51, 0
2, 7425, Note_on_c, 0, 61, 0
2, 7429, Note_on_c, 0, 58, 0
2, 7448, Note_on_c, 0, 72, 59
2, 7448, Note_on_c, 0, 64, 52
2, 7448, Note_on_c, 0, 51, 46
2, 7449, Note_on_c, 0, 61, 33
2, 7449, Note_on_c, 0, 67, 36
2, 7452, Control_c, 0, 64, 0
2, 7453, Note_on_c, 0, 58, 33
2, 7477, Control_c, 0, 64, 127
2, 7523, Note_on_c, 0, 61, 0
2, 7524, Note_on_c, 0, 51, 0
2, 7530, Note_on_c, 0, 67, 0
2, 7533, Note_on_c, 0, 58, 0
2, 7542, Note_on_c, 0, 64, 0
2, 7556, Note_on_c, 0, 72, 0
2, 7565, Note_on_c, 0, 51, 25
2, 7567, Note_on_c, 0, 58, 18
2, 7602, Note_on_c, 0, 51, 0
2, 7605, Note_on_c, 0, 58, 0
2, 7681, Note_on_c, 0, 67, 31
2, 7682, Note_on_c, 0, 62, 32
2, 7683, Note_on_c, 0, 56, 25
2, 7689, Control_c, 0, 64, 0
2, 7742, Note_on_c, 0, 67, 0
2, 7762, Note_on_c, 0, 68, 48
2, 7772, Note_on_c, 0, 70, 62
2, 7773, Note_on_c, 0, 68, 0
2, 7779, Note_on_c, 0, 70, 0
2, 7781, Note_on_c, 0, 71, 70
2, 7790, Note_on_c, 0, 71, 0
2, 7793, Note_on_c, 0, 73, 47
2, 7800, Note_on_c, 0, 73, 0
2, 7804, Note_on_c, 0, 74, 59
2, 7809, Note_on_c, 0, 62, 0
2, 7815, Note_on_c, 0, 74, 0
2, 7816, Note_on_c, 0, 76, 58
2, 7818, Note_on_c, 0, 56, 0
2, 7824, Note_on_c, 0, 76, 0
2, 7829, Note_on_c, 0, 77, 26
2, 7834, Note_on_c, 0, 77, 0
2, 7840, Note_on_c, 0, 79, 62
2, 7847, Note_on_c, 0, 79, 0
2, 7854, Note_on_c, 0, 80, 63
2, 7861, Note_on_c, 0, 80, 0
2, 7872, Note_on_c, 0, 82, 53
2, 7877, Note_on_c, 0, 82, 0
2, 7894, Note_on_c, 0, 83, 60
2, 7900, Note_on_c, 0, 83, 0
2, 7917, Note_on_c, 0, 84, 68
2, 7926, Note_on_c, 0, 84, 0
2, 7985, Control_c, 0, 64, 127
2, 8022, Note_on_c, 0, 91, 79
2, 8022, Note_on_c, 0, 79, 81
2, 8022, Note_on_c, 0, 56, 74
2, 8022, Note_on_c, 0, 67, 80
2, 8022, Note_on_c, 0, 62, 68
2, 8026, Note_on_c, 0, 89, 33
2, 8030, Note_on_c, 0, 89, 0
2, 8039, Note_on_c, 0, 91, 0
2, 8041, Note_on_c, 0, 79, 0
2, 8043, Note_on_c, 0, 67, 0
2, 8046, Note_on_c, 0, 56, 0
2, 8046, Note_on_c, 0, 62, 0
2, 8052, Control_c, 0, 64, 0
2, 8052, Note_on_c, 0, 92, 86
2, 8052, Note_on_c, 0, 80, 83
2, 8052, Note_on_c, 0, 56, 52
2, 8053, Note_on_c, 0, 67, 71
2, 8053, Note_on_c, 0, 62, 82
2, 8062, Control_c, 0, 64, 127
2, 8074, Note_on_c, 0, 80, 0
2, 8075, Note_on_c, 0, 92, 0
2, 8076, Note_on_c, 0, 67, 0
2, 8077, Note_on_c, 0, 56, 0
2, 8082, Note_on_c, 0, 62, 0
2, 8088, Note_on_c, 0, 94, 86
2, 8088, Note_on_c, 0, 82, 83
2, 8089, Note_on_c, 0, 56, 69
2, 8089, Note_on_c, 0, 67, 66
2, 8089, Note_on_c, 0, 62, 79
2, 8102, Note_on_c, 0, 94, 0
2, 8104, Note_on_c, 0, 82, 0
2, 8105, Note_on_c, 0, 67, 0
2, 8108, Note_on_c, 0, 56, 0
2, 8110, Note_on_c, 0, 62, 0
2, 8115, Note_on_c, 0, 92, 61
2, 8115, Note_on_c, 0, 67, 48
2, 8115, Note_on_c, 0, 80, 53
2, 8116, Note_on_c, 0, 62, 51
2, 8116, Note_on_c, 0, 56, 52
2, 8127, Note_on_c, 0, 80, 0
2, 8128, Note_on_c, 0, 92, 0
2, 8128, Note_on_c, 0, 67, 0
2, 8131, Note_on_c, 0, 56, 0
2, 8136, Note_on_c, 0, 62, 0
2, 8144, Note_on_c, 0, 94, 72
2, 8145, Note_on_c, 0, 56, 54
2, 8145, Note_on_c, 0, 82, 64
2, 8152, Note_on_c, 0, 82, 0
2, 8152, Note_on_c, 0, 94, 0
2, 8154, Note_on_c, 0, 56, 0
2, 8171, Control_c, 0, 64, 0
2, 8172, Note_on_c, 0, 63, 52
2, 8172, Note_on_c, 0, 89, 64
2, 8172, Note_on_c, 0, 60, 57
2, 8173, Note_on_c, 0, 77, 42
2, 8173, Note_on_c, 0, 58, 37
2, 8174, Note_on_c, 0, 84, 44
2, 8175, Note_on_c, 0, 53, 43
2, 8187, Control_c, 0, 64, 127
2, 8189, Note_on_c, 0, 89, 0
2, 8192, Note_on_c, 0, 84, 0
2, 8193, Note_on_c, 0, 53, 0
2, 8195, Note_on_c, 0, 63, 0
2, 8198, Note_on_c, 0, 77, 0
2, 8198, Note_on_c, 0, 58, 0
2, 8201, Note_on_c, 0, 60, 0
2, 8209, Note_on_c, 0, 87, 51
2, 8210, Note_on_c, 0, 63, 44
2, 8211, Note_on_c, 0, 60, 53
2, 8212, Note_on_c, 0, 75, 38
2, 8213, Note_on_c, 0, 82, 47
2, 8213, Note_on_c, 0, 53, 38
2, 8213, Note_on_c, 0, 58, 33
2, 8242, Note_on_c, 0, 82, 0
2, 8243, Note_on_c, 0, 87, 0
2, 8243, Note_on_c, 0, 53, 0
2, 8245, Note_on_c, 0, 63, 0
2, 8246, Note_on_c, 0, 75, 0
2, 8250, Note_on_c, 0, 60, 0
2, 8255, Note_on_c, 0, 58, 0
2, 8277, Note_on_c, 0, 84, 48
2, 8278, Note_on_c, 0, 72, 52
2, 8279, Control_c, 0, 64, 0
2, 8279, Note_on_c, 0, 60, 33
2, 8279, Note_on_c, 0, 79, 37
2, 8280, Note_on_c, 0, 63, 37
2, 8281, Note_on_c, 0, 58, 34
2, 8282, Note_on_c, 0, 53, 34
2, 8291, Control_c, 0, 64, 127
2, 8322, Note_on_c, 0, 79, 0
2, 8322, Note_on_c, 0, 84, 0
2, 8331, Note_on_c, 0, 63, 0
2, 8333, Note_on_c, 0, 72, 0
2, 8352, Note_on_c, 0, 60, 0
2, 8361, Note_on_c, 0, 58, 0
2, 8392, Note_on_c, 0, 70, 74
2, 8392, Note_on_c, 0, 58, 77
2, 8393, Note_on_c, 0, 67, 74
2, 8393, Note_on_c, 0, 63, 77
2, 8393, Note_on_c, 0, 60, 83
2, 8395, Control_c, 0, 64, 0
2, 8409, Control_c, 0, 64, 127
2, 8424, Note_on_c, 0, 60, 0
2, 8425, Note_on_c, 0, 67, 0
2, 8427, Note_on_c, 0, 70, 0
2, 8427, Note_on_c, 0, 63, 0
2, 8429, Note_on_c, 0, 58, 0
2, 8429, Note_on_c, 0, 53, 0
2, 8433, Note_on_c, 0, 63, 60
2, 8433, Note_on_c, 0, 56, 60
2, 8433, Note_on_c, 0, 68, 72
2, 8434, Note_on_c, 0, 60, 73
2, 8437, Control_c, 0, 64, 0
2, 8449, Control_c, 0, 64, 127
2, 8467, Note_on_c, 0, 68, 0
2, 8470, Note_on_c, 0, 63, 0
2, 8473, Note_on_c, 0, 60, 0
2, 8489, Note_on_c, 0, 56, 0
2, 8511, Note_on_c, 0, 67, 65
2, 8511, Control_c, 0, 64, 0
2, 8512, Note_on_c, 0, 56, 34
2, 8512, Note_on_c, 0, 60, 56
2, 8513, Note_on_c, 0, 63, 37
2, 8513, Note_on_c, 0, 55, 52
2, 8531, Control_c, 0, 64, 127
2, 8574, Note_on_c, 0, 56, 0
2, 8577, Note_on_c, 0, 60, 0
2, 8589, Note_on_c, 0, 55, 0
2, 8590, Note_on_c, 0, 63, 0
2, 8596, Note_on_c, 0, 67, 0
2, 8616, Note_on_c, 0, 67, 55
2, 8629, Note_on_c, 0, 67, 0
2, 8637, Control_c, 0, 64, 0
2, 8640, Note_on_c, 0, 67, 55
2, 8640, Note_on_c, 0, 56, 30
2, 8640, Note_on_c, 0, 60, 51
2, 8640, Note_on_c, 0, 50, 47
2, 8651, Note_on_c, 0, 67, 0
2, 8679, Note_on_c, 0, 67, 73
2, 8688, Note_on_c, 0, 67, 0
2, 8704, Note_on_c, 0, 67, 65
2, 8711, Note_on_c, 0, 50, 0
2, 8713, Note_on_c, 0, 60, 0
2, 8717, Note_on_c, 0, 67, 0
2, 8717, Note_on_c, 0, 68, 53
2, 8730, Note_on_c, 0, 67, 31
2, 8731, Note_on_c, 0, 68, 0
2, 8741, Note_on_c, 0, 56, 0
2, 8742, Note_on_c, 0, 67, 0
2, 8742, Note_on_c, 0, 65, 51
2, 8753, Note_on_c, 0, 65, 0
2, 8759, Note_on_c, 0, 67, 62
2, 8769, Note_on_c, 0, 67, 0
2, 8798, Note_on_c, 0, 67, 65
2, 8805, Note_on_c, 0, 67, 0
2, 8819, Note_on_c, 0, 67, 64
2, 8822, Note_on_c, 0, 60, 29
2, 8827, Note_on_c, 0, 60, 0
2, 8831, Note_on_c, 0, 67, 0
2, 8833, Note_on_c, 0, 68, 49
2, 8845, Note_on_c, 0, 67, 34
2, 8847, Note_on_c, 0, 68, 0
2, 8860, Note_on_c, 0, 67, 0
2, 8860, Note_on_c, 0, 65, 46
2, 8861, Control_c, 0, 64, 127
2, 8869, Control_c, 0, 64, 0
2, 8871, Note_on_c, 0, 65, 0
2, 8874, Note_on_c, 0, 59, 32
2, 8874, Note_on_c, 0, 49, 34
2, 8875, Note_on_c, 0, 53, 34
2, 8879, Note_on_c, 0, 67, 44
2, 8890, Control_c, 0, 64, 127
2, 8913, Note_on_c, 0, 59, 0
2, 8923, Note_on_c, 0, 53, 0
2, 8933, Note_on_c, 0, 67, 0
2, 8941, Note_on_c, 0, 67, 66
2, 8943, Note_on_c, 0, 63, 43
2, 8943, Note_on_c, 0, 59, 30
2, 8944, Note_on_c, 0, 58, 31
2, 8945, Note_on_c, 0, 53, 35
2, 8969, Note_on_c, 0, 58, 0
2, 8971, Note_on_c, 0, 59, 0
2, 8971, Note_on_c, 0, 53, 0
2, 8980, Note_on_c, 0, 63, 0
2, 8985, Note_on_c, 0, 67, 0
2, 8996, Control_c, 0, 64, 0
2, 8998, Note_on_c, 0, 67, 25
2, 8998, Note_on_c, 0, 58, 47
2, 8999, Note_on_c, 0, 59, 32
2, 8999, Note_on_c, 0, 53, 36
2, 8999, Note_on_c, 0, 63, 44
2, 9019, Control_c, 0, 64, 127
2, 9063, Note_on_c, 0, 49, 0
2, 9083, Note_on_c, 0, 67, 0
2, 9084, Note_on_c, 0, 59, 0
2, 9086, Note_on_c, 0, 58, 0
2, 9093, Note_on_c, 0, 68, 56
2, 9094, Note_on_c, 0, 49, 28
2, 9095, Note_on_c, 0, 53, 0
2, 9101, Note_on_c, 0, 63, 0
2, 9104, Note_on_c, 0, 49, 0
2, 9111, Note_on_c, 0, 68, 0
2, 9122, Control_c, 0, 64, 0
2, 9122, Note_on_c, 0, 58, 42
2, 9123, Note_on_c, 0, 63, 42
2, 9124, Note_on_c, 0, 65, 49
2, 9126, Note_on_c, 0, 48, 35
2, 9139, Control_c, 0, 64, 127
2, 9142, Note_on_c, 0, 65, 0
2, 9158, Note_on_c, 0, 48, 0
2, 9158, Note_on_c, 0, 63, 0
2, 9169, Note_on_c, 0, 58, 0
2, 9281, Note_on_c, 0, 63, 34
2, 9281, Note_on_c, 0, 67, 42
2, 9281, Note_on_c, 0, 62, 43
2, 9282, Note_on_c, 0, 58, 33
2, 9284, Control_c, 0, 64, 0
2, 9296, Control_c, 0, 64, 127
2, 9316, Note_on_c, 0, 62, 0
2, 9318, Note_on_c, 0, 67, 0
2, 9325, Note_on_c, 0, 74, 82
2, 9328, Note_on_c, 0, 58, 0
2, 9333, Note_on_c, 0, 74, 0
2, 9342, Note_on_c, 0, 75, 93
2, 9343, Note_on_c, 0, 63, 0
2, 9355, Note_on_c, 0, 75, 0
2, 9360, Control_c, 0, 64, 0
2, 9361, Note_on_c, 0, 67, 51
2, 9362, Note_on_c, 0, 72, 85
2, 9363, Note_on_c, 0, 79, 74
2, 9363, Note_on_c, 0, 56, 38
2, 9363, Note_on_c, 0, 60, 54
2, 9364, Note_on_c, 0, 63, 36
2, 9382, Note_on_c, 0, 79, 0
2, 9388, Note_on_c, 0, 77, 54
2, 9390, Control_c, 0, 64, 127
2, 9395, Note_on_c, 0, 72, 0
2, 9407, Note_on_c, 0, 77, 0
2, 9427, Note_on_c, 0, 67, 0
2, 9434, Note_on_c, 0, 60, 0
2, 9438, Note_on_c, 0, 63, 0
2, 9478, Note_on_c, 0, 63, 34
2, 9479, Note_on_c, 0, 67, 40
2, 9482, Note_on_c, 0, 60, 24
2, 9505, Note_on_c, 0, 67, 0
2, 9513, Note_on_c, 0, 60, 0
2, 9516, Note_on_c, 0, 63, 0
2, 9518, Note_on_c, 0, 75, 61
2, 9519, Note_on_c, 0, 68, 63
2, 9528, Note_on_c, 0, 56, 0
2, 9544, Note_on_c, 0, 68, 0
2, 9545, Note_on_c, 0, 75, 0
2, 9551, Note_on_c, 0, 72, 56
2, 9563, Note_on_c, 0, 72, 0
2, 9566, Note_on_c, 0, 68, 57
2, 9574, Note_on_c, 0, 68, 0
2, 9581, Note_on_c, 0, 51, 21
2, 9591, Note_on_c, 0, 61, 53
2, 9592, Note_on_c, 0, 65, 62
2, 9592, Note_on_c, 0, 68, 45
2, 9595, Note_on_c, 0, 58, 23
2, 9595, Note_on_c, 0, 54, 25
2, 9596, Note_on_c, 0, 56, 40
2, 9597, Control_c, 0, 64, 0
2, 9625, Control_c, 0, 64, 127
2, 9648, Note_on_c, 0, 61, 0
2, 9651, Note_on_c, 0, 65, 0
2, 9657, Note_on_c, 0, 68, 0
2, 9668, Note_on_c, 0, 54, 0
2, 9677, Note_on_c, 0, 58, 0
2, 9689, Note_on_c, 0, 56, 0
2, 9694, Note_on_c, 0, 87, 82
2, 9699, Note_on_c, 0, 75, 75
2, 9713, Note_on_c, 0, 87, 0
2, 9717, Note_on_c, 0, 75, 0
2, 9730, Control_c, 0, 64, 0
2, 9730, Note_on_c, 0, 58, 37
2, 9731, Note_on_c, 0, 87, 79
2, 9732, Note_on_c, 0, 54, 25
2, 9734, Note_on_c, 0, 56, 25
2, 9735, Note_on_c, 0, 75, 76
2, 9751, Control_c, 0, 64, 127
2, 9759, Note_on_c, 0, 87, 0
2, 9761, Note_on_c, 0, 75, 0
2, 9776, Note_on_c, 0, 87, 62
2, 9777, Note_on_c, 0, 75, 53
2, 9789, Note_on_c, 0, 51, 0
2, 9794, Note_on_c, 0, 54, 0
2, 9794, Note_on_c, 0, 58, 0
2, 9797, Note_on_c, 0, 87, 0
2, 9797, Note_on_c, 0, 75, 0
2, 9801, Note_on_c, 0, 56, 0
2, 9821, Note_on_c, 0, 87, 61
2, 9823, Note_on_c, 0, 75, 48
2, 9828, Note_on_c, 0, 75, 0
2, 9832, Note_on_c, 0, 87, 0
2, 9856, Note_on_c, 0, 89, 57
2, 9858, Control_c, 0, 64, 0
2, 9859, Note_on_c, 0, 86, 60
2, 9859, Note_on_c, 0, 54, 48
2, 9860, Note_on_c, 0, 65, 57
2, 9861, Note_on_c, 0, 60, 40
2, 9862, Note_on_c, 0, 77, 66
2, 9876, Control_c, 0, 64, 127
2, 9881, Note_on_c, 0, 86, 0
2, 9882, Note_on_c, 0, 89, 0
2, 9888, Note_on_c, 0, 77, 0
2, 9898, Note_on_c, 0, 65, 0
2, 9903, Note_on_c, 0, 54, 0
2, 9904, Note_on_c, 0, 60, 0
2, 10005, Note_on_c, 0, 78, 65
2, 10005, Control_c, 0, 64, 0
2, 10006, Note_on_c, 0, 74, 73
2, 10006, Note_on_c, 0, 86, 61
2, 10006, Note_on_c, 0, 81, 63
2, 10007, Note_on_c, 0, 54, 64
2, 10007, Note_on_c, 0, 60, 64
2, 10007, Note_on_c, 0, 65, 71
2, 10012, Control_c, 0, 64, 127
2, 10015, Note_on_c, 0, 74, 0
2, 10018, Note_on_c, 0, 78, 0
2, 10018, Note_on_c, 0, 65, 0
2, 10019, Note_on_c, 0, 81, 0
2, 10022, Note_on_c, 0, 60, 0
2, 10022, Note_on_c, 0, 86, 0
2, 10024, Note_on_c, 0, 54, 0
2, 10045, Control_c, 0, 64, 0
2, 10045, Note_on_c, 0, 96, 88
2, 10045, Note_on_c, 0, 54, 69
2, 10045, Note_on_c, 0, 91, 77
2, 10045, Note_on_c, 0, 60, 70
2, 10045, Note_on_c, 0, 84, 74
2, 10046, Note_on_c, 0, 65, 71
2, 10053, Note_on_c, 0, 65, 0
2, 10055, Note_on_c, 0, 91, 0
2, 10055, Control_c, 0, 64, 127
2, 10057, Note_on_c, 0, 96, 0
2, 10059, Note_on_c, 0, 84, 0
2, 10059, Note_on_c, 0, 60, 0
2, 10065, Note_on_c, 0, 54, 0
2, 10084, Note_on_c, 0, 92, 60
2, 10085, Note_on_c, 0, 87, 71
2, 10085, Control_c, 0, 64, 0
2, 10086, Note_on_c, 0, 63, 45
2, 10086, Note_on_c, 0, 80, 43
2, 10086, Note_on_c, 0, 60, 57
2, 10087, Note_on_c, 0, 56, 45
2, 10087, Note_on_c, 0, 53, 43
2, 10101, Control_c, 0, 64, 127
2, 10104, Note_on_c, 0, 87, 0
2, 10105, Note_on_c, 0, 92, 0
2, 10107, Note_on_c, 0, 53, 0
2, 10110, Note_on_c, 0, 80, 0
2, 10111, Note_on_c, 0, 63, 0
2, 10113, Note_on_c, 0, 60, 0
2, 10114, Note_on_c, 0, 56, 0
2, 10125, Note_on_c, 0, 89, 55
2, 10126, Note_on_c, 0, 63, 48
2, 10126, Note_on_c, 0, 60, 37
2, 10127, Note_on_c, 0, 77, 38
2, 10127, Note_on_c, 0, 84, 49
2, 10127, Note_on_c, 0, 53, 36
2, 10129, Note_on_c, 0, 56, 27
2, 10130, Control_c, 0, 64, 0
2, 10138, Control_c, 0, 64, 127
2, 10147, Note_on_c, 0, 89, 0
2, 10149, Note_on_c, 0, 84, 0
2, 10157, Note_on_c, 0, 77, 0
2, 10158, Note_on_c, 0, 53, 0
2, 10159, Note_on_c, 0, 63, 0
2, 10179, Note_on_c, 0, 60, 0
2, 10182, Note_on_c, 0, 56, 0
2, 10198, Note_on_c, 0, 84, 46
2, 10198, Note_on_c, 0, 63, 34
2, 10199, Note_on_c, 0, 80, 29
2, 10199, Note_on_c, 0, 56, 25
2, 10200, Note_on_c, 0, 72, 30
2, 10200, Note_on_c, 0, 60, 39
2, 10201, Note_on_c, 0, 77, 34
2, 10201, Control_c, 0, 64, 0
2, 10214, Control_c, 0, 64, 127
2, 10243, Note_on_c, 0, 84, 0
2, 10245, Note_on_c, 0, 53, 50
2, 10247, Note_on_c, 0, 77, 0
2, 10248, Note_on_c, 0, 80, 0
2, 10253, Note_on_c, 0, 72, 0
2, 10281, Note_on_c, 0, 53, 0
2, 10286, Note_on_c, 0, 60, 0
2, 10288, Note_on_c, 0, 63, 0
2, 10288, Note_on_c, 0, 72, 64
2, 10298, Note_on_c, 0, 72, 0
2, 10303, Note_on_c, 0, 56, 0
2, 10304, Note_on_c, 0, 73, 55
2, 10318, Note_on_c, 0, 73, 0
2, 10322, Note_on_c, 0, 61, 31
2, 10324, Note_on_c, 0, 68, 53
2, 10324, Note_on_c, 0, 72, 55
2, 10325, Note_on_c, 0, 75, 61
2, 10325, Note_on_c, 0, 63, 55
2, 10325, Note_on_c, 0, 64, 51
2, 10326, Control_c, 0, 64, 0
2, 10328, Note_on_c, 0, 61, 0
2, 10344, Note_on_c, 0, 72, 0
2, 10344, Note_on_c, 0, 64, 0
2, 10346, Note_on_c, 0, 75, 0
2, 10347, Note_on_c, 0, 68, 0
2, 10350, Note_on_c, 0, 61, 38
2, 10351, Note_on_c, 0, 63, 0
2, 10352, Note_on_c, 0, 73, 23
2, 10362, Note_on_c, 0, 73, 0
2, 10371, Note_on_c, 0, 64, 45
2, 10371, Note_on_c, 0, 68, 37
2, 10371, Note_on_c, 0, 75, 51
2, 10372, Note_on_c, 0, 61, 0
2, 10372, Note_on_c, 0, 72, 46
2, 10372, Note_on_c, 0, 63, 46
2, 10404, Control_c, 0, 64, 127
2, 10430, Note_on_c, 0, 64, 0
2, 10434, Note_on_c, 0, 72, 0
2, 10434, Note_on_c, 0, 68, 0
2, 10443, Note_on_c, 0, 75, 0
2, 10451, Note_on_c, 0, 64, 44
2, 10452, Note_on_c, 0, 73, 31
2, 10452, Note_on_c, 0, 68, 42
2, 10454, Note_on_c, 0, 63, 0
2, 10454, Note_on_c, 0, 61, 37
2, 10456, Control_c, 0, 64, 0
2, 10465, Control_c, 0, 64, 127
2, 10506, Note_on_c, 0, 61, 0
2, 10530, Note_on_c, 0, 68, 0
2, 10530, Note_on_c, 0, 73, 0
2, 10530, Note_on_c, 0, 64, 0
2, 10535, Note_on_c, 0, 72, 53
2, 10549, Note_on_c, 0, 72, 0
2, 10564, Note_on_c, 0, 63, 49
2, 10564, Note_on_c, 0, 75, 49
2, 10565, Note_on_c, 0, 72, 46
2, 10566, Note_on_c, 0, 70, 49
2, 10566, Control_c, 0, 64, 0
2, 10567, Note_on_c, 0, 58, 27
2, 10570, Note_on_c, 0, 48, 30
2, 10587, Control_c, 0, 64, 127
2, 10613, Note_on_c, 0, 75, 0
2, 10614, Note_on_c, 0, 72, 0
2, 10615, Note_on_c, 0, 70, 0
2, 10624, Note_on_c, 0, 63, 0
2, 10630, Note_on_c, 0, 58, 0
2, 10678, Note_on_c, 0, 54, 46
2, 10688, Control_c, 0, 64, 0
2, 10690, Note_on_c, 0, 54, 0
2, 10690, Note_on_c, 0, 56, 30
2, 10696, Note_on_c, 0, 58, 58
2, 10701, Note_on_c, 0, 56, 0
2, 10703, Note_on_c, 0, 58, 0
2, 10706, Note_on_c, 0, 54, 25
2, 10707, Note_on_c, 0, 60, 58
2, 10714, Note_on_c, 0, 60, 0
2, 10716, Note_on_c, 0, 61, 50
2, 10725, Note_on_c, 0, 61, 0
2, 10725, Note_on_c, 0, 48, 0
2, 10729, Note_on_c, 0, 63, 35
2, 10733, Note_on_c, 0, 63, 0
2, 10735, Note_on_c, 0, 54, 0
2, 10740, Note_on_c, 0, 65, 60
2, 10746, Note_on_c, 0, 65, 0
2, 10750, Note_on_c, 0, 66, 38
2, 10761, Note_on_c, 0, 66, 0
2, 10762, Note_on_c, 0, 68, 36
2, 10768, Note_on_c, 0, 68, 0
2, 10772, Note_on_c, 0, 70, 42
2, 10776, Note_on_c, 0, 70, 0
2, 10784, Note_on_c, 0, 72, 46
2, 10788, Note_on_c, 0, 72, 0
2, 10793, Note_on_c, 0, 73, 33
2, 10802, Note_on_c, 0, 73, 0
2, 10808, Note_on_c, 0, 75, 68
2, 10816, Note_on_c, 0, 75, 0
2, 10825, Note_on_c, 0, 77, 57
2, 10834, Note_on_c, 0, 77, 0
2, 10850, Note_on_c, 0, 73, 57
2, 10858, Note_on_c, 0, 73, 0
2, 10871, Note_on_c, 0, 72, 68
2, 10879, Note_on_c, 0, 72, 0
2, 10891, Note_on_c, 0, 70, 58
2, 10900, Note_on_c, 0, 70, 0
2, 10916, Note_on_c, 0, 69, 65
2, 10917, Note_on_c, 0, 66, 27
2, 10918, Note_on_c, 0, 63, 31
2, 10918, Note_on_c, 0, 61, 37
2, 10921, Note_on_c, 0, 57, 38
2, 10939, Note_on_c, 0, 69, 0
2, 10944, Note_on_c, 0, 72, 59
2, 10949, Control_c, 0, 64, 127
2, 10963, Note_on_c, 0, 72, 0
2, 10967, Note_on_c, 0, 66, 0
2, 10971, Note_on_c, 0, 70, 69
2, 10972, Note_on_c, 0, 57, 0
2, 10978, Note_on_c, 0, 63, 0
2, 10985, Note_on_c, 0, 70, 0
2, 10986, Note_on_c, 0, 61, 0
2, 10999, Note_on_c, 0, 69, 62
2, 11017, Note_on_c, 0, 69, 0
2, 11028, Note_on_c, 0, 65, 47
2, 11028, Note_on_c, 0, 70, 63
2, 11028, Note_on_c, 0, 61, 29
2, 11029, Control_c, 0, 64, 0
2, 11031, Note_on_c, 0, 60, 33
2, 11032, Note_on_c, 0, 56, 19
2, 11049, Control_c, 0, 64, 127
2, 11072, Note_on_c, 0, 65, 0
2, 11076, Note_on_c, 0, 70, 0
2, 11081, Note_on_c, 0, 60, 0
2, 11082, Note_on_c, 0, 61, 0
2, 11093, Note_on_c, 0, 56, 0
2, 11160, Note_on_c, 0, 73, 59
2, 11160, Note_on_c, 0, 61, 78
2, 11160, Note_on_c, 0, 57, 78
2, 11161, Note_on_c, 0, 64, 83
2, 11161, Note_on_c, 0, 68, 71
2, 11164, Control_c, 0, 64, 0
2, 11182, Control_c, 0, 64, 127
2, 11190, Note_on_c, 0, 64, 0
2, 11195, Note_on_c, 0, 73, 0
2, 11195, Note_on_c, 0, 68, 0
2, 11203, Note_on_c, 0, 61, 0
2, 11209, Note_on_c, 0, 58, 74
2, 11210, Note_on_c, 0, 57, 0
2, 11211, Note_on_c, 0, 75, 75
2, 11213, Note_on_c, 0, 73, 43
2, 11231, Note_on_c, 0, 75, 0
2, 11234, Note_on_c, 0, 73, 0
2, 11244, Note_on_c, 0, 58, 0
2, 11271, Note_on_c, 0, 63, 76
2, 11271, Note_on_c, 0, 70, 72
2, 11271, Note_on_c, 0, 75, 75
2, 11271, Note_on_c, 0, 67, 76
2, 11271, Control_c, 0, 64, 0
2, 11272, Note_on_c, 0, 64, 74
2, 11288, Control_c, 0, 64, 127
2, 11314, Note_on_c, 0, 64, 0
2, 11317, Note_on_c, 0, 67, 0
2, 11318, Note_on_c, 0, 70, 0
2, 11322, Note_on_c, 0, 75, 0
2, 11331, Note_on_c, 0, 61, 57
2, 11331, Note_on_c, 0, 73, 51
2, 11332, Note_on_c, 0, 63, 0
2, 11332, Note_on_c, 0, 64, 70
2, 11345, Note_on_c, 0, 64, 0
2, 11358, Note_on_c, 0, 73, 0
2, 11359, Note_on_c, 0, 61, 0
2, 11451, Note_on_c, 0, 85, 83
2, 11451, Note_on_c, 0, 73, 67
2, 11452, Note_on_c, 0, 80, 71
2, 11452, Note_on_c, 0, 66, 60
2, 11452, Note_on_c, 0, 61, 56
2, 11453, Note_on_c, 0, 55, 66
2, 11460, Note_on_c, 0, 66, 0
2, 11463, Note_on_c, 0, 55, 0
2, 11466, Note_on_c, 0, 61, 0
2, 11484, Note_on_c, 0, 80, 0
2, 11485, Note_on_c, 0, 73, 0
2, 11486, Note_on_c, 0, 85, 0
2, 11508, Control_c, 0, 64, 0
2, 11509, Note_on_c, 0, 84, 57
2, 11509, Note_on_c, 0, 72, 51
2, 11509, Note_on_c, 0, 79, 48
2, 11510, Note_on_c, 0, 55, 58
2, 11511, Note_on_c, 0, 44, 39
2, 11526, Control_c, 0, 64, 127
2, 11527, Note_on_c, 0, 84, 0
2, 11531, Note_on_c, 0, 79, 0
2, 11540, Note_on_c, 0, 44, 0
2, 11546, Note_on_c, 0, 55, 0
2, 11548, Note_on_c, 0, 72, 0
2, 11695, Control_c, 0, 64, 0
2, 11696, Note_on_c, 0, 73, 59
2, 11698, Note_on_c, 0, 66, 75
2, 11698, Note_on_c, 0, 63, 76
2, 11698, Note_on_c, 0, 70, 71
2, 11698, Note_on_c, 0, 51, 58
2, 11699, Note_on_c, 0, 61, 63
2, 11699, Note_on_c, 0, 58, 58
2, 11699, Note_on_c, 0, 54, 48
2, 11711, Control_c, 0, 64, 127
2, 11719, Note_on_c, 0, 58, 0
2, 11722, Note_on_c, 0, 61, 0
2, 11723, Note_on_c, 0, 51, 0
2, 11724, Note_on_c, 0, 54, 0
2, 11726, Note_on_c, 0, 63, 0
2, 11728, Note_on_c, 0, 66, 0
2, 11731, Note_on_c, 0, 73, 0
2, 11733, Note_on_c, 0, 70, 0
2, 11761, Note_on_c, 0, 75, 79
2, 11762, Note_on_c, 0, 72, 80
2, 11762, Note_on_c, 0, 68, 83
2, 11763, Note_on_c, 0, 60, 72
2, 11763, Note_on_c, 0, 53, 61
2, 11764, Note_on_c, 0, 49, 56
2, 11764, Note_on_c, 0, 56, 50
2, 11765, Note_on_c, 0, 65, 73
2, 11766, Control_c, 0, 64, 0
2, 11768, Note_on_c, 0, 65, 0
2, 11774, Note_on_c, 0, 65, 17
2, 11788, Control_c, 0, 64, 127
2, 11804, Note_on_c, 0, 75, 0
2, 11821, Note_on_c, 0, 75, 82
2, 11825, Note_on_c, 0, 73, 23
2, 11835, Note_on_c, 0, 65, 0
2, 11838, Note_on_c, 0, 60, 0
2, 11839, Note_on_c, 0, 72, 0
2, 11840, Note_on_c, 0, 68, 0
2, 11841, Note_on_c, 0, 56, 0
2, 11842, Note_on_c, 0, 73, 0
2, 11844, Note_on_c, 0, 53, 0
2, 11846, Note_on_c, 0, 75, 0
2, 11852, Note_on_c, 0, 49, 0
2, 11882, Note_on_c, 0, 77, 60
2, 11883, Note_on_c, 0, 48, 33
2, 11883, Note_on_c, 0, 58, 45
2, 11883, Control_c, 0, 64, 0
2, 11884, Note_on_c, 0, 70, 69
2, 11885, Note_on_c, 0, 67, 67
2, 11902, Control_c, 0, 64, 127
2, 11931, Note_on_c, 0, 67, 0
2, 11931, Note_on_c, 0, 58, 0
2, 11933, Note_on_c, 0, 48, 0
2, 11934, Note_on_c, 0, 70, 0
2, 11939, Note_on_c, 0, 77, 0
2, 11940, Note_on_c, 0, 55, 55
2, 11949, Note_on_c, 0, 55, 0
2, 11969, Note_on_c, 0, 72, 66
2, 11984, Note_on_c, 0, 72, 0
2, 11998, Note_on_c, 0, 79, 84
2, 11999, Note_on_c, 0, 68, 87
2, 11999, Note_on_c, 0, 72, 88
2, 12000, Note_on_c, 0, 75, 69
2, 12000, Note_on_c, 0, 67, 88
2, 12000, Control_c, 0, 64, 0
2, 12030, Control_c, 0, 64, 127
2, 12031, Note_on_c, 0, 66, 71
2, 12033, Note_on_c, 0, 67, 0
2, 12034, Note_on_c, 0, 68, 0
2, 12035, Note_on_c, 0, 75, 0
2, 12035, Note_on_c, 0, 72, 0
2, 12040, Note_on_c, 0, 79, 0
2, 12057, Note_on_c, 0, 66, 0
2, 12059, Note_on_c, 0, 68, 73
2, 12059, Note_on_c, 0, 72, 81
2, 12059, Control_c, 0, 64, 0
2, 12060, Note_on_c, 0, 77, 66
2, 12060, Note_on_c, 0, 65, 74
2, 12072, Note_on_c, 0, 65, 0
2, 12073, Control_c, 0, 64, 127
2, 12092, Note_on_c, 0, 75, 12
2, 12095, Note_on_c, 0, 72, 0
2, 12097, Note_on_c, 0, 77, 0
2, 12099, Note_on_c, 0, 75, 0
2, 12100, Note_on_c, 0, 68, 0
2, 12118, Note_on_c, 0, 80, 72
2, 12118, Note_on_c, 0, 70, 78
2, 12119, Note_on_c, 0, 77, 64
2, 12119, Note_on_c, 0, 73, 52
2, 12119, Note_on_c, 0, 46, 56
2, 12120, Note_on_c, 0, 56, 64
2, 12123, Control_c, 0, 64, 0
2, 12145, Control_c, 0, 64, 127
2, 12172, Note_on_c, 0, 56, 0
2, 12172, Note_on_c, 0, 53, 44
2, 12175, Note_on_c, 0, 46, 0
2, 12178, Note_on_c, 0, 53, 0
2, 12193, Note_on_c, 0, 70, 0
2, 12195, Note_on_c, 0, 77, 0
2, 12198, Note_on_c, 0, 73, 0
2, 12199, Note_on_c, 0, 80, 0
2, 12230, Note_on_c, 0, 82, 69
2, 12230, Note_on_c, 0, 61, 45
2, 12230, Note_on_c, 0, 73, 51
2, 12231, Note_on_c, 0, 78, 57
2, 12231, Note_on_c, 0, 51, 31
2, 12232, Note_on_c, 0, 54, 46
2, 12232, Note_on_c, 0, 58, 40
2, 12234, Control_c, 0, 64, 0
2, 12255, Control_c, 0, 64, 127
2, 12283, Note_on_c, 0, 82, 0
2, 12293, Note_on_c, 0, 51, 0
2, 12293, Note_on_c, 0, 54, 0
2, 12294, Note_on_c, 0, 58, 0
2, 12296, Note_on_c, 0, 82, 62
2, 12298, Note_on_c, 0, 61, 0
2, 12304, Note_on_c, 0, 78, 0
2, 12306, Note_on_c, 0, 73, 0
2, 12309, Note_on_c, 0, 82, 0
2, 12411, Control_c, 0, 64, 0
2, 12412, Note_on_c, 0, 84, 49
2, 12413, Note_on_c, 0, 76, 60
2, 12414, Note_on_c, 0, 72, 54
2, 12414, Note_on_c, 0, 65, 56
2, 12414, Note_on_c, 0, 81, 49
2, 12415, Note_on_c, 0, 80, 29
2, 12415, Note_on_c, 0, 83, 43
2, 12415, Note_on_c, 0, 60, 44
2, 12416, Note_on_c, 0, 54, 34
2, 12428, Control_c, 0, 64, 127
2, 12432, Note_on_c, 0, 81, 0
2, 12433, Note_on_c, 0, 84, 0
2, 12434, Note_on_c, 0, 65, 0
2, 12434, Note_on_c, 0, 83, 0
2, 12435, Note_on_c, 0, 76, 0
2, 12437, Note_on_c, 0, 80, 0
2, 12438, Note_on_c, 0, 60, 0
2, 12441, Note_on_c, 0, 72, 0
2, 12446, Note_on_c, 0, 54, 0
2, 12452, Note_on_c, 0, 78, 23
2, 12463, Note_on_c, 0, 78, 0
2, 12475, Note_on_c, 0, 68, 40
2, 12475, Note_on_c, 0, 63, 46
2, 12476, Note_on_c, 0, 75, 39
2, 12476, Note_on_c, 0, 80, 25
2, 12477, Control_c, 0, 64, 0
2, 12477, Note_on_c, 0, 77, 36
2, 12479, Note_on_c, 0, 58, 37
2, 12479, Note_on_c, 0, 53, 35
2, 12496, Control_c, 0, 64, 127
2, 12507, Note_on_c, 0, 75, 0
2, 12509, Note_on_c, 0, 77, 0
2, 12511, Note_on_c, 0, 80, 0
2, 12516, Note_on_c, 0, 68, 0
2, 12524, Note_on_c, 0, 63, 0
2, 12529, Note_on_c, 0, 58, 0
2, 12531, Note_on_c, 0, 53, 0
2, 12542, Note_on_c, 0, 77, 35
2, 12543, Note_on_c, 0, 63, 33
2, 12544, Note_on_c, 0, 65, 24
2, 12544, Note_on_c, 0, 72, 45
2, 12546, Note_on_c, 0, 53, 30
2, 12549, Note_on_c, 0, 58, 23
2, 12555, Note_on_c, 0, 65, 0
2, 12567, Note_on_c, 0, 72, 0
2, 12574, Note_on_c, 0, 53, 0
2, 12579, Note_on_c, 0, 63, 0
2, 12580, Note_on_c, 0, 58, 0
2, 12589, Note_on_c, 0, 77, 0
2, 12646, Note_on_c, 0, 63, 35
2, 12648, Note_on_c, 0, 53, 29
2, 12651, Note_on_c, 0, 58, 27
2, 12670, Note_on_c, 0, 53, 0
2, 12682, Note_on_c, 0, 63, 0
2, 12683, Note_on_c, 0, 58, 0
2, 12716, Note_on_c, 0, 65, 42
2, 12716, Note_on_c, 0, 54, 31
2, 12718, Note_on_c, 0, 60, 47
2, 12718, Control_c, 0, 64, 0
2, 12752, Note_on_c, 0, 96, 80
2, 12760, Note_on_c, 0, 96, 0
2, 12771, Note_on_c, 0, 101, 94
2, 12784, Note_on_c, 0, 101, 0
2, 12790, Note_on_c, 0, 99, 77
2, 12802, Note_on_c, 0, 99, 0
2, 12807, Note_on_c, 0, 96, 78
2, 12817, Note_on_c, 0, 96, 0
2, 12824, Note_on_c, 0, 90, 53
2, 12826, Note_on_c, 0, 65, 0
2, 12828, Note_on_c, 0, 60, 0
2, 12835, Note_on_c, 0, 90, 0
2, 12842, Note_on_c, 0, 89, 54
2, 12853, Note_on_c, 0, 89, 0
2, 12864, Note_on_c, 0, 87, 53
2, 12866, Note_on_c, 0, 65, 47
2, 12869, Note_on_c, 0, 60, 36
2, 12872, Note_on_c, 0, 87, 0
2, 12903, Note_on_c, 0, 89, 68
2, 12911, Control_c, 0, 64, 127
2, 12915, Note_on_c, 0, 65, 0
2, 12917, Note_on_c, 0, 89, 0
2, 12923, Note_on_c, 0, 60, 0
2, 12924, Control_c, 0, 64, 0
2, 12930, Note_on_c, 0, 87, 77
2, 12940, Note_on_c, 0, 54, 0
2, 12944, Note_on_c, 0, 87, 0
2, 12950, Note_on_c, 0, 85, 64
2, 12955, Control_c, 0, 64, 127
2, 12960, Note_on_c, 0, 85, 0
2, 12970, Control_c, 0, 64, 0
2, 12973, Note_on_c, 0, 83, 48
2, 12974, Note_on_c, 0, 63, 34
2, 12977, Note_on_c, 0, 59, 36
2, 12980, Note_on_c, 0, 53, 24
2, 12982, Note_on_c, 0, 56, 14
2, 12993, Note_on_c, 0, 83, 0
2, 13001, Note_on_c, 0, 80, 50
2, 13010, Note_on_c, 0, 80, 0
2, 13029, Note_on_c, 0, 80, 50
2, 13041, Note_on_c, 0, 80, 0
2, 13049, Note_on_c, 0, 63, 0
2, 13054, Note_on_c, 0, 59, 0
2, 13054, Control_c, 0, 64, 127
2, 13055, Note_on_c, 0, 80, 51
2, 13066, Note_on_c, 0, 80, 0
2, 13081, Note_on_c, 0, 80, 53
2, 13082, Note_on_c, 0, 63, 29
2, 13084, Note_on_c, 0, 59, 38
2, 13084, Control_c, 0, 64, 0
2, 13100, Note_on_c, 0, 80, 0
2, 13104, Note_on_c, 0, 82, 50
2, 13116, Note_on_c, 0, 80, 45
2, 13119, Note_on_c, 0, 82, 0
2, 13132, Note_on_c, 0, 80, 0
2, 13132, Note_on_c, 0, 79, 38
2, 13139, Note_on_c, 0, 79, 0
2, 13151, Note_on_c, 0, 59, 0
2, 13151, Note_on_c, 0, 80, 67
2, 13161, Note_on_c, 0, 80, 0
2, 13162, Note_on_c, 0, 53, 0
2, 13165, Note_on_c, 0, 82, 49
2, 13174, Note_on_c, 0, 63, 0
2, 13176, Control_c, 0, 64, 127
2, 13176, Note_on_c, 0, 80, 35
2, 13181, Note_on_c, 0, 82, 0
2, 13181, Note_on_c, 0, 56, 0
2, 13191, Note_on_c, 0, 80, 0
2, 13192, Note_on_c, 0, 79, 37
2, 13199, Control_c, 0, 64, 0
2, 13200, Note_on_c, 0, 79, 0
2, 13201, Note_on_c, 0, 63, 29
2, 13204, Note_on_c, 0, 58, 37
2, 13204, Note_on_c, 0, 52, 44
2, 13208, Note_on_c, 0, 80, 53
2, 13230, Note_on_c, 0, 80, 0
2, 13235, Note_on_c, 0, 79, 43
2, 13242, Control_c, 0, 64, 127
2, 13263, Note_on_c, 0, 79, 0
2, 13264, Note_on_c, 0, 76, 47
2, 13272, Note_on_c, 0, 63, 0
2, 13273, Note_on_c, 0, 58, 0
2, 13281, Note_on_c, 0, 76, 0
2, 13288, Note_on_c, 0, 73, 54
2, 13308, Note_on_c, 0, 73, 0
2, 13310, Control_c, 0, 64, 0
2, 13313, Note_on_c, 0, 63, 25
2, 13314, Note_on_c, 0, 58, 30
2, 13316, Note_on_c, 0, 72, 48
2, 13329, Note_on_c, 0, 72, 0
2, 13341, Note_on_c, 0, 70, 67
2, 13359, Note_on_c, 0, 70, 0
2, 13359, Note_on_c, 0, 63, 0
2, 13367, Note_on_c, 0, 68, 70
2, 13368, Control_c, 0, 64, 127
2, 13368, Note_on_c, 0, 63, 32
2, 13384, Note_on_c, 0, 68, 0
2, 13391, Note_on_c, 0, 52, 0
2, 13394, Note_on_c, 0, 58, 0
2, 13395, Note_on_c, 0, 67, 43
2, 13396, Note_on_c, 0, 63, 0
2, 13414, Note_on_c, 0, 67, 0
2, 13424, Control_c, 0, 64, 0
2, 13425, Note_on_c, 0, 68, 45
2, 13428, Note_on_c, 0, 60, 30
2, 13429, Note_on_c, 0, 56, 25
2, 13429, Note_on_c, 0, 53, 36
2, 13442, Control_c, 0, 64, 127
2, 13460, Note_on_c, 0, 68, 0
2, 13461, Note_on_c, 0, 53, 0
2, 13469, Note_on_c, 0, 60, 0
2, 13474, Note_on_c, 0, 56, 0
2, 13502, Note_on_c, 0, 67, 99
2, 13507, Note_on_c, 0, 61, 37
2, 13508, Control_c, 0, 64, 0
2, 13510, Note_on_c, 0, 61, 0
2, 13516, Control_c, 0, 64, 127
2, 13559, Note_on_c, 0, 72, 92
2, 13559, Note_on_c, 0, 68, 95
2, 13593, Note_on_c, 0, 67, 0
2, 13612, Note_on_c, 0, 68, 0
2, 13615, Note_on_c, 0, 72, 0
2, 13620, Note_on_c, 0, 68, 83
2, 13620, Note_on_c, 0, 74, 82
2, 13621, Note_on_c, 0, 65, 95
2, 13623, Control_c, 0, 64, 0
2, 13623, Note_on_c, 0, 72, 50
2, 13626, Note_on_c, 0, 72, 0
2, 13637, Control_c, 0, 64, 127
2, 13654, Note_on_c, 0, 74, 0
2, 13663, Note_on_c, 0, 68, 0
2, 13674, Note_on_c, 0, 65, 0
2, 13676, Note_on_c, 0, 76, 75
2, 13677, Note_on_c, 0, 72, 74
2, 13677, Note_on_c, 0, 64, 90
2, 13678, Note_on_c, 0, 68, 80
2, 13678, Note_on_c, 0, 65, 87
2, 13681, Control_c, 0, 64, 0
2, 13700, Control_c, 0, 64, 127
2, 13725, Note_on_c, 0, 64, 0
2, 13735, Note_on_c, 0, 64, 89
2, 13752, Note_on_c, 0, 72, 0
2, 13753, Note_on_c, 0, 76, 0
2, 13756, Note_on_c, 0, 68, 0
2, 13760, Note_on_c, 0, 65, 0
2, 13795, Note_on_c, 0, 77, 74
2, 13795, Note_on_c, 0, 63, 86
2, 13796, Note_on_c, 0, 68, 85
2, 13796, Note_on_c, 0, 72, 88
2, 13796, Control_c, 0, 64, 0
2, 13802, Note_on_c, 0, 64, 0
2, 13817, Control_c, 0, 64, 127
2, 13845, Note_on_c, 0, 63, 0
2, 13857, Note_on_c, 0, 63, 71
2, 13862, Note_on_c, 0, 77, 0
2, 13863, Note_on_c, 0, 68, 0
2, 13867, Note_on_c, 0, 63, 0
2, 13870, Note_on_c, 0, 72, 0
2, 13915, Note_on_c, 0, 79, 73
2, 13917, Note_on_c, 0, 72, 83
2, 13917, Control_c, 0, 64, 0
2, 13918, Note_on_c, 0, 68, 72
2, 13919, Note_on_c, 0, 60, 72
2, 13919, Note_on_c, 0, 50, 62
2, 13920, Note_on_c, 0, 75, 35
2, 13944, Control_c, 0, 64, 127
2, 13979, Note_on_c, 0, 56, 53
2, 13980, Note_on_c, 0, 72, 0
2, 13986, Note_on_c, 0, 60, 0
2, 13997, Note_on_c, 0, 68, 0
2, 14004, Note_on_c, 0, 75, 0
2, 14035, Note_on_c, 0, 68, 38
2, 14036, Note_on_c, 0, 60, 39
2, 14036, Note_on_c, 0, 72, 53
2, 14042, Note_on_c, 0, 79, 0
2, 14064, Note_on_c, 0, 50, 0
2, 14065, Note_on_c, 0, 72, 0
2, 14088, Note_on_c, 0, 68, 0
2, 14095, Note_on_c, 0, 60, 0
2, 14095, Note_on_c, 0, 50, 38
2, 14097, Note_on_c, 0, 80, 63
2, 14106, Note_on_c, 0, 50, 0
2, 14110, Note_on_c, 0, 80, 0
2, 14135, Note_on_c, 0, 56, 0
2, 14153, Control_c, 0, 64, 0
2, 14155, Note_on_c, 0, 82, 61
2, 14157, Note_on_c, 0, 75, 60
2, 14158, Note_on_c, 0, 71, 55
2, 14159, Note_on_c, 0, 49, 38
2, 14159, Note_on_c, 0, 59, 36
2, 14173, Control_c, 0, 64, 127
2, 14215, Note_on_c, 0, 59, 0
2, 14219, Note_on_c, 0, 71, 0
2, 14226, Note_on_c, 0, 49, 0
2, 14227, Note_on_c, 0, 75, 0
2, 14231, Note_on_c, 0, 82, 0
2, 14276, Note_on_c, 0, 75, 56
2, 14277, Note_on_c, 0, 84, 55
2, 14277, Note_on_c, 0, 80, 40
2, 14278, Control_c, 0, 64, 0
2, 14279, Note_on_c, 0, 56, 32
2, 14280, Note_on_c, 0, 48, 38
2, 14293, Control_c, 0, 64, 127
2, 14304, Note_on_c, 0, 84, 0
2, 14316, Note_on_c, 0, 80, 0
2, 14317, Note_on_c, 0, 75, 0
2, 14333, Note_on_c, 0, 48, 0
2, 14350, Note_on_c, 0, 56, 0
2, 14402, Note_on_c, 0, 74, 44
2, 14403, Note_on_c, 0, 62, 37
2, 14404, Note_on_c, 0, 66, 37
2, 14404, Control_c, 0, 64, 0
2, 14406, Note_on_c, 0, 57, 33
2, 14407, Note_on_c, 0, 47, 40
2, 14421, Control_c, 0, 64, 127
2, 14447, Note_on_c, 0, 62, 0
2, 14455, Note_on_c, 0, 74, 0
2, 14463, Note_on_c, 0, 66, 0
2, 14468, Note_on_c, 0, 57, 0
2, 14521, Note_on_c, 0, 57, 27
2, 14530, Control_c, 0, 64, 0
2, 14535, Note_on_c, 0, 62, 50
2, 14546, Note_on_c, 0, 62, 0
2, 14547, Note_on_c, 0, 64, 58
2, 14557, Note_on_c, 0, 47, 0
2, 14559, Note_on_c, 0, 64, 0
2, 14559, Note_on_c, 0, 66, 53
2, 14567, Note_on_c, 0, 57, 0
2, 14570, Note_on_c, 0, 66, 0
2, 14572, Note_on_c, 0, 68, 56
2, 14578, Note_on_c, 0, 68, 0
2, 14585, Note_on_c, 0, 69, 62
2, 14589, Note_on_c, 0, 69, 0
2, 14598, Note_on_c, 0, 71, 60
2, 14605, Note_on_c, 0, 71, 0
2, 14614, Note_on_c, 0, 73, 43
2, 14621, Note_on_c, 0, 73, 0
2, 14628, Note_on_c, 0, 74, 62
2, 14638, Note_on_c, 0, 74, 0
2, 14643, Note_on_c, 0, 75, 62
2, 14651, Note_on_c, 0, 62, 26
2, 14652, Note_on_c, 0, 67, 34
2, 14653, Note_on_c, 0, 56, 25
2, 14654, Note_on_c, 0, 75, 0
2, 14660, Note_on_c, 0, 76, 40
2, 14682, Note_on_c, 0, 76, 0
2, 14685, Note_on_c, 0, 67, 0
2, 14689, Note_on_c, 0, 62, 0
2, 14695, Note_on_c, 0, 56, 0
2, 14768, Note_on_c, 0, 67, 31
2, 14769, Note_on_c, 0, 62, 34
2, 14771, Note_on_c, 0, 56, 21
2, 14779, Note_on_c, 0, 67, 0
2, 14781, Note_on_c, 0, 62, 0
2, 14789, Note_on_c, 0, 56, 0
2, 14803, Note_on_c, 0, 84, 58
2, 14811, Note_on_c, 0, 84, 0
2, 14811, Note_on_c, 0, 85, 71
2, 14821, Note_on_c, 0, 84, 54
2, 14824, Note_on_c, 0, 85, 0
2, 14834, Note_on_c, 0, 84, 0
2, 14837, Note_on_c, 0, 82, 34
2, 14841, Note_on_c, 0, 82, 0
2, 14856, Note_on_c, 0, 84, 68
2, 14865, Note_on_c, 0, 84, 0
2, 14875, Note_on_c, 0, 85, 77
2, 14884, Note_on_c, 0, 85, 0
2, 14898, Note_on_c, 0, 87, 63
2, 14903, Note_on_c, 0, 87, 0
2, 14942, Note_on_c, 0, 68, 71
2, 14943, Note_on_c, 0, 75, 64
2, 14943, Note_on_c, 0, 72, 73
2, 14945, Note_on_c, 0, 65, 59
2, 14945, Note_on_c, 0, 63, 43
2, 14945, Note_on_c, 0, 61, 47
2, 14948, Note_on_c, 0, 68, 0
2, 14949, Note_on_c, 0, 65, 0
2, 14950, Note_on_c, 0, 72, 0
2, 14951, Note_on_c, 0, 75, 0
2, 14952, Note_on_c, 0, 63, 0
2, 14955, Note_on_c, 0, 61, 0
2, 14976, Note_on_c, 0, 75, 82
2, 14976, Note_on_c, 0, 68, 78
2, 14977, Note_on_c, 0, 72, 68
2, 14978, Note_on_c, 0, 61, 56
2, 14978, Note_on_c, 0, 65, 70
2, 14979, Note_on_c, 0, 63, 49
2, 14980, Note_on_c, 0, 68, 0
2, 14981, Note_on_c, 0, 72, 0
2, 14982, Note_on_c, 0, 65, 0
2, 14983, Note_on_c, 0, 75, 0
2, 14984, Note_on_c, 0, 63, 0
2, 14985, Note_on_c, 0, 61, 0
2, 15010, Note_on_c, 0, 61, 64
2, 15010, Note_on_c, 0, 75, 75
2, 15011, Note_on_c, 0, 68, 71
2, 15011, Note_on_c, 0, 72, 75
2, 15011, Note_on_c, 0, 63, 53
2, 15012, Note_on_c, 0, 65, 66
2, 15014, Note_on_c, 0, 72, 0
2, 15014, Note_on_c, 0, 68, 0
2, 15015, Note_on_c, 0, 63, 0
2, 15015, Note_on_c, 0, 65, 0
2, 15017, Note_on_c, 0, 61, 0
2, 15018, Note_on_c, 0, 75, 0
2, 15044, Note_on_c, 0, 68, 71
2, 15044, Note_on_c, 0, 75, 60
2, 15044, Note_on_c, 0, 72, 71
2, 15045, Note_on_c, 0, 65, 64
2, 15045, Note_on_c, 0, 61, 50
2, 15045, Note_on_c, 0, 63, 45
2, 15048, Note_on_c, 0, 72, 0
2, 15049, Note_on_c, 0, 65, 0
2, 15049, Note_on_c, 0, 75, 0
2, 15050, Note_on_c, 0, 68, 0
2, 15050, Note_on_c, 0, 61, 0
2, 15052, Note_on_c, 0, 63, 0
2, 15078, Note_on_c, 0, 68, 64
2, 15079, Note_on_c, 0, 72, 66
2, 15079, Note_on_c, 0, 75, 51
2, 15079, Note_on_c, 0, 63, 52
2, 15080, Note_on_c, 0, 61, 42
2, 15082, Note_on_c, 0, 72, 0
2, 15083, Note_on_c, 0, 68, 0
2, 15083, Note_on_c, 0, 75, 0
2, 15084, Note_on_c, 0, 61, 0
2, 15087, Note_on_c, 0, 63, 0
2, 15109, Note_on_c, 0, 61, 52
2, 15111, Note_on_c, 0, 68, 67
2, 15112, Note_on_c, 0, 72, 49
2, 15113, Note_on_c, 0, 75, 34
2, 15116, Note_on_c, 0, 72, 0
2, 15116, Note_on_c, 0, 61, 0
2, 15117, Note_on_c, 0, 75, 0
2, 15118, Note_on_c, 0, 68, 0
2, 15141, Note_on_c, 0, 67, 50
2, 15141, Note_on_c, 0, 61, 29
2, 15141, Note_on_c, 0, 75, 45
2, 15141, Note_on_c, 0, 55, 35
2, 15142, Note_on_c, 0, 64, 36
2, 15142, Note_on_c, 0, 71, 41
2, 15149, Note_on_c, 0, 67, 0
2, 15151, Note_on_c, 0, 64, 0
2, 15151, Note_on_c, 0, 71, 0
2, 15153, Note_on_c, 0, 75, 0
2, 15154, Note_on_c, 0, 55, 0
2, 15155, Note_on_c, 0, 61, 0
2, 15164, Control_c, 0, 64, 127
2, 15177, Note_on_c, 0, 75, 43
2, 15177, Note_on_c, 0, 71, 36
2, 15177, Note_on_c, 0, 61, 32
2, 15178, Note_on_c, 0, 67, 36
2, 15178, Note_on_c, 0, 64, 36
2, 15178, Note_on_c, 0, 55, 37
2, 15216, Note_on_c, 0, 61, 0
2, 15217, Note_on_c, 0, 64, 0
2, 15227, Note_on_c, 0, 67, 0
2, 15228, Note_on_c, 0, 71, 0
2, 15232, Note_on_c, 0, 75, 0
2, 15251, Note_on_c, 0, 75, 37
2, 15251, Note_on_c, 0, 64, 35
2, 15253, Note_on_c, 0, 61, 28
2, 15253, Note_on_c, 0, 67, 37
2, 15253, Note_on_c, 0, 71, 32
2, 15261, Note_on_c, 0, 64, 0
2, 15266, Note_on_c, 0, 61, 0
2, 15273, Note_on_c, 0, 55, 0
2, 15273, Note_on_c, 0, 71, 0
2, 15274, Note_on_c, 0, 75, 0
2, 15280, Note_on_c, 0, 67, 0
2, 15362, Note_on_c, 0, 67, 91
2, 15364, Note_on_c, 0, 60, 91
2, 15364, Note_on_c, 0, 62, 76
2, 15365, Note_on_c, 0, 56, 86
2, 15367, Control_c, 0, 64, 0
2, 15379, Note_on_c, 0, 56, 0
2, 15386, Note_on_c, 0, 56, 31
2, 15388, Note_on_c, 0, 60, 0
2, 15389, Note_on_c, 0, 67, 0
2, 15389, Control_c, 0, 64, 127
2, 15391, Note_on_c, 0, 62, 0
2, 15398, Note_on_c, 0, 56, 0
2, 15399, Note_on_c, 0, 60, 61
2, 15400, Note_on_c, 0, 67, 30
2, 15401, Note_on_c, 0, 62, 40
2, 15408, Note_on_c, 0, 56, 46
2, 15409, Note_on_c, 0, 67, 0
2, 15411, Note_on_c, 0, 60, 0
2, 15413, Note_on_c, 0, 62, 0
2, 15420, Note_on_c, 0, 56, 0
2, 15421, Note_on_c, 0, 60, 64
2, 15422, Note_on_c, 0, 62, 27
2, 15432, Note_on_c, 0, 56, 39
2, 15433, Note_on_c, 0, 60, 0
2, 15434, Note_on_c, 0, 62, 0
2, 15443, Note_on_c, 0, 56, 0
2, 15443, Note_on_c, 0, 60, 50
2, 15445, Note_on_c, 0, 67, 27
2, 15445, Note_on_c, 0, 62, 41
2, 15454, Note_on_c, 0, 56, 55
2, 15455, Note_on_c, 0, 67, 0
2, 15456, Note_on_c, 0, 60, 0
2, 15457, Note_on_c, 0, 62, 0
2, 15465, Note_on_c, 0, 60, 66
2, 15466, Note_on_c, 0, 56, 0
2, 15466, Note_on_c, 0, 55, 105
2, 15467, Note_on_c, 0, 67, 38
2, 15468, Note_on_c, 0, 62, 53
2, 15476, Note_on_c, 0, 56, 63
2, 15477, Note_on_c, 0, 67, 0
2, 15479, Note_on_c, 0, 62, 0
2, 15479, Note_on_c, 0, 60, 0
2, 15487, Note_on_c, 0, 56, 0
2, 15489, Note_on_c, 0, 60, 64
2, 15489, Note_on_c, 0, 62, 51
2, 15489, Note_on_c, 0, 67, 29
2, 15494, Note_on_c, 0, 67, 0
2, 15497, Note_on_c, 0, 56, 60
2, 15499, Note_on_c, 0, 62, 0
2, 15500, Note_on_c, 0, 60, 0
2, 15508, Note_on_c, 0, 56, 0
2, 15509, Note_on_c, 0, 62, 40
2, 15510, Note_on_c, 0, 67, 28
2, 15510, Note_on_c, 0, 60, 60
2, 15518, Note_on_c, 0, 67, 0
2, 15519, Note_on_c, 0, 56, 57
2, 15520, Note_on_c, 0, 62, 0
2, 15523, Note_on_c, 0, 60, 0
2, 15529, Note_on_c, 0, 67, 34
2, 15530, Note_on_c, 0, 56, 0
2, 15531, Note_on_c, 0, 62, 51
2, 15531, Note_on_c, 0, 60, 56
2, 15535, Note_on_c, 0, 55, 0
2, 15536, Note_on_c, 0, 52, 91
2, 15538, Note_on_c, 0, 67, 0
2, 15540, Note_on_c, 0, 56, 56
2, 15540, Control_c, 0, 64, 0
2, 15543, Note_on_c, 0, 60, 0
2, 15543, Note_on_c, 0, 62, 0
2, 15551, Note_on_c, 0, 56, 0
2, 15552, Note_on_c, 0, 60, 54
2, 15553, Note_on_c, 0, 62, 48
2, 15560, Note_on_c, 0, 62, 0
2, 15560, Note_on_c, 0, 56, 51
2, 15564, Note_on_c, 0, 60, 0
2, 15565, Control_c, 0, 64, 127
2, 15570, Note_on_c, 0, 67, 20
2, 15571, Note_on_c, 0, 56, 0
2, 15574, Note_on_c, 0, 60, 46
2, 15574, Note_on_c, 0, 62, 36
2, 15575, Note_on_c, 0, 67, 0
2, 15580, Note_on_c, 0, 56, 51
2, 15581, Note_on_c, 0, 62, 0
2, 15584, Note_on_c, 0, 60, 0
2, 15592, Note_on_c, 0, 56, 0
2, 15596, Note_on_c, 0, 62, 31
2, 15596, Note_on_c, 0, 60, 42
2, 15601, Note_on_c, 0, 62, 0
2, 15602, Note_on_c, 0, 56, 51
2, 15605, Note_on_c, 0, 60, 0
2, 15614, Note_on_c, 0, 56, 0
2, 15615, Note_on_c, 0, 60, 50
2, 15616, Note_on_c, 0, 67, 24
2, 15622, Note_on_c, 0, 67, 0
2, 15626, Note_on_c, 0, 56, 46
2, 15627, Note_on_c, 0, 60, 0
2, 15638, Note_on_c, 0, 56, 0
2, 15638, Note_on_c, 0, 60, 44
2, 15640, Note_on_c, 0, 62, 19
2, 15646, Note_on_c, 0, 62, 0
2, 15648, Note_on_c, 0, 56, 46
2, 15649, Note_on_c, 0, 60, 0
2, 15658, Note_on_c, 0, 56, 0
2, 15660, Note_on_c, 0, 60, 49
2, 15661, Note_on_c, 0, 62, 22
2, 15669, Note_on_c, 0, 62, 0
2, 15669, Note_on_c, 0, 56, 48
2, 15671, Note_on_c, 0, 60, 0
2, 15679, Control_c, 0, 64, 0
2, 15680, Note_on_c, 0, 56, 0
2, 15681, Note_on_c, 0, 67, 25
2, 15682, Note_on_c, 0, 60, 50
2, 15682, Note_on_c, 0, 62, 33
2, 15686, Note_on_c, 0, 67, 0
2, 15689, Note_on_c, 0, 56, 51
2, 15690, Note_on_c, 0, 62, 0
2, 15692, Note_on_c, 0, 60, 0
2, 15700, Note_on_c, 0, 56, 0
2, 15701, Note_on_c, 0, 67, 31
2, 15702, Note_on_c, 0, 60, 40
2, 15703, Note_on_c, 0, 62, 28
2, 15706, Note_on_c, 0, 67, 0
2, 15710, Note_on_c, 0, 56, 46
2, 15713, Note_on_c, 0, 55, 72
2, 15715, Note_on_c, 0, 52, 0
2, 15718, Note_on_c, 0, 67, 25
2, 15734, Note_on_c, 0, 60, 0
2, 15735, Note_on_c, 0, 62, 0
2, 15737, Control_c, 0, 64, 127
2, 15740, Note_on_c, 0, 56, 0
2, 15757, Note_on_c, 0, 67, 0
2, 15760, Note_on_c, 0, 56, 23
2, 15770, Note_on_c, 0, 56, 0
2, 15771, Note_on_c, 0, 67, 14
2, 15780, Note_on_c, 0, 67, 0
2, 15781, Note_on_c, 0, 56, 48
2, 15786, Note_on_c, 0, 55, 0
2, 15800, Note_on_c, 0, 68, 60
2, 15817, Note_on_c, 0, 56, 0
2, 15821, Note_on_c, 0, 68, 0
2, 15838, Note_on_c, 0, 55, 48
2, 15840, Note_on_c, 0, 65, 49
2, 15841, Note_on_c, 0, 60, 34
2, 15841, Control_c, 0, 64, 0
2, 15842, Note_on_c, 0, 44, 37
2, 15858, Control_c, 0, 64, 127
2, 15864, Note_on_c, 0, 55, 0
2, 15871, Note_on_c, 0, 44, 0
2, 15872, Note_on_c, 0, 60, 0
2, 15877, Note_on_c, 0, 65, 0
2, 15902, Note_on_c, 0, 58, 35
2, 15915, Note_on_c, 0, 60, 44
2, 15922, Note_on_c, 0, 60, 0
2, 15926, Note_on_c, 0, 63, 49
2, 15931, Note_on_c, 0, 63, 0
2, 15940, Note_on_c, 0, 65, 68
2, 15941, Note_on_c, 0, 60, 22
2, 15950, Note_on_c, 0, 65, 0
2, 15950, Note_on_c, 0, 67, 54
2, 15960, Note_on_c, 0, 67, 0
2, 15962, Note_on_c, 0, 70, 64
2, 15964, Note_on_c, 0, 63, 9
2, 15967, Note_on_c, 0, 70, 0
2, 15973, Note_on_c, 0, 72, 69
2, 15974, Control_c, 0, 64, 0
2, 15980, Note_on_c, 0, 72, 0
2, 15984, Note_on_c, 0, 75, 53
2, 15987, Note_on_c, 0, 75, 0
2, 15995, Note_on_c, 0, 63, 0
2, 15995, Note_on_c, 0, 77, 51
2, 16005, Note_on_c, 0, 77, 0
2, 16005, Note_on_c, 0, 79, 38
2, 16010, Note_on_c, 0, 79, 0
2, 16016, Note_on_c, 0, 82, 57
2, 16023, Note_on_c, 0, 82, 0
2, 16027, Note_on_c, 0, 58, 0
2, 16030, Note_on_c, 0, 84, 54
2, 16036, Note_on_c, 0, 84, 0
2, 16036, Note_on_c, 0, 60, 0
2, 16040, Note_on_c, 0, 87, 46
2, 16044, Note_on_c, 0, 87, 0
2, 16066, Note_on_c, 0, 91, 65
2, 16075, Note_on_c, 0, 91, 0
2, 16122, Note_on_c, 0, 63, 30
2, 16123, Control_c, 0, 64, 127
2, 16126, Note_on_c, 0, 60, 34
2, 16128, Note_on_c, 0, 58, 17
2, 16153, Note_on_c, 0, 75, 59
2, 16154, Note_on_c, 0, 70, 65
2, 16166, Note_on_c, 0, 63, 0
2, 16172, Note_on_c, 0, 75, 0
2, 16172, Note_on_c, 0, 70, 0
2, 16174, Note_on_c, 0, 67, 46
2, 16174, Note_on_c, 0, 72, 50
2, 16182, Note_on_c, 0, 60, 0
2, 16185, Note_on_c, 0, 67, 0
2, 16189, Note_on_c, 0, 72, 0
2, 16194, Control_c, 0, 64, 0
2, 16196, Note_on_c, 0, 75, 57
2, 16197, Note_on_c, 0, 70, 61
2, 16198, Note_on_c, 0, 63, 33
2, 16199, Note_on_c, 0, 60, 36
2, 16210, Control_c, 0, 64, 127
2, 16212, Note_on_c, 0, 75, 0
2, 16215, Note_on_c, 0, 70, 0
2, 16217, Note_on_c, 0, 67, 46
2, 16220, Note_on_c, 0, 60, 0
2, 16220, Note_on_c, 0, 72, 51
2, 16223, Note_on_c, 0, 63, 0
2, 16229, Note_on_c, 0, 67, 0
2, 16233, Note_on_c, 0, 72, 0
2, 16239, Note_on_c, 0, 70, 64
2, 16240, Note_on_c, 0, 75, 67
2, 16243, Note_on_c, 0, 63, 32
2, 16244, Note_on_c, 0, 60, 34
2, 16254, Note_on_c, 0, 75, 0
2, 16258, Note_on_c, 0, 70, 0
2, 16259, Note_on_c, 0, 63, 0
2, 16260, Note_on_c, 0, 58, 0
2, 16261, Note_on_c, 0, 67, 54
2, 16261, Note_on_c, 0, 72, 61
2, 16263, Note_on_c, 0, 60, 0
2, 16273, Note_on_c, 0, 67, 0
2, 16275, Note_on_c, 0, 72, 0
2, 16276, Control_c, 0, 64, 0
2, 16282, Note_on_c, 0, 70, 69
2, 16282, Note_on_c, 0, 63, 35
2, 16282, Note_on_c, 0, 75, 71
2, 16285, Note_on_c, 0, 58, 36
2, 16287, Note_on_c, 0, 63, 0
2, 16289, Control_c, 0, 64, 127
2, 16293, Note_on_c, 0, 58, 0
2, 16297, Note_on_c, 0, 75, 0
2, 16299, Note_on_c, 0, 70, 0
2, 16302, Note_on_c, 0, 67, 54
2, 16303, Note_on_c, 0, 72, 56
2, 16309, Note_on_c, 0, 67, 0
2, 16311, Note_on_c, 0, 72, 0
2, 16324, Note_on_c, 0, 72, 65
2, 16324, Note_on_c, 0, 56, 39
2, 16324, Note_on_c, 0, 50, 43
2, 16324, Note_on_c, 0, 79, 68
2, 16324, Note_on_c, 0, 60, 48
2, 16325, Control_c, 0, 64, 0
2, 16340, Note_on_c, 0, 79, 0
2, 16340, Note_on_c, 0, 72, 0
2, 16343, Note_on_c, 0, 67, 64
2, 16346, Control_c, 0, 64, 127
2, 16346, Note_on_c, 0, 77, 38
2, 16355, Note_on_c, 0, 67, 0
2, 16357, Note_on_c, 0, 60, 0
2, 16360, Note_on_c, 0, 77, 0
2, 16364, Control_c, 0, 64, 0
2, 16367, Note_on_c, 0, 79, 68
2, 16368, Note_on_c, 0, 72, 69
2, 16369, Note_on_c, 0, 60, 35
2, 16378, Note_on_c, 0, 79, 0
2, 16380, Note_on_c, 0, 72, 0
2, 16385, Control_c, 0, 64, 127
2, 16385, Note_on_c, 0, 67, 38
2, 16385, Note_on_c, 0, 77, 30
2, 16387, Note_on_c, 0, 60, 0
2, 16392, Note_on_c, 0, 56, 0
2, 16398, Note_on_c, 0, 67, 0
2, 16402, Note_on_c, 0, 77, 0
2, 16410, Note_on_c, 0, 79, 67
2, 16410, Note_on_c, 0, 72, 68
2, 16412, Note_on_c, 0, 60, 36
2, 16413, Note_on_c, 0, 67, 42
2, 16416, Note_on_c, 0, 56, 19
2, 16422, Note_on_c, 0, 67, 0
2, 16422, Note_on_c, 0, 72, 0
2, 16423, Note_on_c, 0, 79, 0
2, 16430, Note_on_c, 0, 60, 0
2, 16431, Note_on_c, 0, 77, 38
2, 16434, Note_on_c, 0, 56, 0
2, 16443, Note_on_c, 0, 77, 0
2, 16451, Control_c, 0, 64, 0
2, 16452, Note_on_c, 0, 79, 58
2, 16454, Note_on_c, 0, 67, 44
2, 16454, Note_on_c, 0, 72, 47
2, 16455, Note_on_c, 0, 60, 31
2, 16457, Note_on_c, 0, 56, 28
2, 16461, Control_c, 0, 64, 127
2, 16464, Note_on_c, 0, 50, 0
2, 16467, Note_on_c, 0, 79, 0
2, 16467, Note_on_c, 0, 67, 0
2, 16468, Note_on_c, 0, 72, 0
2, 16472, Note_on_c, 0, 77, 55
2, 16487, Note_on_c, 0, 77, 0
2, 16496, Note_on_c, 0, 79, 73
2, 16498, Note_on_c, 0, 50, 31
2, 16498, Note_on_c, 0, 75, 60
2, 16499, Note_on_c, 0, 70, 39
2, 16503, Note_on_c, 0, 50, 0
2, 16504, Note_on_c, 0, 60, 0
2, 16507, Note_on_c, 0, 75, 0
2, 16513, Note_on_c, 0, 79, 0
2, 16513, Note_on_c, 0, 70, 0
2, 16518, Note_on_c, 0, 77, 46
2, 16528, Note_on_c, 0, 56, 0
2, 16533, Note_on_c, 0, 77, 0
2, 16533, Control_c, 0, 64, 0
2, 16538, Note_on_c, 0, 79, 73
2, 16539, Note_on_c, 0, 70, 74
2, 16540, Note_on_c, 0, 59, 48
2, 16541, Note_on_c, 0, 75, 42
2, 16541, Note_on_c, 0, 49, 37
2, 16541, Note_on_c, 0, 53, 46
2, 16544, Note_on_c, 0, 75, 0
2, 16550, Control_c, 0, 64, 127
2, 16556, Note_on_c, 0, 53, 0
2, 16558, Note_on_c, 0, 70, 0
2, 16558, Note_on_c, 0, 49, 0
2, 16561, Note_on_c, 0, 75, 69
2, 16562, Note_on_c, 0, 79, 0
2, 16564, Note_on_c, 0, 59, 0
2, 16572, Note_on_c, 0, 75, 0
2, 16585, Note_on_c, 0, 82, 82
2, 16585, Note_on_c, 0, 75, 82
2, 16586, Note_on_c, 0, 53, 45
2, 16586, Note_on_c, 0, 63, 46
2, 16587, Note_on_c, 0, 59, 57
2, 16588, Control_c, 0, 64, 0
2, 16602, Note_on_c, 0, 75, 0
2, 16605, Note_on_c, 0, 82, 0
2, 16606, Control_c, 0, 64, 127
2, 16607, Note_on_c, 0, 79, 41
2, 16608, Note_on_c, 0, 71, 40
2, 16620, Note_on_c, 0, 71, 0
2, 16623, Note_on_c, 0, 79, 0
2, 16626, Note_on_c, 0, 63, 0
2, 16627, Control_c, 0, 64, 0
2, 16629, Note_on_c, 0, 82, 48
2, 16630, Note_on_c, 0, 75, 60
2, 16643, Note_on_c, 0, 75, 0
2, 16644, Control_c, 0, 64, 127
2, 16645, Note_on_c, 0, 82, 0
2, 16651, Note_on_c, 0, 79, 35
2, 16652, Note_on_c, 0, 71, 24
2, 16654, Note_on_c, 0, 59, 0
2, 16660, Note_on_c, 0, 71, 0
2, 16664, Note_on_c, 0, 79, 0
2, 16670, Note_on_c, 0, 82, 59
2, 16671, Note_on_c, 0, 75, 59
2, 16673, Note_on_c, 0, 63, 33
2, 16674, Note_on_c, 0, 71, 32
2, 16679, Note_on_c, 0, 59, 22
2, 16691, Note_on_c, 0, 82, 0
2, 16693, Note_on_c, 0, 53, 0
2, 16694, Note_on_c, 0, 75, 0
2, 16699, Note_on_c, 0, 71, 0
2, 16703, Note_on_c, 0, 63, 0
2, 16706, Note_on_c, 0, 59, 0
2, 16737, Note_on_c, 0, 79, 65
2, 16738, Note_on_c, 0, 75, 73
2, 16738, Note_on_c, 0, 67, 65
2, 16740, Note_on_c, 0, 63, 50
2, 16742, Note_on_c, 0, 59, 55
2, 16742, Note_on_c, 0, 53, 36
2, 16743, Control_c, 0, 64, 0
2, 16748, Control_c, 0, 64, 127
2, 16755, Note_on_c, 0, 53, 0
2, 16755, Note_on_c, 0, 67, 0
2, 16755, Note_on_c, 0, 63, 0
2, 16756, Note_on_c, 0, 79, 0
2, 16759, Note_on_c, 0, 75, 0
2, 16760, Note_on_c, 0, 59, 0
2, 16766, Note_on_c, 0, 75, 71
2, 16766, Note_on_c, 0, 79, 38
2, 16767, Note_on_c, 0, 67, 60
2, 16768, Note_on_c, 0, 63, 46
2, 16769, Note_on_c, 0, 59, 55
2, 16770, Note_on_c, 0, 77, 28
2, 16771, Note_on_c, 0, 53, 34
2, 16773, Note_on_c, 0, 59, 0
2, 16774, Note_on_c, 0, 67, 0
2, 16774, Note_on_c, 0, 79, 0
2, 16776, Note_on_c, 0, 63, 0
2, 16776, Note_on_c, 0, 77, 0
2, 16778, Note_on_c, 0, 53, 0
2, 16782, Note_on_c, 0, 75, 0
2, 16790, Note_on_c, 0, 80, 59
2, 16791, Note_on_c, 0, 70, 53
2, 16796, Note_on_c, 0, 70, 0
2, 16797, Note_on_c, 0, 80, 0
2, 16813, Note_on_c, 0, 77, 62
2, 16813, Note_on_c, 0, 58, 47
2, 16813, Note_on_c, 0, 65, 66
2, 16814, Control_c, 0, 64, 0
2, 16814, Note_on_c, 0, 48, 43
2, 16832, Control_c, 0, 64, 127
2, 16852, Note_on_c, 0, 58, 0
2, 16853, Note_on_c, 0, 54, 39
2, 16858, Note_on_c, 0, 48, 0
2, 16865, Note_on_c, 0, 54, 0
2, 16875, Note_on_c, 0, 65, 0
2, 16913, Note_on_c, 0, 70, 48
2, 16914, Note_on_c, 0, 65, 51
2, 16915, Note_on_c, 0, 58, 36
2, 16916, Note_on_c, 0, 60, 28
2, 16957, Note_on_c, 0, 70, 0
2, 16959, Note_on_c, 0, 65, 0
2, 16966, Note_on_c, 0, 60, 0
2, 16977, Note_on_c, 0, 58, 0
2, 16985, Note_on_c, 0, 77, 0
2, 17030, Note_on_c, 0, 67, 71
2, 17031, Note_on_c, 0, 56, 61
2, 17032, Note_on_c, 0, 60, 71
2, 17032, Note_on_c, 0, 55, 65
2, 17033, Note_on_c, 0, 63, 44
2, 17036, Control_c, 0, 64, 0
2, 17045, Note_on_c, 0, 60, 0
2, 17045, Note_on_c, 0, 67, 0
2, 17047, Note_on_c, 0, 56, 0
2, 17049, Note_on_c, 0, 63, 0
2, 17056, Note_on_c, 0, 55, 0
2, 17064, Note_on_c, 0, 54, 35
2, 17080, Note_on_c, 0, 54, 0
2, 17089, Note_on_c, 0, 56, 30
2, 17090, Note_on_c, 0, 60, 54
2, 17090, Note_on_c, 0, 53, 37
2, 17090, Note_on_c, 0, 65, 48
2, 17091, Note_on_c, 0, 63, 33
2, 17104, Control_c, 0, 64, 127
2, 17114, Note_on_c, 0, 65, 0
2, 17115, Note_on_c, 0, 60, 0
2, 17115, Note_on_c, 0, 63, 0
2, 17119, Note_on_c, 0, 53, 0
2, 17122, Note_on_c, 0, 56, 0
2, 17149, Note_on_c, 0, 56, 37
2, 17149, Note_on_c, 0, 60, 50
2, 17151, Note_on_c, 0, 53, 27
2, 17153, Control_c, 0, 64, 0
2, 17155, Note_on_c, 0, 48, 16
2, 17168, Control_c, 0, 64, 127
2, 17171, Note_on_c, 0, 53, 0
2, 17178, Note_on_c, 0, 60, 0
2, 17183, Note_on_c, 0, 56, 0
2, 17208, Note_on_c, 0, 48, 0
2, 17282, Note_on_c, 0, 61, 29
2, 17283, Note_on_c, 0, 87, 60
2, 17284, Note_on_c, 0, 51, 31
2, 17285, Note_on_c, 0, 58, 35
2, 17285, Note_on_c, 0, 75, 29
2, 17285, Note_on_c, 0, 54, 34
2, 17289, Control_c, 0, 64, 0
2, 17309, Control_c, 0, 64, 127
2, 17323, Note_on_c, 0, 87, 0
2, 17326, Note_on_c, 0, 75, 0
2, 17331, Note_on_c, 0, 58, 0
2, 17332, Note_on_c, 0, 51, 0
2, 17332, Note_on_c, 0, 54, 0
2, 17336, Note_on_c, 0, 61, 0
2, 17343, Note_on_c, 0, 87, 67
2, 17360, Note_on_c, 0, 87, 0
2, 17403, Note_on_c, 0, 65, 81
2, 17404, Note_on_c, 0, 58, 62
2, 17404, Note_on_c, 0, 61, 53
2, 17404, Note_on_c, 0, 54, 61
2, 17404, Note_on_c, 0, 87, 82
2, 17405, Control_c, 0, 64, 0
2, 17406, Note_on_c, 0, 82, 78
2, 17406, Note_on_c, 0, 75, 74
2, 17414, Control_c, 0, 64, 127
2, 17431, Note_on_c, 0, 75, 0
2, 17431, Note_on_c, 0, 54, 0
2, 17433, Note_on_c, 0, 65, 0
2, 17433, Note_on_c, 0, 82, 0
2, 17435, Note_on_c, 0, 87, 0
2, 17436, Note_on_c, 0, 61, 0
2, 17436, Note_on_c, 0, 58, 0
2, 17446, Note_on_c, 0, 58, 71
2, 17446, Note_on_c, 0, 65, 83
2, 17447, Note_on_c, 0, 54, 73
2, 17447, Note_on_c, 0, 61, 59
2, 17448, Note_on_c, 0, 82, 80
2, 17448, Note_on_c, 0, 89, 74
2, 17449, Note_on_c, 0, 77, 69
2, 17450, Note_on_c, 0, 88, 50
2, 17452, Control_c, 0, 64, 0
2, 17454, Note_on_c, 0, 88, 0
2, 17462, Note_on_c, 0, 89, 0
2, 17466, Note_on_c, 0, 77, 0
2, 17468, Note_on_c, 0, 54, 0
2, 17468, Note_on_c, 0, 82, 0
2, 17469, Note_on_c, 0, 65, 0
2, 17470, Note_on_c, 0, 58, 0
2, 17472, Note_on_c, 0, 61, 0
2, 17484, Note_on_c, 0, 87, 69
2, 17485, Note_on_c, 0, 75, 69
2, 17485, Note_on_c, 0, 65, 75
2, 17485, Note_on_c, 0, 61, 53
2, 17486, Note_on_c, 0, 58, 64
2, 17487, Control_c, 0, 64, 127
2, 17487, Note_on_c, 0, 82, 53
2, 17487, Note_on_c, 0, 54, 47
2, 17490, Note_on_c, 0, 82, 0
2, 17492, Note_on_c, 0, 75, 0
2, 17495, Note_on_c, 0, 87, 0
2, 17496, Note_on_c, 0, 65, 0
2, 17498, Note_on_c, 0, 54, 0
2, 17503, Note_on_c, 0, 61, 0
2, 17511, Note_on_c, 0, 58, 0
2, 17523, Note_on_c, 0, 65, 72
2, 17523, Note_on_c, 0, 89, 75
2, 17524, Note_on_c, 0, 60, 65
2, 17524, Note_on_c, 0, 82, 64
2, 17524, Note_on_c, 0, 54, 64
2, 17524, Note_on_c, 0, 77, 60
2, 17525, Control_c, 0, 64, 0
2, 17525, Note_on_c, 0, 86, 53
2, 17544, Control_c, 0, 64, 127
2, 17598, Note_on_c, 0, 89, 0
2, 17598, Note_on_c, 0, 65, 0
2, 17601, Note_on_c, 0, 86, 0
2, 17603, Note_on_c, 0, 60, 0
2, 17605, Note_on_c, 0, 77, 0
2, 17607, Note_on_c, 0, 54, 0
2, 17617, Note_on_c, 0, 82, 0
2, 17644, Note_on_c, 0, 87, 56
2, 17644, Note_on_c, 0, 64, 46
2, 17645, Note_on_c, 0, 60, 42
2, 17645, Note_on_c, 0, 54, 43
2, 17645, Note_on_c, 0, 82, 47
2, 17646, Note_on_c, 0, 75, 31
2, 17647, Control_c, 0, 64, 0
2, 17662, Control_c, 0, 64, 127
2, 17679, Note_on_c, 0, 87, 0
2, 17682, Note_on_c, 0, 82, 0
2, 17687, Note_on_c, 0, 64, 0
2, 17687, Note_on_c, 0, 75, 0
2, 17696, Note_on_c, 0, 60, 0
2, 17707, Note_on_c, 0, 54, 0
2, 17760, Note_on_c, 0, 59, 46
2, 17761, Note_on_c, 0, 64, 54
2, 17764, Note_on_c, 0, 49, 35
2, 17764, Control_c, 0, 64, 0
2, 17787, Control_c, 0, 64, 127
2, 17833, Note_on_c, 0, 59, 0
2, 17834, Note_on_c, 0, 56, 25
2, 17838, Note_on_c, 0, 64, 0
2, 17861, Note_on_c, 0, 49, 0
2, 17870, Note_on_c, 0, 75, 80
2, 17872, Note_on_c, 0, 56, 0
2, 17885, Note_on_c, 0, 75, 0
2, 17914, Note_on_c, 0, 75, 82
2, 17915, Note_on_c, 0, 64, 79
2, 17916, Note_on_c, 0, 68, 50
2, 17917, Note_on_c, 0, 71, 46
2, 17940, Note_on_c, 0, 71, 0
2, 17940, Note_on_c, 0, 64, 0
2, 17944, Note_on_c, 0, 75, 0
2, 17945, Note_on_c, 0, 68, 0
2, 17950, Note_on_c, 0, 73, 59
2, 17954, Note_on_c, 0, 68, 30
2, 17959, Note_on_c, 0, 68, 0
2, 17978, Note_on_c, 0, 73, 0
2, 17994, Note_on_c, 0, 75, 76
2, 17995, Note_on_c, 0, 68, 64
2, 17995, Note_on_c, 0, 70, 64
2, 17995, Note_on_c, 0, 64, 73
2, 17995, Control_c, 0, 64, 0
2, 17996, Note_on_c, 0, 63, 69
2, 18017, Control_c, 0, 64, 127
2, 18030, Note_on_c, 0, 75, 0
2, 18031, Note_on_c, 0, 64, 0
2, 18032, Note_on_c, 0, 63, 0
2, 18034, Note_on_c, 0, 68, 0
2, 18035, Note_on_c, 0, 70, 0
2, 18040, Note_on_c, 0, 75, 70
2, 18040, Note_on_c, 0, 68, 64
2, 18041, Note_on_c, 0, 63, 63
2, 18041, Note_on_c, 0, 64, 68
2, 18041, Note_on_c, 0, 70, 74
2, 18068, Note_on_c, 0, 64, 0
2, 18072, Note_on_c, 0, 68, 0
2, 18072, Note_on_c, 0, 75, 0
2, 18072, Note_on_c, 0, 70, 0
2, 18077, Note_on_c, 0, 61, 77
2, 18077, Note_on_c, 0, 73, 54
2, 18078, Note_on_c, 0, 63, 0
2, 18078, Note_on_c, 0, 64, 71
2, 18078, Note_on_c, 0, 68, 56
2, 18079, Note_on_c, 0, 70, 60
2, 18092, Note_on_c, 0, 70, 0
2, 18094, Note_on_c, 0, 64, 0
2, 18097, Note_on_c, 0, 68, 0
2, 18102, Note_on_c, 0, 73, 0
2, 18113, Control_c, 0, 64, 0
2, 18113, Note_on_c, 0, 75, 79
2, 18113, Note_on_c, 0, 68, 81
2, 18113, Note_on_c, 0, 70, 80
2, 18113, Note_on_c, 0, 63, 79
2, 18114, Note_on_c, 0, 64, 87
2, 18116, Note_on_c, 0, 73, 23
2, 18121, Note_on_c, 0, 61, 0
2, 18124, Note_on_c, 0, 64, 0
2, 18126, Control_c, 0, 64, 127
2, 18132, Note_on_c, 0, 68, 0
2, 18135, Note_on_c, 0, 73, 0
2, 18136, Note_on_c, 0, 75, 0
2, 18136, Note_on_c, 0, 70, 0
2, 18137, Note_on_c, 0, 63, 0
2, 18146, Note_on_c, 0, 65, 82
2, 18147, Control_c, 0, 64, 0
2, 18147, Note_on_c, 0, 77, 74
2, 18160, Note_on_c, 0, 77, 0
2, 18160, Note_on_c, 0, 65, 0
2, 18173, Control_c, 0, 64, 127
2, 18173, Note_on_c, 0, 63, 67
2, 18174, Note_on_c, 0, 75, 78
2, 18177, Note_on_c, 0, 68, 35
2, 18177, Note_on_c, 0, 64, 38
2, 18179, Note_on_c, 0, 65, 35
2, 18182, Note_on_c, 0, 65, 0
2, 18184, Note_on_c, 0, 63, 0
2, 18186, Note_on_c, 0, 64, 0
2, 18191, Note_on_c, 0, 75, 0
2, 18195, Note_on_c, 0, 68, 0
2, 18202, Note_on_c, 0, 73, 34
2, 18214, Note_on_c, 0, 73, 0
2, 18229, Note_on_c, 0, 75, 55
2, 18231, Note_on_c, 0, 66, 46
2, 18231, Note_on_c, 0, 72, 54
2, 18232, Note_on_c, 0, 58, 46
2, 18232, Note_on_c, 0, 70, 44
2, 18234, Note_on_c, 0, 48, 44
2, 18234, Control_c, 0, 64, 0
2, 18258, Control_c, 0, 64, 127
2, 18284, Note_on_c, 0, 58, 0
2, 18285, Note_on_c, 0, 54, 39
2, 18310, Note_on_c, 0, 72, 0
2, 18324, Note_on_c, 0, 70, 0
2, 18325, Note_on_c, 0, 66, 0
2, 18363, Note_on_c, 0, 66, 27
2, 18364, Note_on_c, 0, 75, 0
2, 18365, Note_on_c, 0, 58, 31
2, 18391, Note_on_c, 0, 66, 0
2, 18395, Note_on_c, 0, 48, 0
2, 18397, Note_on_c, 0, 70, 68
2, 18404, Note_on_c, 0, 54, 0
2, 18407, Note_on_c, 0, 58, 0
2, 18421, Note_on_c, 0, 70, 0
2, 18426, Note_on_c, 0, 72, 57
2, 18428, Note_on_c, 0, 70, 17
2, 18442, Note_on_c, 0, 70, 0
2, 18443, Note_on_c, 0, 72, 0
2, 18454, Note_on_c, 0, 75, 63
2, 18467, Note_on_c, 0, 75, 0
2, 18483, Control_c, 0, 64, 0
2, 18484, Note_on_c, 0, 75, 57
2, 18485, Note_on_c, 0, 63, 38
2, 18486, Note_on_c, 0, 66, 32
2, 18486, Note_on_c, 0, 69, 46
2, 18488, Note_on_c, 0, 72, 32
2, 18491, Note_on_c, 0, 69, 0
2, 18493, Note_on_c, 0, 72, 0
2, 18494, Note_on_c, 0, 66, 0
2, 18495, Control_c, 0, 64, 127
2, 18496, Note_on_c, 0, 63, 0
2, 18498, Note_on_c, 0, 75, 0
2, 18524, Note_on_c, 0, 80, 82
2, 18524, Note_on_c, 0, 72, 83
2, 18525, Note_on_c, 0, 75, 76
2, 18525, Note_on_c, 0, 69, 77
2, 18526, Note_on_c, 0, 68, 75
2, 18529, Note_on_c, 0, 78, 23
2, 18530, Note_on_c, 0, 71, 25
2, 18530, Control_c, 0, 64, 0
2, 18533, Note_on_c, 0, 71, 0
2, 18535, Note_on_c, 0, 78, 0
2, 18549, Control_c, 0, 64, 127
2, 18556, Note_on_c, 0, 72, 0
2, 18556, Note_on_c, 0, 75, 0
2, 18557, Note_on_c, 0, 69, 0
2, 18559, Note_on_c, 0, 80, 0
2, 18563, Note_on_c, 0, 68, 0
2, 18563, Control_c, 0, 64, 0
2, 18564, Note_on_c, 0, 75, 52
2, 18564, Note_on_c, 0, 78, 56
2, 18564, Note_on_c, 0, 66, 65
2, 18565, Note_on_c, 0, 69, 63
2, 18565, Note_on_c, 0, 72, 55
2, 18575, Note_on_c, 0, 72, 0
2, 18576, Control_c, 0, 64, 127
2, 18577, Note_on_c, 0, 75, 0
2, 18578, Note_on_c, 0, 78, 0
2, 18582, Note_on_c, 0, 69, 0
2, 18600, Note_on_c, 0, 66, 0
2, 18604, Note_on_c, 0, 77, 54
2, 18604, Control_c, 0, 64, 0
2, 18605, Note_on_c, 0, 66, 38
2, 18605, Note_on_c, 0, 69, 55
2, 18605, Note_on_c, 0, 65, 62
2, 18608, Note_on_c, 0, 72, 19
2, 18619, Control_c, 0, 64, 127
2, 18629, Note_on_c, 0, 72, 0
2, 18631, Note_on_c, 0, 69, 0
2, 18632, Note_on_c, 0, 77, 0
2, 18634, Note_on_c, 0, 66, 0
2, 18643, Note_on_c, 0, 66, 48
2, 18644, Note_on_c, 0, 65, 0
2, 18644, Note_on_c, 0, 75, 52
2, 18645, Note_on_c, 0, 63, 39
2, 18648, Note_on_c, 0, 72, 44
2, 18649, Note_on_c, 0, 69, 30
2, 18655, Note_on_c, 0, 69, 0
2, 18657, Note_on_c, 0, 75, 0
2, 18662, Note_on_c, 0, 63, 0
2, 18663, Note_on_c, 0, 72, 0
2, 18667, Note_on_c, 0, 66, 0
2, 18681, Note_on_c, 0, 73, 37
2, 18681, Note_on_c, 0, 66, 37
2, 18689, Note_on_c, 0, 66, 0
2, 18709, Note_on_c, 0, 73, 0
2, 18718, Control_c, 0, 64, 0
2, 18720, Note_on_c, 0, 46, 59
2, 18738, Control_c, 0, 64, 127
2, 18753, Note_on_c, 0, 46, 0
2, 18762, Note_on_c, 0, 73, 50
2, 18762, Note_on_c, 0, 61, 63
2, 18763, Note_on_c, 0, 65, 70
2, 18764, Note_on_c, 0, 68, 48
2, 18765, Note_on_c, 0, 60, 57
2, 18768, Control_c, 0, 64, 0
2, 18786, Control_c, 0, 64, 127
2, 18790, Control_c, 0, 64, 0
2, 18791, Note_on_c, 0, 65, 0
2, 18792, Note_on_c, 0, 68, 0
2, 18792, Note_on_c, 0, 73, 0
2, 18792, Note_on_c, 0, 61, 0
2, 18796, Note_on_c, 0, 70, 62
2, 18799, Note_on_c, 0, 60, 0
2, 18799, Note_on_c, 0, 58, 74
2, 18807, Control_c, 0, 64, 127
2, 18810, Note_on_c, 0, 70, 0
2, 18820, Note_on_c, 0, 68, 30
2, 18824, Note_on_c, 0, 68, 0
2, 18830, Note_on_c, 0, 61, 33
2, 18836, Note_on_c, 0, 58, 0
2, 18836, Note_on_c, 0, 75, 85
2, 18836, Note_on_c, 0, 67, 91
2, 18836, Note_on_c, 0, 70, 80
2, 18837, Note_on_c, 0, 64, 89
2, 18837, Note_on_c, 0, 63, 83
2, 18839, Control_c, 0, 64, 0
2, 18842, Note_on_c, 0, 61, 0
2, 18855, Control_c, 0, 64, 127
2, 18871, Note_on_c, 0, 75, 0
2, 18872, Note_on_c, 0, 64, 0
2, 18873, Note_on_c, 0, 70, 0
2, 18875, Note_on_c, 0, 67, 0
2, 18877, Note_on_c, 0, 63, 0
2, 18879, Note_on_c, 0, 73, 51
2, 18880, Note_on_c, 0, 64, 70
2, 18880, Note_on_c, 0, 70, 64
2, 18880, Note_on_c, 0, 61, 57
2, 18881, Control_c, 0, 64, 0
2, 18882, Note_on_c, 0, 67, 22
2, 18886, Note_on_c, 0, 67, 0
2, 18888, Note_on_c, 0, 70, 0
2, 18889, Control_c, 0, 64, 127
2, 18892, Note_on_c, 0, 73, 0
2, 18893, Note_on_c, 0, 64, 0
2, 18901, Note_on_c, 0, 68, 39
2, 18905, Note_on_c, 0, 68, 0
2, 18913, Note_on_c, 0, 61, 0
2, 18918, Note_on_c, 0, 64, 67
2, 18918, Note_on_c, 0, 72, 58
2, 18919, Note_on_c, 0, 61, 49
2, 18919, Note_on_c, 0, 60, 64
2, 18921, Control_c, 0, 64, 0
2, 18922, Note_on_c, 0, 70, 31
2, 18934, Control_c, 0, 64, 127
2, 18936, Note_on_c, 0, 70, 0
2, 18939, Note_on_c, 0, 60, 0
2, 18944, Note_on_c, 0, 64, 0
2, 18944, Note_on_c, 0, 72, 0
2, 18944, Note_on_c, 0, 61, 0
2, 18959, Note_on_c, 0, 70, 56
2, 18959, Note_on_c, 0, 61, 52
2, 18960, Control_c, 0, 64, 0
2, 18960, Note_on_c, 0, 64, 60
2, 18961, Note_on_c, 0, 58, 49
2, 18963, Note_on_c, 0, 67, 26
2, 18982, Control_c, 0, 64, 127
2, 18990, Note_on_c, 0, 67, 0
2, 18996, Note_on_c, 0, 61, 0
2, 18997, Note_on_c, 0, 64, 0
2, 19005, Note_on_c, 0, 61, 37
2, 19006, Note_on_c, 0, 67, 35
2, 19006, Note_on_c, 0, 64, 58
2, 19019, Note_on_c, 0, 58, 0
2, 19027, Note_on_c, 0, 70, 0
2, 19029, Note_on_c, 0, 67, 0
2, 19031, Note_on_c, 0, 64, 0
2, 19038, Note_on_c, 0, 61, 0
2, 19077, Note_on_c, 0, 64, 58
2, 19077, Note_on_c, 0, 55, 56
2, 19077, Note_on_c, 0, 61, 35
2, 19078, Note_on_c, 0, 59, 56
2, 19080, Note_on_c, 0, 51, 38
2, 19085, Control_c, 0, 64, 0
2, 19104, Control_c, 0, 64, 127
2, 19113, Note_on_c, 0, 51, 0
2, 19132, Note_on_c, 0, 55, 0
2, 19136, Note_on_c, 0, 59, 0
2, 19140, Note_on_c, 0, 51, 53
2, 19145, Note_on_c, 0, 61, 0
2, 19146, Note_on_c, 0, 64, 0
2, 19157, Note_on_c, 0, 51, 0
2, 19200, Note_on_c, 0, 72, 60
2, 19200, Note_on_c, 0, 67, 65
2, 19201, Note_on_c, 0, 60, 47
2, 19201, Note_on_c, 0, 55, 59
2, 19202, Note_on_c, 0, 44, 37
2, 19203, Control_c, 0, 64, 0
2, 19223, Control_c, 0, 64, 127
2, 19229, Note_on_c, 0, 55, 0
2, 19239, Note_on_c, 0, 54, 73
2, 19249, Note_on_c, 0, 67, 0
2, 19259, Note_on_c, 0, 60, 0
2, 19260, Note_on_c, 0, 54, 0
2, 19271, Note_on_c, 0, 60, 47
2, 19272, Note_on_c, 0, 53, 58
2, 19272, Note_on_c, 0, 65, 71
2, 19273, Control_c, 0, 64, 0
2, 19289, Control_c, 0, 64, 127
2, 19295, Note_on_c, 0, 60, 0
2, 19296, Note_on_c, 0, 72, 0
2, 19300, Note_on_c, 0, 44, 0
2, 19302, Note_on_c, 0, 53, 0
2, 19303, Note_on_c, 0, 65, 0
2, 19321, Note_on_c, 0, 73, 62
2, 19322, Note_on_c, 0, 57, 66
2, 19322, Note_on_c, 0, 46, 57
2, 19322, Note_on_c, 0, 61, 73
2, 19322, Note_on_c, 0, 65, 85
2, 19325, Control_c, 0, 64, 0
2, 19348, Note_on_c, 0, 57, 0
2, 19357, Note_on_c, 0, 56, 72
2, 19378, Note_on_c, 0, 56, 0
2, 19389, Note_on_c, 0, 55, 77
2, 19389, Control_c, 0, 64, 127
2, 19394, Note_on_c, 0, 65, 0
2, 19407, Note_on_c, 0, 61, 0
2, 19411, Note_on_c, 0, 46, 0
2, 19414, Note_on_c, 0, 55, 0
2, 19415, Note_on_c, 0, 73, 0
2, 19442, Note_on_c, 0, 75, 83
2, 19442, Note_on_c, 0, 58, 87
2, 19443, Note_on_c, 0, 63, 79
2, 19443, Note_on_c, 0, 48, 68
2, 19443, Note_on_c, 0, 67, 83
2, 19445, Control_c, 0, 64, 0
2, 19475, Note_on_c, 0, 58, 0
2, 19485, Note_on_c, 0, 57, 71
2, 19503, Control_c, 0, 64, 127
2, 19527, Note_on_c, 0, 57, 0
2, 19527, Note_on_c, 0, 67, 0
2, 19529, Note_on_c, 0, 56, 42
2, 19532, Note_on_c, 0, 63, 0
2, 19538, Note_on_c, 0, 48, 0
2, 19538, Note_on_c, 0, 75, 0
2, 19567, Note_on_c, 0, 60, 68
2, 19568, Note_on_c, 0, 77, 51
2, 19568, Note_on_c, 0, 65, 54
2, 19568, Note_on_c, 0, 49, 42
2, 19569, Control_c, 0, 64, 0
2, 19569, Note_on_c, 0, 72, 61
2, 19577, Note_on_c, 0, 56, 0
2, 19594, Control_c, 0, 64, 127
2, 19599, Note_on_c, 0, 60, 0
2, 19611, Note_on_c, 0, 59, 49
2, 19632, Note_on_c, 0, 59, 0
2, 19648, Note_on_c, 0, 77, 0
2, 19651, Note_on_c, 0, 58, 50
2, 19653, Note_on_c, 0, 72, 0
2, 19657, Note_on_c, 0, 65, 0
2, 19673, Note_on_c, 0, 58, 0
2, 19679, Note_on_c, 0, 49, 0
2, 19689, Control_c, 0, 64, 0
2, 19689, Note_on_c, 0, 48, 69
2, 19693, Note_on_c, 0, 79, 41
2, 19713, Control_c, 0, 64, 127
2, 19729, Note_on_c, 0, 75, 57
2, 19730, Note_on_c, 0, 67, 51
2, 19730, Note_on_c, 0, 58, 54
2, 19764, Note_on_c, 0, 48, 0
2, 19766, Note_on_c, 0, 58, 0
2, 19770, Note_on_c, 0, 67, 0
2, 19772, Note_on_c, 0, 79, 0
2, 19776, Note_on_c, 0, 75, 0
2, 19800, Note_on_c, 0, 80, 61
2, 19800, Note_on_c, 0, 68, 74
2, 19801, Note_on_c, 0, 56, 64
2, 19801, Note_on_c, 0, 75, 73
2, 19804, Control_c, 0, 64, 0
2, 19804, Note_on_c, 0, 46, 45
2, 19808, Note_on_c, 0, 46, 0
2, 19825, Control_c, 0, 64, 127
2, 19843, Note_on_c, 0, 46, 55
2, 19860, Note_on_c, 0, 68, 0
2, 19869, Note_on_c, 0, 80, 0
2, 19870, Note_on_c, 0, 46, 0
2, 19873, Note_on_c, 0, 56, 0
2, 19874, Note_on_c, 0, 75, 0
2, 19913, Control_c, 0, 64, 0
2, 19914, Note_on_c, 0, 82, 61
2, 19915, Note_on_c, 0, 70, 56
2, 19915, Note_on_c, 0, 75, 60
2, 19915, Note_on_c, 0, 79, 45
2, 19915, Note_on_c, 0, 55, 66
2, 19915, Note_on_c, 0, 44, 51
2, 19934, Control_c, 0, 64, 127
2, 19960, Note_on_c, 0, 55, 0
2, 19961, Note_on_c, 0, 51, 64
2, 19970, Note_on_c, 0, 79, 0
2, 19971, Note_on_c, 0, 70, 0
2, 19971, Note_on_c, 0, 51, 0
2, 19972, Note_on_c, 0, 44, 0
2, 19979, Note_on_c, 0, 75, 0
2, 19984, Note_on_c, 0, 82, 0
2, 20025, Note_on_c, 0, 42, 83
2, 20025, Note_on_c, 0, 80, 78
2, 20026, Note_on_c, 0, 77, 88
2, 20026, Note_on_c, 0, 84, 87
2, 20026, Note_on_c, 0, 72, 90
2, 20027, Note_on_c, 0, 30, 74
2, 20027, Control_c, 0, 64, 0
2, 20046, Control_c, 0, 64, 127
2, 20095, Note_on_c, 0, 30, 0
2, 20096, Note_on_c, 0, 42, 0
2, 20096, Note_on_c, 0, 72, 0
2, 20099, Note_on_c, 0, 77, 0
2, 20100, Note_on_c, 0, 84, 0
2, 20101, Note_on_c, 0, 80, 0
2, 20146, Note_on_c, 0, 40, 96
2, 20146, Note_on_c, 0, 28, 94
2, 20147, Note_on_c, 0, 78, 77
2, 20148, Note_on_c, 0, 86, 80
2, 20149, Note_on_c, 0, 74, 80
2, 20149, Control_c, 0, 64, 0
2, 20150, Note_on_c, 0, 81, 60
2, 20152, Note_on_c, 0, 82, 29
2, 20155, Note_on_c, 0, 82, 0
2, 20167, Control_c, 0, 64, 127
2, 20169, Note_on_c, 0, 28, 0
2, 20173, Note_on_c, 0, 40, 0
2, 20174, Note_on_c, 0, 86, 0
2, 20174, Note_on_c, 0, 81, 0
2, 20178, Note_on_c, 0, 78, 0
2, 20179, Note_on_c, 0, 74, 0
2, 20211, Note_on_c, 0, 66, 84
2, 20212, Note_on_c, 0, 74, 79
2, 20212, Note_on_c, 0, 62, 95
2, 20212, Note_on_c, 0, 69, 89
2, 20213, Note_on_c, 0, 52, 82
2, 20213, Note_on_c, 0, 72, 72
2, 20217, Note_on_c, 0, 71, 31
2, 20222, Note_on_c, 0, 71, 0
2, 20233, Note_on_c, 0, 62, 0
2, 20237, Note_on_c, 0, 72, 0
2, 20242, Note_on_c, 0, 66, 0
2, 20249, Note_on_c, 0, 74, 0
2, 20249, Note_on_c, 0, 69, 0
2, 20271, Note_on_c, 0, 74, 95
2, 20271, Note_on_c, 0, 66, 95
2, 20272, Note_on_c, 0, 64, 87
2, 20272, Note_on_c, 0, 69, 92
2, 20272, Note_on_c, 0, 59, 75
2, 20274, Note_on_c, 0, 72, 54
2, 20278, Note_on_c, 0, 72, 0
2, 20313, Note_on_c, 0, 52, 0
2, 20316, Note_on_c, 0, 66, 0
2, 20317, Note_on_c, 0, 74, 0
2, 20319, Note_on_c, 0, 64, 0
2, 20319, Note_on_c, 0, 69, 0
2, 20324, Note_on_c, 0, 59, 0
2, 20330, Note_on_c, 0, 74, 83
2, 20330, Note_on_c, 0, 59, 55
2, 20330, Note_on_c, 0, 66, 86
2, 20330, Note_on_c, 0, 69, 75
2, 20331, Note_on_c, 0, 52, 74
2, 20334, Note_on_c, 0, 72, 36
2, 20355, Note_on_c, 0, 69, 0
2, 20356, Note_on_c, 0, 66, 0
2, 20357, Note_on_c, 0, 52, 0
2, 20359, Note_on_c, 0, 72, 0
2, 20373, Note_on_c, 0, 74, 0
2, 20375, Note_on_c, 0, 59, 0
2, 20387, Note_on_c, 0, 74, 83
2, 20388, Note_on_c, 0, 68, 92
2, 20388, Note_on_c, 0, 71, 85
2, 20389, Note_on_c, 0, 64, 92
2, 20389, Note_on_c, 0, 62, 82
2, 20389, Note_on_c, 0, 56, 68
2, 20390, Note_on_c, 0, 52, 74
2, 20391, Note_on_c, 0, 72, 63
2, 20392, Control_c, 0, 64, 0
2, 20403, Note_on_c, 0, 72, 0
2, 20424, Control_c, 0, 64, 127
2, 20437, Note_on_c, 0, 62, 0
2, 20441, Note_on_c, 0, 64, 0
2, 20444, Note_on_c, 0, 74, 0
2, 20444, Note_on_c, 0, 68, 0
2, 20445, Note_on_c, 0, 71, 0
2, 20446, Note_on_c, 0, 56, 0
2, 20451, Note_on_c, 0, 68, 71
2, 20451, Note_on_c, 0, 62, 64
2, 20451, Note_on_c, 0, 74, 64
2, 20452, Note_on_c, 0, 56, 45
2, 20452, Note_on_c, 0, 64, 71
2, 20452, Note_on_c, 0, 71, 77
2, 20454, Note_on_c, 0, 72, 64
2, 20457, Note_on_c, 0, 72, 0
2, 20485, Note_on_c, 0, 62, 0
2, 20488, Note_on_c, 0, 56, 0
2, 20492, Note_on_c, 0, 71, 0
2, 20495, Note_on_c, 0, 64, 0
2, 20496, Note_on_c, 0, 68, 0
2, 20501, Note_on_c, 0, 74, 0
2, 20513, Note_on_c, 0, 68, 60
2, 20514, Note_on_c, 0, 74, 48
2, 20514, Note_on_c, 0, 62, 60
2, 20515, Note_on_c, 0, 71, 51
2, 20515, Note_on_c, 0, 64, 62
2, 20516, Note_on_c, 0, 56, 37
2, 20548, Note_on_c, 0, 62, 0
2, 20550, Note_on_c, 0, 64, 0
2, 20552, Note_on_c, 0, 52, 0
2, 20554, Note_on_c, 0, 68, 0
2, 20555, Note_on_c, 0, 71, 0
2, 20557, Note_on_c, 0, 74, 0
2, 20562, Note_on_c, 0, 56, 0
2, 20577, Note_on_c, 0, 62, 34
2, 20577, Note_on_c, 0, 68, 39
2, 20577, Note_on_c, 0, 74, 35
2, 20578, Note_on_c, 0, 64, 43
2, 20579, Note_on_c, 0, 56, 18
2, 20580, Note_on_c, 0, 52, 33
2, 20580, Note_on_c, 0, 71, 30
2, 20585, Note_on_c, 0, 52, 0
2, 20586, Note_on_c, 0, 62, 0
2, 20593, Note_on_c, 0, 64, 0
2, 20597, Note_on_c, 0, 74, 0
2, 20598, Note_on_c, 0, 68, 0
2, 20601, Note_on_c, 0, 71, 0
2, 20609, Note_on_c, 0, 56, 0
2, 20638, Note_on_c, 0, 75, 62
2, 20639, Control_c, 0, 64, 0
2, 20639, Note_on_c, 0, 68, 43
2, 20639, Note_on_c, 0, 70, 57
2, 20640, Note_on_c, 0, 61, 37
2, 20641, Note_on_c, 0, 51, 42
2, 20642, Note_on_c, 0, 58, 35
2, 20648, Note_on_c, 0, 68, 0
2, 20659, Note_on_c, 0, 75, 0
2, 20659, Control_c, 0, 64, 127
2, 20660, Note_on_c, 0, 70, 0
2, 20663, Note_on_c, 0, 61, 0
2, 20663, Note_on_c, 0, 68, 19
2, 20672, Note_on_c, 0, 68, 0
2, 20673, Note_on_c, 0, 75, 25
2, 20675, Note_on_c, 0, 70, 34
2, 20683, Note_on_c, 0, 75, 0
2, 20684, Note_on_c, 0, 70, 0
2, 20684, Note_on_c, 0, 68, 34
2, 20685, Note_on_c, 0, 51, 0
2, 20690, Note_on_c, 0, 58, 0
2, 20695, Note_on_c, 0, 68, 0
2, 20695, Note_on_c, 0, 75, 25
2, 20697, Note_on_c, 0, 70, 39
2, 20705, Note_on_c, 0, 68, 34
2, 20706, Note_on_c, 0, 70, 0
2, 20706, Note_on_c, 0, 75, 0
2, 20717, Note_on_c, 0, 68, 0
2, 20718, Note_on_c, 0, 70, 46
2, 20718, Note_on_c, 0, 75, 25
2, 20727, Note_on_c, 0, 68, 44
2, 20728, Note_on_c, 0, 75, 0
2, 20728, Note_on_c, 0, 70, 0
2, 20737, Note_on_c, 0, 68, 0
2, 20738, Note_on_c, 0, 75, 37
2, 20738, Note_on_c, 0, 70, 47
2, 20747, Note_on_c, 0, 68, 45
2, 20748, Note_on_c, 0, 70, 0
2, 20750, Note_on_c, 0, 75, 0
2, 20757, Note_on_c, 0, 68, 0
2, 20757, Note_on_c, 0, 75, 25
2, 20758, Note_on_c, 0, 70, 52
2, 20759, Note_on_c, 0, 63, 84
2, 20768, Note_on_c, 0, 70, 0
2, 20768, Note_on_c, 0, 75, 0
2, 20768, Note_on_c, 0, 68, 52
2, 20778, Note_on_c, 0, 68, 0
2, 20779, Note_on_c, 0, 75, 32
2, 20780, Note_on_c, 0, 70, 55
2, 20788, Note_on_c, 0, 75, 0
2, 20788, Note_on_c, 0, 68, 47
2, 20789, Note_on_c, 0, 70, 0
2, 20797, Note_on_c, 0, 68, 0
2, 20799, Note_on_c, 0, 75, 33
2, 20800, Note_on_c, 0, 70, 48
2, 20809, Note_on_c, 0, 70, 0
2, 20810, Note_on_c, 0, 75, 0
2, 20810, Note_on_c, 0, 68, 48
2, 20817, Note_on_c, 0, 68, 0
2, 20820, Note_on_c, 0, 75, 35
2, 20821, Note_on_c, 0, 70, 48
2, 20830, Note_on_c, 0, 75, 0
2, 20830, Note_on_c, 0, 63, 0
2, 20832, Note_on_c, 0, 68, 45
2, 20834, Note_on_c, 0, 70, 0
2, 20844, Note_on_c, 0, 75, 25
2, 20851, Note_on_c, 0, 75, 0
2, 20853, Note_on_c, 0, 68, 0
2, 20861, Note_on_c, 0, 70, 2
2, 20861, Note_on_c, 0, 75, 35
2, 20876, Note_on_c, 0, 75, 0
2, 20876, Note_on_c, 0, 70, 0
2, 20884, Note_on_c, 0, 68, 44
2, 20885, Note_on_c, 0, 59, 44
2, 20885, Note_on_c, 0, 63, 37
2, 20887, Note_on_c, 0, 75, 38
2, 20887, Note_on_c, 0, 64, 53
2, 20892, Control_c, 0, 64, 0
2, 20912, Control_c, 0, 64, 127
2, 20945, Note_on_c, 0, 64, 0
2, 20947, Note_on_c, 0, 59, 0
2, 20951, Note_on_c, 0, 68, 0
2, 20955, Note_on_c, 0, 63, 0
2, 21000, Note_on_c, 0, 68, 47
2, 21003, Note_on_c, 0, 63, 28
2, 21003, Note_on_c, 0, 58, 32
2, 21005, Control_c, 0, 64, 0
2, 21005, Note_on_c, 0, 64, 40
2, 21009, Note_on_c, 0, 75, 0
2, 21020, Control_c, 0, 64, 127
2, 21057, Note_on_c, 0, 64, 0
2, 21062, Note_on_c, 0, 68, 0
2, 21067, Note_on_c, 0, 63, 0
2, 21067, Note_on_c, 0, 58, 0
2, 21092, Note_on_c, 0, 84, 60
2, 21106, Note_on_c, 0, 85, 71
2, 21110, Note_on_c, 0, 84, 0
2, 21116, Note_on_c, 0, 85, 0
2, 21118, Control_c, 0, 64, 0
2, 21120, Note_on_c, 0, 86, 39
2, 21128, Note_on_c, 0, 67, 34
2, 21128, Note_on_c, 0, 63, 31
2, 21130, Note_on_c, 0, 86, 0
2, 21130, Note_on_c, 0, 62, 24
2, 21131, Note_on_c, 0, 58, 29
2, 21135, Note_on_c, 0, 87, 67
2, 21144, Note_on_c, 0, 87, 0
2, 21167, Note_on_c, 0, 87, 46
2, 21172, Note_on_c, 0, 87, 0
2, 21193, Note_on_c, 0, 87, 57
2, 21200, Note_on_c, 0, 87, 0
2, 21220, Note_on_c, 0, 87, 60
2, 21227, Note_on_c, 0, 87, 0
2, 21248, Note_on_c, 0, 87, 61
2, 21261, Note_on_c, 0, 87, 0
2, 21270, Note_on_c, 0, 89, 63
2, 21279, Note_on_c, 0, 89, 0
2, 21296, Note_on_c, 0, 87, 60
2, 21305, Note_on_c, 0, 62, 0
2, 21305, Control_c, 0, 64, 127
2, 21313, Note_on_c, 0, 67, 0
2, 21317, Note_on_c, 0, 58, 0
2, 21318, Note_on_c, 0, 63, 0
2, 21356, Note_on_c, 0, 87, 0
2, 21356, Note_on_c, 0, 80, 43
2, 21358, Control_c, 0, 64, 0
2, 21359, Note_on_c, 0, 63, 27
2, 21360, Note_on_c, 0, 60, 34
2, 21360, Note_on_c, 0, 67, 18
2, 21361, Note_on_c, 0, 56, 28
2, 21399, Control_c, 0, 64, 127
2, 21416, Note_on_c, 0, 67, 0
2, 21420, Note_on_c, 0, 60, 0
2, 21427, Note_on_c, 0, 63, 0
2, 21483, Note_on_c, 0, 67, 27
2, 21483, Note_on_c, 0, 63, 31
2, 21483, Note_on_c, 0, 60, 40
2, 21524, Note_on_c, 0, 80, 0
2, 21556, Note_on_c, 0, 67, 0
2, 21564, Note_on_c, 0, 80, 45
2, 21566, Note_on_c, 0, 63, 0
2, 21567, Note_on_c, 0, 56, 0
2, 21569, Note_on_c, 0, 60, 0
2, 21573, Note_on_c, 0, 80, 0
2, 21595, Control_c, 0, 64, 0
2, 21597, Note_on_c, 0, 84, 101
2, 21597, Note_on_c, 0, 62, 70
2, 21598, Note_on_c, 0, 56, 69
2, 21598, Note_on_c, 0, 67, 75
2, 21607, Note_on_c, 0, 84, 0
2, 21608, Note_on_c, 0, 67, 0
2, 21610, Note_on_c, 0, 62, 0
2, 21615, Note_on_c, 0, 56, 0
2, 21636, Note_on_c, 0, 84, 113
2, 21637, Note_on_c, 0, 56, 77
2, 21637, Note_on_c, 0, 67, 85
2, 21637, Note_on_c, 0, 62, 80
2, 21643, Note_on_c, 0, 67, 0
2, 21643, Note_on_c, 0, 84, 0
2, 21645, Note_on_c, 0, 62, 0
2, 21651, Note_on_c, 0, 56, 0
2, 21668, Note_on_c, 0, 84, 108
2, 21670, Note_on_c, 0, 67, 87
2, 21670, Note_on_c, 0, 56, 76
2, 21670, Note_on_c, 0, 62, 70
2, 21674, Note_on_c, 0, 84, 0
2, 21676, Note_on_c, 0, 67, 0
2, 21676, Note_on_c, 0, 62, 0
2, 21679, Note_on_c, 0, 56, 0
2, 21699, Note_on_c, 0, 84, 95
2, 21700, Note_on_c, 0, 56, 64
2, 21700, Note_on_c, 0, 67, 68
2, 21700, Note_on_c, 0, 62, 58
2, 21706, Note_on_c, 0, 67, 0
2, 21707, Note_on_c, 0, 84, 0
2, 21708, Note_on_c, 0, 62, 0
2, 21709, Note_on_c, 0, 56, 0
2, 21729, Note_on_c, 0, 84, 72
2, 21730, Note_on_c, 0, 62, 56
2, 21731, Note_on_c, 0, 67, 67
2, 21731, Note_on_c, 0, 56, 57
2, 21732, Control_c, 0, 64, 127
2, 21763, Note_on_c, 0, 84, 0
2, 21778, Note_on_c, 0, 62, 0
2, 21778, Note_on_c, 0, 67, 0
2, 21786, Note_on_c, 0, 56, 0
2, 21836, Control_c, 0, 64, 0
2, 21836, Note_on_c, 0, 79, 83
2, 21837, Note_on_c, 0, 71, 91
2, 21837, Note_on_c, 0, 68, 98
2, 21837, Note_on_c, 0, 74, 77
2, 21838, Note_on_c, 0, 67, 101
2, 21839, Note_on_c, 0, 65, 89
2, 21843, Note_on_c, 0, 65, 0
2, 21854, Control_c, 0, 64, 127
2, 21864, Note_on_c, 0, 68, 0
2, 21866, Note_on_c, 0, 79, 0
2, 21867, Note_on_c, 0, 67, 0
2, 21867, Note_on_c, 0, 71, 0
2, 21870, Note_on_c, 0, 74, 0
2, 21870, Control_c, 0, 64, 0
2, 21875, Note_on_c, 0, 79, 67
2, 21875, Note_on_c, 0, 71, 80
2, 21875, Note_on_c, 0, 68, 94
2, 21876, Note_on_c, 0, 67, 77
2, 21876, Note_on_c, 0, 74, 83
2, 21893, Note_on_c, 0, 68, 0
2, 21897, Note_on_c, 0, 67, 0
2, 21898, Note_on_c, 0, 79, 0
2, 21900, Note_on_c, 0, 71, 0
2, 21902, Note_on_c, 0, 74, 0
2, 21906, Note_on_c, 0, 79, 68
2, 21907, Note_on_c, 0, 71, 83
2, 21907, Note_on_c, 0, 67, 72
2, 21908, Note_on_c, 0, 68, 90
2, 21908, Note_on_c, 0, 74, 74
2, 21915, Control_c, 0, 64, 127
2, 21924, Note_on_c, 0, 68, 0
2, 21926, Note_on_c, 0, 67, 0
2, 21928, Note_on_c, 0, 79, 0
2, 21928, Note_on_c, 0, 71, 0
2, 21929, Note_on_c, 0, 74, 0
2, 21933, Control_c, 0, 64, 0
2, 21936, Note_on_c, 0, 79, 67
2, 21936, Note_on_c, 0, 67, 69
2, 21937, Note_on_c, 0, 68, 85
2, 21938, Note_on_c, 0, 71, 68
2, 21939, Note_on_c, 0, 74, 54
2, 21939, Control_c, 0, 64, 127
2, 21952, Note_on_c, 0, 68, 0
2, 21954, Note_on_c, 0, 67, 0
2, 21955, Note_on_c, 0, 71, 0
2, 21956, Note_on_c, 0, 79, 0
2, 21959, Note_on_c, 0, 74, 0
2, 21963, Control_c, 0, 64, 0
2, 21966, Note_on_c, 0, 79, 56
2, 21967, Note_on_c, 0, 68, 85
2, 21967, Note_on_c, 0, 71, 71
2, 21967, Note_on_c, 0, 67, 71
2, 21968, Note_on_c, 0, 78, 43
2, 21968, Note_on_c, 0, 74, 58
2, 21974, Control_c, 0, 64, 127
2, 21979, Note_on_c, 0, 68, 0
2, 21980, Note_on_c, 0, 71, 0
2, 21981, Note_on_c, 0, 79, 0
2, 21981, Note_on_c, 0, 74, 0
2, 21982, Note_on_c, 0, 67, 0
2, 21983, Note_on_c, 0, 78, 0
2, 22018, Note_on_c, 0, 80, 76
2, 22019, Note_on_c, 0, 71, 72
2, 22020, Note_on_c, 0, 74, 56
2, 22020, Note_on_c, 0, 68, 83
2, 22022, Control_c, 0, 64, 0
2, 22029, Note_on_c, 0, 68, 0
2, 22034, Note_on_c, 0, 80, 0
2, 22034, Note_on_c, 0, 71, 0
2, 22034, Note_on_c, 0, 74, 0
2, 22043, Note_on_c, 0, 79, 75
2, 22045, Note_on_c, 0, 67, 68
2, 22045, Note_on_c, 0, 71, 58
2, 22048, Note_on_c, 0, 74, 39
2, 22053, Control_c, 0, 64, 127
2, 22055, Note_on_c, 0, 79, 0
2, 22058, Note_on_c, 0, 71, 0
2, 22060, Note_on_c, 0, 67, 0
2, 22060, Control_c, 0, 64, 0
2, 22064, Note_on_c, 0, 74, 0
2, 22067, Note_on_c, 0, 78, 56
2, 22068, Note_on_c, 0, 71, 62
2, 22068, Note_on_c, 0, 66, 60
2, 22069, Note_on_c, 0, 68, 64
2, 22073, Control_c, 0, 64, 127
2, 22073, Note_on_c, 0, 74, 24
2, 22077, Note_on_c, 0, 74, 0
2, 22081, Note_on_c, 0, 71, 0
2, 22082, Note_on_c, 0, 78, 0
2, 22084, Note_on_c, 0, 68, 0
2, 22089, Note_on_c, 0, 66, 0
2, 22090, Note_on_c, 0, 77, 59
2, 22091, Note_on_c, 0, 68, 51
2, 22093, Control_c, 0, 64, 0
2, 22093, Note_on_c, 0, 71, 44
2, 22093, Note_on_c, 0, 65, 61
2, 22101, Note_on_c, 0, 71, 0
2, 22107, Note_on_c, 0, 77, 0
2, 22108, Note_on_c, 0, 68, 0
2, 22110, Note_on_c, 0, 65, 0
2, 22114, Note_on_c, 0, 75, 68
2, 22115, Note_on_c, 0, 67, 66
2, 22116, Note_on_c, 0, 70, 61
2, 22116, Note_on_c, 0, 63, 51
2, 22129, Note_on_c, 0, 70, 0
2, 22129, Note_on_c, 0, 67, 0
2, 22132, Control_c, 0, 64, 127
2, 22134, Note_on_c, 0, 63, 0
2, 22135, Note_on_c, 0, 75, 0
2, 22185, Note_on_c, 0, 67, 64
2, 22186, Note_on_c, 0, 63, 59
2, 22186, Note_on_c, 0, 70, 48
2, 22187, Note_on_c, 0, 75, 46
2, 22187, Note_on_c, 0, 72, 41
2, 22193, Note_on_c, 0, 67, 0
2, 22197, Note_on_c, 0, 75, 0
2, 22197, Note_on_c, 0, 72, 0
2, 22197, Note_on_c, 0, 70, 0
2, 22204, Note_on_c, 0, 63, 0
2, 22218, Control_c, 0, 64, 0
2, 22219, Note_on_c, 0, 75, 55
2, 22219, Note_on_c, 0, 70, 57
2, 22221, Note_on_c, 0, 63, 46
2, 22221, Note_on_c, 0, 67, 45
2, 22221, Note_on_c, 0, 72, 51
2, 22225, Control_c, 0, 64, 127
2, 22231, Note_on_c, 0, 72, 0
2, 22240, Note_on_c, 0, 67, 0
2, 22243, Note_on_c, 0, 75, 0
2, 22245, Note_on_c, 0, 70, 0
2, 22250, Note_on_c, 0, 63, 0
2, 22254, Note_on_c, 0, 70, 49
2, 22254, Note_on_c, 0, 75, 64
2, 22255, Note_on_c, 0, 67, 41
2, 22268, Note_on_c, 0, 75, 0
2, 22271, Note_on_c, 0, 70, 0
2, 22273, Note_on_c, 0, 67, 0
2, 22381, Note_on_c, 0, 61, 82
2, 22382, Note_on_c, 0, 60, 76
2, 22382, Note_on_c, 0, 72, 83
2, 22382, Note_on_c, 0, 65, 77
2, 22383, Note_on_c, 0, 68, 62
2, 22386, Control_c, 0, 64, 0
2, 22387, Note_on_c, 0, 60, 0
2, 22387, Note_on_c, 0, 61, 0
2, 22390, Note_on_c, 0, 65, 0
2, 22391, Note_on_c, 0, 72, 0
2, 22391, Note_on_c, 0, 68, 0
2, 22418, Control_c, 0, 64, 127
2, 22444, Note_on_c, 0, 61, 61
2, 22444, Note_on_c, 0, 70, 56
2, 22445, Note_on_c, 0, 51, 46
2, 22445, Note_on_c, 0, 65, 68
2, 22445, Note_on_c, 0, 58, 48
2, 22445, Control_c, 0, 64, 0
2, 22445, Note_on_c, 0, 68, 51
2, 22465, Control_c, 0, 64, 127
2, 22480, Note_on_c, 0, 58, 0
2, 22483, Note_on_c, 0, 68, 0
2, 22485, Note_on_c, 0, 65, 0
2, 22488, Note_on_c, 0, 51, 0
2, 22488, Note_on_c, 0, 61, 0
2, 22496, Note_on_c, 0, 70, 0
2, 22503, Note_on_c, 0, 51, 57
2, 22504, Note_on_c, 0, 68, 67
2, 22504, Note_on_c, 0, 61, 62
2, 22505, Note_on_c, 0, 65, 65
2, 22511, Note_on_c, 0, 56, 36
2, 22534, Note_on_c, 0, 65, 0
2, 22536, Note_on_c, 0, 61, 0
2, 22544, Note_on_c, 0, 51, 0
2, 22547, Note_on_c, 0, 68, 0
2, 22549, Note_on_c, 0, 56, 0
2, 22565, Control_c, 0, 64, 0
2, 22568, Note_on_c, 0, 67, 48
2, 22568, Note_on_c, 0, 60, 41
2, 22568, Note_on_c, 0, 56, 37
2, 22568, Note_on_c, 0, 65, 53
2, 22571, Note_on_c, 0, 50, 29
2, 22584, Control_c, 0, 64, 127
2, 22587, Note_on_c, 0, 60, 0
2, 22594, Note_on_c, 0, 65, 0
2, 22595, Note_on_c, 0, 67, 0
2, 22622, Note_on_c, 0, 72, 78
2, 22651, Note_on_c, 0, 72, 0
2, 22654, Note_on_c, 0, 50, 0
2, 22664, Note_on_c, 0, 56, 0
2, 22684, Note_on_c, 0, 60, 56
2, 22684, Note_on_c, 0, 56, 27
2, 22686, Note_on_c, 0, 50, 38
2, 22688, Control_c, 0, 64, 0
2, 22702, Control_c, 0, 64, 127
2, 22748, Note_on_c, 0, 60, 0
2, 22750, Note_on_c, 0, 50, 0
2, 22758, Note_on_c, 0, 56, 0
2, 22799, Note_on_c, 0, 75, 79
2, 22800, Note_on_c, 0, 68, 82
2, 22800, Note_on_c, 0, 71, 80
2, 22800, Note_on_c, 0, 63, 84
2, 22800, Note_on_c, 0, 64, 92
2, 22801, Note_on_c, 0, 73, 37
2, 22802, Control_c, 0, 64, 0
2, 22815, Note_on_c, 0, 73, 0
2, 22829, Control_c, 0, 64, 127
2, 22852, Note_on_c, 0, 75, 0
2, 22852, Note_on_c, 0, 64, 0
2, 22856, Note_on_c, 0, 71, 0
2, 22857, Note_on_c, 0, 68, 0
2, 22860, Note_on_c, 0, 61, 64
2, 22860, Note_on_c, 0, 73, 59
2, 22861, Note_on_c, 0, 63, 0
2, 22861, Note_on_c, 0, 68, 52
2, 22861, Note_on_c, 0, 64, 80
2, 22864, Note_on_c, 0, 71, 33
2, 22868, Note_on_c, 0, 71, 0
2, 22868, Note_on_c, 0, 61, 0
2, 22884, Note_on_c, 0, 68, 0
2, 22901, Note_on_c, 0, 64, 0
2, 22921, Note_on_c, 0, 68, 64
2, 22922, Note_on_c, 0, 59, 52
2, 22923, Control_c, 0, 64, 0
2, 22923, Note_on_c, 0, 64, 64
2, 22924, Note_on_c, 0, 49, 33
2, 22940, Control_c, 0, 64, 127
2, 22944, Note_on_c, 0, 73, 0
2, 22947, Note_on_c, 0, 68, 0
2, 22951, Note_on_c, 0, 64, 0
2, 22958, Note_on_c, 0, 49, 0
2, 22960, Note_on_c, 0, 59, 0
2, 22977, Note_on_c, 0, 61, 54
2, 22977, Note_on_c, 0, 64, 68
2, 22980, Note_on_c, 0, 49, 46
2, 22981, Note_on_c, 0, 59, 40
2, 23000, Note_on_c, 0, 59, 0
2, 23012, Note_on_c, 0, 64, 0
2, 23014, Note_on_c, 0, 61, 0
2, 23021, Note_on_c, 0, 49, 0
2, 23040, Note_on_c, 0, 63, 53
2, 23040, Control_c, 0, 64, 0
2, 23040, Note_on_c, 0, 58, 50
2, 23041, Note_on_c, 0, 60, 49
2, 23042, Note_on_c, 0, 48, 46
2, 23065, Control_c, 0, 64, 127
2, 23104, Note_on_c, 0, 55, 51
2, 23128, Note_on_c, 0, 58, 0
2, 23135, Note_on_c, 0, 60, 0
2, 23140, Note_on_c, 0, 63, 0
2, 23161, Note_on_c, 0, 63, 47
2, 23163, Note_on_c, 0, 60, 49
2, 23164, Note_on_c, 0, 58, 39
2, 23167, Note_on_c, 0, 60, 0
2, 23174, Note_on_c, 0, 63, 0
2, 23192, Note_on_c, 0, 67, 92
2, 23205, Note_on_c, 0, 48, 0
2, 23208, Note_on_c, 0, 55, 0
2, 23208, Note_on_c, 0, 67, 0
2, 23213, Note_on_c, 0, 68, 90
2, 23216, Note_on_c, 0, 67, 32
2, 23218, Note_on_c, 0, 58, 0
2, 23220, Note_on_c, 0, 67, 0
2, 23228, Note_on_c, 0, 68, 0
2, 23232, Note_on_c, 0, 70, 84
2, 23233, Note_on_c, 0, 68, 64
2, 23237, Note_on_c, 0, 68, 0
2, 23245, Note_on_c, 0, 70, 0
2, 23252, Note_on_c, 0, 72, 90
2, 23264, Note_on_c, 0, 72, 0
2, 23271, Note_on_c, 0, 75, 87
2, 23284, Note_on_c, 0, 75, 0
2, 23286, Control_c, 0, 64, 0
2, 23288, Note_on_c, 0, 63, 31
2, 23290, Note_on_c, 0, 60, 38
2, 23292, Note_on_c, 0, 56, 34
2, 23293, Note_on_c, 0, 79, 83
2, 23293, Note_on_c, 0, 53, 29
2, 23313, Note_on_c, 0, 79, 0
2, 23321, Note_on_c, 0, 79, 63
2, 23322, Control_c, 0, 64, 127
2, 23346, Note_on_c, 0, 63, 0
2, 23347, Note_on_c, 0, 79, 0
2, 23349, Note_on_c, 0, 77, 50
2, 23366, Note_on_c, 0, 60, 0
2, 23390, Note_on_c, 0, 63, 32
2, 23391, Note_on_c, 0, 72, 47
2, 23391, Note_on_c, 0, 68, 33
2, 23392, Note_on_c, 0, 60, 18
2, 23402, Note_on_c, 0, 53, 0
2, 23438, Note_on_c, 0, 77, 0
2, 23446, Note_on_c, 0, 63, 0
2, 23447, Note_on_c, 0, 72, 0
2, 23459, Note_on_c, 0, 68, 0
2, 23462, Note_on_c, 0, 60, 0
2, 23480, Note_on_c, 0, 56, 0
2, 23519, Note_on_c, 0, 62, 36
2, 23519, Control_c, 0, 64, 0
2, 23520, Note_on_c, 0, 65, 49
2, 23520, Note_on_c, 0, 72, 44
2, 23521, Note_on_c, 0, 46, 37
2, 23522, Note_on_c, 0, 56, 25
2, 23544, Control_c, 0, 64, 127
2, 23557, Note_on_c, 0, 62, 0
2, 23558, Note_on_c, 0, 65, 0
2, 23558, Note_on_c, 0, 72, 0
2, 23561, Note_on_c, 0, 46, 0
2, 23568, Note_on_c, 0, 56, 0
2, 23582, Note_on_c, 0, 72, 79
2, 23582, Note_on_c, 0, 65, 80
2, 23582, Note_on_c, 0, 62, 78
2, 23583, Note_on_c, 0, 56, 55
2, 23583, Note_on_c, 0, 46, 62
2, 23620, Note_on_c, 0, 62, 0
2, 23621, Note_on_c, 0, 65, 0
2, 23622, Note_on_c, 0, 46, 0
2, 23623, Note_on_c, 0, 72, 0
2, 23624, Note_on_c, 0, 56, 0
2, 23643, Note_on_c, 0, 56, 48
2, 23643, Note_on_c, 0, 72, 53
2, 23644, Note_on_c, 0, 46, 42
2, 23644, Note_on_c, 0, 65, 67
2, 23645, Note_on_c, 0, 62, 54
2, 23669, Note_on_c, 0, 46, 0
2, 23676, Note_on_c, 0, 62, 0
2, 23677, Note_on_c, 0, 65, 0
2, 23677, Note_on_c, 0, 56, 0
2, 23679, Note_on_c, 0, 72, 0
2, 23702, Note_on_c, 0, 56, 37
2, 23702, Note_on_c, 0, 46, 49
2, 23703, Note_on_c, 0, 72, 40
2, 23703, Note_on_c, 0, 65, 62
2, 23704, Note_on_c, 0, 62, 48
2, 23707, Note_on_c, 0, 56, 0
2, 23714, Note_on_c, 0, 46, 0
2, 23723, Note_on_c, 0, 62, 0
2, 23725, Note_on_c, 0, 72, 0
2, 23725, Note_on_c, 0, 65, 0
2, 23765, Note_on_c, 0, 72, 90
2, 23766, Note_on_c, 0, 65, 89
2, 23766, Control_c, 0, 64, 0
2, 23766, Note_on_c, 0, 68, 68
2, 23766, Note_on_c, 0, 39, 76
2, 23766, Note_on_c, 0, 61, 77
2, 23767, Note_on_c, 0, 27, 77
2, 23790, Control_c, 0, 64, 127
2, 23837, Note_on_c, 0, 27, 0
2, 23841, Note_on_c, 0, 65, 0
2, 23843, Note_on_c, 0, 68, 0
2, 23844, Note_on_c, 0, 72, 0
2, 23844, Note_on_c, 0, 39, 0
2, 23847, Note_on_c, 0, 61, 0
2, 23881, Note_on_c, 0, 61, 59
2, 23881, Note_on_c, 0, 70, 59
2, 23883, Note_on_c, 0, 27, 55
2, 23883, Note_on_c, 0, 39, 55
2, 23883, Note_on_c, 0, 65, 54
2, 23884, Control_c, 0, 64, 0
2, 23900, Control_c, 0, 64, 127
2, 23922, Note_on_c, 0, 27, 0
2, 23929, Note_on_c, 0, 39, 0
2, 23935, Note_on_c, 0, 65, 0
2, 23935, Note_on_c, 0, 70, 0
2, 23948, Note_on_c, 0, 61, 0
2, 24014, Note_on_c, 0, 67, 88
2, 24014, Note_on_c, 0, 55, 101
2, 24014, Note_on_c, 0, 59, 89
2, 24015, Note_on_c, 0, 56, 92
2, 24015, Note_on_c, 0, 62, 79
2, 24016, Control_c, 0, 64, 0
2, 24032, Control_c, 0, 64, 127
2, 24066, Note_on_c, 0, 67, 0
2, 24071, Note_on_c, 0, 55, 0
2, 24075, Note_on_c, 0, 62, 0
2, 24076, Note_on_c, 0, 59, 0
2, 24083, Note_on_c, 0, 56, 0
2, 24125, Note_on_c, 0, 62, 60
2, 24127, Note_on_c, 0, 56, 48
2, 24128, Note_on_c, 0, 53, 49
2, 24128, Note_on_c, 0, 59, 47
2, 24129, Note_on_c, 0, 52, 61
2, 24134, Note_on_c, 0, 62, 0
2, 24139, Note_on_c, 0, 59, 0
2, 24142, Note_on_c, 0, 53, 0
2, 24151, Note_on_c, 0, 56, 0
2, 24159, Note_on_c, 0, 64, 73
2, 24159, Note_on_c, 0, 54, 76
2, 24160, Control_c, 0, 64, 0
2, 24161, Note_on_c, 0, 52, 0
2, 24161, Note_on_c, 0, 57, 73
2, 24161, Note_on_c, 0, 60, 64
2, 24161, Note_on_c, 0, 53, 64
2, 24168, Note_on_c, 0, 57, 0
2, 24169, Control_c, 0, 64, 127
2, 24170, Note_on_c, 0, 60, 0
2, 24172, Note_on_c, 0, 64, 0
2, 24174, Note_on_c, 0, 54, 0
2, 24181, Note_on_c, 0, 53, 0
2, 24188, Note_on_c, 0, 67, 27
2, 24188, Control_c, 0, 64, 0
2, 24192, Note_on_c, 0, 56, 77
2, 24192, Note_on_c, 0, 59, 78
2, 24193, Note_on_c, 0, 55, 81
2, 24193, Note_on_c, 0, 62, 64
2, 24208, Control_c, 0, 64, 127
2, 24210, Note_on_c, 0, 62, 0
2, 24210, Note_on_c, 0, 59, 0
2, 24213, Note_on_c, 0, 57, 31
2, 24214, Note_on_c, 0, 67, 0
2, 24217, Note_on_c, 0, 56, 0
2, 24219, Note_on_c, 0, 57, 0
2, 24230, Control_c, 0, 64, 0
2, 24231, Note_on_c, 0, 56, 81
2, 24231, Note_on_c, 0, 61, 62
2, 24231, Note_on_c, 0, 68, 72
2, 24232, Note_on_c, 0, 57, 53
2, 24233, Note_on_c, 0, 59, 61
2, 24233, Note_on_c, 0, 64, 59
2, 24234, Note_on_c, 0, 55, 0
2, 24236, Note_on_c, 0, 66, 29
2, 24237, Note_on_c, 0, 59, 0
2, 24243, Note_on_c, 0, 64, 0
2, 24243, Control_c, 0, 64, 127
2, 24246, Note_on_c, 0, 61, 0
2, 24248, Note_on_c, 0, 68, 0
2, 24248, Note_on_c, 0, 57, 0
2, 24249, Note_on_c, 0, 66, 0
2, 24263, Control_c, 0, 64, 0
2, 24265, Note_on_c, 0, 59, 36
2, 24265, Note_on_c, 0, 62, 61
2, 24266, Note_on_c, 0, 65, 64
2, 24266, Note_on_c, 0, 70, 67
2, 24266, Note_on_c, 0, 58, 80
2, 24272, Note_on_c, 0, 56, 0
2, 24276, Note_on_c, 0, 62, 0
2, 24278, Note_on_c, 0, 65, 0
2, 24278, Control_c, 0, 64, 127
2, 24280, Note_on_c, 0, 59, 0
2, 24289, Note_on_c, 0, 70, 0
2, 24347, Note_on_c, 0, 62, 64
2, 24348, Note_on_c, 0, 71, 53
2, 24349, Control_c, 0, 64, 0
2, 24350, Note_on_c, 0, 59, 52
2, 24350, Note_on_c, 0, 68, 42
2, 24350, Note_on_c, 0, 65, 57
2, 24354, Note_on_c, 0, 58, 0
2, 24357, Note_on_c, 0, 71, 0
2, 24363, Note_on_c, 0, 68, 0
2, 24369, Note_on_c, 0, 62, 0
2, 24373, Note_on_c, 0, 73, 49
2, 24375, Note_on_c, 0, 61, 55
2, 24377, Note_on_c, 0, 65, 0
2, 24380, Control_c, 0, 64, 127
2, 24381, Note_on_c, 0, 59, 0
2, 24385, Note_on_c, 0, 73, 0
2, 24393, Control_c, 0, 64, 0
2, 24397, Note_on_c, 0, 74, 63
2, 24399, Note_on_c, 0, 64, 44
2, 24399, Note_on_c, 0, 65, 49
2, 24399, Note_on_c, 0, 62, 58
2, 24404, Note_on_c, 0, 61, 0
2, 24406, Note_on_c, 0, 64, 0
2, 24407, Note_on_c, 0, 74, 0
2, 24408, Note_on_c, 0, 65, 0
2, 24411, Control_c, 0, 64, 127
2, 24422, Note_on_c, 0, 62, 0
2, 24428, Note_on_c, 0, 76, 60
2, 24430, Control_c, 0, 64, 0
2, 24430, Note_on_c, 0, 66, 38
2, 24430, Note_on_c, 0, 64, 64
2, 24431, Note_on_c, 0, 69, 58
2, 24439, Note_on_c, 0, 69, 0
2, 24441, Note_on_c, 0, 76, 0
2, 24443, Control_c, 0, 64, 127
2, 24447, Note_on_c, 0, 66, 0
2, 24450, Note_on_c, 0, 64, 0
2, 24455, Control_c, 0, 64, 0
2, 24462, Note_on_c, 0, 69, 64
2, 24462, Note_on_c, 0, 77, 54
2, 24463, Note_on_c, 0, 66, 59
2, 24463, Note_on_c, 0, 72, 58
2, 24464, Note_on_c, 0, 65, 68
2, 24470, Note_on_c, 0, 69, 0
2, 24472, Note_on_c, 0, 72, 0
2, 24474, Note_on_c, 0, 77, 0
2, 24475, Note_on_c, 0, 66, 0
2, 24478, Note_on_c, 0, 65, 0
2, 24478, Control_c, 0, 64, 127
2, 24487, Control_c, 0, 64, 0
2, 24496, Note_on_c, 0, 68, 64
2, 24497, Note_on_c, 0, 71, 62
2, 24497, Note_on_c, 0, 79, 54
2, 24497, Note_on_c, 0, 67, 66
2, 24498, Note_on_c, 0, 74, 54
2, 24498, Note_on_c, 0, 78, 23
2, 24506, Note_on_c, 0, 71, 0
2, 24508, Note_on_c, 0, 74, 0
2, 24508, Note_on_c, 0, 68, 0
2, 24509, Note_on_c, 0, 78, 0
2, 24510, Note_on_c, 0, 79, 0
2, 24517, Note_on_c, 0, 67, 0
2, 24530, Note_on_c, 0, 80, 56
2, 24531, Note_on_c, 0, 73, 25
2, 24532, Note_on_c, 0, 68, 51
2, 24533, Note_on_c, 0, 69, 35
2, 24534, Note_on_c, 0, 71, 34
2, 24538, Control_c, 0, 64, 127
2, 24540, Note_on_c, 0, 71, 0
2, 24540, Note_on_c, 0, 73, 0
2, 24540, Note_on_c, 0, 69, 0
2, 24545, Note_on_c, 0, 80, 0
2, 24562, Note_on_c, 0, 68, 0
2, 24564, Control_c, 0, 64, 0
2, 24565, Note_on_c, 0, 70, 63
2, 24565, Note_on_c, 0, 74, 49
2, 24565, Note_on_c, 0, 82, 56
2, 24566, Note_on_c, 0, 71, 25
2, 24568, Note_on_c, 0, 77, 34
2, 24573, Control_c, 0, 64, 127
2, 24579, Note_on_c, 0, 70, 0
2, 24580, Note_on_c, 0, 74, 0
2, 24580, Note_on_c, 0, 77, 0
2, 24583, Note_on_c, 0, 82, 0
2, 24588, Note_on_c, 0, 71, 0
2, 24604, Control_c, 0, 64, 0
2, 24605, Note_on_c, 0, 79, 60
2, 24606, Note_on_c, 0, 71, 57
2, 24606, Note_on_c, 0, 74, 57
2, 24606, Note_on_c, 0, 67, 57
2, 24612, Control_c, 0, 64, 127
2, 24613, Note_on_c, 0, 68, 10
2, 24619, Note_on_c, 0, 79, 0
2, 24624, Note_on_c, 0, 71, 0
2, 24627, Note_on_c, 0, 67, 0
2, 24627, Note_on_c, 0, 74, 0
2, 24630, Note_on_c, 0, 68, 0
2, 24642, Control_c, 0, 64, 0
2, 24642, Note_on_c, 0, 68, 60
2, 24643, Note_on_c, 0, 77, 49
2, 24643, Note_on_c, 0, 71, 48
2, 24644, Note_on_c, 0, 65, 44
2, 24644, Control_c, 0, 64, 127
2, 24650, Note_on_c, 0, 71, 0
2, 24653, Note_on_c, 0, 77, 0
2, 24658, Note_on_c, 0, 68, 0
2, 24662, Note_on_c, 0, 65, 0
2, 24679, Control_c, 0, 64, 0
2, 24681, Note_on_c, 0, 76, 45
2, 24681, Note_on_c, 0, 64, 45
2, 24682, Note_on_c, 0, 68, 48
2, 24683, Note_on_c, 0, 71, 45
2, 24683, Note_on_c, 0, 65, 44
2, 24685, Control_c, 0, 64, 127
2, 24694, Note_on_c, 0, 76, 0
2, 24701, Note_on_c, 0, 68, 0
2, 24702, Note_on_c, 0, 71, 0
2, 24704, Note_on_c, 0, 65, 0
2, 24710, Note_on_c, 0, 64, 0
2, 24720, Note_on_c, 0, 74, 40
2, 24722, Note_on_c, 0, 65, 44
2, 24722, Note_on_c, 0, 62, 40
2, 24723, Note_on_c, 0, 68, 30
2, 24727, Note_on_c, 0, 62, 0
2, 24732, Note_on_c, 0, 74, 0
2, 24732, Note_on_c, 0, 65, 0
2, 24733, Note_on_c, 0, 68, 0
2, 24770, Note_on_c, 0, 75, 42
2, 24770, Note_on_c, 0, 67, 38
2, 24771, Note_on_c, 0, 70, 42
2, 24771, Control_c, 0, 64, 0
2, 24773, Note_on_c, 0, 44, 39
2, 24775, Note_on_c, 0, 72, 40
2, 24788, Control_c, 0, 64, 127
2, 24790, Note_on_c, 0, 44, 0
2, 24808, Note_on_c, 0, 72, 0
2, 24811, Note_on_c, 0, 75, 0
2, 24812, Note_on_c, 0, 70, 0
2, 24814, Note_on_c, 0, 67, 0
2, 24817, Note_on_c, 0, 58, 34
2, 24841, Note_on_c, 0, 60, 58
2, 24851, Note_on_c, 0, 60, 0
2, 24857, Note_on_c, 0, 60, 17
2, 24873, Note_on_c, 0, 65, 51
2, 24887, Note_on_c, 0, 65, 0
2, 24890, Note_on_c, 0, 67, 68
2, 24893, Note_on_c, 0, 63, 27
2, 24895, Note_on_c, 0, 60, 0
2, 24899, Note_on_c, 0, 67, 0
2, 24903, Note_on_c, 0, 70, 57
2, 24910, Note_on_c, 0, 70, 0
2, 24914, Note_on_c, 0, 72, 68
2, 24918, Note_on_c, 0, 60, 28
2, 24920, Note_on_c, 0, 63, 0
2, 24923, Note_on_c, 0, 60, 0
2, 24924, Note_on_c, 0, 72, 0
2, 24927, Note_on_c, 0, 75, 67
2, 24928, Note_on_c, 0, 58, 0
2, 24934, Note_on_c, 0, 75, 0
2, 24940, Note_on_c, 0, 77, 56
2, 24952, Note_on_c, 0, 79, 50
2, 24953, Note_on_c, 0, 77, 0
2, 24962, Note_on_c, 0, 79, 0
2, 24965, Note_on_c, 0, 82, 53
2, 24971, Note_on_c, 0, 82, 0
2, 24979, Note_on_c, 0, 84, 54
2, 24986, Note_on_c, 0, 84, 0
2, 24992, Note_on_c, 0, 87, 57
2, 24997, Note_on_c, 0, 87, 0
2, 25006, Note_on_c, 0, 89, 62
2, 25018, Note_on_c, 0, 89, 0
2, 25019, Note_on_c, 0, 91, 51
2, 25027, Note_on_c, 0, 91, 0
2, 25033, Note_on_c, 0, 94, 46
2, 25040, Note_on_c, 0, 94, 0
2, 25049, Note_on_c, 0, 95, 27
2, 25050, Note_on_c, 0, 96, 28
2, 25054, Note_on_c, 0, 95, 0
2, 25055, Note_on_c, 0, 96, 0
2, 25062, Note_on_c, 0, 99, 57
2, 25070, Note_on_c, 0, 99, 0
2, 25079, Note_on_c, 0, 101, 65
2, 25089, Note_on_c, 0, 101, 0
2, 25095, Note_on_c, 0, 103, 49
2, 25106, Note_on_c, 0, 103, 0
2, 25111, Note_on_c, 0, 106, 59
2, 25126, Note_on_c, 0, 106, 0
2, 25130, Note_on_c, 0, 51, 31
2, 25131, Note_on_c, 0, 108, 80
2, 25131, Note_on_c, 0, 44, 46
2, 25175, Note_on_c, 0, 108, 0
2, 25176, Note_on_c, 0, 51, 0
2, 25181, Note_on_c, 0, 44, 0
2, 25270, Note_on_c, 0, 20, 34
2, 25448, Note_on_c, 0, 20, 0
2, 25575, Control_c, 0, 64, 0
2, 25575, End_track
3, 0, Start_track
3, 0, Title_t, ""
3, 0, Program_c, 1, 32
3, 0, Control_c, 1, 7, 100
3, 4, Note_on_c, 1, 52, 118
3, 9, Control_c, 1, 64, 0
3, 85, Control_c, 1, 64, 127
3, 120, Note_on_c, 1, 40, 101
3, 136, Control_c, 1, 64, 0
3, 141, Note_on_c, 1, 52, 0
3, 350, Control_c, 1, 64, 127
3, 363, Note_on_c, 1, 28, 96
3, 365, Control_c, 1, 64, 0
3, 390, Control_c, 1, 64, 127
3, 463, Note_on_c, 1, 34, 27
3, 472, Note_on_c, 1, 40, 0
3, 478, Note_on_c, 1, 34, 0
3, 480, Note_on_c, 1, 39, 99
3, 484, Control_c, 1, 64, 0
3, 491, Note_on_c, 1, 28, 0
3, 550, Control_c, 1, 64, 127
3, 600, Note_on_c, 1, 51, 104
3, 606, Control_c, 1, 64, 0
3, 956, Note_on_c, 1, 39, 0
3, 960, Note_on_c, 1, 38, 91
3, 965, Note_on_c, 1, 51, 0
3, 1132, Note_on_c, 1, 38, 0
3, 1140, Note_on_c, 1, 38, 95
3, 1190, Note_on_c, 1, 38, 0
3, 1200, Note_on_c, 1, 37, 77
3, 1378, Note_on_c, 1, 49, 108
3, 1428, Note_on_c, 1, 49, 0
3, 1440, Note_on_c, 1, 48, 113
3, 1453, Note_on_c, 1, 37, 0
3, 1487, Note_on_c, 1, 43, 82
3, 1545, Note_on_c, 1, 41, 103
3, 1549, Note_on_c, 1, 43, 0
3, 1552, Note_on_c, 1, 48, 0
3, 1736, Note_on_c, 1, 29, 81
3, 1920, Note_on_c, 1, 39, 102
3, 1923, Note_on_c, 1, 41, 0
3, 1930, Note_on_c, 1, 29, 0
3, 2091, Note_on_c, 1, 48, 115
3, 2149, Note_on_c, 1, 48, 0
3, 2160, Note_on_c, 1, 44, 95
3, 2204, Note_on_c, 1, 39, 0
3, 2280, Note_on_c, 1, 32, 90
3, 2287, Note_on_c, 1, 44, 0
3, 2400, Note_on_c, 1, 37, 87
3, 2405, Note_on_c, 1, 32, 0
3, 2447, Note_on_c, 1, 37, 0
3, 2460, Note_on_c, 1, 37, 80
3, 2647, Note_on_c, 1, 42, 93
3, 2659, Note_on_c, 1, 37, 0
3, 2858, Note_on_c, 1, 49, 108
3, 2885, Note_on_c, 1, 49, 0
3, 2888, Note_on_c, 1, 42, 0
3, 2890, Note_on_c, 1, 48, 95
3, 2927, Note_on_c, 1, 48, 0
3, 2931, Note_on_c, 1, 48, 90
3, 2972, Note_on_c, 1, 36, 83
3, 2987, Note_on_c, 1, 48, 0
3, 3000, Note_on_c, 1, 36, 0
3, 3005, Note_on_c, 1, 36, 95
3, 3124, Note_on_c, 1, 36, 0
3, 3125, Note_on_c, 1, 41, 101
3, 3300, Note_on_c, 1, 48, 108
3, 3316, Note_on_c, 1, 48, 0
3, 3330, Note_on_c, 1, 47, 95
3, 3346, Note_on_c, 1, 47, 0
3, 3360, Note_on_c, 1, 46, 86
3, 3366, Note_on_c, 1, 41, 0
3, 3396, Note_on_c, 1, 46, 0
3, 3400, Note_on_c, 1, 40, 85
3, 3430, Note_on_c, 1, 40, 0
3, 3435, Note_on_c, 1, 40, 87
3, 3601, Note_on_c, 1, 40, 0
3, 3601, Note_on_c, 1, 39, 83
3, 3702, Note_on_c, 1, 51, 111
3, 3730, Note_on_c, 1, 51, 0
3, 3738, Note_on_c, 1, 51, 95
3, 3769, Note_on_c, 1, 51, 0
3, 3773, Note_on_c, 1, 49, 93
3, 3785, Note_on_c, 1, 39, 0
3, 3792, Note_on_c, 1, 49, 0
3, 3799, Note_on_c, 1, 48, 69
3, 3820, Note_on_c, 1, 48, 0
3, 3827, Note_on_c, 1, 46, 87
3, 3850, Note_on_c, 1, 46, 0
3, 3855, Note_on_c, 1, 44, 94
3, 3857, Note_on_c, 1, 46, 44
3, 3860, Note_on_c, 1, 46, 0
3, 3965, Note_on_c, 1, 44, 0
3, 3969, Note_on_c, 1, 46, 97
3, 4077, Note_on_c, 1, 46, 0
3, 4082, Note_on_c, 1, 48, 84
3, 4140, Note_on_c, 1, 36, 89
3, 4148, Note_on_c, 1, 48, 0
3, 4198, Note_on_c, 1, 37, 91
3, 4201, Note_on_c, 1, 36, 0
3, 4258, Note_on_c, 1, 49, 111
3, 4303, Note_on_c, 1, 37, 0
3, 4313, Note_on_c, 1, 49, 0
3, 4314, Note_on_c, 1, 36, 108
3, 4370, Note_on_c, 1, 48, 125
3, 4429, Note_on_c, 1, 48, 0
3, 4431, Note_on_c, 1, 46, 93
3, 4434, Note_on_c, 1, 36, 0
3, 4490, Note_on_c, 1, 46, 0
3, 4491, Note_on_c, 1, 34, 93
3, 4541, Note_on_c, 1, 34, 0
3, 4547, Note_on_c, 1, 32, 94
3, 4551, Note_on_c, 1, 34, 61
3, 4554, Note_on_c, 1, 34, 0
3, 4678, Note_on_c, 1, 42, 113
3, 4687, Note_on_c, 1, 32, 0
3, 4792, Note_on_c, 1, 42, 0
3, 4796, Note_on_c, 1, 40, 113
3, 5026, Note_on_c, 1, 40, 0
3, 5035, Note_on_c, 1, 40, 92
3, 5278, Note_on_c, 1, 39, 97
3, 5283, Note_on_c, 1, 40, 0
3, 5395, Note_on_c, 1, 51, 97
3, 5492, Note_on_c, 1, 51, 0
3, 5496, Note_on_c, 1, 51, 49
3, 5514, Note_on_c, 1, 39, 0
3, 5520, Note_on_c, 1, 51, 0
3, 5526, Note_on_c, 1, 49, 97
3, 5613, Note_on_c, 1, 42, 91
3, 5636, Note_on_c, 1, 42, 0
3, 5642, Note_on_c, 1, 30, 83
3, 5645, Note_on_c, 1, 49, 0
3, 5699, Note_on_c, 1, 30, 0
3, 5702, Note_on_c, 1, 35, 80
3, 5752, Note_on_c, 1, 35, 0
3, 5756, Note_on_c, 1, 36, 101
3, 5999, Note_on_c, 1, 41, 123
3, 6001, Note_on_c, 1, 36, 0
3, 6061, Note_on_c, 1, 41, 0
3, 6061, Note_on_c, 1, 29, 91
3, 6231, Note_on_c, 1, 29, 0
3, 6240, Note_on_c, 1, 34, 88
3, 6421, Note_on_c, 1, 39, 87
3, 6427, Note_on_c, 1, 34, 0
3, 6474, Note_on_c, 1, 39, 0
3, 6480, Note_on_c, 1, 39, 83
3, 6655, Note_on_c, 1, 39, 0
3, 6660, Note_on_c, 1, 39, 91
3, 6712, Note_on_c, 1, 39, 0
3, 6718, Note_on_c, 1, 39, 81
3, 6892, Note_on_c, 1, 39, 0
3, 6898, Note_on_c, 1, 39, 83
3, 6950, Note_on_c, 1, 39, 0
3, 6955, Note_on_c, 1, 39, 90
3, 7132, Note_on_c, 1, 39, 0
3, 7139, Note_on_c, 1, 39, 82
3, 7192, Note_on_c, 1, 39, 0
3, 7198, Note_on_c, 1, 39, 83
3, 7260, Note_on_c, 1, 51, 104
3, 7457, Note_on_c, 1, 39, 0
3, 7500, Note_on_c, 1, 39, 97
3, 7619, Note_on_c, 1, 38, 53
3, 7622, Note_on_c, 1, 39, 0
3, 7643, Note_on_c, 1, 38, 0
3, 7648, Note_on_c, 1, 39, 80
3, 7665, Note_on_c, 1, 51, 0
3, 7679, Note_on_c, 1, 40, 113
3, 7683, Note_on_c, 1, 39, 0
3, 7920, Note_on_c, 1, 44, 106
3, 8017, Note_on_c, 1, 40, 0
3, 8101, Note_on_c, 1, 40, 94
3, 8149, Note_on_c, 1, 44, 0
3, 8160, Note_on_c, 1, 39, 86
3, 8162, Note_on_c, 1, 40, 0
3, 8214, Note_on_c, 1, 51, 92
3, 8270, Note_on_c, 1, 51, 0
3, 8276, Note_on_c, 1, 51, 91
3, 8319, Note_on_c, 1, 39, 0
3, 8336, Note_on_c, 1, 39, 83
3, 8340, Note_on_c, 1, 51, 0
3, 8640, Note_on_c, 1, 39, 0
3, 8641, Note_on_c, 1, 38, 90
3, 8792, Note_on_c, 1, 44, 55
3, 8799, Note_on_c, 1, 44, 0
3, 8817, Note_on_c, 1, 48, 67
3, 8822, Note_on_c, 1, 48, 0
3, 8845, Note_on_c, 1, 53, 96
3, 8865, Note_on_c, 1, 53, 0
3, 8876, Note_on_c, 1, 38, 0
3, 8880, Note_on_c, 1, 49, 86
3, 8940, Note_on_c, 1, 44, 78
3, 9091, Note_on_c, 1, 37, 85
3, 9109, Note_on_c, 1, 44, 0
3, 9111, Note_on_c, 1, 49, 0
3, 9115, Note_on_c, 1, 37, 0
3, 9118, Note_on_c, 1, 36, 87
3, 9180, Note_on_c, 1, 36, 0
3, 9184, Note_on_c, 1, 36, 91
3, 9298, Note_on_c, 1, 48, 115
3, 9304, Note_on_c, 1, 36, 0
3, 9328, Note_on_c, 1, 36, 80
3, 9344, Note_on_c, 1, 48, 0
3, 9352, Note_on_c, 1, 36, 0
3, 9355, Note_on_c, 1, 41, 96
3, 9393, Note_on_c, 1, 53, 92
3, 9462, Note_on_c, 1, 53, 0
3, 9471, Note_on_c, 1, 53, 91
3, 9595, Note_on_c, 1, 41, 0
3, 9597, Note_on_c, 1, 39, 90
3, 9613, Note_on_c, 1, 53, 0
3, 9840, Note_on_c, 1, 32, 84
3, 9844, Note_on_c, 1, 39, 0
3, 9960, Note_on_c, 1, 38, 88
3, 9963, Note_on_c, 1, 32, 0
3, 10072, Note_on_c, 1, 38, 0
3, 10081, Note_on_c, 1, 37, 83
3, 10323, Note_on_c, 1, 42, 99
3, 10341, Note_on_c, 1, 37, 0
3, 10500, Note_on_c, 1, 30, 80
3, 10510, Note_on_c, 1, 30, 0
3, 10560, Note_on_c, 1, 36, 103
3, 10607, Note_on_c, 1, 36, 0
3, 10623, Note_on_c, 1, 36, 101
3, 10630, Note_on_c, 1, 42, 0
3, 10802, Note_on_c, 1, 41, 125
3, 10805, Note_on_c, 1, 36, 0
3, 10853, Note_on_c, 1, 41, 0
3, 10860, Note_on_c, 1, 41, 110
3, 10975, Note_on_c, 1, 36, 90
3, 11029, Note_on_c, 1, 36, 0
3, 11037, Note_on_c, 1, 41, 0
3, 11040, Note_on_c, 1, 34, 88
3, 11100, Note_on_c, 1, 40, 95
3, 11147, Note_on_c, 1, 40, 0
3, 11160, Note_on_c, 1, 40, 99
3, 11203, Note_on_c, 1, 34, 0
3, 11279, Note_on_c, 1, 40, 0
3, 11281, Note_on_c, 1, 39, 99
3, 11332, Note_on_c, 1, 39, 0
3, 11340, Note_on_c, 1, 39, 94
3, 11456, Note_on_c, 1, 34, 76
3, 11465, Note_on_c, 1, 39, 0
3, 11471, Note_on_c, 1, 34, 0
3, 11488, Note_on_c, 1, 33, 75
3, 11504, Note_on_c, 1, 33, 0
3, 11520, Note_on_c, 1, 32, 87
3, 11640, Note_on_c, 1, 39, 97
3, 11645, Note_on_c, 1, 32, 0
3, 11759, Note_on_c, 1, 39, 0
3, 11760, Note_on_c, 1, 37, 91
3, 11821, Note_on_c, 1, 49, 104
3, 11871, Note_on_c, 1, 49, 0
3, 11879, Note_on_c, 1, 48, 113
3, 11903, Note_on_c, 1, 37, 0
3, 11936, Note_on_c, 1, 36, 90
3, 11939, Note_on_c, 1, 48, 0
3, 11995, Note_on_c, 1, 36, 0
3, 11996, Note_on_c, 1, 41, 103
3, 12000, Note_on_c, 1, 34, 37
3, 12004, Note_on_c, 1, 34, 0
3, 12053, Note_on_c, 1, 29, 91
3, 12108, Note_on_c, 1, 29, 0
3, 12116, Note_on_c, 1, 41, 0
3, 12120, Note_on_c, 1, 34, 91
3, 12240, Note_on_c, 1, 39, 92
3, 12244, Note_on_c, 1, 34, 0
3, 12360, Note_on_c, 1, 44, 97
3, 12366, Note_on_c, 1, 39, 0
3, 12482, Note_on_c, 1, 37, 83
3, 12485, Note_on_c, 1, 44, 0
3, 12537, Note_on_c, 1, 37, 0
3, 12542, Note_on_c, 1, 37, 84
3, 12654, Note_on_c, 1, 37, 0
3, 12662, Note_on_c, 1, 53, 118
3, 12662, Note_on_c, 1, 37, 78
3, 12714, Note_on_c, 1, 53, 0
3, 12717, Note_on_c, 1, 37, 0
3, 12719, Note_on_c, 1, 38, 87
3, 12720, Note_on_c, 1, 54, 90
3, 12774, Note_on_c, 1, 38, 0
3, 12775, Note_on_c, 1, 54, 0
3, 12781, Note_on_c, 1, 38, 66
3, 12782, Note_on_c, 1, 54, 77
3, 12951, Note_on_c, 1, 38, 0
3, 12954, Note_on_c, 1, 43, 89
3, 12956, Note_on_c, 1, 54, 0
3, 12956, Note_on_c, 1, 41, 71
3, 12959, Note_on_c, 1, 41, 0
3, 13012, Note_on_c, 1, 31, 90
3, 13187, Note_on_c, 1, 43, 0
3, 13190, Note_on_c, 1, 31, 0
3, 13194, Note_on_c, 1, 36, 54
3, 13226, Note_on_c, 1, 48, 110
3, 13247, Note_on_c, 1, 48, 0
3, 13255, Note_on_c, 1, 46, 91
3, 13258, Note_on_c, 1, 36, 0
3, 13309, Note_on_c, 1, 42, 95
3, 13310, Note_on_c, 1, 46, 0
3, 13401, Note_on_c, 1, 42, 0
3, 13406, Note_on_c, 1, 40, 70
3, 13431, Note_on_c, 1, 40, 0
3, 13434, Note_on_c, 1, 41, 92
3, 13491, Note_on_c, 1, 41, 0
3, 13496, Note_on_c, 1, 41, 88
3, 13617, Note_on_c, 1, 55, 115
3, 13619, Note_on_c, 1, 53, 60
3, 13622, Note_on_c, 1, 53, 0
3, 13645, Note_on_c, 1, 55, 0
3, 13650, Note_on_c, 1, 53, 94
3, 13733, Note_on_c, 1, 53, 0
3, 13741, Note_on_c, 1, 52, 108
3, 13753, Note_on_c, 1, 41, 0
3, 13792, Note_on_c, 1, 52, 0
3, 13798, Note_on_c, 1, 52, 108
3, 13855, Note_on_c, 1, 52, 0
3, 13858, Note_on_c, 1, 51, 97
3, 13915, Note_on_c, 1, 51, 0
3, 13919, Note_on_c, 1, 50, 91
3, 13979, Note_on_c, 1, 44, 94
3, 13984, Note_on_c, 1, 50, 0
3, 14100, Note_on_c, 1, 44, 0
3, 14100, Note_on_c, 1, 41, 82
3, 14153, Note_on_c, 1, 41, 0
3, 14158, Note_on_c, 1, 37, 86
3, 14273, Note_on_c, 1, 37, 0
3, 14278, Note_on_c, 1, 36, 89
3, 14391, Note_on_c, 1, 36, 0
3, 14400, Note_on_c, 1, 35, 82
3, 14461, Note_on_c, 1, 47, 101
3, 14504, Note_on_c, 1, 47, 0
3, 14517, Note_on_c, 1, 47, 94
3, 14574, Note_on_c, 1, 35, 0
3, 14576, Note_on_c, 1, 40, 91
3, 14628, Note_on_c, 1, 40, 0
3, 14635, Note_on_c, 1, 47, 0
3, 14640, Note_on_c, 1, 40, 94
3, 14876, Note_on_c, 1, 34, 91
3, 14881, Note_on_c, 1, 40, 0
3, 15095, Note_on_c, 1, 39, 75
3, 15099, Note_on_c, 1, 34, 0
3, 15127, Note_on_c, 1, 51, 104
3, 15179, Note_on_c, 1, 51, 0
3, 15184, Note_on_c, 1, 51, 94
3, 15293, Note_on_c, 1, 39, 0
3, 15299, Note_on_c, 1, 38, 39
3, 15318, Note_on_c, 1, 38, 0
3, 15330, Note_on_c, 1, 39, 72
3, 15353, Note_on_c, 1, 51, 0
3, 15356, Note_on_c, 1, 39, 0
3, 15360, Note_on_c, 1, 40, 82
3, 15393, Note_on_c, 1, 56, 62
3, 15567, Note_on_c, 1, 56, 0
3, 15594, Note_on_c, 1, 40, 0
3, 15600, Note_on_c, 1, 40, 94
3, 15840, Note_on_c, 1, 39, 94
3, 15841, Note_on_c, 1, 40, 0
3, 16239, Note_on_c, 1, 51, 99
3, 16260, Note_on_c, 1, 39, 0
3, 16277, Note_on_c, 1, 49, 74
3, 16283, Note_on_c, 1, 51, 0
3, 16290, Note_on_c, 1, 49, 0
3, 16295, Note_on_c, 1, 39, 65
3, 16305, Note_on_c, 1, 39, 0
3, 16320, Note_on_c, 1, 50, 101
3, 16359, Note_on_c, 1, 44, 85
3, 16366, Note_on_c, 1, 50, 0
3, 16382, Note_on_c, 1, 44, 0
3, 16383, Note_on_c, 1, 38, 85
3, 16535, Note_on_c, 1, 38, 0
3, 16535, Note_on_c, 1, 44, 77
3, 16557, Note_on_c, 1, 44, 0
3, 16560, Note_on_c, 1, 37, 85
3, 16718, Note_on_c, 1, 55, 105
3, 16730, Note_on_c, 1, 37, 0
3, 16757, Note_on_c, 1, 46, 55
3, 16761, Note_on_c, 1, 55, 0
3, 16771, Note_on_c, 1, 46, 0
3, 16778, Note_on_c, 1, 47, 78
3, 16798, Note_on_c, 1, 47, 0
3, 16800, Note_on_c, 1, 48, 82
3, 16833, Note_on_c, 1, 48, 0
3, 16835, Note_on_c, 1, 43, 44
3, 16848, Note_on_c, 1, 43, 0
3, 16855, Note_on_c, 1, 39, 80
3, 16948, Note_on_c, 1, 39, 0
3, 16951, Note_on_c, 1, 40, 71
3, 16973, Note_on_c, 1, 41, 105
3, 16977, Note_on_c, 1, 40, 0
3, 17162, Note_on_c, 1, 41, 0
3, 17163, Note_on_c, 1, 36, 81
3, 17218, Note_on_c, 1, 36, 0
3, 17222, Note_on_c, 1, 38, 88
3, 17266, Note_on_c, 1, 38, 0
3, 17278, Note_on_c, 1, 39, 85
3, 17520, Note_on_c, 1, 44, 94
3, 17526, Note_on_c, 1, 39, 0
3, 17639, Note_on_c, 1, 32, 83
3, 17766, Note_on_c, 1, 37, 83
3, 17768, Note_on_c, 1, 44, 0
3, 17770, Note_on_c, 1, 32, 0
3, 17998, Note_on_c, 1, 42, 98
3, 18002, Note_on_c, 1, 37, 0
3, 18002, Note_on_c, 1, 40, 41
3, 18005, Note_on_c, 1, 40, 0
3, 18240, Note_on_c, 1, 48, 94
3, 18287, Note_on_c, 1, 48, 0
3, 18306, Note_on_c, 1, 48, 83
3, 18325, Note_on_c, 1, 42, 0
3, 18451, Note_on_c, 1, 42, 87
3, 18474, Note_on_c, 1, 42, 0
3, 18481, Note_on_c, 1, 48, 0
3, 18481, Note_on_c, 1, 41, 92
3, 18535, Note_on_c, 1, 41, 0
3, 18541, Note_on_c, 1, 41, 85
3, 18660, Note_on_c, 1, 48, 85
3, 18669, Note_on_c, 1, 48, 0
3, 18690, Note_on_c, 1, 47, 81
3, 18701, Note_on_c, 1, 47, 0
3, 18720, Note_on_c, 1, 46, 82
3, 18774, Note_on_c, 1, 46, 0
3, 18782, Note_on_c, 1, 46, 86
3, 18785, Note_on_c, 1, 41, 0
3, 18838, Note_on_c, 1, 41, 80
3, 18845, Note_on_c, 1, 41, 0
3, 18872, Note_on_c, 1, 40, 80
3, 18882, Note_on_c, 1, 40, 0
3, 18901, Note_on_c, 1, 39, 88
3, 18926, Note_on_c, 1, 46, 0
3, 18959, Note_on_c, 1, 51, 82
3, 19018, Note_on_c, 1, 55, 79
3, 19022, Note_on_c, 1, 51, 0
3, 19139, Note_on_c, 1, 39, 0
3, 19139, Note_on_c, 1, 42, 58
3, 19150, Note_on_c, 1, 42, 0
3, 19168, Note_on_c, 1, 43, 57
3, 19191, Note_on_c, 1, 43, 0
3, 19200, Note_on_c, 1, 44, 114
3, 19258, Note_on_c, 1, 55, 0
3, 19320, Note_on_c, 1, 46, 99
3, 19370, Note_on_c, 1, 44, 0
3, 19435, Note_on_c, 1, 46, 0
3, 19440, Note_on_c, 1, 48, 91
3, 19554, Note_on_c, 1, 48, 0
3, 19564, Note_on_c, 1, 49, 82
3, 19622, Note_on_c, 1, 37, 86
3, 19632, Note_on_c, 1, 49, 0
3, 19673, Note_on_c, 1, 37, 0
3, 19680, Note_on_c, 1, 36, 92
3, 19734, Note_on_c, 1, 51, 97
3, 19790, Note_on_c, 1, 36, 0
3, 19793, Note_on_c, 1, 34, 75
3, 19797, Note_on_c, 1, 51, 0
3, 19848, Note_on_c, 1, 49, 94
3, 19898, Note_on_c, 1, 34, 0
3, 19909, Note_on_c, 1, 32, 84
3, 19914, Note_on_c, 1, 49, 0
3, 19962, Note_on_c, 1, 48, 103
3, 20007, Note_on_c, 1, 32, 0
3, 20026, Note_on_c, 1, 30, 77
3, 20027, Note_on_c, 1, 48, 0
3, 20145, Note_on_c, 1, 30, 0
3, 20146, Note_on_c, 1, 40, 96
3, 20209, Note_on_c, 1, 28, 90
3, 20215, Note_on_c, 1, 40, 0
3, 20396, Note_on_c, 1, 40, 105
3, 20525, Note_on_c, 1, 28, 0
3, 20598, Note_on_c, 1, 40, 0
3, 20604, Note_on_c, 1, 41, 73
3, 20611, Note_on_c, 1, 41, 0
3, 20623, Note_on_c, 1, 40, 83
3, 20637, Note_on_c, 1, 40, 0
3, 20640, Note_on_c, 1, 39, 90
3, 20880, Note_on_c, 1, 37, 83
3, 20881, Note_on_c, 1, 39, 0
3, 20998, Note_on_c, 1, 37, 0
3, 21000, Note_on_c, 1, 42, 98
3, 21120, Note_on_c, 1, 36, 96
3, 21125, Note_on_c, 1, 42, 0
3, 21360, Note_on_c, 1, 41, 108
3, 21365, Note_on_c, 1, 36, 0
3, 21530, Note_on_c, 1, 41, 0
3, 21540, Note_on_c, 1, 37, 67
3, 21546, Note_on_c, 1, 37, 0
3, 21575, Note_on_c, 1, 36, 72
3, 21581, Note_on_c, 1, 36, 0
3, 21600, Note_on_c, 1, 34, 83
3, 21720, Note_on_c, 1, 46, 95
3, 21829, Note_on_c, 1, 46, 0
3, 21838, Note_on_c, 1, 47, 113
3, 21854, Note_on_c, 1, 34, 0
3, 21934, Note_on_c, 1, 50, 92
3, 21954, Note_on_c, 1, 50, 0
3, 21964, Note_on_c, 1, 53, 91
3, 21993, Note_on_c, 1, 53, 0
3, 21998, Note_on_c, 1, 53, 87
3, 22015, Note_on_c, 1, 53, 0
3, 22025, Note_on_c, 1, 56, 80
3, 22038, Note_on_c, 1, 47, 0
3, 22050, Note_on_c, 1, 56, 0
3, 22057, Note_on_c, 1, 50, 81
3, 22080, Note_on_c, 1, 48, 82
3, 22082, Note_on_c, 1, 50, 0
3, 22122, Note_on_c, 1, 48, 0
3, 22141, Note_on_c, 1, 48, 83
3, 22292, Note_on_c, 1, 43, 70
3, 22314, Note_on_c, 1, 43, 0
3, 22320, Note_on_c, 1, 39, 84
3, 22324, Note_on_c, 1, 48, 0
3, 22382, Note_on_c, 1, 51, 106
3, 22529, Note_on_c, 1, 51, 0
3, 22531, Note_on_c, 1, 49, 81
3, 22550, Note_on_c, 1, 49, 0
3, 22554, Note_on_c, 1, 39, 0
3, 22559, Note_on_c, 1, 50, 88
3, 22708, Note_on_c, 1, 50, 0
3, 22740, Note_on_c, 1, 41, 74
3, 22798, Note_on_c, 1, 41, 0
3, 22800, Note_on_c, 1, 37, 71
3, 22861, Note_on_c, 1, 40, 83
3, 22863, Note_on_c, 1, 37, 0
3, 22921, Note_on_c, 1, 52, 115
3, 22956, Note_on_c, 1, 40, 0
3, 22961, Note_on_c, 1, 37, 25
3, 22965, Note_on_c, 1, 40, 45
3, 22970, Note_on_c, 1, 37, 0
3, 22978, Note_on_c, 1, 52, 0
3, 22980, Note_on_c, 1, 49, 97
3, 22981, Note_on_c, 1, 40, 0
3, 23019, Note_on_c, 1, 40, 32
3, 23024, Note_on_c, 1, 40, 0
3, 23038, Note_on_c, 1, 49, 0
3, 23039, Note_on_c, 1, 48, 95
3, 23239, Note_on_c, 1, 43, 58
3, 23246, Note_on_c, 1, 43, 0
3, 23257, Note_on_c, 1, 39, 58
3, 23275, Note_on_c, 1, 39, 0
3, 23278, Note_on_c, 1, 48, 0
3, 23278, Note_on_c, 1, 41, 99
3, 23400, Note_on_c, 1, 36, 95
3, 23405, Note_on_c, 1, 41, 0
3, 23490, Note_on_c, 1, 36, 0
3, 23493, Note_on_c, 1, 35, 75
3, 23510, Note_on_c, 1, 35, 0
3, 23521, Note_on_c, 1, 34, 81
3, 23702, Note_on_c, 1, 39, 84
3, 23708, Note_on_c, 1, 34, 0
3, 23754, Note_on_c, 1, 39, 0
3, 23760, Note_on_c, 1, 39, 83
3, 23999, Note_on_c, 1, 39, 0
3, 24001, Note_on_c, 1, 32, 87
3, 24750, Note_on_c, 1, 32, 0
3, 24750, End_track
4, 0, Start_track
4, 0, Title_t, ""
4, 0, Program_c, 9, 32
4, 3, Note_on_c, 9, 57, 72
4, 10, Note_on_c, 9, 57, 0
4, 125, Note_on_c, 9, 59, 63
4, 131, Note_on_c, 9, 59, 0
4, 227, Note_on_c, 9, 59, 50
4, 233, Note_on_c, 9, 59, 0
4, 247, Note_on_c, 9, 59, 47
4, 264, Note_on_c, 9, 59, 0
4, 299, Note_on_c, 9, 59, 63
4, 308, Note_on_c, 9, 59, 0
4, 355, Note_on_c, 9, 59, 68
4, 364, Note_on_c, 9, 59, 0
4, 476, Note_on_c, 9, 59, 75
4, 484, Note_on_c, 9, 59, 0
4, 540, Note_on_c, 9, 59, 71
4, 548, Note_on_c, 9, 59, 0
4, 643, Note_on_c, 9, 59, 34
4, 649, Note_on_c, 9, 59, 0
4, 661, Note_on_c, 9, 59, 66
4, 672, Note_on_c, 9, 59, 0
4, 701, Note_on_c, 9, 59, 95
4, 768, Note_on_c, 9, 59, 0
4, 822, Note_on_c, 9, 59, 46
4, 829, Note_on_c, 9, 59, 0
4, 846, Note_on_c, 9, 59, 42
4, 857, Note_on_c, 9, 59, 0
4, 886, Note_on_c, 9, 59, 38
4, 890, Note_on_c, 9, 59, 0
4, 939, Note_on_c, 9, 53, 57
4, 941, Note_on_c, 9, 59, 74
4, 943, Note_on_c, 9, 53, 0
4, 951, Note_on_c, 9, 59, 0
4, 968, Note_on_c, 9, 59, 50
4, 993, Note_on_c, 9, 59, 0
4, 1005, Note_on_c, 9, 59, 49
4, 1011, Note_on_c, 9, 59, 0
4, 1089, Note_on_c, 9, 59, 58
4, 1099, Note_on_c, 9, 59, 0
4, 1122, Note_on_c, 9, 44, 33
4, 1125, Note_on_c, 9, 44, 0
4, 1176, Note_on_c, 9, 44, 33
4, 1181, Note_on_c, 9, 44, 0
4, 1196, Note_on_c, 9, 59, 49
4, 1222, Note_on_c, 9, 59, 0
4, 1235, Note_on_c, 9, 59, 51
4, 1242, Note_on_c, 9, 59, 0
4, 1255, Note_on_c, 9, 59, 46
4, 1261, Note_on_c, 9, 59, 0
4, 1291, Note_on_c, 9, 59, 95
4, 1300, Note_on_c, 9, 59, 0
4, 1361, Note_on_c, 9, 59, 47
4, 1366, Note_on_c, 9, 59, 0
4, 1385, Note_on_c, 9, 59, 57
4, 1394, Note_on_c, 9, 59, 0
4, 1429, Note_on_c, 9, 44, 37
4, 1433, Note_on_c, 9, 44, 0
4, 1450, Note_on_c, 9, 59, 37
4, 1468, Note_on_c, 9, 59, 0
4, 1483, Note_on_c, 9, 59, 40
4, 1490, Note_on_c, 9, 59, 0
4, 1505, Note_on_c, 9, 59, 45
4, 1514, Note_on_c, 9, 59, 0
4, 1563, Note_on_c, 9, 59, 48
4, 1568, Note_on_c, 9, 59, 0
4, 1656, Note_on_c, 9, 44, 25
4, 1659, Note_on_c, 9, 44, 0
4, 1673, Note_on_c, 9, 59, 48
4, 1692, Note_on_c, 9, 59, 0
4, 1835, Note_on_c, 9, 51, 60
4, 1837, Note_on_c, 9, 53, 58
4, 1841, Note_on_c, 9, 53, 0
4, 1844, Note_on_c, 9, 51, 0
4, 1928, Note_on_c, 9, 59, 66
4, 1936, Note_on_c, 9, 59, 0
4, 1965, Note_on_c, 9, 59, 55
4, 1971, Note_on_c, 9, 59, 0
4, 1988, Note_on_c, 9, 59, 55
4, 1994, Note_on_c, 9, 59, 0
4, 2046, Note_on_c, 9, 59, 72
4, 2055, Note_on_c, 9, 59, 0
4, 2151, Note_on_c, 9, 59, 54
4, 2156, Note_on_c, 9, 59, 0
4, 2174, Note_on_c, 9, 59, 46
4, 2194, Note_on_c, 9, 59, 0
4, 2272, Note_on_c, 9, 59, 37
4, 2278, Note_on_c, 9, 59, 0
4, 2297, Note_on_c, 9, 59, 31
4, 2306, Note_on_c, 9, 59, 0
4, 2333, Note_on_c, 9, 51, 48
4, 2333, Note_on_c, 9, 53, 45
4, 2336, Note_on_c, 9, 51, 0
4, 2337, Note_on_c, 9, 53, 0
4, 2355, Note_on_c, 9, 59, 44
4, 2366, Note_on_c, 9, 59, 0
4, 2393, Note_on_c, 9, 59, 69
4, 2397, Note_on_c, 9, 59, 0
4, 2414, Note_on_c, 9, 59, 96
4, 2428, Note_on_c, 9, 59, 0
4, 2509, Note_on_c, 9, 59, 35
4, 2514, Note_on_c, 9, 59, 0
4, 2526, Note_on_c, 9, 59, 41
4, 2549, Note_on_c, 9, 59, 0
4, 2632, Note_on_c, 9, 59, 51
4, 2640, Note_on_c, 9, 59, 0
4, 2761, Note_on_c, 9, 59, 60
4, 2767, Note_on_c, 9, 59, 0
4, 2801, Note_on_c, 9, 59, 74
4, 2807, Note_on_c, 9, 59, 0
4, 2861, Note_on_c, 9, 59, 46
4, 2866, Note_on_c, 9, 59, 0
4, 2882, Note_on_c, 9, 59, 66
4, 2898, Note_on_c, 9, 59, 0
4, 3008, Note_on_c, 9, 59, 80
4, 3015, Note_on_c, 9, 59, 0
4, 3114, Note_on_c, 9, 59, 42
4, 3121, Note_on_c, 9, 59, 0
4, 3136, Note_on_c, 9, 59, 50
4, 3147, Note_on_c, 9, 59, 0
4, 3171, Note_on_c, 9, 51, 48
4, 3172, Note_on_c, 9, 53, 41
4, 3175, Note_on_c, 9, 51, 0
4, 3176, Note_on_c, 9, 53, 0
4, 3251, Note_on_c, 9, 59, 79
4, 3258, Note_on_c, 9, 59, 0
4, 3291, Note_on_c, 9, 59, 68
4, 3296, Note_on_c, 9, 59, 0
4, 3345, Note_on_c, 9, 59, 65
4, 3353, Note_on_c, 9, 59, 0
4, 3362, Note_on_c, 9, 59, 61
4, 3366, Note_on_c, 9, 59, 0
4, 3377, Note_on_c, 9, 53, 53
4, 3378, Note_on_c, 9, 51, 33
4, 3381, Note_on_c, 9, 53, 0
4, 3382, Note_on_c, 9, 51, 0
4, 3418, Note_on_c, 9, 59, 68
4, 3421, Note_on_c, 9, 59, 0
4, 3466, Note_on_c, 9, 59, 50
4, 3473, Note_on_c, 9, 59, 0
4, 3489, Note_on_c, 9, 59, 66
4, 3513, Note_on_c, 9, 59, 0
4, 3582, Note_on_c, 9, 59, 49
4, 3587, Note_on_c, 9, 59, 0
4, 3606, Note_on_c, 9, 59, 40
4, 3626, Note_on_c, 9, 59, 0
4, 3637, Note_on_c, 9, 44, 29
4, 3642, Note_on_c, 9, 44, 0
4, 3660, Note_on_c, 9, 59, 39
4, 3691, Note_on_c, 9, 59, 0
4, 3698, Note_on_c, 9, 44, 36
4, 3703, Note_on_c, 9, 44, 0
4, 3722, Note_on_c, 9, 59, 31
4, 3748, Note_on_c, 9, 59, 0
4, 3758, Note_on_c, 9, 44, 37
4, 3765, Note_on_c, 9, 44, 0
4, 3782, Note_on_c, 9, 59, 41
4, 3794, Note_on_c, 9, 59, 0
4, 3816, Note_on_c, 9, 44, 56
4, 3824, Note_on_c, 9, 44, 0
4, 3838, Note_on_c, 9, 59, 47
4, 3840, Note_on_c, 9, 57, 37
4, 3853, Note_on_c, 9, 57, 0
4, 3853, Note_on_c, 9, 59, 0
4, 3973, Note_on_c, 9, 59, 70
4, 3979, Note_on_c, 9, 59, 0
4, 4032, Note_on_c, 9, 59, 51
4, 4037, Note_on_c, 9, 59, 0
4, 4066, Note_on_c, 9, 59, 58
4, 4072, Note_on_c, 9, 59, 0
4, 4096, Note_on_c, 9, 59, 96
4, 4127, Note_on_c, 9, 59, 0
4, 4152, Note_on_c, 9, 59, 48
4, 4157, Note_on_c, 9, 59, 0
4, 4188, Note_on_c, 9, 59, 51
4, 4193, Note_on_c, 9, 59, 0
4, 4215, Note_on_c, 9, 51, 53
4, 4215, Note_on_c, 9, 59, 45
4, 4217, Note_on_c, 9, 53, 45
4, 4225, Note_on_c, 9, 59, 0
4, 4225, Note_on_c, 9, 51, 0
4, 4250, Note_on_c, 9, 53, 0
4, 4264, Note_on_c, 9, 59, 54
4, 4271, Note_on_c, 9, 59, 0
4, 4292, Note_on_c, 9, 59, 52
4, 4296, Note_on_c, 9, 59, 0
4, 4315, Note_on_c, 9, 51, 37
4, 4321, Note_on_c, 9, 59, 71
4, 4322, Note_on_c, 9, 53, 62
4, 4323, Note_on_c, 9, 51, 0
4, 4336, Note_on_c, 9, 53, 0
4, 4351, Note_on_c, 9, 59, 0
4, 4376, Note_on_c, 9, 59, 51
4, 4384, Note_on_c, 9, 59, 0
4, 4402, Note_on_c, 9, 59, 50
4, 4408, Note_on_c, 9, 59, 0
4, 4424, Note_on_c, 9, 51, 53
4, 4435, Note_on_c, 9, 51, 0
4, 4435, Note_on_c, 9, 59, 69
4, 4436, Note_on_c, 9, 53, 57
4, 4458, Note_on_c, 9, 53, 0
4, 4468, Note_on_c, 9, 59, 0
4, 4491, Note_on_c, 9, 59, 50
4, 4500, Note_on_c, 9, 59, 0
4, 4520, Note_on_c, 9, 59, 57
4, 4528, Note_on_c, 9, 59, 0
4, 4542, Note_on_c, 9, 51, 45
4, 4554, Note_on_c, 9, 53, 57
4, 4555, Note_on_c, 9, 59, 68
4, 4559, Note_on_c, 9, 51, 0
4, 4571, Note_on_c, 9, 53, 0
4, 4584, Note_on_c, 9, 59, 0
4, 4606, Note_on_c, 9, 59, 54
4, 4612, Note_on_c, 9, 59, 0
4, 4640, Note_on_c, 9, 59, 47
4, 4648, Note_on_c, 9, 59, 0
4, 4666, Note_on_c, 9, 51, 29
4, 4670, Note_on_c, 9, 53, 51
4, 4670, Note_on_c, 9, 59, 67
4, 4679, Note_on_c, 9, 51, 0
4, 4696, Note_on_c, 9, 59, 0
4, 4717, Note_on_c, 9, 53, 0
4, 4732, Note_on_c, 9, 59, 31
4, 4742, Note_on_c, 9, 59, 0
4, 4761, Note_on_c, 9, 51, 37
4, 4767, Note_on_c, 9, 51, 0
4, 4793, Note_on_c, 9, 57, 80
4, 4796, Note_on_c, 9, 36, 73
4, 4807, Note_on_c, 9, 36, 0
4, 4918, Note_on_c, 9, 57, 0
4, 4951, Note_on_c, 9, 59, 48
4, 4957, Note_on_c, 9, 59, 0
4, 4981, Note_on_c, 9, 59, 34
4, 4990, Note_on_c, 9, 59, 0
4, 5010, Note_on_c, 9, 59, 55
4, 5015, Note_on_c, 9, 59, 0
4, 5039, Note_on_c, 9, 59, 74
4, 5051, Note_on_c, 9, 59, 0
4, 5099, Note_on_c, 9, 59, 49
4, 5131, Note_on_c, 9, 59, 0
4, 5163, Note_on_c, 9, 59, 41
4, 5231, Note_on_c, 9, 59, 0
4, 5256, Note_on_c, 9, 59, 37
4, 5264, Note_on_c, 9, 59, 0
4, 5279, Note_on_c, 9, 53, 55
4, 5280, Note_on_c, 9, 59, 37
4, 5281, Note_on_c, 9, 51, 42
4, 5284, Note_on_c, 9, 59, 0
4, 5285, Note_on_c, 9, 51, 0
4, 5286, Note_on_c, 9, 53, 0
4, 5337, Note_on_c, 9, 59, 44
4, 5354, Note_on_c, 9, 59, 0
4, 5398, Note_on_c, 9, 59, 40
4, 5434, Note_on_c, 9, 59, 0
4, 5492, Note_on_c, 9, 59, 32
4, 5499, Note_on_c, 9, 59, 0
4, 5520, Note_on_c, 9, 59, 30
4, 5541, Note_on_c, 9, 59, 0
4, 5580, Note_on_c, 9, 59, 36
4, 5607, Note_on_c, 9, 59, 0
4, 5610, Note_on_c, 9, 44, 52
4, 5630, Note_on_c, 9, 44, 0
4, 5638, Note_on_c, 9, 59, 24
4, 5663, Note_on_c, 9, 59, 0
4, 5668, Note_on_c, 9, 44, 34
4, 5690, Note_on_c, 9, 44, 0
4, 5726, Note_on_c, 9, 44, 36
4, 5734, Note_on_c, 9, 44, 0
4, 5757, Note_on_c, 9, 59, 38
4, 5771, Note_on_c, 9, 59, 0
4, 5850, Note_on_c, 9, 59, 54
4, 5854, Note_on_c, 9, 59, 0
4, 5879, Note_on_c, 9, 59, 91
4, 5896, Note_on_c, 9, 59, 0
4, 5913, Note_on_c, 9, 59, 89
4, 5928, Note_on_c, 9, 59, 0
4, 5943, Note_on_c, 9, 59, 80
4, 5963, Note_on_c, 9, 59, 0
4, 6035, Note_on_c, 9, 59, 34
4, 6040, Note_on_c, 9, 59, 0
4, 6067, Note_on_c, 9, 59, 22
4, 6073, Note_on_c, 9, 59, 0
4, 6096, Note_on_c, 9, 51, 29
4, 6097, Note_on_c, 9, 53, 36
4, 6106, Note_on_c, 9, 53, 0
4, 6106, Note_on_c, 9, 51, 0
4, 6130, Note_on_c, 9, 51, 33
4, 6131, Note_on_c, 9, 53, 42
4, 6144, Note_on_c, 9, 51, 0
4, 6153, Note_on_c, 9, 53, 0
4, 6184, Note_on_c, 9, 59, 38
4, 6194, Note_on_c, 9, 59, 0
4, 6216, Note_on_c, 9, 59, 73
4, 6221, Note_on_c, 9, 59, 0
4, 6245, Note_on_c, 9, 59, 108
4, 6254, Note_on_c, 9, 59, 0
4, 6332, Note_on_c, 9, 59, 47
4, 6337, Note_on_c, 9, 59, 0
4, 6361, Note_on_c, 9, 59, 48
4, 6366, Note_on_c, 9, 59, 0
4, 6400, Note_on_c, 9, 51, 36
4, 6402, Note_on_c, 9, 53, 46
4, 6408, Note_on_c, 9, 51, 0
4, 6414, Note_on_c, 9, 53, 0
4, 6484, Note_on_c, 9, 59, 41
4, 6492, Note_on_c, 9, 59, 0
4, 6519, Note_on_c, 9, 59, 44
4, 6526, Note_on_c, 9, 59, 0
4, 6638, Note_on_c, 9, 59, 52
4, 6643, Note_on_c, 9, 59, 0
4, 6680, Note_on_c, 9, 59, 46
4, 6684, Note_on_c, 9, 59, 0
4, 6695, Note_on_c, 9, 59, 62
4, 6706, Note_on_c, 9, 59, 0
4, 6713, Note_on_c, 9, 59, 70
4, 6722, Note_on_c, 9, 59, 0
4, 6760, Note_on_c, 9, 59, 66
4, 6763, Note_on_c, 9, 59, 0
4, 6792, Note_on_c, 9, 59, 71
4, 6801, Note_on_c, 9, 59, 0
4, 6843, Note_on_c, 9, 59, 68
4, 6849, Note_on_c, 9, 59, 0
4, 6886, Note_on_c, 9, 59, 51
4, 6891, Note_on_c, 9, 59, 0
4, 6964, Note_on_c, 9, 59, 51
4, 6971, Note_on_c, 9, 59, 0
4, 7056, Note_on_c, 9, 59, 36
4, 7063, Note_on_c, 9, 59, 0
4, 7082, Note_on_c, 9, 59, 41
4, 7098, Note_on_c, 9, 59, 0
4, 7120, Note_on_c, 9, 59, 53
4, 7121, Note_on_c, 9, 46, 38
4, 7168, Note_on_c, 9, 46, 0
4, 7176, Note_on_c, 9, 59, 0
4, 7205, Note_on_c, 9, 59, 43
4, 7211, Note_on_c, 9, 59, 0
4, 7240, Note_on_c, 9, 46, 46
4, 7240, Note_on_c, 9, 59, 54
4, 7290, Note_on_c, 9, 59, 0
4, 7294, Note_on_c, 9, 46, 0
4, 7319, Note_on_c, 9, 59, 44
4, 7324, Note_on_c, 9, 59, 0
4, 7358, Note_on_c, 9, 59, 55
4, 7360, Note_on_c, 9, 46, 39
4, 7398, Note_on_c, 9, 59, 0
4, 7434, Note_on_c, 9, 46, 0
4, 7444, Note_on_c, 9, 59, 55
4, 7451, Note_on_c, 9, 59, 0
4, 7485, Note_on_c, 9, 59, 64
4, 7486, Note_on_c, 9, 46, 47
4, 7544, Note_on_c, 9, 59, 0
4, 7571, Note_on_c, 9, 46, 0
4, 7572, Note_on_c, 9, 59, 42
4, 7587, Note_on_c, 9, 59, 0
4, 7606, Note_on_c, 9, 46, 34
4, 7617, Note_on_c, 9, 46, 0
4, 7664, Note_on_c, 9, 46, 28
4, 7670, Note_on_c, 9, 46, 0
4, 7684, Note_on_c, 9, 59, 51
4, 7685, Note_on_c, 9, 57, 42
4, 7689, Note_on_c, 9, 57, 0
4, 7693, Note_on_c, 9, 59, 0
4, 7892, Note_on_c, 9, 59, 37
4, 7898, Note_on_c, 9, 59, 0
4, 7915, Note_on_c, 9, 59, 51
4, 7935, Note_on_c, 9, 59, 0
4, 8044, Note_on_c, 9, 59, 50
4, 8090, Note_on_c, 9, 59, 0
4, 8164, Note_on_c, 9, 59, 49
4, 8166, Note_on_c, 9, 49, 45
4, 8173, Note_on_c, 9, 49, 0
4, 8174, Note_on_c, 9, 59, 0
4, 8317, Note_on_c, 9, 59, 64
4, 8321, Note_on_c, 9, 59, 0
4, 8376, Note_on_c, 9, 59, 24
4, 8379, Note_on_c, 9, 59, 0
4, 8395, Note_on_c, 9, 59, 70
4, 8425, Note_on_c, 9, 59, 0
4, 8552, Note_on_c, 9, 59, 33
4, 8556, Note_on_c, 9, 59, 0
4, 8574, Note_on_c, 9, 59, 47
4, 8581, Note_on_c, 9, 59, 0
4, 8615, Note_on_c, 9, 59, 90
4, 8634, Note_on_c, 9, 59, 0
4, 8756, Note_on_c, 9, 59, 64
4, 8760, Note_on_c, 9, 59, 0
4, 8859, Note_on_c, 9, 59, 38
4, 8863, Note_on_c, 9, 59, 0
4, 8876, Note_on_c, 9, 59, 56
4, 8885, Note_on_c, 9, 59, 0
4, 9042, Note_on_c, 9, 53, 64
4, 9065, Note_on_c, 9, 53, 0
4, 9096, Note_on_c, 9, 59, 34
4, 9100, Note_on_c, 9, 59, 0
4, 9125, Note_on_c, 9, 59, 65
4, 9128, Note_on_c, 9, 53, 48
4, 9133, Note_on_c, 9, 59, 0
4, 9138, Note_on_c, 9, 53, 0
4, 9179, Note_on_c, 9, 59, 46
4, 9183, Note_on_c, 9, 59, 0
4, 9216, Note_on_c, 9, 59, 50
4, 9219, Note_on_c, 9, 53, 43
4, 9227, Note_on_c, 9, 59, 0
4, 9228, Note_on_c, 9, 53, 0
4, 9261, Note_on_c, 9, 59, 43
4, 9271, Note_on_c, 9, 59, 0
4, 9304, Note_on_c, 9, 59, 55
4, 9304, Note_on_c, 9, 53, 54
4, 9313, Note_on_c, 9, 53, 0
4, 9315, Note_on_c, 9, 59, 0
4, 9347, Note_on_c, 9, 59, 46
4, 9354, Note_on_c, 9, 59, 0
4, 9396, Note_on_c, 9, 53, 45
4, 9396, Note_on_c, 9, 59, 62
4, 9405, Note_on_c, 9, 59, 0
4, 9408, Note_on_c, 9, 53, 0
4, 9438, Note_on_c, 9, 59, 50
4, 9443, Note_on_c, 9, 59, 0
4, 9486, Note_on_c, 9, 59, 50
4, 9487, Note_on_c, 9, 53, 39
4, 9491, Note_on_c, 9, 59, 0
4, 9492, Note_on_c, 9, 53, 0
4, 9526, Note_on_c, 9, 59, 51
4, 9527, Note_on_c, 9, 53, 42
4, 9531, Note_on_c, 9, 53, 0
4, 9562, Note_on_c, 9, 59, 0
4, 9581, Note_on_c, 9, 37, 59
4, 9591, Note_on_c, 9, 37, 0
4, 9600, Note_on_c, 9, 36, 66
4, 9602, Note_on_c, 9, 59, 60
4, 9606, Note_on_c, 9, 36, 0
4, 9608, Note_on_c, 9, 59, 0
4, 9766, Note_on_c, 9, 59, 37
4, 9770, Note_on_c, 9, 59, 0
4, 9786, Note_on_c, 9, 59, 70
4, 9791, Note_on_c, 9, 59, 0
4, 9826, Note_on_c, 9, 59, 94
4, 9833, Note_on_c, 9, 59, 0
4, 9974, Note_on_c, 9, 59, 45
4, 9978, Note_on_c, 9, 59, 0
4, 10069, Note_on_c, 9, 59, 24
4, 10078, Note_on_c, 9, 59, 0
4, 10088, Note_on_c, 9, 59, 57
4, 10099, Note_on_c, 9, 59, 0
4, 10183, Note_on_c, 9, 59, 38
4, 10187, Note_on_c, 9, 59, 0
4, 10201, Note_on_c, 9, 59, 33
4, 10214, Note_on_c, 9, 59, 0
4, 10236, Note_on_c, 9, 44, 44
4, 10242, Note_on_c, 9, 44, 0
4, 10259, Note_on_c, 9, 59, 24
4, 10264, Note_on_c, 9, 59, 0
4, 10295, Note_on_c, 9, 44, 44
4, 10303, Note_on_c, 9, 44, 0
4, 10316, Note_on_c, 9, 59, 34
4, 10340, Note_on_c, 9, 59, 0
4, 10380, Note_on_c, 9, 59, 39
4, 10389, Note_on_c, 9, 59, 0
4, 10439, Note_on_c, 9, 59, 56
4, 10448, Note_on_c, 9, 59, 0
4, 10480, Note_on_c, 9, 44, 37
4, 10490, Note_on_c, 9, 44, 0
4, 10507, Note_on_c, 9, 59, 20
4, 10521, Note_on_c, 9, 59, 0
4, 10539, Note_on_c, 9, 44, 58
4, 10547, Note_on_c, 9, 44, 0
4, 10561, Note_on_c, 9, 59, 29
4, 10583, Note_on_c, 9, 59, 0
4, 10624, Note_on_c, 9, 59, 51
4, 10641, Note_on_c, 9, 59, 0
4, 10775, Note_on_c, 9, 59, 33
4, 10780, Note_on_c, 9, 59, 0
4, 10789, Note_on_c, 9, 59, 50
4, 10795, Note_on_c, 9, 59, 0
4, 10803, Note_on_c, 9, 59, 67
4, 10811, Note_on_c, 9, 59, 0
4, 10842, Note_on_c, 9, 58, 30
4, 10843, Note_on_c, 9, 59, 68
4, 10845, Note_on_c, 9, 58, 0
4, 10847, Note_on_c, 9, 59, 0
4, 10887, Note_on_c, 9, 59, 65
4, 10895, Note_on_c, 9, 59, 0
4, 10922, Note_on_c, 9, 59, 64
4, 10933, Note_on_c, 9, 59, 0
4, 11012, Note_on_c, 9, 59, 50
4, 11017, Note_on_c, 9, 59, 0
4, 11037, Note_on_c, 9, 59, 41
4, 11048, Note_on_c, 9, 59, 0
4, 11196, Note_on_c, 9, 59, 58
4, 11200, Note_on_c, 9, 59, 0
4, 11247, Note_on_c, 9, 52, 17
4, 11253, Note_on_c, 9, 52, 0
4, 11274, Note_on_c, 9, 53, 55
4, 11275, Note_on_c, 9, 51, 68
4, 11277, Note_on_c, 9, 53, 0
4, 11287, Note_on_c, 9, 51, 0
4, 11319, Note_on_c, 9, 53, 59
4, 11328, Note_on_c, 9, 53, 0
4, 11367, Note_on_c, 9, 51, 51
4, 11368, Note_on_c, 9, 53, 66
4, 11375, Note_on_c, 9, 51, 0
4, 11385, Note_on_c, 9, 53, 0
4, 11403, Note_on_c, 9, 53, 53
4, 11413, Note_on_c, 9, 53, 0
4, 11443, Note_on_c, 9, 59, 73
4, 11452, Note_on_c, 9, 59, 0
4, 11481, Note_on_c, 9, 53, 65
4, 11485, Note_on_c, 9, 53, 0
4, 11498, Note_on_c, 9, 53, 67
4, 11504, Note_on_c, 9, 53, 0
4, 11518, Note_on_c, 9, 51, 80
4, 11534, Note_on_c, 9, 51, 0
4, 11635, Note_on_c, 9, 51, 83
4, 11644, Note_on_c, 9, 51, 0
4, 11740, Note_on_c, 9, 51, 82
4, 11751, Note_on_c, 9, 51, 0
4, 11761, Note_on_c, 9, 51, 79
4, 11788, Note_on_c, 9, 51, 0
4, 11821, Note_on_c, 9, 51, 83
4, 11859, Note_on_c, 9, 51, 0
4, 11937, Note_on_c, 9, 51, 37
4, 11947, Note_on_c, 9, 51, 0
4, 11970, Note_on_c, 9, 51, 48
4, 11977, Note_on_c, 9, 51, 0
4, 11997, Note_on_c, 9, 51, 81
4, 11998, Note_on_c, 9, 46, 77
4, 12012, Note_on_c, 9, 51, 0
4, 12013, Note_on_c, 9, 46, 0
4, 12058, Note_on_c, 9, 51, 54
4, 12065, Note_on_c, 9, 51, 0
4, 12091, Note_on_c, 9, 51, 50
4, 12096, Note_on_c, 9, 51, 0
4, 12117, Note_on_c, 9, 51, 84
4, 12147, Note_on_c, 9, 51, 0
4, 12176, Note_on_c, 9, 51, 51
4, 12179, Note_on_c, 9, 51, 0
4, 12205, Note_on_c, 9, 51, 51
4, 12209, Note_on_c, 9, 51, 0
4, 12233, Note_on_c, 9, 51, 78
4, 12261, Note_on_c, 9, 51, 0
4, 12265, Note_on_c, 9, 44, 36
4, 12277, Note_on_c, 9, 44, 0
4, 12291, Note_on_c, 9, 44, 29
4, 12312, Note_on_c, 9, 44, 0
4, 12321, Note_on_c, 9, 51, 83
4, 12338, Note_on_c, 9, 51, 0
4, 12350, Note_on_c, 9, 51, 38
4, 12379, Note_on_c, 9, 51, 0
4, 12382, Note_on_c, 9, 44, 36
4, 12393, Note_on_c, 9, 44, 0
4, 12411, Note_on_c, 9, 44, 42
4, 12424, Note_on_c, 9, 44, 0
4, 12444, Note_on_c, 9, 51, 70
4, 12445, Note_on_c, 9, 53, 68
4, 12453, Note_on_c, 9, 51, 0
4, 12459, Note_on_c, 9, 53, 0
4, 12475, Note_on_c, 9, 51, 45
4, 12477, Note_on_c, 9, 53, 53
4, 12492, Note_on_c, 9, 51, 0
4, 12494, Note_on_c, 9, 53, 0
4, 12507, Note_on_c, 9, 44, 35
4, 12520, Note_on_c, 9, 44, 0
4, 12536, Note_on_c, 9, 44, 35
4, 12549, Note_on_c, 9, 44, 0
4, 12569, Note_on_c, 9, 51, 69
4, 12570, Note_on_c, 9, 53, 64
4, 12596, Note_on_c, 9, 51, 0
4, 12688, Note_on_c, 9, 53, 0
4, 12694, Note_on_c, 9, 51, 38
4, 12699, Note_on_c, 9, 51, 0
4, 12719, Note_on_c, 9, 51, 60
4, 12738, Note_on_c, 9, 51, 0
4, 12777, Note_on_c, 9, 51, 42
4, 12803, Note_on_c, 9, 51, 0
4, 12839, Note_on_c, 9, 51, 53
4, 12899, Note_on_c, 9, 51, 0
4, 12937, Note_on_c, 9, 51, 43
4, 12952, Note_on_c, 9, 51, 0
4, 12962, Note_on_c, 9, 51, 51
4, 13046, Note_on_c, 9, 51, 0
4, 13077, Note_on_c, 9, 51, 50
4, 13138, Note_on_c, 9, 51, 0
4, 13170, Note_on_c, 9, 51, 60
4, 13175, Note_on_c, 9, 51, 0
4, 13192, Note_on_c, 9, 51, 99
4, 13232, Note_on_c, 9, 51, 0
4, 13250, Note_on_c, 9, 51, 94
4, 13304, Note_on_c, 9, 51, 0
4, 13346, Note_on_c, 9, 51, 57
4, 13350, Note_on_c, 9, 53, 47
4, 13358, Note_on_c, 9, 51, 0
4, 13374, Note_on_c, 9, 53, 0
4, 13391, Note_on_c, 9, 51, 64
4, 13394, Note_on_c, 9, 53, 42
4, 13406, Note_on_c, 9, 51, 0
4, 13416, Note_on_c, 9, 53, 0
4, 13430, Note_on_c, 9, 51, 64
4, 13436, Note_on_c, 9, 53, 17
4, 13441, Note_on_c, 9, 51, 0
4, 13455, Note_on_c, 9, 53, 0
4, 13478, Note_on_c, 9, 51, 48
4, 13495, Note_on_c, 9, 51, 0
4, 13559, Note_on_c, 9, 51, 51
4, 13577, Note_on_c, 9, 51, 0
4, 13658, Note_on_c, 9, 51, 33
4, 13667, Note_on_c, 9, 51, 0
4, 13679, Note_on_c, 9, 51, 48
4, 13701, Note_on_c, 9, 51, 0
4, 13737, Note_on_c, 9, 51, 46
4, 13759, Note_on_c, 9, 51, 0
4, 13889, Note_on_c, 9, 51, 39
4, 13904, Note_on_c, 9, 51, 0
4, 13915, Note_on_c, 9, 51, 47
4, 13935, Note_on_c, 9, 51, 0
4, 13974, Note_on_c, 9, 51, 50
4, 14001, Note_on_c, 9, 51, 0
4, 14131, Note_on_c, 9, 51, 34
4, 14145, Note_on_c, 9, 51, 0
4, 14154, Note_on_c, 9, 51, 58
4, 14180, Note_on_c, 9, 51, 0
4, 14215, Note_on_c, 9, 51, 44
4, 14252, Note_on_c, 9, 51, 0
4, 14371, Note_on_c, 9, 51, 39
4, 14379, Note_on_c, 9, 51, 0
4, 14397, Note_on_c, 9, 49, 67
4, 14398, Note_on_c, 9, 51, 42
4, 14414, Note_on_c, 9, 51, 0
4, 14419, Note_on_c, 9, 49, 0
4, 14497, Note_on_c, 9, 51, 33
4, 14508, Note_on_c, 9, 51, 0
4, 14528, Note_on_c, 9, 51, 47
4, 14542, Note_on_c, 9, 51, 0
4, 14565, Note_on_c, 9, 51, 40
4, 14575, Note_on_c, 9, 51, 0
4, 14609, Note_on_c, 9, 51, 45
4, 14617, Note_on_c, 9, 51, 0
4, 14632, Note_on_c, 9, 51, 52
4, 14670, Note_on_c, 9, 44, 46
4, 14681, Note_on_c, 9, 44, 0
4, 14711, Note_on_c, 9, 51, 0
4, 14728, Note_on_c, 9, 51, 33
4, 14740, Note_on_c, 9, 51, 0
4, 14754, Note_on_c, 9, 51, 57
4, 14800, Note_on_c, 9, 44, 35
4, 14806, Note_on_c, 9, 44, 0
4, 14806, Note_on_c, 9, 51, 0
4, 14863, Note_on_c, 9, 51, 42
4, 14873, Note_on_c, 9, 51, 0
4, 14887, Note_on_c, 9, 51, 57
4, 14909, Note_on_c, 9, 51, 0
4, 14984, Note_on_c, 9, 51, 36
4, 14993, Note_on_c, 9, 51, 0
4, 15005, Note_on_c, 9, 51, 52
4, 15029, Note_on_c, 9, 51, 0
4, 15102, Note_on_c, 9, 51, 46
4, 15111, Note_on_c, 9, 51, 0
4, 15123, Note_on_c, 9, 51, 45
4, 15183, Note_on_c, 9, 51, 0
4, 15240, Note_on_c, 9, 51, 35
4, 15259, Note_on_c, 9, 51, 0
4, 15335, Note_on_c, 9, 59, 64
4, 15335, Note_on_c, 9, 53, 45
4, 15345, Note_on_c, 9, 53, 0
4, 15353, Note_on_c, 9, 59, 0
4, 15450, Note_on_c, 9, 53, 41
4, 15453, Note_on_c, 9, 59, 64
4, 15458, Note_on_c, 9, 53, 0
4, 15465, Note_on_c, 9, 59, 0
4, 15486, Note_on_c, 9, 59, 46
4, 15488, Note_on_c, 9, 53, 30
4, 15492, Note_on_c, 9, 53, 0
4, 15501, Note_on_c, 9, 59, 0
4, 15577, Note_on_c, 9, 53, 35
4, 15586, Note_on_c, 9, 53, 0
4, 15597, Note_on_c, 9, 59, 39
4, 15605, Note_on_c, 9, 59, 0
4, 15610, Note_on_c, 9, 59, 26
4, 15619, Note_on_c, 9, 59, 0
4, 15624, Note_on_c, 9, 59, 39
4, 15633, Note_on_c, 9, 59, 0
4, 15637, Note_on_c, 9, 59, 60
4, 15646, Note_on_c, 9, 59, 0
4, 15650, Note_on_c, 9, 59, 68
4, 15661, Note_on_c, 9, 59, 0
4, 15704, Note_on_c, 9, 59, 37
4, 15709, Note_on_c, 9, 59, 0
4, 15718, Note_on_c, 9, 59, 45
4, 15723, Note_on_c, 9, 59, 0
4, 15729, Note_on_c, 9, 59, 66
4, 15736, Note_on_c, 9, 59, 0
4, 15742, Note_on_c, 9, 59, 84
4, 15763, Note_on_c, 9, 59, 0
4, 15781, Note_on_c, 9, 59, 43
4, 15786, Note_on_c, 9, 59, 0
4, 15796, Note_on_c, 9, 59, 40
4, 15801, Note_on_c, 9, 59, 0
4, 15807, Note_on_c, 9, 59, 51
4, 15813, Note_on_c, 9, 59, 0
4, 15820, Note_on_c, 9, 59, 71
4, 15824, Note_on_c, 9, 53, 60
4, 15826, Note_on_c, 9, 51, 61
4, 15829, Note_on_c, 9, 59, 0
4, 15838, Note_on_c, 9, 51, 0
4, 15842, Note_on_c, 9, 53, 0
4, 15861, Note_on_c, 9, 59, 38
4, 15871, Note_on_c, 9, 59, 0
4, 15891, Note_on_c, 9, 59, 39
4, 15895, Note_on_c, 9, 59, 0
4, 15919, Note_on_c, 9, 59, 59
4, 15925, Note_on_c, 9, 59, 0
4, 15955, Note_on_c, 9, 59, 60
4, 15963, Note_on_c, 9, 59, 0
4, 16053, Note_on_c, 9, 59, 40
4, 16061, Note_on_c, 9, 59, 0
4, 16078, Note_on_c, 9, 59, 51
4, 16085, Note_on_c, 9, 59, 0
4, 16119, Note_on_c, 9, 51, 25
4, 16120, Note_on_c, 9, 53, 30
4, 16124, Note_on_c, 9, 53, 0
4, 16126, Note_on_c, 9, 51, 0
4, 16179, Note_on_c, 9, 51, 34
4, 16181, Note_on_c, 9, 53, 29
4, 16182, Note_on_c, 9, 51, 0
4, 16184, Note_on_c, 9, 53, 0
4, 16202, Note_on_c, 9, 59, 62
4, 16222, Note_on_c, 9, 59, 0
4, 16236, Note_on_c, 9, 51, 44
4, 16239, Note_on_c, 9, 53, 33
4, 16243, Note_on_c, 9, 53, 0
4, 16243, Note_on_c, 9, 51, 0
4, 16289, Note_on_c, 9, 51, 39
4, 16291, Note_on_c, 9, 53, 29
4, 16295, Note_on_c, 9, 53, 0
4, 16297, Note_on_c, 9, 51, 0
4, 16311, Note_on_c, 9, 59, 60
4, 16334, Note_on_c, 9, 59, 0
4, 16355, Note_on_c, 9, 59, 40
4, 16361, Note_on_c, 9, 59, 0
4, 16408, Note_on_c, 9, 51, 38
4, 16415, Note_on_c, 9, 51, 0
4, 16431, Note_on_c, 9, 59, 49
4, 16442, Note_on_c, 9, 59, 0
4, 16451, Note_on_c, 9, 59, 48
4, 16460, Note_on_c, 9, 59, 0
4, 16473, Note_on_c, 9, 53, 64
4, 16485, Note_on_c, 9, 53, 0
4, 16521, Note_on_c, 9, 59, 55
4, 16530, Note_on_c, 9, 59, 0
4, 16537, Note_on_c, 9, 59, 49
4, 16546, Note_on_c, 9, 59, 0
4, 16558, Note_on_c, 9, 53, 55
4, 16564, Note_on_c, 9, 53, 0
4, 16577, Note_on_c, 9, 59, 35
4, 16582, Note_on_c, 9, 59, 0
4, 16599, Note_on_c, 9, 59, 43
4, 16605, Note_on_c, 9, 59, 0
4, 16620, Note_on_c, 9, 53, 46
4, 16624, Note_on_c, 9, 53, 0
4, 16641, Note_on_c, 9, 59, 31
4, 16646, Note_on_c, 9, 59, 0
4, 16664, Note_on_c, 9, 59, 66
4, 16673, Note_on_c, 9, 59, 0
4, 16688, Note_on_c, 9, 53, 33
4, 16694, Note_on_c, 9, 53, 0
4, 16707, Note_on_c, 9, 59, 43
4, 16711, Note_on_c, 9, 59, 0
4, 16727, Note_on_c, 9, 59, 68
4, 16739, Note_on_c, 9, 59, 0
4, 16751, Note_on_c, 9, 53, 32
4, 16755, Note_on_c, 9, 53, 0
4, 16792, Note_on_c, 9, 59, 69
4, 16802, Note_on_c, 9, 59, 0
4, 16814, Note_on_c, 9, 53, 38
4, 16820, Note_on_c, 9, 53, 0
4, 16836, Note_on_c, 9, 59, 40
4, 16845, Note_on_c, 9, 59, 0
4, 16855, Note_on_c, 9, 59, 53
4, 16864, Note_on_c, 9, 59, 0
4, 16912, Note_on_c, 9, 59, 36
4, 16916, Note_on_c, 9, 59, 0
4, 16933, Note_on_c, 9, 59, 49
4, 16952, Note_on_c, 9, 59, 0
4, 17044, Note_on_c, 9, 59, 61
4, 17066, Note_on_c, 9, 59, 0
4, 17150, Note_on_c, 9, 59, 53
4, 17175, Note_on_c, 9, 59, 0
4, 17190, Note_on_c, 9, 53, 37
4, 17194, Note_on_c, 9, 53, 0
4, 17214, Note_on_c, 9, 59, 36
4, 17220, Note_on_c, 9, 59, 0
4, 17251, Note_on_c, 9, 51, 55
4, 17253, Note_on_c, 9, 53, 41
4, 17257, Note_on_c, 9, 53, 0
4, 17261, Note_on_c, 9, 51, 0
4, 17281, Note_on_c, 9, 59, 60
4, 17281, Note_on_c, 9, 53, 46
4, 17282, Note_on_c, 9, 51, 30
4, 17287, Note_on_c, 9, 51, 0
4, 17289, Note_on_c, 9, 59, 0
4, 17293, Note_on_c, 9, 53, 0
4, 17347, Note_on_c, 9, 59, 47
4, 17352, Note_on_c, 9, 59, 0
4, 17385, Note_on_c, 9, 59, 54
4, 17391, Note_on_c, 9, 59, 0
4, 17408, Note_on_c, 9, 59, 44
4, 17419, Note_on_c, 9, 59, 0
4, 17445, Note_on_c, 9, 51, 58
4, 17446, Note_on_c, 9, 53, 53
4, 17464, Note_on_c, 9, 51, 0
4, 17528, Note_on_c, 9, 53, 0
4, 17563, Note_on_c, 9, 59, 49
4, 17567, Note_on_c, 9, 59, 0
4, 17618, Note_on_c, 9, 59, 46
4, 17622, Note_on_c, 9, 59, 0
4, 17647, Note_on_c, 9, 51, 55
4, 17649, Note_on_c, 9, 53, 69
4, 17665, Note_on_c, 9, 51, 0
4, 17689, Note_on_c, 9, 53, 0
4, 17705, Note_on_c, 9, 59, 43
4, 17714, Note_on_c, 9, 59, 0
4, 17742, Note_on_c, 9, 59, 53
4, 17750, Note_on_c, 9, 59, 0
4, 17802, Note_on_c, 9, 59, 24
4, 17805, Note_on_c, 9, 59, 0
4, 17824, Note_on_c, 9, 59, 37
4, 17832, Note_on_c, 9, 59, 0
4, 17860, Note_on_c, 9, 53, 59
4, 17861, Note_on_c, 9, 51, 47
4, 17861, Note_on_c, 9, 46, 45
4, 17869, Note_on_c, 9, 46, 0
4, 17873, Note_on_c, 9, 53, 0
4, 17880, Note_on_c, 9, 51, 0
4, 17900, Note_on_c, 9, 59, 57
4, 17926, Note_on_c, 9, 59, 0
4, 17947, Note_on_c, 9, 59, 58
4, 17958, Note_on_c, 9, 59, 0
4, 17989, Note_on_c, 9, 59, 59
4, 18028, Note_on_c, 9, 59, 0
4, 18124, Note_on_c, 9, 51, 34
4, 18124, Note_on_c, 9, 53, 46
4, 18134, Note_on_c, 9, 53, 0
4, 18136, Note_on_c, 9, 51, 0
4, 18233, Note_on_c, 9, 59, 68
4, 18318, Note_on_c, 9, 59, 0
4, 18367, Note_on_c, 9, 59, 45
4, 18371, Note_on_c, 9, 59, 0
4, 18402, Note_on_c, 9, 51, 51
4, 18405, Note_on_c, 9, 53, 29
4, 18409, Note_on_c, 9, 53, 0
4, 18409, Note_on_c, 9, 51, 0
4, 18481, Note_on_c, 9, 59, 54
4, 18485, Note_on_c, 9, 59, 0
4, 18518, Note_on_c, 9, 51, 48
4, 18520, Note_on_c, 9, 53, 34
4, 18524, Note_on_c, 9, 53, 0
4, 18525, Note_on_c, 9, 51, 0
4, 18574, Note_on_c, 9, 51, 54
4, 18575, Note_on_c, 9, 53, 40
4, 18580, Note_on_c, 9, 53, 0
4, 18582, Note_on_c, 9, 51, 0
4, 18605, Note_on_c, 9, 51, 59
4, 18606, Note_on_c, 9, 53, 49
4, 18611, Note_on_c, 9, 53, 0
4, 18616, Note_on_c, 9, 51, 0
4, 18643, Note_on_c, 9, 59, 78
4, 18650, Note_on_c, 9, 59, 0
4, 18695, Note_on_c, 9, 59, 78
4, 18702, Note_on_c, 9, 59, 0
4, 18725, Note_on_c, 9, 59, 85
4, 18736, Note_on_c, 9, 59, 0
4, 18762, Note_on_c, 9, 51, 67
4, 18764, Note_on_c, 9, 53, 54
4, 18776, Note_on_c, 9, 53, 0
4, 18781, Note_on_c, 9, 51, 0
4, 18807, Note_on_c, 9, 51, 53
4, 18808, Note_on_c, 9, 53, 50
4, 18820, Note_on_c, 9, 53, 0
4, 18824, Note_on_c, 9, 51, 0
4, 18846, Note_on_c, 9, 51, 51
4, 18847, Note_on_c, 9, 53, 36
4, 18860, Note_on_c, 9, 53, 0
4, 18865, Note_on_c, 9, 51, 0
4, 18933, Note_on_c, 9, 51, 30
4, 18934, Note_on_c, 9, 53, 29
4, 18939, Note_on_c, 9, 53, 0
4, 18944, Note_on_c, 9, 51, 0
4, 18959, Note_on_c, 9, 59, 81
4, 18993, Note_on_c, 9, 59, 0
4, 19001, Note_on_c, 9, 51, 35
4, 19004, Note_on_c, 9, 53, 24
4, 19008, Note_on_c, 9, 53, 0
4, 19012, Note_on_c, 9, 51, 0
4, 19124, Note_on_c, 9, 51, 28
4, 19124, Note_on_c, 9, 53, 31
4, 19128, Note_on_c, 9, 53, 0
4, 19132, Note_on_c, 9, 51, 0
4, 19198, Note_on_c, 9, 59, 63
4, 19201, Note_on_c, 9, 51, 40
4, 19204, Note_on_c, 9, 53, 31
4, 19208, Note_on_c, 9, 59, 0
4, 19209, Note_on_c, 9, 53, 0
4, 19210, Note_on_c, 9, 51, 0
4, 19319, Note_on_c, 9, 59, 76
4, 19350, Note_on_c, 9, 59, 0
4, 19356, Note_on_c, 9, 51, 42
4, 19357, Note_on_c, 9, 53, 37
4, 19363, Note_on_c, 9, 53, 0
4, 19366, Note_on_c, 9, 51, 0
4, 19411, Note_on_c, 9, 51, 46
4, 19413, Note_on_c, 9, 53, 34
4, 19417, Note_on_c, 9, 53, 0
4, 19420, Note_on_c, 9, 51, 0
4, 19438, Note_on_c, 9, 59, 88
4, 19468, Note_on_c, 9, 59, 0
4, 19478, Note_on_c, 9, 51, 45
4, 19479, Note_on_c, 9, 53, 43
4, 19490, Note_on_c, 9, 53, 0
4, 19497, Note_on_c, 9, 51, 0
4, 19535, Note_on_c, 9, 51, 50
4, 19536, Note_on_c, 9, 53, 47
4, 19544, Note_on_c, 9, 53, 0
4, 19550, Note_on_c, 9, 51, 0
4, 19561, Note_on_c, 9, 59, 95
4, 19596, Note_on_c, 9, 59, 0
4, 19600, Note_on_c, 9, 51, 58
4, 19600, Note_on_c, 9, 53, 50
4, 19620, Note_on_c, 9, 53, 0
4, 19620, Note_on_c, 9, 51, 0
4, 19656, Note_on_c, 9, 53, 44
4, 19657, Note_on_c, 9, 51, 34
4, 19665, Note_on_c, 9, 53, 0
4, 19670, Note_on_c, 9, 51, 0
4, 19683, Note_on_c, 9, 59, 94
4, 19714, Note_on_c, 9, 59, 0
4, 19720, Note_on_c, 9, 53, 59
4, 19720, Note_on_c, 9, 51, 57
4, 19731, Note_on_c, 9, 53, 0
4, 19736, Note_on_c, 9, 51, 0
4, 19771, Note_on_c, 9, 51, 54
4, 19772, Note_on_c, 9, 53, 48
4, 19777, Note_on_c, 9, 53, 0
4, 19783, Note_on_c, 9, 51, 0
4, 19803, Note_on_c, 9, 59, 83
4, 19829, Note_on_c, 9, 59, 0
4, 19838, Note_on_c, 9, 51, 53
4, 19838, Note_on_c, 9, 53, 58
4, 19839, Note_on_c, 9, 46, 49
4, 19847, Note_on_c, 9, 46, 0
4, 19848, Note_on_c, 9, 53, 0
4, 19851, Note_on_c, 9, 51, 0
4, 19888, Note_on_c, 9, 51, 64
4, 19888, Note_on_c, 9, 46, 70
4, 19889, Note_on_c, 9, 53, 67
4, 19898, Note_on_c, 9, 53, 0
4, 19901, Note_on_c, 9, 46, 0
4, 19905, Note_on_c, 9, 51, 0
4, 19919, Note_on_c, 9, 59, 96
4, 19945, Note_on_c, 9, 59, 0
4, 19949, Note_on_c, 9, 46, 67
4, 19949, Note_on_c, 9, 51, 59
4, 19949, Note_on_c, 9, 53, 66
4, 19959, Note_on_c, 9, 53, 0
4, 19962, Note_on_c, 9, 46, 0
4, 19963, Note_on_c, 9, 51, 0
4, 20001, Note_on_c, 9, 46, 73
4, 20002, Note_on_c, 9, 51, 58
4, 20002, Note_on_c, 9, 53, 65
4, 20015, Note_on_c, 9, 46, 0
4, 20017, Note_on_c, 9, 53, 0
4, 20019, Note_on_c, 9, 51, 0
4, 20030, Note_on_c, 9, 59, 105
4, 20062, Note_on_c, 9, 59, 0
4, 20063, Note_on_c, 9, 51, 72
4, 20063, Note_on_c, 9, 46, 75
4, 20064, Note_on_c, 9, 53, 76
4, 20079, Note_on_c, 9, 53, 0
4, 20079, Note_on_c, 9, 51, 0
4, 20080, Note_on_c, 9, 46, 0
4, 20114, Note_on_c, 9, 46, 62
4, 20116, Note_on_c, 9, 51, 35
4, 20119, Note_on_c, 9, 51, 0
4, 20121, Note_on_c, 9, 46, 0
4, 20142, Note_on_c, 9, 57, 96
4, 20142, Note_on_c, 9, 46, 83
4, 20143, Note_on_c, 9, 51, 77
4, 20143, Note_on_c, 9, 59, 83
4, 20143, Note_on_c, 9, 53, 84
4, 20149, Note_on_c, 9, 59, 0
4, 20260, Note_on_c, 9, 57, 0
4, 20274, Note_on_c, 9, 59, 55
4, 20276, Note_on_c, 9, 53, 0
4, 20279, Note_on_c, 9, 51, 0
4, 20280, Note_on_c, 9, 46, 0
4, 20295, Note_on_c, 9, 59, 0
4, 20367, Note_on_c, 9, 59, 53
4, 20372, Note_on_c, 9, 59, 0
4, 20397, Note_on_c, 9, 59, 38
4, 20408, Note_on_c, 9, 59, 0
4, 20433, Note_on_c, 9, 51, 48
4, 20443, Note_on_c, 9, 51, 0
4, 20481, Note_on_c, 9, 53, 37
4, 20498, Note_on_c, 9, 53, 0
4, 20518, Note_on_c, 9, 59, 24
4, 20529, Note_on_c, 9, 59, 0
4, 20554, Note_on_c, 9, 51, 36
4, 20555, Note_on_c, 9, 53, 37
4, 20563, Note_on_c, 9, 51, 0
4, 20564, Note_on_c, 9, 53, 0
4, 20600, Note_on_c, 9, 59, 43
4, 20600, Note_on_c, 9, 51, 27
4, 20602, Note_on_c, 9, 53, 29
4, 20605, Note_on_c, 9, 51, 0
4, 20605, Note_on_c, 9, 59, 0
4, 20610, Note_on_c, 9, 53, 0
4, 20641, Note_on_c, 9, 53, 40
4, 20645, Note_on_c, 9, 53, 0
4, 20681, Note_on_c, 9, 59, 34
4, 20681, Note_on_c, 9, 53, 28
4, 20686, Note_on_c, 9, 59, 0
4, 20688, Note_on_c, 9, 53, 0
4, 20732, Note_on_c, 9, 59, 32
4, 20732, Note_on_c, 9, 53, 30
4, 20739, Note_on_c, 9, 53, 0
4, 20740, Note_on_c, 9, 59, 0
4, 20767, Note_on_c, 9, 59, 25
4, 20767, Note_on_c, 9, 53, 25
4, 20788, Note_on_c, 9, 53, 0
4, 20789, Note_on_c, 9, 59, 0
4, 20796, Note_on_c, 9, 44, 39
4, 20807, Note_on_c, 9, 44, 0
4, 20856, Note_on_c, 9, 44, 33
4, 20866, Note_on_c, 9, 44, 0
4, 20885, Note_on_c, 9, 59, 41
4, 20885, Note_on_c, 9, 53, 39
4, 20894, Note_on_c, 9, 59, 0
4, 20895, Note_on_c, 9, 53, 0
4, 20920, Note_on_c, 9, 44, 21
4, 20929, Note_on_c, 9, 44, 0
4, 20945, Note_on_c, 9, 53, 36
4, 20949, Note_on_c, 9, 59, 27
4, 20955, Note_on_c, 9, 59, 0
4, 20957, Note_on_c, 9, 53, 0
4, 20980, Note_on_c, 9, 59, 50
4, 20980, Note_on_c, 9, 53, 44
4, 20991, Note_on_c, 9, 59, 0
4, 20994, Note_on_c, 9, 53, 0
4, 21006, Note_on_c, 9, 51, 42
4, 21032, Note_on_c, 9, 51, 0
4, 21036, Note_on_c, 9, 44, 32
4, 21046, Note_on_c, 9, 44, 0
4, 21060, Note_on_c, 9, 59, 37
4, 21062, Note_on_c, 9, 53, 24
4, 21071, Note_on_c, 9, 59, 0
4, 21075, Note_on_c, 9, 53, 0
4, 21095, Note_on_c, 9, 51, 42
4, 21105, Note_on_c, 9, 51, 0
4, 21120, Note_on_c, 9, 59, 51
4, 21122, Note_on_c, 9, 53, 34
4, 21127, Note_on_c, 9, 53, 0
4, 21132, Note_on_c, 9, 59, 0
4, 21165, Note_on_c, 9, 59, 36
4, 21170, Note_on_c, 9, 59, 0
4, 21244, Note_on_c, 9, 59, 51
4, 21248, Note_on_c, 9, 59, 0
4, 21340, Note_on_c, 9, 59, 31
4, 21346, Note_on_c, 9, 59, 0
4, 21360, Note_on_c, 9, 59, 33
4, 21372, Note_on_c, 9, 59, 0
4, 21480, Note_on_c, 9, 59, 51
4, 21484, Note_on_c, 9, 59, 0
4, 21515, Note_on_c, 9, 59, 64
4, 21518, Note_on_c, 9, 59, 0
4, 21540, Note_on_c, 9, 59, 91
4, 21566, Note_on_c, 9, 59, 0
4, 21599, Note_on_c, 9, 59, 62
4, 21605, Note_on_c, 9, 59, 0
4, 21637, Note_on_c, 9, 59, 54
4, 21645, Note_on_c, 9, 59, 0
4, 21716, Note_on_c, 9, 59, 39
4, 21753, Note_on_c, 9, 59, 0
4, 21813, Note_on_c, 9, 51, 40
4, 21819, Note_on_c, 9, 53, 24
4, 21826, Note_on_c, 9, 53, 0
4, 21826, Note_on_c, 9, 51, 0
4, 21842, Note_on_c, 9, 51, 34
4, 21844, Note_on_c, 9, 53, 44
4, 21850, Note_on_c, 9, 51, 0
4, 21869, Note_on_c, 9, 53, 0
4, 21883, Note_on_c, 9, 59, 44
4, 21891, Note_on_c, 9, 59, 0
4, 21927, Note_on_c, 9, 59, 44
4, 21933, Note_on_c, 9, 59, 0
4, 21958, Note_on_c, 9, 59, 63
4, 21964, Note_on_c, 9, 59, 0
4, 22055, Note_on_c, 9, 59, 53
4, 22061, Note_on_c, 9, 59, 0
4, 22077, Note_on_c, 9, 59, 46
4, 22088, Note_on_c, 9, 59, 0
4, 22100, Note_on_c, 9, 59, 62
4, 22106, Note_on_c, 9, 59, 0
4, 22153, Note_on_c, 9, 59, 67
4, 22157, Note_on_c, 9, 59, 0
4, 22191, Note_on_c, 9, 59, 62
4, 22198, Note_on_c, 9, 59, 0
4, 22221, Note_on_c, 9, 59, 55
4, 22246, Note_on_c, 9, 59, 0
4, 22302, Note_on_c, 9, 59, 40
4, 22313, Note_on_c, 9, 59, 0
4, 22326, Note_on_c, 9, 59, 40
4, 22348, Note_on_c, 9, 59, 0
4, 22440, Note_on_c, 9, 59, 36
4, 22520, Note_on_c, 9, 59, 0
4, 22537, Note_on_c, 9, 51, 55
4, 22538, Note_on_c, 9, 53, 51
4, 22544, Note_on_c, 9, 53, 0
4, 22545, Note_on_c, 9, 51, 0
4, 22563, Note_on_c, 9, 59, 46
4, 22617, Note_on_c, 9, 59, 0
4, 22723, Note_on_c, 9, 59, 34
4, 22728, Note_on_c, 9, 59, 0
4, 22766, Note_on_c, 9, 59, 50
4, 22771, Note_on_c, 9, 59, 0
4, 22782, Note_on_c, 9, 59, 52
4, 22791, Note_on_c, 9, 59, 0
4, 22801, Note_on_c, 9, 51, 35
4, 22802, Note_on_c, 9, 53, 36
4, 22806, Note_on_c, 9, 53, 0
4, 22808, Note_on_c, 9, 51, 0
4, 22840, Note_on_c, 9, 59, 42
4, 22848, Note_on_c, 9, 59, 0
4, 22883, Note_on_c, 9, 59, 39
4, 22888, Note_on_c, 9, 59, 0
4, 22899, Note_on_c, 9, 59, 56
4, 22909, Note_on_c, 9, 59, 0
4, 22919, Note_on_c, 9, 51, 39
4, 22920, Note_on_c, 9, 53, 35
4, 22932, Note_on_c, 9, 51, 0
4, 22941, Note_on_c, 9, 53, 0
4, 22964, Note_on_c, 9, 59, 44
4, 22972, Note_on_c, 9, 59, 0
4, 23004, Note_on_c, 9, 59, 45
4, 23013, Note_on_c, 9, 59, 0
4, 23023, Note_on_c, 9, 59, 62
4, 23032, Note_on_c, 9, 59, 0
4, 23045, Note_on_c, 9, 53, 31
4, 23045, Note_on_c, 9, 51, 27
4, 23053, Note_on_c, 9, 53, 0
4, 23055, Note_on_c, 9, 51, 0
4, 23082, Note_on_c, 9, 59, 36
4, 23092, Note_on_c, 9, 59, 0
4, 23163, Note_on_c, 9, 59, 42
4, 23171, Note_on_c, 9, 59, 0
4, 23280, Note_on_c, 9, 59, 80
4, 23333, Note_on_c, 9, 59, 0
4, 23409, Note_on_c, 9, 59, 54
4, 23414, Note_on_c, 9, 59, 0
4, 23446, Note_on_c, 9, 51, 34
4, 23447, Note_on_c, 9, 53, 24
4, 23450, Note_on_c, 9, 51, 0
4, 23451, Note_on_c, 9, 53, 0
4, 23502, Note_on_c, 9, 59, 45
4, 23507, Note_on_c, 9, 59, 0
4, 23529, Note_on_c, 9, 59, 67
4, 23539, Note_on_c, 9, 59, 0
4, 23561, Note_on_c, 9, 51, 45
4, 23563, Note_on_c, 9, 53, 38
4, 23565, Note_on_c, 9, 51, 0
4, 23567, Note_on_c, 9, 53, 0
4, 23617, Note_on_c, 9, 59, 55
4, 23622, Note_on_c, 9, 59, 0
4, 23641, Note_on_c, 9, 59, 54
4, 23651, Note_on_c, 9, 59, 0
4, 23677, Note_on_c, 9, 51, 50
4, 23678, Note_on_c, 9, 53, 62
4, 23687, Note_on_c, 9, 51, 0
4, 23688, Note_on_c, 9, 53, 0
4, 23735, Note_on_c, 9, 59, 51
4, 23740, Note_on_c, 9, 59, 0
4, 23764, Note_on_c, 9, 59, 68
4, 23775, Note_on_c, 9, 59, 0
4, 23804, Note_on_c, 9, 53, 41
4, 23804, Note_on_c, 9, 51, 32
4, 23808, Note_on_c, 9, 53, 0
4, 23812, Note_on_c, 9, 51, 0
4, 23861, Note_on_c, 9, 53, 29
4, 23866, Note_on_c, 9, 53, 0
4, 23889, Note_on_c, 9, 59, 71
4, 23906, Note_on_c, 9, 59, 0
4, 23925, Note_on_c, 9, 53, 32
4, 23929, Note_on_c, 9, 53, 0
4, 24008, Note_on_c, 9, 57, 68
4, 24010, Note_on_c, 9, 44, 56
4, 24100, Note_on_c, 9, 57, 0
4, 24151, Note_on_c, 9, 44, 0
4, 24181, Note_on_c, 9, 59, 51
4, 24190, Note_on_c, 9, 59, 0
4, 24204, Note_on_c, 9, 59, 57
4, 24217, Note_on_c, 9, 59, 0
4, 24231, Note_on_c, 9, 59, 66
4, 24243, Note_on_c, 9, 59, 0
4, 24260, Note_on_c, 9, 59, 57
4, 24273, Note_on_c, 9, 59, 0
4, 24287, Note_on_c, 9, 59, 42
4, 24297, Note_on_c, 9, 59, 0
4, 24309, Note_on_c, 9, 59, 41
4, 24317, Note_on_c, 9, 59, 0
4, 24325, Note_on_c, 9, 59, 31
4, 24332, Note_on_c, 9, 59, 0
4, 24342, Note_on_c, 9, 59, 41
4, 24348, Note_on_c, 9, 59, 0
4, 24354, Note_on_c, 9, 59, 46
4, 24362, Note_on_c, 9, 59, 0
4, 24367, Note_on_c, 9, 59, 42
4, 24373, Note_on_c, 9, 59, 0
4, 24378, Note_on_c, 9, 59, 44
4, 24386, Note_on_c, 9, 59, 0
4, 24393, Note_on_c, 9, 59, 40
4, 24397, Note_on_c, 9, 59, 0
4, 24404, Note_on_c, 9, 59, 51
4, 24408, Note_on_c, 9, 59, 0
4, 24417, Note_on_c, 9, 59, 56
4, 24426, Note_on_c, 9, 59, 0
4, 24435, Note_on_c, 9, 59, 58
4, 24438, Note_on_c, 9, 59, 0
4, 24501, Note_on_c, 9, 59, 36
4, 24509, Note_on_c, 9, 51, 33
4, 24511, Note_on_c, 9, 59, 0
4, 24512, Note_on_c, 9, 53, 32
4, 24520, Note_on_c, 9, 51, 0
4, 24529, Note_on_c, 9, 53, 0
4, 24541, Note_on_c, 9, 59, 53
4, 24546, Note_on_c, 9, 51, 31
4, 24549, Note_on_c, 9, 53, 22
4, 24550, Note_on_c, 9, 51, 0
4, 24562, Note_on_c, 9, 59, 0
4, 24563, Note_on_c, 9, 53, 0
4, 24599, Note_on_c, 9, 51, 33
4, 24605, Note_on_c, 9, 53, 29
4, 24609, Note_on_c, 9, 59, 44
4, 24611, Note_on_c, 9, 51, 0
4, 24621, Note_on_c, 9, 53, 0
4, 24626, Note_on_c, 9, 59, 0
4, 24638, Note_on_c, 9, 51, 37
4, 24644, Note_on_c, 9, 53, 35
4, 24649, Note_on_c, 9, 51, 0
4, 24651, Note_on_c, 9, 53, 0
4, 24653, Note_on_c, 9, 59, 47
4, 24663, Note_on_c, 9, 59, 0
4, 24677, Note_on_c, 9, 51, 36
4, 24684, Note_on_c, 9, 53, 24
4, 24685, Note_on_c, 9, 51, 0
4, 24689, Note_on_c, 9, 59, 42
4, 24691, Note_on_c, 9, 53, 0
4, 24699, Note_on_c, 9, 59, 0
4, 24717, Note_on_c, 9, 51, 31
4, 24725, Note_on_c, 9, 51, 0
4, 24726, Note_on_c, 9, 59, 45
4, 24733, Note_on_c, 9, 59, 0
4, 24753, Note_on_c, 9, 51, 28
4, 24760, Note_on_c, 9, 51, 0
4, 24763, Note_on_c, 9, 59, 30
4, 24776, Note_on_c, 9, 59, 0
4, 24792, Note_on_c, 9, 51, 27
4, 24801, Note_on_c, 9, 51, 0
4, 24803, Note_on_c, 9, 59, 30
4, 24815, Note_on_c, 9, 59, 0
4, 24830, Note_on_c, 9, 51, 21
4, 24842, Note_on_c, 9, 51, 0
4, 24842, Note_on_c, 9, 59, 36
4, 24852, Note_on_c, 9, 59, 0
4, 24872, Note_on_c, 9, 51, 19
4, 24879, Note_on_c, 9, 51, 0
4, 24881, Note_on_c, 9, 59, 34
4, 24885, Note_on_c, 9, 59, 0
4, 24885, End_track
5, 0, Start_track
5, 0, Title_t, ""
5, 0, Program_c, 9, 32
5, 0, Control_c, 9, 7, 81
5, 2, Note_on_c, 9, 36, 50
5, 29, Note_on_c, 9, 36, 0
5, 286, Note_on_c, 9, 46, 51
5, 294, Note_on_c, 9, 46, 0
5, 312, Note_on_c, 9, 46, 53
5, 336, Note_on_c, 9, 46, 0
5, 342, Note_on_c, 9, 36, 39
5, 355, Note_on_c, 9, 36, 0
5, 366, Note_on_c, 9, 36, 39
5, 397, Note_on_c, 9, 36, 0
5, 753, Note_on_c, 9, 44, 53
5, 758, Note_on_c, 9, 44, 0
5, 826, Note_on_c, 9, 36, 40
5, 836, Note_on_c, 9, 36, 0
5, 848, Note_on_c, 9, 36, 51
5, 872, Note_on_c, 9, 36, 0
5, 884, Note_on_c, 9, 36, 49
5, 898, Note_on_c, 9, 36, 0
5, 944, Note_on_c, 9, 46, 54
5, 948, Note_on_c, 9, 46, 0
5, 962, Note_on_c, 9, 36, 28
5, 987, Note_on_c, 9, 36, 0
5, 1003, Note_on_c, 9, 36, 40
5, 1008, Note_on_c, 9, 36, 0
5, 1145, Note_on_c, 9, 38, 40
5, 1153, Note_on_c, 9, 38, 0
5, 1163, Note_on_c, 9, 38, 44
5, 1169, Note_on_c, 9, 38, 0
5, 1182, Note_on_c, 9, 36, 45
5, 1199, Note_on_c, 9, 36, 0
5, 1297, Note_on_c, 9, 38, 44
5, 1301, Note_on_c, 9, 38, 0
5, 1316, Note_on_c, 9, 38, 61
5, 1324, Note_on_c, 9, 38, 0
5, 1331, Note_on_c, 9, 38, 49
5, 1337, Note_on_c, 9, 38, 0
5, 1353, Note_on_c, 9, 36, 50
5, 1367, Note_on_c, 9, 36, 0
5, 1898, Note_on_c, 9, 36, 48
5, 1906, Note_on_c, 9, 36, 0
5, 1920, Note_on_c, 9, 36, 30
5, 1953, Note_on_c, 9, 36, 0
5, 1968, Note_on_c, 9, 36, 30
5, 1975, Note_on_c, 9, 36, 0
5, 2152, Note_on_c, 9, 36, 24
5, 2157, Note_on_c, 9, 36, 0
5, 2172, Note_on_c, 9, 36, 42
5, 2199, Note_on_c, 9, 36, 0
5, 2266, Note_on_c, 9, 38, 34
5, 2280, Note_on_c, 9, 38, 0
5, 2297, Note_on_c, 9, 38, 49
5, 2307, Note_on_c, 9, 38, 0
5, 2331, Note_on_c, 9, 38, 39
5, 2338, Note_on_c, 9, 38, 0
5, 2412, Note_on_c, 9, 36, 47
5, 2436, Note_on_c, 9, 36, 0
5, 2448, Note_on_c, 9, 36, 43
5, 2458, Note_on_c, 9, 36, 0
5, 2706, Note_on_c, 9, 46, 36
5, 2712, Note_on_c, 9, 46, 0
5, 2807, Note_on_c, 9, 36, 29
5, 2816, Note_on_c, 9, 36, 0
5, 2832, Note_on_c, 9, 36, 35
5, 2850, Note_on_c, 9, 36, 0
5, 2868, Note_on_c, 9, 36, 65
5, 2881, Note_on_c, 9, 36, 0
5, 3288, Note_on_c, 9, 38, 55
5, 3292, Note_on_c, 9, 38, 0
5, 3344, Note_on_c, 9, 38, 55
5, 3355, Note_on_c, 9, 38, 0
5, 3368, Note_on_c, 9, 36, 31
5, 3390, Note_on_c, 9, 36, 0
5, 3636, Note_on_c, 9, 40, 39
5, 3640, Note_on_c, 9, 38, 41
5, 3648, Note_on_c, 9, 40, 0
5, 3652, Note_on_c, 9, 38, 0
5, 3680, Note_on_c, 9, 36, 33
5, 3710, Note_on_c, 9, 36, 0
5, 3725, Note_on_c, 9, 36, 31
5, 3746, Note_on_c, 9, 36, 0
5, 3762, Note_on_c, 9, 36, 29
5, 3770, Note_on_c, 9, 36, 0
5, 3818, Note_on_c, 9, 47, 47
5, 3820, Note_on_c, 9, 45, 45
5, 3823, Note_on_c, 9, 47, 0
5, 3825, Note_on_c, 9, 45, 0
5, 3841, Note_on_c, 9, 36, 27
5, 3867, Note_on_c, 9, 36, 0
5, 3889, Note_on_c, 9, 36, 34
5, 3895, Note_on_c, 9, 36, 0
5, 4016, Note_on_c, 9, 36, 29
5, 4030, Note_on_c, 9, 36, 0
5, 4039, Note_on_c, 9, 36, 53
5, 4065, Note_on_c, 9, 36, 0
5, 4094, Note_on_c, 9, 36, 38
5, 4099, Note_on_c, 9, 38, 33
5, 4120, Note_on_c, 9, 36, 0
5, 4122, Note_on_c, 9, 38, 0
5, 4152, Note_on_c, 9, 36, 36
5, 4163, Note_on_c, 9, 36, 0
5, 4188, Note_on_c, 9, 36, 53
5, 4200, Note_on_c, 9, 36, 0
5, 4243, Note_on_c, 9, 38, 40
5, 4251, Note_on_c, 9, 38, 0
5, 4270, Note_on_c, 9, 38, 26
5, 4288, Note_on_c, 9, 38, 0
5, 4295, Note_on_c, 9, 36, 44
5, 4316, Note_on_c, 9, 36, 0
5, 4434, Note_on_c, 9, 38, 48
5, 4462, Note_on_c, 9, 38, 0
5, 4465, Note_on_c, 9, 36, 53
5, 4480, Note_on_c, 9, 36, 0
5, 4493, Note_on_c, 9, 36, 44
5, 4517, Note_on_c, 9, 36, 0
5, 4551, Note_on_c, 9, 38, 53
5, 4573, Note_on_c, 9, 38, 0
5, 4580, Note_on_c, 9, 36, 52
5, 4599, Note_on_c, 9, 36, 0
5, 4609, Note_on_c, 9, 36, 60
5, 4636, Note_on_c, 9, 36, 0
5, 4794, Note_on_c, 9, 38, 38
5, 4795, Note_on_c, 9, 36, 54
5, 4800, Note_on_c, 9, 38, 0
5, 4802, Note_on_c, 9, 36, 0
5, 5017, Note_on_c, 9, 36, 34
5, 5030, Note_on_c, 9, 36, 0
5, 5045, Note_on_c, 9, 36, 32
5, 5097, Note_on_c, 9, 36, 0
5, 5194, Note_on_c, 9, 40, 22
5, 5202, Note_on_c, 9, 40, 0
5, 5217, Note_on_c, 9, 40, 52
5, 5240, Note_on_c, 9, 40, 0
5, 5248, Note_on_c, 9, 36, 40
5, 5266, Note_on_c, 9, 36, 0
5, 5275, Note_on_c, 9, 36, 76
5, 5312, Note_on_c, 9, 36, 0
5, 5672, Note_on_c, 9, 38, 38
5, 5689, Note_on_c, 9, 38, 0
5, 5701, Note_on_c, 9, 38, 33
5, 5727, Note_on_c, 9, 38, 0
5, 5732, Note_on_c, 9, 36, 45
5, 5740, Note_on_c, 9, 36, 0
5, 5763, Note_on_c, 9, 46, 61
5, 5763, Note_on_c, 9, 36, 66
5, 5925, Note_on_c, 9, 46, 0
5, 5927, Note_on_c, 9, 36, 0
5, 5976, Note_on_c, 9, 36, 38
5, 5981, Note_on_c, 9, 36, 0
5, 5999, Note_on_c, 9, 46, 37
5, 6000, Note_on_c, 9, 36, 45
5, 6097, Note_on_c, 9, 46, 0
5, 6128, Note_on_c, 9, 36, 0
5, 6155, Note_on_c, 9, 40, 75
5, 6161, Note_on_c, 9, 40, 0
5, 6219, Note_on_c, 9, 36, 62
5, 6236, Note_on_c, 9, 36, 0
5, 6244, Note_on_c, 9, 36, 73
5, 6398, Note_on_c, 9, 46, 34
5, 6404, Note_on_c, 9, 46, 0
5, 6422, Note_on_c, 9, 36, 0
5, 6425, Note_on_c, 9, 46, 50
5, 6432, Note_on_c, 9, 46, 0
5, 6460, Note_on_c, 9, 36, 41
5, 6466, Note_on_c, 9, 36, 0
5, 6487, Note_on_c, 9, 36, 49
5, 6531, Note_on_c, 9, 36, 0
5, 6582, Note_on_c, 9, 36, 25
5, 6588, Note_on_c, 9, 36, 0
5, 6637, Note_on_c, 9, 40, 53
5, 6642, Note_on_c, 9, 40, 0
5, 6662, Note_on_c, 9, 46, 60
5, 6667, Note_on_c, 9, 46, 0
5, 6694, Note_on_c, 9, 36, 57
5, 6710, Note_on_c, 9, 36, 0
5, 6720, Note_on_c, 9, 36, 79
5, 6758, Note_on_c, 9, 36, 0
5, 6779, Note_on_c, 9, 36, 66
5, 6926, Note_on_c, 9, 36, 0
5, 6972, Note_on_c, 9, 36, 38
5, 6981, Note_on_c, 9, 36, 0
5, 7002, Note_on_c, 9, 38, 27
5, 7007, Note_on_c, 9, 38, 0
5, 7058, Note_on_c, 9, 38, 37
5, 7066, Note_on_c, 9, 38, 0
5, 7082, Note_on_c, 9, 38, 32
5, 7108, Note_on_c, 9, 38, 0
5, 7116, Note_on_c, 9, 36, 47
5, 7130, Note_on_c, 9, 36, 0
5, 7231, Note_on_c, 9, 38, 50
5, 7235, Note_on_c, 9, 40, 39
5, 7241, Note_on_c, 9, 38, 0
5, 7255, Note_on_c, 9, 40, 0
5, 7284, Note_on_c, 9, 36, 37
5, 7298, Note_on_c, 9, 36, 0
5, 7318, Note_on_c, 9, 36, 36
5, 7345, Note_on_c, 9, 36, 0
5, 7539, Note_on_c, 9, 38, 45
5, 7543, Note_on_c, 9, 38, 0
5, 7597, Note_on_c, 9, 38, 29
5, 7612, Note_on_c, 9, 38, 0
5, 7664, Note_on_c, 9, 38, 30
5, 7668, Note_on_c, 9, 38, 0
5, 7686, Note_on_c, 9, 36, 27
5, 7704, Note_on_c, 9, 36, 0
5, 7738, Note_on_c, 9, 36, 40
5, 7772, Note_on_c, 9, 36, 0
5, 7902, Note_on_c, 9, 36, 30
5, 7908, Note_on_c, 9, 36, 0
5, 7925, Note_on_c, 9, 36, 33
5, 7997, Note_on_c, 9, 36, 0
5, 8373, Note_on_c, 9, 36, 22
5, 8380, Note_on_c, 9, 36, 0
5, 8568, Note_on_c, 9, 40, 40
5, 8574, Note_on_c, 9, 40, 0
5, 8607, Note_on_c, 9, 36, 39
5, 8619, Note_on_c, 9, 36, 0
5, 8630, Note_on_c, 9, 36, 45
5, 8657, Note_on_c, 9, 36, 0
5, 9099, Note_on_c, 9, 36, 27
5, 9107, Note_on_c, 9, 36, 0
5, 9121, Note_on_c, 9, 36, 33
5, 9135, Note_on_c, 9, 36, 0
5, 9243, Note_on_c, 9, 36, 29
5, 9263, Note_on_c, 9, 36, 0
5, 9282, Note_on_c, 9, 46, 48
5, 9294, Note_on_c, 9, 46, 0
5, 9337, Note_on_c, 9, 36, 32
5, 9346, Note_on_c, 9, 36, 0
5, 9364, Note_on_c, 9, 46, 57
5, 9385, Note_on_c, 9, 46, 0
5, 9417, Note_on_c, 9, 36, 38
5, 9424, Note_on_c, 9, 36, 0
5, 9452, Note_on_c, 9, 46, 78
5, 9492, Note_on_c, 9, 46, 0
5, 9539, Note_on_c, 9, 46, 60
5, 9550, Note_on_c, 9, 46, 0
5, 9579, Note_on_c, 9, 36, 62
5, 9584, Note_on_c, 9, 36, 0
5, 9825, Note_on_c, 9, 36, 67
5, 9832, Note_on_c, 9, 38, 22
5, 9839, Note_on_c, 9, 38, 0
5, 9848, Note_on_c, 9, 36, 0
5, 9856, Note_on_c, 9, 36, 40
5, 9864, Note_on_c, 9, 36, 0
5, 9893, Note_on_c, 9, 36, 41
5, 9906, Note_on_c, 9, 36, 0
5, 9979, Note_on_c, 9, 36, 27
5, 9987, Note_on_c, 9, 36, 0
5, 10096, Note_on_c, 9, 36, 28
5, 10102, Note_on_c, 9, 36, 0
5, 10114, Note_on_c, 9, 40, 41
5, 10123, Note_on_c, 9, 40, 0
5, 10133, Note_on_c, 9, 40, 42
5, 10144, Note_on_c, 9, 40, 0
5, 10152, Note_on_c, 9, 40, 48
5, 10157, Note_on_c, 9, 40, 0
5, 10238, Note_on_c, 9, 36, 36
5, 10246, Note_on_c, 9, 36, 0
5, 10262, Note_on_c, 9, 36, 35
5, 10282, Note_on_c, 9, 36, 0
5, 10293, Note_on_c, 9, 36, 59
5, 10309, Note_on_c, 9, 36, 0
5, 10319, Note_on_c, 9, 36, 54
5, 10336, Note_on_c, 9, 36, 0
5, 10423, Note_on_c, 9, 40, 35
5, 10430, Note_on_c, 9, 40, 0
5, 10440, Note_on_c, 9, 40, 38
5, 10449, Note_on_c, 9, 40, 0
5, 10457, Note_on_c, 9, 40, 53
5, 10474, Note_on_c, 9, 40, 0
5, 10489, Note_on_c, 9, 40, 63
5, 10501, Note_on_c, 9, 40, 0
5, 10526, Note_on_c, 9, 40, 58
5, 10535, Note_on_c, 9, 40, 0
5, 10543, Note_on_c, 9, 40, 65
5, 10551, Note_on_c, 9, 40, 0
5, 10561, Note_on_c, 9, 36, 51
5, 10584, Note_on_c, 9, 36, 0
5, 10606, Note_on_c, 9, 36, 47
5, 10621, Note_on_c, 9, 36, 0
5, 10689, Note_on_c, 9, 36, 48
5, 10701, Note_on_c, 9, 36, 0
5, 11010, Note_on_c, 9, 36, 29
5, 11016, Note_on_c, 9, 36, 0
5, 11036, Note_on_c, 9, 36, 32
5, 11052, Note_on_c, 9, 36, 0
5, 11194, Note_on_c, 9, 52, 34
5, 11199, Note_on_c, 9, 52, 0
5, 11222, Note_on_c, 9, 52, 67
5, 11261, Note_on_c, 9, 52, 0
5, 11314, Note_on_c, 9, 36, 31
5, 11319, Note_on_c, 9, 36, 0
5, 11344, Note_on_c, 9, 49, 25
5, 11353, Note_on_c, 9, 49, 0
5, 11375, Note_on_c, 9, 49, 54
5, 11383, Note_on_c, 9, 49, 0
5, 11438, Note_on_c, 9, 49, 39
5, 11442, Note_on_c, 9, 49, 0
5, 11493, Note_on_c, 9, 36, 32
5, 11504, Note_on_c, 9, 36, 0
5, 11517, Note_on_c, 9, 36, 52
5, 11550, Note_on_c, 9, 36, 0
5, 11767, Note_on_c, 9, 36, 34
5, 11780, Note_on_c, 9, 36, 0
5, 11919, Note_on_c, 9, 57, 24
5, 11931, Note_on_c, 9, 57, 0
5, 11944, Note_on_c, 9, 57, 31
5, 11964, Note_on_c, 9, 57, 0
5, 11975, Note_on_c, 9, 57, 41
5, 11984, Note_on_c, 9, 57, 0
5, 12034, Note_on_c, 9, 36, 41
5, 12040, Note_on_c, 9, 36, 0
5, 12060, Note_on_c, 9, 36, 33
5, 12072, Note_on_c, 9, 36, 0
5, 12089, Note_on_c, 9, 36, 60
5, 12106, Note_on_c, 9, 36, 0
5, 12211, Note_on_c, 9, 38, 53
5, 12229, Note_on_c, 9, 38, 0
5, 12238, Note_on_c, 9, 38, 56
5, 12270, Note_on_c, 9, 36, 34
5, 12283, Note_on_c, 9, 36, 0
5, 12294, Note_on_c, 9, 36, 46
5, 12324, Note_on_c, 9, 38, 0
5, 12327, Note_on_c, 9, 36, 0
5, 12387, Note_on_c, 9, 38, 43
5, 12403, Note_on_c, 9, 38, 0
5, 12413, Note_on_c, 9, 38, 51
5, 12443, Note_on_c, 9, 36, 56
5, 12452, Note_on_c, 9, 38, 0
5, 12455, Note_on_c, 9, 36, 0
5, 12471, Note_on_c, 9, 57, 45
5, 12471, Note_on_c, 9, 38, 50
5, 12472, Note_on_c, 9, 36, 50
5, 12492, Note_on_c, 9, 57, 0
5, 12619, Note_on_c, 9, 38, 0
5, 12622, Note_on_c, 9, 36, 0
5, 12937, Note_on_c, 9, 38, 44
5, 12949, Note_on_c, 9, 38, 0
5, 12962, Note_on_c, 9, 38, 26
5, 12976, Note_on_c, 9, 38, 0
5, 13117, Note_on_c, 9, 38, 24
5, 13130, Note_on_c, 9, 38, 0
5, 13138, Note_on_c, 9, 38, 46
5, 13142, Note_on_c, 9, 38, 0
5, 13345, Note_on_c, 9, 40, 76
5, 13359, Note_on_c, 9, 40, 0
5, 13371, Note_on_c, 9, 40, 50
5, 13381, Note_on_c, 9, 40, 0
5, 13400, Note_on_c, 9, 36, 36
5, 13412, Note_on_c, 9, 36, 0
5, 13426, Note_on_c, 9, 38, 31
5, 13450, Note_on_c, 9, 38, 0
5, 13462, Note_on_c, 9, 38, 32
5, 13479, Note_on_c, 9, 38, 0
5, 13493, Note_on_c, 9, 38, 33
5, 13514, Note_on_c, 9, 38, 0
5, 13653, Note_on_c, 9, 38, 25
5, 13659, Note_on_c, 9, 38, 0
5, 13680, Note_on_c, 9, 38, 19
5, 13694, Note_on_c, 9, 38, 0
5, 13742, Note_on_c, 9, 38, 30
5, 13820, Note_on_c, 9, 38, 0
5, 14072, Note_on_c, 9, 38, 43
5, 14078, Note_on_c, 9, 38, 0
5, 14103, Note_on_c, 9, 36, 15
5, 14112, Note_on_c, 9, 36, 0
5, 14129, Note_on_c, 9, 36, 49
5, 14148, Note_on_c, 9, 36, 0
5, 14159, Note_on_c, 9, 36, 48
5, 14172, Note_on_c, 9, 36, 0
5, 14379, Note_on_c, 9, 36, 58
5, 14389, Note_on_c, 9, 36, 0
5, 14403, Note_on_c, 9, 36, 68
5, 14452, Note_on_c, 9, 36, 0
5, 14463, Note_on_c, 9, 36, 60
5, 14625, Note_on_c, 9, 36, 0
5, 14801, Note_on_c, 9, 38, 36
5, 14801, Note_on_c, 9, 40, 61
5, 14811, Note_on_c, 9, 38, 0
5, 14822, Note_on_c, 9, 40, 0
5, 14855, Note_on_c, 9, 36, 19
5, 14867, Note_on_c, 9, 36, 0
5, 14879, Note_on_c, 9, 36, 49
5, 14918, Note_on_c, 9, 36, 0
5, 15132, Note_on_c, 9, 36, 38
5, 15144, Note_on_c, 9, 36, 0
5, 15312, Note_on_c, 9, 36, 1
5, 15329, Note_on_c, 9, 36, 0
5, 15342, Note_on_c, 9, 52, 73
5, 15364, Note_on_c, 9, 52, 0
5, 15374, Note_on_c, 9, 49, 33
5, 15401, Note_on_c, 9, 49, 0
5, 15407, Note_on_c, 9, 36, 52
5, 15429, Note_on_c, 9, 36, 0
5, 15463, Note_on_c, 9, 36, 33
5, 15472, Note_on_c, 9, 36, 0
5, 15489, Note_on_c, 9, 36, 36
5, 15534, Note_on_c, 9, 52, 34
5, 15539, Note_on_c, 9, 52, 0
5, 15558, Note_on_c, 9, 36, 0
5, 15569, Note_on_c, 9, 49, 61
5, 15570, Note_on_c, 9, 52, 63
5, 15583, Note_on_c, 9, 49, 0
5, 15593, Note_on_c, 9, 52, 0
5, 15610, Note_on_c, 9, 52, 54
5, 15610, Note_on_c, 9, 49, 23
5, 15616, Note_on_c, 9, 49, 0
5, 15631, Note_on_c, 9, 52, 0
5, 15648, Note_on_c, 9, 49, 32
5, 15652, Note_on_c, 9, 49, 0
5, 15655, Note_on_c, 9, 36, 24
5, 15659, Note_on_c, 9, 36, 0
5, 15701, Note_on_c, 9, 36, 32
5, 15712, Note_on_c, 9, 36, 0
5, 15731, Note_on_c, 9, 36, 40
5, 15743, Note_on_c, 9, 36, 0
5, 15764, Note_on_c, 9, 49, 42
5, 15769, Note_on_c, 9, 52, 64
5, 15781, Note_on_c, 9, 49, 0
5, 15789, Note_on_c, 9, 52, 0
5, 15809, Note_on_c, 9, 36, 44
5, 15830, Note_on_c, 9, 36, 0
5, 15843, Note_on_c, 9, 36, 44
5, 15870, Note_on_c, 9, 36, 0
5, 16149, Note_on_c, 9, 38, 37
5, 16153, Note_on_c, 9, 38, 0
5, 16162, Note_on_c, 9, 38, 50
5, 16167, Note_on_c, 9, 38, 0
5, 16175, Note_on_c, 9, 38, 37
5, 16179, Note_on_c, 9, 38, 0
5, 16219, Note_on_c, 9, 36, 31
5, 16223, Note_on_c, 9, 36, 0
5, 16280, Note_on_c, 9, 38, 40
5, 16286, Note_on_c, 9, 38, 0
5, 16295, Note_on_c, 9, 38, 24
5, 16300, Note_on_c, 9, 38, 0
5, 16307, Note_on_c, 9, 38, 51
5, 16310, Note_on_c, 9, 38, 0
5, 16540, Note_on_c, 9, 36, 35
5, 16548, Note_on_c, 9, 36, 0
5, 16559, Note_on_c, 9, 36, 42
5, 16575, Note_on_c, 9, 36, 0
5, 16593, Note_on_c, 9, 36, 40
5, 16611, Note_on_c, 9, 36, 0
5, 16734, Note_on_c, 9, 38, 35
5, 16740, Note_on_c, 9, 38, 0
5, 16752, Note_on_c, 9, 38, 19
5, 16761, Note_on_c, 9, 38, 0
5, 16770, Note_on_c, 9, 38, 43
5, 16778, Note_on_c, 9, 38, 0
5, 16871, Note_on_c, 9, 38, 34
5, 16880, Note_on_c, 9, 38, 0
5, 16888, Note_on_c, 9, 38, 24
5, 16900, Note_on_c, 9, 38, 0
5, 16907, Note_on_c, 9, 38, 49
5, 16929, Note_on_c, 9, 38, 0
5, 16990, Note_on_c, 9, 36, 29
5, 16996, Note_on_c, 9, 36, 0
5, 17498, Note_on_c, 9, 38, 62
5, 17503, Note_on_c, 9, 38, 0
5, 17522, Note_on_c, 9, 36, 27
5, 17548, Note_on_c, 9, 36, 0
5, 17562, Note_on_c, 9, 36, 34
5, 17570, Note_on_c, 9, 36, 0
5, 17585, Note_on_c, 9, 36, 30
5, 17618, Note_on_c, 9, 36, 0
5, 17860, Note_on_c, 9, 38, 71
5, 17861, Note_on_c, 9, 40, 70
5, 17866, Note_on_c, 9, 38, 0
5, 17869, Note_on_c, 9, 40, 0
5, 17884, Note_on_c, 9, 36, 28
5, 17900, Note_on_c, 9, 36, 0
5, 17923, Note_on_c, 9, 36, 56
5, 17933, Note_on_c, 9, 36, 0
5, 17944, Note_on_c, 9, 36, 47
5, 17976, Note_on_c, 9, 36, 0
5, 18237, Note_on_c, 9, 36, 24
5, 18247, Note_on_c, 9, 36, 0
5, 18576, Note_on_c, 9, 36, 45
5, 18590, Note_on_c, 9, 36, 0
5, 18603, Note_on_c, 9, 36, 41
5, 18641, Note_on_c, 9, 36, 0
5, 18844, Note_on_c, 9, 40, 44
5, 18856, Note_on_c, 9, 40, 0
5, 18880, Note_on_c, 9, 38, 38
5, 18889, Note_on_c, 9, 38, 0
5, 18920, Note_on_c, 9, 38, 62
5, 18921, Note_on_c, 9, 36, 45
5, 18923, Note_on_c, 9, 40, 47
5, 18939, Note_on_c, 9, 38, 0
5, 18943, Note_on_c, 9, 36, 0
5, 18946, Note_on_c, 9, 40, 0
5, 18956, Note_on_c, 9, 38, 40
5, 18970, Note_on_c, 9, 38, 0
5, 18997, Note_on_c, 9, 38, 57
5, 18999, Note_on_c, 9, 36, 49
5, 19000, Note_on_c, 9, 40, 48
5, 19011, Note_on_c, 9, 38, 0
5, 19028, Note_on_c, 9, 36, 0
5, 19030, Note_on_c, 9, 40, 0
5, 19038, Note_on_c, 9, 38, 32
5, 19055, Note_on_c, 9, 38, 0
5, 19076, Note_on_c, 9, 38, 43
5, 19079, Note_on_c, 9, 36, 38
5, 19082, Note_on_c, 9, 40, 32
5, 19093, Note_on_c, 9, 38, 0
5, 19110, Note_on_c, 9, 40, 0
5, 19113, Note_on_c, 9, 36, 0
5, 19120, Note_on_c, 9, 38, 36
5, 19133, Note_on_c, 9, 38, 0
5, 19159, Note_on_c, 9, 38, 45
5, 19162, Note_on_c, 9, 40, 51
5, 19171, Note_on_c, 9, 38, 0
5, 19176, Note_on_c, 9, 40, 0
5, 19184, Note_on_c, 9, 36, 36
5, 19193, Note_on_c, 9, 36, 0
5, 19204, Note_on_c, 9, 36, 49
5, 19234, Note_on_c, 9, 36, 0
5, 19248, Note_on_c, 9, 36, 45
5, 19263, Note_on_c, 9, 36, 0
5, 19445, Note_on_c, 9, 36, 30
5, 19451, Note_on_c, 9, 36, 0
5, 19470, Note_on_c, 9, 38, 47
5, 19488, Note_on_c, 9, 38, 0
5, 19501, Note_on_c, 9, 38, 37
5, 19525, Note_on_c, 9, 38, 0
5, 19532, Note_on_c, 9, 36, 39
5, 19544, Note_on_c, 9, 36, 0
5, 19560, Note_on_c, 9, 36, 54
5, 19585, Note_on_c, 9, 36, 0
5, 19594, Note_on_c, 9, 38, 47
5, 19604, Note_on_c, 9, 38, 0
5, 19622, Note_on_c, 9, 38, 63
5, 19644, Note_on_c, 9, 38, 0
5, 19653, Note_on_c, 9, 36, 36
5, 19672, Note_on_c, 9, 36, 0
5, 19685, Note_on_c, 9, 36, 46
5, 19706, Note_on_c, 9, 36, 0
5, 19717, Note_on_c, 9, 38, 52
5, 19735, Note_on_c, 9, 38, 0
5, 19745, Note_on_c, 9, 38, 66
5, 19770, Note_on_c, 9, 38, 0
5, 19774, Note_on_c, 9, 36, 47
5, 19788, Note_on_c, 9, 36, 0
5, 19891, Note_on_c, 9, 38, 54
5, 19892, Note_on_c, 9, 40, 60
5, 19909, Note_on_c, 9, 38, 0
5, 19914, Note_on_c, 9, 40, 0
5, 19923, Note_on_c, 9, 38, 64
5, 19924, Note_on_c, 9, 40, 31
5, 19943, Note_on_c, 9, 38, 0
5, 19949, Note_on_c, 9, 40, 0
5, 19949, Note_on_c, 9, 36, 32
5, 19964, Note_on_c, 9, 36, 0
5, 20003, Note_on_c, 9, 36, 37
5, 20016, Note_on_c, 9, 36, 0
5, 20032, Note_on_c, 9, 38, 41
5, 20032, Note_on_c, 9, 40, 45
5, 20043, Note_on_c, 9, 38, 0
5, 20046, Note_on_c, 9, 40, 0
5, 20062, Note_on_c, 9, 36, 57
5, 20072, Note_on_c, 9, 36, 0
5, 20115, Note_on_c, 9, 36, 32
5, 20121, Note_on_c, 9, 36, 0
5, 20143, Note_on_c, 9, 52, 80
5, 20143, Note_on_c, 9, 49, 75
5, 20143, Note_on_c, 9, 38, 55
5, 20144, Note_on_c, 9, 40, 53
5, 20200, Note_on_c, 9, 49, 0
5, 20201, Note_on_c, 9, 52, 0
5, 20235, Note_on_c, 9, 40, 0
5, 20237, Note_on_c, 9, 38, 0
5, 20306, Note_on_c, 9, 36, 45
5, 20315, Note_on_c, 9, 36, 0
5, 20336, Note_on_c, 9, 36, 37
5, 20356, Note_on_c, 9, 36, 0
5, 20513, Note_on_c, 9, 38, 34
5, 20518, Note_on_c, 9, 38, 0
5, 20543, Note_on_c, 9, 38, 49
5, 20550, Note_on_c, 9, 38, 0
5, 20572, Note_on_c, 9, 38, 34
5, 20590, Note_on_c, 9, 38, 0
5, 20603, Note_on_c, 9, 36, 27
5, 20612, Note_on_c, 9, 36, 0
5, 20633, Note_on_c, 9, 49, 59
5, 20633, Note_on_c, 9, 52, 61
5, 20635, Note_on_c, 9, 36, 51
5, 20640, Note_on_c, 9, 49, 0
5, 20643, Note_on_c, 9, 52, 0
5, 20646, Note_on_c, 9, 36, 0
5, 21112, Note_on_c, 9, 36, 50
5, 21130, Note_on_c, 9, 36, 0
5, 21186, Note_on_c, 9, 36, 34
5, 21314, Note_on_c, 9, 36, 0
5, 21523, Note_on_c, 9, 37, 30
5, 21526, Note_on_c, 9, 37, 0
5, 21546, Note_on_c, 9, 37, 44
5, 21550, Note_on_c, 9, 37, 0
5, 21580, Note_on_c, 9, 36, 31
5, 21587, Note_on_c, 9, 36, 0
5, 21604, Note_on_c, 9, 36, 39
5, 21632, Note_on_c, 9, 36, 0
5, 21661, Note_on_c, 9, 36, 49
5, 21682, Note_on_c, 9, 36, 0
5, 21823, Note_on_c, 9, 38, 62
5, 21826, Note_on_c, 9, 38, 0
5, 21845, Note_on_c, 9, 36, 39
5, 21855, Note_on_c, 9, 36, 0
5, 21882, Note_on_c, 9, 36, 47
5, 21888, Note_on_c, 9, 36, 0
5, 22058, Note_on_c, 9, 36, 32
5, 22063, Note_on_c, 9, 36, 0
5, 22077, Note_on_c, 9, 52, 41
5, 22103, Note_on_c, 9, 52, 0
5, 22301, Note_on_c, 9, 36, 74
5, 22319, Note_on_c, 9, 36, 0
5, 22328, Note_on_c, 9, 36, 60
5, 22362, Note_on_c, 9, 36, 0
5, 22387, Note_on_c, 9, 36, 44
5, 22415, Note_on_c, 9, 36, 0
5, 22545, Note_on_c, 9, 38, 36
5, 22553, Note_on_c, 9, 38, 0
5, 22567, Note_on_c, 9, 38, 50
5, 22597, Note_on_c, 9, 38, 0
5, 22606, Note_on_c, 9, 36, 26
5, 22611, Note_on_c, 9, 36, 0
5, 22625, Note_on_c, 9, 36, 33
5, 22652, Note_on_c, 9, 36, 0
5, 22726, Note_on_c, 9, 38, 53
5, 22731, Note_on_c, 9, 38, 0
5, 22780, Note_on_c, 9, 38, 44
5, 22790, Note_on_c, 9, 38, 0
5, 22803, Note_on_c, 9, 36, 29
5, 22819, Note_on_c, 9, 36, 0
5, 22848, Note_on_c, 9, 36, 28
5, 22852, Note_on_c, 9, 36, 0
5, 22961, Note_on_c, 9, 38, 28
5, 22965, Note_on_c, 9, 38, 0
5, 23014, Note_on_c, 9, 38, 36
5, 23020, Note_on_c, 9, 38, 0
5, 23041, Note_on_c, 9, 46, 47
5, 23041, Note_on_c, 9, 36, 32
5, 23045, Note_on_c, 9, 46, 0
5, 23047, Note_on_c, 9, 36, 0
5, 23196, Note_on_c, 9, 38, 40
5, 23201, Note_on_c, 9, 38, 0
5, 23221, Note_on_c, 9, 36, 34
5, 23227, Note_on_c, 9, 36, 0
5, 23281, Note_on_c, 9, 46, 50
5, 23282, Note_on_c, 9, 36, 44
5, 23288, Note_on_c, 9, 46, 0
5, 23291, Note_on_c, 9, 36, 0
5, 23465, Note_on_c, 9, 38, 46
5, 23469, Note_on_c, 9, 38, 0
5, 23481, Note_on_c, 9, 38, 46
5, 23487, Note_on_c, 9, 38, 0
5, 23501, Note_on_c, 9, 36, 41
5, 23514, Note_on_c, 9, 36, 0
5, 23526, Note_on_c, 9, 36, 47
5, 23554, Note_on_c, 9, 36, 0
5, 23583, Note_on_c, 9, 36, 53
5, 23614, Note_on_c, 9, 36, 0
5, 23645, Note_on_c, 9, 44, 49
5, 23647, Note_on_c, 9, 46, 37
5, 23652, Note_on_c, 9, 44, 0
5, 23665, Note_on_c, 9, 46, 0
5, 23735, Note_on_c, 9, 36, 50
5, 23746, Note_on_c, 9, 36, 0
5, 23764, Note_on_c, 9, 36, 58
5, 24012, Note_on_c, 9, 49, 35
5, 24021, Note_on_c, 9, 52, 43
5, 24023, Note_on_c, 9, 49, 0
5, 24027, Note_on_c, 9, 52, 0
5, 24035, Note_on_c, 9, 49, 28
5, 24047, Note_on_c, 9, 49, 0
5, 24049, Note_on_c, 9, 52, 31
5, 24050, Note_on_c, 9, 36, 0
5, 24055, Note_on_c, 9, 52, 0
5, 24058, Note_on_c, 9, 49, 34
5, 24069, Note_on_c, 9, 52, 34
5, 24071, Note_on_c, 9, 49, 0
5, 24080, Note_on_c, 9, 52, 0
5, 24081, Note_on_c, 9, 49, 25
5, 24092, Note_on_c, 9, 49, 0
5, 24093, Note_on_c, 9, 52, 37
5, 24101, Note_on_c, 9, 52, 0
5, 24103, Note_on_c, 9, 49, 33
5, 24113, Note_on_c, 9, 49, 0
5, 24115, Note_on_c, 9, 52, 36
5, 24122, Note_on_c, 9, 52, 0
5, 24122, Note_on_c, 9, 49, 25
5, 24133, Note_on_c, 9, 49, 0
5, 24135, Note_on_c, 9, 52, 37
5, 24141, Note_on_c, 9, 52, 0
5, 24143, Note_on_c, 9, 49, 36
5, 24153, Note_on_c, 9, 49, 0
5, 24156, Note_on_c, 9, 52, 43
5, 24163, Note_on_c, 9, 52, 0
5, 24164, Note_on_c, 9, 49, 35
5, 24174, Note_on_c, 9, 49, 0
5, 24175, Note_on_c, 9, 52, 48
5, 24183, Note_on_c, 9, 52, 0
5, 24183, Note_on_c, 9, 49, 35
5, 24194, Note_on_c, 9, 49, 0
5, 24194, Note_on_c, 9, 52, 51
5, 24203, Note_on_c, 9, 52, 0
5, 24203, Note_on_c, 9, 49, 38
5, 24213, Note_on_c, 9, 49, 0
5, 24214, Note_on_c, 9, 52, 48
5, 24222, Note_on_c, 9, 52, 0
5, 24222, Note_on_c, 9, 49, 34
5, 24233, Note_on_c, 9, 49, 0
5, 24234, Note_on_c, 9, 52, 50
5, 24242, Note_on_c, 9, 49, 44
5, 24243, Note_on_c, 9, 52, 0
5, 24254, Note_on_c, 9, 49, 0
5, 24255, Note_on_c, 9, 52, 50
5, 24255, Note_on_c, 9, 36, 76
5, 24263, Note_on_c, 9, 49, 43
5, 24264, Note_on_c, 9, 52, 0
5, 24275, Note_on_c, 9, 49, 0
5, 24275, Note_on_c, 9, 52, 44
5, 24284, Note_on_c, 9, 49, 35
5, 24285, Note_on_c, 9, 52, 0
5, 24295, Note_on_c, 9, 49, 0
5, 24296, Note_on_c, 9, 52, 46
5, 24305, Note_on_c, 9, 52, 0
5, 24306, Note_on_c, 9, 49, 40
5, 24316, Note_on_c, 9, 49, 0
5, 24317, Note_on_c, 9, 52, 38
5, 24325, Note_on_c, 9, 52, 0
5, 24325, Note_on_c, 9, 49, 27
5, 24332, Note_on_c, 9, 36, 0
5, 24336, Note_on_c, 9, 49, 0
5, 24338, Note_on_c, 9, 52, 38
5, 24348, Note_on_c, 9, 52, 0
5, 24348, Note_on_c, 9, 49, 33
5, 24359, Note_on_c, 9, 49, 0
5, 24362, Note_on_c, 9, 52, 38
5, 24370, Note_on_c, 9, 52, 0
5, 24371, Note_on_c, 9, 49, 20
5, 24383, Note_on_c, 9, 49, 0
5, 24386, Note_on_c, 9, 52, 29
5, 24395, Note_on_c, 9, 52, 0
5, 24399, Note_on_c, 9, 49, 15
5, 24406, Note_on_c, 9, 49, 0
5, 24425, Note_on_c, 9, 49, 11
5, 24449, Note_on_c, 9, 57, 37
5, 24562, Note_on_c, 9, 57, 0
5, 24570, Note_on_c, 9, 49, 0
5, 25275, Note_on_c, 9, 40, 51
5, 25283, Note_on_c, 9, 40, 0
5, 25297, Note_on_c, 9, 40, 53
5, 25304, Note_on_c, 9, 40, 0
5, 25326, Note_on_c, 9, 37, 58
5, 25328, Note_on_c, 9, 57, 73
5, 25429, Note_on_c, 9, 57, 0
5, 25474, Note_on_c, 9, 37, 0
5, 25474, End_track
0, 0, End_of_file
