0, 0, Header, 1, 2, 120
1, 0, Start_track
1, 0, Title_t, "Spring Is Here - Kenny Barron reharmonization"
1, 0, Text_t, "dougmck@pipeline.com.au. See 'The Jazz Theory Book'by Mark Levine (Sher Music)  p 375\012"
1, 0, Text_t, "or Band-in-a-box file for chords He plays this on his Maybeck Hall CD (Concord Jazz CCD-4466)\012"
1, 0, Time_signature, 4, 2, 24, 8
1, 0, Key_signature, 1, "major"
1, 0, Tempo, 461538
1, 49, Marker_t, "The whole song basically uses simple triads over a G pedal the whole way through "
1, 4320, Marker_t, "First chord is B/G"
1, 4804, Marker_t, "The LH keeps an insistent G pedal - often in octaves - thru the whole song"
1, 13951, Marker_t, "Most of the RH stuff is based on the notes of the triad with diatonic neighbouring tones "
1, 17926, Marker_t, "Based on A magor Triad  with a missing note in each group of three"
1, 29171, Marker_t, "On the A/G chord the A triad is inverted"
1, 38880, Marker_t, "2nd Chorus begins"
1, 40069, Marker_t, "4 note Perfect Fourths from the C Major scale"
1, 41801, Marker_t, "'Country' sounding lick with the 9th (=2nd) sounded with the 3rd"
1, 42747, Marker_t, "Scale fragment from Eb Maj Sacle on Gsusb9 which is sometimes called the Phrygian chord"
1, 57374, Marker_t, "C pentatonic on C/G"
1, 63784, Marker_t, "'Country' type lick using the 9th (2nd)"
1, 63784, End_track
2, 0, Start_track
2, 0, Title_t, ""
2, 184, Note_on_c, 0, 72, 76
2, 241, Note_on_c, 0, 71, 56
2, 303, Note_on_c, 0, 71, 0
2, 304, Note_on_c, 0, 67, 57
2, 347, Note_on_c, 0, 72, 0
2, 351, Control_c, 0, 64, 127
2, 353, Note_on_c, 0, 67, 0
2, 366, Note_on_c, 0, 62, 37
2, 402, Note_on_c, 0, 62, 0
2, 426, Note_on_c, 0, 60, 31
2, 471, Note_on_c, 0, 60, 0
2, 483, Control_c, 0, 64, 0
2, 488, Note_on_c, 0, 59, 44
2, 495, Note_on_c, 0, 43, 30
2, 522, Control_c, 0, 64, 127
2, 590, Note_on_c, 0, 59, 0
2, 603, Note_on_c, 0, 50, 27
2, 674, Note_on_c, 0, 62, 40
2, 674, Note_on_c, 0, 54, 28
2, 677, Note_on_c, 0, 57, 35
2, 766, Note_on_c, 0, 54, 0
2, 774, Note_on_c, 0, 57, 0
2, 793, Note_on_c, 0, 50, 0
2, 798, Note_on_c, 0, 62, 0
2, 901, Note_on_c, 0, 50, 30
2, 914, Note_on_c, 0, 43, 0
2, 962, Note_on_c, 0, 50, 0
2, 964, Control_c, 0, 64, 0
2, 968, Note_on_c, 0, 43, 36
2, 970, Note_on_c, 0, 62, 59
2, 972, Note_on_c, 0, 69, 60
2, 1044, Control_c, 0, 64, 127
2, 1080, Note_on_c, 0, 50, 28
2, 1085, Note_on_c, 0, 62, 0
2, 1136, Note_on_c, 0, 69, 0
2, 1153, Note_on_c, 0, 66, 25
2, 1154, Note_on_c, 0, 62, 38
2, 1159, Note_on_c, 0, 57, 33
2, 1163, Note_on_c, 0, 55, 26
2, 1268, Note_on_c, 0, 50, 0
2, 1368, Note_on_c, 0, 66, 0
2, 1380, Note_on_c, 0, 57, 0
2, 1381, Note_on_c, 0, 62, 0
2, 1385, Note_on_c, 0, 50, 33
2, 1399, Note_on_c, 0, 43, 0
2, 1405, Note_on_c, 0, 55, 0
2, 1449, Note_on_c, 0, 50, 0
2, 1462, Note_on_c, 0, 64, 63
2, 1465, Note_on_c, 0, 43, 56
2, 1467, Note_on_c, 0, 60, 34
2, 1472, Control_c, 0, 64, 0
2, 1515, Control_c, 0, 64, 127
2, 1568, Note_on_c, 0, 60, 0
2, 1626, Note_on_c, 0, 64, 0
2, 1632, Note_on_c, 0, 60, 42
2, 1635, Note_on_c, 0, 52, 26
2, 1636, Control_c, 0, 64, 0
2, 1636, Note_on_c, 0, 55, 40
2, 1650, Control_c, 0, 64, 127
2, 1684, Note_on_c, 0, 55, 0
2, 1714, Note_on_c, 0, 43, 0
2, 1729, Note_on_c, 0, 60, 0
2, 1747, Note_on_c, 0, 43, 50
2, 1832, Note_on_c, 0, 43, 0
2, 1862, Note_on_c, 0, 43, 46
2, 1926, Note_on_c, 0, 74, 91
2, 1965, Note_on_c, 0, 74, 0
2, 1992, Note_on_c, 0, 77, 92
2, 2088, Note_on_c, 0, 43, 0
2, 2123, Note_on_c, 0, 76, 83
2, 2125, Note_on_c, 0, 43, 51
2, 2134, Note_on_c, 0, 77, 0
2, 2134, Control_c, 0, 64, 0
2, 2170, Control_c, 0, 64, 127
2, 2199, Note_on_c, 0, 52, 0
2, 2241, Note_on_c, 0, 72, 40
2, 2244, Note_on_c, 0, 52, 31
2, 2289, Note_on_c, 0, 72, 0
2, 2297, Note_on_c, 0, 76, 0
2, 2303, Note_on_c, 0, 67, 36
2, 2307, Note_on_c, 0, 43, 0
2, 2349, Note_on_c, 0, 67, 0
2, 2364, Note_on_c, 0, 65, 40
2, 2367, Note_on_c, 0, 43, 28
2, 2383, Note_on_c, 0, 43, 0
2, 2390, Note_on_c, 0, 65, 0
2, 2421, Note_on_c, 0, 66, 50
2, 2424, Note_on_c, 0, 43, 44
2, 2430, Note_on_c, 0, 52, 0
2, 2430, Control_c, 0, 64, 0
2, 2476, Control_c, 0, 64, 127
2, 2521, Note_on_c, 0, 66, 0
2, 2526, Note_on_c, 0, 69, 47
2, 2528, Note_on_c, 0, 50, 24
2, 2563, Note_on_c, 0, 69, 0
2, 2589, Note_on_c, 0, 62, 53
2, 2595, Note_on_c, 0, 57, 37
2, 2601, Note_on_c, 0, 55, 30
2, 2603, Control_c, 0, 64, 0
2, 2634, Control_c, 0, 64, 127
2, 2659, Note_on_c, 0, 43, 0
2, 2688, Note_on_c, 0, 57, 0
2, 2697, Note_on_c, 0, 55, 0
2, 2698, Note_on_c, 0, 43, 40
2, 2718, Note_on_c, 0, 50, 0
2, 2735, Note_on_c, 0, 43, 0
2, 2767, Note_on_c, 0, 62, 0
2, 2778, Note_on_c, 0, 57, 22
2, 2792, Note_on_c, 0, 57, 0
2, 2819, Note_on_c, 0, 31, 40
2, 2840, Note_on_c, 0, 31, 0
2, 2882, Note_on_c, 0, 54, 35
2, 2886, Note_on_c, 0, 57, 44
2, 2886, Note_on_c, 0, 43, 37
2, 2887, Control_c, 0, 64, 0
2, 2889, Note_on_c, 0, 31, 33
2, 2889, Note_on_c, 0, 62, 28
2, 2897, Note_on_c, 0, 57, 0
2, 2900, Note_on_c, 0, 54, 0
2, 2903, Note_on_c, 0, 43, 0
2, 2904, Note_on_c, 0, 31, 0
2, 2906, Note_on_c, 0, 62, 0
2, 2998, Control_c, 0, 64, 127
2, 3066, Control_c, 0, 64, 0
2, 3066, Note_on_c, 0, 54, 27
2, 3066, Note_on_c, 0, 31, 35
2, 3068, Note_on_c, 0, 62, 40
2, 3071, Note_on_c, 0, 43, 24
2, 3075, Note_on_c, 0, 59, 37
2, 3076, Note_on_c, 0, 57, 30
2, 3119, Control_c, 0, 64, 127
2, 3184, Note_on_c, 0, 31, 0
2, 3202, Note_on_c, 0, 43, 0
2, 3229, Note_on_c, 0, 54, 0
2, 3247, Note_on_c, 0, 54, 19
2, 3288, Note_on_c, 0, 57, 0
2, 3299, Note_on_c, 0, 54, 0
2, 3306, Note_on_c, 0, 59, 0
2, 3312, Note_on_c, 0, 43, 48
2, 3340, Note_on_c, 0, 43, 0
2, 3354, Note_on_c, 0, 62, 0
2, 3385, Note_on_c, 0, 55, 68
2, 3386, Note_on_c, 0, 43, 49
2, 3388, Note_on_c, 0, 60, 64
2, 3393, Control_c, 0, 64, 0
2, 3448, Control_c, 0, 64, 127
2, 3554, Note_on_c, 0, 64, 53
2, 3559, Note_on_c, 0, 52, 24
2, 3564, Control_c, 0, 64, 0
2, 3571, Control_c, 0, 64, 127
2, 3638, Note_on_c, 0, 43, 0
2, 3716, Note_on_c, 0, 43, 46
2, 3723, Note_on_c, 0, 60, 0
2, 3729, Note_on_c, 0, 43, 0
2, 3744, Note_on_c, 0, 55, 0
2, 3789, Note_on_c, 0, 43, 30
2, 3809, Note_on_c, 0, 43, 0
2, 3852, Note_on_c, 0, 55, 34
2, 3856, Note_on_c, 0, 60, 39
2, 3858, Note_on_c, 0, 43, 35
2, 3871, Note_on_c, 0, 52, 0
2, 3924, Note_on_c, 0, 43, 0
2, 3934, Note_on_c, 0, 55, 0
2, 3978, Note_on_c, 0, 43, 41
2, 3979, Note_on_c, 0, 60, 0
2, 3987, Note_on_c, 0, 64, 0
2, 4030, Note_on_c, 0, 43, 0
2, 4146, Note_on_c, 0, 55, 66
2, 4207, Note_on_c, 0, 67, 90
2, 4207, Note_on_c, 0, 64, 90
2, 4258, Note_on_c, 0, 64, 0
2, 4263, Note_on_c, 0, 43, 61
2, 4268, Note_on_c, 0, 55, 0
2, 4307, Note_on_c, 0, 67, 0
2, 4329, Note_on_c, 0, 66, 86
2, 4329, Note_on_c, 0, 63, 86
2, 4332, Note_on_c, 0, 59, 83
2, 4334, Control_c, 0, 64, 0
2, 4336, Note_on_c, 0, 55, 66
2, 4384, Control_c, 0, 64, 127
2, 4436, Note_on_c, 0, 55, 0
2, 4510, Note_on_c, 0, 55, 53
2, 4566, Note_on_c, 0, 55, 0
2, 4673, Note_on_c, 0, 63, 0
2, 4680, Note_on_c, 0, 66, 0
2, 4686, Note_on_c, 0, 43, 0
2, 4687, Note_on_c, 0, 59, 0
2, 4814, Note_on_c, 0, 66, 35
2, 4814, Note_on_c, 0, 54, 39
2, 4816, Note_on_c, 0, 43, 28
2, 4817, Note_on_c, 0, 31, 30
2, 4820, Note_on_c, 0, 63, 30
2, 4820, Note_on_c, 0, 59, 46
2, 4825, Control_c, 0, 64, 0
2, 4876, Control_c, 0, 64, 127
2, 4927, Note_on_c, 0, 59, 0
2, 4937, Note_on_c, 0, 54, 0
2, 4938, Note_on_c, 0, 43, 0
2, 4952, Note_on_c, 0, 66, 0
2, 4953, Note_on_c, 0, 63, 0
2, 4986, Note_on_c, 0, 66, 44
2, 4993, Note_on_c, 0, 63, 37
2, 4994, Note_on_c, 0, 59, 47
2, 4994, Note_on_c, 0, 43, 31
2, 4996, Note_on_c, 0, 55, 44
2, 5005, Note_on_c, 0, 31, 0
2, 5053, Note_on_c, 0, 43, 0
2, 5122, Note_on_c, 0, 55, 0
2, 5152, Note_on_c, 0, 66, 0
2, 5178, Note_on_c, 0, 59, 0
2, 5200, Note_on_c, 0, 63, 0
2, 5221, Note_on_c, 0, 67, 66
2, 5255, Note_on_c, 0, 67, 0
2, 5298, Note_on_c, 0, 64, 55
2, 5301, Note_on_c, 0, 43, 39
2, 5302, Control_c, 0, 64, 0
2, 5304, Note_on_c, 0, 52, 34
2, 5308, Note_on_c, 0, 60, 39
2, 5311, Note_on_c, 0, 55, 27
2, 5348, Control_c, 0, 64, 127
2, 5380, Note_on_c, 0, 55, 0
2, 5401, Note_on_c, 0, 60, 0
2, 5408, Note_on_c, 0, 64, 0
2, 5421, Note_on_c, 0, 52, 0
2, 5479, Note_on_c, 0, 76, 53
2, 5485, Note_on_c, 0, 52, 33
2, 5489, Note_on_c, 0, 67, 34
2, 5566, Note_on_c, 0, 76, 0
2, 5579, Note_on_c, 0, 67, 0
2, 5607, Note_on_c, 0, 43, 0
2, 5708, Note_on_c, 0, 52, 0
2, 5713, Note_on_c, 0, 43, 40
2, 5780, Note_on_c, 0, 64, 41
2, 5781, Note_on_c, 0, 52, 24
2, 5784, Note_on_c, 0, 60, 36
2, 5787, Note_on_c, 0, 55, 26
2, 5790, Control_c, 0, 64, 0
2, 5826, Control_c, 0, 64, 127
2, 5872, Note_on_c, 0, 55, 0
2, 5875, Note_on_c, 0, 52, 0
2, 5875, Note_on_c, 0, 60, 0
2, 5950, Note_on_c, 0, 60, 33
2, 5953, Note_on_c, 0, 55, 24
2, 5955, Note_on_c, 0, 52, 26
2, 6003, Note_on_c, 0, 43, 0
2, 6011, Note_on_c, 0, 55, 0
2, 6069, Note_on_c, 0, 43, 40
2, 6090, Note_on_c, 0, 64, 0
2, 6136, Note_on_c, 0, 43, 0
2, 6136, Note_on_c, 0, 60, 0
2, 6178, Note_on_c, 0, 67, 101
2, 6185, Note_on_c, 0, 43, 48
2, 6205, Note_on_c, 0, 52, 0
2, 6240, Note_on_c, 0, 43, 0
2, 6240, Note_on_c, 0, 67, 0
2, 6259, Note_on_c, 0, 66, 82
2, 6261, Note_on_c, 0, 63, 77
2, 6262, Note_on_c, 0, 59, 78
2, 6265, Note_on_c, 0, 43, 55
2, 6272, Control_c, 0, 64, 0
2, 6325, Control_c, 0, 64, 127
2, 6367, Note_on_c, 0, 51, 50
2, 6393, Note_on_c, 0, 59, 0
2, 6394, Note_on_c, 0, 63, 0
2, 6435, Note_on_c, 0, 66, 0
2, 6447, Note_on_c, 0, 63, 53
2, 6447, Note_on_c, 0, 66, 37
2, 6449, Note_on_c, 0, 59, 57
2, 6468, Note_on_c, 0, 51, 0
2, 6553, Note_on_c, 0, 54, 83
2, 6563, Note_on_c, 0, 52, 30
2, 6566, Note_on_c, 0, 59, 0
2, 6572, Note_on_c, 0, 52, 0
2, 6578, Control_c, 0, 64, 0
2, 6586, Note_on_c, 0, 63, 0
2, 6616, Control_c, 0, 64, 127
2, 6630, Note_on_c, 0, 63, 37
2, 6631, Note_on_c, 0, 59, 38
2, 6649, Note_on_c, 0, 59, 0
2, 6656, Note_on_c, 0, 63, 0
2, 6706, Note_on_c, 0, 66, 0
2, 6735, Note_on_c, 0, 66, 32
2, 6735, Note_on_c, 0, 63, 42
2, 6738, Note_on_c, 0, 59, 47
2, 6739, Control_c, 0, 64, 0
2, 6789, Control_c, 0, 64, 127
2, 6794, Control_c, 0, 64, 0
2, 6816, Note_on_c, 0, 51, 44
2, 6830, Control_c, 0, 64, 127
2, 6865, Note_on_c, 0, 63, 0
2, 6868, Note_on_c, 0, 59, 0
2, 6882, Note_on_c, 0, 66, 0
2, 6923, Note_on_c, 0, 66, 34
2, 6926, Note_on_c, 0, 63, 35
2, 6928, Note_on_c, 0, 59, 45
2, 6932, Note_on_c, 0, 43, 0
2, 7032, Note_on_c, 0, 43, 51
2, 7074, Note_on_c, 0, 54, 0
2, 7094, Note_on_c, 0, 43, 0
2, 7127, Note_on_c, 0, 66, 0
2, 7144, Note_on_c, 0, 63, 0
2, 7146, Note_on_c, 0, 43, 50
2, 7148, Note_on_c, 0, 67, 62
2, 7159, Note_on_c, 0, 51, 0
2, 7162, Note_on_c, 0, 59, 0
2, 7170, Note_on_c, 0, 43, 0
2, 7185, Note_on_c, 0, 67, 0
2, 7220, Note_on_c, 0, 64, 47
2, 7222, Note_on_c, 0, 43, 36
2, 7223, Control_c, 0, 64, 0
2, 7225, Note_on_c, 0, 52, 39
2, 7227, Note_on_c, 0, 60, 49
2, 7228, Note_on_c, 0, 55, 34
2, 7278, Control_c, 0, 64, 127
2, 7327, Note_on_c, 0, 60, 0
2, 7330, Note_on_c, 0, 55, 0
2, 7332, Note_on_c, 0, 52, 0
2, 7393, Note_on_c, 0, 60, 41
2, 7394, Note_on_c, 0, 55, 44
2, 7398, Note_on_c, 0, 52, 29
2, 7477, Note_on_c, 0, 43, 0
2, 7510, Note_on_c, 0, 43, 35
2, 7539, Note_on_c, 0, 55, 0
2, 7611, Note_on_c, 0, 60, 0
2, 7619, Note_on_c, 0, 52, 0
2, 7741, Note_on_c, 0, 52, 36
2, 7819, Note_on_c, 0, 52, 0
2, 7864, Note_on_c, 0, 52, 33
2, 7886, Note_on_c, 0, 52, 0
2, 7900, Note_on_c, 0, 64, 0
2, 7923, Note_on_c, 0, 64, 36
2, 7928, Note_on_c, 0, 60, 52
2, 8041, Note_on_c, 0, 55, 38
2, 8053, Note_on_c, 0, 64, 0
2, 8057, Note_on_c, 0, 60, 0
2, 8059, Note_on_c, 0, 43, 0
2, 8083, Note_on_c, 0, 55, 0
2, 8098, Note_on_c, 0, 43, 48
2, 8162, Note_on_c, 0, 62, 78
2, 8162, Note_on_c, 0, 60, 83
2, 8163, Note_on_c, 0, 55, 88
2, 8163, Note_on_c, 0, 56, 74
2, 8171, Control_c, 0, 64, 0
2, 8226, Control_c, 0, 64, 127
2, 8244, Note_on_c, 0, 55, 0
2, 8268, Note_on_c, 0, 56, 0
2, 8270, Note_on_c, 0, 60, 0
2, 8277, Note_on_c, 0, 55, 46
2, 8301, Note_on_c, 0, 55, 0
2, 8336, Note_on_c, 0, 62, 0
2, 8354, Note_on_c, 0, 62, 19
2, 8358, Note_on_c, 0, 60, 54
2, 8360, Note_on_c, 0, 55, 31
2, 8360, Note_on_c, 0, 56, 31
2, 8401, Note_on_c, 0, 55, 0
2, 8471, Note_on_c, 0, 55, 58
2, 8482, Note_on_c, 0, 55, 0
2, 8507, Note_on_c, 0, 43, 0
2, 8568, Note_on_c, 0, 56, 0
2, 8575, Note_on_c, 0, 60, 0
2, 8575, Note_on_c, 0, 31, 32
2, 8613, Note_on_c, 0, 62, 0
2, 8616, Note_on_c, 0, 31, 0
2, 8642, Note_on_c, 0, 43, 58
2, 8644, Note_on_c, 0, 55, 67
2, 8646, Note_on_c, 0, 62, 45
2, 8647, Control_c, 0, 64, 0
2, 8648, Note_on_c, 0, 56, 48
2, 8649, Note_on_c, 0, 31, 33
2, 8650, Note_on_c, 0, 60, 64
2, 8698, Control_c, 0, 64, 127
2, 8793, Note_on_c, 0, 31, 0
2, 8797, Note_on_c, 0, 55, 0
2, 8802, Note_on_c, 0, 56, 0
2, 8802, Note_on_c, 0, 43, 0
2, 8806, Note_on_c, 0, 60, 0
2, 8809, Note_on_c, 0, 62, 0
2, 8833, Note_on_c, 0, 62, 62
2, 8835, Note_on_c, 0, 55, 49
2, 8836, Note_on_c, 0, 56, 36
2, 8837, Note_on_c, 0, 43, 45
2, 8838, Control_c, 0, 64, 0
2, 8838, Note_on_c, 0, 31, 42
2, 8839, Note_on_c, 0, 60, 60
2, 8866, Control_c, 0, 64, 127
2, 8890, Note_on_c, 0, 31, 0
2, 8956, Note_on_c, 0, 31, 71
2, 9012, Note_on_c, 0, 56, 0
2, 9013, Note_on_c, 0, 55, 0
2, 9013, Note_on_c, 0, 60, 0
2, 9019, Note_on_c, 0, 43, 0
2, 9021, Note_on_c, 0, 31, 0
2, 9023, Note_on_c, 0, 62, 0
2, 9065, Note_on_c, 0, 64, 76
2, 9066, Note_on_c, 0, 60, 81
2, 9068, Note_on_c, 0, 56, 67
2, 9068, Note_on_c, 0, 55, 87
2, 9069, Note_on_c, 0, 31, 77
2, 9069, Note_on_c, 0, 43, 68
2, 9075, Note_on_c, 0, 62, 45
2, 9103, Note_on_c, 0, 62, 0
2, 9106, Note_on_c, 0, 64, 0
2, 9106, Note_on_c, 0, 60, 0
2, 9117, Note_on_c, 0, 55, 0
2, 9119, Note_on_c, 0, 56, 0
2, 9120, Note_on_c, 0, 43, 0
2, 9122, Note_on_c, 0, 31, 0
2, 9144, Note_on_c, 0, 60, 80
2, 9147, Note_on_c, 0, 55, 78
2, 9148, Note_on_c, 0, 31, 51
2, 9148, Control_c, 0, 64, 0
2, 9149, Note_on_c, 0, 52, 62
2, 9151, Note_on_c, 0, 43, 58
2, 9225, Control_c, 0, 64, 127
2, 9264, Note_on_c, 0, 43, 0
2, 9310, Note_on_c, 0, 43, 62
2, 9339, Note_on_c, 0, 31, 0
2, 9344, Note_on_c, 0, 43, 0
2, 9370, Note_on_c, 0, 52, 0
2, 9402, Note_on_c, 0, 55, 0
2, 9423, Note_on_c, 0, 43, 40
2, 9456, Note_on_c, 0, 43, 0
2, 9481, Note_on_c, 0, 43, 45
2, 9501, Note_on_c, 0, 60, 0
2, 9509, Note_on_c, 0, 43, 0
2, 9546, Note_on_c, 0, 43, 50
2, 9573, Note_on_c, 0, 43, 0
2, 9609, Note_on_c, 0, 60, 51
2, 9609, Note_on_c, 0, 55, 44
2, 9610, Note_on_c, 0, 43, 45
2, 9620, Control_c, 0, 64, 0
2, 9639, Control_c, 0, 64, 127
2, 9687, Note_on_c, 0, 55, 0
2, 9706, Note_on_c, 0, 60, 0
2, 9724, Note_on_c, 0, 55, 47
2, 9747, Note_on_c, 0, 55, 0
2, 9792, Note_on_c, 0, 55, 46
2, 9802, Note_on_c, 0, 55, 0
2, 9909, Note_on_c, 0, 55, 42
2, 9924, Note_on_c, 0, 55, 0
2, 9972, Note_on_c, 0, 64, 72
2, 9985, Note_on_c, 0, 43, 0
2, 10006, Note_on_c, 0, 64, 0
2, 10035, Note_on_c, 0, 64, 73
2, 10072, Note_on_c, 0, 64, 0
2, 10100, Note_on_c, 0, 43, 39
2, 10103, Note_on_c, 0, 62, 60
2, 10104, Control_c, 0, 64, 0
2, 10105, Note_on_c, 0, 55, 49
2, 10106, Note_on_c, 0, 60, 58
2, 10109, Note_on_c, 0, 56, 36
2, 10154, Control_c, 0, 64, 127
2, 10178, Note_on_c, 0, 55, 0
2, 10182, Note_on_c, 0, 62, 0
2, 10186, Note_on_c, 0, 56, 0
2, 10186, Note_on_c, 0, 60, 0
2, 10272, Note_on_c, 0, 55, 49
2, 10275, Note_on_c, 0, 62, 51
2, 10276, Note_on_c, 0, 60, 50
2, 10276, Note_on_c, 0, 56, 33
2, 10279, Control_c, 0, 64, 0
2, 10306, Control_c, 0, 64, 127
2, 10314, Note_on_c, 0, 43, 0
2, 10397, Note_on_c, 0, 43, 67
2, 10412, Note_on_c, 0, 43, 0
2, 10437, Note_on_c, 0, 55, 0
2, 10444, Note_on_c, 0, 56, 0
2, 10447, Note_on_c, 0, 60, 0
2, 10448, Note_on_c, 0, 62, 0
2, 10452, Note_on_c, 0, 31, 61
2, 10467, Control_c, 0, 64, 0
2, 10493, Control_c, 0, 64, 127
2, 10572, Note_on_c, 0, 55, 28
2, 10573, Note_on_c, 0, 60, 50
2, 10575, Control_c, 0, 64, 0
2, 10575, Note_on_c, 0, 56, 25
2, 10576, Note_on_c, 0, 62, 36
2, 10592, Control_c, 0, 64, 127
2, 10642, Note_on_c, 0, 43, 58
2, 10652, Control_c, 0, 64, 0
2, 10679, Control_c, 0, 64, 127
2, 10691, Note_on_c, 0, 31, 0
2, 10713, Note_on_c, 0, 43, 0
2, 10749, Note_on_c, 0, 43, 60
2, 10780, Note_on_c, 0, 43, 0
2, 10823, Note_on_c, 0, 43, 36
2, 10859, Note_on_c, 0, 43, 0
2, 10905, Note_on_c, 0, 62, 0
2, 10907, Note_on_c, 0, 60, 0
2, 10911, Note_on_c, 0, 55, 0
2, 10924, Note_on_c, 0, 64, 58
2, 10957, Note_on_c, 0, 64, 0
2, 10958, Note_on_c, 0, 56, 0
2, 11048, Note_on_c, 0, 52, 31
2, 11050, Note_on_c, 0, 43, 46
2, 11051, Note_on_c, 0, 60, 34
2, 11051, Note_on_c, 0, 55, 49
2, 11052, Control_c, 0, 64, 0
2, 11085, Control_c, 0, 64, 127
2, 11156, Note_on_c, 0, 55, 0
2, 11156, Note_on_c, 0, 52, 0
2, 11160, Note_on_c, 0, 60, 0
2, 11170, Note_on_c, 0, 43, 0
2, 11227, Note_on_c, 0, 55, 53
2, 11228, Note_on_c, 0, 52, 19
2, 11231, Note_on_c, 0, 43, 39
2, 11233, Note_on_c, 0, 60, 30
2, 11238, Note_on_c, 0, 52, 0
2, 11250, Note_on_c, 0, 55, 0
2, 11255, Note_on_c, 0, 60, 0
2, 11350, Note_on_c, 0, 63, 50
2, 11375, Note_on_c, 0, 63, 0
2, 11384, Note_on_c, 0, 43, 0
2, 11414, Note_on_c, 0, 67, 55
2, 11460, Note_on_c, 0, 67, 0
2, 11469, Note_on_c, 0, 74, 84
2, 11472, Note_on_c, 0, 67, 57
2, 11507, Note_on_c, 0, 67, 0
2, 11510, Note_on_c, 0, 74, 0
2, 11532, Note_on_c, 0, 74, 63
2, 11537, Note_on_c, 0, 63, 44
2, 11537, Note_on_c, 0, 55, 48
2, 11538, Control_c, 0, 64, 0
2, 11538, Note_on_c, 0, 67, 60
2, 11562, Control_c, 0, 64, 127
2, 11628, Note_on_c, 0, 74, 0
2, 11642, Note_on_c, 0, 63, 0
2, 11642, Note_on_c, 0, 72, 38
2, 11645, Note_on_c, 0, 67, 0
2, 11704, Note_on_c, 0, 72, 0
2, 11710, Note_on_c, 0, 67, 49
2, 11715, Note_on_c, 0, 63, 19
2, 11715, Note_on_c, 0, 43, 44
2, 11780, Note_on_c, 0, 55, 0
2, 11824, Note_on_c, 0, 55, 53
2, 11827, Note_on_c, 0, 67, 0
2, 11844, Note_on_c, 0, 63, 0
2, 11882, Note_on_c, 0, 43, 0
2, 11916, Note_on_c, 0, 55, 0
2, 11934, Note_on_c, 0, 43, 43
2, 11949, Note_on_c, 0, 43, 0
2, 12000, Note_on_c, 0, 50, 45
2, 12002, Note_on_c, 0, 55, 45
2, 12003, Note_on_c, 0, 59, 43
2, 12005, Note_on_c, 0, 43, 44
2, 12010, Control_c, 0, 64, 0
2, 12055, Control_c, 0, 64, 127
2, 12092, Note_on_c, 0, 50, 0
2, 12124, Note_on_c, 0, 50, 33
2, 12153, Note_on_c, 0, 50, 0
2, 12165, Note_on_c, 0, 55, 0
2, 12180, Note_on_c, 0, 31, 47
2, 12186, Note_on_c, 0, 59, 0
2, 12188, Note_on_c, 0, 31, 0
2, 12199, Note_on_c, 0, 43, 0
2, 12318, Note_on_c, 0, 60, 57
2, 12320, Note_on_c, 0, 55, 54
2, 12322, Note_on_c, 0, 43, 38
2, 12324, Note_on_c, 0, 52, 46
2, 12330, Control_c, 0, 64, 0
2, 12368, Control_c, 0, 64, 127
2, 12392, Note_on_c, 0, 43, 0
2, 12415, Note_on_c, 0, 55, 0
2, 12418, Note_on_c, 0, 60, 0
2, 12438, Note_on_c, 0, 43, 39
2, 12449, Note_on_c, 0, 52, 0
2, 12471, Note_on_c, 0, 43, 0
2, 12498, Note_on_c, 0, 62, 63
2, 12499, Note_on_c, 0, 59, 68
2, 12500, Note_on_c, 0, 54, 68
2, 12500, Note_on_c, 0, 43, 44
2, 12501, Note_on_c, 0, 57, 65
2, 12503, Control_c, 0, 64, 0
2, 12554, Control_c, 0, 64, 127
2, 12618, Note_on_c, 0, 62, 0
2, 12624, Note_on_c, 0, 43, 0
2, 12625, Note_on_c, 0, 59, 0
2, 12628, Note_on_c, 0, 57, 0
2, 12638, Note_on_c, 0, 54, 0
2, 12677, Note_on_c, 0, 43, 13
2, 12680, Note_on_c, 0, 64, 51
2, 12684, Note_on_c, 0, 60, 56
2, 12685, Note_on_c, 0, 55, 39
2, 12686, Note_on_c, 0, 52, 38
2, 12689, Control_c, 0, 64, 0
2, 12729, Control_c, 0, 64, 127
2, 12754, Note_on_c, 0, 43, 0
2, 12793, Note_on_c, 0, 55, 0
2, 12794, Note_on_c, 0, 43, 53
2, 12829, Note_on_c, 0, 43, 0
2, 12849, Note_on_c, 0, 60, 0
2, 12857, Note_on_c, 0, 55, 45
2, 12869, Note_on_c, 0, 55, 0
2, 12882, Note_on_c, 0, 64, 0
2, 12912, Note_on_c, 0, 43, 55
2, 12916, Note_on_c, 0, 52, 0
2, 12969, Note_on_c, 0, 66, 84
2, 12970, Note_on_c, 0, 63, 83
2, 12972, Control_c, 0, 64, 0
2, 12973, Note_on_c, 0, 54, 69
2, 12973, Note_on_c, 0, 59, 80
2, 13013, Control_c, 0, 64, 127
2, 13093, Note_on_c, 0, 43, 0
2, 13149, Note_on_c, 0, 59, 0
2, 13150, Note_on_c, 0, 54, 0
2, 13150, Note_on_c, 0, 43, 39
2, 13196, Note_on_c, 0, 63, 0
2, 13198, Note_on_c, 0, 66, 0
2, 13217, Note_on_c, 0, 67, 57
2, 13218, Note_on_c, 0, 52, 31
2, 13221, Note_on_c, 0, 64, 50
2, 13221, Note_on_c, 0, 59, 36
2, 13223, Control_c, 0, 64, 0
2, 13262, Note_on_c, 0, 43, 0
2, 13264, Control_c, 0, 64, 127
2, 13321, Note_on_c, 0, 59, 0
2, 13330, Note_on_c, 0, 64, 0
2, 13330, Note_on_c, 0, 43, 35
2, 13348, Note_on_c, 0, 52, 0
2, 13359, Note_on_c, 0, 43, 0
2, 13365, Note_on_c, 0, 67, 0
2, 13396, Note_on_c, 0, 43, 47
2, 13454, Control_c, 0, 64, 0
2, 13455, Note_on_c, 0, 63, 44
2, 13456, Note_on_c, 0, 54, 56
2, 13456, Note_on_c, 0, 69, 52
2, 13457, Note_on_c, 0, 66, 44
2, 13457, Note_on_c, 0, 57, 47
2, 13490, Control_c, 0, 64, 127
2, 13542, Note_on_c, 0, 57, 0
2, 13555, Note_on_c, 0, 69, 0
2, 13562, Note_on_c, 0, 54, 0
2, 13581, Note_on_c, 0, 63, 0
2, 13593, Note_on_c, 0, 66, 0
2, 13621, Note_on_c, 0, 71, 54
2, 13625, Note_on_c, 0, 67, 51
2, 13626, Note_on_c, 0, 62, 48
2, 13627, Control_c, 0, 64, 0
2, 13629, Note_on_c, 0, 64, 48
2, 13631, Note_on_c, 0, 55, 31
2, 13663, Control_c, 0, 64, 127
2, 13669, Note_on_c, 0, 43, 0
2, 13736, Note_on_c, 0, 43, 44
2, 13750, Note_on_c, 0, 62, 0
2, 13758, Note_on_c, 0, 43, 0
2, 13766, Note_on_c, 0, 55, 0
2, 13801, Note_on_c, 0, 62, 32
2, 13805, Note_on_c, 0, 67, 0
2, 13808, Note_on_c, 0, 64, 0
2, 13815, Note_on_c, 0, 71, 0
2, 13828, Note_on_c, 0, 62, 0
2, 13861, Note_on_c, 0, 43, 39
2, 13887, Note_on_c, 0, 43, 0
2, 13913, Control_c, 0, 64, 0
2, 13918, Note_on_c, 0, 43, 13
2, 13923, Note_on_c, 0, 64, 38
2, 13925, Note_on_c, 0, 55, 38
2, 13925, Note_on_c, 0, 52, 30
2, 13928, Note_on_c, 0, 60, 36
2, 13950, Control_c, 0, 64, 127
2, 13993, Note_on_c, 0, 55, 0
2, 14018, Note_on_c, 0, 60, 0
2, 14028, Note_on_c, 0, 64, 0
2, 14046, Note_on_c, 0, 43, 0
2, 14097, Note_on_c, 0, 43, 40
2, 14160, Note_on_c, 0, 77, 81
2, 14166, Note_on_c, 0, 52, 0
2, 14205, Note_on_c, 0, 77, 0
2, 14220, Note_on_c, 0, 67, 38
2, 14266, Note_on_c, 0, 67, 0
2, 14280, Note_on_c, 0, 76, 65
2, 14344, Note_on_c, 0, 52, 36
2, 14369, Note_on_c, 0, 76, 0
2, 14407, Note_on_c, 0, 64, 33
2, 14419, Note_on_c, 0, 43, 0
2, 14463, Note_on_c, 0, 64, 0
2, 14469, Note_on_c, 0, 72, 66
2, 14472, Note_on_c, 0, 43, 32
2, 14544, Note_on_c, 0, 43, 0
2, 14579, Note_on_c, 0, 72, 0
2, 14580, Note_on_c, 0, 43, 47
2, 14622, Note_on_c, 0, 52, 0
2, 14648, Note_on_c, 0, 55, 28
2, 14682, Note_on_c, 0, 55, 0
2, 14709, Note_on_c, 0, 60, 43
2, 14714, Note_on_c, 0, 52, 27
2, 14723, Note_on_c, 0, 60, 0
2, 14737, Note_on_c, 0, 52, 0
2, 14765, Note_on_c, 0, 43, 0
2, 14769, Note_on_c, 0, 64, 38
2, 14785, Note_on_c, 0, 64, 0
2, 14827, Note_on_c, 0, 67, 90
2, 14862, Note_on_c, 0, 67, 0
2, 14895, Note_on_c, 0, 67, 88
2, 14897, Note_on_c, 0, 43, 49
2, 14898, Control_c, 0, 64, 0
2, 14931, Control_c, 0, 64, 127
2, 14985, Note_on_c, 0, 67, 0
2, 14999, Note_on_c, 0, 62, 50
2, 15000, Note_on_c, 0, 60, 42
2, 15056, Note_on_c, 0, 60, 0
2, 15061, Note_on_c, 0, 57, 77
2, 15104, Note_on_c, 0, 57, 0
2, 15127, Note_on_c, 0, 50, 34
2, 15129, Control_c, 0, 64, 0
2, 15130, Note_on_c, 0, 57, 68
2, 15192, Control_c, 0, 64, 127
2, 15204, Note_on_c, 0, 57, 0
2, 15240, Note_on_c, 0, 43, 0
2, 15240, Note_on_c, 0, 55, 39
2, 15303, Note_on_c, 0, 43, 46
2, 15315, Note_on_c, 0, 55, 0
2, 15317, Control_c, 0, 64, 0
2, 15355, Control_c, 0, 64, 127
2, 15362, Note_on_c, 0, 55, 43
2, 15389, Note_on_c, 0, 55, 0
2, 15409, Note_on_c, 0, 62, 0
2, 15426, Note_on_c, 0, 59, 53
2, 15429, Note_on_c, 0, 57, 44
2, 15431, Note_on_c, 0, 55, 32
2, 15447, Control_c, 0, 64, 0
2, 15483, Control_c, 0, 64, 127
2, 15491, Note_on_c, 0, 55, 0
2, 15509, Note_on_c, 0, 57, 0
2, 15527, Note_on_c, 0, 59, 0
2, 15543, Note_on_c, 0, 62, 58
2, 15546, Note_on_c, 0, 59, 39
2, 15548, Note_on_c, 0, 55, 26
2, 15548, Note_on_c, 0, 57, 33
2, 15560, Control_c, 0, 64, 0
2, 15591, Control_c, 0, 64, 127
2, 15597, Note_on_c, 0, 50, 0
2, 15645, Note_on_c, 0, 57, 0
2, 15658, Note_on_c, 0, 62, 0
2, 15658, Note_on_c, 0, 50, 31
2, 15664, Note_on_c, 0, 64, 36
2, 15680, Note_on_c, 0, 59, 0
2, 15683, Note_on_c, 0, 50, 0
2, 15686, Note_on_c, 0, 64, 0
2, 15738, Note_on_c, 0, 55, 0
2, 15745, Note_on_c, 0, 43, 0
2, 15773, Note_on_c, 0, 50, 39
2, 15782, Note_on_c, 0, 50, 0
2, 15841, Note_on_c, 0, 43, 43
2, 15843, Note_on_c, 0, 55, 44
2, 15846, Note_on_c, 0, 59, 57
2, 15853, Control_c, 0, 64, 0
2, 15901, Control_c, 0, 64, 127
2, 15959, Note_on_c, 0, 50, 37
2, 15971, Note_on_c, 0, 50, 0
2, 15982, Note_on_c, 0, 55, 0
2, 15985, Note_on_c, 0, 59, 0
2, 16022, Note_on_c, 0, 31, 40
2, 16032, Note_on_c, 0, 43, 0
2, 16046, Note_on_c, 0, 31, 0
2, 16081, Note_on_c, 0, 61, 67
2, 16082, Control_c, 0, 64, 0
2, 16083, Note_on_c, 0, 52, 65
2, 16084, Note_on_c, 0, 57, 64
2, 16090, Note_on_c, 0, 43, 49
2, 16118, Control_c, 0, 64, 127
2, 16130, Note_on_c, 0, 43, 0
2, 16149, Note_on_c, 0, 52, 0
2, 16193, Note_on_c, 0, 52, 38
2, 16205, Note_on_c, 0, 52, 0
2, 16227, Note_on_c, 0, 61, 0
2, 16234, Note_on_c, 0, 57, 0
2, 16268, Note_on_c, 0, 54, 54
2, 16268, Note_on_c, 0, 63, 56
2, 16271, Note_on_c, 0, 59, 62
2, 16273, Note_on_c, 0, 43, 49
2, 16277, Control_c, 0, 64, 0
2, 16327, Control_c, 0, 64, 127
2, 16342, Note_on_c, 0, 43, 0
2, 16383, Note_on_c, 0, 43, 53
2, 16414, Note_on_c, 0, 54, 0
2, 16421, Note_on_c, 0, 43, 0
2, 16447, Note_on_c, 0, 54, 44
2, 16493, Note_on_c, 0, 59, 0
2, 16494, Note_on_c, 0, 54, 0
2, 16504, Note_on_c, 0, 43, 57
2, 16506, Note_on_c, 0, 63, 0
2, 16565, Note_on_c, 0, 62, 52
2, 16566, Note_on_c, 0, 64, 66
2, 16566, Note_on_c, 0, 59, 66
2, 16568, Control_c, 0, 64, 0
2, 16570, Note_on_c, 0, 55, 47
2, 16605, Note_on_c, 0, 43, 0
2, 16607, Control_c, 0, 64, 127
2, 16644, Note_on_c, 0, 55, 0
2, 16665, Note_on_c, 0, 59, 0
2, 16669, Note_on_c, 0, 64, 0
2, 16670, Note_on_c, 0, 62, 0
2, 16675, Note_on_c, 0, 43, 49
2, 16745, Note_on_c, 0, 63, 64
2, 16745, Note_on_c, 0, 66, 65
2, 16751, Note_on_c, 0, 57, 48
2, 16752, Note_on_c, 0, 59, 45
2, 16752, Note_on_c, 0, 51, 46
2, 16756, Control_c, 0, 64, 0
2, 16760, Note_on_c, 0, 59, 0
2, 16765, Note_on_c, 0, 57, 0
2, 16791, Note_on_c, 0, 51, 0
2, 16800, Note_on_c, 0, 63, 0
2, 16801, Control_c, 0, 64, 127
2, 16808, Note_on_c, 0, 66, 0
2, 16824, Note_on_c, 0, 63, 51
2, 16825, Note_on_c, 0, 66, 56
2, 16827, Note_on_c, 0, 59, 61
2, 16829, Note_on_c, 0, 51, 45
2, 16871, Note_on_c, 0, 43, 0
2, 16907, Note_on_c, 0, 59, 0
2, 16920, Note_on_c, 0, 43, 60
2, 16929, Note_on_c, 0, 59, 30
2, 16970, Note_on_c, 0, 43, 0
2, 16984, Note_on_c, 0, 51, 0
2, 17000, Note_on_c, 0, 43, 64
2, 17006, Control_c, 0, 64, 0
2, 17028, Control_c, 0, 64, 127
2, 17058, Note_on_c, 0, 59, 0
2, 17068, Note_on_c, 0, 63, 0
2, 17086, Note_on_c, 0, 66, 0
2, 17114, Note_on_c, 0, 67, 71
2, 17115, Note_on_c, 0, 64, 71
2, 17116, Note_on_c, 0, 59, 71
2, 17118, Note_on_c, 0, 52, 60
2, 17119, Control_c, 0, 64, 0
2, 17147, Note_on_c, 0, 43, 0
2, 17158, Control_c, 0, 64, 127
2, 17197, Note_on_c, 0, 59, 0
2, 17210, Note_on_c, 0, 64, 0
2, 17225, Note_on_c, 0, 67, 0
2, 17226, Note_on_c, 0, 52, 0
2, 17234, Note_on_c, 0, 43, 55
2, 17297, Note_on_c, 0, 69, 73
2, 17300, Control_c, 0, 64, 0
2, 17301, Note_on_c, 0, 66, 62
2, 17302, Note_on_c, 0, 63, 67
2, 17303, Note_on_c, 0, 54, 67
2, 17305, Note_on_c, 0, 59, 69
2, 17346, Control_c, 0, 64, 127
2, 17376, Note_on_c, 0, 43, 0
2, 17399, Note_on_c, 0, 54, 0
2, 17399, Note_on_c, 0, 59, 0
2, 17408, Note_on_c, 0, 43, 43
2, 17412, Note_on_c, 0, 69, 0
2, 17425, Note_on_c, 0, 63, 0
2, 17430, Note_on_c, 0, 66, 0
2, 17480, Control_c, 0, 64, 0
2, 17482, Note_on_c, 0, 71, 58
2, 17484, Note_on_c, 0, 67, 57
2, 17485, Note_on_c, 0, 64, 54
2, 17489, Note_on_c, 0, 62, 48
2, 17491, Note_on_c, 0, 52, 43
2, 17517, Control_c, 0, 64, 127
2, 17525, Note_on_c, 0, 43, 0
2, 17592, Note_on_c, 0, 43, 53
2, 17603, Note_on_c, 0, 62, 0
2, 17603, Note_on_c, 0, 64, 0
2, 17611, Note_on_c, 0, 67, 0
2, 17617, Note_on_c, 0, 52, 0
2, 17622, Note_on_c, 0, 71, 0
2, 17712, Note_on_c, 0, 73, 70
2, 17713, Note_on_c, 0, 69, 91
2, 17716, Note_on_c, 0, 55, 78
2, 17716, Note_on_c, 0, 64, 84
2, 17723, Control_c, 0, 64, 0
2, 17766, Note_on_c, 0, 43, 0
2, 17788, Control_c, 0, 64, 127
2, 17831, Note_on_c, 0, 43, 61
2, 17864, Note_on_c, 0, 64, 0
2, 17898, Note_on_c, 0, 43, 0
2, 17904, Note_on_c, 0, 69, 0
2, 17920, Note_on_c, 0, 73, 0
2, 17948, Note_on_c, 0, 43, 54
2, 18002, Note_on_c, 0, 55, 0
2, 18007, Note_on_c, 0, 64, 50
2, 18020, Note_on_c, 0, 64, 0
2, 18027, Control_c, 0, 64, 0
2, 18041, Note_on_c, 0, 69, 54
2, 18050, Note_on_c, 0, 69, 0
2, 18066, Note_on_c, 0, 76, 67
2, 18084, Note_on_c, 0, 76, 0
2, 18125, Note_on_c, 0, 69, 60
2, 18136, Note_on_c, 0, 69, 0
2, 18156, Note_on_c, 0, 73, 44
2, 18163, Note_on_c, 0, 43, 0
2, 18168, Note_on_c, 0, 73, 0
2, 18176, Note_on_c, 0, 81, 70
2, 18178, Note_on_c, 0, 55, 1
2, 18202, Note_on_c, 0, 81, 0
2, 18233, Note_on_c, 0, 43, 43
2, 18233, Note_on_c, 0, 73, 43
2, 18250, Note_on_c, 0, 73, 0
2, 18267, Note_on_c, 0, 55, 0
2, 18268, Note_on_c, 0, 76, 44
2, 18280, Note_on_c, 0, 76, 0
2, 18294, Note_on_c, 0, 83, 33
2, 18296, Note_on_c, 0, 81, 35
2, 18306, Note_on_c, 0, 83, 0
2, 18307, Note_on_c, 0, 81, 0
2, 18355, Note_on_c, 0, 88, 80
2, 18358, Note_on_c, 0, 81, 75
2, 18362, Note_on_c, 0, 55, 44
2, 18376, Control_c, 0, 64, 127
2, 18403, Note_on_c, 0, 55, 0
2, 18408, Note_on_c, 0, 81, 0
2, 18414, Note_on_c, 0, 88, 0
2, 18420, Note_on_c, 0, 76, 49
2, 18422, Note_on_c, 0, 85, 42
2, 18424, Note_on_c, 0, 55, 50
2, 18427, Note_on_c, 0, 81, 28
2, 18451, Note_on_c, 0, 55, 0
2, 18456, Note_on_c, 0, 81, 0
2, 18460, Note_on_c, 0, 85, 0
2, 18480, Note_on_c, 0, 76, 0
2, 18543, Note_on_c, 0, 55, 62
2, 18611, Note_on_c, 0, 69, 53
2, 18612, Note_on_c, 0, 43, 0
2, 18623, Note_on_c, 0, 69, 0
2, 18669, Note_on_c, 0, 43, 57
2, 18676, Note_on_c, 0, 55, 0
2, 18685, Note_on_c, 0, 43, 0
2, 18727, Note_on_c, 0, 74, 77
2, 18728, Note_on_c, 0, 67, 84
2, 18729, Note_on_c, 0, 63, 77
2, 18736, Note_on_c, 0, 62, 80
2, 18737, Control_c, 0, 64, 0
2, 18785, Control_c, 0, 64, 127
2, 18852, Note_on_c, 0, 62, 0
2, 18880, Note_on_c, 0, 67, 0
2, 18884, Note_on_c, 0, 63, 0
2, 18895, Note_on_c, 0, 74, 0
2, 18908, Note_on_c, 0, 72, 38
2, 18909, Note_on_c, 0, 63, 31
2, 18912, Note_on_c, 0, 67, 55
2, 18921, Note_on_c, 0, 55, 27
2, 18927, Control_c, 0, 64, 0
2, 18948, Control_c, 0, 64, 127
2, 18977, Note_on_c, 0, 55, 0
2, 19002, Note_on_c, 0, 55, 13
2, 19005, Note_on_c, 0, 63, 0
2, 19031, Note_on_c, 0, 63, 39
2, 19098, Note_on_c, 0, 72, 0
2, 19105, Note_on_c, 0, 67, 0
2, 19150, Note_on_c, 0, 43, 43
2, 19172, Note_on_c, 0, 63, 0
2, 19234, Note_on_c, 0, 43, 0
2, 19273, Note_on_c, 0, 43, 42
2, 19289, Note_on_c, 0, 55, 0
2, 19340, Note_on_c, 0, 55, 24
2, 19353, Note_on_c, 0, 55, 0
2, 19399, Note_on_c, 0, 55, 35
2, 19457, Note_on_c, 0, 62, 32
2, 19463, Note_on_c, 0, 63, 20
2, 19477, Note_on_c, 0, 43, 0
2, 19524, Note_on_c, 0, 62, 0
2, 19538, Note_on_c, 0, 63, 0
2, 19625, Note_on_c, 0, 67, 66
2, 19670, Note_on_c, 0, 67, 0
2, 19675, Note_on_c, 0, 55, 0
2, 19694, Note_on_c, 0, 63, 59
2, 19695, Note_on_c, 0, 66, 53
2, 19699, Control_c, 0, 64, 0
2, 19699, Note_on_c, 0, 43, 34
2, 19743, Control_c, 0, 64, 127
2, 19814, Note_on_c, 0, 63, 0
2, 19860, Note_on_c, 0, 63, 30
2, 19864, Note_on_c, 0, 59, 35
2, 19871, Note_on_c, 0, 51, 25
2, 19943, Note_on_c, 0, 51, 0
2, 19985, Note_on_c, 0, 51, 44
2, 19999, Note_on_c, 0, 59, 0
2, 20021, Note_on_c, 0, 63, 0
2, 20046, Note_on_c, 0, 59, 28
2, 20058, Note_on_c, 0, 59, 0
2, 20064, Note_on_c, 0, 43, 0
2, 20107, Note_on_c, 0, 54, 69
2, 20126, Note_on_c, 0, 51, 0
2, 20160, Note_on_c, 0, 54, 0
2, 20166, Note_on_c, 0, 59, 49
2, 20166, Note_on_c, 0, 63, 33
2, 20174, Note_on_c, 0, 55, 58
2, 20178, Control_c, 0, 64, 0
2, 20240, Note_on_c, 0, 59, 0
2, 20249, Note_on_c, 0, 63, 0
2, 20273, Note_on_c, 0, 63, 35
2, 20274, Note_on_c, 0, 54, 55
2, 20274, Note_on_c, 0, 59, 35
2, 20276, Note_on_c, 0, 55, 0
2, 20296, Control_c, 0, 64, 127
2, 20302, Note_on_c, 0, 59, 0
2, 20310, Note_on_c, 0, 63, 0
2, 20328, Note_on_c, 0, 66, 0
2, 20347, Control_c, 0, 64, 0
2, 20351, Note_on_c, 0, 63, 32
2, 20352, Note_on_c, 0, 66, 28
2, 20354, Note_on_c, 0, 59, 33
2, 20368, Note_on_c, 0, 59, 0
2, 20372, Note_on_c, 0, 63, 0
2, 20376, Note_on_c, 0, 66, 0
2, 20383, Control_c, 0, 64, 127
2, 20462, Note_on_c, 0, 66, 42
2, 20462, Control_c, 0, 64, 0
2, 20467, Note_on_c, 0, 63, 30
2, 20467, Note_on_c, 0, 51, 36
2, 20470, Note_on_c, 0, 59, 37
2, 20491, Note_on_c, 0, 54, 0
2, 20508, Control_c, 0, 64, 127
2, 20510, Note_on_c, 0, 51, 0
2, 20567, Note_on_c, 0, 59, 0
2, 20572, Note_on_c, 0, 66, 0
2, 20584, Note_on_c, 0, 67, 64
2, 20590, Note_on_c, 0, 59, 19
2, 20595, Note_on_c, 0, 63, 0
2, 20607, Note_on_c, 0, 59, 0
2, 20616, Note_on_c, 0, 67, 0
2, 20654, Note_on_c, 0, 43, 39
2, 20654, Note_on_c, 0, 64, 41
2, 20655, Control_c, 0, 64, 0
2, 20658, Note_on_c, 0, 60, 37
2, 20662, Note_on_c, 0, 55, 28
2, 20696, Control_c, 0, 64, 127
2, 20720, Note_on_c, 0, 55, 0
2, 20738, Note_on_c, 0, 60, 0
2, 20745, Note_on_c, 0, 64, 0
2, 20751, Note_on_c, 0, 52, 33
2, 20754, Note_on_c, 0, 43, 0
2, 20765, Note_on_c, 0, 52, 0
2, 20823, Note_on_c, 0, 76, 58
2, 20828, Note_on_c, 0, 67, 38
2, 20850, Note_on_c, 0, 67, 0
2, 20863, Note_on_c, 0, 76, 0
2, 20888, Note_on_c, 0, 76, 64
2, 20896, Note_on_c, 0, 60, 36
2, 20898, Note_on_c, 0, 67, 44
2, 20941, Note_on_c, 0, 67, 0
2, 20952, Note_on_c, 0, 76, 0
2, 20960, Note_on_c, 0, 60, 0
2, 20983, Note_on_c, 0, 76, 37
2, 20987, Note_on_c, 0, 64, 60
2, 20991, Note_on_c, 0, 67, 54
2, 21036, Note_on_c, 0, 76, 0
2, 21047, Note_on_c, 0, 67, 0
2, 21066, Note_on_c, 0, 76, 55
2, 21069, Note_on_c, 0, 67, 40
2, 21069, Note_on_c, 0, 55, 40
2, 21071, Control_c, 0, 64, 0
2, 21086, Note_on_c, 0, 67, 0
2, 21088, Note_on_c, 0, 64, 0
2, 21090, Control_c, 0, 64, 127
2, 21095, Note_on_c, 0, 55, 0
2, 21097, Note_on_c, 0, 76, 0
2, 21181, Note_on_c, 0, 76, 55
2, 21181, Note_on_c, 0, 55, 44
2, 21184, Note_on_c, 0, 67, 48
2, 21193, Note_on_c, 0, 55, 0
2, 21202, Note_on_c, 0, 67, 0
2, 21208, Note_on_c, 0, 76, 0
2, 21299, Note_on_c, 0, 31, 39
2, 21366, Note_on_c, 0, 43, 28
2, 21368, Note_on_c, 0, 55, 41
2, 21369, Note_on_c, 0, 60, 42
2, 21369, Note_on_c, 0, 64, 40
2, 21438, Note_on_c, 0, 31, 0
2, 21459, Note_on_c, 0, 55, 0
2, 21462, Note_on_c, 0, 43, 0
2, 21493, Note_on_c, 0, 55, 44
2, 21498, Note_on_c, 0, 64, 0
2, 21510, Note_on_c, 0, 55, 0
2, 21516, Note_on_c, 0, 60, 0
2, 21552, Note_on_c, 0, 67, 95
2, 21601, Note_on_c, 0, 67, 0
2, 21620, Note_on_c, 0, 66, 79
2, 21622, Note_on_c, 0, 43, 53
2, 21623, Note_on_c, 0, 63, 71
2, 21623, Note_on_c, 0, 59, 73
2, 21627, Control_c, 0, 64, 0
2, 21666, Control_c, 0, 64, 127
2, 21709, Note_on_c, 0, 63, 0
2, 21710, Note_on_c, 0, 66, 0
2, 21716, Note_on_c, 0, 59, 0
2, 21728, Note_on_c, 0, 66, 64
2, 21773, Note_on_c, 0, 43, 0
2, 21777, Note_on_c, 0, 66, 0
2, 21799, Note_on_c, 0, 66, 59
2, 21805, Note_on_c, 0, 54, 64
2, 21806, Note_on_c, 0, 63, 55
2, 21808, Note_on_c, 0, 59, 64
2, 21810, Note_on_c, 0, 43, 51
2, 21817, Control_c, 0, 64, 0
2, 21858, Control_c, 0, 64, 127
2, 21882, Note_on_c, 0, 54, 0
2, 21887, Note_on_c, 0, 59, 0
2, 21899, Note_on_c, 0, 43, 0
2, 21900, Note_on_c, 0, 66, 0
2, 21903, Note_on_c, 0, 63, 0
2, 21914, Note_on_c, 0, 66, 60
2, 21961, Note_on_c, 0, 66, 0
2, 21985, Note_on_c, 0, 66, 64
2, 21989, Note_on_c, 0, 43, 55
2, 21989, Note_on_c, 0, 63, 64
2, 21990, Note_on_c, 0, 54, 73
2, 21990, Note_on_c, 0, 59, 74
2, 21998, Control_c, 0, 64, 0
2, 22039, Control_c, 0, 64, 127
2, 22052, Note_on_c, 0, 59, 0
2, 22072, Note_on_c, 0, 63, 0
2, 22080, Note_on_c, 0, 66, 0
2, 22096, Note_on_c, 0, 54, 0
2, 22097, Note_on_c, 0, 63, 33
2, 22097, Note_on_c, 0, 59, 49
2, 22107, Note_on_c, 0, 59, 0
2, 22121, Note_on_c, 0, 63, 0
2, 22162, Note_on_c, 0, 66, 48
2, 22166, Note_on_c, 0, 63, 50
2, 22166, Note_on_c, 0, 54, 44
2, 22171, Control_c, 0, 64, 0
2, 22175, Note_on_c, 0, 59, 33
2, 22198, Control_c, 0, 64, 127
2, 22211, Note_on_c, 0, 59, 0
2, 22220, Note_on_c, 0, 66, 0
2, 22220, Note_on_c, 0, 54, 0
2, 22231, Note_on_c, 0, 63, 0
2, 22267, Note_on_c, 0, 66, 49
2, 22271, Note_on_c, 0, 54, 45
2, 22274, Note_on_c, 0, 63, 37
2, 22275, Note_on_c, 0, 59, 57
2, 22310, Note_on_c, 0, 59, 0
2, 22311, Note_on_c, 0, 54, 0
2, 22317, Note_on_c, 0, 66, 0
2, 22322, Note_on_c, 0, 63, 0
2, 22347, Note_on_c, 0, 66, 52
2, 22354, Note_on_c, 0, 59, 44
2, 22359, Note_on_c, 0, 63, 25
2, 22410, Note_on_c, 0, 66, 0
2, 22417, Note_on_c, 0, 63, 0
2, 22422, Note_on_c, 0, 59, 0
2, 22442, Note_on_c, 0, 67, 55
2, 22452, Note_on_c, 0, 43, 0
2, 22475, Note_on_c, 0, 67, 0
2, 22513, Note_on_c, 0, 64, 52
2, 22518, Note_on_c, 0, 43, 35
2, 22521, Note_on_c, 0, 60, 39
2, 22524, Note_on_c, 0, 55, 27
2, 22525, Control_c, 0, 64, 0
2, 22525, Note_on_c, 0, 52, 27
2, 22571, Control_c, 0, 64, 127
2, 22611, Note_on_c, 0, 55, 0
2, 22620, Note_on_c, 0, 64, 0
2, 22637, Note_on_c, 0, 60, 0
2, 22676, Note_on_c, 0, 43, 0
2, 22736, Note_on_c, 0, 43, 38
2, 22800, Note_on_c, 0, 64, 29
2, 22806, Note_on_c, 0, 60, 34
2, 22842, Note_on_c, 0, 52, 0
2, 22916, Note_on_c, 0, 57, 37
2, 22926, Note_on_c, 0, 60, 0
2, 22965, Note_on_c, 0, 64, 0
2, 22994, Note_on_c, 0, 64, 27
2, 22995, Note_on_c, 0, 60, 41
2, 23007, Note_on_c, 0, 57, 0
2, 23051, Note_on_c, 0, 60, 0
2, 23076, Note_on_c, 0, 64, 0
2, 23109, Note_on_c, 0, 55, 47
2, 23110, Note_on_c, 0, 64, 35
2, 23112, Note_on_c, 0, 60, 44
2, 23122, Control_c, 0, 64, 0
2, 23153, Control_c, 0, 64, 127
2, 23160, Note_on_c, 0, 55, 0
2, 23227, Note_on_c, 0, 60, 0
2, 23228, Note_on_c, 0, 52, 48
2, 23250, Note_on_c, 0, 64, 0
2, 23290, Note_on_c, 0, 55, 38
2, 23292, Note_on_c, 0, 60, 44
2, 23293, Note_on_c, 0, 64, 24
2, 23316, Note_on_c, 0, 43, 0
2, 23370, Note_on_c, 0, 55, 0
2, 23403, Note_on_c, 0, 55, 38
2, 23414, Note_on_c, 0, 64, 0
2, 23431, Note_on_c, 0, 60, 0
2, 23447, Note_on_c, 0, 55, 0
2, 23464, Note_on_c, 0, 43, 44
2, 23473, Note_on_c, 0, 52, 0
2, 23526, Note_on_c, 0, 56, 73
2, 23527, Note_on_c, 0, 60, 72
2, 23527, Note_on_c, 0, 62, 72
2, 23527, Note_on_c, 0, 55, 82
2, 23531, Control_c, 0, 64, 0
2, 23534, Note_on_c, 0, 43, 0
2, 23541, Note_on_c, 0, 55, 0
2, 23543, Note_on_c, 0, 56, 0
2, 23547, Note_on_c, 0, 60, 0
2, 23552, Note_on_c, 0, 62, 0
2, 23586, Note_on_c, 0, 55, 40
2, 23588, Note_on_c, 0, 56, 29
2, 23595, Note_on_c, 0, 60, 32
2, 23603, Note_on_c, 0, 55, 0
2, 23606, Note_on_c, 0, 60, 0
2, 23606, Note_on_c, 0, 56, 0
2, 23704, Note_on_c, 0, 56, 50
2, 23707, Note_on_c, 0, 62, 54
2, 23707, Note_on_c, 0, 55, 64
2, 23710, Note_on_c, 0, 60, 60
2, 23736, Note_on_c, 0, 55, 0
2, 23741, Note_on_c, 0, 60, 0
2, 23741, Note_on_c, 0, 56, 0
2, 23745, Note_on_c, 0, 62, 0
2, 23883, Note_on_c, 0, 55, 43
2, 23885, Note_on_c, 0, 62, 34
2, 23886, Note_on_c, 0, 56, 25
2, 23888, Note_on_c, 0, 60, 50
2, 23901, Note_on_c, 0, 55, 0
2, 23906, Note_on_c, 0, 56, 0
2, 23912, Note_on_c, 0, 62, 0
2, 23913, Note_on_c, 0, 60, 0
2, 23943, Note_on_c, 0, 55, 58
2, 23946, Note_on_c, 0, 56, 34
2, 23946, Note_on_c, 0, 62, 40
2, 23946, Note_on_c, 0, 60, 54
2, 23952, Note_on_c, 0, 43, 44
2, 23959, Note_on_c, 0, 55, 0
2, 23962, Note_on_c, 0, 56, 0
2, 23969, Note_on_c, 0, 60, 0
2, 23973, Note_on_c, 0, 62, 0
2, 23978, Note_on_c, 0, 43, 0
2, 24063, Note_on_c, 0, 62, 63
2, 24063, Note_on_c, 0, 56, 53
2, 24066, Note_on_c, 0, 60, 66
2, 24071, Note_on_c, 0, 55, 63
2, 24096, Note_on_c, 0, 55, 0
2, 24128, Note_on_c, 0, 55, 30
2, 24155, Note_on_c, 0, 56, 0
2, 24162, Note_on_c, 0, 55, 0
2, 24166, Control_c, 0, 64, 127
2, 24174, Note_on_c, 0, 60, 0
2, 24179, Note_on_c, 0, 43, 55
2, 24192, Note_on_c, 0, 62, 0
2, 24241, Note_on_c, 0, 56, 47
2, 24241, Note_on_c, 0, 55, 68
2, 24242, Note_on_c, 0, 62, 55
2, 24246, Note_on_c, 0, 60, 56
2, 24276, Note_on_c, 0, 55, 0
2, 24286, Note_on_c, 0, 60, 0
2, 24286, Note_on_c, 0, 56, 0
2, 24292, Note_on_c, 0, 62, 0
2, 24308, Note_on_c, 0, 55, 79
2, 24343, Note_on_c, 0, 55, 0
2, 24373, Note_on_c, 0, 43, 0
2, 24428, Note_on_c, 0, 64, 55
2, 24442, Note_on_c, 0, 64, 0
2, 24486, Note_on_c, 0, 31, 57
2, 24496, Control_c, 0, 64, 0
2, 24557, Note_on_c, 0, 52, 42
2, 24557, Note_on_c, 0, 60, 48
2, 24558, Note_on_c, 0, 55, 58
2, 24561, Note_on_c, 0, 43, 38
2, 24600, Control_c, 0, 64, 127
2, 24637, Note_on_c, 0, 43, 0
2, 24656, Note_on_c, 0, 52, 0
2, 24663, Note_on_c, 0, 55, 0
2, 24672, Note_on_c, 0, 43, 48
2, 24678, Note_on_c, 0, 31, 0
2, 24695, Note_on_c, 0, 43, 0
2, 24726, Note_on_c, 0, 60, 0
2, 24730, Note_on_c, 0, 52, 44
2, 24750, Note_on_c, 0, 52, 0
2, 24790, Note_on_c, 0, 43, 61
2, 24875, Note_on_c, 0, 43, 0
2, 24918, Note_on_c, 0, 43, 71
2, 24941, Control_c, 0, 64, 0
2, 24951, Control_c, 0, 64, 127
2, 24998, Note_on_c, 0, 43, 0
2, 25027, Note_on_c, 0, 43, 61
2, 25066, Note_on_c, 0, 43, 0
2, 25138, Note_on_c, 0, 31, 61
2, 25139, Note_on_c, 0, 62, 77
2, 25140, Note_on_c, 0, 55, 79
2, 25147, Note_on_c, 0, 52, 64
2, 25151, Control_c, 0, 64, 0
2, 25189, Note_on_c, 0, 52, 0
2, 25197, Note_on_c, 0, 62, 0
2, 25201, Control_c, 0, 64, 127
2, 25208, Note_on_c, 0, 60, 65
2, 25211, Note_on_c, 0, 52, 53
2, 25212, Note_on_c, 0, 43, 44
2, 25232, Note_on_c, 0, 31, 0
2, 25247, Note_on_c, 0, 52, 0
2, 25256, Note_on_c, 0, 55, 0
2, 25265, Note_on_c, 0, 60, 0
2, 25318, Note_on_c, 0, 31, 53
2, 25325, Note_on_c, 0, 67, 82
2, 25326, Note_on_c, 0, 31, 0
2, 25326, Note_on_c, 0, 60, 84
2, 25338, Note_on_c, 0, 43, 0
2, 25454, Note_on_c, 0, 43, 59
2, 25467, Note_on_c, 0, 60, 0
2, 25497, Note_on_c, 0, 67, 0
2, 25636, Note_on_c, 0, 62, 71
2, 25637, Note_on_c, 0, 55, 74
2, 25638, Note_on_c, 0, 56, 49
2, 25639, Note_on_c, 0, 60, 68
2, 25649, Control_c, 0, 64, 0
2, 25668, Note_on_c, 0, 55, 0
2, 25673, Note_on_c, 0, 56, 0
2, 25676, Note_on_c, 0, 60, 0
2, 25679, Note_on_c, 0, 62, 0
2, 25716, Note_on_c, 0, 55, 53
2, 25716, Note_on_c, 0, 62, 49
2, 25716, Note_on_c, 0, 60, 52
2, 25717, Note_on_c, 0, 56, 37
2, 25732, Note_on_c, 0, 55, 0
2, 25736, Note_on_c, 0, 56, 0
2, 25743, Note_on_c, 0, 60, 0
2, 25746, Note_on_c, 0, 62, 0
2, 25746, Control_c, 0, 64, 127
2, 25780, Control_c, 0, 64, 0
2, 25801, Note_on_c, 0, 55, 54
2, 25801, Note_on_c, 0, 62, 48
2, 25803, Note_on_c, 0, 56, 47
2, 25804, Note_on_c, 0, 60, 60
2, 25819, Note_on_c, 0, 56, 0
2, 25821, Note_on_c, 0, 55, 0
2, 25826, Note_on_c, 0, 60, 0
2, 25827, Note_on_c, 0, 62, 0
2, 25854, Control_c, 0, 64, 127
2, 25859, Control_c, 0, 64, 0
2, 25884, Note_on_c, 0, 56, 40
2, 25886, Note_on_c, 0, 55, 42
2, 25886, Note_on_c, 0, 60, 56
2, 25887, Note_on_c, 0, 62, 32
2, 25895, Note_on_c, 0, 55, 0
2, 25900, Note_on_c, 0, 60, 0
2, 25900, Note_on_c, 0, 56, 0
2, 25902, Note_on_c, 0, 62, 0
2, 25988, Note_on_c, 0, 56, 38
2, 25989, Note_on_c, 0, 55, 60
2, 25990, Note_on_c, 0, 53, 45
2, 25990, Note_on_c, 0, 62, 35
2, 25991, Control_c, 0, 64, 127
2, 25993, Note_on_c, 0, 60, 55
2, 26004, Note_on_c, 0, 55, 0
2, 26007, Note_on_c, 0, 60, 0
2, 26008, Note_on_c, 0, 56, 0
2, 26012, Note_on_c, 0, 62, 0
2, 26020, Control_c, 0, 64, 0
2, 26054, Note_on_c, 0, 62, 55
2, 26056, Note_on_c, 0, 55, 49
2, 26057, Note_on_c, 0, 56, 32
2, 26060, Note_on_c, 0, 60, 42
2, 26063, Note_on_c, 0, 43, 0
2, 26100, Control_c, 0, 64, 127
2, 26109, Note_on_c, 0, 55, 0
2, 26111, Note_on_c, 0, 43, 55
2, 26130, Note_on_c, 0, 53, 0
2, 26130, Note_on_c, 0, 60, 0
2, 26136, Note_on_c, 0, 56, 0
2, 26179, Note_on_c, 0, 55, 26
2, 26189, Note_on_c, 0, 55, 0
2, 26252, Note_on_c, 0, 62, 0
2, 26284, Note_on_c, 0, 43, 0
2, 26288, Note_on_c, 0, 56, 32
2, 26288, Note_on_c, 0, 64, 40
2, 26291, Note_on_c, 0, 60, 44
2, 26307, Note_on_c, 0, 60, 0
2, 26309, Note_on_c, 0, 64, 0
2, 26318, Note_on_c, 0, 56, 0
2, 26343, Note_on_c, 0, 43, 45
2, 26357, Note_on_c, 0, 43, 0
2, 26403, Note_on_c, 0, 43, 46
2, 26407, Note_on_c, 0, 52, 35
2, 26408, Note_on_c, 0, 55, 50
2, 26408, Note_on_c, 0, 60, 37
2, 26412, Control_c, 0, 64, 0
2, 26451, Control_c, 0, 64, 127
2, 26511, Note_on_c, 0, 55, 0
2, 26514, Note_on_c, 0, 52, 0
2, 26536, Note_on_c, 0, 43, 0
2, 26539, Note_on_c, 0, 60, 0
2, 26585, Note_on_c, 0, 55, 50
2, 26587, Note_on_c, 0, 43, 43
2, 26596, Note_on_c, 0, 55, 0
2, 26667, Note_on_c, 0, 43, 0
2, 26766, Note_on_c, 0, 67, 62
2, 26786, Note_on_c, 0, 67, 0
2, 26826, Note_on_c, 0, 74, 87
2, 26861, Note_on_c, 0, 74, 0
2, 26889, Note_on_c, 0, 74, 71
2, 26892, Control_c, 0, 64, 0
2, 26895, Note_on_c, 0, 67, 66
2, 26899, Note_on_c, 0, 63, 46
2, 26904, Note_on_c, 0, 55, 24
2, 26930, Control_c, 0, 64, 127
2, 27012, Note_on_c, 0, 55, 0
2, 27035, Note_on_c, 0, 74, 0
2, 27049, Note_on_c, 0, 67, 0
2, 27057, Note_on_c, 0, 72, 39
2, 27069, Note_on_c, 0, 55, 30
2, 27081, Note_on_c, 0, 72, 0
2, 27085, Note_on_c, 0, 63, 0
2, 27102, Note_on_c, 0, 55, 0
2, 27134, Note_on_c, 0, 67, 47
2, 27139, Note_on_c, 0, 55, 34
2, 27140, Note_on_c, 0, 62, 36
2, 27141, Note_on_c, 0, 63, 33
2, 27244, Note_on_c, 0, 67, 0
2, 27258, Note_on_c, 0, 63, 0
2, 27265, Note_on_c, 0, 62, 0
2, 27305, Note_on_c, 0, 55, 0
2, 27308, Note_on_c, 0, 50, 24
2, 27327, Note_on_c, 0, 50, 0
2, 27368, Note_on_c, 0, 62, 44
2, 27370, Note_on_c, 0, 57, 31
2, 27372, Note_on_c, 0, 59, 35
2, 27373, Note_on_c, 0, 43, 30
2, 27380, Control_c, 0, 64, 0
2, 27416, Control_c, 0, 64, 127
2, 27442, Note_on_c, 0, 57, 0
2, 27501, Note_on_c, 0, 57, 31
2, 27507, Note_on_c, 0, 43, 0
2, 27510, Note_on_c, 0, 62, 0
2, 27523, Note_on_c, 0, 59, 0
2, 27526, Note_on_c, 0, 57, 0
2, 27548, Note_on_c, 0, 43, 34
2, 27566, Note_on_c, 0, 43, 0
2, 27614, Note_on_c, 0, 43, 34
2, 27616, Control_c, 0, 64, 0
2, 27617, Note_on_c, 0, 55, 37
2, 27618, Note_on_c, 0, 59, 36
2, 27652, Control_c, 0, 64, 127
2, 27695, Note_on_c, 0, 50, 1
2, 27696, Note_on_c, 0, 60, 70
2, 27727, Note_on_c, 0, 50, 0
2, 27739, Note_on_c, 0, 43, 0
2, 27768, Note_on_c, 0, 59, 0
2, 27777, Note_on_c, 0, 60, 0
2, 27783, Note_on_c, 0, 55, 0
2, 27794, Note_on_c, 0, 43, 47
2, 27816, Note_on_c, 0, 43, 0
2, 27859, Note_on_c, 0, 54, 53
2, 27859, Note_on_c, 0, 62, 64
2, 27860, Note_on_c, 0, 57, 63
2, 27862, Note_on_c, 0, 43, 35
2, 27862, Note_on_c, 0, 59, 60
2, 27864, Control_c, 0, 64, 0
2, 27905, Control_c, 0, 64, 127
2, 27929, Note_on_c, 0, 31, 43
2, 27939, Note_on_c, 0, 31, 0
2, 27941, Note_on_c, 0, 54, 0
2, 27950, Note_on_c, 0, 43, 0
2, 27988, Note_on_c, 0, 59, 0
2, 27989, Note_on_c, 0, 57, 0
2, 28029, Note_on_c, 0, 62, 0
2, 28046, Note_on_c, 0, 64, 62
2, 28047, Note_on_c, 0, 60, 63
2, 28048, Note_on_c, 0, 43, 43
2, 28048, Note_on_c, 0, 55, 57
2, 28050, Note_on_c, 0, 52, 46
2, 28061, Control_c, 0, 64, 0
2, 28104, Control_c, 0, 64, 127
2, 28122, Note_on_c, 0, 43, 0
2, 28158, Note_on_c, 0, 43, 58
2, 28172, Note_on_c, 0, 55, 0
2, 28217, Note_on_c, 0, 43, 0
2, 28221, Note_on_c, 0, 55, 33
2, 28252, Note_on_c, 0, 55, 0
2, 28262, Note_on_c, 0, 60, 0
2, 28269, Note_on_c, 0, 64, 0
2, 28278, Note_on_c, 0, 43, 44
2, 28298, Note_on_c, 0, 43, 0
2, 28320, Note_on_c, 0, 52, 0
2, 28336, Note_on_c, 0, 43, 60
2, 28338, Control_c, 0, 64, 0
2, 28352, Control_c, 0, 64, 127
2, 28446, Control_c, 0, 64, 0
2, 28447, Note_on_c, 0, 51, 45
2, 28448, Note_on_c, 0, 63, 55
2, 28448, Note_on_c, 0, 66, 60
2, 28450, Note_on_c, 0, 59, 62
2, 28450, Note_on_c, 0, 55, 54
2, 28490, Control_c, 0, 64, 127
2, 28553, Note_on_c, 0, 59, 0
2, 28554, Note_on_c, 0, 55, 0
2, 28566, Note_on_c, 0, 63, 0
2, 28576, Note_on_c, 0, 66, 0
2, 28630, Note_on_c, 0, 67, 61
2, 28632, Control_c, 0, 64, 0
2, 28632, Note_on_c, 0, 59, 53
2, 28632, Note_on_c, 0, 62, 55
2, 28633, Note_on_c, 0, 51, 0
2, 28634, Note_on_c, 0, 64, 48
2, 28635, Note_on_c, 0, 52, 51
2, 28650, Note_on_c, 0, 43, 0
2, 28672, Control_c, 0, 64, 127
2, 28717, Note_on_c, 0, 67, 0
2, 28723, Note_on_c, 0, 64, 0
2, 28725, Note_on_c, 0, 62, 0
2, 28753, Note_on_c, 0, 59, 0
2, 28787, Note_on_c, 0, 52, 0
2, 28800, Control_c, 0, 64, 0
2, 28803, Note_on_c, 0, 69, 72
2, 28803, Note_on_c, 0, 63, 64
2, 28804, Note_on_c, 0, 66, 52
2, 28805, Note_on_c, 0, 59, 64
2, 28806, Note_on_c, 0, 54, 51
2, 28836, Control_c, 0, 64, 127
2, 28875, Note_on_c, 0, 54, 0
2, 28893, Note_on_c, 0, 59, 0
2, 28906, Note_on_c, 0, 69, 0
2, 28917, Note_on_c, 0, 63, 0
2, 28919, Note_on_c, 0, 66, 0
2, 28986, Note_on_c, 0, 66, 61
2, 28986, Note_on_c, 0, 71, 70
2, 28988, Note_on_c, 0, 62, 66
2, 28990, Control_c, 0, 64, 0
2, 28992, Note_on_c, 0, 55, 44
2, 29026, Control_c, 0, 64, 127
2, 29095, Note_on_c, 0, 62, 0
2, 29101, Note_on_c, 0, 43, 54
2, 29139, Note_on_c, 0, 71, 0
2, 29140, Note_on_c, 0, 66, 0
2, 29156, Note_on_c, 0, 43, 0
2, 29210, Note_on_c, 0, 55, 0
2, 29213, Note_on_c, 0, 43, 57
2, 29274, Control_c, 0, 64, 0
2, 29274, Note_on_c, 0, 76, 94
2, 29275, Note_on_c, 0, 69, 99
2, 29277, Note_on_c, 0, 73, 48
2, 29280, Note_on_c, 0, 55, 72
2, 29317, Control_c, 0, 64, 127
2, 29370, Note_on_c, 0, 55, 0
2, 29397, Note_on_c, 0, 73, 0
2, 29405, Note_on_c, 0, 69, 0
2, 29443, Note_on_c, 0, 76, 0
2, 29457, Note_on_c, 0, 73, 48
2, 29460, Note_on_c, 0, 69, 62
2, 29460, Note_on_c, 0, 55, 48
2, 29462, Note_on_c, 0, 64, 50
2, 29530, Note_on_c, 0, 55, 0
2, 29556, Note_on_c, 0, 69, 0
2, 29563, Note_on_c, 0, 73, 0
2, 29585, Note_on_c, 0, 55, 40
2, 29589, Note_on_c, 0, 64, 0
2, 29612, Note_on_c, 0, 55, 0
2, 29702, Note_on_c, 0, 61, 36
2, 29704, Note_on_c, 0, 69, 55
2, 29706, Note_on_c, 0, 55, 44
2, 29710, Note_on_c, 0, 64, 40
2, 29725, Note_on_c, 0, 55, 0
2, 29741, Note_on_c, 0, 64, 0
2, 29745, Note_on_c, 0, 61, 0
2, 29750, Note_on_c, 0, 69, 0
2, 29765, Note_on_c, 0, 61, 28
2, 29768, Note_on_c, 0, 64, 43
2, 29768, Note_on_c, 0, 57, 43
2, 29784, Note_on_c, 0, 55, 31
2, 29814, Note_on_c, 0, 55, 0
2, 29848, Note_on_c, 0, 43, 0
2, 29882, Note_on_c, 0, 43, 20
2, 29894, Note_on_c, 0, 43, 0
2, 29937, Note_on_c, 0, 43, 50
2, 29974, Note_on_c, 0, 57, 0
2, 29999, Note_on_c, 0, 31, 26
2, 30005, Note_on_c, 0, 61, 0
2, 30008, Note_on_c, 0, 64, 0
2, 30017, Note_on_c, 0, 31, 0
2, 30069, Note_on_c, 0, 31, 68
2, 30091, Note_on_c, 0, 31, 0
2, 30106, Note_on_c, 0, 43, 0
2, 30187, Note_on_c, 0, 67, 71
2, 30212, Note_on_c, 0, 67, 0
2, 30246, Note_on_c, 0, 74, 82
2, 30249, Note_on_c, 0, 67, 85
2, 30250, Note_on_c, 0, 63, 78
2, 30253, Note_on_c, 0, 55, 69
2, 30258, Control_c, 0, 64, 0
2, 30299, Control_c, 0, 64, 127
2, 30320, Note_on_c, 0, 55, 0
2, 30411, Note_on_c, 0, 74, 0
2, 30429, Note_on_c, 0, 72, 38
2, 30442, Note_on_c, 0, 55, 34
2, 30542, Note_on_c, 0, 43, 42
2, 30569, Note_on_c, 0, 43, 0
2, 30573, Note_on_c, 0, 63, 0
2, 30597, Note_on_c, 0, 67, 0
2, 30605, Note_on_c, 0, 72, 0
2, 30612, Note_on_c, 0, 63, 23
2, 30632, Note_on_c, 0, 63, 0
2, 30670, Note_on_c, 0, 43, 29
2, 30676, Note_on_c, 0, 55, 0
2, 30726, Note_on_c, 0, 67, 51
2, 30730, Note_on_c, 0, 63, 34
2, 30731, Note_on_c, 0, 62, 38
2, 30737, Note_on_c, 0, 55, 33
2, 30742, Control_c, 0, 64, 0
2, 30771, Control_c, 0, 64, 127
2, 30810, Note_on_c, 0, 67, 0
2, 30821, Note_on_c, 0, 63, 0
2, 30824, Note_on_c, 0, 55, 0
2, 30828, Note_on_c, 0, 62, 0
2, 30917, Note_on_c, 0, 63, 25
2, 30920, Note_on_c, 0, 62, 33
2, 30922, Note_on_c, 0, 59, 20
2, 30959, Note_on_c, 0, 43, 0
2, 30962, Note_on_c, 0, 59, 0
2, 30963, Note_on_c, 0, 55, 1
2, 30999, Note_on_c, 0, 62, 0
2, 31001, Note_on_c, 0, 63, 0
2, 31029, Note_on_c, 0, 43, 37
2, 31045, Note_on_c, 0, 43, 0
2, 31063, Note_on_c, 0, 55, 0
2, 31125, Note_on_c, 0, 71, 46
2, 31147, Note_on_c, 0, 71, 0
2, 31166, Note_on_c, 0, 72, 47
2, 31190, Note_on_c, 0, 72, 0
2, 31210, Note_on_c, 0, 74, 73
2, 31216, Note_on_c, 0, 55, 36
2, 31219, Control_c, 0, 64, 0
2, 31269, Control_c, 0, 64, 127
2, 31390, Note_on_c, 0, 74, 0
2, 31393, Note_on_c, 0, 66, 33
2, 31394, Note_on_c, 0, 71, 47
2, 31397, Note_on_c, 0, 59, 24
2, 31399, Note_on_c, 0, 62, 27
2, 31400, Note_on_c, 0, 69, 43
2, 31454, Note_on_c, 0, 55, 0
2, 31473, Note_on_c, 0, 62, 0
2, 31477, Note_on_c, 0, 59, 0
2, 31486, Note_on_c, 0, 69, 0
2, 31520, Note_on_c, 0, 66, 0
2, 31524, Note_on_c, 0, 55, 26
2, 31534, Note_on_c, 0, 55, 0
2, 31578, Note_on_c, 0, 66, 34
2, 31587, Note_on_c, 0, 66, 0
2, 31595, Note_on_c, 0, 71, 0
2, 31636, Note_on_c, 0, 43, 28
2, 31660, Note_on_c, 0, 43, 0
2, 31698, Note_on_c, 0, 66, 34
2, 31698, Note_on_c, 0, 62, 54
2, 31700, Note_on_c, 0, 43, 28
2, 31705, Control_c, 0, 64, 0
2, 31739, Control_c, 0, 64, 127
2, 31811, Note_on_c, 0, 62, 0
2, 31865, Note_on_c, 0, 62, 51
2, 31873, Note_on_c, 0, 57, 31
2, 31877, Note_on_c, 0, 43, 0
2, 31884, Note_on_c, 0, 55, 24
2, 31913, Note_on_c, 0, 57, 0
2, 31957, Note_on_c, 0, 62, 0
2, 31968, Note_on_c, 0, 66, 0
2, 31985, Note_on_c, 0, 43, 48
2, 31998, Note_on_c, 0, 43, 0
2, 32013, Note_on_c, 0, 55, 0
2, 32101, Note_on_c, 0, 71, 77
2, 32132, Note_on_c, 0, 71, 0
2, 32174, Note_on_c, 0, 71, 69
2, 32175, Note_on_c, 0, 63, 44
2, 32177, Note_on_c, 0, 67, 65
2, 32179, Note_on_c, 0, 62, 54
2, 32181, Control_c, 0, 64, 0
2, 32186, Note_on_c, 0, 55, 43
2, 32225, Control_c, 0, 64, 127
2, 32256, Note_on_c, 0, 55, 0
2, 32302, Note_on_c, 0, 67, 0
2, 32312, Note_on_c, 0, 62, 0
2, 32316, Note_on_c, 0, 63, 0
2, 32337, Note_on_c, 0, 71, 0
2, 32355, Note_on_c, 0, 69, 60
2, 32355, Note_on_c, 0, 62, 46
2, 32357, Note_on_c, 0, 63, 29
2, 32359, Note_on_c, 0, 67, 44
2, 32363, Note_on_c, 0, 55, 35
2, 32364, Control_c, 0, 64, 0
2, 32405, Control_c, 0, 64, 127
2, 32473, Note_on_c, 0, 43, 34
2, 32507, Note_on_c, 0, 63, 0
2, 32508, Note_on_c, 0, 55, 0
2, 32508, Note_on_c, 0, 62, 0
2, 32590, Note_on_c, 0, 55, 45
2, 32605, Note_on_c, 0, 55, 0
2, 32623, Note_on_c, 0, 67, 0
2, 32654, Note_on_c, 0, 55, 35
2, 32706, Note_on_c, 0, 55, 0
2, 32753, Note_on_c, 0, 55, 37
2, 32782, Note_on_c, 0, 55, 0
2, 32782, Note_on_c, 0, 69, 0
2, 32802, Note_on_c, 0, 43, 0
2, 32825, Note_on_c, 0, 43, 46
2, 32886, Note_on_c, 0, 55, 56
2, 32946, Note_on_c, 0, 69, 74
2, 32947, Note_on_c, 0, 63, 69
2, 32952, Note_on_c, 0, 62, 74
2, 32992, Note_on_c, 0, 62, 0
2, 32997, Note_on_c, 0, 43, 0
2, 33002, Note_on_c, 0, 71, 71
2, 33008, Note_on_c, 0, 62, 28
2, 33024, Note_on_c, 0, 62, 0
2, 33027, Note_on_c, 0, 63, 0
2, 33035, Note_on_c, 0, 71, 0
2, 33036, Note_on_c, 0, 69, 0
2, 33036, Note_on_c, 0, 55, 0
2, 33072, Note_on_c, 0, 72, 60
2, 33096, Note_on_c, 0, 72, 0
2, 33137, Control_c, 0, 64, 0
2, 33137, Note_on_c, 0, 55, 47
2, 33138, Note_on_c, 0, 74, 74
2, 33180, Control_c, 0, 64, 127
2, 33220, Note_on_c, 0, 71, 61
2, 33222, Note_on_c, 0, 66, 38
2, 33252, Note_on_c, 0, 71, 0
2, 33254, Note_on_c, 0, 74, 0
2, 33265, Note_on_c, 0, 66, 0
2, 33304, Note_on_c, 0, 62, 43
2, 33306, Note_on_c, 0, 71, 69
2, 33309, Note_on_c, 0, 66, 37
2, 33320, Note_on_c, 0, 62, 0
2, 33332, Note_on_c, 0, 66, 0
2, 33335, Note_on_c, 0, 55, 0
2, 33408, Note_on_c, 0, 71, 0
2, 33408, Note_on_c, 0, 66, 58
2, 33449, Note_on_c, 0, 66, 0
2, 33534, Note_on_c, 0, 55, 36
2, 33593, Note_on_c, 0, 57, 44
2, 33593, Note_on_c, 0, 62, 45
2, 33595, Note_on_c, 0, 59, 45
2, 33597, Note_on_c, 0, 43, 38
2, 33602, Control_c, 0, 64, 0
2, 33633, Control_c, 0, 64, 127
2, 33669, Note_on_c, 0, 57, 0
2, 33694, Note_on_c, 0, 55, 0
2, 33705, Note_on_c, 0, 59, 0
2, 33708, Note_on_c, 0, 62, 0
2, 33781, Note_on_c, 0, 43, 0
2, 33787, Note_on_c, 0, 67, 80
2, 33788, Note_on_c, 0, 55, 74
2, 33788, Note_on_c, 0, 59, 80
2, 33789, Note_on_c, 0, 62, 74
2, 33790, Note_on_c, 0, 57, 81
2, 33806, Control_c, 0, 64, 0
2, 33820, Control_c, 0, 64, 127
2, 33840, Note_on_c, 0, 57, 0
2, 33845, Note_on_c, 0, 55, 0
2, 33846, Note_on_c, 0, 67, 0
2, 33853, Note_on_c, 0, 59, 0
2, 33858, Note_on_c, 0, 62, 0
2, 33878, Note_on_c, 0, 55, 64
2, 33878, Note_on_c, 0, 67, 71
2, 33879, Note_on_c, 0, 59, 71
2, 33880, Note_on_c, 0, 62, 69
2, 33881, Note_on_c, 0, 57, 72
2, 33912, Note_on_c, 0, 55, 0
2, 33918, Note_on_c, 0, 57, 0
2, 33921, Note_on_c, 0, 67, 0
2, 33929, Note_on_c, 0, 59, 0
2, 33935, Note_on_c, 0, 62, 0
2, 33964, Note_on_c, 0, 67, 70
2, 33968, Note_on_c, 0, 57, 30
2, 33969, Note_on_c, 0, 55, 54
2, 33976, Note_on_c, 0, 57, 0
2, 33985, Note_on_c, 0, 67, 0
2, 33988, Note_on_c, 0, 55, 0
2, 34047, Note_on_c, 0, 71, 81
2, 34049, Note_on_c, 0, 67, 83
2, 34050, Note_on_c, 0, 63, 75
2, 34053, Note_on_c, 0, 62, 85
2, 34054, Control_c, 0, 64, 0
2, 34058, Note_on_c, 0, 55, 60
2, 34102, Control_c, 0, 64, 127
2, 34200, Note_on_c, 0, 71, 0
2, 34208, Note_on_c, 0, 67, 0
2, 34213, Note_on_c, 0, 63, 0
2, 34246, Note_on_c, 0, 55, 0
2, 34255, Note_on_c, 0, 62, 0
2, 34266, Note_on_c, 0, 72, 70
2, 34294, Note_on_c, 0, 72, 0
2, 34346, Note_on_c, 0, 62, 58
2, 34347, Note_on_c, 0, 69, 54
2, 34349, Note_on_c, 0, 67, 62
2, 34349, Note_on_c, 0, 63, 46
2, 34354, Note_on_c, 0, 55, 48
2, 34355, Control_c, 0, 64, 0
2, 34396, Control_c, 0, 64, 127
2, 34418, Note_on_c, 0, 55, 0
2, 34458, Note_on_c, 0, 55, 28
2, 34492, Note_on_c, 0, 62, 0
2, 34497, Note_on_c, 0, 63, 0
2, 34512, Note_on_c, 0, 69, 0
2, 34512, Note_on_c, 0, 67, 0
2, 34531, Note_on_c, 0, 43, 39
2, 34532, Note_on_c, 0, 62, 41
2, 34532, Note_on_c, 0, 63, 26
2, 34533, Note_on_c, 0, 67, 32
2, 34534, Note_on_c, 0, 69, 47
2, 34535, Control_c, 0, 64, 0
2, 34572, Control_c, 0, 64, 127
2, 34596, Note_on_c, 0, 55, 0
2, 34646, Note_on_c, 0, 55, 38
2, 34673, Note_on_c, 0, 55, 0
2, 34751, Note_on_c, 0, 43, 0
2, 34752, Note_on_c, 0, 55, 53
2, 34773, Note_on_c, 0, 55, 0
2, 34792, Note_on_c, 0, 62, 0
2, 34801, Note_on_c, 0, 69, 0
2, 34803, Note_on_c, 0, 67, 0
2, 34809, Note_on_c, 0, 71, 62
2, 34863, Note_on_c, 0, 71, 0
2, 34866, Note_on_c, 0, 62, 1
2, 34868, Note_on_c, 0, 63, 0
2, 34898, Note_on_c, 0, 62, 0
2, 34914, Note_on_c, 0, 72, 47
2, 34945, Note_on_c, 0, 72, 0
2, 35035, Note_on_c, 0, 74, 62
2, 35045, Note_on_c, 0, 71, 37
2, 35046, Note_on_c, 0, 66, 20
2, 35046, Note_on_c, 0, 69, 35
2, 35049, Note_on_c, 0, 62, 26
2, 35050, Control_c, 0, 64, 0
2, 35051, Note_on_c, 0, 55, 34
2, 35084, Control_c, 0, 64, 127
2, 35144, Note_on_c, 0, 69, 0
2, 35148, Note_on_c, 0, 71, 0
2, 35150, Note_on_c, 0, 66, 0
2, 35153, Note_on_c, 0, 74, 0
2, 35178, Note_on_c, 0, 62, 0
2, 35217, Note_on_c, 0, 81, 58
2, 35272, Note_on_c, 0, 81, 0
2, 35289, Note_on_c, 0, 62, 1
2, 35289, Note_on_c, 0, 78, 62
2, 35293, Note_on_c, 0, 67, 32
2, 35370, Note_on_c, 0, 67, 0
2, 35374, Note_on_c, 0, 78, 0
2, 35427, Note_on_c, 0, 55, 0
2, 35466, Note_on_c, 0, 66, 53
2, 35469, Note_on_c, 0, 74, 58
2, 35470, Note_on_c, 0, 71, 50
2, 35475, Note_on_c, 0, 55, 36
2, 35491, Note_on_c, 0, 62, 0
2, 35501, Note_on_c, 0, 55, 0
2, 35517, Note_on_c, 0, 74, 0
2, 35526, Note_on_c, 0, 71, 0
2, 35528, Note_on_c, 0, 66, 0
2, 35580, Note_on_c, 0, 71, 31
2, 35587, Note_on_c, 0, 66, 38
2, 35592, Note_on_c, 0, 55, 36
2, 35593, Note_on_c, 0, 62, 33
2, 35619, Note_on_c, 0, 71, 0
2, 35622, Note_on_c, 0, 66, 0
2, 35634, Note_on_c, 0, 62, 0
2, 35701, Note_on_c, 0, 43, 32
2, 35709, Note_on_c, 0, 55, 0
2, 35761, Note_on_c, 0, 59, 40
2, 35766, Note_on_c, 0, 55, 35
2, 35767, Note_on_c, 0, 43, 0
2, 35767, Note_on_c, 0, 62, 22
2, 35768, Note_on_c, 0, 66, 20
2, 35772, Note_on_c, 0, 57, 22
2, 35800, Note_on_c, 0, 59, 0
2, 35802, Note_on_c, 0, 57, 0
2, 35803, Note_on_c, 0, 62, 0
2, 35821, Note_on_c, 0, 66, 0
2, 35847, Note_on_c, 0, 55, 0
2, 35884, Note_on_c, 0, 67, 63
2, 35903, Note_on_c, 0, 67, 0
2, 35944, Note_on_c, 0, 67, 73
2, 35963, Note_on_c, 0, 67, 0
2, 36011, Note_on_c, 0, 74, 74
2, 36014, Note_on_c, 0, 67, 78
2, 36018, Control_c, 0, 64, 0
2, 36018, Note_on_c, 0, 63, 59
2, 36019, Note_on_c, 0, 55, 52
2, 36066, Control_c, 0, 64, 127
2, 36118, Note_on_c, 0, 55, 0
2, 36162, Note_on_c, 0, 74, 0
2, 36167, Note_on_c, 0, 63, 0
2, 36175, Note_on_c, 0, 67, 0
2, 36191, Note_on_c, 0, 63, 42
2, 36192, Note_on_c, 0, 72, 48
2, 36195, Note_on_c, 0, 67, 38
2, 36195, Note_on_c, 0, 55, 52
2, 36254, Note_on_c, 0, 72, 0
2, 36267, Note_on_c, 0, 67, 0
2, 36288, Note_on_c, 0, 63, 0
2, 36312, Note_on_c, 0, 43, 46
2, 36313, Note_on_c, 0, 63, 56
2, 36315, Note_on_c, 0, 67, 70
2, 36316, Note_on_c, 0, 71, 70
2, 36384, Note_on_c, 0, 43, 0
2, 36406, Note_on_c, 0, 71, 0
2, 36410, Note_on_c, 0, 67, 0
2, 36428, Note_on_c, 0, 63, 0
2, 36431, Note_on_c, 0, 43, 40
2, 36449, Note_on_c, 0, 55, 0
2, 36492, Note_on_c, 0, 67, 49
2, 36492, Note_on_c, 0, 69, 51
2, 36494, Note_on_c, 0, 63, 35
2, 36495, Note_on_c, 0, 60, 39
2, 36496, Note_on_c, 0, 55, 39
2, 36497, Control_c, 0, 64, 0
2, 36540, Control_c, 0, 64, 127
2, 36613, Note_on_c, 0, 43, 0
2, 36632, Note_on_c, 0, 67, 0
2, 36669, Note_on_c, 0, 43, 47
2, 36673, Note_on_c, 0, 69, 0
2, 36686, Note_on_c, 0, 55, 0
2, 36707, Note_on_c, 0, 43, 0
2, 36711, Note_on_c, 0, 63, 0
2, 36717, Note_on_c, 0, 60, 0
2, 36789, Note_on_c, 0, 67, 37
2, 36792, Note_on_c, 0, 63, 28
2, 36799, Note_on_c, 0, 60, 24
2, 36833, Note_on_c, 0, 67, 0
2, 36846, Note_on_c, 0, 63, 0
2, 36850, Note_on_c, 0, 60, 0
2, 36965, Note_on_c, 0, 43, 25
2, 36966, Note_on_c, 0, 31, 36
2, 36970, Note_on_c, 0, 59, 30
2, 36971, Note_on_c, 0, 57, 22
2, 36971, Control_c, 0, 64, 0
2, 36974, Note_on_c, 0, 62, 24
2, 37003, Note_on_c, 0, 59, 0
2, 37004, Note_on_c, 0, 43, 0
2, 37005, Note_on_c, 0, 57, 0
2, 37006, Note_on_c, 0, 31, 0
2, 37010, Note_on_c, 0, 62, 0
2, 37077, Control_c, 0, 64, 127
2, 37148, Note_on_c, 0, 43, 24
2, 37149, Note_on_c, 0, 59, 35
2, 37149, Note_on_c, 0, 31, 34
2, 37150, Note_on_c, 0, 62, 26
2, 37150, Note_on_c, 0, 57, 24
2, 37152, Control_c, 0, 64, 0
2, 37198, Note_on_c, 0, 57, 0
2, 37200, Note_on_c, 0, 59, 0
2, 37206, Note_on_c, 0, 43, 0
2, 37206, Note_on_c, 0, 31, 0
2, 37210, Note_on_c, 0, 62, 0
2, 37320, Note_on_c, 0, 31, 33
2, 37320, Note_on_c, 0, 43, 24
2, 37325, Note_on_c, 0, 62, 28
2, 37326, Note_on_c, 0, 59, 34
2, 37326, Note_on_c, 0, 57, 24
2, 37393, Control_c, 0, 64, 127
2, 37470, Note_on_c, 0, 43, 0
2, 37502, Note_on_c, 0, 43, 40
2, 37531, Note_on_c, 0, 43, 0
2, 37564, Note_on_c, 0, 43, 25
2, 37590, Note_on_c, 0, 43, 0
2, 37619, Note_on_c, 0, 43, 49
2, 37655, Note_on_c, 0, 43, 0
2, 37684, Note_on_c, 0, 43, 41
2, 37713, Note_on_c, 0, 43, 0
2, 37752, Note_on_c, 0, 31, 0
2, 37753, Note_on_c, 0, 57, 0
2, 37784, Note_on_c, 0, 43, 51
2, 37797, Note_on_c, 0, 43, 0
2, 37837, Note_on_c, 0, 59, 0
2, 37857, Note_on_c, 0, 62, 0
2, 37918, Note_on_c, 0, 63, 33
2, 37918, Note_on_c, 0, 43, 35
2, 37921, Note_on_c, 0, 55, 42
2, 37925, Control_c, 0, 64, 0
2, 37925, Note_on_c, 0, 60, 41
2, 37961, Control_c, 0, 64, 127
2, 37989, Note_on_c, 0, 55, 0
2, 38012, Note_on_c, 0, 60, 0
2, 38024, Note_on_c, 0, 51, 34
2, 38025, Note_on_c, 0, 63, 0
2, 38098, Control_c, 0, 64, 0
2, 38100, Note_on_c, 0, 51, 0
2, 38100, Note_on_c, 0, 67, 48
2, 38101, Note_on_c, 0, 63, 32
2, 38103, Note_on_c, 0, 55, 42
2, 38104, Note_on_c, 0, 60, 32
2, 38112, Control_c, 0, 64, 127
2, 38166, Note_on_c, 0, 55, 0
2, 38181, Note_on_c, 0, 60, 0
2, 38203, Note_on_c, 0, 63, 0
2, 38211, Note_on_c, 0, 67, 0
2, 38218, Note_on_c, 0, 43, 0
2, 38220, Note_on_c, 0, 55, 31
2, 38238, Note_on_c, 0, 55, 0
2, 38340, Note_on_c, 0, 60, 33
2, 38399, Note_on_c, 0, 67, 45
2, 38416, Note_on_c, 0, 67, 0
2, 38417, Note_on_c, 0, 60, 0
2, 38642, Note_on_c, 0, 69, 105
2, 38702, Note_on_c, 0, 67, 75
2, 38718, Note_on_c, 0, 69, 0
2, 38736, Note_on_c, 0, 67, 0
2, 38764, Note_on_c, 0, 66, 44
2, 38800, Note_on_c, 0, 66, 0
2, 38816, Note_on_c, 0, 63, 44
2, 38880, Note_on_c, 0, 66, 67
2, 38882, Note_on_c, 0, 43, 33
2, 39000, Note_on_c, 0, 59, 43
2, 39000, Control_c, 0, 64, 127
2, 39021, Note_on_c, 0, 59, 0
2, 39040, Note_on_c, 0, 63, 0
2, 39060, Note_on_c, 0, 54, 61
2, 39060, Control_c, 0, 64, 0
2, 39063, Note_on_c, 0, 63, 39
2, 39063, Note_on_c, 0, 59, 54
2, 39069, Note_on_c, 0, 43, 0
2, 39161, Note_on_c, 0, 59, 0
2, 39164, Note_on_c, 0, 63, 0
2, 39171, Note_on_c, 0, 54, 0
2, 39174, Note_on_c, 0, 63, 25
2, 39175, Note_on_c, 0, 59, 40
2, 39175, Note_on_c, 0, 55, 69
2, 39209, Note_on_c, 0, 59, 0
2, 39213, Note_on_c, 0, 63, 0
2, 39231, Note_on_c, 0, 55, 0
2, 39232, Note_on_c, 0, 54, 51
2, 39233, Note_on_c, 0, 63, 25
2, 39233, Note_on_c, 0, 59, 37
2, 39258, Note_on_c, 0, 59, 0
2, 39262, Note_on_c, 0, 63, 0
2, 39299, Note_on_c, 0, 59, 46
2, 39299, Note_on_c, 0, 63, 31
2, 39300, Note_on_c, 0, 54, 0
2, 39302, Note_on_c, 0, 51, 46
2, 39316, Note_on_c, 0, 59, 0
2, 39321, Note_on_c, 0, 63, 0
2, 39356, Note_on_c, 0, 51, 0
2, 39413, Note_on_c, 0, 51, 50
2, 39414, Note_on_c, 0, 59, 50
2, 39415, Note_on_c, 0, 63, 30
2, 39439, Note_on_c, 0, 59, 0
2, 39450, Note_on_c, 0, 63, 0
2, 39473, Note_on_c, 0, 43, 41
2, 39487, Note_on_c, 0, 51, 0
2, 39493, Control_c, 0, 64, 127
2, 39528, Note_on_c, 0, 51, 39
2, 39590, Note_on_c, 0, 59, 53
2, 39612, Note_on_c, 0, 66, 0
2, 39633, Note_on_c, 0, 59, 0
2, 39651, Note_on_c, 0, 63, 71
2, 39652, Note_on_c, 0, 54, 65
2, 39691, Note_on_c, 0, 54, 0
2, 39696, Note_on_c, 0, 63, 0
2, 39704, Note_on_c, 0, 54, 38
2, 39708, Note_on_c, 0, 63, 79
2, 39710, Note_on_c, 0, 66, 80
2, 39747, Control_c, 0, 64, 0
2, 39748, Note_on_c, 0, 54, 0
2, 39759, Note_on_c, 0, 66, 0
2, 39764, Note_on_c, 0, 54, 37
2, 39770, Note_on_c, 0, 67, 79
2, 39776, Control_c, 0, 64, 127
2, 39786, Note_on_c, 0, 54, 0
2, 39786, Note_on_c, 0, 63, 0
2, 39802, Note_on_c, 0, 43, 0
2, 39807, Note_on_c, 0, 67, 0
2, 39823, Note_on_c, 0, 51, 0
2, 39831, Note_on_c, 0, 64, 53
2, 39831, Note_on_c, 0, 43, 33
2, 39833, Control_c, 0, 64, 0
2, 39834, Note_on_c, 0, 52, 47
2, 39836, Note_on_c, 0, 55, 34
2, 39837, Note_on_c, 0, 60, 51
2, 39884, Control_c, 0, 64, 127
2, 39912, Note_on_c, 0, 55, 0
2, 39932, Note_on_c, 0, 60, 0
2, 39953, Note_on_c, 0, 43, 0
2, 40023, Note_on_c, 0, 43, 34
2, 40023, Note_on_c, 0, 55, 51
2, 40038, Note_on_c, 0, 55, 0
2, 40043, Note_on_c, 0, 43, 0
2, 40056, Note_on_c, 0, 64, 0
2, 40062, Note_on_c, 0, 52, 0
2, 40142, Note_on_c, 0, 79, 65
2, 40144, Note_on_c, 0, 64, 50
2, 40145, Note_on_c, 0, 74, 58
2, 40147, Note_on_c, 0, 69, 53
2, 40155, Control_c, 0, 64, 0
2, 40179, Control_c, 0, 64, 127
2, 40199, Note_on_c, 0, 64, 0
2, 40199, Note_on_c, 0, 79, 0
2, 40205, Note_on_c, 0, 74, 0
2, 40213, Note_on_c, 0, 69, 0
2, 40261, Note_on_c, 0, 62, 62
2, 40262, Note_on_c, 0, 72, 51
2, 40263, Note_on_c, 0, 67, 64
2, 40265, Note_on_c, 0, 57, 53
2, 40281, Control_c, 0, 64, 0
2, 40303, Control_c, 0, 64, 127
2, 40315, Note_on_c, 0, 57, 0
2, 40317, Note_on_c, 0, 72, 0
2, 40320, Note_on_c, 0, 67, 0
2, 40331, Note_on_c, 0, 62, 0
2, 40381, Note_on_c, 0, 67, 51
2, 40383, Note_on_c, 0, 62, 52
2, 40384, Note_on_c, 0, 57, 37
2, 40385, Note_on_c, 0, 52, 44
2, 40391, Control_c, 0, 64, 0
2, 40422, Control_c, 0, 64, 127
2, 40426, Note_on_c, 0, 62, 0
2, 40429, Note_on_c, 0, 67, 0
2, 40442, Note_on_c, 0, 57, 0
2, 40460, Note_on_c, 0, 52, 0
2, 40500, Note_on_c, 0, 43, 47
2, 40539, Control_c, 0, 64, 0
2, 40557, Note_on_c, 0, 57, 65
2, 40557, Note_on_c, 0, 60, 71
2, 40557, Note_on_c, 0, 55, 68
2, 40588, Control_c, 0, 64, 127
2, 40624, Note_on_c, 0, 55, 0
2, 40656, Note_on_c, 0, 57, 0
2, 40672, Note_on_c, 0, 60, 0
2, 40678, Note_on_c, 0, 55, 42
2, 40681, Note_on_c, 0, 57, 43
2, 40695, Note_on_c, 0, 43, 0
2, 40703, Note_on_c, 0, 57, 0
2, 40723, Note_on_c, 0, 55, 0
2, 40740, Note_on_c, 0, 43, 47
2, 40762, Note_on_c, 0, 43, 0
2, 40799, Note_on_c, 0, 66, 71
2, 40801, Note_on_c, 0, 63, 65
2, 40802, Note_on_c, 0, 59, 71
2, 40804, Control_c, 0, 64, 0
2, 40805, Note_on_c, 0, 43, 61
2, 40846, Control_c, 0, 64, 127
2, 40909, Note_on_c, 0, 59, 0
2, 40915, Note_on_c, 0, 66, 0
2, 40921, Control_c, 0, 64, 0
2, 40922, Note_on_c, 0, 67, 60
2, 40923, Note_on_c, 0, 55, 49
2, 40927, Note_on_c, 0, 59, 34
2, 40938, Control_c, 0, 64, 127
2, 40941, Note_on_c, 0, 55, 0
2, 40960, Note_on_c, 0, 63, 0
2, 40961, Note_on_c, 0, 59, 0
2, 40979, Note_on_c, 0, 67, 0
2, 40991, Note_on_c, 0, 66, 83
2, 40992, Note_on_c, 0, 54, 65
2, 40992, Note_on_c, 0, 59, 81
2, 40993, Note_on_c, 0, 63, 81
2, 40996, Control_c, 0, 64, 0
2, 41042, Control_c, 0, 64, 127
2, 41074, Note_on_c, 0, 63, 0
2, 41088, Note_on_c, 0, 54, 0
2, 41089, Note_on_c, 0, 59, 0
2, 41110, Note_on_c, 0, 51, 35
2, 41112, Note_on_c, 0, 63, 23
2, 41122, Note_on_c, 0, 43, 0
2, 41136, Note_on_c, 0, 66, 0
2, 41138, Note_on_c, 0, 63, 0
2, 41152, Note_on_c, 0, 51, 0
2, 41170, Note_on_c, 0, 66, 78
2, 41171, Note_on_c, 0, 63, 80
2, 41173, Note_on_c, 0, 54, 75
2, 41173, Note_on_c, 0, 59, 87
2, 41174, Control_c, 0, 64, 0
2, 41247, Note_on_c, 0, 59, 0
2, 41247, Note_on_c, 0, 66, 0
2, 41251, Note_on_c, 0, 67, 71
2, 41256, Note_on_c, 0, 59, 31
2, 41266, Note_on_c, 0, 54, 0
2, 41291, Control_c, 0, 64, 127
2, 41314, Note_on_c, 0, 63, 0
2, 41317, Note_on_c, 0, 59, 0
2, 41331, Note_on_c, 0, 67, 0
2, 41352, Note_on_c, 0, 54, 55
2, 41352, Note_on_c, 0, 66, 50
2, 41354, Note_on_c, 0, 63, 35
2, 41355, Note_on_c, 0, 59, 34
2, 41357, Control_c, 0, 64, 0
2, 41360, Note_on_c, 0, 43, 24
2, 41396, Note_on_c, 0, 63, 0
2, 41399, Note_on_c, 0, 43, 0
2, 41404, Control_c, 0, 64, 127
2, 41427, Note_on_c, 0, 54, 0
2, 41446, Note_on_c, 0, 59, 0
2, 41456, Note_on_c, 0, 43, 40
2, 41474, Note_on_c, 0, 63, 18
2, 41502, Note_on_c, 0, 63, 0
2, 41521, Control_c, 0, 64, 0
2, 41525, Note_on_c, 0, 59, 49
2, 41529, Note_on_c, 0, 54, 43
2, 41552, Control_c, 0, 64, 127
2, 41580, Note_on_c, 0, 43, 0
2, 41613, Note_on_c, 0, 66, 0
2, 41634, Note_on_c, 0, 43, 40
2, 41657, Note_on_c, 0, 43, 0
2, 41684, Note_on_c, 0, 54, 0
2, 41692, Note_on_c, 0, 59, 0
2, 41700, Note_on_c, 0, 67, 49
2, 41703, Note_on_c, 0, 43, 34
2, 41717, Note_on_c, 0, 43, 0
2, 41727, Note_on_c, 0, 67, 0
2, 41760, Note_on_c, 0, 64, 42
2, 41761, Note_on_c, 0, 43, 34
2, 41764, Control_c, 0, 64, 0
2, 41764, Note_on_c, 0, 55, 30
2, 41765, Note_on_c, 0, 52, 31
2, 41768, Note_on_c, 0, 60, 24
2, 41808, Control_c, 0, 64, 127
2, 41829, Note_on_c, 0, 55, 0
2, 41856, Note_on_c, 0, 60, 0
2, 41865, Note_on_c, 0, 43, 0
2, 41887, Note_on_c, 0, 64, 0
2, 41938, Note_on_c, 0, 43, 40
2, 41962, Note_on_c, 0, 52, 0
2, 41993, Note_on_c, 0, 74, 71
2, 41995, Note_on_c, 0, 76, 68
2, 42000, Control_c, 0, 64, 0
2, 42014, Note_on_c, 0, 52, 24
2, 42025, Note_on_c, 0, 43, 0
2, 42028, Control_c, 0, 64, 127
2, 42035, Note_on_c, 0, 52, 0
2, 42047, Note_on_c, 0, 74, 0
2, 42058, Note_on_c, 0, 72, 34
2, 42094, Note_on_c, 0, 76, 0
2, 42111, Note_on_c, 0, 55, 43
2, 42151, Note_on_c, 0, 72, 0
2, 42175, Note_on_c, 0, 79, 58
2, 42175, Note_on_c, 0, 74, 41
2, 42178, Note_on_c, 0, 76, 64
2, 42178, Control_c, 0, 64, 0
2, 42180, Note_on_c, 0, 64, 33
2, 42198, Control_c, 0, 64, 127
2, 42245, Note_on_c, 0, 55, 0
2, 42255, Note_on_c, 0, 79, 0
2, 42264, Note_on_c, 0, 76, 0
2, 42267, Note_on_c, 0, 74, 0
2, 42284, Note_on_c, 0, 64, 0
2, 42295, Note_on_c, 0, 55, 50
2, 42306, Note_on_c, 0, 55, 0
2, 42356, Note_on_c, 0, 64, 38
2, 42379, Note_on_c, 0, 64, 0
2, 42422, Note_on_c, 0, 55, 30
2, 42483, Note_on_c, 0, 64, 38
2, 42485, Note_on_c, 0, 60, 33
2, 42486, Note_on_c, 0, 43, 35
2, 42489, Control_c, 0, 64, 0
2, 42509, Control_c, 0, 64, 127
2, 42525, Note_on_c, 0, 43, 0
2, 42551, Note_on_c, 0, 60, 0
2, 42584, Note_on_c, 0, 64, 0
2, 42597, Note_on_c, 0, 55, 0
2, 42650, Note_on_c, 0, 43, 44
2, 42670, Note_on_c, 0, 43, 0
2, 42710, Control_c, 0, 64, 0
2, 42712, Note_on_c, 0, 62, 51
2, 42713, Note_on_c, 0, 56, 35
2, 42714, Note_on_c, 0, 55, 47
2, 42716, Note_on_c, 0, 60, 54
2, 42717, Note_on_c, 0, 43, 40
2, 42731, Note_on_c, 0, 55, 0
2, 42741, Control_c, 0, 64, 127
2, 42757, Note_on_c, 0, 60, 0
2, 42761, Note_on_c, 0, 62, 0
2, 42767, Note_on_c, 0, 56, 0
2, 42778, Note_on_c, 0, 55, 41
2, 42787, Note_on_c, 0, 43, 0
2, 42791, Note_on_c, 0, 55, 0
2, 42804, Note_on_c, 0, 56, 45
2, 42822, Note_on_c, 0, 56, 0
2, 42839, Note_on_c, 0, 60, 71
2, 42869, Note_on_c, 0, 60, 0
2, 42870, Note_on_c, 0, 62, 74
2, 42901, Note_on_c, 0, 63, 71
2, 42903, Note_on_c, 0, 62, 0
2, 42914, Note_on_c, 0, 63, 0
2, 42921, Note_on_c, 0, 65, 63
2, 42953, Note_on_c, 0, 67, 88
2, 42956, Note_on_c, 0, 65, 0
2, 43023, Control_c, 0, 64, 0
2, 43029, Note_on_c, 0, 56, 29
2, 43030, Note_on_c, 0, 62, 32
2, 43035, Note_on_c, 0, 55, 39
2, 43036, Note_on_c, 0, 60, 37
2, 43092, Control_c, 0, 64, 127
2, 43118, Control_c, 0, 64, 0
2, 43129, Note_on_c, 0, 68, 59
2, 43131, Note_on_c, 0, 67, 0
2, 43155, Note_on_c, 0, 68, 0
2, 43158, Note_on_c, 0, 67, 64
2, 43172, Note_on_c, 0, 67, 0
2, 43191, Note_on_c, 0, 75, 66
2, 43229, Control_c, 0, 64, 127
2, 43253, Note_on_c, 0, 74, 66
2, 43255, Note_on_c, 0, 56, 0
2, 43257, Note_on_c, 0, 60, 0
2, 43257, Note_on_c, 0, 62, 0
2, 43261, Note_on_c, 0, 75, 0
2, 43276, Note_on_c, 0, 55, 0
2, 43301, Control_c, 0, 64, 0
2, 43308, Control_c, 0, 64, 127
2, 43308, Note_on_c, 0, 68, 35
2, 43348, Note_on_c, 0, 68, 0
2, 43354, Note_on_c, 0, 74, 0
2, 43368, Note_on_c, 0, 67, 44
2, 43411, Note_on_c, 0, 67, 0
2, 43428, Note_on_c, 0, 79, 59
2, 43431, Control_c, 0, 64, 0
2, 43436, Note_on_c, 0, 56, 25
2, 43436, Note_on_c, 0, 60, 33
2, 43441, Note_on_c, 0, 55, 30
2, 43456, Control_c, 0, 64, 127
2, 43500, Note_on_c, 0, 60, 0
2, 43548, Note_on_c, 0, 60, 39
2, 43563, Note_on_c, 0, 55, 0
2, 43588, Note_on_c, 0, 60, 0
2, 43612, Note_on_c, 0, 67, 45
2, 43613, Note_on_c, 0, 79, 0
2, 43619, Note_on_c, 0, 56, 0
2, 43739, Note_on_c, 0, 55, 38
2, 43740, Control_c, 0, 64, 0
2, 43767, Control_c, 0, 64, 127
2, 43770, Note_on_c, 0, 55, 0
2, 43802, Note_on_c, 0, 55, 38
2, 43838, Note_on_c, 0, 67, 0
2, 43860, Note_on_c, 0, 64, 31
2, 43861, Note_on_c, 0, 60, 44
2, 43895, Control_c, 0, 64, 0
2, 43904, Note_on_c, 0, 64, 0
2, 43906, Control_c, 0, 64, 127
2, 43913, Note_on_c, 0, 60, 0
2, 43913, Note_on_c, 0, 72, 55
2, 43917, Note_on_c, 0, 67, 57
2, 43924, Note_on_c, 0, 55, 0
2, 43981, Note_on_c, 0, 72, 0
2, 43983, Note_on_c, 0, 55, 35
2, 43990, Note_on_c, 0, 67, 0
2, 44029, Note_on_c, 0, 55, 0
2, 44049, Note_on_c, 0, 43, 20
2, 44098, Note_on_c, 0, 62, 50
2, 44100, Note_on_c, 0, 55, 40
2, 44102, Note_on_c, 0, 64, 56
2, 44111, Control_c, 0, 64, 0
2, 44113, Note_on_c, 0, 55, 0
2, 44137, Note_on_c, 0, 43, 0
2, 44140, Control_c, 0, 64, 127
2, 44164, Note_on_c, 0, 60, 46
2, 44166, Note_on_c, 0, 62, 0
2, 44172, Note_on_c, 0, 64, 0
2, 44214, Note_on_c, 0, 60, 0
2, 44220, Note_on_c, 0, 31, 34
2, 44281, Note_on_c, 0, 43, 28
2, 44342, Note_on_c, 0, 52, 49
2, 44342, Note_on_c, 0, 55, 60
2, 44351, Control_c, 0, 64, 0
2, 44384, Control_c, 0, 64, 127
2, 44396, Note_on_c, 0, 31, 0
2, 44397, Note_on_c, 0, 52, 0
2, 44424, Note_on_c, 0, 55, 0
2, 44460, Note_on_c, 0, 31, 64
2, 44479, Note_on_c, 0, 31, 0
2, 44487, Note_on_c, 0, 43, 0
2, 44577, Note_on_c, 0, 56, 71
2, 44578, Note_on_c, 0, 55, 84
2, 44578, Note_on_c, 0, 60, 69
2, 44579, Note_on_c, 0, 62, 68
2, 44596, Note_on_c, 0, 55, 0
2, 44608, Note_on_c, 0, 56, 0
2, 44611, Note_on_c, 0, 60, 0
2, 44613, Note_on_c, 0, 62, 0
2, 44618, Control_c, 0, 64, 0
2, 44638, Note_on_c, 0, 55, 53
2, 44638, Note_on_c, 0, 56, 33
2, 44642, Note_on_c, 0, 62, 30
2, 44643, Note_on_c, 0, 60, 51
2, 44650, Note_on_c, 0, 55, 0
2, 44656, Note_on_c, 0, 56, 0
2, 44659, Note_on_c, 0, 60, 0
2, 44664, Note_on_c, 0, 62, 0
2, 44703, Note_on_c, 0, 55, 41
2, 44714, Note_on_c, 0, 55, 0
2, 44762, Note_on_c, 0, 55, 36
2, 44764, Note_on_c, 0, 56, 26
2, 44765, Note_on_c, 0, 62, 32
2, 44766, Note_on_c, 0, 60, 48
2, 44778, Note_on_c, 0, 55, 0
2, 44799, Note_on_c, 0, 60, 0
2, 44802, Note_on_c, 0, 62, 0
2, 44803, Note_on_c, 0, 56, 0
2, 44822, Note_on_c, 0, 43, 39
2, 44841, Note_on_c, 0, 43, 0
2, 44879, Note_on_c, 0, 56, 44
2, 44881, Note_on_c, 0, 62, 40
2, 44883, Note_on_c, 0, 60, 47
2, 44885, Note_on_c, 0, 55, 64
2, 44897, Note_on_c, 0, 56, 0
2, 44905, Note_on_c, 0, 60, 0
2, 44929, Note_on_c, 0, 55, 0
2, 44941, Note_on_c, 0, 56, 67
2, 44944, Note_on_c, 0, 62, 0
2, 44973, Note_on_c, 0, 56, 0
2, 45002, Note_on_c, 0, 60, 31
2, 45006, Note_on_c, 0, 55, 38
2, 45018, Note_on_c, 0, 55, 0
2, 45035, Note_on_c, 0, 60, 0
2, 45064, Note_on_c, 0, 79, 74
2, 45079, Note_on_c, 0, 79, 0
2, 45115, Note_on_c, 0, 68, 57
2, 45123, Note_on_c, 0, 68, 0
2, 45175, Note_on_c, 0, 60, 43
2, 45181, Control_c, 0, 64, 127
2, 45231, Note_on_c, 0, 67, 55
2, 45236, Note_on_c, 0, 56, 37
2, 45243, Control_c, 0, 64, 0
2, 45294, Note_on_c, 0, 55, 34
2, 45296, Control_c, 0, 64, 127
2, 45336, Note_on_c, 0, 55, 0
2, 45355, Note_on_c, 0, 43, 31
2, 45383, Note_on_c, 0, 67, 0
2, 45386, Note_on_c, 0, 56, 0
2, 45413, Note_on_c, 0, 60, 0
2, 45420, Note_on_c, 0, 56, 23
2, 45453, Note_on_c, 0, 56, 0
2, 45477, Note_on_c, 0, 56, 42
2, 45480, Note_on_c, 0, 64, 53
2, 45488, Note_on_c, 0, 43, 0
2, 45513, Note_on_c, 0, 64, 0
2, 45526, Note_on_c, 0, 56, 0
2, 45540, Note_on_c, 0, 43, 32
2, 45555, Note_on_c, 0, 43, 0
2, 45597, Note_on_c, 0, 52, 44
2, 45599, Note_on_c, 0, 55, 47
2, 45602, Control_c, 0, 64, 0
2, 45603, Note_on_c, 0, 60, 36
2, 45606, Note_on_c, 0, 43, 36
2, 45640, Note_on_c, 0, 43, 0
2, 45645, Note_on_c, 0, 52, 0
2, 45649, Control_c, 0, 64, 127
2, 45661, Note_on_c, 0, 43, 43
2, 45673, Note_on_c, 0, 55, 0
2, 45704, Note_on_c, 0, 60, 0
2, 45719, Note_on_c, 0, 52, 26
2, 45734, Note_on_c, 0, 52, 0
2, 45787, Note_on_c, 0, 55, 63
2, 45790, Note_on_c, 0, 60, 51
2, 45792, Control_c, 0, 64, 0
2, 45807, Control_c, 0, 64, 127
2, 45835, Note_on_c, 0, 55, 0
2, 45842, Note_on_c, 0, 60, 0
2, 45908, Note_on_c, 0, 55, 54
2, 45924, Note_on_c, 0, 43, 0
2, 45936, Note_on_c, 0, 55, 0
2, 45969, Note_on_c, 0, 64, 43
2, 45982, Note_on_c, 0, 64, 0
2, 46028, Note_on_c, 0, 72, 88
2, 46067, Note_on_c, 0, 72, 0
2, 46087, Note_on_c, 0, 72, 39
2, 46095, Note_on_c, 0, 67, 67
2, 46096, Note_on_c, 0, 63, 52
2, 46101, Control_c, 0, 64, 0
2, 46101, Note_on_c, 0, 55, 45
2, 46134, Control_c, 0, 64, 127
2, 46154, Note_on_c, 0, 55, 0
2, 46168, Note_on_c, 0, 63, 0
2, 46182, Note_on_c, 0, 55, 52
2, 46187, Note_on_c, 0, 72, 0
2, 46188, Note_on_c, 0, 67, 0
2, 46256, Note_on_c, 0, 74, 64
2, 46259, Note_on_c, 0, 67, 55
2, 46261, Note_on_c, 0, 62, 37
2, 46267, Control_c, 0, 64, 0
2, 46280, Control_c, 0, 64, 127
2, 46291, Note_on_c, 0, 74, 0
2, 46300, Note_on_c, 0, 62, 0
2, 46318, Note_on_c, 0, 67, 0
2, 46335, Note_on_c, 0, 72, 44
2, 46337, Note_on_c, 0, 67, 49
2, 46339, Note_on_c, 0, 55, 0
2, 46340, Note_on_c, 0, 63, 30
2, 46342, Note_on_c, 0, 60, 36
2, 46400, Note_on_c, 0, 63, 0
2, 46401, Note_on_c, 0, 60, 0
2, 46424, Note_on_c, 0, 67, 0
2, 46426, Note_on_c, 0, 72, 0
2, 46427, Note_on_c, 0, 63, 37
2, 46441, Note_on_c, 0, 63, 0
2, 46482, Note_on_c, 0, 50, 34
2, 46514, Note_on_c, 0, 50, 0
2, 46549, Note_on_c, 0, 57, 26
2, 46549, Note_on_c, 0, 59, 45
2, 46550, Note_on_c, 0, 43, 34
2, 46552, Note_on_c, 0, 50, 26
2, 46562, Control_c, 0, 64, 0
2, 46622, Control_c, 0, 64, 127
2, 46625, Note_on_c, 0, 57, 0
2, 46673, Note_on_c, 0, 43, 0
2, 46674, Note_on_c, 0, 57, 26
2, 46698, Note_on_c, 0, 57, 0
2, 46698, Note_on_c, 0, 59, 0
2, 46728, Note_on_c, 0, 50, 0
2, 46735, Note_on_c, 0, 60, 49
2, 46738, Note_on_c, 0, 55, 44
2, 46739, Note_on_c, 0, 43, 33
2, 46756, Control_c, 0, 64, 0
2, 46798, Control_c, 0, 64, 127
2, 46832, Note_on_c, 0, 55, 0
2, 46862, Note_on_c, 0, 52, 36
2, 46863, Note_on_c, 0, 55, 34
2, 46868, Note_on_c, 0, 43, 0
2, 46924, Note_on_c, 0, 52, 0
2, 46942, Note_on_c, 0, 55, 0
2, 46945, Note_on_c, 0, 60, 0
2, 47034, Note_on_c, 0, 62, 53
2, 47035, Note_on_c, 0, 57, 42
2, 47036, Note_on_c, 0, 43, 25
2, 47037, Note_on_c, 0, 59, 53
2, 47037, Note_on_c, 0, 54, 49
2, 47045, Control_c, 0, 64, 0
2, 47102, Control_c, 0, 64, 127
2, 47123, Note_on_c, 0, 57, 0
2, 47141, Note_on_c, 0, 43, 0
2, 47145, Note_on_c, 0, 59, 0
2, 47154, Note_on_c, 0, 57, 36
2, 47195, Note_on_c, 0, 54, 0
2, 47206, Note_on_c, 0, 62, 0
2, 47210, Note_on_c, 0, 57, 0
2, 47212, Note_on_c, 0, 43, 42
2, 47270, Control_c, 0, 64, 0
2, 47276, Note_on_c, 0, 64, 50
2, 47277, Note_on_c, 0, 55, 58
2, 47279, Note_on_c, 0, 52, 41
2, 47280, Note_on_c, 0, 60, 49
2, 47321, Control_c, 0, 64, 127
2, 47330, Note_on_c, 0, 43, 0
2, 47339, Note_on_c, 0, 55, 0
2, 47366, Note_on_c, 0, 60, 0
2, 47370, Note_on_c, 0, 64, 0
2, 47389, Note_on_c, 0, 43, 49
2, 47413, Note_on_c, 0, 43, 0
2, 47452, Note_on_c, 0, 43, 53
2, 47455, Note_on_c, 0, 52, 0
2, 47569, Note_on_c, 0, 63, 73
2, 47570, Note_on_c, 0, 54, 53
2, 47570, Note_on_c, 0, 66, 63
2, 47571, Note_on_c, 0, 59, 70
2, 47579, Control_c, 0, 64, 0
2, 47629, Note_on_c, 0, 43, 0
2, 47630, Control_c, 0, 64, 127
2, 47681, Note_on_c, 0, 54, 0
2, 47688, Note_on_c, 0, 43, 50
2, 47721, Note_on_c, 0, 59, 0
2, 47723, Note_on_c, 0, 66, 0
2, 47734, Note_on_c, 0, 63, 0
2, 47757, Note_on_c, 0, 59, 43
2, 47758, Control_c, 0, 64, 0
2, 47758, Note_on_c, 0, 67, 51
2, 47758, Note_on_c, 0, 64, 53
2, 47762, Note_on_c, 0, 52, 36
2, 47799, Note_on_c, 0, 43, 0
2, 47811, Control_c, 0, 64, 127
2, 47857, Note_on_c, 0, 59, 0
2, 47869, Note_on_c, 0, 64, 0
2, 47877, Note_on_c, 0, 43, 38
2, 47879, Note_on_c, 0, 52, 0
2, 47894, Note_on_c, 0, 67, 0
2, 47942, Note_on_c, 0, 63, 50
2, 47943, Note_on_c, 0, 54, 42
2, 47943, Note_on_c, 0, 66, 51
2, 47944, Note_on_c, 0, 69, 57
2, 47945, Note_on_c, 0, 57, 45
2, 47948, Control_c, 0, 64, 0
2, 47985, Control_c, 0, 64, 127
2, 47995, Note_on_c, 0, 43, 0
2, 48064, Note_on_c, 0, 57, 0
2, 48070, Note_on_c, 0, 43, 29
2, 48085, Note_on_c, 0, 43, 0
2, 48115, Note_on_c, 0, 54, 0
2, 48133, Note_on_c, 0, 43, 28
2, 48143, Note_on_c, 0, 43, 0
2, 48174, Note_on_c, 0, 69, 0
2, 48184, Note_on_c, 0, 43, 32
2, 48185, Note_on_c, 0, 66, 0
2, 48191, Note_on_c, 0, 63, 0
2, 48237, Note_on_c, 0, 71, 55
2, 48240, Control_c, 0, 64, 0
2, 48241, Note_on_c, 0, 52, 28
2, 48242, Note_on_c, 0, 64, 48
2, 48245, Note_on_c, 0, 62, 48
2, 48270, Control_c, 0, 64, 127
2, 48279, Note_on_c, 0, 43, 0
2, 48344, Note_on_c, 0, 64, 0
2, 48346, Note_on_c, 0, 71, 0
2, 48351, Note_on_c, 0, 62, 0
2, 48410, Note_on_c, 0, 52, 0
2, 48411, Note_on_c, 0, 43, 32
2, 48460, Control_c, 0, 64, 0
2, 48470, Note_on_c, 0, 64, 35
2, 48472, Note_on_c, 0, 52, 37
2, 48474, Note_on_c, 0, 60, 40
2, 48474, Note_on_c, 0, 55, 29
2, 48489, Control_c, 0, 64, 127
2, 48510, Note_on_c, 0, 55, 0
2, 48536, Note_on_c, 0, 60, 0
2, 48546, Note_on_c, 0, 43, 0
2, 48546, Note_on_c, 0, 64, 0
2, 48586, Note_on_c, 0, 43, 42
2, 48596, Note_on_c, 0, 43, 0
2, 48599, Note_on_c, 0, 52, 0
2, 48648, Note_on_c, 0, 76, 67
2, 48650, Note_on_c, 0, 67, 54
2, 48652, Note_on_c, 0, 72, 43
2, 48652, Note_on_c, 0, 60, 53
2, 48700, Note_on_c, 0, 72, 0
2, 48702, Note_on_c, 0, 76, 0
2, 48713, Note_on_c, 0, 67, 0
2, 48760, Note_on_c, 0, 60, 0
2, 48765, Note_on_c, 0, 79, 83
2, 48767, Note_on_c, 0, 72, 80
2, 48767, Note_on_c, 0, 64, 66
2, 48799, Note_on_c, 0, 79, 0
2, 48800, Note_on_c, 0, 72, 0
2, 48822, Note_on_c, 0, 64, 0
2, 48827, Note_on_c, 0, 76, 69
2, 48829, Note_on_c, 0, 67, 62
2, 48829, Note_on_c, 0, 60, 56
2, 48868, Note_on_c, 0, 76, 0
2, 48869, Note_on_c, 0, 60, 0
2, 48882, Note_on_c, 0, 67, 0
2, 48934, Note_on_c, 0, 72, 29
2, 48935, Note_on_c, 0, 64, 45
2, 48940, Note_on_c, 0, 55, 36
2, 48949, Note_on_c, 0, 72, 0
2, 48959, Note_on_c, 0, 64, 0
2, 49000, Note_on_c, 0, 55, 0
2, 49012, Note_on_c, 0, 67, 39
2, 49020, Note_on_c, 0, 64, 28
2, 49022, Note_on_c, 0, 52, 26
2, 49026, Note_on_c, 0, 60, 28
2, 49041, Note_on_c, 0, 67, 0
2, 49043, Note_on_c, 0, 64, 0
2, 49053, Note_on_c, 0, 60, 0
2, 49128, Note_on_c, 0, 43, 38
2, 49132, Note_on_c, 0, 64, 34
2, 49134, Note_on_c, 0, 55, 26
2, 49135, Note_on_c, 0, 60, 35
2, 49160, Note_on_c, 0, 55, 0
2, 49161, Note_on_c, 0, 60, 0
2, 49163, Note_on_c, 0, 43, 0
2, 49177, Note_on_c, 0, 64, 0
2, 49192, Note_on_c, 0, 43, 38
2, 49194, Note_on_c, 0, 64, 62
2, 49195, Note_on_c, 0, 55, 62
2, 49195, Note_on_c, 0, 62, 71
2, 49206, Control_c, 0, 64, 0
2, 49245, Control_c, 0, 64, 127
2, 49274, Note_on_c, 0, 52, 0
2, 49284, Note_on_c, 0, 55, 0
2, 49305, Note_on_c, 0, 62, 0
2, 49311, Note_on_c, 0, 55, 40
2, 49312, Note_on_c, 0, 60, 53
2, 49316, Note_on_c, 0, 52, 20
2, 49328, Note_on_c, 0, 43, 0
2, 49350, Note_on_c, 0, 55, 0
2, 49371, Note_on_c, 0, 43, 41
2, 49378, Note_on_c, 0, 60, 0
2, 49391, Note_on_c, 0, 52, 0
2, 49402, Note_on_c, 0, 43, 0
2, 49419, Note_on_c, 0, 64, 0
2, 49433, Note_on_c, 0, 62, 59
2, 49434, Note_on_c, 0, 57, 50
2, 49434, Note_on_c, 0, 59, 60
2, 49435, Note_on_c, 0, 43, 51
2, 49439, Control_c, 0, 64, 0
2, 49488, Control_c, 0, 64, 127
2, 49534, Note_on_c, 0, 57, 0
2, 49552, Note_on_c, 0, 50, 35
2, 49625, Control_c, 0, 64, 0
2, 49627, Note_on_c, 0, 55, 58
2, 49649, Control_c, 0, 64, 127
2, 49654, Note_on_c, 0, 55, 0
2, 49675, Note_on_c, 0, 59, 0
2, 49687, Note_on_c, 0, 62, 0
2, 49741, Note_on_c, 0, 55, 50
2, 49749, Note_on_c, 0, 43, 0
2, 49750, Note_on_c, 0, 50, 0
2, 49779, Note_on_c, 0, 55, 0
2, 49795, Note_on_c, 0, 69, 90
2, 49796, Note_on_c, 0, 71, 82
2, 49860, Note_on_c, 0, 69, 0
2, 49861, Note_on_c, 0, 71, 0
2, 49862, Note_on_c, 0, 67, 61
2, 49962, Note_on_c, 0, 67, 0
2, 49979, Note_on_c, 0, 74, 70
2, 49980, Note_on_c, 0, 76, 73
2, 49986, Note_on_c, 0, 62, 42
2, 50002, Control_c, 0, 64, 0
2, 50011, Control_c, 0, 64, 127
2, 50045, Note_on_c, 0, 71, 50
2, 50047, Note_on_c, 0, 74, 0
2, 50048, Note_on_c, 0, 76, 0
2, 50088, Note_on_c, 0, 71, 0
2, 50095, Note_on_c, 0, 67, 46
2, 50155, Note_on_c, 0, 83, 88
2, 50157, Note_on_c, 0, 76, 81
2, 50171, Note_on_c, 0, 62, 0
2, 50208, Note_on_c, 0, 67, 0
2, 50220, Note_on_c, 0, 76, 0
2, 50244, Note_on_c, 0, 83, 0
2, 50269, Note_on_c, 0, 79, 61
2, 50272, Note_on_c, 0, 71, 56
2, 50279, Note_on_c, 0, 76, 26
2, 50287, Note_on_c, 0, 76, 0
2, 50288, Note_on_c, 0, 79, 0
2, 50298, Note_on_c, 0, 71, 0
2, 50334, Note_on_c, 0, 50, 45
2, 50354, Note_on_c, 0, 50, 0
2, 50457, Note_on_c, 0, 43, 51
2, 50458, Note_on_c, 0, 59, 53
2, 50458, Note_on_c, 0, 50, 43
2, 50460, Note_on_c, 0, 55, 49
2, 50467, Control_c, 0, 64, 0
2, 50505, Control_c, 0, 64, 127
2, 50529, Note_on_c, 0, 50, 0
2, 50539, Note_on_c, 0, 55, 0
2, 50547, Note_on_c, 0, 59, 0
2, 50568, Note_on_c, 0, 31, 52
2, 50575, Note_on_c, 0, 43, 0
2, 50578, Note_on_c, 0, 31, 0
2, 50634, Note_on_c, 0, 61, 78
2, 50635, Note_on_c, 0, 57, 81
2, 50635, Note_on_c, 0, 52, 74
2, 50639, Note_on_c, 0, 43, 60
2, 50642, Control_c, 0, 64, 0
2, 50699, Control_c, 0, 64, 127
2, 50733, Note_on_c, 0, 43, 0
2, 50747, Note_on_c, 0, 52, 0
2, 50765, Note_on_c, 0, 52, 36
2, 50819, Note_on_c, 0, 52, 0
2, 50823, Note_on_c, 0, 43, 55
2, 50845, Note_on_c, 0, 43, 0
2, 50876, Note_on_c, 0, 57, 0
2, 50883, Note_on_c, 0, 43, 51
2, 50905, Note_on_c, 0, 61, 0
2, 50946, Note_on_c, 0, 63, 57
2, 50947, Note_on_c, 0, 54, 57
2, 50950, Note_on_c, 0, 59, 62
2, 50951, Control_c, 0, 64, 0
2, 50951, Note_on_c, 0, 51, 47
2, 50993, Control_c, 0, 64, 127
2, 51004, Note_on_c, 0, 43, 0
2, 51059, Note_on_c, 0, 59, 0
2, 51060, Note_on_c, 0, 43, 52
2, 51067, Note_on_c, 0, 54, 0
2, 51072, Note_on_c, 0, 51, 0
2, 51076, Note_on_c, 0, 63, 0
2, 51123, Control_c, 0, 64, 0
2, 51127, Note_on_c, 0, 64, 51
2, 51128, Note_on_c, 0, 62, 39
2, 51128, Note_on_c, 0, 55, 45
2, 51129, Note_on_c, 0, 59, 47
2, 51131, Note_on_c, 0, 52, 41
2, 51160, Note_on_c, 0, 43, 0
2, 51171, Control_c, 0, 64, 127
2, 51208, Note_on_c, 0, 55, 0
2, 51237, Note_on_c, 0, 43, 31
2, 51242, Note_on_c, 0, 55, 44
2, 51248, Note_on_c, 0, 64, 0
2, 51248, Note_on_c, 0, 62, 0
2, 51250, Note_on_c, 0, 43, 0
2, 51253, Note_on_c, 0, 55, 0
2, 51260, Note_on_c, 0, 59, 0
2, 51297, Note_on_c, 0, 43, 44
2, 51300, Note_on_c, 0, 52, 0
2, 51388, Note_on_c, 0, 43, 0
2, 51422, Note_on_c, 0, 66, 62
2, 51424, Note_on_c, 0, 59, 64
2, 51425, Note_on_c, 0, 43, 47
2, 51426, Note_on_c, 0, 63, 55
2, 51426, Note_on_c, 0, 55, 48
2, 51438, Control_c, 0, 64, 0
2, 51474, Control_c, 0, 64, 127
2, 51497, Note_on_c, 0, 43, 0
2, 51532, Note_on_c, 0, 59, 0
2, 51535, Note_on_c, 0, 55, 0
2, 51538, Note_on_c, 0, 43, 45
2, 51545, Note_on_c, 0, 63, 0
2, 51554, Note_on_c, 0, 66, 0
2, 51603, Note_on_c, 0, 67, 66
2, 51606, Note_on_c, 0, 64, 57
2, 51607, Note_on_c, 0, 59, 58
2, 51607, Note_on_c, 0, 62, 55
2, 51613, Control_c, 0, 64, 0
2, 51614, Note_on_c, 0, 52, 31
2, 51641, Note_on_c, 0, 43, 0
2, 51650, Control_c, 0, 64, 127
2, 51693, Note_on_c, 0, 59, 0
2, 51701, Note_on_c, 0, 62, 0
2, 51701, Note_on_c, 0, 67, 0
2, 51701, Note_on_c, 0, 64, 0
2, 51706, Note_on_c, 0, 43, 45
2, 51709, Note_on_c, 0, 52, 0
2, 51780, Control_c, 0, 64, 0
2, 51782, Note_on_c, 0, 54, 58
2, 51782, Note_on_c, 0, 69, 76
2, 51783, Note_on_c, 0, 63, 67
2, 51784, Note_on_c, 0, 66, 59
2, 51784, Note_on_c, 0, 60, 75
2, 51824, Control_c, 0, 64, 127
2, 51842, Note_on_c, 0, 43, 0
2, 51905, Note_on_c, 0, 54, 0
2, 51911, Note_on_c, 0, 43, 26
2, 51922, Note_on_c, 0, 43, 0
2, 51961, Note_on_c, 0, 60, 0
2, 51963, Note_on_c, 0, 43, 40
2, 51972, Note_on_c, 0, 69, 0
2, 51999, Note_on_c, 0, 63, 0
2, 52004, Note_on_c, 0, 66, 0
2, 52025, Note_on_c, 0, 71, 60
2, 52028, Note_on_c, 0, 67, 50
2, 52028, Note_on_c, 0, 64, 51
2, 52031, Note_on_c, 0, 62, 42
2, 52032, Note_on_c, 0, 52, 40
2, 52036, Control_c, 0, 64, 0
2, 52062, Control_c, 0, 64, 127
2, 52073, Note_on_c, 0, 43, 0
2, 52137, Note_on_c, 0, 64, 0
2, 52137, Note_on_c, 0, 43, 34
2, 52141, Note_on_c, 0, 62, 0
2, 52152, Note_on_c, 0, 43, 0
2, 52154, Note_on_c, 0, 67, 0
2, 52176, Note_on_c, 0, 71, 0
2, 52210, Note_on_c, 0, 52, 0
2, 52260, Note_on_c, 0, 76, 80
2, 52260, Note_on_c, 0, 69, 81
2, 52304, Note_on_c, 0, 69, 0
2, 52304, Note_on_c, 0, 76, 0
2, 52310, Control_c, 0, 64, 0
2, 52318, Note_on_c, 0, 73, 35
2, 52321, Note_on_c, 0, 69, 38
2, 52322, Note_on_c, 0, 64, 39
2, 52328, Note_on_c, 0, 55, 31
2, 52338, Control_c, 0, 64, 127
2, 52350, Note_on_c, 0, 64, 0
2, 52350, Note_on_c, 0, 69, 0
2, 52365, Note_on_c, 0, 73, 0
2, 52382, Note_on_c, 0, 43, 32
2, 52394, Note_on_c, 0, 43, 0
2, 52398, Note_on_c, 0, 55, 0
2, 52440, Note_on_c, 0, 88, 62
2, 52443, Note_on_c, 0, 81, 67
2, 52504, Note_on_c, 0, 76, 57
2, 52509, Note_on_c, 0, 85, 46
2, 52537, Note_on_c, 0, 81, 0
2, 52543, Note_on_c, 0, 85, 0
2, 52553, Note_on_c, 0, 88, 0
2, 52561, Note_on_c, 0, 76, 0
2, 52618, Note_on_c, 0, 55, 40
2, 52636, Note_on_c, 0, 55, 0
2, 52680, Note_on_c, 0, 64, 46
2, 52719, Note_on_c, 0, 64, 0
2, 52731, Note_on_c, 0, 76, 82
2, 52733, Note_on_c, 0, 69, 92
2, 52766, Note_on_c, 0, 69, 0
2, 52776, Note_on_c, 0, 76, 0
2, 52794, Note_on_c, 0, 76, 74
2, 52796, Note_on_c, 0, 71, 92
2, 52844, Note_on_c, 0, 71, 0
2, 52858, Note_on_c, 0, 73, 26
2, 52867, Note_on_c, 0, 76, 0
2, 52869, Note_on_c, 0, 73, 0
2, 52916, Note_on_c, 0, 55, 40
2, 52927, Note_on_c, 0, 55, 0
2, 52977, Note_on_c, 0, 59, 46
2, 53026, Note_on_c, 0, 59, 0
2, 53040, Note_on_c, 0, 61, 35
2, 53043, Note_on_c, 0, 64, 41
2, 53100, Note_on_c, 0, 61, 0
2, 53165, Note_on_c, 0, 57, 28
2, 53219, Note_on_c, 0, 64, 0
2, 53228, Note_on_c, 0, 50, 25
2, 53242, Note_on_c, 0, 57, 0
2, 53265, Note_on_c, 0, 50, 0
2, 53285, Control_c, 0, 64, 0
2, 53287, Note_on_c, 0, 43, 46
2, 53293, Note_on_c, 0, 51, 52
2, 53294, Note_on_c, 0, 62, 52
2, 53300, Note_on_c, 0, 51, 0
2, 53306, Note_on_c, 0, 62, 0
2, 53318, Control_c, 0, 64, 127
2, 53354, Note_on_c, 0, 74, 84
2, 53365, Note_on_c, 0, 43, 0
2, 53444, Note_on_c, 0, 63, 53
2, 53444, Note_on_c, 0, 67, 59
2, 53470, Note_on_c, 0, 63, 0
2, 53474, Note_on_c, 0, 67, 0
2, 53507, Note_on_c, 0, 74, 0
2, 53518, Note_on_c, 0, 74, 28
2, 53521, Note_on_c, 0, 63, 70
2, 53524, Note_on_c, 0, 67, 71
2, 53529, Note_on_c, 0, 60, 83
2, 53532, Control_c, 0, 64, 0
2, 53538, Note_on_c, 0, 60, 0
2, 53581, Note_on_c, 0, 63, 0
2, 53585, Note_on_c, 0, 67, 0
2, 53602, Note_on_c, 0, 63, 39
2, 53604, Note_on_c, 0, 67, 58
2, 53606, Note_on_c, 0, 59, 66
2, 53623, Note_on_c, 0, 59, 0
2, 53628, Note_on_c, 0, 67, 0
2, 53628, Note_on_c, 0, 63, 0
2, 53649, Control_c, 0, 64, 127
2, 53662, Control_c, 0, 64, 0
2, 53697, Control_c, 0, 64, 127
2, 53698, Note_on_c, 0, 63, 44
2, 53699, Note_on_c, 0, 67, 52
2, 53700, Note_on_c, 0, 60, 63
2, 53726, Note_on_c, 0, 67, 0
2, 53726, Note_on_c, 0, 63, 0
2, 53743, Note_on_c, 0, 74, 0
2, 53753, Control_c, 0, 64, 0
2, 53761, Note_on_c, 0, 60, 0
2, 53762, Note_on_c, 0, 74, 58
2, 53766, Note_on_c, 0, 63, 49
2, 53767, Note_on_c, 0, 67, 65
2, 53769, Note_on_c, 0, 62, 54
2, 53777, Control_c, 0, 64, 127
2, 53848, Note_on_c, 0, 63, 0
2, 53854, Note_on_c, 0, 67, 0
2, 53866, Note_on_c, 0, 62, 0
2, 53869, Note_on_c, 0, 74, 0
2, 53876, Note_on_c, 0, 63, 31
2, 53877, Note_on_c, 0, 72, 43
2, 53882, Note_on_c, 0, 67, 36
2, 53883, Note_on_c, 0, 60, 37
2, 53898, Note_on_c, 0, 60, 0
2, 53911, Note_on_c, 0, 67, 0
2, 53960, Note_on_c, 0, 63, 0
2, 53993, Note_on_c, 0, 72, 0
2, 53996, Note_on_c, 0, 67, 55
2, 53997, Note_on_c, 0, 63, 35
2, 54046, Note_on_c, 0, 67, 0
2, 54049, Note_on_c, 0, 63, 0
2, 54056, Note_on_c, 0, 55, 57
2, 54116, Note_on_c, 0, 67, 76
2, 54171, Note_on_c, 0, 50, 36
2, 54172, Note_on_c, 0, 67, 0
2, 54183, Note_on_c, 0, 62, 29
2, 54225, Note_on_c, 0, 50, 0
2, 54227, Note_on_c, 0, 62, 0
2, 54238, Note_on_c, 0, 66, 77
2, 54243, Note_on_c, 0, 43, 43
2, 54245, Control_c, 0, 64, 0
2, 54295, Control_c, 0, 64, 127
2, 54302, Note_on_c, 0, 59, 44
2, 54315, Note_on_c, 0, 59, 0
2, 54363, Note_on_c, 0, 55, 0
2, 54366, Note_on_c, 0, 59, 27
2, 54381, Note_on_c, 0, 43, 0
2, 54388, Note_on_c, 0, 59, 0
2, 54421, Note_on_c, 0, 63, 53
2, 54423, Note_on_c, 0, 59, 57
2, 54424, Note_on_c, 0, 54, 64
2, 54437, Control_c, 0, 64, 0
2, 54470, Control_c, 0, 64, 127
2, 54511, Note_on_c, 0, 59, 0
2, 54519, Note_on_c, 0, 63, 0
2, 54541, Note_on_c, 0, 59, 39
2, 54542, Note_on_c, 0, 63, 26
2, 54561, Note_on_c, 0, 59, 0
2, 54561, Note_on_c, 0, 55, 70
2, 54565, Note_on_c, 0, 54, 0
2, 54567, Note_on_c, 0, 63, 0
2, 54604, Control_c, 0, 64, 0
2, 54618, Note_on_c, 0, 59, 58
2, 54622, Note_on_c, 0, 63, 36
2, 54639, Note_on_c, 0, 59, 0
2, 54642, Note_on_c, 0, 63, 0
2, 54678, Note_on_c, 0, 63, 48
2, 54680, Note_on_c, 0, 59, 55
2, 54681, Note_on_c, 0, 54, 64
2, 54695, Note_on_c, 0, 55, 0
2, 54703, Note_on_c, 0, 59, 0
2, 54704, Note_on_c, 0, 63, 0
2, 54743, Control_c, 0, 64, 127
2, 54784, Note_on_c, 0, 63, 37
2, 54786, Note_on_c, 0, 59, 43
2, 54790, Note_on_c, 0, 51, 53
2, 54794, Control_c, 0, 64, 0
2, 54810, Note_on_c, 0, 54, 0
2, 54827, Control_c, 0, 64, 127
2, 54831, Note_on_c, 0, 51, 0
2, 54877, Note_on_c, 0, 63, 0
2, 54878, Note_on_c, 0, 59, 0
2, 54899, Note_on_c, 0, 43, 46
2, 54939, Note_on_c, 0, 66, 0
2, 54953, Control_c, 0, 64, 0
2, 54958, Note_on_c, 0, 54, 56
2, 54958, Note_on_c, 0, 66, 57
2, 54959, Note_on_c, 0, 63, 50
2, 54962, Note_on_c, 0, 59, 51
2, 54977, Control_c, 0, 64, 127
2, 55003, Note_on_c, 0, 54, 0
2, 55041, Note_on_c, 0, 59, 0
2, 55043, Note_on_c, 0, 63, 0
2, 55051, Note_on_c, 0, 66, 0
2, 55071, Note_on_c, 0, 67, 65
2, 55073, Note_on_c, 0, 59, 54
2, 55074, Note_on_c, 0, 63, 38
2, 55074, Note_on_c, 0, 51, 28
2, 55074, Control_c, 0, 64, 0
2, 55077, Note_on_c, 0, 43, 0
2, 55102, Note_on_c, 0, 51, 0
2, 55114, Control_c, 0, 64, 127
2, 55128, Note_on_c, 0, 59, 0
2, 55135, Note_on_c, 0, 43, 42
2, 55142, Note_on_c, 0, 63, 0
2, 55147, Note_on_c, 0, 43, 0
2, 55150, Note_on_c, 0, 67, 0
2, 55195, Control_c, 0, 64, 0
2, 55196, Note_on_c, 0, 64, 42
2, 55199, Note_on_c, 0, 55, 43
2, 55200, Note_on_c, 0, 52, 36
2, 55201, Note_on_c, 0, 60, 42
2, 55233, Control_c, 0, 64, 127
2, 55238, Note_on_c, 0, 55, 0
2, 55257, Note_on_c, 0, 60, 0
2, 55260, Note_on_c, 0, 43, 45
2, 55267, Note_on_c, 0, 64, 0
2, 55280, Note_on_c, 0, 43, 0
2, 55289, Note_on_c, 0, 52, 0
2, 55326, Note_on_c, 0, 67, 24
2, 55336, Note_on_c, 0, 67, 0
2, 55381, Note_on_c, 0, 77, 60
2, 55382, Note_on_c, 0, 72, 49
2, 55387, Note_on_c, 0, 64, 44
2, 55387, Note_on_c, 0, 67, 31
2, 55444, Note_on_c, 0, 64, 0
2, 55460, Note_on_c, 0, 77, 0
2, 55469, Note_on_c, 0, 72, 0
2, 55472, Note_on_c, 0, 67, 0
2, 55549, Note_on_c, 0, 76, 72
2, 55551, Note_on_c, 0, 67, 70
2, 55551, Note_on_c, 0, 72, 62
2, 55553, Note_on_c, 0, 60, 65
2, 55564, Control_c, 0, 64, 0
2, 55579, Control_c, 0, 64, 127
2, 55584, Note_on_c, 0, 60, 0
2, 55591, Note_on_c, 0, 72, 0
2, 55596, Note_on_c, 0, 76, 0
2, 55604, Note_on_c, 0, 67, 0
2, 55630, Note_on_c, 0, 72, 40
2, 55637, Note_on_c, 0, 67, 49
2, 55638, Note_on_c, 0, 64, 40
2, 55638, Note_on_c, 0, 55, 40
2, 55652, Control_c, 0, 64, 0
2, 55663, Control_c, 0, 64, 127
2, 55670, Note_on_c, 0, 72, 0
2, 55674, Note_on_c, 0, 67, 0
2, 55683, Note_on_c, 0, 64, 0
2, 55750, Note_on_c, 0, 62, 70
2, 55750, Note_on_c, 0, 43, 41
2, 55751, Note_on_c, 0, 64, 65
2, 55767, Control_c, 0, 64, 0
2, 55794, Note_on_c, 0, 62, 0
2, 55802, Note_on_c, 0, 64, 0
2, 55809, Note_on_c, 0, 55, 0
2, 55818, Note_on_c, 0, 60, 58
2, 55822, Control_c, 0, 64, 127
2, 55870, Note_on_c, 0, 55, 53
2, 55908, Note_on_c, 0, 60, 0
2, 55923, Note_on_c, 0, 55, 0
2, 55960, Note_on_c, 0, 43, 0
2, 55980, Note_on_c, 0, 43, 53
2, 55984, Note_on_c, 0, 55, 52
2, 56012, Control_c, 0, 64, 0
2, 56014, Note_on_c, 0, 55, 0
2, 56034, Control_c, 0, 64, 127
2, 56054, Note_on_c, 0, 43, 0
2, 56055, Note_on_c, 0, 55, 31
2, 56096, Note_on_c, 0, 55, 0
2, 56104, Note_on_c, 0, 43, 48
2, 56159, Note_on_c, 0, 66, 76
2, 56160, Note_on_c, 0, 63, 67
2, 56161, Note_on_c, 0, 59, 66
2, 56171, Control_c, 0, 64, 0
2, 56190, Note_on_c, 0, 43, 0
2, 56219, Control_c, 0, 64, 127
2, 56227, Note_on_c, 0, 54, 69
2, 56241, Control_c, 0, 64, 0
2, 56281, Control_c, 0, 64, 127
2, 56340, Note_on_c, 0, 54, 0
2, 56343, Note_on_c, 0, 51, 50
2, 56389, Control_c, 0, 64, 0
2, 56401, Note_on_c, 0, 51, 0
2, 56410, Note_on_c, 0, 55, 77
2, 56460, Control_c, 0, 64, 127
2, 56486, Note_on_c, 0, 55, 0
2, 56491, Control_c, 0, 64, 0
2, 56535, Control_c, 0, 64, 127
2, 56571, Note_on_c, 0, 54, 64
2, 56583, Control_c, 0, 64, 0
2, 56619, Control_c, 0, 64, 127
2, 56668, Note_on_c, 0, 54, 0
2, 56681, Note_on_c, 0, 51, 35
2, 56704, Note_on_c, 0, 59, 0
2, 56721, Note_on_c, 0, 63, 0
2, 56729, Note_on_c, 0, 66, 0
2, 56742, Control_c, 0, 64, 0
2, 56743, Note_on_c, 0, 63, 70
2, 56744, Note_on_c, 0, 51, 0
2, 56744, Note_on_c, 0, 66, 72
2, 56745, Note_on_c, 0, 59, 73
2, 56748, Note_on_c, 0, 55, 70
2, 56791, Control_c, 0, 64, 127
2, 56815, Control_c, 0, 64, 0
2, 56824, Note_on_c, 0, 54, 51
2, 56825, Note_on_c, 0, 55, 0
2, 56859, Control_c, 0, 64, 127
2, 56941, Note_on_c, 0, 51, 32
2, 56943, Control_c, 0, 64, 0
2, 56960, Note_on_c, 0, 54, 0
2, 56969, Control_c, 0, 64, 127
2, 57018, Note_on_c, 0, 59, 0
2, 57020, Note_on_c, 0, 63, 0
2, 57022, Note_on_c, 0, 66, 0
2, 57042, Note_on_c, 0, 51, 0
2, 57055, Note_on_c, 0, 59, 36
2, 57056, Note_on_c, 0, 67, 51
2, 57058, Note_on_c, 0, 63, 25
2, 57074, Note_on_c, 0, 59, 0
2, 57089, Note_on_c, 0, 63, 0
2, 57090, Note_on_c, 0, 67, 0
2, 57118, Note_on_c, 0, 64, 46
2, 57122, Note_on_c, 0, 60, 37
2, 57122, Note_on_c, 0, 43, 30
2, 57126, Note_on_c, 0, 52, 22
2, 57130, Control_c, 0, 64, 0
2, 57153, Note_on_c, 0, 55, 1
2, 57168, Control_c, 0, 64, 127
2, 57193, Note_on_c, 0, 43, 0
2, 57232, Note_on_c, 0, 43, 37
2, 57258, Note_on_c, 0, 43, 0
2, 57276, Note_on_c, 0, 55, 0
2, 57298, Note_on_c, 0, 43, 43
2, 57364, Note_on_c, 0, 43, 0
2, 57389, Note_on_c, 0, 60, 0
2, 57395, Note_on_c, 0, 64, 0
2, 57412, Note_on_c, 0, 43, 36
2, 57457, Control_c, 0, 64, 0
2, 57470, Note_on_c, 0, 55, 31
2, 57480, Note_on_c, 0, 55, 0
2, 57492, Note_on_c, 0, 57, 43
2, 57502, Note_on_c, 0, 57, 0
2, 57525, Note_on_c, 0, 60, 57
2, 57547, Note_on_c, 0, 60, 0
2, 57553, Note_on_c, 0, 62, 45
2, 57567, Control_c, 0, 64, 127
2, 57577, Note_on_c, 0, 62, 0
2, 57584, Note_on_c, 0, 64, 47
2, 57593, Note_on_c, 0, 64, 0
2, 57605, Note_on_c, 0, 52, 0
2, 57609, Note_on_c, 0, 67, 70
2, 57629, Note_on_c, 0, 67, 0
2, 57638, Note_on_c, 0, 69, 65
2, 57646, Note_on_c, 0, 69, 0
2, 57668, Note_on_c, 0, 72, 51
2, 57691, Note_on_c, 0, 43, 0
2, 57696, Note_on_c, 0, 72, 0
2, 57698, Note_on_c, 0, 74, 40
2, 57729, Note_on_c, 0, 74, 0
2, 57737, Note_on_c, 0, 76, 34
2, 57762, Note_on_c, 0, 79, 66
2, 57763, Note_on_c, 0, 76, 0
2, 57794, Note_on_c, 0, 79, 0
2, 57796, Note_on_c, 0, 76, 64
2, 57800, Note_on_c, 0, 55, 52
2, 57806, Control_c, 0, 64, 0
2, 57823, Note_on_c, 0, 74, 53
2, 57826, Note_on_c, 0, 76, 0
2, 57872, Control_c, 0, 64, 127
2, 57887, Note_on_c, 0, 74, 0
2, 57893, Note_on_c, 0, 72, 46
2, 57896, Note_on_c, 0, 43, 27
2, 57913, Note_on_c, 0, 43, 0
2, 57920, Note_on_c, 0, 72, 0
2, 57935, Note_on_c, 0, 55, 0
2, 57958, Note_on_c, 0, 69, 48
2, 57960, Note_on_c, 0, 55, 38
2, 58004, Note_on_c, 0, 69, 0
2, 58014, Note_on_c, 0, 67, 54
2, 58021, Note_on_c, 0, 43, 36
2, 58029, Note_on_c, 0, 67, 0
2, 58039, Note_on_c, 0, 43, 0
2, 58054, Note_on_c, 0, 55, 0
2, 58076, Note_on_c, 0, 43, 44
2, 58162, Note_on_c, 0, 43, 0
2, 58188, Note_on_c, 0, 43, 45
2, 58258, Control_c, 0, 64, 0
2, 58258, Note_on_c, 0, 55, 43
2, 58258, Note_on_c, 0, 62, 44
2, 58260, Note_on_c, 0, 60, 55
2, 58261, Note_on_c, 0, 56, 37
2, 58265, Note_on_c, 0, 43, 0
2, 58286, Control_c, 0, 64, 127
2, 58315, Note_on_c, 0, 55, 0
2, 58328, Note_on_c, 0, 56, 0
2, 58341, Note_on_c, 0, 60, 0
2, 58365, Note_on_c, 0, 62, 0
2, 58382, Note_on_c, 0, 55, 42
2, 58392, Note_on_c, 0, 55, 0
2, 58492, Note_on_c, 0, 68, 77
2, 58520, Control_c, 0, 64, 0
2, 58524, Note_on_c, 0, 68, 0
2, 58554, Note_on_c, 0, 72, 45
2, 58554, Note_on_c, 0, 67, 58
2, 58600, Note_on_c, 0, 67, 0
2, 58616, Note_on_c, 0, 72, 0
2, 58618, Note_on_c, 0, 79, 64
2, 58635, Note_on_c, 0, 79, 0
2, 58676, Note_on_c, 0, 91, 80
2, 58678, Note_on_c, 0, 79, 34
2, 58684, Note_on_c, 0, 91, 0
2, 58687, Note_on_c, 0, 79, 0
2, 58748, Control_c, 0, 64, 127
2, 58758, Control_c, 0, 64, 0
2, 58793, Note_on_c, 0, 79, 58
2, 58794, Note_on_c, 0, 72, 48
2, 58796, Control_c, 0, 64, 127
2, 58797, Note_on_c, 0, 67, 54
2, 58841, Note_on_c, 0, 79, 0
2, 58845, Note_on_c, 0, 72, 0
2, 58854, Note_on_c, 0, 68, 36
2, 58856, Note_on_c, 0, 67, 0
2, 58866, Note_on_c, 0, 68, 0
2, 58913, Note_on_c, 0, 67, 44
2, 58915, Note_on_c, 0, 72, 37
2, 58955, Note_on_c, 0, 72, 0
2, 58970, Note_on_c, 0, 67, 0
2, 58973, Note_on_c, 0, 50, 33
2, 59018, Note_on_c, 0, 50, 0
2, 59027, Note_on_c, 0, 67, 54
2, 59030, Note_on_c, 0, 64, 41
2, 59039, Control_c, 0, 64, 0
2, 59042, Note_on_c, 0, 55, 26
2, 59092, Control_c, 0, 64, 127
2, 59094, Note_on_c, 0, 43, 38
2, 59103, Note_on_c, 0, 67, 0
2, 59119, Note_on_c, 0, 43, 0
2, 59124, Note_on_c, 0, 64, 0
2, 59144, Note_on_c, 0, 55, 0
2, 59154, Note_on_c, 0, 43, 43
2, 59218, Note_on_c, 0, 64, 49
2, 59220, Note_on_c, 0, 55, 35
2, 59221, Note_on_c, 0, 52, 34
2, 59223, Note_on_c, 0, 60, 36
2, 59233, Control_c, 0, 64, 0
2, 59270, Control_c, 0, 64, 127
2, 59310, Note_on_c, 0, 43, 0
2, 59312, Note_on_c, 0, 55, 0
2, 59314, Note_on_c, 0, 60, 0
2, 59324, Note_on_c, 0, 64, 0
2, 59342, Note_on_c, 0, 62, 66
2, 59343, Note_on_c, 0, 43, 45
2, 59344, Note_on_c, 0, 55, 35
2, 59348, Control_c, 0, 64, 0
2, 59366, Note_on_c, 0, 55, 0
2, 59372, Control_c, 0, 64, 127
2, 59386, Note_on_c, 0, 62, 0
2, 59417, Note_on_c, 0, 52, 0
2, 59461, Note_on_c, 0, 72, 73
2, 59463, Note_on_c, 0, 64, 80
2, 59467, Control_c, 0, 64, 0
2, 59469, Note_on_c, 0, 52, 46
2, 59477, Note_on_c, 0, 43, 0
2, 59491, Note_on_c, 0, 52, 0
2, 59495, Control_c, 0, 64, 127
2, 59580, Note_on_c, 0, 55, 48
2, 59584, Note_on_c, 0, 64, 0
2, 59639, Note_on_c, 0, 67, 46
2, 59639, Note_on_c, 0, 64, 36
2, 59672, Note_on_c, 0, 64, 0
2, 59697, Note_on_c, 0, 67, 0
2, 59705, Note_on_c, 0, 60, 57
2, 59749, Note_on_c, 0, 72, 0
2, 59766, Note_on_c, 0, 64, 36
2, 59782, Note_on_c, 0, 60, 0
2, 59817, Note_on_c, 0, 64, 0
2, 59822, Note_on_c, 0, 60, 56
2, 59845, Note_on_c, 0, 60, 0
2, 59856, Note_on_c, 0, 55, 0
2, 59881, Note_on_c, 0, 72, 45
2, 59881, Note_on_c, 0, 64, 59
2, 59882, Note_on_c, 0, 67, 59
2, 59914, Note_on_c, 0, 64, 0
2, 59928, Note_on_c, 0, 67, 0
2, 59935, Note_on_c, 0, 72, 0
2, 59944, Note_on_c, 0, 55, 60
2, 59951, Note_on_c, 0, 55, 0
2, 59998, Note_on_c, 0, 72, 72
2, 60000, Note_on_c, 0, 74, 73
2, 60001, Note_on_c, 0, 67, 85
2, 60001, Note_on_c, 0, 68, 70
2, 60018, Control_c, 0, 64, 0
2, 60064, Note_on_c, 0, 62, 60
2, 60090, Note_on_c, 0, 67, 0
2, 60115, Note_on_c, 0, 62, 0
2, 60115, Control_c, 0, 64, 127
2, 60122, Note_on_c, 0, 67, 49
2, 60123, Note_on_c, 0, 68, 0
2, 60148, Note_on_c, 0, 67, 0
2, 60178, Note_on_c, 0, 74, 0
2, 60178, Note_on_c, 0, 72, 0
2, 60182, Note_on_c, 0, 68, 71
2, 60228, Control_c, 0, 64, 0
2, 60231, Note_on_c, 0, 68, 0
2, 60238, Note_on_c, 0, 67, 56
2, 60238, Note_on_c, 0, 74, 41
2, 60239, Note_on_c, 0, 72, 34
2, 60287, Note_on_c, 0, 67, 0
2, 60299, Note_on_c, 0, 79, 61
2, 60320, Note_on_c, 0, 74, 0
2, 60321, Note_on_c, 0, 79, 0
2, 60321, Note_on_c, 0, 72, 0
2, 60334, Control_c, 0, 64, 127
2, 60351, Note_on_c, 0, 62, 62
2, 60358, Control_c, 0, 64, 0
2, 60410, Note_on_c, 0, 68, 56
2, 60410, Note_on_c, 0, 74, 72
2, 60410, Note_on_c, 0, 67, 68
2, 60412, Note_on_c, 0, 62, 0
2, 60415, Control_c, 0, 64, 127
2, 60464, Control_c, 0, 64, 0
2, 60471, Control_c, 0, 64, 127
2, 60503, Note_on_c, 0, 68, 0
2, 60503, Note_on_c, 0, 74, 0
2, 60518, Note_on_c, 0, 67, 0
2, 60531, Note_on_c, 0, 72, 40
2, 60532, Note_on_c, 0, 65, 55
2, 60545, Note_on_c, 0, 56, 25
2, 60563, Control_c, 0, 64, 0
2, 60587, Control_c, 0, 64, 127
2, 60598, Note_on_c, 0, 68, 4
2, 60603, Note_on_c, 0, 60, 13
2, 60604, Note_on_c, 0, 56, 0
2, 60635, Note_on_c, 0, 65, 0
2, 60637, Note_on_c, 0, 60, 0
2, 60654, Note_on_c, 0, 53, 37
2, 60658, Note_on_c, 0, 68, 0
2, 60668, Note_on_c, 0, 72, 0
2, 60685, Note_on_c, 0, 53, 0
2, 60712, Note_on_c, 0, 72, 37
2, 60714, Note_on_c, 0, 56, 33
2, 60715, Note_on_c, 0, 67, 50
2, 60720, Note_on_c, 0, 68, 33
2, 60751, Note_on_c, 0, 67, 0
2, 60751, Note_on_c, 0, 56, 0
2, 60756, Note_on_c, 0, 72, 0
2, 60756, Note_on_c, 0, 68, 0
2, 60838, Note_on_c, 0, 76, 85
2, 60840, Note_on_c, 0, 67, 91
2, 60878, Note_on_c, 0, 76, 0
2, 60888, Note_on_c, 0, 67, 0
2, 60902, Note_on_c, 0, 56, 27
2, 60909, Note_on_c, 0, 56, 0
2, 60966, Note_on_c, 0, 67, 54
2, 60967, Note_on_c, 0, 64, 49
2, 60968, Note_on_c, 0, 72, 33
2, 60971, Control_c, 0, 64, 0
2, 60972, Note_on_c, 0, 43, 42
2, 60998, Control_c, 0, 64, 127
2, 61019, Note_on_c, 0, 64, 0
2, 61029, Note_on_c, 0, 55, 36
2, 61044, Note_on_c, 0, 67, 0
2, 61052, Note_on_c, 0, 72, 0
2, 61058, Note_on_c, 0, 55, 0
2, 61155, Note_on_c, 0, 67, 38
2, 61157, Note_on_c, 0, 64, 27
2, 61158, Note_on_c, 0, 60, 34
2, 61161, Note_on_c, 0, 55, 24
2, 61174, Control_c, 0, 64, 0
2, 61181, Control_c, 0, 64, 127
2, 61213, Note_on_c, 0, 55, 0
2, 61225, Note_on_c, 0, 43, 0
2, 61247, Note_on_c, 0, 60, 0
2, 61258, Note_on_c, 0, 64, 0
2, 61267, Note_on_c, 0, 43, 40
2, 61268, Note_on_c, 0, 67, 0
2, 61293, Note_on_c, 0, 43, 0
2, 61326, Note_on_c, 0, 67, 44
2, 61375, Note_on_c, 0, 67, 0
2, 61386, Note_on_c, 0, 74, 72
2, 61418, Note_on_c, 0, 74, 0
2, 61446, Note_on_c, 0, 74, 64
2, 61455, Note_on_c, 0, 67, 48
2, 61457, Note_on_c, 0, 63, 35
2, 61458, Note_on_c, 0, 59, 45
2, 61461, Control_c, 0, 64, 0
2, 61490, Control_c, 0, 64, 127
2, 61532, Note_on_c, 0, 59, 0
2, 61554, Note_on_c, 0, 72, 42
2, 61556, Note_on_c, 0, 55, 33
2, 61559, Note_on_c, 0, 74, 0
2, 61591, Note_on_c, 0, 67, 0
2, 61612, Note_on_c, 0, 63, 0
2, 61629, Note_on_c, 0, 63, 21
2, 61631, Note_on_c, 0, 67, 40
2, 61649, Note_on_c, 0, 55, 0
2, 61735, Note_on_c, 0, 55, 34
2, 61754, Note_on_c, 0, 63, 0
2, 61790, Note_on_c, 0, 67, 0
2, 61792, Note_on_c, 0, 72, 0
2, 61792, Note_on_c, 0, 63, 34
2, 61815, Note_on_c, 0, 63, 0
2, 61848, Note_on_c, 0, 60, 38
2, 61886, Note_on_c, 0, 60, 0
2, 61893, Note_on_c, 0, 55, 0
2, 61905, Note_on_c, 0, 59, 35
2, 61906, Note_on_c, 0, 50, 19
2, 61914, Note_on_c, 0, 43, 36
2, 61933, Control_c, 0, 64, 0
2, 61966, Control_c, 0, 64, 127
2, 62027, Note_on_c, 0, 55, 36
2, 62036, Note_on_c, 0, 43, 0
2, 62039, Note_on_c, 0, 55, 0
2, 62083, Note_on_c, 0, 59, 0
2, 62090, Note_on_c, 0, 50, 0
2, 62096, Note_on_c, 0, 43, 36
2, 62099, Note_on_c, 0, 60, 48
2, 62099, Note_on_c, 0, 52, 31
2, 62104, Note_on_c, 0, 55, 17
2, 62112, Control_c, 0, 64, 0
2, 62160, Control_c, 0, 64, 127
2, 62202, Note_on_c, 0, 43, 0
2, 62210, Note_on_c, 0, 55, 0
2, 62225, Note_on_c, 0, 43, 44
2, 62307, Note_on_c, 0, 52, 0
2, 62319, Note_on_c, 0, 43, 0
2, 62349, Note_on_c, 0, 43, 39
2, 62372, Note_on_c, 0, 43, 0
2, 62384, Note_on_c, 0, 60, 0
2, 62463, Note_on_c, 0, 54, 72
2, 62463, Note_on_c, 0, 62, 71
2, 62466, Note_on_c, 0, 59, 68
2, 62466, Note_on_c, 0, 55, 69
2, 62480, Control_c, 0, 64, 0
2, 62516, Control_c, 0, 64, 127
2, 62561, Note_on_c, 0, 54, 0
2, 62572, Note_on_c, 0, 55, 0
2, 62583, Note_on_c, 0, 43, 36
2, 62609, Note_on_c, 0, 59, 0
2, 62618, Note_on_c, 0, 62, 0
2, 62644, Note_on_c, 0, 55, 52
2, 62646, Note_on_c, 0, 64, 43
2, 62648, Note_on_c, 0, 60, 50
2, 62648, Note_on_c, 0, 52, 36
2, 62648, Control_c, 0, 64, 0
2, 62677, Note_on_c, 0, 43, 0
2, 62688, Control_c, 0, 64, 127
2, 62748, Note_on_c, 0, 55, 0
2, 62759, Note_on_c, 0, 43, 42
2, 62767, Note_on_c, 0, 60, 0
2, 62781, Note_on_c, 0, 43, 0
2, 62796, Note_on_c, 0, 64, 0
2, 62824, Note_on_c, 0, 43, 32
2, 62849, Note_on_c, 0, 52, 0
2, 62889, Note_on_c, 0, 66, 56
2, 62892, Note_on_c, 0, 55, 55
2, 62893, Note_on_c, 0, 59, 59
2, 62894, Note_on_c, 0, 63, 44
2, 62895, Note_on_c, 0, 51, 36
2, 62900, Control_c, 0, 64, 0
2, 62941, Control_c, 0, 64, 127
2, 62959, Note_on_c, 0, 43, 0
2, 62992, Note_on_c, 0, 55, 0
2, 62994, Note_on_c, 0, 59, 0
2, 62995, Note_on_c, 0, 43, 36
2, 63007, Note_on_c, 0, 63, 0
2, 63028, Note_on_c, 0, 66, 0
2, 63053, Note_on_c, 0, 51, 0
2, 63070, Note_on_c, 0, 67, 54
2, 63071, Note_on_c, 0, 59, 47
2, 63072, Note_on_c, 0, 64, 40
2, 63074, Note_on_c, 0, 62, 47
2, 63076, Control_c, 0, 64, 0
2, 63077, Note_on_c, 0, 52, 38
2, 63116, Control_c, 0, 64, 127
2, 63118, Note_on_c, 0, 43, 0
2, 63184, Note_on_c, 0, 43, 55
2, 63191, Note_on_c, 0, 59, 0
2, 63224, Note_on_c, 0, 52, 0
2, 63236, Note_on_c, 0, 67, 0
2, 63236, Note_on_c, 0, 62, 0
2, 63240, Note_on_c, 0, 64, 0
2, 63248, Note_on_c, 0, 59, 36
2, 63264, Note_on_c, 0, 59, 0
2, 63304, Note_on_c, 0, 54, 46
2, 63306, Note_on_c, 0, 69, 60
2, 63307, Note_on_c, 0, 63, 59
2, 63307, Note_on_c, 0, 66, 53
2, 63310, Control_c, 0, 64, 0
2, 63317, Note_on_c, 0, 59, 30
2, 63318, Note_on_c, 0, 57, 32
2, 63329, Note_on_c, 0, 57, 0
2, 63346, Note_on_c, 0, 43, 0
2, 63348, Control_c, 0, 64, 127
2, 63424, Note_on_c, 0, 43, 47
2, 63441, Note_on_c, 0, 59, 0
2, 63457, Note_on_c, 0, 43, 0
2, 63484, Note_on_c, 0, 59, 36
2, 63530, Note_on_c, 0, 59, 0
2, 63531, Note_on_c, 0, 54, 0
2, 63539, Note_on_c, 0, 69, 0
2, 63540, Note_on_c, 0, 43, 50
2, 63561, Note_on_c, 0, 63, 0
2, 63578, Note_on_c, 0, 66, 0
2, 63600, Note_on_c, 0, 71, 50
2, 63601, Control_c, 0, 64, 0
2, 63602, Note_on_c, 0, 52, 44
2, 63604, Note_on_c, 0, 62, 43
2, 63636, Control_c, 0, 64, 127
2, 63689, Note_on_c, 0, 62, 0
2, 63719, Note_on_c, 0, 43, 0
2, 63722, Note_on_c, 0, 62, 29
2, 63729, Note_on_c, 0, 71, 0
2, 63749, Note_on_c, 0, 62, 0
2, 63781, Note_on_c, 0, 43, 42
2, 63784, Note_on_c, 0, 52, 0
2, 63830, Control_c, 0, 64, 0
2, 63834, Note_on_c, 0, 73, 42
2, 63836, Note_on_c, 0, 69, 62
2, 63836, Note_on_c, 0, 64, 54
2, 63839, Note_on_c, 0, 55, 48
2, 63840, Note_on_c, 0, 43, 0
2, 63853, Control_c, 0, 64, 127
2, 63899, Note_on_c, 0, 73, 0
2, 63902, Note_on_c, 0, 69, 0
2, 63902, Note_on_c, 0, 76, 73
2, 63924, Note_on_c, 0, 64, 0
2, 63946, Note_on_c, 0, 76, 0
2, 63957, Note_on_c, 0, 76, 64
2, 63958, Note_on_c, 0, 71, 81
2, 63958, Note_on_c, 0, 73, 56
2, 63989, Note_on_c, 0, 55, 0
2, 64016, Note_on_c, 0, 71, 0
2, 64023, Note_on_c, 0, 69, 44
2, 64041, Note_on_c, 0, 73, 0
2, 64071, Note_on_c, 0, 76, 0
2, 64077, Note_on_c, 0, 69, 0
2, 64142, Note_on_c, 0, 52, 42
2, 64152, Note_on_c, 0, 52, 0
2, 64200, Note_on_c, 0, 61, 29
2, 64200, Note_on_c, 0, 59, 38
2, 64206, Note_on_c, 0, 64, 48
2, 64262, Note_on_c, 0, 59, 0
2, 64264, Note_on_c, 0, 61, 0
2, 64264, Note_on_c, 0, 52, 24
2, 64273, Note_on_c, 0, 52, 0
2, 64301, Note_on_c, 0, 64, 0
2, 64319, Note_on_c, 0, 61, 25
2, 64325, Note_on_c, 0, 55, 40
2, 64327, Note_on_c, 0, 59, 31
2, 64432, Note_on_c, 0, 55, 0
2, 64439, Note_on_c, 0, 43, 52
2, 64444, Control_c, 0, 64, 0
2, 64503, Note_on_c, 0, 31, 73
2, 64525, Control_c, 0, 64, 127
2, 64531, Note_on_c, 0, 59, 0
2, 64587, Note_on_c, 0, 31, 0
2, 64592, Note_on_c, 0, 61, 0
2, 64618, Note_on_c, 0, 31, 58
2, 64641, Note_on_c, 0, 31, 0
2, 64659, Note_on_c, 0, 43, 0
2, 64680, Note_on_c, 0, 67, 45
2, 64728, Note_on_c, 0, 67, 0
2, 64741, Note_on_c, 0, 74, 80
2, 64743, Note_on_c, 0, 67, 85
2, 64744, Note_on_c, 0, 63, 71
2, 64744, Note_on_c, 0, 59, 85
2, 64755, Control_c, 0, 64, 0
2, 64797, Control_c, 0, 64, 127
2, 64805, Note_on_c, 0, 74, 0
2, 64811, Note_on_c, 0, 63, 0
2, 64821, Note_on_c, 0, 67, 0
2, 64826, Note_on_c, 0, 74, 59
2, 64829, Note_on_c, 0, 63, 47
2, 64830, Note_on_c, 0, 67, 32
2, 64899, Note_on_c, 0, 63, 0
2, 64903, Note_on_c, 0, 67, 0
2, 64907, Note_on_c, 0, 74, 0
2, 64915, Note_on_c, 0, 59, 0
2, 64916, Note_on_c, 0, 72, 40
2, 64917, Note_on_c, 0, 63, 44
2, 64918, Note_on_c, 0, 57, 37
2, 64919, Note_on_c, 0, 67, 24
2, 64921, Control_c, 0, 64, 0
2, 64951, Control_c, 0, 64, 127
2, 64977, Note_on_c, 0, 63, 0
2, 64980, Note_on_c, 0, 67, 0
2, 64985, Note_on_c, 0, 72, 0
2, 64987, Note_on_c, 0, 57, 0
2, 64998, Note_on_c, 0, 74, 64
2, 64998, Note_on_c, 0, 63, 37
2, 65002, Note_on_c, 0, 67, 58
2, 65006, Control_c, 0, 64, 0
2, 65044, Control_c, 0, 64, 127
2, 65081, Note_on_c, 0, 63, 0
2, 65090, Note_on_c, 0, 67, 0
2, 65096, Note_on_c, 0, 74, 0
2, 65102, Note_on_c, 0, 63, 34
2, 65102, Note_on_c, 0, 72, 38
2, 65103, Note_on_c, 0, 60, 51
2, 65105, Note_on_c, 0, 67, 31
2, 65121, Control_c, 0, 64, 0
2, 65176, Control_c, 0, 64, 127
2, 65217, Note_on_c, 0, 60, 0
2, 65223, Note_on_c, 0, 59, 67
2, 65240, Control_c, 0, 64, 0
2, 65262, Control_c, 0, 64, 127
2, 65336, Note_on_c, 0, 59, 0
2, 65337, Note_on_c, 0, 55, 42
2, 65337, Control_c, 0, 64, 0
2, 65355, Note_on_c, 0, 63, 0
2, 65373, Control_c, 0, 64, 127
2, 65382, Note_on_c, 0, 55, 0
2, 65398, Note_on_c, 0, 63, 33
2, 65458, Note_on_c, 0, 50, 43
2, 65467, Note_on_c, 0, 67, 0
2, 65473, Note_on_c, 0, 63, 0
2, 65510, Note_on_c, 0, 50, 0
2, 65515, Note_on_c, 0, 67, 52
2, 65516, Note_on_c, 0, 63, 38
2, 65526, Note_on_c, 0, 72, 0
2, 65597, Note_on_c, 0, 63, 0
2, 65627, Note_on_c, 0, 67, 0
2, 65632, Note_on_c, 0, 71, 45
2, 65678, Note_on_c, 0, 71, 0
2, 65696, Note_on_c, 0, 72, 32
2, 65737, Note_on_c, 0, 72, 0
2, 65754, Control_c, 0, 64, 0
2, 65757, Note_on_c, 0, 43, 36
2, 65759, Note_on_c, 0, 74, 58
2, 65781, Control_c, 0, 64, 127
2, 65842, Note_on_c, 0, 43, 0
2, 65939, Note_on_c, 0, 59, 42
2, 65991, Note_on_c, 0, 74, 0
2, 66044, Note_on_c, 0, 59, 0
2, 66059, Note_on_c, 0, 62, 26
2, 66099, Note_on_c, 0, 62, 0
2, 66113, Note_on_c, 0, 66, 28
2, 66161, Note_on_c, 0, 66, 0
2, 66173, Note_on_c, 0, 71, 51
2, 66217, Note_on_c, 0, 71, 0
2, 66232, Note_on_c, 0, 67, 43
2, 66232, Note_on_c, 0, 43, 40
2, 66234, Note_on_c, 0, 62, 31
2, 66236, Note_on_c, 0, 64, 40
2, 66244, Control_c, 0, 64, 0
2, 66285, Control_c, 0, 64, 127
2, 66321, Note_on_c, 0, 43, 0
2, 66340, Note_on_c, 0, 67, 0
2, 66342, Note_on_c, 0, 64, 0
2, 66347, Note_on_c, 0, 43, 37
2, 66355, Note_on_c, 0, 62, 0
2, 66419, Note_on_c, 0, 59, 38
2, 66420, Note_on_c, 0, 64, 44
2, 66421, Note_on_c, 0, 62, 35
2, 66422, Note_on_c, 0, 55, 37
2, 66432, Control_c, 0, 64, 0
2, 66452, Control_c, 0, 64, 127
2, 66486, Note_on_c, 0, 43, 0
2, 66509, Note_on_c, 0, 59, 0
2, 66543, Note_on_c, 0, 43, 44
2, 66548, Note_on_c, 0, 62, 0
2, 66556, Note_on_c, 0, 64, 0
2, 66571, Note_on_c, 0, 43, 0
2, 66643, Note_on_c, 0, 55, 0
2, 66660, Note_on_c, 0, 43, 39
2, 66679, Note_on_c, 0, 43, 0
2, 66720, Note_on_c, 0, 71, 62
2, 66724, Note_on_c, 0, 63, 60
2, 66724, Note_on_c, 0, 67, 64
2, 66733, Note_on_c, 0, 55, 36
2, 66738, Control_c, 0, 64, 0
2, 66739, Note_on_c, 0, 60, 17
2, 66780, Control_c, 0, 64, 127
2, 66812, Note_on_c, 0, 55, 0
2, 66854, Note_on_c, 0, 55, 40
2, 66866, Note_on_c, 0, 60, 0
2, 66871, Note_on_c, 0, 55, 0
2, 66923, Note_on_c, 0, 55, 51
2, 66944, Note_on_c, 0, 55, 0
2, 67034, Note_on_c, 0, 55, 43
2, 67040, Note_on_c, 0, 67, 0
2, 67048, Note_on_c, 0, 55, 0
2, 67062, Note_on_c, 0, 63, 0
2, 67080, Note_on_c, 0, 71, 0
2, 67140, Note_on_c, 0, 69, 50
2, 67142, Note_on_c, 0, 63, 35
2, 67144, Note_on_c, 0, 60, 36
2, 67144, Note_on_c, 0, 67, 48
2, 67148, Note_on_c, 0, 55, 36
2, 67153, Control_c, 0, 64, 0
2, 67189, Control_c, 0, 64, 127
2, 67209, Note_on_c, 0, 55, 0
2, 67269, Note_on_c, 0, 55, 45
2, 67292, Note_on_c, 0, 55, 0
2, 67300, Note_on_c, 0, 60, 0
2, 67368, Note_on_c, 0, 63, 0
2, 67378, Note_on_c, 0, 67, 0
2, 67382, Note_on_c, 0, 69, 0
2, 67385, Note_on_c, 0, 55, 53
2, 67401, Note_on_c, 0, 55, 0
2, 67444, Note_on_c, 0, 55, 51
2, 67446, Note_on_c, 0, 69, 36
2, 67489, Note_on_c, 0, 55, 0
2, 67491, Note_on_c, 0, 69, 0
2, 67501, Note_on_c, 0, 71, 67
2, 67503, Note_on_c, 0, 63, 34
2, 67506, Note_on_c, 0, 60, 50
2, 67514, Note_on_c, 0, 55, 28
2, 67522, Note_on_c, 0, 60, 0
2, 67523, Note_on_c, 0, 63, 0
2, 67535, Note_on_c, 0, 71, 0
2, 67559, Note_on_c, 0, 72, 77
2, 67565, Note_on_c, 0, 55, 0
2, 67591, Note_on_c, 0, 72, 0
2, 67616, Note_on_c, 0, 72, 68
2, 67623, Note_on_c, 0, 55, 30
2, 67631, Note_on_c, 0, 55, 0
2, 67643, Note_on_c, 0, 72, 0
2, 67674, Note_on_c, 0, 74, 72
2, 67675, Note_on_c, 0, 66, 53
2, 67677, Note_on_c, 0, 71, 45
2, 67680, Note_on_c, 0, 69, 51
2, 67683, Control_c, 0, 64, 0
2, 67683, Note_on_c, 0, 55, 56
2, 67718, Control_c, 0, 64, 127
2, 67753, Note_on_c, 0, 69, 0
2, 67754, Note_on_c, 0, 66, 0
2, 67755, Note_on_c, 0, 71, 0
2, 67770, Note_on_c, 0, 74, 0
2, 67788, Note_on_c, 0, 62, 24
2, 67862, Note_on_c, 0, 78, 75
2, 67867, Note_on_c, 0, 67, 58
2, 67920, Note_on_c, 0, 62, 0
2, 67922, Note_on_c, 0, 67, 0
2, 67945, Note_on_c, 0, 74, 62
2, 67947, Note_on_c, 0, 69, 46
2, 67947, Note_on_c, 0, 71, 53
2, 68000, Note_on_c, 0, 78, 0
2, 68012, Note_on_c, 0, 74, 0
2, 68014, Note_on_c, 0, 71, 0
2, 68024, Note_on_c, 0, 55, 0
2, 68027, Note_on_c, 0, 62, 27
2, 68029, Note_on_c, 0, 69, 0
2, 68037, Note_on_c, 0, 62, 0
2, 68097, Note_on_c, 0, 71, 50
2, 68103, Note_on_c, 0, 66, 36
2, 68107, Note_on_c, 0, 62, 19
2, 68108, Note_on_c, 0, 55, 35
2, 68122, Control_c, 0, 64, 0
2, 68144, Control_c, 0, 64, 127
2, 68185, Note_on_c, 0, 71, 0
2, 68189, Note_on_c, 0, 66, 0
2, 68215, Note_on_c, 0, 62, 0
2, 68224, Note_on_c, 0, 43, 39
2, 68238, Note_on_c, 0, 55, 0
2, 68283, Note_on_c, 0, 66, 27
2, 68288, Note_on_c, 0, 57, 26
2, 68289, Note_on_c, 0, 62, 27
2, 68290, Note_on_c, 0, 59, 33
2, 68346, Note_on_c, 0, 55, 48
2, 68385, Note_on_c, 0, 57, 0
2, 68396, Note_on_c, 0, 55, 0
2, 68462, Note_on_c, 0, 55, 64
2, 68499, Note_on_c, 0, 59, 0
2, 68504, Note_on_c, 0, 62, 0
2, 68525, Note_on_c, 0, 66, 0
2, 68528, Note_on_c, 0, 55, 0
2, 68572, Note_on_c, 0, 43, 0
2, 68579, Note_on_c, 0, 55, 39
2, 68593, Note_on_c, 0, 55, 0
2, 68637, Note_on_c, 0, 71, 68
2, 68640, Note_on_c, 0, 67, 54
2, 68645, Note_on_c, 0, 63, 34
2, 68647, Note_on_c, 0, 62, 48
2, 68651, Control_c, 0, 64, 0
2, 68654, Note_on_c, 0, 55, 17
2, 68693, Note_on_c, 0, 55, 0
2, 68700, Control_c, 0, 64, 127
2, 68750, Note_on_c, 0, 55, 37
2, 68772, Note_on_c, 0, 55, 0
2, 68824, Note_on_c, 0, 55, 46
2, 68845, Note_on_c, 0, 62, 0
2, 68853, Note_on_c, 0, 55, 0
2, 68854, Note_on_c, 0, 71, 0
2, 68855, Note_on_c, 0, 63, 0
2, 68857, Note_on_c, 0, 67, 0
2, 68934, Note_on_c, 0, 72, 67
2, 68958, Note_on_c, 0, 72, 0
2, 69013, Note_on_c, 0, 60, 47
2, 69014, Note_on_c, 0, 69, 53
2, 69016, Note_on_c, 0, 67, 45
2, 69016, Note_on_c, 0, 63, 34
2, 69018, Note_on_c, 0, 55, 47
2, 69028, Control_c, 0, 64, 0
2, 69036, Note_on_c, 0, 55, 0
2, 69050, Control_c, 0, 64, 127
2, 69070, Note_on_c, 0, 69, 0
2, 69074, Note_on_c, 0, 60, 0
2, 69081, Note_on_c, 0, 63, 0
2, 69082, Note_on_c, 0, 67, 0
2, 69098, Note_on_c, 0, 69, 42
2, 69099, Note_on_c, 0, 60, 48
2, 69099, Note_on_c, 0, 63, 27
2, 69101, Control_c, 0, 64, 0
2, 69103, Note_on_c, 0, 67, 35
2, 69104, Note_on_c, 0, 55, 40
2, 69121, Control_c, 0, 64, 127
2, 69197, Note_on_c, 0, 43, 43
2, 69217, Note_on_c, 0, 55, 0
2, 69248, Note_on_c, 0, 60, 0
2, 69310, Note_on_c, 0, 55, 53
2, 69326, Note_on_c, 0, 55, 0
2, 69340, Note_on_c, 0, 67, 0
2, 69347, Note_on_c, 0, 63, 0
2, 69349, Note_on_c, 0, 69, 0
2, 69366, Note_on_c, 0, 71, 61
2, 69368, Note_on_c, 0, 63, 46
2, 69368, Note_on_c, 0, 62, 52
2, 69371, Note_on_c, 0, 55, 39
2, 69372, Note_on_c, 0, 67, 54
2, 69378, Note_on_c, 0, 43, 0
2, 69409, Note_on_c, 0, 55, 0
2, 69409, Note_on_c, 0, 67, 0
2, 69415, Note_on_c, 0, 63, 0
2, 69415, Note_on_c, 0, 71, 0
2, 69435, Note_on_c, 0, 62, 0
2, 69487, Note_on_c, 0, 72, 53
2, 69490, Note_on_c, 0, 62, 57
2, 69509, Note_on_c, 0, 62, 0
2, 69518, Note_on_c, 0, 72, 0
2, 69602, Note_on_c, 0, 74, 68
2, 69604, Note_on_c, 0, 66, 53
2, 69605, Note_on_c, 0, 71, 64
2, 69607, Note_on_c, 0, 69, 60
2, 69609, Control_c, 0, 64, 0
2, 69609, Note_on_c, 0, 55, 55
2, 69642, Control_c, 0, 64, 127
2, 69692, Note_on_c, 0, 55, 0
2, 69783, Note_on_c, 0, 55, 36
2, 69803, Note_on_c, 0, 55, 0
2, 69841, Note_on_c, 0, 55, 44
2, 69849, Note_on_c, 0, 55, 0
2, 69950, Note_on_c, 0, 31, 26
2, 69953, Note_on_c, 0, 43, 19
2, 69977, Note_on_c, 0, 31, 0
2, 69985, Note_on_c, 0, 43, 0
2, 70016, Note_on_c, 0, 69, 0
2, 70016, Note_on_c, 0, 74, 0
2, 70019, Note_on_c, 0, 43, 40
2, 70021, Note_on_c, 0, 71, 0
2, 70021, Note_on_c, 0, 31, 46
2, 70036, Note_on_c, 0, 66, 0
2, 70095, Note_on_c, 0, 43, 0
2, 70142, Note_on_c, 0, 67, 44
2, 70144, Note_on_c, 0, 59, 29
2, 70145, Note_on_c, 0, 43, 36
2, 70150, Note_on_c, 0, 62, 20
2, 70158, Control_c, 0, 64, 0
2, 70189, Control_c, 0, 64, 127
2, 70225, Note_on_c, 0, 31, 0
2, 70260, Note_on_c, 0, 31, 45
2, 70283, Note_on_c, 0, 31, 0
2, 70288, Note_on_c, 0, 59, 0
2, 70320, Note_on_c, 0, 31, 41
2, 70336, Note_on_c, 0, 59, 26
2, 70362, Note_on_c, 0, 59, 0
2, 70375, Note_on_c, 0, 62, 0
2, 70392, Note_on_c, 0, 67, 0
2, 70401, Note_on_c, 0, 43, 0
2, 70439, Note_on_c, 0, 43, 41
2, 70458, Note_on_c, 0, 43, 0
2, 70495, Note_on_c, 0, 43, 39
2, 70509, Note_on_c, 0, 43, 0
2, 70555, Control_c, 0, 64, 0
2, 70556, Note_on_c, 0, 71, 60
2, 70558, Note_on_c, 0, 67, 55
2, 70558, Note_on_c, 0, 43, 44
2, 70560, Note_on_c, 0, 62, 60
2, 70560, Note_on_c, 0, 63, 49
2, 70602, Control_c, 0, 64, 127
2, 70631, Note_on_c, 0, 43, 0
2, 70734, Note_on_c, 0, 43, 40
2, 70753, Note_on_c, 0, 43, 0
2, 70799, Note_on_c, 0, 43, 35
2, 70835, Note_on_c, 0, 43, 0
2, 70853, Note_on_c, 0, 62, 0
2, 70865, Note_on_c, 0, 31, 0
2, 70891, Note_on_c, 0, 67, 0
2, 70893, Note_on_c, 0, 71, 0
2, 70901, Note_on_c, 0, 63, 0
2, 70919, Note_on_c, 0, 31, 22
2, 70930, Note_on_c, 0, 31, 0
2, 70967, Note_on_c, 0, 31, 38
2, 70988, Note_on_c, 0, 31, 0
2, 71034, Note_on_c, 0, 67, 55
2, 71038, Note_on_c, 0, 62, 35
2, 71038, Note_on_c, 0, 63, 38
2, 71039, Note_on_c, 0, 69, 45
2, 71039, Note_on_c, 0, 31, 40
2, 71045, Control_c, 0, 64, 0
2, 71045, Note_on_c, 0, 43, 22
2, 71100, Control_c, 0, 64, 127
2, 71138, Note_on_c, 0, 43, 0
2, 71163, Note_on_c, 0, 62, 0
2, 71225, Note_on_c, 0, 60, 44
2, 71230, Note_on_c, 0, 43, 31
2, 71280, Note_on_c, 0, 31, 0
2, 71310, Note_on_c, 0, 69, 0
2, 71317, Note_on_c, 0, 67, 0
2, 71326, Note_on_c, 0, 63, 0
2, 71345, Note_on_c, 0, 60, 0
2, 71352, Note_on_c, 0, 31, 35
2, 71363, Note_on_c, 0, 31, 0
2, 71364, Note_on_c, 0, 43, 0
2, 71525, Note_on_c, 0, 43, 39
2, 71535, Control_c, 0, 64, 0
2, 71572, Control_c, 0, 64, 127
2, 71640, Note_on_c, 0, 50, 25
2, 71704, Note_on_c, 0, 54, 40
2, 71709, Note_on_c, 0, 62, 40
2, 71713, Control_c, 0, 64, 0
2, 71714, Note_on_c, 0, 59, 42
2, 71715, Note_on_c, 0, 57, 32
2, 71749, Control_c, 0, 64, 127
2, 71805, Note_on_c, 0, 54, 0
2, 71807, Note_on_c, 0, 57, 0
2, 71816, Note_on_c, 0, 59, 0
2, 71828, Note_on_c, 0, 62, 0
2, 71878, Note_on_c, 0, 43, 0
2, 71945, Note_on_c, 0, 74, 65
2, 71949, Note_on_c, 0, 66, 43
2, 71950, Note_on_c, 0, 69, 46
2, 71950, Note_on_c, 0, 71, 36
2, 71954, Note_on_c, 0, 55, 49
2, 71957, Note_on_c, 0, 50, 0
2, 72044, Note_on_c, 0, 71, 0
2, 72045, Note_on_c, 0, 69, 0
2, 72046, Note_on_c, 0, 74, 0
2, 72049, Note_on_c, 0, 66, 0
2, 72063, Note_on_c, 0, 50, 51
2, 72067, Note_on_c, 0, 55, 0
2, 72113, Control_c, 0, 64, 0
2, 72146, Control_c, 0, 64, 127
2, 72174, Note_on_c, 0, 66, 37
2, 72179, Note_on_c, 0, 57, 35
2, 72179, Note_on_c, 0, 59, 36
2, 72181, Note_on_c, 0, 62, 32
2, 72182, Note_on_c, 0, 43, 33
2, 72192, Note_on_c, 0, 50, 0
2, 72207, Note_on_c, 0, 43, 0
2, 72230, Control_c, 0, 64, 0
2, 72240, Note_on_c, 0, 43, 40
2, 72272, Control_c, 0, 64, 127
2, 72358, Note_on_c, 0, 59, 0
2, 72360, Note_on_c, 0, 31, 35
2, 72363, Note_on_c, 0, 57, 0
2, 72369, Note_on_c, 0, 62, 0
2, 72370, Note_on_c, 0, 66, 0
2, 72376, Note_on_c, 0, 31, 0
2, 72419, Note_on_c, 0, 31, 48
2, 72440, Note_on_c, 0, 43, 0
2, 72479, Control_c, 0, 64, 0
2, 72480, Note_on_c, 0, 55, 41
2, 72481, Note_on_c, 0, 64, 37
2, 72483, Note_on_c, 0, 60, 47
2, 72487, Note_on_c, 0, 43, 28
2, 72505, Note_on_c, 0, 31, 0
2, 72508, Control_c, 0, 64, 127
2, 72521, Note_on_c, 0, 43, 0
2, 72569, Note_on_c, 0, 55, 0
2, 72589, Note_on_c, 0, 60, 0
2, 72601, Note_on_c, 0, 64, 0
2, 72602, Note_on_c, 0, 43, 31
2, 72638, Note_on_c, 0, 43, 0
2, 72670, Note_on_c, 0, 43, 49
2, 72775, Note_on_c, 0, 62, 71
2, 72778, Note_on_c, 0, 63, 50
2, 72782, Note_on_c, 0, 55, 40
2, 72788, Control_c, 0, 64, 0
2, 72795, Control_c, 0, 64, 127
2, 72835, Note_on_c, 0, 62, 0
2, 72836, Note_on_c, 0, 63, 0
2, 72840, Note_on_c, 0, 67, 75
2, 72863, Note_on_c, 0, 67, 0
2, 72884, Note_on_c, 0, 43, 0
2, 72899, Note_on_c, 0, 55, 0
2, 72914, Note_on_c, 0, 74, 94
2, 72960, Note_on_c, 0, 74, 0
2, 72985, Note_on_c, 0, 74, 67
2, 72993, Note_on_c, 0, 67, 66
2, 72995, Note_on_c, 0, 62, 60
2, 73001, Note_on_c, 0, 63, 32
2, 73002, Control_c, 0, 64, 0
2, 73024, Control_c, 0, 64, 127
2, 73070, Note_on_c, 0, 74, 0
2, 73072, Note_on_c, 0, 72, 46
2, 73084, Note_on_c, 0, 62, 0
2, 73092, Note_on_c, 0, 67, 0
2, 73107, Note_on_c, 0, 63, 0
2, 73130, Note_on_c, 0, 72, 0
2, 73145, Note_on_c, 0, 74, 63
2, 73149, Note_on_c, 0, 67, 47
2, 73149, Note_on_c, 0, 62, 42
2, 73150, Note_on_c, 0, 63, 33
2, 73154, Control_c, 0, 64, 0
2, 73174, Control_c, 0, 64, 127
2, 73175, Note_on_c, 0, 62, 0
2, 73213, Note_on_c, 0, 74, 0
2, 73218, Note_on_c, 0, 72, 48
2, 73237, Note_on_c, 0, 67, 0
2, 73301, Note_on_c, 0, 63, 0
2, 73321, Note_on_c, 0, 67, 42
2, 73339, Note_on_c, 0, 72, 0
2, 73352, Note_on_c, 0, 67, 0
2, 73389, Note_on_c, 0, 31, 24
2, 73401, Note_on_c, 0, 31, 0
2, 73444, Note_on_c, 0, 66, 36
2, 73448, Control_c, 0, 64, 0
2, 73449, Note_on_c, 0, 62, 36
2, 73450, Note_on_c, 0, 43, 29
2, 73452, Note_on_c, 0, 31, 29
2, 73487, Control_c, 0, 64, 127
2, 73518, Note_on_c, 0, 66, 0
2, 73528, Note_on_c, 0, 62, 0
2, 73541, Note_on_c, 0, 43, 0
2, 73544, Note_on_c, 0, 31, 0
2, 73623, Note_on_c, 0, 31, 33
2, 73624, Note_on_c, 0, 62, 26
2, 73625, Note_on_c, 0, 57, 27
2, 73627, Note_on_c, 0, 59, 32
2, 73629, Note_on_c, 0, 43, 24
2, 73633, Control_c, 0, 64, 0
2, 73652, Note_on_c, 0, 59, 0
2, 73653, Note_on_c, 0, 31, 0
2, 73653, Note_on_c, 0, 43, 0
2, 73655, Note_on_c, 0, 57, 0
2, 73662, Note_on_c, 0, 62, 0
2, 73741, Note_on_c, 0, 67, 57
2, 73743, Control_c, 0, 64, 127
2, 73769, Note_on_c, 0, 67, 0
2, 73798, Control_c, 0, 64, 0
2, 73802, Note_on_c, 0, 66, 35
2, 73804, Note_on_c, 0, 59, 33
2, 73807, Note_on_c, 0, 43, 30
2, 73808, Note_on_c, 0, 62, 45
2, 73809, Note_on_c, 0, 31, 32
2, 73820, Control_c, 0, 64, 127
2, 73903, Note_on_c, 0, 62, 0
2, 73910, Note_on_c, 0, 66, 0
2, 73917, Note_on_c, 0, 59, 0
2, 73921, Note_on_c, 0, 31, 0
2, 73922, Note_on_c, 0, 43, 0
2, 73985, Note_on_c, 0, 62, 57
2, 73987, Note_on_c, 0, 59, 46
2, 73989, Note_on_c, 0, 57, 34
2, 73989, Note_on_c, 0, 31, 40
2, 73989, Note_on_c, 0, 43, 34
2, 73996, Note_on_c, 0, 59, 0
2, 73998, Note_on_c, 0, 57, 0
2, 74000, Note_on_c, 0, 31, 0
2, 74001, Note_on_c, 0, 62, 0
2, 74003, Note_on_c, 0, 43, 0
2, 74008, Control_c, 0, 64, 0
2, 74087, Control_c, 0, 64, 127
2, 74099, Note_on_c, 0, 67, 64
2, 74121, Note_on_c, 0, 67, 0
2, 74143, Control_c, 0, 64, 0
2, 74156, Note_on_c, 0, 66, 54
2, 74158, Note_on_c, 0, 31, 34
2, 74159, Note_on_c, 0, 43, 29
2, 74162, Note_on_c, 0, 62, 35
2, 74163, Note_on_c, 0, 59, 33
2, 74171, Control_c, 0, 64, 127
2, 74185, Note_on_c, 0, 62, 0
2, 74186, Note_on_c, 0, 43, 0
2, 74193, Note_on_c, 0, 66, 0
2, 74195, Note_on_c, 0, 31, 0
2, 74198, Note_on_c, 0, 59, 0
2, 74273, Control_c, 0, 64, 0
2, 74276, Note_on_c, 0, 62, 50
2, 74276, Note_on_c, 0, 57, 36
2, 74276, Note_on_c, 0, 43, 30
2, 74278, Note_on_c, 0, 59, 34
2, 74286, Note_on_c, 0, 57, 0
2, 74287, Note_on_c, 0, 59, 0
2, 74290, Note_on_c, 0, 43, 0
2, 74290, Note_on_c, 0, 62, 0
2, 74345, Note_on_c, 0, 67, 74
2, 74354, Control_c, 0, 64, 127
2, 74372, Note_on_c, 0, 67, 0
2, 74407, Note_on_c, 0, 63, 57
2, 74408, Control_c, 0, 64, 0
2, 74408, Note_on_c, 0, 60, 57
2, 74408, Note_on_c, 0, 31, 45
2, 74411, Note_on_c, 0, 43, 30
2, 74447, Control_c, 0, 64, 127
2, 74488, Note_on_c, 0, 43, 0
2, 74491, Note_on_c, 0, 63, 0
2, 74491, Note_on_c, 0, 60, 0
2, 74508, Note_on_c, 0, 31, 0
2, 74577, Note_on_c, 0, 31, 40
2, 74577, Note_on_c, 0, 55, 53
2, 74578, Note_on_c, 0, 43, 34
2, 74584, Control_c, 0, 64, 0
2, 74588, Note_on_c, 0, 55, 0
2, 74592, Note_on_c, 0, 43, 0
2, 74593, Note_on_c, 0, 31, 0
2, 74665, Control_c, 0, 64, 127
2, 74684, Note_on_c, 0, 31, 41
2, 74698, Note_on_c, 0, 31, 0
2, 74745, Control_c, 0, 64, 0
2, 74751, Note_on_c, 0, 59, 46
2, 74751, Note_on_c, 0, 51, 33
2, 74752, Note_on_c, 0, 55, 43
2, 74754, Note_on_c, 0, 31, 44
2, 74755, Note_on_c, 0, 50, 19
2, 74757, Note_on_c, 0, 43, 27
2, 74849, Control_c, 0, 64, 127
2, 74879, Note_on_c, 0, 43, 0
2, 74886, Note_on_c, 0, 50, 0
2, 74896, Note_on_c, 0, 51, 0
2, 74899, Note_on_c, 0, 55, 0
2, 74900, Note_on_c, 0, 59, 0
2, 74979, Control_c, 0, 64, 0
2, 74985, Note_on_c, 0, 59, 48
2, 74990, Note_on_c, 0, 55, 60
2, 74990, Note_on_c, 0, 51, 30
2, 74990, Note_on_c, 0, 50, 36
2, 74993, Note_on_c, 0, 43, 37
2, 75001, Note_on_c, 0, 50, 0
2, 75001, Note_on_c, 0, 51, 0
2, 75006, Note_on_c, 0, 43, 0
2, 75007, Note_on_c, 0, 55, 0
2, 75011, Note_on_c, 0, 59, 0
2, 75020, Note_on_c, 0, 31, 0
2, 75115, Note_on_c, 0, 51, 26
2, 75115, Note_on_c, 0, 50, 32
2, 75116, Note_on_c, 0, 57, 38
2, 75116, Control_c, 0, 64, 127
2, 75119, Note_on_c, 0, 55, 45
2, 75119, Note_on_c, 0, 43, 20
2, 75196, Note_on_c, 0, 50, 0
2, 75228, Note_on_c, 0, 55, 0
2, 75236, Note_on_c, 0, 57, 0
2, 75237, Note_on_c, 0, 50, 40
2, 75249, Note_on_c, 0, 51, 0
2, 75253, Note_on_c, 0, 50, 0
2, 75298, Note_on_c, 0, 31, 35
2, 75305, Note_on_c, 0, 43, 0
2, 75322, Note_on_c, 0, 31, 0
2, 75361, Control_c, 0, 64, 0
2, 75365, Note_on_c, 0, 62, 32
2, 75366, Note_on_c, 0, 31, 36
2, 75367, Note_on_c, 0, 54, 23
2, 75368, Note_on_c, 0, 43, 31
2, 75369, Note_on_c, 0, 57, 35
2, 75373, Note_on_c, 0, 59, 31
2, 75396, Control_c, 0, 64, 127
2, 75415, Note_on_c, 0, 54, 0
2, 75417, Note_on_c, 0, 57, 0
2, 75418, Note_on_c, 0, 59, 0
2, 75428, Note_on_c, 0, 31, 0
2, 75430, Note_on_c, 0, 62, 0
2, 75442, Note_on_c, 0, 43, 0
2, 75542, Note_on_c, 0, 74, 51
2, 75545, Note_on_c, 0, 62, 40
2, 75551, Note_on_c, 0, 50, 22
2, 75562, Note_on_c, 0, 62, 0
2, 75572, Note_on_c, 0, 74, 0
2, 75661, Note_on_c, 0, 57, 41
2, 75662, Note_on_c, 0, 81, 65
2, 75668, Note_on_c, 0, 69, 44
2, 75714, Note_on_c, 0, 50, 0
2, 75717, Note_on_c, 0, 57, 0
2, 75731, Note_on_c, 0, 81, 0
2, 75747, Note_on_c, 0, 69, 0
2, 75782, Note_on_c, 0, 50, 32
2, 75844, Control_c, 0, 64, 0
2, 75845, Note_on_c, 0, 50, 0
2, 75846, Note_on_c, 0, 43, 40
2, 75853, Control_c, 0, 64, 127
2, 75956, Note_on_c, 0, 50, 30
2, 76022, Note_on_c, 0, 54, 42
2, 76022, Note_on_c, 0, 62, 52
2, 76032, Note_on_c, 0, 57, 28
2, 76040, Note_on_c, 0, 54, 0
2, 76041, Note_on_c, 0, 57, 0
2, 76051, Note_on_c, 0, 62, 0
2, 76059, Note_on_c, 0, 50, 0
2, 76142, Note_on_c, 0, 81, 58
2, 76144, Note_on_c, 0, 50, 34
2, 76145, Note_on_c, 0, 69, 45
2, 76165, Note_on_c, 0, 81, 0
2, 76171, Note_on_c, 0, 69, 0
2, 76206, Note_on_c, 0, 43, 0
2, 76257, Note_on_c, 0, 43, 43
2, 76278, Note_on_c, 0, 43, 0
2, 76307, Note_on_c, 0, 50, 0
2, 76318, Control_c, 0, 64, 0
2, 76321, Note_on_c, 0, 63, 34
2, 76322, Note_on_c, 0, 60, 41
2, 76325, Note_on_c, 0, 43, 44
2, 76345, Control_c, 0, 64, 127
2, 76370, Note_on_c, 0, 60, 0
2, 76378, Note_on_c, 0, 63, 0
2, 76421, Note_on_c, 0, 43, 0
2, 76424, Note_on_c, 0, 51, 44
2, 76445, Note_on_c, 0, 51, 0
2, 76447, Note_on_c, 0, 67, 32
2, 76476, Note_on_c, 0, 67, 0
2, 76498, Note_on_c, 0, 74, 79
2, 76500, Note_on_c, 0, 67, 80
2, 76501, Note_on_c, 0, 63, 67
2, 76502, Note_on_c, 0, 62, 88
2, 76510, Control_c, 0, 64, 0
2, 76537, Control_c, 0, 64, 127
2, 76578, Note_on_c, 0, 62, 0
2, 76609, Note_on_c, 0, 63, 0
2, 76610, Note_on_c, 0, 74, 0
2, 76622, Note_on_c, 0, 63, 31
2, 76623, Note_on_c, 0, 72, 49
2, 76653, Note_on_c, 0, 67, 0
2, 76658, Note_on_c, 0, 72, 0
2, 76667, Note_on_c, 0, 63, 0
2, 76740, Note_on_c, 0, 67, 55
2, 76743, Note_on_c, 0, 63, 31
2, 76744, Note_on_c, 0, 62, 35
2, 76746, Note_on_c, 0, 51, 39
2, 76776, Note_on_c, 0, 51, 0
2, 76801, Note_on_c, 0, 62, 0
2, 76807, Note_on_c, 0, 63, 0
2, 76828, Note_on_c, 0, 67, 0
2, 76861, Note_on_c, 0, 63, 45
2, 76863, Note_on_c, 0, 60, 66
2, 76867, Note_on_c, 0, 43, 32
2, 76887, Control_c, 0, 64, 0
2, 76899, Control_c, 0, 64, 127
2, 76945, Note_on_c, 0, 43, 0
2, 76967, Note_on_c, 0, 60, 0
2, 76979, Note_on_c, 0, 43, 26
2, 76997, Note_on_c, 0, 43, 0
2, 77041, Note_on_c, 0, 60, 42
2, 77043, Note_on_c, 0, 55, 36
2, 77077, Note_on_c, 0, 63, 0
2, 77103, Note_on_c, 0, 55, 0
2, 77165, Note_on_c, 0, 55, 35
2, 77187, Note_on_c, 0, 55, 0
2, 77194, Note_on_c, 0, 60, 0
2, 77285, Note_on_c, 0, 54, 20
2, 77287, Note_on_c, 0, 59, 38
2, 77289, Note_on_c, 0, 31, 32
2, 77296, Control_c, 0, 64, 0
2, 77347, Control_c, 0, 64, 127
2, 77384, Note_on_c, 0, 31, 0
2, 77384, Note_on_c, 0, 59, 0
2, 77390, Note_on_c, 0, 54, 0
2, 77459, Control_c, 0, 64, 0
2, 77463, Note_on_c, 0, 54, 21
2, 77466, Note_on_c, 0, 31, 33
2, 77469, Note_on_c, 0, 59, 36
2, 77571, Control_c, 0, 64, 127
2, 77627, Control_c, 0, 64, 0
2, 77650, Note_on_c, 0, 59, 0
2, 77665, Note_on_c, 0, 31, 0
2, 77665, Note_on_c, 0, 54, 0
2, 77754, Note_on_c, 0, 54, 25
2, 77759, Note_on_c, 0, 31, 29
2, 77760, Note_on_c, 0, 59, 34
2, 77768, Control_c, 0, 64, 127
2, 77866, Note_on_c, 0, 59, 0
2, 77884, Note_on_c, 0, 31, 0
2, 77887, Note_on_c, 0, 54, 0
2, 77945, Note_on_c, 0, 54, 30
2, 77955, Note_on_c, 0, 31, 33
2, 77956, Control_c, 0, 64, 0
2, 77956, Note_on_c, 0, 59, 24
2, 77973, Control_c, 0, 64, 127
2, 78095, Note_on_c, 0, 31, 0
2, 78113, Note_on_c, 0, 59, 0
2, 78113, Note_on_c, 0, 54, 0
2, 78249, Note_on_c, 0, 63, 19
2, 78251, Control_c, 0, 64, 0
2, 78251, Note_on_c, 0, 31, 28
2, 78255, Note_on_c, 0, 55, 18
2, 78256, Note_on_c, 0, 60, 27
2, 78259, Note_on_c, 0, 57, 16
2, 78314, Note_on_c, 0, 55, 0
2, 78315, Note_on_c, 0, 57, 0
2, 78319, Note_on_c, 0, 60, 0
2, 78319, Note_on_c, 0, 63, 0
2, 78320, Note_on_c, 0, 31, 0
2, 78363, Control_c, 0, 64, 127
2, 78427, Note_on_c, 0, 63, 23
2, 78430, Control_c, 0, 64, 0
2, 78430, Note_on_c, 0, 60, 39
2, 78432, Note_on_c, 0, 57, 26
2, 78432, Note_on_c, 0, 55, 26
2, 78432, Note_on_c, 0, 31, 32
2, 78476, Control_c, 0, 64, 127
2, 78590, Note_on_c, 0, 55, 0
2, 78592, Note_on_c, 0, 57, 0
2, 78596, Note_on_c, 0, 31, 0
2, 78601, Note_on_c, 0, 60, 0
2, 78617, Note_on_c, 0, 63, 0
2, 78722, Note_on_c, 0, 63, 28
2, 78725, Control_c, 0, 64, 0
2, 78726, Note_on_c, 0, 31, 31
2, 78727, Note_on_c, 0, 57, 27
2, 78730, Note_on_c, 0, 55, 27
2, 78733, Note_on_c, 0, 60, 30
2, 78776, Control_c, 0, 64, 127
2, 79014, Note_on_c, 0, 31, 0
2, 79025, Note_on_c, 0, 55, 0
2, 79028, Note_on_c, 0, 60, 0
2, 79029, Note_on_c, 0, 57, 0
2, 79042, Note_on_c, 0, 63, 0
2, 79091, Note_on_c, 0, 63, 40
2, 79096, Note_on_c, 0, 55, 48
2, 79097, Note_on_c, 0, 31, 32
2, 79098, Note_on_c, 0, 57, 34
2, 79102, Note_on_c, 0, 60, 32
2, 79107, Note_on_c, 0, 55, 0
2, 79107, Control_c, 0, 64, 0
2, 79109, Note_on_c, 0, 31, 0
2, 79111, Note_on_c, 0, 57, 0
2, 79112, Note_on_c, 0, 60, 0
2, 79120, Note_on_c, 0, 63, 0
2, 79217, Control_c, 0, 64, 127
2, 79218, Note_on_c, 0, 54, 21
2, 79219, Note_on_c, 0, 31, 34
2, 79220, Note_on_c, 0, 62, 37
2, 79221, Note_on_c, 0, 57, 36
2, 79223, Note_on_c, 0, 59, 47
2, 79377, Note_on_c, 0, 54, 0
2, 79379, Note_on_c, 0, 57, 0
2, 79387, Note_on_c, 0, 59, 0
2, 79391, Note_on_c, 0, 62, 0
2, 79400, Note_on_c, 0, 31, 0
2, 79687, Note_on_c, 0, 93, 58
2, 79693, Note_on_c, 0, 62, 40
2, 79694, Note_on_c, 0, 81, 35
2, 79792, Note_on_c, 0, 62, 0
2, 79832, Note_on_c, 0, 93, 0
2, 79833, Note_on_c, 0, 81, 0
2, 79876, Note_on_c, 0, 93, 43
2, 79877, Note_on_c, 0, 69, 49
2, 79883, Note_on_c, 0, 81, 19
2, 79968, Note_on_c, 0, 93, 0
2, 79969, Note_on_c, 0, 69, 0
2, 79972, Note_on_c, 0, 81, 0
2, 80173, Control_c, 0, 64, 0
2, 80173, End_track
0, 0, End_of_file
