0, 0, Header, 0, 1, 384
1, 0, Start_track
1, 0, Title_t, "untitled"
1, 0, SMPTE_offset, 96, 0, 3, 0, 0
1, 0, System_exclusive, 5, 126, 127, 9, 1, 247
1, 1, System_exclusive, 8, 67, 16, 76, 0, 0, 126, 0, 247
1, 1, System_exclusive, 8, 67, 16, 76, 8, 15, 0, 1, 247
1, 1, System_exclusive, 8, 67, 16, 76, 8, 14, 0, 1, 247
1, 1, System_exclusive, 8, 67, 16, 76, 8, 13, 0, 1, 247
1, 1, System_exclusive, 8, 67, 16, 76, 8, 12, 0, 1, 247
1, 1, System_exclusive, 8, 67, 16, 76, 8, 11, 0, 1, 247
1, 1, System_exclusive, 8, 67, 16, 76, 8, 10, 0, 1, 247
1, 1, System_exclusive, 8, 67, 16, 76, 8, 9, 0, 0, 247
1, 1, System_exclusive, 8, 67, 16, 76, 8, 8, 0, 1, 247
1, 1, System_exclusive, 8, 67, 16, 76, 8, 7, 0, 1, 247
1, 1, System_exclusive, 8, 67, 16, 76, 8, 6, 0, 1, 247
1, 1, System_exclusive, 8, 67, 16, 76, 8, 5, 0, 1, 247
1, 1, System_exclusive, 8, 67, 16, 76, 8, 4, 0, 2, 247
1, 1, System_exclusive, 8, 67, 16, 76, 8, 3, 0, 2, 247
1, 1, System_exclusive, 8, 67, 16, 76, 8, 2, 0, 4, 247
1, 1, System_exclusive, 8, 67, 16, 76, 8, 1, 0, 4, 247
1, 1, System_exclusive, 8, 67, 16, 76, 8, 0, 0, 8, 247
1, 1, System_exclusive, 8, 67, 16, 76, 8, 0, 7, 0, 247
1, 1, System_exclusive, 8, 67, 16, 76, 8, 1, 7, 0, 247
1, 1, System_exclusive, 8, 67, 16, 76, 8, 2, 7, 0, 247
1, 1, System_exclusive, 8, 67, 16, 76, 8, 3, 7, 0, 247
1, 1, System_exclusive, 8, 67, 16, 76, 8, 4, 7, 0, 247
1, 1, System_exclusive, 8, 67, 16, 76, 8, 5, 7, 0, 247
1, 1, System_exclusive, 8, 67, 16, 76, 8, 6, 7, 0, 247
1, 1, System_exclusive, 8, 67, 16, 76, 8, 7, 7, 0, 247
1, 1, System_exclusive, 8, 67, 16, 76, 8, 8, 7, 0, 247
1, 1, System_exclusive, 8, 67, 16, 76, 8, 9, 7, 2, 247
1, 1, System_exclusive, 8, 67, 16, 76, 8, 10, 7, 0, 247
1, 1, System_exclusive, 8, 67, 16, 76, 8, 11, 7, 0, 247
1, 1, System_exclusive, 8, 67, 16, 76, 8, 12, 7, 0, 247
1, 1, System_exclusive, 8, 67, 16, 76, 8, 13, 7, 0, 247
1, 1, System_exclusive, 8, 67, 16, 76, 8, 14, 7, 0, 247
1, 1, System_exclusive, 8, 67, 16, 76, 8, 15, 7, 0, 247
1, 1, System_exclusive, 9, 67, 16, 76, 2, 1, 0, 2, 17, 247
1, 1, System_exclusive, 9, 67, 16, 76, 2, 1, 32, 65, 8, 247
1, 1, System_exclusive, 9, 67, 16, 76, 2, 1, 64, 5, 0, 247
1, 1, System_exclusive, 8, 67, 16, 76, 8, 9, 32, 16, 247
1, 1, System_exclusive, 8, 67, 16, 76, 8, 1, 114, 64, 247
1, 1, System_exclusive, 8, 67, 16, 76, 8, 1, 115, 64, 247
1, 1, System_exclusive, 8, 67, 16, 76, 8, 1, 119, 46, 247
1, 1, System_exclusive, 9, 67, 16, 76, 3, 0, 0, 3, 18, 247
1, 1, System_exclusive, 8, 67, 16, 76, 3, 0, 11, 5, 247
1, 1, System_exclusive, 8, 67, 16, 76, 3, 0, 12, 0, 247
1, 1, System_exclusive, 8, 67, 16, 76, 8, 0, 114, 64, 247
1, 1, System_exclusive, 8, 67, 16, 76, 8, 0, 115, 95, 247
1, 1, System_exclusive, 8, 67, 16, 76, 8, 0, 119, 46, 247
1, 1, Time_signature, 4, 2, 24, 8
1, 1, Key_signature, -1, "major"
1, 1, Tempo, 731707
1, 1, Sequencer_specific, 21, 67, 115, 10, 0, 5, 75, 90, 79, 79, 79, 79, 79, 79, 79, 90, 79, 79, 79, 79, 79, 79
1, 1, Sequencer_specific, 6, 67, 115, 10, 0, 4, 1
1, 1, Sequencer_specific, 9, 67, 123, 0, 88, 70, 48, 50, 0, 0
1, 385, Control_c, 0, 0, 0
1, 385, Control_c, 0, 32, 122
1, 385, Program_c, 0, 0
1, 386, Control_c, 0, 7, 107
1, 386, Control_c, 0, 10, 64
1, 386, Control_c, 0, 91, 0
1, 386, Control_c, 0, 93, 0
1, 387, Control_c, 1, 0, 0
1, 387, Control_c, 1, 32, 122
1, 387, Program_c, 1, 32
1, 388, Control_c, 1, 7, 127
1, 388, Control_c, 1, 10, 64
1, 388, Control_c, 1, 91, 0
1, 388, Control_c, 1, 93, 0
1, 404, Control_c, 9, 7, 70
1, 769, Control_c, 0, 11, 127
1, 769, Control_c, 0, 94, 0
1, 769, Control_c, 0, 101, 0
1, 770, Control_c, 0, 100, 1
1, 771, Control_c, 0, 6, 64
1, 772, Control_c, 0, 38, 0
1, 772, Pitch_bend_c, 0, 8192
1, 772, Control_c, 0, 71, 43
1, 772, Control_c, 0, 74, 46
1, 772, Control_c, 0, 64, 0
1, 772, Control_c, 1, 11, 127
1, 772, Control_c, 1, 94, 0
1, 772, Control_c, 1, 101, 0
1, 773, Control_c, 1, 100, 1
1, 774, Control_c, 1, 6, 64
1, 775, Control_c, 1, 38, 0
1, 1537, Note_on_c, 9, 42, 75
1, 1745, Control_c, 0, 64, 127
1, 1921, Note_on_c, 9, 42, 0
1, 1921, Note_on_c, 9, 42, 52
1, 2017, Control_c, 0, 64, 0
1, 2089, Control_c, 0, 64, 127
1, 2305, Note_on_c, 9, 42, 0
1, 2323, Note_on_c, 9, 42, 63
1, 2707, Note_on_c, 9, 42, 0
1, 2717, Note_on_c, 9, 42, 52
1, 2973, Note_on_c, 1, 40, 68
1, 3073, Note_on_c, 9, 42, 0
1, 3073, Note_on_c, 9, 28, 59
1, 3109, Note_on_c, 1, 40, 0
1, 3109, Control_c, 0, 64, 0
1, 3117, Note_on_c, 1, 41, 60
1, 3133, Note_on_c, 0, 53, 33
1, 3137, Note_on_c, 0, 81, 52
1, 3141, Note_on_c, 0, 64, 43
1, 3145, Note_on_c, 0, 60, 36
1, 3145, Note_on_c, 0, 69, 33
1, 3149, Note_on_c, 0, 76, 43
1, 3185, Control_c, 0, 64, 127
1, 3301, Note_on_c, 0, 81, 0
1, 3309, Note_on_c, 0, 69, 0
1, 3313, Note_on_c, 0, 64, 0
1, 3317, Note_on_c, 0, 53, 0
1, 3321, Note_on_c, 0, 60, 0
1, 3329, Note_on_c, 0, 76, 0
1, 3397, Note_on_c, 0, 69, 55
1, 3397, Note_on_c, 0, 81, 57
1, 3397, Note_on_c, 0, 76, 52
1, 3401, Note_on_c, 0, 64, 50
1, 3409, Note_on_c, 0, 60, 41
1, 3409, Note_on_c, 0, 53, 41
1, 3429, Note_on_c, 0, 57, 31
1, 3443, Note_on_c, 9, 28, 37
1, 3447, Note_on_c, 9, 44, 101
1, 3457, Note_on_c, 9, 28, 0
1, 3485, Note_on_c, 0, 64, 0
1, 3489, Note_on_c, 0, 81, 0
1, 3497, Note_on_c, 0, 57, 0
1, 3497, Note_on_c, 0, 69, 0
1, 3501, Note_on_c, 0, 60, 0
1, 3505, Note_on_c, 0, 53, 0
1, 3505, Note_on_c, 0, 76, 0
1, 3565, Note_on_c, 0, 53, 36
1, 3565, Note_on_c, 0, 69, 46
1, 3565, Note_on_c, 0, 81, 41
1, 3565, Note_on_c, 0, 76, 50
1, 3565, Note_on_c, 0, 64, 43
1, 3565, Note_on_c, 0, 60, 32
1, 3629, Note_on_c, 0, 64, 0
1, 3633, Note_on_c, 0, 81, 0
1, 3633, Note_on_c, 9, 44, 0
1, 3633, Note_on_c, 0, 69, 0
1, 3637, Note_on_c, 0, 76, 0
1, 3649, Note_on_c, 0, 53, 0
1, 3653, Note_on_c, 0, 60, 0
1, 3703, Note_on_c, 9, 36, 42
1, 3729, Note_on_c, 9, 36, 0
1, 3761, Note_on_c, 0, 60, 42
1, 3761, Note_on_c, 0, 64, 45
1, 3765, Note_on_c, 0, 69, 48
1, 3773, Note_on_c, 0, 81, 41
1, 3773, Note_on_c, 0, 53, 35
1, 3773, Note_on_c, 0, 76, 48
1, 3789, Note_on_c, 0, 64, 0
1, 3793, Note_on_c, 0, 60, 0
1, 3805, Note_on_c, 0, 81, 0
1, 3813, Note_on_c, 0, 76, 0
1, 3813, Note_on_c, 0, 69, 0
1, 3825, Note_on_c, 1, 41, 0
1, 3827, Note_on_c, 0, 53, 0
1, 3827, Note_on_c, 1, 31, 70
1, 3827, Note_on_c, 9, 28, 35
1, 3841, Note_on_c, 9, 28, 0
1, 3901, Control_c, 0, 64, 0
1, 3905, Note_on_c, 0, 53, 37
1, 3909, Note_on_c, 0, 81, 45
1, 3913, Note_on_c, 0, 69, 45
1, 3917, Note_on_c, 0, 76, 50
1, 3921, Note_on_c, 0, 57, 27
1, 3945, Note_on_c, 0, 57, 0
1, 3945, Note_on_c, 0, 53, 0
1, 3961, Note_on_c, 0, 69, 0
1, 3965, Note_on_c, 0, 81, 0
1, 3969, Note_on_c, 0, 76, 0
1, 4189, Control_c, 0, 64, 127
1, 4211, Note_on_c, 9, 28, 35
1, 4215, Note_on_c, 9, 44, 98
1, 4225, Note_on_c, 9, 28, 0
1, 4305, Note_on_c, 9, 44, 0
1, 4465, Note_on_c, 0, 58, 75
1, 4465, Note_on_c, 0, 82, 87
1, 4465, Note_on_c, 0, 70, 87
1, 4465, Note_on_c, 1, 32, 72
1, 4469, Note_on_c, 0, 77, 85
1, 4473, Note_on_c, 0, 62, 75
1, 4477, Note_on_c, 1, 31, 0
1, 4521, Note_on_c, 0, 62, 0
1, 4529, Note_on_c, 0, 70, 0
1, 4529, Note_on_c, 0, 77, 0
1, 4545, Note_on_c, 0, 58, 0
1, 4565, Note_on_c, 0, 82, 0
1, 4581, Note_on_c, 1, 32, 0
1, 4595, Note_on_c, 9, 28, 43
1, 4605, Note_on_c, 1, 33, 74
1, 4609, Note_on_c, 9, 28, 0
1, 4609, Note_on_c, 9, 28, 59
1, 4613, Control_c, 0, 64, 0
1, 4617, Note_on_c, 0, 55, 66
1, 4621, Note_on_c, 0, 64, 69
1, 4621, Note_on_c, 0, 84, 80
1, 4621, Note_on_c, 0, 72, 75
1, 4625, Note_on_c, 0, 57, 66
1, 4625, Note_on_c, 0, 79, 73
1, 4629, Note_on_c, 0, 60, 66
1, 4645, Note_on_c, 0, 58, 32
1, 4669, Note_on_c, 0, 58, 0
1, 4689, Control_c, 0, 64, 127
1, 4873, Note_on_c, 1, 48, 111
1, 4945, Note_on_c, 1, 33, 0
1, 4979, Note_on_c, 9, 28, 37
1, 4983, Note_on_c, 9, 44, 101
1, 4993, Note_on_c, 9, 28, 0
1, 4993, Note_on_c, 9, 28, 0
1, 5117, Note_on_c, 0, 60, 0
1, 5137, Note_on_c, 0, 55, 0
1, 5153, Note_on_c, 0, 64, 0
1, 5161, Note_on_c, 0, 57, 0
1, 5169, Note_on_c, 9, 44, 0
1, 5233, Note_on_c, 0, 72, 0
1, 5239, Note_on_c, 9, 36, 42
1, 5249, Note_on_c, 0, 79, 0
1, 5249, Note_on_c, 1, 34, 52
1, 5261, Note_on_c, 0, 84, 0
1, 5265, Note_on_c, 9, 36, 0
1, 5363, Note_on_c, 9, 28, 35
1, 5365, Note_on_c, 1, 34, 0
1, 5377, Note_on_c, 9, 28, 0
1, 5381, Note_on_c, 1, 36, 64
1, 5405, Note_on_c, 1, 48, 0
1, 5625, Control_c, 0, 64, 0
1, 5633, Note_on_c, 0, 78, 61
1, 5637, Note_on_c, 0, 84, 54
1, 5641, Note_on_c, 0, 72, 48
1, 5641, Note_on_c, 0, 58, 37
1, 5645, Note_on_c, 0, 62, 44
1, 5653, Note_on_c, 0, 52, 41
1, 5737, Note_on_c, 0, 78, 0
1, 5747, Note_on_c, 9, 28, 35
1, 5751, Note_on_c, 9, 44, 98
1, 5757, Note_on_c, 0, 79, 33
1, 5761, Note_on_c, 9, 28, 0
1, 5769, Control_c, 0, 64, 127
1, 5841, Note_on_c, 9, 44, 0
1, 5881, Note_on_c, 0, 84, 0
1, 5893, Note_on_c, 0, 79, 0
1, 5905, Note_on_c, 0, 62, 0
1, 5921, Note_on_c, 0, 72, 0
1, 5929, Note_on_c, 0, 58, 0
1, 6025, Note_on_c, 1, 36, 0
1, 6029, Note_on_c, 1, 29, 60
1, 6037, Note_on_c, 0, 52, 0
1, 6037, Note_on_c, 0, 55, 48
1, 6097, Note_on_c, 0, 55, 0
1, 6105, Control_c, 0, 64, 0
1, 6129, Note_on_c, 0, 60, 44
1, 6131, Note_on_c, 0, 57, 48
1, 6131, Note_on_c, 9, 28, 43
1, 6133, Note_on_c, 0, 69, 43
1, 6137, Note_on_c, 0, 62, 49
1, 6145, Note_on_c, 9, 28, 0
1, 6149, Note_on_c, 0, 65, 43
1, 6309, Note_on_c, 0, 69, 0
1, 6313, Note_on_c, 0, 60, 0
1, 6333, Note_on_c, 0, 62, 0
1, 6337, Note_on_c, 0, 65, 0
1, 6373, Note_on_c, 0, 57, 0
1, 6421, Note_on_c, 0, 56, 55
1, 6515, Note_on_c, 9, 28, 26
1, 6519, Note_on_c, 9, 44, 91
1, 6533, Note_on_c, 0, 56, 0
1, 6545, Note_on_c, 0, 57, 56
1, 6545, Note_on_c, 0, 60, 47
1, 6545, Note_on_c, 0, 69, 48
1, 6545, Note_on_c, 0, 62, 53
1, 6549, Note_on_c, 0, 65, 57
1, 6661, Note_on_c, 0, 60, 0
1, 6673, Note_on_c, 9, 44, 0
1, 6677, Note_on_c, 0, 65, 0
1, 6677, Note_on_c, 1, 29, 0
1, 6677, Note_on_c, 1, 36, 50
1, 6681, Note_on_c, 0, 62, 0
1, 6681, Control_c, 0, 64, 127
1, 6685, Note_on_c, 0, 57, 0
1, 6689, Note_on_c, 0, 69, 0
1, 6701, Note_on_c, 1, 36, 0
1, 6769, Note_on_c, 9, 36, 35
1, 6777, Note_on_c, 1, 35, 70
1, 6789, Note_on_c, 0, 57, 57
1, 6797, Note_on_c, 0, 62, 58
1, 6797, Note_on_c, 0, 60, 61
1, 6801, Note_on_c, 9, 36, 0
1, 6801, Note_on_c, 0, 65, 57
1, 6813, Note_on_c, 0, 69, 34
1, 6829, Note_on_c, 0, 60, 0
1, 6837, Note_on_c, 0, 57, 0
1, 6861, Note_on_c, 0, 69, 0
1, 6865, Note_on_c, 0, 62, 0
1, 6881, Note_on_c, 0, 65, 0
1, 6903, Note_on_c, 9, 28, 31
1, 6909, Note_on_c, 1, 35, 0
1, 6913, Note_on_c, 9, 28, 0
1, 6913, Note_on_c, 9, 28, 0
1, 6917, Note_on_c, 1, 34, 66
1, 6921, Control_c, 0, 64, 0
1, 6937, Note_on_c, 0, 46, 45
1, 6941, Note_on_c, 0, 57, 46
1, 6949, Note_on_c, 0, 69, 49
1, 6949, Note_on_c, 0, 65, 42
1, 6949, Note_on_c, 0, 62, 52
1, 7025, Note_on_c, 0, 46, 0
1, 7061, Note_on_c, 0, 57, 0
1, 7113, Note_on_c, 0, 62, 0
1, 7121, Note_on_c, 0, 69, 0
1, 7121, Note_on_c, 0, 65, 0
1, 7169, Note_on_c, 1, 46, 30
1, 7185, Note_on_c, 1, 38, 45
1, 7197, Note_on_c, 1, 46, 0
1, 7257, Note_on_c, 1, 38, 0
1, 7287, Note_on_c, 9, 28, 30
1, 7297, Note_on_c, 9, 28, 0
1, 7297, Note_on_c, 0, 56, 46
1, 7297, Note_on_c, 1, 46, 85
1, 7297, Note_on_c, 9, 44, 80
1, 7301, Note_on_c, 0, 46, 41
1, 7309, Note_on_c, 0, 70, 56
1, 7309, Note_on_c, 0, 62, 49
1, 7321, Note_on_c, 0, 60, 41
1, 7321, Note_on_c, 0, 65, 43
1, 7325, Control_c, 0, 64, 127
1, 7329, Note_on_c, 1, 34, 0
1, 7393, Control_c, 0, 64, 88
1, 7397, Control_c, 0, 64, 0
1, 7409, Note_on_c, 0, 62, 0
1, 7413, Note_on_c, 0, 65, 0
1, 7437, Note_on_c, 0, 60, 0
1, 7437, Note_on_c, 0, 46, 0
1, 7437, Note_on_c, 0, 56, 0
1, 7457, Note_on_c, 0, 70, 0
1, 7475, Note_on_c, 9, 44, 0
1, 7557, Note_on_c, 1, 38, 47
1, 7593, Note_on_c, 1, 38, 0
1, 7653, Control_c, 0, 64, 127
1, 7667, Note_on_c, 9, 28, 36
1, 7681, Note_on_c, 9, 28, 0
1, 7681, Note_on_c, 0, 72, 47
1, 7685, Note_on_c, 0, 55, 46
1, 7689, Note_on_c, 0, 60, 39
1, 7693, Note_on_c, 0, 67, 41
1, 7713, Note_on_c, 0, 60, 0
1, 7725, Note_on_c, 0, 55, 0
1, 7737, Note_on_c, 0, 67, 0
1, 7761, Note_on_c, 0, 72, 0
1, 7773, Note_on_c, 1, 45, 64
1, 7797, Note_on_c, 1, 46, 0
1, 7813, Note_on_c, 1, 45, 0
1, 7889, Note_on_c, 1, 40, 64
1, 7949, Note_on_c, 0, 84, 52
1, 7949, Note_on_c, 0, 72, 55
1, 7949, Note_on_c, 0, 64, 50
1, 7961, Note_on_c, 0, 79, 54
1, 7973, Note_on_c, 0, 60, 42
1, 7981, Note_on_c, 0, 55, 43
1, 7981, Note_on_c, 0, 59, 34
1, 8017, Note_on_c, 0, 72, 0
1, 8017, Note_on_c, 1, 40, 0
1, 8021, Note_on_c, 0, 79, 0
1, 8033, Note_on_c, 0, 59, 0
1, 8033, Note_on_c, 0, 84, 0
1, 8037, Note_on_c, 0, 64, 0
1, 8037, Note_on_c, 0, 55, 0
1, 8037, Note_on_c, 0, 60, 0
1, 8037, Note_on_c, 1, 37, 63
1, 8051, Note_on_c, 9, 28, 36
1, 8055, Note_on_c, 9, 44, 84
1, 8065, Note_on_c, 9, 28, 0
1, 8093, Note_on_c, 0, 64, 50
1, 8093, Note_on_c, 0, 84, 48
1, 8105, Note_on_c, 0, 72, 37
1, 8105, Note_on_c, 0, 60, 43
1, 8109, Note_on_c, 0, 79, 42
1, 8109, Note_on_c, 0, 59, 35
1, 8129, Note_on_c, 0, 79, 0
1, 8133, Note_on_c, 0, 60, 0
1, 8133, Note_on_c, 0, 72, 0
1, 8137, Note_on_c, 0, 64, 0
1, 8137, Note_on_c, 0, 59, 0
1, 8137, Note_on_c, 0, 84, 0
1, 8197, Note_on_c, 0, 84, 59
1, 8197, Note_on_c, 0, 64, 60
1, 8205, Note_on_c, 0, 72, 51
1, 8205, Note_on_c, 0, 60, 54
1, 8205, Note_on_c, 0, 59, 54
1, 8213, Note_on_c, 0, 79, 58
1, 8221, Note_on_c, 0, 55, 46
1, 8237, Note_on_c, 0, 79, 0
1, 8241, Note_on_c, 0, 55, 0
1, 8245, Note_on_c, 0, 64, 0
1, 8249, Note_on_c, 0, 72, 0
1, 8253, Note_on_c, 0, 84, 0
1, 8253, Note_on_c, 0, 59, 0
1, 8265, Note_on_c, 0, 60, 0
1, 8311, Note_on_c, 9, 44, 0
1, 8321, Control_c, 0, 64, 0
1, 8327, Note_on_c, 9, 36, 28
1, 8329, Note_on_c, 0, 64, 81
1, 8333, Note_on_c, 0, 54, 80
1, 8333, Note_on_c, 0, 84, 89
1, 8333, Note_on_c, 0, 60, 71
1, 8333, Note_on_c, 0, 72, 86
1, 8337, Note_on_c, 0, 79, 88
1, 8345, Note_on_c, 9, 36, 0
1, 8345, Note_on_c, 0, 58, 45
1, 8365, Note_on_c, 0, 58, 0
1, 8417, Note_on_c, 1, 37, 0
1, 8435, Note_on_c, 9, 28, 26
1, 8437, Control_c, 0, 64, 127
1, 8441, Note_on_c, 1, 38, 56
1, 8449, Note_on_c, 9, 28, 0
1, 8493, Note_on_c, 0, 72, 0
1, 8493, Note_on_c, 0, 84, 0
1, 8505, Note_on_c, 0, 64, 0
1, 8509, Note_on_c, 0, 79, 0
1, 8513, Note_on_c, 0, 54, 0
1, 8513, Note_on_c, 0, 60, 0
1, 8569, Note_on_c, 0, 64, 43
1, 8577, Note_on_c, 0, 54, 39
1, 8581, Note_on_c, 0, 72, 39
1, 8585, Note_on_c, 0, 60, 37
1, 8589, Note_on_c, 0, 84, 23
1, 8589, Note_on_c, 0, 79, 36
1, 8601, Control_c, 0, 64, 0
1, 8617, Note_on_c, 0, 79, 0
1, 8617, Note_on_c, 0, 84, 0
1, 8617, Note_on_c, 0, 60, 0
1, 8625, Note_on_c, 0, 64, 0
1, 8625, Note_on_c, 0, 72, 0
1, 8629, Note_on_c, 0, 54, 0
1, 8657, Note_on_c, 1, 38, 0
1, 8689, Note_on_c, 1, 33, 66
1, 8701, Control_c, 0, 64, 127
1, 8709, Note_on_c, 0, 54, 54
1, 8709, Note_on_c, 0, 72, 51
1, 8709, Note_on_c, 0, 64, 50
1, 8709, Note_on_c, 0, 84, 40
1, 8717, Control_c, 0, 64, 0
1, 8717, Note_on_c, 0, 79, 52
1, 8721, Note_on_c, 0, 60, 49
1, 8737, Control_c, 0, 64, 127
1, 8757, Note_on_c, 0, 64, 0
1, 8761, Note_on_c, 0, 72, 0
1, 8761, Note_on_c, 0, 79, 0
1, 8765, Note_on_c, 0, 84, 0
1, 8769, Note_on_c, 0, 60, 0
1, 8773, Note_on_c, 0, 54, 0
1, 8785, Note_on_c, 1, 33, 0
1, 8817, Note_on_c, 1, 30, 72
1, 8819, Note_on_c, 9, 28, 51
1, 8823, Note_on_c, 9, 46, 36
1, 8833, Note_on_c, 9, 28, 0
1, 8841, Note_on_c, 0, 54, 41
1, 8845, Note_on_c, 0, 72, 47
1, 8845, Note_on_c, 0, 60, 43
1, 8845, Note_on_c, 0, 84, 36
1, 8845, Note_on_c, 0, 64, 39
1, 8853, Note_on_c, 0, 79, 56
1, 8877, Note_on_c, 0, 79, 0
1, 8877, Note_on_c, 0, 64, 0
1, 8881, Note_on_c, 0, 60, 0
1, 8885, Note_on_c, 0, 54, 0
1, 8885, Note_on_c, 0, 84, 0
1, 8889, Note_on_c, 0, 72, 0
1, 8929, Note_on_c, 9, 46, 0
1, 8967, Note_on_c, 9, 40, 49
1, 8969, Note_on_c, 0, 54, 46
1, 8973, Note_on_c, 0, 84, 36
1, 8973, Note_on_c, 0, 79, 49
1, 8981, Note_on_c, 0, 72, 36
1, 8981, Note_on_c, 0, 60, 39
1, 8989, Note_on_c, 9, 40, 0
1, 9005, Note_on_c, 0, 84, 0
1, 9009, Note_on_c, 0, 60, 0
1, 9009, Note_on_c, 0, 72, 0
1, 9013, Note_on_c, 0, 79, 0
1, 9033, Note_on_c, 0, 54, 0
1, 9069, Note_on_c, 0, 54, 33
1, 9091, Note_on_c, 9, 36, 52
1, 9093, Note_on_c, 0, 72, 40
1, 9105, Note_on_c, 0, 79, 33
1, 9129, Note_on_c, 0, 79, 0
1, 9129, Note_on_c, 9, 36, 0
1, 9133, Note_on_c, 0, 72, 0
1, 9153, Note_on_c, 0, 54, 0
1, 9193, Note_on_c, 1, 30, 0
1, 9203, Note_on_c, 9, 28, 53
1, 9209, Note_on_c, 1, 31, 72
1, 9213, Control_c, 0, 64, 0
1, 9217, Note_on_c, 9, 28, 0
1, 9217, Note_on_c, 0, 62, 45
1, 9221, Note_on_c, 0, 58, 43
1, 9225, Note_on_c, 0, 84, 45
1, 9225, Note_on_c, 0, 72, 36
1, 9225, Note_on_c, 9, 36, 35
1, 9229, Note_on_c, 0, 53, 35
1, 9237, Note_on_c, 0, 77, 48
1, 9241, Note_on_c, 0, 57, 39
1, 9277, Control_c, 0, 64, 127
1, 9293, Note_on_c, 9, 36, 0
1, 9389, Note_on_c, 0, 84, 0
1, 9441, Note_on_c, 0, 77, 0
1, 9449, Note_on_c, 0, 72, 0
1, 9481, Note_on_c, 0, 57, 0
1, 9485, Note_on_c, 0, 62, 0
1, 9509, Note_on_c, 0, 58, 0
1, 9513, Note_on_c, 0, 53, 0
1, 9587, Note_on_c, 9, 28, 47
1, 9591, Note_on_c, 9, 44, 89
1, 9601, Note_on_c, 9, 28, 0
1, 9687, Note_on_c, 9, 44, 0
1, 9721, Note_on_c, 1, 31, 0
1, 9729, Note_on_c, 1, 36, 53
1, 9833, Note_on_c, 1, 36, 0
1, 9833, Note_on_c, 9, 36, 38
1, 9841, Note_on_c, 1, 37, 63
1, 9857, Note_on_c, 0, 69, 99
1, 9857, Note_on_c, 0, 72, 86
1, 9861, Note_on_c, 0, 65, 84
1, 9865, Note_on_c, 9, 36, 0
1, 9869, Note_on_c, 0, 62, 77
1, 9869, Note_on_c, 0, 58, 66
1, 9869, Note_on_c, 0, 60, 68
1, 9971, Note_on_c, 9, 28, 45
1, 9973, Note_on_c, 1, 38, 57
1, 9977, Note_on_c, 1, 37, 0
1, 9985, Note_on_c, 9, 28, 0
1, 10177, Note_on_c, 0, 60, 0
1, 10181, Note_on_c, 0, 62, 0
1, 10205, Note_on_c, 0, 58, 0
1, 10233, Note_on_c, 0, 69, 0
1, 10253, Note_on_c, 0, 72, 0
1, 10253, Note_on_c, 0, 65, 0
1, 10355, Note_on_c, 9, 28, 40
1, 10359, Note_on_c, 9, 44, 87
1, 10369, Note_on_c, 9, 28, 0
1, 10401, Note_on_c, 0, 62, 39
1, 10409, Note_on_c, 0, 64, 36
1, 10413, Note_on_c, 0, 67, 39
1, 10413, Note_on_c, 0, 70, 39
1, 10413, Note_on_c, 0, 58, 39
1, 10425, Note_on_c, 0, 60, 32
1, 10429, Control_c, 0, 64, 0
1, 10465, Note_on_c, 0, 60, 0
1, 10493, Note_on_c, 0, 62, 0
1, 10493, Control_c, 0, 64, 127
1, 10497, Note_on_c, 9, 44, 0
1, 10517, Note_on_c, 0, 58, 0
1, 10517, Note_on_c, 0, 67, 0
1, 10565, Note_on_c, 0, 64, 0
1, 10601, Note_on_c, 1, 37, 33
1, 10605, Note_on_c, 1, 50, 107
1, 10609, Note_on_c, 1, 48, 87
1, 10617, Note_on_c, 1, 38, 0
1, 10617, Note_on_c, 9, 36, 36
1, 10633, Note_on_c, 1, 37, 0
1, 10685, Note_on_c, 9, 36, 0
1, 10701, Note_on_c, 1, 48, 0
1, 10733, Note_on_c, 1, 50, 0
1, 10737, Control_c, 0, 64, 0
1, 10739, Note_on_c, 9, 28, 38
1, 10745, Note_on_c, 1, 48, 78
1, 10749, Note_on_c, 0, 58, 41
1, 10749, Note_on_c, 0, 62, 31
1, 10753, Note_on_c, 9, 28, 0
1, 10753, Note_on_c, 0, 65, 39
1, 10759, Note_on_c, 9, 36, 33
1, 10761, Note_on_c, 0, 55, 36
1, 10769, Note_on_c, 0, 48, 36
1, 10857, Note_on_c, 0, 48, 0
1, 10861, Control_c, 0, 64, 127
1, 10869, Note_on_c, 0, 55, 0
1, 10897, Note_on_c, 0, 65, 0
1, 10909, Note_on_c, 0, 62, 0
1, 10921, Note_on_c, 0, 58, 0
1, 10937, Note_on_c, 9, 36, 0
1, 11057, Note_on_c, 0, 70, 0
1, 11123, Note_on_c, 9, 28, 34
1, 11127, Note_on_c, 9, 44, 68
1, 11137, Note_on_c, 9, 28, 0
1, 11287, Note_on_c, 9, 44, 0
1, 11393, Note_on_c, 0, 72, 70
1, 11429, Note_on_c, 1, 40, 38
1, 11449, Note_on_c, 0, 72, 0
1, 11465, Note_on_c, 1, 40, 0
1, 11507, Note_on_c, 9, 28, 37
1, 11517, Note_on_c, 1, 48, 0
1, 11517, Note_on_c, 1, 46, 71
1, 11521, Note_on_c, 9, 28, 0
1, 11525, Control_c, 0, 64, 0
1, 11541, Note_on_c, 0, 64, 35
1, 11541, Note_on_c, 0, 58, 43
1, 11541, Note_on_c, 0, 68, 49
1, 11545, Note_on_c, 0, 61, 33
1, 11545, Note_on_c, 0, 72, 34
1, 11637, Note_on_c, 0, 68, 0
1, 11649, Note_on_c, 0, 61, 0
1, 11649, Note_on_c, 0, 69, 32
1, 11657, Note_on_c, 0, 58, 0
1, 11681, Note_on_c, 0, 64, 0
1, 11689, Note_on_c, 0, 69, 0
1, 11697, Note_on_c, 0, 72, 0
1, 11889, Note_on_c, 9, 28, 42
1, 11895, Note_on_c, 9, 44, 82
1, 11905, Note_on_c, 9, 28, 0
1, 11925, Note_on_c, 0, 61, 39
1, 11929, Note_on_c, 0, 58, 41
1, 11929, Note_on_c, 0, 72, 36
1, 11929, Note_on_c, 0, 68, 45
1, 12007, Note_on_c, 9, 44, 0
1, 12009, Note_on_c, 0, 68, 0
1, 12013, Note_on_c, 0, 61, 0
1, 12029, Note_on_c, 0, 69, 31
1, 12045, Note_on_c, 0, 58, 0
1, 12057, Note_on_c, 0, 72, 0
1, 12069, Control_c, 0, 64, 127
1, 12105, Note_on_c, 0, 69, 0
1, 12153, Note_on_c, 9, 36, 54
1, 12185, Note_on_c, 9, 36, 0
1, 12197, Control_c, 0, 64, 0
1, 12269, Note_on_c, 1, 46, 0
1, 12275, Note_on_c, 9, 28, 44
1, 12277, Note_on_c, 1, 45, 57
1, 12281, Note_on_c, 0, 72, 53
1, 12289, Note_on_c, 9, 28, 0
1, 12293, Note_on_c, 0, 55, 30
1, 12297, Note_on_c, 0, 61, 37
1, 12297, Note_on_c, 0, 67, 41
1, 12297, Note_on_c, 0, 65, 32
1, 12301, Note_on_c, 0, 60, 31
1, 12305, Control_c, 0, 64, 127
1, 12325, Note_on_c, 0, 58, 25
1, 12509, Note_on_c, 0, 67, 0
1, 12541, Note_on_c, 0, 72, 0
1, 12573, Note_on_c, 0, 65, 0
1, 12659, Note_on_c, 9, 28, 39
1, 12663, Note_on_c, 9, 44, 87
1, 12673, Note_on_c, 9, 28, 0
1, 12737, Note_on_c, 0, 60, 0
1, 12753, Note_on_c, 0, 55, 0
1, 12769, Note_on_c, 0, 61, 0
1, 12773, Note_on_c, 0, 58, 0
1, 12797, Note_on_c, 9, 44, 0
1, 13043, Note_on_c, 9, 28, 33
1, 13057, Note_on_c, 9, 28, 0
1, 13061, Note_on_c, 0, 54, 40
1, 13065, Note_on_c, 0, 65, 30
1, 13073, Control_c, 0, 64, 0
1, 13073, Note_on_c, 0, 60, 42
1, 13333, Note_on_c, 0, 84, 61
1, 13413, Note_on_c, 0, 85, 50
1, 13417, Note_on_c, 0, 84, 0
1, 13427, Note_on_c, 9, 28, 43
1, 13431, Note_on_c, 9, 44, 87
1, 13437, Note_on_c, 1, 38, 57
1, 13441, Note_on_c, 9, 28, 0
1, 13449, Note_on_c, 0, 85, 0
1, 13453, Note_on_c, 1, 45, 0
1, 13461, Note_on_c, 0, 86, 53
1, 13513, Note_on_c, 0, 86, 0
1, 13517, Note_on_c, 0, 65, 0
1, 13541, Note_on_c, 0, 89, 92
1, 13553, Note_on_c, 9, 44, 0
1, 13573, Note_on_c, 0, 60, 0
1, 13621, Note_on_c, 0, 89, 0
1, 13645, Note_on_c, 0, 87, 83
1, 13665, Note_on_c, 0, 54, 0
1, 13709, Note_on_c, 0, 87, 0
1, 13733, Note_on_c, 0, 84, 49
1, 13753, Note_on_c, 0, 84, 0
1, 13805, Note_on_c, 0, 82, 60
1, 13811, Note_on_c, 9, 28, 39
1, 13825, Note_on_c, 9, 28, 0
1, 13869, Note_on_c, 0, 82, 0
1, 13881, Note_on_c, 0, 80, 51
1, 13929, Note_on_c, 0, 80, 0
1, 13945, Note_on_c, 1, 38, 0
1, 13949, Note_on_c, 1, 43, 66
1, 13969, Note_on_c, 1, 43, 0
1, 14017, Note_on_c, 0, 75, 45
1, 14069, Note_on_c, 1, 40, 54
1, 14069, Note_on_c, 1, 38, 51
1, 14089, Note_on_c, 0, 75, 0
1, 14097, Note_on_c, 1, 40, 0
1, 14101, Note_on_c, 0, 72, 54
1, 14149, Note_on_c, 0, 72, 0
1, 14149, Note_on_c, 1, 38, 0
1, 14165, Note_on_c, 0, 73, 54
1, 14185, Note_on_c, 1, 37, 68
1, 14195, Note_on_c, 9, 28, 45
1, 14199, Note_on_c, 9, 44, 105
1, 14209, Note_on_c, 9, 28, 0
1, 14213, Note_on_c, 0, 73, 0
1, 14217, Note_on_c, 0, 55, 35
1, 14225, Note_on_c, 0, 58, 41
1, 14225, Note_on_c, 0, 62, 31
1, 14233, Note_on_c, 0, 74, 60
1, 14293, Note_on_c, 0, 74, 0
1, 14305, Note_on_c, 9, 44, 0
1, 14317, Note_on_c, 0, 77, 61
1, 14353, Note_on_c, 0, 77, 0
1, 14389, Note_on_c, 0, 62, 0
1, 14401, Note_on_c, 0, 58, 0
1, 14405, Note_on_c, 0, 74, 50
1, 14433, Note_on_c, 0, 74, 0
1, 14457, Note_on_c, 0, 55, 0
1, 14461, Note_on_c, 0, 70, 57
1, 14485, Note_on_c, 0, 70, 0
1, 14533, Note_on_c, 0, 65, 59
1, 14553, Note_on_c, 0, 65, 0
1, 14565, Note_on_c, 1, 37, 0
1, 14569, Note_on_c, 1, 36, 66
1, 14579, Note_on_c, 9, 28, 40
1, 14593, Note_on_c, 9, 28, 0
1, 14605, Note_on_c, 0, 73, 61
1, 14613, Note_on_c, 0, 64, 52
1, 14617, Note_on_c, 0, 63, 55
1, 14617, Note_on_c, 0, 68, 49
1, 14641, Note_on_c, 0, 63, 0
1, 14685, Note_on_c, 0, 64, 0
1, 14685, Note_on_c, 0, 68, 0
1, 14701, Note_on_c, 0, 73, 0
1, 14745, Note_on_c, 0, 75, 60
1, 14749, Note_on_c, 0, 68, 49
1, 14753, Note_on_c, 0, 70, 52
1, 14753, Note_on_c, 0, 64, 39
1, 14837, Note_on_c, 1, 27, 89
1, 14851, Note_on_c, 9, 36, 52
1, 14861, Note_on_c, 1, 36, 0
1, 14889, Note_on_c, 0, 68, 0
1, 14893, Note_on_c, 9, 36, 0
1, 14901, Note_on_c, 0, 70, 0
1, 14905, Note_on_c, 0, 64, 0
1, 14913, Note_on_c, 0, 75, 0
1, 14921, Control_c, 0, 64, 127
1, 14949, Note_on_c, 0, 61, 42
1, 14949, Note_on_c, 0, 73, 54
1, 14953, Note_on_c, 0, 64, 45
1, 14953, Note_on_c, 0, 68, 39
1, 14963, Note_on_c, 1, 27, 0
1, 14963, Note_on_c, 0, 70, 30
1, 14963, Note_on_c, 9, 28, 36
1, 14967, Note_on_c, 9, 44, 103
1, 14973, Note_on_c, 1, 28, 81
1, 14977, Note_on_c, 9, 28, 0
1, 14979, Note_on_c, 9, 36, 28
1, 14997, Note_on_c, 0, 70, 0
1, 15005, Note_on_c, 0, 64, 0
1, 15025, Note_on_c, 0, 61, 0
1, 15041, Note_on_c, 0, 73, 0
1, 15045, Note_on_c, 0, 68, 0
1, 15045, Control_c, 0, 64, 0
1, 15069, Control_c, 0, 64, 127
1, 15081, Note_on_c, 0, 64, 42
1, 15095, Note_on_c, 9, 44, 0
1, 15105, Note_on_c, 0, 64, 0
1, 15127, Note_on_c, 9, 36, 0
1, 15129, Note_on_c, 0, 56, 51
1, 15141, Control_c, 0, 64, 0
1, 15193, Note_on_c, 0, 56, 0
1, 15213, Note_on_c, 0, 62, 52
1, 15217, Note_on_c, 0, 67, 56
1, 15219, Note_on_c, 9, 36, 42
1, 15221, Note_on_c, 0, 72, 52
1, 15237, Note_on_c, 0, 57, 50
1, 15255, Note_on_c, 9, 36, 0
1, 15309, Note_on_c, 1, 28, 0
1, 15325, Control_c, 0, 64, 127
1, 15325, Note_on_c, 1, 29, 88
1, 15347, Note_on_c, 9, 28, 39
1, 15361, Note_on_c, 9, 28, 0
1, 15465, Note_on_c, 0, 67, 0
1, 15469, Note_on_c, 0, 72, 0
1, 15529, Note_on_c, 0, 62, 0
1, 15541, Note_on_c, 0, 57, 0
1, 15697, Control_c, 0, 64, 0
1, 15725, Note_on_c, 0, 60, 42
1, 15731, Note_on_c, 9, 28, 51
1, 15733, Note_on_c, 0, 69, 46
1, 15735, Note_on_c, 9, 44, 80
1, 15737, Note_on_c, 0, 64, 50
1, 15741, Note_on_c, 0, 53, 31
1, 15741, Control_c, 0, 64, 127
1, 15745, Note_on_c, 9, 28, 0
1, 15879, Note_on_c, 9, 44, 0
1, 15885, Note_on_c, 0, 69, 0
1, 15889, Note_on_c, 0, 60, 0
1, 15897, Note_on_c, 0, 64, 0
1, 15897, Note_on_c, 0, 53, 0
1, 15993, Note_on_c, 0, 69, 85
1, 15997, Note_on_c, 0, 60, 92
1, 15997, Note_on_c, 0, 64, 86
1, 15997, Note_on_c, 0, 53, 84
1, 16077, Note_on_c, 0, 69, 0
1, 16089, Note_on_c, 0, 60, 0
1, 16089, Note_on_c, 0, 53, 0
1, 16109, Note_on_c, 0, 64, 0
1, 16109, Note_on_c, 1, 36, 82
1, 16115, Note_on_c, 9, 28, 30
1, 16125, Note_on_c, 1, 29, 0
1, 16129, Note_on_c, 9, 28, 0
1, 16141, Note_on_c, 0, 53, 81
1, 16141, Control_c, 0, 64, 0
1, 16145, Note_on_c, 0, 64, 88
1, 16145, Note_on_c, 0, 69, 81
1, 16145, Note_on_c, 0, 60, 80
1, 16157, Control_c, 0, 64, 127
1, 16265, Note_on_c, 0, 69, 0
1, 16293, Note_on_c, 0, 53, 0
1, 16297, Note_on_c, 0, 60, 0
1, 16301, Note_on_c, 0, 64, 0
1, 16373, Note_on_c, 0, 60, 72
1, 16373, Note_on_c, 0, 69, 58
1, 16373, Note_on_c, 0, 64, 63
1, 16377, Note_on_c, 0, 53, 66
1, 16377, Note_on_c, 9, 27, 64
1, 16401, Note_on_c, 0, 69, 0
1, 16403, Note_on_c, 9, 27, 0
1, 16421, Note_on_c, 0, 60, 0
1, 16437, Note_on_c, 0, 64, 0
1, 16477, Control_c, 0, 64, 0
1, 16493, Note_on_c, 0, 53, 0
1, 16499, Note_on_c, 9, 28, 50
1, 16503, Note_on_c, 9, 44, 92
1, 16505, Note_on_c, 0, 65, 68
1, 16509, Note_on_c, 0, 70, 69
1, 16509, Note_on_c, 0, 62, 66
1, 16513, Note_on_c, 9, 28, 0
1, 16513, Note_on_c, 0, 55, 75
1, 16577, Control_c, 0, 64, 127
1, 16633, Note_on_c, 9, 44, 0
1, 16677, Note_on_c, 0, 65, 0
1, 16697, Note_on_c, 0, 62, 0
1, 16717, Note_on_c, 0, 70, 0
1, 16845, Control_c, 0, 64, 0
1, 16877, Note_on_c, 0, 55, 0
1, 16883, Note_on_c, 9, 28, 47
1, 16893, Note_on_c, 0, 64, 50
1, 16893, Note_on_c, 0, 57, 51
1, 16897, Note_on_c, 9, 28, 0
1, 16897, Note_on_c, 0, 67, 48
1, 16897, Note_on_c, 0, 72, 48
1, 16909, Note_on_c, 1, 41, 92
1, 16937, Note_on_c, 1, 36, 0
1, 17041, Control_c, 0, 64, 127
1, 17267, Note_on_c, 9, 28, 53
1, 17271, Note_on_c, 9, 44, 84
1, 17281, Note_on_c, 9, 28, 0
1, 17389, Note_on_c, 0, 57, 0
1, 17415, Note_on_c, 9, 44, 0
1, 17415, Note_on_c, 9, 25, 64
1, 17441, Note_on_c, 9, 25, 0
1, 17529, Note_on_c, 0, 64, 0
1, 17529, Note_on_c, 9, 25, 84
1, 17569, Note_on_c, 9, 25, 0
1, 17573, Note_on_c, 0, 67, 0
1, 17573, Note_on_c, 0, 72, 0
1, 17651, Note_on_c, 9, 28, 46
1, 17653, Note_on_c, 1, 41, 0
1, 17653, Note_on_c, 1, 34, 86
1, 17665, Note_on_c, 9, 28, 0
1, 17705, Note_on_c, 1, 34, 0
1, 17801, Note_on_c, 9, 27, 80
1, 17849, Note_on_c, 9, 27, 0
1, 17901, Note_on_c, 1, 33, 98
1, 18009, Note_on_c, 1, 33, 0
1, 18021, Control_c, 0, 64, 0
1, 18029, Note_on_c, 1, 31, 90
1, 18035, Note_on_c, 9, 28, 48
1, 18039, Note_on_c, 9, 44, 99
1, 18049, Note_on_c, 9, 28, 0
1, 18049, Note_on_c, 0, 46, 78
1, 18061, Note_on_c, 0, 61, 72
1, 18061, Note_on_c, 0, 34, 58
1, 18061, Note_on_c, 0, 65, 68
1, 18073, Note_on_c, 0, 62, 79
1, 18081, Note_on_c, 0, 34, 0
1, 18085, Note_on_c, 0, 61, 0
1, 18105, Note_on_c, 0, 46, 0
1, 18145, Note_on_c, 0, 65, 0
1, 18169, Note_on_c, 0, 62, 0
1, 18185, Note_on_c, 0, 65, 62
1, 18185, Note_on_c, 0, 45, 57
1, 18189, Note_on_c, 0, 60, 66
1, 18193, Note_on_c, 9, 44, 0
1, 18213, Note_on_c, 0, 65, 0
1, 18229, Note_on_c, 0, 45, 0
1, 18241, Note_on_c, 0, 60, 0
1, 18253, Note_on_c, 1, 31, 0
1, 18277, Control_c, 0, 64, 127
1, 18277, Note_on_c, 1, 29, 86
1, 18291, Note_on_c, 9, 28, 46
1, 18297, Note_on_c, 1, 31, 39
1, 18309, Note_on_c, 0, 43, 46
1, 18313, Note_on_c, 0, 31, 41
1, 18317, Note_on_c, 0, 58, 54
1, 18317, Note_on_c, 0, 65, 43
1, 18321, Note_on_c, 1, 31, 0
1, 18341, Note_on_c, 0, 43, 0
1, 18345, Note_on_c, 0, 31, 0
1, 18361, Control_c, 0, 64, 0
1, 18373, Note_on_c, 0, 58, 0
1, 18377, Note_on_c, 0, 65, 0
1, 18389, Note_on_c, 1, 29, 0
1, 18413, Note_on_c, 1, 29, 81
1, 18419, Note_on_c, 9, 28, 46
1, 18433, Note_on_c, 9, 28, 0
1, 18437, Note_on_c, 0, 65, 45
1, 18441, Note_on_c, 0, 57, 54
1, 18445, Note_on_c, 0, 41, 48
1, 18457, Note_on_c, 0, 29, 33
1, 18485, Note_on_c, 0, 29, 0
1, 18485, Control_c, 0, 64, 127
1, 18521, Note_on_c, 0, 41, 0
1, 18581, Note_on_c, 0, 57, 0
1, 18665, Note_on_c, 0, 65, 0
1, 18803, Note_on_c, 9, 28, 54
1, 18807, Note_on_c, 9, 44, 98
1, 18817, Note_on_c, 9, 28, 0
1, 18817, Note_on_c, 9, 28, 0
1, 18935, Note_on_c, 9, 44, 0
1, 19029, Note_on_c, 0, 69, 51
1, 19041, Note_on_c, 9, 25, 59
1, 19059, Note_on_c, 9, 25, 0
1, 19101, Note_on_c, 0, 69, 0
1, 19129, Note_on_c, 0, 72, 82
1, 19187, Note_on_c, 9, 28, 51
1, 19201, Note_on_c, 9, 28, 0
1, 19209, Note_on_c, 0, 72, 0
1, 19225, Control_c, 0, 64, 0
1, 19309, Note_on_c, 0, 74, 44
1, 19329, Note_on_c, 0, 75, 59
1, 19337, Note_on_c, 0, 74, 0
1, 19381, Note_on_c, 0, 75, 0
1, 19381, Note_on_c, 0, 76, 68
1, 19437, Note_on_c, 0, 76, 0
1, 19441, Control_c, 0, 64, 127
1, 19465, Note_on_c, 0, 79, 85
1, 19537, Note_on_c, 0, 79, 0
1, 19569, Control_c, 0, 64, 0
1, 19571, Note_on_c, 9, 28, 47
1, 19573, Note_on_c, 1, 34, 81
1, 19575, Note_on_c, 9, 44, 94
1, 19581, Note_on_c, 1, 29, 0
1, 19585, Note_on_c, 9, 28, 0
1, 19589, Note_on_c, 0, 65, 59
1, 19597, Note_on_c, 0, 61, 50
1, 19597, Note_on_c, 0, 60, 52
1, 19601, Note_on_c, 0, 55, 50
1, 19601, Note_on_c, 0, 84, 85
1, 19621, Note_on_c, 0, 58, 32
1, 19649, Note_on_c, 9, 44, 0
1, 19649, Control_c, 0, 64, 127
1, 19797, Note_on_c, 0, 55, 0
1, 19809, Note_on_c, 0, 65, 0
1, 19817, Note_on_c, 0, 60, 0
1, 19825, Note_on_c, 0, 58, 0
1, 19829, Note_on_c, 1, 46, 85
1, 19833, Note_on_c, 0, 61, 0
1, 19849, Note_on_c, 1, 34, 0
1, 19949, Note_on_c, 1, 46, 0
1, 19955, Note_on_c, 9, 28, 39
1, 19969, Note_on_c, 9, 28, 0
1, 19969, Note_on_c, 1, 45, 66
1, 19977, Control_c, 0, 64, 0
1, 19985, Note_on_c, 0, 54, 39
1, 19993, Note_on_c, 0, 64, 26
1, 20017, Note_on_c, 1, 45, 0
1, 20105, Note_on_c, 1, 40, 57
1, 20109, Note_on_c, 0, 54, 0
1, 20145, Note_on_c, 0, 64, 0
1, 20145, Note_on_c, 1, 40, 0
1, 20213, Note_on_c, 1, 36, 74
1, 20221, Note_on_c, 0, 81, 63
1, 20225, Note_on_c, 0, 84, 0
1, 20293, Note_on_c, 0, 81, 0
1, 20325, Note_on_c, 1, 36, 0
1, 20339, Note_on_c, 9, 28, 47
1, 20341, Note_on_c, 1, 37, 74
1, 20343, Note_on_c, 9, 44, 105
1, 20353, Note_on_c, 9, 28, 0
1, 20353, Note_on_c, 0, 72, 58
1, 20357, Note_on_c, 0, 84, 54
1, 20409, Note_on_c, 0, 84, 0
1, 20413, Note_on_c, 0, 72, 0
1, 20433, Note_on_c, 9, 44, 0
1, 20521, Control_c, 0, 64, 127
1, 20601, Note_on_c, 0, 84, 57
1, 20605, Note_on_c, 0, 72, 52
1, 20605, Note_on_c, 0, 64, 24
1, 20629, Note_on_c, 0, 54, 22
1, 20641, Note_on_c, 0, 64, 0
1, 20645, Note_on_c, 0, 72, 0
1, 20657, Note_on_c, 0, 54, 0
1, 20661, Note_on_c, 0, 84, 0
1, 20701, Control_c, 0, 64, 0
1, 20723, Note_on_c, 9, 28, 34
1, 20725, Note_on_c, 1, 37, 0
1, 20737, Note_on_c, 9, 28, 0
1, 20741, Note_on_c, 1, 38, 80
1, 20745, Note_on_c, 0, 84, 49
1, 20745, Note_on_c, 0, 64, 39
1, 20745, Note_on_c, 0, 72, 50
1, 20749, Note_on_c, 0, 60, 40
1, 20753, Note_on_c, 0, 54, 35
1, 20773, Control_c, 0, 64, 127
1, 20821, Note_on_c, 0, 72, 0
1, 20829, Note_on_c, 0, 84, 0
1, 20849, Note_on_c, 0, 64, 0
1, 20849, Note_on_c, 0, 54, 0
1, 20865, Note_on_c, 0, 60, 0
1, 20979, Note_on_c, 9, 25, 49
1, 20989, Note_on_c, 0, 74, 69
1, 20993, Note_on_c, 0, 86, 56
1, 20997, Note_on_c, 0, 64, 47
1, 20997, Note_on_c, 0, 60, 42
1, 21001, Note_on_c, 0, 54, 41
1, 21001, Note_on_c, 0, 81, 46
1, 21045, Note_on_c, 0, 86, 0
1, 21049, Note_on_c, 0, 64, 0
1, 21059, Note_on_c, 9, 25, 0
1, 21069, Note_on_c, 0, 81, 0
1, 21069, Note_on_c, 0, 54, 0
1, 21069, Control_c, 0, 64, 0
1, 21073, Note_on_c, 0, 74, 0
1, 21073, Note_on_c, 0, 60, 0
1, 21107, Note_on_c, 9, 28, 42
1, 21111, Note_on_c, 9, 46, 63
1, 21121, Note_on_c, 9, 28, 0
1, 21129, Note_on_c, 0, 84, 51
1, 21133, Note_on_c, 0, 54, 37
1, 21145, Note_on_c, 0, 60, 28
1, 21149, Note_on_c, 0, 64, 30
1, 21149, Control_c, 0, 64, 127
1, 21153, Note_on_c, 0, 72, 52
1, 21161, Note_on_c, 0, 84, 0
1, 21189, Note_on_c, 0, 72, 0
1, 21197, Note_on_c, 0, 64, 0
1, 21217, Note_on_c, 0, 60, 0
1, 21225, Note_on_c, 0, 54, 0
1, 21229, Note_on_c, 1, 33, 62
1, 21245, Note_on_c, 1, 38, 0
1, 21249, Note_on_c, 9, 46, 0
1, 21313, Note_on_c, 1, 33, 0
1, 21349, Note_on_c, 1, 30, 66
1, 21373, Note_on_c, 0, 68, 57
1, 21373, Note_on_c, 0, 54, 50
1, 21385, Note_on_c, 0, 80, 31
1, 21389, Note_on_c, 0, 68, 0
1, 21397, Note_on_c, 0, 74, 56
1, 21409, Note_on_c, 0, 80, 0
1, 21437, Note_on_c, 0, 74, 0
1, 21457, Note_on_c, 0, 54, 0
1, 21469, Note_on_c, 1, 30, 0
1, 21473, Control_c, 0, 64, 0
1, 21491, Note_on_c, 9, 28, 63
1, 21493, Note_on_c, 1, 31, 72
1, 21505, Note_on_c, 9, 28, 0
1, 21529, Note_on_c, 0, 58, 49
1, 21529, Note_on_c, 0, 72, 62
1, 21533, Note_on_c, 0, 80, 62
1, 21533, Note_on_c, 0, 53, 41
1, 21537, Note_on_c, 0, 84, 55
1, 21537, Note_on_c, 0, 62, 41
1, 21541, Note_on_c, 0, 57, 36
1, 21545, Note_on_c, 0, 58, 0
1, 21569, Note_on_c, 0, 57, 0
1, 21569, Control_c, 0, 64, 127
1, 21589, Note_on_c, 0, 80, 0
1, 21593, Note_on_c, 0, 72, 0
1, 21597, Note_on_c, 0, 81, 55
1, 21625, Note_on_c, 0, 62, 0
1, 21639, Note_on_c, 9, 25, 73
1, 21657, Note_on_c, 0, 84, 0
1, 21657, Note_on_c, 0, 81, 0
1, 21657, Note_on_c, 0, 57, 36
1, 21673, Note_on_c, 0, 53, 0
1, 21673, Note_on_c, 0, 72, 55
1, 21681, Note_on_c, 0, 58, 46
1, 21685, Note_on_c, 0, 57, 0
1, 21689, Note_on_c, 9, 25, 0
1, 21701, Note_on_c, 0, 62, 35
1, 21709, Note_on_c, 0, 72, 0
1, 21733, Note_on_c, 0, 58, 0
1, 21737, Note_on_c, 0, 81, 54
1, 21753, Note_on_c, 0, 62, 0
1, 21781, Note_on_c, 0, 53, 22
1, 21793, Note_on_c, 0, 81, 0
1, 21793, Note_on_c, 0, 57, 46
1, 21801, Note_on_c, 0, 72, 36
1, 21809, Note_on_c, 0, 53, 0
1, 21821, Note_on_c, 0, 58, 52
1, 21825, Note_on_c, 0, 57, 0
1, 21829, Note_on_c, 0, 84, 52
1, 21845, Note_on_c, 0, 62, 40
1, 21853, Note_on_c, 0, 81, 46
1, 21875, Note_on_c, 9, 28, 34
1, 21877, Note_on_c, 0, 84, 0
1, 21877, Note_on_c, 0, 72, 0
1, 21877, Note_on_c, 0, 58, 0
1, 21879, Note_on_c, 9, 25, 56
1, 21879, Note_on_c, 9, 44, 82
1, 21881, Note_on_c, 0, 81, 0
1, 21889, Note_on_c, 9, 28, 0
1, 21893, Note_on_c, 0, 62, 0
1, 21905, Control_c, 0, 64, 0
1, 21925, Note_on_c, 0, 57, 42
1, 21929, Note_on_c, 0, 62, 49
1, 21929, Note_on_c, 0, 58, 52
1, 21941, Note_on_c, 0, 70, 66
1, 21945, Note_on_c, 9, 25, 0
1, 21945, Note_on_c, 0, 82, 53
1, 21973, Note_on_c, 0, 57, 0
1, 21991, Note_on_c, 9, 44, 0
1, 21993, Note_on_c, 0, 58, 0
1, 21997, Note_on_c, 0, 62, 0
1, 22021, Note_on_c, 0, 70, 0
1, 22061, Note_on_c, 0, 82, 0
1, 22089, Note_on_c, 0, 80, 1
1, 22109, Control_c, 0, 64, 127
1, 22113, Note_on_c, 9, 25, 64
1, 22145, Note_on_c, 0, 80, 0
1, 22149, Control_c, 0, 64, 0
1, 22165, Note_on_c, 0, 82, 63
1, 22169, Note_on_c, 0, 70, 57
1, 22177, Note_on_c, 0, 62, 47
1, 22179, Note_on_c, 9, 25, 0
1, 22181, Note_on_c, 0, 58, 43
1, 22185, Note_on_c, 1, 38, 48
1, 22193, Note_on_c, 0, 57, 39
1, 22201, Note_on_c, 0, 53, 29
1, 22225, Note_on_c, 0, 57, 0
1, 22225, Note_on_c, 0, 70, 0
1, 22229, Note_on_c, 0, 53, 0
1, 22229, Note_on_c, 0, 62, 0
1, 22237, Note_on_c, 0, 58, 0
1, 22245, Note_on_c, 0, 82, 0
1, 22257, Note_on_c, 1, 38, 0
1, 22259, Note_on_c, 9, 28, 36
1, 22273, Note_on_c, 9, 28, 0
1, 22273, Note_on_c, 1, 43, 84
1, 22277, Note_on_c, 1, 31, 0
1, 22429, Control_c, 0, 64, 127
1, 22453, Control_c, 0, 64, 0
1, 22517, Note_on_c, 0, 82, 54
1, 22521, Note_on_c, 0, 62, 32
1, 22525, Note_on_c, 0, 70, 39
1, 22529, Note_on_c, 0, 58, 36
1, 22537, Note_on_c, 0, 57, 36
1, 22541, Note_on_c, 0, 53, 34
1, 22605, Control_c, 0, 64, 127
1, 22643, Note_on_c, 9, 28, 40
1, 22647, Note_on_c, 9, 44, 87
1, 22657, Note_on_c, 9, 28, 0
1, 22759, Note_on_c, 9, 44, 0
1, 22781, Note_on_c, 1, 38, 52
1, 22797, Note_on_c, 1, 43, 0
1, 22805, Note_on_c, 0, 82, 0
1, 22845, Note_on_c, 0, 70, 0
1, 22849, Note_on_c, 0, 62, 0
1, 22857, Note_on_c, 1, 38, 0
1, 22889, Note_on_c, 0, 58, 0
1, 22889, Note_on_c, 1, 37, 66
1, 22965, Note_on_c, 0, 57, 0
1, 22977, Note_on_c, 0, 53, 0
1, 22997, Note_on_c, 1, 37, 0
1, 23025, Note_on_c, 0, 60, 74
1, 23025, Note_on_c, 1, 36, 63
1, 23027, Note_on_c, 9, 28, 44
1, 23033, Control_c, 0, 64, 0
1, 23033, Note_on_c, 9, 25, 43
1, 23041, Note_on_c, 9, 28, 0
1, 23069, Note_on_c, 0, 60, 0
1, 23077, Note_on_c, 0, 61, 60
1, 23113, Note_on_c, 9, 25, 0
1, 23117, Note_on_c, 0, 61, 0
1, 23121, Note_on_c, 0, 60, 54
1, 23149, Note_on_c, 0, 60, 0
1, 23149, Note_on_c, 1, 50, 59
1, 23165, Note_on_c, 0, 61, 57
1, 23189, Note_on_c, 0, 61, 0
1, 23213, Note_on_c, 0, 60, 48
1, 23217, Note_on_c, 1, 50, 0
1, 23237, Note_on_c, 0, 60, 0
1, 23253, Note_on_c, 0, 61, 47
1, 23265, Note_on_c, 1, 49, 66
1, 23281, Note_on_c, 0, 61, 0
1, 23301, Note_on_c, 0, 60, 39
1, 23329, Note_on_c, 0, 60, 0
1, 23337, Note_on_c, 0, 61, 45
1, 23369, Note_on_c, 0, 61, 0
1, 23385, Note_on_c, 0, 60, 48
1, 23393, Note_on_c, 1, 49, 0
1, 23409, Note_on_c, 1, 48, 73
1, 23411, Note_on_c, 9, 28, 36
1, 23413, Note_on_c, 0, 60, 0
1, 23415, Note_on_c, 9, 44, 108
1, 23421, Note_on_c, 0, 61, 48
1, 23425, Note_on_c, 9, 28, 0
1, 23449, Note_on_c, 1, 36, 0
1, 23457, Note_on_c, 0, 61, 0
1, 23473, Note_on_c, 0, 60, 45
1, 23501, Note_on_c, 0, 60, 0
1, 23505, Note_on_c, 9, 44, 0
1, 23513, Note_on_c, 0, 61, 42
1, 23541, Note_on_c, 0, 61, 0
1, 23565, Note_on_c, 0, 60, 46
1, 23589, Note_on_c, 0, 60, 0
1, 23597, Note_on_c, 0, 61, 39
1, 23625, Note_on_c, 0, 61, 0
1, 23649, Note_on_c, 0, 60, 50
1, 23671, Note_on_c, 9, 25, 66
1, 23677, Note_on_c, 0, 60, 0
1, 23681, Note_on_c, 0, 61, 46
1, 23681, Note_on_c, 0, 48, 55
1, 23721, Note_on_c, 9, 25, 0
1, 23729, Note_on_c, 0, 61, 0
1, 23737, Note_on_c, 0, 60, 50
1, 23765, Note_on_c, 0, 60, 0
1, 23773, Note_on_c, 0, 61, 50
1, 23795, Note_on_c, 9, 28, 31
1, 23809, Note_on_c, 0, 61, 0
1, 23809, Note_on_c, 9, 28, 0
1, 23825, Note_on_c, 0, 60, 54
1, 23865, Note_on_c, 0, 60, 0
1, 23865, Note_on_c, 0, 61, 52
1, 23869, Note_on_c, 0, 48, 0
1, 23913, Note_on_c, 0, 60, 56
1, 23917, Note_on_c, 0, 61, 0
1, 23945, Note_on_c, 1, 43, 57
1, 23953, Note_on_c, 0, 61, 63
1, 23957, Note_on_c, 0, 60, 0
1, 23969, Note_on_c, 1, 48, 0
1, 23989, Note_on_c, 0, 48, 78
1, 24001, Note_on_c, 0, 60, 52
1, 24005, Note_on_c, 0, 61, 0
1, 24009, Note_on_c, 1, 43, 0
1, 24049, Note_on_c, 0, 61, 52
1, 24053, Note_on_c, 0, 60, 0
1, 24065, Note_on_c, 1, 39, 63
1, 24097, Note_on_c, 0, 61, 0
1, 24097, Note_on_c, 0, 60, 60
1, 24137, Note_on_c, 0, 61, 56
1, 24141, Note_on_c, 0, 48, 0
1, 24149, Note_on_c, 0, 60, 0
1, 24177, Note_on_c, 1, 39, 0
1, 24179, Note_on_c, 9, 28, 41
1, 24183, Note_on_c, 9, 44, 103
1, 24193, Note_on_c, 9, 28, 0
1, 24197, Note_on_c, 0, 60, 68
1, 24201, Note_on_c, 0, 61, 0
1, 24201, Note_on_c, 1, 40, 63
1, 24241, Note_on_c, 0, 48, 84
1, 24241, Note_on_c, 0, 61, 58
1, 24261, Note_on_c, 0, 60, 0
1, 24297, Note_on_c, 0, 60, 57
1, 24301, Note_on_c, 0, 61, 0
1, 24349, Note_on_c, 0, 61, 55
1, 24357, Note_on_c, 0, 60, 0
1, 24359, Note_on_c, 9, 44, 0
1, 24365, Note_on_c, 0, 48, 0
1, 24401, Note_on_c, 0, 61, 0
1, 24401, Note_on_c, 0, 60, 57
1, 24407, Note_on_c, 9, 25, 56
1, 24449, Note_on_c, 0, 61, 58
1, 24473, Note_on_c, 0, 60, 0
1, 24473, Note_on_c, 0, 48, 81
1, 24497, Note_on_c, 9, 25, 0
1, 24509, Note_on_c, 0, 60, 55
1, 24513, Note_on_c, 0, 61, 0
1, 24553, Note_on_c, 0, 61, 55
1, 24561, Note_on_c, 0, 48, 0
1, 24563, Note_on_c, 9, 28, 45
1, 24569, Note_on_c, 0, 60, 0
1, 24577, Note_on_c, 9, 28, 0
1, 24577, Note_on_c, 1, 40, 0
1, 24577, Note_on_c, 1, 41, 79
1, 24605, Note_on_c, 0, 61, 0
1, 24605, Note_on_c, 0, 60, 54
1, 24657, Note_on_c, 0, 61, 42
1, 24669, Note_on_c, 0, 60, 0
1, 24749, Note_on_c, 0, 61, 0
1, 24749, Note_on_c, 0, 60, 39
1, 24797, Note_on_c, 0, 60, 0
1, 24805, Note_on_c, 1, 41, 0
1, 24817, Note_on_c, 0, 45, 49
1, 24821, Note_on_c, 1, 36, 102
1, 24925, Note_on_c, 1, 36, 0
1, 24947, Note_on_c, 9, 28, 32
1, 24949, Note_on_c, 1, 33, 99
1, 24951, Note_on_c, 9, 44, 103
1, 24961, Note_on_c, 9, 28, 0
1, 25049, Control_c, 0, 64, 127
1, 25127, Note_on_c, 9, 44, 0
1, 25161, Note_on_c, 0, 45, 0
1, 25201, Note_on_c, 0, 41, 56
1, 25219, Note_on_c, 9, 25, 56
1, 25221, Note_on_c, 0, 41, 0
1, 25257, Note_on_c, 9, 25, 0
1, 25329, Control_c, 0, 64, 0
1, 25331, Note_on_c, 9, 28, 38
1, 25341, Note_on_c, 0, 57, 66
1, 25341, Note_on_c, 0, 72, 60
1, 25345, Note_on_c, 9, 28, 0
1, 25353, Note_on_c, 1, 33, 0
1, 25353, Note_on_c, 0, 67, 49
1, 25357, Note_on_c, 0, 62, 39
1, 25361, Note_on_c, 1, 34, 79
1, 25389, Control_c, 0, 64, 127
1, 25473, Note_on_c, 0, 67, 0
1, 25477, Note_on_c, 0, 62, 0
1, 25513, Note_on_c, 0, 72, 0
1, 25577, Note_on_c, 9, 33, 87
1, 25597, Note_on_c, 0, 57, 0
1, 25601, Note_on_c, 0, 61, 39
1, 25609, Note_on_c, 0, 66, 44
1, 25609, Note_on_c, 0, 56, 48
1, 25617, Note_on_c, 0, 71, 20
1, 25619, Note_on_c, 9, 33, 0
1, 25669, Control_c, 0, 64, 0
1, 25673, Note_on_c, 0, 71, 0
1, 25685, Note_on_c, 0, 66, 0
1, 25697, Note_on_c, 0, 61, 0
1, 25715, Note_on_c, 9, 28, 31
1, 25719, Note_on_c, 9, 44, 92
1, 25729, Note_on_c, 9, 28, 0
1, 25729, Note_on_c, 1, 34, 0
1, 25733, Note_on_c, 0, 72, 54
1, 25733, Note_on_c, 1, 35, 72
1, 25737, Note_on_c, 0, 56, 0
1, 25741, Note_on_c, 0, 57, 52
1, 25749, Note_on_c, 0, 67, 44
1, 25761, Control_c, 0, 64, 127
1, 25805, Note_on_c, 0, 57, 0
1, 25857, Note_on_c, 0, 67, 0
1, 25869, Note_on_c, 0, 72, 0
1, 25881, Note_on_c, 9, 44, 0
1, 25975, Note_on_c, 9, 25, 66
1, 26007, Note_on_c, 9, 25, 0
1, 26097, Note_on_c, 1, 35, 0
1, 26099, Note_on_c, 9, 28, 36
1, 26101, Note_on_c, 1, 36, 65
1, 26113, Note_on_c, 9, 28, 0
1, 26117, Control_c, 0, 64, 0
1, 26121, Note_on_c, 0, 65, 47
1, 26121, Note_on_c, 0, 76, 55
1, 26121, Note_on_c, 0, 60, 56
1, 26133, Note_on_c, 0, 69, 43
1, 26141, Note_on_c, 0, 72, 41
1, 26285, Note_on_c, 0, 65, 0
1, 26289, Control_c, 0, 64, 127
1, 26305, Note_on_c, 0, 60, 0
1, 26309, Note_on_c, 0, 76, 0
1, 26321, Note_on_c, 0, 72, 0
1, 26333, Note_on_c, 0, 69, 0
1, 26369, Note_on_c, 0, 60, 43
1, 26381, Note_on_c, 0, 74, 46
1, 26385, Note_on_c, 9, 35, 49
1, 26393, Note_on_c, 0, 60, 0
1, 26433, Note_on_c, 9, 35, 0
1, 26437, Note_on_c, 0, 74, 0
1, 26445, Control_c, 0, 64, 0
1, 26483, Note_on_c, 9, 28, 35
1, 26487, Note_on_c, 9, 44, 108
1, 26489, Note_on_c, 0, 65, 50
1, 26493, Control_c, 0, 64, 127
1, 26497, Note_on_c, 9, 28, 0
1, 26497, Note_on_c, 0, 60, 56
1, 26497, Note_on_c, 0, 76, 47
1, 26505, Note_on_c, 0, 69, 39
1, 26509, Note_on_c, 0, 72, 39
1, 26545, Note_on_c, 0, 60, 0
1, 26577, Note_on_c, 0, 65, 0
1, 26585, Note_on_c, 0, 69, 0
1, 26593, Note_on_c, 0, 72, 0
1, 26609, Note_on_c, 0, 76, 0
1, 26609, Note_on_c, 1, 37, 69
1, 26633, Note_on_c, 1, 36, 0
1, 26673, Note_on_c, 9, 44, 0
1, 26733, Note_on_c, 1, 37, 0
1, 26733, Note_on_c, 1, 38, 75
1, 26753, Note_on_c, 0, 79, 68
1, 26753, Note_on_c, 0, 64, 63
1, 26757, Note_on_c, 0, 69, 58
1, 26759, Note_on_c, 9, 25, 54
1, 26761, Note_on_c, 0, 72, 58
1, 26793, Note_on_c, 9, 25, 0
1, 26833, Note_on_c, 0, 64, 0
1, 26837, Control_c, 0, 64, 0
1, 26841, Note_on_c, 0, 69, 0
1, 26845, Note_on_c, 0, 79, 0
1, 26845, Note_on_c, 0, 72, 0
1, 26867, Note_on_c, 9, 28, 37
1, 26881, Note_on_c, 9, 28, 0
1, 27001, Note_on_c, 0, 77, 56
1, 27005, Note_on_c, 0, 70, 46
1, 27009, Note_on_c, 0, 74, 49
1, 27009, Note_on_c, 0, 67, 28
1, 27009, Note_on_c, 0, 62, 47
1, 27009, Note_on_c, 1, 39, 71
1, 27017, Control_c, 0, 64, 127
1, 27093, Note_on_c, 0, 74, 0
1, 27109, Note_on_c, 1, 39, 0
1, 27109, Note_on_c, 1, 38, 0
1, 27117, Note_on_c, 1, 37, 21
1, 27121, Note_on_c, 1, 40, 78
1, 27129, Note_on_c, 0, 77, 0
1, 27133, Note_on_c, 0, 62, 0
1, 27145, Note_on_c, 1, 37, 0
1, 27165, Note_on_c, 0, 67, 0
1, 27173, Note_on_c, 0, 70, 0
1, 27221, Note_on_c, 1, 40, 0
1, 27249, Note_on_c, 1, 41, 60
1, 27251, Note_on_c, 9, 28, 42
1, 27255, Note_on_c, 9, 44, 75
1, 27265, Note_on_c, 9, 28, 0
1, 27289, Note_on_c, 9, 46, 22
1, 27313, Note_on_c, 9, 46, 0
1, 27321, Note_on_c, 1, 41, 0
1, 27369, Note_on_c, 1, 42, 61
1, 27399, Note_on_c, 9, 44, 0
1, 27465, Note_on_c, 1, 42, 0
1, 27485, Note_on_c, 1, 40, 71
1, 27497, Note_on_c, 0, 75, 59
1, 27507, Note_on_c, 9, 35, 31
1, 27507, Note_on_c, 9, 28, 37
1, 27533, Note_on_c, 9, 35, 0
1, 27601, Note_on_c, 0, 75, 0
1, 27601, Note_on_c, 1, 40, 0
1, 27629, Control_c, 0, 64, 0
1, 27629, Note_on_c, 1, 41, 79
1, 27635, Note_on_c, 9, 28, 48
1, 27637, Note_on_c, 0, 76, 49
1, 27649, Note_on_c, 9, 28, 0
1, 27689, Note_on_c, 1, 41, 0
1, 27753, Note_on_c, 0, 76, 0
1, 27757, Note_on_c, 1, 36, 56
1, 27801, Note_on_c, 1, 36, 0
1, 27889, Note_on_c, 0, 63, 36
1, 27897, Note_on_c, 0, 62, 20
1, 27897, Note_on_c, 1, 34, 31
1, 27901, Note_on_c, 1, 33, 39
1, 27909, Control_c, 0, 64, 127
1, 27921, Note_on_c, 0, 63, 0
1, 27925, Note_on_c, 0, 62, 0
1, 27961, Note_on_c, 1, 33, 0
1, 27961, Control_c, 0, 64, 0
1, 27969, Note_on_c, 1, 34, 0
1, 28017, Note_on_c, 1, 33, 77
1, 28019, Note_on_c, 9, 28, 37
1, 28023, Note_on_c, 9, 44, 89
1, 28025, Note_on_c, 0, 58, 39
1, 28029, Note_on_c, 0, 81, 57
1, 28033, Note_on_c, 9, 28, 0
1, 28033, Note_on_c, 9, 28, 0
1, 28033, Note_on_c, 0, 68, 32
1, 28073, Note_on_c, 0, 64, 13
1, 28121, Note_on_c, 0, 64, 0
1, 28129, Note_on_c, 0, 82, 63
1, 28141, Note_on_c, 0, 68, 0
1, 28153, Note_on_c, 0, 81, 0
1, 28193, Note_on_c, 0, 82, 0
1, 28209, Note_on_c, 9, 44, 0
1, 28229, Note_on_c, 0, 58, 0
1, 28229, Note_on_c, 0, 83, 72
1, 28289, Control_c, 0, 64, 127
1, 28293, Note_on_c, 0, 83, 0
1, 28325, Note_on_c, 0, 84, 77
1, 28373, Control_c, 0, 64, 0
1, 28385, Note_on_c, 0, 84, 0
1, 28385, Note_on_c, 1, 33, 0
1, 28401, Note_on_c, 1, 31, 67
1, 28403, Note_on_c, 9, 28, 34
1, 28417, Note_on_c, 9, 28, 0
1, 28421, Note_on_c, 0, 67, 42
1, 28421, Note_on_c, 0, 62, 31
1, 28425, Note_on_c, 0, 63, 39
1, 28429, Note_on_c, 0, 57, 40
1, 28433, Note_on_c, 0, 84, 64
1, 28537, Note_on_c, 0, 57, 0
1, 28573, Note_on_c, 0, 67, 0
1, 28589, Note_on_c, 0, 62, 0
1, 28601, Note_on_c, 0, 63, 0
1, 28649, Note_on_c, 0, 84, 0
1, 28669, Control_c, 0, 64, 127
1, 28669, Note_on_c, 0, 86, 72
1, 28673, Note_on_c, 9, 25, 63
1, 28695, Note_on_c, 9, 25, 0
1, 28729, Control_c, 0, 64, 0
1, 28753, Note_on_c, 0, 86, 0
1, 28769, Note_on_c, 1, 31, 0
1, 28773, Note_on_c, 1, 30, 70
1, 28787, Note_on_c, 9, 28, 39
1, 28791, Note_on_c, 9, 44, 84
1, 28801, Note_on_c, 9, 28, 0
1, 28801, Note_on_c, 0, 68, 38
1, 28805, Note_on_c, 0, 58, 39
1, 28805, Note_on_c, 0, 84, 58
1, 28809, Note_on_c, 9, 25, 52
1, 28821, Note_on_c, 0, 62, 39
1, 28821, Note_on_c, 0, 64, 29
1, 28833, Note_on_c, 9, 25, 0
1, 28909, Control_c, 0, 64, 127
1, 28925, Note_on_c, 0, 64, 0
1, 28965, Note_on_c, 0, 62, 0
1, 28965, Note_on_c, 0, 68, 0
1, 28985, Note_on_c, 9, 44, 0
1, 29017, Note_on_c, 0, 58, 0
1, 29047, Note_on_c, 9, 25, 77
1, 29077, Note_on_c, 0, 84, 0
1, 29089, Note_on_c, 9, 25, 0
1, 29133, Note_on_c, 1, 30, 0
1, 29137, Control_c, 0, 64, 0
1, 29165, Note_on_c, 1, 29, 74
1, 29171, Note_on_c, 9, 28, 41
1, 29173, Note_on_c, 0, 67, 41
1, 29181, Note_on_c, 0, 63, 39
1, 29185, Note_on_c, 9, 28, 0
1, 29189, Note_on_c, 0, 62, 27
1, 29189, Note_on_c, 0, 81, 57
1, 29193, Note_on_c, 0, 57, 31
1, 29265, Note_on_c, 0, 63, 0
1, 29277, Note_on_c, 0, 81, 0
1, 29277, Note_on_c, 0, 57, 0
1, 29285, Note_on_c, 0, 67, 0
1, 29305, Note_on_c, 0, 62, 0
1, 29317, Note_on_c, 0, 82, 68
1, 29373, Note_on_c, 0, 82, 0
1, 29421, Note_on_c, 0, 83, 79
1, 29433, Note_on_c, 9, 35, 29
1, 29459, Note_on_c, 9, 35, 0
1, 29485, Note_on_c, 1, 36, 32
1, 29505, Note_on_c, 0, 83, 0
1, 29513, Note_on_c, 1, 36, 0
1, 29521, Note_on_c, 0, 67, 56
1, 29525, Note_on_c, 0, 63, 49
1, 29529, Note_on_c, 0, 72, 64
1, 29529, Note_on_c, 0, 84, 70
1, 29529, Note_on_c, 0, 62, 39
1, 29545, Note_on_c, 0, 57, 37
1, 29545, Note_on_c, 1, 43, 88
1, 29555, Note_on_c, 9, 28, 43
1, 29559, Note_on_c, 9, 44, 103
1, 29569, Note_on_c, 9, 28, 0
1, 29585, Note_on_c, 1, 29, 0
1, 29585, Note_on_c, 9, 35, 47
1, 29593, Control_c, 0, 64, 127
1, 29637, Note_on_c, 0, 57, 0
1, 29653, Note_on_c, 0, 67, 0
1, 29661, Note_on_c, 0, 72, 0
1, 29661, Note_on_c, 0, 62, 0
1, 29669, Note_on_c, 0, 63, 0
1, 29685, Note_on_c, 0, 84, 0
1, 29761, Note_on_c, 9, 44, 0
1, 29777, Note_on_c, 9, 35, 0
1, 29781, Control_c, 0, 64, 0
1, 29793, Control_c, 0, 64, 127
1, 29797, Note_on_c, 0, 86, 98
1, 29797, Note_on_c, 0, 58, 64
1, 29797, Note_on_c, 0, 79, 85
1, 29797, Note_on_c, 0, 74, 84
1, 29801, Note_on_c, 0, 68, 72
1, 29805, Note_on_c, 0, 64, 57
1, 29805, Note_on_c, 0, 82, 57
1, 29809, Note_on_c, 0, 62, 57
1, 29813, Note_on_c, 1, 36, 51
1, 29825, Note_on_c, 0, 82, 0
1, 29825, Note_on_c, 9, 35, 54
1, 29837, Note_on_c, 1, 36, 0
1, 29865, Note_on_c, 0, 64, 0
1, 29873, Note_on_c, 9, 35, 0
1, 29877, Note_on_c, 0, 68, 0
1, 29889, Note_on_c, 0, 86, 0
1, 29897, Note_on_c, 0, 58, 0
1, 29897, Note_on_c, 0, 62, 0
1, 29897, Note_on_c, 0, 74, 0
1, 29909, Note_on_c, 0, 79, 0
1, 29925, Control_c, 0, 64, 0
1, 29929, Note_on_c, 1, 41, 84
1, 29933, Note_on_c, 1, 43, 0
1, 29933, Note_on_c, 0, 67, 60
1, 29939, Note_on_c, 9, 28, 39
1, 29941, Note_on_c, 0, 62, 45
1, 29945, Note_on_c, 0, 84, 68
1, 29945, Note_on_c, 0, 79, 63
1, 29945, Note_on_c, 0, 63, 45
1, 29953, Note_on_c, 9, 28, 0
1, 29953, Note_on_c, 0, 72, 55
1, 29953, Note_on_c, 0, 57, 52
1, 30025, Control_c, 0, 64, 127
1, 30057, Note_on_c, 9, 25, 66
1, 30073, Note_on_c, 0, 72, 0
1, 30081, Note_on_c, 0, 63, 0
1, 30085, Note_on_c, 0, 84, 0
1, 30097, Note_on_c, 9, 25, 0
1, 30105, Note_on_c, 0, 57, 0
1, 30113, Note_on_c, 0, 67, 0
1, 30125, Note_on_c, 0, 62, 0
1, 30133, Note_on_c, 0, 79, 0
1, 30185, Note_on_c, 1, 36, 58
1, 30201, Note_on_c, 0, 85, 74
1, 30205, Note_on_c, 0, 73, 71
1, 30205, Note_on_c, 0, 67, 68
1, 30205, Note_on_c, 0, 62, 57
1, 30205, Note_on_c, 0, 63, 61
1, 30205, Note_on_c, 0, 79, 63
1, 30213, Note_on_c, 0, 57, 58
1, 30221, Note_on_c, 0, 61, 47
1, 30245, Note_on_c, 0, 61, 0
1, 30273, Note_on_c, 0, 57, 0
1, 30277, Note_on_c, 0, 67, 0
1, 30281, Note_on_c, 0, 79, 0
1, 30289, Note_on_c, 1, 36, 0
1, 30293, Note_on_c, 0, 63, 0
1, 30297, Note_on_c, 0, 73, 0
1, 30301, Note_on_c, 0, 85, 0
1, 30301, Note_on_c, 0, 62, 0
1, 30309, Control_c, 0, 64, 0
1, 30311, Note_on_c, 9, 25, 78
1, 30321, Control_c, 0, 64, 127
1, 30321, Note_on_c, 1, 35, 83
1, 30323, Note_on_c, 9, 28, 37
1, 30327, Note_on_c, 9, 44, 82
1, 30329, Note_on_c, 1, 41, 0
1, 30337, Note_on_c, 9, 28, 0
1, 30337, Note_on_c, 0, 74, 57
1, 30341, Note_on_c, 0, 63, 48
1, 30345, Note_on_c, 0, 79, 45
1, 30349, Note_on_c, 0, 86, 31
1, 30349, Note_on_c, 0, 62, 30
1, 30357, Note_on_c, 0, 82, 37
1, 30361, Note_on_c, 9, 25, 0
1, 30369, Note_on_c, 0, 74, 0
1, 30373, Note_on_c, 0, 86, 0
1, 30385, Note_on_c, 0, 62, 0
1, 30389, Note_on_c, 0, 82, 0
1, 30393, Note_on_c, 0, 63, 0
1, 30393, Note_on_c, 0, 79, 0
1, 30505, Note_on_c, 9, 44, 0
1, 30577, Note_on_c, 9, 25, 64
1, 30585, Note_on_c, 0, 63, 59
1, 30589, Note_on_c, 0, 67, 64
1, 30605, Note_on_c, 0, 57, 36
1, 30609, Note_on_c, 0, 67, 0
1, 30633, Note_on_c, 0, 57, 0
1, 30647, Note_on_c, 9, 25, 0
1, 30653, Note_on_c, 0, 63, 0
1, 30677, Control_c, 0, 64, 0
1, 30689, Note_on_c, 1, 35, 0
1, 30707, Note_on_c, 9, 28, 43
1, 30713, Note_on_c, 1, 34, 66
1, 30721, Note_on_c, 9, 28, 0
1, 30725, Note_on_c, 0, 62, 54
1, 30725, Note_on_c, 0, 89, 66
1, 30725, Note_on_c, 0, 65, 60
1, 30729, Note_on_c, 0, 77, 60
1, 30729, Note_on_c, 0, 55, 54
1, 30729, Note_on_c, 0, 84, 57
1, 30729, Note_on_c, 0, 60, 54
1, 30745, Note_on_c, 0, 58, 36
1, 30761, Control_c, 0, 64, 127
1, 30765, Note_on_c, 0, 65, 0
1, 30773, Note_on_c, 0, 89, 0
1, 30777, Note_on_c, 0, 84, 0
1, 30805, Note_on_c, 0, 55, 0
1, 30809, Note_on_c, 0, 62, 0
1, 30817, Note_on_c, 0, 58, 0
1, 30821, Note_on_c, 0, 60, 0
1, 30833, Note_on_c, 0, 77, 0
1, 30977, Note_on_c, 0, 65, 51
1, 30981, Note_on_c, 0, 60, 52
1, 30981, Note_on_c, 0, 62, 46
1, 30997, Note_on_c, 0, 65, 0
1, 31017, Note_on_c, 0, 62, 0
1, 31037, Note_on_c, 0, 60, 0
1, 31073, Control_c, 0, 64, 0
1, 31091, Note_on_c, 9, 28, 37
1, 31095, Note_on_c, 9, 44, 91
1, 31097, Note_on_c, 1, 40, 84
1, 31105, Note_on_c, 9, 28, 0
1, 31109, Note_on_c, 0, 70, 41
1, 31125, Note_on_c, 1, 34, 0
1, 31157, Note_on_c, 0, 70, 0
1, 31207, Note_on_c, 9, 44, 0
1, 31209, Note_on_c, 0, 72, 68
1, 31257, Note_on_c, 0, 72, 0
1, 31261, Control_c, 0, 64, 127
1, 31305, Note_on_c, 0, 73, 68
1, 31357, Note_on_c, 0, 73, 0
1, 31357, Control_c, 0, 64, 104
1, 31361, Control_c, 0, 64, 0
1, 31405, Note_on_c, 0, 74, 77
1, 31473, Note_on_c, 0, 74, 0
1, 31475, Note_on_c, 9, 28, 35
1, 31481, Note_on_c, 1, 41, 77
1, 31489, Note_on_c, 9, 28, 0
1, 31497, Note_on_c, 1, 40, 0
1, 31709, Note_on_c, 0, 75, 85
1, 31717, Note_on_c, 0, 65, 61
1, 31725, Note_on_c, 0, 62, 45
1, 31729, Note_on_c, 0, 60, 49
1, 31761, Note_on_c, 1, 40, 43
1, 31765, Note_on_c, 0, 65, 0
1, 31793, Note_on_c, 0, 62, 0
1, 31801, Note_on_c, 0, 60, 0
1, 31809, Note_on_c, 0, 75, 0
1, 31837, Note_on_c, 1, 40, 0
1, 31849, Note_on_c, 0, 74, 74
1, 31849, Note_on_c, 1, 48, 96
1, 31857, Control_c, 0, 64, 127
1, 31859, Note_on_c, 9, 28, 35
1, 31861, Note_on_c, 1, 41, 0
1, 31863, Note_on_c, 9, 44, 89
1, 31873, Note_on_c, 9, 28, 0
1, 31959, Note_on_c, 9, 44, 0
1, 31989, Note_on_c, 0, 74, 0
1, 32129, Note_on_c, 0, 55, 27
1, 32157, Note_on_c, 0, 55, 0
1, 32213, Control_c, 0, 64, 0
1, 32233, Note_on_c, 1, 48, 0
1, 32237, Note_on_c, 0, 58, 49
1, 32241, Note_on_c, 1, 46, 81
1, 32243, Note_on_c, 9, 28, 29
1, 32245, Note_on_c, 0, 70, 45
1, 32245, Note_on_c, 0, 62, 37
1, 32257, Note_on_c, 9, 28, 0
1, 32261, Note_on_c, 0, 65, 39
1, 32317, Control_c, 0, 64, 127
1, 32329, Note_on_c, 0, 65, 0
1, 32337, Note_on_c, 0, 62, 0
1, 32437, Note_on_c, 0, 70, 0
1, 32497, Note_on_c, 0, 58, 0
1, 32499, Note_on_c, 9, 35, 31
1, 32509, Note_on_c, 0, 72, 64
1, 32513, Note_on_c, 0, 65, 68
1, 32521, Note_on_c, 0, 60, 62
1, 32533, Note_on_c, 1, 41, 45
1, 32537, Note_on_c, 9, 35, 0
1, 32553, Note_on_c, 0, 72, 0
1, 32569, Note_on_c, 0, 65, 0
1, 32573, Note_on_c, 1, 46, 0
1, 32593, Note_on_c, 1, 41, 0
1, 32609, Control_c, 0, 64, 0
1, 32613, Note_on_c, 1, 46, 82
1, 32627, Note_on_c, 9, 28, 50
1, 32631, Note_on_c, 9, 35, 33
1, 32631, Note_on_c, 9, 44, 87
1, 32633, Note_on_c, 0, 60, 0
1, 32641, Note_on_c, 9, 28, 0
1, 32653, Note_on_c, 0, 73, 58
1, 32657, Note_on_c, 0, 61, 62
1, 32661, Note_on_c, 0, 68, 58
1, 32661, Note_on_c, 0, 65, 49
1, 32673, Note_on_c, 9, 35, 0
1, 32677, Note_on_c, 0, 70, 52
1, 32727, Note_on_c, 9, 44, 0
1, 32793, Control_c, 0, 64, 127
1, 32797, Note_on_c, 0, 73, 0
1, 32821, Note_on_c, 0, 65, 0
1, 32825, Note_on_c, 0, 68, 0
1, 32841, Note_on_c, 0, 58, 45
1, 32845, Note_on_c, 0, 70, 0
1, 32853, Control_c, 0, 64, 0
1, 32889, Note_on_c, 0, 61, 0
1, 32893, Note_on_c, 0, 65, 61
1, 32893, Note_on_c, 0, 70, 63
1, 32893, Note_on_c, 0, 74, 68
1, 32893, Note_on_c, 0, 62, 73
1, 32893, Note_on_c, 1, 41, 41
1, 32901, Note_on_c, 0, 67, 61
1, 32917, Note_on_c, 1, 41, 0
1, 32929, Note_on_c, 0, 58, 0
1, 32985, Note_on_c, 1, 46, 0
1, 32997, Control_c, 0, 64, 127
1, 33005, Note_on_c, 1, 45, 68
1, 33011, Note_on_c, 9, 28, 35
1, 33025, Note_on_c, 9, 28, 0
1, 33025, Note_on_c, 1, 46, 31
1, 33053, Note_on_c, 1, 46, 0
1, 33113, Note_on_c, 0, 65, 0
1, 33137, Note_on_c, 0, 67, 0
1, 33153, Note_on_c, 0, 62, 0
1, 33169, Note_on_c, 0, 70, 0
1, 33177, Note_on_c, 0, 74, 0
1, 33253, Note_on_c, 1, 41, 54
1, 33273, Note_on_c, 1, 41, 0
1, 33281, Note_on_c, 0, 61, 31
1, 33283, Note_on_c, 9, 35, 24
1, 33309, Note_on_c, 0, 61, 0
1, 33319, Note_on_c, 9, 35, 0
1, 33361, Note_on_c, 1, 45, 0
1, 33381, Note_on_c, 1, 44, 79
1, 33393, Control_c, 0, 64, 0
1, 33395, Note_on_c, 9, 28, 48
1, 33399, Note_on_c, 9, 44, 82
1, 33409, Note_on_c, 9, 28, 0
1, 33409, Note_on_c, 0, 65, 71
1, 33409, Note_on_c, 0, 82, 85
1, 33409, Note_on_c, 0, 61, 61
1, 33409, Note_on_c, 0, 54, 63
1, 33409, Note_on_c, 0, 75, 84
1, 33409, Note_on_c, 0, 70, 83
1, 33409, Note_on_c, 0, 58, 58
1, 33409, Note_on_c, 0, 78, 63
1, 33469, Control_c, 0, 64, 127
1, 33537, Note_on_c, 9, 44, 0
1, 33549, Note_on_c, 0, 61, 0
1, 33553, Note_on_c, 0, 65, 0
1, 33557, Note_on_c, 0, 70, 0
1, 33589, Note_on_c, 0, 82, 0
1, 33613, Note_on_c, 0, 75, 0
1, 33617, Note_on_c, 0, 54, 0
1, 33625, Note_on_c, 0, 78, 0
1, 33637, Note_on_c, 0, 58, 0
1, 33641, Control_c, 0, 64, 0
1, 33645, Note_on_c, 1, 42, 68
1, 33653, Note_on_c, 0, 64, 82
1, 33653, Note_on_c, 0, 53, 80
1, 33657, Note_on_c, 0, 83, 78
1, 33657, Note_on_c, 0, 76, 81
1, 33657, Note_on_c, 0, 59, 78
1, 33657, Note_on_c, 0, 71, 72
1, 33665, Note_on_c, 1, 44, 0
1, 33669, Note_on_c, 0, 79, 69
1, 33749, Control_c, 0, 64, 127
1, 33773, Note_on_c, 1, 42, 0
1, 33779, Note_on_c, 9, 28, 39
1, 33781, Note_on_c, 1, 43, 68
1, 33793, Note_on_c, 9, 28, 0
1, 33801, Note_on_c, 9, 35, 42
1, 33809, Note_on_c, 9, 46, 26
1, 33821, Note_on_c, 1, 43, 0
1, 33829, Note_on_c, 0, 79, 0
1, 33829, Note_on_c, 0, 71, 0
1, 33833, Note_on_c, 0, 76, 0
1, 33841, Note_on_c, 0, 53, 0
1, 33841, Note_on_c, 9, 46, 0
1, 33843, Note_on_c, 9, 35, 0
1, 33853, Note_on_c, 0, 64, 0
1, 33853, Note_on_c, 0, 83, 0
1, 33857, Note_on_c, 0, 59, 0
1, 33901, Note_on_c, 0, 64, 64
1, 33901, Note_on_c, 1, 38, 56
1, 33909, Note_on_c, 0, 59, 61
1, 33913, Note_on_c, 0, 84, 60
1, 33913, Note_on_c, 0, 53, 36
1, 33913, Note_on_c, 0, 72, 57
1, 33929, Note_on_c, 0, 59, 0
1, 33937, Note_on_c, 0, 53, 0
1, 33937, Note_on_c, 0, 84, 0
1, 33937, Note_on_c, 0, 72, 0
1, 33953, Note_on_c, 0, 64, 0
1, 33953, Control_c, 0, 64, 0
1, 33965, Note_on_c, 1, 38, 0
1, 34021, Note_on_c, 1, 30, 58
1, 34025, Note_on_c, 0, 85, 75
1, 34033, Control_c, 0, 64, 127
1, 34033, Note_on_c, 0, 73, 66
1, 34037, Note_on_c, 0, 64, 65
1, 34041, Note_on_c, 0, 59, 63
1, 34041, Note_on_c, 0, 79, 57
1, 34045, Note_on_c, 0, 53, 62
1, 34101, Note_on_c, 0, 79, 0
1, 34101, Note_on_c, 0, 73, 0
1, 34113, Note_on_c, 0, 64, 0
1, 34113, Control_c, 0, 64, 0
1, 34117, Note_on_c, 0, 53, 0
1, 34121, Note_on_c, 0, 85, 0
1, 34129, Note_on_c, 0, 59, 0
1, 34133, Note_on_c, 1, 30, 0
1, 34153, Note_on_c, 1, 31, 80
1, 34163, Note_on_c, 0, 53, 60
1, 34163, Note_on_c, 0, 86, 69
1, 34163, Note_on_c, 9, 28, 34
1, 34165, Note_on_c, 0, 59, 61
1, 34165, Note_on_c, 0, 64, 58
1, 34165, Note_on_c, 0, 74, 61
1, 34165, Note_on_c, 0, 79, 54
1, 34167, Note_on_c, 9, 44, 99
1, 34177, Note_on_c, 9, 28, 0
1, 34185, Control_c, 0, 64, 127
1, 34249, Note_on_c, 0, 79, 0
1, 34249, Note_on_c, 0, 74, 0
1, 34249, Note_on_c, 0, 64, 0
1, 34257, Note_on_c, 0, 53, 0
1, 34277, Note_on_c, 0, 59, 0
1, 34281, Note_on_c, 0, 86, 0
1, 34295, Note_on_c, 9, 44, 0
1, 34413, Note_on_c, 0, 86, 63
1, 34417, Note_on_c, 0, 74, 61
1, 34417, Note_on_c, 0, 79, 63
1, 34421, Note_on_c, 0, 53, 59
1, 34421, Note_on_c, 0, 59, 59
1, 34421, Note_on_c, 0, 64, 58
1, 34423, Note_on_c, 9, 35, 38
1, 34461, Note_on_c, 9, 35, 0
1, 34489, Note_on_c, 0, 74, 0
1, 34493, Control_c, 0, 64, 0
1, 34497, Note_on_c, 0, 86, 0
1, 34497, Note_on_c, 0, 64, 0
1, 34497, Note_on_c, 0, 53, 0
1, 34501, Note_on_c, 0, 79, 0
1, 34517, Note_on_c, 0, 59, 0
1, 34547, Note_on_c, 9, 28, 32
1, 34549, Note_on_c, 1, 31, 0
1, 34549, Control_c, 0, 64, 127
1, 34549, Note_on_c, 1, 33, 81
1, 34561, Note_on_c, 9, 28, 0
1, 34561, Note_on_c, 0, 53, 41
1, 34561, Note_on_c, 9, 35, 35
1, 34565, Note_on_c, 0, 86, 47
1, 34565, Note_on_c, 0, 59, 47
1, 34569, Note_on_c, 0, 64, 43
1, 34569, Note_on_c, 0, 79, 48
1, 34573, Note_on_c, 0, 74, 46
1, 34609, Note_on_c, 9, 35, 0
1, 34609, Note_on_c, 0, 53, 0
1, 34621, Note_on_c, 0, 64, 0
1, 34625, Note_on_c, 0, 59, 0
1, 34629, Note_on_c, 0, 74, 0
1, 34633, Note_on_c, 0, 79, 0
1, 34665, Note_on_c, 0, 86, 0
1, 34785, Note_on_c, 0, 54, 52
1, 34789, Note_on_c, 0, 88, 68
1, 34789, Note_on_c, 0, 65, 46
1, 34797, Note_on_c, 0, 83, 51
1, 34801, Note_on_c, 0, 76, 39
1, 34801, Note_on_c, 0, 60, 45
1, 34803, Note_on_c, 9, 28, 29
1, 34821, Note_on_c, 0, 65, 0
1, 34825, Note_on_c, 0, 60, 0
1, 34837, Note_on_c, 0, 83, 0
1, 34841, Note_on_c, 0, 88, 0
1, 34849, Control_c, 0, 64, 0
1, 34861, Note_on_c, 0, 76, 0
1, 34873, Note_on_c, 0, 54, 0
1, 34925, Note_on_c, 0, 86, 49
1, 34931, Note_on_c, 0, 74, 39
1, 34931, Note_on_c, 9, 28, 36
1, 34933, Note_on_c, 1, 33, 0
1, 34933, Note_on_c, 0, 64, 39
1, 34933, Note_on_c, 0, 53, 42
1, 34935, Note_on_c, 9, 44, 110
1, 34937, Note_on_c, 0, 59, 43
1, 34937, Note_on_c, 1, 34, 79
1, 34945, Note_on_c, 9, 28, 0
1, 34945, Note_on_c, 0, 81, 44
1, 34973, Note_on_c, 0, 59, 0
1, 34977, Note_on_c, 0, 81, 0
1, 34977, Note_on_c, 0, 64, 0
1, 34981, Note_on_c, 0, 86, 0
1, 34985, Note_on_c, 0, 74, 0
1, 34989, Note_on_c, 0, 53, 0
1, 35097, Note_on_c, 9, 44, 0
1, 35185, Note_on_c, 9, 35, 43
1, 35217, Note_on_c, 9, 35, 0
1, 35289, Control_c, 0, 64, 127
1, 35301, Note_on_c, 1, 34, 0
1, 35315, Note_on_c, 9, 28, 47
1, 35321, Note_on_c, 1, 35, 69
1, 35329, Note_on_c, 9, 28, 0
1, 35329, Note_on_c, 9, 28, 0
1, 35441, Note_on_c, 0, 71, 53
1, 35441, Note_on_c, 0, 83, 54
1, 35445, Note_on_c, 0, 64, 40
1, 35445, Note_on_c, 0, 76, 55
1, 35453, Note_on_c, 0, 59, 39
1, 35457, Note_on_c, 0, 53, 36
1, 35485, Note_on_c, 0, 71, 0
1, 35489, Note_on_c, 0, 53, 0
1, 35489, Note_on_c, 0, 64, 0
1, 35489, Note_on_c, 0, 76, 0
1, 35493, Note_on_c, 0, 83, 0
1, 35501, Note_on_c, 0, 59, 0
1, 35565, Note_on_c, 0, 72, 68
1, 35565, Note_on_c, 0, 84, 71
1, 35565, Note_on_c, 0, 59, 60
1, 35565, Note_on_c, 0, 79, 71
1, 35569, Note_on_c, 0, 53, 63
1, 35573, Note_on_c, 0, 64, 62
1, 35609, Note_on_c, 0, 84, 0
1, 35609, Note_on_c, 0, 72, 0
1, 35629, Note_on_c, 0, 64, 0
1, 35629, Note_on_c, 0, 53, 0
1, 35637, Note_on_c, 1, 34, 14
1, 35649, Note_on_c, 0, 59, 0
1, 35649, Note_on_c, 0, 79, 0
1, 35685, Note_on_c, 1, 34, 0
1, 35689, Note_on_c, 0, 85, 85
1, 35693, Note_on_c, 0, 73, 74
1, 35693, Note_on_c, 0, 59, 75
1, 35693, Note_on_c, 0, 79, 77
1, 35693, Note_on_c, 1, 45, 85
1, 35699, Note_on_c, 0, 53, 75
1, 35699, Note_on_c, 9, 28, 38
1, 35701, Note_on_c, 0, 64, 76
1, 35703, Note_on_c, 9, 44, 92
1, 35709, Note_on_c, 1, 35, 0
1, 35713, Note_on_c, 9, 28, 0
1, 35769, Note_on_c, 0, 64, 0
1, 35773, Note_on_c, 0, 53, 0
1, 35777, Note_on_c, 0, 73, 0
1, 35777, Note_on_c, 0, 79, 0
1, 35781, Note_on_c, 0, 85, 0
1, 35805, Note_on_c, 0, 53, 61
1, 35805, Note_on_c, 0, 64, 70
1, 35805, Note_on_c, 0, 79, 39
1, 35805, Note_on_c, 0, 74, 57
1, 35805, Note_on_c, 0, 86, 61
1, 35817, Note_on_c, 0, 82, 41
1, 35837, Note_on_c, 0, 84, 31
1, 35845, Note_on_c, 0, 82, 0
1, 35849, Note_on_c, 9, 44, 0
1, 35861, Note_on_c, 0, 74, 0
1, 35869, Note_on_c, 0, 86, 0
1, 35869, Note_on_c, 0, 84, 0
1, 35873, Note_on_c, 0, 53, 0
1, 35877, Note_on_c, 0, 64, 0
1, 35877, Control_c, 0, 64, 0
1, 35881, Note_on_c, 0, 79, 0
1, 35897, Note_on_c, 0, 59, 0
1, 35921, Note_on_c, 0, 86, 75
1, 35925, Note_on_c, 0, 79, 79
1, 35929, Note_on_c, 0, 74, 73
1, 35933, Note_on_c, 0, 53, 66
1, 35933, Note_on_c, 0, 64, 75
1, 35937, Note_on_c, 0, 59, 71
1, 35945, Control_c, 0, 64, 127
1, 35961, Note_on_c, 9, 27, 63
1, 36019, Note_on_c, 9, 27, 0
1, 36021, Note_on_c, 0, 53, 0
1, 36021, Note_on_c, 0, 86, 0
1, 36021, Note_on_c, 0, 74, 0
1, 36025, Note_on_c, 0, 64, 0
1, 36029, Note_on_c, 0, 79, 0
1, 36045, Note_on_c, 0, 59, 0
1, 36053, Control_c, 0, 64, 0
1, 36065, Note_on_c, 0, 86, 80
1, 36069, Note_on_c, 1, 45, 0
1, 36069, Note_on_c, 0, 53, 70
1, 36069, Note_on_c, 0, 79, 84
1, 36073, Note_on_c, 0, 74, 61
1, 36073, Note_on_c, 0, 64, 72
1, 36073, Note_on_c, 0, 59, 76
1, 36077, Note_on_c, 1, 43, 72
1, 36083, Note_on_c, 9, 28, 38
1, 36085, Control_c, 0, 64, 127
1, 36097, Note_on_c, 9, 28, 0
1, 36169, Note_on_c, 0, 79, 0
1, 36173, Note_on_c, 0, 74, 0
1, 36189, Note_on_c, 0, 64, 0
1, 36201, Note_on_c, 0, 86, 0
1, 36201, Note_on_c, 0, 53, 0
1, 36217, Note_on_c, 0, 59, 0
1, 36313, Note_on_c, 0, 88, 79
1, 36321, Note_on_c, 0, 76, 66
1, 36321, Note_on_c, 0, 59, 73
1, 36321, Note_on_c, 0, 83, 71
1, 36321, Note_on_c, 0, 53, 72
1, 36321, Note_on_c, 0, 64, 72
1, 36341, Note_on_c, 1, 38, 59
1, 36369, Note_on_c, 9, 27, 59
1, 36381, Note_on_c, 0, 64, 0
1, 36381, Note_on_c, 0, 88, 0
1, 36385, Note_on_c, 0, 53, 0
1, 36393, Note_on_c, 0, 83, 0
1, 36397, Note_on_c, 0, 76, 0
1, 36417, Note_on_c, 1, 38, 0
1, 36419, Note_on_c, 9, 27, 0
1, 36421, Note_on_c, 0, 59, 0
1, 36453, Note_on_c, 0, 59, 46
1, 36453, Note_on_c, 0, 86, 56
1, 36461, Note_on_c, 0, 64, 50
1, 36461, Note_on_c, 0, 81, 56
1, 36461, Note_on_c, 0, 53, 49
1, 36461, Note_on_c, 0, 74, 46
1, 36467, Note_on_c, 9, 28, 46
1, 36471, Note_on_c, 9, 44, 105
1, 36481, Note_on_c, 9, 28, 0
1, 36485, Note_on_c, 1, 34, 39
1, 36513, Note_on_c, 1, 34, 0
1, 36549, Note_on_c, 0, 74, 0
1, 36565, Note_on_c, 0, 64, 0
1, 36569, Note_on_c, 0, 81, 0
1, 36569, Note_on_c, 0, 59, 0
1, 36589, Note_on_c, 0, 86, 0
1, 36589, Note_on_c, 0, 53, 0
1, 36599, Note_on_c, 9, 44, 0
1, 36625, Note_on_c, 9, 27, 84
1, 36647, Note_on_c, 9, 27, 0
1, 36723, Note_on_c, 9, 28, 27
1, 36729, Note_on_c, 1, 32, 87
1, 36761, Note_on_c, 9, 35, 35
1, 36765, Note_on_c, 1, 43, 0
1, 36793, Note_on_c, 9, 35, 0
1, 36805, Control_c, 0, 64, 0
1, 36845, Note_on_c, 0, 89, 117
1, 36845, Note_on_c, 0, 77, 115
1, 36845, Note_on_c, 0, 58, 81
1, 36845, Note_on_c, 0, 62, 90
1, 36845, Note_on_c, 0, 86, 85
1, 36845, Note_on_c, 0, 57, 71
1, 36845, Note_on_c, 0, 53, 72
1, 36849, Note_on_c, 1, 32, 0
1, 36851, Note_on_c, 9, 28, 39
1, 36865, Note_on_c, 9, 28, 0
1, 36865, Note_on_c, 1, 31, 81
1, 36877, Note_on_c, 0, 53, 0
1, 36881, Note_on_c, 0, 77, 0
1, 36897, Control_c, 0, 64, 127
1, 36901, Note_on_c, 0, 57, 0
1, 36913, Note_on_c, 0, 53, 14
1, 36925, Note_on_c, 0, 62, 0
1, 36933, Note_on_c, 0, 86, 0
1, 36933, Note_on_c, 0, 58, 0
1, 36957, Note_on_c, 0, 89, 0
1, 36957, Note_on_c, 0, 77, 54
1, 36981, Note_on_c, 0, 77, 0
1, 36981, Note_on_c, 0, 57, 37
1, 36993, Note_on_c, 0, 53, 0
1, 36997, Note_on_c, 0, 62, 50
1, 36997, Note_on_c, 0, 58, 45
1, 37005, Note_on_c, 0, 57, 0
1, 37013, Note_on_c, 0, 89, 42
1, 37029, Note_on_c, 0, 58, 0
1, 37045, Note_on_c, 0, 89, 0
1, 37049, Note_on_c, 0, 62, 0
1, 37069, Note_on_c, 0, 77, 54
1, 37085, Note_on_c, 0, 57, 52
1, 37125, Note_on_c, 0, 57, 0
1, 37125, Note_on_c, 0, 58, 39
1, 37129, Note_on_c, 0, 62, 39
1, 37137, Note_on_c, 0, 77, 0
1, 37141, Note_on_c, 0, 89, 48
1, 37161, Note_on_c, 0, 58, 0
1, 37185, Note_on_c, 0, 62, 0
1, 37189, Note_on_c, 0, 89, 0
1, 37205, Note_on_c, 0, 77, 50
1, 37209, Note_on_c, 0, 53, 37
1, 37213, Note_on_c, 0, 57, 46
1, 37235, Note_on_c, 0, 53, 0
1, 37235, Note_on_c, 9, 28, 37
1, 37239, Note_on_c, 9, 44, 98
1, 37249, Note_on_c, 9, 28, 0
1, 37249, Note_on_c, 9, 28, 0
1, 37249, Note_on_c, 0, 57, 0
1, 37261, Note_on_c, 0, 58, 39
1, 37265, Note_on_c, 0, 77, 0
1, 37265, Note_on_c, 0, 89, 43
1, 37273, Note_on_c, 0, 62, 42
1, 37293, Note_on_c, 0, 58, 0
1, 37317, Note_on_c, 0, 89, 0
1, 37321, Note_on_c, 0, 62, 0
1, 37337, Note_on_c, 0, 77, 49
1, 37353, Note_on_c, 0, 57, 41
1, 37361, Note_on_c, 9, 44, 0
1, 37385, Note_on_c, 0, 57, 0
1, 37389, Note_on_c, 0, 77, 0
1, 37393, Note_on_c, 0, 58, 40
1, 37397, Note_on_c, 0, 89, 45
1, 37413, Note_on_c, 0, 62, 37
1, 37425, Note_on_c, 0, 58, 0
1, 37441, Note_on_c, 0, 89, 0
1, 37457, Note_on_c, 0, 62, 0
1, 37461, Note_on_c, 0, 77, 45
1, 37493, Note_on_c, 0, 57, 37
1, 37505, Note_on_c, 0, 77, 0
1, 37521, Note_on_c, 0, 89, 47
1, 37529, Note_on_c, 0, 57, 0
1, 37553, Note_on_c, 0, 62, 39
1, 37553, Note_on_c, 1, 38, 37
1, 37561, Note_on_c, 0, 58, 22
1, 37569, Note_on_c, 0, 89, 0
1, 37577, Note_on_c, 0, 77, 45
1, 37581, Note_on_c, 1, 38, 0
1, 37593, Note_on_c, 0, 58, 0
1, 37605, Note_on_c, 0, 62, 0
1, 37619, Note_on_c, 9, 28, 38
1, 37629, Note_on_c, 0, 57, 43
1, 37633, Note_on_c, 9, 28, 0
1, 37633, Note_on_c, 0, 77, 0
1, 37641, Note_on_c, 0, 89, 43
1, 37641, Note_on_c, 1, 50, 87
1, 37681, Note_on_c, 0, 57, 0
1, 37689, Note_on_c, 0, 89, 0
1, 37693, Note_on_c, 0, 62, 36
1, 37697, Note_on_c, 0, 77, 46
1, 37749, Note_on_c, 0, 62, 0
1, 37757, Note_on_c, 0, 77, 0
1, 37765, Note_on_c, 0, 89, 43
1, 37777, Note_on_c, 0, 57, 35
1, 37817, Note_on_c, 0, 89, 0
1, 37825, Note_on_c, 0, 77, 45
1, 37841, Note_on_c, 0, 57, 0
1, 37865, Note_on_c, 0, 62, 28
1, 37881, Note_on_c, 0, 77, 0
1, 37893, Note_on_c, 0, 89, 48
1, 37897, Note_on_c, 0, 62, 0
1, 37897, Note_on_c, 1, 38, 39
1, 37929, Note_on_c, 1, 38, 0
1, 37945, Note_on_c, 0, 58, 29
1, 37949, Note_on_c, 0, 77, 46
1, 37953, Note_on_c, 0, 89, 0
1, 37957, Note_on_c, 0, 57, 16
1, 37973, Note_on_c, 1, 31, 0
1, 38001, Note_on_c, 1, 50, 0
1, 38001, Note_on_c, 9, 28, 37
1, 38007, Note_on_c, 9, 44, 105
1, 38017, Note_on_c, 9, 28, 0
1, 38021, Note_on_c, 0, 62, 27
1, 38025, Note_on_c, 1, 49, 69
1, 38033, Note_on_c, 0, 89, 41
1, 38065, Note_on_c, 0, 57, 0
1, 38097, Note_on_c, 9, 44, 0
1, 38113, Note_on_c, 0, 62, 0
1, 38125, Note_on_c, 0, 58, 0
1, 38157, Note_on_c, 0, 89, 0
1, 38225, Note_on_c, 0, 77, 0
1, 38387, Note_on_c, 9, 28, 44
1, 38401, Note_on_c, 9, 28, 0
1, 38441, Note_on_c, 0, 53, 33
1, 38449, Note_on_c, 0, 56, 30
1, 38473, Control_c, 0, 64, 0
1, 38477, Note_on_c, 0, 60, 58
1, 38499, Note_on_c, 9, 46, 26
1, 38525, Note_on_c, 9, 46, 0
1, 38533, Note_on_c, 0, 60, 0
1, 38533, Note_on_c, 0, 61, 49
1, 38581, Note_on_c, 0, 63, 45
1, 38585, Note_on_c, 0, 61, 0
1, 38601, Note_on_c, 0, 63, 0
1, 38625, Note_on_c, 0, 65, 57
1, 38627, Note_on_c, 9, 35, 45
1, 38649, Note_on_c, 1, 37, 94
1, 38665, Note_on_c, 9, 35, 0
1, 38685, Note_on_c, 0, 65, 0
1, 38697, Note_on_c, 0, 67, 47
1, 38725, Note_on_c, 0, 68, 52
1, 38733, Note_on_c, 0, 67, 0
1, 38771, Note_on_c, 9, 46, 22
1, 38771, Note_on_c, 9, 28, 35
1, 38775, Note_on_c, 9, 44, 108
1, 38785, Note_on_c, 9, 28, 0
1, 38785, Note_on_c, 0, 68, 0
1, 38813, Note_on_c, 0, 71, 55
1, 38819, Note_on_c, 9, 46, 0
1, 38869, Note_on_c, 0, 71, 0
1, 38881, Note_on_c, 9, 44, 0
1, 38893, Note_on_c, 1, 34, 70
1, 38909, Note_on_c, 1, 37, 0
1, 38913, Note_on_c, 0, 53, 0
1, 38913, Note_on_c, 0, 73, 55
1, 38937, Note_on_c, 0, 73, 0
1, 38957, Note_on_c, 1, 34, 0
1, 38965, Note_on_c, 0, 74, 32
1, 38977, Note_on_c, 0, 56, 0
1, 39005, Note_on_c, 0, 75, 59
1, 39013, Note_on_c, 1, 34, 29
1, 39017, Note_on_c, 0, 74, 0
1, 39017, Note_on_c, 1, 35, 77
1, 39033, Note_on_c, 1, 34, 0
1, 39047, Note_on_c, 9, 46, 63
1, 39049, Note_on_c, 0, 75, 0
1, 39053, Note_on_c, 0, 76, 46
1, 39093, Note_on_c, 0, 76, 0
1, 39097, Note_on_c, 9, 46, 0
1, 39105, Note_on_c, 0, 77, 63
1, 39133, Note_on_c, 1, 49, 0
1, 39137, Note_on_c, 1, 35, 0
1, 39145, Note_on_c, 1, 36, 84
1, 39155, Note_on_c, 9, 28, 42
1, 39161, Note_on_c, 0, 77, 0
1, 39169, Note_on_c, 9, 28, 0
1, 39173, Note_on_c, 0, 76, 47
1, 39209, Note_on_c, 0, 76, 0
1, 39285, Note_on_c, 0, 73, 37
1, 39335, Note_on_c, 9, 46, 57
1, 39353, Note_on_c, 0, 73, 0
1, 39369, Note_on_c, 0, 72, 43
1, 39383, Note_on_c, 9, 46, 0
1, 39401, Note_on_c, 0, 72, 0
1, 39461, Note_on_c, 0, 70, 58
1, 39481, Note_on_c, 9, 35, 36
1, 39513, Note_on_c, 9, 35, 0
1, 39529, Note_on_c, 0, 70, 0
1, 39539, Note_on_c, 9, 28, 34
1, 39543, Note_on_c, 9, 46, 54
1, 39553, Note_on_c, 9, 28, 0
1, 39557, Note_on_c, 0, 68, 49
1, 39557, Note_on_c, 0, 62, 31
1, 39557, Note_on_c, 0, 58, 35
1, 39589, Note_on_c, 0, 68, 0
1, 39609, Note_on_c, 9, 35, 47
1, 39625, Note_on_c, 9, 46, 0
1, 39635, Note_on_c, 9, 35, 0
1, 39653, Note_on_c, 0, 65, 49
1, 39673, Note_on_c, 0, 65, 0
1, 39689, Note_on_c, 1, 39, 59
1, 39733, Note_on_c, 0, 67, 55
1, 39737, Note_on_c, 0, 58, 0
1, 39773, Note_on_c, 0, 67, 0
1, 39777, Note_on_c, 0, 62, 0
1, 39793, Note_on_c, 1, 39, 0
1, 39795, Note_on_c, 9, 28, 46
1, 39809, Note_on_c, 1, 40, 60
1, 39829, Note_on_c, 0, 68, 60
1, 39831, Note_on_c, 9, 35, 42
1, 39865, Note_on_c, 1, 36, 0
1, 39873, Note_on_c, 9, 35, 0
1, 39885, Note_on_c, 0, 68, 0
1, 39893, Note_on_c, 0, 64, 47
1, 39905, Note_on_c, 1, 40, 0
1, 39909, Note_on_c, 0, 60, 39
1, 39917, Note_on_c, 0, 57, 36
1, 39923, Note_on_c, 9, 28, 49
1, 39925, Note_on_c, 0, 69, 49
1, 39929, Note_on_c, 0, 53, 22
1, 39937, Note_on_c, 9, 28, 0
1, 39937, Note_on_c, 1, 41, 71
1, 40061, Control_c, 0, 64, 127
1, 40109, Note_on_c, 0, 69, 0
1, 40117, Note_on_c, 0, 64, 0
1, 40129, Note_on_c, 0, 60, 0
1, 40165, Note_on_c, 0, 57, 0
1, 40265, Note_on_c, 0, 53, 0
1, 40307, Note_on_c, 9, 28, 43
1, 40311, Note_on_c, 9, 44, 96
1, 40321, Note_on_c, 9, 28, 0
1, 40321, Note_on_c, 9, 28, 0
1, 40329, Note_on_c, 0, 69, 49
1, 40333, Note_on_c, 0, 60, 41
1, 40337, Note_on_c, 0, 64, 45
1, 40433, Note_on_c, 9, 44, 0
1, 40469, Note_on_c, 0, 69, 0
1, 40489, Note_on_c, 0, 60, 0
1, 40489, Note_on_c, 0, 64, 0
1, 40589, Note_on_c, 0, 60, 68
1, 40589, Note_on_c, 0, 69, 63
1, 40593, Note_on_c, 0, 64, 60
1, 40661, Note_on_c, 0, 64, 0
1, 40665, Note_on_c, 0, 60, 0
1, 40665, Note_on_c, 0, 69, 0
1, 40691, Note_on_c, 9, 28, 37
1, 40705, Note_on_c, 9, 28, 0
1, 40705, Note_on_c, 1, 31, 94
1, 40713, Note_on_c, 9, 35, 33
1, 40717, Note_on_c, 1, 41, 0
1, 40745, Note_on_c, 9, 35, 0
1, 40773, Note_on_c, 0, 58, 76
1, 40773, Note_on_c, 0, 69, 62
1, 40781, Note_on_c, 0, 65, 63
1, 40785, Note_on_c, 0, 62, 70
1, 40789, Control_c, 0, 64, 0
1, 40929, Control_c, 0, 64, 127
1, 40929, Note_on_c, 9, 27, 70
1, 40961, Note_on_c, 0, 58, 0
1, 40967, Note_on_c, 9, 27, 0
1, 40969, Note_on_c, 0, 62, 0
1, 40973, Note_on_c, 0, 65, 0
1, 40997, Note_on_c, 0, 69, 0
1, 41075, Note_on_c, 9, 28, 40
1, 41079, Note_on_c, 9, 44, 87
1, 41089, Note_on_c, 9, 28, 0
1, 41097, Control_c, 0, 64, 0
1, 41109, Note_on_c, 0, 70, 75
1, 41113, Note_on_c, 0, 62, 72
1, 41113, Note_on_c, 0, 65, 75
1, 41121, Note_on_c, 0, 58, 66
1, 41149, Control_c, 0, 64, 127
1, 41197, Note_on_c, 0, 68, 12
1, 41217, Note_on_c, 9, 44, 0
1, 41245, Note_on_c, 0, 65, 0
1, 41253, Note_on_c, 0, 58, 0
1, 41261, Note_on_c, 0, 62, 0
1, 41265, Note_on_c, 0, 68, 0
1, 41281, Note_on_c, 0, 70, 0
1, 41337, Note_on_c, 0, 56, 51
1, 41353, Note_on_c, 0, 55, 41
1, 41361, Note_on_c, 0, 56, 0
1, 41369, Control_c, 0, 64, 0
1, 41377, Note_on_c, 0, 72, 85
1, 41377, Note_on_c, 0, 67, 86
1, 41381, Note_on_c, 0, 55, 0
1, 41381, Note_on_c, 0, 64, 85
1, 41385, Note_on_c, 0, 69, 81
1, 41389, Note_on_c, 0, 57, 67
1, 41457, Note_on_c, 1, 31, 0
1, 41459, Note_on_c, 9, 28, 43
1, 41469, Note_on_c, 1, 33, 98
1, 41473, Note_on_c, 9, 28, 0
1, 41509, Control_c, 0, 64, 127
1, 41541, Note_on_c, 0, 57, 0
1, 41549, Note_on_c, 0, 64, 0
1, 41553, Note_on_c, 0, 72, 0
1, 41557, Note_on_c, 0, 69, 0
1, 41557, Note_on_c, 0, 67, 0
1, 41603, Note_on_c, 9, 27, 63
1, 41605, Note_on_c, 0, 67, 58
1, 41609, Note_on_c, 0, 72, 60
1, 41609, Note_on_c, 0, 64, 49
1, 41609, Note_on_c, 0, 69, 51
1, 41613, Note_on_c, 0, 57, 50
1, 41629, Note_on_c, 9, 27, 0
1, 41729, Note_on_c, 9, 27, 66
1, 41763, Note_on_c, 9, 27, 0
1, 41765, Note_on_c, 0, 69, 0
1, 41773, Note_on_c, 0, 57, 0
1, 41777, Note_on_c, 0, 67, 0
1, 41777, Note_on_c, 0, 64, 0
1, 41805, Note_on_c, 0, 72, 0
1, 41821, Control_c, 0, 64, 0
1, 41843, Note_on_c, 9, 28, 39
1, 41847, Note_on_c, 9, 44, 96
1, 41857, Note_on_c, 9, 28, 0
1, 41857, Note_on_c, 0, 72, 46
1, 41857, Note_on_c, 0, 57, 51
1, 41857, Control_c, 0, 64, 127
1, 41861, Note_on_c, 0, 64, 53
1, 41865, Note_on_c, 0, 67, 56
1, 41873, Note_on_c, 0, 69, 48
1, 41937, Note_on_c, 9, 44, 0
1, 42053, Note_on_c, 0, 67, 0
1, 42057, Note_on_c, 0, 57, 0
1, 42061, Note_on_c, 0, 69, 0
1, 42065, Note_on_c, 0, 64, 0
1, 42097, Note_on_c, 1, 33, 0
1, 42103, Note_on_c, 9, 35, 35
1, 42105, Note_on_c, 1, 31, 70
1, 42135, Note_on_c, 9, 35, 0
1, 42145, Note_on_c, 0, 72, 0
1, 42161, Note_on_c, 1, 31, 0
1, 42227, Note_on_c, 9, 28, 37
1, 42237, Control_c, 0, 64, 0
1, 42241, Note_on_c, 9, 28, 0
1, 42241, Note_on_c, 0, 72, 49
1, 42241, Note_on_c, 0, 62, 56
1, 42241, Note_on_c, 1, 34, 90
1, 42245, Note_on_c, 0, 58, 45
1, 42249, Note_on_c, 0, 65, 54
1, 42265, Note_on_c, 0, 62, 0
1, 42265, Note_on_c, 0, 72, 0
1, 42269, Note_on_c, 0, 58, 0
1, 42277, Note_on_c, 0, 65, 0
1, 42329, Note_on_c, 1, 34, 0
1, 42485, Note_on_c, 0, 46, 72
1, 42485, Note_on_c, 0, 61, 70
1, 42485, Note_on_c, 1, 33, 88
1, 42493, Note_on_c, 0, 65, 63
1, 42505, Note_on_c, 0, 61, 0
1, 42513, Note_on_c, 0, 62, 64
1, 42553, Note_on_c, 0, 46, 0
1, 42573, Note_on_c, 0, 65, 0
1, 42585, Note_on_c, 1, 33, 0
1, 42605, Note_on_c, 0, 62, 0
1, 42611, Note_on_c, 9, 28, 42
1, 42613, Note_on_c, 1, 31, 85
1, 42615, Note_on_c, 9, 44, 96
1, 42625, Note_on_c, 9, 28, 0
1, 42637, Note_on_c, 0, 45, 49
1, 42645, Note_on_c, 0, 60, 66
1, 42645, Note_on_c, 0, 65, 31
1, 42669, Note_on_c, 0, 45, 0
1, 42677, Note_on_c, 0, 65, 0
1, 42693, Note_on_c, 0, 60, 0
1, 42727, Note_on_c, 9, 44, 0
1, 42761, Note_on_c, 0, 58, 59
1, 42817, Note_on_c, 0, 58, 0
1, 42857, Control_c, 0, 64, 127
1, 42881, Note_on_c, 9, 35, 35
1, 42913, Note_on_c, 9, 35, 0
1, 42913, Note_on_c, 0, 65, 57
1, 42917, Note_on_c, 0, 41, 57
1, 42921, Note_on_c, 0, 57, 60
1, 42929, Control_c, 0, 64, 0
1, 42965, Note_on_c, 1, 31, 0
1, 42989, Note_on_c, 1, 29, 83
1, 42995, Note_on_c, 9, 28, 35
1, 43009, Note_on_c, 9, 28, 0
1, 43037, Control_c, 0, 64, 127
1, 43153, Note_on_c, 0, 57, 0
1, 43213, Note_on_c, 0, 65, 0
1, 43237, Note_on_c, 0, 41, 0
1, 43245, Note_on_c, 0, 29, 65
1, 43265, Note_on_c, 0, 29, 0
1, 43379, Note_on_c, 9, 28, 41
1, 43383, Note_on_c, 9, 44, 89
1, 43389, Note_on_c, 0, 69, 82
1, 43389, Note_on_c, 0, 60, 83
1, 43393, Note_on_c, 9, 28, 0
1, 43393, Note_on_c, 0, 64, 80
1, 43511, Note_on_c, 9, 44, 0
1, 43529, Note_on_c, 0, 60, 0
1, 43533, Note_on_c, 0, 69, 0
1, 43541, Note_on_c, 0, 64, 0
1, 43621, Note_on_c, 0, 57, 69
1, 43621, Note_on_c, 0, 69, 75
1, 43623, Note_on_c, 9, 35, 42
1, 43625, Note_on_c, 0, 64, 79
1, 43633, Note_on_c, 0, 60, 71
1, 43649, Note_on_c, 9, 35, 0
1, 43665, Note_on_c, 0, 57, 0
1, 43685, Note_on_c, 0, 60, 0
1, 43697, Note_on_c, 0, 64, 0
1, 43729, Note_on_c, 0, 69, 0
1, 43763, Note_on_c, 9, 28, 42
1, 43777, Note_on_c, 9, 28, 0
1, 43777, Control_c, 0, 64, 0
1, 43777, Note_on_c, 0, 62, 73
1, 43781, Note_on_c, 0, 46, 66
1, 43781, Note_on_c, 0, 65, 61
1, 43785, Note_on_c, 0, 56, 57
1, 43861, Control_c, 0, 64, 127
1, 43885, Note_on_c, 1, 46, 57
1, 43889, Note_on_c, 0, 46, 0
1, 43901, Note_on_c, 0, 62, 0
1, 43909, Note_on_c, 0, 56, 0
1, 43921, Note_on_c, 0, 65, 0
1, 44009, Note_on_c, 1, 34, 73
1, 44017, Note_on_c, 1, 29, 0
1, 44033, Note_on_c, 1, 46, 0
1, 44141, Control_c, 0, 64, 0
1, 44141, Note_on_c, 1, 44, 67
1, 44145, Note_on_c, 1, 34, 0
1, 44147, Note_on_c, 9, 28, 42
1, 44149, Note_on_c, 0, 67, 80
1, 44149, Note_on_c, 0, 56, 79
1, 44151, Note_on_c, 0, 84, 99
1, 44151, Note_on_c, 0, 62, 68
1, 44151, Note_on_c, 0, 79, 102
1, 44151, Note_on_c, 0, 72, 99
1, 44151, Note_on_c, 9, 44, 87
1, 44161, Note_on_c, 9, 28, 0
1, 44177, Note_on_c, 0, 65, 25
1, 44201, Control_c, 0, 64, 127
1, 44289, Note_on_c, 9, 44, 0
1, 44305, Note_on_c, 0, 67, 0
1, 44305, Note_on_c, 0, 62, 0
1, 44325, Note_on_c, 0, 65, 0
1, 44361, Note_on_c, 0, 56, 0
1, 44373, Note_on_c, 0, 79, 0
1, 44397, Note_on_c, 1, 44, 0
1, 44397, Note_on_c, 1, 45, 82
1, 44401, Note_on_c, 9, 28, 43
1, 44409, Note_on_c, 0, 72, 0
1, 44437, Note_on_c, 0, 84, 0
1, 44505, Control_c, 0, 64, 0
1, 44529, Note_on_c, 0, 61, 53
1, 44529, Note_on_c, 0, 65, 63
1, 44531, Note_on_c, 9, 28, 27
1, 44533, Note_on_c, 0, 72, 57
1, 44533, Note_on_c, 0, 81, 66
1, 44537, Note_on_c, 0, 77, 66
1, 44537, Note_on_c, 0, 60, 52
1, 44537, Note_on_c, 0, 55, 56
1, 44545, Note_on_c, 9, 28, 0
1, 44553, Note_on_c, 0, 58, 45
1, 44569, Note_on_c, 9, 35, 22
1, 44573, Control_c, 0, 64, 127
1, 44589, Note_on_c, 9, 35, 0
1, 44653, Note_on_c, 1, 40, 57
1, 44657, Note_on_c, 1, 45, 0
1, 44665, Note_on_c, 0, 72, 0
1, 44689, Note_on_c, 0, 55, 0
1, 44693, Note_on_c, 0, 65, 0
1, 44697, Note_on_c, 0, 77, 0
1, 44709, Note_on_c, 0, 61, 0
1, 44709, Note_on_c, 0, 58, 0
1, 44717, Note_on_c, 0, 81, 0
1, 44721, Note_on_c, 0, 60, 0
1, 44729, Note_on_c, 1, 40, 0
1, 44773, Note_on_c, 1, 36, 64
1, 44897, Note_on_c, 1, 36, 0
1, 44897, Note_on_c, 0, 60, 75
1, 44897, Note_on_c, 0, 61, 72
1, 44897, Note_on_c, 0, 96, 92
1, 44897, Note_on_c, 0, 65, 88
1, 44897, Note_on_c, 0, 93, 81
1, 44897, Note_on_c, 0, 84, 80
1, 44897, Note_on_c, 0, 55, 78
1, 44905, Note_on_c, 0, 89, 75
1, 44905, Control_c, 0, 64, 0
1, 44913, Note_on_c, 0, 58, 54
1, 44913, Note_on_c, 1, 37, 68
1, 44915, Note_on_c, 9, 28, 41
1, 44919, Note_on_c, 9, 44, 87
1, 44929, Note_on_c, 9, 28, 0
1, 44929, Note_on_c, 9, 28, 0
1, 44953, Control_c, 0, 64, 127
1, 45063, Note_on_c, 9, 44, 0
1, 45117, Note_on_c, 0, 60, 0
1, 45125, Note_on_c, 0, 55, 0
1, 45129, Note_on_c, 0, 65, 0
1, 45145, Note_on_c, 0, 61, 0
1, 45157, Note_on_c, 0, 96, 0
1, 45157, Note_on_c, 0, 58, 0
1, 45173, Note_on_c, 0, 84, 0
1, 45173, Note_on_c, 0, 89, 0
1, 45201, Note_on_c, 0, 93, 0
1, 45257, Control_c, 0, 64, 0
1, 45281, Note_on_c, 1, 37, 0
1, 45289, Note_on_c, 0, 65, 66
1, 45289, Note_on_c, 0, 54, 62
1, 45289, Note_on_c, 0, 96, 72
1, 45297, Note_on_c, 0, 60, 59
1, 45297, Note_on_c, 0, 93, 56
1, 45297, Note_on_c, 1, 38, 72
1, 45299, Note_on_c, 9, 28, 45
1, 45301, Note_on_c, 0, 84, 50
1, 45301, Note_on_c, 0, 89, 55
1, 45313, Note_on_c, 9, 28, 0
1, 45365, Control_c, 0, 64, 127
1, 45469, Note_on_c, 0, 60, 0
1, 45481, Note_on_c, 0, 65, 0
1, 45521, Note_on_c, 0, 54, 0
1, 45533, Note_on_c, 0, 84, 0
1, 45541, Note_on_c, 0, 96, 0
1, 45541, Note_on_c, 0, 89, 0
1, 45561, Note_on_c, 0, 93, 0
1, 45577, Note_on_c, 9, 35, 36
1, 45619, Note_on_c, 9, 35, 0
1, 45649, Control_c, 0, 64, 56
1, 45653, Control_c, 0, 64, 0
1, 45673, Note_on_c, 0, 54, 53
1, 45677, Note_on_c, 0, 96, 57
1, 45681, Note_on_c, 0, 65, 48
1, 45681, Note_on_c, 0, 60, 51
1, 45683, Note_on_c, 9, 28, 39
1, 45685, Control_c, 0, 64, 127
1, 45685, Note_on_c, 0, 93, 48
1, 45685, Note_on_c, 0, 84, 43
1, 45687, Note_on_c, 9, 44, 84
1, 45689, Note_on_c, 0, 89, 48
1, 45689, Note_on_c, 1, 50, 75
1, 45697, Note_on_c, 9, 28, 0
1, 45729, Note_on_c, 9, 35, 49
1, 45797, Note_on_c, 0, 60, 0
1, 45805, Note_on_c, 0, 65, 0
1, 45821, Note_on_c, 0, 84, 0
1, 45825, Note_on_c, 9, 44, 0
1, 45825, Note_on_c, 0, 96, 0
1, 45845, Note_on_c, 0, 54, 0
1, 45849, Note_on_c, 9, 35, 0
1, 45881, Note_on_c, 0, 93, 0
1, 45901, Note_on_c, 0, 89, 0
1, 45933, Note_on_c, 1, 38, 0
1, 45937, Note_on_c, 1, 37, 54
1, 45961, Note_on_c, 9, 35, 57
1, 45993, Note_on_c, 1, 37, 0
1, 46013, Note_on_c, 9, 35, 0
1, 46033, Control_c, 0, 64, 0
1, 46061, Note_on_c, 1, 50, 0
1, 46065, Note_on_c, 0, 58, 49
1, 46067, Note_on_c, 9, 28, 50
1, 46069, Note_on_c, 0, 92, 57
1, 46069, Note_on_c, 0, 62, 49
1, 46069, Note_on_c, 1, 43, 68
1, 46073, Note_on_c, 0, 84, 48
1, 46077, Note_on_c, 0, 53, 48
1, 46077, Note_on_c, 0, 96, 53
1, 46081, Note_on_c, 9, 28, 0
1, 46181, Note_on_c, 0, 92, 0
1, 46185, Note_on_c, 0, 93, 41
1, 46205, Note_on_c, 0, 53, 0
1, 46205, Note_on_c, 0, 62, 0
1, 46217, Note_on_c, 0, 93, 0
1, 46221, Note_on_c, 0, 96, 0
1, 46225, Note_on_c, 0, 58, 0
1, 46233, Note_on_c, 0, 84, 0
1, 46451, Note_on_c, 9, 28, 38
1, 46453, Note_on_c, 0, 94, 57
1, 46455, Note_on_c, 9, 44, 85
1, 46461, Note_on_c, 0, 58, 44
1, 46461, Note_on_c, 0, 62, 42
1, 46465, Note_on_c, 9, 28, 0
1, 46465, Note_on_c, 0, 82, 40
1, 46465, Note_on_c, 0, 53, 39
1, 46485, Note_on_c, 0, 57, 36
1, 46489, Note_on_c, 0, 91, 31
1, 46551, Note_on_c, 9, 44, 0
1, 46577, Note_on_c, 0, 91, 0
1, 46577, Note_on_c, 0, 94, 0
1, 46581, Note_on_c, 0, 82, 0
1, 46585, Note_on_c, 0, 53, 0
1, 46585, Note_on_c, 0, 58, 0
1, 46589, Note_on_c, 0, 62, 0
1, 46605, Note_on_c, 0, 57, 0
1, 46707, Note_on_c, 9, 28, 41
1, 46821, Note_on_c, 1, 43, 0
1, 46833, Note_on_c, 1, 38, 67
1, 46835, Note_on_c, 9, 28, 48
1, 46849, Note_on_c, 9, 28, 0
1, 46849, Note_on_c, 0, 94, 46
1, 46849, Note_on_c, 0, 62, 31
1, 46857, Note_on_c, 0, 58, 38
1, 46861, Note_on_c, 0, 82, 32
1, 46865, Note_on_c, 0, 57, 36
1, 46869, Note_on_c, 0, 91, 36
1, 46873, Note_on_c, 0, 53, 29
1, 46953, Note_on_c, 0, 53, 0
1, 46969, Note_on_c, 0, 94, 0
1, 46973, Note_on_c, 0, 62, 0
1, 46973, Note_on_c, 0, 91, 0
1, 46973, Note_on_c, 0, 58, 0
1, 46981, Note_on_c, 0, 57, 0
1, 46981, Note_on_c, 0, 82, 0
1, 47219, Note_on_c, 9, 28, 52
1, 47223, Note_on_c, 9, 44, 82
1, 47233, Note_on_c, 9, 28, 0
1, 47233, Note_on_c, 9, 28, 0
1, 47237, Note_on_c, 0, 62, 30
1, 47245, Note_on_c, 0, 94, 46
1, 47245, Note_on_c, 0, 82, 41
1, 47249, Control_c, 0, 64, 127
1, 47249, Note_on_c, 0, 58, 41
1, 47253, Note_on_c, 0, 57, 36
1, 47253, Note_on_c, 0, 53, 33
1, 47273, Note_on_c, 0, 91, 31
1, 47351, Note_on_c, 9, 44, 0
1, 47353, Note_on_c, 0, 58, 0
1, 47365, Note_on_c, 0, 53, 0
1, 47369, Note_on_c, 0, 91, 0
1, 47373, Note_on_c, 0, 62, 0
1, 47373, Note_on_c, 0, 82, 0
1, 47377, Note_on_c, 0, 57, 0
1, 47413, Note_on_c, 0, 94, 0
1, 47473, Note_on_c, 1, 37, 73
1, 47489, Note_on_c, 1, 38, 0
1, 47491, Note_on_c, 9, 35, 59
1, 47557, Control_c, 0, 64, 0
1, 47559, Note_on_c, 9, 35, 0
1, 47603, Note_on_c, 9, 28, 48
1, 47609, Note_on_c, 1, 36, 68
1, 47613, Note_on_c, 1, 37, 0
1, 47617, Note_on_c, 9, 28, 0
1, 47641, Control_c, 0, 64, 127
1, 47861, Note_on_c, 0, 95, 45
1, 47861, Note_on_c, 0, 62, 31
1, 47865, Note_on_c, 0, 90, 46
1, 47869, Note_on_c, 0, 83, 36
1, 47869, Note_on_c, 0, 58, 40
1, 47873, Note_on_c, 0, 52, 36
1, 47949, Note_on_c, 0, 83, 0
1, 47957, Note_on_c, 0, 52, 0
1, 47969, Note_on_c, 0, 95, 0
1, 47981, Note_on_c, 0, 62, 0
1, 47987, Note_on_c, 9, 28, 47
1, 47989, Note_on_c, 0, 58, 0
1, 47991, Note_on_c, 9, 44, 70
1, 47993, Note_on_c, 0, 90, 0
1, 48001, Note_on_c, 9, 28, 0
1, 48037, Note_on_c, 0, 84, 42
1, 48037, Note_on_c, 0, 96, 56
1, 48037, Note_on_c, 0, 62, 41
1, 48041, Note_on_c, 0, 91, 45
1, 48045, Note_on_c, 0, 58, 34
1, 48049, Note_on_c, 9, 44, 0
1, 48053, Note_on_c, 0, 52, 24
1, 48069, Note_on_c, 0, 91, 0
1, 48081, Note_on_c, 0, 52, 0
1, 48085, Note_on_c, 0, 84, 0
1, 48089, Note_on_c, 0, 62, 0
1, 48093, Note_on_c, 0, 96, 0
1, 48093, Note_on_c, 0, 58, 0
1, 48149, Note_on_c, 0, 96, 60
1, 48149, Note_on_c, 0, 62, 51
1, 48153, Note_on_c, 0, 58, 45
1, 48153, Note_on_c, 0, 84, 46
1, 48161, Note_on_c, 0, 52, 47
1, 48161, Note_on_c, 0, 91, 63
1, 48185, Note_on_c, 0, 91, 0
1, 48185, Note_on_c, 0, 52, 0
1, 48197, Note_on_c, 0, 96, 0
1, 48201, Note_on_c, 0, 62, 0
1, 48201, Note_on_c, 0, 84, 0
1, 48209, Note_on_c, 0, 58, 0
1, 48265, Note_on_c, 0, 95, 58
1, 48273, Note_on_c, 0, 83, 46
1, 48281, Note_on_c, 0, 62, 41
1, 48281, Note_on_c, 0, 58, 36
1, 48293, Note_on_c, 0, 52, 35
1, 48309, Control_c, 0, 64, 0
1, 48317, Note_on_c, 0, 52, 0
1, 48321, Note_on_c, 0, 62, 0
1, 48325, Note_on_c, 0, 83, 0
1, 48325, Note_on_c, 0, 95, 0
1, 48325, Control_c, 0, 64, 127
1, 48333, Note_on_c, 0, 58, 0
1, 48371, Note_on_c, 9, 28, 40
1, 48385, Note_on_c, 9, 28, 0
1, 48397, Note_on_c, 0, 96, 66
1, 48401, Note_on_c, 0, 84, 49
1, 48409, Note_on_c, 0, 62, 42
1, 48413, Note_on_c, 0, 58, 39
1, 48433, Note_on_c, 0, 84, 0
1, 48437, Note_on_c, 0, 52, 23
1, 48441, Note_on_c, 0, 96, 0
1, 48445, Note_on_c, 0, 62, 0
1, 48457, Note_on_c, 0, 52, 0
1, 48461, Note_on_c, 0, 58, 0
1, 48505, Note_on_c, 0, 96, 68
1, 48513, Note_on_c, 0, 84, 54
1, 48517, Note_on_c, 0, 58, 48
1, 48517, Note_on_c, 0, 62, 46
1, 48521, Note_on_c, 0, 91, 54
1, 48525, Note_on_c, 0, 52, 39
1, 48549, Note_on_c, 0, 52, 0
1, 48553, Note_on_c, 0, 91, 0
1, 48561, Note_on_c, 0, 96, 0
1, 48561, Note_on_c, 0, 84, 0
1, 48565, Note_on_c, 0, 62, 0
1, 48569, Note_on_c, 0, 58, 0
1, 48625, Note_on_c, 0, 95, 47
1, 48625, Note_on_c, 0, 83, 49
1, 48633, Note_on_c, 0, 89, 52
1, 48633, Note_on_c, 0, 62, 40
1, 48633, Note_on_c, 0, 58, 41
1, 48653, Note_on_c, 0, 52, 33
1, 48669, Note_on_c, 0, 95, 0
1, 48673, Note_on_c, 0, 89, 0
1, 48673, Note_on_c, 0, 83, 0
1, 48673, Note_on_c, 0, 62, 0
1, 48677, Note_on_c, 0, 52, 0
1, 48689, Note_on_c, 0, 58, 0
1, 48753, Note_on_c, 0, 96, 70
1, 48755, Note_on_c, 9, 28, 37
1, 48759, Note_on_c, 0, 62, 42
1, 48759, Note_on_c, 0, 84, 46
1, 48759, Note_on_c, 0, 91, 55
1, 48759, Note_on_c, 0, 58, 48
1, 48759, Note_on_c, 9, 44, 66
1, 48769, Note_on_c, 9, 28, 0
1, 48785, Note_on_c, 9, 35, 31
1, 48789, Note_on_c, 0, 91, 0
1, 48793, Note_on_c, 0, 62, 0
1, 48793, Note_on_c, 0, 84, 0
1, 48801, Note_on_c, 0, 58, 0
1, 48805, Note_on_c, 0, 96, 0
1, 48823, Note_on_c, 9, 35, 0
1, 48865, Note_on_c, 9, 44, 0
1, 48869, Note_on_c, 0, 96, 63
1, 48877, Note_on_c, 0, 58, 43
1, 48877, Note_on_c, 0, 62, 39
1, 48885, Note_on_c, 0, 84, 37
1, 48885, Note_on_c, 0, 91, 48
1, 48905, Note_on_c, 0, 62, 0
1, 48909, Note_on_c, 0, 91, 0
1, 48913, Note_on_c, 0, 58, 0
1, 48913, Note_on_c, 0, 84, 0
1, 48917, Note_on_c, 0, 96, 0
1, 48949, Note_on_c, 1, 36, 0
1, 48985, Note_on_c, 0, 95, 54
1, 48993, Note_on_c, 0, 89, 57
1, 48993, Note_on_c, 0, 83, 43
1, 49001, Note_on_c, 0, 58, 43
1, 49009, Note_on_c, 0, 62, 27
1, 49011, Note_on_c, 9, 28, 42
1, 49013, Note_on_c, 1, 36, 84
1, 49021, Note_on_c, 0, 83, 0
1, 49033, Note_on_c, 9, 35, 52
1, 49037, Note_on_c, 0, 89, 0
1, 49041, Note_on_c, 0, 62, 0
1, 49045, Note_on_c, 0, 95, 0
1, 49049, Note_on_c, 0, 58, 0
1, 49059, Note_on_c, 9, 35, 0
1, 49097, Control_c, 0, 64, 0
1, 49125, Note_on_c, 0, 96, 74
1, 49125, Note_on_c, 0, 91, 63
1, 49125, Note_on_c, 0, 84, 60
1, 49125, Note_on_c, 0, 53, 46
1, 49125, Note_on_c, 0, 57, 49
1, 49125, Note_on_c, 0, 60, 44
1, 49125, Note_on_c, 0, 64, 39
1, 49139, Note_on_c, 9, 28, 40
1, 49153, Note_on_c, 9, 28, 0
1, 49169, Control_c, 0, 64, 127
1, 49281, Note_on_c, 0, 96, 0
1, 49293, Note_on_c, 0, 64, 0
1, 49301, Note_on_c, 0, 91, 0
1, 49321, Note_on_c, 0, 84, 0
1, 49353, Note_on_c, 0, 60, 0
1, 49373, Note_on_c, 0, 57, 0
1, 49417, Note_on_c, 1, 48, 98
1, 49517, Note_on_c, 0, 64, 50
1, 49523, Note_on_c, 9, 28, 35
1, 49525, Note_on_c, 0, 60, 43
1, 49527, Note_on_c, 9, 44, 80
1, 49533, Note_on_c, 0, 57, 41
1, 49537, Note_on_c, 9, 28, 0
1, 49537, Note_on_c, 9, 28, 0
1, 49645, Note_on_c, 9, 44, 0
1, 49795, Note_on_c, 9, 35, 33
1, 49827, Note_on_c, 9, 35, 0
1, 49877, Note_on_c, 1, 48, 0
1, 49907, Note_on_c, 9, 28, 35
1, 49921, Note_on_c, 9, 28, 0
1, 49953, Note_on_c, 1, 48, 75
1, 49961, Note_on_c, 0, 64, 0
1, 49973, Note_on_c, 0, 60, 0
1, 49973, Note_on_c, 0, 57, 0
1, 49997, Note_on_c, 0, 53, 0
1, 50161, Note_on_c, 9, 37, 35
1, 50183, Note_on_c, 9, 37, 0
1, 50193, Note_on_c, 0, 65, 75
1, 50193, Note_on_c, 0, 54, 69
1, 50193, Note_on_c, 0, 60, 68
1, 50217, Control_c, 0, 64, 0
1, 50291, Note_on_c, 9, 28, 41
1, 50295, Note_on_c, 9, 44, 78
1, 50305, Note_on_c, 9, 28, 0
1, 50333, Control_c, 0, 64, 127
1, 50407, Note_on_c, 9, 44, 0
1, 50473, Note_on_c, 0, 77, 117
1, 50525, Note_on_c, 0, 60, 0
1, 50533, Note_on_c, 0, 65, 0
1, 50565, Note_on_c, 0, 77, 0
1, 50577, Note_on_c, 1, 48, 0
1, 50577, Note_on_c, 1, 46, 66
1, 50593, Note_on_c, 0, 77, 45
1, 50593, Note_on_c, 0, 74, 82
1, 50609, Note_on_c, 0, 54, 0
1, 50625, Note_on_c, 1, 46, 0
1, 50629, Note_on_c, 0, 76, 31
1, 50637, Note_on_c, 0, 77, 0
1, 50653, Note_on_c, 0, 76, 0
1, 50661, Note_on_c, 0, 74, 0
1, 50675, Note_on_c, 9, 28, 41
1, 50689, Note_on_c, 9, 28, 0
1, 50705, Control_c, 0, 64, 0
1, 50705, Note_on_c, 1, 48, 74
1, 50717, Note_on_c, 0, 53, 49
1, 50721, Note_on_c, 0, 58, 54
1, 50729, Note_on_c, 0, 64, 39
1, 50733, Note_on_c, 0, 68, 73
1, 50741, Note_on_c, 0, 74, 58
1, 50749, Note_on_c, 1, 36, 0
1, 50821, Note_on_c, 0, 68, 0
1, 50829, Note_on_c, 0, 64, 0
1, 50833, Note_on_c, 0, 69, 44
1, 50869, Note_on_c, 0, 58, 0
1, 50881, Note_on_c, 0, 74, 0
1, 50881, Note_on_c, 0, 69, 0
1, 50905, Note_on_c, 0, 62, 59
1, 50945, Note_on_c, 1, 36, 107
1, 50949, Note_on_c, 1, 48, 0
1, 50961, Note_on_c, 9, 35, 29
1, 50985, Note_on_c, 9, 35, 0
1, 50993, Note_on_c, 0, 62, 0
1, 51021, Note_on_c, 0, 64, 63
1, 51025, Note_on_c, 0, 65, 59
1, 51059, Note_on_c, 9, 28, 41
1, 51063, Note_on_c, 9, 44, 85
1, 51073, Note_on_c, 9, 28, 0
1, 51101, Note_on_c, 0, 64, 0
1, 51109, Control_c, 0, 64, 127
1, 51185, Note_on_c, 0, 53, 0
1, 51191, Note_on_c, 9, 44, 0
1, 51313, Note_on_c, 0, 53, 50
1, 51315, Note_on_c, 9, 28, 40
1, 51345, Note_on_c, 0, 53, 0
1, 51417, Control_c, 0, 64, 0
1, 51421, Note_on_c, 0, 65, 0
1, 51441, Note_on_c, 9, 28, 36
1, 51445, Note_on_c, 0, 58, 47
1, 51447, Note_on_c, 9, 29, 64
1, 51449, Note_on_c, 0, 62, 54
1, 51453, Note_on_c, 0, 52, 49
1, 51453, Note_on_c, 1, 31, 77
1, 51457, Note_on_c, 9, 28, 0
1, 51481, Note_on_c, 1, 36, 0
1, 51593, Note_on_c, 0, 70, 87
1, 51601, Note_on_c, 0, 71, 77
1, 51633, Note_on_c, 0, 62, 0
1, 51645, Note_on_c, 0, 70, 0
1, 51653, Note_on_c, 0, 58, 0
1, 51685, Note_on_c, 0, 71, 0
1, 51725, Note_on_c, 0, 70, 79
1, 51761, Note_on_c, 0, 62, 41
1, 51761, Note_on_c, 0, 58, 42
1, 51793, Note_on_c, 0, 62, 0
1, 51805, Note_on_c, 1, 31, 0
1, 51825, Note_on_c, 0, 70, 0
1, 51827, Note_on_c, 9, 28, 48
1, 51829, Note_on_c, 1, 30, 76
1, 51831, Note_on_c, 9, 44, 85
1, 51841, Note_on_c, 9, 28, 0
1, 51841, Note_on_c, 9, 28, 0
1, 51857, Note_on_c, 0, 68, 62
1, 51885, Note_on_c, 0, 52, 0
1, 51897, Note_on_c, 0, 58, 0
1, 51945, Note_on_c, 0, 68, 0
1, 51959, Note_on_c, 9, 44, 0
1, 51981, Note_on_c, 0, 65, 57
1, 52033, Note_on_c, 0, 65, 0
1, 52041, Control_c, 0, 64, 127
1, 52097, Note_on_c, 0, 63, 54
1, 52177, Control_c, 0, 64, 0
1, 52189, Note_on_c, 0, 63, 0
1, 52197, Note_on_c, 1, 30, 0
1, 52201, Note_on_c, 1, 29, 72
1, 52211, Note_on_c, 9, 51, 127
1, 52215, Note_on_c, 9, 29, 0
1, 52217, Note_on_c, 9, 57, 19
1, 52221, Note_on_c, 0, 57, 43
1, 52225, Note_on_c, 9, 28, 0
1, 52229, Note_on_c, 0, 65, 54
1, 52241, Note_on_c, 0, 53, 36
1, 52241, Note_on_c, 0, 60, 30
1, 52289, Note_on_c, 9, 51, 0
1, 52305, Note_on_c, 9, 35, 40
1, 52329, Note_on_c, 9, 35, 0
1, 52341, Control_c, 0, 64, 127
1, 52353, Control_c, 0, 64, 0
1, 52365, Control_c, 0, 64, 127
1, 52501, Note_on_c, 0, 65, 0
1, 52561, Note_on_c, 1, 29, 0
1, 52589, Note_on_c, 1, 29, 89
1, 52595, Note_on_c, 9, 51, 64
1, 52599, Note_on_c, 9, 44, 91
1, 52721, Note_on_c, 0, 60, 0
1, 52737, Note_on_c, 9, 44, 0
1, 52921, Note_on_c, 9, 51, 0
1, 52973, Note_on_c, 1, 29, 0
1, 52979, Note_on_c, 9, 51, 98
1, 52981, Note_on_c, 1, 36, 68
1, 53049, Note_on_c, 9, 57, 0
1, 53249, Note_on_c, 0, 89, 89
1, 53257, Note_on_c, 1, 32, 48
1, 53281, Note_on_c, 0, 57, 0
1, 53297, Note_on_c, 0, 53, 0
1, 53299, Note_on_c, 9, 51, 0
1, 53305, Note_on_c, 0, 89, 0
1, 53353, Control_c, 0, 64, 0
1, 53363, Note_on_c, 9, 51, 59
1, 53365, Note_on_c, 1, 36, 0
1, 53367, Note_on_c, 9, 44, 98
1, 53369, Note_on_c, 1, 43, 99
1, 53373, Note_on_c, 1, 32, 0
1, 53389, Note_on_c, 0, 73, 57
1, 53479, Note_on_c, 9, 44, 0
1, 53565, Note_on_c, 0, 73, 0
1, 53577, Note_on_c, 9, 51, 0
1, 53609, Note_on_c, 1, 36, 46
1, 53613, Control_c, 0, 64, 127
1, 53619, Note_on_c, 9, 51, 75
1, 53637, Note_on_c, 0, 73, 56
1, 53641, Note_on_c, 9, 35, 28
1, 53661, Note_on_c, 1, 36, 0
1, 53687, Note_on_c, 9, 51, 0
1, 53699, Note_on_c, 9, 35, 0
1, 53713, Note_on_c, 0, 73, 0
1, 53721, Control_c, 0, 64, 0
1, 53737, Note_on_c, 1, 43, 0
1, 53747, Note_on_c, 9, 51, 66
1, 53753, Note_on_c, 1, 41, 73
1, 53761, Note_on_c, 9, 35, 24
1, 53781, Note_on_c, 0, 73, 52
1, 53901, Control_c, 0, 64, 127
1, 53943, Note_on_c, 9, 35, 0
1, 53973, Note_on_c, 0, 73, 0
1, 54021, Note_on_c, 0, 74, 64
1, 54035, Note_on_c, 9, 51, 0
1, 54037, Note_on_c, 1, 36, 43
1, 54039, Note_on_c, 9, 35, 31
1, 54071, Note_on_c, 9, 35, 0
1, 54077, Note_on_c, 1, 41, 0
1, 54081, Note_on_c, 1, 36, 0
1, 54129, Note_on_c, 1, 41, 79
1, 54131, Note_on_c, 9, 51, 64
1, 54135, Note_on_c, 9, 44, 84
1, 54281, Note_on_c, 9, 44, 0
1, 54313, Note_on_c, 9, 51, 0
1, 54329, Note_on_c, 0, 74, 0
1, 54387, Note_on_c, 9, 51, 82
1, 54451, Note_on_c, 9, 51, 0
1, 54515, Note_on_c, 9, 51, 47
1, 54517, Control_c, 0, 64, 0
1, 54521, Note_on_c, 1, 41, 0
1, 54521, Note_on_c, 1, 36, 63
1, 54541, Note_on_c, 0, 67, 52
1, 54541, Note_on_c, 0, 75, 48
1, 54549, Note_on_c, 0, 60, 39
1, 54573, Note_on_c, 0, 67, 0
1, 54577, Note_on_c, 0, 75, 0
1, 54577, Note_on_c, 0, 60, 0
1, 54721, Control_c, 0, 64, 127
1, 54743, Note_on_c, 9, 51, 0
1, 54771, Note_on_c, 9, 53, 64
1, 54773, Note_on_c, 0, 60, 40
1, 54773, Note_on_c, 0, 75, 52
1, 54773, Note_on_c, 1, 39, 90
1, 54781, Note_on_c, 0, 67, 45
1, 54789, Note_on_c, 0, 69, 36
1, 54809, Note_on_c, 1, 36, 0
1, 54813, Note_on_c, 0, 60, 0
1, 54817, Note_on_c, 0, 67, 0
1, 54821, Note_on_c, 0, 69, 0
1, 54825, Note_on_c, 0, 75, 0
1, 54851, Note_on_c, 9, 53, 0
1, 54857, Control_c, 0, 64, 0
1, 54865, Control_c, 0, 64, 127
1, 54881, Note_on_c, 1, 39, 0
1, 54899, Note_on_c, 9, 51, 78
1, 54901, Note_on_c, 1, 40, 77
1, 54903, Note_on_c, 9, 44, 91
1, 54917, Note_on_c, 0, 75, 50
1, 54925, Note_on_c, 0, 67, 39
1, 54929, Note_on_c, 0, 60, 38
1, 54941, Note_on_c, 0, 72, 40
1, 54945, Note_on_c, 0, 69, 39
1, 54985, Note_on_c, 0, 67, 0
1, 54993, Note_on_c, 0, 75, 0
1, 54997, Note_on_c, 0, 69, 0
1, 55001, Note_on_c, 0, 72, 0
1, 55005, Note_on_c, 0, 60, 0
1, 55047, Note_on_c, 9, 44, 0
1, 55047, Note_on_c, 9, 34, 66
1, 55085, Note_on_c, 9, 34, 0
1, 55145, Note_on_c, 0, 60, 39
1, 55153, Note_on_c, 1, 36, 73
1, 55157, Note_on_c, 0, 75, 41
1, 55161, Note_on_c, 0, 67, 39
1, 55161, Note_on_c, 0, 72, 39
1, 55181, Note_on_c, 1, 40, 0
1, 55197, Note_on_c, 0, 72, 0
1, 55205, Note_on_c, 0, 67, 0
1, 55213, Note_on_c, 0, 60, 0
1, 55225, Note_on_c, 9, 51, 0
1, 55245, Note_on_c, 0, 75, 0
1, 55257, Control_c, 0, 64, 0
1, 55273, Note_on_c, 1, 36, 0
1, 55273, Note_on_c, 1, 41, 74
1, 55283, Note_on_c, 9, 51, 84
1, 55293, Note_on_c, 0, 61, 51
1, 55297, Note_on_c, 0, 76, 54
1, 55301, Note_on_c, 0, 67, 45
1, 55305, Note_on_c, 0, 70, 50
1, 55313, Control_c, 0, 64, 127
1, 55393, Note_on_c, 0, 61, 0
1, 55417, Note_on_c, 0, 67, 0
1, 55425, Note_on_c, 0, 76, 0
1, 55449, Note_on_c, 0, 70, 0
1, 55525, Note_on_c, 1, 36, 57
1, 55533, Control_c, 0, 64, 0
1, 55537, Note_on_c, 0, 69, 47
1, 55545, Note_on_c, 0, 62, 56
1, 55545, Note_on_c, 0, 72, 55
1, 55549, Note_on_c, 0, 77, 56
1, 55585, Note_on_c, 1, 36, 0
1, 55607, Note_on_c, 9, 51, 0
1, 55625, Note_on_c, 1, 41, 0
1, 55625, Control_c, 0, 64, 127
1, 55657, Note_on_c, 0, 62, 0
1, 55657, Note_on_c, 0, 72, 0
1, 55657, Note_on_c, 0, 77, 0
1, 55657, Note_on_c, 1, 48, 78
1, 55667, Note_on_c, 9, 51, 75
1, 55671, Note_on_c, 9, 44, 99
1, 55689, Note_on_c, 0, 69, 0
1, 55689, Note_on_c, 9, 35, 17
1, 55793, Note_on_c, 9, 44, 0
1, 55843, Note_on_c, 9, 35, 0
1, 55875, Note_on_c, 9, 51, 0
1, 55901, Note_on_c, 1, 36, 42
1, 55921, Note_on_c, 0, 76, 75
1, 55921, Note_on_c, 9, 51, 75
1, 55925, Note_on_c, 0, 60, 54
1, 55925, Note_on_c, 0, 67, 68
1, 55929, Note_on_c, 0, 69, 63
1, 55939, Note_on_c, 9, 35, 26
1, 55949, Note_on_c, 1, 36, 0
1, 55969, Note_on_c, 0, 76, 0
1, 55971, Note_on_c, 9, 35, 0
1, 55975, Note_on_c, 9, 51, 0
1, 55981, Note_on_c, 0, 69, 0
1, 55989, Note_on_c, 0, 67, 0
1, 55993, Control_c, 0, 64, 24
1, 55993, Control_c, 0, 64, 0
1, 56001, Note_on_c, 1, 48, 0
1, 56037, Note_on_c, 0, 60, 0
1, 56041, Note_on_c, 1, 46, 83
1, 56051, Note_on_c, 9, 51, 87
1, 56065, Note_on_c, 0, 72, 57
1, 56069, Note_on_c, 0, 57, 54
1, 56069, Note_on_c, 0, 67, 46
1, 56081, Note_on_c, 0, 64, 44
1, 56089, Note_on_c, 0, 69, 44
1, 56101, Control_c, 0, 64, 127
1, 56121, Note_on_c, 0, 69, 0
1, 56133, Note_on_c, 0, 72, 0
1, 56145, Note_on_c, 0, 67, 0
1, 56165, Note_on_c, 0, 64, 0
1, 56229, Note_on_c, 0, 57, 0
1, 56297, Note_on_c, 0, 69, 58
1, 56305, Note_on_c, 0, 53, 47
1, 56305, Note_on_c, 0, 65, 56
1, 56317, Note_on_c, 0, 60, 31
1, 56321, Note_on_c, 0, 64, 35
1, 56329, Note_on_c, 0, 53, 0
1, 56353, Note_on_c, 0, 64, 0
1, 56355, Note_on_c, 9, 51, 0
1, 56365, Note_on_c, 0, 65, 0
1, 56373, Note_on_c, 0, 60, 0
1, 56381, Note_on_c, 0, 69, 0
1, 56393, Control_c, 0, 64, 0
1, 56417, Note_on_c, 1, 44, 84
1, 56421, Note_on_c, 1, 46, 0
1, 56433, Note_on_c, 0, 46, 48
1, 56435, Note_on_c, 9, 51, 73
1, 56439, Note_on_c, 9, 44, 96
1, 56441, Note_on_c, 0, 60, 46
1, 56441, Note_on_c, 0, 56, 35
1, 56445, Note_on_c, 0, 64, 50
1, 56449, Note_on_c, 0, 67, 52
1, 56501, Control_c, 0, 64, 127
1, 56601, Note_on_c, 0, 56, 0
1, 56609, Note_on_c, 9, 44, 0
1, 56629, Note_on_c, 0, 60, 0
1, 56629, Note_on_c, 0, 64, 0
1, 56637, Note_on_c, 0, 46, 0
1, 56659, Note_on_c, 9, 51, 0
1, 56691, Note_on_c, 9, 51, 75
1, 56695, Note_on_c, 9, 35, 24
1, 56737, Note_on_c, 9, 35, 0
1, 56743, Note_on_c, 9, 51, 0
1, 56749, Note_on_c, 0, 67, 0
1, 56777, Note_on_c, 1, 44, 0
1, 56777, Control_c, 0, 64, 0
1, 56801, Note_on_c, 1, 45, 68
1, 56817, Note_on_c, 9, 35, 33
1, 56819, Note_on_c, 9, 51, 77
1, 56829, Note_on_c, 0, 60, 48
1, 56829, Note_on_c, 0, 45, 40
1, 56829, Note_on_c, 0, 55, 35
1, 56833, Note_on_c, 0, 64, 48
1, 56849, Control_c, 0, 64, 127
1, 56993, Note_on_c, 0, 60, 0
1, 57017, Note_on_c, 9, 35, 0
1, 57033, Note_on_c, 0, 55, 0
1, 57045, Note_on_c, 0, 64, 0
1, 57057, Note_on_c, 0, 60, 60
1, 57091, Note_on_c, 9, 35, 36
1, 57113, Note_on_c, 9, 51, 0
1, 57117, Note_on_c, 9, 35, 0
1, 57129, Note_on_c, 0, 60, 0
1, 57157, Note_on_c, 0, 61, 58
1, 57193, Note_on_c, 1, 38, 82
1, 57197, Note_on_c, 1, 45, 0
1, 57201, Note_on_c, 0, 55, 26
1, 57203, Note_on_c, 9, 51, 87
1, 57207, Note_on_c, 9, 44, 98
1, 57209, Control_c, 0, 64, 0
1, 57213, Note_on_c, 0, 61, 0
1, 57265, Note_on_c, 0, 45, 0
1, 57265, Note_on_c, 0, 65, 56
1, 57313, Note_on_c, 0, 55, 0
1, 57329, Note_on_c, 0, 65, 0
1, 57357, Note_on_c, 0, 70, 61
1, 57367, Note_on_c, 9, 44, 0
1, 57417, Note_on_c, 9, 51, 0
1, 57433, Note_on_c, 0, 70, 0
1, 57457, Note_on_c, 0, 72, 68
1, 57459, Note_on_c, 9, 51, 70
1, 57495, Note_on_c, 9, 51, 0
1, 57537, Note_on_c, 0, 72, 0
1, 57549, Note_on_c, 0, 73, 63
1, 57573, Note_on_c, 1, 44, 88
1, 57577, Note_on_c, 0, 60, 38
1, 57585, Note_on_c, 0, 54, 41
1, 57587, Note_on_c, 9, 51, 75
1, 57593, Note_on_c, 0, 50, 35
1, 57605, Note_on_c, 0, 73, 0
1, 57605, Note_on_c, 1, 38, 0
1, 57665, Note_on_c, 0, 76, 50
1, 57725, Note_on_c, 0, 50, 0
1, 57737, Note_on_c, 0, 76, 0
1, 57745, Note_on_c, 0, 54, 0
1, 57765, Note_on_c, 0, 78, 62
1, 57767, Note_on_c, 9, 51, 0
1, 57773, Note_on_c, 0, 60, 0
1, 57833, Note_on_c, 0, 78, 0
1, 57843, Note_on_c, 9, 51, 77
1, 57857, Note_on_c, 0, 84, 77
1, 57865, Note_on_c, 9, 51, 0
1, 57873, Note_on_c, 1, 38, 40
1, 57885, Note_on_c, 1, 44, 0
1, 57917, Note_on_c, 1, 38, 0
1, 57929, Note_on_c, 0, 84, 0
1, 57953, Note_on_c, 1, 44, 85
1, 57969, Note_on_c, 9, 40, 59
1, 57971, Note_on_c, 9, 51, 112
1, 57973, Note_on_c, 0, 54, 49
1, 57973, Note_on_c, 0, 65, 43
1, 57975, Note_on_c, 9, 46, 42
1, 57981, Note_on_c, 0, 60, 47
1, 57987, Note_on_c, 9, 40, 0
1, 57993, Note_on_c, 0, 80, 26
1, 58013, Note_on_c, 0, 80, 0
1, 58077, Note_on_c, 0, 81, 68
1, 58087, Note_on_c, 9, 46, 0
1, 58117, Note_on_c, 0, 65, 0
1, 58133, Note_on_c, 0, 60, 0
1, 58149, Note_on_c, 0, 81, 0
1, 58173, Note_on_c, 0, 84, 80
1, 58185, Note_on_c, 9, 51, 0
1, 58201, Note_on_c, 0, 54, 0
1, 58201, Note_on_c, 9, 40, 70
1, 58205, Note_on_c, 1, 38, 55
1, 58233, Note_on_c, 1, 38, 0
1, 58237, Note_on_c, 0, 84, 0
1, 58249, Note_on_c, 9, 40, 0
1, 58253, Note_on_c, 0, 81, 72
1, 58309, Note_on_c, 0, 81, 0
1, 58341, Note_on_c, 0, 77, 68
1, 58345, Note_on_c, 0, 58, 46
1, 58355, Note_on_c, 9, 51, 99
1, 58361, Note_on_c, 0, 53, 22
1, 58365, Note_on_c, 0, 62, 14
1, 58373, Note_on_c, 0, 57, 26
1, 58401, Note_on_c, 0, 77, 0
1, 58433, Note_on_c, 0, 74, 61
1, 58449, Note_on_c, 1, 43, 63
1, 58449, Note_on_c, 9, 35, 40
1, 58473, Note_on_c, 9, 35, 0
1, 58477, Note_on_c, 1, 44, 0
1, 58481, Note_on_c, 0, 74, 0
1, 58489, Note_on_c, 1, 43, 0
1, 58525, Note_on_c, 0, 70, 47
1, 58577, Note_on_c, 1, 38, 74
1, 58593, Note_on_c, 0, 70, 0
1, 58593, Note_on_c, 0, 62, 0
1, 58605, Note_on_c, 0, 58, 0
1, 58609, Note_on_c, 0, 69, 43
1, 58647, Note_on_c, 9, 51, 0
1, 58673, Note_on_c, 0, 69, 0
1, 58693, Note_on_c, 1, 38, 0
1, 58701, Note_on_c, 0, 65, 57
1, 58713, Note_on_c, 1, 34, 68
1, 58737, Note_on_c, 0, 65, 0
1, 58739, Note_on_c, 9, 51, 64
1, 58743, Note_on_c, 9, 44, 91
1, 58753, Note_on_c, 0, 53, 0
1, 58769, Note_on_c, 0, 58, 39
1, 58769, Note_on_c, 0, 62, 29
1, 58805, Note_on_c, 0, 77, 71
1, 58821, Note_on_c, 0, 62, 0
1, 58833, Note_on_c, 0, 58, 0
1, 58877, Note_on_c, 0, 57, 0
1, 58877, Note_on_c, 0, 77, 0
1, 58881, Note_on_c, 9, 44, 0
1, 58897, Note_on_c, 0, 74, 59
1, 58945, Note_on_c, 0, 74, 0
1, 58993, Note_on_c, 0, 70, 62
1, 59057, Note_on_c, 0, 70, 0
1, 59065, Note_on_c, 9, 51, 0
1, 59085, Note_on_c, 1, 34, 0
1, 59085, Note_on_c, 0, 65, 61
1, 59105, Note_on_c, 1, 31, 68
1, 59123, Note_on_c, 9, 51, 98
1, 59125, Note_on_c, 0, 58, 39
1, 59149, Note_on_c, 0, 65, 0
1, 59197, Note_on_c, 0, 58, 0
1, 59221, Note_on_c, 0, 65, 49
1, 59377, Note_on_c, 0, 65, 0
1, 59443, Note_on_c, 9, 51, 0
1, 59493, Note_on_c, 1, 37, 66
1, 59501, Note_on_c, 0, 62, 56
1, 59505, Note_on_c, 0, 57, 40
1, 59505, Note_on_c, 0, 58, 36
1, 59507, Note_on_c, 9, 51, 59
1, 59511, Note_on_c, 9, 44, 98
1, 59517, Note_on_c, 1, 31, 0
1, 59581, Note_on_c, 0, 62, 0
1, 59617, Note_on_c, 0, 63, 46
1, 59623, Note_on_c, 9, 44, 0
1, 59677, Note_on_c, 0, 63, 0
1, 59681, Note_on_c, 0, 57, 0
1, 59681, Note_on_c, 0, 58, 0
1, 59721, Note_on_c, 9, 51, 0
1, 59725, Note_on_c, 0, 64, 57
1, 59757, Note_on_c, 1, 34, 46
1, 59763, Note_on_c, 9, 51, 75
1, 59785, Note_on_c, 9, 35, 28
1, 59825, Note_on_c, 0, 64, 0
1, 59831, Note_on_c, 9, 51, 0
1, 59833, Note_on_c, 1, 37, 0
1, 59843, Note_on_c, 9, 35, 0
1, 59845, Note_on_c, 0, 72, 75
1, 59861, Note_on_c, 1, 34, 0
1, 59873, Note_on_c, 1, 36, 67
1, 59891, Note_on_c, 9, 51, 66
1, 59905, Note_on_c, 9, 35, 24
1, 59949, Note_on_c, 0, 58, 31
1, 59949, Note_on_c, 0, 52, 33
1, 59961, Note_on_c, 0, 72, 0
1, 59969, Note_on_c, 0, 70, 63
1, 60021, Note_on_c, 0, 52, 0
1, 60033, Note_on_c, 0, 58, 0
1, 60087, Note_on_c, 9, 35, 0
1, 60179, Note_on_c, 9, 51, 0
1, 60183, Note_on_c, 9, 35, 31
1, 60209, Note_on_c, 1, 36, 0
1, 60215, Note_on_c, 9, 35, 0
1, 60245, Note_on_c, 1, 36, 74
1, 60269, Note_on_c, 0, 63, 51
1, 60275, Note_on_c, 9, 51, 64
1, 60279, Note_on_c, 9, 44, 84
1, 60285, Note_on_c, 0, 58, 44
1, 60297, Note_on_c, 0, 52, 32
1, 60425, Note_on_c, 9, 44, 0
1, 60433, Control_c, 0, 64, 127
1, 60457, Note_on_c, 9, 51, 0
1, 60517, Note_on_c, 0, 63, 0
1, 60531, Note_on_c, 9, 51, 82
1, 60557, Note_on_c, 0, 52, 0
1, 60595, Note_on_c, 9, 51, 0
1, 60597, Note_on_c, 0, 58, 0
1, 60621, Control_c, 0, 64, 0
1, 60633, Note_on_c, 1, 34, 73
1, 60649, Note_on_c, 1, 36, 0
1, 60657, Note_on_c, 0, 58, 36
1, 60657, Note_on_c, 0, 62, 40
1, 60659, Note_on_c, 9, 51, 47
1, 60665, Note_on_c, 0, 66, 45
1, 60665, Note_on_c, 0, 64, 46
1, 60673, Note_on_c, 0, 52, 25
1, 60813, Note_on_c, 0, 62, 0
1, 60817, Note_on_c, 0, 64, 0
1, 60829, Control_c, 0, 64, 24
1, 60829, Control_c, 0, 64, 127
1, 60849, Note_on_c, 0, 58, 0
1, 60865, Note_on_c, 0, 66, 0
1, 60869, Note_on_c, 1, 34, 0
1, 60887, Note_on_c, 9, 51, 0
1, 60889, Note_on_c, 0, 52, 0
1, 60901, Note_on_c, 1, 33, 72
1, 60905, Note_on_c, 0, 70, 0
1, 60913, Note_on_c, 0, 67, 72
1, 60915, Note_on_c, 9, 53, 64
1, 60985, Note_on_c, 1, 33, 0
1, 60989, Control_c, 0, 64, 0
1, 60995, Note_on_c, 9, 53, 0
1, 61029, Note_on_c, 0, 58, 46
1, 61033, Note_on_c, 1, 32, 69
1, 61037, Note_on_c, 0, 62, 40
1, 61041, Note_on_c, 0, 69, 65
1, 61043, Note_on_c, 9, 51, 78
1, 61047, Note_on_c, 9, 44, 91
1, 61065, Note_on_c, 0, 67, 0
1, 61093, Control_c, 0, 64, 127
1, 61105, Note_on_c, 0, 58, 0
1, 61121, Note_on_c, 0, 69, 0
1, 61125, Note_on_c, 0, 62, 0
1, 61161, Note_on_c, 0, 70, 63
1, 61191, Note_on_c, 9, 44, 0
1, 61191, Note_on_c, 9, 34, 66
1, 61229, Note_on_c, 9, 34, 0
1, 61245, Note_on_c, 0, 70, 0
1, 61285, Note_on_c, 0, 72, 72
1, 61369, Note_on_c, 9, 51, 0
1, 61369, Control_c, 0, 64, 0
1, 61409, Note_on_c, 0, 65, 48
1, 61409, Note_on_c, 0, 61, 41
1, 61413, Note_on_c, 0, 72, 0
1, 61413, Note_on_c, 0, 73, 65
1, 61413, Note_on_c, 0, 60, 41
1, 61427, Note_on_c, 9, 51, 84
1, 61429, Note_on_c, 0, 55, 42
1, 61437, Note_on_c, 0, 58, 35
1, 61505, Note_on_c, 0, 73, 0
1, 61549, Note_on_c, 0, 77, 72
1, 61597, Note_on_c, 0, 55, 0
1, 61605, Note_on_c, 0, 65, 0
1, 61617, Note_on_c, 0, 58, 0
1, 61617, Note_on_c, 0, 60, 0
1, 61617, Control_c, 0, 64, 127
1, 61621, Note_on_c, 0, 61, 0
1, 61633, Note_on_c, 0, 77, 0
1, 61669, Note_on_c, 0, 82, 88
1, 61741, Control_c, 0, 64, 0
1, 61751, Note_on_c, 9, 51, 0
1, 61765, Note_on_c, 0, 82, 0
1, 61785, Note_on_c, 1, 32, 0
1, 61789, Control_c, 0, 64, 127
1, 61789, Note_on_c, 0, 65, 58
1, 61789, Note_on_c, 0, 84, 84
1, 61789, Note_on_c, 0, 60, 59
1, 61789, Note_on_c, 0, 61, 52
1, 61801, Note_on_c, 0, 55, 48
1, 61805, Note_on_c, 1, 36, 72
1, 61811, Note_on_c, 9, 51, 75
1, 61815, Note_on_c, 9, 44, 99
1, 61817, Note_on_c, 0, 58, 37
1, 61833, Note_on_c, 9, 35, 17
1, 61845, Note_on_c, 0, 58, 0
1, 61853, Note_on_c, 0, 55, 0
1, 61861, Note_on_c, 0, 65, 0
1, 61893, Note_on_c, 0, 61, 0
1, 61897, Note_on_c, 0, 84, 0
1, 61905, Note_on_c, 0, 60, 0
1, 61933, Note_on_c, 0, 86, 66
1, 61937, Note_on_c, 9, 44, 0
1, 61969, Note_on_c, 0, 86, 0
1, 61987, Note_on_c, 9, 35, 0
1, 62019, Note_on_c, 9, 51, 0
1, 62049, Note_on_c, 0, 87, 84
1, 62053, Note_on_c, 0, 61, 39
1, 62057, Note_on_c, 0, 55, 45
1, 62061, Note_on_c, 0, 65, 27
1, 62061, Note_on_c, 1, 34, 48
1, 62065, Note_on_c, 9, 51, 75
1, 62081, Note_on_c, 0, 58, 32
1, 62083, Note_on_c, 9, 35, 26
1, 62085, Note_on_c, 0, 65, 0
1, 62085, Note_on_c, 0, 55, 0
1, 62097, Note_on_c, 0, 61, 0
1, 62109, Note_on_c, 0, 58, 0
1, 62115, Note_on_c, 9, 35, 0
1, 62119, Note_on_c, 9, 51, 0
1, 62141, Note_on_c, 0, 87, 0
1, 62149, Note_on_c, 1, 34, 0
1, 62153, Control_c, 0, 64, 0
1, 62177, Note_on_c, 0, 65, 63
1, 62181, Note_on_c, 0, 54, 60
1, 62185, Note_on_c, 0, 89, 81
1, 62185, Note_on_c, 0, 77, 81
1, 62185, Note_on_c, 0, 82, 51
1, 62193, Note_on_c, 1, 36, 0
1, 62193, Note_on_c, 0, 60, 63
1, 62195, Note_on_c, 1, 50, 86
1, 62195, Note_on_c, 9, 51, 87
1, 62205, Note_on_c, 0, 86, 39
1, 62209, Note_on_c, 0, 82, 0
1, 62233, Control_c, 0, 64, 127
1, 62357, Note_on_c, 0, 86, 0
1, 62377, Note_on_c, 0, 89, 0
1, 62393, Note_on_c, 0, 65, 0
1, 62401, Note_on_c, 0, 77, 0
1, 62433, Note_on_c, 0, 54, 0
1, 62481, Note_on_c, 0, 60, 0
1, 62499, Note_on_c, 9, 51, 0
1, 62569, Control_c, 0, 64, 0
1, 62577, Note_on_c, 1, 38, 75
1, 62579, Note_on_c, 9, 51, 73
1, 62581, Note_on_c, 0, 73, 72
1, 62583, Note_on_c, 9, 44, 96
1, 62585, Note_on_c, 1, 50, 0
1, 62589, Note_on_c, 0, 54, 57
1, 62593, Note_on_c, 0, 65, 53
1, 62593, Note_on_c, 0, 60, 56
1, 62605, Note_on_c, 0, 86, 58
1, 62625, Control_c, 0, 64, 88
1, 62629, Note_on_c, 0, 73, 0
1, 62629, Control_c, 0, 64, 127
1, 62633, Note_on_c, 0, 84, 27
1, 62633, Note_on_c, 0, 74, 57
1, 62713, Note_on_c, 0, 65, 0
1, 62721, Note_on_c, 0, 84, 0
1, 62725, Note_on_c, 0, 86, 0
1, 62725, Note_on_c, 0, 60, 0
1, 62753, Note_on_c, 9, 44, 0
1, 62765, Note_on_c, 0, 74, 0
1, 62777, Note_on_c, 0, 54, 0
1, 62803, Note_on_c, 9, 51, 0
1, 62835, Note_on_c, 9, 51, 75
1, 62839, Note_on_c, 9, 35, 24
1, 62881, Note_on_c, 9, 35, 0
1, 62887, Note_on_c, 9, 51, 0
1, 62917, Control_c, 0, 64, 0
1, 62957, Note_on_c, 0, 68, 63
1, 62957, Note_on_c, 1, 46, 75
1, 62961, Note_on_c, 0, 80, 54
1, 62961, Note_on_c, 9, 35, 33
1, 62963, Note_on_c, 0, 62, 48
1, 62963, Note_on_c, 9, 51, 77
1, 62965, Note_on_c, 0, 53, 43
1, 62969, Note_on_c, 0, 58, 45
1, 62981, Note_on_c, 1, 38, 0
1, 62981, Note_on_c, 0, 74, 44
1, 62985, Note_on_c, 0, 57, 32
1, 62997, Note_on_c, 0, 68, 0
1, 63005, Note_on_c, 0, 77, 35
1, 63021, Note_on_c, 0, 69, 34
1, 63025, Control_c, 0, 64, 127
1, 63065, Note_on_c, 0, 80, 0
1, 63081, Note_on_c, 0, 77, 0
1, 63113, Note_on_c, 0, 74, 0
1, 63117, Note_on_c, 0, 62, 0
1, 63137, Note_on_c, 0, 69, 0
1, 63153, Note_on_c, 0, 58, 0
1, 63161, Note_on_c, 0, 53, 0
1, 63161, Note_on_c, 9, 35, 0
1, 63173, Note_on_c, 0, 57, 0
1, 63225, Note_on_c, 1, 37, 54
1, 63235, Note_on_c, 9, 35, 36
1, 63257, Note_on_c, 9, 51, 0
1, 63261, Note_on_c, 9, 35, 0
1, 63273, Note_on_c, 1, 37, 0
1, 63297, Note_on_c, 1, 46, 0
1, 63309, Control_c, 0, 64, 0
1, 63325, Control_c, 0, 64, 127
1, 63333, Note_on_c, 0, 62, 45
1, 63337, Note_on_c, 1, 49, 83
1, 63341, Note_on_c, 0, 65, 55
1, 63341, Note_on_c, 0, 58, 44
1, 63345, Note_on_c, 0, 70, 48
1, 63347, Note_on_c, 9, 51, 87
1, 63349, Note_on_c, 0, 53, 34
1, 63349, Note_on_c, 0, 74, 47
1, 63351, Note_on_c, 9, 44, 98
1, 63353, Note_on_c, 0, 57, 38
1, 63357, Note_on_c, 0, 77, 26
1, 63377, Note_on_c, 0, 53, 0
1, 63381, Note_on_c, 0, 57, 0
1, 63401, Note_on_c, 0, 65, 0
1, 63401, Note_on_c, 0, 62, 0
1, 63405, Note_on_c, 0, 77, 0
1, 63413, Note_on_c, 0, 58, 0
1, 63413, Note_on_c, 0, 74, 0
1, 63425, Note_on_c, 0, 70, 0
1, 63511, Note_on_c, 9, 44, 0
1, 63561, Note_on_c, 9, 51, 0
1, 63603, Note_on_c, 9, 51, 70
1, 63639, Note_on_c, 9, 51, 0
1, 63705, Note_on_c, 1, 49, 0
1, 63721, Control_c, 0, 64, 0
1, 63721, Note_on_c, 1, 48, 68
1, 63729, Note_on_c, 0, 76, 94
1, 63731, Note_on_c, 9, 51, 75
1, 63733, Note_on_c, 0, 73, 77
1, 63733, Note_on_c, 0, 64, 79
1, 63737, Note_on_c, 0, 65, 78
1, 63737, Note_on_c, 0, 67, 77
1, 63749, Note_on_c, 0, 63, 36
1, 63753, Note_on_c, 0, 67, 0
1, 63773, Note_on_c, 0, 63, 0
1, 63797, Note_on_c, 0, 76, 0
1, 63801, Note_on_c, 0, 65, 0
1, 63817, Note_on_c, 0, 73, 0
1, 63841, Note_on_c, 0, 64, 0
1, 63849, Note_on_c, 0, 63, 58
1, 63857, Note_on_c, 0, 75, 72
1, 63869, Note_on_c, 0, 73, 42
1, 63869, Note_on_c, 0, 68, 57
1, 63869, Note_on_c, 0, 65, 39
1, 63909, Note_on_c, 0, 73, 0
1, 63911, Note_on_c, 9, 51, 0
1, 63917, Note_on_c, 0, 75, 0
1, 63917, Note_on_c, 0, 65, 0
1, 63929, Note_on_c, 0, 68, 0
1, 63945, Note_on_c, 0, 63, 0
1, 63969, Note_on_c, 0, 64, 66
1, 63969, Note_on_c, 0, 74, 64
1, 63973, Note_on_c, 0, 62, 50
1, 63987, Note_on_c, 9, 51, 77
1, 63993, Note_on_c, 0, 67, 40
1, 63993, Note_on_c, 0, 70, 37
1, 63993, Note_on_c, 1, 40, 111
1, 64009, Note_on_c, 9, 51, 0
1, 64009, Note_on_c, 0, 74, 0
1, 64021, Note_on_c, 0, 67, 0
1, 64025, Note_on_c, 0, 64, 0
1, 64029, Note_on_c, 0, 70, 0
1, 64041, Note_on_c, 1, 48, 0
1, 64073, Note_on_c, 0, 62, 0
1, 64101, Note_on_c, 0, 61, 51
1, 64101, Note_on_c, 0, 73, 64
1, 64109, Note_on_c, 0, 64, 55
1, 64113, Note_on_c, 9, 40, 59
1, 64115, Note_on_c, 9, 51, 112
1, 64119, Note_on_c, 9, 46, 42
1, 64121, Note_on_c, 1, 43, 87
1, 64125, Note_on_c, 0, 67, 33
1, 64131, Note_on_c, 9, 40, 0
1, 64133, Note_on_c, 0, 70, 37
1, 64145, Note_on_c, 1, 40, 0
1, 64161, Note_on_c, 0, 70, 0
1, 64161, Note_on_c, 0, 64, 0
1, 64161, Note_on_c, 0, 73, 0
1, 64165, Note_on_c, 0, 67, 0
1, 64165, Note_on_c, 0, 61, 0
1, 64229, Control_c, 0, 64, 127
1, 64231, Note_on_c, 9, 46, 0
1, 64233, Note_on_c, 0, 60, 29
1, 64293, Note_on_c, 0, 60, 0
1, 64297, Note_on_c, 0, 58, 37
1, 64329, Note_on_c, 9, 51, 0
1, 64333, Note_on_c, 1, 43, 0
1, 64333, Control_c, 0, 64, 0
1, 64345, Note_on_c, 9, 40, 70
1, 64357, Note_on_c, 0, 58, 0
1, 64357, Note_on_c, 1, 42, 77
1, 64369, Note_on_c, 0, 72, 78
1, 64369, Note_on_c, 0, 67, 77
1, 64373, Note_on_c, 0, 62, 73
1, 64385, Note_on_c, 0, 57, 61
1, 64393, Note_on_c, 9, 40, 0
1, 64457, Control_c, 0, 64, 127
1, 64469, Note_on_c, 1, 42, 0
1, 64489, Note_on_c, 1, 41, 67
1, 64499, Note_on_c, 9, 51, 99
1, 64519, Note_on_c, 9, 35, 22
1, 64549, Note_on_c, 0, 72, 0
1, 64553, Note_on_c, 0, 67, 0
1, 64557, Note_on_c, 9, 35, 0
1, 64589, Note_on_c, 1, 41, 0
1, 64621, Note_on_c, 1, 36, 45
1, 64649, Note_on_c, 0, 62, 0
1, 64681, Note_on_c, 1, 36, 0
1, 64729, Note_on_c, 1, 33, 71
1, 64791, Note_on_c, 9, 51, 0
1, 64841, Note_on_c, 0, 57, 0
1, 64845, Note_on_c, 1, 33, 0
1, 64845, Control_c, 0, 64, 0
1, 64861, Control_c, 0, 64, 127
1, 64865, Note_on_c, 0, 53, 50
1, 64865, Note_on_c, 1, 36, 77
1, 64867, Note_on_c, 9, 35, 36
1, 64869, Note_on_c, 0, 69, 55
1, 64883, Note_on_c, 9, 51, 73
1, 64885, Note_on_c, 0, 60, 40
1, 64885, Note_on_c, 0, 64, 46
1, 64887, Note_on_c, 9, 44, 70
1, 64981, Note_on_c, 0, 53, 0
1, 64989, Note_on_c, 0, 69, 0
1, 64997, Note_on_c, 0, 64, 0
1, 65033, Note_on_c, 0, 60, 0
1, 65057, Note_on_c, 9, 44, 0
1, 65081, Note_on_c, 9, 35, 0
1, 65097, Note_on_c, 9, 51, 0
1, 65139, Note_on_c, 9, 51, 56
1, 65209, Note_on_c, 9, 51, 0
1, 65261, Control_c, 0, 64, 0
1, 65261, Note_on_c, 0, 56, 51
1, 65265, Note_on_c, 1, 36, 0
1, 65267, Note_on_c, 9, 51, 82
1, 65269, Note_on_c, 0, 49, 56
1, 65269, Note_on_c, 1, 34, 68
1, 65277, Note_on_c, 0, 58, 51
1, 65289, Note_on_c, 0, 55, 31
1, 65349, Note_on_c, 0, 55, 0
1, 65353, Note_on_c, 0, 56, 0
1, 65401, Note_on_c, 0, 50, 51
1, 65425, Note_on_c, 0, 58, 0
1, 65427, Note_on_c, 9, 51, 0
1, 65509, Note_on_c, 0, 50, 0
1, 65513, Note_on_c, 0, 49, 0
1, 65521, Note_on_c, 0, 58, 57
1, 65521, Note_on_c, 0, 65, 60
1, 65523, Note_on_c, 9, 51, 75
1, 65527, Note_on_c, 9, 35, 24
1, 65529, Note_on_c, 0, 62, 48
1, 65533, Note_on_c, 0, 53, 61
1, 65543, Note_on_c, 9, 51, 0
1, 65543, Note_on_c, 0, 55, 36
1, 65549, Note_on_c, 9, 35, 0
1, 65569, Note_on_c, 0, 58, 0
1, 65569, Note_on_c, 0, 55, 0
1, 65577, Note_on_c, 0, 65, 0
1, 65581, Note_on_c, 0, 62, 0
1, 65589, Note_on_c, 0, 53, 0
1, 65621, Note_on_c, 1, 34, 0
1, 65633, Note_on_c, 1, 38, 72
1, 65649, Note_on_c, 9, 35, 54
1, 65651, Note_on_c, 9, 51, 124
1, 65653, Note_on_c, 0, 57, 79
1, 65655, Note_on_c, 9, 44, 82
1, 65665, Note_on_c, 0, 69, 69
1, 65665, Note_on_c, 0, 68, 51
1, 65677, Note_on_c, 0, 62, 56
1, 65685, Note_on_c, 0, 65, 43
1, 65717, Note_on_c, 0, 65, 0
1, 65757, Note_on_c, 0, 62, 0
1, 65757, Note_on_c, 0, 69, 0
1, 65765, Note_on_c, 0, 68, 0
1, 65781, Note_on_c, 0, 57, 0
1, 65789, Note_on_c, 0, 53, 48
1, 65793, Note_on_c, 0, 65, 43
1, 65809, Note_on_c, 9, 44, 0
1, 65813, Note_on_c, 0, 65, 0
1, 65849, Note_on_c, 0, 53, 0
1, 65859, Note_on_c, 9, 35, 0
1, 65897, Note_on_c, 1, 34, 52
1, 65905, Note_on_c, 9, 35, 54
1, 65913, Note_on_c, 0, 66, 56
1, 65913, Note_on_c, 0, 67, 70
1, 65917, Note_on_c, 0, 55, 68
1, 65921, Note_on_c, 1, 38, 0
1, 65921, Note_on_c, 0, 64, 60
1, 65921, Note_on_c, 0, 57, 54
1, 65921, Note_on_c, 0, 60, 63
1, 65929, Note_on_c, 9, 51, 0
1, 65975, Note_on_c, 9, 35, 0
1, 65993, Note_on_c, 1, 34, 0
1, 66021, Note_on_c, 1, 36, 68
1, 66035, Note_on_c, 9, 51, 91
1, 66057, Note_on_c, 0, 64, 0
1, 66069, Note_on_c, 0, 57, 0
1, 66073, Note_on_c, 0, 60, 0
1, 66105, Note_on_c, 0, 67, 0
1, 66133, Note_on_c, 0, 64, 52
1, 66141, Note_on_c, 0, 55, 0
1, 66141, Note_on_c, 0, 60, 57
1, 66141, Note_on_c, 0, 57, 55
1, 66141, Note_on_c, 0, 52, 57
1, 66185, Control_c, 0, 64, 127
1, 66237, Note_on_c, 0, 66, 0
1, 66237, Note_on_c, 0, 64, 0
1, 66253, Note_on_c, 0, 57, 0
1, 66257, Note_on_c, 0, 60, 0
1, 66281, Note_on_c, 1, 34, 44
1, 66329, Note_on_c, 9, 51, 0
1, 66369, Note_on_c, 0, 52, 0
1, 66373, Control_c, 0, 64, 0
1, 66401, Note_on_c, 0, 60, 56
1, 66405, Note_on_c, 0, 57, 55
1, 66405, Note_on_c, 0, 55, 52
1, 66409, Note_on_c, 0, 48, 50
1, 66413, Note_on_c, 1, 45, 76
1, 66419, Note_on_c, 9, 51, 78
1, 66421, Note_on_c, 1, 34, 0
1, 66423, Note_on_c, 9, 44, 91
1, 66425, Note_on_c, 1, 36, 0
1, 66469, Note_on_c, 0, 57, 0
1, 66469, Note_on_c, 0, 55, 0
1, 66469, Note_on_c, 0, 48, 0
1, 66473, Note_on_c, 0, 60, 0
1, 66513, Control_c, 0, 64, 104
1, 66513, Control_c, 0, 64, 127
1, 66545, Note_on_c, 9, 44, 0
1, 66627, Note_on_c, 9, 51, 0
1, 66661, Note_on_c, 0, 67, 81
1, 66665, Note_on_c, 0, 60, 85
1, 66669, Note_on_c, 0, 55, 73
1, 66673, Note_on_c, 0, 57, 55
1, 66675, Note_on_c, 9, 51, 82
1, 66681, Note_on_c, 0, 59, 61
1, 66697, Note_on_c, 0, 59, 0
1, 66697, Note_on_c, 1, 36, 40
1, 66717, Note_on_c, 0, 57, 0
1, 66723, Note_on_c, 9, 51, 0
1, 66725, Note_on_c, 0, 55, 0
1, 66725, Note_on_c, 0, 60, 0
1, 66733, Note_on_c, 0, 67, 0
1, 66741, Note_on_c, 1, 45, 0
1, 66797, Note_on_c, 1, 46, 78
1, 66801, Control_c, 0, 64, 0
1, 66803, Note_on_c, 1, 36, 0
1, 66803, Note_on_c, 9, 51, 56
1, 66825, Note_on_c, 0, 58, 72
1, 66825, Note_on_c, 0, 65, 72
1, 66829, Note_on_c, 0, 62, 66
1, 66833, Note_on_c, 0, 55, 66
1, 66853, Note_on_c, 0, 52, 46
1, 66905, Note_on_c, 9, 34, 40
1, 66917, Note_on_c, 0, 52, 0
1, 66947, Note_on_c, 9, 34, 0
1, 66961, Note_on_c, 0, 62, 0
1, 66981, Note_on_c, 0, 55, 0
1, 67001, Note_on_c, 0, 58, 0
1, 67011, Note_on_c, 9, 51, 0
1, 67021, Note_on_c, 0, 65, 0
1, 67037, Note_on_c, 0, 53, 45
1, 67045, Note_on_c, 1, 36, 50
1, 67047, Note_on_c, 9, 35, 36
1, 67053, Note_on_c, 0, 62, 61
1, 67057, Note_on_c, 0, 58, 50
1, 67057, Note_on_c, 0, 55, 67
1, 67059, Note_on_c, 9, 51, 50
1, 67079, Note_on_c, 9, 35, 0
1, 67091, Note_on_c, 9, 51, 0
1, 67113, Note_on_c, 1, 36, 0
1, 67121, Note_on_c, 1, 46, 0
1, 67125, Note_on_c, 0, 58, 0
1, 67137, Note_on_c, 0, 53, 0
1, 67137, Note_on_c, 0, 55, 0
1, 67149, Note_on_c, 1, 47, 85
1, 67157, Note_on_c, 0, 62, 0
1, 67177, Note_on_c, 9, 34, 28
1, 67187, Note_on_c, 9, 51, 85
1, 67191, Note_on_c, 9, 44, 89
1, 67193, Note_on_c, 0, 58, 55
1, 67197, Note_on_c, 0, 50, 48
1, 67213, Note_on_c, 0, 55, 39
1, 67229, Control_c, 0, 64, 127
1, 67233, Note_on_c, 9, 34, 0
1, 67289, Note_on_c, 0, 50, 0
1, 67309, Note_on_c, 0, 55, 0
1, 67313, Note_on_c, 9, 44, 0
1, 67315, Note_on_c, 9, 35, 54
1, 67321, Note_on_c, 0, 58, 0
1, 67337, Note_on_c, 9, 35, 0
1, 67417, Note_on_c, 1, 41, 45
1, 67425, Note_on_c, 0, 65, 63
1, 67425, Note_on_c, 0, 58, 74
1, 67425, Note_on_c, 9, 34, 52
1, 67429, Note_on_c, 0, 53, 60
1, 67437, Note_on_c, 0, 55, 66
1, 67453, Note_on_c, 1, 41, 0
1, 67465, Note_on_c, 9, 34, 0
1, 67465, Note_on_c, 9, 51, 0
1, 67477, Note_on_c, 0, 65, 0
1, 67477, Note_on_c, 0, 53, 0
1, 67505, Note_on_c, 0, 55, 0
1, 67517, Note_on_c, 1, 47, 0
1, 67517, Control_c, 0, 64, 0
1, 67521, Note_on_c, 0, 58, 0
1, 67537, Note_on_c, 1, 48, 81
1, 67571, Note_on_c, 9, 51, 94
1, 67573, Note_on_c, 0, 64, 52
1, 67573, Note_on_c, 0, 57, 53
1, 67581, Note_on_c, 0, 52, 50
1, 67585, Note_on_c, 0, 55, 47
1, 67585, Note_on_c, 0, 60, 38
1, 67677, Note_on_c, 0, 55, 0
1, 67689, Control_c, 0, 64, 127
1, 67761, Note_on_c, 0, 60, 0
1, 67785, Note_on_c, 0, 57, 0
1, 67801, Note_on_c, 1, 41, 31
1, 67809, Note_on_c, 0, 64, 0
1, 67833, Note_on_c, 1, 41, 0
1, 67869, Note_on_c, 0, 52, 0
1, 67879, Note_on_c, 9, 51, 0
1, 67885, Control_c, 0, 64, 0
1, 67909, Note_on_c, 1, 48, 0
1, 67929, Note_on_c, 1, 45, 75
1, 67937, Note_on_c, 0, 60, 55
1, 67941, Note_on_c, 0, 48, 54
1, 67941, Note_on_c, 0, 55, 42
1, 67941, Note_on_c, 0, 57, 48
1, 67955, Note_on_c, 9, 51, 68
1, 67959, Note_on_c, 9, 44, 80
1, 67977, Control_c, 0, 64, 127
1, 68001, Note_on_c, 0, 55, 0
1, 68009, Note_on_c, 0, 48, 0
1, 68045, Note_on_c, 0, 60, 0
1, 68053, Note_on_c, 0, 57, 0
1, 68097, Note_on_c, 9, 44, 0
1, 68165, Note_on_c, 1, 41, 35
1, 68179, Note_on_c, 9, 51, 0
1, 68193, Note_on_c, 1, 41, 0
1, 68211, Note_on_c, 9, 51, 59
1, 68275, Note_on_c, 9, 51, 0
1, 68313, Note_on_c, 1, 45, 0
1, 68325, Note_on_c, 1, 46, 81
1, 68339, Note_on_c, 9, 51, 73
1, 68585, Note_on_c, 9, 35, 75
1, 68589, Note_on_c, 0, 65, 50
1, 68593, Note_on_c, 0, 62, 43
1, 68597, Note_on_c, 0, 60, 49
1, 68597, Note_on_c, 0, 55, 45
1, 68659, Note_on_c, 9, 51, 0
1, 68689, Note_on_c, 9, 35, 0
1, 68709, Control_c, 0, 64, 0
1, 68717, Note_on_c, 1, 41, 73
1, 68721, Note_on_c, 1, 46, 0
1, 68723, Note_on_c, 9, 51, 87
1, 68727, Note_on_c, 9, 44, 98
1, 68729, Note_on_c, 0, 86, 102
1, 68739, Note_on_c, 9, 35, 26
1, 68791, Note_on_c, 9, 35, 0
1, 68833, Note_on_c, 0, 86, 0
1, 68837, Note_on_c, 0, 65, 0
1, 68837, Note_on_c, 0, 85, 71
1, 68845, Control_c, 0, 64, 127
1, 68853, Note_on_c, 0, 62, 0
1, 68865, Note_on_c, 9, 44, 0
1, 68873, Note_on_c, 0, 60, 0
1, 68913, Note_on_c, 0, 85, 0
1, 68937, Note_on_c, 9, 51, 0
1, 68941, Note_on_c, 0, 86, 92
1, 68953, Note_on_c, 1, 41, 0
1, 68957, Note_on_c, 1, 34, 78
1, 68979, Note_on_c, 9, 51, 57
1, 68985, Note_on_c, 0, 55, 0
1, 69037, Note_on_c, 0, 86, 0
1, 69047, Note_on_c, 9, 51, 0
1, 69081, Control_c, 0, 64, 0
1, 69085, Note_on_c, 1, 33, 80
1, 69105, Note_on_c, 1, 34, 0
1, 69105, Note_on_c, 0, 84, 94
1, 69105, Note_on_c, 0, 64, 48
1, 69107, Note_on_c, 9, 51, 94
1, 69109, Note_on_c, 0, 60, 46
1, 69109, Note_on_c, 0, 55, 36
1, 69113, Note_on_c, 0, 57, 46
1, 69185, Note_on_c, 0, 84, 0
1, 69221, Note_on_c, 0, 86, 55
1, 69269, Note_on_c, 0, 84, 59
1, 69293, Note_on_c, 0, 64, 0
1, 69305, Note_on_c, 0, 86, 0
1, 69319, Note_on_c, 9, 51, 0
1, 69325, Note_on_c, 1, 33, 0
1, 69341, Note_on_c, 1, 40, 86
1, 69345, Note_on_c, 0, 84, 0
1, 69349, Note_on_c, 0, 55, 0
1, 69353, Note_on_c, 0, 81, 54
1, 69361, Note_on_c, 0, 60, 0
1, 69363, Note_on_c, 9, 51, 61
1, 69369, Note_on_c, 0, 57, 0
1, 69415, Note_on_c, 9, 51, 0
1, 69421, Note_on_c, 0, 81, 0
1, 69453, Note_on_c, 1, 40, 0
1, 69457, Note_on_c, 0, 82, 81
1, 69473, Note_on_c, 1, 36, 73
1, 69485, Note_on_c, 0, 64, 42
1, 69491, Note_on_c, 9, 51, 98
1, 69493, Note_on_c, 0, 55, 36
1, 69493, Note_on_c, 0, 60, 38
1, 69495, Note_on_c, 9, 44, 80
1, 69513, Note_on_c, 0, 57, 30
1, 69545, Note_on_c, 0, 82, 0
1, 69561, Note_on_c, 0, 83, 66
1, 69633, Note_on_c, 0, 83, 0
1, 69633, Note_on_c, 0, 55, 0
1, 69637, Note_on_c, 0, 60, 0
1, 69649, Note_on_c, 9, 44, 0
1, 69661, Note_on_c, 0, 84, 67
1, 69669, Note_on_c, 0, 64, 0
1, 69677, Note_on_c, 0, 57, 0
1, 69713, Note_on_c, 1, 36, 0
1, 69725, Note_on_c, 0, 84, 0
1, 69725, Note_on_c, 1, 37, 78
1, 69751, Note_on_c, 9, 35, 54
1, 69753, Note_on_c, 0, 85, 66
1, 69779, Note_on_c, 9, 51, 0
1, 69783, Note_on_c, 9, 35, 0
1, 69825, Note_on_c, 0, 85, 0
1, 69849, Note_on_c, 0, 86, 73
1, 69853, Note_on_c, 0, 54, 52
1, 69857, Note_on_c, 1, 37, 0
1, 69857, Note_on_c, 0, 65, 46
1, 69861, Note_on_c, 0, 60, 47
1, 69861, Note_on_c, 1, 38, 67
1, 69875, Note_on_c, 9, 51, 70
1, 69879, Note_on_c, 9, 35, 36
1, 69913, Note_on_c, 9, 35, 0
1, 69921, Note_on_c, 0, 86, 0
1, 69953, Note_on_c, 0, 87, 73
1, 70061, Note_on_c, 0, 65, 0
1, 70073, Note_on_c, 0, 60, 0
1, 70101, Note_on_c, 1, 51, 88
1, 70113, Note_on_c, 0, 54, 0
1, 70115, Note_on_c, 9, 51, 0
1, 70131, Note_on_c, 9, 51, 45
1, 70199, Note_on_c, 9, 51, 0
1, 70237, Note_on_c, 0, 54, 42
1, 70241, Note_on_c, 0, 60, 39
1, 70245, Note_on_c, 0, 50, 39
1, 70249, Control_c, 0, 64, 127
1, 70259, Note_on_c, 9, 51, 80
1, 70263, Note_on_c, 9, 44, 87
1, 70321, Note_on_c, 0, 50, 0
1, 70345, Note_on_c, 1, 51, 0
1, 70345, Note_on_c, 0, 54, 0
1, 70369, Note_on_c, 0, 60, 0
1, 70369, Note_on_c, 1, 38, 0
1, 70381, Note_on_c, 1, 50, 68
1, 70391, Note_on_c, 9, 44, 0
1, 70397, Note_on_c, 1, 51, 43
1, 70401, Note_on_c, 9, 35, 52
1, 70421, Note_on_c, 1, 51, 0
1, 70423, Note_on_c, 9, 35, 0
1, 70457, Note_on_c, 9, 51, 0
1, 70469, Note_on_c, 1, 50, 0
1, 70489, Note_on_c, 0, 87, 0
1, 70501, Note_on_c, 1, 48, 67
1, 70515, Note_on_c, 9, 51, 47
1, 70519, Note_on_c, 9, 35, 47
1, 70521, Note_on_c, 0, 86, 77
1, 70545, Note_on_c, 9, 35, 0
1, 70563, Note_on_c, 9, 51, 0
1, 70569, Note_on_c, 1, 48, 0
1, 70629, Control_c, 0, 64, 0
1, 70641, Note_on_c, 1, 46, 60
1, 70643, Note_on_c, 9, 51, 108
1, 70645, Note_on_c, 0, 86, 0
1, 70653, Note_on_c, 0, 58, 39
1, 70653, Note_on_c, 0, 53, 31
1, 70657, Note_on_c, 0, 62, 25
1, 70665, Note_on_c, 0, 81, 50
1, 70669, Note_on_c, 0, 57, 33
1, 70869, Control_c, 0, 64, 127
1, 70877, Note_on_c, 0, 81, 0
1, 70885, Note_on_c, 0, 58, 0
1, 70897, Note_on_c, 0, 53, 0
1, 70897, Note_on_c, 1, 42, 57
1, 70905, Note_on_c, 0, 84, 70
1, 70909, Note_on_c, 0, 62, 0
1, 70921, Note_on_c, 0, 57, 0
1, 70925, Note_on_c, 1, 42, 0
1, 70979, Note_on_c, 9, 51, 0
1, 70993, Note_on_c, 0, 84, 0
1, 70997, Note_on_c, 1, 46, 0
1, 70997, Control_c, 0, 64, 0
1, 71021, Note_on_c, 1, 45, 73
1, 71025, Note_on_c, 9, 51, 68
1, 71031, Note_on_c, 9, 44, 89
1, 71037, Note_on_c, 0, 58, 44
1, 71041, Note_on_c, 0, 62, 35
1, 71049, Note_on_c, 0, 82, 51
1, 71065, Note_on_c, 0, 57, 22
1, 71097, Note_on_c, 0, 62, 0
1, 71101, Note_on_c, 0, 58, 0
1, 71121, Note_on_c, 9, 44, 0
1, 71193, Note_on_c, 0, 57, 0
1, 71225, Note_on_c, 9, 51, 0
1, 71233, Note_on_c, 1, 38, 29
1, 71269, Note_on_c, 1, 38, 0
1, 71277, Note_on_c, 0, 82, 0
1, 71281, Note_on_c, 9, 51, 64
1, 71293, Note_on_c, 0, 73, 57
1, 71353, Note_on_c, 9, 51, 0
1, 71385, Note_on_c, 1, 45, 0
1, 71409, Note_on_c, 1, 43, 62
1, 71411, Note_on_c, 9, 51, 77
1, 71425, Note_on_c, 0, 62, 31
1, 71429, Note_on_c, 0, 58, 40
1, 71457, Note_on_c, 0, 58, 0
1, 71457, Note_on_c, 0, 62, 0
1, 71639, Note_on_c, 9, 35, 57
1, 71653, Control_c, 0, 64, 127
1, 71657, Note_on_c, 0, 73, 0
1, 71661, Note_on_c, 1, 38, 61
1, 71665, Note_on_c, 9, 35, 0
1, 71669, Note_on_c, 1, 43, 0
1, 71681, Note_on_c, 0, 74, 57
1, 71689, Note_on_c, 9, 51, 0
1, 71773, Control_c, 0, 64, 0
1, 71785, Note_on_c, 1, 38, 0
1, 71793, Note_on_c, 1, 34, 65
1, 71795, Note_on_c, 9, 51, 64
1, 71799, Note_on_c, 9, 44, 117
1, 71821, Note_on_c, 0, 63, 55
1, 71829, Note_on_c, 0, 59, 47
1, 71837, Note_on_c, 0, 53, 42
1, 71885, Note_on_c, 9, 44, 0
1, 71897, Control_c, 0, 64, 127
1, 71961, Note_on_c, 9, 51, 0
1, 72001, Note_on_c, 0, 59, 0
1, 72007, Note_on_c, 9, 35, 68
1, 72045, Note_on_c, 9, 35, 0
1, 72049, Note_on_c, 0, 63, 0
1, 72051, Note_on_c, 9, 51, 84
1, 72073, Note_on_c, 0, 53, 0
1, 72119, Note_on_c, 9, 51, 0
1, 72137, Note_on_c, 9, 46, 52
1, 72145, Note_on_c, 9, 35, 64
1, 72165, Note_on_c, 1, 34, 0
1, 72177, Note_on_c, 1, 36, 68
1, 72179, Note_on_c, 9, 51, 87
1, 72181, Control_c, 0, 64, 0
1, 72197, Note_on_c, 0, 62, 37
1, 72201, Note_on_c, 0, 74, 0
1, 72205, Note_on_c, 0, 58, 32
1, 72221, Note_on_c, 9, 46, 0
1, 72237, Note_on_c, 0, 62, 0
1, 72261, Note_on_c, 0, 58, 0
1, 72263, Note_on_c, 9, 35, 0
1, 72309, Note_on_c, 0, 85, 59
1, 72321, Note_on_c, 0, 73, 43
1, 72401, Note_on_c, 0, 73, 0
1, 72401, Note_on_c, 0, 85, 0
1, 72441, Note_on_c, 0, 74, 65
1, 72441, Note_on_c, 1, 34, 43
1, 72449, Note_on_c, 0, 86, 57
1, 72453, Note_on_c, 0, 79, 57
1, 72453, Note_on_c, 0, 82, 51
1, 72467, Note_on_c, 9, 51, 0
1, 72505, Note_on_c, 0, 74, 0
1, 72517, Note_on_c, 0, 79, 0
1, 72525, Note_on_c, 0, 86, 0
1, 72533, Note_on_c, 0, 82, 0
1, 72533, Note_on_c, 1, 50, 87
1, 72541, Note_on_c, 1, 36, 0
1, 72561, Note_on_c, 0, 62, 46
1, 72563, Note_on_c, 9, 51, 87
1, 72565, Note_on_c, 1, 34, 0
1, 72567, Note_on_c, 9, 44, 112
1, 72569, Note_on_c, 0, 58, 40
1, 72597, Note_on_c, 0, 62, 0
1, 72609, Note_on_c, 0, 58, 0
1, 72613, Note_on_c, 0, 89, 76
1, 72613, Note_on_c, 0, 77, 66
1, 72653, Note_on_c, 0, 77, 0
1, 72657, Note_on_c, 9, 44, 0
1, 72665, Note_on_c, 0, 89, 0
1, 72725, Note_on_c, 0, 89, 69
1, 72733, Note_on_c, 0, 77, 60
1, 72769, Note_on_c, 0, 89, 0
1, 72773, Note_on_c, 0, 77, 0
1, 72793, Control_c, 0, 64, 127
1, 72819, Note_on_c, 9, 35, 47
1, 72833, Note_on_c, 0, 74, 60
1, 72837, Note_on_c, 0, 86, 46
1, 72851, Note_on_c, 9, 35, 0
1, 72853, Note_on_c, 0, 74, 0
1, 72873, Note_on_c, 9, 51, 0
1, 72885, Note_on_c, 0, 86, 0
1, 72885, Control_c, 0, 64, 0
1, 72917, Note_on_c, 1, 50, 0
1, 72917, Note_on_c, 0, 58, 43
1, 72921, Note_on_c, 0, 62, 39
1, 72937, Note_on_c, 1, 48, 68
1, 72947, Note_on_c, 9, 51, 82
1, 72957, Note_on_c, 0, 62, 0
1, 72961, Note_on_c, 0, 89, 73
1, 72977, Note_on_c, 0, 77, 40
1, 72981, Note_on_c, 0, 58, 0
1, 73001, Note_on_c, 0, 77, 0
1, 73005, Note_on_c, 0, 89, 0
1, 73073, Note_on_c, 0, 89, 66
1, 73085, Note_on_c, 0, 84, 49
1, 73085, Note_on_c, 0, 77, 50
1, 73101, Note_on_c, 0, 89, 0
1, 73105, Note_on_c, 0, 84, 0
1, 73113, Note_on_c, 0, 77, 0
1, 73193, Note_on_c, 0, 86, 56
1, 73197, Note_on_c, 0, 74, 43
1, 73201, Note_on_c, 1, 39, 57
1, 73209, Note_on_c, 0, 81, 46
1, 73217, Control_c, 0, 64, 127
1, 73225, Note_on_c, 1, 48, 0
1, 73237, Note_on_c, 0, 74, 0
1, 73237, Note_on_c, 0, 81, 0
1, 73253, Note_on_c, 0, 86, 0
1, 73261, Control_c, 0, 64, 0
1, 73267, Note_on_c, 9, 51, 0
1, 73293, Note_on_c, 1, 39, 0
1, 73313, Note_on_c, 0, 62, 46
1, 73317, Note_on_c, 0, 89, 80
1, 73317, Note_on_c, 1, 40, 61
1, 73325, Note_on_c, 0, 58, 40
1, 73325, Note_on_c, 0, 77, 56
1, 73329, Note_on_c, 0, 52, 34
1, 73331, Note_on_c, 9, 51, 73
1, 73335, Note_on_c, 9, 44, 105
1, 73337, Note_on_c, 0, 84, 42
1, 73357, Note_on_c, 0, 52, 0
1, 73357, Note_on_c, 0, 77, 0
1, 73361, Note_on_c, 0, 84, 0
1, 73365, Note_on_c, 0, 89, 0
1, 73365, Note_on_c, 0, 62, 0
1, 73389, Note_on_c, 0, 58, 0
1, 73421, Control_c, 0, 64, 127
1, 73433, Note_on_c, 0, 89, 64
1, 73445, Note_on_c, 0, 77, 57
1, 73447, Note_on_c, 9, 44, 0
1, 73453, Note_on_c, 0, 84, 50
1, 73465, Note_on_c, 0, 89, 0
1, 73469, Note_on_c, 0, 77, 0
1, 73469, Note_on_c, 0, 84, 0
1, 73469, Control_c, 0, 64, 0
1, 73501, Control_c, 0, 64, 127
1, 73577, Note_on_c, 0, 86, 68
1, 73577, Note_on_c, 0, 80, 64
1, 73581, Note_on_c, 0, 74, 56
1, 73603, Note_on_c, 9, 35, 49
1, 73613, Note_on_c, 0, 80, 0
1, 73617, Note_on_c, 0, 81, 58
1, 73633, Note_on_c, 0, 86, 0
1, 73641, Note_on_c, 0, 74, 0
1, 73641, Note_on_c, 0, 81, 0
1, 73651, Note_on_c, 9, 51, 0
1, 73667, Note_on_c, 9, 35, 0
1, 73677, Control_c, 0, 64, 0
1, 73693, Note_on_c, 1, 40, 0
1, 73701, Note_on_c, 0, 53, 41
1, 73713, Note_on_c, 1, 41, 60
1, 73715, Note_on_c, 9, 51, 73
1, 73725, Note_on_c, 0, 53, 0
1, 73745, Note_on_c, 0, 68, 51
1, 73745, Note_on_c, 0, 80, 50
1, 73747, Note_on_c, 9, 35, 24
1, 73795, Note_on_c, 9, 35, 0
1, 73829, Note_on_c, 0, 74, 18
1, 73861, Control_c, 0, 64, 127
1, 73865, Note_on_c, 0, 74, 0
1, 73881, Note_on_c, 0, 80, 0
1, 73881, Note_on_c, 0, 68, 0
1, 73949, Note_on_c, 1, 41, 0
1, 73957, Note_on_c, 1, 35, 65
1, 73977, Note_on_c, 0, 77, 62
1, 73985, Note_on_c, 0, 65, 45
1, 74009, Note_on_c, 0, 65, 0
1, 74021, Note_on_c, 0, 77, 0
1, 74039, Note_on_c, 9, 51, 0
1, 74057, Control_c, 0, 64, 0
1, 74081, Note_on_c, 1, 35, 0
1, 74093, Note_on_c, 1, 36, 66
1, 74099, Note_on_c, 9, 51, 80
1, 74101, Note_on_c, 0, 79, 68
1, 74103, Note_on_c, 9, 44, 101
1, 74109, Note_on_c, 0, 63, 35
1, 74113, Note_on_c, 0, 57, 39
1, 74113, Note_on_c, 0, 67, 43
1, 74117, Note_on_c, 0, 72, 45
1, 74149, Note_on_c, 0, 57, 0
1, 74169, Note_on_c, 0, 67, 0
1, 74185, Note_on_c, 0, 79, 0
1, 74185, Control_c, 0, 64, 127
1, 74213, Note_on_c, 0, 63, 0
1, 74217, Note_on_c, 0, 72, 0
1, 74231, Note_on_c, 9, 44, 0
1, 74307, Note_on_c, 9, 51, 0
1, 74343, Note_on_c, 9, 35, 49
1, 74355, Note_on_c, 9, 51, 68
1, 74357, Note_on_c, 0, 64, 40
1, 74375, Note_on_c, 9, 35, 0
1, 74385, Note_on_c, 0, 64, 0
1, 74439, Note_on_c, 9, 51, 0
1, 74441, Control_c, 0, 64, 0
1, 74473, Note_on_c, 1, 36, 0
1, 74473, Note_on_c, 0, 58, 51
1, 74477, Note_on_c, 1, 28, 68
1, 74481, Note_on_c, 0, 65, 46
1, 74483, Note_on_c, 9, 51, 85
1, 74489, Note_on_c, 0, 77, 44
1, 74497, Note_on_c, 0, 72, 39
1, 74525, Control_c, 0, 64, 127
1, 74577, Note_on_c, 0, 65, 0
1, 74597, Note_on_c, 0, 58, 0
1, 74725, Note_on_c, 0, 72, 0
1, 74797, Note_on_c, 1, 28, 0
1, 74803, Note_on_c, 9, 51, 0
1, 74837, Control_c, 0, 64, 0
1, 74845, Note_on_c, 1, 28, 81
1, 74861, Note_on_c, 0, 69, 56
1, 74865, Note_on_c, 0, 58, 52
1, 74867, Note_on_c, 9, 51, 63
1, 74869, Note_on_c, 0, 64, 49
1, 74871, Note_on_c, 9, 44, 103
1, 74877, Note_on_c, 0, 77, 0
1, 74905, Control_c, 0, 64, 127
1, 75013, Note_on_c, 0, 64, 0
1, 75017, Note_on_c, 9, 44, 0
1, 75021, Note_on_c, 0, 69, 0
1, 75101, Note_on_c, 0, 58, 0
1, 75177, Note_on_c, 9, 51, 0
1, 75225, Note_on_c, 1, 28, 0
1, 75225, Control_c, 0, 64, 0
1, 75237, Note_on_c, 0, 63, 40
1, 75237, Note_on_c, 0, 67, 39
1, 75241, Note_on_c, 0, 62, 39
1, 75245, Note_on_c, 0, 57, 31
1, 75245, Note_on_c, 1, 29, 71
1, 75251, Note_on_c, 9, 51, 85
1, 75265, Note_on_c, 9, 35, 35
1, 75299, Note_on_c, 9, 35, 0
1, 75325, Note_on_c, 0, 81, 40
1, 75361, Note_on_c, 0, 82, 55
1, 75401, Note_on_c, 0, 82, 0
1, 75405, Note_on_c, 0, 83, 56
1, 75453, Note_on_c, 0, 81, 0
1, 75469, Note_on_c, 0, 83, 0
1, 75489, Note_on_c, 0, 86, 89
1, 75505, Note_on_c, 0, 63, 0
1, 75529, Note_on_c, 0, 67, 0
1, 75549, Note_on_c, 0, 86, 0
1, 75571, Note_on_c, 9, 51, 0
1, 75593, Note_on_c, 0, 84, 87
1, 75605, Note_on_c, 1, 29, 0
1, 75625, Note_on_c, 1, 33, 77
1, 75633, Note_on_c, 0, 67, 38
1, 75635, Note_on_c, 0, 63, 46
1, 75635, Note_on_c, 9, 51, 75
1, 75639, Note_on_c, 9, 44, 106
1, 75677, Note_on_c, 0, 84, 0
1, 75701, Note_on_c, 0, 67, 0
1, 75741, Note_on_c, 0, 79, 85
1, 75761, Note_on_c, 9, 44, 0
1, 75805, Note_on_c, 0, 63, 0
1, 75813, Note_on_c, 0, 57, 0
1, 75813, Note_on_c, 0, 79, 0
1, 75893, Note_on_c, 0, 75, 72
1, 75905, Note_on_c, 0, 62, 0
1, 75929, Note_on_c, 9, 35, 29
1, 75945, Note_on_c, 9, 51, 0
1, 75965, Note_on_c, 9, 35, 0
1, 75981, Note_on_c, 0, 75, 0
1, 75985, Note_on_c, 0, 74, 67
1, 76001, Note_on_c, 1, 33, 0
1, 76001, Note_on_c, 0, 63, 47
1, 76009, Note_on_c, 1, 38, 72
1, 76019, Note_on_c, 9, 51, 70
1, 76025, Note_on_c, 0, 67, 22
1, 76029, Note_on_c, 0, 74, 0
1, 76033, Note_on_c, 0, 57, 23
1, 76061, Note_on_c, 0, 67, 0
1, 76073, Note_on_c, 0, 77, 84
1, 76129, Note_on_c, 0, 63, 0
1, 76149, Note_on_c, 0, 77, 0
1, 76177, Note_on_c, 0, 74, 47
1, 76185, Note_on_c, 0, 57, 0
1, 76221, Note_on_c, 0, 74, 0
1, 76243, Note_on_c, 9, 51, 0
1, 76257, Note_on_c, 0, 75, 83
1, 76275, Note_on_c, 9, 51, 84
1, 76289, Note_on_c, 1, 39, 81
1, 76307, Note_on_c, 9, 34, 36
1, 76321, Note_on_c, 1, 38, 0
1, 76333, Note_on_c, 0, 75, 0
1, 76343, Note_on_c, 9, 34, 0
1, 76343, Note_on_c, 9, 51, 0
1, 76369, Note_on_c, 0, 74, 74
1, 76373, Note_on_c, 0, 63, 45
1, 76377, Note_on_c, 0, 57, 44
1, 76393, Note_on_c, 0, 67, 28
1, 76397, Note_on_c, 1, 39, 0
1, 76403, Note_on_c, 9, 51, 91
1, 76405, Note_on_c, 1, 40, 81
1, 76407, Note_on_c, 9, 44, 110
1, 76421, Note_on_c, 0, 67, 0
1, 76441, Note_on_c, 0, 74, 0
1, 76461, Note_on_c, 0, 63, 0
1, 76465, Note_on_c, 0, 72, 61
1, 76533, Note_on_c, 0, 72, 0
1, 76541, Note_on_c, 9, 44, 0
1, 76561, Note_on_c, 0, 57, 0
1, 76561, Note_on_c, 0, 69, 66
1, 76577, Note_on_c, 9, 34, 43
1, 76595, Note_on_c, 9, 34, 0
1, 76609, Note_on_c, 0, 69, 0
1, 76613, Control_c, 0, 64, 127
1, 76679, Note_on_c, 9, 34, 43
1, 76707, Note_on_c, 9, 51, 0
1, 76737, Note_on_c, 0, 65, 60
1, 76757, Control_c, 0, 64, 0
1, 76769, Note_on_c, 1, 40, 0
1, 76773, Note_on_c, 1, 41, 72
1, 76781, Note_on_c, 0, 65, 0
1, 76785, Note_on_c, 9, 34, 0
1, 76787, Note_on_c, 9, 51, 92
1, 76801, Note_on_c, 0, 63, 39
1, 76807, Note_on_c, 9, 57, 19
1, 76813, Note_on_c, 0, 69, 71
1, 76819, Note_on_c, 9, 35, 63
1, 76825, Note_on_c, 9, 57, 0
1, 76829, Note_on_c, 0, 65, 51
1, 76841, Note_on_c, 0, 63, 0
1, 76849, Note_on_c, 0, 65, 0
1, 76877, Note_on_c, 9, 35, 0
1, 76885, Note_on_c, 0, 69, 0
1, 76917, Note_on_c, 0, 70, 66
1, 76921, Note_on_c, 0, 65, 50
1, 76961, Note_on_c, 0, 65, 0
1, 76977, Note_on_c, 0, 70, 0
1, 77005, Note_on_c, 0, 71, 63
1, 77065, Control_c, 0, 64, 127
1, 77069, Note_on_c, 0, 71, 0
1, 77079, Note_on_c, 9, 51, 0
1, 77081, Note_on_c, 1, 39, 31
1, 77117, Note_on_c, 0, 72, 70
1, 77161, Note_on_c, 1, 55, 75
1, 77165, Note_on_c, 0, 72, 0
1, 77171, Note_on_c, 9, 51, 82
1, 77175, Note_on_c, 1, 39, 0
1, 77175, Note_on_c, 9, 44, 112
1, 77181, Control_c, 0, 64, 0
1, 77221, Note_on_c, 1, 41, 0
1, 77225, Note_on_c, 0, 67, 52
1, 77229, Note_on_c, 0, 62, 36
1, 77233, Note_on_c, 0, 57, 45
1, 77297, Note_on_c, 0, 67, 0
1, 77301, Control_c, 0, 64, 127
1, 77309, Note_on_c, 0, 57, 0
1, 77313, Note_on_c, 9, 44, 0
1, 77337, Note_on_c, 9, 51, 0
1, 77341, Note_on_c, 0, 62, 0
1, 77425, Note_on_c, 9, 35, 49
1, 77427, Note_on_c, 9, 51, 68
1, 77447, Note_on_c, 9, 35, 0
1, 77453, Note_on_c, 1, 43, 46
1, 77489, Note_on_c, 1, 43, 0
1, 77507, Note_on_c, 9, 51, 0
1, 77513, Control_c, 0, 64, 0
1, 77521, Note_on_c, 1, 55, 0
1, 77541, Note_on_c, 0, 55, 49
1, 77545, Note_on_c, 0, 64, 52
1, 77549, Note_on_c, 0, 60, 55
1, 77549, Note_on_c, 1, 53, 70
1, 77553, Note_on_c, 0, 67, 48
1, 77555, Note_on_c, 9, 51, 80
1, 77617, Note_on_c, 0, 64, 0
1, 77621, Control_c, 0, 64, 127
1, 77625, Note_on_c, 0, 67, 0
1, 77645, Note_on_c, 0, 60, 0
1, 77725, Note_on_c, 0, 55, 0
1, 77821, Note_on_c, 0, 54, 46
1, 77821, Note_on_c, 1, 48, 34
1, 77853, Note_on_c, 1, 48, 0
1, 77859, Note_on_c, 9, 51, 0
1, 77881, Note_on_c, 0, 54, 0
1, 77905, Note_on_c, 1, 53, 0
1, 77929, Note_on_c, 1, 52, 72
1, 77939, Note_on_c, 9, 51, 80
1, 77943, Note_on_c, 9, 44, 117
1, 77953, Control_c, 0, 64, 0
1, 77961, Note_on_c, 0, 54, 58
1, 77969, Note_on_c, 0, 66, 65
1, 77969, Note_on_c, 0, 57, 60
1, 78025, Note_on_c, 0, 60, 9
1, 78033, Note_on_c, 9, 44, 0
1, 78061, Control_c, 0, 64, 127
1, 78101, Note_on_c, 0, 60, 0
1, 78125, Note_on_c, 0, 57, 0
1, 78201, Note_on_c, 0, 57, 39
1, 78225, Note_on_c, 0, 60, 45
1, 78225, Control_c, 0, 64, 0
1, 78227, Note_on_c, 9, 51, 0
1, 78237, Note_on_c, 0, 63, 27
1, 78249, Note_on_c, 0, 54, 0
1, 78261, Note_on_c, 0, 57, 0
1, 78281, Note_on_c, 0, 66, 0
1, 78285, Note_on_c, 0, 60, 0
1, 78285, Note_on_c, 0, 65, 49
1, 78289, Note_on_c, 1, 52, 0
1, 78309, Note_on_c, 1, 51, 68
1, 78317, Note_on_c, 0, 63, 0
1, 78317, Note_on_c, 0, 53, 47
1, 78323, Note_on_c, 9, 51, 89
1, 78323, Note_on_c, 9, 35, 45
1, 78329, Control_c, 0, 64, 127
1, 78333, Note_on_c, 0, 65, 0
1, 78361, Note_on_c, 9, 35, 0
1, 78397, Note_on_c, 0, 53, 0
1, 78421, Pitch_bend_c, 1, 8192
1, 78441, Pitch_bend_c, 1, 8452
1, 78445, Pitch_bend_c, 1, 8712
1, 78449, Pitch_bend_c, 1, 8972
1, 78457, Pitch_bend_c, 1, 9102
1, 78461, Pitch_bend_c, 1, 9492
1, 78465, Pitch_bend_c, 1, 9622
1, 78473, Pitch_bend_c, 1, 9752
1, 78489, Pitch_bend_c, 1, 9622
1, 78493, Pitch_bend_c, 1, 9492
1, 78497, Note_on_c, 0, 89, 88
1, 78497, Pitch_bend_c, 1, 9362
1, 78501, Pitch_bend_c, 1, 8842
1, 78509, Pitch_bend_c, 1, 8452
1, 78513, Pitch_bend_c, 1, 8192
1, 78565, Note_on_c, 0, 89, 0
1, 78597, Note_on_c, 0, 86, 85
1, 78615, Note_on_c, 9, 51, 0
1, 78629, Pitch_bend_c, 1, 8452
1, 78633, Pitch_bend_c, 1, 9102
1, 78637, Pitch_bend_c, 1, 9752
1, 78645, Pitch_bend_c, 1, 10402
1, 78649, Pitch_bend_c, 1, 10922
1, 78653, Pitch_bend_c, 1, 11572
1, 78657, Pitch_bend_c, 1, 12222
1, 78665, Note_on_c, 0, 86, 0
1, 78665, Pitch_bend_c, 1, 12482
1, 78669, Pitch_bend_c, 1, 12612
1, 78681, Pitch_bend_c, 1, 12352
1, 78685, Pitch_bend_c, 1, 11832
1, 78689, Pitch_bend_c, 1, 11312
1, 78693, Note_on_c, 0, 87, 68
1, 78697, Pitch_bend_c, 1, 10662
1, 78701, Pitch_bend_c, 1, 9752
1, 78705, Note_on_c, 0, 67, 46
1, 78705, Control_c, 0, 64, 0
1, 78705, Pitch_bend_c, 1, 8582
1, 78707, Note_on_c, 0, 63, 44
1, 78707, Note_on_c, 0, 62, 43
1, 78707, Note_on_c, 9, 51, 61
1, 78709, Pitch_bend_c, 1, 8192
1, 78711, Note_on_c, 9, 44, 110
1, 78713, Note_on_c, 0, 57, 36
1, 78781, Note_on_c, 0, 87, 0
1, 78789, Note_on_c, 0, 83, 66
1, 78823, Note_on_c, 9, 44, 0
1, 78841, Note_on_c, 0, 83, 0
1, 78865, Note_on_c, 0, 86, 74
1, 78889, Note_on_c, 9, 51, 0
1, 78893, Note_on_c, 0, 63, 0
1, 78909, Note_on_c, 0, 67, 0
1, 78933, Note_on_c, 0, 84, 61
1, 78935, Note_on_c, 9, 35, 50
1, 78961, Note_on_c, 0, 86, 0
1, 78963, Note_on_c, 9, 51, 68
1, 78977, Note_on_c, 9, 35, 0
1, 78997, Note_on_c, 0, 84, 0
1, 78997, Note_on_c, 0, 83, 57
1, 78999, Note_on_c, 9, 51, 0
1, 79037, Note_on_c, 0, 83, 0
1, 79069, Note_on_c, 0, 77, 44
1, 79089, Note_on_c, 0, 77, 0
1, 79091, Note_on_c, 9, 51, 75
1, 79093, Note_on_c, 0, 67, 33
1, 79097, Note_on_c, 0, 63, 36
1, 79101, Note_on_c, 1, 48, 66
1, 79149, Note_on_c, 1, 51, 0
1, 79153, Note_on_c, 0, 67, 0
1, 79153, Note_on_c, 0, 74, 37
1, 79161, Note_on_c, 0, 76, 28
1, 79185, Note_on_c, 0, 76, 0
1, 79193, Note_on_c, 0, 74, 0
1, 79313, Note_on_c, 0, 63, 0
1, 79313, Note_on_c, 0, 62, 0
1, 79313, Note_on_c, 0, 75, 41
1, 79357, Note_on_c, 0, 75, 0
1, 79357, Note_on_c, 0, 57, 0
1, 79369, Note_on_c, 0, 76, 60
1, 79399, Note_on_c, 9, 51, 0
1, 79425, Note_on_c, 0, 76, 0
1, 79433, Note_on_c, 0, 79, 81
1, 79475, Note_on_c, 9, 51, 73
1, 79479, Note_on_c, 9, 44, 101
1, 79481, Note_on_c, 1, 48, 0
1, 79481, Note_on_c, 1, 45, 58
1, 79497, Note_on_c, 0, 77, 65
1, 79501, Note_on_c, 0, 79, 0
1, 79557, Note_on_c, 0, 77, 0
1, 79607, Note_on_c, 9, 44, 0
1, 79625, Note_on_c, 0, 75, 74
1, 79651, Note_on_c, 9, 51, 0
1, 79669, Note_on_c, 0, 75, 0
1, 79731, Note_on_c, 9, 51, 84
1, 79733, Note_on_c, 0, 73, 57
1, 79777, Note_on_c, 0, 73, 0
1, 79785, Note_on_c, 1, 44, 39
1, 79799, Note_on_c, 9, 51, 0
1, 79817, Note_on_c, 1, 45, 0
1, 79821, Note_on_c, 1, 44, 0
1, 79825, Note_on_c, 0, 74, 74
1, 79845, Note_on_c, 1, 46, 63
1, 79859, Note_on_c, 9, 51, 96
1, 79875, Note_on_c, 9, 35, 33
1, 79889, Note_on_c, 0, 74, 0
1, 79909, Note_on_c, 0, 65, 28
1, 79917, Note_on_c, 0, 72, 66
1, 79921, Note_on_c, 0, 60, 39
1, 79925, Note_on_c, 0, 62, 31
1, 79957, Note_on_c, 0, 65, 0
1, 79969, Note_on_c, 0, 72, 0
1, 80005, Note_on_c, 0, 69, 58
1, 80049, Note_on_c, 0, 69, 0
1, 80051, Note_on_c, 9, 35, 0
1, 80097, Note_on_c, 0, 65, 29
1, 80113, Note_on_c, 0, 62, 0
1, 80141, Note_on_c, 1, 44, 31
1, 80151, Note_on_c, 9, 35, 33
1, 80161, Note_on_c, 0, 65, 0
1, 80169, Note_on_c, 9, 51, 0
1, 80185, Note_on_c, 9, 35, 0
1, 80201, Note_on_c, 0, 62, 49
1, 80217, Note_on_c, 0, 60, 0
1, 80221, Note_on_c, 1, 55, 85
1, 80229, Note_on_c, 0, 62, 0
1, 80243, Note_on_c, 9, 51, 73
1, 80247, Note_on_c, 9, 44, 99
1, 80249, Note_on_c, 1, 44, 0
1, 80253, Note_on_c, 1, 46, 0
1, 80265, Note_on_c, 0, 53, 51
1, 80281, Note_on_c, 0, 67, 68
1, 80341, Note_on_c, 0, 67, 0
1, 80369, Note_on_c, 9, 44, 0
1, 80501, Note_on_c, 1, 46, 22
1, 80531, Note_on_c, 9, 51, 0
1, 80541, Note_on_c, 1, 46, 0
1, 80617, Note_on_c, 1, 53, 76
1, 80627, Note_on_c, 9, 51, 89
1, 80641, Note_on_c, 1, 55, 0
1, 80649, Note_on_c, 0, 62, 74
1, 80697, Note_on_c, 1, 53, 0
1, 80725, Note_on_c, 0, 62, 0
1, 80729, Note_on_c, 0, 63, 57
1, 80729, Note_on_c, 1, 50, 37
1, 80765, Note_on_c, 1, 50, 0
1, 80773, Note_on_c, 0, 62, 56
1, 80797, Note_on_c, 0, 63, 0
1, 80805, Note_on_c, 0, 53, 0
1, 80825, Note_on_c, 0, 61, 57
1, 80833, Note_on_c, 0, 62, 0
1, 80853, Note_on_c, 1, 45, 55
1, 80865, Note_on_c, 0, 61, 0
1, 80905, Note_on_c, 9, 51, 0
1, 80913, Note_on_c, 0, 62, 72
1, 80965, Note_on_c, 0, 62, 0
1, 80977, Note_on_c, 1, 45, 0
1, 80997, Note_on_c, 1, 46, 57
1, 81011, Note_on_c, 9, 51, 92
1, 81015, Note_on_c, 9, 44, 98
1, 81017, Note_on_c, 0, 65, 77
1, 81053, Note_on_c, 1, 49, 15
1, 81081, Note_on_c, 0, 65, 0
1, 81093, Note_on_c, 0, 67, 55
1, 81137, Note_on_c, 9, 44, 0
1, 81137, Note_on_c, 0, 65, 54
1, 81153, Note_on_c, 0, 67, 0
1, 81193, Note_on_c, 9, 51, 0
1, 81197, Note_on_c, 0, 65, 0
1, 81201, Note_on_c, 0, 64, 50
1, 81237, Note_on_c, 0, 64, 0
1, 81267, Note_on_c, 9, 51, 89
1, 81285, Note_on_c, 0, 65, 63
1, 81285, Note_on_c, 1, 38, 27
1, 81315, Note_on_c, 9, 51, 0
1, 81317, Note_on_c, 1, 38, 0
1, 81337, Note_on_c, 0, 65, 0
1, 81395, Note_on_c, 9, 51, 91
1, 81401, Note_on_c, 0, 65, 42
1, 81405, Note_on_c, 0, 70, 72
1, 81409, Note_on_c, 0, 62, 48
1, 81409, Note_on_c, 1, 41, 54
1, 81415, Note_on_c, 0, 60, 39
1, 81415, Note_on_c, 9, 35, 31
1, 81421, Note_on_c, 0, 65, 0
1, 81429, Note_on_c, 0, 62, 0
1, 81437, Note_on_c, 1, 46, 0
1, 81441, Note_on_c, 9, 35, 0
1, 81441, Note_on_c, 0, 60, 0
1, 81445, Note_on_c, 1, 49, 0
1, 81465, Note_on_c, 0, 70, 0
1, 81485, Note_on_c, 0, 72, 56
1, 81521, Note_on_c, 0, 70, 56
1, 81529, Note_on_c, 0, 72, 0
1, 81581, Note_on_c, 0, 69, 55
1, 81585, Note_on_c, 0, 70, 0
1, 81637, Note_on_c, 0, 70, 57
1, 81653, Note_on_c, 0, 69, 0
1, 81671, Note_on_c, 9, 35, 47
1, 81689, Note_on_c, 0, 70, 0
1, 81697, Note_on_c, 9, 35, 0
1, 81703, Note_on_c, 9, 51, 0
1, 81741, Note_on_c, 0, 74, 75
1, 81749, Note_on_c, 0, 65, 42
1, 81773, Note_on_c, 0, 65, 0
1, 81773, Note_on_c, 0, 62, 31
1, 81779, Note_on_c, 0, 60, 29
1, 81779, Note_on_c, 9, 51, 64
1, 81781, Note_on_c, 1, 41, 0
1, 81783, Note_on_c, 9, 44, 96
1, 81785, Note_on_c, 1, 38, 69
1, 81805, Note_on_c, 0, 62, 0
1, 81809, Note_on_c, 0, 74, 0
1, 81809, Note_on_c, 0, 76, 66
1, 81813, Note_on_c, 0, 60, 0
1, 81849, Note_on_c, 0, 74, 46
1, 81853, Note_on_c, 0, 76, 0
1, 81889, Note_on_c, 0, 73, 57
1, 81905, Note_on_c, 9, 44, 0
1, 81905, Note_on_c, 0, 74, 0
1, 81941, Note_on_c, 0, 73, 0
1, 81961, Note_on_c, 9, 51, 0
1, 81961, Note_on_c, 0, 74, 39
1, 81981, Note_on_c, 0, 74, 0
1, 82021, Note_on_c, 0, 77, 81
1, 82035, Note_on_c, 9, 51, 56
1, 82087, Note_on_c, 9, 51, 0
1, 82093, Note_on_c, 0, 77, 0
1, 82093, Note_on_c, 0, 79, 65
1, 82141, Note_on_c, 0, 79, 0
1, 82145, Note_on_c, 0, 77, 57
1, 82157, Note_on_c, 1, 38, 0
1, 82161, Note_on_c, 1, 34, 75
1, 82163, Note_on_c, 9, 51, 52
1, 82179, Note_on_c, 9, 35, 33
1, 82189, Note_on_c, 0, 77, 0
1, 82197, Note_on_c, 0, 76, 49
1, 82209, Note_on_c, 0, 65, 48
1, 82213, Note_on_c, 0, 76, 0
1, 82221, Note_on_c, 0, 62, 40
1, 82229, Note_on_c, 0, 60, 39
1, 82261, Note_on_c, 0, 65, 0
1, 82273, Note_on_c, 0, 82, 66
1, 82311, Note_on_c, 9, 51, 0
1, 82345, Note_on_c, 0, 60, 0
1, 82345, Note_on_c, 0, 82, 0
1, 82345, Note_on_c, 0, 84, 56
1, 82349, Note_on_c, 0, 62, 0
1, 82359, Note_on_c, 9, 35, 0
1, 82393, Note_on_c, 0, 82, 50
1, 82401, Note_on_c, 0, 84, 0
1, 82419, Note_on_c, 9, 51, 112
1, 82433, Note_on_c, 9, 35, 31
1, 82465, Note_on_c, 9, 35, 0
1, 82469, Note_on_c, 0, 81, 51
1, 82473, Note_on_c, 0, 82, 0
1, 82483, Note_on_c, 9, 51, 0
1, 82485, Note_on_c, 0, 81, 0
1, 82517, Note_on_c, 1, 34, 0
1, 82541, Note_on_c, 1, 32, 79
1, 82545, Note_on_c, 0, 65, 46
1, 82547, Note_on_c, 9, 51, 84
1, 82549, Note_on_c, 0, 62, 48
1, 82551, Note_on_c, 9, 44, 94
1, 82553, Note_on_c, 0, 86, 80
1, 82557, Note_on_c, 0, 60, 46
1, 82569, Note_on_c, 0, 65, 0
1, 82605, Note_on_c, 0, 86, 0
1, 82613, Note_on_c, 0, 62, 0
1, 82617, Note_on_c, 0, 88, 64
1, 82629, Note_on_c, 0, 60, 0
1, 82663, Note_on_c, 9, 44, 0
1, 82665, Note_on_c, 0, 86, 56
1, 82673, Note_on_c, 0, 88, 0
1, 82713, Note_on_c, 0, 86, 0
1, 82713, Note_on_c, 0, 85, 40
1, 82741, Note_on_c, 0, 85, 0
1, 82769, Note_on_c, 0, 86, 47
1, 82805, Note_on_c, 0, 87, 61
1, 82825, Note_on_c, 0, 86, 0
1, 82849, Note_on_c, 0, 87, 0
1, 82849, Note_on_c, 0, 88, 57
1, 82857, Note_on_c, 9, 51, 0
1, 82901, Note_on_c, 1, 32, 0
1, 82913, Note_on_c, 0, 88, 0
1, 82917, Note_on_c, 0, 89, 63
1, 82929, Note_on_c, 1, 31, 72
1, 82931, Note_on_c, 9, 51, 96
1, 82953, Note_on_c, 0, 64, 40
1, 82957, Note_on_c, 0, 59, 42
1, 82961, Note_on_c, 0, 53, 45
1, 82961, Note_on_c, 0, 91, 84
1, 83009, Note_on_c, 0, 89, 0
1, 83077, Note_on_c, 0, 79, 63
1, 83137, Note_on_c, 0, 79, 0
1, 83173, Note_on_c, 0, 53, 0
1, 83173, Note_on_c, 0, 64, 0
1, 83181, Note_on_c, 0, 91, 0
1, 83209, Note_on_c, 0, 59, 0
1, 83229, Note_on_c, 1, 38, 31
1, 83239, Note_on_c, 9, 51, 0
1, 83261, Note_on_c, 1, 38, 0
1, 83305, Note_on_c, 1, 48, 96
1, 83315, Note_on_c, 9, 51, 63
1, 83319, Note_on_c, 9, 44, 91
1, 83325, Control_c, 0, 64, 127
1, 83325, Note_on_c, 0, 59, 44
1, 83329, Note_on_c, 0, 64, 42
1, 83333, Note_on_c, 0, 53, 42
1, 83337, Note_on_c, 0, 79, 63
1, 83381, Note_on_c, 1, 31, 0
1, 83415, Note_on_c, 9, 44, 0
1, 83417, Note_on_c, 0, 53, 0
1, 83421, Note_on_c, 0, 59, 0
1, 83433, Note_on_c, 0, 79, 0
1, 83453, Note_on_c, 0, 64, 0
1, 83507, Note_on_c, 9, 51, 0
1, 83569, Note_on_c, 1, 38, 53
1, 83571, Note_on_c, 9, 51, 50
1, 83575, Note_on_c, 9, 35, 68
1, 83581, Note_on_c, 0, 54, 60
1, 83585, Note_on_c, 0, 92, 75
1, 83585, Note_on_c, 0, 65, 48
1, 83589, Note_on_c, 0, 80, 68
1, 83593, Note_on_c, 0, 60, 54
1, 83605, Note_on_c, 1, 38, 0
1, 83633, Note_on_c, 0, 65, 0
1, 83641, Note_on_c, 9, 35, 0
1, 83651, Note_on_c, 9, 51, 0
1, 83653, Note_on_c, 0, 60, 0
1, 83665, Note_on_c, 0, 92, 0
1, 83677, Note_on_c, 0, 80, 0
1, 83685, Note_on_c, 1, 48, 0
1, 83689, Note_on_c, 0, 54, 0
1, 83693, Note_on_c, 1, 47, 75
1, 83697, Control_c, 0, 64, 0
1, 83699, Note_on_c, 9, 51, 96
1, 83713, Note_on_c, 9, 35, 43
1, 83717, Note_on_c, 0, 64, 48
1, 83721, Note_on_c, 0, 53, 48
1, 83721, Note_on_c, 0, 79, 68
1, 83725, Note_on_c, 0, 91, 54
1, 83729, Note_on_c, 0, 59, 56
1, 83769, Control_c, 0, 64, 127
1, 83813, Note_on_c, 0, 91, 0
1, 83869, Note_on_c, 0, 79, 0
1, 83877, Note_on_c, 0, 64, 0
1, 83893, Note_on_c, 0, 59, 0
1, 83913, Note_on_c, 0, 53, 0
1, 83921, Note_on_c, 9, 35, 0
1, 84035, Note_on_c, 9, 51, 0
1, 84065, Note_on_c, 1, 47, 0
1, 84081, Note_on_c, 1, 42, 77
1, 84083, Note_on_c, 9, 51, 68
1, 84087, Note_on_c, 9, 44, 73
1, 84185, Note_on_c, 9, 44, 0
1, 84339, Note_on_c, 9, 53, 124
1, 84345, Note_on_c, 0, 73, 80
1, 84353, Note_on_c, 0, 61, 68
1, 84355, Note_on_c, 9, 51, 0
1, 84361, Note_on_c, 0, 69, 55
1, 84401, Control_c, 0, 64, 0
1, 84433, Note_on_c, 0, 69, 0
1, 84435, Note_on_c, 9, 53, 0
1, 84445, Note_on_c, 0, 73, 0
1, 84457, Note_on_c, 1, 42, 0
1, 84461, Note_on_c, 1, 43, 77
1, 84467, Note_on_c, 9, 51, 54
1, 84477, Note_on_c, 0, 61, 0
1, 84477, Note_on_c, 0, 69, 74
1, 84477, Note_on_c, 0, 76, 82
1, 84481, Note_on_c, 0, 65, 77
1, 84485, Note_on_c, 0, 64, 68
1, 84485, Note_on_c, 0, 73, 61
1, 84505, Note_on_c, 0, 73, 0
1, 84561, Note_on_c, 0, 65, 0
1, 84561, Note_on_c, 0, 76, 0
1, 84561, Note_on_c, 0, 64, 0
1, 84569, Note_on_c, 0, 69, 0
1, 84585, Control_c, 0, 64, 127
1, 84605, Note_on_c, 0, 61, 49
1, 84665, Control_c, 0, 64, 0
1, 84701, Note_on_c, 0, 61, 0
1, 84717, Note_on_c, 0, 74, 75
1, 84721, Note_on_c, 0, 69, 72
1, 84725, Note_on_c, 0, 65, 57
1, 84729, Note_on_c, 0, 62, 53
1, 84793, Note_on_c, 9, 51, 0
1, 84797, Note_on_c, 0, 74, 0
1, 84797, Control_c, 0, 64, 127
1, 84809, Note_on_c, 0, 65, 0
1, 84817, Note_on_c, 1, 43, 0
1, 84817, Control_c, 0, 64, 0
1, 84829, Note_on_c, 0, 69, 0
1, 84833, Note_on_c, 1, 38, 75
1, 84841, Control_c, 0, 64, 127
1, 84849, Note_on_c, 0, 62, 0
1, 84851, Note_on_c, 9, 51, 80
1, 84855, Note_on_c, 9, 44, 70
1, 84857, Note_on_c, 0, 61, 56
1, 84857, Note_on_c, 0, 65, 48
1, 84857, Note_on_c, 0, 69, 34
1, 84857, Note_on_c, 0, 73, 60
1, 84945, Note_on_c, 9, 44, 0
1, 85037, Note_on_c, 0, 61, 0
1, 85065, Note_on_c, 0, 69, 0
1, 85077, Note_on_c, 0, 73, 0
1, 85085, Note_on_c, 0, 65, 0
1, 85177, Note_on_c, 9, 51, 0
1, 85193, Control_c, 0, 64, 0
1, 85205, Note_on_c, 1, 38, 0
1, 85229, Note_on_c, 1, 35, 70
1, 85233, Note_on_c, 0, 67, 47
1, 85233, Note_on_c, 0, 59, 48
1, 85235, Note_on_c, 0, 71, 47
1, 85235, Note_on_c, 9, 51, 80
1, 85257, Control_c, 0, 64, 127
1, 85261, Note_on_c, 0, 62, 22
1, 85297, Note_on_c, 0, 71, 0
1, 85305, Note_on_c, 0, 67, 0
1, 85309, Note_on_c, 0, 59, 0
1, 85349, Note_on_c, 0, 62, 0
1, 85469, Note_on_c, 0, 69, 59
1, 85473, Note_on_c, 0, 63, 54
1, 85473, Note_on_c, 0, 57, 47
1, 85485, Note_on_c, 0, 59, 41
1, 85489, Note_on_c, 0, 60, 43
1, 85513, Note_on_c, 0, 60, 0
1, 85513, Note_on_c, 9, 35, 52
1, 85525, Note_on_c, 0, 59, 0
1, 85539, Note_on_c, 9, 35, 0
1, 85545, Note_on_c, 0, 63, 0
1, 85545, Note_on_c, 0, 57, 0
1, 85565, Control_c, 0, 64, 0
1, 85569, Note_on_c, 0, 69, 0
1, 85571, Note_on_c, 9, 51, 0
1, 85605, Note_on_c, 1, 35, 0
1, 85613, Note_on_c, 0, 67, 49
1, 85617, Note_on_c, 0, 63, 42
1, 85617, Note_on_c, 1, 31, 70
1, 85619, Note_on_c, 9, 51, 63
1, 85623, Note_on_c, 9, 44, 110
1, 85625, Note_on_c, 0, 59, 40
1, 85629, Control_c, 0, 64, 127
1, 85629, Note_on_c, 0, 52, 41
1, 85653, Note_on_c, 0, 52, 0
1, 85673, Note_on_c, 0, 67, 0
1, 85689, Note_on_c, 0, 59, 0
1, 85713, Note_on_c, 9, 44, 0
1, 85725, Note_on_c, 0, 63, 0
1, 85811, Note_on_c, 9, 51, 0
1, 85853, Note_on_c, 0, 66, 52
1, 85853, Note_on_c, 0, 63, 57
1, 85857, Note_on_c, 0, 54, 34
1, 85861, Note_on_c, 0, 44, 37
1, 85875, Note_on_c, 9, 51, 57
1, 85895, Note_on_c, 9, 35, 56
1, 85897, Note_on_c, 0, 44, 0
1, 85897, Note_on_c, 0, 54, 0
1, 85917, Note_on_c, 0, 63, 0
1, 85933, Note_on_c, 9, 35, 0
1, 85939, Note_on_c, 9, 51, 0
1, 85941, Control_c, 0, 64, 0
1, 85973, Note_on_c, 1, 31, 0
1, 85993, Note_on_c, 0, 53, 42
1, 86001, Note_on_c, 0, 66, 0
1, 86001, Note_on_c, 0, 58, 51
1, 86001, Note_on_c, 1, 36, 66
1, 86003, Note_on_c, 9, 51, 68
1, 86005, Note_on_c, 0, 43, 35
1, 86017, Control_c, 0, 64, 127
1, 86017, Note_on_c, 0, 62, 39
1, 86041, Note_on_c, 0, 62, 0
1, 86061, Note_on_c, 0, 53, 0
1, 86073, Note_on_c, 0, 58, 0
1, 86101, Control_c, 0, 64, 0
1, 86125, Note_on_c, 0, 46, 49
1, 86129, Note_on_c, 0, 57, 52
1, 86149, Note_on_c, 0, 43, 0
1, 86177, Note_on_c, 0, 57, 0
1, 86245, Note_on_c, 0, 58, 58
1, 86265, Note_on_c, 0, 50, 56
1, 86265, Note_on_c, 1, 50, 90
1, 86291, Note_on_c, 9, 51, 0
1, 86325, Note_on_c, 0, 58, 0
1, 86361, Note_on_c, 0, 46, 0
1, 86369, Note_on_c, 0, 50, 0
1, 86373, Control_c, 0, 64, 127
1, 86377, Note_on_c, 1, 50, 0
1, 86385, Note_on_c, 0, 53, 57
1, 86387, Note_on_c, 9, 51, 75
1, 86391, Note_on_c, 9, 44, 106
1, 86409, Note_on_c, 1, 48, 68
1, 86433, Note_on_c, 0, 53, 0
1, 86501, Note_on_c, 0, 57, 61
1, 86513, Note_on_c, 9, 44, 0
1, 86553, Control_c, 0, 64, 0
1, 86617, Note_on_c, 0, 57, 0
1, 86629, Note_on_c, 0, 65, 80
1, 86633, Note_on_c, 1, 48, 0
1, 86633, Note_on_c, 0, 69, 80
1, 86637, Note_on_c, 0, 62, 75
1, 86641, Note_on_c, 0, 60, 77
1, 86653, Note_on_c, 1, 47, 59
1, 86675, Note_on_c, 9, 51, 0
1, 86713, Note_on_c, 0, 60, 0
1, 86717, Note_on_c, 0, 62, 0
1, 86725, Note_on_c, 1, 47, 0
1, 86729, Note_on_c, 0, 65, 0
1, 86741, Note_on_c, 0, 69, 0
1, 86769, Note_on_c, 0, 72, 88
1, 86769, Note_on_c, 0, 65, 82
1, 86769, Note_on_c, 0, 62, 83
1, 86771, Note_on_c, 9, 51, 59
1, 86777, Note_on_c, 0, 69, 87
1, 86781, Note_on_c, 0, 60, 72
1, 86781, Note_on_c, 1, 48, 72
1, 86849, Note_on_c, 1, 36, 0
1, 86957, Note_on_c, 0, 69, 0
1, 86973, Control_c, 0, 64, 127
1, 87017, Note_on_c, 9, 35, 31
1, 87057, Note_on_c, 9, 35, 0
1, 87057, Note_on_c, 0, 62, 0
1, 87063, Note_on_c, 9, 51, 0
1, 87085, Note_on_c, 0, 65, 0
1, 87137, Note_on_c, 0, 72, 0
1, 87137, Control_c, 0, 64, 0
1, 87155, Note_on_c, 9, 51, 103
1, 87159, Note_on_c, 9, 44, 103
1, 87165, Note_on_c, 0, 60, 0
1, 87169, Note_on_c, 9, 40, 29
1, 87173, Note_on_c, 0, 57, 61
1, 87177, Note_on_c, 0, 65, 57
1, 87177, Note_on_c, 0, 69, 56
1, 87177, Note_on_c, 0, 62, 51
1, 87191, Note_on_c, 9, 40, 0
1, 87225, Control_c, 0, 64, 127
1, 87271, Note_on_c, 9, 44, 0
1, 87283, Note_on_c, 9, 40, 49
1, 87305, Note_on_c, 9, 40, 0
1, 87329, Note_on_c, 0, 62, 0
1, 87341, Note_on_c, 0, 57, 0
1, 87353, Note_on_c, 9, 51, 0
1, 87357, Note_on_c, 0, 65, 0
1, 87369, Note_on_c, 0, 69, 0
1, 87411, Note_on_c, 9, 51, 57
1, 87417, Note_on_c, 1, 48, 0
1, 87427, Note_on_c, 9, 35, 33
1, 87433, Note_on_c, 1, 36, 63
1, 87463, Note_on_c, 9, 35, 0
1, 87479, Note_on_c, 9, 51, 0
1, 87505, Control_c, 0, 64, 0
1, 87529, Note_on_c, 0, 73, 62
1, 87533, Note_on_c, 0, 61, 60
1, 87533, Note_on_c, 0, 64, 57
1, 87537, Note_on_c, 0, 70, 51
1, 87539, Note_on_c, 9, 51, 73
1, 87545, Note_on_c, 9, 40, 47
1, 87549, Note_on_c, 0, 67, 45
1, 87557, Note_on_c, 1, 53, 90
1, 87565, Note_on_c, 1, 37, 73
1, 87569, Note_on_c, 1, 36, 0
1, 87585, Note_on_c, 9, 40, 0
1, 87593, Note_on_c, 0, 64, 0
1, 87597, Note_on_c, 0, 73, 0
1, 87605, Note_on_c, 0, 67, 0
1, 87613, Note_on_c, 0, 70, 0
1, 87653, Note_on_c, 0, 75, 68
1, 87661, Note_on_c, 0, 61, 0
1, 87661, Note_on_c, 0, 64, 51
1, 87665, Note_on_c, 0, 63, 56
1, 87665, Note_on_c, 0, 67, 52
1, 87665, Note_on_c, 0, 70, 55
1, 87665, Note_on_c, 9, 40, 47
1, 87687, Note_on_c, 9, 40, 0
1, 87733, Note_on_c, 0, 75, 0
1, 87737, Note_on_c, 0, 67, 0
1, 87741, Note_on_c, 0, 64, 0
1, 87741, Note_on_c, 0, 70, 0
1, 87757, Note_on_c, 0, 63, 0
1, 87777, Note_on_c, 0, 73, 48
1, 87789, Note_on_c, 0, 61, 50
1, 87789, Note_on_c, 0, 64, 40
1, 87795, Note_on_c, 9, 35, 42
1, 87821, Note_on_c, 9, 35, 0
1, 87845, Note_on_c, 0, 64, 0
1, 87859, Note_on_c, 9, 51, 0
1, 87861, Note_on_c, 0, 73, 0
1, 87897, Note_on_c, 0, 61, 0
1, 87909, Note_on_c, 0, 63, 56
1, 87909, Note_on_c, 0, 75, 63
1, 87911, Note_on_c, 9, 40, 45
1, 87913, Note_on_c, 0, 64, 51
1, 87913, Note_on_c, 0, 67, 52
1, 87917, Note_on_c, 0, 70, 56
1, 87923, Note_on_c, 9, 51, 52
1, 87927, Note_on_c, 9, 44, 105
1, 87943, Note_on_c, 9, 40, 0
1, 87981, Note_on_c, 0, 75, 0
1, 87981, Note_on_c, 0, 64, 0
1, 87989, Note_on_c, 0, 70, 0
1, 87997, Note_on_c, 0, 63, 0
1, 87997, Note_on_c, 0, 67, 0
1, 88033, Note_on_c, 0, 61, 44
1, 88033, Note_on_c, 0, 73, 48
1, 88045, Note_on_c, 0, 64, 26
1, 88065, Note_on_c, 9, 44, 0
1, 88077, Note_on_c, 0, 64, 0
1, 88105, Note_on_c, 0, 73, 0
1, 88133, Note_on_c, 0, 61, 0
1, 88141, Control_c, 0, 64, 127
1, 88145, Note_on_c, 0, 63, 59
1, 88157, Note_on_c, 0, 75, 66
1, 88165, Note_on_c, 0, 70, 51
1, 88169, Note_on_c, 0, 64, 36
1, 88173, Note_on_c, 1, 53, 0
1, 88177, Note_on_c, 1, 37, 0
1, 88177, Note_on_c, 0, 73, 37
1, 88177, Note_on_c, 1, 52, 68
1, 88177, Note_on_c, 1, 36, 57
1, 88205, Note_on_c, 0, 70, 0
1, 88205, Note_on_c, 0, 64, 0
1, 88213, Note_on_c, 0, 63, 0
1, 88213, Note_on_c, 0, 73, 0
1, 88225, Note_on_c, 0, 75, 0
1, 88227, Note_on_c, 9, 51, 0
1, 88237, Control_c, 0, 64, 0
1, 88293, Note_on_c, 0, 72, 50
1, 88293, Note_on_c, 0, 64, 54
1, 88297, Note_on_c, 0, 76, 55
1, 88301, Note_on_c, 0, 60, 49
1, 88301, Note_on_c, 0, 70, 53
1, 88307, Note_on_c, 9, 51, 68
1, 88345, Control_c, 0, 64, 127
1, 88489, Note_on_c, 0, 64, 0
1, 88541, Note_on_c, 0, 72, 0
1, 88553, Note_on_c, 0, 70, 0
1, 88557, Note_on_c, 1, 39, 89
1, 88569, Note_on_c, 9, 35, 36
1, 88577, Note_on_c, 0, 76, 0
1, 88577, Note_on_c, 0, 60, 0
1, 88581, Note_on_c, 1, 36, 0
1, 88599, Note_on_c, 9, 51, 0
1, 88605, Note_on_c, 9, 35, 0
1, 88617, Note_on_c, 1, 52, 0
1, 88673, Note_on_c, 0, 60, 52
1, 88691, Note_on_c, 9, 51, 63
1, 88693, Note_on_c, 0, 60, 0
1, 88695, Note_on_c, 9, 44, 117
1, 88823, Note_on_c, 9, 35, 50
1, 88845, Note_on_c, 9, 35, 0
1, 88855, Note_on_c, 9, 44, 0
1, 88945, Note_on_c, 9, 35, 70
1, 88953, Note_on_c, 1, 39, 0
1, 88953, Note_on_c, 0, 86, 75
1, 88957, Note_on_c, 1, 40, 68
1, 88995, Note_on_c, 9, 51, 0
1, 89033, Note_on_c, 9, 35, 0
1, 89041, Note_on_c, 0, 86, 0
1, 89049, Control_c, 0, 64, 0
1, 89073, Note_on_c, 0, 41, 48
1, 89075, Note_on_c, 9, 51, 87
1, 89081, Note_on_c, 1, 40, 0
1, 89091, Note_on_c, 9, 35, 38
1, 89093, Note_on_c, 0, 84, 70
1, 89093, Note_on_c, 1, 41, 58
1, 89101, Note_on_c, 0, 48, 22
1, 89129, Note_on_c, 9, 35, 0
1, 89165, Note_on_c, 0, 48, 0
1, 89193, Note_on_c, 0, 41, 0
1, 89241, Note_on_c, 0, 84, 0
1, 89293, Control_c, 0, 64, 127
1, 89385, Note_on_c, 9, 51, 0
1, 89441, Note_on_c, 1, 41, 0
1, 89453, Control_c, 0, 64, 0
1, 89459, Note_on_c, 9, 51, 59
1, 89461, Note_on_c, 1, 36, 66
1, 89463, Note_on_c, 9, 44, 117
1, 89489, Note_on_c, 0, 67, 51
1, 89489, Note_on_c, 0, 63, 49
1, 89493, Note_on_c, 0, 82, 89
1, 89509, Note_on_c, 0, 67, 0
1, 89557, Note_on_c, 0, 63, 0
1, 89581, Note_on_c, 0, 82, 0
1, 89597, Note_on_c, 0, 83, 56
1, 89633, Note_on_c, 9, 44, 0
1, 89641, Note_on_c, 9, 51, 0
1, 89649, Note_on_c, 0, 82, 54
1, 89657, Note_on_c, 0, 83, 0
1, 89701, Note_on_c, 0, 80, 49
1, 89715, Note_on_c, 9, 51, 68
1, 89733, Note_on_c, 0, 82, 0
1, 89773, Note_on_c, 0, 77, 49
1, 89783, Note_on_c, 9, 51, 0
1, 89789, Note_on_c, 0, 80, 0
1, 89797, Note_on_c, 0, 77, 0
1, 89843, Note_on_c, 9, 51, 61
1, 89845, Note_on_c, 0, 82, 72
1, 89853, Note_on_c, 1, 48, 102
1, 89877, Note_on_c, 0, 62, 31
1, 89877, Note_on_c, 0, 58, 39
1, 89921, Note_on_c, 0, 82, 0
1, 89945, Note_on_c, 0, 58, 0
1, 89965, Note_on_c, 0, 62, 0
1, 89973, Note_on_c, 0, 80, 66
1, 90033, Note_on_c, 0, 80, 0
1, 90089, Note_on_c, 0, 77, 68
1, 90101, Note_on_c, 1, 41, 42
1, 90115, Note_on_c, 9, 34, 40
1, 90137, Note_on_c, 1, 48, 0
1, 90147, Note_on_c, 9, 51, 0
1, 90177, Note_on_c, 0, 77, 0
1, 90193, Note_on_c, 1, 41, 0
1, 90201, Note_on_c, 9, 34, 0
1, 90225, Note_on_c, 1, 48, 88
1, 90227, Note_on_c, 9, 51, 75
1, 90231, Note_on_c, 9, 44, 110
1, 90233, Note_on_c, 0, 72, 57
1, 90237, Note_on_c, 0, 62, 33
1, 90245, Note_on_c, 0, 58, 31
1, 90257, Note_on_c, 0, 57, 24
1, 90263, Note_on_c, 9, 35, 40
1, 90301, Note_on_c, 1, 36, 0
1, 90317, Note_on_c, 9, 35, 0
1, 90413, Note_on_c, 0, 62, 0
1, 90421, Note_on_c, 0, 58, 0
1, 90423, Note_on_c, 9, 44, 0
1, 90429, Note_on_c, 0, 72, 0
1, 90467, Note_on_c, 9, 51, 0
1, 90469, Note_on_c, 0, 57, 0
1, 90473, Note_on_c, 0, 77, 68
1, 90473, Note_on_c, 0, 70, 68
1, 90557, Note_on_c, 0, 70, 0
1, 90565, Note_on_c, 0, 71, 49
1, 90589, Note_on_c, 0, 77, 0
1, 90609, Note_on_c, 1, 36, 98
1, 90611, Note_on_c, 9, 51, 87
1, 90617, Note_on_c, 0, 71, 0
1, 90637, Note_on_c, 1, 48, 0
1, 90705, Note_on_c, 0, 70, 60
1, 90713, Note_on_c, 0, 77, 33
1, 90745, Note_on_c, 0, 77, 0
1, 90805, Note_on_c, 0, 70, 0
1, 90825, Note_on_c, 0, 65, 52
1, 90871, Note_on_c, 9, 51, 0
1, 90893, Note_on_c, 0, 65, 0
1, 90933, Note_on_c, 0, 70, 73
1, 90933, Note_on_c, 0, 74, 59
1, 90985, Note_on_c, 0, 74, 0
1, 90995, Note_on_c, 9, 51, 80
1, 90997, Note_on_c, 1, 50, 122
1, 90999, Note_on_c, 9, 44, 106
1, 91001, Note_on_c, 0, 70, 0
1, 91045, Note_on_c, 0, 68, 65
1, 91049, Note_on_c, 1, 36, 0
1, 91061, Note_on_c, 0, 72, 45
1, 91085, Note_on_c, 0, 72, 0
1, 91109, Note_on_c, 0, 68, 0
1, 91153, Note_on_c, 0, 69, 62
1, 91185, Note_on_c, 9, 44, 0
1, 91225, Note_on_c, 9, 51, 0
1, 91251, Note_on_c, 0, 64, 48
1, 91251, Note_on_c, 9, 59, 94
1, 91253, Note_on_c, 0, 69, 0
1, 91261, Note_on_c, 1, 36, 35
1, 91271, Note_on_c, 9, 35, 36
1, 91309, Note_on_c, 9, 35, 0
1, 91321, Note_on_c, 0, 64, 0
1, 91337, Note_on_c, 1, 36, 0
1, 91345, Note_on_c, 0, 60, 32
1, 91347, Note_on_c, 9, 59, 0
1, 91369, Note_on_c, 1, 50, 0
1, 91379, Note_on_c, 9, 51, 61
1, 91381, Note_on_c, 1, 48, 82
1, 91409, Note_on_c, 9, 35, 31
1, 91421, Note_on_c, 0, 60, 0
1, 91441, Note_on_c, 0, 57, 60
1, 91449, Note_on_c, 9, 35, 0
1, 91489, Note_on_c, 0, 57, 0
1, 91521, Note_on_c, 0, 64, 56
1, 91629, Note_on_c, 0, 64, 0
1, 91645, Note_on_c, 1, 35, 82
1, 91689, Note_on_c, 9, 51, 0
1, 91737, Note_on_c, 1, 48, 0
1, 91763, Note_on_c, 9, 51, 68
1, 91767, Note_on_c, 9, 44, 110
1, 91769, Note_on_c, 1, 36, 98
1, 91845, Note_on_c, 1, 35, 0
1, 91927, Note_on_c, 9, 44, 0
1, 91993, Note_on_c, 1, 36, 0
1, 92017, Note_on_c, 9, 35, 38
1, 92023, Note_on_c, 9, 51, 0
1, 92025, Note_on_c, 1, 36, 115
1, 92051, Note_on_c, 9, 35, 0
1, 92129, Note_on_c, 1, 36, 0
1, 92147, Note_on_c, 9, 51, 77
1, 92157, Note_on_c, 1, 36, 99
1, 92365, Note_on_c, 0, 60, 56
1, 92369, Note_on_c, 0, 48, 53
1, 92393, Note_on_c, 0, 60, 0
1, 92403, Note_on_c, 9, 51, 0
1, 92453, Note_on_c, 0, 48, 0
1, 92465, Note_on_c, 0, 62, 61
1, 92489, Note_on_c, 0, 52, 39
1, 92509, Note_on_c, 0, 62, 0
1, 92531, Note_on_c, 9, 51, 64
1, 92533, Note_on_c, 1, 48, 117
1, 92535, Note_on_c, 9, 44, 92
1, 92557, Note_on_c, 0, 52, 0
1, 92557, Note_on_c, 0, 65, 60
1, 92585, Note_on_c, 1, 36, 0
1, 92597, Note_on_c, 0, 53, 26
1, 92617, Note_on_c, 0, 65, 0
1, 92629, Note_on_c, 0, 53, 0
1, 92661, Note_on_c, 0, 67, 66
1, 92677, Note_on_c, 0, 55, 54
1, 92695, Note_on_c, 9, 44, 0
1, 92713, Note_on_c, 0, 67, 0
1, 92741, Note_on_c, 0, 55, 0
1, 92741, Note_on_c, 0, 56, 48
1, 92753, Note_on_c, 0, 68, 49
1, 92771, Note_on_c, 9, 51, 0
1, 92785, Note_on_c, 1, 36, 74
1, 92791, Note_on_c, 9, 35, 38
1, 92805, Note_on_c, 0, 68, 0
1, 92817, Note_on_c, 1, 48, 0
1, 92823, Note_on_c, 9, 35, 0
1, 92845, Note_on_c, 0, 56, 0
1, 92857, Note_on_c, 0, 69, 68
1, 92861, Note_on_c, 0, 57, 57
1, 92909, Note_on_c, 0, 69, 0
1, 92913, Note_on_c, 0, 57, 0
1, 92913, Note_on_c, 9, 51, 78
1, 92925, Note_on_c, 1, 46, 87
1, 92937, Note_on_c, 0, 72, 86
1, 92941, Note_on_c, 0, 60, 70
1, 92945, Note_on_c, 1, 36, 0
1, 93005, Note_on_c, 0, 60, 0
1, 93009, Note_on_c, 0, 72, 0
1, 93061, Note_on_c, 0, 72, 73
1, 93077, Note_on_c, 0, 60, 57
1, 93125, Note_on_c, 0, 72, 0
1, 93129, Note_on_c, 0, 60, 0
1, 93149, Note_on_c, 0, 69, 63
1, 93165, Note_on_c, 0, 57, 49
1, 93185, Note_on_c, 0, 57, 0
1, 93197, Note_on_c, 0, 69, 0
1, 93235, Note_on_c, 9, 51, 0
1, 93245, Note_on_c, 0, 69, 64
1, 93265, Note_on_c, 0, 57, 54
1, 93289, Note_on_c, 0, 57, 0
1, 93293, Note_on_c, 0, 69, 0
1, 93299, Note_on_c, 9, 51, 64
1, 93303, Note_on_c, 1, 34, 81
1, 93303, Note_on_c, 9, 44, 113
1, 93321, Note_on_c, 1, 46, 0
1, 93329, Note_on_c, 0, 64, 50
1, 93405, Note_on_c, 0, 64, 0
1, 93449, Note_on_c, 0, 52, 50
1, 93449, Note_on_c, 0, 64, 62
1, 93463, Note_on_c, 9, 44, 0
1, 93497, Note_on_c, 0, 64, 0
1, 93509, Note_on_c, 0, 52, 0
1, 93521, Note_on_c, 0, 67, 83
1, 93529, Note_on_c, 0, 55, 61
1, 93587, Note_on_c, 9, 51, 0
1, 93589, Note_on_c, 0, 67, 0
1, 93601, Note_on_c, 0, 55, 0
1, 93629, Note_on_c, 0, 67, 70
1, 93641, Note_on_c, 0, 55, 64
1, 93657, Note_on_c, 1, 34, 0
1, 93683, Note_on_c, 9, 51, 68
1, 93689, Note_on_c, 1, 33, 81
1, 93693, Note_on_c, 0, 55, 0
1, 93693, Note_on_c, 0, 67, 0
1, 93713, Note_on_c, 0, 60, 54
1, 93725, Note_on_c, 0, 48, 33
1, 93757, Note_on_c, 0, 60, 0
1, 93769, Note_on_c, 0, 48, 0
1, 93825, Note_on_c, 0, 60, 51
1, 93825, Note_on_c, 0, 48, 49
1, 93869, Note_on_c, 0, 60, 0
1, 93885, Note_on_c, 0, 48, 0
1, 93897, Note_on_c, 0, 64, 65
1, 93909, Note_on_c, 0, 52, 56
1, 93939, Note_on_c, 9, 53, 85
1, 93943, Note_on_c, 9, 51, 0
1, 93945, Note_on_c, 0, 64, 0
1, 93949, Note_on_c, 1, 45, 87
1, 93965, Note_on_c, 0, 52, 0
1, 93985, Note_on_c, 1, 33, 0
1, 94001, Note_on_c, 0, 64, 48
1, 94021, Note_on_c, 0, 52, 51
1, 94025, Note_on_c, 0, 66, 33
1, 94039, Note_on_c, 9, 53, 0
1, 94053, Note_on_c, 0, 52, 0
1, 94053, Note_on_c, 0, 64, 0
1, 94057, Note_on_c, 0, 66, 0
1, 94065, Note_on_c, 1, 39, 78
1, 94067, Note_on_c, 9, 51, 64
1, 94071, Note_on_c, 9, 44, 108
1, 94077, Note_on_c, 1, 45, 0
1, 94085, Note_on_c, 0, 57, 46
1, 94093, Note_on_c, 0, 48, 46
1, 94225, Note_on_c, 9, 44, 0
1, 94325, Note_on_c, 1, 37, 60
1, 94337, Note_on_c, 9, 35, 42
1, 94345, Note_on_c, 1, 39, 0
1, 94365, Note_on_c, 0, 57, 0
1, 94377, Note_on_c, 9, 51, 0
1, 94409, Note_on_c, 0, 48, 0
1, 94425, Note_on_c, 9, 35, 0
1, 94437, Note_on_c, 1, 37, 0
1, 94449, Note_on_c, 1, 38, 73
1, 94451, Note_on_c, 9, 51, 68
1, 94465, Note_on_c, 0, 48, 25
1, 94469, Note_on_c, 0, 60, 70
1, 94473, Note_on_c, 9, 35, 38
1, 94517, Note_on_c, 0, 60, 0
1, 94529, Note_on_c, 0, 48, 0
1, 94593, Note_on_c, 0, 62, 57
1, 94593, Note_on_c, 0, 50, 53
1, 94629, Note_on_c, 0, 50, 0
1, 94653, Note_on_c, 0, 62, 0
1, 94657, Note_on_c, 9, 35, 0
1, 94681, Note_on_c, 0, 63, 63
1, 94705, Note_on_c, 1, 50, 102
1, 94713, Note_on_c, 0, 63, 0
1, 94727, Note_on_c, 9, 51, 0
1, 94729, Note_on_c, 9, 35, 33
1, 94745, Note_on_c, 0, 65, 57
1, 94761, Note_on_c, 9, 35, 0
1, 94789, Note_on_c, 0, 65, 0
1, 94805, Note_on_c, 0, 68, 57
1, 94835, Note_on_c, 9, 51, 80
1, 94839, Note_on_c, 9, 46, 57
1, 94861, Note_on_c, 0, 68, 0
1, 94873, Note_on_c, 0, 70, 49
1, 94897, Note_on_c, 9, 46, 0
1, 94897, Note_on_c, 1, 38, 0
1, 94929, Note_on_c, 0, 70, 0
1, 94941, Note_on_c, 0, 71, 39
1, 94945, Note_on_c, 1, 45, 63
1, 94965, Note_on_c, 0, 71, 0
1, 94969, Note_on_c, 0, 72, 68
1, 95001, Note_on_c, 1, 50, 0
1, 95017, Note_on_c, 1, 45, 0
1, 95033, Note_on_c, 0, 72, 0
1, 95065, Note_on_c, 1, 44, 75
1, 95075, Note_on_c, 9, 51, 0
1, 95091, Note_on_c, 9, 51, 54
1, 95155, Note_on_c, 9, 51, 0
1, 95173, Note_on_c, 0, 62, 40
1, 95173, Note_on_c, 0, 58, 43
1, 95181, Note_on_c, 0, 57, 42
1, 95193, Note_on_c, 1, 44, 0
1, 95213, Note_on_c, 1, 43, 66
1, 95219, Note_on_c, 9, 51, 101
1, 95285, Note_on_c, 1, 43, 0
1, 95345, Note_on_c, 1, 38, 60
1, 95413, Note_on_c, 1, 38, 0
1, 95437, Note_on_c, 0, 68, 52
1, 95465, Note_on_c, 1, 34, 75
1, 95533, Note_on_c, 0, 68, 0
1, 95533, Note_on_c, 0, 69, 58
1, 95539, Note_on_c, 9, 51, 0
1, 95557, Note_on_c, 1, 34, 0
1, 95589, Note_on_c, 0, 69, 0
1, 95589, Note_on_c, 1, 31, 72
1, 95601, Note_on_c, 0, 70, 54
1, 95603, Note_on_c, 9, 51, 80
1, 95607, Note_on_c, 9, 44, 108
1, 95657, Note_on_c, 0, 70, 0
1, 95661, Note_on_c, 0, 71, 63
1, 95705, Note_on_c, 0, 71, 0
1, 95725, Note_on_c, 0, 72, 63
1, 95729, Note_on_c, 9, 44, 0
1, 95757, Note_on_c, 0, 62, 0
1, 95765, Note_on_c, 0, 58, 0
1, 95773, Note_on_c, 0, 72, 0
1, 95847, Note_on_c, 9, 35, 45
1, 95849, Note_on_c, 9, 51, 0
1, 95859, Note_on_c, 0, 72, 72
1, 95859, Note_on_c, 9, 51, 56
1, 95925, Note_on_c, 0, 72, 0
1, 95939, Note_on_c, 9, 51, 0
1, 95943, Note_on_c, 9, 35, 0
1, 95985, Note_on_c, 9, 35, 26
1, 95987, Note_on_c, 1, 34, 75
1, 95987, Note_on_c, 9, 51, 66
1, 95989, Note_on_c, 0, 62, 27
1, 95989, Note_on_c, 0, 58, 33
1, 96001, Note_on_c, 0, 68, 45
1, 96005, Note_on_c, 1, 31, 0
1, 96009, Note_on_c, 0, 72, 37
1, 96061, Note_on_c, 0, 69, 60
1, 96065, Note_on_c, 0, 68, 0
1, 96081, Note_on_c, 0, 62, 0
1, 96097, Note_on_c, 9, 35, 0
1, 96113, Note_on_c, 0, 72, 0
1, 96125, Note_on_c, 0, 69, 0
1, 96137, Note_on_c, 0, 58, 0
1, 96213, Note_on_c, 0, 68, 52
1, 96213, Note_on_c, 0, 72, 41
1, 96227, Note_on_c, 9, 51, 0
1, 96241, Note_on_c, 9, 51, 43
1, 96261, Note_on_c, 0, 68, 0
1, 96265, Note_on_c, 0, 69, 63
1, 96307, Note_on_c, 9, 51, 0
1, 96313, Note_on_c, 0, 69, 0
1, 96317, Note_on_c, 0, 72, 0
1, 96341, Note_on_c, 1, 34, 0
1, 96349, Note_on_c, 0, 62, 28
1, 96357, Note_on_c, 0, 58, 40
1, 96357, Note_on_c, 1, 35, 75
1, 96371, Note_on_c, 9, 51, 106
1, 96375, Note_on_c, 9, 44, 117
1, 96385, Note_on_c, 0, 68, 55
1, 96393, Note_on_c, 0, 62, 0
1, 96405, Note_on_c, 0, 72, 32
1, 96425, Note_on_c, 0, 58, 0
1, 96437, Note_on_c, 0, 68, 0
1, 96445, Note_on_c, 0, 69, 55
1, 96503, Note_on_c, 9, 44, 0
1, 96525, Control_c, 0, 64, 127
1, 96533, Note_on_c, 0, 57, 0
1, 96545, Note_on_c, 0, 72, 0
1, 96561, Note_on_c, 0, 69, 0
1, 96609, Note_on_c, 1, 34, 42
1, 96625, Note_on_c, 0, 62, 49
1, 96633, Note_on_c, 0, 58, 32
1, 96645, Note_on_c, 0, 62, 0
1, 96669, Note_on_c, 0, 58, 0
1, 96675, Note_on_c, 9, 51, 0
1, 96701, Note_on_c, 1, 34, 0
1, 96705, Control_c, 0, 64, 0
1, 96713, Note_on_c, 1, 35, 0
1, 96737, Note_on_c, 1, 36, 74
1, 96755, Note_on_c, 9, 51, 85
1, 96765, Note_on_c, 0, 62, 50
1, 96769, Note_on_c, 0, 84, 54
1, 96773, Note_on_c, 0, 72, 52
1, 96777, Note_on_c, 0, 52, 39
1, 96781, Note_on_c, 0, 58, 42
1, 96797, Control_c, 0, 64, 127
1, 96883, Note_on_c, 9, 31, 42
1, 96909, Note_on_c, 0, 52, 0
1, 96909, Note_on_c, 0, 72, 0
1, 96917, Note_on_c, 0, 84, 0
1, 96921, Note_on_c, 0, 62, 0
1, 96925, Note_on_c, 9, 31, 0
1, 96933, Note_on_c, 0, 58, 0
1, 96969, Note_on_c, 9, 51, 0
1, 97005, Note_on_c, 0, 86, 75
1, 97013, Note_on_c, 0, 79, 67
1, 97013, Note_on_c, 0, 62, 58
1, 97017, Note_on_c, 0, 74, 66
1, 97017, Note_on_c, 0, 58, 53
1, 97021, Note_on_c, 0, 52, 54
1, 97033, Note_on_c, 0, 82, 34
1, 97057, Control_c, 0, 64, 0
1, 97061, Note_on_c, 0, 82, 0
1, 97073, Note_on_c, 1, 36, 0
1, 97081, Note_on_c, 0, 86, 0
1, 97081, Note_on_c, 0, 52, 0
1, 97089, Note_on_c, 0, 74, 0
1, 97089, Note_on_c, 0, 62, 0
1, 97101, Note_on_c, 0, 79, 0
1, 97109, Note_on_c, 0, 58, 0
1, 97113, Note_on_c, 1, 36, 74
1, 97139, Note_on_c, 9, 51, 64
1, 97143, Note_on_c, 9, 44, 110
1, 97145, Note_on_c, 9, 31, 31
1, 97149, Note_on_c, 0, 52, 40
1, 97149, Note_on_c, 0, 84, 52
1, 97149, Note_on_c, 0, 62, 42
1, 97157, Note_on_c, 0, 58, 46
1, 97165, Note_on_c, 0, 72, 38
1, 97169, Note_on_c, 0, 79, 41
1, 97187, Note_on_c, 9, 31, 0
1, 97189, Control_c, 0, 64, 127
1, 97217, Note_on_c, 0, 52, 0
1, 97229, Note_on_c, 0, 72, 0
1, 97233, Note_on_c, 0, 84, 0
1, 97237, Note_on_c, 0, 62, 0
1, 97249, Note_on_c, 9, 44, 0
1, 97253, Note_on_c, 0, 79, 0
1, 97257, Note_on_c, 0, 58, 0
1, 97395, Note_on_c, 9, 51, 43
1, 97397, Note_on_c, 0, 86, 57
1, 97399, Note_on_c, 9, 51, 0
1, 97399, Note_on_c, 9, 35, 57
1, 97405, Note_on_c, 0, 58, 44
1, 97405, Note_on_c, 0, 62, 41
1, 97413, Note_on_c, 0, 52, 35
1, 97431, Note_on_c, 9, 35, 0
1, 97433, Note_on_c, 0, 62, 0
1, 97437, Note_on_c, 0, 52, 0
1, 97449, Note_on_c, 0, 86, 0
1, 97457, Note_on_c, 0, 58, 0
1, 97469, Control_c, 0, 64, 0
1, 97479, Note_on_c, 9, 51, 0
1, 97481, Note_on_c, 1, 36, 0
1, 97517, Note_on_c, 1, 36, 85
1, 97523, Note_on_c, 9, 51, 92
1, 97525, Note_on_c, 0, 58, 45
1, 97525, Note_on_c, 0, 62, 44
1, 97525, Note_on_c, 0, 89, 69
1, 97533, Note_on_c, 0, 52, 43
1, 97533, Note_on_c, 0, 77, 57
1, 97537, Note_on_c, 0, 84, 50
1, 97565, Note_on_c, 0, 52, 0
1, 97581, Control_c, 0, 64, 127
1, 97585, Note_on_c, 0, 62, 0
1, 97597, Note_on_c, 0, 77, 0
1, 97605, Note_on_c, 0, 58, 0
1, 97617, Note_on_c, 0, 84, 0
1, 97621, Note_on_c, 0, 89, 0
1, 97665, Note_on_c, 9, 31, 57
1, 97703, Note_on_c, 9, 31, 0
1, 97769, Note_on_c, 0, 58, 57
1, 97785, Note_on_c, 0, 58, 0
1, 97841, Note_on_c, 1, 36, 0
1, 97843, Note_on_c, 9, 51, 0
1, 97857, Control_c, 0, 64, 0
1, 97893, Note_on_c, 0, 92, 90
1, 97893, Note_on_c, 1, 36, 77
1, 97897, Note_on_c, 0, 80, 89
1, 97897, Note_on_c, 9, 31, 57
1, 97901, Note_on_c, 0, 86, 83
1, 97905, Note_on_c, 0, 58, 84
1, 97907, Note_on_c, 0, 62, 85
1, 97907, Note_on_c, 9, 51, 59
1, 97909, Note_on_c, 0, 52, 79
1, 97911, Note_on_c, 9, 44, 113
1, 97945, Control_c, 0, 64, 127
1, 97955, Note_on_c, 9, 31, 0
1, 98021, Note_on_c, 0, 62, 0
1, 98023, Note_on_c, 9, 44, 0
1, 98025, Note_on_c, 0, 80, 0
1, 98025, Note_on_c, 0, 58, 0
1, 98029, Note_on_c, 0, 92, 0
1, 98033, Note_on_c, 0, 86, 0
1, 98057, Note_on_c, 0, 52, 0
1, 98161, Note_on_c, 0, 62, 36
1, 98165, Note_on_c, 0, 92, 71
1, 98165, Note_on_c, 1, 34, 57
1, 98167, Note_on_c, 9, 35, 40
1, 98177, Note_on_c, 0, 80, 75
1, 98179, Note_on_c, 9, 51, 0
1, 98189, Note_on_c, 0, 62, 0
1, 98213, Note_on_c, 0, 92, 0
1, 98237, Note_on_c, 9, 35, 0
1, 98237, Note_on_c, 0, 80, 0
1, 98277, Note_on_c, 1, 34, 0
1, 98277, Control_c, 0, 64, 0
1, 98281, Note_on_c, 1, 48, 115
1, 98291, Note_on_c, 9, 51, 89
1, 98293, Note_on_c, 0, 65, 58
1, 98305, Note_on_c, 0, 60, 43
1, 98305, Note_on_c, 0, 89, 57
1, 98305, Note_on_c, 0, 55, 47
1, 98305, Note_on_c, 0, 77, 56
1, 98305, Note_on_c, 0, 84, 57
1, 98305, Note_on_c, 0, 61, 52
1, 98311, Note_on_c, 9, 35, 36
1, 98325, Note_on_c, 0, 58, 36
1, 98433, Note_on_c, 0, 61, 0
1, 98441, Note_on_c, 0, 55, 0
1, 98453, Note_on_c, 0, 65, 0
1, 98453, Note_on_c, 0, 60, 0
1, 98457, Note_on_c, 0, 58, 0
1, 98469, Note_on_c, 0, 77, 0
1, 98473, Note_on_c, 0, 84, 0
1, 98481, Note_on_c, 9, 35, 0
1, 98517, Note_on_c, 0, 89, 0
1, 98525, Note_on_c, 1, 34, 51
1, 98547, Note_on_c, 9, 35, 47
1, 98573, Note_on_c, 9, 35, 0
1, 98573, Note_on_c, 1, 48, 0
1, 98617, Note_on_c, 9, 51, 0
1, 98669, Note_on_c, 1, 48, 115
1, 98675, Note_on_c, 9, 51, 56
1, 98679, Note_on_c, 9, 44, 119
1, 98681, Note_on_c, 1, 34, 0
1, 98685, Note_on_c, 0, 65, 53
1, 98685, Note_on_c, 0, 89, 59
1, 98685, Note_on_c, 0, 60, 48
1, 98689, Note_on_c, 0, 84, 59
1, 98689, Note_on_c, 0, 77, 55
1, 98689, Note_on_c, 0, 61, 47
1, 98697, Note_on_c, 0, 55, 41
1, 98709, Control_c, 0, 64, 127
1, 98785, Note_on_c, 9, 44, 0
1, 98833, Note_on_c, 0, 65, 0
1, 98837, Note_on_c, 0, 60, 0
1, 98853, Note_on_c, 0, 61, 0
1, 98853, Note_on_c, 0, 55, 0
1, 98897, Note_on_c, 0, 77, 0
1, 98913, Note_on_c, 0, 84, 0
1, 98913, Note_on_c, 0, 89, 0
1, 98931, Note_on_c, 9, 51, 54
1, 98935, Note_on_c, 9, 51, 0
1, 98969, Note_on_c, 1, 34, 37
1, 98973, Note_on_c, 1, 48, 0
1, 99027, Note_on_c, 9, 51, 0
1, 99041, Note_on_c, 1, 34, 0
1, 99045, Note_on_c, 1, 48, 92
1, 99053, Control_c, 0, 64, 0
1, 99053, Note_on_c, 0, 54, 63
1, 99057, Note_on_c, 0, 65, 66
1, 99059, Note_on_c, 9, 51, 75
1, 99061, Note_on_c, 0, 60, 61
1, 99137, Note_on_c, 1, 36, 0
1, 99201, Control_c, 0, 64, 127
1, 99289, Note_on_c, 1, 37, 76
1, 99293, Note_on_c, 0, 65, 0
1, 99297, Note_on_c, 0, 60, 0
1, 99299, Note_on_c, 9, 32, 40
1, 99321, Note_on_c, 9, 32, 0
1, 99329, Note_on_c, 0, 54, 0
1, 99347, Note_on_c, 9, 51, 0
1, 99405, Note_on_c, 1, 37, 0
1, 99409, Note_on_c, 1, 48, 0
1, 99417, Control_c, 0, 64, 0
1, 99421, Note_on_c, 1, 38, 75
1, 99441, Note_on_c, 0, 54, 58
1, 99443, Note_on_c, 9, 51, 82
1, 99447, Note_on_c, 9, 44, 113
1, 99449, Control_c, 0, 64, 127
1, 99449, Note_on_c, 0, 65, 50
1, 99449, Note_on_c, 0, 60, 60
1, 99537, Note_on_c, 9, 44, 0
1, 99541, Note_on_c, 0, 60, 0
1, 99545, Note_on_c, 0, 65, 0
1, 99641, Note_on_c, 0, 54, 0
1, 99649, Note_on_c, 1, 34, 37
1, 99685, Note_on_c, 1, 44, 88
1, 99689, Note_on_c, 9, 51, 0
1, 99697, Note_on_c, 1, 38, 0
1, 99699, Note_on_c, 9, 51, 49
1, 99705, Control_c, 0, 64, 0
1, 99709, Note_on_c, 0, 92, 89
1, 99709, Note_on_c, 0, 64, 85
1, 99709, Note_on_c, 0, 59, 78
1, 99709, Note_on_c, 0, 53, 76
1, 99717, Note_on_c, 0, 80, 88
1, 99717, Note_on_c, 0, 86, 85
1, 99737, Note_on_c, 1, 34, 0
1, 99783, Note_on_c, 9, 51, 0
1, 99793, Control_c, 0, 64, 127
1, 99809, Note_on_c, 1, 44, 0
1, 99825, Note_on_c, 1, 43, 69
1, 99827, Note_on_c, 9, 51, 98
1, 99869, Note_on_c, 0, 80, 0
1, 99873, Note_on_c, 0, 86, 0
1, 99893, Note_on_c, 0, 92, 0
1, 99893, Note_on_c, 0, 64, 0
1, 99893, Note_on_c, 0, 59, 0
1, 99909, Note_on_c, 0, 53, 0
1, 100065, Note_on_c, 1, 38, 68
1, 100083, Note_on_c, 9, 35, 42
1, 100101, Note_on_c, 0, 95, 120
1, 100101, Note_on_c, 0, 59, 98
1, 100101, Note_on_c, 0, 87, 120
1, 100101, Note_on_c, 0, 90, 99
1, 100101, Note_on_c, 0, 64, 111
1, 100101, Note_on_c, 0, 53, 96
1, 100101, Note_on_c, 0, 83, 122
1, 100109, Control_c, 0, 64, 0
1, 100109, Note_on_c, 0, 93, 84
1, 100121, Note_on_c, 9, 35, 0
1, 100125, Note_on_c, 0, 93, 0
1, 100153, Note_on_c, 9, 51, 0
1, 100165, Note_on_c, 1, 38, 0
1, 100189, Note_on_c, 1, 35, 77
1, 100193, Note_on_c, 1, 43, 0
1, 100197, Control_c, 0, 64, 127
1, 100205, Note_on_c, 0, 83, 0
1, 100205, Note_on_c, 0, 87, 0
1, 100211, Note_on_c, 9, 51, 73
1, 100211, Note_on_c, 9, 35, 33
1, 100215, Note_on_c, 9, 44, 122
1, 100229, Note_on_c, 0, 95, 0
1, 100229, Note_on_c, 0, 64, 0
1, 100233, Note_on_c, 0, 90, 0
1, 100237, Note_on_c, 0, 53, 0
1, 100257, Note_on_c, 0, 59, 0
1, 100269, Note_on_c, 0, 95, 88
1, 100269, Note_on_c, 0, 90, 80
1, 100273, Note_on_c, 0, 87, 90
1, 100277, Note_on_c, 0, 64, 84
1, 100277, Note_on_c, 0, 83, 90
1, 100277, Note_on_c, 0, 53, 85
1, 100277, Note_on_c, 0, 59, 63
1, 100289, Note_on_c, 0, 93, 47
1, 100311, Note_on_c, 9, 44, 0
1, 100365, Note_on_c, 0, 64, 0
1, 100369, Note_on_c, 0, 95, 0
1, 100373, Note_on_c, 0, 83, 0
1, 100377, Note_on_c, 0, 59, 0
1, 100381, Note_on_c, 0, 87, 0
1, 100385, Note_on_c, 0, 93, 0
1, 100397, Note_on_c, 0, 53, 0
1, 100397, Note_on_c, 0, 90, 0
1, 100403, Note_on_c, 9, 35, 0
1, 100465, Control_c, 0, 64, 0
1, 100473, Note_on_c, 0, 94, 92
1, 100477, Note_on_c, 0, 82, 102
1, 100481, Note_on_c, 0, 87, 90
1, 100481, Note_on_c, 0, 62, 94
1, 100481, Note_on_c, 0, 52, 96
1, 100481, Note_on_c, 0, 58, 85
1, 100485, Note_on_c, 0, 90, 69
1, 100493, Note_on_c, 0, 60, 69
1, 100505, Note_on_c, 0, 90, 0
1, 100509, Note_on_c, 0, 60, 0
1, 100509, Note_on_c, 0, 57, 42
1, 100515, Note_on_c, 9, 51, 0
1, 100521, Note_on_c, 0, 90, 33
1, 100557, Note_on_c, 0, 57, 0
1, 100569, Note_on_c, 0, 58, 0
1, 100569, Note_on_c, 0, 82, 0
1, 100569, Note_on_c, 1, 35, 0
1, 100573, Note_on_c, 0, 62, 0
1, 100577, Note_on_c, 0, 52, 0
1, 100577, Note_on_c, 0, 94, 0
1, 100585, Note_on_c, 0, 87, 0
1, 100589, Note_on_c, 0, 90, 0
1, 100589, Note_on_c, 1, 36, 68
1, 100595, Note_on_c, 9, 51, 64
1, 100621, Note_on_c, 0, 52, 77
1, 100625, Note_on_c, 0, 58, 76
1, 100625, Note_on_c, 0, 94, 69
1, 100625, Note_on_c, 0, 62, 76
1, 100629, Note_on_c, 0, 87, 72
1, 100633, Note_on_c, 0, 82, 72
1, 100633, Note_on_c, 0, 90, 59
1, 100669, Note_on_c, 0, 92, 18
1, 100709, Note_on_c, 0, 82, 0
1, 100709, Note_on_c, 0, 94, 0
1, 100721, Note_on_c, 0, 52, 0
1, 100721, Note_on_c, 0, 62, 0
1, 100729, Note_on_c, 0, 58, 0
1, 100733, Note_on_c, 0, 92, 0
1, 100733, Note_on_c, 0, 90, 0
1, 100739, Note_on_c, 9, 35, 42
1, 100745, Note_on_c, 0, 87, 0
1, 100777, Note_on_c, 9, 35, 0
1, 100855, Note_on_c, 9, 35, 33
1, 100857, Note_on_c, 0, 92, 85
1, 100861, Note_on_c, 0, 80, 85
1, 100861, Note_on_c, 0, 87, 84
1, 100861, Note_on_c, 0, 58, 86
1, 100861, Note_on_c, 0, 62, 94
1, 100865, Note_on_c, 0, 52, 88
1, 100889, Note_on_c, 9, 35, 0
1, 100921, Note_on_c, 9, 51, 0
1, 100929, Note_on_c, 0, 62, 0
1, 100929, Note_on_c, 0, 80, 0
1, 100933, Note_on_c, 0, 92, 0
1, 100937, Note_on_c, 0, 52, 0
1, 100949, Note_on_c, 0, 87, 0
1, 100949, Note_on_c, 0, 58, 0
1, 100961, Note_on_c, 1, 30, 86
1, 100979, Note_on_c, 9, 51, 78
1, 100983, Note_on_c, 9, 44, 117
1, 100985, Note_on_c, 9, 35, 52
1, 100993, Note_on_c, 0, 58, 68
1, 100997, Note_on_c, 1, 36, 0
1, 100997, Note_on_c, 0, 52, 72
1, 100997, Note_on_c, 0, 62, 77
1, 101001, Note_on_c, 0, 77, 71
1, 101001, Note_on_c, 0, 89, 73
1, 101001, Note_on_c, 0, 91, 76
1, 101005, Note_on_c, 0, 85, 54
1, 101009, Note_on_c, 0, 79, 68
1, 101025, Note_on_c, 0, 79, 0
1, 101025, Note_on_c, 0, 85, 0
1, 101037, Note_on_c, 0, 91, 0
1, 101069, Note_on_c, 0, 89, 0
1, 101073, Note_on_c, 9, 44, 0
1, 101081, Note_on_c, 0, 77, 0
1, 101089, Control_c, 0, 64, 127
1, 101093, Note_on_c, 0, 62, 0
1, 101125, Note_on_c, 0, 58, 0
1, 101133, Note_on_c, 0, 52, 0
1, 101145, Note_on_c, 9, 35, 0
1, 101223, Note_on_c, 9, 35, 59
1, 101233, Note_on_c, 0, 58, 52
1, 101233, Note_on_c, 0, 76, 71
1, 101233, Note_on_c, 0, 62, 54
1, 101249, Note_on_c, 0, 58, 0
1, 101255, Note_on_c, 9, 35, 0
1, 101277, Note_on_c, 0, 62, 0
1, 101281, Note_on_c, 0, 76, 0
1, 101293, Control_c, 0, 64, 0
1, 101329, Note_on_c, 1, 30, 0
1, 101331, Note_on_c, 9, 51, 0
1, 101349, Note_on_c, 0, 62, 60
1, 101353, Note_on_c, 0, 53, 52
1, 101361, Note_on_c, 0, 60, 57
1, 101361, Note_on_c, 0, 57, 61
1, 101361, Note_on_c, 1, 29, 81
1, 101363, Note_on_c, 0, 77, 66
1, 101363, Note_on_c, 9, 51, 70
1, 101369, Note_on_c, 0, 84, 54
1, 101369, Note_on_c, 0, 89, 56
1, 101377, Note_on_c, 0, 86, 44
1, 101401, Note_on_c, 0, 62, 0
1, 101405, Note_on_c, 0, 86, 0
1, 101413, Note_on_c, 0, 77, 0
1, 101417, Note_on_c, 0, 60, 0
1, 101425, Note_on_c, 0, 57, 0
1, 101425, Note_on_c, 0, 89, 0
1, 101429, Note_on_c, 0, 53, 0
1, 101429, Note_on_c, 0, 84, 0
1, 101629, Note_on_c, 0, 89, 67
1, 101629, Note_on_c, 0, 62, 63
1, 101629, Note_on_c, 0, 84, 60
1, 101629, Note_on_c, 0, 60, 55
1, 101637, Note_on_c, 0, 53, 50
1, 101641, Note_on_c, 0, 57, 55
1, 101649, Note_on_c, 0, 84, 0
1, 101657, Note_on_c, 0, 62, 0
1, 101661, Note_on_c, 0, 57, 0
1, 101665, Note_on_c, 0, 53, 0
1, 101669, Note_on_c, 0, 60, 0
1, 101681, Note_on_c, 0, 89, 0
1, 101699, Note_on_c, 9, 51, 0
1, 101729, Note_on_c, 1, 36, 77
1, 101747, Note_on_c, 9, 51, 84
1, 101751, Note_on_c, 9, 44, 120
1, 101753, Note_on_c, 1, 29, 0
1, 101837, Note_on_c, 9, 44, 0
1, 101945, Note_on_c, 9, 51, 0
1, 102001, Note_on_c, 1, 29, 47
1, 102003, Note_on_c, 9, 51, 84
1, 102023, Note_on_c, 9, 35, 68
1, 102033, Note_on_c, 0, 60, 29
1, 102057, Note_on_c, 0, 60, 0
1, 102071, Note_on_c, 9, 35, 0
1, 102073, Note_on_c, 1, 29, 0
1, 102083, Note_on_c, 9, 51, 0
1, 102109, Note_on_c, 1, 43, 78
1, 102131, Note_on_c, 9, 51, 73
1, 102149, Note_on_c, 1, 36, 0
1, 102441, Note_on_c, 1, 36, 30
1, 102455, Note_on_c, 9, 51, 0
1, 102465, Note_on_c, 1, 43, 0
1, 102481, Note_on_c, 1, 36, 0
1, 102501, Note_on_c, 1, 43, 87
1, 102515, Note_on_c, 9, 51, 103
1, 102519, Note_on_c, 9, 44, 112
1, 102525, Note_on_c, 0, 59, 102
1, 102525, Note_on_c, 0, 87, 94
1, 102525, Note_on_c, 0, 90, 85
1, 102525, Note_on_c, 0, 95, 87
1, 102525, Note_on_c, 0, 58, 81
1, 102525, Note_on_c, 0, 83, 92
1, 102533, Note_on_c, 0, 93, 74
1, 102541, Note_on_c, 0, 56, 41
1, 102553, Note_on_c, 0, 93, 0
1, 102565, Note_on_c, 0, 56, 0
1, 102573, Note_on_c, 0, 87, 0
1, 102573, Note_on_c, 0, 58, 0
1, 102573, Note_on_c, 0, 88, 57
1, 102573, Note_on_c, 0, 93, 25
1, 102605, Note_on_c, 0, 91, 33
1, 102613, Note_on_c, 0, 90, 0
1, 102625, Note_on_c, 9, 44, 0
1, 102673, Note_on_c, 0, 83, 0
1, 102673, Note_on_c, 0, 95, 0
1, 102677, Note_on_c, 0, 91, 0
1, 102685, Note_on_c, 0, 88, 0
1, 102705, Note_on_c, 0, 93, 0
1, 102725, Note_on_c, 0, 59, 0
1, 102739, Note_on_c, 9, 51, 0
1, 102757, Note_on_c, 1, 36, 45
1, 102771, Note_on_c, 9, 51, 63
1, 102777, Note_on_c, 0, 58, 85
1, 102781, Note_on_c, 0, 94, 92
1, 102785, Note_on_c, 0, 82, 96
1, 102785, Note_on_c, 0, 87, 87
1, 102801, Note_on_c, 1, 36, 0
1, 102805, Note_on_c, 0, 90, 32
1, 102855, Note_on_c, 9, 51, 0
1, 102857, Note_on_c, 1, 43, 0
1, 102877, Note_on_c, 1, 45, 76
1, 102899, Note_on_c, 9, 51, 56
1, 102921, Note_on_c, 9, 35, 28
1, 102933, Note_on_c, 0, 94, 0
1, 102933, Note_on_c, 0, 82, 0
1, 102937, Note_on_c, 0, 90, 0
1, 102961, Note_on_c, 9, 35, 0
1, 102961, Note_on_c, 0, 87, 0
1, 103029, Note_on_c, 0, 58, 0
1, 103029, Note_on_c, 0, 92, 74
1, 103037, Note_on_c, 0, 80, 68
1, 103037, Note_on_c, 0, 56, 61
1, 103045, Note_on_c, 0, 86, 65
1, 103069, Control_c, 0, 64, 127
1, 103125, Note_on_c, 0, 86, 0
1, 103137, Note_on_c, 0, 92, 0
1, 103173, Note_on_c, 0, 80, 0
1, 103229, Note_on_c, 0, 56, 0
1, 103229, Control_c, 0, 64, 0
1, 103235, Note_on_c, 9, 51, 0
1, 103265, Note_on_c, 1, 35, 85
1, 103273, Note_on_c, 0, 89, 71
1, 103277, Control_c, 0, 64, 127
1, 103281, Note_on_c, 0, 77, 50
1, 103281, Note_on_c, 0, 53, 58
1, 103281, Note_on_c, 0, 84, 59
1, 103281, Note_on_c, 9, 51, 92
1, 103287, Note_on_c, 9, 44, 120
1, 103305, Note_on_c, 1, 45, 0
1, 103341, Note_on_c, 0, 53, 0
1, 103381, Note_on_c, 0, 89, 0
1, 103383, Note_on_c, 9, 44, 0
1, 103389, Note_on_c, 0, 84, 0
1, 103405, Note_on_c, 0, 77, 0
1, 103497, Note_on_c, 9, 51, 0
1, 103539, Note_on_c, 9, 51, 59
1, 103545, Control_c, 0, 64, 0
1, 103545, Note_on_c, 9, 35, 29
1, 103549, Note_on_c, 0, 80, 62
1, 103549, Note_on_c, 0, 86, 66
1, 103557, Note_on_c, 0, 62, 56
1, 103557, Note_on_c, 0, 74, 39
1, 103573, Note_on_c, 0, 60, 32
1, 103577, Note_on_c, 9, 35, 0
1, 103597, Note_on_c, 0, 60, 0
1, 103601, Note_on_c, 0, 80, 0
1, 103609, Note_on_c, 0, 62, 0
1, 103617, Note_on_c, 0, 81, 40
1, 103619, Note_on_c, 9, 51, 0
1, 103645, Note_on_c, 0, 81, 0
1, 103657, Note_on_c, 0, 86, 0
1, 103657, Control_c, 0, 64, 127
1, 103665, Note_on_c, 9, 51, 68
1, 103673, Note_on_c, 0, 74, 0
1, 103673, Note_on_c, 1, 36, 77
1, 103685, Note_on_c, 1, 35, 0
1, 103821, Note_on_c, 0, 73, 63
1, 103821, Note_on_c, 0, 68, 78
1, 103821, Note_on_c, 0, 64, 64
1, 103829, Note_on_c, 0, 58, 75
1, 103837, Control_c, 0, 64, 0
1, 103897, Control_c, 0, 64, 127
1, 103913, Note_on_c, 1, 50, 102
1, 103991, Note_on_c, 9, 51, 0
1, 103993, Note_on_c, 0, 73, 0
1, 104009, Note_on_c, 0, 64, 0
1, 104017, Note_on_c, 0, 58, 0
1, 104029, Control_c, 0, 64, 0
1, 104037, Note_on_c, 0, 68, 0
1, 104041, Note_on_c, 1, 50, 0
1, 104049, Note_on_c, 1, 36, 0
1, 104051, Note_on_c, 9, 51, 92
1, 104055, Note_on_c, 9, 44, 119
1, 104057, Note_on_c, 1, 48, 78
1, 104073, Note_on_c, 0, 72, 63
1, 104077, Note_on_c, 0, 57, 58
1, 104081, Control_c, 0, 64, 127
1, 104081, Note_on_c, 0, 67, 58
1, 104089, Note_on_c, 0, 62, 43
1, 104145, Note_on_c, 0, 72, 0
1, 104149, Note_on_c, 0, 67, 0
1, 104193, Note_on_c, 9, 44, 0
1, 104205, Note_on_c, 0, 62, 0
1, 104259, Note_on_c, 9, 51, 0
1, 104305, Control_c, 0, 64, 0
1, 104305, Note_on_c, 1, 41, 60
1, 104307, Note_on_c, 9, 51, 52
1, 104313, Note_on_c, 0, 57, 0
1, 104321, Note_on_c, 0, 69, 67
1, 104329, Note_on_c, 0, 64, 60
1, 104329, Note_on_c, 0, 60, 58
1, 104337, Note_on_c, 1, 41, 0
1, 104337, Note_on_c, 0, 53, 55
1, 104369, Control_c, 0, 64, 127
1, 104375, Note_on_c, 9, 51, 0
1, 104405, Note_on_c, 0, 69, 0
1, 104413, Note_on_c, 0, 64, 0
1, 104433, Note_on_c, 1, 48, 0
1, 104435, Note_on_c, 9, 51, 66
1, 104441, Note_on_c, 0, 53, 0
1, 104441, Note_on_c, 1, 45, 72
1, 104457, Note_on_c, 0, 60, 0
1, 104467, Note_on_c, 9, 35, 22
1, 104503, Note_on_c, 9, 35, 0
1, 104597, Note_on_c, 0, 64, 64
1, 104609, Note_on_c, 0, 57, 56
1, 104613, Note_on_c, 0, 55, 51
1, 104741, Note_on_c, 0, 55, 0
1, 104755, Note_on_c, 9, 51, 0
1, 104757, Note_on_c, 0, 57, 0
1, 104793, Note_on_c, 0, 64, 0
1, 104809, Control_c, 0, 64, 0
1, 104819, Note_on_c, 9, 51, 61
1, 104823, Note_on_c, 9, 44, 112
1, 104825, Note_on_c, 1, 41, 78
1, 104845, Note_on_c, 0, 48, 57
1, 104849, Note_on_c, 0, 57, 49
1, 104849, Note_on_c, 0, 60, 56
1, 104853, Note_on_c, 1, 45, 0
1, 104853, Note_on_c, 0, 53, 45
1, 104889, Control_c, 0, 64, 127
1, 104951, Note_on_c, 9, 44, 0
1, 104973, Note_on_c, 0, 53, 0
1, 104985, Note_on_c, 9, 51, 0
1, 105041, Note_on_c, 0, 57, 0
1, 105053, Note_on_c, 0, 60, 0
1, 105075, Note_on_c, 9, 51, 49
1, 105077, Note_on_c, 0, 48, 0
1, 105093, Note_on_c, 0, 62, 52
1, 105093, Note_on_c, 0, 50, 52
1, 105093, Note_on_c, 0, 53, 49
1, 105093, Control_c, 0, 64, 0
1, 105095, Note_on_c, 9, 35, 29
1, 105097, Note_on_c, 0, 57, 51
1, 105101, Note_on_c, 0, 60, 46
1, 105133, Note_on_c, 9, 35, 0
1, 105201, Control_c, 0, 64, 127
1, 105205, Note_on_c, 1, 34, 78
1, 105209, Note_on_c, 1, 41, 0
1, 105329, Note_on_c, 9, 34, 33
1, 105369, Note_on_c, 9, 34, 0
1, 105415, Note_on_c, 9, 51, 0
1, 105449, Note_on_c, 9, 35, 42
1, 105489, Note_on_c, 9, 35, 0
1, 105565, Note_on_c, 1, 41, 83
1, 105577, Note_on_c, 9, 34, 31
1, 105587, Note_on_c, 9, 51, 119
1, 105591, Note_on_c, 9, 44, 113
1, 105597, Note_on_c, 1, 34, 0
1, 105613, Note_on_c, 0, 53, 0
1, 105641, Note_on_c, 9, 34, 0
1, 105689, Note_on_c, 0, 57, 0
1, 105697, Note_on_c, 9, 44, 0
1, 105701, Note_on_c, 0, 60, 0
1, 105709, Note_on_c, 0, 62, 0
1, 105733, Note_on_c, 0, 50, 0
1, 105763, Note_on_c, 9, 51, 0
1, 105825, Note_on_c, 1, 41, 0
1, 105825, Note_on_c, 1, 34, 74
1, 105841, Note_on_c, 0, 56, 68
1, 105841, Note_on_c, 0, 51, 66
1, 105843, Note_on_c, 9, 51, 66
1, 105849, Note_on_c, 0, 63, 56
1, 105853, Note_on_c, 0, 55, 60
1, 105857, Note_on_c, 0, 60, 49
1, 105891, Note_on_c, 9, 51, 0
1, 105909, Note_on_c, 0, 55, 0
1, 105913, Control_c, 0, 64, 0
1, 105921, Note_on_c, 1, 34, 0
1, 105945, Note_on_c, 0, 63, 0
1, 105945, Note_on_c, 0, 60, 0
1, 105949, Note_on_c, 1, 33, 73
1, 105953, Note_on_c, 0, 56, 0
1, 105961, Note_on_c, 0, 51, 0
1, 105971, Note_on_c, 9, 51, 77
1, 105981, Note_on_c, 0, 55, 54
1, 105985, Note_on_c, 0, 52, 56
1, 105985, Note_on_c, 0, 64, 49
1, 106009, Note_on_c, 0, 64, 0
1, 106013, Note_on_c, 0, 55, 0
1, 106109, Note_on_c, 0, 52, 0
1, 106197, Note_on_c, 1, 33, 0
1, 106205, Note_on_c, 1, 40, 81
1, 106217, Note_on_c, 0, 67, 57
1, 106225, Note_on_c, 0, 60, 54
1, 106227, Note_on_c, 9, 51, 0
1, 106233, Note_on_c, 0, 55, 63
1, 106233, Note_on_c, 0, 64, 47
1, 106241, Note_on_c, 0, 60, 0
1, 106257, Note_on_c, 0, 65, 33
1, 106261, Note_on_c, 0, 64, 0
1, 106265, Note_on_c, 0, 67, 0
1, 106281, Note_on_c, 0, 65, 0
1, 106289, Note_on_c, 1, 40, 0
1, 106325, Note_on_c, 0, 55, 0
1, 106333, Note_on_c, 1, 36, 68
1, 106353, Note_on_c, 0, 64, 57
1, 106353, Note_on_c, 0, 59, 55
1, 106353, Note_on_c, 0, 71, 65
1, 106355, Note_on_c, 0, 60, 55
1, 106355, Note_on_c, 9, 51, 124
1, 106359, Note_on_c, 9, 44, 106
1, 106365, Note_on_c, 0, 67, 46
1, 106393, Note_on_c, 0, 67, 0
1, 106429, Note_on_c, 0, 60, 0
1, 106429, Note_on_c, 0, 59, 0
1, 106429, Note_on_c, 0, 64, 0
1, 106457, Note_on_c, 0, 71, 0
1, 106481, Note_on_c, 9, 44, 0
1, 106481, Note_on_c, 0, 55, 51
1, 106505, Note_on_c, 0, 60, 25
1, 106531, Note_on_c, 9, 51, 0
1, 106537, Note_on_c, 0, 60, 0
1, 106541, Note_on_c, 0, 55, 0
1, 106573, Note_on_c, 1, 36, 0
1, 106585, Note_on_c, 1, 37, 70
1, 106597, Note_on_c, 0, 56, 66
1, 106601, Note_on_c, 0, 68, 61
1, 106605, Note_on_c, 0, 66, 54
1, 106611, Note_on_c, 9, 51, 103
1, 106613, Note_on_c, 0, 63, 50
1, 106613, Note_on_c, 0, 60, 33
1, 106663, Note_on_c, 9, 51, 0
1, 106701, Note_on_c, 0, 56, 0
1, 106709, Note_on_c, 0, 60, 0
1, 106721, Note_on_c, 0, 66, 0
1, 106721, Note_on_c, 1, 37, 0
1, 106721, Note_on_c, 1, 38, 73
1, 106733, Note_on_c, 0, 60, 27
1, 106737, Note_on_c, 0, 57, 54
1, 106737, Note_on_c, 0, 69, 57
1, 106739, Note_on_c, 9, 51, 75
1, 106755, Note_on_c, 9, 31, 70
1, 106765, Note_on_c, 0, 66, 22
1, 106773, Note_on_c, 0, 60, 0
1, 106785, Note_on_c, 0, 68, 0
1, 106787, Note_on_c, 9, 31, 0
1, 106789, Note_on_c, 0, 63, 0
1, 106789, Note_on_c, 0, 69, 0
1, 106793, Note_on_c, 0, 66, 0
1, 106809, Note_on_c, 0, 57, 0
1, 106835, Note_on_c, 9, 51, 0
1, 106873, Note_on_c, 0, 59, 43
1, 106909, Note_on_c, 0, 59, 0
1, 106963, Note_on_c, 9, 31, 87
1, 106989, Note_on_c, 0, 60, 68
1, 106993, Note_on_c, 0, 72, 49
1, 106995, Note_on_c, 9, 31, 0
1, 106995, Note_on_c, 9, 53, 127
1, 107001, Note_on_c, 1, 37, 54
1, 107013, Note_on_c, 0, 72, 0
1, 107037, Note_on_c, 0, 60, 0
1, 107063, Note_on_c, 9, 53, 0
1, 107077, Note_on_c, 1, 38, 0
1, 107117, Note_on_c, 0, 63, 66
1, 107121, Note_on_c, 0, 66, 66
1, 107121, Note_on_c, 0, 75, 73
1, 107123, Note_on_c, 9, 51, 52
1, 107127, Note_on_c, 9, 44, 108
1, 107129, Note_on_c, 0, 69, 58
1, 107129, Note_on_c, 1, 50, 87
1, 107137, Note_on_c, 1, 37, 0
1, 107141, Note_on_c, 0, 72, 42
1, 107185, Note_on_c, 0, 72, 0
1, 107201, Note_on_c, 0, 69, 0
1, 107205, Note_on_c, 0, 63, 0
1, 107225, Note_on_c, 0, 75, 0
1, 107229, Note_on_c, 0, 66, 0
1, 107235, Note_on_c, 9, 51, 0
1, 107241, Note_on_c, 9, 44, 0
1, 107261, Note_on_c, 0, 60, 40
1, 107281, Note_on_c, 9, 31, 77
1, 107321, Note_on_c, 9, 31, 0
1, 107341, Note_on_c, 0, 60, 0
1, 107369, Note_on_c, 1, 38, 56
1, 107377, Note_on_c, 0, 74, 66
1, 107379, Note_on_c, 9, 51, 127
1, 107379, Note_on_c, 9, 31, 71
1, 107381, Note_on_c, 0, 62, 49
1, 107385, Note_on_c, 0, 65, 63
1, 107385, Note_on_c, 0, 70, 61
1, 107385, Note_on_c, 0, 73, 52
1, 107405, Note_on_c, 0, 73, 0
1, 107411, Note_on_c, 9, 51, 0
1, 107413, Note_on_c, 0, 62, 0
1, 107437, Note_on_c, 9, 31, 0
1, 107437, Note_on_c, 0, 74, 0
1, 107437, Note_on_c, 0, 65, 0
1, 107441, Note_on_c, 1, 38, 0
1, 107465, Note_on_c, 0, 70, 0
1, 107497, Note_on_c, 1, 50, 0
1, 107497, Note_on_c, 9, 35, 59
1, 107501, Note_on_c, 1, 43, 73
1, 107505, Note_on_c, 0, 72, 47
1, 107505, Note_on_c, 0, 69, 59
1, 107505, Note_on_c, 0, 60, 49
1, 107507, Note_on_c, 9, 51, 96
1, 107513, Note_on_c, 0, 65, 46
1, 107521, Note_on_c, 0, 62, 48
1, 107589, Note_on_c, 0, 69, 0
1, 107601, Note_on_c, 0, 65, 0
1, 107605, Note_on_c, 0, 62, 0
1, 107609, Note_on_c, 0, 60, 0
1, 107625, Note_on_c, 0, 72, 0
1, 107637, Note_on_c, 0, 57, 40
1, 107641, Note_on_c, 9, 35, 0
1, 107673, Note_on_c, 0, 57, 0
1, 107779, Note_on_c, 9, 51, 0
1, 107885, Note_on_c, 1, 38, 76
1, 107889, Note_on_c, 1, 43, 0
1, 107889, Note_on_c, 0, 58, 68
1, 107891, Note_on_c, 9, 51, 78
1, 107895, Note_on_c, 0, 62, 60
1, 107895, Note_on_c, 9, 44, 105
1, 107897, Note_on_c, 0, 69, 52
1, 107901, Note_on_c, 0, 57, 54
1, 107901, Note_on_c, 0, 65, 54
1, 107949, Note_on_c, 0, 58, 0
1, 107953, Note_on_c, 0, 69, 0
1, 107969, Note_on_c, 0, 65, 0
1, 107973, Note_on_c, 0, 57, 0
1, 107993, Note_on_c, 0, 62, 0
1, 108007, Note_on_c, 9, 44, 0
1, 108137, Note_on_c, 0, 58, 61
1, 108145, Note_on_c, 0, 55, 63
1, 108145, Note_on_c, 0, 65, 57
1, 108149, Note_on_c, 0, 62, 59
1, 108149, Note_on_c, 0, 53, 53
1, 108163, Note_on_c, 9, 51, 0
1, 108261, Note_on_c, 1, 38, 0
1, 108275, Note_on_c, 1, 34, 71
1, 108275, Note_on_c, 9, 51, 61
1, 108541, Note_on_c, 0, 62, 0
1, 108549, Note_on_c, 0, 55, 0
1, 108567, Note_on_c, 9, 51, 0
1, 108617, Note_on_c, 0, 58, 0
1, 108649, Note_on_c, 0, 65, 0
1, 108659, Note_on_c, 9, 51, 47
1, 108663, Note_on_c, 9, 44, 112
1, 108665, Note_on_c, 1, 49, 81
1, 108685, Note_on_c, 0, 58, 49
1, 108689, Note_on_c, 0, 53, 0
1, 108689, Note_on_c, 0, 62, 51
1, 108689, Note_on_c, 0, 55, 46
1, 108693, Note_on_c, 0, 50, 49
1, 108717, Note_on_c, 1, 34, 0
1, 108785, Note_on_c, 9, 44, 0
1, 108845, Note_on_c, 0, 55, 0
1, 108851, Note_on_c, 9, 51, 0
1, 108853, Note_on_c, 0, 50, 0
1, 108889, Note_on_c, 0, 62, 0
1, 108893, Control_c, 0, 64, 127
1, 108909, Note_on_c, 0, 58, 0
1, 108915, Note_on_c, 9, 51, 127
1, 108969, Control_c, 0, 64, 0
1, 108999, Note_on_c, 9, 51, 0
1, 109043, Note_on_c, 9, 51, 85
1, 109057, Note_on_c, 1, 48, 73
1, 109065, Note_on_c, 0, 55, 57
1, 109069, Note_on_c, 0, 64, 56
1, 109069, Note_on_c, 0, 58, 48
1, 109073, Note_on_c, 1, 49, 0
1, 109073, Note_on_c, 0, 48, 52
1, 109089, Note_on_c, 0, 55, 0
1, 109129, Note_on_c, 0, 58, 0
1, 109133, Note_on_c, 0, 48, 0
1, 109141, Control_c, 0, 64, 127
1, 109161, Note_on_c, 0, 64, 0
1, 109171, Note_on_c, 9, 34, 43
1, 109223, Note_on_c, 9, 34, 0
1, 109297, Note_on_c, 9, 35, 45
1, 109329, Note_on_c, 9, 35, 0
1, 109337, Note_on_c, 1, 43, 35
1, 109341, Note_on_c, 9, 51, 0
1, 109373, Note_on_c, 1, 43, 0
1, 109409, Note_on_c, 1, 48, 0
1, 109421, Note_on_c, 1, 57, 72
1, 109427, Note_on_c, 9, 51, 84
1, 109427, Note_on_c, 9, 34, 35
1, 109431, Note_on_c, 9, 44, 108
1, 109437, Note_on_c, 1, 54, 50
1, 109457, Note_on_c, 1, 54, 0
1, 109501, Note_on_c, 9, 34, 0
1, 109527, Note_on_c, 9, 44, 0
1, 109641, Note_on_c, 1, 45, 31
1, 109673, Note_on_c, 9, 34, 36
1, 109699, Note_on_c, 9, 51, 0
1, 109705, Note_on_c, 1, 45, 0
1, 109745, Note_on_c, 9, 34, 0
1, 109757, Note_on_c, 1, 57, 0
1, 109781, Control_c, 0, 64, 0
1, 109805, Note_on_c, 0, 58, 66
1, 109805, Note_on_c, 1, 55, 67
1, 109809, Note_on_c, 0, 52, 87
1, 109809, Note_on_c, 0, 63, 88
1, 109809, Note_on_c, 0, 95, 117
1, 109809, Note_on_c, 0, 87, 96
1, 109809, Note_on_c, 0, 90, 88
1, 109809, Note_on_c, 0, 83, 88
1, 109809, Note_on_c, 0, 59, 72
1, 109811, Note_on_c, 9, 51, 59
1, 109821, Note_on_c, 0, 84, 81
1, 109833, Note_on_c, 9, 35, 33
1, 109837, Note_on_c, 0, 93, 31
1, 109841, Note_on_c, 0, 84, 0
1, 109857, Note_on_c, 0, 93, 0
1, 109875, Note_on_c, 9, 35, 0
1, 109925, Note_on_c, 0, 59, 0
1, 109929, Note_on_c, 0, 58, 0
1, 109933, Note_on_c, 0, 83, 0
1, 109933, Note_on_c, 0, 95, 0
1, 109937, Note_on_c, 0, 87, 0
1, 109941, Note_on_c, 0, 63, 0
1, 109945, Note_on_c, 0, 52, 0
1, 109953, Note_on_c, 0, 90, 0
1, 110041, Note_on_c, 9, 51, 0
1, 110061, Note_on_c, 1, 48, 46
1, 110065, Note_on_c, 0, 94, 96
1, 110065, Note_on_c, 0, 58, 78
1, 110065, Note_on_c, 0, 82, 94
1, 110065, Note_on_c, 0, 63, 83
1, 110065, Note_on_c, 0, 87, 88
1, 110065, Note_on_c, 0, 52, 83
1, 110067, Note_on_c, 9, 51, 35
1, 110073, Note_on_c, 9, 35, 75
1, 110077, Note_on_c, 0, 90, 65
1, 110089, Note_on_c, 1, 48, 0
1, 110097, Note_on_c, 0, 90, 0
1, 110113, Note_on_c, 0, 90, 27
1, 110119, Note_on_c, 9, 51, 0
1, 110141, Note_on_c, 9, 35, 0
1, 110145, Note_on_c, 1, 55, 0
1, 110165, Note_on_c, 0, 82, 0
1, 110169, Note_on_c, 0, 52, 0
1, 110169, Note_on_c, 0, 94, 0
1, 110177, Note_on_c, 0, 63, 0
1, 110177, Note_on_c, 1, 52, 74
1, 110185, Control_c, 0, 64, 127
1, 110189, Note_on_c, 0, 87, 0
1, 110195, Note_on_c, 9, 51, 99
1, 110197, Note_on_c, 0, 58, 0
1, 110197, Note_on_c, 0, 90, 0
1, 110199, Note_on_c, 9, 44, 101
1, 110225, Note_on_c, 0, 52, 60
1, 110225, Note_on_c, 0, 63, 58
1, 110225, Note_on_c, 0, 92, 65
1, 110225, Note_on_c, 0, 87, 74
1, 110229, Note_on_c, 0, 58, 56
1, 110233, Note_on_c, 0, 80, 61
1, 110305, Note_on_c, 0, 52, 0
1, 110305, Note_on_c, 9, 44, 0
1, 110333, Note_on_c, 0, 58, 0
1, 110341, Note_on_c, 0, 63, 0
1, 110353, Note_on_c, 0, 87, 0
1, 110357, Note_on_c, 0, 92, 0
1, 110357, Note_on_c, 0, 80, 0
1, 110441, Note_on_c, 9, 35, 38
1, 110473, Note_on_c, 9, 51, 0
1, 110497, Note_on_c, 9, 35, 0
1, 110573, Note_on_c, 1, 52, 0
1, 110573, Note_on_c, 1, 53, 72
1, 110579, Note_on_c, 9, 51, 120
1, 110585, Control_c, 0, 64, 0
1, 110595, Note_on_c, 9, 35, 31
1, 110637, Note_on_c, 9, 35, 0
1, 110887, Note_on_c, 9, 51, 0
1, 110961, Note_on_c, 1, 51, 63
1, 110963, Note_on_c, 9, 51, 59
1, 110967, Note_on_c, 9, 44, 99
1, 110977, Note_on_c, 0, 65, 87
1, 110977, Note_on_c, 0, 60, 75
1, 110977, Note_on_c, 0, 55, 75
1, 110977, Note_on_c, 0, 93, 92
1, 110977, Note_on_c, 0, 61, 66
1, 110977, Note_on_c, 0, 81, 102
1, 110977, Note_on_c, 0, 88, 96
1, 110977, Note_on_c, 0, 87, 57
1, 110981, Note_on_c, 1, 53, 0
1, 110989, Note_on_c, 0, 91, 70
1, 110993, Note_on_c, 0, 58, 52
1, 111005, Note_on_c, 0, 91, 0
1, 111025, Control_c, 0, 64, 127
1, 111057, Note_on_c, 0, 87, 0
1, 111061, Note_on_c, 0, 81, 0
1, 111065, Note_on_c, 9, 44, 0
1, 111085, Note_on_c, 0, 93, 0
1, 111085, Note_on_c, 0, 88, 0
1, 111121, Note_on_c, 0, 65, 0
1, 111121, Note_on_c, 0, 55, 0
1, 111129, Note_on_c, 0, 58, 0
1, 111133, Note_on_c, 0, 60, 0
1, 111137, Note_on_c, 0, 61, 0
1, 111193, Note_on_c, 9, 51, 0
1, 111219, Note_on_c, 9, 51, 59
1, 111223, Note_on_c, 9, 35, 47
1, 111225, Note_on_c, 0, 65, 89
1, 111225, Note_on_c, 0, 61, 77
1, 111225, Note_on_c, 0, 55, 78
1, 111233, Note_on_c, 0, 60, 61
1, 111233, Note_on_c, 0, 96, 117
1, 111233, Note_on_c, 0, 91, 115
1, 111233, Note_on_c, 0, 84, 107
1, 111241, Note_on_c, 0, 58, 52
1, 111253, Note_on_c, 0, 60, 0
1, 111271, Note_on_c, 9, 51, 0
1, 111273, Note_on_c, 9, 35, 0
1, 111297, Note_on_c, 0, 65, 0
1, 111301, Note_on_c, 0, 84, 0
1, 111305, Note_on_c, 0, 55, 0
1, 111313, Note_on_c, 0, 91, 0
1, 111317, Note_on_c, 0, 58, 0
1, 111325, Note_on_c, 0, 96, 0
1, 111337, Note_on_c, 0, 61, 0
1, 111337, Note_on_c, 1, 50, 53
1, 111347, Note_on_c, 9, 51, 64
1, 111361, Control_c, 0, 64, 0
1, 111373, Note_on_c, 1, 51, 0
1, 111381, Note_on_c, 0, 54, 90
1, 111381, Note_on_c, 0, 65, 102
1, 111385, Note_on_c, 0, 100, 120
1, 111385, Note_on_c, 0, 60, 83
1, 111385, Note_on_c, 0, 95, 96
1, 111385, Note_on_c, 0, 97, 85
1, 111389, Note_on_c, 0, 88, 82
1, 111393, Note_on_c, 0, 89, 82
1, 111409, Note_on_c, 0, 89, 0
1, 111421, Note_on_c, 1, 50, 0
1, 111441, Control_c, 0, 64, 127
1, 111457, Note_on_c, 1, 41, 52
1, 111481, Note_on_c, 0, 97, 0
1, 111497, Note_on_c, 0, 100, 0
1, 111497, Note_on_c, 0, 95, 0
1, 111529, Note_on_c, 0, 88, 0
1, 111541, Note_on_c, 1, 41, 0
1, 111549, Note_on_c, 0, 65, 0
1, 111561, Note_on_c, 0, 54, 0
1, 111569, Note_on_c, 0, 60, 0
1, 111585, Note_on_c, 1, 44, 81
1, 111625, Control_c, 0, 64, 0
1, 111625, Note_on_c, 0, 54, 81
1, 111625, Note_on_c, 0, 65, 92
1, 111625, Note_on_c, 0, 92, 82
1, 111625, Note_on_c, 0, 98, 89
1, 111625, Note_on_c, 0, 60, 75
1, 111625, Note_on_c, 0, 86, 81
1, 111639, Note_on_c, 9, 51, 0
1, 111641, Note_on_c, 0, 92, 0
1, 111641, Note_on_c, 0, 93, 75
1, 111649, Note_on_c, 0, 96, 50
1, 111669, Note_on_c, 0, 96, 0
1, 111705, Note_on_c, 0, 86, 0
1, 111705, Note_on_c, 1, 44, 0
1, 111709, Note_on_c, 0, 98, 0
1, 111717, Note_on_c, 0, 93, 0
1, 111721, Note_on_c, 1, 42, 60
1, 111731, Note_on_c, 9, 51, 113
1, 111735, Note_on_c, 9, 44, 112
1, 111737, Note_on_c, 0, 65, 0
1, 111749, Note_on_c, 0, 54, 0
1, 111761, Note_on_c, 0, 60, 0
1, 111785, Note_on_c, 0, 90, 72
1, 111785, Note_on_c, 0, 54, 76
1, 111789, Note_on_c, 0, 95, 63
1, 111789, Note_on_c, 0, 96, 70
1, 111789, Note_on_c, 0, 65, 66
1, 111789, Note_on_c, 0, 83, 54
1, 111789, Note_on_c, 0, 60, 57
1, 111789, Note_on_c, 0, 84, 60
1, 111789, Note_on_c, 0, 94, 48
1, 111809, Note_on_c, 0, 83, 0
1, 111813, Note_on_c, 0, 94, 0
1, 111847, Note_on_c, 9, 44, 0
1, 111849, Note_on_c, 0, 90, 0
1, 111861, Note_on_c, 0, 95, 0
1, 111873, Note_on_c, 0, 96, 0
1, 111901, Note_on_c, 0, 84, 0
1, 111921, Note_on_c, 0, 60, 0
1, 111921, Note_on_c, 0, 65, 0
1, 111955, Note_on_c, 9, 51, 0
1, 111969, Note_on_c, 0, 54, 0
1, 111977, Note_on_c, 9, 35, 52
1, 111987, Note_on_c, 9, 51, 64
1, 112001, Note_on_c, 0, 80, 73
1, 112005, Note_on_c, 0, 92, 72
1, 112009, Note_on_c, 0, 53, 75
1, 112009, Note_on_c, 0, 64, 77
1, 112009, Note_on_c, 0, 86, 72
1, 112013, Note_on_c, 0, 59, 75
1, 112045, Note_on_c, 9, 35, 0
1, 112049, Note_on_c, 0, 90, 33
1, 112053, Note_on_c, 0, 80, 0
1, 112057, Note_on_c, 9, 51, 0
1, 112065, Note_on_c, 0, 88, 32
1, 112077, Note_on_c, 0, 92, 0
1, 112085, Note_on_c, 0, 81, 29
1, 112115, Note_on_c, 9, 51, 91
1, 112117, Note_on_c, 0, 88, 0
1, 112137, Note_on_c, 0, 86, 0
1, 112145, Note_on_c, 0, 81, 0
1, 112161, Note_on_c, 0, 90, 0
1, 112165, Note_on_c, 0, 53, 0
1, 112165, Note_on_c, 0, 64, 0
1, 112185, Note_on_c, 0, 59, 0
1, 112217, Control_c, 0, 64, 127
1, 112233, Note_on_c, 1, 42, 0
1, 112237, Note_on_c, 0, 89, 76
1, 112241, Note_on_c, 0, 59, 58
1, 112245, Note_on_c, 0, 77, 61
1, 112245, Note_on_c, 0, 64, 60
1, 112245, Note_on_c, 0, 53, 55
1, 112245, Note_on_c, 1, 43, 59
1, 112333, Note_on_c, 1, 43, 0
1, 112349, Note_on_c, 0, 77, 0
1, 112353, Note_on_c, 1, 38, 69
1, 112369, Note_on_c, 0, 89, 0
1, 112385, Note_on_c, 0, 86, 51
1, 112409, Note_on_c, 9, 51, 0
1, 112421, Note_on_c, 0, 64, 0
1, 112429, Note_on_c, 0, 53, 0
1, 112437, Note_on_c, 0, 86, 0
1, 112469, Note_on_c, 1, 38, 0
1, 112469, Note_on_c, 0, 59, 0
1, 112493, Note_on_c, 1, 34, 68
1, 112497, Control_c, 0, 64, 0
1, 112499, Note_on_c, 9, 51, 99
1, 112501, Note_on_c, 0, 59, 40
1, 112503, Note_on_c, 9, 44, 112
1, 112509, Note_on_c, 0, 89, 66
1, 112509, Note_on_c, 0, 64, 57
1, 112509, Note_on_c, 0, 53, 50
1, 112509, Note_on_c, 0, 86, 57
1, 112513, Note_on_c, 0, 77, 64
1, 112529, Control_c, 0, 64, 127
1, 112615, Note_on_c, 9, 44, 0
1, 112625, Note_on_c, 0, 59, 0
1, 112637, Note_on_c, 0, 64, 0
1, 112693, Note_on_c, 0, 53, 0
1, 112737, Note_on_c, 1, 34, 0
1, 112757, Note_on_c, 1, 35, 68
1, 112761, Note_on_c, 0, 62, 74
1, 112765, Note_on_c, 0, 89, 0
1, 112765, Note_on_c, 0, 77, 0
1, 112765, Note_on_c, 0, 52, 67
1, 112765, Note_on_c, 0, 58, 61
1, 112773, Control_c, 0, 64, 0
1, 112785, Note_on_c, 0, 86, 0
1, 112803, Note_on_c, 9, 51, 0
1, 112881, Note_on_c, 1, 35, 0
1, 112883, Note_on_c, 9, 51, 77
1, 112893, Note_on_c, 1, 36, 62
1, 113029, Note_on_c, 0, 62, 0
1, 113061, Note_on_c, 0, 58, 0
1, 113145, Note_on_c, 0, 58, 52
1, 113149, Note_on_c, 0, 62, 48
1, 113155, Note_on_c, 9, 37, 50
1, 113171, Note_on_c, 9, 51, 0
1, 113235, Note_on_c, 9, 37, 0
1, 113249, Note_on_c, 1, 36, 0
1, 113267, Note_on_c, 9, 51, 89
1, 113269, Note_on_c, 1, 28, 88
1, 113271, Note_on_c, 9, 46, 21
1, 113273, Note_on_c, 0, 81, 56
1, 113297, Note_on_c, 0, 82, 60
1, 113303, Note_on_c, 9, 35, 24
1, 113333, Note_on_c, 0, 82, 0
1, 113333, Note_on_c, 0, 81, 0
1, 113349, Note_on_c, 0, 83, 42
1, 113351, Note_on_c, 9, 35, 0
1, 113361, Note_on_c, 0, 58, 0
1, 113393, Note_on_c, 9, 46, 0
1, 113405, Note_on_c, 0, 83, 0
1, 113417, Note_on_c, 0, 52, 0
1, 113421, Note_on_c, 0, 86, 79
1, 113475, Note_on_c, 9, 51, 0
1, 113523, Note_on_c, 9, 51, 68
1, 113529, Note_on_c, 9, 37, 59
1, 113537, Note_on_c, 0, 84, 71
1, 113541, Note_on_c, 0, 62, 0
1, 113589, Note_on_c, 0, 86, 0
1, 113591, Note_on_c, 9, 51, 0
1, 113633, Note_on_c, 0, 84, 0
1, 113635, Note_on_c, 9, 37, 0
1, 113645, Note_on_c, 1, 28, 0
1, 113651, Note_on_c, 9, 51, 96
1, 113665, Note_on_c, 0, 57, 35
1, 113665, Note_on_c, 0, 81, 58
1, 113665, Note_on_c, 1, 29, 81
1, 113669, Note_on_c, 0, 63, 37
1, 113673, Note_on_c, 9, 35, 28
1, 113725, Note_on_c, 9, 35, 0
1, 113745, Note_on_c, 0, 81, 0
1, 113797, Note_on_c, 0, 72, 43
1, 113861, Note_on_c, 0, 63, 0
1, 113877, Note_on_c, 0, 72, 0
1, 113959, Note_on_c, 9, 51, 0
1, 114001, Note_on_c, 1, 29, 0
1, 114025, Note_on_c, 1, 29, 74
1, 114035, Note_on_c, 9, 51, 91
1, 114039, Note_on_c, 9, 44, 117
1, 114045, Note_on_c, 0, 63, 42
1, 114073, Note_on_c, 0, 63, 0
1, 114081, Note_on_c, 0, 68, 45
1, 114129, Note_on_c, 0, 57, 0
1, 114183, Note_on_c, 9, 44, 0
1, 114269, Note_on_c, 0, 68, 0
1, 114313, Note_on_c, 9, 35, 28
1, 114317, Note_on_c, 0, 69, 66
1, 114353, Note_on_c, 9, 35, 0
1, 114361, Note_on_c, 9, 51, 0
1, 114417, Note_on_c, 1, 36, 80
1, 114419, Note_on_c, 9, 51, 80
1, 114421, Note_on_c, 1, 29, 0
1, 114445, Note_on_c, 0, 55, 34
1, 114457, Note_on_c, 0, 58, 36
1, 114489, Note_on_c, 0, 58, 0
1, 114541, Note_on_c, 0, 55, 0
1, 114723, Note_on_c, 9, 51, 0
1, 114765, Note_on_c, 1, 36, 0
1, 114801, Note_on_c, 1, 36, 79
1, 114803, Note_on_c, 9, 51, 78
1, 114807, Note_on_c, 9, 44, 119
1, 114829, Note_on_c, 0, 62, 38
1, 114837, Note_on_c, 0, 58, 42
1, 114857, Note_on_c, 0, 55, 23
1, 114881, Note_on_c, 0, 69, 0
1, 114897, Note_on_c, 9, 44, 0
1, 114901, Note_on_c, 0, 55, 0
1, 114913, Note_on_c, 0, 58, 0
1, 114917, Note_on_c, 0, 62, 0
1, 115059, Note_on_c, 9, 51, 68
1, 115063, Note_on_c, 9, 51, 0
1, 115065, Note_on_c, 9, 35, 35
1, 115097, Note_on_c, 9, 35, 0
1, 115127, Note_on_c, 9, 51, 0
1, 115177, Note_on_c, 1, 36, 0
1, 115187, Note_on_c, 9, 51, 73
1, 115193, Note_on_c, 1, 41, 81
1, 115315, Note_on_c, 9, 34, 43
1, 115367, Note_on_c, 9, 34, 0
1, 115441, Note_on_c, 9, 35, 45
1, 115473, Note_on_c, 9, 35, 0
1, 115473, Note_on_c, 0, 64, 37
1, 115511, Note_on_c, 9, 51, 0
1, 115513, Note_on_c, 0, 64, 0
1, 115517, Note_on_c, 1, 41, 0
1, 115553, Note_on_c, 1, 41, 85
1, 115571, Note_on_c, 9, 51, 84
1, 115571, Note_on_c, 9, 34, 35
1, 115575, Note_on_c, 9, 44, 108
1, 115645, Note_on_c, 9, 34, 0
1, 115671, Note_on_c, 9, 44, 0
1, 115817, Note_on_c, 9, 34, 36
1, 115843, Note_on_c, 9, 51, 0
1, 115853, Note_on_c, 0, 57, 43
1, 115857, Note_on_c, 0, 67, 34
1, 115861, Note_on_c, 0, 63, 31
1, 115877, Note_on_c, 0, 57, 0
1, 115881, Note_on_c, 0, 67, 0
1, 115889, Note_on_c, 9, 34, 0
1, 115893, Note_on_c, 0, 63, 0
1, 115941, Note_on_c, 1, 46, 83
1, 115953, Note_on_c, 1, 41, 0
1, 115955, Note_on_c, 9, 51, 59
1, 115977, Note_on_c, 9, 35, 33
1, 116009, Note_on_c, 0, 81, 76
1, 116019, Note_on_c, 9, 35, 0
1, 116061, Note_on_c, 0, 81, 0
1, 116093, Note_on_c, 0, 84, 75
1, 116141, Note_on_c, 0, 81, 61
1, 116161, Note_on_c, 0, 84, 0
1, 116181, Note_on_c, 0, 77, 67
1, 116185, Note_on_c, 9, 51, 0
1, 116185, Note_on_c, 1, 41, 63
1, 116193, Note_on_c, 0, 81, 0
1, 116211, Note_on_c, 9, 51, 35
1, 116217, Note_on_c, 9, 35, 75
1, 116229, Note_on_c, 0, 77, 0
1, 116233, Note_on_c, 1, 41, 0
1, 116241, Note_on_c, 0, 72, 65
1, 116263, Note_on_c, 9, 51, 0
1, 116285, Note_on_c, 9, 35, 0
1, 116289, Note_on_c, 0, 72, 0
1, 116317, Note_on_c, 0, 71, 48
1, 116321, Note_on_c, 1, 45, 69
1, 116339, Note_on_c, 9, 51, 99
1, 116343, Note_on_c, 9, 44, 101
1, 116349, Note_on_c, 1, 46, 0
1, 116373, Note_on_c, 0, 71, 0
1, 116393, Note_on_c, 0, 65, 48
1, 116421, Note_on_c, 0, 65, 0
1, 116449, Note_on_c, 9, 44, 0
1, 116477, Note_on_c, 0, 70, 66
1, 116477, Note_on_c, 0, 74, 70
1, 116537, Note_on_c, 0, 74, 0
1, 116541, Note_on_c, 0, 70, 0
1, 116565, Note_on_c, 1, 45, 0
1, 116569, Note_on_c, 0, 65, 55
1, 116577, Note_on_c, 1, 43, 74
1, 116585, Note_on_c, 9, 35, 38
1, 116593, Note_on_c, 0, 65, 0
1, 116617, Note_on_c, 9, 51, 0
1, 116641, Note_on_c, 9, 35, 0
1, 116641, Note_on_c, 0, 72, 59
1, 116641, Note_on_c, 0, 68, 63
1, 116665, Note_on_c, 0, 72, 0
1, 116693, Note_on_c, 0, 68, 0
1, 116697, Note_on_c, 1, 43, 0
1, 116721, Note_on_c, 0, 69, 72
1, 116721, Note_on_c, 1, 41, 63
1, 116723, Note_on_c, 9, 51, 120
1, 116739, Note_on_c, 9, 35, 31
1, 116777, Note_on_c, 0, 69, 0
1, 116781, Note_on_c, 9, 35, 0
1, 116797, Note_on_c, 0, 65, 57
1, 116833, Note_on_c, 0, 65, 0
1, 116877, Note_on_c, 0, 60, 50
1, 116929, Note_on_c, 0, 60, 0
1, 116953, Note_on_c, 0, 57, 34
1, 117013, Note_on_c, 0, 57, 0
1, 117031, Note_on_c, 9, 51, 0
1, 117101, Note_on_c, 1, 41, 0
1, 117105, Note_on_c, 1, 33, 89
1, 117107, Note_on_c, 9, 51, 59
1, 117111, Note_on_c, 9, 44, 99
1, 117125, Note_on_c, 0, 57, 71
1, 117209, Note_on_c, 9, 44, 0
1, 117337, Note_on_c, 9, 51, 0
1, 117363, Note_on_c, 9, 51, 59
1, 117367, Note_on_c, 9, 35, 47
1, 117415, Note_on_c, 9, 51, 0
1, 117417, Note_on_c, 9, 35, 0
1, 117473, Note_on_c, 0, 57, 0
1, 117485, Note_on_c, 1, 33, 0
1, 117485, Note_on_c, 1, 34, 82
1, 117491, Note_on_c, 9, 51, 64
1, 117505, Note_on_c, 0, 58, 60
1, 117705, Note_on_c, 0, 58, 0
1, 117783, Note_on_c, 9, 51, 0
1, 117849, Note_on_c, 0, 46, 57
1, 117857, Note_on_c, 0, 56, 46
1, 117875, Note_on_c, 9, 51, 113
1, 117879, Note_on_c, 9, 44, 112
1, 117881, Note_on_c, 1, 46, 88
1, 117917, Note_on_c, 1, 34, 0
1, 117991, Note_on_c, 9, 44, 0
1, 118021, Note_on_c, 0, 56, 0
1, 118099, Note_on_c, 9, 51, 0
1, 118121, Note_on_c, 9, 35, 52
1, 118131, Note_on_c, 9, 51, 64
1, 118185, Note_on_c, 0, 46, 0
1, 118189, Note_on_c, 9, 35, 0
1, 118201, Note_on_c, 9, 51, 0
1, 118257, Note_on_c, 1, 45, 73
1, 118259, Note_on_c, 9, 51, 91
1, 118269, Note_on_c, 0, 60, 54
1, 118273, Note_on_c, 0, 55, 41
1, 118281, Note_on_c, 1, 46, 0
1, 118281, Note_on_c, 0, 45, 39
1, 118349, Note_on_c, 0, 60, 0
1, 118377, Note_on_c, 0, 62, 57
1, 118401, Note_on_c, 0, 55, 0
1, 118401, Note_on_c, 0, 60, 50
1, 118433, Note_on_c, 0, 62, 0
1, 118469, Note_on_c, 0, 59, 48
1, 118477, Note_on_c, 0, 60, 0
1, 118517, Note_on_c, 1, 40, 43
1, 118549, Note_on_c, 0, 59, 0
1, 118553, Note_on_c, 9, 51, 0
1, 118589, Note_on_c, 0, 60, 74
1, 118605, Note_on_c, 1, 40, 0
1, 118641, Note_on_c, 0, 55, 31
1, 118641, Note_on_c, 1, 31, 75
1, 118643, Note_on_c, 9, 51, 99
1, 118647, Note_on_c, 9, 44, 112
1, 118665, Note_on_c, 0, 45, 0
1, 118685, Note_on_c, 0, 60, 0
1, 118693, Note_on_c, 0, 62, 60
1, 118757, Note_on_c, 0, 62, 0
1, 118759, Note_on_c, 9, 44, 0
1, 118793, Note_on_c, 0, 63, 59
1, 118809, Note_on_c, 0, 55, 0
1, 118841, Note_on_c, 0, 63, 0
1, 118885, Note_on_c, 0, 65, 66
1, 118947, Note_on_c, 9, 51, 0
1, 118973, Note_on_c, 0, 65, 0
1, 118993, Note_on_c, 1, 31, 0
1, 118993, Note_on_c, 0, 66, 65
1, 119009, Note_on_c, 0, 60, 42
1, 119017, Note_on_c, 1, 38, 85
1, 119025, Note_on_c, 0, 54, 42
1, 119027, Note_on_c, 9, 51, 77
1, 119033, Note_on_c, 0, 50, 36
1, 119073, Note_on_c, 0, 66, 0
1, 119077, Note_on_c, 1, 45, 0
1, 119097, Note_on_c, 0, 68, 58
1, 119157, Note_on_c, 0, 68, 0
1, 119161, Note_on_c, 0, 60, 0
1, 119193, Note_on_c, 0, 69, 57
1, 119261, Note_on_c, 0, 69, 0
1, 119285, Note_on_c, 0, 70, 61
1, 119299, Note_on_c, 9, 37, 50
1, 119301, Note_on_c, 1, 32, 42
1, 119315, Note_on_c, 9, 51, 0
1, 119341, Note_on_c, 0, 70, 0
1, 119379, Note_on_c, 9, 37, 0
1, 119381, Note_on_c, 0, 71, 65
1, 119397, Note_on_c, 1, 32, 0
1, 119397, Note_on_c, 1, 42, 82
1, 119401, Note_on_c, 0, 60, 39
1, 119411, Note_on_c, 9, 51, 89
1, 119415, Note_on_c, 9, 46, 21
1, 119429, Note_on_c, 0, 71, 0
1, 119445, Note_on_c, 0, 50, 0
1, 119447, Note_on_c, 9, 35, 24
1, 119461, Note_on_c, 0, 54, 0
1, 119465, Note_on_c, 0, 72, 66
1, 119495, Note_on_c, 9, 35, 0
1, 119521, Note_on_c, 0, 72, 0
1, 119525, Note_on_c, 1, 38, 0
1, 119537, Note_on_c, 9, 46, 0
1, 119557, Note_on_c, 0, 73, 63
1, 119561, Note_on_c, 0, 60, 0
1, 119605, Note_on_c, 0, 73, 0
1, 119619, Note_on_c, 9, 51, 0
1, 119637, Note_on_c, 0, 74, 78
1, 119667, Note_on_c, 9, 51, 68
1, 119673, Note_on_c, 1, 36, 41
1, 119673, Note_on_c, 9, 37, 59
1, 119705, Note_on_c, 0, 74, 0
1, 119709, Note_on_c, 1, 36, 0
1, 119733, Note_on_c, 0, 77, 88
1, 119735, Note_on_c, 9, 51, 0
1, 119757, Note_on_c, 0, 62, 49
1, 119773, Note_on_c, 1, 42, 0
1, 119777, Note_on_c, 0, 58, 36
1, 119779, Note_on_c, 9, 37, 0
1, 119781, Note_on_c, 1, 43, 76
1, 119789, Note_on_c, 0, 53, 34
1, 119793, Note_on_c, 0, 57, 32
1, 119795, Note_on_c, 9, 51, 96
1, 119813, Note_on_c, 0, 77, 0
1, 119817, Note_on_c, 9, 35, 28
1, 119821, Note_on_c, 0, 74, 70
1, 119853, Note_on_c, 0, 58, 0
1, 119869, Note_on_c, 9, 35, 0
1, 119881, Note_on_c, 0, 74, 0
1, 119881, Note_on_c, 0, 62, 0
1, 119921, Note_on_c, 0, 70, 61
1, 119961, Note_on_c, 0, 53, 0
1, 119965, Note_on_c, 0, 57, 0
1, 119969, Note_on_c, 0, 70, 0
1, 120001, Note_on_c, 0, 65, 44
1, 120089, Note_on_c, 0, 65, 0
1, 120103, Note_on_c, 9, 51, 0
1, 120105, Note_on_c, 0, 62, 50
1, 120133, Note_on_c, 0, 62, 0
1, 120177, Note_on_c, 0, 57, 26
1, 120177, Note_on_c, 0, 58, 31
1, 120177, Note_on_c, 0, 65, 61
1, 120179, Note_on_c, 9, 51, 91
1, 120181, Note_on_c, 1, 34, 88
1, 120183, Note_on_c, 9, 44, 117
1, 120217, Note_on_c, 1, 43, 0
1, 120225, Note_on_c, 0, 58, 0
1, 120305, Note_on_c, 0, 65, 0
1, 120325, Note_on_c, 0, 57, 0
1, 120327, Note_on_c, 9, 44, 0
1, 120349, Note_on_c, 0, 62, 30
1, 120401, Note_on_c, 0, 62, 0
1, 120421, Note_on_c, 0, 65, 66
1, 120457, Note_on_c, 9, 35, 28
1, 120497, Note_on_c, 9, 35, 0
1, 120505, Note_on_c, 9, 51, 0
1, 120563, Note_on_c, 9, 51, 80
1, 120565, Note_on_c, 0, 62, 36
1, 120573, Note_on_c, 1, 38, 89
1, 120577, Note_on_c, 1, 34, 0
1, 120577, Note_on_c, 0, 58, 41
1, 120577, Note_on_c, 0, 57, 22
1, 120621, Note_on_c, 0, 62, 0
1, 120645, Note_on_c, 0, 58, 0
1, 120773, Note_on_c, 0, 57, 0
1, 120867, Note_on_c, 9, 51, 0
1, 120937, Note_on_c, 1, 37, 79
1, 120947, Note_on_c, 9, 51, 78
1, 120951, Note_on_c, 9, 44, 119
1, 120973, Note_on_c, 1, 38, 0
1, 120981, Note_on_c, 0, 53, 37
1, 120985, Note_on_c, 0, 58, 36
1, 120989, Note_on_c, 0, 57, 24
1, 121037, Note_on_c, 0, 58, 0
1, 121041, Note_on_c, 9, 44, 0
1, 121057, Note_on_c, 0, 65, 0
1, 121069, Note_on_c, 0, 60, 56
1, 121077, Note_on_c, 0, 57, 0
1, 121105, Note_on_c, 0, 53, 0
1, 121109, Note_on_c, 0, 60, 0
1, 121125, Note_on_c, 0, 61, 56
1, 121153, Note_on_c, 0, 61, 0
1, 121201, Note_on_c, 0, 65, 57
1, 121203, Note_on_c, 9, 51, 68
1, 121207, Note_on_c, 9, 51, 0
1, 121209, Note_on_c, 9, 35, 35
1, 121237, Note_on_c, 0, 65, 0
1, 121241, Note_on_c, 9, 35, 0
1, 121261, Note_on_c, 0, 66, 58
1, 121271, Note_on_c, 9, 51, 0
1, 121277, Note_on_c, 1, 37, 0
1, 121293, Note_on_c, 0, 66, 0
1, 121313, Note_on_c, 1, 36, 73
1, 121331, Note_on_c, 9, 51, 73
1, 121345, Note_on_c, 9, 35, 21
1, 121369, Note_on_c, 0, 69, 31
1, 121397, Note_on_c, 0, 69, 0
1, 121399, Note_on_c, 9, 35, 0
1, 121409, Note_on_c, 0, 58, 31
1, 121425, Note_on_c, 0, 62, 16
1, 121429, Note_on_c, 0, 52, 36
1, 121481, Note_on_c, 0, 62, 0
1, 121553, Note_on_c, 0, 58, 0
1, 121571, Note_on_c, 9, 31, 50
1, 121605, Note_on_c, 1, 40, 26
1, 121629, Note_on_c, 9, 31, 0
1, 121637, Note_on_c, 1, 40, 0
1, 121641, Note_on_c, 0, 60, 62
1, 121645, Note_on_c, 0, 52, 0
1, 121655, Note_on_c, 9, 51, 0
1, 121685, Note_on_c, 1, 49, 84
1, 121705, Note_on_c, 1, 36, 0
1, 121705, Note_on_c, 0, 60, 0
1, 121715, Note_on_c, 9, 51, 98
1, 121719, Note_on_c, 9, 44, 117
1, 121725, Note_on_c, 0, 61, 66
1, 121749, Note_on_c, 0, 58, 39
1, 121761, Note_on_c, 0, 52, 36
1, 121781, Note_on_c, 0, 61, 0
1, 121799, Note_on_c, 9, 44, 0
1, 121813, Note_on_c, 0, 64, 59
1, 121873, Note_on_c, 0, 64, 0
1, 121873, Note_on_c, 0, 52, 0
1, 121897, Note_on_c, 0, 66, 58
1, 121917, Note_on_c, 0, 66, 0
1, 121941, Note_on_c, 0, 58, 0
1, 121997, Note_on_c, 0, 67, 58
1, 122035, Note_on_c, 9, 51, 0
1, 122061, Note_on_c, 0, 67, 0
1, 122073, Note_on_c, 1, 49, 0
1, 122081, Note_on_c, 1, 48, 67
1, 122099, Note_on_c, 9, 51, 80
1, 122101, Note_on_c, 0, 70, 56
1, 122145, Note_on_c, 0, 58, 35
1, 122149, Note_on_c, 0, 70, 0
1, 122169, Note_on_c, 0, 52, 23
1, 122193, Note_on_c, 0, 72, 66
1, 122205, Note_on_c, 0, 58, 0
1, 122245, Note_on_c, 0, 72, 0
1, 122265, Note_on_c, 0, 73, 66
1, 122285, Note_on_c, 0, 73, 0
1, 122289, Note_on_c, 0, 52, 0
1, 122357, Note_on_c, 0, 77, 71
1, 122361, Note_on_c, 1, 39, 66
1, 122381, Note_on_c, 1, 48, 0
1, 122391, Note_on_c, 9, 51, 0
1, 122405, Note_on_c, 0, 77, 0
1, 122449, Note_on_c, 1, 39, 0
1, 122477, Note_on_c, 1, 40, 72
1, 122483, Note_on_c, 9, 51, 84
1, 122487, Note_on_c, 9, 44, 110
1, 122521, Note_on_c, 0, 58, 54
1, 122529, Note_on_c, 0, 62, 52
1, 122533, Note_on_c, 0, 82, 57
1, 122549, Note_on_c, 0, 82, 0
1, 122573, Note_on_c, 0, 52, 9
1, 122615, Note_on_c, 9, 44, 0
1, 122625, Note_on_c, 9, 31, 45
1, 122637, Note_on_c, 0, 84, 65
1, 122679, Note_on_c, 9, 31, 0
1, 122693, Note_on_c, 0, 52, 0
1, 122701, Note_on_c, 0, 84, 0
1, 122709, Note_on_c, 0, 58, 0
1, 122723, Note_on_c, 9, 51, 0
1, 122737, Note_on_c, 0, 86, 98
1, 122739, Note_on_c, 9, 51, 59
1, 122745, Note_on_c, 1, 39, 39
1, 122745, Note_on_c, 9, 37, 35
1, 122791, Note_on_c, 9, 51, 0
1, 122793, Note_on_c, 0, 62, 0
1, 122809, Note_on_c, 1, 40, 0
1, 122813, Note_on_c, 0, 86, 0
1, 122825, Note_on_c, 9, 37, 0
1, 122837, Note_on_c, 1, 39, 0
1, 122853, Note_on_c, 0, 84, 82
1, 122853, Note_on_c, 1, 41, 73
1, 122867, Note_on_c, 9, 51, 66
1, 122881, Note_on_c, 9, 35, 52
1, 122909, Note_on_c, 0, 62, 23
1, 122913, Note_on_c, 0, 63, 24
1, 122925, Note_on_c, 0, 84, 0
1, 122977, Note_on_c, 0, 80, 70
1, 122981, Note_on_c, 0, 63, 0
1, 123041, Note_on_c, 0, 80, 0
1, 123059, Note_on_c, 9, 35, 0
1, 123065, Note_on_c, 0, 62, 0
1, 123101, Note_on_c, 0, 81, 79
1, 123109, Note_on_c, 0, 84, 68
1, 123145, Note_on_c, 9, 51, 0
1, 123185, Note_on_c, 0, 81, 0
1, 123193, Note_on_c, 0, 84, 0
1, 123229, Note_on_c, 0, 77, 68
1, 123233, Note_on_c, 1, 50, 107
1, 123237, Note_on_c, 0, 64, 39
1, 123241, Note_on_c, 1, 41, 0
1, 123241, Note_on_c, 0, 68, 47
1, 123241, Note_on_c, 0, 58, 44
1, 123251, Note_on_c, 9, 51, 103
1, 123255, Note_on_c, 9, 44, 108
1, 123261, Note_on_c, 0, 68, 0
1, 123313, Note_on_c, 0, 77, 0
1, 123317, Note_on_c, 0, 64, 0
1, 123357, Note_on_c, 0, 72, 46
1, 123377, Note_on_c, 0, 58, 0
1, 123377, Note_on_c, 9, 44, 0
1, 123421, Note_on_c, 0, 72, 0
1, 123469, Note_on_c, 0, 70, 42
1, 123481, Note_on_c, 9, 51, 0
1, 123507, Note_on_c, 9, 51, 64
1, 123513, Note_on_c, 9, 35, 47
1, 123541, Note_on_c, 0, 70, 0
1, 123545, Note_on_c, 9, 35, 0
1, 123555, Note_on_c, 9, 51, 0
1, 123577, Note_on_c, 0, 63, 43
1, 123601, Note_on_c, 0, 69, 61
1, 123609, Note_on_c, 0, 57, 31
1, 123617, Note_on_c, 1, 50, 0
1, 123621, Control_c, 0, 64, 127
1, 123621, Note_on_c, 1, 48, 75
1, 123635, Note_on_c, 9, 51, 84
1, 123649, Note_on_c, 0, 63, 0
1, 123677, Note_on_c, 0, 57, 0
1, 123927, Note_on_c, 9, 51, 0
1, 123989, Note_on_c, 0, 69, 0
1, 123989, Control_c, 0, 64, 0
1, 124001, Note_on_c, 0, 60, 52
1, 124013, Note_on_c, 0, 64, 54
1, 124019, Note_on_c, 9, 51, 99
1, 124021, Note_on_c, 1, 40, 99
1, 124023, Note_on_c, 9, 44, 110
1, 124037, Note_on_c, 1, 48, 0
1, 124049, Note_on_c, 0, 60, 0
1, 124101, Note_on_c, 0, 64, 0
1, 124133, Note_on_c, 0, 65, 57
1, 124169, Note_on_c, 9, 44, 0
1, 124221, Note_on_c, 0, 65, 0
1, 124261, Note_on_c, 0, 68, 76
1, 124277, Note_on_c, 0, 63, 43
1, 124281, Note_on_c, 0, 62, 36
1, 124309, Note_on_c, 0, 63, 0
1, 124313, Note_on_c, 9, 51, 0
1, 124313, Note_on_c, 0, 62, 0
1, 124361, Note_on_c, 0, 68, 0
1, 124385, Note_on_c, 0, 69, 60
1, 124401, Note_on_c, 1, 41, 84
1, 124403, Note_on_c, 9, 51, 68
1, 124423, Note_on_c, 9, 35, 28
1, 124429, Note_on_c, 1, 40, 0
1, 124473, Note_on_c, 0, 69, 0
1, 124477, Note_on_c, 9, 35, 0
1, 124513, Note_on_c, 0, 72, 78
1, 124517, Note_on_c, 0, 63, 65
1, 124521, Note_on_c, 0, 53, 54
1, 124525, Note_on_c, 0, 59, 44
1, 124557, Note_on_c, 0, 59, 0
1, 124573, Note_on_c, 0, 63, 0
1, 124585, Note_on_c, 0, 53, 0
1, 124621, Note_on_c, 0, 72, 0
1, 124633, Note_on_c, 0, 73, 75
1, 124673, Note_on_c, 1, 40, 48
1, 124697, Note_on_c, 9, 51, 0
1, 124713, Note_on_c, 1, 41, 0
1, 124729, Note_on_c, 0, 73, 0
1, 124753, Note_on_c, 0, 57, 68
1, 124757, Note_on_c, 0, 67, 53
1, 124761, Note_on_c, 0, 76, 83
1, 124761, Note_on_c, 0, 62, 52
1, 124769, Note_on_c, 1, 40, 0
1, 124777, Note_on_c, 1, 50, 107
1, 124785, Note_on_c, 1, 52, 57
1, 124785, Note_on_c, 9, 51, 82
1, 124791, Note_on_c, 9, 44, 98
1, 124805, Note_on_c, 1, 52, 0
1, 124825, Note_on_c, 0, 62, 0
1, 124833, Note_on_c, 0, 67, 0
1, 124845, Note_on_c, 0, 57, 0
1, 124861, Note_on_c, 0, 76, 0
1, 124885, Note_on_c, 0, 77, 73
1, 124961, Note_on_c, 9, 44, 0
1, 125009, Note_on_c, 0, 77, 0
1, 125013, Note_on_c, 0, 80, 74
1, 125013, Note_on_c, 0, 63, 57
1, 125017, Note_on_c, 0, 67, 53
1, 125027, Note_on_c, 9, 51, 0
1, 125037, Note_on_c, 0, 67, 0
1, 125043, Note_on_c, 9, 51, 54
1, 125047, Note_on_c, 9, 35, 28
1, 125057, Note_on_c, 0, 63, 0
1, 125079, Note_on_c, 9, 35, 0
1, 125095, Note_on_c, 9, 51, 0
1, 125113, Note_on_c, 0, 80, 0
1, 125141, Note_on_c, 0, 81, 53
1, 125171, Note_on_c, 9, 51, 84
1, 125221, Note_on_c, 0, 81, 0
1, 125261, Note_on_c, 0, 63, 57
1, 125261, Note_on_c, 0, 53, 51
1, 125265, Note_on_c, 0, 84, 63
1, 125281, Note_on_c, 1, 48, 68
1, 125293, Note_on_c, 1, 50, 0
1, 125297, Note_on_c, 0, 53, 0
1, 125329, Note_on_c, 0, 63, 0
1, 125329, Note_on_c, 1, 48, 0
1, 125353, Note_on_c, 0, 84, 0
1, 125381, Note_on_c, 0, 85, 69
1, 125389, Note_on_c, 0, 84, 22
1, 125405, Note_on_c, 1, 41, 81
1, 125417, Note_on_c, 0, 84, 0
1, 125417, Note_on_c, 9, 31, 49
1, 125443, Note_on_c, 9, 31, 0
1, 125461, Note_on_c, 0, 85, 0
1, 125481, Note_on_c, 9, 51, 0
1, 125509, Note_on_c, 0, 86, 75
1, 125521, Note_on_c, 0, 66, 65
1, 125529, Note_on_c, 1, 41, 0
1, 125537, Note_on_c, 0, 66, 0
1, 125549, Note_on_c, 1, 39, 66
1, 125555, Note_on_c, 9, 51, 106
1, 125559, Note_on_c, 9, 44, 101
1, 125589, Note_on_c, 0, 86, 0
1, 125633, Note_on_c, 0, 87, 50
1, 125657, Note_on_c, 1, 39, 0
1, 125671, Note_on_c, 9, 44, 0
1, 125681, Note_on_c, 1, 40, 57
1, 125693, Note_on_c, 0, 87, 0
1, 125705, Note_on_c, 9, 31, 64
1, 125709, Control_c, 0, 64, 127
1, 125761, Note_on_c, 0, 88, 57
1, 125763, Note_on_c, 9, 31, 0
1, 125763, Note_on_c, 9, 51, 0
1, 125781, Note_on_c, 1, 40, 0
1, 125805, Note_on_c, 1, 41, 98
1, 125811, Note_on_c, 9, 51, 56
1, 125825, Note_on_c, 9, 34, 54
1, 125829, Note_on_c, 0, 88, 0
1, 125853, Control_c, 0, 64, 0
1, 125863, Note_on_c, 9, 51, 0
1, 125873, Note_on_c, 0, 63, 36
1, 125877, Note_on_c, 0, 67, 40
1, 125889, Note_on_c, 0, 89, 57
1, 125893, Note_on_c, 0, 62, 43
1, 125893, Note_on_c, 0, 84, 48
1, 125917, Note_on_c, 0, 57, 21
1, 125921, Note_on_c, 9, 34, 0
1, 125933, Control_c, 0, 64, 127
1, 125939, Note_on_c, 9, 51, 98
1, 125953, Note_on_c, 0, 57, 0
1, 125969, Note_on_c, 9, 35, 33
1, 126013, Note_on_c, 0, 63, 0
1, 126029, Note_on_c, 0, 62, 0
1, 126033, Note_on_c, 0, 67, 0
1, 126113, Note_on_c, 0, 84, 0
1, 126133, Note_on_c, 0, 89, 0
1, 126163, Note_on_c, 9, 35, 0
1, 126205, Control_c, 0, 64, 0
1, 126209, Note_on_c, 1, 36, 67
1, 126221, Note_on_c, 0, 68, 44
1, 126229, Note_on_c, 0, 91, 64
1, 126231, Note_on_c, 9, 51, 0
1, 126233, Note_on_c, 0, 58, 37
1, 126241, Note_on_c, 1, 41, 0
1, 126241, Note_on_c, 0, 62, 44
1, 126241, Note_on_c, 0, 86, 47
1, 126245, Note_on_c, 0, 79, 39
1, 126249, Note_on_c, 0, 64, 31
1, 126285, Control_c, 0, 64, 127
1, 126323, Note_on_c, 9, 51, 87
1, 126325, Note_on_c, 0, 64, 0
1, 126327, Note_on_c, 9, 44, 87
1, 126333, Note_on_c, 1, 36, 0
1, 126353, Note_on_c, 1, 33, 72
1, 126369, Note_on_c, 0, 68, 0
1, 126373, Note_on_c, 0, 62, 0
1, 126409, Note_on_c, 0, 91, 0
1, 126409, Note_on_c, 0, 58, 0
1, 126449, Note_on_c, 9, 44, 0
1, 126529, Note_on_c, 0, 79, 0
1, 126545, Note_on_c, 0, 86, 0
1, 126583, Note_on_c, 9, 35, 28
1, 126617, Note_on_c, 9, 51, 0
1, 126637, Note_on_c, 9, 35, 0
1, 126705, Note_on_c, 9, 35, 29
1, 126707, Note_on_c, 9, 51, 68
1, 126709, Note_on_c, 1, 33, 0
1, 126709, Control_c, 0, 64, 0
1, 126729, Note_on_c, 0, 67, 40
1, 126733, Note_on_c, 0, 63, 39
1, 126733, Note_on_c, 1, 31, 61
1, 126737, Note_on_c, 0, 62, 35
1, 126741, Note_on_c, 0, 89, 34
1, 126741, Note_on_c, 0, 77, 35
1, 126745, Note_on_c, 0, 57, 37
1, 126745, Note_on_c, 0, 84, 46
1, 126833, Note_on_c, 9, 35, 0
1, 126837, Note_on_c, 0, 77, 0
1, 126919, Note_on_c, 9, 51, 0
1, 126933, Note_on_c, 0, 63, 0
1, 126941, Note_on_c, 0, 84, 0
1, 126953, Note_on_c, 0, 89, 0
1, 126961, Note_on_c, 0, 67, 0
1, 127077, Note_on_c, 1, 31, 0
1, 127091, Note_on_c, 9, 51, 96
1, 127095, Note_on_c, 9, 44, 96
1, 127105, Note_on_c, 1, 30, 72
1, 127109, Note_on_c, 0, 67, 39
1, 127113, Note_on_c, 0, 63, 41
1, 127169, Note_on_c, 0, 57, 0
1, 127173, Note_on_c, 0, 67, 0
1, 127181, Note_on_c, 0, 63, 0
1, 127223, Note_on_c, 9, 44, 0
1, 127245, Note_on_c, 0, 62, 0
1, 127269, Note_on_c, 0, 99, 75
1, 127313, Note_on_c, 0, 99, 0
1, 127331, Note_on_c, 9, 51, 0
1, 127345, Note_on_c, 0, 103, 79
1, 127347, Note_on_c, 9, 51, 66
1, 127397, Note_on_c, 0, 99, 58
1, 127399, Note_on_c, 9, 51, 0
1, 127409, Note_on_c, 0, 103, 0
1, 127453, Note_on_c, 1, 30, 0
1, 127461, Note_on_c, 0, 96, 57
1, 127469, Note_on_c, 0, 99, 0
1, 127475, Note_on_c, 9, 51, 98
1, 127481, Note_on_c, 0, 96, 0
1, 127481, Note_on_c, 1, 29, 72
1, 127497, Note_on_c, 0, 93, 64
1, 127545, Note_on_c, 0, 93, 0
1, 127589, Note_on_c, 0, 92, 27
1, 127613, Note_on_c, 0, 92, 0
1, 127617, Note_on_c, 0, 91, 57
1, 127665, Note_on_c, 0, 91, 0
1, 127669, Note_on_c, 0, 90, 60
1, 127705, Note_on_c, 0, 90, 0
1, 127721, Note_on_c, 0, 89, 48
1, 127757, Note_on_c, 0, 89, 0
1, 127765, Note_on_c, 0, 88, 50
1, 127779, Note_on_c, 9, 51, 0
1, 127789, Note_on_c, 1, 29, 0
1, 127805, Note_on_c, 0, 88, 0
1, 127829, Note_on_c, 0, 87, 66
1, 127837, Note_on_c, 1, 29, 75
1, 127853, Note_on_c, 0, 87, 0
1, 127859, Note_on_c, 9, 51, 103
1, 127863, Note_on_c, 9, 44, 101
1, 127885, Note_on_c, 0, 91, 70
1, 127929, Note_on_c, 0, 91, 0
1, 127929, Note_on_c, 0, 87, 58
1, 127977, Note_on_c, 0, 87, 0
1, 128017, Note_on_c, 9, 44, 0
1, 128033, Note_on_c, 0, 81, 30
1, 128051, Note_on_c, 9, 51, 0
1, 128057, Note_on_c, 0, 81, 0
1, 128105, Note_on_c, 9, 35, 54
1, 128115, Note_on_c, 9, 51, 84
1, 128129, Note_on_c, 0, 79, 48
1, 128151, Note_on_c, 9, 51, 0
1, 128173, Note_on_c, 0, 79, 0
1, 128189, Note_on_c, 0, 78, 57
1, 128205, Note_on_c, 9, 35, 0
1, 128213, Note_on_c, 0, 78, 0
1, 128229, Note_on_c, 0, 77, 52
1, 128237, Note_on_c, 1, 36, 80
1, 128243, Note_on_c, 9, 51, 99
1, 128263, Note_on_c, 9, 35, 26
1, 128273, Note_on_c, 0, 77, 0
1, 128277, Note_on_c, 0, 76, 52
1, 128301, Note_on_c, 1, 29, 0
1, 128321, Note_on_c, 0, 76, 0
1, 128341, Note_on_c, 0, 75, 62
1, 128389, Note_on_c, 0, 75, 0
1, 128401, Note_on_c, 0, 79, 65
1, 128437, Note_on_c, 0, 75, 48
1, 128449, Note_on_c, 9, 35, 0
1, 128465, Note_on_c, 0, 79, 0
1, 128477, Note_on_c, 0, 72, 51
1, 128497, Note_on_c, 0, 75, 0
1, 128501, Note_on_c, 0, 72, 0
1, 128503, Note_on_c, 9, 51, 0
1, 128513, Note_on_c, 9, 35, 49
1, 128545, Note_on_c, 9, 35, 0
1, 128613, Note_on_c, 1, 35, 81
1, 128627, Note_on_c, 9, 51, 108
1, 128631, Note_on_c, 9, 46, 45
1, 128645, Note_on_c, 0, 69, 43
1, 128649, Note_on_c, 1, 36, 0
1, 128673, Note_on_c, 0, 69, 0
1, 128689, Note_on_c, 0, 68, 58
1, 128729, Note_on_c, 0, 68, 0
1, 128741, Note_on_c, 0, 67, 52
1, 128777, Note_on_c, 0, 67, 0
1, 128777, Note_on_c, 9, 46, 0
1, 128809, Note_on_c, 0, 65, 25
1, 128829, Note_on_c, 0, 65, 0
1, 128833, Note_on_c, 0, 66, 50
1, 128865, Note_on_c, 0, 66, 0
1, 128881, Note_on_c, 0, 65, 40
1, 128899, Note_on_c, 9, 51, 0
1, 128933, Note_on_c, 0, 65, 0
1, 128973, Note_on_c, 1, 35, 0
1, 129009, Note_on_c, 1, 34, 76
1, 129011, Note_on_c, 9, 51, 112
1, 129013, Note_on_c, 0, 63, 55
1, 129081, Note_on_c, 0, 63, 0
1, 129081, Note_on_c, 0, 65, 57
1, 129129, Note_on_c, 0, 63, 50
1, 129137, Note_on_c, 0, 65, 0
1, 129185, Note_on_c, 0, 63, 0
1, 129201, Note_on_c, 0, 62, 46
1, 129229, Note_on_c, 0, 62, 0
1, 129245, Note_on_c, 0, 61, 47
1, 129273, Note_on_c, 0, 61, 0
1, 129305, Note_on_c, 9, 51, 0
1, 129305, Note_on_c, 0, 63, 73
1, 129369, Note_on_c, 0, 63, 0
1, 129385, Note_on_c, 0, 61, 50
1, 129393, Note_on_c, 1, 34, 0
1, 129393, Note_on_c, 1, 40, 82
1, 129395, Note_on_c, 9, 51, 61
1, 129399, Note_on_c, 9, 44, 96
1, 129413, Note_on_c, 0, 61, 0
1, 129441, Note_on_c, 0, 62, 79
1, 129533, Note_on_c, 0, 62, 0
1, 129541, Note_on_c, 0, 57, 70
1, 129545, Note_on_c, 9, 44, 0
1, 129603, Note_on_c, 9, 51, 0
1, 129613, Note_on_c, 0, 57, 0
1, 129635, Note_on_c, 9, 35, 59
1, 129651, Note_on_c, 9, 51, 68
1, 129661, Note_on_c, 9, 35, 0
1, 129687, Note_on_c, 9, 51, 0
1, 129777, Note_on_c, 1, 41, 72
1, 129779, Note_on_c, 9, 51, 75
1, 129785, Note_on_c, 1, 40, 0
1, 129801, Note_on_c, 0, 57, 57
1, 129977, Note_on_c, 9, 51, 0
1, 130029, Note_on_c, 1, 48, 79
1, 130117, Note_on_c, 1, 41, 0
1, 130129, Note_on_c, 1, 48, 0
1, 130163, Note_on_c, 9, 51, 117
1, 130167, Note_on_c, 9, 44, 94
1, 130169, Note_on_c, 1, 47, 63
1, 130281, Note_on_c, 0, 57, 0
1, 130313, Note_on_c, 9, 44, 0
1, 130409, Note_on_c, 9, 51, 0
1, 130413, Note_on_c, 1, 47, 0
1, 130419, Note_on_c, 9, 51, 35
1, 130433, Note_on_c, 1, 40, 41
1, 130457, Note_on_c, 0, 57, 107
1, 130461, Note_on_c, 0, 45, 70
1, 130461, Note_on_c, 1, 45, 21
1, 130465, Note_on_c, 1, 40, 0
1, 130483, Note_on_c, 9, 51, 0
1, 130533, Note_on_c, 1, 45, 0
1, 130547, Note_on_c, 9, 51, 78
1, 130549, Note_on_c, 1, 46, 68
1, 130625, Note_on_c, 0, 58, 54
1, 130661, Note_on_c, 0, 57, 0
1, 130685, Note_on_c, 0, 59, 66
1, 130701, Note_on_c, 0, 58, 0
1, 130713, Note_on_c, 0, 45, 0
1, 130717, Note_on_c, 0, 47, 41
1, 130733, Note_on_c, 0, 59, 0
1, 130745, Note_on_c, 0, 47, 0
1, 130753, Note_on_c, 0, 60, 76
1, 130765, Note_on_c, 0, 48, 69
1, 130829, Note_on_c, 0, 60, 0
1, 130833, Note_on_c, 0, 48, 0
1, 130851, Note_on_c, 9, 51, 0
1, 130865, Note_on_c, 0, 57, 76
1, 130877, Note_on_c, 1, 46, 0
1, 130885, Note_on_c, 0, 45, 41
1, 130913, Note_on_c, 1, 40, 62
1, 130921, Note_on_c, 0, 57, 0
1, 130929, Note_on_c, 0, 45, 0
1, 130931, Note_on_c, 9, 51, 87
1, 130935, Note_on_c, 9, 44, 105
1, 130957, Note_on_c, 0, 53, 68
1, 130997, Note_on_c, 0, 41, 33
1, 131097, Note_on_c, 9, 44, 0
1, 131101, Note_on_c, 0, 41, 0
1, 131101, Note_on_c, 0, 54, 59
1, 131109, Note_on_c, 0, 42, 56
1, 131113, Note_on_c, 0, 53, 0
1, 131155, Note_on_c, 9, 51, 0
1, 131173, Note_on_c, 0, 54, 0
1, 131187, Note_on_c, 9, 51, 75
1, 131189, Note_on_c, 0, 42, 0
1, 131189, Note_on_c, 0, 55, 66
1, 131193, Note_on_c, 1, 38, 63
1, 131205, Note_on_c, 0, 43, 50
1, 131229, Note_on_c, 1, 38, 0
1, 131241, Note_on_c, 9, 51, 0
1, 131249, Note_on_c, 1, 40, 0
1, 131249, Note_on_c, 0, 55, 0
1, 131269, Note_on_c, 0, 43, 0
1, 131301, Note_on_c, 1, 41, 66
1, 131305, Note_on_c, 0, 44, 49
1, 131313, Note_on_c, 0, 56, 61
1, 131315, Note_on_c, 9, 51, 57
1, 131319, Note_on_c, 9, 34, 31
1, 131389, Note_on_c, 9, 34, 0
1, 131393, Note_on_c, 0, 44, 0
1, 131405, Note_on_c, 0, 56, 0
1, 131425, Note_on_c, 0, 45, 49
1, 131425, Note_on_c, 0, 57, 56
1, 131505, Note_on_c, 0, 57, 0
1, 131523, Note_on_c, 9, 51, 0
1, 131541, Note_on_c, 0, 46, 56
1, 131553, Note_on_c, 0, 45, 0
1, 131553, Note_on_c, 0, 58, 56
1, 131565, Note_on_c, 1, 38, 31
1, 131571, Note_on_c, 9, 53, 80
1, 131589, Note_on_c, 1, 38, 0
1, 131623, Note_on_c, 9, 53, 0
1, 131649, Note_on_c, 0, 58, 0
1, 131669, Note_on_c, 0, 46, 0
1, 131669, Note_on_c, 1, 41, 0
1, 131673, Note_on_c, 0, 47, 55
1, 131681, Note_on_c, 1, 44, 76
1, 131685, Note_on_c, 0, 59, 39
1, 131699, Note_on_c, 9, 51, 43
1, 131703, Note_on_c, 9, 44, 96
1, 131749, Note_on_c, 0, 59, 0
1, 131769, Note_on_c, 0, 47, 0
1, 131793, Note_on_c, 0, 60, 54
1, 131797, Note_on_c, 0, 48, 50
1, 131845, Note_on_c, 0, 48, 0
1, 131857, Note_on_c, 0, 60, 0
1, 131873, Note_on_c, 9, 44, 0
1, 131905, Note_on_c, 1, 38, 50
1, 131921, Note_on_c, 0, 61, 61
1, 131925, Note_on_c, 1, 38, 0
1, 131925, Note_on_c, 0, 51, 49
1, 131977, Note_on_c, 9, 51, 0
1, 131997, Note_on_c, 0, 51, 0
1, 132013, Note_on_c, 0, 61, 0
1, 132053, Note_on_c, 0, 50, 41
1, 132053, Note_on_c, 0, 62, 54
1, 132061, Note_on_c, 0, 43, 52
1, 132065, Note_on_c, 0, 59, 44
1, 132065, Note_on_c, 1, 43, 62
1, 132069, Note_on_c, 1, 44, 0
1, 132083, Note_on_c, 0, 53, 27
1, 132083, Note_on_c, 9, 51, 84
1, 132101, Note_on_c, 0, 50, 0
1, 132117, Note_on_c, 0, 53, 0
1, 132121, Note_on_c, 0, 62, 0
1, 132125, Note_on_c, 0, 59, 0
1, 132189, Note_on_c, 0, 53, 36
1, 132193, Note_on_c, 0, 63, 42
1, 132201, Note_on_c, 0, 59, 35
1, 132253, Note_on_c, 0, 53, 0
1, 132257, Note_on_c, 0, 59, 0
1, 132261, Note_on_c, 0, 63, 0
1, 132313, Note_on_c, 0, 64, 60
1, 132317, Note_on_c, 0, 59, 60
1, 132321, Note_on_c, 0, 53, 31
1, 132325, Note_on_c, 0, 52, 54
1, 132353, Note_on_c, 0, 53, 0
1, 132361, Note_on_c, 9, 51, 0
1, 132365, Note_on_c, 0, 64, 0
1, 132373, Note_on_c, 0, 59, 0
1, 132397, Note_on_c, 0, 52, 0
1, 132429, Note_on_c, 0, 43, 0
1, 132445, Note_on_c, 0, 65, 52
1, 132457, Note_on_c, 0, 53, 45
1, 132457, Note_on_c, 1, 30, 81
1, 132461, Note_on_c, 0, 60, 44
1, 132467, Note_on_c, 9, 51, 84
1, 132471, Note_on_c, 9, 44, 105
1, 132481, Note_on_c, 1, 43, 0
1, 132493, Note_on_c, 0, 65, 0
1, 132493, Note_on_c, 0, 53, 0
1, 132505, Note_on_c, 0, 60, 0
1, 132581, Note_on_c, 0, 54, 61
1, 132585, Note_on_c, 0, 66, 55
1, 132589, Note_on_c, 0, 61, 48
1, 132631, Note_on_c, 9, 44, 0
1, 132633, Note_on_c, 0, 54, 0
1, 132649, Note_on_c, 0, 66, 0
1, 132649, Note_on_c, 9, 51, 0
1, 132653, Note_on_c, 0, 61, 0
1, 132713, Note_on_c, 0, 67, 57
1, 132713, Note_on_c, 0, 59, 66
1, 132721, Note_on_c, 0, 53, 57
1, 132721, Note_on_c, 0, 62, 57
1, 132723, Note_on_c, 9, 51, 52
1, 132757, Note_on_c, 0, 67, 0
1, 132759, Note_on_c, 9, 51, 0
1, 132773, Note_on_c, 0, 59, 0
1, 132797, Note_on_c, 0, 62, 0
1, 132821, Note_on_c, 1, 30, 0
1, 132833, Note_on_c, 0, 53, 0
1, 132845, Note_on_c, 0, 54, 52
1, 132845, Note_on_c, 1, 31, 72
1, 132849, Note_on_c, 0, 59, 37
1, 132851, Note_on_c, 9, 51, 66
1, 132857, Note_on_c, 0, 68, 54
1, 132901, Note_on_c, 0, 59, 0
1, 132917, Note_on_c, 0, 68, 0
1, 132949, Note_on_c, 0, 54, 0
1, 132969, Note_on_c, 0, 59, 50
1, 132977, Note_on_c, 0, 69, 57
1, 132981, Note_on_c, 0, 55, 50
1, 132985, Note_on_c, 0, 64, 49
1, 132997, Note_on_c, 0, 62, 33
1, 133009, Note_on_c, 0, 64, 0
1, 133013, Note_on_c, 0, 59, 0
1, 133021, Note_on_c, 0, 62, 0
1, 133025, Note_on_c, 0, 69, 0
1, 133105, Note_on_c, 0, 55, 0
1, 133105, Note_on_c, 0, 56, 58
1, 133105, Note_on_c, 9, 31, 40
1, 133129, Note_on_c, 9, 31, 0
1, 133139, Note_on_c, 9, 51, 0
1, 133213, Note_on_c, 1, 44, 83
1, 133217, Note_on_c, 1, 31, 0
1, 133229, Note_on_c, 0, 56, 0
1, 133229, Note_on_c, 0, 71, 63
1, 133235, Note_on_c, 0, 62, 62
1, 133235, Note_on_c, 9, 51, 87
1, 133239, Note_on_c, 0, 57, 58
1, 133239, Note_on_c, 9, 44, 98
1, 133249, Note_on_c, 0, 67, 42
1, 133253, Note_on_c, 0, 62, 0
1, 133273, Note_on_c, 9, 31, 59
1, 133277, Note_on_c, 0, 71, 0
1, 133277, Note_on_c, 0, 67, 0
1, 133321, Note_on_c, 9, 31, 0
1, 133345, Note_on_c, 0, 57, 0
1, 133357, Note_on_c, 0, 72, 66
1, 133365, Note_on_c, 0, 58, 49
1, 133367, Note_on_c, 9, 31, 50
1, 133377, Note_on_c, 0, 67, 37
1, 133385, Note_on_c, 9, 44, 0
1, 133401, Note_on_c, 0, 67, 0
1, 133405, Note_on_c, 0, 72, 0
1, 133421, Note_on_c, 9, 31, 0
1, 133429, Note_on_c, 0, 58, 0
1, 133443, Note_on_c, 9, 51, 0
1, 133477, Note_on_c, 1, 31, 62
1, 133481, Note_on_c, 0, 59, 63
1, 133485, Note_on_c, 0, 73, 68
1, 133485, Note_on_c, 0, 63, 64
1, 133491, Note_on_c, 9, 51, 56
1, 133529, Note_on_c, 1, 31, 0
1, 133543, Note_on_c, 9, 51, 0
1, 133557, Note_on_c, 0, 63, 0
1, 133573, Note_on_c, 0, 73, 0
1, 133589, Note_on_c, 1, 44, 0
1, 133593, Note_on_c, 1, 43, 66
1, 133605, Note_on_c, 0, 59, 0
1, 133617, Note_on_c, 0, 65, 73
1, 133617, Note_on_c, 0, 74, 66
1, 133617, Note_on_c, 0, 68, 63
1, 133617, Note_on_c, 0, 60, 69
1, 133619, Note_on_c, 9, 51, 92
1, 133645, Note_on_c, 0, 72, 34
1, 133645, Note_on_c, 0, 71, 36
1, 133669, Note_on_c, 0, 72, 0
1, 133673, Note_on_c, 0, 71, 0
1, 133677, Note_on_c, 0, 60, 0
1, 133681, Note_on_c, 0, 65, 0
1, 133685, Note_on_c, 0, 74, 0
1, 133697, Note_on_c, 0, 68, 0
1, 133861, Note_on_c, 1, 30, 82
1, 133869, Note_on_c, 0, 71, 75
1, 133877, Note_on_c, 0, 55, 68
1, 133877, Note_on_c, 0, 65, 74
1, 133881, Note_on_c, 0, 62, 65
1, 133907, Note_on_c, 9, 51, 0
1, 133917, Note_on_c, 0, 71, 0
1, 133921, Note_on_c, 0, 65, 0
1, 133941, Note_on_c, 1, 43, 0
1, 133945, Note_on_c, 0, 62, 0
1, 133949, Note_on_c, 0, 55, 0
1, 133981, Note_on_c, 1, 30, 0
1, 133985, Note_on_c, 1, 31, 75
1, 134003, Note_on_c, 9, 51, 98
1, 134007, Note_on_c, 0, 66, 41
1, 134007, Note_on_c, 9, 44, 98
1, 134021, Note_on_c, 0, 67, 54
1, 134025, Note_on_c, 0, 59, 49
1, 134033, Note_on_c, 0, 50, 56
1, 134045, Note_on_c, 0, 66, 0
1, 134049, Note_on_c, 0, 62, 38
1, 134161, Note_on_c, 0, 67, 0
1, 134161, Note_on_c, 9, 44, 0
1, 134169, Note_on_c, 0, 59, 0
1, 134173, Note_on_c, 0, 62, 0
1, 134253, Note_on_c, 0, 50, 0
1, 134253, Note_on_c, 0, 66, 60
1, 134257, Note_on_c, 0, 54, 44
1, 134257, Note_on_c, 0, 58, 52
1, 134257, Note_on_c, 0, 44, 48
1, 134257, Note_on_c, 9, 31, 50
1, 134277, Note_on_c, 0, 61, 48
1, 134281, Note_on_c, 9, 31, 0
1, 134313, Note_on_c, 9, 51, 0
1, 134349, Note_on_c, 0, 66, 0
1, 134353, Note_on_c, 0, 61, 0
1, 134357, Note_on_c, 0, 54, 0
1, 134361, Note_on_c, 0, 58, 0
1, 134361, Note_on_c, 1, 31, 0
1, 134377, Note_on_c, 0, 44, 0
1, 134377, Note_on_c, 1, 43, 79
1, 134387, Note_on_c, 9, 51, 82
1, 134393, Note_on_c, 0, 65, 56
1, 134405, Note_on_c, 0, 53, 46
1, 134409, Note_on_c, 0, 59, 53
1, 134409, Note_on_c, 0, 43, 45
1, 134529, Control_c, 0, 64, 127
1, 134621, Note_on_c, 1, 34, 67
1, 134629, Note_on_c, 0, 53, 0
1, 134661, Note_on_c, 0, 59, 0
1, 134677, Note_on_c, 0, 50, 36
1, 134681, Note_on_c, 9, 51, 0
1, 134705, Note_on_c, 1, 43, 0
1, 134713, Note_on_c, 1, 34, 0
1, 134721, Control_c, 0, 64, 0
1, 134725, Note_on_c, 0, 65, 0
1, 134745, Note_on_c, 1, 35, 72
1, 134765, Note_on_c, 0, 50, 0
1, 134771, Note_on_c, 9, 51, 63
1, 134773, Note_on_c, 0, 53, 52
1, 134775, Note_on_c, 9, 46, 36
1, 134777, Note_on_c, 0, 59, 58
1, 134777, Note_on_c, 0, 62, 52
1, 134777, Note_on_c, 0, 55, 47
1, 134805, Control_c, 0, 64, 127
1, 134829, Note_on_c, 0, 53, 0
1, 134873, Note_on_c, 0, 62, 0
1, 134893, Note_on_c, 0, 59, 0
1, 134897, Note_on_c, 9, 46, 0
1, 134937, Note_on_c, 0, 55, 0
1, 134997, Note_on_c, 1, 34, 50
1, 135027, Note_on_c, 9, 35, 50
1, 135043, Note_on_c, 9, 51, 0
1, 135049, Note_on_c, 9, 35, 0
1, 135053, Note_on_c, 0, 46, 40
1, 135069, Note_on_c, 1, 35, 0
1, 135077, Control_c, 0, 64, 24
1, 135081, Control_c, 0, 64, 0
1, 135105, Note_on_c, 0, 43, 0
1, 135113, Note_on_c, 1, 34, 0
1, 135133, Note_on_c, 1, 36, 71
1, 135137, Note_on_c, 0, 50, 57
1, 135141, Note_on_c, 0, 46, 0
1, 135141, Note_on_c, 0, 58, 52
1, 135141, Note_on_c, 0, 62, 55
1, 135141, Note_on_c, 0, 55, 50
1, 135145, Note_on_c, 0, 53, 52
1, 135145, Control_c, 0, 64, 127
1, 135155, Note_on_c, 9, 51, 78
1, 135173, Note_on_c, 0, 53, 0
1, 135193, Note_on_c, 0, 50, 0
1, 135201, Note_on_c, 0, 55, 0
1, 135221, Note_on_c, 0, 58, 0
1, 135225, Note_on_c, 0, 62, 0
1, 135383, Note_on_c, 9, 51, 0
1, 135385, Note_on_c, 1, 34, 42
1, 135411, Note_on_c, 9, 59, 82
1, 135463, Note_on_c, 9, 59, 0
1, 135509, Note_on_c, 1, 50, 79
1, 135517, Control_c, 0, 64, 0
1, 135521, Note_on_c, 1, 34, 0
1, 135521, Note_on_c, 1, 36, 0
1, 135537, Note_on_c, 0, 85, 111
1, 135537, Note_on_c, 0, 53, 89
1, 135537, Note_on_c, 0, 89, 111
1, 135537, Note_on_c, 9, 51, 47
1, 135541, Note_on_c, 0, 77, 102
1, 135541, Note_on_c, 0, 58, 83
1, 135541, Note_on_c, 0, 62, 84
1, 135541, Note_on_c, 0, 57, 80
1, 135543, Note_on_c, 9, 44, 87
1, 135565, Note_on_c, 0, 60, 33
1, 135621, Note_on_c, 0, 86, 68
1, 135625, Note_on_c, 0, 85, 0
1, 135625, Note_on_c, 0, 88, 16
1, 135629, Control_c, 0, 64, 127
1, 135665, Note_on_c, 0, 60, 0
1, 135705, Note_on_c, 9, 44, 0
1, 135709, Note_on_c, 0, 62, 0
1, 135709, Note_on_c, 0, 77, 0
1, 135713, Note_on_c, 0, 86, 0
1, 135721, Note_on_c, 0, 88, 0
1, 135729, Note_on_c, 0, 89, 0
1, 135729, Note_on_c, 0, 53, 0
1, 135733, Note_on_c, 0, 57, 0
1, 135737, Control_c, 0, 64, 0
1, 135741, Note_on_c, 0, 58, 0
1, 135761, Control_c, 0, 64, 127
1, 135765, Note_on_c, 1, 34, 48
1, 135783, Note_on_c, 0, 53, 77
1, 135783, Note_on_c, 9, 35, 26
1, 135785, Note_on_c, 0, 85, 92
1, 135785, Note_on_c, 0, 89, 89
1, 135785, Note_on_c, 0, 62, 90
1, 135785, Note_on_c, 0, 58, 75
1, 135789, Note_on_c, 0, 77, 94
1, 135789, Note_on_c, 0, 57, 71
1, 135833, Note_on_c, 9, 35, 0
1, 135833, Note_on_c, 9, 51, 0
1, 135841, Note_on_c, 1, 34, 0
1, 135841, Note_on_c, 0, 88, 12
1, 135845, Note_on_c, 0, 86, 46
1, 135861, Note_on_c, 0, 86, 0
1, 135861, Note_on_c, 0, 85, 0
1, 135865, Note_on_c, 1, 50, 0
1, 135881, Note_on_c, 0, 88, 0
1, 135881, Note_on_c, 0, 89, 0
1, 135885, Note_on_c, 0, 62, 0
1, 135885, Note_on_c, 0, 77, 0
1, 135889, Note_on_c, 0, 53, 0
1, 135897, Note_on_c, 1, 48, 66
1, 135905, Note_on_c, 0, 57, 0
1, 135905, Control_c, 0, 64, 40
1, 135905, Note_on_c, 1, 49, 44
1, 135909, Control_c, 0, 64, 0
1, 135913, Note_on_c, 0, 58, 0
1, 135923, Note_on_c, 9, 35, 26
1, 135923, Note_on_c, 9, 51, 63
1, 135937, Note_on_c, 1, 49, 0
1, 135941, Note_on_c, 0, 53, 57
1, 135945, Note_on_c, 0, 82, 68
1, 135949, Note_on_c, 0, 62, 63
1, 135949, Note_on_c, 0, 74, 70
1, 135949, Note_on_c, 0, 58, 74
1, 135949, Note_on_c, 0, 86, 61
1, 135949, Note_on_c, 0, 57, 63
1, 135961, Note_on_c, 0, 80, 44
1, 135985, Note_on_c, 0, 80, 0
1, 136003, Note_on_c, 9, 35, 0
1, 136005, Control_c, 0, 64, 127
1, 136021, Note_on_c, 0, 82, 0
1, 136053, Note_on_c, 0, 83, 24
1, 136061, Note_on_c, 0, 84, 21
1, 136093, Note_on_c, 0, 83, 0
1, 136093, Note_on_c, 0, 74, 0
1, 136101, Note_on_c, 0, 53, 0
1, 136105, Note_on_c, 0, 86, 0
1, 136105, Note_on_c, 0, 62, 0
1, 136113, Note_on_c, 0, 57, 0
1, 136113, Note_on_c, 0, 84, 0
1, 136117, Note_on_c, 0, 58, 0
1, 136137, Note_on_c, 1, 38, 41
1, 136169, Note_on_c, 0, 74, 66
1, 136169, Note_on_c, 0, 58, 59
1, 136177, Note_on_c, 0, 62, 57
1, 136181, Note_on_c, 0, 53, 56
1, 136185, Note_on_c, 0, 57, 46
1, 136189, Note_on_c, 1, 38, 0
1, 136201, Note_on_c, 0, 53, 0
1, 136201, Note_on_c, 9, 51, 0
1, 136205, Note_on_c, 0, 57, 0
1, 136213, Note_on_c, 0, 74, 0
1, 136225, Note_on_c, 0, 62, 0
1, 136241, Control_c, 0, 64, 0
1, 136253, Note_on_c, 0, 58, 0
1, 136289, Note_on_c, 1, 43, 62
1, 136297, Note_on_c, 0, 66, 69
1, 136301, Note_on_c, 0, 62, 60
1, 136301, Note_on_c, 0, 78, 61
1, 136305, Note_on_c, 0, 58, 45
1, 136307, Note_on_c, 9, 51, 70
1, 136309, Note_on_c, 0, 53, 50
1, 136311, Note_on_c, 0, 57, 50
1, 136311, Note_on_c, 9, 44, 92
1, 136321, Control_c, 0, 64, 127
1, 136345, Note_on_c, 1, 48, 0
1, 136461, Note_on_c, 0, 53, 0
1, 136465, Note_on_c, 0, 62, 0
1, 136465, Note_on_c, 9, 44, 0
1, 136481, Note_on_c, 0, 58, 0
1, 136493, Note_on_c, 0, 57, 0
1, 136537, Note_on_c, 0, 62, 50
1, 136545, Note_on_c, 0, 58, 44
1, 136547, Note_on_c, 9, 51, 0
1, 136549, Note_on_c, 0, 53, 39
1, 136553, Note_on_c, 0, 57, 34
1, 136553, Note_on_c, 1, 34, 48
1, 136563, Note_on_c, 9, 51, 61
1, 136577, Note_on_c, 0, 57, 0
1, 136577, Note_on_c, 0, 53, 0
1, 136577, Note_on_c, 9, 35, 38
1, 136581, Note_on_c, 0, 62, 0
1, 136609, Note_on_c, 9, 35, 0
1, 136613, Note_on_c, 0, 58, 0
1, 136633, Note_on_c, 0, 78, 0
1, 136641, Note_on_c, 1, 34, 0
1, 136641, Control_c, 0, 64, 0
1, 136643, Note_on_c, 9, 51, 0
1, 136645, Note_on_c, 0, 66, 0
1, 136681, Note_on_c, 0, 62, 46
1, 136681, Note_on_c, 0, 52, 54
1, 136681, Note_on_c, 1, 37, 66
1, 136685, Note_on_c, 1, 43, 0
1, 136685, Note_on_c, 0, 67, 56
1, 136689, Note_on_c, 0, 58, 38
1, 136691, Note_on_c, 9, 51, 92
1, 136697, Note_on_c, 0, 79, 48
1, 136733, Control_c, 0, 64, 127
1, 136813, Note_on_c, 0, 52, 0
1, 136825, Note_on_c, 0, 58, 0
1, 136833, Note_on_c, 0, 67, 0
1, 136849, Note_on_c, 0, 62, 0
1, 136877, Note_on_c, 0, 79, 0
1, 136945, Note_on_c, 1, 34, 45
1, 137011, Note_on_c, 9, 51, 0
1, 137069, Note_on_c, 1, 49, 81
1, 137073, Note_on_c, 1, 34, 0
1, 137075, Note_on_c, 9, 51, 105
1, 137079, Note_on_c, 9, 44, 106
1, 137081, Note_on_c, 1, 37, 0
1, 137217, Note_on_c, 9, 44, 0
1, 137337, Note_on_c, 9, 35, 43
1, 137377, Note_on_c, 9, 35, 0
1, 137401, Note_on_c, 9, 51, 0
1, 137437, Control_c, 0, 64, 0
1, 137459, Note_on_c, 9, 51, 75
1, 137465, Note_on_c, 0, 58, 46
1, 137469, Note_on_c, 0, 62, 41
1, 137469, Note_on_c, 0, 76, 55
1, 137473, Note_on_c, 0, 88, 48
1, 137473, Note_on_c, 0, 52, 42
1, 137481, Note_on_c, 0, 84, 40
1, 137509, Note_on_c, 0, 52, 0
1, 137517, Note_on_c, 0, 62, 0
1, 137533, Note_on_c, 0, 58, 0
1, 137537, Note_on_c, 0, 88, 0
1, 137549, Note_on_c, 0, 84, 0
1, 137557, Note_on_c, 0, 76, 0
1, 137569, Note_on_c, 1, 48, 66
1, 137605, Note_on_c, 1, 49, 0
1, 137609, Note_on_c, 1, 48, 0
1, 137693, Note_on_c, 1, 43, 63
1, 137703, Note_on_c, 9, 51, 0
1, 137713, Note_on_c, 0, 74, 64
1, 137713, Note_on_c, 0, 82, 52
1, 137713, Note_on_c, 0, 86, 54
1, 137715, Note_on_c, 9, 51, 64
1, 137717, Note_on_c, 0, 62, 49
1, 137721, Note_on_c, 0, 58, 48
1, 137725, Note_on_c, 0, 52, 43
1, 137793, Note_on_c, 1, 43, 0
1, 137795, Note_on_c, 9, 51, 0
1, 137809, Control_c, 0, 64, 127
1, 137825, Note_on_c, 1, 39, 64
1, 137843, Note_on_c, 9, 51, 110
1, 137847, Note_on_c, 9, 44, 94
1, 137849, Note_on_c, 0, 86, 0
1, 137885, Note_on_c, 0, 74, 0
1, 137885, Note_on_c, 1, 39, 0
1, 137893, Note_on_c, 0, 52, 0
1, 137897, Note_on_c, 0, 62, 0
1, 137901, Note_on_c, 0, 82, 0
1, 137905, Note_on_c, 0, 58, 0
1, 137981, Note_on_c, 0, 85, 55
1, 137985, Note_on_c, 9, 44, 0
1, 137985, Note_on_c, 0, 73, 51
1, 137997, Note_on_c, 0, 58, 41
1, 137997, Note_on_c, 0, 62, 31
1, 138001, Note_on_c, 0, 52, 29
1, 138025, Note_on_c, 0, 62, 0
1, 138029, Note_on_c, 0, 52, 0
1, 138037, Note_on_c, 0, 85, 0
1, 138037, Note_on_c, 0, 58, 0
1, 138041, Note_on_c, 0, 73, 0
1, 138085, Note_on_c, 1, 40, 66
1, 138101, Note_on_c, 0, 84, 42
1, 138101, Note_on_c, 0, 62, 45
1, 138101, Note_on_c, 0, 72, 55
1, 138101, Note_on_c, 0, 58, 39
1, 138103, Note_on_c, 9, 35, 36
1, 138121, Note_on_c, 0, 84, 0
1, 138145, Note_on_c, 0, 62, 0
1, 138145, Note_on_c, 0, 58, 0
1, 138147, Note_on_c, 9, 51, 0
1, 138153, Note_on_c, 0, 72, 0
1, 138167, Note_on_c, 9, 35, 0
1, 138181, Control_c, 0, 64, 0
1, 138193, Note_on_c, 1, 40, 0
1, 138221, Note_on_c, 1, 41, 57
1, 138227, Note_on_c, 9, 51, 117
1, 138233, Note_on_c, 0, 64, 37
1, 138233, Note_on_c, 9, 35, 38
1, 138237, Note_on_c, 0, 53, 31
1, 138237, Note_on_c, 0, 76, 54
1, 138241, Note_on_c, 0, 60, 42
1, 138241, Note_on_c, 0, 81, 46
1, 138245, Note_on_c, 0, 57, 45
1, 138253, Note_on_c, 0, 69, 22
1, 138305, Note_on_c, 9, 35, 0
1, 138325, Note_on_c, 0, 81, 0
1, 138329, Note_on_c, 0, 69, 0
1, 138333, Note_on_c, 0, 64, 0
1, 138333, Note_on_c, 0, 76, 0
1, 138337, Note_on_c, 0, 60, 0
1, 138345, Note_on_c, 0, 57, 0
1, 138349, Note_on_c, 0, 53, 0
1, 138569, Note_on_c, 9, 51, 0
1, 138611, Note_on_c, 9, 51, 87
1, 138615, Note_on_c, 9, 44, 99
1, 138625, Note_on_c, 0, 53, 39
1, 138629, Note_on_c, 0, 64, 46
1, 138633, Note_on_c, 0, 60, 44
1, 138637, Note_on_c, 0, 81, 46
1, 138641, Note_on_c, 0, 69, 38
1, 138649, Note_on_c, 0, 57, 38
1, 138653, Note_on_c, 0, 76, 39
1, 138729, Note_on_c, 0, 76, 0
1, 138729, Note_on_c, 0, 69, 0
1, 138729, Note_on_c, 0, 64, 0
1, 138737, Note_on_c, 0, 53, 0
1, 138737, Note_on_c, 0, 60, 0
1, 138737, Note_on_c, 0, 57, 0
1, 138737, Note_on_c, 9, 44, 0
1, 138737, Note_on_c, 0, 81, 0
1, 138841, Note_on_c, 9, 51, 0
1, 138865, Note_on_c, 9, 51, 56
1, 138865, Note_on_c, 9, 35, 40
1, 138903, Note_on_c, 9, 35, 0
1, 138947, Note_on_c, 9, 51, 0
1, 138995, Note_on_c, 9, 51, 84
1, 138997, Note_on_c, 1, 41, 0
1, 139005, Note_on_c, 1, 36, 80
1, 139017, Note_on_c, 0, 81, 55
1, 139017, Note_on_c, 0, 62, 49
1, 139017, Note_on_c, 0, 69, 53
1, 139021, Note_on_c, 0, 74, 59
1, 139025, Note_on_c, 0, 55, 54
1, 139029, Note_on_c, 0, 53, 37
1, 139045, Note_on_c, 0, 58, 40
1, 139105, Control_c, 0, 64, 127
1, 139225, Note_on_c, 0, 69, 0
1, 139225, Note_on_c, 9, 51, 0
1, 139245, Note_on_c, 0, 81, 0
1, 139249, Note_on_c, 0, 58, 0
1, 139251, Note_on_c, 9, 51, 61
1, 139253, Note_on_c, 0, 53, 0
1, 139257, Note_on_c, 0, 62, 0
1, 139261, Note_on_c, 0, 55, 0
1, 139281, Note_on_c, 0, 74, 0
1, 139315, Note_on_c, 9, 51, 0
1, 139379, Note_on_c, 9, 51, 120
1, 139383, Note_on_c, 9, 44, 94
1, 139393, Note_on_c, 0, 62, 57
1, 139393, Note_on_c, 0, 82, 73
1, 139393, Note_on_c, 0, 58, 51
1, 139397, Note_on_c, 0, 74, 76
1, 139405, Note_on_c, 0, 53, 43
1, 139405, Note_on_c, 0, 70, 60
1, 139425, Note_on_c, 0, 55, 31
1, 139495, Note_on_c, 9, 44, 0
1, 139517, Note_on_c, 0, 55, 0
1, 139517, Note_on_c, 0, 74, 0
1, 139529, Note_on_c, 0, 70, 0
1, 139537, Note_on_c, 0, 53, 0
1, 139549, Note_on_c, 0, 58, 0
1, 139549, Note_on_c, 0, 62, 0
1, 139553, Note_on_c, 0, 82, 0
1, 139651, Note_on_c, 9, 35, 43
1, 139673, Note_on_c, 9, 51, 0
1, 139693, Note_on_c, 9, 35, 0
1, 139729, Control_c, 0, 64, 0
1, 139763, Note_on_c, 9, 51, 108
1, 139777, Note_on_c, 1, 29, 94
1, 139781, Note_on_c, 1, 36, 0
1, 139793, Note_on_c, 0, 60, 34
1, 139797, Note_on_c, 0, 64, 42
1, 139797, Note_on_c, 0, 53, 27
1, 139801, Note_on_c, 0, 84, 46
1, 139809, Note_on_c, 0, 57, 38
1, 139813, Note_on_c, 0, 72, 26
1, 139825, Note_on_c, 0, 79, 38
1, 139861, Control_c, 0, 64, 127
1, 139957, Note_on_c, 0, 53, 0
1, 139969, Note_on_c, 0, 72, 0
1, 139969, Note_on_c, 0, 64, 0
1, 139973, Note_on_c, 0, 84, 0
1, 139981, Note_on_c, 0, 57, 0
1, 139985, Note_on_c, 0, 79, 0
1, 139989, Note_on_c, 0, 60, 0
1, 140045, Note_on_c, 0, 84, 88
1, 140049, Note_on_c, 0, 79, 82
1, 140049, Note_on_c, 0, 72, 74
1, 140053, Note_on_c, 0, 64, 78
1, 140053, Note_on_c, 0, 60, 63
1, 140057, Note_on_c, 0, 53, 68
1, 140061, Note_on_c, 0, 57, 66
1, 140099, Note_on_c, 9, 51, 0
1, 140137, Note_on_c, 0, 53, 0
1, 140141, Note_on_c, 0, 64, 0
1, 140147, Note_on_c, 9, 51, 64
1, 140151, Note_on_c, 9, 44, 85
1, 140153, Note_on_c, 0, 84, 0
1, 140157, Note_on_c, 0, 57, 0
1, 140161, Note_on_c, 0, 72, 0
1, 140161, Note_on_c, 0, 60, 0
1, 140169, Note_on_c, 0, 79, 0
1, 140197, Note_on_c, 0, 53, 57
1, 140197, Note_on_c, 0, 64, 62
1, 140197, Note_on_c, 0, 84, 75
1, 140197, Note_on_c, 0, 60, 68
1, 140197, Note_on_c, 0, 72, 75
1, 140197, Note_on_c, 0, 57, 71
1, 140205, Note_on_c, 0, 79, 94
1, 140281, Note_on_c, 9, 44, 0
1, 140317, Note_on_c, 0, 64, 0
1, 140321, Note_on_c, 0, 53, 0
1, 140341, Note_on_c, 0, 72, 0
1, 140341, Note_on_c, 0, 84, 0
1, 140341, Note_on_c, 0, 57, 0
1, 140341, Note_on_c, 0, 60, 0
1, 140345, Note_on_c, 0, 79, 0
1, 140371, Note_on_c, 9, 51, 0
1, 140401, Note_on_c, 9, 35, 54
1, 140403, Note_on_c, 9, 51, 73
1, 140417, Note_on_c, 0, 53, 63
1, 140417, Note_on_c, 0, 60, 65
1, 140417, Note_on_c, 0, 64, 73
1, 140417, Note_on_c, 0, 84, 83
1, 140417, Note_on_c, 0, 79, 92
1, 140417, Note_on_c, 0, 72, 85
1, 140417, Note_on_c, 0, 57, 67
1, 140417, Note_on_c, 1, 36, 56
1, 140439, Note_on_c, 9, 35, 0
1, 140471, Note_on_c, 9, 51, 0
1, 140473, Note_on_c, 1, 36, 0
1, 140485, Control_c, 0, 64, 0
1, 140497, Note_on_c, 0, 64, 0
1, 140509, Note_on_c, 0, 72, 0
1, 140517, Note_on_c, 0, 84, 0
1, 140517, Note_on_c, 0, 60, 0
1, 140517, Note_on_c, 0, 53, 0
1, 140521, Note_on_c, 0, 79, 0
1, 140521, Note_on_c, 0, 57, 0
1, 140531, Note_on_c, 9, 51, 56
1, 140537, Note_on_c, 1, 46, 87
1, 140597, Note_on_c, 1, 46, 0
1, 140663, Note_on_c, 9, 51, 0
1, 140777, Note_on_c, 1, 45, 75
1, 140787, Note_on_c, 9, 51, 119
1, 140823, Note_on_c, 9, 51, 0
1, 140881, Note_on_c, 1, 45, 0
1, 140905, Control_c, 0, 64, 127
1, 140915, Note_on_c, 9, 51, 75
1, 140919, Note_on_c, 9, 44, 84
1, 140921, Note_on_c, 1, 43, 63
1, 141041, Note_on_c, 9, 44, 0
1, 141077, Note_on_c, 1, 43, 0
1, 141123, Note_on_c, 9, 51, 0
1, 141149, Note_on_c, 1, 40, 68
1, 141157, Note_on_c, 0, 73, 61
1, 141161, Note_on_c, 0, 58, 63
1, 141161, Note_on_c, 0, 63, 55
1, 141161, Note_on_c, 1, 36, 32
1, 141165, Note_on_c, 0, 68, 58
1, 141171, Note_on_c, 9, 51, 64
1, 141193, Note_on_c, 1, 36, 0
1, 141203, Note_on_c, 9, 51, 0
1, 141209, Control_c, 0, 64, 0
1, 141245, Note_on_c, 1, 29, 0
1, 141249, Note_on_c, 0, 58, 0
1, 141253, Note_on_c, 0, 73, 0
1, 141257, Note_on_c, 1, 40, 0
1, 141269, Note_on_c, 0, 63, 0
1, 141269, Note_on_c, 0, 68, 0
1, 141285, Note_on_c, 1, 41, 74
1, 141289, Note_on_c, 9, 35, 36
1, 141299, Note_on_c, 9, 51, 112
1, 141305, Note_on_c, 0, 72, 52
1, 141317, Note_on_c, 0, 67, 50
1, 141317, Note_on_c, 0, 57, 46
1, 141325, Note_on_c, 0, 62, 37
1, 141341, Note_on_c, 9, 35, 0
1, 141353, Control_c, 0, 64, 127
1, 141393, Note_on_c, 0, 67, 0
1, 141393, Note_on_c, 0, 72, 0
1, 141477, Note_on_c, 0, 62, 0
1, 141549, Note_on_c, 0, 53, 44
1, 141553, Note_on_c, 0, 60, 60
1, 141553, Note_on_c, 0, 69, 60
1, 141561, Note_on_c, 0, 64, 56
1, 141591, Note_on_c, 9, 51, 0
1, 141613, Control_c, 0, 64, 0
1, 141621, Note_on_c, 0, 53, 0
1, 141641, Note_on_c, 0, 69, 0
1, 141661, Note_on_c, 0, 60, 0
1, 141661, Note_on_c, 0, 64, 0
1, 141661, Control_c, 0, 64, 127
1, 141683, Note_on_c, 9, 51, 96
1, 141687, Note_on_c, 9, 44, 89
1, 141689, Note_on_c, 0, 53, 49
1, 141693, Note_on_c, 0, 69, 60
1, 141705, Note_on_c, 0, 60, 58
1, 141709, Note_on_c, 0, 64, 63
1, 141757, Note_on_c, 0, 57, 0
1, 141793, Note_on_c, 9, 44, 0
1, 141797, Note_on_c, 0, 53, 0
1, 141809, Note_on_c, 0, 60, 0
1, 141821, Note_on_c, 0, 69, 0
1, 141821, Note_on_c, 0, 64, 0
1, 141897, Note_on_c, 9, 51, 0
1, 141933, Note_on_c, 0, 69, 73
1, 141933, Note_on_c, 0, 53, 59
1, 141937, Note_on_c, 0, 64, 72
1, 141937, Note_on_c, 1, 36, 64
1, 141939, Note_on_c, 9, 51, 68
1, 141941, Note_on_c, 0, 60, 64
1, 141953, Note_on_c, 9, 35, 36
1, 141981, Note_on_c, 9, 51, 0
1, 141985, Note_on_c, 9, 35, 0
1, 141997, Note_on_c, 0, 60, 0
1, 142005, Note_on_c, 0, 53, 0
1, 142009, Note_on_c, 0, 69, 0
1, 142017, Note_on_c, 0, 64, 0
1, 142017, Control_c, 0, 64, 0
1, 142045, Note_on_c, 1, 36, 0
1, 142065, Note_on_c, 1, 34, 75
1, 142065, Note_on_c, 9, 51, 87
1, 142069, Note_on_c, 0, 46, 68
1, 142081, Note_on_c, 0, 57, 63
1, 142081, Note_on_c, 0, 65, 75
1, 142081, Note_on_c, 0, 62, 85
1, 142081, Note_on_c, 0, 69, 76
1, 142093, Note_on_c, 1, 41, 0
1, 142097, Control_c, 0, 64, 127
1, 142245, Note_on_c, 0, 62, 0
1, 142253, Note_on_c, 0, 65, 0
1, 142257, Note_on_c, 0, 57, 0
1, 142261, Note_on_c, 0, 69, 0
1, 142277, Note_on_c, 0, 46, 0
1, 142323, Note_on_c, 9, 51, 0
1, 142409, Control_c, 0, 64, 0
1, 142451, Note_on_c, 9, 51, 96
1, 142455, Note_on_c, 9, 44, 99
1, 142457, Note_on_c, 0, 46, 75
1, 142457, Note_on_c, 0, 70, 94
1, 142457, Note_on_c, 0, 65, 89
1, 142457, Note_on_c, 0, 62, 88
1, 142457, Note_on_c, 0, 56, 81
1, 142477, Control_c, 0, 64, 127
1, 142585, Note_on_c, 9, 44, 0
1, 142605, Note_on_c, 0, 56, 0
1, 142613, Note_on_c, 0, 65, 0
1, 142617, Note_on_c, 0, 62, 0
1, 142633, Note_on_c, 0, 70, 0
1, 142637, Note_on_c, 0, 46, 0
1, 142659, Note_on_c, 9, 51, 0
1, 142707, Note_on_c, 9, 51, 56
1, 142765, Control_c, 0, 64, 0
1, 142787, Note_on_c, 9, 51, 0
1, 142821, Note_on_c, 1, 34, 0
1, 142833, Note_on_c, 0, 72, 96
1, 142833, Note_on_c, 0, 67, 89
1, 142833, Note_on_c, 0, 45, 79
1, 142833, Note_on_c, 0, 60, 98
1, 142835, Note_on_c, 9, 51, 68
1, 142835, Note_on_c, 9, 35, 29
1, 142841, Note_on_c, 0, 55, 72
1, 142841, Note_on_c, 1, 33, 84
1, 142849, Control_c, 0, 64, 127
1, 142877, Note_on_c, 9, 35, 0
1, 142897, Note_on_c, 0, 45, 0
1, 142897, Note_on_c, 0, 60, 0
1, 142921, Note_on_c, 0, 55, 0
1, 142961, Note_on_c, 0, 67, 0
1, 142977, Note_on_c, 0, 72, 0
1, 143059, Note_on_c, 9, 51, 0
1, 143091, Note_on_c, 9, 51, 57
1, 143111, Note_on_c, 9, 51, 0
1, 143177, Control_c, 0, 64, 0
1, 143217, Note_on_c, 0, 84, 115
1, 143217, Note_on_c, 0, 64, 94
1, 143217, Note_on_c, 0, 55, 76
1, 143217, Note_on_c, 0, 79, 102
1, 143217, Note_on_c, 0, 72, 115
1, 143219, Note_on_c, 0, 57, 68
1, 143219, Note_on_c, 9, 51, 127
1, 143223, Note_on_c, 9, 44, 98
1, 143225, Note_on_c, 0, 60, 72
1, 143237, Note_on_c, 0, 82, 30
1, 143253, Control_c, 0, 64, 127
1, 143261, Note_on_c, 0, 82, 0
1, 143361, Note_on_c, 1, 40, 63
1, 143369, Note_on_c, 9, 44, 0
1, 143377, Note_on_c, 1, 33, 0
1, 143425, Note_on_c, 1, 40, 0
1, 143429, Note_on_c, 0, 57, 0
1, 143433, Note_on_c, 0, 55, 0
1, 143441, Note_on_c, 0, 64, 0
1, 143453, Note_on_c, 0, 60, 0
1, 143469, Note_on_c, 1, 37, 79
1, 143479, Note_on_c, 9, 51, 0
1, 143481, Note_on_c, 0, 72, 0
1, 143489, Note_on_c, 0, 79, 0
1, 143493, Note_on_c, 0, 84, 0
1, 143577, Control_c, 0, 64, 0
1, 143585, Note_on_c, 1, 37, 0
1, 143597, Note_on_c, 1, 38, 81
1, 143603, Note_on_c, 9, 51, 117
1, 143603, Note_on_c, 9, 34, 31
1, 143609, Note_on_c, 0, 54, 80
1, 143609, Note_on_c, 0, 65, 98
1, 143613, Note_on_c, 0, 84, 117
1, 143613, Note_on_c, 0, 60, 74
1, 143613, Note_on_c, 0, 77, 120
1, 143613, Note_on_c, 0, 58, 64
1, 143613, Note_on_c, 0, 72, 111
1, 143651, Note_on_c, 9, 34, 0
1, 143677, Control_c, 0, 64, 127
1, 143827, Note_on_c, 9, 51, 0
1, 143849, Note_on_c, 0, 58, 0
1, 143853, Note_on_c, 0, 65, 0
1, 143853, Note_on_c, 0, 72, 0
1, 143857, Note_on_c, 0, 60, 0
1, 143859, Note_on_c, 9, 51, 36
1, 143865, Note_on_c, 0, 77, 0
1, 143869, Note_on_c, 0, 54, 0
1, 143873, Note_on_c, 0, 84, 0
1, 143881, Note_on_c, 9, 34, 29
1, 143913, Note_on_c, 9, 34, 0
1, 143955, Note_on_c, 9, 51, 0
1, 143961, Control_c, 0, 64, 0
1, 143977, Note_on_c, 1, 38, 0
1, 143985, Note_on_c, 1, 32, 85
1, 143987, Note_on_c, 0, 54, 78
1, 143987, Note_on_c, 9, 51, 63
1, 143989, Note_on_c, 0, 65, 84
1, 143991, Note_on_c, 0, 60, 72
1, 143991, Note_on_c, 9, 44, 91
1, 143993, Note_on_c, 0, 84, 99
1, 143993, Note_on_c, 0, 77, 115
1, 143993, Note_on_c, 0, 58, 62
1, 143997, Note_on_c, 0, 72, 92
1, 144001, Control_c, 0, 64, 127
1, 144085, Note_on_c, 0, 65, 0
1, 144105, Note_on_c, 0, 60, 0
1, 144115, Note_on_c, 9, 51, 0
1, 144133, Note_on_c, 0, 58, 0
1, 144169, Note_on_c, 0, 54, 0
1, 144185, Note_on_c, 0, 72, 0
1, 144193, Note_on_c, 9, 44, 0
1, 144217, Note_on_c, 0, 77, 0
1, 144221, Note_on_c, 0, 84, 0
1, 144225, Note_on_c, 9, 34, 43
1, 144243, Note_on_c, 9, 51, 126
1, 144309, Control_c, 0, 64, 0
1, 144325, Note_on_c, 1, 32, 0
1, 144329, Note_on_c, 9, 34, 0
1, 144343, Note_on_c, 9, 35, 52
1, 144343, Note_on_c, 9, 57, 29
1, 144357, Note_on_c, 1, 31, 84
1, 144377, Note_on_c, 0, 84, 122
1, 144377, Note_on_c, 0, 77, 117
1, 144377, Note_on_c, 0, 72, 98
1, 144377, Note_on_c, 0, 58, 82
1, 144377, Note_on_c, 0, 62, 102
1, 144377, Note_on_c, 0, 57, 87
1, 144385, Note_on_c, 0, 53, 82
1, 144389, Note_on_c, 0, 74, 76
1, 144389, Note_on_c, 0, 78, 49
1, 144389, Note_on_c, 0, 81, 58
1, 144401, Note_on_c, 9, 57, 0
1, 144405, Note_on_c, 0, 74, 0
1, 144409, Note_on_c, 9, 35, 0
1, 144409, Note_on_c, 0, 72, 0
1, 144409, Note_on_c, 0, 81, 0
1, 144417, Note_on_c, 0, 78, 0
1, 144417, Control_c, 0, 64, 24
1, 144421, Control_c, 0, 64, 127
1, 144449, Note_on_c, 0, 57, 0
1, 144457, Note_on_c, 0, 77, 0
1, 144461, Note_on_c, 0, 62, 0
1, 144469, Note_on_c, 0, 58, 0
1, 144477, Note_on_c, 0, 84, 0
1, 144489, Note_on_c, 0, 72, 57
1, 144521, Note_on_c, 0, 57, 31
1, 144521, Note_on_c, 0, 58, 46
1, 144525, Note_on_c, 0, 72, 0
1, 144529, Note_on_c, 0, 53, 0
1, 144529, Note_on_c, 0, 62, 51
1, 144545, Note_on_c, 0, 84, 45
1, 144549, Note_on_c, 0, 57, 0
1, 144561, Note_on_c, 0, 77, 30
1, 144565, Note_on_c, 0, 58, 0
1, 144589, Note_on_c, 0, 62, 0
1, 144589, Note_on_c, 0, 77, 0
1, 144597, Note_on_c, 0, 53, 45
1, 144601, Note_on_c, 0, 84, 0
1, 144601, Note_on_c, 9, 51, 0
1, 144601, Note_on_c, 0, 72, 56
1, 144605, Note_on_c, 0, 57, 55
1, 144609, Control_c, 0, 64, 0
1, 144627, Note_on_c, 9, 51, 40
1, 144629, Note_on_c, 0, 53, 0
1, 144649, Note_on_c, 0, 58, 45
1, 144653, Note_on_c, 0, 57, 0
1, 144653, Note_on_c, 0, 72, 0
1, 144661, Note_on_c, 0, 62, 49
1, 144673, Note_on_c, 0, 84, 55
1, 144689, Note_on_c, 0, 58, 0
1, 144693, Note_on_c, 0, 77, 28
1, 144693, Control_c, 0, 64, 127
1, 144711, Note_on_c, 9, 51, 0
1, 144713, Note_on_c, 0, 77, 0
1, 144721, Note_on_c, 0, 62, 0
1, 144721, Note_on_c, 0, 53, 50
1, 144725, Note_on_c, 0, 84, 0
1, 144725, Note_on_c, 0, 72, 56
1, 144729, Note_on_c, 0, 57, 48
1, 144755, Note_on_c, 9, 51, 91
1, 144759, Note_on_c, 0, 53, 0
1, 144759, Note_on_c, 9, 44, 94
1, 144781, Note_on_c, 0, 72, 0
1, 144785, Note_on_c, 0, 58, 42
1, 144797, Note_on_c, 0, 62, 38
1, 144797, Note_on_c, 0, 84, 40
1, 144809, Note_on_c, 0, 57, 0
1, 144809, Note_on_c, 0, 77, 31
1, 144821, Note_on_c, 0, 84, 0
1, 144833, Note_on_c, 0, 77, 0
1, 144837, Note_on_c, 0, 72, 52
1, 144841, Note_on_c, 0, 58, 0
1, 144869, Note_on_c, 0, 62, 0
1, 144885, Note_on_c, 0, 57, 39
1, 144889, Note_on_c, 0, 72, 0
1, 144909, Note_on_c, 0, 77, 45
1, 144937, Note_on_c, 0, 77, 0
1, 144937, Note_on_c, 0, 58, 41
1, 144945, Note_on_c, 9, 44, 0
1, 144953, Note_on_c, 0, 57, 0
1, 144953, Note_on_c, 0, 62, 37
1, 144961, Note_on_c, 0, 72, 48
1, 144969, Note_on_c, 0, 58, 0
1, 144997, Note_on_c, 1, 32, 42
1, 145017, Note_on_c, 0, 62, 0
1, 145017, Note_on_c, 0, 84, 24
1, 145017, Note_on_c, 0, 53, 39
1, 145017, Note_on_c, 9, 35, 50
1, 145025, Note_on_c, 0, 72, 0
1, 145025, Note_on_c, 0, 57, 50
1, 145033, Note_on_c, 9, 51, 0
1, 145033, Note_on_c, 0, 77, 59
1, 145041, Note_on_c, 0, 84, 0
1, 145043, Note_on_c, 9, 35, 0
1, 145049, Note_on_c, 0, 53, 0
1, 145069, Note_on_c, 0, 57, 0
1, 145077, Control_c, 0, 64, 0
1, 145081, Note_on_c, 0, 77, 0
1, 145101, Note_on_c, 1, 31, 0
1, 145109, Note_on_c, 0, 62, 56
1, 145117, Note_on_c, 1, 32, 0
1, 145117, Note_on_c, 0, 58, 33
1, 145117, Note_on_c, 0, 82, 61
1, 145125, Note_on_c, 0, 70, 49
1, 145133, Note_on_c, 1, 38, 85
1, 145139, Note_on_c, 9, 51, 99
1, 145145, Note_on_c, 0, 77, 37
1, 145177, Control_c, 0, 64, 127
1, 145273, Note_on_c, 0, 62, 0
1, 145317, Note_on_c, 0, 58, 0
1, 145337, Note_on_c, 0, 77, 0
1, 145381, Note_on_c, 0, 70, 0
1, 145459, Note_on_c, 9, 51, 0
1, 145509, Note_on_c, 0, 62, 36
1, 145509, Note_on_c, 0, 58, 42
1, 145513, Note_on_c, 0, 70, 1
1, 145517, Note_on_c, 0, 57, 31
1, 145523, Note_on_c, 9, 51, 75
1, 145527, Note_on_c, 9, 44, 98
1, 145633, Note_on_c, 0, 57, 0
1, 145673, Note_on_c, 0, 62, 0
1, 145693, Note_on_c, 0, 58, 0
1, 145697, Note_on_c, 9, 44, 0
1, 145749, Note_on_c, 0, 82, 0
1, 145761, Note_on_c, 0, 70, 0
1, 145761, Note_on_c, 1, 37, 76
1, 145769, Note_on_c, 9, 51, 0
1, 145773, Note_on_c, 0, 58, 54
1, 145777, Note_on_c, 0, 62, 57
1, 145779, Note_on_c, 9, 51, 59
1, 145781, Note_on_c, 0, 52, 52
1, 145785, Note_on_c, 1, 38, 0
1, 145789, Control_c, 0, 64, 0
1, 145875, Note_on_c, 9, 51, 0
1, 145889, Note_on_c, 1, 37, 0
1, 145901, Note_on_c, 1, 36, 83
1, 145907, Note_on_c, 9, 51, 92
1, 145921, Control_c, 0, 64, 127
1, 145985, Note_on_c, 0, 62, 0
1, 146013, Note_on_c, 0, 58, 0
1, 146037, Note_on_c, 0, 52, 0
1, 146165, Note_on_c, 0, 60, 52
1, 146169, Note_on_c, 0, 58, 52
1, 146173, Note_on_c, 0, 52, 49
1, 146227, Note_on_c, 9, 51, 0
1, 146285, Note_on_c, 0, 84, 77
1, 146289, Note_on_c, 0, 72, 75
1, 146291, Note_on_c, 9, 51, 106
1, 146295, Note_on_c, 9, 44, 99
1, 146305, Note_on_c, 0, 60, 0
1, 146325, Note_on_c, 0, 52, 0
1, 146325, Note_on_c, 0, 58, 0
1, 146389, Note_on_c, 0, 72, 0
1, 146393, Note_on_c, 0, 84, 0
1, 146449, Note_on_c, 9, 44, 0
1, 146537, Note_on_c, 0, 84, 99
1, 146537, Note_on_c, 0, 72, 94
1, 146547, Note_on_c, 9, 51, 26
1, 146561, Note_on_c, 9, 35, 35
1, 146563, Note_on_c, 9, 51, 0
1, 146599, Note_on_c, 9, 35, 0
1, 146601, Note_on_c, 0, 72, 0
1, 146617, Note_on_c, 0, 84, 0
1, 146653, Control_c, 0, 64, 88
1, 146657, Control_c, 0, 64, 0
1, 146663, Note_on_c, 9, 51, 0
1, 146673, Note_on_c, 1, 34, 85
1, 146675, Note_on_c, 9, 51, 64
1, 146685, Note_on_c, 0, 46, 77
1, 146693, Note_on_c, 0, 84, 94
1, 146697, Note_on_c, 0, 72, 82
1, 146705, Note_on_c, 1, 36, 0
1, 146753, Note_on_c, 0, 46, 0
1, 146765, Control_c, 0, 64, 127
1, 146949, Note_on_c, 0, 72, 0
1, 146953, Note_on_c, 0, 84, 0
1, 146995, Note_on_c, 9, 51, 0
1, 147059, Note_on_c, 9, 51, 106
1, 147063, Note_on_c, 9, 44, 89
1, 147069, Note_on_c, 0, 65, 62
1, 147073, Note_on_c, 0, 60, 43
1, 147073, Note_on_c, 0, 84, 92
1, 147073, Note_on_c, 0, 56, 56
1, 147077, Note_on_c, 0, 72, 84
1, 147077, Note_on_c, 0, 61, 47
1, 147209, Note_on_c, 0, 65, 0
1, 147217, Note_on_c, 0, 61, 0
1, 147221, Note_on_c, 0, 60, 0
1, 147233, Note_on_c, 9, 44, 0
1, 147249, Note_on_c, 0, 56, 0
1, 147281, Note_on_c, 0, 72, 0
1, 147305, Note_on_c, 9, 51, 0
1, 147315, Note_on_c, 9, 51, 68
1, 147319, Note_on_c, 9, 35, 47
1, 147333, Note_on_c, 0, 84, 0
1, 147383, Note_on_c, 9, 51, 0
1, 147409, Note_on_c, 1, 34, 0
1, 147415, Note_on_c, 9, 35, 0
1, 147429, Control_c, 0, 64, 0
1, 147437, Note_on_c, 1, 33, 82
1, 147443, Note_on_c, 9, 51, 91
1, 147465, Note_on_c, 0, 60, 66
1, 147465, Note_on_c, 0, 84, 90
1, 147469, Note_on_c, 0, 72, 94
1, 147469, Note_on_c, 0, 65, 73
1, 147469, Note_on_c, 0, 61, 58
1, 147469, Note_on_c, 0, 55, 68
1, 147469, Note_on_c, 0, 81, 75
1, 147469, Note_on_c, 0, 77, 81
1, 147475, Note_on_c, 9, 35, 40
1, 147481, Note_on_c, 0, 58, 45
1, 147497, Control_c, 0, 64, 127
1, 147543, Note_on_c, 9, 35, 0
1, 147569, Note_on_c, 0, 72, 0
1, 147581, Note_on_c, 0, 77, 0
1, 147601, Note_on_c, 0, 65, 0
1, 147609, Note_on_c, 0, 81, 0
1, 147613, Note_on_c, 0, 55, 0
1, 147613, Note_on_c, 0, 61, 0
1, 147617, Note_on_c, 0, 58, 0
1, 147621, Note_on_c, 0, 60, 0
1, 147621, Note_on_c, 0, 84, 0
1, 147717, Note_on_c, 0, 89, 111
1, 147717, Note_on_c, 0, 65, 92
1, 147721, Note_on_c, 0, 77, 111
1, 147721, Note_on_c, 0, 60, 76
1, 147721, Note_on_c, 0, 61, 69
1, 147725, Note_on_c, 0, 55, 72
1, 147725, Note_on_c, 0, 84, 81
1, 147737, Note_on_c, 0, 58, 43
1, 147741, Note_on_c, 0, 84, 0
1, 147767, Note_on_c, 9, 51, 0
1, 147769, Note_on_c, 0, 58, 0
1, 147793, Note_on_c, 0, 77, 0
1, 147809, Note_on_c, 0, 55, 0
1, 147809, Note_on_c, 0, 65, 0
1, 147817, Note_on_c, 0, 89, 0
1, 147825, Note_on_c, 0, 60, 0
1, 147825, Note_on_c, 9, 51, 105
1, 147829, Note_on_c, 0, 61, 0
1, 147831, Note_on_c, 9, 44, 91
1, 147861, Control_c, 0, 64, 0
1, 147861, Note_on_c, 0, 93, 107
1, 147865, Note_on_c, 0, 88, 90
1, 147865, Note_on_c, 0, 81, 99
1, 147865, Note_on_c, 0, 60, 79
1, 147869, Note_on_c, 0, 61, 69
1, 147869, Note_on_c, 0, 65, 85
1, 147873, Control_c, 0, 64, 127
1, 147873, Note_on_c, 0, 55, 72
1, 147881, Note_on_c, 0, 58, 46
1, 147973, Note_on_c, 0, 81, 0
1, 147985, Note_on_c, 9, 44, 0
1, 147989, Note_on_c, 0, 55, 0
1, 147993, Note_on_c, 0, 88, 0
1, 147993, Note_on_c, 0, 65, 0
1, 148001, Note_on_c, 0, 61, 0
1, 148001, Note_on_c, 0, 60, 0
1, 148005, Note_on_c, 0, 58, 0
1, 148009, Note_on_c, 0, 93, 0
1, 148067, Note_on_c, 9, 35, 36
1, 148083, Note_on_c, 9, 51, 59
1, 148087, Note_on_c, 9, 51, 0
1, 148105, Note_on_c, 9, 35, 0
1, 148105, Control_c, 0, 64, 0
1, 148105, Note_on_c, 0, 96, 117
1, 148109, Note_on_c, 0, 91, 115
1, 148109, Note_on_c, 0, 84, 99
1, 148109, Note_on_c, 0, 65, 115
1, 148109, Note_on_c, 0, 60, 83
1, 148109, Note_on_c, 0, 61, 80
1, 148109, Note_on_c, 0, 55, 82
1, 148109, Note_on_c, 0, 58, 61
1, 148129, Note_on_c, 0, 86, 38
1, 148153, Note_on_c, 0, 86, 0
1, 148183, Note_on_c, 9, 51, 0
1, 148205, Note_on_c, 1, 40, 85
1, 148211, Note_on_c, 9, 51, 85
1, 148217, Note_on_c, 1, 33, 0
1, 148217, Control_c, 0, 64, 127
1, 148245, Note_on_c, 0, 96, 0
1, 148261, Note_on_c, 0, 55, 0
1, 148265, Note_on_c, 0, 91, 0
1, 148265, Note_on_c, 0, 84, 0
1, 148265, Note_on_c, 0, 65, 0
1, 148273, Note_on_c, 0, 61, 0
1, 148273, Control_c, 0, 64, 0
1, 148277, Note_on_c, 0, 58, 0
1, 148285, Note_on_c, 0, 60, 0
1, 148345, Note_on_c, 0, 93, 86
1, 148349, Note_on_c, 0, 87, 87
1, 148349, Note_on_c, 0, 81, 81
1, 148353, Note_on_c, 0, 60, 75
1, 148357, Note_on_c, 0, 61, 68
1, 148357, Note_on_c, 0, 65, 85
1, 148357, Note_on_c, 0, 55, 75
1, 148361, Control_c, 0, 64, 127
1, 148365, Note_on_c, 0, 58, 50
1, 148433, Note_on_c, 0, 87, 0
1, 148433, Note_on_c, 0, 88, 56
1, 148461, Note_on_c, 0, 90, 24
1, 148485, Note_on_c, 0, 90, 0
1, 148489, Note_on_c, 1, 40, 0
1, 148489, Note_on_c, 1, 36, 52
1, 148493, Note_on_c, 0, 93, 0
1, 148501, Note_on_c, 0, 55, 0
1, 148501, Note_on_c, 0, 65, 0
1, 148501, Note_on_c, 0, 88, 0
1, 148509, Note_on_c, 0, 81, 0
1, 148513, Note_on_c, 0, 58, 0
1, 148521, Note_on_c, 0, 61, 0
1, 148525, Note_on_c, 0, 60, 0
1, 148533, Control_c, 0, 64, 0
1, 148547, Note_on_c, 9, 51, 0
1, 148549, Note_on_c, 1, 36, 0
1, 148585, Note_on_c, 0, 89, 84
1, 148589, Note_on_c, 0, 60, 54
1, 148589, Note_on_c, 0, 77, 74
1, 148589, Note_on_c, 0, 61, 60
1, 148589, Note_on_c, 0, 65, 72
1, 148589, Note_on_c, 1, 37, 74
1, 148593, Note_on_c, 0, 85, 70
1, 148595, Note_on_c, 0, 55, 63
1, 148595, Note_on_c, 9, 51, 98
1, 148599, Note_on_c, 9, 44, 87
1, 148605, Control_c, 0, 64, 127
1, 148613, Note_on_c, 0, 85, 0
1, 148613, Note_on_c, 0, 58, 34
1, 148661, Note_on_c, 0, 86, 35
1, 148677, Note_on_c, 0, 65, 0
1, 148697, Note_on_c, 0, 86, 0
1, 148697, Note_on_c, 0, 55, 0
1, 148705, Note_on_c, 0, 60, 0
1, 148709, Note_on_c, 0, 77, 0
1, 148713, Note_on_c, 0, 89, 0
1, 148713, Note_on_c, 0, 61, 0
1, 148721, Note_on_c, 0, 58, 0
1, 148721, Note_on_c, 9, 44, 0
1, 148821, Control_c, 0, 64, 0
1, 148837, Note_on_c, 0, 86, 66
1, 148841, Note_on_c, 0, 82, 57
1, 148841, Note_on_c, 1, 34, 41
1, 148845, Note_on_c, 0, 65, 72
1, 148845, Note_on_c, 0, 54, 63
1, 148845, Note_on_c, 0, 74, 55
1, 148851, Note_on_c, 9, 51, 43
1, 148855, Note_on_c, 9, 51, 0
1, 148861, Note_on_c, 0, 60, 45
1, 148925, Note_on_c, 1, 37, 0
1, 148945, Control_c, 0, 64, 127
1, 148947, Note_on_c, 9, 51, 0
1, 148961, Note_on_c, 1, 34, 0
1, 148961, Note_on_c, 0, 86, 0
1, 148973, Note_on_c, 1, 38, 67
1, 148979, Note_on_c, 9, 51, 57
1, 148981, Note_on_c, 0, 74, 0
1, 148985, Note_on_c, 0, 82, 0
1, 148985, Note_on_c, 0, 65, 0
1, 148993, Note_on_c, 9, 51, 0
1, 149005, Note_on_c, 0, 60, 0
1, 149009, Note_on_c, 0, 54, 0
1, 149073, Note_on_c, 0, 84, 56
1, 149073, Note_on_c, 0, 72, 52
1, 149073, Note_on_c, 0, 54, 52
1, 149073, Note_on_c, 9, 35, 40
1, 149077, Note_on_c, 0, 81, 61
1, 149077, Note_on_c, 0, 65, 60
1, 149089, Note_on_c, 0, 60, 49
1, 149097, Note_on_c, 9, 35, 0
1, 149189, Note_on_c, 0, 81, 0
1, 149193, Note_on_c, 0, 72, 0
1, 149221, Note_on_c, 0, 65, 0
1, 149229, Note_on_c, 0, 84, 0
1, 149245, Note_on_c, 1, 37, 42
1, 149253, Note_on_c, 0, 60, 0
1, 149261, Note_on_c, 0, 54, 0
1, 149289, Control_c, 0, 64, 0
1, 149317, Note_on_c, 1, 37, 0
1, 149321, Note_on_c, 0, 54, 49
1, 149329, Note_on_c, 0, 74, 55
1, 149329, Note_on_c, 0, 82, 58
1, 149333, Note_on_c, 0, 64, 47
1, 149337, Control_c, 0, 64, 127
1, 149337, Note_on_c, 1, 50, 66
1, 149341, Note_on_c, 0, 60, 43
1, 149345, Note_on_c, 0, 77, 38
1, 149363, Note_on_c, 9, 51, 64
1, 149367, Note_on_c, 9, 44, 91
1, 149421, Note_on_c, 0, 77, 0
1, 149429, Note_on_c, 0, 82, 0
1, 149465, Note_on_c, 0, 64, 0
1, 149465, Note_on_c, 0, 60, 0
1, 149469, Note_on_c, 0, 74, 0
1, 149469, Note_on_c, 0, 54, 0
1, 149505, Note_on_c, 9, 44, 0
1, 149549, Control_c, 0, 64, 0
1, 149573, Note_on_c, 0, 54, 52
1, 149573, Note_on_c, 0, 80, 58
1, 149577, Note_on_c, 0, 75, 57
1, 149581, Note_on_c, 0, 65, 52
1, 149581, Note_on_c, 0, 72, 47
1, 149593, Note_on_c, 0, 60, 48
1, 149625, Note_on_c, 1, 37, 36
1, 149649, Note_on_c, 1, 38, 0
1, 149669, Control_c, 0, 64, 127
1, 149689, Note_on_c, 9, 51, 0
1, 149697, Note_on_c, 1, 37, 0
1, 149705, Note_on_c, 0, 72, 0
1, 149713, Note_on_c, 0, 65, 0
1, 149737, Note_on_c, 0, 75, 0
1, 149737, Note_on_c, 1, 54, 62
1, 149745, Note_on_c, 1, 50, 0
1, 149747, Note_on_c, 9, 51, 98
1, 149753, Note_on_c, 0, 80, 0
1, 149761, Note_on_c, 0, 60, 0
1, 149769, Note_on_c, 0, 54, 0
1, 149821, Note_on_c, 0, 54, 48
1, 149829, Note_on_c, 0, 64, 49
1, 149829, Note_on_c, 0, 70, 49
1, 149833, Note_on_c, 0, 77, 54
1, 149837, Note_on_c, 0, 74, 55
1, 149841, Note_on_c, 0, 60, 41
1, 149897, Note_on_c, 0, 77, 0
1, 149901, Note_on_c, 0, 74, 0
1, 149901, Note_on_c, 0, 64, 0
1, 149937, Note_on_c, 0, 70, 0
1, 149981, Note_on_c, 0, 60, 0
1, 149993, Note_on_c, 0, 54, 0
1, 149997, Note_on_c, 1, 41, 53
1, 150067, Note_on_c, 9, 51, 0
1, 150073, Note_on_c, 1, 41, 0
1, 150081, Control_c, 0, 64, 0
1, 150093, Note_on_c, 0, 54, 57
1, 150097, Control_c, 0, 64, 127
1, 150105, Note_on_c, 0, 70, 51
1, 150109, Note_on_c, 0, 65, 37
1, 150113, Note_on_c, 0, 74, 45
1, 150113, Note_on_c, 0, 60, 39
1, 150117, Note_on_c, 1, 42, 62
1, 150131, Note_on_c, 9, 51, 59
1, 150135, Note_on_c, 9, 44, 98
1, 150145, Note_on_c, 0, 60, 0
1, 150245, Note_on_c, 0, 54, 0
1, 150247, Note_on_c, 9, 44, 0
1, 150249, Note_on_c, 0, 70, 0
1, 150253, Note_on_c, 0, 65, 0
1, 150297, Note_on_c, 0, 74, 0
1, 150345, Note_on_c, 9, 51, 0
1, 150357, Control_c, 0, 64, 0
1, 150373, Note_on_c, 0, 58, 48
1, 150377, Note_on_c, 0, 62, 39
1, 150377, Note_on_c, 0, 72, 47
1, 150377, Note_on_c, 0, 53, 37
1, 150377, Note_on_c, 0, 69, 56
1, 150377, Note_on_c, 0, 65, 42
1, 150381, Note_on_c, 1, 39, 40
1, 150385, Note_on_c, 0, 57, 45
1, 150387, Note_on_c, 9, 51, 75
1, 150409, Note_on_c, 9, 35, 28
1, 150449, Control_c, 0, 64, 127
1, 150455, Note_on_c, 9, 51, 0
1, 150465, Note_on_c, 1, 42, 0
1, 150467, Note_on_c, 9, 35, 0
1, 150477, Note_on_c, 1, 39, 0
1, 150497, Note_on_c, 1, 54, 0
1, 150501, Note_on_c, 1, 43, 77
1, 150509, Note_on_c, 0, 72, 0
1, 150515, Note_on_c, 9, 51, 66
1, 150517, Note_on_c, 0, 69, 0
1, 150529, Note_on_c, 0, 62, 0
1, 150529, Note_on_c, 9, 35, 24
1, 150545, Note_on_c, 0, 65, 0
1, 150545, Note_on_c, 0, 57, 0
1, 150553, Note_on_c, 0, 58, 0
1, 150609, Note_on_c, 0, 70, 25
1, 150641, Note_on_c, 0, 70, 0
1, 150689, Note_on_c, 0, 57, 59
1, 150701, Note_on_c, 0, 53, 0
1, 150711, Note_on_c, 9, 35, 0
1, 150729, Note_on_c, 0, 58, 60
1, 150749, Note_on_c, 1, 43, 0
1, 150753, Note_on_c, 0, 57, 0
1, 150757, Note_on_c, 1, 38, 79
1, 150761, Note_on_c, 0, 65, 63
1, 150761, Note_on_c, 0, 60, 68
1, 150761, Note_on_c, 0, 69, 54
1, 150761, Note_on_c, 0, 72, 57
1, 150761, Note_on_c, 0, 62, 63
1, 150803, Note_on_c, 9, 51, 0
1, 150807, Note_on_c, 9, 35, 31
1, 150821, Note_on_c, 0, 58, 0
1, 150839, Note_on_c, 9, 35, 0
1, 150845, Note_on_c, 0, 62, 0
1, 150853, Note_on_c, 0, 65, 0
1, 150861, Note_on_c, 0, 60, 0
1, 150861, Note_on_c, 0, 69, 0
1, 150861, Control_c, 0, 64, 0
1, 150869, Note_on_c, 0, 72, 0
1, 150899, Note_on_c, 9, 51, 64
1, 150903, Note_on_c, 9, 44, 84
1, 150913, Note_on_c, 0, 60, 48
1, 150917, Note_on_c, 0, 62, 48
1, 150929, Note_on_c, 0, 72, 42
1, 150929, Note_on_c, 0, 65, 48
1, 150929, Note_on_c, 0, 69, 48
1, 150953, Note_on_c, 0, 58, 24
1, 150977, Note_on_c, 0, 58, 0
1, 151045, Note_on_c, 0, 65, 0
1, 151049, Note_on_c, 9, 44, 0
1, 151053, Note_on_c, 0, 62, 0
1, 151057, Note_on_c, 0, 60, 0
1, 151061, Note_on_c, 0, 69, 0
1, 151061, Note_on_c, 0, 72, 0
1, 151081, Note_on_c, 9, 51, 0
1, 151085, Note_on_c, 0, 57, 43
1, 151121, Note_on_c, 0, 57, 0
1, 151121, Note_on_c, 0, 58, 43
1, 151121, Control_c, 0, 64, 127
1, 151155, Note_on_c, 9, 51, 82
1, 151169, Note_on_c, 0, 60, 54
1, 151169, Note_on_c, 0, 62, 57
1, 151173, Note_on_c, 0, 65, 54
1, 151173, Note_on_c, 0, 69, 46
1, 151177, Note_on_c, 0, 72, 45
1, 151189, Note_on_c, 0, 58, 0
1, 151219, Note_on_c, 9, 51, 0
1, 151229, Control_c, 0, 64, 0
1, 151241, Note_on_c, 0, 72, 0
1, 151241, Note_on_c, 0, 62, 0
1, 151249, Note_on_c, 0, 60, 0
1, 151249, Note_on_c, 0, 65, 0
1, 151253, Note_on_c, 1, 38, 0
1, 151269, Note_on_c, 0, 69, 0
1, 151269, Note_on_c, 0, 57, 42
1, 151277, Note_on_c, 1, 34, 66
1, 151283, Note_on_c, 9, 51, 47
1, 151293, Note_on_c, 0, 58, 49
1, 151297, Note_on_c, 0, 57, 0
1, 151333, Note_on_c, 0, 62, 45
1, 151333, Note_on_c, 0, 72, 47
1, 151337, Note_on_c, 0, 60, 48
1, 151341, Note_on_c, 0, 65, 43
1, 151341, Note_on_c, 0, 69, 40
1, 151357, Note_on_c, 0, 58, 0
1, 151365, Note_on_c, 1, 34, 0
1, 151457, Note_on_c, 0, 69, 0
1, 151465, Note_on_c, 0, 62, 0
1, 151477, Note_on_c, 0, 65, 0
1, 151481, Control_c, 0, 64, 127
1, 151505, Note_on_c, 0, 72, 0
1, 151511, Note_on_c, 9, 51, 0
1, 151533, Note_on_c, 1, 34, 60
1, 151539, Note_on_c, 9, 53, 64
1, 151541, Control_c, 0, 64, 0
1, 151557, Note_on_c, 0, 70, 59
1, 151557, Note_on_c, 0, 58, 54
1, 151561, Note_on_c, 0, 62, 43
1, 151565, Note_on_c, 0, 60, 0
1, 151569, Note_on_c, 0, 65, 43
1, 151605, Note_on_c, 1, 34, 0
1, 151619, Note_on_c, 9, 53, 0
1, 151653, Note_on_c, 1, 37, 64
1, 151667, Note_on_c, 9, 51, 78
1, 151671, Note_on_c, 9, 44, 91
1, 151673, Control_c, 0, 64, 127
1, 151745, Note_on_c, 1, 37, 0
1, 151765, Note_on_c, 0, 58, 0
1, 151815, Note_on_c, 9, 44, 0
1, 151815, Note_on_c, 9, 34, 66
1, 151853, Note_on_c, 9, 34, 0
1, 151861, Note_on_c, 0, 62, 0
1, 151865, Note_on_c, 0, 65, 0
1, 151913, Note_on_c, 1, 34, 57
1, 151993, Note_on_c, 9, 51, 0
1, 151993, Note_on_c, 0, 70, 0
1, 151997, Note_on_c, 1, 34, 0
1, 152029, Note_on_c, 1, 36, 68
1, 152037, Control_c, 0, 64, 0
1, 152049, Note_on_c, 0, 58, 45
1, 152049, Note_on_c, 0, 48, 42
1, 152051, Note_on_c, 9, 51, 84
1, 152061, Note_on_c, 0, 60, 42
1, 152061, Note_on_c, 0, 64, 44
1, 152065, Note_on_c, 0, 67, 32
1, 152085, Note_on_c, 0, 60, 0
1, 152085, Note_on_c, 0, 58, 0
1, 152093, Note_on_c, 0, 48, 0
1, 152105, Note_on_c, 0, 64, 0
1, 152113, Note_on_c, 0, 67, 0
1, 152313, Note_on_c, 0, 58, 50
1, 152317, Note_on_c, 0, 83, 72
1, 152325, Note_on_c, 0, 59, 60
1, 152329, Note_on_c, 0, 82, 48
1, 152349, Note_on_c, 0, 82, 0
1, 152353, Note_on_c, 0, 58, 0
1, 152375, Note_on_c, 9, 51, 0
1, 152385, Note_on_c, 0, 83, 0
1, 152389, Note_on_c, 0, 59, 0
1, 152435, Note_on_c, 9, 51, 75
1, 152439, Note_on_c, 9, 44, 99
1, 152453, Note_on_c, 0, 58, 41
1, 152457, Note_on_c, 9, 35, 17
1, 152469, Note_on_c, 0, 82, 37
1, 152541, Note_on_c, 0, 58, 0
1, 152557, Note_on_c, 0, 82, 0
1, 152561, Note_on_c, 9, 44, 0
1, 152611, Note_on_c, 9, 35, 0
1, 152643, Note_on_c, 9, 51, 0
1, 152689, Note_on_c, 0, 56, 57
1, 152689, Note_on_c, 9, 51, 75
1, 152705, Note_on_c, 0, 80, 49
1, 152707, Note_on_c, 9, 35, 26
1, 152739, Note_on_c, 9, 35, 0
1, 152743, Note_on_c, 9, 51, 0
1, 152761, Note_on_c, 0, 80, 0
1, 152777, Note_on_c, 0, 56, 0
1, 152817, Note_on_c, 1, 28, 98
1, 152819, Note_on_c, 9, 51, 87
1, 152821, Note_on_c, 0, 58, 49
1, 152829, Note_on_c, 0, 82, 52
1, 152837, Note_on_c, 1, 36, 0
1, 152869, Note_on_c, 0, 58, 0
1, 152881, Note_on_c, 0, 82, 0
1, 152941, Note_on_c, 0, 80, 53
1, 152949, Note_on_c, 0, 56, 40
1, 153013, Note_on_c, 0, 56, 0
1, 153025, Note_on_c, 0, 80, 0
1, 153061, Note_on_c, 0, 55, 49
1, 153061, Note_on_c, 0, 77, 57
1, 153123, Note_on_c, 9, 51, 0
1, 153129, Note_on_c, 0, 77, 0
1, 153145, Note_on_c, 0, 55, 0
1, 153203, Note_on_c, 9, 51, 73
1, 153205, Note_on_c, 0, 75, 45
1, 153207, Note_on_c, 9, 44, 96
1, 153261, Note_on_c, 0, 51, 24
1, 153309, Note_on_c, 0, 51, 0
1, 153377, Note_on_c, 9, 44, 0
1, 153427, Note_on_c, 9, 51, 0
1, 153449, Note_on_c, 0, 75, 0
1, 153459, Note_on_c, 9, 51, 75
1, 153461, Note_on_c, 0, 77, 62
1, 153463, Note_on_c, 9, 35, 24
1, 153473, Note_on_c, 0, 53, 44
1, 153505, Note_on_c, 9, 35, 0
1, 153511, Note_on_c, 9, 51, 0
1, 153513, Note_on_c, 0, 53, 0
1, 153577, Note_on_c, 1, 29, 74
1, 153581, Note_on_c, 1, 28, 0
1, 153585, Note_on_c, 9, 35, 33
1, 153587, Note_on_c, 9, 51, 77
1, 153601, Note_on_c, 0, 77, 0
1, 153629, Note_on_c, 1, 29, 0
1, 153785, Note_on_c, 9, 35, 0
1, 153825, Note_on_c, 1, 33, 102
1, 153837, Note_on_c, 0, 45, 52
1, 153841, Note_on_c, 0, 80, 66
1, 153841, Note_on_c, 0, 75, 61
1, 153845, Note_on_c, 0, 69, 57
1, 153859, Note_on_c, 9, 35, 36
1, 153877, Note_on_c, 0, 33, 16
1, 153881, Note_on_c, 9, 51, 0
1, 153885, Note_on_c, 9, 35, 0
1, 153941, Control_c, 0, 64, 127
1, 153971, Note_on_c, 9, 51, 87
1, 153975, Note_on_c, 9, 44, 98
1, 153997, Note_on_c, 0, 33, 0
1, 154093, Note_on_c, 0, 45, 0
1, 154135, Note_on_c, 9, 44, 0
1, 154145, Note_on_c, 0, 80, 0
1, 154161, Note_on_c, 0, 75, 0
1, 154165, Note_on_c, 0, 69, 0
1, 154185, Note_on_c, 9, 51, 0
1, 154227, Note_on_c, 9, 51, 70
1, 154263, Note_on_c, 9, 51, 0
1, 154321, Control_c, 0, 64, 40
1, 154325, Control_c, 0, 64, 0
1, 154355, Note_on_c, 9, 51, 75
1, 154361, Note_on_c, 1, 33, 0
1, 154373, Note_on_c, 1, 34, 57
1, 154385, Note_on_c, 0, 46, 52
1, 154393, Note_on_c, 0, 77, 72
1, 154393, Note_on_c, 0, 34, 35
1, 154393, Note_on_c, 0, 65, 61
1, 154421, Note_on_c, 0, 34, 0
1, 154425, Note_on_c, 0, 46, 0
1, 154441, Note_on_c, 0, 65, 0
1, 154453, Note_on_c, 0, 77, 0
1, 154513, Note_on_c, 0, 74, 52
1, 154535, Note_on_c, 9, 51, 0
1, 154541, Note_on_c, 1, 34, 0
1, 154577, Note_on_c, 0, 74, 0
1, 154611, Note_on_c, 9, 51, 77
1, 154621, Note_on_c, 0, 70, 57
1, 154633, Note_on_c, 9, 51, 0
1, 154693, Note_on_c, 0, 70, 0
1, 154733, Note_on_c, 0, 65, 54
1, 154737, Note_on_c, 1, 35, 56
1, 154737, Note_on_c, 9, 40, 59
1, 154739, Note_on_c, 9, 51, 112
1, 154743, Note_on_c, 9, 46, 42
1, 154753, Note_on_c, 0, 65, 0
1, 154755, Note_on_c, 9, 40, 0
1, 154825, Note_on_c, 0, 74, 52
1, 154825, Note_on_c, 0, 65, 52
1, 154833, Note_on_c, 0, 68, 46
1, 154837, Note_on_c, 0, 59, 46
1, 154855, Note_on_c, 9, 46, 0
1, 154909, Note_on_c, 0, 74, 0
1, 154925, Note_on_c, 1, 35, 0
1, 154929, Note_on_c, 0, 65, 0
1, 154941, Note_on_c, 0, 68, 0
1, 154953, Note_on_c, 9, 51, 0
1, 154969, Note_on_c, 9, 40, 70
1, 154981, Note_on_c, 0, 59, 0
1, 155017, Note_on_c, 9, 40, 0
1, 155017, Note_on_c, 0, 58, 52
1, 155017, Note_on_c, 0, 73, 57
1, 155021, Note_on_c, 0, 65, 52
1, 155021, Note_on_c, 0, 68, 54
1, 155045, Control_c, 0, 64, 127
1, 155065, Control_c, 0, 64, 0
1, 155077, Note_on_c, 0, 65, 0
1, 155077, Note_on_c, 0, 73, 0
1, 155101, Note_on_c, 0, 68, 0
1, 155113, Note_on_c, 1, 36, 57
1, 155123, Note_on_c, 9, 51, 99
1, 155125, Note_on_c, 0, 58, 0
1, 155149, Note_on_c, 0, 57, 49
1, 155153, Note_on_c, 0, 72, 57
1, 155157, Note_on_c, 0, 64, 49
1, 155169, Note_on_c, 0, 67, 42
1, 155197, Note_on_c, 0, 57, 0
1, 155209, Note_on_c, 0, 72, 0
1, 155213, Note_on_c, 0, 67, 0
1, 155217, Note_on_c, 9, 35, 40
1, 155229, Note_on_c, 0, 64, 0
1, 155229, Control_c, 0, 64, 127
1, 155241, Note_on_c, 9, 35, 0
1, 155415, Note_on_c, 9, 51, 0
1, 155441, Control_c, 0, 64, 0
1, 155489, Note_on_c, 1, 30, 68
1, 155493, Note_on_c, 1, 36, 0
1, 155507, Note_on_c, 9, 51, 64
1, 155511, Note_on_c, 9, 44, 91
1, 155521, Control_c, 0, 64, 127
1, 155521, Note_on_c, 0, 61, 47
1, 155521, Note_on_c, 0, 42, 37
1, 155537, Note_on_c, 0, 57, 21
1, 155557, Note_on_c, 0, 63, 37
1, 155621, Note_on_c, 0, 57, 0
1, 155649, Note_on_c, 9, 44, 0
1, 155657, Note_on_c, 0, 61, 0
1, 155677, Note_on_c, 0, 42, 0
1, 155697, Note_on_c, 0, 63, 0
1, 155749, Note_on_c, 1, 30, 0
1, 155749, Control_c, 0, 64, 0
1, 155753, Note_on_c, 1, 29, 68
1, 155773, Note_on_c, 0, 62, 44
1, 155777, Note_on_c, 0, 57, 43
1, 155781, Note_on_c, 0, 51, 41
1, 155781, Note_on_c, 0, 41, 46
1, 155833, Note_on_c, 9, 51, 0
1, 155837, Control_c, 0, 64, 127
1, 155989, Note_on_c, 0, 57, 0
1, 156013, Note_on_c, 0, 41, 0
1, 156057, Note_on_c, 0, 62, 0
1, 156061, Note_on_c, 0, 51, 0
1, 156405, Note_on_c, 0, 68, 46
1, 156425, Note_on_c, 0, 68, 0
1, 156457, Note_on_c, 0, 67, 49
1, 156521, Note_on_c, 0, 67, 0
1, 156521, Note_on_c, 0, 71, 56
1, 156589, Note_on_c, 0, 71, 0
1, 156593, Note_on_c, 0, 74, 55
1, 156609, Note_on_c, 0, 74, 0
1, 156693, Note_on_c, 0, 79, 52
1, 156757, Note_on_c, 0, 83, 54
1, 156761, Note_on_c, 0, 79, 0
1, 156825, Note_on_c, 0, 86, 57
1, 156829, Note_on_c, 0, 83, 0
1, 156849, Note_on_c, 0, 86, 0
1, 156909, Note_on_c, 0, 90, 46
1, 156929, Note_on_c, 0, 90, 0
1, 156945, Note_on_c, 0, 91, 48
1, 157017, Note_on_c, 0, 95, 45
1, 157021, Note_on_c, 0, 91, 0
1, 157069, Note_on_c, 0, 95, 0
1, 157077, Note_on_c, 0, 98, 58
1, 157097, Note_on_c, 0, 98, 0
1, 157157, Note_on_c, 0, 101, 60
1, 157213, Note_on_c, 0, 101, 0
1, 157233, Note_on_c, 0, 105, 64
1, 157305, Note_on_c, 0, 105, 0
1, 157381, Note_on_c, 0, 107, 73
1, 157645, Note_on_c, 0, 107, 0
1, 157857, Note_on_c, 1, 29, 0
1, 157913, System_exclusive, 9, 67, 16, 76, 2, 1, 0, 1, 0, 247
1, 157913, System_exclusive, 8, 67, 16, 76, 2, 1, 12, 64, 247
1, 157913, System_exclusive, 8, 67, 16, 76, 2, 1, 13, 64, 247
1, 157913, System_exclusive, 9, 67, 16, 76, 2, 1, 32, 65, 0, 247
1, 157913, System_exclusive, 8, 67, 16, 76, 2, 1, 44, 64, 247
1, 157913, System_exclusive, 8, 67, 16, 76, 2, 1, 45, 64, 247
1, 157913, System_exclusive, 8, 67, 16, 76, 2, 1, 46, 0, 247
1, 157953, Note_on_c, 0, 29, 43
1, 158157, Note_on_c, 0, 29, 0
1, 158833, Control_c, 0, 64, 0
1, 158833, End_track
0, 0, End_of_file
