0, 0, Header, 0, 1, 384
1, 0, Start_track
1, 0, Title_t, "untitled"
1, 0, SMPTE_offset, 96, 0, 3, 0, 0
1, 0, System_exclusive, 5, 126, 127, 9, 1, 247
1, 1, System_exclusive, 8, 67, 16, 76, 0, 0, 126, 0, 247
1, 1, System_exclusive, 8, 67, 16, 76, 8, 15, 0, 1, 247
1, 1, System_exclusive, 8, 67, 16, 76, 8, 14, 0, 1, 247
1, 1, System_exclusive, 8, 67, 16, 76, 8, 13, 0, 1, 247
1, 1, System_exclusive, 8, 67, 16, 76, 8, 12, 0, 1, 247
1, 1, System_exclusive, 8, 67, 16, 76, 8, 11, 0, 1, 247
1, 1, System_exclusive, 8, 67, 16, 76, 8, 10, 0, 1, 247
1, 1, System_exclusive, 8, 67, 16, 76, 8, 9, 0, 0, 247
1, 1, System_exclusive, 8, 67, 16, 76, 8, 8, 0, 1, 247
1, 1, System_exclusive, 8, 67, 16, 76, 8, 7, 0, 1, 247
1, 1, System_exclusive, 8, 67, 16, 76, 8, 6, 0, 1, 247
1, 1, System_exclusive, 8, 67, 16, 76, 8, 5, 0, 1, 247
1, 1, System_exclusive, 8, 67, 16, 76, 8, 4, 0, 2, 247
1, 1, System_exclusive, 8, 67, 16, 76, 8, 3, 0, 2, 247
1, 1, System_exclusive, 8, 67, 16, 76, 8, 2, 0, 4, 247
1, 1, System_exclusive, 8, 67, 16, 76, 8, 1, 0, 4, 247
1, 1, System_exclusive, 8, 67, 16, 76, 8, 0, 0, 8, 247
1, 1, System_exclusive, 8, 67, 16, 76, 8, 0, 7, 0, 247
1, 1, System_exclusive, 8, 67, 16, 76, 8, 1, 7, 0, 247
1, 1, System_exclusive, 8, 67, 16, 76, 8, 2, 7, 0, 247
1, 1, System_exclusive, 8, 67, 16, 76, 8, 3, 7, 0, 247
1, 1, System_exclusive, 8, 67, 16, 76, 8, 4, 7, 0, 247
1, 1, System_exclusive, 8, 67, 16, 76, 8, 5, 7, 0, 247
1, 1, System_exclusive, 8, 67, 16, 76, 8, 6, 7, 0, 247
1, 1, System_exclusive, 8, 67, 16, 76, 8, 7, 7, 0, 247
1, 1, System_exclusive, 8, 67, 16, 76, 8, 8, 7, 0, 247
1, 1, System_exclusive, 8, 67, 16, 76, 8, 9, 7, 2, 247
1, 1, System_exclusive, 8, 67, 16, 76, 8, 10, 7, 0, 247
1, 1, System_exclusive, 8, 67, 16, 76, 8, 11, 7, 0, 247
1, 1, System_exclusive, 8, 67, 16, 76, 8, 12, 7, 0, 247
1, 1, System_exclusive, 8, 67, 16, 76, 8, 13, 7, 0, 247
1, 1, System_exclusive, 8, 67, 16, 76, 8, 14, 7, 0, 247
1, 1, System_exclusive, 8, 67, 16, 76, 8, 15, 7, 0, 247
1, 1, System_exclusive, 9, 67, 16, 76, 2, 1, 0, 1, 0, 247
1, 1, System_exclusive, 9, 67, 16, 76, 2, 1, 32, 65, 0, 247
1, 1, System_exclusive, 9, 67, 16, 76, 2, 1, 64, 5, 0, 247
1, 1, System_exclusive, 8, 67, 16, 76, 8, 9, 32, 16, 247
1, 1, System_exclusive, 8, 67, 16, 76, 8, 0, 114, 64, 247
1, 1, System_exclusive, 8, 67, 16, 76, 8, 0, 115, 95, 247
1, 1, System_exclusive, 8, 67, 16, 76, 8, 0, 119, 46, 247
1, 1, Time_signature, 4, 2, 24, 8
1, 1, Key_signature, -1, "major"
1, 1, Tempo, 600000
1, 1, Tempo, 731707
1, 1, Sequencer_specific, 21, 67, 115, 10, 0, 5, 75, 79, 79, 79, 79, 79, 79, 79, 79, 90, 79, 79, 79, 79, 79, 79
1, 1, Sequencer_specific, 6, 67, 115, 10, 0, 4, 1
1, 1, Sequencer_specific, 9, 67, 123, 0, 88, 70, 48, 50, 0, 0
1, 386, Control_c, 0, 7, 107
1, 386, Control_c, 0, 10, 64
1, 386, Control_c, 0, 91, 0
1, 386, Control_c, 0, 93, 0
1, 404, Control_c, 9, 7, 70
1, 769, Control_c, 0, 11, 127
1, 769, Control_c, 0, 94, 0
1, 769, Control_c, 0, 101, 0
1, 770, Control_c, 0, 100, 1
1, 771, Control_c, 0, 6, 64
1, 772, Control_c, 0, 38, 0
1, 773, Control_c, 0, 71, 43
1, 773, Control_c, 0, 74, 46
1, 773, Control_c, 0, 64, 127
1, 1537, Note_on_c, 0, 41, 49
1, 1545, Note_on_c, 0, 48, 38
1, 1549, Note_on_c, 0, 81, 76
1, 1549, Note_on_c, 0, 69, 68
1, 1557, Note_on_c, 0, 57, 42
1, 1661, Note_on_c, 0, 41, 0
1, 1673, Note_on_c, 0, 48, 0
1, 1681, Note_on_c, 0, 57, 0
1, 2393, Note_on_c, 0, 81, 0
1, 2421, Note_on_c, 0, 69, 0
1, 2777, Control_c, 0, 64, 0
1, 3113, Control_c, 0, 64, 127
1, 3125, Note_on_c, 0, 69, 73
1, 3125, Note_on_c, 0, 81, 66
1, 3129, Note_on_c, 0, 48, 37
1, 3133, Note_on_c, 0, 41, 36
1, 3141, Note_on_c, 0, 57, 36
1, 3181, Note_on_c, 0, 41, 0
1, 3197, Note_on_c, 0, 48, 0
1, 3217, Note_on_c, 0, 57, 0
1, 3493, Note_on_c, 0, 62, 36
1, 3517, Note_on_c, 0, 60, 24
1, 3525, Note_on_c, 0, 62, 0
1, 3537, Note_on_c, 0, 60, 0
1, 3537, Note_on_c, 0, 69, 0
1, 3685, Note_on_c, 0, 81, 0
1, 3757, Note_on_c, 0, 77, 31
1, 3793, Note_on_c, 0, 77, 0
1, 3805, Control_c, 0, 64, 0
1, 3841, Note_on_c, 0, 48, 42
1, 3849, Note_on_c, 0, 77, 41
1, 3849, Note_on_c, 0, 36, 38
1, 3853, Note_on_c, 0, 69, 45
1, 3853, Note_on_c, 0, 81, 44
1, 3869, Control_c, 0, 64, 127
1, 3877, Note_on_c, 0, 36, 0
1, 3901, Note_on_c, 0, 48, 0
1, 3961, Note_on_c, 0, 69, 0
1, 3965, Note_on_c, 0, 81, 0
1, 3981, Note_on_c, 0, 77, 0
1, 4205, Note_on_c, 0, 64, 51
1, 4221, Note_on_c, 0, 61, 35
1, 4225, Note_on_c, 0, 64, 0
1, 4229, Note_on_c, 0, 58, 38
1, 4233, Control_c, 0, 64, 0
1, 4249, Note_on_c, 0, 61, 0
1, 4253, Note_on_c, 0, 58, 0
1, 4369, Control_c, 0, 64, 127
1, 4445, Note_on_c, 0, 82, 61
1, 4449, Note_on_c, 0, 70, 54
1, 4453, Note_on_c, 0, 52, 53
1, 4505, Note_on_c, 0, 70, 0
1, 4513, Note_on_c, 0, 82, 0
1, 4517, Control_c, 0, 64, 0
1, 4561, Note_on_c, 0, 52, 0
1, 4573, Note_on_c, 0, 84, 80
1, 4577, Control_c, 0, 64, 127
1, 4577, Note_on_c, 0, 72, 74
1, 4577, Note_on_c, 0, 45, 45
1, 4581, Note_on_c, 0, 55, 48
1, 4589, Note_on_c, 0, 79, 66
1, 4605, Note_on_c, 0, 45, 0
1, 4641, Note_on_c, 0, 55, 0
1, 4745, Note_on_c, 0, 84, 0
1, 4753, Note_on_c, 0, 72, 0
1, 4753, Note_on_c, 0, 79, 0
1, 4829, Note_on_c, 0, 84, 65
1, 4833, Note_on_c, 0, 72, 52
1, 4837, Note_on_c, 0, 79, 59
1, 4893, Note_on_c, 0, 72, 0
1, 4897, Note_on_c, 0, 79, 0
1, 4909, Note_on_c, 0, 84, 0
1, 4933, Note_on_c, 0, 64, 45
1, 4953, Note_on_c, 0, 60, 40
1, 4957, Note_on_c, 0, 59, 36
1, 4965, Note_on_c, 0, 55, 28
1, 4965, Note_on_c, 0, 84, 43
1, 4973, Note_on_c, 0, 72, 38
1, 4977, Note_on_c, 0, 79, 55
1, 5005, Note_on_c, 0, 60, 0
1, 5005, Note_on_c, 0, 64, 0
1, 5017, Note_on_c, 0, 59, 0
1, 5025, Note_on_c, 0, 55, 0
1, 5097, Note_on_c, 0, 79, 0
1, 5129, Note_on_c, 0, 72, 0
1, 5129, Note_on_c, 0, 84, 0
1, 5217, Note_on_c, 0, 84, 60
1, 5221, Note_on_c, 0, 72, 54
1, 5225, Note_on_c, 0, 79, 55
1, 5233, Note_on_c, 0, 84, 0
1, 5241, Note_on_c, 0, 79, 0
1, 5261, Note_on_c, 0, 72, 0
1, 5601, Note_on_c, 0, 61, 58
1, 5605, Note_on_c, 0, 46, 50
1, 5609, Note_on_c, 0, 34, 51
1, 5613, Control_c, 0, 64, 0
1, 5621, Note_on_c, 0, 65, 49
1, 5661, Note_on_c, 0, 61, 0
1, 5665, Note_on_c, 0, 62, 52
1, 5681, Note_on_c, 0, 65, 0
1, 5685, Note_on_c, 0, 46, 0
1, 5701, Note_on_c, 0, 34, 0
1, 5741, Note_on_c, 0, 62, 0
1, 5757, Note_on_c, 0, 45, 49
1, 5761, Note_on_c, 0, 65, 47
1, 5769, Note_on_c, 0, 33, 45
1, 5769, Note_on_c, 0, 60, 54
1, 5785, Note_on_c, 0, 65, 0
1, 5793, Note_on_c, 0, 45, 0
1, 5793, Note_on_c, 0, 60, 0
1, 5797, Note_on_c, 0, 33, 0
1, 6005, Note_on_c, 0, 58, 43
1, 6017, Note_on_c, 0, 31, 33
1, 6021, Note_on_c, 0, 65, 33
1, 6049, Note_on_c, 0, 31, 0
1, 6053, Note_on_c, 0, 65, 0
1, 6105, Note_on_c, 0, 58, 0
1, 6121, Control_c, 0, 64, 127
1, 6145, Note_on_c, 0, 57, 46
1, 6149, Note_on_c, 0, 29, 36
1, 6149, Note_on_c, 0, 41, 31
1, 6153, Note_on_c, 0, 65, 37
1, 6177, Note_on_c, 0, 29, 0
1, 6213, Note_on_c, 0, 41, 0
1, 6221, Note_on_c, 0, 57, 0
1, 6269, Note_on_c, 0, 65, 0
1, 6537, Note_on_c, 0, 69, 86
1, 6541, Note_on_c, 0, 60, 87
1, 6541, Note_on_c, 0, 64, 82
1, 6541, Note_on_c, 0, 57, 64
1, 6705, Note_on_c, 0, 69, 0
1, 6721, Note_on_c, 0, 57, 0
1, 6745, Note_on_c, 0, 60, 0
1, 6777, Note_on_c, 0, 69, 68
1, 6841, Note_on_c, 0, 64, 0
1, 6861, Note_on_c, 0, 69, 0
1, 6885, Control_c, 0, 64, 0
1, 6909, Note_on_c, 0, 69, 66
1, 6917, Note_on_c, 0, 56, 41
1, 6921, Note_on_c, 0, 60, 52
1, 6921, Note_on_c, 0, 64, 57
1, 6925, Note_on_c, 0, 46, 38
1, 6965, Control_c, 0, 64, 127
1, 7101, Note_on_c, 0, 69, 0
1, 7121, Note_on_c, 0, 64, 0
1, 7141, Note_on_c, 0, 46, 0
1, 7145, Note_on_c, 0, 60, 0
1, 7145, Note_on_c, 0, 56, 0
1, 7289, Note_on_c, 0, 70, 49
1, 7293, Note_on_c, 0, 56, 46
1, 7297, Note_on_c, 0, 60, 45
1, 7297, Note_on_c, 0, 63, 41
1, 7305, Note_on_c, 0, 46, 36
1, 7357, Note_on_c, 0, 63, 0
1, 7417, Note_on_c, 0, 60, 0
1, 7417, Note_on_c, 0, 56, 0
1, 7429, Note_on_c, 0, 70, 0
1, 7429, Note_on_c, 0, 46, 0
1, 7633, Control_c, 0, 64, 0
1, 7667, Note_on_c, 0, 72, 50
1, 7673, Note_on_c, 0, 67, 46
1, 7673, Note_on_c, 0, 60, 43
1, 7673, Note_on_c, 0, 45, 37
1, 7681, Note_on_c, 0, 55, 28
1, 7689, Note_on_c, 0, 52, 34
1, 7729, Control_c, 0, 64, 127
1, 7749, Note_on_c, 0, 45, 0
1, 7757, Note_on_c, 0, 52, 0
1, 7777, Note_on_c, 0, 60, 0
1, 7785, Note_on_c, 0, 55, 0
1, 7945, Note_on_c, 0, 72, 0
1, 8041, Note_on_c, 0, 64, 50
1, 8061, Note_on_c, 0, 60, 37
1, 8065, Note_on_c, 0, 64, 0
1, 8085, Note_on_c, 0, 60, 0
1, 8085, Note_on_c, 0, 55, 26
1, 8113, Note_on_c, 0, 55, 0
1, 8117, Note_on_c, 0, 67, 0
1, 8305, Note_on_c, 0, 72, 89
1, 8309, Note_on_c, 0, 65, 92
1, 8309, Note_on_c, 0, 68, 82
1, 8397, Control_c, 0, 64, 0
1, 8433, Note_on_c, 0, 60, 48
1, 8433, Note_on_c, 0, 54, 49
1, 8465, Note_on_c, 0, 60, 0
1, 8473, Control_c, 0, 64, 127
1, 8513, Note_on_c, 0, 54, 0
1, 8545, Note_on_c, 0, 65, 0
1, 8725, Note_on_c, 0, 68, 0
1, 8793, Note_on_c, 0, 72, 0
1, 8833, Note_on_c, 0, 72, 27
1, 8837, Note_on_c, 0, 66, 46
1, 8837, Note_on_c, 0, 62, 48
1, 8841, Control_c, 0, 64, 72
1, 8841, Control_c, 0, 64, 0
1, 8845, Note_on_c, 0, 54, 41
1, 8857, Note_on_c, 0, 44, 40
1, 8905, Control_c, 0, 64, 127
1, 9049, Note_on_c, 0, 54, 0
1, 9065, Note_on_c, 0, 44, 0
1, 9113, Note_on_c, 0, 62, 0
1, 9133, Note_on_c, 0, 72, 0
1, 9161, Note_on_c, 0, 66, 0
1, 9177, Control_c, 0, 64, 40
1, 9181, Control_c, 0, 64, 0
1, 9201, Note_on_c, 0, 65, 48
1, 9213, Note_on_c, 0, 43, 43
1, 9213, Note_on_c, 0, 53, 36
1, 9213, Note_on_c, 0, 62, 34
1, 9225, Control_c, 0, 64, 127
1, 9241, Note_on_c, 0, 43, 0
1, 9293, Note_on_c, 0, 62, 0
1, 9293, Note_on_c, 0, 53, 0
1, 9401, Note_on_c, 0, 65, 0
1, 9577, Note_on_c, 0, 62, 50
1, 9581, Note_on_c, 0, 72, 75
1, 9581, Note_on_c, 0, 65, 75
1, 9585, Note_on_c, 0, 58, 47
1, 9601, Note_on_c, 0, 62, 0
1, 9601, Note_on_c, 0, 53, 23
1, 9601, Control_c, 0, 64, 0
1, 9641, Note_on_c, 0, 58, 0
1, 9661, Control_c, 0, 64, 127
1, 9669, Note_on_c, 0, 53, 0
1, 9669, Control_c, 0, 64, 0
1, 9713, Control_c, 0, 64, 127
1, 9777, Note_on_c, 0, 72, 0
1, 9785, Note_on_c, 0, 65, 0
1, 9837, Note_on_c, 0, 65, 48
1, 9841, Note_on_c, 0, 62, 57
1, 9845, Note_on_c, 0, 70, 55
1, 9869, Note_on_c, 0, 70, 0
1, 9869, Note_on_c, 0, 62, 0
1, 9869, Note_on_c, 0, 65, 0
1, 9877, Control_c, 0, 64, 0
1, 9933, Note_on_c, 0, 50, 49
1, 9961, Control_c, 0, 64, 127
1, 10205, Note_on_c, 0, 50, 0
1, 10229, Note_on_c, 0, 43, 45
1, 10265, Note_on_c, 0, 43, 0
1, 10341, Note_on_c, 0, 37, 39
1, 10345, Note_on_c, 0, 53, 48
1, 10353, Control_c, 0, 64, 0
1, 10353, Note_on_c, 0, 49, 21
1, 10397, Note_on_c, 0, 49, 0
1, 10397, Control_c, 0, 64, 88
1, 10401, Control_c, 0, 64, 127
1, 10425, Note_on_c, 0, 37, 0
1, 10577, Note_on_c, 0, 53, 0
1, 10609, Note_on_c, 0, 52, 57
1, 10625, Note_on_c, 0, 52, 0
1, 10677, Control_c, 0, 64, 0
1, 10721, Note_on_c, 0, 36, 44
1, 10725, Control_c, 0, 64, 127
1, 10741, Note_on_c, 0, 52, 35
1, 10761, Note_on_c, 0, 36, 0
1, 10833, Note_on_c, 0, 52, 0
1, 11105, Note_on_c, 0, 64, 49
1, 11117, Note_on_c, 0, 84, 51
1, 11117, Control_c, 0, 64, 0
1, 11121, Note_on_c, 0, 72, 42
1, 11125, Note_on_c, 0, 58, 31
1, 11137, Note_on_c, 0, 60, 31
1, 11141, Note_on_c, 0, 64, 0
1, 11165, Control_c, 0, 64, 127
1, 11173, Note_on_c, 0, 60, 0
1, 11213, Note_on_c, 0, 58, 0
1, 11293, Note_on_c, 0, 72, 0
1, 11293, Note_on_c, 0, 84, 0
1, 11373, Note_on_c, 0, 84, 85
1, 11377, Note_on_c, 0, 72, 81
1, 11469, Note_on_c, 0, 84, 0
1, 11477, Note_on_c, 0, 72, 0
1, 11477, Control_c, 0, 64, 0
1, 11485, Note_on_c, 0, 58, 52
1, 11493, Note_on_c, 0, 48, 46
1, 11509, Control_c, 0, 64, 104
1, 11513, Control_c, 0, 64, 127
1, 11513, Note_on_c, 0, 84, 60
1, 11521, Note_on_c, 0, 72, 56
1, 11557, Note_on_c, 0, 48, 0
1, 11605, Note_on_c, 0, 58, 0
1, 11649, Note_on_c, 0, 84, 0
1, 11657, Note_on_c, 0, 72, 0
1, 11749, Note_on_c, 0, 84, 52
1, 11749, Note_on_c, 0, 72, 48
1, 11805, Note_on_c, 0, 72, 0
1, 11809, Note_on_c, 0, 84, 0
1, 11873, Note_on_c, 0, 64, 47
1, 11877, Note_on_c, 0, 58, 43
1, 11889, Note_on_c, 0, 72, 55
1, 11889, Note_on_c, 0, 84, 57
1, 11901, Note_on_c, 0, 64, 0
1, 11909, Note_on_c, 0, 58, 0
1, 11973, Note_on_c, 0, 72, 0
1, 11977, Note_on_c, 0, 84, 0
1, 12121, Note_on_c, 0, 72, 54
1, 12145, Note_on_c, 0, 72, 0
1, 12245, Control_c, 0, 64, 0
1, 12249, Note_on_c, 0, 65, 52
1, 12257, Note_on_c, 0, 59, 46
1, 12257, Note_on_c, 0, 73, 49
1, 12257, Note_on_c, 0, 69, 51
1, 12265, Note_on_c, 0, 55, 38
1, 12305, Control_c, 0, 64, 127
1, 12433, Note_on_c, 0, 65, 0
1, 12441, Note_on_c, 0, 59, 0
1, 12445, Note_on_c, 0, 55, 0
1, 12501, Note_on_c, 0, 76, 68
1, 12569, Note_on_c, 0, 69, 0
1, 12577, Note_on_c, 0, 73, 0
1, 12605, Note_on_c, 0, 76, 0
1, 12629, Control_c, 0, 64, 0
1, 12633, Note_on_c, 0, 64, 37
1, 12637, Note_on_c, 0, 54, 39
1, 12641, Note_on_c, 0, 58, 46
1, 12649, Note_on_c, 0, 74, 64
1, 12673, Control_c, 0, 64, 127
1, 12761, Note_on_c, 0, 64, 0
1, 12861, Note_on_c, 0, 58, 0
1, 12869, Note_on_c, 0, 54, 0
1, 12937, Note_on_c, 0, 74, 0
1, 13013, Control_c, 0, 64, 0
1, 13025, Note_on_c, 0, 63, 39
1, 13033, Note_on_c, 0, 67, 42
1, 13037, Note_on_c, 0, 71, 49
1, 13043, Note_on_c, 0, 57, 39
1, 13053, Note_on_c, 0, 53, 30
1, 13077, Control_c, 0, 64, 127
1, 13153, Note_on_c, 0, 57, 0
1, 13205, Note_on_c, 0, 63, 0
1, 13205, Note_on_c, 0, 53, 0
1, 13273, Note_on_c, 0, 71, 0
1, 13285, Note_on_c, 0, 74, 62
1, 13373, Note_on_c, 0, 74, 0
1, 13373, Note_on_c, 0, 67, 0
1, 13417, Control_c, 0, 64, 0
1, 13421, Note_on_c, 0, 62, 38
1, 13421, Note_on_c, 0, 56, 40
1, 13433, Note_on_c, 0, 52, 33
1, 13433, Note_on_c, 0, 72, 61
1, 13485, Control_c, 0, 64, 127
1, 13589, Note_on_c, 0, 52, 0
1, 13621, Note_on_c, 0, 62, 0
1, 13677, Note_on_c, 0, 56, 0
1, 13745, Note_on_c, 0, 72, 0
1, 13793, Control_c, 0, 64, 0
1, 13801, Note_on_c, 0, 61, 40
1, 13805, Note_on_c, 0, 65, 39
1, 13809, Note_on_c, 0, 69, 45
1, 13817, Note_on_c, 0, 55, 39
1, 13817, Note_on_c, 0, 51, 36
1, 13861, Control_c, 0, 64, 127
1, 13909, Note_on_c, 0, 55, 0
1, 13981, Note_on_c, 0, 61, 0
1, 14001, Note_on_c, 0, 65, 0
1, 14001, Note_on_c, 0, 69, 0
1, 14013, Note_on_c, 0, 51, 0
1, 14069, Note_on_c, 0, 72, 56
1, 14157, Note_on_c, 0, 72, 0
1, 14181, Control_c, 0, 64, 0
1, 14193, Note_on_c, 0, 60, 37
1, 14193, Note_on_c, 0, 54, 39
1, 14209, Note_on_c, 0, 50, 35
1, 14209, Note_on_c, 0, 72, 45
1, 14213, Note_on_c, 0, 71, 45
1, 14249, Control_c, 0, 64, 127
1, 14329, Note_on_c, 0, 72, 0
1, 14341, Note_on_c, 0, 60, 0
1, 14349, Note_on_c, 0, 71, 0
1, 14357, Note_on_c, 0, 50, 0
1, 14401, Note_on_c, 0, 54, 0
1, 14577, Control_c, 0, 64, 0
1, 14585, Note_on_c, 0, 63, 60
1, 14589, Note_on_c, 0, 59, 47
1, 14597, Note_on_c, 0, 53, 46
1, 14613, Note_on_c, 0, 49, 31
1, 14633, Note_on_c, 0, 53, 0
1, 14633, Note_on_c, 0, 59, 0
1, 14637, Control_c, 0, 64, 127
1, 14661, Note_on_c, 0, 49, 0
1, 14813, Note_on_c, 0, 63, 0
1, 14945, Control_c, 0, 64, 0
1, 14945, Note_on_c, 0, 48, 43
1, 14953, Note_on_c, 0, 68, 40
1, 14953, Note_on_c, 0, 58, 38
1, 14961, Note_on_c, 0, 61, 44
1, 14985, Note_on_c, 0, 64, 36
1, 14993, Control_c, 0, 64, 127
1, 15009, Note_on_c, 0, 48, 0
1, 15097, Note_on_c, 0, 64, 0
1, 15097, Note_on_c, 0, 58, 0
1, 15157, Note_on_c, 0, 68, 0
1, 15161, Note_on_c, 0, 61, 0
1, 15221, Note_on_c, 0, 60, 49
1, 15225, Note_on_c, 0, 62, 55
1, 15229, Note_on_c, 0, 69, 43
1, 15237, Note_on_c, 0, 65, 39
1, 15241, Note_on_c, 0, 60, 0
1, 15273, Note_on_c, 0, 62, 0
1, 15273, Note_on_c, 0, 65, 0
1, 15285, Control_c, 0, 64, 0
1, 15301, Note_on_c, 0, 69, 0
1, 15329, Note_on_c, 0, 48, 36
1, 15337, Note_on_c, 0, 41, 39
1, 15349, Control_c, 0, 64, 127
1, 15357, Note_on_c, 0, 57, 29
1, 15393, Note_on_c, 0, 41, 0
1, 15421, Note_on_c, 0, 48, 0
1, 15437, Note_on_c, 0, 57, 0
1, 15733, Note_on_c, 0, 69, 87
1, 15737, Note_on_c, 0, 60, 79
1, 15737, Note_on_c, 0, 64, 81
1, 15737, Note_on_c, 0, 57, 72
1, 15745, Control_c, 0, 64, 0
1, 15749, Note_on_c, 0, 62, 66
1, 15765, Note_on_c, 0, 62, 0
1, 15805, Control_c, 0, 64, 127
1, 15841, Note_on_c, 0, 69, 0
1, 15845, Note_on_c, 0, 64, 0
1, 15869, Note_on_c, 0, 57, 0
1, 15869, Note_on_c, 0, 68, 65
1, 15877, Note_on_c, 0, 60, 0
1, 15885, Note_on_c, 0, 56, 45
1, 15941, Note_on_c, 0, 68, 0
1, 15981, Note_on_c, 0, 69, 76
1, 15981, Note_on_c, 0, 63, 75
1, 15989, Note_on_c, 0, 60, 68
1, 15993, Note_on_c, 0, 57, 62
1, 16013, Note_on_c, 0, 56, 0
1, 16049, Note_on_c, 0, 60, 0
1, 16049, Note_on_c, 0, 57, 0
1, 16061, Note_on_c, 0, 69, 0
1, 16085, Note_on_c, 0, 63, 0
1, 16113, Control_c, 0, 64, 0
1, 16125, Note_on_c, 0, 58, 66
1, 16129, Note_on_c, 0, 69, 60
1, 16133, Note_on_c, 0, 62, 60
1, 16137, Note_on_c, 0, 48, 58
1, 16141, Note_on_c, 0, 65, 57
1, 16181, Control_c, 0, 64, 127
1, 16281, Note_on_c, 0, 58, 0
1, 16297, Note_on_c, 0, 62, 0
1, 16309, Note_on_c, 0, 65, 0
1, 16313, Note_on_c, 0, 69, 0
1, 16497, Note_on_c, 0, 58, 48
1, 16501, Control_c, 0, 64, 56
1, 16505, Control_c, 0, 64, 0
1, 16509, Note_on_c, 0, 70, 60
1, 16509, Note_on_c, 0, 62, 56
1, 16517, Note_on_c, 0, 65, 52
1, 16533, Note_on_c, 0, 58, 0
1, 16549, Note_on_c, 0, 48, 0
1, 16553, Control_c, 0, 64, 127
1, 16553, Note_on_c, 0, 67, 21
1, 16661, Note_on_c, 0, 67, 0
1, 16665, Note_on_c, 0, 65, 0
1, 16693, Note_on_c, 0, 62, 0
1, 16713, Note_on_c, 0, 70, 0
1, 16869, Control_c, 0, 64, 0
1, 16889, Note_on_c, 0, 72, 54
1, 16889, Note_on_c, 0, 67, 57
1, 16897, Note_on_c, 0, 60, 48
1, 16905, Note_on_c, 0, 45, 34
1, 16905, Note_on_c, 0, 55, 28
1, 16929, Control_c, 0, 64, 127
1, 17041, Note_on_c, 0, 55, 0
1, 17053, Note_on_c, 0, 67, 0
1, 17085, Note_on_c, 0, 60, 0
1, 17197, Note_on_c, 0, 72, 0
1, 17261, Note_on_c, 0, 55, 39
1, 17269, Note_on_c, 0, 60, 56
1, 17281, Note_on_c, 0, 55, 0
1, 17329, Note_on_c, 0, 45, 0
1, 17409, Note_on_c, 0, 60, 0
1, 17537, Note_on_c, 0, 60, 70
1, 17577, Note_on_c, 0, 60, 0
1, 17653, Note_on_c, 0, 46, 84
1, 17657, Note_on_c, 0, 61, 88
1, 17657, Note_on_c, 0, 65, 83
1, 17661, Note_on_c, 0, 34, 76
1, 17661, Control_c, 0, 64, 0
1, 17717, Note_on_c, 0, 62, 68
1, 17737, Note_on_c, 0, 61, 0
1, 17789, Note_on_c, 0, 65, 0
1, 17821, Note_on_c, 0, 46, 0
1, 17825, Note_on_c, 0, 62, 0
1, 17829, Note_on_c, 0, 34, 0
1, 17905, Note_on_c, 0, 65, 63
1, 17913, Note_on_c, 0, 60, 58
1, 17913, Note_on_c, 0, 45, 48
1, 17925, Note_on_c, 0, 33, 42
1, 17957, Note_on_c, 0, 65, 0
1, 17965, Note_on_c, 0, 45, 0
1, 17969, Note_on_c, 0, 33, 0
1, 17977, Note_on_c, 0, 60, 0
1, 18025, Control_c, 0, 64, 40
1, 18025, Control_c, 0, 64, 127
1, 18049, Note_on_c, 0, 58, 59
1, 18057, Note_on_c, 0, 43, 43
1, 18057, Note_on_c, 0, 31, 46
1, 18137, Note_on_c, 0, 65, 6
1, 18221, Note_on_c, 0, 65, 0
1, 18229, Note_on_c, 0, 43, 0
1, 18233, Note_on_c, 0, 31, 0
1, 18265, Note_on_c, 0, 58, 0
1, 18285, Control_c, 0, 64, 0
1, 18285, Note_on_c, 0, 65, 54
1, 18289, Note_on_c, 0, 29, 57
1, 18293, Note_on_c, 0, 57, 56
1, 18297, Note_on_c, 0, 41, 39
1, 18357, Control_c, 0, 64, 127
1, 18393, Note_on_c, 0, 29, 0
1, 18433, Note_on_c, 0, 41, 0
1, 18445, Note_on_c, 0, 57, 0
1, 18501, Note_on_c, 0, 65, 0
1, 18829, Note_on_c, 0, 69, 75
1, 18837, Note_on_c, 0, 64, 68
1, 18841, Note_on_c, 0, 60, 55
1, 18841, Note_on_c, 0, 53, 51
1, 18961, Note_on_c, 0, 53, 0
1, 18965, Note_on_c, 0, 69, 0
1, 18981, Note_on_c, 0, 60, 0
1, 19013, Note_on_c, 0, 64, 0
1, 19081, Note_on_c, 0, 69, 66
1, 19089, Note_on_c, 0, 64, 47
1, 19125, Note_on_c, 0, 64, 0
1, 19137, Note_on_c, 0, 69, 0
1, 19185, Control_c, 0, 64, 0
1, 19213, Note_on_c, 0, 46, 39
1, 19213, Note_on_c, 0, 57, 44
1, 19217, Note_on_c, 0, 69, 54
1, 19221, Note_on_c, 0, 62, 51
1, 19225, Note_on_c, 0, 65, 50
1, 19281, Control_c, 0, 64, 127
1, 19373, Note_on_c, 0, 62, 0
1, 19381, Note_on_c, 0, 65, 0
1, 19389, Note_on_c, 0, 69, 0
1, 19389, Note_on_c, 0, 57, 0
1, 19425, Note_on_c, 0, 46, 0
1, 19565, Control_c, 0, 64, 0
1, 19577, Note_on_c, 0, 70, 47
1, 19577, Note_on_c, 0, 46, 40
1, 19597, Note_on_c, 0, 57, 28
1, 19597, Note_on_c, 0, 62, 35
1, 19597, Note_on_c, 0, 66, 48
1, 19625, Control_c, 0, 64, 127
1, 19657, Note_on_c, 0, 57, 0
1, 19689, Note_on_c, 0, 62, 0
1, 19705, Note_on_c, 0, 70, 0
1, 19733, Note_on_c, 0, 46, 0
1, 19733, Note_on_c, 0, 66, 0
1, 19917, Control_c, 0, 64, 0
1, 19949, Note_on_c, 0, 45, 53
1, 19973, Control_c, 0, 64, 127
1, 19989, Note_on_c, 0, 45, 0
1, 20225, Note_on_c, 0, 61, 75
1, 20229, Note_on_c, 0, 72, 84
1, 20229, Note_on_c, 0, 65, 92
1, 20229, Note_on_c, 0, 69, 84
1, 20233, Note_on_c, 0, 55, 66
1, 20341, Note_on_c, 0, 61, 0
1, 20345, Note_on_c, 0, 55, 0
1, 20349, Note_on_c, 0, 72, 0
1, 20349, Note_on_c, 0, 65, 0
1, 20357, Note_on_c, 0, 69, 0
1, 20389, Note_on_c, 0, 61, 56
1, 20397, Note_on_c, 0, 55, 57
1, 20397, Note_on_c, 0, 72, 61
1, 20401, Note_on_c, 0, 65, 56
1, 20405, Note_on_c, 0, 69, 75
1, 20505, Note_on_c, 0, 55, 0
1, 20521, Note_on_c, 0, 69, 0
1, 20529, Note_on_c, 0, 65, 0
1, 20541, Note_on_c, 0, 61, 0
1, 20561, Note_on_c, 0, 72, 0
1, 20625, Control_c, 0, 64, 0
1, 20633, Note_on_c, 0, 72, 56
1, 20637, Note_on_c, 0, 64, 55
1, 20637, Note_on_c, 0, 68, 56
1, 20641, Note_on_c, 0, 60, 55
1, 20645, Note_on_c, 0, 54, 54
1, 20741, Control_c, 0, 64, 127
1, 20897, Note_on_c, 0, 54, 0
1, 20897, Note_on_c, 0, 64, 0
1, 20921, Note_on_c, 0, 72, 0
1, 20953, Note_on_c, 0, 68, 0
1, 20973, Note_on_c, 0, 60, 0
1, 21105, Control_c, 0, 64, 0
1, 21117, Note_on_c, 0, 74, 63
1, 21121, Note_on_c, 0, 65, 48
1, 21129, Note_on_c, 0, 60, 39
1, 21129, Note_on_c, 0, 54, 39
1, 21149, Control_c, 0, 64, 127
1, 21169, Note_on_c, 0, 60, 0
1, 21181, Note_on_c, 0, 54, 0
1, 21265, Note_on_c, 0, 65, 0
1, 21301, Note_on_c, 0, 74, 0
1, 21473, Control_c, 0, 64, 0
1, 21501, Note_on_c, 0, 65, 57
1, 21501, Note_on_c, 0, 43, 52
1, 21513, Note_on_c, 0, 58, 40
1, 21545, Control_c, 0, 64, 127
1, 21577, Note_on_c, 0, 43, 0
1, 21613, Note_on_c, 0, 58, 0
1, 21669, Note_on_c, 0, 65, 0
1, 21749, Note_on_c, 0, 72, 60
1, 21793, Note_on_c, 0, 72, 0
1, 21881, Note_on_c, 0, 84, 72
1, 21881, Note_on_c, 0, 58, 43
1, 21913, Note_on_c, 0, 58, 0
1, 22065, Note_on_c, 0, 84, 0
1, 22121, Note_on_c, 0, 84, 56
1, 22205, Note_on_c, 0, 84, 0
1, 22253, Control_c, 0, 64, 0
1, 22253, Note_on_c, 0, 50, 46
1, 22265, Note_on_c, 0, 82, 61
1, 22301, Control_c, 0, 64, 127
1, 22317, Note_on_c, 0, 50, 0
1, 22393, Note_on_c, 0, 82, 0
1, 22533, Note_on_c, 0, 43, 38
1, 22585, Note_on_c, 0, 43, 0
1, 22645, Note_on_c, 0, 53, 54
1, 22649, Control_c, 0, 64, 0
1, 22661, Note_on_c, 0, 37, 37
1, 22689, Note_on_c, 0, 37, 0
1, 22697, Control_c, 0, 64, 127
1, 22869, Note_on_c, 0, 53, 0
1, 22909, Note_on_c, 0, 52, 66
1, 22933, Note_on_c, 0, 52, 0
1, 22985, Control_c, 0, 64, 0
1, 23017, Note_on_c, 0, 36, 57
1, 23037, Control_c, 0, 64, 127
1, 23037, Note_on_c, 0, 52, 24
1, 23077, Note_on_c, 0, 36, 0
1, 23133, Note_on_c, 0, 52, 0
1, 23149, Note_on_c, 0, 72, 63
1, 23301, Note_on_c, 0, 72, 0
1, 23405, Note_on_c, 0, 72, 75
1, 23413, Control_c, 0, 64, 0
1, 23413, Note_on_c, 0, 64, 59
1, 23413, Note_on_c, 0, 58, 47
1, 23417, Note_on_c, 0, 60, 46
1, 23465, Control_c, 0, 64, 127
1, 23489, Note_on_c, 0, 60, 0
1, 23517, Note_on_c, 0, 58, 0
1, 23577, Note_on_c, 0, 64, 0
1, 23601, Note_on_c, 0, 72, 0
1, 23789, Control_c, 0, 64, 0
1, 23801, Note_on_c, 0, 58, 49
1, 23809, Note_on_c, 0, 68, 51
1, 23809, Note_on_c, 0, 72, 57
1, 23809, Note_on_c, 0, 64, 48
1, 23809, Note_on_c, 0, 48, 40
1, 23841, Control_c, 0, 64, 127
1, 23961, Note_on_c, 0, 64, 0
1, 23973, Note_on_c, 0, 58, 0
1, 23997, Note_on_c, 0, 68, 0
1, 24009, Note_on_c, 0, 72, 0
1, 24173, Note_on_c, 0, 64, 56
1, 24257, Note_on_c, 0, 48, 0
1, 24325, Note_on_c, 0, 64, 0
1, 24561, Control_c, 0, 64, 0
1, 24565, Note_on_c, 0, 65, 42
1, 24565, Note_on_c, 0, 48, 35
1, 24569, Note_on_c, 0, 57, 26
1, 24569, Note_on_c, 0, 60, 45
1, 24569, Note_on_c, 0, 41, 36
1, 24613, Control_c, 0, 64, 127
1, 24733, Note_on_c, 0, 57, 0
1, 24765, Note_on_c, 0, 60, 0
1, 24769, Note_on_c, 0, 48, 0
1, 24881, Note_on_c, 0, 65, 0
1, 24949, Note_on_c, 0, 56, 66
1, 24957, Note_on_c, 0, 59, 58
1, 24965, Note_on_c, 0, 65, 40
1, 24973, Note_on_c, 0, 41, 0
1, 24973, Note_on_c, 0, 50, 38
1, 25001, Control_c, 0, 64, 0
1, 25021, Control_c, 0, 64, 127
1, 25161, Note_on_c, 0, 59, 0
1, 25185, Note_on_c, 0, 56, 0
1, 25193, Note_on_c, 0, 50, 0
1, 25289, Note_on_c, 0, 65, 0
1, 25329, Note_on_c, 0, 65, 19
1, 25333, Note_on_c, 0, 55, 49
1, 25333, Note_on_c, 0, 58, 50
1, 25337, Control_c, 0, 64, 0
1, 25393, Control_c, 0, 64, 127
1, 25577, Note_on_c, 0, 55, 0
1, 25585, Note_on_c, 0, 48, 68
1, 25597, Note_on_c, 0, 47, 57
1, 25613, Note_on_c, 0, 47, 0
1, 25661, Note_on_c, 0, 58, 0
1, 25673, Control_c, 0, 64, 0
1, 25737, Note_on_c, 0, 58, 31
1, 25825, Control_c, 0, 64, 127
1, 25949, Note_on_c, 0, 58, 0
1, 25949, Note_on_c, 0, 48, 0
1, 25985, Note_on_c, 0, 41, 54
1, 26029, Control_c, 0, 64, 0
1, 26041, Note_on_c, 0, 65, 0
1, 26097, Note_on_c, 0, 51, 55
1, 26113, Note_on_c, 0, 57, 42
1, 26137, Note_on_c, 0, 57, 0
1, 26225, Note_on_c, 0, 60, 60
1, 26313, Note_on_c, 0, 60, 0
1, 26349, Note_on_c, 0, 63, 68
1, 26405, Note_on_c, 0, 41, 0
1, 26441, Note_on_c, 0, 51, 0
1, 26457, Note_on_c, 0, 63, 0
1, 26481, Note_on_c, 0, 65, 57
1, 26577, Note_on_c, 0, 65, 0
1, 26609, Note_on_c, 0, 67, 61
1, 26689, Note_on_c, 0, 67, 0
1, 26741, Note_on_c, 0, 71, 66
1, 26857, Note_on_c, 0, 71, 0
1, 26861, Note_on_c, 0, 72, 57
1, 26921, Control_c, 0, 64, 127
1, 26961, Note_on_c, 0, 72, 0
1, 26997, Note_on_c, 0, 74, 61
1, 27041, Note_on_c, 0, 58, 21
1, 27081, Note_on_c, 0, 74, 0
1, 27113, Note_on_c, 0, 75, 67
1, 27177, Note_on_c, 0, 58, 0
1, 27189, Note_on_c, 0, 75, 0
1, 27245, Note_on_c, 0, 76, 65
1, 27317, Note_on_c, 0, 76, 0
1, 27397, Note_on_c, 0, 77, 37
1, 27397, Note_on_c, 0, 79, 36
1, 27453, Note_on_c, 0, 79, 0
1, 27457, Note_on_c, 0, 77, 0
1, 27509, Note_on_c, 0, 81, 68
1, 27569, Note_on_c, 0, 81, 0
1, 27621, Control_c, 0, 64, 0
1, 27637, Note_on_c, 0, 41, 43
1, 27669, Note_on_c, 0, 48, 31
1, 27673, Note_on_c, 0, 57, 27
1, 27681, Control_c, 0, 64, 127
1, 27709, Note_on_c, 0, 41, 0
1, 27741, Note_on_c, 0, 48, 0
1, 27753, Note_on_c, 0, 57, 0
1, 27789, Note_on_c, 0, 82, 39
1, 27829, Note_on_c, 0, 82, 0
1, 27857, Note_on_c, 0, 81, 34
1, 27885, Note_on_c, 0, 81, 0
1, 27921, Note_on_c, 0, 82, 78
1, 28017, Note_on_c, 0, 82, 0
1, 28029, Control_c, 0, 64, 0
1, 28041, Note_on_c, 0, 67, 41
1, 28049, Note_on_c, 0, 63, 35
1, 28049, Note_on_c, 0, 83, 66
1, 28049, Note_on_c, 0, 62, 39
1, 28085, Control_c, 0, 64, 127
1, 28149, Note_on_c, 0, 83, 0
1, 28169, Note_on_c, 0, 67, 0
1, 28177, Note_on_c, 0, 84, 56
1, 28185, Note_on_c, 0, 63, 0
1, 28213, Note_on_c, 0, 62, 0
1, 28233, Note_on_c, 0, 84, 0
1, 28301, Note_on_c, 0, 86, 73
1, 28317, Note_on_c, 0, 74, 39
1, 28373, Note_on_c, 0, 86, 0
1, 28381, Note_on_c, 0, 74, 0
1, 28401, Control_c, 0, 64, 0
1, 28417, Note_on_c, 0, 68, 42
1, 28425, Note_on_c, 0, 58, 39
1, 28433, Note_on_c, 0, 64, 34
1, 28437, Note_on_c, 0, 62, 37
1, 28441, Note_on_c, 0, 84, 60
1, 28445, Control_c, 0, 64, 127
1, 28449, Note_on_c, 0, 72, 45
1, 28605, Note_on_c, 0, 64, 0
1, 28677, Note_on_c, 0, 68, 0
1, 28685, Note_on_c, 0, 62, 0
1, 28689, Note_on_c, 0, 72, 0
1, 28693, Note_on_c, 0, 58, 0
1, 28697, Note_on_c, 0, 84, 0
1, 28793, Note_on_c, 0, 68, 46
1, 28801, Note_on_c, 0, 84, 54
1, 28809, Note_on_c, 0, 72, 39
1, 28813, Note_on_c, 0, 58, 35
1, 28817, Note_on_c, 0, 68, 0
1, 28865, Note_on_c, 0, 58, 0
1, 28925, Note_on_c, 0, 84, 0
1, 28977, Note_on_c, 0, 72, 0
1, 29045, Note_on_c, 0, 48, 56
1, 29145, Control_c, 0, 64, 0
1, 29161, Note_on_c, 0, 41, 45
1, 29181, Note_on_c, 0, 57, 47
1, 29185, Note_on_c, 0, 81, 40
1, 29185, Note_on_c, 0, 69, 42
1, 29193, Note_on_c, 0, 41, 0
1, 29201, Control_c, 0, 64, 127
1, 29201, Note_on_c, 0, 77, 40
1, 29225, Note_on_c, 0, 48, 0
1, 29229, Note_on_c, 0, 81, 0
1, 29233, Note_on_c, 0, 69, 0
1, 29233, Note_on_c, 0, 57, 0
1, 29237, Note_on_c, 0, 77, 0
1, 29313, Note_on_c, 0, 82, 59
1, 29321, Note_on_c, 0, 70, 39
1, 29333, Note_on_c, 0, 82, 0
1, 29349, Note_on_c, 0, 70, 0
1, 29425, Note_on_c, 0, 71, 63
1, 29433, Note_on_c, 0, 76, 55
1, 29433, Note_on_c, 0, 83, 48
1, 29477, Note_on_c, 0, 71, 0
1, 29481, Note_on_c, 0, 76, 0
1, 29501, Note_on_c, 0, 83, 0
1, 29541, Control_c, 0, 64, 0
1, 29553, Note_on_c, 0, 63, 48
1, 29553, Note_on_c, 0, 67, 52
1, 29553, Note_on_c, 0, 57, 54
1, 29553, Note_on_c, 0, 84, 78
1, 29553, Note_on_c, 0, 62, 46
1, 29555, Note_on_c, 0, 72, 66
1, 29569, Note_on_c, 0, 79, 56
1, 29589, Control_c, 0, 64, 127
1, 29681, Note_on_c, 0, 72, 0
1, 29681, Note_on_c, 0, 57, 0
1, 29689, Note_on_c, 0, 79, 0
1, 29697, Note_on_c, 0, 84, 0
1, 29705, Note_on_c, 0, 67, 0
1, 29709, Note_on_c, 0, 62, 0
1, 29717, Note_on_c, 0, 63, 0
1, 29805, Note_on_c, 0, 86, 82
1, 29809, Note_on_c, 0, 74, 80
1, 29809, Note_on_c, 0, 79, 77
1, 29809, Note_on_c, 0, 64, 79
1, 29809, Note_on_c, 0, 58, 78
1, 29817, Note_on_c, 0, 68, 73
1, 29817, Note_on_c, 0, 62, 66
1, 29821, Note_on_c, 0, 82, 51
1, 29837, Note_on_c, 0, 82, 0
1, 29873, Note_on_c, 0, 86, 0
1, 29877, Note_on_c, 0, 68, 0
1, 29885, Note_on_c, 0, 64, 0
1, 29889, Note_on_c, 0, 74, 0
1, 29889, Control_c, 0, 64, 0
1, 29897, Note_on_c, 0, 79, 0
1, 29901, Note_on_c, 0, 62, 0
1, 29905, Note_on_c, 0, 58, 0
1, 29949, Note_on_c, 0, 62, 68
1, 29949, Note_on_c, 0, 79, 68
1, 29949, Note_on_c, 0, 84, 75
1, 29949, Note_on_c, 0, 63, 60
1, 29957, Note_on_c, 0, 57, 61
1, 29957, Note_on_c, 0, 72, 64
1, 29973, Control_c, 0, 64, 127
1, 30041, Note_on_c, 0, 63, 0
1, 30049, Note_on_c, 0, 62, 0
1, 30057, Note_on_c, 0, 57, 0
1, 30121, Note_on_c, 0, 84, 0
1, 30129, Note_on_c, 0, 79, 0
1, 30157, Note_on_c, 0, 72, 0
1, 30313, Note_on_c, 0, 41, 57
1, 30317, Control_c, 0, 64, 0
1, 30329, Note_on_c, 0, 69, 53
1, 30337, Note_on_c, 0, 81, 52
1, 30349, Note_on_c, 0, 77, 38
1, 30365, Note_on_c, 0, 41, 0
1, 30369, Control_c, 0, 64, 127
1, 30473, Note_on_c, 0, 69, 0
1, 30493, Note_on_c, 0, 77, 0
1, 30521, Note_on_c, 0, 81, 0
1, 30569, Note_on_c, 0, 53, 56
1, 30669, Note_on_c, 0, 53, 0
1, 30689, Control_c, 0, 64, 0
1, 30701, Note_on_c, 0, 46, 52
1, 30705, Note_on_c, 0, 82, 65
1, 30709, Note_on_c, 0, 57, 46
1, 30729, Note_on_c, 0, 46, 0
1, 30733, Control_c, 0, 64, 127
1, 30745, Note_on_c, 0, 57, 0
1, 30805, Note_on_c, 0, 82, 0
1, 30837, Note_on_c, 0, 84, 57
1, 30901, Note_on_c, 0, 84, 0
1, 30949, Note_on_c, 0, 73, 56
1, 30949, Note_on_c, 0, 85, 63
1, 31037, Note_on_c, 0, 85, 0
1, 31053, Note_on_c, 0, 73, 0
1, 31057, Control_c, 0, 64, 0
1, 31065, Note_on_c, 0, 62, 54
1, 31069, Note_on_c, 0, 58, 48
1, 31085, Note_on_c, 0, 74, 58
1, 31085, Note_on_c, 0, 86, 63
1, 31085, Note_on_c, 0, 57, 40
1, 31133, Control_c, 0, 64, 127
1, 31189, Note_on_c, 0, 57, 0
1, 31189, Note_on_c, 0, 58, 0
1, 31213, Note_on_c, 0, 62, 0
1, 31213, Note_on_c, 0, 86, 0
1, 31217, Note_on_c, 0, 74, 0
1, 31341, Note_on_c, 0, 87, 72
1, 31349, Note_on_c, 0, 75, 63
1, 31417, Note_on_c, 0, 87, 0
1, 31429, Note_on_c, 0, 75, 0
1, 31449, Control_c, 0, 64, 0
1, 31461, Note_on_c, 0, 66, 50
1, 31481, Note_on_c, 0, 86, 63
1, 31485, Note_on_c, 0, 74, 46
1, 31501, Control_c, 0, 64, 127
1, 31541, Note_on_c, 0, 66, 0
1, 31621, Note_on_c, 0, 86, 0
1, 31657, Note_on_c, 0, 74, 0
1, 31849, Note_on_c, 0, 57, 52
1, 31849, Note_on_c, 0, 73, 54
1, 31853, Control_c, 0, 64, 0
1, 31869, Note_on_c, 0, 73, 0
1, 31869, Control_c, 0, 64, 127
1, 31873, Note_on_c, 0, 53, 33
1, 31973, Note_on_c, 0, 57, 0
1, 32025, Note_on_c, 0, 53, 0
1, 32105, Note_on_c, 0, 70, 61
1, 32113, Note_on_c, 0, 62, 46
1, 32121, Note_on_c, 0, 65, 52
1, 32205, Control_c, 0, 64, 0
1, 32221, Note_on_c, 0, 46, 40
1, 32233, Note_on_c, 0, 57, 26
1, 32253, Control_c, 0, 64, 127
1, 32309, Note_on_c, 0, 46, 0
1, 32349, Note_on_c, 0, 57, 0
1, 32361, Note_on_c, 0, 62, 0
1, 32449, Note_on_c, 0, 65, 0
1, 32533, Note_on_c, 0, 70, 0
1, 32901, Note_on_c, 0, 70, 81
1, 32901, Note_on_c, 0, 55, 68
1, 32905, Note_on_c, 0, 65, 71
1, 32905, Note_on_c, 0, 60, 71
1, 32909, Note_on_c, 0, 54, 42
1, 32929, Note_on_c, 0, 54, 0
1, 32985, Control_c, 0, 64, 0
1, 33009, Note_on_c, 0, 65, 0
1, 33009, Note_on_c, 0, 55, 0
1, 33013, Note_on_c, 0, 70, 0
1, 33021, Note_on_c, 0, 60, 0
1, 33061, Note_on_c, 0, 64, 52
1, 33061, Note_on_c, 0, 69, 57
1, 33065, Note_on_c, 0, 54, 57
1, 33069, Note_on_c, 0, 59, 49
1, 33081, Control_c, 0, 64, 127
1, 33233, Note_on_c, 0, 54, 0
1, 33257, Note_on_c, 0, 59, 0
1, 33281, Note_on_c, 0, 64, 0
1, 33325, Note_on_c, 0, 69, 0
1, 33417, Note_on_c, 0, 68, 50
1, 33425, Note_on_c, 0, 54, 31
1, 33425, Note_on_c, 0, 44, 41
1, 33429, Note_on_c, 0, 63, 48
1, 33433, Control_c, 0, 64, 0
1, 33433, Note_on_c, 0, 59, 38
1, 33473, Control_c, 0, 64, 127
1, 33545, Note_on_c, 0, 54, 0
1, 33569, Note_on_c, 0, 59, 0
1, 33577, Note_on_c, 0, 44, 0
1, 33601, Note_on_c, 0, 68, 0
1, 33609, Note_on_c, 0, 63, 0
1, 33657, Control_c, 0, 64, 0
1, 33669, Note_on_c, 0, 59, 39
1, 33677, Note_on_c, 0, 67, 45
1, 33677, Note_on_c, 0, 62, 43
1, 33725, Note_on_c, 0, 59, 0
1, 33761, Note_on_c, 0, 62, 0
1, 33761, Note_on_c, 0, 43, 45
1, 33761, Control_c, 0, 64, 127
1, 33773, Note_on_c, 0, 53, 25
1, 33793, Note_on_c, 0, 67, 0
1, 33797, Note_on_c, 0, 43, 0
1, 33837, Note_on_c, 0, 53, 0
1, 33925, Note_on_c, 0, 70, 49
1, 34001, Note_on_c, 0, 70, 0
1, 34045, Note_on_c, 0, 71, 63
1, 34121, Note_on_c, 0, 71, 0
1, 34153, Control_c, 0, 64, 0
1, 34161, Note_on_c, 0, 64, 39
1, 34161, Note_on_c, 0, 59, 46
1, 34167, Note_on_c, 0, 72, 67
1, 34177, Note_on_c, 0, 53, 40
1, 34185, Note_on_c, 0, 64, 0
1, 34197, Note_on_c, 0, 59, 0
1, 34233, Note_on_c, 0, 72, 0
1, 34237, Control_c, 0, 64, 127
1, 34241, Note_on_c, 0, 53, 0
1, 34293, Note_on_c, 0, 73, 54
1, 34353, Note_on_c, 0, 73, 0
1, 34413, Note_on_c, 0, 74, 87
1, 34529, Control_c, 0, 64, 0
1, 34541, Note_on_c, 0, 49, 41
1, 34549, Note_on_c, 0, 50, 50
1, 34589, Note_on_c, 0, 49, 0
1, 34597, Control_c, 0, 64, 127
1, 34637, Note_on_c, 0, 50, 0
1, 34913, Control_c, 0, 64, 0
1, 34917, Note_on_c, 0, 54, 50
1, 34925, Note_on_c, 0, 44, 52
1, 34973, Control_c, 0, 64, 127
1, 35029, Note_on_c, 0, 54, 0
1, 35061, Note_on_c, 0, 44, 0
1, 35093, Note_on_c, 0, 74, 0
1, 35181, Note_on_c, 0, 50, 46
1, 35265, Note_on_c, 0, 50, 0
1, 35265, Control_c, 0, 64, 0
1, 35309, Note_on_c, 0, 71, 48
1, 35315, Note_on_c, 0, 55, 45
1, 35317, Control_c, 0, 64, 127
1, 35317, Note_on_c, 0, 62, 41
1, 35329, Note_on_c, 0, 67, 39
1, 35345, Note_on_c, 0, 62, 0
1, 35353, Note_on_c, 0, 55, 0
1, 35365, Note_on_c, 0, 67, 0
1, 35373, Note_on_c, 0, 71, 0
1, 35429, Note_on_c, 0, 72, 55
1, 35441, Note_on_c, 0, 67, 36
1, 35445, Note_on_c, 0, 57, 45
1, 35461, Note_on_c, 0, 72, 0
1, 35469, Note_on_c, 0, 67, 0
1, 35509, Note_on_c, 0, 57, 0
1, 35553, Note_on_c, 0, 58, 60
1, 35553, Note_on_c, 0, 73, 68
1, 35561, Note_on_c, 0, 63, 63
1, 35581, Note_on_c, 0, 68, 39
1, 35581, Note_on_c, 0, 70, 45
1, 35609, Note_on_c, 0, 68, 0
1, 35613, Note_on_c, 0, 70, 0
1, 35629, Note_on_c, 0, 63, 0
1, 35637, Note_on_c, 0, 73, 0
1, 35645, Note_on_c, 0, 58, 0
1, 35665, Control_c, 0, 64, 0
1, 35681, Note_on_c, 0, 74, 72
1, 35689, Note_on_c, 0, 67, 65
1, 35689, Note_on_c, 0, 59, 72
1, 35689, Note_on_c, 0, 62, 58
1, 35725, Control_c, 0, 64, 127
1, 35841, Note_on_c, 0, 62, 0
1, 35849, Note_on_c, 0, 59, 0
1, 35857, Note_on_c, 0, 74, 0
1, 35861, Note_on_c, 0, 67, 0
1, 35941, Note_on_c, 0, 74, 68
1, 35945, Note_on_c, 0, 59, 69
1, 35945, Note_on_c, 0, 67, 75
1, 35949, Note_on_c, 0, 62, 72
1, 36013, Note_on_c, 0, 59, 0
1, 36013, Note_on_c, 0, 74, 0
1, 36025, Control_c, 0, 64, 0
1, 36029, Note_on_c, 0, 62, 0
1, 36045, Note_on_c, 0, 67, 0
1, 36049, Control_c, 0, 64, 127
1, 36077, Note_on_c, 0, 74, 55
1, 36081, Note_on_c, 0, 62, 52
1, 36081, Note_on_c, 0, 59, 56
1, 36083, Note_on_c, 0, 67, 56
1, 36133, Note_on_c, 0, 62, 0
1, 36161, Note_on_c, 0, 74, 0
1, 36161, Note_on_c, 0, 59, 0
1, 36169, Note_on_c, 0, 67, 0
1, 36317, Note_on_c, 0, 67, 57
1, 36321, Note_on_c, 0, 60, 51
1, 36397, Note_on_c, 0, 67, 0
1, 36405, Note_on_c, 0, 60, 0
1, 36445, Note_on_c, 0, 67, 31
1, 36445, Note_on_c, 0, 74, 59
1, 36453, Note_on_c, 0, 59, 48
1, 36481, Note_on_c, 0, 59, 0
1, 36497, Note_on_c, 0, 67, 0
1, 36521, Note_on_c, 0, 74, 0
1, 36717, Note_on_c, 0, 77, 73
1, 36721, Note_on_c, 0, 74, 72
1, 36721, Note_on_c, 0, 70, 66
1, 36721, Note_on_c, 0, 67, 63
1, 36723, Note_on_c, 0, 62, 80
1, 36749, Control_c, 0, 64, 0
1, 36821, Control_c, 0, 64, 127
1, 36857, Note_on_c, 0, 74, 0
1, 36865, Note_on_c, 0, 77, 0
1, 36873, Note_on_c, 0, 62, 0
1, 36885, Note_on_c, 0, 70, 0
1, 36885, Note_on_c, 0, 67, 0
1, 37093, Control_c, 0, 64, 0
1, 37109, Note_on_c, 0, 74, 72
1, 37113, Note_on_c, 0, 58, 58
1, 37121, Note_on_c, 0, 65, 58
1, 37121, Note_on_c, 0, 67, 57
1, 37121, Note_on_c, 0, 70, 52
1, 37169, Control_c, 0, 64, 127
1, 37225, Note_on_c, 0, 74, 0
1, 37233, Note_on_c, 0, 67, 0
1, 37237, Note_on_c, 0, 58, 0
1, 37241, Note_on_c, 0, 70, 0
1, 37245, Note_on_c, 0, 65, 0
1, 37477, Control_c, 0, 64, 0
1, 37485, Note_on_c, 0, 70, 56
1, 37493, Note_on_c, 0, 62, 44
1, 37509, Note_on_c, 0, 55, 22
1, 37509, Note_on_c, 0, 65, 36
1, 37557, Note_on_c, 0, 55, 0
1, 37557, Control_c, 0, 64, 127
1, 37601, Note_on_c, 0, 65, 0
1, 37625, Note_on_c, 0, 62, 0
1, 37633, Note_on_c, 0, 70, 0
1, 37865, Note_on_c, 0, 58, 49
1, 37869, Note_on_c, 0, 66, 51
1, 37869, Note_on_c, 0, 62, 48
1, 37873, Control_c, 0, 64, 88
1, 37873, Note_on_c, 0, 50, 43
1, 37877, Control_c, 0, 64, 0
1, 37945, Control_c, 0, 64, 127
1, 37981, Note_on_c, 0, 50, 0
1, 38085, Note_on_c, 0, 58, 0
1, 38145, Note_on_c, 0, 62, 0
1, 38233, Note_on_c, 0, 66, 0
1, 38265, Note_on_c, 0, 59, 61
1, 38269, Note_on_c, 0, 63, 55
1, 38273, Note_on_c, 0, 67, 59
1, 38277, Note_on_c, 0, 37, 49
1, 38285, Note_on_c, 0, 44, 49
1, 38317, Control_c, 0, 64, 0
1, 38377, Control_c, 0, 64, 88
1, 38381, Control_c, 0, 64, 127
1, 38397, Note_on_c, 0, 37, 0
1, 38645, Note_on_c, 0, 53, 52
1, 38681, Note_on_c, 0, 44, 0
1, 38709, Note_on_c, 0, 53, 0
1, 39005, Note_on_c, 0, 43, 38
1, 39033, Note_on_c, 0, 59, 0
1, 39081, Control_c, 0, 64, 0
1, 39093, Note_on_c, 0, 43, 0
1, 39145, Control_c, 0, 64, 127
1, 39157, Note_on_c, 0, 36, 35
1, 39173, Note_on_c, 0, 52, 38
1, 39185, Note_on_c, 0, 36, 0
1, 39241, Note_on_c, 0, 52, 0
1, 39293, Note_on_c, 0, 63, 0
1, 39385, Note_on_c, 0, 67, 0
1, 39533, Note_on_c, 0, 64, 48
1, 39541, Note_on_c, 0, 61, 42
1, 39553, Note_on_c, 0, 64, 0
1, 39553, Control_c, 0, 64, 0
1, 39561, Note_on_c, 0, 58, 36
1, 39561, Note_on_c, 0, 55, 30
1, 39569, Note_on_c, 0, 61, 0
1, 39585, Note_on_c, 0, 58, 0
1, 39589, Note_on_c, 0, 55, 0
1, 39601, Control_c, 0, 64, 127
1, 39785, Note_on_c, 0, 74, 68
1, 39789, Note_on_c, 0, 68, 62
1, 39793, Note_on_c, 0, 64, 51
1, 39849, Note_on_c, 0, 74, 0
1, 39865, Note_on_c, 0, 64, 0
1, 39877, Note_on_c, 0, 68, 0
1, 39889, Control_c, 0, 64, 0
1, 39909, Note_on_c, 0, 41, 30
1, 39913, Note_on_c, 0, 48, 27
1, 39933, Note_on_c, 0, 62, 33
1, 39933, Note_on_c, 0, 57, 36
1, 39933, Note_on_c, 0, 72, 39
1, 39937, Note_on_c, 0, 67, 48
1, 39953, Control_c, 0, 64, 127
1, 39969, Note_on_c, 0, 41, 0
1, 40009, Note_on_c, 0, 48, 0
1, 40021, Note_on_c, 0, 57, 0
1, 40121, Note_on_c, 0, 62, 0
1, 40305, Note_on_c, 0, 60, 45
1, 40309, Note_on_c, 0, 67, 0
1, 40309, Note_on_c, 0, 72, 0
1, 40321, Note_on_c, 0, 53, 33
1, 40349, Note_on_c, 0, 60, 0
1, 40377, Note_on_c, 0, 53, 0
1, 40557, Note_on_c, 0, 69, 82
1, 40561, Note_on_c, 0, 64, 72
1, 40561, Note_on_c, 0, 60, 75
1, 40605, Note_on_c, 0, 60, 0
1, 40613, Note_on_c, 0, 64, 0
1, 40621, Note_on_c, 0, 69, 0
1, 40701, Control_c, 0, 64, 0
1, 40713, Note_on_c, 0, 69, 84
1, 40713, Note_on_c, 0, 58, 82
1, 40721, Note_on_c, 0, 65, 64
1, 40725, Note_on_c, 0, 62, 75
1, 40725, Note_on_c, 0, 48, 55
1, 40729, Note_on_c, 0, 55, 52
1, 40785, Control_c, 0, 64, 127
1, 40905, Note_on_c, 0, 55, 0
1, 40925, Note_on_c, 0, 58, 0
1, 40933, Note_on_c, 0, 69, 0
1, 40985, Note_on_c, 0, 65, 0
1, 40993, Note_on_c, 0, 62, 0
1, 41029, Note_on_c, 0, 48, 0
1, 41069, Control_c, 0, 64, 0
1, 41089, Note_on_c, 0, 48, 39
1, 41097, Note_on_c, 0, 70, 74
1, 41097, Note_on_c, 0, 58, 63
1, 41101, Note_on_c, 0, 65, 66
1, 41101, Note_on_c, 0, 62, 78
1, 41161, Control_c, 0, 64, 127
1, 41241, Note_on_c, 0, 48, 0
1, 41253, Note_on_c, 0, 62, 0
1, 41265, Note_on_c, 0, 65, 0
1, 41273, Note_on_c, 0, 58, 0
1, 41297, Note_on_c, 0, 70, 0
1, 41453, Control_c, 0, 64, 0
1, 41477, Note_on_c, 0, 72, 79
1, 41477, Note_on_c, 0, 67, 75
1, 41481, Note_on_c, 0, 55, 57
1, 41481, Note_on_c, 0, 45, 53
1, 41481, Note_on_c, 0, 60, 74
1, 41525, Control_c, 0, 64, 127
1, 41613, Note_on_c, 0, 45, 0
1, 41633, Note_on_c, 0, 55, 0
1, 41641, Note_on_c, 0, 72, 0
1, 41649, Note_on_c, 0, 67, 0
1, 41689, Note_on_c, 0, 60, 0
1, 41861, Note_on_c, 0, 60, 49
1, 41861, Note_on_c, 0, 55, 50
1, 41861, Note_on_c, 0, 57, 43
1, 41873, Note_on_c, 0, 52, 29
1, 41905, Note_on_c, 0, 52, 0
1, 42001, Note_on_c, 0, 57, 0
1, 42009, Note_on_c, 0, 55, 0
1, 42013, Note_on_c, 0, 60, 0
1, 42197, Control_c, 0, 64, 0
1, 42233, Note_on_c, 0, 58, 46
1, 42237, Note_on_c, 0, 62, 52
1, 42241, Note_on_c, 0, 36, 44
1, 42241, Note_on_c, 0, 53, 42
1, 42249, Note_on_c, 0, 48, 39
1, 42253, Control_c, 0, 64, 127
1, 42265, Note_on_c, 0, 63, 26
1, 42285, Note_on_c, 0, 36, 0
1, 42317, Note_on_c, 0, 53, 0
1, 42333, Note_on_c, 0, 48, 0
1, 42365, Note_on_c, 0, 62, 0
1, 42369, Note_on_c, 0, 63, 0
1, 42377, Note_on_c, 0, 58, 0
1, 42597, Control_c, 0, 64, 0
1, 42613, Note_on_c, 0, 68, 56
1, 42613, Note_on_c, 0, 73, 54
1, 42613, Note_on_c, 0, 64, 52
1, 42617, Note_on_c, 0, 58, 48
1, 42629, Note_on_c, 0, 70, 45
1, 42637, Note_on_c, 0, 58, 0
1, 42653, Control_c, 0, 64, 127
1, 42777, Note_on_c, 0, 73, 0
1, 42789, Note_on_c, 0, 64, 0
1, 42813, Note_on_c, 0, 68, 0
1, 42825, Note_on_c, 0, 70, 0
1, 42877, Note_on_c, 0, 72, 48
1, 42885, Note_on_c, 0, 67, 51
1, 42889, Note_on_c, 0, 62, 37
1, 42929, Control_c, 0, 64, 24
1, 42933, Note_on_c, 0, 62, 0
1, 42933, Control_c, 0, 64, 0
1, 42985, Note_on_c, 0, 67, 0
1, 42985, Note_on_c, 0, 41, 46
1, 43005, Control_c, 0, 64, 127
1, 43025, Note_on_c, 0, 72, 0
1, 43033, Note_on_c, 0, 57, 26
1, 43053, Note_on_c, 0, 41, 0
1, 43097, Note_on_c, 0, 57, 0
1, 43149, Note_on_c, 0, 69, 75
1, 43237, Note_on_c, 0, 69, 0
1, 43261, Note_on_c, 0, 68, 54
1, 43333, Note_on_c, 0, 68, 0
1, 43353, Control_c, 0, 64, 0
1, 43373, Note_on_c, 0, 62, 33
1, 43373, Note_on_c, 0, 60, 41
1, 43381, Control_c, 0, 64, 127
1, 43385, Note_on_c, 0, 53, 26
1, 43385, Note_on_c, 0, 69, 48
1, 43421, Note_on_c, 0, 69, 0
1, 43425, Note_on_c, 0, 62, 0
1, 43437, Note_on_c, 0, 60, 0
1, 43497, Note_on_c, 0, 53, 0
1, 43513, Note_on_c, 0, 79, 75
1, 43689, Note_on_c, 0, 79, 0
1, 43733, Control_c, 0, 64, 0
1, 43761, Note_on_c, 0, 56, 42
1, 43761, Note_on_c, 0, 46, 41
1, 43765, Note_on_c, 0, 72, 48
1, 43765, Note_on_c, 0, 76, 60
1, 43789, Control_c, 0, 64, 127
1, 43857, Note_on_c, 0, 46, 0
1, 43885, Note_on_c, 0, 56, 0
1, 44149, Note_on_c, 0, 67, 47
1, 44213, Note_on_c, 0, 72, 0
1, 44245, Note_on_c, 0, 76, 0
1, 44273, Note_on_c, 0, 67, 0
1, 44397, Note_on_c, 0, 52, 49
1, 44461, Note_on_c, 0, 52, 0
1, 44493, Control_c, 0, 64, 0
1, 44525, Note_on_c, 0, 60, 49
1, 44525, Note_on_c, 0, 55, 38
1, 44529, Note_on_c, 0, 45, 37
1, 44541, Control_c, 0, 64, 127
1, 44545, Note_on_c, 0, 67, 34
1, 44557, Note_on_c, 0, 45, 0
1, 44585, Note_on_c, 0, 60, 0
1, 44593, Note_on_c, 0, 55, 0
1, 44633, Note_on_c, 0, 67, 0
1, 44801, Note_on_c, 0, 76, 72
1, 44809, Note_on_c, 0, 64, 66
1, 44857, Note_on_c, 0, 76, 0
1, 44865, Note_on_c, 0, 64, 0
1, 44897, Note_on_c, 0, 55, 40
1, 44901, Note_on_c, 0, 60, 36
1, 44917, Note_on_c, 0, 59, 36
1, 44933, Control_c, 0, 64, 0
1, 44945, Note_on_c, 0, 59, 0
1, 44945, Note_on_c, 0, 60, 0
1, 44985, Note_on_c, 0, 55, 0
1, 45021, Control_c, 0, 64, 127
1, 45049, Note_on_c, 0, 72, 71
1, 45061, Note_on_c, 0, 60, 63
1, 45093, Note_on_c, 0, 60, 0
1, 45109, Note_on_c, 0, 72, 0
1, 45169, Note_on_c, 0, 72, 63
1, 45233, Note_on_c, 0, 72, 0
1, 45269, Control_c, 0, 64, 0
1, 45285, Note_on_c, 0, 72, 61
1, 45297, Note_on_c, 0, 63, 57
1, 45297, Note_on_c, 0, 60, 48
1, 45297, Note_on_c, 0, 66, 56
1, 45301, Note_on_c, 0, 54, 43
1, 45309, Note_on_c, 0, 50, 39
1, 45313, Control_c, 0, 64, 127
1, 45433, Note_on_c, 0, 60, 0
1, 45461, Note_on_c, 0, 54, 0
1, 45465, Note_on_c, 0, 50, 0
1, 45489, Note_on_c, 0, 63, 0
1, 45549, Note_on_c, 0, 66, 0
1, 45581, Note_on_c, 0, 72, 0
1, 45633, Control_c, 0, 64, 0
1, 45669, Control_c, 0, 64, 127
1, 45677, Note_on_c, 0, 72, 54
1, 45677, Note_on_c, 0, 54, 42
1, 45681, Note_on_c, 0, 66, 56
1, 45689, Note_on_c, 0, 44, 43
1, 45693, Note_on_c, 0, 62, 36
1, 45745, Note_on_c, 0, 54, 0
1, 45749, Note_on_c, 0, 62, 0
1, 45757, Note_on_c, 0, 44, 0
1, 45781, Note_on_c, 0, 72, 0
1, 45825, Note_on_c, 0, 66, 0
1, 46021, Control_c, 0, 64, 0
1, 46077, Note_on_c, 0, 72, 46
1, 46081, Note_on_c, 0, 43, 43
1, 46085, Control_c, 0, 64, 127
1, 46085, Note_on_c, 0, 58, 41
1, 46089, Note_on_c, 0, 50, 40
1, 46089, Note_on_c, 0, 65, 45
1, 46097, Note_on_c, 0, 57, 29
1, 46105, Note_on_c, 0, 70, 11
1, 46133, Note_on_c, 0, 57, 0
1, 46133, Note_on_c, 0, 58, 0
1, 46133, Note_on_c, 0, 43, 0
1, 46149, Note_on_c, 0, 65, 0
1, 46161, Note_on_c, 0, 50, 0
1, 46161, Note_on_c, 0, 70, 0
1, 46193, Note_on_c, 0, 72, 0
1, 46445, Note_on_c, 0, 84, 57
1, 46457, Note_on_c, 0, 77, 60
1, 46457, Note_on_c, 0, 58, 43
1, 46457, Note_on_c, 0, 73, 46
1, 46461, Note_on_c, 0, 62, 38
1, 46469, Note_on_c, 0, 57, 37
1, 46473, Note_on_c, 0, 53, 31
1, 46517, Note_on_c, 0, 62, 0
1, 46517, Note_on_c, 0, 84, 0
1, 46537, Note_on_c, 0, 77, 0
1, 46537, Note_on_c, 0, 58, 0
1, 46545, Note_on_c, 0, 73, 0
1, 46557, Note_on_c, 0, 57, 0
1, 46561, Note_on_c, 0, 53, 0
1, 46845, Note_on_c, 0, 58, 51
1, 46845, Note_on_c, 0, 70, 53
1, 46849, Note_on_c, 0, 62, 41
1, 46853, Note_on_c, 0, 65, 49
1, 46957, Note_on_c, 0, 58, 0
1, 46961, Note_on_c, 0, 70, 0
1, 46961, Note_on_c, 0, 65, 0
1, 46993, Note_on_c, 0, 62, 0
1, 47181, Note_on_c, 0, 54, 53
1, 47221, Control_c, 0, 64, 0
1, 47221, Note_on_c, 0, 58, 57
1, 47221, Note_on_c, 0, 65, 63
1, 47221, Note_on_c, 0, 55, 49
1, 47225, Note_on_c, 0, 62, 63
1, 47237, Note_on_c, 0, 54, 0
1, 47305, Control_c, 0, 64, 127
1, 47421, Note_on_c, 0, 55, 0
1, 47453, Note_on_c, 0, 62, 0
1, 47469, Note_on_c, 0, 58, 0
1, 47481, Note_on_c, 0, 50, 94
1, 47493, Note_on_c, 0, 49, 75
1, 47509, Note_on_c, 0, 49, 0
1, 47533, Control_c, 0, 64, 0
1, 47589, Note_on_c, 0, 65, 0
1, 47633, Note_on_c, 0, 58, 36
1, 47633, Note_on_c, 0, 55, 42
1, 47633, Note_on_c, 0, 62, 49
1, 47693, Control_c, 0, 64, 127
1, 47801, Note_on_c, 0, 50, 0
1, 47853, Note_on_c, 0, 48, 75
1, 47861, Note_on_c, 0, 62, 0
1, 47869, Note_on_c, 0, 55, 0
1, 47873, Note_on_c, 0, 47, 52
1, 47893, Note_on_c, 0, 47, 0
1, 47901, Note_on_c, 0, 58, 0
1, 47913, Control_c, 0, 64, 0
1, 47981, Note_on_c, 0, 58, 43
1, 47989, Note_on_c, 0, 55, 45
1, 47993, Note_on_c, 0, 64, 48
1, 48009, Control_c, 0, 64, 127
1, 48249, Note_on_c, 0, 36, 64
1, 48285, Note_on_c, 0, 55, 0
1, 48285, Control_c, 0, 64, 0
1, 48297, Note_on_c, 0, 64, 0
1, 48313, Note_on_c, 0, 58, 0
1, 48389, Control_c, 0, 64, 127
1, 48389, Note_on_c, 0, 55, 44
1, 48393, Note_on_c, 0, 58, 38
1, 48397, Note_on_c, 0, 64, 46
1, 48445, Note_on_c, 0, 55, 0
1, 48449, Note_on_c, 0, 48, 0
1, 48497, Note_on_c, 0, 58, 0
1, 48529, Note_on_c, 0, 64, 0
1, 48621, Note_on_c, 0, 48, 63
1, 48713, Note_on_c, 0, 36, 0
1, 48741, Note_on_c, 0, 72, 64
1, 48741, Note_on_c, 0, 62, 57
1, 48745, Note_on_c, 0, 48, 0
1, 48745, Note_on_c, 0, 67, 57
1, 48853, Note_on_c, 0, 72, 0
1, 48889, Note_on_c, 0, 67, 0
1, 48901, Note_on_c, 0, 62, 0
1, 48981, Note_on_c, 0, 72, 60
1, 49001, Note_on_c, 0, 67, 40
1, 49029, Note_on_c, 0, 67, 0
1, 49061, Note_on_c, 0, 72, 0
1, 49077, Control_c, 0, 64, 0
1, 49117, Note_on_c, 0, 45, 65
1, 49141, Control_c, 0, 64, 127
1, 49153, Note_on_c, 0, 45, 0
1, 49377, Note_on_c, 0, 72, 86
1, 49381, Note_on_c, 0, 65, 99
1, 49381, Note_on_c, 0, 61, 82
1, 49381, Note_on_c, 0, 69, 85
1, 49385, Note_on_c, 0, 55, 75
1, 49477, Note_on_c, 0, 61, 0
1, 49485, Note_on_c, 0, 72, 0
1, 49493, Note_on_c, 0, 65, 0
1, 49501, Note_on_c, 0, 55, 0
1, 49505, Note_on_c, 0, 69, 0
1, 49527, Note_on_c, 0, 61, 62
1, 49533, Note_on_c, 0, 72, 67
1, 49533, Note_on_c, 0, 65, 72
1, 49537, Note_on_c, 0, 69, 66
1, 49545, Note_on_c, 0, 55, 46
1, 49621, Note_on_c, 0, 55, 0
1, 49621, Note_on_c, 0, 69, 0
1, 49625, Note_on_c, 0, 65, 0
1, 49629, Note_on_c, 0, 72, 0
1, 49653, Note_on_c, 0, 61, 0
1, 49745, Control_c, 0, 64, 0
1, 49773, Note_on_c, 0, 74, 78
1, 49777, Note_on_c, 0, 68, 75
1, 49777, Note_on_c, 0, 60, 63
1, 49777, Note_on_c, 0, 54, 66
1, 49781, Note_on_c, 0, 64, 66
1, 49833, Control_c, 0, 64, 127
1, 49865, Note_on_c, 0, 64, 0
1, 49869, Note_on_c, 0, 74, 0
1, 49881, Note_on_c, 0, 68, 0
1, 49937, Note_on_c, 0, 60, 0
1, 49981, Note_on_c, 0, 54, 0
1, 50285, Control_c, 0, 64, 0
1, 50293, Note_on_c, 0, 54, 44
1, 50301, Note_on_c, 0, 44, 42
1, 50329, Control_c, 0, 64, 127
1, 50453, Note_on_c, 0, 54, 0
1, 50501, Note_on_c, 0, 44, 0
1, 50665, Control_c, 0, 64, 0
1, 50677, Note_on_c, 0, 55, 56
1, 50677, Note_on_c, 0, 61, 56
1, 50681, Note_on_c, 0, 53, 49
1, 50685, Note_on_c, 0, 58, 49
1, 50689, Note_on_c, 0, 43, 42
1, 50769, Note_on_c, 0, 55, 0
1, 50777, Note_on_c, 0, 49, 49
1, 50789, Note_on_c, 0, 53, 0
1, 50813, Note_on_c, 0, 62, 63
1, 50821, Note_on_c, 0, 61, 0
1, 50845, Note_on_c, 0, 49, 0
1, 50865, Note_on_c, 0, 58, 0
1, 50877, Note_on_c, 0, 62, 0
1, 50897, Control_c, 0, 64, 127
1, 50901, Note_on_c, 0, 43, 0
1, 50917, Note_on_c, 0, 50, 65
1, 50925, Note_on_c, 0, 65, 63
1, 50941, Note_on_c, 0, 65, 0
1, 51005, Note_on_c, 0, 50, 0
1, 51049, Note_on_c, 0, 58, 63
1, 51053, Note_on_c, 0, 69, 60
1, 51057, Note_on_c, 0, 62, 57
1, 51061, Note_on_c, 0, 68, 32
1, 51065, Note_on_c, 0, 65, 46
1, 51069, Note_on_c, 0, 55, 48
1, 51101, Note_on_c, 0, 58, 0
1, 51109, Note_on_c, 0, 62, 0
1, 51113, Note_on_c, 0, 68, 0
1, 51113, Note_on_c, 0, 65, 0
1, 51117, Note_on_c, 0, 55, 0
1, 51129, Note_on_c, 0, 69, 0
1, 51293, Note_on_c, 0, 72, 75
1, 51297, Note_on_c, 0, 65, 72
1, 51301, Note_on_c, 0, 62, 61
1, 51301, Note_on_c, 0, 60, 48
1, 51305, Note_on_c, 0, 69, 62
1, 51309, Note_on_c, 0, 59, 48
1, 51317, Note_on_c, 0, 64, 42
1, 51329, Note_on_c, 0, 59, 0
1, 51329, Note_on_c, 0, 71, 38
1, 51337, Note_on_c, 0, 65, 0
1, 51341, Note_on_c, 0, 60, 0
1, 51345, Note_on_c, 0, 62, 0
1, 51345, Note_on_c, 0, 64, 0
1, 51357, Note_on_c, 0, 69, 0
1, 51361, Note_on_c, 0, 72, 0
1, 51377, Note_on_c, 0, 71, 0
1, 51401, Control_c, 0, 64, 0
1, 51429, Note_on_c, 0, 73, 80
1, 51433, Note_on_c, 0, 70, 79
1, 51437, Note_on_c, 0, 64, 75
1, 51437, Note_on_c, 0, 68, 71
1, 51437, Note_on_c, 0, 61, 77
1, 51517, Note_on_c, 0, 73, 0
1, 51521, Note_on_c, 0, 61, 0
1, 51533, Note_on_c, 0, 64, 0
1, 51541, Note_on_c, 0, 70, 0
1, 51561, Note_on_c, 0, 75, 78
1, 51565, Control_c, 0, 64, 127
1, 51577, Note_on_c, 0, 64, 25
1, 51729, Note_on_c, 0, 68, 0
1, 51749, Note_on_c, 0, 64, 0
1, 51769, Note_on_c, 0, 75, 0
1, 51813, Note_on_c, 0, 48, 57
1, 51813, Note_on_c, 0, 73, 63
1, 51817, Note_on_c, 0, 64, 52
1, 51821, Note_on_c, 0, 68, 57
1, 51821, Control_c, 0, 64, 0
1, 51833, Note_on_c, 0, 70, 49
1, 51861, Control_c, 0, 64, 127
1, 52021, Note_on_c, 0, 64, 0
1, 52065, Note_on_c, 0, 73, 0
1, 52081, Note_on_c, 0, 70, 0
1, 52105, Note_on_c, 0, 68, 0
1, 52149, Control_c, 0, 64, 0
1, 52189, Note_on_c, 0, 72, 54
1, 52193, Note_on_c, 0, 41, 42
1, 52197, Note_on_c, 0, 67, 49
1, 52197, Note_on_c, 0, 62, 39
1, 52205, Note_on_c, 0, 57, 40
1, 52225, Control_c, 0, 64, 127
1, 52229, Note_on_c, 0, 62, 0
1, 52249, Note_on_c, 0, 41, 0
1, 52273, Note_on_c, 0, 67, 0
1, 52285, Note_on_c, 0, 48, 0
1, 52285, Note_on_c, 0, 72, 0
1, 52309, Note_on_c, 0, 57, 0
1, 52577, Control_c, 0, 64, 0
1, 52581, Note_on_c, 0, 84, 115
1, 52585, Note_on_c, 0, 62, 67
1, 52585, Note_on_c, 0, 72, 111
1, 52593, Note_on_c, 0, 60, 53
1, 52595, Note_on_c, 0, 53, 46
1, 52613, Note_on_c, 0, 60, 0
1, 52621, Note_on_c, 0, 62, 0
1, 52637, Control_c, 0, 64, 127
1, 52681, Note_on_c, 0, 53, 0
1, 52861, Note_on_c, 0, 84, 0
1, 52889, Note_on_c, 0, 72, 0
1, 52973, Control_c, 0, 64, 0
1, 52981, Note_on_c, 0, 48, 54
1, 52985, Note_on_c, 0, 83, 63
1, 52989, Note_on_c, 0, 36, 39
1, 53005, Note_on_c, 0, 71, 37
1, 53013, Note_on_c, 0, 36, 0
1, 53013, Note_on_c, 0, 48, 0
1, 53033, Note_on_c, 0, 71, 0
1, 53057, Note_on_c, 0, 83, 0
1, 53113, Note_on_c, 0, 82, 57
1, 53165, Note_on_c, 0, 82, 0
1, 53237, Note_on_c, 0, 80, 52
1, 53301, Note_on_c, 0, 80, 0
1, 53349, Note_on_c, 0, 58, 50
1, 53361, Note_on_c, 0, 77, 46
1, 53409, Note_on_c, 0, 58, 0
1, 53433, Control_c, 0, 64, 127
1, 53561, Note_on_c, 0, 77, 0
1, 53605, Note_on_c, 0, 73, 57
1, 53689, Control_c, 0, 64, 24
1, 53693, Control_c, 0, 64, 0
1, 53729, Note_on_c, 0, 41, 45
1, 53757, Control_c, 0, 64, 127
1, 53789, Note_on_c, 0, 41, 0
1, 54121, Note_on_c, 0, 62, 43
1, 54145, Note_on_c, 0, 60, 27
1, 54153, Note_on_c, 0, 53, 22
1, 54157, Note_on_c, 0, 73, 0
1, 54161, Note_on_c, 0, 57, 21
1, 54177, Note_on_c, 0, 62, 0
1, 54185, Note_on_c, 0, 53, 0
1, 54193, Note_on_c, 0, 60, 0
1, 54193, Note_on_c, 0, 57, 0
1, 54393, Note_on_c, 0, 70, 88
1, 54505, Note_on_c, 0, 70, 0
1, 54541, Note_on_c, 0, 72, 68
1, 54541, Control_c, 0, 64, 0
1, 54541, Note_on_c, 0, 58, 56
1, 54549, Note_on_c, 0, 62, 46
1, 54613, Control_c, 0, 64, 127
1, 54637, Note_on_c, 0, 62, 0
1, 54697, Note_on_c, 0, 72, 0
1, 54709, Note_on_c, 0, 58, 0
1, 54905, Control_c, 0, 64, 0
1, 54909, Note_on_c, 0, 70, 66
1, 54917, Note_on_c, 0, 62, 61
1, 54925, Note_on_c, 0, 58, 52
1, 54961, Control_c, 0, 64, 127
1, 54961, Note_on_c, 0, 65, 31
1, 55073, Note_on_c, 0, 58, 0
1, 55089, Note_on_c, 0, 65, 0
1, 55125, Note_on_c, 0, 62, 0
1, 55145, Note_on_c, 0, 70, 0
1, 55217, Control_c, 0, 64, 0
1, 55277, Note_on_c, 0, 57, 54
1, 55289, Note_on_c, 0, 60, 41
1, 55289, Note_on_c, 0, 69, 49
1, 55289, Note_on_c, 0, 64, 47
1, 55321, Control_c, 0, 64, 127
1, 55381, Note_on_c, 0, 69, 0
1, 55385, Note_on_c, 0, 64, 0
1, 55405, Note_on_c, 0, 57, 0
1, 55429, Note_on_c, 0, 60, 0
1, 55637, Control_c, 0, 64, 0
1, 55661, Note_on_c, 0, 60, 53
1, 55665, Note_on_c, 0, 53, 39
1, 55669, Note_on_c, 0, 65, 43
1, 55677, Note_on_c, 0, 57, 20
1, 55681, Control_c, 0, 64, 127
1, 55737, Note_on_c, 0, 57, 0
1, 55777, Note_on_c, 0, 65, 0
1, 55853, Note_on_c, 0, 60, 0
1, 55885, Note_on_c, 0, 53, 0
1, 56001, Control_c, 0, 64, 0
1, 56041, Note_on_c, 0, 46, 46
1, 56041, Note_on_c, 0, 60, 49
1, 56041, Note_on_c, 0, 64, 45
1, 56057, Note_on_c, 0, 56, 23
1, 56089, Note_on_c, 0, 60, 0
1, 56093, Note_on_c, 0, 56, 0
1, 56097, Note_on_c, 0, 64, 0
1, 56105, Note_on_c, 0, 46, 0
1, 56241, Note_on_c, 0, 60, 56
1, 56241, Note_on_c, 0, 56, 50
1, 56249, Note_on_c, 0, 64, 54
1, 56249, Note_on_c, 0, 46, 43
1, 56273, Note_on_c, 0, 64, 0
1, 56281, Note_on_c, 0, 46, 0
1, 56281, Note_on_c, 0, 60, 0
1, 56285, Note_on_c, 0, 56, 0
1, 56425, Note_on_c, 0, 56, 56
1, 56425, Note_on_c, 0, 46, 54
1, 56433, Note_on_c, 0, 60, 59
1, 56441, Note_on_c, 0, 64, 49
1, 56477, Note_on_c, 0, 64, 0
1, 56477, Control_c, 0, 64, 127
1, 56481, Note_on_c, 0, 60, 0
1, 56485, Note_on_c, 0, 46, 0
1, 56485, Note_on_c, 0, 56, 0
1, 56533, Note_on_c, 0, 56, 39
1, 56537, Note_on_c, 0, 60, 50
1, 56537, Note_on_c, 0, 46, 42
1, 56549, Note_on_c, 0, 64, 50
1, 56629, Note_on_c, 0, 56, 0
1, 56633, Note_on_c, 0, 64, 0
1, 56681, Note_on_c, 0, 60, 0
1, 56729, Note_on_c, 0, 46, 0
1, 56765, Control_c, 0, 64, 0
1, 56809, Control_c, 0, 64, 127
1, 56809, Note_on_c, 0, 60, 58
1, 56813, Note_on_c, 0, 45, 52
1, 56813, Note_on_c, 0, 55, 54
1, 56865, Note_on_c, 0, 55, 0
1, 56869, Note_on_c, 0, 45, 0
1, 56945, Note_on_c, 0, 60, 0
1, 57177, Control_c, 0, 64, 0
1, 57193, Note_on_c, 0, 65, 52
1, 57193, Note_on_c, 0, 60, 46
1, 57193, Note_on_c, 0, 61, 49
1, 57205, Note_on_c, 0, 55, 31
1, 57229, Control_c, 0, 64, 127
1, 57357, Note_on_c, 0, 65, 0
1, 57381, Note_on_c, 0, 55, 0
1, 57389, Note_on_c, 0, 60, 0
1, 57409, Note_on_c, 0, 61, 0
1, 57569, Control_c, 0, 64, 0
1, 57573, Note_on_c, 0, 54, 49
1, 57577, Note_on_c, 0, 65, 40
1, 57585, Note_on_c, 0, 60, 45
1, 57697, Note_on_c, 0, 65, 0
1, 57709, Note_on_c, 0, 68, 49
1, 57793, Note_on_c, 0, 68, 0
1, 57837, Note_on_c, 0, 69, 45
1, 57893, Note_on_c, 0, 60, 0
1, 57917, Note_on_c, 0, 69, 0
1, 57965, Note_on_c, 0, 74, 57
1, 57989, Control_c, 0, 64, 127
1, 57993, Note_on_c, 0, 54, 0
1, 58029, Note_on_c, 0, 74, 0
1, 58093, Note_on_c, 0, 77, 47
1, 58113, Note_on_c, 0, 77, 0
1, 58221, Note_on_c, 0, 84, 76
1, 58317, Control_c, 0, 64, 0
1, 58349, Note_on_c, 0, 43, 48
1, 58361, Note_on_c, 0, 80, 48
1, 58377, Note_on_c, 0, 43, 0
1, 58405, Note_on_c, 0, 84, 0
1, 58437, Note_on_c, 0, 80, 0
1, 58497, Note_on_c, 0, 81, 48
1, 58561, Note_on_c, 0, 81, 0
1, 58609, Note_on_c, 0, 74, 52
1, 58709, Note_on_c, 0, 58, 47
1, 58757, Note_on_c, 0, 58, 0
1, 58973, Note_on_c, 0, 43, 56
1, 59025, Note_on_c, 0, 43, 0
1, 59117, Control_c, 0, 64, 127
1, 59121, Note_on_c, 0, 50, 49
1, 59197, Note_on_c, 0, 50, 0
1, 59389, Note_on_c, 0, 43, 26
1, 59421, Note_on_c, 0, 43, 0
1, 59501, Control_c, 0, 64, 0
1, 59507, Note_on_c, 0, 51, 36
1, 59513, Note_on_c, 0, 37, 26
1, 59545, Control_c, 0, 64, 127
1, 59549, Note_on_c, 0, 51, 0
1, 59561, Note_on_c, 0, 37, 0
1, 59801, Note_on_c, 0, 74, 0
1, 59881, Control_c, 0, 64, 0
1, 59891, Note_on_c, 0, 36, 46
1, 59925, Note_on_c, 0, 36, 0
1, 59929, Note_on_c, 0, 52, 22
1, 59965, Note_on_c, 0, 52, 0
1, 60005, Note_on_c, 0, 80, 57
1, 60025, Note_on_c, 0, 80, 0
1, 60069, Note_on_c, 0, 81, 52
1, 60093, Note_on_c, 0, 81, 0
1, 60125, Note_on_c, 0, 82, 46
1, 60181, Note_on_c, 0, 82, 0
1, 60189, Note_on_c, 0, 83, 56
1, 60217, Note_on_c, 0, 83, 0
1, 60241, Note_on_c, 0, 86, 82
1, 60249, Note_on_c, 0, 64, 39
1, 60269, Note_on_c, 0, 58, 26
1, 60277, Note_on_c, 0, 64, 0
1, 60305, Note_on_c, 0, 58, 0
1, 60341, Note_on_c, 0, 86, 0
1, 60449, Note_on_c, 0, 82, 63
1, 60517, Note_on_c, 0, 82, 0
1, 60517, Note_on_c, 0, 79, 66
1, 60561, Note_on_c, 0, 79, 0
1, 60585, Note_on_c, 0, 76, 52
1, 60621, Note_on_c, 0, 76, 0
1, 60625, Note_on_c, 0, 58, 42
1, 60661, Note_on_c, 0, 75, 35
1, 60681, Note_on_c, 0, 58, 0
1, 60689, Note_on_c, 0, 75, 0
1, 60701, Note_on_c, 0, 74, 53
1, 60753, Note_on_c, 0, 74, 0
1, 60753, Note_on_c, 0, 73, 57
1, 60793, Note_on_c, 0, 73, 0
1, 60817, Note_on_c, 0, 72, 31
1, 60837, Note_on_c, 0, 71, 41
1, 60841, Note_on_c, 0, 72, 0
1, 60869, Note_on_c, 0, 71, 0
1, 60897, Note_on_c, 0, 70, 56
1, 60941, Note_on_c, 0, 70, 0
1, 60961, Note_on_c, 0, 74, 80
1, 60973, Note_on_c, 0, 58, 49
1, 60993, Note_on_c, 0, 48, 35
1, 61009, Note_on_c, 0, 58, 0
1, 61021, Note_on_c, 0, 48, 0
1, 61021, Note_on_c, 0, 70, 56
1, 61025, Note_on_c, 0, 74, 0
1, 61057, Note_on_c, 0, 67, 49
1, 61073, Note_on_c, 0, 70, 0
1, 61077, Note_on_c, 0, 67, 0
1, 61109, Note_on_c, 0, 51, 45
1, 61109, Note_on_c, 0, 64, 41
1, 61141, Note_on_c, 0, 64, 0
1, 61169, Note_on_c, 0, 63, 41
1, 61173, Note_on_c, 0, 51, 0
1, 61213, Note_on_c, 0, 63, 0
1, 61225, Note_on_c, 0, 62, 52
1, 61249, Note_on_c, 0, 62, 0
1, 61269, Note_on_c, 0, 61, 50
1, 61305, Note_on_c, 0, 61, 0
1, 61321, Note_on_c, 0, 60, 56
1, 61377, Note_on_c, 0, 45, 49
1, 61377, Note_on_c, 0, 55, 45
1, 61473, Note_on_c, 0, 55, 0
1, 61509, Note_on_c, 0, 60, 0
1, 61525, Note_on_c, 0, 62, 48
1, 61565, Note_on_c, 0, 62, 0
1, 61565, Note_on_c, 0, 60, 54
1, 61609, Note_on_c, 0, 60, 0
1, 61617, Note_on_c, 0, 59, 48
1, 61665, Note_on_c, 0, 59, 0
1, 61701, Note_on_c, 0, 60, 61
1, 61749, Note_on_c, 0, 60, 0
1, 61781, Note_on_c, 0, 55, 46
1, 61813, Note_on_c, 0, 62, 51
1, 61833, Note_on_c, 0, 45, 0
1, 61889, Note_on_c, 0, 62, 0
1, 61909, Note_on_c, 0, 63, 66
1, 61917, Note_on_c, 0, 55, 0
1, 61973, Note_on_c, 0, 63, 0
1, 62001, Note_on_c, 0, 65, 68
1, 62065, Note_on_c, 0, 65, 0
1, 62093, Note_on_c, 0, 66, 64
1, 62161, Note_on_c, 0, 60, 47
1, 62169, Note_on_c, 0, 66, 0
1, 62173, Note_on_c, 0, 54, 41
1, 62185, Note_on_c, 0, 68, 59
1, 62193, Note_on_c, 0, 50, 30
1, 62233, Note_on_c, 0, 60, 0
1, 62261, Note_on_c, 0, 54, 0
1, 62265, Note_on_c, 0, 68, 0
1, 62269, Note_on_c, 0, 50, 0
1, 62289, Note_on_c, 0, 69, 50
1, 62353, Note_on_c, 0, 69, 0
1, 62389, Note_on_c, 0, 70, 57
1, 62441, Note_on_c, 0, 70, 0
1, 62497, Note_on_c, 0, 71, 48
1, 62533, Note_on_c, 0, 71, 0
1, 62581, Note_on_c, 0, 54, 42
1, 62585, Note_on_c, 0, 44, 41
1, 62585, Note_on_c, 0, 72, 57
1, 62645, Note_on_c, 0, 54, 0
1, 62697, Note_on_c, 0, 73, 58
1, 62701, Note_on_c, 0, 44, 0
1, 62713, Note_on_c, 0, 72, 0
1, 62757, Note_on_c, 0, 73, 0
1, 62781, Note_on_c, 0, 74, 79
1, 62849, Note_on_c, 0, 74, 0
1, 62881, Note_on_c, 0, 77, 107
1, 62953, Note_on_c, 0, 77, 0
1, 62977, Note_on_c, 0, 74, 68
1, 62993, Note_on_c, 0, 53, 31
1, 63021, Note_on_c, 0, 53, 0
1, 63053, Note_on_c, 0, 74, 0
1, 63081, Note_on_c, 0, 70, 58
1, 63137, Note_on_c, 0, 70, 0
1, 63169, Note_on_c, 0, 65, 49
1, 63209, Note_on_c, 0, 65, 0
1, 63273, Note_on_c, 0, 62, 54
1, 63329, Note_on_c, 0, 58, 35
1, 63333, Note_on_c, 0, 62, 0
1, 63333, Note_on_c, 0, 53, 40
1, 63353, Note_on_c, 0, 58, 0
1, 63381, Note_on_c, 0, 53, 0
1, 63425, Note_on_c, 0, 64, 58
1, 63501, Note_on_c, 0, 64, 0
1, 63533, Note_on_c, 0, 65, 79
1, 63645, Note_on_c, 0, 64, 79
1, 63673, Note_on_c, 0, 65, 0
1, 63721, Note_on_c, 0, 64, 0
1, 63749, Note_on_c, 0, 62, 63
1, 63761, Note_on_c, 0, 48, 49
1, 63869, Note_on_c, 0, 62, 0
1, 63897, Note_on_c, 0, 61, 62
1, 63965, Note_on_c, 0, 61, 0
1, 64001, Note_on_c, 0, 60, 66
1, 64061, Note_on_c, 0, 60, 0
1, 64117, Note_on_c, 0, 36, 45
1, 64125, Note_on_c, 0, 59, 45
1, 64173, Note_on_c, 0, 59, 0
1, 64173, Note_on_c, 0, 36, 0
1, 64237, Note_on_c, 0, 58, 57
1, 64253, Note_on_c, 0, 48, 0
1, 64285, Note_on_c, 0, 58, 0
1, 64353, Note_on_c, 0, 56, 52
1, 64365, Note_on_c, 0, 48, 42
1, 64433, Note_on_c, 0, 56, 0
1, 64485, Note_on_c, 0, 57, 65
1, 64513, Note_on_c, 0, 41, 30
1, 64557, Control_c, 0, 64, 127
1, 64605, Note_on_c, 0, 57, 0
1, 64625, Note_on_c, 0, 48, 0
1, 64761, Note_on_c, 0, 48, 42
1, 64861, Control_c, 0, 64, 0
1, 64881, Note_on_c, 0, 48, 0
1, 64885, Note_on_c, 0, 53, 46
1, 64889, Note_on_c, 0, 63, 56
1, 64889, Note_on_c, 0, 68, 48
1, 64913, Note_on_c, 0, 68, 0
1, 64933, Note_on_c, 0, 53, 0
1, 64949, Note_on_c, 0, 63, 0
1, 65025, Control_c, 0, 64, 127
1, 65125, Note_on_c, 0, 68, 54
1, 65137, Note_on_c, 0, 57, 47
1, 65137, Note_on_c, 0, 63, 38
1, 65145, Note_on_c, 0, 68, 0
1, 65165, Note_on_c, 0, 63, 0
1, 65181, Note_on_c, 0, 57, 0
1, 65205, Note_on_c, 0, 41, 0
1, 65245, Control_c, 0, 64, 0
1, 65265, Note_on_c, 0, 47, 43
1, 65277, Note_on_c, 0, 48, 42
1, 65289, Note_on_c, 0, 65, 39
1, 65289, Note_on_c, 0, 55, 40
1, 65293, Note_on_c, 0, 58, 37
1, 65297, Note_on_c, 0, 47, 0
1, 65297, Note_on_c, 0, 62, 39
1, 65353, Control_c, 0, 64, 127
1, 65541, Note_on_c, 0, 62, 0
1, 65549, Note_on_c, 0, 55, 0
1, 65569, Note_on_c, 0, 58, 0
1, 65621, Note_on_c, 0, 65, 0
1, 65633, Note_on_c, 0, 36, 52
1, 65661, Note_on_c, 0, 36, 0
1, 65673, Note_on_c, 0, 55, 38
1, 65673, Note_on_c, 0, 62, 47
1, 65677, Note_on_c, 0, 58, 36
1, 65693, Note_on_c, 0, 48, 0
1, 65709, Note_on_c, 0, 55, 0
1, 65761, Note_on_c, 0, 58, 0
1, 65769, Note_on_c, 0, 62, 0
1, 65909, Note_on_c, 0, 48, 51
1, 65997, Control_c, 0, 64, 0
1, 66009, Note_on_c, 0, 48, 0
1, 66053, Note_on_c, 0, 41, 35
1, 66053, Note_on_c, 0, 57, 43
1, 66061, Note_on_c, 0, 43, 31
1, 66065, Control_c, 0, 64, 127
1, 66089, Note_on_c, 0, 41, 0
1, 66109, Note_on_c, 0, 43, 0
1, 66141, Note_on_c, 0, 57, 0
1, 66157, Note_on_c, 0, 67, 57
1, 66233, Note_on_c, 0, 67, 0
1, 66285, Note_on_c, 0, 68, 66
1, 66369, Note_on_c, 0, 68, 0
1, 66405, Note_on_c, 0, 63, 48
1, 66409, Note_on_c, 0, 57, 52
1, 66413, Control_c, 0, 64, 0
1, 66417, Note_on_c, 0, 69, 63
1, 66437, Note_on_c, 0, 57, 0
1, 66453, Note_on_c, 0, 63, 0
1, 66481, Note_on_c, 0, 69, 0
1, 66481, Control_c, 0, 64, 127
1, 66541, Note_on_c, 0, 72, 57
1, 66601, Note_on_c, 0, 72, 0
1, 66665, Note_on_c, 0, 74, 64
1, 66729, Note_on_c, 0, 74, 0
1, 66801, Note_on_c, 0, 75, 56
1, 66805, Control_c, 0, 64, 0
1, 66809, Note_on_c, 0, 64, 43
1, 66809, Note_on_c, 0, 68, 43
1, 66809, Note_on_c, 0, 63, 51
1, 66813, Note_on_c, 0, 72, 45
1, 66881, Control_c, 0, 64, 127
1, 66985, Note_on_c, 0, 72, 0
1, 66985, Note_on_c, 0, 64, 0
1, 66989, Note_on_c, 0, 63, 0
1, 66997, Note_on_c, 0, 75, 0
1, 67017, Note_on_c, 0, 68, 0
1, 67049, Note_on_c, 0, 74, 72
1, 67049, Note_on_c, 0, 68, 61
1, 67053, Note_on_c, 0, 62, 58
1, 67057, Note_on_c, 0, 64, 55
1, 67121, Note_on_c, 0, 74, 0
1, 67157, Note_on_c, 0, 64, 0
1, 67157, Control_c, 0, 64, 0
1, 67177, Note_on_c, 0, 68, 0
1, 67185, Note_on_c, 0, 62, 0
1, 67197, Note_on_c, 0, 73, 58
1, 67197, Note_on_c, 0, 61, 56
1, 67201, Note_on_c, 0, 68, 40
1, 67205, Control_c, 0, 64, 127
1, 67213, Note_on_c, 0, 64, 42
1, 67269, Note_on_c, 0, 61, 0
1, 67273, Note_on_c, 0, 73, 0
1, 67281, Note_on_c, 0, 64, 0
1, 67313, Note_on_c, 0, 68, 0
1, 67433, Note_on_c, 0, 58, 42
1, 67437, Note_on_c, 0, 70, 50
1, 67449, Note_on_c, 0, 66, 42
1, 67481, Note_on_c, 0, 66, 0
1, 67529, Control_c, 0, 64, 0
1, 67533, Note_on_c, 0, 70, 0
1, 67549, Note_on_c, 0, 58, 0
1, 67557, Control_c, 0, 64, 127
1, 67573, Note_on_c, 0, 60, 50
1, 67577, Note_on_c, 0, 72, 54
1, 67589, Note_on_c, 0, 62, 43
1, 67593, Note_on_c, 0, 67, 48
1, 67605, Note_on_c, 0, 60, 0
1, 67661, Note_on_c, 0, 72, 0
1, 67665, Note_on_c, 0, 67, 0
1, 67725, Note_on_c, 0, 62, 0
1, 67937, Control_c, 0, 64, 0
1, 67949, Control_c, 0, 64, 127
1, 67949, Note_on_c, 0, 55, 47
1, 67949, Note_on_c, 0, 45, 42
1, 67965, Note_on_c, 0, 64, 49
1, 67965, Note_on_c, 0, 67, 50
1, 67969, Note_on_c, 0, 60, 46
1, 68077, Note_on_c, 0, 45, 0
1, 68125, Note_on_c, 0, 55, 0
1, 68145, Note_on_c, 0, 60, 0
1, 68197, Note_on_c, 0, 67, 0
1, 68201, Note_on_c, 0, 64, 0
1, 68345, Control_c, 0, 64, 0
1, 68349, Note_on_c, 0, 56, 42
1, 68357, Note_on_c, 0, 46, 41
1, 68357, Note_on_c, 0, 64, 45
1, 68361, Note_on_c, 0, 60, 45
1, 68369, Note_on_c, 0, 53, 39
1, 68397, Control_c, 0, 64, 127
1, 68513, Note_on_c, 0, 60, 0
1, 68533, Note_on_c, 0, 64, 0
1, 68549, Note_on_c, 0, 46, 0
1, 68569, Note_on_c, 0, 56, 0
1, 68629, Note_on_c, 0, 53, 0
1, 68725, Note_on_c, 0, 46, 45
1, 68729, Note_on_c, 0, 64, 61
1, 68737, Note_on_c, 0, 56, 42
1, 68745, Note_on_c, 0, 60, 45
1, 68777, Note_on_c, 0, 46, 0
1, 68793, Note_on_c, 0, 60, 0
1, 68797, Note_on_c, 0, 56, 0
1, 68821, Note_on_c, 0, 64, 0
1, 69105, Control_c, 0, 64, 0
1, 69105, Note_on_c, 0, 69, 57
1, 69109, Note_on_c, 0, 60, 42
1, 69109, Note_on_c, 0, 65, 57
1, 69117, Note_on_c, 0, 61, 41
1, 69129, Note_on_c, 0, 55, 38
1, 69165, Note_on_c, 0, 65, 0
1, 69201, Note_on_c, 0, 61, 0
1, 69221, Note_on_c, 0, 72, 56
1, 69237, Note_on_c, 0, 69, 0
1, 69273, Note_on_c, 0, 60, 0
1, 69289, Note_on_c, 0, 72, 0
1, 69313, Note_on_c, 0, 76, 72
1, 69345, Note_on_c, 0, 76, 0
1, 69353, Control_c, 0, 64, 127
1, 69357, Control_c, 0, 64, 0
1, 69361, Control_c, 0, 64, 127
1, 69409, Note_on_c, 0, 81, 85
1, 69417, Note_on_c, 0, 55, 0
1, 69449, Control_c, 0, 64, 0
1, 69461, Note_on_c, 0, 81, 0
1, 69491, Note_on_c, 0, 65, 75
1, 69493, Note_on_c, 0, 60, 47
1, 69493, Note_on_c, 0, 84, 111
1, 69501, Note_on_c, 0, 72, 77
1, 69501, Note_on_c, 0, 61, 47
1, 69505, Note_on_c, 0, 55, 43
1, 69505, Note_on_c, 0, 74, 81
1, 69521, Note_on_c, 0, 58, 33
1, 69525, Note_on_c, 0, 74, 0
1, 69577, Control_c, 0, 64, 127
1, 69705, Note_on_c, 0, 60, 0
1, 69705, Note_on_c, 0, 72, 0
1, 69709, Note_on_c, 0, 65, 0
1, 69725, Note_on_c, 0, 61, 0
1, 69729, Note_on_c, 0, 58, 0
1, 69733, Note_on_c, 0, 55, 0
1, 69765, Note_on_c, 0, 84, 0
1, 69841, Control_c, 0, 64, 0
1, 69857, Note_on_c, 0, 88, 79
1, 69857, Note_on_c, 0, 77, 80
1, 69861, Note_on_c, 0, 54, 61
1, 69869, Note_on_c, 0, 65, 61
1, 69877, Note_on_c, 0, 60, 56
1, 69881, Note_on_c, 0, 86, 33
1, 69921, Control_c, 0, 64, 127
1, 69925, Note_on_c, 0, 88, 0
1, 69961, Note_on_c, 0, 86, 0
1, 69969, Note_on_c, 0, 65, 0
1, 69977, Note_on_c, 0, 60, 0
1, 69997, Note_on_c, 0, 77, 0
1, 70013, Note_on_c, 0, 54, 0
1, 70037, Note_on_c, 0, 82, 75
1, 70045, Note_on_c, 0, 74, 52
1, 70053, Note_on_c, 0, 76, 56
1, 70069, Note_on_c, 0, 76, 0
1, 70221, Control_c, 0, 64, 0
1, 70253, Note_on_c, 0, 60, 55
1, 70259, Note_on_c, 0, 54, 48
1, 70259, Note_on_c, 0, 50, 46
1, 70261, Control_c, 0, 64, 127
1, 70269, Note_on_c, 0, 60, 0
1, 70309, Note_on_c, 0, 54, 0
1, 70309, Note_on_c, 0, 50, 0
1, 70473, Note_on_c, 0, 82, 0
1, 70497, Note_on_c, 0, 74, 0
1, 70509, Note_on_c, 0, 44, 60
1, 70597, Note_on_c, 0, 44, 0
1, 70641, Control_c, 0, 64, 0
1, 70661, Note_on_c, 0, 73, 58
1, 70665, Note_on_c, 0, 43, 55
1, 70673, Note_on_c, 0, 53, 48
1, 70677, Note_on_c, 0, 77, 26
1, 70717, Note_on_c, 0, 43, 0
1, 70741, Note_on_c, 0, 53, 0
1, 70765, Note_on_c, 0, 77, 0
1, 70801, Note_on_c, 0, 73, 0
1, 70809, Note_on_c, 0, 74, 57
1, 70825, Note_on_c, 0, 77, 42
1, 70845, Note_on_c, 0, 76, 38
1, 70873, Note_on_c, 0, 76, 0
1, 70881, Note_on_c, 0, 77, 0
1, 70893, Note_on_c, 0, 74, 0
1, 70941, Note_on_c, 0, 65, 54
1, 71021, Note_on_c, 0, 62, 55
1, 71025, Note_on_c, 0, 58, 47
1, 71041, Note_on_c, 0, 62, 0
1, 71045, Note_on_c, 0, 53, 43
1, 71061, Note_on_c, 0, 58, 0
1, 71077, Note_on_c, 0, 53, 0
1, 71077, Control_c, 0, 64, 127
1, 71305, Note_on_c, 0, 50, 58
1, 71341, Note_on_c, 0, 50, 0
1, 71445, Note_on_c, 0, 51, 56
1, 71453, Control_c, 0, 64, 0
1, 71461, Control_c, 0, 64, 127
1, 71537, Note_on_c, 0, 51, 0
1, 71817, Note_on_c, 0, 51, 54
1, 71841, Control_c, 0, 64, 0
1, 71853, Control_c, 0, 64, 127
1, 71869, Note_on_c, 0, 51, 0
1, 72005, Note_on_c, 0, 65, 0
1, 72165, Control_c, 0, 64, 0
1, 72177, Note_on_c, 0, 36, 57
1, 72193, Note_on_c, 0, 52, 31
1, 72229, Control_c, 0, 64, 127
1, 72253, Note_on_c, 0, 36, 0
1, 72313, Note_on_c, 0, 52, 0
1, 72321, Note_on_c, 0, 82, 75
1, 72385, Note_on_c, 0, 82, 0
1, 72441, Note_on_c, 0, 83, 94
1, 72509, Note_on_c, 0, 83, 0
1, 72549, Note_on_c, 0, 64, 57
1, 72557, Note_on_c, 0, 58, 41
1, 72557, Control_c, 0, 64, 0
1, 72565, Note_on_c, 0, 82, 82
1, 72569, Note_on_c, 0, 64, 0
1, 72597, Note_on_c, 0, 58, 0
1, 72609, Note_on_c, 0, 82, 0
1, 72625, Note_on_c, 0, 83, 56
1, 72681, Note_on_c, 0, 82, 58
1, 72685, Note_on_c, 0, 83, 0
1, 72725, Note_on_c, 0, 80, 52
1, 72733, Note_on_c, 0, 82, 0
1, 72777, Note_on_c, 0, 80, 0
1, 72789, Note_on_c, 0, 77, 56
1, 72809, Note_on_c, 0, 77, 0
1, 72857, Note_on_c, 0, 75, 51
1, 72909, Note_on_c, 0, 75, 0
1, 72909, Note_on_c, 0, 72, 62
1, 72909, Note_on_c, 0, 62, 32
1, 72917, Note_on_c, 0, 58, 40
1, 72925, Note_on_c, 0, 52, 34
1, 72957, Note_on_c, 0, 72, 0
1, 72981, Note_on_c, 0, 62, 0
1, 72981, Note_on_c, 0, 70, 61
1, 73021, Note_on_c, 0, 77, 39
1, 73037, Note_on_c, 0, 58, 0
1, 73045, Note_on_c, 0, 70, 0
1, 73069, Note_on_c, 0, 74, 60
1, 73073, Note_on_c, 0, 77, 0
1, 73093, Note_on_c, 0, 71, 23
1, 73121, Note_on_c, 0, 74, 0
1, 73145, Note_on_c, 0, 71, 0
1, 73153, Note_on_c, 0, 52, 0
1, 73161, Note_on_c, 0, 65, 44
1, 73181, Note_on_c, 0, 65, 0
1, 73213, Note_on_c, 0, 70, 60
1, 73217, Note_on_c, 0, 74, 48
1, 73261, Note_on_c, 0, 74, 0
1, 73277, Note_on_c, 0, 70, 0
1, 73289, Note_on_c, 0, 65, 61
1, 73289, Note_on_c, 0, 58, 44
1, 73309, Note_on_c, 0, 65, 0
1, 73329, Note_on_c, 0, 52, 22
1, 73337, Note_on_c, 0, 58, 0
1, 73341, Note_on_c, 0, 68, 61
1, 73365, Note_on_c, 0, 52, 0
1, 73365, Note_on_c, 0, 72, 40
1, 73381, Note_on_c, 0, 70, 32
1, 73401, Note_on_c, 0, 68, 0
1, 73405, Note_on_c, 0, 70, 0
1, 73417, Note_on_c, 0, 69, 53
1, 73429, Note_on_c, 0, 72, 0
1, 73457, Note_on_c, 0, 65, 46
1, 73461, Note_on_c, 0, 69, 0
1, 73477, Note_on_c, 0, 65, 0
1, 73501, Note_on_c, 0, 62, 58
1, 73521, Note_on_c, 0, 62, 0
1, 73589, Note_on_c, 0, 65, 39
1, 73637, Note_on_c, 0, 65, 0
1, 73649, Note_on_c, 0, 48, 32
1, 73689, Note_on_c, 0, 56, 51
1, 73709, Note_on_c, 0, 65, 9
1, 73737, Note_on_c, 0, 41, 40
1, 73769, Note_on_c, 0, 56, 0
1, 73781, Note_on_c, 0, 57, 53
1, 73801, Control_c, 0, 64, 127
1, 73953, Note_on_c, 0, 48, 0
1, 74053, Note_on_c, 0, 57, 0
1, 74057, Note_on_c, 0, 65, 0
1, 74073, Note_on_c, 0, 41, 0
1, 74097, Control_c, 0, 64, 0
1, 74121, Note_on_c, 0, 65, 50
1, 74125, Note_on_c, 0, 58, 60
1, 74129, Note_on_c, 0, 50, 45
1, 74141, Note_on_c, 0, 41, 41
1, 74185, Control_c, 0, 64, 127
1, 74341, Note_on_c, 0, 58, 0
1, 74369, Note_on_c, 0, 50, 0
1, 74389, Note_on_c, 0, 65, 0
1, 74389, Note_on_c, 0, 48, 41
1, 74421, Note_on_c, 0, 41, 0
1, 74461, Note_on_c, 0, 48, 0
1, 74461, Control_c, 0, 64, 0
1, 74501, Note_on_c, 0, 60, 57
1, 74501, Note_on_c, 0, 51, 54
1, 74505, Note_on_c, 0, 65, 56
1, 74517, Note_on_c, 0, 41, 39
1, 74561, Control_c, 0, 64, 127
1, 74669, Note_on_c, 0, 51, 0
1, 74685, Note_on_c, 0, 65, 0
1, 74729, Note_on_c, 0, 50, 56
1, 74737, Note_on_c, 0, 65, 48
1, 74741, Note_on_c, 0, 59, 64
1, 74765, Note_on_c, 0, 60, 0
1, 74813, Note_on_c, 0, 65, 0
1, 74821, Control_c, 0, 64, 0
1, 74829, Note_on_c, 0, 50, 0
1, 74837, Note_on_c, 0, 59, 0
1, 74873, Note_on_c, 0, 65, 47
1, 74873, Note_on_c, 0, 49, 45
1, 74877, Note_on_c, 0, 58, 57
1, 74885, Control_c, 0, 64, 127
1, 74933, Note_on_c, 0, 41, 0
1, 75033, Note_on_c, 0, 65, 0
1, 75101, Note_on_c, 0, 49, 0
1, 75113, Note_on_c, 0, 41, 46
1, 75125, Note_on_c, 0, 56, 58
1, 75185, Note_on_c, 0, 58, 0
1, 75205, Control_c, 0, 64, 0
1, 75213, Note_on_c, 0, 56, 0
1, 75257, Note_on_c, 0, 48, 41
1, 75269, Note_on_c, 0, 57, 50
1, 75269, Control_c, 0, 64, 127
1, 75269, Note_on_c, 0, 65, 45
1, 75305, Note_on_c, 0, 41, 0
1, 75345, Note_on_c, 0, 48, 0
1, 75449, Note_on_c, 0, 57, 0
1, 75461, Note_on_c, 0, 65, 0
1, 75509, Note_on_c, 0, 60, 61
1, 75513, Note_on_c, 0, 50, 48
1, 75613, Note_on_c, 0, 60, 0
1, 75625, Note_on_c, 0, 50, 0
1, 75625, Control_c, 0, 64, 24
1, 75625, Control_c, 0, 64, 0
1, 75645, Note_on_c, 0, 51, 53
1, 75657, Note_on_c, 0, 57, 49
1, 75657, Note_on_c, 0, 62, 54
1, 75741, Control_c, 0, 64, 127
1, 75749, Note_on_c, 0, 51, 0
1, 75833, Note_on_c, 0, 57, 0
1, 75869, Note_on_c, 0, 62, 0
1, 75901, Note_on_c, 0, 48, 44
1, 76017, Note_on_c, 0, 48, 0
1, 76021, Control_c, 0, 64, 0
1, 76041, Note_on_c, 0, 63, 50
1, 76049, Note_on_c, 0, 60, 45
1, 76049, Note_on_c, 0, 51, 39
1, 76049, Note_on_c, 0, 57, 46
1, 76061, Control_c, 0, 64, 127
1, 76105, Note_on_c, 0, 51, 0
1, 76161, Note_on_c, 0, 57, 0
1, 76165, Note_on_c, 0, 60, 0
1, 76307, Note_on_c, 0, 63, 0
1, 76377, Control_c, 0, 64, 0
1, 76389, Note_on_c, 0, 66, 50
1, 76401, Note_on_c, 0, 52, 39
1, 76403, Note_on_c, 0, 61, 45
1, 76403, Note_on_c, 0, 57, 32
1, 76409, Note_on_c, 0, 42, 34
1, 76409, Note_on_c, 0, 63, 43
1, 76441, Control_c, 0, 64, 127
1, 76465, Note_on_c, 0, 52, 0
1, 76525, Note_on_c, 0, 57, 0
1, 76545, Note_on_c, 0, 66, 0
1, 76561, Note_on_c, 0, 61, 0
1, 76569, Note_on_c, 0, 42, 0
1, 76573, Note_on_c, 0, 63, 0
1, 76653, Note_on_c, 0, 65, 57
1, 76661, Note_on_c, 0, 62, 46
1, 76661, Note_on_c, 0, 57, 36
1, 76685, Note_on_c, 0, 57, 0
1, 76705, Note_on_c, 0, 62, 0
1, 76717, Control_c, 0, 64, 0
1, 76741, Note_on_c, 0, 65, 0
1, 76773, Note_on_c, 0, 41, 42
1, 76781, Note_on_c, 0, 51, 27
1, 76785, Control_c, 0, 64, 127
1, 76801, Note_on_c, 0, 41, 0
1, 76853, Note_on_c, 0, 51, 0
1, 76925, Note_on_c, 0, 89, 81
1, 77017, Note_on_c, 0, 89, 0
1, 77045, Note_on_c, 0, 86, 75
1, 77129, Note_on_c, 0, 86, 0
1, 77165, Note_on_c, 0, 68, 49
1, 77173, Note_on_c, 0, 87, 63
1, 77181, Note_on_c, 0, 58, 39
1, 77185, Control_c, 0, 64, 0
1, 77197, Note_on_c, 0, 62, 35
1, 77201, Note_on_c, 0, 63, 26
1, 77277, Note_on_c, 0, 87, 0
1, 77301, Note_on_c, 0, 83, 44
1, 77309, Control_c, 0, 64, 127
1, 77341, Note_on_c, 0, 68, 0
1, 77361, Note_on_c, 0, 62, 0
1, 77381, Note_on_c, 0, 83, 0
1, 77393, Note_on_c, 0, 63, 0
1, 77413, Note_on_c, 0, 58, 0
1, 77425, Note_on_c, 0, 86, 78
1, 77513, Note_on_c, 0, 86, 0
1, 77549, Note_on_c, 0, 63, 43
1, 77553, Note_on_c, 0, 67, 52
1, 77569, Note_on_c, 0, 62, 31
1, 77589, Note_on_c, 0, 83, 71
1, 77601, Control_c, 0, 64, 0
1, 77613, Note_on_c, 0, 67, 0
1, 77641, Note_on_c, 0, 63, 0
1, 77645, Note_on_c, 0, 62, 0
1, 77649, Control_c, 0, 64, 127
1, 77837, Note_on_c, 0, 49, 17
1, 77877, Note_on_c, 0, 49, 0
1, 77937, Control_c, 0, 64, 0
1, 77957, Note_on_c, 0, 41, 50
1, 77973, Note_on_c, 0, 41, 0
1, 77981, Control_c, 0, 64, 127
1, 78153, Note_on_c, 0, 83, 0
1, 78209, Note_on_c, 0, 86, 94
1, 78309, Note_on_c, 0, 86, 0
1, 78341, Note_on_c, 0, 67, 54
1, 78345, Note_on_c, 0, 62, 39
1, 78353, Note_on_c, 0, 63, 37
1, 78353, Note_on_c, 0, 84, 76
1, 78365, Control_c, 0, 64, 0
1, 78365, Note_on_c, 0, 57, 33
1, 78449, Note_on_c, 0, 84, 0
1, 78457, Control_c, 0, 64, 127
1, 78469, Note_on_c, 0, 67, 0
1, 78469, Note_on_c, 0, 57, 0
1, 78473, Note_on_c, 0, 86, 77
1, 78497, Note_on_c, 0, 63, 0
1, 78497, Note_on_c, 0, 62, 0
1, 78545, Note_on_c, 0, 86, 0
1, 78561, Note_on_c, 0, 84, 63
1, 78633, Note_on_c, 0, 84, 0
1, 78657, Note_on_c, 0, 83, 72
1, 78717, Note_on_c, 0, 63, 33
1, 78721, Control_c, 0, 64, 0
1, 78725, Note_on_c, 0, 67, 24
1, 78729, Note_on_c, 0, 83, 0
1, 78729, Note_on_c, 0, 62, 31
1, 78821, Note_on_c, 0, 79, 33
1, 78869, Control_c, 0, 64, 127
1, 78873, Note_on_c, 0, 79, 0
1, 78873, Note_on_c, 0, 67, 0
1, 78973, Note_on_c, 0, 75, 60
1, 78977, Note_on_c, 0, 62, 0
1, 78977, Note_on_c, 0, 63, 0
1, 79041, Note_on_c, 0, 75, 0
1, 79049, Note_on_c, 0, 74, 66
1, 79089, Note_on_c, 0, 74, 0
1, 79101, Note_on_c, 0, 67, 39
1, 79109, Note_on_c, 0, 63, 36
1, 79125, Note_on_c, 0, 79, 79
1, 79133, Control_c, 0, 64, 0
1, 79177, Note_on_c, 0, 67, 0
1, 79193, Note_on_c, 0, 79, 0
1, 79213, Note_on_c, 0, 74, 48
1, 79229, Note_on_c, 0, 63, 0
1, 79253, Note_on_c, 0, 74, 0
1, 79289, Note_on_c, 0, 77, 68
1, 79361, Note_on_c, 0, 75, 60
1, 79377, Note_on_c, 0, 77, 0
1, 79441, Note_on_c, 0, 72, 57
1, 79453, Note_on_c, 0, 75, 0
1, 79469, Note_on_c, 0, 63, 34
1, 79473, Note_on_c, 0, 72, 0
1, 79473, Note_on_c, 0, 57, 37
1, 79481, Control_c, 0, 64, 127
1, 79505, Note_on_c, 0, 69, 54
1, 79513, Note_on_c, 0, 57, 0
1, 79513, Note_on_c, 0, 63, 0
1, 79561, Note_on_c, 0, 69, 0
1, 79709, Note_on_c, 0, 65, 43
1, 79741, Note_on_c, 0, 65, 0
1, 79753, Note_on_c, 0, 68, 44
1, 79777, Note_on_c, 0, 68, 0
1, 79781, Note_on_c, 0, 69, 48
1, 79809, Note_on_c, 0, 69, 0
1, 79817, Control_c, 0, 64, 0
1, 79829, Note_on_c, 0, 72, 72
1, 79849, Note_on_c, 0, 46, 36
1, 79901, Note_on_c, 0, 72, 0
1, 79901, Note_on_c, 0, 69, 58
1, 79905, Note_on_c, 0, 53, 13
1, 79933, Control_c, 0, 64, 127
1, 80037, Note_on_c, 0, 69, 0
1, 80041, Note_on_c, 0, 53, 0
1, 80233, Note_on_c, 0, 46, 0
1, 80241, Note_on_c, 0, 53, 43
1, 80249, Note_on_c, 0, 58, 54
1, 80261, Control_c, 0, 64, 0
1, 80277, Note_on_c, 0, 58, 0
1, 80293, Note_on_c, 0, 60, 63
1, 80329, Note_on_c, 0, 53, 0
1, 80337, Note_on_c, 0, 60, 0
1, 80341, Note_on_c, 0, 58, 52
1, 80381, Control_c, 0, 64, 127
1, 80409, Note_on_c, 0, 58, 0
1, 80413, Note_on_c, 0, 57, 55
1, 80481, Note_on_c, 0, 57, 0
1, 80489, Note_on_c, 0, 58, 58
1, 80541, Note_on_c, 0, 58, 0
1, 80609, Note_on_c, 0, 57, 52
1, 80621, Note_on_c, 0, 62, 62
1, 80633, Note_on_c, 0, 57, 0
1, 80633, Control_c, 0, 64, 0
1, 80685, Note_on_c, 0, 62, 0
1, 80693, Note_on_c, 0, 64, 52
1, 80729, Note_on_c, 0, 64, 0
1, 80733, Note_on_c, 0, 62, 61
1, 80789, Note_on_c, 0, 62, 0
1, 80789, Note_on_c, 0, 61, 57
1, 80841, Note_on_c, 0, 61, 0
1, 80873, Note_on_c, 0, 62, 65
1, 80913, Control_c, 0, 64, 127
1, 80921, Note_on_c, 0, 62, 0
1, 80921, Control_c, 0, 64, 0
1, 80925, Control_c, 0, 64, 127
1, 81013, Control_c, 0, 64, 0
1, 81017, Note_on_c, 0, 62, 43
1, 81017, Note_on_c, 0, 65, 75
1, 81045, Note_on_c, 0, 60, 32
1, 81081, Note_on_c, 0, 65, 0
1, 81105, Note_on_c, 0, 66, 54
1, 81145, Note_on_c, 0, 65, 52
1, 81169, Note_on_c, 0, 66, 0
1, 81201, Note_on_c, 0, 65, 0
1, 81209, Note_on_c, 0, 64, 42
1, 81265, Note_on_c, 0, 64, 0
1, 81277, Note_on_c, 0, 60, 0
1, 81277, Note_on_c, 0, 65, 64
1, 81293, Note_on_c, 0, 62, 0
1, 81313, Note_on_c, 0, 65, 0
1, 81395, Note_on_c, 0, 70, 66
1, 81395, Note_on_c, 0, 65, 45
1, 81395, Note_on_c, 0, 62, 51
1, 81421, Note_on_c, 0, 65, 0
1, 81421, Note_on_c, 0, 60, 32
1, 81481, Note_on_c, 0, 70, 0
1, 81497, Note_on_c, 0, 72, 49
1, 81529, Note_on_c, 0, 70, 42
1, 81545, Note_on_c, 0, 72, 0
1, 81585, Note_on_c, 0, 69, 54
1, 81609, Note_on_c, 0, 70, 0
1, 81649, Note_on_c, 0, 69, 0
1, 81689, Note_on_c, 0, 70, 62
1, 81737, Note_on_c, 0, 70, 0
1, 81781, Note_on_c, 0, 53, 46
1, 81813, Note_on_c, 0, 74, 61
1, 81889, Note_on_c, 0, 74, 0
1, 81893, Note_on_c, 0, 53, 0
1, 81893, Note_on_c, 0, 75, 53
1, 81933, Note_on_c, 0, 74, 54
1, 81957, Note_on_c, 0, 75, 0
1, 81973, Note_on_c, 0, 60, 0
1, 81977, Note_on_c, 0, 62, 0
1, 81985, Note_on_c, 0, 73, 48
1, 81989, Note_on_c, 0, 74, 0
1, 82033, Note_on_c, 0, 73, 0
1, 82077, Note_on_c, 0, 74, 67
1, 82133, Note_on_c, 0, 74, 0
1, 82177, Note_on_c, 0, 65, 39
1, 82181, Note_on_c, 0, 62, 45
1, 82201, Note_on_c, 0, 79, 72
1, 82205, Note_on_c, 0, 65, 0
1, 82205, Note_on_c, 0, 60, 32
1, 82337, Control_c, 0, 64, 127
1, 82381, Note_on_c, 0, 79, 0
1, 82421, Note_on_c, 0, 81, 72
1, 82513, Note_on_c, 0, 81, 0
1, 82533, Control_c, 0, 64, 0
1, 82553, Note_on_c, 0, 60, 0
1, 82553, Note_on_c, 0, 53, 39
1, 82557, Note_on_c, 0, 82, 81
1, 82565, Note_on_c, 0, 62, 0
1, 82605, Control_c, 0, 64, 127
1, 82617, Note_on_c, 0, 53, 0
1, 82641, Note_on_c, 0, 82, 0
1, 82677, Note_on_c, 0, 83, 64
1, 82745, Note_on_c, 0, 83, 0
1, 82797, Note_on_c, 0, 85, 66
1, 82865, Note_on_c, 0, 85, 0
1, 82905, Control_c, 0, 64, 0
1, 82921, Note_on_c, 0, 43, 48
1, 82929, Note_on_c, 0, 50, 43
1, 82931, Note_on_c, 0, 74, 60
1, 82941, Note_on_c, 0, 86, 52
1, 82949, Note_on_c, 0, 59, 36
1, 82969, Control_c, 0, 64, 127
1, 83013, Note_on_c, 0, 43, 0
1, 83041, Note_on_c, 0, 50, 0
1, 83053, Note_on_c, 0, 59, 0
1, 83153, Note_on_c, 0, 74, 0
1, 83169, Note_on_c, 0, 86, 0
1, 83321, Control_c, 0, 64, 0
1, 83329, Note_on_c, 0, 65, 60
1, 83333, Note_on_c, 0, 60, 55
1, 83333, Note_on_c, 0, 88, 72
1, 83341, Note_on_c, 0, 76, 72
1, 83345, Note_on_c, 0, 54, 49
1, 83405, Control_c, 0, 64, 127
1, 83501, Note_on_c, 0, 60, 0
1, 83509, Note_on_c, 0, 65, 0
1, 83529, Note_on_c, 0, 88, 0
1, 83569, Note_on_c, 0, 76, 0
1, 83585, Note_on_c, 0, 54, 0
1, 83705, Control_c, 0, 64, 0
1, 83725, Note_on_c, 0, 86, 64
1, 83729, Note_on_c, 0, 59, 48
1, 83729, Note_on_c, 0, 64, 40
1, 83737, Note_on_c, 0, 53, 43
1, 83741, Note_on_c, 0, 74, 27
1, 83797, Note_on_c, 0, 74, 0
1, 83817, Note_on_c, 0, 86, 0
1, 83849, Note_on_c, 0, 85, 63
1, 83921, Note_on_c, 0, 85, 0
1, 83937, Note_on_c, 0, 81, 54
1, 83949, Note_on_c, 0, 64, 0
1, 84005, Note_on_c, 0, 81, 0
1, 84045, Note_on_c, 0, 82, 74
1, 84085, Note_on_c, 0, 64, 35
1, 84105, Note_on_c, 0, 82, 0
1, 84113, Note_on_c, 0, 64, 0
1, 84129, Note_on_c, 0, 83, 63
1, 84137, Note_on_c, 0, 59, 0
1, 84173, Note_on_c, 0, 53, 0
1, 84225, Note_on_c, 0, 83, 0
1, 84237, Note_on_c, 0, 79, 72
1, 84281, Note_on_c, 0, 79, 0
1, 84317, Note_on_c, 0, 74, 34
1, 84365, Note_on_c, 0, 74, 0
1, 84437, Note_on_c, 0, 72, 26
1, 84457, Note_on_c, 0, 72, 0
1, 84497, Note_on_c, 0, 53, 39
1, 84497, Note_on_c, 0, 43, 41
1, 84509, Note_on_c, 0, 70, 54
1, 84581, Note_on_c, 0, 43, 0
1, 84589, Note_on_c, 0, 70, 0
1, 84613, Note_on_c, 0, 53, 0
1, 84621, Note_on_c, 0, 71, 58
1, 84681, Note_on_c, 0, 71, 0
1, 84697, Note_on_c, 0, 72, 72
1, 84761, Note_on_c, 0, 72, 0
1, 84805, Note_on_c, 0, 73, 74
1, 84861, Note_on_c, 0, 64, 56
1, 84865, Note_on_c, 0, 73, 0
1, 84873, Note_on_c, 0, 59, 50
1, 84877, Note_on_c, 0, 64, 0
1, 84877, Note_on_c, 0, 53, 38
1, 84885, Note_on_c, 0, 74, 75
1, 84897, Note_on_c, 0, 59, 0
1, 84945, Note_on_c, 0, 74, 0
1, 84945, Note_on_c, 0, 53, 0
1, 84985, Note_on_c, 0, 71, 72
1, 85033, Note_on_c, 0, 71, 0
1, 85069, Note_on_c, 0, 67, 31
1, 85133, Note_on_c, 0, 67, 0
1, 85169, Note_on_c, 0, 62, 50
1, 85169, Note_on_c, 0, 50, 46
1, 85237, Note_on_c, 0, 62, 0
1, 85249, Note_on_c, 0, 50, 0
1, 85253, Note_on_c, 0, 53, 46
1, 85269, Note_on_c, 0, 43, 40
1, 85269, Note_on_c, 0, 61, 40
1, 85273, Note_on_c, 0, 67, 37
1, 85321, Note_on_c, 0, 61, 0
1, 85329, Note_on_c, 0, 62, 48
1, 85345, Note_on_c, 0, 67, 0
1, 85349, Note_on_c, 0, 62, 0
1, 85409, Note_on_c, 0, 53, 0
1, 85421, Note_on_c, 0, 67, 50
1, 85425, Note_on_c, 0, 61, 55
1, 85433, Note_on_c, 0, 50, 33
1, 85469, Note_on_c, 0, 50, 0
1, 85481, Note_on_c, 0, 61, 0
1, 85489, Note_on_c, 0, 62, 54
1, 85509, Note_on_c, 0, 62, 0
1, 85537, Note_on_c, 0, 67, 0
1, 85609, Note_on_c, 0, 58, 59
1, 85613, Note_on_c, 0, 50, 43
1, 85653, Note_on_c, 0, 50, 0
1, 85689, Note_on_c, 0, 58, 0
1, 85689, Control_c, 0, 64, 104
1, 85693, Control_c, 0, 64, 127
1, 85697, Note_on_c, 0, 59, 39
1, 85721, Note_on_c, 0, 43, 0
1, 85729, Note_on_c, 0, 59, 0
1, 85757, Note_on_c, 0, 55, 49
1, 85785, Note_on_c, 0, 55, 0
1, 85857, Note_on_c, 0, 58, 79
1, 85857, Note_on_c, 0, 65, 75
1, 85861, Note_on_c, 0, 62, 71
1, 85861, Note_on_c, 0, 53, 63
1, 85869, Note_on_c, 0, 63, 31
1, 85873, Note_on_c, 0, 55, 50
1, 85885, Control_c, 0, 64, 0
1, 85893, Note_on_c, 0, 55, 0
1, 85993, Note_on_c, 0, 50, 50
1, 86093, Control_c, 0, 64, 127
1, 86145, Note_on_c, 0, 62, 0
1, 86165, Note_on_c, 0, 53, 0
1, 86189, Note_on_c, 0, 58, 0
1, 86205, Note_on_c, 0, 65, 0
1, 86209, Note_on_c, 0, 63, 0
1, 86229, Note_on_c, 0, 50, 0
1, 86241, Control_c, 0, 64, 0
1, 86249, Note_on_c, 0, 61, 58
1, 86249, Note_on_c, 0, 49, 59
1, 86253, Note_on_c, 0, 58, 50
1, 86269, Note_on_c, 0, 53, 40
1, 86317, Note_on_c, 0, 53, 0
1, 86341, Note_on_c, 0, 49, 0
1, 86353, Note_on_c, 0, 61, 0
1, 86377, Note_on_c, 0, 62, 54
1, 86381, Note_on_c, 0, 50, 59
1, 86425, Note_on_c, 0, 58, 0
1, 86437, Note_on_c, 0, 62, 0
1, 86457, Control_c, 0, 64, 127
1, 86465, Note_on_c, 0, 50, 0
1, 86493, Note_on_c, 0, 65, 39
1, 86517, Note_on_c, 0, 65, 0
1, 86621, Note_on_c, 0, 69, 52
1, 86621, Note_on_c, 0, 57, 62
1, 86641, Note_on_c, 0, 69, 0
1, 86693, Control_c, 0, 64, 0
1, 86713, Note_on_c, 0, 57, 0
1, 86753, Note_on_c, 0, 65, 61
1, 86753, Note_on_c, 0, 72, 65
1, 86757, Note_on_c, 0, 62, 55
1, 86757, Note_on_c, 0, 69, 52
1, 86769, Note_on_c, 0, 60, 48
1, 86777, Control_c, 0, 64, 127
1, 86969, Note_on_c, 0, 69, 0
1, 86997, Note_on_c, 0, 62, 0
1, 86997, Note_on_c, 0, 65, 0
1, 87057, Note_on_c, 0, 72, 0
1, 87117, Note_on_c, 0, 60, 0
1, 87125, Note_on_c, 0, 59, 48
1, 87129, Note_on_c, 0, 71, 52
1, 87137, Note_on_c, 0, 62, 43
1, 87141, Note_on_c, 0, 65, 43
1, 87153, Note_on_c, 0, 59, 0
1, 87257, Note_on_c, 0, 71, 0
1, 87353, Note_on_c, 0, 62, 0
1, 87397, Note_on_c, 0, 65, 0
1, 87509, Note_on_c, 0, 59, 57
1, 87521, Note_on_c, 0, 49, 36
1, 87529, Note_on_c, 0, 53, 45
1, 87529, Control_c, 0, 64, 0
1, 87565, Note_on_c, 0, 59, 0
1, 87577, Note_on_c, 0, 53, 0
1, 87613, Note_on_c, 0, 49, 0
1, 87617, Note_on_c, 0, 59, 46
1, 87653, Note_on_c, 0, 59, 0
1, 87673, Note_on_c, 0, 61, 44
1, 87725, Note_on_c, 0, 61, 0
1, 87781, Note_on_c, 0, 65, 46
1, 87821, Note_on_c, 0, 65, 0
1, 87845, Note_on_c, 0, 67, 45
1, 87881, Note_on_c, 0, 68, 45
1, 87913, Note_on_c, 0, 37, 42
1, 87917, Note_on_c, 0, 67, 0
1, 87921, Note_on_c, 0, 44, 43
1, 87933, Note_on_c, 0, 70, 48
1, 87945, Note_on_c, 0, 68, 0
1, 87953, Note_on_c, 0, 70, 0
1, 87965, Note_on_c, 0, 37, 0
1, 87973, Note_on_c, 0, 44, 0
1, 87973, Note_on_c, 0, 71, 48
1, 88025, Note_on_c, 0, 71, 0
1, 88045, Note_on_c, 0, 72, 21
1, 88069, Note_on_c, 0, 72, 0
1, 88069, Note_on_c, 0, 73, 50
1, 88093, Note_on_c, 0, 73, 0
1, 88117, Note_on_c, 0, 74, 38
1, 88157, Note_on_c, 0, 75, 61
1, 88165, Note_on_c, 0, 74, 0
1, 88197, Note_on_c, 0, 75, 0
1, 88249, Note_on_c, 0, 77, 72
1, 88301, Note_on_c, 0, 77, 0
1, 88301, Note_on_c, 0, 36, 45
1, 88317, Note_on_c, 0, 75, 66
1, 88317, Note_on_c, 0, 52, 33
1, 88325, Note_on_c, 0, 36, 0
1, 88333, Note_on_c, 0, 75, 0
1, 88345, Note_on_c, 0, 76, 57
1, 88373, Note_on_c, 0, 52, 0
1, 88445, Note_on_c, 0, 76, 0
1, 88461, Note_on_c, 0, 72, 63
1, 88517, Note_on_c, 0, 72, 0
1, 88573, Note_on_c, 0, 67, 41
1, 88653, Note_on_c, 0, 67, 0
1, 88681, Note_on_c, 0, 61, 39
1, 88691, Note_on_c, 0, 58, 40
1, 88693, Note_on_c, 0, 55, 39
1, 88697, Note_on_c, 0, 65, 52
1, 88713, Note_on_c, 0, 61, 0
1, 88725, Note_on_c, 0, 58, 0
1, 88729, Note_on_c, 0, 55, 0
1, 88769, Note_on_c, 0, 65, 0
1, 88817, Note_on_c, 0, 60, 50
1, 88893, Note_on_c, 0, 60, 0
1, 88945, Note_on_c, 0, 61, 64
1, 88969, Note_on_c, 0, 48, 31
1, 89053, Note_on_c, 0, 48, 0
1, 89057, Note_on_c, 0, 61, 0
1, 89085, Note_on_c, 0, 50, 48
1, 89085, Note_on_c, 0, 62, 62
1, 89097, Note_on_c, 0, 41, 40
1, 89133, Note_on_c, 0, 41, 0
1, 89157, Control_c, 0, 64, 127
1, 89189, Note_on_c, 0, 50, 0
1, 89209, Note_on_c, 0, 62, 0
1, 89217, Note_on_c, 0, 65, 56
1, 89249, Control_c, 0, 64, 0
1, 89321, Note_on_c, 0, 65, 0
1, 89341, Control_c, 0, 64, 127
1, 89441, Control_c, 0, 64, 0
1, 89481, Note_on_c, 0, 60, 45
1, 89485, Note_on_c, 0, 65, 61
1, 89497, Note_on_c, 0, 53, 36
1, 89525, Note_on_c, 0, 60, 0
1, 89525, Control_c, 0, 64, 127
1, 89573, Note_on_c, 0, 53, 0
1, 89677, Note_on_c, 0, 65, 0
1, 89737, Note_on_c, 0, 62, 47
1, 89749, Note_on_c, 0, 43, 37
1, 89757, Note_on_c, 0, 62, 0
1, 89825, Control_c, 0, 64, 0
1, 89857, Note_on_c, 0, 43, 0
1, 89865, Note_on_c, 0, 65, 46
1, 89873, Note_on_c, 0, 58, 42
1, 89873, Note_on_c, 0, 36, 41
1, 89881, Note_on_c, 0, 53, 31
1, 89889, Note_on_c, 0, 62, 39
1, 89893, Note_on_c, 0, 48, 19
1, 89945, Control_c, 0, 64, 127
1, 89961, Note_on_c, 0, 53, 0
1, 89961, Note_on_c, 0, 36, 0
1, 90001, Note_on_c, 0, 62, 0
1, 90005, Note_on_c, 0, 58, 0
1, 90013, Note_on_c, 0, 65, 0
1, 90025, Note_on_c, 0, 48, 0
1, 90249, Control_c, 0, 64, 0
1, 90257, Note_on_c, 0, 42, 50
1, 90261, Note_on_c, 0, 86, 86
1, 90261, Note_on_c, 0, 80, 84
1, 90265, Note_on_c, 0, 74, 76
1, 90273, Note_on_c, 0, 50, 45
1, 90273, Note_on_c, 0, 49, 34
1, 90313, Note_on_c, 0, 49, 0
1, 90313, Note_on_c, 0, 42, 0
1, 90325, Note_on_c, 0, 50, 0
1, 90325, Note_on_c, 0, 80, 0
1, 90333, Note_on_c, 0, 81, 50
1, 90341, Control_c, 0, 64, 127
1, 90405, Note_on_c, 0, 81, 0
1, 90421, Note_on_c, 0, 86, 0
1, 90437, Note_on_c, 0, 74, 0
1, 90517, Note_on_c, 0, 80, 88
1, 90517, Note_on_c, 0, 84, 99
1, 90517, Note_on_c, 0, 72, 99
1, 90541, Note_on_c, 0, 78, 36
1, 90561, Control_c, 0, 64, 0
1, 90565, Note_on_c, 0, 78, 0
1, 90577, Note_on_c, 0, 81, 58
1, 90581, Note_on_c, 0, 72, 0
1, 90585, Note_on_c, 0, 80, 0
1, 90597, Note_on_c, 0, 41, 46
1, 90621, Note_on_c, 0, 84, 0
1, 90629, Note_on_c, 0, 57, 39
1, 90633, Note_on_c, 0, 81, 0
1, 90633, Note_on_c, 0, 72, 45
1, 90645, Note_on_c, 0, 41, 0
1, 90645, Control_c, 0, 64, 127
1, 90681, Note_on_c, 0, 57, 0
1, 90685, Note_on_c, 0, 72, 0
1, 90693, Note_on_c, 0, 84, 44
1, 90737, Note_on_c, 0, 84, 0
1, 90741, Note_on_c, 0, 72, 48
1, 90789, Note_on_c, 0, 72, 0
1, 90805, Note_on_c, 0, 84, 48
1, 90849, Note_on_c, 0, 84, 0
1, 90849, Note_on_c, 0, 72, 44
1, 90901, Note_on_c, 0, 72, 0
1, 90909, Note_on_c, 0, 84, 48
1, 90961, Note_on_c, 0, 84, 0
1, 90965, Note_on_c, 0, 72, 47
1, 90981, Note_on_c, 0, 62, 50
1, 90993, Note_on_c, 0, 60, 43
1, 91005, Note_on_c, 0, 53, 31
1, 91017, Note_on_c, 0, 72, 0
1, 91017, Control_c, 0, 64, 0
1, 91025, Note_on_c, 0, 62, 0
1, 91025, Note_on_c, 0, 57, 32
1, 91025, Note_on_c, 0, 84, 45
1, 91045, Note_on_c, 0, 60, 0
1, 91073, Note_on_c, 0, 53, 0
1, 91073, Note_on_c, 0, 84, 0
1, 91073, Control_c, 0, 64, 127
1, 91077, Note_on_c, 0, 57, 0
1, 91081, Note_on_c, 0, 72, 41
1, 91129, Note_on_c, 0, 72, 0
1, 91137, Note_on_c, 0, 84, 43
1, 91189, Note_on_c, 0, 84, 0
1, 91193, Note_on_c, 0, 72, 41
1, 91245, Note_on_c, 0, 72, 0
1, 91253, Note_on_c, 0, 84, 55
1, 91313, Note_on_c, 0, 84, 0
1, 91317, Note_on_c, 0, 72, 45
1, 91373, Note_on_c, 0, 72, 0
1, 91377, Note_on_c, 0, 84, 49
1, 91385, Note_on_c, 0, 58, 46
1, 91389, Note_on_c, 0, 48, 45
1, 91401, Control_c, 0, 64, 0
1, 91429, Note_on_c, 0, 84, 0
1, 91433, Note_on_c, 0, 48, 0
1, 91437, Note_on_c, 0, 72, 43
1, 91449, Control_c, 0, 64, 127
1, 91481, Note_on_c, 0, 58, 0
1, 91493, Note_on_c, 0, 72, 0
1, 91497, Note_on_c, 0, 84, 48
1, 91545, Note_on_c, 0, 84, 0
1, 91553, Note_on_c, 0, 72, 43
1, 91609, Note_on_c, 0, 72, 0
1, 91613, Note_on_c, 0, 84, 57
1, 91673, Note_on_c, 0, 84, 0
1, 91673, Note_on_c, 0, 72, 50
1, 91733, Note_on_c, 0, 84, 50
1, 91741, Note_on_c, 0, 72, 0
1, 91769, Note_on_c, 0, 63, 55
1, 91777, Note_on_c, 0, 58, 49
1, 91793, Control_c, 0, 64, 0
1, 91797, Note_on_c, 0, 84, 0
1, 91797, Note_on_c, 0, 52, 36
1, 91801, Note_on_c, 0, 72, 46
1, 91817, Note_on_c, 0, 63, 0
1, 91829, Note_on_c, 0, 52, 0
1, 91841, Control_c, 0, 64, 127
1, 91849, Note_on_c, 0, 58, 0
1, 91849, Note_on_c, 0, 84, 54
1, 91853, Note_on_c, 0, 72, 0
1, 91909, Note_on_c, 0, 72, 50
1, 91913, Note_on_c, 0, 84, 0
1, 91969, Note_on_c, 0, 72, 0
1, 91973, Note_on_c, 0, 84, 59
1, 92005, Note_on_c, 0, 46, 58
1, 92013, Note_on_c, 0, 56, 36
1, 92037, Note_on_c, 0, 84, 0
1, 92037, Note_on_c, 0, 72, 54
1, 92049, Note_on_c, 0, 56, 0
1, 92069, Note_on_c, 0, 46, 0
1, 92097, Note_on_c, 0, 72, 0
1, 92097, Note_on_c, 0, 84, 62
1, 92129, Control_c, 0, 64, 0
1, 92145, Note_on_c, 0, 47, 55
1, 92153, Note_on_c, 0, 72, 49
1, 92161, Note_on_c, 0, 84, 0
1, 92173, Note_on_c, 0, 47, 0
1, 92173, Note_on_c, 0, 55, 25
1, 92197, Control_c, 0, 64, 127
1, 92217, Note_on_c, 0, 84, 52
1, 92221, Note_on_c, 0, 72, 0
1, 92225, Note_on_c, 0, 55, 0
1, 92273, Note_on_c, 0, 84, 0
1, 92273, Note_on_c, 0, 72, 52
1, 92333, Note_on_c, 0, 72, 0
1, 92333, Note_on_c, 0, 84, 56
1, 92389, Note_on_c, 0, 72, 52
1, 92393, Note_on_c, 0, 84, 0
1, 92445, Note_on_c, 0, 84, 57
1, 92453, Note_on_c, 0, 72, 0
1, 92493, Note_on_c, 0, 64, 68
1, 92497, Note_on_c, 0, 55, 50
1, 92505, Note_on_c, 0, 57, 48
1, 92509, Note_on_c, 0, 72, 56
1, 92509, Control_c, 0, 64, 0
1, 92509, Note_on_c, 0, 60, 44
1, 92513, Note_on_c, 0, 84, 0
1, 92533, Note_on_c, 0, 60, 0
1, 92541, Note_on_c, 0, 64, 0
1, 92565, Note_on_c, 0, 55, 0
1, 92565, Control_c, 0, 64, 127
1, 92565, Note_on_c, 0, 84, 57
1, 92569, Note_on_c, 0, 57, 0
1, 92581, Note_on_c, 0, 72, 0
1, 92621, Note_on_c, 0, 72, 34
1, 92637, Note_on_c, 0, 84, 0
1, 92685, Note_on_c, 0, 84, 63
1, 92689, Note_on_c, 0, 72, 0
1, 92741, Note_on_c, 0, 72, 60
1, 92753, Note_on_c, 0, 84, 0
1, 92781, Note_on_c, 0, 53, 46
1, 92813, Note_on_c, 0, 84, 62
1, 92817, Note_on_c, 0, 72, 0
1, 92853, Note_on_c, 0, 46, 62
1, 92857, Note_on_c, 0, 53, 0
1, 92861, Note_on_c, 0, 57, 49
1, 92865, Control_c, 0, 64, 0
1, 92885, Note_on_c, 0, 72, 66
1, 92889, Note_on_c, 0, 84, 0
1, 92917, Note_on_c, 0, 46, 0
1, 92921, Control_c, 0, 64, 127
1, 92937, Note_on_c, 0, 57, 0
1, 92937, Note_on_c, 0, 72, 0
1, 92941, Note_on_c, 0, 84, 66
1, 93001, Note_on_c, 0, 72, 57
1, 93013, Note_on_c, 0, 84, 0
1, 93061, Note_on_c, 0, 72, 0
1, 93061, Note_on_c, 0, 84, 74
1, 93129, Note_on_c, 0, 72, 75
1, 93145, Note_on_c, 0, 84, 0
1, 93185, Note_on_c, 0, 84, 76
1, 93197, Note_on_c, 0, 72, 0
1, 93229, Note_on_c, 0, 62, 61
1, 93237, Note_on_c, 0, 65, 60
1, 93245, Note_on_c, 0, 60, 48
1, 93249, Note_on_c, 0, 72, 57
1, 93253, Note_on_c, 0, 65, 0
1, 93269, Note_on_c, 0, 84, 0
1, 93277, Note_on_c, 0, 55, 25
1, 93281, Note_on_c, 0, 60, 0
1, 93297, Note_on_c, 0, 62, 0
1, 93305, Note_on_c, 0, 72, 0
1, 93309, Note_on_c, 0, 84, 82
1, 93337, Note_on_c, 0, 55, 0
1, 93369, Note_on_c, 0, 72, 61
1, 93381, Note_on_c, 0, 84, 0
1, 93429, Note_on_c, 0, 84, 72
1, 93433, Note_on_c, 0, 72, 0
1, 93469, Note_on_c, 0, 52, 60
1, 93493, Note_on_c, 0, 72, 69
1, 93505, Note_on_c, 0, 84, 0
1, 93553, Note_on_c, 0, 84, 68
1, 93573, Control_c, 0, 64, 72
1, 93573, Control_c, 0, 64, 0
1, 93577, Note_on_c, 0, 72, 0
1, 93585, Note_on_c, 0, 52, 0
1, 93589, Note_on_c, 0, 55, 55
1, 93593, Note_on_c, 0, 45, 54
1, 93629, Note_on_c, 0, 72, 57
1, 93637, Note_on_c, 0, 84, 0
1, 93649, Note_on_c, 0, 45, 0
1, 93653, Control_c, 0, 64, 127
1, 93673, Note_on_c, 0, 55, 0
1, 93693, Note_on_c, 0, 84, 50
1, 93697, Note_on_c, 0, 72, 0
1, 93757, Note_on_c, 0, 84, 0
1, 93765, Note_on_c, 0, 72, 56
1, 93817, Note_on_c, 0, 72, 0
1, 93817, Note_on_c, 0, 84, 48
1, 93877, Note_on_c, 0, 84, 0
1, 93881, Note_on_c, 0, 72, 52
1, 93937, Note_on_c, 0, 72, 0
1, 93937, Note_on_c, 0, 84, 48
1, 93977, Note_on_c, 0, 64, 35
1, 93997, Note_on_c, 0, 84, 0
1, 93997, Note_on_c, 0, 59, 26
1, 93997, Note_on_c, 0, 72, 45
1, 94001, Note_on_c, 0, 55, 31
1, 94021, Note_on_c, 0, 64, 0
1, 94041, Note_on_c, 0, 59, 0
1, 94049, Note_on_c, 0, 72, 0
1, 94053, Note_on_c, 0, 84, 52
1, 94061, Note_on_c, 0, 55, 0
1, 94105, Note_on_c, 0, 84, 0
1, 94109, Note_on_c, 0, 72, 51
1, 94185, Note_on_c, 0, 84, 51
1, 94269, Note_on_c, 0, 57, 47
1, 94277, Note_on_c, 0, 84, 0
1, 94309, Note_on_c, 0, 72, 0
1, 94373, Note_on_c, 0, 54, 13
1, 94377, Note_on_c, 0, 60, 43
1, 94385, Control_c, 0, 64, 0
1, 94385, Note_on_c, 0, 50, 38
1, 94393, Note_on_c, 0, 85, 57
1, 94401, Note_on_c, 0, 70, 53
1, 94417, Note_on_c, 0, 57, 0
1, 94417, Note_on_c, 0, 82, 29
1, 94449, Note_on_c, 0, 82, 0
1, 94457, Control_c, 0, 64, 104
1, 94457, Control_c, 0, 64, 127
1, 94505, Note_on_c, 0, 50, 0
1, 94541, Note_on_c, 0, 54, 0
1, 94545, Note_on_c, 0, 60, 0
1, 94669, Note_on_c, 0, 70, 0
1, 94757, Note_on_c, 0, 85, 0
1, 94813, Note_on_c, 0, 54, 45
1, 94817, Control_c, 0, 64, 0
1, 94821, Note_on_c, 0, 60, 43
1, 94829, Note_on_c, 0, 65, 22
1, 94829, Note_on_c, 0, 86, 45
1, 94837, Note_on_c, 0, 74, 45
1, 94873, Control_c, 0, 64, 127
1, 94893, Note_on_c, 0, 65, 0
1, 94925, Note_on_c, 0, 60, 0
1, 94957, Note_on_c, 0, 74, 0
1, 94977, Note_on_c, 0, 86, 0
1, 95029, Note_on_c, 0, 54, 0
1, 95093, Note_on_c, 0, 89, 85
1, 95097, Note_on_c, 0, 77, 76
1, 95197, Note_on_c, 0, 62, 48
1, 95201, Control_c, 0, 64, 0
1, 95217, Note_on_c, 0, 58, 39
1, 95217, Note_on_c, 0, 55, 32
1, 95217, Note_on_c, 0, 53, 24
1, 95221, Note_on_c, 0, 62, 0
1, 95225, Control_c, 0, 64, 127
1, 95237, Note_on_c, 0, 89, 0
1, 95249, Note_on_c, 0, 58, 0
1, 95257, Note_on_c, 0, 55, 0
1, 95257, Note_on_c, 0, 53, 0
1, 95321, Note_on_c, 0, 77, 0
1, 95465, Note_on_c, 0, 49, 68
1, 95477, Note_on_c, 0, 50, 64
1, 95489, Note_on_c, 0, 74, 68
1, 95497, Note_on_c, 0, 86, 39
1, 95517, Note_on_c, 0, 74, 0
1, 95521, Note_on_c, 0, 86, 0
1, 95521, Control_c, 0, 64, 0
1, 95545, Note_on_c, 0, 49, 0
1, 95613, Control_c, 0, 64, 127
1, 95749, Control_c, 0, 64, 0
1, 95841, Note_on_c, 0, 50, 0
1, 95841, Note_on_c, 0, 49, 55
1, 95869, Note_on_c, 0, 61, 63
1, 95869, Note_on_c, 0, 58, 60
1, 95881, Note_on_c, 0, 55, 31
1, 95885, Note_on_c, 0, 61, 0
1, 95889, Note_on_c, 0, 49, 0
1, 95889, Note_on_c, 0, 50, 57
1, 95901, Note_on_c, 0, 62, 50
1, 96173, Note_on_c, 0, 55, 0
1, 96181, Note_on_c, 0, 49, 47
1, 96213, Note_on_c, 0, 58, 0
1, 96221, Note_on_c, 0, 52, 49
1, 96225, Note_on_c, 0, 62, 0
1, 96241, Note_on_c, 0, 50, 0
1, 96241, Note_on_c, 0, 58, 39
1, 96245, Note_on_c, 0, 55, 58
1, 96249, Note_on_c, 0, 65, 57
1, 96253, Note_on_c, 0, 62, 31
1, 96257, Note_on_c, 0, 53, 61
1, 96265, Note_on_c, 0, 52, 0
1, 96305, Note_on_c, 0, 49, 0
1, 96329, Note_on_c, 0, 55, 0
1, 96333, Note_on_c, 0, 65, 0
1, 96341, Note_on_c, 0, 62, 0
1, 96365, Note_on_c, 0, 58, 0
1, 96393, Note_on_c, 0, 55, 43
1, 96397, Note_on_c, 0, 53, 0
1, 96397, Note_on_c, 0, 58, 31
1, 96405, Note_on_c, 0, 62, 39
1, 96405, Note_on_c, 0, 50, 46
1, 96549, Note_on_c, 0, 55, 0
1, 96573, Note_on_c, 0, 58, 0
1, 96577, Note_on_c, 0, 62, 0
1, 96577, Note_on_c, 0, 50, 0
1, 96625, Note_on_c, 0, 55, 57
1, 96625, Note_on_c, 0, 58, 59
1, 96629, Note_on_c, 0, 65, 48
1, 96637, Note_on_c, 0, 62, 54
1, 96713, Note_on_c, 0, 55, 0
1, 96753, Note_on_c, 0, 62, 0
1, 96753, Note_on_c, 0, 65, 0
1, 96757, Note_on_c, 0, 36, 60
1, 96761, Note_on_c, 0, 58, 0
1, 96793, Control_c, 0, 64, 127
1, 96809, Note_on_c, 0, 36, 0
1, 97145, Note_on_c, 0, 75, 85
1, 97149, Note_on_c, 0, 63, 69
1, 97153, Note_on_c, 0, 70, 66
1, 97153, Control_c, 0, 64, 0
1, 97153, Note_on_c, 0, 64, 68
1, 97153, Note_on_c, 0, 67, 63
1, 97225, Note_on_c, 0, 63, 0
1, 97225, Note_on_c, 0, 75, 0
1, 97229, Note_on_c, 0, 67, 0
1, 97245, Note_on_c, 0, 70, 0
1, 97261, Note_on_c, 0, 62, 45
1, 97261, Note_on_c, 0, 74, 56
1, 97273, Note_on_c, 0, 67, 24
1, 97281, Note_on_c, 0, 70, 24
1, 97305, Note_on_c, 0, 74, 0
1, 97325, Note_on_c, 0, 67, 0
1, 97329, Note_on_c, 0, 70, 0
1, 97341, Note_on_c, 0, 64, 0
1, 97349, Note_on_c, 0, 62, 0
1, 97353, Control_c, 0, 64, 127
1, 97385, Note_on_c, 0, 73, 57
1, 97389, Note_on_c, 0, 61, 49
1, 97395, Note_on_c, 0, 64, 45
1, 97401, Note_on_c, 0, 70, 48
1, 97409, Note_on_c, 0, 67, 46
1, 97441, Note_on_c, 0, 67, 0
1, 97457, Control_c, 0, 64, 0
1, 97461, Note_on_c, 0, 64, 0
1, 97461, Note_on_c, 0, 73, 0
1, 97473, Note_on_c, 0, 70, 0
1, 97493, Note_on_c, 0, 61, 0
1, 97521, Note_on_c, 0, 64, 47
1, 97529, Note_on_c, 0, 72, 48
1, 97529, Note_on_c, 0, 60, 48
1, 97545, Note_on_c, 0, 67, 36
1, 97545, Control_c, 0, 64, 127
1, 97605, Note_on_c, 0, 60, 0
1, 97617, Note_on_c, 0, 67, 0
1, 97617, Note_on_c, 0, 72, 0
1, 97673, Note_on_c, 0, 64, 0
1, 97765, Note_on_c, 0, 56, 38
1, 97793, Note_on_c, 0, 56, 0
1, 97869, Control_c, 0, 64, 0
1, 97893, Note_on_c, 0, 56, 47
1, 97901, Note_on_c, 0, 46, 39
1, 97901, Note_on_c, 0, 68, 50
1, 97905, Note_on_c, 0, 60, 45
1, 97917, Note_on_c, 0, 65, 41
1, 97941, Control_c, 0, 64, 127
1, 97945, Note_on_c, 0, 62, 22
1, 98005, Note_on_c, 0, 56, 0
1, 98013, Note_on_c, 0, 62, 0
1, 98053, Note_on_c, 0, 46, 0
1, 98057, Note_on_c, 0, 60, 0
1, 98089, Note_on_c, 0, 65, 0
1, 98097, Note_on_c, 0, 68, 0
1, 98241, Control_c, 0, 64, 72
1, 98245, Control_c, 0, 64, 0
1, 98293, Note_on_c, 0, 45, 38
1, 98293, Note_on_c, 0, 65, 48
1, 98301, Note_on_c, 0, 60, 36
1, 98305, Control_c, 0, 64, 127
1, 98309, Note_on_c, 0, 69, 33
1, 98329, Note_on_c, 0, 45, 0
1, 98337, Note_on_c, 0, 60, 0
1, 98385, Note_on_c, 0, 65, 0
1, 98405, Note_on_c, 0, 69, 0
1, 98561, Note_on_c, 0, 72, 57
1, 98577, Note_on_c, 0, 74, 38
1, 98617, Note_on_c, 0, 74, 0
1, 98625, Note_on_c, 0, 72, 0
1, 98677, Control_c, 0, 64, 0
1, 98677, Note_on_c, 0, 65, 48
1, 98681, Note_on_c, 0, 60, 37
1, 98685, Note_on_c, 0, 69, 47
1, 98685, Note_on_c, 0, 61, 38
1, 98765, Control_c, 0, 64, 127
1, 98769, Note_on_c, 0, 69, 0
1, 98769, Note_on_c, 0, 70, 58
1, 98817, Note_on_c, 0, 70, 0
1, 98865, Note_on_c, 0, 74, 66
1, 98869, Note_on_c, 0, 65, 0
1, 98893, Note_on_c, 0, 60, 0
1, 98901, Note_on_c, 0, 61, 0
1, 98921, Note_on_c, 0, 74, 0
1, 98949, Note_on_c, 0, 77, 81
1, 99021, Note_on_c, 0, 77, 0
1, 99033, Control_c, 0, 64, 0
1, 99041, Note_on_c, 0, 81, 81
1, 99053, Note_on_c, 0, 65, 48
1, 99059, Note_on_c, 0, 54, 42
1, 99069, Note_on_c, 0, 60, 43
1, 99125, Note_on_c, 0, 81, 0
1, 99141, Note_on_c, 0, 84, 75
1, 99197, Note_on_c, 0, 65, 0
1, 99201, Note_on_c, 0, 60, 0
1, 99201, Note_on_c, 0, 84, 0
1, 99217, Control_c, 0, 64, 127
1, 99237, Note_on_c, 0, 78, 63
1, 99257, Note_on_c, 0, 54, 0
1, 99301, Note_on_c, 0, 78, 0
1, 99345, Note_on_c, 0, 78, 63
1, 99393, Note_on_c, 0, 78, 0
1, 99433, Control_c, 0, 64, 0
1, 99437, Note_on_c, 0, 78, 59
1, 99449, Note_on_c, 0, 60, 36
1, 99453, Note_on_c, 0, 54, 36
1, 99457, Note_on_c, 0, 50, 28
1, 99477, Control_c, 0, 64, 127
1, 99501, Note_on_c, 0, 60, 0
1, 99501, Note_on_c, 0, 78, 0
1, 99521, Note_on_c, 0, 54, 0
1, 99545, Note_on_c, 0, 78, 56
1, 99553, Note_on_c, 0, 50, 0
1, 99597, Note_on_c, 0, 78, 0
1, 99637, Note_on_c, 0, 78, 62
1, 99681, Note_on_c, 0, 78, 0
1, 99729, Note_on_c, 0, 78, 61
1, 99777, Note_on_c, 0, 78, 0
1, 99785, Control_c, 0, 64, 0
1, 99817, Note_on_c, 0, 78, 63
1, 99825, Note_on_c, 0, 43, 44
1, 99833, Note_on_c, 0, 50, 33
1, 99869, Note_on_c, 0, 43, 0
1, 99893, Note_on_c, 0, 50, 0
1, 99909, Note_on_c, 0, 78, 0
1, 99917, Note_on_c, 0, 79, 52
1, 99957, Note_on_c, 0, 79, 0
1, 99965, Control_c, 0, 64, 127
1, 100009, Note_on_c, 0, 74, 67
1, 100057, Note_on_c, 0, 74, 0
1, 100105, Note_on_c, 0, 74, 63
1, 100153, Note_on_c, 0, 74, 0
1, 100177, Control_c, 0, 64, 0
1, 100185, Note_on_c, 0, 58, 48
1, 100189, Note_on_c, 0, 62, 35
1, 100197, Note_on_c, 0, 74, 68
1, 100211, Note_on_c, 0, 53, 34
1, 100217, Note_on_c, 0, 62, 0
1, 100237, Note_on_c, 0, 58, 0
1, 100241, Control_c, 0, 64, 127
1, 100245, Note_on_c, 0, 74, 0
1, 100245, Note_on_c, 0, 53, 0
1, 100293, Note_on_c, 0, 74, 57
1, 100349, Note_on_c, 0, 74, 0
1, 100389, Note_on_c, 0, 74, 73
1, 100437, Note_on_c, 0, 74, 0
1, 100485, Note_on_c, 0, 74, 67
1, 100533, Note_on_c, 0, 74, 0
1, 100561, Control_c, 0, 64, 24
1, 100561, Control_c, 0, 64, 0
1, 100573, Note_on_c, 0, 36, 51
1, 100577, Note_on_c, 0, 74, 65
1, 100605, Note_on_c, 0, 52, 28
1, 100613, Note_on_c, 0, 36, 0
1, 100633, Control_c, 0, 64, 127
1, 100669, Note_on_c, 0, 52, 0
1, 100673, Note_on_c, 0, 74, 0
1, 100677, Note_on_c, 0, 75, 60
1, 100739, Note_on_c, 0, 75, 0
1, 100777, Note_on_c, 0, 76, 73
1, 100837, Note_on_c, 0, 76, 0
1, 100877, Note_on_c, 0, 72, 60
1, 100897, Note_on_c, 0, 75, 33
1, 100925, Note_on_c, 0, 72, 0
1, 100933, Note_on_c, 0, 75, 0
1, 100957, Note_on_c, 0, 64, 49
1, 100969, Control_c, 0, 64, 0
1, 100973, Note_on_c, 0, 72, 55
1, 100977, Control_c, 0, 64, 127
1, 100977, Note_on_c, 0, 55, 31
1, 100981, Note_on_c, 0, 60, 36
1, 100985, Note_on_c, 0, 58, 35
1, 100993, Note_on_c, 0, 64, 0
1, 101013, Note_on_c, 0, 60, 0
1, 101021, Note_on_c, 0, 72, 0
1, 101025, Note_on_c, 0, 55, 0
1, 101045, Note_on_c, 0, 58, 0
1, 101089, Note_on_c, 0, 72, 63
1, 101133, Note_on_c, 0, 72, 0
1, 101169, Note_on_c, 0, 70, 48
1, 101229, Note_on_c, 0, 70, 0
1, 101285, Note_on_c, 0, 70, 56
1, 101341, Note_on_c, 0, 70, 0
1, 101369, Control_c, 0, 64, 72
1, 101373, Control_c, 0, 64, 0
1, 101373, Note_on_c, 0, 69, 69
1, 101385, Note_on_c, 0, 60, 31
1, 101393, Note_on_c, 0, 57, 33
1, 101393, Note_on_c, 0, 53, 23
1, 101433, Note_on_c, 0, 69, 0
1, 101445, Note_on_c, 0, 70, 57
1, 101477, Note_on_c, 0, 60, 0
1, 101489, Note_on_c, 0, 69, 45
1, 101509, Note_on_c, 0, 70, 0
1, 101545, Note_on_c, 0, 69, 0
1, 101545, Note_on_c, 0, 68, 51
1, 101557, Note_on_c, 0, 57, 0
1, 101577, Note_on_c, 0, 68, 0
1, 101633, Note_on_c, 0, 69, 50
1, 101673, Note_on_c, 0, 53, 0
1, 101709, Note_on_c, 0, 69, 0
1, 101741, Note_on_c, 0, 72, 75
1, 101757, Note_on_c, 0, 62, 36
1, 101757, Control_c, 0, 64, 127
1, 101757, Note_on_c, 0, 60, 38
1, 101793, Note_on_c, 0, 62, 0
1, 101797, Note_on_c, 0, 53, 15
1, 101801, Note_on_c, 0, 60, 0
1, 101853, Note_on_c, 0, 53, 0
1, 101981, Note_on_c, 0, 72, 0
1, 101997, Note_on_c, 0, 69, 54
1, 102093, Note_on_c, 0, 69, 0
1, 102101, Control_c, 0, 64, 0
1, 102137, Note_on_c, 0, 70, 57
1, 102157, Note_on_c, 0, 43, 36
1, 102205, Control_c, 0, 64, 127
1, 102277, Note_on_c, 0, 70, 0
1, 102297, Note_on_c, 0, 43, 0
1, 102505, Control_c, 0, 64, 0
1, 102513, Note_on_c, 0, 58, 56
1, 102521, Note_on_c, 0, 50, 39
1, 102525, Note_on_c, 0, 62, 49
1, 102537, Control_c, 0, 64, 127
1, 102585, Note_on_c, 0, 50, 0
1, 102641, Note_on_c, 0, 62, 0
1, 102669, Note_on_c, 0, 58, 0
1, 102869, Control_c, 0, 64, 0
1, 102905, Note_on_c, 0, 60, 49
1, 102905, Note_on_c, 0, 57, 45
1, 102917, Note_on_c, 0, 52, 25
1, 102929, Note_on_c, 0, 45, 16
1, 102941, Control_c, 0, 64, 127
1, 103041, Note_on_c, 0, 57, 0
1, 103057, Note_on_c, 0, 52, 0
1, 103097, Note_on_c, 0, 60, 0
1, 103181, Note_on_c, 0, 45, 0
1, 103281, Note_on_c, 0, 45, 41
1, 103289, Note_on_c, 0, 60, 56
1, 103289, Control_c, 0, 64, 0
1, 103293, Note_on_c, 0, 65, 49
1, 103297, Note_on_c, 0, 57, 36
1, 103301, Note_on_c, 0, 52, 32
1, 103325, Control_c, 0, 64, 127
1, 103381, Note_on_c, 0, 45, 0
1, 103397, Note_on_c, 0, 57, 0
1, 103397, Note_on_c, 0, 52, 0
1, 103445, Note_on_c, 0, 65, 0
1, 103465, Note_on_c, 0, 60, 0
1, 103665, Control_c, 0, 64, 0
1, 103681, Note_on_c, 0, 72, 66
1, 103681, Note_on_c, 0, 67, 67
1, 103689, Note_on_c, 0, 46, 46
1, 103689, Note_on_c, 0, 57, 44
1, 103689, Note_on_c, 0, 60, 56
1, 103697, Note_on_c, 0, 53, 39
1, 103733, Control_c, 0, 64, 127
1, 103821, Note_on_c, 0, 57, 0
1, 103877, Note_on_c, 0, 67, 0
1, 103881, Note_on_c, 0, 53, 0
1, 103897, Note_on_c, 0, 72, 0
1, 103897, Note_on_c, 0, 60, 0
1, 103917, Note_on_c, 0, 46, 0
1, 104033, Control_c, 0, 64, 0
1, 104061, Note_on_c, 0, 70, 49
1, 104065, Note_on_c, 0, 60, 45
1, 104065, Note_on_c, 0, 65, 50
1, 104069, Note_on_c, 0, 42, 40
1, 104093, Control_c, 0, 64, 56
1, 104093, Control_c, 0, 64, 127
1, 104117, Note_on_c, 0, 42, 0
1, 104169, Note_on_c, 0, 70, 0
1, 104205, Note_on_c, 0, 65, 0
1, 104229, Note_on_c, 0, 60, 0
1, 104417, Control_c, 0, 64, 0
1, 104457, Note_on_c, 0, 41, 39
1, 104457, Note_on_c, 0, 48, 39
1, 104457, Note_on_c, 0, 69, 48
1, 104457, Note_on_c, 0, 62, 51
1, 104469, Note_on_c, 0, 57, 31
1, 104473, Control_c, 0, 64, 127
1, 104477, Note_on_c, 0, 64, 38
1, 104525, Note_on_c, 0, 41, 0
1, 104557, Note_on_c, 0, 48, 0
1, 104573, Note_on_c, 0, 57, 0
1, 104581, Note_on_c, 0, 62, 0
1, 104581, Note_on_c, 0, 64, 0
1, 104597, Note_on_c, 0, 69, 0
1, 104829, Note_on_c, 0, 57, 68
1, 104829, Note_on_c, 0, 72, 75
1, 104833, Note_on_c, 0, 67, 75
1, 104837, Note_on_c, 0, 62, 62
1, 104997, Note_on_c, 0, 57, 0
1, 105013, Note_on_c, 0, 67, 0
1, 105021, Note_on_c, 0, 72, 0
1, 105061, Note_on_c, 0, 62, 0
1, 105441, Note_on_c, 0, 69, 76
1, 105445, Control_c, 0, 64, 0
1, 105445, Note_on_c, 0, 58, 81
1, 105449, Note_on_c, 0, 62, 72
1, 105453, Note_on_c, 0, 64, 58
1, 105465, Note_on_c, 0, 52, 55
1, 105477, Note_on_c, 0, 40, 40
1, 105497, Note_on_c, 0, 52, 0
1, 105537, Control_c, 0, 64, 127
1, 105557, Note_on_c, 0, 52, 10
1, 105597, Note_on_c, 0, 69, 0
1, 105617, Note_on_c, 0, 40, 0
1, 105621, Note_on_c, 0, 64, 0
1, 105629, Note_on_c, 0, 58, 0
1, 105645, Note_on_c, 0, 52, 0
1, 105669, Note_on_c, 0, 67, 69
1, 105677, Note_on_c, 0, 58, 42
1, 105701, Note_on_c, 0, 58, 0
1, 105705, Note_on_c, 0, 62, 0
1, 105749, Note_on_c, 0, 67, 0
1, 105921, Control_c, 0, 64, 0
1, 105937, Note_on_c, 0, 70, 83
1, 105945, Note_on_c, 0, 55, 64
1, 105945, Note_on_c, 0, 66, 72
1, 105945, Note_on_c, 0, 61, 80
1, 105997, Control_c, 0, 64, 127
1, 106193, Note_on_c, 0, 66, 0
1, 106205, Note_on_c, 0, 61, 0
1, 106209, Note_on_c, 0, 70, 0
1, 106241, Note_on_c, 0, 55, 0
1, 106357, Control_c, 0, 64, 0
1, 106361, Note_on_c, 0, 65, 65
1, 106361, Note_on_c, 0, 72, 58
1, 106373, Note_on_c, 0, 55, 51
1, 106401, Control_c, 0, 64, 127
1, 106473, Note_on_c, 0, 55, 0
1, 106489, Note_on_c, 0, 72, 0
1, 106545, Note_on_c, 0, 65, 0
1, 106741, Control_c, 0, 64, 0
1, 106753, Note_on_c, 0, 54, 45
1, 106761, Note_on_c, 0, 64, 48
1, 106761, Note_on_c, 0, 60, 43
1, 106761, Note_on_c, 0, 68, 52
1, 106773, Note_on_c, 0, 44, 35
1, 106813, Control_c, 0, 64, 127
1, 106921, Note_on_c, 0, 64, 0
1, 106973, Note_on_c, 0, 60, 0
1, 106989, Note_on_c, 0, 44, 0
1, 106989, Note_on_c, 0, 54, 0
1, 107017, Note_on_c, 0, 68, 0
1, 107105, Control_c, 0, 64, 0
1, 107141, Note_on_c, 0, 63, 49
1, 107141, Note_on_c, 0, 54, 39
1, 107141, Note_on_c, 0, 44, 45
1, 107153, Note_on_c, 0, 59, 41
1, 107169, Control_c, 0, 64, 127
1, 107245, Note_on_c, 0, 59, 0
1, 107257, Note_on_c, 0, 54, 0
1, 107289, Note_on_c, 0, 44, 0
1, 107361, Note_on_c, 0, 63, 0
1, 107477, Control_c, 0, 64, 0
1, 107513, Note_on_c, 0, 58, 45
1, 107517, Note_on_c, 0, 62, 48
1, 107517, Note_on_c, 0, 53, 41
1, 107517, Note_on_c, 0, 43, 45
1, 107533, Control_c, 0, 64, 127
1, 107641, Note_on_c, 0, 62, 0
1, 107673, Note_on_c, 0, 58, 0
1, 107705, Note_on_c, 0, 53, 0
1, 107885, Note_on_c, 0, 43, 0
1, 107901, Note_on_c, 0, 61, 56
1, 107905, Note_on_c, 0, 49, 56
1, 107909, Note_on_c, 0, 58, 52
1, 107909, Note_on_c, 0, 55, 48
1, 107921, Control_c, 0, 64, 0
1, 108029, Control_c, 0, 64, 127
1, 108097, Note_on_c, 0, 55, 0
1, 108137, Note_on_c, 0, 49, 0
1, 108145, Note_on_c, 0, 58, 0
1, 108149, Note_on_c, 0, 61, 0
1, 108173, Note_on_c, 0, 50, 57
1, 108173, Note_on_c, 0, 58, 35
1, 108185, Note_on_c, 0, 62, 58
1, 108189, Note_on_c, 0, 55, 45
1, 108213, Note_on_c, 0, 55, 0
1, 108253, Note_on_c, 0, 62, 0
1, 108253, Note_on_c, 0, 58, 0
1, 108269, Control_c, 0, 64, 0
1, 108301, Note_on_c, 0, 50, 0
1, 108309, Note_on_c, 0, 58, 54
1, 108313, Note_on_c, 0, 53, 55
1, 108317, Note_on_c, 0, 65, 52
1, 108321, Note_on_c, 0, 55, 54
1, 108321, Note_on_c, 0, 62, 52
1, 108365, Control_c, 0, 64, 127
1, 108401, Note_on_c, 0, 62, 0
1, 108401, Note_on_c, 0, 65, 0
1, 108405, Note_on_c, 0, 53, 0
1, 108437, Note_on_c, 0, 58, 0
1, 108457, Note_on_c, 0, 55, 0
1, 108577, Note_on_c, 0, 58, 70
1, 108577, Note_on_c, 0, 45, 60
1, 108581, Note_on_c, 0, 53, 63
1, 108593, Control_c, 0, 64, 0
1, 108597, Note_on_c, 0, 55, 49
1, 108657, Note_on_c, 0, 53, 0
1, 108673, Note_on_c, 0, 55, 0
1, 108673, Note_on_c, 0, 58, 0
1, 108701, Note_on_c, 0, 45, 0
1, 108713, Control_c, 0, 64, 127
1, 108717, Note_on_c, 0, 46, 52
1, 108921, Note_on_c, 0, 46, 0
1, 108945, Note_on_c, 0, 58, 70
1, 108953, Note_on_c, 0, 50, 38
1, 108953, Note_on_c, 0, 53, 58
1, 108977, Note_on_c, 0, 53, 0
1, 108997, Note_on_c, 0, 50, 0
1, 108997, Note_on_c, 0, 58, 0
1, 109045, Control_c, 0, 64, 0
1, 109073, Note_on_c, 0, 36, 52
1, 109077, Note_on_c, 0, 58, 59
1, 109077, Note_on_c, 0, 55, 52
1, 109077, Note_on_c, 0, 65, 55
1, 109101, Note_on_c, 0, 52, 41
1, 109157, Control_c, 0, 64, 127
1, 109213, Note_on_c, 0, 52, 0
1, 109253, Note_on_c, 0, 55, 0
1, 109261, Note_on_c, 0, 65, 0
1, 109277, Note_on_c, 0, 58, 0
1, 109317, Note_on_c, 0, 65, 54
1, 109321, Note_on_c, 0, 58, 58
1, 109325, Note_on_c, 0, 55, 50
1, 109337, Note_on_c, 0, 62, 45
1, 109365, Note_on_c, 0, 62, 0
1, 109381, Note_on_c, 0, 65, 0
1, 109389, Note_on_c, 0, 55, 0
1, 109405, Note_on_c, 0, 58, 0
1, 109421, Note_on_c, 0, 36, 0
1, 109449, Control_c, 0, 64, 0
1, 109449, Note_on_c, 0, 58, 50
1, 109457, Note_on_c, 0, 64, 55
1, 109457, Note_on_c, 0, 55, 45
1, 109461, Note_on_c, 0, 52, 48
1, 109505, Control_c, 0, 64, 127
1, 109557, Note_on_c, 0, 64, 0
1, 109577, Note_on_c, 0, 55, 0
1, 109581, Note_on_c, 0, 58, 0
1, 109581, Note_on_c, 0, 52, 0
1, 109681, Note_on_c, 0, 58, 57
1, 109693, Note_on_c, 0, 55, 43
1, 109701, Note_on_c, 0, 64, 27
1, 109725, Note_on_c, 0, 64, 0
1, 109729, Note_on_c, 0, 58, 0
1, 109733, Note_on_c, 0, 55, 0
1, 109981, Control_c, 0, 64, 0
1, 110081, Note_on_c, 0, 62, 61
1, 110081, Note_on_c, 0, 58, 58
1, 110085, Note_on_c, 0, 55, 63
1, 110085, Note_on_c, 0, 50, 61
1, 110085, Note_on_c, 0, 52, 56
1, 110153, Note_on_c, 0, 62, 0
1, 110165, Note_on_c, 0, 52, 0
1, 110165, Note_on_c, 0, 55, 0
1, 110189, Note_on_c, 0, 58, 0
1, 110189, Control_c, 0, 64, 127
1, 110217, Note_on_c, 0, 50, 0
1, 110233, Note_on_c, 0, 58, 42
1, 110237, Note_on_c, 0, 49, 50
1, 110241, Note_on_c, 0, 61, 40
1, 110257, Note_on_c, 0, 52, 21
1, 110317, Note_on_c, 0, 52, 0
1, 110361, Note_on_c, 0, 61, 0
1, 110369, Note_on_c, 0, 58, 0
1, 110433, Note_on_c, 0, 49, 0
1, 110457, Control_c, 0, 64, 0
1, 110473, Note_on_c, 0, 60, 52
1, 110477, Note_on_c, 0, 52, 57
1, 110477, Note_on_c, 0, 55, 53
1, 110477, Note_on_c, 0, 48, 56
1, 110485, Note_on_c, 0, 57, 45
1, 110537, Control_c, 0, 64, 127
1, 110541, Note_on_c, 0, 52, 0
1, 110561, Note_on_c, 0, 57, 0
1, 110565, Note_on_c, 0, 55, 0
1, 110577, Note_on_c, 0, 48, 0
1, 110625, Note_on_c, 0, 60, 0
1, 110961, Control_c, 0, 64, 0
1, 110977, Note_on_c, 0, 64, 48
1, 110985, Note_on_c, 0, 55, 40
1, 110997, Note_on_c, 0, 57, 39
1, 110997, Note_on_c, 0, 60, 43
1, 111013, Control_c, 0, 64, 127
1, 111153, Note_on_c, 0, 64, 0
1, 111157, Note_on_c, 0, 55, 0
1, 111157, Note_on_c, 0, 60, 0
1, 111161, Note_on_c, 0, 57, 0
1, 111357, Note_on_c, 0, 54, 43
1, 111361, Control_c, 0, 64, 0
1, 111365, Note_on_c, 0, 60, 38
1, 111369, Note_on_c, 0, 65, 56
1, 111409, Note_on_c, 0, 65, 0
1, 111413, Note_on_c, 0, 60, 0
1, 111421, Note_on_c, 0, 68, 47
1, 111457, Note_on_c, 0, 54, 0
1, 111473, Note_on_c, 0, 70, 60
1, 111477, Note_on_c, 0, 68, 0
1, 111493, Note_on_c, 0, 70, 0
1, 111529, Note_on_c, 0, 72, 60
1, 111553, Note_on_c, 0, 72, 0
1, 111577, Note_on_c, 0, 75, 58
1, 111609, Note_on_c, 0, 75, 0
1, 111649, Note_on_c, 0, 77, 64
1, 111685, Note_on_c, 0, 77, 0
1, 111697, Note_on_c, 0, 80, 51
1, 111709, Note_on_c, 0, 60, 49
1, 111725, Note_on_c, 0, 54, 35
1, 111737, Note_on_c, 0, 50, 43
1, 111745, Note_on_c, 0, 82, 48
1, 111749, Note_on_c, 0, 80, 0
1, 111765, Note_on_c, 0, 82, 0
1, 111809, Note_on_c, 0, 84, 47
1, 111845, Note_on_c, 0, 84, 0
1, 111861, Note_on_c, 0, 87, 58
1, 111865, Note_on_c, 0, 50, 0
1, 111893, Note_on_c, 0, 54, 0
1, 111909, Note_on_c, 0, 60, 0
1, 111921, Note_on_c, 0, 87, 0
1, 111933, Note_on_c, 0, 88, 33
1, 111957, Note_on_c, 0, 88, 0
1, 111957, Note_on_c, 0, 89, 75
1, 112029, Note_on_c, 0, 89, 0
1, 112133, Note_on_c, 0, 62, 48
1, 112137, Note_on_c, 0, 58, 47
1, 112157, Note_on_c, 0, 53, 37
1, 112157, Note_on_c, 0, 57, 32
1, 112205, Note_on_c, 0, 62, 0
1, 112217, Control_c, 0, 64, 127
1, 112221, Note_on_c, 0, 57, 0
1, 112229, Note_on_c, 0, 58, 0
1, 112229, Note_on_c, 0, 84, 56
1, 112233, Control_c, 0, 64, 0
1, 112249, Note_on_c, 0, 53, 0
1, 112273, Note_on_c, 0, 84, 0
1, 112285, Note_on_c, 0, 85, 59
1, 112337, Note_on_c, 0, 85, 0
1, 112353, Note_on_c, 0, 86, 56
1, 112397, Note_on_c, 0, 86, 0
1, 112417, Note_on_c, 0, 89, 46
1, 112449, Note_on_c, 0, 93, 66
1, 112457, Note_on_c, 0, 89, 0
1, 112493, Note_on_c, 0, 93, 0
1, 112509, Note_on_c, 0, 96, 92
1, 112525, Note_on_c, 0, 43, 52
1, 112541, Note_on_c, 0, 53, 28
1, 112573, Note_on_c, 0, 43, 0
1, 112581, Note_on_c, 0, 53, 0
1, 112597, Note_on_c, 0, 94, 75
1, 112625, Note_on_c, 0, 96, 0
1, 112697, Note_on_c, 0, 94, 0
1, 112705, Note_on_c, 0, 90, 57
1, 112733, Note_on_c, 0, 90, 0
1, 112769, Note_on_c, 0, 95, 85
1, 112829, Note_on_c, 0, 36, 39
1, 112833, Note_on_c, 0, 95, 0
1, 112857, Note_on_c, 0, 52, 35
1, 112873, Note_on_c, 0, 36, 0
1, 112921, Note_on_c, 0, 52, 0
1, 113021, Note_on_c, 0, 92, 82
1, 113089, Note_on_c, 0, 92, 0
1, 113109, Note_on_c, 0, 89, 75
1, 113155, Note_on_c, 0, 89, 0
1, 113249, Note_on_c, 0, 61, 45
1, 113249, Note_on_c, 0, 64, 31
1, 113253, Note_on_c, 0, 92, 75
1, 113261, Note_on_c, 0, 58, 37
1, 113265, Note_on_c, 0, 55, 31
1, 113269, Note_on_c, 0, 61, 0
1, 113277, Note_on_c, 0, 64, 0
1, 113285, Note_on_c, 0, 58, 0
1, 113289, Note_on_c, 0, 55, 0
1, 113309, Note_on_c, 0, 92, 0
1, 113345, Note_on_c, 0, 93, 76
1, 113401, Note_on_c, 0, 93, 0
1, 113433, Note_on_c, 0, 98, 87
1, 113505, Note_on_c, 0, 98, 0
1, 113553, Note_on_c, 0, 93, 45
1, 113553, Note_on_c, 0, 95, 39
1, 113577, Note_on_c, 0, 95, 0
1, 113581, Note_on_c, 0, 93, 0
1, 113617, Note_on_c, 0, 41, 40
1, 113629, Note_on_c, 0, 96, 80
1, 113641, Note_on_c, 0, 57, 33
1, 113661, Note_on_c, 0, 41, 0
1, 113689, Note_on_c, 0, 57, 0
1, 113693, Note_on_c, 0, 96, 0
1, 113741, Note_on_c, 0, 93, 75
1, 113781, Note_on_c, 0, 93, 0
1, 113829, Note_on_c, 0, 89, 68
1, 113881, Note_on_c, 0, 89, 0
1, 113929, Note_on_c, 0, 84, 61
1, 113977, Note_on_c, 0, 84, 0
1, 114001, Note_on_c, 0, 62, 40
1, 114009, Note_on_c, 0, 60, 36
1, 114021, Note_on_c, 0, 82, 63
1, 114025, Note_on_c, 0, 62, 0
1, 114041, Note_on_c, 0, 60, 0
1, 114073, Note_on_c, 0, 82, 0
1, 114217, Note_on_c, 0, 82, 72
1, 114281, Note_on_c, 0, 82, 0
1, 114345, Note_on_c, 0, 77, 42
1, 114369, Note_on_c, 0, 77, 0
1, 114409, Note_on_c, 0, 58, 48
1, 114409, Note_on_c, 0, 48, 48
1, 114421, Note_on_c, 0, 80, 64
1, 114445, Control_c, 0, 64, 127
1, 114497, Control_c, 0, 64, 0
1, 114505, Note_on_c, 0, 48, 0
1, 114513, Note_on_c, 0, 80, 0
1, 114557, Note_on_c, 0, 58, 0
1, 114613, Note_on_c, 0, 80, 68
1, 114693, Note_on_c, 0, 80, 0
1, 114729, Note_on_c, 0, 77, 54
1, 114753, Note_on_c, 0, 77, 0
1, 114785, Note_on_c, 0, 64, 42
1, 114789, Note_on_c, 0, 61, 41
1, 114797, Note_on_c, 0, 58, 35
1, 114809, Note_on_c, 0, 64, 0
1, 114809, Note_on_c, 0, 80, 65
1, 114809, Note_on_c, 0, 55, 27
1, 114821, Note_on_c, 0, 61, 0
1, 114825, Note_on_c, 0, 58, 0
1, 114841, Note_on_c, 0, 55, 0
1, 114889, Note_on_c, 0, 80, 0
1, 114929, Note_on_c, 0, 82, 75
1, 115005, Note_on_c, 0, 82, 0
1, 115005, Note_on_c, 0, 80, 58
1, 115101, Note_on_c, 0, 80, 0
1, 115177, Note_on_c, 0, 41, 48
1, 115241, Note_on_c, 0, 73, 57
1, 115277, Note_on_c, 0, 41, 0
1, 115281, Note_on_c, 0, 73, 0
1, 115289, Note_on_c, 0, 74, 56
1, 115297, Note_on_c, 0, 57, 1
1, 115329, Note_on_c, 0, 57, 0
1, 115369, Note_on_c, 0, 74, 0
1, 115385, Note_on_c, 0, 77, 80
1, 115525, Note_on_c, 0, 77, 0
1, 115553, Note_on_c, 0, 74, 65
1, 115557, Note_on_c, 0, 62, 52
1, 115557, Note_on_c, 0, 60, 41
1, 115581, Note_on_c, 0, 62, 0
1, 115585, Note_on_c, 0, 60, 0
1, 115585, Control_c, 0, 64, 127
1, 115589, Note_on_c, 0, 53, 19
1, 115625, Note_on_c, 0, 53, 0
1, 115641, Note_on_c, 0, 74, 0
1, 115685, Note_on_c, 0, 65, 51
1, 115781, Note_on_c, 0, 65, 0
1, 115817, Note_on_c, 0, 74, 67
1, 115817, Note_on_c, 0, 70, 77
1, 115905, Note_on_c, 0, 74, 0
1, 115913, Note_on_c, 0, 70, 0
1, 115937, Control_c, 0, 64, 0
1, 115953, Note_on_c, 0, 72, 65
1, 115961, Note_on_c, 0, 58, 55
1, 115965, Note_on_c, 0, 69, 66
1, 115973, Note_on_c, 0, 48, 39
1, 116021, Control_c, 0, 64, 127
1, 116089, Note_on_c, 0, 48, 0
1, 116117, Note_on_c, 0, 72, 0
1, 116125, Note_on_c, 0, 58, 0
1, 116149, Note_on_c, 0, 69, 0
1, 116217, Note_on_c, 0, 48, 54
1, 116293, Control_c, 0, 64, 0
1, 116349, Note_on_c, 0, 56, 57
1, 116349, Note_on_c, 0, 68, 49
1, 116349, Note_on_c, 0, 60, 48
1, 116353, Note_on_c, 0, 65, 48
1, 116357, Note_on_c, 0, 62, 48
1, 116405, Note_on_c, 0, 56, 0
1, 116405, Control_c, 0, 64, 127
1, 116517, Note_on_c, 0, 65, 0
1, 116525, Note_on_c, 0, 68, 0
1, 116525, Note_on_c, 0, 62, 0
1, 116557, Note_on_c, 0, 48, 0
1, 116577, Note_on_c, 0, 60, 0
1, 116609, Note_on_c, 0, 52, 47
1, 116685, Note_on_c, 0, 52, 0
1, 116709, Control_c, 0, 64, 0
1, 116733, Note_on_c, 0, 57, 53
1, 116737, Note_on_c, 0, 65, 43
1, 116737, Note_on_c, 0, 60, 49
1, 116745, Note_on_c, 0, 53, 52
1, 116745, Note_on_c, 0, 62, 46
1, 116765, Control_c, 0, 64, 127
1, 116905, Note_on_c, 0, 57, 0
1, 116985, Note_on_c, 0, 60, 0
1, 117009, Note_on_c, 0, 62, 0
1, 117109, Note_on_c, 0, 60, 56
1, 117113, Note_on_c, 0, 57, 50
1, 117277, Note_on_c, 0, 53, 0
1, 117293, Note_on_c, 0, 57, 0
1, 117401, Note_on_c, 0, 60, 0
1, 117477, Control_c, 0, 64, 0
1, 117489, Note_on_c, 0, 46, 48
1, 117497, Note_on_c, 0, 60, 56
1, 117505, Note_on_c, 0, 56, 36
1, 117517, Control_c, 0, 64, 127
1, 117613, Note_on_c, 0, 65, 0
1, 117617, Note_on_c, 0, 60, 0
1, 117633, Note_on_c, 0, 56, 0
1, 117637, Note_on_c, 0, 46, 0
1, 117873, Note_on_c, 0, 46, 52
1, 117873, Control_c, 0, 64, 0
1, 117873, Note_on_c, 0, 67, 66
1, 117873, Note_on_c, 0, 56, 49
1, 117873, Note_on_c, 0, 72, 63
1, 117875, Note_on_c, 0, 60, 65
1, 117921, Control_c, 0, 64, 24
1, 117921, Control_c, 0, 64, 127
1, 118009, Note_on_c, 0, 72, 0
1, 118021, Note_on_c, 0, 67, 0
1, 118041, Note_on_c, 0, 56, 0
1, 118065, Note_on_c, 0, 60, 0
1, 118073, Note_on_c, 0, 46, 0
1, 118237, Control_c, 0, 64, 0
1, 118259, Note_on_c, 0, 60, 52
1, 118265, Note_on_c, 0, 55, 46
1, 118269, Note_on_c, 0, 45, 43
1, 118269, Note_on_c, 0, 52, 43
1, 118277, Note_on_c, 0, 64, 41
1, 118297, Control_c, 0, 64, 127
1, 118389, Note_on_c, 0, 52, 0
1, 118421, Note_on_c, 0, 45, 0
1, 118465, Note_on_c, 0, 55, 0
1, 118481, Note_on_c, 0, 60, 0
1, 118521, Note_on_c, 0, 64, 0
1, 118617, Note_on_c, 0, 51, 52
1, 118621, Control_c, 0, 64, 0
1, 118625, Note_on_c, 0, 39, 48
1, 118633, Note_on_c, 0, 55, 56
1, 118673, Control_c, 0, 64, 127
1, 118741, Note_on_c, 0, 51, 0
1, 118797, Note_on_c, 0, 39, 0
1, 118841, Note_on_c, 0, 55, 0
1, 118933, Note_on_c, 0, 38, 48
1, 118965, Control_c, 0, 64, 0
1, 119005, Note_on_c, 0, 54, 57
1, 119045, Note_on_c, 0, 50, 45
1, 119045, Control_c, 0, 64, 127
1, 119061, Note_on_c, 0, 38, 0
1, 119177, Note_on_c, 0, 54, 0
1, 119185, Note_on_c, 0, 50, 0
1, 119253, Note_on_c, 0, 50, 35
1, 119261, Note_on_c, 0, 54, 72
1, 119261, Note_on_c, 0, 58, 68
1, 119265, Note_on_c, 0, 65, 63
1, 119269, Note_on_c, 0, 60, 61
1, 119329, Note_on_c, 0, 65, 0
1, 119337, Note_on_c, 0, 50, 0
1, 119345, Note_on_c, 0, 54, 0
1, 119361, Note_on_c, 0, 60, 0
1, 119373, Note_on_c, 0, 58, 0
1, 119373, Control_c, 0, 64, 0
1, 119381, Note_on_c, 0, 44, 60
1, 119417, Note_on_c, 0, 54, 50
1, 119433, Control_c, 0, 64, 72
1, 119437, Note_on_c, 0, 58, 38
1, 119437, Control_c, 0, 64, 127
1, 119517, Note_on_c, 0, 54, 0
1, 119549, Note_on_c, 0, 58, 0
1, 119569, Note_on_c, 0, 44, 0
1, 119649, Note_on_c, 0, 58, 68
1, 119657, Note_on_c, 0, 43, 54
1, 119657, Note_on_c, 0, 53, 65
1, 119665, Note_on_c, 0, 50, 53
1, 119673, Control_c, 0, 64, 0
1, 119745, Control_c, 0, 64, 127
1, 119817, Note_on_c, 0, 50, 0
1, 119817, Note_on_c, 0, 53, 0
1, 119817, Note_on_c, 0, 43, 0
1, 119869, Note_on_c, 0, 58, 0
1, 120057, Note_on_c, 0, 72, 57
1, 120065, Note_on_c, 0, 62, 39
1, 120065, Note_on_c, 0, 65, 38
1, 120069, Note_on_c, 0, 69, 45
1, 120073, Note_on_c, 0, 58, 39
1, 120073, Note_on_c, 0, 60, 43
1, 120097, Note_on_c, 0, 65, 0
1, 120097, Control_c, 0, 64, 0
1, 120101, Note_on_c, 0, 60, 0
1, 120105, Note_on_c, 0, 62, 0
1, 120109, Note_on_c, 0, 72, 0
1, 120109, Note_on_c, 0, 69, 0
1, 120129, Note_on_c, 0, 58, 0
1, 120165, Note_on_c, 0, 65, 46
1, 120173, Note_on_c, 0, 72, 45
1, 120179, Note_on_c, 0, 62, 38
1, 120179, Note_on_c, 0, 69, 46
1, 120189, Note_on_c, 0, 58, 49
1, 120193, Note_on_c, 0, 60, 35
1, 120205, Control_c, 0, 64, 127
1, 120221, Note_on_c, 0, 60, 0
1, 120225, Note_on_c, 0, 72, 0
1, 120233, Note_on_c, 0, 69, 0
1, 120233, Note_on_c, 0, 62, 0
1, 120245, Note_on_c, 0, 65, 0
1, 120245, Note_on_c, 0, 58, 0
1, 120297, Note_on_c, 0, 65, 50
1, 120301, Note_on_c, 0, 72, 58
1, 120301, Note_on_c, 0, 69, 52
1, 120301, Note_on_c, 0, 58, 41
1, 120305, Note_on_c, 0, 62, 48
1, 120313, Note_on_c, 0, 60, 49
1, 120337, Note_on_c, 0, 60, 0
1, 120341, Note_on_c, 0, 72, 0
1, 120357, Note_on_c, 0, 65, 0
1, 120357, Note_on_c, 0, 62, 0
1, 120361, Note_on_c, 0, 58, 0
1, 120365, Note_on_c, 0, 69, 0
1, 120413, Note_on_c, 0, 65, 68
1, 120413, Note_on_c, 0, 72, 67
1, 120413, Note_on_c, 0, 69, 66
1, 120413, Note_on_c, 0, 58, 54
1, 120421, Note_on_c, 0, 62, 59
1, 120425, Note_on_c, 0, 60, 63
1, 120445, Note_on_c, 0, 60, 0
1, 120465, Note_on_c, 0, 72, 0
1, 120465, Note_on_c, 0, 62, 0
1, 120481, Note_on_c, 0, 65, 0
1, 120485, Note_on_c, 0, 58, 0
1, 120493, Note_on_c, 0, 69, 0
1, 120541, Note_on_c, 0, 72, 71
1, 120541, Note_on_c, 0, 69, 75
1, 120545, Note_on_c, 0, 58, 63
1, 120545, Note_on_c, 0, 65, 77
1, 120549, Note_on_c, 0, 62, 66
1, 120549, Note_on_c, 0, 60, 62
1, 120569, Note_on_c, 0, 60, 0
1, 120569, Note_on_c, 0, 62, 0
1, 120585, Note_on_c, 0, 65, 0
1, 120597, Note_on_c, 0, 72, 0
1, 120601, Note_on_c, 0, 58, 0
1, 120609, Note_on_c, 0, 69, 0
1, 120669, Note_on_c, 0, 66, 70
1, 120673, Note_on_c, 0, 73, 57
1, 120681, Note_on_c, 0, 61, 46
1, 120697, Note_on_c, 0, 73, 0
1, 120697, Note_on_c, 0, 66, 0
1, 120697, Note_on_c, 0, 58, 27
1, 120705, Note_on_c, 0, 61, 0
1, 120717, Control_c, 0, 64, 0
1, 120725, Note_on_c, 0, 58, 0
1, 120789, Note_on_c, 0, 58, 57
1, 120789, Note_on_c, 0, 72, 68
1, 120793, Note_on_c, 0, 62, 66
1, 120793, Note_on_c, 0, 65, 68
1, 120793, Note_on_c, 0, 69, 59
1, 120801, Note_on_c, 0, 60, 60
1, 120845, Control_c, 0, 64, 127
1, 120893, Note_on_c, 0, 60, 0
1, 120893, Note_on_c, 0, 62, 0
1, 120921, Note_on_c, 0, 58, 0
1, 121077, Note_on_c, 0, 65, 0
1, 121185, Note_on_c, 0, 48, 60
1, 121221, Note_on_c, 0, 48, 0
1, 121241, Note_on_c, 0, 72, 0
1, 121281, Note_on_c, 0, 69, 0
1, 121305, Control_c, 0, 64, 0
1, 121325, Note_on_c, 0, 65, 49
1, 121333, Note_on_c, 0, 62, 37
1, 121337, Control_c, 0, 64, 127
1, 121337, Note_on_c, 0, 48, 35
1, 121337, Note_on_c, 0, 58, 45
1, 121357, Note_on_c, 0, 62, 0
1, 121361, Note_on_c, 0, 58, 0
1, 121365, Note_on_c, 0, 48, 0
1, 121377, Note_on_c, 0, 65, 0
1, 121573, Note_on_c, 0, 68, 56
1, 121573, Note_on_c, 0, 72, 58
1, 121581, Note_on_c, 0, 62, 49
1, 121585, Note_on_c, 0, 65, 47
1, 121593, Note_on_c, 0, 58, 31
1, 121605, Note_on_c, 0, 65, 0
1, 121609, Note_on_c, 0, 62, 0
1, 121633, Note_on_c, 0, 68, 0
1, 121633, Note_on_c, 0, 72, 0
1, 121633, Note_on_c, 0, 58, 0
1, 121689, Note_on_c, 0, 72, 54
1, 121689, Note_on_c, 0, 68, 53
1, 121693, Note_on_c, 0, 64, 48
1, 121697, Note_on_c, 0, 62, 54
1, 121697, Note_on_c, 0, 58, 37
1, 121709, Note_on_c, 0, 60, 39
1, 121729, Note_on_c, 0, 64, 0
1, 121733, Note_on_c, 0, 60, 0
1, 121741, Note_on_c, 0, 62, 0
1, 121749, Note_on_c, 0, 72, 0
1, 121753, Note_on_c, 0, 58, 0
1, 121757, Note_on_c, 0, 68, 0
1, 121805, Note_on_c, 0, 68, 63
1, 121805, Note_on_c, 0, 62, 52
1, 121805, Note_on_c, 0, 72, 56
1, 121809, Note_on_c, 0, 64, 57
1, 121813, Note_on_c, 0, 58, 43
1, 121821, Note_on_c, 0, 60, 55
1, 121841, Note_on_c, 0, 60, 0
1, 121853, Note_on_c, 0, 64, 0
1, 121861, Note_on_c, 0, 72, 0
1, 121869, Note_on_c, 0, 62, 0
1, 121881, Note_on_c, 0, 68, 0
1, 121881, Note_on_c, 0, 58, 0
1, 121933, Note_on_c, 0, 68, 84
1, 121937, Note_on_c, 0, 72, 83
1, 121937, Note_on_c, 0, 64, 86
1, 121937, Note_on_c, 0, 62, 75
1, 121941, Note_on_c, 0, 58, 64
1, 121941, Note_on_c, 0, 60, 72
1, 121985, Note_on_c, 0, 64, 0
1, 121997, Note_on_c, 0, 62, 0
1, 122001, Note_on_c, 0, 72, 0
1, 122001, Note_on_c, 0, 60, 0
1, 122013, Note_on_c, 0, 68, 0
1, 122017, Note_on_c, 0, 58, 0
1, 122017, Control_c, 0, 64, 0
1, 122057, Note_on_c, 0, 72, 78
1, 122057, Note_on_c, 0, 68, 76
1, 122057, Note_on_c, 0, 58, 65
1, 122065, Note_on_c, 0, 64, 81
1, 122065, Note_on_c, 0, 60, 65
1, 122065, Note_on_c, 0, 62, 71
1, 122117, Note_on_c, 0, 64, 0
1, 122121, Note_on_c, 0, 60, 0
1, 122121, Note_on_c, 0, 72, 0
1, 122121, Note_on_c, 0, 62, 0
1, 122137, Note_on_c, 0, 68, 0
1, 122141, Note_on_c, 0, 58, 0
1, 122173, Note_on_c, 0, 73, 69
1, 122177, Note_on_c, 0, 64, 49
1, 122181, Note_on_c, 0, 68, 48
1, 122193, Note_on_c, 0, 58, 46
1, 122197, Control_c, 0, 64, 127
1, 122201, Note_on_c, 0, 62, 36
1, 122213, Note_on_c, 0, 68, 0
1, 122213, Note_on_c, 0, 64, 0
1, 122225, Note_on_c, 0, 62, 0
1, 122229, Note_on_c, 0, 73, 0
1, 122233, Note_on_c, 0, 58, 0
1, 122257, Control_c, 0, 64, 0
1, 122301, Note_on_c, 0, 68, 79
1, 122305, Note_on_c, 0, 62, 66
1, 122305, Note_on_c, 0, 72, 75
1, 122305, Note_on_c, 0, 64, 76
1, 122309, Note_on_c, 0, 58, 50
1, 122313, Note_on_c, 0, 60, 58
1, 122425, Control_c, 0, 64, 40
1, 122429, Control_c, 0, 64, 127
1, 122533, Note_on_c, 0, 62, 0
1, 122537, Note_on_c, 0, 60, 0
1, 122561, Note_on_c, 0, 58, 0
1, 122681, Note_on_c, 0, 64, 0
1, 122717, Note_on_c, 0, 72, 0
1, 122725, Note_on_c, 0, 58, 42
1, 122797, Note_on_c, 0, 68, 0
1, 122801, Note_on_c, 0, 58, 0
1, 122817, Control_c, 0, 64, 0
1, 122865, Note_on_c, 0, 72, 47
1, 122865, Note_on_c, 0, 57, 42
1, 122869, Note_on_c, 0, 67, 46
1, 122869, Note_on_c, 0, 62, 43
1, 122877, Control_c, 0, 64, 127
1, 122913, Note_on_c, 0, 57, 0
1, 123093, Note_on_c, 0, 62, 0
1, 123169, Note_on_c, 0, 67, 0
1, 123261, Note_on_c, 0, 48, 46
1, 123405, Note_on_c, 0, 72, 0
1, 123597, Note_on_c, 0, 48, 0
1, 123609, Control_c, 0, 64, 0
1, 123617, Note_on_c, 0, 41, 46
1, 123633, Note_on_c, 0, 73, 40
1, 123633, Note_on_c, 0, 65, 37
1, 123645, Note_on_c, 0, 57, 24
1, 123649, Note_on_c, 0, 69, 33
1, 123657, Control_c, 0, 64, 127
1, 123669, Note_on_c, 0, 41, 0
1, 123701, Note_on_c, 0, 65, 0
1, 123713, Note_on_c, 0, 57, 0
1, 123745, Note_on_c, 0, 69, 0
1, 123749, Note_on_c, 0, 76, 55
1, 123765, Note_on_c, 0, 73, 0
1, 123769, Note_on_c, 0, 76, 0
1, 123841, Note_on_c, 0, 73, 57
1, 123841, Note_on_c, 0, 69, 53
1, 123841, Note_on_c, 0, 79, 68
1, 123849, Note_on_c, 0, 64, 52
1, 123921, Note_on_c, 0, 79, 0
1, 123929, Note_on_c, 0, 64, 0
1, 123941, Note_on_c, 0, 69, 0
1, 123945, Note_on_c, 0, 73, 0
1, 123965, Control_c, 0, 64, 0
1, 123985, Note_on_c, 0, 62, 61
1, 123985, Note_on_c, 0, 77, 61
1, 123989, Note_on_c, 0, 69, 46
1, 123997, Note_on_c, 0, 72, 43
1, 124017, Control_c, 0, 64, 127
1, 124069, Note_on_c, 0, 77, 0
1, 124073, Note_on_c, 0, 72, 0
1, 124101, Note_on_c, 0, 69, 0
1, 124241, Note_on_c, 0, 62, 0
1, 124241, Note_on_c, 0, 65, 53
1, 124241, Note_on_c, 0, 76, 60
1, 124241, Note_on_c, 0, 61, 57
1, 124249, Note_on_c, 0, 69, 57
1, 124257, Control_c, 0, 64, 0
1, 124257, Note_on_c, 0, 73, 44
1, 124285, Control_c, 0, 64, 127
1, 124289, Control_c, 0, 64, 0
1, 124341, Control_c, 0, 64, 127
1, 124409, Note_on_c, 0, 73, 0
1, 124413, Note_on_c, 0, 65, 0
1, 124421, Note_on_c, 0, 69, 0
1, 124441, Note_on_c, 0, 76, 0
1, 124501, Note_on_c, 0, 74, 57
1, 124505, Note_on_c, 0, 61, 0
1, 124505, Note_on_c, 0, 69, 56
1, 124513, Note_on_c, 0, 65, 46
1, 124517, Note_on_c, 0, 60, 38
1, 124593, Note_on_c, 0, 69, 0
1, 124593, Note_on_c, 0, 74, 0
1, 124621, Note_on_c, 0, 65, 0
1, 124741, Control_c, 0, 64, 0
1, 124757, Note_on_c, 0, 60, 0
1, 124785, Note_on_c, 0, 72, 50
1, 124789, Control_c, 0, 64, 127
1, 124789, Note_on_c, 0, 57, 50
1, 124789, Note_on_c, 0, 65, 51
1, 124789, Note_on_c, 0, 69, 46
1, 124793, Note_on_c, 0, 62, 41
1, 124865, Note_on_c, 0, 57, 0
1, 124877, Note_on_c, 0, 69, 0
1, 124893, Note_on_c, 0, 72, 0
1, 124905, Note_on_c, 0, 65, 0
1, 124925, Note_on_c, 0, 62, 0
1, 125053, Control_c, 0, 64, 0
1, 125065, Note_on_c, 0, 60, 49
1, 125065, Note_on_c, 0, 69, 49
1, 125069, Note_on_c, 0, 62, 51
1, 125069, Note_on_c, 0, 65, 47
1, 125069, Note_on_c, 0, 53, 45
1, 125113, Control_c, 0, 64, 127
1, 125209, Note_on_c, 0, 60, 0
1, 125221, Note_on_c, 0, 53, 0
1, 125225, Note_on_c, 0, 62, 0
1, 125233, Note_on_c, 0, 65, 0
1, 125257, Note_on_c, 0, 69, 0
1, 125305, Control_c, 0, 64, 0
1, 125321, Note_on_c, 0, 62, 51
1, 125321, Note_on_c, 0, 67, 56
1, 125321, Note_on_c, 0, 60, 52
1, 125321, Note_on_c, 0, 52, 45
1, 125337, Control_c, 0, 64, 127
1, 125421, Note_on_c, 0, 67, 0
1, 125433, Note_on_c, 0, 60, 0
1, 125445, Note_on_c, 0, 62, 0
1, 125465, Note_on_c, 0, 52, 0
1, 125545, Control_c, 0, 64, 0
1, 125569, Note_on_c, 0, 52, 55
1, 125569, Note_on_c, 0, 66, 52
1, 125577, Control_c, 0, 64, 127
1, 125585, Note_on_c, 0, 61, 39
1, 125589, Note_on_c, 0, 42, 30
1, 125597, Note_on_c, 0, 59, 23
1, 125621, Note_on_c, 0, 42, 0
1, 125625, Note_on_c, 0, 52, 0
1, 125645, Note_on_c, 0, 63, 20
1, 125677, Note_on_c, 0, 59, 0
1, 125721, Note_on_c, 0, 66, 0
1, 125729, Note_on_c, 0, 61, 0
1, 125745, Note_on_c, 0, 63, 0
1, 125825, Note_on_c, 0, 62, 47
1, 125825, Note_on_c, 0, 65, 54
1, 125833, Note_on_c, 0, 57, 43
1, 125889, Control_c, 0, 64, 0
1, 125925, Note_on_c, 0, 57, 0
1, 125937, Note_on_c, 0, 51, 34
1, 125941, Control_c, 0, 64, 127
1, 125949, Note_on_c, 0, 41, 40
1, 125985, Note_on_c, 0, 41, 0
1, 126093, Note_on_c, 0, 51, 0
1, 126161, Note_on_c, 0, 62, 0
1, 126205, Note_on_c, 0, 65, 0
1, 126313, Control_c, 0, 64, 0
1, 126337, Note_on_c, 0, 42, 45
1, 126337, Note_on_c, 0, 52, 49
1, 126401, Control_c, 0, 64, 127
1, 126525, Note_on_c, 0, 52, 0
1, 126597, Note_on_c, 0, 48, 41
1, 126601, Note_on_c, 0, 42, 0
1, 126693, Note_on_c, 0, 48, 0
1, 126705, Control_c, 0, 64, 0
1, 126733, Note_on_c, 0, 51, 44
1, 126777, Control_c, 0, 64, 127
1, 126805, Note_on_c, 0, 51, 0
1, 126861, Note_on_c, 0, 71, 57
1, 126933, Note_on_c, 0, 71, 0
1, 126945, Note_on_c, 0, 72, 40
1, 126997, Note_on_c, 0, 73, 49
1, 127005, Note_on_c, 0, 72, 0
1, 127017, Note_on_c, 0, 73, 0
1, 127033, Note_on_c, 0, 74, 58
1, 127085, Note_on_c, 0, 74, 0
1, 127097, Note_on_c, 0, 77, 90
1, 127109, Control_c, 0, 64, 0
1, 127113, Note_on_c, 0, 62, 44
1, 127113, Note_on_c, 0, 67, 40
1, 127125, Note_on_c, 0, 63, 35
1, 127177, Note_on_c, 0, 74, 75
1, 127185, Note_on_c, 0, 77, 0
1, 127269, Note_on_c, 0, 74, 0
1, 127285, Note_on_c, 0, 67, 0
1, 127285, Note_on_c, 0, 75, 81
1, 127289, Note_on_c, 0, 63, 0
1, 127317, Note_on_c, 0, 62, 0
1, 127369, Note_on_c, 0, 75, 0
1, 127373, Note_on_c, 0, 71, 35
1, 127433, Note_on_c, 0, 71, 0
1, 127461, Note_on_c, 0, 74, 83
1, 127497, Note_on_c, 0, 58, 38
1, 127545, Note_on_c, 0, 72, 66
1, 127577, Note_on_c, 0, 74, 0
1, 127617, Note_on_c, 0, 72, 0
1, 127629, Note_on_c, 0, 58, 0
1, 127665, Note_on_c, 0, 65, 39
1, 127677, Control_c, 0, 64, 127
1, 127849, Note_on_c, 0, 63, 46
1, 127857, Note_on_c, 0, 57, 45
1, 127869, Note_on_c, 0, 63, 0
1, 127881, Note_on_c, 0, 57, 0
1, 128029, Note_on_c, 0, 65, 0
1, 128105, Note_on_c, 0, 41, 49
1, 128129, Note_on_c, 0, 41, 0
1, 128205, Control_c, 0, 64, 0
1, 128233, Note_on_c, 0, 66, 56
1, 128237, Note_on_c, 0, 57, 56
1, 128237, Note_on_c, 0, 61, 53
1, 128241, Note_on_c, 0, 63, 55
1, 128293, Control_c, 0, 64, 127
1, 128425, Note_on_c, 0, 57, 0
1, 128457, Note_on_c, 0, 61, 0
1, 128465, Note_on_c, 0, 66, 0
1, 128465, Note_on_c, 0, 63, 0
1, 128481, Note_on_c, 0, 41, 56
1, 128505, Note_on_c, 0, 41, 0
1, 128573, Control_c, 0, 64, 0
1, 128613, Note_on_c, 0, 35, 42
1, 128625, Note_on_c, 0, 61, 57
1, 128629, Note_on_c, 0, 57, 54
1, 128641, Control_c, 0, 64, 127
1, 128665, Note_on_c, 0, 35, 0
1, 128797, Note_on_c, 0, 57, 0
1, 128865, Note_on_c, 0, 61, 0
1, 128957, Control_c, 0, 64, 0
1, 128997, Note_on_c, 0, 22, 45
1, 128997, Control_c, 0, 64, 72
1, 129001, Control_c, 0, 64, 127
1, 129001, Note_on_c, 0, 56, 43
1, 129009, Note_on_c, 0, 65, 50
1, 129011, Note_on_c, 0, 62, 46
1, 129017, Note_on_c, 0, 34, 23
1, 129025, Note_on_c, 0, 56, 0
1, 129041, Note_on_c, 0, 62, 0
1, 129045, Note_on_c, 0, 22, 0
1, 129061, Note_on_c, 0, 34, 0
1, 129073, Note_on_c, 0, 65, 0
1, 129277, Note_on_c, 0, 72, 60
1, 129393, Note_on_c, 0, 73, 51
1, 129393, Control_c, 0, 64, 0
1, 129409, Note_on_c, 0, 72, 0
1, 129449, Note_on_c, 0, 73, 0
1, 129497, Note_on_c, 0, 74, 57
1, 129549, Control_c, 0, 64, 127
1, 129557, Note_on_c, 0, 74, 0
1, 129625, Note_on_c, 0, 77, 66
1, 129717, Note_on_c, 0, 77, 0
1, 129717, Control_c, 0, 64, 0
1, 129753, Note_on_c, 0, 79, 60
1, 129757, Note_on_c, 0, 62, 34
1, 129769, Note_on_c, 0, 58, 36
1, 129781, Control_c, 0, 64, 127
1, 129805, Note_on_c, 0, 58, 0
1, 129821, Note_on_c, 0, 62, 0
1, 129829, Note_on_c, 0, 79, 0
1, 130137, Note_on_c, 0, 66, 66
1, 130141, Control_c, 0, 64, 0
1, 130153, Note_on_c, 0, 56, 43
1, 130193, Control_c, 0, 64, 127
1, 130309, Note_on_c, 0, 66, 0
1, 130321, Note_on_c, 0, 56, 0
1, 130529, Note_on_c, 0, 65, 42
1, 130533, Note_on_c, 0, 72, 55
1, 130541, Note_on_c, 0, 62, 35
1, 130549, Control_c, 0, 64, 0
1, 130553, Note_on_c, 0, 60, 37
1, 130557, Note_on_c, 0, 65, 0
1, 130585, Note_on_c, 0, 72, 0
1, 130601, Note_on_c, 0, 73, 43
1, 130629, Note_on_c, 0, 73, 0
1, 130653, Control_c, 0, 64, 127
1, 130793, Note_on_c, 0, 62, 0
1, 130893, Note_on_c, 0, 72, 54
1, 130917, Note_on_c, 0, 72, 0
1, 130917, Note_on_c, 0, 62, 42
1, 130921, Note_on_c, 0, 65, 23
1, 130929, Control_c, 0, 64, 0
1, 130937, Note_on_c, 0, 73, 47
1, 130945, Note_on_c, 0, 65, 0
1, 130957, Note_on_c, 0, 73, 0
1, 130993, Note_on_c, 0, 74, 45
1, 131041, Note_on_c, 0, 74, 0
1, 131049, Note_on_c, 0, 80, 66
1, 131109, Note_on_c, 0, 80, 0
1, 131137, Note_on_c, 0, 82, 68
1, 131177, Control_c, 0, 64, 127
1, 131205, Note_on_c, 0, 82, 0
1, 131221, Control_c, 0, 64, 0
1, 131285, Note_on_c, 0, 53, 49
1, 131309, Note_on_c, 0, 77, 63
1, 131325, Note_on_c, 0, 62, 0
1, 131341, Note_on_c, 0, 60, 0
1, 131369, Note_on_c, 0, 77, 0
1, 131377, Note_on_c, 0, 78, 63
1, 131397, Note_on_c, 0, 78, 0
1, 131437, Note_on_c, 0, 53, 0
1, 131445, Note_on_c, 0, 79, 57
1, 131465, Note_on_c, 0, 79, 0
1, 131533, Note_on_c, 0, 86, 57
1, 131589, Note_on_c, 0, 89, 64
1, 131597, Note_on_c, 0, 86, 0
1, 131633, Note_on_c, 0, 89, 0
1, 131633, Note_on_c, 0, 84, 53
1, 131681, Note_on_c, 0, 84, 0
1, 131693, Note_on_c, 0, 85, 58
1, 131697, Note_on_c, 0, 62, 46
1, 131709, Note_on_c, 0, 60, 39
1, 131713, Note_on_c, 0, 85, 0
1, 131753, Note_on_c, 0, 86, 54
1, 131809, Note_on_c, 0, 86, 0
1, 131821, Note_on_c, 0, 89, 30
1, 131849, Note_on_c, 0, 93, 63
1, 131861, Note_on_c, 0, 89, 0
1, 131901, Note_on_c, 0, 93, 0
1, 131909, Note_on_c, 0, 62, 0
1, 131909, Note_on_c, 0, 96, 88
1, 131921, Note_on_c, 0, 60, 0
1, 131969, Control_c, 0, 64, 127
1, 131985, Note_on_c, 0, 96, 0
1, 132009, Note_on_c, 0, 94, 72
1, 132057, Control_c, 0, 64, 0
1, 132077, Note_on_c, 0, 94, 0
1, 132097, Note_on_c, 0, 43, 57
1, 132109, Note_on_c, 0, 95, 75
1, 132153, Note_on_c, 0, 43, 0
1, 132213, Note_on_c, 0, 91, 73
1, 132229, Note_on_c, 0, 95, 0
1, 132229, Control_c, 0, 64, 127
1, 132261, Note_on_c, 0, 91, 0
1, 132293, Note_on_c, 0, 86, 61
1, 132341, Note_on_c, 0, 86, 0
1, 132389, Note_on_c, 0, 84, 69
1, 132397, Note_on_c, 0, 91, 50
1, 132417, Note_on_c, 0, 91, 0
1, 132425, Control_c, 0, 64, 0
1, 132437, Note_on_c, 0, 53, 39
1, 132449, Note_on_c, 0, 84, 0
1, 132457, Note_on_c, 0, 64, 16
1, 132457, Note_on_c, 0, 59, 38
1, 132489, Note_on_c, 0, 82, 63
1, 132541, Note_on_c, 0, 82, 0
1, 132561, Note_on_c, 0, 59, 0
1, 132561, Note_on_c, 0, 53, 0
1, 132581, Note_on_c, 0, 83, 66
1, 132597, Note_on_c, 0, 64, 0
1, 132597, Control_c, 0, 64, 127
1, 132633, Note_on_c, 0, 83, 0
1, 132669, Note_on_c, 0, 84, 63
1, 132721, Note_on_c, 0, 84, 0
1, 132761, Note_on_c, 0, 85, 77
1, 132789, Control_c, 0, 64, 0
1, 132805, Note_on_c, 0, 85, 0
1, 132821, Note_on_c, 0, 66, 52
1, 132829, Note_on_c, 0, 56, 50
1, 132845, Note_on_c, 0, 86, 75
1, 132853, Control_c, 0, 64, 127
1, 132905, Note_on_c, 0, 66, 0
1, 132941, Note_on_c, 0, 56, 0
1, 133057, Note_on_c, 0, 86, 0
1, 133081, Note_on_c, 0, 77, 52
1, 133101, Note_on_c, 0, 77, 0
1, 133177, Control_c, 0, 64, 0
1, 133197, Note_on_c, 0, 65, 42
1, 133201, Note_on_c, 0, 54, 46
1, 133209, Note_on_c, 0, 60, 41
1, 133209, Note_on_c, 0, 82, 57
1, 133241, Control_c, 0, 64, 127
1, 133333, Note_on_c, 0, 60, 0
1, 133345, Note_on_c, 0, 65, 0
1, 133421, Note_on_c, 0, 82, 0
1, 133441, Note_on_c, 0, 54, 0
1, 133481, Note_on_c, 0, 83, 67
1, 133485, Note_on_c, 0, 74, 55
1, 133529, Control_c, 0, 64, 0
1, 133601, Note_on_c, 0, 64, 41
1, 133605, Note_on_c, 0, 59, 47
1, 133605, Note_on_c, 0, 53, 46
1, 133609, Control_c, 0, 64, 127
1, 133633, Note_on_c, 0, 59, 0
1, 133637, Note_on_c, 0, 64, 0
1, 133685, Note_on_c, 0, 53, 0
1, 133697, Note_on_c, 0, 83, 0
1, 133741, Note_on_c, 0, 74, 0
1, 133869, Note_on_c, 0, 50, 50
1, 133901, Note_on_c, 0, 50, 0
1, 133921, Control_c, 0, 64, 0
1, 133997, Note_on_c, 0, 44, 51
1, 134001, Note_on_c, 0, 54, 41
1, 134005, Note_on_c, 0, 81, 59
1, 134009, Note_on_c, 0, 77, 50
1, 134013, Note_on_c, 0, 74, 42
1, 134021, Note_on_c, 0, 71, 38
1, 134037, Control_c, 0, 64, 127
1, 134133, Note_on_c, 0, 54, 0
1, 134181, Note_on_c, 0, 44, 0
1, 134225, Note_on_c, 0, 71, 0
1, 134249, Note_on_c, 0, 81, 0
1, 134261, Note_on_c, 0, 77, 0
1, 134261, Note_on_c, 0, 50, 54
1, 134289, Note_on_c, 0, 74, 0
1, 134341, Control_c, 0, 64, 0
1, 134393, Note_on_c, 0, 74, 57
1, 134397, Note_on_c, 0, 79, 52
1, 134397, Note_on_c, 0, 67, 44
1, 134401, Note_on_c, 0, 43, 50
1, 134405, Note_on_c, 0, 53, 51
1, 134413, Control_c, 0, 64, 127
1, 134429, Note_on_c, 0, 50, 0
1, 134433, Note_on_c, 0, 43, 0
1, 134457, Note_on_c, 0, 53, 0
1, 134601, Note_on_c, 0, 79, 0
1, 134605, Note_on_c, 0, 67, 0
1, 134613, Note_on_c, 0, 74, 0
1, 134745, Control_c, 0, 64, 0
1, 134769, Note_on_c, 0, 53, 55
1, 134769, Note_on_c, 0, 78, 64
1, 134777, Note_on_c, 0, 64, 36
1, 134777, Note_on_c, 0, 59, 51
1, 134781, Note_on_c, 0, 66, 50
1, 134781, Note_on_c, 0, 73, 58
1, 134805, Note_on_c, 0, 64, 0
1, 134809, Control_c, 0, 64, 127
1, 134821, Note_on_c, 0, 59, 0
1, 134861, Note_on_c, 0, 53, 0
1, 134945, Note_on_c, 0, 66, 0
1, 134957, Note_on_c, 0, 73, 0
1, 134993, Note_on_c, 0, 78, 0
1, 135053, Note_on_c, 0, 37, 63
1, 135105, Note_on_c, 0, 44, 54
1, 135121, Note_on_c, 0, 37, 0
1, 135121, Control_c, 0, 64, 24
1, 135121, Control_c, 0, 64, 0
1, 135141, Note_on_c, 0, 44, 0
1, 135153, Note_on_c, 0, 77, 77
1, 135157, Note_on_c, 0, 71, 71
1, 135157, Note_on_c, 0, 46, 45
1, 135165, Note_on_c, 0, 65, 54
1, 135165, Note_on_c, 0, 53, 68
1, 135169, Note_on_c, 0, 44, 36
1, 135177, Control_c, 0, 64, 127
1, 135185, Note_on_c, 0, 46, 0
1, 135273, Note_on_c, 0, 77, 0
1, 135281, Note_on_c, 0, 44, 0
1, 135285, Note_on_c, 0, 71, 0
1, 135325, Note_on_c, 0, 65, 0
1, 135401, Note_on_c, 0, 53, 0
1, 135533, Note_on_c, 0, 70, 82
1, 135537, Note_on_c, 0, 58, 84
1, 135541, Note_on_c, 0, 63, 82
1, 135543, Note_on_c, 0, 67, 73
1, 135549, Control_c, 0, 64, 0
1, 135549, Note_on_c, 0, 59, 78
1, 135605, Control_c, 0, 64, 127
1, 135801, Note_on_c, 0, 67, 0
1, 135825, Note_on_c, 0, 59, 0
1, 135833, Note_on_c, 0, 58, 0
1, 135861, Note_on_c, 0, 63, 0
1, 135865, Note_on_c, 0, 70, 0
1, 135925, Control_c, 0, 64, 0
1, 135929, Note_on_c, 0, 68, 67
1, 135933, Note_on_c, 0, 63, 67
1, 135937, Note_on_c, 0, 59, 60
1, 135937, Note_on_c, 0, 56, 58
1, 135957, Control_c, 0, 64, 127
1, 135973, Note_on_c, 0, 56, 0
1, 136169, Note_on_c, 0, 59, 0
1, 136181, Note_on_c, 0, 63, 0
1, 136193, Note_on_c, 0, 68, 0
1, 136269, Control_c, 0, 64, 0
1, 136273, Note_on_c, 0, 37, 49
1, 136289, Note_on_c, 0, 63, 50
1, 136297, Note_on_c, 0, 59, 45
1, 136297, Note_on_c, 0, 67, 45
1, 136305, Control_c, 0, 64, 127
1, 136337, Note_on_c, 0, 37, 0
1, 136441, Note_on_c, 0, 59, 0
1, 136545, Note_on_c, 0, 63, 0
1, 136585, Note_on_c, 0, 67, 0
1, 136633, Control_c, 0, 64, 0
1, 136669, Note_on_c, 0, 36, 45
1, 136677, Note_on_c, 0, 60, 45
1, 136677, Note_on_c, 0, 64, 54
1, 136681, Note_on_c, 0, 52, 43
1, 136685, Control_c, 0, 64, 127
1, 136729, Note_on_c, 0, 36, 0
1, 136805, Note_on_c, 0, 52, 0
1, 136825, Note_on_c, 0, 64, 0
1, 136841, Note_on_c, 0, 60, 0
1, 137053, Control_c, 0, 64, 0
1, 137057, Note_on_c, 0, 55, 59
1, 137061, Note_on_c, 0, 58, 56
1, 137061, Note_on_c, 0, 61, 48
1, 137073, Note_on_c, 0, 49, 46
1, 137129, Control_c, 0, 64, 127
1, 137321, Note_on_c, 0, 55, 0
1, 137337, Note_on_c, 0, 61, 0
1, 137365, Note_on_c, 0, 58, 0
1, 137381, Note_on_c, 0, 49, 0
1, 137437, Control_c, 0, 64, 0
1, 137453, Note_on_c, 0, 60, 57
1, 137457, Note_on_c, 0, 55, 54
1, 137457, Note_on_c, 0, 58, 50
1, 137461, Note_on_c, 0, 48, 54
1, 137497, Control_c, 0, 64, 127
1, 137561, Note_on_c, 0, 48, 0
1, 137573, Note_on_c, 0, 55, 0
1, 137609, Note_on_c, 0, 60, 0
1, 137621, Note_on_c, 0, 58, 0
1, 137825, Control_c, 0, 64, 0
1, 137841, Note_on_c, 0, 73, 59
1, 137841, Note_on_c, 0, 42, 43
1, 137845, Note_on_c, 0, 68, 52
1, 137857, Note_on_c, 0, 49, 39
1, 137877, Note_on_c, 0, 42, 0
1, 137881, Note_on_c, 0, 64, 26
1, 137889, Control_c, 0, 64, 127
1, 137917, Note_on_c, 0, 49, 0
1, 137973, Note_on_c, 0, 64, 0
1, 138009, Note_on_c, 0, 73, 0
1, 138041, Note_on_c, 0, 68, 0
1, 138105, Note_on_c, 0, 72, 49
1, 138113, Note_on_c, 0, 67, 48
1, 138117, Note_on_c, 0, 62, 36
1, 138161, Control_c, 0, 64, 0
1, 138189, Note_on_c, 0, 72, 0
1, 138193, Note_on_c, 0, 67, 0
1, 138237, Control_c, 0, 64, 127
1, 138237, Note_on_c, 0, 48, 37
1, 138241, Note_on_c, 0, 41, 31
1, 138257, Note_on_c, 0, 62, 0
1, 138257, Note_on_c, 0, 57, 20
1, 138297, Note_on_c, 0, 41, 0
1, 138317, Note_on_c, 0, 57, 0
1, 138333, Note_on_c, 0, 48, 0
1, 138601, Note_on_c, 0, 48, 52
1, 138609, Control_c, 0, 64, 0
1, 138609, Note_on_c, 0, 50, 35
1, 138621, Note_on_c, 0, 60, 39
1, 138621, Note_on_c, 0, 69, 53
1, 138621, Note_on_c, 0, 65, 46
1, 138625, Note_on_c, 0, 64, 46
1, 138657, Note_on_c, 0, 50, 0
1, 138773, Note_on_c, 0, 64, 0
1, 138785, Note_on_c, 0, 65, 0
1, 138793, Note_on_c, 0, 69, 0
1, 138793, Note_on_c, 0, 60, 0
1, 138805, Control_c, 0, 64, 127
1, 138841, Note_on_c, 0, 48, 0
1, 138873, Note_on_c, 0, 36, 54
1, 138905, Note_on_c, 0, 36, 0
1, 138973, Control_c, 0, 64, 0
1, 138985, Note_on_c, 0, 36, 10
1, 138997, Note_on_c, 0, 69, 48
1, 139001, Note_on_c, 0, 58, 44
1, 139013, Note_on_c, 0, 62, 50
1, 139013, Note_on_c, 0, 65, 49
1, 139173, Control_c, 0, 64, 127
1, 139209, Note_on_c, 0, 58, 0
1, 139209, Note_on_c, 0, 69, 0
1, 139237, Note_on_c, 0, 65, 0
1, 139241, Note_on_c, 0, 62, 0
1, 139241, Note_on_c, 0, 48, 76
1, 139313, Control_c, 0, 64, 0
1, 139381, Note_on_c, 0, 70, 52
1, 139385, Note_on_c, 0, 36, 0
1, 139385, Note_on_c, 0, 58, 49
1, 139389, Note_on_c, 0, 62, 49
1, 139397, Note_on_c, 0, 65, 44
1, 139405, Control_c, 0, 64, 127
1, 139469, Note_on_c, 0, 48, 0
1, 139489, Note_on_c, 0, 62, 0
1, 139509, Note_on_c, 0, 65, 0
1, 139513, Note_on_c, 0, 58, 0
1, 139569, Note_on_c, 0, 70, 0
1, 139625, Note_on_c, 0, 48, 53
1, 139697, Note_on_c, 0, 48, 0
1, 139741, Control_c, 0, 64, 0
1, 139763, Note_on_c, 0, 72, 46
1, 139763, Note_on_c, 0, 41, 52
1, 139765, Note_on_c, 0, 60, 30
1, 139769, Note_on_c, 0, 67, 46
1, 140169, Note_on_c, 0, 50, 54
1, 140201, Control_c, 0, 64, 127
1, 140233, Note_on_c, 0, 41, 0
1, 140273, Note_on_c, 0, 50, 0
1, 140345, Note_on_c, 0, 60, 0
1, 140397, Note_on_c, 0, 67, 0
1, 140397, Note_on_c, 0, 43, 38
1, 140453, Note_on_c, 0, 72, 0
1, 140457, Note_on_c, 0, 43, 0
1, 140489, Control_c, 0, 64, 0
1, 140537, Note_on_c, 0, 36, 48
1, 140541, Note_on_c, 0, 68, 42
1, 140557, Note_on_c, 0, 64, 35
1, 140565, Note_on_c, 0, 72, 22
1, 140597, Note_on_c, 0, 36, 0
1, 140601, Control_c, 0, 64, 127
1, 140777, Note_on_c, 0, 48, 48
1, 140865, Control_c, 0, 64, 0
1, 140877, Note_on_c, 0, 48, 0
1, 140915, Note_on_c, 0, 50, 51
1, 140985, Control_c, 0, 64, 127
1, 141097, Note_on_c, 0, 50, 0
1, 141097, Note_on_c, 0, 72, 0
1, 141109, Note_on_c, 0, 68, 0
1, 141149, Note_on_c, 0, 48, 49
1, 141153, Note_on_c, 0, 64, 0
1, 141237, Control_c, 0, 64, 0
1, 141241, Note_on_c, 0, 48, 0
1, 141285, Note_on_c, 0, 41, 46
1, 141285, Note_on_c, 0, 69, 49
1, 141289, Note_on_c, 0, 60, 38
1, 141301, Note_on_c, 0, 64, 39
1, 141317, Control_c, 0, 64, 127
1, 141469, Note_on_c, 0, 60, 0
1, 141477, Note_on_c, 0, 64, 0
1, 141537, Note_on_c, 0, 48, 57
1, 141545, Note_on_c, 0, 69, 0
1, 141549, Note_on_c, 0, 57, 57
1, 141689, Note_on_c, 0, 69, 57
1, 141697, Note_on_c, 0, 57, 0
1, 141697, Note_on_c, 0, 60, 52
1, 141701, Note_on_c, 0, 64, 51
1, 141713, Note_on_c, 0, 41, 0
1, 141729, Note_on_c, 0, 60, 0
1, 141777, Note_on_c, 0, 69, 0
1, 141833, Note_on_c, 0, 64, 0
1, 141881, Note_on_c, 0, 48, 0
1, 141917, Note_on_c, 0, 41, 57
1, 141937, Note_on_c, 0, 41, 0
1, 142057, Control_c, 0, 64, 0
1, 142069, Note_on_c, 0, 46, 70
1, 142073, Note_on_c, 0, 56, 73
1, 142077, Note_on_c, 0, 65, 82
1, 142077, Note_on_c, 0, 62, 88
1, 142077, Note_on_c, 0, 69, 82
1, 142169, Control_c, 0, 64, 127
1, 142237, Note_on_c, 0, 69, 0
1, 142237, Note_on_c, 0, 46, 0
1, 142237, Note_on_c, 0, 62, 0
1, 142253, Note_on_c, 0, 65, 0
1, 142253, Note_on_c, 0, 56, 0
1, 142313, Note_on_c, 0, 46, 74
1, 142313, Note_on_c, 0, 56, 63
1, 142313, Note_on_c, 0, 65, 60
1, 142317, Note_on_c, 0, 69, 68
1, 142317, Note_on_c, 0, 62, 72
1, 142377, Note_on_c, 0, 69, 0
1, 142381, Note_on_c, 0, 62, 0
1, 142397, Note_on_c, 0, 46, 0
1, 142397, Note_on_c, 0, 56, 0
1, 142397, Note_on_c, 0, 65, 0
1, 142445, Control_c, 0, 64, 0
1, 142461, Note_on_c, 0, 46, 61
1, 142465, Note_on_c, 0, 56, 57
1, 142469, Note_on_c, 0, 70, 79
1, 142477, Note_on_c, 0, 60, 68
1, 142477, Control_c, 0, 64, 127
1, 142537, Note_on_c, 0, 60, 0
1, 142541, Note_on_c, 0, 70, 0
1, 142569, Note_on_c, 0, 56, 0
1, 142633, Note_on_c, 0, 46, 0
1, 142681, Control_c, 0, 64, 0
1, 142705, Note_on_c, 0, 72, 84
1, 142709, Note_on_c, 0, 67, 83
1, 142709, Note_on_c, 0, 60, 94
1, 142709, Note_on_c, 0, 55, 83
1, 142709, Note_on_c, 0, 45, 80
1, 142785, Control_c, 0, 64, 127
1, 142993, Note_on_c, 0, 55, 0
1, 143037, Note_on_c, 0, 72, 0
1, 143045, Note_on_c, 0, 45, 0
1, 143053, Note_on_c, 0, 67, 0
1, 143153, Note_on_c, 0, 60, 0
1, 143197, Control_c, 0, 64, 0
1, 143221, Note_on_c, 0, 27, 52
1, 143253, Control_c, 0, 64, 127
1, 143413, Note_on_c, 0, 27, 0
1, 143477, Note_on_c, 0, 54, 52
1, 143481, Control_c, 0, 64, 0
1, 143481, Note_on_c, 0, 65, 48
1, 143485, Note_on_c, 0, 58, 52
1, 143493, Note_on_c, 0, 26, 49
1, 143493, Note_on_c, 0, 38, 41
1, 143497, Note_on_c, 0, 60, 46
1, 143577, Control_c, 0, 64, 127
1, 143693, Note_on_c, 0, 26, 0
1, 143717, Note_on_c, 0, 60, 0
1, 143721, Note_on_c, 0, 54, 0
1, 143733, Note_on_c, 0, 65, 0
1, 143741, Note_on_c, 0, 38, 0
1, 143765, Note_on_c, 0, 58, 0
1, 144029, Note_on_c, 0, 74, 54
1, 144061, Note_on_c, 0, 74, 0
1, 144253, Note_on_c, 0, 72, 75
1, 144333, Note_on_c, 0, 72, 0
1, 144381, Control_c, 0, 64, 0
1, 144397, Note_on_c, 0, 72, 42
1, 144397, Note_on_c, 0, 65, 49
1, 144397, Note_on_c, 0, 69, 54
1, 144397, Note_on_c, 0, 62, 41
1, 144397, Note_on_c, 0, 60, 57
1, 144561, Control_c, 0, 64, 127
1, 144613, Note_on_c, 0, 69, 0
1, 144617, Note_on_c, 0, 65, 0
1, 144629, Note_on_c, 0, 72, 0
1, 144641, Note_on_c, 0, 60, 0
1, 144657, Note_on_c, 0, 62, 0
1, 144773, Note_on_c, 0, 58, 60
1, 144773, Note_on_c, 0, 70, 52
1, 144785, Note_on_c, 0, 65, 44
1, 144793, Note_on_c, 0, 62, 41
1, 145009, Note_on_c, 0, 58, 0
1, 145029, Note_on_c, 0, 62, 0
1, 145029, Note_on_c, 0, 65, 0
1, 145045, Note_on_c, 0, 70, 0
1, 145129, Control_c, 0, 64, 0
1, 145141, Note_on_c, 0, 70, 46
1, 145149, Note_on_c, 0, 58, 39
1, 145157, Note_on_c, 0, 65, 40
1, 145165, Note_on_c, 0, 62, 36
1, 145389, Note_on_c, 0, 46, 56
1, 145457, Note_on_c, 0, 46, 0
1, 145537, Note_on_c, 0, 47, 41
1, 145673, Note_on_c, 0, 47, 0
1, 145781, Note_on_c, 0, 48, 68
1, 145853, Control_c, 0, 64, 127
1, 146089, Note_on_c, 0, 48, 0
1, 146161, Note_on_c, 0, 48, 82
1, 146205, Control_c, 0, 64, 0
1, 146245, Control_c, 0, 64, 127
1, 146345, Note_on_c, 0, 48, 0
1, 146389, Note_on_c, 0, 58, 0
1, 146489, Note_on_c, 0, 62, 0
1, 146509, Note_on_c, 0, 65, 0
1, 146533, Control_c, 0, 64, 0
1, 146557, Note_on_c, 0, 46, 85
1, 146565, Note_on_c, 0, 70, 0
1, 146565, Note_on_c, 0, 34, 83
1, 146717, Control_c, 0, 64, 127
1, 146793, Note_on_c, 0, 34, 0
1, 146821, Note_on_c, 0, 46, 0
1, 146929, Control_c, 0, 64, 0
1, 146933, Note_on_c, 0, 46, 89
1, 146937, Note_on_c, 0, 34, 89
1, 147033, Control_c, 0, 64, 127
1, 147097, Note_on_c, 0, 34, 0
1, 147105, Note_on_c, 0, 46, 0
1, 147257, Control_c, 0, 64, 104
1, 147261, Control_c, 0, 64, 0
1, 147293, Note_on_c, 0, 45, 96
1, 147293, Note_on_c, 0, 33, 107
1, 147345, Control_c, 0, 64, 127
1, 147365, Note_on_c, 0, 33, 0
1, 147405, Note_on_c, 0, 45, 0
1, 147689, Control_c, 0, 64, 0
1, 147697, Note_on_c, 0, 84, 102
1, 147697, Note_on_c, 0, 60, 72
1, 147697, Note_on_c, 0, 65, 85
1, 147701, Note_on_c, 0, 55, 80
1, 147701, Note_on_c, 0, 81, 98
1, 147701, Note_on_c, 0, 72, 92
1, 147705, Note_on_c, 0, 61, 63
1, 147705, Note_on_c, 0, 58, 54
1, 147789, Control_c, 0, 64, 127
1, 147837, Note_on_c, 0, 55, 0
1, 147845, Note_on_c, 0, 72, 0
1, 147849, Note_on_c, 0, 65, 0
1, 147849, Note_on_c, 0, 84, 0
1, 147853, Note_on_c, 0, 58, 0
1, 147857, Note_on_c, 0, 61, 0
1, 147857, Note_on_c, 0, 60, 0
1, 147861, Note_on_c, 0, 81, 0
1, 147905, Note_on_c, 0, 84, 75
1, 147909, Note_on_c, 0, 60, 66
1, 147909, Note_on_c, 0, 81, 75
1, 147913, Note_on_c, 0, 65, 79
1, 147913, Note_on_c, 0, 61, 57
1, 147913, Note_on_c, 0, 72, 75
1, 147921, Note_on_c, 0, 55, 71
1, 147925, Note_on_c, 0, 58, 45
1, 148057, Note_on_c, 0, 55, 0
1, 148061, Note_on_c, 0, 72, 0
1, 148065, Note_on_c, 0, 65, 0
1, 148069, Note_on_c, 0, 61, 0
1, 148073, Note_on_c, 0, 58, 0
1, 148077, Note_on_c, 0, 81, 0
1, 148077, Note_on_c, 0, 84, 0
1, 148085, Note_on_c, 0, 60, 0
1, 148141, Control_c, 0, 64, 0
1, 148185, Control_c, 0, 64, 127
1, 148189, Note_on_c, 0, 60, 66
1, 148189, Note_on_c, 0, 65, 77
1, 148197, Note_on_c, 0, 61, 56
1, 148197, Note_on_c, 0, 84, 78
1, 148205, Note_on_c, 0, 72, 72
1, 148205, Note_on_c, 0, 55, 54
1, 148205, Note_on_c, 0, 81, 72
1, 148221, Note_on_c, 0, 58, 31
1, 148293, Note_on_c, 0, 65, 0
1, 148305, Note_on_c, 0, 81, 0
1, 148309, Note_on_c, 0, 84, 0
1, 148317, Note_on_c, 0, 55, 0
1, 148333, Note_on_c, 0, 61, 0
1, 148337, Note_on_c, 0, 58, 0
1, 148337, Note_on_c, 0, 72, 0
1, 148349, Note_on_c, 0, 60, 0
1, 148445, Control_c, 0, 64, 0
1, 148461, Note_on_c, 0, 81, 63
1, 148469, Note_on_c, 0, 69, 63
1, 148469, Note_on_c, 0, 60, 54
1, 148473, Note_on_c, 0, 76, 59
1, 148473, Note_on_c, 0, 61, 55
1, 148473, Note_on_c, 0, 65, 59
1, 148485, Note_on_c, 0, 55, 48
1, 148501, Note_on_c, 0, 58, 33
1, 148529, Control_c, 0, 64, 127
1, 148541, Note_on_c, 0, 65, 0
1, 148573, Note_on_c, 0, 60, 0
1, 148577, Note_on_c, 0, 61, 0
1, 148585, Note_on_c, 0, 58, 0
1, 148585, Note_on_c, 0, 81, 0
1, 148599, Note_on_c, 0, 76, 0
1, 148601, Note_on_c, 0, 55, 0
1, 148629, Note_on_c, 0, 69, 0
1, 148833, Note_on_c, 0, 54, 83
1, 148833, Note_on_c, 0, 65, 72
1, 148841, Note_on_c, 0, 38, 56
1, 148853, Note_on_c, 0, 36, 47
1, 148857, Control_c, 0, 64, 0
1, 148877, Note_on_c, 0, 36, 0
1, 148965, Control_c, 0, 64, 127
1, 149201, Note_on_c, 0, 26, 66
1, 149273, Note_on_c, 0, 38, 0
1, 149297, Note_on_c, 0, 26, 0
1, 149321, Note_on_c, 0, 54, 0
1, 149329, Control_c, 0, 64, 0
1, 149345, Note_on_c, 0, 55, 57
1, 149349, Note_on_c, 0, 40, 50
1, 149617, Note_on_c, 0, 28, 58
1, 149669, Note_on_c, 0, 40, 0
1, 149701, Note_on_c, 0, 28, 0
1, 149721, Note_on_c, 0, 55, 0
1, 149757, Note_on_c, 0, 56, 49
1, 149757, Note_on_c, 0, 41, 56
1, 150009, Note_on_c, 0, 29, 57
1, 150021, Note_on_c, 0, 41, 0
1, 150049, Note_on_c, 0, 56, 0
1, 150137, Note_on_c, 0, 57, 45
1, 150141, Note_on_c, 0, 29, 0
1, 150153, Note_on_c, 0, 41, 46
1, 150277, Note_on_c, 0, 41, 0
1, 150369, Note_on_c, 0, 30, 61
1, 150381, Note_on_c, 0, 57, 0
1, 150465, Note_on_c, 0, 65, 0
1, 150477, Note_on_c, 0, 30, 0
1, 150513, Note_on_c, 0, 58, 51
1, 150517, Note_on_c, 0, 55, 50
1, 150521, Note_on_c, 0, 43, 32
1, 150529, Note_on_c, 0, 31, 41
1, 150561, Note_on_c, 0, 31, 0
1, 150597, Control_c, 0, 64, 127
1, 150609, Note_on_c, 0, 43, 0
1, 150625, Note_on_c, 0, 55, 0
1, 150657, Note_on_c, 0, 58, 0
1, 150761, Note_on_c, 0, 49, 63
1, 150773, Note_on_c, 0, 61, 52
1, 150777, Note_on_c, 0, 55, 48
1, 150779, Note_on_c, 0, 58, 43
1, 150813, Control_c, 0, 64, 0
1, 150825, Note_on_c, 0, 55, 0
1, 150857, Note_on_c, 0, 58, 0
1, 150889, Note_on_c, 0, 49, 0
1, 150897, Note_on_c, 0, 50, 54
1, 150905, Note_on_c, 0, 61, 0
1, 150905, Note_on_c, 0, 62, 55
1, 150909, Note_on_c, 0, 58, 10
1, 150941, Note_on_c, 0, 58, 0
1, 150961, Note_on_c, 0, 62, 0
1, 150981, Note_on_c, 0, 50, 0
1, 151013, Note_on_c, 0, 65, 63
1, 151017, Control_c, 0, 64, 127
1, 151049, Note_on_c, 0, 53, 37
1, 151065, Note_on_c, 0, 65, 0
1, 151073, Note_on_c, 0, 53, 0
1, 151145, Note_on_c, 0, 57, 52
1, 151157, Note_on_c, 0, 69, 49
1, 151177, Note_on_c, 0, 69, 0
1, 151205, Note_on_c, 0, 57, 0
1, 151217, Control_c, 0, 64, 0
1, 151265, Note_on_c, 0, 72, 81
1, 151265, Note_on_c, 0, 65, 72
1, 151269, Note_on_c, 0, 62, 70
1, 151277, Note_on_c, 0, 60, 72
1, 151281, Note_on_c, 0, 69, 48
1, 151437, Control_c, 0, 64, 127
1, 151441, Note_on_c, 0, 69, 0
1, 151441, Note_on_c, 0, 72, 0
1, 151441, Note_on_c, 0, 60, 0
1, 151445, Note_on_c, 0, 62, 0
1, 151457, Control_c, 0, 64, 0
1, 151465, Note_on_c, 0, 65, 0
1, 151497, Control_c, 0, 64, 127
1, 151513, Note_on_c, 0, 72, 59
1, 151517, Note_on_c, 0, 65, 54
1, 151521, Note_on_c, 0, 60, 54
1, 151521, Note_on_c, 0, 62, 54
1, 151545, Control_c, 0, 64, 0
1, 151589, Note_on_c, 0, 62, 0
1, 151593, Note_on_c, 0, 65, 0
1, 151621, Note_on_c, 0, 72, 0
1, 151637, Control_c, 0, 64, 127
1, 151641, Note_on_c, 0, 60, 0
1, 151657, Note_on_c, 0, 65, 49
1, 151657, Note_on_c, 0, 62, 44
1, 151665, Note_on_c, 0, 57, 47
1, 151665, Note_on_c, 0, 69, 52
1, 151693, Note_on_c, 0, 57, 0
1, 151753, Note_on_c, 0, 62, 0
1, 151769, Note_on_c, 0, 65, 0
1, 151801, Note_on_c, 0, 69, 0
1, 151897, Note_on_c, 0, 57, 51
1, 151917, Note_on_c, 0, 57, 0
1, 151997, Control_c, 0, 64, 24
1, 151997, Control_c, 0, 64, 0
1, 152037, Note_on_c, 0, 75, 74
1, 152045, Note_on_c, 0, 63, 64
1, 152045, Note_on_c, 0, 64, 57
1, 152049, Note_on_c, 0, 70, 55
1, 152061, Note_on_c, 0, 67, 35
1, 152101, Note_on_c, 0, 67, 0
1, 152101, Note_on_c, 0, 63, 0
1, 152105, Note_on_c, 0, 64, 0
1, 152109, Note_on_c, 0, 75, 0
1, 152121, Note_on_c, 0, 70, 0
1, 152165, Note_on_c, 0, 64, 46
1, 152169, Note_on_c, 0, 62, 39
1, 152169, Note_on_c, 0, 74, 39
1, 152189, Note_on_c, 0, 74, 0
1, 152189, Note_on_c, 0, 67, 25
1, 152189, Note_on_c, 0, 70, 30
1, 152197, Note_on_c, 0, 64, 0
1, 152201, Note_on_c, 0, 62, 0
1, 152213, Note_on_c, 0, 67, 0
1, 152221, Note_on_c, 0, 70, 0
1, 152277, Note_on_c, 0, 73, 60
1, 152289, Note_on_c, 0, 61, 54
1, 152293, Note_on_c, 0, 70, 35
1, 152297, Note_on_c, 0, 64, 41
1, 152305, Note_on_c, 0, 67, 40
1, 152341, Note_on_c, 0, 67, 0
1, 152349, Note_on_c, 0, 64, 0
1, 152365, Note_on_c, 0, 73, 0
1, 152369, Note_on_c, 0, 70, 0
1, 152389, Note_on_c, 0, 61, 0
1, 152393, Control_c, 0, 64, 127
1, 152413, Note_on_c, 0, 67, 42
1, 152417, Note_on_c, 0, 72, 56
1, 152417, Note_on_c, 0, 64, 46
1, 152601, Note_on_c, 0, 72, 0
1, 152617, Note_on_c, 0, 67, 0
1, 152645, Note_on_c, 0, 64, 0
1, 152685, Note_on_c, 0, 48, 43
1, 152713, Note_on_c, 0, 48, 0
1, 152793, Control_c, 0, 64, 0
1, 152817, Note_on_c, 0, 68, 52
1, 152819, Note_on_c, 0, 58, 54
1, 152819, Note_on_c, 0, 61, 53
1, 152829, Note_on_c, 0, 48, 49
1, 152849, Note_on_c, 0, 64, 30
1, 152861, Note_on_c, 0, 48, 0
1, 152921, Control_c, 0, 64, 127
1, 153013, Note_on_c, 0, 64, 0
1, 153057, Note_on_c, 0, 61, 0
1, 153069, Note_on_c, 0, 58, 0
1, 153157, Note_on_c, 0, 68, 0
1, 153201, Note_on_c, 0, 58, 45
1, 153213, Note_on_c, 0, 61, 42
1, 153341, Note_on_c, 0, 58, 0
1, 153393, Note_on_c, 0, 61, 0
1, 153469, Control_c, 0, 64, 0
1, 153469, Note_on_c, 0, 65, 44
1, 153469, Note_on_c, 0, 57, 45
1, 153477, Note_on_c, 0, 41, 33
1, 153485, Note_on_c, 0, 60, 41
1, 153489, Note_on_c, 0, 29, 31
1, 153525, Note_on_c, 0, 57, 0
1, 153529, Note_on_c, 0, 41, 0
1, 153533, Note_on_c, 0, 60, 0
1, 153549, Note_on_c, 0, 65, 0
1, 153553, Note_on_c, 0, 29, 0
1, 153729, Control_c, 0, 64, 127
1, 153737, Control_c, 0, 64, 0
1, 153749, Control_c, 0, 64, 127
1, 153801, Control_c, 0, 64, 0
1, 153853, Note_on_c, 0, 68, 49
1, 153859, Note_on_c, 0, 63, 45
1, 153865, Note_on_c, 0, 21, 31
1, 153865, Note_on_c, 0, 57, 31
1, 153865, Note_on_c, 0, 33, 35
1, 153913, Control_c, 0, 64, 127
1, 154041, Note_on_c, 0, 21, 0
1, 154065, Note_on_c, 0, 33, 0
1, 154101, Note_on_c, 0, 63, 0
1, 154105, Note_on_c, 0, 68, 0
1, 154141, Note_on_c, 0, 57, 0
1, 154393, Control_c, 0, 64, 0
1, 154397, Note_on_c, 0, 58, 39
1, 154397, Note_on_c, 0, 22, 32
1, 154397, Note_on_c, 0, 34, 30
1, 154401, Note_on_c, 0, 62, 39
1, 154409, Note_on_c, 0, 53, 22
1, 154481, Note_on_c, 0, 53, 0
1, 154501, Note_on_c, 0, 58, 0
1, 154521, Note_on_c, 0, 62, 0
1, 154541, Note_on_c, 0, 34, 0
1, 154549, Note_on_c, 0, 22, 0
1, 154769, Note_on_c, 0, 23, 38
1, 154769, Note_on_c, 0, 56, 36
1, 154777, Note_on_c, 0, 35, 26
1, 154785, Note_on_c, 0, 59, 40
1, 154789, Note_on_c, 0, 62, 34
1, 154865, Note_on_c, 0, 23, 0
1, 154873, Note_on_c, 0, 59, 0
1, 154893, Note_on_c, 0, 62, 0
1, 154897, Note_on_c, 0, 35, 0
1, 154917, Note_on_c, 0, 56, 0
1, 155145, Note_on_c, 0, 36, 40
1, 155145, Note_on_c, 0, 57, 39
1, 155149, Note_on_c, 0, 60, 42
1, 155161, Note_on_c, 0, 24, 31
1, 155177, Control_c, 0, 64, 127
1, 155201, Note_on_c, 0, 24, 0
1, 155241, Note_on_c, 0, 57, 0
1, 155245, Note_on_c, 0, 60, 0
1, 155253, Note_on_c, 0, 36, 0
1, 155393, Control_c, 0, 64, 0
1, 155513, Note_on_c, 0, 66, 36
1, 155517, Note_on_c, 0, 61, 42
1, 155521, Note_on_c, 0, 63, 42
1, 155521, Note_on_c, 0, 42, 35
1, 155525, Control_c, 0, 64, 127
1, 155529, Note_on_c, 0, 57, 23
1, 155553, Note_on_c, 0, 49, 21
1, 155581, Note_on_c, 0, 49, 0
1, 155609, Note_on_c, 0, 57, 0
1, 155653, Note_on_c, 0, 42, 0
1, 155657, Note_on_c, 0, 66, 0
1, 155685, Note_on_c, 0, 63, 0
1, 155701, Note_on_c, 0, 61, 0
1, 155741, Control_c, 0, 64, 0
1, 155781, Note_on_c, 0, 57, 45
1, 155785, Note_on_c, 0, 62, 48
1, 155789, Note_on_c, 0, 65, 42
1, 155789, Note_on_c, 0, 51, 37
1, 155797, Note_on_c, 0, 41, 35
1, 155865, Control_c, 0, 64, 127
1, 156497, Control_c, 0, 64, 0
1, 156877, Note_on_c, 0, 57, 0
1, 156881, Note_on_c, 0, 62, 0
1, 156893, Note_on_c, 0, 51, 0
1, 156897, Note_on_c, 0, 65, 0
1, 156901, Note_on_c, 0, 41, 0
1, 156901, End_track
0, 0, End_of_file
