0, 0, Header, 0, 1, 384
1, 0, Start_track
1, 0, Title_t, "untitled"
1, 0, SMPTE_offset, 96, 0, 3, 0, 0
1, 0, System_exclusive, 5, 126, 127, 9, 1, 247
1, 1, System_exclusive, 8, 67, 16, 76, 0, 0, 126, 0, 247
1, 1, System_exclusive, 8, 67, 16, 76, 8, 15, 0, 1, 247
1, 1, System_exclusive, 8, 67, 16, 76, 8, 14, 0, 1, 247
1, 1, System_exclusive, 8, 67, 16, 76, 8, 13, 0, 1, 247
1, 1, System_exclusive, 8, 67, 16, 76, 8, 12, 0, 1, 247
1, 1, System_exclusive, 8, 67, 16, 76, 8, 11, 0, 1, 247
1, 1, System_exclusive, 8, 67, 16, 76, 8, 10, 0, 1, 247
1, 1, System_exclusive, 8, 67, 16, 76, 8, 9, 0, 0, 247
1, 1, System_exclusive, 8, 67, 16, 76, 8, 8, 0, 1, 247
1, 1, System_exclusive, 8, 67, 16, 76, 8, 7, 0, 1, 247
1, 1, System_exclusive, 8, 67, 16, 76, 8, 6, 0, 1, 247
1, 1, System_exclusive, 8, 67, 16, 76, 8, 5, 0, 1, 247
1, 1, System_exclusive, 8, 67, 16, 76, 8, 4, 0, 2, 247
1, 1, System_exclusive, 8, 67, 16, 76, 8, 3, 0, 2, 247
1, 1, System_exclusive, 8, 67, 16, 76, 8, 2, 0, 4, 247
1, 1, System_exclusive, 8, 67, 16, 76, 8, 1, 0, 4, 247
1, 1, System_exclusive, 8, 67, 16, 76, 8, 0, 0, 8, 247
1, 1, System_exclusive, 8, 67, 16, 76, 8, 0, 7, 0, 247
1, 1, System_exclusive, 8, 67, 16, 76, 8, 1, 7, 0, 247
1, 1, System_exclusive, 8, 67, 16, 76, 8, 2, 7, 0, 247
1, 1, System_exclusive, 8, 67, 16, 76, 8, 3, 7, 0, 247
1, 1, System_exclusive, 8, 67, 16, 76, 8, 4, 7, 0, 247
1, 1, System_exclusive, 8, 67, 16, 76, 8, 5, 7, 0, 247
1, 1, System_exclusive, 8, 67, 16, 76, 8, 6, 7, 0, 247
1, 1, System_exclusive, 8, 67, 16, 76, 8, 7, 7, 0, 247
1, 1, System_exclusive, 8, 67, 16, 76, 8, 8, 7, 0, 247
1, 1, System_exclusive, 8, 67, 16, 76, 8, 9, 7, 2, 247
1, 1, System_exclusive, 8, 67, 16, 76, 8, 10, 7, 0, 247
1, 1, System_exclusive, 8, 67, 16, 76, 8, 11, 7, 0, 247
1, 1, System_exclusive, 8, 67, 16, 76, 8, 12, 7, 0, 247
1, 1, System_exclusive, 8, 67, 16, 76, 8, 13, 7, 0, 247
1, 1, System_exclusive, 8, 67, 16, 76, 8, 14, 7, 0, 247
1, 1, System_exclusive, 8, 67, 16, 76, 8, 15, 7, 0, 247
1, 1, System_exclusive, 9, 67, 16, 76, 2, 1, 0, 2, 17, 247
1, 1, System_exclusive, 9, 67, 16, 76, 2, 1, 32, 65, 8, 247
1, 1, System_exclusive, 9, 67, 16, 76, 2, 1, 64, 5, 0, 247
1, 1, System_exclusive, 8, 67, 16, 76, 8, 9, 32, 16, 247
1, 1, System_exclusive, 8, 67, 16, 76, 8, 1, 114, 64, 247
1, 1, System_exclusive, 8, 67, 16, 76, 8, 1, 115, 64, 247
1, 1, System_exclusive, 8, 67, 16, 76, 8, 1, 119, 46, 247
1, 1, System_exclusive, 9, 67, 16, 76, 3, 0, 0, 3, 18, 247
1, 1, System_exclusive, 8, 67, 16, 76, 3, 0, 11, 5, 247
1, 1, System_exclusive, 8, 67, 16, 76, 3, 0, 12, 127, 247
1, 1, System_exclusive, 8, 67, 16, 76, 8, 0, 114, 64, 247
1, 1, System_exclusive, 8, 67, 16, 76, 8, 0, 115, 95, 247
1, 1, System_exclusive, 8, 67, 16, 76, 8, 0, 119, 46, 247
1, 1, Time_signature, 4, 2, 24, 8
1, 1, Key_signature, -1, "major"
1, 1, Tempo, 731707
1, 1, Sequencer_specific, 21, 67, 115, 10, 0, 5, 75, 90, 79, 79, 79, 79, 79, 79, 79, 90, 79, 79, 79, 79, 79, 79
1, 1, Sequencer_specific, 6, 67, 115, 10, 0, 4, 1
1, 1, Sequencer_specific, 9, 67, 123, 0, 88, 70, 48, 50, 0, 0
1, 385, Control_c, 0, 0, 0
1, 385, Control_c, 0, 32, 122
1, 385, Program_c, 0, 0
1, 386, Control_c, 0, 7, 107
1, 386, Control_c, 0, 10, 64
1, 386, Control_c, 0, 91, 0
1, 386, Control_c, 0, 93, 0
1, 387, Control_c, 1, 0, 0
1, 387, Control_c, 1, 32, 122
1, 387, Program_c, 1, 32
1, 388, Control_c, 1, 7, 127
1, 388, Control_c, 1, 10, 64
1, 388, Control_c, 1, 91, 0
1, 388, Control_c, 1, 93, 0
1, 404, Control_c, 9, 7, 82
1, 769, Control_c, 0, 11, 127
1, 769, Control_c, 0, 94, 0
1, 769, Control_c, 0, 101, 0
1, 770, Control_c, 0, 100, 1
1, 771, Control_c, 0, 6, 64
1, 772, Control_c, 0, 38, 0
1, 772, Pitch_bend_c, 0, 8192
1, 772, Control_c, 0, 71, 43
1, 772, Control_c, 0, 74, 46
1, 772, Control_c, 1, 11, 127
1, 772, Control_c, 1, 94, 0
1, 772, Control_c, 1, 101, 0
1, 773, Control_c, 1, 100, 1
1, 774, Control_c, 1, 6, 64
1, 775, Control_c, 1, 38, 0
1, 1537, Note_on_c, 9, 42, 75
1, 1921, Note_on_c, 9, 42, 0
1, 1921, Note_on_c, 9, 42, 52
1, 1965, Control_c, 0, 64, 127
1, 2305, Note_on_c, 9, 42, 0
1, 2323, Note_on_c, 9, 42, 63
1, 2707, Note_on_c, 9, 42, 0
1, 2717, Note_on_c, 9, 42, 52
1, 2973, Note_on_c, 1, 40, 68
1, 3073, Note_on_c, 9, 42, 0
1, 3073, Note_on_c, 9, 28, 59
1, 3077, Control_c, 0, 64, 0
1, 3109, Note_on_c, 1, 40, 0
1, 3113, Note_on_c, 0, 60, 46
1, 3117, Note_on_c, 0, 53, 45
1, 3117, Note_on_c, 0, 81, 68
1, 3117, Note_on_c, 0, 64, 41
1, 3117, Note_on_c, 1, 41, 60
1, 3125, Note_on_c, 0, 69, 43
1, 3125, Note_on_c, 0, 76, 43
1, 3125, Note_on_c, 0, 71, 42
1, 3153, Note_on_c, 0, 71, 0
1, 3201, Control_c, 0, 64, 127
1, 3297, Note_on_c, 0, 81, 0
1, 3305, Note_on_c, 0, 64, 0
1, 3317, Note_on_c, 0, 76, 0
1, 3317, Note_on_c, 0, 53, 0
1, 3317, Note_on_c, 0, 69, 0
1, 3329, Note_on_c, 0, 60, 0
1, 3397, Note_on_c, 0, 69, 49
1, 3401, Note_on_c, 0, 64, 41
1, 3405, Note_on_c, 0, 53, 37
1, 3409, Note_on_c, 0, 60, 34
1, 3409, Note_on_c, 0, 81, 41
1, 3413, Note_on_c, 0, 76, 48
1, 3443, Note_on_c, 9, 28, 37
1, 3447, Note_on_c, 9, 44, 101
1, 3457, Note_on_c, 9, 28, 0
1, 3505, Note_on_c, 0, 64, 0
1, 3505, Note_on_c, 0, 81, 0
1, 3513, Note_on_c, 0, 69, 0
1, 3517, Note_on_c, 0, 60, 0
1, 3525, Note_on_c, 0, 76, 0
1, 3533, Note_on_c, 0, 53, 0
1, 3577, Note_on_c, 0, 64, 35
1, 3581, Note_on_c, 0, 69, 38
1, 3589, Note_on_c, 0, 53, 22
1, 3589, Note_on_c, 0, 81, 27
1, 3589, Note_on_c, 0, 60, 39
1, 3589, Note_on_c, 0, 76, 41
1, 3633, Note_on_c, 9, 44, 0
1, 3657, Note_on_c, 0, 64, 0
1, 3665, Note_on_c, 0, 69, 0
1, 3665, Note_on_c, 0, 81, 0
1, 3669, Note_on_c, 0, 76, 0
1, 3677, Note_on_c, 0, 53, 0
1, 3681, Note_on_c, 0, 60, 0
1, 3703, Note_on_c, 9, 36, 42
1, 3729, Note_on_c, 9, 36, 0
1, 3769, Note_on_c, 0, 69, 48
1, 3773, Note_on_c, 0, 60, 32
1, 3773, Note_on_c, 0, 64, 36
1, 3773, Note_on_c, 0, 81, 39
1, 3777, Note_on_c, 0, 53, 35
1, 3781, Note_on_c, 0, 76, 45
1, 3801, Note_on_c, 0, 60, 0
1, 3805, Note_on_c, 0, 64, 0
1, 3809, Note_on_c, 0, 81, 0
1, 3813, Note_on_c, 0, 76, 0
1, 3817, Note_on_c, 0, 69, 0
1, 3825, Note_on_c, 1, 41, 0
1, 3827, Note_on_c, 1, 31, 70
1, 3827, Note_on_c, 9, 28, 35
1, 3841, Note_on_c, 9, 28, 0
1, 3841, Note_on_c, 0, 53, 0
1, 3865, Control_c, 0, 64, 0
1, 3889, Note_on_c, 0, 53, 27
1, 3901, Note_on_c, 0, 81, 44
1, 3901, Note_on_c, 0, 55, 44
1, 3905, Note_on_c, 0, 69, 38
1, 3905, Note_on_c, 0, 76, 48
1, 3917, Note_on_c, 0, 58, 38
1, 3929, Note_on_c, 0, 62, 9
1, 3941, Control_c, 0, 64, 127
1, 4001, Note_on_c, 0, 62, 0
1, 4009, Note_on_c, 0, 53, 0
1, 4009, Control_c, 0, 64, 0
1, 4017, Note_on_c, 0, 55, 0
1, 4017, Note_on_c, 0, 58, 0
1, 4021, Note_on_c, 0, 69, 0
1, 4029, Note_on_c, 0, 81, 0
1, 4033, Note_on_c, 0, 76, 0
1, 4211, Note_on_c, 9, 28, 35
1, 4213, Control_c, 0, 64, 127
1, 4215, Note_on_c, 9, 44, 98
1, 4225, Note_on_c, 9, 28, 0
1, 4305, Note_on_c, 9, 44, 0
1, 4465, Note_on_c, 1, 32, 72
1, 4477, Note_on_c, 1, 31, 0
1, 4481, Note_on_c, 0, 58, 64
1, 4481, Note_on_c, 0, 62, 66
1, 4485, Note_on_c, 0, 82, 85
1, 4485, Note_on_c, 0, 70, 82
1, 4489, Note_on_c, 0, 55, 50
1, 4489, Note_on_c, 0, 75, 77
1, 4493, Note_on_c, 0, 53, 46
1, 4505, Note_on_c, 0, 55, 0
1, 4509, Note_on_c, 0, 75, 0
1, 4513, Note_on_c, 0, 53, 0
1, 4533, Note_on_c, 0, 62, 0
1, 4541, Note_on_c, 0, 70, 0
1, 4549, Note_on_c, 0, 58, 0
1, 4573, Note_on_c, 0, 82, 0
1, 4581, Note_on_c, 1, 32, 0
1, 4595, Note_on_c, 9, 28, 43
1, 4605, Note_on_c, 1, 33, 74
1, 4609, Note_on_c, 9, 28, 0
1, 4609, Note_on_c, 9, 28, 59
1, 4613, Control_c, 0, 64, 0
1, 4629, Note_on_c, 0, 64, 57
1, 4633, Note_on_c, 0, 84, 56
1, 4633, Note_on_c, 0, 55, 45
1, 4633, Note_on_c, 0, 57, 42
1, 4633, Note_on_c, 0, 72, 57
1, 4645, Note_on_c, 0, 60, 61
1, 4657, Note_on_c, 0, 79, 57
1, 4769, Control_c, 0, 64, 127
1, 4809, Note_on_c, 0, 72, 0
1, 4809, Note_on_c, 0, 64, 0
1, 4813, Note_on_c, 0, 60, 0
1, 4813, Note_on_c, 0, 84, 0
1, 4817, Note_on_c, 0, 79, 0
1, 4817, Note_on_c, 0, 57, 0
1, 4821, Note_on_c, 0, 55, 0
1, 4869, Note_on_c, 0, 64, 45
1, 4873, Note_on_c, 0, 84, 47
1, 4873, Note_on_c, 0, 72, 44
1, 4873, Note_on_c, 0, 55, 40
1, 4873, Note_on_c, 1, 48, 111
1, 4885, Note_on_c, 0, 79, 46
1, 4889, Note_on_c, 0, 60, 46
1, 4893, Note_on_c, 0, 57, 41
1, 4941, Note_on_c, 0, 72, 0
1, 4945, Note_on_c, 0, 79, 0
1, 4945, Note_on_c, 1, 33, 0
1, 4945, Note_on_c, 0, 64, 0
1, 4953, Note_on_c, 0, 84, 0
1, 4953, Note_on_c, 0, 57, 0
1, 4957, Note_on_c, 0, 60, 0
1, 4957, Control_c, 0, 64, 0
1, 4965, Note_on_c, 0, 55, 0
1, 4979, Note_on_c, 9, 28, 37
1, 4983, Note_on_c, 9, 44, 101
1, 4993, Note_on_c, 9, 28, 0
1, 4993, Note_on_c, 9, 28, 0
1, 5021, Note_on_c, 0, 64, 31
1, 5021, Note_on_c, 0, 84, 35
1, 5025, Note_on_c, 0, 55, 23
1, 5029, Note_on_c, 0, 72, 35
1, 5033, Control_c, 0, 64, 127
1, 5037, Note_on_c, 0, 60, 38
1, 5037, Note_on_c, 0, 79, 42
1, 5045, Note_on_c, 0, 57, 31
1, 5109, Note_on_c, 0, 79, 0
1, 5109, Note_on_c, 0, 60, 0
1, 5113, Note_on_c, 0, 57, 0
1, 5129, Note_on_c, 0, 72, 0
1, 5129, Note_on_c, 0, 84, 0
1, 5129, Note_on_c, 0, 55, 0
1, 5137, Note_on_c, 0, 64, 0
1, 5169, Note_on_c, 9, 44, 0
1, 5239, Note_on_c, 9, 36, 42
1, 5249, Note_on_c, 1, 34, 52
1, 5257, Note_on_c, 0, 56, 55
1, 5261, Note_on_c, 0, 84, 44
1, 5261, Note_on_c, 0, 67, 45
1, 5265, Note_on_c, 9, 36, 0
1, 5269, Note_on_c, 0, 62, 44
1, 5273, Control_c, 0, 64, 0
1, 5273, Note_on_c, 0, 72, 27
1, 5281, Note_on_c, 0, 79, 41
1, 5363, Note_on_c, 9, 28, 35
1, 5365, Note_on_c, 1, 34, 0
1, 5377, Note_on_c, 9, 28, 0
1, 5377, Control_c, 0, 64, 127
1, 5381, Note_on_c, 1, 36, 64
1, 5405, Note_on_c, 1, 48, 0
1, 5741, Note_on_c, 0, 67, 0
1, 5745, Note_on_c, 0, 62, 0
1, 5747, Note_on_c, 9, 28, 35
1, 5751, Note_on_c, 9, 44, 98
1, 5761, Note_on_c, 9, 28, 0
1, 5773, Note_on_c, 0, 84, 0
1, 5785, Note_on_c, 0, 79, 0
1, 5805, Note_on_c, 0, 56, 0
1, 5821, Note_on_c, 0, 72, 0
1, 5841, Note_on_c, 9, 44, 0
1, 6025, Note_on_c, 1, 36, 0
1, 6029, Note_on_c, 1, 29, 60
1, 6131, Note_on_c, 9, 28, 43
1, 6145, Note_on_c, 9, 28, 0
1, 6153, Control_c, 0, 64, 0
1, 6289, Note_on_c, 0, 60, 54
1, 6293, Note_on_c, 0, 56, 49
1, 6301, Note_on_c, 0, 62, 39
1, 6309, Note_on_c, 0, 68, 35
1, 6317, Note_on_c, 0, 66, 37
1, 6349, Note_on_c, 0, 60, 0
1, 6365, Note_on_c, 0, 62, 0
1, 6369, Note_on_c, 0, 68, 0
1, 6405, Note_on_c, 0, 60, 59
1, 6405, Note_on_c, 0, 57, 52
1, 6409, Note_on_c, 0, 56, 0
1, 6413, Note_on_c, 0, 62, 43
1, 6421, Note_on_c, 0, 69, 51
1, 6425, Note_on_c, 0, 65, 50
1, 6489, Note_on_c, 0, 69, 0
1, 6493, Note_on_c, 0, 66, 0
1, 6493, Note_on_c, 0, 60, 0
1, 6505, Note_on_c, 0, 57, 0
1, 6505, Note_on_c, 0, 62, 0
1, 6513, Note_on_c, 0, 65, 0
1, 6515, Note_on_c, 9, 28, 26
1, 6519, Note_on_c, 9, 44, 91
1, 6549, Note_on_c, 0, 57, 64
1, 6553, Note_on_c, 0, 69, 75
1, 6553, Note_on_c, 0, 60, 68
1, 6561, Note_on_c, 0, 62, 61
1, 6569, Note_on_c, 0, 65, 46
1, 6613, Note_on_c, 0, 69, 0
1, 6629, Note_on_c, 0, 62, 0
1, 6645, Note_on_c, 0, 60, 0
1, 6653, Note_on_c, 0, 65, 0
1, 6673, Note_on_c, 9, 44, 0
1, 6677, Note_on_c, 1, 29, 0
1, 6677, Note_on_c, 1, 36, 50
1, 6685, Note_on_c, 0, 57, 0
1, 6701, Note_on_c, 1, 36, 0
1, 6701, Note_on_c, 0, 56, 46
1, 6769, Note_on_c, 9, 36, 35
1, 6777, Note_on_c, 1, 35, 70
1, 6801, Note_on_c, 9, 36, 0
1, 6801, Note_on_c, 0, 56, 0
1, 6817, Note_on_c, 0, 60, 73
1, 6821, Note_on_c, 0, 69, 74
1, 6821, Note_on_c, 0, 57, 61
1, 6825, Note_on_c, 0, 62, 68
1, 6829, Note_on_c, 0, 65, 63
1, 6903, Note_on_c, 9, 28, 31
1, 6905, Note_on_c, 0, 57, 0
1, 6905, Note_on_c, 0, 60, 0
1, 6909, Note_on_c, 1, 35, 0
1, 6913, Note_on_c, 9, 28, 0
1, 6913, Note_on_c, 9, 28, 0
1, 6917, Note_on_c, 1, 34, 66
1, 6921, Note_on_c, 0, 62, 0
1, 6929, Note_on_c, 0, 69, 0
1, 6937, Note_on_c, 0, 65, 0
1, 7057, Note_on_c, 0, 58, 50
1, 7057, Note_on_c, 0, 69, 55
1, 7061, Note_on_c, 0, 62, 54
1, 7069, Note_on_c, 0, 57, 48
1, 7069, Note_on_c, 0, 65, 46
1, 7169, Note_on_c, 1, 46, 30
1, 7185, Note_on_c, 1, 38, 45
1, 7189, Note_on_c, 0, 69, 0
1, 7193, Note_on_c, 0, 57, 0
1, 7197, Note_on_c, 1, 46, 0
1, 7197, Note_on_c, 0, 62, 0
1, 7197, Note_on_c, 0, 58, 0
1, 7221, Note_on_c, 0, 65, 0
1, 7257, Note_on_c, 1, 38, 0
1, 7281, Control_c, 0, 64, 127
1, 7287, Note_on_c, 9, 28, 30
1, 7297, Note_on_c, 9, 28, 0
1, 7297, Note_on_c, 1, 46, 85
1, 7297, Note_on_c, 9, 44, 80
1, 7301, Note_on_c, 0, 56, 57
1, 7305, Note_on_c, 0, 70, 57
1, 7305, Note_on_c, 0, 58, 49
1, 7309, Note_on_c, 0, 46, 46
1, 7321, Note_on_c, 0, 62, 37
1, 7329, Note_on_c, 1, 34, 0
1, 7345, Note_on_c, 0, 62, 0
1, 7381, Note_on_c, 0, 58, 0
1, 7389, Note_on_c, 0, 70, 0
1, 7405, Note_on_c, 0, 56, 0
1, 7421, Note_on_c, 0, 46, 0
1, 7475, Note_on_c, 9, 44, 0
1, 7541, Control_c, 0, 64, 0
1, 7549, Note_on_c, 0, 72, 62
1, 7553, Note_on_c, 0, 60, 50
1, 7557, Note_on_c, 1, 38, 47
1, 7565, Note_on_c, 0, 67, 49
1, 7569, Note_on_c, 0, 55, 44
1, 7573, Note_on_c, 0, 45, 41
1, 7593, Note_on_c, 1, 38, 0
1, 7629, Control_c, 0, 64, 127
1, 7633, Note_on_c, 0, 60, 0
1, 7667, Note_on_c, 9, 28, 36
1, 7681, Note_on_c, 9, 28, 0
1, 7685, Note_on_c, 0, 45, 0
1, 7717, Note_on_c, 0, 67, 0
1, 7729, Note_on_c, 0, 55, 0
1, 7765, Note_on_c, 0, 72, 0
1, 7773, Note_on_c, 1, 45, 64
1, 7797, Note_on_c, 1, 46, 0
1, 7813, Note_on_c, 1, 45, 0
1, 7833, Note_on_c, 0, 68, 62
1, 7889, Note_on_c, 1, 40, 64
1, 7909, Note_on_c, 0, 68, 0
1, 7945, Note_on_c, 0, 69, 50
1, 8017, Note_on_c, 1, 40, 0
1, 8017, Control_c, 0, 64, 0
1, 8025, Note_on_c, 0, 69, 0
1, 8037, Note_on_c, 1, 37, 63
1, 8049, Note_on_c, 0, 64, 41
1, 8051, Note_on_c, 9, 28, 36
1, 8055, Note_on_c, 9, 44, 84
1, 8061, Note_on_c, 0, 72, 55
1, 8065, Note_on_c, 9, 28, 0
1, 8077, Note_on_c, 0, 55, 34
1, 8077, Note_on_c, 0, 60, 29
1, 8085, Note_on_c, 0, 59, 27
1, 8181, Note_on_c, 0, 72, 0
1, 8185, Note_on_c, 0, 75, 61
1, 8205, Note_on_c, 0, 59, 0
1, 8233, Note_on_c, 0, 60, 0
1, 8237, Note_on_c, 0, 55, 0
1, 8249, Note_on_c, 0, 64, 0
1, 8249, Control_c, 0, 64, 127
1, 8257, Note_on_c, 0, 75, 0
1, 8309, Note_on_c, 0, 77, 67
1, 8311, Note_on_c, 9, 44, 0
1, 8327, Note_on_c, 9, 36, 28
1, 8345, Note_on_c, 9, 36, 0
1, 8413, Control_c, 0, 64, 0
1, 8417, Note_on_c, 1, 37, 0
1, 8421, Note_on_c, 0, 77, 0
1, 8429, Note_on_c, 0, 78, 66
1, 8433, Note_on_c, 0, 65, 42
1, 8435, Note_on_c, 9, 28, 26
1, 8437, Note_on_c, 0, 54, 41
1, 8441, Note_on_c, 1, 38, 56
1, 8449, Note_on_c, 9, 28, 0
1, 8449, Note_on_c, 0, 60, 45
1, 8493, Note_on_c, 0, 78, 0
1, 8569, Note_on_c, 0, 84, 58
1, 8657, Note_on_c, 0, 84, 0
1, 8657, Note_on_c, 1, 38, 0
1, 8657, Control_c, 0, 64, 127
1, 8661, Note_on_c, 0, 65, 0
1, 8689, Note_on_c, 1, 33, 66
1, 8693, Note_on_c, 0, 60, 0
1, 8693, Note_on_c, 0, 89, 79
1, 8717, Note_on_c, 0, 54, 0
1, 8785, Note_on_c, 1, 33, 0
1, 8801, Note_on_c, 0, 89, 0
1, 8813, Control_c, 0, 64, 56
1, 8817, Control_c, 0, 64, 0
1, 8817, Note_on_c, 1, 30, 72
1, 8819, Note_on_c, 9, 28, 51
1, 8823, Note_on_c, 9, 46, 36
1, 8825, Note_on_c, 0, 65, 71
1, 8825, Note_on_c, 0, 94, 86
1, 8825, Note_on_c, 0, 54, 63
1, 8829, Note_on_c, 0, 60, 66
1, 8833, Note_on_c, 9, 28, 0
1, 8925, Note_on_c, 0, 94, 0
1, 8929, Note_on_c, 9, 46, 0
1, 8941, Control_c, 0, 64, 127
1, 8961, Note_on_c, 0, 96, 117
1, 8967, Note_on_c, 9, 40, 49
1, 8985, Note_on_c, 0, 60, 0
1, 8985, Note_on_c, 0, 65, 0
1, 8989, Note_on_c, 9, 40, 0
1, 9061, Note_on_c, 0, 96, 0
1, 9065, Note_on_c, 0, 54, 0
1, 9091, Note_on_c, 9, 36, 52
1, 9101, Note_on_c, 0, 90, 81
1, 9101, Note_on_c, 0, 92, 81
1, 9113, Note_on_c, 0, 96, 45
1, 9113, Note_on_c, 0, 94, 57
1, 9129, Note_on_c, 9, 36, 0
1, 9141, Control_c, 0, 64, 0
1, 9145, Note_on_c, 0, 90, 0
1, 9153, Note_on_c, 0, 96, 0
1, 9169, Note_on_c, 0, 94, 0
1, 9177, Note_on_c, 0, 58, 45
1, 9181, Note_on_c, 0, 53, 31
1, 9185, Note_on_c, 0, 92, 0
1, 9185, Note_on_c, 0, 62, 32
1, 9189, Note_on_c, 0, 93, 63
1, 9193, Note_on_c, 1, 30, 0
1, 9201, Note_on_c, 0, 95, 33
1, 9203, Note_on_c, 9, 28, 53
1, 9205, Note_on_c, 0, 57, 36
1, 9205, Note_on_c, 0, 96, 29
1, 9209, Note_on_c, 1, 31, 72
1, 9217, Note_on_c, 9, 28, 0
1, 9225, Note_on_c, 9, 36, 35
1, 9233, Note_on_c, 0, 96, 0
1, 9245, Note_on_c, 0, 95, 0
1, 9245, Note_on_c, 0, 93, 0
1, 9285, Note_on_c, 0, 86, 49
1, 9293, Note_on_c, 9, 36, 0
1, 9381, Note_on_c, 0, 86, 0
1, 9405, Note_on_c, 0, 89, 61
1, 9453, Note_on_c, 0, 58, 0
1, 9457, Control_c, 0, 64, 127
1, 9469, Note_on_c, 0, 89, 0
1, 9489, Note_on_c, 0, 62, 0
1, 9493, Note_on_c, 0, 57, 0
1, 9509, Note_on_c, 0, 53, 0
1, 9525, Note_on_c, 0, 93, 70
1, 9581, Note_on_c, 0, 93, 0
1, 9587, Note_on_c, 9, 28, 47
1, 9589, Control_c, 0, 64, 0
1, 9591, Note_on_c, 9, 44, 89
1, 9601, Note_on_c, 9, 28, 0
1, 9637, Note_on_c, 0, 62, 39
1, 9645, Note_on_c, 0, 58, 42
1, 9645, Note_on_c, 0, 96, 53
1, 9645, Note_on_c, 0, 84, 50
1, 9649, Note_on_c, 0, 53, 25
1, 9657, Note_on_c, 0, 57, 36
1, 9687, Note_on_c, 9, 44, 0
1, 9721, Note_on_c, 1, 31, 0
1, 9729, Note_on_c, 1, 36, 53
1, 9789, Note_on_c, 0, 96, 0
1, 9797, Note_on_c, 0, 84, 0
1, 9805, Note_on_c, 0, 53, 0
1, 9805, Control_c, 0, 64, 127
1, 9809, Note_on_c, 0, 57, 0
1, 9821, Note_on_c, 0, 58, 0
1, 9821, Note_on_c, 0, 62, 0
1, 9833, Note_on_c, 1, 36, 0
1, 9833, Note_on_c, 9, 36, 38
1, 9841, Note_on_c, 1, 37, 63
1, 9865, Note_on_c, 9, 36, 0
1, 9881, Note_on_c, 0, 96, 61
1, 9885, Note_on_c, 0, 84, 54
1, 9889, Note_on_c, 0, 62, 45
1, 9897, Note_on_c, 0, 58, 45
1, 9905, Note_on_c, 0, 53, 39
1, 9917, Note_on_c, 0, 57, 38
1, 9937, Control_c, 0, 64, 0
1, 9945, Note_on_c, 0, 57, 0
1, 9945, Note_on_c, 0, 96, 0
1, 9953, Note_on_c, 0, 62, 0
1, 9965, Note_on_c, 0, 84, 0
1, 9971, Note_on_c, 9, 28, 45
1, 9973, Note_on_c, 0, 58, 0
1, 9973, Note_on_c, 0, 53, 0
1, 9973, Note_on_c, 1, 38, 57
1, 9977, Note_on_c, 1, 37, 0
1, 9985, Note_on_c, 9, 28, 0
1, 10021, Note_on_c, 0, 62, 39
1, 10025, Control_c, 0, 64, 127
1, 10029, Note_on_c, 0, 58, 41
1, 10029, Note_on_c, 0, 96, 61
1, 10033, Note_on_c, 0, 84, 43
1, 10033, Note_on_c, 0, 53, 35
1, 10049, Note_on_c, 0, 57, 35
1, 10073, Note_on_c, 0, 57, 0
1, 10077, Note_on_c, 0, 96, 0
1, 10081, Note_on_c, 0, 62, 0
1, 10085, Note_on_c, 0, 53, 0
1, 10089, Note_on_c, 0, 58, 0
1, 10093, Note_on_c, 0, 84, 0
1, 10113, Control_c, 0, 64, 0
1, 10249, Note_on_c, 0, 62, 43
1, 10257, Note_on_c, 0, 95, 52
1, 10261, Note_on_c, 0, 83, 40
1, 10265, Note_on_c, 0, 58, 38
1, 10277, Note_on_c, 0, 95, 0
1, 10277, Note_on_c, 0, 53, 31
1, 10313, Note_on_c, 0, 83, 0
1, 10321, Note_on_c, 0, 62, 0
1, 10325, Note_on_c, 0, 53, 0
1, 10329, Note_on_c, 0, 58, 0
1, 10355, Note_on_c, 9, 28, 40
1, 10359, Note_on_c, 9, 44, 87
1, 10369, Note_on_c, 9, 28, 0
1, 10373, Control_c, 0, 64, 127
1, 10389, Note_on_c, 0, 94, 57
1, 10401, Note_on_c, 0, 62, 29
1, 10405, Note_on_c, 0, 58, 33
1, 10405, Note_on_c, 0, 82, 35
1, 10413, Note_on_c, 0, 53, 29
1, 10421, Note_on_c, 0, 57, 41
1, 10485, Note_on_c, 0, 94, 0
1, 10497, Note_on_c, 0, 57, 0
1, 10497, Note_on_c, 9, 44, 0
1, 10501, Note_on_c, 0, 62, 0
1, 10501, Note_on_c, 0, 58, 0
1, 10525, Note_on_c, 0, 53, 0
1, 10533, Note_on_c, 0, 82, 0
1, 10601, Note_on_c, 1, 37, 33
1, 10605, Note_on_c, 1, 50, 107
1, 10609, Note_on_c, 1, 48, 87
1, 10617, Note_on_c, 1, 38, 0
1, 10617, Note_on_c, 9, 36, 36
1, 10633, Note_on_c, 1, 37, 0
1, 10685, Note_on_c, 9, 36, 0
1, 10701, Note_on_c, 1, 48, 0
1, 10701, Control_c, 0, 64, 0
1, 10733, Note_on_c, 1, 50, 0
1, 10733, Note_on_c, 0, 36, 74
1, 10739, Note_on_c, 9, 28, 38
1, 10745, Note_on_c, 1, 48, 78
1, 10753, Note_on_c, 9, 28, 0
1, 10759, Note_on_c, 9, 36, 33
1, 10777, Control_c, 0, 64, 127
1, 10797, Note_on_c, 0, 36, 0
1, 10937, Note_on_c, 9, 36, 0
1, 11123, Note_on_c, 9, 28, 34
1, 11127, Note_on_c, 9, 44, 68
1, 11137, Note_on_c, 9, 28, 0
1, 11287, Note_on_c, 9, 44, 0
1, 11429, Note_on_c, 1, 40, 38
1, 11465, Note_on_c, 1, 40, 0
1, 11507, Note_on_c, 9, 28, 37
1, 11517, Note_on_c, 1, 48, 0
1, 11517, Note_on_c, 1, 46, 71
1, 11521, Note_on_c, 9, 28, 0
1, 11521, Note_on_c, 0, 60, 86
1, 11541, Control_c, 0, 64, 0
1, 11573, Note_on_c, 0, 60, 0
1, 11577, Note_on_c, 0, 61, 63
1, 11621, Note_on_c, 0, 60, 60
1, 11629, Note_on_c, 0, 61, 0
1, 11665, Note_on_c, 0, 60, 0
1, 11673, Note_on_c, 0, 61, 56
1, 11697, Note_on_c, 0, 61, 0
1, 11713, Note_on_c, 0, 60, 58
1, 11741, Note_on_c, 0, 60, 0
1, 11753, Note_on_c, 0, 61, 46
1, 11781, Note_on_c, 0, 61, 0
1, 11801, Note_on_c, 0, 60, 56
1, 11821, Note_on_c, 0, 60, 0
1, 11841, Note_on_c, 0, 61, 51
1, 11865, Note_on_c, 0, 61, 0
1, 11881, Note_on_c, 0, 60, 51
1, 11889, Note_on_c, 9, 28, 42
1, 11895, Note_on_c, 9, 44, 82
1, 11905, Note_on_c, 9, 28, 0
1, 11909, Note_on_c, 0, 60, 0
1, 11917, Note_on_c, 0, 61, 48
1, 11945, Note_on_c, 0, 61, 0
1, 11965, Note_on_c, 0, 60, 55
1, 11993, Note_on_c, 0, 60, 0
1, 12001, Note_on_c, 0, 61, 45
1, 12007, Note_on_c, 9, 44, 0
1, 12033, Note_on_c, 0, 61, 0
1, 12049, Note_on_c, 0, 60, 52
1, 12077, Note_on_c, 0, 60, 0
1, 12089, Note_on_c, 0, 61, 38
1, 12117, Note_on_c, 0, 61, 0
1, 12133, Note_on_c, 0, 60, 57
1, 12153, Note_on_c, 9, 36, 54
1, 12165, Note_on_c, 0, 60, 0
1, 12169, Note_on_c, 0, 61, 32
1, 12185, Note_on_c, 9, 36, 0
1, 12201, Note_on_c, 0, 61, 0
1, 12213, Note_on_c, 0, 60, 55
1, 12261, Note_on_c, 0, 60, 0
1, 12269, Note_on_c, 1, 46, 0
1, 12269, Note_on_c, 0, 61, 46
1, 12269, Note_on_c, 0, 57, 52
1, 12275, Note_on_c, 9, 28, 44
1, 12277, Note_on_c, 1, 45, 57
1, 12289, Note_on_c, 9, 28, 0
1, 12297, Note_on_c, 0, 61, 0
1, 12309, Note_on_c, 0, 60, 53
1, 12357, Note_on_c, 0, 60, 0
1, 12365, Note_on_c, 0, 61, 48
1, 12385, Note_on_c, 0, 61, 0
1, 12401, Note_on_c, 0, 60, 55
1, 12449, Note_on_c, 0, 60, 0
1, 12453, Note_on_c, 0, 61, 46
1, 12481, Note_on_c, 0, 61, 0
1, 12497, Note_on_c, 0, 60, 57
1, 12533, Note_on_c, 0, 60, 0
1, 12541, Note_on_c, 0, 61, 49
1, 12565, Note_on_c, 0, 61, 0
1, 12581, Note_on_c, 0, 60, 61
1, 12605, Note_on_c, 0, 57, 0
1, 12625, Note_on_c, 0, 60, 0
1, 12629, Note_on_c, 0, 61, 57
1, 12659, Note_on_c, 9, 28, 39
1, 12661, Note_on_c, 0, 61, 0
1, 12663, Note_on_c, 9, 44, 87
1, 12665, Note_on_c, 0, 60, 60
1, 12673, Note_on_c, 9, 28, 0
1, 12709, Note_on_c, 0, 61, 61
1, 12717, Note_on_c, 0, 60, 0
1, 12749, Note_on_c, 0, 60, 60
1, 12757, Note_on_c, 0, 61, 0
1, 12797, Note_on_c, 9, 44, 0
1, 12797, Note_on_c, 0, 60, 0
1, 12797, Note_on_c, 0, 61, 66
1, 12817, Control_c, 0, 64, 127
1, 12841, Note_on_c, 0, 61, 0
1, 12841, Note_on_c, 0, 60, 66
1, 12885, Note_on_c, 0, 61, 57
1, 12889, Note_on_c, 0, 60, 0
1, 12941, Note_on_c, 0, 61, 0
1, 12945, Note_on_c, 0, 60, 60
1, 12997, Control_c, 0, 64, 0
1, 13017, Note_on_c, 0, 61, 66
1, 13021, Note_on_c, 0, 60, 0
1, 13021, Note_on_c, 0, 50, 43
1, 13029, Note_on_c, 0, 54, 56
1, 13043, Note_on_c, 9, 28, 33
1, 13057, Note_on_c, 9, 28, 0
1, 13197, Note_on_c, 0, 63, 68
1, 13217, Note_on_c, 0, 61, 0
1, 13261, Note_on_c, 0, 63, 0
1, 13269, Note_on_c, 0, 65, 72
1, 13305, Note_on_c, 0, 50, 0
1, 13321, Note_on_c, 0, 54, 0
1, 13341, Note_on_c, 0, 65, 0
1, 13349, Note_on_c, 0, 66, 60
1, 13425, Note_on_c, 0, 66, 0
1, 13427, Note_on_c, 0, 68, 56
1, 13427, Note_on_c, 9, 28, 43
1, 13431, Note_on_c, 9, 44, 87
1, 13437, Note_on_c, 1, 38, 57
1, 13441, Note_on_c, 9, 28, 0
1, 13453, Note_on_c, 1, 45, 0
1, 13461, Note_on_c, 0, 54, 38
1, 13465, Note_on_c, 0, 65, 36
1, 13469, Note_on_c, 0, 60, 35
1, 13481, Note_on_c, 0, 69, 39
1, 13493, Note_on_c, 0, 68, 0
1, 13545, Note_on_c, 0, 70, 33
1, 13549, Note_on_c, 0, 65, 0
1, 13553, Note_on_c, 9, 44, 0
1, 13565, Note_on_c, 0, 69, 0
1, 13585, Note_on_c, 0, 70, 0
1, 13609, Note_on_c, 0, 60, 0
1, 13641, Note_on_c, 0, 72, 75
1, 13717, Note_on_c, 0, 54, 0
1, 13789, Note_on_c, 0, 72, 0
1, 13793, Note_on_c, 0, 68, 68
1, 13811, Note_on_c, 9, 28, 39
1, 13825, Note_on_c, 9, 28, 0
1, 13837, Note_on_c, 0, 64, 41
1, 13849, Note_on_c, 0, 53, 40
1, 13849, Note_on_c, 0, 59, 41
1, 13885, Note_on_c, 0, 68, 0
1, 13909, Note_on_c, 0, 69, 59
1, 13925, Note_on_c, 0, 64, 0
1, 13945, Note_on_c, 1, 38, 0
1, 13949, Note_on_c, 1, 43, 66
1, 13969, Note_on_c, 1, 43, 0
1, 13977, Note_on_c, 0, 69, 0
1, 14005, Note_on_c, 0, 65, 48
1, 14069, Note_on_c, 1, 40, 54
1, 14069, Note_on_c, 1, 38, 51
1, 14073, Note_on_c, 0, 65, 0
1, 14097, Note_on_c, 1, 40, 0
1, 14105, Note_on_c, 0, 62, 42
1, 14113, Note_on_c, 0, 59, 0
1, 14149, Note_on_c, 1, 38, 0
1, 14185, Note_on_c, 1, 37, 68
1, 14195, Note_on_c, 9, 28, 45
1, 14197, Note_on_c, 0, 62, 0
1, 14199, Note_on_c, 9, 44, 105
1, 14209, Note_on_c, 9, 28, 0
1, 14285, Note_on_c, 0, 65, 72
1, 14305, Note_on_c, 9, 44, 0
1, 14373, Note_on_c, 0, 65, 0
1, 14377, Note_on_c, 0, 53, 0
1, 14401, Note_on_c, 0, 55, 56
1, 14457, Note_on_c, 0, 55, 0
1, 14497, Note_on_c, 0, 58, 50
1, 14565, Note_on_c, 1, 37, 0
1, 14569, Note_on_c, 1, 36, 66
1, 14579, Note_on_c, 9, 28, 40
1, 14581, Note_on_c, 0, 58, 0
1, 14593, Note_on_c, 9, 28, 0
1, 14601, Note_on_c, 0, 60, 65
1, 14629, Note_on_c, 0, 58, 42
1, 14629, Note_on_c, 0, 48, 40
1, 14661, Note_on_c, 0, 58, 0
1, 14673, Note_on_c, 0, 60, 0
1, 14689, Note_on_c, 0, 61, 56
1, 14697, Note_on_c, 0, 48, 0
1, 14753, Note_on_c, 0, 61, 0
1, 14757, Note_on_c, 0, 63, 47
1, 14777, Note_on_c, 0, 63, 0
1, 14797, Note_on_c, 0, 64, 63
1, 14837, Note_on_c, 0, 64, 0
1, 14837, Note_on_c, 1, 27, 89
1, 14851, Note_on_c, 9, 36, 52
1, 14861, Note_on_c, 1, 36, 0
1, 14869, Note_on_c, 0, 66, 45
1, 14889, Note_on_c, 0, 66, 0
1, 14893, Note_on_c, 9, 36, 0
1, 14917, Note_on_c, 0, 67, 57
1, 14953, Note_on_c, 0, 60, 39
1, 14961, Note_on_c, 0, 58, 43
1, 14963, Note_on_c, 1, 27, 0
1, 14963, Note_on_c, 9, 28, 36
1, 14967, Note_on_c, 9, 44, 103
1, 14969, Note_on_c, 0, 67, 0
1, 14973, Note_on_c, 1, 28, 81
1, 14977, Note_on_c, 9, 28, 0
1, 14977, Note_on_c, 0, 52, 37
1, 14977, Note_on_c, 0, 69, 45
1, 14979, Note_on_c, 9, 36, 28
1, 14993, Note_on_c, 0, 60, 0
1, 15005, Note_on_c, 0, 52, 0
1, 15013, Note_on_c, 0, 69, 0
1, 15013, Note_on_c, 0, 58, 0
1, 15017, Note_on_c, 0, 70, 58
1, 15037, Note_on_c, 0, 70, 0
1, 15069, Note_on_c, 0, 72, 57
1, 15095, Note_on_c, 9, 44, 0
1, 15101, Note_on_c, 0, 72, 0
1, 15109, Note_on_c, 0, 73, 45
1, 15127, Note_on_c, 9, 36, 0
1, 15129, Note_on_c, 0, 73, 0
1, 15161, Note_on_c, 0, 75, 49
1, 15181, Note_on_c, 0, 75, 0
1, 15213, Note_on_c, 0, 76, 45
1, 15219, Note_on_c, 9, 36, 42
1, 15253, Note_on_c, 0, 76, 0
1, 15255, Note_on_c, 9, 36, 0
1, 15269, Note_on_c, 0, 79, 88
1, 15309, Note_on_c, 1, 28, 0
1, 15325, Note_on_c, 1, 29, 88
1, 15347, Note_on_c, 9, 28, 39
1, 15357, Note_on_c, 0, 41, 52
1, 15361, Note_on_c, 9, 28, 0
1, 15361, Note_on_c, 0, 76, 71
1, 15381, Note_on_c, 0, 57, 33
1, 15397, Note_on_c, 0, 79, 0
1, 15413, Control_c, 0, 64, 127
1, 15441, Note_on_c, 0, 41, 0
1, 15493, Note_on_c, 0, 76, 0
1, 15493, Note_on_c, 0, 72, 64
1, 15505, Note_on_c, 0, 57, 0
1, 15565, Note_on_c, 0, 72, 0
1, 15605, Note_on_c, 0, 69, 48
1, 15689, Note_on_c, 0, 69, 0
1, 15717, Control_c, 0, 64, 0
1, 15721, Note_on_c, 0, 64, 52
1, 15729, Note_on_c, 0, 69, 67
1, 15729, Note_on_c, 0, 60, 45
1, 15729, Note_on_c, 0, 81, 63
1, 15729, Note_on_c, 0, 53, 39
1, 15731, Note_on_c, 9, 28, 51
1, 15735, Note_on_c, 9, 44, 80
1, 15741, Note_on_c, 0, 76, 63
1, 15741, Note_on_c, 0, 57, 43
1, 15745, Note_on_c, 9, 28, 0
1, 15813, Control_c, 0, 64, 127
1, 15879, Note_on_c, 9, 44, 0
1, 15905, Note_on_c, 0, 53, 0
1, 15909, Note_on_c, 0, 81, 0
1, 15913, Note_on_c, 0, 69, 0
1, 15913, Note_on_c, 0, 60, 0
1, 15913, Note_on_c, 0, 57, 0
1, 15913, Note_on_c, 0, 64, 0
1, 15929, Note_on_c, 0, 76, 0
1, 16005, Note_on_c, 0, 60, 66
1, 16005, Note_on_c, 0, 69, 78
1, 16005, Note_on_c, 0, 76, 79
1, 16005, Note_on_c, 0, 81, 70
1, 16025, Note_on_c, 0, 64, 29
1, 16049, Note_on_c, 0, 64, 0
1, 16061, Note_on_c, 0, 81, 0
1, 16065, Note_on_c, 0, 60, 0
1, 16065, Note_on_c, 0, 69, 0
1, 16081, Note_on_c, 0, 76, 0
1, 16109, Note_on_c, 1, 36, 82
1, 16115, Note_on_c, 9, 28, 30
1, 16125, Note_on_c, 1, 29, 0
1, 16129, Note_on_c, 9, 28, 0
1, 16141, Control_c, 0, 64, 0
1, 16149, Note_on_c, 0, 53, 72
1, 16149, Note_on_c, 0, 62, 81
1, 16149, Note_on_c, 0, 58, 76
1, 16149, Note_on_c, 0, 81, 85
1, 16153, Note_on_c, 0, 76, 86
1, 16153, Note_on_c, 0, 69, 90
1, 16161, Note_on_c, 0, 55, 66
1, 16245, Control_c, 0, 64, 127
1, 16369, Note_on_c, 0, 81, 0
1, 16373, Note_on_c, 0, 69, 0
1, 16373, Note_on_c, 0, 62, 0
1, 16377, Note_on_c, 9, 27, 64
1, 16381, Note_on_c, 0, 58, 0
1, 16389, Note_on_c, 0, 76, 0
1, 16393, Note_on_c, 0, 55, 0
1, 16393, Note_on_c, 0, 53, 0
1, 16403, Note_on_c, 9, 27, 0
1, 16497, Control_c, 0, 64, 0
1, 16499, Note_on_c, 9, 28, 50
1, 16503, Note_on_c, 9, 44, 92
1, 16513, Note_on_c, 9, 28, 0
1, 16525, Note_on_c, 0, 58, 84
1, 16525, Note_on_c, 0, 62, 94
1, 16525, Note_on_c, 0, 82, 94
1, 16525, Note_on_c, 0, 70, 107
1, 16525, Note_on_c, 0, 77, 99
1, 16525, Note_on_c, 0, 53, 75
1, 16525, Note_on_c, 0, 55, 73
1, 16557, Control_c, 0, 64, 127
1, 16633, Note_on_c, 9, 44, 0
1, 16669, Note_on_c, 0, 55, 0
1, 16673, Note_on_c, 0, 53, 0
1, 16685, Note_on_c, 0, 58, 0
1, 16693, Note_on_c, 0, 70, 0
1, 16701, Note_on_c, 0, 77, 0
1, 16709, Note_on_c, 0, 62, 0
1, 16729, Note_on_c, 0, 82, 0
1, 16883, Note_on_c, 9, 28, 47
1, 16897, Note_on_c, 9, 28, 0
1, 16901, Control_c, 0, 64, 0
1, 16909, Note_on_c, 0, 60, 84
1, 16909, Note_on_c, 1, 41, 92
1, 16913, Note_on_c, 0, 64, 96
1, 16913, Note_on_c, 0, 84, 115
1, 16917, Note_on_c, 0, 57, 79
1, 16917, Note_on_c, 0, 72, 117
1, 16917, Note_on_c, 0, 79, 111
1, 16925, Note_on_c, 0, 53, 53
1, 16937, Note_on_c, 1, 36, 0
1, 16945, Note_on_c, 0, 53, 0
1, 16997, Control_c, 0, 64, 127
1, 17105, Note_on_c, 0, 64, 0
1, 17105, Note_on_c, 0, 57, 0
1, 17105, Note_on_c, 0, 84, 0
1, 17109, Note_on_c, 0, 72, 0
1, 17113, Note_on_c, 0, 60, 0
1, 17121, Note_on_c, 0, 79, 0
1, 17189, Note_on_c, 0, 84, 68
1, 17189, Note_on_c, 0, 64, 71
1, 17189, Note_on_c, 0, 72, 61
1, 17193, Note_on_c, 0, 79, 71
1, 17193, Note_on_c, 0, 60, 65
1, 17197, Note_on_c, 0, 57, 63
1, 17267, Note_on_c, 9, 28, 53
1, 17271, Note_on_c, 9, 44, 84
1, 17273, Note_on_c, 0, 64, 0
1, 17281, Note_on_c, 0, 84, 0
1, 17281, Note_on_c, 9, 28, 0
1, 17285, Note_on_c, 0, 57, 0
1, 17285, Note_on_c, 0, 72, 0
1, 17285, Note_on_c, 0, 60, 0
1, 17293, Note_on_c, 0, 79, 0
1, 17329, Note_on_c, 0, 64, 57
1, 17337, Note_on_c, 0, 84, 54
1, 17337, Note_on_c, 0, 60, 61
1, 17341, Note_on_c, 0, 79, 72
1, 17345, Note_on_c, 0, 72, 48
1, 17349, Note_on_c, 0, 64, 0
1, 17349, Note_on_c, 0, 57, 40
1, 17353, Note_on_c, 0, 84, 0
1, 17361, Note_on_c, 0, 79, 0
1, 17361, Note_on_c, 0, 60, 0
1, 17385, Note_on_c, 0, 57, 0
1, 17393, Note_on_c, 0, 72, 0
1, 17415, Note_on_c, 9, 44, 0
1, 17415, Note_on_c, 9, 25, 64
1, 17441, Note_on_c, 9, 25, 0
1, 17529, Note_on_c, 9, 25, 84
1, 17565, Note_on_c, 0, 45, 39
1, 17569, Note_on_c, 9, 25, 0
1, 17589, Note_on_c, 0, 45, 0
1, 17651, Note_on_c, 9, 28, 46
1, 17653, Note_on_c, 1, 41, 0
1, 17653, Note_on_c, 1, 34, 86
1, 17665, Note_on_c, 9, 28, 0
1, 17677, Control_c, 0, 64, 0
1, 17677, Note_on_c, 0, 61, 94
1, 17681, Note_on_c, 0, 46, 98
1, 17681, Note_on_c, 0, 65, 96
1, 17697, Note_on_c, 0, 63, 32
1, 17705, Note_on_c, 1, 34, 0
1, 17725, Note_on_c, 0, 63, 0
1, 17725, Note_on_c, 0, 62, 73
1, 17729, Note_on_c, 0, 61, 0
1, 17797, Note_on_c, 0, 46, 0
1, 17801, Note_on_c, 9, 27, 80
1, 17817, Note_on_c, 0, 65, 0
1, 17829, Note_on_c, 0, 62, 0
1, 17849, Note_on_c, 9, 27, 0
1, 17901, Note_on_c, 1, 33, 98
1, 17929, Note_on_c, 0, 60, 87
1, 17929, Note_on_c, 0, 65, 80
1, 17937, Note_on_c, 0, 45, 59
1, 17957, Note_on_c, 0, 43, 28
1, 17977, Note_on_c, 0, 43, 0
1, 18005, Note_on_c, 0, 65, 0
1, 18009, Note_on_c, 1, 33, 0
1, 18013, Note_on_c, 0, 60, 0
1, 18029, Note_on_c, 1, 31, 90
1, 18035, Note_on_c, 9, 28, 48
1, 18039, Note_on_c, 9, 44, 99
1, 18049, Note_on_c, 9, 28, 0
1, 18057, Note_on_c, 0, 45, 0
1, 18073, Note_on_c, 0, 58, 63
1, 18081, Note_on_c, 0, 43, 54
1, 18081, Note_on_c, 0, 65, 29
1, 18093, Control_c, 0, 64, 127
1, 18193, Note_on_c, 9, 44, 0
1, 18253, Note_on_c, 1, 31, 0
1, 18277, Note_on_c, 1, 29, 86
1, 18291, Note_on_c, 9, 28, 46
1, 18297, Note_on_c, 1, 31, 39
1, 18321, Note_on_c, 1, 31, 0
1, 18337, Note_on_c, 0, 65, 0
1, 18337, Note_on_c, 0, 58, 0
1, 18377, Note_on_c, 0, 43, 0
1, 18389, Note_on_c, 1, 29, 0
1, 18393, Control_c, 0, 64, 0
1, 18413, Note_on_c, 1, 29, 81
1, 18419, Note_on_c, 9, 28, 46
1, 18433, Note_on_c, 9, 28, 0
1, 18437, Note_on_c, 0, 65, 45
1, 18441, Note_on_c, 0, 57, 46
1, 18445, Note_on_c, 0, 41, 38
1, 18465, Control_c, 0, 64, 127
1, 18489, Note_on_c, 0, 41, 0
1, 18533, Note_on_c, 0, 57, 0
1, 18569, Note_on_c, 0, 65, 0
1, 18803, Note_on_c, 9, 28, 54
1, 18807, Note_on_c, 9, 44, 98
1, 18809, Note_on_c, 0, 60, 41
1, 18809, Note_on_c, 0, 69, 43
1, 18813, Note_on_c, 0, 53, 45
1, 18817, Note_on_c, 9, 28, 0
1, 18817, Note_on_c, 9, 28, 0
1, 18821, Note_on_c, 0, 64, 41
1, 18889, Note_on_c, 0, 60, 0
1, 18901, Note_on_c, 0, 69, 0
1, 18901, Note_on_c, 0, 64, 0
1, 18921, Note_on_c, 0, 53, 0
1, 18935, Note_on_c, 9, 44, 0
1, 19041, Note_on_c, 9, 25, 59
1, 19053, Note_on_c, 0, 74, 65
1, 19059, Note_on_c, 9, 25, 0
1, 19113, Note_on_c, 0, 74, 0
1, 19187, Note_on_c, 9, 28, 51
1, 19193, Note_on_c, 0, 46, 46
1, 19197, Control_c, 0, 64, 0
1, 19201, Note_on_c, 9, 28, 0
1, 19205, Note_on_c, 0, 62, 51
1, 19205, Note_on_c, 0, 65, 47
1, 19213, Note_on_c, 0, 57, 33
1, 19217, Note_on_c, 0, 53, 46
1, 19273, Control_c, 0, 64, 127
1, 19357, Note_on_c, 0, 53, 0
1, 19437, Note_on_c, 0, 62, 0
1, 19473, Note_on_c, 0, 57, 0
1, 19509, Note_on_c, 0, 65, 0
1, 19571, Note_on_c, 9, 28, 47
1, 19573, Note_on_c, 1, 34, 81
1, 19575, Note_on_c, 9, 44, 94
1, 19581, Note_on_c, 1, 29, 0
1, 19585, Note_on_c, 9, 28, 0
1, 19585, Note_on_c, 0, 57, 50
1, 19637, Note_on_c, 0, 46, 0
1, 19649, Note_on_c, 9, 44, 0
1, 19673, Note_on_c, 0, 57, 0
1, 19697, Note_on_c, 0, 69, 62
1, 19765, Note_on_c, 0, 69, 0
1, 19789, Note_on_c, 0, 70, 66
1, 19829, Note_on_c, 1, 46, 85
1, 19849, Note_on_c, 1, 34, 0
1, 19853, Note_on_c, 0, 70, 0
1, 19881, Note_on_c, 0, 72, 81
1, 19949, Note_on_c, 1, 46, 0
1, 19955, Note_on_c, 9, 28, 39
1, 19965, Control_c, 0, 64, 88
1, 19965, Control_c, 0, 64, 0
1, 19969, Note_on_c, 9, 28, 0
1, 19969, Note_on_c, 0, 61, 43
1, 19969, Note_on_c, 0, 60, 43
1, 19969, Note_on_c, 0, 73, 68
1, 19969, Note_on_c, 0, 65, 42
1, 19969, Note_on_c, 1, 45, 66
1, 19973, Note_on_c, 0, 72, 0
1, 19989, Note_on_c, 0, 55, 36
1, 20017, Note_on_c, 1, 45, 0
1, 20025, Note_on_c, 0, 73, 0
1, 20081, Note_on_c, 0, 77, 63
1, 20105, Note_on_c, 1, 40, 57
1, 20145, Note_on_c, 1, 40, 0
1, 20145, Note_on_c, 0, 77, 0
1, 20173, Note_on_c, 0, 82, 64
1, 20197, Note_on_c, 0, 55, 0
1, 20201, Note_on_c, 0, 65, 0
1, 20213, Note_on_c, 1, 36, 74
1, 20225, Note_on_c, 0, 60, 0
1, 20225, Note_on_c, 0, 82, 0
1, 20253, Note_on_c, 0, 61, 0
1, 20257, Control_c, 0, 64, 127
1, 20273, Note_on_c, 0, 84, 66
1, 20293, Control_c, 0, 64, 0
1, 20325, Note_on_c, 1, 36, 0
1, 20337, Note_on_c, 0, 84, 0
1, 20339, Note_on_c, 9, 28, 47
1, 20341, Note_on_c, 1, 37, 74
1, 20343, Note_on_c, 0, 61, 41
1, 20343, Note_on_c, 0, 65, 46
1, 20343, Note_on_c, 9, 44, 105
1, 20353, Note_on_c, 9, 28, 0
1, 20353, Note_on_c, 0, 60, 43
1, 20353, Note_on_c, 0, 90, 82
1, 20373, Note_on_c, 0, 90, 0
1, 20377, Note_on_c, 0, 89, 66
1, 20381, Note_on_c, 0, 55, 24
1, 20417, Note_on_c, 0, 89, 0
1, 20433, Note_on_c, 9, 44, 0
1, 20529, Note_on_c, 0, 65, 0
1, 20561, Note_on_c, 0, 55, 0
1, 20565, Note_on_c, 0, 60, 0
1, 20569, Control_c, 0, 64, 127
1, 20589, Note_on_c, 0, 61, 0
1, 20617, Note_on_c, 0, 96, 102
1, 20721, Control_c, 0, 64, 0
1, 20723, Note_on_c, 9, 28, 34
1, 20725, Note_on_c, 1, 37, 0
1, 20737, Note_on_c, 9, 28, 0
1, 20737, Note_on_c, 0, 65, 54
1, 20737, Note_on_c, 0, 54, 49
1, 20741, Note_on_c, 1, 38, 80
1, 20749, Note_on_c, 0, 60, 48
1, 20845, Note_on_c, 0, 96, 0
1, 20861, Note_on_c, 0, 94, 71
1, 20933, Note_on_c, 0, 65, 0
1, 20945, Note_on_c, 0, 94, 0
1, 20965, Note_on_c, 0, 92, 68
1, 20979, Note_on_c, 9, 25, 49
1, 21025, Note_on_c, 0, 92, 0
1, 21037, Note_on_c, 0, 89, 68
1, 21045, Note_on_c, 0, 54, 0
1, 21049, Note_on_c, 0, 60, 0
1, 21059, Note_on_c, 9, 25, 0
1, 21077, Note_on_c, 0, 89, 0
1, 21107, Note_on_c, 9, 28, 42
1, 21111, Note_on_c, 9, 46, 63
1, 21121, Note_on_c, 9, 28, 0
1, 21125, Note_on_c, 0, 64, 33
1, 21125, Note_on_c, 0, 87, 57
1, 21129, Note_on_c, 0, 60, 14
1, 21129, Note_on_c, 0, 54, 33
1, 21153, Note_on_c, 0, 87, 0
1, 21181, Note_on_c, 0, 84, 43
1, 21205, Note_on_c, 0, 84, 0
1, 21229, Note_on_c, 1, 33, 62
1, 21245, Note_on_c, 1, 38, 0
1, 21249, Note_on_c, 9, 46, 0
1, 21261, Note_on_c, 0, 82, 52
1, 21269, Note_on_c, 0, 64, 0
1, 21285, Note_on_c, 0, 60, 0
1, 21309, Note_on_c, 0, 82, 0
1, 21313, Note_on_c, 1, 33, 0
1, 21317, Note_on_c, 0, 80, 49
1, 21349, Note_on_c, 1, 30, 66
1, 21357, Note_on_c, 0, 54, 0
1, 21369, Note_on_c, 0, 80, 0
1, 21393, Note_on_c, 0, 77, 43
1, 21417, Note_on_c, 0, 77, 0
1, 21465, Note_on_c, 0, 75, 35
1, 21469, Note_on_c, 1, 30, 0
1, 21473, Note_on_c, 0, 58, 43
1, 21485, Note_on_c, 0, 62, 25
1, 21489, Note_on_c, 0, 53, 23
1, 21491, Note_on_c, 9, 28, 63
1, 21493, Note_on_c, 1, 31, 72
1, 21505, Note_on_c, 9, 28, 0
1, 21513, Note_on_c, 0, 75, 0
1, 21537, Note_on_c, 0, 74, 46
1, 21565, Note_on_c, 0, 74, 0
1, 21639, Note_on_c, 9, 25, 73
1, 21641, Note_on_c, 0, 73, 47
1, 21673, Note_on_c, 0, 73, 0
1, 21681, Note_on_c, 0, 57, 1
1, 21689, Note_on_c, 9, 25, 0
1, 21697, Note_on_c, 0, 74, 60
1, 21761, Note_on_c, 0, 74, 0
1, 21773, Note_on_c, 0, 58, 0
1, 21777, Note_on_c, 0, 62, 0
1, 21777, Note_on_c, 0, 77, 78
1, 21829, Note_on_c, 0, 77, 0
1, 21857, Note_on_c, 0, 74, 63
1, 21865, Note_on_c, 0, 53, 0
1, 21875, Note_on_c, 9, 28, 34
1, 21879, Note_on_c, 9, 25, 56
1, 21879, Note_on_c, 9, 44, 82
1, 21889, Note_on_c, 9, 28, 0
1, 21909, Note_on_c, 0, 74, 0
1, 21925, Note_on_c, 0, 58, 36
1, 21925, Note_on_c, 0, 62, 27
1, 21941, Note_on_c, 0, 70, 48
1, 21945, Note_on_c, 9, 25, 0
1, 21961, Note_on_c, 0, 62, 0
1, 21977, Note_on_c, 0, 70, 0
1, 21989, Note_on_c, 0, 58, 0
1, 21991, Note_on_c, 9, 44, 0
1, 22029, Note_on_c, 0, 65, 41
1, 22061, Note_on_c, 0, 65, 0
1, 22065, Note_on_c, 0, 57, 0
1, 22113, Note_on_c, 9, 25, 64
1, 22179, Note_on_c, 9, 25, 0
1, 22185, Note_on_c, 1, 38, 48
1, 22257, Note_on_c, 1, 38, 0
1, 22259, Note_on_c, 9, 28, 36
1, 22273, Note_on_c, 9, 28, 0
1, 22273, Note_on_c, 1, 43, 84
1, 22277, Note_on_c, 1, 31, 0
1, 22281, Control_c, 0, 64, 127
1, 22577, Note_on_c, 0, 58, 36
1, 22629, Note_on_c, 0, 58, 0
1, 22643, Note_on_c, 9, 28, 40
1, 22647, Note_on_c, 9, 44, 87
1, 22657, Note_on_c, 9, 28, 0
1, 22661, Control_c, 0, 64, 0
1, 22669, Note_on_c, 0, 72, 71
1, 22673, Note_on_c, 0, 65, 75
1, 22673, Note_on_c, 0, 69, 64
1, 22681, Note_on_c, 0, 60, 55
1, 22697, Note_on_c, 0, 62, 31
1, 22725, Control_c, 0, 64, 127
1, 22741, Note_on_c, 0, 60, 0
1, 22759, Note_on_c, 9, 44, 0
1, 22769, Note_on_c, 0, 62, 0
1, 22781, Note_on_c, 1, 38, 52
1, 22797, Note_on_c, 1, 43, 0
1, 22801, Note_on_c, 0, 65, 0
1, 22813, Note_on_c, 0, 69, 0
1, 22813, Note_on_c, 0, 72, 0
1, 22857, Note_on_c, 1, 38, 0
1, 22889, Note_on_c, 1, 37, 66
1, 22909, Note_on_c, 0, 72, 63
1, 22909, Note_on_c, 0, 65, 67
1, 22917, Note_on_c, 0, 69, 61
1, 22933, Note_on_c, 0, 62, 42
1, 22953, Note_on_c, 0, 62, 0
1, 22961, Note_on_c, 0, 69, 0
1, 22965, Note_on_c, 0, 65, 0
1, 22985, Note_on_c, 0, 72, 0
1, 22985, Control_c, 0, 64, 0
1, 22997, Note_on_c, 1, 37, 0
1, 23025, Note_on_c, 1, 36, 63
1, 23027, Note_on_c, 9, 28, 44
1, 23033, Note_on_c, 9, 25, 43
1, 23041, Note_on_c, 9, 28, 0
1, 23045, Note_on_c, 0, 64, 51
1, 23049, Note_on_c, 0, 62, 44
1, 23057, Note_on_c, 0, 58, 39
1, 23057, Note_on_c, 0, 68, 45
1, 23065, Note_on_c, 0, 72, 43
1, 23097, Control_c, 0, 64, 127
1, 23113, Note_on_c, 9, 25, 0
1, 23129, Note_on_c, 0, 68, 0
1, 23137, Note_on_c, 0, 69, 42
1, 23149, Note_on_c, 1, 50, 59
1, 23177, Note_on_c, 0, 62, 0
1, 23189, Note_on_c, 0, 64, 0
1, 23193, Note_on_c, 0, 58, 0
1, 23201, Note_on_c, 0, 69, 0
1, 23217, Note_on_c, 1, 50, 0
1, 23245, Note_on_c, 0, 72, 0
1, 23265, Note_on_c, 1, 49, 66
1, 23345, Control_c, 0, 64, 0
1, 23381, Note_on_c, 0, 58, 45
1, 23393, Note_on_c, 1, 49, 0
1, 23401, Note_on_c, 0, 59, 47
1, 23405, Note_on_c, 0, 71, 58
1, 23409, Note_on_c, 0, 58, 0
1, 23409, Note_on_c, 0, 62, 43
1, 23409, Note_on_c, 1, 48, 73
1, 23411, Note_on_c, 9, 28, 36
1, 23415, Note_on_c, 0, 67, 45
1, 23415, Note_on_c, 9, 44, 108
1, 23425, Note_on_c, 9, 28, 0
1, 23445, Control_c, 0, 64, 127
1, 23449, Note_on_c, 1, 36, 0
1, 23505, Note_on_c, 9, 44, 0
1, 23577, Note_on_c, 0, 71, 0
1, 23585, Note_on_c, 0, 62, 0
1, 23633, Note_on_c, 0, 59, 0
1, 23671, Note_on_c, 9, 25, 66
1, 23693, Note_on_c, 0, 67, 0
1, 23721, Note_on_c, 9, 25, 0
1, 23769, Control_c, 0, 64, 0
1, 23789, Note_on_c, 0, 70, 58
1, 23795, Note_on_c, 9, 28, 31
1, 23797, Note_on_c, 0, 58, 46
1, 23805, Note_on_c, 0, 64, 45
1, 23809, Note_on_c, 9, 28, 0
1, 23817, Note_on_c, 0, 60, 18
1, 23837, Control_c, 0, 64, 127
1, 23881, Note_on_c, 0, 58, 0
1, 23937, Note_on_c, 0, 70, 0
1, 23945, Note_on_c, 1, 43, 57
1, 23965, Note_on_c, 0, 64, 0
1, 23969, Note_on_c, 1, 48, 0
1, 24009, Note_on_c, 1, 43, 0
1, 24041, Note_on_c, 0, 60, 0
1, 24049, Note_on_c, 0, 54, 34
1, 24065, Note_on_c, 1, 39, 63
1, 24073, Note_on_c, 0, 54, 0
1, 24173, Control_c, 0, 64, 0
1, 24173, Note_on_c, 0, 56, 47
1, 24177, Note_on_c, 1, 39, 0
1, 24177, Note_on_c, 0, 60, 52
1, 24179, Note_on_c, 9, 28, 41
1, 24183, Note_on_c, 9, 44, 103
1, 24189, Note_on_c, 0, 65, 40
1, 24193, Note_on_c, 9, 28, 0
1, 24193, Note_on_c, 0, 68, 42
1, 24201, Note_on_c, 1, 40, 63
1, 24205, Note_on_c, 0, 62, 36
1, 24237, Control_c, 0, 64, 127
1, 24357, Note_on_c, 0, 62, 0
1, 24359, Note_on_c, 9, 44, 0
1, 24361, Note_on_c, 0, 60, 0
1, 24361, Note_on_c, 0, 65, 0
1, 24393, Note_on_c, 0, 68, 0
1, 24407, Note_on_c, 9, 25, 56
1, 24461, Note_on_c, 0, 56, 0
1, 24465, Note_on_c, 0, 60, 46
1, 24469, Note_on_c, 0, 69, 46
1, 24473, Note_on_c, 0, 57, 49
1, 24473, Note_on_c, 0, 65, 41
1, 24473, Note_on_c, 0, 62, 48
1, 24481, Control_c, 0, 64, 0
1, 24497, Note_on_c, 9, 25, 0
1, 24563, Note_on_c, 9, 28, 45
1, 24565, Control_c, 0, 64, 127
1, 24577, Note_on_c, 9, 28, 0
1, 24577, Note_on_c, 1, 40, 0
1, 24577, Note_on_c, 1, 41, 79
1, 24649, Note_on_c, 0, 57, 0
1, 24673, Note_on_c, 0, 69, 0
1, 24681, Note_on_c, 0, 65, 0
1, 24685, Note_on_c, 0, 62, 0
1, 24701, Note_on_c, 0, 60, 0
1, 24805, Note_on_c, 1, 41, 0
1, 24821, Note_on_c, 0, 48, 52
1, 24821, Note_on_c, 1, 36, 102
1, 24833, Note_on_c, 0, 47, 58
1, 24841, Note_on_c, 0, 65, 42
1, 24845, Note_on_c, 0, 57, 42
1, 24845, Note_on_c, 0, 60, 48
1, 24849, Note_on_c, 0, 62, 45
1, 24853, Note_on_c, 0, 47, 0
1, 24861, Control_c, 0, 64, 0
1, 24917, Note_on_c, 0, 60, 0
1, 24925, Note_on_c, 1, 36, 0
1, 24947, Note_on_c, 9, 28, 32
1, 24949, Note_on_c, 0, 57, 0
1, 24949, Note_on_c, 1, 33, 99
1, 24951, Note_on_c, 9, 44, 103
1, 24961, Note_on_c, 9, 28, 0
1, 24989, Note_on_c, 0, 62, 0
1, 25081, Control_c, 0, 64, 127
1, 25127, Note_on_c, 9, 44, 0
1, 25181, Note_on_c, 0, 48, 0
1, 25219, Note_on_c, 9, 25, 56
1, 25237, Note_on_c, 0, 48, 45
1, 25253, Note_on_c, 0, 65, 0
1, 25257, Note_on_c, 9, 25, 0
1, 25261, Note_on_c, 0, 48, 0
1, 25331, Note_on_c, 9, 28, 38
1, 25345, Note_on_c, 9, 28, 0
1, 25353, Note_on_c, 1, 33, 0
1, 25361, Note_on_c, 1, 34, 79
1, 25389, Control_c, 0, 64, 0
1, 25493, Note_on_c, 0, 47, 56
1, 25493, Note_on_c, 0, 59, 58
1, 25573, Note_on_c, 0, 59, 0
1, 25577, Note_on_c, 9, 33, 87
1, 25605, Note_on_c, 0, 47, 0
1, 25613, Note_on_c, 0, 48, 56
1, 25617, Note_on_c, 0, 60, 50
1, 25619, Note_on_c, 9, 33, 0
1, 25705, Note_on_c, 0, 48, 0
1, 25715, Note_on_c, 9, 28, 31
1, 25719, Note_on_c, 9, 44, 92
1, 25729, Note_on_c, 9, 28, 0
1, 25729, Note_on_c, 1, 34, 0
1, 25733, Note_on_c, 0, 60, 0
1, 25733, Note_on_c, 1, 35, 72
1, 25745, Note_on_c, 0, 52, 45
1, 25769, Note_on_c, 0, 64, 50
1, 25865, Note_on_c, 0, 52, 0
1, 25869, Note_on_c, 0, 64, 0
1, 25873, Note_on_c, 0, 53, 54
1, 25881, Note_on_c, 9, 44, 0
1, 25901, Note_on_c, 0, 65, 50
1, 25941, Note_on_c, 0, 65, 0
1, 25973, Note_on_c, 0, 53, 0
1, 25975, Note_on_c, 9, 25, 66
1, 26007, Note_on_c, 9, 25, 0
1, 26097, Note_on_c, 1, 35, 0
1, 26099, Note_on_c, 9, 28, 36
1, 26101, Note_on_c, 1, 36, 65
1, 26113, Note_on_c, 9, 28, 0
1, 26173, Note_on_c, 0, 72, 90
1, 26177, Note_on_c, 0, 60, 72
1, 26285, Note_on_c, 0, 72, 0
1, 26293, Note_on_c, 0, 60, 0
1, 26297, Note_on_c, 0, 61, 59
1, 26301, Note_on_c, 0, 73, 70
1, 26317, Note_on_c, 0, 72, 22
1, 26345, Note_on_c, 0, 72, 0
1, 26385, Note_on_c, 9, 35, 49
1, 26393, Note_on_c, 0, 73, 0
1, 26405, Note_on_c, 0, 61, 0
1, 26425, Note_on_c, 0, 64, 60
1, 26429, Note_on_c, 0, 76, 80
1, 26433, Note_on_c, 9, 35, 0
1, 26483, Note_on_c, 9, 28, 35
1, 26487, Note_on_c, 9, 44, 108
1, 26497, Note_on_c, 9, 28, 0
1, 26525, Note_on_c, 0, 76, 0
1, 26525, Control_c, 0, 64, 127
1, 26533, Note_on_c, 0, 64, 0
1, 26553, Note_on_c, 0, 65, 54
1, 26557, Note_on_c, 0, 77, 66
1, 26609, Note_on_c, 0, 77, 0
1, 26609, Note_on_c, 1, 37, 69
1, 26633, Note_on_c, 1, 36, 0
1, 26633, Note_on_c, 0, 65, 0
1, 26661, Control_c, 0, 64, 0
1, 26673, Note_on_c, 9, 44, 0
1, 26733, Note_on_c, 1, 37, 0
1, 26733, Note_on_c, 1, 38, 75
1, 26759, Note_on_c, 9, 25, 54
1, 26793, Note_on_c, 9, 25, 0
1, 26867, Note_on_c, 9, 28, 37
1, 26881, Note_on_c, 9, 28, 0
1, 27009, Note_on_c, 1, 39, 71
1, 27041, Note_on_c, 0, 81, 87
1, 27109, Note_on_c, 1, 39, 0
1, 27109, Note_on_c, 1, 38, 0
1, 27117, Note_on_c, 0, 81, 0
1, 27117, Note_on_c, 1, 37, 21
1, 27121, Note_on_c, 1, 40, 78
1, 27145, Note_on_c, 1, 37, 0
1, 27153, Note_on_c, 0, 82, 68
1, 27221, Note_on_c, 1, 40, 0
1, 27225, Note_on_c, 0, 82, 0
1, 27249, Note_on_c, 1, 41, 60
1, 27251, Note_on_c, 9, 28, 42
1, 27255, Note_on_c, 9, 44, 75
1, 27265, Note_on_c, 9, 28, 0
1, 27269, Note_on_c, 0, 83, 71
1, 27277, Control_c, 0, 64, 127
1, 27289, Note_on_c, 9, 46, 22
1, 27313, Note_on_c, 9, 46, 0
1, 27321, Note_on_c, 1, 41, 0
1, 27345, Note_on_c, 0, 83, 0
1, 27369, Note_on_c, 1, 42, 61
1, 27399, Note_on_c, 9, 44, 0
1, 27465, Note_on_c, 1, 42, 0
1, 27485, Note_on_c, 1, 40, 71
1, 27507, Note_on_c, 9, 35, 31
1, 27507, Note_on_c, 9, 28, 37
1, 27533, Note_on_c, 9, 35, 0
1, 27597, Note_on_c, 0, 63, 40
1, 27601, Note_on_c, 1, 40, 0
1, 27601, Control_c, 0, 64, 0
1, 27605, Note_on_c, 0, 62, 39
1, 27613, Note_on_c, 0, 67, 16
1, 27613, Note_on_c, 0, 57, 36
1, 27629, Note_on_c, 1, 41, 79
1, 27635, Note_on_c, 9, 28, 48
1, 27649, Note_on_c, 9, 28, 0
1, 27681, Control_c, 0, 64, 127
1, 27689, Note_on_c, 1, 41, 0
1, 27729, Note_on_c, 0, 57, 0
1, 27757, Note_on_c, 1, 36, 56
1, 27785, Note_on_c, 0, 62, 0
1, 27793, Note_on_c, 0, 63, 0
1, 27797, Note_on_c, 0, 67, 0
1, 27801, Note_on_c, 1, 36, 0
1, 27897, Note_on_c, 1, 34, 31
1, 27901, Note_on_c, 1, 33, 39
1, 27961, Note_on_c, 1, 33, 0
1, 27969, Note_on_c, 1, 34, 0
1, 28017, Note_on_c, 1, 33, 77
1, 28019, Note_on_c, 9, 28, 37
1, 28023, Note_on_c, 9, 44, 89
1, 28029, Note_on_c, 0, 68, 48
1, 28029, Control_c, 0, 64, 0
1, 28033, Note_on_c, 9, 28, 0
1, 28033, Note_on_c, 9, 28, 0
1, 28045, Note_on_c, 0, 62, 44
1, 28045, Note_on_c, 0, 64, 39
1, 28045, Note_on_c, 0, 58, 39
1, 28129, Control_c, 0, 64, 127
1, 28209, Note_on_c, 9, 44, 0
1, 28249, Note_on_c, 0, 64, 0
1, 28301, Note_on_c, 0, 68, 0
1, 28305, Note_on_c, 0, 62, 0
1, 28357, Note_on_c, 0, 58, 0
1, 28385, Note_on_c, 1, 33, 0
1, 28401, Note_on_c, 1, 31, 67
1, 28403, Note_on_c, 9, 28, 34
1, 28417, Note_on_c, 9, 28, 0
1, 28417, Control_c, 0, 64, 0
1, 28417, Note_on_c, 0, 67, 55
1, 28429, Note_on_c, 0, 63, 46
1, 28429, Note_on_c, 0, 62, 37
1, 28433, Note_on_c, 0, 81, 77
1, 28445, Note_on_c, 0, 57, 38
1, 28525, Control_c, 0, 64, 127
1, 28553, Note_on_c, 0, 82, 57
1, 28609, Note_on_c, 0, 81, 0
1, 28629, Note_on_c, 0, 67, 0
1, 28629, Note_on_c, 0, 63, 0
1, 28629, Note_on_c, 0, 57, 0
1, 28649, Note_on_c, 0, 82, 0
1, 28661, Note_on_c, 0, 62, 0
1, 28673, Note_on_c, 0, 83, 71
1, 28673, Note_on_c, 9, 25, 63
1, 28695, Note_on_c, 9, 25, 0
1, 28757, Note_on_c, 0, 83, 0
1, 28765, Control_c, 0, 64, 0
1, 28769, Note_on_c, 1, 31, 0
1, 28773, Note_on_c, 1, 30, 70
1, 28787, Note_on_c, 9, 28, 39
1, 28789, Note_on_c, 0, 67, 44
1, 28791, Note_on_c, 9, 44, 84
1, 28801, Note_on_c, 9, 28, 0
1, 28801, Note_on_c, 0, 84, 64
1, 28805, Note_on_c, 0, 62, 33
1, 28805, Note_on_c, 0, 63, 41
1, 28809, Note_on_c, 9, 25, 52
1, 28813, Note_on_c, 0, 57, 32
1, 28813, Control_c, 0, 64, 127
1, 28833, Note_on_c, 9, 25, 0
1, 28869, Note_on_c, 0, 67, 0
1, 28885, Note_on_c, 0, 57, 0
1, 28889, Note_on_c, 0, 63, 0
1, 28933, Note_on_c, 0, 62, 0
1, 28985, Note_on_c, 9, 44, 0
1, 28993, Note_on_c, 0, 84, 0
1, 29047, Note_on_c, 9, 25, 77
1, 29061, Note_on_c, 0, 86, 77
1, 29061, Note_on_c, 0, 67, 48
1, 29065, Note_on_c, 0, 74, 76
1, 29073, Note_on_c, 0, 63, 47
1, 29077, Note_on_c, 0, 62, 31
1, 29089, Note_on_c, 9, 25, 0
1, 29101, Note_on_c, 0, 67, 0
1, 29133, Note_on_c, 1, 30, 0
1, 29137, Note_on_c, 0, 62, 0
1, 29137, Note_on_c, 0, 86, 0
1, 29141, Note_on_c, 0, 63, 0
1, 29161, Note_on_c, 0, 74, 0
1, 29165, Control_c, 0, 64, 0
1, 29165, Note_on_c, 1, 29, 74
1, 29171, Note_on_c, 9, 28, 41
1, 29185, Note_on_c, 9, 28, 0
1, 29205, Note_on_c, 0, 67, 50
1, 29205, Note_on_c, 0, 84, 57
1, 29205, Note_on_c, 0, 63, 39
1, 29213, Note_on_c, 0, 62, 46
1, 29213, Control_c, 0, 64, 127
1, 29217, Note_on_c, 0, 72, 41
1, 29221, Note_on_c, 0, 57, 35
1, 29265, Note_on_c, 0, 67, 0
1, 29281, Note_on_c, 0, 57, 0
1, 29289, Note_on_c, 0, 63, 0
1, 29301, Note_on_c, 0, 84, 0
1, 29305, Note_on_c, 0, 62, 0
1, 29313, Note_on_c, 0, 72, 0
1, 29433, Note_on_c, 9, 35, 29
1, 29437, Note_on_c, 0, 81, 47
1, 29437, Note_on_c, 0, 63, 48
1, 29437, Note_on_c, 0, 69, 37
1, 29441, Note_on_c, 0, 62, 42
1, 29441, Note_on_c, 0, 67, 43
1, 29441, Note_on_c, 0, 57, 45
1, 29459, Note_on_c, 9, 35, 0
1, 29461, Note_on_c, 0, 80, 35
1, 29481, Note_on_c, 0, 57, 0
1, 29481, Note_on_c, 0, 81, 0
1, 29485, Note_on_c, 0, 67, 0
1, 29485, Note_on_c, 0, 69, 0
1, 29485, Note_on_c, 1, 36, 32
1, 29493, Note_on_c, 0, 80, 0
1, 29509, Note_on_c, 0, 62, 0
1, 29513, Note_on_c, 1, 36, 0
1, 29517, Note_on_c, 0, 63, 0
1, 29545, Note_on_c, 1, 43, 88
1, 29555, Note_on_c, 9, 28, 43
1, 29557, Control_c, 0, 64, 0
1, 29559, Note_on_c, 9, 44, 103
1, 29569, Note_on_c, 9, 28, 0
1, 29573, Note_on_c, 0, 63, 41
1, 29573, Note_on_c, 0, 70, 58
1, 29577, Note_on_c, 0, 82, 58
1, 29581, Note_on_c, 0, 67, 48
1, 29585, Note_on_c, 1, 29, 0
1, 29585, Note_on_c, 9, 35, 47
1, 29589, Note_on_c, 0, 62, 35
1, 29617, Note_on_c, 0, 67, 0
1, 29621, Note_on_c, 0, 62, 0
1, 29625, Note_on_c, 0, 82, 0
1, 29625, Note_on_c, 0, 70, 0
1, 29637, Note_on_c, 0, 63, 0
1, 29645, Control_c, 0, 64, 127
1, 29685, Note_on_c, 0, 71, 61
1, 29689, Note_on_c, 0, 63, 41
1, 29693, Note_on_c, 0, 83, 46
1, 29697, Note_on_c, 0, 67, 38
1, 29709, Note_on_c, 0, 62, 24
1, 29729, Note_on_c, 0, 67, 0
1, 29733, Note_on_c, 0, 83, 0
1, 29733, Note_on_c, 0, 71, 0
1, 29737, Note_on_c, 0, 62, 0
1, 29749, Note_on_c, 0, 63, 0
1, 29761, Note_on_c, 9, 44, 0
1, 29777, Note_on_c, 9, 35, 0
1, 29801, Note_on_c, 0, 63, 55
1, 29801, Note_on_c, 0, 72, 83
1, 29801, Note_on_c, 0, 84, 77
1, 29801, Note_on_c, 0, 67, 75
1, 29805, Note_on_c, 0, 62, 57
1, 29805, Note_on_c, 0, 57, 66
1, 29813, Note_on_c, 1, 36, 51
1, 29821, Note_on_c, 0, 83, 39
1, 29825, Note_on_c, 9, 35, 54
1, 29837, Note_on_c, 1, 36, 0
1, 29841, Note_on_c, 0, 83, 0
1, 29873, Note_on_c, 9, 35, 0
1, 29929, Note_on_c, 1, 41, 84
1, 29933, Note_on_c, 1, 43, 0
1, 29939, Note_on_c, 0, 57, 0
1, 29939, Note_on_c, 9, 28, 39
1, 29941, Note_on_c, 0, 72, 0
1, 29945, Note_on_c, 0, 67, 0
1, 29953, Note_on_c, 9, 28, 0
1, 29953, Note_on_c, 0, 84, 0
1, 29961, Note_on_c, 0, 63, 0
1, 29969, Note_on_c, 0, 62, 0
1, 30045, Note_on_c, 0, 86, 85
1, 30045, Note_on_c, 0, 63, 61
1, 30049, Note_on_c, 0, 74, 76
1, 30053, Note_on_c, 0, 67, 68
1, 30053, Note_on_c, 0, 57, 69
1, 30053, Note_on_c, 0, 79, 61
1, 30053, Note_on_c, 0, 62, 56
1, 30057, Note_on_c, 9, 25, 66
1, 30097, Note_on_c, 9, 25, 0
1, 30185, Note_on_c, 1, 36, 58
1, 30189, Note_on_c, 0, 67, 0
1, 30197, Note_on_c, 0, 57, 0
1, 30201, Note_on_c, 0, 86, 0
1, 30213, Note_on_c, 0, 62, 0
1, 30217, Note_on_c, 0, 79, 0
1, 30221, Note_on_c, 0, 63, 0
1, 30221, Note_on_c, 0, 74, 0
1, 30289, Note_on_c, 1, 36, 0
1, 30289, Note_on_c, 0, 63, 57
1, 30293, Note_on_c, 0, 84, 64
1, 30297, Note_on_c, 0, 67, 58
1, 30301, Note_on_c, 0, 57, 52
1, 30305, Note_on_c, 0, 62, 37
1, 30305, Note_on_c, 0, 72, 44
1, 30305, Note_on_c, 0, 79, 54
1, 30311, Note_on_c, 9, 25, 78
1, 30321, Note_on_c, 1, 35, 83
1, 30323, Note_on_c, 9, 28, 37
1, 30327, Note_on_c, 9, 44, 82
1, 30329, Note_on_c, 1, 41, 0
1, 30337, Note_on_c, 9, 28, 0
1, 30341, Note_on_c, 0, 67, 0
1, 30357, Note_on_c, 0, 62, 0
1, 30361, Note_on_c, 9, 25, 0
1, 30373, Note_on_c, 0, 57, 0
1, 30385, Note_on_c, 0, 79, 0
1, 30385, Note_on_c, 0, 84, 0
1, 30389, Note_on_c, 0, 63, 0
1, 30409, Note_on_c, 0, 72, 0
1, 30505, Note_on_c, 9, 44, 0
1, 30577, Note_on_c, 9, 25, 64
1, 30647, Note_on_c, 9, 25, 0
1, 30689, Note_on_c, 1, 35, 0
1, 30705, Note_on_c, 0, 82, 69
1, 30707, Note_on_c, 9, 28, 43
1, 30709, Note_on_c, 0, 70, 69
1, 30713, Note_on_c, 0, 65, 36
1, 30713, Note_on_c, 1, 34, 66
1, 30721, Note_on_c, 9, 28, 0
1, 30721, Note_on_c, 0, 62, 34
1, 30725, Control_c, 0, 64, 0
1, 30729, Note_on_c, 0, 60, 45
1, 30733, Note_on_c, 0, 55, 33
1, 30765, Note_on_c, 0, 65, 0
1, 30781, Note_on_c, 0, 70, 0
1, 30781, Note_on_c, 0, 62, 0
1, 30781, Control_c, 0, 64, 127
1, 30785, Note_on_c, 0, 82, 0
1, 30785, Note_on_c, 0, 55, 0
1, 30789, Note_on_c, 0, 60, 0
1, 30977, Note_on_c, 0, 84, 81
1, 30985, Note_on_c, 0, 62, 56
1, 30985, Note_on_c, 0, 72, 43
1, 30993, Note_on_c, 0, 65, 59
1, 30993, Note_on_c, 0, 60, 54
1, 30997, Control_c, 0, 64, 0
1, 30997, Note_on_c, 0, 55, 49
1, 30997, Note_on_c, 0, 74, 55
1, 31013, Note_on_c, 0, 74, 0
1, 31077, Control_c, 0, 64, 127
1, 31091, Note_on_c, 9, 28, 37
1, 31095, Note_on_c, 9, 44, 91
1, 31097, Note_on_c, 1, 40, 84
1, 31105, Note_on_c, 9, 28, 0
1, 31117, Note_on_c, 0, 65, 0
1, 31125, Note_on_c, 1, 34, 0
1, 31137, Note_on_c, 0, 55, 0
1, 31137, Note_on_c, 0, 84, 0
1, 31141, Note_on_c, 0, 72, 0
1, 31145, Note_on_c, 0, 60, 0
1, 31149, Note_on_c, 0, 62, 0
1, 31207, Note_on_c, 9, 44, 0
1, 31245, Note_on_c, 0, 85, 71
1, 31249, Note_on_c, 0, 73, 66
1, 31249, Note_on_c, 0, 65, 63
1, 31253, Note_on_c, 0, 62, 52
1, 31261, Note_on_c, 0, 60, 47
1, 31269, Note_on_c, 0, 65, 0
1, 31277, Note_on_c, 0, 62, 0
1, 31281, Note_on_c, 0, 60, 0
1, 31289, Note_on_c, 0, 73, 0
1, 31305, Note_on_c, 0, 85, 0
1, 31349, Note_on_c, 0, 74, 77
1, 31353, Note_on_c, 0, 86, 68
1, 31357, Note_on_c, 0, 65, 72
1, 31361, Note_on_c, 0, 62, 60
1, 31365, Note_on_c, 0, 55, 47
1, 31365, Note_on_c, 0, 60, 61
1, 31381, Note_on_c, 0, 82, 28
1, 31381, Note_on_c, 0, 84, 27
1, 31409, Note_on_c, 0, 79, 19
1, 31413, Note_on_c, 0, 82, 0
1, 31413, Note_on_c, 0, 86, 0
1, 31417, Note_on_c, 0, 65, 0
1, 31421, Note_on_c, 0, 84, 0
1, 31421, Note_on_c, 0, 55, 0
1, 31425, Note_on_c, 0, 74, 0
1, 31441, Note_on_c, 0, 60, 0
1, 31441, Note_on_c, 0, 62, 0
1, 31445, Note_on_c, 0, 79, 0
1, 31453, Control_c, 0, 64, 0
1, 31475, Note_on_c, 9, 28, 35
1, 31481, Note_on_c, 1, 41, 77
1, 31489, Note_on_c, 9, 28, 0
1, 31493, Note_on_c, 0, 87, 89
1, 31493, Note_on_c, 0, 75, 84
1, 31493, Note_on_c, 0, 65, 82
1, 31497, Note_on_c, 1, 40, 0
1, 31497, Note_on_c, 0, 62, 63
1, 31497, Note_on_c, 0, 55, 71
1, 31497, Note_on_c, 0, 60, 58
1, 31497, Note_on_c, 0, 79, 66
1, 31545, Control_c, 0, 64, 127
1, 31629, Note_on_c, 0, 79, 0
1, 31645, Note_on_c, 0, 65, 0
1, 31649, Note_on_c, 0, 55, 0
1, 31653, Note_on_c, 0, 87, 0
1, 31653, Note_on_c, 0, 62, 0
1, 31657, Note_on_c, 0, 60, 0
1, 31665, Note_on_c, 0, 75, 0
1, 31745, Note_on_c, 0, 86, 74
1, 31749, Note_on_c, 0, 65, 72
1, 31753, Note_on_c, 0, 74, 73
1, 31753, Note_on_c, 0, 55, 63
1, 31757, Note_on_c, 0, 62, 57
1, 31757, Note_on_c, 0, 60, 57
1, 31761, Note_on_c, 1, 40, 43
1, 31765, Note_on_c, 0, 82, 48
1, 31765, Note_on_c, 0, 79, 50
1, 31769, Note_on_c, 0, 84, 27
1, 31789, Note_on_c, 0, 82, 0
1, 31797, Note_on_c, 0, 74, 0
1, 31801, Note_on_c, 0, 84, 0
1, 31805, Note_on_c, 0, 79, 0
1, 31805, Note_on_c, 0, 86, 0
1, 31821, Note_on_c, 0, 65, 0
1, 31833, Note_on_c, 0, 55, 0
1, 31837, Note_on_c, 1, 40, 0
1, 31841, Note_on_c, 0, 62, 0
1, 31849, Note_on_c, 0, 60, 0
1, 31849, Note_on_c, 1, 48, 96
1, 31859, Note_on_c, 9, 28, 35
1, 31861, Note_on_c, 1, 41, 0
1, 31863, Note_on_c, 9, 44, 89
1, 31873, Note_on_c, 9, 28, 0
1, 31885, Control_c, 0, 64, 0
1, 31893, Note_on_c, 0, 55, 49
1, 31893, Note_on_c, 0, 65, 50
1, 31893, Note_on_c, 0, 69, 39
1, 31901, Note_on_c, 0, 62, 43
1, 31901, Note_on_c, 0, 60, 49
1, 31917, Note_on_c, 0, 81, 40
1, 31929, Control_c, 0, 64, 127
1, 31959, Note_on_c, 9, 44, 0
1, 31977, Note_on_c, 0, 69, 0
1, 31985, Note_on_c, 0, 81, 0
1, 32017, Note_on_c, 0, 65, 0
1, 32029, Note_on_c, 0, 55, 0
1, 32045, Note_on_c, 0, 62, 0
1, 32045, Note_on_c, 0, 60, 0
1, 32125, Note_on_c, 0, 84, 68
1, 32129, Note_on_c, 0, 65, 61
1, 32129, Note_on_c, 0, 72, 64
1, 32137, Note_on_c, 0, 55, 50
1, 32137, Note_on_c, 0, 62, 50
1, 32141, Note_on_c, 0, 60, 54
1, 32145, Note_on_c, 0, 79, 53
1, 32181, Note_on_c, 0, 84, 0
1, 32185, Note_on_c, 0, 65, 0
1, 32189, Note_on_c, 0, 79, 0
1, 32193, Note_on_c, 0, 55, 0
1, 32201, Note_on_c, 0, 72, 0
1, 32201, Note_on_c, 0, 62, 0
1, 32205, Note_on_c, 0, 60, 0
1, 32221, Control_c, 0, 64, 0
1, 32233, Note_on_c, 1, 48, 0
1, 32241, Note_on_c, 1, 46, 81
1, 32243, Note_on_c, 9, 28, 29
1, 32257, Note_on_c, 9, 28, 0
1, 32273, Note_on_c, 0, 65, 47
1, 32273, Note_on_c, 0, 82, 53
1, 32277, Note_on_c, 0, 62, 36
1, 32281, Note_on_c, 0, 60, 49
1, 32281, Control_c, 0, 64, 127
1, 32285, Note_on_c, 0, 70, 48
1, 32285, Note_on_c, 0, 55, 31
1, 32337, Note_on_c, 0, 65, 0
1, 32341, Note_on_c, 0, 82, 0
1, 32349, Note_on_c, 0, 70, 0
1, 32365, Note_on_c, 0, 62, 0
1, 32369, Note_on_c, 0, 60, 0
1, 32377, Note_on_c, 0, 55, 0
1, 32497, Note_on_c, 0, 65, 50
1, 32499, Note_on_c, 0, 77, 54
1, 32499, Note_on_c, 9, 35, 31
1, 32513, Note_on_c, 0, 55, 41
1, 32513, Note_on_c, 0, 60, 46
1, 32517, Note_on_c, 0, 62, 32
1, 32521, Note_on_c, 0, 72, 43
1, 32533, Note_on_c, 1, 41, 45
1, 32537, Note_on_c, 9, 35, 0
1, 32545, Control_c, 0, 64, 0
1, 32553, Note_on_c, 0, 72, 0
1, 32573, Note_on_c, 1, 46, 0
1, 32577, Note_on_c, 0, 62, 0
1, 32577, Note_on_c, 0, 77, 0
1, 32577, Note_on_c, 0, 65, 0
1, 32577, Note_on_c, 0, 55, 0
1, 32581, Note_on_c, 0, 60, 0
1, 32593, Note_on_c, 1, 41, 0
1, 32613, Note_on_c, 1, 46, 82
1, 32625, Control_c, 0, 64, 127
1, 32627, Note_on_c, 9, 28, 50
1, 32631, Note_on_c, 9, 35, 33
1, 32631, Note_on_c, 9, 44, 87
1, 32641, Note_on_c, 9, 28, 0
1, 32673, Note_on_c, 9, 35, 0
1, 32727, Note_on_c, 9, 44, 0
1, 32893, Note_on_c, 1, 41, 41
1, 32897, Note_on_c, 0, 65, 55
1, 32897, Note_on_c, 0, 77, 54
1, 32905, Note_on_c, 0, 60, 47
1, 32909, Control_c, 0, 64, 0
1, 32909, Note_on_c, 0, 62, 33
1, 32909, Note_on_c, 0, 72, 52
1, 32913, Note_on_c, 0, 55, 39
1, 32917, Note_on_c, 1, 41, 0
1, 32981, Control_c, 0, 64, 127
1, 32985, Note_on_c, 1, 46, 0
1, 33005, Note_on_c, 1, 45, 68
1, 33011, Note_on_c, 9, 28, 35
1, 33025, Note_on_c, 9, 28, 0
1, 33025, Note_on_c, 0, 62, 0
1, 33025, Note_on_c, 1, 46, 31
1, 33037, Note_on_c, 0, 60, 0
1, 33053, Note_on_c, 1, 46, 0
1, 33053, Note_on_c, 0, 55, 0
1, 33057, Note_on_c, 0, 77, 0
1, 33065, Note_on_c, 0, 72, 0
1, 33093, Note_on_c, 0, 65, 0
1, 33253, Note_on_c, 1, 41, 54
1, 33273, Note_on_c, 1, 41, 0
1, 33273, Note_on_c, 0, 50, 35
1, 33283, Note_on_c, 9, 35, 24
1, 33319, Note_on_c, 9, 35, 0
1, 33325, Note_on_c, 0, 50, 0
1, 33341, Control_c, 0, 64, 0
1, 33361, Note_on_c, 1, 45, 0
1, 33381, Note_on_c, 0, 70, 58
1, 33381, Note_on_c, 1, 44, 79
1, 33385, Note_on_c, 0, 44, 49
1, 33389, Note_on_c, 0, 60, 45
1, 33389, Note_on_c, 0, 54, 37
1, 33393, Note_on_c, 0, 65, 48
1, 33395, Note_on_c, 9, 28, 48
1, 33397, Control_c, 0, 64, 127
1, 33399, Note_on_c, 9, 44, 82
1, 33409, Note_on_c, 9, 28, 0
1, 33489, Note_on_c, 0, 65, 0
1, 33497, Note_on_c, 0, 70, 0
1, 33513, Note_on_c, 0, 54, 0
1, 33525, Note_on_c, 0, 60, 0
1, 33537, Note_on_c, 9, 44, 0
1, 33561, Note_on_c, 0, 44, 0
1, 33641, Control_c, 0, 64, 0
1, 33645, Note_on_c, 0, 67, 52
1, 33645, Note_on_c, 0, 59, 46
1, 33645, Note_on_c, 1, 42, 68
1, 33657, Note_on_c, 0, 53, 44
1, 33657, Note_on_c, 0, 64, 50
1, 33661, Note_on_c, 0, 43, 41
1, 33665, Note_on_c, 1, 44, 0
1, 33729, Note_on_c, 0, 43, 0
1, 33733, Note_on_c, 0, 59, 0
1, 33733, Control_c, 0, 64, 127
1, 33761, Note_on_c, 0, 64, 0
1, 33769, Note_on_c, 0, 53, 0
1, 33773, Note_on_c, 1, 42, 0
1, 33773, Note_on_c, 0, 67, 0
1, 33779, Note_on_c, 9, 28, 39
1, 33781, Note_on_c, 1, 43, 68
1, 33793, Note_on_c, 9, 28, 0
1, 33801, Note_on_c, 9, 35, 42
1, 33809, Note_on_c, 9, 46, 26
1, 33821, Note_on_c, 1, 43, 0
1, 33841, Note_on_c, 9, 46, 0
1, 33843, Note_on_c, 9, 35, 0
1, 33901, Note_on_c, 1, 38, 56
1, 33965, Note_on_c, 1, 38, 0
1, 33989, Note_on_c, 0, 62, 60
1, 33989, Note_on_c, 0, 59, 57
1, 33993, Note_on_c, 0, 71, 61
1, 33997, Note_on_c, 0, 67, 55
1, 34021, Note_on_c, 1, 30, 58
1, 34037, Note_on_c, 0, 62, 0
1, 34053, Note_on_c, 0, 67, 0
1, 34065, Note_on_c, 0, 71, 0
1, 34073, Control_c, 0, 64, 0
1, 34097, Note_on_c, 0, 59, 0
1, 34109, Note_on_c, 0, 72, 60
1, 34121, Note_on_c, 0, 60, 49
1, 34121, Note_on_c, 0, 67, 41
1, 34133, Note_on_c, 1, 30, 0
1, 34145, Note_on_c, 0, 67, 0
1, 34153, Note_on_c, 0, 72, 0
1, 34153, Note_on_c, 1, 31, 80
1, 34163, Note_on_c, 9, 28, 34
1, 34167, Note_on_c, 9, 44, 99
1, 34177, Note_on_c, 9, 28, 0
1, 34201, Note_on_c, 0, 60, 0
1, 34233, Note_on_c, 0, 73, 52
1, 34245, Note_on_c, 0, 61, 48
1, 34277, Note_on_c, 0, 73, 0
1, 34295, Note_on_c, 9, 44, 0
1, 34325, Note_on_c, 0, 61, 0
1, 34345, Note_on_c, 0, 74, 67
1, 34345, Note_on_c, 0, 65, 63
1, 34349, Note_on_c, 0, 69, 60
1, 34353, Note_on_c, 0, 62, 57
1, 34401, Control_c, 0, 64, 127
1, 34405, Note_on_c, 0, 65, 0
1, 34413, Note_on_c, 0, 69, 0
1, 34417, Note_on_c, 0, 74, 0
1, 34417, Note_on_c, 0, 62, 0
1, 34421, Control_c, 0, 64, 0
1, 34423, Note_on_c, 9, 35, 38
1, 34461, Note_on_c, 9, 35, 0
1, 34465, Note_on_c, 0, 74, 69
1, 34469, Note_on_c, 0, 69, 53
1, 34473, Note_on_c, 0, 62, 60
1, 34473, Note_on_c, 0, 65, 50
1, 34529, Note_on_c, 0, 65, 0
1, 34529, Note_on_c, 0, 74, 0
1, 34533, Note_on_c, 0, 62, 0
1, 34541, Note_on_c, 0, 69, 0
1, 34547, Note_on_c, 9, 28, 32
1, 34549, Note_on_c, 1, 31, 0
1, 34549, Note_on_c, 1, 33, 81
1, 34561, Note_on_c, 9, 28, 0
1, 34561, Note_on_c, 9, 35, 35
1, 34577, Control_c, 0, 64, 127
1, 34589, Note_on_c, 0, 74, 58
1, 34597, Note_on_c, 0, 69, 52
1, 34597, Note_on_c, 0, 62, 52
1, 34605, Note_on_c, 0, 65, 54
1, 34609, Note_on_c, 9, 35, 0
1, 34705, Note_on_c, 0, 62, 0
1, 34705, Note_on_c, 0, 69, 0
1, 34705, Note_on_c, 0, 65, 0
1, 34709, Note_on_c, 0, 74, 0
1, 34801, Note_on_c, 0, 64, 73
1, 34803, Note_on_c, 9, 28, 29
1, 34805, Note_on_c, 0, 76, 63
1, 34805, Note_on_c, 0, 69, 68
1, 34805, Note_on_c, 0, 65, 68
1, 34821, Note_on_c, 0, 74, 40
1, 34845, Note_on_c, 0, 74, 0
1, 34873, Note_on_c, 0, 76, 0
1, 34877, Note_on_c, 0, 64, 0
1, 34897, Note_on_c, 0, 69, 0
1, 34897, Note_on_c, 0, 65, 0
1, 34897, Control_c, 0, 64, 0
1, 34931, Note_on_c, 9, 28, 36
1, 34933, Note_on_c, 1, 33, 0
1, 34935, Note_on_c, 9, 44, 110
1, 34937, Note_on_c, 0, 74, 63
1, 34937, Note_on_c, 1, 34, 79
1, 34941, Note_on_c, 0, 69, 64
1, 34941, Note_on_c, 0, 65, 57
1, 34941, Note_on_c, 0, 62, 64
1, 34945, Note_on_c, 9, 28, 0
1, 34961, Control_c, 0, 64, 127
1, 35037, Note_on_c, 0, 69, 0
1, 35041, Note_on_c, 0, 62, 0
1, 35041, Note_on_c, 0, 74, 0
1, 35053, Note_on_c, 0, 65, 0
1, 35097, Note_on_c, 9, 44, 0
1, 35165, Control_c, 0, 64, 0
1, 35185, Note_on_c, 0, 71, 77
1, 35185, Note_on_c, 0, 67, 77
1, 35185, Note_on_c, 0, 59, 79
1, 35185, Note_on_c, 0, 62, 74
1, 35185, Note_on_c, 9, 35, 43
1, 35217, Note_on_c, 9, 35, 0
1, 35301, Note_on_c, 1, 34, 0
1, 35309, Control_c, 0, 64, 127
1, 35315, Note_on_c, 9, 28, 47
1, 35321, Note_on_c, 1, 35, 69
1, 35329, Note_on_c, 9, 28, 0
1, 35329, Note_on_c, 9, 28, 0
1, 35357, Note_on_c, 0, 62, 0
1, 35405, Note_on_c, 0, 71, 0
1, 35405, Note_on_c, 0, 67, 0
1, 35441, Note_on_c, 0, 72, 59
1, 35449, Note_on_c, 0, 59, 0
1, 35453, Note_on_c, 0, 60, 48
1, 35453, Note_on_c, 0, 65, 40
1, 35469, Note_on_c, 0, 71, 28
1, 35481, Note_on_c, 0, 65, 0
1, 35489, Note_on_c, 0, 72, 0
1, 35505, Note_on_c, 0, 71, 0
1, 35541, Note_on_c, 0, 60, 0
1, 35569, Note_on_c, 0, 73, 63
1, 35573, Note_on_c, 0, 61, 63
1, 35573, Note_on_c, 0, 65, 56
1, 35573, Note_on_c, 0, 68, 60
1, 35637, Note_on_c, 0, 65, 0
1, 35637, Note_on_c, 1, 34, 14
1, 35645, Control_c, 0, 64, 0
1, 35653, Note_on_c, 0, 73, 0
1, 35669, Note_on_c, 0, 68, 0
1, 35685, Note_on_c, 1, 34, 0
1, 35693, Note_on_c, 1, 45, 85
1, 35699, Note_on_c, 9, 28, 38
1, 35701, Note_on_c, 0, 74, 69
1, 35701, Note_on_c, 0, 65, 60
1, 35701, Note_on_c, 0, 69, 66
1, 35703, Note_on_c, 9, 44, 92
1, 35705, Note_on_c, 0, 62, 63
1, 35709, Note_on_c, 1, 35, 0
1, 35713, Note_on_c, 9, 28, 0
1, 35713, Note_on_c, 0, 61, 0
1, 35741, Control_c, 0, 64, 127
1, 35849, Note_on_c, 9, 44, 0
1, 35861, Note_on_c, 0, 62, 0
1, 35873, Note_on_c, 0, 65, 0
1, 35877, Note_on_c, 0, 74, 0
1, 35881, Note_on_c, 0, 69, 0
1, 35961, Note_on_c, 0, 69, 66
1, 35961, Note_on_c, 9, 27, 63
1, 35965, Note_on_c, 0, 74, 60
1, 35965, Note_on_c, 0, 65, 59
1, 35973, Note_on_c, 0, 62, 57
1, 36019, Note_on_c, 9, 27, 0
1, 36041, Control_c, 0, 64, 0
1, 36057, Note_on_c, 0, 65, 0
1, 36057, Note_on_c, 0, 74, 0
1, 36057, Note_on_c, 0, 62, 0
1, 36065, Note_on_c, 0, 69, 0
1, 36069, Note_on_c, 1, 45, 0
1, 36077, Note_on_c, 1, 43, 72
1, 36083, Note_on_c, 9, 28, 38
1, 36097, Note_on_c, 9, 28, 0
1, 36105, Control_c, 0, 64, 127
1, 36113, Note_on_c, 0, 74, 60
1, 36117, Note_on_c, 0, 62, 48
1, 36121, Note_on_c, 0, 69, 61
1, 36121, Note_on_c, 0, 65, 45
1, 36197, Note_on_c, 0, 74, 0
1, 36205, Note_on_c, 0, 69, 0
1, 36213, Note_on_c, 0, 62, 0
1, 36217, Note_on_c, 0, 65, 0
1, 36329, Note_on_c, 0, 64, 55
1, 36333, Note_on_c, 0, 76, 66
1, 36337, Note_on_c, 0, 69, 50
1, 36337, Note_on_c, 0, 65, 57
1, 36341, Note_on_c, 1, 38, 59
1, 36369, Note_on_c, 9, 27, 59
1, 36381, Note_on_c, 0, 64, 0
1, 36389, Note_on_c, 0, 76, 0
1, 36409, Note_on_c, 0, 65, 0
1, 36417, Note_on_c, 1, 38, 0
1, 36419, Note_on_c, 9, 27, 0
1, 36421, Note_on_c, 0, 69, 0
1, 36433, Control_c, 0, 64, 0
1, 36449, Control_c, 0, 64, 127
1, 36467, Note_on_c, 9, 28, 46
1, 36469, Note_on_c, 0, 62, 54
1, 36471, Note_on_c, 9, 44, 105
1, 36473, Note_on_c, 0, 74, 56
1, 36473, Note_on_c, 0, 69, 57
1, 36473, Note_on_c, 0, 65, 41
1, 36481, Note_on_c, 9, 28, 0
1, 36485, Note_on_c, 1, 34, 39
1, 36513, Note_on_c, 1, 34, 0
1, 36529, Note_on_c, 0, 65, 0
1, 36537, Note_on_c, 0, 62, 0
1, 36561, Note_on_c, 0, 69, 0
1, 36569, Note_on_c, 0, 74, 0
1, 36599, Note_on_c, 9, 44, 0
1, 36625, Note_on_c, 9, 27, 84
1, 36647, Note_on_c, 9, 27, 0
1, 36723, Note_on_c, 9, 28, 27
1, 36729, Note_on_c, 1, 32, 87
1, 36749, Note_on_c, 0, 73, 85
1, 36753, Note_on_c, 0, 65, 88
1, 36753, Note_on_c, 0, 77, 88
1, 36757, Control_c, 0, 64, 0
1, 36757, Note_on_c, 0, 62, 68
1, 36761, Note_on_c, 0, 58, 54
1, 36761, Note_on_c, 0, 57, 47
1, 36761, Note_on_c, 9, 35, 35
1, 36765, Note_on_c, 1, 43, 0
1, 36765, Note_on_c, 0, 53, 49
1, 36793, Note_on_c, 9, 35, 0
1, 36809, Note_on_c, 0, 65, 0
1, 36849, Note_on_c, 1, 32, 0
1, 36851, Note_on_c, 9, 28, 39
1, 36853, Note_on_c, 0, 58, 0
1, 36853, Note_on_c, 0, 73, 0
1, 36853, Note_on_c, 0, 77, 0
1, 36861, Control_c, 0, 64, 127
1, 36861, Note_on_c, 0, 74, 38
1, 36865, Note_on_c, 9, 28, 0
1, 36865, Note_on_c, 0, 65, 46
1, 36865, Note_on_c, 1, 31, 81
1, 36873, Note_on_c, 0, 62, 0
1, 36881, Note_on_c, 0, 74, 0
1, 36917, Note_on_c, 0, 53, 0
1, 36929, Note_on_c, 0, 65, 0
1, 36933, Note_on_c, 0, 57, 0
1, 36933, Note_on_c, 0, 58, 39
1, 36941, Note_on_c, 0, 62, 35
1, 36945, Note_on_c, 0, 77, 51
1, 36965, Note_on_c, 0, 58, 0
1, 36973, Note_on_c, 0, 77, 0
1, 36985, Note_on_c, 0, 62, 0
1, 36989, Note_on_c, 0, 65, 46
1, 37021, Note_on_c, 0, 57, 43
1, 37029, Note_on_c, 0, 53, 34
1, 37053, Note_on_c, 0, 53, 0
1, 37053, Note_on_c, 0, 65, 0
1, 37061, Note_on_c, 0, 57, 0
1, 37073, Note_on_c, 0, 77, 49
1, 37077, Note_on_c, 0, 58, 30
1, 37081, Note_on_c, 0, 62, 46
1, 37097, Note_on_c, 0, 77, 0
1, 37113, Note_on_c, 0, 58, 0
1, 37117, Note_on_c, 0, 65, 45
1, 37137, Note_on_c, 0, 62, 0
1, 37149, Note_on_c, 0, 57, 51
1, 37181, Note_on_c, 0, 65, 0
1, 37193, Note_on_c, 0, 77, 54
1, 37209, Note_on_c, 0, 57, 0
1, 37213, Note_on_c, 0, 62, 46
1, 37217, Note_on_c, 0, 58, 30
1, 37229, Note_on_c, 0, 77, 0
1, 37235, Note_on_c, 9, 28, 37
1, 37239, Note_on_c, 0, 65, 42
1, 37239, Note_on_c, 9, 44, 98
1, 37249, Note_on_c, 9, 28, 0
1, 37249, Note_on_c, 9, 28, 0
1, 37257, Note_on_c, 0, 58, 0
1, 37277, Note_on_c, 0, 62, 0
1, 37293, Note_on_c, 0, 57, 42
1, 37297, Note_on_c, 0, 65, 0
1, 37313, Note_on_c, 0, 77, 50
1, 37345, Note_on_c, 0, 77, 0
1, 37345, Note_on_c, 0, 57, 0
1, 37353, Note_on_c, 0, 62, 38
1, 37357, Note_on_c, 0, 65, 43
1, 37361, Note_on_c, 9, 44, 0
1, 37365, Note_on_c, 0, 58, 30
1, 37401, Note_on_c, 0, 58, 0
1, 37405, Note_on_c, 0, 65, 0
1, 37413, Note_on_c, 0, 62, 0
1, 37417, Note_on_c, 0, 77, 46
1, 37433, Note_on_c, 0, 57, 45
1, 37465, Note_on_c, 0, 77, 0
1, 37465, Note_on_c, 0, 65, 40
1, 37481, Note_on_c, 0, 57, 0
1, 37497, Note_on_c, 0, 62, 32
1, 37521, Note_on_c, 0, 65, 0
1, 37537, Note_on_c, 0, 77, 54
1, 37553, Note_on_c, 0, 62, 0
1, 37553, Note_on_c, 1, 38, 37
1, 37569, Note_on_c, 0, 57, 48
1, 37577, Note_on_c, 0, 77, 0
1, 37581, Note_on_c, 1, 38, 0
1, 37581, Note_on_c, 0, 65, 35
1, 37619, Note_on_c, 9, 28, 38
1, 37633, Note_on_c, 0, 65, 0
1, 37633, Note_on_c, 9, 28, 0
1, 37637, Control_c, 0, 64, 0
1, 37641, Note_on_c, 0, 62, 50
1, 37641, Note_on_c, 0, 58, 31
1, 37641, Note_on_c, 1, 50, 87
1, 37653, Note_on_c, 0, 74, 68
1, 37701, Control_c, 0, 64, 127
1, 37761, Note_on_c, 0, 58, 0
1, 37789, Note_on_c, 0, 62, 0
1, 37825, Note_on_c, 0, 57, 0
1, 37897, Note_on_c, 1, 38, 39
1, 37929, Note_on_c, 1, 38, 0
1, 37973, Note_on_c, 1, 31, 0
1, 38001, Note_on_c, 1, 50, 0
1, 38001, Note_on_c, 9, 28, 37
1, 38007, Note_on_c, 9, 44, 105
1, 38017, Note_on_c, 9, 28, 0
1, 38025, Control_c, 0, 64, 0
1, 38025, Note_on_c, 0, 62, 50
1, 38025, Note_on_c, 1, 49, 69
1, 38033, Note_on_c, 0, 64, 52
1, 38045, Note_on_c, 0, 66, 57
1, 38045, Note_on_c, 0, 58, 38
1, 38045, Note_on_c, 0, 57, 12
1, 38049, Control_c, 0, 64, 127
1, 38097, Note_on_c, 9, 44, 0
1, 38101, Note_on_c, 0, 62, 0
1, 38173, Note_on_c, 0, 57, 0
1, 38237, Note_on_c, 0, 58, 0
1, 38297, Note_on_c, 0, 64, 0
1, 38301, Note_on_c, 0, 74, 0
1, 38361, Note_on_c, 0, 66, 0
1, 38387, Note_on_c, 9, 28, 44
1, 38401, Note_on_c, 9, 28, 0
1, 38413, Note_on_c, 0, 67, 52
1, 38417, Note_on_c, 0, 63, 49
1, 38417, Control_c, 0, 64, 0
1, 38417, Note_on_c, 0, 53, 46
1, 38425, Note_on_c, 0, 64, 25
1, 38433, Note_on_c, 0, 59, 29
1, 38469, Note_on_c, 0, 64, 0
1, 38499, Note_on_c, 9, 46, 26
1, 38509, Control_c, 0, 64, 127
1, 38525, Note_on_c, 9, 46, 0
1, 38561, Note_on_c, 0, 67, 0
1, 38569, Note_on_c, 0, 65, 63
1, 38617, Note_on_c, 0, 65, 0
1, 38627, Note_on_c, 9, 35, 45
1, 38637, Note_on_c, 0, 67, 45
1, 38641, Control_c, 0, 64, 0
1, 38649, Note_on_c, 1, 37, 94
1, 38665, Note_on_c, 9, 35, 0
1, 38669, Note_on_c, 0, 68, 63
1, 38697, Note_on_c, 0, 67, 0
1, 38717, Note_on_c, 0, 68, 0
1, 38721, Note_on_c, 0, 70, 51
1, 38737, Note_on_c, 0, 70, 0
1, 38761, Note_on_c, 0, 71, 48
1, 38771, Note_on_c, 9, 46, 22
1, 38771, Note_on_c, 9, 28, 35
1, 38775, Note_on_c, 9, 44, 108
1, 38785, Note_on_c, 9, 28, 0
1, 38813, Note_on_c, 0, 71, 0
1, 38819, Note_on_c, 9, 46, 0
1, 38881, Note_on_c, 9, 44, 0
1, 38893, Note_on_c, 1, 34, 70
1, 38909, Note_on_c, 1, 37, 0
1, 38957, Note_on_c, 1, 34, 0
1, 39013, Note_on_c, 1, 34, 29
1, 39017, Note_on_c, 1, 35, 77
1, 39033, Note_on_c, 1, 34, 0
1, 39047, Note_on_c, 9, 46, 63
1, 39097, Note_on_c, 9, 46, 0
1, 39117, Note_on_c, 0, 63, 0
1, 39129, Note_on_c, 0, 53, 0
1, 39129, Note_on_c, 0, 74, 21
1, 39133, Note_on_c, 0, 59, 0
1, 39133, Note_on_c, 1, 49, 0
1, 39137, Note_on_c, 1, 35, 0
1, 39145, Note_on_c, 1, 36, 84
1, 39149, Note_on_c, 0, 74, 0
1, 39155, Note_on_c, 9, 28, 42
1, 39165, Note_on_c, 0, 73, 58
1, 39169, Note_on_c, 9, 28, 0
1, 39229, Note_on_c, 0, 73, 0
1, 39233, Note_on_c, 0, 75, 66
1, 39269, Note_on_c, 0, 75, 0
1, 39285, Note_on_c, 0, 76, 56
1, 39333, Note_on_c, 0, 76, 0
1, 39335, Note_on_c, 9, 46, 57
1, 39341, Note_on_c, 0, 58, 42
1, 39345, Note_on_c, 0, 62, 31
1, 39357, Note_on_c, 0, 52, 35
1, 39365, Note_on_c, 0, 78, 60
1, 39383, Note_on_c, 9, 46, 0
1, 39385, Note_on_c, 0, 78, 0
1, 39429, Note_on_c, 0, 79, 66
1, 39477, Note_on_c, 0, 79, 0
1, 39481, Note_on_c, 9, 35, 36
1, 39493, Note_on_c, 0, 81, 63
1, 39509, Note_on_c, 0, 62, 0
1, 39513, Note_on_c, 9, 35, 0
1, 39525, Note_on_c, 0, 81, 0
1, 39537, Note_on_c, 0, 82, 57
1, 39539, Note_on_c, 9, 28, 34
1, 39543, Note_on_c, 9, 46, 54
1, 39553, Note_on_c, 0, 82, 0
1, 39553, Note_on_c, 9, 28, 0
1, 39557, Note_on_c, 0, 58, 0
1, 39581, Note_on_c, 0, 84, 66
1, 39609, Note_on_c, 9, 35, 47
1, 39625, Note_on_c, 0, 84, 0
1, 39625, Note_on_c, 9, 46, 0
1, 39629, Note_on_c, 0, 85, 48
1, 39635, Note_on_c, 9, 35, 0
1, 39657, Note_on_c, 0, 85, 0
1, 39669, Note_on_c, 0, 87, 49
1, 39689, Note_on_c, 1, 39, 59
1, 39705, Note_on_c, 0, 87, 0
1, 39717, Note_on_c, 0, 88, 59
1, 39745, Note_on_c, 0, 58, 20
1, 39761, Note_on_c, 0, 88, 0
1, 39785, Note_on_c, 0, 91, 82
1, 39793, Note_on_c, 1, 39, 0
1, 39795, Note_on_c, 9, 28, 46
1, 39809, Note_on_c, 1, 40, 60
1, 39831, Note_on_c, 9, 35, 42
1, 39837, Note_on_c, 0, 58, 0
1, 39841, Note_on_c, 0, 62, 1
1, 39845, Note_on_c, 0, 52, 0
1, 39845, Note_on_c, 0, 91, 0
1, 39865, Note_on_c, 1, 36, 0
1, 39873, Note_on_c, 9, 35, 0
1, 39877, Note_on_c, 0, 89, 73
1, 39897, Note_on_c, 0, 62, 0
1, 39905, Note_on_c, 1, 40, 0
1, 39923, Note_on_c, 9, 28, 49
1, 39933, Note_on_c, 0, 89, 0
1, 39937, Note_on_c, 9, 28, 0
1, 39937, Note_on_c, 1, 41, 71
1, 39961, Note_on_c, 0, 88, 63
1, 39977, Note_on_c, 0, 57, 35
1, 39981, Note_on_c, 0, 53, 23
1, 39981, Note_on_c, 0, 60, 40
1, 39985, Note_on_c, 0, 64, 25
1, 40017, Control_c, 0, 64, 127
1, 40021, Note_on_c, 0, 88, 0
1, 40053, Note_on_c, 0, 84, 56
1, 40129, Note_on_c, 0, 84, 0
1, 40153, Note_on_c, 0, 81, 50
1, 40205, Note_on_c, 0, 60, 0
1, 40213, Note_on_c, 0, 57, 0
1, 40229, Note_on_c, 0, 64, 0
1, 40229, Note_on_c, 0, 81, 0
1, 40265, Note_on_c, 0, 53, 0
1, 40307, Note_on_c, 9, 28, 43
1, 40311, Note_on_c, 9, 44, 96
1, 40321, Note_on_c, 9, 28, 0
1, 40321, Note_on_c, 9, 28, 0
1, 40333, Note_on_c, 0, 64, 77
1, 40333, Note_on_c, 0, 93, 89
1, 40333, Note_on_c, 0, 53, 63
1, 40333, Note_on_c, 0, 81, 87
1, 40333, Note_on_c, 0, 88, 87
1, 40341, Note_on_c, 0, 60, 72
1, 40341, Note_on_c, 0, 57, 72
1, 40433, Note_on_c, 9, 44, 0
1, 40477, Note_on_c, 0, 53, 0
1, 40493, Note_on_c, 0, 57, 0
1, 40493, Note_on_c, 0, 93, 0
1, 40493, Note_on_c, 0, 81, 0
1, 40493, Note_on_c, 0, 64, 0
1, 40497, Note_on_c, 0, 60, 0
1, 40505, Note_on_c, 0, 88, 0
1, 40585, Note_on_c, 0, 64, 68
1, 40585, Note_on_c, 0, 60, 56
1, 40589, Note_on_c, 0, 57, 66
1, 40589, Note_on_c, 0, 53, 57
1, 40593, Note_on_c, 0, 93, 75
1, 40593, Note_on_c, 0, 88, 84
1, 40597, Note_on_c, 0, 81, 83
1, 40609, Note_on_c, 0, 91, 39
1, 40641, Note_on_c, 0, 53, 0
1, 40641, Note_on_c, 0, 64, 0
1, 40645, Note_on_c, 0, 81, 0
1, 40649, Note_on_c, 0, 57, 0
1, 40653, Note_on_c, 0, 93, 0
1, 40657, Note_on_c, 0, 60, 0
1, 40673, Note_on_c, 0, 88, 0
1, 40673, Note_on_c, 0, 91, 0
1, 40691, Note_on_c, 9, 28, 37
1, 40705, Note_on_c, 9, 28, 0
1, 40705, Note_on_c, 1, 31, 94
1, 40713, Control_c, 0, 64, 0
1, 40713, Note_on_c, 9, 35, 33
1, 40717, Note_on_c, 1, 41, 0
1, 40725, Note_on_c, 0, 55, 81
1, 40725, Note_on_c, 0, 58, 75
1, 40725, Note_on_c, 0, 62, 81
1, 40725, Note_on_c, 0, 65, 85
1, 40737, Note_on_c, 0, 93, 96
1, 40737, Note_on_c, 0, 88, 89
1, 40737, Note_on_c, 0, 81, 96
1, 40745, Note_on_c, 9, 35, 0
1, 40813, Control_c, 0, 64, 127
1, 40905, Note_on_c, 0, 65, 0
1, 40909, Note_on_c, 0, 62, 0
1, 40929, Note_on_c, 9, 27, 70
1, 40933, Note_on_c, 0, 81, 0
1, 40933, Note_on_c, 0, 58, 0
1, 40937, Note_on_c, 0, 93, 0
1, 40937, Note_on_c, 0, 55, 0
1, 40967, Note_on_c, 9, 27, 0
1, 40993, Note_on_c, 0, 88, 0
1, 41075, Note_on_c, 9, 28, 40
1, 41079, Note_on_c, 9, 44, 87
1, 41089, Note_on_c, 9, 28, 0
1, 41109, Note_on_c, 0, 94, 99
1, 41109, Note_on_c, 0, 88, 115
1, 41109, Note_on_c, 0, 82, 111
1, 41109, Note_on_c, 0, 62, 89
1, 41109, Note_on_c, 0, 58, 76
1, 41109, Note_on_c, 0, 55, 89
1, 41109, Note_on_c, 0, 65, 102
1, 41117, Note_on_c, 0, 90, 68
1, 41137, Note_on_c, 0, 90, 0
1, 41217, Note_on_c, 9, 44, 0
1, 41233, Note_on_c, 0, 55, 0
1, 41241, Note_on_c, 0, 62, 0
1, 41241, Note_on_c, 0, 90, 11
1, 41249, Note_on_c, 0, 58, 0
1, 41269, Note_on_c, 0, 88, 0
1, 41269, Note_on_c, 0, 65, 0
1, 41269, Note_on_c, 0, 82, 0
1, 41277, Note_on_c, 0, 90, 0
1, 41289, Note_on_c, 0, 94, 0
1, 41457, Note_on_c, 1, 31, 0
1, 41457, Control_c, 0, 64, 0
1, 41459, Note_on_c, 9, 28, 43
1, 41469, Note_on_c, 1, 33, 98
1, 41473, Note_on_c, 9, 28, 0
1, 41481, Note_on_c, 0, 60, 79
1, 41481, Note_on_c, 0, 96, 122
1, 41481, Note_on_c, 0, 64, 82
1, 41481, Note_on_c, 0, 67, 99
1, 41481, Note_on_c, 0, 57, 81
1, 41481, Note_on_c, 0, 91, 115
1, 41481, Note_on_c, 0, 84, 115
1, 41561, Control_c, 0, 64, 127
1, 41603, Note_on_c, 9, 27, 63
1, 41629, Note_on_c, 9, 27, 0
1, 41637, Note_on_c, 0, 84, 0
1, 41641, Note_on_c, 0, 57, 0
1, 41645, Note_on_c, 0, 60, 0
1, 41649, Note_on_c, 0, 96, 0
1, 41653, Note_on_c, 0, 67, 0
1, 41661, Note_on_c, 0, 64, 0
1, 41665, Note_on_c, 0, 91, 0
1, 41729, Note_on_c, 0, 98, 111
1, 41729, Note_on_c, 9, 27, 66
1, 41733, Note_on_c, 0, 91, 94
1, 41733, Note_on_c, 0, 86, 87
1, 41737, Note_on_c, 0, 64, 82
1, 41737, Note_on_c, 0, 94, 76
1, 41737, Note_on_c, 0, 67, 92
1, 41737, Note_on_c, 0, 57, 81
1, 41741, Note_on_c, 0, 60, 76
1, 41763, Note_on_c, 9, 27, 0
1, 41817, Note_on_c, 0, 57, 0
1, 41821, Note_on_c, 0, 67, 0
1, 41829, Note_on_c, 0, 98, 0
1, 41829, Note_on_c, 0, 60, 0
1, 41837, Note_on_c, 0, 86, 0
1, 41837, Note_on_c, 0, 64, 0
1, 41843, Note_on_c, 9, 28, 39
1, 41847, Note_on_c, 9, 44, 96
1, 41853, Note_on_c, 0, 94, 0
1, 41853, Note_on_c, 0, 91, 0
1, 41857, Note_on_c, 9, 28, 0
1, 41873, Note_on_c, 0, 91, 56
1, 41877, Note_on_c, 0, 64, 73
1, 41877, Note_on_c, 0, 67, 77
1, 41877, Note_on_c, 0, 57, 68
1, 41877, Note_on_c, 0, 96, 71
1, 41877, Note_on_c, 0, 98, 70
1, 41877, Note_on_c, 0, 60, 63
1, 41877, Note_on_c, 0, 84, 65
1, 41893, Note_on_c, 0, 86, 51
1, 41897, Note_on_c, 0, 98, 0
1, 41913, Note_on_c, 0, 86, 0
1, 41937, Note_on_c, 9, 44, 0
1, 41989, Note_on_c, 0, 64, 0
1, 41993, Note_on_c, 0, 67, 0
1, 41997, Note_on_c, 0, 60, 0
1, 42025, Note_on_c, 0, 57, 0
1, 42041, Note_on_c, 0, 96, 0
1, 42041, Note_on_c, 0, 91, 0
1, 42061, Note_on_c, 0, 84, 0
1, 42097, Note_on_c, 1, 33, 0
1, 42103, Note_on_c, 9, 35, 35
1, 42105, Note_on_c, 1, 31, 70
1, 42135, Note_on_c, 9, 35, 0
1, 42149, Control_c, 0, 64, 0
1, 42161, Note_on_c, 1, 31, 0
1, 42227, Note_on_c, 9, 28, 37
1, 42241, Note_on_c, 9, 28, 0
1, 42241, Note_on_c, 1, 34, 90
1, 42261, Control_c, 0, 64, 127
1, 42329, Note_on_c, 1, 34, 0
1, 42449, Note_on_c, 0, 52, 47
1, 42477, Note_on_c, 0, 52, 0
1, 42481, Note_on_c, 0, 65, 49
1, 42481, Note_on_c, 0, 58, 52
1, 42481, Note_on_c, 0, 55, 54
1, 42485, Note_on_c, 0, 53, 57
1, 42485, Note_on_c, 1, 33, 88
1, 42489, Note_on_c, 0, 62, 54
1, 42557, Note_on_c, 0, 62, 0
1, 42557, Note_on_c, 0, 55, 0
1, 42573, Control_c, 0, 64, 0
1, 42585, Note_on_c, 1, 33, 0
1, 42593, Note_on_c, 0, 65, 0
1, 42601, Note_on_c, 0, 58, 0
1, 42611, Note_on_c, 9, 28, 42
1, 42613, Note_on_c, 0, 53, 0
1, 42613, Note_on_c, 1, 31, 85
1, 42615, Note_on_c, 9, 44, 96
1, 42625, Note_on_c, 9, 28, 0
1, 42629, Note_on_c, 0, 58, 29
1, 42633, Control_c, 0, 64, 127
1, 42637, Note_on_c, 0, 62, 31
1, 42637, Note_on_c, 0, 55, 45
1, 42641, Note_on_c, 0, 50, 41
1, 42727, Note_on_c, 9, 44, 0
1, 42761, Note_on_c, 0, 55, 0
1, 42765, Note_on_c, 0, 62, 0
1, 42777, Note_on_c, 0, 58, 0
1, 42845, Note_on_c, 0, 58, 69
1, 42853, Note_on_c, 0, 65, 57
1, 42853, Note_on_c, 0, 53, 50
1, 42857, Note_on_c, 0, 55, 64
1, 42881, Note_on_c, 9, 35, 35
1, 42885, Note_on_c, 0, 53, 0
1, 42897, Note_on_c, 0, 65, 0
1, 42913, Note_on_c, 9, 35, 0
1, 42913, Note_on_c, 0, 50, 0
1, 42925, Note_on_c, 0, 55, 0
1, 42937, Note_on_c, 0, 58, 0
1, 42961, Control_c, 0, 64, 0
1, 42965, Note_on_c, 1, 31, 0
1, 42989, Note_on_c, 1, 29, 83
1, 42995, Note_on_c, 9, 28, 35
1, 42997, Note_on_c, 0, 52, 48
1, 42997, Note_on_c, 0, 64, 47
1, 43005, Note_on_c, 0, 57, 39
1, 43009, Note_on_c, 9, 28, 0
1, 43009, Note_on_c, 0, 60, 32
1, 43013, Note_on_c, 0, 55, 31
1, 43041, Note_on_c, 0, 55, 0
1, 43073, Note_on_c, 0, 57, 0
1, 43073, Note_on_c, 0, 52, 0
1, 43081, Note_on_c, 0, 60, 0
1, 43085, Note_on_c, 0, 64, 0
1, 43237, Note_on_c, 0, 69, 56
1, 43241, Note_on_c, 0, 60, 40
1, 43245, Note_on_c, 0, 57, 55
1, 43245, Note_on_c, 0, 64, 51
1, 43265, Note_on_c, 0, 60, 0
1, 43269, Note_on_c, 0, 57, 0
1, 43273, Note_on_c, 0, 64, 0
1, 43293, Note_on_c, 0, 69, 0
1, 43379, Note_on_c, 9, 28, 41
1, 43381, Note_on_c, 0, 72, 66
1, 43383, Note_on_c, 9, 44, 89
1, 43385, Note_on_c, 0, 67, 48
1, 43385, Note_on_c, 0, 64, 46
1, 43393, Note_on_c, 9, 28, 0
1, 43401, Note_on_c, 0, 62, 30
1, 43413, Note_on_c, 0, 64, 0
1, 43417, Note_on_c, 0, 67, 0
1, 43429, Note_on_c, 0, 62, 0
1, 43433, Note_on_c, 0, 72, 0
1, 43497, Note_on_c, 0, 72, 63
1, 43509, Note_on_c, 0, 60, 61
1, 43509, Note_on_c, 0, 64, 50
1, 43511, Note_on_c, 9, 44, 0
1, 43525, Note_on_c, 0, 72, 0
1, 43537, Note_on_c, 0, 60, 0
1, 43553, Note_on_c, 0, 64, 0
1, 43623, Note_on_c, 9, 35, 42
1, 43629, Note_on_c, 0, 60, 46
1, 43633, Note_on_c, 0, 65, 43
1, 43637, Note_on_c, 0, 62, 54
1, 43649, Note_on_c, 9, 35, 0
1, 43685, Note_on_c, 0, 60, 0
1, 43689, Note_on_c, 0, 62, 0
1, 43705, Note_on_c, 0, 65, 0
1, 43761, Note_on_c, 0, 69, 75
1, 43763, Note_on_c, 9, 28, 42
1, 43777, Note_on_c, 9, 28, 0
1, 43777, Note_on_c, 0, 53, 37
1, 43789, Note_on_c, 0, 62, 39
1, 43801, Note_on_c, 0, 53, 0
1, 43837, Note_on_c, 0, 62, 0
1, 43841, Note_on_c, 0, 69, 0
1, 43885, Note_on_c, 0, 69, 66
1, 43885, Note_on_c, 1, 46, 57
1, 43897, Note_on_c, 0, 62, 44
1, 43909, Note_on_c, 0, 57, 31
1, 43933, Note_on_c, 0, 57, 0
1, 43945, Note_on_c, 0, 69, 0
1, 43945, Note_on_c, 0, 62, 0
1, 44009, Note_on_c, 1, 34, 73
1, 44013, Note_on_c, 0, 58, 54
1, 44017, Note_on_c, 1, 29, 0
1, 44017, Note_on_c, 0, 62, 53
1, 44021, Note_on_c, 0, 46, 48
1, 44033, Note_on_c, 1, 46, 0
1, 44057, Note_on_c, 0, 46, 0
1, 44069, Note_on_c, 0, 58, 0
1, 44085, Note_on_c, 0, 62, 0
1, 44137, Note_on_c, 0, 65, 63
1, 44141, Note_on_c, 0, 62, 51
1, 44141, Note_on_c, 1, 44, 67
1, 44145, Note_on_c, 1, 34, 0
1, 44147, Note_on_c, 9, 28, 42
1, 44151, Note_on_c, 9, 44, 87
1, 44161, Note_on_c, 9, 28, 0
1, 44173, Note_on_c, 0, 62, 0
1, 44193, Note_on_c, 0, 65, 0
1, 44205, Control_c, 0, 64, 127
1, 44257, Note_on_c, 0, 62, 67
1, 44261, Note_on_c, 0, 65, 41
1, 44289, Note_on_c, 9, 44, 0
1, 44293, Note_on_c, 0, 65, 0
1, 44293, Note_on_c, 0, 56, 43
1, 44305, Note_on_c, 0, 62, 0
1, 44317, Note_on_c, 0, 56, 0
1, 44389, Note_on_c, 0, 46, 39
1, 44397, Note_on_c, 1, 44, 0
1, 44397, Note_on_c, 1, 45, 82
1, 44401, Note_on_c, 0, 60, 45
1, 44401, Note_on_c, 0, 56, 25
1, 44401, Note_on_c, 0, 57, 48
1, 44401, Note_on_c, 9, 28, 43
1, 44437, Control_c, 0, 64, 0
1, 44461, Note_on_c, 0, 56, 0
1, 44477, Note_on_c, 0, 57, 0
1, 44489, Note_on_c, 0, 46, 0
1, 44493, Note_on_c, 0, 60, 0
1, 44531, Note_on_c, 9, 28, 27
1, 44533, Note_on_c, 0, 55, 52
1, 44533, Note_on_c, 0, 45, 44
1, 44545, Note_on_c, 9, 28, 0
1, 44557, Note_on_c, 0, 55, 0
1, 44557, Note_on_c, 0, 45, 0
1, 44557, Control_c, 0, 64, 127
1, 44569, Note_on_c, 9, 35, 22
1, 44589, Note_on_c, 9, 35, 0
1, 44653, Note_on_c, 1, 40, 57
1, 44657, Note_on_c, 1, 45, 0
1, 44657, Note_on_c, 0, 60, 54
1, 44673, Note_on_c, 0, 62, 53
1, 44689, Note_on_c, 0, 62, 0
1, 44693, Note_on_c, 0, 60, 0
1, 44729, Note_on_c, 1, 40, 0
1, 44765, Note_on_c, 0, 65, 68
1, 44773, Note_on_c, 1, 36, 64
1, 44789, Note_on_c, 0, 60, 45
1, 44813, Note_on_c, 0, 60, 0
1, 44817, Control_c, 0, 64, 0
1, 44865, Note_on_c, 0, 65, 0
1, 44865, Control_c, 0, 64, 127
1, 44889, Note_on_c, 0, 65, 29
1, 44893, Note_on_c, 0, 69, 78
1, 44897, Note_on_c, 1, 36, 0
1, 44901, Note_on_c, 0, 55, 57
1, 44901, Note_on_c, 0, 61, 55
1, 44905, Note_on_c, 0, 60, 42
1, 44913, Note_on_c, 0, 58, 46
1, 44913, Note_on_c, 1, 37, 68
1, 44915, Note_on_c, 9, 28, 41
1, 44919, Note_on_c, 9, 44, 87
1, 44929, Note_on_c, 9, 28, 0
1, 44929, Note_on_c, 9, 28, 0
1, 44941, Note_on_c, 0, 65, 0
1, 44957, Note_on_c, 0, 55, 0
1, 44969, Note_on_c, 0, 60, 0
1, 44977, Note_on_c, 0, 58, 0
1, 44981, Note_on_c, 0, 61, 0
1, 45005, Note_on_c, 0, 69, 0
1, 45013, Note_on_c, 0, 72, 81
1, 45013, Note_on_c, 0, 65, 66
1, 45017, Note_on_c, 0, 61, 51
1, 45025, Note_on_c, 0, 60, 52
1, 45033, Note_on_c, 0, 55, 36
1, 45037, Note_on_c, 0, 58, 36
1, 45057, Note_on_c, 0, 55, 0
1, 45063, Note_on_c, 9, 44, 0
1, 45069, Note_on_c, 0, 65, 0
1, 45073, Note_on_c, 0, 72, 0
1, 45077, Note_on_c, 0, 58, 0
1, 45101, Note_on_c, 0, 61, 0
1, 45101, Note_on_c, 0, 60, 0
1, 45141, Note_on_c, 0, 61, 67
1, 45145, Note_on_c, 0, 77, 120
1, 45145, Note_on_c, 0, 60, 72
1, 45145, Note_on_c, 0, 65, 82
1, 45149, Note_on_c, 0, 55, 68
1, 45153, Note_on_c, 0, 58, 50
1, 45209, Note_on_c, 0, 55, 0
1, 45209, Note_on_c, 0, 65, 0
1, 45225, Note_on_c, 0, 58, 0
1, 45225, Note_on_c, 0, 60, 0
1, 45233, Note_on_c, 0, 61, 0
1, 45237, Note_on_c, 0, 77, 0
1, 45265, Note_on_c, 0, 61, 81
1, 45273, Note_on_c, 0, 81, 111
1, 45273, Note_on_c, 0, 65, 81
1, 45281, Note_on_c, 1, 37, 0
1, 45289, Note_on_c, 0, 60, 28
1, 45297, Note_on_c, 1, 38, 72
1, 45299, Note_on_c, 9, 28, 45
1, 45313, Note_on_c, 0, 60, 0
1, 45313, Note_on_c, 9, 28, 0
1, 45321, Note_on_c, 0, 65, 0
1, 45345, Note_on_c, 0, 61, 0
1, 45365, Note_on_c, 0, 81, 0
1, 45389, Note_on_c, 0, 84, 88
1, 45393, Note_on_c, 0, 61, 66
1, 45393, Note_on_c, 0, 72, 84
1, 45393, Note_on_c, 0, 65, 83
1, 45405, Note_on_c, 0, 55, 49
1, 45425, Note_on_c, 0, 55, 0
1, 45437, Note_on_c, 0, 65, 0
1, 45457, Note_on_c, 0, 72, 0
1, 45457, Note_on_c, 0, 83, 12
1, 45465, Note_on_c, 0, 84, 0
1, 45469, Note_on_c, 0, 61, 0
1, 45481, Note_on_c, 0, 83, 0
1, 45509, Control_c, 0, 64, 0
1, 45517, Note_on_c, 0, 54, 83
1, 45517, Note_on_c, 0, 65, 89
1, 45521, Note_on_c, 0, 60, 76
1, 45521, Note_on_c, 0, 85, 84
1, 45521, Note_on_c, 0, 73, 81
1, 45521, Note_on_c, 0, 79, 71
1, 45541, Note_on_c, 0, 82, 45
1, 45565, Note_on_c, 0, 82, 0
1, 45577, Note_on_c, 9, 35, 36
1, 45601, Note_on_c, 0, 65, 0
1, 45605, Note_on_c, 0, 73, 0
1, 45609, Control_c, 0, 64, 127
1, 45613, Note_on_c, 0, 60, 0
1, 45613, Note_on_c, 0, 79, 0
1, 45613, Note_on_c, 0, 54, 0
1, 45619, Note_on_c, 9, 35, 0
1, 45625, Note_on_c, 0, 85, 0
1, 45645, Note_on_c, 0, 54, 67
1, 45653, Note_on_c, 0, 65, 46
1, 45661, Note_on_c, 0, 82, 36
1, 45661, Note_on_c, 0, 74, 61
1, 45661, Note_on_c, 0, 86, 51
1, 45661, Note_on_c, 0, 60, 57
1, 45661, Note_on_c, 0, 79, 48
1, 45683, Note_on_c, 9, 28, 39
1, 45687, Note_on_c, 9, 44, 84
1, 45689, Note_on_c, 0, 86, 0
1, 45689, Note_on_c, 1, 50, 75
1, 45693, Note_on_c, 0, 74, 0
1, 45697, Note_on_c, 9, 28, 0
1, 45701, Note_on_c, 0, 65, 0
1, 45713, Note_on_c, 0, 79, 0
1, 45717, Note_on_c, 0, 54, 0
1, 45721, Note_on_c, 0, 60, 0
1, 45729, Note_on_c, 0, 82, 0
1, 45729, Note_on_c, 9, 35, 49
1, 45741, Control_c, 0, 64, 0
1, 45773, Note_on_c, 0, 54, 53
1, 45781, Note_on_c, 0, 65, 55
1, 45781, Note_on_c, 0, 87, 67
1, 45785, Note_on_c, 0, 60, 56
1, 45793, Note_on_c, 0, 75, 45
1, 45821, Note_on_c, 0, 75, 0
1, 45825, Note_on_c, 9, 44, 0
1, 45829, Control_c, 0, 64, 127
1, 45833, Note_on_c, 0, 65, 0
1, 45837, Note_on_c, 0, 54, 0
1, 45841, Note_on_c, 0, 87, 0
1, 45849, Note_on_c, 9, 35, 0
1, 45861, Note_on_c, 0, 60, 0
1, 45909, Note_on_c, 0, 54, 53
1, 45917, Note_on_c, 0, 76, 58
1, 45925, Note_on_c, 0, 88, 51
1, 45925, Note_on_c, 0, 60, 28
1, 45925, Note_on_c, 0, 65, 31
1, 45933, Note_on_c, 1, 38, 0
1, 45937, Note_on_c, 1, 37, 54
1, 45953, Note_on_c, 0, 65, 0
1, 45957, Note_on_c, 0, 60, 0
1, 45961, Note_on_c, 0, 58, 20
1, 45961, Note_on_c, 9, 35, 57
1, 45969, Note_on_c, 0, 76, 0
1, 45973, Note_on_c, 0, 88, 0
1, 45993, Note_on_c, 1, 37, 0
1, 46001, Note_on_c, 0, 54, 0
1, 46005, Note_on_c, 0, 58, 0
1, 46013, Note_on_c, 9, 35, 0
1, 46041, Control_c, 0, 64, 0
1, 46061, Note_on_c, 1, 50, 0
1, 46061, Note_on_c, 0, 77, 43
1, 46067, Note_on_c, 0, 89, 39
1, 46067, Note_on_c, 9, 28, 50
1, 46069, Note_on_c, 1, 43, 68
1, 46077, Note_on_c, 0, 58, 41
1, 46077, Note_on_c, 0, 62, 21
1, 46081, Note_on_c, 9, 28, 0
1, 46097, Note_on_c, 0, 53, 22
1, 46113, Note_on_c, 0, 77, 0
1, 46121, Control_c, 0, 64, 127
1, 46141, Note_on_c, 0, 58, 0
1, 46145, Note_on_c, 0, 89, 0
1, 46149, Note_on_c, 0, 62, 0
1, 46165, Note_on_c, 0, 77, 53
1, 46201, Note_on_c, 0, 53, 0
1, 46213, Note_on_c, 0, 77, 0
1, 46213, Note_on_c, 0, 58, 26
1, 46213, Note_on_c, 0, 62, 41
1, 46221, Note_on_c, 0, 89, 37
1, 46249, Note_on_c, 0, 58, 0
1, 46261, Note_on_c, 0, 89, 0
1, 46269, Note_on_c, 0, 77, 48
1, 46273, Note_on_c, 0, 62, 0
1, 46297, Note_on_c, 0, 57, 41
1, 46321, Note_on_c, 0, 77, 0
1, 46329, Note_on_c, 0, 57, 0
1, 46333, Note_on_c, 0, 89, 44
1, 46341, Note_on_c, 0, 62, 38
1, 46369, Note_on_c, 0, 89, 0
1, 46385, Note_on_c, 0, 77, 48
1, 46397, Note_on_c, 0, 62, 0
1, 46405, Note_on_c, 0, 57, 45
1, 46429, Note_on_c, 0, 77, 0
1, 46441, Note_on_c, 0, 57, 0
1, 46441, Note_on_c, 0, 58, 40
1, 46445, Note_on_c, 0, 89, 54
1, 46451, Note_on_c, 9, 28, 38
1, 46453, Note_on_c, 0, 62, 43
1, 46455, Note_on_c, 9, 44, 85
1, 46465, Note_on_c, 9, 28, 0
1, 46469, Note_on_c, 0, 58, 0
1, 46477, Note_on_c, 0, 89, 0
1, 46485, Note_on_c, 0, 77, 54
1, 46509, Note_on_c, 0, 62, 0
1, 46521, Note_on_c, 0, 57, 52
1, 46529, Note_on_c, 0, 77, 0
1, 46541, Note_on_c, 0, 57, 0
1, 46545, Note_on_c, 0, 89, 54
1, 46551, Note_on_c, 9, 44, 0
1, 46557, Note_on_c, 0, 58, 35
1, 46569, Note_on_c, 0, 62, 41
1, 46577, Note_on_c, 0, 89, 0
1, 46581, Note_on_c, 0, 77, 50
1, 46585, Note_on_c, 0, 58, 0
1, 46625, Note_on_c, 0, 62, 0
1, 46633, Note_on_c, 0, 77, 0
1, 46633, Note_on_c, 0, 57, 52
1, 46653, Note_on_c, 0, 89, 56
1, 46657, Note_on_c, 0, 57, 0
1, 46665, Note_on_c, 0, 58, 46
1, 46697, Note_on_c, 0, 62, 40
1, 46701, Note_on_c, 0, 58, 0
1, 46705, Note_on_c, 0, 89, 0
1, 46705, Note_on_c, 0, 77, 40
1, 46707, Note_on_c, 9, 28, 41
1, 46745, Note_on_c, 0, 57, 54
1, 46749, Note_on_c, 0, 62, 0
1, 46769, Note_on_c, 0, 77, 0
1, 46785, Note_on_c, 0, 58, 56
1, 46809, Note_on_c, 0, 57, 0
1, 46821, Note_on_c, 1, 43, 0
1, 46833, Note_on_c, 0, 58, 0
1, 46833, Note_on_c, 0, 62, 50
1, 46833, Note_on_c, 1, 38, 67
1, 46835, Note_on_c, 9, 28, 48
1, 46849, Note_on_c, 9, 28, 0
1, 46853, Note_on_c, 0, 74, 59
1, 46857, Control_c, 0, 64, 0
1, 46869, Note_on_c, 0, 57, 51
1, 46881, Note_on_c, 0, 62, 0
1, 46893, Note_on_c, 0, 74, 0
1, 46893, Control_c, 0, 64, 127
1, 46909, Note_on_c, 0, 58, 45
1, 46933, Note_on_c, 0, 57, 0
1, 46949, Note_on_c, 0, 74, 58
1, 46953, Note_on_c, 0, 62, 41
1, 46965, Note_on_c, 0, 58, 0
1, 47001, Note_on_c, 0, 74, 0
1, 47009, Note_on_c, 0, 62, 0
1, 47013, Note_on_c, 0, 57, 46
1, 47013, Note_on_c, 0, 86, 45
1, 47049, Note_on_c, 0, 58, 36
1, 47057, Note_on_c, 0, 57, 0
1, 47057, Note_on_c, 0, 74, 47
1, 47061, Note_on_c, 0, 86, 0
1, 47085, Note_on_c, 0, 58, 0
1, 47101, Note_on_c, 0, 74, 0
1, 47219, Note_on_c, 9, 28, 52
1, 47223, Note_on_c, 9, 44, 82
1, 47225, Note_on_c, 0, 58, 54
1, 47229, Note_on_c, 0, 62, 45
1, 47233, Note_on_c, 9, 28, 0
1, 47233, Note_on_c, 9, 28, 0
1, 47241, Note_on_c, 0, 57, 37
1, 47351, Note_on_c, 9, 44, 0
1, 47385, Note_on_c, 0, 62, 0
1, 47409, Note_on_c, 0, 58, 0
1, 47433, Note_on_c, 0, 57, 0
1, 47473, Note_on_c, 1, 37, 73
1, 47489, Note_on_c, 1, 38, 0
1, 47489, Note_on_c, 0, 58, 41
1, 47491, Note_on_c, 9, 35, 59
1, 47559, Note_on_c, 9, 35, 0
1, 47597, Note_on_c, 0, 58, 0
1, 47603, Note_on_c, 9, 28, 48
1, 47609, Note_on_c, 1, 36, 68
1, 47613, Note_on_c, 1, 37, 0
1, 47617, Note_on_c, 9, 28, 0
1, 47621, Control_c, 0, 64, 0
1, 47625, Note_on_c, 0, 72, 60
1, 47629, Note_on_c, 0, 64, 59
1, 47637, Note_on_c, 0, 61, 47
1, 47637, Note_on_c, 0, 60, 49
1, 47733, Control_c, 0, 64, 127
1, 47869, Note_on_c, 0, 64, 0
1, 47881, Note_on_c, 0, 61, 0
1, 47889, Note_on_c, 0, 72, 0
1, 47987, Note_on_c, 9, 28, 47
1, 47989, Control_c, 0, 64, 0
1, 47991, Note_on_c, 9, 44, 70
1, 47993, Note_on_c, 0, 60, 0
1, 48001, Note_on_c, 9, 28, 0
1, 48009, Note_on_c, 0, 61, 60
1, 48013, Note_on_c, 0, 70, 61
1, 48013, Note_on_c, 0, 58, 55
1, 48029, Note_on_c, 0, 64, 43
1, 48049, Note_on_c, 9, 44, 0
1, 48073, Control_c, 0, 64, 127
1, 48201, Note_on_c, 0, 64, 0
1, 48205, Note_on_c, 0, 61, 0
1, 48225, Note_on_c, 0, 70, 0
1, 48329, Note_on_c, 0, 58, 0
1, 48357, Note_on_c, 0, 56, 48
1, 48371, Note_on_c, 9, 28, 40
1, 48385, Note_on_c, 9, 28, 0
1, 48409, Control_c, 0, 64, 0
1, 48413, Note_on_c, 0, 70, 85
1, 48421, Note_on_c, 0, 56, 0
1, 48421, Note_on_c, 0, 58, 46
1, 48425, Note_on_c, 0, 59, 59
1, 48445, Note_on_c, 0, 58, 0
1, 48489, Note_on_c, 0, 70, 0
1, 48493, Note_on_c, 0, 71, 55
1, 48537, Note_on_c, 0, 70, 49
1, 48545, Note_on_c, 0, 71, 0
1, 48581, Note_on_c, 0, 59, 0
1, 48589, Note_on_c, 0, 68, 35
1, 48617, Note_on_c, 0, 70, 0
1, 48633, Note_on_c, 0, 56, 39
1, 48645, Control_c, 0, 64, 127
1, 48677, Note_on_c, 0, 65, 33
1, 48685, Note_on_c, 0, 56, 0
1, 48685, Note_on_c, 0, 68, 0
1, 48705, Note_on_c, 0, 65, 0
1, 48705, Control_c, 0, 64, 0
1, 48729, Note_on_c, 0, 58, 60
1, 48737, Note_on_c, 0, 70, 84
1, 48755, Note_on_c, 9, 28, 37
1, 48759, Note_on_c, 9, 44, 66
1, 48769, Note_on_c, 9, 28, 0
1, 48785, Note_on_c, 9, 35, 31
1, 48817, Note_on_c, 0, 70, 0
1, 48817, Note_on_c, 0, 58, 0
1, 48823, Note_on_c, 9, 35, 0
1, 48849, Note_on_c, 0, 56, 54
1, 48849, Note_on_c, 0, 68, 68
1, 48865, Note_on_c, 9, 44, 0
1, 48869, Note_on_c, 0, 70, 39
1, 48897, Note_on_c, 0, 70, 0
1, 48917, Note_on_c, 0, 68, 0
1, 48929, Note_on_c, 0, 56, 0
1, 48949, Note_on_c, 1, 36, 0
1, 48953, Note_on_c, 0, 65, 61
1, 48973, Note_on_c, 0, 53, 37
1, 49001, Note_on_c, 0, 53, 0
1, 49009, Note_on_c, 0, 65, 0
1, 49011, Note_on_c, 9, 28, 42
1, 49013, Note_on_c, 1, 36, 84
1, 49033, Note_on_c, 9, 35, 52
1, 49057, Note_on_c, 0, 60, 63
1, 49059, Note_on_c, 9, 35, 0
1, 49113, Note_on_c, 0, 60, 0
1, 49139, Note_on_c, 9, 28, 40
1, 49145, Note_on_c, 0, 58, 52
1, 49153, Note_on_c, 9, 28, 0
1, 49157, Note_on_c, 0, 65, 38
1, 49185, Note_on_c, 0, 58, 0
1, 49193, Note_on_c, 0, 59, 46
1, 49229, Note_on_c, 0, 48, 39
1, 49249, Note_on_c, 0, 65, 0
1, 49265, Note_on_c, 0, 59, 0
1, 49309, Note_on_c, 0, 53, 50
1, 49333, Note_on_c, 0, 53, 0
1, 49373, Note_on_c, 0, 58, 64
1, 49377, Note_on_c, 0, 62, 59
1, 49417, Note_on_c, 1, 48, 98
1, 49465, Note_on_c, 0, 62, 0
1, 49465, Note_on_c, 0, 58, 0
1, 49465, Note_on_c, 0, 53, 56
1, 49485, Note_on_c, 0, 53, 0
1, 49523, Note_on_c, 9, 28, 35
1, 49527, Note_on_c, 9, 44, 80
1, 49533, Note_on_c, 0, 56, 64
1, 49537, Note_on_c, 9, 28, 0
1, 49537, Note_on_c, 9, 28, 0
1, 49541, Note_on_c, 0, 60, 54
1, 49601, Note_on_c, 0, 56, 0
1, 49613, Note_on_c, 0, 57, 49
1, 49645, Note_on_c, 9, 44, 0
1, 49669, Note_on_c, 0, 57, 0
1, 49677, Note_on_c, 0, 60, 0
1, 49681, Note_on_c, 0, 53, 64
1, 49749, Note_on_c, 0, 53, 0
1, 49795, Note_on_c, 9, 35, 33
1, 49797, Note_on_c, 0, 53, 68
1, 49827, Note_on_c, 9, 35, 0
1, 49877, Note_on_c, 1, 48, 0
1, 49885, Note_on_c, 0, 53, 0
1, 49907, Note_on_c, 9, 28, 35
1, 49921, Note_on_c, 9, 28, 0
1, 49929, Note_on_c, 0, 53, 74
1, 49953, Note_on_c, 1, 48, 75
1, 50013, Control_c, 0, 64, 127
1, 50133, Note_on_c, 0, 53, 0
1, 50161, Note_on_c, 9, 37, 35
1, 50183, Note_on_c, 9, 37, 0
1, 50193, Note_on_c, 0, 65, 83
1, 50291, Note_on_c, 9, 28, 41
1, 50295, Note_on_c, 9, 44, 78
1, 50305, Note_on_c, 9, 28, 0
1, 50337, Note_on_c, 0, 48, 0
1, 50407, Note_on_c, 9, 44, 0
1, 50577, Note_on_c, 1, 48, 0
1, 50577, Note_on_c, 0, 57, 84
1, 50577, Note_on_c, 1, 46, 66
1, 50581, Note_on_c, 0, 65, 0
1, 50625, Note_on_c, 1, 46, 0
1, 50675, Note_on_c, 9, 28, 41
1, 50689, Note_on_c, 9, 28, 0
1, 50689, Control_c, 0, 64, 0
1, 50697, Note_on_c, 0, 57, 0
1, 50705, Note_on_c, 1, 48, 74
1, 50733, Note_on_c, 0, 58, 59
1, 50749, Note_on_c, 1, 36, 0
1, 50789, Note_on_c, 0, 58, 0
1, 50845, Note_on_c, 0, 62, 66
1, 50913, Note_on_c, 0, 62, 0
1, 50945, Note_on_c, 1, 36, 107
1, 50949, Note_on_c, 1, 48, 0
1, 50961, Note_on_c, 9, 35, 29
1, 50969, Note_on_c, 0, 65, 75
1, 50981, Note_on_c, 0, 62, 43
1, 50985, Note_on_c, 9, 35, 0
1, 50989, Note_on_c, 0, 57, 37
1, 50989, Note_on_c, 0, 58, 42
1, 51059, Note_on_c, 9, 28, 41
1, 51063, Note_on_c, 9, 44, 85
1, 51073, Note_on_c, 9, 28, 0
1, 51077, Note_on_c, 0, 65, 0
1, 51109, Note_on_c, 0, 58, 0
1, 51109, Note_on_c, 0, 69, 60
1, 51117, Control_c, 0, 64, 127
1, 51137, Note_on_c, 0, 62, 0
1, 51169, Note_on_c, 0, 57, 0
1, 51189, Note_on_c, 0, 69, 0
1, 51191, Note_on_c, 9, 44, 0
1, 51249, Note_on_c, 0, 70, 39
1, 51249, Note_on_c, 0, 58, 39
1, 51273, Note_on_c, 0, 70, 0
1, 51277, Note_on_c, 0, 58, 0
1, 51315, Note_on_c, 9, 28, 40
1, 51361, Note_on_c, 0, 62, 51
1, 51361, Note_on_c, 0, 58, 48
1, 51361, Note_on_c, 0, 72, 76
1, 51361, Note_on_c, 0, 57, 43
1, 51365, Note_on_c, 0, 84, 68
1, 51365, Note_on_c, 0, 83, 60
1, 51385, Note_on_c, 0, 83, 0
1, 51393, Note_on_c, 0, 57, 0
1, 51393, Note_on_c, 0, 62, 0
1, 51405, Note_on_c, 0, 84, 0
1, 51409, Note_on_c, 0, 72, 0
1, 51425, Note_on_c, 0, 58, 0
1, 51441, Note_on_c, 9, 28, 36
1, 51447, Note_on_c, 9, 29, 64
1, 51453, Control_c, 0, 64, 0
1, 51453, Note_on_c, 1, 31, 77
1, 51457, Note_on_c, 9, 28, 0
1, 51481, Note_on_c, 1, 36, 0
1, 51485, Note_on_c, 0, 62, 52
1, 51493, Note_on_c, 0, 58, 45
1, 51493, Note_on_c, 0, 52, 49
1, 51501, Note_on_c, 0, 73, 48
1, 51501, Note_on_c, 0, 85, 52
1, 51545, Note_on_c, 0, 52, 0
1, 51553, Note_on_c, 0, 73, 0
1, 51553, Note_on_c, 0, 62, 0
1, 51557, Note_on_c, 0, 85, 0
1, 51565, Control_c, 0, 64, 127
1, 51577, Note_on_c, 0, 58, 0
1, 51601, Note_on_c, 0, 74, 75
1, 51605, Note_on_c, 0, 86, 65
1, 51617, Note_on_c, 0, 62, 52
1, 51625, Note_on_c, 0, 58, 57
1, 51633, Note_on_c, 0, 52, 35
1, 51649, Note_on_c, 0, 86, 0
1, 51653, Note_on_c, 0, 52, 0
1, 51661, Note_on_c, 0, 74, 0
1, 51669, Note_on_c, 0, 62, 0
1, 51681, Note_on_c, 0, 58, 0
1, 51733, Note_on_c, 0, 62, 85
1, 51737, Note_on_c, 0, 87, 86
1, 51737, Note_on_c, 0, 52, 79
1, 51737, Note_on_c, 0, 58, 73
1, 51737, Note_on_c, 0, 75, 85
1, 51745, Note_on_c, 0, 81, 74
1, 51765, Note_on_c, 0, 85, 39
1, 51801, Note_on_c, 0, 52, 0
1, 51805, Note_on_c, 1, 31, 0
1, 51817, Note_on_c, 0, 75, 0
1, 51817, Note_on_c, 0, 62, 0
1, 51825, Note_on_c, 0, 58, 0
1, 51825, Note_on_c, 0, 81, 0
1, 51825, Note_on_c, 0, 87, 0
1, 51827, Note_on_c, 9, 28, 48
1, 51829, Note_on_c, 1, 30, 76
1, 51831, Note_on_c, 9, 44, 85
1, 51833, Note_on_c, 0, 85, 0
1, 51841, Note_on_c, 9, 28, 0
1, 51841, Note_on_c, 9, 28, 0
1, 51861, Note_on_c, 0, 62, 81
1, 51865, Note_on_c, 0, 88, 74
1, 51865, Note_on_c, 0, 58, 71
1, 51865, Note_on_c, 0, 52, 68
1, 51865, Note_on_c, 0, 81, 78
1, 51865, Note_on_c, 0, 76, 82
1, 51881, Note_on_c, 0, 86, 54
1, 51893, Note_on_c, 0, 84, 39
1, 51905, Note_on_c, 0, 86, 0
1, 51909, Note_on_c, 0, 76, 0
1, 51917, Note_on_c, 0, 81, 0
1, 51917, Note_on_c, 0, 52, 0
1, 51917, Note_on_c, 0, 84, 0
1, 51925, Note_on_c, 0, 62, 0
1, 51933, Note_on_c, 0, 88, 0
1, 51933, Note_on_c, 0, 58, 0
1, 51959, Note_on_c, 9, 44, 0
1, 51989, Note_on_c, 0, 62, 102
1, 51989, Note_on_c, 0, 58, 82
1, 51989, Note_on_c, 0, 91, 122
1, 51989, Note_on_c, 0, 79, 111
1, 51989, Note_on_c, 0, 52, 89
1, 51997, Note_on_c, 0, 86, 85
1, 52053, Note_on_c, 0, 79, 0
1, 52053, Note_on_c, 0, 62, 0
1, 52061, Note_on_c, 0, 52, 0
1, 52069, Note_on_c, 0, 91, 0
1, 52073, Note_on_c, 0, 86, 0
1, 52073, Note_on_c, 0, 58, 0
1, 52109, Note_on_c, 0, 52, 67
1, 52113, Note_on_c, 0, 58, 82
1, 52113, Note_on_c, 0, 62, 82
1, 52153, Note_on_c, 0, 52, 0
1, 52173, Note_on_c, 0, 62, 0
1, 52185, Note_on_c, 0, 58, 0
1, 52197, Note_on_c, 1, 30, 0
1, 52201, Note_on_c, 1, 29, 72
1, 52211, Note_on_c, 9, 51, 127
1, 52215, Note_on_c, 9, 29, 0
1, 52217, Note_on_c, 9, 57, 19
1, 52221, Control_c, 0, 64, 0
1, 52225, Note_on_c, 9, 28, 0
1, 52241, Note_on_c, 0, 60, 92
1, 52241, Note_on_c, 0, 64, 115
1, 52241, Note_on_c, 0, 53, 90
1, 52241, Note_on_c, 0, 93, 115
1, 52241, Note_on_c, 0, 88, 111
1, 52241, Note_on_c, 0, 81, 117
1, 52241, Note_on_c, 0, 57, 76
1, 52265, Note_on_c, 0, 91, 45
1, 52285, Note_on_c, 0, 91, 0
1, 52289, Note_on_c, 9, 51, 0
1, 52305, Control_c, 0, 64, 127
1, 52305, Note_on_c, 9, 35, 40
1, 52329, Note_on_c, 9, 35, 0
1, 52393, Note_on_c, 0, 81, 0
1, 52413, Note_on_c, 0, 53, 0
1, 52417, Note_on_c, 0, 57, 0
1, 52417, Note_on_c, 0, 64, 0
1, 52417, Note_on_c, 0, 60, 0
1, 52421, Note_on_c, 0, 93, 0
1, 52421, Note_on_c, 0, 88, 0
1, 52517, Note_on_c, 0, 96, 117
1, 52521, Note_on_c, 0, 91, 120
1, 52521, Note_on_c, 0, 53, 85
1, 52521, Note_on_c, 0, 64, 107
1, 52521, Note_on_c, 0, 60, 82
1, 52521, Note_on_c, 0, 84, 99
1, 52521, Note_on_c, 0, 57, 75
1, 52561, Note_on_c, 1, 29, 0
1, 52589, Note_on_c, 1, 29, 89
1, 52595, Note_on_c, 9, 51, 64
1, 52599, Note_on_c, 9, 44, 91
1, 52601, Note_on_c, 0, 91, 0
1, 52601, Note_on_c, 0, 96, 0
1, 52613, Note_on_c, 0, 53, 0
1, 52613, Note_on_c, 0, 64, 0
1, 52617, Note_on_c, 0, 84, 0
1, 52629, Note_on_c, 0, 57, 0
1, 52637, Note_on_c, 0, 60, 0
1, 52653, Control_c, 0, 64, 72
1, 52657, Control_c, 0, 64, 0
1, 52665, Note_on_c, 0, 93, 83
1, 52669, Note_on_c, 0, 88, 81
1, 52673, Note_on_c, 0, 60, 68
1, 52673, Note_on_c, 0, 53, 63
1, 52673, Note_on_c, 0, 64, 71
1, 52673, Note_on_c, 0, 57, 59
1, 52673, Note_on_c, 0, 81, 61
1, 52701, Control_c, 0, 64, 127
1, 52737, Note_on_c, 9, 44, 0
1, 52745, Note_on_c, 0, 93, 0
1, 52749, Note_on_c, 0, 88, 0
1, 52761, Note_on_c, 0, 53, 0
1, 52761, Note_on_c, 0, 81, 0
1, 52765, Note_on_c, 0, 64, 0
1, 52777, Note_on_c, 0, 57, 0
1, 52793, Note_on_c, 0, 60, 0
1, 52885, Note_on_c, 0, 60, 52
1, 52885, Note_on_c, 0, 64, 63
1, 52889, Note_on_c, 0, 53, 52
1, 52901, Note_on_c, 0, 89, 44
1, 52901, Note_on_c, 0, 88, 45
1, 52901, Note_on_c, 0, 57, 47
1, 52905, Note_on_c, 0, 77, 55
1, 52921, Note_on_c, 0, 89, 0
1, 52921, Note_on_c, 9, 51, 0
1, 52929, Note_on_c, 0, 88, 0
1, 52933, Note_on_c, 0, 77, 0
1, 52937, Note_on_c, 0, 64, 0
1, 52937, Note_on_c, 0, 60, 0
1, 52941, Note_on_c, 0, 57, 0
1, 52961, Note_on_c, 0, 53, 0
1, 52973, Note_on_c, 1, 29, 0
1, 52979, Note_on_c, 9, 51, 98
1, 52981, Note_on_c, 1, 36, 68
1, 53001, Control_c, 0, 64, 0
1, 53017, Note_on_c, 0, 80, 58
1, 53029, Note_on_c, 0, 53, 39
1, 53029, Note_on_c, 0, 62, 52
1, 53029, Note_on_c, 0, 55, 56
1, 53029, Note_on_c, 0, 74, 47
1, 53029, Note_on_c, 0, 86, 44
1, 53029, Note_on_c, 0, 58, 56
1, 53049, Note_on_c, 9, 57, 0
1, 53049, Note_on_c, 0, 84, 29
1, 53077, Note_on_c, 0, 84, 0
1, 53109, Note_on_c, 0, 80, 0
1, 53121, Note_on_c, 0, 81, 45
1, 53125, Control_c, 0, 64, 127
1, 53185, Note_on_c, 0, 81, 0
1, 53205, Note_on_c, 0, 86, 0
1, 53209, Note_on_c, 0, 58, 0
1, 53225, Note_on_c, 0, 74, 0
1, 53229, Note_on_c, 0, 53, 0
1, 53237, Note_on_c, 0, 62, 0
1, 53257, Note_on_c, 1, 32, 48
1, 53261, Note_on_c, 0, 55, 0
1, 53299, Note_on_c, 9, 51, 0
1, 53363, Note_on_c, 9, 51, 59
1, 53365, Note_on_c, 1, 36, 0
1, 53367, Note_on_c, 9, 44, 98
1, 53369, Control_c, 0, 64, 0
1, 53369, Note_on_c, 1, 43, 99
1, 53373, Note_on_c, 1, 32, 0
1, 53385, Note_on_c, 0, 81, 58
1, 53389, Note_on_c, 0, 62, 52
1, 53389, Note_on_c, 0, 58, 48
1, 53393, Note_on_c, 0, 69, 46
1, 53397, Note_on_c, 0, 55, 45
1, 53401, Note_on_c, 0, 74, 48
1, 53405, Note_on_c, 0, 53, 40
1, 53421, Note_on_c, 0, 77, 33
1, 53429, Control_c, 0, 64, 127
1, 53479, Note_on_c, 9, 44, 0
1, 53537, Note_on_c, 0, 55, 0
1, 53545, Note_on_c, 0, 77, 0
1, 53549, Note_on_c, 0, 53, 0
1, 53549, Note_on_c, 0, 58, 0
1, 53553, Note_on_c, 0, 69, 0
1, 53557, Note_on_c, 0, 74, 0
1, 53569, Note_on_c, 0, 62, 0
1, 53577, Note_on_c, 9, 51, 0
1, 53581, Note_on_c, 0, 81, 0
1, 53609, Note_on_c, 1, 36, 46
1, 53619, Note_on_c, 9, 51, 75
1, 53641, Note_on_c, 9, 35, 28
1, 53661, Note_on_c, 1, 36, 0
1, 53687, Note_on_c, 9, 51, 0
1, 53699, Note_on_c, 9, 35, 0
1, 53717, Control_c, 0, 64, 0
1, 53737, Note_on_c, 1, 43, 0
1, 53747, Note_on_c, 9, 51, 66
1, 53753, Note_on_c, 1, 41, 73
1, 53757, Note_on_c, 0, 64, 52
1, 53761, Note_on_c, 9, 35, 24
1, 53769, Note_on_c, 0, 55, 40
1, 53773, Note_on_c, 0, 84, 52
1, 53777, Note_on_c, 0, 57, 41
1, 53777, Note_on_c, 0, 60, 55
1, 53777, Note_on_c, 0, 72, 46
1, 53785, Note_on_c, 0, 79, 45
1, 53821, Control_c, 0, 64, 127
1, 53893, Note_on_c, 0, 60, 0
1, 53933, Note_on_c, 0, 64, 0
1, 53937, Note_on_c, 0, 55, 0
1, 53943, Note_on_c, 9, 35, 0
1, 53957, Note_on_c, 0, 57, 0
1, 53989, Note_on_c, 0, 72, 0
1, 53993, Note_on_c, 0, 79, 0
1, 54017, Note_on_c, 0, 84, 0
1, 54035, Note_on_c, 9, 51, 0
1, 54037, Note_on_c, 1, 36, 43
1, 54039, Note_on_c, 9, 35, 31
1, 54071, Note_on_c, 9, 35, 0
1, 54077, Note_on_c, 1, 41, 0
1, 54081, Note_on_c, 1, 36, 0
1, 54089, Control_c, 0, 64, 0
1, 54129, Note_on_c, 1, 41, 79
1, 54131, Note_on_c, 9, 51, 64
1, 54133, Note_on_c, 0, 64, 39
1, 54135, Note_on_c, 9, 44, 84
1, 54137, Note_on_c, 0, 84, 50
1, 54141, Note_on_c, 0, 72, 41
1, 54141, Note_on_c, 0, 55, 37
1, 54145, Note_on_c, 0, 57, 39
1, 54149, Note_on_c, 0, 79, 49
1, 54149, Note_on_c, 0, 60, 41
1, 54157, Control_c, 0, 64, 127
1, 54241, Note_on_c, 0, 60, 0
1, 54261, Note_on_c, 0, 64, 0
1, 54269, Note_on_c, 0, 84, 0
1, 54277, Note_on_c, 0, 55, 0
1, 54281, Note_on_c, 9, 44, 0
1, 54285, Note_on_c, 0, 79, 0
1, 54301, Note_on_c, 0, 57, 0
1, 54313, Note_on_c, 9, 51, 0
1, 54341, Note_on_c, 0, 72, 0
1, 54387, Note_on_c, 9, 51, 82
1, 54451, Note_on_c, 9, 51, 0
1, 54509, Note_on_c, 0, 72, 58
1, 54509, Control_c, 0, 64, 0
1, 54515, Note_on_c, 9, 51, 47
1, 54517, Note_on_c, 0, 62, 30
1, 54517, Note_on_c, 0, 58, 45
1, 54521, Note_on_c, 1, 41, 0
1, 54521, Note_on_c, 0, 52, 33
1, 54521, Note_on_c, 1, 36, 63
1, 54541, Note_on_c, 0, 73, 57
1, 54577, Note_on_c, 0, 74, 68
1, 54581, Note_on_c, 0, 73, 0
1, 54609, Note_on_c, 0, 72, 0
1, 54645, Note_on_c, 0, 74, 0
1, 54665, Note_on_c, 0, 77, 87
1, 54701, Control_c, 0, 64, 127
1, 54743, Note_on_c, 9, 51, 0
1, 54771, Note_on_c, 9, 53, 64
1, 54773, Note_on_c, 0, 62, 0
1, 54773, Note_on_c, 1, 39, 90
1, 54777, Note_on_c, 0, 77, 0
1, 54801, Note_on_c, 0, 58, 0
1, 54809, Note_on_c, 1, 36, 0
1, 54851, Note_on_c, 9, 53, 0
1, 54881, Note_on_c, 1, 39, 0
1, 54889, Note_on_c, 0, 70, 66
1, 54893, Note_on_c, 0, 62, 39
1, 54893, Note_on_c, 0, 58, 49
1, 54897, Control_c, 0, 64, 0
1, 54899, Note_on_c, 9, 51, 78
1, 54901, Note_on_c, 1, 40, 77
1, 54903, Note_on_c, 9, 44, 91
1, 54921, Note_on_c, 0, 62, 0
1, 54921, Note_on_c, 0, 70, 0
1, 54925, Note_on_c, 0, 71, 67
1, 54965, Note_on_c, 0, 58, 0
1, 54969, Note_on_c, 0, 70, 52
1, 54997, Note_on_c, 0, 71, 0
1, 55025, Note_on_c, 0, 68, 49
1, 55037, Note_on_c, 0, 70, 0
1, 55047, Note_on_c, 9, 44, 0
1, 55047, Note_on_c, 9, 34, 66
1, 55057, Note_on_c, 0, 52, 0
1, 55085, Note_on_c, 9, 34, 0
1, 55097, Note_on_c, 0, 65, 43
1, 55101, Note_on_c, 0, 68, 0
1, 55117, Note_on_c, 0, 65, 0
1, 55149, Note_on_c, 0, 70, 80
1, 55153, Note_on_c, 1, 36, 73
1, 55181, Note_on_c, 1, 40, 0
1, 55225, Note_on_c, 9, 51, 0
1, 55237, Note_on_c, 0, 70, 0
1, 55249, Note_on_c, 0, 65, 55
1, 55273, Note_on_c, 1, 36, 0
1, 55273, Note_on_c, 1, 41, 74
1, 55277, Note_on_c, 0, 60, 49
1, 55281, Note_on_c, 0, 65, 0
1, 55283, Note_on_c, 9, 51, 84
1, 55313, Note_on_c, 0, 60, 0
1, 55317, Note_on_c, 0, 68, 68
1, 55385, Note_on_c, 0, 68, 0
1, 55389, Note_on_c, 0, 69, 58
1, 55445, Note_on_c, 0, 69, 0
1, 55465, Note_on_c, 0, 65, 57
1, 55513, Note_on_c, 0, 65, 0
1, 55525, Note_on_c, 1, 36, 57
1, 55533, Note_on_c, 0, 62, 40
1, 55581, Note_on_c, 0, 62, 0
1, 55585, Note_on_c, 1, 36, 0
1, 55607, Note_on_c, 9, 51, 0
1, 55625, Note_on_c, 1, 41, 0
1, 55641, Note_on_c, 0, 60, 36
1, 55657, Note_on_c, 1, 48, 78
1, 55665, Note_on_c, 0, 60, 0
1, 55667, Note_on_c, 9, 51, 75
1, 55671, Note_on_c, 9, 44, 99
1, 55689, Note_on_c, 9, 35, 17
1, 55693, Note_on_c, 0, 65, 77
1, 55793, Note_on_c, 9, 44, 0
1, 55813, Note_on_c, 0, 55, 63
1, 55843, Note_on_c, 9, 35, 0
1, 55875, Note_on_c, 9, 51, 0
1, 55901, Note_on_c, 1, 36, 42
1, 55921, Note_on_c, 9, 51, 75
1, 55939, Note_on_c, 9, 35, 26
1, 55949, Note_on_c, 1, 36, 0
1, 55971, Note_on_c, 9, 35, 0
1, 55975, Note_on_c, 9, 51, 0
1, 55997, Note_on_c, 0, 55, 0
1, 56001, Note_on_c, 1, 48, 0
1, 56013, Note_on_c, 0, 65, 0
1, 56041, Note_on_c, 1, 46, 83
1, 56051, Note_on_c, 9, 51, 87
1, 56217, Control_c, 0, 64, 127
1, 56289, Note_on_c, 0, 46, 61
1, 56333, Note_on_c, 0, 46, 0
1, 56355, Note_on_c, 9, 51, 0
1, 56377, Control_c, 0, 64, 0
1, 56417, Note_on_c, 1, 44, 84
1, 56421, Note_on_c, 1, 46, 0
1, 56421, Note_on_c, 0, 72, 70
1, 56425, Note_on_c, 0, 64, 66
1, 56429, Note_on_c, 0, 67, 67
1, 56433, Note_on_c, 0, 56, 57
1, 56435, Note_on_c, 9, 51, 73
1, 56439, Note_on_c, 9, 44, 96
1, 56453, Control_c, 0, 64, 127
1, 56465, Note_on_c, 0, 56, 0
1, 56473, Note_on_c, 0, 64, 0
1, 56497, Note_on_c, 0, 67, 0
1, 56497, Note_on_c, 0, 72, 0
1, 56609, Note_on_c, 9, 44, 0
1, 56659, Note_on_c, 9, 51, 0
1, 56673, Note_on_c, 0, 46, 70
1, 56681, Note_on_c, 0, 76, 99
1, 56681, Note_on_c, 0, 56, 66
1, 56691, Note_on_c, 9, 51, 75
1, 56695, Note_on_c, 9, 35, 24
1, 56733, Note_on_c, 0, 56, 0
1, 56737, Note_on_c, 0, 76, 0
1, 56737, Note_on_c, 9, 35, 0
1, 56743, Note_on_c, 9, 51, 0
1, 56749, Note_on_c, 0, 46, 0
1, 56773, Control_c, 0, 64, 0
1, 56777, Note_on_c, 1, 44, 0
1, 56801, Note_on_c, 1, 45, 68
1, 56817, Note_on_c, 9, 35, 33
1, 56819, Note_on_c, 9, 51, 77
1, 56825, Note_on_c, 0, 45, 59
1, 56825, Note_on_c, 0, 55, 56
1, 56825, Note_on_c, 0, 72, 66
1, 56833, Note_on_c, 0, 67, 59
1, 56833, Note_on_c, 0, 60, 57
1, 56853, Control_c, 0, 64, 127
1, 56873, Note_on_c, 0, 45, 0
1, 56885, Note_on_c, 0, 60, 0
1, 56897, Note_on_c, 0, 55, 0
1, 56949, Note_on_c, 0, 67, 0
1, 56957, Note_on_c, 0, 72, 0
1, 57017, Note_on_c, 9, 35, 0
1, 57029, Note_on_c, 0, 56, 16
1, 57065, Note_on_c, 0, 56, 0
1, 57077, Note_on_c, 0, 72, 85
1, 57077, Note_on_c, 0, 65, 94
1, 57077, Note_on_c, 0, 69, 87
1, 57077, Note_on_c, 0, 61, 75
1, 57091, Note_on_c, 9, 35, 36
1, 57093, Note_on_c, 0, 55, 70
1, 57113, Note_on_c, 9, 51, 0
1, 57117, Note_on_c, 9, 35, 0
1, 57129, Control_c, 0, 64, 0
1, 57165, Note_on_c, 0, 72, 0
1, 57169, Note_on_c, 0, 55, 0
1, 57169, Note_on_c, 0, 65, 0
1, 57173, Note_on_c, 0, 61, 0
1, 57177, Note_on_c, 0, 69, 0
1, 57181, Control_c, 0, 64, 127
1, 57193, Note_on_c, 1, 38, 82
1, 57197, Note_on_c, 1, 45, 0
1, 57203, Note_on_c, 9, 51, 87
1, 57207, Note_on_c, 9, 44, 98
1, 57209, Note_on_c, 0, 61, 68
1, 57213, Note_on_c, 0, 72, 72
1, 57217, Note_on_c, 0, 69, 78
1, 57221, Note_on_c, 0, 55, 60
1, 57221, Note_on_c, 0, 65, 63
1, 57273, Note_on_c, 0, 65, 0
1, 57277, Note_on_c, 0, 55, 0
1, 57277, Note_on_c, 0, 61, 0
1, 57285, Note_on_c, 0, 72, 0
1, 57289, Note_on_c, 0, 69, 0
1, 57325, Note_on_c, 0, 72, 50
1, 57329, Note_on_c, 0, 61, 58
1, 57329, Note_on_c, 0, 65, 60
1, 57337, Note_on_c, 0, 69, 60
1, 57345, Note_on_c, 0, 55, 43
1, 57367, Note_on_c, 9, 44, 0
1, 57377, Note_on_c, 0, 61, 0
1, 57381, Note_on_c, 0, 65, 0
1, 57385, Note_on_c, 0, 55, 0
1, 57385, Note_on_c, 0, 72, 0
1, 57393, Note_on_c, 0, 69, 0
1, 57417, Note_on_c, 9, 51, 0
1, 57459, Note_on_c, 9, 51, 70
1, 57461, Note_on_c, 0, 61, 75
1, 57461, Note_on_c, 0, 74, 83
1, 57473, Note_on_c, 0, 67, 73
1, 57481, Note_on_c, 0, 55, 51
1, 57495, Note_on_c, 9, 51, 0
1, 57505, Note_on_c, 0, 55, 0
1, 57525, Note_on_c, 0, 67, 0
1, 57541, Note_on_c, 0, 61, 0
1, 57557, Note_on_c, 0, 74, 0
1, 57569, Control_c, 0, 64, 0
1, 57573, Note_on_c, 1, 44, 88
1, 57587, Note_on_c, 9, 51, 75
1, 57601, Note_on_c, 0, 64, 55
1, 57601, Note_on_c, 0, 68, 63
1, 57605, Note_on_c, 1, 38, 0
1, 57613, Note_on_c, 0, 60, 63
1, 57613, Note_on_c, 0, 54, 56
1, 57665, Control_c, 0, 64, 127
1, 57767, Note_on_c, 9, 51, 0
1, 57833, Note_on_c, 0, 54, 0
1, 57841, Note_on_c, 0, 64, 0
1, 57843, Note_on_c, 9, 51, 77
1, 57849, Note_on_c, 0, 60, 0
1, 57865, Note_on_c, 9, 51, 0
1, 57873, Note_on_c, 1, 38, 40
1, 57885, Note_on_c, 1, 44, 0
1, 57893, Note_on_c, 0, 68, 0
1, 57917, Note_on_c, 1, 38, 0
1, 57925, Control_c, 0, 64, 0
1, 57953, Note_on_c, 1, 44, 85
1, 57965, Note_on_c, 0, 54, 54
1, 57969, Note_on_c, 0, 60, 52
1, 57969, Note_on_c, 9, 40, 59
1, 57971, Note_on_c, 9, 51, 112
1, 57975, Note_on_c, 0, 69, 57
1, 57975, Note_on_c, 9, 46, 42
1, 57977, Note_on_c, 0, 65, 49
1, 57987, Note_on_c, 9, 40, 0
1, 58025, Control_c, 0, 64, 127
1, 58077, Note_on_c, 0, 54, 0
1, 58087, Note_on_c, 9, 46, 0
1, 58105, Note_on_c, 0, 60, 0
1, 58141, Note_on_c, 0, 69, 0
1, 58157, Note_on_c, 0, 65, 0
1, 58185, Note_on_c, 9, 51, 0
1, 58201, Note_on_c, 9, 40, 70
1, 58205, Note_on_c, 1, 38, 55
1, 58233, Note_on_c, 1, 38, 0
1, 58249, Note_on_c, 9, 40, 0
1, 58333, Note_on_c, 0, 62, 41
1, 58333, Control_c, 0, 64, 0
1, 58345, Note_on_c, 0, 58, 50
1, 58349, Note_on_c, 0, 57, 39
1, 58353, Note_on_c, 0, 53, 32
1, 58355, Note_on_c, 9, 51, 99
1, 58361, Note_on_c, 0, 65, 66
1, 58409, Note_on_c, 0, 62, 0
1, 58417, Note_on_c, 0, 58, 0
1, 58429, Note_on_c, 0, 65, 0
1, 58449, Note_on_c, 1, 43, 63
1, 58449, Note_on_c, 9, 35, 40
1, 58473, Note_on_c, 9, 35, 0
1, 58473, Note_on_c, 0, 67, 47
1, 58477, Note_on_c, 1, 44, 0
1, 58489, Note_on_c, 1, 43, 0
1, 58493, Note_on_c, 0, 65, 47
1, 58501, Note_on_c, 0, 67, 0
1, 58565, Note_on_c, 0, 65, 0
1, 58577, Note_on_c, 1, 38, 74
1, 58601, Note_on_c, 0, 62, 24
1, 58621, Note_on_c, 0, 53, 0
1, 58645, Note_on_c, 0, 57, 0
1, 58647, Note_on_c, 9, 51, 0
1, 58681, Note_on_c, 0, 61, 49
1, 58689, Note_on_c, 0, 62, 0
1, 58693, Note_on_c, 1, 38, 0
1, 58709, Note_on_c, 0, 61, 0
1, 58713, Note_on_c, 1, 34, 68
1, 58733, Note_on_c, 0, 58, 45
1, 58733, Note_on_c, 0, 57, 18
1, 58739, Note_on_c, 9, 51, 64
1, 58743, Note_on_c, 9, 44, 91
1, 58749, Note_on_c, 0, 65, 66
1, 58813, Note_on_c, 0, 58, 0
1, 58825, Note_on_c, 0, 65, 0
1, 58873, Note_on_c, 0, 61, 36
1, 58881, Note_on_c, 9, 44, 0
1, 58905, Note_on_c, 0, 61, 0
1, 58929, Note_on_c, 0, 62, 49
1, 59005, Note_on_c, 0, 62, 0
1, 59013, Note_on_c, 0, 57, 0
1, 59033, Note_on_c, 0, 63, 68
1, 59065, Note_on_c, 9, 51, 0
1, 59081, Note_on_c, 0, 63, 0
1, 59085, Note_on_c, 1, 34, 0
1, 59105, Note_on_c, 1, 31, 68
1, 59121, Note_on_c, 0, 65, 65
1, 59123, Note_on_c, 9, 51, 98
1, 59125, Note_on_c, 0, 62, 34
1, 59129, Note_on_c, 0, 58, 41
1, 59137, Note_on_c, 0, 57, 28
1, 59173, Note_on_c, 0, 65, 0
1, 59213, Note_on_c, 0, 62, 0
1, 59217, Note_on_c, 0, 69, 69
1, 59253, Note_on_c, 0, 58, 0
1, 59261, Note_on_c, 0, 69, 0
1, 59265, Note_on_c, 0, 57, 0
1, 59289, Note_on_c, 0, 72, 89
1, 59377, Note_on_c, 0, 72, 0
1, 59417, Note_on_c, 0, 69, 49
1, 59443, Note_on_c, 9, 51, 0
1, 59445, Note_on_c, 0, 69, 0
1, 59485, Note_on_c, 0, 62, 54
1, 59489, Note_on_c, 0, 58, 54
1, 59493, Note_on_c, 0, 70, 68
1, 59493, Note_on_c, 0, 57, 43
1, 59493, Note_on_c, 1, 37, 66
1, 59507, Note_on_c, 9, 51, 59
1, 59511, Note_on_c, 9, 44, 98
1, 59517, Note_on_c, 1, 31, 0
1, 59521, Note_on_c, 0, 57, 0
1, 59525, Note_on_c, 0, 62, 0
1, 59545, Note_on_c, 0, 58, 0
1, 59553, Note_on_c, 0, 70, 0
1, 59597, Note_on_c, 0, 74, 75
1, 59623, Note_on_c, 9, 44, 0
1, 59645, Note_on_c, 0, 74, 0
1, 59685, Note_on_c, 0, 77, 65
1, 59721, Note_on_c, 9, 51, 0
1, 59733, Note_on_c, 0, 77, 0
1, 59745, Control_c, 0, 64, 127
1, 59757, Note_on_c, 1, 34, 46
1, 59763, Note_on_c, 9, 51, 75
1, 59785, Note_on_c, 9, 35, 28
1, 59793, Note_on_c, 0, 81, 80
1, 59831, Note_on_c, 9, 51, 0
1, 59833, Note_on_c, 1, 37, 0
1, 59841, Note_on_c, 0, 81, 0
1, 59841, Control_c, 0, 64, 0
1, 59843, Note_on_c, 9, 35, 0
1, 59861, Note_on_c, 1, 34, 0
1, 59873, Note_on_c, 0, 69, 68
1, 59873, Note_on_c, 1, 36, 67
1, 59877, Note_on_c, 0, 84, 96
1, 59881, Note_on_c, 0, 58, 57
1, 59881, Note_on_c, 0, 64, 57
1, 59881, Note_on_c, 0, 72, 85
1, 59891, Note_on_c, 9, 51, 66
1, 59905, Note_on_c, 9, 35, 24
1, 59953, Note_on_c, 0, 72, 0
1, 59953, Note_on_c, 0, 84, 0
1, 59997, Note_on_c, 0, 84, 70
1, 59997, Note_on_c, 0, 72, 68
1, 60021, Note_on_c, 0, 69, 0
1, 60033, Note_on_c, 0, 84, 0
1, 60037, Note_on_c, 0, 58, 0
1, 60041, Note_on_c, 0, 72, 0
1, 60077, Note_on_c, 0, 64, 0
1, 60077, Note_on_c, 0, 84, 66
1, 60081, Note_on_c, 0, 72, 65
1, 60087, Note_on_c, 9, 35, 0
1, 60125, Note_on_c, 0, 84, 0
1, 60125, Note_on_c, 0, 72, 0
1, 60179, Note_on_c, 9, 51, 0
1, 60181, Note_on_c, 0, 84, 66
1, 60183, Note_on_c, 9, 35, 31
1, 60185, Note_on_c, 0, 72, 69
1, 60209, Note_on_c, 1, 36, 0
1, 60215, Note_on_c, 9, 35, 0
1, 60229, Note_on_c, 0, 84, 0
1, 60229, Note_on_c, 0, 72, 0
1, 60245, Note_on_c, 1, 36, 74
1, 60257, Note_on_c, 0, 69, 57
1, 60261, Note_on_c, 0, 64, 54
1, 60261, Note_on_c, 0, 58, 52
1, 60269, Note_on_c, 0, 84, 67
1, 60269, Note_on_c, 0, 72, 63
1, 60275, Note_on_c, 9, 51, 64
1, 60277, Control_c, 0, 64, 127
1, 60279, Note_on_c, 9, 44, 84
1, 60325, Note_on_c, 0, 72, 0
1, 60329, Note_on_c, 0, 84, 0
1, 60337, Note_on_c, 0, 69, 0
1, 60361, Note_on_c, 0, 64, 0
1, 60381, Note_on_c, 0, 86, 74
1, 60385, Note_on_c, 0, 74, 66
1, 60389, Note_on_c, 0, 79, 49
1, 60401, Note_on_c, 0, 82, 35
1, 60425, Note_on_c, 0, 82, 0
1, 60425, Note_on_c, 0, 74, 0
1, 60425, Note_on_c, 9, 44, 0
1, 60425, Note_on_c, 0, 86, 0
1, 60437, Note_on_c, 0, 79, 0
1, 60453, Note_on_c, 0, 58, 0
1, 60457, Note_on_c, 9, 51, 0
1, 60477, Note_on_c, 0, 72, 42
1, 60481, Note_on_c, 0, 84, 56
1, 60493, Note_on_c, 0, 79, 41
1, 60531, Note_on_c, 9, 51, 82
1, 60549, Note_on_c, 0, 72, 0
1, 60565, Note_on_c, 0, 84, 0
1, 60585, Note_on_c, 0, 79, 0
1, 60595, Note_on_c, 9, 51, 0
1, 60621, Control_c, 0, 64, 0
1, 60633, Note_on_c, 1, 34, 73
1, 60649, Note_on_c, 1, 36, 0
1, 60657, Note_on_c, 0, 67, 61
1, 60659, Note_on_c, 9, 51, 47
1, 60665, Note_on_c, 0, 84, 66
1, 60665, Note_on_c, 0, 72, 62
1, 60669, Note_on_c, 0, 62, 50
1, 60669, Note_on_c, 0, 56, 40
1, 60669, Note_on_c, 0, 79, 63
1, 60729, Note_on_c, 0, 56, 0
1, 60729, Note_on_c, 0, 72, 0
1, 60733, Note_on_c, 0, 84, 0
1, 60733, Note_on_c, 0, 67, 0
1, 60737, Note_on_c, 0, 62, 0
1, 60741, Note_on_c, 0, 79, 0
1, 60869, Note_on_c, 1, 34, 0
1, 60873, Note_on_c, 0, 56, 61
1, 60873, Note_on_c, 0, 67, 60
1, 60885, Note_on_c, 0, 84, 77
1, 60885, Note_on_c, 0, 62, 63
1, 60885, Note_on_c, 0, 72, 74
1, 60885, Note_on_c, 0, 79, 77
1, 60887, Note_on_c, 9, 51, 0
1, 60901, Note_on_c, 1, 33, 72
1, 60915, Note_on_c, 9, 53, 64
1, 60933, Note_on_c, 0, 72, 0
1, 60937, Note_on_c, 0, 84, 0
1, 60949, Note_on_c, 0, 56, 0
1, 60949, Note_on_c, 0, 67, 0
1, 60949, Note_on_c, 0, 79, 0
1, 60953, Note_on_c, 0, 62, 0
1, 60985, Note_on_c, 1, 33, 0
1, 60995, Note_on_c, 9, 53, 0
1, 61033, Note_on_c, 1, 32, 69
1, 61043, Note_on_c, 9, 51, 78
1, 61045, Control_c, 0, 64, 127
1, 61047, Note_on_c, 9, 44, 91
1, 61053, Note_on_c, 0, 56, 63
1, 61057, Note_on_c, 0, 84, 66
1, 61061, Note_on_c, 0, 67, 56
1, 61061, Note_on_c, 0, 72, 66
1, 61061, Note_on_c, 0, 79, 68
1, 61065, Note_on_c, 0, 62, 57
1, 61121, Note_on_c, 0, 84, 0
1, 61149, Note_on_c, 0, 72, 0
1, 61153, Note_on_c, 0, 79, 0
1, 61181, Note_on_c, 0, 56, 0
1, 61181, Note_on_c, 0, 67, 0
1, 61191, Note_on_c, 9, 44, 0
1, 61191, Note_on_c, 9, 34, 66
1, 61209, Note_on_c, 0, 62, 0
1, 61229, Note_on_c, 9, 34, 0
1, 61277, Note_on_c, 0, 56, 58
1, 61301, Note_on_c, 0, 82, 68
1, 61305, Note_on_c, 0, 70, 61
1, 61341, Note_on_c, 0, 70, 0
1, 61353, Note_on_c, 0, 82, 0
1, 61357, Note_on_c, 0, 56, 0
1, 61369, Note_on_c, 9, 51, 0
1, 61373, Control_c, 0, 64, 0
1, 61425, Note_on_c, 0, 65, 61
1, 61427, Note_on_c, 9, 51, 84
1, 61429, Note_on_c, 0, 55, 51
1, 61429, Note_on_c, 0, 60, 50
1, 61441, Note_on_c, 0, 61, 50
1, 61445, Note_on_c, 0, 70, 1
1, 61445, Note_on_c, 0, 72, 50
1, 61449, Note_on_c, 0, 84, 39
1, 61453, Note_on_c, 0, 58, 36
1, 61461, Control_c, 0, 64, 127
1, 61497, Note_on_c, 0, 70, 0
1, 61661, Note_on_c, 0, 55, 0
1, 61661, Note_on_c, 0, 60, 0
1, 61673, Note_on_c, 0, 65, 0
1, 61673, Note_on_c, 0, 58, 0
1, 61685, Note_on_c, 0, 61, 0
1, 61697, Note_on_c, 0, 72, 0
1, 61751, Note_on_c, 9, 51, 0
1, 61785, Note_on_c, 1, 32, 0
1, 61805, Note_on_c, 1, 36, 72
1, 61811, Note_on_c, 9, 51, 75
1, 61815, Note_on_c, 9, 44, 99
1, 61821, Note_on_c, 0, 65, 65
1, 61821, Note_on_c, 0, 60, 63
1, 61825, Note_on_c, 0, 61, 51
1, 61829, Control_c, 0, 64, 0
1, 61829, Note_on_c, 0, 55, 52
1, 61833, Note_on_c, 9, 35, 17
1, 61865, Note_on_c, 0, 84, 0
1, 61913, Control_c, 0, 64, 127
1, 61937, Note_on_c, 9, 44, 0
1, 61949, Note_on_c, 0, 81, 94
1, 61987, Note_on_c, 9, 35, 0
1, 62013, Note_on_c, 0, 65, 0
1, 62019, Note_on_c, 9, 51, 0
1, 62033, Note_on_c, 0, 55, 0
1, 62033, Note_on_c, 0, 81, 0
1, 62037, Note_on_c, 0, 60, 0
1, 62049, Note_on_c, 0, 61, 0
1, 62061, Note_on_c, 1, 34, 48
1, 62065, Note_on_c, 0, 82, 92
1, 62065, Note_on_c, 9, 51, 75
1, 62083, Note_on_c, 9, 35, 26
1, 62085, Note_on_c, 0, 81, 38
1, 62109, Note_on_c, 0, 81, 0
1, 62115, Note_on_c, 9, 35, 0
1, 62119, Note_on_c, 9, 51, 0
1, 62145, Note_on_c, 0, 82, 0
1, 62149, Note_on_c, 1, 34, 0
1, 62177, Control_c, 0, 64, 0
1, 62181, Note_on_c, 0, 54, 61
1, 62185, Note_on_c, 0, 65, 64
1, 62189, Note_on_c, 0, 84, 92
1, 62189, Note_on_c, 0, 60, 63
1, 62193, Note_on_c, 1, 36, 0
1, 62195, Note_on_c, 1, 50, 86
1, 62195, Note_on_c, 9, 51, 87
1, 62301, Note_on_c, 0, 84, 0
1, 62317, Note_on_c, 0, 89, 96
1, 62369, Control_c, 0, 64, 127
1, 62397, Note_on_c, 0, 65, 0
1, 62413, Note_on_c, 0, 89, 0
1, 62437, Note_on_c, 0, 54, 0
1, 62449, Note_on_c, 0, 78, 84
1, 62461, Note_on_c, 0, 60, 0
1, 62499, Note_on_c, 9, 51, 0
1, 62541, Control_c, 0, 64, 0
1, 62553, Note_on_c, 0, 78, 0
1, 62569, Note_on_c, 0, 54, 57
1, 62577, Note_on_c, 1, 38, 75
1, 62579, Note_on_c, 9, 51, 73
1, 62581, Note_on_c, 0, 64, 42
1, 62583, Note_on_c, 9, 44, 96
1, 62585, Note_on_c, 1, 50, 0
1, 62585, Note_on_c, 0, 60, 43
1, 62589, Note_on_c, 0, 77, 63
1, 62677, Note_on_c, 0, 77, 0
1, 62685, Control_c, 0, 64, 127
1, 62689, Control_c, 0, 64, 0
1, 62689, Control_c, 0, 64, 127
1, 62721, Note_on_c, 0, 75, 54
1, 62725, Note_on_c, 0, 60, 0
1, 62745, Note_on_c, 0, 64, 0
1, 62753, Note_on_c, 9, 44, 0
1, 62789, Note_on_c, 0, 54, 0
1, 62803, Note_on_c, 9, 51, 0
1, 62809, Note_on_c, 0, 75, 0
1, 62829, Note_on_c, 0, 72, 60
1, 62835, Note_on_c, 9, 51, 75
1, 62839, Note_on_c, 9, 35, 24
1, 62881, Note_on_c, 9, 35, 0
1, 62887, Note_on_c, 9, 51, 0
1, 62937, Note_on_c, 0, 72, 0
1, 62957, Control_c, 0, 64, 0
1, 62957, Note_on_c, 0, 58, 46
1, 62957, Note_on_c, 1, 46, 75
1, 62961, Note_on_c, 9, 35, 33
1, 62963, Note_on_c, 0, 62, 31
1, 62963, Note_on_c, 9, 51, 77
1, 62965, Note_on_c, 0, 73, 54
1, 62969, Note_on_c, 0, 53, 33
1, 62981, Note_on_c, 1, 38, 0
1, 63041, Note_on_c, 0, 73, 0
1, 63105, Note_on_c, 0, 74, 57
1, 63161, Note_on_c, 9, 35, 0
1, 63169, Note_on_c, 0, 58, 0
1, 63181, Note_on_c, 0, 62, 0
1, 63193, Note_on_c, 0, 74, 0
1, 63225, Note_on_c, 1, 37, 54
1, 63233, Note_on_c, 0, 77, 77
1, 63235, Note_on_c, 9, 35, 36
1, 63257, Note_on_c, 9, 51, 0
1, 63261, Note_on_c, 9, 35, 0
1, 63273, Note_on_c, 1, 37, 0
1, 63293, Note_on_c, 0, 77, 0
1, 63297, Note_on_c, 1, 46, 0
1, 63337, Note_on_c, 1, 49, 83
1, 63347, Note_on_c, 9, 51, 87
1, 63351, Note_on_c, 9, 44, 98
1, 63361, Note_on_c, 0, 62, 39
1, 63365, Note_on_c, 0, 65, 57
1, 63373, Note_on_c, 0, 58, 38
1, 63401, Note_on_c, 0, 53, 0
1, 63441, Note_on_c, 0, 62, 0
1, 63441, Note_on_c, 0, 58, 0
1, 63457, Note_on_c, 0, 65, 0
1, 63501, Note_on_c, 0, 71, 72
1, 63511, Note_on_c, 9, 44, 0
1, 63561, Note_on_c, 9, 51, 0
1, 63601, Note_on_c, 0, 71, 0
1, 63603, Note_on_c, 9, 51, 70
1, 63625, Note_on_c, 0, 65, 43
1, 63639, Note_on_c, 9, 51, 0
1, 63705, Note_on_c, 1, 49, 0
1, 63713, Note_on_c, 0, 65, 0
1, 63721, Note_on_c, 1, 48, 68
1, 63731, Note_on_c, 9, 51, 75
1, 63745, Note_on_c, 0, 70, 68
1, 63749, Note_on_c, 0, 58, 48
1, 63765, Note_on_c, 0, 52, 36
1, 63773, Note_on_c, 0, 58, 0
1, 63797, Note_on_c, 0, 52, 0
1, 63845, Note_on_c, 0, 70, 0
1, 63889, Note_on_c, 0, 62, 44
1, 63911, Note_on_c, 9, 51, 0
1, 63941, Note_on_c, 0, 62, 0
1, 63987, Note_on_c, 9, 51, 77
1, 63993, Note_on_c, 1, 40, 111
1, 64005, Note_on_c, 0, 68, 68
1, 64009, Note_on_c, 9, 51, 0
1, 64009, Note_on_c, 0, 48, 66
1, 64021, Note_on_c, 0, 47, 63
1, 64037, Note_on_c, 0, 47, 0
1, 64041, Note_on_c, 1, 48, 0
1, 64101, Note_on_c, 0, 68, 0
1, 64113, Note_on_c, 9, 40, 59
1, 64115, Note_on_c, 9, 51, 112
1, 64119, Note_on_c, 9, 46, 42
1, 64121, Note_on_c, 1, 43, 87
1, 64131, Note_on_c, 9, 40, 0
1, 64145, Note_on_c, 1, 40, 0
1, 64145, Note_on_c, 0, 60, 42
1, 64225, Note_on_c, 0, 60, 0
1, 64231, Note_on_c, 9, 46, 0
1, 64261, Note_on_c, 0, 65, 65
1, 64329, Note_on_c, 9, 51, 0
1, 64333, Note_on_c, 1, 43, 0
1, 64345, Note_on_c, 9, 40, 70
1, 64349, Note_on_c, 0, 65, 0
1, 64357, Note_on_c, 1, 42, 77
1, 64381, Note_on_c, 0, 57, 54
1, 64393, Note_on_c, 9, 40, 0
1, 64469, Note_on_c, 1, 42, 0
1, 64485, Note_on_c, 0, 48, 0
1, 64489, Note_on_c, 1, 41, 67
1, 64493, Note_on_c, 0, 57, 0
1, 64499, Note_on_c, 9, 51, 99
1, 64517, Note_on_c, 0, 63, 60
1, 64519, Note_on_c, 9, 35, 22
1, 64557, Note_on_c, 9, 35, 0
1, 64589, Note_on_c, 1, 41, 0
1, 64613, Note_on_c, 0, 63, 0
1, 64621, Note_on_c, 1, 36, 45
1, 64653, Note_on_c, 0, 48, 39
1, 64681, Note_on_c, 1, 36, 0
1, 64681, Note_on_c, 0, 53, 19
1, 64693, Note_on_c, 0, 48, 0
1, 64713, Note_on_c, 0, 53, 0
1, 64729, Note_on_c, 1, 33, 71
1, 64753, Note_on_c, 0, 61, 69
1, 64791, Note_on_c, 9, 51, 0
1, 64845, Note_on_c, 1, 33, 0
1, 64865, Note_on_c, 0, 61, 0
1, 64865, Note_on_c, 1, 36, 77
1, 64867, Note_on_c, 9, 35, 36
1, 64883, Note_on_c, 9, 51, 73
1, 64885, Note_on_c, 0, 53, 43
1, 64887, Note_on_c, 9, 44, 70
1, 64953, Note_on_c, 0, 53, 0
1, 65009, Note_on_c, 0, 60, 63
1, 65017, Note_on_c, 0, 48, 54
1, 65057, Note_on_c, 9, 44, 0
1, 65081, Note_on_c, 9, 35, 0
1, 65081, Note_on_c, 0, 48, 0
1, 65097, Note_on_c, 9, 51, 0
1, 65101, Note_on_c, 0, 60, 0
1, 65129, Note_on_c, 0, 53, 50
1, 65139, Note_on_c, 9, 51, 56
1, 65145, Note_on_c, 0, 46, 41
1, 65185, Note_on_c, 0, 53, 0
1, 65209, Note_on_c, 9, 51, 0
1, 65249, Note_on_c, 0, 46, 0
1, 65253, Note_on_c, 0, 58, 68
1, 65265, Note_on_c, 1, 36, 0
1, 65265, Note_on_c, 0, 47, 54
1, 65267, Note_on_c, 9, 51, 82
1, 65269, Note_on_c, 1, 34, 68
1, 65313, Note_on_c, 0, 58, 0
1, 65325, Note_on_c, 0, 59, 57
1, 65377, Note_on_c, 0, 47, 0
1, 65381, Note_on_c, 0, 58, 43
1, 65389, Note_on_c, 0, 59, 0
1, 65425, Note_on_c, 0, 56, 28
1, 65427, Note_on_c, 9, 51, 0
1, 65445, Note_on_c, 0, 58, 0
1, 65465, Note_on_c, 0, 44, 42
1, 65469, Note_on_c, 0, 53, 39
1, 65481, Note_on_c, 0, 56, 0
1, 65489, Note_on_c, 0, 44, 0
1, 65493, Note_on_c, 0, 53, 0
1, 65523, Note_on_c, 9, 51, 75
1, 65525, Note_on_c, 0, 58, 74
1, 65527, Note_on_c, 0, 46, 48
1, 65527, Note_on_c, 9, 35, 24
1, 65543, Note_on_c, 9, 51, 0
1, 65549, Note_on_c, 9, 35, 0
1, 65605, Note_on_c, 0, 58, 0
1, 65609, Note_on_c, 0, 46, 0
1, 65621, Note_on_c, 1, 34, 0
1, 65621, Note_on_c, 0, 53, 61
1, 65633, Note_on_c, 1, 38, 72
1, 65649, Note_on_c, 0, 53, 0
1, 65649, Note_on_c, 9, 35, 54
1, 65651, Note_on_c, 9, 51, 124
1, 65655, Note_on_c, 9, 44, 82
1, 65657, Note_on_c, 0, 44, 47
1, 65693, Note_on_c, 0, 56, 53
1, 65753, Note_on_c, 0, 56, 0
1, 65757, Note_on_c, 0, 44, 0
1, 65773, Note_on_c, 0, 45, 49
1, 65777, Note_on_c, 0, 57, 47
1, 65797, Note_on_c, 0, 57, 0
1, 65809, Note_on_c, 9, 44, 0
1, 65829, Note_on_c, 0, 58, 45
1, 65849, Note_on_c, 0, 45, 0
1, 65849, Note_on_c, 0, 46, 55
1, 65859, Note_on_c, 9, 35, 0
1, 65877, Note_on_c, 0, 58, 0
1, 65885, Note_on_c, 0, 59, 63
1, 65897, Note_on_c, 1, 34, 52
1, 65905, Note_on_c, 9, 35, 54
1, 65909, Note_on_c, 0, 46, 0
1, 65913, Note_on_c, 0, 59, 0
1, 65921, Note_on_c, 1, 38, 0
1, 65929, Note_on_c, 9, 51, 0
1, 65941, Note_on_c, 0, 48, 63
1, 65945, Note_on_c, 0, 60, 89
1, 65975, Note_on_c, 9, 35, 0
1, 65993, Note_on_c, 1, 34, 0
1, 65997, Note_on_c, 0, 48, 0
1, 65997, Note_on_c, 0, 60, 0
1, 66021, Note_on_c, 0, 45, 57
1, 66021, Note_on_c, 1, 36, 68
1, 66033, Note_on_c, 0, 57, 81
1, 66035, Note_on_c, 9, 51, 91
1, 66125, Note_on_c, 0, 57, 0
1, 66137, Note_on_c, 0, 45, 0
1, 66181, Note_on_c, 0, 52, 68
1, 66193, Note_on_c, 0, 40, 47
1, 66197, Note_on_c, 0, 56, 24
1, 66221, Note_on_c, 0, 56, 0
1, 66229, Note_on_c, 0, 40, 0
1, 66241, Note_on_c, 0, 52, 0
1, 66281, Note_on_c, 1, 34, 44
1, 66329, Note_on_c, 9, 51, 0
1, 66413, Note_on_c, 1, 45, 76
1, 66419, Note_on_c, 9, 51, 78
1, 66421, Note_on_c, 1, 34, 0
1, 66423, Note_on_c, 9, 44, 91
1, 66425, Note_on_c, 1, 36, 0
1, 66429, Note_on_c, 0, 52, 69
1, 66429, Note_on_c, 0, 40, 57
1, 66545, Note_on_c, 9, 44, 0
1, 66627, Note_on_c, 9, 51, 0
1, 66675, Note_on_c, 9, 51, 82
1, 66697, Note_on_c, 1, 36, 40
1, 66701, Note_on_c, 0, 52, 0
1, 66723, Note_on_c, 9, 51, 0
1, 66725, Note_on_c, 0, 48, 56
1, 66729, Note_on_c, 0, 40, 0
1, 66729, Note_on_c, 0, 36, 52
1, 66741, Note_on_c, 1, 45, 0
1, 66757, Note_on_c, 0, 48, 0
1, 66781, Note_on_c, 0, 36, 0
1, 66797, Note_on_c, 1, 46, 78
1, 66801, Note_on_c, 0, 38, 57
1, 66803, Note_on_c, 1, 36, 0
1, 66803, Note_on_c, 0, 50, 57
1, 66803, Note_on_c, 9, 51, 56
1, 66869, Note_on_c, 0, 50, 0
1, 66881, Note_on_c, 0, 38, 0
1, 66905, Note_on_c, 9, 34, 40
1, 66909, Note_on_c, 0, 39, 61
1, 66913, Note_on_c, 0, 51, 68
1, 66947, Note_on_c, 9, 34, 0
1, 66973, Note_on_c, 0, 39, 0
1, 66977, Note_on_c, 0, 51, 0
1, 66997, Note_on_c, 0, 52, 54
1, 67011, Note_on_c, 9, 51, 0
1, 67013, Note_on_c, 0, 40, 45
1, 67045, Note_on_c, 1, 36, 50
1, 67047, Note_on_c, 9, 35, 36
1, 67049, Note_on_c, 0, 52, 0
1, 67059, Note_on_c, 9, 51, 50
1, 67079, Note_on_c, 9, 35, 0
1, 67091, Note_on_c, 9, 51, 0
1, 67097, Note_on_c, 0, 53, 55
1, 67113, Note_on_c, 1, 36, 0
1, 67121, Note_on_c, 1, 46, 0
1, 67149, Note_on_c, 1, 47, 85
1, 67157, Note_on_c, 0, 53, 0
1, 67161, Note_on_c, 0, 40, 0
1, 67177, Note_on_c, 0, 55, 81
1, 67177, Note_on_c, 9, 34, 28
1, 67181, Note_on_c, 0, 43, 66
1, 67187, Note_on_c, 9, 51, 85
1, 67191, Note_on_c, 9, 44, 89
1, 67233, Note_on_c, 9, 34, 0
1, 67261, Note_on_c, 0, 55, 0
1, 67265, Note_on_c, 0, 43, 0
1, 67293, Note_on_c, 0, 52, 51
1, 67301, Note_on_c, 0, 40, 48
1, 67313, Note_on_c, 9, 44, 0
1, 67315, Note_on_c, 9, 35, 54
1, 67317, Note_on_c, 0, 52, 0
1, 67337, Note_on_c, 9, 35, 0
1, 67365, Note_on_c, 0, 53, 60
1, 67397, Note_on_c, 0, 41, 49
1, 67401, Note_on_c, 0, 40, 0
1, 67417, Note_on_c, 1, 41, 45
1, 67425, Note_on_c, 9, 34, 52
1, 67437, Note_on_c, 0, 53, 0
1, 67453, Note_on_c, 1, 41, 0
1, 67465, Note_on_c, 9, 51, 0
1, 67465, Note_on_c, 9, 34, 0
1, 67477, Note_on_c, 0, 55, 69
1, 67481, Note_on_c, 0, 41, 0
1, 67493, Note_on_c, 0, 43, 52
1, 67517, Note_on_c, 1, 47, 0
1, 67525, Note_on_c, 0, 55, 0
1, 67537, Note_on_c, 1, 48, 81
1, 67569, Note_on_c, 0, 43, 0
1, 67569, Note_on_c, 0, 56, 49
1, 67569, Note_on_c, 0, 44, 42
1, 67571, Note_on_c, 9, 51, 94
1, 67621, Note_on_c, 0, 56, 0
1, 67645, Note_on_c, 0, 44, 0
1, 67677, Note_on_c, 0, 45, 44
1, 67685, Note_on_c, 0, 57, 43
1, 67689, Note_on_c, 0, 59, 37
1, 67709, Note_on_c, 0, 57, 0
1, 67713, Note_on_c, 0, 59, 0
1, 67729, Note_on_c, 0, 45, 0
1, 67745, Note_on_c, 0, 48, 50
1, 67753, Note_on_c, 0, 60, 57
1, 67765, Note_on_c, 0, 48, 0
1, 67801, Note_on_c, 1, 41, 31
1, 67805, Note_on_c, 0, 60, 0
1, 67833, Note_on_c, 1, 41, 0
1, 67861, Note_on_c, 0, 64, 59
1, 67873, Note_on_c, 0, 52, 54
1, 67879, Note_on_c, 9, 51, 0
1, 67893, Note_on_c, 0, 52, 0
1, 67909, Note_on_c, 0, 64, 0
1, 67909, Note_on_c, 1, 48, 0
1, 67921, Note_on_c, 0, 55, 66
1, 67929, Note_on_c, 1, 45, 75
1, 67937, Note_on_c, 0, 67, 77
1, 67955, Note_on_c, 9, 51, 68
1, 67959, Note_on_c, 9, 44, 80
1, 68005, Note_on_c, 0, 55, 0
1, 68013, Note_on_c, 0, 67, 0
1, 68057, Note_on_c, 0, 52, 43
1, 68061, Note_on_c, 0, 64, 41
1, 68093, Note_on_c, 0, 64, 0
1, 68097, Note_on_c, 9, 44, 0
1, 68113, Note_on_c, 0, 52, 0
1, 68133, Note_on_c, 0, 65, 76
1, 68133, Note_on_c, 0, 53, 57
1, 68165, Note_on_c, 1, 41, 35
1, 68179, Note_on_c, 9, 51, 0
1, 68193, Note_on_c, 1, 41, 0
1, 68211, Note_on_c, 9, 51, 59
1, 68275, Note_on_c, 9, 51, 0
1, 68305, Note_on_c, 0, 53, 0
1, 68313, Note_on_c, 0, 65, 0
1, 68313, Note_on_c, 1, 45, 0
1, 68317, Note_on_c, 0, 50, 56
1, 68321, Note_on_c, 0, 62, 56
1, 68325, Note_on_c, 1, 46, 81
1, 68339, Note_on_c, 9, 51, 73
1, 68409, Note_on_c, 0, 50, 0
1, 68437, Note_on_c, 0, 62, 0
1, 68445, Note_on_c, 0, 45, 55
1, 68449, Note_on_c, 0, 57, 57
1, 68513, Note_on_c, 0, 45, 0
1, 68529, Note_on_c, 0, 57, 0
1, 68585, Note_on_c, 9, 35, 75
1, 68659, Note_on_c, 9, 51, 0
1, 68689, Note_on_c, 9, 35, 0
1, 68697, Note_on_c, 0, 57, 67
1, 68697, Note_on_c, 0, 45, 61
1, 68717, Note_on_c, 1, 41, 73
1, 68721, Note_on_c, 1, 46, 0
1, 68723, Note_on_c, 9, 51, 87
1, 68727, Note_on_c, 9, 44, 98
1, 68739, Note_on_c, 9, 35, 26
1, 68791, Note_on_c, 9, 35, 0
1, 68833, Note_on_c, 0, 57, 0
1, 68841, Note_on_c, 0, 45, 0
1, 68865, Note_on_c, 9, 44, 0
1, 68901, Note_on_c, 0, 46, 57
1, 68913, Note_on_c, 0, 58, 56
1, 68937, Note_on_c, 9, 51, 0
1, 68953, Note_on_c, 1, 41, 0
1, 68957, Note_on_c, 1, 34, 78
1, 68979, Note_on_c, 9, 51, 57
1, 68993, Note_on_c, 0, 58, 0
1, 69017, Note_on_c, 0, 60, 66
1, 69021, Note_on_c, 0, 48, 63
1, 69047, Note_on_c, 9, 51, 0
1, 69065, Note_on_c, 0, 46, 0
1, 69081, Note_on_c, 0, 60, 0
1, 69085, Note_on_c, 1, 33, 80
1, 69089, Note_on_c, 0, 48, 0
1, 69105, Note_on_c, 1, 34, 0
1, 69107, Note_on_c, 9, 51, 94
1, 69121, Note_on_c, 0, 51, 59
1, 69141, Note_on_c, 0, 51, 0
1, 69145, Note_on_c, 0, 63, 22
1, 69177, Note_on_c, 0, 63, 0
1, 69233, Note_on_c, 0, 62, 46
1, 69245, Note_on_c, 0, 64, 46
1, 69269, Note_on_c, 0, 64, 0
1, 69277, Note_on_c, 0, 62, 0
1, 69313, Note_on_c, 0, 67, 63
1, 69319, Note_on_c, 9, 51, 0
1, 69325, Note_on_c, 1, 33, 0
1, 69341, Note_on_c, 1, 40, 86
1, 69361, Note_on_c, 0, 67, 0
1, 69363, Note_on_c, 9, 51, 61
1, 69413, Note_on_c, 0, 69, 68
1, 69415, Note_on_c, 9, 51, 0
1, 69453, Note_on_c, 1, 40, 0
1, 69473, Note_on_c, 0, 69, 0
1, 69473, Note_on_c, 1, 36, 73
1, 69485, Note_on_c, 0, 65, 60
1, 69491, Note_on_c, 9, 51, 98
1, 69493, Note_on_c, 0, 60, 46
1, 69495, Note_on_c, 9, 44, 80
1, 69497, Note_on_c, 0, 72, 82
1, 69501, Note_on_c, 0, 61, 42
1, 69505, Note_on_c, 0, 55, 52
1, 69513, Note_on_c, 0, 58, 41
1, 69581, Note_on_c, 0, 72, 0
1, 69605, Note_on_c, 0, 69, 69
1, 69649, Note_on_c, 9, 44, 0
1, 69661, Note_on_c, 0, 69, 0
1, 69693, Note_on_c, 0, 70, 63
1, 69713, Note_on_c, 1, 36, 0
1, 69725, Note_on_c, 1, 37, 78
1, 69741, Note_on_c, 0, 65, 0
1, 69751, Note_on_c, 9, 35, 54
1, 69753, Note_on_c, 0, 55, 0
1, 69761, Note_on_c, 0, 60, 0
1, 69765, Note_on_c, 0, 70, 0
1, 69773, Note_on_c, 0, 61, 0
1, 69773, Note_on_c, 0, 58, 0
1, 69779, Note_on_c, 9, 51, 0
1, 69783, Note_on_c, 9, 35, 0
1, 69789, Note_on_c, 0, 72, 85
1, 69857, Note_on_c, 1, 37, 0
1, 69861, Note_on_c, 1, 38, 67
1, 69869, Note_on_c, 0, 72, 0
1, 69875, Note_on_c, 9, 51, 70
1, 69879, Note_on_c, 9, 35, 36
1, 69885, Note_on_c, 0, 73, 74
1, 69889, Note_on_c, 0, 64, 57
1, 69901, Note_on_c, 0, 60, 46
1, 69909, Note_on_c, 0, 54, 44
1, 69913, Note_on_c, 9, 35, 0
1, 69997, Note_on_c, 0, 75, 68
1, 70009, Note_on_c, 0, 73, 0
1, 70053, Note_on_c, 0, 75, 0
1, 70097, Note_on_c, 0, 77, 59
1, 70101, Note_on_c, 1, 51, 88
1, 70115, Note_on_c, 9, 51, 0
1, 70125, Note_on_c, 0, 64, 0
1, 70131, Note_on_c, 9, 51, 45
1, 70137, Note_on_c, 0, 77, 0
1, 70153, Note_on_c, 0, 60, 0
1, 70189, Note_on_c, 0, 79, 81
1, 70199, Note_on_c, 9, 51, 0
1, 70213, Note_on_c, 0, 54, 0
1, 70233, Note_on_c, 0, 79, 0
1, 70259, Note_on_c, 9, 51, 80
1, 70263, Note_on_c, 9, 44, 87
1, 70277, Note_on_c, 0, 64, 49
1, 70281, Note_on_c, 0, 54, 41
1, 70289, Note_on_c, 0, 60, 45
1, 70293, Note_on_c, 0, 80, 57
1, 70345, Note_on_c, 0, 80, 0
1, 70345, Note_on_c, 1, 51, 0
1, 70357, Note_on_c, 0, 81, 60
1, 70369, Note_on_c, 1, 38, 0
1, 70381, Note_on_c, 1, 50, 68
1, 70391, Note_on_c, 9, 44, 0
1, 70397, Note_on_c, 0, 81, 0
1, 70397, Note_on_c, 1, 51, 43
1, 70401, Note_on_c, 9, 35, 52
1, 70417, Note_on_c, 0, 60, 0
1, 70421, Note_on_c, 1, 51, 0
1, 70421, Note_on_c, 0, 84, 85
1, 70423, Note_on_c, 9, 35, 0
1, 70429, Note_on_c, 0, 64, 0
1, 70457, Note_on_c, 9, 51, 0
1, 70469, Note_on_c, 1, 50, 0
1, 70497, Note_on_c, 0, 84, 0
1, 70501, Note_on_c, 1, 48, 67
1, 70509, Note_on_c, 0, 79, 54
1, 70513, Note_on_c, 0, 54, 0
1, 70515, Note_on_c, 9, 51, 47
1, 70519, Note_on_c, 9, 35, 47
1, 70545, Note_on_c, 9, 35, 0
1, 70549, Note_on_c, 0, 80, 52
1, 70563, Note_on_c, 9, 51, 0
1, 70569, Note_on_c, 1, 48, 0
1, 70577, Note_on_c, 0, 79, 0
1, 70577, Note_on_c, 0, 80, 0
1, 70593, Note_on_c, 0, 81, 51
1, 70637, Note_on_c, 0, 84, 75
1, 70641, Note_on_c, 0, 81, 0
1, 70641, Note_on_c, 0, 62, 41
1, 70641, Note_on_c, 1, 46, 60
1, 70643, Note_on_c, 9, 51, 108
1, 70649, Note_on_c, 0, 58, 48
1, 70657, Note_on_c, 0, 53, 34
1, 70661, Note_on_c, 0, 57, 33
1, 70701, Note_on_c, 0, 84, 0
1, 70717, Note_on_c, 0, 79, 50
1, 70741, Note_on_c, 0, 80, 53
1, 70757, Note_on_c, 0, 80, 0
1, 70785, Note_on_c, 0, 81, 52
1, 70813, Note_on_c, 0, 79, 0
1, 70829, Note_on_c, 0, 81, 0
1, 70849, Note_on_c, 0, 74, 63
1, 70897, Note_on_c, 1, 42, 57
1, 70913, Note_on_c, 0, 74, 0
1, 70925, Note_on_c, 1, 42, 0
1, 70929, Note_on_c, 0, 58, 0
1, 70929, Note_on_c, 0, 62, 0
1, 70953, Note_on_c, 0, 77, 66
1, 70979, Note_on_c, 9, 51, 0
1, 70997, Note_on_c, 1, 46, 0
1, 71017, Note_on_c, 0, 57, 0
1, 71021, Note_on_c, 1, 45, 73
1, 71025, Note_on_c, 9, 51, 68
1, 71031, Note_on_c, 9, 44, 89
1, 71041, Note_on_c, 0, 77, 0
1, 71045, Note_on_c, 0, 74, 63
1, 71061, Note_on_c, 0, 62, 41
1, 71065, Note_on_c, 0, 74, 0
1, 71073, Note_on_c, 0, 53, 0
1, 71073, Note_on_c, 0, 58, 39
1, 71121, Note_on_c, 9, 44, 0
1, 71129, Note_on_c, 0, 77, 63
1, 71137, Note_on_c, 0, 57, 1
1, 71201, Note_on_c, 0, 77, 0
1, 71225, Note_on_c, 9, 51, 0
1, 71229, Note_on_c, 0, 84, 81
1, 71233, Note_on_c, 1, 38, 29
1, 71241, Note_on_c, 0, 62, 0
1, 71249, Note_on_c, 0, 58, 0
1, 71269, Note_on_c, 1, 38, 0
1, 71281, Note_on_c, 9, 51, 64
1, 71333, Note_on_c, 0, 57, 0
1, 71353, Note_on_c, 9, 51, 0
1, 71385, Note_on_c, 1, 45, 0
1, 71409, Note_on_c, 0, 84, 0
1, 71409, Note_on_c, 1, 43, 62
1, 71411, Note_on_c, 9, 51, 77
1, 71417, Note_on_c, 0, 81, 70
1, 71425, Note_on_c, 0, 58, 49
1, 71429, Note_on_c, 0, 57, 21
1, 71429, Note_on_c, 0, 62, 40
1, 71577, Note_on_c, 0, 58, 0
1, 71601, Note_on_c, 0, 62, 0
1, 71633, Note_on_c, 0, 57, 0
1, 71633, Control_c, 0, 64, 127
1, 71639, Note_on_c, 9, 35, 57
1, 71661, Note_on_c, 1, 38, 61
1, 71665, Note_on_c, 9, 35, 0
1, 71669, Note_on_c, 1, 43, 0
1, 71673, Note_on_c, 0, 74, 55
1, 71685, Control_c, 0, 64, 0
1, 71689, Note_on_c, 9, 51, 0
1, 71785, Note_on_c, 1, 38, 0
1, 71793, Note_on_c, 1, 34, 65
1, 71795, Note_on_c, 9, 51, 64
1, 71797, Control_c, 0, 64, 127
1, 71799, Note_on_c, 9, 44, 117
1, 71801, Note_on_c, 0, 62, 39
1, 71801, Note_on_c, 0, 58, 43
1, 71805, Note_on_c, 0, 57, 39
1, 71885, Note_on_c, 9, 44, 0
1, 71961, Note_on_c, 9, 51, 0
1, 72007, Note_on_c, 9, 35, 68
1, 72045, Note_on_c, 9, 35, 0
1, 72051, Note_on_c, 9, 51, 84
1, 72061, Note_on_c, 0, 53, 47
1, 72085, Note_on_c, 0, 57, 0
1, 72113, Note_on_c, 0, 74, 0
1, 72113, Note_on_c, 0, 62, 0
1, 72117, Note_on_c, 0, 53, 0
1, 72117, Note_on_c, 0, 58, 0
1, 72119, Note_on_c, 9, 51, 0
1, 72137, Note_on_c, 9, 46, 52
1, 72145, Note_on_c, 9, 35, 64
1, 72149, Control_c, 0, 64, 0
1, 72165, Note_on_c, 1, 34, 0
1, 72177, Note_on_c, 1, 36, 68
1, 72179, Note_on_c, 9, 51, 87
1, 72193, Note_on_c, 0, 58, 33
1, 72193, Note_on_c, 0, 52, 49
1, 72193, Note_on_c, 0, 62, 39
1, 72209, Note_on_c, 0, 81, 0
1, 72221, Note_on_c, 9, 46, 0
1, 72263, Note_on_c, 9, 35, 0
1, 72337, Note_on_c, 0, 62, 0
1, 72361, Note_on_c, 0, 52, 0
1, 72381, Note_on_c, 0, 58, 0
1, 72397, Control_c, 0, 64, 127
1, 72441, Note_on_c, 1, 34, 43
1, 72467, Note_on_c, 9, 51, 0
1, 72529, Control_c, 0, 64, 0
1, 72533, Note_on_c, 1, 50, 87
1, 72541, Note_on_c, 1, 36, 0
1, 72563, Note_on_c, 9, 51, 87
1, 72565, Note_on_c, 1, 34, 0
1, 72565, Note_on_c, 0, 58, 44
1, 72567, Note_on_c, 0, 52, 48
1, 72567, Note_on_c, 9, 44, 112
1, 72657, Note_on_c, 9, 44, 0
1, 72673, Note_on_c, 0, 58, 0
1, 72789, Note_on_c, 0, 56, 39
1, 72817, Note_on_c, 0, 89, 58
1, 72819, Note_on_c, 9, 35, 47
1, 72833, Note_on_c, 0, 89, 0
1, 72851, Note_on_c, 9, 35, 0
1, 72873, Note_on_c, 9, 51, 0
1, 72901, Note_on_c, 0, 56, 0
1, 72917, Note_on_c, 1, 50, 0
1, 72937, Note_on_c, 1, 48, 68
1, 72941, Note_on_c, 0, 94, 74
1, 72945, Note_on_c, 0, 59, 58
1, 72947, Note_on_c, 9, 51, 82
1, 72969, Note_on_c, 0, 94, 0
1, 73033, Note_on_c, 0, 59, 0
1, 73061, Note_on_c, 0, 58, 58
1, 73065, Note_on_c, 0, 94, 79
1, 73105, Note_on_c, 0, 94, 0
1, 73137, Note_on_c, 0, 58, 0
1, 73181, Note_on_c, 0, 92, 74
1, 73189, Note_on_c, 0, 56, 56
1, 73201, Note_on_c, 1, 39, 57
1, 73225, Note_on_c, 1, 48, 0
1, 73245, Note_on_c, 0, 92, 0
1, 73257, Note_on_c, 0, 52, 0
1, 73265, Note_on_c, 0, 56, 0
1, 73267, Note_on_c, 9, 51, 0
1, 73293, Note_on_c, 1, 39, 0
1, 73305, Note_on_c, 0, 52, 20
1, 73317, Note_on_c, 1, 40, 61
1, 73321, Note_on_c, 0, 89, 29
1, 73331, Note_on_c, 9, 51, 73
1, 73335, Note_on_c, 9, 44, 105
1, 73337, Note_on_c, 0, 52, 0
1, 73353, Note_on_c, 0, 89, 0
1, 73447, Note_on_c, 9, 44, 0
1, 73553, Note_on_c, 0, 56, 61
1, 73557, Note_on_c, 0, 92, 82
1, 73603, Note_on_c, 9, 35, 49
1, 73651, Note_on_c, 9, 51, 0
1, 73667, Note_on_c, 9, 35, 0
1, 73681, Note_on_c, 0, 92, 0
1, 73685, Note_on_c, 0, 56, 0
1, 73693, Note_on_c, 1, 40, 0
1, 73705, Note_on_c, 0, 87, 56
1, 73713, Note_on_c, 0, 51, 41
1, 73713, Note_on_c, 1, 41, 60
1, 73715, Note_on_c, 9, 51, 73
1, 73747, Note_on_c, 9, 35, 24
1, 73785, Note_on_c, 0, 51, 0
1, 73785, Note_on_c, 0, 87, 0
1, 73795, Note_on_c, 9, 35, 0
1, 73817, Note_on_c, 0, 88, 58
1, 73841, Note_on_c, 0, 52, 48
1, 73897, Note_on_c, 0, 52, 0
1, 73905, Note_on_c, 0, 88, 0
1, 73945, Note_on_c, 0, 91, 84
1, 73949, Note_on_c, 1, 41, 0
1, 73949, Note_on_c, 0, 55, 62
1, 73957, Note_on_c, 1, 35, 65
1, 74039, Note_on_c, 9, 51, 0
1, 74057, Note_on_c, 0, 55, 0
1, 74061, Note_on_c, 0, 91, 0
1, 74077, Note_on_c, 0, 88, 50
1, 74081, Note_on_c, 1, 35, 0
1, 74085, Note_on_c, 0, 52, 43
1, 74093, Note_on_c, 1, 36, 66
1, 74099, Note_on_c, 9, 51, 80
1, 74103, Note_on_c, 9, 44, 101
1, 74165, Note_on_c, 0, 52, 0
1, 74169, Note_on_c, 0, 88, 0
1, 74193, Note_on_c, 0, 89, 58
1, 74197, Note_on_c, 0, 53, 49
1, 74231, Note_on_c, 9, 44, 0
1, 74293, Note_on_c, 0, 89, 0
1, 74307, Note_on_c, 9, 51, 0
1, 74329, Note_on_c, 0, 48, 54
1, 74333, Note_on_c, 0, 84, 49
1, 74343, Note_on_c, 9, 35, 49
1, 74355, Note_on_c, 9, 51, 68
1, 74375, Note_on_c, 9, 35, 0
1, 74429, Note_on_c, 0, 84, 0
1, 74433, Note_on_c, 0, 48, 0
1, 74439, Note_on_c, 9, 51, 0
1, 74469, Note_on_c, 0, 41, 50
1, 74473, Note_on_c, 1, 36, 0
1, 74477, Note_on_c, 1, 28, 68
1, 74483, Note_on_c, 9, 51, 85
1, 74489, Note_on_c, 0, 81, 40
1, 74585, Note_on_c, 0, 81, 0
1, 74585, Note_on_c, 0, 41, 0
1, 74589, Note_on_c, 0, 53, 0
1, 74797, Note_on_c, 1, 28, 0
1, 74803, Note_on_c, 9, 51, 0
1, 74845, Note_on_c, 1, 28, 81
1, 74865, Note_on_c, 0, 65, 58
1, 74867, Note_on_c, 9, 51, 63
1, 74869, Note_on_c, 0, 54, 55
1, 74871, Note_on_c, 9, 44, 103
1, 74985, Control_c, 0, 64, 127
1, 75005, Note_on_c, 0, 54, 0
1, 75017, Note_on_c, 9, 44, 0
1, 75053, Note_on_c, 0, 65, 0
1, 75177, Note_on_c, 9, 51, 0
1, 75213, Control_c, 0, 64, 0
1, 75225, Note_on_c, 1, 28, 0
1, 75241, Note_on_c, 0, 67, 56
1, 75245, Note_on_c, 1, 29, 71
1, 75249, Note_on_c, 0, 63, 49
1, 75251, Note_on_c, 9, 51, 85
1, 75253, Note_on_c, 0, 57, 42
1, 75257, Note_on_c, 0, 62, 39
1, 75265, Note_on_c, 9, 35, 35
1, 75293, Control_c, 0, 64, 127
1, 75299, Note_on_c, 9, 35, 0
1, 75405, Note_on_c, 0, 57, 0
1, 75457, Note_on_c, 0, 63, 0
1, 75465, Note_on_c, 0, 62, 0
1, 75477, Note_on_c, 0, 67, 0
1, 75571, Note_on_c, 9, 51, 0
1, 75605, Note_on_c, 1, 29, 0
1, 75625, Control_c, 0, 64, 0
1, 75625, Note_on_c, 1, 33, 77
1, 75633, Note_on_c, 0, 68, 61
1, 75635, Note_on_c, 9, 51, 75
1, 75637, Note_on_c, 0, 58, 52
1, 75639, Note_on_c, 9, 44, 106
1, 75645, Note_on_c, 0, 64, 48
1, 75669, Note_on_c, 0, 62, 39
1, 75721, Control_c, 0, 64, 127
1, 75761, Note_on_c, 0, 64, 0
1, 75761, Note_on_c, 9, 44, 0
1, 75805, Note_on_c, 0, 62, 0
1, 75837, Note_on_c, 0, 68, 0
1, 75873, Note_on_c, 0, 58, 0
1, 75929, Note_on_c, 9, 35, 29
1, 75945, Note_on_c, 9, 51, 0
1, 75965, Note_on_c, 9, 35, 0
1, 75997, Control_c, 0, 64, 0
1, 76001, Note_on_c, 1, 33, 0
1, 76009, Note_on_c, 1, 38, 72
1, 76019, Note_on_c, 9, 51, 70
1, 76029, Note_on_c, 0, 67, 47
1, 76037, Note_on_c, 0, 57, 41
1, 76045, Note_on_c, 0, 63, 40
1, 76243, Note_on_c, 9, 51, 0
1, 76275, Note_on_c, 9, 51, 84
1, 76289, Note_on_c, 1, 39, 81
1, 76301, Note_on_c, 0, 67, 0
1, 76305, Note_on_c, 0, 82, 81
1, 76307, Note_on_c, 9, 34, 36
1, 76321, Note_on_c, 1, 38, 0
1, 76343, Note_on_c, 9, 51, 0
1, 76343, Note_on_c, 9, 34, 0
1, 76361, Note_on_c, 0, 63, 0
1, 76397, Note_on_c, 1, 39, 0
1, 76403, Note_on_c, 9, 51, 91
1, 76405, Note_on_c, 1, 40, 81
1, 76407, Note_on_c, 9, 44, 110
1, 76413, Note_on_c, 0, 82, 0
1, 76421, Note_on_c, 0, 63, 13
1, 76425, Note_on_c, 0, 83, 61
1, 76429, Note_on_c, 0, 57, 0
1, 76517, Note_on_c, 0, 63, 0
1, 76525, Note_on_c, 0, 86, 76
1, 76541, Note_on_c, 9, 44, 0
1, 76553, Note_on_c, 0, 83, 0
1, 76577, Note_on_c, 9, 34, 43
1, 76593, Note_on_c, 0, 86, 0
1, 76595, Note_on_c, 9, 34, 0
1, 76613, Note_on_c, 0, 89, 94
1, 76679, Note_on_c, 9, 34, 43
1, 76701, Note_on_c, 0, 89, 0
1, 76707, Note_on_c, 9, 51, 0
1, 76709, Note_on_c, 0, 86, 75
1, 76769, Note_on_c, 0, 86, 0
1, 76769, Note_on_c, 1, 40, 0
1, 76773, Note_on_c, 1, 41, 72
1, 76785, Note_on_c, 9, 34, 0
1, 76787, Note_on_c, 9, 51, 92
1, 76805, Note_on_c, 0, 87, 72
1, 76807, Note_on_c, 0, 67, 39
1, 76807, Note_on_c, 9, 57, 19
1, 76819, Note_on_c, 0, 63, 36
1, 76819, Note_on_c, 9, 35, 63
1, 76821, Note_on_c, 0, 62, 30
1, 76825, Note_on_c, 9, 57, 0
1, 76877, Note_on_c, 9, 35, 0
1, 76893, Note_on_c, 0, 87, 0
1, 76913, Note_on_c, 0, 83, 56
1, 76969, Note_on_c, 0, 67, 0
1, 76977, Note_on_c, 0, 62, 0
1, 76981, Note_on_c, 0, 83, 0
1, 76997, Note_on_c, 0, 63, 0
1, 77005, Note_on_c, 0, 86, 71
1, 77073, Note_on_c, 0, 86, 0
1, 77079, Note_on_c, 9, 51, 0
1, 77081, Note_on_c, 1, 39, 31
1, 77109, Note_on_c, 0, 84, 57
1, 77161, Note_on_c, 1, 55, 75
1, 77169, Note_on_c, 0, 84, 0
1, 77171, Note_on_c, 9, 51, 82
1, 77175, Note_on_c, 1, 39, 0
1, 77175, Note_on_c, 9, 44, 112
1, 77209, Note_on_c, 0, 63, 36
1, 77209, Note_on_c, 0, 67, 32
1, 77221, Note_on_c, 1, 41, 0
1, 77225, Note_on_c, 0, 57, 31
1, 77313, Note_on_c, 9, 44, 0
1, 77337, Note_on_c, 9, 51, 0
1, 77397, Note_on_c, 0, 67, 0
1, 77413, Note_on_c, 0, 63, 0
1, 77421, Note_on_c, 0, 78, 69
1, 77425, Note_on_c, 9, 35, 49
1, 77427, Note_on_c, 9, 51, 68
1, 77447, Note_on_c, 9, 35, 0
1, 77453, Note_on_c, 1, 43, 46
1, 77489, Note_on_c, 1, 43, 0
1, 77507, Note_on_c, 9, 51, 0
1, 77521, Note_on_c, 1, 55, 0
1, 77525, Note_on_c, 0, 78, 0
1, 77549, Note_on_c, 1, 53, 70
1, 77555, Note_on_c, 9, 51, 80
1, 77561, Note_on_c, 0, 63, 48
1, 77569, Note_on_c, 0, 67, 35
1, 77573, Note_on_c, 0, 78, 66
1, 77597, Note_on_c, 0, 67, 0
1, 77617, Note_on_c, 0, 63, 0
1, 77637, Note_on_c, 0, 57, 0
1, 77765, Note_on_c, 0, 78, 0
1, 77813, Note_on_c, 0, 77, 62
1, 77821, Note_on_c, 1, 48, 34
1, 77853, Note_on_c, 1, 48, 0
1, 77859, Note_on_c, 9, 51, 0
1, 77865, Note_on_c, 0, 77, 0
1, 77905, Note_on_c, 1, 53, 0
1, 77929, Note_on_c, 1, 52, 72
1, 77939, Note_on_c, 9, 51, 80
1, 77941, Note_on_c, 0, 48, 47
1, 77943, Note_on_c, 9, 44, 117
1, 78025, Control_c, 0, 64, 127
1, 78033, Note_on_c, 9, 44, 0
1, 78125, Note_on_c, 0, 48, 0
1, 78193, Note_on_c, 0, 41, 57
1, 78213, Note_on_c, 0, 41, 0
1, 78227, Note_on_c, 9, 51, 0
1, 78289, Note_on_c, 1, 52, 0
1, 78309, Note_on_c, 1, 51, 68
1, 78317, Control_c, 0, 64, 0
1, 78323, Note_on_c, 9, 51, 89
1, 78323, Note_on_c, 9, 35, 45
1, 78333, Note_on_c, 0, 65, 64
1, 78333, Note_on_c, 0, 53, 58
1, 78337, Note_on_c, 0, 57, 57
1, 78337, Note_on_c, 0, 60, 55
1, 78337, Note_on_c, 0, 63, 47
1, 78361, Note_on_c, 9, 35, 0
1, 78421, Pitch_bend_c, 1, 8192
1, 78433, Control_c, 0, 64, 127
1, 78441, Pitch_bend_c, 1, 8452
1, 78445, Note_on_c, 0, 65, 0
1, 78445, Pitch_bend_c, 1, 8712
1, 78449, Pitch_bend_c, 1, 8972
1, 78457, Pitch_bend_c, 1, 9102
1, 78461, Pitch_bend_c, 1, 9492
1, 78465, Pitch_bend_c, 1, 9622
1, 78473, Pitch_bend_c, 1, 9752
1, 78489, Pitch_bend_c, 1, 9622
1, 78493, Note_on_c, 0, 57, 0
1, 78493, Pitch_bend_c, 1, 9492
1, 78497, Note_on_c, 0, 60, 0
1, 78497, Pitch_bend_c, 1, 9362
1, 78501, Pitch_bend_c, 1, 8842
1, 78509, Pitch_bend_c, 1, 8452
1, 78513, Pitch_bend_c, 1, 8192
1, 78533, Note_on_c, 0, 63, 0
1, 78557, Control_c, 0, 64, 0
1, 78577, Note_on_c, 0, 61, 87
1, 78581, Note_on_c, 0, 54, 83
1, 78581, Note_on_c, 0, 66, 85
1, 78589, Note_on_c, 0, 57, 81
1, 78589, Note_on_c, 0, 63, 57
1, 78597, Control_c, 0, 64, 127
1, 78615, Note_on_c, 9, 51, 0
1, 78617, Note_on_c, 0, 53, 0
1, 78629, Pitch_bend_c, 1, 8452
1, 78633, Pitch_bend_c, 1, 9102
1, 78637, Pitch_bend_c, 1, 9752
1, 78645, Pitch_bend_c, 1, 10402
1, 78649, Pitch_bend_c, 1, 10922
1, 78653, Pitch_bend_c, 1, 11572
1, 78657, Note_on_c, 0, 61, 0
1, 78657, Pitch_bend_c, 1, 12222
1, 78665, Pitch_bend_c, 1, 12482
1, 78669, Note_on_c, 0, 57, 0
1, 78669, Pitch_bend_c, 1, 12612
1, 78681, Note_on_c, 0, 66, 0
1, 78681, Pitch_bend_c, 1, 12352
1, 78685, Control_c, 0, 64, 0
1, 78685, Pitch_bend_c, 1, 11832
1, 78689, Pitch_bend_c, 1, 11312
1, 78697, Pitch_bend_c, 1, 10662
1, 78701, Note_on_c, 0, 63, 0
1, 78701, Pitch_bend_c, 1, 9752
1, 78705, Pitch_bend_c, 1, 8582
1, 78707, Note_on_c, 9, 51, 61
1, 78709, Pitch_bend_c, 1, 8192
1, 78711, Note_on_c, 9, 44, 110
1, 78717, Note_on_c, 0, 67, 77
1, 78717, Note_on_c, 0, 63, 36
1, 78717, Note_on_c, 0, 57, 72
1, 78725, Note_on_c, 0, 55, 75
1, 78725, Note_on_c, 0, 60, 73
1, 78741, Note_on_c, 0, 54, 0
1, 78773, Note_on_c, 0, 57, 0
1, 78777, Note_on_c, 0, 60, 0
1, 78777, Note_on_c, 0, 67, 0
1, 78809, Note_on_c, 0, 63, 0
1, 78823, Note_on_c, 9, 44, 0
1, 78841, Note_on_c, 0, 61, 63
1, 78841, Note_on_c, 0, 68, 70
1, 78845, Note_on_c, 0, 56, 67
1, 78849, Note_on_c, 0, 58, 34
1, 78877, Note_on_c, 0, 58, 0
1, 78877, Note_on_c, 0, 55, 0
1, 78889, Note_on_c, 9, 51, 0
1, 78897, Note_on_c, 0, 61, 0
1, 78905, Note_on_c, 0, 68, 0
1, 78935, Note_on_c, 9, 35, 50
1, 78957, Note_on_c, 0, 69, 76
1, 78957, Note_on_c, 0, 60, 82
1, 78963, Note_on_c, 9, 51, 68
1, 78965, Note_on_c, 0, 62, 75
1, 78965, Note_on_c, 0, 57, 75
1, 78969, Note_on_c, 0, 56, 0
1, 78969, Note_on_c, 0, 65, 57
1, 78977, Note_on_c, 9, 35, 0
1, 78999, Note_on_c, 9, 51, 0
1, 79013, Note_on_c, 0, 65, 0
1, 79013, Note_on_c, 0, 62, 0
1, 79017, Note_on_c, 0, 60, 0
1, 79029, Note_on_c, 0, 69, 0
1, 79033, Note_on_c, 0, 57, 0
1, 79089, Note_on_c, 0, 62, 77
1, 79091, Note_on_c, 0, 72, 64
1, 79091, Note_on_c, 9, 51, 75
1, 79093, Note_on_c, 0, 60, 75
1, 79093, Note_on_c, 0, 65, 61
1, 79093, Note_on_c, 0, 71, 66
1, 79093, Note_on_c, 0, 68, 47
1, 79101, Note_on_c, 1, 48, 66
1, 79113, Note_on_c, 0, 71, 0
1, 79113, Note_on_c, 0, 69, 52
1, 79125, Note_on_c, 0, 68, 0
1, 79125, Control_c, 0, 64, 127
1, 79149, Note_on_c, 1, 51, 0
1, 79165, Note_on_c, 0, 69, 0
1, 79185, Note_on_c, 0, 65, 0
1, 79193, Note_on_c, 0, 62, 0
1, 79213, Note_on_c, 0, 72, 0
1, 79237, Note_on_c, 0, 60, 0
1, 79337, Note_on_c, 0, 74, 85
1, 79341, Note_on_c, 0, 62, 84
1, 79341, Note_on_c, 0, 64, 63
1, 79345, Note_on_c, 0, 67, 76
1, 79345, Note_on_c, 0, 70, 69
1, 79345, Note_on_c, 0, 65, 79
1, 79397, Control_c, 0, 64, 0
1, 79399, Note_on_c, 9, 51, 0
1, 79413, Note_on_c, 0, 64, 0
1, 79425, Note_on_c, 0, 65, 0
1, 79433, Note_on_c, 0, 67, 0
1, 79441, Note_on_c, 0, 70, 0
1, 79449, Note_on_c, 0, 74, 0
1, 79475, Note_on_c, 9, 51, 73
1, 79479, Note_on_c, 9, 44, 101
1, 79481, Note_on_c, 1, 48, 0
1, 79481, Note_on_c, 1, 45, 58
1, 79489, Note_on_c, 0, 62, 0
1, 79489, Note_on_c, 0, 72, 58
1, 79489, Note_on_c, 0, 65, 64
1, 79493, Note_on_c, 0, 60, 63
1, 79493, Note_on_c, 0, 67, 56
1, 79497, Note_on_c, 0, 70, 43
1, 79505, Note_on_c, 0, 74, 37
1, 79529, Note_on_c, 0, 74, 0
1, 79545, Note_on_c, 0, 67, 0
1, 79549, Note_on_c, 0, 65, 0
1, 79565, Note_on_c, 0, 70, 0
1, 79569, Control_c, 0, 64, 127
1, 79607, Note_on_c, 9, 44, 0
1, 79625, Note_on_c, 0, 72, 0
1, 79651, Note_on_c, 9, 51, 0
1, 79665, Note_on_c, 0, 60, 0
1, 79713, Note_on_c, 0, 58, 60
1, 79717, Note_on_c, 0, 73, 56
1, 79721, Note_on_c, 0, 63, 58
1, 79725, Note_on_c, 0, 66, 58
1, 79729, Note_on_c, 0, 70, 46
1, 79731, Note_on_c, 9, 51, 84
1, 79753, Note_on_c, 0, 70, 0
1, 79785, Note_on_c, 0, 73, 0
1, 79785, Note_on_c, 0, 63, 0
1, 79785, Note_on_c, 1, 44, 39
1, 79797, Note_on_c, 0, 66, 0
1, 79799, Note_on_c, 9, 51, 0
1, 79801, Control_c, 0, 64, 0
1, 79817, Note_on_c, 1, 45, 0
1, 79821, Note_on_c, 1, 44, 0
1, 79825, Note_on_c, 0, 58, 0
1, 79845, Note_on_c, 1, 46, 63
1, 79853, Note_on_c, 0, 60, 63
1, 79857, Note_on_c, 0, 72, 57
1, 79859, Note_on_c, 9, 51, 96
1, 79865, Note_on_c, 0, 65, 56
1, 79865, Note_on_c, 0, 62, 55
1, 79869, Control_c, 0, 64, 127
1, 79875, Note_on_c, 9, 35, 33
1, 79881, Note_on_c, 0, 60, 0
1, 79909, Note_on_c, 0, 72, 0
1, 79917, Note_on_c, 0, 65, 0
1, 79917, Note_on_c, 0, 62, 0
1, 80051, Note_on_c, 9, 35, 0
1, 80141, Note_on_c, 1, 44, 31
1, 80151, Note_on_c, 9, 35, 33
1, 80169, Note_on_c, 9, 51, 0
1, 80185, Note_on_c, 9, 35, 0
1, 80205, Control_c, 0, 64, 0
1, 80221, Note_on_c, 1, 55, 85
1, 80233, Control_c, 0, 64, 127
1, 80243, Note_on_c, 9, 51, 73
1, 80247, Note_on_c, 9, 44, 99
1, 80249, Note_on_c, 1, 44, 0
1, 80253, Note_on_c, 1, 46, 0
1, 80369, Note_on_c, 9, 44, 0
1, 80501, Note_on_c, 1, 46, 22
1, 80505, Note_on_c, 0, 62, 72
1, 80505, Note_on_c, 0, 46, 67
1, 80509, Note_on_c, 0, 53, 73
1, 80509, Note_on_c, 0, 58, 66
1, 80513, Note_on_c, 0, 55, 66
1, 80531, Note_on_c, 9, 51, 0
1, 80541, Note_on_c, 1, 46, 0
1, 80617, Note_on_c, 1, 53, 76
1, 80627, Note_on_c, 9, 51, 89
1, 80641, Note_on_c, 1, 55, 0
1, 80697, Note_on_c, 0, 55, 0
1, 80697, Note_on_c, 0, 62, 0
1, 80697, Note_on_c, 1, 53, 0
1, 80729, Note_on_c, 1, 50, 37
1, 80733, Note_on_c, 0, 58, 0
1, 80741, Note_on_c, 0, 53, 0
1, 80765, Note_on_c, 1, 50, 0
1, 80853, Note_on_c, 1, 45, 55
1, 80889, Note_on_c, 0, 46, 0
1, 80889, Note_on_c, 0, 63, 65
1, 80893, Note_on_c, 0, 48, 64
1, 80901, Note_on_c, 0, 58, 68
1, 80901, Note_on_c, 0, 55, 67
1, 80905, Note_on_c, 9, 51, 0
1, 80913, Note_on_c, 0, 61, 45
1, 80957, Note_on_c, 0, 55, 0
1, 80973, Note_on_c, 0, 63, 0
1, 80977, Note_on_c, 1, 45, 0
1, 80977, Note_on_c, 0, 58, 0
1, 80977, Note_on_c, 0, 61, 0
1, 80997, Note_on_c, 1, 46, 57
1, 81011, Note_on_c, 9, 51, 92
1, 81015, Note_on_c, 9, 44, 98
1, 81017, Control_c, 0, 64, 0
1, 81045, Note_on_c, 0, 64, 58
1, 81049, Note_on_c, 0, 48, 0
1, 81053, Note_on_c, 0, 49, 63
1, 81053, Note_on_c, 1, 49, 15
1, 81089, Note_on_c, 0, 59, 29
1, 81097, Note_on_c, 0, 53, 25
1, 81097, Note_on_c, 0, 56, 11
1, 81137, Note_on_c, 9, 44, 0
1, 81137, Note_on_c, 0, 62, 17
1, 81161, Note_on_c, 0, 53, 0
1, 81173, Note_on_c, 0, 64, 0
1, 81173, Note_on_c, 0, 59, 0
1, 81181, Note_on_c, 0, 56, 0
1, 81193, Note_on_c, 0, 62, 0
1, 81193, Note_on_c, 9, 51, 0
1, 81221, Note_on_c, 0, 49, 0
1, 81267, Note_on_c, 9, 51, 89
1, 81281, Note_on_c, 0, 57, 69
1, 81285, Note_on_c, 0, 62, 57
1, 81285, Note_on_c, 0, 58, 61
1, 81285, Note_on_c, 0, 50, 60
1, 81285, Note_on_c, 1, 38, 27
1, 81289, Note_on_c, 0, 65, 49
1, 81315, Note_on_c, 9, 51, 0
1, 81317, Note_on_c, 1, 38, 0
1, 81395, Note_on_c, 9, 51, 91
1, 81409, Control_c, 0, 64, 127
1, 81409, Note_on_c, 1, 41, 54
1, 81415, Note_on_c, 9, 35, 31
1, 81437, Note_on_c, 1, 46, 0
1, 81441, Note_on_c, 9, 35, 0
1, 81445, Note_on_c, 1, 49, 0
1, 81489, Note_on_c, 0, 65, 0
1, 81489, Note_on_c, 0, 62, 0
1, 81509, Note_on_c, 0, 58, 0
1, 81521, Note_on_c, 0, 57, 0
1, 81617, Control_c, 0, 64, 0
1, 81629, Note_on_c, 0, 50, 0
1, 81665, Note_on_c, 0, 49, 54
1, 81671, Note_on_c, 9, 35, 47
1, 81673, Note_on_c, 0, 53, 51
1, 81677, Note_on_c, 0, 58, 48
1, 81681, Note_on_c, 0, 61, 41
1, 81697, Note_on_c, 9, 35, 0
1, 81703, Note_on_c, 9, 51, 0
1, 81721, Note_on_c, 0, 61, 0
1, 81733, Note_on_c, 0, 53, 0
1, 81733, Note_on_c, 0, 58, 0
1, 81779, Note_on_c, 9, 51, 64
1, 81781, Note_on_c, 1, 41, 0
1, 81783, Note_on_c, 9, 44, 96
1, 81785, Note_on_c, 1, 38, 69
1, 81797, Note_on_c, 0, 49, 0
1, 81801, Note_on_c, 0, 50, 54
1, 81905, Note_on_c, 9, 44, 0
1, 81909, Note_on_c, 0, 63, 52
1, 81909, Note_on_c, 0, 51, 60
1, 81921, Note_on_c, 0, 54, 30
1, 81925, Note_on_c, 0, 58, 41
1, 81937, Note_on_c, 0, 50, 0
1, 81961, Note_on_c, 9, 51, 0
1, 81961, Note_on_c, 0, 58, 0
1, 81969, Note_on_c, 0, 63, 0
1, 81973, Note_on_c, 0, 54, 0
1, 82009, Note_on_c, 0, 51, 0
1, 82029, Note_on_c, 0, 64, 60
1, 82033, Note_on_c, 0, 58, 61
1, 82033, Note_on_c, 0, 55, 56
1, 82033, Note_on_c, 0, 52, 73
1, 82035, Note_on_c, 9, 51, 56
1, 82049, Note_on_c, 0, 64, 0
1, 82057, Note_on_c, 0, 55, 0
1, 82057, Note_on_c, 0, 58, 0
1, 82087, Note_on_c, 9, 51, 0
1, 82145, Note_on_c, 0, 52, 0
1, 82149, Note_on_c, 0, 65, 68
1, 82153, Note_on_c, 0, 57, 68
1, 82157, Note_on_c, 1, 38, 0
1, 82161, Note_on_c, 1, 34, 75
1, 82163, Note_on_c, 9, 51, 52
1, 82165, Note_on_c, 0, 53, 57
1, 82169, Control_c, 0, 64, 127
1, 82179, Note_on_c, 9, 35, 33
1, 82193, Note_on_c, 0, 57, 0
1, 82213, Note_on_c, 0, 65, 0
1, 82229, Note_on_c, 0, 53, 0
1, 82311, Note_on_c, 9, 51, 0
1, 82359, Note_on_c, 9, 35, 0
1, 82389, Note_on_c, 0, 69, 76
1, 82393, Note_on_c, 0, 62, 74
1, 82393, Note_on_c, 0, 57, 83
1, 82397, Note_on_c, 0, 60, 78
1, 82397, Note_on_c, 0, 65, 60
1, 82419, Note_on_c, 9, 51, 112
1, 82433, Note_on_c, 9, 35, 31
1, 82437, Note_on_c, 0, 60, 0
1, 82441, Note_on_c, 0, 62, 0
1, 82453, Note_on_c, 0, 69, 0
1, 82457, Note_on_c, 0, 57, 0
1, 82457, Note_on_c, 0, 65, 0
1, 82465, Note_on_c, 9, 35, 0
1, 82481, Control_c, 0, 64, 0
1, 82483, Note_on_c, 9, 51, 0
1, 82517, Note_on_c, 1, 34, 0
1, 82525, Note_on_c, 0, 60, 80
1, 82529, Note_on_c, 0, 72, 86
1, 82533, Note_on_c, 0, 65, 85
1, 82537, Note_on_c, 0, 62, 81
1, 82541, Note_on_c, 1, 32, 79
1, 82547, Note_on_c, 9, 51, 84
1, 82551, Note_on_c, 9, 44, 94
1, 82605, Note_on_c, 0, 72, 0
1, 82609, Note_on_c, 0, 62, 0
1, 82613, Note_on_c, 0, 65, 0
1, 82617, Note_on_c, 0, 60, 0
1, 82645, Note_on_c, 0, 59, 61
1, 82649, Note_on_c, 0, 71, 74
1, 82657, Note_on_c, 0, 65, 66
1, 82657, Control_c, 0, 64, 127
1, 82661, Note_on_c, 0, 62, 46
1, 82663, Note_on_c, 9, 44, 0
1, 82685, Note_on_c, 0, 62, 0
1, 82689, Control_c, 0, 64, 0
1, 82701, Note_on_c, 0, 71, 0
1, 82705, Control_c, 0, 64, 88
1, 82709, Control_c, 0, 64, 127
1, 82717, Note_on_c, 0, 65, 0
1, 82725, Control_c, 0, 64, 0
1, 82737, Note_on_c, 0, 59, 0
1, 82753, Note_on_c, 0, 70, 77
1, 82757, Note_on_c, 0, 58, 64
1, 82761, Note_on_c, 0, 65, 50
1, 82769, Note_on_c, 0, 62, 57
1, 82781, Note_on_c, 0, 65, 0
1, 82781, Control_c, 0, 64, 127
1, 82789, Note_on_c, 0, 62, 0
1, 82797, Note_on_c, 0, 70, 0
1, 82813, Note_on_c, 0, 58, 0
1, 82853, Note_on_c, 0, 57, 34
1, 82857, Note_on_c, 9, 51, 0
1, 82865, Note_on_c, 0, 54, 63
1, 82877, Note_on_c, 0, 57, 0
1, 82901, Note_on_c, 1, 32, 0
1, 82913, Control_c, 0, 64, 0
1, 82929, Note_on_c, 0, 54, 0
1, 82929, Note_on_c, 1, 31, 72
1, 82931, Note_on_c, 9, 51, 96
1, 82961, Note_on_c, 0, 61, 45
1, 82969, Note_on_c, 0, 68, 63
1, 82973, Note_on_c, 0, 56, 66
1, 82973, Note_on_c, 0, 60, 58
1, 83021, Note_on_c, 0, 66, 22
1, 83029, Note_on_c, 0, 60, 0
1, 83053, Note_on_c, 0, 61, 0
1, 83061, Note_on_c, 0, 66, 0
1, 83077, Note_on_c, 0, 68, 0
1, 83077, Note_on_c, 0, 60, 66
1, 83085, Note_on_c, 0, 69, 60
1, 83093, Note_on_c, 0, 56, 0
1, 83093, Note_on_c, 0, 57, 56
1, 83093, Note_on_c, 0, 65, 49
1, 83093, Note_on_c, 0, 62, 52
1, 83121, Control_c, 0, 64, 127
1, 83201, Note_on_c, 0, 65, 0
1, 83205, Note_on_c, 0, 60, 0
1, 83205, Note_on_c, 0, 62, 0
1, 83217, Note_on_c, 0, 69, 0
1, 83229, Note_on_c, 1, 38, 31
1, 83239, Note_on_c, 9, 51, 0
1, 83249, Note_on_c, 0, 57, 0
1, 83261, Note_on_c, 1, 38, 0
1, 83305, Note_on_c, 1, 48, 96
1, 83315, Note_on_c, 9, 51, 63
1, 83319, Note_on_c, 9, 44, 91
1, 83321, Control_c, 0, 64, 0
1, 83341, Note_on_c, 0, 59, 57
1, 83381, Note_on_c, 1, 31, 0
1, 83405, Control_c, 0, 64, 127
1, 83409, Control_c, 0, 64, 0
1, 83415, Note_on_c, 9, 44, 0
1, 83445, Note_on_c, 0, 73, 71
1, 83449, Note_on_c, 0, 69, 52
1, 83457, Note_on_c, 0, 65, 45
1, 83457, Note_on_c, 0, 61, 66
1, 83477, Control_c, 0, 64, 127
1, 83481, Note_on_c, 0, 59, 0
1, 83489, Note_on_c, 0, 65, 0
1, 83505, Note_on_c, 0, 69, 0
1, 83507, Note_on_c, 9, 51, 0
1, 83513, Note_on_c, 0, 61, 0
1, 83525, Note_on_c, 0, 73, 0
1, 83549, Note_on_c, 0, 76, 87
1, 83553, Note_on_c, 0, 65, 75
1, 83557, Note_on_c, 0, 69, 75
1, 83557, Note_on_c, 0, 73, 66
1, 83561, Note_on_c, 0, 62, 85
1, 83569, Note_on_c, 1, 38, 53
1, 83571, Note_on_c, 9, 51, 50
1, 83575, Note_on_c, 9, 35, 68
1, 83577, Note_on_c, 0, 74, 43
1, 83597, Note_on_c, 0, 69, 0
1, 83597, Note_on_c, 0, 65, 0
1, 83601, Note_on_c, 0, 64, 17
1, 83605, Note_on_c, 1, 38, 0
1, 83613, Note_on_c, 0, 62, 0
1, 83617, Note_on_c, 0, 74, 0
1, 83621, Note_on_c, 0, 76, 0
1, 83629, Note_on_c, 0, 64, 0
1, 83629, Note_on_c, 0, 73, 0
1, 83641, Note_on_c, 9, 35, 0
1, 83651, Note_on_c, 9, 51, 0
1, 83653, Control_c, 0, 64, 0
1, 83673, Note_on_c, 0, 64, 82
1, 83677, Note_on_c, 0, 79, 107
1, 83677, Note_on_c, 0, 73, 82
1, 83677, Note_on_c, 0, 69, 98
1, 83685, Note_on_c, 1, 48, 0
1, 83693, Note_on_c, 1, 47, 75
1, 83699, Note_on_c, 9, 51, 96
1, 83713, Note_on_c, 9, 35, 43
1, 83757, Note_on_c, 0, 79, 0
1, 83765, Note_on_c, 0, 69, 0
1, 83777, Note_on_c, 0, 64, 0
1, 83777, Note_on_c, 0, 73, 0
1, 83777, Control_c, 0, 64, 127
1, 83793, Note_on_c, 0, 63, 72
1, 83801, Note_on_c, 0, 77, 71
1, 83805, Note_on_c, 0, 69, 71
1, 83841, Note_on_c, 0, 77, 0
1, 83849, Note_on_c, 0, 69, 0
1, 83873, Control_c, 0, 64, 0
1, 83877, Note_on_c, 0, 63, 0
1, 83913, Note_on_c, 0, 76, 85
1, 83913, Note_on_c, 0, 62, 68
1, 83917, Note_on_c, 0, 65, 75
1, 83917, Note_on_c, 0, 69, 78
1, 83921, Note_on_c, 9, 35, 0
1, 83997, Note_on_c, 0, 69, 0
1, 84005, Note_on_c, 0, 62, 0
1, 84005, Note_on_c, 0, 65, 0
1, 84013, Note_on_c, 0, 76, 0
1, 84029, Note_on_c, 0, 61, 59
1, 84035, Note_on_c, 9, 51, 0
1, 84045, Note_on_c, 0, 65, 57
1, 84049, Note_on_c, 0, 73, 52
1, 84053, Note_on_c, 0, 69, 41
1, 84065, Note_on_c, 1, 47, 0
1, 84081, Note_on_c, 1, 42, 77
1, 84083, Note_on_c, 9, 51, 68
1, 84087, Note_on_c, 9, 44, 73
1, 84137, Note_on_c, 0, 69, 0
1, 84141, Note_on_c, 0, 65, 0
1, 84145, Note_on_c, 0, 73, 0
1, 84165, Note_on_c, 0, 76, 72
1, 84169, Note_on_c, 0, 61, 0
1, 84173, Note_on_c, 0, 62, 68
1, 84177, Note_on_c, 0, 65, 45
1, 84181, Note_on_c, 0, 69, 57
1, 84185, Note_on_c, 9, 44, 0
1, 84225, Note_on_c, 0, 62, 0
1, 84225, Note_on_c, 0, 76, 0
1, 84225, Control_c, 0, 64, 127
1, 84253, Note_on_c, 0, 65, 0
1, 84253, Note_on_c, 0, 69, 0
1, 84277, Control_c, 0, 64, 0
1, 84293, Note_on_c, 0, 62, 60
1, 84293, Note_on_c, 0, 74, 73
1, 84301, Note_on_c, 0, 65, 61
1, 84305, Note_on_c, 0, 69, 59
1, 84339, Note_on_c, 9, 53, 124
1, 84341, Note_on_c, 0, 69, 0
1, 84355, Note_on_c, 9, 51, 0
1, 84357, Note_on_c, 0, 74, 0
1, 84357, Note_on_c, 0, 62, 0
1, 84381, Note_on_c, 0, 65, 0
1, 84433, Note_on_c, 0, 59, 56
1, 84435, Note_on_c, 9, 53, 0
1, 84445, Note_on_c, 0, 67, 36
1, 84453, Control_c, 0, 64, 127
1, 84457, Note_on_c, 1, 42, 0
1, 84457, Note_on_c, 0, 65, 27
1, 84457, Note_on_c, 0, 64, 31
1, 84461, Note_on_c, 1, 43, 77
1, 84467, Note_on_c, 9, 51, 54
1, 84501, Note_on_c, 0, 65, 0
1, 84561, Note_on_c, 0, 67, 0
1, 84569, Note_on_c, 0, 59, 0
1, 84613, Note_on_c, 0, 64, 0
1, 84685, Note_on_c, 0, 50, 58
1, 84757, Note_on_c, 0, 50, 0
1, 84793, Note_on_c, 9, 51, 0
1, 84793, Control_c, 0, 64, 0
1, 84817, Note_on_c, 1, 43, 0
1, 84829, Note_on_c, 0, 69, 66
1, 84833, Note_on_c, 0, 54, 61
1, 84833, Note_on_c, 0, 64, 61
1, 84833, Note_on_c, 1, 38, 75
1, 84837, Note_on_c, 0, 59, 55
1, 84851, Note_on_c, 9, 51, 80
1, 84855, Note_on_c, 9, 44, 70
1, 84897, Control_c, 0, 64, 127
1, 84945, Note_on_c, 9, 44, 0
1, 84949, Note_on_c, 0, 64, 0
1, 84961, Note_on_c, 0, 59, 0
1, 84965, Note_on_c, 0, 54, 0
1, 84981, Note_on_c, 0, 69, 0
1, 85085, Note_on_c, 0, 68, 56
1, 85089, Note_on_c, 0, 63, 57
1, 85089, Note_on_c, 0, 54, 49
1, 85089, Note_on_c, 0, 44, 54
1, 85101, Note_on_c, 0, 59, 51
1, 85161, Note_on_c, 0, 54, 0
1, 85165, Note_on_c, 0, 59, 0
1, 85173, Note_on_c, 0, 68, 0
1, 85177, Note_on_c, 9, 51, 0
1, 85181, Control_c, 0, 64, 0
1, 85193, Note_on_c, 0, 63, 0
1, 85197, Note_on_c, 0, 44, 0
1, 85205, Note_on_c, 1, 38, 0
1, 85229, Note_on_c, 0, 59, 48
1, 85229, Note_on_c, 1, 35, 70
1, 85233, Note_on_c, 0, 67, 51
1, 85233, Note_on_c, 0, 53, 46
1, 85235, Note_on_c, 9, 51, 80
1, 85241, Note_on_c, 0, 43, 42
1, 85245, Note_on_c, 0, 62, 45
1, 85269, Control_c, 0, 64, 127
1, 85389, Note_on_c, 0, 43, 0
1, 85393, Note_on_c, 0, 62, 0
1, 85405, Note_on_c, 0, 67, 0
1, 85437, Note_on_c, 0, 59, 0
1, 85445, Note_on_c, 0, 53, 0
1, 85473, Note_on_c, 0, 43, 46
1, 85513, Note_on_c, 9, 35, 52
1, 85539, Note_on_c, 9, 35, 0
1, 85571, Note_on_c, 9, 51, 0
1, 85589, Note_on_c, 0, 43, 0
1, 85605, Note_on_c, 1, 35, 0
1, 85609, Note_on_c, 0, 61, 52
1, 85617, Note_on_c, 0, 46, 52
1, 85617, Note_on_c, 1, 31, 70
1, 85619, Note_on_c, 9, 51, 63
1, 85621, Control_c, 0, 64, 0
1, 85621, Note_on_c, 0, 58, 45
1, 85621, Note_on_c, 0, 55, 40
1, 85623, Note_on_c, 9, 44, 110
1, 85669, Note_on_c, 0, 55, 0
1, 85681, Note_on_c, 0, 58, 0
1, 85713, Note_on_c, 9, 44, 0
1, 85733, Note_on_c, 0, 62, 49
1, 85737, Note_on_c, 0, 58, 23
1, 85769, Note_on_c, 0, 61, 0
1, 85777, Note_on_c, 0, 58, 0
1, 85781, Note_on_c, 0, 62, 0
1, 85811, Note_on_c, 0, 46, 0
1, 85811, Note_on_c, 9, 51, 0
1, 85817, Control_c, 0, 64, 127
1, 85825, Note_on_c, 0, 65, 67
1, 85829, Note_on_c, 0, 58, 37
1, 85845, Note_on_c, 0, 55, 31
1, 85857, Note_on_c, 0, 58, 0
1, 85857, Note_on_c, 0, 53, 48
1, 85869, Note_on_c, 0, 55, 0
1, 85873, Note_on_c, 0, 65, 0
1, 85875, Note_on_c, 9, 51, 57
1, 85881, Note_on_c, 0, 53, 0
1, 85895, Note_on_c, 9, 35, 56
1, 85933, Note_on_c, 9, 35, 0
1, 85937, Note_on_c, 0, 55, 75
1, 85939, Note_on_c, 9, 51, 0
1, 85973, Note_on_c, 1, 31, 0
1, 85977, Note_on_c, 0, 55, 0
1, 86001, Control_c, 0, 64, 0
1, 86001, Note_on_c, 1, 36, 66
1, 86003, Note_on_c, 9, 51, 68
1, 86025, Note_on_c, 0, 72, 82
1, 86025, Note_on_c, 0, 65, 75
1, 86029, Note_on_c, 0, 62, 75
1, 86037, Note_on_c, 0, 60, 82
1, 86141, Note_on_c, 0, 62, 0
1, 86149, Note_on_c, 0, 65, 0
1, 86161, Note_on_c, 0, 60, 0
1, 86165, Note_on_c, 0, 72, 0
1, 86177, Note_on_c, 0, 69, 73
1, 86181, Note_on_c, 0, 62, 67
1, 86181, Note_on_c, 0, 57, 75
1, 86185, Note_on_c, 0, 65, 59
1, 86261, Control_c, 0, 64, 127
1, 86265, Note_on_c, 1, 50, 90
1, 86277, Note_on_c, 0, 69, 0
1, 86291, Note_on_c, 9, 51, 0
1, 86301, Note_on_c, 0, 65, 0
1, 86309, Note_on_c, 0, 57, 0
1, 86321, Note_on_c, 0, 62, 0
1, 86377, Note_on_c, 1, 50, 0
1, 86387, Note_on_c, 9, 51, 75
1, 86391, Note_on_c, 9, 44, 106
1, 86401, Control_c, 0, 64, 0
1, 86405, Note_on_c, 0, 63, 58
1, 86409, Note_on_c, 1, 48, 68
1, 86417, Note_on_c, 0, 53, 66
1, 86481, Control_c, 0, 64, 127
1, 86485, Note_on_c, 0, 63, 0
1, 86513, Note_on_c, 9, 44, 0
1, 86609, Note_on_c, 0, 53, 0
1, 86633, Note_on_c, 1, 48, 0
1, 86653, Note_on_c, 1, 47, 59
1, 86657, Note_on_c, 0, 58, 56
1, 86661, Control_c, 0, 64, 0
1, 86665, Note_on_c, 0, 55, 61
1, 86665, Note_on_c, 0, 62, 63
1, 86673, Note_on_c, 0, 50, 60
1, 86675, Note_on_c, 9, 51, 0
1, 86725, Note_on_c, 1, 47, 0
1, 86771, Note_on_c, 9, 51, 59
1, 86773, Control_c, 0, 64, 127
1, 86781, Note_on_c, 1, 48, 72
1, 86849, Note_on_c, 1, 36, 0
1, 86877, Note_on_c, 0, 55, 0
1, 86889, Note_on_c, 0, 62, 0
1, 86917, Note_on_c, 0, 50, 0
1, 86929, Note_on_c, 0, 65, 65
1, 86929, Note_on_c, 0, 55, 31
1, 86937, Note_on_c, 0, 53, 64
1, 86953, Note_on_c, 0, 55, 0
1, 86973, Note_on_c, 0, 58, 0
1, 86989, Note_on_c, 0, 65, 0
1, 87017, Note_on_c, 9, 35, 31
1, 87025, Note_on_c, 0, 53, 0
1, 87041, Note_on_c, 0, 57, 73
1, 87057, Note_on_c, 9, 35, 0
1, 87061, Note_on_c, 0, 62, 54
1, 87063, Note_on_c, 9, 51, 0
1, 87077, Note_on_c, 0, 62, 0
1, 87121, Note_on_c, 0, 57, 0
1, 87153, Note_on_c, 0, 72, 75
1, 87153, Note_on_c, 0, 60, 66
1, 87155, Note_on_c, 9, 51, 103
1, 87159, Note_on_c, 9, 44, 103
1, 87169, Note_on_c, 9, 40, 29
1, 87185, Note_on_c, 0, 62, 23
1, 87185, Note_on_c, 0, 64, 29
1, 87191, Note_on_c, 9, 40, 0
1, 87201, Control_c, 0, 64, 0
1, 87205, Note_on_c, 0, 62, 0
1, 87209, Note_on_c, 0, 64, 0
1, 87221, Note_on_c, 0, 72, 0
1, 87261, Note_on_c, 0, 60, 0
1, 87271, Note_on_c, 9, 44, 0
1, 87277, Note_on_c, 0, 74, 57
1, 87281, Note_on_c, 0, 72, 60
1, 87283, Note_on_c, 9, 40, 49
1, 87285, Control_c, 0, 64, 127
1, 87289, Control_c, 0, 64, 0
1, 87289, Control_c, 0, 64, 127
1, 87297, Note_on_c, 0, 72, 0
1, 87297, Note_on_c, 0, 62, 42
1, 87305, Note_on_c, 9, 40, 0
1, 87317, Note_on_c, 0, 62, 0
1, 87321, Note_on_c, 0, 74, 0
1, 87325, Control_c, 0, 64, 0
1, 87353, Note_on_c, 9, 51, 0
1, 87401, Note_on_c, 0, 67, 76
1, 87401, Note_on_c, 0, 75, 88
1, 87401, Note_on_c, 0, 63, 85
1, 87405, Note_on_c, 0, 64, 77
1, 87409, Note_on_c, 0, 70, 65
1, 87411, Note_on_c, 9, 51, 57
1, 87417, Note_on_c, 1, 48, 0
1, 87427, Note_on_c, 9, 35, 33
1, 87433, Note_on_c, 1, 36, 63
1, 87463, Note_on_c, 9, 35, 0
1, 87479, Note_on_c, 9, 51, 0
1, 87521, Control_c, 0, 64, 127
1, 87539, Note_on_c, 9, 51, 73
1, 87545, Note_on_c, 9, 40, 47
1, 87557, Note_on_c, 1, 53, 90
1, 87565, Note_on_c, 1, 37, 73
1, 87569, Note_on_c, 1, 36, 0
1, 87577, Note_on_c, 0, 70, 0
1, 87585, Note_on_c, 9, 40, 0
1, 87585, Note_on_c, 0, 67, 0
1, 87589, Note_on_c, 0, 64, 0
1, 87601, Note_on_c, 0, 75, 0
1, 87621, Note_on_c, 0, 63, 0
1, 87637, Note_on_c, 0, 73, 68
1, 87641, Note_on_c, 0, 61, 66
1, 87641, Note_on_c, 0, 64, 63
1, 87645, Note_on_c, 0, 67, 54
1, 87645, Note_on_c, 0, 70, 60
1, 87665, Note_on_c, 9, 40, 47
1, 87687, Note_on_c, 9, 40, 0
1, 87795, Note_on_c, 9, 35, 42
1, 87821, Note_on_c, 9, 35, 0
1, 87833, Note_on_c, 0, 64, 0
1, 87837, Note_on_c, 0, 67, 0
1, 87837, Note_on_c, 0, 61, 0
1, 87841, Note_on_c, 0, 70, 0
1, 87853, Note_on_c, 0, 73, 0
1, 87859, Note_on_c, 9, 51, 0
1, 87911, Note_on_c, 9, 40, 45
1, 87923, Note_on_c, 9, 51, 52
1, 87927, Note_on_c, 9, 44, 105
1, 87929, Control_c, 0, 64, 0
1, 87937, Note_on_c, 0, 63, 66
1, 87941, Note_on_c, 0, 64, 63
1, 87941, Note_on_c, 0, 72, 58
1, 87943, Note_on_c, 9, 40, 0
1, 87949, Note_on_c, 0, 59, 63
1, 88009, Control_c, 0, 64, 127
1, 88033, Note_on_c, 0, 63, 0
1, 88061, Note_on_c, 0, 59, 0
1, 88065, Note_on_c, 9, 44, 0
1, 88113, Note_on_c, 0, 72, 0
1, 88145, Note_on_c, 0, 64, 0
1, 88173, Note_on_c, 1, 53, 0
1, 88177, Note_on_c, 1, 37, 0
1, 88177, Note_on_c, 1, 52, 68
1, 88177, Note_on_c, 1, 36, 57
1, 88227, Note_on_c, 9, 51, 0
1, 88269, Control_c, 0, 64, 0
1, 88305, Note_on_c, 0, 70, 54
1, 88305, Note_on_c, 0, 60, 49
1, 88305, Note_on_c, 0, 58, 42
1, 88305, Note_on_c, 0, 62, 45
1, 88307, Note_on_c, 9, 51, 68
1, 88317, Note_on_c, 0, 65, 48
1, 88329, Note_on_c, 0, 52, 36
1, 88377, Control_c, 0, 64, 127
1, 88461, Note_on_c, 0, 60, 0
1, 88501, Note_on_c, 0, 58, 0
1, 88533, Note_on_c, 0, 65, 0
1, 88533, Note_on_c, 0, 52, 0
1, 88537, Note_on_c, 0, 62, 0
1, 88557, Note_on_c, 1, 39, 89
1, 88569, Note_on_c, 9, 35, 36
1, 88581, Note_on_c, 1, 36, 0
1, 88599, Note_on_c, 9, 51, 0
1, 88605, Note_on_c, 9, 35, 0
1, 88617, Note_on_c, 1, 52, 0
1, 88637, Note_on_c, 0, 70, 0
1, 88691, Note_on_c, 9, 51, 63
1, 88695, Note_on_c, 9, 44, 117
1, 88697, Control_c, 0, 64, 0
1, 88705, Note_on_c, 0, 60, 42
1, 88705, Note_on_c, 0, 58, 39
1, 88709, Note_on_c, 0, 68, 45
1, 88725, Note_on_c, 0, 52, 30
1, 88757, Note_on_c, 0, 52, 0
1, 88801, Note_on_c, 0, 58, 0
1, 88817, Note_on_c, 0, 68, 0
1, 88823, Note_on_c, 9, 35, 50
1, 88829, Note_on_c, 0, 69, 50
1, 88845, Note_on_c, 9, 35, 0
1, 88853, Note_on_c, 0, 60, 0
1, 88855, Note_on_c, 9, 44, 0
1, 88889, Note_on_c, 0, 69, 0
1, 88937, Note_on_c, 0, 74, 82
1, 88945, Note_on_c, 9, 35, 70
1, 88953, Note_on_c, 1, 39, 0
1, 88957, Note_on_c, 1, 40, 68
1, 88995, Note_on_c, 9, 51, 0
1, 89021, Note_on_c, 0, 74, 0
1, 89033, Note_on_c, 9, 35, 0
1, 89053, Note_on_c, 0, 62, 47
1, 89061, Note_on_c, 0, 72, 58
1, 89065, Note_on_c, 0, 60, 37
1, 89069, Note_on_c, 0, 57, 47
1, 89073, Note_on_c, 0, 53, 25
1, 89075, Note_on_c, 9, 51, 87
1, 89081, Note_on_c, 1, 40, 0
1, 89091, Note_on_c, 9, 35, 38
1, 89093, Note_on_c, 1, 41, 58
1, 89105, Note_on_c, 0, 62, 0
1, 89113, Note_on_c, 0, 60, 0
1, 89129, Note_on_c, 9, 35, 0
1, 89157, Note_on_c, 0, 57, 0
1, 89209, Note_on_c, 0, 53, 0
1, 89245, Note_on_c, 0, 72, 0
1, 89337, Note_on_c, 0, 60, 40
1, 89385, Note_on_c, 9, 51, 0
1, 89409, Note_on_c, 0, 60, 0
1, 89441, Note_on_c, 1, 41, 0
1, 89459, Note_on_c, 9, 51, 59
1, 89461, Note_on_c, 1, 36, 66
1, 89463, Note_on_c, 0, 53, 33
1, 89463, Note_on_c, 9, 44, 117
1, 89477, Note_on_c, 0, 60, 48
1, 89501, Note_on_c, 0, 53, 0
1, 89633, Note_on_c, 9, 44, 0
1, 89641, Note_on_c, 9, 51, 0
1, 89653, Note_on_c, 0, 60, 0
1, 89715, Note_on_c, 9, 51, 68
1, 89737, Note_on_c, 0, 60, 54
1, 89783, Note_on_c, 9, 51, 0
1, 89785, Note_on_c, 0, 60, 0
1, 89843, Note_on_c, 9, 51, 61
1, 89853, Note_on_c, 1, 48, 102
1, 89865, Note_on_c, 0, 58, 39
1, 89873, Note_on_c, 0, 52, 39
1, 89889, Note_on_c, 0, 60, 56
1, 89901, Note_on_c, 0, 52, 0
1, 89917, Note_on_c, 0, 58, 0
1, 89957, Note_on_c, 0, 60, 0
1, 89993, Note_on_c, 0, 62, 51
1, 90025, Note_on_c, 0, 60, 52
1, 90049, Note_on_c, 0, 62, 0
1, 90089, Note_on_c, 0, 60, 0
1, 90089, Note_on_c, 0, 59, 45
1, 90101, Note_on_c, 1, 41, 42
1, 90115, Note_on_c, 9, 34, 40
1, 90137, Note_on_c, 1, 48, 0
1, 90147, Note_on_c, 9, 51, 0
1, 90173, Note_on_c, 0, 59, 0
1, 90193, Note_on_c, 1, 41, 0
1, 90201, Note_on_c, 9, 34, 0
1, 90205, Note_on_c, 0, 60, 48
1, 90221, Note_on_c, 0, 60, 0
1, 90225, Note_on_c, 1, 48, 88
1, 90227, Note_on_c, 9, 51, 75
1, 90231, Note_on_c, 9, 44, 110
1, 90257, Note_on_c, 0, 58, 37
1, 90263, Note_on_c, 9, 35, 40
1, 90265, Note_on_c, 0, 52, 43
1, 90277, Note_on_c, 0, 74, 84
1, 90301, Note_on_c, 1, 36, 0
1, 90317, Note_on_c, 0, 58, 0
1, 90317, Note_on_c, 9, 35, 0
1, 90333, Note_on_c, 0, 52, 0
1, 90417, Note_on_c, 0, 72, 64
1, 90421, Note_on_c, 0, 74, 0
1, 90423, Note_on_c, 9, 44, 0
1, 90467, Note_on_c, 9, 51, 0
1, 90585, Note_on_c, 0, 72, 0
1, 90609, Note_on_c, 1, 36, 98
1, 90611, Note_on_c, 9, 51, 87
1, 90613, Note_on_c, 0, 41, 39
1, 90633, Note_on_c, 0, 48, 32
1, 90637, Note_on_c, 1, 48, 0
1, 90657, Note_on_c, 0, 57, 40
1, 90713, Control_c, 0, 64, 127
1, 90853, Note_on_c, 0, 57, 0
1, 90857, Note_on_c, 0, 41, 0
1, 90861, Note_on_c, 0, 48, 0
1, 90871, Note_on_c, 9, 51, 0
1, 90995, Note_on_c, 9, 51, 80
1, 90997, Note_on_c, 1, 50, 122
1, 90999, Note_on_c, 9, 44, 106
1, 91009, Note_on_c, 0, 48, 55
1, 91049, Note_on_c, 1, 36, 0
1, 91061, Note_on_c, 0, 48, 0
1, 91153, Control_c, 0, 64, 0
1, 91181, Note_on_c, 0, 60, 82
1, 91185, Note_on_c, 9, 44, 0
1, 91225, Note_on_c, 9, 51, 0
1, 91237, Note_on_c, 0, 60, 0
1, 91251, Note_on_c, 9, 59, 94
1, 91261, Note_on_c, 0, 62, 68
1, 91261, Note_on_c, 1, 36, 35
1, 91271, Note_on_c, 9, 35, 36
1, 91309, Note_on_c, 9, 35, 0
1, 91309, Note_on_c, 0, 60, 52
1, 91329, Note_on_c, 0, 62, 0
1, 91337, Note_on_c, 1, 36, 0
1, 91347, Note_on_c, 9, 59, 0
1, 91357, Note_on_c, 0, 59, 63
1, 91369, Note_on_c, 1, 50, 0
1, 91377, Note_on_c, 0, 60, 0
1, 91379, Note_on_c, 9, 51, 61
1, 91381, Note_on_c, 1, 48, 82
1, 91409, Note_on_c, 9, 35, 31
1, 91449, Note_on_c, 9, 35, 0
1, 91453, Note_on_c, 0, 59, 0
1, 91481, Note_on_c, 0, 60, 58
1, 91537, Note_on_c, 0, 60, 0
1, 91589, Note_on_c, 0, 74, 94
1, 91645, Note_on_c, 1, 35, 82
1, 91689, Note_on_c, 9, 51, 0
1, 91721, Note_on_c, 0, 72, 78
1, 91737, Note_on_c, 1, 48, 0
1, 91763, Note_on_c, 9, 51, 68
1, 91765, Note_on_c, 0, 74, 0
1, 91767, Note_on_c, 9, 44, 110
1, 91769, Note_on_c, 1, 36, 98
1, 91809, Note_on_c, 0, 72, 0
1, 91845, Note_on_c, 1, 35, 0
1, 91881, Note_on_c, 0, 60, 72
1, 91927, Note_on_c, 9, 44, 0
1, 91941, Note_on_c, 0, 60, 0
1, 91945, Note_on_c, 0, 62, 61
1, 91993, Note_on_c, 1, 36, 0
1, 91993, Note_on_c, 0, 60, 57
1, 92017, Note_on_c, 0, 62, 0
1, 92017, Note_on_c, 9, 35, 38
1, 92023, Note_on_c, 9, 51, 0
1, 92025, Note_on_c, 1, 36, 115
1, 92049, Note_on_c, 0, 59, 54
1, 92051, Note_on_c, 9, 35, 0
1, 92057, Note_on_c, 0, 60, 0
1, 92117, Note_on_c, 0, 59, 0
1, 92129, Note_on_c, 1, 36, 0
1, 92141, Note_on_c, 0, 60, 67
1, 92147, Note_on_c, 9, 51, 77
1, 92157, Note_on_c, 0, 60, 0
1, 92157, Note_on_c, 1, 36, 99
1, 92213, Note_on_c, 0, 74, 90
1, 92345, Note_on_c, 0, 74, 0
1, 92357, Note_on_c, 0, 72, 80
1, 92403, Note_on_c, 9, 51, 0
1, 92469, Note_on_c, 0, 72, 0
1, 92531, Note_on_c, 9, 51, 64
1, 92533, Note_on_c, 1, 48, 117
1, 92535, Note_on_c, 9, 44, 92
1, 92561, Note_on_c, 0, 62, 74
1, 92585, Note_on_c, 1, 36, 0
1, 92695, Note_on_c, 9, 44, 0
1, 92729, Note_on_c, 0, 62, 0
1, 92771, Note_on_c, 9, 51, 0
1, 92785, Note_on_c, 1, 36, 74
1, 92791, Note_on_c, 9, 35, 38
1, 92805, Note_on_c, 0, 46, 48
1, 92805, Note_on_c, 0, 61, 66
1, 92809, Note_on_c, 0, 56, 41
1, 92817, Note_on_c, 1, 48, 0
1, 92823, Note_on_c, 9, 35, 0
1, 92893, Note_on_c, 0, 56, 0
1, 92913, Note_on_c, 9, 51, 78
1, 92917, Note_on_c, 0, 46, 0
1, 92925, Note_on_c, 0, 61, 0
1, 92925, Note_on_c, 1, 46, 87
1, 92945, Note_on_c, 1, 36, 0
1, 92945, Note_on_c, 0, 60, 70
1, 92949, Note_on_c, 0, 55, 53
1, 92965, Note_on_c, 0, 45, 44
1, 93081, Note_on_c, 0, 55, 0
1, 93157, Note_on_c, 0, 45, 0
1, 93235, Note_on_c, 9, 51, 0
1, 93299, Note_on_c, 9, 51, 64
1, 93303, Note_on_c, 1, 34, 81
1, 93303, Note_on_c, 9, 44, 113
1, 93321, Note_on_c, 1, 46, 0
1, 93337, Note_on_c, 0, 55, 68
1, 93463, Note_on_c, 9, 44, 0
1, 93587, Note_on_c, 9, 51, 0
1, 93601, Note_on_c, 0, 55, 0
1, 93657, Note_on_c, 1, 34, 0
1, 93683, Note_on_c, 9, 51, 68
1, 93685, Note_on_c, 0, 60, 0
1, 93689, Note_on_c, 1, 33, 81
1, 93693, Note_on_c, 0, 45, 48
1, 93693, Note_on_c, 0, 55, 49
1, 93693, Note_on_c, 0, 57, 58
1, 93909, Note_on_c, 0, 57, 0
1, 93913, Note_on_c, 0, 55, 0
1, 93939, Note_on_c, 9, 53, 85
1, 93943, Note_on_c, 9, 51, 0
1, 93949, Note_on_c, 0, 60, 63
1, 93949, Note_on_c, 1, 45, 87
1, 93985, Note_on_c, 1, 33, 0
1, 94039, Note_on_c, 9, 53, 0
1, 94061, Note_on_c, 0, 60, 0
1, 94065, Note_on_c, 1, 39, 78
1, 94067, Note_on_c, 9, 51, 64
1, 94071, Note_on_c, 9, 44, 108
1, 94077, Note_on_c, 1, 45, 0
1, 94085, Note_on_c, 0, 55, 41
1, 94085, Note_on_c, 0, 63, 54
1, 94101, Note_on_c, 0, 45, 0
1, 94173, Note_on_c, 0, 63, 0
1, 94189, Note_on_c, 0, 55, 0
1, 94189, Note_on_c, 0, 65, 55
1, 94225, Note_on_c, 9, 44, 0
1, 94293, Note_on_c, 0, 65, 0
1, 94325, Note_on_c, 1, 37, 60
1, 94337, Note_on_c, 9, 35, 42
1, 94345, Note_on_c, 1, 39, 0
1, 94377, Note_on_c, 9, 51, 0
1, 94425, Note_on_c, 9, 35, 0
1, 94437, Note_on_c, 1, 37, 0
1, 94449, Note_on_c, 1, 38, 73
1, 94451, Note_on_c, 9, 51, 68
1, 94465, Note_on_c, 0, 60, 48
1, 94473, Note_on_c, 0, 54, 46
1, 94473, Note_on_c, 9, 35, 38
1, 94481, Note_on_c, 0, 50, 39
1, 94513, Note_on_c, 0, 65, 56
1, 94557, Note_on_c, 0, 65, 0
1, 94577, Note_on_c, 0, 68, 59
1, 94625, Note_on_c, 0, 68, 0
1, 94625, Note_on_c, 0, 50, 0
1, 94633, Note_on_c, 0, 70, 60
1, 94641, Note_on_c, 0, 54, 0
1, 94653, Note_on_c, 0, 60, 0
1, 94653, Note_on_c, 0, 70, 0
1, 94657, Note_on_c, 9, 35, 0
1, 94677, Note_on_c, 0, 72, 63
1, 94705, Note_on_c, 1, 50, 102
1, 94709, Note_on_c, 0, 72, 0
1, 94727, Note_on_c, 9, 51, 0
1, 94729, Note_on_c, 9, 35, 33
1, 94733, Note_on_c, 0, 75, 60
1, 94753, Note_on_c, 0, 75, 0
1, 94761, Note_on_c, 9, 35, 0
1, 94805, Note_on_c, 0, 77, 61
1, 94821, Note_on_c, 0, 77, 0
1, 94835, Note_on_c, 9, 51, 80
1, 94839, Note_on_c, 9, 46, 57
1, 94845, Note_on_c, 0, 80, 63
1, 94889, Note_on_c, 0, 54, 43
1, 94893, Note_on_c, 0, 80, 0
1, 94897, Note_on_c, 9, 46, 0
1, 94897, Note_on_c, 1, 38, 0
1, 94897, Note_on_c, 0, 65, 27
1, 94905, Note_on_c, 0, 60, 39
1, 94945, Note_on_c, 1, 45, 63
1, 94961, Note_on_c, 0, 84, 63
1, 94997, Note_on_c, 0, 84, 0
1, 95001, Note_on_c, 1, 50, 0
1, 95017, Note_on_c, 1, 45, 0
1, 95025, Note_on_c, 0, 87, 55
1, 95029, Note_on_c, 0, 65, 0
1, 95053, Note_on_c, 0, 60, 0
1, 95065, Note_on_c, 1, 44, 75
1, 95075, Note_on_c, 9, 51, 0
1, 95081, Note_on_c, 0, 87, 0
1, 95091, Note_on_c, 9, 51, 54
1, 95093, Note_on_c, 0, 89, 69
1, 95145, Note_on_c, 0, 54, 0
1, 95155, Note_on_c, 9, 51, 0
1, 95173, Note_on_c, 0, 89, 0
1, 95193, Note_on_c, 1, 44, 0
1, 95213, Note_on_c, 1, 43, 66
1, 95219, Note_on_c, 9, 51, 101
1, 95229, Note_on_c, 0, 85, 63
1, 95253, Note_on_c, 0, 58, 44
1, 95253, Note_on_c, 0, 62, 41
1, 95273, Note_on_c, 0, 53, 39
1, 95285, Note_on_c, 1, 43, 0
1, 95285, Note_on_c, 0, 57, 28
1, 95289, Note_on_c, 0, 85, 0
1, 95305, Note_on_c, 0, 86, 63
1, 95345, Note_on_c, 1, 38, 60
1, 95349, Note_on_c, 0, 86, 0
1, 95413, Note_on_c, 1, 38, 0
1, 95417, Note_on_c, 0, 81, 49
1, 95453, Note_on_c, 0, 81, 0
1, 95465, Note_on_c, 1, 34, 75
1, 95529, Note_on_c, 0, 81, 57
1, 95539, Note_on_c, 9, 51, 0
1, 95545, Note_on_c, 0, 62, 0
1, 95553, Note_on_c, 0, 58, 0
1, 95557, Note_on_c, 1, 34, 0
1, 95569, Note_on_c, 0, 81, 0
1, 95589, Note_on_c, 1, 31, 72
1, 95603, Note_on_c, 9, 51, 80
1, 95607, Note_on_c, 9, 44, 108
1, 95641, Note_on_c, 0, 53, 0
1, 95641, Note_on_c, 0, 84, 67
1, 95645, Note_on_c, 0, 58, 47
1, 95649, Note_on_c, 0, 62, 34
1, 95689, Note_on_c, 0, 84, 0
1, 95729, Note_on_c, 9, 44, 0
1, 95749, Note_on_c, 0, 84, 59
1, 95805, Note_on_c, 0, 84, 0
1, 95845, Note_on_c, 0, 62, 0
1, 95845, Note_on_c, 0, 58, 0
1, 95847, Note_on_c, 9, 35, 45
1, 95849, Note_on_c, 9, 51, 0
1, 95859, Note_on_c, 9, 51, 56
1, 95885, Note_on_c, 0, 73, 31
1, 95917, Note_on_c, 0, 73, 0
1, 95939, Note_on_c, 9, 51, 0
1, 95943, Note_on_c, 9, 35, 0
1, 95985, Note_on_c, 0, 73, 41
1, 95985, Note_on_c, 9, 35, 26
1, 95987, Note_on_c, 1, 34, 75
1, 95987, Note_on_c, 9, 51, 66
1, 96005, Note_on_c, 1, 31, 0
1, 96021, Note_on_c, 0, 73, 0
1, 96029, Note_on_c, 0, 62, 37
1, 96033, Note_on_c, 0, 58, 43
1, 96081, Note_on_c, 0, 62, 0
1, 96097, Note_on_c, 9, 35, 0
1, 96105, Note_on_c, 0, 58, 0
1, 96227, Note_on_c, 9, 51, 0
1, 96241, Note_on_c, 9, 51, 43
1, 96245, Note_on_c, 0, 73, 49
1, 96297, Note_on_c, 0, 73, 0
1, 96307, Note_on_c, 9, 51, 0
1, 96341, Note_on_c, 1, 34, 0
1, 96357, Note_on_c, 1, 35, 75
1, 96371, Note_on_c, 9, 51, 106
1, 96375, Note_on_c, 9, 44, 117
1, 96389, Note_on_c, 0, 58, 39
1, 96393, Note_on_c, 0, 73, 50
1, 96401, Note_on_c, 0, 62, 19
1, 96437, Note_on_c, 0, 62, 0
1, 96453, Note_on_c, 0, 58, 0
1, 96503, Note_on_c, 9, 44, 0
1, 96513, Control_c, 0, 64, 127
1, 96557, Note_on_c, 0, 73, 0
1, 96577, Note_on_c, 0, 57, 0
1, 96609, Note_on_c, 1, 34, 42
1, 96613, Note_on_c, 0, 73, 49
1, 96675, Note_on_c, 9, 51, 0
1, 96693, Control_c, 0, 64, 0
1, 96701, Note_on_c, 1, 34, 0
1, 96713, Note_on_c, 1, 35, 0
1, 96725, Note_on_c, 0, 73, 0
1, 96737, Note_on_c, 1, 36, 74
1, 96755, Note_on_c, 9, 51, 85
1, 96761, Note_on_c, 0, 58, 34
1, 96761, Note_on_c, 0, 72, 46
1, 96765, Note_on_c, 0, 52, 32
1, 96765, Note_on_c, 0, 62, 18
1, 96785, Control_c, 0, 64, 127
1, 96821, Note_on_c, 0, 52, 0
1, 96841, Note_on_c, 0, 58, 0
1, 96841, Note_on_c, 0, 62, 0
1, 96883, Note_on_c, 9, 31, 42
1, 96925, Note_on_c, 9, 31, 0
1, 96945, Note_on_c, 0, 72, 0
1, 96969, Note_on_c, 9, 51, 0
1, 96993, Note_on_c, 0, 84, 52
1, 97045, Note_on_c, 0, 84, 0
1, 97073, Note_on_c, 1, 36, 0
1, 97113, Control_c, 0, 64, 104
1, 97113, Note_on_c, 1, 36, 74
1, 97117, Control_c, 0, 64, 0
1, 97121, Note_on_c, 0, 84, 68
1, 97121, Note_on_c, 0, 72, 67
1, 97133, Note_on_c, 0, 73, 69
1, 97139, Note_on_c, 9, 51, 64
1, 97143, Note_on_c, 9, 44, 110
1, 97145, Note_on_c, 9, 31, 31
1, 97187, Note_on_c, 9, 31, 0
1, 97205, Note_on_c, 0, 84, 0
1, 97225, Note_on_c, 0, 73, 0
1, 97225, Note_on_c, 0, 72, 0
1, 97249, Note_on_c, 9, 44, 0
1, 97249, Note_on_c, 0, 84, 66
1, 97313, Note_on_c, 0, 84, 0
1, 97369, Note_on_c, 0, 84, 58
1, 97385, Note_on_c, 0, 72, 68
1, 97385, Note_on_c, 0, 73, 74
1, 97395, Note_on_c, 9, 51, 43
1, 97399, Note_on_c, 9, 51, 0
1, 97399, Note_on_c, 9, 35, 57
1, 97431, Note_on_c, 9, 35, 0
1, 97465, Note_on_c, 0, 84, 0
1, 97479, Note_on_c, 9, 51, 0
1, 97481, Note_on_c, 1, 36, 0
1, 97485, Note_on_c, 0, 73, 0
1, 97485, Note_on_c, 0, 72, 0
1, 97509, Note_on_c, 0, 84, 66
1, 97517, Note_on_c, 1, 36, 85
1, 97523, Note_on_c, 9, 51, 92
1, 97581, Note_on_c, 0, 84, 0
1, 97625, Note_on_c, 0, 84, 70
1, 97629, Note_on_c, 0, 73, 68
1, 97629, Note_on_c, 0, 72, 63
1, 97665, Note_on_c, 9, 31, 57
1, 97693, Note_on_c, 0, 73, 0
1, 97697, Note_on_c, 0, 72, 0
1, 97703, Note_on_c, 9, 31, 0
1, 97709, Note_on_c, 0, 84, 0
1, 97749, Note_on_c, 0, 84, 60
1, 97817, Note_on_c, 0, 84, 0
1, 97841, Note_on_c, 1, 36, 0
1, 97843, Note_on_c, 9, 51, 0
1, 97865, Note_on_c, 0, 84, 68
1, 97869, Note_on_c, 0, 72, 63
1, 97873, Note_on_c, 0, 73, 68
1, 97893, Note_on_c, 1, 36, 77
1, 97897, Note_on_c, 9, 31, 57
1, 97907, Note_on_c, 9, 51, 59
1, 97911, Note_on_c, 9, 44, 113
1, 97921, Note_on_c, 0, 73, 0
1, 97925, Note_on_c, 0, 72, 0
1, 97941, Note_on_c, 0, 84, 0
1, 97955, Note_on_c, 9, 31, 0
1, 97997, Note_on_c, 0, 84, 49
1, 98023, Note_on_c, 9, 44, 0
1, 98023, Note_on_c, 0, 73, 32
1, 98061, Note_on_c, 0, 73, 0
1, 98061, Note_on_c, 0, 84, 0
1, 98121, Note_on_c, 0, 84, 57
1, 98125, Note_on_c, 0, 69, 58
1, 98129, Note_on_c, 0, 74, 60
1, 98129, Note_on_c, 0, 79, 63
1, 98137, Control_c, 0, 64, 127
1, 98165, Note_on_c, 1, 34, 57
1, 98167, Note_on_c, 9, 35, 40
1, 98179, Note_on_c, 9, 51, 0
1, 98237, Note_on_c, 9, 35, 0
1, 98277, Note_on_c, 0, 79, 0
1, 98277, Note_on_c, 0, 84, 0
1, 98277, Note_on_c, 1, 34, 0
1, 98281, Note_on_c, 1, 48, 115
1, 98291, Note_on_c, 9, 51, 89
1, 98311, Note_on_c, 9, 35, 36
1, 98329, Note_on_c, 0, 74, 0
1, 98373, Note_on_c, 0, 69, 0
1, 98401, Note_on_c, 0, 81, 66
1, 98405, Control_c, 0, 64, 0
1, 98409, Note_on_c, 0, 72, 45
1, 98413, Note_on_c, 0, 76, 57
1, 98421, Note_on_c, 0, 65, 57
1, 98437, Control_c, 0, 64, 127
1, 98481, Note_on_c, 9, 35, 0
1, 98493, Note_on_c, 0, 81, 0
1, 98513, Note_on_c, 0, 76, 0
1, 98517, Note_on_c, 0, 65, 0
1, 98525, Note_on_c, 1, 34, 51
1, 98541, Note_on_c, 0, 72, 0
1, 98547, Note_on_c, 9, 35, 47
1, 98573, Note_on_c, 9, 35, 0
1, 98573, Note_on_c, 1, 48, 0
1, 98617, Note_on_c, 9, 51, 0
1, 98637, Control_c, 0, 64, 0
1, 98649, Control_c, 0, 64, 127
1, 98661, Note_on_c, 0, 77, 64
1, 98665, Note_on_c, 0, 62, 54
1, 98669, Note_on_c, 0, 72, 56
1, 98669, Note_on_c, 1, 48, 115
1, 98673, Note_on_c, 0, 69, 50
1, 98675, Note_on_c, 9, 51, 56
1, 98679, Note_on_c, 9, 44, 119
1, 98681, Note_on_c, 1, 34, 0
1, 98785, Note_on_c, 9, 44, 0
1, 98801, Note_on_c, 0, 62, 0
1, 98809, Note_on_c, 0, 77, 0
1, 98813, Note_on_c, 0, 72, 0
1, 98833, Note_on_c, 0, 69, 0
1, 98917, Note_on_c, 0, 70, 65
1, 98925, Note_on_c, 0, 54, 56
1, 98925, Note_on_c, 0, 74, 62
1, 98929, Note_on_c, 0, 65, 52
1, 98929, Note_on_c, 0, 60, 50
1, 98929, Control_c, 0, 64, 0
1, 98931, Note_on_c, 9, 51, 54
1, 98935, Note_on_c, 9, 51, 0
1, 98969, Note_on_c, 1, 34, 37
1, 98973, Note_on_c, 1, 48, 0
1, 99001, Control_c, 0, 64, 127
1, 99027, Note_on_c, 9, 51, 0
1, 99041, Note_on_c, 1, 34, 0
1, 99045, Note_on_c, 1, 48, 92
1, 99059, Note_on_c, 9, 51, 75
1, 99121, Note_on_c, 0, 60, 0
1, 99137, Note_on_c, 1, 36, 0
1, 99161, Note_on_c, 0, 74, 0
1, 99169, Note_on_c, 0, 54, 0
1, 99173, Note_on_c, 0, 70, 0
1, 99181, Note_on_c, 0, 65, 0
1, 99289, Note_on_c, 1, 37, 76
1, 99299, Note_on_c, 9, 32, 40
1, 99321, Note_on_c, 9, 32, 0
1, 99347, Note_on_c, 9, 51, 0
1, 99401, Control_c, 0, 64, 0
1, 99405, Note_on_c, 1, 37, 0
1, 99409, Note_on_c, 1, 48, 0
1, 99421, Note_on_c, 1, 38, 75
1, 99443, Note_on_c, 9, 51, 82
1, 99445, Note_on_c, 0, 54, 50
1, 99445, Control_c, 0, 64, 127
1, 99447, Note_on_c, 9, 44, 113
1, 99449, Note_on_c, 0, 44, 52
1, 99453, Note_on_c, 0, 72, 46
1, 99453, Note_on_c, 0, 65, 54
1, 99453, Note_on_c, 0, 62, 50
1, 99537, Note_on_c, 0, 72, 0
1, 99537, Note_on_c, 9, 44, 0
1, 99577, Note_on_c, 0, 65, 0
1, 99589, Note_on_c, 0, 54, 0
1, 99601, Note_on_c, 0, 44, 0
1, 99617, Note_on_c, 0, 62, 0
1, 99649, Note_on_c, 1, 34, 37
1, 99685, Note_on_c, 1, 44, 88
1, 99689, Note_on_c, 9, 51, 0
1, 99697, Note_on_c, 1, 38, 0
1, 99699, Note_on_c, 9, 51, 49
1, 99733, Control_c, 0, 64, 0
1, 99737, Note_on_c, 1, 34, 0
1, 99783, Note_on_c, 9, 51, 0
1, 99801, Control_c, 0, 64, 127
1, 99809, Note_on_c, 1, 44, 0
1, 99817, Note_on_c, 0, 43, 47
1, 99817, Note_on_c, 0, 58, 57
1, 99825, Note_on_c, 0, 53, 35
1, 99825, Note_on_c, 1, 43, 69
1, 99827, Note_on_c, 9, 51, 98
1, 99829, Note_on_c, 0, 69, 46
1, 99829, Note_on_c, 0, 62, 46
1, 99845, Note_on_c, 0, 65, 39
1, 99881, Note_on_c, 0, 53, 0
1, 99913, Note_on_c, 0, 65, 0
1, 99917, Note_on_c, 0, 69, 0
1, 99929, Note_on_c, 0, 58, 0
1, 99937, Note_on_c, 0, 62, 0
1, 100005, Note_on_c, 0, 43, 0
1, 100065, Note_on_c, 1, 38, 68
1, 100083, Note_on_c, 9, 35, 42
1, 100097, Note_on_c, 0, 72, 62
1, 100121, Note_on_c, 9, 35, 0
1, 100137, Note_on_c, 0, 72, 0
1, 100153, Note_on_c, 9, 51, 0
1, 100165, Note_on_c, 1, 38, 0
1, 100189, Note_on_c, 1, 35, 77
1, 100193, Note_on_c, 1, 43, 0
1, 100201, Control_c, 0, 64, 0
1, 100211, Note_on_c, 0, 72, 49
1, 100211, Note_on_c, 9, 51, 73
1, 100211, Note_on_c, 9, 35, 33
1, 100213, Note_on_c, 0, 43, 43
1, 100215, Note_on_c, 9, 44, 122
1, 100221, Note_on_c, 0, 53, 36
1, 100237, Note_on_c, 0, 43, 0
1, 100237, Note_on_c, 0, 73, 56
1, 100245, Note_on_c, 0, 72, 0
1, 100249, Note_on_c, 0, 53, 0
1, 100285, Note_on_c, 0, 73, 0
1, 100297, Note_on_c, 0, 74, 46
1, 100311, Note_on_c, 9, 44, 0
1, 100361, Note_on_c, 0, 74, 0
1, 100403, Note_on_c, 9, 35, 0
1, 100469, Note_on_c, 0, 77, 66
1, 100501, Note_on_c, 0, 77, 0
1, 100515, Note_on_c, 9, 51, 0
1, 100569, Note_on_c, 1, 35, 0
1, 100589, Note_on_c, 0, 58, 45
1, 100589, Note_on_c, 1, 36, 68
1, 100593, Note_on_c, 0, 62, 43
1, 100595, Note_on_c, 9, 51, 64
1, 100609, Note_on_c, 0, 80, 63
1, 100609, Note_on_c, 0, 68, 55
1, 100617, Note_on_c, 0, 52, 27
1, 100629, Note_on_c, 0, 62, 0
1, 100641, Note_on_c, 0, 52, 0
1, 100669, Note_on_c, 0, 58, 0
1, 100739, Note_on_c, 9, 35, 42
1, 100773, Note_on_c, 0, 80, 0
1, 100777, Note_on_c, 9, 35, 0
1, 100777, Note_on_c, 0, 68, 0
1, 100855, Note_on_c, 9, 35, 33
1, 100869, Note_on_c, 0, 74, 48
1, 100889, Note_on_c, 9, 35, 0
1, 100909, Note_on_c, 0, 74, 0
1, 100921, Note_on_c, 9, 51, 0
1, 100961, Note_on_c, 1, 30, 86
1, 100973, Note_on_c, 0, 62, 48
1, 100973, Note_on_c, 0, 74, 52
1, 100977, Note_on_c, 0, 79, 53
1, 100979, Note_on_c, 9, 51, 78
1, 100981, Note_on_c, 0, 67, 49
1, 100981, Note_on_c, 0, 58, 41
1, 100983, Note_on_c, 9, 44, 117
1, 100985, Note_on_c, 9, 35, 52
1, 100989, Note_on_c, 0, 52, 37
1, 100997, Note_on_c, 1, 36, 0
1, 101073, Note_on_c, 9, 44, 0
1, 101137, Note_on_c, 0, 52, 0
1, 101145, Note_on_c, 9, 35, 0
1, 101161, Note_on_c, 0, 58, 0
1, 101217, Note_on_c, 0, 74, 0
1, 101223, Note_on_c, 9, 35, 59
1, 101229, Note_on_c, 0, 79, 0
1, 101237, Note_on_c, 0, 62, 0
1, 101255, Note_on_c, 9, 35, 0
1, 101261, Note_on_c, 0, 67, 0
1, 101329, Note_on_c, 1, 30, 0
1, 101331, Note_on_c, 9, 51, 0
1, 101361, Note_on_c, 1, 29, 81
1, 101363, Note_on_c, 9, 51, 70
1, 101381, Note_on_c, 0, 62, 39
1, 101385, Note_on_c, 0, 60, 40
1, 101385, Note_on_c, 0, 53, 31
1, 101389, Note_on_c, 0, 57, 44
1, 101389, Note_on_c, 0, 77, 44
1, 101393, Note_on_c, 0, 65, 37
1, 101393, Note_on_c, 0, 72, 46
1, 101441, Note_on_c, 0, 62, 0
1, 101461, Note_on_c, 0, 65, 0
1, 101469, Note_on_c, 0, 60, 0
1, 101477, Note_on_c, 0, 57, 0
1, 101481, Note_on_c, 0, 53, 0
1, 101501, Note_on_c, 0, 72, 0
1, 101561, Note_on_c, 0, 77, 0
1, 101699, Note_on_c, 9, 51, 0
1, 101729, Note_on_c, 1, 36, 77
1, 101747, Note_on_c, 9, 51, 84
1, 101751, Note_on_c, 9, 44, 120
1, 101753, Note_on_c, 1, 29, 0
1, 101761, Note_on_c, 0, 80, 98
1, 101765, Note_on_c, 0, 68, 102
1, 101765, Note_on_c, 0, 60, 54
1, 101769, Note_on_c, 0, 53, 45
1, 101769, Note_on_c, 0, 74, 77
1, 101769, Note_on_c, 0, 62, 52
1, 101777, Note_on_c, 0, 57, 50
1, 101789, Note_on_c, 0, 74, 0
1, 101809, Note_on_c, 0, 62, 0
1, 101817, Note_on_c, 0, 74, 39
1, 101837, Note_on_c, 9, 44, 0
1, 101865, Note_on_c, 0, 53, 0
1, 101873, Note_on_c, 0, 60, 0
1, 101885, Note_on_c, 0, 57, 0
1, 101917, Note_on_c, 0, 74, 0
1, 101945, Note_on_c, 9, 51, 0
1, 101961, Note_on_c, 0, 68, 0
1, 101965, Note_on_c, 0, 80, 0
1, 102001, Note_on_c, 1, 29, 47
1, 102003, Note_on_c, 9, 51, 84
1, 102023, Note_on_c, 9, 35, 68
1, 102037, Note_on_c, 0, 74, 49
1, 102071, Note_on_c, 9, 35, 0
1, 102073, Note_on_c, 1, 29, 0
1, 102083, Note_on_c, 9, 51, 0
1, 102093, Note_on_c, 0, 74, 0
1, 102109, Note_on_c, 1, 43, 78
1, 102131, Note_on_c, 9, 51, 73
1, 102149, Note_on_c, 1, 36, 0
1, 102149, Note_on_c, 0, 74, 58
1, 102153, Note_on_c, 0, 62, 43
1, 102153, Note_on_c, 0, 55, 49
1, 102157, Note_on_c, 0, 67, 56
1, 102157, Note_on_c, 0, 79, 48
1, 102161, Note_on_c, 0, 58, 39
1, 102213, Note_on_c, 0, 62, 0
1, 102237, Note_on_c, 0, 58, 0
1, 102249, Note_on_c, 0, 74, 0
1, 102265, Note_on_c, 0, 79, 0
1, 102273, Note_on_c, 0, 55, 0
1, 102305, Note_on_c, 0, 67, 0
1, 102401, Note_on_c, 0, 65, 59
1, 102401, Note_on_c, 0, 74, 57
1, 102401, Note_on_c, 0, 77, 48
1, 102441, Note_on_c, 1, 36, 30
1, 102455, Note_on_c, 9, 51, 0
1, 102465, Note_on_c, 1, 43, 0
1, 102481, Note_on_c, 0, 74, 0
1, 102481, Note_on_c, 1, 36, 0
1, 102485, Note_on_c, 0, 77, 0
1, 102501, Note_on_c, 1, 43, 87
1, 102509, Note_on_c, 0, 65, 0
1, 102515, Note_on_c, 9, 51, 103
1, 102519, Note_on_c, 9, 44, 112
1, 102521, Note_on_c, 0, 62, 47
1, 102529, Note_on_c, 0, 58, 45
1, 102541, Note_on_c, 0, 62, 0
1, 102581, Note_on_c, 0, 58, 0
1, 102625, Note_on_c, 9, 44, 0
1, 102739, Note_on_c, 9, 51, 0
1, 102757, Note_on_c, 1, 36, 45
1, 102771, Note_on_c, 9, 51, 63
1, 102785, Note_on_c, 0, 74, 99
1, 102785, Note_on_c, 0, 68, 92
1, 102785, Note_on_c, 0, 64, 88
1, 102789, Note_on_c, 0, 58, 88
1, 102801, Note_on_c, 1, 36, 0
1, 102855, Note_on_c, 9, 51, 0
1, 102857, Note_on_c, 1, 43, 0
1, 102877, Note_on_c, 1, 45, 76
1, 102899, Note_on_c, 9, 51, 56
1, 102905, Note_on_c, 0, 74, 0
1, 102917, Note_on_c, 0, 58, 0
1, 102921, Note_on_c, 0, 64, 0
1, 102921, Note_on_c, 9, 35, 28
1, 102949, Note_on_c, 0, 68, 0
1, 102961, Note_on_c, 9, 35, 0
1, 102969, Note_on_c, 0, 72, 76
1, 102973, Note_on_c, 0, 57, 66
1, 102977, Note_on_c, 0, 67, 75
1, 102981, Note_on_c, 0, 62, 70
1, 103125, Note_on_c, 0, 67, 0
1, 103133, Note_on_c, 0, 62, 0
1, 103141, Note_on_c, 0, 72, 0
1, 103181, Note_on_c, 0, 56, 68
1, 103185, Note_on_c, 0, 57, 0
1, 103185, Note_on_c, 0, 71, 68
1, 103185, Note_on_c, 0, 61, 68
1, 103189, Note_on_c, 0, 66, 68
1, 103235, Note_on_c, 9, 51, 0
1, 103261, Note_on_c, 0, 61, 0
1, 103265, Note_on_c, 0, 71, 0
1, 103265, Note_on_c, 1, 35, 85
1, 103269, Note_on_c, 0, 66, 0
1, 103281, Note_on_c, 9, 51, 92
1, 103287, Note_on_c, 9, 44, 120
1, 103305, Note_on_c, 1, 45, 0
1, 103309, Note_on_c, 0, 72, 64
1, 103313, Note_on_c, 0, 56, 0
1, 103317, Note_on_c, 0, 57, 63
1, 103333, Note_on_c, 0, 62, 58
1, 103333, Note_on_c, 0, 67, 55
1, 103377, Note_on_c, 0, 72, 0
1, 103381, Note_on_c, 0, 67, 0
1, 103383, Note_on_c, 9, 44, 0
1, 103433, Note_on_c, 0, 62, 0
1, 103497, Note_on_c, 9, 51, 0
1, 103505, Note_on_c, 0, 57, 0
1, 103539, Note_on_c, 9, 51, 59
1, 103545, Note_on_c, 0, 69, 66
1, 103545, Note_on_c, 9, 35, 29
1, 103549, Note_on_c, 0, 53, 62
1, 103553, Note_on_c, 0, 60, 74
1, 103561, Note_on_c, 0, 64, 52
1, 103577, Note_on_c, 0, 64, 0
1, 103577, Note_on_c, 9, 35, 0
1, 103577, Control_c, 0, 64, 127
1, 103589, Note_on_c, 0, 69, 0
1, 103609, Control_c, 0, 64, 0
1, 103613, Note_on_c, 0, 60, 0
1, 103619, Note_on_c, 9, 51, 0
1, 103637, Note_on_c, 0, 53, 0
1, 103665, Note_on_c, 9, 51, 68
1, 103673, Note_on_c, 1, 36, 77
1, 103685, Note_on_c, 1, 35, 0
1, 103717, Note_on_c, 0, 65, 66
1, 103721, Note_on_c, 0, 53, 41
1, 103721, Note_on_c, 0, 58, 55
1, 103725, Note_on_c, 0, 62, 57
1, 103805, Control_c, 0, 64, 40
1, 103805, Control_c, 0, 64, 127
1, 103913, Note_on_c, 1, 50, 102
1, 103941, Note_on_c, 0, 62, 0
1, 103969, Note_on_c, 0, 58, 0
1, 103991, Note_on_c, 9, 51, 0
1, 104025, Note_on_c, 0, 65, 0
1, 104025, Control_c, 0, 64, 0
1, 104037, Note_on_c, 0, 53, 0
1, 104041, Note_on_c, 1, 50, 0
1, 104049, Note_on_c, 1, 36, 0
1, 104051, Note_on_c, 9, 51, 92
1, 104055, Note_on_c, 9, 44, 119
1, 104057, Note_on_c, 1, 48, 78
1, 104069, Note_on_c, 0, 46, 49
1, 104069, Note_on_c, 0, 58, 68
1, 104073, Note_on_c, 0, 62, 66
1, 104093, Control_c, 0, 64, 127
1, 104193, Note_on_c, 9, 44, 0
1, 104201, Note_on_c, 0, 62, 0
1, 104229, Note_on_c, 0, 58, 0
1, 104259, Note_on_c, 9, 51, 0
1, 104305, Note_on_c, 1, 41, 60
1, 104307, Note_on_c, 9, 51, 52
1, 104337, Note_on_c, 1, 41, 0
1, 104375, Note_on_c, 9, 51, 0
1, 104393, Control_c, 0, 64, 0
1, 104401, Note_on_c, 0, 46, 0
1, 104433, Note_on_c, 1, 48, 0
1, 104435, Note_on_c, 9, 51, 66
1, 104441, Note_on_c, 1, 45, 72
1, 104449, Note_on_c, 0, 60, 61
1, 104449, Note_on_c, 0, 57, 55
1, 104457, Note_on_c, 0, 45, 43
1, 104467, Note_on_c, 9, 35, 22
1, 104503, Note_on_c, 9, 35, 0
1, 104525, Control_c, 0, 64, 127
1, 104653, Note_on_c, 0, 45, 0
1, 104685, Note_on_c, 0, 57, 0
1, 104701, Note_on_c, 0, 60, 0
1, 104755, Note_on_c, 9, 51, 0
1, 104819, Note_on_c, 9, 51, 61
1, 104821, Note_on_c, 0, 57, 56
1, 104821, Note_on_c, 0, 60, 58
1, 104821, Note_on_c, 0, 45, 50
1, 104823, Note_on_c, 9, 44, 112
1, 104825, Note_on_c, 1, 41, 78
1, 104853, Note_on_c, 1, 45, 0
1, 104869, Note_on_c, 0, 45, 0
1, 104885, Note_on_c, 0, 57, 0
1, 104951, Note_on_c, 9, 44, 0
1, 104965, Note_on_c, 0, 60, 0
1, 104985, Note_on_c, 9, 51, 0
1, 105075, Note_on_c, 9, 51, 49
1, 105095, Note_on_c, 9, 35, 29
1, 105133, Note_on_c, 9, 35, 0
1, 105205, Note_on_c, 1, 34, 78
1, 105209, Note_on_c, 1, 41, 0
1, 105329, Note_on_c, 9, 34, 33
1, 105369, Note_on_c, 9, 34, 0
1, 105415, Note_on_c, 9, 51, 0
1, 105449, Note_on_c, 9, 35, 42
1, 105489, Note_on_c, 9, 35, 0
1, 105557, Control_c, 0, 64, 0
1, 105565, Note_on_c, 1, 41, 83
1, 105577, Note_on_c, 9, 34, 31
1, 105581, Note_on_c, 0, 76, 94
1, 105585, Note_on_c, 0, 62, 76
1, 105585, Note_on_c, 0, 67, 90
1, 105585, Note_on_c, 0, 56, 80
1, 105585, Note_on_c, 0, 72, 88
1, 105587, Note_on_c, 9, 51, 119
1, 105591, Note_on_c, 9, 44, 113
1, 105597, Note_on_c, 1, 34, 0
1, 105641, Note_on_c, 9, 34, 0
1, 105657, Control_c, 0, 64, 127
1, 105669, Note_on_c, 0, 67, 0
1, 105693, Note_on_c, 0, 76, 0
1, 105697, Note_on_c, 9, 44, 0
1, 105705, Note_on_c, 0, 72, 0
1, 105725, Note_on_c, 0, 79, 96
1, 105763, Note_on_c, 9, 51, 0
1, 105769, Note_on_c, 0, 62, 0
1, 105825, Note_on_c, 1, 41, 0
1, 105825, Note_on_c, 1, 34, 74
1, 105837, Note_on_c, 0, 56, 0
1, 105843, Note_on_c, 9, 51, 66
1, 105891, Note_on_c, 9, 51, 0
1, 105893, Note_on_c, 0, 79, 0
1, 105921, Note_on_c, 1, 34, 0
1, 105941, Control_c, 0, 64, 0
1, 105949, Note_on_c, 1, 33, 73
1, 105969, Note_on_c, 0, 72, 92
1, 105969, Note_on_c, 0, 65, 72
1, 105969, Note_on_c, 0, 55, 63
1, 105969, Note_on_c, 0, 61, 57
1, 105971, Note_on_c, 0, 60, 64
1, 105971, Note_on_c, 9, 51, 77
1, 105985, Note_on_c, 0, 58, 49
1, 106077, Control_c, 0, 64, 127
1, 106197, Note_on_c, 1, 33, 0
1, 106205, Note_on_c, 1, 40, 81
1, 106227, Note_on_c, 9, 51, 0
1, 106289, Note_on_c, 1, 40, 0
1, 106301, Note_on_c, 0, 55, 0
1, 106313, Note_on_c, 0, 58, 0
1, 106317, Note_on_c, 0, 65, 0
1, 106333, Note_on_c, 1, 36, 68
1, 106355, Note_on_c, 9, 51, 124
1, 106359, Note_on_c, 9, 44, 106
1, 106377, Note_on_c, 0, 65, 42
1, 106397, Note_on_c, 0, 55, 34
1, 106481, Note_on_c, 0, 65, 0
1, 106481, Note_on_c, 9, 44, 0
1, 106531, Note_on_c, 9, 51, 0
1, 106541, Note_on_c, 0, 55, 0
1, 106541, Note_on_c, 0, 60, 0
1, 106545, Note_on_c, 0, 61, 0
1, 106573, Note_on_c, 1, 36, 0
1, 106585, Note_on_c, 1, 37, 70
1, 106611, Note_on_c, 9, 51, 103
1, 106657, Note_on_c, 0, 72, 0
1, 106663, Note_on_c, 9, 51, 0
1, 106721, Note_on_c, 1, 37, 0
1, 106721, Note_on_c, 1, 38, 73
1, 106739, Note_on_c, 9, 51, 75
1, 106741, Control_c, 0, 64, 0
1, 106749, Note_on_c, 0, 54, 54
1, 106753, Note_on_c, 0, 74, 66
1, 106755, Note_on_c, 0, 60, 52
1, 106755, Note_on_c, 0, 65, 54
1, 106755, Note_on_c, 0, 70, 56
1, 106755, Note_on_c, 9, 31, 70
1, 106787, Note_on_c, 9, 31, 0
1, 106835, Note_on_c, 9, 51, 0
1, 106849, Note_on_c, 0, 65, 0
1, 106861, Control_c, 0, 64, 127
1, 106869, Note_on_c, 0, 74, 0
1, 106893, Note_on_c, 0, 77, 58
1, 106953, Note_on_c, 0, 77, 0
1, 106963, Note_on_c, 9, 31, 87
1, 106965, Note_on_c, 0, 70, 0
1, 106995, Note_on_c, 9, 31, 0
1, 106995, Note_on_c, 9, 53, 127
1, 106997, Note_on_c, 0, 60, 0
1, 107001, Note_on_c, 1, 37, 54
1, 107005, Note_on_c, 0, 54, 0
1, 107041, Note_on_c, 0, 65, 57
1, 107045, Note_on_c, 0, 68, 63
1, 107053, Note_on_c, 0, 60, 47
1, 107053, Note_on_c, 0, 54, 51
1, 107063, Note_on_c, 9, 53, 0
1, 107073, Control_c, 0, 64, 0
1, 107077, Note_on_c, 1, 38, 0
1, 107123, Note_on_c, 9, 51, 52
1, 107127, Note_on_c, 9, 44, 108
1, 107129, Note_on_c, 1, 50, 87
1, 107137, Note_on_c, 1, 37, 0
1, 107153, Control_c, 0, 64, 127
1, 107235, Note_on_c, 9, 51, 0
1, 107241, Note_on_c, 9, 44, 0
1, 107273, Note_on_c, 0, 60, 0
1, 107281, Note_on_c, 9, 31, 77
1, 107321, Note_on_c, 9, 31, 0
1, 107337, Note_on_c, 0, 54, 0
1, 107369, Note_on_c, 1, 38, 56
1, 107379, Note_on_c, 9, 51, 127
1, 107379, Note_on_c, 9, 31, 71
1, 107397, Note_on_c, 0, 65, 0
1, 107411, Note_on_c, 9, 51, 0
1, 107437, Note_on_c, 9, 31, 0
1, 107441, Note_on_c, 0, 68, 0
1, 107441, Note_on_c, 1, 38, 0
1, 107445, Control_c, 0, 64, 0
1, 107469, Note_on_c, 0, 58, 45
1, 107473, Note_on_c, 0, 62, 35
1, 107477, Note_on_c, 0, 53, 31
1, 107477, Note_on_c, 0, 69, 53
1, 107477, Note_on_c, 0, 65, 35
1, 107493, Note_on_c, 0, 57, 37
1, 107497, Note_on_c, 1, 50, 0
1, 107497, Note_on_c, 9, 35, 59
1, 107501, Note_on_c, 1, 43, 73
1, 107507, Note_on_c, 9, 51, 96
1, 107581, Note_on_c, 0, 65, 0
1, 107597, Note_on_c, 0, 69, 0
1, 107609, Note_on_c, 0, 74, 60
1, 107613, Note_on_c, 0, 62, 0
1, 107641, Note_on_c, 9, 35, 0
1, 107645, Note_on_c, 0, 53, 0
1, 107645, Note_on_c, 0, 57, 0
1, 107653, Note_on_c, 0, 58, 0
1, 107669, Note_on_c, 0, 74, 0
1, 107729, Note_on_c, 0, 65, 50
1, 107733, Note_on_c, 0, 62, 38
1, 107737, Note_on_c, 0, 58, 47
1, 107741, Note_on_c, 0, 53, 41
1, 107753, Note_on_c, 0, 57, 39
1, 107779, Note_on_c, 9, 51, 0
1, 107857, Control_c, 0, 64, 127
1, 107885, Note_on_c, 1, 38, 76
1, 107889, Note_on_c, 1, 43, 0
1, 107891, Note_on_c, 9, 51, 78
1, 107895, Note_on_c, 9, 44, 105
1, 108007, Note_on_c, 9, 44, 0
1, 108081, Note_on_c, 0, 58, 0
1, 108093, Note_on_c, 0, 62, 0
1, 108163, Note_on_c, 9, 51, 0
1, 108177, Note_on_c, 0, 65, 0
1, 108209, Note_on_c, 0, 57, 0
1, 108209, Note_on_c, 0, 53, 0
1, 108261, Note_on_c, 1, 38, 0
1, 108275, Note_on_c, 1, 34, 71
1, 108275, Note_on_c, 9, 51, 61
1, 108289, Control_c, 0, 64, 0
1, 108297, Note_on_c, 0, 65, 58
1, 108297, Note_on_c, 0, 57, 20
1, 108297, Note_on_c, 0, 58, 42
1, 108305, Note_on_c, 0, 62, 32
1, 108377, Note_on_c, 0, 62, 0
1, 108389, Note_on_c, 0, 58, 0
1, 108417, Note_on_c, 0, 65, 0
1, 108425, Note_on_c, 0, 69, 56
1, 108445, Note_on_c, 0, 69, 0
1, 108449, Note_on_c, 0, 57, 0
1, 108549, Note_on_c, 0, 58, 49
1, 108553, Note_on_c, 0, 62, 58
1, 108567, Note_on_c, 9, 51, 0
1, 108659, Note_on_c, 9, 51, 47
1, 108663, Note_on_c, 9, 44, 112
1, 108665, Note_on_c, 1, 49, 81
1, 108669, Control_c, 0, 64, 127
1, 108717, Note_on_c, 1, 34, 0
1, 108785, Note_on_c, 9, 44, 0
1, 108793, Note_on_c, 0, 58, 0
1, 108833, Note_on_c, 0, 65, 63
1, 108851, Note_on_c, 9, 51, 0
1, 108913, Note_on_c, 0, 65, 0
1, 108915, Note_on_c, 9, 51, 127
1, 108941, Note_on_c, 0, 62, 0
1, 108957, Note_on_c, 0, 67, 57
1, 108999, Note_on_c, 9, 51, 0
1, 109013, Note_on_c, 0, 67, 0
1, 109043, Note_on_c, 9, 51, 85
1, 109057, Note_on_c, 1, 48, 73
1, 109073, Note_on_c, 1, 49, 0
1, 109081, Control_c, 0, 64, 0
1, 109097, Note_on_c, 0, 61, 61
1, 109105, Note_on_c, 0, 58, 44
1, 109117, Note_on_c, 0, 55, 47
1, 109171, Note_on_c, 9, 34, 43
1, 109223, Note_on_c, 9, 34, 0
1, 109297, Note_on_c, 9, 35, 45
1, 109329, Note_on_c, 9, 35, 0
1, 109337, Note_on_c, 1, 43, 35
1, 109341, Note_on_c, 9, 51, 0
1, 109353, Note_on_c, 0, 58, 0
1, 109373, Note_on_c, 0, 55, 0
1, 109373, Note_on_c, 1, 43, 0
1, 109401, Note_on_c, 0, 61, 0
1, 109409, Note_on_c, 1, 48, 0
1, 109421, Note_on_c, 1, 57, 72
1, 109427, Note_on_c, 9, 51, 84
1, 109427, Note_on_c, 9, 34, 35
1, 109431, Note_on_c, 9, 44, 108
1, 109437, Note_on_c, 1, 54, 50
1, 109453, Note_on_c, 0, 61, 48
1, 109457, Note_on_c, 1, 54, 0
1, 109457, Note_on_c, 0, 58, 50
1, 109457, Note_on_c, 0, 55, 38
1, 109501, Note_on_c, 9, 34, 0
1, 109527, Note_on_c, 9, 44, 0
1, 109533, Note_on_c, 0, 58, 0
1, 109577, Note_on_c, 0, 55, 0
1, 109581, Note_on_c, 0, 67, 44
1, 109589, Control_c, 0, 64, 127
1, 109605, Note_on_c, 0, 61, 0
1, 109613, Note_on_c, 0, 67, 0
1, 109641, Note_on_c, 1, 45, 31
1, 109657, Control_c, 0, 64, 0
1, 109673, Note_on_c, 9, 34, 36
1, 109699, Note_on_c, 9, 51, 0
1, 109705, Note_on_c, 1, 45, 0
1, 109709, Note_on_c, 0, 58, 61
1, 109713, Note_on_c, 0, 61, 66
1, 109745, Note_on_c, 9, 34, 0
1, 109757, Note_on_c, 1, 57, 0
1, 109805, Note_on_c, 1, 55, 67
1, 109811, Note_on_c, 9, 51, 59
1, 109833, Note_on_c, 9, 35, 33
1, 109875, Note_on_c, 9, 35, 0
1, 110041, Note_on_c, 9, 51, 0
1, 110061, Note_on_c, 1, 48, 46
1, 110067, Note_on_c, 9, 51, 35
1, 110073, Note_on_c, 0, 52, 25
1, 110073, Note_on_c, 9, 35, 75
1, 110089, Note_on_c, 1, 48, 0
1, 110089, Note_on_c, 0, 58, 0
1, 110119, Note_on_c, 9, 51, 0
1, 110133, Note_on_c, 0, 52, 0
1, 110141, Note_on_c, 9, 35, 0
1, 110145, Note_on_c, 1, 55, 0
1, 110177, Note_on_c, 1, 52, 74
1, 110193, Control_c, 0, 64, 127
1, 110195, Note_on_c, 9, 51, 99
1, 110197, Note_on_c, 0, 46, 42
1, 110199, Note_on_c, 9, 44, 101
1, 110301, Note_on_c, 0, 46, 0
1, 110305, Note_on_c, 9, 44, 0
1, 110417, Note_on_c, 0, 61, 0
1, 110441, Note_on_c, 9, 35, 38
1, 110469, Control_c, 0, 64, 0
1, 110473, Note_on_c, 9, 51, 0
1, 110497, Note_on_c, 9, 35, 0
1, 110565, Note_on_c, 0, 45, 42
1, 110573, Note_on_c, 1, 52, 0
1, 110573, Note_on_c, 0, 55, 36
1, 110573, Note_on_c, 0, 57, 40
1, 110573, Note_on_c, 0, 60, 48
1, 110573, Note_on_c, 1, 53, 72
1, 110579, Note_on_c, 9, 51, 120
1, 110593, Control_c, 0, 64, 127
1, 110595, Note_on_c, 9, 35, 31
1, 110637, Note_on_c, 9, 35, 0
1, 110649, Note_on_c, 0, 57, 0
1, 110681, Note_on_c, 0, 45, 0
1, 110717, Note_on_c, 0, 55, 0
1, 110749, Note_on_c, 0, 60, 0
1, 110887, Note_on_c, 9, 51, 0
1, 110941, Control_c, 0, 64, 0
1, 110961, Note_on_c, 1, 51, 63
1, 110963, Note_on_c, 9, 51, 59
1, 110967, Note_on_c, 9, 44, 99
1, 110981, Note_on_c, 1, 53, 0
1, 110985, Note_on_c, 0, 64, 33
1, 110989, Note_on_c, 0, 60, 39
1, 110993, Note_on_c, 0, 69, 73
1, 111001, Note_on_c, 0, 59, 31
1, 111005, Note_on_c, 0, 55, 25
1, 111065, Note_on_c, 9, 44, 0
1, 111101, Note_on_c, 0, 69, 0
1, 111117, Note_on_c, 0, 68, 51
1, 111157, Note_on_c, 0, 68, 0
1, 111189, Note_on_c, 0, 59, 0
1, 111189, Note_on_c, 0, 64, 0
1, 111193, Note_on_c, 9, 51, 0
1, 111201, Note_on_c, 0, 69, 56
1, 111205, Note_on_c, 0, 60, 0
1, 111213, Note_on_c, 0, 55, 0
1, 111219, Note_on_c, 9, 51, 59
1, 111223, Note_on_c, 9, 35, 47
1, 111269, Note_on_c, 0, 69, 0
1, 111271, Note_on_c, 9, 51, 0
1, 111273, Note_on_c, 9, 35, 0
1, 111309, Note_on_c, 0, 77, 98
1, 111337, Note_on_c, 1, 50, 53
1, 111347, Note_on_c, 9, 51, 64
1, 111373, Note_on_c, 1, 51, 0
1, 111377, Note_on_c, 0, 77, 0
1, 111389, Note_on_c, 0, 54, 44
1, 111409, Note_on_c, 0, 60, 39
1, 111421, Note_on_c, 1, 50, 0
1, 111421, Note_on_c, 0, 75, 60
1, 111457, Note_on_c, 1, 41, 52
1, 111501, Note_on_c, 0, 75, 0
1, 111541, Note_on_c, 1, 41, 0
1, 111585, Note_on_c, 1, 44, 81
1, 111593, Note_on_c, 0, 66, 69
1, 111605, Note_on_c, 0, 60, 0
1, 111625, Note_on_c, 0, 54, 0
1, 111639, Note_on_c, 9, 51, 0
1, 111705, Note_on_c, 1, 44, 0
1, 111721, Note_on_c, 1, 42, 60
1, 111725, Note_on_c, 0, 54, 41
1, 111731, Note_on_c, 9, 51, 113
1, 111735, Note_on_c, 0, 60, 36
1, 111735, Note_on_c, 9, 44, 112
1, 111821, Note_on_c, 0, 60, 0
1, 111847, Note_on_c, 9, 44, 0
1, 111893, Note_on_c, 0, 54, 0
1, 111955, Note_on_c, 9, 51, 0
1, 111977, Note_on_c, 9, 35, 52
1, 111987, Note_on_c, 9, 51, 64
1, 112045, Note_on_c, 9, 35, 0
1, 112057, Note_on_c, 9, 51, 0
1, 112069, Note_on_c, 0, 66, 0
1, 112115, Note_on_c, 9, 51, 91
1, 112117, Note_on_c, 0, 62, 36
1, 112121, Note_on_c, 0, 58, 39
1, 112129, Note_on_c, 0, 53, 36
1, 112209, Note_on_c, 0, 62, 0
1, 112233, Note_on_c, 1, 42, 0
1, 112245, Note_on_c, 1, 43, 59
1, 112333, Note_on_c, 1, 43, 0
1, 112341, Note_on_c, 0, 53, 0
1, 112353, Note_on_c, 1, 38, 69
1, 112357, Note_on_c, 0, 65, 78
1, 112409, Note_on_c, 0, 58, 0
1, 112409, Note_on_c, 9, 51, 0
1, 112441, Note_on_c, 0, 65, 0
1, 112457, Note_on_c, 0, 64, 54
1, 112469, Note_on_c, 1, 38, 0
1, 112493, Note_on_c, 1, 34, 68
1, 112499, Note_on_c, 9, 51, 99
1, 112503, Note_on_c, 9, 44, 112
1, 112505, Note_on_c, 0, 58, 40
1, 112513, Note_on_c, 0, 53, 34
1, 112533, Note_on_c, 0, 62, 26
1, 112537, Note_on_c, 0, 57, 20
1, 112553, Note_on_c, 0, 64, 0
1, 112553, Note_on_c, 0, 65, 57
1, 112605, Note_on_c, 0, 65, 0
1, 112615, Note_on_c, 9, 44, 0
1, 112665, Note_on_c, 0, 77, 85
1, 112709, Note_on_c, 0, 62, 0
1, 112725, Note_on_c, 0, 58, 0
1, 112737, Note_on_c, 1, 34, 0
1, 112741, Note_on_c, 0, 77, 0
1, 112753, Note_on_c, 0, 57, 0
1, 112757, Note_on_c, 1, 35, 68
1, 112765, Note_on_c, 0, 53, 0
1, 112765, Note_on_c, 0, 76, 68
1, 112803, Note_on_c, 9, 51, 0
1, 112849, Note_on_c, 0, 76, 0
1, 112881, Note_on_c, 1, 35, 0
1, 112883, Note_on_c, 9, 51, 77
1, 112893, Note_on_c, 1, 36, 62
1, 112905, Note_on_c, 0, 73, 65
1, 112909, Note_on_c, 0, 58, 38
1, 112917, Note_on_c, 0, 62, 29
1, 112933, Note_on_c, 0, 52, 29
1, 113025, Note_on_c, 0, 73, 0
1, 113037, Note_on_c, 0, 62, 0
1, 113061, Note_on_c, 0, 68, 66
1, 113105, Note_on_c, 0, 52, 0
1, 113155, Note_on_c, 9, 37, 50
1, 113171, Note_on_c, 9, 51, 0
1, 113189, Note_on_c, 0, 58, 0
1, 113235, Note_on_c, 9, 37, 0
1, 113249, Note_on_c, 1, 36, 0
1, 113267, Note_on_c, 9, 51, 89
1, 113269, Note_on_c, 1, 28, 88
1, 113271, Note_on_c, 9, 46, 21
1, 113289, Note_on_c, 0, 58, 39
1, 113293, Note_on_c, 0, 62, 36
1, 113301, Note_on_c, 0, 52, 35
1, 113303, Note_on_c, 9, 35, 24
1, 113351, Note_on_c, 9, 35, 0
1, 113393, Note_on_c, 9, 46, 0
1, 113425, Note_on_c, 0, 52, 0
1, 113469, Note_on_c, 0, 58, 0
1, 113475, Note_on_c, 9, 51, 0
1, 113481, Note_on_c, 0, 68, 0
1, 113521, Note_on_c, 0, 62, 0
1, 113523, Note_on_c, 9, 51, 68
1, 113529, Note_on_c, 0, 69, 77
1, 113529, Note_on_c, 9, 37, 59
1, 113591, Note_on_c, 9, 51, 0
1, 113635, Note_on_c, 9, 37, 0
1, 113645, Note_on_c, 0, 69, 0
1, 113645, Note_on_c, 1, 28, 0
1, 113651, Note_on_c, 9, 51, 96
1, 113653, Note_on_c, 0, 64, 44
1, 113665, Note_on_c, 1, 29, 81
1, 113669, Note_on_c, 0, 74, 79
1, 113669, Note_on_c, 0, 57, 48
1, 113673, Note_on_c, 9, 35, 28
1, 113681, Note_on_c, 0, 60, 34
1, 113725, Note_on_c, 9, 35, 0
1, 113761, Note_on_c, 0, 74, 0
1, 113817, Note_on_c, 0, 64, 0
1, 113821, Note_on_c, 0, 60, 0
1, 113845, Note_on_c, 0, 53, 1
1, 113885, Note_on_c, 0, 57, 0
1, 113901, Note_on_c, 0, 72, 73
1, 113959, Note_on_c, 9, 51, 0
1, 113961, Note_on_c, 0, 53, 0
1, 114001, Note_on_c, 1, 29, 0
1, 114025, Note_on_c, 1, 29, 74
1, 114035, Note_on_c, 9, 51, 91
1, 114039, Note_on_c, 9, 44, 117
1, 114045, Note_on_c, 0, 72, 0
1, 114061, Note_on_c, 0, 60, 52
1, 114183, Note_on_c, 9, 44, 0
1, 114313, Note_on_c, 9, 35, 28
1, 114353, Note_on_c, 9, 35, 0
1, 114361, Note_on_c, 9, 51, 0
1, 114393, Note_on_c, 0, 60, 0
1, 114417, Note_on_c, 1, 36, 80
1, 114419, Note_on_c, 9, 51, 80
1, 114421, Note_on_c, 1, 29, 0
1, 114445, Note_on_c, 0, 62, 60
1, 114525, Note_on_c, 0, 62, 0
1, 114625, Note_on_c, 0, 62, 57
1, 114709, Note_on_c, 0, 62, 0
1, 114723, Note_on_c, 9, 51, 0
1, 114741, Note_on_c, 0, 60, 47
1, 114765, Note_on_c, 1, 36, 0
1, 114789, Note_on_c, 0, 60, 0
1, 114797, Note_on_c, 0, 58, 41
1, 114801, Note_on_c, 1, 36, 79
1, 114803, Note_on_c, 9, 51, 78
1, 114807, Note_on_c, 9, 44, 119
1, 114817, Note_on_c, 0, 62, 51
1, 114829, Note_on_c, 0, 58, 0
1, 114897, Note_on_c, 9, 44, 0
1, 114897, Note_on_c, 0, 62, 0
1, 114917, Note_on_c, 0, 69, 63
1, 114977, Note_on_c, 0, 69, 0
1, 114997, Note_on_c, 0, 62, 41
1, 115059, Note_on_c, 9, 51, 68
1, 115063, Note_on_c, 9, 51, 0
1, 115065, Note_on_c, 9, 35, 35
1, 115085, Note_on_c, 0, 62, 0
1, 115097, Note_on_c, 9, 35, 0
1, 115125, Note_on_c, 0, 60, 41
1, 115127, Note_on_c, 9, 51, 0
1, 115153, Note_on_c, 0, 57, 43
1, 115177, Note_on_c, 1, 36, 0
1, 115181, Note_on_c, 0, 57, 0
1, 115185, Note_on_c, 0, 60, 0
1, 115187, Note_on_c, 9, 51, 73
1, 115193, Note_on_c, 0, 62, 49
1, 115193, Note_on_c, 1, 41, 81
1, 115237, Note_on_c, 0, 62, 0
1, 115305, Note_on_c, 0, 74, 82
1, 115315, Note_on_c, 9, 34, 43
1, 115345, Note_on_c, 0, 74, 0
1, 115367, Note_on_c, 9, 34, 0
1, 115397, Note_on_c, 0, 62, 57
1, 115441, Note_on_c, 9, 35, 45
1, 115473, Note_on_c, 9, 35, 0
1, 115497, Note_on_c, 0, 62, 0
1, 115511, Note_on_c, 9, 51, 0
1, 115517, Note_on_c, 1, 41, 0
1, 115533, Note_on_c, 0, 60, 52
1, 115553, Note_on_c, 1, 41, 85
1, 115565, Note_on_c, 0, 60, 0
1, 115569, Note_on_c, 0, 57, 36
1, 115571, Note_on_c, 9, 51, 84
1, 115571, Note_on_c, 9, 34, 35
1, 115575, Note_on_c, 9, 44, 108
1, 115597, Note_on_c, 0, 57, 0
1, 115617, Note_on_c, 0, 62, 45
1, 115633, Note_on_c, 0, 62, 0
1, 115645, Note_on_c, 9, 34, 0
1, 115671, Note_on_c, 9, 44, 0
1, 115717, Note_on_c, 0, 79, 87
1, 115757, Note_on_c, 0, 79, 0
1, 115817, Note_on_c, 9, 34, 36
1, 115843, Note_on_c, 9, 51, 0
1, 115889, Note_on_c, 9, 34, 0
1, 115941, Note_on_c, 1, 46, 83
1, 115953, Note_on_c, 1, 41, 0
1, 115955, Note_on_c, 9, 51, 59
1, 115977, Note_on_c, 9, 35, 33
1, 115981, Note_on_c, 0, 62, 72
1, 116019, Note_on_c, 9, 35, 0
1, 116065, Note_on_c, 0, 62, 0
1, 116089, Note_on_c, 0, 60, 49
1, 116117, Note_on_c, 0, 60, 0
1, 116169, Note_on_c, 0, 62, 50
1, 116185, Note_on_c, 9, 51, 0
1, 116185, Note_on_c, 1, 41, 63
1, 116189, Note_on_c, 0, 62, 0
1, 116211, Note_on_c, 9, 51, 35
1, 116217, Note_on_c, 9, 35, 75
1, 116233, Note_on_c, 1, 41, 0
1, 116263, Note_on_c, 9, 51, 0
1, 116285, Note_on_c, 9, 35, 0
1, 116285, Note_on_c, 0, 74, 74
1, 116321, Note_on_c, 0, 74, 0
1, 116321, Note_on_c, 1, 45, 69
1, 116339, Note_on_c, 9, 51, 99
1, 116343, Note_on_c, 9, 44, 101
1, 116349, Note_on_c, 1, 46, 0
1, 116433, Note_on_c, 0, 72, 81
1, 116449, Note_on_c, 9, 44, 0
1, 116501, Note_on_c, 0, 72, 0
1, 116565, Note_on_c, 1, 45, 0
1, 116577, Note_on_c, 0, 70, 68
1, 116577, Note_on_c, 1, 43, 74
1, 116581, Note_on_c, 0, 58, 56
1, 116585, Note_on_c, 9, 35, 38
1, 116617, Note_on_c, 9, 51, 0
1, 116641, Note_on_c, 9, 35, 0
1, 116653, Note_on_c, 0, 70, 0
1, 116661, Note_on_c, 0, 58, 0
1, 116697, Note_on_c, 1, 43, 0
1, 116713, Note_on_c, 0, 57, 51
1, 116721, Note_on_c, 0, 69, 57
1, 116721, Note_on_c, 1, 41, 63
1, 116723, Note_on_c, 9, 51, 120
1, 116739, Note_on_c, 9, 35, 31
1, 116741, Note_on_c, 0, 69, 0
1, 116741, Note_on_c, 0, 57, 0
1, 116781, Note_on_c, 9, 35, 0
1, 116969, Note_on_c, 0, 53, 53
1, 116977, Note_on_c, 0, 60, 39
1, 116981, Note_on_c, 0, 65, 41
1, 116985, Note_on_c, 0, 64, 35
1, 117001, Note_on_c, 0, 65, 0
1, 117013, Note_on_c, 0, 64, 0
1, 117021, Note_on_c, 0, 60, 0
1, 117031, Note_on_c, 9, 51, 0
1, 117053, Note_on_c, 0, 53, 0
1, 117089, Note_on_c, 0, 60, 66
1, 117101, Note_on_c, 1, 41, 0
1, 117105, Note_on_c, 0, 50, 53
1, 117105, Note_on_c, 1, 33, 89
1, 117107, Note_on_c, 9, 51, 59
1, 117111, Note_on_c, 9, 44, 99
1, 117121, Note_on_c, 0, 57, 35
1, 117137, Note_on_c, 0, 50, 0
1, 117157, Note_on_c, 0, 57, 0
1, 117209, Note_on_c, 9, 44, 0
1, 117225, Control_c, 0, 64, 127
1, 117317, Note_on_c, 0, 60, 0
1, 117337, Note_on_c, 9, 51, 0
1, 117361, Note_on_c, 0, 50, 42
1, 117361, Note_on_c, 0, 57, 51
1, 117363, Note_on_c, 9, 51, 59
1, 117367, Note_on_c, 9, 35, 47
1, 117389, Note_on_c, 0, 57, 0
1, 117405, Control_c, 0, 64, 0
1, 117415, Note_on_c, 9, 51, 0
1, 117417, Note_on_c, 9, 35, 0
1, 117429, Note_on_c, 0, 50, 0
1, 117477, Note_on_c, 0, 46, 49
1, 117485, Note_on_c, 1, 33, 0
1, 117485, Note_on_c, 0, 56, 48
1, 117485, Note_on_c, 0, 62, 57
1, 117485, Note_on_c, 1, 34, 82
1, 117489, Note_on_c, 0, 58, 55
1, 117491, Note_on_c, 9, 51, 64
1, 117541, Control_c, 0, 64, 127
1, 117589, Note_on_c, 0, 58, 0
1, 117613, Note_on_c, 0, 56, 0
1, 117617, Note_on_c, 0, 62, 0
1, 117637, Note_on_c, 0, 46, 0
1, 117783, Note_on_c, 9, 51, 0
1, 117875, Note_on_c, 9, 51, 113
1, 117879, Note_on_c, 9, 44, 112
1, 117881, Note_on_c, 1, 46, 88
1, 117917, Note_on_c, 1, 34, 0
1, 117991, Note_on_c, 9, 44, 0
1, 118099, Note_on_c, 9, 51, 0
1, 118121, Note_on_c, 9, 35, 52
1, 118131, Note_on_c, 9, 51, 64
1, 118157, Note_on_c, 0, 65, 54
1, 118161, Note_on_c, 0, 72, 55
1, 118161, Note_on_c, 0, 84, 58
1, 118165, Note_on_c, 0, 56, 44
1, 118181, Note_on_c, 0, 72, 0
1, 118181, Note_on_c, 0, 65, 0
1, 118189, Note_on_c, 9, 35, 0
1, 118193, Note_on_c, 0, 79, 28
1, 118201, Note_on_c, 9, 51, 0
1, 118213, Note_on_c, 0, 79, 0
1, 118217, Note_on_c, 0, 84, 0
1, 118229, Note_on_c, 0, 56, 0
1, 118257, Note_on_c, 1, 45, 73
1, 118259, Note_on_c, 9, 51, 91
1, 118269, Control_c, 0, 64, 0
1, 118281, Note_on_c, 1, 46, 0
1, 118293, Note_on_c, 0, 64, 68
1, 118297, Note_on_c, 0, 55, 56
1, 118297, Note_on_c, 0, 59, 61
1, 118297, Note_on_c, 0, 88, 80
1, 118301, Note_on_c, 0, 76, 80
1, 118301, Note_on_c, 0, 60, 61
1, 118317, Note_on_c, 0, 81, 48
1, 118369, Control_c, 0, 64, 127
1, 118373, Note_on_c, 0, 88, 0
1, 118385, Note_on_c, 0, 76, 0
1, 118389, Note_on_c, 0, 81, 0
1, 118433, Note_on_c, 0, 64, 0
1, 118437, Note_on_c, 0, 55, 0
1, 118441, Note_on_c, 0, 60, 0
1, 118445, Note_on_c, 0, 59, 0
1, 118517, Note_on_c, 1, 40, 43
1, 118541, Note_on_c, 0, 69, 64
1, 118553, Note_on_c, 9, 51, 0
1, 118553, Note_on_c, 0, 64, 57
1, 118553, Note_on_c, 0, 81, 39
1, 118553, Note_on_c, 0, 60, 56
1, 118557, Note_on_c, 0, 59, 51
1, 118561, Note_on_c, 0, 55, 52
1, 118605, Note_on_c, 1, 40, 0
1, 118609, Note_on_c, 0, 69, 0
1, 118613, Note_on_c, 0, 81, 0
1, 118637, Note_on_c, 0, 55, 0
1, 118641, Note_on_c, 0, 64, 0
1, 118641, Note_on_c, 1, 31, 75
1, 118643, Note_on_c, 9, 51, 99
1, 118647, Note_on_c, 9, 44, 112
1, 118653, Note_on_c, 0, 59, 0
1, 118653, Control_c, 0, 64, 0
1, 118661, Note_on_c, 0, 60, 0
1, 118681, Note_on_c, 0, 55, 65
1, 118685, Note_on_c, 0, 64, 72
1, 118689, Note_on_c, 0, 72, 80
1, 118689, Note_on_c, 0, 84, 80
1, 118689, Note_on_c, 0, 60, 43
1, 118689, Note_on_c, 0, 59, 48
1, 118693, Note_on_c, 0, 79, 61
1, 118713, Note_on_c, 0, 79, 0
1, 118733, Note_on_c, 0, 84, 0
1, 118745, Note_on_c, 0, 64, 0
1, 118759, Note_on_c, 9, 44, 0
1, 118761, Note_on_c, 0, 72, 0
1, 118773, Note_on_c, 0, 60, 0
1, 118781, Note_on_c, 0, 55, 0
1, 118801, Note_on_c, 0, 59, 0
1, 118837, Control_c, 0, 64, 127
1, 118921, Note_on_c, 0, 55, 60
1, 118925, Note_on_c, 0, 76, 66
1, 118925, Note_on_c, 0, 64, 58
1, 118947, Note_on_c, 9, 51, 0
1, 118957, Note_on_c, 0, 64, 0
1, 118981, Note_on_c, 0, 55, 0
1, 118981, Note_on_c, 0, 76, 0
1, 118981, Control_c, 0, 64, 88
1, 118985, Control_c, 0, 64, 0
1, 118993, Note_on_c, 1, 31, 0
1, 119017, Note_on_c, 1, 38, 85
1, 119027, Note_on_c, 9, 51, 77
1, 119061, Note_on_c, 0, 54, 56
1, 119061, Note_on_c, 0, 81, 74
1, 119065, Note_on_c, 0, 60, 48
1, 119069, Note_on_c, 0, 69, 68
1, 119073, Note_on_c, 0, 76, 53
1, 119077, Note_on_c, 1, 45, 0
1, 119093, Note_on_c, 0, 76, 0
1, 119101, Note_on_c, 0, 81, 0
1, 119113, Control_c, 0, 64, 127
1, 119125, Note_on_c, 0, 69, 0
1, 119129, Note_on_c, 0, 60, 0
1, 119165, Note_on_c, 0, 54, 0
1, 119299, Note_on_c, 9, 37, 50
1, 119301, Note_on_c, 0, 60, 53
1, 119301, Note_on_c, 1, 32, 42
1, 119305, Note_on_c, 0, 59, 37
1, 119305, Note_on_c, 0, 54, 43
1, 119313, Note_on_c, 0, 72, 26
1, 119315, Note_on_c, 9, 51, 0
1, 119329, Note_on_c, 0, 59, 0
1, 119341, Note_on_c, 0, 72, 0
1, 119353, Note_on_c, 0, 54, 0
1, 119361, Control_c, 0, 64, 0
1, 119365, Note_on_c, 0, 60, 0
1, 119379, Note_on_c, 9, 37, 0
1, 119397, Note_on_c, 1, 32, 0
1, 119397, Note_on_c, 1, 42, 82
1, 119411, Note_on_c, 9, 51, 89
1, 119415, Note_on_c, 9, 46, 21
1, 119429, Note_on_c, 0, 54, 57
1, 119437, Note_on_c, 0, 64, 63
1, 119437, Note_on_c, 0, 76, 42
1, 119447, Note_on_c, 9, 35, 24
1, 119461, Note_on_c, 0, 76, 0
1, 119473, Control_c, 0, 64, 127
1, 119477, Note_on_c, 0, 64, 0
1, 119495, Note_on_c, 9, 35, 0
1, 119521, Note_on_c, 0, 54, 0
1, 119525, Note_on_c, 1, 38, 0
1, 119537, Note_on_c, 9, 46, 0
1, 119619, Note_on_c, 9, 51, 0
1, 119657, Note_on_c, 0, 51, 57
1, 119667, Note_on_c, 9, 51, 68
1, 119669, Note_on_c, 0, 68, 49
1, 119669, Note_on_c, 0, 56, 53
1, 119673, Note_on_c, 1, 36, 41
1, 119673, Note_on_c, 9, 37, 59
1, 119677, Note_on_c, 0, 51, 0
1, 119709, Note_on_c, 1, 36, 0
1, 119735, Note_on_c, 9, 51, 0
1, 119741, Note_on_c, 0, 56, 0
1, 119745, Note_on_c, 0, 68, 0
1, 119749, Control_c, 0, 64, 0
1, 119773, Note_on_c, 1, 42, 0
1, 119779, Note_on_c, 9, 37, 0
1, 119781, Note_on_c, 1, 43, 76
1, 119793, Note_on_c, 0, 53, 42
1, 119795, Note_on_c, 9, 51, 96
1, 119797, Note_on_c, 0, 69, 53
1, 119797, Note_on_c, 0, 57, 39
1, 119813, Note_on_c, 0, 53, 0
1, 119817, Note_on_c, 9, 35, 28
1, 119821, Note_on_c, 0, 57, 0
1, 119829, Note_on_c, 0, 69, 0
1, 119869, Note_on_c, 9, 35, 0
1, 119913, Note_on_c, 0, 57, 61
1, 119917, Note_on_c, 0, 60, 53
1, 119925, Note_on_c, 0, 72, 40
1, 119933, Note_on_c, 0, 60, 0
1, 119941, Note_on_c, 0, 57, 0
1, 119949, Note_on_c, 0, 72, 0
1, 120033, Note_on_c, 0, 74, 81
1, 120041, Note_on_c, 0, 60, 69
1, 120041, Note_on_c, 0, 62, 62
1, 120049, Note_on_c, 0, 70, 44
1, 120057, Note_on_c, 0, 62, 0
1, 120057, Note_on_c, 0, 60, 0
1, 120069, Note_on_c, 0, 70, 0
1, 120089, Note_on_c, 0, 74, 0
1, 120103, Note_on_c, 9, 51, 0
1, 120165, Note_on_c, 0, 77, 99
1, 120165, Note_on_c, 0, 62, 79
1, 120169, Note_on_c, 0, 74, 77
1, 120169, Note_on_c, 0, 65, 72
1, 120169, Note_on_c, 0, 71, 72
1, 120173, Note_on_c, 0, 67, 70
1, 120179, Note_on_c, 9, 51, 91
1, 120181, Note_on_c, 1, 34, 88
1, 120183, Note_on_c, 9, 44, 117
1, 120189, Note_on_c, 0, 67, 0
1, 120189, Note_on_c, 0, 71, 0
1, 120209, Note_on_c, 0, 65, 0
1, 120217, Note_on_c, 0, 74, 0
1, 120217, Note_on_c, 0, 62, 0
1, 120217, Note_on_c, 1, 43, 0
1, 120221, Note_on_c, 0, 77, 0
1, 120327, Note_on_c, 9, 44, 0
1, 120421, Note_on_c, 0, 74, 81
1, 120421, Note_on_c, 0, 58, 66
1, 120425, Note_on_c, 0, 70, 63
1, 120429, Note_on_c, 0, 67, 71
1, 120429, Note_on_c, 0, 62, 66
1, 120457, Note_on_c, 9, 35, 28
1, 120477, Note_on_c, 0, 62, 0
1, 120477, Note_on_c, 0, 67, 0
1, 120477, Note_on_c, 0, 58, 0
1, 120485, Note_on_c, 0, 70, 0
1, 120489, Note_on_c, 0, 74, 0
1, 120497, Note_on_c, 9, 35, 0
1, 120505, Note_on_c, 9, 51, 0
1, 120563, Note_on_c, 9, 51, 80
1, 120565, Note_on_c, 0, 70, 63
1, 120573, Note_on_c, 0, 66, 43
1, 120573, Note_on_c, 1, 38, 89
1, 120577, Note_on_c, 1, 34, 0
1, 120577, Note_on_c, 0, 62, 45
1, 120581, Note_on_c, 0, 55, 52
1, 120605, Note_on_c, 0, 55, 0
1, 120605, Note_on_c, 0, 66, 0
1, 120617, Note_on_c, 0, 62, 0
1, 120633, Note_on_c, 0, 70, 0
1, 120677, Note_on_c, 0, 70, 63
1, 120681, Note_on_c, 0, 62, 48
1, 120685, Note_on_c, 0, 55, 43
1, 120709, Note_on_c, 0, 55, 0
1, 120721, Note_on_c, 0, 62, 0
1, 120741, Note_on_c, 0, 70, 0
1, 120813, Note_on_c, 0, 62, 54
1, 120825, Note_on_c, 0, 65, 31
1, 120829, Note_on_c, 0, 48, 44
1, 120833, Note_on_c, 0, 64, 36
1, 120853, Note_on_c, 0, 48, 0
1, 120861, Note_on_c, 0, 65, 0
1, 120861, Note_on_c, 0, 64, 0
1, 120865, Note_on_c, 0, 62, 0
1, 120867, Note_on_c, 9, 51, 0
1, 120937, Note_on_c, 0, 62, 45
1, 120937, Note_on_c, 0, 65, 36
1, 120937, Note_on_c, 1, 37, 79
1, 120947, Note_on_c, 9, 51, 78
1, 120951, Note_on_c, 9, 44, 119
1, 120973, Note_on_c, 0, 62, 0
1, 120973, Note_on_c, 1, 38, 0
1, 120981, Note_on_c, 0, 65, 0
1, 121041, Note_on_c, 9, 44, 0
1, 121061, Note_on_c, 0, 58, 52
1, 121065, Note_on_c, 0, 65, 56
1, 121073, Note_on_c, 0, 62, 52
1, 121081, Note_on_c, 0, 58, 0
1, 121101, Note_on_c, 0, 62, 0
1, 121109, Note_on_c, 0, 65, 0
1, 121193, Note_on_c, 0, 65, 55
1, 121201, Note_on_c, 0, 62, 50
1, 121203, Note_on_c, 9, 51, 68
1, 121207, Note_on_c, 9, 51, 0
1, 121209, Note_on_c, 9, 35, 35
1, 121221, Note_on_c, 0, 65, 0
1, 121225, Note_on_c, 0, 62, 0
1, 121241, Note_on_c, 9, 35, 0
1, 121271, Note_on_c, 9, 51, 0
1, 121277, Note_on_c, 1, 37, 0
1, 121313, Note_on_c, 1, 36, 73
1, 121329, Note_on_c, 0, 58, 72
1, 121331, Note_on_c, 9, 51, 73
1, 121333, Note_on_c, 0, 65, 61
1, 121341, Note_on_c, 0, 48, 60
1, 121345, Note_on_c, 9, 35, 21
1, 121357, Note_on_c, 0, 47, 31
1, 121381, Note_on_c, 0, 47, 0
1, 121399, Note_on_c, 9, 35, 0
1, 121401, Note_on_c, 0, 58, 0
1, 121413, Note_on_c, 0, 65, 0
1, 121469, Note_on_c, 0, 58, 35
1, 121473, Note_on_c, 0, 65, 55
1, 121489, Note_on_c, 0, 65, 0
1, 121497, Note_on_c, 0, 58, 0
1, 121571, Note_on_c, 9, 31, 50
1, 121577, Note_on_c, 0, 36, 60
1, 121577, Note_on_c, 0, 58, 56
1, 121597, Note_on_c, 0, 61, 36
1, 121605, Note_on_c, 0, 36, 0
1, 121605, Note_on_c, 1, 40, 26
1, 121629, Note_on_c, 9, 31, 0
1, 121633, Note_on_c, 0, 48, 0
1, 121633, Note_on_c, 0, 61, 0
1, 121637, Note_on_c, 1, 40, 0
1, 121645, Note_on_c, 0, 58, 0
1, 121655, Note_on_c, 9, 51, 0
1, 121685, Note_on_c, 1, 49, 84
1, 121705, Note_on_c, 1, 36, 0
1, 121713, Note_on_c, 0, 58, 36
1, 121715, Note_on_c, 0, 64, 39
1, 121715, Note_on_c, 9, 51, 98
1, 121719, Note_on_c, 0, 61, 36
1, 121719, Note_on_c, 9, 44, 117
1, 121749, Note_on_c, 0, 61, 0
1, 121749, Note_on_c, 0, 58, 0
1, 121769, Note_on_c, 0, 64, 0
1, 121799, Note_on_c, 9, 44, 0
1, 121829, Note_on_c, 0, 48, 63
1, 121829, Note_on_c, 0, 58, 54
1, 121837, Note_on_c, 0, 47, 57
1, 121837, Note_on_c, 0, 64, 42
1, 121841, Note_on_c, 0, 61, 39
1, 121853, Note_on_c, 0, 47, 0
1, 121869, Note_on_c, 0, 61, 0
1, 121873, Note_on_c, 0, 58, 0
1, 121877, Note_on_c, 0, 64, 0
1, 121977, Note_on_c, 0, 64, 37
1, 122021, Note_on_c, 0, 64, 0
1, 122035, Note_on_c, 9, 51, 0
1, 122073, Note_on_c, 1, 49, 0
1, 122081, Note_on_c, 0, 36, 61
1, 122081, Note_on_c, 1, 48, 67
1, 122099, Note_on_c, 0, 36, 0
1, 122099, Note_on_c, 0, 58, 56
1, 122099, Note_on_c, 9, 51, 80
1, 122121, Note_on_c, 0, 58, 0
1, 122133, Note_on_c, 0, 48, 0
1, 122217, Note_on_c, 0, 64, 39
1, 122257, Note_on_c, 0, 64, 0
1, 122337, Note_on_c, 0, 48, 49
1, 122341, Note_on_c, 0, 68, 57
1, 122341, Note_on_c, 0, 58, 57
1, 122345, Note_on_c, 0, 47, 35
1, 122353, Note_on_c, 0, 61, 41
1, 122361, Note_on_c, 1, 39, 66
1, 122373, Note_on_c, 0, 47, 0
1, 122381, Note_on_c, 1, 48, 0
1, 122389, Note_on_c, 0, 61, 0
1, 122391, Note_on_c, 9, 51, 0
1, 122393, Note_on_c, 0, 58, 0
1, 122401, Note_on_c, 0, 68, 0
1, 122449, Note_on_c, 1, 39, 0
1, 122473, Note_on_c, 0, 68, 54
1, 122477, Note_on_c, 0, 58, 48
1, 122477, Note_on_c, 1, 40, 72
1, 122483, Note_on_c, 9, 51, 84
1, 122487, Note_on_c, 9, 44, 110
1, 122493, Note_on_c, 0, 61, 38
1, 122521, Note_on_c, 0, 61, 0
1, 122529, Note_on_c, 0, 68, 0
1, 122529, Note_on_c, 0, 58, 0
1, 122609, Note_on_c, 0, 36, 49
1, 122615, Note_on_c, 9, 44, 0
1, 122625, Note_on_c, 0, 57, 31
1, 122625, Note_on_c, 0, 60, 34
1, 122625, Note_on_c, 9, 31, 45
1, 122633, Note_on_c, 0, 36, 0
1, 122645, Note_on_c, 0, 62, 22
1, 122657, Note_on_c, 0, 57, 0
1, 122657, Note_on_c, 0, 60, 0
1, 122669, Note_on_c, 0, 62, 0
1, 122679, Note_on_c, 9, 31, 0
1, 122689, Note_on_c, 0, 48, 0
1, 122723, Note_on_c, 9, 51, 0
1, 122737, Note_on_c, 0, 62, 37
1, 122737, Note_on_c, 0, 60, 48
1, 122739, Note_on_c, 9, 51, 59
1, 122745, Note_on_c, 0, 57, 34
1, 122745, Note_on_c, 1, 39, 39
1, 122745, Note_on_c, 9, 37, 35
1, 122765, Note_on_c, 0, 60, 0
1, 122769, Note_on_c, 0, 57, 0
1, 122769, Note_on_c, 0, 62, 0
1, 122791, Note_on_c, 9, 51, 0
1, 122809, Note_on_c, 1, 40, 0
1, 122825, Note_on_c, 9, 37, 0
1, 122837, Note_on_c, 1, 39, 0
1, 122853, Note_on_c, 1, 41, 73
1, 122857, Note_on_c, 0, 48, 49
1, 122861, Note_on_c, 0, 60, 61
1, 122865, Note_on_c, 0, 69, 54
1, 122867, Note_on_c, 9, 51, 66
1, 122869, Note_on_c, 0, 47, 39
1, 122873, Note_on_c, 0, 65, 46
1, 122881, Note_on_c, 9, 35, 52
1, 122893, Note_on_c, 0, 47, 0
1, 122913, Note_on_c, 0, 60, 0
1, 122933, Note_on_c, 0, 69, 0
1, 122941, Note_on_c, 0, 65, 0
1, 122985, Note_on_c, 0, 69, 54
1, 122993, Note_on_c, 0, 60, 50
1, 123001, Note_on_c, 0, 62, 57
1, 123009, Note_on_c, 0, 69, 0
1, 123021, Note_on_c, 0, 62, 0
1, 123033, Note_on_c, 0, 60, 0
1, 123059, Note_on_c, 9, 35, 0
1, 123117, Note_on_c, 0, 60, 48
1, 123117, Note_on_c, 0, 36, 48
1, 123125, Note_on_c, 0, 57, 34
1, 123125, Note_on_c, 0, 65, 36
1, 123129, Note_on_c, 0, 62, 36
1, 123141, Note_on_c, 0, 36, 0
1, 123145, Note_on_c, 9, 51, 0
1, 123149, Note_on_c, 0, 65, 0
1, 123161, Note_on_c, 0, 57, 0
1, 123173, Note_on_c, 0, 62, 0
1, 123177, Note_on_c, 0, 60, 0
1, 123189, Note_on_c, 0, 48, 0
1, 123233, Note_on_c, 1, 50, 107
1, 123237, Note_on_c, 0, 65, 58
1, 123241, Note_on_c, 1, 41, 0
1, 123241, Note_on_c, 0, 60, 50
1, 123251, Note_on_c, 9, 51, 103
1, 123255, Note_on_c, 9, 44, 108
1, 123257, Note_on_c, 0, 60, 0
1, 123277, Note_on_c, 0, 65, 0
1, 123369, Note_on_c, 0, 72, 77
1, 123373, Note_on_c, 0, 67, 61
1, 123377, Note_on_c, 9, 44, 0
1, 123385, Note_on_c, 0, 62, 45
1, 123389, Note_on_c, 0, 64, 42
1, 123409, Note_on_c, 0, 62, 0
1, 123413, Note_on_c, 0, 64, 0
1, 123433, Note_on_c, 0, 67, 0
1, 123433, Note_on_c, 0, 72, 0
1, 123481, Note_on_c, 9, 51, 0
1, 123501, Note_on_c, 0, 72, 57
1, 123505, Note_on_c, 0, 67, 63
1, 123507, Note_on_c, 9, 51, 64
1, 123513, Note_on_c, 0, 62, 41
1, 123513, Note_on_c, 9, 35, 47
1, 123537, Note_on_c, 0, 62, 0
1, 123541, Note_on_c, 0, 72, 0
1, 123545, Note_on_c, 0, 67, 0
1, 123545, Note_on_c, 9, 35, 0
1, 123555, Note_on_c, 9, 51, 0
1, 123617, Note_on_c, 1, 50, 0
1, 123621, Note_on_c, 1, 48, 75
1, 123635, Note_on_c, 9, 51, 84
1, 123641, Note_on_c, 0, 69, 42
1, 123645, Note_on_c, 0, 64, 32
1, 123661, Note_on_c, 0, 69, 0
1, 123689, Note_on_c, 0, 64, 0
1, 123749, Note_on_c, 0, 64, 57
1, 123749, Note_on_c, 0, 69, 60
1, 123753, Note_on_c, 0, 53, 52
1, 123769, Note_on_c, 0, 53, 0
1, 123781, Note_on_c, 0, 64, 0
1, 123793, Note_on_c, 0, 69, 0
1, 123881, Note_on_c, 0, 74, 83
1, 123881, Note_on_c, 0, 58, 74
1, 123885, Note_on_c, 0, 64, 71
1, 123889, Note_on_c, 0, 68, 68
1, 123921, Note_on_c, 0, 64, 0
1, 123927, Note_on_c, 9, 51, 0
1, 123929, Note_on_c, 0, 58, 0
1, 123945, Note_on_c, 0, 68, 0
1, 123957, Note_on_c, 0, 74, 0
1, 124009, Note_on_c, 0, 74, 72
1, 124009, Note_on_c, 0, 58, 60
1, 124013, Note_on_c, 0, 68, 58
1, 124019, Note_on_c, 9, 51, 99
1, 124021, Note_on_c, 1, 40, 99
1, 124023, Note_on_c, 9, 44, 110
1, 124025, Note_on_c, 0, 64, 31
1, 124037, Note_on_c, 1, 48, 0
1, 124049, Note_on_c, 0, 74, 0
1, 124057, Note_on_c, 0, 58, 0
1, 124061, Note_on_c, 0, 64, 0
1, 124089, Note_on_c, 0, 68, 0
1, 124129, Note_on_c, 0, 72, 57
1, 124133, Note_on_c, 0, 67, 57
1, 124133, Note_on_c, 0, 57, 52
1, 124137, Note_on_c, 0, 62, 45
1, 124165, Note_on_c, 0, 57, 0
1, 124169, Note_on_c, 9, 44, 0
1, 124181, Note_on_c, 0, 72, 0
1, 124189, Note_on_c, 0, 62, 0
1, 124197, Note_on_c, 0, 67, 0
1, 124257, Note_on_c, 0, 72, 58
1, 124261, Note_on_c, 0, 57, 50
1, 124261, Note_on_c, 0, 67, 40
1, 124277, Note_on_c, 0, 57, 0
1, 124281, Note_on_c, 0, 72, 0
1, 124285, Note_on_c, 0, 67, 0
1, 124313, Note_on_c, 9, 51, 0
1, 124381, Note_on_c, 0, 79, 75
1, 124385, Note_on_c, 0, 72, 54
1, 124393, Note_on_c, 0, 69, 40
1, 124393, Note_on_c, 0, 64, 51
1, 124401, Note_on_c, 1, 41, 84
1, 124403, Note_on_c, 9, 51, 68
1, 124423, Note_on_c, 9, 35, 28
1, 124429, Note_on_c, 1, 40, 0
1, 124445, Note_on_c, 0, 64, 0
1, 124453, Note_on_c, 0, 69, 0
1, 124453, Note_on_c, 0, 72, 0
1, 124477, Note_on_c, 0, 79, 0
1, 124477, Note_on_c, 9, 35, 0
1, 124513, Note_on_c, 0, 72, 51
1, 124517, Note_on_c, 0, 69, 54
1, 124517, Note_on_c, 0, 64, 56
1, 124517, Note_on_c, 0, 79, 24
1, 124545, Note_on_c, 0, 79, 0
1, 124561, Note_on_c, 0, 72, 0
1, 124569, Note_on_c, 0, 64, 0
1, 124573, Note_on_c, 0, 69, 0
1, 124621, Note_on_c, 0, 73, 57
1, 124637, Note_on_c, 0, 60, 59
1, 124641, Note_on_c, 0, 67, 40
1, 124653, Note_on_c, 0, 76, 40
1, 124673, Note_on_c, 1, 40, 48
1, 124681, Note_on_c, 0, 60, 0
1, 124685, Note_on_c, 0, 73, 0
1, 124693, Note_on_c, 0, 67, 0
1, 124697, Note_on_c, 9, 51, 0
1, 124713, Note_on_c, 1, 41, 0
1, 124717, Note_on_c, 0, 76, 0
1, 124757, Note_on_c, 0, 67, 55
1, 124761, Note_on_c, 0, 69, 57
1, 124765, Note_on_c, 0, 76, 60
1, 124769, Note_on_c, 1, 40, 0
1, 124773, Note_on_c, 0, 60, 56
1, 124777, Note_on_c, 0, 67, 0
1, 124777, Note_on_c, 1, 50, 107
1, 124781, Note_on_c, 0, 69, 0
1, 124785, Note_on_c, 1, 52, 57
1, 124785, Note_on_c, 9, 51, 82
1, 124789, Note_on_c, 0, 60, 0
1, 124791, Note_on_c, 9, 44, 98
1, 124805, Note_on_c, 1, 52, 0
1, 124809, Note_on_c, 0, 76, 0
1, 124893, Note_on_c, 0, 81, 82
1, 124897, Note_on_c, 0, 76, 80
1, 124897, Note_on_c, 0, 72, 75
1, 124913, Note_on_c, 0, 69, 61
1, 124949, Note_on_c, 0, 69, 0
1, 124961, Note_on_c, 9, 44, 0
1, 124965, Note_on_c, 0, 81, 0
1, 124965, Note_on_c, 0, 72, 0
1, 124969, Note_on_c, 0, 76, 0
1, 125013, Note_on_c, 0, 81, 78
1, 125021, Note_on_c, 0, 76, 71
1, 125021, Note_on_c, 0, 72, 60
1, 125025, Note_on_c, 0, 69, 55
1, 125027, Note_on_c, 9, 51, 0
1, 125043, Note_on_c, 9, 51, 54
1, 125045, Note_on_c, 0, 69, 0
1, 125047, Note_on_c, 9, 35, 28
1, 125053, Note_on_c, 0, 81, 0
1, 125057, Note_on_c, 0, 76, 0
1, 125073, Note_on_c, 0, 72, 0
1, 125079, Note_on_c, 9, 35, 0
1, 125095, Note_on_c, 9, 51, 0
1, 125149, Note_on_c, 0, 69, 68
1, 125149, Note_on_c, 0, 77, 72
1, 125149, Note_on_c, 0, 65, 61
1, 125149, Note_on_c, 0, 72, 63
1, 125171, Note_on_c, 9, 51, 84
1, 125185, Note_on_c, 0, 65, 0
1, 125201, Note_on_c, 0, 69, 0
1, 125209, Note_on_c, 0, 77, 0
1, 125221, Note_on_c, 0, 72, 0
1, 125265, Note_on_c, 0, 77, 57
1, 125273, Note_on_c, 0, 72, 53
1, 125273, Note_on_c, 0, 65, 54
1, 125273, Note_on_c, 0, 69, 61
1, 125281, Note_on_c, 1, 48, 68
1, 125293, Note_on_c, 1, 50, 0
1, 125297, Note_on_c, 0, 72, 0
1, 125313, Note_on_c, 0, 77, 0
1, 125317, Note_on_c, 0, 65, 0
1, 125317, Note_on_c, 0, 69, 0
1, 125329, Note_on_c, 1, 48, 0
1, 125393, Note_on_c, 0, 76, 68
1, 125397, Note_on_c, 0, 64, 66
1, 125401, Note_on_c, 0, 67, 60
1, 125401, Note_on_c, 0, 72, 64
1, 125401, Note_on_c, 0, 69, 58
1, 125405, Note_on_c, 1, 41, 81
1, 125417, Note_on_c, 9, 31, 49
1, 125443, Note_on_c, 9, 31, 0
1, 125449, Note_on_c, 0, 64, 0
1, 125473, Note_on_c, 0, 67, 0
1, 125477, Note_on_c, 0, 76, 0
1, 125477, Note_on_c, 0, 69, 0
1, 125481, Note_on_c, 9, 51, 0
1, 125485, Note_on_c, 0, 72, 0
1, 125517, Note_on_c, 0, 76, 63
1, 125525, Note_on_c, 0, 64, 56
1, 125529, Note_on_c, 1, 41, 0
1, 125533, Note_on_c, 0, 67, 36
1, 125533, Note_on_c, 0, 69, 46
1, 125545, Note_on_c, 0, 72, 36
1, 125549, Note_on_c, 0, 64, 0
1, 125549, Note_on_c, 1, 39, 66
1, 125555, Note_on_c, 9, 51, 106
1, 125559, Note_on_c, 9, 44, 101
1, 125561, Note_on_c, 0, 67, 0
1, 125573, Note_on_c, 0, 72, 0
1, 125573, Note_on_c, 0, 76, 0
1, 125589, Note_on_c, 0, 69, 0
1, 125649, Note_on_c, 0, 60, 57
1, 125653, Note_on_c, 0, 75, 66
1, 125657, Note_on_c, 1, 39, 0
1, 125661, Note_on_c, 0, 65, 51
1, 125669, Note_on_c, 0, 69, 44
1, 125671, Note_on_c, 9, 44, 0
1, 125673, Note_on_c, 0, 75, 0
1, 125681, Note_on_c, 1, 40, 57
1, 125685, Note_on_c, 0, 65, 0
1, 125705, Note_on_c, 0, 60, 0
1, 125705, Note_on_c, 9, 31, 64
1, 125709, Note_on_c, 0, 69, 0
1, 125763, Note_on_c, 9, 51, 0
1, 125763, Note_on_c, 9, 31, 0
1, 125773, Note_on_c, 0, 75, 85
1, 125781, Note_on_c, 1, 40, 0
1, 125781, Note_on_c, 0, 65, 68
1, 125785, Note_on_c, 0, 69, 58
1, 125789, Note_on_c, 0, 60, 57
1, 125805, Note_on_c, 1, 41, 98
1, 125811, Note_on_c, 9, 51, 56
1, 125825, Note_on_c, 9, 34, 54
1, 125833, Note_on_c, 0, 69, 0
1, 125833, Note_on_c, 0, 65, 0
1, 125845, Note_on_c, 0, 75, 0
1, 125857, Note_on_c, 0, 60, 0
1, 125863, Note_on_c, 9, 51, 0
1, 125901, Note_on_c, 0, 74, 81
1, 125913, Note_on_c, 0, 63, 63
1, 125921, Note_on_c, 9, 34, 0
1, 125925, Note_on_c, 0, 68, 39
1, 125939, Note_on_c, 9, 51, 98
1, 125949, Note_on_c, 0, 68, 0
1, 125965, Note_on_c, 0, 63, 0
1, 125969, Note_on_c, 0, 74, 0
1, 125969, Note_on_c, 9, 35, 33
1, 126037, Note_on_c, 0, 74, 74
1, 126053, Note_on_c, 0, 63, 66
1, 126057, Note_on_c, 0, 67, 46
1, 126085, Note_on_c, 0, 63, 0
1, 126109, Note_on_c, 0, 67, 0
1, 126113, Note_on_c, 0, 74, 0
1, 126153, Note_on_c, 0, 72, 68
1, 126157, Note_on_c, 0, 63, 73
1, 126161, Note_on_c, 0, 62, 67
1, 126161, Note_on_c, 0, 67, 73
1, 126163, Note_on_c, 9, 35, 0
1, 126209, Note_on_c, 0, 62, 0
1, 126209, Note_on_c, 1, 36, 67
1, 126231, Note_on_c, 9, 51, 0
1, 126233, Note_on_c, 0, 63, 0
1, 126241, Note_on_c, 1, 41, 0
1, 126241, Note_on_c, 0, 67, 0
1, 126245, Note_on_c, 0, 72, 0
1, 126281, Control_c, 0, 64, 127
1, 126289, Note_on_c, 0, 72, 71
1, 126289, Note_on_c, 0, 62, 60
1, 126289, Note_on_c, 0, 63, 53
1, 126293, Note_on_c, 0, 67, 55
1, 126313, Note_on_c, 0, 62, 0
1, 126323, Note_on_c, 9, 51, 87
1, 126327, Note_on_c, 9, 44, 87
1, 126333, Note_on_c, 1, 36, 0
1, 126353, Note_on_c, 1, 33, 72
1, 126369, Note_on_c, 0, 67, 0
1, 126373, Note_on_c, 0, 72, 0
1, 126381, Note_on_c, 0, 63, 0
1, 126417, Note_on_c, 0, 63, 66
1, 126429, Note_on_c, 0, 69, 67
1, 126433, Note_on_c, 0, 57, 64
1, 126433, Note_on_c, 0, 67, 41
1, 126445, Control_c, 0, 64, 0
1, 126449, Note_on_c, 0, 57, 0
1, 126449, Note_on_c, 9, 44, 0
1, 126461, Note_on_c, 0, 67, 0
1, 126485, Note_on_c, 0, 63, 0
1, 126501, Note_on_c, 0, 69, 0
1, 126553, Note_on_c, 0, 63, 50
1, 126557, Note_on_c, 0, 69, 51
1, 126573, Control_c, 0, 64, 127
1, 126581, Note_on_c, 0, 69, 0
1, 126583, Note_on_c, 9, 35, 28
1, 126605, Note_on_c, 0, 53, 40
1, 126609, Note_on_c, 0, 63, 0
1, 126617, Note_on_c, 9, 51, 0
1, 126637, Note_on_c, 9, 35, 0
1, 126677, Note_on_c, 0, 53, 0
1, 126689, Control_c, 0, 64, 0
1, 126705, Note_on_c, 0, 69, 60
1, 126705, Note_on_c, 0, 60, 61
1, 126705, Note_on_c, 9, 35, 29
1, 126707, Note_on_c, 0, 63, 56
1, 126707, Note_on_c, 9, 51, 68
1, 126709, Note_on_c, 1, 33, 0
1, 126713, Note_on_c, 0, 57, 63
1, 126729, Note_on_c, 0, 66, 40
1, 126733, Note_on_c, 1, 31, 61
1, 126833, Note_on_c, 9, 35, 0
1, 126845, Note_on_c, 0, 69, 0
1, 126897, Note_on_c, 0, 60, 0
1, 126905, Note_on_c, 0, 63, 0
1, 126905, Note_on_c, 0, 66, 0
1, 126919, Note_on_c, 9, 51, 0
1, 126945, Note_on_c, 0, 57, 0
1, 126969, Control_c, 0, 64, 127
1, 126973, Note_on_c, 0, 56, 63
1, 126973, Note_on_c, 0, 68, 57
1, 126981, Note_on_c, 0, 63, 63
1, 126981, Note_on_c, 0, 60, 64
1, 127021, Note_on_c, 0, 68, 0
1, 127025, Note_on_c, 0, 63, 0
1, 127057, Note_on_c, 0, 60, 0
1, 127077, Note_on_c, 1, 31, 0
1, 127077, Control_c, 0, 64, 0
1, 127091, Note_on_c, 9, 51, 96
1, 127093, Note_on_c, 0, 56, 0
1, 127095, Note_on_c, 9, 44, 96
1, 127105, Note_on_c, 1, 30, 72
1, 127121, Note_on_c, 0, 67, 45
1, 127125, Note_on_c, 0, 55, 56
1, 127129, Note_on_c, 0, 63, 39
1, 127137, Note_on_c, 0, 60, 44
1, 127137, Note_on_c, 0, 57, 31
1, 127149, Note_on_c, 0, 59, 29
1, 127173, Note_on_c, 0, 59, 0
1, 127221, Note_on_c, 0, 57, 0
1, 127223, Note_on_c, 9, 44, 0
1, 127229, Note_on_c, 0, 67, 0
1, 127245, Note_on_c, 0, 55, 0
1, 127257, Note_on_c, 0, 60, 0
1, 127281, Note_on_c, 0, 63, 0
1, 127331, Note_on_c, 9, 51, 0
1, 127347, Note_on_c, 9, 51, 66
1, 127361, Note_on_c, 0, 54, 63
1, 127365, Note_on_c, 0, 66, 57
1, 127373, Note_on_c, 0, 57, 51
1, 127373, Note_on_c, 0, 60, 50
1, 127385, Note_on_c, 0, 63, 33
1, 127399, Note_on_c, 9, 51, 0
1, 127421, Note_on_c, 0, 66, 0
1, 127433, Note_on_c, 0, 54, 0
1, 127449, Note_on_c, 0, 60, 0
1, 127453, Note_on_c, 1, 30, 0
1, 127453, Note_on_c, 0, 57, 0
1, 127461, Note_on_c, 0, 63, 0
1, 127475, Note_on_c, 9, 51, 98
1, 127481, Note_on_c, 1, 29, 72
1, 127509, Note_on_c, 0, 65, 54
1, 127509, Note_on_c, 0, 57, 54
1, 127513, Note_on_c, 0, 60, 47
1, 127517, Note_on_c, 0, 53, 55
1, 127533, Note_on_c, 0, 63, 40
1, 127685, Control_c, 0, 64, 127
1, 127693, Note_on_c, 0, 53, 0
1, 127737, Note_on_c, 0, 57, 0
1, 127741, Note_on_c, 0, 60, 0
1, 127757, Note_on_c, 0, 41, 48
1, 127779, Note_on_c, 9, 51, 0
1, 127789, Note_on_c, 1, 29, 0
1, 127821, Control_c, 0, 64, 0
1, 127837, Note_on_c, 1, 29, 75
1, 127859, Note_on_c, 9, 51, 103
1, 127863, Note_on_c, 9, 44, 101
1, 127885, Note_on_c, 0, 51, 48
1, 127889, Note_on_c, 0, 60, 51
1, 127889, Note_on_c, 0, 57, 48
1, 127965, Control_c, 0, 64, 127
1, 128017, Note_on_c, 9, 44, 0
1, 128051, Note_on_c, 9, 51, 0
1, 128057, Note_on_c, 0, 41, 0
1, 128105, Note_on_c, 0, 51, 0
1, 128105, Note_on_c, 9, 35, 54
1, 128113, Note_on_c, 0, 57, 0
1, 128113, Note_on_c, 0, 60, 0
1, 128115, Note_on_c, 9, 51, 84
1, 128149, Note_on_c, 0, 41, 43
1, 128151, Note_on_c, 9, 51, 0
1, 128181, Control_c, 0, 64, 0
1, 128205, Note_on_c, 9, 35, 0
1, 128237, Note_on_c, 1, 36, 80
1, 128243, Note_on_c, 9, 51, 99
1, 128249, Note_on_c, 0, 57, 49
1, 128253, Note_on_c, 0, 51, 55
1, 128263, Note_on_c, 9, 35, 26
1, 128297, Control_c, 0, 64, 127
1, 128301, Note_on_c, 1, 29, 0
1, 128369, Note_on_c, 0, 51, 0
1, 128385, Note_on_c, 0, 41, 0
1, 128449, Note_on_c, 9, 35, 0
1, 128503, Note_on_c, 9, 51, 0
1, 128513, Note_on_c, 9, 35, 49
1, 128545, Note_on_c, 9, 35, 0
1, 128545, Control_c, 0, 64, 0
1, 128613, Note_on_c, 1, 35, 81
1, 128625, Note_on_c, 0, 41, 53
1, 128627, Note_on_c, 9, 51, 108
1, 128631, Note_on_c, 9, 46, 45
1, 128641, Control_c, 0, 64, 127
1, 128649, Note_on_c, 1, 36, 0
1, 128653, Note_on_c, 0, 41, 0
1, 128757, Note_on_c, 0, 57, 0
1, 128777, Note_on_c, 9, 46, 0
1, 128813, Note_on_c, 0, 65, 0
1, 128813, Note_on_c, 0, 63, 0
1, 128899, Note_on_c, 9, 51, 0
1, 128901, Note_on_c, 0, 53, 52
1, 128953, Control_c, 0, 64, 0
1, 128961, Note_on_c, 0, 53, 0
1, 128973, Note_on_c, 1, 35, 0
1, 129001, Note_on_c, 0, 46, 51
1, 129009, Note_on_c, 1, 34, 76
1, 129011, Note_on_c, 9, 51, 112
1, 129017, Note_on_c, 0, 58, 65
1, 129101, Note_on_c, 0, 58, 0
1, 129137, Note_on_c, 0, 60, 52
1, 129161, Note_on_c, 0, 58, 55
1, 129185, Note_on_c, 0, 60, 0
1, 129241, Note_on_c, 0, 57, 46
1, 129249, Note_on_c, 0, 58, 0
1, 129305, Note_on_c, 9, 51, 0
1, 129313, Note_on_c, 0, 57, 0
1, 129341, Note_on_c, 0, 58, 67
1, 129389, Note_on_c, 0, 58, 0
1, 129393, Note_on_c, 1, 34, 0
1, 129393, Note_on_c, 1, 40, 82
1, 129395, Note_on_c, 9, 51, 61
1, 129399, Note_on_c, 9, 44, 96
1, 129417, Note_on_c, 0, 53, 43
1, 129461, Note_on_c, 0, 62, 75
1, 129481, Note_on_c, 0, 53, 0
1, 129489, Note_on_c, 0, 46, 0
1, 129537, Note_on_c, 0, 62, 0
1, 129545, Note_on_c, 9, 44, 0
1, 129557, Note_on_c, 0, 64, 54
1, 129593, Note_on_c, 0, 62, 55
1, 129603, Note_on_c, 9, 51, 0
1, 129613, Note_on_c, 0, 64, 0
1, 129635, Note_on_c, 9, 35, 59
1, 129641, Note_on_c, 0, 61, 53
1, 129651, Note_on_c, 9, 51, 68
1, 129657, Note_on_c, 0, 62, 0
1, 129661, Note_on_c, 9, 35, 0
1, 129687, Note_on_c, 9, 51, 0
1, 129697, Note_on_c, 0, 61, 0
1, 129745, Note_on_c, 0, 62, 63
1, 129777, Note_on_c, 1, 41, 72
1, 129779, Note_on_c, 9, 51, 75
1, 129785, Note_on_c, 1, 40, 0
1, 129793, Note_on_c, 0, 62, 0
1, 129849, Note_on_c, 0, 70, 79
1, 129977, Note_on_c, 9, 51, 0
1, 130029, Note_on_c, 0, 64, 75
1, 130029, Note_on_c, 1, 48, 79
1, 130117, Note_on_c, 1, 41, 0
1, 130121, Note_on_c, 0, 64, 0
1, 130129, Note_on_c, 1, 48, 0
1, 130137, Note_on_c, 0, 70, 0
1, 130163, Note_on_c, 9, 51, 117
1, 130167, Note_on_c, 9, 44, 94
1, 130169, Note_on_c, 1, 47, 63
1, 130189, Note_on_c, 0, 67, 82
1, 130209, Note_on_c, 0, 60, 22
1, 130241, Note_on_c, 0, 60, 0
1, 130285, Note_on_c, 0, 67, 0
1, 130297, Note_on_c, 0, 64, 52
1, 130313, Note_on_c, 9, 44, 0
1, 130361, Note_on_c, 0, 64, 0
1, 130409, Note_on_c, 9, 51, 0
1, 130413, Note_on_c, 1, 47, 0
1, 130417, Note_on_c, 0, 65, 68
1, 130419, Note_on_c, 9, 51, 35
1, 130433, Note_on_c, 1, 40, 41
1, 130461, Note_on_c, 1, 45, 21
1, 130465, Note_on_c, 1, 40, 0
1, 130483, Note_on_c, 9, 51, 0
1, 130525, Note_on_c, 0, 62, 41
1, 130533, Note_on_c, 1, 45, 0
1, 130541, Note_on_c, 0, 60, 46
1, 130547, Note_on_c, 9, 51, 78
1, 130549, Note_on_c, 1, 46, 68
1, 130757, Note_on_c, 0, 60, 0
1, 130777, Note_on_c, 0, 55, 50
1, 130821, Note_on_c, 0, 65, 0
1, 130821, Note_on_c, 0, 62, 0
1, 130851, Note_on_c, 9, 51, 0
1, 130877, Note_on_c, 1, 46, 0
1, 130913, Note_on_c, 1, 40, 62
1, 130931, Note_on_c, 9, 51, 87
1, 130935, Note_on_c, 9, 44, 105
1, 131097, Note_on_c, 9, 44, 0
1, 131155, Note_on_c, 9, 51, 0
1, 131181, Note_on_c, 0, 62, 43
1, 131185, Note_on_c, 0, 65, 57
1, 131187, Note_on_c, 9, 51, 75
1, 131189, Note_on_c, 0, 60, 43
1, 131193, Note_on_c, 1, 38, 63
1, 131217, Note_on_c, 0, 62, 0
1, 131229, Note_on_c, 1, 38, 0
1, 131241, Note_on_c, 9, 51, 0
1, 131249, Note_on_c, 1, 40, 0
1, 131301, Note_on_c, 1, 41, 66
1, 131315, Note_on_c, 9, 51, 57
1, 131319, Note_on_c, 9, 34, 31
1, 131329, Note_on_c, 0, 67, 52
1, 131333, Note_on_c, 0, 60, 0
1, 131337, Note_on_c, 0, 65, 0
1, 131389, Note_on_c, 9, 34, 0
1, 131425, Note_on_c, 0, 55, 0
1, 131429, Note_on_c, 0, 67, 0
1, 131449, Note_on_c, 0, 68, 65
1, 131523, Note_on_c, 9, 51, 0
1, 131541, Note_on_c, 0, 68, 0
1, 131565, Note_on_c, 0, 70, 66
1, 131565, Note_on_c, 1, 38, 31
1, 131571, Note_on_c, 9, 53, 80
1, 131589, Note_on_c, 1, 38, 0
1, 131605, Note_on_c, 0, 68, 7
1, 131623, Note_on_c, 9, 53, 0
1, 131649, Note_on_c, 0, 68, 0
1, 131653, Note_on_c, 0, 70, 0
1, 131669, Note_on_c, 1, 41, 0
1, 131681, Note_on_c, 1, 44, 76
1, 131689, Note_on_c, 0, 54, 46
1, 131689, Note_on_c, 0, 65, 41
1, 131693, Note_on_c, 0, 72, 57
1, 131699, Note_on_c, 9, 51, 43
1, 131703, Note_on_c, 9, 44, 96
1, 131705, Note_on_c, 0, 60, 42
1, 131777, Note_on_c, 0, 72, 0
1, 131793, Note_on_c, 0, 74, 58
1, 131857, Note_on_c, 0, 74, 0
1, 131857, Note_on_c, 0, 75, 61
1, 131873, Note_on_c, 9, 44, 0
1, 131877, Note_on_c, 0, 75, 0
1, 131893, Note_on_c, 0, 65, 0
1, 131905, Note_on_c, 1, 38, 50
1, 131913, Note_on_c, 0, 60, 0
1, 131917, Note_on_c, 0, 77, 58
1, 131925, Note_on_c, 1, 38, 0
1, 131937, Note_on_c, 0, 77, 0
1, 131977, Note_on_c, 9, 51, 0
1, 132005, Note_on_c, 0, 80, 48
1, 132029, Note_on_c, 0, 54, 0
1, 132065, Note_on_c, 0, 82, 67
1, 132065, Note_on_c, 1, 43, 62
1, 132069, Note_on_c, 0, 80, 0
1, 132069, Note_on_c, 1, 44, 0
1, 132083, Note_on_c, 9, 51, 84
1, 132097, Note_on_c, 0, 59, 45
1, 132101, Note_on_c, 0, 53, 42
1, 132101, Note_on_c, 0, 64, 38
1, 132125, Note_on_c, 0, 79, 65
1, 132137, Note_on_c, 0, 82, 0
1, 132225, Note_on_c, 0, 79, 0
1, 132265, Note_on_c, 0, 79, 60
1, 132317, Note_on_c, 0, 79, 0
1, 132361, Note_on_c, 9, 51, 0
1, 132437, Note_on_c, 0, 79, 68
1, 132457, Note_on_c, 1, 30, 81
1, 132467, Note_on_c, 9, 51, 84
1, 132471, Note_on_c, 9, 44, 105
1, 132481, Note_on_c, 1, 43, 0
1, 132497, Note_on_c, 0, 79, 0
1, 132621, Note_on_c, 0, 79, 66
1, 132631, Note_on_c, 9, 44, 0
1, 132649, Note_on_c, 9, 51, 0
1, 132709, Note_on_c, 0, 79, 0
1, 132723, Note_on_c, 9, 51, 52
1, 132725, Note_on_c, 0, 78, 54
1, 132759, Note_on_c, 9, 51, 0
1, 132777, Note_on_c, 0, 78, 0
1, 132805, Note_on_c, 0, 79, 42
1, 132821, Note_on_c, 1, 30, 0
1, 132845, Note_on_c, 0, 79, 0
1, 132845, Note_on_c, 1, 31, 72
1, 132851, Note_on_c, 9, 51, 66
1, 132897, Note_on_c, 0, 88, 76
1, 132953, Note_on_c, 0, 88, 0
1, 132953, Note_on_c, 0, 64, 0
1, 132961, Note_on_c, 0, 53, 0
1, 132961, Note_on_c, 0, 59, 0
1, 133105, Note_on_c, 9, 31, 40
1, 133129, Note_on_c, 9, 31, 0
1, 133139, Note_on_c, 9, 51, 0
1, 133213, Note_on_c, 1, 44, 83
1, 133217, Note_on_c, 1, 31, 0
1, 133235, Note_on_c, 9, 51, 87
1, 133239, Note_on_c, 9, 44, 98
1, 133273, Note_on_c, 9, 31, 59
1, 133321, Note_on_c, 9, 31, 0
1, 133367, Note_on_c, 9, 31, 50
1, 133385, Note_on_c, 9, 44, 0
1, 133421, Note_on_c, 9, 31, 0
1, 133443, Note_on_c, 9, 51, 0
1, 133465, Note_on_c, 0, 63, 72
1, 133469, Note_on_c, 0, 54, 66
1, 133473, Note_on_c, 0, 87, 94
1, 133477, Note_on_c, 1, 31, 62
1, 133481, Note_on_c, 0, 59, 57
1, 133491, Note_on_c, 9, 51, 56
1, 133529, Note_on_c, 1, 31, 0
1, 133543, Note_on_c, 9, 51, 0
1, 133565, Note_on_c, 0, 59, 0
1, 133569, Note_on_c, 0, 63, 0
1, 133585, Note_on_c, 0, 54, 0
1, 133589, Note_on_c, 1, 44, 0
1, 133593, Note_on_c, 1, 43, 66
1, 133597, Note_on_c, 0, 87, 0
1, 133617, Note_on_c, 0, 64, 57
1, 133619, Note_on_c, 9, 51, 92
1, 133625, Note_on_c, 0, 53, 57
1, 133625, Note_on_c, 0, 86, 80
1, 133625, Note_on_c, 0, 59, 58
1, 133793, Note_on_c, 0, 86, 0
1, 133805, Note_on_c, 0, 64, 0
1, 133809, Note_on_c, 0, 53, 0
1, 133817, Note_on_c, 0, 59, 0
1, 133861, Note_on_c, 1, 30, 82
1, 133873, Note_on_c, 0, 82, 69
1, 133877, Note_on_c, 0, 59, 57
1, 133881, Note_on_c, 0, 64, 57
1, 133885, Note_on_c, 0, 53, 49
1, 133907, Note_on_c, 9, 51, 0
1, 133937, Note_on_c, 0, 82, 0
1, 133941, Note_on_c, 1, 43, 0
1, 133945, Note_on_c, 0, 83, 54
1, 133965, Note_on_c, 0, 53, 0
1, 133969, Note_on_c, 0, 64, 0
1, 133981, Note_on_c, 1, 30, 0
1, 133985, Note_on_c, 1, 31, 75
1, 133989, Note_on_c, 0, 59, 0
1, 133997, Note_on_c, 0, 83, 0
1, 134003, Note_on_c, 9, 51, 98
1, 134007, Note_on_c, 9, 44, 98
1, 134029, Note_on_c, 0, 59, 48
1, 134033, Note_on_c, 0, 53, 42
1, 134033, Note_on_c, 0, 64, 43
1, 134049, Note_on_c, 0, 79, 39
1, 134057, Note_on_c, 0, 77, 33
1, 134085, Note_on_c, 0, 77, 0
1, 134113, Note_on_c, 0, 64, 0
1, 134161, Note_on_c, 9, 44, 0
1, 134161, Note_on_c, 0, 53, 0
1, 134181, Note_on_c, 0, 59, 0
1, 134229, Note_on_c, 0, 79, 0
1, 134257, Note_on_c, 9, 31, 50
1, 134269, Note_on_c, 0, 74, 64
1, 134273, Note_on_c, 0, 54, 61
1, 134277, Note_on_c, 0, 65, 51
1, 134281, Note_on_c, 9, 31, 0
1, 134293, Note_on_c, 0, 60, 43
1, 134313, Note_on_c, 9, 51, 0
1, 134325, Note_on_c, 0, 65, 0
1, 134341, Note_on_c, 0, 60, 0
1, 134345, Note_on_c, 0, 74, 0
1, 134361, Note_on_c, 1, 31, 0
1, 134377, Note_on_c, 0, 54, 0
1, 134377, Note_on_c, 1, 43, 79
1, 134387, Note_on_c, 9, 51, 82
1, 134413, Note_on_c, 0, 77, 68
1, 134417, Note_on_c, 0, 53, 50
1, 134417, Note_on_c, 0, 64, 43
1, 134425, Note_on_c, 0, 59, 52
1, 134581, Note_on_c, 0, 64, 0
1, 134585, Note_on_c, 0, 53, 0
1, 134593, Note_on_c, 0, 59, 0
1, 134621, Note_on_c, 1, 34, 67
1, 134649, Note_on_c, 0, 59, 58
1, 134649, Note_on_c, 0, 53, 54
1, 134653, Note_on_c, 0, 64, 56
1, 134653, Note_on_c, 0, 74, 62
1, 134657, Note_on_c, 0, 77, 0
1, 134681, Note_on_c, 9, 51, 0
1, 134705, Note_on_c, 1, 43, 0
1, 134713, Note_on_c, 1, 34, 0
1, 134717, Note_on_c, 0, 64, 0
1, 134733, Note_on_c, 0, 74, 0
1, 134741, Note_on_c, 0, 53, 0
1, 134745, Note_on_c, 1, 35, 72
1, 134749, Note_on_c, 0, 59, 0
1, 134771, Note_on_c, 9, 51, 63
1, 134775, Note_on_c, 9, 46, 36
1, 134797, Note_on_c, 0, 53, 49
1, 134797, Note_on_c, 0, 59, 45
1, 134801, Note_on_c, 0, 64, 42
1, 134801, Note_on_c, 0, 70, 46
1, 134837, Note_on_c, 0, 64, 0
1, 134873, Note_on_c, 0, 53, 0
1, 134897, Note_on_c, 9, 46, 0
1, 134957, Note_on_c, 0, 59, 0
1, 134957, Control_c, 0, 64, 127
1, 134997, Note_on_c, 1, 34, 50
1, 135013, Note_on_c, 0, 70, 0
1, 135027, Note_on_c, 9, 35, 50
1, 135033, Note_on_c, 0, 65, 52
1, 135043, Note_on_c, 9, 51, 0
1, 135045, Note_on_c, 0, 53, 44
1, 135049, Note_on_c, 9, 35, 0
1, 135053, Note_on_c, 0, 65, 0
1, 135069, Note_on_c, 1, 35, 0
1, 135105, Note_on_c, 0, 53, 0
1, 135105, Control_c, 0, 64, 0
1, 135113, Note_on_c, 1, 34, 0
1, 135133, Note_on_c, 1, 36, 71
1, 135145, Note_on_c, 0, 59, 57
1, 135155, Note_on_c, 9, 51, 78
1, 135157, Note_on_c, 0, 72, 62
1, 135161, Note_on_c, 0, 65, 61
1, 135161, Note_on_c, 0, 62, 62
1, 135165, Note_on_c, 0, 60, 68
1, 135173, Note_on_c, 0, 69, 52
1, 135181, Note_on_c, 0, 59, 0
1, 135329, Note_on_c, 0, 69, 0
1, 135333, Note_on_c, 0, 72, 0
1, 135353, Note_on_c, 0, 62, 0
1, 135357, Note_on_c, 0, 60, 0
1, 135361, Note_on_c, 0, 65, 0
1, 135369, Note_on_c, 0, 56, 43
1, 135383, Note_on_c, 9, 51, 0
1, 135385, Note_on_c, 1, 34, 42
1, 135401, Note_on_c, 0, 71, 70
1, 135405, Note_on_c, 0, 58, 33
1, 135409, Note_on_c, 0, 56, 0
1, 135409, Note_on_c, 0, 62, 58
1, 135411, Note_on_c, 0, 65, 52
1, 135411, Note_on_c, 9, 59, 82
1, 135425, Note_on_c, 0, 59, 60
1, 135429, Note_on_c, 0, 58, 0
1, 135463, Note_on_c, 9, 59, 0
1, 135505, Note_on_c, 0, 65, 0
1, 135509, Note_on_c, 0, 71, 0
1, 135509, Note_on_c, 1, 50, 79
1, 135517, Note_on_c, 0, 62, 0
1, 135521, Note_on_c, 1, 36, 0
1, 135521, Note_on_c, 1, 34, 0
1, 135537, Note_on_c, 9, 51, 47
1, 135543, Note_on_c, 9, 44, 87
1, 135557, Control_c, 0, 64, 127
1, 135561, Note_on_c, 0, 59, 0
1, 135561, Note_on_c, 0, 70, 61
1, 135561, Note_on_c, 0, 58, 56
1, 135565, Note_on_c, 0, 62, 48
1, 135565, Note_on_c, 0, 65, 42
1, 135617, Note_on_c, 0, 58, 0
1, 135657, Note_on_c, 0, 65, 0
1, 135661, Note_on_c, 0, 70, 0
1, 135705, Note_on_c, 9, 44, 0
1, 135737, Note_on_c, 0, 62, 0
1, 135765, Note_on_c, 1, 34, 48
1, 135783, Note_on_c, 9, 35, 26
1, 135805, Control_c, 0, 64, 0
1, 135809, Note_on_c, 0, 53, 50
1, 135833, Note_on_c, 9, 35, 0
1, 135833, Note_on_c, 9, 51, 0
1, 135841, Note_on_c, 1, 34, 0
1, 135865, Note_on_c, 1, 50, 0
1, 135897, Note_on_c, 1, 48, 66
1, 135905, Note_on_c, 0, 53, 0
1, 135905, Note_on_c, 1, 49, 44
1, 135923, Note_on_c, 9, 35, 26
1, 135923, Note_on_c, 9, 51, 63
1, 135933, Note_on_c, 0, 69, 70
1, 135937, Note_on_c, 1, 49, 0
1, 135937, Note_on_c, 0, 58, 68
1, 135937, Note_on_c, 0, 62, 63
1, 135941, Note_on_c, 0, 57, 57
1, 135957, Note_on_c, 0, 65, 39
1, 136003, Note_on_c, 9, 35, 0
1, 136117, Note_on_c, 0, 69, 0
1, 136137, Note_on_c, 1, 38, 41
1, 136189, Note_on_c, 1, 38, 0
1, 136193, Note_on_c, 0, 58, 0
1, 136201, Note_on_c, 9, 51, 0
1, 136201, Note_on_c, 0, 54, 41
1, 136209, Note_on_c, 0, 62, 0
1, 136217, Note_on_c, 0, 65, 0
1, 136233, Note_on_c, 0, 57, 0
1, 136269, Note_on_c, 0, 54, 0
1, 136289, Note_on_c, 1, 43, 62
1, 136297, Note_on_c, 0, 58, 57
1, 136297, Note_on_c, 0, 68, 57
1, 136301, Note_on_c, 0, 56, 52
1, 136305, Note_on_c, 0, 62, 55
1, 136305, Note_on_c, 0, 65, 48
1, 136307, Note_on_c, 9, 51, 70
1, 136311, Note_on_c, 9, 44, 92
1, 136345, Note_on_c, 1, 48, 0
1, 136465, Note_on_c, 9, 44, 0
1, 136547, Note_on_c, 9, 51, 0
1, 136549, Note_on_c, 0, 54, 48
1, 136553, Note_on_c, 1, 34, 48
1, 136557, Note_on_c, 0, 65, 0
1, 136561, Note_on_c, 0, 62, 0
1, 136561, Note_on_c, 0, 58, 0
1, 136563, Note_on_c, 9, 51, 61
1, 136573, Note_on_c, 0, 56, 0
1, 136577, Note_on_c, 9, 35, 38
1, 136609, Note_on_c, 9, 35, 0
1, 136613, Note_on_c, 0, 68, 0
1, 136641, Note_on_c, 1, 34, 0
1, 136643, Note_on_c, 9, 51, 0
1, 136649, Note_on_c, 0, 54, 0
1, 136669, Note_on_c, 0, 55, 44
1, 136673, Note_on_c, 0, 58, 64
1, 136681, Note_on_c, 1, 37, 66
1, 136685, Note_on_c, 1, 43, 0
1, 136689, Note_on_c, 0, 55, 0
1, 136691, Note_on_c, 9, 51, 92
1, 136693, Note_on_c, 0, 67, 51
1, 136693, Note_on_c, 0, 62, 44
1, 136705, Note_on_c, 0, 65, 37
1, 136777, Note_on_c, 0, 58, 0
1, 136837, Note_on_c, 0, 62, 0
1, 136841, Note_on_c, 0, 67, 0
1, 136849, Note_on_c, 0, 65, 0
1, 136937, Note_on_c, 0, 48, 84
1, 136941, Note_on_c, 0, 47, 75
1, 136945, Note_on_c, 1, 34, 45
1, 136961, Note_on_c, 0, 47, 0
1, 137011, Note_on_c, 9, 51, 0
1, 137069, Note_on_c, 1, 49, 81
1, 137073, Note_on_c, 1, 34, 0
1, 137075, Note_on_c, 9, 51, 105
1, 137079, Note_on_c, 9, 44, 106
1, 137081, Note_on_c, 1, 37, 0
1, 137085, Note_on_c, 0, 60, 57
1, 137133, Note_on_c, 0, 60, 0
1, 137213, Note_on_c, 0, 63, 50
1, 137217, Note_on_c, 9, 44, 0
1, 137245, Note_on_c, 0, 63, 0
1, 137321, Note_on_c, 0, 65, 81
1, 137337, Note_on_c, 9, 35, 43
1, 137377, Note_on_c, 9, 35, 0
1, 137389, Note_on_c, 0, 65, 0
1, 137401, Note_on_c, 9, 51, 0
1, 137457, Note_on_c, 0, 58, 79
1, 137459, Note_on_c, 9, 51, 75
1, 137461, Note_on_c, 0, 65, 65
1, 137529, Note_on_c, 0, 58, 0
1, 137529, Note_on_c, 0, 59, 54
1, 137569, Note_on_c, 1, 48, 66
1, 137605, Note_on_c, 0, 65, 0
1, 137605, Note_on_c, 1, 49, 0
1, 137609, Note_on_c, 0, 59, 0
1, 137609, Note_on_c, 1, 48, 0
1, 137681, Note_on_c, 0, 46, 43
1, 137693, Note_on_c, 1, 43, 63
1, 137703, Note_on_c, 9, 51, 0
1, 137709, Note_on_c, 0, 62, 68
1, 137709, Note_on_c, 0, 56, 71
1, 137715, Note_on_c, 9, 51, 64
1, 137789, Note_on_c, 0, 46, 0
1, 137793, Note_on_c, 1, 43, 0
1, 137795, Note_on_c, 9, 51, 0
1, 137805, Note_on_c, 0, 48, 0
1, 137813, Note_on_c, 0, 62, 0
1, 137825, Note_on_c, 1, 39, 64
1, 137843, Note_on_c, 9, 51, 110
1, 137847, Note_on_c, 9, 44, 94
1, 137881, Note_on_c, 0, 56, 0
1, 137881, Note_on_c, 0, 60, 37
1, 137885, Note_on_c, 1, 39, 0
1, 137885, Note_on_c, 0, 57, 47
1, 137985, Note_on_c, 9, 44, 0
1, 138069, Note_on_c, 0, 57, 0
1, 138085, Note_on_c, 1, 40, 66
1, 138101, Note_on_c, 0, 42, 41
1, 138103, Note_on_c, 9, 35, 36
1, 138117, Note_on_c, 0, 49, 33
1, 138117, Note_on_c, 0, 53, 39
1, 138147, Note_on_c, 9, 51, 0
1, 138149, Note_on_c, 0, 60, 0
1, 138165, Note_on_c, 0, 53, 0
1, 138167, Note_on_c, 9, 35, 0
1, 138185, Note_on_c, 0, 42, 0
1, 138193, Note_on_c, 1, 40, 0
1, 138221, Note_on_c, 1, 41, 57
1, 138225, Note_on_c, 0, 49, 0
1, 138227, Note_on_c, 9, 51, 117
1, 138233, Note_on_c, 9, 35, 38
1, 138241, Note_on_c, 0, 57, 51
1, 138253, Note_on_c, 0, 41, 42
1, 138257, Note_on_c, 0, 48, 40
1, 138305, Note_on_c, 9, 35, 0
1, 138317, Note_on_c, 0, 57, 0
1, 138321, Control_c, 0, 64, 127
1, 138333, Note_on_c, 0, 48, 0
1, 138341, Note_on_c, 0, 41, 0
1, 138569, Note_on_c, 9, 51, 0
1, 138611, Note_on_c, 9, 51, 87
1, 138615, Note_on_c, 9, 44, 99
1, 138633, Note_on_c, 0, 69, 72
1, 138633, Note_on_c, 0, 81, 79
1, 138633, Note_on_c, 0, 76, 78
1, 138637, Control_c, 0, 64, 0
1, 138637, Note_on_c, 0, 64, 68
1, 138641, Note_on_c, 0, 60, 57
1, 138645, Note_on_c, 0, 53, 57
1, 138657, Note_on_c, 0, 57, 54
1, 138725, Control_c, 0, 64, 127
1, 138737, Note_on_c, 9, 44, 0
1, 138785, Note_on_c, 0, 69, 0
1, 138789, Note_on_c, 0, 53, 0
1, 138789, Note_on_c, 0, 81, 0
1, 138789, Note_on_c, 0, 64, 0
1, 138797, Note_on_c, 0, 57, 0
1, 138797, Note_on_c, 0, 76, 0
1, 138805, Note_on_c, 0, 60, 0
1, 138841, Note_on_c, 9, 51, 0
1, 138865, Note_on_c, 9, 51, 56
1, 138865, Note_on_c, 9, 35, 40
1, 138877, Note_on_c, 0, 53, 72
1, 138881, Note_on_c, 0, 64, 75
1, 138881, Note_on_c, 0, 60, 63
1, 138889, Note_on_c, 0, 76, 94
1, 138889, Note_on_c, 0, 81, 82
1, 138893, Note_on_c, 0, 69, 85
1, 138901, Note_on_c, 0, 57, 36
1, 138903, Note_on_c, 9, 35, 0
1, 138929, Note_on_c, 0, 64, 0
1, 138937, Note_on_c, 0, 57, 0
1, 138937, Note_on_c, 0, 60, 0
1, 138947, Note_on_c, 9, 51, 0
1, 138969, Note_on_c, 0, 81, 0
1, 138969, Note_on_c, 0, 53, 0
1, 138969, Note_on_c, 0, 69, 0
1, 138977, Note_on_c, 0, 76, 0
1, 138981, Control_c, 0, 64, 0
1, 138995, Note_on_c, 9, 51, 84
1, 138997, Note_on_c, 1, 41, 0
1, 139005, Note_on_c, 1, 36, 80
1, 139021, Note_on_c, 0, 53, 67
1, 139021, Note_on_c, 0, 55, 77
1, 139025, Note_on_c, 0, 62, 87
1, 139029, Note_on_c, 0, 76, 79
1, 139029, Note_on_c, 0, 81, 81
1, 139029, Note_on_c, 0, 58, 78
1, 139033, Note_on_c, 0, 69, 82
1, 139041, Note_on_c, 0, 78, 45
1, 139069, Note_on_c, 0, 78, 0
1, 139077, Control_c, 0, 64, 127
1, 139221, Note_on_c, 0, 62, 0
1, 139225, Note_on_c, 9, 51, 0
1, 139233, Note_on_c, 0, 69, 0
1, 139241, Note_on_c, 0, 81, 0
1, 139249, Note_on_c, 0, 53, 0
1, 139251, Note_on_c, 9, 51, 61
1, 139253, Note_on_c, 0, 58, 0
1, 139261, Note_on_c, 0, 55, 0
1, 139277, Note_on_c, 0, 76, 0
1, 139315, Note_on_c, 9, 51, 0
1, 139369, Control_c, 0, 64, 0
1, 139379, Note_on_c, 9, 51, 120
1, 139383, Note_on_c, 9, 44, 94
1, 139401, Note_on_c, 0, 82, 99
1, 139405, Note_on_c, 0, 70, 115
1, 139405, Note_on_c, 0, 58, 87
1, 139405, Note_on_c, 0, 62, 99
1, 139405, Note_on_c, 0, 76, 89
1, 139413, Note_on_c, 0, 55, 80
1, 139413, Note_on_c, 0, 53, 80
1, 139417, Note_on_c, 0, 78, 57
1, 139433, Note_on_c, 0, 78, 0
1, 139437, Control_c, 0, 64, 127
1, 139495, Note_on_c, 9, 44, 0
1, 139553, Note_on_c, 0, 70, 0
1, 139553, Note_on_c, 0, 76, 0
1, 139569, Note_on_c, 0, 53, 0
1, 139573, Note_on_c, 0, 82, 0
1, 139581, Note_on_c, 0, 55, 0
1, 139585, Note_on_c, 0, 62, 0
1, 139589, Note_on_c, 0, 58, 0
1, 139651, Note_on_c, 9, 35, 43
1, 139673, Note_on_c, 9, 51, 0
1, 139693, Note_on_c, 9, 35, 0
1, 139717, Control_c, 0, 64, 0
1, 139763, Note_on_c, 9, 51, 108
1, 139777, Note_on_c, 1, 29, 94
1, 139781, Note_on_c, 1, 36, 0
1, 139785, Note_on_c, 0, 72, 127
1, 139785, Note_on_c, 0, 84, 117
1, 139785, Note_on_c, 0, 79, 120
1, 139785, Note_on_c, 0, 64, 117
1, 139785, Note_on_c, 0, 60, 94
1, 139793, Note_on_c, 0, 57, 84
1, 139793, Note_on_c, 0, 55, 77
1, 139797, Note_on_c, 0, 83, 61
1, 139813, Note_on_c, 0, 55, 0
1, 139817, Note_on_c, 0, 83, 0
1, 139829, Note_on_c, 0, 72, 0
1, 139861, Note_on_c, 0, 64, 0
1, 139873, Note_on_c, 0, 84, 0
1, 139881, Note_on_c, 0, 60, 0
1, 139881, Note_on_c, 0, 55, 4
1, 139889, Note_on_c, 0, 72, 65
1, 139893, Note_on_c, 0, 79, 0
1, 139917, Control_c, 0, 64, 127
1, 139921, Control_c, 0, 64, 0
1, 139921, Control_c, 0, 64, 127
1, 139929, Note_on_c, 0, 60, 53
1, 139941, Note_on_c, 0, 55, 0
1, 139941, Note_on_c, 0, 72, 0
1, 139941, Note_on_c, 0, 64, 51
1, 139941, Note_on_c, 0, 84, 51
1, 139945, Note_on_c, 0, 57, 0
1, 139949, Note_on_c, 0, 60, 0
1, 139949, Note_on_c, 0, 79, 63
1, 139981, Note_on_c, 0, 84, 0
1, 139985, Note_on_c, 0, 64, 0
1, 139993, Note_on_c, 0, 57, 63
1, 139993, Note_on_c, 0, 72, 63
1, 139997, Control_c, 0, 64, 0
1, 139997, Note_on_c, 0, 55, 51
1, 140005, Note_on_c, 0, 79, 0
1, 140017, Note_on_c, 0, 55, 0
1, 140041, Note_on_c, 0, 57, 0
1, 140045, Note_on_c, 0, 72, 0
1, 140045, Note_on_c, 0, 60, 37
1, 140049, Note_on_c, 0, 64, 57
1, 140061, Note_on_c, 0, 84, 52
1, 140065, Note_on_c, 0, 79, 52
1, 140073, Note_on_c, 0, 60, 0
1, 140089, Note_on_c, 0, 84, 0
1, 140097, Note_on_c, 0, 64, 0
1, 140097, Note_on_c, 0, 57, 52
1, 140099, Note_on_c, 9, 51, 0
1, 140101, Note_on_c, 0, 79, 0
1, 140101, Note_on_c, 0, 55, 57
1, 140101, Note_on_c, 0, 72, 48
1, 140121, Note_on_c, 0, 55, 0
1, 140145, Note_on_c, 0, 60, 25
1, 140147, Note_on_c, 9, 51, 64
1, 140151, Note_on_c, 0, 57, 0
1, 140151, Note_on_c, 9, 44, 85
1, 140153, Note_on_c, 0, 72, 0
1, 140157, Note_on_c, 0, 64, 58
1, 140165, Note_on_c, 0, 84, 57
1, 140177, Note_on_c, 0, 60, 0
1, 140177, Note_on_c, 0, 79, 44
1, 140197, Note_on_c, 0, 79, 0
1, 140205, Note_on_c, 0, 64, 0
1, 140205, Note_on_c, 0, 57, 57
1, 140209, Note_on_c, 0, 84, 0
1, 140209, Note_on_c, 0, 72, 49
1, 140213, Note_on_c, 0, 55, 49
1, 140233, Note_on_c, 0, 55, 0
1, 140257, Note_on_c, 0, 72, 0
1, 140257, Note_on_c, 0, 60, 48
1, 140261, Note_on_c, 0, 57, 0
1, 140265, Note_on_c, 0, 84, 53
1, 140277, Note_on_c, 0, 64, 50
1, 140281, Note_on_c, 9, 44, 0
1, 140297, Note_on_c, 0, 60, 0
1, 140305, Note_on_c, 0, 72, 50
1, 140309, Note_on_c, 0, 64, 0
1, 140313, Note_on_c, 0, 84, 0
1, 140337, Note_on_c, 0, 57, 39
1, 140357, Note_on_c, 0, 55, 29
1, 140361, Note_on_c, 0, 72, 0
1, 140369, Note_on_c, 0, 84, 53
1, 140371, Note_on_c, 9, 51, 0
1, 140385, Note_on_c, 0, 60, 33
1, 140393, Note_on_c, 0, 55, 0
1, 140401, Note_on_c, 0, 64, 56
1, 140401, Note_on_c, 9, 35, 54
1, 140403, Note_on_c, 9, 51, 73
1, 140409, Note_on_c, 0, 84, 0
1, 140409, Note_on_c, 0, 72, 51
1, 140417, Note_on_c, 1, 36, 56
1, 140433, Note_on_c, 0, 60, 0
1, 140439, Note_on_c, 9, 35, 0
1, 140445, Note_on_c, 0, 64, 0
1, 140461, Note_on_c, 0, 72, 0
1, 140469, Note_on_c, 0, 84, 55
1, 140471, Note_on_c, 9, 51, 0
1, 140473, Note_on_c, 1, 36, 0
1, 140489, Note_on_c, 0, 57, 0
1, 140513, Note_on_c, 0, 72, 47
1, 140517, Note_on_c, 0, 84, 0
1, 140531, Note_on_c, 9, 51, 56
1, 140537, Note_on_c, 1, 46, 87
1, 140561, Note_on_c, 0, 72, 0
1, 140561, Note_on_c, 0, 58, 48
1, 140565, Note_on_c, 0, 62, 45
1, 140573, Note_on_c, 0, 84, 55
1, 140597, Note_on_c, 1, 46, 0
1, 140617, Note_on_c, 0, 72, 48
1, 140621, Note_on_c, 0, 84, 0
1, 140629, Note_on_c, 0, 62, 0
1, 140629, Note_on_c, 0, 58, 0
1, 140663, Note_on_c, 9, 51, 0
1, 140665, Note_on_c, 0, 72, 0
1, 140677, Note_on_c, 0, 84, 55
1, 140717, Note_on_c, 0, 72, 50
1, 140725, Note_on_c, 0, 84, 0
1, 140737, Note_on_c, 0, 62, 32
1, 140773, Note_on_c, 0, 72, 0
1, 140777, Note_on_c, 0, 84, 58
1, 140777, Note_on_c, 1, 45, 75
1, 140787, Note_on_c, 9, 51, 119
1, 140801, Note_on_c, 0, 62, 0
1, 140801, Note_on_c, 0, 57, 63
1, 140823, Note_on_c, 9, 51, 0
1, 140823, Note_on_c, 0, 84, 0
1, 140823, Note_on_c, 0, 72, 54
1, 140873, Note_on_c, 0, 72, 0
1, 140881, Note_on_c, 1, 45, 0
1, 140885, Note_on_c, 0, 84, 57
1, 140893, Note_on_c, 0, 62, 54
1, 140915, Note_on_c, 9, 51, 75
1, 140919, Note_on_c, 9, 44, 84
1, 140921, Note_on_c, 1, 43, 63
1, 140925, Note_on_c, 0, 72, 47
1, 140929, Note_on_c, 0, 84, 0
1, 140945, Note_on_c, 0, 57, 0
1, 140973, Note_on_c, 0, 72, 0
1, 140981, Note_on_c, 0, 62, 0
1, 140985, Note_on_c, 0, 84, 57
1, 141033, Note_on_c, 0, 84, 0
1, 141033, Note_on_c, 0, 72, 46
1, 141041, Note_on_c, 9, 44, 0
1, 141077, Note_on_c, 1, 43, 0
1, 141085, Note_on_c, 0, 72, 0
1, 141093, Control_c, 0, 64, 88
1, 141093, Note_on_c, 0, 84, 58
1, 141097, Control_c, 0, 64, 127
1, 141123, Note_on_c, 9, 51, 0
1, 141141, Note_on_c, 0, 84, 0
1, 141145, Note_on_c, 0, 72, 54
1, 141149, Note_on_c, 1, 40, 68
1, 141161, Note_on_c, 1, 36, 32
1, 141171, Note_on_c, 9, 51, 64
1, 141181, Control_c, 0, 64, 88
1, 141185, Control_c, 0, 64, 0
1, 141193, Note_on_c, 1, 36, 0
1, 141201, Note_on_c, 0, 72, 0
1, 141203, Note_on_c, 9, 51, 0
1, 141205, Note_on_c, 0, 84, 54
1, 141245, Note_on_c, 1, 29, 0
1, 141253, Note_on_c, 0, 64, 39
1, 141257, Note_on_c, 0, 84, 0
1, 141257, Note_on_c, 1, 40, 0
1, 141265, Note_on_c, 0, 72, 55
1, 141273, Note_on_c, 0, 57, 39
1, 141277, Note_on_c, 0, 60, 39
1, 141281, Note_on_c, 0, 55, 39
1, 141285, Note_on_c, 1, 41, 74
1, 141289, Note_on_c, 9, 35, 36
1, 141299, Note_on_c, 9, 51, 112
1, 141321, Note_on_c, 0, 84, 51
1, 141341, Note_on_c, 9, 35, 0
1, 141341, Note_on_c, 0, 60, 0
1, 141341, Note_on_c, 0, 55, 0
1, 141345, Note_on_c, 0, 84, 0
1, 141349, Note_on_c, 0, 64, 0
1, 141369, Note_on_c, 0, 57, 0
1, 141373, Note_on_c, 0, 72, 0
1, 141557, Note_on_c, 0, 64, 57
1, 141561, Note_on_c, 0, 69, 70
1, 141561, Note_on_c, 0, 81, 63
1, 141565, Note_on_c, 0, 57, 46
1, 141573, Note_on_c, 0, 60, 43
1, 141573, Note_on_c, 0, 77, 55
1, 141577, Note_on_c, 0, 55, 40
1, 141591, Note_on_c, 9, 51, 0
1, 141649, Note_on_c, 0, 64, 0
1, 141653, Note_on_c, 0, 55, 0
1, 141653, Note_on_c, 0, 81, 0
1, 141653, Note_on_c, 0, 60, 0
1, 141657, Note_on_c, 0, 69, 0
1, 141673, Note_on_c, 0, 57, 0
1, 141677, Note_on_c, 0, 77, 0
1, 141683, Note_on_c, 9, 51, 96
1, 141687, Note_on_c, 9, 44, 89
1, 141705, Note_on_c, 0, 81, 56
1, 141709, Note_on_c, 0, 64, 46
1, 141713, Note_on_c, 0, 69, 55
1, 141717, Note_on_c, 0, 77, 45
1, 141725, Control_c, 0, 64, 127
1, 141729, Note_on_c, 0, 57, 48
1, 141729, Note_on_c, 0, 60, 39
1, 141729, Note_on_c, 0, 55, 43
1, 141781, Note_on_c, 0, 64, 0
1, 141793, Note_on_c, 0, 55, 0
1, 141793, Note_on_c, 9, 44, 0
1, 141793, Note_on_c, 0, 60, 0
1, 141829, Note_on_c, 0, 57, 0
1, 141833, Note_on_c, 0, 77, 0
1, 141837, Note_on_c, 0, 69, 0
1, 141861, Note_on_c, 0, 81, 0
1, 141897, Note_on_c, 9, 51, 0
1, 141937, Note_on_c, 1, 36, 64
1, 141939, Note_on_c, 9, 51, 68
1, 141945, Note_on_c, 0, 64, 50
1, 141953, Note_on_c, 9, 35, 36
1, 141957, Note_on_c, 0, 69, 66
1, 141961, Note_on_c, 0, 81, 54
1, 141973, Note_on_c, 0, 64, 0
1, 141973, Note_on_c, 0, 77, 46
1, 141981, Note_on_c, 9, 51, 0
1, 141985, Note_on_c, 9, 35, 0
1, 142009, Note_on_c, 0, 69, 0
1, 142013, Note_on_c, 0, 81, 0
1, 142025, Note_on_c, 0, 77, 0
1, 142029, Control_c, 0, 64, 0
1, 142045, Note_on_c, 1, 36, 0
1, 142065, Note_on_c, 1, 34, 75
1, 142065, Note_on_c, 9, 51, 87
1, 142089, Note_on_c, 0, 65, 56
1, 142089, Note_on_c, 0, 56, 56
1, 142093, Note_on_c, 1, 41, 0
1, 142097, Note_on_c, 0, 69, 58
1, 142097, Note_on_c, 0, 77, 63
1, 142097, Note_on_c, 0, 81, 58
1, 142101, Note_on_c, 0, 74, 60
1, 142101, Note_on_c, 0, 62, 44
1, 142141, Control_c, 0, 64, 127
1, 142233, Note_on_c, 0, 65, 0
1, 142233, Note_on_c, 0, 56, 0
1, 142257, Note_on_c, 0, 69, 0
1, 142257, Note_on_c, 0, 81, 0
1, 142285, Note_on_c, 0, 77, 0
1, 142301, Note_on_c, 0, 74, 0
1, 142305, Note_on_c, 0, 62, 0
1, 142323, Note_on_c, 9, 51, 0
1, 142385, Control_c, 0, 64, 0
1, 142451, Note_on_c, 9, 51, 96
1, 142455, Note_on_c, 9, 44, 99
1, 142457, Note_on_c, 0, 82, 82
1, 142457, Note_on_c, 0, 56, 75
1, 142461, Note_on_c, 0, 65, 78
1, 142461, Note_on_c, 0, 74, 81
1, 142465, Note_on_c, 0, 70, 81
1, 142465, Note_on_c, 0, 62, 67
1, 142473, Note_on_c, 0, 77, 63
1, 142473, Control_c, 0, 64, 127
1, 142557, Note_on_c, 0, 62, 0
1, 142573, Note_on_c, 0, 74, 0
1, 142581, Note_on_c, 0, 65, 0
1, 142585, Note_on_c, 0, 77, 0
1, 142585, Note_on_c, 9, 44, 0
1, 142597, Note_on_c, 0, 70, 0
1, 142621, Note_on_c, 0, 82, 0
1, 142625, Note_on_c, 0, 56, 0
1, 142659, Note_on_c, 9, 51, 0
1, 142707, Note_on_c, 9, 51, 56
1, 142761, Control_c, 0, 64, 24
1, 142765, Control_c, 0, 64, 0
1, 142787, Note_on_c, 9, 51, 0
1, 142821, Note_on_c, 1, 34, 0
1, 142833, Note_on_c, 0, 64, 99
1, 142835, Note_on_c, 0, 84, 115
1, 142835, Note_on_c, 0, 57, 79
1, 142835, Note_on_c, 0, 60, 82
1, 142835, Note_on_c, 0, 55, 81
1, 142835, Note_on_c, 0, 72, 122
1, 142835, Note_on_c, 0, 79, 115
1, 142835, Note_on_c, 9, 51, 68
1, 142835, Note_on_c, 9, 35, 29
1, 142841, Note_on_c, 1, 33, 84
1, 142849, Control_c, 0, 64, 127
1, 142877, Note_on_c, 9, 35, 0
1, 142977, Note_on_c, 0, 55, 0
1, 142977, Note_on_c, 0, 84, 0
1, 142981, Note_on_c, 0, 72, 0
1, 142985, Note_on_c, 0, 64, 0
1, 142993, Note_on_c, 0, 57, 0
1, 142997, Note_on_c, 0, 60, 0
1, 143001, Note_on_c, 0, 79, 0
1, 143059, Note_on_c, 9, 51, 0
1, 143077, Note_on_c, 0, 86, 94
1, 143081, Note_on_c, 0, 74, 96
1, 143081, Note_on_c, 0, 79, 86
1, 143081, Note_on_c, 0, 60, 82
1, 143081, Note_on_c, 0, 64, 88
1, 143085, Note_on_c, 0, 57, 76
1, 143089, Note_on_c, 0, 55, 73
1, 143091, Note_on_c, 9, 51, 57
1, 143093, Note_on_c, 0, 82, 56
1, 143109, Note_on_c, 0, 82, 0
1, 143111, Note_on_c, 9, 51, 0
1, 143161, Control_c, 0, 64, 0
1, 143165, Note_on_c, 0, 86, 0
1, 143169, Note_on_c, 0, 64, 0
1, 143177, Note_on_c, 0, 74, 0
1, 143181, Note_on_c, 0, 55, 0
1, 143189, Note_on_c, 0, 57, 0
1, 143197, Note_on_c, 0, 79, 0
1, 143201, Note_on_c, 0, 60, 0
1, 143219, Note_on_c, 9, 51, 127
1, 143223, Note_on_c, 9, 44, 98
1, 143225, Note_on_c, 0, 84, 66
1, 143229, Note_on_c, 0, 79, 43
1, 143229, Note_on_c, 0, 55, 67
1, 143229, Note_on_c, 0, 60, 54
1, 143229, Note_on_c, 0, 64, 65
1, 143229, Note_on_c, 0, 72, 57
1, 143237, Note_on_c, 0, 57, 54
1, 143257, Control_c, 0, 64, 127
1, 143333, Note_on_c, 0, 55, 0
1, 143353, Note_on_c, 0, 64, 0
1, 143357, Note_on_c, 0, 57, 0
1, 143357, Note_on_c, 0, 79, 0
1, 143361, Note_on_c, 0, 72, 0
1, 143361, Note_on_c, 1, 40, 63
1, 143365, Note_on_c, 0, 84, 0
1, 143369, Note_on_c, 9, 44, 0
1, 143377, Note_on_c, 1, 33, 0
1, 143393, Note_on_c, 0, 60, 0
1, 143421, Control_c, 0, 64, 0
1, 143425, Note_on_c, 1, 40, 0
1, 143469, Note_on_c, 1, 37, 79
1, 143477, Note_on_c, 0, 84, 68
1, 143477, Note_on_c, 0, 72, 68
1, 143477, Note_on_c, 0, 54, 69
1, 143479, Note_on_c, 9, 51, 0
1, 143481, Note_on_c, 0, 60, 59
1, 143481, Note_on_c, 0, 78, 63
1, 143481, Note_on_c, 0, 81, 60
1, 143481, Note_on_c, 0, 64, 69
1, 143585, Note_on_c, 1, 37, 0
1, 143589, Control_c, 0, 64, 127
1, 143597, Note_on_c, 1, 38, 81
1, 143603, Note_on_c, 9, 51, 117
1, 143603, Note_on_c, 9, 34, 31
1, 143651, Note_on_c, 9, 34, 0
1, 143693, Note_on_c, 0, 64, 0
1, 143705, Note_on_c, 0, 54, 0
1, 143709, Note_on_c, 0, 72, 0
1, 143709, Note_on_c, 0, 60, 0
1, 143713, Note_on_c, 0, 84, 0
1, 143717, Note_on_c, 0, 78, 0
1, 143721, Note_on_c, 0, 81, 0
1, 143729, Control_c, 0, 64, 0
1, 143749, Note_on_c, 0, 54, 57
1, 143757, Note_on_c, 0, 64, 55
1, 143757, Note_on_c, 0, 84, 63
1, 143761, Note_on_c, 0, 72, 45
1, 143765, Note_on_c, 0, 60, 56
1, 143769, Note_on_c, 0, 78, 48
1, 143777, Note_on_c, 0, 81, 48
1, 143777, Control_c, 0, 64, 127
1, 143827, Note_on_c, 9, 51, 0
1, 143859, Note_on_c, 9, 51, 36
1, 143877, Note_on_c, 0, 64, 0
1, 143881, Note_on_c, 9, 34, 29
1, 143893, Note_on_c, 0, 84, 0
1, 143893, Note_on_c, 0, 72, 0
1, 143893, Control_c, 0, 64, 0
1, 143897, Note_on_c, 0, 78, 0
1, 143897, Note_on_c, 0, 60, 0
1, 143905, Note_on_c, 0, 81, 0
1, 143905, Note_on_c, 0, 54, 0
1, 143913, Note_on_c, 9, 34, 0
1, 143955, Note_on_c, 9, 51, 0
1, 143977, Note_on_c, 1, 38, 0
1, 143985, Note_on_c, 1, 32, 85
1, 143987, Note_on_c, 0, 54, 58
1, 143987, Note_on_c, 9, 51, 63
1, 143991, Note_on_c, 9, 44, 91
1, 143997, Note_on_c, 0, 64, 57
1, 143997, Note_on_c, 0, 78, 56
1, 143997, Note_on_c, 0, 72, 54
1, 143997, Note_on_c, 0, 84, 50
1, 144001, Note_on_c, 0, 60, 54
1, 144001, Control_c, 0, 64, 127
1, 144005, Note_on_c, 0, 81, 51
1, 144061, Note_on_c, 0, 64, 0
1, 144065, Note_on_c, 0, 60, 0
1, 144115, Note_on_c, 9, 51, 0
1, 144117, Note_on_c, 0, 72, 0
1, 144125, Note_on_c, 0, 84, 0
1, 144133, Note_on_c, 0, 78, 0
1, 144137, Note_on_c, 0, 54, 0
1, 144141, Note_on_c, 0, 81, 0
1, 144193, Note_on_c, 9, 44, 0
1, 144205, Control_c, 0, 64, 0
1, 144225, Note_on_c, 9, 34, 43
1, 144243, Note_on_c, 9, 51, 126
1, 144249, Note_on_c, 0, 84, 90
1, 144253, Note_on_c, 0, 72, 94
1, 144253, Note_on_c, 0, 58, 75
1, 144253, Note_on_c, 0, 62, 81
1, 144253, Note_on_c, 0, 77, 85
1, 144257, Note_on_c, 0, 81, 76
1, 144257, Note_on_c, 0, 53, 70
1, 144257, Note_on_c, 0, 57, 68
1, 144325, Note_on_c, 1, 32, 0
1, 144329, Note_on_c, 0, 57, 0
1, 144329, Note_on_c, 9, 34, 0
1, 144333, Note_on_c, 0, 72, 0
1, 144343, Note_on_c, 9, 35, 52
1, 144343, Note_on_c, 9, 57, 29
1, 144345, Note_on_c, 0, 62, 0
1, 144349, Control_c, 0, 64, 127
1, 144353, Note_on_c, 0, 58, 0
1, 144357, Note_on_c, 1, 31, 84
1, 144369, Note_on_c, 0, 77, 0
1, 144377, Note_on_c, 0, 81, 0
1, 144381, Note_on_c, 0, 72, 50
1, 144385, Note_on_c, 0, 84, 0
1, 144401, Note_on_c, 9, 57, 0
1, 144409, Note_on_c, 9, 35, 0
1, 144413, Note_on_c, 0, 57, 32
1, 144417, Note_on_c, 0, 62, 48
1, 144421, Note_on_c, 0, 53, 0
1, 144421, Note_on_c, 0, 58, 39
1, 144441, Note_on_c, 0, 57, 0
1, 144441, Note_on_c, 0, 72, 0
1, 144445, Note_on_c, 0, 84, 37
1, 144473, Note_on_c, 0, 58, 0
1, 144489, Note_on_c, 0, 62, 0
1, 144489, Note_on_c, 0, 84, 0
1, 144497, Note_on_c, 0, 53, 37
1, 144497, Note_on_c, 0, 72, 48
1, 144521, Note_on_c, 0, 57, 47
1, 144529, Note_on_c, 0, 53, 0
1, 144549, Note_on_c, 0, 72, 0
1, 144561, Note_on_c, 0, 58, 37
1, 144565, Note_on_c, 0, 62, 39
1, 144565, Note_on_c, 0, 84, 36
1, 144581, Note_on_c, 0, 57, 0
1, 144581, Note_on_c, 0, 77, 27
1, 144597, Note_on_c, 0, 84, 0
1, 144601, Note_on_c, 9, 51, 0
1, 144605, Note_on_c, 0, 77, 0
1, 144609, Note_on_c, 0, 72, 46
1, 144621, Note_on_c, 0, 58, 0
1, 144627, Note_on_c, 0, 62, 0
1, 144627, Note_on_c, 9, 51, 40
1, 144649, Note_on_c, 0, 53, 39
1, 144649, Note_on_c, 0, 57, 42
1, 144665, Note_on_c, 0, 72, 0
1, 144677, Note_on_c, 0, 53, 0
1, 144701, Note_on_c, 0, 58, 38
1, 144709, Note_on_c, 0, 62, 39
1, 144711, Note_on_c, 9, 51, 0
1, 144713, Note_on_c, 0, 57, 0
1, 144721, Note_on_c, 0, 72, 50
1, 144753, Note_on_c, 0, 58, 0
1, 144755, Note_on_c, 9, 51, 91
1, 144759, Note_on_c, 9, 44, 94
1, 144777, Note_on_c, 0, 72, 0
1, 144785, Note_on_c, 0, 62, 0
1, 144785, Note_on_c, 0, 84, 48
1, 144789, Note_on_c, 0, 53, 41
1, 144793, Note_on_c, 0, 57, 44
1, 144817, Note_on_c, 0, 53, 0
1, 144845, Note_on_c, 0, 57, 0
1, 144853, Note_on_c, 0, 72, 41
1, 144873, Note_on_c, 0, 62, 25
1, 144925, Note_on_c, 0, 62, 0
1, 144945, Note_on_c, 9, 44, 0
1, 144945, Note_on_c, 0, 57, 46
1, 144961, Note_on_c, 0, 84, 0
1, 144985, Note_on_c, 0, 72, 0
1, 144997, Note_on_c, 0, 58, 54
1, 144997, Note_on_c, 1, 32, 42
1, 145005, Note_on_c, 0, 77, 37
1, 145017, Note_on_c, 0, 57, 0
1, 145017, Note_on_c, 9, 35, 50
1, 145033, Note_on_c, 9, 51, 0
1, 145033, Note_on_c, 0, 77, 0
1, 145043, Note_on_c, 9, 35, 0
1, 145045, Control_c, 0, 64, 0
1, 145061, Note_on_c, 0, 58, 0
1, 145093, Note_on_c, 0, 62, 48
1, 145093, Note_on_c, 0, 70, 42
1, 145093, Note_on_c, 0, 82, 44
1, 145101, Note_on_c, 1, 31, 0
1, 145101, Note_on_c, 0, 77, 42
1, 145105, Note_on_c, 0, 53, 31
1, 145105, Note_on_c, 0, 58, 56
1, 145117, Note_on_c, 1, 32, 0
1, 145121, Note_on_c, 0, 57, 33
1, 145133, Note_on_c, 1, 38, 85
1, 145139, Note_on_c, 9, 51, 99
1, 145329, Note_on_c, 0, 62, 0
1, 145329, Note_on_c, 0, 77, 0
1, 145329, Note_on_c, 0, 70, 0
1, 145329, Note_on_c, 0, 58, 0
1, 145337, Note_on_c, 0, 53, 0
1, 145345, Note_on_c, 0, 82, 0
1, 145361, Note_on_c, 0, 57, 0
1, 145459, Note_on_c, 9, 51, 0
1, 145513, Note_on_c, 0, 82, 56
1, 145521, Note_on_c, 0, 70, 45
1, 145521, Note_on_c, 0, 62, 39
1, 145523, Note_on_c, 9, 51, 75
1, 145525, Note_on_c, 0, 53, 39
1, 145527, Note_on_c, 9, 44, 98
1, 145533, Note_on_c, 0, 58, 39
1, 145537, Note_on_c, 0, 77, 48
1, 145605, Note_on_c, 0, 62, 0
1, 145609, Note_on_c, 0, 58, 0
1, 145633, Note_on_c, 0, 53, 0
1, 145697, Note_on_c, 9, 44, 0
1, 145725, Note_on_c, 0, 77, 0
1, 145733, Note_on_c, 0, 70, 0
1, 145761, Note_on_c, 1, 37, 76
1, 145769, Note_on_c, 9, 51, 0
1, 145779, Note_on_c, 9, 51, 59
1, 145785, Note_on_c, 1, 38, 0
1, 145785, Note_on_c, 0, 36, 75
1, 145801, Note_on_c, 0, 82, 0
1, 145801, Note_on_c, 0, 38, 39
1, 145825, Note_on_c, 0, 38, 0
1, 145873, Control_c, 0, 64, 127
1, 145875, Note_on_c, 9, 51, 0
1, 145889, Note_on_c, 1, 37, 0
1, 145901, Note_on_c, 1, 36, 83
1, 145907, Note_on_c, 9, 51, 92
1, 145913, Note_on_c, 0, 36, 0
1, 146227, Note_on_c, 9, 51, 0
1, 146229, Control_c, 0, 64, 0
1, 146291, Note_on_c, 9, 51, 106
1, 146295, Note_on_c, 9, 44, 99
1, 146305, Note_on_c, 0, 58, 52
1, 146317, Note_on_c, 0, 69, 38
1, 146321, Note_on_c, 0, 84, 38
1, 146325, Note_on_c, 0, 64, 45
1, 146333, Control_c, 0, 64, 127
1, 146345, Note_on_c, 0, 72, 33
1, 146361, Note_on_c, 0, 79, 35
1, 146377, Control_c, 0, 64, 0
1, 146445, Note_on_c, 0, 72, 0
1, 146449, Note_on_c, 0, 84, 0
1, 146449, Note_on_c, 9, 44, 0
1, 146449, Note_on_c, 0, 58, 0
1, 146457, Note_on_c, 0, 79, 0
1, 146457, Note_on_c, 0, 69, 0
1, 146473, Note_on_c, 0, 64, 0
1, 146547, Note_on_c, 9, 51, 26
1, 146561, Note_on_c, 9, 35, 35
1, 146563, Note_on_c, 9, 51, 0
1, 146565, Note_on_c, 0, 84, 85
1, 146569, Note_on_c, 0, 69, 74
1, 146569, Note_on_c, 0, 72, 82
1, 146569, Note_on_c, 0, 58, 75
1, 146569, Note_on_c, 0, 79, 81
1, 146577, Note_on_c, 0, 64, 66
1, 146599, Note_on_c, 9, 35, 0
1, 146621, Control_c, 0, 64, 127
1, 146657, Note_on_c, 0, 84, 0
1, 146661, Note_on_c, 0, 69, 0
1, 146663, Note_on_c, 9, 51, 0
1, 146665, Note_on_c, 0, 58, 0
1, 146673, Note_on_c, 1, 34, 85
1, 146675, Note_on_c, 9, 51, 64
1, 146677, Note_on_c, 0, 72, 0
1, 146681, Note_on_c, 0, 79, 0
1, 146689, Note_on_c, 0, 64, 0
1, 146705, Note_on_c, 1, 36, 0
1, 146725, Note_on_c, 0, 84, 66
1, 146725, Note_on_c, 0, 72, 65
1, 146729, Note_on_c, 0, 58, 61
1, 146729, Note_on_c, 0, 79, 76
1, 146729, Note_on_c, 0, 69, 62
1, 146737, Note_on_c, 0, 64, 57
1, 146757, Note_on_c, 0, 69, 0
1, 146781, Note_on_c, 0, 64, 0
1, 146813, Note_on_c, 0, 72, 0
1, 146813, Note_on_c, 0, 84, 0
1, 146813, Note_on_c, 0, 58, 0
1, 146829, Note_on_c, 0, 79, 0
1, 146945, Note_on_c, 0, 84, 80
1, 146949, Note_on_c, 0, 79, 82
1, 146953, Note_on_c, 0, 72, 72
1, 146961, Note_on_c, 0, 56, 64
1, 146989, Control_c, 0, 64, 0
1, 146995, Note_on_c, 9, 51, 0
1, 147025, Note_on_c, 0, 84, 0
1, 147029, Note_on_c, 0, 72, 0
1, 147037, Note_on_c, 0, 79, 0
1, 147059, Note_on_c, 9, 51, 106
1, 147063, Note_on_c, 9, 44, 89
1, 147093, Note_on_c, 0, 46, 80
1, 147233, Note_on_c, 9, 44, 0
1, 147253, Control_c, 0, 64, 127
1, 147269, Note_on_c, 0, 46, 0
1, 147273, Note_on_c, 0, 56, 0
1, 147305, Note_on_c, 9, 51, 0
1, 147309, Control_c, 0, 64, 0
1, 147315, Note_on_c, 9, 51, 68
1, 147319, Note_on_c, 9, 35, 47
1, 147337, Note_on_c, 0, 55, 90
1, 147337, Note_on_c, 0, 45, 92
1, 147345, Note_on_c, 0, 51, 55
1, 147361, Note_on_c, 0, 51, 0
1, 147383, Note_on_c, 9, 51, 0
1, 147409, Note_on_c, 1, 34, 0
1, 147415, Note_on_c, 9, 35, 0
1, 147429, Control_c, 0, 64, 127
1, 147437, Note_on_c, 1, 33, 82
1, 147443, Note_on_c, 9, 51, 91
1, 147475, Note_on_c, 9, 35, 40
1, 147525, Control_c, 0, 64, 0
1, 147543, Note_on_c, 9, 35, 0
1, 147585, Note_on_c, 0, 60, 76
1, 147673, Note_on_c, 0, 61, 76
1, 147681, Note_on_c, 0, 60, 0
1, 147705, Note_on_c, 0, 45, 0
1, 147729, Note_on_c, 0, 61, 0
1, 147741, Note_on_c, 0, 55, 0
1, 147765, Note_on_c, 0, 65, 73
1, 147767, Note_on_c, 9, 51, 0
1, 147821, Note_on_c, 0, 65, 0
1, 147825, Note_on_c, 9, 51, 105
1, 147831, Note_on_c, 9, 44, 91
1, 147833, Note_on_c, 0, 70, 67
1, 147889, Note_on_c, 0, 70, 0
1, 147917, Note_on_c, 0, 72, 63
1, 147965, Note_on_c, 0, 72, 0
1, 147985, Note_on_c, 9, 44, 0
1, 147993, Note_on_c, 0, 77, 70
1, 148005, Note_on_c, 0, 78, 13
1, 148037, Note_on_c, 0, 78, 0
1, 148037, Note_on_c, 0, 77, 0
1, 148053, Note_on_c, 0, 82, 74
1, 148067, Note_on_c, 9, 35, 36
1, 148083, Note_on_c, 9, 51, 59
1, 148087, Note_on_c, 9, 51, 0
1, 148101, Note_on_c, 0, 82, 0
1, 148105, Note_on_c, 9, 35, 0
1, 148121, Note_on_c, 0, 84, 107
1, 148183, Note_on_c, 9, 51, 0
1, 148201, Note_on_c, 0, 82, 81
1, 148205, Note_on_c, 0, 65, 56
1, 148205, Note_on_c, 1, 40, 85
1, 148211, Note_on_c, 0, 61, 43
1, 148211, Note_on_c, 9, 51, 85
1, 148217, Note_on_c, 1, 33, 0
1, 148225, Note_on_c, 0, 84, 0
1, 148225, Note_on_c, 0, 60, 44
1, 148225, Note_on_c, 0, 55, 45
1, 148233, Note_on_c, 0, 58, 38
1, 148297, Note_on_c, 0, 65, 0
1, 148301, Note_on_c, 0, 55, 0
1, 148305, Note_on_c, 0, 58, 0
1, 148305, Note_on_c, 0, 60, 0
1, 148309, Note_on_c, 0, 61, 0
1, 148317, Note_on_c, 0, 82, 0
1, 148325, Note_on_c, 0, 77, 82
1, 148353, Note_on_c, 0, 61, 55
1, 148353, Note_on_c, 0, 55, 48
1, 148353, Note_on_c, 0, 60, 50
1, 148373, Note_on_c, 0, 58, 41
1, 148405, Note_on_c, 0, 77, 0
1, 148409, Note_on_c, 0, 58, 0
1, 148413, Note_on_c, 0, 61, 0
1, 148413, Note_on_c, 0, 60, 0
1, 148421, Note_on_c, 0, 73, 74
1, 148445, Note_on_c, 0, 61, 40
1, 148453, Note_on_c, 0, 60, 32
1, 148457, Note_on_c, 0, 65, 57
1, 148481, Note_on_c, 0, 58, 11
1, 148489, Note_on_c, 1, 40, 0
1, 148489, Note_on_c, 1, 36, 52
1, 148493, Note_on_c, 0, 73, 0
1, 148501, Note_on_c, 0, 65, 0
1, 148513, Note_on_c, 0, 61, 0
1, 148521, Note_on_c, 0, 60, 0
1, 148537, Note_on_c, 0, 72, 66
1, 148547, Note_on_c, 9, 51, 0
1, 148549, Note_on_c, 1, 36, 0
1, 148553, Note_on_c, 0, 65, 48
1, 148553, Note_on_c, 0, 60, 26
1, 148557, Note_on_c, 0, 61, 50
1, 148589, Note_on_c, 1, 37, 74
1, 148595, Note_on_c, 9, 51, 98
1, 148597, Note_on_c, 0, 61, 0
1, 148597, Note_on_c, 0, 65, 0
1, 148599, Note_on_c, 9, 44, 87
1, 148605, Note_on_c, 0, 72, 0
1, 148613, Note_on_c, 0, 58, 0
1, 148613, Note_on_c, 0, 55, 0
1, 148617, Note_on_c, 0, 60, 0
1, 148641, Note_on_c, 0, 70, 66
1, 148653, Note_on_c, 0, 55, 27
1, 148661, Note_on_c, 0, 61, 46
1, 148661, Note_on_c, 0, 60, 32
1, 148721, Note_on_c, 0, 70, 0
1, 148721, Note_on_c, 9, 44, 0
1, 148737, Note_on_c, 0, 69, 60
1, 148797, Note_on_c, 0, 69, 0
1, 148817, Note_on_c, 0, 70, 60
1, 148821, Note_on_c, 0, 55, 0
1, 148837, Note_on_c, 0, 60, 0
1, 148841, Note_on_c, 1, 34, 41
1, 148851, Note_on_c, 9, 51, 43
1, 148855, Note_on_c, 9, 51, 0
1, 148881, Note_on_c, 0, 70, 0
1, 148893, Note_on_c, 0, 61, 0
1, 148901, Note_on_c, 0, 72, 78
1, 148925, Note_on_c, 1, 37, 0
1, 148947, Note_on_c, 9, 51, 0
1, 148961, Note_on_c, 1, 34, 0
1, 148973, Note_on_c, 1, 38, 67
1, 148979, Note_on_c, 9, 51, 57
1, 148993, Note_on_c, 9, 51, 0
1, 148997, Note_on_c, 0, 64, 46
1, 149001, Note_on_c, 0, 70, 76
1, 149001, Note_on_c, 0, 54, 42
1, 149009, Note_on_c, 0, 60, 45
1, 149029, Note_on_c, 0, 72, 0
1, 149057, Note_on_c, 0, 64, 0
1, 149065, Note_on_c, 0, 70, 0
1, 149073, Note_on_c, 9, 35, 40
1, 149097, Note_on_c, 9, 35, 0
1, 149109, Note_on_c, 0, 68, 61
1, 149201, Note_on_c, 0, 60, 0
1, 149245, Note_on_c, 1, 37, 42
1, 149317, Note_on_c, 1, 37, 0
1, 149329, Note_on_c, 0, 60, 21
1, 149337, Note_on_c, 1, 50, 66
1, 149353, Note_on_c, 0, 60, 0
1, 149363, Note_on_c, 9, 51, 64
1, 149365, Note_on_c, 0, 68, 0
1, 149367, Note_on_c, 9, 44, 91
1, 149373, Note_on_c, 0, 65, 62
1, 149413, Note_on_c, 0, 54, 0
1, 149505, Note_on_c, 9, 44, 0
1, 149573, Note_on_c, 0, 65, 0
1, 149613, Note_on_c, 0, 63, 57
1, 149617, Note_on_c, 0, 50, 55
1, 149617, Note_on_c, 0, 49, 52
1, 149625, Note_on_c, 1, 37, 36
1, 149649, Note_on_c, 1, 38, 0
1, 149673, Note_on_c, 0, 49, 0
1, 149685, Note_on_c, 0, 63, 0
1, 149689, Note_on_c, 9, 51, 0
1, 149697, Note_on_c, 1, 37, 0
1, 149737, Note_on_c, 1, 54, 62
1, 149745, Note_on_c, 1, 50, 0
1, 149747, Note_on_c, 9, 51, 98
1, 149761, Note_on_c, 0, 65, 56
1, 149785, Note_on_c, 0, 59, 51
1, 149861, Note_on_c, 0, 65, 0
1, 149865, Note_on_c, 0, 50, 0
1, 149885, Note_on_c, 0, 59, 0
1, 149997, Note_on_c, 0, 50, 42
1, 149997, Note_on_c, 1, 41, 53
1, 150009, Note_on_c, 0, 53, 29
1, 150045, Note_on_c, 0, 53, 0
1, 150067, Note_on_c, 9, 51, 0
1, 150073, Note_on_c, 1, 41, 0
1, 150085, Note_on_c, 0, 50, 0
1, 150117, Note_on_c, 1, 42, 62
1, 150121, Note_on_c, 0, 58, 60
1, 150129, Note_on_c, 0, 65, 54
1, 150131, Note_on_c, 9, 51, 59
1, 150135, Note_on_c, 9, 44, 98
1, 150137, Note_on_c, 0, 54, 41
1, 150141, Note_on_c, 0, 44, 48
1, 150247, Note_on_c, 9, 44, 0
1, 150253, Note_on_c, 0, 54, 0
1, 150269, Note_on_c, 0, 44, 0
1, 150289, Note_on_c, 0, 65, 0
1, 150345, Note_on_c, 9, 51, 0
1, 150377, Note_on_c, 0, 58, 0
1, 150381, Note_on_c, 0, 44, 57
1, 150381, Note_on_c, 1, 39, 40
1, 150387, Note_on_c, 9, 51, 75
1, 150389, Note_on_c, 0, 53, 48
1, 150409, Note_on_c, 9, 35, 28
1, 150445, Note_on_c, 0, 44, 0
1, 150455, Note_on_c, 9, 51, 0
1, 150457, Note_on_c, 0, 53, 0
1, 150465, Note_on_c, 1, 42, 0
1, 150467, Note_on_c, 9, 35, 0
1, 150477, Note_on_c, 1, 39, 0
1, 150497, Note_on_c, 1, 54, 0
1, 150501, Note_on_c, 1, 43, 77
1, 150509, Note_on_c, 0, 56, 46
1, 150513, Note_on_c, 0, 43, 40
1, 150515, Note_on_c, 9, 51, 66
1, 150529, Note_on_c, 9, 35, 24
1, 150549, Note_on_c, 0, 56, 0
1, 150573, Note_on_c, 0, 57, 39
1, 150701, Note_on_c, 0, 57, 0
1, 150711, Note_on_c, 9, 35, 0
1, 150725, Note_on_c, 0, 43, 0
1, 150749, Note_on_c, 1, 43, 0
1, 150757, Note_on_c, 1, 38, 79
1, 150803, Note_on_c, 9, 51, 0
1, 150807, Note_on_c, 9, 35, 31
1, 150839, Note_on_c, 9, 35, 0
1, 150899, Note_on_c, 9, 51, 64
1, 150901, Note_on_c, 0, 46, 46
1, 150903, Note_on_c, 9, 44, 84
1, 150905, Note_on_c, 0, 58, 58
1, 151049, Note_on_c, 9, 44, 0
1, 151081, Note_on_c, 9, 51, 0
1, 151089, Note_on_c, 0, 58, 0
1, 151155, Note_on_c, 9, 51, 82
1, 151219, Note_on_c, 9, 51, 0
1, 151253, Note_on_c, 1, 38, 0
1, 151277, Note_on_c, 1, 34, 66
1, 151283, Note_on_c, 9, 51, 47
1, 151285, Note_on_c, 0, 46, 0
1, 151301, Note_on_c, 0, 50, 49
1, 151305, Note_on_c, 0, 62, 49
1, 151309, Note_on_c, 0, 58, 42
1, 151317, Note_on_c, 0, 55, 45
1, 151365, Note_on_c, 1, 34, 0
1, 151373, Note_on_c, 0, 62, 0
1, 151421, Note_on_c, 0, 58, 0
1, 151437, Note_on_c, 0, 50, 0
1, 151449, Note_on_c, 0, 55, 0
1, 151449, Note_on_c, 0, 51, 43
1, 151511, Note_on_c, 9, 51, 0
1, 151533, Note_on_c, 0, 65, 66
1, 151533, Note_on_c, 1, 34, 60
1, 151537, Note_on_c, 0, 58, 63
1, 151539, Note_on_c, 9, 53, 64
1, 151541, Note_on_c, 0, 55, 54
1, 151545, Note_on_c, 0, 51, 0
1, 151557, Note_on_c, 0, 53, 68
1, 151565, Note_on_c, 0, 55, 0
1, 151581, Note_on_c, 0, 58, 0
1, 151581, Note_on_c, 0, 65, 0
1, 151605, Note_on_c, 1, 34, 0
1, 151619, Note_on_c, 9, 53, 0
1, 151649, Note_on_c, 0, 53, 0
1, 151653, Note_on_c, 1, 37, 64
1, 151667, Note_on_c, 9, 51, 78
1, 151671, Note_on_c, 0, 68, 53
1, 151671, Note_on_c, 9, 44, 91
1, 151717, Note_on_c, 0, 57, 60
1, 151745, Note_on_c, 1, 37, 0
1, 151757, Note_on_c, 0, 68, 0
1, 151815, Note_on_c, 9, 44, 0
1, 151815, Note_on_c, 9, 34, 66
1, 151853, Note_on_c, 9, 34, 0
1, 151913, Note_on_c, 0, 57, 0
1, 151913, Note_on_c, 1, 34, 57
1, 151929, Note_on_c, 0, 65, 57
1, 151929, Note_on_c, 0, 72, 56
1, 151929, Note_on_c, 0, 60, 64
1, 151937, Note_on_c, 0, 62, 37
1, 151953, Note_on_c, 0, 65, 0
1, 151953, Note_on_c, 0, 64, 31
1, 151969, Note_on_c, 0, 62, 0
1, 151977, Note_on_c, 0, 64, 0
1, 151985, Note_on_c, 0, 60, 0
1, 151989, Note_on_c, 0, 72, 0
1, 151993, Note_on_c, 9, 51, 0
1, 151997, Note_on_c, 1, 34, 0
1, 152029, Note_on_c, 1, 36, 68
1, 152051, Note_on_c, 9, 51, 84
1, 152077, Note_on_c, 0, 75, 72
1, 152081, Note_on_c, 0, 63, 66
1, 152085, Note_on_c, 0, 70, 55
1, 152085, Note_on_c, 0, 64, 48
1, 152085, Note_on_c, 0, 67, 47
1, 152137, Note_on_c, 0, 63, 0
1, 152141, Note_on_c, 0, 75, 0
1, 152145, Note_on_c, 0, 67, 0
1, 152153, Note_on_c, 0, 70, 0
1, 152161, Note_on_c, 0, 64, 0
1, 152189, Note_on_c, 0, 64, 40
1, 152193, Note_on_c, 0, 74, 50
1, 152193, Note_on_c, 0, 62, 50
1, 152209, Note_on_c, 0, 67, 20
1, 152209, Note_on_c, 0, 70, 36
1, 152221, Note_on_c, 0, 74, 0
1, 152245, Note_on_c, 0, 62, 0
1, 152249, Note_on_c, 0, 67, 0
1, 152253, Note_on_c, 0, 70, 0
1, 152261, Note_on_c, 0, 64, 0
1, 152309, Note_on_c, 0, 73, 61
1, 152317, Note_on_c, 0, 61, 52
1, 152325, Note_on_c, 0, 64, 49
1, 152325, Note_on_c, 0, 67, 49
1, 152341, Note_on_c, 0, 70, 29
1, 152349, Note_on_c, 0, 73, 0
1, 152369, Note_on_c, 0, 70, 0
1, 152375, Note_on_c, 9, 51, 0
1, 152389, Note_on_c, 0, 64, 0
1, 152393, Note_on_c, 0, 67, 0
1, 152413, Note_on_c, 0, 61, 0
1, 152435, Note_on_c, 9, 51, 75
1, 152439, Note_on_c, 9, 44, 99
1, 152445, Note_on_c, 0, 60, 54
1, 152449, Note_on_c, 0, 64, 47
1, 152449, Note_on_c, 0, 72, 48
1, 152453, Note_on_c, 0, 67, 41
1, 152457, Note_on_c, 9, 35, 17
1, 152505, Note_on_c, 0, 60, 0
1, 152509, Note_on_c, 0, 72, 0
1, 152517, Note_on_c, 0, 67, 0
1, 152561, Note_on_c, 9, 44, 0
1, 152593, Note_on_c, 0, 64, 0
1, 152611, Note_on_c, 9, 35, 0
1, 152643, Note_on_c, 9, 51, 0
1, 152689, Note_on_c, 0, 48, 49
1, 152689, Note_on_c, 9, 51, 75
1, 152707, Note_on_c, 9, 35, 26
1, 152721, Note_on_c, 0, 48, 0
1, 152739, Note_on_c, 9, 35, 0
1, 152743, Note_on_c, 9, 51, 0
1, 152817, Note_on_c, 1, 28, 98
1, 152819, Note_on_c, 9, 51, 87
1, 152825, Note_on_c, 0, 69, 54
1, 152829, Note_on_c, 0, 58, 57
1, 152829, Note_on_c, 0, 61, 54
1, 152837, Note_on_c, 1, 36, 0
1, 152841, Note_on_c, 0, 57, 48
1, 152857, Note_on_c, 0, 64, 37
1, 152873, Note_on_c, 0, 69, 0
1, 152889, Note_on_c, 0, 61, 0
1, 152893, Note_on_c, 0, 64, 0
1, 152901, Note_on_c, 0, 58, 0
1, 152925, Note_on_c, 0, 57, 0
1, 152945, Note_on_c, 0, 68, 57
1, 152949, Note_on_c, 0, 58, 52
1, 152957, Note_on_c, 0, 56, 47
1, 153021, Note_on_c, 0, 58, 0
1, 153025, Note_on_c, 0, 68, 0
1, 153041, Note_on_c, 0, 56, 0
1, 153069, Note_on_c, 0, 58, 54
1, 153073, Note_on_c, 0, 61, 54
1, 153073, Note_on_c, 0, 55, 54
1, 153081, Note_on_c, 0, 67, 46
1, 153123, Note_on_c, 9, 51, 0
1, 153137, Note_on_c, 0, 58, 0
1, 153145, Note_on_c, 0, 67, 0
1, 153185, Note_on_c, 0, 55, 0
1, 153189, Note_on_c, 0, 61, 0
1, 153203, Note_on_c, 9, 51, 73
1, 153207, Note_on_c, 9, 44, 96
1, 153365, Note_on_c, 0, 62, 51
1, 153369, Note_on_c, 0, 50, 49
1, 153377, Note_on_c, 9, 44, 0
1, 153425, Note_on_c, 0, 62, 0
1, 153427, Note_on_c, 9, 51, 0
1, 153437, Note_on_c, 0, 50, 0
1, 153459, Note_on_c, 9, 51, 75
1, 153463, Note_on_c, 9, 35, 24
1, 153481, Note_on_c, 0, 62, 55
1, 153489, Note_on_c, 0, 52, 38
1, 153505, Note_on_c, 9, 35, 0
1, 153511, Note_on_c, 9, 51, 0
1, 153561, Note_on_c, 0, 62, 0
1, 153573, Note_on_c, 0, 52, 0
1, 153577, Note_on_c, 1, 29, 74
1, 153581, Note_on_c, 1, 28, 0
1, 153585, Note_on_c, 9, 35, 33
1, 153587, Note_on_c, 9, 51, 77
1, 153621, Note_on_c, 0, 65, 68
1, 153629, Note_on_c, 1, 29, 0
1, 153753, Note_on_c, 0, 65, 0
1, 153785, Note_on_c, 9, 35, 0
1, 153825, Note_on_c, 1, 33, 102
1, 153859, Note_on_c, 0, 57, 48
1, 153859, Note_on_c, 9, 35, 36
1, 153881, Note_on_c, 9, 51, 0
1, 153885, Note_on_c, 9, 35, 0
1, 153885, Note_on_c, 0, 57, 0
1, 153971, Note_on_c, 9, 51, 87
1, 153975, Note_on_c, 9, 44, 98
1, 153993, Note_on_c, 0, 68, 56
1, 153997, Note_on_c, 0, 57, 54
1, 154001, Note_on_c, 0, 63, 51
1, 154009, Note_on_c, 0, 45, 23
1, 154041, Note_on_c, 0, 45, 0
1, 154045, Note_on_c, 0, 57, 0
1, 154049, Note_on_c, 0, 68, 0
1, 154061, Note_on_c, 0, 63, 0
1, 154135, Note_on_c, 9, 44, 0
1, 154185, Note_on_c, 9, 51, 0
1, 154217, Note_on_c, 0, 68, 60
1, 154221, Note_on_c, 0, 45, 55
1, 154227, Note_on_c, 9, 51, 70
1, 154229, Note_on_c, 0, 63, 54
1, 154253, Note_on_c, 0, 45, 0
1, 154263, Note_on_c, 9, 51, 0
1, 154273, Note_on_c, 0, 68, 0
1, 154297, Note_on_c, 0, 63, 0
1, 154355, Note_on_c, 9, 51, 75
1, 154361, Note_on_c, 1, 33, 0
1, 154373, Note_on_c, 0, 34, 47
1, 154373, Note_on_c, 1, 34, 57
1, 154385, Note_on_c, 0, 65, 48
1, 154401, Note_on_c, 0, 62, 38
1, 154405, Note_on_c, 0, 56, 14
1, 154485, Note_on_c, 0, 62, 0
1, 154493, Note_on_c, 0, 65, 0
1, 154493, Note_on_c, 0, 56, 0
1, 154517, Note_on_c, 0, 34, 0
1, 154535, Note_on_c, 9, 51, 0
1, 154541, Note_on_c, 1, 34, 0
1, 154611, Note_on_c, 9, 51, 77
1, 154633, Note_on_c, 9, 51, 0
1, 154737, Note_on_c, 1, 35, 56
1, 154737, Note_on_c, 9, 40, 59
1, 154739, Note_on_c, 9, 51, 112
1, 154743, Note_on_c, 9, 46, 42
1, 154755, Note_on_c, 9, 40, 0
1, 154757, Note_on_c, 0, 56, 43
1, 154769, Note_on_c, 0, 62, 44
1, 154769, Note_on_c, 0, 35, 36
1, 154777, Note_on_c, 0, 59, 37
1, 154821, Note_on_c, 0, 35, 0
1, 154855, Note_on_c, 9, 46, 0
1, 154865, Note_on_c, 0, 59, 0
1, 154913, Note_on_c, 0, 56, 0
1, 154925, Note_on_c, 1, 35, 0
1, 154953, Note_on_c, 9, 51, 0
1, 154969, Note_on_c, 9, 40, 70
1, 154993, Note_on_c, 0, 62, 0
1, 155017, Note_on_c, 9, 40, 0
1, 155113, Note_on_c, 1, 36, 57
1, 155123, Note_on_c, 9, 51, 99
1, 155153, Note_on_c, 0, 57, 43
1, 155153, Note_on_c, 0, 60, 48
1, 155165, Note_on_c, 0, 45, 26
1, 155193, Note_on_c, 0, 45, 0
1, 155217, Note_on_c, 9, 35, 40
1, 155237, Note_on_c, 0, 57, 0
1, 155241, Note_on_c, 9, 35, 0
1, 155249, Note_on_c, 0, 60, 0
1, 155415, Note_on_c, 9, 51, 0
1, 155489, Note_on_c, 1, 30, 68
1, 155493, Note_on_c, 1, 36, 0
1, 155507, Note_on_c, 9, 51, 64
1, 155509, Note_on_c, 0, 68, 48
1, 155511, Note_on_c, 9, 44, 91
1, 155513, Note_on_c, 0, 42, 39
1, 155513, Note_on_c, 0, 64, 35
1, 155517, Note_on_c, 0, 75, 28
1, 155533, Control_c, 0, 64, 127
1, 155533, Note_on_c, 0, 52, 22
1, 155537, Note_on_c, 0, 42, 0
1, 155553, Note_on_c, 0, 52, 0
1, 155573, Control_c, 0, 64, 0
1, 155593, Note_on_c, 0, 75, 0
1, 155601, Note_on_c, 0, 64, 0
1, 155617, Control_c, 0, 64, 127
1, 155649, Note_on_c, 9, 44, 0
1, 155653, Note_on_c, 0, 68, 0
1, 155673, Control_c, 0, 64, 0
1, 155749, Note_on_c, 1, 30, 0
1, 155753, Note_on_c, 1, 29, 68
1, 155765, Note_on_c, 0, 48, 29
1, 155785, Note_on_c, 0, 62, 33
1, 155785, Note_on_c, 0, 72, 38
1, 155785, Note_on_c, 0, 67, 39
1, 155785, Note_on_c, 0, 41, 40
1, 155785, Note_on_c, 0, 57, 36
1, 155833, Note_on_c, 9, 51, 0
1, 155845, Control_c, 0, 64, 127
1, 155891, Note_on_c, 0, 62, 0
1, 155891, Note_on_c, 9, 51, 98
1, 155917, Note_on_c, 0, 67, 0
1, 155961, Note_on_c, 0, 72, 0
1, 156085, Note_on_c, 0, 72, 48
1, 156121, Note_on_c, 0, 72, 0
1, 156189, Note_on_c, 0, 74, 55
1, 156209, Note_on_c, 0, 74, 0
1, 156211, Note_on_c, 9, 51, 0
1, 156321, Note_on_c, 0, 77, 49
1, 156349, Note_on_c, 0, 77, 0
1, 156449, Note_on_c, 0, 83, 52
1, 156545, Note_on_c, 0, 83, 0
1, 156577, Note_on_c, 0, 81, 54
1, 156741, Note_on_c, 0, 81, 0
1, 156809, Note_on_c, 0, 88, 57
1, 156893, Note_on_c, 0, 88, 0
1, 156933, Note_on_c, 0, 86, 35
1, 156957, Note_on_c, 0, 86, 0
1, 157057, Note_on_c, 0, 95, 63
1, 157157, Note_on_c, 0, 95, 0
1, 157177, Note_on_c, 0, 93, 47
1, 157245, Note_on_c, 0, 93, 0
1, 157313, Note_on_c, 0, 98, 56
1, 157397, Note_on_c, 0, 98, 0
1, 157421, Note_on_c, 0, 96, 40
1, 157497, Note_on_c, 0, 96, 0
1, 157553, Note_on_c, 0, 103, 56
1, 157661, Note_on_c, 0, 103, 0
1, 157669, Note_on_c, 0, 101, 48
1, 157741, Note_on_c, 0, 101, 0
1, 157785, Note_on_c, 0, 57, 0
1, 157801, Note_on_c, 0, 107, 66
1, 157805, Note_on_c, 0, 48, 0
1, 157821, Note_on_c, 0, 41, 0
1, 157857, Note_on_c, 1, 29, 0
1, 157913, System_exclusive, 9, 67, 16, 76, 2, 1, 0, 1, 0, 247
1, 157913, System_exclusive, 8, 67, 16, 76, 2, 1, 12, 64, 247
1, 157913, System_exclusive, 8, 67, 16, 76, 2, 1, 13, 64, 247
1, 157913, System_exclusive, 9, 67, 16, 76, 2, 1, 32, 65, 0, 247
1, 157913, System_exclusive, 8, 67, 16, 76, 2, 1, 44, 64, 247
1, 157913, System_exclusive, 8, 67, 16, 76, 2, 1, 45, 64, 247
1, 157913, System_exclusive, 8, 67, 16, 76, 2, 1, 46, 0, 247
1, 158085, Note_on_c, 0, 29, 57
1, 158273, Note_on_c, 0, 107, 0
1, 158385, Note_on_c, 0, 29, 0
1, 158853, Control_c, 0, 64, 0
1, 158853, End_track
0, 0, End_of_file
