0, 0, Header, 0, 1, 120
1, 0, Start_track
1, 0, Title_t, "untitled"
1, 0, Copyright_t, "Copyright © 1999 by Doug McKenzie"
1, 0, Text_t, "Doug McKenzie\012"
1, 0, Time_signature, 4, 2, 24, 8
1, 0, Key_signature, -3, "major"
1, 0, Tempo, 600000
1, 0, Control_c, 0, 0, 0
1, 0, Control_c, 0, 32, 1
1, 0, Program_c, 0, 0
1, 0, Program_c, 9, 1
1, 66, Control_c, 0, 64, 127
1, 202, Note_on_c, 0, 57, 89
1, 203, Note_on_c, 0, 62, 70
1, 204, Note_on_c, 0, 65, 83
1, 204, Note_on_c, 0, 54, 92
1, 205, Note_on_c, 0, 39, 67
1, 208, Note_on_c, 0, 47, 46
1, 209, Control_c, 0, 64, 0
1, 270, Control_c, 0, 64, 127
1, 338, Note_on_c, 0, 48, 82
1, 345, Note_on_c, 0, 47, 0
1, 350, Note_on_c, 0, 39, 0
1, 364, Control_c, 0, 64, 0
1, 389, Note_on_c, 0, 49, 85
1, 393, Note_on_c, 0, 48, 0
1, 398, Note_on_c, 0, 62, 0
1, 402, Note_on_c, 0, 57, 0
1, 419, Note_on_c, 0, 49, 0
1, 420, Note_on_c, 0, 50, 77
1, 421, Note_on_c, 0, 65, 0
1, 422, Note_on_c, 0, 54, 0
1, 457, Note_on_c, 0, 51, 69
1, 458, Note_on_c, 0, 50, 0
1, 488, Note_on_c, 0, 51, 0
1, 488, Note_on_c, 0, 53, 54
1, 527, Note_on_c, 0, 52, 62
1, 529, Note_on_c, 0, 53, 0
1, 560, Note_on_c, 0, 52, 0
1, 563, Note_on_c, 0, 51, 48
1, 564, Note_on_c, 0, 55, 53
1, 565, Note_on_c, 0, 63, 53
1, 566, Note_on_c, 0, 58, 53
1, 568, Note_on_c, 0, 60, 59
1, 648, Control_c, 0, 64, 127
1, 656, Note_on_c, 0, 51, 0
1, 728, Note_on_c, 0, 39, 44
1, 747, Note_on_c, 0, 39, 0
1, 760, Note_on_c, 0, 55, 0
1, 763, Note_on_c, 0, 60, 0
1, 772, Note_on_c, 0, 58, 0
1, 804, Note_on_c, 0, 63, 0
1, 835, Note_on_c, 0, 63, 37
1, 840, Note_on_c, 0, 56, 32
1, 841, Note_on_c, 0, 60, 48
1, 842, Control_c, 0, 64, 0
1, 847, Note_on_c, 0, 46, 38
1, 888, Control_c, 0, 64, 127
1, 892, Note_on_c, 0, 56, 0
1, 903, Note_on_c, 0, 60, 0
1, 908, Note_on_c, 0, 53, 53
1, 912, Note_on_c, 0, 63, 0
1, 976, Note_on_c, 0, 75, 79
1, 978, Note_on_c, 0, 53, 0
1, 978, Note_on_c, 0, 56, 51
1, 992, Note_on_c, 0, 46, 0
1, 1004, Note_on_c, 0, 56, 0
1, 1024, Note_on_c, 0, 75, 0
1, 1043, Note_on_c, 0, 77, 87
1, 1104, Note_on_c, 0, 77, 0
1, 1136, Note_on_c, 0, 79, 74
1, 1139, Note_on_c, 0, 76, 79
1, 1140, Note_on_c, 0, 62, 59
1, 1143, Note_on_c, 0, 74, 68
1, 1145, Note_on_c, 0, 66, 53
1, 1146, Note_on_c, 0, 56, 50
1, 1147, Note_on_c, 0, 71, 72
1, 1151, Control_c, 0, 64, 0
1, 1193, Control_c, 0, 64, 127
1, 1208, Note_on_c, 0, 62, 0
1, 1212, Note_on_c, 0, 76, 0
1, 1214, Note_on_c, 0, 74, 0
1, 1217, Note_on_c, 0, 79, 0
1, 1234, Note_on_c, 0, 71, 0
1, 1252, Note_on_c, 0, 82, 70
1, 1255, Note_on_c, 0, 62, 37
1, 1258, Note_on_c, 0, 66, 0
1, 1261, Note_on_c, 0, 83, 32
1, 1268, Note_on_c, 0, 83, 0
1, 1338, Note_on_c, 0, 82, 0
1, 1352, Note_on_c, 0, 66, 36
1, 1352, Note_on_c, 0, 79, 34
1, 1471, Note_on_c, 0, 66, 0
1, 1494, Note_on_c, 0, 62, 0
1, 1497, Note_on_c, 0, 82, 48
1, 1511, Note_on_c, 0, 56, 0
1, 1546, Note_on_c, 0, 79, 0
1, 1559, Note_on_c, 0, 82, 0
1, 1731, Note_on_c, 0, 65, 59
1, 1732, Note_on_c, 0, 57, 59
1, 1735, Note_on_c, 0, 54, 42
1, 1736, Note_on_c, 0, 39, 38
1, 1736, Note_on_c, 0, 62, 40
1, 1739, Note_on_c, 0, 47, 42
1, 1741, Control_c, 0, 64, 0
1, 1785, Control_c, 0, 64, 127
1, 1823, Note_on_c, 0, 57, 0
1, 1825, Note_on_c, 0, 62, 0
1, 1849, Note_on_c, 0, 54, 0
1, 1857, Note_on_c, 0, 65, 0
1, 1894, Note_on_c, 0, 63, 36
1, 1895, Note_on_c, 0, 47, 0
1, 1896, Note_on_c, 0, 55, 47
1, 1900, Note_on_c, 0, 58, 46
1, 1900, Note_on_c, 0, 48, 38
1, 1901, Note_on_c, 0, 60, 39
1, 1907, Control_c, 0, 64, 0
1, 2002, Control_c, 0, 64, 127
1, 2150, Note_on_c, 0, 55, 0
1, 2151, Note_on_c, 0, 60, 0
1, 2157, Note_on_c, 0, 63, 0
1, 2161, Note_on_c, 0, 48, 0
1, 2168, Note_on_c, 0, 58, 0
1, 2184, Note_on_c, 0, 39, 0
1, 2366, Note_on_c, 0, 63, 65
1, 2368, Note_on_c, 0, 58, 64
1, 2370, Note_on_c, 0, 54, 62
1, 2372, Note_on_c, 0, 53, 64
1, 2378, Control_c, 0, 64, 0
1, 2444, Note_on_c, 0, 51, 83
1, 2450, Note_on_c, 0, 53, 0
1, 2463, Control_c, 0, 64, 127
1, 2496, Note_on_c, 0, 63, 0
1, 2540, Note_on_c, 0, 58, 0
1, 2546, Note_on_c, 0, 54, 0
1, 2568, Note_on_c, 0, 63, 62
1, 2574, Note_on_c, 0, 58, 35
1, 2581, Note_on_c, 0, 58, 0
1, 2630, Note_on_c, 0, 63, 0
1, 2638, Note_on_c, 0, 65, 80
1, 2670, Note_on_c, 0, 65, 0
1, 2768, Note_on_c, 0, 51, 0
1, 2831, Note_on_c, 0, 66, 72
1, 2835, Note_on_c, 0, 62, 71
1, 2843, Note_on_c, 0, 44, 38
1, 2844, Control_c, 0, 64, 0
1, 2845, Note_on_c, 0, 54, 33
1, 2848, Note_on_c, 0, 57, 36
1, 2896, Control_c, 0, 64, 127
1, 2982, Note_on_c, 0, 62, 0
1, 2984, Note_on_c, 0, 44, 0
1, 2991, Note_on_c, 0, 57, 0
1, 3014, Note_on_c, 0, 66, 0
1, 3055, Note_on_c, 0, 54, 0
1, 3065, Note_on_c, 0, 68, 71
1, 3066, Note_on_c, 0, 56, 64
1, 3067, Note_on_c, 0, 59, 66
1, 3067, Note_on_c, 0, 64, 68
1, 3070, Control_c, 0, 64, 0
1, 3097, Control_c, 0, 64, 127
1, 3102, Note_on_c, 0, 59, 0
1, 3108, Note_on_c, 0, 64, 0
1, 3117, Note_on_c, 0, 68, 0
1, 3147, Note_on_c, 0, 70, 75
1, 3148, Note_on_c, 0, 66, 70
1, 3148, Note_on_c, 0, 58, 56
1, 3148, Note_on_c, 0, 61, 69
1, 3154, Note_on_c, 0, 56, 0
1, 3173, Note_on_c, 0, 61, 0
1, 3179, Note_on_c, 0, 66, 0
1, 3186, Note_on_c, 0, 70, 0
1, 3190, Note_on_c, 0, 58, 0
1, 3213, Note_on_c, 0, 72, 69
1, 3213, Note_on_c, 0, 60, 58
1, 3213, Note_on_c, 0, 63, 71
1, 3214, Note_on_c, 0, 68, 67
1, 3221, Note_on_c, 0, 60, 0
1, 3250, Note_on_c, 0, 72, 0
1, 3257, Note_on_c, 0, 63, 0
1, 3267, Note_on_c, 0, 68, 0
1, 3287, Note_on_c, 0, 70, 61
1, 3291, Note_on_c, 0, 63, 58
1, 3291, Note_on_c, 0, 67, 53
1, 3292, Note_on_c, 0, 60, 55
1, 3294, Control_c, 0, 64, 0
1, 3294, Note_on_c, 0, 49, 51
1, 3344, Note_on_c, 0, 60, 0
1, 3350, Control_c, 0, 64, 127
1, 3354, Note_on_c, 0, 67, 0
1, 3357, Note_on_c, 0, 56, 62
1, 3359, Note_on_c, 0, 63, 0
1, 3366, Note_on_c, 0, 49, 0
1, 3368, Note_on_c, 0, 70, 0
1, 3378, Note_on_c, 0, 56, 0
1, 3430, Control_c, 0, 64, 0
1, 3431, Note_on_c, 0, 80, 78
1, 3432, Note_on_c, 0, 63, 55
1, 3433, Note_on_c, 0, 72, 73
1, 3434, Note_on_c, 0, 58, 50
1, 3434, Note_on_c, 0, 68, 57
1, 3435, Note_on_c, 0, 53, 34
1, 3462, Control_c, 0, 64, 127
1, 3478, Note_on_c, 0, 53, 0
1, 3500, Note_on_c, 0, 58, 0
1, 3504, Note_on_c, 0, 63, 0
1, 3523, Note_on_c, 0, 65, 57
1, 3525, Note_on_c, 0, 60, 56
1, 3528, Control_c, 0, 64, 0
1, 3530, Note_on_c, 0, 55, 56
1, 3568, Control_c, 0, 64, 127
1, 3572, Note_on_c, 0, 72, 0
1, 3614, Note_on_c, 0, 80, 0
1, 3620, Note_on_c, 0, 75, 71
1, 3653, Note_on_c, 0, 68, 0
1, 3681, Note_on_c, 0, 68, 73
1, 3682, Note_on_c, 0, 65, 0
1, 3697, Note_on_c, 0, 60, 0
1, 3703, Note_on_c, 0, 55, 0
1, 3712, Note_on_c, 0, 75, 0
1, 3713, Note_on_c, 0, 68, 0
1, 3740, Note_on_c, 0, 65, 70
1, 3773, Note_on_c, 0, 65, 0
1, 3794, Note_on_c, 0, 61, 73
1, 3856, Note_on_c, 0, 61, 0
1, 3865, Note_on_c, 0, 43, 41
1, 3867, Note_on_c, 0, 60, 57
1, 3869, Control_c, 0, 64, 0
1, 3872, Note_on_c, 0, 53, 24
1, 3932, Control_c, 0, 64, 127
1, 3953, Note_on_c, 0, 60, 0
1, 3956, Note_on_c, 0, 49, 45
1, 3967, Note_on_c, 0, 43, 0
1, 3976, Note_on_c, 0, 49, 0
1, 3977, Note_on_c, 0, 53, 0
1, 4272, Note_on_c, 0, 73, 53
1, 4274, Note_on_c, 0, 58, 53
1, 4274, Note_on_c, 0, 64, 53
1, 4274, Note_on_c, 0, 69, 54
1, 4280, Control_c, 0, 64, 0
1, 4306, Control_c, 0, 64, 127
1, 4338, Note_on_c, 0, 64, 0
1, 4342, Note_on_c, 0, 69, 0
1, 4346, Note_on_c, 0, 73, 0
1, 4381, Note_on_c, 0, 58, 0
1, 4384, Note_on_c, 0, 63, 53
1, 4384, Note_on_c, 0, 72, 60
1, 4386, Note_on_c, 0, 68, 57
1, 4386, Note_on_c, 0, 57, 41
1, 4387, Control_c, 0, 64, 0
1, 4417, Control_c, 0, 64, 127
1, 4427, Note_on_c, 0, 72, 0
1, 4440, Note_on_c, 0, 68, 0
1, 4446, Note_on_c, 0, 63, 0
1, 4468, Note_on_c, 0, 57, 0
1, 4471, Note_on_c, 0, 70, 54
1, 4472, Note_on_c, 0, 61, 47
1, 4472, Note_on_c, 0, 55, 46
1, 4473, Control_c, 0, 64, 0
1, 4475, Note_on_c, 0, 66, 46
1, 4501, Control_c, 0, 64, 127
1, 4513, Note_on_c, 0, 61, 0
1, 4522, Note_on_c, 0, 66, 0
1, 4529, Note_on_c, 0, 70, 0
1, 4536, Note_on_c, 0, 55, 0
1, 4536, Note_on_c, 0, 72, 67
1, 4538, Note_on_c, 0, 63, 62
1, 4540, Note_on_c, 0, 68, 60
1, 4541, Note_on_c, 0, 57, 59
1, 4561, Note_on_c, 0, 72, 0
1, 4571, Note_on_c, 0, 68, 0
1, 4576, Note_on_c, 0, 63, 0
1, 4591, Note_on_c, 0, 57, 0
1, 4597, Note_on_c, 0, 68, 59
1, 4598, Note_on_c, 0, 58, 60
1, 4600, Note_on_c, 0, 64, 64
1, 4600, Note_on_c, 0, 73, 37
1, 4606, Note_on_c, 0, 74, 36
1, 4614, Note_on_c, 0, 74, 0
1, 4622, Note_on_c, 0, 68, 0
1, 4625, Note_on_c, 0, 64, 0
1, 4626, Note_on_c, 0, 73, 0
1, 4654, Note_on_c, 0, 75, 69
1, 4657, Note_on_c, 0, 60, 66
1, 4660, Note_on_c, 0, 76, 55
1, 4669, Note_on_c, 0, 76, 0
1, 4686, Note_on_c, 0, 60, 0
1, 4695, Note_on_c, 0, 75, 0
1, 4695, Note_on_c, 0, 58, 0
1, 4718, Control_c, 0, 64, 0
1, 4719, Note_on_c, 0, 72, 60
1, 4720, Note_on_c, 0, 64, 54
1, 4720, Note_on_c, 0, 69, 61
1, 4720, Note_on_c, 0, 60, 58
1, 4752, Note_on_c, 0, 64, 0
1, 4752, Control_c, 0, 64, 127
1, 4758, Note_on_c, 0, 69, 0
1, 4768, Note_on_c, 0, 72, 0
1, 4790, Note_on_c, 0, 79, 68
1, 4790, Note_on_c, 0, 64, 47
1, 4792, Note_on_c, 0, 72, 52
1, 4794, Note_on_c, 0, 60, 0
1, 4822, Note_on_c, 0, 79, 0
1, 4826, Note_on_c, 0, 72, 0
1, 4830, Note_on_c, 0, 64, 0
1, 4867, Note_on_c, 0, 76, 55
1, 4870, Note_on_c, 0, 69, 56
1, 4871, Note_on_c, 0, 62, 46
1, 4872, Note_on_c, 0, 72, 42
1, 4874, Control_c, 0, 64, 0
1, 4897, Note_on_c, 0, 72, 0
1, 4898, Control_c, 0, 64, 127
1, 4906, Note_on_c, 0, 76, 0
1, 4914, Note_on_c, 0, 69, 0
1, 4924, Note_on_c, 0, 62, 0
1, 4946, Note_on_c, 0, 67, 52
1, 4946, Note_on_c, 0, 72, 45
1, 4946, Control_c, 0, 64, 0
1, 4949, Note_on_c, 0, 62, 37
1, 4950, Note_on_c, 0, 57, 51
1, 4964, Control_c, 0, 64, 127
1, 4971, Note_on_c, 0, 72, 0
1, 4972, Note_on_c, 0, 67, 0
1, 4972, Note_on_c, 0, 57, 0
1, 4981, Note_on_c, 0, 62, 0
1, 5031, Note_on_c, 0, 69, 56
1, 5032, Note_on_c, 0, 53, 37
1, 5032, Note_on_c, 0, 64, 45
1, 5034, Note_on_c, 0, 60, 35
1, 5034, Control_c, 0, 64, 0
1, 5064, Note_on_c, 0, 64, 0
1, 5067, Control_c, 0, 64, 127
1, 5078, Note_on_c, 0, 60, 0
1, 5081, Note_on_c, 0, 69, 0
1, 5100, Note_on_c, 0, 53, 0
1, 5109, Note_on_c, 0, 60, 54
1, 5113, Control_c, 0, 64, 0
1, 5114, Note_on_c, 0, 57, 60
1, 5120, Note_on_c, 0, 41, 41
1, 5147, Control_c, 0, 64, 127
1, 5154, Note_on_c, 0, 57, 0
1, 5160, Note_on_c, 0, 60, 0
1, 5189, Control_c, 0, 64, 0
1, 5194, Note_on_c, 0, 67, 61
1, 5196, Note_on_c, 0, 60, 73
1, 5198, Note_on_c, 0, 57, 50
1, 5209, Control_c, 0, 64, 127
1, 5230, Note_on_c, 0, 57, 0
1, 5239, Note_on_c, 0, 60, 0
1, 5261, Note_on_c, 0, 67, 0
1, 5280, Note_on_c, 0, 65, 58
1, 5282, Note_on_c, 0, 60, 51
1, 5286, Note_on_c, 0, 57, 26
1, 5289, Note_on_c, 0, 41, 0
1, 5299, Note_on_c, 0, 60, 0
1, 5301, Note_on_c, 0, 57, 0
1, 5307, Note_on_c, 0, 65, 0
1, 5376, Note_on_c, 0, 70, 77
1, 5377, Note_on_c, 0, 63, 80
1, 5378, Note_on_c, 0, 58, 77
1, 5379, Note_on_c, 0, 65, 78
1, 5379, Note_on_c, 0, 59, 76
1, 5386, Control_c, 0, 64, 0
1, 5440, Control_c, 0, 64, 127
1, 5453, Note_on_c, 0, 70, 0
1, 5474, Note_on_c, 0, 70, 63
1, 5527, Note_on_c, 0, 59, 0
1, 5537, Note_on_c, 0, 63, 0
1, 5538, Note_on_c, 0, 65, 0
1, 5539, Note_on_c, 0, 70, 0
1, 5552, Note_on_c, 0, 63, 35
1, 5554, Note_on_c, 0, 58, 0
1, 5554, Note_on_c, 0, 59, 53
1, 5554, Note_on_c, 0, 68, 60
1, 5555, Note_on_c, 0, 56, 47
1, 5556, Note_on_c, 0, 65, 43
1, 5556, Control_c, 0, 64, 0
1, 5574, Control_c, 0, 64, 127
1, 5598, Note_on_c, 0, 63, 0
1, 5639, Note_on_c, 0, 63, 52
1, 5647, Note_on_c, 0, 56, 0
1, 5680, Note_on_c, 0, 68, 0
1, 5686, Note_on_c, 0, 59, 0
1, 5692, Note_on_c, 0, 65, 0
1, 5722, Note_on_c, 0, 63, 0
1, 5758, Control_c, 0, 64, 0
1, 5761, Note_on_c, 0, 67, 39
1, 5763, Note_on_c, 0, 62, 48
1, 5766, Note_on_c, 0, 64, 46
1, 5767, Note_on_c, 0, 59, 30
1, 5768, Note_on_c, 0, 56, 29
1, 5768, Note_on_c, 0, 46, 30
1, 5787, Control_c, 0, 64, 127
1, 5793, Note_on_c, 0, 59, 0
1, 5795, Note_on_c, 0, 46, 0
1, 5801, Note_on_c, 0, 62, 0
1, 5804, Note_on_c, 0, 64, 0
1, 5805, Note_on_c, 0, 56, 0
1, 5809, Note_on_c, 0, 67, 0
1, 5877, Note_on_c, 0, 79, 64
1, 5882, Note_on_c, 0, 76, 66
1, 5887, Note_on_c, 0, 68, 43
1, 5888, Note_on_c, 0, 70, 49
1, 5890, Note_on_c, 0, 74, 54
1, 5894, Note_on_c, 0, 71, 60
1, 5912, Note_on_c, 0, 70, 0
1, 5912, Note_on_c, 0, 68, 0
1, 5915, Note_on_c, 0, 71, 0
1, 5922, Note_on_c, 0, 74, 0
1, 5926, Note_on_c, 0, 76, 0
1, 5926, Note_on_c, 0, 79, 0
1, 6016, Note_on_c, 0, 91, 62
1, 6027, Note_on_c, 0, 88, 56
1, 6030, Note_on_c, 0, 82, 49
1, 6032, Note_on_c, 0, 80, 35
1, 6036, Note_on_c, 0, 86, 43
1, 6038, Note_on_c, 0, 83, 39
1, 6096, Note_on_c, 0, 91, 0
1, 6098, Note_on_c, 0, 82, 0
1, 6103, Note_on_c, 0, 86, 0
1, 6106, Note_on_c, 0, 80, 0
1, 6114, Note_on_c, 0, 88, 0
1, 6124, Note_on_c, 0, 83, 0
1, 6464, Note_on_c, 0, 67, 60
1, 6519, Note_on_c, 0, 67, 0
1, 6598, Note_on_c, 0, 62, 54
1, 6598, Note_on_c, 0, 65, 69
1, 6601, Note_on_c, 0, 57, 67
1, 6604, Note_on_c, 0, 39, 37
1, 6607, Note_on_c, 0, 47, 41
1, 6611, Control_c, 0, 64, 0
1, 6627, Note_on_c, 0, 54, 2
1, 6649, Control_c, 0, 64, 127
1, 6688, Note_on_c, 0, 57, 0
1, 6700, Note_on_c, 0, 62, 0
1, 6727, Note_on_c, 0, 54, 0
1, 6733, Note_on_c, 0, 65, 0
1, 6751, Note_on_c, 0, 63, 48
1, 6755, Note_on_c, 0, 47, 0
1, 6756, Note_on_c, 0, 55, 46
1, 6756, Note_on_c, 0, 58, 36
1, 6759, Note_on_c, 0, 48, 44
1, 6766, Control_c, 0, 64, 0
1, 6846, Control_c, 0, 64, 127
1, 6899, Note_on_c, 0, 55, 0
1, 6910, Note_on_c, 0, 58, 0
1, 6912, Note_on_c, 0, 39, 0
1, 6914, Note_on_c, 0, 48, 0
1, 6926, Note_on_c, 0, 63, 0
1, 7103, Note_on_c, 0, 82, 54
1, 7146, Note_on_c, 0, 82, 0
1, 7168, Note_on_c, 0, 82, 59
1, 7172, Note_on_c, 0, 68, 28
1, 7175, Note_on_c, 0, 75, 42
1, 7175, Note_on_c, 0, 60, 35
1, 7176, Note_on_c, 0, 63, 35
1, 7177, Note_on_c, 0, 70, 38
1, 7180, Control_c, 0, 64, 0
1, 7221, Control_c, 0, 64, 127
1, 7241, Note_on_c, 0, 70, 0
1, 7244, Note_on_c, 0, 58, 42
1, 7249, Note_on_c, 0, 82, 0
1, 7253, Note_on_c, 0, 75, 0
1, 7302, Note_on_c, 0, 75, 85
1, 7333, Note_on_c, 0, 75, 0
1, 7351, Note_on_c, 0, 68, 0
1, 7352, Note_on_c, 0, 77, 82
1, 7376, Note_on_c, 0, 58, 0
1, 7378, Note_on_c, 0, 60, 0
1, 7391, Note_on_c, 0, 63, 0
1, 7393, Note_on_c, 0, 77, 0
1, 7410, Note_on_c, 0, 79, 65
1, 7411, Note_on_c, 0, 62, 44
1, 7412, Note_on_c, 0, 67, 50
1, 7413, Control_c, 0, 64, 0
1, 7414, Note_on_c, 0, 74, 65
1, 7416, Note_on_c, 0, 71, 62
1, 7417, Note_on_c, 0, 56, 34
1, 7439, Control_c, 0, 64, 127
1, 7446, Note_on_c, 0, 71, 0
1, 7446, Note_on_c, 0, 74, 0
1, 7447, Note_on_c, 0, 79, 0
1, 7468, Note_on_c, 0, 67, 0
1, 7476, Note_on_c, 0, 82, 73
1, 7477, Note_on_c, 0, 62, 0
1, 7487, Note_on_c, 0, 56, 0
1, 7504, Note_on_c, 0, 82, 0
1, 7550, Note_on_c, 0, 79, 55
1, 7551, Note_on_c, 0, 46, 38
1, 7609, Note_on_c, 0, 46, 0
1, 7631, Note_on_c, 0, 79, 0
1, 7642, Note_on_c, 0, 82, 53
1, 7688, Note_on_c, 0, 82, 0
1, 7846, Note_on_c, 0, 77, 52
1, 7854, Control_c, 0, 64, 0
1, 7855, Note_on_c, 0, 39, 35
1, 7859, Note_on_c, 0, 67, 34
1, 7887, Control_c, 0, 64, 127
1, 7892, Note_on_c, 0, 77, 0
1, 7904, Note_on_c, 0, 67, 0
1, 7904, Note_on_c, 0, 46, 52
1, 7908, Note_on_c, 0, 39, 0
1, 7950, Note_on_c, 0, 46, 0
1, 7962, Note_on_c, 0, 55, 41
1, 8013, Note_on_c, 0, 58, 46
1, 8025, Note_on_c, 0, 55, 0
1, 8066, Note_on_c, 0, 62, 62
1, 8072, Note_on_c, 0, 77, 77
1, 8072, Note_on_c, 0, 70, 83
1, 8108, Note_on_c, 0, 62, 0
1, 8118, Note_on_c, 0, 70, 0
1, 8123, Note_on_c, 0, 77, 0
1, 8137, Note_on_c, 0, 67, 66
1, 8139, Note_on_c, 0, 62, 44
1, 8155, Note_on_c, 0, 67, 0
1, 8196, Note_on_c, 0, 62, 0
1, 8213, Note_on_c, 0, 74, 62
1, 8214, Note_on_c, 0, 67, 54
1, 8215, Note_on_c, 0, 58, 0
1, 8215, Note_on_c, 0, 63, 57
1, 8217, Note_on_c, 0, 62, 31
1, 8270, Note_on_c, 0, 67, 0
1, 8272, Note_on_c, 0, 63, 0
1, 8274, Note_on_c, 0, 74, 0
1, 8286, Note_on_c, 0, 70, 46
1, 8288, Note_on_c, 0, 62, 0
1, 8289, Note_on_c, 0, 63, 52
1, 8294, Note_on_c, 0, 58, 45
1, 8315, Note_on_c, 0, 58, 0
1, 8325, Note_on_c, 0, 63, 0
1, 8360, Note_on_c, 0, 70, 0
1, 8388, Note_on_c, 0, 39, 33
1, 8389, Note_on_c, 0, 66, 50
1, 8390, Note_on_c, 0, 54, 34
1, 8390, Note_on_c, 0, 61, 28
1, 8400, Control_c, 0, 64, 0
1, 8448, Control_c, 0, 64, 127
1, 8455, Note_on_c, 0, 54, 0
1, 8459, Note_on_c, 0, 46, 51
1, 8481, Note_on_c, 0, 66, 0
1, 8508, Note_on_c, 0, 61, 0
1, 8521, Note_on_c, 0, 39, 0
1, 8526, Note_on_c, 0, 61, 42
1, 8527, Note_on_c, 0, 63, 59
1, 8529, Note_on_c, 0, 54, 56
1, 8564, Note_on_c, 0, 46, 0
1, 8581, Note_on_c, 0, 65, 78
1, 8613, Note_on_c, 0, 54, 0
1, 8618, Note_on_c, 0, 63, 0
1, 8621, Note_on_c, 0, 61, 0
1, 8623, Note_on_c, 0, 65, 0
1, 8642, Note_on_c, 0, 54, 48
1, 8643, Note_on_c, 0, 66, 58
1, 8643, Note_on_c, 0, 60, 55
1, 8646, Note_on_c, 0, 44, 36
1, 8651, Control_c, 0, 64, 0
1, 8695, Control_c, 0, 64, 127
1, 8701, Note_on_c, 0, 66, 0
1, 8705, Note_on_c, 0, 68, 71
1, 8708, Note_on_c, 0, 51, 45
1, 8712, Note_on_c, 0, 54, 0
1, 8739, Note_on_c, 0, 68, 0
1, 8758, Note_on_c, 0, 60, 0
1, 8776, Note_on_c, 0, 70, 74
1, 8778, Note_on_c, 0, 54, 43
1, 8827, Note_on_c, 0, 70, 0
1, 8831, Note_on_c, 0, 44, 0
1, 8854, Note_on_c, 0, 72, 66
1, 8855, Note_on_c, 0, 44, 40
1, 8891, Note_on_c, 0, 54, 0
1, 8909, Note_on_c, 0, 51, 0
1, 8919, Note_on_c, 0, 44, 0
1, 8954, Note_on_c, 0, 72, 0
1, 9152, Note_on_c, 0, 70, 59
1, 9156, Note_on_c, 0, 65, 55
1, 9157, Note_on_c, 0, 60, 37
1, 9162, Note_on_c, 0, 37, 37
1, 9167, Control_c, 0, 64, 0
1, 9227, Note_on_c, 0, 44, 56
1, 9249, Control_c, 0, 64, 127
1, 9254, Note_on_c, 0, 60, 0
1, 9254, Note_on_c, 0, 65, 0
1, 9295, Note_on_c, 0, 37, 0
1, 9297, Note_on_c, 0, 70, 0
1, 9302, Note_on_c, 0, 67, 47
1, 9303, Note_on_c, 0, 60, 43
1, 9304, Note_on_c, 0, 64, 55
1, 9304, Note_on_c, 0, 48, 54
1, 9306, Note_on_c, 0, 44, 0
1, 9325, Control_c, 0, 64, 0
1, 9382, Note_on_c, 0, 49, 59
1, 9390, Note_on_c, 0, 48, 0
1, 9393, Control_c, 0, 64, 127
1, 9420, Note_on_c, 0, 64, 0
1, 9442, Note_on_c, 0, 60, 0
1, 9455, Note_on_c, 0, 67, 0
1, 9474, Note_on_c, 0, 65, 60
1, 9476, Note_on_c, 0, 53, 52
1, 9479, Note_on_c, 0, 60, 34
1, 9484, Control_c, 0, 64, 0
1, 9508, Control_c, 0, 64, 127
1, 9542, Note_on_c, 0, 56, 56
1, 9543, Note_on_c, 0, 68, 58
1, 9544, Note_on_c, 0, 53, 0
1, 9547, Note_on_c, 0, 49, 0
1, 9549, Note_on_c, 0, 60, 0
1, 9559, Note_on_c, 0, 65, 0
1, 9566, Note_on_c, 0, 56, 0
1, 9572, Note_on_c, 0, 68, 0
1, 9607, Note_on_c, 0, 68, 68
1, 9608, Note_on_c, 0, 60, 62
1, 9612, Note_on_c, 0, 65, 58
1, 9638, Note_on_c, 0, 65, 0
1, 9662, Note_on_c, 0, 63, 64
1, 9665, Note_on_c, 0, 75, 79
1, 9677, Note_on_c, 0, 60, 0
1, 9689, Note_on_c, 0, 63, 0
1, 9690, Note_on_c, 0, 75, 0
1, 9691, Note_on_c, 0, 68, 0
1, 9742, Note_on_c, 0, 73, 80
1, 9742, Note_on_c, 0, 61, 71
1, 9743, Note_on_c, 0, 65, 77
1, 9745, Note_on_c, 0, 58, 60
1, 9748, Control_c, 0, 64, 0
1, 9782, Control_c, 0, 64, 127
1, 9879, Note_on_c, 0, 65, 0
1, 9880, Note_on_c, 0, 58, 0
1, 9884, Note_on_c, 0, 61, 0
1, 9897, Note_on_c, 0, 73, 0
1, 9901, Note_on_c, 0, 61, 49
1, 9901, Note_on_c, 0, 72, 57
1, 9902, Note_on_c, 0, 65, 68
1, 9905, Control_c, 0, 64, 0
1, 9905, Note_on_c, 0, 57, 43
1, 9925, Control_c, 0, 64, 127
1, 9952, Note_on_c, 0, 72, 0
1, 9960, Note_on_c, 0, 57, 0
1, 9960, Note_on_c, 0, 65, 0
1, 9971, Note_on_c, 0, 61, 0
1, 9989, Note_on_c, 0, 61, 32
1, 9990, Note_on_c, 0, 70, 48
1, 9993, Note_on_c, 0, 48, 44
1, 9994, Note_on_c, 0, 64, 49
1, 9996, Note_on_c, 0, 58, 31
1, 9999, Control_c, 0, 64, 0
1, 10041, Control_c, 0, 64, 127
1, 10054, Note_on_c, 0, 64, 0
1, 10056, Note_on_c, 0, 61, 0
1, 10061, Note_on_c, 0, 72, 55
1, 10063, Note_on_c, 0, 58, 0
1, 10065, Note_on_c, 0, 55, 44
1, 10085, Note_on_c, 0, 72, 0
1, 10086, Note_on_c, 0, 70, 0
1, 10121, Note_on_c, 0, 58, 47
1, 10122, Note_on_c, 0, 73, 64
1, 10125, Note_on_c, 0, 64, 57
1, 10126, Note_on_c, 0, 68, 49
1, 10136, Note_on_c, 0, 55, 0
1, 10144, Note_on_c, 0, 58, 0
1, 10149, Note_on_c, 0, 48, 0
1, 10155, Note_on_c, 0, 73, 0
1, 10165, Note_on_c, 0, 64, 0
1, 10176, Note_on_c, 0, 68, 0
1, 10180, Note_on_c, 0, 75, 68
1, 10201, Note_on_c, 0, 75, 0
1, 10242, Control_c, 0, 64, 0
1, 10244, Note_on_c, 0, 72, 51
1, 10245, Note_on_c, 0, 67, 42
1, 10246, Note_on_c, 0, 62, 36
1, 10247, Note_on_c, 0, 41, 49
1, 10268, Note_on_c, 0, 62, 0
1, 10272, Control_c, 0, 64, 127
1, 10284, Note_on_c, 0, 67, 0
1, 10292, Note_on_c, 0, 72, 0
1, 10296, Note_on_c, 0, 48, 50
1, 10333, Note_on_c, 0, 41, 0
1, 10346, Note_on_c, 0, 48, 0
1, 10350, Note_on_c, 0, 57, 52
1, 10366, Note_on_c, 0, 57, 0
1, 10400, Note_on_c, 0, 60, 41
1, 10455, Note_on_c, 0, 60, 0
1, 10465, Note_on_c, 0, 64, 45
1, 10466, Note_on_c, 0, 79, 49
1, 10470, Note_on_c, 0, 74, 34
1, 10475, Note_on_c, 0, 69, 24
1, 10520, Note_on_c, 0, 79, 0
1, 10523, Note_on_c, 0, 74, 0
1, 10524, Note_on_c, 0, 69, 0
1, 10534, Note_on_c, 0, 64, 0
1, 10539, Note_on_c, 0, 62, 48
1, 10542, Note_on_c, 0, 77, 51
1, 10572, Note_on_c, 0, 77, 0
1, 10602, Note_on_c, 0, 62, 0
1, 10612, Note_on_c, 0, 76, 53
1, 10616, Note_on_c, 0, 67, 34
1, 10617, Note_on_c, 0, 60, 40
1, 10638, Note_on_c, 0, 76, 0
1, 10640, Note_on_c, 0, 67, 0
1, 10684, Note_on_c, 0, 60, 0
1, 10687, Note_on_c, 0, 72, 50
1, 10690, Note_on_c, 0, 57, 45
1, 10691, Note_on_c, 0, 67, 33
1, 10699, Note_on_c, 0, 57, 0
1, 10700, Note_on_c, 0, 67, 0
1, 10709, Note_on_c, 0, 72, 0
1, 10879, Note_on_c, 0, 71, 99
1, 10880, Note_on_c, 0, 63, 63
1, 10882, Note_on_c, 0, 59, 66
1, 10884, Note_on_c, 0, 56, 47
1, 10887, Note_on_c, 0, 71, 50
1, 10887, Note_on_c, 0, 63, 52
1, 10887, Note_on_c, 0, 53, 59
1, 10888, Note_on_c, 0, 68, 52
1, 10889, Note_on_c, 0, 56, 35
1, 10891, Note_on_c, 0, 59, 46
1, 10894, Control_c, 0, 64, 0
1, 10927, Note_on_c, 0, 71, 0
1, 10931, Note_on_c, 0, 59, 0
1, 10944, Note_on_c, 0, 63, 0
1, 10948, Note_on_c, 0, 68, 0
1, 10966, Note_on_c, 0, 71, 0
1, 10969, Note_on_c, 0, 73, 82
1, 11038, Note_on_c, 0, 73, 0
1, 11042, Note_on_c, 0, 56, 0
1, 11043, Note_on_c, 0, 71, 67
1, 11063, Control_c, 0, 64, 127
1, 11113, Note_on_c, 0, 71, 0
1, 11113, Note_on_c, 0, 73, 67
1, 11122, Note_on_c, 0, 63, 0
1, 11123, Note_on_c, 0, 59, 0
1, 11137, Note_on_c, 0, 53, 0
1, 11139, Note_on_c, 0, 56, 0
1, 11145, Note_on_c, 0, 73, 0
1, 11206, Control_c, 0, 64, 0
1, 11209, Note_on_c, 0, 70, 56
1, 11212, Note_on_c, 0, 46, 39
1, 11294, Note_on_c, 0, 53, 41
1, 11308, Note_on_c, 0, 70, 0
1, 11308, Control_c, 0, 64, 127
1, 11397, Note_on_c, 0, 67, 33
1, 11398, Note_on_c, 0, 62, 35
1, 11400, Note_on_c, 0, 64, 35
1, 11401, Note_on_c, 0, 59, 28
1, 11402, Note_on_c, 0, 56, 25
1, 11466, Note_on_c, 0, 59, 0
1, 11473, Note_on_c, 0, 62, 0
1, 11478, Note_on_c, 0, 64, 0
1, 11481, Note_on_c, 0, 67, 0
1, 11546, Note_on_c, 0, 56, 0
1, 11547, Note_on_c, 0, 53, 0
1, 11555, Note_on_c, 0, 77, 99
1, 11564, Note_on_c, 0, 46, 0
1, 11636, Note_on_c, 0, 77, 0
1, 11654, Note_on_c, 0, 75, 74
1, 11658, Note_on_c, 0, 67, 57
1, 11659, Note_on_c, 0, 72, 62
1, 11662, Note_on_c, 0, 44, 54
1, 11665, Control_c, 0, 64, 0
1, 11707, Control_c, 0, 64, 127
1, 11708, Note_on_c, 0, 72, 0
1, 11712, Note_on_c, 0, 51, 62
1, 11713, Note_on_c, 0, 75, 0
1, 11716, Note_on_c, 0, 67, 0
1, 11765, Note_on_c, 0, 44, 0
1, 11765, Note_on_c, 0, 63, 74
1, 11768, Note_on_c, 0, 55, 65
1, 11770, Note_on_c, 0, 51, 0
1, 11770, Note_on_c, 0, 60, 58
1, 11795, Note_on_c, 0, 55, 0
1, 11796, Note_on_c, 0, 60, 0
1, 11819, Note_on_c, 0, 58, 38
1, 11824, Note_on_c, 0, 70, 83
1, 11830, Note_on_c, 0, 63, 0
1, 11842, Note_on_c, 0, 70, 0
1, 11888, Note_on_c, 0, 75, 73
1, 11889, Note_on_c, 0, 70, 78
1, 11890, Note_on_c, 0, 60, 58
1, 11891, Note_on_c, 0, 67, 55
1, 11900, Note_on_c, 0, 67, 0
1, 11912, Note_on_c, 0, 70, 0
1, 11914, Note_on_c, 0, 75, 0
1, 11958, Note_on_c, 0, 80, 60
1, 11962, Note_on_c, 0, 63, 50
1, 11963, Note_on_c, 0, 70, 67
1, 11965, Note_on_c, 0, 75, 56
1, 11967, Note_on_c, 0, 60, 0
1, 11982, Note_on_c, 0, 70, 0
1, 11984, Note_on_c, 0, 75, 0
1, 11985, Note_on_c, 0, 80, 0
1, 12041, Note_on_c, 0, 63, 0
1, 12046, Note_on_c, 0, 82, 60
1, 12048, Note_on_c, 0, 75, 64
1, 12052, Note_on_c, 0, 60, 44
1, 12113, Note_on_c, 0, 75, 0
1, 12129, Note_on_c, 0, 82, 0
1, 12136, Note_on_c, 0, 63, 45
1, 12140, Note_on_c, 0, 79, 41
1, 12142, Note_on_c, 0, 75, 43
1, 12143, Note_on_c, 0, 70, 32
1, 12151, Note_on_c, 0, 60, 0
1, 12154, Note_on_c, 0, 63, 0
1, 12155, Note_on_c, 0, 79, 0
1, 12168, Note_on_c, 0, 58, 0
1, 12168, Note_on_c, 0, 75, 0
1, 12177, Note_on_c, 0, 70, 0
1, 12266, Note_on_c, 0, 70, 39
1, 12276, Note_on_c, 0, 44, 25
1, 12287, Control_c, 0, 64, 0
1, 12327, Control_c, 0, 64, 127
1, 12337, Note_on_c, 0, 51, 39
1, 12400, Note_on_c, 0, 44, 0
1, 12406, Note_on_c, 0, 51, 0
1, 12406, Note_on_c, 0, 67, 32
1, 12408, Note_on_c, 0, 63, 33
1, 12408, Note_on_c, 0, 55, 46
1, 12413, Note_on_c, 0, 60, 26
1, 12459, Note_on_c, 0, 70, 0
1, 12465, Note_on_c, 0, 55, 0
1, 12476, Note_on_c, 0, 60, 0
1, 12476, Note_on_c, 0, 58, 67
1, 12481, Note_on_c, 0, 67, 0
1, 12491, Note_on_c, 0, 63, 0
1, 12546, Note_on_c, 0, 60, 72
1, 12550, Note_on_c, 0, 68, 83
1, 12621, Note_on_c, 0, 68, 0
1, 12628, Note_on_c, 0, 63, 60
1, 12629, Note_on_c, 0, 68, 46
1, 12629, Note_on_c, 0, 70, 83
1, 12640, Note_on_c, 0, 68, 0
1, 12690, Note_on_c, 0, 70, 0
1, 12705, Note_on_c, 0, 72, 81
1, 12780, Note_on_c, 0, 73, 80
1, 12798, Note_on_c, 0, 72, 0
1, 12821, Note_on_c, 0, 73, 0
1, 12828, Note_on_c, 0, 74, 71
1, 12832, Note_on_c, 0, 73, 25
1, 12842, Note_on_c, 0, 73, 0
1, 12842, Note_on_c, 0, 60, 0
1, 12866, Note_on_c, 0, 74, 0
1, 12875, Note_on_c, 0, 76, 71
1, 12898, Note_on_c, 0, 63, 0
1, 12908, Note_on_c, 0, 58, 0
1, 12918, Note_on_c, 0, 76, 0
1, 12927, Note_on_c, 0, 59, 15
1, 12928, Note_on_c, 0, 75, 68
1, 12929, Note_on_c, 0, 68, 53
1, 12941, Control_c, 0, 64, 0
1, 12996, Note_on_c, 0, 68, 0
1, 12997, Note_on_c, 0, 59, 60
1, 12999, Control_c, 0, 64, 127
1, 13026, Note_on_c, 0, 75, 0
1, 13064, Note_on_c, 0, 68, 57
1, 13066, Note_on_c, 0, 63, 47
1, 13067, Note_on_c, 0, 71, 44
1, 13068, Note_on_c, 0, 64, 51
1, 13129, Note_on_c, 0, 68, 0
1, 13136, Note_on_c, 0, 71, 0
1, 13152, Note_on_c, 0, 64, 0
1, 13180, Note_on_c, 0, 63, 0
1, 13268, Note_on_c, 0, 71, 71
1, 13458, Note_on_c, 0, 59, 0
1, 13581, Note_on_c, 0, 63, 51
1, 13639, Note_on_c, 0, 71, 0
1, 13645, Note_on_c, 0, 66, 69
1, 13716, Note_on_c, 0, 73, 73
1, 13721, Note_on_c, 0, 59, 0
1, 13742, Note_on_c, 0, 66, 0
1, 13747, Note_on_c, 0, 63, 0
1, 13747, Note_on_c, 0, 73, 0
1, 13854, Note_on_c, 0, 63, 46
1, 13856, Note_on_c, 0, 71, 36
1, 13856, Note_on_c, 0, 59, 35
1, 13858, Note_on_c, 0, 67, 34
1, 13862, Note_on_c, 0, 37, 30
1, 13863, Control_c, 0, 64, 0
1, 13906, Note_on_c, 0, 37, 0
1, 13907, Control_c, 0, 64, 127
1, 13910, Note_on_c, 0, 44, 43
1, 13941, Note_on_c, 0, 44, 0
1, 13944, Note_on_c, 0, 59, 0
1, 13947, Note_on_c, 0, 67, 0
1, 13957, Note_on_c, 0, 53, 49
1, 13958, Note_on_c, 0, 63, 0
1, 13969, Note_on_c, 0, 71, 0
1, 14007, Note_on_c, 0, 56, 23
1, 14016, Note_on_c, 0, 53, 0
1, 14064, Note_on_c, 0, 59, 33
1, 14072, Note_on_c, 0, 82, 52
1, 14072, Note_on_c, 0, 75, 45
1, 14074, Note_on_c, 0, 71, 38
1, 14075, Note_on_c, 0, 79, 37
1, 14142, Note_on_c, 0, 59, 0
1, 14148, Note_on_c, 0, 63, 15
1, 14167, Note_on_c, 0, 79, 0
1, 14179, Note_on_c, 0, 75, 0
1, 14185, Note_on_c, 0, 71, 0
1, 14201, Note_on_c, 0, 82, 0
1, 14218, Note_on_c, 0, 80, 39
1, 14221, Note_on_c, 0, 71, 30
1, 14222, Note_on_c, 0, 75, 39
1, 14223, Note_on_c, 0, 63, 0
1, 14227, Note_on_c, 0, 59, 36
1, 14236, Note_on_c, 0, 56, 0
1, 14302, Note_on_c, 0, 71, 0
1, 14304, Note_on_c, 0, 56, 35
1, 14305, Note_on_c, 0, 59, 0
1, 14327, Note_on_c, 0, 56, 0
1, 14331, Note_on_c, 0, 75, 0
1, 14336, Note_on_c, 0, 80, 0
1, 14429, Note_on_c, 0, 85, 37
1, 14434, Note_on_c, 0, 42, 31
1, 14435, Note_on_c, 0, 70, 32
1, 14436, Note_on_c, 0, 49, 31
1, 14443, Control_c, 0, 64, 0
1, 14485, Control_c, 0, 64, 127
1, 14505, Note_on_c, 0, 85, 0
1, 14507, Note_on_c, 0, 54, 49
1, 14514, Note_on_c, 0, 42, 0
1, 14516, Note_on_c, 0, 49, 0
1, 14522, Note_on_c, 0, 70, 0
1, 14544, Note_on_c, 0, 54, 0
1, 14569, Note_on_c, 0, 58, 43
1, 14637, Note_on_c, 0, 58, 0
1, 14640, Note_on_c, 0, 73, 72
1, 14640, Note_on_c, 0, 63, 72
1, 14641, Note_on_c, 0, 61, 56
1, 14641, Note_on_c, 0, 68, 71
1, 14643, Note_on_c, 0, 70, 63
1, 14672, Note_on_c, 0, 63, 0
1, 14684, Note_on_c, 0, 68, 0
1, 14684, Note_on_c, 0, 73, 0
1, 14690, Note_on_c, 0, 70, 0
1, 14711, Note_on_c, 0, 61, 0
1, 14722, Note_on_c, 0, 75, 77
1, 14722, Note_on_c, 0, 70, 83
1, 14724, Note_on_c, 0, 63, 78
1, 14726, Note_on_c, 0, 68, 57
1, 14738, Control_c, 0, 64, 0
1, 14750, Note_on_c, 0, 68, 0
1, 14750, Control_c, 0, 64, 127
1, 14779, Note_on_c, 0, 75, 0
1, 14779, Note_on_c, 0, 70, 0
1, 14784, Note_on_c, 0, 63, 0
1, 14804, Note_on_c, 0, 73, 60
1, 14806, Note_on_c, 0, 61, 64
1, 14808, Note_on_c, 0, 68, 71
1, 14809, Note_on_c, 0, 70, 57
1, 14816, Control_c, 0, 64, 0
1, 14824, Control_c, 0, 64, 127
1, 14831, Note_on_c, 0, 61, 0
1, 14840, Note_on_c, 0, 70, 0
1, 14841, Note_on_c, 0, 73, 0
1, 14842, Note_on_c, 0, 68, 0
1, 14968, Note_on_c, 0, 49, 72
1, 15015, Note_on_c, 0, 49, 0
1, 15045, Note_on_c, 0, 49, 64
1, 15226, Note_on_c, 0, 49, 0
1, 15228, Note_on_c, 0, 42, 67
1, 15251, Control_c, 0, 64, 0
1, 15263, Control_c, 0, 64, 127
1, 15303, Control_c, 0, 64, 0
1, 15305, Note_on_c, 0, 49, 69
1, 15306, Note_on_c, 0, 61, 69
1, 15306, Note_on_c, 0, 56, 71
1, 15307, Note_on_c, 0, 51, 71
1, 15310, Note_on_c, 0, 58, 62
1, 15332, Note_on_c, 0, 51, 0
1, 15336, Control_c, 0, 64, 127
1, 15348, Note_on_c, 0, 56, 0
1, 15356, Note_on_c, 0, 61, 0
1, 15356, Note_on_c, 0, 58, 0
1, 15390, Note_on_c, 0, 63, 69
1, 15390, Note_on_c, 0, 51, 69
1, 15392, Control_c, 0, 64, 0
1, 15392, Note_on_c, 0, 58, 73
1, 15392, Note_on_c, 0, 54, 77
1, 15412, Note_on_c, 0, 54, 0
1, 15416, Control_c, 0, 64, 127
1, 15425, Note_on_c, 0, 49, 0
1, 15430, Note_on_c, 0, 58, 0
1, 15431, Note_on_c, 0, 63, 0
1, 15442, Note_on_c, 0, 51, 0
1, 15443, Note_on_c, 0, 49, 15
1, 15471, Note_on_c, 0, 65, 80
1, 15472, Note_on_c, 0, 58, 78
1, 15472, Note_on_c, 0, 53, 67
1, 15474, Note_on_c, 0, 56, 64
1, 15474, Note_on_c, 0, 61, 64
1, 15474, Control_c, 0, 64, 0
1, 15500, Control_c, 0, 64, 127
1, 15513, Note_on_c, 0, 65, 0
1, 15518, Note_on_c, 0, 58, 0
1, 15521, Note_on_c, 0, 61, 0
1, 15527, Note_on_c, 0, 56, 0
1, 15529, Note_on_c, 0, 53, 0
1, 15554, Note_on_c, 0, 49, 0
1, 15561, Note_on_c, 0, 66, 65
1, 15562, Note_on_c, 0, 58, 69
1, 15562, Note_on_c, 0, 61, 69
1, 15563, Control_c, 0, 64, 0
1, 15563, Note_on_c, 0, 54, 72
1, 15563, Note_on_c, 0, 63, 59
1, 15593, Control_c, 0, 64, 127
1, 15616, Note_on_c, 0, 66, 0
1, 15624, Note_on_c, 0, 54, 0
1, 15626, Note_on_c, 0, 61, 0
1, 15630, Note_on_c, 0, 58, 0
1, 15634, Note_on_c, 0, 42, 0
1, 15634, Note_on_c, 0, 49, 13
1, 15637, Note_on_c, 0, 63, 0
1, 15651, Note_on_c, 0, 68, 71
1, 15652, Note_on_c, 0, 58, 52
1, 15653, Note_on_c, 0, 63, 63
1, 15653, Note_on_c, 0, 61, 58
1, 15655, Note_on_c, 0, 56, 60
1, 15659, Control_c, 0, 64, 0
1, 15683, Control_c, 0, 64, 127
1, 15726, Note_on_c, 0, 61, 0
1, 15726, Note_on_c, 0, 49, 0
1, 15728, Note_on_c, 0, 58, 0
1, 15730, Note_on_c, 0, 63, 0
1, 15735, Note_on_c, 0, 68, 0
1, 15740, Note_on_c, 0, 56, 0
1, 15863, Note_on_c, 0, 58, 50
1, 15864, Note_on_c, 0, 70, 59
1, 15865, Note_on_c, 0, 61, 59
1, 15868, Note_on_c, 0, 66, 49
1, 15991, Note_on_c, 0, 70, 0
1, 15992, Note_on_c, 0, 61, 0
1, 15993, Note_on_c, 0, 66, 0
1, 15997, Note_on_c, 0, 58, 0
1, 16008, Note_on_c, 0, 71, 57
1, 16040, Note_on_c, 0, 71, 0
1, 16240, Note_on_c, 0, 41, 40
1, 16241, Note_on_c, 0, 68, 37
1, 16245, Note_on_c, 0, 63, 34
1, 16246, Note_on_c, 0, 60, 25
1, 16247, Control_c, 0, 64, 0
1, 16285, Control_c, 0, 64, 127
1, 16294, Note_on_c, 0, 41, 0
1, 16305, Note_on_c, 0, 53, 38
1, 16306, Note_on_c, 0, 60, 0
1, 16315, Note_on_c, 0, 63, 0
1, 16322, Note_on_c, 0, 68, 0
1, 16361, Note_on_c, 0, 56, 53
1, 16367, Note_on_c, 0, 53, 0
1, 16420, Note_on_c, 0, 79, 61
1, 16421, Note_on_c, 0, 60, 43
1, 16422, Note_on_c, 0, 68, 42
1, 16423, Note_on_c, 0, 72, 53
1, 16471, Note_on_c, 0, 68, 0
1, 16472, Note_on_c, 0, 72, 0
1, 16474, Note_on_c, 0, 79, 0
1, 16492, Note_on_c, 0, 63, 48
1, 16492, Note_on_c, 0, 77, 42
1, 16493, Note_on_c, 0, 68, 42
1, 16498, Note_on_c, 0, 72, 26
1, 16502, Note_on_c, 0, 77, 0
1, 16502, Note_on_c, 0, 60, 0
1, 16506, Note_on_c, 0, 72, 0
1, 16512, Note_on_c, 0, 68, 0
1, 16517, Note_on_c, 0, 63, 0
1, 16577, Note_on_c, 0, 70, 49
1, 16578, Note_on_c, 0, 58, 35
1, 16578, Note_on_c, 0, 67, 48
1, 16578, Note_on_c, 0, 63, 46
1, 16580, Note_on_c, 0, 60, 32
1, 16649, Note_on_c, 0, 70, 0
1, 16672, Note_on_c, 0, 70, 55
1, 16711, Note_on_c, 0, 70, 0
1, 16738, Note_on_c, 0, 60, 0
1, 16762, Note_on_c, 0, 58, 0
1, 16765, Note_on_c, 0, 70, 51
1, 16774, Note_on_c, 0, 56, 0
1, 16776, Note_on_c, 0, 67, 0
1, 16793, Note_on_c, 0, 63, 0
1, 16794, Note_on_c, 0, 70, 0
1, 16886, Note_on_c, 0, 67, 39
1, 16889, Note_on_c, 0, 62, 42
1, 16891, Note_on_c, 0, 34, 37
1, 16892, Note_on_c, 0, 64, 38
1, 16892, Control_c, 0, 64, 0
1, 16894, Note_on_c, 0, 59, 32
1, 16898, Note_on_c, 0, 46, 19
1, 16922, Control_c, 0, 64, 127
1, 16928, Note_on_c, 0, 59, 0
1, 16937, Note_on_c, 0, 62, 0
1, 16938, Note_on_c, 0, 64, 0
1, 16939, Note_on_c, 0, 34, 0
1, 16943, Note_on_c, 0, 67, 0
1, 16952, Note_on_c, 0, 46, 0
1, 17002, Note_on_c, 0, 79, 57
1, 17043, Note_on_c, 0, 79, 0
1, 17097, Note_on_c, 0, 79, 69
1, 17102, Note_on_c, 0, 76, 71
1, 17110, Note_on_c, 0, 74, 57
1, 17118, Note_on_c, 0, 68, 36
1, 17120, Note_on_c, 0, 70, 43
1, 17127, Note_on_c, 0, 71, 43
1, 17156, Note_on_c, 0, 76, 0
1, 17170, Note_on_c, 0, 71, 0
1, 17171, Note_on_c, 0, 74, 0
1, 17179, Note_on_c, 0, 68, 0
1, 17181, Note_on_c, 0, 70, 0
1, 17181, Note_on_c, 0, 79, 0
1, 17230, Note_on_c, 0, 91, 62
1, 17299, Note_on_c, 0, 91, 0
1, 17385, Note_on_c, 0, 91, 47
1, 17392, Note_on_c, 0, 86, 50
1, 17398, Note_on_c, 0, 80, 33
1, 17400, Note_on_c, 0, 82, 34
1, 17405, Note_on_c, 0, 83, 25
1, 17482, Note_on_c, 0, 82, 0
1, 17486, Note_on_c, 0, 80, 0
1, 17709, Note_on_c, 0, 22, 35
1, 17794, Note_on_c, 0, 22, 0
1, 17844, Note_on_c, 0, 91, 0
1, 17847, Note_on_c, 0, 86, 0
1, 17855, Note_on_c, 0, 83, 0
1, 18045, Note_on_c, 0, 65, 45
1, 18094, Note_on_c, 0, 65, 0
1, 18205, Note_on_c, 0, 47, 71
1, 18206, Note_on_c, 0, 65, 87
1, 18206, Note_on_c, 0, 57, 89
1, 18206, Note_on_c, 0, 39, 62
1, 18206, Note_on_c, 0, 62, 74
1, 18206, Note_on_c, 0, 54, 90
1, 18223, Control_c, 0, 64, 0
1, 18251, Control_c, 0, 64, 127
1, 18286, Note_on_c, 0, 57, 0
1, 18290, Note_on_c, 0, 62, 0
1, 18312, Note_on_c, 0, 65, 0
1, 18331, Note_on_c, 0, 54, 0
1, 18360, Note_on_c, 0, 63, 50
1, 18360, Note_on_c, 0, 55, 64
1, 18361, Note_on_c, 0, 47, 0
1, 18361, Note_on_c, 0, 58, 50
1, 18362, Note_on_c, 0, 60, 65
1, 18362, Note_on_c, 0, 48, 72
1, 18374, Control_c, 0, 64, 0
1, 18446, Control_c, 0, 64, 127
1, 18468, Note_on_c, 0, 39, 0
1, 18477, Note_on_c, 0, 60, 0
1, 18478, Note_on_c, 0, 55, 0
1, 18478, Note_on_c, 0, 48, 0
1, 18486, Note_on_c, 0, 58, 0
1, 18494, Note_on_c, 0, 63, 0
1, 18552, Note_on_c, 0, 63, 46
1, 18554, Note_on_c, 0, 46, 38
1, 18555, Note_on_c, 0, 53, 40
1, 18555, Note_on_c, 0, 56, 30
1, 18557, Note_on_c, 0, 60, 48
1, 18562, Control_c, 0, 64, 0
1, 18610, Control_c, 0, 64, 127
1, 18626, Note_on_c, 0, 56, 0
1, 18637, Note_on_c, 0, 60, 0
1, 18646, Note_on_c, 0, 63, 0
1, 18665, Note_on_c, 0, 63, 57
1, 18667, Note_on_c, 0, 56, 35
1, 18668, Note_on_c, 0, 60, 74
1, 18717, Note_on_c, 0, 63, 0
1, 18719, Note_on_c, 0, 60, 0
1, 18734, Note_on_c, 0, 65, 76
1, 18760, Note_on_c, 0, 46, 0
1, 18771, Note_on_c, 0, 65, 0
1, 18790, Note_on_c, 0, 56, 0
1, 18816, Note_on_c, 0, 67, 49
1, 18818, Note_on_c, 0, 62, 66
1, 18821, Note_on_c, 0, 53, 0
1, 18821, Control_c, 0, 64, 0
1, 18821, Note_on_c, 0, 64, 41
1, 18822, Note_on_c, 0, 46, 36
1, 18823, Note_on_c, 0, 56, 34
1, 18824, Note_on_c, 0, 59, 57
1, 18857, Control_c, 0, 64, 127
1, 18870, Note_on_c, 0, 67, 0
1, 18872, Note_on_c, 0, 64, 0
1, 18884, Note_on_c, 0, 62, 0
1, 18890, Note_on_c, 0, 59, 0
1, 18907, Note_on_c, 0, 70, 67
1, 18916, Note_on_c, 0, 53, 33
1, 18919, Note_on_c, 0, 56, 0
1, 18944, Note_on_c, 0, 70, 0
1, 18994, Note_on_c, 0, 67, 54
1, 18996, Note_on_c, 0, 56, 34
1, 19020, Note_on_c, 0, 67, 0
1, 19049, Note_on_c, 0, 56, 0
1, 19051, Note_on_c, 0, 53, 0
1, 19068, Note_on_c, 0, 46, 0
1, 19070, Note_on_c, 0, 70, 52
1, 19077, Note_on_c, 0, 70, 0
1, 19159, Note_on_c, 0, 39, 36
1, 19160, Note_on_c, 0, 65, 58
1, 19161, Note_on_c, 0, 47, 33
1, 19162, Note_on_c, 0, 62, 42
1, 19162, Note_on_c, 0, 57, 60
1, 19168, Note_on_c, 0, 54, 23
1, 19174, Control_c, 0, 64, 0
1, 19208, Control_c, 0, 64, 127
1, 19228, Note_on_c, 0, 57, 0
1, 19228, Note_on_c, 0, 62, 0
1, 19247, Note_on_c, 0, 65, 0
1, 19252, Note_on_c, 0, 54, 0
1, 19288, Note_on_c, 0, 47, 0
1, 19293, Note_on_c, 0, 63, 38
1, 19294, Note_on_c, 0, 55, 39
1, 19298, Note_on_c, 0, 58, 35
1, 19300, Note_on_c, 0, 60, 40
1, 19302, Note_on_c, 0, 48, 32
1, 19304, Control_c, 0, 64, 0
1, 19360, Control_c, 0, 64, 127
1, 19448, Note_on_c, 0, 48, 0
1, 19459, Note_on_c, 0, 55, 0
1, 19463, Note_on_c, 0, 60, 0
1, 19469, Note_on_c, 0, 39, 0
1, 19472, Note_on_c, 0, 58, 0
1, 19480, Note_on_c, 0, 63, 0
1, 19542, Note_on_c, 0, 39, 32
1, 19544, Note_on_c, 0, 63, 43
1, 19545, Note_on_c, 0, 54, 34
1, 19546, Note_on_c, 0, 58, 37
1, 19557, Control_c, 0, 64, 0
1, 19583, Control_c, 0, 64, 127
1, 19603, Note_on_c, 0, 58, 0
1, 19609, Note_on_c, 0, 54, 0
1, 19612, Note_on_c, 0, 63, 0
1, 19615, Note_on_c, 0, 46, 40
1, 19668, Note_on_c, 0, 39, 0
1, 19680, Note_on_c, 0, 54, 51
1, 19684, Note_on_c, 0, 46, 0
1, 19694, Note_on_c, 0, 54, 0
1, 19769, Note_on_c, 0, 61, 43
1, 19770, Note_on_c, 0, 65, 37
1, 19774, Note_on_c, 0, 58, 30
1, 19775, Note_on_c, 0, 54, 30
1, 19836, Note_on_c, 0, 75, 84
1, 19879, Note_on_c, 0, 75, 0
1, 19883, Note_on_c, 0, 65, 0
1, 19889, Note_on_c, 0, 77, 75
1, 19899, Note_on_c, 0, 61, 0
1, 19904, Note_on_c, 0, 58, 0
1, 19909, Note_on_c, 0, 54, 0
1, 19928, Note_on_c, 0, 77, 0
1, 19943, Note_on_c, 0, 78, 83
1, 19982, Note_on_c, 0, 78, 0
1, 19992, Note_on_c, 0, 44, 69
1, 19999, Note_on_c, 0, 80, 85
1, 20004, Control_c, 0, 64, 0
1, 20036, Control_c, 0, 64, 127
1, 20046, Note_on_c, 0, 80, 0
1, 20051, Note_on_c, 0, 44, 0
1, 20056, Note_on_c, 0, 82, 82
1, 20102, Note_on_c, 0, 82, 0
1, 20125, Note_on_c, 0, 65, 50
1, 20127, Note_on_c, 0, 84, 60
1, 20128, Note_on_c, 0, 60, 41
1, 20128, Note_on_c, 0, 58, 37
1, 20130, Note_on_c, 0, 54, 40
1, 20167, Note_on_c, 0, 84, 0
1, 20212, Note_on_c, 0, 87, 67
1, 20299, Note_on_c, 0, 65, 0
1, 20308, Note_on_c, 0, 60, 0
1, 20316, Note_on_c, 0, 87, 0
1, 20319, Note_on_c, 0, 58, 0
1, 20323, Note_on_c, 0, 54, 0
1, 20640, Note_on_c, 0, 82, 55
1, 20646, Note_on_c, 0, 79, 44
1, 20647, Note_on_c, 0, 75, 38
1, 20649, Note_on_c, 0, 49, 44
1, 20649, Note_on_c, 0, 70, 26
1, 20656, Control_c, 0, 64, 0
1, 20692, Control_c, 0, 64, 127
1, 20705, Note_on_c, 0, 79, 0
1, 20714, Note_on_c, 0, 75, 0
1, 20714, Note_on_c, 0, 56, 40
1, 20719, Note_on_c, 0, 82, 0
1, 20728, Note_on_c, 0, 70, 0
1, 20768, Note_on_c, 0, 49, 0
1, 20777, Note_on_c, 0, 80, 58
1, 20780, Note_on_c, 0, 56, 0
1, 20780, Note_on_c, 0, 60, 46
1, 20785, Note_on_c, 0, 75, 34
1, 20788, Note_on_c, 0, 72, 27
1, 20810, Note_on_c, 0, 68, 1
1, 20842, Note_on_c, 0, 72, 0
1, 20845, Note_on_c, 0, 63, 57
1, 20848, Note_on_c, 0, 75, 0
1, 20849, Note_on_c, 0, 80, 0
1, 20849, Note_on_c, 0, 60, 0
1, 20854, Note_on_c, 0, 68, 0
1, 20917, Note_on_c, 0, 68, 60
1, 20920, Note_on_c, 0, 65, 51
1, 20921, Note_on_c, 0, 72, 41
1, 20959, Note_on_c, 0, 68, 0
1, 20993, Note_on_c, 0, 65, 0
1, 20993, Note_on_c, 0, 68, 67
1, 20995, Note_on_c, 0, 72, 0
1, 21054, Note_on_c, 0, 68, 0
1, 21065, Note_on_c, 0, 63, 0
1, 21076, Note_on_c, 0, 65, 66
1, 21088, Note_on_c, 0, 65, 0
1, 21146, Note_on_c, 0, 44, 46
1, 21208, Note_on_c, 0, 44, 0
1, 21246, Note_on_c, 0, 43, 52
1, 21248, Note_on_c, 0, 60, 49
1, 21250, Note_on_c, 0, 58, 21
1, 21254, Control_c, 0, 64, 0
1, 21290, Control_c, 0, 64, 127
1, 21296, Note_on_c, 0, 58, 0
1, 21305, Note_on_c, 0, 60, 0
1, 21335, Note_on_c, 0, 43, 0
1, 21336, Note_on_c, 0, 55, 64
1, 21356, Note_on_c, 0, 55, 0
1, 21440, Note_on_c, 0, 73, 80
1, 21440, Note_on_c, 0, 69, 87
1, 21442, Note_on_c, 0, 58, 64
1, 21442, Note_on_c, 0, 64, 80
1, 21456, Control_c, 0, 64, 0
1, 21484, Control_c, 0, 64, 127
1, 21522, Note_on_c, 0, 64, 0
1, 21530, Note_on_c, 0, 69, 0
1, 21534, Note_on_c, 0, 73, 0
1, 21550, Note_on_c, 0, 58, 0
1, 21565, Note_on_c, 0, 63, 67
1, 21567, Note_on_c, 0, 68, 64
1, 21568, Note_on_c, 0, 72, 62
1, 21571, Note_on_c, 0, 57, 47
1, 21580, Control_c, 0, 64, 0
1, 21598, Control_c, 0, 64, 127
1, 21599, Note_on_c, 0, 57, 0
1, 21616, Note_on_c, 0, 72, 0
1, 21627, Note_on_c, 0, 68, 0
1, 21642, Note_on_c, 0, 63, 0
1, 21664, Note_on_c, 0, 70, 58
1, 21664, Note_on_c, 0, 62, 50
1, 21665, Note_on_c, 0, 67, 46
1, 21666, Note_on_c, 0, 48, 48
1, 21666, Note_on_c, 0, 58, 46
1, 21677, Control_c, 0, 64, 0
1, 21703, Control_c, 0, 64, 127
1, 21734, Note_on_c, 0, 70, 0
1, 21735, Note_on_c, 0, 62, 0
1, 21740, Note_on_c, 0, 72, 70
1, 21742, Note_on_c, 0, 58, 0
1, 21743, Note_on_c, 0, 55, 60
1, 21746, Note_on_c, 0, 70, 32
1, 21749, Note_on_c, 0, 48, 0
1, 21762, Note_on_c, 0, 67, 0
1, 21766, Note_on_c, 0, 55, 0
1, 21771, Note_on_c, 0, 72, 0
1, 21790, Note_on_c, 0, 70, 0
1, 21816, Note_on_c, 0, 73, 67
1, 21819, Note_on_c, 0, 68, 65
1, 21820, Note_on_c, 0, 70, 57
1, 21820, Note_on_c, 0, 64, 64
1, 21822, Note_on_c, 0, 60, 29
1, 21858, Note_on_c, 0, 73, 0
1, 21871, Note_on_c, 0, 64, 0
1, 21873, Note_on_c, 0, 60, 0
1, 21874, Note_on_c, 0, 70, 0
1, 21883, Note_on_c, 0, 75, 72
1, 21884, Note_on_c, 0, 63, 56
1, 21893, Note_on_c, 0, 70, 33
1, 21905, Note_on_c, 0, 63, 0
1, 21908, Note_on_c, 0, 75, 0
1, 21918, Note_on_c, 0, 70, 0
1, 21923, Note_on_c, 0, 68, 0
1, 21982, Note_on_c, 0, 67, 61
1, 21982, Note_on_c, 0, 72, 67
1, 21983, Note_on_c, 0, 62, 61
1, 21984, Note_on_c, 0, 57, 38
1, 21990, Control_c, 0, 64, 0
1, 22018, Control_c, 0, 64, 127
1, 22036, Note_on_c, 0, 67, 0
1, 22038, Note_on_c, 0, 62, 0
1, 22045, Note_on_c, 0, 72, 0
1, 22061, Note_on_c, 0, 71, 28
1, 22063, Note_on_c, 0, 57, 0
1, 22064, Control_c, 0, 64, 0
1, 22064, Note_on_c, 0, 66, 57
1, 22066, Note_on_c, 0, 61, 40
1, 22068, Note_on_c, 0, 56, 38
1, 22098, Control_c, 0, 64, 127
1, 22116, Note_on_c, 0, 66, 0
1, 22123, Note_on_c, 0, 71, 0
1, 22124, Note_on_c, 0, 61, 0
1, 22132, Control_c, 0, 64, 0
1, 22137, Note_on_c, 0, 56, 0
1, 22140, Note_on_c, 0, 72, 53
1, 22141, Note_on_c, 0, 57, 50
1, 22144, Note_on_c, 0, 67, 48
1, 22146, Note_on_c, 0, 62, 45
1, 22152, Control_c, 0, 64, 127
1, 22167, Note_on_c, 0, 67, 0
1, 22168, Note_on_c, 0, 72, 0
1, 22171, Note_on_c, 0, 57, 0
1, 22192, Note_on_c, 0, 62, 0
1, 22235, Note_on_c, 0, 48, 59
1, 22312, Note_on_c, 0, 48, 0
1, 22327, Note_on_c, 0, 48, 80
1, 22410, Note_on_c, 0, 41, 73
1, 22411, Control_c, 0, 64, 0
1, 22428, Note_on_c, 0, 48, 0
1, 22429, Control_c, 0, 64, 127
1, 22472, Note_on_c, 0, 41, 0
1, 22499, Note_on_c, 0, 41, 74
1, 22581, Note_on_c, 0, 48, 68
1, 22584, Note_on_c, 0, 41, 0
1, 22594, Note_on_c, 0, 48, 0
1, 22667, Note_on_c, 0, 71, 69
1, 22667, Note_on_c, 0, 68, 71
1, 22667, Note_on_c, 0, 63, 82
1, 22669, Note_on_c, 0, 58, 74
1, 22669, Note_on_c, 0, 59, 76
1, 22676, Control_c, 0, 64, 0
1, 22708, Control_c, 0, 64, 127
1, 22719, Note_on_c, 0, 71, 0
1, 22722, Note_on_c, 0, 59, 0
1, 22739, Note_on_c, 0, 63, 0
1, 22740, Note_on_c, 0, 68, 0
1, 22754, Note_on_c, 0, 73, 76
1, 22801, Note_on_c, 0, 73, 0
1, 22830, Note_on_c, 0, 71, 51
1, 22897, Note_on_c, 0, 71, 0
1, 22902, Note_on_c, 0, 58, 0
1, 22913, Note_on_c, 0, 73, 55
1, 22936, Note_on_c, 0, 73, 0
1, 23051, Note_on_c, 0, 70, 46
1, 23053, Note_on_c, 0, 62, 40
1, 23055, Note_on_c, 0, 46, 36
1, 23056, Note_on_c, 0, 56, 32
1, 23056, Note_on_c, 0, 65, 53
1, 23065, Control_c, 0, 64, 0
1, 23113, Control_c, 0, 64, 127
1, 23135, Note_on_c, 0, 65, 0
1, 23141, Note_on_c, 0, 53, 51
1, 23144, Note_on_c, 0, 70, 0
1, 23146, Note_on_c, 0, 56, 0
1, 23148, Note_on_c, 0, 62, 0
1, 23263, Note_on_c, 0, 46, 0
1, 23300, Note_on_c, 0, 46, 55
1, 23307, Note_on_c, 0, 53, 0
1, 23326, Note_on_c, 0, 46, 0
1, 23385, Note_on_c, 0, 70, 79
1, 23390, Note_on_c, 0, 39, 65
1, 23404, Control_c, 0, 64, 0
1, 23438, Control_c, 0, 64, 127
1, 23442, Note_on_c, 0, 46, 65
1, 23449, Note_on_c, 0, 39, 0
1, 23502, Note_on_c, 0, 55, 71
1, 23561, Note_on_c, 0, 70, 0
1, 23567, Note_on_c, 0, 67, 54
1, 23569, Note_on_c, 0, 62, 51
1, 23617, Note_on_c, 0, 67, 0
1, 23619, Note_on_c, 0, 62, 0
1, 23622, Note_on_c, 0, 55, 0
1, 23646, Note_on_c, 0, 67, 40
1, 23647, Note_on_c, 0, 62, 51
1, 23653, Note_on_c, 0, 55, 38
1, 23668, Note_on_c, 0, 46, 0
1, 23719, Note_on_c, 0, 55, 0
1, 23726, Note_on_c, 0, 46, 38
1, 23732, Note_on_c, 0, 67, 0
1, 23734, Note_on_c, 0, 62, 0
1, 23740, Note_on_c, 0, 46, 0
1, 23828, Note_on_c, 0, 70, 45
1, 23831, Note_on_c, 0, 65, 58
1, 23834, Note_on_c, 0, 60, 44
1, 23834, Note_on_c, 0, 50, 37
1, 23845, Control_c, 0, 64, 0
1, 23891, Control_c, 0, 64, 127
1, 23909, Note_on_c, 0, 38, 49
1, 23923, Note_on_c, 0, 38, 0
1, 23925, Note_on_c, 0, 50, 0
1, 23927, Note_on_c, 0, 65, 0
1, 23932, Note_on_c, 0, 60, 0
1, 23949, Note_on_c, 0, 70, 0
1, 24008, Note_on_c, 0, 68, 40
1, 24008, Note_on_c, 0, 59, 37
1, 24008, Note_on_c, 0, 63, 43
1, 24012, Note_on_c, 0, 37, 44
1, 24020, Control_c, 0, 64, 0
1, 24062, Control_c, 0, 64, 127
1, 24068, Note_on_c, 0, 44, 64
1, 24071, Note_on_c, 0, 37, 0
1, 24101, Note_on_c, 0, 46, 19
1, 24116, Note_on_c, 0, 46, 0
1, 24126, Note_on_c, 0, 44, 0
1, 24129, Note_on_c, 0, 53, 68
1, 24166, Note_on_c, 0, 53, 0
1, 24173, Note_on_c, 0, 59, 0
1, 24184, Note_on_c, 0, 63, 0
1, 24192, Note_on_c, 0, 56, 71
1, 24231, Note_on_c, 0, 68, 0
1, 24262, Note_on_c, 0, 56, 0
1, 24268, Note_on_c, 0, 58, 57
1, 24268, Note_on_c, 0, 64, 66
1, 24269, Note_on_c, 0, 67, 59
1, 24290, Control_c, 0, 64, 0
1, 24336, Control_c, 0, 64, 127
1, 24351, Note_on_c, 0, 48, 62
1, 24360, Note_on_c, 0, 48, 0
1, 24440, Note_on_c, 0, 36, 63
1, 24540, Note_on_c, 0, 24, 60
1, 24543, Note_on_c, 0, 36, 0
1, 24556, Note_on_c, 0, 24, 0
1, 24562, Note_on_c, 0, 64, 0
1, 24566, Note_on_c, 0, 67, 0
1, 24592, Note_on_c, 0, 58, 0
1, 24674, Note_on_c, 0, 60, 81
1, 24674, Note_on_c, 0, 56, 83
1, 24676, Note_on_c, 0, 41, 63
1, 24677, Note_on_c, 0, 51, 71
1, 24678, Note_on_c, 0, 55, 81
1, 24693, Control_c, 0, 64, 0
1, 24744, Control_c, 0, 64, 127
1, 24822, Note_on_c, 0, 41, 0
1, 24841, Note_on_c, 0, 51, 0
1, 24842, Note_on_c, 0, 55, 0
1, 24848, Note_on_c, 0, 60, 0
1, 24849, Note_on_c, 0, 56, 0
1, 24923, Note_on_c, 0, 56, 82
1, 24924, Note_on_c, 0, 65, 81
1, 24924, Note_on_c, 0, 60, 84
1, 24925, Note_on_c, 0, 51, 69
1, 24926, Note_on_c, 0, 63, 67
1, 24958, Note_on_c, 0, 65, 0
1, 24960, Note_on_c, 0, 56, 0
1, 24960, Note_on_c, 0, 60, 0
1, 24966, Note_on_c, 0, 63, 0
1, 25020, Note_on_c, 0, 68, 74
1, 25020, Note_on_c, 0, 63, 77
1, 25022, Note_on_c, 0, 53, 71
1, 25023, Note_on_c, 0, 51, 0
1, 25023, Note_on_c, 0, 60, 77
1, 25023, Note_on_c, 0, 65, 71
1, 25039, Note_on_c, 0, 60, 0
1, 25049, Note_on_c, 0, 65, 0
1, 25052, Note_on_c, 0, 68, 0
1, 25055, Note_on_c, 0, 63, 0
1, 25120, Note_on_c, 0, 68, 75
1, 25121, Note_on_c, 0, 63, 82
1, 25121, Note_on_c, 0, 72, 76
1, 25123, Note_on_c, 0, 56, 58
1, 25129, Note_on_c, 0, 53, 0
1, 25176, Note_on_c, 0, 72, 0
1, 25176, Note_on_c, 0, 56, 0
1, 25177, Note_on_c, 0, 63, 0
1, 25180, Note_on_c, 0, 68, 0
1, 25259, Note_on_c, 0, 75, 75
1, 25262, Note_on_c, 0, 68, 71
1, 25264, Note_on_c, 0, 65, 75
1, 25264, Note_on_c, 0, 72, 66
1, 25265, Note_on_c, 0, 63, 72
1, 25281, Control_c, 0, 64, 0
1, 25289, Control_c, 0, 64, 127
1, 25374, Note_on_c, 0, 75, 0
1, 25413, Note_on_c, 0, 75, 64
1, 25425, Note_on_c, 0, 63, 0
1, 25477, Note_on_c, 0, 72, 0
1, 25487, Note_on_c, 0, 65, 0
1, 25509, Note_on_c, 0, 75, 0
1, 25515, Note_on_c, 0, 68, 0
1, 25623, Note_on_c, 0, 75, 47
1, 25624, Note_on_c, 0, 68, 45
1, 25624, Note_on_c, 0, 71, 43
1, 25625, Note_on_c, 0, 64, 47
1, 25626, Note_on_c, 0, 56, 43
1, 25627, Note_on_c, 0, 46, 39
1, 25634, Control_c, 0, 64, 0
1, 25666, Control_c, 0, 64, 127
1, 25707, Note_on_c, 0, 56, 0
1, 25726, Note_on_c, 0, 46, 0
1, 25749, Note_on_c, 0, 75, 0
1, 25776, Note_on_c, 0, 75, 49
1, 25862, Note_on_c, 0, 75, 0
1, 25929, Note_on_c, 0, 22, 30
1, 25930, Note_on_c, 0, 75, 36
1, 25956, Note_on_c, 0, 22, 0
1, 26049, Note_on_c, 0, 75, 0
1, 26096, Note_on_c, 0, 75, 37
1, 26124, Note_on_c, 0, 71, 0
1, 26125, Note_on_c, 0, 64, 0
1, 26146, Note_on_c, 0, 68, 0
1, 26159, Note_on_c, 0, 75, 0
1, 26238, Control_c, 0, 64, 0
1, 26238, Note_on_c, 0, 70, 45
1, 26240, Note_on_c, 0, 77, 50
1, 26241, Note_on_c, 0, 39, 36
1, 26244, Note_on_c, 0, 46, 28
1, 26264, Control_c, 0, 64, 127
1, 26277, Note_on_c, 0, 39, 0
1, 26284, Note_on_c, 0, 46, 0
1, 26372, Note_on_c, 0, 65, 37
1, 26374, Note_on_c, 0, 58, 35
1, 26380, Note_on_c, 0, 60, 24
1, 26387, Note_on_c, 0, 70, 0
1, 26390, Note_on_c, 0, 65, 0
1, 26391, Note_on_c, 0, 60, 0
1, 26406, Note_on_c, 0, 58, 0
1, 26448, Note_on_c, 0, 77, 0
1, 26462, Note_on_c, 0, 75, 46
1, 26468, Note_on_c, 0, 67, 29
1, 26468, Note_on_c, 0, 70, 47
1, 26508, Note_on_c, 0, 75, 0
1, 26508, Note_on_c, 0, 55, 45
1, 26511, Note_on_c, 0, 70, 0
1, 26518, Note_on_c, 0, 67, 0
1, 26536, Note_on_c, 0, 55, 0
1, 26601, Note_on_c, 0, 46, 35
1, 26624, Note_on_c, 0, 46, 0
1, 26645, Note_on_c, 0, 63, 49
1, 26646, Note_on_c, 0, 58, 47
1, 26647, Note_on_c, 0, 46, 39
1, 26647, Note_on_c, 0, 55, 42
1, 26657, Control_c, 0, 64, 0
1, 26683, Control_c, 0, 64, 127
1, 26702, Note_on_c, 0, 55, 0
1, 26710, Note_on_c, 0, 58, 0
1, 26730, Note_on_c, 0, 46, 0
1, 26738, Note_on_c, 0, 63, 0
1, 26779, Control_c, 0, 64, 0
1, 26783, Note_on_c, 0, 60, 36
1, 26784, Note_on_c, 0, 56, 33
1, 26784, Note_on_c, 0, 53, 39
1, 26786, Note_on_c, 0, 41, 33
1, 26788, Note_on_c, 0, 51, 18
1, 26805, Control_c, 0, 64, 127
1, 26808, Note_on_c, 0, 41, 0
1, 26808, Note_on_c, 0, 53, 0
1, 26825, Note_on_c, 0, 51, 0
1, 26826, Note_on_c, 0, 60, 0
1, 26832, Note_on_c, 0, 56, 0
1, 26918, Note_on_c, 0, 60, 40
1, 26919, Note_on_c, 0, 63, 36
1, 26921, Note_on_c, 0, 56, 33
1, 26924, Control_c, 0, 64, 0
1, 26924, Note_on_c, 0, 53, 27
1, 26958, Control_c, 0, 64, 127
1, 26961, Note_on_c, 0, 75, 62
1, 26969, Note_on_c, 0, 53, 0
1, 26976, Note_on_c, 0, 60, 0
1, 26984, Note_on_c, 0, 75, 0
1, 26990, Note_on_c, 0, 56, 0
1, 26997, Note_on_c, 0, 77, 77
1, 27004, Note_on_c, 0, 63, 0
1, 27031, Note_on_c, 0, 77, 0
1, 27041, Note_on_c, 0, 79, 69
1, 27043, Note_on_c, 0, 74, 60
1, 27044, Note_on_c, 0, 71, 65
1, 27044, Note_on_c, 0, 62, 54
1, 27047, Note_on_c, 0, 66, 40
1, 27048, Control_c, 0, 64, 0
1, 27048, Note_on_c, 0, 56, 36
1, 27067, Note_on_c, 0, 71, 0
1, 27073, Note_on_c, 0, 79, 0
1, 27075, Note_on_c, 0, 74, 0
1, 27076, Control_c, 0, 64, 127
1, 27094, Note_on_c, 0, 82, 73
1, 27142, Note_on_c, 0, 66, 0
1, 27143, Note_on_c, 0, 62, 0
1, 27170, Note_on_c, 0, 82, 0
1, 27181, Note_on_c, 0, 79, 58
1, 27181, Note_on_c, 0, 66, 40
1, 27182, Note_on_c, 0, 62, 38
1, 27214, Note_on_c, 0, 79, 0
1, 27226, Note_on_c, 0, 82, 60
1, 27231, Note_on_c, 0, 62, 0
1, 27232, Note_on_c, 0, 66, 0
1, 27246, Note_on_c, 0, 82, 0
1, 27258, Note_on_c, 0, 56, 0
1, 27324, Note_on_c, 0, 77, 72
1, 27326, Note_on_c, 0, 74, 65
1, 27328, Note_on_c, 0, 70, 78
1, 27329, Control_c, 0, 64, 0
1, 27332, Note_on_c, 0, 76, 34
1, 27333, Note_on_c, 0, 65, 44
1, 27333, Note_on_c, 0, 67, 63
1, 27340, Note_on_c, 0, 65, 0
1, 27355, Control_c, 0, 64, 127
1, 27382, Note_on_c, 0, 74, 0
1, 27386, Note_on_c, 0, 76, 0
1, 27386, Note_on_c, 0, 77, 0
1, 27395, Note_on_c, 0, 70, 0
1, 27400, Note_on_c, 0, 67, 0
1, 27407, Note_on_c, 0, 46, 48
1, 27407, Note_on_c, 0, 39, 39
1, 27464, Note_on_c, 0, 46, 0
1, 27474, Note_on_c, 0, 58, 55
1, 27474, Note_on_c, 0, 47, 51
1, 27477, Note_on_c, 0, 62, 57
1, 27482, Note_on_c, 0, 54, 45
1, 27491, Control_c, 0, 64, 0
1, 27514, Note_on_c, 0, 57, 6
1, 27541, Control_c, 0, 64, 127
1, 27545, Note_on_c, 0, 48, 67
1, 27558, Note_on_c, 0, 57, 0
1, 27568, Note_on_c, 0, 58, 0
1, 27573, Note_on_c, 0, 62, 0
1, 27582, Note_on_c, 0, 47, 0
1, 27588, Note_on_c, 0, 54, 0
1, 27594, Note_on_c, 0, 48, 0
1, 27616, Note_on_c, 0, 63, 49
1, 27618, Note_on_c, 0, 55, 67
1, 27618, Note_on_c, 0, 58, 63
1, 27623, Note_on_c, 0, 50, 60
1, 27630, Control_c, 0, 64, 0
1, 27695, Note_on_c, 0, 50, 0
1, 27702, Note_on_c, 0, 48, 51
1, 27724, Note_on_c, 0, 48, 0
1, 27728, Note_on_c, 0, 42, 13
1, 27738, Control_c, 0, 64, 127
1, 27774, Note_on_c, 0, 42, 0
1, 27774, Control_c, 0, 64, 0
1, 27814, Control_c, 0, 64, 127
1, 27850, Note_on_c, 0, 48, 55
1, 27864, Note_on_c, 0, 55, 0
1, 27881, Note_on_c, 0, 39, 0
1, 27893, Note_on_c, 0, 48, 0
1, 27898, Note_on_c, 0, 58, 0
1, 27920, Note_on_c, 0, 63, 0
1, 27926, Note_on_c, 0, 58, 43
1, 27926, Note_on_c, 0, 54, 42
1, 27926, Note_on_c, 0, 61, 44
1, 27940, Control_c, 0, 64, 0
1, 28001, Control_c, 0, 64, 127
1, 28005, Note_on_c, 0, 39, 53
1, 28026, Note_on_c, 0, 54, 0
1, 28047, Note_on_c, 0, 39, 0
1, 28064, Note_on_c, 0, 61, 0
1, 28071, Note_on_c, 0, 58, 0
1, 28078, Note_on_c, 0, 63, 77
1, 28132, Note_on_c, 0, 63, 0
1, 28153, Note_on_c, 0, 65, 76
1, 28174, Note_on_c, 0, 65, 0
1, 28229, Note_on_c, 0, 66, 52
1, 28230, Note_on_c, 0, 62, 55
1, 28232, Note_on_c, 0, 57, 54
1, 28233, Note_on_c, 0, 54, 42
1, 28234, Note_on_c, 0, 44, 32
1, 28235, Control_c, 0, 64, 0
1, 28276, Control_c, 0, 64, 127
1, 28294, Note_on_c, 0, 57, 0
1, 28300, Note_on_c, 0, 62, 0
1, 28309, Note_on_c, 0, 66, 0
1, 28316, Note_on_c, 0, 54, 0
1, 28374, Note_on_c, 0, 59, 53
1, 28374, Note_on_c, 0, 68, 44
1, 28374, Note_on_c, 0, 64, 49
1, 28425, Note_on_c, 0, 44, 0
1, 28435, Note_on_c, 0, 59, 0
1, 28446, Note_on_c, 0, 64, 0
1, 28455, Note_on_c, 0, 68, 0
1, 28517, Note_on_c, 0, 70, 46
1, 28518, Note_on_c, 0, 56, 33
1, 28520, Note_on_c, 0, 63, 42
1, 28520, Note_on_c, 0, 67, 35
1, 28522, Note_on_c, 0, 60, 35
1, 28522, Control_c, 0, 64, 0
1, 28526, Note_on_c, 0, 49, 25
1, 28552, Control_c, 0, 64, 127
1, 28567, Note_on_c, 0, 60, 0
1, 28572, Note_on_c, 0, 67, 0
1, 28578, Note_on_c, 0, 49, 0
1, 28579, Note_on_c, 0, 63, 0
1, 28584, Note_on_c, 0, 56, 0
1, 28587, Note_on_c, 0, 70, 0
1, 28654, Note_on_c, 0, 82, 60
1, 28657, Note_on_c, 0, 63, 56
1, 28658, Note_on_c, 0, 75, 53
1, 28659, Note_on_c, 0, 70, 39
1, 28660, Note_on_c, 0, 58, 43
1, 28660, Note_on_c, 0, 79, 42
1, 28661, Note_on_c, 0, 53, 32
1, 28666, Control_c, 0, 64, 0
1, 28692, Control_c, 0, 64, 127
1, 28713, Note_on_c, 0, 53, 0
1, 28726, Note_on_c, 0, 79, 0
1, 28730, Note_on_c, 0, 58, 0
1, 28736, Note_on_c, 0, 63, 0
1, 28741, Note_on_c, 0, 82, 0
1, 28749, Note_on_c, 0, 75, 0
1, 28755, Note_on_c, 0, 70, 0
1, 28794, Note_on_c, 0, 80, 46
1, 28796, Note_on_c, 0, 75, 55
1, 28797, Note_on_c, 0, 60, 36
1, 28799, Note_on_c, 0, 55, 25
1, 28799, Note_on_c, 0, 68, 31
1, 28800, Note_on_c, 0, 65, 32
1, 28805, Control_c, 0, 64, 0
1, 28813, Control_c, 0, 64, 127
1, 28848, Note_on_c, 0, 65, 0
1, 28848, Note_on_c, 0, 55, 0
1, 28850, Note_on_c, 0, 80, 0
1, 28853, Note_on_c, 0, 75, 0
1, 28858, Note_on_c, 0, 60, 0
1, 28862, Note_on_c, 0, 68, 0
1, 28932, Note_on_c, 0, 63, 36
1, 28934, Note_on_c, 0, 72, 42
1, 28937, Note_on_c, 0, 65, 24
1, 28937, Note_on_c, 0, 53, 29
1, 28938, Control_c, 0, 64, 0
1, 28939, Note_on_c, 0, 58, 34
1, 28948, Control_c, 0, 64, 127
1, 28965, Note_on_c, 0, 53, 0
1, 28968, Note_on_c, 0, 63, 0
1, 28974, Note_on_c, 0, 58, 0
1, 29002, Note_on_c, 0, 72, 0
1, 29017, Note_on_c, 0, 65, 0
1, 29022, Note_on_c, 0, 44, 53
1, 29051, Note_on_c, 0, 44, 0
1, 29070, Control_c, 0, 64, 0
1, 29073, Note_on_c, 0, 43, 56
1, 29092, Control_c, 0, 64, 127
1, 29102, Note_on_c, 0, 43, 0
1, 29160, Note_on_c, 0, 73, 77
1, 29162, Note_on_c, 0, 60, 72
1, 29162, Note_on_c, 0, 61, 72
1, 29162, Note_on_c, 0, 65, 79
1, 29168, Note_on_c, 0, 68, 38
1, 29196, Note_on_c, 0, 73, 0
1, 29203, Note_on_c, 0, 61, 0
1, 29206, Note_on_c, 0, 68, 0
1, 29207, Note_on_c, 0, 65, 0
1, 29210, Note_on_c, 0, 60, 0
1, 29214, Note_on_c, 0, 58, 43
1, 29220, Control_c, 0, 64, 0
1, 29221, Note_on_c, 0, 72, 47
1, 29224, Note_on_c, 0, 65, 35
1, 29244, Note_on_c, 0, 65, 0
1, 29245, Note_on_c, 0, 58, 0
1, 29253, Control_c, 0, 64, 127
1, 29276, Note_on_c, 0, 72, 0
1, 29302, Note_on_c, 0, 70, 47
1, 29306, Note_on_c, 0, 66, 43
1, 29306, Note_on_c, 0, 64, 36
1, 29307, Note_on_c, 0, 58, 42
1, 29308, Note_on_c, 0, 48, 49
1, 29315, Control_c, 0, 64, 0
1, 29353, Control_c, 0, 64, 127
1, 29423, Note_on_c, 0, 70, 0
1, 29430, Note_on_c, 0, 64, 0
1, 29442, Note_on_c, 0, 72, 68
1, 29452, Note_on_c, 0, 66, 0
1, 29467, Note_on_c, 0, 72, 0
1, 29478, Note_on_c, 0, 58, 0
1, 29482, Note_on_c, 0, 48, 0
1, 29540, Note_on_c, 0, 73, 47
1, 29562, Note_on_c, 0, 73, 0
1, 29578, Note_on_c, 0, 75, 43
1, 29602, Note_on_c, 0, 75, 0
1, 29622, Note_on_c, 0, 72, 45
1, 29624, Control_c, 0, 64, 0
1, 29624, Note_on_c, 0, 69, 24
1, 29661, Note_on_c, 0, 41, 49
1, 29663, Note_on_c, 0, 69, 0
1, 29674, Control_c, 0, 64, 127
1, 29678, Note_on_c, 0, 72, 0
1, 29704, Note_on_c, 0, 48, 59
1, 29712, Note_on_c, 0, 41, 0
1, 29734, Note_on_c, 0, 48, 0
1, 29750, Note_on_c, 0, 57, 66
1, 29760, Note_on_c, 0, 57, 0
1, 29835, Note_on_c, 0, 79, 78
1, 29836, Note_on_c, 0, 62, 76
1, 29836, Note_on_c, 0, 69, 79
1, 29837, Note_on_c, 0, 74, 71
1, 29879, Note_on_c, 0, 79, 0
1, 29881, Note_on_c, 0, 74, 0
1, 29890, Note_on_c, 0, 69, 0
1, 29918, Note_on_c, 0, 62, 0
1, 29932, Note_on_c, 0, 74, 41
1, 29935, Note_on_c, 0, 69, 69
1, 29936, Note_on_c, 0, 64, 59
1, 29938, Note_on_c, 0, 58, 52
1, 29982, Note_on_c, 0, 69, 0
1, 29986, Note_on_c, 0, 74, 0
1, 30002, Note_on_c, 0, 64, 0
1, 30011, Note_on_c, 0, 58, 0
1, 30023, Note_on_c, 0, 72, 48
1, 30023, Note_on_c, 0, 57, 53
1, 30025, Control_c, 0, 64, 0
1, 30025, Note_on_c, 0, 67, 48
1, 30026, Note_on_c, 0, 62, 47
1, 30041, Control_c, 0, 64, 127
1, 30043, Note_on_c, 0, 67, 0
1, 30044, Note_on_c, 0, 72, 0
1, 30058, Note_on_c, 0, 62, 0
1, 30096, Note_on_c, 0, 57, 0
1, 30107, Note_on_c, 0, 69, 57
1, 30110, Note_on_c, 0, 64, 49
1, 30111, Note_on_c, 0, 53, 47
1, 30117, Control_c, 0, 64, 0
1, 30129, Note_on_c, 0, 64, 0
1, 30129, Note_on_c, 0, 69, 0
1, 30131, Note_on_c, 0, 53, 0
1, 30137, Control_c, 0, 64, 127
1, 30199, Control_c, 0, 64, 0
1, 30200, Note_on_c, 0, 71, 58
1, 30201, Note_on_c, 0, 66, 57
1, 30201, Note_on_c, 0, 63, 63
1, 30204, Note_on_c, 0, 59, 62
1, 30228, Control_c, 0, 64, 127
1, 30230, Note_on_c, 0, 71, 0
1, 30232, Note_on_c, 0, 66, 0
1, 30232, Note_on_c, 0, 63, 0
1, 30283, Note_on_c, 0, 73, 63
1, 30294, Note_on_c, 0, 59, 0
1, 30333, Note_on_c, 0, 73, 0
1, 30368, Note_on_c, 0, 71, 51
1, 30374, Control_c, 0, 64, 0
1, 30383, Note_on_c, 0, 71, 0
1, 30458, Note_on_c, 0, 64, 35
1, 30460, Note_on_c, 0, 62, 37
1, 30460, Note_on_c, 0, 67, 30
1, 30462, Note_on_c, 0, 59, 31
1, 30463, Note_on_c, 0, 56, 27
1, 30485, Control_c, 0, 64, 127
1, 30529, Note_on_c, 0, 62, 0
1, 30529, Note_on_c, 0, 64, 0
1, 30532, Note_on_c, 0, 56, 0
1, 30536, Note_on_c, 0, 67, 0
1, 30536, Note_on_c, 0, 46, 33
1, 30541, Note_on_c, 0, 59, 0
1, 30554, Note_on_c, 0, 46, 0
1, 30624, Note_on_c, 0, 62, 33
1, 30625, Note_on_c, 0, 54, 47
1, 30625, Note_on_c, 0, 39, 37
1, 30625, Note_on_c, 0, 65, 39
1, 30626, Note_on_c, 0, 57, 54
1, 30626, Note_on_c, 0, 46, 37
1, 30642, Control_c, 0, 64, 0
1, 30682, Control_c, 0, 64, 127
1, 30730, Note_on_c, 0, 46, 0
1, 30763, Note_on_c, 0, 46, 50
1, 30765, Note_on_c, 0, 57, 0
1, 30769, Note_on_c, 0, 62, 0
1, 30776, Note_on_c, 0, 65, 0
1, 30789, Note_on_c, 0, 54, 0
1, 30794, Note_on_c, 0, 46, 0
1, 30818, Note_on_c, 0, 47, 38
1, 30819, Note_on_c, 0, 63, 48
1, 30822, Note_on_c, 0, 55, 56
1, 30826, Control_c, 0, 64, 0
1, 30828, Note_on_c, 0, 58, 30
1, 30828, Note_on_c, 0, 60, 36
1, 30839, Note_on_c, 0, 47, 0
1, 30844, Note_on_c, 0, 48, 60
1, 30920, Control_c, 0, 64, 127
1, 30930, Note_on_c, 0, 60, 0
1, 30931, Note_on_c, 0, 55, 0
1, 30937, Note_on_c, 0, 58, 0
1, 30971, Note_on_c, 0, 55, 40
1, 30973, Note_on_c, 0, 60, 40
1, 30974, Note_on_c, 0, 58, 28
1, 31034, Note_on_c, 0, 39, 0
1, 31040, Note_on_c, 0, 60, 0
1, 31041, Note_on_c, 0, 55, 0
1, 31050, Note_on_c, 0, 58, 0
1, 31107, Note_on_c, 0, 39, 40
1, 31110, Note_on_c, 0, 55, 33
1, 31110, Note_on_c, 0, 58, 25
1, 31114, Note_on_c, 0, 60, 25
1, 31121, Control_c, 0, 64, 0
1, 31140, Note_on_c, 0, 39, 0
1, 31149, Control_c, 0, 64, 127
1, 31189, Note_on_c, 0, 60, 0
1, 31190, Note_on_c, 0, 55, 0
1, 31198, Note_on_c, 0, 58, 0
1, 31198, Note_on_c, 0, 39, 42
1, 31212, Note_on_c, 0, 48, 0
1, 31214, Note_on_c, 0, 39, 0
1, 31234, Note_on_c, 0, 63, 0
1, 31243, Control_c, 0, 64, 0
1, 31246, Note_on_c, 0, 41, 40
1, 31247, Note_on_c, 0, 56, 39
1, 31249, Note_on_c, 0, 60, 39
1, 31250, Note_on_c, 0, 51, 45
1, 31264, Note_on_c, 0, 56, 0
1, 31266, Note_on_c, 0, 60, 0
1, 31267, Control_c, 0, 64, 127
1, 31274, Note_on_c, 0, 41, 0
1, 31287, Note_on_c, 0, 51, 0
1, 31324, Note_on_c, 0, 75, 61
1, 31337, Note_on_c, 0, 75, 0
1, 31341, Note_on_c, 0, 77, 54
1, 31358, Note_on_c, 0, 75, 38
1, 31368, Note_on_c, 0, 77, 0
1, 31386, Note_on_c, 0, 75, 0
1, 31386, Control_c, 0, 64, 0
1, 31387, Note_on_c, 0, 74, 33
1, 31389, Note_on_c, 0, 63, 30
1, 31390, Note_on_c, 0, 56, 30
1, 31390, Note_on_c, 0, 67, 29
1, 31390, Note_on_c, 0, 60, 33
1, 31407, Note_on_c, 0, 74, 0
1, 31408, Note_on_c, 0, 67, 0
1, 31421, Note_on_c, 0, 56, 0
1, 31424, Note_on_c, 0, 63, 0
1, 31428, Note_on_c, 0, 75, 64
1, 31446, Note_on_c, 0, 75, 0
1, 31449, Note_on_c, 0, 60, 0
1, 31468, Note_on_c, 0, 77, 77
1, 31476, Control_c, 0, 64, 127
1, 31490, Note_on_c, 0, 77, 0
1, 31508, Note_on_c, 0, 79, 76
1, 31514, Control_c, 0, 64, 0
1, 31514, Note_on_c, 0, 66, 37
1, 31515, Note_on_c, 0, 62, 56
1, 31521, Note_on_c, 0, 66, 0
1, 31524, Note_on_c, 0, 62, 0
1, 31528, Note_on_c, 0, 79, 0
1, 31559, Note_on_c, 0, 80, 60
1, 31576, Note_on_c, 0, 80, 0
1, 31592, Control_c, 0, 64, 127
1, 31605, Note_on_c, 0, 82, 78
1, 31632, Note_on_c, 0, 82, 0
1, 31648, Control_c, 0, 64, 0
1, 31649, Note_on_c, 0, 56, 48
1, 31650, Note_on_c, 0, 46, 45
1, 31667, Note_on_c, 0, 56, 0
1, 31681, Note_on_c, 0, 46, 0
1, 31694, Note_on_c, 0, 83, 65
1, 31696, Control_c, 0, 64, 127
1, 31717, Note_on_c, 0, 83, 0
1, 31734, Note_on_c, 0, 84, 68
1, 31748, Note_on_c, 0, 84, 0
1, 31782, Note_on_c, 0, 89, 88
1, 31785, Control_c, 0, 64, 0
1, 31786, Note_on_c, 0, 46, 53
1, 31786, Note_on_c, 0, 39, 55
1, 31816, Note_on_c, 0, 89, 0
1, 31821, Control_c, 0, 64, 127
1, 31828, Note_on_c, 0, 39, 0
1, 31836, Note_on_c, 0, 46, 0
1, 31846, Note_on_c, 0, 86, 74
1, 31904, Note_on_c, 0, 86, 0
1, 31915, Control_c, 0, 64, 0
1, 31916, Note_on_c, 0, 65, 38
1, 31917, Note_on_c, 0, 82, 55
1, 31917, Note_on_c, 0, 58, 33
1, 31917, Note_on_c, 0, 60, 33
1, 31918, Note_on_c, 0, 55, 30
1, 31933, Control_c, 0, 64, 127
1, 31947, Note_on_c, 0, 60, 0
1, 31954, Note_on_c, 0, 55, 0
1, 31962, Note_on_c, 0, 58, 0
1, 31969, Note_on_c, 0, 65, 0
1, 31980, Note_on_c, 0, 82, 0
1, 31998, Note_on_c, 0, 79, 51
1, 32026, Note_on_c, 0, 79, 0
1, 32039, Note_on_c, 0, 66, 46
1, 32043, Note_on_c, 0, 56, 31
1, 32045, Note_on_c, 0, 62, 22
1, 32046, Control_c, 0, 64, 0
1, 32078, Control_c, 0, 64, 127
1, 32084, Note_on_c, 0, 77, 49
1, 32100, Note_on_c, 0, 62, 0
1, 32118, Note_on_c, 0, 66, 0
1, 32143, Note_on_c, 0, 56, 0
1, 32172, Note_on_c, 0, 74, 34
1, 32174, Control_c, 0, 64, 0
1, 32174, Note_on_c, 0, 70, 36
1, 32174, Note_on_c, 0, 67, 42
1, 32175, Note_on_c, 0, 55, 47
1, 32176, Note_on_c, 0, 62, 32
1, 32178, Note_on_c, 0, 65, 24
1, 32184, Note_on_c, 0, 65, 0
1, 32184, Note_on_c, 0, 62, 0
1, 32192, Control_c, 0, 64, 127
1, 32197, Note_on_c, 0, 55, 0
1, 32212, Note_on_c, 0, 70, 0
1, 32221, Note_on_c, 0, 67, 0
1, 32248, Note_on_c, 0, 77, 0
1, 32256, Note_on_c, 0, 74, 0
1, 32266, Note_on_c, 0, 66, 71
1, 32302, Note_on_c, 0, 39, 48
1, 32307, Note_on_c, 0, 54, 21
1, 32308, Control_c, 0, 64, 0
1, 32330, Control_c, 0, 64, 127
1, 32341, Note_on_c, 0, 39, 0
1, 32357, Note_on_c, 0, 66, 0
1, 32363, Note_on_c, 0, 54, 0
1, 32394, Note_on_c, 0, 63, 69
1, 32433, Note_on_c, 0, 63, 0
1, 32442, Note_on_c, 0, 61, 50
1, 32448, Note_on_c, 0, 65, 59
1, 32451, Control_c, 0, 64, 0
1, 32452, Note_on_c, 0, 58, 25
1, 32463, Note_on_c, 0, 61, 0
1, 32470, Note_on_c, 0, 58, 0
1, 32487, Control_c, 0, 64, 127
1, 32510, Note_on_c, 0, 65, 0
1, 32527, Note_on_c, 0, 66, 60
1, 32528, Note_on_c, 0, 60, 57
1, 32534, Note_on_c, 0, 63, 36
1, 32542, Note_on_c, 0, 63, 0
1, 32574, Note_on_c, 0, 54, 49
1, 32577, Control_c, 0, 64, 0
1, 32579, Note_on_c, 0, 44, 27
1, 32611, Control_c, 0, 64, 127
1, 32622, Note_on_c, 0, 44, 0
1, 32630, Note_on_c, 0, 54, 0
1, 32641, Note_on_c, 0, 66, 0
1, 32644, Note_on_c, 0, 60, 0
1, 32662, Note_on_c, 0, 68, 72
1, 32688, Note_on_c, 0, 68, 0
1, 32717, Note_on_c, 0, 70, 60
1, 32717, Note_on_c, 0, 58, 40
1, 32720, Control_c, 0, 64, 0
1, 32736, Control_c, 0, 64, 127
1, 32759, Note_on_c, 0, 58, 0
1, 32763, Note_on_c, 0, 70, 0
1, 32804, Note_on_c, 0, 72, 70
1, 32832, Note_on_c, 0, 72, 0
1, 32904, Note_on_c, 0, 70, 63
1, 32906, Note_on_c, 0, 58, 61
1, 32908, Note_on_c, 0, 63, 56
1, 32908, Note_on_c, 0, 67, 53
1, 32909, Note_on_c, 0, 60, 55
1, 32920, Control_c, 0, 64, 0
1, 32962, Control_c, 0, 64, 127
1, 32980, Note_on_c, 0, 58, 0
1, 32996, Control_c, 0, 64, 0
1, 33000, Note_on_c, 0, 57, 51
1, 33024, Control_c, 0, 64, 127
1, 33026, Note_on_c, 0, 67, 0
1, 33033, Note_on_c, 0, 63, 0
1, 33041, Note_on_c, 0, 60, 0
1, 33051, Note_on_c, 0, 70, 0
1, 33077, Note_on_c, 0, 57, 0
1, 33089, Note_on_c, 0, 68, 37
1, 33089, Note_on_c, 0, 56, 37
1, 33090, Note_on_c, 0, 60, 35
1, 33090, Note_on_c, 0, 65, 48
1, 33094, Control_c, 0, 64, 0
1, 33096, Note_on_c, 0, 49, 25
1, 33137, Control_c, 0, 64, 127
1, 33156, Note_on_c, 0, 56, 0
1, 33158, Note_on_c, 0, 49, 0
1, 33206, Note_on_c, 0, 60, 0
1, 33216, Note_on_c, 0, 65, 0
1, 33218, Note_on_c, 0, 44, 62
1, 33230, Note_on_c, 0, 68, 0
1, 33241, Control_c, 0, 64, 0
1, 33283, Control_c, 0, 64, 127
1, 33328, Note_on_c, 0, 44, 0
1, 33345, Note_on_c, 0, 85, 68
1, 33345, Note_on_c, 0, 70, 57
1, 33353, Note_on_c, 0, 43, 50
1, 33353, Control_c, 0, 64, 0
1, 33375, Control_c, 0, 64, 127
1, 33386, Note_on_c, 0, 43, 0
1, 33436, Note_on_c, 0, 70, 0
1, 33456, Note_on_c, 0, 85, 0
1, 33488, Note_on_c, 0, 82, 33
1, 33498, Note_on_c, 0, 82, 0
1, 33528, Note_on_c, 0, 53, 34
1, 33528, Note_on_c, 0, 61, 42
1, 33529, Note_on_c, 0, 55, 42
1, 33530, Control_c, 0, 64, 0
1, 33531, Note_on_c, 0, 58, 35
1, 33533, Note_on_c, 0, 85, 58
1, 33534, Note_on_c, 0, 70, 46
1, 33543, Note_on_c, 0, 61, 0
1, 33548, Note_on_c, 0, 85, 0
1, 33548, Note_on_c, 0, 53, 0
1, 33549, Note_on_c, 0, 70, 0
1, 33550, Note_on_c, 0, 55, 0
1, 33554, Note_on_c, 0, 58, 0
1, 33588, Control_c, 0, 64, 127
1, 33620, Note_on_c, 0, 85, 58
1, 33622, Note_on_c, 0, 55, 41
1, 33626, Note_on_c, 0, 70, 37
1, 33645, Note_on_c, 0, 70, 0
1, 33645, Note_on_c, 0, 55, 0
1, 33650, Note_on_c, 0, 85, 0
1, 33660, Control_c, 0, 64, 0
1, 33669, Note_on_c, 0, 48, 42
1, 33669, Note_on_c, 0, 58, 27
1, 33670, Note_on_c, 0, 70, 42
1, 33672, Note_on_c, 0, 84, 32
1, 33692, Control_c, 0, 64, 127
1, 33700, Note_on_c, 0, 48, 0
1, 33722, Note_on_c, 0, 58, 0
1, 33724, Note_on_c, 0, 84, 0
1, 33757, Note_on_c, 0, 70, 0
1, 33803, Note_on_c, 0, 58, 29
1, 33806, Note_on_c, 0, 82, 56
1, 33806, Note_on_c, 0, 63, 25
1, 33808, Control_c, 0, 64, 0
1, 33809, Note_on_c, 0, 52, 36
1, 33810, Note_on_c, 0, 70, 44
1, 33832, Control_c, 0, 64, 127
1, 33846, Note_on_c, 0, 52, 0
1, 33860, Note_on_c, 0, 58, 0
1, 33865, Note_on_c, 0, 63, 0
1, 33869, Note_on_c, 0, 82, 0
1, 33874, Note_on_c, 0, 70, 0
1, 33939, Control_c, 0, 64, 0
1, 33944, Note_on_c, 0, 76, 34
1, 33944, Note_on_c, 0, 69, 45
1, 33944, Note_on_c, 0, 64, 42
1, 33944, Note_on_c, 0, 81, 44
1, 33948, Note_on_c, 0, 60, 30
1, 33949, Note_on_c, 0, 57, 33
1, 33950, Note_on_c, 0, 53, 29
1, 33961, Control_c, 0, 64, 127
1, 33972, Note_on_c, 0, 81, 0
1, 33975, Note_on_c, 0, 76, 0
1, 33978, Note_on_c, 0, 60, 0
1, 33981, Note_on_c, 0, 64, 0
1, 33987, Note_on_c, 0, 57, 0
1, 33992, Note_on_c, 0, 69, 0
1, 34001, Note_on_c, 0, 53, 0
1, 34082, Note_on_c, 0, 66, 63
1, 34084, Note_on_c, 0, 61, 67
1, 34086, Note_on_c, 0, 56, 54
1, 34088, Note_on_c, 0, 51, 49
1, 34091, Control_c, 0, 64, 0
1, 34132, Control_c, 0, 64, 127
1, 34154, Note_on_c, 0, 51, 0
1, 34176, Note_on_c, 0, 56, 0
1, 34181, Note_on_c, 0, 66, 0
1, 34184, Note_on_c, 0, 61, 0
1, 34224, Note_on_c, 0, 65, 43
1, 34226, Note_on_c, 0, 50, 32
1, 34227, Note_on_c, 0, 60, 39
1, 34228, Control_c, 0, 64, 0
1, 34228, Note_on_c, 0, 55, 28
1, 34278, Control_c, 0, 64, 127
1, 34305, Note_on_c, 0, 55, 0
1, 34319, Note_on_c, 0, 41, 60
1, 34325, Note_on_c, 0, 60, 0
1, 34330, Note_on_c, 0, 50, 0
1, 34340, Note_on_c, 0, 65, 0
1, 34358, Note_on_c, 0, 41, 0
1, 34502, Note_on_c, 0, 63, 55
1, 34503, Note_on_c, 0, 70, 60
1, 34504, Note_on_c, 0, 67, 42
1, 34508, Note_on_c, 0, 59, 40
1, 34508, Note_on_c, 0, 58, 36
1, 34514, Control_c, 0, 64, 0
1, 34557, Control_c, 0, 64, 127
1, 34572, Note_on_c, 0, 67, 0
1, 34573, Note_on_c, 0, 59, 0
1, 34576, Note_on_c, 0, 63, 0
1, 34588, Note_on_c, 0, 70, 0
1, 34596, Note_on_c, 0, 63, 40
1, 34597, Note_on_c, 0, 68, 43
1, 34599, Note_on_c, 0, 59, 44
1, 34600, Note_on_c, 0, 58, 0
1, 34600, Note_on_c, 0, 56, 37
1, 34636, Note_on_c, 0, 56, 0
1, 34655, Note_on_c, 0, 59, 0
1, 34672, Note_on_c, 0, 68, 0
1, 34681, Note_on_c, 0, 63, 0
1, 34727, Note_on_c, 0, 67, 44
1, 34728, Note_on_c, 0, 62, 45
1, 34728, Note_on_c, 0, 59, 37
1, 34729, Note_on_c, 0, 64, 40
1, 34730, Note_on_c, 0, 56, 36
1, 34731, Note_on_c, 0, 46, 38
1, 34733, Control_c, 0, 64, 0
1, 34751, Control_c, 0, 64, 127
1, 34753, Note_on_c, 0, 56, 0
1, 34754, Note_on_c, 0, 46, 0
1, 34785, Note_on_c, 0, 59, 0
1, 34797, Note_on_c, 0, 62, 0
1, 34802, Note_on_c, 0, 64, 0
1, 34804, Note_on_c, 0, 67, 0
1, 34892, Note_on_c, 0, 77, 82
1, 34938, Note_on_c, 0, 77, 0
1, 34942, Note_on_c, 0, 74, 35
1, 34962, Note_on_c, 0, 74, 0
1, 34987, Note_on_c, 0, 75, 36
1, 35000, Note_on_c, 0, 75, 0
1, 35030, Note_on_c, 0, 77, 53
1, 35060, Note_on_c, 0, 77, 0
1, 35071, Note_on_c, 0, 82, 65
1, 35072, Control_c, 0, 64, 0
1, 35074, Note_on_c, 0, 44, 34
1, 35075, Note_on_c, 0, 51, 35
1, 35102, Control_c, 0, 64, 127
1, 35105, Note_on_c, 0, 82, 0
1, 35118, Note_on_c, 0, 44, 0
1, 35119, Note_on_c, 0, 79, 34
1, 35124, Note_on_c, 0, 51, 0
1, 35144, Note_on_c, 0, 79, 0
1, 35159, Note_on_c, 0, 80, 63
1, 35187, Note_on_c, 0, 80, 0
1, 35199, Note_on_c, 0, 82, 59
1, 35213, Note_on_c, 0, 63, 28
1, 35215, Note_on_c, 0, 58, 32
1, 35216, Control_c, 0, 64, 0
1, 35221, Note_on_c, 0, 53, 19
1, 35223, Note_on_c, 0, 82, 0
1, 35244, Note_on_c, 0, 84, 49
1, 35255, Control_c, 0, 64, 127
1, 35266, Note_on_c, 0, 84, 0
1, 35280, Note_on_c, 0, 53, 0
1, 35280, Note_on_c, 0, 87, 59
1, 35299, Note_on_c, 0, 87, 0
1, 35299, Note_on_c, 0, 63, 0
1, 35300, Note_on_c, 0, 58, 0
1, 35323, Note_on_c, 0, 91, 83
1, 35356, Note_on_c, 0, 91, 0
1, 35359, Control_c, 0, 64, 0
1, 35366, Note_on_c, 0, 60, 57
1, 35366, Note_on_c, 0, 65, 57
1, 35366, Note_on_c, 0, 94, 83
1, 35370, Note_on_c, 0, 87, 54
1, 35370, Note_on_c, 0, 55, 35
1, 35376, Note_on_c, 0, 87, 0
1, 35391, Control_c, 0, 64, 127
1, 35426, Note_on_c, 0, 55, 0
1, 35440, Note_on_c, 0, 60, 0
1, 35440, Note_on_c, 0, 65, 0
1, 35441, Note_on_c, 0, 94, 0
1, 35493, Control_c, 0, 64, 0
1, 35494, Note_on_c, 0, 53, 51
1, 35494, Note_on_c, 0, 63, 50
1, 35505, Note_on_c, 0, 58, 27
1, 35515, Control_c, 0, 64, 127
1, 35534, Note_on_c, 0, 63, 0
1, 35537, Note_on_c, 0, 53, 0
1, 35538, Note_on_c, 0, 58, 0
1, 35585, Note_on_c, 0, 51, 57
1, 35612, Note_on_c, 0, 51, 0
1, 35628, Control_c, 0, 64, 0
1, 35652, Control_c, 0, 64, 127
1, 35704, Note_on_c, 0, 61, 31
1, 35714, Note_on_c, 0, 61, 0
1, 35714, Note_on_c, 0, 62, 54
1, 35718, Note_on_c, 0, 75, 74
1, 35720, Note_on_c, 0, 70, 70
1, 35720, Note_on_c, 0, 72, 66
1, 35720, Note_on_c, 0, 67, 68
1, 35721, Note_on_c, 0, 62, 0
1, 35725, Note_on_c, 0, 63, 74
1, 35746, Control_c, 0, 64, 0
1, 35780, Control_c, 0, 64, 127
1, 35799, Note_on_c, 0, 72, 0
1, 35799, Note_on_c, 0, 75, 0
1, 35801, Note_on_c, 0, 63, 0
1, 35804, Note_on_c, 0, 70, 0
1, 35807, Note_on_c, 0, 67, 0
1, 35859, Note_on_c, 0, 72, 69
1, 35859, Note_on_c, 0, 63, 72
1, 35860, Note_on_c, 0, 67, 70
1, 35861, Note_on_c, 0, 70, 59
1, 35866, Note_on_c, 0, 62, 27
1, 35873, Note_on_c, 0, 62, 0
1, 35878, Note_on_c, 0, 67, 0
1, 35880, Note_on_c, 0, 72, 0
1, 35889, Note_on_c, 0, 70, 0
1, 35890, Control_c, 0, 64, 0
1, 35893, Note_on_c, 0, 63, 0
1, 35904, Control_c, 0, 64, 127
1, 35914, Control_c, 0, 64, 0
1, 35932, Control_c, 0, 64, 127
1, 35933, Note_on_c, 0, 70, 50
1, 35934, Note_on_c, 0, 63, 58
1, 35936, Note_on_c, 0, 67, 54
1, 35957, Note_on_c, 0, 60, 6
1, 35986, Note_on_c, 0, 67, 0
1, 35989, Note_on_c, 0, 60, 0
1, 35990, Note_on_c, 0, 63, 0
1, 36005, Note_on_c, 0, 70, 0
1, 36014, Note_on_c, 0, 67, 24
1, 36018, Note_on_c, 0, 60, 58
1, 36018, Note_on_c, 0, 63, 42
1, 36024, Note_on_c, 0, 55, 45
1, 36040, Note_on_c, 0, 55, 0
1, 36045, Note_on_c, 0, 63, 0
1, 36055, Control_c, 0, 64, 0
1, 36058, Note_on_c, 0, 60, 0
1, 36062, Note_on_c, 0, 67, 0
1, 36066, Note_on_c, 0, 51, 34
1, 36077, Control_c, 0, 64, 127
1, 36151, Note_on_c, 0, 51, 0
1, 36159, Note_on_c, 0, 63, 62
1, 36162, Note_on_c, 0, 59, 68
1, 36164, Note_on_c, 0, 54, 61
1, 36191, Control_c, 0, 64, 0
1, 36208, Note_on_c, 0, 54, 0
1, 36211, Note_on_c, 0, 44, 48
1, 36215, Note_on_c, 0, 51, 43
1, 36216, Note_on_c, 0, 59, 0
1, 36223, Control_c, 0, 64, 127
1, 36224, Note_on_c, 0, 63, 0
1, 36247, Note_on_c, 0, 44, 0
1, 36260, Note_on_c, 0, 51, 0
1, 36306, Note_on_c, 0, 87, 69
1, 36309, Note_on_c, 0, 75, 56
1, 36329, Note_on_c, 0, 75, 0
1, 36335, Note_on_c, 0, 87, 0
1, 36355, Note_on_c, 0, 63, 35
1, 36357, Note_on_c, 0, 54, 29
1, 36359, Note_on_c, 0, 87, 65
1, 36360, Control_c, 0, 64, 0
1, 36361, Note_on_c, 0, 59, 42
1, 36362, Note_on_c, 0, 75, 40
1, 36364, Note_on_c, 0, 58, 28
1, 36374, Note_on_c, 0, 75, 0
1, 36380, Note_on_c, 0, 87, 0
1, 36407, Note_on_c, 0, 86, 45
1, 36427, Note_on_c, 0, 86, 0
1, 36432, Control_c, 0, 64, 127
1, 36440, Note_on_c, 0, 54, 0
1, 36450, Note_on_c, 0, 63, 0
1, 36454, Note_on_c, 0, 59, 0
1, 36454, Note_on_c, 0, 87, 78
1, 36455, Note_on_c, 0, 58, 0
1, 36456, Note_on_c, 0, 75, 72
1, 36472, Note_on_c, 0, 75, 0
1, 36476, Note_on_c, 0, 87, 0
1, 36494, Control_c, 0, 64, 0
1, 36500, Note_on_c, 0, 63, 27
1, 36501, Note_on_c, 0, 59, 41
1, 36502, Note_on_c, 0, 58, 29
1, 36502, Note_on_c, 0, 87, 69
1, 36504, Note_on_c, 0, 75, 47
1, 36519, Note_on_c, 0, 75, 0
1, 36527, Note_on_c, 0, 87, 0
1, 36580, Control_c, 0, 64, 127
1, 36586, Note_on_c, 0, 59, 0
1, 36595, Note_on_c, 0, 87, 83
1, 36596, Note_on_c, 0, 75, 77
1, 36602, Note_on_c, 0, 54, 52
1, 36648, Control_c, 0, 64, 0
1, 36699, Control_c, 0, 64, 127
1, 36705, Note_on_c, 0, 54, 0
1, 36716, Note_on_c, 0, 58, 0
1, 36719, Note_on_c, 0, 63, 0
1, 36731, Note_on_c, 0, 53, 58
1, 36738, Note_on_c, 0, 87, 0
1, 36740, Note_on_c, 0, 75, 0
1, 36755, Control_c, 0, 64, 0
1, 36779, Control_c, 0, 64, 127
1, 36851, Note_on_c, 0, 56, 46
1, 36855, Note_on_c, 0, 55, 20
1, 36858, Note_on_c, 0, 53, 0
1, 36863, Note_on_c, 0, 55, 0
1, 36870, Note_on_c, 0, 57, 47
1, 36873, Note_on_c, 0, 56, 0
1, 36874, Note_on_c, 0, 67, 68
1, 36875, Note_on_c, 0, 63, 73
1, 36875, Note_on_c, 0, 70, 75
1, 36876, Note_on_c, 0, 58, 74
1, 36877, Note_on_c, 0, 57, 0
1, 36877, Note_on_c, 0, 59, 71
1, 36906, Note_on_c, 0, 59, 0
1, 36908, Note_on_c, 0, 67, 0
1, 36912, Control_c, 0, 64, 0
1, 36914, Note_on_c, 0, 70, 0
1, 36920, Note_on_c, 0, 58, 0
1, 36928, Note_on_c, 0, 56, 49
1, 36930, Note_on_c, 0, 59, 17
1, 36931, Note_on_c, 0, 68, 49
1, 36970, Control_c, 0, 64, 127
1, 36976, Control_c, 0, 64, 0
1, 36992, Note_on_c, 0, 59, 0
1, 36996, Control_c, 0, 64, 127
1, 36997, Note_on_c, 0, 56, 0
1, 37010, Note_on_c, 0, 63, 0
1, 37010, Note_on_c, 0, 68, 0
1, 37024, Note_on_c, 0, 56, 55
1, 37025, Note_on_c, 0, 67, 63
1, 37027, Note_on_c, 0, 62, 74
1, 37027, Note_on_c, 0, 71, 62
1, 37030, Control_c, 0, 64, 0
1, 37062, Note_on_c, 0, 62, 0
1, 37064, Note_on_c, 0, 67, 0
1, 37068, Note_on_c, 0, 71, 0
1, 37068, Control_c, 0, 64, 127
1, 37115, Note_on_c, 0, 74, 54
1, 37116, Control_c, 0, 64, 0
1, 37120, Note_on_c, 0, 66, 43
1, 37121, Note_on_c, 0, 59, 55
1, 37124, Note_on_c, 0, 73, 28
1, 37125, Note_on_c, 0, 70, 28
1, 37126, Note_on_c, 0, 56, 0
1, 37134, Control_c, 0, 64, 127
1, 37135, Note_on_c, 0, 73, 0
1, 37139, Note_on_c, 0, 70, 0
1, 37140, Note_on_c, 0, 66, 0
1, 37143, Note_on_c, 0, 74, 0
1, 37190, Note_on_c, 0, 59, 0
1, 37202, Note_on_c, 0, 77, 51
1, 37202, Note_on_c, 0, 62, 53
1, 37204, Note_on_c, 0, 68, 50
1, 37207, Note_on_c, 0, 74, 31
1, 37215, Note_on_c, 0, 68, 0
1, 37216, Note_on_c, 0, 74, 0
1, 37218, Note_on_c, 0, 62, 0
1, 37221, Note_on_c, 0, 77, 0
1, 37288, Note_on_c, 0, 83, 70
1, 37318, Note_on_c, 0, 83, 0
1, 37342, Note_on_c, 0, 78, 46
1, 37343, Note_on_c, 0, 73, 32
1, 37343, Note_on_c, 0, 82, 47
1, 37344, Note_on_c, 0, 42, 48
1, 37346, Control_c, 0, 64, 0
1, 37374, Control_c, 0, 64, 127
1, 37376, Note_on_c, 0, 82, 0
1, 37380, Note_on_c, 0, 78, 0
1, 37380, Note_on_c, 0, 73, 0
1, 37392, Note_on_c, 0, 42, 0
1, 37434, Note_on_c, 0, 73, 71
1, 37436, Note_on_c, 0, 63, 74
1, 37438, Note_on_c, 0, 68, 70
1, 37438, Note_on_c, 0, 70, 68
1, 37442, Note_on_c, 0, 61, 49
1, 37446, Control_c, 0, 64, 0
1, 37451, Note_on_c, 0, 61, 0
1, 37480, Control_c, 0, 64, 127
1, 37533, Note_on_c, 0, 68, 0
1, 37534, Note_on_c, 0, 73, 0
1, 37542, Note_on_c, 0, 63, 0
1, 37581, Note_on_c, 0, 70, 0
1, 37625, Note_on_c, 0, 70, 49
1, 37631, Note_on_c, 0, 61, 43
1, 37632, Note_on_c, 0, 66, 37
1, 37632, Control_c, 0, 64, 0
1, 37634, Note_on_c, 0, 58, 33
1, 37662, Control_c, 0, 64, 127
1, 37665, Note_on_c, 0, 66, 0
1, 37668, Note_on_c, 0, 61, 0
1, 37669, Note_on_c, 0, 70, 0
1, 37702, Note_on_c, 0, 58, 0
1, 37716, Note_on_c, 0, 68, 56
1, 37720, Note_on_c, 0, 56, 44
1, 37720, Note_on_c, 0, 58, 45
1, 37721, Note_on_c, 0, 63, 52
1, 37740, Note_on_c, 0, 58, 0
1, 37740, Note_on_c, 0, 68, 0
1, 37740, Note_on_c, 0, 56, 0
1, 37746, Note_on_c, 0, 63, 0
1, 37769, Note_on_c, 0, 66, 39
1, 37773, Note_on_c, 0, 51, 42
1, 37773, Note_on_c, 0, 61, 46
1, 37774, Note_on_c, 0, 56, 31
1, 37777, Control_c, 0, 64, 0
1, 37780, Note_on_c, 0, 63, 31
1, 37809, Note_on_c, 0, 66, 0
1, 37814, Note_on_c, 0, 61, 0
1, 37822, Note_on_c, 0, 56, 0
1, 37828, Note_on_c, 0, 51, 0
1, 37837, Note_on_c, 0, 63, 0
1, 37851, Control_c, 0, 64, 127
1, 37909, Control_c, 0, 64, 0
1, 37910, Note_on_c, 0, 63, 50
1, 37912, Note_on_c, 0, 51, 37
1, 37914, Note_on_c, 0, 61, 46
1, 37914, Note_on_c, 0, 54, 36
1, 37914, Note_on_c, 0, 58, 37
1, 37987, Control_c, 0, 64, 127
1, 38008, Note_on_c, 0, 61, 0
1, 38014, Note_on_c, 0, 54, 0
1, 38014, Note_on_c, 0, 58, 0
1, 38026, Note_on_c, 0, 63, 0
1, 38036, Note_on_c, 0, 51, 0
1, 38044, Note_on_c, 0, 61, 37
1, 38046, Control_c, 0, 64, 0
1, 38046, Note_on_c, 0, 54, 34
1, 38046, Note_on_c, 0, 49, 37
1, 38046, Note_on_c, 0, 58, 45
1, 38112, Control_c, 0, 64, 127
1, 38134, Note_on_c, 0, 54, 0
1, 38143, Note_on_c, 0, 58, 0
1, 38157, Note_on_c, 0, 49, 0
1, 38168, Note_on_c, 0, 61, 0
1, 38178, Control_c, 0, 64, 0
1, 38185, Note_on_c, 0, 54, 30
1, 38186, Note_on_c, 0, 48, 36
1, 38187, Note_on_c, 0, 58, 30
1, 38187, Note_on_c, 0, 60, 45
1, 38250, Note_on_c, 0, 54, 0
1, 38251, Note_on_c, 0, 60, 0
1, 38256, Note_on_c, 0, 58, 0
1, 38256, Control_c, 0, 64, 127
1, 38265, Note_on_c, 0, 48, 0
1, 38269, Note_on_c, 0, 49, 42
1, 38270, Note_on_c, 0, 61, 56
1, 38272, Note_on_c, 0, 54, 57
1, 38276, Note_on_c, 0, 58, 30
1, 38295, Note_on_c, 0, 49, 0
1, 38304, Note_on_c, 0, 54, 0
1, 38305, Note_on_c, 0, 58, 0
1, 38314, Note_on_c, 0, 61, 0
1, 38321, Note_on_c, 0, 51, 40
1, 38324, Note_on_c, 0, 54, 55
1, 38326, Note_on_c, 0, 63, 48
1, 38328, Note_on_c, 0, 58, 34
1, 38342, Note_on_c, 0, 54, 0
1, 38345, Note_on_c, 0, 51, 0
1, 38347, Note_on_c, 0, 63, 0
1, 38352, Note_on_c, 0, 58, 0
1, 38372, Note_on_c, 0, 66, 33
1, 38389, Note_on_c, 0, 66, 0
1, 38416, Note_on_c, 0, 68, 62
1, 38429, Note_on_c, 0, 68, 0
1, 38485, Control_c, 0, 64, 0
1, 38516, Note_on_c, 0, 70, 64
1, 38519, Note_on_c, 0, 63, 49
1, 38521, Note_on_c, 0, 65, 49
1, 38522, Note_on_c, 0, 41, 46
1, 38522, Note_on_c, 0, 59, 41
1, 38544, Note_on_c, 0, 65, 0
1, 38545, Note_on_c, 0, 59, 0
1, 38547, Note_on_c, 0, 41, 0
1, 38551, Control_c, 0, 64, 127
1, 38558, Note_on_c, 0, 63, 0
1, 38576, Note_on_c, 0, 70, 0
1, 38604, Note_on_c, 0, 58, 60
1, 38605, Note_on_c, 0, 70, 75
1, 38606, Note_on_c, 0, 63, 78
1, 38606, Note_on_c, 0, 56, 46
1, 38607, Note_on_c, 0, 60, 68
1, 38607, Note_on_c, 0, 67, 74
1, 38608, Control_c, 0, 64, 0
1, 38638, Control_c, 0, 64, 127
1, 38671, Note_on_c, 0, 60, 0
1, 38671, Note_on_c, 0, 63, 0
1, 38674, Note_on_c, 0, 56, 0
1, 38676, Note_on_c, 0, 67, 0
1, 38677, Note_on_c, 0, 70, 0
1, 38678, Note_on_c, 0, 58, 0
1, 38700, Control_c, 0, 64, 0
1, 38700, Note_on_c, 0, 70, 73
1, 38701, Note_on_c, 0, 67, 61
1, 38703, Note_on_c, 0, 63, 69
1, 38704, Note_on_c, 0, 58, 67
1, 38704, Note_on_c, 0, 56, 58
1, 38705, Note_on_c, 0, 60, 71
1, 38724, Control_c, 0, 64, 127
1, 38760, Note_on_c, 0, 60, 0
1, 38762, Note_on_c, 0, 63, 0
1, 38766, Note_on_c, 0, 67, 0
1, 38768, Note_on_c, 0, 70, 0
1, 38768, Note_on_c, 0, 58, 0
1, 38769, Note_on_c, 0, 56, 0
1, 38795, Note_on_c, 0, 70, 62
1, 38797, Note_on_c, 0, 67, 43
1, 38797, Note_on_c, 0, 63, 51
1, 38798, Note_on_c, 0, 60, 52
1, 38799, Note_on_c, 0, 56, 37
1, 38799, Note_on_c, 0, 58, 40
1, 38833, Note_on_c, 0, 60, 0
1, 38839, Note_on_c, 0, 67, 0
1, 38843, Note_on_c, 0, 56, 0
1, 38843, Note_on_c, 0, 63, 0
1, 38843, Note_on_c, 0, 58, 0
1, 38847, Note_on_c, 0, 70, 0
1, 38883, Note_on_c, 0, 67, 43
1, 38883, Note_on_c, 0, 70, 58
1, 38886, Note_on_c, 0, 56, 46
1, 38888, Note_on_c, 0, 63, 46
1, 38889, Note_on_c, 0, 58, 25
1, 38895, Note_on_c, 0, 63, 0
1, 38896, Note_on_c, 0, 67, 0
1, 38898, Note_on_c, 0, 58, 0
1, 38906, Note_on_c, 0, 56, 0
1, 38909, Note_on_c, 0, 70, 0
1, 38970, Control_c, 0, 64, 0
1, 38972, Note_on_c, 0, 67, 41
1, 38972, Note_on_c, 0, 56, 37
1, 38974, Note_on_c, 0, 62, 41
1, 38975, Note_on_c, 0, 46, 36
1, 38977, Note_on_c, 0, 59, 33
1, 38977, Note_on_c, 0, 64, 38
1, 38999, Control_c, 0, 64, 127
1, 39004, Note_on_c, 0, 59, 0
1, 39007, Note_on_c, 0, 64, 0
1, 39008, Note_on_c, 0, 62, 0
1, 39014, Note_on_c, 0, 67, 0
1, 39075, Note_on_c, 0, 77, 84
1, 39112, Note_on_c, 0, 46, 0
1, 39124, Note_on_c, 0, 56, 0
1, 39154, Note_on_c, 0, 77, 0
1, 39161, Note_on_c, 0, 74, 57
1, 39230, Note_on_c, 0, 74, 0
1, 39245, Note_on_c, 0, 70, 49
1, 39248, Note_on_c, 0, 66, 44
1, 39248, Note_on_c, 0, 62, 32
1, 39257, Note_on_c, 0, 56, 29
1, 39296, Note_on_c, 0, 66, 0
1, 39301, Note_on_c, 0, 62, 0
1, 39325, Note_on_c, 0, 56, 0
1, 39340, Note_on_c, 0, 70, 0
1, 39340, Note_on_c, 0, 67, 43
1, 39372, Note_on_c, 0, 67, 0
1, 39435, Note_on_c, 0, 64, 30
1, 39435, Note_on_c, 0, 62, 29
1, 39448, Note_on_c, 0, 64, 0
1, 39458, Note_on_c, 0, 62, 0
1, 39526, Note_on_c, 0, 39, 33
1, 39528, Note_on_c, 0, 46, 25
1, 39578, Note_on_c, 0, 65, 49
1, 39578, Note_on_c, 0, 54, 54
1, 39579, Note_on_c, 0, 57, 55
1, 39581, Note_on_c, 0, 47, 47
1, 39582, Note_on_c, 0, 62, 29
1, 39590, Control_c, 0, 64, 0
1, 39643, Note_on_c, 0, 46, 0
1, 39658, Control_c, 0, 64, 127
1, 39691, Note_on_c, 0, 57, 0
1, 39691, Note_on_c, 0, 62, 0
1, 39703, Note_on_c, 0, 65, 0
1, 39711, Note_on_c, 0, 54, 0
1, 39725, Note_on_c, 0, 47, 0
1, 39726, Note_on_c, 0, 63, 33
1, 39728, Note_on_c, 0, 55, 60
1, 39729, Note_on_c, 0, 48, 61
1, 39731, Control_c, 0, 64, 0
1, 39733, Note_on_c, 0, 58, 45
1, 39783, Control_c, 0, 64, 127
1, 39826, Note_on_c, 0, 55, 0
1, 39829, Note_on_c, 0, 58, 0
1, 39870, Note_on_c, 0, 58, 40
1, 39872, Note_on_c, 0, 55, 37
1, 39890, Note_on_c, 0, 39, 0
1, 39910, Note_on_c, 0, 48, 0
1, 39924, Note_on_c, 0, 55, 0
1, 39959, Note_on_c, 0, 58, 0
1, 39968, Note_on_c, 0, 63, 0
1, 40009, Note_on_c, 0, 56, 53
1, 40010, Note_on_c, 0, 60, 73
1, 40011, Note_on_c, 0, 63, 69
1, 40020, Control_c, 0, 64, 0
1, 40046, Control_c, 0, 64, 127
1, 40055, Note_on_c, 0, 56, 0
1, 40100, Note_on_c, 0, 60, 0
1, 40102, Note_on_c, 0, 58, 82
1, 40118, Note_on_c, 0, 63, 0
1, 40194, Control_c, 0, 64, 0
1, 40198, Note_on_c, 0, 82, 72
1, 40200, Note_on_c, 0, 75, 65
1, 40202, Note_on_c, 0, 70, 58
1, 40204, Note_on_c, 0, 79, 47
1, 40207, Note_on_c, 0, 46, 62
1, 40226, Control_c, 0, 64, 127
1, 40253, Note_on_c, 0, 79, 0
1, 40267, Note_on_c, 0, 75, 0
1, 40273, Note_on_c, 0, 70, 0
1, 40276, Note_on_c, 0, 46, 0
1, 40283, Note_on_c, 0, 82, 0
1, 40291, Note_on_c, 0, 58, 0
1, 40299, Note_on_c, 0, 79, 57
1, 40299, Note_on_c, 0, 70, 51
1, 40317, Note_on_c, 0, 79, 0
1, 40331, Note_on_c, 0, 70, 0
1, 40383, Note_on_c, 0, 74, 36
1, 40384, Note_on_c, 0, 62, 37
1, 40385, Note_on_c, 0, 66, 42
1, 40385, Note_on_c, 0, 79, 41
1, 40386, Control_c, 0, 64, 0
1, 40387, Note_on_c, 0, 67, 26
1, 40390, Note_on_c, 0, 56, 29
1, 40411, Control_c, 0, 64, 127
1, 40423, Note_on_c, 0, 67, 0
1, 40437, Note_on_c, 0, 74, 0
1, 40442, Note_on_c, 0, 79, 0
1, 40490, Note_on_c, 0, 89, 74
1, 40492, Note_on_c, 0, 83, 47
1, 40492, Note_on_c, 0, 81, 58
1, 40499, Note_on_c, 0, 81, 0
1, 40521, Note_on_c, 0, 83, 0
1, 40540, Note_on_c, 0, 89, 0
1, 40546, Note_on_c, 0, 66, 0
1, 40559, Note_on_c, 0, 62, 0
1, 40577, Note_on_c, 0, 88, 34
1, 40578, Note_on_c, 0, 56, 0
1, 40580, Note_on_c, 0, 86, 31
1, 40582, Note_on_c, 0, 76, 35
1, 40583, Note_on_c, 0, 81, 26
1, 40583, Note_on_c, 0, 80, 20
1, 40596, Note_on_c, 0, 81, 0
1, 40601, Note_on_c, 0, 80, 0
1, 40609, Note_on_c, 0, 76, 0
1, 40611, Note_on_c, 0, 88, 0
1, 40615, Note_on_c, 0, 86, 0
1, 40661, Note_on_c, 0, 74, 34
1, 40661, Note_on_c, 0, 79, 47
1, 40664, Note_on_c, 0, 82, 33
1, 40664, Note_on_c, 0, 39, 51
1, 40673, Control_c, 0, 64, 0
1, 40679, Note_on_c, 0, 46, 25
1, 40700, Control_c, 0, 64, 127
1, 40704, Note_on_c, 0, 79, 0
1, 40710, Note_on_c, 0, 82, 0
1, 40711, Note_on_c, 0, 39, 0
1, 40718, Note_on_c, 0, 74, 0
1, 40748, Note_on_c, 0, 46, 0
1, 40754, Note_on_c, 0, 55, 61
1, 40797, Note_on_c, 0, 58, 44
1, 40810, Note_on_c, 0, 55, 0
1, 40844, Note_on_c, 0, 62, 60
1, 40850, Note_on_c, 0, 67, 41
1, 40860, Control_c, 0, 64, 0
1, 40871, Note_on_c, 0, 67, 0
1, 40885, Note_on_c, 0, 70, 57
1, 40900, Note_on_c, 0, 70, 0
1, 40918, Note_on_c, 0, 72, 59
1, 40934, Note_on_c, 0, 72, 0
1, 40950, Note_on_c, 0, 74, 50
1, 40958, Note_on_c, 0, 74, 0
1, 40983, Note_on_c, 0, 77, 51
1, 40993, Note_on_c, 0, 62, 0
1, 40997, Note_on_c, 0, 77, 0
1, 41010, Note_on_c, 0, 79, 68
1, 41028, Note_on_c, 0, 79, 0
1, 41040, Note_on_c, 0, 82, 70
1, 41055, Note_on_c, 0, 82, 0
1, 41066, Control_c, 0, 64, 127
1, 41072, Note_on_c, 0, 84, 79
1, 41091, Note_on_c, 0, 84, 0
1, 41094, Control_c, 0, 64, 0
1, 41100, Note_on_c, 0, 86, 74
1, 41106, Note_on_c, 0, 67, 34
1, 41106, Note_on_c, 0, 62, 40
1, 41116, Note_on_c, 0, 86, 0
1, 41121, Control_c, 0, 64, 127
1, 41125, Note_on_c, 0, 67, 0
1, 41137, Note_on_c, 0, 62, 0
1, 41138, Note_on_c, 0, 89, 75
1, 41151, Note_on_c, 0, 58, 0
1, 41153, Note_on_c, 0, 89, 0
1, 41168, Note_on_c, 0, 91, 75
1, 41185, Note_on_c, 0, 91, 0
1, 41202, Note_on_c, 0, 94, 70
1, 41226, Note_on_c, 0, 94, 0
1, 41234, Note_on_c, 0, 98, 80
1, 41257, Control_c, 0, 64, 0
1, 41258, Note_on_c, 0, 98, 0
1, 41272, Note_on_c, 0, 97, 74
1, 41289, Note_on_c, 0, 97, 0
1, 41299, Control_c, 0, 64, 127
1, 41309, Note_on_c, 0, 96, 82
1, 41330, Note_on_c, 0, 96, 0
1, 41337, Control_c, 0, 64, 0
1, 41346, Note_on_c, 0, 39, 51
1, 41346, Note_on_c, 0, 94, 77
1, 41348, Note_on_c, 0, 54, 38
1, 41367, Note_on_c, 0, 94, 0
1, 41373, Control_c, 0, 64, 127
1, 41374, Note_on_c, 0, 39, 0
1, 41390, Note_on_c, 0, 54, 0
1, 41391, Note_on_c, 0, 90, 55
1, 41415, Note_on_c, 0, 90, 0
1, 41434, Note_on_c, 0, 89, 63
1, 41437, Note_on_c, 0, 91, 47
1, 41444, Note_on_c, 0, 91, 0
1, 41450, Note_on_c, 0, 89, 0
1, 41472, Note_on_c, 0, 87, 77
1, 41508, Note_on_c, 0, 87, 0
1, 41523, Note_on_c, 0, 86, 61
1, 41524, Note_on_c, 0, 60, 40
1, 41524, Note_on_c, 0, 65, 35
1, 41525, Note_on_c, 0, 54, 34
1, 41526, Control_c, 0, 64, 0
1, 41554, Note_on_c, 0, 86, 0
1, 41568, Note_on_c, 0, 85, 52
1, 41588, Note_on_c, 0, 85, 0
1, 41592, Control_c, 0, 64, 127
1, 41612, Note_on_c, 0, 65, 0
1, 41614, Note_on_c, 0, 84, 55
1, 41632, Note_on_c, 0, 60, 0
1, 41656, Note_on_c, 0, 64, 48
1, 41662, Note_on_c, 0, 60, 35
1, 41663, Control_c, 0, 64, 0
1, 41675, Control_c, 0, 64, 127
1, 41700, Note_on_c, 0, 84, 0
1, 41710, Note_on_c, 0, 83, 46
1, 41721, Note_on_c, 0, 54, 0
1, 41750, Note_on_c, 0, 54, 44
1, 41755, Note_on_c, 0, 64, 0
1, 41770, Note_on_c, 0, 54, 0
1, 41777, Note_on_c, 0, 60, 0
1, 41785, Note_on_c, 0, 83, 0
1, 41794, Note_on_c, 0, 60, 37
1, 41796, Note_on_c, 0, 63, 59
1, 41797, Control_c, 0, 64, 0
1, 41798, Note_on_c, 0, 82, 67
1, 41799, Note_on_c, 0, 56, 36
1, 41825, Control_c, 0, 64, 127
1, 41829, Note_on_c, 0, 63, 0
1, 41837, Note_on_c, 0, 60, 0
1, 41844, Note_on_c, 0, 56, 0
1, 41850, Note_on_c, 0, 82, 0
1, 41935, Note_on_c, 0, 58, 52
1, 41938, Note_on_c, 0, 70, 59
1, 41938, Note_on_c, 0, 63, 57
1, 41940, Note_on_c, 0, 60, 46
1, 41942, Note_on_c, 0, 65, 43
1, 41954, Control_c, 0, 64, 0
1, 41992, Control_c, 0, 64, 127
1, 42022, Note_on_c, 0, 65, 0
1, 42025, Note_on_c, 0, 60, 0
1, 42033, Note_on_c, 0, 63, 0
1, 42050, Note_on_c, 0, 70, 0
1, 42056, Note_on_c, 0, 58, 0
1, 42068, Note_on_c, 0, 68, 49
1, 42070, Note_on_c, 0, 60, 41
1, 42071, Note_on_c, 0, 63, 30
1, 42072, Control_c, 0, 64, 0
1, 42072, Note_on_c, 0, 56, 33
1, 42073, Note_on_c, 0, 65, 36
1, 42098, Note_on_c, 0, 56, 0
1, 42098, Control_c, 0, 64, 127
1, 42159, Note_on_c, 0, 44, 79
1, 42166, Note_on_c, 0, 54, 53
1, 42166, Note_on_c, 0, 47, 51
1, 42172, Note_on_c, 0, 54, 0
1, 42173, Note_on_c, 0, 47, 0
1, 42188, Control_c, 0, 64, 0
1, 42222, Control_c, 0, 64, 127
1, 42271, Note_on_c, 0, 65, 0
1, 42272, Note_on_c, 0, 68, 0
1, 42274, Note_on_c, 0, 60, 0
1, 42281, Note_on_c, 0, 63, 0
1, 42336, Note_on_c, 0, 44, 0
1, 42350, Note_on_c, 0, 43, 43
1, 42351, Control_c, 0, 64, 0
1, 42352, Note_on_c, 0, 61, 46
1, 42353, Note_on_c, 0, 58, 28
1, 42375, Control_c, 0, 64, 127
1, 42380, Note_on_c, 0, 61, 0
1, 42388, Note_on_c, 0, 58, 0
1, 42476, Note_on_c, 0, 43, 0
1, 42487, Note_on_c, 0, 73, 77
1, 42515, Note_on_c, 0, 73, 0
1, 42523, Control_c, 0, 64, 0
1, 42571, Note_on_c, 0, 72, 67
1, 42591, Note_on_c, 0, 72, 0
1, 42620, Note_on_c, 0, 48, 38
1, 42621, Control_c, 0, 64, 127
1, 42622, Note_on_c, 0, 70, 58
1, 42628, Note_on_c, 0, 58, 25
1, 42659, Note_on_c, 0, 70, 0
1, 42704, Note_on_c, 0, 72, 61
1, 42722, Note_on_c, 0, 72, 0
1, 42729, Note_on_c, 0, 48, 0
1, 42740, Note_on_c, 0, 58, 0
1, 42748, Note_on_c, 0, 73, 67
1, 42765, Note_on_c, 0, 73, 0
1, 42797, Note_on_c, 0, 73, 21
1, 42808, Note_on_c, 0, 73, 0
1, 42836, Control_c, 0, 64, 0
1, 42838, Note_on_c, 0, 72, 48
1, 42843, Note_on_c, 0, 57, 49
1, 42844, Note_on_c, 0, 67, 54
1, 42844, Note_on_c, 0, 62, 58
1, 42874, Control_c, 0, 64, 127
1, 42918, Note_on_c, 0, 67, 0
1, 42923, Note_on_c, 0, 62, 0
1, 42933, Note_on_c, 0, 72, 0
1, 42954, Note_on_c, 0, 57, 0
1, 42967, Note_on_c, 0, 66, 43
1, 42968, Note_on_c, 0, 61, 37
1, 42969, Note_on_c, 0, 56, 31
1, 42970, Note_on_c, 0, 71, 18
1, 42985, Note_on_c, 0, 71, 0
1, 42991, Note_on_c, 0, 66, 0
1, 42992, Note_on_c, 0, 61, 0
1, 42994, Control_c, 0, 64, 0
1, 43004, Note_on_c, 0, 56, 0
1, 43011, Note_on_c, 0, 72, 45
1, 43011, Note_on_c, 0, 57, 59
1, 43018, Note_on_c, 0, 62, 47
1, 43019, Note_on_c, 0, 57, 0
1, 43019, Note_on_c, 0, 72, 0
1, 43026, Note_on_c, 0, 62, 0
1, 43089, Control_c, 0, 64, 127
1, 43099, Note_on_c, 0, 48, 51
1, 43123, Note_on_c, 0, 48, 0
1, 43143, Control_c, 0, 64, 0
1, 43148, Note_on_c, 0, 41, 43
1, 43177, Control_c, 0, 64, 127
1, 43226, Note_on_c, 0, 48, 36
1, 43236, Note_on_c, 0, 65, 58
1, 43237, Note_on_c, 0, 55, 53
1, 43237, Note_on_c, 0, 60, 62
1, 43238, Note_on_c, 0, 48, 0
1, 43242, Note_on_c, 0, 50, 53
1, 43261, Control_c, 0, 64, 0
1, 43290, Note_on_c, 0, 41, 0
1, 43297, Control_c, 0, 64, 127
1, 43309, Note_on_c, 0, 55, 0
1, 43322, Note_on_c, 0, 60, 0
1, 43326, Note_on_c, 0, 65, 0
1, 43329, Note_on_c, 0, 50, 0
1, 43430, Note_on_c, 0, 70, 74
1, 43430, Note_on_c, 0, 66, 67
1, 43430, Note_on_c, 0, 63, 69
1, 43432, Note_on_c, 0, 58, 67
1, 43432, Note_on_c, 0, 59, 64
1, 43436, Control_c, 0, 64, 0
1, 43490, Control_c, 0, 64, 127
1, 43520, Note_on_c, 0, 59, 0
1, 43520, Note_on_c, 0, 63, 0
1, 43520, Note_on_c, 0, 66, 0
1, 43550, Note_on_c, 0, 70, 0
1, 43562, Note_on_c, 0, 68, 51
1, 43567, Note_on_c, 0, 56, 36
1, 43567, Note_on_c, 0, 63, 47
1, 43569, Note_on_c, 0, 59, 34
1, 43572, Note_on_c, 0, 58, 0
1, 43573, Note_on_c, 0, 66, 33
1, 43607, Note_on_c, 0, 56, 0
1, 43641, Note_on_c, 0, 66, 0
1, 43647, Note_on_c, 0, 68, 0
1, 43650, Note_on_c, 0, 59, 0
1, 43653, Note_on_c, 0, 63, 0
1, 43698, Control_c, 0, 64, 0
1, 43700, Note_on_c, 0, 59, 37
1, 43700, Note_on_c, 0, 67, 44
1, 43700, Note_on_c, 0, 56, 34
1, 43702, Note_on_c, 0, 62, 34
1, 43704, Note_on_c, 0, 46, 31
1, 43705, Note_on_c, 0, 64, 33
1, 43734, Control_c, 0, 64, 127
1, 43784, Note_on_c, 0, 62, 0
1, 43792, Note_on_c, 0, 59, 0
1, 43818, Note_on_c, 0, 64, 0
1, 43830, Note_on_c, 0, 56, 0
1, 43836, Note_on_c, 0, 62, 39
1, 43838, Note_on_c, 0, 59, 42
1, 43844, Note_on_c, 0, 46, 0
1, 43847, Note_on_c, 0, 67, 0
1, 43856, Note_on_c, 0, 59, 0
1, 43869, Note_on_c, 0, 62, 0
1, 43923, Note_on_c, 0, 39, 64
1, 43924, Note_on_c, 0, 46, 64
1, 43927, Control_c, 0, 64, 0
1, 43957, Control_c, 0, 64, 127
1, 43981, Note_on_c, 0, 39, 0
1, 43989, Note_on_c, 0, 46, 0
1, 44065, Note_on_c, 0, 55, 76
1, 44066, Note_on_c, 0, 60, 72
1, 44066, Note_on_c, 0, 65, 82
1, 44066, Note_on_c, 0, 82, 91
1, 44068, Note_on_c, 0, 70, 97
1, 44110, Note_on_c, 0, 70, 0
1, 44114, Note_on_c, 0, 82, 0
1, 44133, Note_on_c, 0, 82, 69
1, 44135, Note_on_c, 0, 70, 69
1, 44162, Note_on_c, 0, 70, 0
1, 44168, Note_on_c, 0, 82, 0
1, 44180, Note_on_c, 0, 55, 0
1, 44186, Note_on_c, 0, 65, 0
1, 44188, Note_on_c, 0, 60, 0
1, 44217, Note_on_c, 0, 55, 52
1, 44218, Note_on_c, 0, 65, 54
1, 44220, Note_on_c, 0, 82, 81
1, 44220, Note_on_c, 0, 60, 53
1, 44221, Note_on_c, 0, 70, 82
1, 44232, Note_on_c, 0, 65, 0
1, 44236, Note_on_c, 0, 55, 0
1, 44236, Note_on_c, 0, 70, 0
1, 44244, Note_on_c, 0, 82, 0
1, 44250, Note_on_c, 0, 60, 0
1, 44284, Note_on_c, 0, 60, 74
1, 44284, Note_on_c, 0, 82, 83
1, 44285, Note_on_c, 0, 65, 84
1, 44286, Note_on_c, 0, 54, 75
1, 44286, Control_c, 0, 64, 0
1, 44286, Note_on_c, 0, 70, 83
1, 44332, Control_c, 0, 64, 127
1, 44450, Note_on_c, 0, 60, 0
1, 44452, Note_on_c, 0, 70, 0
1, 44453, Note_on_c, 0, 65, 0
1, 44455, Note_on_c, 0, 54, 0
1, 44456, Note_on_c, 0, 82, 0
1, 44502, Note_on_c, 0, 60, 53
1, 44505, Note_on_c, 0, 54, 46
1, 44506, Note_on_c, 0, 82, 69
1, 44506, Note_on_c, 0, 65, 32
1, 44510, Note_on_c, 0, 70, 62
1, 44518, Note_on_c, 0, 65, 0
1, 44528, Note_on_c, 0, 60, 0
1, 44538, Note_on_c, 0, 82, 0
1, 44548, Note_on_c, 0, 70, 0
1, 44553, Note_on_c, 0, 54, 0
1, 44574, Note_on_c, 0, 64, 44
1, 44575, Control_c, 0, 64, 0
1, 44576, Note_on_c, 0, 80, 55
1, 44578, Note_on_c, 0, 53, 39
1, 44578, Note_on_c, 0, 59, 44
1, 44579, Note_on_c, 0, 68, 45
1, 44609, Control_c, 0, 64, 127
1, 44637, Note_on_c, 0, 53, 0
1, 44639, Note_on_c, 0, 64, 0
1, 44640, Note_on_c, 0, 68, 0
1, 44644, Note_on_c, 0, 80, 0
1, 44646, Note_on_c, 0, 59, 0
1, 44668, Note_on_c, 0, 64, 35
1, 44668, Note_on_c, 0, 53, 34
1, 44669, Note_on_c, 0, 59, 49
1, 44669, Note_on_c, 0, 80, 40
1, 44672, Note_on_c, 0, 68, 38
1, 44698, Note_on_c, 0, 59, 0
1, 44698, Note_on_c, 0, 64, 0
1, 44698, Note_on_c, 0, 53, 0
1, 44707, Note_on_c, 0, 80, 0
1, 44708, Note_on_c, 0, 68, 0
1, 44796, Note_on_c, 0, 79, 47
1, 44797, Note_on_c, 0, 67, 45
1, 44798, Note_on_c, 0, 63, 42
1, 44802, Control_c, 0, 64, 0
1, 44802, Note_on_c, 0, 58, 30
1, 44804, Note_on_c, 0, 52, 39
1, 44830, Control_c, 0, 64, 127
1, 44835, Note_on_c, 0, 63, 0
1, 44841, Note_on_c, 0, 52, 0
1, 44842, Note_on_c, 0, 58, 0
1, 44920, Control_c, 0, 64, 0
1, 44935, Note_on_c, 0, 47, 58
1, 44983, Note_on_c, 0, 47, 0
1, 44990, Note_on_c, 0, 48, 53
1, 45009, Note_on_c, 0, 48, 0
1, 45028, Control_c, 0, 64, 127
1, 45064, Control_c, 0, 64, 0
1, 45070, Control_c, 0, 64, 127
1, 45078, Note_on_c, 0, 40, 46
1, 45119, Note_on_c, 0, 40, 0
1, 45128, Note_on_c, 0, 79, 0
1, 45129, Note_on_c, 0, 67, 0
1, 45133, Note_on_c, 0, 41, 62
1, 45140, Control_c, 0, 64, 0
1, 45176, Control_c, 0, 64, 127
1, 45225, Note_on_c, 0, 29, 66
1, 45239, Note_on_c, 0, 41, 0
1, 45244, Note_on_c, 0, 29, 0
1, 45277, Note_on_c, 0, 64, 70
1, 45280, Note_on_c, 0, 65, 77
1, 45286, Note_on_c, 0, 65, 0
1, 45310, Note_on_c, 0, 65, 4
1, 45312, Note_on_c, 0, 64, 0
1, 45324, Note_on_c, 0, 65, 0
1, 45366, Note_on_c, 0, 65, 82
1, 45395, Note_on_c, 0, 65, 0
1, 45419, Note_on_c, 0, 62, 57
1, 45420, Note_on_c, 0, 68, 91
1, 45421, Note_on_c, 0, 56, 59
1, 45423, Control_c, 0, 64, 0
1, 45447, Control_c, 0, 64, 127
1, 45505, Note_on_c, 0, 72, 58
1, 45519, Note_on_c, 0, 62, 0
1, 45526, Note_on_c, 0, 68, 0
1, 45530, Note_on_c, 0, 56, 0
1, 45544, Note_on_c, 0, 72, 0
1, 45557, Note_on_c, 0, 75, 80
1, 45618, Note_on_c, 0, 75, 0
1, 45644, Note_on_c, 0, 75, 71
1, 45648, Note_on_c, 0, 39, 56
1, 45658, Control_c, 0, 64, 0
1, 45688, Control_c, 0, 64, 127
1, 45728, Note_on_c, 0, 75, 0
1, 45770, Note_on_c, 0, 39, 0
1, 45772, Note_on_c, 0, 46, 43
1, 45832, Note_on_c, 0, 55, 24
1, 45871, Note_on_c, 0, 55, 0
1, 45906, Note_on_c, 0, 55, 22
1, 45913, Note_on_c, 0, 65, 57
1, 45914, Note_on_c, 0, 62, 44
1, 45919, Note_on_c, 0, 58, 32
1, 45924, Note_on_c, 0, 46, 0
1, 45928, Note_on_c, 0, 55, 0
1, 45936, Note_on_c, 0, 58, 0
1, 45944, Note_on_c, 0, 65, 0
1, 45951, Note_on_c, 0, 62, 0
1, 45972, Note_on_c, 0, 63, 47
1, 45974, Note_on_c, 0, 60, 49
1, 45974, Note_on_c, 0, 56, 37
1, 45985, Control_c, 0, 64, 0
1, 46021, Control_c, 0, 64, 127
1, 46066, Note_on_c, 0, 46, 46
1, 46106, Note_on_c, 0, 56, 0
1, 46128, Note_on_c, 0, 46, 0
1, 46147, Note_on_c, 0, 60, 0
1, 46208, Note_on_c, 0, 46, 29
1, 46211, Note_on_c, 0, 63, 0
1, 46211, Note_on_c, 0, 39, 28
1, 46234, Note_on_c, 0, 39, 0
1, 46256, Note_on_c, 0, 46, 0
1, 46256, Note_on_c, 0, 39, 35
1, 46261, Note_on_c, 0, 65, 57
1, 46261, Note_on_c, 0, 57, 58
1, 46262, Note_on_c, 0, 62, 41
1, 46262, Note_on_c, 0, 47, 46
1, 46263, Note_on_c, 0, 54, 55
1, 46268, Control_c, 0, 64, 0
1, 46312, Control_c, 0, 64, 127
1, 46322, Note_on_c, 0, 57, 0
1, 46328, Note_on_c, 0, 62, 0
1, 46344, Note_on_c, 0, 65, 0
1, 46348, Note_on_c, 0, 54, 0
1, 46396, Note_on_c, 0, 47, 0
1, 46406, Control_c, 0, 64, 0
1, 46407, Note_on_c, 0, 63, 44
1, 46413, Note_on_c, 0, 48, 39
1, 46421, Note_on_c, 0, 58, 15
1, 46432, Control_c, 0, 64, 127
1, 46454, Note_on_c, 0, 39, 0
1, 46458, Note_on_c, 0, 58, 0
1, 46460, Note_on_c, 0, 48, 0
1, 46466, Note_on_c, 0, 63, 0
1, 46551, Note_on_c, 0, 74, 48
1, 46554, Note_on_c, 0, 66, 37
1, 46556, Note_on_c, 0, 63, 36
1, 46556, Note_on_c, 0, 62, 46
1, 46557, Note_on_c, 0, 51, 47
1, 46559, Note_on_c, 0, 69, 39
1, 46560, Control_c, 0, 64, 0
1, 46596, Control_c, 0, 64, 127
1, 46625, Note_on_c, 0, 69, 0
1, 46632, Note_on_c, 0, 62, 0
1, 46638, Note_on_c, 0, 66, 0
1, 46650, Note_on_c, 0, 74, 0
1, 46655, Note_on_c, 0, 63, 0
1, 46693, Control_c, 0, 64, 0
1, 46697, Note_on_c, 0, 63, 35
1, 46698, Note_on_c, 0, 67, 36
1, 46698, Note_on_c, 0, 72, 44
1, 46700, Note_on_c, 0, 60, 32
1, 46702, Note_on_c, 0, 70, 40
1, 46713, Control_c, 0, 64, 127
1, 46744, Note_on_c, 0, 67, 0
1, 46753, Note_on_c, 0, 63, 0
1, 46755, Note_on_c, 0, 51, 0
1, 46759, Note_on_c, 0, 60, 0
1, 46768, Note_on_c, 0, 72, 0
1, 46776, Note_on_c, 0, 70, 0
1, 46825, Control_c, 0, 64, 0
1, 46828, Note_on_c, 0, 68, 44
1, 46830, Note_on_c, 0, 63, 25
1, 46832, Note_on_c, 0, 60, 30
1, 46833, Note_on_c, 0, 65, 37
1, 46834, Note_on_c, 0, 53, 28
1, 46836, Note_on_c, 0, 56, 25
1, 46851, Control_c, 0, 64, 127
1, 46866, Note_on_c, 0, 53, 0
1, 46872, Note_on_c, 0, 60, 0
1, 46881, Note_on_c, 0, 56, 0
1, 46887, Note_on_c, 0, 65, 0
1, 46893, Note_on_c, 0, 63, 0
1, 46908, Note_on_c, 0, 68, 0
1, 46956, Control_c, 0, 64, 0
1, 46961, Note_on_c, 0, 67, 46
1, 46962, Note_on_c, 0, 63, 37
1, 46964, Note_on_c, 0, 60, 38
1, 46967, Note_on_c, 0, 56, 30
1, 47006, Control_c, 0, 64, 127
1, 47006, Note_on_c, 0, 75, 50
1, 47028, Note_on_c, 0, 75, 0
1, 47035, Note_on_c, 0, 67, 0
1, 47043, Note_on_c, 0, 56, 0
1, 47045, Note_on_c, 0, 63, 0
1, 47046, Note_on_c, 0, 77, 84
1, 47058, Note_on_c, 0, 60, 0
1, 47080, Note_on_c, 0, 77, 0
1, 47092, Note_on_c, 0, 79, 71
1, 47092, Note_on_c, 0, 62, 51
1, 47093, Note_on_c, 0, 66, 51
1, 47094, Control_c, 0, 64, 0
1, 47096, Note_on_c, 0, 74, 66
1, 47100, Note_on_c, 0, 56, 30
1, 47126, Control_c, 0, 64, 127
1, 47144, Note_on_c, 0, 74, 0
1, 47147, Note_on_c, 0, 79, 0
1, 47182, Note_on_c, 0, 82, 76
1, 47186, Note_on_c, 0, 66, 0
1, 47190, Note_on_c, 0, 62, 0
1, 47228, Note_on_c, 0, 82, 0
1, 47230, Control_c, 0, 64, 0
1, 47233, Note_on_c, 0, 66, 34
1, 47234, Note_on_c, 0, 79, 35
1, 47235, Note_on_c, 0, 62, 26
1, 47258, Note_on_c, 0, 79, 0
1, 47268, Control_c, 0, 64, 127
1, 47275, Note_on_c, 0, 82, 63
1, 47284, Note_on_c, 0, 62, 0
1, 47291, Note_on_c, 0, 66, 0
1, 47306, Note_on_c, 0, 82, 0
1, 47318, Note_on_c, 0, 56, 0
1, 47327, Note_on_c, 0, 77, 62
1, 47359, Control_c, 0, 64, 0
1, 47365, Note_on_c, 0, 62, 30
1, 47368, Note_on_c, 0, 60, 31
1, 47369, Note_on_c, 0, 65, 25
1, 47376, Note_on_c, 0, 65, 0
1, 47378, Note_on_c, 0, 60, 0
1, 47379, Note_on_c, 0, 62, 0
1, 47387, Control_c, 0, 64, 127
1, 47438, Note_on_c, 0, 77, 0
1, 47452, Note_on_c, 0, 46, 34
1, 47454, Note_on_c, 0, 39, 35
1, 47482, Note_on_c, 0, 46, 0
1, 47508, Note_on_c, 0, 50, 43
1, 47513, Control_c, 0, 64, 0
1, 47563, Control_c, 0, 64, 127
1, 47582, Note_on_c, 0, 50, 0
1, 47599, Note_on_c, 0, 46, 39
1, 47631, Note_on_c, 0, 46, 0
1, 47644, Control_c, 0, 64, 0
1, 47649, Note_on_c, 0, 48, 45
1, 47650, Note_on_c, 0, 55, 54
1, 47652, Note_on_c, 0, 63, 39
1, 47654, Note_on_c, 0, 58, 46
1, 47654, Note_on_c, 0, 60, 46
1, 47714, Control_c, 0, 64, 127
1, 47715, Note_on_c, 0, 39, 0
1, 47741, Note_on_c, 0, 39, 78
1, 47763, Note_on_c, 0, 48, 0
1, 47792, Note_on_c, 0, 60, 0
1, 47798, Note_on_c, 0, 55, 0
1, 47821, Note_on_c, 0, 58, 0
1, 47831, Note_on_c, 0, 63, 0
1, 47882, Note_on_c, 0, 61, 58
1, 47883, Note_on_c, 0, 58, 55
1, 47884, Note_on_c, 0, 54, 59
1, 47884, Note_on_c, 0, 65, 59
1, 47884, Note_on_c, 0, 51, 59
1, 47892, Control_c, 0, 64, 0
1, 47918, Control_c, 0, 64, 127
1, 47935, Note_on_c, 0, 54, 0
1, 47954, Note_on_c, 0, 65, 0
1, 47960, Note_on_c, 0, 39, 0
1, 47967, Note_on_c, 0, 61, 0
1, 47974, Note_on_c, 0, 58, 0
1, 48004, Note_on_c, 0, 51, 0
1, 48016, Note_on_c, 0, 39, 59
1, 48058, Note_on_c, 0, 53, 44
1, 48067, Control_c, 0, 64, 0
1, 48076, Note_on_c, 0, 53, 0
1, 48077, Note_on_c, 0, 54, 53
1, 48082, Note_on_c, 0, 39, 0
1, 48096, Note_on_c, 0, 56, 47
1, 48102, Note_on_c, 0, 54, 0
1, 48112, Note_on_c, 0, 58, 53
1, 48117, Note_on_c, 0, 56, 0
1, 48124, Note_on_c, 0, 58, 0
1, 48133, Note_on_c, 0, 60, 74
1, 48147, Note_on_c, 0, 60, 0
1, 48154, Note_on_c, 0, 61, 27
1, 48166, Note_on_c, 0, 63, 55
1, 48168, Note_on_c, 0, 61, 0
1, 48180, Note_on_c, 0, 63, 0
1, 48190, Note_on_c, 0, 65, 62
1, 48204, Note_on_c, 0, 65, 0
1, 48207, Note_on_c, 0, 66, 46
1, 48222, Note_on_c, 0, 44, 38
1, 48224, Note_on_c, 0, 68, 52
1, 48228, Note_on_c, 0, 66, 0
1, 48228, Note_on_c, 0, 54, 18
1, 48241, Note_on_c, 0, 54, 0
1, 48242, Note_on_c, 0, 44, 0
1, 48244, Note_on_c, 0, 68, 0
1, 48249, Note_on_c, 0, 70, 56
1, 48258, Note_on_c, 0, 70, 0
1, 48275, Note_on_c, 0, 72, 54
1, 48282, Note_on_c, 0, 72, 0
1, 48292, Note_on_c, 0, 73, 51
1, 48308, Note_on_c, 0, 73, 0
1, 48316, Note_on_c, 0, 75, 50
1, 48322, Note_on_c, 0, 75, 0
1, 48340, Note_on_c, 0, 77, 43
1, 48348, Note_on_c, 0, 77, 0
1, 48355, Note_on_c, 0, 78, 56
1, 48365, Note_on_c, 0, 60, 34
1, 48366, Note_on_c, 0, 65, 26
1, 48368, Note_on_c, 0, 54, 32
1, 48371, Note_on_c, 0, 58, 23
1, 48378, Note_on_c, 0, 78, 0
1, 48380, Note_on_c, 0, 80, 37
1, 48400, Note_on_c, 0, 80, 0
1, 48408, Note_on_c, 0, 65, 0
1, 48424, Note_on_c, 0, 84, 53
1, 48433, Note_on_c, 0, 84, 0
1, 48434, Note_on_c, 0, 58, 0
1, 48437, Note_on_c, 0, 60, 0
1, 48437, Note_on_c, 0, 85, 52
1, 48453, Note_on_c, 0, 54, 0
1, 48461, Note_on_c, 0, 85, 0
1, 48468, Control_c, 0, 64, 127
1, 48469, Note_on_c, 0, 86, 37
1, 48482, Note_on_c, 0, 86, 0
1, 48494, Note_on_c, 0, 87, 72
1, 48503, Note_on_c, 0, 63, 37
1, 48510, Note_on_c, 0, 60, 30
1, 48514, Note_on_c, 0, 53, 25
1, 48515, Note_on_c, 0, 56, 27
1, 48516, Control_c, 0, 64, 0
1, 48524, Note_on_c, 0, 84, 65
1, 48528, Note_on_c, 0, 87, 0
1, 48555, Note_on_c, 0, 84, 0
1, 48575, Note_on_c, 0, 80, 53
1, 48590, Note_on_c, 0, 63, 0
1, 48592, Note_on_c, 0, 80, 0
1, 48614, Control_c, 0, 64, 127
1, 48618, Note_on_c, 0, 60, 0
1, 48635, Note_on_c, 0, 53, 0
1, 48640, Note_on_c, 0, 56, 0
1, 48674, Control_c, 0, 64, 0
1, 48698, Control_c, 0, 64, 127
1, 48743, Note_on_c, 0, 84, 69
1, 48744, Note_on_c, 0, 77, 60
1, 48745, Note_on_c, 0, 80, 64
1, 48771, Note_on_c, 0, 84, 0
1, 48773, Note_on_c, 0, 77, 0
1, 48780, Note_on_c, 0, 80, 0
1, 48785, Control_c, 0, 64, 0
1, 48787, Note_on_c, 0, 63, 23
1, 48791, Note_on_c, 0, 60, 47
1, 48853, Control_c, 0, 64, 127
1, 48855, Note_on_c, 0, 63, 0
1, 48879, Note_on_c, 0, 80, 57
1, 48880, Note_on_c, 0, 75, 67
1, 48881, Note_on_c, 0, 68, 68
1, 48885, Note_on_c, 0, 53, 55
1, 48889, Note_on_c, 0, 60, 0
1, 48899, Note_on_c, 0, 80, 0
1, 48900, Note_on_c, 0, 53, 0
1, 48901, Note_on_c, 0, 68, 0
1, 48904, Note_on_c, 0, 75, 0
1, 48911, Control_c, 0, 64, 0
1, 48936, Note_on_c, 0, 44, 56
1, 48945, Control_c, 0, 64, 127
1, 49005, Note_on_c, 0, 44, 0
1, 49020, Note_on_c, 0, 43, 70
1, 49036, Note_on_c, 0, 43, 0
1, 49068, Note_on_c, 0, 73, 85
1, 49069, Note_on_c, 0, 65, 81
1, 49069, Note_on_c, 0, 61, 73
1, 49070, Note_on_c, 0, 60, 87
1, 49072, Control_c, 0, 64, 0
1, 49074, Note_on_c, 0, 68, 39
1, 49080, Note_on_c, 0, 68, 0
1, 49110, Control_c, 0, 64, 127
1, 49172, Note_on_c, 0, 65, 0
1, 49181, Note_on_c, 0, 73, 0
1, 49182, Note_on_c, 0, 61, 0
1, 49202, Control_c, 0, 64, 0
1, 49204, Note_on_c, 0, 61, 46
1, 49204, Note_on_c, 0, 72, 64
1, 49206, Note_on_c, 0, 58, 52
1, 49207, Note_on_c, 0, 65, 67
1, 49216, Note_on_c, 0, 60, 0
1, 49240, Control_c, 0, 64, 127
1, 49262, Note_on_c, 0, 72, 0
1, 49263, Note_on_c, 0, 58, 0
1, 49275, Note_on_c, 0, 65, 0
1, 49287, Note_on_c, 0, 61, 0
1, 49338, Note_on_c, 0, 61, 40
1, 49339, Note_on_c, 0, 70, 54
1, 49341, Note_on_c, 0, 64, 49
1, 49342, Note_on_c, 0, 48, 42
1, 49342, Note_on_c, 0, 58, 35
1, 49344, Note_on_c, 0, 67, 37
1, 49344, Control_c, 0, 64, 0
1, 49386, Control_c, 0, 64, 127
1, 49393, Note_on_c, 0, 67, 0
1, 49400, Note_on_c, 0, 58, 0
1, 49402, Note_on_c, 0, 64, 0
1, 49406, Note_on_c, 0, 70, 0
1, 49408, Note_on_c, 0, 48, 0
1, 49418, Note_on_c, 0, 61, 0
1, 49478, Note_on_c, 0, 58, 40
1, 49479, Note_on_c, 0, 68, 45
1, 49480, Note_on_c, 0, 64, 41
1, 49480, Note_on_c, 0, 61, 46
1, 49481, Control_c, 0, 64, 0
1, 49482, Note_on_c, 0, 42, 25
1, 49521, Control_c, 0, 64, 127
1, 49546, Note_on_c, 0, 42, 0
1, 49554, Note_on_c, 0, 64, 0
1, 49560, Note_on_c, 0, 58, 0
1, 49560, Note_on_c, 0, 68, 0
1, 49567, Note_on_c, 0, 61, 0
1, 49573, Note_on_c, 0, 48, 30
1, 49603, Note_on_c, 0, 48, 0
1, 49618, Note_on_c, 0, 67, 39
1, 49618, Note_on_c, 0, 62, 51
1, 49619, Control_c, 0, 64, 0
1, 49621, Note_on_c, 0, 57, 44
1, 49624, Note_on_c, 0, 50, 26
1, 49625, Note_on_c, 0, 41, 27
1, 49659, Control_c, 0, 64, 127
1, 49663, Note_on_c, 0, 50, 0
1, 49672, Note_on_c, 0, 62, 0
1, 49677, Note_on_c, 0, 67, 0
1, 49686, Note_on_c, 0, 57, 0
1, 49750, Control_c, 0, 64, 0
1, 49750, Note_on_c, 0, 65, 55
1, 49750, Note_on_c, 0, 60, 60
1, 49752, Note_on_c, 0, 52, 50
1, 49755, Note_on_c, 0, 55, 32
1, 49766, Note_on_c, 0, 55, 0
1, 49768, Note_on_c, 0, 41, 0
1, 49774, Control_c, 0, 64, 127
1, 49778, Note_on_c, 0, 52, 0
1, 49786, Note_on_c, 0, 60, 0
1, 49791, Note_on_c, 0, 65, 0
1, 49834, Control_c, 0, 64, 0
1, 49842, Control_c, 0, 64, 127
1, 49843, Note_on_c, 0, 58, 72
1, 49844, Note_on_c, 0, 74, 58
1, 49846, Note_on_c, 0, 68, 74
1, 49847, Note_on_c, 0, 64, 69
1, 49881, Note_on_c, 0, 74, 0
1, 49885, Note_on_c, 0, 64, 0
1, 49886, Note_on_c, 0, 58, 0
1, 49891, Note_on_c, 0, 68, 0
1, 49894, Control_c, 0, 64, 0
1, 49902, Note_on_c, 0, 72, 56
1, 49904, Note_on_c, 0, 67, 54
1, 49906, Note_on_c, 0, 57, 57
1, 49906, Note_on_c, 0, 62, 50
1, 49930, Control_c, 0, 64, 127
1, 49935, Note_on_c, 0, 62, 0
1, 49941, Note_on_c, 0, 57, 0
1, 49942, Note_on_c, 0, 67, 0
1, 49946, Note_on_c, 0, 72, 0
1, 49994, Note_on_c, 0, 64, 72
1, 49998, Note_on_c, 0, 79, 72
1, 49998, Note_on_c, 0, 74, 71
1, 49998, Note_on_c, 0, 69, 74
1, 50011, Control_c, 0, 64, 0
1, 50033, Control_c, 0, 64, 127
1, 50048, Note_on_c, 0, 74, 0
1, 50051, Note_on_c, 0, 79, 0
1, 50057, Note_on_c, 0, 69, 0
1, 50076, Note_on_c, 0, 64, 0
1, 50084, Note_on_c, 0, 77, 61
1, 50088, Note_on_c, 0, 72, 58
1, 50088, Note_on_c, 0, 62, 51
1, 50092, Note_on_c, 0, 67, 36
1, 50094, Note_on_c, 0, 69, 25
1, 50098, Note_on_c, 0, 67, 0
1, 50101, Note_on_c, 0, 69, 0
1, 50104, Note_on_c, 0, 72, 0
1, 50107, Note_on_c, 0, 62, 0
1, 50111, Note_on_c, 0, 77, 0
1, 50174, Note_on_c, 0, 82, 72
1, 50175, Note_on_c, 0, 75, 72
1, 50176, Note_on_c, 0, 79, 62
1, 50178, Note_on_c, 0, 71, 51
1, 50179, Note_on_c, 0, 70, 81
1, 50181, Control_c, 0, 64, 0
1, 50221, Control_c, 0, 64, 127
1, 50239, Note_on_c, 0, 79, 0
1, 50242, Note_on_c, 0, 71, 0
1, 50242, Note_on_c, 0, 75, 0
1, 50257, Note_on_c, 0, 70, 0
1, 50258, Note_on_c, 0, 82, 0
1, 50272, Note_on_c, 0, 80, 47
1, 50275, Note_on_c, 0, 75, 62
1, 50277, Note_on_c, 0, 68, 56
1, 50279, Note_on_c, 0, 71, 50
1, 50296, Note_on_c, 0, 68, 0
1, 50301, Note_on_c, 0, 80, 0
1, 50308, Note_on_c, 0, 75, 0
1, 50312, Note_on_c, 0, 71, 0
1, 50400, Note_on_c, 0, 46, 36
1, 50458, Note_on_c, 0, 64, 53
1, 50458, Note_on_c, 0, 67, 41
1, 50458, Note_on_c, 0, 56, 43
1, 50458, Note_on_c, 0, 62, 48
1, 50460, Note_on_c, 0, 59, 41
1, 50464, Control_c, 0, 64, 0
1, 50504, Control_c, 0, 64, 127
1, 50542, Note_on_c, 0, 46, 0
1, 50592, Note_on_c, 0, 56, 0
1, 50600, Note_on_c, 0, 46, 46
1, 50626, Note_on_c, 0, 46, 0
1, 50626, Note_on_c, 0, 62, 0
1, 50628, Note_on_c, 0, 64, 0
1, 50638, Note_on_c, 0, 59, 0
1, 50639, Note_on_c, 0, 67, 0
1, 50740, Note_on_c, 0, 65, 57
1, 50741, Note_on_c, 0, 39, 42
1, 50741, Note_on_c, 0, 62, 36
1, 50742, Note_on_c, 0, 54, 59
1, 50743, Note_on_c, 0, 57, 60
1, 50749, Control_c, 0, 64, 0
1, 50765, Note_on_c, 0, 39, 0
1, 50809, Control_c, 0, 64, 127
1, 50816, Note_on_c, 0, 47, 68
1, 50852, Note_on_c, 0, 47, 0
1, 50856, Note_on_c, 0, 48, 60
1, 50859, Control_c, 0, 64, 0
1, 50878, Note_on_c, 0, 48, 0
1, 50887, Note_on_c, 0, 49, 47
1, 50905, Note_on_c, 0, 49, 0
1, 50913, Note_on_c, 0, 50, 38
1, 50936, Note_on_c, 0, 50, 0
1, 50950, Note_on_c, 0, 52, 53
1, 50961, Control_c, 0, 64, 127
1, 50973, Note_on_c, 0, 52, 0
1, 50982, Note_on_c, 0, 53, 50
1, 50987, Control_c, 0, 64, 0
1, 51011, Note_on_c, 0, 53, 0
1, 51025, Note_on_c, 0, 50, 50
1, 51034, Note_on_c, 0, 57, 0
1, 51034, Note_on_c, 0, 62, 0
1, 51038, Control_c, 0, 64, 127
1, 51044, Note_on_c, 0, 65, 0
1, 51046, Note_on_c, 0, 54, 0
1, 51051, Note_on_c, 0, 50, 0
1, 51062, Note_on_c, 0, 51, 54
1, 51064, Note_on_c, 0, 55, 55
1, 51064, Control_c, 0, 64, 0
1, 51064, Note_on_c, 0, 63, 28
1, 51065, Note_on_c, 0, 58, 55
1, 51111, Note_on_c, 0, 51, 0
1, 51118, Control_c, 0, 64, 127
1, 51130, Note_on_c, 0, 46, 69
1, 51136, Control_c, 0, 64, 0
1, 51188, Control_c, 0, 64, 127
1, 51191, Note_on_c, 0, 55, 0
1, 51193, Note_on_c, 0, 58, 0
1, 51214, Note_on_c, 0, 58, 46
1, 51217, Note_on_c, 0, 55, 36
1, 51249, Note_on_c, 0, 46, 0
1, 51261, Note_on_c, 0, 46, 42
1, 51292, Control_c, 0, 64, 0
1, 51296, Note_on_c, 0, 46, 0
1, 51304, Control_c, 0, 64, 127
1, 51306, Note_on_c, 0, 55, 0
1, 51314, Note_on_c, 0, 42, 28
1, 51321, Note_on_c, 0, 58, 0
1, 51337, Note_on_c, 0, 63, 0
1, 51339, Note_on_c, 0, 42, 0
1, 51360, Note_on_c, 0, 63, 33
1, 51362, Note_on_c, 0, 56, 37
1, 51364, Note_on_c, 0, 41, 56
1, 51364, Control_c, 0, 64, 0
1, 51365, Note_on_c, 0, 53, 35
1, 51367, Note_on_c, 0, 51, 28
1, 51368, Note_on_c, 0, 60, 43
1, 51403, Control_c, 0, 64, 127
1, 51408, Note_on_c, 0, 41, 0
1, 51409, Note_on_c, 0, 53, 0
1, 51423, Note_on_c, 0, 51, 0
1, 51438, Note_on_c, 0, 60, 0
1, 51440, Note_on_c, 0, 56, 0
1, 51448, Note_on_c, 0, 63, 0
1, 51506, Note_on_c, 0, 63, 45
1, 51507, Note_on_c, 0, 53, 33
1, 51508, Note_on_c, 0, 60, 41
1, 51510, Note_on_c, 0, 56, 31
1, 51523, Control_c, 0, 64, 0
1, 51533, Control_c, 0, 64, 127
1, 51558, Note_on_c, 0, 53, 0
1, 51559, Note_on_c, 0, 75, 71
1, 51565, Note_on_c, 0, 60, 0
1, 51584, Note_on_c, 0, 63, 0
1, 51586, Note_on_c, 0, 75, 0
1, 51590, Note_on_c, 0, 56, 0
1, 51604, Note_on_c, 0, 77, 90
1, 51643, Note_on_c, 0, 77, 0
1, 51652, Note_on_c, 0, 71, 45
1, 51653, Note_on_c, 0, 74, 34
1, 51653, Note_on_c, 0, 62, 39
1, 51655, Note_on_c, 0, 66, 36
1, 51655, Note_on_c, 0, 56, 33
1, 51656, Control_c, 0, 64, 0
1, 51696, Control_c, 0, 64, 127
1, 51704, Note_on_c, 0, 71, 0
1, 51706, Note_on_c, 0, 79, 39
1, 51711, Note_on_c, 0, 74, 0
1, 51724, Note_on_c, 0, 79, 0
1, 51738, Note_on_c, 0, 62, 0
1, 51750, Note_on_c, 0, 66, 0
1, 51797, Note_on_c, 0, 79, 66
1, 51800, Control_c, 0, 64, 0
1, 51800, Note_on_c, 0, 66, 32
1, 51803, Note_on_c, 0, 62, 31
1, 51825, Note_on_c, 0, 79, 0
1, 51828, Control_c, 0, 64, 127
1, 51841, Note_on_c, 0, 86, 60
1, 51846, Note_on_c, 0, 74, 41
1, 51846, Note_on_c, 0, 79, 35
1, 51857, Note_on_c, 0, 62, 0
1, 51861, Note_on_c, 0, 66, 0
1, 51869, Note_on_c, 0, 74, 0
1, 51870, Note_on_c, 0, 79, 0
1, 51880, Note_on_c, 0, 86, 0
1, 51904, Note_on_c, 0, 56, 0
1, 51938, Control_c, 0, 64, 0
1, 51938, Note_on_c, 0, 65, 42
1, 51938, Note_on_c, 0, 62, 33
1, 51939, Note_on_c, 0, 89, 67
1, 51939, Note_on_c, 0, 82, 46
1, 51943, Note_on_c, 0, 77, 37
1, 51944, Note_on_c, 0, 60, 28
1, 51944, Note_on_c, 0, 55, 27
1, 51946, Note_on_c, 0, 65, 0
1, 51952, Note_on_c, 0, 62, 0
1, 51952, Note_on_c, 0, 60, 0
1, 51959, Note_on_c, 0, 82, 0
1, 51962, Note_on_c, 0, 77, 0
1, 51966, Note_on_c, 0, 89, 0
1, 51968, Note_on_c, 0, 55, 0
1, 51994, Note_on_c, 0, 86, 37
1, 52003, Note_on_c, 0, 86, 0
1, 52040, Note_on_c, 0, 39, 46
1, 52042, Note_on_c, 0, 89, 74
1, 52044, Note_on_c, 0, 77, 58
1, 52045, Note_on_c, 0, 46, 32
1, 52045, Note_on_c, 0, 82, 44
1, 52047, Note_on_c, 0, 86, 37
1, 52056, Note_on_c, 0, 86, 0
1, 52056, Note_on_c, 0, 82, 0
1, 52060, Note_on_c, 0, 77, 0
1, 52066, Note_on_c, 0, 89, 0
1, 52072, Note_on_c, 0, 39, 0
1, 52077, Note_on_c, 0, 46, 0
1, 52136, Note_on_c, 0, 89, 71
1, 52136, Note_on_c, 0, 77, 65
1, 52137, Note_on_c, 0, 82, 52
1, 52139, Note_on_c, 0, 86, 38
1, 52170, Note_on_c, 0, 89, 0
1, 52171, Control_c, 0, 64, 127
1, 52173, Note_on_c, 0, 86, 0
1, 52174, Note_on_c, 0, 77, 0
1, 52182, Note_on_c, 0, 82, 0
1, 52211, Control_c, 0, 64, 0
1, 52213, Note_on_c, 0, 65, 58
1, 52215, Note_on_c, 0, 87, 49
1, 52216, Note_on_c, 0, 60, 47
1, 52216, Note_on_c, 0, 82, 55
1, 52217, Note_on_c, 0, 58, 31
1, 52218, Note_on_c, 0, 75, 45
1, 52220, Note_on_c, 0, 65, 0
1, 52223, Note_on_c, 0, 60, 0
1, 52226, Note_on_c, 0, 55, 16
1, 52235, Note_on_c, 0, 55, 0
1, 52237, Note_on_c, 0, 58, 0
1, 52238, Note_on_c, 0, 75, 0
1, 52240, Note_on_c, 0, 82, 0
1, 52251, Note_on_c, 0, 87, 0
1, 52287, Control_c, 0, 64, 127
1, 52308, Note_on_c, 0, 39, 32
1, 52314, Note_on_c, 0, 46, 36
1, 52319, Note_on_c, 0, 39, 0
1, 52351, Control_c, 0, 64, 0
1, 52352, Note_on_c, 0, 53, 63
1, 52394, Note_on_c, 0, 53, 0
1, 52406, Note_on_c, 0, 46, 0
1, 52434, Control_c, 0, 64, 127
1, 52437, Note_on_c, 0, 39, 46
1, 52450, Note_on_c, 0, 46, 21
1, 52454, Note_on_c, 0, 39, 0
1, 52482, Note_on_c, 0, 54, 42
1, 52485, Note_on_c, 0, 65, 53
1, 52488, Control_c, 0, 64, 0
1, 52489, Note_on_c, 0, 61, 33
1, 52491, Note_on_c, 0, 58, 37
1, 52518, Control_c, 0, 64, 127
1, 52528, Note_on_c, 0, 58, 0
1, 52529, Note_on_c, 0, 46, 0
1, 52533, Note_on_c, 0, 61, 0
1, 52533, Note_on_c, 0, 65, 0
1, 52539, Note_on_c, 0, 54, 0
1, 52578, Note_on_c, 0, 77, 77
1, 52617, Note_on_c, 0, 77, 0
1, 52623, Note_on_c, 0, 61, 39
1, 52625, Note_on_c, 0, 65, 45
1, 52626, Control_c, 0, 64, 0
1, 52631, Note_on_c, 0, 70, 55
1, 52631, Note_on_c, 0, 58, 28
1, 52639, Note_on_c, 0, 65, 0
1, 52641, Note_on_c, 0, 66, 10
1, 52662, Note_on_c, 0, 61, 0
1, 52664, Note_on_c, 0, 58, 0
1, 52698, Note_on_c, 0, 66, 0
1, 52704, Control_c, 0, 64, 127
1, 52706, Note_on_c, 0, 70, 0
1, 52718, Note_on_c, 0, 77, 66
1, 52724, Note_on_c, 0, 70, 34
1, 52735, Note_on_c, 0, 70, 0
1, 52748, Note_on_c, 0, 77, 0
1, 52762, Control_c, 0, 64, 0
1, 52763, Note_on_c, 0, 44, 48
1, 52764, Note_on_c, 0, 54, 42
1, 52767, Note_on_c, 0, 74, 33
1, 52768, Note_on_c, 0, 66, 29
1, 52772, Note_on_c, 0, 69, 48
1, 52802, Note_on_c, 0, 44, 0
1, 52806, Control_c, 0, 64, 127
1, 52810, Note_on_c, 0, 54, 0
1, 52840, Note_on_c, 0, 66, 0
1, 52841, Note_on_c, 0, 74, 0
1, 52842, Note_on_c, 0, 69, 0
1, 52854, Note_on_c, 0, 77, 66
1, 52880, Note_on_c, 0, 77, 0
1, 52900, Note_on_c, 0, 65, 55
1, 52901, Note_on_c, 0, 54, 47
1, 52902, Note_on_c, 0, 60, 50
1, 52903, Control_c, 0, 64, 0
1, 52908, Note_on_c, 0, 68, 21
1, 52912, Note_on_c, 0, 72, 34
1, 52947, Control_c, 0, 64, 127
1, 52950, Note_on_c, 0, 60, 0
1, 52969, Note_on_c, 0, 65, 0
1, 52974, Note_on_c, 0, 72, 0
1, 52978, Note_on_c, 0, 54, 0
1, 52982, Note_on_c, 0, 68, 0
1, 52989, Note_on_c, 0, 75, 79
1, 53024, Note_on_c, 0, 75, 0
1, 53033, Control_c, 0, 64, 0
1, 53038, Note_on_c, 0, 63, 50
1, 53039, Note_on_c, 0, 60, 48
1, 53041, Note_on_c, 0, 68, 58
1, 53042, Note_on_c, 0, 53, 40
1, 53042, Note_on_c, 0, 65, 55
1, 53044, Note_on_c, 0, 56, 37
1, 53059, Note_on_c, 0, 63, 0
1, 53062, Note_on_c, 0, 60, 0
1, 53072, Note_on_c, 0, 53, 0
1, 53074, Note_on_c, 0, 56, 0
1, 53075, Control_c, 0, 64, 127
1, 53113, Note_on_c, 0, 65, 0
1, 53114, Note_on_c, 0, 68, 0
1, 53124, Note_on_c, 0, 72, 68
1, 53143, Note_on_c, 0, 72, 0
1, 53172, Note_on_c, 0, 65, 52
1, 53173, Note_on_c, 0, 44, 36
1, 53173, Note_on_c, 0, 37, 37
1, 53174, Note_on_c, 0, 60, 47
1, 53176, Control_c, 0, 64, 0
1, 53209, Note_on_c, 0, 37, 0
1, 53216, Control_c, 0, 64, 127
1, 53219, Note_on_c, 0, 44, 0
1, 53237, Note_on_c, 0, 60, 0
1, 53253, Note_on_c, 0, 70, 60
1, 53266, Note_on_c, 0, 65, 0
1, 53276, Note_on_c, 0, 70, 0
1, 53308, Note_on_c, 0, 60, 36
1, 53308, Note_on_c, 0, 65, 50
1, 53309, Note_on_c, 0, 58, 43
1, 53310, Control_c, 0, 64, 0
1, 53357, Note_on_c, 0, 58, 0
1, 53358, Note_on_c, 0, 65, 0
1, 53380, Note_on_c, 0, 60, 0
1, 53386, Control_c, 0, 64, 127
1, 53395, Note_on_c, 0, 56, 61
1, 53412, Note_on_c, 0, 56, 0
1, 53441, Note_on_c, 0, 56, 52
1, 53443, Note_on_c, 0, 61, 58
1, 53444, Control_c, 0, 64, 0
1, 53444, Note_on_c, 0, 65, 63
1, 53446, Note_on_c, 0, 54, 74
1, 53449, Note_on_c, 0, 44, 51
1, 53476, Note_on_c, 0, 44, 0
1, 53491, Note_on_c, 0, 56, 0
1, 53492, Control_c, 0, 64, 127
1, 53511, Note_on_c, 0, 65, 0
1, 53518, Note_on_c, 0, 54, 0
1, 53524, Note_on_c, 0, 61, 0
1, 53534, Note_on_c, 0, 44, 63
1, 53558, Note_on_c, 0, 44, 0
1, 53575, Control_c, 0, 64, 0
1, 53582, Note_on_c, 0, 43, 68
1, 53590, Note_on_c, 0, 43, 0
1, 53599, Control_c, 0, 64, 127
1, 53722, Note_on_c, 0, 73, 81
1, 53723, Note_on_c, 0, 58, 77
1, 53723, Note_on_c, 0, 69, 80
1, 53724, Note_on_c, 0, 64, 76
1, 53725, Control_c, 0, 64, 0
1, 53755, Control_c, 0, 64, 127
1, 53770, Note_on_c, 0, 64, 0
1, 53770, Note_on_c, 0, 69, 0
1, 53775, Note_on_c, 0, 73, 0
1, 53803, Note_on_c, 0, 58, 0
1, 53810, Note_on_c, 0, 68, 72
1, 53811, Note_on_c, 0, 63, 64
1, 53811, Note_on_c, 0, 72, 63
1, 53813, Note_on_c, 0, 57, 57
1, 53813, Control_c, 0, 64, 0
1, 53844, Control_c, 0, 64, 127
1, 53853, Note_on_c, 0, 72, 0
1, 53863, Note_on_c, 0, 57, 0
1, 53868, Note_on_c, 0, 68, 0
1, 53873, Note_on_c, 0, 63, 0
1, 53901, Note_on_c, 0, 70, 53
1, 53901, Note_on_c, 0, 62, 58
1, 53902, Control_c, 0, 64, 0
1, 53903, Note_on_c, 0, 67, 45
1, 53903, Note_on_c, 0, 58, 39
1, 53904, Note_on_c, 0, 48, 43
1, 53928, Control_c, 0, 64, 127
1, 53934, Note_on_c, 0, 48, 0
1, 53936, Note_on_c, 0, 62, 0
1, 53951, Note_on_c, 0, 67, 0
1, 53960, Note_on_c, 0, 58, 0
1, 53972, Note_on_c, 0, 70, 0
1, 53992, Note_on_c, 0, 72, 67
1, 53992, Control_c, 0, 64, 0
1, 53993, Note_on_c, 0, 60, 57
1, 53993, Note_on_c, 0, 68, 64
1, 53995, Note_on_c, 0, 64, 54
1, 54014, Control_c, 0, 64, 127
1, 54025, Note_on_c, 0, 72, 0
1, 54030, Note_on_c, 0, 68, 0
1, 54040, Note_on_c, 0, 60, 0
1, 54046, Note_on_c, 0, 64, 0
1, 54080, Note_on_c, 0, 73, 70
1, 54084, Note_on_c, 0, 68, 62
1, 54084, Note_on_c, 0, 64, 58
1, 54087, Control_c, 0, 64, 0
1, 54088, Note_on_c, 0, 70, 44
1, 54090, Note_on_c, 0, 58, 52
1, 54115, Control_c, 0, 64, 127
1, 54138, Note_on_c, 0, 64, 0
1, 54141, Note_on_c, 0, 73, 0
1, 54144, Note_on_c, 0, 70, 0
1, 54147, Note_on_c, 0, 68, 0
1, 54162, Note_on_c, 0, 58, 0
1, 54165, Control_c, 0, 64, 0
1, 54172, Note_on_c, 0, 72, 53
1, 54173, Note_on_c, 0, 57, 46
1, 54174, Note_on_c, 0, 67, 51
1, 54175, Note_on_c, 0, 62, 49
1, 54193, Control_c, 0, 64, 127
1, 54196, Note_on_c, 0, 72, 0
1, 54202, Note_on_c, 0, 67, 0
1, 54207, Note_on_c, 0, 57, 0
1, 54220, Note_on_c, 0, 62, 0
1, 54260, Note_on_c, 0, 53, 53
1, 54261, Control_c, 0, 64, 0
1, 54263, Note_on_c, 0, 69, 54
1, 54263, Note_on_c, 0, 64, 53
1, 54267, Note_on_c, 0, 60, 35
1, 54282, Note_on_c, 0, 69, 0
1, 54284, Note_on_c, 0, 64, 0
1, 54287, Control_c, 0, 64, 127
1, 54294, Note_on_c, 0, 60, 0
1, 54319, Note_on_c, 0, 53, 0
1, 54350, Note_on_c, 0, 67, 60
1, 54352, Note_on_c, 0, 41, 47
1, 54353, Note_on_c, 0, 57, 51
1, 54354, Note_on_c, 0, 60, 42
1, 54356, Note_on_c, 0, 52, 38
1, 54368, Control_c, 0, 64, 0
1, 54400, Control_c, 0, 64, 127
1, 54415, Note_on_c, 0, 67, 0
1, 54416, Note_on_c, 0, 57, 0
1, 54420, Note_on_c, 0, 52, 0
1, 54422, Note_on_c, 0, 60, 0
1, 54436, Note_on_c, 0, 65, 64
1, 54436, Note_on_c, 0, 57, 42
1, 54438, Note_on_c, 0, 60, 64
1, 54444, Control_c, 0, 64, 0
1, 54445, Note_on_c, 0, 50, 44
1, 54466, Control_c, 0, 64, 127
1, 54491, Note_on_c, 0, 57, 0
1, 54492, Note_on_c, 0, 60, 0
1, 54506, Note_on_c, 0, 65, 0
1, 54512, Note_on_c, 0, 50, 0
1, 54512, Control_c, 0, 64, 0
1, 54526, Note_on_c, 0, 64, 60
1, 54528, Note_on_c, 0, 57, 54
1, 54528, Note_on_c, 0, 49, 33
1, 54532, Note_on_c, 0, 60, 50
1, 54557, Note_on_c, 0, 60, 0
1, 54558, Control_c, 0, 64, 127
1, 54564, Note_on_c, 0, 57, 0
1, 54574, Control_c, 0, 64, 0
1, 54581, Note_on_c, 0, 64, 0
1, 54590, Note_on_c, 0, 49, 0
1, 54608, Control_c, 0, 64, 127
1, 54610, Note_on_c, 0, 41, 0
1, 54611, Note_on_c, 0, 50, 55
1, 54612, Note_on_c, 0, 60, 54
1, 54614, Note_on_c, 0, 65, 49
1, 54618, Note_on_c, 0, 60, 0
1, 54619, Note_on_c, 0, 50, 0
1, 54621, Note_on_c, 0, 65, 0
1, 54662, Note_on_c, 0, 63, 72
1, 54662, Note_on_c, 0, 70, 79
1, 54662, Note_on_c, 0, 59, 79
1, 54665, Note_on_c, 0, 65, 66
1, 54666, Note_on_c, 0, 58, 87
1, 54669, Control_c, 0, 64, 0
1, 54707, Control_c, 0, 64, 127
1, 54749, Note_on_c, 0, 63, 0
1, 54750, Note_on_c, 0, 65, 0
1, 54752, Note_on_c, 0, 59, 0
1, 54774, Note_on_c, 0, 70, 0
1, 54788, Note_on_c, 0, 58, 0
1, 54798, Note_on_c, 0, 68, 52
1, 54801, Note_on_c, 0, 56, 38
1, 54802, Note_on_c, 0, 63, 52
1, 54804, Note_on_c, 0, 59, 41
1, 54808, Note_on_c, 0, 65, 38
1, 54826, Note_on_c, 0, 56, 0
1, 54844, Note_on_c, 0, 59, 0
1, 54859, Note_on_c, 0, 65, 0
1, 54869, Note_on_c, 0, 63, 0
1, 54874, Note_on_c, 0, 68, 0
1, 54930, Note_on_c, 0, 67, 38
1, 54931, Note_on_c, 0, 62, 45
1, 54935, Note_on_c, 0, 46, 33
1, 54935, Note_on_c, 0, 56, 32
1, 54935, Note_on_c, 0, 59, 36
1, 54936, Control_c, 0, 64, 0
1, 54937, Note_on_c, 0, 57, 35
1, 54984, Control_c, 0, 64, 127
1, 54995, Note_on_c, 0, 57, 0
1, 55008, Note_on_c, 0, 59, 0
1, 55011, Note_on_c, 0, 62, 0
1, 55017, Note_on_c, 0, 56, 0
1, 55043, Note_on_c, 0, 67, 0
1, 55066, Note_on_c, 0, 65, 49
1, 55067, Note_on_c, 0, 62, 35
1, 55070, Note_on_c, 0, 56, 25
1, 55100, Note_on_c, 0, 56, 0
1, 55101, Note_on_c, 0, 62, 0
1, 55103, Note_on_c, 0, 65, 0
1, 55105, Note_on_c, 0, 46, 0
1, 55195, Note_on_c, 0, 75, 71
1, 55196, Note_on_c, 0, 44, 65
1, 55197, Note_on_c, 0, 67, 70
1, 55197, Note_on_c, 0, 70, 69
1, 55198, Note_on_c, 0, 72, 58
1, 55199, Note_on_c, 0, 51, 64
1, 55208, Control_c, 0, 64, 0
1, 55242, Control_c, 0, 64, 127
1, 55289, Note_on_c, 0, 51, 0
1, 55316, Note_on_c, 0, 44, 0
1, 55331, Note_on_c, 0, 44, 25
1, 55335, Note_on_c, 0, 52, 54
1, 55339, Control_c, 0, 64, 0
1, 55349, Note_on_c, 0, 72, 0
1, 55352, Note_on_c, 0, 70, 0
1, 55365, Control_c, 0, 64, 127
1, 55369, Note_on_c, 0, 67, 0
1, 55423, Note_on_c, 0, 52, 0
1, 55437, Note_on_c, 0, 75, 0
1, 55458, Note_on_c, 0, 52, 19
1, 55466, Note_on_c, 0, 63, 37
1, 55467, Note_on_c, 0, 67, 39
1, 55467, Note_on_c, 0, 70, 47
1, 55470, Note_on_c, 0, 53, 62
1, 55471, Note_on_c, 0, 52, 0
1, 55477, Control_c, 0, 64, 0
1, 55548, Note_on_c, 0, 53, 0
1, 55555, Control_c, 0, 64, 127
1, 55558, Note_on_c, 0, 51, 43
1, 55586, Note_on_c, 0, 51, 0
1, 55598, Control_c, 0, 64, 0
1, 55604, Note_on_c, 0, 52, 55
1, 55618, Note_on_c, 0, 67, 0
1, 55626, Note_on_c, 0, 70, 0
1, 55634, Control_c, 0, 64, 127
1, 55663, Note_on_c, 0, 63, 0
1, 55667, Note_on_c, 0, 44, 0
1, 55684, Note_on_c, 0, 52, 0
1, 55689, Note_on_c, 0, 51, 86
1, 55690, Note_on_c, 0, 44, 83
1, 55722, Control_c, 0, 64, 0
1, 55798, Note_on_c, 0, 44, 0
1, 55808, Note_on_c, 0, 51, 0
1, 55820, Note_on_c, 0, 51, 51
1, 55820, Note_on_c, 0, 44, 55
1, 55824, Control_c, 0, 64, 127
1, 55852, Note_on_c, 0, 51, 0
1, 55866, Control_c, 0, 64, 0
1, 55870, Note_on_c, 0, 52, 62
1, 55914, Control_c, 0, 64, 127
1, 55997, Note_on_c, 0, 52, 0
1, 55998, Note_on_c, 0, 70, 69
1, 55998, Control_c, 0, 64, 0
1, 55999, Note_on_c, 0, 63, 65
1, 56000, Note_on_c, 0, 53, 66
1, 56000, Note_on_c, 0, 67, 60
1, 56002, Note_on_c, 0, 60, 65
1, 56067, Control_c, 0, 64, 127
1, 56088, Note_on_c, 0, 67, 0
1, 56095, Note_on_c, 0, 53, 0
1, 56095, Note_on_c, 0, 60, 0
1, 56098, Note_on_c, 0, 51, 35
1, 56102, Note_on_c, 0, 63, 0
1, 56110, Note_on_c, 0, 70, 0
1, 56124, Note_on_c, 0, 51, 0
1, 56131, Control_c, 0, 64, 0
1, 56135, Note_on_c, 0, 68, 46
1, 56136, Note_on_c, 0, 60, 47
1, 56136, Note_on_c, 0, 63, 47
1, 56137, Note_on_c, 0, 52, 59
1, 56175, Note_on_c, 0, 60, 0
1, 56185, Note_on_c, 0, 63, 0
1, 56189, Control_c, 0, 64, 127
1, 56194, Note_on_c, 0, 68, 0
1, 56219, Note_on_c, 0, 44, 0
1, 56221, Note_on_c, 0, 51, 56
1, 56226, Note_on_c, 0, 52, 0
1, 56251, Note_on_c, 0, 51, 0
1, 56259, Control_c, 0, 64, 0
1, 56266, Note_on_c, 0, 75, 71
1, 56266, Note_on_c, 0, 68, 59
1, 56266, Note_on_c, 0, 44, 56
1, 56267, Note_on_c, 0, 64, 64
1, 56268, Note_on_c, 0, 71, 51
1, 56269, Note_on_c, 0, 53, 60
1, 56282, Note_on_c, 0, 44, 0
1, 56287, Note_on_c, 0, 53, 0
1, 56297, Control_c, 0, 64, 127
1, 56358, Note_on_c, 0, 68, 0
1, 56360, Note_on_c, 0, 64, 0
1, 56371, Note_on_c, 0, 71, 0
1, 56372, Note_on_c, 0, 75, 0
1, 56388, Note_on_c, 0, 63, 39
1, 56391, Note_on_c, 0, 73, 50
1, 56392, Control_c, 0, 64, 0
1, 56392, Note_on_c, 0, 59, 48
1, 56393, Note_on_c, 0, 64, 36
1, 56393, Note_on_c, 0, 68, 35
1, 56394, Note_on_c, 0, 58, 33
1, 56430, Note_on_c, 0, 64, 0
1, 56436, Note_on_c, 0, 63, 0
1, 56438, Note_on_c, 0, 68, 0
1, 56446, Note_on_c, 0, 59, 0
1, 56449, Note_on_c, 0, 58, 0
1, 56456, Note_on_c, 0, 73, 0
1, 56464, Control_c, 0, 64, 127
1, 56474, Note_on_c, 0, 75, 64
1, 56474, Note_on_c, 0, 68, 69
1, 56478, Note_on_c, 0, 64, 63
1, 56485, Note_on_c, 0, 64, 0
1, 56490, Note_on_c, 0, 75, 0
1, 56491, Note_on_c, 0, 68, 0
1, 56502, Control_c, 0, 64, 0
1, 56512, Note_on_c, 0, 44, 46
1, 56547, Control_c, 0, 64, 127
1, 56586, Note_on_c, 0, 44, 0
1, 56599, Note_on_c, 0, 63, 54
1, 56600, Note_on_c, 0, 68, 46
1, 56601, Note_on_c, 0, 59, 47
1, 56604, Note_on_c, 0, 65, 53
1, 56637, Note_on_c, 0, 56, 49
1, 56639, Control_c, 0, 64, 0
1, 56651, Note_on_c, 0, 56, 0
1, 56715, Note_on_c, 0, 65, 0
1, 56718, Note_on_c, 0, 68, 0
1, 56721, Control_c, 0, 64, 127
1, 56725, Note_on_c, 0, 37, 62
1, 56726, Note_on_c, 0, 59, 0
1, 56734, Note_on_c, 0, 63, 0
1, 56742, Note_on_c, 0, 37, 0
1, 56766, Note_on_c, 0, 44, 32
1, 56770, Note_on_c, 0, 53, 64
1, 56772, Note_on_c, 0, 67, 59
1, 56773, Note_on_c, 0, 63, 60
1, 56774, Note_on_c, 0, 58, 56
1, 56779, Control_c, 0, 64, 0
1, 56821, Control_c, 0, 64, 127
1, 56822, Note_on_c, 0, 44, 0
1, 56868, Note_on_c, 0, 58, 0
1, 56876, Note_on_c, 0, 53, 0
1, 56879, Note_on_c, 0, 67, 0
1, 56886, Note_on_c, 0, 63, 0
1, 56901, Note_on_c, 0, 58, 61
1, 56902, Note_on_c, 0, 61, 64
1, 56905, Note_on_c, 0, 65, 65
1, 56906, Note_on_c, 0, 53, 50
1, 56910, Control_c, 0, 64, 0
1, 56915, Note_on_c, 0, 53, 0
1, 56950, Control_c, 0, 64, 127
1, 56977, Note_on_c, 0, 61, 0
1, 56983, Note_on_c, 0, 65, 0
1, 56994, Note_on_c, 0, 44, 44
1, 57002, Note_on_c, 0, 58, 0
1, 57021, Note_on_c, 0, 44, 0
1, 57032, Control_c, 0, 64, 0
1, 57033, Note_on_c, 0, 37, 69
1, 57096, Control_c, 0, 64, 127
1, 57103, Note_on_c, 0, 37, 0
1, 57116, Note_on_c, 0, 44, 54
1, 57120, Note_on_c, 0, 63, 75
1, 57121, Note_on_c, 0, 46, 50
1, 57122, Note_on_c, 0, 58, 77
1, 57123, Note_on_c, 0, 67, 71
1, 57150, Note_on_c, 0, 46, 0
1, 57168, Note_on_c, 0, 53, 41
1, 57178, Note_on_c, 0, 53, 0
1, 57188, Note_on_c, 0, 58, 0
1, 57192, Note_on_c, 0, 67, 0
1, 57201, Note_on_c, 0, 63, 0
1, 57211, Note_on_c, 0, 58, 56
1, 57214, Note_on_c, 0, 63, 39
1, 57216, Note_on_c, 0, 65, 58
1, 57219, Note_on_c, 0, 44, 0
1, 57228, Note_on_c, 0, 58, 0
1, 57234, Note_on_c, 0, 63, 0
1, 57239, Note_on_c, 0, 65, 0
1, 57257, Note_on_c, 0, 44, 26
1, 57271, Note_on_c, 0, 44, 0
1, 57301, Control_c, 0, 64, 0
1, 57302, Note_on_c, 0, 70, 67
1, 57302, Note_on_c, 0, 42, 62
1, 57303, Note_on_c, 0, 56, 57
1, 57304, Note_on_c, 0, 63, 59
1, 57305, Note_on_c, 0, 49, 53
1, 57326, Note_on_c, 0, 56, 0
1, 57331, Control_c, 0, 64, 127
1, 57339, Note_on_c, 0, 42, 0
1, 57343, Note_on_c, 0, 63, 0
1, 57345, Note_on_c, 0, 49, 0
1, 57352, Note_on_c, 0, 70, 0
1, 57427, Control_c, 0, 64, 0
1, 57429, Note_on_c, 0, 58, 62
1, 57431, Note_on_c, 0, 82, 80
1, 57431, Note_on_c, 0, 70, 82
1, 57434, Note_on_c, 0, 54, 49
1, 57454, Note_on_c, 0, 70, 0
1, 57455, Note_on_c, 0, 54, 0
1, 57457, Control_c, 0, 64, 127
1, 57463, Note_on_c, 0, 58, 0
1, 57466, Note_on_c, 0, 82, 0
1, 57516, Note_on_c, 0, 87, 84
1, 57516, Note_on_c, 0, 63, 75
1, 57517, Note_on_c, 0, 75, 86
1, 57518, Control_c, 0, 64, 0
1, 57518, Note_on_c, 0, 58, 58
1, 57519, Note_on_c, 0, 61, 61
1, 57526, Note_on_c, 0, 81, 32
1, 57537, Note_on_c, 0, 81, 0
1, 57548, Note_on_c, 0, 63, 0
1, 57552, Control_c, 0, 64, 127
1, 57553, Note_on_c, 0, 58, 0
1, 57553, Note_on_c, 0, 61, 0
1, 57567, Note_on_c, 0, 87, 0
1, 57571, Note_on_c, 0, 75, 0
1, 57599, Note_on_c, 0, 85, 76
1, 57600, Control_c, 0, 64, 0
1, 57601, Note_on_c, 0, 73, 72
1, 57603, Note_on_c, 0, 80, 69
1, 57604, Note_on_c, 0, 61, 33
1, 57605, Note_on_c, 0, 54, 44
1, 57606, Note_on_c, 0, 58, 45
1, 57624, Control_c, 0, 64, 127
1, 57632, Note_on_c, 0, 54, 0
1, 57633, Note_on_c, 0, 61, 0
1, 57638, Note_on_c, 0, 58, 0
1, 57640, Note_on_c, 0, 85, 0
1, 57640, Note_on_c, 0, 80, 0
1, 57646, Note_on_c, 0, 73, 0
1, 57697, Note_on_c, 0, 82, 64
1, 57699, Note_on_c, 0, 70, 53
1, 57700, Note_on_c, 0, 75, 63
1, 57706, Control_c, 0, 64, 0
1, 57732, Control_c, 0, 64, 127
1, 57751, Note_on_c, 0, 82, 0
1, 57753, Note_on_c, 0, 70, 0
1, 57758, Note_on_c, 0, 75, 0
1, 57784, Note_on_c, 0, 42, 57
1, 57784, Note_on_c, 0, 80, 47
1, 57785, Note_on_c, 0, 68, 51
1, 57785, Note_on_c, 0, 75, 59
1, 57786, Control_c, 0, 64, 0
1, 57788, Note_on_c, 0, 49, 50
1, 57808, Note_on_c, 0, 42, 0
1, 57814, Note_on_c, 0, 49, 0
1, 57816, Control_c, 0, 64, 127
1, 57830, Note_on_c, 0, 80, 0
1, 57837, Note_on_c, 0, 75, 0
1, 57840, Note_on_c, 0, 68, 0
1, 57870, Note_on_c, 0, 78, 49
1, 57873, Note_on_c, 0, 58, 51
1, 57874, Note_on_c, 0, 66, 47
1, 57874, Note_on_c, 0, 73, 63
1, 57876, Note_on_c, 0, 61, 39
1, 57878, Control_c, 0, 64, 0
1, 57884, Control_c, 0, 64, 127
1, 57912, Note_on_c, 0, 78, 0
1, 57916, Note_on_c, 0, 73, 0
1, 57923, Note_on_c, 0, 66, 0
1, 57930, Note_on_c, 0, 61, 0
1, 57963, Control_c, 0, 64, 0
1, 57969, Note_on_c, 0, 56, 37
1, 57970, Note_on_c, 0, 63, 28
1, 57973, Note_on_c, 0, 70, 30
1, 57984, Note_on_c, 0, 70, 0
1, 57988, Note_on_c, 0, 63, 0
1, 57991, Control_c, 0, 64, 127
1, 57994, Note_on_c, 0, 58, 0
1, 57998, Note_on_c, 0, 56, 0
1, 58056, Note_on_c, 0, 68, 43
1, 58057, Note_on_c, 0, 61, 33
1, 58057, Note_on_c, 0, 73, 53
1, 58064, Note_on_c, 0, 49, 31
1, 58065, Control_c, 0, 64, 0
1, 58080, Note_on_c, 0, 54, 18
1, 58103, Note_on_c, 0, 73, 0
1, 58108, Note_on_c, 0, 68, 0
1, 58109, Note_on_c, 0, 61, 0
1, 58109, Control_c, 0, 64, 127
1, 58153, Note_on_c, 0, 70, 33
1, 58153, Note_on_c, 0, 58, 45
1, 58156, Note_on_c, 0, 54, 0
1, 58157, Note_on_c, 0, 66, 36
1, 58161, Note_on_c, 0, 49, 0
1, 58215, Note_on_c, 0, 66, 0
1, 58223, Control_c, 0, 64, 0
1, 58226, Note_on_c, 0, 70, 0
1, 58226, Note_on_c, 0, 42, 37
1, 58236, Note_on_c, 0, 58, 0
1, 58262, Control_c, 0, 64, 127
1, 58300, Note_on_c, 0, 42, 0
1, 58315, Note_on_c, 0, 41, 73
1, 58348, Control_c, 0, 64, 0
1, 58352, Note_on_c, 0, 41, 0
1, 58356, Control_c, 0, 64, 127
1, 58458, Note_on_c, 0, 63, 62
1, 58460, Note_on_c, 0, 70, 42
1, 58462, Note_on_c, 0, 67, 53
1, 58463, Note_on_c, 0, 60, 42
1, 58464, Note_on_c, 0, 58, 39
1, 58464, Note_on_c, 0, 56, 33
1, 58480, Control_c, 0, 64, 0
1, 58490, Note_on_c, 0, 67, 0
1, 58494, Note_on_c, 0, 63, 0
1, 58498, Note_on_c, 0, 60, 0
1, 58500, Control_c, 0, 64, 127
1, 58503, Note_on_c, 0, 70, 0
1, 58504, Note_on_c, 0, 58, 0
1, 58506, Note_on_c, 0, 56, 0
1, 58519, Note_on_c, 0, 63, 36
1, 58520, Note_on_c, 0, 67, 39
1, 58521, Note_on_c, 0, 60, 45
1, 58521, Note_on_c, 0, 70, 50
1, 58523, Note_on_c, 0, 56, 28
1, 58523, Note_on_c, 0, 58, 37
1, 58553, Note_on_c, 0, 67, 0
1, 58554, Note_on_c, 0, 60, 0
1, 58556, Note_on_c, 0, 63, 0
1, 58558, Note_on_c, 0, 58, 0
1, 58559, Note_on_c, 0, 56, 0
1, 58560, Note_on_c, 0, 70, 0
1, 58602, Note_on_c, 0, 70, 55
1, 58602, Note_on_c, 0, 63, 56
1, 58603, Note_on_c, 0, 58, 45
1, 58604, Note_on_c, 0, 67, 55
1, 58604, Note_on_c, 0, 60, 50
1, 58604, Note_on_c, 0, 56, 33
1, 58621, Note_on_c, 0, 60, 0
1, 58622, Note_on_c, 0, 63, 0
1, 58626, Note_on_c, 0, 67, 0
1, 58630, Note_on_c, 0, 56, 0
1, 58633, Note_on_c, 0, 58, 0
1, 58634, Note_on_c, 0, 70, 0
1, 58672, Note_on_c, 0, 70, 46
1, 58672, Note_on_c, 0, 63, 47
1, 58673, Note_on_c, 0, 67, 44
1, 58674, Note_on_c, 0, 56, 35
1, 58674, Note_on_c, 0, 58, 42
1, 58674, Note_on_c, 0, 60, 49
1, 58695, Note_on_c, 0, 60, 0
1, 58699, Note_on_c, 0, 63, 0
1, 58701, Note_on_c, 0, 67, 0
1, 58703, Note_on_c, 0, 58, 0
1, 58704, Note_on_c, 0, 56, 0
1, 58707, Note_on_c, 0, 70, 0
1, 58761, Note_on_c, 0, 58, 42
1, 58762, Note_on_c, 0, 63, 58
1, 58762, Note_on_c, 0, 67, 55
1, 58764, Note_on_c, 0, 70, 50
1, 58764, Note_on_c, 0, 56, 27
1, 58764, Note_on_c, 0, 60, 38
1, 58779, Note_on_c, 0, 60, 0
1, 58788, Note_on_c, 0, 67, 0
1, 58790, Note_on_c, 0, 63, 0
1, 58794, Note_on_c, 0, 56, 0
1, 58795, Note_on_c, 0, 70, 0
1, 58797, Note_on_c, 0, 58, 0
1, 58847, Note_on_c, 0, 58, 39
1, 58848, Note_on_c, 0, 63, 54
1, 58848, Note_on_c, 0, 67, 54
1, 58849, Note_on_c, 0, 70, 46
1, 58850, Note_on_c, 0, 56, 28
1, 58851, Note_on_c, 0, 60, 30
1, 58860, Note_on_c, 0, 60, 0
1, 58871, Note_on_c, 0, 67, 0
1, 58872, Note_on_c, 0, 56, 0
1, 58873, Note_on_c, 0, 58, 0
1, 58874, Note_on_c, 0, 63, 0
1, 58878, Note_on_c, 0, 70, 0
1, 58942, Note_on_c, 0, 67, 40
1, 58943, Note_on_c, 0, 70, 38
1, 58944, Note_on_c, 0, 63, 44
1, 58948, Note_on_c, 0, 56, 25
1, 58949, Note_on_c, 0, 58, 23
1, 58961, Note_on_c, 0, 58, 0
1, 58961, Note_on_c, 0, 67, 0
1, 58968, Note_on_c, 0, 56, 0
1, 58970, Note_on_c, 0, 70, 0
1, 58974, Note_on_c, 0, 63, 0
1, 59058, Note_on_c, 0, 62, 38
1, 59059, Note_on_c, 0, 65, 50
1, 59060, Note_on_c, 0, 59, 46
1, 59060, Note_on_c, 0, 56, 45
1, 59062, Note_on_c, 0, 34, 44
1, 59064, Note_on_c, 0, 46, 29
1, 59065, Control_c, 0, 64, 0
1, 59109, Control_c, 0, 64, 127
1, 59114, Note_on_c, 0, 46, 0
1, 59124, Note_on_c, 0, 34, 0
1, 59182, Note_on_c, 0, 22, 46
1, 59185, Note_on_c, 0, 56, 0
1, 59195, Note_on_c, 0, 59, 0
1, 59202, Note_on_c, 0, 22, 0
1, 59203, Note_on_c, 0, 62, 0
1, 59206, Note_on_c, 0, 65, 0
1, 59295, Note_on_c, 0, 46, 60
1, 59374, Note_on_c, 0, 46, 0
1, 59396, Control_c, 0, 64, 127
1, 59397, Note_on_c, 0, 46, 56
1, 59412, Control_c, 0, 64, 0
1, 59454, Note_on_c, 0, 46, 0
1, 59509, Note_on_c, 0, 62, 48
1, 59509, Note_on_c, 0, 57, 48
1, 59510, Note_on_c, 0, 66, 40
1, 59510, Note_on_c, 0, 46, 53
1, 59524, Control_c, 0, 64, 0
1, 59534, Control_c, 0, 64, 127
1, 59554, Note_on_c, 0, 57, 0
1, 59598, Note_on_c, 0, 62, 0
1, 59606, Note_on_c, 0, 56, 48
1, 59610, Note_on_c, 0, 66, 0
1, 59616, Note_on_c, 0, 46, 0
1, 59628, Note_on_c, 0, 56, 0
1, 59715, Note_on_c, 0, 71, 35
1, 59715, Note_on_c, 0, 62, 40
1, 59715, Note_on_c, 0, 67, 37
1, 59716, Note_on_c, 0, 74, 32
1, 59722, Note_on_c, 0, 56, 32
1, 59760, Note_on_c, 0, 67, 0
1, 59768, Note_on_c, 0, 74, 0
1, 59771, Note_on_c, 0, 71, 0
1, 59804, Note_on_c, 0, 62, 0
1, 59844, Note_on_c, 0, 77, 48
1, 59846, Note_on_c, 0, 62, 34
1, 59846, Note_on_c, 0, 71, 43
1, 59849, Note_on_c, 0, 67, 36
1, 59978, Note_on_c, 0, 67, 0
1, 60002, Note_on_c, 0, 62, 0
1, 60009, Note_on_c, 0, 56, 0
1, 60029, Note_on_c, 0, 77, 0
1, 60050, Note_on_c, 0, 71, 0
1, 60254, Note_on_c, 0, 58, 84
1, 60255, Note_on_c, 0, 65, 78
1, 60259, Note_on_c, 0, 39, 63
1, 60366, Note_on_c, 0, 46, 46
1, 60388, Control_c, 0, 64, 127
1, 60436, Note_on_c, 0, 65, 0
1, 60438, Note_on_c, 0, 58, 0
1, 60469, Note_on_c, 0, 63, 52
1, 60473, Note_on_c, 0, 58, 31
1, 60474, Note_on_c, 0, 55, 36
1, 60476, Note_on_c, 0, 50, 27
1, 60508, Note_on_c, 0, 50, 0
1, 60516, Note_on_c, 0, 46, 0
1, 60526, Note_on_c, 0, 39, 0
1, 60756, Note_on_c, 0, 63, 0
1, 60775, Note_on_c, 0, 63, 53
1, 60807, Note_on_c, 0, 55, 0
1, 60818, Note_on_c, 0, 58, 0
1, 60839, Note_on_c, 0, 63, 0
1, 60927, Note_on_c, 0, 58, 39
1, 60928, Note_on_c, 0, 63, 43
1, 60930, Note_on_c, 0, 60, 36
1, 60947, Control_c, 0, 64, 0
1, 60994, Control_c, 0, 64, 127
1, 61001, Note_on_c, 0, 46, 45
1, 61009, Note_on_c, 0, 60, 0
1, 61021, Note_on_c, 0, 63, 0
1, 61064, Note_on_c, 0, 63, 77
1, 61111, Note_on_c, 0, 63, 0
1, 61124, Note_on_c, 0, 65, 80
1, 61128, Note_on_c, 0, 58, 0
1, 61170, Note_on_c, 0, 65, 0
1, 61194, Control_c, 0, 64, 0
1, 61196, Note_on_c, 0, 67, 58
1, 61198, Note_on_c, 0, 64, 59
1, 61198, Note_on_c, 0, 62, 55
1, 61199, Note_on_c, 0, 56, 36
1, 61202, Note_on_c, 0, 59, 48
1, 61230, Control_c, 0, 64, 127
1, 61240, Note_on_c, 0, 64, 0
1, 61246, Note_on_c, 0, 67, 0
1, 61249, Note_on_c, 0, 62, 0
1, 61261, Note_on_c, 0, 59, 0
1, 61289, Note_on_c, 0, 70, 59
1, 61323, Note_on_c, 0, 46, 0
1, 61357, Note_on_c, 0, 70, 0
1, 61373, Note_on_c, 0, 46, 39
1, 61378, Note_on_c, 0, 67, 32
1, 61379, Control_c, 0, 64, 0
1, 61395, Control_c, 0, 64, 127
1, 61452, Note_on_c, 0, 56, 0
1, 61470, Note_on_c, 0, 67, 0
1, 61471, Note_on_c, 0, 70, 53
1, 61478, Note_on_c, 0, 46, 0
1, 61496, Note_on_c, 0, 70, 0
1, 61602, Note_on_c, 0, 57, 79
1, 61602, Note_on_c, 0, 65, 80
1, 61604, Note_on_c, 0, 62, 57
1, 61604, Note_on_c, 0, 47, 54
1, 61604, Note_on_c, 0, 39, 50
1, 61604, Note_on_c, 0, 54, 80
1, 61610, Control_c, 0, 64, 0
1, 61648, Control_c, 0, 64, 127
1, 61736, Note_on_c, 0, 57, 0
1, 61738, Note_on_c, 0, 62, 0
1, 61757, Note_on_c, 0, 65, 0
1, 61759, Note_on_c, 0, 54, 0
1, 61813, Note_on_c, 0, 63, 32
1, 61814, Control_c, 0, 64, 0
1, 61816, Note_on_c, 0, 55, 34
1, 61816, Note_on_c, 0, 58, 40
1, 61818, Note_on_c, 0, 47, 0
1, 61818, Note_on_c, 0, 60, 44
1, 61819, Note_on_c, 0, 48, 47
1, 61896, Control_c, 0, 64, 127
1, 61954, Note_on_c, 0, 60, 0
1, 61963, Note_on_c, 0, 55, 0
1, 61976, Note_on_c, 0, 48, 0
1, 61999, Note_on_c, 0, 58, 0
1, 62075, Note_on_c, 0, 39, 0
1, 62139, Note_on_c, 0, 63, 0
1, 62159, Control_c, 0, 64, 0
1, 62167, Note_on_c, 0, 39, 35
1, 62171, Note_on_c, 0, 54, 21
1, 62172, Note_on_c, 0, 58, 26
1, 62172, Note_on_c, 0, 61, 38
1, 62187, Control_c, 0, 64, 127
1, 62200, Note_on_c, 0, 39, 0
1, 62204, Note_on_c, 0, 54, 0
1, 62214, Note_on_c, 0, 58, 0
1, 62218, Note_on_c, 0, 61, 0
1, 62310, Note_on_c, 0, 61, 25
1, 62312, Note_on_c, 0, 51, 25
1, 62312, Note_on_c, 0, 58, 40
1, 62313, Note_on_c, 0, 54, 34
1, 62378, Note_on_c, 0, 75, 90
1, 62412, Note_on_c, 0, 61, 0
1, 62419, Note_on_c, 0, 75, 0
1, 62420, Note_on_c, 0, 58, 0
1, 62424, Note_on_c, 0, 54, 0
1, 62427, Note_on_c, 0, 77, 74
1, 62430, Note_on_c, 0, 51, 0
1, 62468, Note_on_c, 0, 77, 0
1, 62499, Note_on_c, 0, 44, 64
1, 62502, Note_on_c, 0, 78, 77
1, 62510, Control_c, 0, 64, 0
1, 62534, Control_c, 0, 64, 127
1, 62540, Note_on_c, 0, 78, 0
1, 62542, Note_on_c, 0, 44, 0
1, 62559, Note_on_c, 0, 80, 76
1, 62591, Note_on_c, 0, 80, 0
1, 62624, Note_on_c, 0, 65, 45
1, 62624, Note_on_c, 0, 60, 38
1, 62625, Note_on_c, 0, 82, 70
1, 62627, Note_on_c, 0, 58, 34
1, 62628, Note_on_c, 0, 54, 31
1, 62695, Note_on_c, 0, 82, 0
1, 62706, Note_on_c, 0, 84, 68
1, 62709, Note_on_c, 0, 65, 0
1, 62722, Note_on_c, 0, 60, 0
1, 62734, Note_on_c, 0, 58, 0
1, 62738, Note_on_c, 0, 54, 0
1, 62793, Note_on_c, 0, 84, 0
1, 62838, Note_on_c, 0, 82, 68
1, 62846, Note_on_c, 0, 37, 44
1, 62851, Control_c, 0, 64, 0
1, 62875, Control_c, 0, 64, 127
1, 62894, Note_on_c, 0, 82, 0
1, 62903, Note_on_c, 0, 37, 0
1, 62903, Note_on_c, 0, 44, 60
1, 62950, Note_on_c, 0, 44, 0
1, 62965, Note_on_c, 0, 53, 41
1, 62966, Note_on_c, 0, 60, 42
1, 62967, Note_on_c, 0, 65, 57
1, 63032, Note_on_c, 0, 53, 0
1, 63041, Note_on_c, 0, 70, 73
1, 63046, Note_on_c, 0, 56, 34
1, 63112, Note_on_c, 0, 60, 0
1, 63115, Note_on_c, 0, 65, 0
1, 63116, Note_on_c, 0, 56, 0
1, 63125, Note_on_c, 0, 70, 0
1, 63140, Note_on_c, 0, 56, 51
1, 63140, Note_on_c, 0, 60, 53
1, 63141, Note_on_c, 0, 68, 51
1, 63142, Note_on_c, 0, 65, 59
1, 63148, Control_c, 0, 64, 0
1, 63182, Control_c, 0, 64, 127
1, 63223, Note_on_c, 0, 60, 0
1, 63238, Note_on_c, 0, 60, 48
1, 63251, Note_on_c, 0, 65, 0
1, 63284, Note_on_c, 0, 60, 0
1, 63315, Note_on_c, 0, 60, 44
1, 63316, Note_on_c, 0, 65, 55
1, 63358, Note_on_c, 0, 68, 0
1, 63381, Note_on_c, 0, 60, 0
1, 63386, Note_on_c, 0, 56, 0
1, 63396, Note_on_c, 0, 73, 76
1, 63419, Note_on_c, 0, 65, 0
1, 63448, Note_on_c, 0, 73, 0
1, 63498, Note_on_c, 0, 73, 64
1, 63500, Note_on_c, 0, 43, 44
1, 63501, Note_on_c, 0, 65, 61
1, 63502, Note_on_c, 0, 53, 39
1, 63503, Note_on_c, 0, 61, 32
1, 63507, Control_c, 0, 64, 0
1, 63559, Control_c, 0, 64, 127
1, 63578, Note_on_c, 0, 65, 0
1, 63599, Note_on_c, 0, 73, 0
1, 63615, Note_on_c, 0, 61, 0
1, 63649, Note_on_c, 0, 61, 21
1, 63672, Note_on_c, 0, 61, 0
1, 63672, Note_on_c, 0, 43, 0
1, 63696, Note_on_c, 0, 53, 0
1, 63701, Note_on_c, 0, 72, 77
1, 63734, Note_on_c, 0, 72, 0
1, 63785, Note_on_c, 0, 70, 52
1, 63787, Note_on_c, 0, 61, 35
1, 63788, Note_on_c, 0, 58, 33
1, 63790, Note_on_c, 0, 64, 51
1, 63791, Note_on_c, 0, 48, 31
1, 63792, Control_c, 0, 64, 0
1, 63826, Control_c, 0, 64, 127
1, 63834, Note_on_c, 0, 70, 0
1, 63839, Note_on_c, 0, 64, 0
1, 63842, Note_on_c, 0, 61, 0
1, 63850, Note_on_c, 0, 72, 74
1, 63879, Note_on_c, 0, 72, 0
1, 63906, Note_on_c, 0, 73, 77
1, 63918, Note_on_c, 0, 58, 0
1, 63922, Note_on_c, 0, 48, 0
1, 63936, Note_on_c, 0, 73, 0
1, 63956, Note_on_c, 0, 75, 67
1, 63976, Note_on_c, 0, 75, 0
1, 64014, Note_on_c, 0, 41, 49
1, 64015, Note_on_c, 0, 72, 50
1, 64016, Control_c, 0, 64, 0
1, 64044, Control_c, 0, 64, 127
1, 64069, Note_on_c, 0, 48, 49
1, 64072, Note_on_c, 0, 72, 0
1, 64082, Note_on_c, 0, 41, 0
1, 64124, Note_on_c, 0, 48, 0
1, 64133, Note_on_c, 0, 57, 58
1, 64187, Note_on_c, 0, 57, 0
1, 64201, Note_on_c, 0, 74, 48
1, 64201, Note_on_c, 0, 68, 56
1, 64202, Note_on_c, 0, 64, 56
1, 64203, Control_c, 0, 64, 0
1, 64203, Note_on_c, 0, 58, 48
1, 64233, Control_c, 0, 64, 127
1, 64257, Note_on_c, 0, 74, 0
1, 64262, Note_on_c, 0, 64, 0
1, 64268, Note_on_c, 0, 68, 0
1, 64283, Note_on_c, 0, 58, 0
1, 64287, Note_on_c, 0, 72, 51
1, 64288, Note_on_c, 0, 62, 36
1, 64289, Control_c, 0, 64, 0
1, 64290, Note_on_c, 0, 57, 45
1, 64290, Note_on_c, 0, 67, 39
1, 64305, Control_c, 0, 64, 127
1, 64321, Note_on_c, 0, 72, 0
1, 64324, Note_on_c, 0, 67, 0
1, 64338, Note_on_c, 0, 62, 0
1, 64366, Control_c, 0, 64, 0
1, 64367, Note_on_c, 0, 57, 0
1, 64372, Note_on_c, 0, 69, 51
1, 64378, Note_on_c, 0, 53, 45
1, 64378, Note_on_c, 0, 64, 44
1, 64382, Note_on_c, 0, 60, 29
1, 64388, Control_c, 0, 64, 127
1, 64398, Note_on_c, 0, 53, 0
1, 64403, Note_on_c, 0, 69, 0
1, 64403, Note_on_c, 0, 64, 0
1, 64411, Note_on_c, 0, 60, 0
1, 64466, Note_on_c, 0, 65, 25
1, 64468, Note_on_c, 0, 60, 47
1, 64471, Note_on_c, 0, 57, 19
1, 64472, Note_on_c, 0, 48, 27
1, 64474, Control_c, 0, 64, 0
1, 64504, Control_c, 0, 64, 127
1, 64529, Note_on_c, 0, 57, 0
1, 64540, Note_on_c, 0, 60, 0
1, 64542, Note_on_c, 0, 41, 53
1, 64543, Note_on_c, 0, 65, 0
1, 64558, Note_on_c, 0, 41, 0
1, 64566, Note_on_c, 0, 48, 0
1, 64629, Note_on_c, 0, 71, 68
1, 64630, Note_on_c, 0, 63, 68
1, 64630, Note_on_c, 0, 68, 56
1, 64632, Note_on_c, 0, 59, 68
1, 64632, Note_on_c, 0, 58, 49
1, 64636, Control_c, 0, 64, 0
1, 64664, Control_c, 0, 64, 127
1, 64682, Note_on_c, 0, 71, 0
1, 64683, Note_on_c, 0, 59, 0
1, 64689, Note_on_c, 0, 68, 0
1, 64692, Note_on_c, 0, 63, 0
1, 64710, Note_on_c, 0, 73, 71
1, 64753, Note_on_c, 0, 73, 0
1, 64768, Note_on_c, 0, 71, 45
1, 64810, Note_on_c, 0, 71, 0
1, 64824, Note_on_c, 0, 73, 55
1, 64844, Note_on_c, 0, 73, 0
1, 64848, Note_on_c, 0, 58, 0
1, 64899, Note_on_c, 0, 70, 48
1, 64901, Note_on_c, 0, 62, 38
1, 64904, Note_on_c, 0, 65, 51
1, 64906, Note_on_c, 0, 56, 27
1, 64915, Control_c, 0, 64, 0
1, 64984, Note_on_c, 0, 46, 49
1, 64993, Control_c, 0, 64, 127
1, 65048, Note_on_c, 0, 46, 0
1, 65081, Note_on_c, 0, 46, 60
1, 65096, Note_on_c, 0, 56, 0
1, 65108, Note_on_c, 0, 46, 0
1, 65180, Note_on_c, 0, 26, 39
1, 65190, Control_c, 0, 64, 0
1, 65198, Control_c, 0, 64, 127
1, 65212, Note_on_c, 0, 26, 0
1, 65243, Note_on_c, 0, 62, 0
1, 65248, Note_on_c, 0, 65, 0
1, 65256, Note_on_c, 0, 70, 0
1, 65286, Control_c, 0, 64, 0
1, 65286, Note_on_c, 0, 27, 50
1, 65312, Note_on_c, 0, 27, 0
1, 65314, Control_c, 0, 64, 127
1, 65530, Note_on_c, 0, 82, 90
1, 65531, Note_on_c, 0, 61, 80
1, 65531, Note_on_c, 0, 55, 88
1, 65532, Note_on_c, 0, 70, 94
1, 65532, Note_on_c, 0, 65, 89
1, 65611, Note_on_c, 0, 82, 0
1, 65612, Note_on_c, 0, 70, 0
1, 65641, Note_on_c, 0, 82, 83
1, 65642, Note_on_c, 0, 70, 83
1, 65718, Note_on_c, 0, 82, 0
1, 65720, Note_on_c, 0, 70, 0
1, 65726, Note_on_c, 0, 65, 0
1, 65730, Note_on_c, 0, 55, 0
1, 65741, Note_on_c, 0, 61, 0
1, 65777, Note_on_c, 0, 82, 84
1, 65778, Note_on_c, 0, 70, 87
1, 65778, Note_on_c, 0, 77, 78
1, 65779, Note_on_c, 0, 64, 71
1, 65779, Note_on_c, 0, 60, 66
1, 65780, Note_on_c, 0, 54, 67
1, 65780, Control_c, 0, 64, 0
1, 65820, Control_c, 0, 64, 127
1, 65869, Note_on_c, 0, 60, 0
1, 65876, Note_on_c, 0, 64, 0
1, 65885, Note_on_c, 0, 77, 0
1, 65887, Note_on_c, 0, 82, 0
1, 65894, Note_on_c, 0, 70, 0
1, 65899, Note_on_c, 0, 54, 0
1, 65932, Note_on_c, 0, 80, 67
1, 65934, Note_on_c, 0, 63, 53
1, 65935, Note_on_c, 0, 53, 54
1, 65936, Note_on_c, 0, 68, 50
1, 65936, Note_on_c, 0, 59, 50
1, 65938, Note_on_c, 0, 75, 53
1, 65940, Control_c, 0, 64, 0
1, 65990, Control_c, 0, 64, 127
1, 66024, Note_on_c, 0, 80, 0
1, 66040, Note_on_c, 0, 59, 0
1, 66040, Note_on_c, 0, 63, 0
1, 66045, Note_on_c, 0, 80, 57
1, 66048, Note_on_c, 0, 53, 0
1, 66080, Note_on_c, 0, 80, 0
1, 66088, Note_on_c, 0, 68, 0
1, 66092, Note_on_c, 0, 75, 0
1, 66169, Note_on_c, 0, 79, 39
1, 66170, Note_on_c, 0, 76, 45
1, 66172, Note_on_c, 0, 48, 46
1, 66174, Note_on_c, 0, 67, 18
1, 66175, Note_on_c, 0, 58, 33
1, 66179, Control_c, 0, 64, 0
1, 66217, Control_c, 0, 64, 127
1, 66223, Note_on_c, 0, 58, 0
1, 66227, Note_on_c, 0, 48, 0
1, 66337, Note_on_c, 0, 24, 49
1, 66339, Note_on_c, 0, 36, 51
1, 66358, Note_on_c, 0, 76, 0
1, 66373, Note_on_c, 0, 79, 0
1, 66396, Note_on_c, 0, 67, 0
1, 66424, Note_on_c, 0, 24, 0
1, 66437, Note_on_c, 0, 36, 0
1, 66560, Note_on_c, 0, 63, 38
1, 66561, Note_on_c, 0, 56, 39
1, 66562, Note_on_c, 0, 60, 53
1, 66562, Note_on_c, 0, 55, 42
1, 66564, Note_on_c, 0, 41, 48
1, 66566, Note_on_c, 0, 29, 42
1, 66566, Control_c, 0, 64, 0
1, 66614, Control_c, 0, 64, 127
1, 66633, Note_on_c, 0, 55, 0
1, 66641, Note_on_c, 0, 29, 0
1, 66644, Note_on_c, 0, 60, 0
1, 66646, Note_on_c, 0, 56, 0
1, 66650, Note_on_c, 0, 41, 0
1, 66656, Note_on_c, 0, 63, 0
1, 66758, Note_on_c, 0, 53, 85
1, 66759, Note_on_c, 0, 65, 94
1, 66831, Note_on_c, 0, 65, 0
1, 66846, Note_on_c, 0, 53, 0
1, 66860, Note_on_c, 0, 56, 75
1, 66860, Note_on_c, 0, 68, 92
1, 66898, Note_on_c, 0, 68, 0
1, 66960, Note_on_c, 0, 72, 85
1, 66963, Note_on_c, 0, 56, 0
1, 66966, Note_on_c, 0, 60, 53
1, 66967, Note_on_c, 0, 59, 40
1, 67065, Note_on_c, 0, 72, 0
1, 67068, Note_on_c, 0, 59, 0
1, 67076, Note_on_c, 0, 60, 0
1, 67080, Note_on_c, 0, 75, 82
1, 67082, Note_on_c, 0, 63, 71
1, 67286, Note_on_c, 0, 63, 0
1, 67306, Note_on_c, 0, 75, 0
1, 67505, Note_on_c, 0, 79, 59
1, 67508, Note_on_c, 0, 67, 48
1, 67602, Note_on_c, 0, 67, 0
1, 67671, Note_on_c, 0, 79, 0
1, 67759, Note_on_c, 0, 63, 34
1, 67759, Note_on_c, 0, 79, 43
1, 67782, Note_on_c, 0, 63, 0
1, 67992, Note_on_c, 0, 79, 0
1, 68018, Note_on_c, 0, 75, 50
1, 68020, Note_on_c, 0, 67, 34
1, 68021, Note_on_c, 0, 65, 39
1, 68026, Note_on_c, 0, 39, 40
1, 68040, Control_c, 0, 64, 0
1, 68092, Note_on_c, 0, 46, 49
1, 68094, Control_c, 0, 64, 127
1, 68096, Note_on_c, 0, 39, 0
1, 68142, Note_on_c, 0, 46, 0
1, 68145, Note_on_c, 0, 65, 0
1, 68154, Note_on_c, 0, 67, 0
1, 68154, Note_on_c, 0, 55, 55
1, 68186, Note_on_c, 0, 75, 0
1, 68217, Note_on_c, 0, 58, 50
1, 68220, Note_on_c, 0, 55, 0
1, 68291, Note_on_c, 0, 62, 39
1, 68291, Note_on_c, 0, 86, 68
1, 68293, Note_on_c, 0, 79, 53
1, 68350, Note_on_c, 0, 86, 0
1, 68359, Note_on_c, 0, 79, 0
1, 68368, Note_on_c, 0, 82, 36
1, 68369, Note_on_c, 0, 62, 0
1, 68370, Note_on_c, 0, 67, 31
1, 68372, Note_on_c, 0, 74, 32
1, 68385, Note_on_c, 0, 74, 0
1, 68395, Note_on_c, 0, 82, 0
1, 68517, Note_on_c, 0, 62, 45
1, 68518, Note_on_c, 0, 67, 0
1, 68528, Note_on_c, 0, 62, 0
1, 68528, Note_on_c, 0, 58, 0
1, 68608, Note_on_c, 0, 89, 60
1, 68608, Note_on_c, 0, 39, 38
1, 68608, Note_on_c, 0, 82, 51
1, 68618, Control_c, 0, 64, 0
1, 68662, Control_c, 0, 64, 127
1, 68672, Note_on_c, 0, 82, 0
1, 68682, Note_on_c, 0, 46, 31
1, 68716, Note_on_c, 0, 89, 0
1, 68750, Note_on_c, 0, 46, 0
1, 68754, Note_on_c, 0, 87, 44
1, 68755, Note_on_c, 0, 80, 32
1, 68756, Note_on_c, 0, 39, 0
1, 68757, Note_on_c, 0, 84, 40
1, 68759, Note_on_c, 0, 48, 37
1, 68780, Note_on_c, 0, 84, 0
1, 68788, Note_on_c, 0, 87, 0
1, 68793, Note_on_c, 0, 80, 0
1, 68830, Note_on_c, 0, 48, 0
1, 68830, Note_on_c, 0, 51, 32
1, 68914, Note_on_c, 0, 68, 37
1, 68915, Note_on_c, 0, 63, 37
1, 68917, Note_on_c, 0, 60, 31
1, 68925, Note_on_c, 0, 56, 23
1, 68954, Note_on_c, 0, 60, 0
1, 68983, Note_on_c, 0, 63, 0
1, 68990, Note_on_c, 0, 68, 0
1, 69095, Note_on_c, 0, 75, 45
1, 69096, Note_on_c, 0, 68, 32
1, 69105, Note_on_c, 0, 60, 22
1, 69130, Note_on_c, 0, 56, 0
1, 69206, Note_on_c, 0, 60, 0
1, 69230, Note_on_c, 0, 56, 18
1, 69247, Note_on_c, 0, 56, 0
1, 69272, Note_on_c, 0, 51, 0
1, 69317, Note_on_c, 0, 75, 0
1, 69324, Note_on_c, 0, 72, 38
1, 69354, Note_on_c, 0, 72, 0
1, 69365, Note_on_c, 0, 75, 53
1, 69401, Note_on_c, 0, 75, 0
1, 69406, Note_on_c, 0, 68, 0
1, 69428, Note_on_c, 0, 74, 37
1, 69434, Note_on_c, 0, 67, 30
1, 69436, Note_on_c, 0, 62, 36
1, 69438, Note_on_c, 0, 39, 35
1, 69440, Note_on_c, 0, 60, 32
1, 69447, Note_on_c, 0, 60, 0
1, 69447, Control_c, 0, 64, 0
1, 69497, Note_on_c, 0, 46, 50
1, 69499, Note_on_c, 0, 62, 0
1, 69499, Control_c, 0, 64, 127
1, 69503, Note_on_c, 0, 39, 0
1, 69503, Note_on_c, 0, 67, 0
1, 69553, Note_on_c, 0, 74, 0
1, 69564, Note_on_c, 0, 46, 0
1, 69564, Note_on_c, 0, 70, 25
1, 69567, Note_on_c, 0, 67, 30
1, 69570, Note_on_c, 0, 62, 35
1, 69574, Note_on_c, 0, 60, 35
1, 69574, Note_on_c, 0, 55, 33
1, 69598, Note_on_c, 0, 60, 0
1, 69612, Note_on_c, 0, 62, 0
1, 69630, Note_on_c, 0, 67, 0
1, 69631, Note_on_c, 0, 55, 0
1, 69633, Note_on_c, 0, 58, 55
1, 69650, Note_on_c, 0, 70, 0
1, 69700, Note_on_c, 0, 62, 49
1, 69759, Note_on_c, 0, 62, 0
1, 69763, Note_on_c, 0, 67, 48
1, 69766, Note_on_c, 0, 86, 77
1, 69766, Note_on_c, 0, 79, 75
1, 69834, Note_on_c, 0, 86, 0
1, 69840, Note_on_c, 0, 79, 0
1, 69845, Note_on_c, 0, 82, 29
1, 69849, Note_on_c, 0, 74, 40
1, 69852, Note_on_c, 0, 62, 33
1, 69855, Note_on_c, 0, 79, 18
1, 69872, Note_on_c, 0, 67, 0
1, 69922, Note_on_c, 0, 74, 0
1, 69927, Note_on_c, 0, 86, 55
1, 69929, Note_on_c, 0, 67, 29
1, 69940, Note_on_c, 0, 62, 0
1, 69940, Note_on_c, 0, 79, 0
1, 69942, Note_on_c, 0, 67, 0
1, 69950, Note_on_c, 0, 58, 0
1, 69977, Note_on_c, 0, 82, 0
1, 69993, Note_on_c, 0, 86, 0
1, 70012, Note_on_c, 0, 60, 29
1, 70012, Note_on_c, 0, 68, 37
1, 70012, Note_on_c, 0, 80, 34
1, 70013, Note_on_c, 0, 84, 39
1, 70014, Note_on_c, 0, 77, 26
1, 70016, Note_on_c, 0, 63, 34
1, 70032, Control_c, 0, 64, 0
1, 70091, Note_on_c, 0, 58, 49
1, 70095, Control_c, 0, 64, 127
1, 70096, Note_on_c, 0, 63, 0
1, 70096, Note_on_c, 0, 68, 0
1, 70103, Note_on_c, 0, 60, 0
1, 70114, Note_on_c, 0, 58, 0
1, 70178, Note_on_c, 0, 46, 44
1, 70228, Note_on_c, 0, 46, 0
1, 70274, Note_on_c, 0, 41, 40
1, 70282, Note_on_c, 0, 41, 0
1, 70382, Note_on_c, 0, 34, 37
1, 70508, Note_on_c, 0, 22, 37
1, 70625, Note_on_c, 0, 84, 0
1, 70638, Note_on_c, 0, 80, 0
1, 70641, Note_on_c, 0, 77, 0
1, 70648, Note_on_c, 0, 22, 0
1, 70800, Note_on_c, 0, 22, 31
1, 70828, Note_on_c, 0, 22, 0
1, 70828, Note_on_c, 0, 34, 0
1, 71338, Control_c, 0, 64, 0
1, 71344, Note_on_c, 0, 65, 38
1, 71346, Note_on_c, 0, 57, 42
1, 71346, Note_on_c, 0, 39, 36
1, 71348, Note_on_c, 0, 62, 30
1, 71350, Note_on_c, 0, 47, 28
1, 71365, Note_on_c, 0, 54, 6
1, 71374, Control_c, 0, 64, 127
1, 71396, Note_on_c, 0, 57, 0
1, 71399, Note_on_c, 0, 62, 0
1, 71416, Note_on_c, 0, 54, 0
1, 71427, Note_on_c, 0, 65, 0
1, 71440, Note_on_c, 0, 39, 0
1, 71477, Note_on_c, 0, 47, 0
1, 71479, Note_on_c, 0, 55, 33
1, 71481, Note_on_c, 0, 63, 32
1, 71483, Note_on_c, 0, 39, 32
1, 71484, Note_on_c, 0, 58, 32
1, 71485, Note_on_c, 0, 48, 41
1, 71488, Note_on_c, 0, 60, 44
1, 71500, Control_c, 0, 64, 0
1, 71565, Control_c, 0, 64, 127
1, 71691, Note_on_c, 0, 60, 0
1, 71701, Note_on_c, 0, 55, 0
1, 71716, Note_on_c, 0, 58, 0
1, 71727, Note_on_c, 0, 63, 0
1, 71817, Note_on_c, 0, 48, 0
1, 71819, Note_on_c, 0, 39, 0
1, 72072, Control_c, 0, 64, 0
1, 72072, End_track
0, 0, End_of_file
