0, 0, Header, 1, 4, 120
1, 0, Start_track
1, 0, Title_t, "Stella By Starlight (reharmonised)"
1, 0, Text_t, "Doug McKenzie\012"
1, 0, Text_t, "A re-harmonised version of this - loosely based on a harmonic scheme by Andy Laverne published in Keyboard magazine about ten years ago.\012"
1, 0, Text_t, "dougmck@pipeline.com.au\012"
1, 0, Time_signature, 3, 2, 24, 8
1, 0, Key_signature, 0, "major"
1, 0, Tempo, 714286
1, 0, End_track
2, 0, Start_track
2, 0, End_track
3, 0, Start_track
3, 0, Title_t, "Played in Real Time"
3, 0, Program_c, 0, 0
3, 139, Note_on_c, 0, 82, 49
3, 260, Control_c, 0, 64, 127
3, 290, Note_on_c, 0, 81, 64
3, 293, Control_c, 0, 64, 0
3, 295, Note_on_c, 0, 82, 0
3, 300, Note_on_c, 0, 52, 15
3, 322, Control_c, 0, 64, 127
3, 379, Note_on_c, 0, 57, 38
3, 392, Note_on_c, 0, 81, 0
3, 416, Note_on_c, 0, 57, 0
3, 420, Note_on_c, 0, 58, 51
3, 444, Note_on_c, 0, 62, 68
3, 474, Note_on_c, 0, 69, 66
3, 500, Note_on_c, 0, 69, 0
3, 500, Note_on_c, 0, 70, 73
3, 510, Note_on_c, 0, 70, 0
3, 526, Note_on_c, 0, 74, 71
3, 543, Note_on_c, 0, 74, 0
3, 559, Note_on_c, 0, 78, 78
3, 587, Note_on_c, 0, 78, 0
3, 596, Note_on_c, 0, 81, 69
3, 622, Note_on_c, 0, 81, 0
3, 648, Note_on_c, 0, 86, 58
3, 659, Note_on_c, 0, 86, 0
3, 702, Note_on_c, 0, 90, 46
3, 760, Note_on_c, 0, 93, 47
3, 767, Note_on_c, 0, 90, 0
3, 811, Note_on_c, 0, 93, 0
3, 842, Note_on_c, 0, 93, 34
3, 927, Note_on_c, 0, 91, 46
3, 932, Note_on_c, 0, 93, 0
3, 971, Note_on_c, 0, 91, 0
3, 975, Note_on_c, 0, 52, 0
3, 987, Note_on_c, 0, 91, 59
3, 989, Note_on_c, 0, 58, 0
3, 1007, Note_on_c, 0, 62, 0
3, 1020, Note_on_c, 0, 91, 0
3, 1026, Note_on_c, 0, 93, 84
3, 1056, Note_on_c, 0, 93, 0
3, 1070, Note_on_c, 0, 93, 82
3, 1100, Note_on_c, 0, 93, 0
3, 1113, Note_on_c, 0, 94, 75
3, 1147, Note_on_c, 0, 94, 0
3, 1168, Note_on_c, 0, 61, 38
3, 1169, Note_on_c, 0, 66, 31
3, 1170, Note_on_c, 0, 55, 47
3, 1170, Note_on_c, 0, 94, 60
3, 1174, Control_c, 0, 64, 0
3, 1221, Control_c, 0, 64, 127
3, 1230, Note_on_c, 0, 94, 0
3, 1233, Note_on_c, 0, 96, 50
3, 1269, Note_on_c, 0, 66, 0
3, 1293, Note_on_c, 0, 96, 0
3, 1316, Note_on_c, 0, 85, 36
3, 1320, Note_on_c, 0, 65, 31
3, 1424, Note_on_c, 0, 85, 0
3, 1472, Note_on_c, 0, 65, 0
3, 1483, Note_on_c, 0, 61, 0
3, 1501, Note_on_c, 0, 55, 0
3, 1626, Note_on_c, 0, 91, 52
3, 1632, Control_c, 0, 64, 0
3, 1635, Note_on_c, 0, 79, 48
3, 1636, Note_on_c, 0, 55, 34
3, 1669, Control_c, 0, 64, 127
3, 1696, Note_on_c, 0, 79, 0
3, 1702, Note_on_c, 0, 91, 0
3, 1723, Note_on_c, 0, 93, 66
3, 1723, Control_c, 0, 64, 0
3, 1725, Note_on_c, 0, 55, 0
3, 1729, Note_on_c, 0, 57, 38
3, 1731, Note_on_c, 0, 81, 39
3, 1749, Control_c, 0, 64, 127
3, 1759, Note_on_c, 0, 93, 0
3, 1771, Note_on_c, 0, 81, 0
3, 1809, Note_on_c, 0, 57, 0
3, 1821, Note_on_c, 0, 94, 49
3, 1825, Note_on_c, 0, 82, 26
3, 1830, Note_on_c, 0, 58, 33
3, 1851, Note_on_c, 0, 94, 0
3, 1864, Note_on_c, 0, 82, 0
3, 1870, Note_on_c, 0, 58, 0
3, 1967, Note_on_c, 0, 77, 48
3, 1971, Control_c, 0, 64, 0
3, 1972, Note_on_c, 0, 48, 32
3, 1973, Note_on_c, 0, 70, 30
3, 1974, Note_on_c, 0, 58, 23
3, 1977, Note_on_c, 0, 67, 19
3, 2005, Control_c, 0, 64, 127
3, 2011, Note_on_c, 0, 48, 0
3, 2028, Note_on_c, 0, 58, 0
3, 2091, Note_on_c, 0, 77, 0
3, 2091, Note_on_c, 0, 63, 32
3, 2093, Note_on_c, 0, 67, 0
3, 2098, Note_on_c, 0, 70, 0
3, 2133, Note_on_c, 0, 67, 37
3, 2162, Note_on_c, 0, 67, 0
3, 2164, Note_on_c, 0, 69, 62
3, 2185, Note_on_c, 0, 69, 0
3, 2195, Note_on_c, 0, 70, 64
3, 2208, Note_on_c, 0, 70, 0
3, 2226, Note_on_c, 0, 74, 72
3, 2250, Note_on_c, 0, 74, 0
3, 2259, Note_on_c, 0, 75, 64
3, 2266, Control_c, 0, 64, 0
3, 2269, Note_on_c, 0, 75, 0
3, 2296, Note_on_c, 0, 79, 55
3, 2303, Note_on_c, 0, 79, 0
3, 2337, Note_on_c, 0, 82, 42
3, 2350, Note_on_c, 0, 82, 0
3, 2373, Note_on_c, 0, 83, 54
3, 2381, Note_on_c, 0, 83, 0
3, 2418, Note_on_c, 0, 86, 87
3, 2431, Note_on_c, 0, 86, 0
3, 2463, Note_on_c, 0, 84, 68
3, 2475, Note_on_c, 0, 84, 0
3, 2506, Note_on_c, 0, 81, 59
3, 2516, Control_c, 0, 64, 127
3, 2522, Note_on_c, 0, 81, 0
3, 2547, Note_on_c, 0, 78, 47
3, 2582, Note_on_c, 0, 78, 0
3, 2585, Control_c, 0, 64, 0
3, 2592, Note_on_c, 0, 77, 36
3, 2595, Note_on_c, 0, 57, 26
3, 2599, Note_on_c, 0, 63, 0
3, 2616, Control_c, 0, 64, 127
3, 2640, Note_on_c, 0, 77, 0
3, 2644, Note_on_c, 0, 75, 46
3, 2653, Note_on_c, 0, 63, 15
3, 2696, Note_on_c, 0, 71, 33
3, 2697, Note_on_c, 0, 75, 0
3, 2705, Note_on_c, 0, 65, 20
3, 2725, Note_on_c, 0, 65, 0
3, 2736, Note_on_c, 0, 63, 0
3, 2742, Note_on_c, 0, 57, 0
3, 2746, Note_on_c, 0, 71, 0
3, 2754, Note_on_c, 0, 74, 62
3, 2795, Note_on_c, 0, 74, 0
3, 2824, Note_on_c, 0, 74, 47
3, 2829, Note_on_c, 0, 67, 39
3, 2830, Note_on_c, 0, 63, 26
3, 2830, Note_on_c, 0, 41, 36
3, 2831, Note_on_c, 0, 71, 32
3, 2835, Control_c, 0, 64, 0
3, 2885, Control_c, 0, 64, 127
3, 2903, Note_on_c, 0, 48, 33
3, 2938, Note_on_c, 0, 48, 0
3, 2938, Note_on_c, 0, 67, 0
3, 2946, Note_on_c, 0, 63, 0
3, 2954, Note_on_c, 0, 41, 0
3, 2965, Note_on_c, 0, 74, 0
3, 2975, Note_on_c, 0, 71, 0
3, 2982, Note_on_c, 0, 72, 34
3, 2984, Note_on_c, 0, 67, 42
3, 2986, Note_on_c, 0, 63, 25
3, 2988, Note_on_c, 0, 57, 33
3, 3022, Note_on_c, 0, 57, 0
3, 3082, Note_on_c, 0, 60, 38
3, 3087, Note_on_c, 0, 67, 0
3, 3088, Note_on_c, 0, 72, 0
3, 3105, Note_on_c, 0, 60, 0
3, 3113, Note_on_c, 0, 63, 0
3, 3174, Note_on_c, 0, 67, 68
3, 3176, Note_on_c, 0, 60, 59
3, 3176, Note_on_c, 0, 56, 45
3, 3177, Note_on_c, 0, 63, 40
3, 3182, Note_on_c, 0, 55, 46
3, 3185, Control_c, 0, 64, 0
3, 3293, Control_c, 0, 64, 127
3, 3345, Note_on_c, 0, 56, 0
3, 3348, Note_on_c, 0, 60, 0
3, 3360, Note_on_c, 0, 63, 0
3, 3370, Note_on_c, 0, 67, 0
3, 3394, Note_on_c, 0, 56, 69
3, 3421, Note_on_c, 0, 56, 0
3, 3439, Note_on_c, 0, 60, 78
3, 3454, Note_on_c, 0, 55, 0
3, 3479, Note_on_c, 0, 60, 0
3, 3488, Note_on_c, 0, 63, 72
3, 3514, Note_on_c, 0, 63, 0
3, 3561, Control_c, 0, 64, 0
3, 3562, Note_on_c, 0, 65, 69
3, 3562, Note_on_c, 0, 61, 56
3, 3562, Note_on_c, 0, 68, 49
3, 3564, Note_on_c, 0, 47, 38
3, 3567, Note_on_c, 0, 57, 35
3, 3662, Control_c, 0, 64, 127
3, 3667, Note_on_c, 0, 51, 33
3, 3680, Note_on_c, 0, 57, 0
3, 3750, Note_on_c, 0, 61, 0
3, 3756, Note_on_c, 0, 65, 0
3, 3767, Note_on_c, 0, 47, 0
3, 3769, Note_on_c, 0, 68, 0
3, 3799, Note_on_c, 0, 51, 0
3, 4075, Note_on_c, 0, 63, 37
3, 4076, Note_on_c, 0, 68, 23
3, 4078, Note_on_c, 0, 60, 33
3, 4079, Note_on_c, 0, 46, 29
3, 4080, Control_c, 0, 64, 0
3, 4080, Note_on_c, 0, 56, 21
3, 4155, Control_c, 0, 64, 127
3, 4165, Note_on_c, 0, 60, 0
3, 4173, Note_on_c, 0, 68, 0
3, 4179, Note_on_c, 0, 65, 72
3, 4181, Note_on_c, 0, 60, 53
3, 4182, Note_on_c, 0, 53, 38
3, 4197, Note_on_c, 0, 56, 0
3, 4238, Note_on_c, 0, 60, 0
3, 4246, Note_on_c, 0, 65, 0
3, 4251, Note_on_c, 0, 63, 0
3, 4269, Note_on_c, 0, 63, 33
3, 4269, Note_on_c, 0, 65, 57
3, 4269, Note_on_c, 0, 56, 30
3, 4270, Note_on_c, 0, 60, 57
3, 4294, Note_on_c, 0, 46, 0
3, 4322, Note_on_c, 0, 56, 0
3, 4481, Note_on_c, 0, 53, 0
3, 4495, Note_on_c, 0, 67, 58
3, 4519, Note_on_c, 0, 65, 0
3, 4519, Note_on_c, 0, 60, 0
3, 4540, Note_on_c, 0, 63, 0
3, 4583, Note_on_c, 0, 67, 0
3, 4879, Note_on_c, 0, 70, 50
3, 4885, Note_on_c, 0, 39, 32
3, 4888, Control_c, 0, 64, 0
3, 4922, Control_c, 0, 64, 127
3, 4937, Note_on_c, 0, 39, 0
3, 4943, Note_on_c, 0, 46, 36
3, 4957, Note_on_c, 0, 70, 0
3, 4992, Note_on_c, 0, 46, 0
3, 5002, Note_on_c, 0, 55, 41
3, 5050, Note_on_c, 0, 72, 30
3, 5055, Note_on_c, 0, 55, 0
3, 5084, Note_on_c, 0, 72, 0
3, 5094, Note_on_c, 0, 77, 51
3, 5098, Note_on_c, 0, 60, 32
3, 5102, Note_on_c, 0, 58, 1
3, 5131, Note_on_c, 0, 77, 0
3, 5131, Note_on_c, 0, 82, 62
3, 5146, Note_on_c, 0, 82, 0
3, 5170, Note_on_c, 0, 84, 67
3, 5173, Note_on_c, 0, 65, 37
3, 5196, Note_on_c, 0, 84, 0
3, 5203, Note_on_c, 0, 58, 0
3, 5208, Note_on_c, 0, 89, 79
3, 5234, Note_on_c, 0, 65, 0
3, 5243, Note_on_c, 0, 89, 0
3, 5248, Note_on_c, 0, 94, 81
3, 5254, Note_on_c, 0, 60, 0
3, 5254, Note_on_c, 0, 58, 31
3, 5260, Note_on_c, 0, 58, 0
3, 5290, Note_on_c, 0, 94, 0
3, 5299, Control_c, 0, 64, 0
3, 5302, Note_on_c, 0, 96, 61
3, 5309, Note_on_c, 0, 32, 38
3, 5331, Control_c, 0, 64, 127
3, 5339, Note_on_c, 0, 96, 0
3, 5357, Note_on_c, 0, 44, 31
3, 5360, Note_on_c, 0, 98, 55
3, 5362, Note_on_c, 0, 32, 0
3, 5367, Note_on_c, 0, 44, 0
3, 5432, Note_on_c, 0, 54, 31
3, 5432, Note_on_c, 0, 89, 42
3, 5469, Note_on_c, 0, 98, 0
3, 5488, Note_on_c, 0, 89, 0
3, 5510, Note_on_c, 0, 60, 30
3, 5598, Note_on_c, 0, 65, 26
3, 5600, Note_on_c, 0, 77, 24
3, 5810, Note_on_c, 0, 77, 0
3, 6076, Note_on_c, 0, 65, 0
3, 6110, Note_on_c, 0, 60, 0
3, 6121, Note_on_c, 0, 72, 41
3, 6156, Note_on_c, 0, 54, 0
3, 6272, Note_on_c, 0, 72, 0
3, 6311, Note_on_c, 0, 75, 62
3, 6319, Control_c, 0, 64, 0
3, 6320, Note_on_c, 0, 66, 51
3, 6321, Note_on_c, 0, 50, 30
3, 6326, Note_on_c, 0, 60, 22
3, 6355, Control_c, 0, 64, 127
3, 6394, Note_on_c, 0, 60, 0
3, 6401, Note_on_c, 0, 50, 0
3, 6416, Note_on_c, 0, 75, 0
3, 6426, Note_on_c, 0, 66, 0
3, 6478, Note_on_c, 0, 74, 62
3, 6479, Control_c, 0, 64, 0
3, 6482, Note_on_c, 0, 44, 37
3, 6482, Note_on_c, 0, 54, 35
3, 6484, Note_on_c, 0, 65, 56
3, 6531, Control_c, 0, 64, 127
3, 6544, Note_on_c, 0, 74, 0
3, 6554, Note_on_c, 0, 65, 0
3, 6569, Note_on_c, 0, 54, 0
3, 6582, Note_on_c, 0, 44, 0
3, 6814, Control_c, 0, 64, 0
3, 6815, Note_on_c, 0, 72, 57
3, 6816, Note_on_c, 0, 65, 65
3, 6816, Note_on_c, 0, 69, 65
3, 6818, Note_on_c, 0, 62, 50
3, 6819, Note_on_c, 0, 60, 44
3, 6820, Note_on_c, 0, 58, 40
3, 6854, Control_c, 0, 64, 127
3, 6872, Note_on_c, 0, 60, 0
3, 6877, Note_on_c, 0, 69, 0
3, 6878, Note_on_c, 0, 62, 0
3, 6881, Note_on_c, 0, 58, 0
3, 6891, Note_on_c, 0, 65, 0
3, 6897, Note_on_c, 0, 72, 0
3, 6940, Note_on_c, 0, 70, 68
3, 6940, Note_on_c, 0, 63, 65
3, 6941, Note_on_c, 0, 67, 65
3, 6943, Note_on_c, 0, 60, 42
3, 6944, Control_c, 0, 64, 0
3, 6944, Note_on_c, 0, 56, 33
3, 6944, Note_on_c, 0, 58, 38
3, 6984, Control_c, 0, 64, 127
3, 7024, Note_on_c, 0, 60, 0
3, 7024, Note_on_c, 0, 67, 0
3, 7025, Note_on_c, 0, 63, 0
3, 7042, Note_on_c, 0, 70, 0
3, 7049, Note_on_c, 0, 58, 0
3, 7050, Note_on_c, 0, 56, 0
3, 7097, Note_on_c, 0, 74, 66
3, 7098, Note_on_c, 0, 66, 48
3, 7100, Control_c, 0, 64, 0
3, 7102, Note_on_c, 0, 62, 57
3, 7103, Note_on_c, 0, 59, 40
3, 7104, Note_on_c, 0, 57, 36
3, 7107, Note_on_c, 0, 55, 41
3, 7151, Control_c, 0, 64, 127
3, 7196, Note_on_c, 0, 62, 0
3, 7198, Note_on_c, 0, 66, 0
3, 7230, Note_on_c, 0, 74, 0
3, 7231, Note_on_c, 0, 59, 0
3, 7233, Note_on_c, 0, 57, 0
3, 7234, Note_on_c, 0, 66, 45
3, 7236, Note_on_c, 0, 62, 42
3, 7241, Note_on_c, 0, 55, 0
3, 7282, Note_on_c, 0, 66, 0
3, 7286, Note_on_c, 0, 62, 0
3, 7367, Note_on_c, 0, 63, 47
3, 7371, Note_on_c, 0, 61, 33
3, 7372, Note_on_c, 0, 55, 33
3, 7373, Note_on_c, 0, 58, 34
3, 7375, Note_on_c, 0, 49, 27
3, 7376, Note_on_c, 0, 45, 32
3, 7381, Control_c, 0, 64, 0
3, 7429, Control_c, 0, 64, 127
3, 7449, Note_on_c, 0, 55, 0
3, 7455, Note_on_c, 0, 58, 0
3, 7461, Note_on_c, 0, 61, 0
3, 7464, Note_on_c, 0, 63, 0
3, 7504, Note_on_c, 0, 64, 69
3, 7505, Note_on_c, 0, 61, 62
3, 7506, Control_c, 0, 64, 0
3, 7507, Note_on_c, 0, 49, 0
3, 7507, Note_on_c, 0, 58, 52
3, 7508, Note_on_c, 0, 55, 59
3, 7509, Note_on_c, 0, 52, 42
3, 7542, Control_c, 0, 64, 127
3, 7553, Note_on_c, 0, 45, 0
3, 7557, Note_on_c, 0, 55, 0
3, 7565, Note_on_c, 0, 52, 0
3, 7578, Note_on_c, 0, 58, 0
3, 7585, Note_on_c, 0, 61, 0
3, 7587, Note_on_c, 0, 64, 0
3, 7749, Note_on_c, 0, 50, 45
3, 7760, Note_on_c, 0, 57, 62
3, 7762, Note_on_c, 0, 65, 71
3, 7766, Note_on_c, 0, 72, 53
3, 7768, Note_on_c, 0, 64, 72
3, 7774, Control_c, 0, 64, 0
3, 7778, Note_on_c, 0, 79, 62
3, 7823, Control_c, 0, 64, 127
3, 7868, Note_on_c, 0, 79, 0
3, 7893, Note_on_c, 0, 79, 73
3, 7894, Note_on_c, 0, 57, 0
3, 7896, Note_on_c, 0, 64, 0
3, 7905, Note_on_c, 0, 50, 0
3, 7922, Note_on_c, 0, 79, 0
3, 7932, Note_on_c, 0, 72, 0
3, 7938, Note_on_c, 0, 65, 0
3, 7971, Note_on_c, 0, 48, 49
3, 7981, Note_on_c, 0, 75, 13
3, 7987, Control_c, 0, 64, 0
3, 7988, Note_on_c, 0, 55, 45
3, 7994, Note_on_c, 0, 63, 46
3, 7996, Note_on_c, 0, 75, 0
3, 7997, Note_on_c, 0, 70, 51
3, 7998, Note_on_c, 0, 62, 64
3, 8011, Note_on_c, 0, 77, 60
3, 8016, Note_on_c, 0, 76, 31
3, 8079, Control_c, 0, 64, 127
3, 8098, Note_on_c, 0, 76, 0
3, 8108, Note_on_c, 0, 77, 0
3, 8136, Note_on_c, 0, 63, 0
3, 8139, Note_on_c, 0, 62, 0
3, 8139, Note_on_c, 0, 55, 0
3, 8146, Note_on_c, 0, 77, 44
3, 8157, Note_on_c, 0, 48, 0
3, 8192, Note_on_c, 0, 77, 0
3, 8222, Note_on_c, 0, 70, 0
3, 8282, Note_on_c, 0, 46, 37
3, 8310, Note_on_c, 0, 46, 0
3, 8311, Note_on_c, 0, 53, 33
3, 8315, Note_on_c, 0, 61, 34
3, 8322, Note_on_c, 0, 68, 42
3, 8325, Control_c, 0, 64, 0
3, 8333, Note_on_c, 0, 75, 43
3, 8335, Note_on_c, 0, 60, 16
3, 8365, Control_c, 0, 64, 127
3, 8410, Note_on_c, 0, 75, 0
3, 8426, Note_on_c, 0, 60, 0
3, 8439, Note_on_c, 0, 61, 0
3, 8442, Note_on_c, 0, 53, 0
3, 8443, Note_on_c, 0, 75, 37
3, 8497, Note_on_c, 0, 68, 0
3, 8537, Note_on_c, 0, 75, 0
3, 8577, Control_c, 0, 64, 0
3, 8585, Note_on_c, 0, 27, 36
3, 8599, Control_c, 0, 64, 127
3, 8631, Note_on_c, 0, 27, 0
3, 8786, Note_on_c, 0, 79, 52
3, 8793, Note_on_c, 0, 61, 25
3, 8794, Note_on_c, 0, 67, 36
3, 8795, Note_on_c, 0, 55, 29
3, 8912, Note_on_c, 0, 79, 0
3, 8915, Note_on_c, 0, 61, 0
3, 8936, Note_on_c, 0, 55, 0
3, 8944, Note_on_c, 0, 67, 0
3, 9061, Note_on_c, 0, 70, 85
3, 9149, Note_on_c, 0, 70, 0
3, 9208, Note_on_c, 0, 70, 69
3, 9210, Note_on_c, 0, 45, 46
3, 9210, Control_c, 0, 64, 0
3, 9211, Note_on_c, 0, 64, 73
3, 9211, Note_on_c, 0, 61, 67
3, 9213, Note_on_c, 0, 55, 47
3, 9251, Control_c, 0, 64, 127
3, 9298, Note_on_c, 0, 64, 0
3, 9304, Note_on_c, 0, 70, 0
3, 9329, Note_on_c, 0, 61, 0
3, 9383, Note_on_c, 0, 55, 0
3, 9383, Note_on_c, 0, 45, 0
3, 9384, Note_on_c, 0, 69, 69
3, 9388, Note_on_c, 0, 61, 55
3, 9388, Note_on_c, 0, 64, 59
3, 9389, Control_c, 0, 64, 0
3, 9390, Note_on_c, 0, 58, 46
3, 9390, Note_on_c, 0, 49, 42
3, 9431, Control_c, 0, 64, 127
3, 9462, Note_on_c, 0, 61, 0
3, 9468, Note_on_c, 0, 69, 0
3, 9469, Note_on_c, 0, 58, 0
3, 9472, Note_on_c, 0, 64, 0
3, 9530, Note_on_c, 0, 49, 0
3, 9530, Note_on_c, 0, 67, 47
3, 9533, Note_on_c, 0, 50, 38
3, 9533, Note_on_c, 0, 60, 29
3, 9533, Note_on_c, 0, 64, 40
3, 9534, Control_c, 0, 64, 0
3, 9588, Control_c, 0, 64, 127
3, 9618, Note_on_c, 0, 50, 0
3, 9624, Note_on_c, 0, 64, 0
3, 9625, Note_on_c, 0, 67, 0
3, 9636, Note_on_c, 0, 60, 0
3, 9711, Note_on_c, 0, 65, 50
3, 9713, Note_on_c, 0, 58, 35
3, 9714, Note_on_c, 0, 62, 50
3, 9714, Note_on_c, 0, 53, 30
3, 9716, Note_on_c, 0, 44, 30
3, 9717, Control_c, 0, 64, 0
3, 9758, Control_c, 0, 64, 127
3, 9763, Note_on_c, 0, 53, 0
3, 9766, Note_on_c, 0, 65, 0
3, 9770, Note_on_c, 0, 58, 0
3, 9771, Note_on_c, 0, 62, 0
3, 9807, Note_on_c, 0, 44, 0
3, 9817, Note_on_c, 0, 67, 53
3, 9819, Note_on_c, 0, 43, 32
3, 9819, Note_on_c, 0, 58, 46
3, 9821, Note_on_c, 0, 62, 58
3, 9822, Control_c, 0, 64, 0
3, 9824, Note_on_c, 0, 65, 33
3, 9859, Control_c, 0, 64, 127
3, 9876, Note_on_c, 0, 43, 0
3, 9894, Note_on_c, 0, 58, 0
3, 9903, Note_on_c, 0, 62, 0
3, 9916, Note_on_c, 0, 65, 0
3, 9930, Note_on_c, 0, 67, 0
3, 9938, Note_on_c, 0, 63, 33
3, 9939, Note_on_c, 0, 59, 33
3, 9939, Control_c, 0, 64, 0
3, 9940, Note_on_c, 0, 37, 34
3, 9942, Note_on_c, 0, 44, 27
3, 9967, Control_c, 0, 64, 127
3, 9993, Note_on_c, 0, 37, 0
3, 10007, Note_on_c, 0, 44, 0
3, 10021, Note_on_c, 0, 63, 0
3, 10022, Note_on_c, 0, 59, 0
3, 10087, Note_on_c, 0, 66, 34
3, 10088, Note_on_c, 0, 69, 51
3, 10091, Control_c, 0, 64, 0
3, 10091, Note_on_c, 0, 62, 43
3, 10091, Note_on_c, 0, 48, 27
3, 10093, Note_on_c, 0, 58, 29
3, 10093, Note_on_c, 0, 36, 36
3, 10142, Control_c, 0, 64, 127
3, 10221, Note_on_c, 0, 62, 0
3, 10222, Note_on_c, 0, 58, 0
3, 10235, Note_on_c, 0, 66, 0
3, 10241, Note_on_c, 0, 69, 0
3, 10300, Note_on_c, 0, 36, 0
3, 10318, Note_on_c, 0, 48, 0
3, 10321, Note_on_c, 0, 70, 39
3, 10381, Note_on_c, 0, 70, 0
3, 10505, Note_on_c, 0, 86, 65
3, 10512, Note_on_c, 0, 62, 37
3, 10513, Note_on_c, 0, 74, 53
3, 10522, Control_c, 0, 64, 0
3, 10558, Control_c, 0, 64, 127
3, 10592, Note_on_c, 0, 74, 0
3, 10600, Note_on_c, 0, 50, 34
3, 10605, Note_on_c, 0, 86, 0
3, 10862, Note_on_c, 0, 98, 79
3, 10891, Note_on_c, 0, 98, 0
3, 10891, Note_on_c, 0, 50, 0
3, 10900, Note_on_c, 0, 99, 71
3, 10916, Note_on_c, 0, 62, 0
3, 10946, Note_on_c, 0, 99, 0
3, 10951, Note_on_c, 0, 96, 73
3, 10952, Note_on_c, 0, 65, 45
3, 10954, Note_on_c, 0, 55, 48
3, 10955, Note_on_c, 0, 60, 38
3, 10957, Note_on_c, 0, 61, 39
3, 10958, Control_c, 0, 64, 0
3, 10990, Control_c, 0, 64, 127
3, 11010, Note_on_c, 0, 65, 0
3, 11013, Note_on_c, 0, 60, 0
3, 11014, Note_on_c, 0, 61, 0
3, 11019, Note_on_c, 0, 55, 0
3, 11103, Note_on_c, 0, 27, 53
3, 11120, Note_on_c, 0, 27, 0
3, 11201, Note_on_c, 0, 96, 0
3, 11369, Note_on_c, 0, 54, 28
3, 11370, Note_on_c, 0, 66, 36
3, 11371, Note_on_c, 0, 63, 37
3, 11372, Control_c, 0, 64, 0
3, 11373, Note_on_c, 0, 60, 33
3, 11375, Note_on_c, 0, 57, 38
3, 11404, Control_c, 0, 64, 127
3, 11420, Note_on_c, 0, 57, 0
3, 11426, Note_on_c, 0, 54, 0
3, 11536, Note_on_c, 0, 26, 75
3, 11578, Note_on_c, 0, 60, 0
3, 11590, Note_on_c, 0, 63, 0
3, 11600, Note_on_c, 0, 66, 0
3, 11612, Note_on_c, 0, 26, 0
3, 11803, Note_on_c, 0, 93, 54
3, 11803, Note_on_c, 0, 105, 54
3, 11807, Note_on_c, 0, 54, 34
3, 11807, Note_on_c, 0, 63, 26
3, 11809, Note_on_c, 0, 60, 41
3, 11926, Note_on_c, 0, 105, 0
3, 11954, Note_on_c, 0, 93, 0
3, 11955, Note_on_c, 0, 54, 0
3, 12214, Note_on_c, 0, 86, 87
3, 12269, Note_on_c, 0, 86, 0
3, 12292, Note_on_c, 0, 86, 77
3, 12328, Note_on_c, 0, 86, 0
3, 12354, Note_on_c, 0, 86, 67
3, 12384, Note_on_c, 0, 86, 0
3, 12398, Note_on_c, 0, 63, 0
3, 12414, Note_on_c, 0, 60, 0
3, 12419, Note_on_c, 0, 86, 55
3, 12454, Note_on_c, 0, 86, 0
3, 12482, Note_on_c, 0, 86, 53
3, 12514, Note_on_c, 0, 86, 0
3, 12546, Note_on_c, 0, 86, 64
3, 12568, Note_on_c, 0, 86, 0
3, 12610, Note_on_c, 0, 86, 69
3, 12633, Note_on_c, 0, 86, 0
3, 12693, Note_on_c, 0, 87, 55
3, 12694, Note_on_c, 0, 78, 33
3, 12696, Control_c, 0, 64, 0
3, 12697, Note_on_c, 0, 32, 45
3, 12702, Note_on_c, 0, 44, 23
3, 12702, Note_on_c, 0, 85, 28
3, 12703, Note_on_c, 0, 82, 21
3, 12710, Note_on_c, 0, 85, 0
3, 12731, Control_c, 0, 64, 127
3, 12751, Note_on_c, 0, 32, 0
3, 12759, Note_on_c, 0, 44, 0
3, 12781, Note_on_c, 0, 82, 0
3, 12782, Note_on_c, 0, 87, 0
3, 12786, Note_on_c, 0, 78, 0
3, 12827, Note_on_c, 0, 54, 35
3, 12883, Note_on_c, 0, 54, 0
3, 12905, Note_on_c, 0, 75, 49
3, 12909, Note_on_c, 0, 66, 23
3, 12909, Note_on_c, 0, 56, 30
3, 12909, Note_on_c, 0, 70, 37
3, 12971, Note_on_c, 0, 61, 56
3, 12989, Note_on_c, 0, 70, 0
3, 13005, Note_on_c, 0, 66, 0
3, 13033, Note_on_c, 0, 70, 52
3, 13034, Note_on_c, 0, 66, 39
3, 13035, Note_on_c, 0, 63, 56
3, 13085, Note_on_c, 0, 63, 0
3, 13094, Note_on_c, 0, 61, 0
3, 13100, Note_on_c, 0, 65, 80
3, 13131, Note_on_c, 0, 70, 0
3, 13148, Note_on_c, 0, 66, 0
3, 13165, Note_on_c, 0, 65, 0
3, 13170, Note_on_c, 0, 66, 42
3, 13170, Note_on_c, 0, 70, 56
3, 13171, Note_on_c, 0, 63, 61
3, 13188, Note_on_c, 0, 56, 0
3, 13228, Note_on_c, 0, 70, 0
3, 13229, Note_on_c, 0, 75, 0
3, 13237, Note_on_c, 0, 66, 0
3, 13244, Note_on_c, 0, 56, 38
3, 13246, Note_on_c, 0, 63, 0
3, 13263, Note_on_c, 0, 56, 0
3, 13334, Note_on_c, 0, 63, 48
3, 13336, Note_on_c, 0, 53, 36
3, 13336, Note_on_c, 0, 59, 57
3, 13339, Note_on_c, 0, 43, 47
3, 13343, Control_c, 0, 64, 0
3, 13397, Control_c, 0, 64, 127
3, 13422, Note_on_c, 0, 53, 0
3, 13429, Note_on_c, 0, 59, 0
3, 13436, Note_on_c, 0, 63, 0
3, 13480, Note_on_c, 0, 43, 0
3, 13490, Note_on_c, 0, 75, 84
3, 13551, Note_on_c, 0, 75, 0
3, 13593, Note_on_c, 0, 75, 69
3, 13593, Note_on_c, 0, 71, 66
3, 13595, Note_on_c, 0, 59, 45
3, 13595, Note_on_c, 0, 68, 46
3, 13597, Note_on_c, 0, 65, 51
3, 13600, Control_c, 0, 64, 0
3, 13626, Control_c, 0, 64, 127
3, 13663, Note_on_c, 0, 75, 0
3, 13680, Note_on_c, 0, 75, 72
3, 13696, Note_on_c, 0, 65, 0
3, 13710, Note_on_c, 0, 71, 0
3, 13730, Note_on_c, 0, 75, 0
3, 13732, Note_on_c, 0, 68, 0
3, 13743, Note_on_c, 0, 74, 80
3, 13769, Note_on_c, 0, 74, 0
3, 13813, Note_on_c, 0, 77, 64
3, 13818, Note_on_c, 0, 71, 77
3, 13819, Control_c, 0, 64, 0
3, 13821, Note_on_c, 0, 68, 62
3, 13823, Note_on_c, 0, 62, 54
3, 13825, Note_on_c, 0, 59, 0
3, 13870, Control_c, 0, 64, 127
3, 13897, Note_on_c, 0, 77, 0
3, 13920, Note_on_c, 0, 77, 62
3, 13968, Note_on_c, 0, 77, 0
3, 13987, Note_on_c, 0, 62, 0
3, 14000, Note_on_c, 0, 77, 58
3, 14000, Note_on_c, 0, 65, 39
3, 14028, Note_on_c, 0, 65, 0
3, 14046, Note_on_c, 0, 77, 0
3, 14062, Note_on_c, 0, 68, 0
3, 14071, Note_on_c, 0, 77, 60
3, 14077, Note_on_c, 0, 71, 0
3, 14100, Note_on_c, 0, 77, 0
3, 14144, Note_on_c, 0, 77, 51
3, 14145, Note_on_c, 0, 48, 35
3, 14147, Note_on_c, 0, 70, 39
3, 14148, Control_c, 0, 64, 0
3, 14193, Control_c, 0, 64, 127
3, 14213, Note_on_c, 0, 70, 0
3, 14221, Note_on_c, 0, 55, 29
3, 14222, Note_on_c, 0, 77, 0
3, 14279, Note_on_c, 0, 48, 0
3, 14285, Note_on_c, 0, 55, 0
3, 14286, Note_on_c, 0, 87, 57
3, 14290, Note_on_c, 0, 75, 50
3, 14301, Note_on_c, 0, 64, 18
3, 14313, Note_on_c, 0, 64, 0
3, 14363, Note_on_c, 0, 75, 0
3, 14363, Note_on_c, 0, 87, 0
3, 14384, Note_on_c, 0, 86, 69
3, 14385, Note_on_c, 0, 78, 45
3, 14389, Note_on_c, 0, 63, 32
3, 14459, Note_on_c, 0, 78, 0
3, 14469, Note_on_c, 0, 86, 0
3, 14491, Note_on_c, 0, 67, 39
3, 14493, Note_on_c, 0, 76, 32
3, 14494, Note_on_c, 0, 84, 54
3, 14542, Note_on_c, 0, 76, 0
3, 14555, Note_on_c, 0, 63, 0
3, 14577, Note_on_c, 0, 67, 0
3, 14578, Note_on_c, 0, 84, 0
3, 14581, Note_on_c, 0, 82, 55
3, 14584, Note_on_c, 0, 63, 25
3, 14596, Note_on_c, 0, 63, 0
3, 14658, Note_on_c, 0, 82, 0
3, 14664, Note_on_c, 0, 77, 42
3, 14664, Note_on_c, 0, 86, 57
3, 14665, Note_on_c, 0, 32, 51
3, 14668, Control_c, 0, 64, 0
3, 14702, Control_c, 0, 64, 127
3, 14731, Note_on_c, 0, 44, 38
3, 14733, Note_on_c, 0, 32, 0
3, 14738, Note_on_c, 0, 86, 0
3, 14743, Note_on_c, 0, 44, 0
3, 14794, Note_on_c, 0, 60, 54
3, 14851, Note_on_c, 0, 77, 0
3, 14866, Note_on_c, 0, 84, 54
3, 14869, Note_on_c, 0, 65, 35
3, 14899, Note_on_c, 0, 84, 0
3, 14908, Note_on_c, 0, 65, 0
3, 14916, Note_on_c, 0, 60, 0
3, 14946, Note_on_c, 0, 82, 38
3, 14948, Note_on_c, 0, 54, 37
3, 14948, Note_on_c, 0, 77, 32
3, 14949, Note_on_c, 0, 72, 22
3, 14949, Note_on_c, 0, 65, 36
3, 14952, Control_c, 0, 64, 0
3, 14971, Note_on_c, 0, 58, 13
3, 14978, Control_c, 0, 64, 127
3, 15012, Note_on_c, 0, 82, 0
3, 15014, Note_on_c, 0, 77, 0
3, 15023, Note_on_c, 0, 65, 0
3, 15027, Note_on_c, 0, 72, 0
3, 15029, Note_on_c, 0, 60, 24
3, 15071, Note_on_c, 0, 60, 0
3, 15106, Note_on_c, 0, 74, 42
3, 15108, Note_on_c, 0, 70, 35
3, 15109, Note_on_c, 0, 65, 35
3, 15111, Note_on_c, 0, 60, 30
3, 15255, Note_on_c, 0, 74, 0
3, 15271, Note_on_c, 0, 70, 0
3, 15291, Note_on_c, 0, 65, 0
3, 15317, Note_on_c, 0, 72, 74
3, 15317, Note_on_c, 0, 69, 91
3, 15378, Note_on_c, 0, 69, 0
3, 15379, Note_on_c, 0, 72, 0
3, 15383, Note_on_c, 0, 70, 72
3, 15386, Note_on_c, 0, 67, 70
3, 15438, Note_on_c, 0, 67, 0
3, 15452, Note_on_c, 0, 60, 0
3, 15453, Note_on_c, 0, 70, 0
3, 15469, Note_on_c, 0, 65, 62
3, 15471, Note_on_c, 0, 69, 64
3, 15486, Note_on_c, 0, 58, 0
3, 15495, Note_on_c, 0, 54, 0
3, 15529, Note_on_c, 0, 65, 0
3, 15539, Note_on_c, 0, 69, 0
3, 15634, Note_on_c, 0, 72, 44
3, 15636, Note_on_c, 0, 69, 49
3, 15639, Note_on_c, 0, 46, 35
3, 15640, Note_on_c, 0, 64, 53
3, 15640, Note_on_c, 0, 54, 27
3, 15641, Note_on_c, 0, 61, 32
3, 15643, Control_c, 0, 64, 0
3, 15699, Control_c, 0, 64, 127
3, 15730, Note_on_c, 0, 64, 0
3, 15756, Note_on_c, 0, 61, 0
3, 15759, Note_on_c, 0, 69, 0
3, 15766, Note_on_c, 0, 65, 47
3, 15766, Note_on_c, 0, 62, 47
3, 15767, Control_c, 0, 64, 0
3, 15767, Note_on_c, 0, 55, 44
3, 15768, Note_on_c, 0, 54, 0
3, 15788, Control_c, 0, 64, 127
3, 15798, Note_on_c, 0, 46, 0
3, 15808, Note_on_c, 0, 65, 0
3, 15813, Note_on_c, 0, 62, 0
3, 15817, Note_on_c, 0, 72, 0
3, 15824, Note_on_c, 0, 55, 0
3, 15874, Note_on_c, 0, 50, 37
3, 15876, Note_on_c, 0, 66, 54
3, 15877, Note_on_c, 0, 63, 42
3, 15881, Note_on_c, 0, 60, 29
3, 15882, Control_c, 0, 64, 0
3, 15927, Control_c, 0, 64, 127
3, 15948, Note_on_c, 0, 63, 0
3, 15960, Note_on_c, 0, 66, 0
3, 15968, Note_on_c, 0, 69, 64
3, 15969, Note_on_c, 0, 54, 32
3, 15973, Note_on_c, 0, 63, 35
3, 15980, Note_on_c, 0, 66, 23
3, 15981, Note_on_c, 0, 50, 0
3, 15995, Note_on_c, 0, 54, 0
3, 16006, Note_on_c, 0, 60, 0
3, 16011, Note_on_c, 0, 66, 0
3, 16023, Note_on_c, 0, 63, 0
3, 16024, Note_on_c, 0, 69, 0
3, 16057, Note_on_c, 0, 72, 35
3, 16060, Note_on_c, 0, 69, 60
3, 16061, Control_c, 0, 64, 0
3, 16061, Note_on_c, 0, 65, 43
3, 16062, Note_on_c, 0, 62, 50
3, 16063, Note_on_c, 0, 58, 23
3, 16064, Note_on_c, 0, 60, 35
3, 16098, Control_c, 0, 64, 127
3, 16269, Note_on_c, 0, 72, 0
3, 16276, Note_on_c, 0, 65, 0
3, 16287, Note_on_c, 0, 69, 0
3, 16290, Note_on_c, 0, 72, 34
3, 16304, Note_on_c, 0, 60, 0
3, 16308, Note_on_c, 0, 62, 0
3, 16316, Note_on_c, 0, 58, 0
3, 16379, Note_on_c, 0, 72, 0
3, 16406, Note_on_c, 0, 70, 48
3, 16407, Note_on_c, 0, 67, 52
3, 16407, Note_on_c, 0, 63, 25
3, 16410, Note_on_c, 0, 56, 25
3, 16410, Note_on_c, 0, 58, 29
3, 16414, Control_c, 0, 64, 0
3, 16417, Note_on_c, 0, 60, 19
3, 16461, Control_c, 0, 64, 127
3, 16497, Note_on_c, 0, 70, 0
3, 16513, Note_on_c, 0, 60, 0
3, 16517, Note_on_c, 0, 70, 45
3, 16538, Note_on_c, 0, 67, 0
3, 16540, Note_on_c, 0, 56, 0
3, 16544, Note_on_c, 0, 58, 0
3, 16551, Note_on_c, 0, 63, 0
3, 16616, Note_on_c, 0, 70, 0
3, 16709, Control_c, 0, 64, 0
3, 16715, Note_on_c, 0, 66, 30
3, 16715, Note_on_c, 0, 69, 49
3, 16717, Note_on_c, 0, 62, 36
3, 16718, Note_on_c, 0, 58, 20
3, 16721, Note_on_c, 0, 57, 45
3, 16722, Note_on_c, 0, 55, 36
3, 16736, Control_c, 0, 64, 127
3, 16755, Note_on_c, 0, 62, 0
3, 16763, Note_on_c, 0, 69, 0
3, 16764, Note_on_c, 0, 66, 0
3, 16825, Note_on_c, 0, 81, 57
3, 16831, Note_on_c, 0, 69, 66
3, 16845, Note_on_c, 0, 69, 0
3, 16851, Note_on_c, 0, 81, 0
3, 16901, Note_on_c, 0, 86, 55
3, 16907, Note_on_c, 0, 74, 55
3, 16915, Note_on_c, 0, 74, 0
3, 16922, Note_on_c, 0, 86, 0
3, 16953, Note_on_c, 0, 57, 0
3, 16961, Note_on_c, 0, 55, 0
3, 16963, Note_on_c, 0, 58, 0
3, 16976, Note_on_c, 0, 93, 55
3, 16982, Note_on_c, 0, 81, 36
3, 17000, Note_on_c, 0, 81, 0
3, 17008, Note_on_c, 0, 93, 0
3, 17079, Note_on_c, 0, 96, 52
3, 17082, Note_on_c, 0, 61, 29
3, 17082, Note_on_c, 0, 66, 26
3, 17082, Note_on_c, 0, 55, 43
3, 17083, Note_on_c, 0, 84, 34
3, 17088, Control_c, 0, 64, 0
3, 17121, Control_c, 0, 64, 127
3, 17171, Note_on_c, 0, 96, 0
3, 17179, Note_on_c, 0, 84, 0
3, 17187, Note_on_c, 0, 66, 0
3, 17321, Note_on_c, 0, 61, 0
3, 17334, Note_on_c, 0, 55, 0
3, 17435, Note_on_c, 0, 91, 60
3, 17435, Note_on_c, 0, 55, 51
3, 17484, Note_on_c, 0, 91, 0
3, 17488, Note_on_c, 0, 55, 0
3, 17490, Control_c, 0, 64, 0
3, 17491, Note_on_c, 0, 93, 81
3, 17493, Note_on_c, 0, 57, 66
3, 17499, Control_c, 0, 64, 127
3, 17534, Note_on_c, 0, 93, 0
3, 17548, Note_on_c, 0, 57, 0
3, 17549, Note_on_c, 0, 94, 77
3, 17552, Note_on_c, 0, 58, 55
3, 17571, Note_on_c, 0, 58, 0
3, 17578, Note_on_c, 0, 94, 0
3, 17719, Note_on_c, 0, 65, 67
3, 17720, Note_on_c, 0, 58, 69
3, 17720, Note_on_c, 0, 54, 52
3, 17721, Note_on_c, 0, 61, 64
3, 17723, Note_on_c, 0, 39, 55
3, 17733, Control_c, 0, 64, 0
3, 17782, Control_c, 0, 64, 127
3, 17813, Note_on_c, 0, 65, 0
3, 17848, Note_on_c, 0, 65, 70
3, 17861, Note_on_c, 0, 54, 0
3, 17864, Note_on_c, 0, 61, 0
3, 17890, Note_on_c, 0, 58, 0
3, 17899, Note_on_c, 0, 65, 0
3, 17933, Note_on_c, 0, 65, 65
3, 17935, Control_c, 0, 64, 0
3, 17935, Note_on_c, 0, 58, 54
3, 17935, Note_on_c, 0, 54, 42
3, 17935, Note_on_c, 0, 44, 44
3, 17936, Note_on_c, 0, 60, 57
3, 17937, Note_on_c, 0, 39, 0
3, 17973, Control_c, 0, 64, 127
3, 17981, Note_on_c, 0, 65, 0
3, 17993, Note_on_c, 0, 60, 0
3, 17995, Note_on_c, 0, 54, 0
3, 18001, Note_on_c, 0, 65, 62
3, 18008, Note_on_c, 0, 58, 0
3, 18011, Note_on_c, 0, 44, 0
3, 18035, Note_on_c, 0, 65, 0
3, 18071, Control_c, 0, 64, 0
3, 18075, Note_on_c, 0, 65, 62
3, 18076, Note_on_c, 0, 60, 61
3, 18077, Note_on_c, 0, 53, 45
3, 18077, Note_on_c, 0, 38, 44
3, 18118, Control_c, 0, 64, 127
3, 18136, Note_on_c, 0, 65, 0
3, 18165, Note_on_c, 0, 65, 51
3, 18201, Note_on_c, 0, 60, 0
3, 18221, Note_on_c, 0, 65, 0
3, 18222, Note_on_c, 0, 53, 0
3, 18276, Note_on_c, 0, 65, 47
3, 18278, Note_on_c, 0, 59, 51
3, 18279, Note_on_c, 0, 53, 27
3, 18282, Note_on_c, 0, 38, 0
3, 18282, Control_c, 0, 64, 0
3, 18282, Note_on_c, 0, 43, 37
3, 18336, Control_c, 0, 64, 127
3, 18388, Note_on_c, 0, 65, 0
3, 18427, Note_on_c, 0, 65, 45
3, 18452, Note_on_c, 0, 43, 0
3, 18462, Note_on_c, 0, 53, 0
3, 18474, Note_on_c, 0, 65, 0
3, 18480, Note_on_c, 0, 59, 0
3, 18573, Note_on_c, 0, 66, 46
3, 18577, Note_on_c, 0, 54, 25
3, 18579, Note_on_c, 0, 53, 33
3, 18580, Note_on_c, 0, 61, 37
3, 18580, Note_on_c, 0, 58, 31
3, 18581, Control_c, 0, 64, 0
3, 18642, Note_on_c, 0, 41, 36
3, 18698, Control_c, 0, 64, 127
3, 18703, Note_on_c, 0, 58, 0
3, 18706, Note_on_c, 0, 61, 0
3, 18707, Note_on_c, 0, 54, 0
3, 18712, Note_on_c, 0, 53, 0
3, 18762, Control_c, 0, 64, 0
3, 18765, Note_on_c, 0, 54, 32
3, 18767, Note_on_c, 0, 61, 31
3, 18768, Note_on_c, 0, 58, 33
3, 18770, Note_on_c, 0, 53, 33
3, 18777, Note_on_c, 0, 58, 0
3, 18783, Note_on_c, 0, 54, 0
3, 18785, Note_on_c, 0, 53, 0
3, 18786, Note_on_c, 0, 61, 0
3, 18864, Control_c, 0, 64, 127
3, 18904, Note_on_c, 0, 54, 31
3, 18906, Note_on_c, 0, 61, 34
3, 18908, Note_on_c, 0, 58, 33
3, 18909, Note_on_c, 0, 53, 33
3, 18944, Note_on_c, 0, 53, 0
3, 18992, Note_on_c, 0, 53, 53
3, 19014, Note_on_c, 0, 53, 0
3, 19074, Note_on_c, 0, 53, 65
3, 19092, Note_on_c, 0, 54, 0
3, 19096, Note_on_c, 0, 53, 0
3, 19141, Note_on_c, 0, 58, 0
3, 19156, Note_on_c, 0, 53, 59
3, 19159, Note_on_c, 0, 66, 0
3, 19178, Note_on_c, 0, 53, 0
3, 19186, Note_on_c, 0, 61, 0
3, 19237, Note_on_c, 0, 58, 56
3, 19240, Note_on_c, 0, 53, 51
3, 19255, Note_on_c, 0, 53, 0
3, 19263, Note_on_c, 0, 58, 0
3, 19274, Note_on_c, 0, 65, 58
3, 19277, Note_on_c, 0, 60, 57
3, 19278, Note_on_c, 0, 57, 40
3, 19279, Note_on_c, 0, 53, 41
3, 19280, Control_c, 0, 64, 0
3, 19309, Note_on_c, 0, 53, 0
3, 19329, Note_on_c, 0, 53, 40
3, 19348, Control_c, 0, 64, 127
3, 19351, Note_on_c, 0, 53, 0
3, 19403, Note_on_c, 0, 53, 43
3, 19425, Note_on_c, 0, 53, 0
3, 19485, Note_on_c, 0, 53, 43
3, 19510, Note_on_c, 0, 53, 0
3, 19516, Note_on_c, 0, 41, 0
3, 19562, Note_on_c, 0, 53, 60
3, 19589, Note_on_c, 0, 53, 0
3, 19610, Note_on_c, 0, 53, 47
3, 19632, Note_on_c, 0, 53, 0
3, 19668, Note_on_c, 0, 53, 54
3, 19678, Note_on_c, 0, 60, 0
3, 19686, Note_on_c, 0, 65, 0
3, 19687, Note_on_c, 0, 53, 0
3, 19702, Note_on_c, 0, 57, 0
3, 19741, Note_on_c, 0, 53, 57
3, 19755, Note_on_c, 0, 53, 0
3, 19780, Note_on_c, 0, 58, 74
3, 19782, Note_on_c, 0, 53, 59
3, 19808, Note_on_c, 0, 53, 0
3, 19818, Note_on_c, 0, 58, 0
3, 19826, Note_on_c, 0, 60, 56
3, 19834, Control_c, 0, 64, 0
3, 19835, Note_on_c, 0, 58, 56
3, 19844, Note_on_c, 0, 60, 0
3, 19861, Note_on_c, 0, 57, 40
3, 19861, Note_on_c, 0, 53, 28
3, 19865, Note_on_c, 0, 58, 0
3, 19866, Control_c, 0, 64, 127
3, 19904, Note_on_c, 0, 57, 0
3, 19908, Note_on_c, 0, 58, 69
3, 19916, Note_on_c, 0, 41, 40
3, 19932, Note_on_c, 0, 58, 0
3, 19935, Note_on_c, 0, 53, 0
3, 19952, Note_on_c, 0, 66, 71
3, 19952, Control_c, 0, 64, 0
3, 19952, Note_on_c, 0, 58, 64
3, 19954, Note_on_c, 0, 53, 55
3, 19955, Note_on_c, 0, 61, 49
3, 19984, Control_c, 0, 64, 127
3, 19985, Note_on_c, 0, 53, 0
3, 20003, Note_on_c, 0, 53, 41
3, 20021, Note_on_c, 0, 53, 0
3, 20040, Note_on_c, 0, 66, 0
3, 20053, Note_on_c, 0, 58, 0
3, 20060, Note_on_c, 0, 61, 0
3, 20082, Note_on_c, 0, 66, 52
3, 20082, Note_on_c, 0, 61, 43
3, 20083, Note_on_c, 0, 58, 50
3, 20085, Note_on_c, 0, 54, 38
3, 20085, Note_on_c, 0, 53, 47
3, 20090, Control_c, 0, 64, 0
3, 20109, Note_on_c, 0, 53, 0
3, 20134, Note_on_c, 0, 53, 58
3, 20161, Note_on_c, 0, 53, 0
3, 20168, Control_c, 0, 64, 127
3, 20181, Control_c, 0, 64, 0
3, 20190, Note_on_c, 0, 53, 57
3, 20205, Note_on_c, 0, 53, 0
3, 20227, Control_c, 0, 64, 127
3, 20262, Note_on_c, 0, 53, 53
3, 20286, Note_on_c, 0, 53, 0
3, 20341, Note_on_c, 0, 53, 55
3, 20362, Note_on_c, 0, 53, 0
3, 20376, Note_on_c, 0, 41, 0
3, 20419, Note_on_c, 0, 53, 59
3, 20425, Note_on_c, 0, 53, 0
3, 20467, Note_on_c, 0, 41, 70
3, 20513, Note_on_c, 0, 58, 0
3, 20523, Note_on_c, 0, 29, 46
3, 20560, Note_on_c, 0, 29, 0
3, 20565, Note_on_c, 0, 54, 0
3, 20573, Note_on_c, 0, 66, 0
3, 20574, Note_on_c, 0, 61, 0
3, 20598, Note_on_c, 0, 29, 62
3, 20598, Note_on_c, 0, 58, 71
3, 20599, Note_on_c, 0, 54, 53
3, 20624, Note_on_c, 0, 54, 0
3, 20628, Note_on_c, 0, 41, 0
3, 20639, Note_on_c, 0, 58, 0
3, 20650, Note_on_c, 0, 65, 78
3, 20651, Note_on_c, 0, 60, 85
3, 20652, Note_on_c, 0, 57, 80
3, 20654, Control_c, 0, 64, 0
3, 20654, Note_on_c, 0, 41, 63
3, 20695, Note_on_c, 0, 41, 0
3, 20698, Control_c, 0, 64, 127
3, 20706, Note_on_c, 0, 41, 49
3, 20732, Note_on_c, 0, 41, 0
3, 20786, Note_on_c, 0, 41, 52
3, 20809, Note_on_c, 0, 41, 0
3, 20861, Note_on_c, 0, 57, 0
3, 20868, Note_on_c, 0, 60, 0
3, 20869, Note_on_c, 0, 41, 49
3, 20877, Note_on_c, 0, 65, 0
3, 20890, Note_on_c, 0, 41, 0
3, 20944, Note_on_c, 0, 77, 57
3, 20947, Note_on_c, 0, 41, 43
3, 20947, Note_on_c, 0, 69, 45
3, 20972, Note_on_c, 0, 41, 0
3, 20985, Note_on_c, 0, 69, 0
3, 20994, Note_on_c, 0, 77, 0
3, 21026, Note_on_c, 0, 41, 48
3, 21045, Note_on_c, 0, 41, 0
3, 21106, Note_on_c, 0, 41, 54
3, 21123, Note_on_c, 0, 41, 0
3, 21146, Note_on_c, 0, 60, 103
3, 21149, Note_on_c, 0, 41, 55
3, 21156, Control_c, 0, 64, 0
3, 21166, Control_c, 0, 64, 127
3, 21177, Note_on_c, 0, 41, 0
3, 21191, Note_on_c, 0, 60, 0
3, 21192, Note_on_c, 0, 58, 83
3, 21227, Note_on_c, 0, 41, 44
3, 21230, Note_on_c, 0, 58, 0
3, 21230, Note_on_c, 0, 57, 51
3, 21251, Note_on_c, 0, 29, 0
3, 21261, Control_c, 0, 64, 0
3, 21264, Note_on_c, 0, 57, 0
3, 21272, Control_c, 0, 64, 127
3, 21274, Note_on_c, 0, 58, 72
3, 21274, Note_on_c, 0, 29, 47
3, 21302, Note_on_c, 0, 29, 0
3, 21302, Note_on_c, 0, 58, 0
3, 21319, Note_on_c, 0, 29, 41
3, 21323, Control_c, 0, 64, 0
3, 21349, Control_c, 0, 64, 127
3, 21362, Note_on_c, 0, 29, 0
3, 21369, Note_on_c, 0, 66, 49
3, 21372, Note_on_c, 0, 54, 49
3, 21372, Note_on_c, 0, 29, 46
3, 21373, Note_on_c, 0, 58, 57
3, 21374, Note_on_c, 0, 61, 52
3, 21376, Control_c, 0, 64, 0
3, 21394, Note_on_c, 0, 41, 0
3, 21396, Note_on_c, 0, 58, 0
3, 21399, Note_on_c, 0, 54, 0
3, 21401, Note_on_c, 0, 61, 0
3, 21402, Note_on_c, 0, 66, 0
3, 21451, Note_on_c, 0, 66, 42
3, 21452, Note_on_c, 0, 54, 40
3, 21453, Note_on_c, 0, 41, 49
3, 21453, Note_on_c, 0, 61, 43
3, 21455, Note_on_c, 0, 58, 40
3, 21463, Note_on_c, 0, 58, 0
3, 21465, Note_on_c, 0, 54, 0
3, 21466, Note_on_c, 0, 41, 0
3, 21469, Note_on_c, 0, 61, 0
3, 21470, Note_on_c, 0, 66, 0
3, 21501, Note_on_c, 0, 66, 42
3, 21504, Note_on_c, 0, 54, 31
3, 21504, Note_on_c, 0, 61, 40
3, 21505, Note_on_c, 0, 58, 40
3, 21506, Note_on_c, 0, 41, 35
3, 21527, Note_on_c, 0, 58, 0
3, 21529, Note_on_c, 0, 61, 0
3, 21529, Note_on_c, 0, 54, 0
3, 21531, Note_on_c, 0, 66, 0
3, 21545, Note_on_c, 0, 29, 0
3, 21567, Control_c, 0, 64, 127
3, 21584, Note_on_c, 0, 66, 37
3, 21585, Note_on_c, 0, 29, 34
3, 21587, Note_on_c, 0, 54, 26
3, 21590, Note_on_c, 0, 61, 35
3, 21593, Note_on_c, 0, 58, 25
3, 21594, Control_c, 0, 64, 0
3, 21604, Note_on_c, 0, 58, 0
3, 21605, Note_on_c, 0, 54, 0
3, 21608, Note_on_c, 0, 41, 0
3, 21609, Control_c, 0, 64, 127
3, 21610, Note_on_c, 0, 61, 0
3, 21611, Note_on_c, 0, 66, 0
3, 21612, Control_c, 0, 64, 0
3, 21615, Note_on_c, 0, 29, 0
3, 21640, Note_on_c, 0, 66, 36
3, 21642, Note_on_c, 0, 54, 32
3, 21643, Note_on_c, 0, 29, 34
3, 21644, Note_on_c, 0, 61, 36
3, 21646, Note_on_c, 0, 58, 30
3, 21654, Note_on_c, 0, 58, 0
3, 21656, Note_on_c, 0, 54, 0
3, 21659, Note_on_c, 0, 61, 0
3, 21659, Note_on_c, 0, 29, 0
3, 21660, Note_on_c, 0, 66, 0
3, 21719, Note_on_c, 0, 29, 38
3, 21721, Note_on_c, 0, 66, 31
3, 21721, Note_on_c, 0, 41, 28
3, 21722, Note_on_c, 0, 61, 33
3, 21723, Note_on_c, 0, 54, 25
3, 21727, Note_on_c, 0, 58, 23
3, 21736, Note_on_c, 0, 58, 0
3, 21739, Note_on_c, 0, 41, 0
3, 21739, Note_on_c, 0, 54, 0
3, 21743, Note_on_c, 0, 29, 0
3, 21744, Note_on_c, 0, 61, 0
3, 21745, Note_on_c, 0, 66, 0
3, 21759, Control_c, 0, 64, 127
3, 21768, Note_on_c, 0, 66, 42
3, 21769, Note_on_c, 0, 29, 32
3, 21771, Note_on_c, 0, 54, 32
3, 21772, Note_on_c, 0, 61, 37
3, 21773, Note_on_c, 0, 41, 29
3, 21774, Note_on_c, 0, 58, 36
3, 21858, Note_on_c, 0, 54, 0
3, 21864, Note_on_c, 0, 29, 0
3, 21867, Note_on_c, 0, 66, 0
3, 21873, Note_on_c, 0, 61, 0
3, 21875, Note_on_c, 0, 41, 0
3, 21878, Note_on_c, 0, 58, 0
3, 21923, Note_on_c, 0, 65, 74
3, 21983, Note_on_c, 0, 65, 0
3, 22074, Control_c, 0, 64, 0
3, 22079, Note_on_c, 0, 63, 37
3, 22080, Note_on_c, 0, 56, 28
3, 22080, Note_on_c, 0, 60, 46
3, 22081, Note_on_c, 0, 46, 37
3, 22097, Control_c, 0, 64, 127
3, 22109, Note_on_c, 0, 56, 0
3, 22115, Note_on_c, 0, 60, 0
3, 22116, Note_on_c, 0, 46, 0
3, 22129, Note_on_c, 0, 63, 0
3, 22220, Note_on_c, 0, 75, 53
3, 22226, Note_on_c, 0, 61, 25
3, 22228, Note_on_c, 0, 72, 29
3, 22228, Note_on_c, 0, 68, 36
3, 22229, Note_on_c, 0, 63, 33
3, 22232, Note_on_c, 0, 65, 33
3, 22260, Note_on_c, 0, 72, 0
3, 22264, Note_on_c, 0, 68, 0
3, 22265, Note_on_c, 0, 75, 0
3, 22265, Note_on_c, 0, 65, 0
3, 22269, Note_on_c, 0, 61, 0
3, 22271, Note_on_c, 0, 63, 0
3, 22296, Note_on_c, 0, 75, 39
3, 22301, Note_on_c, 0, 61, 27
3, 22303, Note_on_c, 0, 72, 25
3, 22304, Note_on_c, 0, 63, 23
3, 22305, Note_on_c, 0, 68, 30
3, 22306, Note_on_c, 0, 65, 24
3, 22323, Note_on_c, 0, 65, 0
3, 22323, Note_on_c, 0, 68, 0
3, 22326, Note_on_c, 0, 72, 0
3, 22328, Note_on_c, 0, 63, 0
3, 22330, Note_on_c, 0, 61, 0
3, 22339, Note_on_c, 0, 75, 0
3, 22440, Note_on_c, 0, 75, 39
3, 22445, Note_on_c, 0, 61, 25
3, 22446, Note_on_c, 0, 72, 27
3, 22446, Note_on_c, 0, 68, 27
3, 22448, Note_on_c, 0, 65, 28
3, 22449, Note_on_c, 0, 63, 28
3, 22661, Note_on_c, 0, 68, 0
3, 22664, Note_on_c, 0, 72, 0
3, 22674, Note_on_c, 0, 75, 0
3, 22681, Note_on_c, 0, 65, 0
3, 22686, Note_on_c, 0, 61, 0
3, 22690, Note_on_c, 0, 63, 0
3, 22941, Control_c, 0, 64, 0
3, 22941, End_track
4, 0, Start_track
4, 0, Title_t, "Played in Real Time"
4, 0, End_track
0, 0, End_of_file
