0, 0, Header, 0, 1, 120
1, 0, Start_track
1, 0, Title_t, "untitled"
1, 0, Time_signature, 4, 2, 24, 8
1, 0, Key_signature, -1, "major"
1, 0, Tempo, 512821
1, 0, Program_c, 0, 0
1, 0, Program_c, 1, 32
1, 0, Control_c, 1, 7, 99
1, 0, Control_c, 9, 7, 63
1, 480, Marker_t, "Stormy Weather  played by Doug McKenzie (dougmck@deakin.edu.au)"
1, 563, Note_on_c, 0, 68, 83
1, 565, Note_on_c, 0, 56, 65
1, 656, Note_on_c, 0, 68, 0
1, 660, Control_c, 0, 64, 127
1, 666, Note_on_c, 0, 57, 61
1, 668, Note_on_c, 0, 69, 74
1, 669, Note_on_c, 0, 56, 0
1, 693, Note_on_c, 0, 57, 0
1, 749, Note_on_c, 0, 69, 0
1, 822, Note_on_c, 0, 72, 80
1, 826, Note_on_c, 0, 61, 76
1, 826, Control_c, 0, 64, 0
1, 827, Note_on_c, 0, 65, 80
1, 827, Note_on_c, 0, 69, 70
1, 828, Note_on_c, 0, 55, 71
1, 833, Note_on_c, 0, 45, 46
1, 866, Control_c, 0, 64, 127
1, 874, Note_on_c, 0, 61, 0
1, 877, Note_on_c, 0, 65, 0
1, 884, Note_on_c, 0, 69, 0
1, 893, Note_on_c, 0, 72, 0
1, 918, Note_on_c, 0, 55, 0
1, 937, Note_on_c, 0, 52, 64
1, 939, Note_on_c, 0, 84, 95
1, 947, Note_on_c, 0, 45, 0
1, 960, Note_on_c, 0, 52, 0
1, 1006, Note_on_c, 0, 84, 0
1, 1061, Note_on_c, 0, 84, 73
1, 1066, Note_on_c, 0, 77, 60
1, 1068, Note_on_c, 0, 60, 40
1, 1070, Note_on_c, 0, 81, 56
1, 1072, Note_on_c, 0, 73, 36
1, 1075, Note_on_c, 0, 65, 55
1, 1075, Note_on_c, 0, 61, 40
1, 1168, Note_on_c, 0, 84, 0
1, 1199, Note_on_c, 0, 84, 70
1, 1215, Note_on_c, 0, 77, 0
1, 1237, Note_on_c, 0, 65, 0
1, 1241, Note_on_c, 0, 81, 0
1, 1245, Note_on_c, 0, 73, 0
1, 1253, Note_on_c, 0, 84, 0
1, 1257, Note_on_c, 0, 60, 0
1, 1259, Note_on_c, 0, 61, 0
1, 1346, Note_on_c, 0, 84, 58
1, 1349, Note_on_c, 0, 78, 38
1, 1350, Control_c, 0, 64, 0
1, 1350, Note_on_c, 0, 60, 35
1, 1350, Note_on_c, 0, 74, 39
1, 1352, Note_on_c, 0, 64, 40
1, 1358, Note_on_c, 0, 54, 40
1, 1385, Control_c, 0, 64, 127
1, 1396, Note_on_c, 0, 64, 0
1, 1400, Note_on_c, 0, 60, 0
1, 1412, Note_on_c, 0, 54, 0
1, 1548, Note_on_c, 0, 26, 32
1, 1634, Note_on_c, 0, 26, 0
1, 1671, Note_on_c, 0, 84, 0
1, 1688, Note_on_c, 0, 74, 0
1, 1691, Note_on_c, 0, 78, 0
1, 1876, Note_on_c, 0, 68, 98
1, 1878, Note_on_c, 0, 56, 77
1, 1938, Note_on_c, 0, 68, 0
1, 1986, Note_on_c, 0, 57, 73
1, 1987, Note_on_c, 0, 69, 110
1, 1990, Note_on_c, 0, 56, 0
1, 2028, Note_on_c, 0, 57, 0
1, 2045, Note_on_c, 0, 69, 0
1, 2204, Note_on_c, 0, 43, 67
1, 2223, Note_on_c, 0, 50, 64
1, 2251, Note_on_c, 0, 57, 63
1, 2255, Note_on_c, 0, 58, 68
1, 2268, Note_on_c, 0, 65, 69
1, 2292, Note_on_c, 0, 58, 0
1, 2296, Note_on_c, 0, 72, 74
1, 2434, Note_on_c, 0, 72, 0
1, 2436, Note_on_c, 0, 69, 75
1, 2543, Note_on_c, 0, 72, 71
1, 2588, Note_on_c, 0, 69, 0
1, 2593, Note_on_c, 0, 72, 0
1, 2601, Note_on_c, 0, 43, 0
1, 2609, Note_on_c, 0, 57, 0
1, 2612, Note_on_c, 0, 50, 0
1, 2620, Note_on_c, 0, 65, 0
1, 2627, Note_on_c, 0, 71, 68
1, 2655, Note_on_c, 0, 71, 0
1, 2725, Note_on_c, 0, 70, 44
1, 2733, Note_on_c, 0, 64, 53
1, 2734, Note_on_c, 0, 48, 39
1, 2738, Note_on_c, 0, 58, 28
1, 2738, Control_c, 0, 64, 0
1, 2799, Control_c, 0, 64, 127
1, 2855, Note_on_c, 0, 55, 44
1, 2856, Note_on_c, 0, 64, 0
1, 2876, Note_on_c, 0, 70, 0
1, 2913, Note_on_c, 0, 58, 0
1, 2976, Note_on_c, 0, 80, 51
1, 2980, Note_on_c, 0, 68, 37
1, 2983, Note_on_c, 0, 58, 27
1, 3000, Note_on_c, 0, 48, 0
1, 3002, Note_on_c, 0, 55, 0
1, 3028, Note_on_c, 0, 58, 0
1, 3035, Note_on_c, 0, 80, 0
1, 3042, Note_on_c, 0, 68, 0
1, 3099, Note_on_c, 0, 81, 47
1, 3103, Note_on_c, 0, 69, 38
1, 3163, Note_on_c, 0, 69, 0
1, 3192, Note_on_c, 0, 81, 0
1, 3492, Note_on_c, 0, 84, 60
1, 3495, Note_on_c, 0, 65, 38
1, 3502, Note_on_c, 0, 72, 42
1, 3503, Note_on_c, 0, 62, 28
1, 3504, Note_on_c, 0, 60, 32
1, 3512, Control_c, 0, 64, 0
1, 3543, Note_on_c, 0, 65, 0
1, 3550, Control_c, 0, 64, 127
1, 3596, Note_on_c, 0, 84, 0
1, 3614, Note_on_c, 0, 72, 0
1, 3622, Note_on_c, 0, 53, 32
1, 3661, Note_on_c, 0, 60, 0
1, 3671, Note_on_c, 0, 62, 0
1, 3737, Note_on_c, 0, 72, 57
1, 3742, Note_on_c, 0, 62, 29
1, 3745, Note_on_c, 0, 65, 32
1, 3748, Note_on_c, 0, 60, 24
1, 3817, Note_on_c, 0, 53, 0
1, 3873, Note_on_c, 0, 53, 36
1, 3879, Note_on_c, 0, 60, 0
1, 3888, Note_on_c, 0, 72, 0
1, 3889, Note_on_c, 0, 62, 0
1, 3897, Note_on_c, 0, 65, 0
1, 3995, Note_on_c, 0, 58, 34
1, 3995, Note_on_c, 0, 75, 69
1, 3995, Note_on_c, 0, 79, 75
1, 3998, Note_on_c, 0, 70, 77
1, 3998, Note_on_c, 0, 63, 49
1, 4002, Note_on_c, 0, 65, 66
1, 4008, Control_c, 0, 64, 0
1, 4050, Control_c, 0, 64, 127
1, 4097, Note_on_c, 0, 53, 0
1, 4101, Note_on_c, 0, 63, 0
1, 4105, Note_on_c, 0, 58, 0
1, 4114, Note_on_c, 0, 65, 0
1, 4120, Note_on_c, 0, 53, 44
1, 4126, Note_on_c, 0, 70, 0
1, 4156, Note_on_c, 0, 75, 0
1, 4240, Note_on_c, 0, 79, 0
1, 4258, Note_on_c, 0, 77, 62
1, 4262, Note_on_c, 0, 69, 42
1, 4264, Note_on_c, 0, 73, 45
1, 4265, Note_on_c, 0, 65, 42
1, 4265, Note_on_c, 0, 57, 13
1, 4265, Note_on_c, 0, 61, 40
1, 4273, Control_c, 0, 64, 0
1, 4341, Control_c, 0, 64, 127
1, 4352, Note_on_c, 0, 53, 0
1, 4396, Note_on_c, 0, 57, 0
1, 4403, Note_on_c, 0, 53, 43
1, 4435, Note_on_c, 0, 61, 0
1, 4450, Note_on_c, 0, 69, 0
1, 4456, Note_on_c, 0, 65, 0
1, 4480, Note_on_c, 0, 73, 0
1, 4502, Note_on_c, 0, 77, 0
1, 4565, Note_on_c, 0, 70, 39
1, 4568, Note_on_c, 0, 65, 36
1, 4569, Note_on_c, 0, 62, 36
1, 4570, Note_on_c, 0, 74, 57
1, 4573, Control_c, 0, 64, 0
1, 4573, Note_on_c, 0, 60, 25
1, 4618, Control_c, 0, 64, 127
1, 4635, Note_on_c, 0, 53, 0
1, 4663, Note_on_c, 0, 70, 0
1, 4666, Note_on_c, 0, 74, 0
1, 4683, Note_on_c, 0, 65, 0
1, 4692, Note_on_c, 0, 53, 57
1, 4693, Note_on_c, 0, 79, 94
1, 4711, Note_on_c, 0, 60, 0
1, 4725, Note_on_c, 0, 62, 0
1, 4749, Note_on_c, 0, 79, 0
1, 4787, Note_on_c, 0, 79, 95
1, 4793, Note_on_c, 0, 62, 48
1, 4794, Note_on_c, 0, 65, 54
1, 4797, Note_on_c, 0, 60, 30
1, 4838, Note_on_c, 0, 53, 0
1, 4843, Note_on_c, 0, 65, 0
1, 4851, Note_on_c, 0, 60, 0
1, 4856, Note_on_c, 0, 79, 0
1, 4859, Note_on_c, 0, 53, 52
1, 4859, Note_on_c, 0, 77, 74
1, 4866, Note_on_c, 0, 79, 15
1, 4873, Note_on_c, 0, 79, 0
1, 4881, Note_on_c, 0, 62, 0
1, 4927, Note_on_c, 0, 77, 0
1, 4941, Note_on_c, 0, 79, 72
1, 4946, Note_on_c, 0, 76, 70
1, 4951, Control_c, 0, 64, 0
1, 4951, Note_on_c, 0, 60, 45
1, 4951, Note_on_c, 0, 72, 62
1, 4952, Note_on_c, 0, 77, 32
1, 4953, Note_on_c, 0, 70, 47
1, 4953, Note_on_c, 0, 64, 49
1, 4956, Note_on_c, 0, 58, 20
1, 5005, Control_c, 0, 64, 127
1, 5010, Note_on_c, 0, 53, 0
1, 5041, Note_on_c, 0, 72, 0
1, 5044, Note_on_c, 0, 53, 55
1, 5045, Note_on_c, 0, 76, 0
1, 5046, Note_on_c, 0, 77, 0
1, 5053, Note_on_c, 0, 79, 0
1, 5058, Note_on_c, 0, 70, 0
1, 5073, Note_on_c, 0, 64, 0
1, 5088, Note_on_c, 0, 60, 0
1, 5126, Note_on_c, 0, 77, 92
1, 5131, Note_on_c, 0, 64, 48
1, 5135, Note_on_c, 0, 60, 48
1, 5181, Note_on_c, 0, 53, 0
1, 5222, Note_on_c, 0, 77, 0
1, 5228, Note_on_c, 0, 74, 75
1, 5229, Note_on_c, 0, 53, 43
1, 5237, Note_on_c, 0, 64, 0
1, 5237, Note_on_c, 0, 73, 33
1, 5246, Note_on_c, 0, 60, 0
1, 5253, Note_on_c, 0, 58, 0
1, 5259, Note_on_c, 0, 53, 0
1, 5279, Note_on_c, 0, 73, 0
1, 5291, Note_on_c, 0, 74, 0
1, 5340, Control_c, 0, 64, 0
1, 5340, Note_on_c, 0, 45, 71
1, 5342, Note_on_c, 0, 77, 95
1, 5366, Note_on_c, 0, 45, 0
1, 5371, Control_c, 0, 64, 127
1, 5444, Note_on_c, 0, 55, 62
1, 5449, Note_on_c, 0, 77, 0
1, 5543, Note_on_c, 0, 84, 76
1, 5544, Note_on_c, 0, 77, 73
1, 5547, Note_on_c, 0, 61, 52
1, 5556, Note_on_c, 0, 77, 0
1, 5567, Note_on_c, 0, 84, 0
1, 5651, Note_on_c, 0, 89, 77
1, 5653, Note_on_c, 0, 65, 53
1, 5680, Note_on_c, 0, 55, 0
1, 5683, Note_on_c, 0, 65, 0
1, 5699, Note_on_c, 0, 61, 0
1, 5712, Note_on_c, 0, 89, 0
1, 5771, Note_on_c, 0, 89, 73
1, 5772, Note_on_c, 0, 82, 55
1, 5774, Note_on_c, 0, 77, 54
1, 5776, Note_on_c, 0, 86, 58
1, 5777, Note_on_c, 0, 65, 53
1, 5778, Note_on_c, 0, 60, 45
1, 5779, Note_on_c, 0, 54, 40
1, 5783, Control_c, 0, 64, 0
1, 5816, Control_c, 0, 64, 127
1, 5830, Note_on_c, 0, 65, 0
1, 5837, Note_on_c, 0, 60, 0
1, 5848, Note_on_c, 0, 54, 0
1, 5871, Note_on_c, 0, 89, 0
1, 5872, Note_on_c, 0, 86, 0
1, 5884, Note_on_c, 0, 82, 0
1, 5888, Note_on_c, 0, 77, 0
1, 5907, Note_on_c, 0, 50, 61
1, 6062, Note_on_c, 0, 60, 37
1, 6065, Note_on_c, 0, 54, 43
1, 6065, Note_on_c, 0, 65, 53
1, 6066, Note_on_c, 0, 70, 47
1, 6137, Note_on_c, 0, 70, 0
1, 6143, Note_on_c, 0, 65, 0
1, 6160, Note_on_c, 0, 60, 0
1, 6196, Note_on_c, 0, 54, 0
1, 6203, Note_on_c, 0, 50, 0
1, 6232, Note_on_c, 0, 50, 29
1, 6237, Note_on_c, 0, 62, 44
1, 6237, Note_on_c, 0, 65, 44
1, 6237, Note_on_c, 0, 54, 30
1, 6239, Note_on_c, 0, 60, 27
1, 6266, Note_on_c, 0, 60, 0
1, 6276, Note_on_c, 0, 54, 0
1, 6290, Note_on_c, 0, 50, 0
1, 6295, Note_on_c, 0, 65, 0
1, 6309, Note_on_c, 0, 62, 0
1, 6466, Note_on_c, 0, 62, 34
1, 6466, Note_on_c, 0, 58, 34
1, 6467, Note_on_c, 0, 53, 33
1, 6473, Note_on_c, 0, 43, 35
1, 6477, Note_on_c, 0, 50, 33
1, 6482, Control_c, 0, 64, 0
1, 6537, Control_c, 0, 64, 127
1, 6646, Note_on_c, 0, 53, 0
1, 6706, Note_on_c, 0, 62, 0
1, 6720, Note_on_c, 0, 50, 0
1, 6731, Note_on_c, 0, 58, 0
1, 6739, Note_on_c, 0, 43, 0
1, 6806, Note_on_c, 0, 57, 90
1, 6809, Note_on_c, 0, 42, 67
1, 6813, Control_c, 0, 64, 0
1, 6836, Control_c, 0, 64, 127
1, 6869, Note_on_c, 0, 42, 0
1, 6872, Note_on_c, 0, 57, 0
1, 6882, Control_c, 0, 64, 0
1, 6882, Note_on_c, 0, 58, 83
1, 6886, Note_on_c, 0, 43, 65
1, 6898, Control_c, 0, 64, 127
1, 6936, Note_on_c, 0, 43, 0
1, 6942, Control_c, 0, 64, 0
1, 6945, Note_on_c, 0, 46, 59
1, 6945, Note_on_c, 0, 62, 78
1, 6952, Control_c, 0, 64, 127
1, 6959, Note_on_c, 0, 58, 0
1, 6992, Control_c, 0, 64, 0
1, 6997, Note_on_c, 0, 62, 0
1, 7004, Note_on_c, 0, 46, 0
1, 7006, Control_c, 0, 64, 127
1, 7011, Note_on_c, 0, 65, 71
1, 7011, Note_on_c, 0, 50, 67
1, 7033, Note_on_c, 0, 50, 0
1, 7052, Note_on_c, 0, 65, 0
1, 7082, Note_on_c, 0, 67, 74
1, 7104, Note_on_c, 0, 67, 0
1, 7167, Note_on_c, 0, 63, 51
1, 7167, Note_on_c, 0, 68, 61
1, 7169, Note_on_c, 0, 56, 52
1, 7169, Note_on_c, 0, 65, 55
1, 7171, Note_on_c, 0, 59, 46
1, 7174, Control_c, 0, 64, 0
1, 7236, Control_c, 0, 64, 127
1, 7275, Note_on_c, 0, 48, 53
1, 7292, Note_on_c, 0, 56, 0
1, 7303, Note_on_c, 0, 59, 0
1, 7316, Note_on_c, 0, 65, 0
1, 7341, Note_on_c, 0, 63, 0
1, 7354, Note_on_c, 0, 68, 0
1, 7414, Note_on_c, 0, 58, 29
1, 7414, Note_on_c, 0, 67, 42
1, 7416, Note_on_c, 0, 61, 38
1, 7416, Note_on_c, 0, 64, 52
1, 7417, Note_on_c, 0, 55, 44
1, 7422, Control_c, 0, 64, 0
1, 7483, Control_c, 0, 64, 127
1, 7543, Note_on_c, 0, 67, 0
1, 7562, Note_on_c, 0, 64, 0
1, 7573, Note_on_c, 0, 58, 0
1, 7601, Note_on_c, 0, 61, 0
1, 7649, Note_on_c, 0, 60, 99
1, 7684, Note_on_c, 0, 60, 0
1, 7686, Note_on_c, 0, 55, 0
1, 7710, Note_on_c, 0, 48, 0
1, 7715, Note_on_c, 0, 60, 103
1, 7752, Note_on_c, 0, 60, 0
1, 7783, Note_on_c, 0, 60, 81
1, 7818, Note_on_c, 0, 60, 0
1, 7846, Note_on_c, 0, 60, 80
1, 7874, Note_on_c, 0, 60, 0
1, 7907, Note_on_c, 0, 60, 77
1, 7931, Note_on_c, 0, 60, 0
1, 7965, Note_on_c, 0, 60, 73
1, 7985, Note_on_c, 0, 60, 0
1, 8023, Note_on_c, 0, 60, 68
1, 8041, Note_on_c, 0, 61, 69
1, 8058, Note_on_c, 0, 61, 0
1, 8058, Note_on_c, 0, 62, 67
1, 8077, Note_on_c, 0, 60, 0
1, 8110, Note_on_c, 0, 65, 79
1, 8152, Note_on_c, 0, 65, 0
1, 8161, Note_on_c, 0, 62, 0
1, 8163, Control_c, 0, 64, 0
1, 8183, Note_on_c, 0, 65, 78
1, 8186, Control_c, 0, 64, 127
1, 8243, Note_on_c, 0, 62, 45
1, 8265, Note_on_c, 0, 65, 0
1, 8296, Note_on_c, 0, 62, 0
1, 8317, Note_on_c, 0, 65, 53
1, 8320, Note_on_c, 0, 41, 40
1, 8322, Control_c, 0, 64, 0
1, 8358, Control_c, 0, 64, 127
1, 8367, Note_on_c, 0, 65, 0
1, 8394, Note_on_c, 0, 48, 44
1, 8415, Note_on_c, 0, 41, 0
1, 8448, Note_on_c, 0, 48, 0
1, 8467, Note_on_c, 0, 72, 50
1, 8468, Note_on_c, 0, 65, 56
1, 8472, Note_on_c, 0, 57, 26
1, 8482, Note_on_c, 0, 57, 0
1, 8485, Note_on_c, 0, 65, 0
1, 8494, Note_on_c, 0, 72, 0
1, 8548, Note_on_c, 0, 77, 70
1, 8548, Note_on_c, 0, 60, 44
1, 8559, Note_on_c, 0, 60, 0
1, 8571, Note_on_c, 0, 77, 0
1, 8637, Note_on_c, 0, 76, 66
1, 8640, Note_on_c, 0, 69, 60
1, 8640, Note_on_c, 0, 65, 49
1, 8644, Control_c, 0, 64, 0
1, 8647, Note_on_c, 0, 61, 43
1, 8652, Note_on_c, 0, 50, 26
1, 8684, Control_c, 0, 64, 127
1, 8724, Note_on_c, 0, 61, 0
1, 8738, Note_on_c, 0, 74, 61
1, 8740, Note_on_c, 0, 60, 41
1, 8745, Note_on_c, 0, 69, 0
1, 8746, Note_on_c, 0, 76, 0
1, 8763, Note_on_c, 0, 65, 0
1, 8765, Note_on_c, 0, 74, 0
1, 8813, Note_on_c, 0, 60, 0
1, 8844, Note_on_c, 0, 69, 47
1, 8848, Note_on_c, 0, 65, 40
1, 8851, Note_on_c, 0, 57, 35
1, 8851, Note_on_c, 0, 62, 28
1, 8855, Note_on_c, 0, 50, 0
1, 8889, Note_on_c, 0, 65, 0
1, 8917, Note_on_c, 0, 62, 0
1, 8945, Note_on_c, 0, 69, 0
1, 8961, Note_on_c, 0, 65, 40
1, 8961, Note_on_c, 0, 62, 34
1, 8961, Note_on_c, 0, 50, 38
1, 8965, Note_on_c, 0, 57, 0
1, 8975, Note_on_c, 0, 65, 0
1, 8983, Note_on_c, 0, 62, 0
1, 8989, Note_on_c, 0, 50, 0
1, 9090, Note_on_c, 0, 58, 43
1, 9090, Note_on_c, 0, 62, 51
1, 9092, Note_on_c, 0, 43, 34
1, 9093, Note_on_c, 0, 53, 30
1, 9094, Note_on_c, 0, 57, 39
1, 9097, Control_c, 0, 64, 0
1, 9131, Control_c, 0, 64, 127
1, 9147, Note_on_c, 0, 57, 0
1, 9155, Note_on_c, 0, 58, 0
1, 9158, Note_on_c, 0, 62, 0
1, 9170, Note_on_c, 0, 53, 0
1, 9186, Note_on_c, 0, 65, 67
1, 9187, Note_on_c, 0, 58, 49
1, 9192, Note_on_c, 0, 50, 51
1, 9198, Note_on_c, 0, 58, 0
1, 9203, Note_on_c, 0, 43, 0
1, 9205, Note_on_c, 0, 50, 0
1, 9207, Note_on_c, 0, 65, 0
1, 9288, Note_on_c, 0, 68, 25
1, 9288, Note_on_c, 0, 69, 71
1, 9288, Note_on_c, 0, 58, 52
1, 9291, Note_on_c, 0, 62, 56
1, 9296, Note_on_c, 0, 65, 43
1, 9297, Note_on_c, 0, 57, 51
1, 9301, Note_on_c, 0, 62, 0
1, 9304, Note_on_c, 0, 58, 0
1, 9305, Note_on_c, 0, 65, 0
1, 9314, Note_on_c, 0, 68, 0
1, 9317, Note_on_c, 0, 69, 0
1, 9336, Note_on_c, 0, 57, 0
1, 9395, Note_on_c, 0, 72, 73
1, 9399, Note_on_c, 0, 69, 62
1, 9400, Note_on_c, 0, 65, 60
1, 9408, Note_on_c, 0, 65, 0
1, 9417, Note_on_c, 0, 69, 0
1, 9424, Note_on_c, 0, 72, 0
1, 9525, Note_on_c, 0, 75, 73
1, 9526, Note_on_c, 0, 68, 74
1, 9528, Note_on_c, 0, 72, 67
1, 9529, Note_on_c, 0, 64, 72
1, 9532, Note_on_c, 0, 58, 48
1, 9534, Note_on_c, 0, 48, 46
1, 9536, Control_c, 0, 64, 0
1, 9578, Control_c, 0, 64, 127
1, 9600, Control_c, 9, 7, 83
1, 9600, Control_c, 9, 7, 80
1, 9649, Note_on_c, 0, 72, 0
1, 9661, Note_on_c, 0, 75, 0
1, 9663, Note_on_c, 0, 64, 0
1, 9672, Note_on_c, 0, 64, 17
1, 9674, Note_on_c, 0, 73, 67
1, 9676, Note_on_c, 0, 55, 43
1, 9681, Note_on_c, 0, 75, 25
1, 9689, Note_on_c, 0, 75, 0
1, 9693, Note_on_c, 0, 58, 0
1, 9742, Note_on_c, 0, 55, 0
1, 9747, Note_on_c, 0, 73, 0
1, 9763, Note_on_c, 0, 68, 0
1, 9767, Note_on_c, 0, 64, 0
1, 9768, Control_c, 9, 7, 127
1, 9852, Note_on_c, 0, 72, 54
1, 9852, Note_on_c, 0, 64, 36
1, 9854, Note_on_c, 0, 68, 45
1, 9854, Note_on_c, 0, 58, 33
1, 10066, Note_on_c, 0, 68, 0
1, 10080, Note_on_c, 0, 64, 0
1, 10099, Note_on_c, 0, 72, 0
1, 10109, Note_on_c, 0, 58, 0
1, 10151, Note_on_c, 0, 68, 79
1, 10151, Note_on_c, 0, 56, 42
1, 10202, Note_on_c, 0, 48, 0
1, 10211, Note_on_c, 0, 68, 0
1, 10245, Note_on_c, 0, 56, 0
1, 10252, Note_on_c, 0, 69, 80
1, 10254, Note_on_c, 0, 57, 56
1, 10412, Note_on_c, 0, 69, 0
1, 10434, Note_on_c, 0, 57, 0
1, 10517, Note_on_c, 9, 36, 49
1, 10522, Note_on_c, 1, 44, 59
1, 10527, Note_on_c, 9, 36, 0
1, 10537, Note_on_c, 0, 72, 73
1, 10538, Note_on_c, 0, 61, 48
1, 10539, Note_on_c, 0, 60, 50
1, 10540, Note_on_c, 0, 65, 64
1, 10543, Note_on_c, 0, 55, 57
1, 10552, Note_on_c, 0, 77, 75
1, 10554, Note_on_c, 1, 44, 0
1, 10556, Note_on_c, 9, 28, 38
1, 10560, Note_on_c, 9, 36, 40
1, 10562, Note_on_c, 1, 45, 59
1, 10571, Note_on_c, 0, 72, 0
1, 10572, Note_on_c, 0, 65, 0
1, 10578, Note_on_c, 9, 36, 0
1, 10651, Note_on_c, 9, 28, 0
1, 10658, Note_on_c, 0, 61, 0
1, 10659, Note_on_c, 0, 60, 0
1, 10676, Note_on_c, 9, 28, 36
1, 10677, Note_on_c, 9, 44, 38
1, 10680, Control_c, 0, 64, 0
1, 10712, Note_on_c, 0, 77, 0
1, 10715, Note_on_c, 9, 44, 0
1, 10723, Note_on_c, 0, 55, 0
1, 10755, Note_on_c, 9, 36, 58
1, 10758, Note_on_c, 1, 37, 23
1, 10761, Note_on_c, 9, 36, 0
1, 10762, Note_on_c, 1, 45, 0
1, 10762, Note_on_c, 0, 65, 66
1, 10765, Note_on_c, 0, 60, 50
1, 10767, Note_on_c, 0, 58, 37
1, 10772, Note_on_c, 0, 54, 36
1, 10773, Note_on_c, 9, 28, 0
1, 10781, Note_on_c, 0, 65, 0
1, 10784, Note_on_c, 0, 60, 0
1, 10784, Note_on_c, 1, 37, 0
1, 10785, Note_on_c, 0, 54, 0
1, 10787, Note_on_c, 0, 58, 0
1, 10793, Note_on_c, 1, 38, 53
1, 10796, Note_on_c, 9, 28, 33
1, 10800, Control_c, 0, 64, 0
1, 10881, Note_on_c, 0, 80, 71
1, 10886, Note_on_c, 9, 28, 0
1, 10908, Note_on_c, 0, 80, 0
1, 10916, Note_on_c, 9, 28, 38
1, 10917, Note_on_c, 9, 44, 52
1, 10931, Note_on_c, 0, 81, 64
1, 10962, Note_on_c, 9, 44, 0
1, 10979, Note_on_c, 0, 81, 0
1, 11005, Note_on_c, 0, 84, 90
1, 11006, Note_on_c, 0, 72, 80
1, 11008, Note_on_c, 9, 28, 0
1, 11008, Note_on_c, 0, 58, 47
1, 11010, Note_on_c, 0, 62, 64
1, 11010, Note_on_c, 0, 57, 54
1, 11012, Note_on_c, 1, 34, 30
1, 11017, Note_on_c, 0, 53, 48
1, 11035, Note_on_c, 1, 34, 0
1, 11036, Note_on_c, 9, 28, 33
1, 11037, Note_on_c, 1, 38, 0
1, 11037, Note_on_c, 1, 43, 75
1, 11040, Control_c, 0, 64, 0
1, 11108, Note_on_c, 0, 58, 0
1, 11113, Note_on_c, 0, 84, 0
1, 11120, Note_on_c, 0, 72, 0
1, 11127, Note_on_c, 9, 28, 0
1, 11132, Note_on_c, 0, 81, 55
1, 11136, Note_on_c, 0, 58, 20
1, 11146, Note_on_c, 0, 81, 0
1, 11156, Note_on_c, 9, 28, 38
1, 11157, Note_on_c, 9, 44, 58
1, 11162, Note_on_c, 0, 62, 0
1, 11167, Note_on_c, 0, 58, 0
1, 11171, Note_on_c, 0, 83, 76
1, 11175, Note_on_c, 0, 71, 60
1, 11182, Note_on_c, 0, 57, 0
1, 11192, Note_on_c, 0, 53, 0
1, 11206, Note_on_c, 0, 83, 0
1, 11211, Note_on_c, 0, 71, 0
1, 11215, Note_on_c, 9, 44, 0
1, 11237, Note_on_c, 9, 36, 40
1, 11245, Note_on_c, 9, 36, 0
1, 11251, Note_on_c, 9, 28, 0
1, 11252, Note_on_c, 0, 82, 67
1, 11252, Note_on_c, 0, 58, 50
1, 11253, Note_on_c, 0, 70, 62
1, 11253, Note_on_c, 0, 62, 60
1, 11259, Note_on_c, 0, 52, 47
1, 11276, Note_on_c, 9, 28, 36
1, 11281, Note_on_c, 0, 82, 0
1, 11285, Note_on_c, 0, 70, 0
1, 11296, Note_on_c, 0, 62, 0
1, 11321, Note_on_c, 0, 58, 0
1, 11325, Note_on_c, 0, 80, 53
1, 11326, Note_on_c, 0, 68, 47
1, 11355, Note_on_c, 0, 68, 0
1, 11355, Note_on_c, 1, 34, 33
1, 11357, Note_on_c, 9, 28, 0
1, 11357, Note_on_c, 0, 80, 0
1, 11359, Note_on_c, 0, 81, 42
1, 11364, Note_on_c, 0, 69, 42
1, 11370, Note_on_c, 0, 81, 0
1, 11375, Note_on_c, 0, 69, 0
1, 11380, Note_on_c, 1, 43, 0
1, 11383, Note_on_c, 0, 58, 34
1, 11386, Note_on_c, 1, 34, 0
1, 11391, Note_on_c, 0, 62, 33
1, 11396, Note_on_c, 1, 36, 56
1, 11396, Note_on_c, 9, 28, 36
1, 11397, Note_on_c, 9, 44, 56
1, 11408, Note_on_c, 0, 52, 0
1, 11412, Note_on_c, 0, 77, 68
1, 11413, Note_on_c, 1, 36, 0
1, 11420, Note_on_c, 0, 58, 0
1, 11422, Note_on_c, 0, 65, 31
1, 11425, Note_on_c, 9, 44, 0
1, 11426, Control_c, 0, 64, 127
1, 11446, Note_on_c, 0, 65, 0
1, 11456, Note_on_c, 0, 62, 0
1, 11473, Note_on_c, 0, 77, 0
1, 11477, Note_on_c, 1, 34, 51
1, 11478, Note_on_c, 9, 28, 0
1, 11499, Note_on_c, 0, 74, 46
1, 11507, Note_on_c, 1, 34, 0
1, 11515, Note_on_c, 1, 33, 51
1, 11516, Note_on_c, 9, 28, 44
1, 11525, Note_on_c, 0, 74, 0
1, 11526, Control_c, 0, 64, 0
1, 11535, Note_on_c, 0, 63, 36
1, 11538, Note_on_c, 0, 67, 34
1, 11538, Note_on_c, 0, 57, 33
1, 11541, Note_on_c, 0, 77, 48
1, 11546, Note_on_c, 0, 72, 35
1, 11581, Control_c, 0, 64, 127
1, 11593, Note_on_c, 9, 28, 0
1, 11636, Note_on_c, 9, 28, 27
1, 11637, Note_on_c, 9, 44, 52
1, 11653, Note_on_c, 0, 67, 0
1, 11657, Note_on_c, 0, 57, 0
1, 11667, Note_on_c, 0, 63, 0
1, 11668, Note_on_c, 0, 72, 0
1, 11683, Note_on_c, 0, 77, 0
1, 11685, Note_on_c, 9, 44, 0
1, 11715, Note_on_c, 9, 36, 34
1, 11718, Note_on_c, 9, 28, 0
1, 11719, Note_on_c, 1, 40, 45
1, 11725, Note_on_c, 9, 36, 0
1, 11746, Note_on_c, 1, 40, 0
1, 11747, Note_on_c, 1, 33, 0
1, 11756, Note_on_c, 1, 41, 55
1, 11757, Note_on_c, 9, 28, 32
1, 11763, Note_on_c, 0, 67, 51
1, 11764, Note_on_c, 0, 63, 44
1, 11765, Note_on_c, 0, 58, 42
1, 11769, Note_on_c, 1, 41, 0
1, 11771, Control_c, 0, 64, 0
1, 11775, Note_on_c, 0, 74, 62
1, 11783, Note_on_c, 0, 67, 0
1, 11789, Note_on_c, 0, 74, 0
1, 11790, Note_on_c, 0, 75, 58
1, 11815, Note_on_c, 0, 74, 55
1, 11821, Note_on_c, 0, 75, 0
1, 11832, Note_on_c, 0, 58, 0
1, 11833, Note_on_c, 1, 35, 60
1, 11837, Note_on_c, 9, 28, 0
1, 11838, Note_on_c, 0, 74, 0
1, 11844, Note_on_c, 0, 71, 57
1, 11853, Note_on_c, 1, 35, 0
1, 11856, Note_on_c, 0, 71, 0
1, 11856, Note_on_c, 0, 63, 0
1, 11874, Note_on_c, 1, 35, 59
1, 11875, Note_on_c, 0, 63, 21
1, 11876, Note_on_c, 0, 72, 67
1, 11877, Note_on_c, 0, 66, 30
1, 11877, Note_on_c, 9, 28, 31
1, 11880, Note_on_c, 9, 44, 46
1, 11887, Note_on_c, 0, 57, 24
1, 11901, Note_on_c, 0, 72, 0
1, 11917, Note_on_c, 0, 74, 80
1, 11926, Note_on_c, 0, 57, 0
1, 11935, Note_on_c, 0, 66, 0
1, 11936, Note_on_c, 9, 44, 0
1, 11936, Note_on_c, 0, 74, 0
1, 11941, Note_on_c, 1, 46, 49
1, 11955, Note_on_c, 0, 75, 43
1, 11959, Note_on_c, 1, 46, 0
1, 11962, Note_on_c, 1, 47, 55
1, 11965, Note_on_c, 9, 28, 0
1, 11973, Note_on_c, 0, 75, 0
1, 11981, Note_on_c, 1, 35, 0
1, 11989, Note_on_c, 0, 63, 0
1, 11991, Note_on_c, 0, 76, 67
1, 11995, Note_on_c, 1, 47, 0
1, 11996, Note_on_c, 9, 28, 37
1, 12002, Note_on_c, 1, 46, 40
1, 12008, Note_on_c, 0, 62, 29
1, 12009, Note_on_c, 0, 65, 24
1, 12013, Note_on_c, 0, 55, 34
1, 12014, Note_on_c, 0, 60, 38
1, 12017, Note_on_c, 0, 76, 0
1, 12033, Note_on_c, 0, 77, 73
1, 12063, Note_on_c, 0, 77, 0
1, 12081, Note_on_c, 9, 28, 0
1, 12087, Note_on_c, 0, 74, 77
1, 12106, Note_on_c, 0, 74, 0
1, 12116, Note_on_c, 9, 28, 37
1, 12117, Note_on_c, 0, 65, 0
1, 12117, Note_on_c, 9, 44, 48
1, 12133, Note_on_c, 0, 70, 64
1, 12146, Note_on_c, 0, 62, 0
1, 12153, Note_on_c, 0, 60, 0
1, 12159, Note_on_c, 0, 70, 0
1, 12171, Note_on_c, 0, 55, 0
1, 12176, Note_on_c, 0, 65, 35
1, 12186, Note_on_c, 0, 65, 0
1, 12197, Note_on_c, 9, 44, 0
1, 12201, Note_on_c, 9, 28, 0
1, 12202, Note_on_c, 9, 36, 27
1, 12203, Control_c, 0, 64, 127
1, 12206, Note_on_c, 1, 36, 41
1, 12208, Note_on_c, 9, 36, 0
1, 12213, Note_on_c, 1, 36, 0
1, 12223, Control_c, 0, 64, 0
1, 12224, Note_on_c, 1, 46, 0
1, 12232, Note_on_c, 0, 63, 25
1, 12236, Note_on_c, 9, 28, 27
1, 12241, Note_on_c, 0, 63, 0
1, 12244, Note_on_c, 1, 48, 54
1, 12316, Note_on_c, 9, 28, 0
1, 12324, Note_on_c, 0, 58, 64
1, 12327, Note_on_c, 0, 57, 66
1, 12328, Note_on_c, 0, 62, 60
1, 12330, Note_on_c, 0, 69, 58
1, 12330, Note_on_c, 0, 65, 57
1, 12347, Note_on_c, 0, 69, 0
1, 12351, Note_on_c, 0, 58, 0
1, 12354, Note_on_c, 0, 62, 0
1, 12356, Note_on_c, 0, 57, 0
1, 12356, Note_on_c, 0, 65, 0
1, 12356, Note_on_c, 9, 28, 52
1, 12357, Note_on_c, 9, 46, 36
1, 12368, Note_on_c, 0, 55, 56
1, 12390, Note_on_c, 9, 46, 0
1, 12402, Note_on_c, 9, 40, 51
1, 12409, Note_on_c, 9, 40, 0
1, 12425, Note_on_c, 0, 55, 0
1, 12441, Note_on_c, 9, 28, 0
1, 12441, Note_on_c, 9, 36, 50
1, 12445, Note_on_c, 1, 48, 0
1, 12445, Note_on_c, 1, 46, 52
1, 12453, Note_on_c, 9, 36, 0
1, 12471, Note_on_c, 0, 52, 49
1, 12472, Note_on_c, 1, 46, 0
1, 12476, Note_on_c, 9, 28, 54
1, 12480, Note_on_c, 9, 36, 40
1, 12482, Note_on_c, 1, 45, 60
1, 12483, Note_on_c, 0, 52, 0
1, 12487, Note_on_c, 0, 57, 51
1, 12491, Note_on_c, 0, 65, 44
1, 12492, Note_on_c, 0, 60, 39
1, 12493, Note_on_c, 0, 62, 48
1, 12493, Note_on_c, 0, 53, 50
1, 12498, Note_on_c, 9, 36, 0
1, 12552, Control_c, 0, 64, 127
1, 12556, Note_on_c, 0, 60, 0
1, 12560, Note_on_c, 0, 57, 0
1, 12560, Note_on_c, 0, 62, 0
1, 12567, Control_c, 0, 64, 0
1, 12572, Note_on_c, 9, 28, 0
1, 12574, Note_on_c, 0, 65, 0
1, 12588, Note_on_c, 0, 53, 0
1, 12595, Note_on_c, 1, 45, 0
1, 12596, Note_on_c, 9, 28, 36
1, 12597, Note_on_c, 9, 44, 38
1, 12601, Note_on_c, 1, 37, 52
1, 12606, Note_on_c, 0, 50, 43
1, 12607, Note_on_c, 0, 57, 48
1, 12608, Note_on_c, 0, 60, 54
1, 12612, Note_on_c, 0, 62, 49
1, 12623, Note_on_c, 0, 50, 0
1, 12627, Control_c, 0, 64, 127
1, 12630, Note_on_c, 0, 57, 0
1, 12635, Note_on_c, 9, 44, 0
1, 12641, Note_on_c, 0, 60, 0
1, 12645, Note_on_c, 0, 62, 0
1, 12675, Note_on_c, 9, 36, 58
1, 12681, Note_on_c, 9, 36, 0
1, 12693, Note_on_c, 9, 28, 0
1, 12716, Note_on_c, 9, 28, 33
1, 12721, Note_on_c, 1, 37, 0
1, 12721, Control_c, 0, 64, 0
1, 12721, Note_on_c, 1, 38, 53
1, 12728, Note_on_c, 0, 72, 59
1, 12730, Note_on_c, 0, 66, 55
1, 12731, Note_on_c, 0, 54, 33
1, 12731, Note_on_c, 0, 60, 42
1, 12742, Control_c, 0, 64, 127
1, 12759, Note_on_c, 0, 72, 0
1, 12778, Note_on_c, 0, 54, 0
1, 12782, Note_on_c, 0, 66, 0
1, 12791, Note_on_c, 0, 60, 0
1, 12806, Note_on_c, 9, 28, 0
1, 12809, Note_on_c, 0, 66, 59
1, 12809, Note_on_c, 0, 74, 76
1, 12809, Note_on_c, 0, 54, 50
1, 12811, Note_on_c, 0, 60, 38
1, 12812, Note_on_c, 0, 64, 57
1, 12825, Control_c, 0, 64, 0
1, 12830, Note_on_c, 0, 64, 0
1, 12836, Note_on_c, 9, 28, 38
1, 12837, Note_on_c, 9, 44, 52
1, 12838, Note_on_c, 0, 54, 0
1, 12840, Note_on_c, 0, 74, 0
1, 12844, Note_on_c, 1, 38, 0
1, 12844, Note_on_c, 1, 44, 91
1, 12851, Note_on_c, 0, 66, 0
1, 12857, Note_on_c, 0, 54, 49
1, 12860, Note_on_c, 0, 64, 41
1, 12869, Note_on_c, 0, 72, 27
1, 12871, Control_c, 0, 64, 127
1, 12882, Note_on_c, 9, 44, 0
1, 12884, Note_on_c, 0, 64, 0
1, 12886, Note_on_c, 0, 60, 0
1, 12900, Note_on_c, 0, 72, 0
1, 12913, Note_on_c, 0, 54, 0
1, 12928, Note_on_c, 9, 28, 0
1, 12930, Note_on_c, 0, 62, 40
1, 12933, Note_on_c, 0, 65, 49
1, 12934, Note_on_c, 0, 69, 61
1, 12934, Note_on_c, 0, 58, 36
1, 12938, Note_on_c, 0, 53, 39
1, 12938, Note_on_c, 0, 57, 35
1, 12939, Control_c, 0, 64, 0
1, 12955, Note_on_c, 0, 69, 0
1, 12955, Note_on_c, 0, 65, 0
1, 12956, Note_on_c, 9, 28, 33
1, 12968, Note_on_c, 0, 62, 0
1, 12978, Note_on_c, 0, 58, 0
1, 12999, Note_on_c, 0, 57, 0
1, 13046, Note_on_c, 1, 43, 68
1, 13047, Note_on_c, 9, 28, 0
1, 13051, Note_on_c, 0, 58, 67
1, 13054, Note_on_c, 1, 44, 0
1, 13058, Note_on_c, 1, 43, 0
1, 13076, Note_on_c, 9, 28, 38
1, 13077, Note_on_c, 0, 53, 0
1, 13077, Note_on_c, 9, 44, 58
1, 13080, Note_on_c, 0, 58, 0
1, 13087, Note_on_c, 1, 38, 60
1, 13104, Note_on_c, 0, 62, 30
1, 13114, Note_on_c, 0, 62, 0
1, 13135, Note_on_c, 9, 44, 0
1, 13135, Note_on_c, 0, 65, 68
1, 13156, Note_on_c, 0, 65, 0
1, 13157, Note_on_c, 9, 36, 40
1, 13165, Note_on_c, 9, 36, 0
1, 13171, Note_on_c, 9, 28, 0
1, 13176, Note_on_c, 0, 67, 83
1, 13192, Note_on_c, 0, 67, 0
1, 13193, Note_on_c, 1, 38, 0
1, 13196, Note_on_c, 9, 28, 36
1, 13199, Note_on_c, 1, 37, 46
1, 13212, Note_on_c, 0, 63, 35
1, 13213, Note_on_c, 0, 53, 41
1, 13217, Note_on_c, 0, 59, 33
1, 13218, Note_on_c, 1, 37, 0
1, 13219, Note_on_c, 0, 68, 77
1, 13228, Control_c, 0, 64, 127
1, 13246, Note_on_c, 0, 59, 0
1, 13258, Note_on_c, 0, 63, 0
1, 13269, Note_on_c, 0, 53, 0
1, 13277, Note_on_c, 9, 28, 0
1, 13277, Note_on_c, 1, 35, 43
1, 13280, Note_on_c, 0, 68, 0
1, 13295, Note_on_c, 0, 62, 56
1, 13298, Note_on_c, 0, 58, 42
1, 13298, Note_on_c, 0, 52, 55
1, 13299, Note_on_c, 0, 67, 74
1, 13307, Note_on_c, 1, 35, 0
1, 13309, Control_c, 0, 64, 0
1, 13316, Note_on_c, 9, 28, 36
1, 13317, Note_on_c, 1, 36, 57
1, 13317, Note_on_c, 9, 44, 56
1, 13333, Note_on_c, 1, 36, 0
1, 13345, Note_on_c, 9, 44, 0
1, 13346, Note_on_c, 0, 62, 0
1, 13349, Control_c, 0, 64, 127
1, 13382, Note_on_c, 0, 52, 0
1, 13384, Note_on_c, 0, 58, 0
1, 13385, Note_on_c, 0, 67, 0
1, 13398, Note_on_c, 9, 28, 0
1, 13400, Note_on_c, 1, 34, 40
1, 13412, Note_on_c, 0, 65, 92
1, 13414, Control_c, 0, 64, 0
1, 13427, Note_on_c, 1, 34, 0
1, 13436, Note_on_c, 1, 33, 41
1, 13436, Note_on_c, 9, 28, 44
1, 13475, Note_on_c, 1, 49, 42
1, 13513, Note_on_c, 9, 28, 0
1, 13515, Note_on_c, 0, 65, 0
1, 13534, Note_on_c, 0, 62, 42
1, 13548, Note_on_c, 0, 62, 0
1, 13556, Note_on_c, 9, 28, 27
1, 13557, Note_on_c, 9, 44, 52
1, 13569, Note_on_c, 0, 65, 51
1, 13605, Note_on_c, 9, 44, 0
1, 13631, Note_on_c, 0, 65, 0
1, 13635, Note_on_c, 9, 36, 34
1, 13638, Note_on_c, 9, 28, 0
1, 13638, Note_on_c, 1, 33, 0
1, 13640, Note_on_c, 1, 37, 30
1, 13645, Note_on_c, 9, 36, 0
1, 13649, Note_on_c, 0, 67, 64
1, 13651, Note_on_c, 0, 61, 31
1, 13657, Note_on_c, 0, 60, 24
1, 13658, Note_on_c, 0, 55, 30
1, 13666, Note_on_c, 1, 49, 0
1, 13669, Note_on_c, 0, 67, 0
1, 13672, Note_on_c, 1, 37, 0
1, 13674, Note_on_c, 0, 55, 0
1, 13676, Note_on_c, 1, 38, 57
1, 13677, Note_on_c, 9, 28, 32
1, 13678, Note_on_c, 0, 60, 0
1, 13685, Note_on_c, 0, 61, 0
1, 13691, Note_on_c, 0, 68, 33
1, 13751, Note_on_c, 0, 68, 0
1, 13757, Note_on_c, 9, 28, 0
1, 13768, Note_on_c, 0, 69, 58
1, 13773, Note_on_c, 0, 64, 33
1, 13774, Note_on_c, 0, 54, 29
1, 13775, Note_on_c, 0, 60, 31
1, 13783, Note_on_c, 0, 64, 0
1, 13788, Note_on_c, 0, 60, 0
1, 13790, Note_on_c, 0, 69, 0
1, 13797, Note_on_c, 9, 28, 31
1, 13799, Note_on_c, 0, 54, 0
1, 13800, Note_on_c, 9, 44, 46
1, 13815, Note_on_c, 0, 72, 34
1, 13839, Note_on_c, 1, 44, 52
1, 13850, Note_on_c, 1, 38, 0
1, 13854, Note_on_c, 0, 72, 0
1, 13856, Note_on_c, 9, 44, 0
1, 13875, Note_on_c, 1, 38, 45
1, 13882, Note_on_c, 1, 38, 0
1, 13883, Note_on_c, 0, 58, 60
1, 13885, Note_on_c, 9, 28, 0
1, 13888, Note_on_c, 0, 72, 87
1, 13888, Note_on_c, 0, 62, 54
1, 13889, Note_on_c, 0, 57, 40
1, 13893, Note_on_c, 1, 44, 0
1, 13901, Note_on_c, 0, 57, 0
1, 13904, Note_on_c, 0, 62, 0
1, 13908, Note_on_c, 0, 72, 0
1, 13916, Note_on_c, 1, 43, 55
1, 13916, Note_on_c, 9, 28, 37
1, 13917, Note_on_c, 0, 58, 0
1, 13927, Note_on_c, 1, 43, 0
1, 13927, Note_on_c, 0, 72, 20
1, 13944, Note_on_c, 0, 72, 0
1, 13950, Note_on_c, 0, 73, 32
1, 13951, Note_on_c, 1, 38, 57
1, 13967, Note_on_c, 0, 73, 0
1, 13971, Note_on_c, 0, 74, 57
1, 13994, Note_on_c, 0, 74, 0
1, 14001, Note_on_c, 9, 28, 0
1, 14007, Note_on_c, 0, 77, 80
1, 14010, Note_on_c, 0, 65, 77
1, 14016, Note_on_c, 0, 62, 44
1, 14018, Note_on_c, 0, 58, 38
1, 14023, Note_on_c, 0, 57, 31
1, 14029, Note_on_c, 1, 38, 0
1, 14030, Note_on_c, 0, 62, 0
1, 14031, Note_on_c, 0, 65, 0
1, 14034, Note_on_c, 0, 77, 0
1, 14036, Note_on_c, 1, 37, 49
1, 14036, Note_on_c, 9, 28, 37
1, 14037, Note_on_c, 9, 44, 48
1, 14044, Note_on_c, 0, 58, 0
1, 14051, Note_on_c, 0, 77, 58
1, 14053, Note_on_c, 0, 57, 0
1, 14053, Note_on_c, 0, 65, 50
1, 14106, Note_on_c, 0, 77, 0
1, 14110, Note_on_c, 0, 65, 0
1, 14117, Note_on_c, 9, 44, 0
1, 14121, Note_on_c, 9, 28, 0
1, 14122, Note_on_c, 9, 36, 27
1, 14128, Note_on_c, 9, 36, 0
1, 14128, Note_on_c, 0, 74, 50
1, 14136, Note_on_c, 0, 58, 34
1, 14141, Note_on_c, 0, 62, 28
1, 14143, Note_on_c, 0, 74, 0
1, 14147, Note_on_c, 0, 52, 37
1, 14154, Note_on_c, 0, 62, 0
1, 14156, Note_on_c, 9, 28, 27
1, 14162, Note_on_c, 0, 77, 72
1, 14163, Note_on_c, 0, 65, 61
1, 14175, Note_on_c, 0, 58, 0
1, 14195, Note_on_c, 1, 36, 67
1, 14203, Note_on_c, 1, 37, 0
1, 14211, Note_on_c, 0, 65, 0
1, 14234, Note_on_c, 0, 77, 0
1, 14236, Note_on_c, 9, 28, 0
1, 14251, Note_on_c, 0, 72, 60
1, 14256, Note_on_c, 0, 58, 26
1, 14262, Note_on_c, 0, 52, 0
1, 14263, Note_on_c, 0, 72, 0
1, 14264, Note_on_c, 0, 62, 37
1, 14269, Note_on_c, 0, 58, 0
1, 14276, Note_on_c, 9, 28, 52
1, 14277, Note_on_c, 9, 46, 36
1, 14278, Note_on_c, 1, 34, 58
1, 14282, Note_on_c, 1, 36, 0
1, 14285, Note_on_c, 0, 74, 77
1, 14310, Note_on_c, 9, 46, 0
1, 14321, Note_on_c, 0, 62, 0
1, 14322, Note_on_c, 9, 40, 51
1, 14329, Note_on_c, 9, 40, 0
1, 14352, Note_on_c, 1, 34, 0
1, 14354, Control_c, 0, 64, 127
1, 14358, Note_on_c, 1, 33, 76
1, 14361, Note_on_c, 9, 28, 0
1, 14361, Note_on_c, 9, 36, 50
1, 14369, Note_on_c, 0, 74, 0
1, 14373, Note_on_c, 9, 36, 0
1, 14377, Control_c, 0, 64, 0
1, 14396, Note_on_c, 9, 28, 54
1, 14399, Note_on_c, 0, 63, 29
1, 14401, Note_on_c, 0, 62, 36
1, 14401, Note_on_c, 0, 67, 36
1, 14403, Note_on_c, 9, 36, 34
1, 14404, Note_on_c, 0, 77, 69
1, 14405, Note_on_c, 0, 57, 30
1, 14423, Note_on_c, 0, 67, 0
1, 14424, Note_on_c, 9, 36, 0
1, 14426, Note_on_c, 0, 62, 0
1, 14428, Note_on_c, 0, 63, 0
1, 14434, Note_on_c, 0, 77, 0
1, 14436, Note_on_c, 0, 57, 0
1, 14492, Note_on_c, 9, 28, 0
1, 14516, Note_on_c, 9, 28, 48
1, 14517, Note_on_c, 9, 44, 51
1, 14519, Note_on_c, 0, 60, 52
1, 14519, Note_on_c, 0, 61, 40
1, 14521, Note_on_c, 0, 65, 61
1, 14522, Note_on_c, 0, 84, 74
1, 14522, Note_on_c, 0, 72, 68
1, 14524, Note_on_c, 0, 55, 52
1, 14530, Note_on_c, 0, 77, 34
1, 14540, Note_on_c, 0, 77, 0
1, 14545, Note_on_c, 0, 72, 0
1, 14547, Note_on_c, 9, 44, 0
1, 14558, Note_on_c, 0, 84, 0
1, 14560, Note_on_c, 0, 60, 0
1, 14561, Note_on_c, 0, 65, 0
1, 14564, Note_on_c, 0, 61, 0
1, 14570, Note_on_c, 0, 55, 0
1, 14593, Note_on_c, 9, 36, 37
1, 14597, Note_on_c, 9, 28, 0
1, 14603, Note_on_c, 9, 36, 0
1, 14635, Control_c, 0, 64, 127
1, 14636, Note_on_c, 9, 28, 46
1, 14644, Note_on_c, 0, 65, 56
1, 14645, Note_on_c, 1, 38, 51
1, 14646, Note_on_c, 0, 60, 48
1, 14647, Note_on_c, 0, 89, 60
1, 14648, Note_on_c, 1, 33, 0
1, 14648, Note_on_c, 0, 58, 33
1, 14649, Note_on_c, 0, 77, 40
1, 14650, Note_on_c, 0, 54, 33
1, 14659, Note_on_c, 0, 77, 0
1, 14661, Note_on_c, 0, 65, 0
1, 14667, Note_on_c, 0, 54, 0
1, 14668, Note_on_c, 0, 60, 0
1, 14672, Note_on_c, 0, 89, 0
1, 14681, Note_on_c, 0, 58, 0
1, 14727, Note_on_c, 9, 28, 0
1, 14727, Note_on_c, 0, 92, 59
1, 14728, Note_on_c, 0, 80, 51
1, 14730, Note_on_c, 0, 58, 45
1, 14731, Note_on_c, 0, 65, 54
1, 14731, Note_on_c, 0, 54, 48
1, 14734, Note_on_c, 0, 60, 53
1, 14737, Control_c, 0, 64, 0
1, 14756, Note_on_c, 9, 28, 41
1, 14757, Note_on_c, 9, 44, 50
1, 14759, Control_c, 0, 64, 127
1, 14785, Note_on_c, 0, 65, 0
1, 14789, Note_on_c, 0, 60, 0
1, 14800, Note_on_c, 9, 44, 0
1, 14810, Note_on_c, 0, 58, 0
1, 14818, Note_on_c, 0, 80, 0
1, 14819, Note_on_c, 0, 92, 0
1, 14822, Note_on_c, 0, 54, 0
1, 14838, Note_on_c, 9, 36, 35
1, 14849, Note_on_c, 1, 34, 25
1, 14853, Note_on_c, 9, 28, 0
1, 14859, Note_on_c, 9, 36, 0
1, 14876, Note_on_c, 9, 28, 39
1, 14880, Note_on_c, 1, 43, 51
1, 14882, Note_on_c, 9, 36, 32
1, 14890, Note_on_c, 1, 38, 0
1, 14892, Note_on_c, 1, 34, 0
1, 14938, Note_on_c, 9, 36, 0
1, 14959, Note_on_c, 1, 38, 40
1, 14965, Note_on_c, 0, 63, 79
1, 14965, Note_on_c, 0, 59, 68
1, 14967, Note_on_c, 0, 53, 74
1, 14967, Control_c, 0, 64, 0
1, 14968, Note_on_c, 0, 94, 78
1, 14969, Note_on_c, 0, 82, 84
1, 14969, Note_on_c, 0, 87, 79
1, 14971, Note_on_c, 1, 38, 0
1, 14971, Note_on_c, 9, 28, 0
1, 14972, Note_on_c, 0, 91, 61
1, 14988, Note_on_c, 1, 43, 0
1, 14996, Note_on_c, 9, 28, 35
1, 14997, Note_on_c, 1, 49, 57
1, 14997, Note_on_c, 9, 44, 39
1, 15013, Control_c, 0, 64, 127
1, 15042, Note_on_c, 0, 53, 0
1, 15047, Note_on_c, 9, 44, 0
1, 15047, Note_on_c, 0, 59, 0
1, 15058, Note_on_c, 0, 87, 0
1, 15059, Note_on_c, 0, 91, 0
1, 15069, Note_on_c, 0, 63, 0
1, 15075, Note_on_c, 0, 82, 0
1, 15083, Note_on_c, 1, 38, 34
1, 15093, Note_on_c, 1, 38, 0
1, 15096, Note_on_c, 9, 28, 0
1, 15097, Note_on_c, 0, 94, 0
1, 15102, Note_on_c, 1, 49, 0
1, 15114, Note_on_c, 1, 48, 41
1, 15116, Note_on_c, 9, 28, 38
1, 15195, Note_on_c, 0, 58, 67
1, 15199, Control_c, 0, 64, 0
1, 15200, Note_on_c, 0, 87, 67
1, 15200, Note_on_c, 0, 95, 66
1, 15200, Note_on_c, 1, 38, 38
1, 15201, Note_on_c, 0, 62, 68
1, 15201, Note_on_c, 0, 83, 68
1, 15201, Note_on_c, 0, 52, 71
1, 15204, Note_on_c, 0, 92, 43
1, 15208, Note_on_c, 1, 38, 0
1, 15212, Note_on_c, 9, 28, 0
1, 15219, Note_on_c, 0, 62, 0
1, 15220, Note_on_c, 0, 83, 0
1, 15223, Note_on_c, 1, 48, 0
1, 15226, Note_on_c, 0, 87, 0
1, 15227, Note_on_c, 0, 52, 0
1, 15232, Note_on_c, 0, 92, 0
1, 15233, Note_on_c, 0, 95, 0
1, 15235, Note_on_c, 0, 58, 0
1, 15235, Note_on_c, 9, 28, 43
1, 15236, Note_on_c, 1, 42, 50
1, 15237, Note_on_c, 9, 44, 47
1, 15245, Control_c, 0, 64, 127
1, 15272, Note_on_c, 9, 44, 0
1, 15278, Note_on_c, 0, 58, 60
1, 15282, Note_on_c, 0, 84, 67
1, 15282, Note_on_c, 0, 96, 66
1, 15283, Note_on_c, 0, 94, 47
1, 15284, Note_on_c, 0, 62, 55
1, 15287, Note_on_c, 0, 52, 37
1, 15293, Note_on_c, 0, 94, 0
1, 15297, Note_on_c, 0, 52, 0
1, 15302, Note_on_c, 0, 96, 0
1, 15305, Note_on_c, 0, 58, 0
1, 15307, Note_on_c, 0, 84, 0
1, 15309, Note_on_c, 0, 62, 0
1, 15318, Note_on_c, 9, 36, 53
1, 15328, Note_on_c, 9, 36, 0
1, 15331, Note_on_c, 9, 28, 0
1, 15354, Note_on_c, 1, 42, 0
1, 15356, Note_on_c, 9, 28, 45
1, 15362, Note_on_c, 1, 41, 30
1, 15363, Control_c, 0, 64, 0
1, 15368, Note_on_c, 0, 57, 44
1, 15368, Note_on_c, 0, 67, 52
1, 15370, Note_on_c, 0, 63, 47
1, 15372, Note_on_c, 0, 93, 53
1, 15373, Note_on_c, 0, 88, 54
1, 15374, Note_on_c, 0, 81, 42
1, 15391, Control_c, 0, 64, 127
1, 15398, Note_on_c, 0, 88, 0
1, 15400, Note_on_c, 0, 93, 0
1, 15411, Note_on_c, 0, 81, 0
1, 15412, Note_on_c, 0, 67, 0
1, 15417, Note_on_c, 0, 63, 0
1, 15419, Note_on_c, 0, 57, 0
1, 15440, Note_on_c, 1, 36, 53
1, 15451, Note_on_c, 9, 28, 0
1, 15453, Note_on_c, 1, 41, 0
1, 15454, Note_on_c, 0, 89, 60
1, 15461, Note_on_c, 0, 57, 42
1, 15462, Note_on_c, 0, 63, 43
1, 15462, Note_on_c, 0, 67, 51
1, 15462, Note_on_c, 0, 84, 42
1, 15465, Control_c, 0, 64, 0
1, 15472, Note_on_c, 0, 84, 0
1, 15472, Note_on_c, 0, 67, 0
1, 15473, Note_on_c, 0, 57, 0
1, 15476, Note_on_c, 9, 28, 40
1, 15477, Note_on_c, 0, 63, 0
1, 15477, Note_on_c, 9, 44, 50
1, 15478, Note_on_c, 1, 36, 0
1, 15478, Note_on_c, 0, 89, 0
1, 15478, Note_on_c, 1, 29, 56
1, 15519, Note_on_c, 9, 44, 0
1, 15563, Note_on_c, 9, 28, 0
1, 15596, Note_on_c, 9, 28, 34
1, 15678, Note_on_c, 1, 36, 62
1, 15683, Note_on_c, 0, 80, 58
1, 15684, Note_on_c, 0, 63, 48
1, 15685, Note_on_c, 0, 66, 59
1, 15686, Note_on_c, 9, 28, 0
1, 15686, Note_on_c, 0, 61, 45
1, 15688, Note_on_c, 0, 77, 51
1, 15688, Note_on_c, 0, 73, 62
1, 15690, Note_on_c, 0, 68, 52
1, 15692, Note_on_c, 0, 57, 44
1, 15698, Note_on_c, 1, 29, 0
1, 15712, Note_on_c, 1, 36, 0
1, 15716, Note_on_c, 9, 28, 44
1, 15717, Note_on_c, 9, 44, 50
1, 15721, Note_on_c, 1, 35, 53
1, 15722, Note_on_c, 0, 77, 0
1, 15727, Control_c, 0, 64, 127
1, 15728, Note_on_c, 0, 73, 0
1, 15728, Note_on_c, 0, 66, 0
1, 15729, Note_on_c, 0, 57, 0
1, 15731, Note_on_c, 0, 68, 0
1, 15733, Note_on_c, 0, 61, 0
1, 15737, Note_on_c, 0, 63, 0
1, 15739, Note_on_c, 0, 80, 0
1, 15755, Note_on_c, 9, 44, 0
1, 15765, Note_on_c, 0, 66, 47
1, 15768, Note_on_c, 0, 77, 49
1, 15768, Note_on_c, 0, 63, 31
1, 15770, Note_on_c, 0, 68, 50
1, 15772, Note_on_c, 0, 73, 48
1, 15801, Note_on_c, 0, 73, 0
1, 15801, Note_on_c, 0, 66, 0
1, 15801, Note_on_c, 9, 28, 0
1, 15801, Note_on_c, 0, 68, 0
1, 15802, Note_on_c, 0, 77, 0
1, 15814, Note_on_c, 0, 63, 0
1, 15831, Note_on_c, 1, 35, 0
1, 15836, Note_on_c, 9, 28, 40
1, 15837, Control_c, 0, 64, 0
1, 15841, Note_on_c, 1, 34, 47
1, 15844, Note_on_c, 0, 65, 35
1, 15846, Note_on_c, 0, 62, 34
1, 15848, Note_on_c, 0, 77, 49
1, 15849, Note_on_c, 0, 60, 39
1, 15851, Note_on_c, 0, 74, 51
1, 15853, Note_on_c, 0, 69, 34
1, 15855, Note_on_c, 0, 55, 45
1, 15872, Control_c, 0, 64, 127
1, 15883, Note_on_c, 0, 74, 0
1, 15883, Note_on_c, 0, 77, 0
1, 15898, Note_on_c, 0, 69, 0
1, 15909, Note_on_c, 0, 65, 0
1, 15917, Note_on_c, 0, 62, 0
1, 15921, Note_on_c, 0, 60, 0
1, 15926, Note_on_c, 9, 28, 0
1, 15939, Note_on_c, 0, 55, 0
1, 15956, Note_on_c, 9, 28, 46
1, 15957, Note_on_c, 9, 44, 60
1, 15972, Note_on_c, 1, 34, 0
1, 15990, Note_on_c, 9, 44, 0
1, 16001, Note_on_c, 1, 34, 47
1, 16017, Note_on_c, 1, 34, 0
1, 16037, Note_on_c, 1, 35, 55
1, 16041, Note_on_c, 9, 28, 0
1, 16043, Note_on_c, 0, 54, 62
1, 16046, Note_on_c, 0, 55, 75
1, 16047, Note_on_c, 0, 60, 64
1, 16047, Note_on_c, 0, 67, 63
1, 16048, Note_on_c, 0, 57, 62
1, 16051, Note_on_c, 0, 62, 53
1, 16065, Note_on_c, 1, 35, 0
1, 16073, Note_on_c, 0, 67, 0
1, 16074, Note_on_c, 0, 54, 0
1, 16075, Note_on_c, 0, 55, 0
1, 16076, Note_on_c, 1, 36, 56
1, 16076, Note_on_c, 9, 28, 41
1, 16079, Note_on_c, 0, 60, 0
1, 16084, Note_on_c, 0, 57, 0
1, 16086, Note_on_c, 0, 62, 0
1, 16104, Control_c, 0, 64, 0
1, 16109, Note_on_c, 0, 51, 25
1, 16117, Note_on_c, 0, 52, 55
1, 16118, Note_on_c, 0, 51, 0
1, 16121, Note_on_c, 0, 58, 37
1, 16122, Note_on_c, 0, 65, 41
1, 16123, Note_on_c, 0, 53, 52
1, 16124, Note_on_c, 0, 62, 41
1, 16125, Note_on_c, 0, 55, 42
1, 16132, Note_on_c, 0, 52, 0
1, 16161, Note_on_c, 9, 36, 50
1, 16166, Note_on_c, 9, 28, 0
1, 16174, Note_on_c, 9, 36, 0
1, 16178, Note_on_c, 0, 62, 0
1, 16182, Note_on_c, 0, 55, 0
1, 16191, Note_on_c, 0, 58, 0
1, 16196, Note_on_c, 9, 28, 37
1, 16197, Note_on_c, 0, 65, 0
1, 16197, Note_on_c, 9, 44, 59
1, 16201, Note_on_c, 9, 36, 28
1, 16203, Note_on_c, 0, 53, 0
1, 16207, Note_on_c, 0, 62, 32
1, 16212, Note_on_c, 0, 55, 40
1, 16213, Note_on_c, 0, 50, 39
1, 16217, Note_on_c, 0, 58, 21
1, 16218, Control_c, 0, 64, 127
1, 16232, Note_on_c, 0, 55, 0
1, 16236, Note_on_c, 0, 58, 0
1, 16237, Note_on_c, 9, 44, 0
1, 16247, Note_on_c, 9, 36, 0
1, 16255, Note_on_c, 0, 62, 0
1, 16256, Note_on_c, 1, 36, 0
1, 16276, Note_on_c, 9, 36, 40
1, 16278, Note_on_c, 9, 28, 0
1, 16281, Note_on_c, 1, 34, 55
1, 16286, Note_on_c, 0, 50, 0
1, 16287, Note_on_c, 9, 36, 0
1, 16289, Note_on_c, 0, 52, 43
1, 16293, Note_on_c, 0, 65, 53
1, 16295, Note_on_c, 0, 57, 26
1, 16296, Note_on_c, 0, 60, 47
1, 16299, Note_on_c, 0, 62, 35
1, 16299, Control_c, 0, 64, 0
1, 16300, Note_on_c, 0, 53, 41
1, 16301, Note_on_c, 0, 52, 0
1, 16309, Note_on_c, 1, 34, 0
1, 16316, Note_on_c, 9, 28, 40
1, 16320, Note_on_c, 0, 57, 0
1, 16322, Note_on_c, 1, 33, 50
1, 16324, Note_on_c, 0, 60, 0
1, 16326, Note_on_c, 0, 62, 0
1, 16328, Note_on_c, 0, 53, 0
1, 16329, Note_on_c, 0, 65, 0
1, 16342, Note_on_c, 1, 33, 0
1, 16398, Note_on_c, 1, 45, 77
1, 16401, Note_on_c, 9, 28, 0
1, 16412, Note_on_c, 1, 45, 0
1, 16436, Note_on_c, 1, 39, 50
1, 16436, Note_on_c, 9, 28, 52
1, 16437, Note_on_c, 9, 44, 46
1, 16443, Control_c, 0, 64, 127
1, 16482, Note_on_c, 9, 44, 0
1, 16521, Note_on_c, 9, 28, 0
1, 16521, Note_on_c, 0, 64, 57
1, 16522, Note_on_c, 0, 60, 49
1, 16523, Note_on_c, 0, 54, 46
1, 16524, Note_on_c, 0, 74, 94
1, 16531, Note_on_c, 0, 64, 0
1, 16537, Note_on_c, 0, 60, 0
1, 16548, Control_c, 0, 64, 0
1, 16553, Note_on_c, 0, 74, 0
1, 16553, Note_on_c, 1, 39, 0
1, 16555, Note_on_c, 0, 54, 0
1, 16556, Note_on_c, 9, 28, 31
1, 16561, Note_on_c, 1, 38, 41
1, 16562, Note_on_c, 0, 67, 49
1, 16589, Note_on_c, 0, 68, 45
1, 16594, Note_on_c, 0, 67, 0
1, 16608, Note_on_c, 0, 68, 0
1, 16615, Note_on_c, 0, 69, 42
1, 16630, Note_on_c, 0, 69, 0
1, 16638, Note_on_c, 9, 27, 37
1, 16641, Note_on_c, 9, 28, 0
1, 16644, Note_on_c, 1, 46, 63
1, 16646, Note_on_c, 9, 27, 0
1, 16648, Note_on_c, 0, 54, 33
1, 16653, Note_on_c, 0, 62, 57
1, 16660, Note_on_c, 0, 54, 0
1, 16662, Note_on_c, 1, 46, 0
1, 16670, Note_on_c, 1, 38, 0
1, 16674, Note_on_c, 0, 62, 0
1, 16676, Note_on_c, 9, 28, 51
1, 16677, Note_on_c, 9, 44, 53
1, 16684, Note_on_c, 1, 42, 49
1, 16690, Note_on_c, 0, 65, 40
1, 16718, Note_on_c, 9, 44, 0
1, 16766, Note_on_c, 9, 28, 0
1, 16785, Note_on_c, 1, 42, 0
1, 16796, Note_on_c, 9, 28, 48
1, 16801, Note_on_c, 1, 43, 50
1, 16805, Note_on_c, 0, 62, 51
1, 16806, Note_on_c, 0, 57, 55
1, 16806, Note_on_c, 0, 58, 38
1, 16814, Note_on_c, 0, 62, 0
1, 16816, Note_on_c, 0, 57, 0
1, 16819, Note_on_c, 0, 58, 0
1, 16881, Note_on_c, 1, 38, 51
1, 16899, Note_on_c, 1, 38, 0
1, 16901, Note_on_c, 9, 28, 0
1, 16907, Note_on_c, 1, 43, 0
1, 16916, Note_on_c, 9, 28, 54
1, 16917, Note_on_c, 9, 44, 48
1, 16920, Note_on_c, 1, 37, 55
1, 16959, Note_on_c, 0, 65, 0
1, 16962, Note_on_c, 9, 44, 0
1, 16962, Note_on_c, 9, 25, 37
1, 16970, Note_on_c, 9, 25, 0
1, 16998, Note_on_c, 9, 25, 48
1, 16999, Note_on_c, 0, 58, 62
1, 17001, Note_on_c, 0, 74, 85
1, 17002, Note_on_c, 0, 62, 64
1, 17008, Note_on_c, 0, 52, 44
1, 17010, Note_on_c, 9, 25, 0
1, 17011, Note_on_c, 0, 62, 0
1, 17019, Note_on_c, 0, 52, 0
1, 17021, Note_on_c, 9, 28, 0
1, 17023, Note_on_c, 1, 37, 0
1, 17028, Note_on_c, 0, 58, 0
1, 17035, Note_on_c, 1, 36, 64
1, 17036, Note_on_c, 9, 28, 47
1, 17039, Note_on_c, 0, 74, 0
1, 17066, Note_on_c, 0, 68, 64
1, 17083, Note_on_c, 9, 27, 46
1, 17094, Note_on_c, 0, 67, 51
1, 17095, Note_on_c, 0, 68, 0
1, 17098, Note_on_c, 9, 27, 0
1, 17103, Note_on_c, 0, 67, 0
1, 17112, Note_on_c, 0, 65, 50
1, 17116, Note_on_c, 0, 58, 42
1, 17133, Note_on_c, 0, 65, 0
1, 17135, Note_on_c, 0, 58, 0
1, 17138, Note_on_c, 9, 28, 0
1, 17142, Note_on_c, 0, 62, 35
1, 17155, Note_on_c, 1, 40, 63
1, 17156, Note_on_c, 9, 28, 49
1, 17157, Note_on_c, 9, 44, 57
1, 17161, Note_on_c, 1, 36, 0
1, 17205, Note_on_c, 9, 44, 0
1, 17225, Note_on_c, 0, 62, 0
1, 17226, Note_on_c, 9, 28, 0
1, 17230, Note_on_c, 0, 65, 73
1, 17236, Note_on_c, 9, 28, 47
1, 17240, Note_on_c, 1, 36, 42
1, 17248, Note_on_c, 1, 36, 0
1, 17265, Note_on_c, 1, 40, 0
1, 17271, Note_on_c, 9, 28, 0
1, 17274, Note_on_c, 1, 41, 53
1, 17276, Note_on_c, 9, 28, 47
1, 17359, Note_on_c, 0, 57, 43
1, 17369, Note_on_c, 0, 57, 0
1, 17372, Note_on_c, 9, 28, 0
1, 17382, Note_on_c, 0, 65, 0
1, 17396, Note_on_c, 9, 28, 55
1, 17397, Note_on_c, 9, 44, 56
1, 17401, Note_on_c, 0, 62, 38
1, 17435, Note_on_c, 0, 62, 0
1, 17437, Note_on_c, 9, 44, 0
1, 17470, Note_on_c, 9, 25, 34
1, 17476, Note_on_c, 9, 25, 0
1, 17481, Note_on_c, 1, 57, 36
1, 17498, Note_on_c, 9, 28, 0
1, 17516, Note_on_c, 9, 28, 52
1, 17523, Note_on_c, 1, 57, 0
1, 17527, Control_c, 0, 64, 127
1, 17530, Note_on_c, 1, 56, 38
1, 17534, Note_on_c, 1, 40, 32
1, 17535, Note_on_c, 1, 41, 0
1, 17598, Note_on_c, 0, 70, 68
1, 17599, Note_on_c, 0, 74, 64
1, 17602, Note_on_c, 0, 62, 47
1, 17602, Note_on_c, 0, 56, 56
1, 17603, Note_on_c, 0, 65, 32
1, 17605, Control_c, 0, 64, 0
1, 17610, Note_on_c, 0, 74, 0
1, 17612, Note_on_c, 0, 65, 0
1, 17614, Control_c, 0, 64, 127
1, 17617, Note_on_c, 9, 28, 0
1, 17620, Note_on_c, 0, 70, 0
1, 17636, Note_on_c, 9, 28, 48
1, 17637, Note_on_c, 9, 44, 54
1, 17653, Note_on_c, 0, 56, 0
1, 17660, Note_on_c, 9, 44, 0
1, 17661, Note_on_c, 0, 62, 0
1, 17677, Note_on_c, 0, 56, 50
1, 17681, Note_on_c, 0, 66, 53
1, 17683, Note_on_c, 0, 68, 68
1, 17685, Note_on_c, 0, 74, 67
1, 17685, Note_on_c, 0, 77, 66
1, 17685, Note_on_c, 0, 62, 14
1, 17699, Note_on_c, 0, 62, 0
1, 17716, Note_on_c, 0, 66, 0
1, 17724, Note_on_c, 1, 56, 0
1, 17737, Note_on_c, 0, 68, 0
1, 17740, Note_on_c, 0, 74, 0
1, 17741, Note_on_c, 9, 28, 0
1, 17743, Note_on_c, 0, 56, 0
1, 17747, Note_on_c, 0, 77, 0
1, 17756, Note_on_c, 1, 39, 60
1, 17756, Note_on_c, 9, 28, 40
1, 17761, Control_c, 0, 64, 0
1, 17762, Note_on_c, 1, 40, 0
1, 17770, Note_on_c, 0, 61, 43
1, 17772, Note_on_c, 0, 55, 52
1, 17773, Note_on_c, 0, 67, 47
1, 17773, Note_on_c, 0, 65, 37
1, 17776, Note_on_c, 0, 72, 54
1, 17799, Control_c, 0, 64, 127
1, 17856, Note_on_c, 9, 28, 0
1, 17870, Note_on_c, 0, 67, 0
1, 17876, Note_on_c, 9, 28, 48
1, 17877, Note_on_c, 9, 44, 60
1, 17888, Note_on_c, 0, 72, 0
1, 17899, Note_on_c, 0, 65, 0
1, 17905, Note_on_c, 9, 44, 0
1, 17918, Note_on_c, 1, 39, 0
1, 17923, Note_on_c, 0, 55, 0
1, 17927, Note_on_c, 1, 36, 41
1, 17945, Note_on_c, 1, 36, 0
1, 17956, Note_on_c, 0, 61, 0
1, 17959, Note_on_c, 1, 37, 53
1, 17978, Note_on_c, 9, 28, 0
1, 17986, Note_on_c, 1, 37, 0
1, 17996, Note_on_c, 9, 28, 35
1, 17997, Note_on_c, 1, 38, 44
1, 18003, Control_c, 0, 64, 0
1, 18004, Note_on_c, 0, 60, 48
1, 18006, Note_on_c, 0, 54, 44
1, 18007, Note_on_c, 0, 64, 51
1, 18074, Control_c, 0, 64, 127
1, 18076, Note_on_c, 9, 25, 28
1, 18101, Note_on_c, 9, 25, 0
1, 18101, Note_on_c, 9, 28, 0
1, 18116, Note_on_c, 9, 28, 43
1, 18117, Note_on_c, 9, 46, 60
1, 18120, Control_c, 0, 64, 0
1, 18133, Control_c, 0, 64, 127
1, 18156, Note_on_c, 0, 64, 0
1, 18156, Note_on_c, 0, 60, 0
1, 18159, Note_on_c, 1, 44, 69
1, 18160, Note_on_c, 1, 38, 0
1, 18160, Note_on_c, 9, 46, 0
1, 18175, Note_on_c, 1, 44, 0
1, 18194, Note_on_c, 1, 38, 51
1, 18197, Note_on_c, 0, 54, 0
1, 18206, Note_on_c, 1, 38, 0
1, 18209, Note_on_c, 0, 86, 90
1, 18211, Note_on_c, 0, 62, 37
1, 18213, Note_on_c, 0, 58, 29
1, 18217, Note_on_c, 0, 57, 32
1, 18217, Note_on_c, 0, 53, 37
1, 18221, Note_on_c, 9, 28, 0
1, 18231, Control_c, 0, 64, 0
1, 18232, Note_on_c, 1, 43, 64
1, 18236, Note_on_c, 0, 86, 0
1, 18236, Note_on_c, 9, 28, 64
1, 18248, Note_on_c, 1, 43, 0
1, 18269, Note_on_c, 1, 38, 47
1, 18270, Note_on_c, 0, 58, 0
1, 18271, Note_on_c, 0, 80, 50
1, 18282, Note_on_c, 9, 25, 42
1, 18286, Note_on_c, 1, 38, 0
1, 18294, Note_on_c, 0, 62, 0
1, 18298, Note_on_c, 9, 25, 0
1, 18308, Note_on_c, 1, 37, 59
1, 18317, Note_on_c, 0, 80, 0
1, 18333, Note_on_c, 0, 74, 54
1, 18337, Note_on_c, 9, 28, 0
1, 18340, Note_on_c, 1, 37, 0
1, 18343, Note_on_c, 0, 58, 25
1, 18347, Note_on_c, 0, 74, 0
1, 18355, Note_on_c, 1, 35, 58
1, 18356, Note_on_c, 9, 28, 35
1, 18357, Note_on_c, 0, 58, 0
1, 18357, Note_on_c, 9, 25, 32
1, 18357, Note_on_c, 9, 44, 47
1, 18361, Note_on_c, 0, 57, 0
1, 18374, Note_on_c, 0, 53, 0
1, 18375, Note_on_c, 0, 77, 61
1, 18378, Note_on_c, 9, 25, 0
1, 18392, Note_on_c, 9, 44, 0
1, 18430, Note_on_c, 9, 25, 37
1, 18433, Control_c, 0, 64, 127
1, 18445, Note_on_c, 0, 79, 74
1, 18448, Control_c, 0, 64, 0
1, 18449, Note_on_c, 0, 63, 56
1, 18450, Note_on_c, 0, 59, 56
1, 18451, Note_on_c, 9, 25, 0
1, 18454, Note_on_c, 0, 77, 0
1, 18456, Note_on_c, 9, 28, 0
1, 18457, Note_on_c, 0, 53, 27
1, 18459, Note_on_c, 0, 59, 0
1, 18461, Note_on_c, 0, 63, 0
1, 18468, Note_on_c, 0, 53, 0
1, 18469, Note_on_c, 1, 35, 0
1, 18476, Note_on_c, 9, 28, 37
1, 18478, Note_on_c, 1, 36, 60
1, 18491, Note_on_c, 0, 79, 0
1, 18510, Note_on_c, 0, 77, 29
1, 18532, Control_c, 0, 64, 127
1, 18570, Control_c, 0, 64, 0
1, 18571, Note_on_c, 0, 58, 39
1, 18573, Note_on_c, 9, 28, 0
1, 18584, Note_on_c, 0, 77, 0
1, 18588, Note_on_c, 0, 58, 0
1, 18596, Note_on_c, 9, 28, 41
1, 18597, Note_on_c, 9, 44, 50
1, 18598, Note_on_c, 0, 74, 48
1, 18610, Control_c, 0, 64, 127
1, 18632, Note_on_c, 9, 44, 0
1, 18642, Note_on_c, 1, 39, 52
1, 18643, Note_on_c, 1, 36, 0
1, 18666, Note_on_c, 1, 39, 0
1, 18673, Note_on_c, 0, 74, 0
1, 18679, Note_on_c, 1, 40, 55
1, 18680, Note_on_c, 0, 47, 71
1, 18682, Note_on_c, 0, 77, 65
1, 18682, Note_on_c, 0, 48, 74
1, 18688, Control_c, 0, 64, 0
1, 18691, Note_on_c, 9, 28, 0
1, 18695, Note_on_c, 0, 77, 0
1, 18698, Note_on_c, 1, 40, 0
1, 18699, Note_on_c, 0, 47, 0
1, 18716, Note_on_c, 9, 28, 45
1, 18717, Note_on_c, 1, 41, 60
1, 18718, Note_on_c, 9, 25, 25
1, 18723, Note_on_c, 1, 41, 0
1, 18741, Control_c, 0, 64, 127
1, 18743, Note_on_c, 9, 25, 0
1, 18757, Note_on_c, 1, 36, 46
1, 18783, Note_on_c, 1, 36, 0
1, 18790, Note_on_c, 1, 29, 63
1, 18801, Note_on_c, 9, 28, 0
1, 18829, Note_on_c, 1, 29, 0
1, 18833, Note_on_c, 0, 48, 0
1, 18836, Note_on_c, 9, 28, 37
1, 18837, Note_on_c, 1, 31, 71
1, 18837, Note_on_c, 9, 44, 62
1, 18838, Note_on_c, 0, 43, 45
1, 18840, Note_on_c, 0, 58, 42
1, 18840, Note_on_c, 0, 53, 41
1, 18843, Control_c, 0, 64, 0
1, 18865, Note_on_c, 9, 44, 0
1, 18917, Note_on_c, 9, 25, 38
1, 18918, Note_on_c, 9, 28, 0
1, 18921, Note_on_c, 0, 53, 0
1, 18933, Note_on_c, 9, 25, 0
1, 18940, Note_on_c, 0, 58, 0
1, 18948, Note_on_c, 0, 43, 0
1, 18952, Note_on_c, 1, 31, 0
1, 18956, Note_on_c, 9, 28, 32
1, 18957, Note_on_c, 0, 44, 36
1, 18960, Note_on_c, 0, 53, 29
1, 18960, Note_on_c, 1, 32, 52
1, 18962, Note_on_c, 0, 59, 41
1, 18982, Control_c, 0, 64, 127
1, 19013, Note_on_c, 0, 53, 0
1, 19031, Note_on_c, 0, 59, 0
1, 19042, Note_on_c, 9, 28, 0
1, 19045, Note_on_c, 0, 53, 45
1, 19045, Note_on_c, 0, 60, 51
1, 19054, Control_c, 0, 64, 0
1, 19057, Note_on_c, 0, 57, 24
1, 19059, Note_on_c, 0, 45, 35
1, 19061, Note_on_c, 0, 44, 0
1, 19073, Note_on_c, 0, 57, 0
1, 19076, Note_on_c, 9, 28, 42
1, 19077, Note_on_c, 9, 44, 59
1, 19080, Note_on_c, 1, 32, 0
1, 19083, Note_on_c, 0, 53, 0
1, 19084, Note_on_c, 0, 60, 0
1, 19084, Note_on_c, 1, 33, 64
1, 19093, Control_c, 0, 64, 127
1, 19132, Note_on_c, 9, 44, 0
1, 19147, Note_on_c, 9, 25, 32
1, 19155, Control_c, 0, 64, 0
1, 19159, Note_on_c, 0, 45, 0
1, 19162, Note_on_c, 0, 58, 50
1, 19163, Note_on_c, 0, 53, 55
1, 19164, Note_on_c, 0, 46, 45
1, 19165, Note_on_c, 0, 62, 47
1, 19166, Note_on_c, 9, 28, 0
1, 19175, Note_on_c, 9, 25, 0
1, 19179, Note_on_c, 0, 53, 0
1, 19194, Control_c, 0, 64, 127
1, 19195, Note_on_c, 0, 62, 0
1, 19196, Note_on_c, 9, 28, 46
1, 19197, Note_on_c, 0, 58, 0
1, 19202, Note_on_c, 1, 33, 0
1, 19203, Note_on_c, 1, 34, 60
1, 19283, Note_on_c, 9, 28, 0
1, 19309, Note_on_c, 1, 34, 0
1, 19316, Note_on_c, 9, 28, 33
1, 19317, Note_on_c, 0, 46, 0
1, 19317, Note_on_c, 9, 44, 59
1, 19320, Note_on_c, 1, 34, 67
1, 19372, Note_on_c, 9, 44, 0
1, 19393, Note_on_c, 9, 28, 0
1, 19401, Note_on_c, 9, 25, 32
1, 19408, Note_on_c, 0, 74, 75
1, 19409, Note_on_c, 0, 62, 67
1, 19410, Note_on_c, 0, 65, 84
1, 19410, Note_on_c, 0, 68, 73
1, 19411, Note_on_c, 0, 71, 60
1, 19413, Note_on_c, 9, 25, 0
1, 19415, Note_on_c, 0, 72, 54
1, 19420, Note_on_c, 0, 62, 0
1, 19422, Note_on_c, 0, 71, 0
1, 19424, Note_on_c, 0, 72, 0
1, 19428, Note_on_c, 0, 65, 0
1, 19430, Note_on_c, 0, 74, 0
1, 19432, Note_on_c, 1, 34, 0
1, 19435, Note_on_c, 0, 68, 0
1, 19436, Note_on_c, 9, 28, 39
1, 19437, Note_on_c, 1, 35, 50
1, 19438, Control_c, 0, 64, 0
1, 19476, Note_on_c, 0, 71, 51
1, 19476, Note_on_c, 0, 62, 58
1, 19476, Note_on_c, 0, 59, 47
1, 19482, Note_on_c, 0, 65, 52
1, 19513, Note_on_c, 9, 33, 50
1, 19522, Note_on_c, 9, 28, 0
1, 19522, Control_c, 0, 64, 127
1, 19526, Note_on_c, 9, 33, 0
1, 19532, Note_on_c, 0, 65, 0
1, 19537, Control_c, 0, 64, 0
1, 19539, Note_on_c, 0, 62, 0
1, 19546, Note_on_c, 1, 35, 0
1, 19554, Note_on_c, 0, 71, 0
1, 19556, Note_on_c, 9, 28, 32
1, 19557, Note_on_c, 0, 59, 0
1, 19557, Note_on_c, 9, 44, 53
1, 19558, Note_on_c, 1, 35, 68
1, 19566, Note_on_c, 0, 68, 42
1, 19566, Note_on_c, 0, 56, 46
1, 19568, Control_c, 0, 64, 127
1, 19569, Note_on_c, 0, 62, 33
1, 19588, Note_on_c, 0, 62, 0
1, 19596, Note_on_c, 0, 68, 0
1, 19608, Note_on_c, 9, 44, 0
1, 19637, Note_on_c, 9, 25, 38
1, 19643, Note_on_c, 9, 28, 0
1, 19647, Note_on_c, 9, 25, 0
1, 19648, Note_on_c, 0, 62, 53
1, 19649, Note_on_c, 0, 67, 59
1, 19650, Note_on_c, 0, 72, 52
1, 19654, Control_c, 0, 64, 0
1, 19655, Note_on_c, 0, 57, 44
1, 19656, Note_on_c, 0, 56, 0
1, 19676, Note_on_c, 9, 28, 37
1, 19678, Note_on_c, 1, 36, 68
1, 19679, Note_on_c, 1, 35, 0
1, 19686, Control_c, 0, 64, 127
1, 19715, Note_on_c, 0, 62, 0
1, 19716, Note_on_c, 0, 72, 0
1, 19735, Note_on_c, 0, 67, 0
1, 19761, Note_on_c, 9, 28, 0
1, 19764, Note_on_c, 0, 74, 85
1, 19765, Note_on_c, 9, 35, 47
1, 19772, Note_on_c, 1, 34, 31
1, 19777, Note_on_c, 0, 57, 0
1, 19780, Note_on_c, 9, 35, 0
1, 19789, Note_on_c, 1, 36, 0
1, 19789, Note_on_c, 1, 34, 0
1, 19796, Note_on_c, 9, 28, 36
1, 19797, Note_on_c, 9, 44, 62
1, 19800, Note_on_c, 0, 74, 0
1, 19802, Note_on_c, 1, 42, 71
1, 19803, Control_c, 0, 64, 0
1, 19820, Note_on_c, 0, 72, 32
1, 19855, Note_on_c, 9, 44, 0
1, 19869, Note_on_c, 0, 72, 0
1, 19878, Control_c, 0, 64, 127
1, 19882, Note_on_c, 9, 25, 31
1, 19883, Note_on_c, 9, 28, 0
1, 19883, Note_on_c, 1, 36, 40
1, 19884, Note_on_c, 0, 74, 64
1, 19890, Note_on_c, 0, 67, 40
1, 19891, Note_on_c, 0, 63, 37
1, 19891, Note_on_c, 0, 57, 42
1, 19893, Note_on_c, 9, 25, 0
1, 19895, Note_on_c, 1, 36, 0
1, 19902, Note_on_c, 0, 67, 0
1, 19905, Note_on_c, 0, 74, 0
1, 19911, Control_c, 0, 64, 0
1, 19912, Note_on_c, 0, 57, 0
1, 19916, Note_on_c, 1, 42, 0
1, 19916, Note_on_c, 9, 28, 38
1, 19918, Note_on_c, 1, 41, 42
1, 19925, Note_on_c, 0, 63, 0
1, 19933, Note_on_c, 0, 77, 68
1, 20002, Note_on_c, 1, 36, 50
1, 20007, Note_on_c, 9, 28, 0
1, 20010, Note_on_c, 1, 36, 0
1, 20014, Note_on_c, 0, 77, 0
1, 20017, Note_on_c, 0, 63, 32
1, 20018, Note_on_c, 0, 61, 31
1, 20028, Note_on_c, 0, 63, 0
1, 20036, Note_on_c, 9, 28, 43
1, 20037, Note_on_c, 9, 44, 43
1, 20038, Note_on_c, 0, 72, 47
1, 20039, Note_on_c, 1, 41, 0
1, 20040, Note_on_c, 1, 47, 57
1, 20045, Note_on_c, 0, 57, 6
1, 20045, Note_on_c, 0, 63, 27
1, 20046, Note_on_c, 0, 66, 34
1, 20048, Note_on_c, 0, 73, 49
1, 20048, Note_on_c, 9, 46, 23
1, 20055, Note_on_c, 9, 46, 0
1, 20063, Note_on_c, 0, 73, 0
1, 20071, Note_on_c, 0, 72, 0
1, 20082, Note_on_c, 9, 44, 0
1, 20084, Note_on_c, 0, 74, 30
1, 20097, Note_on_c, 0, 57, 0
1, 20106, Note_on_c, 9, 28, 0
1, 20114, Note_on_c, 0, 66, 0
1, 20116, Note_on_c, 9, 28, 38
1, 20116, Note_on_c, 9, 35, 31
1, 20117, Note_on_c, 1, 36, 54
1, 20121, Note_on_c, 0, 74, 0
1, 20124, Note_on_c, 9, 35, 0
1, 20124, Note_on_c, 1, 36, 0
1, 20127, Note_on_c, 0, 63, 0
1, 20133, Note_on_c, 0, 61, 0
1, 20133, Note_on_c, 0, 77, 75
1, 20144, Note_on_c, 0, 65, 27
1, 20146, Note_on_c, 0, 62, 35
1, 20147, Note_on_c, 9, 28, 0
1, 20154, Note_on_c, 1, 47, 0
1, 20156, Note_on_c, 0, 60, 34
1, 20156, Note_on_c, 9, 28, 49
1, 20157, Note_on_c, 1, 34, 56
1, 20161, Note_on_c, 0, 65, 0
1, 20169, Note_on_c, 0, 60, 0
1, 20173, Note_on_c, 0, 70, 36
1, 20174, Note_on_c, 0, 62, 0
1, 20196, Note_on_c, 0, 77, 0
1, 20243, Note_on_c, 1, 38, 19
1, 20245, Note_on_c, 0, 70, 0
1, 20255, Note_on_c, 1, 38, 0
1, 20255, Note_on_c, 0, 65, 59
1, 20256, Note_on_c, 9, 28, 0
1, 20262, Note_on_c, 0, 60, 34
1, 20266, Note_on_c, 0, 65, 0
1, 20271, Note_on_c, 0, 60, 0
1, 20276, Note_on_c, 1, 46, 51
1, 20276, Note_on_c, 9, 28, 38
1, 20277, Note_on_c, 9, 44, 51
1, 20279, Note_on_c, 1, 34, 0
1, 20286, Note_on_c, 0, 67, 65
1, 20335, Note_on_c, 9, 44, 0
1, 20366, Note_on_c, 1, 38, 22
1, 20378, Note_on_c, 9, 28, 0
1, 20379, Note_on_c, 1, 38, 0
1, 20390, Note_on_c, 1, 46, 0
1, 20390, Note_on_c, 0, 67, 0
1, 20393, Note_on_c, 0, 56, 29
1, 20396, Note_on_c, 9, 28, 35
1, 20398, Note_on_c, 0, 62, 28
1, 20399, Note_on_c, 1, 47, 46
1, 20401, Note_on_c, 0, 59, 39
1, 20403, Note_on_c, 0, 68, 39
1, 20408, Note_on_c, 0, 53, 25
1, 20451, Note_on_c, 0, 62, 0
1, 20452, Note_on_c, 0, 59, 0
1, 20458, Note_on_c, 1, 47, 0
1, 20473, Note_on_c, 0, 53, 0
1, 20474, Note_on_c, 0, 56, 0
1, 20475, Note_on_c, 1, 41, 53
1, 20480, Note_on_c, 9, 25, 36
1, 20487, Note_on_c, 9, 25, 0
1, 20496, Note_on_c, 1, 41, 0
1, 20501, Note_on_c, 9, 28, 0
1, 20502, Note_on_c, 0, 68, 0
1, 20512, Note_on_c, 1, 35, 56
1, 20516, Note_on_c, 9, 28, 40
1, 20517, Note_on_c, 9, 44, 48
1, 20519, Note_on_c, 0, 62, 48
1, 20523, Note_on_c, 9, 25, 30
1, 20530, Note_on_c, 9, 25, 0
1, 20578, Note_on_c, 9, 44, 0
1, 20580, Control_c, 0, 64, 127
1, 20597, Note_on_c, 9, 25, 44
1, 20610, Note_on_c, 9, 25, 0
1, 20620, Control_c, 0, 64, 0
1, 20621, Note_on_c, 0, 62, 0
1, 20623, Note_on_c, 9, 28, 0
1, 20628, Note_on_c, 1, 35, 0
1, 20636, Note_on_c, 1, 36, 54
1, 20636, Note_on_c, 9, 28, 42
1, 20643, Note_on_c, 0, 65, 50
1, 20701, Note_on_c, 0, 65, 0
1, 20718, Note_on_c, 9, 35, 29
1, 20722, Note_on_c, 0, 63, 58
1, 20726, Note_on_c, 9, 35, 0
1, 20728, Note_on_c, 0, 57, 43
1, 20732, Note_on_c, 0, 63, 0
1, 20739, Note_on_c, 0, 57, 0
1, 20741, Note_on_c, 9, 28, 0
1, 20754, Note_on_c, 1, 45, 50
1, 20755, Note_on_c, 1, 36, 0
1, 20756, Note_on_c, 9, 28, 44
1, 20757, Note_on_c, 9, 44, 59
1, 20765, Note_on_c, 9, 35, 46
1, 20820, Note_on_c, 9, 44, 0
1, 20825, Note_on_c, 9, 35, 0
1, 20838, Note_on_c, 1, 36, 40
1, 20840, Note_on_c, 9, 35, 53
1, 20841, Note_on_c, 0, 62, 74
1, 20844, Note_on_c, 0, 65, 71
1, 20844, Note_on_c, 0, 60, 68
1, 20852, Note_on_c, 1, 36, 0
1, 20853, Note_on_c, 0, 65, 0
1, 20853, Note_on_c, 0, 60, 0
1, 20855, Note_on_c, 9, 35, 0
1, 20856, Note_on_c, 9, 28, 0
1, 20862, Note_on_c, 0, 62, 0
1, 20865, Note_on_c, 1, 45, 0
1, 20874, Note_on_c, 1, 41, 48
1, 20876, Note_on_c, 9, 28, 40
1, 20913, Note_on_c, 9, 25, 38
1, 20925, Note_on_c, 9, 25, 0
1, 20959, Note_on_c, 1, 36, 32
1, 20967, Note_on_c, 0, 56, 80
1, 20967, Note_on_c, 0, 66, 90
1, 20969, Note_on_c, 1, 36, 0
1, 20972, Note_on_c, 1, 41, 0
1, 20975, Note_on_c, 0, 62, 43
1, 20976, Note_on_c, 9, 28, 0
1, 20981, Note_on_c, 0, 66, 0
1, 20983, Note_on_c, 0, 56, 0
1, 20986, Note_on_c, 0, 62, 0
1, 20992, Note_on_c, 1, 41, 54
1, 20992, Note_on_c, 9, 25, 45
1, 20996, Note_on_c, 9, 28, 38
1, 20997, Note_on_c, 9, 44, 47
1, 21008, Note_on_c, 9, 25, 0
1, 21053, Note_on_c, 9, 44, 0
1, 21068, Note_on_c, 1, 41, 0
1, 21075, Note_on_c, 1, 35, 66
1, 21075, Note_on_c, 9, 25, 37
1, 21078, Note_on_c, 0, 60, 60
1, 21078, Note_on_c, 0, 62, 62
1, 21080, Note_on_c, 0, 65, 71
1, 21081, Note_on_c, 0, 55, 65
1, 21096, Note_on_c, 9, 28, 0
1, 21097, Note_on_c, 9, 25, 0
1, 21109, Note_on_c, 1, 35, 0
1, 21115, Note_on_c, 1, 34, 47
1, 21116, Note_on_c, 9, 28, 44
1, 21203, Note_on_c, 0, 77, 95
1, 21212, Note_on_c, 9, 28, 0
1, 21224, Note_on_c, 0, 65, 0
1, 21228, Note_on_c, 0, 62, 0
1, 21231, Note_on_c, 0, 60, 0
1, 21232, Note_on_c, 1, 41, 54
1, 21236, Note_on_c, 9, 28, 38
1, 21237, Note_on_c, 9, 44, 52
1, 21247, Control_c, 0, 64, 127
1, 21248, Note_on_c, 0, 74, 45
1, 21250, Note_on_c, 1, 34, 0
1, 21252, Note_on_c, 0, 55, 0
1, 21272, Note_on_c, 9, 44, 0
1, 21280, Note_on_c, 0, 77, 0
1, 21289, Note_on_c, 0, 74, 0
1, 21319, Note_on_c, 0, 56, 30
1, 21333, Note_on_c, 9, 28, 0
1, 21335, Note_on_c, 1, 41, 0
1, 21341, Note_on_c, 0, 56, 0
1, 21343, Control_c, 0, 64, 0
1, 21354, Note_on_c, 0, 74, 59
1, 21355, Note_on_c, 1, 35, 47
1, 21356, Note_on_c, 9, 28, 36
1, 21357, Note_on_c, 0, 59, 50
1, 21358, Note_on_c, 0, 68, 50
1, 21359, Note_on_c, 0, 65, 51
1, 21362, Note_on_c, 0, 71, 43
1, 21369, Note_on_c, 0, 72, 30
1, 21372, Note_on_c, 0, 71, 0
1, 21380, Note_on_c, 0, 72, 0
1, 21383, Note_on_c, 0, 74, 0
1, 21388, Note_on_c, 0, 68, 0
1, 21396, Note_on_c, 0, 65, 0
1, 21422, Note_on_c, 0, 59, 0
1, 21436, Note_on_c, 0, 71, 59
1, 21439, Note_on_c, 0, 56, 47
1, 21440, Note_on_c, 0, 62, 44
1, 21446, Note_on_c, 1, 34, 25
1, 21452, Note_on_c, 0, 65, 27
1, 21456, Note_on_c, 9, 28, 0
1, 21457, Note_on_c, 0, 62, 0
1, 21465, Note_on_c, 0, 68, 7
1, 21469, Note_on_c, 0, 65, 0
1, 21472, Note_on_c, 0, 56, 0
1, 21473, Note_on_c, 0, 71, 0
1, 21474, Note_on_c, 1, 35, 0
1, 21476, Note_on_c, 9, 28, 36
1, 21477, Note_on_c, 9, 44, 51
1, 21478, Note_on_c, 1, 47, 48
1, 21481, Note_on_c, 1, 34, 0
1, 21483, Note_on_c, 0, 68, 0
1, 21493, Control_c, 0, 64, 127
1, 21496, Note_on_c, 0, 53, 36
1, 21507, Note_on_c, 9, 44, 0
1, 21563, Note_on_c, 0, 53, 0
1, 21563, Control_c, 0, 64, 0
1, 21564, Note_on_c, 0, 72, 45
1, 21564, Note_on_c, 0, 62, 55
1, 21566, Note_on_c, 0, 57, 51
1, 21566, Note_on_c, 0, 67, 57
1, 21573, Note_on_c, 9, 28, 0
1, 21590, Note_on_c, 1, 47, 0
1, 21596, Note_on_c, 9, 28, 30
1, 21599, Note_on_c, 1, 48, 54
1, 21606, Control_c, 0, 64, 127
1, 21676, Note_on_c, 9, 35, 30
1, 21688, Note_on_c, 9, 35, 0
1, 21697, Note_on_c, 0, 62, 0
1, 21699, Note_on_c, 9, 28, 0
1, 21699, Note_on_c, 0, 57, 0
1, 21701, Note_on_c, 1, 48, 0
1, 21715, Note_on_c, 0, 67, 0
1, 21716, Note_on_c, 9, 28, 51
1, 21717, Note_on_c, 9, 35, 33
1, 21717, Note_on_c, 9, 44, 50
1, 21720, Note_on_c, 1, 42, 42
1, 21725, Note_on_c, 0, 72, 0
1, 21730, Note_on_c, 9, 35, 0
1, 21747, Note_on_c, 9, 44, 0
1, 21794, Note_on_c, 1, 39, 28
1, 21804, Note_on_c, 1, 39, 0
1, 21818, Note_on_c, 9, 28, 0
1, 21826, Note_on_c, 1, 42, 0
1, 21836, Note_on_c, 9, 28, 36
1, 21838, Control_c, 0, 64, 0
1, 21838, Note_on_c, 1, 41, 38
1, 21841, Note_on_c, 0, 61, 60
1, 21842, Note_on_c, 0, 77, 74
1, 21845, Note_on_c, 0, 72, 64
1, 21846, Note_on_c, 0, 69, 66
1, 21847, Note_on_c, 0, 74, 60
1, 21859, Note_on_c, 0, 74, 0
1, 21867, Note_on_c, 0, 69, 0
1, 21869, Note_on_c, 0, 72, 0
1, 21876, Note_on_c, 0, 77, 0
1, 21890, Note_on_c, 0, 61, 0
1, 21919, Note_on_c, 1, 36, 53
1, 21921, Note_on_c, 9, 35, 24
1, 21932, Note_on_c, 9, 35, 0
1, 21936, Note_on_c, 1, 36, 0
1, 21941, Note_on_c, 9, 28, 0
1, 21956, Note_on_c, 9, 28, 49
1, 21957, Note_on_c, 9, 44, 47
1, 21960, Note_on_c, 0, 60, 60
1, 21961, Note_on_c, 1, 34, 53
1, 21963, Note_on_c, 0, 72, 50
1, 21966, Note_on_c, 0, 67, 37
1, 21971, Note_on_c, 0, 69, 40
1, 21974, Control_c, 0, 64, 127
1, 21989, Note_on_c, 0, 60, 0
1, 21996, Note_on_c, 1, 41, 0
1, 22000, Note_on_c, 9, 44, 0
1, 22012, Note_on_c, 0, 67, 0
1, 22017, Note_on_c, 0, 69, 0
1, 22029, Note_on_c, 0, 72, 0
1, 22061, Note_on_c, 9, 28, 0
1, 22075, Control_c, 0, 64, 0
1, 22076, Note_on_c, 9, 28, 40
1, 22077, Note_on_c, 0, 61, 18
1, 22078, Note_on_c, 1, 34, 0
1, 22078, Note_on_c, 0, 65, 64
1, 22080, Note_on_c, 1, 33, 45
1, 22081, Note_on_c, 0, 60, 50
1, 22083, Note_on_c, 9, 35, 40
1, 22084, Note_on_c, 0, 55, 42
1, 22084, Note_on_c, 0, 72, 66
1, 22085, Note_on_c, 9, 46, 25
1, 22095, Note_on_c, 9, 46, 0
1, 22096, Note_on_c, 9, 35, 0
1, 22158, Note_on_c, 0, 65, 0
1, 22159, Note_on_c, 1, 34, 20
1, 22179, Note_on_c, 0, 72, 0
1, 22181, Note_on_c, 9, 28, 0
1, 22196, Note_on_c, 9, 28, 35
1, 22197, Note_on_c, 9, 44, 57
1, 22203, Note_on_c, 1, 49, 33
1, 22213, Note_on_c, 1, 34, 0
1, 22225, Note_on_c, 1, 33, 0
1, 22227, Control_c, 0, 64, 127
1, 22230, Note_on_c, 0, 69, 3
1, 22233, Note_on_c, 0, 58, 1
1, 22237, Note_on_c, 9, 44, 0
1, 22243, Note_on_c, 0, 60, 0
1, 22243, Note_on_c, 0, 61, 0
1, 22245, Note_on_c, 0, 55, 0
1, 22264, Note_on_c, 0, 58, 0
1, 22277, Note_on_c, 9, 35, 37
1, 22289, Note_on_c, 9, 35, 0
1, 22289, Note_on_c, 1, 37, 28
1, 22293, Note_on_c, 1, 49, 0
1, 22293, Note_on_c, 0, 66, 67
1, 22293, Note_on_c, 0, 64, 47
1, 22297, Note_on_c, 0, 60, 44
1, 22297, Note_on_c, 0, 54, 37
1, 22298, Note_on_c, 9, 28, 0
1, 22302, Note_on_c, 0, 69, 0
1, 22310, Control_c, 0, 64, 0
1, 22313, Note_on_c, 1, 37, 0
1, 22316, Note_on_c, 9, 28, 33
1, 22320, Note_on_c, 9, 35, 34
1, 22322, Note_on_c, 1, 38, 87
1, 22327, Note_on_c, 0, 64, 0
1, 22335, Note_on_c, 9, 35, 0
1, 22344, Note_on_c, 0, 66, 0
1, 22357, Note_on_c, 0, 60, 0
1, 22373, Note_on_c, 0, 66, 61
1, 22396, Note_on_c, 9, 28, 30
1, 22397, Note_on_c, 9, 28, 0
1, 22404, Note_on_c, 0, 60, 32
1, 22419, Note_on_c, 0, 60, 0
1, 22424, Note_on_c, 0, 66, 0
1, 22432, Note_on_c, 9, 28, 0
1, 22436, Note_on_c, 9, 28, 37
1, 22437, Note_on_c, 9, 44, 63
1, 22447, Control_c, 0, 64, 127
1, 22448, Note_on_c, 0, 62, 47
1, 22473, Note_on_c, 0, 54, 0
1, 22482, Note_on_c, 1, 33, 65
1, 22486, Note_on_c, 1, 38, 0
1, 22488, Note_on_c, 9, 44, 0
1, 22498, Note_on_c, 1, 33, 0
1, 22502, Note_on_c, 0, 62, 0
1, 22515, Note_on_c, 9, 35, 42
1, 22516, Note_on_c, 0, 58, 32
1, 22517, Note_on_c, 0, 65, 65
1, 22520, Note_on_c, 1, 32, 64
1, 22524, Note_on_c, 0, 57, 29
1, 22525, Note_on_c, 9, 35, 0
1, 22525, Note_on_c, 0, 53, 32
1, 22532, Control_c, 0, 64, 0
1, 22548, Note_on_c, 9, 28, 0
1, 22553, Note_on_c, 1, 32, 0
1, 22556, Note_on_c, 9, 28, 48
1, 22561, Note_on_c, 1, 31, 57
1, 22589, Control_c, 0, 64, 127
1, 22596, Note_on_c, 0, 58, 0
1, 22596, Note_on_c, 0, 57, 0
1, 22639, Control_c, 0, 64, 0
1, 22642, Note_on_c, 1, 43, 78
1, 22647, Note_on_c, 1, 31, 0
1, 22652, Note_on_c, 0, 55, 32
1, 22657, Note_on_c, 9, 28, 0
1, 22661, Note_on_c, 0, 53, 0
1, 22663, Note_on_c, 0, 55, 0
1, 22666, Note_on_c, 1, 43, 0
1, 22667, Note_on_c, 0, 65, 0
1, 22670, Note_on_c, 0, 63, 32
1, 22676, Note_on_c, 9, 28, 39
1, 22677, Note_on_c, 9, 44, 53
1, 22679, Control_c, 0, 64, 127
1, 22680, Note_on_c, 0, 63, 0
1, 22683, Note_on_c, 1, 35, 66
1, 22684, Note_on_c, 0, 62, 24
1, 22707, Note_on_c, 0, 62, 0
1, 22723, Note_on_c, 9, 44, 0
1, 22755, Note_on_c, 0, 55, 40
1, 22758, Note_on_c, 0, 58, 48
1, 22758, Note_on_c, 0, 65, 62
1, 22758, Note_on_c, 9, 27, 36
1, 22761, Note_on_c, 0, 61, 49
1, 22765, Note_on_c, 0, 55, 0
1, 22766, Note_on_c, 0, 48, 37
1, 22766, Note_on_c, 0, 57, 54
1, 22773, Note_on_c, 9, 28, 0
1, 22773, Control_c, 0, 64, 0
1, 22776, Note_on_c, 9, 27, 0
1, 22796, Note_on_c, 9, 28, 39
1, 22819, Control_c, 0, 64, 127
1, 22841, Note_on_c, 0, 61, 0
1, 22869, Note_on_c, 0, 58, 0
1, 22874, Note_on_c, 1, 35, 0
1, 22874, Note_on_c, 0, 65, 0
1, 22879, Note_on_c, 1, 43, 47
1, 22883, Note_on_c, 0, 48, 0
1, 22885, Note_on_c, 9, 27, 34
1, 22893, Note_on_c, 9, 28, 0
1, 22893, Note_on_c, 1, 43, 0
1, 22901, Note_on_c, 9, 27, 0
1, 22904, Note_on_c, 0, 57, 0
1, 22909, Control_c, 0, 64, 0
1, 22916, Note_on_c, 9, 28, 47
1, 22917, Note_on_c, 9, 44, 60
1, 22920, Note_on_c, 1, 36, 62
1, 22924, Note_on_c, 0, 58, 50
1, 22925, Note_on_c, 0, 68, 51
1, 22926, Note_on_c, 0, 56, 37
1, 22930, Note_on_c, 0, 63, 42
1, 22937, Control_c, 0, 64, 127
1, 22946, Note_on_c, 0, 58, 0
1, 22948, Note_on_c, 0, 63, 0
1, 22950, Note_on_c, 0, 68, 0
1, 22957, Note_on_c, 9, 44, 0
1, 22965, Note_on_c, 9, 27, 48
1, 22972, Note_on_c, 9, 27, 0
1, 22978, Note_on_c, 9, 28, 0
1, 22996, Note_on_c, 9, 28, 28
1, 23002, Note_on_c, 0, 56, 0
1, 23007, Note_on_c, 1, 46, 64
1, 23008, Note_on_c, 0, 61, 69
1, 23008, Note_on_c, 0, 72, 70
1, 23008, Note_on_c, 9, 35, 34
1, 23009, Note_on_c, 0, 65, 75
1, 23011, Note_on_c, 0, 69, 67
1, 23011, Note_on_c, 0, 57, 68
1, 23011, Control_c, 0, 64, 0
1, 23016, Note_on_c, 9, 28, 0
1, 23018, Note_on_c, 9, 35, 0
1, 23026, Note_on_c, 1, 36, 0
1, 23036, Note_on_c, 9, 28, 40
1, 23046, Note_on_c, 1, 46, 0
1, 23053, Note_on_c, 1, 45, 45
1, 23056, Control_c, 0, 64, 127
1, 23114, Note_on_c, 0, 65, 0
1, 23116, Note_on_c, 0, 57, 0
1, 23121, Note_on_c, 0, 61, 0
1, 23126, Note_on_c, 0, 69, 0
1, 23127, Note_on_c, 0, 72, 0
1, 23132, Note_on_c, 9, 28, 0
1, 23156, Note_on_c, 9, 28, 38
1, 23157, Note_on_c, 9, 44, 56
1, 23165, Control_c, 0, 64, 0
1, 23170, Note_on_c, 0, 54, 63
1, 23171, Note_on_c, 0, 73, 49
1, 23171, Note_on_c, 0, 68, 68
1, 23171, Note_on_c, 0, 60, 67
1, 23172, Note_on_c, 0, 64, 74
1, 23172, Note_on_c, 0, 71, 70
1, 23174, Note_on_c, 0, 74, 75
1, 23195, Note_on_c, 9, 44, 0
1, 23205, Note_on_c, 0, 73, 0
1, 23208, Control_c, 0, 64, 127
1, 23243, Note_on_c, 1, 37, 42
1, 23250, Control_c, 0, 64, 0
1, 23251, Note_on_c, 9, 28, 0
1, 23253, Note_on_c, 1, 45, 0
1, 23276, Note_on_c, 9, 28, 39
1, 23281, Note_on_c, 1, 37, 0
1, 23281, Control_c, 0, 64, 127
1, 23282, Note_on_c, 1, 38, 59
1, 23297, Note_on_c, 0, 64, 0
1, 23310, Note_on_c, 0, 68, 0
1, 23312, Note_on_c, 0, 71, 0
1, 23314, Note_on_c, 0, 74, 0
1, 23335, Note_on_c, 0, 54, 0
1, 23336, Note_on_c, 0, 60, 0
1, 23371, Note_on_c, 9, 28, 0
1, 23371, Note_on_c, 0, 77, 75
1, 23372, Note_on_c, 0, 74, 80
1, 23374, Note_on_c, 0, 70, 80
1, 23375, Note_on_c, 0, 54, 74
1, 23375, Note_on_c, 0, 64, 80
1, 23375, Note_on_c, 0, 60, 74
1, 23381, Control_c, 0, 64, 0
1, 23395, Note_on_c, 9, 28, 38
1, 23397, Note_on_c, 9, 44, 60
1, 23405, Note_on_c, 1, 44, 57
1, 23406, Note_on_c, 1, 38, 0
1, 23422, Control_c, 0, 64, 127
1, 23425, Note_on_c, 9, 44, 0
1, 23448, Note_on_c, 1, 44, 0
1, 23462, Note_on_c, 0, 70, 0
1, 23463, Note_on_c, 0, 74, 0
1, 23472, Note_on_c, 0, 60, 0
1, 23473, Note_on_c, 0, 77, 0
1, 23479, Note_on_c, 1, 43, 59
1, 23486, Note_on_c, 9, 28, 0
1, 23486, Note_on_c, 0, 64, 0
1, 23513, Note_on_c, 0, 54, 0
1, 23516, Note_on_c, 9, 28, 45
1, 23543, Control_c, 0, 64, 0
1, 23551, Note_on_c, 9, 46, 25
1, 23552, Note_on_c, 1, 43, 0
1, 23559, Note_on_c, 9, 46, 0
1, 23561, Note_on_c, 1, 38, 62
1, 23591, Note_on_c, 9, 35, 44
1, 23600, Note_on_c, 0, 58, 49
1, 23601, Note_on_c, 0, 69, 69
1, 23602, Note_on_c, 0, 62, 59
1, 23603, Note_on_c, 9, 35, 0
1, 23603, Note_on_c, 0, 72, 65
1, 23604, Note_on_c, 0, 57, 44
1, 23606, Note_on_c, 0, 53, 41
1, 23616, Note_on_c, 9, 28, 0
1, 23636, Note_on_c, 9, 28, 36
1, 23636, Note_on_c, 9, 46, 23
1, 23637, Note_on_c, 9, 44, 62
1, 23639, Note_on_c, 1, 38, 0
1, 23644, Note_on_c, 1, 35, 62
1, 23651, Note_on_c, 9, 46, 0
1, 23652, Control_c, 0, 64, 127
1, 23670, Note_on_c, 9, 44, 0
1, 23690, Note_on_c, 0, 69, 0
1, 23697, Note_on_c, 0, 62, 0
1, 23698, Note_on_c, 0, 72, 0
1, 23702, Note_on_c, 0, 57, 0
1, 23706, Note_on_c, 0, 58, 0
1, 23709, Note_on_c, 0, 53, 0
1, 23718, Note_on_c, 1, 35, 0
1, 23722, Note_on_c, 9, 46, 61
1, 23723, Note_on_c, 1, 36, 83
1, 23731, Note_on_c, 9, 28, 0
1, 23738, Note_on_c, 9, 46, 0
1, 23756, Note_on_c, 9, 28, 43
1, 23758, Control_c, 0, 64, 0
1, 23769, Note_on_c, 0, 68, 46
1, 23769, Note_on_c, 0, 58, 38
1, 23771, Note_on_c, 0, 62, 51
1, 23771, Note_on_c, 0, 64, 43
1, 23773, Note_on_c, 0, 72, 47
1, 23776, Note_on_c, 0, 52, 43
1, 23790, Note_on_c, 0, 52, 0
1, 23792, Note_on_c, 1, 36, 0
1, 23795, Note_on_c, 0, 62, 0
1, 23796, Note_on_c, 0, 64, 0
1, 23796, Note_on_c, 0, 72, 0
1, 23800, Note_on_c, 0, 68, 0
1, 23802, Note_on_c, 1, 35, 69
1, 23807, Note_on_c, 0, 58, 0
1, 23812, Note_on_c, 9, 46, 55
1, 23827, Note_on_c, 9, 46, 0
1, 23857, Note_on_c, 9, 28, 0
1, 23858, Note_on_c, 9, 35, 36
1, 23863, Note_on_c, 1, 35, 0
1, 23868, Note_on_c, 9, 35, 0
1, 23876, Note_on_c, 9, 28, 35
1, 23877, Note_on_c, 9, 46, 53
1, 23880, Note_on_c, 1, 34, 65
1, 23883, Note_on_c, 0, 58, 38
1, 23884, Note_on_c, 0, 68, 38
1, 23889, Control_c, 0, 64, 127
1, 23889, Note_on_c, 0, 63, 34
1, 23891, Note_on_c, 0, 52, 47
1, 23891, Note_on_c, 0, 60, 24
1, 23898, Note_on_c, 9, 35, 46
1, 23903, Note_on_c, 9, 46, 0
1, 23906, Note_on_c, 9, 35, 0
1, 23925, Note_on_c, 0, 58, 0
1, 23935, Note_on_c, 0, 60, 0
1, 23936, Note_on_c, 9, 28, 0
1, 23939, Note_on_c, 0, 63, 0
1, 23946, Note_on_c, 0, 68, 0
1, 23952, Note_on_c, 1, 34, 0
1, 23956, Note_on_c, 9, 28, 47
1, 23961, Note_on_c, 1, 33, 65
1, 23967, Note_on_c, 9, 35, 41
1, 23972, Note_on_c, 0, 52, 0
1, 23980, Note_on_c, 9, 35, 0
1, 23985, Control_c, 0, 64, 0
1, 23987, Note_on_c, 9, 28, 0
1, 23996, Note_on_c, 9, 28, 50
1, 24005, Note_on_c, 0, 57, 42
1, 24005, Note_on_c, 0, 64, 36
1, 24008, Note_on_c, 0, 69, 38
1, 24008, Note_on_c, 0, 60, 24
1, 24041, Note_on_c, 0, 60, 0
1, 24043, Note_on_c, 1, 42, 62
1, 24045, Note_on_c, 1, 33, 0
1, 24049, Note_on_c, 0, 64, 0
1, 24049, Note_on_c, 0, 57, 0
1, 24056, Note_on_c, 0, 69, 0
1, 24072, Note_on_c, 1, 42, 0
1, 24078, Note_on_c, 1, 33, 58
1, 24097, Note_on_c, 9, 28, 0
1, 24115, Note_on_c, 1, 33, 0
1, 24116, Note_on_c, 9, 28, 44
1, 24117, Note_on_c, 9, 44, 55
1, 24123, Note_on_c, 1, 41, 73
1, 24127, Control_c, 0, 64, 127
1, 24155, Note_on_c, 9, 44, 0
1, 24163, Note_on_c, 0, 63, 13
1, 24171, Note_on_c, 0, 63, 0
1, 24213, Note_on_c, 9, 28, 0
1, 24231, Control_c, 0, 64, 0
1, 24233, Note_on_c, 1, 41, 0
1, 24236, Note_on_c, 9, 28, 38
1, 24240, Note_on_c, 0, 67, 50
1, 24242, Note_on_c, 0, 63, 32
1, 24242, Note_on_c, 1, 35, 66
1, 24243, Note_on_c, 0, 58, 36
1, 24243, Note_on_c, 9, 35, 33
1, 24245, Note_on_c, 0, 89, 69
1, 24246, Note_on_c, 0, 62, 32
1, 24249, Note_on_c, 0, 77, 53
1, 24253, Note_on_c, 9, 35, 0
1, 24253, Note_on_c, 0, 84, 44
1, 24260, Note_on_c, 0, 62, 0
1, 24266, Note_on_c, 0, 84, 0
1, 24270, Note_on_c, 0, 77, 0
1, 24271, Note_on_c, 0, 67, 0
1, 24281, Note_on_c, 0, 89, 0
1, 24289, Note_on_c, 0, 63, 0
1, 24296, Note_on_c, 0, 58, 0
1, 24310, Note_on_c, 9, 27, 40
1, 24322, Note_on_c, 9, 27, 0
1, 24331, Note_on_c, 9, 28, 0
1, 24356, Note_on_c, 9, 28, 41
1, 24357, Note_on_c, 9, 44, 50
1, 24359, Control_c, 0, 64, 127
1, 24361, Note_on_c, 0, 63, 38
1, 24361, Note_on_c, 0, 93, 55
1, 24361, Note_on_c, 0, 66, 49
1, 24364, Note_on_c, 0, 61, 36
1, 24364, Note_on_c, 0, 81, 44
1, 24365, Note_on_c, 0, 57, 40
1, 24365, Note_on_c, 0, 88, 44
1, 24366, Note_on_c, 1, 47, 81
1, 24386, Note_on_c, 0, 81, 0
1, 24388, Note_on_c, 1, 35, 0
1, 24394, Note_on_c, 0, 88, 0
1, 24398, Note_on_c, 0, 93, 0
1, 24400, Note_on_c, 9, 44, 0
1, 24403, Note_on_c, 0, 57, 0
1, 24420, Note_on_c, 0, 66, 0
1, 24430, Note_on_c, 0, 63, 0
1, 24437, Note_on_c, 0, 61, 0
1, 24453, Note_on_c, 9, 28, 0
1, 24467, Note_on_c, 1, 47, 0
1, 24471, Control_c, 0, 64, 0
1, 24476, Note_on_c, 9, 28, 44
1, 24480, Note_on_c, 0, 94, 53
1, 24480, Note_on_c, 1, 46, 62
1, 24481, Note_on_c, 0, 65, 49
1, 24483, Note_on_c, 0, 60, 42
1, 24484, Note_on_c, 0, 62, 34
1, 24485, Note_on_c, 0, 82, 34
1, 24488, Note_on_c, 0, 89, 49
1, 24489, Note_on_c, 0, 55, 45
1, 24516, Control_c, 0, 64, 127
1, 24521, Note_on_c, 9, 27, 36
1, 24529, Note_on_c, 9, 27, 0
1, 24542, Note_on_c, 0, 89, 0
1, 24544, Note_on_c, 0, 94, 0
1, 24560, Note_on_c, 9, 27, 38
1, 24565, Note_on_c, 0, 65, 0
1, 24565, Note_on_c, 0, 82, 0
1, 24568, Note_on_c, 0, 62, 0
1, 24571, Note_on_c, 9, 27, 0
1, 24576, Note_on_c, 9, 28, 0
1, 24578, Note_on_c, 0, 60, 0
1, 24590, Note_on_c, 0, 55, 0
1, 24596, Note_on_c, 9, 28, 40
1, 24597, Note_on_c, 9, 44, 55
1, 24625, Note_on_c, 9, 44, 0
1, 24677, Note_on_c, 9, 35, 34
1, 24687, Note_on_c, 9, 35, 0
1, 24691, Note_on_c, 9, 28, 0
1, 24713, Note_on_c, 0, 52, 54
1, 24715, Note_on_c, 1, 36, 70
1, 24716, Note_on_c, 9, 28, 38
1, 24717, Note_on_c, 1, 46, 0
1, 24721, Note_on_c, 0, 58, 37
1, 24722, Note_on_c, 0, 62, 47
1, 24723, Note_on_c, 0, 65, 51
1, 24724, Note_on_c, 0, 55, 37
1, 24729, Note_on_c, 0, 53, 47
1, 24733, Note_on_c, 0, 52, 0
1, 24733, Control_c, 0, 64, 0
1, 24803, Note_on_c, 0, 55, 0
1, 24804, Note_on_c, 0, 62, 0
1, 24816, Note_on_c, 9, 28, 0
1, 24824, Note_on_c, 0, 58, 0
1, 24827, Note_on_c, 0, 65, 0
1, 24830, Note_on_c, 0, 53, 0
1, 24836, Note_on_c, 9, 28, 43
1, 24837, Note_on_c, 9, 44, 55
1, 24838, Note_on_c, 0, 50, 37
1, 24839, Note_on_c, 0, 62, 32
1, 24839, Note_on_c, 0, 58, 15
1, 24840, Note_on_c, 0, 55, 38
1, 24871, Note_on_c, 0, 55, 0
1, 24872, Note_on_c, 9, 44, 0
1, 24875, Control_c, 0, 64, 127
1, 24881, Note_on_c, 0, 58, 0
1, 24900, Note_on_c, 0, 62, 0
1, 24908, Note_on_c, 1, 36, 0
1, 24912, Note_on_c, 0, 50, 0
1, 24915, Note_on_c, 1, 34, 42
1, 24920, Note_on_c, 0, 57, 58
1, 24920, Note_on_c, 9, 35, 34
1, 24922, Note_on_c, 0, 62, 32
1, 24926, Note_on_c, 0, 60, 48
1, 24926, Control_c, 0, 64, 0
1, 24927, Note_on_c, 0, 52, 51
1, 24928, Note_on_c, 0, 64, 45
1, 24930, Note_on_c, 9, 35, 0
1, 24933, Note_on_c, 9, 28, 0
1, 24934, Note_on_c, 0, 60, 0
1, 24936, Note_on_c, 0, 57, 0
1, 24937, Note_on_c, 0, 52, 0
1, 24938, Note_on_c, 0, 64, 0
1, 24941, Note_on_c, 0, 62, 0
1, 24944, Note_on_c, 1, 34, 0
1, 24956, Note_on_c, 9, 28, 36
1, 24957, Note_on_c, 1, 33, 58
1, 25051, Note_on_c, 9, 28, 0
1, 25073, Note_on_c, 1, 33, 0
1, 25073, Control_c, 0, 64, 127
1, 25076, Note_on_c, 9, 28, 42
1, 25077, Note_on_c, 9, 44, 51
1, 25080, Note_on_c, 1, 39, 46
1, 25100, Note_on_c, 1, 39, 0
1, 25117, Note_on_c, 9, 44, 0
1, 25121, Note_on_c, 1, 37, 34
1, 25140, Note_on_c, 1, 37, 0
1, 25152, Note_on_c, 9, 35, 41
1, 25160, Note_on_c, 9, 35, 0
1, 25161, Note_on_c, 1, 38, 47
1, 25163, Note_on_c, 9, 28, 0
1, 25195, Note_on_c, 0, 74, 70
1, 25196, Note_on_c, 0, 54, 55
1, 25196, Note_on_c, 9, 28, 43
1, 25199, Note_on_c, 0, 64, 51
1, 25200, Note_on_c, 0, 69, 50
1, 25200, Note_on_c, 0, 60, 42
1, 25200, Note_on_c, 0, 66, 44
1, 25201, Control_c, 0, 64, 0
1, 25239, Note_on_c, 1, 45, 78
1, 25256, Note_on_c, 1, 38, 0
1, 25275, Note_on_c, 1, 45, 0
1, 25277, Control_c, 0, 64, 127
1, 25292, Note_on_c, 9, 28, 0
1, 25293, Note_on_c, 1, 38, 51
1, 25300, Note_on_c, 1, 38, 0
1, 25316, Note_on_c, 9, 28, 43
1, 25317, Note_on_c, 9, 44, 50
1, 25322, Note_on_c, 0, 64, 0
1, 25323, Note_on_c, 0, 69, 0
1, 25324, Note_on_c, 0, 60, 0
1, 25324, Note_on_c, 1, 42, 65
1, 25334, Note_on_c, 0, 66, 0
1, 25346, Note_on_c, 0, 74, 0
1, 25360, Note_on_c, 9, 44, 0
1, 25364, Note_on_c, 0, 54, 0
1, 25381, Note_on_c, 9, 28, 0
1, 25395, Note_on_c, 9, 28, 44
1, 25397, Note_on_c, 1, 42, 0
1, 25403, Note_on_c, 1, 43, 71
1, 25427, Note_on_c, 9, 28, 0
1, 25436, Note_on_c, 9, 28, 28
1, 25443, Control_c, 0, 64, 0
1, 25448, Note_on_c, 9, 35, 22
1, 25454, Note_on_c, 9, 35, 0
1, 25516, Note_on_c, 0, 46, 50
1, 25521, Note_on_c, 0, 70, 64
1, 25523, Note_on_c, 9, 28, 0
1, 25546, Note_on_c, 0, 70, 0
1, 25554, Note_on_c, 0, 46, 0
1, 25556, Note_on_c, 9, 28, 42
1, 25557, Note_on_c, 9, 44, 50
1, 25573, Note_on_c, 0, 50, 37
1, 25586, Note_on_c, 0, 50, 0
1, 25602, Note_on_c, 9, 44, 0
1, 25643, Note_on_c, 1, 35, 35
1, 25646, Note_on_c, 0, 77, 58
1, 25648, Note_on_c, 9, 28, 0
1, 25654, Note_on_c, 1, 43, 0
1, 25672, Note_on_c, 1, 35, 0
1, 25672, Note_on_c, 0, 77, 0
1, 25676, Note_on_c, 9, 28, 46
1, 25680, Note_on_c, 1, 36, 60
1, 25692, Note_on_c, 0, 80, 62
1, 25717, Note_on_c, 0, 80, 0
1, 25763, Note_on_c, 9, 35, 36
1, 25766, Note_on_c, 0, 80, 65
1, 25769, Note_on_c, 0, 70, 59
1, 25769, Note_on_c, 0, 58, 53
1, 25771, Note_on_c, 0, 62, 54
1, 25772, Note_on_c, 0, 75, 49
1, 25773, Note_on_c, 9, 28, 0
1, 25774, Note_on_c, 0, 52, 40
1, 25776, Note_on_c, 9, 35, 0
1, 25779, Note_on_c, 0, 62, 0
1, 25781, Note_on_c, 0, 75, 0
1, 25781, Note_on_c, 0, 70, 0
1, 25786, Note_on_c, 0, 52, 0
1, 25788, Note_on_c, 0, 80, 0
1, 25793, Note_on_c, 0, 58, 0
1, 25796, Note_on_c, 9, 28, 40
1, 25797, Note_on_c, 9, 44, 48
1, 25810, Note_on_c, 9, 35, 47
1, 25840, Note_on_c, 9, 44, 0
1, 25848, Note_on_c, 9, 35, 0
1, 25881, Note_on_c, 1, 40, 50
1, 25883, Note_on_c, 9, 35, 55
1, 25891, Note_on_c, 9, 28, 0
1, 25893, Note_on_c, 0, 58, 32
1, 25894, Note_on_c, 0, 60, 43
1, 25896, Note_on_c, 0, 79, 55
1, 25899, Note_on_c, 9, 35, 0
1, 25899, Note_on_c, 0, 69, 40
1, 25903, Note_on_c, 0, 60, 0
1, 25904, Note_on_c, 0, 79, 0
1, 25905, Note_on_c, 1, 40, 0
1, 25905, Note_on_c, 0, 71, 24
1, 25906, Note_on_c, 1, 36, 0
1, 25906, Note_on_c, 0, 58, 0
1, 25910, Note_on_c, 0, 69, 0
1, 25913, Note_on_c, 0, 71, 0
1, 25916, Note_on_c, 9, 28, 51
1, 25922, Note_on_c, 1, 41, 51
1, 25938, Note_on_c, 0, 60, 39
1, 25941, Note_on_c, 0, 77, 55
1, 25942, Note_on_c, 0, 57, 41
1, 25952, Note_on_c, 0, 72, 27
1, 25953, Note_on_c, 0, 53, 30
1, 25956, Note_on_c, 0, 65, 26
1, 25964, Note_on_c, 0, 60, 0
1, 25972, Note_on_c, 0, 53, 0
1, 25974, Note_on_c, 0, 57, 0
1, 25974, Control_c, 0, 64, 127
1, 25981, Note_on_c, 0, 72, 0
1, 25982, Note_on_c, 0, 65, 0
1, 25989, Note_on_c, 0, 77, 0
1, 26012, Note_on_c, 9, 28, 0
1, 26036, Note_on_c, 9, 28, 39
1, 26037, Note_on_c, 9, 44, 49
1, 26044, Note_on_c, 0, 74, 47
1, 26045, Note_on_c, 0, 57, 36
1, 26058, Note_on_c, 0, 57, 0
1, 26067, Note_on_c, 9, 44, 0
1, 26079, Note_on_c, 0, 74, 0
1, 26096, Note_on_c, 9, 28, 0
1, 26116, Note_on_c, 9, 28, 42
1, 26122, Note_on_c, 0, 77, 65
1, 26125, Note_on_c, 0, 72, 64
1, 26126, Note_on_c, 0, 65, 57
1, 26142, Note_on_c, 9, 28, 0
1, 26144, Control_c, 0, 64, 0
1, 26156, Note_on_c, 9, 28, 49
1, 26163, Note_on_c, 1, 38, 57
1, 26164, Note_on_c, 1, 41, 0
1, 26211, Control_c, 0, 64, 127
1, 26252, Note_on_c, 9, 28, 0
1, 26276, Note_on_c, 9, 28, 53
1, 26277, Note_on_c, 9, 44, 47
1, 26317, Note_on_c, 9, 44, 0
1, 26328, Note_on_c, 0, 65, 0
1, 26351, Note_on_c, 0, 77, 0
1, 26354, Note_on_c, 0, 72, 0
1, 26360, Note_on_c, 1, 43, 82
1, 26361, Note_on_c, 9, 35, 57
1, 26371, Note_on_c, 9, 28, 0
1, 26382, Note_on_c, 9, 35, 0
1, 26384, Note_on_c, 1, 38, 0
1, 26396, Note_on_c, 9, 28, 49
1, 26406, Control_c, 0, 64, 0
1, 26409, Note_on_c, 0, 70, 67
1, 26410, Note_on_c, 0, 58, 36
1, 26467, Note_on_c, 0, 70, 0
1, 26480, Note_on_c, 1, 34, 34
1, 26485, Note_on_c, 0, 74, 73
1, 26488, Note_on_c, 0, 62, 48
1, 26491, Note_on_c, 9, 28, 0
1, 26496, Note_on_c, 1, 43, 0
1, 26502, Note_on_c, 1, 34, 0
1, 26502, Note_on_c, 0, 62, 0
1, 26512, Note_on_c, 0, 74, 0
1, 26513, Note_on_c, 0, 58, 0
1, 26515, Note_on_c, 1, 37, 50
1, 26516, Note_on_c, 9, 28, 48
1, 26517, Note_on_c, 9, 44, 40
1, 26525, Control_c, 0, 64, 127
1, 26530, Note_on_c, 0, 77, 51
1, 26535, Note_on_c, 9, 44, 0
1, 26590, Note_on_c, 0, 77, 0
1, 26600, Note_on_c, 1, 34, 36
1, 26603, Note_on_c, 0, 80, 50
1, 26604, Note_on_c, 0, 63, 58
1, 26605, Note_on_c, 0, 75, 47
1, 26606, Note_on_c, 9, 28, 0
1, 26606, Note_on_c, 0, 71, 45
1, 26607, Note_on_c, 0, 56, 35
1, 26609, Note_on_c, 1, 37, 0
1, 26609, Note_on_c, 0, 77, 17
1, 26610, Note_on_c, 0, 59, 40
1, 26615, Control_c, 0, 64, 0
1, 26617, Note_on_c, 0, 71, 0
1, 26619, Note_on_c, 0, 59, 0
1, 26620, Note_on_c, 0, 77, 0
1, 26625, Note_on_c, 0, 63, 0
1, 26628, Note_on_c, 0, 75, 0
1, 26629, Note_on_c, 0, 80, 0
1, 26633, Note_on_c, 1, 34, 0
1, 26635, Note_on_c, 0, 56, 0
1, 26636, Note_on_c, 1, 36, 48
1, 26636, Note_on_c, 9, 28, 41
1, 26721, Note_on_c, 1, 39, 46
1, 26722, Note_on_c, 0, 58, 37
1, 26723, Note_on_c, 0, 74, 64
1, 26723, Note_on_c, 0, 79, 47
1, 26724, Note_on_c, 0, 62, 45
1, 26725, Note_on_c, 0, 52, 51
1, 26731, Note_on_c, 9, 28, 0
1, 26743, Note_on_c, 1, 36, 0
1, 26756, Note_on_c, 1, 39, 0
1, 26756, Note_on_c, 9, 28, 38
1, 26757, Note_on_c, 9, 44, 38
1, 26765, Note_on_c, 1, 40, 44
1, 26765, Note_on_c, 9, 35, 31
1, 26775, Control_c, 0, 64, 127
1, 26777, Note_on_c, 9, 35, 0
1, 26790, Note_on_c, 9, 44, 0
1, 26816, Note_on_c, 9, 28, 0
1, 26818, Note_on_c, 0, 74, 0
1, 26820, Note_on_c, 0, 79, 0
1, 26836, Note_on_c, 9, 28, 43
1, 26843, Note_on_c, 9, 35, 51
1, 26846, Note_on_c, 0, 62, 0
1, 26851, Note_on_c, 9, 35, 0
1, 26852, Note_on_c, 1, 36, 32
1, 26862, Note_on_c, 1, 36, 0
1, 26862, Note_on_c, 9, 28, 0
1, 26862, Note_on_c, 0, 58, 0
1, 26872, Note_on_c, 1, 40, 0
1, 26874, Note_on_c, 0, 52, 0
1, 26876, Note_on_c, 0, 77, 55
1, 26876, Note_on_c, 9, 28, 41
1, 26877, Note_on_c, 0, 69, 55
1, 26880, Note_on_c, 0, 72, 45
1, 26883, Note_on_c, 0, 74, 38
1, 26884, Note_on_c, 1, 41, 62
1, 26886, Control_c, 0, 64, 0
1, 26926, Note_on_c, 0, 77, 0
1, 26927, Note_on_c, 0, 74, 0
1, 26931, Note_on_c, 0, 69, 0
1, 26932, Note_on_c, 0, 72, 0
1, 26957, Note_on_c, 0, 48, 81
1, 26959, Note_on_c, 0, 47, 65
1, 26968, Note_on_c, 0, 47, 0
1, 26971, Note_on_c, 9, 28, 0
1, 26996, Note_on_c, 9, 28, 36
1, 26997, Note_on_c, 9, 44, 46
1, 27034, Note_on_c, 9, 44, 0
1, 27081, Note_on_c, 9, 35, 33
1, 27086, Note_on_c, 9, 28, 0
1, 27091, Note_on_c, 9, 35, 0
1, 27095, Note_on_c, 0, 47, 47
1, 27105, Note_on_c, 0, 47, 0
1, 27116, Note_on_c, 9, 28, 36
1, 27124, Note_on_c, 0, 60, 60
1, 27183, Note_on_c, 0, 60, 0
1, 27195, Note_on_c, 9, 37, 37
1, 27198, Note_on_c, 0, 62, 56
1, 27202, Note_on_c, 9, 37, 0
1, 27203, Note_on_c, 9, 28, 0
1, 27219, Note_on_c, 0, 62, 0
1, 27236, Note_on_c, 9, 28, 42
1, 27237, Note_on_c, 9, 44, 45
1, 27239, Note_on_c, 0, 65, 70
1, 27272, Note_on_c, 9, 44, 0
1, 27280, Note_on_c, 1, 34, 37
1, 27297, Note_on_c, 1, 34, 0
1, 27312, Note_on_c, 0, 65, 0
1, 27314, Note_on_c, 1, 35, 52
1, 27319, Note_on_c, 1, 41, 0
1, 27328, Note_on_c, 9, 28, 0
1, 27342, Note_on_c, 0, 48, 0
1, 27353, Note_on_c, 1, 35, 0
1, 27353, Note_on_c, 0, 65, 53
1, 27354, Note_on_c, 0, 55, 55
1, 27355, Note_on_c, 0, 62, 60
1, 27356, Note_on_c, 9, 28, 42
1, 27357, Note_on_c, 0, 58, 37
1, 27357, Note_on_c, 1, 36, 48
1, 27434, Note_on_c, 0, 47, 74
1, 27434, Note_on_c, 0, 48, 85
1, 27445, Note_on_c, 9, 35, 29
1, 27447, Note_on_c, 9, 28, 0
1, 27453, Note_on_c, 9, 35, 0
1, 27457, Note_on_c, 0, 47, 0
1, 27476, Note_on_c, 9, 28, 42
1, 27477, Note_on_c, 9, 44, 49
1, 27517, Note_on_c, 9, 44, 0
1, 27535, Note_on_c, 0, 58, 0
1, 27548, Note_on_c, 9, 28, 0
1, 27553, Note_on_c, 0, 55, 0
1, 27556, Note_on_c, 9, 28, 41
1, 27562, Note_on_c, 0, 65, 0
1, 27570, Note_on_c, 0, 62, 0
1, 27581, Note_on_c, 9, 28, 0
1, 27595, Note_on_c, 9, 28, 37
1, 27620, Note_on_c, 1, 36, 0
1, 27681, Note_on_c, 1, 39, 48
1, 27686, Note_on_c, 9, 28, 0
1, 27695, Note_on_c, 1, 39, 0
1, 27715, Note_on_c, 1, 40, 29
1, 27716, Note_on_c, 9, 28, 49
1, 27717, Note_on_c, 9, 44, 49
1, 27752, Note_on_c, 0, 48, 0
1, 27757, Note_on_c, 9, 44, 0
1, 27787, Note_on_c, 9, 32, 69
1, 27805, Note_on_c, 9, 32, 0
1, 27815, Note_on_c, 1, 39, 30
1, 27827, Note_on_c, 1, 39, 0
1, 27827, Note_on_c, 1, 40, 0
1, 27836, Note_on_c, 9, 51, 34
1, 27840, Note_on_c, 1, 41, 44
1, 27841, Note_on_c, 9, 28, 0
1, 27845, Note_on_c, 0, 61, 30
1, 27851, Note_on_c, 0, 61, 0
1, 27865, Note_on_c, 9, 35, 39
1, 27873, Note_on_c, 9, 35, 0
1, 27932, Note_on_c, 1, 41, 0
1, 27941, Note_on_c, 9, 51, 0
1, 27941, Note_on_c, 1, 40, 35
1, 27954, Note_on_c, 1, 40, 0
1, 27954, Note_on_c, 0, 73, 96
1, 27956, Note_on_c, 9, 51, 37
1, 27957, Note_on_c, 9, 44, 52
1, 27963, Note_on_c, 1, 46, 48
1, 27988, Note_on_c, 0, 73, 0
1, 28000, Note_on_c, 9, 44, 0
1, 28052, Control_c, 0, 64, 127
1, 28058, Note_on_c, 9, 51, 0
1, 28068, Control_c, 0, 64, 0
1, 28073, Note_on_c, 1, 46, 0
1, 28076, Note_on_c, 9, 51, 56
1, 28077, Note_on_c, 1, 45, 58
1, 28083, Note_on_c, 0, 60, 37
1, 28084, Note_on_c, 0, 71, 73
1, 28084, Note_on_c, 0, 64, 43
1, 28086, Note_on_c, 0, 54, 36
1, 28091, Control_c, 0, 64, 127
1, 28119, Note_on_c, 0, 64, 0
1, 28123, Note_on_c, 0, 54, 0
1, 28129, Note_on_c, 0, 60, 0
1, 28151, Note_on_c, 0, 71, 0
1, 28164, Note_on_c, 0, 60, 34
1, 28164, Note_on_c, 0, 54, 37
1, 28165, Note_on_c, 1, 42, 36
1, 28170, Note_on_c, 1, 45, 0
1, 28170, Note_on_c, 0, 66, 53
1, 28176, Note_on_c, 9, 51, 0
1, 28182, Note_on_c, 0, 54, 0
1, 28183, Note_on_c, 0, 60, 0
1, 28185, Note_on_c, 1, 42, 0
1, 28188, Control_c, 0, 64, 0
1, 28196, Note_on_c, 9, 51, 34
1, 28197, Note_on_c, 9, 44, 56
1, 28200, Note_on_c, 0, 66, 0
1, 28201, Note_on_c, 0, 54, 28
1, 28201, Note_on_c, 0, 60, 31
1, 28204, Note_on_c, 0, 62, 44
1, 28204, Note_on_c, 1, 38, 48
1, 28209, Control_c, 0, 64, 127
1, 28226, Note_on_c, 0, 54, 0
1, 28232, Note_on_c, 9, 44, 0
1, 28233, Note_on_c, 0, 60, 0
1, 28238, Note_on_c, 0, 62, 0
1, 28263, Note_on_c, 9, 51, 0
1, 28275, Note_on_c, 0, 57, 37
1, 28275, Note_on_c, 0, 62, 48
1, 28276, Note_on_c, 0, 69, 74
1, 28276, Note_on_c, 9, 51, 43
1, 28278, Note_on_c, 0, 58, 42
1, 28278, Control_c, 0, 64, 0
1, 28279, Note_on_c, 0, 53, 32
1, 28283, Note_on_c, 9, 35, 28
1, 28295, Note_on_c, 1, 36, 38
1, 28297, Note_on_c, 9, 51, 0
1, 28301, Note_on_c, 9, 35, 0
1, 28302, Note_on_c, 1, 38, 0
1, 28312, Note_on_c, 1, 36, 0
1, 28316, Note_on_c, 9, 51, 38
1, 28320, Note_on_c, 1, 43, 47
1, 28320, Note_on_c, 9, 35, 24
1, 28357, Note_on_c, 0, 62, 0
1, 28360, Note_on_c, 0, 69, 0
1, 28364, Note_on_c, 0, 66, 32
1, 28374, Note_on_c, 0, 66, 0
1, 28377, Note_on_c, 9, 35, 0
1, 28388, Note_on_c, 0, 69, 79
1, 28397, Note_on_c, 1, 43, 0
1, 28402, Note_on_c, 1, 38, 55
1, 28406, Note_on_c, 9, 51, 0
1, 28407, Note_on_c, 9, 35, 31
1, 28415, Note_on_c, 0, 69, 0
1, 28417, Note_on_c, 9, 35, 0
1, 28421, Note_on_c, 1, 38, 0
1, 28425, Note_on_c, 0, 66, 39
1, 28436, Note_on_c, 9, 51, 37
1, 28437, Note_on_c, 9, 44, 48
1, 28443, Note_on_c, 1, 37, 36
1, 28444, Note_on_c, 0, 66, 0
1, 28455, Note_on_c, 0, 67, 30
1, 28473, Note_on_c, 0, 57, 0
1, 28478, Note_on_c, 0, 67, 0
1, 28483, Note_on_c, 9, 44, 0
1, 28488, Note_on_c, 0, 69, 49
1, 28493, Note_on_c, 9, 51, 0
1, 28500, Note_on_c, 0, 69, 0
1, 28514, Note_on_c, 0, 70, 50
1, 28515, Note_on_c, 0, 58, 0
1, 28516, Note_on_c, 9, 51, 47
1, 28528, Note_on_c, 0, 53, 0
1, 28535, Note_on_c, 0, 70, 0
1, 28536, Note_on_c, 9, 51, 0
1, 28542, Note_on_c, 0, 72, 59
1, 28548, Note_on_c, 1, 37, 0
1, 28548, Note_on_c, 0, 58, 36
1, 28552, Note_on_c, 0, 52, 42
1, 28555, Note_on_c, 0, 61, 25
1, 28556, Note_on_c, 9, 51, 27
1, 28560, Note_on_c, 0, 72, 0
1, 28563, Note_on_c, 1, 36, 43
1, 28570, Note_on_c, 0, 73, 51
1, 28585, Note_on_c, 0, 73, 0
1, 28600, Note_on_c, 0, 75, 52
1, 28616, Note_on_c, 0, 75, 0
1, 28616, Note_on_c, 0, 61, 0
1, 28627, Note_on_c, 9, 51, 0
1, 28629, Note_on_c, 0, 76, 38
1, 28636, Note_on_c, 9, 53, 37
1, 28647, Note_on_c, 0, 76, 0
1, 28652, Note_on_c, 0, 58, 0
1, 28660, Note_on_c, 0, 77, 56
1, 28661, Note_on_c, 9, 53, 0
1, 28674, Note_on_c, 1, 36, 0
1, 28676, Note_on_c, 0, 77, 0
1, 28676, Note_on_c, 9, 51, 45
1, 28677, Note_on_c, 9, 44, 52
1, 28683, Note_on_c, 1, 34, 37
1, 28685, Note_on_c, 0, 58, 25
1, 28687, Note_on_c, 0, 61, 33
1, 28688, Note_on_c, 0, 79, 77
1, 28699, Note_on_c, 0, 61, 0
1, 28719, Note_on_c, 0, 79, 0
1, 28719, Note_on_c, 0, 78, 49
1, 28722, Note_on_c, 9, 44, 0
1, 28722, Note_on_c, 9, 34, 70
1, 28729, Note_on_c, 0, 52, 0
1, 28734, Note_on_c, 9, 34, 0
1, 28735, Note_on_c, 0, 77, 44
1, 28738, Note_on_c, 0, 78, 0
1, 28747, Note_on_c, 0, 76, 36
1, 28752, Note_on_c, 0, 58, 0
1, 28754, Note_on_c, 0, 77, 0
1, 28774, Note_on_c, 0, 76, 0
1, 28778, Note_on_c, 9, 51, 0
1, 28785, Note_on_c, 0, 72, 47
1, 28791, Note_on_c, 1, 34, 0
1, 28796, Note_on_c, 9, 51, 48
1, 28802, Note_on_c, 0, 60, 25
1, 28802, Note_on_c, 1, 33, 46
1, 28804, Note_on_c, 0, 57, 29
1, 28808, Note_on_c, 0, 55, 32
1, 28813, Note_on_c, 0, 72, 0
1, 28813, Note_on_c, 0, 69, 38
1, 28817, Note_on_c, 0, 60, 0
1, 28824, Note_on_c, 0, 57, 0
1, 28827, Note_on_c, 0, 55, 0
1, 28852, Note_on_c, 0, 69, 0
1, 28860, Note_on_c, 0, 69, 48
1, 28871, Note_on_c, 0, 69, 0
1, 28897, Note_on_c, 9, 51, 0
1, 28916, Note_on_c, 9, 51, 43
1, 28917, Note_on_c, 9, 44, 57
1, 28918, Note_on_c, 1, 36, 20
1, 28923, Note_on_c, 9, 35, 18
1, 28924, Note_on_c, 1, 46, 70
1, 28928, Note_on_c, 1, 36, 0
1, 28938, Note_on_c, 1, 33, 0
1, 28955, Note_on_c, 9, 44, 0
1, 28971, Note_on_c, 9, 35, 0
1, 28981, Note_on_c, 9, 51, 0
1, 28995, Note_on_c, 9, 51, 43
1, 29001, Note_on_c, 9, 35, 26
1, 29011, Note_on_c, 9, 35, 0
1, 29012, Note_on_c, 9, 51, 0
1, 29023, Note_on_c, 1, 46, 0
1, 29032, Note_on_c, 0, 64, 47
1, 29032, Note_on_c, 0, 60, 35
1, 29032, Note_on_c, 0, 59, 45
1, 29034, Note_on_c, 0, 55, 34
1, 29036, Note_on_c, 9, 51, 50
1, 29043, Note_on_c, 1, 45, 55
1, 29055, Note_on_c, 0, 59, 0
1, 29059, Note_on_c, 0, 64, 0
1, 29068, Note_on_c, 0, 60, 0
1, 29073, Note_on_c, 0, 55, 0
1, 29120, Note_on_c, 1, 36, 37
1, 29131, Note_on_c, 9, 51, 0
1, 29134, Note_on_c, 1, 45, 0
1, 29143, Note_on_c, 1, 36, 0
1, 29151, Note_on_c, 1, 38, 54
1, 29153, Note_on_c, 0, 63, 38
1, 29156, Note_on_c, 9, 51, 42
1, 29157, Note_on_c, 0, 60, 33
1, 29157, Note_on_c, 9, 44, 55
1, 29159, Note_on_c, 0, 54, 33
1, 29194, Note_on_c, 0, 54, 0
1, 29195, Control_c, 0, 64, 127
1, 29202, Note_on_c, 0, 60, 0
1, 29210, Note_on_c, 0, 63, 0
1, 29210, Note_on_c, 9, 44, 0
1, 29226, Note_on_c, 9, 51, 0
1, 29236, Note_on_c, 9, 51, 43
1, 29237, Note_on_c, 9, 35, 24
1, 29250, Note_on_c, 9, 35, 0
1, 29250, Note_on_c, 1, 36, 23
1, 29252, Note_on_c, 9, 51, 0
1, 29259, Note_on_c, 1, 38, 0
1, 29263, Control_c, 0, 64, 0
1, 29270, Note_on_c, 1, 36, 0
1, 29273, Note_on_c, 0, 62, 34
1, 29274, Note_on_c, 0, 58, 37
1, 29274, Note_on_c, 0, 57, 31
1, 29275, Note_on_c, 9, 35, 32
1, 29276, Note_on_c, 0, 53, 26
1, 29276, Note_on_c, 1, 43, 60
1, 29276, Note_on_c, 9, 51, 44
1, 29338, Note_on_c, 9, 35, 0
1, 29342, Note_on_c, 0, 69, 83
1, 29361, Note_on_c, 9, 35, 36
1, 29364, Note_on_c, 1, 36, 25
1, 29368, Note_on_c, 0, 69, 0
1, 29368, Note_on_c, 9, 51, 0
1, 29369, Note_on_c, 9, 35, 0
1, 29370, Note_on_c, 1, 43, 0
1, 29379, Note_on_c, 0, 66, 34
1, 29385, Note_on_c, 1, 36, 0
1, 29390, Note_on_c, 0, 66, 0
1, 29395, Note_on_c, 1, 43, 54
1, 29396, Note_on_c, 9, 51, 50
1, 29397, Note_on_c, 9, 44, 56
1, 29400, Note_on_c, 0, 67, 34
1, 29426, Note_on_c, 0, 67, 0
1, 29436, Note_on_c, 0, 69, 60
1, 29447, Note_on_c, 9, 44, 0
1, 29452, Note_on_c, 0, 69, 0
1, 29455, Note_on_c, 0, 62, 0
1, 29463, Note_on_c, 0, 57, 0
1, 29463, Note_on_c, 9, 51, 0
1, 29465, Note_on_c, 0, 70, 27
1, 29476, Note_on_c, 9, 51, 40
1, 29482, Note_on_c, 0, 58, 0
1, 29484, Note_on_c, 1, 34, 42
1, 29487, Note_on_c, 9, 51, 0
1, 29492, Note_on_c, 0, 53, 0
1, 29494, Note_on_c, 0, 70, 0
1, 29501, Note_on_c, 0, 72, 47
1, 29502, Note_on_c, 1, 43, 0
1, 29511, Note_on_c, 1, 34, 0
1, 29514, Note_on_c, 0, 72, 0
1, 29516, Note_on_c, 9, 51, 43
1, 29524, Note_on_c, 1, 36, 28
1, 29527, Note_on_c, 0, 73, 51
1, 29531, Note_on_c, 0, 58, 23
1, 29533, Note_on_c, 0, 52, 27
1, 29536, Note_on_c, 0, 63, 13
1, 29555, Note_on_c, 0, 73, 0
1, 29560, Note_on_c, 0, 78, 58
1, 29564, Note_on_c, 1, 36, 0
1, 29568, Note_on_c, 0, 63, 0
1, 29572, Note_on_c, 9, 51, 0
1, 29585, Note_on_c, 0, 78, 0
1, 29588, Note_on_c, 0, 82, 64
1, 29596, Note_on_c, 9, 51, 44
1, 29598, Note_on_c, 1, 36, 56
1, 29603, Note_on_c, 9, 51, 0
1, 29603, Note_on_c, 0, 82, 0
1, 29618, Note_on_c, 1, 36, 0
1, 29621, Note_on_c, 0, 85, 83
1, 29631, Note_on_c, 0, 52, 0
1, 29635, Note_on_c, 9, 40, 63
1, 29636, Note_on_c, 9, 51, 64
1, 29637, Note_on_c, 9, 46, 40
1, 29638, Note_on_c, 0, 85, 0
1, 29641, Note_on_c, 9, 40, 0
1, 29643, Note_on_c, 1, 34, 33
1, 29647, Note_on_c, 0, 90, 76
1, 29648, Note_on_c, 0, 63, 27
1, 29660, Note_on_c, 0, 52, 24
1, 29672, Note_on_c, 0, 90, 0
1, 29672, Note_on_c, 9, 46, 0
1, 29679, Note_on_c, 0, 63, 0
1, 29680, Note_on_c, 0, 94, 72
1, 29693, Note_on_c, 0, 94, 0
1, 29703, Note_on_c, 9, 51, 0
1, 29705, Note_on_c, 0, 97, 88
1, 29706, Note_on_c, 0, 52, 0
1, 29708, Note_on_c, 9, 40, 74
1, 29723, Note_on_c, 9, 40, 0
1, 29732, Note_on_c, 0, 58, 0
1, 29739, Note_on_c, 0, 96, 76
1, 29744, Note_on_c, 0, 97, 0
1, 29747, Note_on_c, 1, 34, 0
1, 29751, Control_c, 0, 64, 127
1, 29756, Note_on_c, 9, 51, 57
1, 29759, Note_on_c, 0, 96, 0
1, 29761, Control_c, 0, 64, 0
1, 29768, Note_on_c, 0, 93, 61
1, 29768, Note_on_c, 1, 33, 19
1, 29769, Note_on_c, 0, 60, 28
1, 29773, Note_on_c, 0, 57, 29
1, 29777, Note_on_c, 0, 55, 25
1, 29783, Note_on_c, 0, 57, 0
1, 29785, Note_on_c, 0, 60, 0
1, 29785, Note_on_c, 9, 35, 39
1, 29786, Note_on_c, 0, 93, 0
1, 29791, Note_on_c, 0, 55, 0
1, 29793, Note_on_c, 9, 35, 0
1, 29843, Note_on_c, 1, 31, 46
1, 29847, Note_on_c, 9, 51, 0
1, 29853, Note_on_c, 1, 33, 0
1, 29859, Note_on_c, 1, 31, 0
1, 29876, Note_on_c, 9, 51, 37
1, 29877, Note_on_c, 9, 44, 52
1, 29881, Note_on_c, 1, 41, 59
1, 29908, Note_on_c, 1, 41, 0
1, 29920, Note_on_c, 9, 44, 0
1, 29925, Note_on_c, 1, 38, 44
1, 29936, Note_on_c, 1, 38, 0
1, 29958, Note_on_c, 0, 78, 85
1, 29962, Note_on_c, 0, 76, 47
1, 29963, Note_on_c, 1, 39, 61
1, 29968, Note_on_c, 0, 76, 0
1, 29978, Note_on_c, 9, 51, 0
1, 29986, Note_on_c, 0, 78, 0
1, 29996, Note_on_c, 0, 64, 30
1, 29996, Note_on_c, 9, 51, 56
1, 29997, Note_on_c, 1, 39, 0
1, 29998, Note_on_c, 0, 60, 26
1, 29998, Note_on_c, 0, 75, 43
1, 30001, Note_on_c, 0, 71, 41
1, 30001, Note_on_c, 0, 66, 37
1, 30001, Note_on_c, 0, 54, 28
1, 30007, Note_on_c, 1, 38, 62
1, 30018, Note_on_c, 1, 38, 0
1, 30049, Control_c, 0, 64, 127
1, 30050, Note_on_c, 0, 71, 0
1, 30053, Note_on_c, 0, 66, 0
1, 30056, Note_on_c, 0, 64, 0
1, 30059, Note_on_c, 0, 54, 0
1, 30060, Note_on_c, 0, 60, 0
1, 30068, Note_on_c, 0, 75, 0
1, 30071, Note_on_c, 0, 71, 44
1, 30074, Note_on_c, 0, 66, 46
1, 30076, Note_on_c, 0, 60, 33
1, 30076, Note_on_c, 0, 64, 30
1, 30078, Note_on_c, 0, 54, 25
1, 30087, Note_on_c, 1, 33, 57
1, 30090, Control_c, 0, 64, 0
1, 30095, Note_on_c, 1, 33, 0
1, 30096, Note_on_c, 9, 51, 0
1, 30112, Control_c, 0, 64, 127
1, 30116, Note_on_c, 9, 51, 34
1, 30117, Note_on_c, 9, 44, 56
1, 30118, Note_on_c, 1, 30, 53
1, 30152, Note_on_c, 9, 44, 0
1, 30165, Note_on_c, 0, 64, 0
1, 30178, Note_on_c, 0, 60, 0
1, 30182, Note_on_c, 0, 54, 0
1, 30183, Note_on_c, 9, 51, 0
1, 30186, Note_on_c, 0, 71, 0
1, 30196, Note_on_c, 0, 66, 0
1, 30196, Note_on_c, 9, 51, 43
1, 30203, Note_on_c, 9, 35, 28
1, 30217, Note_on_c, 9, 51, 0
1, 30221, Note_on_c, 9, 35, 0
1, 30231, Note_on_c, 1, 30, 0
1, 30231, Control_c, 0, 64, 0
1, 30236, Note_on_c, 9, 51, 38
1, 30239, Note_on_c, 1, 31, 37
1, 30240, Note_on_c, 9, 35, 24
1, 30241, Note_on_c, 0, 62, 41
1, 30242, Note_on_c, 0, 58, 37
1, 30243, Note_on_c, 0, 57, 34
1, 30246, Note_on_c, 0, 69, 64
1, 30247, Note_on_c, 0, 53, 28
1, 30268, Note_on_c, 0, 69, 0
1, 30268, Note_on_c, 0, 70, 48
1, 30287, Note_on_c, 0, 62, 0
1, 30291, Note_on_c, 0, 69, 42
1, 30296, Note_on_c, 0, 70, 0
1, 30297, Note_on_c, 9, 35, 0
1, 30299, Note_on_c, 0, 58, 0
1, 30320, Note_on_c, 0, 69, 0
1, 30321, Note_on_c, 1, 29, 35
1, 30322, Note_on_c, 0, 67, 57
1, 30326, Note_on_c, 9, 51, 0
1, 30327, Note_on_c, 9, 35, 31
1, 30334, Note_on_c, 0, 67, 0
1, 30337, Note_on_c, 9, 35, 0
1, 30352, Note_on_c, 1, 31, 0
1, 30356, Note_on_c, 0, 62, 32
1, 30356, Note_on_c, 9, 51, 37
1, 30357, Note_on_c, 9, 44, 48
1, 30358, Note_on_c, 1, 29, 0
1, 30359, Note_on_c, 1, 38, 60
1, 30360, Note_on_c, 0, 69, 60
1, 30379, Note_on_c, 0, 69, 0
1, 30380, Note_on_c, 0, 70, 62
1, 30392, Note_on_c, 0, 62, 0
1, 30399, Note_on_c, 0, 57, 0
1, 30403, Note_on_c, 9, 44, 0
1, 30407, Note_on_c, 0, 69, 46
1, 30411, Note_on_c, 0, 70, 0
1, 30413, Note_on_c, 9, 51, 0
1, 30429, Note_on_c, 0, 53, 0
1, 30435, Note_on_c, 0, 69, 0
1, 30436, Note_on_c, 9, 51, 47
1, 30438, Note_on_c, 0, 67, 53
1, 30442, Control_c, 0, 64, 127
1, 30442, Note_on_c, 1, 31, 33
1, 30456, Note_on_c, 9, 51, 0
1, 30460, Note_on_c, 0, 67, 0
1, 30461, Note_on_c, 1, 38, 0
1, 30464, Control_c, 0, 64, 0
1, 30465, Note_on_c, 1, 31, 0
1, 30474, Note_on_c, 0, 58, 1
1, 30476, Note_on_c, 0, 69, 66
1, 30476, Note_on_c, 0, 62, 36
1, 30476, Note_on_c, 9, 51, 27
1, 30477, Note_on_c, 1, 37, 44
1, 30480, Note_on_c, 0, 52, 32
1, 30501, Note_on_c, 0, 69, 0
1, 30506, Note_on_c, 0, 70, 60
1, 30510, Note_on_c, 0, 52, 0
1, 30515, Note_on_c, 0, 62, 0
1, 30528, Note_on_c, 0, 70, 0
1, 30532, Note_on_c, 0, 69, 57
1, 30538, Note_on_c, 0, 58, 0
1, 30547, Note_on_c, 9, 51, 0
1, 30556, Note_on_c, 9, 53, 37
1, 30557, Note_on_c, 0, 69, 0
1, 30563, Note_on_c, 1, 31, 42
1, 30565, Note_on_c, 0, 67, 60
1, 30565, Control_c, 0, 64, 127
1, 30574, Note_on_c, 1, 37, 0
1, 30580, Note_on_c, 0, 67, 0
1, 30581, Note_on_c, 9, 53, 0
1, 30585, Note_on_c, 1, 31, 0
1, 30589, Control_c, 0, 64, 0
1, 30594, Note_on_c, 0, 59, 44
1, 30596, Note_on_c, 0, 71, 80
1, 30596, Note_on_c, 0, 53, 37
1, 30596, Note_on_c, 9, 51, 45
1, 30597, Note_on_c, 0, 63, 35
1, 30597, Note_on_c, 9, 44, 52
1, 30604, Note_on_c, 1, 36, 53
1, 30618, Note_on_c, 0, 71, 0
1, 30627, Note_on_c, 0, 73, 70
1, 30638, Note_on_c, 0, 59, 0
1, 30642, Note_on_c, 9, 44, 0
1, 30642, Note_on_c, 9, 34, 70
1, 30645, Note_on_c, 0, 63, 0
1, 30647, Note_on_c, 0, 73, 0
1, 30654, Note_on_c, 0, 53, 0
1, 30654, Note_on_c, 9, 34, 0
1, 30662, Note_on_c, 0, 62, 45
1, 30663, Note_on_c, 0, 52, 54
1, 30664, Note_on_c, 0, 70, 63
1, 30666, Note_on_c, 0, 58, 30
1, 30681, Note_on_c, 1, 31, 31
1, 30684, Note_on_c, 0, 62, 0
1, 30688, Note_on_c, 0, 52, 0
1, 30689, Note_on_c, 1, 36, 0
1, 30690, Note_on_c, 1, 31, 0
1, 30691, Note_on_c, 0, 70, 0
1, 30692, Note_on_c, 1, 34, 60
1, 30697, Note_on_c, 0, 68, 42
1, 30698, Note_on_c, 9, 51, 0
1, 30702, Note_on_c, 0, 58, 0
1, 30704, Note_on_c, 0, 68, 0
1, 30710, Note_on_c, 1, 34, 0
1, 30716, Note_on_c, 9, 51, 48
1, 30722, Note_on_c, 0, 55, 34
1, 30722, Note_on_c, 0, 69, 68
1, 30722, Note_on_c, 0, 57, 34
1, 30723, Note_on_c, 0, 60, 26
1, 30724, Note_on_c, 1, 33, 74
1, 30740, Note_on_c, 0, 69, 0
1, 30748, Note_on_c, 0, 60, 0
1, 30758, Note_on_c, 0, 67, 59
1, 30766, Note_on_c, 0, 57, 0
1, 30770, Note_on_c, 0, 55, 0
1, 30774, Note_on_c, 0, 67, 0
1, 30806, Note_on_c, 1, 31, 37
1, 30817, Note_on_c, 9, 51, 0
1, 30819, Note_on_c, 0, 61, 45
1, 30821, Note_on_c, 1, 33, 0
1, 30833, Note_on_c, 0, 61, 0
1, 30833, Note_on_c, 1, 31, 0
1, 30836, Note_on_c, 9, 51, 43
1, 30837, Note_on_c, 9, 44, 57
1, 30838, Note_on_c, 1, 41, 69
1, 30843, Note_on_c, 9, 35, 18
1, 30850, Note_on_c, 0, 57, 31
1, 30875, Note_on_c, 9, 44, 0
1, 30891, Note_on_c, 9, 35, 0
1, 30901, Note_on_c, 9, 51, 0
1, 30914, Note_on_c, 1, 36, 37
1, 30915, Note_on_c, 9, 51, 43
1, 30920, Note_on_c, 0, 53, 63
1, 30921, Note_on_c, 9, 35, 26
1, 30924, Note_on_c, 0, 57, 0
1, 30929, Note_on_c, 1, 36, 0
1, 30931, Note_on_c, 9, 35, 0
1, 30932, Note_on_c, 9, 51, 0
1, 30934, Control_c, 0, 64, 127
1, 30951, Note_on_c, 0, 53, 0
1, 30951, Note_on_c, 1, 41, 0
1, 30953, Control_c, 0, 64, 0
1, 30956, Note_on_c, 9, 51, 50
1, 30958, Note_on_c, 0, 48, 25
1, 30958, Note_on_c, 0, 52, 48
1, 30963, Note_on_c, 0, 48, 0
1, 30965, Note_on_c, 1, 38, 48
1, 30986, Note_on_c, 0, 52, 0
1, 30991, Note_on_c, 0, 53, 63
1, 31018, Note_on_c, 0, 53, 0
1, 31021, Note_on_c, 0, 49, 35
1, 31038, Note_on_c, 1, 36, 46
1, 31041, Note_on_c, 0, 49, 0
1, 31051, Note_on_c, 9, 51, 0
1, 31054, Note_on_c, 0, 52, 79
1, 31059, Note_on_c, 1, 38, 0
1, 31067, Note_on_c, 1, 36, 0
1, 31074, Note_on_c, 0, 52, 0
1, 31076, Note_on_c, 9, 51, 42
1, 31077, Note_on_c, 9, 44, 55
1, 31080, Note_on_c, 0, 49, 57
1, 31080, Note_on_c, 1, 45, 59
1, 31108, Note_on_c, 0, 49, 0
1, 31115, Note_on_c, 0, 50, 66
1, 31130, Note_on_c, 0, 50, 0
1, 31130, Note_on_c, 9, 44, 0
1, 31143, Note_on_c, 0, 52, 58
1, 31146, Note_on_c, 9, 51, 0
1, 31156, Note_on_c, 9, 51, 43
1, 31157, Note_on_c, 9, 35, 24
1, 31164, Note_on_c, 0, 52, 0
1, 31170, Note_on_c, 9, 35, 0
1, 31172, Note_on_c, 9, 51, 0
1, 31178, Note_on_c, 0, 53, 65
1, 31181, Control_c, 0, 64, 127
1, 31189, Note_on_c, 1, 45, 0
1, 31195, Note_on_c, 0, 53, 0
1, 31195, Note_on_c, 9, 35, 32
1, 31196, Note_on_c, 1, 43, 52
1, 31196, Note_on_c, 9, 51, 44
1, 31204, Control_c, 0, 64, 0
1, 31211, Note_on_c, 0, 53, 35
1, 31212, Note_on_c, 0, 43, 34
1, 31214, Note_on_c, 0, 57, 78
1, 31227, Note_on_c, 0, 53, 0
1, 31243, Note_on_c, 0, 57, 0
1, 31246, Note_on_c, 0, 54, 57
1, 31258, Note_on_c, 9, 35, 0
1, 31269, Note_on_c, 0, 54, 0
1, 31275, Note_on_c, 0, 55, 38
1, 31281, Note_on_c, 9, 35, 36
1, 31283, Note_on_c, 1, 38, 49
1, 31288, Note_on_c, 9, 51, 0
1, 31289, Note_on_c, 9, 35, 0
1, 31299, Note_on_c, 0, 55, 0
1, 31300, Note_on_c, 1, 38, 0
1, 31304, Note_on_c, 0, 57, 60
1, 31305, Note_on_c, 1, 43, 0
1, 31315, Note_on_c, 1, 49, 67
1, 31316, Note_on_c, 9, 51, 50
1, 31317, Note_on_c, 9, 44, 56
1, 31319, Note_on_c, 0, 53, 27
1, 31326, Note_on_c, 0, 57, 0
1, 31329, Note_on_c, 0, 43, 0
1, 31331, Note_on_c, 0, 53, 0
1, 31332, Note_on_c, 0, 58, 37
1, 31363, Note_on_c, 0, 58, 0
1, 31364, Note_on_c, 0, 60, 51
1, 31367, Note_on_c, 9, 44, 0
1, 31377, Note_on_c, 0, 60, 0
1, 31383, Note_on_c, 9, 51, 0
1, 31388, Note_on_c, 0, 62, 36
1, 31396, Note_on_c, 9, 51, 40
1, 31407, Note_on_c, 9, 51, 0
1, 31408, Note_on_c, 0, 62, 0
1, 31408, Control_c, 0, 64, 127
1, 31416, Note_on_c, 0, 64, 48
1, 31427, Note_on_c, 1, 49, 0
1, 31436, Note_on_c, 1, 48, 58
1, 31436, Note_on_c, 9, 51, 43
1, 31439, Note_on_c, 0, 64, 0
1, 31442, Control_c, 0, 64, 0
1, 31446, Note_on_c, 0, 66, 68
1, 31449, Note_on_c, 0, 58, 33
1, 31454, Note_on_c, 0, 52, 33
1, 31476, Note_on_c, 0, 66, 0
1, 31492, Note_on_c, 9, 51, 0
1, 31510, Note_on_c, 0, 66, 41
1, 31516, Note_on_c, 9, 51, 44
1, 31523, Note_on_c, 9, 51, 0
1, 31526, Note_on_c, 1, 43, 33
1, 31531, Note_on_c, 0, 52, 0
1, 31533, Note_on_c, 1, 48, 0
1, 31538, Note_on_c, 0, 70, 76
1, 31539, Note_on_c, 1, 43, 0
1, 31541, Note_on_c, 0, 66, 0
1, 31547, Control_c, 0, 64, 127
1, 31554, Note_on_c, 0, 70, 0
1, 31555, Note_on_c, 9, 40, 63
1, 31556, Note_on_c, 9, 51, 64
1, 31557, Note_on_c, 1, 46, 50
1, 31557, Note_on_c, 9, 46, 40
1, 31561, Note_on_c, 9, 40, 0
1, 31566, Note_on_c, 0, 63, 32
1, 31567, Note_on_c, 0, 73, 68
1, 31571, Note_on_c, 0, 52, 18
1, 31574, Control_c, 0, 64, 0
1, 31585, Note_on_c, 0, 73, 0
1, 31592, Note_on_c, 9, 46, 0
1, 31592, Note_on_c, 0, 78, 55
1, 31611, Note_on_c, 0, 63, 0
1, 31619, Note_on_c, 0, 52, 0
1, 31621, Note_on_c, 0, 78, 0
1, 31623, Note_on_c, 9, 51, 0
1, 31627, Note_on_c, 0, 82, 37
1, 31628, Note_on_c, 9, 40, 74
1, 31630, Control_c, 0, 64, 127
1, 31643, Note_on_c, 9, 40, 0
1, 31643, Note_on_c, 0, 58, 0
1, 31647, Note_on_c, 0, 82, 0
1, 31653, Note_on_c, 0, 85, 80
1, 31668, Note_on_c, 1, 46, 0
1, 31676, Note_on_c, 9, 51, 57
1, 31680, Control_c, 0, 64, 0
1, 31680, Note_on_c, 0, 60, 42
1, 31681, Note_on_c, 0, 84, 73
1, 31682, Note_on_c, 9, 35, 22
1, 31685, Note_on_c, 1, 45, 46
1, 31687, Note_on_c, 0, 60, 0
1, 31689, Note_on_c, 0, 85, 0
1, 31694, Note_on_c, 9, 35, 0
1, 31701, Note_on_c, 0, 84, 0
1, 31715, Note_on_c, 0, 81, 68
1, 31733, Note_on_c, 0, 81, 0
1, 31767, Note_on_c, 9, 51, 0
1, 31769, Control_c, 0, 64, 127
1, 31776, Note_on_c, 0, 74, 54
1, 31790, Note_on_c, 0, 74, 0
1, 31791, Note_on_c, 9, 35, 35
1, 31792, Note_on_c, 1, 45, 0
1, 31796, Note_on_c, 9, 51, 42
1, 31797, Note_on_c, 9, 44, 40
1, 31799, Note_on_c, 1, 33, 45
1, 31801, Control_c, 0, 64, 0
1, 31803, Note_on_c, 0, 81, 89
1, 31803, Note_on_c, 0, 55, 32
1, 31804, Note_on_c, 0, 66, 36
1, 31804, Note_on_c, 0, 61, 53
1, 31823, Note_on_c, 0, 81, 0
1, 31835, Note_on_c, 0, 79, 60
1, 31844, Note_on_c, 0, 66, 0
1, 31846, Note_on_c, 0, 61, 0
1, 31850, Note_on_c, 9, 44, 0
1, 31858, Note_on_c, 9, 35, 0
1, 31862, Note_on_c, 0, 75, 38
1, 31863, Note_on_c, 9, 51, 0
1, 31863, Note_on_c, 0, 79, 0
1, 31865, Control_c, 0, 64, 127
1, 31869, Note_on_c, 0, 55, 0
1, 31876, Note_on_c, 9, 51, 32
1, 31898, Note_on_c, 9, 51, 0
1, 31898, Note_on_c, 0, 75, 0
1, 31898, Note_on_c, 0, 71, 47
1, 31907, Note_on_c, 0, 71, 0
1, 31907, Note_on_c, 1, 33, 0
1, 31915, Control_c, 0, 64, 0
1, 31915, Note_on_c, 0, 60, 32
1, 31916, Note_on_c, 9, 51, 47
1, 31918, Note_on_c, 1, 38, 31
1, 31919, Note_on_c, 0, 64, 37
1, 31920, Note_on_c, 0, 54, 46
1, 31923, Note_on_c, 0, 78, 65
1, 31955, Note_on_c, 0, 78, 0
1, 31959, Note_on_c, 0, 75, 46
1, 31966, Note_on_c, 9, 51, 0
1, 31973, Note_on_c, 0, 75, 0
1, 31988, Note_on_c, 0, 64, 0
1, 31988, Note_on_c, 0, 54, 0
1, 31991, Note_on_c, 0, 60, 0
1, 31996, Note_on_c, 9, 51, 43
1, 31997, Note_on_c, 9, 35, 24
1, 32002, Note_on_c, 9, 51, 0
1, 32004, Note_on_c, 9, 35, 0
1, 32035, Note_on_c, 9, 35, 53
1, 32036, Note_on_c, 9, 51, 71
1, 32037, Note_on_c, 9, 44, 47
1, 32041, Note_on_c, 1, 38, 0
1, 32041, Note_on_c, 1, 26, 35
1, 32085, Note_on_c, 9, 44, 0
1, 32101, Note_on_c, 9, 35, 0
1, 32115, Note_on_c, 9, 35, 53
1, 32123, Note_on_c, 9, 51, 0
1, 32137, Note_on_c, 9, 35, 0
1, 32141, Note_on_c, 1, 26, 0
1, 32152, Note_on_c, 0, 62, 34
1, 32154, Note_on_c, 0, 57, 36
1, 32154, Note_on_c, 1, 31, 31
1, 32155, Note_on_c, 0, 53, 29
1, 32155, Note_on_c, 0, 58, 32
1, 32156, Note_on_c, 9, 51, 52
1, 32167, Note_on_c, 0, 62, 0
1, 32171, Note_on_c, 0, 57, 0
1, 32174, Note_on_c, 0, 53, 0
1, 32177, Note_on_c, 0, 58, 0
1, 32248, Note_on_c, 9, 51, 0
1, 32276, Note_on_c, 1, 31, 0
1, 32276, Note_on_c, 9, 51, 45
1, 32277, Note_on_c, 9, 44, 52
1, 32279, Note_on_c, 0, 62, 44
1, 32279, Note_on_c, 1, 38, 60
1, 32281, Note_on_c, 0, 57, 34
1, 32281, Note_on_c, 0, 58, 29
1, 32281, Note_on_c, 0, 74, 81
1, 32283, Note_on_c, 0, 53, 25
1, 32294, Note_on_c, 0, 62, 0
1, 32296, Note_on_c, 0, 74, 0
1, 32315, Note_on_c, 9, 44, 0
1, 32317, Note_on_c, 0, 74, 82
1, 32334, Note_on_c, 0, 74, 0
1, 32336, Note_on_c, 0, 57, 0
1, 32340, Note_on_c, 0, 72, 56
1, 32341, Note_on_c, 9, 51, 0
1, 32353, Note_on_c, 0, 58, 0
1, 32354, Note_on_c, 0, 72, 0
1, 32356, Note_on_c, 9, 51, 47
1, 32367, Note_on_c, 1, 38, 0
1, 32368, Note_on_c, 1, 31, 40
1, 32369, Note_on_c, 0, 53, 0
1, 32371, Note_on_c, 9, 51, 0
1, 32374, Note_on_c, 0, 72, 73
1, 32392, Note_on_c, 0, 72, 0
1, 32394, Note_on_c, 1, 31, 0
1, 32396, Note_on_c, 0, 58, 37
1, 32396, Note_on_c, 9, 51, 32
1, 32400, Note_on_c, 1, 36, 48
1, 32401, Note_on_c, 0, 74, 71
1, 32402, Note_on_c, 0, 62, 65
1, 32402, Note_on_c, 0, 52, 44
1, 32414, Note_on_c, 0, 74, 0
1, 32417, Note_on_c, 0, 62, 0
1, 32419, Note_on_c, 0, 58, 0
1, 32419, Note_on_c, 0, 52, 0
1, 32428, Note_on_c, 9, 34, 42
1, 32436, Note_on_c, 0, 62, 48
1, 32437, Note_on_c, 0, 74, 57
1, 32441, Note_on_c, 9, 34, 0
1, 32442, Note_on_c, 0, 74, 0
1, 32443, Note_on_c, 0, 62, 0
1, 32459, Note_on_c, 1, 36, 0
1, 32460, Note_on_c, 0, 75, 62
1, 32461, Note_on_c, 9, 51, 0
1, 32462, Note_on_c, 0, 63, 56
1, 32466, Note_on_c, 0, 63, 0
1, 32471, Note_on_c, 0, 76, 60
1, 32472, Note_on_c, 9, 35, 35
1, 32473, Note_on_c, 0, 64, 51
1, 32474, Note_on_c, 0, 75, 0
1, 32476, Note_on_c, 9, 51, 29
1, 32479, Note_on_c, 1, 36, 46
1, 32482, Note_on_c, 9, 35, 0
1, 32486, Note_on_c, 9, 51, 0
1, 32486, Note_on_c, 0, 76, 0
1, 32487, Note_on_c, 0, 64, 0
1, 32501, Note_on_c, 0, 76, 66
1, 32503, Note_on_c, 0, 64, 45
1, 32508, Note_on_c, 1, 36, 0
1, 32511, Note_on_c, 0, 64, 0
1, 32513, Note_on_c, 9, 34, 30
1, 32514, Note_on_c, 0, 76, 0
1, 32516, Note_on_c, 9, 51, 49
1, 32517, Note_on_c, 9, 44, 51
1, 32518, Note_on_c, 1, 34, 50
1, 32528, Note_on_c, 0, 74, 51
1, 32529, Note_on_c, 0, 62, 46
1, 32530, Note_on_c, 9, 34, 0
1, 32531, Note_on_c, 0, 52, 20
1, 32540, Note_on_c, 0, 52, 0
1, 32543, Note_on_c, 0, 62, 0
1, 32544, Note_on_c, 0, 74, 0
1, 32555, Note_on_c, 9, 44, 0
1, 32556, Note_on_c, 9, 35, 52
1, 32559, Note_on_c, 0, 74, 60
1, 32560, Note_on_c, 0, 62, 60
1, 32563, Note_on_c, 9, 35, 0
1, 32569, Note_on_c, 0, 62, 0
1, 32572, Note_on_c, 0, 74, 0
1, 32586, Note_on_c, 0, 72, 46
1, 32590, Note_on_c, 0, 60, 36
1, 32590, Note_on_c, 9, 34, 56
1, 32600, Note_on_c, 0, 60, 0
1, 32602, Note_on_c, 0, 72, 0
1, 32603, Note_on_c, 9, 34, 0
1, 32603, Note_on_c, 9, 51, 0
1, 32617, Note_on_c, 0, 72, 47
1, 32620, Note_on_c, 0, 60, 44
1, 32624, Note_on_c, 0, 60, 0
1, 32624, Note_on_c, 1, 34, 0
1, 32630, Note_on_c, 0, 72, 0
1, 32636, Note_on_c, 1, 33, 50
1, 32636, Note_on_c, 9, 51, 54
1, 32639, Note_on_c, 0, 57, 37
1, 32641, Note_on_c, 0, 55, 31
1, 32641, Note_on_c, 0, 60, 25
1, 32641, Note_on_c, 0, 62, 53
1, 32642, Note_on_c, 0, 74, 57
1, 32647, Note_on_c, 0, 57, 0
1, 32654, Note_on_c, 0, 60, 0
1, 32658, Note_on_c, 0, 74, 0
1, 32661, Note_on_c, 0, 62, 0
1, 32662, Note_on_c, 0, 55, 0
1, 32674, Note_on_c, 0, 74, 54
1, 32689, Note_on_c, 0, 74, 0
1, 32693, Note_on_c, 0, 72, 42
1, 32715, Note_on_c, 0, 72, 0
1, 32728, Note_on_c, 0, 72, 46
1, 32732, Note_on_c, 9, 51, 0
1, 32740, Note_on_c, 1, 36, 33
1, 32750, Note_on_c, 1, 33, 0
1, 32751, Note_on_c, 0, 72, 0
1, 32752, Note_on_c, 1, 36, 0
1, 32754, Note_on_c, 0, 67, 34
1, 32756, Note_on_c, 9, 51, 39
1, 32757, Note_on_c, 9, 44, 46
1, 32759, Note_on_c, 0, 57, 30
1, 32760, Note_on_c, 1, 43, 55
1, 32767, Note_on_c, 0, 57, 0
1, 32773, Note_on_c, 0, 67, 0
1, 32788, Note_on_c, 0, 67, 39
1, 32800, Note_on_c, 9, 44, 0
1, 32811, Note_on_c, 0, 67, 0
1, 32813, Note_on_c, 0, 64, 35
1, 32826, Note_on_c, 9, 51, 0
1, 32827, Note_on_c, 0, 64, 0
1, 32836, Note_on_c, 9, 51, 34
1, 32853, Note_on_c, 0, 64, 41
1, 32855, Control_c, 0, 64, 127
1, 32856, Note_on_c, 9, 51, 0
1, 32861, Note_on_c, 0, 64, 0
1, 32874, Control_c, 0, 64, 0
1, 32876, Note_on_c, 9, 51, 42
1, 32878, Note_on_c, 1, 43, 0
1, 32879, Note_on_c, 0, 60, 60
1, 32880, Note_on_c, 0, 64, 65
1, 32881, Note_on_c, 0, 55, 52
1, 32883, Note_on_c, 0, 59, 41
1, 32940, Note_on_c, 0, 59, 0
1, 32940, Note_on_c, 0, 71, 94
1, 32953, Note_on_c, 0, 64, 0
1, 32953, Note_on_c, 9, 35, 72
1, 32959, Note_on_c, 1, 39, 47
1, 32962, Note_on_c, 0, 60, 0
1, 32968, Note_on_c, 0, 71, 0
1, 32975, Note_on_c, 0, 55, 0
1, 32975, Note_on_c, 1, 39, 0
1, 32976, Note_on_c, 9, 51, 0
1, 32978, Note_on_c, 0, 68, 47
1, 32985, Note_on_c, 9, 35, 0
1, 32991, Note_on_c, 0, 68, 0
1, 32996, Note_on_c, 1, 41, 62
1, 32996, Note_on_c, 9, 51, 50
1, 32997, Note_on_c, 9, 44, 56
1, 32998, Note_on_c, 0, 60, 29
1, 33001, Note_on_c, 0, 54, 35
1, 33001, Note_on_c, 9, 35, 26
1, 33003, Note_on_c, 0, 64, 20
1, 33006, Note_on_c, 0, 69, 37
1, 33017, Note_on_c, 9, 35, 0
1, 33034, Note_on_c, 0, 69, 0
1, 33037, Note_on_c, 0, 71, 66
1, 33040, Note_on_c, 9, 44, 0
1, 33045, Note_on_c, 0, 64, 0
1, 33053, Note_on_c, 0, 71, 0
1, 33059, Note_on_c, 0, 60, 0
1, 33062, Note_on_c, 0, 54, 0
1, 33063, Note_on_c, 9, 51, 0
1, 33063, Control_c, 0, 64, 127
1, 33073, Note_on_c, 0, 72, 30
1, 33076, Note_on_c, 9, 51, 33
1, 33090, Note_on_c, 0, 72, 0
1, 33097, Note_on_c, 9, 51, 0
1, 33100, Note_on_c, 0, 74, 62
1, 33105, Note_on_c, 0, 72, 35
1, 33113, Note_on_c, 0, 72, 0
1, 33113, Note_on_c, 0, 74, 0
1, 33116, Note_on_c, 9, 51, 54
1, 33117, Control_c, 0, 64, 0
1, 33118, Note_on_c, 1, 41, 0
1, 33121, Note_on_c, 0, 62, 26
1, 33121, Note_on_c, 1, 34, 51
1, 33122, Note_on_c, 0, 58, 43
1, 33123, Note_on_c, 0, 53, 27
1, 33125, Note_on_c, 0, 57, 30
1, 33132, Note_on_c, 0, 76, 44
1, 33140, Note_on_c, 0, 62, 0
1, 33146, Note_on_c, 0, 76, 0
1, 33157, Note_on_c, 0, 57, 0
1, 33173, Note_on_c, 0, 53, 0
1, 33182, Note_on_c, 9, 51, 0
1, 33191, Note_on_c, 0, 58, 0
1, 33196, Note_on_c, 9, 51, 35
1, 33212, Note_on_c, 9, 51, 0
1, 33217, Note_on_c, 1, 34, 0
1, 33234, Note_on_c, 0, 78, 68
1, 33236, Note_on_c, 0, 66, 62
1, 33236, Note_on_c, 0, 57, 37
1, 33236, Note_on_c, 0, 62, 46
1, 33236, Note_on_c, 9, 51, 56
1, 33237, Note_on_c, 0, 58, 31
1, 33237, Note_on_c, 9, 44, 46
1, 33239, Note_on_c, 1, 34, 53
1, 33240, Note_on_c, 0, 53, 25
1, 33246, Note_on_c, 0, 62, 0
1, 33248, Note_on_c, 0, 78, 0
1, 33249, Note_on_c, 0, 66, 0
1, 33253, Note_on_c, 0, 57, 0
1, 33255, Note_on_c, 0, 53, 0
1, 33261, Note_on_c, 0, 58, 0
1, 33281, Note_on_c, 0, 79, 75
1, 33282, Note_on_c, 0, 67, 75
1, 33284, Note_on_c, 0, 57, 57
1, 33285, Note_on_c, 9, 44, 0
1, 33285, Note_on_c, 0, 58, 42
1, 33286, Note_on_c, 0, 62, 58
1, 33287, Note_on_c, 0, 53, 42
1, 33298, Control_c, 0, 64, 127
1, 33317, Note_on_c, 9, 35, 52
1, 33326, Note_on_c, 9, 51, 0
1, 33327, Note_on_c, 9, 35, 0
1, 33335, Note_on_c, 0, 67, 0
1, 33338, Note_on_c, 0, 79, 0
1, 33342, Note_on_c, 0, 62, 0
1, 33344, Note_on_c, 0, 57, 0
1, 33348, Note_on_c, 0, 53, 0
1, 33356, Note_on_c, 9, 51, 40
1, 33357, Note_on_c, 0, 58, 0
1, 33357, Note_on_c, 9, 35, 36
1, 33359, Note_on_c, 1, 34, 0
1, 33361, Note_on_c, 1, 36, 57
1, 33365, Control_c, 0, 64, 0
1, 33368, Note_on_c, 9, 35, 0
1, 33369, Note_on_c, 0, 58, 33
1, 33369, Note_on_c, 0, 52, 52
1, 33371, Note_on_c, 0, 81, 75
1, 33371, Note_on_c, 0, 62, 48
1, 33371, Note_on_c, 0, 69, 68
1, 33389, Control_c, 0, 64, 127
1, 33390, Note_on_c, 0, 81, 0
1, 33391, Note_on_c, 0, 69, 0
1, 33392, Note_on_c, 0, 52, 0
1, 33393, Note_on_c, 0, 62, 0
1, 33407, Note_on_c, 0, 58, 0
1, 33408, Control_c, 0, 64, 0
1, 33416, Note_on_c, 0, 58, 29
1, 33416, Note_on_c, 0, 82, 76
1, 33416, Note_on_c, 0, 70, 69
1, 33417, Note_on_c, 0, 62, 58
1, 33418, Note_on_c, 0, 52, 62
1, 33425, Note_on_c, 0, 77, 25
1, 33431, Note_on_c, 9, 51, 0
1, 33436, Note_on_c, 9, 51, 26
1, 33437, Control_c, 0, 64, 127
1, 33456, Note_on_c, 0, 77, 0
1, 33457, Note_on_c, 9, 51, 0
1, 33461, Note_on_c, 1, 36, 0
1, 33462, Note_on_c, 0, 62, 0
1, 33464, Note_on_c, 0, 52, 0
1, 33466, Note_on_c, 0, 70, 0
1, 33468, Note_on_c, 0, 82, 0
1, 33472, Note_on_c, 0, 58, 0
1, 33472, Control_c, 0, 64, 0
1, 33476, Note_on_c, 9, 51, 46
1, 33477, Note_on_c, 1, 36, 51
1, 33477, Note_on_c, 9, 44, 50
1, 33487, Control_c, 0, 64, 127
1, 33488, Note_on_c, 0, 58, 46
1, 33489, Note_on_c, 0, 72, 47
1, 33489, Note_on_c, 0, 84, 62
1, 33489, Note_on_c, 0, 52, 60
1, 33491, Note_on_c, 0, 62, 41
1, 33496, Note_on_c, 0, 52, 0
1, 33496, Note_on_c, 0, 72, 0
1, 33498, Note_on_c, 0, 62, 0
1, 33500, Note_on_c, 0, 84, 0
1, 33508, Note_on_c, 0, 58, 0
1, 33517, Note_on_c, 9, 44, 0
1, 33520, Note_on_c, 9, 35, 51
1, 33524, Control_c, 0, 64, 0
1, 33527, Note_on_c, 9, 35, 0
1, 33528, Note_on_c, 0, 91, 71
1, 33529, Note_on_c, 0, 58, 56
1, 33531, Note_on_c, 0, 79, 55
1, 33532, Note_on_c, 0, 52, 62
1, 33534, Note_on_c, 0, 62, 39
1, 33538, Note_on_c, 9, 51, 0
1, 33544, Note_on_c, 0, 62, 0
1, 33546, Control_c, 0, 64, 127
1, 33554, Note_on_c, 0, 91, 0
1, 33554, Note_on_c, 0, 52, 0
1, 33556, Note_on_c, 9, 51, 27
1, 33557, Note_on_c, 9, 35, 45
1, 33559, Note_on_c, 0, 79, 0
1, 33562, Note_on_c, 0, 58, 0
1, 33565, Note_on_c, 9, 35, 0
1, 33566, Note_on_c, 1, 34, 30
1, 33571, Note_on_c, 9, 51, 0
1, 33588, Note_on_c, 1, 34, 0
1, 33594, Note_on_c, 1, 36, 0
1, 33596, Note_on_c, 9, 51, 62
1, 33599, Note_on_c, 1, 41, 56
1, 33600, Control_c, 0, 64, 0
1, 33602, Note_on_c, 0, 57, 42
1, 33602, Note_on_c, 0, 88, 53
1, 33603, Note_on_c, 0, 76, 51
1, 33604, Note_on_c, 0, 84, 48
1, 33605, Note_on_c, 0, 60, 44
1, 33605, Note_on_c, 0, 55, 42
1, 33613, Note_on_c, 0, 50, 24
1, 33650, Control_c, 0, 64, 127
1, 33691, Note_on_c, 0, 88, 0
1, 33701, Note_on_c, 1, 41, 0
1, 33701, Note_on_c, 9, 51, 0
1, 33711, Note_on_c, 0, 84, 0
1, 33715, Note_on_c, 9, 51, 39
1, 33716, Note_on_c, 1, 39, 46
1, 33717, Note_on_c, 9, 44, 51
1, 33719, Note_on_c, 0, 76, 0
1, 33727, Note_on_c, 0, 50, 0
1, 33732, Note_on_c, 0, 57, 0
1, 33736, Note_on_c, 0, 60, 0
1, 33741, Note_on_c, 0, 55, 0
1, 33745, Note_on_c, 9, 44, 0
1, 33778, Note_on_c, 9, 51, 0
1, 33795, Note_on_c, 9, 51, 37
1, 33800, Note_on_c, 1, 36, 35
1, 33818, Note_on_c, 9, 51, 0
1, 33823, Note_on_c, 1, 39, 0
1, 33828, Control_c, 0, 64, 0
1, 33828, Note_on_c, 0, 77, 77
1, 33830, Note_on_c, 0, 70, 71
1, 33830, Note_on_c, 0, 72, 67
1, 33830, Note_on_c, 0, 66, 74
1, 33830, Note_on_c, 0, 63, 78
1, 33834, Note_on_c, 1, 36, 0
1, 33836, Note_on_c, 9, 51, 44
1, 33837, Note_on_c, 1, 38, 54
1, 33864, Note_on_c, 0, 70, 0
1, 33865, Note_on_c, 0, 72, 0
1, 33865, Note_on_c, 0, 77, 0
1, 33866, Note_on_c, 0, 66, 0
1, 33866, Note_on_c, 0, 63, 0
1, 33907, Note_on_c, 9, 35, 55
1, 33915, Note_on_c, 9, 35, 0
1, 33922, Note_on_c, 1, 50, 70
1, 33923, Note_on_c, 9, 51, 0
1, 33924, Note_on_c, 1, 38, 0
1, 33943, Note_on_c, 0, 75, 61
1, 33945, Note_on_c, 0, 70, 56
1, 33946, Note_on_c, 0, 66, 67
1, 33946, Note_on_c, 0, 60, 62
1, 33947, Note_on_c, 0, 72, 47
1, 33949, Note_on_c, 1, 50, 0
1, 33956, Note_on_c, 9, 51, 37
1, 33957, Note_on_c, 9, 44, 67
1, 33961, Note_on_c, 1, 45, 42
1, 33984, Note_on_c, 9, 44, 0
1, 33987, Note_on_c, 0, 66, 0
1, 33988, Note_on_c, 0, 60, 0
1, 33989, Note_on_c, 0, 75, 0
1, 33989, Note_on_c, 0, 72, 0
1, 33991, Note_on_c, 0, 70, 0
1, 34008, Note_on_c, 9, 51, 0
1, 34022, Note_on_c, 9, 35, 66
1, 34026, Note_on_c, 1, 45, 0
1, 34034, Note_on_c, 9, 35, 0
1, 34036, Note_on_c, 9, 51, 48
1, 34043, Note_on_c, 1, 39, 33
1, 34044, Note_on_c, 1, 42, 36
1, 34055, Note_on_c, 1, 39, 0
1, 34056, Note_on_c, 1, 42, 0
1, 34057, Note_on_c, 9, 51, 0
1, 34063, Note_on_c, 9, 46, 51
1, 34065, Note_on_c, 9, 35, 62
1, 34068, Note_on_c, 0, 62, 51
1, 34069, Note_on_c, 0, 57, 36
1, 34070, Note_on_c, 0, 65, 59
1, 34070, Note_on_c, 0, 58, 38
1, 34070, Note_on_c, 0, 70, 42
1, 34072, Note_on_c, 0, 69, 57
1, 34072, Note_on_c, 0, 74, 53
1, 34074, Note_on_c, 0, 53, 34
1, 34075, Control_c, 0, 64, 127
1, 34075, Note_on_c, 1, 43, 48
1, 34076, Note_on_c, 9, 51, 50
1, 34089, Note_on_c, 9, 46, 0
1, 34102, Note_on_c, 0, 74, 0
1, 34102, Note_on_c, 0, 69, 0
1, 34102, Note_on_c, 0, 65, 0
1, 34102, Note_on_c, 9, 35, 0
1, 34105, Note_on_c, 0, 62, 0
1, 34107, Note_on_c, 0, 70, 0
1, 34110, Note_on_c, 0, 58, 0
1, 34113, Note_on_c, 0, 57, 0
1, 34120, Note_on_c, 0, 53, 0
1, 34145, Note_on_c, 0, 78, 68
1, 34145, Note_on_c, 0, 66, 71
1, 34147, Note_on_c, 0, 62, 57
1, 34147, Note_on_c, 0, 57, 48
1, 34148, Note_on_c, 0, 53, 39
1, 34148, Note_on_c, 0, 58, 46
1, 34166, Note_on_c, 9, 51, 0
1, 34167, Note_on_c, 0, 66, 0
1, 34168, Note_on_c, 0, 78, 0
1, 34169, Note_on_c, 0, 62, 0
1, 34175, Note_on_c, 0, 53, 0
1, 34178, Note_on_c, 0, 57, 0
1, 34181, Note_on_c, 0, 58, 0
1, 34186, Control_c, 0, 64, 0
1, 34190, Note_on_c, 1, 43, 0
1, 34190, Note_on_c, 1, 35, 54
1, 34191, Note_on_c, 0, 53, 39
1, 34191, Note_on_c, 0, 58, 20
1, 34191, Note_on_c, 0, 62, 47
1, 34192, Note_on_c, 0, 57, 30
1, 34192, Note_on_c, 0, 79, 59
1, 34193, Note_on_c, 0, 67, 49
1, 34196, Note_on_c, 9, 51, 50
1, 34197, Note_on_c, 9, 44, 64
1, 34203, Control_c, 0, 64, 127
1, 34225, Note_on_c, 9, 44, 0
1, 34232, Note_on_c, 0, 62, 0
1, 34233, Note_on_c, 0, 67, 0
1, 34234, Note_on_c, 0, 57, 0
1, 34234, Note_on_c, 0, 79, 0
1, 34245, Note_on_c, 0, 53, 0
1, 34249, Note_on_c, 0, 58, 0
1, 34264, Note_on_c, 0, 58, 60
1, 34265, Control_c, 0, 64, 0
1, 34267, Note_on_c, 0, 52, 68
1, 34267, Note_on_c, 0, 74, 66
1, 34268, Note_on_c, 0, 62, 66
1, 34268, Note_on_c, 0, 78, 58
1, 34268, Note_on_c, 0, 69, 70
1, 34268, Note_on_c, 0, 81, 71
1, 34276, Note_on_c, 9, 35, 45
1, 34286, Note_on_c, 9, 35, 0
1, 34293, Note_on_c, 9, 51, 0
1, 34306, Note_on_c, 1, 35, 0
1, 34311, Control_c, 0, 64, 127
1, 34313, Note_on_c, 1, 37, 52
1, 34316, Note_on_c, 9, 51, 47
1, 34345, Note_on_c, 0, 78, 0
1, 34347, Note_on_c, 0, 81, 0
1, 34353, Note_on_c, 0, 74, 0
1, 34361, Note_on_c, 0, 62, 0
1, 34363, Note_on_c, 0, 69, 0
1, 34364, Note_on_c, 0, 52, 0
1, 34385, Note_on_c, 0, 58, 0
1, 34416, Note_on_c, 9, 51, 0
1, 34420, Control_c, 0, 64, 0
1, 34424, Note_on_c, 0, 72, 34
1, 34425, Note_on_c, 0, 76, 46
1, 34426, Note_on_c, 0, 58, 37
1, 34428, Note_on_c, 0, 52, 44
1, 34430, Note_on_c, 0, 64, 25
1, 34436, Note_on_c, 9, 51, 42
1, 34437, Note_on_c, 9, 44, 60
1, 34439, Note_on_c, 1, 37, 0
1, 34439, Note_on_c, 1, 36, 47
1, 34467, Note_on_c, 0, 52, 0
1, 34472, Note_on_c, 9, 44, 0
1, 34473, Note_on_c, 0, 58, 0
1, 34474, Note_on_c, 0, 64, 0
1, 34475, Control_c, 0, 64, 127
1, 34488, Note_on_c, 0, 72, 0
1, 34492, Note_on_c, 0, 76, 0
1, 34518, Note_on_c, 1, 34, 31
1, 34521, Note_on_c, 9, 35, 47
1, 34536, Note_on_c, 9, 51, 0
1, 34539, Note_on_c, 1, 36, 0
1, 34539, Control_c, 0, 64, 0
1, 34541, Note_on_c, 9, 35, 0
1, 34549, Note_on_c, 0, 76, 41
1, 34550, Note_on_c, 1, 34, 0
1, 34550, Note_on_c, 0, 72, 35
1, 34551, Note_on_c, 0, 57, 31
1, 34551, Note_on_c, 0, 60, 32
1, 34552, Note_on_c, 0, 50, 33
1, 34552, Note_on_c, 0, 69, 36
1, 34553, Note_on_c, 0, 55, 32
1, 34554, Note_on_c, 0, 64, 31
1, 34556, Note_on_c, 1, 41, 50
1, 34556, Note_on_c, 9, 51, 42
1, 34566, Note_on_c, 9, 35, 24
1, 34581, Note_on_c, 9, 35, 0
1, 34613, Control_c, 0, 64, 127
1, 34645, Note_on_c, 1, 36, 32
1, 34646, Note_on_c, 0, 64, 0
1, 34654, Note_on_c, 0, 69, 0
1, 34657, Note_on_c, 9, 51, 0
1, 34659, Note_on_c, 1, 41, 0
1, 34671, Note_on_c, 0, 76, 0
1, 34674, Note_on_c, 0, 72, 0
1, 34675, Note_on_c, 1, 36, 0
1, 34676, Note_on_c, 9, 51, 46
1, 34677, Note_on_c, 1, 41, 51
1, 34677, Note_on_c, 9, 44, 58
1, 34708, Note_on_c, 0, 50, 0
1, 34711, Note_on_c, 0, 57, 0
1, 34717, Note_on_c, 9, 44, 0
1, 34720, Note_on_c, 0, 60, 0
1, 34737, Note_on_c, 0, 55, 0
1, 34741, Note_on_c, 9, 51, 0
1, 34752, Note_on_c, 9, 35, 48
1, 34756, Note_on_c, 9, 51, 39
1, 34762, Note_on_c, 9, 35, 0
1, 34764, Note_on_c, 1, 36, 28
1, 34776, Note_on_c, 1, 39, 39
1, 34778, Note_on_c, 1, 36, 0
1, 34778, Note_on_c, 1, 41, 0
1, 34782, Note_on_c, 9, 51, 0
1, 34791, Control_c, 0, 64, 0
1, 34793, Note_on_c, 0, 61, 57
1, 34794, Note_on_c, 0, 56, 53
1, 34796, Note_on_c, 9, 51, 49
1, 34798, Note_on_c, 0, 77, 71
1, 34799, Note_on_c, 0, 50, 33
1, 34801, Note_on_c, 1, 39, 0
1, 34807, Note_on_c, 1, 40, 54
1, 34809, Note_on_c, 0, 78, 20
1, 34818, Note_on_c, 0, 78, 0
1, 34821, Note_on_c, 0, 77, 0
1, 34826, Note_on_c, 0, 79, 55
1, 34864, Note_on_c, 0, 79, 0
1, 34884, Note_on_c, 0, 50, 0
1, 34884, Note_on_c, 0, 61, 0
1, 34888, Note_on_c, 0, 56, 0
1, 34894, Note_on_c, 1, 40, 0
1, 34896, Note_on_c, 9, 51, 0
1, 34902, Note_on_c, 1, 39, 25
1, 34905, Note_on_c, 0, 77, 67
1, 34908, Note_on_c, 0, 56, 50
1, 34909, Note_on_c, 0, 61, 36
1, 34914, Note_on_c, 0, 50, 25
1, 34915, Note_on_c, 1, 39, 0
1, 34916, Note_on_c, 9, 51, 36
1, 34917, Note_on_c, 9, 44, 59
1, 34918, Note_on_c, 1, 40, 51
1, 34945, Note_on_c, 0, 77, 0
1, 34952, Note_on_c, 0, 79, 62
1, 34952, Control_c, 0, 64, 127
1, 34963, Note_on_c, 9, 44, 0
1, 34986, Note_on_c, 0, 61, 0
1, 34989, Note_on_c, 0, 56, 0
1, 34992, Note_on_c, 0, 50, 0
1, 35013, Note_on_c, 9, 51, 0
1, 35018, Note_on_c, 1, 40, 0
1, 35023, Note_on_c, 0, 79, 0
1, 35030, Control_c, 0, 64, 0
1, 35033, Note_on_c, 0, 60, 34
1, 35033, Note_on_c, 0, 75, 47
1, 35033, Note_on_c, 1, 39, 47
1, 35034, Note_on_c, 0, 55, 35
1, 35036, Note_on_c, 9, 51, 49
1, 35037, Note_on_c, 0, 49, 34
1, 35040, Note_on_c, 9, 35, 34
1, 35051, Note_on_c, 9, 35, 0
1, 35063, Control_c, 0, 64, 127
1, 35075, Note_on_c, 0, 75, 0
1, 35087, Note_on_c, 0, 60, 0
1, 35108, Note_on_c, 0, 57, 67
1, 35125, Note_on_c, 0, 57, 0
1, 35131, Control_c, 0, 64, 0
1, 35132, Note_on_c, 1, 39, 0
1, 35133, Note_on_c, 0, 62, 70
1, 35136, Note_on_c, 9, 51, 0
1, 35142, Note_on_c, 0, 49, 0
1, 35156, Note_on_c, 9, 51, 43
1, 35157, Note_on_c, 0, 55, 0
1, 35157, Note_on_c, 9, 44, 61
1, 35159, Note_on_c, 1, 39, 50
1, 35160, Note_on_c, 0, 67, 70
1, 35163, Note_on_c, 0, 62, 0
1, 35175, Note_on_c, 0, 67, 0
1, 35194, Note_on_c, 0, 69, 68
1, 35195, Note_on_c, 9, 44, 0
1, 35195, Note_on_c, 0, 55, 31
1, 35197, Note_on_c, 0, 60, 23
1, 35201, Note_on_c, 0, 49, 24
1, 35211, Note_on_c, 0, 69, 0
1, 35220, Note_on_c, 0, 60, 0
1, 35220, Note_on_c, 0, 49, 0
1, 35221, Note_on_c, 0, 74, 62
1, 35242, Note_on_c, 0, 74, 0
1, 35247, Note_on_c, 1, 36, 28
1, 35248, Note_on_c, 9, 35, 29
1, 35252, Note_on_c, 0, 79, 72
1, 35253, Note_on_c, 9, 51, 0
1, 35258, Control_c, 0, 64, 127
1, 35259, Note_on_c, 9, 35, 0
1, 35260, Note_on_c, 1, 39, 0
1, 35265, Note_on_c, 1, 36, 0
1, 35275, Note_on_c, 0, 79, 0
1, 35275, Control_c, 0, 64, 0
1, 35275, Note_on_c, 1, 38, 47
1, 35276, Note_on_c, 9, 51, 40
1, 35277, Note_on_c, 0, 55, 0
1, 35282, Note_on_c, 0, 48, 35
1, 35283, Note_on_c, 0, 81, 75
1, 35283, Note_on_c, 0, 59, 33
1, 35285, Note_on_c, 0, 54, 36
1, 35306, Note_on_c, 0, 81, 0
1, 35319, Note_on_c, 0, 78, 65
1, 35346, Note_on_c, 9, 51, 0
1, 35349, Note_on_c, 0, 59, 0
1, 35356, Control_c, 0, 64, 127
1, 35356, Note_on_c, 9, 51, 48
1, 35363, Note_on_c, 1, 45, 62
1, 35366, Note_on_c, 9, 34, 39
1, 35368, Note_on_c, 1, 38, 0
1, 35377, Note_on_c, 9, 51, 0
1, 35377, Note_on_c, 9, 34, 0
1, 35380, Control_c, 0, 64, 0
1, 35383, Note_on_c, 0, 78, 0
1, 35388, Note_on_c, 1, 45, 0
1, 35392, Note_on_c, 0, 74, 69
1, 35396, Note_on_c, 0, 59, 37
1, 35396, Note_on_c, 9, 51, 52
1, 35397, Note_on_c, 9, 44, 63
1, 35400, Note_on_c, 1, 44, 45
1, 35403, Control_c, 0, 64, 127
1, 35420, Note_on_c, 0, 54, 0
1, 35423, Note_on_c, 0, 74, 0
1, 35429, Note_on_c, 0, 48, 0
1, 35432, Note_on_c, 0, 70, 56
1, 35439, Note_on_c, 9, 44, 0
1, 35446, Note_on_c, 0, 59, 0
1, 35450, Note_on_c, 9, 34, 46
1, 35456, Note_on_c, 9, 34, 0
1, 35456, Note_on_c, 0, 70, 0
1, 35475, Note_on_c, 0, 69, 45
1, 35482, Note_on_c, 9, 34, 47
1, 35483, Note_on_c, 1, 38, 36
1, 35490, Note_on_c, 0, 69, 0
1, 35491, Note_on_c, 9, 51, 0
1, 35493, Note_on_c, 1, 38, 0
1, 35504, Control_c, 0, 64, 0
1, 35507, Note_on_c, 1, 44, 0
1, 35515, Note_on_c, 9, 34, 0
1, 35515, Note_on_c, 0, 62, 29
1, 35516, Note_on_c, 0, 58, 35
1, 35516, Note_on_c, 0, 57, 26
1, 35516, Note_on_c, 1, 43, 47
1, 35516, Note_on_c, 9, 51, 53
1, 35517, Note_on_c, 0, 53, 26
1, 35517, Note_on_c, 0, 69, 64
1, 35522, Note_on_c, 9, 55, 73
1, 35526, Note_on_c, 9, 35, 60
1, 35528, Note_on_c, 9, 55, 0
1, 35535, Note_on_c, 0, 69, 0
1, 35537, Note_on_c, 0, 70, 60
1, 35544, Note_on_c, 9, 35, 0
1, 35559, Note_on_c, 0, 69, 49
1, 35566, Note_on_c, 0, 70, 0
1, 35571, Note_on_c, 0, 62, 0
1, 35582, Note_on_c, 0, 69, 0
1, 35591, Note_on_c, 0, 66, 38
1, 35605, Note_on_c, 0, 58, 0
1, 35607, Note_on_c, 9, 51, 0
1, 35619, Note_on_c, 0, 66, 0
1, 35636, Note_on_c, 9, 51, 47
1, 35637, Note_on_c, 9, 44, 64
1, 35638, Note_on_c, 0, 62, 34
1, 35639, Note_on_c, 0, 69, 71
1, 35639, Note_on_c, 0, 58, 20
1, 35641, Note_on_c, 1, 43, 0
1, 35644, Note_on_c, 1, 35, 54
1, 35647, Note_on_c, 0, 62, 0
1, 35653, Note_on_c, 0, 53, 0
1, 35653, Note_on_c, 0, 57, 0
1, 35660, Note_on_c, 0, 58, 0
1, 35660, Note_on_c, 0, 69, 0
1, 35680, Note_on_c, 9, 44, 0
1, 35688, Note_on_c, 9, 51, 0
1, 35715, Note_on_c, 9, 35, 48
1, 35716, Note_on_c, 9, 51, 39
1, 35721, Note_on_c, 0, 66, 60
1, 35722, Note_on_c, 9, 35, 0
1, 35723, Note_on_c, 0, 58, 23
1, 35735, Control_c, 0, 64, 127
1, 35739, Note_on_c, 1, 35, 0
1, 35741, Note_on_c, 9, 51, 0
1, 35744, Note_on_c, 1, 36, 18
1, 35752, Note_on_c, 0, 66, 0
1, 35752, Control_c, 0, 64, 0
1, 35753, Note_on_c, 0, 58, 0
1, 35756, Note_on_c, 1, 36, 0
1, 35756, Note_on_c, 9, 51, 46
1, 35758, Note_on_c, 1, 37, 58
1, 35762, Note_on_c, 0, 59, 40
1, 35762, Note_on_c, 0, 67, 51
1, 35764, Note_on_c, 0, 63, 34
1, 35766, Note_on_c, 0, 53, 34
1, 35790, Control_c, 0, 64, 127
1, 35824, Note_on_c, 0, 59, 0
1, 35840, Note_on_c, 0, 63, 0
1, 35851, Note_on_c, 9, 51, 0
1, 35856, Note_on_c, 0, 53, 0
1, 35871, Note_on_c, 0, 67, 0
1, 35871, Control_c, 0, 64, 0
1, 35874, Note_on_c, 0, 69, 49
1, 35876, Note_on_c, 1, 36, 50
1, 35876, Note_on_c, 9, 51, 46
1, 35877, Note_on_c, 1, 37, 0
1, 35877, Note_on_c, 9, 44, 67
1, 35878, Note_on_c, 0, 62, 33
1, 35879, Note_on_c, 0, 58, 29
1, 35879, Note_on_c, 0, 52, 32
1, 35901, Control_c, 0, 64, 127
1, 35905, Note_on_c, 9, 44, 0
1, 35912, Note_on_c, 0, 62, 0
1, 35921, Note_on_c, 0, 52, 0
1, 35927, Note_on_c, 0, 69, 0
1, 35962, Note_on_c, 0, 58, 0
1, 35965, Note_on_c, 1, 34, 31
1, 35966, Note_on_c, 9, 51, 0
1, 35980, Note_on_c, 1, 36, 0
1, 35990, Control_c, 0, 64, 0
1, 35993, Note_on_c, 1, 34, 0
1, 35995, Note_on_c, 0, 67, 40
1, 35995, Note_on_c, 0, 64, 34
1, 35996, Note_on_c, 0, 60, 21
1, 35996, Note_on_c, 9, 35, 44
1, 35996, Note_on_c, 9, 51, 51
1, 35997, Note_on_c, 0, 55, 25
1, 35998, Note_on_c, 1, 41, 46
1, 35999, Note_on_c, 0, 57, 29
1, 36008, Note_on_c, 9, 35, 0
1, 36036, Control_c, 0, 64, 127
1, 36051, Note_on_c, 0, 57, 0
1, 36053, Note_on_c, 0, 60, 0
1, 36053, Note_on_c, 0, 67, 0
1, 36056, Note_on_c, 0, 64, 0
1, 36059, Note_on_c, 0, 55, 0
1, 36083, Note_on_c, 1, 36, 62
1, 36087, Note_on_c, 9, 51, 0
1, 36105, Note_on_c, 1, 41, 0
1, 36110, Note_on_c, 1, 36, 0
1, 36116, Note_on_c, 9, 51, 35
1, 36117, Note_on_c, 9, 44, 63
1, 36122, Note_on_c, 1, 31, 50
1, 36132, Control_c, 0, 64, 0
1, 36152, Note_on_c, 9, 44, 0
1, 36173, Note_on_c, 9, 51, 0
1, 36187, Note_on_c, 9, 35, 49
1, 36196, Note_on_c, 9, 51, 39
1, 36200, Note_on_c, 9, 35, 0
1, 36202, Control_c, 0, 64, 127
1, 36207, Note_on_c, 9, 51, 0
1, 36226, Note_on_c, 1, 31, 0
1, 36236, Note_on_c, 1, 32, 59
1, 36236, Note_on_c, 9, 51, 43
1, 36237, Control_c, 0, 64, 0
1, 36240, Note_on_c, 0, 53, 30
1, 36242, Note_on_c, 0, 65, 34
1, 36243, Note_on_c, 0, 44, 36
1, 36243, Note_on_c, 0, 59, 39
1, 36245, Note_on_c, 0, 62, 43
1, 36245, Note_on_c, 0, 56, 22
1, 36263, Control_c, 0, 64, 127
1, 36264, Note_on_c, 0, 56, 0
1, 36264, Note_on_c, 0, 59, 0
1, 36271, Note_on_c, 0, 62, 0
1, 36273, Note_on_c, 0, 44, 0
1, 36276, Note_on_c, 0, 65, 0
1, 36286, Note_on_c, 0, 53, 0
1, 36318, Note_on_c, 0, 60, 56
1, 36318, Note_on_c, 0, 65, 49
1, 36320, Note_on_c, 0, 53, 36
1, 36320, Note_on_c, 0, 57, 39
1, 36320, Control_c, 0, 64, 0
1, 36322, Note_on_c, 0, 45, 44
1, 36332, Note_on_c, 9, 51, 0
1, 36346, Note_on_c, 1, 32, 0
1, 36354, Note_on_c, 1, 33, 51
1, 36355, Control_c, 0, 64, 127
1, 36356, Note_on_c, 9, 51, 42
1, 36357, Note_on_c, 9, 44, 58
1, 36368, Note_on_c, 0, 45, 0
1, 36376, Note_on_c, 0, 57, 0
1, 36381, Note_on_c, 0, 53, 0
1, 36397, Note_on_c, 9, 44, 0
1, 36410, Note_on_c, 0, 60, 0
1, 36411, Note_on_c, 9, 51, 0
1, 36411, Note_on_c, 0, 65, 0
1, 36436, Note_on_c, 9, 51, 48
1, 36457, Note_on_c, 9, 51, 0
1, 36467, Note_on_c, 1, 33, 0
1, 36475, Note_on_c, 1, 34, 40
1, 36476, Note_on_c, 9, 51, 55
1, 36479, Control_c, 0, 64, 0
1, 36481, Note_on_c, 9, 35, 32
1, 36485, Note_on_c, 0, 53, 60
1, 36486, Note_on_c, 0, 46, 32
1, 36500, Note_on_c, 0, 53, 0
1, 36519, Note_on_c, 0, 55, 32
1, 36534, Note_on_c, 0, 55, 0
1, 36536, Note_on_c, 9, 35, 0
1, 36544, Note_on_c, 0, 57, 36
1, 36564, Note_on_c, 0, 57, 0
1, 36567, Note_on_c, 9, 35, 33
1, 36573, Note_on_c, 9, 51, 0
1, 36578, Note_on_c, 1, 34, 0
1, 36578, Note_on_c, 9, 35, 0
1, 36578, Note_on_c, 0, 60, 75
1, 36595, Note_on_c, 1, 34, 44
1, 36596, Note_on_c, 9, 51, 42
1, 36597, Note_on_c, 9, 44, 57
1, 36598, Note_on_c, 0, 60, 0
1, 36602, Note_on_c, 0, 53, 25
1, 36610, Note_on_c, 0, 57, 30
1, 36623, Note_on_c, 0, 57, 0
1, 36633, Note_on_c, 0, 46, 0
1, 36635, Note_on_c, 9, 44, 0
1, 36641, Note_on_c, 0, 58, 42
1, 36643, Note_on_c, 0, 53, 0
1, 36663, Note_on_c, 0, 58, 0
1, 36667, Note_on_c, 0, 60, 34
1, 36684, Note_on_c, 0, 60, 0
1, 36684, Note_on_c, 1, 31, 27
1, 36686, Note_on_c, 9, 51, 0
1, 36695, Control_c, 0, 64, 127
1, 36703, Note_on_c, 0, 62, 49
1, 36709, Note_on_c, 1, 34, 0
1, 36716, Note_on_c, 9, 51, 51
1, 36717, Note_on_c, 1, 35, 47
1, 36721, Note_on_c, 1, 31, 0
1, 36723, Note_on_c, 0, 62, 0
1, 36724, Control_c, 0, 64, 0
1, 36729, Note_on_c, 0, 59, 34
1, 36731, Note_on_c, 0, 65, 51
1, 36733, Note_on_c, 0, 56, 35
1, 36734, Note_on_c, 0, 53, 31
1, 36736, Note_on_c, 0, 50, 19
1, 36749, Note_on_c, 0, 65, 0
1, 36765, Note_on_c, 0, 68, 51
1, 36776, Note_on_c, 0, 68, 0
1, 36780, Note_on_c, 0, 59, 0
1, 36789, Note_on_c, 0, 71, 53
1, 36796, Note_on_c, 0, 56, 0
1, 36802, Note_on_c, 0, 71, 0
1, 36803, Note_on_c, 9, 51, 0
1, 36813, Note_on_c, 0, 53, 0
1, 36815, Note_on_c, 1, 35, 0
1, 36821, Note_on_c, 0, 74, 71
1, 36823, Note_on_c, 1, 34, 27
1, 36831, Control_c, 0, 64, 127
1, 36836, Note_on_c, 1, 35, 60
1, 36836, Note_on_c, 9, 51, 53
1, 36837, Note_on_c, 9, 44, 56
1, 36838, Note_on_c, 1, 34, 0
1, 36841, Note_on_c, 0, 74, 0
1, 36845, Control_c, 0, 64, 0
1, 36846, Note_on_c, 0, 53, 14
1, 36847, Note_on_c, 0, 56, 32
1, 36848, Note_on_c, 0, 59, 28
1, 36852, Note_on_c, 0, 77, 50
1, 36861, Note_on_c, 0, 77, 0
1, 36875, Note_on_c, 9, 44, 0
1, 36884, Note_on_c, 0, 79, 55
1, 36890, Note_on_c, 0, 79, 0
1, 36893, Note_on_c, 0, 50, 0
1, 36893, Note_on_c, 9, 51, 0
1, 36894, Note_on_c, 0, 56, 0
1, 36895, Note_on_c, 0, 53, 0
1, 36907, Note_on_c, 0, 59, 0
1, 36913, Note_on_c, 0, 80, 46
1, 36914, Note_on_c, 0, 81, 47
1, 36916, Note_on_c, 9, 51, 51
1, 36928, Note_on_c, 0, 81, 0
1, 36931, Note_on_c, 9, 51, 0
1, 36931, Note_on_c, 0, 80, 0
1, 36940, Note_on_c, 0, 83, 74
1, 36943, Control_c, 0, 64, 127
1, 36955, Note_on_c, 1, 36, 43
1, 36956, Note_on_c, 9, 51, 52
1, 36957, Control_c, 0, 64, 0
1, 36959, Note_on_c, 1, 35, 0
1, 36961, Note_on_c, 0, 83, 0
1, 36962, Note_on_c, 9, 35, 30
1, 36968, Note_on_c, 0, 81, 61
1, 36969, Note_on_c, 0, 60, 36
1, 36970, Note_on_c, 9, 35, 0
1, 36987, Note_on_c, 0, 83, 41
1, 36990, Note_on_c, 0, 60, 0
1, 36994, Note_on_c, 0, 81, 0
1, 36994, Note_on_c, 0, 83, 0
1, 37004, Note_on_c, 0, 77, 58
1, 37017, Note_on_c, 0, 77, 0
1, 37042, Note_on_c, 9, 35, 45
1, 37045, Note_on_c, 1, 34, 25
1, 37050, Note_on_c, 9, 35, 0
1, 37052, Note_on_c, 9, 51, 0
1, 37067, Note_on_c, 1, 36, 0
1, 37075, Note_on_c, 1, 34, 0
1, 37076, Note_on_c, 0, 65, 54
1, 37076, Note_on_c, 9, 51, 37
1, 37077, Note_on_c, 1, 41, 44
1, 37077, Note_on_c, 9, 44, 55
1, 37079, Note_on_c, 0, 60, 38
1, 37083, Note_on_c, 0, 57, 29
1, 37086, Note_on_c, 0, 60, 0
1, 37087, Note_on_c, 0, 65, 0
1, 37090, Note_on_c, 0, 57, 0
1, 37115, Note_on_c, 9, 44, 0
1, 37133, Note_on_c, 9, 51, 0
1, 37152, Control_c, 0, 64, 127
1, 37156, Note_on_c, 9, 51, 32
1, 37163, Note_on_c, 1, 36, 36
1, 37172, Note_on_c, 9, 51, 0
1, 37186, Note_on_c, 1, 36, 0
1, 37187, Note_on_c, 1, 41, 0
1, 37196, Note_on_c, 9, 51, 30
1, 37200, Note_on_c, 1, 47, 62
1, 37201, Note_on_c, 9, 35, 32
1, 37233, Control_c, 0, 64, 0
1, 37236, Note_on_c, 0, 61, 71
1, 37237, Note_on_c, 0, 57, 49
1, 37237, Note_on_c, 0, 51, 44
1, 37242, Note_on_c, 9, 51, 0
1, 37250, Control_c, 0, 64, 127
1, 37254, Note_on_c, 0, 51, 0
1, 37257, Note_on_c, 9, 35, 0
1, 37260, Note_on_c, 0, 61, 0
1, 37264, Note_on_c, 0, 65, 67
1, 37268, Note_on_c, 0, 51, 46
1, 37276, Note_on_c, 9, 51, 64
1, 37280, Note_on_c, 9, 35, 31
1, 37282, Note_on_c, 1, 36, 23
1, 37283, Note_on_c, 0, 65, 0
1, 37285, Note_on_c, 0, 51, 0
1, 37288, Note_on_c, 0, 57, 0
1, 37290, Note_on_c, 9, 35, 0
1, 37293, Note_on_c, 0, 68, 72
1, 37294, Note_on_c, 0, 57, 24
1, 37296, Note_on_c, 9, 51, 0
1, 37296, Note_on_c, 0, 51, 43
1, 37296, Note_on_c, 0, 61, 51
1, 37297, Note_on_c, 1, 36, 0
1, 37305, Note_on_c, 0, 61, 0
1, 37308, Note_on_c, 1, 47, 0
1, 37312, Note_on_c, 0, 68, 0
1, 37312, Note_on_c, 0, 57, 0
1, 37312, Note_on_c, 0, 51, 0
1, 37316, Note_on_c, 9, 51, 48
1, 37317, Note_on_c, 9, 44, 54
1, 37322, Note_on_c, 0, 73, 71
1, 37323, Note_on_c, 0, 51, 68
1, 37323, Note_on_c, 0, 57, 62
1, 37323, Note_on_c, 1, 39, 42
1, 37324, Note_on_c, 0, 61, 51
1, 37339, Note_on_c, 0, 61, 0
1, 37342, Note_on_c, 0, 73, 0
1, 37346, Note_on_c, 0, 57, 0
1, 37346, Note_on_c, 0, 51, 0
1, 37352, Note_on_c, 9, 44, 0
1, 37355, Note_on_c, 0, 51, 54
1, 37357, Note_on_c, 0, 61, 53
1, 37357, Note_on_c, 0, 57, 61
1, 37361, Note_on_c, 0, 80, 75
1, 37398, Note_on_c, 1, 39, 0
1, 37408, Note_on_c, 1, 36, 50
1, 37411, Note_on_c, 0, 61, 0
1, 37413, Note_on_c, 9, 51, 0
1, 37422, Note_on_c, 1, 36, 0
1, 37424, Note_on_c, 0, 80, 0
1, 37425, Note_on_c, 0, 51, 0
1, 37432, Note_on_c, 0, 57, 0
1, 37436, Note_on_c, 9, 51, 55
1, 37443, Note_on_c, 0, 57, 36
1, 37443, Note_on_c, 0, 77, 58
1, 37447, Control_c, 0, 64, 0
1, 37447, Note_on_c, 0, 60, 30
1, 37449, Note_on_c, 0, 53, 36
1, 37453, Note_on_c, 1, 34, 38
1, 37455, Note_on_c, 0, 50, 25
1, 37471, Note_on_c, 0, 50, 0
1, 37472, Note_on_c, 0, 60, 0
1, 37476, Note_on_c, 0, 53, 0
1, 37479, Note_on_c, 0, 57, 0
1, 37485, Note_on_c, 0, 74, 65
1, 37487, Note_on_c, 0, 60, 46
1, 37491, Note_on_c, 0, 57, 41
1, 37492, Note_on_c, 0, 77, 0
1, 37492, Note_on_c, 0, 53, 37
1, 37492, Note_on_c, 0, 50, 39
1, 37509, Control_c, 0, 64, 127
1, 37516, Note_on_c, 0, 77, 13
1, 37532, Note_on_c, 9, 51, 0
1, 37534, Note_on_c, 0, 50, 0
1, 37536, Note_on_c, 0, 60, 0
1, 37544, Note_on_c, 1, 34, 0
1, 37546, Note_on_c, 0, 53, 0
1, 37547, Note_on_c, 0, 57, 0
1, 37556, Note_on_c, 9, 51, 36
1, 37557, Note_on_c, 9, 44, 52
1, 37560, Note_on_c, 1, 34, 53
1, 37562, Note_on_c, 0, 77, 0
1, 37563, Note_on_c, 0, 74, 0
1, 37567, Control_c, 0, 64, 0
1, 37568, Note_on_c, 0, 70, 61
1, 37571, Note_on_c, 0, 57, 35
1, 37571, Note_on_c, 0, 60, 32
1, 37571, Note_on_c, 0, 53, 40
1, 37572, Note_on_c, 0, 65, 34
1, 37586, Control_c, 0, 64, 127
1, 37587, Note_on_c, 9, 44, 0
1, 37591, Note_on_c, 0, 65, 0
1, 37609, Note_on_c, 0, 65, 50
1, 37614, Note_on_c, 0, 50, 33
1, 37616, Note_on_c, 9, 51, 0
1, 37621, Note_on_c, 0, 60, 0
1, 37633, Note_on_c, 0, 70, 0
1, 37636, Note_on_c, 9, 51, 29
1, 37637, Note_on_c, 9, 35, 66
1, 37638, Note_on_c, 0, 65, 0
1, 37645, Note_on_c, 0, 57, 0
1, 37658, Note_on_c, 9, 35, 0
1, 37661, Note_on_c, 9, 51, 0
1, 37661, Note_on_c, 0, 53, 0
1, 37672, Note_on_c, 0, 50, 0
1, 37672, Control_c, 0, 64, 0
1, 37676, Note_on_c, 1, 34, 0
1, 37676, Note_on_c, 9, 51, 55
1, 37679, Note_on_c, 0, 53, 38
1, 37680, Note_on_c, 9, 35, 43
1, 37681, Note_on_c, 0, 68, 57
1, 37682, Note_on_c, 0, 59, 47
1, 37682, Note_on_c, 1, 35, 44
1, 37687, Note_on_c, 0, 64, 35
1, 37688, Control_c, 0, 64, 127
1, 37700, Note_on_c, 0, 59, 0
1, 37708, Note_on_c, 0, 64, 0
1, 37712, Note_on_c, 0, 68, 0
1, 37721, Control_c, 0, 64, 0
1, 37727, Note_on_c, 0, 71, 73
1, 37727, Note_on_c, 0, 56, 65
1, 37728, Note_on_c, 0, 62, 65
1, 37729, Note_on_c, 0, 67, 52
1, 37745, Note_on_c, 9, 35, 0
1, 37752, Control_c, 0, 64, 127
1, 37757, Note_on_c, 0, 71, 0
1, 37759, Note_on_c, 0, 62, 0
1, 37760, Note_on_c, 0, 67, 0
1, 37768, Note_on_c, 1, 35, 0
1, 37769, Note_on_c, 1, 34, 42
1, 37781, Note_on_c, 9, 51, 0
1, 37791, Control_c, 0, 64, 0
1, 37794, Note_on_c, 0, 53, 0
1, 37794, Note_on_c, 1, 34, 0
1, 37796, Note_on_c, 9, 51, 39
1, 37797, Note_on_c, 9, 44, 42
1, 37798, Note_on_c, 0, 56, 0
1, 37798, Note_on_c, 0, 65, 55
1, 37799, Note_on_c, 1, 35, 45
1, 37801, Note_on_c, 0, 59, 54
1, 37801, Note_on_c, 0, 74, 46
1, 37802, Control_c, 0, 64, 127
1, 37808, Note_on_c, 0, 74, 0
1, 37813, Note_on_c, 0, 65, 0
1, 37825, Note_on_c, 0, 59, 0
1, 37828, Note_on_c, 9, 44, 0
1, 37843, Control_c, 0, 64, 0
1, 37843, Note_on_c, 0, 71, 63
1, 37844, Note_on_c, 0, 62, 60
1, 37844, Note_on_c, 0, 77, 55
1, 37865, Note_on_c, 0, 62, 0
1, 37865, Control_c, 0, 64, 127
1, 37872, Note_on_c, 0, 71, 0
1, 37876, Note_on_c, 9, 53, 71
1, 37881, Note_on_c, 9, 51, 0
1, 37885, Note_on_c, 1, 34, 35
1, 37894, Note_on_c, 1, 35, 0
1, 37902, Note_on_c, 0, 77, 0
1, 37906, Note_on_c, 9, 53, 0
1, 37911, Note_on_c, 1, 34, 0
1, 37916, Note_on_c, 9, 51, 31
1, 37918, Note_on_c, 1, 36, 46
1, 37919, Note_on_c, 0, 77, 42
1, 37922, Note_on_c, 0, 65, 40
1, 37922, Control_c, 0, 64, 0
1, 37922, Note_on_c, 0, 53, 33
1, 37923, Note_on_c, 0, 45, 38
1, 37927, Note_on_c, 0, 69, 34
1, 37929, Note_on_c, 0, 72, 33
1, 37955, Control_c, 0, 64, 127
1, 37960, Note_on_c, 0, 77, 0
1, 37963, Note_on_c, 0, 69, 0
1, 37965, Note_on_c, 0, 72, 0
1, 37970, Note_on_c, 0, 65, 0
1, 37977, Note_on_c, 0, 53, 0
1, 38017, Note_on_c, 1, 36, 0
1, 38018, Note_on_c, 9, 51, 0
1, 38034, Control_c, 0, 64, 0
1, 38034, Note_on_c, 1, 36, 46
1, 38036, Note_on_c, 9, 51, 46
1, 38037, Note_on_c, 9, 44, 40
1, 38039, Note_on_c, 0, 65, 43
1, 38039, Note_on_c, 0, 60, 31
1, 38039, Note_on_c, 0, 53, 32
1, 38058, Control_c, 0, 64, 127
1, 38065, Note_on_c, 9, 44, 0
1, 38089, Note_on_c, 0, 45, 0
1, 38098, Note_on_c, 0, 65, 0
1, 38108, Note_on_c, 0, 53, 0
1, 38113, Note_on_c, 0, 60, 0
1, 38126, Note_on_c, 1, 34, 25
1, 38138, Note_on_c, 9, 51, 0
1, 38145, Control_c, 0, 64, 0
1, 38147, Note_on_c, 1, 36, 0
1, 38153, Note_on_c, 1, 34, 0
1, 38156, Note_on_c, 9, 51, 46
1, 38159, Note_on_c, 1, 41, 42
1, 38232, Note_on_c, 0, 57, 58
1, 38232, Note_on_c, 0, 65, 47
1, 38233, Note_on_c, 0, 62, 62
1, 38233, Note_on_c, 0, 69, 53
1, 38233, Note_on_c, 0, 60, 38
1, 38243, Note_on_c, 1, 36, 33
1, 38243, Note_on_c, 9, 35, 50
1, 38251, Note_on_c, 9, 35, 0
1, 38252, Note_on_c, 0, 62, 0
1, 38255, Control_c, 0, 64, 127
1, 38256, Note_on_c, 0, 69, 0
1, 38257, Note_on_c, 0, 65, 0
1, 38259, Note_on_c, 0, 60, 0
1, 38261, Note_on_c, 9, 51, 0
1, 38266, Control_c, 0, 64, 0
1, 38267, Note_on_c, 1, 36, 0
1, 38267, Note_on_c, 1, 41, 0
1, 38271, Note_on_c, 0, 57, 0
1, 38275, Note_on_c, 0, 55, 47
1, 38275, Note_on_c, 0, 67, 37
1, 38276, Note_on_c, 9, 51, 36
1, 38277, Note_on_c, 9, 44, 63
1, 38278, Note_on_c, 0, 60, 23
1, 38281, Note_on_c, 0, 62, 41
1, 38285, Note_on_c, 1, 42, 32
1, 38300, Note_on_c, 0, 60, 0
1, 38305, Note_on_c, 9, 44, 0
1, 38306, Note_on_c, 0, 55, 0
1, 38311, Note_on_c, 0, 67, 0
1, 38311, Note_on_c, 0, 65, 1
1, 38319, Note_on_c, 0, 62, 0
1, 38335, Note_on_c, 0, 65, 0
1, 38336, Note_on_c, 9, 51, 0
1, 38349, Note_on_c, 1, 42, 0
1, 38356, Note_on_c, 0, 53, 37
1, 38356, Note_on_c, 9, 51, 33
1, 38358, Note_on_c, 0, 65, 43
1, 38359, Note_on_c, 0, 62, 44
1, 38359, Note_on_c, 0, 57, 39
1, 38362, Note_on_c, 9, 35, 54
1, 38364, Note_on_c, 0, 46, 25
1, 38366, Note_on_c, 1, 36, 33
1, 38374, Note_on_c, 9, 35, 0
1, 38376, Note_on_c, 9, 51, 0
1, 38379, Note_on_c, 1, 36, 0
1, 38396, Note_on_c, 1, 46, 56
1, 38396, Note_on_c, 9, 51, 39
1, 38411, Control_c, 0, 64, 127
1, 38442, Note_on_c, 0, 57, 0
1, 38469, Note_on_c, 0, 62, 0
1, 38481, Note_on_c, 0, 65, 0
1, 38481, Note_on_c, 1, 36, 20
1, 38484, Note_on_c, 0, 57, 22
1, 38486, Note_on_c, 9, 51, 0
1, 38490, Note_on_c, 0, 57, 0
1, 38497, Note_on_c, 1, 46, 0
1, 38499, Note_on_c, 1, 36, 0
1, 38516, Control_c, 0, 64, 0
1, 38516, Note_on_c, 9, 51, 43
1, 38517, Note_on_c, 9, 44, 61
1, 38520, Note_on_c, 1, 46, 46
1, 38522, Note_on_c, 0, 65, 55
1, 38522, Note_on_c, 0, 57, 54
1, 38524, Note_on_c, 0, 62, 48
1, 38535, Note_on_c, 0, 57, 0
1, 38537, Note_on_c, 0, 62, 0
1, 38543, Note_on_c, 0, 53, 0
1, 38544, Note_on_c, 0, 65, 0
1, 38550, Note_on_c, 0, 46, 0
1, 38555, Note_on_c, 9, 44, 0
1, 38600, Note_on_c, 0, 67, 70
1, 38601, Note_on_c, 1, 36, 37
1, 38602, Note_on_c, 0, 62, 65
1, 38602, Note_on_c, 0, 55, 48
1, 38604, Note_on_c, 0, 57, 59
1, 38606, Note_on_c, 9, 51, 0
1, 38612, Note_on_c, 0, 65, 19
1, 38616, Note_on_c, 1, 46, 0
1, 38618, Note_on_c, 0, 57, 0
1, 38619, Control_c, 0, 64, 127
1, 38623, Note_on_c, 1, 36, 0
1, 38625, Note_on_c, 0, 62, 0
1, 38630, Note_on_c, 0, 67, 0
1, 38635, Note_on_c, 0, 65, 0
1, 38636, Note_on_c, 9, 51, 34
1, 38639, Note_on_c, 0, 55, 0
1, 38639, Control_c, 0, 64, 0
1, 38644, Note_on_c, 1, 44, 38
1, 38648, Note_on_c, 0, 68, 51
1, 38648, Note_on_c, 0, 56, 53
1, 38648, Note_on_c, 0, 59, 44
1, 38649, Note_on_c, 0, 65, 32
1, 38650, Note_on_c, 0, 62, 41
1, 38675, Note_on_c, 0, 62, 0
1, 38680, Note_on_c, 0, 68, 0
1, 38682, Control_c, 0, 64, 127
1, 38683, Note_on_c, 0, 59, 0
1, 38684, Note_on_c, 0, 65, 0
1, 38691, Note_on_c, 1, 44, 0
1, 38696, Note_on_c, 0, 56, 0
1, 38701, Control_c, 0, 64, 0
1, 38713, Note_on_c, 9, 35, 30
1, 38719, Note_on_c, 0, 59, 72
1, 38719, Note_on_c, 1, 41, 46
1, 38722, Note_on_c, 0, 65, 68
1, 38722, Note_on_c, 0, 71, 74
1, 38724, Note_on_c, 0, 62, 68
1, 38725, Note_on_c, 9, 35, 0
1, 38725, Note_on_c, 0, 68, 62
1, 38725, Note_on_c, 0, 69, 60
1, 38727, Note_on_c, 9, 51, 0
1, 38730, Control_c, 0, 64, 127
1, 38731, Note_on_c, 0, 69, 0
1, 38740, Note_on_c, 0, 68, 0
1, 38744, Note_on_c, 1, 41, 0
1, 38745, Note_on_c, 0, 71, 0
1, 38748, Note_on_c, 0, 65, 0
1, 38749, Note_on_c, 0, 62, 0
1, 38756, Note_on_c, 9, 51, 59
1, 38757, Note_on_c, 9, 44, 59
1, 38758, Note_on_c, 0, 59, 0
1, 38758, Note_on_c, 1, 38, 37
1, 38760, Note_on_c, 9, 40, 31
1, 38764, Control_c, 0, 64, 0
1, 38767, Note_on_c, 9, 40, 0
1, 38767, Note_on_c, 0, 56, 49
1, 38771, Note_on_c, 0, 59, 42
1, 38773, Note_on_c, 0, 65, 28
1, 38774, Note_on_c, 0, 68, 33
1, 38775, Note_on_c, 0, 62, 38
1, 38792, Note_on_c, 9, 44, 0
1, 38796, Note_on_c, 9, 40, 51
1, 38799, Note_on_c, 0, 59, 0
1, 38802, Note_on_c, 0, 62, 0
1, 38802, Note_on_c, 0, 68, 0
1, 38803, Note_on_c, 9, 40, 0
1, 38809, Note_on_c, 0, 65, 0
1, 38812, Note_on_c, 0, 56, 0
1, 38818, Note_on_c, 9, 51, 0
1, 38836, Note_on_c, 9, 51, 33
1, 38838, Note_on_c, 1, 34, 36
1, 38839, Note_on_c, 0, 69, 71
1, 38840, Note_on_c, 0, 65, 60
1, 38840, Note_on_c, 0, 53, 65
1, 38841, Note_on_c, 0, 60, 65
1, 38841, Note_on_c, 9, 35, 33
1, 38846, Note_on_c, 1, 34, 0
1, 38850, Note_on_c, 1, 38, 0
1, 38852, Note_on_c, 9, 35, 0
1, 38854, Note_on_c, 1, 35, 28
1, 38857, Note_on_c, 9, 51, 0
1, 38863, Note_on_c, 1, 35, 0
1, 38868, Note_on_c, 0, 69, 0
1, 38872, Note_on_c, 0, 60, 0
1, 38874, Note_on_c, 0, 65, 0
1, 38874, Note_on_c, 0, 53, 0
1, 38876, Note_on_c, 9, 51, 42
1, 38878, Note_on_c, 9, 40, 50
1, 38879, Note_on_c, 1, 41, 50
1, 38890, Note_on_c, 9, 40, 0
1, 38915, Note_on_c, 9, 40, 50
1, 38922, Note_on_c, 9, 40, 0
1, 38950, Note_on_c, 0, 53, 48
1, 38954, Note_on_c, 0, 60, 60
1, 38954, Note_on_c, 0, 65, 58
1, 38955, Note_on_c, 0, 57, 58
1, 38956, Note_on_c, 9, 35, 41
1, 38964, Note_on_c, 9, 35, 0
1, 38973, Note_on_c, 1, 41, 0
1, 38976, Note_on_c, 9, 51, 0
1, 38992, Note_on_c, 9, 40, 48
1, 38994, Note_on_c, 1, 41, 46
1, 38996, Note_on_c, 9, 51, 30
1, 38997, Note_on_c, 9, 44, 60
1, 38998, Note_on_c, 0, 45, 51
1, 38999, Note_on_c, 0, 53, 0
1, 39002, Note_on_c, 9, 40, 0
1, 39013, Note_on_c, 0, 45, 0
1, 39017, Note_on_c, 0, 57, 0
1, 39038, Note_on_c, 0, 60, 0
1, 39040, Note_on_c, 9, 44, 0
1, 39050, Note_on_c, 0, 65, 0
1, 39073, Note_on_c, 0, 51, 31
1, 39078, Note_on_c, 0, 51, 0
1, 39081, Control_c, 0, 64, 127
1, 39087, Note_on_c, 1, 36, 35
1, 39091, Note_on_c, 9, 51, 0
1, 39091, Note_on_c, 1, 41, 0
1, 39094, Note_on_c, 1, 36, 0
1, 39103, Control_c, 0, 64, 0
1, 39109, Note_on_c, 0, 70, 62
1, 39111, Note_on_c, 0, 58, 42
1, 39111, Note_on_c, 0, 53, 51
1, 39112, Note_on_c, 0, 65, 52
1, 39112, Note_on_c, 0, 62, 52
1, 39116, Note_on_c, 9, 51, 39
1, 39117, Note_on_c, 1, 29, 60
1, 39158, Note_on_c, 0, 58, 0
1, 39167, Note_on_c, 0, 70, 0
1, 39168, Control_c, 0, 64, 127
1, 39169, Note_on_c, 0, 62, 0
1, 39176, Note_on_c, 0, 65, 0
1, 39177, Note_on_c, 0, 53, 0
1, 39189, Note_on_c, 0, 65, 49
1, 39189, Note_on_c, 0, 60, 53
1, 39191, Note_on_c, 0, 53, 43
1, 39191, Note_on_c, 0, 69, 62
1, 39197, Control_c, 0, 64, 0
1, 39198, Note_on_c, 9, 35, 35
1, 39203, Note_on_c, 1, 36, 28
1, 39207, Note_on_c, 9, 51, 0
1, 39209, Note_on_c, 9, 35, 0
1, 39221, Note_on_c, 1, 29, 0
1, 39224, Control_c, 0, 64, 127
1, 39228, Note_on_c, 1, 36, 0
1, 39236, Note_on_c, 9, 51, 36
1, 39237, Note_on_c, 1, 41, 50
1, 39237, Note_on_c, 9, 44, 67
1, 39262, Note_on_c, 0, 53, 0
1, 39273, Note_on_c, 0, 60, 0
1, 39277, Note_on_c, 9, 35, 49
1, 39278, Note_on_c, 0, 69, 0
1, 39282, Note_on_c, 0, 65, 0
1, 39284, Note_on_c, 9, 35, 0
1, 39287, Note_on_c, 9, 44, 0
1, 39315, Note_on_c, 9, 35, 67
1, 39320, Note_on_c, 1, 41, 0
1, 39322, Note_on_c, 1, 36, 35
1, 39331, Note_on_c, 9, 51, 0
1, 39343, Note_on_c, 9, 35, 0
1, 39346, Control_c, 0, 64, 0
1, 39347, Note_on_c, 1, 36, 0
1, 39349, Note_on_c, 0, 72, 69
1, 39353, Note_on_c, 0, 69, 71
1, 39353, Note_on_c, 0, 65, 74
1, 39356, Note_on_c, 0, 60, 67
1, 39356, Note_on_c, 9, 51, 50
1, 39357, Note_on_c, 0, 55, 49
1, 39357, Note_on_c, 1, 41, 47
1, 39358, Note_on_c, 0, 61, 62
1, 39361, Note_on_c, 9, 35, 38
1, 39373, Note_on_c, 9, 35, 0
1, 39374, Note_on_c, 0, 60, 0
1, 39383, Note_on_c, 0, 65, 0
1, 39385, Note_on_c, 0, 69, 0
1, 39385, Control_c, 0, 64, 127
1, 39391, Note_on_c, 0, 72, 0
1, 39439, Note_on_c, 0, 84, 84
1, 39453, Note_on_c, 9, 51, 0
1, 39476, Note_on_c, 9, 51, 34
1, 39477, Note_on_c, 9, 44, 67
1, 39478, Note_on_c, 1, 41, 0
1, 39480, Note_on_c, 1, 32, 51
1, 39483, Note_on_c, 0, 84, 0
1, 39516, Note_on_c, 0, 55, 0
1, 39524, Note_on_c, 0, 61, 0
1, 39530, Note_on_c, 9, 44, 0
1, 39533, Note_on_c, 9, 51, 0
1, 39556, Note_on_c, 9, 51, 39
1, 39577, Note_on_c, 9, 51, 0
1, 39586, Note_on_c, 1, 32, 0
1, 39596, Note_on_c, 9, 51, 35
1, 39600, Note_on_c, 1, 33, 44
1, 39606, Control_c, 0, 64, 0
1, 39606, Note_on_c, 0, 64, 28
1, 39607, Note_on_c, 0, 81, 69
1, 39609, Note_on_c, 0, 57, 43
1, 39609, Note_on_c, 0, 69, 47
1, 39611, Note_on_c, 0, 60, 30
1, 39611, Note_on_c, 0, 53, 21
1, 39616, Note_on_c, 0, 69, 0
1, 39619, Note_on_c, 0, 64, 0
1, 39625, Note_on_c, 0, 81, 0
1, 39628, Note_on_c, 0, 57, 0
1, 39629, Control_c, 0, 64, 127
1, 39630, Note_on_c, 0, 53, 0
1, 39632, Note_on_c, 0, 60, 0
1, 39681, Note_on_c, 9, 34, 43
1, 39683, Note_on_c, 0, 88, 77
1, 39685, Note_on_c, 0, 76, 67
1, 39685, Note_on_c, 0, 59, 54
1, 39685, Note_on_c, 0, 63, 60
1, 39686, Note_on_c, 0, 82, 51
1, 39686, Note_on_c, 0, 53, 52
1, 39690, Note_on_c, 1, 31, 44
1, 39691, Note_on_c, 0, 82, 0
1, 39691, Note_on_c, 9, 51, 0
1, 39703, Note_on_c, 1, 33, 0
1, 39707, Note_on_c, 0, 76, 0
1, 39708, Note_on_c, 9, 34, 0
1, 39709, Note_on_c, 0, 82, 19
1, 39709, Note_on_c, 0, 84, 27
1, 39711, Note_on_c, 0, 88, 0
1, 39713, Note_on_c, 0, 63, 0
1, 39715, Note_on_c, 0, 82, 0
1, 39715, Note_on_c, 0, 53, 0
1, 39715, Note_on_c, 1, 31, 0
1, 39715, Note_on_c, 0, 84, 0
1, 39716, Note_on_c, 9, 51, 43
1, 39717, Note_on_c, 9, 44, 63
1, 39720, Note_on_c, 0, 59, 0
1, 39725, Note_on_c, 1, 38, 50
1, 39727, Note_on_c, 9, 35, 39
1, 39731, Control_c, 0, 64, 0
1, 39733, Note_on_c, 0, 87, 57
1, 39734, Note_on_c, 0, 53, 45
1, 39735, Note_on_c, 0, 63, 45
1, 39736, Note_on_c, 0, 59, 53
1, 39737, Note_on_c, 0, 82, 50
1, 39739, Note_on_c, 0, 75, 25
1, 39744, Note_on_c, 9, 35, 0
1, 39754, Control_c, 0, 64, 127
1, 39766, Note_on_c, 0, 59, 0
1, 39777, Note_on_c, 9, 44, 0
1, 39781, Note_on_c, 0, 82, 0
1, 39781, Note_on_c, 0, 53, 0
1, 39784, Note_on_c, 0, 63, 0
1, 39785, Note_on_c, 0, 75, 0
1, 39789, Note_on_c, 0, 87, 0
1, 39791, Note_on_c, 9, 51, 0
1, 39806, Note_on_c, 0, 86, 74
1, 39807, Note_on_c, 0, 64, 69
1, 39807, Note_on_c, 0, 53, 53
1, 39807, Note_on_c, 0, 60, 67
1, 39807, Note_on_c, 0, 74, 69
1, 39807, Note_on_c, 0, 81, 78
1, 39807, Note_on_c, 1, 33, 47
1, 39808, Note_on_c, 0, 57, 64
1, 39811, Control_c, 0, 64, 0
1, 39815, Note_on_c, 1, 38, 0
1, 39817, Note_on_c, 1, 33, 0
1, 39836, Note_on_c, 9, 51, 50
1, 39843, Control_c, 0, 64, 127
1, 39843, Note_on_c, 1, 31, 42
1, 39859, Note_on_c, 0, 74, 0
1, 39861, Note_on_c, 0, 81, 0
1, 39865, Note_on_c, 0, 86, 0
1, 39873, Note_on_c, 0, 64, 0
1, 39876, Note_on_c, 0, 60, 0
1, 39879, Note_on_c, 0, 53, 0
1, 39881, Note_on_c, 0, 57, 0
1, 39917, Note_on_c, 9, 51, 0
1, 39921, Control_c, 0, 64, 0
1, 39922, Note_on_c, 0, 75, 76
1, 39922, Note_on_c, 0, 83, 78
1, 39923, Note_on_c, 0, 87, 74
1, 39923, Note_on_c, 0, 59, 75
1, 39923, Note_on_c, 0, 63, 80
1, 39925, Note_on_c, 0, 53, 71
1, 39956, Note_on_c, 9, 51, 46
1, 39957, Control_c, 0, 64, 127
1, 39957, Note_on_c, 9, 44, 61
1, 39962, Note_on_c, 1, 31, 0
1, 39962, Note_on_c, 1, 43, 55
1, 40015, Note_on_c, 9, 44, 0
1, 40022, Note_on_c, 0, 59, 0
1, 40022, Note_on_c, 0, 83, 0
1, 40028, Note_on_c, 9, 51, 0
1, 40032, Note_on_c, 0, 75, 0
1, 40036, Note_on_c, 9, 59, 54
1, 40037, Note_on_c, 0, 63, 0
1, 40041, Note_on_c, 0, 87, 0
1, 40041, Note_on_c, 1, 34, 38
1, 40042, Note_on_c, 9, 35, 35
1, 40045, Note_on_c, 1, 43, 0
1, 40049, Note_on_c, 0, 53, 0
1, 40054, Note_on_c, 9, 35, 0
1, 40064, Note_on_c, 1, 34, 0
1, 40066, Note_on_c, 9, 59, 0
1, 40076, Control_c, 0, 64, 0
1, 40076, Note_on_c, 9, 51, 35
1, 40077, Note_on_c, 1, 36, 33
1, 40079, Note_on_c, 0, 60, 52
1, 40080, Note_on_c, 0, 64, 56
1, 40080, Note_on_c, 0, 88, 58
1, 40082, Note_on_c, 0, 76, 51
1, 40083, Note_on_c, 0, 53, 35
1, 40083, Note_on_c, 0, 57, 49
1, 40085, Note_on_c, 0, 83, 50
1, 40085, Note_on_c, 9, 35, 30
1, 40098, Note_on_c, 9, 35, 0
1, 40120, Note_on_c, 0, 76, 0
1, 40126, Note_on_c, 0, 83, 0
1, 40126, Note_on_c, 0, 64, 0
1, 40127, Note_on_c, 0, 88, 0
1, 40129, Note_on_c, 0, 57, 0
1, 40132, Note_on_c, 0, 60, 0
1, 40135, Note_on_c, 0, 53, 0
1, 40173, Note_on_c, 9, 51, 0
1, 40182, Note_on_c, 1, 36, 0
1, 40195, Note_on_c, 0, 84, 48
1, 40196, Note_on_c, 9, 51, 39
1, 40197, Note_on_c, 9, 44, 63
1, 40198, Note_on_c, 0, 63, 55
1, 40198, Note_on_c, 0, 92, 58
1, 40198, Note_on_c, 1, 37, 35
1, 40199, Note_on_c, 0, 80, 53
1, 40199, Note_on_c, 0, 59, 45
1, 40200, Note_on_c, 0, 53, 39
1, 40206, Note_on_c, 0, 57, 22
1, 40214, Note_on_c, 0, 57, 0
1, 40223, Note_on_c, 0, 59, 0
1, 40223, Note_on_c, 0, 84, 0
1, 40231, Note_on_c, 0, 85, 17
1, 40234, Note_on_c, 0, 63, 0
1, 40241, Note_on_c, 0, 53, 0
1, 40242, Control_c, 0, 64, 127
1, 40247, Note_on_c, 9, 44, 0
1, 40253, Note_on_c, 0, 92, 0
1, 40262, Note_on_c, 0, 85, 0
1, 40263, Note_on_c, 0, 80, 0
1, 40272, Note_on_c, 1, 37, 0
1, 40275, Note_on_c, 9, 35, 38
1, 40277, Note_on_c, 9, 51, 0
1, 40285, Note_on_c, 1, 40, 59
1, 40286, Note_on_c, 9, 35, 0
1, 40304, Note_on_c, 1, 40, 0
1, 40312, Control_c, 0, 64, 0
1, 40314, Note_on_c, 0, 91, 49
1, 40315, Note_on_c, 0, 60, 34
1, 40316, Note_on_c, 9, 51, 44
1, 40317, Note_on_c, 0, 50, 38
1, 40317, Note_on_c, 0, 57, 34
1, 40318, Note_on_c, 0, 55, 32
1, 40319, Note_on_c, 0, 84, 38
1, 40319, Note_on_c, 0, 88, 42
1, 40320, Note_on_c, 0, 79, 21
1, 40323, Note_on_c, 1, 41, 42
1, 40380, Control_c, 0, 64, 127
1, 40396, Note_on_c, 9, 51, 0
1, 40411, Note_on_c, 1, 41, 0
1, 40420, Note_on_c, 0, 88, 0
1, 40426, Note_on_c, 0, 91, 0
1, 40436, Note_on_c, 0, 84, 0
1, 40436, Note_on_c, 9, 51, 37
1, 40437, Note_on_c, 1, 41, 48
1, 40437, Note_on_c, 9, 44, 53
1, 40439, Note_on_c, 0, 79, 0
1, 40450, Note_on_c, 0, 60, 0
1, 40453, Note_on_c, 0, 50, 0
1, 40454, Note_on_c, 0, 57, 0
1, 40475, Note_on_c, 0, 55, 0
1, 40487, Note_on_c, 9, 44, 0
1, 40511, Note_on_c, 9, 51, 0
1, 40516, Note_on_c, 9, 54, 38
1, 40517, Note_on_c, 9, 35, 38
1, 40527, Note_on_c, 9, 35, 0
1, 40527, Note_on_c, 1, 36, 33
1, 40532, Note_on_c, 0, 53, 32
1, 40534, Note_on_c, 0, 55, 39
1, 40540, Note_on_c, 0, 55, 0
1, 40540, Note_on_c, 1, 36, 0
1, 40540, Note_on_c, 1, 41, 0
1, 40542, Note_on_c, 0, 54, 32
1, 40545, Control_c, 0, 64, 0
1, 40547, Note_on_c, 9, 54, 0
1, 40547, Note_on_c, 0, 53, 0
1, 40547, Note_on_c, 0, 72, 67
1, 40548, Note_on_c, 0, 54, 0
1, 40548, Note_on_c, 0, 56, 37
1, 40550, Note_on_c, 0, 66, 74
1, 40550, Note_on_c, 0, 63, 68
1, 40550, Note_on_c, 0, 57, 73
1, 40551, Note_on_c, 0, 69, 58
1, 40555, Note_on_c, 0, 56, 0
1, 40555, Note_on_c, 9, 51, 45
1, 40564, Note_on_c, 1, 42, 29
1, 40566, Note_on_c, 0, 66, 0
1, 40566, Note_on_c, 0, 69, 0
1, 40567, Note_on_c, 0, 72, 0
1, 40577, Note_on_c, 0, 63, 0
1, 40592, Note_on_c, 0, 57, 0
1, 40596, Note_on_c, 0, 54, 68
1, 40596, Note_on_c, 0, 69, 70
1, 40597, Note_on_c, 0, 60, 63
1, 40598, Note_on_c, 0, 63, 67
1, 40601, Note_on_c, 0, 66, 44
1, 40624, Control_c, 0, 64, 127
1, 40626, Note_on_c, 0, 66, 0
1, 40627, Note_on_c, 0, 69, 0
1, 40636, Note_on_c, 0, 63, 0
1, 40637, Note_on_c, 0, 60, 0
1, 40648, Note_on_c, 1, 42, 0
1, 40655, Note_on_c, 0, 54, 0
1, 40656, Note_on_c, 9, 51, 0
1, 40660, Control_c, 0, 64, 0
1, 40663, Note_on_c, 0, 60, 49
1, 40665, Note_on_c, 0, 51, 53
1, 40666, Note_on_c, 0, 66, 66
1, 40667, Note_on_c, 0, 63, 37
1, 40667, Note_on_c, 0, 57, 50
1, 40673, Note_on_c, 0, 57, 0
1, 40676, Note_on_c, 9, 51, 37
1, 40677, Note_on_c, 1, 42, 48
1, 40677, Note_on_c, 9, 44, 65
1, 40694, Note_on_c, 0, 66, 0
1, 40695, Note_on_c, 0, 60, 0
1, 40696, Note_on_c, 0, 63, 0
1, 40700, Note_on_c, 0, 48, 40
1, 40703, Note_on_c, 0, 51, 0
1, 40710, Note_on_c, 0, 48, 0
1, 40720, Control_c, 0, 64, 127
1, 40727, Note_on_c, 9, 44, 0
1, 40759, Control_c, 0, 64, 0
1, 40760, Note_on_c, 0, 69, 83
1, 40760, Note_on_c, 0, 62, 85
1, 40760, Note_on_c, 0, 57, 77
1, 40761, Note_on_c, 0, 58, 81
1, 40762, Note_on_c, 1, 36, 27
1, 40766, Note_on_c, 9, 51, 0
1, 40772, Note_on_c, 1, 36, 0
1, 40781, Note_on_c, 1, 42, 0
1, 40796, Note_on_c, 9, 51, 39
1, 40799, Note_on_c, 1, 43, 45
1, 40827, Note_on_c, 1, 43, 0
1, 40851, Note_on_c, 0, 58, 0
1, 40857, Note_on_c, 0, 62, 0
1, 40858, Note_on_c, 0, 69, 0
1, 40870, Note_on_c, 0, 55, 51
1, 40871, Note_on_c, 0, 57, 0
1, 40871, Note_on_c, 0, 67, 65
1, 40871, Note_on_c, 0, 58, 54
1, 40874, Note_on_c, 0, 62, 66
1, 40876, Note_on_c, 9, 53, 49
1, 40877, Note_on_c, 9, 51, 0
1, 40879, Note_on_c, 1, 38, 54
1, 40895, Note_on_c, 0, 58, 0
1, 40901, Note_on_c, 0, 62, 0
1, 40907, Note_on_c, 0, 67, 0
1, 40907, Note_on_c, 9, 53, 0
1, 40908, Note_on_c, 1, 38, 0
1, 40909, Note_on_c, 0, 55, 0
1, 40915, Note_on_c, 0, 54, 45
1, 40916, Note_on_c, 9, 51, 37
1, 40917, Note_on_c, 0, 58, 23
1, 40917, Note_on_c, 9, 44, 62
1, 40921, Note_on_c, 1, 37, 48
1, 40924, Note_on_c, 0, 62, 20
1, 40925, Note_on_c, 0, 66, 25
1, 40943, Note_on_c, 0, 62, 0
1, 40949, Note_on_c, 0, 66, 0
1, 40958, Note_on_c, 0, 58, 0
1, 40965, Note_on_c, 9, 44, 0
1, 40987, Note_on_c, 0, 54, 0
1, 40994, Note_on_c, 0, 67, 63
1, 40995, Note_on_c, 0, 58, 51
1, 40997, Note_on_c, 0, 55, 40
1, 41000, Note_on_c, 9, 35, 41
1, 41013, Note_on_c, 9, 51, 0
1, 41015, Note_on_c, 1, 37, 0
1, 41020, Note_on_c, 0, 58, 0
1, 41026, Note_on_c, 0, 67, 0
1, 41028, Note_on_c, 9, 35, 0
1, 41034, Note_on_c, 1, 36, 46
1, 41036, Note_on_c, 9, 51, 39
1, 41038, Note_on_c, 0, 55, 0
1, 41038, Note_on_c, 0, 58, 38
1, 41039, Note_on_c, 0, 69, 57
1, 41041, Note_on_c, 0, 61, 50
1, 41043, Note_on_c, 0, 57, 44
1, 41043, Note_on_c, 9, 35, 38
1, 41046, Note_on_c, 0, 64, 30
1, 41081, Note_on_c, 0, 64, 0
1, 41082, Note_on_c, 0, 57, 0
1, 41083, Note_on_c, 0, 61, 0
1, 41085, Note_on_c, 0, 69, 0
1, 41089, Note_on_c, 0, 58, 0
1, 41100, Note_on_c, 9, 35, 0
1, 41122, Note_on_c, 9, 51, 0
1, 41123, Note_on_c, 9, 35, 32
1, 41133, Note_on_c, 9, 35, 0
1, 41138, Note_on_c, 1, 36, 0
1, 41152, Note_on_c, 0, 52, 46
1, 41153, Note_on_c, 0, 58, 23
1, 41153, Note_on_c, 0, 64, 45
1, 41155, Note_on_c, 0, 61, 41
1, 41156, Note_on_c, 9, 51, 46
1, 41157, Note_on_c, 9, 46, 56
1, 41159, Note_on_c, 1, 34, 38
1, 41175, Note_on_c, 9, 46, 0
1, 41196, Note_on_c, 0, 52, 0
1, 41196, Note_on_c, 0, 61, 0
1, 41199, Note_on_c, 0, 64, 0
1, 41205, Note_on_c, 0, 58, 0
1, 41231, Note_on_c, 9, 51, 0
1, 41236, Note_on_c, 9, 51, 31
1, 41256, Note_on_c, 9, 51, 0
1, 41266, Note_on_c, 1, 34, 0
1, 41273, Note_on_c, 0, 67, 69
1, 41273, Note_on_c, 0, 60, 60
1, 41273, Note_on_c, 0, 55, 58
1, 41275, Note_on_c, 1, 33, 61
1, 41276, Note_on_c, 9, 51, 58
1, 41277, Note_on_c, 0, 57, 58
1, 41278, Note_on_c, 0, 64, 47
1, 41295, Note_on_c, 0, 64, 0
1, 41297, Note_on_c, 0, 57, 0
1, 41306, Note_on_c, 0, 67, 0
1, 41307, Note_on_c, 0, 55, 0
1, 41313, Note_on_c, 0, 66, 54
1, 41314, Note_on_c, 0, 54, 36
1, 41315, Note_on_c, 0, 57, 40
1, 41327, Note_on_c, 0, 57, 0
1, 41329, Note_on_c, 0, 66, 0
1, 41340, Note_on_c, 0, 65, 36
1, 41342, Note_on_c, 0, 54, 0
1, 41344, Note_on_c, 0, 53, 37
1, 41352, Note_on_c, 0, 65, 0
1, 41361, Note_on_c, 0, 60, 0
1, 41368, Note_on_c, 0, 53, 0
1, 41368, Note_on_c, 1, 31, 35
1, 41376, Note_on_c, 9, 51, 0
1, 41376, Note_on_c, 1, 33, 0
1, 41394, Note_on_c, 1, 39, 54
1, 41396, Note_on_c, 9, 51, 46
1, 41397, Note_on_c, 1, 31, 0
1, 41397, Note_on_c, 9, 44, 62
1, 41405, Note_on_c, 0, 64, 68
1, 41407, Note_on_c, 0, 55, 40
1, 41411, Note_on_c, 0, 52, 50
1, 41413, Note_on_c, 0, 60, 25
1, 41420, Note_on_c, 0, 60, 0
1, 41427, Note_on_c, 0, 55, 0
1, 41435, Note_on_c, 9, 44, 0
1, 41439, Note_on_c, 0, 64, 0
1, 41444, Note_on_c, 0, 60, 49
1, 41444, Note_on_c, 0, 55, 32
1, 41445, Note_on_c, 0, 52, 0
1, 41448, Note_on_c, 0, 48, 32
1, 41472, Note_on_c, 9, 35, 44
1, 41473, Note_on_c, 9, 51, 0
1, 41476, Note_on_c, 0, 55, 0
1, 41476, Note_on_c, 9, 51, 32
1, 41479, Note_on_c, 0, 60, 0
1, 41489, Note_on_c, 0, 48, 0
1, 41490, Control_c, 0, 64, 127
1, 41501, Note_on_c, 9, 51, 0
1, 41501, Control_c, 0, 64, 0
1, 41502, Note_on_c, 9, 35, 0
1, 41508, Note_on_c, 0, 60, 54
1, 41511, Note_on_c, 0, 52, 54
1, 41511, Note_on_c, 0, 55, 46
1, 41515, Note_on_c, 9, 35, 26
1, 41516, Note_on_c, 9, 51, 38
1, 41520, Note_on_c, 1, 38, 64
1, 41526, Note_on_c, 0, 52, 0
1, 41529, Note_on_c, 1, 38, 0
1, 41532, Note_on_c, 1, 39, 0
1, 41544, Note_on_c, 0, 55, 0
1, 41546, Note_on_c, 0, 45, 44
1, 41550, Note_on_c, 9, 35, 0
1, 41558, Note_on_c, 0, 60, 0
1, 41566, Note_on_c, 0, 45, 0
1, 41591, Note_on_c, 9, 51, 0
1, 41595, Note_on_c, 9, 51, 25
1, 41596, Note_on_c, 0, 64, 68
1, 41597, Note_on_c, 0, 59, 71
1, 41597, Note_on_c, 0, 54, 69
1, 41599, Note_on_c, 0, 48, 59
1, 41599, Note_on_c, 1, 33, 66
1, 41616, Note_on_c, 9, 51, 0
1, 41617, Note_on_c, 1, 33, 0
1, 41633, Note_on_c, 1, 30, 58
1, 41636, Note_on_c, 9, 51, 61
1, 41637, Note_on_c, 9, 44, 67
1, 41645, Note_on_c, 0, 48, 0
1, 41650, Note_on_c, 0, 54, 0
1, 41650, Note_on_c, 0, 59, 0
1, 41652, Note_on_c, 0, 64, 0
1, 41672, Note_on_c, 0, 63, 73
1, 41673, Note_on_c, 0, 58, 67
1, 41674, Note_on_c, 0, 38, 52
1, 41674, Note_on_c, 0, 54, 57
1, 41677, Note_on_c, 9, 44, 0
1, 41704, Note_on_c, 0, 38, 0
1, 41716, Note_on_c, 0, 63, 0
1, 41717, Note_on_c, 0, 54, 0
1, 41720, Control_c, 0, 64, 127
1, 41722, Note_on_c, 0, 58, 0
1, 41731, Note_on_c, 9, 51, 0
1, 41742, Control_c, 0, 64, 0
1, 41743, Note_on_c, 1, 30, 0
1, 41752, Note_on_c, 0, 62, 72
1, 41752, Note_on_c, 1, 31, 53
1, 41756, Note_on_c, 0, 57, 60
1, 41756, Note_on_c, 9, 51, 49
1, 41761, Note_on_c, 0, 43, 29
1, 41766, Note_on_c, 0, 43, 0
1, 41773, Note_on_c, 0, 57, 0
1, 41775, Note_on_c, 0, 62, 0
1, 41796, Note_on_c, 9, 31, 44
1, 41809, Note_on_c, 9, 31, 0
1, 41823, Note_on_c, 9, 51, 0
1, 41852, Note_on_c, 1, 31, 0
1, 41853, Control_c, 0, 64, 127
1, 41859, Control_c, 0, 64, 0
1, 41871, Note_on_c, 0, 53, 42
1, 41872, Note_on_c, 0, 67, 58
1, 41873, Note_on_c, 0, 62, 53
1, 41875, Note_on_c, 1, 31, 59
1, 41876, Note_on_c, 0, 57, 48
1, 41876, Note_on_c, 9, 51, 37
1, 41877, Note_on_c, 9, 44, 63
1, 41878, Note_on_c, 9, 31, 34
1, 41891, Note_on_c, 9, 31, 0
1, 41908, Note_on_c, 0, 57, 0
1, 41910, Note_on_c, 9, 44, 0
1, 41912, Note_on_c, 0, 62, 0
1, 41912, Note_on_c, 0, 67, 0
1, 41915, Note_on_c, 0, 53, 0
1, 41956, Note_on_c, 9, 51, 25
1, 41957, Note_on_c, 9, 51, 0
1, 41957, Note_on_c, 9, 35, 55
1, 41967, Note_on_c, 9, 35, 0
1, 41973, Control_c, 0, 64, 127
1, 41978, Control_c, 0, 64, 0
1, 41982, Note_on_c, 9, 51, 0
1, 41989, Note_on_c, 1, 31, 0
1, 41995, Note_on_c, 0, 53, 35
1, 41995, Note_on_c, 1, 36, 60
1, 41996, Note_on_c, 0, 43, 36
1, 41996, Note_on_c, 0, 67, 53
1, 41996, Note_on_c, 9, 51, 53
1, 41999, Note_on_c, 0, 58, 37
1, 42000, Control_c, 0, 64, 127
1, 42001, Note_on_c, 0, 62, 50
1, 42012, Note_on_c, 0, 43, 0
1, 42022, Note_on_c, 0, 53, 0
1, 42038, Note_on_c, 0, 67, 0
1, 42040, Note_on_c, 9, 31, 60
1, 42050, Note_on_c, 0, 62, 0
1, 42052, Note_on_c, 9, 31, 0
1, 42054, Note_on_c, 0, 58, 0
1, 42076, Note_on_c, 0, 62, 84
1, 42076, Note_on_c, 0, 58, 82
1, 42076, Note_on_c, 0, 69, 85
1, 42078, Note_on_c, 0, 57, 68
1, 42096, Note_on_c, 9, 51, 0
1, 42102, Control_c, 0, 64, 0
1, 42106, Note_on_c, 0, 69, 0
1, 42106, Note_on_c, 1, 36, 0
1, 42107, Note_on_c, 0, 58, 0
1, 42113, Note_on_c, 9, 31, 60
1, 42115, Note_on_c, 1, 34, 61
1, 42116, Note_on_c, 0, 58, 39
1, 42116, Note_on_c, 9, 51, 34
1, 42117, Note_on_c, 9, 44, 65
1, 42118, Note_on_c, 0, 67, 55
1, 42120, Note_on_c, 0, 55, 52
1, 42121, Note_on_c, 0, 57, 0
1, 42124, Control_c, 0, 64, 127
1, 42131, Note_on_c, 9, 31, 0
1, 42140, Note_on_c, 0, 55, 0
1, 42152, Note_on_c, 9, 44, 0
1, 42155, Note_on_c, 0, 62, 0
1, 42163, Note_on_c, 0, 67, 0
1, 42166, Note_on_c, 0, 58, 0
1, 42197, Note_on_c, 9, 35, 39
1, 42201, Note_on_c, 9, 51, 0
1, 42217, Note_on_c, 1, 31, 18
1, 42219, Note_on_c, 9, 35, 0
1, 42229, Note_on_c, 1, 31, 0
1, 42230, Note_on_c, 1, 34, 0
1, 42230, Control_c, 0, 64, 0
1, 42233, Note_on_c, 1, 33, 59
1, 42235, Note_on_c, 0, 65, 67
1, 42235, Note_on_c, 0, 41, 57
1, 42235, Note_on_c, 0, 60, 69
1, 42236, Note_on_c, 9, 51, 51
1, 42237, Note_on_c, 0, 57, 58
1, 42238, Note_on_c, 0, 52, 49
1, 42242, Note_on_c, 9, 35, 35
1, 42248, Note_on_c, 0, 52, 0
1, 42267, Note_on_c, 0, 41, 0
1, 42273, Note_on_c, 0, 57, 0
1, 42276, Note_on_c, 0, 60, 0
1, 42278, Note_on_c, 0, 65, 0
1, 42295, Note_on_c, 9, 35, 0
1, 42316, Note_on_c, 9, 35, 45
1, 42324, Note_on_c, 9, 35, 0
1, 42328, Note_on_c, 1, 31, 31
1, 42338, Note_on_c, 9, 51, 0
1, 42340, Note_on_c, 1, 33, 0
1, 42354, Note_on_c, 1, 39, 61
1, 42356, Note_on_c, 9, 51, 32
1, 42357, Note_on_c, 9, 44, 68
1, 42360, Control_c, 0, 64, 127
1, 42363, Note_on_c, 1, 31, 0
1, 42390, Note_on_c, 9, 44, 0
1, 42436, Note_on_c, 9, 51, 31
1, 42437, Note_on_c, 9, 51, 0
1, 42437, Note_on_c, 0, 60, 52
1, 42437, Note_on_c, 0, 64, 68
1, 42437, Note_on_c, 0, 86, 79
1, 42438, Note_on_c, 0, 74, 74
1, 42438, Note_on_c, 0, 81, 79
1, 42439, Note_on_c, 0, 54, 58
1, 42440, Note_on_c, 0, 59, 69
1, 42455, Note_on_c, 0, 74, 0
1, 42459, Note_on_c, 0, 86, 0
1, 42461, Note_on_c, 0, 81, 0
1, 42462, Note_on_c, 0, 54, 0
1, 42462, Note_on_c, 0, 64, 0
1, 42464, Note_on_c, 0, 59, 0
1, 42465, Note_on_c, 1, 39, 0
1, 42466, Note_on_c, 9, 51, 0
1, 42468, Note_on_c, 0, 60, 0
1, 42469, Control_c, 0, 64, 0
1, 42470, Note_on_c, 1, 38, 53
1, 42476, Note_on_c, 9, 51, 43
1, 42479, Note_on_c, 0, 60, 65
1, 42480, Note_on_c, 0, 87, 75
1, 42480, Note_on_c, 0, 82, 74
1, 42480, Note_on_c, 0, 75, 67
1, 42480, Note_on_c, 0, 59, 50
1, 42480, Note_on_c, 0, 64, 71
1, 42481, Note_on_c, 0, 54, 56
1, 42499, Control_c, 0, 64, 127
1, 42515, Note_on_c, 0, 82, 0
1, 42516, Note_on_c, 0, 54, 0
1, 42516, Note_on_c, 0, 75, 0
1, 42518, Note_on_c, 0, 87, 0
1, 42520, Note_on_c, 0, 64, 0
1, 42520, Note_on_c, 0, 59, 0
1, 42521, Note_on_c, 0, 60, 0
1, 42526, Control_c, 0, 64, 0
1, 42528, Note_on_c, 0, 89, 71
1, 42528, Note_on_c, 0, 77, 50
1, 42528, Note_on_c, 0, 64, 55
1, 42529, Note_on_c, 0, 60, 39
1, 42529, Note_on_c, 0, 54, 55
1, 42530, Note_on_c, 0, 59, 50
1, 42530, Note_on_c, 0, 84, 64
1, 42547, Control_c, 0, 64, 127
1, 42551, Note_on_c, 9, 32, 42
1, 42558, Note_on_c, 9, 32, 0
1, 42561, Note_on_c, 1, 38, 0
1, 42562, Note_on_c, 0, 84, 0
1, 42562, Note_on_c, 1, 33, 48
1, 42565, Note_on_c, 0, 89, 0
1, 42566, Note_on_c, 9, 51, 0
1, 42571, Note_on_c, 0, 77, 0
1, 42571, Note_on_c, 0, 54, 0
1, 42573, Note_on_c, 0, 64, 0
1, 42575, Note_on_c, 1, 33, 0
1, 42575, Note_on_c, 0, 60, 0
1, 42577, Note_on_c, 0, 59, 0
1, 42581, Control_c, 0, 64, 0
1, 42587, Note_on_c, 1, 44, 44
1, 42595, Note_on_c, 0, 59, 41
1, 42595, Note_on_c, 0, 86, 64
1, 42596, Note_on_c, 0, 60, 47
1, 42596, Note_on_c, 9, 51, 47
1, 42597, Note_on_c, 9, 44, 65
1, 42598, Note_on_c, 0, 74, 50
1, 42598, Note_on_c, 0, 81, 58
1, 42598, Note_on_c, 0, 64, 54
1, 42599, Note_on_c, 0, 54, 42
1, 42606, Control_c, 0, 64, 127
1, 42625, Note_on_c, 9, 44, 0
1, 42627, Note_on_c, 0, 86, 0
1, 42631, Note_on_c, 0, 81, 0
1, 42635, Note_on_c, 0, 74, 0
1, 42637, Note_on_c, 0, 64, 0
1, 42637, Note_on_c, 0, 59, 0
1, 42641, Note_on_c, 0, 60, 0
1, 42642, Note_on_c, 0, 54, 0
1, 42668, Note_on_c, 0, 81, 62
1, 42669, Note_on_c, 0, 62, 70
1, 42670, Note_on_c, 0, 57, 57
1, 42670, Note_on_c, 0, 58, 47
1, 42672, Note_on_c, 0, 69, 72
1, 42672, Note_on_c, 0, 53, 48
1, 42673, Note_on_c, 9, 51, 0
1, 42676, Note_on_c, 9, 51, 28
1, 42679, Control_c, 0, 64, 0
1, 42682, Note_on_c, 1, 33, 36
1, 42694, Note_on_c, 1, 33, 0
1, 42702, Note_on_c, 9, 51, 0
1, 42703, Note_on_c, 1, 44, 0
1, 42716, Note_on_c, 1, 43, 43
1, 42716, Note_on_c, 9, 51, 56
1, 42723, Control_c, 0, 64, 127
1, 42761, Note_on_c, 0, 69, 0
1, 42778, Note_on_c, 0, 81, 0
1, 42796, Note_on_c, 9, 35, 40
1, 42802, Note_on_c, 0, 62, 0
1, 42808, Note_on_c, 9, 35, 0
1, 42815, Note_on_c, 1, 43, 0
1, 42818, Note_on_c, 9, 51, 0
1, 42836, Control_c, 0, 64, 0
1, 42836, Note_on_c, 1, 43, 40
1, 42836, Note_on_c, 9, 35, 32
1, 42836, Note_on_c, 9, 51, 42
1, 42837, Note_on_c, 0, 62, 34
1, 42837, Note_on_c, 9, 44, 70
1, 42839, Note_on_c, 0, 81, 62
1, 42846, Note_on_c, 0, 62, 0
1, 42851, Note_on_c, 0, 81, 0
1, 42851, Note_on_c, 0, 82, 69
1, 42867, Note_on_c, 9, 44, 0
1, 42867, Note_on_c, 0, 81, 57
1, 42875, Note_on_c, 0, 82, 0
1, 42884, Note_on_c, 0, 81, 0
1, 42892, Note_on_c, 0, 78, 54
1, 42896, Note_on_c, 9, 35, 0
1, 42903, Note_on_c, 0, 57, 0
1, 42905, Note_on_c, 0, 78, 0
1, 42926, Note_on_c, 0, 79, 65
1, 42931, Note_on_c, 9, 51, 0
1, 42945, Note_on_c, 1, 43, 0
1, 42947, Note_on_c, 0, 79, 0
1, 42948, Note_on_c, 0, 58, 0
1, 42956, Note_on_c, 0, 81, 60
1, 42956, Note_on_c, 9, 51, 37
1, 42960, Note_on_c, 1, 37, 35
1, 42964, Note_on_c, 0, 53, 0
1, 42976, Note_on_c, 0, 81, 0
1, 42995, Note_on_c, 0, 82, 75
1, 43001, Note_on_c, 9, 35, 40
1, 43012, Note_on_c, 0, 82, 0
1, 43013, Note_on_c, 9, 35, 0
1, 43024, Note_on_c, 0, 84, 60
1, 43037, Note_on_c, 9, 35, 33
1, 43044, Note_on_c, 0, 84, 0
1, 43048, Note_on_c, 9, 35, 0
1, 43056, Note_on_c, 0, 85, 56
1, 43058, Note_on_c, 9, 51, 0
1, 43061, Note_on_c, 0, 59, 25
1, 43072, Note_on_c, 0, 85, 0
1, 43074, Note_on_c, 1, 37, 0
1, 43076, Note_on_c, 9, 51, 45
1, 43077, Note_on_c, 9, 44, 67
1, 43078, Note_on_c, 9, 35, 51
1, 43079, Note_on_c, 1, 36, 42
1, 43085, Note_on_c, 0, 63, 40
1, 43087, Note_on_c, 0, 87, 72
1, 43089, Note_on_c, 0, 53, 37
1, 43101, Note_on_c, 0, 87, 0
1, 43105, Note_on_c, 9, 44, 0
1, 43106, Note_on_c, 0, 59, 0
1, 43112, Note_on_c, 0, 63, 0
1, 43124, Note_on_c, 0, 53, 0
1, 43125, Note_on_c, 0, 84, 33
1, 43128, Note_on_c, 9, 35, 0
1, 43137, Note_on_c, 0, 84, 0
1, 43143, Note_on_c, 0, 62, 55
1, 43145, Note_on_c, 0, 58, 31
1, 43145, Note_on_c, 0, 86, 67
1, 43147, Note_on_c, 0, 52, 47
1, 43152, Note_on_c, 9, 35, 58
1, 43162, Note_on_c, 9, 35, 0
1, 43164, Note_on_c, 1, 34, 28
1, 43166, Note_on_c, 0, 62, 0
1, 43168, Note_on_c, 0, 52, 0
1, 43174, Note_on_c, 0, 86, 0
1, 43181, Control_c, 0, 64, 127
1, 43182, Note_on_c, 1, 36, 0
1, 43184, Note_on_c, 0, 84, 40
1, 43186, Note_on_c, 9, 51, 0
1, 43189, Note_on_c, 1, 34, 0
1, 43191, Note_on_c, 0, 58, 0
1, 43193, Note_on_c, 0, 84, 0
1, 43195, Note_on_c, 1, 41, 47
1, 43196, Note_on_c, 9, 51, 40
1, 43200, Control_c, 0, 64, 0
1, 43207, Note_on_c, 0, 60, 43
1, 43208, Note_on_c, 0, 57, 45
1, 43208, Note_on_c, 0, 84, 59
1, 43212, Note_on_c, 0, 50, 42
1, 43214, Note_on_c, 0, 55, 21
1, 43245, Note_on_c, 0, 84, 0
1, 43247, Note_on_c, 0, 81, 62
1, 43258, Note_on_c, 0, 81, 0
1, 43290, Note_on_c, 1, 41, 0
1, 43290, Note_on_c, 0, 60, 0
1, 43292, Note_on_c, 1, 36, 31
1, 43293, Note_on_c, 0, 57, 0
1, 43297, Control_c, 0, 64, 127
1, 43301, Note_on_c, 9, 51, 0
1, 43301, Control_c, 0, 64, 0
1, 43310, Note_on_c, 1, 36, 0
1, 43315, Note_on_c, 0, 60, 35
1, 43315, Note_on_c, 0, 79, 55
1, 43316, Note_on_c, 9, 51, 48
1, 43317, Note_on_c, 9, 44, 69
1, 43319, Note_on_c, 0, 57, 27
1, 43321, Note_on_c, 1, 41, 43
1, 43328, Control_c, 0, 64, 127
1, 43344, Note_on_c, 9, 44, 0
1, 43363, Note_on_c, 0, 79, 0
1, 43378, Note_on_c, 9, 51, 0
1, 43379, Note_on_c, 0, 50, 0
1, 43389, Note_on_c, 0, 55, 0
1, 43393, Note_on_c, 0, 60, 0
1, 43394, Note_on_c, 0, 57, 0
1, 43396, Note_on_c, 9, 51, 48
1, 43399, Note_on_c, 1, 41, 0
1, 43402, Note_on_c, 9, 35, 65
1, 43405, Note_on_c, 1, 36, 30
1, 43413, Note_on_c, 1, 36, 0
1, 43417, Note_on_c, 9, 35, 0
1, 43421, Note_on_c, 9, 51, 0
1, 43429, Note_on_c, 0, 79, 48
1, 43433, Note_on_c, 0, 60, 34
1, 43434, Note_on_c, 0, 72, 53
1, 43434, Control_c, 0, 64, 0
1, 43435, Note_on_c, 0, 67, 43
1, 43435, Note_on_c, 0, 53, 40
1, 43436, Note_on_c, 0, 57, 36
1, 43436, Note_on_c, 9, 51, 42
1, 43439, Note_on_c, 1, 38, 44
1, 43482, Control_c, 0, 64, 127
1, 43498, Note_on_c, 0, 60, 0
1, 43506, Note_on_c, 0, 67, 0
1, 43508, Note_on_c, 0, 79, 0
1, 43519, Note_on_c, 0, 53, 0
1, 43519, Note_on_c, 0, 57, 0
1, 43521, Note_on_c, 0, 72, 0
1, 43537, Note_on_c, 9, 51, 0
1, 43541, Note_on_c, 1, 38, 0
1, 43550, Control_c, 0, 64, 0
1, 43552, Note_on_c, 0, 60, 36
1, 43553, Note_on_c, 0, 77, 44
1, 43555, Note_on_c, 0, 53, 36
1, 43556, Note_on_c, 0, 65, 31
1, 43556, Note_on_c, 0, 57, 35
1, 43556, Note_on_c, 9, 51, 59
1, 43557, Note_on_c, 9, 44, 64
1, 43559, Note_on_c, 0, 72, 42
1, 43562, Note_on_c, 1, 38, 59
1, 43575, Control_c, 0, 64, 127
1, 43590, Note_on_c, 9, 44, 0
1, 43600, Note_on_c, 0, 57, 0
1, 43606, Note_on_c, 0, 60, 0
1, 43607, Note_on_c, 0, 65, 0
1, 43611, Note_on_c, 1, 38, 0
1, 43611, Note_on_c, 0, 53, 0
1, 43612, Note_on_c, 0, 72, 0
1, 43615, Note_on_c, 0, 77, 0
1, 43626, Note_on_c, 9, 51, 0
1, 43636, Note_on_c, 9, 51, 36
1, 43643, Note_on_c, 1, 30, 57
1, 43662, Note_on_c, 9, 51, 0
1, 43663, Note_on_c, 1, 30, 0
1, 43668, Control_c, 0, 64, 0
1, 43676, Note_on_c, 0, 74, 38
1, 43676, Note_on_c, 0, 62, 36
1, 43676, Note_on_c, 9, 51, 32
1, 43677, Note_on_c, 0, 57, 32
1, 43679, Note_on_c, 1, 31, 46
1, 43681, Note_on_c, 0, 53, 26
1, 43683, Note_on_c, 9, 35, 27
1, 43691, Control_c, 0, 64, 127
1, 43695, Note_on_c, 9, 35, 0
1, 43702, Note_on_c, 0, 62, 0
1, 43708, Note_on_c, 0, 74, 0
1, 43712, Note_on_c, 0, 57, 0
1, 43724, Note_on_c, 0, 53, 0
1, 43751, Note_on_c, 0, 62, 55
1, 43752, Note_on_c, 0, 76, 70
1, 43753, Note_on_c, 0, 57, 41
1, 43754, Note_on_c, 0, 58, 39
1, 43754, Note_on_c, 0, 53, 34
1, 43754, Note_on_c, 0, 64, 64
1, 43775, Note_on_c, 0, 64, 0
1, 43775, Note_on_c, 0, 76, 0
1, 43777, Note_on_c, 0, 62, 0
1, 43781, Note_on_c, 9, 51, 0
1, 43781, Note_on_c, 0, 58, 0
1, 43782, Note_on_c, 0, 53, 0
1, 43782, Note_on_c, 0, 57, 0
1, 43785, Note_on_c, 1, 31, 0
1, 43792, Note_on_c, 1, 37, 66
1, 43795, Control_c, 0, 64, 0
1, 43795, Note_on_c, 9, 51, 53
1, 43796, Note_on_c, 0, 53, 44
1, 43796, Note_on_c, 0, 58, 38
1, 43796, Note_on_c, 0, 62, 46
1, 43797, Note_on_c, 0, 77, 67
1, 43797, Note_on_c, 9, 44, 69
1, 43798, Note_on_c, 0, 65, 64
1, 43798, Note_on_c, 0, 57, 48
1, 43813, Control_c, 0, 64, 127
1, 43816, Note_on_c, 0, 65, 0
1, 43824, Note_on_c, 0, 62, 0
1, 43825, Note_on_c, 0, 77, 0
1, 43827, Note_on_c, 0, 58, 0
1, 43827, Note_on_c, 9, 44, 0
1, 43827, Control_c, 0, 64, 0
1, 43833, Note_on_c, 0, 53, 0
1, 43834, Note_on_c, 0, 57, 0
1, 43863, Note_on_c, 9, 51, 0
1, 43868, Control_c, 0, 64, 127
1, 43869, Note_on_c, 0, 53, 56
1, 43871, Note_on_c, 0, 79, 68
1, 43871, Note_on_c, 0, 62, 51
1, 43871, Note_on_c, 0, 67, 65
1, 43873, Note_on_c, 0, 58, 35
1, 43876, Note_on_c, 9, 51, 34
1, 43878, Note_on_c, 0, 62, 0
1, 43878, Note_on_c, 9, 35, 29
1, 43882, Note_on_c, 0, 67, 0
1, 43883, Note_on_c, 1, 31, 43
1, 43886, Note_on_c, 1, 37, 0
1, 43888, Note_on_c, 0, 79, 0
1, 43888, Note_on_c, 9, 35, 0
1, 43890, Note_on_c, 0, 53, 0
1, 43891, Note_on_c, 0, 58, 0
1, 43901, Note_on_c, 9, 51, 0
1, 43910, Note_on_c, 1, 31, 0
1, 43911, Control_c, 0, 64, 0
1, 43913, Note_on_c, 0, 58, 39
1, 43913, Note_on_c, 0, 52, 54
1, 43913, Note_on_c, 0, 62, 50
1, 43914, Note_on_c, 1, 36, 44
1, 43915, Note_on_c, 0, 69, 55
1, 43915, Note_on_c, 0, 81, 51
1, 43915, Note_on_c, 0, 74, 51
1, 43915, Note_on_c, 9, 51, 39
1, 43941, Control_c, 0, 64, 127
1, 43952, Note_on_c, 0, 74, 0
1, 43958, Note_on_c, 0, 69, 0
1, 43965, Note_on_c, 0, 62, 0
1, 43965, Note_on_c, 0, 81, 0
1, 43971, Note_on_c, 0, 52, 0
1, 44001, Note_on_c, 1, 31, 39
1, 44006, Note_on_c, 0, 58, 0
1, 44009, Note_on_c, 1, 36, 0
1, 44017, Note_on_c, 9, 51, 0
1, 44019, Control_c, 0, 64, 0
1, 44030, Note_on_c, 1, 31, 0
1, 44030, Note_on_c, 0, 58, 25
1, 44032, Note_on_c, 0, 86, 64
1, 44032, Note_on_c, 0, 62, 46
1, 44032, Note_on_c, 0, 52, 54
1, 44032, Note_on_c, 1, 40, 58
1, 44034, Note_on_c, 0, 81, 52
1, 44035, Note_on_c, 0, 74, 45
1, 44036, Note_on_c, 9, 51, 53
1, 44037, Note_on_c, 9, 44, 68
1, 44039, Control_c, 0, 64, 127
1, 44048, Note_on_c, 0, 62, 0
1, 44058, Note_on_c, 0, 52, 0
1, 44068, Note_on_c, 0, 86, 0
1, 44076, Note_on_c, 0, 81, 0
1, 44079, Note_on_c, 0, 58, 0
1, 44080, Note_on_c, 9, 44, 0
1, 44088, Note_on_c, 0, 74, 0
1, 44101, Note_on_c, 9, 51, 0
1, 44116, Note_on_c, 9, 51, 30
1, 44137, Note_on_c, 9, 51, 0
1, 44140, Note_on_c, 1, 40, 0
1, 44147, Control_c, 0, 64, 0
1, 44151, Note_on_c, 0, 84, 51
1, 44152, Note_on_c, 0, 60, 33
1, 44155, Note_on_c, 0, 55, 31
1, 44156, Note_on_c, 0, 57, 34
1, 44156, Note_on_c, 9, 51, 38
1, 44157, Note_on_c, 0, 72, 29
1, 44157, Note_on_c, 0, 50, 37
1, 44157, Note_on_c, 0, 81, 44
1, 44157, Note_on_c, 0, 77, 31
1, 44157, Note_on_c, 1, 41, 56
1, 44166, Note_on_c, 9, 35, 22
1, 44174, Control_c, 0, 64, 127
1, 44177, Note_on_c, 9, 35, 0
1, 44191, Note_on_c, 0, 81, 0
1, 44195, Note_on_c, 0, 84, 0
1, 44201, Note_on_c, 0, 77, 0
1, 44205, Note_on_c, 0, 72, 0
1, 44236, Note_on_c, 1, 41, 0
1, 44239, Note_on_c, 1, 36, 78
1, 44240, Note_on_c, 0, 60, 0
1, 44247, Note_on_c, 0, 57, 0
1, 44256, Note_on_c, 9, 51, 0
1, 44276, Note_on_c, 9, 51, 35
1, 44277, Note_on_c, 9, 44, 64
1, 44317, Note_on_c, 9, 44, 0
1, 44328, Note_on_c, 9, 51, 0
1, 44356, Note_on_c, 9, 51, 28
1, 44362, Note_on_c, 9, 35, 29
1, 44374, Note_on_c, 9, 35, 0
1, 44405, Note_on_c, 0, 57, 41
1, 44406, Control_c, 0, 64, 0
1, 44414, Note_on_c, 0, 57, 0
1, 44435, Note_on_c, 9, 34, 35
1, 44437, Note_on_c, 0, 58, 42
1, 44448, Note_on_c, 9, 34, 0
1, 44462, Note_on_c, 9, 51, 0
1, 44469, Note_on_c, 0, 58, 0
1, 44473, Note_on_c, 9, 35, 40
1, 44475, Note_on_c, 0, 62, 37
1, 44485, Note_on_c, 9, 35, 0
1, 44508, Note_on_c, 0, 62, 0
1, 44513, Note_on_c, 9, 34, 33
1, 44516, Note_on_c, 1, 41, 83
1, 44516, Note_on_c, 9, 51, 68
1, 44517, Note_on_c, 9, 44, 65
1, 44531, Note_on_c, 1, 36, 0
1, 44533, Note_on_c, 9, 34, 0
1, 44550, Note_on_c, 9, 44, 0
1, 44554, Note_on_c, 0, 50, 0
1, 44561, Note_on_c, 0, 55, 0
1, 44571, Note_on_c, 9, 51, 0
1, 44596, Note_on_c, 9, 51, 38
1, 44611, Note_on_c, 9, 51, 0
1, 44630, Note_on_c, 0, 60, 73
1, 44631, Note_on_c, 0, 55, 27
1, 44634, Note_on_c, 0, 50, 37
1, 44636, Note_on_c, 9, 51, 44
1, 44660, Note_on_c, 0, 60, 0
1, 44666, Note_on_c, 0, 57, 34
1, 44677, Note_on_c, 0, 57, 0
1, 44698, Note_on_c, 0, 58, 29
1, 44716, Note_on_c, 0, 58, 0
1, 44716, Note_on_c, 9, 51, 0
1, 44718, Note_on_c, 0, 60, 28
1, 44718, Note_on_c, 1, 36, 40
1, 44733, Note_on_c, 1, 36, 0
1, 44740, Note_on_c, 0, 60, 0
1, 44742, Note_on_c, 1, 41, 0
1, 44752, Note_on_c, 0, 62, 36
1, 44756, Note_on_c, 9, 51, 71
1, 44757, Note_on_c, 1, 48, 74
1, 44757, Note_on_c, 9, 44, 61
1, 44765, Note_on_c, 0, 60, 30
1, 44774, Note_on_c, 0, 62, 0
1, 44778, Note_on_c, 0, 60, 0
1, 44785, Note_on_c, 0, 65, 52
1, 44789, Note_on_c, 0, 50, 0
1, 44795, Note_on_c, 9, 44, 0
1, 44808, Note_on_c, 0, 65, 0
1, 44811, Note_on_c, 9, 51, 0
1, 44815, Note_on_c, 0, 67, 43
1, 44832, Note_on_c, 0, 67, 0
1, 44836, Note_on_c, 9, 51, 59
1, 44844, Note_on_c, 0, 69, 64
1, 44852, Note_on_c, 9, 51, 0
1, 44866, Note_on_c, 0, 69, 0
1, 44876, Note_on_c, 0, 70, 48
1, 44876, Note_on_c, 9, 51, 43
1, 44881, Note_on_c, 9, 31, 73
1, 44891, Note_on_c, 9, 31, 0
1, 44893, Note_on_c, 0, 55, 0
1, 44896, Note_on_c, 0, 70, 0
1, 44906, Note_on_c, 9, 51, 0
1, 44906, Note_on_c, 0, 72, 48
1, 44921, Note_on_c, 0, 72, 0
1, 44933, Note_on_c, 0, 73, 48
1, 44946, Note_on_c, 9, 31, 91
1, 44953, Note_on_c, 0, 73, 0
1, 44956, Note_on_c, 9, 31, 0
1, 44956, Note_on_c, 9, 53, 82
1, 44965, Control_c, 0, 64, 127
1, 44965, Note_on_c, 0, 75, 56
1, 44977, Note_on_c, 9, 53, 0
1, 44981, Control_c, 0, 64, 0
1, 44986, Note_on_c, 0, 75, 0
1, 44996, Note_on_c, 9, 51, 30
1, 44997, Note_on_c, 9, 44, 62
1, 45000, Note_on_c, 0, 76, 54
1, 45015, Note_on_c, 0, 76, 0
1, 45030, Note_on_c, 0, 78, 73
1, 45031, Note_on_c, 9, 51, 0
1, 45033, Note_on_c, 9, 44, 0
1, 45045, Note_on_c, 0, 78, 0
1, 45045, Note_on_c, 9, 31, 80
1, 45058, Note_on_c, 9, 31, 0
1, 45059, Note_on_c, 0, 79, 62
1, 45076, Note_on_c, 9, 51, 73
1, 45076, Note_on_c, 9, 31, 75
1, 45077, Note_on_c, 0, 79, 0
1, 45082, Note_on_c, 1, 35, 57
1, 45086, Note_on_c, 9, 51, 0
1, 45089, Note_on_c, 0, 82, 74
1, 45090, Control_c, 0, 64, 127
1, 45094, Note_on_c, 9, 31, 0
1, 45094, Note_on_c, 1, 48, 0
1, 45098, Note_on_c, 1, 35, 0
1, 45102, Note_on_c, 0, 82, 0
1, 45113, Note_on_c, 1, 45, 50
1, 45113, Note_on_c, 9, 35, 58
1, 45114, Control_c, 0, 64, 0
1, 45116, Note_on_c, 9, 51, 55
1, 45117, Note_on_c, 0, 66, 36
1, 45118, Note_on_c, 0, 61, 46
1, 45120, Note_on_c, 0, 81, 65
1, 45120, Note_on_c, 0, 55, 21
1, 45158, Note_on_c, 9, 35, 0
1, 45172, Control_c, 0, 64, 127
1, 45201, Note_on_c, 9, 51, 0
1, 45212, Note_on_c, 1, 45, 0
1, 45233, Note_on_c, 1, 39, 33
1, 45236, Note_on_c, 9, 51, 45
1, 45237, Note_on_c, 9, 44, 60
1, 45259, Note_on_c, 0, 66, 0
1, 45259, Note_on_c, 0, 55, 0
1, 45272, Note_on_c, 9, 44, 0
1, 45282, Note_on_c, 0, 81, 0
1, 45287, Note_on_c, 0, 61, 0
1, 45306, Note_on_c, 0, 55, 46
1, 45308, Note_on_c, 0, 69, 50
1, 45316, Note_on_c, 0, 69, 0
1, 45321, Note_on_c, 9, 51, 0
1, 45326, Note_on_c, 0, 55, 0
1, 45335, Control_c, 0, 64, 0
1, 45339, Note_on_c, 1, 39, 0
1, 45346, Note_on_c, 0, 64, 51
1, 45347, Note_on_c, 0, 81, 58
1, 45347, Note_on_c, 0, 60, 45
1, 45347, Note_on_c, 0, 54, 44
1, 45347, Note_on_c, 0, 69, 55
1, 45356, Note_on_c, 9, 51, 35
1, 45359, Note_on_c, 1, 38, 48
1, 45376, Control_c, 0, 64, 127
1, 45392, Note_on_c, 0, 69, 0
1, 45395, Note_on_c, 0, 81, 0
1, 45402, Note_on_c, 0, 54, 0
1, 45405, Note_on_c, 0, 64, 0
1, 45414, Note_on_c, 0, 60, 0
1, 45429, Note_on_c, 0, 82, 74
1, 45430, Note_on_c, 0, 70, 78
1, 45431, Note_on_c, 0, 60, 57
1, 45431, Note_on_c, 0, 76, 70
1, 45431, Note_on_c, 0, 64, 67
1, 45431, Note_on_c, 0, 54, 72
1, 45433, Note_on_c, 0, 79, 46
1, 45447, Note_on_c, 9, 51, 0
1, 45453, Note_on_c, 0, 54, 0
1, 45453, Note_on_c, 0, 64, 0
1, 45455, Note_on_c, 0, 76, 0
1, 45462, Note_on_c, 0, 70, 0
1, 45463, Note_on_c, 0, 79, 0
1, 45464, Note_on_c, 0, 82, 0
1, 45464, Control_c, 0, 64, 0
1, 45472, Note_on_c, 0, 54, 51
1, 45475, Note_on_c, 0, 64, 46
1, 45475, Note_on_c, 0, 76, 43
1, 45476, Note_on_c, 0, 81, 67
1, 45476, Note_on_c, 9, 51, 27
1, 45477, Note_on_c, 9, 44, 64
1, 45478, Note_on_c, 0, 69, 47
1, 45480, Note_on_c, 1, 38, 0
1, 45489, Control_c, 0, 64, 127
1, 45490, Note_on_c, 1, 26, 38
1, 45515, Note_on_c, 9, 44, 0
1, 45529, Note_on_c, 0, 64, 0
1, 45533, Note_on_c, 0, 69, 0
1, 45533, Note_on_c, 0, 54, 0
1, 45536, Note_on_c, 9, 51, 0
1, 45538, Note_on_c, 0, 76, 0
1, 45538, Note_on_c, 0, 60, 0
1, 45538, Note_on_c, 0, 81, 0
1, 45556, Note_on_c, 9, 51, 73
1, 45581, Control_c, 0, 64, 0
1, 45582, Note_on_c, 9, 51, 0
1, 45590, Note_on_c, 1, 26, 0
1, 45593, Note_on_c, 0, 58, 34
1, 45594, Note_on_c, 0, 82, 51
1, 45594, Note_on_c, 0, 53, 31
1, 45594, Note_on_c, 0, 62, 36
1, 45594, Note_on_c, 0, 70, 46
1, 45594, Note_on_c, 0, 77, 46
1, 45596, Note_on_c, 0, 57, 31
1, 45596, Note_on_c, 9, 51, 49
1, 45604, Control_c, 0, 64, 127
1, 45604, Note_on_c, 1, 31, 50
1, 45634, Note_on_c, 0, 70, 0
1, 45636, Note_on_c, 9, 34, 46
1, 45638, Note_on_c, 0, 62, 0
1, 45639, Note_on_c, 0, 57, 0
1, 45640, Note_on_c, 0, 77, 0
1, 45641, Note_on_c, 0, 53, 0
1, 45643, Note_on_c, 0, 82, 0
1, 45645, Note_on_c, 0, 58, 0
1, 45652, Note_on_c, 9, 34, 0
1, 45669, Note_on_c, 0, 84, 84
1, 45669, Note_on_c, 0, 72, 81
1, 45670, Note_on_c, 0, 58, 59
1, 45670, Note_on_c, 0, 62, 72
1, 45671, Note_on_c, 0, 53, 59
1, 45671, Note_on_c, 0, 57, 62
1, 45675, Note_on_c, 9, 35, 44
1, 45677, Note_on_c, 0, 78, 30
1, 45684, Note_on_c, 0, 78, 0
1, 45685, Note_on_c, 9, 35, 0
1, 45689, Note_on_c, 9, 51, 0
1, 45693, Note_on_c, 0, 62, 0
1, 45695, Note_on_c, 0, 84, 0
1, 45697, Note_on_c, 0, 53, 0
1, 45698, Note_on_c, 0, 72, 0
1, 45698, Note_on_c, 0, 57, 0
1, 45706, Control_c, 0, 64, 0
1, 45711, Note_on_c, 0, 53, 35
1, 45712, Note_on_c, 1, 31, 0
1, 45713, Note_on_c, 0, 82, 33
1, 45713, Note_on_c, 0, 62, 35
1, 45715, Note_on_c, 0, 70, 28
1, 45716, Note_on_c, 0, 57, 27
1, 45716, Note_on_c, 9, 34, 37
1, 45716, Note_on_c, 9, 51, 48
1, 45717, Note_on_c, 9, 44, 62
1, 45718, Note_on_c, 0, 77, 32
1, 45724, Note_on_c, 1, 38, 58
1, 45728, Control_c, 0, 64, 127
1, 45739, Note_on_c, 9, 34, 0
1, 45744, Note_on_c, 0, 77, 0
1, 45744, Note_on_c, 0, 70, 0
1, 45747, Note_on_c, 0, 82, 0
1, 45747, Note_on_c, 9, 44, 0
1, 45751, Note_on_c, 0, 62, 0
1, 45754, Note_on_c, 0, 57, 0
1, 45758, Note_on_c, 0, 58, 0
1, 45764, Note_on_c, 0, 53, 0
1, 45789, Note_on_c, 0, 84, 68
1, 45789, Note_on_c, 0, 72, 59
1, 45790, Note_on_c, 0, 79, 58
1, 45791, Note_on_c, 0, 62, 64
1, 45792, Note_on_c, 0, 52, 64
1, 45792, Note_on_c, 0, 58, 47
1, 45793, Note_on_c, 9, 34, 39
1, 45801, Note_on_c, 9, 51, 0
1, 45805, Control_c, 0, 64, 0
1, 45810, Note_on_c, 0, 62, 0
1, 45812, Note_on_c, 0, 72, 0
1, 45812, Note_on_c, 1, 38, 0
1, 45815, Note_on_c, 0, 52, 0
1, 45815, Note_on_c, 0, 79, 0
1, 45815, Note_on_c, 9, 34, 0
1, 45819, Note_on_c, 0, 84, 0
1, 45829, Note_on_c, 0, 58, 0
1, 45836, Note_on_c, 9, 51, 34
1, 45843, Note_on_c, 9, 35, 32
1, 45844, Note_on_c, 0, 79, 50
1, 45845, Note_on_c, 0, 58, 32
1, 45845, Note_on_c, 0, 85, 59
1, 45847, Note_on_c, 0, 52, 58
1, 45848, Note_on_c, 0, 61, 46
1, 45848, Note_on_c, 1, 36, 50
1, 45849, Note_on_c, 0, 73, 34
1, 45855, Control_c, 0, 64, 127
1, 45856, Note_on_c, 9, 35, 0
1, 45864, Note_on_c, 0, 73, 0
1, 45870, Note_on_c, 0, 79, 0
1, 45872, Note_on_c, 0, 85, 0
1, 45882, Note_on_c, 0, 61, 0
1, 45884, Note_on_c, 0, 52, 0
1, 45897, Note_on_c, 0, 58, 0
1, 45908, Note_on_c, 9, 51, 0
1, 45913, Note_on_c, 0, 52, 54
1, 45915, Note_on_c, 0, 58, 42
1, 45915, Note_on_c, 0, 88, 71
1, 45916, Note_on_c, 0, 61, 53
1, 45916, Note_on_c, 9, 51, 20
1, 45917, Note_on_c, 0, 76, 61
1, 45918, Note_on_c, 9, 35, 73
1, 45932, Note_on_c, 9, 51, 0
1, 45933, Note_on_c, 0, 61, 0
1, 45935, Note_on_c, 0, 52, 0
1, 45937, Note_on_c, 0, 88, 0
1, 45939, Note_on_c, 0, 76, 0
1, 45939, Note_on_c, 9, 35, 0
1, 45939, Note_on_c, 1, 36, 0
1, 45945, Control_c, 0, 64, 0
1, 45947, Note_on_c, 0, 58, 0
1, 45955, Note_on_c, 0, 52, 39
1, 45956, Note_on_c, 9, 51, 57
1, 45957, Note_on_c, 0, 58, 25
1, 45957, Note_on_c, 9, 44, 58
1, 45958, Note_on_c, 0, 61, 36
1, 45963, Note_on_c, 0, 85, 37
1, 45964, Note_on_c, 1, 31, 57
1, 45966, Control_c, 0, 64, 127
1, 45968, Note_on_c, 0, 73, 18
1, 45968, Note_on_c, 0, 84, 33
1, 45973, Note_on_c, 0, 84, 0
1, 45980, Note_on_c, 0, 85, 0
1, 45984, Note_on_c, 0, 52, 0
1, 45984, Note_on_c, 0, 61, 0
1, 45990, Note_on_c, 9, 44, 0
1, 45992, Note_on_c, 0, 73, 0
1, 46005, Note_on_c, 0, 58, 0
1, 46032, Note_on_c, 0, 84, 42
1, 46032, Control_c, 0, 64, 0
1, 46033, Note_on_c, 9, 35, 37
1, 46034, Note_on_c, 0, 79, 53
1, 46035, Note_on_c, 0, 60, 39
1, 46035, Note_on_c, 0, 57, 43
1, 46037, Note_on_c, 0, 55, 34
1, 46038, Note_on_c, 0, 72, 37
1, 46043, Note_on_c, 9, 51, 0
1, 46045, Note_on_c, 0, 50, 20
1, 46050, Note_on_c, 9, 35, 0
1, 46056, Note_on_c, 1, 31, 0
1, 46061, Note_on_c, 0, 79, 0
1, 46061, Note_on_c, 0, 84, 0
1, 46066, Note_on_c, 0, 72, 0
1, 46069, Note_on_c, 0, 50, 0
1, 46070, Note_on_c, 0, 60, 0
1, 46073, Note_on_c, 0, 57, 0
1, 46076, Note_on_c, 0, 55, 0
1, 46076, Note_on_c, 9, 51, 69
1, 46077, Note_on_c, 1, 29, 57
1, 46081, Note_on_c, 9, 35, 30
1, 46092, Note_on_c, 0, 60, 38
1, 46094, Note_on_c, 9, 35, 0
1, 46097, Note_on_c, 0, 57, 27
1, 46098, Note_on_c, 0, 81, 30
1, 46101, Note_on_c, 0, 55, 20
1, 46102, Control_c, 0, 64, 127
1, 46102, Note_on_c, 0, 50, 20
1, 46106, Note_on_c, 0, 69, 29
1, 46110, Note_on_c, 0, 50, 0
1, 46110, Note_on_c, 0, 81, 0
1, 46113, Note_on_c, 0, 57, 0
1, 46114, Note_on_c, 0, 69, 0
1, 46116, Note_on_c, 0, 60, 0
1, 46122, Note_on_c, 0, 55, 0
1, 46150, Control_c, 0, 64, 0
1, 46172, Note_on_c, 9, 51, 0
1, 46174, Note_on_c, 1, 29, 0
1, 46196, Note_on_c, 9, 51, 34
1, 46197, Note_on_c, 9, 44, 57
1, 46199, Note_on_c, 1, 29, 60
1, 46200, Note_on_c, 0, 60, 39
1, 46202, Note_on_c, 0, 57, 38
1, 46203, Note_on_c, 0, 79, 32
1, 46204, Note_on_c, 0, 72, 34
1, 46204, Note_on_c, 0, 50, 35
1, 46205, Note_on_c, 0, 76, 40
1, 46206, Note_on_c, 0, 55, 29
1, 46207, Note_on_c, 0, 67, 23
1, 46226, Note_on_c, 0, 76, 0
1, 46228, Note_on_c, 0, 57, 0
1, 46228, Note_on_c, 0, 60, 0
1, 46228, Note_on_c, 9, 44, 0
1, 46230, Note_on_c, 0, 50, 0
1, 46234, Note_on_c, 0, 79, 0
1, 46236, Note_on_c, 0, 55, 0
1, 46236, Note_on_c, 0, 72, 0
1, 46239, Note_on_c, 0, 67, 0
1, 46268, Note_on_c, 9, 51, 0
1, 46276, Note_on_c, 9, 51, 34
1, 46277, Note_on_c, 9, 35, 45
1, 46279, Control_c, 0, 64, 127
1, 46292, Note_on_c, 9, 51, 0
1, 46293, Note_on_c, 9, 35, 0
1, 46294, Note_on_c, 1, 29, 0
1, 46308, Control_c, 0, 64, 0
1, 46314, Note_on_c, 1, 33, 60
1, 46316, Note_on_c, 0, 71, 80
1, 46316, Note_on_c, 9, 51, 37
1, 46318, Note_on_c, 0, 64, 75
1, 46318, Note_on_c, 0, 60, 71
1, 46319, Note_on_c, 0, 59, 79
1, 46323, Note_on_c, 0, 67, 34
1, 46329, Note_on_c, 0, 67, 0
1, 46339, Note_on_c, 0, 71, 0
1, 46345, Note_on_c, 0, 64, 0
1, 46355, Note_on_c, 0, 70, 52
1, 46356, Note_on_c, 0, 58, 48
1, 46357, Note_on_c, 0, 59, 0
1, 46357, Note_on_c, 0, 64, 47
1, 46374, Note_on_c, 0, 60, 0
1, 46378, Note_on_c, 0, 70, 0
1, 46381, Note_on_c, 0, 58, 0
1, 46387, Note_on_c, 0, 60, 15
1, 46388, Note_on_c, 0, 57, 35
1, 46394, Note_on_c, 0, 64, 0
1, 46407, Note_on_c, 9, 51, 0
1, 46411, Control_c, 0, 64, 127
1, 46414, Note_on_c, 0, 57, 0
1, 46414, Note_on_c, 0, 60, 0
1, 46420, Note_on_c, 1, 33, 0
1, 46428, Note_on_c, 0, 53, 21
1, 46430, Control_c, 0, 64, 0
1, 46436, Note_on_c, 9, 51, 65
1, 46437, Note_on_c, 9, 44, 64
1, 46438, Note_on_c, 1, 38, 60
1, 46440, Note_on_c, 0, 53, 0
1, 46472, Note_on_c, 9, 44, 0
1, 46484, Note_on_c, 0, 60, 63
1, 46484, Note_on_c, 0, 55, 58
1, 46486, Note_on_c, 0, 65, 58
1, 46488, Note_on_c, 0, 56, 57
1, 46488, Note_on_c, 0, 63, 34
1, 46494, Note_on_c, 0, 63, 0
1, 46502, Note_on_c, 0, 56, 0
1, 46506, Note_on_c, 9, 51, 0
1, 46509, Note_on_c, 0, 55, 0
1, 46513, Note_on_c, 9, 35, 51
1, 46514, Note_on_c, 0, 60, 0
1, 46515, Note_on_c, 0, 65, 0
1, 46516, Note_on_c, 9, 51, 37
1, 46534, Note_on_c, 9, 35, 0
1, 46538, Note_on_c, 9, 51, 0
1, 46547, Note_on_c, 1, 38, 0
1, 46556, Note_on_c, 9, 51, 52
1, 46557, Note_on_c, 1, 31, 55
1, 46560, Note_on_c, 0, 63, 60
1, 46561, Note_on_c, 0, 55, 59
1, 46562, Note_on_c, 0, 58, 59
1, 46564, Note_on_c, 0, 60, 44
1, 46565, Note_on_c, 0, 53, 55
1, 46570, Control_c, 0, 64, 127
1, 46581, Note_on_c, 0, 63, 0
1, 46582, Note_on_c, 0, 60, 0
1, 46582, Note_on_c, 0, 53, 0
1, 46588, Note_on_c, 0, 55, 0
1, 46589, Note_on_c, 0, 58, 0
1, 46591, Control_c, 0, 64, 0
1, 46601, Note_on_c, 0, 48, 35
1, 46613, Note_on_c, 0, 62, 57
1, 46615, Note_on_c, 0, 58, 38
1, 46618, Note_on_c, 0, 57, 48
1, 46618, Note_on_c, 0, 50, 39
1, 46621, Note_on_c, 0, 48, 0
1, 46633, Note_on_c, 1, 31, 0
1, 46639, Note_on_c, 0, 57, 0
1, 46643, Note_on_c, 0, 58, 0
1, 46648, Note_on_c, 9, 51, 0
1, 46661, Note_on_c, 0, 50, 0
1, 46669, Note_on_c, 0, 46, 48
1, 46670, Note_on_c, 0, 53, 35
1, 46671, Note_on_c, 0, 58, 47
1, 46673, Note_on_c, 0, 57, 41
1, 46676, Note_on_c, 9, 51, 57
1, 46677, Note_on_c, 1, 31, 50
1, 46677, Note_on_c, 9, 44, 64
1, 46679, Note_on_c, 0, 57, 0
1, 46680, Note_on_c, 0, 62, 0
1, 46681, Note_on_c, 0, 53, 0
1, 46687, Note_on_c, 0, 46, 0
1, 46689, Note_on_c, 0, 58, 0
1, 46712, Note_on_c, 9, 44, 0
1, 46716, Note_on_c, 1, 31, 0
1, 46771, Note_on_c, 9, 51, 0
1, 46773, Control_c, 0, 64, 127
1, 46786, Control_c, 0, 64, 0
1, 46792, Note_on_c, 1, 36, 64
1, 46796, Note_on_c, 9, 51, 44
1, 46798, Note_on_c, 0, 57, 72
1, 46798, Note_on_c, 0, 69, 83
1, 46799, Note_on_c, 0, 62, 79
1, 46800, Note_on_c, 0, 58, 77
1, 46820, Note_on_c, 0, 58, 0
1, 46821, Note_on_c, 0, 62, 0
1, 46823, Note_on_c, 0, 69, 0
1, 46826, Note_on_c, 0, 57, 0
1, 46840, Note_on_c, 0, 55, 39
1, 46860, Note_on_c, 0, 55, 0
1, 46864, Note_on_c, 0, 58, 74
1, 46865, Note_on_c, 0, 69, 80
1, 46866, Note_on_c, 0, 62, 78
1, 46867, Note_on_c, 0, 57, 71
1, 46881, Note_on_c, 9, 37, 53
1, 46886, Note_on_c, 9, 51, 0
1, 46904, Note_on_c, 1, 36, 0
1, 46906, Note_on_c, 9, 37, 0
1, 46907, Note_on_c, 0, 62, 0
1, 46907, Note_on_c, 0, 58, 0
1, 46909, Note_on_c, 0, 69, 0
1, 46916, Note_on_c, 1, 36, 50
1, 46916, Note_on_c, 9, 51, 51
1, 46917, Note_on_c, 9, 46, 20
1, 46919, Note_on_c, 0, 57, 0
1, 46922, Note_on_c, 0, 58, 42
1, 46922, Note_on_c, 0, 67, 63
1, 46922, Note_on_c, 0, 62, 49
1, 46923, Note_on_c, 0, 55, 55
1, 46927, Note_on_c, 9, 35, 24
1, 46942, Note_on_c, 9, 35, 0
1, 46951, Note_on_c, 0, 62, 0
1, 46952, Note_on_c, 0, 58, 0
1, 46955, Note_on_c, 9, 46, 0
1, 46968, Note_on_c, 0, 67, 0
1, 46970, Note_on_c, 0, 58, 50
1, 46972, Note_on_c, 0, 65, 48
1, 46974, Note_on_c, 0, 62, 32
1, 46976, Note_on_c, 0, 55, 0
1, 46977, Note_on_c, 0, 53, 48
1, 46981, Note_on_c, 9, 51, 0
1, 46996, Note_on_c, 9, 51, 39
1, 46998, Note_on_c, 9, 37, 62
1, 47003, Note_on_c, 0, 62, 0
1, 47008, Control_c, 0, 64, 127
1, 47017, Note_on_c, 9, 51, 0
1, 47018, Note_on_c, 0, 58, 0
1, 47019, Note_on_c, 0, 65, 0
1, 47028, Control_c, 0, 64, 0
1, 47031, Note_on_c, 9, 37, 0
1, 47032, Note_on_c, 0, 53, 0
1, 47036, Note_on_c, 9, 51, 55
1, 47040, Note_on_c, 0, 60, 43
1, 47040, Note_on_c, 0, 57, 37
1, 47040, Note_on_c, 1, 41, 45
1, 47041, Note_on_c, 0, 64, 48
1, 47042, Note_on_c, 1, 36, 0
1, 47043, Note_on_c, 0, 52, 48
1, 47043, Note_on_c, 9, 35, 27
1, 47059, Note_on_c, 9, 35, 0
1, 47070, Note_on_c, 0, 60, 0
1, 47072, Note_on_c, 0, 57, 0
1, 47085, Note_on_c, 0, 52, 0
1, 47087, Note_on_c, 0, 60, 44
1, 47090, Note_on_c, 0, 48, 42
1, 47091, Note_on_c, 0, 64, 0
1, 47091, Note_on_c, 0, 57, 36
1, 47119, Note_on_c, 0, 57, 0
1, 47121, Note_on_c, 0, 60, 0
1, 47123, Note_on_c, 0, 48, 0
1, 47126, Note_on_c, 1, 36, 34
1, 47130, Note_on_c, 1, 41, 0
1, 47132, Note_on_c, 9, 51, 0
1, 47151, Note_on_c, 1, 36, 0
1, 47154, Note_on_c, 1, 39, 58
1, 47156, Note_on_c, 9, 51, 52
1, 47157, Note_on_c, 9, 44, 67
1, 47159, Note_on_c, 0, 60, 53
1, 47161, Note_on_c, 0, 48, 43
1, 47162, Note_on_c, 0, 57, 48
1, 47187, Note_on_c, 0, 48, 0
1, 47191, Note_on_c, 1, 39, 0
1, 47198, Note_on_c, 0, 57, 0
1, 47201, Note_on_c, 0, 60, 0
1, 47202, Note_on_c, 9, 44, 0
1, 47236, Note_on_c, 0, 38, 57
1, 47243, Note_on_c, 0, 38, 0
1, 47243, Note_on_c, 1, 37, 64
1, 47243, Note_on_c, 9, 35, 27
1, 47255, Note_on_c, 9, 35, 0
1, 47258, Note_on_c, 9, 51, 0
1, 47268, Note_on_c, 1, 37, 0
1, 47272, Note_on_c, 0, 63, 71
1, 47273, Note_on_c, 0, 58, 71
1, 47274, Note_on_c, 0, 48, 73
1, 47274, Note_on_c, 0, 60, 63
1, 47275, Note_on_c, 0, 54, 68
1, 47276, Note_on_c, 9, 51, 46
1, 47279, Note_on_c, 1, 38, 66
1, 47285, Note_on_c, 1, 38, 0
1, 47321, Note_on_c, 0, 60, 0
1, 47324, Note_on_c, 0, 54, 0
1, 47326, Note_on_c, 0, 48, 0
1, 47328, Note_on_c, 0, 58, 0
1, 47334, Note_on_c, 0, 63, 0
1, 47341, Note_on_c, 0, 48, 44
1, 47341, Note_on_c, 0, 60, 69
1, 47342, Note_on_c, 0, 54, 67
1, 47356, Note_on_c, 0, 54, 0
1, 47356, Note_on_c, 1, 30, 82
1, 47357, Note_on_c, 0, 48, 0
1, 47360, Note_on_c, 0, 60, 0
1, 47371, Note_on_c, 9, 51, 0
1, 47396, Note_on_c, 9, 51, 45
1, 47397, Note_on_c, 0, 60, 63
1, 47397, Note_on_c, 0, 48, 54
1, 47397, Note_on_c, 9, 44, 68
1, 47398, Note_on_c, 0, 54, 71
1, 47399, Note_on_c, 0, 58, 60
1, 47403, Note_on_c, 1, 30, 0
1, 47403, Note_on_c, 1, 32, 71
1, 47420, Note_on_c, 0, 54, 0
1, 47423, Note_on_c, 0, 48, 0
1, 47425, Note_on_c, 9, 44, 0
1, 47426, Note_on_c, 0, 58, 0
1, 47430, Note_on_c, 0, 60, 0
1, 47476, Note_on_c, 9, 51, 39
1, 47477, Note_on_c, 1, 32, 0
1, 47477, Note_on_c, 9, 51, 0
1, 47477, Note_on_c, 1, 30, 50
1, 47478, Note_on_c, 9, 35, 34
1, 47480, Note_on_c, 0, 54, 74
1, 47480, Note_on_c, 0, 69, 84
1, 47481, Note_on_c, 0, 62, 84
1, 47481, Note_on_c, 0, 58, 76
1, 47488, Note_on_c, 9, 35, 0
1, 47497, Note_on_c, 9, 51, 0
1, 47500, Note_on_c, 1, 30, 0
1, 47509, Note_on_c, 0, 58, 0
1, 47511, Note_on_c, 1, 31, 51
1, 47513, Note_on_c, 0, 62, 0
1, 47515, Note_on_c, 0, 69, 0
1, 47516, Note_on_c, 9, 51, 42
1, 47517, Note_on_c, 0, 54, 0
1, 47556, Note_on_c, 9, 34, 46
1, 47572, Note_on_c, 9, 34, 0
1, 47595, Note_on_c, 9, 35, 44
1, 47605, Note_on_c, 9, 35, 0
1, 47607, Note_on_c, 0, 58, 59
1, 47608, Note_on_c, 0, 55, 72
1, 47608, Note_on_c, 0, 53, 64
1, 47611, Note_on_c, 0, 43, 44
1, 47617, Note_on_c, 9, 51, 0
1, 47625, Note_on_c, 1, 31, 0
1, 47630, Note_on_c, 1, 37, 78
1, 47636, Note_on_c, 9, 51, 48
1, 47636, Note_on_c, 9, 34, 37
1, 47637, Note_on_c, 9, 44, 62
1, 47643, Note_on_c, 0, 43, 0
1, 47653, Note_on_c, 0, 46, 52
1, 47655, Note_on_c, 0, 55, 0
1, 47655, Note_on_c, 0, 53, 0
1, 47657, Note_on_c, 0, 62, 50
1, 47658, Note_on_c, 0, 46, 0
1, 47659, Note_on_c, 9, 34, 0
1, 47660, Note_on_c, 0, 58, 0
1, 47662, Note_on_c, 0, 62, 0
1, 47667, Note_on_c, 9, 44, 0
1, 47713, Note_on_c, 9, 34, 39
1, 47715, Note_on_c, 1, 31, 36
1, 47720, Note_on_c, 0, 65, 57
1, 47721, Note_on_c, 9, 51, 0
1, 47721, Note_on_c, 0, 58, 39
1, 47726, Note_on_c, 0, 58, 0
1, 47728, Note_on_c, 1, 37, 0
1, 47732, Note_on_c, 0, 65, 0
1, 47732, Note_on_c, 1, 36, 64
1, 47733, Note_on_c, 1, 31, 0
1, 47735, Note_on_c, 9, 34, 0
1, 47746, Note_on_c, 1, 36, 0
1, 47756, Note_on_c, 9, 51, 34
1, 47758, Note_on_c, 1, 37, 74
1, 47763, Note_on_c, 9, 35, 32
1, 47765, Note_on_c, 0, 59, 71
1, 47765, Note_on_c, 0, 63, 62
1, 47765, Note_on_c, 0, 68, 64
1, 47765, Note_on_c, 0, 65, 68
1, 47776, Note_on_c, 9, 35, 0
1, 47828, Note_on_c, 9, 51, 0
1, 47836, Note_on_c, 9, 51, 20
1, 47838, Note_on_c, 9, 35, 73
1, 47848, Note_on_c, 0, 65, 0
1, 47852, Note_on_c, 0, 59, 0
1, 47852, Note_on_c, 9, 51, 0
1, 47854, Note_on_c, 0, 63, 0
1, 47856, Note_on_c, 0, 51, 17
1, 47859, Note_on_c, 9, 35, 0
1, 47861, Note_on_c, 1, 37, 0
1, 47870, Note_on_c, 0, 68, 0
1, 47871, Note_on_c, 0, 51, 0
1, 47871, Note_on_c, 1, 36, 52
1, 47876, Note_on_c, 9, 51, 57
1, 47877, Note_on_c, 9, 44, 58
1, 47878, Note_on_c, 0, 55, 46
1, 47878, Note_on_c, 0, 58, 37
1, 47879, Note_on_c, 0, 61, 48
1, 47882, Note_on_c, 0, 64, 55
1, 47883, Note_on_c, 0, 67, 34
1, 47910, Note_on_c, 9, 44, 0
1, 47953, Note_on_c, 9, 35, 37
1, 47961, Note_on_c, 1, 34, 29
1, 47963, Note_on_c, 9, 51, 0
1, 47964, Note_on_c, 0, 64, 0
1, 47966, Note_on_c, 0, 58, 0
1, 47968, Note_on_c, 0, 51, 15
1, 47970, Note_on_c, 9, 35, 0
1, 47970, Note_on_c, 0, 55, 0
1, 47975, Note_on_c, 0, 61, 0
1, 47977, Note_on_c, 0, 52, 30
1, 47980, Note_on_c, 1, 34, 0
1, 47982, Note_on_c, 0, 67, 0
1, 47983, Note_on_c, 1, 36, 0
1, 47988, Note_on_c, 0, 52, 0
1, 47990, Note_on_c, 1, 41, 53
1, 47993, Note_on_c, 0, 51, 0
1, 47995, Note_on_c, 0, 65, 44
1, 47995, Note_on_c, 0, 62, 46
1, 47995, Note_on_c, 0, 60, 39
1, 47996, Note_on_c, 9, 51, 69
1, 47998, Note_on_c, 0, 69, 44
1, 47999, Note_on_c, 0, 53, 31
1, 48001, Note_on_c, 9, 35, 30
1, 48014, Note_on_c, 9, 35, 0
1, 48092, Note_on_c, 9, 51, 0
1, 48107, Note_on_c, 1, 41, 0
1, 48112, Note_on_c, 1, 33, 64
1, 48116, Note_on_c, 9, 51, 34
1, 48117, Note_on_c, 9, 44, 57
1, 48121, Control_c, 0, 64, 127
1, 48140, Note_on_c, 0, 60, 0
1, 48141, Note_on_c, 0, 62, 0
1, 48144, Note_on_c, 0, 65, 0
1, 48147, Note_on_c, 0, 69, 0
1, 48148, Note_on_c, 9, 44, 0
1, 48175, Note_on_c, 0, 53, 0
1, 48188, Note_on_c, 9, 51, 0
1, 48194, Note_on_c, 0, 77, 91
1, 48196, Note_on_c, 9, 51, 34
1, 48197, Note_on_c, 9, 35, 45
1, 48201, Note_on_c, 1, 36, 31
1, 48212, Note_on_c, 9, 51, 0
1, 48213, Note_on_c, 9, 35, 0
1, 48222, Note_on_c, 1, 33, 0
1, 48225, Note_on_c, 1, 36, 0
1, 48227, Note_on_c, 0, 77, 0
1, 48233, Note_on_c, 1, 38, 56
1, 48236, Note_on_c, 9, 51, 37
1, 48237, Note_on_c, 0, 60, 42
1, 48237, Note_on_c, 0, 74, 53
1, 48238, Note_on_c, 0, 70, 42
1, 48239, Note_on_c, 0, 65, 45
1, 48242, Note_on_c, 0, 54, 36
1, 48247, Control_c, 0, 64, 0
1, 48280, Control_c, 0, 64, 127
1, 48313, Note_on_c, 1, 50, 82
1, 48321, Note_on_c, 1, 38, 0
1, 48327, Note_on_c, 9, 51, 0
1, 48328, Note_on_c, 1, 50, 0
1, 48328, Note_on_c, 0, 65, 0
1, 48336, Note_on_c, 0, 70, 0
1, 48339, Note_on_c, 0, 74, 0
1, 48351, Note_on_c, 1, 41, 54
1, 48356, Note_on_c, 9, 51, 65
1, 48357, Note_on_c, 9, 44, 64
1, 48387, Note_on_c, 0, 60, 0
1, 48392, Note_on_c, 9, 44, 0
1, 48396, Note_on_c, 0, 84, 90
1, 48418, Note_on_c, 1, 41, 0
1, 48426, Note_on_c, 9, 51, 0
1, 48428, Note_on_c, 0, 84, 0
1, 48429, Note_on_c, 0, 54, 0
1, 48430, Note_on_c, 0, 81, 73
1, 48433, Note_on_c, 9, 35, 51
1, 48434, Note_on_c, 1, 42, 48
1, 48436, Note_on_c, 9, 51, 37
1, 48454, Note_on_c, 1, 42, 0
1, 48454, Note_on_c, 9, 35, 0
1, 48455, Note_on_c, 0, 81, 0
1, 48456, Control_c, 0, 64, 0
1, 48458, Note_on_c, 9, 51, 0
1, 48467, Note_on_c, 0, 57, 34
1, 48467, Note_on_c, 0, 58, 33
1, 48468, Note_on_c, 0, 82, 49
1, 48469, Note_on_c, 0, 62, 35
1, 48472, Note_on_c, 1, 44, 74
1, 48476, Note_on_c, 9, 51, 52
1, 48498, Note_on_c, 1, 44, 0
1, 48498, Note_on_c, 0, 82, 0
1, 48511, Note_on_c, 0, 86, 64
1, 48527, Note_on_c, 0, 86, 0
1, 48548, Note_on_c, 0, 89, 77
1, 48554, Note_on_c, 1, 43, 60
1, 48568, Note_on_c, 9, 51, 0
1, 48575, Note_on_c, 0, 89, 0
1, 48583, Note_on_c, 1, 43, 0
1, 48592, Note_on_c, 0, 93, 75
1, 48596, Note_on_c, 9, 51, 57
1, 48597, Note_on_c, 1, 41, 51
1, 48597, Note_on_c, 9, 44, 64
1, 48607, Note_on_c, 0, 62, 0
1, 48610, Note_on_c, 1, 41, 0
1, 48613, Note_on_c, 0, 58, 0
1, 48614, Note_on_c, 0, 57, 0
1, 48616, Note_on_c, 0, 93, 0
1, 48629, Note_on_c, 0, 94, 46
1, 48632, Note_on_c, 9, 44, 0
1, 48635, Note_on_c, 1, 38, 44
1, 48644, Note_on_c, 0, 94, 0
1, 48645, Note_on_c, 1, 38, 0
1, 48675, Note_on_c, 0, 95, 58
1, 48675, Note_on_c, 1, 37, 57
1, 48691, Note_on_c, 9, 51, 0
1, 48699, Note_on_c, 0, 95, 0
1, 48701, Note_on_c, 1, 37, 0
1, 48716, Note_on_c, 9, 51, 44
1, 48717, Note_on_c, 0, 63, 37
1, 48717, Note_on_c, 1, 36, 44
1, 48718, Note_on_c, 0, 58, 30
1, 48721, Note_on_c, 0, 96, 65
1, 48722, Note_on_c, 0, 84, 59
1, 48723, Note_on_c, 0, 63, 0
1, 48726, Note_on_c, 0, 58, 0
1, 48728, Note_on_c, 0, 84, 0
1, 48732, Note_on_c, 0, 96, 0
1, 48757, Note_on_c, 0, 63, 64
1, 48759, Note_on_c, 0, 58, 51
1, 48759, Note_on_c, 0, 85, 59
1, 48759, Note_on_c, 0, 97, 63
1, 48761, Note_on_c, 0, 52, 51
1, 48801, Note_on_c, 9, 37, 53
1, 48806, Note_on_c, 9, 51, 0
1, 48822, Note_on_c, 0, 85, 0
1, 48822, Note_on_c, 0, 52, 0
1, 48824, Note_on_c, 0, 63, 0
1, 48825, Note_on_c, 0, 58, 0
1, 48826, Note_on_c, 9, 37, 0
1, 48826, Note_on_c, 0, 97, 0
1, 48830, Note_on_c, 1, 36, 0
1, 48836, Note_on_c, 9, 51, 51
1, 48837, Note_on_c, 9, 46, 20
1, 48839, Note_on_c, 1, 34, 48
1, 48844, Note_on_c, 0, 63, 52
1, 48846, Note_on_c, 0, 58, 38
1, 48847, Note_on_c, 0, 87, 56
1, 48847, Note_on_c, 9, 35, 24
1, 48848, Note_on_c, 0, 99, 61
1, 48853, Note_on_c, 0, 63, 0
1, 48854, Note_on_c, 0, 87, 0
1, 48856, Note_on_c, 0, 58, 0
1, 48856, Control_c, 0, 64, 127
1, 48860, Note_on_c, 0, 99, 0
1, 48862, Note_on_c, 9, 35, 0
1, 48875, Note_on_c, 9, 46, 0
1, 48884, Control_c, 0, 64, 0
1, 48888, Note_on_c, 0, 58, 53
1, 48888, Note_on_c, 0, 100, 73
1, 48889, Note_on_c, 0, 63, 59
1, 48889, Note_on_c, 0, 88, 68
1, 48892, Control_c, 0, 64, 127
1, 48893, Note_on_c, 0, 52, 48
1, 48901, Note_on_c, 9, 51, 0
1, 48911, Note_on_c, 0, 52, 0
1, 48914, Note_on_c, 0, 88, 0
1, 48916, Note_on_c, 9, 51, 39
1, 48918, Note_on_c, 0, 58, 0
1, 48918, Note_on_c, 9, 37, 62
1, 48920, Note_on_c, 0, 100, 0
1, 48921, Note_on_c, 0, 63, 0
1, 48937, Note_on_c, 9, 51, 0
1, 48951, Note_on_c, 9, 37, 0
1, 48954, Note_on_c, 1, 34, 0
1, 48956, Note_on_c, 9, 51, 55
1, 48963, Note_on_c, 9, 35, 27
1, 48964, Note_on_c, 0, 61, 64
1, 48965, Note_on_c, 0, 60, 65
1, 48965, Note_on_c, 0, 103, 83
1, 48966, Note_on_c, 0, 65, 73
1, 48966, Note_on_c, 0, 96, 80
1, 48966, Note_on_c, 0, 91, 75
1, 48966, Note_on_c, 1, 33, 53
1, 48967, Note_on_c, 0, 55, 68
1, 48971, Note_on_c, 0, 100, 38
1, 48973, Control_c, 0, 64, 0
1, 48978, Note_on_c, 0, 100, 0
1, 48979, Note_on_c, 9, 35, 0
1, 48990, Control_c, 0, 64, 127
1, 48994, Note_on_c, 0, 96, 0
1, 48997, Note_on_c, 0, 103, 0
1, 49003, Note_on_c, 0, 91, 0
1, 49005, Note_on_c, 0, 55, 0
1, 49009, Note_on_c, 0, 61, 0
1, 49010, Note_on_c, 0, 65, 0
1, 49012, Note_on_c, 0, 60, 0
1, 49041, Note_on_c, 0, 60, 68
1, 49042, Note_on_c, 0, 100, 68
1, 49042, Note_on_c, 0, 61, 56
1, 49043, Note_on_c, 0, 65, 66
1, 49044, Note_on_c, 0, 95, 66
1, 49044, Note_on_c, 0, 88, 58
1, 49045, Note_on_c, 1, 36, 36
1, 49048, Note_on_c, 0, 55, 45
1, 49050, Note_on_c, 0, 65, 0
1, 49052, Note_on_c, 9, 51, 0
1, 49054, Note_on_c, 0, 55, 0
1, 49056, Note_on_c, 1, 33, 0
1, 49056, Note_on_c, 0, 95, 0
1, 49057, Note_on_c, 0, 100, 0
1, 49062, Note_on_c, 0, 88, 0
1, 49065, Note_on_c, 1, 36, 0
1, 49068, Note_on_c, 0, 60, 0
1, 49071, Note_on_c, 0, 61, 0
1, 49075, Control_c, 0, 64, 0
1, 49076, Note_on_c, 9, 51, 52
1, 49077, Note_on_c, 9, 44, 67
1, 49079, Note_on_c, 1, 45, 59
1, 49085, Note_on_c, 0, 96, 59
1, 49086, Note_on_c, 0, 91, 43
1, 49086, Note_on_c, 0, 60, 55
1, 49087, Note_on_c, 0, 61, 45
1, 49088, Note_on_c, 0, 65, 62
1, 49089, Note_on_c, 0, 84, 39
1, 49089, Note_on_c, 0, 55, 64
1, 49097, Control_c, 0, 64, 127
1, 49113, Note_on_c, 0, 84, 0
1, 49117, Note_on_c, 0, 91, 0
1, 49120, Note_on_c, 0, 96, 0
1, 49121, Note_on_c, 0, 60, 0
1, 49122, Note_on_c, 9, 44, 0
1, 49125, Note_on_c, 0, 65, 0
1, 49128, Note_on_c, 0, 55, 0
1, 49134, Note_on_c, 0, 61, 0
1, 49159, Note_on_c, 0, 98, 83
1, 49159, Note_on_c, 0, 65, 80
1, 49160, Note_on_c, 0, 60, 68
1, 49160, Note_on_c, 0, 58, 63
1, 49160, Note_on_c, 0, 94, 68
1, 49160, Note_on_c, 0, 91, 70
1, 49160, Note_on_c, 0, 86, 73
1, 49160, Note_on_c, 0, 54, 69
1, 49163, Note_on_c, 9, 35, 27
1, 49167, Control_c, 0, 64, 0
1, 49175, Note_on_c, 9, 35, 0
1, 49178, Note_on_c, 9, 51, 0
1, 49182, Note_on_c, 0, 98, 0
1, 49185, Note_on_c, 0, 91, 0
1, 49185, Note_on_c, 0, 86, 0
1, 49187, Note_on_c, 0, 65, 0
1, 49187, Note_on_c, 0, 94, 0
1, 49190, Note_on_c, 0, 54, 0
1, 49191, Note_on_c, 1, 45, 0
1, 49192, Note_on_c, 0, 58, 0
1, 49192, Note_on_c, 0, 60, 0
1, 49196, Note_on_c, 9, 51, 46
1, 49198, Control_c, 0, 64, 127
1, 49201, Note_on_c, 1, 50, 55
1, 49209, Note_on_c, 0, 58, 49
1, 49209, Note_on_c, 0, 60, 48
1, 49209, Note_on_c, 0, 65, 66
1, 49214, Note_on_c, 0, 65, 0
1, 49214, Note_on_c, 0, 60, 0
1, 49217, Note_on_c, 0, 58, 0
1, 49217, Control_c, 0, 64, 0
1, 49256, Control_c, 0, 64, 127
1, 49279, Note_on_c, 0, 89, 57
1, 49281, Note_on_c, 0, 60, 49
1, 49281, Note_on_c, 0, 65, 55
1, 49282, Note_on_c, 0, 77, 53
1, 49283, Note_on_c, 0, 58, 36
1, 49283, Note_on_c, 0, 54, 38
1, 49288, Note_on_c, 0, 89, 0
1, 49288, Note_on_c, 1, 36, 15
1, 49291, Note_on_c, 9, 51, 0
1, 49293, Note_on_c, 0, 65, 0
1, 49294, Note_on_c, 0, 77, 0
1, 49298, Note_on_c, 0, 60, 0
1, 49300, Note_on_c, 0, 54, 0
1, 49301, Note_on_c, 0, 58, 0
1, 49303, Note_on_c, 1, 36, 0
1, 49311, Note_on_c, 1, 50, 0
1, 49315, Note_on_c, 1, 38, 57
1, 49316, Note_on_c, 9, 51, 45
1, 49317, Note_on_c, 9, 44, 68
1, 49324, Control_c, 0, 64, 0
1, 49326, Note_on_c, 0, 65, 60
1, 49326, Note_on_c, 0, 86, 59
1, 49328, Note_on_c, 0, 60, 49
1, 49328, Note_on_c, 0, 54, 47
1, 49329, Note_on_c, 0, 74, 45
1, 49329, Note_on_c, 0, 58, 35
1, 49345, Note_on_c, 9, 44, 0
1, 49349, Control_c, 0, 64, 127
1, 49367, Note_on_c, 0, 86, 0
1, 49370, Note_on_c, 0, 54, 0
1, 49380, Note_on_c, 0, 74, 0
1, 49381, Note_on_c, 0, 58, 0
1, 49390, Note_on_c, 0, 65, 0
1, 49395, Note_on_c, 0, 60, 0
1, 49396, Note_on_c, 9, 51, 39
1, 49397, Note_on_c, 9, 51, 0
1, 49398, Note_on_c, 9, 35, 34
1, 49400, Note_on_c, 0, 54, 51
1, 49404, Note_on_c, 1, 36, 25
1, 49408, Note_on_c, 9, 35, 0
1, 49417, Note_on_c, 9, 51, 0
1, 49419, Note_on_c, 0, 54, 0
1, 49423, Note_on_c, 1, 38, 0
1, 49430, Note_on_c, 1, 36, 0
1, 49436, Note_on_c, 1, 43, 46
1, 49436, Note_on_c, 9, 51, 42
1, 49440, Note_on_c, 9, 35, 20
1, 49457, Note_on_c, 9, 35, 0
1, 49478, Note_on_c, 1, 43, 0
1, 49486, Note_on_c, 0, 70, 61
1, 49487, Note_on_c, 0, 63, 62
1, 49487, Note_on_c, 0, 53, 61
1, 49487, Note_on_c, 0, 59, 66
1, 49488, Note_on_c, 0, 58, 38
1, 49489, Note_on_c, 0, 67, 54
1, 49495, Control_c, 0, 64, 0
1, 49511, Note_on_c, 9, 31, 54
1, 49518, Note_on_c, 1, 38, 53
1, 49527, Control_c, 0, 64, 127
1, 49529, Note_on_c, 9, 31, 0
1, 49536, Note_on_c, 1, 38, 0
1, 49537, Note_on_c, 9, 51, 0
1, 49547, Note_on_c, 0, 58, 0
1, 49547, Note_on_c, 0, 63, 0
1, 49548, Note_on_c, 0, 67, 0
1, 49549, Note_on_c, 0, 59, 0
1, 49549, Note_on_c, 0, 70, 0
1, 49550, Note_on_c, 0, 53, 0
1, 49554, Note_on_c, 1, 37, 63
1, 49556, Note_on_c, 9, 51, 56
1, 49557, Note_on_c, 9, 44, 67
1, 49563, Control_c, 0, 64, 0
1, 49569, Note_on_c, 0, 70, 53
1, 49570, Note_on_c, 0, 58, 60
1, 49570, Note_on_c, 0, 63, 53
1, 49572, Note_on_c, 0, 59, 54
1, 49573, Note_on_c, 0, 53, 47
1, 49575, Note_on_c, 0, 67, 46
1, 49582, Note_on_c, 9, 44, 0
1, 49586, Control_c, 0, 64, 127
1, 49606, Note_on_c, 0, 53, 0
1, 49607, Note_on_c, 0, 58, 0
1, 49610, Note_on_c, 0, 67, 0
1, 49614, Note_on_c, 0, 63, 0
1, 49616, Note_on_c, 0, 59, 0
1, 49620, Note_on_c, 0, 70, 0
1, 49650, Note_on_c, 0, 75, 77
1, 49650, Note_on_c, 0, 68, 73
1, 49650, Note_on_c, 0, 58, 62
1, 49651, Note_on_c, 0, 64, 77
1, 49653, Note_on_c, 0, 72, 71
1, 49656, Note_on_c, 9, 51, 0
1, 49660, Control_c, 0, 64, 0
1, 49665, Note_on_c, 1, 37, 0
1, 49676, Note_on_c, 9, 51, 46
1, 49692, Control_c, 0, 64, 127
1, 49754, Note_on_c, 1, 36, 60
1, 49767, Note_on_c, 9, 51, 0
1, 49768, Note_on_c, 0, 64, 0
1, 49771, Note_on_c, 0, 72, 0
1, 49772, Note_on_c, 0, 68, 0
1, 49772, Note_on_c, 1, 36, 0
1, 49775, Note_on_c, 0, 58, 0
1, 49782, Note_on_c, 0, 75, 0
1, 49796, Note_on_c, 9, 51, 48
1, 49797, Note_on_c, 1, 34, 55
1, 49797, Note_on_c, 9, 44, 63
1, 49802, Note_on_c, 0, 64, 51
1, 49802, Note_on_c, 0, 73, 52
1, 49802, Note_on_c, 0, 68, 50
1, 49803, Note_on_c, 0, 58, 36
1, 49807, Control_c, 0, 64, 0
1, 49833, Control_c, 0, 64, 127
1, 49837, Note_on_c, 9, 44, 0
1, 49840, Note_on_c, 9, 31, 49
1, 49857, Note_on_c, 9, 31, 0
1, 49870, Note_on_c, 0, 73, 0
1, 49871, Note_on_c, 0, 64, 0
1, 49871, Note_on_c, 9, 51, 0
1, 49873, Note_on_c, 0, 68, 0
1, 49876, Note_on_c, 9, 51, 34
1, 49878, Note_on_c, 9, 37, 37
1, 49882, Note_on_c, 0, 58, 0
1, 49892, Note_on_c, 9, 51, 0
1, 49903, Note_on_c, 9, 37, 0
1, 49910, Note_on_c, 1, 34, 0
1, 49916, Note_on_c, 9, 51, 38
1, 49919, Note_on_c, 1, 33, 49
1, 49920, Note_on_c, 9, 35, 50
1, 49921, Note_on_c, 0, 72, 43
1, 49922, Note_on_c, 0, 62, 36
1, 49923, Note_on_c, 0, 57, 41
1, 49923, Note_on_c, 0, 67, 36
1, 49928, Control_c, 0, 64, 0
1, 49954, Control_c, 0, 64, 127
1, 49976, Note_on_c, 9, 35, 0
1, 49992, Note_on_c, 0, 67, 0
1, 50001, Note_on_c, 0, 62, 0
1, 50003, Note_on_c, 9, 51, 0
1, 50015, Note_on_c, 0, 57, 0
1, 50022, Note_on_c, 1, 31, 15
1, 50035, Note_on_c, 0, 72, 0
1, 50036, Note_on_c, 1, 33, 0
1, 50036, Note_on_c, 9, 51, 59
1, 50037, Note_on_c, 9, 44, 62
1, 50038, Note_on_c, 1, 45, 66
1, 50040, Note_on_c, 1, 31, 0
1, 50045, Note_on_c, 0, 62, 39
1, 50045, Note_on_c, 0, 67, 47
1, 50060, Note_on_c, 0, 62, 0
1, 50068, Note_on_c, 0, 67, 0
1, 50075, Note_on_c, 9, 44, 0
1, 50108, Note_on_c, 9, 51, 0
1, 50116, Note_on_c, 9, 51, 37
1, 50118, Note_on_c, 9, 35, 45
1, 50128, Note_on_c, 9, 35, 0
1, 50131, Note_on_c, 9, 51, 0
1, 50148, Note_on_c, 1, 45, 0
1, 50156, Control_c, 0, 64, 0
1, 50156, Note_on_c, 9, 51, 48
1, 50165, Note_on_c, 0, 74, 83
1, 50165, Note_on_c, 0, 67, 55
1, 50166, Note_on_c, 0, 62, 40
1, 50166, Note_on_c, 1, 38, 53
1, 50167, Note_on_c, 0, 63, 26
1, 50171, Note_on_c, 0, 58, 31
1, 50176, Note_on_c, 0, 74, 0
1, 50182, Note_on_c, 0, 75, 57
1, 50196, Note_on_c, 0, 75, 0
1, 50197, Note_on_c, 0, 74, 50
1, 50217, Note_on_c, 0, 74, 0
1, 50228, Note_on_c, 0, 71, 45
1, 50243, Note_on_c, 0, 71, 0
1, 50247, Note_on_c, 9, 51, 0
1, 50260, Note_on_c, 0, 67, 0
1, 50261, Note_on_c, 0, 62, 0
1, 50261, Note_on_c, 1, 36, 31
1, 50263, Note_on_c, 0, 72, 64
1, 50266, Note_on_c, 0, 63, 0
1, 50276, Note_on_c, 1, 38, 0
1, 50276, Note_on_c, 9, 51, 57
1, 50277, Note_on_c, 1, 36, 0
1, 50277, Note_on_c, 9, 44, 63
1, 50278, Note_on_c, 0, 72, 0
1, 50282, Note_on_c, 1, 41, 64
1, 50288, Note_on_c, 0, 58, 0
1, 50290, Note_on_c, 0, 74, 78
1, 50307, Note_on_c, 0, 74, 0
1, 50323, Note_on_c, 9, 44, 0
1, 50323, Note_on_c, 0, 75, 59
1, 50348, Note_on_c, 0, 75, 0
1, 50352, Note_on_c, 0, 76, 58
1, 50365, Note_on_c, 1, 36, 39
1, 50368, Note_on_c, 9, 51, 0
1, 50372, Note_on_c, 0, 76, 0
1, 50381, Note_on_c, 1, 36, 0
1, 50381, Note_on_c, 0, 63, 44
1, 50385, Note_on_c, 0, 57, 49
1, 50385, Note_on_c, 0, 67, 40
1, 50386, Note_on_c, 0, 77, 74
1, 50390, Note_on_c, 1, 41, 0
1, 50395, Note_on_c, 0, 67, 0
1, 50396, Note_on_c, 1, 46, 51
1, 50396, Note_on_c, 9, 51, 39
1, 50400, Note_on_c, 0, 57, 0
1, 50402, Note_on_c, 9, 35, 28
1, 50405, Note_on_c, 0, 77, 0
1, 50405, Note_on_c, 0, 63, 0
1, 50414, Note_on_c, 0, 74, 74
1, 50415, Note_on_c, 0, 62, 37
1, 50416, Note_on_c, 0, 65, 50
1, 50418, Note_on_c, 0, 60, 46
1, 50419, Note_on_c, 9, 35, 0
1, 50424, Note_on_c, 0, 55, 36
1, 50434, Note_on_c, 0, 74, 0
1, 50449, Note_on_c, 0, 70, 64
1, 50451, Note_on_c, 0, 65, 0
1, 50465, Control_c, 0, 64, 127
1, 50470, Note_on_c, 0, 70, 0
1, 50479, Note_on_c, 0, 65, 38
1, 50488, Note_on_c, 9, 51, 0
1, 50502, Note_on_c, 1, 46, 0
1, 50509, Note_on_c, 0, 65, 0
1, 50512, Note_on_c, 0, 62, 0
1, 50515, Note_on_c, 9, 51, 47
1, 50516, Note_on_c, 0, 60, 0
1, 50517, Note_on_c, 9, 44, 56
1, 50519, Note_on_c, 1, 46, 53
1, 50531, Control_c, 0, 64, 0
1, 50533, Note_on_c, 0, 65, 52
1, 50534, Note_on_c, 0, 62, 33
1, 50538, Note_on_c, 0, 60, 29
1, 50557, Control_c, 0, 64, 127
1, 50570, Note_on_c, 9, 44, 0
1, 50591, Note_on_c, 9, 51, 0
1, 50596, Note_on_c, 9, 51, 31
1, 50597, Note_on_c, 0, 62, 0
1, 50597, Note_on_c, 9, 35, 27
1, 50599, Note_on_c, 0, 60, 0
1, 50607, Note_on_c, 9, 35, 0
1, 50612, Note_on_c, 9, 51, 0
1, 50623, Note_on_c, 1, 46, 0
1, 50625, Note_on_c, 0, 65, 0
1, 50634, Note_on_c, 0, 55, 0
1, 50636, Note_on_c, 1, 48, 63
1, 50636, Note_on_c, 9, 51, 48
1, 50648, Note_on_c, 0, 70, 72
1, 50650, Note_on_c, 0, 64, 75
1, 50650, Note_on_c, 0, 67, 71
1, 50651, Note_on_c, 0, 72, 70
1, 50652, Control_c, 0, 64, 0
1, 50713, Note_on_c, 9, 31, 51
1, 50717, Note_on_c, 0, 53, 71
1, 50721, Note_on_c, 9, 31, 0
1, 50733, Note_on_c, 9, 51, 0
1, 50749, Note_on_c, 1, 48, 0
1, 50756, Note_on_c, 1, 43, 40
1, 50756, Note_on_c, 9, 51, 61
1, 50757, Note_on_c, 9, 44, 58
1, 50763, Control_c, 0, 64, 127
1, 50792, Note_on_c, 9, 44, 0
1, 50803, Note_on_c, 9, 31, 69
1, 50821, Note_on_c, 9, 31, 0
1, 50821, Note_on_c, 9, 51, 0
1, 50825, Note_on_c, 0, 67, 0
1, 50831, Note_on_c, 0, 64, 0
1, 50836, Note_on_c, 9, 51, 32
1, 50840, Note_on_c, 9, 34, 57
1, 50842, Note_on_c, 0, 72, 0
1, 50846, Note_on_c, 0, 70, 0
1, 50847, Note_on_c, 1, 36, 26
1, 50852, Note_on_c, 9, 51, 0
1, 50856, Note_on_c, 1, 36, 0
1, 50864, Note_on_c, 1, 43, 0
1, 50870, Note_on_c, 9, 34, 0
1, 50875, Note_on_c, 0, 64, 49
1, 50876, Note_on_c, 0, 69, 58
1, 50876, Note_on_c, 1, 41, 45
1, 50876, Note_on_c, 9, 51, 56
1, 50878, Note_on_c, 0, 60, 35
1, 50881, Control_c, 0, 64, 0
1, 50885, Note_on_c, 9, 35, 33
1, 50911, Control_c, 0, 64, 127
1, 50946, Note_on_c, 9, 35, 0
1, 50946, Note_on_c, 0, 64, 0
1, 50964, Note_on_c, 0, 69, 0
1, 50967, Note_on_c, 9, 51, 0
1, 50989, Note_on_c, 1, 41, 0
1, 50996, Note_on_c, 9, 51, 50
1, 50997, Note_on_c, 9, 44, 50
1, 51002, Note_on_c, 1, 39, 48
1, 51016, Note_on_c, 0, 60, 0
1, 51022, Note_on_c, 0, 53, 0
1, 51035, Note_on_c, 9, 44, 0
1, 51077, Note_on_c, 9, 35, 28
1, 51080, Note_on_c, 0, 69, 79
1, 51088, Note_on_c, 0, 69, 0
1, 51088, Note_on_c, 9, 51, 0
1, 51094, Note_on_c, 9, 35, 0
1, 51099, Note_on_c, 1, 37, 51
1, 51101, Note_on_c, 1, 39, 0
1, 51111, Note_on_c, 1, 37, 0
1, 51115, Note_on_c, 9, 35, 29
1, 51116, Note_on_c, 9, 51, 39
1, 51125, Note_on_c, 0, 72, 91
1, 51125, Control_c, 0, 64, 0
1, 51126, Note_on_c, 0, 65, 64
1, 51126, Note_on_c, 0, 60, 56
1, 51126, Note_on_c, 1, 38, 42
1, 51128, Note_on_c, 0, 54, 45
1, 51155, Note_on_c, 9, 35, 0
1, 51157, Note_on_c, 0, 65, 0
1, 51168, Note_on_c, 0, 71, 57
1, 51177, Note_on_c, 0, 72, 0
1, 51182, Note_on_c, 9, 51, 0
1, 51182, Note_on_c, 0, 70, 50
1, 51184, Note_on_c, 0, 71, 0
1, 51193, Note_on_c, 0, 60, 0
1, 51202, Note_on_c, 0, 70, 0
1, 51204, Note_on_c, 0, 69, 37
1, 51211, Note_on_c, 1, 33, 44
1, 51215, Note_on_c, 1, 38, 0
1, 51219, Note_on_c, 1, 33, 0
1, 51232, Note_on_c, 0, 69, 0
1, 51236, Note_on_c, 9, 51, 55
1, 51237, Note_on_c, 9, 44, 55
1, 51238, Note_on_c, 1, 30, 62
1, 51254, Note_on_c, 0, 66, 52
1, 51255, Control_c, 0, 64, 127
1, 51271, Control_c, 0, 64, 0
1, 51276, Note_on_c, 0, 66, 0
1, 51277, Note_on_c, 9, 44, 0
1, 51277, Note_on_c, 0, 54, 0
1, 51311, Note_on_c, 9, 51, 0
1, 51316, Note_on_c, 9, 51, 38
1, 51331, Control_c, 0, 64, 127
1, 51331, Note_on_c, 0, 54, 42
1, 51332, Note_on_c, 9, 51, 0
1, 51353, Note_on_c, 1, 30, 0
1, 51356, Note_on_c, 9, 51, 56
1, 51361, Note_on_c, 1, 31, 42
1, 51362, Note_on_c, 0, 54, 0
1, 51374, Control_c, 0, 64, 0
1, 51375, Note_on_c, 0, 62, 51
1, 51375, Note_on_c, 0, 58, 40
1, 51381, Note_on_c, 0, 53, 22
1, 51439, Note_on_c, 0, 58, 0
1, 51440, Control_c, 0, 64, 127
1, 51450, Note_on_c, 0, 58, 29
1, 51451, Note_on_c, 9, 51, 0
1, 51452, Note_on_c, 0, 65, 66
1, 51469, Note_on_c, 0, 53, 0
1, 51476, Note_on_c, 9, 51, 59
1, 51477, Note_on_c, 9, 44, 58
1, 51482, Note_on_c, 1, 38, 66
1, 51485, Note_on_c, 0, 62, 0
1, 51487, Note_on_c, 0, 65, 0
1, 51489, Note_on_c, 1, 31, 0
1, 51496, Note_on_c, 0, 53, 37
1, 51497, Control_c, 0, 64, 0
1, 51500, Note_on_c, 0, 62, 24
1, 51500, Note_on_c, 0, 67, 56
1, 51502, Note_on_c, 0, 65, 14
1, 51508, Note_on_c, 0, 58, 0
1, 51512, Note_on_c, 0, 65, 0
1, 51516, Control_c, 0, 64, 127
1, 51525, Note_on_c, 9, 44, 0
1, 51534, Note_on_c, 0, 62, 0
1, 51536, Note_on_c, 9, 51, 0
1, 51536, Note_on_c, 0, 67, 0
1, 51553, Note_on_c, 0, 53, 0
1, 51553, Note_on_c, 9, 35, 53
1, 51556, Note_on_c, 9, 51, 48
1, 51565, Control_c, 0, 64, 0
1, 51567, Note_on_c, 9, 51, 0
1, 51568, Note_on_c, 0, 68, 67
1, 51569, Note_on_c, 0, 56, 52
1, 51570, Note_on_c, 0, 63, 60
1, 51571, Note_on_c, 0, 59, 61
1, 51572, Note_on_c, 1, 36, 34
1, 51576, Note_on_c, 1, 38, 0
1, 51584, Note_on_c, 9, 35, 0
1, 51595, Note_on_c, 1, 36, 0
1, 51596, Note_on_c, 9, 51, 57
1, 51598, Note_on_c, 1, 37, 56
1, 51602, Note_on_c, 9, 35, 26
1, 51616, Control_c, 0, 64, 127
1, 51653, Note_on_c, 0, 63, 0
1, 51653, Note_on_c, 0, 56, 0
1, 51654, Note_on_c, 0, 59, 0
1, 51660, Note_on_c, 9, 35, 0
1, 51663, Note_on_c, 0, 68, 0
1, 51677, Note_on_c, 9, 51, 0
1, 51680, Note_on_c, 9, 35, 47
1, 51685, Note_on_c, 0, 58, 37
1, 51686, Note_on_c, 0, 63, 58
1, 51686, Note_on_c, 0, 70, 59
1, 51690, Note_on_c, 9, 35, 0
1, 51690, Note_on_c, 0, 59, 34
1, 51698, Note_on_c, 0, 59, 0
1, 51703, Note_on_c, 0, 70, 0
1, 51704, Note_on_c, 0, 63, 0
1, 51704, Note_on_c, 0, 58, 0
1, 51716, Note_on_c, 9, 51, 62
1, 51717, Note_on_c, 9, 46, 44
1, 51719, Note_on_c, 1, 36, 40
1, 51723, Note_on_c, 1, 37, 0
1, 51729, Note_on_c, 0, 55, 39
1, 51729, Note_on_c, 0, 67, 43
1, 51730, Note_on_c, 0, 61, 42
1, 51731, Note_on_c, 0, 58, 25
1, 51731, Note_on_c, 0, 64, 43
1, 51731, Control_c, 0, 64, 0
1, 51763, Note_on_c, 9, 46, 0
1, 51767, Note_on_c, 0, 67, 0
1, 51773, Note_on_c, 0, 58, 0
1, 51790, Control_c, 0, 64, 127
1, 51801, Note_on_c, 0, 64, 0
1, 51801, Note_on_c, 9, 51, 0
1, 51802, Note_on_c, 0, 55, 0
1, 51809, Note_on_c, 0, 58, 33
1, 51814, Note_on_c, 0, 52, 34
1, 51819, Note_on_c, 0, 61, 0
1, 51823, Note_on_c, 0, 58, 0
1, 51831, Note_on_c, 1, 36, 0
1, 51836, Note_on_c, 0, 52, 0
1, 51836, Note_on_c, 9, 51, 64
1, 51841, Note_on_c, 1, 41, 30
1, 51847, Control_c, 0, 64, 0
1, 51850, Note_on_c, 0, 57, 37
1, 51850, Note_on_c, 0, 53, 41
1, 51851, Note_on_c, 0, 60, 36
1, 51852, Note_on_c, 0, 65, 33
1, 51853, Note_on_c, 0, 62, 28
1, 51877, Note_on_c, 0, 65, 0
1, 51877, Note_on_c, 0, 57, 0
1, 51883, Note_on_c, 0, 60, 0
1, 51883, Note_on_c, 0, 62, 0
1, 51885, Note_on_c, 0, 53, 0
1, 51928, Note_on_c, 9, 51, 0
1, 51935, Note_on_c, 0, 57, 46
1, 51936, Note_on_c, 0, 60, 46
1, 51936, Note_on_c, 0, 53, 48
1, 51936, Note_on_c, 0, 65, 42
1, 51938, Note_on_c, 0, 62, 43
1, 51956, Note_on_c, 9, 51, 35
1, 51957, Note_on_c, 9, 44, 55
1, 51962, Note_on_c, 0, 62, 0
1, 51969, Note_on_c, 0, 60, 0
1, 51969, Note_on_c, 0, 57, 0
1, 51973, Note_on_c, 0, 65, 0
1, 51977, Note_on_c, 0, 53, 0
1, 51985, Note_on_c, 0, 52, 35
1, 52003, Note_on_c, 9, 44, 0
1, 52004, Note_on_c, 0, 52, 0
1, 52008, Note_on_c, 1, 57, 56
1, 52018, Note_on_c, 1, 41, 0
1, 52020, Control_c, 0, 64, 127
1, 52021, Note_on_c, 9, 51, 0
1, 52026, Note_on_c, 1, 57, 0
1, 52031, Note_on_c, 9, 35, 58
1, 52036, Note_on_c, 9, 51, 39
1, 52039, Note_on_c, 9, 35, 0
1, 52043, Note_on_c, 1, 41, 46
1, 52047, Note_on_c, 9, 51, 0
1, 52055, Note_on_c, 0, 57, 46
1, 52055, Note_on_c, 0, 60, 45
1, 52055, Note_on_c, 0, 53, 50
1, 52056, Note_on_c, 0, 65, 49
1, 52059, Control_c, 0, 64, 0
1, 52060, Note_on_c, 0, 60, 0
1, 52060, Note_on_c, 0, 57, 0
1, 52061, Note_on_c, 0, 53, 0
1, 52067, Control_c, 0, 64, 127
1, 52069, Note_on_c, 0, 65, 0
1, 52076, Note_on_c, 9, 51, 43
1, 52082, Note_on_c, 1, 41, 0
1, 52083, Note_on_c, 1, 40, 45
1, 52084, Note_on_c, 1, 56, 47
1, 52138, Note_on_c, 9, 51, 0
1, 52157, Note_on_c, 0, 67, 80
1, 52157, Note_on_c, 0, 76, 81
1, 52157, Note_on_c, 0, 62, 73
1, 52159, Note_on_c, 0, 56, 70
1, 52159, Note_on_c, 0, 88, 80
1, 52168, Note_on_c, 0, 76, 0
1, 52170, Note_on_c, 0, 67, 0
1, 52171, Control_c, 0, 64, 0
1, 52174, Note_on_c, 0, 56, 0
1, 52174, Note_on_c, 0, 62, 0
1, 52174, Note_on_c, 0, 88, 0
1, 52188, Note_on_c, 0, 62, 60
1, 52189, Note_on_c, 0, 56, 51
1, 52190, Note_on_c, 0, 67, 61
1, 52191, Note_on_c, 0, 79, 72
1, 52192, Note_on_c, 0, 91, 65
1, 52196, Note_on_c, 0, 79, 0
1, 52196, Note_on_c, 9, 51, 67
1, 52197, Note_on_c, 9, 44, 54
1, 52199, Note_on_c, 0, 67, 0
1, 52199, Control_c, 0, 64, 127
1, 52203, Note_on_c, 0, 56, 0
1, 52204, Note_on_c, 0, 62, 0
1, 52204, Note_on_c, 0, 91, 0
1, 52229, Note_on_c, 0, 56, 71
1, 52229, Note_on_c, 0, 62, 75
1, 52229, Note_on_c, 0, 67, 80
1, 52231, Note_on_c, 0, 84, 88
1, 52231, Note_on_c, 0, 96, 85
1, 52243, Note_on_c, 9, 44, 0
1, 52247, Note_on_c, 0, 84, 0
1, 52250, Note_on_c, 0, 67, 0
1, 52254, Note_on_c, 0, 56, 0
1, 52254, Note_on_c, 0, 96, 0
1, 52257, Note_on_c, 0, 62, 0
1, 52273, Note_on_c, 9, 51, 0
1, 52276, Note_on_c, 9, 51, 20
1, 52282, Note_on_c, 1, 36, 29
1, 52290, Note_on_c, 0, 62, 62
1, 52291, Note_on_c, 0, 56, 64
1, 52292, Note_on_c, 0, 67, 66
1, 52292, Note_on_c, 0, 88, 78
1, 52293, Note_on_c, 0, 100, 74
1, 52296, Note_on_c, 9, 51, 0
1, 52301, Note_on_c, 1, 40, 0
1, 52303, Note_on_c, 0, 67, 0
1, 52304, Note_on_c, 0, 62, 0
1, 52307, Note_on_c, 0, 88, 0
1, 52310, Note_on_c, 1, 56, 0
1, 52312, Note_on_c, 0, 100, 0
1, 52315, Note_on_c, 1, 36, 0
1, 52316, Note_on_c, 9, 51, 45
1, 52317, Note_on_c, 1, 39, 38
1, 52318, Note_on_c, 1, 55, 33
1, 52319, Note_on_c, 0, 56, 0
1, 52332, Note_on_c, 0, 60, 57
1, 52334, Note_on_c, 0, 65, 69
1, 52335, Note_on_c, 0, 61, 52
1, 52336, Control_c, 0, 64, 0
1, 52337, Note_on_c, 0, 89, 74
1, 52338, Note_on_c, 0, 55, 60
1, 52338, Note_on_c, 0, 101, 72
1, 52339, Note_on_c, 0, 94, 53
1, 52341, Note_on_c, 0, 58, 28
1, 52358, Control_c, 0, 64, 127
1, 52367, Note_on_c, 0, 94, 0
1, 52387, Note_on_c, 0, 89, 0
1, 52389, Note_on_c, 0, 55, 0
1, 52390, Note_on_c, 0, 65, 0
1, 52392, Note_on_c, 0, 101, 0
1, 52392, Note_on_c, 0, 60, 0
1, 52392, Note_on_c, 0, 58, 0
1, 52393, Note_on_c, 0, 61, 0
1, 52409, Note_on_c, 0, 61, 48
1, 52410, Note_on_c, 0, 60, 48
1, 52410, Note_on_c, 0, 65, 64
1, 52411, Note_on_c, 9, 51, 0
1, 52412, Note_on_c, 0, 55, 58
1, 52412, Note_on_c, 0, 103, 75
1, 52413, Note_on_c, 0, 91, 58
1, 52431, Note_on_c, 0, 65, 0
1, 52434, Note_on_c, 0, 91, 0
1, 52434, Note_on_c, 0, 55, 0
1, 52434, Note_on_c, 0, 103, 0
1, 52436, Note_on_c, 0, 60, 0
1, 52436, Note_on_c, 9, 51, 50
1, 52437, Note_on_c, 0, 61, 0
1, 52437, Note_on_c, 9, 44, 60
1, 52454, Note_on_c, 0, 60, 44
1, 52454, Note_on_c, 0, 61, 34
1, 52454, Control_c, 0, 64, 0
1, 52455, Note_on_c, 0, 101, 64
1, 52455, Note_on_c, 0, 55, 51
1, 52456, Note_on_c, 0, 65, 49
1, 52456, Note_on_c, 0, 89, 57
1, 52464, Control_c, 0, 64, 127
1, 52475, Note_on_c, 0, 101, 0
1, 52485, Note_on_c, 0, 89, 0
1, 52488, Note_on_c, 9, 44, 0
1, 52488, Note_on_c, 0, 60, 0
1, 52491, Note_on_c, 0, 65, 0
1, 52495, Note_on_c, 0, 55, 0
1, 52495, Note_on_c, 0, 61, 0
1, 52506, Note_on_c, 9, 51, 0
1, 52516, Note_on_c, 9, 51, 43
1, 52521, Note_on_c, 1, 36, 31
1, 52524, Note_on_c, 0, 58, 42
1, 52526, Note_on_c, 0, 65, 51
1, 52527, Note_on_c, 0, 54, 43
1, 52527, Note_on_c, 0, 99, 55
1, 52528, Note_on_c, 0, 87, 52
1, 52528, Note_on_c, 0, 60, 44
1, 52529, Note_on_c, 0, 94, 48
1, 52533, Note_on_c, 9, 51, 0
1, 52543, Control_c, 0, 64, 0
1, 52545, Note_on_c, 1, 39, 0
1, 52550, Note_on_c, 1, 55, 0
1, 52551, Note_on_c, 1, 36, 0
1, 52556, Note_on_c, 9, 51, 33
1, 52557, Note_on_c, 9, 34, 33
1, 52563, Control_c, 0, 64, 127
1, 52579, Note_on_c, 9, 34, 0
1, 52587, Note_on_c, 0, 65, 0
1, 52588, Note_on_c, 0, 60, 0
1, 52590, Note_on_c, 1, 38, 69
1, 52592, Note_on_c, 0, 99, 0
1, 52592, Note_on_c, 0, 94, 0
1, 52594, Note_on_c, 0, 87, 0
1, 52599, Note_on_c, 0, 58, 0
1, 52603, Note_on_c, 0, 54, 0
1, 52621, Note_on_c, 9, 51, 0
1, 52636, Note_on_c, 9, 53, 46
1, 52640, Note_on_c, 0, 60, 43
1, 52640, Note_on_c, 0, 64, 51
1, 52640, Note_on_c, 0, 54, 44
1, 52640, Note_on_c, 0, 98, 66
1, 52642, Note_on_c, 0, 86, 60
1, 52644, Note_on_c, 0, 93, 42
1, 52652, Note_on_c, 9, 53, 0
1, 52657, Control_c, 0, 64, 0
1, 52666, Note_on_c, 1, 38, 0
1, 52672, Note_on_c, 1, 30, 53
1, 52676, Note_on_c, 9, 51, 25
1, 52677, Note_on_c, 9, 44, 55
1, 52681, Note_on_c, 0, 98, 0
1, 52682, Control_c, 0, 64, 127
1, 52685, Note_on_c, 0, 93, 0
1, 52695, Note_on_c, 0, 86, 0
1, 52723, Note_on_c, 0, 64, 0
1, 52730, Note_on_c, 9, 44, 0
1, 52732, Note_on_c, 0, 60, 0
1, 52759, Note_on_c, 0, 54, 0
1, 52763, Note_on_c, 9, 51, 0
1, 52795, Note_on_c, 1, 30, 0
1, 52796, Note_on_c, 9, 51, 48
1, 52797, Note_on_c, 0, 67, 55
1, 52798, Note_on_c, 0, 58, 37
1, 52799, Note_on_c, 0, 62, 44
1, 52800, Note_on_c, 1, 31, 44
1, 52802, Note_on_c, 0, 57, 29
1, 52802, Note_on_c, 0, 68, 59
1, 52806, Note_on_c, 0, 53, 28
1, 52807, Control_c, 0, 64, 0
1, 52815, Note_on_c, 0, 67, 0
1, 52816, Note_on_c, 0, 68, 0
1, 52821, Note_on_c, 0, 69, 41
1, 52840, Note_on_c, 0, 69, 0
1, 52883, Note_on_c, 9, 51, 0
1, 52885, Note_on_c, 0, 72, 90
1, 52906, Note_on_c, 0, 72, 0
1, 52916, Note_on_c, 9, 51, 48
1, 52917, Note_on_c, 9, 44, 60
1, 52923, Note_on_c, 0, 62, 0
1, 52928, Note_on_c, 0, 67, 33
1, 52929, Note_on_c, 0, 68, 52
1, 52937, Note_on_c, 0, 67, 0
1, 52938, Note_on_c, 0, 58, 0
1, 52939, Note_on_c, 0, 57, 0
1, 52940, Note_on_c, 0, 53, 0
1, 52946, Note_on_c, 0, 68, 0
1, 52948, Note_on_c, 0, 72, 1
1, 52953, Note_on_c, 0, 69, 27
1, 52966, Note_on_c, 0, 69, 0
1, 52967, Note_on_c, 9, 44, 0
1, 52967, Note_on_c, 1, 34, 57
1, 52973, Note_on_c, 9, 51, 0
1, 52973, Note_on_c, 1, 31, 0
1, 52982, Note_on_c, 0, 72, 0
1, 52982, Note_on_c, 1, 34, 0
1, 52996, Note_on_c, 9, 51, 30
1, 52999, Note_on_c, 1, 35, 65
1, 53007, Note_on_c, 9, 51, 0
1, 53009, Note_on_c, 0, 62, 27
1, 53013, Note_on_c, 1, 35, 0
1, 53019, Note_on_c, 0, 62, 0
1, 53036, Note_on_c, 9, 51, 38
1, 53040, Note_on_c, 0, 53, 34
1, 53040, Note_on_c, 0, 59, 43
1, 53040, Note_on_c, 1, 37, 54
1, 53042, Control_c, 0, 64, 127
1, 53043, Note_on_c, 0, 68, 45
1, 53044, Note_on_c, 0, 65, 40
1, 53068, Note_on_c, 0, 59, 0
1, 53072, Note_on_c, 0, 65, 0
1, 53079, Note_on_c, 0, 53, 0
1, 53088, Note_on_c, 0, 68, 0
1, 53115, Note_on_c, 9, 31, 43
1, 53121, Note_on_c, 0, 58, 34
1, 53122, Note_on_c, 0, 67, 49
1, 53122, Note_on_c, 0, 64, 54
1, 53123, Note_on_c, 9, 31, 0
1, 53125, Note_on_c, 0, 52, 38
1, 53126, Note_on_c, 9, 51, 0
1, 53141, Control_c, 0, 64, 0
1, 53156, Note_on_c, 9, 51, 50
1, 53157, Note_on_c, 9, 44, 56
1, 53160, Note_on_c, 1, 36, 47
1, 53161, Note_on_c, 1, 37, 0
1, 53165, Control_c, 0, 64, 127
1, 53168, Note_on_c, 9, 31, 63
1, 53182, Note_on_c, 0, 67, 0
1, 53183, Note_on_c, 9, 31, 0
1, 53185, Note_on_c, 0, 64, 0
1, 53186, Note_on_c, 0, 58, 0
1, 53191, Note_on_c, 0, 52, 0
1, 53197, Note_on_c, 9, 31, 53
1, 53203, Note_on_c, 9, 44, 0
1, 53208, Note_on_c, 0, 60, 61
1, 53214, Note_on_c, 9, 31, 0
1, 53221, Note_on_c, 9, 51, 0
1, 53222, Note_on_c, 0, 60, 0
1, 53236, Note_on_c, 9, 51, 32
1, 53244, Note_on_c, 0, 62, 81
1, 53252, Note_on_c, 9, 51, 0
1, 53261, Note_on_c, 0, 62, 0
1, 53276, Control_c, 0, 64, 0
1, 53276, Note_on_c, 9, 51, 53
1, 53281, Note_on_c, 1, 41, 39
1, 53287, Note_on_c, 1, 36, 0
1, 53288, Note_on_c, 0, 65, 92
1, 53295, Control_c, 0, 64, 127
1, 53318, Note_on_c, 1, 41, 0
1, 53361, Note_on_c, 1, 36, 56
1, 53366, Note_on_c, 9, 51, 0
1, 53367, Note_on_c, 0, 58, 57
1, 53368, Note_on_c, 0, 53, 52
1, 53372, Note_on_c, 0, 43, 41
1, 53381, Note_on_c, 1, 36, 0
1, 53382, Control_c, 0, 64, 0
1, 53396, Note_on_c, 9, 51, 56
1, 53397, Note_on_c, 9, 44, 56
1, 53398, Note_on_c, 1, 31, 54
1, 53408, Control_c, 0, 64, 127
1, 53445, Note_on_c, 9, 44, 0
1, 53458, Note_on_c, 0, 65, 0
1, 53475, Note_on_c, 9, 31, 54
1, 53477, Note_on_c, 0, 58, 0
1, 53483, Note_on_c, 9, 31, 0
1, 53490, Note_on_c, 0, 53, 0
1, 53493, Note_on_c, 9, 51, 0
1, 53516, Note_on_c, 9, 51, 47
1, 53518, Note_on_c, 1, 31, 0
1, 53520, Note_on_c, 0, 43, 0
1, 53520, Note_on_c, 0, 59, 41
1, 53521, Note_on_c, 1, 32, 57
1, 53523, Note_on_c, 0, 53, 29
1, 53524, Note_on_c, 0, 44, 35
1, 53525, Note_on_c, 0, 56, 30
1, 53526, Control_c, 0, 64, 0
1, 53558, Control_c, 0, 64, 127
1, 53569, Note_on_c, 0, 59, 0
1, 53576, Note_on_c, 0, 56, 0
1, 53577, Note_on_c, 0, 53, 0
1, 53604, Note_on_c, 0, 60, 46
1, 53606, Note_on_c, 0, 53, 48
1, 53607, Note_on_c, 0, 44, 0
1, 53607, Note_on_c, 0, 45, 52
1, 53608, Note_on_c, 9, 51, 0
1, 53618, Control_c, 0, 64, 0
1, 53634, Note_on_c, 1, 33, 62
1, 53635, Note_on_c, 1, 32, 0
1, 53636, Note_on_c, 9, 51, 36
1, 53637, Note_on_c, 9, 46, 36
1, 53639, Control_c, 0, 64, 127
1, 53641, Note_on_c, 0, 53, 0
1, 53654, Note_on_c, 0, 60, 0
1, 53663, Note_on_c, 0, 45, 0
1, 53675, Note_on_c, 9, 46, 0
1, 53716, Note_on_c, 9, 35, 49
1, 53721, Note_on_c, 9, 51, 0
1, 53723, Note_on_c, 9, 35, 0
1, 53727, Note_on_c, 0, 77, 89
1, 53748, Note_on_c, 0, 77, 0
1, 53752, Note_on_c, 1, 33, 0
1, 53756, Note_on_c, 9, 51, 45
1, 53758, Control_c, 0, 64, 0
1, 53758, Note_on_c, 1, 34, 53
1, 53766, Note_on_c, 0, 65, 32
1, 53768, Note_on_c, 0, 62, 33
1, 53769, Note_on_c, 0, 74, 33
1, 53771, Note_on_c, 0, 60, 34
1, 53782, Note_on_c, 0, 74, 0
1, 53796, Note_on_c, 0, 65, 0
1, 53801, Note_on_c, 0, 75, 47
1, 53827, Note_on_c, 0, 75, 0
1, 53827, Note_on_c, 9, 51, 0
1, 53836, Note_on_c, 9, 59, 47
1, 53844, Note_on_c, 0, 77, 77
1, 53852, Note_on_c, 9, 59, 0
1, 53856, Note_on_c, 0, 77, 0
1, 53875, Note_on_c, 9, 51, 27
1, 53877, Note_on_c, 9, 44, 50
1, 53885, Note_on_c, 0, 53, 32
1, 53911, Note_on_c, 0, 60, 0
1, 53919, Note_on_c, 0, 62, 0
1, 53926, Note_on_c, 0, 67, 29
1, 53928, Note_on_c, 9, 44, 0
1, 53944, Note_on_c, 0, 67, 0
1, 53952, Note_on_c, 9, 35, 26
1, 53960, Note_on_c, 0, 69, 74
1, 53967, Note_on_c, 1, 31, 26
1, 53968, Note_on_c, 9, 35, 0
1, 53968, Note_on_c, 9, 51, 0
1, 53986, Note_on_c, 0, 69, 0
1, 53991, Note_on_c, 1, 34, 0
1, 53996, Note_on_c, 0, 56, 25
1, 53996, Note_on_c, 9, 51, 36
1, 53996, Note_on_c, 9, 35, 25
1, 53997, Note_on_c, 1, 31, 0
1, 53999, Note_on_c, 0, 62, 30
1, 54001, Note_on_c, 1, 35, 60
1, 54002, Note_on_c, 0, 70, 48
1, 54003, Note_on_c, 0, 59, 19
1, 54021, Note_on_c, 9, 35, 0
1, 54022, Note_on_c, 0, 70, 0
1, 54036, Note_on_c, 0, 71, 38
1, 54049, Note_on_c, 0, 71, 0
1, 54063, Note_on_c, 0, 62, 0
1, 54064, Note_on_c, 0, 59, 0
1, 54064, Note_on_c, 0, 74, 61
1, 54077, Note_on_c, 0, 74, 0
1, 54083, Note_on_c, 9, 51, 0
1, 54092, Note_on_c, 0, 77, 74
1, 54111, Note_on_c, 0, 77, 0
1, 54116, Note_on_c, 9, 51, 40
1, 54117, Note_on_c, 9, 44, 53
1, 54120, Note_on_c, 0, 62, 36
1, 54125, Note_on_c, 0, 80, 59
1, 54125, Note_on_c, 0, 59, 30
1, 54143, Note_on_c, 0, 80, 0
1, 54150, Note_on_c, 0, 59, 0
1, 54154, Note_on_c, 0, 83, 74
1, 54155, Note_on_c, 0, 53, 0
1, 54160, Note_on_c, 0, 56, 0
1, 54164, Note_on_c, 0, 62, 0
1, 54165, Note_on_c, 9, 44, 0
1, 54169, Note_on_c, 0, 83, 0
1, 54179, Note_on_c, 0, 86, 88
1, 54191, Note_on_c, 9, 51, 0
1, 54196, Note_on_c, 9, 51, 35
1, 54200, Note_on_c, 1, 31, 34
1, 54200, Note_on_c, 9, 35, 37
1, 54207, Note_on_c, 0, 86, 0
1, 54210, Note_on_c, 9, 35, 0
1, 54212, Note_on_c, 0, 83, 58
1, 54215, Note_on_c, 1, 35, 0
1, 54221, Note_on_c, 9, 51, 0
1, 54225, Note_on_c, 0, 83, 0
1, 54227, Note_on_c, 1, 31, 0
1, 54236, Note_on_c, 9, 51, 53
1, 54237, Note_on_c, 1, 36, 48
1, 54238, Note_on_c, 0, 84, 80
1, 54258, Note_on_c, 0, 84, 0
1, 54270, Note_on_c, 0, 81, 66
1, 54286, Note_on_c, 0, 81, 0
1, 54297, Note_on_c, 0, 77, 46
1, 54321, Note_on_c, 0, 77, 0
1, 54331, Note_on_c, 0, 72, 42
1, 54336, Note_on_c, 9, 51, 0
1, 54346, Note_on_c, 0, 72, 0
1, 54356, Note_on_c, 9, 51, 60
1, 54357, Note_on_c, 9, 44, 61
1, 54400, Note_on_c, 9, 44, 0
1, 54438, Note_on_c, 9, 35, 42
1, 54450, Note_on_c, 9, 35, 0
1, 54458, Note_on_c, 9, 51, 0
1, 54464, Note_on_c, 1, 34, 23
1, 54475, Note_on_c, 1, 34, 0
1, 54476, Note_on_c, 9, 51, 43
1, 54479, Note_on_c, 1, 47, 60
1, 54480, Note_on_c, 1, 36, 0
1, 54486, Note_on_c, 0, 67, 44
1, 54488, Note_on_c, 0, 63, 34
1, 54490, Note_on_c, 0, 57, 29
1, 54506, Note_on_c, 0, 67, 0
1, 54510, Note_on_c, 0, 63, 0
1, 54511, Note_on_c, 1, 47, 0
1, 54513, Note_on_c, 0, 57, 0
1, 54552, Note_on_c, 9, 51, 0
1, 54555, Note_on_c, 1, 34, 36
1, 54556, Note_on_c, 9, 51, 37
1, 54567, Note_on_c, 1, 34, 0
1, 54581, Note_on_c, 9, 51, 0
1, 54596, Note_on_c, 1, 51, 56
1, 54596, Note_on_c, 9, 51, 63
1, 54597, Note_on_c, 9, 44, 54
1, 54600, Note_on_c, 0, 66, 58
1, 54604, Note_on_c, 0, 63, 40
1, 54607, Note_on_c, 0, 57, 33
1, 54609, Note_on_c, 0, 61, 32
1, 54640, Note_on_c, 9, 44, 0
1, 54654, Note_on_c, 0, 73, 83
1, 54670, Note_on_c, 0, 57, 0
1, 54672, Note_on_c, 1, 34, 39
1, 54676, Note_on_c, 0, 66, 0
1, 54677, Note_on_c, 0, 73, 0
1, 54677, Note_on_c, 9, 35, 35
1, 54686, Note_on_c, 1, 34, 0
1, 54690, Note_on_c, 0, 68, 60
1, 54691, Note_on_c, 9, 51, 0
1, 54697, Note_on_c, 9, 35, 0
1, 54698, Note_on_c, 0, 61, 0
1, 54703, Note_on_c, 0, 63, 0
1, 54705, Note_on_c, 0, 68, 0
1, 54706, Note_on_c, 1, 51, 0
1, 54716, Note_on_c, 9, 51, 67
1, 54717, Note_on_c, 1, 46, 37
1, 54718, Note_on_c, 9, 35, 38
1, 54721, Note_on_c, 0, 65, 45
1, 54721, Note_on_c, 0, 62, 33
1, 54722, Note_on_c, 0, 60, 36
1, 54725, Note_on_c, 0, 55, 43
1, 54726, Note_on_c, 0, 72, 89
1, 54740, Note_on_c, 9, 35, 0
1, 54760, Note_on_c, 0, 71, 63
1, 54764, Note_on_c, 0, 72, 0
1, 54766, Note_on_c, 0, 65, 0
1, 54774, Note_on_c, 0, 71, 0
1, 54774, Note_on_c, 0, 70, 57
1, 54793, Note_on_c, 0, 70, 0
1, 54795, Note_on_c, 0, 69, 42
1, 54822, Note_on_c, 0, 69, 0
1, 54823, Note_on_c, 9, 51, 0
1, 54824, Note_on_c, 0, 62, 0
1, 54836, Note_on_c, 9, 51, 50
1, 54837, Note_on_c, 0, 60, 0
1, 54837, Note_on_c, 9, 44, 57
1, 54847, Note_on_c, 0, 65, 62
1, 54875, Note_on_c, 9, 44, 0
1, 54879, Note_on_c, 0, 65, 0
1, 54881, Note_on_c, 1, 46, 0
1, 54883, Note_on_c, 0, 62, 41
1, 54883, Note_on_c, 1, 41, 55
1, 54898, Note_on_c, 0, 55, 0
1, 54903, Note_on_c, 1, 41, 0
1, 54908, Note_on_c, 9, 51, 0
1, 54915, Note_on_c, 9, 35, 39
1, 54915, Note_on_c, 9, 51, 32
1, 54917, Note_on_c, 1, 38, 44
1, 54921, Note_on_c, 0, 62, 0
1, 54927, Note_on_c, 9, 35, 0
1, 54927, Note_on_c, 1, 38, 0
1, 54929, Note_on_c, 0, 65, 84
1, 54941, Note_on_c, 9, 51, 0
1, 54956, Note_on_c, 9, 51, 48
1, 54958, Note_on_c, 1, 35, 64
1, 54967, Note_on_c, 0, 56, 35
1, 54970, Note_on_c, 0, 59, 24
1, 54975, Note_on_c, 0, 59, 0
1, 54979, Note_on_c, 0, 56, 0
1, 54996, Note_on_c, 0, 64, 49
1, 55000, Note_on_c, 0, 65, 0
1, 55004, Note_on_c, 0, 63, 53
1, 55005, Note_on_c, 0, 64, 0
1, 55020, Note_on_c, 0, 63, 0
1, 55021, Note_on_c, 0, 62, 49
1, 55028, Note_on_c, 9, 51, 0
1, 55036, Note_on_c, 0, 62, 0
1, 55036, Note_on_c, 9, 51, 35
1, 55052, Note_on_c, 0, 62, 68
1, 55056, Note_on_c, 9, 51, 0
1, 55076, Note_on_c, 9, 51, 69
1, 55077, Note_on_c, 0, 61, 46
1, 55077, Note_on_c, 9, 44, 54
1, 55078, Note_on_c, 0, 62, 0
1, 55091, Note_on_c, 0, 60, 47
1, 55095, Note_on_c, 0, 61, 0
1, 55108, Note_on_c, 0, 60, 0
1, 55109, Note_on_c, 0, 59, 40
1, 55112, Note_on_c, 9, 44, 0
1, 55134, Note_on_c, 1, 35, 0
1, 55137, Note_on_c, 0, 59, 0
1, 55151, Note_on_c, 0, 56, 37
1, 55153, Note_on_c, 1, 35, 36
1, 55161, Note_on_c, 9, 35, 43
1, 55168, Note_on_c, 9, 51, 0
1, 55174, Note_on_c, 9, 35, 0
1, 55177, Note_on_c, 1, 35, 0
1, 55189, Note_on_c, 0, 56, 0
1, 55193, Note_on_c, 1, 36, 40
1, 55196, Note_on_c, 9, 51, 62
1, 55215, Note_on_c, 0, 57, 57
1, 55238, Note_on_c, 0, 57, 0
1, 55301, Note_on_c, 9, 51, 0
1, 55316, Note_on_c, 9, 51, 37
1, 55317, Note_on_c, 9, 44, 49
1, 55329, Note_on_c, 0, 48, 46
1, 55330, Note_on_c, 0, 57, 31
1, 55335, Note_on_c, 0, 48, 0
1, 55337, Note_on_c, 0, 57, 0
1, 55358, Note_on_c, 9, 44, 0
1, 55362, Note_on_c, 1, 41, 35
1, 55371, Note_on_c, 1, 41, 0
1, 55386, Note_on_c, 9, 51, 0
1, 55395, Note_on_c, 1, 40, 32
1, 55395, Note_on_c, 9, 35, 53
1, 55396, Note_on_c, 9, 51, 42
1, 55400, Note_on_c, 1, 36, 0
1, 55407, Note_on_c, 9, 35, 0
1, 55411, Note_on_c, 1, 40, 0
1, 55411, Note_on_c, 0, 60, 73
1, 55417, Note_on_c, 9, 51, 0
1, 55434, Note_on_c, 0, 60, 0
1, 55436, Note_on_c, 9, 51, 32
1, 55437, Note_on_c, 1, 41, 40
1, 55451, Note_on_c, 0, 62, 52
1, 55466, Note_on_c, 0, 62, 0
1, 55477, Note_on_c, 9, 51, 0
1, 55486, Note_on_c, 0, 65, 60
1, 55487, Note_on_c, 1, 41, 0
1, 55498, Note_on_c, 1, 41, 49
1, 55501, Note_on_c, 0, 65, 0
1, 55516, Note_on_c, 9, 51, 68
1, 55518, Note_on_c, 0, 67, 70
1, 55521, Note_on_c, 1, 41, 0
1, 55527, Note_on_c, 9, 51, 0
1, 55534, Note_on_c, 0, 67, 0
1, 55556, Note_on_c, 0, 67, 44
1, 55556, Note_on_c, 9, 51, 43
1, 55557, Note_on_c, 9, 44, 48
1, 55562, Note_on_c, 0, 68, 63
1, 55562, Note_on_c, 1, 41, 38
1, 55568, Note_on_c, 0, 67, 0
1, 55571, Note_on_c, 0, 68, 0
1, 55574, Note_on_c, 0, 69, 63
1, 55583, Note_on_c, 1, 41, 0
1, 55588, Note_on_c, 0, 69, 0
1, 55595, Note_on_c, 9, 44, 0
1, 55601, Note_on_c, 0, 72, 73
1, 55601, Note_on_c, 1, 35, 63
1, 55621, Note_on_c, 9, 51, 0
1, 55622, Note_on_c, 0, 72, 0
1, 55634, Note_on_c, 0, 74, 88
1, 55636, Note_on_c, 9, 51, 37
1, 55646, Note_on_c, 9, 51, 0
1, 55654, Note_on_c, 0, 74, 0
1, 55655, Note_on_c, 1, 35, 0
1, 55668, Note_on_c, 0, 69, 36
1, 55673, Note_on_c, 9, 35, 36
1, 55674, Note_on_c, 1, 34, 57
1, 55676, Note_on_c, 9, 51, 64
1, 55683, Note_on_c, 0, 69, 0
1, 55686, Note_on_c, 0, 65, 32
1, 55689, Note_on_c, 9, 35, 0
1, 55690, Note_on_c, 0, 60, 31
1, 55690, Note_on_c, 0, 62, 32
1, 55695, Note_on_c, 0, 72, 70
1, 55711, Note_on_c, 0, 65, 0
1, 55758, Note_on_c, 0, 69, 72
1, 55764, Note_on_c, 0, 53, 30
1, 55767, Note_on_c, 9, 51, 0
1, 55796, Note_on_c, 9, 51, 55
1, 55797, Note_on_c, 9, 44, 51
1, 55804, Note_on_c, 0, 69, 0
1, 55808, Note_on_c, 0, 65, 41
1, 55812, Note_on_c, 0, 53, 0
1, 55830, Note_on_c, 9, 44, 0
1, 55838, Note_on_c, 1, 34, 0
1, 55863, Note_on_c, 9, 51, 0
1, 55871, Note_on_c, 0, 62, 0
1, 55871, Note_on_c, 0, 60, 0
1, 55876, Note_on_c, 9, 51, 39
1, 55880, Note_on_c, 1, 34, 52
1, 55880, Note_on_c, 9, 35, 35
1, 55881, Note_on_c, 0, 53, 18
1, 55889, Note_on_c, 9, 51, 0
1, 55890, Note_on_c, 9, 35, 0
1, 55892, Note_on_c, 0, 65, 0
1, 55899, Note_on_c, 0, 72, 0
1, 55901, Note_on_c, 1, 34, 0
1, 55915, Note_on_c, 9, 51, 50
1, 55917, Note_on_c, 1, 35, 61
1, 55922, Note_on_c, 0, 53, 0
1, 55923, Note_on_c, 0, 62, 28
1, 55924, Note_on_c, 0, 56, 26
1, 55926, Note_on_c, 0, 68, 35
1, 55930, Note_on_c, 0, 71, 24
1, 55931, Note_on_c, 0, 62, 0
1, 55933, Note_on_c, 0, 68, 0
1, 55934, Note_on_c, 0, 71, 0
1, 55938, Note_on_c, 0, 56, 0
1, 55996, Note_on_c, 9, 51, 0
1, 56001, Note_on_c, 0, 77, 87
1, 56001, Note_on_c, 0, 71, 92
1, 56003, Note_on_c, 0, 62, 51
1, 56003, Note_on_c, 0, 56, 37
1, 56006, Note_on_c, 0, 59, 41
1, 56014, Note_on_c, 0, 59, 0
1, 56015, Note_on_c, 0, 71, 0
1, 56018, Note_on_c, 0, 77, 0
1, 56019, Note_on_c, 0, 62, 0
1, 56033, Note_on_c, 0, 56, 0
1, 56036, Note_on_c, 9, 51, 55
1, 56037, Note_on_c, 9, 44, 57
1, 56044, Note_on_c, 0, 74, 60
1, 56045, Note_on_c, 0, 68, 53
1, 56045, Note_on_c, 0, 56, 13
1, 56045, Note_on_c, 0, 65, 45
1, 56046, Note_on_c, 0, 62, 46
1, 56050, Note_on_c, 0, 59, 36
1, 56058, Note_on_c, 1, 35, 0
1, 56062, Note_on_c, 0, 59, 0
1, 56066, Note_on_c, 0, 62, 0
1, 56074, Note_on_c, 0, 65, 0
1, 56076, Note_on_c, 0, 68, 0
1, 56076, Note_on_c, 0, 74, 0
1, 56076, Note_on_c, 0, 56, 0
1, 56078, Note_on_c, 9, 44, 0
1, 56101, Note_on_c, 9, 51, 0
1, 56116, Note_on_c, 9, 51, 32
1, 56118, Note_on_c, 1, 35, 68
1, 56124, Note_on_c, 0, 56, 23
1, 56132, Note_on_c, 1, 35, 0
1, 56139, Note_on_c, 0, 56, 0
1, 56141, Note_on_c, 9, 51, 0
1, 56153, Note_on_c, 1, 36, 67
1, 56156, Note_on_c, 9, 35, 29
1, 56156, Note_on_c, 9, 51, 39
1, 56162, Note_on_c, 0, 57, 34
1, 56165, Note_on_c, 0, 69, 44
1, 56165, Note_on_c, 0, 65, 38
1, 56166, Note_on_c, 0, 72, 42
1, 56167, Note_on_c, 0, 60, 30
1, 56169, Note_on_c, 9, 35, 0
1, 56173, Note_on_c, 0, 65, 0
1, 56176, Note_on_c, 0, 69, 0
1, 56177, Note_on_c, 0, 60, 0
1, 56181, Note_on_c, 0, 72, 0
1, 56190, Note_on_c, 0, 57, 0
1, 56226, Note_on_c, 9, 51, 0
1, 56236, Note_on_c, 9, 51, 33
1, 56242, Note_on_c, 9, 51, 0
1, 56247, Note_on_c, 0, 72, 78
1, 56262, Note_on_c, 0, 72, 0
1, 56276, Note_on_c, 9, 51, 75
1, 56277, Note_on_c, 9, 44, 56
1, 56284, Note_on_c, 0, 73, 59
1, 56294, Note_on_c, 0, 73, 0
1, 56295, Note_on_c, 0, 74, 77
1, 56308, Note_on_c, 0, 74, 0
1, 56323, Note_on_c, 9, 44, 0
1, 56325, Note_on_c, 0, 77, 77
1, 56342, Note_on_c, 0, 77, 0
1, 56357, Note_on_c, 9, 51, 0
1, 56358, Note_on_c, 0, 79, 89
1, 56367, Note_on_c, 1, 34, 34
1, 56382, Note_on_c, 0, 79, 0
1, 56390, Note_on_c, 1, 36, 0
1, 56393, Note_on_c, 1, 34, 0
1, 56396, Note_on_c, 9, 34, 34
1, 56396, Note_on_c, 9, 51, 67
1, 56399, Note_on_c, 0, 77, 79
1, 56399, Note_on_c, 1, 41, 60
1, 56411, Note_on_c, 9, 34, 0
1, 56427, Note_on_c, 0, 77, 0
1, 56440, Note_on_c, 0, 74, 70
1, 56466, Note_on_c, 9, 51, 0
1, 56476, Note_on_c, 9, 51, 21
1, 56483, Note_on_c, 9, 34, 32
1, 56493, Note_on_c, 9, 34, 0
1, 56496, Note_on_c, 0, 74, 0
1, 56506, Note_on_c, 9, 51, 0
1, 56509, Note_on_c, 0, 68, 53
1, 56513, Note_on_c, 1, 41, 0
1, 56514, Note_on_c, 0, 65, 46
1, 56515, Note_on_c, 1, 34, 61
1, 56516, Note_on_c, 9, 51, 36
1, 56517, Note_on_c, 0, 60, 32
1, 56517, Note_on_c, 0, 58, 32
1, 56517, Note_on_c, 9, 44, 52
1, 56519, Note_on_c, 0, 54, 36
1, 56544, Control_c, 0, 64, 127
1, 56556, Note_on_c, 9, 51, 0
1, 56564, Note_on_c, 0, 68, 0
1, 56570, Note_on_c, 0, 65, 0
1, 56574, Note_on_c, 0, 60, 0
1, 56580, Note_on_c, 9, 44, 0
1, 56588, Note_on_c, 0, 58, 0
1, 56590, Note_on_c, 9, 34, 47
1, 56592, Note_on_c, 0, 54, 0
1, 56595, Note_on_c, 0, 65, 44
1, 56596, Note_on_c, 9, 51, 72
1, 56602, Note_on_c, 1, 31, 37
1, 56614, Note_on_c, 1, 34, 0
1, 56620, Note_on_c, 0, 65, 0
1, 56623, Note_on_c, 9, 34, 0
1, 56627, Note_on_c, 9, 57, 34
1, 56627, Note_on_c, 9, 35, 51
1, 56634, Note_on_c, 1, 31, 0
1, 56637, Control_c, 0, 64, 0
1, 56637, Note_on_c, 0, 69, 64
1, 56637, Note_on_c, 1, 33, 50
1, 56645, Note_on_c, 9, 57, 0
1, 56648, Note_on_c, 9, 35, 0
1, 56666, Control_c, 0, 64, 127
1, 56708, Note_on_c, 9, 51, 0
1, 56716, Note_on_c, 0, 65, 66
1, 56716, Note_on_c, 0, 61, 46
1, 56716, Note_on_c, 9, 51, 23
1, 56717, Note_on_c, 0, 60, 54
1, 56721, Note_on_c, 0, 69, 0
1, 56721, Note_on_c, 0, 55, 53
1, 56722, Note_on_c, 1, 31, 25
1, 56742, Note_on_c, 9, 51, 0
1, 56756, Note_on_c, 1, 33, 0
1, 56756, Note_on_c, 9, 51, 52
1, 56757, Note_on_c, 1, 45, 73
1, 56757, Note_on_c, 9, 44, 54
1, 56758, Note_on_c, 1, 31, 0
1, 56763, Note_on_c, 0, 72, 66
1, 56777, Note_on_c, 0, 72, 0
1, 56779, Note_on_c, 0, 55, 0
1, 56780, Note_on_c, 0, 65, 0
1, 56782, Note_on_c, 0, 60, 0
1, 56784, Note_on_c, 0, 61, 0
1, 56800, Note_on_c, 0, 77, 74
1, 56805, Note_on_c, 0, 61, 26
1, 56806, Note_on_c, 0, 60, 30
1, 56813, Note_on_c, 0, 60, 0
1, 56815, Note_on_c, 9, 44, 0
1, 56815, Note_on_c, 0, 77, 0
1, 56816, Note_on_c, 0, 61, 0
1, 56838, Note_on_c, 9, 35, 49
1, 56839, Note_on_c, 0, 61, 50
1, 56840, Note_on_c, 0, 60, 49
1, 56841, Note_on_c, 0, 82, 71
1, 56841, Note_on_c, 0, 65, 65
1, 56841, Note_on_c, 1, 31, 31
1, 56843, Note_on_c, 9, 51, 0
1, 56843, Note_on_c, 0, 55, 57
1, 56846, Note_on_c, 9, 35, 0
1, 56855, Note_on_c, 0, 65, 0
1, 56856, Note_on_c, 0, 60, 0
1, 56859, Note_on_c, 1, 45, 0
1, 56860, Note_on_c, 0, 55, 0
1, 56862, Note_on_c, 1, 31, 0
1, 56867, Note_on_c, 0, 61, 0
1, 56876, Note_on_c, 9, 51, 57
1, 56877, Note_on_c, 0, 82, 0
1, 56877, Note_on_c, 1, 38, 54
1, 56878, Control_c, 0, 64, 0
1, 56895, Control_c, 0, 64, 127
1, 56917, Note_on_c, 0, 77, 71
1, 56919, Note_on_c, 0, 65, 71
1, 56920, Note_on_c, 0, 89, 77
1, 56920, Note_on_c, 0, 60, 58
1, 56920, Note_on_c, 0, 58, 46
1, 56921, Note_on_c, 0, 54, 52
1, 56924, Control_c, 0, 64, 0
1, 56943, Control_c, 0, 64, 127
1, 56953, Note_on_c, 1, 31, 35
1, 56966, Note_on_c, 0, 77, 0
1, 56969, Note_on_c, 0, 89, 0
1, 56971, Note_on_c, 0, 54, 0
1, 56971, Note_on_c, 0, 65, 0
1, 56972, Note_on_c, 0, 60, 0
1, 56972, Note_on_c, 0, 58, 0
1, 56976, Note_on_c, 9, 51, 0
1, 56978, Note_on_c, 1, 31, 0
1, 56987, Note_on_c, 1, 38, 0
1, 56992, Note_on_c, 1, 44, 59
1, 56995, Control_c, 0, 64, 0
1, 56996, Note_on_c, 9, 51, 43
1, 56997, Note_on_c, 9, 44, 56
1, 56998, Note_on_c, 0, 82, 58
1, 56998, Note_on_c, 0, 94, 59
1, 56999, Note_on_c, 0, 60, 59
1, 56999, Note_on_c, 0, 65, 71
1, 57000, Note_on_c, 0, 54, 58
1, 57001, Note_on_c, 0, 58, 46
1, 57011, Control_c, 0, 64, 127
1, 57012, Note_on_c, 0, 65, 0
1, 57014, Note_on_c, 0, 82, 0
1, 57017, Note_on_c, 0, 60, 0
1, 57018, Note_on_c, 0, 94, 0
1, 57022, Note_on_c, 0, 54, 0
1, 57023, Note_on_c, 0, 58, 0
1, 57050, Note_on_c, 9, 44, 0
1, 57058, Note_on_c, 1, 31, 26
1, 57069, Note_on_c, 1, 31, 0
1, 57073, Note_on_c, 9, 51, 0
1, 57074, Note_on_c, 0, 60, 65
1, 57074, Note_on_c, 0, 54, 73
1, 57074, Note_on_c, 0, 65, 80
1, 57074, Note_on_c, 0, 58, 57
1, 57075, Note_on_c, 0, 86, 81
1, 57076, Note_on_c, 0, 98, 82
1, 57076, Note_on_c, 9, 51, 34
1, 57084, Control_c, 0, 64, 0
1, 57086, Note_on_c, 0, 65, 0
1, 57091, Note_on_c, 0, 86, 0
1, 57092, Note_on_c, 0, 98, 0
1, 57093, Note_on_c, 0, 60, 0
1, 57095, Note_on_c, 0, 54, 0
1, 57100, Note_on_c, 0, 58, 0
1, 57106, Note_on_c, 9, 51, 0
1, 57109, Note_on_c, 1, 44, 0
1, 57112, Control_c, 0, 64, 127
1, 57112, Note_on_c, 1, 43, 53
1, 57116, Note_on_c, 9, 51, 53
1, 57125, Note_on_c, 1, 43, 0
1, 57139, Control_c, 0, 64, 0
1, 57150, Note_on_c, 0, 87, 80
1, 57151, Note_on_c, 0, 99, 81
1, 57152, Note_on_c, 0, 59, 78
1, 57152, Note_on_c, 0, 64, 80
1, 57153, Note_on_c, 0, 53, 79
1, 57153, Note_on_c, 0, 94, 59
1, 57160, Control_c, 0, 64, 127
1, 57185, Note_on_c, 0, 94, 0
1, 57187, Note_on_c, 0, 87, 0
1, 57190, Note_on_c, 0, 99, 0
1, 57195, Note_on_c, 1, 38, 65
1, 57198, Note_on_c, 0, 53, 0
1, 57201, Note_on_c, 0, 64, 0
1, 57203, Note_on_c, 0, 59, 0
1, 57215, Note_on_c, 1, 38, 0
1, 57216, Note_on_c, 9, 51, 0
1, 57227, Control_c, 0, 64, 0
1, 57228, Note_on_c, 0, 59, 66
1, 57229, Note_on_c, 0, 64, 73
1, 57230, Note_on_c, 0, 53, 72
1, 57230, Note_on_c, 0, 103, 62
1, 57231, Note_on_c, 0, 91, 58
1, 57231, Note_on_c, 0, 98, 54
1, 57235, Note_on_c, 1, 37, 33
1, 57236, Note_on_c, 9, 51, 61
1, 57237, Note_on_c, 9, 44, 57
1, 57243, Control_c, 0, 64, 127
1, 57244, Note_on_c, 0, 91, 0
1, 57245, Note_on_c, 0, 98, 0
1, 57246, Note_on_c, 0, 64, 0
1, 57249, Note_on_c, 0, 103, 0
1, 57251, Note_on_c, 0, 59, 0
1, 57254, Note_on_c, 0, 53, 0
1, 57285, Note_on_c, 9, 44, 0
1, 57308, Note_on_c, 0, 63, 64
1, 57309, Note_on_c, 0, 58, 50
1, 57312, Note_on_c, 0, 106, 56
1, 57312, Note_on_c, 0, 94, 51
1, 57312, Note_on_c, 0, 52, 46
1, 57316, Note_on_c, 9, 51, 15
1, 57320, Note_on_c, 0, 52, 0
1, 57320, Note_on_c, 9, 35, 34
1, 57321, Note_on_c, 9, 51, 0
1, 57327, Note_on_c, 0, 94, 0
1, 57328, Note_on_c, 0, 106, 0
1, 57328, Note_on_c, 0, 63, 0
1, 57331, Note_on_c, 0, 58, 0
1, 57332, Note_on_c, 9, 35, 0
1, 57347, Control_c, 0, 64, 0
1, 57352, Note_on_c, 9, 51, 0
1, 57355, Note_on_c, 0, 58, 49
1, 57356, Note_on_c, 1, 37, 0
1, 57356, Note_on_c, 0, 63, 61
1, 57356, Note_on_c, 9, 51, 37
1, 57358, Note_on_c, 0, 52, 57
1, 57362, Note_on_c, 1, 36, 51
1, 57444, Note_on_c, 0, 58, 0
1, 57447, Note_on_c, 0, 63, 0
1, 57456, Note_on_c, 9, 51, 0
1, 57474, Note_on_c, 1, 36, 0
1, 57476, Note_on_c, 9, 51, 61
1, 57477, Note_on_c, 9, 44, 51
1, 57478, Note_on_c, 1, 34, 54
1, 57484, Note_on_c, 0, 58, 44
1, 57485, Note_on_c, 0, 104, 60
1, 57486, Note_on_c, 0, 63, 45
1, 57530, Note_on_c, 9, 44, 0
1, 57539, Note_on_c, 0, 52, 0
1, 57547, Note_on_c, 0, 58, 0
1, 57553, Note_on_c, 9, 51, 0
1, 57556, Note_on_c, 9, 51, 39
1, 57557, Note_on_c, 9, 35, 46
1, 57561, Note_on_c, 0, 63, 0
1, 57569, Note_on_c, 0, 104, 0
1, 57577, Note_on_c, 9, 51, 0
1, 57587, Note_on_c, 9, 35, 0
1, 57592, Note_on_c, 1, 34, 0
1, 57596, Note_on_c, 9, 51, 52
1, 57600, Note_on_c, 1, 33, 62
1, 57604, Note_on_c, 0, 66, 59
1, 57606, Note_on_c, 9, 35, 39
1, 57619, Note_on_c, 0, 66, 0
1, 57627, Note_on_c, 9, 35, 0
1, 57641, Note_on_c, 0, 105, 69
1, 57656, Note_on_c, 0, 105, 0
1, 57667, Note_on_c, 0, 101, 61
1, 57687, Note_on_c, 0, 101, 0
1, 57694, Note_on_c, 0, 97, 53
1, 57697, Note_on_c, 9, 51, 0
1, 57711, Note_on_c, 0, 97, 0
1, 57715, Note_on_c, 9, 51, 60
1, 57716, Note_on_c, 1, 33, 0
1, 57717, Note_on_c, 9, 44, 52
1, 57719, Note_on_c, 1, 39, 64
1, 57722, Note_on_c, 0, 96, 60
1, 57744, Note_on_c, 0, 96, 0
1, 57755, Note_on_c, 0, 94, 59
1, 57757, Note_on_c, 0, 66, 56
1, 57759, Note_on_c, 0, 61, 38
1, 57760, Note_on_c, 0, 55, 53
1, 57765, Note_on_c, 9, 44, 0
1, 57780, Note_on_c, 0, 94, 0
1, 57788, Note_on_c, 0, 93, 42
1, 57791, Note_on_c, 9, 35, 36
1, 57796, Note_on_c, 9, 51, 34
1, 57797, Note_on_c, 9, 51, 0
1, 57797, Note_on_c, 0, 55, 0
1, 57802, Note_on_c, 0, 93, 0
1, 57803, Note_on_c, 9, 35, 0
1, 57810, Note_on_c, 0, 66, 0
1, 57819, Note_on_c, 0, 94, 65
1, 57826, Note_on_c, 0, 61, 0
1, 57827, Note_on_c, 9, 51, 0
1, 57834, Note_on_c, 0, 94, 0
1, 57836, Note_on_c, 9, 51, 49
1, 57844, Note_on_c, 0, 65, 53
1, 57845, Note_on_c, 0, 54, 42
1, 57847, Note_on_c, 0, 60, 50
1, 57847, Note_on_c, 0, 95, 55
1, 57867, Note_on_c, 0, 95, 0
1, 57868, Note_on_c, 1, 39, 0
1, 57876, Note_on_c, 1, 38, 52
1, 57881, Note_on_c, 0, 96, 68
1, 57895, Note_on_c, 0, 96, 0
1, 57901, Note_on_c, 0, 54, 0
1, 57901, Note_on_c, 1, 38, 0
1, 57902, Note_on_c, 0, 65, 0
1, 57907, Note_on_c, 0, 58, 18
1, 57908, Note_on_c, 0, 93, 36
1, 57915, Note_on_c, 1, 33, 61
1, 57918, Note_on_c, 0, 60, 0
1, 57920, Note_on_c, 0, 58, 0
1, 57925, Note_on_c, 0, 93, 0
1, 57929, Note_on_c, 1, 33, 0
1, 57936, Note_on_c, 0, 89, 66
1, 57941, Note_on_c, 9, 51, 0
1, 57951, Note_on_c, 0, 89, 0
1, 57956, Note_on_c, 9, 51, 56
1, 57957, Note_on_c, 9, 44, 50
1, 57959, Note_on_c, 0, 60, 49
1, 57959, Note_on_c, 0, 65, 54
1, 57960, Note_on_c, 0, 54, 39
1, 57960, Note_on_c, 1, 27, 32
1, 57965, Note_on_c, 0, 85, 36
1, 57975, Note_on_c, 1, 27, 0
1, 57975, Note_on_c, 0, 65, 0
1, 57977, Note_on_c, 0, 85, 0
1, 57993, Note_on_c, 0, 84, 49
1, 57995, Note_on_c, 9, 44, 0
1, 57996, Note_on_c, 1, 26, 64
1, 58009, Note_on_c, 0, 84, 0
1, 58020, Note_on_c, 0, 82, 37
1, 58036, Note_on_c, 0, 60, 0
1, 58036, Note_on_c, 9, 51, 25
1, 58037, Note_on_c, 9, 51, 0
1, 58041, Note_on_c, 1, 26, 0
1, 58043, Note_on_c, 1, 31, 67
1, 58045, Note_on_c, 0, 82, 0
1, 58052, Note_on_c, 0, 77, 48
1, 58061, Note_on_c, 0, 77, 0
1, 58066, Note_on_c, 9, 51, 0
1, 58070, Note_on_c, 0, 54, 0
1, 58076, Note_on_c, 9, 51, 33
1, 58077, Note_on_c, 0, 80, 51
1, 58079, Note_on_c, 0, 59, 47
1, 58081, Note_on_c, 0, 64, 32
1, 58083, Note_on_c, 0, 53, 32
1, 58098, Note_on_c, 0, 81, 28
1, 58099, Note_on_c, 0, 80, 0
1, 58112, Note_on_c, 0, 59, 0
1, 58114, Note_on_c, 0, 81, 0
1, 58118, Note_on_c, 0, 64, 0
1, 58119, Note_on_c, 0, 53, 0
1, 58138, Note_on_c, 0, 77, 61
1, 58156, Note_on_c, 0, 77, 0
1, 58156, Note_on_c, 9, 51, 23
1, 58172, Note_on_c, 9, 51, 0
1, 58182, Note_on_c, 9, 51, 0
1, 58195, Note_on_c, 0, 77, 69
1, 58196, Note_on_c, 0, 59, 56
1, 58196, Note_on_c, 9, 51, 52
1, 58197, Note_on_c, 0, 64, 50
1, 58197, Note_on_c, 9, 44, 54
1, 58200, Note_on_c, 0, 53, 35
1, 58200, Note_on_c, 1, 37, 40
1, 58207, Note_on_c, 1, 31, 0
1, 58210, Note_on_c, 0, 64, 0
1, 58215, Note_on_c, 0, 53, 0
1, 58225, Note_on_c, 0, 77, 0
1, 58241, Note_on_c, 0, 74, 39
1, 58249, Note_on_c, 0, 74, 0
1, 58255, Note_on_c, 9, 44, 0
1, 58258, Note_on_c, 0, 59, 0
1, 58278, Note_on_c, 9, 35, 49
1, 58283, Note_on_c, 9, 51, 0
1, 58286, Note_on_c, 9, 35, 0
1, 58295, Note_on_c, 0, 77, 94
1, 58315, Note_on_c, 1, 36, 59
1, 58316, Note_on_c, 9, 51, 57
1, 58317, Note_on_c, 1, 37, 0
1, 58326, Note_on_c, 0, 77, 0
1, 58367, Note_on_c, 0, 77, 85
1, 58394, Note_on_c, 0, 77, 0
1, 58416, Note_on_c, 9, 51, 0
1, 58424, Note_on_c, 1, 36, 0
1, 58430, Note_on_c, 0, 74, 60
1, 58436, Note_on_c, 0, 74, 0
1, 58436, Note_on_c, 9, 51, 43
1, 58437, Note_on_c, 1, 34, 53
1, 58437, Note_on_c, 9, 44, 56
1, 58448, Note_on_c, 0, 58, 29
1, 58449, Note_on_c, 0, 62, 30
1, 58452, Note_on_c, 0, 52, 34
1, 58453, Note_on_c, 0, 77, 74
1, 58461, Note_on_c, 0, 52, 0
1, 58465, Note_on_c, 0, 62, 0
1, 58468, Note_on_c, 0, 58, 0
1, 58480, Note_on_c, 0, 77, 0
1, 58488, Note_on_c, 0, 79, 55
1, 58490, Note_on_c, 9, 44, 0
1, 58496, Note_on_c, 0, 77, 50
1, 58502, Note_on_c, 0, 79, 0
1, 58513, Note_on_c, 9, 51, 0
1, 58516, Note_on_c, 9, 51, 34
1, 58517, Note_on_c, 0, 74, 43
1, 58521, Note_on_c, 0, 77, 0
1, 58544, Note_on_c, 0, 74, 0
1, 58546, Note_on_c, 9, 51, 0
1, 58550, Note_on_c, 1, 34, 0
1, 58556, Note_on_c, 9, 51, 53
1, 58559, Note_on_c, 1, 33, 50
1, 58570, Note_on_c, 0, 67, 55
1, 58571, Note_on_c, 0, 63, 45
1, 58574, Note_on_c, 0, 77, 80
1, 58577, Note_on_c, 0, 67, 0
1, 58585, Note_on_c, 0, 63, 0
1, 58606, Note_on_c, 0, 77, 0
1, 58638, Note_on_c, 0, 74, 60
1, 58655, Note_on_c, 0, 74, 0
1, 58656, Note_on_c, 9, 51, 0
1, 58676, Note_on_c, 9, 51, 61
1, 58677, Note_on_c, 9, 44, 57
1, 58701, Note_on_c, 0, 77, 89
1, 58725, Note_on_c, 0, 77, 0
1, 58725, Note_on_c, 9, 44, 0
1, 58736, Note_on_c, 0, 79, 54
1, 58744, Note_on_c, 0, 77, 47
1, 58750, Note_on_c, 0, 79, 0
1, 58756, Note_on_c, 9, 51, 15
1, 58760, Note_on_c, 9, 35, 34
1, 58761, Note_on_c, 9, 51, 0
1, 58767, Note_on_c, 0, 77, 0
1, 58768, Note_on_c, 0, 74, 51
1, 58772, Note_on_c, 9, 35, 0
1, 58774, Note_on_c, 1, 33, 0
1, 58775, Note_on_c, 1, 36, 29
1, 58790, Note_on_c, 1, 36, 0
1, 58792, Note_on_c, 9, 51, 0
1, 58792, Note_on_c, 0, 74, 0
1, 58796, Note_on_c, 9, 51, 37
1, 58797, Note_on_c, 1, 41, 63
1, 58809, Note_on_c, 0, 79, 38
1, 58809, Note_on_c, 0, 77, 50
1, 58814, Note_on_c, 0, 79, 0
1, 58832, Note_on_c, 0, 77, 0
1, 58864, Note_on_c, 0, 70, 51
1, 58896, Note_on_c, 9, 51, 0
1, 58916, Note_on_c, 9, 51, 61
1, 58917, Note_on_c, 9, 44, 51
1, 58942, Note_on_c, 0, 70, 0
1, 58943, Note_on_c, 0, 63, 39
1, 58946, Note_on_c, 0, 69, 62
1, 58949, Note_on_c, 0, 60, 22
1, 58952, Note_on_c, 0, 57, 49
1, 58970, Note_on_c, 9, 44, 0
1, 58992, Note_on_c, 0, 60, 0
1, 58993, Note_on_c, 9, 51, 0
1, 58994, Note_on_c, 0, 57, 0
1, 58996, Note_on_c, 9, 51, 39
1, 58997, Note_on_c, 9, 35, 46
1, 58999, Control_c, 0, 64, 127
1, 59004, Note_on_c, 0, 63, 0
1, 59017, Note_on_c, 9, 51, 0
1, 59027, Note_on_c, 9, 35, 0
1, 59035, Note_on_c, 1, 41, 0
1, 59036, Note_on_c, 9, 51, 52
1, 59037, Note_on_c, 1, 43, 71
1, 59046, Note_on_c, 9, 35, 39
1, 59063, Control_c, 0, 64, 0
1, 59067, Note_on_c, 9, 35, 0
1, 59101, Note_on_c, 0, 69, 0
1, 59124, Control_c, 0, 64, 127
1, 59137, Note_on_c, 9, 51, 0
1, 59141, Control_c, 0, 64, 0
1, 59155, Note_on_c, 9, 51, 60
1, 59157, Note_on_c, 9, 44, 52
1, 59169, Control_c, 0, 64, 127
1, 59169, Note_on_c, 0, 62, 58
1, 59169, Note_on_c, 0, 70, 72
1, 59169, Note_on_c, 0, 74, 74
1, 59171, Note_on_c, 0, 67, 72
1, 59185, Note_on_c, 0, 62, 0
1, 59185, Control_c, 0, 64, 0
1, 59197, Note_on_c, 0, 74, 0
1, 59197, Note_on_c, 0, 67, 0
1, 59202, Note_on_c, 0, 70, 0
1, 59205, Note_on_c, 9, 44, 0
1, 59222, Control_c, 0, 64, 127
1, 59231, Note_on_c, 9, 35, 36
1, 59236, Note_on_c, 9, 51, 34
1, 59237, Note_on_c, 9, 51, 0
1, 59243, Note_on_c, 9, 35, 0
1, 59267, Note_on_c, 9, 51, 0
1, 59269, Control_c, 0, 64, 0
1, 59273, Note_on_c, 1, 43, 0
1, 59273, Note_on_c, 1, 36, 73
1, 59276, Note_on_c, 9, 51, 49
1, 59283, Note_on_c, 0, 68, 73
1, 59285, Note_on_c, 0, 58, 39
1, 59286, Note_on_c, 0, 64, 74
1, 59286, Note_on_c, 0, 72, 66
1, 59295, Control_c, 0, 64, 127
1, 59302, Note_on_c, 0, 72, 0
1, 59309, Note_on_c, 0, 68, 0
1, 59313, Note_on_c, 0, 58, 0
1, 59316, Note_on_c, 0, 64, 0
1, 59364, Note_on_c, 0, 57, 43
1, 59365, Note_on_c, 0, 61, 60
1, 59366, Note_on_c, 0, 58, 58
1, 59367, Note_on_c, 0, 68, 51
1, 59368, Note_on_c, 0, 64, 55
1, 59381, Note_on_c, 9, 51, 0
1, 59385, Control_c, 0, 64, 0
1, 59386, Note_on_c, 1, 36, 0
1, 59389, Note_on_c, 0, 57, 0
1, 59392, Note_on_c, 0, 58, 0
1, 59396, Note_on_c, 9, 51, 56
1, 59397, Note_on_c, 9, 44, 50
1, 59406, Note_on_c, 0, 52, 40
1, 59408, Note_on_c, 0, 58, 18
1, 59412, Control_c, 0, 64, 127
1, 59416, Note_on_c, 0, 68, 0
1, 59418, Note_on_c, 0, 64, 0
1, 59432, Note_on_c, 0, 58, 0
1, 59435, Note_on_c, 9, 44, 0
1, 59455, Note_on_c, 0, 61, 0
1, 59472, Note_on_c, 0, 52, 0
1, 59472, Note_on_c, 1, 34, 52
1, 59476, Note_on_c, 9, 51, 25
1, 59477, Note_on_c, 9, 51, 0
1, 59484, Note_on_c, 0, 65, 49
1, 59484, Note_on_c, 0, 57, 46
1, 59484, Control_c, 0, 64, 0
1, 59485, Note_on_c, 0, 60, 45
1, 59485, Note_on_c, 0, 53, 43
1, 59485, Note_on_c, 0, 62, 40
1, 59495, Note_on_c, 1, 34, 0
1, 59506, Note_on_c, 9, 51, 0
1, 59511, Note_on_c, 1, 33, 55
1, 59516, Note_on_c, 9, 51, 33
1, 59529, Control_c, 0, 64, 127
1, 59542, Note_on_c, 0, 57, 0
1, 59551, Note_on_c, 0, 60, 0
1, 59552, Note_on_c, 0, 53, 0
1, 59556, Note_on_c, 0, 62, 0
1, 59557, Note_on_c, 0, 65, 0
1, 59561, Control_c, 0, 64, 0
1, 59606, Note_on_c, 0, 72, 84
1, 59612, Note_on_c, 9, 51, 0
1, 59634, Note_on_c, 0, 72, 0
1, 59636, Note_on_c, 9, 51, 56
1, 59637, Note_on_c, 9, 44, 57
1, 59648, Note_on_c, 0, 67, 29
1, 59657, Note_on_c, 0, 68, 54
1, 59662, Note_on_c, 0, 68, 0
1, 59662, Note_on_c, 0, 67, 0
1, 59680, Note_on_c, 9, 44, 0
1, 59716, Note_on_c, 9, 51, 23
1, 59717, Note_on_c, 9, 51, 0
1, 59725, Note_on_c, 0, 74, 87
1, 59741, Note_on_c, 9, 51, 0
1, 59748, Note_on_c, 0, 74, 0
1, 59756, Note_on_c, 9, 51, 52
1, 59762, Note_on_c, 1, 38, 74
1, 59763, Note_on_c, 1, 33, 0
1, 59765, Note_on_c, 0, 62, 28
1, 59766, Note_on_c, 0, 54, 33
1, 59767, Note_on_c, 0, 60, 18
1, 59769, Note_on_c, 0, 72, 56
1, 59785, Note_on_c, 0, 62, 0
1, 59787, Note_on_c, 0, 72, 0
1, 59788, Note_on_c, 0, 60, 0
1, 59808, Note_on_c, 0, 54, 0
1, 59826, Note_on_c, 9, 51, 0
1, 59836, Note_on_c, 9, 51, 35
1, 59838, Note_on_c, 9, 34, 56
1, 59845, Note_on_c, 0, 68, 64
1, 59852, Note_on_c, 9, 51, 0
1, 59853, Note_on_c, 9, 34, 0
1, 59854, Note_on_c, 0, 68, 0
1, 59855, Note_on_c, 0, 69, 72
1, 59876, Note_on_c, 0, 69, 0
1, 59876, Note_on_c, 9, 51, 56
1, 59877, Note_on_c, 9, 44, 52
1, 59889, Note_on_c, 0, 65, 59
1, 59915, Note_on_c, 0, 65, 0
1, 59919, Note_on_c, 1, 29, 49
1, 59922, Note_on_c, 9, 34, 48
1, 59924, Note_on_c, 1, 38, 0
1, 59924, Note_on_c, 0, 62, 44
1, 59927, Note_on_c, 9, 44, 0
1, 59928, Note_on_c, 9, 34, 0
1, 59930, Note_on_c, 0, 62, 0
1, 59936, Note_on_c, 1, 29, 0
1, 59951, Note_on_c, 1, 30, 58
1, 59957, Note_on_c, 9, 34, 53
1, 59959, Note_on_c, 0, 65, 71
1, 59962, Note_on_c, 0, 62, 36
1, 59963, Note_on_c, 0, 58, 43
1, 59964, Note_on_c, 0, 57, 38
1, 59966, Note_on_c, 9, 51, 0
1, 59975, Note_on_c, 1, 30, 0
1, 59993, Note_on_c, 9, 34, 0
1, 59995, Note_on_c, 1, 31, 79
1, 59996, Note_on_c, 9, 51, 55
1, 59997, Note_on_c, 9, 55, 69
1, 59998, Note_on_c, 9, 35, 65
1, 60009, Note_on_c, 9, 55, 0
1, 60019, Note_on_c, 9, 35, 0
1, 60027, Note_on_c, 0, 62, 0
1, 60080, Note_on_c, 0, 65, 0
1, 60083, Note_on_c, 0, 62, 48
1, 60088, Note_on_c, 9, 51, 0
1, 60098, Note_on_c, 0, 62, 0
1, 60116, Note_on_c, 9, 51, 35
1, 60117, Note_on_c, 9, 44, 56
1, 60129, Note_on_c, 0, 65, 50
1, 60131, Note_on_c, 0, 58, 0
1, 60136, Note_on_c, 0, 57, 0
1, 60141, Note_on_c, 9, 51, 0
1, 60145, Note_on_c, 0, 65, 0
1, 60163, Note_on_c, 9, 44, 0
1, 60191, Note_on_c, 9, 35, 57
1, 60196, Note_on_c, 9, 51, 37
1, 60201, Note_on_c, 0, 67, 59
1, 60202, Note_on_c, 0, 57, 30
1, 60202, Note_on_c, 0, 62, 24
1, 60204, Note_on_c, 0, 58, 32
1, 60208, Note_on_c, 9, 35, 0
1, 60213, Note_on_c, 0, 62, 0
1, 60214, Note_on_c, 0, 57, 0
1, 60216, Note_on_c, 0, 67, 0
1, 60222, Note_on_c, 9, 51, 0
1, 60226, Note_on_c, 0, 58, 0
1, 60233, Note_on_c, 1, 36, 52
1, 60235, Note_on_c, 1, 31, 0
1, 60243, Note_on_c, 0, 67, 50
1, 60255, Note_on_c, 0, 67, 0
1, 60255, Note_on_c, 0, 68, 57
1, 60272, Note_on_c, 0, 67, 34
1, 60283, Note_on_c, 0, 68, 0
1, 60300, Note_on_c, 0, 67, 0
1, 60305, Note_on_c, 0, 65, 53
1, 60315, Note_on_c, 9, 51, 77
1, 60319, Note_on_c, 0, 65, 0
1, 60331, Note_on_c, 0, 62, 45
1, 60333, Note_on_c, 9, 51, 0
1, 60353, Note_on_c, 0, 62, 0
1, 60356, Note_on_c, 0, 60, 44
1, 60356, Note_on_c, 9, 51, 33
1, 60357, Note_on_c, 9, 44, 57
1, 60366, Note_on_c, 0, 60, 0
1, 60378, Note_on_c, 0, 65, 69
1, 60400, Note_on_c, 9, 44, 0
1, 60436, Note_on_c, 9, 51, 0
1, 60444, Note_on_c, 0, 65, 0
1, 60451, Note_on_c, 0, 62, 35
1, 60456, Control_c, 0, 64, 127
1, 60468, Note_on_c, 1, 36, 0
1, 60476, Note_on_c, 9, 51, 50
1, 60480, Note_on_c, 1, 29, 59
1, 60488, Note_on_c, 0, 62, 0
1, 60524, Control_c, 0, 64, 0
1, 60535, Note_on_c, 0, 69, 88
1, 60540, Note_on_c, 0, 41, 52
1, 60563, Note_on_c, 9, 51, 0
1, 60573, Control_c, 0, 64, 127
1, 60619, Note_on_c, 0, 48, 55
1, 60641, Note_on_c, 0, 41, 0
1, 60705, Note_on_c, 0, 69, 0
1, 60706, Note_on_c, 0, 57, 47
1, 60706, Note_on_c, 0, 65, 70
1, 60725, Note_on_c, 0, 65, 0
1, 60807, Note_on_c, 0, 48, 0
1, 60812, Note_on_c, 0, 77, 87
1, 60814, Note_on_c, 0, 57, 0
1, 60853, Note_on_c, 0, 77, 0
1, 60924, Note_on_c, 0, 76, 71
1, 60929, Note_on_c, 0, 69, 63
1, 60929, Note_on_c, 0, 65, 50
1, 60932, Note_on_c, 0, 61, 53
1, 60935, Control_c, 0, 64, 0
1, 60936, Note_on_c, 0, 50, 35
1, 60960, Note_on_c, 1, 29, 0
1, 60983, Control_c, 0, 64, 127
1, 61021, Note_on_c, 0, 76, 0
1, 61036, Note_on_c, 0, 61, 0
1, 61052, Note_on_c, 0, 60, 33
1, 61054, Note_on_c, 0, 74, 63
1, 61077, Note_on_c, 0, 69, 0
1, 61081, Note_on_c, 0, 65, 0
1, 61129, Note_on_c, 0, 74, 0
1, 61172, Note_on_c, 0, 69, 54
1, 61176, Note_on_c, 0, 64, 34
1, 61179, Note_on_c, 0, 65, 51
1, 61179, Note_on_c, 0, 57, 31
1, 61180, Note_on_c, 0, 60, 0
1, 61215, Note_on_c, 0, 69, 0
1, 61221, Note_on_c, 0, 65, 0
1, 61229, Note_on_c, 0, 64, 0
1, 61241, Note_on_c, 0, 50, 0
1, 61309, Note_on_c, 0, 65, 48
1, 61311, Note_on_c, 0, 64, 35
1, 61316, Note_on_c, 0, 50, 33
1, 61324, Note_on_c, 0, 57, 0
1, 61343, Note_on_c, 0, 64, 0
1, 61346, Note_on_c, 0, 50, 0
1, 61352, Note_on_c, 0, 65, 0
1, 61460, Note_on_c, 0, 62, 47
1, 61462, Note_on_c, 0, 43, 34
1, 61464, Note_on_c, 0, 57, 29
1, 61465, Note_on_c, 0, 58, 28
1, 61470, Control_c, 0, 64, 0
1, 61470, Note_on_c, 0, 53, 27
1, 61518, Control_c, 0, 64, 127
1, 61579, Note_on_c, 0, 57, 0
1, 61599, Note_on_c, 0, 58, 0
1, 61606, Note_on_c, 0, 62, 0
1, 61618, Note_on_c, 0, 53, 0
1, 61650, Note_on_c, 0, 43, 0
1, 61650, Note_on_c, 0, 58, 71
1, 61653, Note_on_c, 0, 55, 74
1, 61653, Note_on_c, 0, 46, 49
1, 61660, Control_c, 0, 64, 0
1, 61683, Control_c, 0, 64, 127
1, 61715, Note_on_c, 0, 55, 0
1, 61726, Note_on_c, 0, 58, 0
1, 61738, Note_on_c, 0, 58, 56
1, 61740, Control_c, 0, 64, 0
1, 61740, Note_on_c, 0, 55, 66
1, 61742, Note_on_c, 0, 62, 69
1, 61743, Note_on_c, 0, 50, 73
1, 61764, Control_c, 0, 64, 127
1, 61765, Note_on_c, 0, 55, 0
1, 61773, Note_on_c, 0, 58, 0
1, 61777, Note_on_c, 0, 62, 0
1, 61818, Note_on_c, 0, 58, 69
1, 61818, Note_on_c, 0, 65, 69
1, 61821, Note_on_c, 0, 62, 54
1, 61823, Note_on_c, 0, 53, 66
1, 61826, Note_on_c, 0, 50, 0
1, 61829, Note_on_c, 0, 46, 0
1, 61838, Note_on_c, 0, 58, 0
1, 61839, Note_on_c, 0, 53, 0
1, 61840, Note_on_c, 0, 62, 0
1, 61849, Note_on_c, 0, 65, 0
1, 61921, Note_on_c, 0, 68, 74
1, 61922, Control_c, 0, 64, 0
1, 61923, Note_on_c, 0, 63, 73
1, 61923, Note_on_c, 0, 65, 74
1, 61925, Note_on_c, 0, 59, 75
1, 61925, Note_on_c, 0, 56, 53
1, 61926, Note_on_c, 0, 49, 59
1, 61974, Control_c, 0, 64, 127
1, 61993, Note_on_c, 0, 68, 0
1, 62026, Note_on_c, 0, 68, 68
1, 62039, Note_on_c, 0, 65, 0
1, 62042, Note_on_c, 0, 59, 0
1, 62051, Note_on_c, 0, 49, 0
1, 62058, Note_on_c, 0, 56, 0
1, 62065, Note_on_c, 0, 63, 0
1, 62075, Note_on_c, 0, 68, 0
1, 62137, Note_on_c, 0, 68, 52
1, 62141, Note_on_c, 0, 61, 52
1, 62142, Control_c, 0, 64, 0
1, 62143, Note_on_c, 0, 64, 51
1, 62144, Note_on_c, 0, 55, 45
1, 62144, Note_on_c, 0, 58, 36
1, 62147, Note_on_c, 0, 48, 38
1, 62184, Control_c, 0, 64, 127
1, 62221, Note_on_c, 0, 68, 0
1, 62222, Note_on_c, 0, 64, 0
1, 62243, Note_on_c, 0, 55, 0
1, 62260, Note_on_c, 0, 58, 0
1, 62309, Note_on_c, 0, 61, 0
1, 62320, Note_on_c, 0, 48, 0
1, 62357, Note_on_c, 0, 67, 68
1, 62492, Note_on_c, 0, 67, 0
1, 62565, Note_on_c, 0, 65, 44
1, 62570, Note_on_c, 0, 53, 33
1, 62571, Note_on_c, 0, 60, 37
1, 62576, Control_c, 0, 64, 0
1, 62577, Note_on_c, 0, 37, 36
1, 62624, Control_c, 0, 64, 127
1, 62638, Note_on_c, 0, 53, 0
1, 62657, Note_on_c, 0, 44, 50
1, 62659, Note_on_c, 0, 37, 0
1, 62661, Note_on_c, 0, 60, 0
1, 62705, Note_on_c, 0, 44, 0
1, 62717, Note_on_c, 0, 65, 0
1, 62736, Note_on_c, 0, 56, 33
1, 62739, Note_on_c, 0, 53, 40
1, 62741, Note_on_c, 0, 60, 36
1, 62747, Note_on_c, 0, 56, 0
1, 62751, Note_on_c, 0, 60, 0
1, 62822, Note_on_c, 0, 53, 0
1, 62823, Note_on_c, 0, 56, 40
1, 62825, Note_on_c, 0, 65, 61
1, 62827, Note_on_c, 0, 68, 42
1, 62856, Note_on_c, 0, 65, 0
1, 62861, Note_on_c, 0, 68, 0
1, 62925, Note_on_c, 0, 60, 44
1, 62926, Note_on_c, 0, 68, 59
1, 62926, Note_on_c, 0, 72, 55
1, 62954, Note_on_c, 0, 68, 0
1, 62962, Note_on_c, 0, 72, 0
1, 63033, Note_on_c, 0, 60, 0
1, 63033, Note_on_c, 0, 77, 51
1, 63035, Note_on_c, 0, 65, 34
1, 63036, Note_on_c, 0, 72, 41
1, 63058, Note_on_c, 0, 72, 0
1, 63069, Note_on_c, 0, 77, 0
1, 63144, Note_on_c, 0, 65, 0
1, 63151, Note_on_c, 0, 60, 33
1, 63151, Note_on_c, 0, 80, 39
1, 63156, Note_on_c, 0, 77, 34
1, 63182, Note_on_c, 0, 77, 0
1, 63188, Note_on_c, 0, 80, 0
1, 63286, Note_on_c, 0, 84, 62
1, 63290, Note_on_c, 0, 77, 36
1, 63291, Note_on_c, 0, 65, 32
1, 63307, Note_on_c, 0, 60, 0
1, 63312, Note_on_c, 0, 56, 0
1, 63317, Note_on_c, 0, 65, 0
1, 63378, Note_on_c, 0, 77, 0
1, 63379, Note_on_c, 0, 84, 0
1, 63408, Note_on_c, 0, 75, 55
1, 63411, Note_on_c, 0, 70, 36
1, 63412, Note_on_c, 0, 79, 60
1, 63416, Note_on_c, 0, 65, 36
1, 63416, Note_on_c, 0, 60, 29
1, 63424, Control_c, 0, 64, 0
1, 63442, Control_c, 0, 64, 127
1, 63457, Note_on_c, 0, 60, 0
1, 63461, Note_on_c, 0, 65, 0
1, 63471, Note_on_c, 0, 70, 0
1, 63478, Note_on_c, 0, 75, 0
1, 63522, Note_on_c, 0, 73, 47
1, 63525, Note_on_c, 0, 77, 61
1, 63527, Note_on_c, 0, 58, 30
1, 63534, Control_c, 0, 64, 0
1, 63534, Note_on_c, 0, 68, 13
1, 63536, Note_on_c, 0, 63, 21
1, 63553, Control_c, 0, 64, 127
1, 63565, Note_on_c, 0, 63, 0
1, 63568, Note_on_c, 0, 68, 0
1, 63569, Note_on_c, 0, 77, 0
1, 63570, Note_on_c, 0, 58, 0
1, 63570, Note_on_c, 0, 79, 0
1, 63574, Note_on_c, 0, 73, 0
1, 63647, Note_on_c, 0, 75, 49
1, 63651, Note_on_c, 0, 71, 42
1, 63652, Note_on_c, 0, 66, 25
1, 63655, Note_on_c, 0, 56, 18
1, 63660, Control_c, 0, 64, 0
1, 63664, Note_on_c, 0, 61, 19
1, 63677, Control_c, 0, 64, 127
1, 63702, Note_on_c, 0, 61, 0
1, 63709, Note_on_c, 0, 66, 0
1, 63713, Note_on_c, 0, 56, 0
1, 63720, Note_on_c, 0, 71, 0
1, 63721, Note_on_c, 0, 75, 0
1, 63777, Note_on_c, 0, 73, 42
1, 63780, Note_on_c, 0, 59, 34
1, 63780, Note_on_c, 0, 69, 41
1, 63780, Note_on_c, 0, 64, 22
1, 63784, Note_on_c, 0, 54, 27
1, 63787, Control_c, 0, 64, 0
1, 63813, Control_c, 0, 64, 127
1, 63833, Note_on_c, 0, 64, 0
1, 63834, Note_on_c, 0, 59, 0
1, 63835, Note_on_c, 0, 69, 0
1, 63850, Note_on_c, 0, 73, 0
1, 63853, Note_on_c, 0, 54, 0
1, 63888, Note_on_c, 0, 68, 59
1, 63889, Note_on_c, 0, 63, 35
1, 63892, Note_on_c, 0, 72, 62
1, 63894, Note_on_c, 0, 58, 40
1, 63898, Note_on_c, 0, 53, 30
1, 63902, Control_c, 0, 64, 0
1, 63926, Control_c, 0, 64, 127
1, 63941, Note_on_c, 0, 53, 0
1, 63947, Note_on_c, 0, 72, 0
1, 63950, Note_on_c, 0, 58, 0
1, 63950, Note_on_c, 0, 63, 0
1, 63951, Note_on_c, 0, 68, 0
1, 64004, Note_on_c, 0, 70, 58
1, 64006, Note_on_c, 0, 66, 46
1, 64006, Note_on_c, 0, 51, 42
1, 64006, Note_on_c, 0, 61, 25
1, 64009, Note_on_c, 0, 56, 39
1, 64012, Control_c, 0, 64, 0
1, 64043, Control_c, 0, 64, 127
1, 64241, Note_on_c, 0, 56, 0
1, 64243, Note_on_c, 0, 66, 0
1, 64247, Note_on_c, 0, 70, 0
1, 64249, Note_on_c, 0, 51, 0
1, 64264, Note_on_c, 0, 61, 0
1, 64341, Note_on_c, 0, 64, 46
1, 64341, Note_on_c, 0, 68, 45
1, 64346, Note_on_c, 0, 54, 26
1, 64348, Control_c, 0, 64, 0
1, 64349, Note_on_c, 0, 49, 18
1, 64351, Note_on_c, 0, 59, 24
1, 64390, Control_c, 0, 64, 127
1, 64443, Note_on_c, 0, 59, 0
1, 64446, Note_on_c, 0, 54, 0
1, 64447, Note_on_c, 0, 64, 0
1, 64450, Note_on_c, 0, 68, 0
1, 64454, Note_on_c, 0, 49, 0
1, 64550, Note_on_c, 0, 66, 44
1, 64551, Note_on_c, 0, 62, 36
1, 64555, Note_on_c, 0, 57, 28
1, 64559, Control_c, 0, 64, 0
1, 64560, Note_on_c, 0, 47, 17
1, 64590, Control_c, 0, 64, 127
1, 64600, Note_on_c, 0, 47, 0
1, 64609, Note_on_c, 0, 57, 0
1, 64610, Note_on_c, 0, 62, 0
1, 64633, Note_on_c, 0, 66, 0
1, 64683, Note_on_c, 0, 61, 29
1, 64686, Note_on_c, 0, 65, 51
1, 64687, Note_on_c, 0, 56, 21
1, 64695, Note_on_c, 0, 46, 21
1, 64695, Control_c, 0, 64, 0
1, 64703, Control_c, 0, 64, 127
1, 64725, Note_on_c, 0, 56, 0
1, 64733, Note_on_c, 0, 46, 0
1, 64747, Note_on_c, 0, 65, 0
1, 64760, Note_on_c, 0, 61, 0
1, 64849, Note_on_c, 0, 64, 43
1, 64852, Note_on_c, 0, 41, 28
1, 64855, Note_on_c, 0, 62, 34
1, 64858, Note_on_c, 0, 57, 24
1, 64859, Control_c, 0, 64, 0
1, 64904, Control_c, 0, 64, 127
1, 64917, Note_on_c, 0, 57, 0
1, 64926, Note_on_c, 0, 62, 0
1, 64930, Note_on_c, 0, 64, 0
1, 64998, Note_on_c, 0, 76, 51
1, 65001, Note_on_c, 0, 48, 29
1, 65002, Note_on_c, 0, 69, 26
1, 65036, Note_on_c, 0, 41, 0
1, 65068, Note_on_c, 0, 69, 0
1, 65073, Note_on_c, 0, 76, 0
1, 65084, Note_on_c, 0, 48, 0
1, 65099, Note_on_c, 0, 72, 46
1, 65103, Note_on_c, 0, 57, 35
1, 65105, Note_on_c, 0, 69, 28
1, 65109, Note_on_c, 0, 64, 25
1, 65119, Note_on_c, 0, 69, 0
1, 65121, Note_on_c, 0, 64, 0
1, 65132, Note_on_c, 0, 72, 0
1, 65187, Note_on_c, 0, 57, 0
1, 65200, Note_on_c, 0, 74, 37
1, 65200, Note_on_c, 0, 79, 35
1, 65201, Note_on_c, 0, 69, 37
1, 65203, Note_on_c, 0, 60, 26
1, 65219, Note_on_c, 0, 69, 0
1, 65225, Note_on_c, 0, 74, 0
1, 65236, Note_on_c, 0, 79, 0
1, 65315, Note_on_c, 0, 88, 53
1, 65318, Note_on_c, 0, 81, 36
1, 65323, Note_on_c, 0, 64, 36
1, 65338, Note_on_c, 0, 60, 0
1, 65377, Note_on_c, 0, 81, 0
1, 65415, Note_on_c, 0, 88, 0
1, 65440, Note_on_c, 0, 64, 0
1, 65442, Note_on_c, 0, 60, 30
1, 65443, Note_on_c, 0, 84, 36
1, 65448, Note_on_c, 0, 76, 28
1, 65451, Note_on_c, 0, 81, 16
1, 65465, Note_on_c, 0, 81, 0
1, 65465, Note_on_c, 0, 76, 0
1, 65475, Note_on_c, 0, 84, 0
1, 65586, Note_on_c, 0, 100, 40
1, 65592, Note_on_c, 0, 88, 28
1, 65592, Note_on_c, 0, 93, 46
1, 65596, Note_on_c, 0, 60, 0
1, 65673, Note_on_c, 0, 93, 0
1, 65692, Note_on_c, 0, 88, 0
1, 65732, Note_on_c, 0, 100, 0
1, 65753, Note_on_c, 0, 96, 34
1, 65757, Note_on_c, 0, 88, 9
1, 65759, Note_on_c, 0, 36, 49
1, 65822, Note_on_c, 0, 88, 0
1, 65840, Note_on_c, 0, 96, 0
1, 66030, Note_on_c, 0, 36, 0
1, 66048, Control_c, 0, 64, 0
1, 66110, Control_c, 0, 64, 127
1, 66120, Note_on_c, 0, 29, 37
1, 66840, Note_on_c, 0, 29, 0
1, 66865, Control_c, 0, 64, 0
1, 66865, End_track
0, 0, End_of_file
