0, 0, Header, 0, 1, 960
1, 0, Start_track
1, 0, Title_t, "Strange Meadowlark"
1, 0, Text_t, "Dave Brubeck"
1, 0, Text_t, "dougmck@tpg.com.au - solo piano\012"
1, 0, Time_signature, 4, 2, 24, 8
1, 0, Key_signature, -1, "major"
1, 0, Tempo, 571429
1, 0, Marker_t, "First chorus rubato"
1, 3072, Marker_t, "Played very lightly - sparsely"
1, 3368, Note_on_c, 0, 81, 68
1, 4482, Note_on_c, 0, 82, 71
1, 4569, Note_on_c, 0, 81, 0
1, 6354, Note_on_c, 0, 82, 0
1, 6385, Note_on_c, 0, 84, 62
1, 6419, Control_c, 0, 64, 0
1, 6447, Note_on_c, 0, 53, 22
1, 6691, Control_c, 0, 64, 127
1, 7976, Note_on_c, 0, 53, 0
1, 9189, Note_on_c, 0, 72, 37
1, 10005, Note_on_c, 0, 72, 0
1, 10528, Marker_t, "2 voices only - in contrary motion"
1, 10711, Note_on_c, 0, 84, 0
1, 10783, Note_on_c, 0, 88, 64
1, 10807, Note_on_c, 0, 77, 41
1, 11628, Note_on_c, 0, 84, 55
1, 11659, Note_on_c, 0, 76, 29
1, 11665, Note_on_c, 0, 88, 0
1, 11669, Note_on_c, 0, 77, 0
1, 12334, Note_on_c, 0, 84, 0
1, 12438, Note_on_c, 0, 76, 0
1, 12455, Note_on_c, 0, 91, 63
1, 12478, Note_on_c, 0, 74, 31
1, 12480, Note_on_c, 0, 79, 40
1, 12599, Control_c, 0, 64, 0
1, 12769, Control_c, 0, 64, 127
1, 13476, Note_on_c, 0, 72, 32
1, 13572, Note_on_c, 0, 74, 0
1, 16176, Note_on_c, 0, 91, 0
1, 16290, Note_on_c, 0, 89, 54
1, 16300, Note_on_c, 0, 71, 36
1, 16415, Note_on_c, 0, 72, 0
1, 18419, Note_on_c, 0, 89, 0
1, 18421, Note_on_c, 0, 71, 0
1, 18442, Note_on_c, 0, 91, 51
1, 18469, Note_on_c, 0, 70, 31
1, 18703, Note_on_c, 0, 79, 0
1, 19279, Note_on_c, 0, 91, 0
1, 20352, Marker_t, "RH and LH  a tenth apart"
1, 20653, Note_on_c, 0, 93, 67
1, 20682, Note_on_c, 0, 77, 44
1, 20783, Control_c, 0, 64, 0
1, 20850, Control_c, 0, 64, 127
1, 21167, Note_on_c, 0, 93, 0
1, 21169, Note_on_c, 0, 77, 0
1, 21171, Note_on_c, 0, 70, 0
1, 21177, Note_on_c, 0, 89, 59
1, 21184, Note_on_c, 0, 74, 45
1, 21603, Note_on_c, 0, 74, 0
1, 21646, Note_on_c, 0, 76, 43
1, 21648, Note_on_c, 0, 89, 0
1, 21650, Note_on_c, 0, 91, 69
1, 21895, Control_c, 0, 64, 0
1, 21996, Control_c, 0, 64, 127
1, 22083, Note_on_c, 0, 88, 60
1, 22098, Note_on_c, 0, 76, 0
1, 22101, Note_on_c, 0, 72, 35
1, 22105, Note_on_c, 0, 91, 0
1, 22501, Control_c, 0, 64, 0
1, 22548, Note_on_c, 0, 89, 63
1, 22569, Note_on_c, 0, 74, 34
1, 22574, Note_on_c, 0, 72, 0
1, 22624, Note_on_c, 0, 88, 0
1, 23039, Note_on_c, 0, 86, 49
1, 23049, Note_on_c, 0, 70, 42
1, 23051, Note_on_c, 0, 74, 0
1, 23057, Control_c, 0, 64, 127
1, 23405, Note_on_c, 0, 89, 0
1, 23543, Note_on_c, 0, 86, 0
1, 23561, Note_on_c, 0, 70, 0
1, 23615, Note_on_c, 0, 88, 49
1, 23620, Note_on_c, 0, 72, 32
1, 23630, Control_c, 0, 64, 0
1, 23765, Control_c, 0, 64, 127
1, 24238, Note_on_c, 0, 72, 0
1, 24240, Note_on_c, 0, 84, 48
1, 24269, Note_on_c, 0, 69, 22
1, 24354, Note_on_c, 0, 88, 0
1, 24373, Note_on_c, 0, 69, 0
1, 24411, Note_on_c, 0, 84, 0
1, 25808, Note_on_c, 0, 41, 34
1, 26028, Note_on_c, 0, 41, 0
1, 26033, Note_on_c, 0, 48, 38
1, 26204, Note_on_c, 0, 75, 39
1, 26214, Note_on_c, 0, 48, 0
1, 26270, Note_on_c, 0, 57, 50
1, 26349, Note_on_c, 0, 79, 33
1, 26434, Note_on_c, 0, 57, 0
1, 26463, Note_on_c, 0, 83, 48
1, 26557, Note_on_c, 0, 86, 49
1, 26624, Note_on_c, 0, 62, 45
1, 27771, Note_on_c, 0, 62, 0
1, 27829, Note_on_c, 0, 67, 38
1, 28197, Note_on_c, 0, 75, 0
1, 28524, Note_on_c, 0, 70, 30
1, 28543, Note_on_c, 0, 67, 0
1, 28685, Note_on_c, 0, 79, 0
1, 28743, Note_on_c, 0, 83, 0
1, 28984, Note_on_c, 0, 71, 38
1, 29025, Note_on_c, 0, 86, 0
1, 29310, Note_on_c, 0, 74, 42
1, 29488, Note_on_c, 0, 74, 0
1, 29672, Note_on_c, 0, 79, 27
1, 29705, Note_on_c, 0, 71, 0
1, 29786, Note_on_c, 0, 74, 24
1, 29871, Note_on_c, 0, 79, 0
1, 30008, Note_on_c, 0, 83, 39
1, 30182, Note_on_c, 0, 83, 0
1, 30302, Note_on_c, 0, 86, 48
1, 30414, Note_on_c, 0, 86, 0
1, 30624, Note_on_c, 0, 91, 35
1, 30900, Note_on_c, 0, 91, 0
1, 30992, Note_on_c, 0, 98, 43
1, 31305, Note_on_c, 0, 98, 0
1, 31414, Note_on_c, 0, 95, 36
1, 31496, Note_on_c, 0, 95, 0
1, 31827, Note_on_c, 0, 103, 49
1, 31951, Note_on_c, 0, 103, 0
1, 32324, Note_on_c, 0, 107, 49
1, 32507, Note_on_c, 0, 107, 0
1, 33856, Note_on_c, 0, 74, 0
1, 33961, Note_on_c, 0, 70, 0
1, 35114, Marker_t, "Hands in unison 2 octaves apart"
1, 35466, Note_on_c, 0, 86, 33
1, 35548, Note_on_c, 0, 62, 29
1, 35573, Note_on_c, 0, 87, 44
1, 35595, Note_on_c, 0, 63, 25
1, 35637, Note_on_c, 0, 86, 0
1, 35649, Note_on_c, 0, 88, 66
1, 35678, Note_on_c, 0, 63, 0
1, 35684, Note_on_c, 0, 64, 49
1, 35738, Note_on_c, 0, 62, 0
1, 35755, Note_on_c, 0, 87, 0
1, 35773, Note_on_c, 0, 88, 0
1, 35793, Note_on_c, 0, 65, 45
1, 35814, Note_on_c, 0, 64, 0
1, 35819, Note_on_c, 0, 89, 57
1, 35839, Control_c, 0, 64, 0
1, 36208, Control_c, 0, 64, 127
1, 36785, Note_on_c, 0, 65, 0
1, 37460, Note_on_c, 0, 89, 0
1, 37529, Note_on_c, 0, 77, 30
1, 37589, Control_c, 0, 64, 0
1, 37605, Note_on_c, 0, 46, 30
1, 37791, Control_c, 0, 64, 127
1, 38061, Note_on_c, 0, 77, 0
1, 38137, Note_on_c, 0, 53, 26
1, 38655, Note_on_c, 0, 53, 0
1, 38678, Note_on_c, 0, 46, 0
1, 38715, Note_on_c, 0, 65, 47
1, 38718, Note_on_c, 0, 57, 41
1, 38728, Note_on_c, 0, 62, 31
1, 38733, Note_on_c, 0, 69, 36
1, 39301, Note_on_c, 0, 57, 0
1, 39416, Note_on_c, 0, 58, 39
1, 39573, Note_on_c, 0, 62, 0
1, 39676, Note_on_c, 0, 65, 0
1, 39760, Note_on_c, 0, 69, 0
1, 40239, Note_on_c, 0, 62, 31
1, 40252, Note_on_c, 0, 65, 30
1, 40254, Note_on_c, 0, 69, 35
1, 40929, Note_on_c, 0, 58, 0
1, 41144, Note_on_c, 0, 58, 55
1, 41364, Note_on_c, 0, 62, 0
1, 41410, Note_on_c, 0, 65, 0
1, 41415, Note_on_c, 0, 69, 0
1, 42001, Note_on_c, 0, 69, 41
1, 42011, Note_on_c, 0, 65, 37
1, 42020, Note_on_c, 0, 62, 31
1, 42075, Note_on_c, 0, 58, 0
1, 43631, Note_on_c, 0, 52, 62
1, 44051, Note_on_c, 0, 52, 0
1, 44109, Note_on_c, 0, 53, 48
1, 44390, Note_on_c, 0, 62, 0
1, 44410, Note_on_c, 0, 53, 0
1, 44425, Note_on_c, 0, 69, 0
1, 44494, Note_on_c, 0, 65, 0
1, 44518, Note_on_c, 0, 54, 50
1, 44671, Note_on_c, 0, 54, 0
1, 45104, Note_on_c, 0, 61, 35
1, 45129, Note_on_c, 0, 69, 46
1, 45143, Note_on_c, 0, 65, 45
1, 45158, Note_on_c, 0, 39, 45
1, 45222, Control_c, 0, 64, 0
1, 45590, Note_on_c, 0, 39, 0
1, 45657, Note_on_c, 0, 46, 44
1, 45727, Control_c, 0, 64, 127
1, 45885, Note_on_c, 0, 61, 0
1, 45964, Note_on_c, 0, 65, 0
1, 46057, Note_on_c, 0, 69, 0
1, 46107, Note_on_c, 0, 46, 0
1, 46169, Note_on_c, 0, 55, 42
1, 46364, Note_on_c, 0, 55, 0
1, 46683, Note_on_c, 0, 61, 42
1, 47298, Note_on_c, 0, 65, 47
1, 47327, Note_on_c, 0, 73, 26
1, 47328, Note_on_c, 0, 81, 36
1, 47337, Note_on_c, 0, 77, 35
1, 47369, Note_on_c, 0, 69, 24
1, 48315, Note_on_c, 0, 61, 0
1, 48550, Note_on_c, 0, 81, 0
1, 48567, Note_on_c, 0, 61, 46
1, 48568, Note_on_c, 0, 69, 0
1, 48622, Note_on_c, 0, 77, 0
1, 48746, Note_on_c, 0, 65, 0
1, 48872, Note_on_c, 0, 73, 0
1, 49304, Note_on_c, 0, 77, 75
1, 49317, Note_on_c, 0, 73, 70
1, 49336, Note_on_c, 0, 65, 44
1, 49954, Note_on_c, 0, 61, 0
1, 51024, Note_on_c, 0, 65, 0
1, 51616, Note_on_c, 0, 77, 0
1, 51708, Note_on_c, 0, 79, 57
1, 51915, Note_on_c, 0, 73, 0
1, 51989, Note_on_c, 0, 79, 0
1, 53086, Note_on_c, 0, 41, 33
1, 53304, Note_on_c, 0, 48, 31
1, 53339, Note_on_c, 0, 81, 45
1, 53408, Note_on_c, 0, 76, 50
1, 53433, Note_on_c, 0, 74, 53
1, 53450, Note_on_c, 0, 57, 29
1, 53457, Control_c, 0, 64, 0
1, 53528, Note_on_c, 0, 69, 25
1, 53759, Control_c, 0, 64, 127
1, 53833, Note_on_c, 0, 41, 0
1, 53899, Note_on_c, 0, 48, 0
1, 54005, Note_on_c, 0, 57, 0
1, 54349, Note_on_c, 0, 69, 0
1, 54448, Note_on_c, 0, 74, 0
1, 54470, Note_on_c, 0, 76, 0
1, 54547, Note_on_c, 0, 81, 0
1, 55386, Note_on_c, 0, 64, 45
1, 55389, Note_on_c, 0, 60, 47
1, 55402, Note_on_c, 0, 84, 80
1, 55406, Note_on_c, 0, 72, 70
1, 55777, Note_on_c, 0, 60, 0
1, 55817, Note_on_c, 0, 72, 0
1, 55900, Note_on_c, 0, 84, 0
1, 55908, Note_on_c, 0, 64, 0
1, 55911, Note_on_c, 0, 81, 65
1, 56042, Note_on_c, 0, 81, 0
1, 56672, Note_on_c, 0, 88, 51
1, 56689, Control_c, 0, 64, 0
1, 56691, Note_on_c, 0, 76, 40
1, 56696, Note_on_c, 0, 80, 31
1, 56698, Note_on_c, 0, 56, 46
1, 56704, Note_on_c, 0, 83, 48
1, 56993, Control_c, 0, 64, 127
1, 57185, Note_on_c, 0, 88, 0
1, 57254, Note_on_c, 0, 83, 0
1, 57338, Note_on_c, 0, 80, 0
1, 57403, Note_on_c, 0, 62, 24
1, 57407, Note_on_c, 0, 76, 0
1, 58164, Note_on_c, 0, 65, 25
1, 58171, Note_on_c, 0, 68, 30
1, 58173, Note_on_c, 0, 71, 34
1, 58761, Note_on_c, 0, 62, 0
1, 59088, Note_on_c, 0, 62, 33
1, 59298, Note_on_c, 0, 65, 0
1, 59523, Note_on_c, 0, 68, 0
1, 59528, Note_on_c, 0, 71, 0
1, 60578, Note_on_c, 0, 74, 76
1, 60876, Note_on_c, 0, 74, 0
1, 61220, Note_on_c, 0, 74, 66
1, 61694, Note_on_c, 0, 74, 0
1, 61760, Note_on_c, 0, 62, 0
1, 61776, Note_on_c, 0, 76, 72
1, 61964, Note_on_c, 0, 56, 0
1, 62082, Note_on_c, 0, 76, 0
1, 63253, Note_on_c, 0, 70, 56
1, 63255, Note_on_c, 0, 58, 51
1, 63258, Note_on_c, 0, 77, 66
1, 63278, Control_c, 0, 64, 0
1, 63283, Note_on_c, 0, 65, 50
1, 63315, Note_on_c, 0, 62, 20
1, 63429, Control_c, 0, 64, 127
1, 63544, Note_on_c, 0, 62, 0
1, 63594, Note_on_c, 0, 65, 0
1, 63601, Note_on_c, 0, 58, 0
1, 63633, Note_on_c, 0, 70, 0
1, 63665, Note_on_c, 0, 77, 0
1, 63723, Note_on_c, 0, 74, 64
1, 63895, Note_on_c, 0, 74, 0
1, 64308, Note_on_c, 0, 76, 43
1, 64322, Control_c, 0, 64, 0
1, 64328, Note_on_c, 0, 64, 47
1, 64350, Note_on_c, 0, 68, 37
1, 64377, Note_on_c, 0, 58, 35
1, 64432, Note_on_c, 0, 48, 20
1, 64523, Control_c, 0, 64, 127
1, 64616, Note_on_c, 0, 58, 0
1, 64627, Note_on_c, 0, 48, 0
1, 64736, Note_on_c, 0, 68, 0
1, 64770, Note_on_c, 0, 76, 0
1, 64868, Note_on_c, 0, 72, 54
1, 64918, Note_on_c, 0, 68, 25
1, 64992, Note_on_c, 0, 64, 0
1, 65066, Note_on_c, 0, 72, 0
1, 65120, Note_on_c, 0, 68, 0
1, 65340, Note_on_c, 0, 41, 32
1, 65449, Note_on_c, 0, 48, 31
1, 65476, Note_on_c, 0, 63, 42
1, 65568, Control_c, 0, 64, 0
1, 65578, Note_on_c, 0, 57, 32
1, 65598, Note_on_c, 0, 67, 32
1, 65630, Note_on_c, 0, 71, 44
1, 65708, Note_on_c, 0, 74, 32
1, 65906, Control_c, 0, 64, 127
1, 66025, Note_on_c, 0, 71, 0
1, 66366, Note_on_c, 0, 74, 0
1, 66373, Note_on_c, 0, 41, 0
1, 66403, Note_on_c, 0, 48, 0
1, 66432, Note_on_c, 0, 71, 51
1, 66551, Note_on_c, 0, 57, 0
1, 66569, Note_on_c, 0, 63, 0
1, 66679, Note_on_c, 0, 67, 0
1, 66684, Note_on_c, 0, 71, 0
1, 67208, Note_on_c, 0, 62, 31
1, 67209, Note_on_c, 0, 72, 36
1, 67216, Note_on_c, 0, 65, 36
1, 67228, Note_on_c, 0, 69, 39
1, 67236, Control_c, 0, 64, 0
1, 67246, Note_on_c, 0, 57, 36
1, 67265, Note_on_c, 0, 46, 23
1, 67556, Control_c, 0, 64, 127
1, 67584, Note_on_c, 0, 57, 0
1, 67624, Note_on_c, 0, 69, 0
1, 67755, Note_on_c, 0, 62, 0
1, 67890, Note_on_c, 0, 72, 0
1, 67923, Note_on_c, 0, 62, 38
1, 67925, Note_on_c, 0, 55, 32
1, 67928, Note_on_c, 0, 69, 45
1, 68095, Note_on_c, 0, 55, 0
1, 68142, Note_on_c, 0, 62, 0
1, 68212, Note_on_c, 0, 46, 0
1, 68254, Note_on_c, 0, 65, 0
1, 68493, Note_on_c, 0, 69, 0
1, 68686, Note_on_c, 0, 61, 45
1, 68713, Note_on_c, 0, 70, 40
1, 68718, Note_on_c, 0, 65, 34
1, 68738, Control_c, 0, 64, 0
1, 68757, Note_on_c, 0, 39, 36
1, 69177, Control_c, 0, 64, 127
1, 69262, Note_on_c, 0, 39, 0
1, 69272, Note_on_c, 0, 46, 38
1, 69698, Note_on_c, 0, 46, 0
1, 69771, Note_on_c, 0, 55, 44
1, 70218, Note_on_c, 0, 55, 0
1, 70265, Note_on_c, 0, 57, 40
1, 70329, Note_on_c, 0, 65, 0
1, 70680, Note_on_c, 0, 57, 0
1, 70737, Note_on_c, 0, 61, 0
1, 70830, Note_on_c, 0, 61, 19
1, 70877, Control_c, 0, 64, 0
1, 70887, Note_on_c, 0, 58, 48
1, 70889, Note_on_c, 0, 65, 36
1, 71147, Control_c, 0, 64, 127
1, 71480, Note_on_c, 0, 60, 38
1, 71517, Control_c, 0, 64, 0
1, 71519, Note_on_c, 0, 58, 0
1, 71551, Control_c, 0, 64, 127
1, 71855, Note_on_c, 0, 65, 0
1, 71950, Note_on_c, 0, 61, 0
1, 72218, Note_on_c, 0, 61, 31
1, 72253, Note_on_c, 0, 65, 35
1, 72275, Control_c, 0, 64, 0
1, 72276, Note_on_c, 0, 58, 33
1, 72295, Note_on_c, 0, 60, 0
1, 72409, Control_c, 0, 64, 127
1, 72955, Note_on_c, 0, 61, 0
1, 73236, Note_on_c, 0, 65, 0
1, 73251, Note_on_c, 0, 61, 34
1, 73330, Note_on_c, 0, 58, 0
1, 73960, Note_on_c, 0, 61, 0
1, 74057, Note_on_c, 0, 70, 0
1, 74072, Note_on_c, 0, 60, 39
1, 74094, Control_c, 0, 64, 0
1, 74104, Note_on_c, 0, 65, 44
1, 74121, Note_on_c, 0, 50, 28
1, 74363, Control_c, 0, 64, 127
1, 74606, Note_on_c, 0, 60, 0
1, 74753, Note_on_c, 0, 65, 0
1, 74783, Note_on_c, 0, 57, 56
1, 75117, Note_on_c, 0, 50, 0
1, 75233, Note_on_c, 0, 57, 0
1, 76701, Control_c, 0, 64, 0
1, 76732, Note_on_c, 0, 77, 70
1, 76737, Note_on_c, 0, 67, 57
1, 76740, Note_on_c, 0, 81, 66
1, 76747, Note_on_c, 0, 72, 68
1, 76888, Control_c, 0, 64, 127
1, 77116, Note_on_c, 0, 77, 0
1, 77142, Note_on_c, 0, 81, 0
1, 77189, Note_on_c, 0, 72, 0
1, 77384, Note_on_c, 0, 67, 0
1, 77410, Control_c, 0, 64, 0
1, 77412, Note_on_c, 0, 71, 60
1, 77417, Note_on_c, 0, 79, 52
1, 77424, Note_on_c, 0, 76, 57
1, 77447, Note_on_c, 0, 65, 40
1, 77545, Control_c, 0, 64, 127
1, 77595, Note_on_c, 0, 65, 0
1, 77684, Note_on_c, 0, 79, 0
1, 77688, Note_on_c, 0, 76, 0
1, 77768, Note_on_c, 0, 71, 0
1, 78113, Note_on_c, 0, 74, 47
1, 78118, Control_c, 0, 64, 0
1, 78128, Note_on_c, 0, 71, 43
1, 78129, Note_on_c, 0, 62, 33
1, 78138, Note_on_c, 0, 77, 40
1, 78193, Note_on_c, 0, 69, 22
1, 78319, Control_c, 0, 64, 127
1, 78922, Note_on_c, 0, 69, 0
1, 78929, Note_on_c, 0, 55, 37
1, 79566, Note_on_c, 0, 55, 0
1, 79751, Note_on_c, 0, 55, 24
1, 79878, Note_on_c, 0, 71, 0
1, 79909, Note_on_c, 0, 74, 0
1, 79954, Note_on_c, 0, 77, 0
1, 80058, Note_on_c, 0, 62, 0
1, 80660, Note_on_c, 0, 81, 39
1, 80686, Note_on_c, 0, 62, 29
1, 80688, Note_on_c, 0, 71, 28
1, 80688, Note_on_c, 0, 74, 42
1, 80691, Note_on_c, 0, 77, 36
1, 80854, Note_on_c, 0, 62, 0
1, 80948, Note_on_c, 0, 71, 0
1, 80975, Note_on_c, 0, 55, 0
1, 81017, Note_on_c, 0, 74, 0
1, 81026, Note_on_c, 0, 77, 0
1, 81095, Note_on_c, 0, 81, 0
1, 81874, Control_c, 0, 64, 0
1, 81938, Note_on_c, 0, 84, 33
1, 81963, Note_on_c, 0, 77, 43
1, 81965, Note_on_c, 0, 74, 34
1, 81970, Note_on_c, 0, 48, 31
1, 82076, Control_c, 0, 64, 127
1, 82371, Note_on_c, 0, 84, 0
1, 82425, Note_on_c, 0, 77, 0
1, 82508, Note_on_c, 0, 74, 0
1, 82654, Note_on_c, 0, 55, 31
1, 83168, Note_on_c, 0, 48, 0
1, 83329, Note_on_c, 0, 62, 31
1, 83337, Note_on_c, 0, 65, 35
1, 83579, Note_on_c, 0, 55, 0
1, 84045, Note_on_c, 0, 55, 24
1, 84142, Note_on_c, 0, 62, 0
1, 84389, Note_on_c, 0, 65, 0
1, 84819, Note_on_c, 0, 64, 47
1, 84824, Note_on_c, 0, 62, 37
1, 84856, Note_on_c, 0, 60, 36
1, 85441, Note_on_c, 0, 60, 0
1, 85689, Note_on_c, 0, 60, 29
1, 85915, Note_on_c, 0, 62, 0
1, 85994, Note_on_c, 0, 60, 0
1, 86094, Note_on_c, 0, 64, 0
1, 86146, Note_on_c, 0, 55, 0
1, 86476, Note_on_c, 0, 60, 53
1, 86491, Note_on_c, 0, 64, 46
1, 86509, Note_on_c, 0, 50, 57
1, 86850, Note_on_c, 0, 50, 0
1, 87019, Marker_t, "Chromatic LH descending from C to its tritone F# (Root of C7 /F#7#11 chords)"
1, 87269, Note_on_c, 0, 48, 68
1, 87758, Note_on_c, 0, 47, 73
1, 87788, Note_on_c, 0, 48, 0
1, 88094, Note_on_c, 0, 47, 0
1, 88125, Note_on_c, 0, 46, 76
1, 88183, Note_on_c, 0, 64, 0
1, 88277, Note_on_c, 0, 60, 0
1, 88359, Note_on_c, 0, 46, 0
1, 88465, Note_on_c, 0, 45, 60
1, 88670, Note_on_c, 0, 44, 49
1, 88796, Note_on_c, 0, 45, 0
1, 88908, Note_on_c, 0, 43, 41
1, 88910, Note_on_c, 0, 44, 0
1, 89212, Note_on_c, 0, 43, 0
1, 89248, Note_on_c, 0, 42, 53
1, 89261, Note_on_c, 0, 52, 35
1, 89281, Note_on_c, 0, 56, 42
1, 89298, Control_c, 0, 64, 0
1, 89300, Note_on_c, 0, 60, 33
1, 89301, Note_on_c, 0, 63, 39
1, 89317, Note_on_c, 0, 61, 30
1, 89871, Control_c, 0, 64, 127
1, 89970, Note_on_c, 0, 52, 0
1, 90120, Note_on_c, 0, 56, 0
1, 90126, Note_on_c, 0, 42, 0
1, 90131, Note_on_c, 0, 60, 0
1, 90190, Note_on_c, 0, 61, 0
1, 90200, Note_on_c, 0, 63, 0
1, 91015, Note_on_c, 0, 75, 37
1, 91020, Note_on_c, 0, 64, 31
1, 91028, Note_on_c, 0, 68, 35
1, 91040, Note_on_c, 0, 72, 40
1, 91049, Note_on_c, 0, 58, 46
1, 91821, Note_on_c, 0, 64, 0
1, 92099, Note_on_c, 0, 72, 0
1, 92117, Note_on_c, 0, 68, 0
1, 92277, Note_on_c, 0, 75, 0
1, 92845, Note_on_c, 0, 69, 101
1, 93291, Note_on_c, 0, 58, 0
1, 93399, Note_on_c, 0, 69, 0
1, 93478, Note_on_c, 0, 70, 79
1, 93881, Note_on_c, 0, 70, 0
1, 94551, Note_on_c, 0, 72, 53
1, 94553, Note_on_c, 0, 62, 40
1, 94560, Note_on_c, 0, 67, 49
1, 94570, Control_c, 0, 64, 0
1, 94627, Note_on_c, 0, 41, 33
1, 94923, Control_c, 0, 64, 127
1, 95035, Note_on_c, 0, 62, 0
1, 95111, Note_on_c, 0, 48, 51
1, 95138, Note_on_c, 0, 72, 0
1, 95139, Note_on_c, 0, 67, 0
1, 95274, Note_on_c, 0, 41, 0
1, 95536, Note_on_c, 0, 48, 0
1, 95603, Note_on_c, 0, 57, 48
1, 95655, Note_on_c, 0, 76, 74
1, 95716, Note_on_c, 0, 57, 0
1, 96084, Note_on_c, 0, 76, 0
1, 96151, Note_on_c, 0, 60, 48
1, 96158, Note_on_c, 0, 72, 59
1, 96289, Note_on_c, 0, 60, 0
1, 96299, Note_on_c, 0, 72, 0
1, 96759, Control_c, 0, 64, 0
1, 96777, Note_on_c, 0, 72, 43
1, 96782, Note_on_c, 0, 46, 38
1, 96798, Note_on_c, 0, 79, 48
1, 96818, Note_on_c, 0, 76, 55
1, 97110, Control_c, 0, 64, 127
1, 97344, Note_on_c, 0, 56, 51
1, 97394, Note_on_c, 0, 46, 0
1, 97463, Note_on_c, 0, 56, 0
1, 97569, Note_on_c, 0, 76, 0
1, 97701, Note_on_c, 0, 72, 0
1, 97995, Note_on_c, 0, 79, 0
1, 98021, Note_on_c, 0, 72, 37
1, 98029, Note_on_c, 0, 76, 35
1, 98039, Note_on_c, 0, 67, 31
1, 98058, Note_on_c, 0, 62, 36
1, 98216, Note_on_c, 0, 67, 0
1, 98671, Note_on_c, 0, 67, 49
1, 99239, Note_on_c, 0, 76, 0
1, 99311, Note_on_c, 0, 72, 0
1, 99355, Note_on_c, 0, 77, 58
1, 99413, Note_on_c, 0, 67, 0
1, 99474, Note_on_c, 0, 62, 0
1, 99644, Note_on_c, 0, 77, 0
1, 99689, Note_on_c, 0, 79, 60
1, 99716, Note_on_c, 0, 77, 24
1, 99855, Note_on_c, 0, 77, 0
1, 99874, Note_on_c, 0, 79, 0
1, 100137, Note_on_c, 0, 61, 47
1, 100144, Control_c, 0, 64, 0
1, 100148, Note_on_c, 0, 55, 38
1, 100156, Note_on_c, 0, 66, 51
1, 100176, Note_on_c, 0, 81, 70
1, 100482, Control_c, 0, 64, 127
1, 101807, Note_on_c, 0, 55, 0
1, 101891, Note_on_c, 0, 66, 0
1, 101960, Note_on_c, 0, 61, 0
1, 101984, Note_on_c, 0, 81, 0
1, 102027, Note_on_c, 0, 77, 50
1, 102206, Note_on_c, 0, 77, 0
1, 102669, Control_c, 0, 64, 0
1, 102723, Note_on_c, 0, 79, 39
1, 102730, Note_on_c, 0, 72, 35
1, 102738, Note_on_c, 0, 60, 27
1, 102740, Note_on_c, 0, 65, 32
1, 102770, Note_on_c, 0, 50, 25
1, 102940, Control_c, 0, 64, 127
1, 103126, Note_on_c, 0, 65, 0
1, 103193, Note_on_c, 0, 79, 0
1, 103235, Note_on_c, 0, 50, 0
1, 103240, Note_on_c, 0, 76, 62
1, 103319, Note_on_c, 0, 72, 0
1, 103415, Note_on_c, 0, 60, 0
1, 103424, Note_on_c, 0, 76, 0
1, 104040, Note_on_c, 0, 78, 28
1, 104111, Note_on_c, 0, 65, 49
1, 104117, Note_on_c, 0, 71, 53
1, 104141, Note_on_c, 0, 68, 36
1, 104143, Note_on_c, 0, 74, 36
1, 104168, Control_c, 0, 64, 0
1, 104274, Note_on_c, 0, 74, 0
1, 104673, Control_c, 0, 64, 127
1, 104697, Note_on_c, 0, 78, 0
1, 104700, Note_on_c, 0, 74, 62
1, 104754, Note_on_c, 0, 59, 32
1, 104756, Note_on_c, 0, 65, 0
1, 104831, Note_on_c, 0, 68, 0
1, 104875, Note_on_c, 0, 71, 0
1, 104920, Note_on_c, 0, 74, 0
1, 104944, Note_on_c, 0, 59, 0
1, 105297, Control_c, 0, 64, 0
1, 105361, Note_on_c, 0, 76, 38
1, 105377, Note_on_c, 0, 68, 34
1, 105379, Note_on_c, 0, 60, 32
1, 105399, Note_on_c, 0, 64, 26
1, 105616, Control_c, 0, 64, 127
1, 105660, Note_on_c, 0, 60, 0
1, 105865, Note_on_c, 0, 64, 0
1, 105885, Note_on_c, 0, 68, 0
1, 105937, Control_c, 0, 64, 0
1, 106012, Note_on_c, 0, 76, 0
1, 106043, Note_on_c, 0, 72, 51
1, 106046, Note_on_c, 0, 48, 31
1, 106048, Note_on_c, 0, 64, 44
1, 106049, Note_on_c, 0, 58, 25
1, 106076, Note_on_c, 0, 68, 31
1, 106138, Control_c, 0, 64, 127
1, 106236, Note_on_c, 0, 48, 0
1, 106249, Note_on_c, 0, 58, 0
1, 106439, Note_on_c, 0, 64, 0
1, 106476, Note_on_c, 0, 72, 0
1, 106579, Note_on_c, 0, 68, 0
1, 106931, Control_c, 0, 64, 0
1, 106952, Note_on_c, 0, 63, 46
1, 106978, Note_on_c, 0, 74, 28
1, 106988, Note_on_c, 0, 71, 34
1, 107044, Note_on_c, 0, 41, 31
1, 107227, Note_on_c, 0, 63, 0
1, 107232, Control_c, 0, 64, 127
1, 107279, Note_on_c, 0, 71, 0
1, 107361, Note_on_c, 0, 74, 0
1, 107659, Note_on_c, 0, 41, 0
1, 107714, Note_on_c, 0, 86, 66
1, 107741, Note_on_c, 0, 57, 36
1, 107815, Note_on_c, 0, 57, 0
1, 108218, Note_on_c, 0, 86, 0
1, 108532, Note_on_c, 0, 86, 54
1, 108551, Note_on_c, 0, 63, 37
1, 108559, Note_on_c, 0, 74, 34
1, 108573, Note_on_c, 0, 83, 49
1, 108588, Note_on_c, 0, 67, 26
1, 108589, Note_on_c, 0, 79, 32
1, 108613, Note_on_c, 0, 62, 32
1, 109209, Note_on_c, 0, 62, 0
1, 109324, Note_on_c, 0, 60, 35
1, 109744, Note_on_c, 0, 79, 0
1, 109865, Note_on_c, 0, 63, 0
1, 109997, Note_on_c, 0, 67, 0
1, 110172, Note_on_c, 0, 67, 41
1, 110184, Note_on_c, 0, 63, 46
1, 111029, Note_on_c, 0, 60, 0
1, 111560, Note_on_c, 0, 59, 58
1, 111887, Note_on_c, 0, 74, 0
1, 112015, Note_on_c, 0, 83, 0
1, 112039, Note_on_c, 0, 86, 0
1, 112537, Note_on_c, 0, 59, 0
1, 112638, Control_c, 0, 64, 0
1, 112674, Note_on_c, 0, 89, 71
1, 112692, Note_on_c, 0, 77, 68
1, 112695, Note_on_c, 0, 58, 32
1, 112875, Control_c, 0, 64, 127
1, 113357, Note_on_c, 0, 58, 0
1, 113470, Note_on_c, 0, 89, 0
1, 113587, Note_on_c, 0, 57, 48
1, 113648, Note_on_c, 0, 77, 0
1, 113719, Note_on_c, 0, 67, 0
1, 113745, Note_on_c, 0, 63, 0
1, 113839, Note_on_c, 0, 57, 0
1, 115063, Note_on_c, 0, 77, 46
1, 115098, Control_c, 0, 64, 0
1, 115128, Note_on_c, 0, 69, 18
1, 115128, Note_on_c, 0, 46, 32
1, 115333, Control_c, 0, 64, 127
1, 115676, Note_on_c, 0, 77, 0
1, 115736, Note_on_c, 0, 69, 0
1, 115793, Note_on_c, 0, 53, 29
1, 116054, Note_on_c, 0, 46, 0
1, 116412, Note_on_c, 0, 53, 0
1, 116430, Note_on_c, 0, 65, 32
1, 116445, Note_on_c, 0, 69, 31
1, 116475, Note_on_c, 0, 57, 38
1, 117084, Note_on_c, 0, 57, 0
1, 117157, Note_on_c, 0, 60, 35
1, 117278, Note_on_c, 0, 65, 0
1, 117294, Note_on_c, 0, 69, 0
1, 117297, Note_on_c, 0, 60, 0
1, 117927, Control_c, 0, 64, 0
1, 117962, Note_on_c, 0, 69, 32
1, 117967, Note_on_c, 0, 51, 29
1, 117971, Note_on_c, 0, 65, 30
1, 117989, Note_on_c, 0, 60, 27
1, 117994, Note_on_c, 0, 61, 12
1, 118347, Control_c, 0, 64, 127
1, 118769, Control_c, 0, 64, 0
1, 118807, Note_on_c, 0, 58, 42
1, 118846, Note_on_c, 0, 60, 0
1, 119021, Control_c, 0, 64, 127
1, 119358, Note_on_c, 0, 65, 0
1, 119382, Note_on_c, 0, 61, 0
1, 119385, Note_on_c, 0, 69, 0
1, 119395, Note_on_c, 0, 58, 0
1, 119795, Control_c, 0, 64, 0
1, 119824, Note_on_c, 0, 61, 29
1, 119859, Note_on_c, 0, 60, 28
1, 119872, Note_on_c, 0, 69, 28
1, 119887, Note_on_c, 0, 65, 29
1, 120114, Control_c, 0, 64, 127
1, 120423, Note_on_c, 0, 69, 0
1, 120444, Note_on_c, 0, 61, 0
1, 120487, Note_on_c, 0, 65, 0
1, 121057, Note_on_c, 0, 65, 44
1, 121132, Note_on_c, 0, 51, 0
1, 121231, Note_on_c, 0, 60, 0
1, 121457, Note_on_c, 0, 67, 57
1, 121470, Note_on_c, 0, 65, 0
1, 121693, Note_on_c, 0, 67, 0
1, 122068, Control_c, 0, 64, 0
1, 122070, Note_on_c, 0, 66, 59
1, 122071, Note_on_c, 0, 55, 40
1, 122073, Note_on_c, 0, 61, 48
1, 122077, Note_on_c, 0, 69, 71
1, 122354, Control_c, 0, 64, 127
1, 122839, Note_on_c, 0, 69, 0
1, 122969, Note_on_c, 0, 72, 71
1, 123347, Note_on_c, 0, 66, 0
1, 123375, Note_on_c, 0, 69, 66
1, 123454, Note_on_c, 0, 55, 0
1, 123607, Note_on_c, 0, 72, 0
1, 123720, Note_on_c, 0, 69, 0
1, 123931, Note_on_c, 0, 61, 0
1, 124084, Note_on_c, 0, 76, 36
1, 124091, Note_on_c, 0, 68, 37
1, 124096, Note_on_c, 0, 71, 42
1, 124098, Note_on_c, 0, 64, 44
1, 124133, Note_on_c, 0, 54, 43
1, 124138, Note_on_c, 0, 60, 32
1, 124173, Control_c, 0, 64, 0
1, 124847, Control_c, 0, 64, 127
1, 125059, Note_on_c, 0, 64, 0
1, 125178, Note_on_c, 0, 71, 0
1, 125186, Note_on_c, 0, 68, 0
1, 125285, Note_on_c, 0, 76, 0
1, 126564, Note_on_c, 0, 74, 47
1, 126959, Note_on_c, 0, 60, 0
1, 126980, Note_on_c, 0, 54, 0
1, 127111, Note_on_c, 0, 76, 62
1, 127147, Note_on_c, 0, 74, 0
1, 127387, Note_on_c, 0, 76, 0
1, 127710, Control_c, 0, 64, 0
1, 127753, Note_on_c, 0, 71, 60
1, 127757, Note_on_c, 0, 77, 66
1, 127767, Note_on_c, 0, 64, 47
1, 127780, Note_on_c, 0, 65, 53
1, 127785, Note_on_c, 0, 59, 33
1, 127817, Note_on_c, 0, 53, 22
1, 127962, Control_c, 0, 64, 127
1, 128158, Note_on_c, 0, 65, 0
1, 128185, Note_on_c, 0, 77, 0
1, 128214, Note_on_c, 0, 64, 0
1, 128261, Note_on_c, 0, 71, 0
1, 128264, Note_on_c, 0, 59, 0
1, 128267, Note_on_c, 0, 74, 57
1, 128329, Note_on_c, 0, 53, 0
1, 128449, Note_on_c, 0, 74, 0
1, 128771, Control_c, 0, 64, 0
1, 128783, Note_on_c, 0, 76, 56
1, 128803, Note_on_c, 0, 64, 50
1, 128820, Note_on_c, 0, 58, 38
1, 128827, Note_on_c, 0, 62, 30
1, 128830, Note_on_c, 0, 52, 34
1, 128849, Note_on_c, 0, 68, 27
1, 129005, Control_c, 0, 64, 127
1, 129220, Note_on_c, 0, 62, 0
1, 129238, Note_on_c, 0, 58, 0
1, 129248, Note_on_c, 0, 68, 0
1, 129292, Note_on_c, 0, 52, 0
1, 129309, Note_on_c, 0, 76, 0
1, 129324, Note_on_c, 0, 72, 58
1, 129484, Note_on_c, 0, 72, 0
1, 129521, Note_on_c, 0, 64, 0
1, 129855, Note_on_c, 0, 41, 36
1, 129983, Control_c, 0, 64, 0
1, 130023, Note_on_c, 0, 74, 52
1, 130026, Note_on_c, 0, 63, 37
1, 130033, Note_on_c, 0, 71, 29
1, 130057, Note_on_c, 0, 67, 34
1, 130119, Note_on_c, 0, 57, 39
1, 130270, Control_c, 0, 64, 127
1, 130357, Note_on_c, 0, 71, 0
1, 130639, Note_on_c, 0, 74, 0
1, 130661, Note_on_c, 0, 41, 0
1, 130744, Note_on_c, 0, 71, 49
1, 130829, Note_on_c, 0, 57, 0
1, 130952, Note_on_c, 0, 67, 0
1, 130984, Note_on_c, 0, 63, 0
1, 130996, Note_on_c, 0, 71, 0
1, 131567, Control_c, 0, 64, 0
1, 131569, Note_on_c, 0, 72, 41
1, 131579, Note_on_c, 0, 62, 30
1, 131590, Note_on_c, 0, 67, 35
1, 131621, Note_on_c, 0, 56, 29
1, 131653, Note_on_c, 0, 46, 25
1, 131868, Control_c, 0, 64, 127
1, 131896, Note_on_c, 0, 46, 0
1, 132202, Note_on_c, 0, 56, 0
1, 132667, Note_on_c, 0, 72, 0
1, 132706, Note_on_c, 0, 69, 41
1, 133111, Note_on_c, 0, 67, 0
1, 133191, Note_on_c, 0, 69, 0
1, 133233, Note_on_c, 0, 62, 0
1, 134025, Control_c, 0, 64, 0
1, 134073, Note_on_c, 0, 39, 31
1, 134102, Note_on_c, 0, 70, 34
1, 134122, Note_on_c, 0, 46, 27
1, 134351, Note_on_c, 0, 39, 0
1, 134364, Note_on_c, 0, 70, 0
1, 134384, Note_on_c, 0, 46, 0
1, 134789, Note_on_c, 0, 61, 23
1, 134809, Note_on_c, 0, 70, 35
1, 134823, Note_on_c, 0, 39, 30
1, 134839, Note_on_c, 0, 46, 25
1, 134851, Note_on_c, 0, 65, 35
1, 135041, Note_on_c, 0, 65, 0
1, 135048, Note_on_c, 0, 61, 0
1, 135053, Note_on_c, 0, 39, 0
1, 135085, Note_on_c, 0, 70, 0
1, 135102, Note_on_c, 0, 46, 0
1, 135552, Note_on_c, 0, 61, 23
1, 135560, Note_on_c, 0, 70, 35
1, 135572, Control_c, 0, 64, 127
1, 135577, Note_on_c, 0, 46, 31
1, 135602, Note_on_c, 0, 65, 30
1, 136121, Note_on_c, 0, 46, 0
1, 136152, Note_on_c, 0, 61, 0
1, 136231, Note_on_c, 0, 55, 32
1, 136236, Note_on_c, 0, 65, 0
1, 136320, Note_on_c, 0, 70, 0
1, 136854, Note_on_c, 0, 55, 0
1, 136975, Note_on_c, 0, 58, 31
1, 137632, Note_on_c, 0, 82, 47
1, 137680, Note_on_c, 0, 70, 30
1, 137689, Note_on_c, 0, 65, 24
1, 138127, Note_on_c, 0, 65, 0
1, 138216, Note_on_c, 0, 70, 0
1, 138265, Note_on_c, 0, 82, 0
1, 138611, Note_on_c, 0, 82, 39
1, 138673, Note_on_c, 0, 70, 20
1, 138675, Note_on_c, 0, 65, 26
1, 139522, Note_on_c, 0, 65, 0
1, 139688, Note_on_c, 0, 82, 0
1, 139748, Note_on_c, 0, 58, 0
1, 139774, Note_on_c, 0, 70, 0
1, 140812, Note_on_c, 0, 69, 47
1, 140950, Note_on_c, 0, 65, 47
1, 141081, Control_c, 0, 64, 0
1, 141108, Note_on_c, 0, 60, 34
1, 141128, Note_on_c, 0, 50, 24
1, 141467, Control_c, 0, 64, 127
1, 141870, Note_on_c, 0, 60, 0
1, 141895, Note_on_c, 0, 57, 32
1, 142216, Note_on_c, 0, 65, 0
1, 142231, Note_on_c, 0, 69, 0
1, 142551, Note_on_c, 0, 69, 63
1, 142562, Note_on_c, 0, 65, 68
1, 142583, Note_on_c, 0, 60, 31
1, 143006, Note_on_c, 0, 60, 0
1, 143080, Note_on_c, 0, 57, 0
1, 143083, Note_on_c, 0, 69, 0
1, 143134, Note_on_c, 0, 67, 66
1, 143149, Note_on_c, 0, 64, 65
1, 143181, Note_on_c, 0, 50, 0
1, 143182, Control_c, 0, 64, 127
1, 143182, Control_c, 0, 64, 127
1, 143182, Control_c, 0, 64, 0
1, 143216, Note_on_c, 0, 65, 0
1, 143352, Note_on_c, 0, 64, 0
1, 143886, Note_on_c, 0, 67, 0
1, 143955, Note_on_c, 0, 62, 37
1, 143960, Control_c, 0, 64, 0
1, 143965, Note_on_c, 0, 65, 38
1, 143992, Note_on_c, 0, 43, 24
1, 144002, Note_on_c, 0, 53, 20
1, 144431, Control_c, 0, 64, 127
1, 144725, Note_on_c, 0, 53, 0
1, 144738, Note_on_c, 0, 50, 37
1, 144780, Note_on_c, 0, 43, 0
1, 144856, Note_on_c, 0, 50, 0
1, 145617, Note_on_c, 0, 59, 42
1, 145679, Note_on_c, 0, 62, 0
1, 145873, Control_c, 0, 64, 0
1, 146880, Note_on_c, 0, 65, 0
1, 146944, Note_on_c, 0, 69, 36
1, 147265, Note_on_c, 0, 59, 0
1, 147765, Control_c, 0, 64, 0
1, 148007, Note_on_c, 0, 73, 46
1, 148086, Note_on_c, 0, 45, 39
1, 148240, Control_c, 0, 64, 127
1, 148473, Note_on_c, 0, 69, 0
1, 148830, Note_on_c, 0, 52, 27
1, 149441, Control_c, 0, 64, 0
1, 149465, Note_on_c, 0, 64, 48
1, 149500, Note_on_c, 0, 57, 37
1, 149932, Note_on_c, 0, 45, 0
1, 149946, Note_on_c, 0, 73, 0
1, 150083, Note_on_c, 0, 73, 56
1, 150125, Note_on_c, 0, 45, 38
1, 150440, Note_on_c, 0, 45, 0
1, 150508, Note_on_c, 0, 73, 0
1, 150564, Note_on_c, 0, 52, 0
1, 150645, Note_on_c, 0, 64, 0
1, 150661, Note_on_c, 0, 73, 57
1, 150705, Note_on_c, 0, 57, 0
1, 150720, Note_on_c, 0, 45, 59
1, 150735, Control_c, 0, 64, 0
1, 151157, Control_c, 0, 64, 127
1, 151248, Note_on_c, 0, 54, 47
1, 151837, Note_on_c, 0, 57, 59
1, 152454, Note_on_c, 0, 54, 0
1, 152469, Note_on_c, 0, 62, 41
1, 152471, Note_on_c, 0, 66, 55
1, 152671, Note_on_c, 0, 57, 0
1, 152815, Note_on_c, 0, 45, 0
1, 152818, Note_on_c, 0, 62, 0
1, 152934, Note_on_c, 0, 66, 0
1, 152981, Note_on_c, 0, 45, 59
1, 153096, Note_on_c, 0, 73, 0
1, 153116, Note_on_c, 0, 62, 48
1, 153117, Note_on_c, 0, 53, 22
1, 153183, Note_on_c, 0, 65, 48
1, 153232, Note_on_c, 0, 68, 62
1, 153250, Control_c, 0, 64, 0
1, 153307, Note_on_c, 0, 56, 63
1, 153311, Note_on_c, 0, 73, 43
1, 153838, Control_c, 0, 64, 127
1, 153914, Note_on_c, 0, 73, 0
1, 154062, Note_on_c, 0, 73, 51
1, 154650, Note_on_c, 0, 73, 0
1, 154814, Note_on_c, 0, 73, 39
1, 155162, Note_on_c, 0, 45, 0
1, 155199, Note_on_c, 0, 73, 0
1, 155221, Note_on_c, 0, 56, 0
1, 155548, Note_on_c, 0, 73, 39
1, 155606, Note_on_c, 0, 62, 0
1, 155644, Note_on_c, 0, 65, 0
1, 155654, Note_on_c, 0, 53, 0
1, 155718, Note_on_c, 0, 68, 0
1, 156190, Note_on_c, 0, 73, 0
1, 156514, Note_on_c, 0, 73, 34
1, 156572, Note_on_c, 0, 45, 53
1, 156651, Control_c, 0, 64, 0
1, 157072, Control_c, 0, 64, 127
1, 157341, Control_c, 0, 64, 0
1, 157365, Note_on_c, 0, 54, 34
1, 157544, Control_c, 0, 64, 127
1, 158367, Note_on_c, 0, 66, 23
1, 158374, Note_on_c, 0, 64, 36
1, 158446, Note_on_c, 0, 57, 33
1, 158453, Control_c, 0, 64, 0
1, 158707, Control_c, 0, 64, 127
1, 159639, Note_on_c, 0, 64, 0
1, 159827, Note_on_c, 0, 66, 0
1, 159930, Note_on_c, 0, 73, 0
1, 160985, Note_on_c, 0, 45, 0
1, 161150, Note_on_c, 0, 54, 0
1, 161153, Note_on_c, 0, 73, 38
1, 161220, Note_on_c, 0, 57, 0
1, 161568, Marker_t, "Pedal tone (A) in bass but in middle register of piano"
1, 161783, Note_on_c, 0, 73, 0
1, 161939, Control_c, 0, 64, 0
1, 162016, Note_on_c, 0, 74, 46
1, 162032, Note_on_c, 0, 69, 30
1, 162042, Note_on_c, 0, 57, 40
1, 162174, Control_c, 0, 64, 127
1, 162267, Note_on_c, 0, 69, 0
1, 162307, Note_on_c, 0, 57, 0
1, 162354, Note_on_c, 0, 74, 0
1, 162756, Note_on_c, 0, 57, 31
1, 163071, Note_on_c, 0, 57, 0
1, 163344, Note_on_c, 0, 81, 54
1, 163379, Note_on_c, 0, 78, 51
1, 163401, Note_on_c, 0, 69, 37
1, 163990, Note_on_c, 0, 57, 40
1, 164237, Note_on_c, 0, 57, 0
1, 164385, Note_on_c, 0, 69, 0
1, 164444, Note_on_c, 0, 81, 0
1, 164505, Note_on_c, 0, 78, 0
1, 165116, Note_on_c, 0, 57, 53
1, 165706, Note_on_c, 0, 81, 59
1, 165724, Note_on_c, 0, 69, 55
1, 165726, Note_on_c, 0, 78, 54
1, 165766, Note_on_c, 0, 74, 41
1, 165815, Note_on_c, 0, 57, 0
1, 166292, Note_on_c, 0, 57, 64
1, 166364, Note_on_c, 0, 74, 0
1, 166366, Note_on_c, 0, 81, 0
1, 166529, Note_on_c, 0, 69, 0
1, 166689, Note_on_c, 0, 78, 0
1, 166705, Note_on_c, 0, 57, 0
1, 166887, Note_on_c, 0, 80, 65
1, 166914, Note_on_c, 0, 57, 54
1, 166920, Note_on_c, 0, 76, 68
1, 166929, Note_on_c, 0, 73, 45
1, 166932, Note_on_c, 0, 69, 57
1, 166941, Control_c, 0, 64, 0
1, 167203, Note_on_c, 0, 57, 0
1, 167243, Control_c, 0, 64, 127
1, 167560, Note_on_c, 0, 57, 46
1, 167774, Note_on_c, 0, 69, 0
1, 167865, Note_on_c, 0, 73, 0
1, 167876, Note_on_c, 0, 76, 0
1, 167969, Note_on_c, 0, 80, 0
1, 168110, Note_on_c, 0, 78, 54
1, 168111, Note_on_c, 0, 57, 0
1, 168148, Note_on_c, 0, 69, 33
1, 168162, Note_on_c, 0, 74, 38
1, 168523, Note_on_c, 0, 74, 0
1, 168610, Note_on_c, 0, 78, 0
1, 168691, Note_on_c, 0, 57, 39
1, 168733, Note_on_c, 0, 69, 0
1, 168911, Note_on_c, 0, 57, 0
1, 169917, Note_on_c, 0, 57, 46
1, 170437, Note_on_c, 0, 57, 0
1, 170534, Note_on_c, 0, 76, 50
1, 170554, Note_on_c, 0, 69, 32
1, 170566, Note_on_c, 0, 73, 32
1, 171125, Note_on_c, 0, 69, 0
1, 171151, Note_on_c, 0, 57, 55
1, 171193, Note_on_c, 0, 76, 0
1, 171203, Note_on_c, 0, 73, 0
1, 171423, Note_on_c, 0, 57, 0
1, 171789, Note_on_c, 0, 79, 62
1, 171826, Note_on_c, 0, 73, 51
1, 171828, Note_on_c, 0, 57, 49
1, 171834, Note_on_c, 0, 76, 50
1, 171839, Control_c, 0, 64, 0
1, 171849, Note_on_c, 0, 70, 59
1, 172160, Control_c, 0, 64, 127
1, 172187, Note_on_c, 0, 57, 0
1, 172506, Note_on_c, 0, 57, 57
1, 173019, Note_on_c, 0, 79, 0
1, 173062, Note_on_c, 0, 70, 0
1, 173165, Note_on_c, 0, 70, 36
1, 173167, Note_on_c, 0, 78, 60
1, 173232, Note_on_c, 0, 57, 0
1, 173716, Note_on_c, 0, 57, 58
1, 174238, Note_on_c, 0, 57, 0
1, 174368, Note_on_c, 0, 76, 0
1, 174487, Note_on_c, 0, 78, 0
1, 174742, Note_on_c, 0, 70, 0
1, 174932, Note_on_c, 0, 57, 52
1, 175127, Note_on_c, 0, 73, 0
1, 175527, Note_on_c, 0, 70, 39
1, 175529, Note_on_c, 0, 76, 53
1, 175591, Note_on_c, 0, 73, 14
1, 175636, Note_on_c, 0, 57, 0
1, 176011, Note_on_c, 0, 70, 0
1, 176049, Note_on_c, 0, 73, 0
1, 176065, Note_on_c, 0, 76, 0
1, 176139, Note_on_c, 0, 74, 57
1, 176189, Note_on_c, 0, 57, 38
1, 176276, Note_on_c, 0, 74, 0
1, 176476, Note_on_c, 0, 57, 0
1, 176842, Control_c, 0, 64, 0
1, 176844, Note_on_c, 0, 76, 37
1, 176859, Note_on_c, 0, 66, 33
1, 176889, Note_on_c, 0, 73, 29
1, 176900, Note_on_c, 0, 69, 32
1, 177313, Control_c, 0, 64, 127
1, 177476, Note_on_c, 0, 57, 40
1, 178072, Note_on_c, 0, 57, 0
1, 178647, Note_on_c, 0, 57, 31
1, 179277, Note_on_c, 0, 45, 45
1, 179672, Note_on_c, 0, 57, 0
1, 179959, Note_on_c, 0, 57, 62
1, 180554, Note_on_c, 0, 66, 0
1, 180560, Note_on_c, 0, 57, 0
1, 180591, Note_on_c, 0, 69, 0
1, 180673, Note_on_c, 0, 76, 0
1, 180683, Note_on_c, 0, 73, 0
1, 181089, Note_on_c, 0, 57, 65
1, 181330, Note_on_c, 0, 45, 0
1, 181587, Note_on_c, 0, 57, 0
1, 181746, Note_on_c, 0, 57, 67
1, 181755, Note_on_c, 0, 71, 74
1, 181761, Note_on_c, 0, 68, 74
1, 181763, Note_on_c, 0, 65, 77
1, 181810, Control_c, 0, 64, 0
1, 182096, Control_c, 0, 64, 127
1, 182299, Note_on_c, 0, 57, 0
1, 182465, Note_on_c, 0, 57, 82
1, 182734, Note_on_c, 0, 65, 0
1, 182771, Note_on_c, 0, 71, 0
1, 182790, Note_on_c, 0, 68, 0
1, 183319, Note_on_c, 0, 57, 0
1, 183611, Note_on_c, 0, 77, 72
1, 183626, Note_on_c, 0, 68, 78
1, 183630, Note_on_c, 0, 71, 74
1, 183636, Note_on_c, 0, 74, 68
1, 183643, Note_on_c, 0, 57, 81
1, 184152, Note_on_c, 0, 57, 0
1, 184705, Note_on_c, 0, 57, 96
1, 185226, Note_on_c, 0, 57, 0
1, 185451, Note_on_c, 0, 57, 80
1, 185846, Note_on_c, 0, 57, 0
1, 186049, Note_on_c, 0, 74, 0
1, 186057, Note_on_c, 0, 77, 0
1, 186093, Note_on_c, 0, 57, 68
1, 186208, Note_on_c, 0, 68, 0
1, 186339, Note_on_c, 0, 71, 0
1, 186413, Note_on_c, 0, 57, 0
1, 186694, Control_c, 0, 64, 0
1, 186716, Note_on_c, 0, 76, 64
1, 186717, Note_on_c, 0, 73, 51
1, 186721, Note_on_c, 0, 68, 58
1, 186758, Note_on_c, 0, 57, 64
1, 186980, Control_c, 0, 64, 127
1, 187178, Note_on_c, 0, 57, 0
1, 187447, Note_on_c, 0, 57, 46
1, 188166, Note_on_c, 0, 57, 0
1, 188277, Note_on_c, 0, 68, 0
1, 188334, Note_on_c, 0, 73, 0
1, 188416, Note_on_c, 0, 76, 0
1, 188562, Note_on_c, 0, 74, 50
1, 188565, Note_on_c, 0, 68, 36
1, 188591, Note_on_c, 0, 57, 44
1, 188786, Note_on_c, 0, 68, 0
1, 188834, Note_on_c, 0, 74, 0
1, 189290, Note_on_c, 0, 73, 34
1, 189303, Control_c, 0, 64, 0
1, 189308, Note_on_c, 0, 64, 46
1, 189342, Note_on_c, 0, 45, 37
1, 189657, Control_c, 0, 64, 127
1, 189778, Note_on_c, 0, 57, 0
1, 190037, Note_on_c, 0, 57, 44
1, 190575, Note_on_c, 0, 57, 0
1, 190623, Note_on_c, 0, 64, 0
1, 191220, Note_on_c, 0, 64, 42
1, 191238, Note_on_c, 0, 57, 41
1, 191401, Note_on_c, 0, 64, 0
1, 191517, Note_on_c, 0, 57, 0
1, 191579, Note_on_c, 0, 73, 0
1, 191860, Note_on_c, 0, 45, 0
1, 191934, Note_on_c, 0, 76, 56
1, 191947, Control_c, 0, 64, 0
1, 191969, Note_on_c, 0, 66, 37
1, 191986, Note_on_c, 0, 57, 42
1, 191998, Note_on_c, 0, 69, 34
1, 192050, Note_on_c, 0, 73, 15
1, 192233, Control_c, 0, 64, 127
1, 192250, Note_on_c, 0, 57, 0
1, 192661, Note_on_c, 0, 57, 41
1, 193259, Note_on_c, 0, 57, 0
1, 193394, Note_on_c, 0, 66, 0
1, 193449, Note_on_c, 0, 73, 0
1, 193479, Note_on_c, 0, 69, 0
1, 193513, Note_on_c, 0, 76, 0
1, 193807, Note_on_c, 0, 74, 36
1, 193827, Note_on_c, 0, 66, 30
1, 193841, Note_on_c, 0, 69, 35
1, 193852, Note_on_c, 0, 57, 30
1, 193980, Note_on_c, 0, 74, 0
1, 194004, Note_on_c, 0, 69, 0
1, 194037, Note_on_c, 0, 66, 0
1, 194123, Note_on_c, 0, 57, 0
1, 194637, Note_on_c, 0, 73, 34
1, 194671, Note_on_c, 0, 62, 24
1, 194681, Note_on_c, 0, 68, 48
1, 194687, Note_on_c, 0, 65, 40
1, 194704, Note_on_c, 0, 57, 39
1, 194724, Control_c, 0, 64, 0
1, 194978, Control_c, 0, 64, 127
1, 195117, Note_on_c, 0, 57, 0
1, 195516, Note_on_c, 0, 57, 37
1, 195840, Note_on_c, 0, 57, 0
1, 196023, Note_on_c, 0, 62, 0
1, 196115, Note_on_c, 0, 65, 0
1, 196191, Note_on_c, 0, 73, 0
1, 196204, Note_on_c, 0, 68, 0
1, 196619, Note_on_c, 0, 71, 40
1, 196665, Note_on_c, 0, 57, 40
1, 196676, Note_on_c, 0, 65, 29
1, 196682, Note_on_c, 0, 62, 31
1, 196934, Note_on_c, 0, 71, 0
1, 197175, Note_on_c, 0, 62, 0
1, 197236, Note_on_c, 0, 65, 0
1, 197488, Note_on_c, 0, 45, 36
1, 197505, Control_c, 0, 64, 0
1, 197518, Note_on_c, 0, 57, 0
1, 197555, Note_on_c, 0, 69, 32
1, 197740, Control_c, 0, 64, 127
1, 198234, Note_on_c, 0, 57, 37
1, 198687, Note_on_c, 0, 57, 0
1, 198887, Note_on_c, 0, 45, 0
1, 198899, Note_on_c, 0, 61, 37
1, 199036, Marker_t, "Again LH takes root down in chromatic run from A7 to Eb7"
1, 199440, Note_on_c, 0, 44, 57
1, 199724, Note_on_c, 0, 44, 0
1, 199838, Note_on_c, 0, 43, 41
1, 200063, Note_on_c, 0, 69, 0
1, 200070, Note_on_c, 0, 42, 39
1, 200075, Note_on_c, 0, 61, 0
1, 200171, Note_on_c, 0, 43, 0
1, 200341, Note_on_c, 0, 42, 0
1, 200357, Note_on_c, 0, 41, 50
1, 200646, Note_on_c, 0, 40, 43
1, 200804, Note_on_c, 0, 41, 0
1, 200918, Note_on_c, 0, 40, 0
1, 200929, Note_on_c, 0, 39, 51
1, 200954, Note_on_c, 0, 61, 35
1, 200979, Note_on_c, 0, 69, 38
1, 200991, Control_c, 0, 64, 0
1, 200996, Note_on_c, 0, 65, 46
1, 201631, Control_c, 0, 64, 127
1, 202551, Note_on_c, 0, 61, 0
1, 202612, Note_on_c, 0, 65, 0
1, 202976, Note_on_c, 0, 39, 0
1, 203072, Note_on_c, 0, 69, 0
1, 203964, Note_on_c, 0, 69, 74
1, 204710, Note_on_c, 0, 69, 0
1, 204779, Control_c, 0, 64, 0
1, 204796, Note_on_c, 0, 71, 60
1, 204796, Note_on_c, 0, 66, 58
1, 204872, Note_on_c, 0, 50, 36
1, 205031, Control_c, 0, 64, 127
1, 205283, Note_on_c, 0, 66, 0
1, 205370, Note_on_c, 0, 71, 0
1, 205416, Note_on_c, 0, 57, 64
1, 206048, Note_on_c, 0, 81, 82
1, 206488, Note_on_c, 0, 50, 0
1, 206639, Note_on_c, 0, 81, 0
1, 206780, Note_on_c, 0, 50, 30
1, 206810, Note_on_c, 0, 81, 64
1, 206997, Note_on_c, 0, 50, 0
1, 207220, Note_on_c, 0, 81, 0
1, 207536, Note_on_c, 0, 57, 0
1, 207556, Control_c, 0, 64, 0
1, 207570, Note_on_c, 0, 81, 50
1, 207575, Note_on_c, 0, 51, 43
1, 207608, Note_on_c, 0, 72, 34
1, 207877, Control_c, 0, 64, 127
1, 208137, Note_on_c, 0, 81, 0
1, 208242, Note_on_c, 0, 72, 0
1, 208299, Note_on_c, 0, 57, 41
1, 208897, Note_on_c, 0, 57, 0
1, 209065, Note_on_c, 0, 63, 36
1, 209077, Note_on_c, 0, 60, 27
1, 209085, Note_on_c, 0, 66, 44
1, 209609, Note_on_c, 0, 63, 0
1, 209660, Note_on_c, 0, 66, 0
1, 210913, Note_on_c, 0, 81, 62
1, 211020, Note_on_c, 0, 51, 0
1, 211155, Note_on_c, 0, 81, 0
1, 211649, Note_on_c, 0, 60, 0
1, 211694, Note_on_c, 0, 80, 39
1, 211709, Note_on_c, 0, 52, 32
1, 211718, Control_c, 0, 64, 0
1, 212085, Control_c, 0, 64, 127
1, 212336, Note_on_c, 0, 59, 20
1, 212835, Note_on_c, 0, 59, 0
1, 212946, Note_on_c, 0, 64, 33
1, 213117, Note_on_c, 0, 52, 0
1, 213156, Note_on_c, 0, 64, 0
1, 213571, Note_on_c, 0, 78, 45
1, 213834, Note_on_c, 0, 80, 0
1, 214093, Note_on_c, 0, 78, 0
1, 214336, Marker_t, "Run on F#7 altered - LH plays F#, RH plays C triad"
1, 214446, Control_c, 0, 64, 0
1, 214463, Note_on_c, 0, 76, 38
1, 214479, Note_on_c, 0, 54, 36
1, 214696, Control_c, 0, 64, 127
1, 214723, Note_on_c, 0, 54, 0
1, 215094, Note_on_c, 0, 66, 36
1, 215168, Note_on_c, 0, 76, 0
1, 215217, Note_on_c, 0, 66, 0
1, 215242, Note_on_c, 0, 67, 43
1, 215372, Note_on_c, 0, 72, 51
1, 215410, Note_on_c, 0, 67, 0
1, 215565, Note_on_c, 0, 76, 51
1, 215610, Note_on_c, 0, 72, 0
1, 215704, Note_on_c, 0, 76, 0
1, 215719, Note_on_c, 0, 78, 38
1, 215845, Note_on_c, 0, 79, 56
1, 215867, Note_on_c, 0, 78, 0
1, 216005, Note_on_c, 0, 79, 0
1, 216020, Note_on_c, 0, 84, 52
1, 216168, Note_on_c, 0, 88, 53
1, 216196, Note_on_c, 0, 84, 0
1, 216285, Note_on_c, 0, 88, 0
1, 216322, Note_on_c, 0, 90, 51
1, 216492, Note_on_c, 0, 91, 34
1, 216494, Note_on_c, 0, 90, 0
1, 216600, Note_on_c, 0, 96, 36
1, 216695, Note_on_c, 0, 91, 0
1, 216714, Note_on_c, 0, 100, 62
1, 216889, Note_on_c, 0, 96, 0
1, 216993, Note_on_c, 0, 103, 60
1, 217167, Note_on_c, 0, 100, 0
1, 217243, Note_on_c, 0, 103, 0
1, 220064, Note_on_c, 0, 79, 48
1, 220433, Note_on_c, 0, 79, 0
1, 221356, Note_on_c, 0, 79, 48
1, 221384, Note_on_c, 0, 71, 42
1, 221386, Note_on_c, 0, 74, 46
1, 221418, Note_on_c, 0, 64, 30
1, 221450, Control_c, 0, 64, 0
1, 221591, Note_on_c, 0, 69, 5
1, 221635, Control_c, 0, 64, 127
1, 221840, Note_on_c, 0, 79, 0
1, 222066, Note_on_c, 0, 69, 0
1, 222086, Note_on_c, 0, 64, 0
1, 222137, Note_on_c, 0, 78, 58
1, 222139, Note_on_c, 0, 62, 32
1, 222354, Note_on_c, 0, 71, 0
1, 222505, Note_on_c, 0, 78, 0
1, 222602, Note_on_c, 0, 62, 0
1, 222743, Note_on_c, 0, 74, 0
1, 222888, Note_on_c, 0, 76, 52
1, 222898, Control_c, 0, 64, 0
1, 222920, Note_on_c, 0, 73, 24
1, 222923, Note_on_c, 0, 57, 39
1, 222990, Note_on_c, 0, 64, 13
1, 223135, Control_c, 0, 64, 127
1, 223620, Note_on_c, 0, 73, 0
1, 223624, Note_on_c, 0, 64, 0
1, 223642, Note_on_c, 0, 74, 54
1, 223808, Note_on_c, 0, 57, 0
1, 223861, Note_on_c, 0, 76, 0
1, 223867, Note_on_c, 0, 74, 0
1, 224906, Note_on_c, 0, 76, 53
1, 224917, Control_c, 0, 64, 0
1, 224931, Note_on_c, 0, 47, 39
1, 224959, Note_on_c, 0, 62, 29
1, 225223, Control_c, 0, 64, 127
1, 225334, Note_on_c, 0, 76, 0
1, 225576, Note_on_c, 0, 67, 55
1, 225650, Note_on_c, 0, 55, 22
1, 225919, Note_on_c, 0, 55, 0
1, 226090, Note_on_c, 0, 62, 0
1, 226150, Note_on_c, 0, 67, 0
1, 226216, Control_c, 0, 64, 0
1, 226250, Note_on_c, 0, 68, 48
1, 226270, Note_on_c, 0, 56, 34
1, 226391, Note_on_c, 0, 47, 0
1, 226502, Control_c, 0, 64, 127
1, 226717, Note_on_c, 0, 68, 0
1, 227661, Note_on_c, 0, 56, 0
1, 227738, Note_on_c, 0, 71, 46
1, 227755, Note_on_c, 0, 49, 27
1, 227763, Control_c, 0, 64, 0
1, 228050, Control_c, 0, 64, 127
1, 229295, Note_on_c, 0, 68, 35
1, 229366, Note_on_c, 0, 56, 27
1, 229500, Control_c, 0, 64, 0
1, 229683, Control_c, 0, 64, 127
1, 230260, Note_on_c, 0, 56, 0
1, 230282, Note_on_c, 0, 68, 0
1, 230290, Control_c, 0, 64, 0
1, 230330, Note_on_c, 0, 69, 41
1, 230349, Note_on_c, 0, 71, 0
1, 230367, Note_on_c, 0, 57, 24
1, 230626, Control_c, 0, 64, 127
1, 231478, Note_on_c, 0, 69, 0
1, 231721, Note_on_c, 0, 69, 38
1, 231847, Note_on_c, 0, 49, 0
1, 232267, Note_on_c, 0, 57, 0
1, 232269, Note_on_c, 0, 69, 0
1, 232378, Control_c, 0, 64, 0
1, 232397, Note_on_c, 0, 71, 41
1, 232408, Note_on_c, 0, 50, 29
1, 232649, Control_c, 0, 64, 127
1, 232901, Note_on_c, 0, 71, 0
1, 232956, Note_on_c, 0, 57, 42
1, 233495, Note_on_c, 0, 60, 44
1, 233791, Note_on_c, 0, 60, 0
1, 233853, Note_on_c, 0, 57, 0
1, 233934, Note_on_c, 0, 50, 0
1, 234025, Note_on_c, 0, 77, 61
1, 234300, Note_on_c, 0, 77, 0
1, 234678, Note_on_c, 0, 77, 44
1, 234702, Note_on_c, 0, 71, 41
1, 234705, Note_on_c, 0, 65, 29
1, 234718, Note_on_c, 0, 31, 32
1, 234720, Note_on_c, 0, 43, 22
1, 234720, Control_c, 0, 64, 0
1, 234997, Note_on_c, 0, 31, 0
1, 235054, Control_c, 0, 64, 127
1, 235088, Note_on_c, 0, 43, 0
1, 235473, Note_on_c, 0, 59, 50
1, 235815, Note_on_c, 0, 71, 0
1, 235918, Note_on_c, 0, 65, 0
1, 236229, Note_on_c, 0, 71, 41
1, 236234, Note_on_c, 0, 65, 34
1, 236237, Note_on_c, 0, 61, 37
1, 236282, Note_on_c, 0, 59, 0
1, 236647, Note_on_c, 0, 61, 0
1, 236995, Note_on_c, 0, 65, 0
1, 237117, Note_on_c, 0, 71, 0
1, 237126, Note_on_c, 0, 77, 0
1, 237408, Note_on_c, 0, 77, 45
1, 237443, Note_on_c, 0, 65, 37
1, 237663, Note_on_c, 0, 65, 0
1, 238020, Note_on_c, 0, 77, 0
1, 238618, Note_on_c, 0, 76, 38
1, 238619, Note_on_c, 0, 71, 46
1, 238624, Control_c, 0, 64, 0
1, 238628, Note_on_c, 0, 64, 44
1, 238629, Note_on_c, 0, 49, 42
1, 238713, Note_on_c, 0, 59, 17
1, 238880, Control_c, 0, 64, 127
1, 238932, Note_on_c, 0, 59, 0
1, 239179, Note_on_c, 0, 76, 0
1, 239291, Note_on_c, 0, 71, 0
1, 239419, Note_on_c, 0, 74, 53
1, 239569, Note_on_c, 0, 49, 0
1, 239579, Note_on_c, 0, 64, 0
1, 239822, Note_on_c, 0, 74, 0
1, 240370, Note_on_c, 0, 73, 37
1, 240395, Note_on_c, 0, 64, 33
1, 240412, Control_c, 0, 64, 0
1, 240414, Note_on_c, 0, 66, 42
1, 240425, Note_on_c, 0, 42, 27
1, 240430, Note_on_c, 0, 30, 32
1, 240698, Control_c, 0, 64, 127
1, 241250, Note_on_c, 0, 30, 0
1, 241280, Note_on_c, 0, 73, 0
1, 241391, Note_on_c, 0, 42, 0
1, 241469, Note_on_c, 0, 73, 47
1, 241522, Note_on_c, 0, 64, 0
1, 241620, Note_on_c, 0, 66, 0
1, 241805, Note_on_c, 0, 73, 0
1, 242514, Note_on_c, 0, 76, 85
1, 242515, Note_on_c, 0, 64, 68
1, 242519, Control_c, 0, 64, 0
1, 242520, Note_on_c, 0, 73, 71
1, 242524, Note_on_c, 0, 66, 77
1, 242525, Note_on_c, 0, 62, 55
1, 242539, Note_on_c, 0, 69, 85
1, 242771, Control_c, 0, 64, 127
1, 243779, Note_on_c, 0, 76, 0
1, 243800, Note_on_c, 0, 69, 0
1, 243950, Note_on_c, 0, 73, 0
1, 244143, Note_on_c, 0, 74, 83
1, 244182, Note_on_c, 0, 66, 0
1, 244268, Note_on_c, 0, 64, 0
1, 244269, Note_on_c, 0, 62, 0
1, 244682, Note_on_c, 0, 74, 0
1, 245354, Note_on_c, 0, 73, 64
1, 245388, Note_on_c, 0, 66, 71
1, 245390, Note_on_c, 0, 70, 60
1, 245408, Note_on_c, 0, 62, 41
1, 245410, Note_on_c, 0, 56, 47
1, 245425, Note_on_c, 0, 52, 33
1, 245450, Control_c, 0, 64, 0
1, 245685, Control_c, 0, 64, 127
1, 246225, Note_on_c, 0, 62, 0
1, 246436, Note_on_c, 0, 70, 0
1, 246478, Note_on_c, 0, 73, 0
1, 246611, Note_on_c, 0, 66, 0
1, 246866, Note_on_c, 0, 71, 54
1, 246890, Note_on_c, 0, 62, 36
1, 246895, Note_on_c, 0, 68, 46
1, 246920, Note_on_c, 0, 65, 42
1, 247152, Note_on_c, 0, 56, 0
1, 247172, Note_on_c, 0, 52, 0
1, 247537, Note_on_c, 0, 71, 0
1, 247557, Note_on_c, 0, 62, 0
1, 247767, Note_on_c, 0, 65, 0
1, 247809, Note_on_c, 0, 68, 0
1, 248380, Control_c, 0, 64, 0
1, 248387, Note_on_c, 0, 61, 49
1, 248404, Note_on_c, 0, 69, 49
1, 248409, Note_on_c, 0, 45, 44
1, 248447, Note_on_c, 0, 55, 22
1, 248632, Control_c, 0, 64, 127
1, 248982, Note_on_c, 0, 69, 0
1, 249067, Note_on_c, 0, 61, 0
1, 249442, Note_on_c, 0, 55, 0
1, 249932, Note_on_c, 0, 45, 0
1, 250072, Note_on_c, 0, 61, 43
1, 250074, Note_on_c, 0, 57, 55
1, 250707, Note_on_c, 0, 45, 80
1, 250712, Marker_t, "Same thing - this time down as a modulation - from A7 - to C7"
1, 251169, Note_on_c, 0, 44, 75
1, 251224, Note_on_c, 0, 45, 0
1, 251344, Note_on_c, 0, 57, 0
1, 251407, Note_on_c, 0, 61, 0
1, 251518, Note_on_c, 0, 44, 0
1, 251537, Note_on_c, 0, 43, 55
1, 251831, Note_on_c, 0, 42, 64
1, 251854, Note_on_c, 0, 43, 0
1, 252027, Note_on_c, 0, 42, 0
1, 252101, Note_on_c, 0, 41, 58
1, 252321, Note_on_c, 0, 41, 0
1, 252325, Note_on_c, 0, 40, 42
1, 252540, Note_on_c, 0, 40, 0
1, 252592, Note_on_c, 0, 39, 55
1, 252827, Note_on_c, 0, 37, 52
1, 252940, Note_on_c, 0, 39, 0
1, 253079, Note_on_c, 0, 58, 57
1, 253096, Note_on_c, 0, 69, 57
1, 253106, Note_on_c, 0, 37, 0
1, 253119, Note_on_c, 0, 62, 46
1, 253128, Control_c, 0, 64, 0
1, 253129, Note_on_c, 0, 38, 42
1, 253136, Note_on_c, 0, 64, 40
1, 253140, Note_on_c, 0, 36, 49
1, 253192, Note_on_c, 0, 38, 0
1, 253617, Control_c, 0, 64, 127
1, 253927, Note_on_c, 0, 24, 53
1, 253986, Note_on_c, 0, 58, 0
1, 253996, Note_on_c, 0, 24, 0
1, 254011, Note_on_c, 0, 62, 0
1, 254053, Note_on_c, 0, 36, 0
1, 254124, Note_on_c, 0, 64, 0
1, 254186, Note_on_c, 0, 69, 0
1, 254964, Note_on_c, 0, 70, 44
1, 254972, Note_on_c, 0, 62, 37
1, 254986, Note_on_c, 0, 65, 43
1, 254998, Note_on_c, 0, 58, 36
1, 255896, Note_on_c, 0, 58, 0
1, 255994, Note_on_c, 0, 48, 50
1, 256295, Note_on_c, 0, 48, 0
1, 256646, Note_on_c, 0, 62, 0
1, 256736, Note_on_c, 0, 70, 0
1, 256740, Note_on_c, 0, 65, 0
1, 256867, Control_c, 0, 64, 0
1, 257072, Note_on_c, 0, 41, 41
1, 257117, Note_on_c, 0, 48, 45
1, 257227, Note_on_c, 0, 84, 68
1, 257233, Note_on_c, 0, 77, 73
1, 257237, Note_on_c, 0, 72, 73
1, 257243, Note_on_c, 0, 57, 54
1, 257248, Note_on_c, 0, 81, 68
1, 257307, Note_on_c, 0, 41, 0
1, 257312, Control_c, 0, 64, 127
1, 257437, Note_on_c, 0, 48, 0
1, 257499, Note_on_c, 0, 57, 0
1, 257511, Note_on_c, 0, 72, 0
1, 257571, Note_on_c, 0, 77, 0
1, 257613, Note_on_c, 0, 81, 0
1, 257652, Note_on_c, 0, 84, 0
1, 258087, Note_on_c, 0, 60, 49
1, 258095, Note_on_c, 0, 88, 79
1, 258097, Note_on_c, 0, 64, 58
1, 258104, Note_on_c, 0, 53, 40
1, 258122, Note_on_c, 0, 57, 51
1, 258135, Note_on_c, 0, 76, 79
1, 258561, Note_on_c, 0, 64, 0
1, 258562, Note_on_c, 0, 57, 0
1, 258571, Note_on_c, 0, 60, 0
1, 258572, Note_on_c, 0, 88, 0
1, 258586, Note_on_c, 0, 76, 0
1, 258629, Note_on_c, 0, 84, 75
1, 258638, Note_on_c, 0, 53, 0
1, 258700, Note_on_c, 0, 86, 34
1, 258777, Note_on_c, 0, 86, 0
1, 258787, Note_on_c, 0, 84, 0
1, 259390, Note_on_c, 0, 34, 64
1, 259411, Note_on_c, 0, 91, 83
1, 259417, Control_c, 0, 64, 0
1, 259693, Note_on_c, 0, 34, 0
1, 259705, Control_c, 0, 64, 127
1, 260358, Note_on_c, 0, 67, 68
1, 260361, Note_on_c, 0, 62, 59
1, 260368, Note_on_c, 0, 56, 69
1, 260896, Note_on_c, 0, 56, 0
1, 260897, Note_on_c, 0, 62, 0
1, 260911, Note_on_c, 0, 67, 0
1, 260913, Note_on_c, 0, 91, 0
1, 261124, Note_on_c, 0, 89, 82
1, 261144, Note_on_c, 0, 77, 80
1, 261151, Note_on_c, 0, 67, 80
1, 261156, Note_on_c, 0, 84, 70
1, 261158, Note_on_c, 0, 62, 65
1, 261159, Note_on_c, 0, 56, 85
1, 261349, Note_on_c, 0, 84, 0
1, 261438, Note_on_c, 0, 77, 0
1, 261459, Note_on_c, 0, 56, 0
1, 261460, Note_on_c, 0, 89, 0
1, 261477, Note_on_c, 0, 67, 0
1, 261487, Note_on_c, 0, 62, 0
1, 261697, Note_on_c, 0, 91, 82
1, 261719, Note_on_c, 0, 79, 68
1, 261719, Note_on_c, 0, 62, 53
1, 261721, Note_on_c, 0, 77, 63
1, 261724, Note_on_c, 0, 67, 77
1, 261726, Note_on_c, 0, 56, 77
1, 261852, Note_on_c, 0, 77, 0
1, 261909, Note_on_c, 0, 79, 0
1, 261912, Note_on_c, 0, 67, 0
1, 261959, Note_on_c, 0, 91, 0
1, 261969, Note_on_c, 0, 62, 0
1, 262052, Note_on_c, 0, 56, 0
1, 262315, Control_c, 0, 64, 0
1, 262334, Note_on_c, 0, 93, 85
1, 262335, Note_on_c, 0, 61, 77
1, 262344, Note_on_c, 0, 55, 76
1, 262347, Note_on_c, 0, 66, 90
1, 262352, Note_on_c, 0, 88, 81
1, 262354, Note_on_c, 0, 81, 80
1, 262567, Control_c, 0, 64, 127
1, 262640, Note_on_c, 0, 93, 0
1, 262646, Note_on_c, 0, 88, 0
1, 262690, Note_on_c, 0, 81, 0
1, 262989, Note_on_c, 0, 89, 66
1, 262991, Note_on_c, 0, 66, 0
1, 262999, Note_on_c, 0, 84, 70
1, 263004, Note_on_c, 0, 77, 69
1, 263031, Note_on_c, 0, 55, 0
1, 263048, Note_on_c, 0, 61, 0
1, 263241, Note_on_c, 0, 77, 0
1, 263268, Note_on_c, 0, 84, 0
1, 263305, Note_on_c, 0, 89, 0
1, 263562, Control_c, 0, 64, 0
1, 263582, Note_on_c, 0, 91, 80
1, 263597, Note_on_c, 0, 84, 70
1, 263604, Note_on_c, 0, 57, 68
1, 263607, Note_on_c, 0, 60, 69
1, 263609, Note_on_c, 0, 50, 59
1, 263609, Note_on_c, 0, 53, 47
1, 263612, Note_on_c, 0, 79, 61
1, 263802, Control_c, 0, 64, 127
1, 263822, Note_on_c, 0, 91, 0
1, 263873, Note_on_c, 0, 79, 0
1, 263918, Note_on_c, 0, 84, 0
1, 264110, Note_on_c, 0, 50, 0
1, 264152, Note_on_c, 0, 83, 73
1, 264157, Note_on_c, 0, 53, 0
1, 264163, Note_on_c, 0, 88, 66
1, 264165, Note_on_c, 0, 76, 66
1, 264175, Note_on_c, 0, 57, 0
1, 264244, Note_on_c, 0, 60, 0
1, 264399, Note_on_c, 0, 76, 0
1, 264444, Note_on_c, 0, 88, 0
1, 264446, Note_on_c, 0, 83, 0
1, 264644, Control_c, 0, 64, 0
1, 264699, Note_on_c, 0, 64, 71
1, 264701, Note_on_c, 0, 89, 76
1, 264708, Note_on_c, 0, 84, 76
1, 264709, Note_on_c, 0, 53, 50
1, 264711, Note_on_c, 0, 77, 77
1, 264724, Note_on_c, 0, 59, 60
1, 264881, Control_c, 0, 64, 127
1, 264889, Note_on_c, 0, 89, 0
1, 264892, Note_on_c, 0, 84, 0
1, 264953, Note_on_c, 0, 77, 0
1, 265193, Note_on_c, 0, 64, 0
1, 265223, Note_on_c, 0, 86, 66
1, 265230, Note_on_c, 0, 81, 66
1, 265237, Note_on_c, 0, 74, 60
1, 265247, Note_on_c, 0, 59, 0
1, 265306, Note_on_c, 0, 53, 0
1, 265393, Note_on_c, 0, 74, 0
1, 265455, Note_on_c, 0, 81, 0
1, 265485, Note_on_c, 0, 86, 0
1, 265860, Control_c, 0, 64, 0
1, 265897, Note_on_c, 0, 88, 71
1, 265912, Note_on_c, 0, 80, 71
1, 265917, Note_on_c, 0, 84, 69
1, 265919, Note_on_c, 0, 76, 72
1, 265927, Note_on_c, 0, 48, 64
1, 265934, Note_on_c, 0, 36, 43
1, 265951, Note_on_c, 0, 86, 44
1, 266095, Note_on_c, 0, 36, 0
1, 266146, Control_c, 0, 64, 127
1, 266189, Note_on_c, 0, 48, 0
1, 266235, Note_on_c, 0, 84, 0
1, 266248, Note_on_c, 0, 88, 0
1, 266263, Note_on_c, 0, 86, 0
1, 266273, Note_on_c, 0, 76, 0
1, 266329, Note_on_c, 0, 80, 0
1, 266766, Note_on_c, 0, 64, 58
1, 266767, Note_on_c, 0, 84, 63
1, 266774, Note_on_c, 0, 58, 55
1, 266787, Note_on_c, 0, 79, 66
1, 266789, Note_on_c, 0, 72, 54
1, 267120, Note_on_c, 0, 84, 0
1, 267137, Note_on_c, 0, 72, 0
1, 267155, Note_on_c, 0, 64, 0
1, 267213, Note_on_c, 0, 58, 0
1, 267219, Note_on_c, 0, 79, 0
1, 267932, Control_c, 0, 64, 0
1, 267984, Note_on_c, 0, 86, 82
1, 267999, Note_on_c, 0, 83, 81
1, 268002, Note_on_c, 0, 74, 85
1, 268004, Note_on_c, 0, 79, 80
1, 268009, Note_on_c, 0, 41, 80
1, 268200, Control_c, 0, 64, 127
1, 268279, Note_on_c, 0, 41, 0
1, 268363, Note_on_c, 0, 86, 0
1, 268392, Note_on_c, 0, 83, 0
1, 268441, Note_on_c, 0, 79, 0
1, 268511, Note_on_c, 0, 74, 0
1, 270535, Marker_t, "On F7 #11, LH plays Eb, RH plays F,G,A,B "
1, 270836, Note_on_c, 0, 63, 50
1, 270982, Note_on_c, 0, 63, 0
1, 271011, Note_on_c, 0, 65, 38
1, 271110, Note_on_c, 0, 67, 45
1, 271201, Note_on_c, 0, 65, 0
1, 271255, Note_on_c, 0, 69, 36
1, 271386, Note_on_c, 0, 71, 50
1, 271406, Note_on_c, 0, 67, 0
1, 271436, Note_on_c, 0, 69, 0
1, 271515, Note_on_c, 0, 71, 0
1, 271523, Note_on_c, 0, 75, 57
1, 271670, Note_on_c, 0, 75, 0
1, 271740, Note_on_c, 0, 77, 44
1, 271856, Note_on_c, 0, 79, 47
1, 271886, Note_on_c, 0, 77, 0
1, 271933, Note_on_c, 0, 81, 41
1, 272029, Note_on_c, 0, 81, 0
1, 272039, Note_on_c, 0, 79, 0
1, 272064, Note_on_c, 0, 83, 53
1, 272155, Note_on_c, 0, 83, 0
1, 272204, Note_on_c, 0, 85, 30
1, 272278, Note_on_c, 0, 85, 0
1, 272389, Note_on_c, 0, 89, 55
1, 272526, Note_on_c, 0, 91, 47
1, 272610, Note_on_c, 0, 89, 0
1, 272760, Note_on_c, 0, 93, 62
1, 272765, Note_on_c, 0, 91, 0
1, 272888, Note_on_c, 0, 95, 46
1, 272968, Note_on_c, 0, 93, 0
1, 272987, Note_on_c, 0, 95, 0
1, 273044, Note_on_c, 0, 99, 53
1, 273197, Note_on_c, 0, 99, 0
1, 273407, Note_on_c, 0, 103, 26
1, 273450, Note_on_c, 0, 105, 43
1, 273516, Note_on_c, 0, 103, 0
1, 273617, Note_on_c, 0, 107, 74
1, 273627, Note_on_c, 0, 105, 0
1, 273753, Note_on_c, 0, 107, 0
1, 277756, Note_on_c, 0, 64, 31
1, 277765, Note_on_c, 0, 87, 37
1, 277820, Note_on_c, 0, 88, 40
1, 277828, Note_on_c, 0, 64, 0
1, 277833, Note_on_c, 0, 65, 51
1, 277849, Control_c, 0, 64, 0
1, 277909, Note_on_c, 0, 89, 53
1, 277911, Note_on_c, 0, 88, 0
1, 277983, Note_on_c, 0, 87, 0
1, 278153, Control_c, 0, 64, 127
1, 278680, Note_on_c, 0, 65, 0
1, 278831, Note_on_c, 0, 89, 0
1, 279937, Control_c, 0, 64, 0
1, 279942, Note_on_c, 0, 77, 44
1, 279965, Note_on_c, 0, 46, 27
1, 280340, Control_c, 0, 64, 127
1, 280505, Note_on_c, 0, 53, 25
1, 280668, Note_on_c, 0, 77, 0
1, 281185, Note_on_c, 0, 57, 39
1, 281187, Note_on_c, 0, 53, 0
1, 281326, Note_on_c, 0, 46, 0
1, 282101, Note_on_c, 0, 61, 31
1, 282254, Note_on_c, 0, 57, 0
1, 282805, Note_on_c, 0, 62, 38
1, 283070, Note_on_c, 0, 62, 0
1, 283280, Note_on_c, 0, 64, 42
1, 283779, Note_on_c, 0, 69, 34
1, 283971, Note_on_c, 0, 64, 0
1, 284066, Note_on_c, 0, 61, 0
1, 284155, Note_on_c, 0, 69, 0
1, 284244, Note_on_c, 0, 70, 47
1, 284643, Note_on_c, 0, 70, 0
1, 284700, Note_on_c, 0, 72, 49
1, 284775, Note_on_c, 0, 39, 37
1, 284787, Control_c, 0, 64, 0
1, 285141, Control_c, 0, 64, 127
1, 285143, Note_on_c, 0, 72, 0
1, 285145, Note_on_c, 0, 73, 44
1, 285165, Note_on_c, 0, 46, 36
1, 285187, Note_on_c, 0, 39, 0
1, 285484, Note_on_c, 0, 46, 0
1, 285489, Note_on_c, 0, 73, 0
1, 285580, Note_on_c, 0, 55, 29
1, 285620, Note_on_c, 0, 75, 35
1, 285736, Note_on_c, 0, 75, 0
1, 285997, Note_on_c, 0, 55, 0
1, 286010, Note_on_c, 0, 79, 41
1, 286025, Note_on_c, 0, 58, 40
1, 286363, Note_on_c, 0, 79, 0
1, 286539, Note_on_c, 0, 61, 27
1, 286543, Note_on_c, 0, 82, 44
1, 286870, Note_on_c, 0, 82, 0
1, 286894, Note_on_c, 0, 61, 0
1, 287021, Note_on_c, 0, 84, 40
1, 287063, Note_on_c, 0, 65, 24
1, 287378, Note_on_c, 0, 65, 0
1, 287572, Note_on_c, 0, 73, 27
1, 287598, Note_on_c, 0, 77, 45
1, 287645, Note_on_c, 0, 65, 25
1, 288204, Note_on_c, 0, 61, 28
1, 288792, Note_on_c, 0, 58, 0
1, 288997, Control_c, 0, 64, 0
1, 289034, Note_on_c, 0, 55, 17
1, 289165, Control_c, 0, 64, 127
1, 289187, Note_on_c, 0, 84, 0
1, 289251, Note_on_c, 0, 77, 0
1, 289321, Note_on_c, 0, 61, 0
1, 289661, Note_on_c, 0, 61, 33
1, 289790, Note_on_c, 0, 73, 0
1, 289854, Note_on_c, 0, 65, 0
1, 290301, Note_on_c, 0, 77, 64
1, 290314, Note_on_c, 0, 65, 29
1, 291025, Note_on_c, 0, 65, 0
1, 291077, Note_on_c, 0, 79, 66
1, 291104, Note_on_c, 0, 61, 0
1, 291142, Note_on_c, 0, 55, 0
1, 291147, Note_on_c, 0, 77, 0
1, 291893, Note_on_c, 0, 79, 0
1, 292013, Control_c, 0, 64, 0
1, 292024, Note_on_c, 0, 33, 55
1, 292179, Note_on_c, 0, 33, 0
1, 292197, Control_c, 0, 64, 127
1, 293024, Note_on_c, 0, 76, 74
1, 293026, Note_on_c, 0, 73, 71
1, 293029, Note_on_c, 0, 61, 71
1, 293031, Note_on_c, 0, 81, 74
1, 293032, Note_on_c, 0, 55, 64
1, 293041, Note_on_c, 0, 69, 80
1, 293043, Note_on_c, 0, 66, 81
1, 293441, Note_on_c, 0, 69, 0
1, 293488, Note_on_c, 0, 66, 0
1, 293501, Note_on_c, 0, 55, 0
1, 293516, Note_on_c, 0, 76, 0
1, 293521, Note_on_c, 0, 73, 0
1, 293568, Note_on_c, 0, 81, 0
1, 293681, Note_on_c, 0, 61, 0
1, 294005, Note_on_c, 0, 55, 60
1, 294007, Note_on_c, 0, 61, 51
1, 294015, Control_c, 0, 64, 0
1, 294017, Note_on_c, 0, 66, 78
1, 294020, Note_on_c, 0, 84, 79
1, 294032, Note_on_c, 0, 72, 79
1, 294039, Note_on_c, 0, 81, 72
1, 294166, Control_c, 0, 64, 127
1, 294318, Note_on_c, 0, 81, 0
1, 294350, Note_on_c, 0, 84, 0
1, 294407, Note_on_c, 0, 72, 0
1, 294423, Note_on_c, 0, 55, 0
1, 294452, Note_on_c, 0, 66, 0
1, 294591, Note_on_c, 0, 61, 0
1, 295094, Note_on_c, 0, 81, 57
1, 295099, Note_on_c, 0, 69, 53
1, 295107, Note_on_c, 0, 77, 59
1, 295109, Note_on_c, 0, 61, 45
1, 295119, Note_on_c, 0, 66, 55
1, 295124, Note_on_c, 0, 55, 40
1, 295243, Note_on_c, 0, 66, 0
1, 295331, Note_on_c, 0, 61, 0
1, 295346, Note_on_c, 0, 69, 0
1, 295368, Note_on_c, 0, 55, 0
1, 295386, Note_on_c, 0, 77, 0
1, 295430, Note_on_c, 0, 81, 0
1, 296273, Control_c, 0, 64, 0
1, 296302, Note_on_c, 0, 26, 60
1, 296523, Control_c, 0, 64, 127
1, 296782, Note_on_c, 0, 26, 0
1, 297898, Note_on_c, 0, 88, 40
1, 297913, Note_on_c, 0, 54, 38
1, 297916, Note_on_c, 0, 76, 36
1, 297918, Note_on_c, 0, 80, 31
1, 297923, Note_on_c, 0, 64, 34
1, 297928, Note_on_c, 0, 83, 52
1, 297931, Note_on_c, 0, 60, 30
1, 298889, Note_on_c, 0, 64, 0
1, 298891, Note_on_c, 0, 60, 0
1, 298894, Note_on_c, 0, 54, 0
1, 298929, Note_on_c, 0, 88, 0
1, 298931, Note_on_c, 0, 76, 0
1, 299062, Note_on_c, 0, 83, 0
1, 299114, Note_on_c, 0, 80, 0
1, 299321, Note_on_c, 0, 86, 59
1, 299331, Note_on_c, 0, 80, 57
1, 299346, Note_on_c, 0, 74, 52
1, 299348, Note_on_c, 0, 54, 48
1, 299351, Note_on_c, 0, 64, 45
1, 299361, Note_on_c, 0, 83, 60
1, 299373, Note_on_c, 0, 60, 38
1, 299739, Note_on_c, 0, 86, 0
1, 299818, Note_on_c, 0, 74, 0
1, 299912, Note_on_c, 0, 60, 0
1, 299931, Note_on_c, 0, 83, 0
1, 299932, Note_on_c, 0, 64, 0
1, 299957, Note_on_c, 0, 54, 0
1, 300050, Note_on_c, 0, 80, 0
1, 301216, Note_on_c, 0, 88, 48
1, 301224, Note_on_c, 0, 80, 40
1, 301231, Note_on_c, 0, 64, 44
1, 301241, Note_on_c, 0, 83, 53
1, 301249, Note_on_c, 0, 76, 35
1, 301264, Note_on_c, 0, 54, 31
1, 301384, Note_on_c, 0, 54, 0
1, 301474, Note_on_c, 0, 64, 0
1, 301580, Note_on_c, 0, 76, 0
1, 301624, Note_on_c, 0, 83, 0
1, 301743, Note_on_c, 0, 80, 0
1, 301799, Note_on_c, 0, 88, 0
1, 302493, Note_on_c, 0, 70, 25
1, 302572, Control_c, 0, 64, 127
1, 302582, Note_on_c, 0, 72, 33
1, 302666, Note_on_c, 0, 82, 61
1, 302676, Note_on_c, 0, 89, 66
1, 302704, Control_c, 0, 64, 0
1, 302708, Note_on_c, 0, 79, 45
1, 302711, Note_on_c, 0, 74, 54
1, 302728, Note_on_c, 0, 86, 38
1, 302753, Note_on_c, 0, 72, 0
1, 302813, Note_on_c, 0, 86, 0
1, 302941, Control_c, 0, 64, 127
1, 303049, Note_on_c, 0, 70, 0
1, 303067, Control_c, 0, 64, 0
1, 303240, Note_on_c, 0, 82, 0
1, 303259, Note_on_c, 0, 79, 0
1, 303304, Note_on_c, 0, 89, 0
1, 303307, Note_on_c, 0, 86, 61
1, 303564, Note_on_c, 0, 86, 0
1, 303840, Note_on_c, 0, 88, 60
1, 303857, Note_on_c, 0, 82, 49
1, 303884, Control_c, 0, 64, 0
1, 303885, Note_on_c, 0, 79, 36
1, 303894, Note_on_c, 0, 72, 34
1, 303969, Note_on_c, 0, 74, 0
1, 304068, Control_c, 0, 64, 127
1, 304110, Control_c, 0, 64, 127
1, 304161, Control_c, 0, 64, 0
1, 304305, Note_on_c, 0, 88, 0
1, 304359, Note_on_c, 0, 84, 55
1, 304398, Note_on_c, 0, 79, 0
1, 304485, Note_on_c, 0, 82, 0
1, 304500, Note_on_c, 0, 84, 0
1, 304766, Note_on_c, 0, 72, 0
1, 304905, Note_on_c, 0, 86, 62
1, 304937, Note_on_c, 0, 71, 41
1, 304939, Note_on_c, 0, 79, 50
1, 304944, Control_c, 0, 64, 0
1, 304947, Note_on_c, 0, 75, 42
1, 305164, Control_c, 0, 64, 127
1, 305532, Note_on_c, 0, 86, 0
1, 305574, Note_on_c, 0, 83, 62
1, 305758, Note_on_c, 0, 79, 0
1, 305836, Note_on_c, 0, 83, 0
1, 305837, Note_on_c, 0, 75, 0
1, 306247, Note_on_c, 0, 81, 54
1, 306256, Note_on_c, 0, 71, 0
1, 306267, Note_on_c, 0, 74, 40
1, 306271, Note_on_c, 0, 70, 45
1, 306281, Note_on_c, 0, 84, 38
1, 306291, Control_c, 0, 64, 0
1, 306560, Control_c, 0, 64, 127
1, 306713, Note_on_c, 0, 81, 0
1, 307010, Note_on_c, 0, 81, 50
1, 307138, Note_on_c, 0, 84, 0
1, 307329, Note_on_c, 0, 74, 0
1, 307346, Note_on_c, 0, 81, 0
1, 307857, Control_c, 0, 64, 0
1, 307889, Note_on_c, 0, 82, 49
1, 307890, Note_on_c, 0, 70, 0
1, 307914, Note_on_c, 0, 73, 23
1, 307917, Note_on_c, 0, 77, 42
1, 307947, Note_on_c, 0, 69, 30
1, 308127, Control_c, 0, 64, 127
1, 308243, Note_on_c, 0, 69, 0
1, 308686, Control_c, 0, 64, 127
1, 308686, Control_c, 0, 64, 0
1, 308814, Note_on_c, 0, 39, 39
1, 309172, Note_on_c, 0, 77, 0
1, 309273, Note_on_c, 0, 39, 0
1, 309295, Note_on_c, 0, 82, 0
1, 309310, Note_on_c, 0, 73, 0
1, 309404, Note_on_c, 0, 46, 36
1, 309958, Note_on_c, 0, 46, 0
1, 309999, Note_on_c, 0, 61, 36
1, 310000, Note_on_c, 0, 55, 30
1, 310005, Note_on_c, 0, 65, 46
1, 310153, Note_on_c, 0, 61, 0
1, 310236, Note_on_c, 0, 65, 0
1, 310560, Note_on_c, 0, 55, 0
1, 310630, Note_on_c, 0, 58, 37
1, 311302, Note_on_c, 0, 61, 40
1, 312050, Note_on_c, 0, 61, 0
1, 312090, Note_on_c, 0, 73, 23
1, 312099, Note_on_c, 0, 81, 20
1, 312121, Note_on_c, 0, 67, 24
1, 312137, Note_on_c, 0, 65, 25
1, 314133, Note_on_c, 0, 81, 0
1, 314499, Note_on_c, 0, 67, 0
1, 314634, Note_on_c, 0, 38, 61
1, 314669, Note_on_c, 0, 73, 0
1, 315308, Note_on_c, 0, 65, 0
1, 315363, Control_c, 0, 64, 127
1, 315413, Note_on_c, 0, 45, 56
1, 315548, Note_on_c, 0, 58, 0
1, 315593, Note_on_c, 0, 38, 0
1, 316383, Note_on_c, 0, 60, 68
1, 316384, Note_on_c, 0, 69, 71
1, 316395, Note_on_c, 0, 65, 72
1, 316408, Note_on_c, 0, 53, 49
1, 316510, Control_c, 0, 64, 0
1, 316897, Control_c, 0, 64, 127
1, 317228, Note_on_c, 0, 67, 68
1, 317312, Note_on_c, 0, 45, 0
1, 317441, Note_on_c, 0, 69, 0
1, 317540, Note_on_c, 0, 67, 0
1, 317562, Note_on_c, 0, 65, 0
1, 317639, Note_on_c, 0, 53, 0
1, 317676, Note_on_c, 0, 60, 0
1, 318127, Control_c, 0, 64, 0
1, 318138, Note_on_c, 0, 65, 53
1, 318155, Note_on_c, 0, 59, 54
1, 318162, Note_on_c, 0, 62, 45
1, 318187, Note_on_c, 0, 53, 27
1, 318189, Note_on_c, 0, 43, 30
1, 318752, Control_c, 0, 64, 127
1, 318795, Note_on_c, 0, 50, 60
1, 318827, Note_on_c, 0, 53, 0
1, 319262, Note_on_c, 0, 65, 0
1, 319319, Note_on_c, 0, 50, 0
1, 319331, Note_on_c, 0, 43, 0
1, 319348, Note_on_c, 0, 53, 55
1, 319382, Note_on_c, 0, 59, 0
1, 319575, Note_on_c, 0, 53, 0
1, 319613, Note_on_c, 0, 62, 0
1, 319891, Note_on_c, 0, 62, 67
1, 319892, Note_on_c, 0, 65, 67
1, 319896, Note_on_c, 0, 69, 61
1, 319901, Note_on_c, 0, 57, 51
1, 320062, Note_on_c, 0, 57, 0
1, 320064, Note_on_c, 0, 62, 0
1, 320106, Note_on_c, 0, 65, 0
1, 320148, Note_on_c, 0, 69, 0
1, 320655, Control_c, 0, 64, 0
1, 320689, Note_on_c, 0, 72, 66
1, 320692, Note_on_c, 0, 65, 80
1, 320712, Note_on_c, 0, 48, 62
1, 320712, Note_on_c, 0, 62, 70
1, 320715, Note_on_c, 0, 58, 61
1, 320902, Note_on_c, 0, 62, 0
1, 320956, Note_on_c, 0, 65, 0
1, 320974, Control_c, 0, 64, 127
1, 321030, Note_on_c, 0, 72, 0
1, 321314, Note_on_c, 0, 58, 0
1, 321487, Note_on_c, 0, 84, 83
1, 321490, Note_on_c, 0, 55, 33
1, 321902, Note_on_c, 0, 84, 0
1, 322276, Note_on_c, 0, 84, 61
1, 322322, Note_on_c, 0, 72, 48
1, 322340, Note_on_c, 0, 59, 20
1, 322626, Note_on_c, 0, 48, 0
1, 322923, Note_on_c, 0, 84, 0
1, 323146, Note_on_c, 0, 84, 60
1, 323173, Note_on_c, 0, 48, 27
1, 323439, Note_on_c, 0, 48, 0
1, 323652, Note_on_c, 0, 84, 0
1, 323723, Note_on_c, 0, 72, 0
1, 323839, Note_on_c, 0, 59, 0
1, 323953, Control_c, 0, 64, 0
1, 324013, Note_on_c, 0, 48, 36
1, 324030, Note_on_c, 0, 84, 52
1, 324060, Note_on_c, 0, 55, 0
1, 324072, Note_on_c, 0, 72, 35
1, 324173, Control_c, 0, 64, 127
1, 324217, Note_on_c, 0, 48, 0
1, 324437, Note_on_c, 0, 84, 0
1, 324591, Note_on_c, 0, 72, 0
1, 324944, Note_on_c, 0, 61, 39
1, 325136, Note_on_c, 0, 61, 0
1, 325201, Note_on_c, 0, 64, 40
1, 325361, Note_on_c, 0, 67, 40
1, 325421, Note_on_c, 0, 64, 0
1, 325593, Note_on_c, 0, 72, 46
1, 325594, Note_on_c, 0, 67, 0
1, 325708, Note_on_c, 0, 72, 0
1, 325734, Note_on_c, 0, 73, 21
1, 325846, Note_on_c, 0, 73, 0
1, 326076, Note_on_c, 0, 79, 35
1, 326214, Note_on_c, 0, 79, 0
1, 326379, Note_on_c, 0, 85, 34
1, 326496, Note_on_c, 0, 88, 31
1, 326592, Note_on_c, 0, 85, 0
1, 326643, Note_on_c, 0, 91, 40
1, 326879, Note_on_c, 0, 96, 37
1, 327926, Note_on_c, 0, 96, 0
1, 328022, Note_on_c, 0, 91, 0
1, 328062, Note_on_c, 0, 88, 0
1, 329055, Note_on_c, 0, 72, 70
1, 329757, Note_on_c, 0, 41, 32
1, 329777, Note_on_c, 0, 72, 0
1, 329903, Note_on_c, 0, 48, 35
1, 329944, Note_on_c, 0, 63, 31
1, 329982, Control_c, 0, 64, 0
1, 330029, Note_on_c, 0, 57, 47
1, 330051, Note_on_c, 0, 69, 51
1, 330053, Note_on_c, 0, 72, 62
1, 330337, Control_c, 0, 64, 127
1, 330750, Note_on_c, 0, 48, 0
1, 330868, Note_on_c, 0, 63, 0
1, 330950, Note_on_c, 0, 48, 62
1, 330957, Note_on_c, 0, 57, 0
1, 331009, Note_on_c, 0, 69, 0
1, 331053, Note_on_c, 0, 41, 0
1, 331054, Note_on_c, 0, 72, 0
1, 331162, Note_on_c, 0, 48, 0
1, 331713, Note_on_c, 0, 57, 33
1, 331719, Note_on_c, 0, 62, 37
1, 331745, Note_on_c, 0, 74, 67
1, 331814, Note_on_c, 0, 63, 51
1, 331819, Note_on_c, 0, 79, 47
1, 331869, Control_c, 0, 64, 0
1, 331881, Note_on_c, 0, 83, 77
1, 331884, Note_on_c, 0, 67, 62
1, 331916, Note_on_c, 0, 86, 75
1, 332139, Control_c, 0, 64, 127
1, 332460, Note_on_c, 0, 63, 0
1, 332565, Note_on_c, 0, 74, 0
1, 332585, Note_on_c, 0, 79, 0
1, 332603, Note_on_c, 0, 86, 0
1, 332605, Note_on_c, 0, 83, 0
1, 332670, Note_on_c, 0, 67, 0
1, 332741, Note_on_c, 0, 72, 37
1, 332810, Note_on_c, 0, 79, 64
1, 332833, Note_on_c, 0, 84, 74
1, 333122, Note_on_c, 0, 79, 0
1, 333173, Note_on_c, 0, 84, 0
1, 333287, Note_on_c, 0, 72, 0
1, 333779, Note_on_c, 0, 63, 47
1, 333788, Control_c, 0, 64, 0
1, 333791, Note_on_c, 0, 82, 60
1, 333803, Note_on_c, 0, 67, 40
1, 333808, Note_on_c, 0, 70, 53
1, 333809, Note_on_c, 0, 79, 50
1, 334024, Control_c, 0, 64, 127
1, 334172, Note_on_c, 0, 63, 0
1, 334174, Note_on_c, 0, 67, 0
1, 334441, Note_on_c, 0, 63, 50
1, 334471, Note_on_c, 0, 67, 39
1, 334617, Note_on_c, 0, 79, 0
1, 334767, Note_on_c, 0, 67, 0
1, 334829, Note_on_c, 0, 82, 0
1, 334841, Note_on_c, 0, 70, 0
1, 334896, Note_on_c, 0, 63, 0
1, 335078, Note_on_c, 0, 81, 65
1, 335083, Note_on_c, 0, 63, 43
1, 335100, Note_on_c, 0, 69, 58
1, 335116, Note_on_c, 0, 67, 46
1, 335123, Note_on_c, 0, 57, 0
1, 335703, Note_on_c, 0, 67, 0
1, 335704, Note_on_c, 0, 57, 63
1, 335716, Note_on_c, 0, 62, 0
1, 335760, Note_on_c, 0, 63, 0
1, 335874, Note_on_c, 0, 57, 0
1, 336482, Control_c, 0, 64, 0
1, 336507, Note_on_c, 0, 34, 65
1, 336701, Control_c, 0, 64, 127
1, 336704, Note_on_c, 0, 34, 0
1, 337042, Note_on_c, 0, 69, 0
1, 337245, Note_on_c, 0, 81, 0
1, 337465, Note_on_c, 0, 65, 55
1, 337473, Note_on_c, 0, 62, 47
1, 337492, Note_on_c, 0, 60, 44
1, 338018, Note_on_c, 0, 60, 0
1, 338021, Note_on_c, 0, 62, 0
1, 338035, Note_on_c, 0, 65, 0
1, 338334, Note_on_c, 0, 79, 89
1, 338339, Note_on_c, 0, 74, 101
1, 338355, Note_on_c, 0, 62, 68
1, 338367, Note_on_c, 0, 65, 71
1, 338372, Note_on_c, 0, 60, 57
1, 338908, Note_on_c, 0, 65, 0
1, 338950, Note_on_c, 0, 60, 0
1, 338975, Note_on_c, 0, 62, 0
1, 339088, Note_on_c, 0, 79, 0
1, 339091, Note_on_c, 0, 74, 0
1, 339172, Note_on_c, 0, 72, 64
1, 339174, Note_on_c, 0, 77, 68
1, 339202, Note_on_c, 0, 65, 57
1, 339204, Note_on_c, 0, 62, 43
1, 339239, Note_on_c, 0, 60, 41
1, 339701, Note_on_c, 0, 72, 0
1, 339715, Note_on_c, 0, 65, 0
1, 339780, Note_on_c, 0, 60, 0
1, 339815, Note_on_c, 0, 62, 0
1, 340751, Note_on_c, 0, 77, 0
1, 340763, Note_on_c, 0, 70, 57
1, 340773, Note_on_c, 0, 76, 58
1, 340788, Note_on_c, 0, 60, 34
1, 340790, Note_on_c, 0, 65, 37
1, 340795, Control_c, 0, 64, 0
1, 340800, Note_on_c, 0, 62, 34
1, 341030, Control_c, 0, 64, 127
1, 341269, Note_on_c, 0, 65, 0
1, 341290, Note_on_c, 0, 62, 0
1, 341319, Note_on_c, 0, 60, 0
1, 341684, Note_on_c, 0, 65, 27
1, 341700, Note_on_c, 0, 62, 31
1, 341712, Note_on_c, 0, 60, 24
1, 342040, Note_on_c, 0, 65, 0
1, 342045, Note_on_c, 0, 62, 0
1, 342100, Note_on_c, 0, 60, 0
1, 342275, Note_on_c, 0, 70, 0
1, 342621, Note_on_c, 0, 76, 0
1, 342740, Note_on_c, 0, 74, 42
1, 342781, Note_on_c, 0, 65, 26
1, 342792, Note_on_c, 0, 60, 26
1, 342806, Note_on_c, 0, 62, 24
1, 342826, Note_on_c, 0, 69, 22
1, 342950, Note_on_c, 0, 65, 0
1, 342960, Note_on_c, 0, 62, 0
1, 343006, Note_on_c, 0, 60, 0
1, 343143, Note_on_c, 0, 74, 0
1, 343313, Note_on_c, 0, 69, 0
1, 343812, Note_on_c, 0, 65, 39
1, 343824, Note_on_c, 0, 72, 43
1, 343832, Note_on_c, 0, 60, 24
1, 343846, Note_on_c, 0, 50, 27
1, 343876, Control_c, 0, 64, 0
1, 344246, Control_c, 0, 64, 127
1, 344565, Note_on_c, 0, 57, 45
1, 344652, Note_on_c, 0, 60, 0
1, 345075, Note_on_c, 0, 57, 0
1, 345522, Note_on_c, 0, 65, 0
1, 345549, Note_on_c, 0, 70, 70
1, 345576, Note_on_c, 0, 58, 51
1, 345643, Control_c, 0, 64, 0
1, 345779, Control_c, 0, 64, 127
1, 346065, Note_on_c, 0, 58, 0
1, 346233, Control_c, 0, 64, 0
1, 346235, Note_on_c, 0, 67, 65
1, 346265, Note_on_c, 0, 55, 45
1, 346356, Note_on_c, 0, 70, 0
1, 346419, Control_c, 0, 64, 127
1, 346455, Note_on_c, 0, 55, 0
1, 346483, Note_on_c, 0, 67, 0
1, 346779, Note_on_c, 0, 72, 0
1, 347002, Note_on_c, 0, 50, 0
1, 347436, Note_on_c, 0, 74, 79
1, 347468, Note_on_c, 0, 50, 50
1, 347478, Control_c, 0, 64, 0
1, 347832, Control_c, 0, 64, 127
1, 348276, Note_on_c, 0, 58, 32
1, 349121, Note_on_c, 0, 70, 47
1, 349136, Note_on_c, 0, 74, 0
1, 349166, Note_on_c, 0, 65, 31
1, 349190, Note_on_c, 0, 62, 24
1, 349480, Note_on_c, 0, 50, 0
1, 349679, Note_on_c, 0, 62, 0
1, 349855, Note_on_c, 0, 58, 0
1, 349953, Note_on_c, 0, 70, 0
1, 350524, Note_on_c, 0, 65, 0
1, 351333, Note_on_c, 0, 31, 51
1, 351352, Control_c, 0, 64, 0
1, 351372, Note_on_c, 0, 77, 87
1, 351604, Control_c, 0, 64, 127
1, 351634, Note_on_c, 0, 31, 0
1, 352118, Note_on_c, 0, 77, 0
1, 352131, Marker_t, "On G7#11 - LH plays Db & Eb, RH plays FGAB (whole tone scale - pedal DOWN)"
1, 352299, Note_on_c, 0, 61, 57
1, 352641, Note_on_c, 0, 63, 57
1, 352698, Note_on_c, 0, 61, 0
1, 352780, Note_on_c, 0, 63, 0
1, 352847, Note_on_c, 0, 65, 53
1, 352945, Note_on_c, 0, 67, 54
1, 353025, Note_on_c, 0, 65, 0
1, 353134, Note_on_c, 0, 69, 37
1, 353205, Note_on_c, 0, 71, 61
1, 353239, Note_on_c, 0, 67, 0
1, 353240, Note_on_c, 0, 73, 46
1, 353247, Note_on_c, 0, 69, 0
1, 353328, Note_on_c, 0, 71, 0
1, 353351, Note_on_c, 0, 75, 45
1, 353439, Note_on_c, 0, 73, 0
1, 353497, Note_on_c, 0, 75, 0
1, 353502, Note_on_c, 0, 77, 63
1, 353645, Note_on_c, 0, 77, 0
1, 353660, Note_on_c, 0, 79, 42
1, 353664, Note_on_c, 0, 81, 37
1, 353801, Note_on_c, 0, 83, 62
1, 353833, Note_on_c, 0, 79, 0
1, 353840, Note_on_c, 0, 81, 0
1, 353912, Note_on_c, 0, 85, 60
1, 353914, Note_on_c, 0, 83, 0
1, 354067, Note_on_c, 0, 85, 0
1, 354099, Note_on_c, 0, 89, 55
1, 354223, Note_on_c, 0, 91, 54
1, 354284, Note_on_c, 0, 89, 0
1, 354331, Note_on_c, 0, 93, 49
1, 354420, Note_on_c, 0, 95, 56
1, 354421, Note_on_c, 0, 93, 0
1, 354425, Note_on_c, 0, 91, 0
1, 354510, Note_on_c, 0, 95, 0
1, 354643, Note_on_c, 0, 99, 49
1, 354759, Note_on_c, 0, 101, 44
1, 354791, Note_on_c, 0, 99, 0
1, 354878, Note_on_c, 0, 103, 55
1, 354915, Note_on_c, 0, 101, 0
1, 355004, Note_on_c, 0, 105, 62
1, 355112, Note_on_c, 0, 103, 0
1, 355150, Note_on_c, 0, 107, 78
1, 355167, Note_on_c, 0, 105, 0
1, 355893, Note_on_c, 0, 107, 0
1, 357566, Note_on_c, 0, 76, 64
1, 358359, Note_on_c, 0, 72, 38
1, 358541, Note_on_c, 0, 76, 0
1, 359562, Note_on_c, 0, 72, 0
1, 359586, Control_c, 0, 64, 0
1, 359601, Note_on_c, 0, 79, 47
1, 359602, Note_on_c, 0, 34, 37
1, 359742, Control_c, 0, 64, 127
1, 359792, Note_on_c, 0, 34, 0
1, 362018, Note_on_c, 0, 56, 34
1, 362531, Note_on_c, 0, 58, 33
1, 362534, Note_on_c, 0, 56, 0
1, 362815, Note_on_c, 0, 79, 0
1, 363060, Note_on_c, 0, 67, 31
1, 363067, Note_on_c, 0, 58, 0
1, 363360, Marker_t, "Run on Bb7#11 RH plays Ab, LH plays C triad - pedal DOWN"
1, 363794, Note_on_c, 0, 68, 42
1, 363849, Note_on_c, 0, 67, 0
1, 364106, Note_on_c, 0, 68, 0
1, 364167, Note_on_c, 0, 67, 33
1, 364274, Note_on_c, 0, 72, 40
1, 364322, Note_on_c, 0, 67, 0
1, 364444, Note_on_c, 0, 76, 41
1, 364535, Note_on_c, 0, 72, 0
1, 364610, Note_on_c, 0, 79, 36
1, 364651, Note_on_c, 0, 76, 0
1, 364673, Note_on_c, 0, 79, 0
1, 364748, Note_on_c, 0, 80, 43
1, 364832, Note_on_c, 0, 80, 0
1, 364861, Note_on_c, 0, 79, 31
1, 365002, Note_on_c, 0, 84, 48
1, 365044, Note_on_c, 0, 79, 0
1, 365128, Note_on_c, 0, 88, 33
1, 365222, Note_on_c, 0, 84, 0
1, 365272, Note_on_c, 0, 91, 36
1, 365276, Note_on_c, 0, 88, 0
1, 365346, Note_on_c, 0, 91, 0
1, 365457, Note_on_c, 0, 91, 50
1, 365508, Note_on_c, 0, 94, 21
1, 365570, Note_on_c, 0, 94, 0
1, 365649, Note_on_c, 0, 96, 30
1, 365746, Note_on_c, 0, 100, 54
1, 365949, Note_on_c, 0, 103, 43
1, 366724, Note_on_c, 0, 103, 0
1, 366922, Note_on_c, 0, 100, 0
1, 366946, Note_on_c, 0, 96, 0
1, 367287, Note_on_c, 0, 91, 0
1, 368612, Note_on_c, 0, 64, 54
1, 368616, Note_on_c, 0, 76, 72
1, 369672, Control_c, 0, 64, 127
1, 370272, Note_on_c, 0, 72, 36
1, 370294, Note_on_c, 0, 60, 33
1, 370322, Note_on_c, 0, 64, 0
1, 370353, Note_on_c, 0, 76, 0
1, 370874, Note_on_c, 0, 60, 0
1, 371015, Note_on_c, 0, 72, 0
1, 372588, Control_c, 0, 64, 0
1, 372649, Note_on_c, 0, 84, 74
1, 372672, Note_on_c, 0, 76, 63
1, 372687, Note_on_c, 0, 57, 60
1, 372707, Marker_t, "On turnaround, in tempo"
1, 372907, Control_c, 0, 64, 127
1, 373163, Note_on_c, 0, 84, 0
1, 373255, Note_on_c, 0, 76, 0
1, 373574, Note_on_c, 0, 64, 37
1, 373611, Note_on_c, 0, 69, 26
1, 373870, Note_on_c, 0, 69, 0
1, 373920, Note_on_c, 0, 64, 0
1, 373939, Note_on_c, 0, 57, 0
1, 374488, Control_c, 0, 64, 0
1, 374517, Note_on_c, 0, 56, 53
1, 375182, Note_on_c, 0, 83, 49
1, 375190, Note_on_c, 0, 75, 38
1, 375202, Note_on_c, 0, 71, 35
1, 375212, Note_on_c, 0, 78, 47
1, 375214, Note_on_c, 0, 65, 36
1, 375488, Control_c, 0, 64, 127
1, 375699, Note_on_c, 0, 83, 0
1, 375809, Note_on_c, 0, 71, 0
1, 375992, Note_on_c, 0, 78, 0
1, 376052, Note_on_c, 0, 56, 0
1, 376054, Note_on_c, 0, 65, 0
1, 376113, Note_on_c, 0, 75, 0
1, 376363, Control_c, 0, 64, 0
1, 376398, Note_on_c, 0, 82, 51
1, 376425, Note_on_c, 0, 70, 37
1, 376442, Note_on_c, 0, 65, 34
1, 376454, Note_on_c, 0, 74, 40
1, 376489, Note_on_c, 0, 55, 18
1, 376539, Note_on_c, 0, 77, 22
1, 376598, Control_c, 0, 64, 127
1, 377156, Note_on_c, 0, 74, 0
1, 377168, Note_on_c, 0, 55, 0
1, 377186, Note_on_c, 0, 65, 0
1, 377200, Note_on_c, 0, 77, 0
1, 377201, Note_on_c, 0, 70, 0
1, 377287, Note_on_c, 0, 82, 0
1, 378077, Note_on_c, 0, 54, 35
1, 378082, Control_c, 0, 64, 0
1, 378090, Note_on_c, 0, 81, 34
1, 378098, Note_on_c, 0, 64, 31
1, 378107, Note_on_c, 0, 73, 25
1, 378120, Note_on_c, 0, 76, 40
1, 378132, Note_on_c, 0, 69, 24
1, 378300, Note_on_c, 0, 73, 0
1, 378308, Note_on_c, 0, 69, 0
1, 378330, Note_on_c, 0, 76, 0
1, 378332, Note_on_c, 0, 64, 0
1, 378361, Note_on_c, 0, 81, 0
1, 378362, Note_on_c, 0, 54, 0
1, 378682, Marker_t, "Next chorus begins"
1, 378907, Note_on_c, 0, 81, 67
1, 379013, Note_on_c, 0, 81, 0
1, 379272, Note_on_c, 0, 82, 49
1, 379400, Note_on_c, 0, 82, 0
1, 379836, Note_on_c, 0, 84, 65
1, 380074, Note_on_c, 0, 41, 32
1, 380093, Control_c, 0, 64, 127
1, 380120, Note_on_c, 0, 84, 0
1, 380129, Note_on_c, 0, 48, 24
1, 380182, Note_on_c, 0, 57, 19
1, 380255, Note_on_c, 0, 41, 0
1, 380300, Note_on_c, 0, 48, 0
1, 380399, Note_on_c, 0, 57, 0
1, 380756, Note_on_c, 0, 88, 69
1, 380991, Note_on_c, 0, 88, 0
1, 381076, Control_c, 0, 64, 0
1, 381122, Note_on_c, 0, 84, 54
1, 381131, Note_on_c, 0, 57, 32
1, 381134, Note_on_c, 0, 62, 33
1, 381317, Note_on_c, 0, 67, 1
1, 381318, Note_on_c, 0, 84, 0
1, 381646, Note_on_c, 0, 57, 0
1, 381688, Note_on_c, 0, 67, 0
1, 381756, Note_on_c, 0, 91, 67
1, 381773, Note_on_c, 0, 79, 48
1, 381774, Note_on_c, 0, 87, 59
1, 381826, Note_on_c, 0, 62, 0
1, 381983, Note_on_c, 0, 88, 29
1, 381989, Note_on_c, 0, 87, 0
1, 382078, Note_on_c, 0, 91, 0
1, 382087, Note_on_c, 0, 79, 0
1, 382090, Note_on_c, 0, 67, 33
1, 382119, Note_on_c, 0, 56, 26
1, 382121, Note_on_c, 0, 62, 33
1, 382143, Control_c, 0, 64, 127
1, 382152, Note_on_c, 0, 88, 0
1, 382726, Note_on_c, 0, 67, 0
1, 382844, Note_on_c, 0, 62, 0
1, 383144, Note_on_c, 0, 62, 41
1, 383209, Note_on_c, 0, 62, 0
1, 383299, Note_on_c, 0, 56, 0
1, 383438, Note_on_c, 0, 65, 59
1, 383576, Note_on_c, 0, 65, 0
1, 383729, Note_on_c, 0, 67, 68
1, 383888, Note_on_c, 0, 67, 0
1, 383991, Control_c, 0, 64, 0
1, 384025, Note_on_c, 0, 66, 60
1, 384031, Note_on_c, 0, 61, 43
1, 384037, Note_on_c, 0, 55, 44
1, 384044, Note_on_c, 0, 69, 84
1, 384323, Control_c, 0, 64, 127
1, 384461, Note_on_c, 0, 66, 0
1, 384532, Note_on_c, 0, 55, 0
1, 384670, Note_on_c, 0, 65, 53
1, 384765, Note_on_c, 0, 61, 0
1, 384849, Note_on_c, 0, 69, 0
1, 384906, Note_on_c, 0, 65, 0
1, 384944, Control_c, 0, 64, 0
1, 384981, Note_on_c, 0, 64, 44
1, 385007, Note_on_c, 0, 53, 32
1, 385012, Note_on_c, 0, 60, 32
1, 385014, Note_on_c, 0, 57, 42
1, 385016, Note_on_c, 0, 67, 60
1, 385166, Note_on_c, 0, 64, 0
1, 385174, Control_c, 0, 64, 127
1, 385190, Note_on_c, 0, 60, 0
1, 385242, Note_on_c, 0, 57, 0
1, 385320, Note_on_c, 0, 53, 0
1, 385517, Note_on_c, 0, 67, 0
1, 385566, Note_on_c, 0, 64, 43
1, 385721, Note_on_c, 0, 64, 0
1, 385881, Control_c, 0, 64, 0
1, 385936, Note_on_c, 0, 65, 55
1, 385948, Note_on_c, 0, 43, 27
1, 385953, Note_on_c, 0, 53, 35
1, 386228, Control_c, 0, 64, 127
1, 386338, Note_on_c, 0, 53, 0
1, 386447, Note_on_c, 0, 65, 0
1, 386594, Note_on_c, 0, 47, 44
1, 386693, Note_on_c, 0, 43, 0
1, 386819, Control_c, 0, 64, 0
1, 386891, Note_on_c, 0, 47, 0
1, 386911, Note_on_c, 0, 64, 55
1, 386917, Note_on_c, 0, 58, 37
1, 386934, Note_on_c, 0, 48, 43
1, 387137, Control_c, 0, 64, 127
1, 387140, Note_on_c, 0, 48, 0
1, 387261, Note_on_c, 0, 58, 0
1, 387314, Note_on_c, 0, 64, 0
1, 387671, Control_c, 0, 64, 0
1, 387838, Note_on_c, 0, 41, 44
1, 387853, Note_on_c, 0, 62, 57
1, 387858, Note_on_c, 0, 51, 35
1, 387880, Note_on_c, 0, 59, 38
1, 387946, Control_c, 0, 64, 127
1, 387984, Note_on_c, 0, 51, 0
1, 388008, Note_on_c, 0, 41, 0
1, 388013, Note_on_c, 0, 62, 0
1, 388015, Note_on_c, 0, 59, 0
1, 388534, Note_on_c, 0, 74, 64
1, 388797, Note_on_c, 0, 74, 0
1, 388853, Control_c, 0, 64, 0
1, 388897, Note_on_c, 0, 67, 50
1, 388898, Note_on_c, 0, 63, 37
1, 388910, Note_on_c, 0, 62, 51
1, 389118, Control_c, 0, 64, 127
1, 389353, Note_on_c, 0, 63, 0
1, 389355, Note_on_c, 0, 67, 0
1, 389414, Note_on_c, 0, 62, 0
1, 389506, Note_on_c, 0, 63, 42
1, 389509, Note_on_c, 0, 67, 40
1, 389608, Control_c, 0, 64, 0
1, 389620, Note_on_c, 0, 63, 0
1, 389664, Note_on_c, 0, 67, 0
1, 389768, Note_on_c, 0, 53, 34
1, 389781, Note_on_c, 0, 60, 22
1, 390082, Note_on_c, 0, 77, 64
1, 390209, Note_on_c, 0, 60, 0
1, 390721, Note_on_c, 0, 60, 26
1, 390995, Control_c, 0, 64, 127
1, 391054, Note_on_c, 0, 60, 0
1, 391124, Note_on_c, 0, 53, 0
1, 391494, Note_on_c, 0, 77, 0
1, 391601, Control_c, 0, 64, 0
1, 391706, Note_on_c, 0, 65, 33
1, 391732, Note_on_c, 0, 74, 60
1, 391768, Note_on_c, 0, 62, 31
1, 391768, Note_on_c, 0, 60, 25
1, 391865, Note_on_c, 0, 74, 0
1, 391957, Note_on_c, 0, 75, 26
1, 391994, Note_on_c, 0, 65, 0
1, 391997, Note_on_c, 0, 74, 47
1, 392016, Note_on_c, 0, 75, 0
1, 392158, Note_on_c, 0, 73, 43
1, 392161, Note_on_c, 0, 74, 0
1, 392291, Note_on_c, 0, 73, 0
1, 392369, Note_on_c, 0, 74, 60
1, 392518, Note_on_c, 0, 74, 0
1, 392599, Note_on_c, 0, 53, 42
1, 392645, Note_on_c, 0, 77, 53
1, 392759, Note_on_c, 0, 77, 0
1, 392889, Note_on_c, 0, 79, 50
1, 393028, Note_on_c, 0, 53, 0
1, 393065, Note_on_c, 0, 81, 60
1, 393129, Note_on_c, 0, 79, 0
1, 393198, Note_on_c, 0, 62, 0
1, 393258, Note_on_c, 0, 82, 50
1, 393289, Note_on_c, 0, 60, 0
1, 393305, Note_on_c, 0, 81, 0
1, 393480, Note_on_c, 0, 84, 81
1, 393498, Note_on_c, 0, 82, 0
1, 393568, Note_on_c, 0, 51, 31
1, 393584, Note_on_c, 0, 61, 29
1, 393608, Note_on_c, 0, 67, 31
1, 393872, Note_on_c, 0, 77, 58
1, 394268, Note_on_c, 0, 84, 0
1, 394349, Note_on_c, 0, 67, 0
1, 394402, Note_on_c, 0, 61, 0
1, 394541, Note_on_c, 0, 79, 62
1, 394546, Note_on_c, 0, 61, 39
1, 394557, Note_on_c, 0, 67, 34
1, 394589, Control_c, 0, 64, 127
1, 394628, Note_on_c, 0, 77, 0
1, 394953, Note_on_c, 0, 51, 0
1, 394976, Note_on_c, 0, 67, 0
1, 395060, Note_on_c, 0, 61, 0
1, 395076, Note_on_c, 0, 79, 0
1, 395483, Control_c, 0, 64, 0
1, 395518, Note_on_c, 0, 81, 71
1, 395522, Note_on_c, 0, 61, 68
1, 395525, Note_on_c, 0, 55, 70
1, 395529, Note_on_c, 0, 76, 76
1, 395532, Note_on_c, 0, 73, 70
1, 395534, Note_on_c, 0, 66, 79
1, 395537, Note_on_c, 0, 69, 79
1, 395571, Note_on_c, 0, 79, 34
1, 395773, Control_c, 0, 64, 127
1, 395905, Note_on_c, 0, 69, 0
1, 395953, Note_on_c, 0, 81, 0
1, 395958, Note_on_c, 0, 76, 0
1, 395969, Note_on_c, 0, 73, 0
1, 395980, Note_on_c, 0, 79, 0
1, 395994, Note_on_c, 0, 55, 0
1, 396017, Note_on_c, 0, 66, 0
1, 396110, Note_on_c, 0, 55, 53
1, 396111, Note_on_c, 0, 66, 60
1, 396123, Note_on_c, 0, 84, 76
1, 396290, Note_on_c, 0, 66, 0
1, 396297, Note_on_c, 0, 55, 0
1, 396350, Note_on_c, 0, 84, 0
1, 396403, Note_on_c, 0, 61, 0
1, 396460, Note_on_c, 0, 66, 52
1, 396465, Note_on_c, 0, 61, 23
1, 396475, Note_on_c, 0, 55, 41
1, 396503, Note_on_c, 0, 81, 48
1, 396562, Note_on_c, 0, 81, 0
1, 396772, Note_on_c, 0, 55, 0
1, 396867, Note_on_c, 0, 66, 0
1, 397013, Control_c, 0, 64, 0
1, 397015, Note_on_c, 0, 61, 0
1, 397069, Note_on_c, 0, 88, 54
1, 397073, Note_on_c, 0, 80, 39
1, 397076, Note_on_c, 0, 54, 51
1, 397077, Note_on_c, 0, 76, 51
1, 397082, Note_on_c, 0, 60, 37
1, 397085, Note_on_c, 0, 83, 56
1, 397086, Note_on_c, 0, 65, 49
1, 397131, Note_on_c, 0, 86, 30
1, 397388, Control_c, 0, 64, 127
1, 397676, Note_on_c, 0, 88, 0
1, 397704, Note_on_c, 0, 86, 0
1, 397712, Note_on_c, 0, 76, 0
1, 397724, Note_on_c, 0, 60, 0
1, 397777, Note_on_c, 0, 65, 0
1, 397823, Note_on_c, 0, 83, 0
1, 397842, Note_on_c, 0, 80, 0
1, 397849, Note_on_c, 0, 54, 0
1, 398023, Note_on_c, 0, 54, 45
1, 398029, Note_on_c, 0, 65, 48
1, 398038, Note_on_c, 0, 60, 34
1, 398044, Note_on_c, 0, 86, 56
1, 398049, Note_on_c, 0, 74, 54
1, 398052, Note_on_c, 0, 80, 45
1, 398117, Note_on_c, 0, 74, 0
1, 398166, Note_on_c, 0, 65, 0
1, 398169, Note_on_c, 0, 86, 0
1, 398225, Note_on_c, 0, 60, 0
1, 398226, Note_on_c, 0, 54, 0
1, 398248, Note_on_c, 0, 80, 0
1, 398255, Control_c, 0, 64, 0
1, 398369, Note_on_c, 0, 54, 43
1, 398382, Note_on_c, 0, 65, 28
1, 398392, Note_on_c, 0, 88, 54
1, 398393, Note_on_c, 0, 60, 36
1, 398405, Note_on_c, 0, 76, 43
1, 398486, Control_c, 0, 64, 127
1, 398576, Note_on_c, 0, 65, 0
1, 398582, Note_on_c, 0, 60, 0
1, 398584, Note_on_c, 0, 76, 0
1, 398594, Note_on_c, 0, 88, 0
1, 398782, Note_on_c, 0, 54, 0
1, 398998, Note_on_c, 0, 89, 76
1, 399005, Note_on_c, 0, 86, 74
1, 399010, Note_on_c, 0, 77, 80
1, 399017, Note_on_c, 0, 82, 65
1, 399021, Note_on_c, 0, 55, 63
1, 399024, Note_on_c, 0, 62, 77
1, 399029, Note_on_c, 0, 58, 62
1, 399046, Note_on_c, 0, 53, 49
1, 399049, Note_on_c, 0, 88, 41
1, 399050, Control_c, 0, 64, 0
1, 399115, Note_on_c, 0, 88, 0
1, 399243, Note_on_c, 0, 53, 0
1, 399324, Control_c, 0, 64, 127
1, 399730, Note_on_c, 0, 55, 0
1, 399809, Note_on_c, 0, 86, 0
1, 399816, Note_on_c, 0, 62, 0
1, 399818, Note_on_c, 0, 58, 0
1, 399874, Note_on_c, 0, 89, 0
1, 399900, Note_on_c, 0, 77, 0
1, 399950, Note_on_c, 0, 82, 0
1, 400276, Control_c, 0, 64, 0
1, 400286, Note_on_c, 0, 88, 73
1, 400294, Note_on_c, 0, 80, 64
1, 400299, Note_on_c, 0, 76, 74
1, 400301, Note_on_c, 0, 58, 59
1, 400303, Note_on_c, 0, 84, 67
1, 400304, Note_on_c, 0, 69, 64
1, 400314, Note_on_c, 0, 64, 67
1, 400348, Note_on_c, 0, 86, 35
1, 400510, Control_c, 0, 64, 127
1, 400859, Note_on_c, 0, 64, 0
1, 400908, Note_on_c, 0, 88, 0
1, 400911, Note_on_c, 0, 84, 0
1, 400926, Note_on_c, 0, 69, 0
1, 400938, Note_on_c, 0, 76, 0
1, 400939, Note_on_c, 0, 86, 0
1, 400988, Note_on_c, 0, 58, 0
1, 401034, Note_on_c, 0, 80, 0
1, 401189, Control_c, 0, 64, 0
1, 401203, Note_on_c, 0, 86, 62
1, 401213, Note_on_c, 0, 67, 46
1, 401225, Note_on_c, 0, 63, 40
1, 401226, Note_on_c, 0, 83, 60
1, 401229, Note_on_c, 0, 62, 55
1, 401233, Note_on_c, 0, 79, 54
1, 401235, Note_on_c, 0, 74, 44
1, 401246, Note_on_c, 0, 57, 44
1, 401449, Control_c, 0, 64, 127
1, 402161, Note_on_c, 0, 83, 0
1, 402199, Note_on_c, 0, 79, 0
1, 402208, Note_on_c, 0, 86, 0
1, 402248, Note_on_c, 0, 62, 0
1, 402263, Note_on_c, 0, 67, 0
1, 402267, Note_on_c, 0, 74, 0
1, 402319, Note_on_c, 0, 57, 0
1, 402329, Note_on_c, 0, 63, 0
1, 402689, Control_c, 0, 64, 0
1, 402755, Note_on_c, 0, 84, 60
1, 402777, Note_on_c, 0, 79, 51
1, 402778, Note_on_c, 0, 56, 46
1, 402781, Note_on_c, 0, 72, 45
1, 402793, Note_on_c, 0, 62, 49
1, 402935, Control_c, 0, 64, 127
1, 402941, Note_on_c, 0, 79, 0
1, 402971, Note_on_c, 0, 72, 0
1, 403007, Note_on_c, 0, 62, 0
1, 403009, Note_on_c, 0, 84, 0
1, 403164, Note_on_c, 0, 56, 0
1, 403209, Control_c, 0, 64, 0
1, 403320, Note_on_c, 0, 73, 47
1, 403323, Note_on_c, 0, 82, 56
1, 403337, Note_on_c, 0, 55, 43
1, 403353, Note_on_c, 0, 61, 33
1, 403356, Note_on_c, 0, 65, 42
1, 403360, Note_on_c, 0, 77, 51
1, 403513, Control_c, 0, 64, 127
1, 403641, Note_on_c, 0, 65, 0
1, 403680, Note_on_c, 0, 61, 0
1, 403727, Note_on_c, 0, 55, 0
1, 403809, Note_on_c, 0, 77, 0
1, 403835, Note_on_c, 0, 73, 0
1, 403841, Note_on_c, 0, 82, 0
1, 404148, Control_c, 0, 64, 0
1, 404214, Note_on_c, 0, 39, 47
1, 404223, Note_on_c, 0, 46, 54
1, 404263, Control_c, 0, 64, 127
1, 404467, Note_on_c, 0, 39, 0
1, 405133, Note_on_c, 0, 70, 51
1, 405149, Note_on_c, 0, 61, 37
1, 405172, Control_c, 0, 64, 0
1, 405180, Note_on_c, 0, 55, 40
1, 405183, Note_on_c, 0, 65, 49
1, 405389, Control_c, 0, 64, 127
1, 405792, Note_on_c, 0, 65, 0
1, 405812, Note_on_c, 0, 61, 0
1, 405833, Note_on_c, 0, 55, 0
1, 406067, Note_on_c, 0, 61, 34
1, 406106, Note_on_c, 0, 65, 42
1, 406125, Note_on_c, 0, 55, 27
1, 406491, Note_on_c, 0, 65, 0
1, 406537, Note_on_c, 0, 61, 0
1, 406661, Note_on_c, 0, 70, 0
1, 406802, Note_on_c, 0, 55, 0
1, 407029, Note_on_c, 0, 46, 0
1, 407093, Note_on_c, 0, 50, 41
1, 407179, Control_c, 0, 64, 0
1, 407615, Note_on_c, 0, 60, 40
1, 407622, Note_on_c, 0, 57, 44
1, 407729, Note_on_c, 0, 57, 0
1, 407765, Note_on_c, 0, 60, 0
1, 408043, Note_on_c, 0, 64, 58
1, 408044, Note_on_c, 0, 60, 48
1, 408047, Note_on_c, 0, 69, 57
1, 408062, Note_on_c, 0, 65, 53
1, 408383, Note_on_c, 0, 69, 0
1, 408397, Note_on_c, 0, 65, 0
1, 408404, Note_on_c, 0, 60, 0
1, 408502, Note_on_c, 0, 67, 57
1, 408508, Control_c, 0, 64, 127
1, 408577, Note_on_c, 0, 64, 0
1, 408769, Control_c, 0, 64, 0
1, 408808, Note_on_c, 0, 67, 0
1, 408941, Note_on_c, 0, 50, 0
1, 408952, Note_on_c, 0, 59, 35
1, 408956, Note_on_c, 0, 65, 44
1, 408965, Note_on_c, 0, 43, 27
1, 408966, Note_on_c, 0, 63, 38
1, 408993, Note_on_c, 0, 53, 19
1, 409101, Control_c, 0, 64, 127
1, 409457, Note_on_c, 0, 53, 0
1, 409538, Note_on_c, 0, 59, 0
1, 409579, Note_on_c, 0, 65, 0
1, 409636, Note_on_c, 0, 63, 0
1, 409867, Note_on_c, 0, 59, 44
1, 409876, Note_on_c, 0, 69, 38
1, 409879, Note_on_c, 0, 63, 39
1, 409880, Note_on_c, 0, 43, 0
1, 409889, Note_on_c, 0, 53, 24
1, 409983, Note_on_c, 0, 53, 0
1, 410076, Note_on_c, 0, 59, 0
1, 410163, Note_on_c, 0, 69, 0
1, 410203, Note_on_c, 0, 63, 0
1, 410747, Control_c, 0, 64, 0
1, 410826, Note_on_c, 0, 72, 47
1, 410829, Note_on_c, 0, 60, 30
1, 410847, Note_on_c, 0, 65, 38
1, 410851, Note_on_c, 0, 70, 35
1, 411004, Note_on_c, 0, 65, 0
1, 411022, Control_c, 0, 64, 127
1, 411076, Note_on_c, 0, 72, 0
1, 411100, Note_on_c, 0, 70, 0
1, 411359, Note_on_c, 0, 84, 59
1, 411413, Note_on_c, 0, 84, 0
1, 411598, Control_c, 0, 64, 0
1, 411790, Note_on_c, 0, 84, 61
1, 411801, Control_c, 0, 64, 127
1, 411823, Note_on_c, 0, 48, 32
1, 411842, Note_on_c, 0, 84, 0
1, 412213, Note_on_c, 0, 60, 0
1, 412288, Note_on_c, 0, 96, 62
1, 412354, Note_on_c, 0, 96, 0
1, 412763, Note_on_c, 0, 96, 69
1, 412812, Note_on_c, 0, 96, 0
1, 413244, Note_on_c, 0, 60, 33
1, 413454, Note_on_c, 0, 60, 0
1, 413695, Note_on_c, 0, 68, 52
1, 413696, Note_on_c, 0, 64, 47
1, 413706, Note_on_c, 0, 60, 33
1, 414091, Note_on_c, 0, 48, 0
1, 414153, Note_on_c, 0, 64, 0
1, 414157, Note_on_c, 0, 68, 0
1, 414192, Note_on_c, 0, 72, 59
1, 414202, Note_on_c, 0, 48, 62
1, 414314, Note_on_c, 0, 72, 0
1, 414676, Note_on_c, 0, 84, 90
1, 414788, Note_on_c, 0, 84, 0
1, 414866, Note_on_c, 0, 60, 0
1, 415132, Note_on_c, 0, 96, 96
1, 415416, Note_on_c, 0, 96, 0
1, 415632, Note_on_c, 0, 60, 35
1, 415646, Note_on_c, 0, 96, 74
1, 415747, Note_on_c, 0, 96, 0
1, 415888, Note_on_c, 0, 48, 0
1, 416123, Note_on_c, 0, 48, 40
1, 416248, Note_on_c, 0, 60, 0
1, 416645, Note_on_c, 0, 60, 31
1, 416647, Note_on_c, 0, 64, 51
1, 416651, Note_on_c, 0, 72, 40
1, 416666, Note_on_c, 0, 68, 40
1, 416991, Note_on_c, 0, 64, 0
1, 417126, Note_on_c, 0, 68, 0
1, 417173, Note_on_c, 0, 60, 0
1, 417456, Note_on_c, 0, 72, 0
1, 417593, Note_on_c, 0, 48, 0
1, 417929, Note_on_c, 0, 69, 66
1, 418080, Note_on_c, 0, 69, 0
1, 418196, Note_on_c, 0, 70, 57
1, 418376, Note_on_c, 0, 70, 0
1, 418397, Control_c, 0, 64, 0
1, 418483, Note_on_c, 0, 48, 40
1, 418496, Note_on_c, 0, 72, 70
1, 418503, Note_on_c, 0, 41, 28
1, 418505, Note_on_c, 0, 57, 49
1, 418643, Control_c, 0, 64, 127
1, 418659, Note_on_c, 0, 41, 0
1, 418754, Note_on_c, 0, 48, 0
1, 418794, Note_on_c, 0, 57, 0
1, 418977, Note_on_c, 0, 72, 0
1, 419137, Note_on_c, 0, 76, 73
1, 419379, Control_c, 0, 64, 0
1, 419439, Note_on_c, 0, 76, 0
1, 419485, Note_on_c, 0, 60, 24
1, 419491, Note_on_c, 0, 53, 28
1, 419498, Note_on_c, 0, 57, 38
1, 419544, Note_on_c, 0, 72, 24
1, 419567, Control_c, 0, 64, 127
1, 419638, Note_on_c, 0, 60, 0
1, 419731, Note_on_c, 0, 57, 0
1, 419733, Note_on_c, 0, 53, 0
1, 419736, Note_on_c, 0, 72, 0
1, 420132, Note_on_c, 0, 79, 74
1, 420137, Note_on_c, 0, 76, 73
1, 420143, Note_on_c, 0, 72, 75
1, 420146, Note_on_c, 0, 67, 74
1, 420201, Control_c, 0, 64, 0
1, 420446, Note_on_c, 0, 62, 35
1, 420456, Note_on_c, 0, 56, 42
1, 420490, Control_c, 0, 64, 127
1, 420633, Note_on_c, 0, 62, 0
1, 420744, Note_on_c, 0, 56, 0
1, 421048, Note_on_c, 0, 67, 0
1, 421246, Note_on_c, 0, 72, 0
1, 421364, Note_on_c, 0, 76, 0
1, 421387, Note_on_c, 0, 79, 0
1, 421438, Note_on_c, 0, 46, 34
1, 421471, Control_c, 0, 64, 0
1, 421514, Control_c, 0, 64, 127
1, 421593, Note_on_c, 0, 46, 0
1, 421798, Note_on_c, 0, 77, 60
1, 421939, Note_on_c, 0, 77, 0
1, 422097, Note_on_c, 0, 79, 54
1, 422220, Note_on_c, 0, 79, 0
1, 422394, Control_c, 0, 64, 0
1, 422401, Note_on_c, 0, 61, 37
1, 422403, Note_on_c, 0, 79, 42
1, 422431, Note_on_c, 0, 66, 32
1, 422440, Note_on_c, 0, 55, 27
1, 422473, Note_on_c, 0, 80, 45
1, 422545, Note_on_c, 0, 79, 0
1, 422593, Note_on_c, 0, 80, 0
1, 422598, Note_on_c, 0, 81, 41
1, 422714, Note_on_c, 0, 81, 0
1, 422930, Note_on_c, 0, 81, 55
1, 423110, Note_on_c, 0, 55, 0
1, 423118, Note_on_c, 0, 81, 0
1, 423125, Note_on_c, 0, 66, 0
1, 423318, Note_on_c, 0, 61, 0
1, 423402, Note_on_c, 0, 60, 29
1, 423412, Note_on_c, 0, 64, 39
1, 423413, Note_on_c, 0, 79, 55
1, 423468, Note_on_c, 0, 57, 27
1, 423480, Note_on_c, 0, 53, 19
1, 423565, Note_on_c, 0, 79, 0
1, 423706, Note_on_c, 0, 79, 49
1, 423752, Control_c, 0, 64, 127
1, 423867, Note_on_c, 0, 60, 0
1, 423965, Note_on_c, 0, 53, 0
1, 423997, Note_on_c, 0, 64, 0
1, 424001, Note_on_c, 0, 79, 0
1, 424007, Note_on_c, 0, 57, 0
1, 424185, Control_c, 0, 64, 0
1, 424276, Note_on_c, 0, 64, 47
1, 424285, Note_on_c, 0, 77, 57
1, 424305, Note_on_c, 0, 59, 36
1, 424315, Note_on_c, 0, 53, 31
1, 424439, Note_on_c, 0, 77, 0
1, 424581, Note_on_c, 0, 77, 46
1, 424589, Control_c, 0, 64, 127
1, 424781, Note_on_c, 0, 59, 0
1, 424800, Note_on_c, 0, 64, 0
1, 424862, Note_on_c, 0, 53, 0
1, 424907, Note_on_c, 0, 77, 0
1, 425094, Control_c, 0, 64, 0
1, 425203, Note_on_c, 0, 76, 58
1, 425244, Note_on_c, 0, 58, 28
1, 425245, Note_on_c, 0, 62, 24
1, 425251, Note_on_c, 0, 52, 25
1, 425350, Note_on_c, 0, 76, 0
1, 425369, Control_c, 0, 64, 127
1, 425464, Note_on_c, 0, 52, 0
1, 425477, Note_on_c, 0, 76, 55
1, 425532, Note_on_c, 0, 58, 0
1, 425572, Note_on_c, 0, 62, 0
1, 425836, Note_on_c, 0, 76, 0
1, 426089, Control_c, 0, 64, 0
1, 426144, Note_on_c, 0, 74, 58
1, 426177, Note_on_c, 0, 63, 31
1, 426183, Note_on_c, 0, 67, 22
1, 426188, Note_on_c, 0, 62, 39
1, 426196, Note_on_c, 0, 57, 37
1, 426298, Note_on_c, 0, 74, 0
1, 426442, Note_on_c, 0, 74, 46
1, 426524, Control_c, 0, 64, 127
1, 426792, Note_on_c, 0, 67, 0
1, 426808, Note_on_c, 0, 63, 0
1, 426887, Note_on_c, 0, 74, 0
1, 426976, Note_on_c, 0, 62, 0
1, 427042, Control_c, 0, 64, 0
1, 427088, Note_on_c, 0, 79, 68
1, 427093, Note_on_c, 0, 67, 38
1, 427107, Note_on_c, 0, 63, 35
1, 427129, Note_on_c, 0, 62, 5
1, 427247, Note_on_c, 0, 79, 0
1, 427316, Control_c, 0, 64, 127
1, 427358, Note_on_c, 0, 79, 50
1, 427365, Note_on_c, 0, 67, 0
1, 427803, Note_on_c, 0, 57, 0
1, 427856, Note_on_c, 0, 62, 0
1, 427886, Note_on_c, 0, 63, 0
1, 427905, Note_on_c, 0, 79, 0
1, 428050, Note_on_c, 0, 63, 25
1, 428053, Control_c, 0, 64, 0
1, 428056, Note_on_c, 0, 71, 51
1, 428085, Note_on_c, 0, 57, 24
1, 428088, Note_on_c, 0, 67, 19
1, 428104, Note_on_c, 0, 62, 29
1, 428199, Control_c, 0, 64, 127
1, 428599, Note_on_c, 0, 67, 0
1, 428668, Note_on_c, 0, 63, 0
1, 428697, Note_on_c, 0, 71, 0
1, 428710, Note_on_c, 0, 74, 58
1, 428776, Note_on_c, 0, 62, 0
1, 428991, Note_on_c, 0, 63, 37
1, 429011, Note_on_c, 0, 67, 24
1, 429022, Note_on_c, 0, 74, 0
1, 429116, Note_on_c, 0, 67, 0
1, 429199, Note_on_c, 0, 63, 0
1, 429231, Note_on_c, 0, 77, 92
1, 429368, Note_on_c, 0, 57, 0
1, 429590, Note_on_c, 0, 77, 0
1, 429716, Note_on_c, 0, 77, 71
1, 429977, Note_on_c, 0, 46, 54
1, 429987, Control_c, 0, 64, 0
1, 430086, Note_on_c, 0, 77, 0
1, 430169, Note_on_c, 0, 46, 0
1, 430233, Control_c, 0, 64, 127
1, 430253, Note_on_c, 0, 65, 31
1, 430618, Note_on_c, 0, 65, 0
1, 431012, Control_c, 0, 64, 0
1, 431021, Note_on_c, 0, 65, 47
1, 431024, Note_on_c, 0, 62, 33
1, 431057, Note_on_c, 0, 60, 26
1, 431171, Control_c, 0, 64, 127
1, 431345, Note_on_c, 0, 62, 0
1, 431480, Note_on_c, 0, 60, 0
1, 431485, Note_on_c, 0, 65, 0
1, 431878, Control_c, 0, 64, 0
1, 431953, Note_on_c, 0, 61, 26
1, 431961, Note_on_c, 0, 69, 41
1, 431989, Note_on_c, 0, 65, 29
1, 431997, Note_on_c, 0, 55, 19
1, 432124, Control_c, 0, 64, 127
1, 432460, Note_on_c, 0, 69, 0
1, 432660, Note_on_c, 0, 61, 0
1, 432723, Note_on_c, 0, 65, 0
1, 432966, Note_on_c, 0, 61, 42
1, 433097, Note_on_c, 0, 61, 0
1, 433125, Note_on_c, 0, 55, 0
1, 433309, Note_on_c, 0, 65, 48
1, 433437, Note_on_c, 0, 65, 0
1, 433591, Note_on_c, 0, 67, 47
1, 433712, Note_on_c, 0, 67, 0
1, 433855, Control_c, 0, 64, 0
1, 433895, Note_on_c, 0, 61, 46
1, 433901, Note_on_c, 0, 55, 39
1, 433924, Note_on_c, 0, 66, 29
1, 433927, Note_on_c, 0, 69, 49
1, 434082, Note_on_c, 0, 66, 0
1, 434193, Note_on_c, 0, 69, 0
1, 434311, Note_on_c, 0, 55, 0
1, 434350, Note_on_c, 0, 61, 0
1, 434545, Note_on_c, 0, 61, 47
1, 434553, Note_on_c, 0, 66, 48
1, 434555, Note_on_c, 0, 55, 48
1, 434559, Note_on_c, 0, 72, 74
1, 434674, Note_on_c, 0, 66, 0
1, 434739, Note_on_c, 0, 55, 0
1, 434817, Note_on_c, 0, 61, 0
1, 434849, Note_on_c, 0, 72, 0
1, 434925, Control_c, 0, 64, 127
1, 434926, Note_on_c, 0, 66, 37
1, 434948, Note_on_c, 0, 61, 40
1, 434951, Note_on_c, 0, 55, 34
1, 434968, Note_on_c, 0, 69, 41
1, 435054, Note_on_c, 0, 69, 0
1, 435082, Control_c, 0, 64, 0
1, 435102, Note_on_c, 0, 66, 0
1, 435197, Control_c, 0, 64, 127
1, 435198, Note_on_c, 0, 55, 0
1, 435437, Note_on_c, 0, 61, 0
1, 435443, Control_c, 0, 64, 0
1, 435530, Note_on_c, 0, 76, 49
1, 435538, Note_on_c, 0, 68, 39
1, 435543, Note_on_c, 0, 64, 43
1, 435551, Note_on_c, 0, 71, 48
1, 435558, Note_on_c, 0, 54, 40
1, 435560, Note_on_c, 0, 60, 37
1, 435846, Control_c, 0, 64, 127
1, 435992, Note_on_c, 0, 64, 0
1, 436094, Note_on_c, 0, 68, 0
1, 436101, Note_on_c, 0, 71, 0
1, 436195, Note_on_c, 0, 76, 0
1, 436326, Note_on_c, 0, 60, 0
1, 436473, Note_on_c, 0, 54, 0
1, 436483, Control_c, 0, 64, 0
1, 436517, Note_on_c, 0, 74, 80
1, 436528, Note_on_c, 0, 62, 61
1, 436651, Note_on_c, 0, 74, 0
1, 436674, Note_on_c, 0, 62, 0
1, 436784, Note_on_c, 0, 74, 62
1, 436807, Note_on_c, 0, 62, 46
1, 436926, Note_on_c, 0, 74, 0
1, 436975, Note_on_c, 0, 62, 0
1, 437062, Note_on_c, 0, 76, 82
1, 437073, Note_on_c, 0, 64, 63
1, 437160, Control_c, 0, 64, 127
1, 437210, Note_on_c, 0, 76, 0
1, 437220, Note_on_c, 0, 64, 0
1, 437335, Note_on_c, 0, 76, 64
1, 437357, Note_on_c, 0, 64, 36
1, 437491, Note_on_c, 0, 64, 0
1, 437528, Note_on_c, 0, 76, 0
1, 437593, Control_c, 0, 64, 0
1, 437644, Note_on_c, 0, 65, 59
1, 437645, Note_on_c, 0, 55, 57
1, 437658, Note_on_c, 0, 77, 72
1, 437659, Note_on_c, 0, 74, 77
1, 437911, Control_c, 0, 64, 127
1, 438224, Note_on_c, 0, 74, 0
1, 438284, Note_on_c, 0, 65, 0
1, 438338, Note_on_c, 0, 55, 0
1, 438372, Note_on_c, 0, 77, 0
1, 438433, Note_on_c, 0, 74, 40
1, 438515, Note_on_c, 0, 74, 0
1, 438692, Control_c, 0, 64, 0
1, 438737, Note_on_c, 0, 76, 49
1, 438754, Note_on_c, 0, 64, 57
1, 438770, Note_on_c, 0, 58, 42
1, 438922, Control_c, 0, 64, 127
1, 439157, Note_on_c, 0, 76, 0
1, 439278, Note_on_c, 0, 64, 0
1, 439429, Note_on_c, 0, 58, 0
1, 439628, Control_c, 0, 64, 0
1, 439694, Note_on_c, 0, 63, 53
1, 439697, Note_on_c, 0, 74, 50
1, 439734, Note_on_c, 0, 67, 39
1, 439736, Note_on_c, 0, 71, 34
1, 439742, Note_on_c, 0, 57, 39
1, 439831, Control_c, 0, 64, 127
1, 440033, Note_on_c, 0, 57, 0
1, 440056, Note_on_c, 0, 74, 0
1, 440097, Note_on_c, 0, 71, 0
1, 440129, Note_on_c, 0, 67, 0
1, 440141, Note_on_c, 0, 63, 0
1, 440611, Control_c, 0, 64, 0
1, 440639, Note_on_c, 0, 72, 44
1, 440645, Note_on_c, 0, 62, 41
1, 440653, Note_on_c, 0, 65, 35
1, 440660, Note_on_c, 0, 69, 37
1, 440662, Note_on_c, 0, 56, 33
1, 440812, Control_c, 0, 64, 127
1, 440886, Note_on_c, 0, 56, 0
1, 441013, Note_on_c, 0, 62, 0
1, 441101, Note_on_c, 0, 69, 0
1, 441193, Note_on_c, 0, 72, 0
1, 441316, Note_on_c, 0, 65, 0
1, 441491, Control_c, 0, 64, 0
1, 441579, Note_on_c, 0, 70, 38
1, 441582, Note_on_c, 0, 61, 35
1, 441604, Note_on_c, 0, 55, 34
1, 441606, Note_on_c, 0, 65, 44
1, 441759, Note_on_c, 0, 55, 0
1, 441784, Control_c, 0, 64, 127
1, 442514, Note_on_c, 0, 39, 38
1, 442561, Note_on_c, 0, 27, 32
1, 442793, Control_c, 0, 64, 0
1, 442895, Control_c, 0, 64, 127
1, 443501, Control_c, 0, 64, 0
1, 443586, Control_c, 0, 64, 127
1, 443627, Note_on_c, 0, 27, 0
1, 443689, Note_on_c, 0, 39, 0
1, 444134, Note_on_c, 0, 39, 42
1, 444151, Control_c, 0, 64, 0
1, 444155, Note_on_c, 0, 27, 38
1, 444309, Control_c, 0, 64, 127
1, 444378, Note_on_c, 0, 27, 0
1, 444481, Note_on_c, 0, 39, 0
1, 445287, Note_on_c, 0, 65, 0
1, 445314, Note_on_c, 0, 70, 0
1, 445376, Control_c, 0, 64, 0
1, 445395, Note_on_c, 0, 50, 38
1, 446057, Note_on_c, 0, 57, 48
1, 446062, Note_on_c, 0, 69, 44
1, 446068, Note_on_c, 0, 60, 47
1, 446069, Note_on_c, 0, 64, 49
1, 446079, Note_on_c, 0, 65, 40
1, 446305, Note_on_c, 0, 69, 0
1, 446334, Note_on_c, 0, 57, 0
1, 446341, Note_on_c, 0, 65, 0
1, 446358, Control_c, 0, 64, 127
1, 446379, Note_on_c, 0, 50, 0
1, 446459, Note_on_c, 0, 67, 43
1, 446527, Note_on_c, 0, 60, 0
1, 446530, Note_on_c, 0, 64, 0
1, 446858, Note_on_c, 0, 67, 0
1, 447022, Control_c, 0, 64, 0
1, 447050, Note_on_c, 0, 65, 53
1, 447060, Note_on_c, 0, 43, 24
1, 447065, Note_on_c, 0, 53, 30
1, 447067, Note_on_c, 0, 59, 34
1, 447297, Control_c, 0, 64, 127
1, 447355, Note_on_c, 0, 59, 0
1, 447446, Note_on_c, 0, 65, 0
1, 447957, Note_on_c, 0, 43, 0
1, 448055, Note_on_c, 0, 53, 0
1, 448304, Note_on_c, 0, 69, 39
1, 448569, Note_on_c, 0, 69, 0
1, 449246, Control_c, 0, 64, 0
1, 449254, Note_on_c, 0, 73, 37
1, 449283, Note_on_c, 0, 64, 34
1, 449285, Note_on_c, 0, 68, 34
1, 450259, Note_on_c, 0, 57, 42
1, 450285, Control_c, 0, 64, 127
1, 450444, Note_on_c, 0, 57, 0
1, 450778, Note_on_c, 0, 57, 38
1, 450812, Note_on_c, 0, 64, 0
1, 450881, Note_on_c, 0, 73, 0
1, 450929, Note_on_c, 0, 68, 0
1, 451247, Note_on_c, 0, 73, 40
1, 451260, Note_on_c, 0, 66, 46
1, 451270, Note_on_c, 0, 62, 44
1, 451361, Note_on_c, 0, 57, 0
1, 451368, Control_c, 0, 64, 0
1, 451721, Note_on_c, 0, 57, 65
1, 451789, Note_on_c, 0, 57, 0
1, 452183, Note_on_c, 0, 57, 96
1, 452566, Control_c, 0, 64, 127
1, 452631, Note_on_c, 0, 57, 0
1, 452690, Note_on_c, 0, 57, 89
1, 453077, Note_on_c, 0, 62, 0
1, 453197, Note_on_c, 0, 66, 0
1, 453386, Note_on_c, 0, 73, 0
1, 453605, Control_c, 0, 64, 0
1, 453641, Note_on_c, 0, 73, 42
1, 453658, Note_on_c, 0, 68, 52
1, 453671, Note_on_c, 0, 65, 59
1, 453682, Note_on_c, 0, 62, 54
1, 453989, Note_on_c, 0, 57, 0
1, 454094, Control_c, 0, 64, 127
1, 454192, Note_on_c, 0, 57, 74
1, 454340, Note_on_c, 0, 57, 0
1, 454469, Control_c, 0, 64, 0
1, 454674, Note_on_c, 0, 57, 94
1, 455078, Control_c, 0, 64, 127
1, 455079, Note_on_c, 0, 62, 0
1, 455105, Note_on_c, 0, 65, 0
1, 455171, Note_on_c, 0, 68, 0
1, 455338, Note_on_c, 0, 73, 0
1, 455510, Control_c, 0, 64, 0
1, 455573, Note_on_c, 0, 73, 56
1, 455582, Note_on_c, 0, 69, 67
1, 455587, Note_on_c, 0, 64, 68
1, 455668, Control_c, 0, 64, 127
1, 455763, Note_on_c, 0, 57, 0
1, 456074, Note_on_c, 0, 57, 82
1, 456254, Note_on_c, 0, 57, 0
1, 456263, Note_on_c, 0, 64, 0
1, 456319, Note_on_c, 0, 69, 0
1, 456408, Note_on_c, 0, 73, 0
1, 456577, Note_on_c, 0, 57, 62
1, 456680, Note_on_c, 0, 57, 0
1, 456997, Control_c, 0, 64, 0
1, 457017, Note_on_c, 0, 69, 60
1, 457020, Note_on_c, 0, 74, 64
1, 457033, Note_on_c, 0, 57, 66
1, 457271, Control_c, 0, 64, 127
1, 457662, Note_on_c, 0, 69, 0
1, 457667, Note_on_c, 0, 74, 0
1, 457966, Note_on_c, 0, 81, 45
1, 457972, Note_on_c, 0, 78, 37
1, 457988, Note_on_c, 0, 69, 35
1, 457996, Note_on_c, 0, 74, 48
1, 458004, Note_on_c, 0, 66, 23
1, 458015, Note_on_c, 0, 62, 47
1, 458344, Note_on_c, 0, 62, 0
1, 458482, Note_on_c, 0, 66, 0
1, 458521, Note_on_c, 0, 69, 0
1, 458538, Note_on_c, 0, 74, 0
1, 458614, Note_on_c, 0, 78, 0
1, 458634, Note_on_c, 0, 81, 0
1, 458915, Note_on_c, 0, 81, 44
1, 458920, Note_on_c, 0, 78, 39
1, 458925, Note_on_c, 0, 66, 32
1, 458935, Note_on_c, 0, 74, 45
1, 458948, Note_on_c, 0, 69, 22
1, 458996, Note_on_c, 0, 62, 36
1, 459352, Note_on_c, 0, 57, 0
1, 459448, Note_on_c, 0, 69, 0
1, 459484, Note_on_c, 0, 74, 0
1, 459552, Note_on_c, 0, 81, 0
1, 459569, Note_on_c, 0, 78, 0
1, 459840, Note_on_c, 0, 57, 44
1, 459841, Note_on_c, 0, 81, 46
1, 459858, Note_on_c, 0, 78, 40
1, 459867, Note_on_c, 0, 74, 51
1, 459889, Note_on_c, 0, 69, 24
1, 460231, Note_on_c, 0, 81, 0
1, 460233, Note_on_c, 0, 62, 0
1, 460280, Note_on_c, 0, 74, 0
1, 460298, Note_on_c, 0, 69, 0
1, 460336, Note_on_c, 0, 66, 0
1, 460588, Note_on_c, 0, 78, 0
1, 460754, Note_on_c, 0, 80, 72
1, 460773, Note_on_c, 0, 76, 78
1, 460781, Note_on_c, 0, 73, 68
1, 460789, Note_on_c, 0, 69, 77
1, 460790, Note_on_c, 0, 68, 69
1, 460794, Control_c, 0, 64, 0
1, 461038, Control_c, 0, 64, 127
1, 461153, Note_on_c, 0, 57, 0
1, 461553, Note_on_c, 0, 68, 0
1, 461722, Note_on_c, 0, 57, 58
1, 461990, Note_on_c, 0, 69, 0
1, 462106, Note_on_c, 0, 73, 0
1, 462111, Note_on_c, 0, 76, 0
1, 462154, Note_on_c, 0, 80, 0
1, 462237, Note_on_c, 0, 78, 65
1, 462250, Note_on_c, 0, 74, 76
1, 462255, Note_on_c, 0, 69, 62
1, 462288, Note_on_c, 0, 80, 23
1, 462289, Note_on_c, 0, 66, 42
1, 462338, Note_on_c, 0, 80, 0
1, 462455, Note_on_c, 0, 66, 0
1, 462502, Note_on_c, 0, 69, 0
1, 462514, Note_on_c, 0, 74, 0
1, 462527, Note_on_c, 0, 78, 0
1, 462730, Note_on_c, 0, 64, 55
1, 462733, Note_on_c, 0, 73, 46
1, 462734, Note_on_c, 0, 69, 47
1, 462736, Note_on_c, 0, 76, 65
1, 462741, Control_c, 0, 64, 0
1, 462972, Control_c, 0, 64, 127
1, 463129, Note_on_c, 0, 57, 0
1, 463575, Note_on_c, 0, 57, 54
1, 463615, Note_on_c, 0, 69, 0
1, 463732, Note_on_c, 0, 73, 0
1, 463749, Note_on_c, 0, 57, 0
1, 463761, Note_on_c, 0, 64, 0
1, 463772, Note_on_c, 0, 76, 0
1, 464573, Control_c, 0, 64, 0
1, 464587, Note_on_c, 0, 90, 37
1, 464602, Note_on_c, 0, 66, 47
1, 464603, Note_on_c, 0, 55, 41
1, 464605, Note_on_c, 0, 78, 55
1, 464648, Note_on_c, 0, 86, 38
1, 464668, Note_on_c, 0, 91, 45
1, 464692, Note_on_c, 0, 78, 0
1, 464740, Note_on_c, 0, 79, 36
1, 464756, Note_on_c, 0, 90, 0
1, 465097, Control_c, 0, 64, 127
1, 465241, Note_on_c, 0, 91, 0
1, 465317, Note_on_c, 0, 79, 0
1, 465323, Note_on_c, 0, 55, 0
1, 465349, Note_on_c, 0, 86, 0
1, 465376, Note_on_c, 0, 66, 0
1, 465421, Note_on_c, 0, 61, 0
1, 465502, Control_c, 0, 64, 0
1, 465575, Note_on_c, 0, 90, 46
1, 465581, Note_on_c, 0, 66, 39
1, 465585, Note_on_c, 0, 61, 38
1, 465600, Note_on_c, 0, 78, 48
1, 465611, Note_on_c, 0, 85, 45
1, 465614, Note_on_c, 0, 55, 25
1, 465660, Control_c, 0, 64, 127
1, 465999, Note_on_c, 0, 55, 0
1, 466037, Note_on_c, 0, 66, 0
1, 466046, Note_on_c, 0, 90, 0
1, 466079, Note_on_c, 0, 78, 0
1, 466108, Note_on_c, 0, 85, 0
1, 466468, Control_c, 0, 64, 0
1, 466498, Note_on_c, 0, 64, 45
1, 466500, Note_on_c, 0, 88, 52
1, 466521, Note_on_c, 0, 83, 51
1, 466537, Note_on_c, 0, 76, 22
1, 466642, Control_c, 0, 64, 127
1, 466900, Note_on_c, 0, 83, 0
1, 466913, Note_on_c, 0, 88, 0
1, 467097, Note_on_c, 0, 76, 0
1, 467472, Note_on_c, 0, 55, 40
1, 467725, Note_on_c, 0, 64, 0
1, 467760, Note_on_c, 0, 55, 0
1, 467938, Note_on_c, 0, 86, 52
1, 467964, Note_on_c, 0, 74, 54
1, 468094, Note_on_c, 0, 74, 0
1, 468134, Note_on_c, 0, 86, 0
1, 468359, Control_c, 0, 64, 0
1, 468447, Note_on_c, 0, 88, 43
1, 468470, Note_on_c, 0, 81, 35
1, 468478, Note_on_c, 0, 76, 30
1, 468490, Note_on_c, 0, 85, 34
1, 468507, Note_on_c, 0, 57, 33
1, 468589, Control_c, 0, 64, 127
1, 468748, Note_on_c, 0, 88, 0
1, 468782, Note_on_c, 0, 81, 0
1, 468789, Note_on_c, 0, 85, 0
1, 468893, Note_on_c, 0, 76, 0
1, 469434, Note_on_c, 0, 61, 0
1, 469459, Note_on_c, 0, 66, 37
1, 469473, Note_on_c, 0, 76, 31
1, 469491, Note_on_c, 0, 73, 28
1, 469504, Note_on_c, 0, 69, 31
1, 469963, Note_on_c, 0, 64, 57
1, 470219, Note_on_c, 0, 69, 0
1, 470221, Note_on_c, 0, 66, 0
1, 470260, Note_on_c, 0, 73, 0
1, 470488, Note_on_c, 0, 66, 28
1, 470512, Note_on_c, 0, 73, 25
1, 470535, Note_on_c, 0, 69, 31
1, 471132, Note_on_c, 0, 69, 0
1, 471168, Note_on_c, 0, 66, 0
1, 471207, Note_on_c, 0, 73, 0
1, 471463, Note_on_c, 0, 66, 26
1, 471465, Note_on_c, 0, 69, 33
1, 471479, Note_on_c, 0, 57, 0
1, 471874, Note_on_c, 0, 76, 0
1, 471924, Note_on_c, 0, 57, 46
1, 472005, Note_on_c, 0, 69, 0
1, 472009, Note_on_c, 0, 66, 0
1, 472281, Note_on_c, 0, 57, 0
1, 472366, Note_on_c, 0, 64, 0
1, 472414, Note_on_c, 0, 71, 71
1, 472420, Note_on_c, 0, 68, 57
1, 472421, Note_on_c, 0, 65, 59
1, 472443, Note_on_c, 0, 57, 40
1, 472458, Control_c, 0, 64, 0
1, 472703, Control_c, 0, 64, 127
1, 472919, Note_on_c, 0, 59, 57
1, 472929, Note_on_c, 0, 65, 0
1, 472954, Note_on_c, 0, 71, 0
1, 472972, Note_on_c, 0, 68, 0
1, 473394, Note_on_c, 0, 77, 80
1, 473403, Note_on_c, 0, 59, 0
1, 473406, Note_on_c, 0, 68, 67
1, 473407, Note_on_c, 0, 71, 72
1, 473413, Note_on_c, 0, 62, 62
1, 473439, Control_c, 0, 64, 0
1, 473484, Note_on_c, 0, 57, 0
1, 473671, Control_c, 0, 64, 127
1, 473792, Note_on_c, 0, 62, 0
1, 473885, Note_on_c, 0, 65, 74
1, 474112, Note_on_c, 0, 68, 0
1, 474119, Note_on_c, 0, 77, 0
1, 474146, Note_on_c, 0, 71, 0
1, 474381, Note_on_c, 0, 77, 48
1, 474394, Note_on_c, 0, 68, 28
1, 474394, Note_on_c, 0, 71, 45
1, 474862, Note_on_c, 0, 67, 80
1, 474958, Note_on_c, 0, 65, 0
1, 475111, Note_on_c, 0, 77, 0
1, 475134, Note_on_c, 0, 71, 0
1, 475140, Note_on_c, 0, 68, 0
1, 475327, Note_on_c, 0, 68, 37
1, 475328, Note_on_c, 0, 77, 46
1, 475343, Note_on_c, 0, 71, 47
1, 475400, Note_on_c, 0, 65, 48
1, 475464, Note_on_c, 0, 67, 0
1, 475811, Note_on_c, 0, 77, 0
1, 475824, Note_on_c, 0, 57, 47
1, 475998, Note_on_c, 0, 68, 0
1, 476096, Note_on_c, 0, 57, 0
1, 476099, Note_on_c, 0, 71, 0
1, 476274, Note_on_c, 0, 65, 0
1, 476297, Control_c, 0, 64, 0
1, 476318, Note_on_c, 0, 73, 46
1, 476319, Note_on_c, 0, 76, 57
1, 476322, Note_on_c, 0, 71, 57
1, 476335, Note_on_c, 0, 57, 37
1, 476659, Control_c, 0, 64, 127
1, 476814, Note_on_c, 0, 64, 38
1, 477107, Note_on_c, 0, 71, 0
1, 477148, Note_on_c, 0, 73, 0
1, 477195, Note_on_c, 0, 76, 0
1, 477248, Note_on_c, 0, 71, 36
1, 477274, Note_on_c, 0, 74, 56
1, 477326, Note_on_c, 0, 57, 0
1, 477634, Note_on_c, 0, 71, 0
1, 477677, Note_on_c, 0, 74, 0
1, 477733, Note_on_c, 0, 57, 45
1, 477997, Note_on_c, 0, 64, 0
1, 478046, Note_on_c, 0, 57, 0
1, 478175, Note_on_c, 0, 73, 36
1, 478180, Note_on_c, 0, 64, 48
1, 478190, Control_c, 0, 64, 0
1, 478204, Note_on_c, 0, 69, 51
1, 478227, Note_on_c, 0, 57, 56
1, 478406, Control_c, 0, 64, 127
1, 478496, Note_on_c, 0, 57, 0
1, 479549, Note_on_c, 0, 64, 0
1, 479585, Note_on_c, 0, 57, 51
1, 479697, Note_on_c, 0, 69, 0
1, 479890, Note_on_c, 0, 57, 0
1, 479929, Note_on_c, 0, 73, 0
1, 480469, Control_c, 0, 64, 0
1, 480475, Note_on_c, 0, 76, 69
1, 480482, Note_on_c, 0, 66, 62
1, 480484, Note_on_c, 0, 73, 46
1, 480496, Note_on_c, 0, 69, 54
1, 480505, Note_on_c, 0, 57, 66
1, 480701, Control_c, 0, 64, 127
1, 480939, Note_on_c, 0, 76, 0
1, 480989, Note_on_c, 0, 66, 0
1, 481009, Note_on_c, 0, 57, 0
1, 481062, Note_on_c, 0, 74, 69
1, 481067, Note_on_c, 0, 66, 30
1, 481349, Note_on_c, 0, 69, 0
1, 481352, Note_on_c, 0, 74, 0
1, 481395, Note_on_c, 0, 66, 0
1, 481458, Note_on_c, 0, 73, 0
1, 481483, Note_on_c, 0, 57, 48
1, 481801, Note_on_c, 0, 57, 0
1, 481948, Note_on_c, 0, 73, 53
1, 481954, Note_on_c, 0, 68, 52
1, 481957, Control_c, 0, 64, 0
1, 481970, Note_on_c, 0, 62, 51
1, 481974, Note_on_c, 0, 65, 52
1, 482014, Note_on_c, 0, 57, 29
1, 482157, Control_c, 0, 64, 127
1, 482397, Note_on_c, 0, 57, 0
1, 482528, Note_on_c, 0, 57, 73
1, 482934, Note_on_c, 0, 62, 0
1, 482940, Note_on_c, 0, 65, 0
1, 482955, Note_on_c, 0, 57, 0
1, 483035, Note_on_c, 0, 73, 0
1, 483070, Note_on_c, 0, 68, 0
1, 483230, Note_on_c, 0, 71, 64
1, 483253, Note_on_c, 0, 65, 58
1, 483256, Note_on_c, 0, 62, 58
1, 483258, Note_on_c, 0, 57, 65
1, 483263, Note_on_c, 0, 68, 45
1, 483443, Note_on_c, 0, 71, 0
1, 483469, Note_on_c, 0, 62, 0
1, 483500, Note_on_c, 0, 68, 0
1, 483542, Note_on_c, 0, 65, 0
1, 483568, Note_on_c, 0, 57, 0
1, 483846, Control_c, 0, 64, 0
1, 483853, Note_on_c, 0, 64, 78
1, 483855, Note_on_c, 0, 61, 79
1, 483857, Note_on_c, 0, 69, 73
1, 483879, Note_on_c, 0, 57, 83
1, 484019, Control_c, 0, 64, 127
1, 484049, Note_on_c, 0, 57, 0
1, 484497, Note_on_c, 0, 57, 95
1, 485093, Note_on_c, 0, 56, 91
1, 485156, Note_on_c, 0, 57, 0
1, 485273, Note_on_c, 0, 56, 0
1, 485354, Note_on_c, 0, 55, 61
1, 485431, Note_on_c, 0, 64, 0
1, 485456, Note_on_c, 0, 69, 0
1, 485495, Note_on_c, 0, 54, 42
1, 485554, Note_on_c, 0, 55, 0
1, 485590, Note_on_c, 0, 61, 0
1, 485706, Note_on_c, 0, 54, 0
1, 485712, Note_on_c, 0, 53, 42
1, 485931, Note_on_c, 0, 52, 51
1, 485981, Note_on_c, 0, 53, 0
1, 486079, Note_on_c, 0, 52, 0
1, 486084, Control_c, 0, 64, 0
1, 486121, Note_on_c, 0, 61, 44
1, 486148, Note_on_c, 0, 51, 51
1, 486159, Note_on_c, 0, 69, 52
1, 486169, Note_on_c, 0, 65, 50
1, 486388, Control_c, 0, 64, 127
1, 486968, Note_on_c, 0, 69, 0
1, 487093, Note_on_c, 0, 61, 0
1, 487161, Note_on_c, 0, 65, 0
1, 487316, Note_on_c, 0, 69, 41
1, 487394, Note_on_c, 0, 51, 0
1, 487658, Control_c, 0, 64, 0
1, 487665, Note_on_c, 0, 69, 0
1, 487671, Note_on_c, 0, 50, 43
1, 487859, Control_c, 0, 64, 127
1, 488651, Note_on_c, 0, 81, 54
1, 488694, Note_on_c, 0, 50, 0
1, 489000, Note_on_c, 0, 81, 0
1, 489268, Note_on_c, 0, 81, 49
1, 489288, Note_on_c, 0, 69, 32
1, 489289, Note_on_c, 0, 75, 38
1, 489296, Note_on_c, 0, 78, 35
1, 489404, Control_c, 0, 64, 0
1, 489547, Note_on_c, 0, 39, 34
1, 489596, Note_on_c, 0, 54, 25
1, 489662, Control_c, 0, 64, 127
1, 489753, Note_on_c, 0, 39, 0
1, 489937, Note_on_c, 0, 54, 0
1, 490543, Note_on_c, 0, 63, 43
1, 490558, Note_on_c, 0, 54, 37
1, 490571, Note_on_c, 0, 60, 31
1, 490677, Note_on_c, 0, 63, 0
1, 490712, Note_on_c, 0, 69, 0
1, 490722, Note_on_c, 0, 60, 0
1, 490764, Note_on_c, 0, 54, 0
1, 490778, Note_on_c, 0, 78, 0
1, 490788, Note_on_c, 0, 81, 0
1, 490790, Note_on_c, 0, 75, 0
1, 491147, Note_on_c, 0, 81, 58
1, 491160, Note_on_c, 0, 75, 55
1, 491174, Note_on_c, 0, 69, 36
1, 491273, Note_on_c, 0, 69, 0
1, 491311, Note_on_c, 0, 81, 0
1, 491453, Note_on_c, 0, 75, 0
1, 491466, Control_c, 0, 64, 0
1, 491494, Note_on_c, 0, 52, 57
1, 491521, Note_on_c, 0, 80, 54
1, 491567, Note_on_c, 0, 68, 25
1, 491583, Note_on_c, 0, 52, 0
1, 491628, Note_on_c, 0, 76, 20
1, 491713, Control_c, 0, 64, 127
1, 492054, Note_on_c, 0, 68, 0
1, 492110, Note_on_c, 0, 80, 0
1, 492218, Note_on_c, 0, 76, 0
1, 492434, Control_c, 0, 64, 0
1, 492440, Note_on_c, 0, 78, 57
1, 492466, Note_on_c, 0, 50, 52
1, 492476, Note_on_c, 0, 62, 43
1, 492637, Control_c, 0, 64, 127
1, 492675, Note_on_c, 0, 78, 0
1, 492853, Note_on_c, 0, 62, 0
1, 492886, Note_on_c, 0, 50, 0
1, 493359, Control_c, 0, 64, 0
1, 493366, Note_on_c, 0, 76, 60
1, 493386, Note_on_c, 0, 70, 43
1, 493399, Note_on_c, 0, 64, 44
1, 493409, Note_on_c, 0, 73, 48
1, 493429, Note_on_c, 0, 49, 37
1, 493675, Control_c, 0, 64, 127
1, 493755, Note_on_c, 0, 49, 0
1, 494300, Note_on_c, 0, 42, 50
1, 494309, Control_c, 0, 64, 0
1, 494411, Control_c, 0, 64, 127
1, 494463, Note_on_c, 0, 42, 0
1, 494597, Note_on_c, 0, 76, 0
1, 494598, Note_on_c, 0, 73, 0
1, 494676, Note_on_c, 0, 64, 0
1, 494699, Note_on_c, 0, 70, 0
1, 495340, Note_on_c, 0, 67, 68
1, 495364, Control_c, 0, 64, 0
1, 495366, Note_on_c, 0, 62, 80
1, 495370, Note_on_c, 0, 60, 72
1, 495389, Note_on_c, 0, 43, 44
1, 495395, Note_on_c, 0, 50, 50
1, 495710, Control_c, 0, 64, 127
1, 495949, Note_on_c, 0, 67, 0
1, 495998, Note_on_c, 0, 60, 0
1, 496027, Note_on_c, 0, 62, 0
1, 496231, Control_c, 0, 64, 0
1, 496288, Note_on_c, 0, 66, 75
1, 496292, Note_on_c, 0, 62, 83
1, 496295, Note_on_c, 0, 54, 56
1, 496306, Note_on_c, 0, 60, 66
1, 496375, Control_c, 0, 64, 127
1, 496525, Note_on_c, 0, 43, 0
1, 496574, Note_on_c, 0, 54, 0
1, 496577, Note_on_c, 0, 50, 0
1, 496802, Note_on_c, 0, 62, 0
1, 496835, Note_on_c, 0, 66, 0
1, 496891, Note_on_c, 0, 60, 0
1, 497183, Control_c, 0, 64, 0
1, 497242, Note_on_c, 0, 61, 55
1, 497248, Note_on_c, 0, 64, 74
1, 497271, Note_on_c, 0, 57, 41
1, 497277, Note_on_c, 0, 45, 60
1, 497457, Control_c, 0, 64, 127
1, 497765, Note_on_c, 0, 57, 0
1, 497962, Note_on_c, 0, 61, 0
1, 498004, Note_on_c, 0, 64, 0
1, 498093, Control_c, 0, 64, 0
1, 498147, Note_on_c, 0, 52, 19
1, 498178, Note_on_c, 0, 62, 69
1, 498191, Note_on_c, 0, 55, 40
1, 498197, Note_on_c, 0, 57, 50
1, 498208, Note_on_c, 0, 61, 37
1, 498293, Control_c, 0, 64, 127
1, 498377, Note_on_c, 0, 45, 0
1, 498383, Note_on_c, 0, 52, 0
1, 498522, Note_on_c, 0, 57, 0
1, 498612, Note_on_c, 0, 55, 0
1, 498799, Note_on_c, 0, 61, 0
1, 498800, Note_on_c, 0, 62, 0
1, 499045, Control_c, 0, 64, 0
1, 499137, Note_on_c, 0, 61, 57
1, 499156, Note_on_c, 0, 57, 46
1, 499157, Note_on_c, 0, 64, 62
1, 499169, Note_on_c, 0, 47, 34
1, 499291, Control_c, 0, 64, 127
1, 499432, Note_on_c, 0, 57, 0
1, 500161, Note_on_c, 0, 56, 62
1, 500466, Note_on_c, 0, 47, 0
1, 500675, Note_on_c, 0, 56, 0
1, 500868, Note_on_c, 0, 64, 0
1, 501008, Note_on_c, 0, 61, 0
1, 501094, Note_on_c, 0, 49, 37
1, 501097, Note_on_c, 0, 59, 58
1, 501109, Control_c, 0, 64, 0
1, 501411, Control_c, 0, 64, 127
1, 501572, Note_on_c, 0, 63, 18
1, 501947, Control_c, 0, 64, 0
1, 502014, Note_on_c, 0, 57, 58
1, 502134, Control_c, 0, 64, 127
1, 502287, Note_on_c, 0, 49, 0
1, 502307, Note_on_c, 0, 59, 0
1, 502310, Note_on_c, 0, 57, 0
1, 502409, Note_on_c, 0, 63, 0
1, 502913, Control_c, 0, 64, 0
1, 502994, Note_on_c, 0, 71, 48
1, 503002, Note_on_c, 0, 65, 51
1, 503004, Note_on_c, 0, 60, 30
1, 503017, Note_on_c, 0, 50, 36
1, 503145, Control_c, 0, 64, 127
1, 503241, Note_on_c, 0, 60, 0
1, 503364, Note_on_c, 0, 65, 0
1, 503403, Note_on_c, 0, 71, 0
1, 503512, Note_on_c, 0, 57, 40
1, 503981, Note_on_c, 0, 50, 0
1, 503989, Note_on_c, 0, 57, 0
1, 503990, Note_on_c, 0, 60, 32
1, 504009, Note_on_c, 0, 77, 74
1, 504075, Note_on_c, 0, 60, 0
1, 504439, Note_on_c, 0, 62, 51
1, 504775, Note_on_c, 0, 62, 0
1, 504929, Note_on_c, 0, 77, 33
1, 504936, Note_on_c, 0, 65, 36
1, 504940, Note_on_c, 0, 71, 56
1, 504964, Control_c, 0, 64, 0
1, 505312, Note_on_c, 0, 65, 0
1, 505427, Note_on_c, 0, 59, 34
1, 505815, Note_on_c, 0, 71, 0
1, 505902, Control_c, 0, 64, 127
1, 505905, Note_on_c, 0, 77, 0
1, 505918, Note_on_c, 0, 65, 43
1, 505921, Note_on_c, 0, 62, 38
1, 505957, Note_on_c, 0, 77, 0
1, 506290, Note_on_c, 0, 65, 0
1, 506307, Note_on_c, 0, 59, 0
1, 506340, Note_on_c, 0, 62, 0
1, 506452, Note_on_c, 0, 74, 55
1, 506689, Note_on_c, 0, 74, 0
1, 506897, Control_c, 0, 64, 0
1, 506899, Note_on_c, 0, 76, 62
1, 506903, Note_on_c, 0, 64, 62
1, 506909, Note_on_c, 0, 49, 37
1, 506949, Note_on_c, 0, 68, 32
1, 507216, Control_c, 0, 64, 127
1, 507377, Note_on_c, 0, 55, 24
1, 507560, Note_on_c, 0, 64, 0
1, 507603, Note_on_c, 0, 76, 0
1, 507737, Note_on_c, 0, 55, 0
1, 507854, Note_on_c, 0, 64, 29
1, 507947, Note_on_c, 0, 49, 0
1, 508284, Note_on_c, 0, 64, 0
1, 508306, Note_on_c, 0, 68, 0
1, 508353, Note_on_c, 0, 74, 62
1, 508592, Note_on_c, 0, 74, 0
1, 508803, Control_c, 0, 64, 0
1, 508821, Note_on_c, 0, 42, 35
1, 508826, Note_on_c, 0, 73, 37
1, 508839, Note_on_c, 0, 64, 30
1, 508857, Note_on_c, 0, 66, 42
1, 508886, Note_on_c, 0, 42, 0
1, 508975, Control_c, 0, 64, 127
1, 509422, Note_on_c, 0, 66, 0
1, 509474, Note_on_c, 0, 64, 0
1, 509775, Note_on_c, 0, 66, 44
1, 509779, Note_on_c, 0, 64, 51
1, 509952, Note_on_c, 0, 64, 0
1, 510080, Note_on_c, 0, 66, 0
1, 510097, Note_on_c, 0, 73, 0
1, 510709, Control_c, 0, 64, 0
1, 510735, Note_on_c, 0, 66, 71
1, 510738, Note_on_c, 0, 73, 76
1, 510742, Note_on_c, 0, 64, 66
1, 510745, Note_on_c, 0, 76, 80
1, 510757, Note_on_c, 0, 69, 80
1, 510770, Note_on_c, 0, 62, 62
1, 510952, Control_c, 0, 64, 127
1, 511217, Note_on_c, 0, 66, 0
1, 511229, Note_on_c, 0, 64, 0
1, 511239, Note_on_c, 0, 62, 0
1, 511465, Note_on_c, 0, 73, 0
1, 511582, Note_on_c, 0, 76, 0
1, 511596, Note_on_c, 0, 69, 0
1, 511706, Note_on_c, 0, 74, 67
1, 511943, Note_on_c, 0, 74, 0
1, 512502, Note_on_c, 0, 52, 51
1, 512585, Note_on_c, 0, 61, 44
1, 512666, Note_on_c, 0, 56, 38
1, 512668, Note_on_c, 0, 66, 58
1, 512672, Control_c, 0, 64, 0
1, 512693, Note_on_c, 0, 62, 69
1, 512705, Note_on_c, 0, 70, 64
1, 512738, Note_on_c, 0, 73, 57
1, 513104, Control_c, 0, 64, 127
1, 513507, Note_on_c, 0, 73, 0
1, 513539, Note_on_c, 0, 70, 0
1, 513582, Note_on_c, 0, 62, 0
1, 513601, Note_on_c, 0, 71, 66
1, 513900, Note_on_c, 0, 56, 0
1, 513919, Note_on_c, 0, 52, 0
1, 513943, Note_on_c, 0, 71, 0
1, 514034, Note_on_c, 0, 61, 0
1, 514148, Note_on_c, 0, 66, 0
1, 514504, Control_c, 0, 64, 0
1, 514506, Note_on_c, 0, 61, 63
1, 514519, Note_on_c, 0, 69, 58
1, 514528, Note_on_c, 0, 67, 60
1, 514535, Note_on_c, 0, 57, 49
1, 514734, Control_c, 0, 64, 127
1, 514855, Note_on_c, 0, 57, 0
1, 514862, Note_on_c, 0, 69, 0
1, 514888, Note_on_c, 0, 67, 0
1, 514924, Note_on_c, 0, 61, 0
1, 515478, Note_on_c, 0, 65, 66
1, 515486, Control_c, 0, 64, 0
1, 515487, Note_on_c, 0, 58, 68
1, 515493, Note_on_c, 0, 48, 57
1, 515497, Note_on_c, 0, 55, 63
1, 515504, Note_on_c, 0, 62, 70
1, 515640, Note_on_c, 0, 48, 0
1, 515702, Control_c, 0, 64, 127
1, 515890, Note_on_c, 0, 65, 0
1, 515897, Note_on_c, 0, 55, 0
1, 515933, Note_on_c, 0, 62, 0
1, 515946, Note_on_c, 0, 58, 0
1, 516453, Control_c, 0, 64, 0
1, 516489, Note_on_c, 0, 69, 62
1, 516492, Note_on_c, 0, 58, 57
1, 516504, Note_on_c, 0, 64, 60
1, 516507, Note_on_c, 0, 24, 49
1, 516517, Note_on_c, 0, 62, 60
1, 516522, Note_on_c, 0, 36, 36
1, 516649, Note_on_c, 0, 24, 0
1, 516653, Control_c, 0, 64, 127
1, 516697, Note_on_c, 0, 36, 0
1, 516753, Note_on_c, 0, 58, 0
1, 516770, Note_on_c, 0, 69, 0
1, 516815, Note_on_c, 0, 62, 0
1, 516839, Note_on_c, 0, 64, 0
1, 517468, Note_on_c, 0, 58, 64
1, 517479, Note_on_c, 0, 68, 59
1, 517480, Note_on_c, 0, 64, 65
1, 517484, Note_on_c, 0, 70, 58
1, 517490, Control_c, 0, 64, 0
1, 517600, Note_on_c, 0, 58, 0
1, 517636, Control_c, 0, 64, 127
1, 517888, Note_on_c, 0, 64, 0
1, 518102, Note_on_c, 0, 68, 0
1, 518161, Note_on_c, 0, 70, 0
1, 518382, Note_on_c, 0, 57, 39
1, 518394, Note_on_c, 0, 72, 56
1, 518405, Note_on_c, 0, 64, 58
1, 518408, Note_on_c, 0, 60, 34
1, 518487, Control_c, 0, 64, 127
1, 518555, Note_on_c, 0, 60, 0
1, 518661, Note_on_c, 0, 72, 0
1, 518676, Note_on_c, 0, 57, 0
1, 518677, Note_on_c, 0, 64, 0
1, 519075, Note_on_c, 0, 72, 74
1, 519263, Control_c, 0, 64, 0
1, 519353, Note_on_c, 0, 62, 26
1, 519373, Note_on_c, 0, 53, 24
1, 519385, Note_on_c, 0, 57, 33
1, 519451, Control_c, 0, 64, 127
1, 519483, Note_on_c, 0, 62, 0
1, 519525, Note_on_c, 0, 53, 0
1, 519574, Note_on_c, 0, 72, 0
1, 519576, Note_on_c, 0, 57, 0
1, 519636, Note_on_c, 0, 69, 56
1, 519954, Note_on_c, 0, 69, 0
1, 520270, Note_on_c, 0, 75, 59
1, 520330, Note_on_c, 0, 56, 30
1, 520334, Note_on_c, 0, 67, 26
1, 520355, Note_on_c, 0, 62, 42
1, 520365, Note_on_c, 0, 76, 65
1, 520377, Note_on_c, 0, 75, 0
1, 520400, Control_c, 0, 64, 0
1, 520719, Note_on_c, 0, 76, 0
1, 520720, Note_on_c, 0, 79, 71
1, 520910, Control_c, 0, 64, 127
1, 521122, Note_on_c, 0, 67, 0
1, 521135, Note_on_c, 0, 62, 0
1, 521217, Control_c, 0, 64, 0
1, 521244, Note_on_c, 0, 79, 0
1, 521342, Note_on_c, 0, 79, 75
1, 521352, Note_on_c, 0, 67, 36
1, 521390, Note_on_c, 0, 62, 38
1, 521406, Control_c, 0, 64, 127
1, 521690, Note_on_c, 0, 77, 56
1, 521707, Note_on_c, 0, 67, 0
1, 521725, Note_on_c, 0, 79, 0
1, 521751, Note_on_c, 0, 62, 0
1, 521866, Note_on_c, 0, 77, 0
1, 521955, Note_on_c, 0, 79, 85
1, 521994, Note_on_c, 0, 77, 29
1, 521997, Note_on_c, 0, 56, 0
1, 522052, Note_on_c, 0, 77, 0
1, 522152, Control_c, 0, 64, 0
1, 522201, Note_on_c, 0, 79, 0
1, 522249, Note_on_c, 0, 55, 43
1, 522252, Note_on_c, 0, 61, 44
1, 522256, Note_on_c, 0, 66, 39
1, 522288, Note_on_c, 0, 81, 80
1, 522882, Note_on_c, 0, 77, 69
1, 522907, Note_on_c, 0, 55, 0
1, 522946, Note_on_c, 0, 66, 0
1, 522970, Note_on_c, 0, 81, 0
1, 523091, Note_on_c, 0, 61, 0
1, 523128, Control_c, 0, 64, 127
1, 523147, Note_on_c, 0, 60, 30
1, 523166, Note_on_c, 0, 64, 60
1, 523206, Note_on_c, 0, 57, 44
1, 523217, Note_on_c, 0, 79, 68
1, 523223, Note_on_c, 0, 53, 33
1, 523280, Note_on_c, 0, 77, 0
1, 523757, Note_on_c, 0, 60, 0
1, 523776, Note_on_c, 0, 79, 0
1, 523803, Note_on_c, 0, 76, 71
1, 523840, Note_on_c, 0, 53, 0
1, 523865, Note_on_c, 0, 64, 0
1, 523867, Note_on_c, 0, 57, 0
1, 524004, Control_c, 0, 64, 0
1, 524095, Note_on_c, 0, 76, 0
1, 524133, Note_on_c, 0, 64, 45
1, 524140, Note_on_c, 0, 77, 69
1, 524177, Note_on_c, 0, 59, 33
1, 524177, Note_on_c, 0, 53, 27
1, 524253, Control_c, 0, 64, 127
1, 524440, Note_on_c, 0, 74, 48
1, 524442, Note_on_c, 0, 77, 0
1, 524550, Note_on_c, 0, 64, 0
1, 524564, Note_on_c, 0, 59, 0
1, 524574, Note_on_c, 0, 74, 0
1, 524651, Note_on_c, 0, 53, 0
1, 524954, Control_c, 0, 64, 0
1, 525058, Note_on_c, 0, 76, 45
1, 525068, Note_on_c, 0, 64, 45
1, 525080, Note_on_c, 0, 68, 37
1, 525085, Note_on_c, 0, 72, 44
1, 525125, Note_on_c, 0, 52, 22
1, 525132, Note_on_c, 0, 62, 20
1, 525136, Note_on_c, 0, 58, 25
1, 525187, Control_c, 0, 64, 127
1, 525320, Note_on_c, 0, 72, 0
1, 525439, Note_on_c, 0, 62, 0
1, 525452, Note_on_c, 0, 64, 0
1, 525490, Note_on_c, 0, 52, 0
1, 525492, Note_on_c, 0, 76, 0
1, 525497, Note_on_c, 0, 68, 0
1, 525506, Note_on_c, 0, 58, 0
1, 525668, Note_on_c, 0, 72, 59
1, 525838, Note_on_c, 0, 72, 0
1, 525998, Note_on_c, 0, 73, 36
1, 526004, Control_c, 0, 64, 0
1, 526045, Note_on_c, 0, 63, 59
1, 526049, Note_on_c, 0, 73, 0
1, 526058, Note_on_c, 0, 57, 33
1, 526062, Note_on_c, 0, 71, 45
1, 526064, Note_on_c, 0, 74, 50
1, 526065, Note_on_c, 0, 67, 51
1, 526123, Note_on_c, 0, 72, 27
1, 526236, Note_on_c, 0, 57, 0
1, 526627, Note_on_c, 0, 41, 38
1, 526900, Note_on_c, 0, 41, 0
1, 527009, Note_on_c, 0, 48, 24
1, 527211, Note_on_c, 0, 48, 0
1, 527272, Note_on_c, 0, 55, 30
1, 527512, Note_on_c, 0, 55, 0
1, 527612, Note_on_c, 0, 57, 60
1, 528894, Control_c, 0, 64, 127
1, 528897, Note_on_c, 0, 60, 40
1, 528926, Note_on_c, 0, 57, 0
1, 529006, Note_on_c, 0, 71, 0
1, 529008, Note_on_c, 0, 74, 0
1, 529070, Note_on_c, 0, 60, 0
1, 529072, Note_on_c, 0, 67, 0
1, 529178, Note_on_c, 0, 63, 0
1, 529203, Note_on_c, 0, 72, 0
1, 529544, Note_on_c, 0, 53, 34
1, 529682, Control_c, 0, 64, 0
1, 529820, Note_on_c, 0, 53, 0
1, 529889, Note_on_c, 0, 65, 41
1, 529952, Control_c, 0, 64, 127
1, 530182, Control_c, 0, 64, 0
1, 530333, Note_on_c, 0, 65, 0
1, 530385, Note_on_c, 0, 77, 57
1, 530395, Note_on_c, 0, 65, 56
1, 530413, Note_on_c, 0, 62, 55
1, 530414, Note_on_c, 0, 72, 42
1, 530420, Note_on_c, 0, 60, 38
1, 530428, Control_c, 0, 64, 127
1, 530657, Note_on_c, 0, 62, 0
1, 530659, Note_on_c, 0, 65, 0
1, 530660, Note_on_c, 0, 60, 0
1, 530679, Note_on_c, 0, 77, 0
1, 530689, Note_on_c, 0, 72, 0
1, 530701, Control_c, 0, 64, 0
1, 530889, Control_c, 0, 64, 127
1, 530892, Note_on_c, 0, 77, 54
1, 530899, Note_on_c, 0, 62, 60
1, 530905, Note_on_c, 0, 72, 59
1, 530914, Note_on_c, 0, 65, 53
1, 530944, Note_on_c, 0, 60, 29
1, 530948, Note_on_c, 0, 62, 0
1, 531006, Note_on_c, 0, 60, 0
1, 531085, Note_on_c, 0, 77, 0
1, 531130, Note_on_c, 0, 72, 0
1, 531141, Note_on_c, 0, 65, 0
1, 531369, Note_on_c, 0, 40, 51
1, 531424, Note_on_c, 0, 40, 0
1, 531857, Control_c, 0, 64, 0
1, 531884, Note_on_c, 0, 61, 52
1, 531894, Note_on_c, 0, 55, 50
1, 531897, Note_on_c, 0, 65, 60
1, 531909, Note_on_c, 0, 69, 54
1, 532059, Control_c, 0, 64, 127
1, 532154, Note_on_c, 0, 55, 0
1, 532545, Note_on_c, 0, 65, 0
1, 532580, Note_on_c, 0, 61, 0
1, 532809, Control_c, 0, 64, 0
1, 532816, Note_on_c, 0, 57, 37
1, 532817, Note_on_c, 0, 61, 45
1, 532829, Note_on_c, 0, 65, 51
1, 532938, Control_c, 0, 64, 127
1, 533209, Note_on_c, 0, 61, 0
1, 533215, Note_on_c, 0, 69, 0
1, 533218, Note_on_c, 0, 57, 0
1, 533239, Note_on_c, 0, 65, 0
1, 533618, Control_c, 0, 64, 0
1, 533715, Note_on_c, 0, 45, 45
1, 533743, Note_on_c, 0, 69, 42
1, 533785, Note_on_c, 0, 45, 0
1, 533791, Control_c, 0, 64, 127
1, 533877, Note_on_c, 0, 69, 0
1, 534269, Note_on_c, 0, 72, 50
1, 534423, Note_on_c, 0, 72, 0
1, 534671, Control_c, 0, 64, 0
1, 534705, Note_on_c, 0, 72, 57
1, 534711, Note_on_c, 0, 61, 31
1, 534715, Note_on_c, 0, 65, 36
1, 534728, Note_on_c, 0, 55, 27
1, 534887, Note_on_c, 0, 72, 0
1, 534969, Note_on_c, 0, 69, 35
1, 535008, Note_on_c, 0, 65, 0
1, 535078, Note_on_c, 0, 69, 0
1, 535088, Note_on_c, 0, 55, 0
1, 535212, Note_on_c, 0, 75, 60
1, 535337, Note_on_c, 0, 76, 58
1, 535352, Note_on_c, 0, 75, 0
1, 535399, Note_on_c, 0, 61, 0
1, 535503, Note_on_c, 0, 76, 0
1, 535700, Note_on_c, 0, 64, 43
1, 535725, Note_on_c, 0, 54, 35
1, 535732, Note_on_c, 0, 60, 30
1, 536399, Note_on_c, 0, 64, 0
1, 536406, Note_on_c, 0, 60, 0
1, 536638, Note_on_c, 0, 64, 42
1, 536645, Note_on_c, 0, 74, 74
1, 536649, Note_on_c, 0, 60, 24
1, 536775, Note_on_c, 0, 74, 0
1, 536901, Note_on_c, 0, 74, 50
1, 537028, Note_on_c, 0, 74, 0
1, 537071, Note_on_c, 0, 60, 0
1, 537153, Note_on_c, 0, 75, 56
1, 537192, Note_on_c, 0, 64, 0
1, 537283, Note_on_c, 0, 75, 0
1, 537342, Note_on_c, 0, 54, 0
1, 537385, Note_on_c, 0, 76, 71
1, 537533, Note_on_c, 0, 76, 0
1, 537592, Note_on_c, 0, 64, 43
1, 537598, Note_on_c, 0, 59, 39
1, 537601, Note_on_c, 0, 77, 78
1, 537628, Note_on_c, 0, 53, 36
1, 537761, Control_c, 0, 64, 127
1, 538072, Note_on_c, 0, 74, 51
1, 538104, Note_on_c, 0, 53, 0
1, 538108, Note_on_c, 0, 64, 0
1, 538134, Note_on_c, 0, 59, 0
1, 538179, Note_on_c, 0, 77, 0
1, 538409, Control_c, 0, 64, 0
1, 538431, Note_on_c, 0, 74, 0
1, 538497, Note_on_c, 0, 62, 50
1, 538501, Note_on_c, 0, 58, 39
1, 538504, Note_on_c, 0, 76, 58
1, 538528, Note_on_c, 0, 52, 24
1, 538779, Note_on_c, 0, 76, 0
1, 538816, Note_on_c, 0, 72, 32
1, 538871, Control_c, 0, 64, 127
1, 538894, Note_on_c, 0, 52, 0
1, 538960, Note_on_c, 0, 58, 0
1, 539051, Note_on_c, 0, 62, 0
1, 539325, Note_on_c, 0, 72, 0
1, 539391, Control_c, 0, 64, 0
1, 539492, Note_on_c, 0, 67, 50
1, 539499, Note_on_c, 0, 63, 46
1, 539500, Note_on_c, 0, 74, 68
1, 539506, Note_on_c, 0, 57, 50
1, 539593, Control_c, 0, 64, 127
1, 539941, Note_on_c, 0, 67, 0
1, 539960, Note_on_c, 0, 57, 0
1, 539991, Note_on_c, 0, 71, 57
1, 540016, Note_on_c, 0, 74, 0
1, 540092, Note_on_c, 0, 63, 0
1, 540300, Control_c, 0, 64, 0
1, 540324, Note_on_c, 0, 71, 0
1, 540441, Note_on_c, 0, 67, 37
1, 540458, Note_on_c, 0, 72, 42
1, 540464, Note_on_c, 0, 56, 29
1, 540471, Note_on_c, 0, 62, 44
1, 540618, Control_c, 0, 64, 127
1, 540713, Note_on_c, 0, 69, 42
1, 540717, Note_on_c, 0, 72, 0
1, 540722, Note_on_c, 0, 67, 0
1, 540808, Note_on_c, 0, 62, 0
1, 541066, Note_on_c, 0, 56, 0
1, 541305, Note_on_c, 0, 69, 0
1, 541311, Control_c, 0, 64, 0
1, 541404, Note_on_c, 0, 65, 38
1, 541407, Note_on_c, 0, 61, 31
1, 541420, Note_on_c, 0, 70, 55
1, 541498, Control_c, 0, 64, 127
1, 541502, Note_on_c, 0, 65, 0
1, 541591, Note_on_c, 0, 61, 0
1, 542326, Note_on_c, 0, 61, 45
1, 542336, Note_on_c, 0, 39, 34
1, 542350, Control_c, 0, 64, 0
1, 542356, Note_on_c, 0, 27, 35
1, 542382, Note_on_c, 0, 65, 43
1, 542552, Control_c, 0, 64, 127
1, 542625, Control_c, 0, 64, 0
1, 542660, Note_on_c, 0, 65, 0
1, 542680, Note_on_c, 0, 61, 0
1, 542700, Note_on_c, 0, 39, 0
1, 542712, Note_on_c, 0, 27, 0
1, 542899, Control_c, 0, 64, 127
1, 542948, Note_on_c, 0, 61, 35
1, 542965, Note_on_c, 0, 39, 37
1, 542968, Note_on_c, 0, 65, 50
1, 542981, Note_on_c, 0, 27, 37
1, 543224, Note_on_c, 0, 65, 0
1, 543237, Note_on_c, 0, 27, 0
1, 543246, Note_on_c, 0, 70, 0
1, 543267, Note_on_c, 0, 61, 0
1, 543278, Note_on_c, 0, 39, 0
1, 543692, Control_c, 0, 64, 0
1, 543698, Note_on_c, 0, 65, 50
1, 543708, Note_on_c, 0, 61, 43
1, 543712, Note_on_c, 0, 60, 40
1, 543718, Note_on_c, 0, 55, 30
1, 543720, Note_on_c, 0, 39, 42
1, 543733, Note_on_c, 0, 27, 37
1, 543867, Control_c, 0, 64, 127
1, 543989, Note_on_c, 0, 60, 0
1, 544023, Note_on_c, 0, 55, 0
1, 544048, Note_on_c, 0, 61, 0
1, 544054, Note_on_c, 0, 27, 0
1, 544074, Note_on_c, 0, 65, 0
1, 544077, Note_on_c, 0, 39, 0
1, 544169, Control_c, 0, 64, 0
1, 544296, Note_on_c, 0, 39, 46
1, 544313, Note_on_c, 0, 61, 52
1, 544320, Note_on_c, 0, 65, 49
1, 544324, Note_on_c, 0, 60, 51
1, 544329, Control_c, 0, 64, 127
1, 544345, Note_on_c, 0, 55, 40
1, 544476, Note_on_c, 0, 39, 0
1, 544614, Note_on_c, 0, 55, 0
1, 544723, Note_on_c, 0, 60, 0
1, 544768, Note_on_c, 0, 65, 0
1, 544810, Note_on_c, 0, 61, 0
1, 544905, Control_c, 0, 64, 0
1, 544929, Note_on_c, 0, 50, 70
1, 544945, Note_on_c, 0, 38, 60
1, 544947, Note_on_c, 0, 60, 62
1, 544951, Note_on_c, 0, 65, 69
1, 544964, Note_on_c, 0, 57, 69
1, 544967, Note_on_c, 0, 62, 66
1, 545137, Control_c, 0, 64, 127
1, 545217, Note_on_c, 0, 38, 0
1, 545258, Note_on_c, 0, 57, 0
1, 545315, Note_on_c, 0, 50, 0
1, 545417, Note_on_c, 0, 65, 0
1, 545440, Note_on_c, 0, 62, 0
1, 545453, Note_on_c, 0, 60, 0
1, 546253, Note_on_c, 0, 65, 73
1, 546261, Control_c, 0, 64, 0
1, 546264, Note_on_c, 0, 69, 71
1, 546266, Note_on_c, 0, 60, 70
1, 546296, Note_on_c, 0, 59, 54
1, 546507, Control_c, 0, 64, 127
1, 546595, Note_on_c, 0, 59, 0
1, 546662, Note_on_c, 0, 60, 0
1, 546709, Note_on_c, 0, 69, 0
1, 546729, Note_on_c, 0, 65, 0
1, 546791, Note_on_c, 0, 55, 38
1, 546801, Note_on_c, 0, 67, 66
1, 546814, Note_on_c, 0, 60, 32
1, 546865, Note_on_c, 0, 55, 0
1, 546944, Note_on_c, 0, 60, 0
1, 547083, Control_c, 0, 64, 0
1, 547094, Note_on_c, 0, 67, 0
1, 547173, Note_on_c, 0, 65, 61
1, 547203, Note_on_c, 0, 59, 50
1, 547206, Note_on_c, 0, 43, 38
1, 547213, Note_on_c, 0, 53, 38
1, 547219, Note_on_c, 0, 62, 55
1, 547272, Control_c, 0, 64, 127
1, 547360, Note_on_c, 0, 43, 0
1, 547448, Note_on_c, 0, 59, 0
1, 547455, Note_on_c, 0, 53, 0
1, 547776, Note_on_c, 0, 65, 0
1, 547780, Note_on_c, 0, 62, 0
1, 548113, Note_on_c, 0, 65, 56
1, 548116, Note_on_c, 0, 69, 54
1, 548119, Note_on_c, 0, 57, 45
1, 548129, Note_on_c, 0, 62, 64
1, 548273, Note_on_c, 0, 57, 0
1, 548358, Note_on_c, 0, 62, 0
1, 548394, Note_on_c, 0, 65, 0
1, 548404, Note_on_c, 0, 69, 0
1, 549087, Note_on_c, 0, 70, 77
1, 549091, Control_c, 0, 64, 0
1, 549092, Note_on_c, 0, 72, 72
1, 549094, Note_on_c, 0, 65, 88
1, 549095, Note_on_c, 0, 62, 94
1, 549125, Note_on_c, 0, 60, 64
1, 549710, Control_c, 0, 64, 127
1, 549714, Note_on_c, 0, 48, 84
1, 550302, Note_on_c, 0, 48, 0
1, 550459, Note_on_c, 0, 48, 71
1, 550522, Note_on_c, 0, 62, 0
1, 550552, Note_on_c, 0, 65, 0
1, 550637, Note_on_c, 0, 60, 0
1, 550829, Note_on_c, 0, 72, 0
1, 550901, Note_on_c, 0, 70, 0
1, 551009, Control_c, 0, 64, 0
1, 551031, Note_on_c, 0, 68, 62
1, 551032, Note_on_c, 0, 58, 52
1, 551035, Note_on_c, 0, 72, 57
1, 551046, Note_on_c, 0, 60, 47
1, 551048, Note_on_c, 0, 64, 54
1, 551212, Control_c, 0, 64, 127
1, 551336, Note_on_c, 0, 58, 0
1, 551460, Note_on_c, 0, 48, 0
1, 551658, Note_on_c, 0, 48, 71
1, 552080, Note_on_c, 0, 48, 0
1, 552285, Note_on_c, 0, 48, 72
1, 552456, Note_on_c, 0, 60, 0
1, 552475, Note_on_c, 0, 64, 0
1, 552567, Note_on_c, 0, 68, 0
1, 552701, Note_on_c, 0, 72, 0
1, 552843, Control_c, 0, 64, 0
1, 552897, Note_on_c, 0, 72, 50
1, 552903, Note_on_c, 0, 67, 57
1, 552908, Note_on_c, 0, 60, 50
1, 552910, Note_on_c, 0, 57, 60
1, 552928, Note_on_c, 0, 64, 39
1, 552931, Note_on_c, 0, 69, 47
1, 552960, Control_c, 0, 64, 127
1, 553031, Control_c, 0, 64, 127
1, 553168, Control_c, 0, 64, 0
1, 553176, Note_on_c, 0, 64, 0
1, 553227, Note_on_c, 0, 48, 0
1, 553260, Note_on_c, 0, 67, 0
1, 553265, Note_on_c, 0, 69, 0
1, 553287, Note_on_c, 0, 72, 0
1, 553512, Note_on_c, 0, 57, 0
1, 553551, Control_c, 0, 64, 0
1, 553556, Note_on_c, 0, 48, 69
1, 553572, Note_on_c, 0, 74, 85
1, 553576, Note_on_c, 0, 69, 90
1, 553637, Note_on_c, 0, 60, 0
1, 553752, Control_c, 0, 64, 127
1, 553898, Note_on_c, 0, 69, 0
1, 554024, Note_on_c, 0, 74, 0
1, 554154, Note_on_c, 0, 72, 68
1, 554170, Note_on_c, 0, 69, 69
1, 554173, Note_on_c, 0, 60, 41
1, 554188, Note_on_c, 0, 65, 65
1, 554394, Note_on_c, 0, 60, 0
1, 554399, Note_on_c, 0, 69, 0
1, 554439, Note_on_c, 0, 65, 0
1, 554442, Note_on_c, 0, 72, 0
1, 554792, Control_c, 0, 64, 0
1, 554812, Note_on_c, 0, 70, 60
1, 554834, Note_on_c, 0, 62, 53
1, 554835, Note_on_c, 0, 65, 53
1, 554845, Note_on_c, 0, 60, 51
1, 554888, Note_on_c, 0, 67, 24
1, 555065, Control_c, 0, 64, 127
1, 555369, Note_on_c, 0, 48, 0
1, 555372, Note_on_c, 0, 62, 0
1, 555395, Note_on_c, 0, 65, 0
1, 555702, Control_c, 0, 64, 0
1, 555787, Control_c, 0, 64, 127
1, 555852, Note_on_c, 0, 48, 44
1, 555984, Note_on_c, 0, 60, 0
1, 556098, Note_on_c, 0, 48, 0
1, 556229, Note_on_c, 0, 70, 0
1, 556261, Note_on_c, 0, 67, 0
1, 556409, Note_on_c, 0, 69, 55
1, 556726, Control_c, 0, 64, 0
1, 556775, Note_on_c, 0, 69, 0
1, 556834, Note_on_c, 0, 46, 31
1, 556842, Control_c, 0, 64, 127
1, 556844, Note_on_c, 0, 67, 44
1, 556850, Note_on_c, 0, 62, 41
1, 556904, Note_on_c, 0, 62, 0
1, 556936, Note_on_c, 0, 53, 17
1, 556995, Note_on_c, 0, 67, 0
1, 557011, Note_on_c, 0, 46, 0
1, 557018, Note_on_c, 0, 53, 0
1, 557495, Note_on_c, 0, 79, 74
1, 557499, Note_on_c, 0, 78, 60
1, 557500, Note_on_c, 0, 67, 75
1, 557512, Note_on_c, 0, 66, 53
1, 557519, Control_c, 0, 64, 0
1, 557636, Note_on_c, 0, 78, 0
1, 557679, Control_c, 0, 64, 127
1, 557709, Note_on_c, 0, 66, 0
1, 557948, Note_on_c, 0, 67, 0
1, 558082, Control_c, 0, 64, 0
1, 558110, Note_on_c, 0, 77, 67
1, 558111, Note_on_c, 0, 65, 57
1, 558156, Control_c, 0, 64, 127
1, 558180, Note_on_c, 0, 79, 0
1, 558660, Control_c, 0, 64, 127
1, 558704, Control_c, 0, 64, 0
1, 558735, Note_on_c, 0, 76, 64
1, 558737, Note_on_c, 0, 64, 54
1, 558762, Note_on_c, 0, 65, 0
1, 558805, Note_on_c, 0, 77, 0
1, 558819, Control_c, 0, 64, 127
1, 559395, Note_on_c, 0, 74, 58
1, 559426, Note_on_c, 0, 62, 44
1, 559457, Note_on_c, 0, 64, 0
1, 559614, Note_on_c, 0, 62, 0
1, 559741, Note_on_c, 0, 74, 0
1, 559784, Note_on_c, 0, 76, 0
1, 560360, Control_c, 0, 64, 0
1, 560543, Note_on_c, 0, 46, 70
1, 561711, Note_on_c, 0, 53, 36
1, 561751, Note_on_c, 0, 65, 94
1, 561858, Control_c, 0, 64, 127
1, 562235, Note_on_c, 0, 62, 71
1, 562280, Note_on_c, 0, 65, 0
1, 562477, Note_on_c, 0, 62, 0
1, 562798, Note_on_c, 0, 57, 58
1, 562803, Note_on_c, 0, 69, 84
1, 563142, Note_on_c, 0, 69, 0
1, 563448, Note_on_c, 0, 46, 0
1, 563523, Note_on_c, 0, 72, 89
1, 563634, Note_on_c, 0, 53, 0
1, 563730, Note_on_c, 0, 57, 0
1, 563841, Note_on_c, 0, 72, 0
1, 564158, Note_on_c, 0, 72, 74
1, 564173, Note_on_c, 0, 71, 74
1, 564229, Note_on_c, 0, 71, 0
1, 564350, Note_on_c, 0, 72, 0
1, 564924, Control_c, 0, 64, 0
1, 564965, Note_on_c, 0, 77, 82
1, 564966, Note_on_c, 0, 30, 57
1, 564968, Note_on_c, 0, 72, 89
1, 564992, Note_on_c, 0, 42, 39
1, 565166, Note_on_c, 0, 30, 0
1, 565245, Control_c, 0, 64, 127
1, 565247, Note_on_c, 0, 42, 0
1, 565820, Note_on_c, 0, 70, 55
1, 565909, Note_on_c, 0, 72, 0
1, 565946, Note_on_c, 0, 54, 34
1, 565976, Note_on_c, 0, 70, 0
1, 566074, Note_on_c, 0, 77, 0
1, 566571, Note_on_c, 0, 89, 55
1, 566581, Note_on_c, 0, 77, 48
1, 566598, Note_on_c, 0, 58, 43
1, 566709, Note_on_c, 0, 77, 0
1, 566804, Note_on_c, 0, 89, 0
1, 567349, Note_on_c, 0, 60, 31
1, 567359, Note_on_c, 0, 101, 53
1, 567402, Note_on_c, 0, 89, 28
1, 567827, Note_on_c, 0, 89, 0
1, 567975, Note_on_c, 0, 101, 0
1, 568348, Note_on_c, 0, 89, 32
1, 568352, Note_on_c, 0, 101, 36
1, 568400, Note_on_c, 0, 65, 35
1, 569454, Note_on_c, 0, 101, 0
1, 569728, Note_on_c, 0, 89, 0
1, 570060, Note_on_c, 0, 60, 0
1, 570190, Note_on_c, 0, 65, 0
1, 570200, Note_on_c, 0, 54, 0
1, 570317, Note_on_c, 0, 58, 0
1, 570905, Note_on_c, 0, 61, 46
1, 570964, Note_on_c, 0, 75, 60
1, 570967, Note_on_c, 0, 63, 52
1, 571073, Note_on_c, 0, 76, 75
1, 571075, Note_on_c, 0, 64, 83
1, 571157, Note_on_c, 0, 61, 0
1, 571169, Note_on_c, 0, 75, 0
1, 571174, Control_c, 0, 64, 0
1, 571176, Note_on_c, 0, 63, 0
1, 571443, Control_c, 0, 64, 127
1, 571823, Note_on_c, 0, 72, 73
1, 571853, Note_on_c, 0, 60, 53
1, 571896, Note_on_c, 0, 76, 0
1, 571938, Note_on_c, 0, 64, 0
1, 572041, Note_on_c, 0, 60, 0
1, 572547, Note_on_c, 0, 72, 0
1, 572841, Control_c, 0, 64, 0
1, 572876, Note_on_c, 0, 34, 78
1, 572881, Note_on_c, 0, 79, 91
1, 573027, Control_c, 0, 64, 127
1, 573118, Note_on_c, 0, 34, 0
1, 573845, Note_on_c, 0, 58, 80
1, 573860, Note_on_c, 0, 79, 0
1, 574511, Note_on_c, 0, 60, 75
1, 574722, Note_on_c, 0, 58, 0
1, 574883, Note_on_c, 0, 60, 0
1, 574912, Note_on_c, 0, 64, 66
1, 575161, Note_on_c, 0, 64, 0
1, 575270, Note_on_c, 0, 70, 71
1, 575566, Note_on_c, 0, 70, 0
1, 575609, Note_on_c, 0, 67, 62
1, 575807, Note_on_c, 0, 67, 0
1, 575900, Note_on_c, 0, 72, 62
1, 576152, Note_on_c, 0, 76, 58
1, 576179, Note_on_c, 0, 72, 0
1, 576303, Note_on_c, 0, 76, 0
1, 576328, Note_on_c, 0, 82, 52
1, 576473, Note_on_c, 0, 82, 0
1, 576607, Note_on_c, 0, 79, 44
1, 576733, Note_on_c, 0, 79, 0
1, 576755, Note_on_c, 0, 84, 60
1, 576903, Note_on_c, 0, 84, 0
1, 576910, Note_on_c, 0, 88, 59
1, 576994, Note_on_c, 0, 88, 0
1, 577051, Note_on_c, 0, 94, 60
1, 577188, Note_on_c, 0, 91, 34
1, 577237, Note_on_c, 0, 94, 0
1, 577314, Note_on_c, 0, 96, 41
1, 577491, Note_on_c, 0, 103, 74
1, 578742, Note_on_c, 0, 103, 0
1, 578937, Note_on_c, 0, 96, 0
1, 578998, Note_on_c, 0, 91, 0
1, 580095, Note_on_c, 0, 63, 49
1, 580133, Note_on_c, 0, 64, 80
1, 580154, Note_on_c, 0, 76, 87
1, 580192, Note_on_c, 0, 61, 23
1, 580249, Note_on_c, 0, 61, 0
1, 580283, Control_c, 0, 64, 0
1, 580300, Note_on_c, 0, 63, 0
1, 580503, Control_c, 0, 64, 127
1, 581958, Note_on_c, 0, 72, 61
1, 581987, Note_on_c, 0, 60, 49
1, 582018, Note_on_c, 0, 64, 0
1, 582027, Note_on_c, 0, 76, 0
1, 582771, Note_on_c, 0, 72, 0
1, 583866, Note_on_c, 0, 60, 0
1, 584056, Note_on_c, 0, 84, 73
1, 584073, Control_c, 0, 64, 0
1, 584075, Note_on_c, 0, 76, 66
1, 584080, Note_on_c, 0, 53, 35
1, 584392, Control_c, 0, 64, 127
1, 584643, Note_on_c, 0, 84, 0
1, 584732, Note_on_c, 0, 60, 34
1, 584755, Note_on_c, 0, 76, 0
1, 585333, Note_on_c, 0, 81, 67
1, 585341, Note_on_c, 0, 72, 52
1, 585347, Note_on_c, 0, 65, 45
1, 585652, Note_on_c, 0, 53, 0
1, 585864, Note_on_c, 0, 81, 0
1, 585951, Note_on_c, 0, 53, 42
1, 585992, Note_on_c, 0, 72, 0
1, 586344, Note_on_c, 0, 53, 0
1, 586553, Note_on_c, 0, 65, 0
1, 586667, Note_on_c, 0, 80, 60
1, 586717, Note_on_c, 0, 76, 70
1, 586733, Note_on_c, 0, 60, 0
1, 586748, Note_on_c, 0, 71, 66
1, 586766, Control_c, 0, 64, 0
1, 586769, Note_on_c, 0, 53, 32
1, 587105, Control_c, 0, 64, 127
1, 587477, Note_on_c, 0, 76, 0
1, 587492, Note_on_c, 0, 59, 32
1, 587611, Note_on_c, 0, 80, 0
1, 587613, Note_on_c, 0, 71, 0
1, 588275, Note_on_c, 0, 68, 38
1, 588295, Note_on_c, 0, 71, 36
1, 588329, Note_on_c, 0, 64, 37
1, 588959, Note_on_c, 0, 59, 0
1, 589548, Note_on_c, 0, 68, 0
1, 589604, Note_on_c, 0, 71, 0
1, 590252, Note_on_c, 0, 59, 25
1, 590514, Note_on_c, 0, 53, 0
1, 591267, Note_on_c, 0, 53, 36
1, 591272, Note_on_c, 0, 84, 76
1, 591275, Note_on_c, 0, 77, 77
1, 591297, Control_c, 0, 64, 0
1, 591309, Note_on_c, 0, 59, 0
1, 591342, Note_on_c, 0, 64, 0
1, 591549, Control_c, 0, 64, 127
1, 591697, Note_on_c, 0, 84, 0
1, 591806, Note_on_c, 0, 81, 36
1, 591836, Note_on_c, 0, 60, 33
1, 591840, Note_on_c, 0, 72, 38
1, 591890, Note_on_c, 0, 77, 0
1, 592075, Note_on_c, 0, 72, 0
1, 592198, Note_on_c, 0, 81, 0
1, 592465, Note_on_c, 0, 65, 35
1, 592490, Note_on_c, 0, 84, 69
1, 592493, Note_on_c, 0, 77, 72
1, 592633, Note_on_c, 0, 60, 0
1, 592858, Note_on_c, 0, 84, 0
1, 592883, Note_on_c, 0, 77, 0
1, 592989, Note_on_c, 0, 81, 43
1, 592992, Note_on_c, 0, 60, 34
1, 593009, Note_on_c, 0, 72, 37
1, 593027, Note_on_c, 0, 77, 34
1, 593197, Note_on_c, 0, 77, 0
1, 593214, Note_on_c, 0, 53, 0
1, 593296, Note_on_c, 0, 81, 0
1, 593419, Note_on_c, 0, 72, 0
1, 593481, Note_on_c, 0, 65, 0
1, 593533, Note_on_c, 0, 60, 0
1, 593542, Note_on_c, 0, 53, 34
1, 593543, Note_on_c, 0, 76, 61
1, 593552, Note_on_c, 0, 83, 62
1, 593575, Control_c, 0, 64, 0
1, 593911, Control_c, 0, 64, 127
1, 594182, Note_on_c, 0, 59, 33
1, 594434, Note_on_c, 0, 76, 0
1, 594921, Note_on_c, 0, 80, 23
1, 594949, Note_on_c, 0, 71, 35
1, 594966, Note_on_c, 0, 76, 32
1, 594995, Note_on_c, 0, 64, 35
1, 595615, Note_on_c, 0, 53, 0
1, 595867, Note_on_c, 0, 53, 44
1, 595959, Note_on_c, 0, 83, 0
1, 596208, Note_on_c, 0, 76, 0
1, 596282, Note_on_c, 0, 71, 0
1, 596325, Note_on_c, 0, 53, 0
1, 596562, Note_on_c, 0, 80, 0
1, 596676, Note_on_c, 0, 64, 0
1, 596718, Note_on_c, 0, 82, 75
1, 596740, Control_c, 0, 64, 0
1, 596752, Note_on_c, 0, 75, 82
1, 596762, Note_on_c, 0, 79, 66
1, 596765, Note_on_c, 0, 70, 79
1, 596776, Note_on_c, 0, 53, 54
1, 596809, Note_on_c, 0, 59, 0
1, 597162, Control_c, 0, 64, 127
1, 597453, Note_on_c, 0, 58, 62
1, 597777, Note_on_c, 0, 75, 0
1, 597854, Note_on_c, 0, 70, 0
1, 598073, Note_on_c, 0, 82, 0
1, 598076, Note_on_c, 0, 79, 0
1, 598104, Note_on_c, 0, 75, 67
1, 598115, Note_on_c, 0, 70, 64
1, 598126, Note_on_c, 0, 63, 46
1, 598358, Note_on_c, 0, 53, 0
1, 598481, Note_on_c, 0, 70, 0
1, 598661, Note_on_c, 0, 75, 0
1, 598724, Note_on_c, 0, 82, 67
1, 598733, Note_on_c, 0, 53, 53
1, 598750, Note_on_c, 0, 75, 79
1, 598753, Note_on_c, 0, 70, 71
1, 599030, Note_on_c, 0, 70, 0
1, 599075, Note_on_c, 0, 53, 0
1, 599121, Note_on_c, 0, 82, 0
1, 599250, Note_on_c, 0, 75, 0
1, 599274, Note_on_c, 0, 63, 0
1, 599302, Note_on_c, 0, 58, 0
1, 599529, Note_on_c, 0, 81, 75
1, 599536, Note_on_c, 0, 74, 84
1, 599539, Note_on_c, 0, 78, 72
1, 599544, Note_on_c, 0, 69, 81
1, 599563, Note_on_c, 0, 53, 53
1, 599571, Control_c, 0, 64, 0
1, 599601, Note_on_c, 0, 79, 35
1, 599667, Note_on_c, 0, 79, 0
1, 600125, Control_c, 0, 64, 127
1, 600406, Note_on_c, 0, 57, 54
1, 600976, Note_on_c, 0, 74, 0
1, 601004, Note_on_c, 0, 69, 0
1, 601150, Note_on_c, 0, 78, 0
1, 601464, Note_on_c, 0, 74, 36
1, 601480, Note_on_c, 0, 69, 26
1, 601488, Note_on_c, 0, 62, 31
1, 601495, Note_on_c, 0, 78, 18
1, 602059, Note_on_c, 0, 57, 0
1, 603015, Note_on_c, 0, 53, 0
1, 603267, Note_on_c, 0, 53, 35
1, 603502, Note_on_c, 0, 69, 0
1, 603569, Note_on_c, 0, 74, 0
1, 603682, Note_on_c, 0, 81, 0
1, 603717, Note_on_c, 0, 53, 0
1, 603788, Note_on_c, 0, 78, 0
1, 603953, Note_on_c, 0, 62, 0
1, 604635, Note_on_c, 0, 53, 22
1, 604660, Note_on_c, 0, 58, 43
1, 604687, Note_on_c, 0, 70, 37
1, 604737, Note_on_c, 0, 75, 59
1, 604798, Note_on_c, 0, 63, 34
1, 604823, Control_c, 0, 64, 0
1, 604858, Note_on_c, 0, 82, 62
1, 605564, Control_c, 0, 64, 127
1, 605742, Note_on_c, 0, 82, 0
1, 605769, Note_on_c, 0, 63, 0
1, 605952, Note_on_c, 0, 82, 62
1, 605980, Note_on_c, 0, 63, 32
1, 606525, Note_on_c, 0, 70, 0
1, 606602, Note_on_c, 0, 75, 0
1, 606604, Note_on_c, 0, 82, 0
1, 606619, Note_on_c, 0, 63, 0
1, 607198, Note_on_c, 0, 63, 33
1, 607203, Note_on_c, 0, 82, 45
1, 607234, Note_on_c, 0, 75, 44
1, 607250, Note_on_c, 0, 70, 25
1, 607467, Note_on_c, 0, 53, 0
1, 608373, Note_on_c, 0, 82, 0
1, 608680, Note_on_c, 0, 82, 46
1, 608724, Note_on_c, 0, 53, 24
1, 608875, Note_on_c, 0, 63, 0
1, 609184, Note_on_c, 0, 53, 0
1, 609376, Note_on_c, 0, 70, 0
1, 609636, Note_on_c, 0, 82, 0
1, 609638, Note_on_c, 0, 58, 0
1, 609896, Note_on_c, 0, 75, 0
1, 610975, Note_on_c, 0, 53, 38
1, 610987, Note_on_c, 0, 69, 46
1, 610988, Note_on_c, 0, 74, 52
1, 610992, Note_on_c, 0, 81, 48
1, 611007, Note_on_c, 0, 78, 38
1, 611037, Control_c, 0, 64, 0
1, 611442, Control_c, 0, 64, 127
1, 612694, Note_on_c, 0, 57, 37
1, 612796, Note_on_c, 0, 74, 0
1, 612818, Note_on_c, 0, 81, 0
1, 612823, Note_on_c, 0, 69, 0
1, 612862, Note_on_c, 0, 78, 0
1, 613330, Note_on_c, 0, 62, 33
1, 614071, Note_on_c, 0, 66, 21
1, 614775, Note_on_c, 0, 66, 0
1, 614851, Note_on_c, 0, 65, 28
1, 615262, Note_on_c, 0, 65, 0
1, 615400, Note_on_c, 0, 69, 27
1, 615741, Note_on_c, 0, 69, 0
1, 615815, Note_on_c, 0, 74, 34
1, 616032, Note_on_c, 0, 74, 0
1, 616232, Note_on_c, 0, 78, 46
1, 616615, Note_on_c, 0, 78, 0
1, 616630, Note_on_c, 0, 77, 45
1, 617260, Note_on_c, 0, 86, 46
1, 618659, Note_on_c, 0, 77, 0
1, 618673, Note_on_c, 0, 81, 22
1, 618688, Note_on_c, 0, 86, 0
1, 618819, Note_on_c, 0, 81, 0
1, 619624, Note_on_c, 0, 101, 36
1, 620369, Note_on_c, 0, 57, 0
1, 620385, Note_on_c, 0, 62, 0
1, 620453, Note_on_c, 0, 101, 0
1, 620467, Note_on_c, 0, 53, 0
1, 620467, End_track
0, 0, End_of_file
