0, 0, Header, 1, 3, 120
1, 0, Start_track
1, 0, Title_t, "Strollin'"
1, 0, Text_t, "By Horace Silver\012"
1, 0, Text_t, "Lead sheet is in 'New Real Book' Volume 2 (Sher Music) p 353. Several good solo piano versions are Tommy Flanagan's (on his CD 'Alone too Long')  and Alan Broadbent on his Maybeck Hall CD.\012"
1, 0, Time_signature, 4, 2, 24, 8
1, 0, Key_signature, -5, "major"
1, 0, Tempo, 428571
1, 0, Marker_t, "Run on Ab13b9#11"
1, 305, Marker_t, "LH plays Black notes (Gb&Ab): RH plays white (A,C,D,E)"
1, 1924, Marker_t, "In tempo"
1, 2009, Marker_t, "Drop 2 Locked hands style"
1, 2404, Marker_t, "On non chord tones play a diminished chord"
1, 10920, Marker_t, "Db Major Scale over Ebm7"
1, 18753, Marker_t, "This figure based on successive triplets with pairs of notes from the Db Major scale approached from beneath by a chromatic leading tone."
1, 27840, Marker_t, "On Abm7, descending Gb Major scale, with some black notes played with another black note a fourth above"
1, 28507, Marker_t, "On C7 a diminished scale"
1, 48480, Marker_t, "C/Db Bass"
1, 48480, End_track
2, 0, Start_track
2, 0, Title_t, ""
2, 0, Control_c, 0, 64, 127
2, 94, Note_on_c, 0, 44, 91
2, 94, Note_on_c, 0, 32, 81
2, 110, Control_c, 0, 64, 0
2, 152, Control_c, 0, 64, 127
2, 190, Note_on_c, 0, 32, 0
2, 193, Note_on_c, 0, 44, 0
2, 316, Note_on_c, 0, 54, 52
2, 340, Note_on_c, 0, 56, 50
2, 353, Note_on_c, 0, 54, 0
2, 360, Note_on_c, 0, 56, 0
2, 367, Note_on_c, 0, 57, 56
2, 391, Note_on_c, 0, 60, 66
2, 397, Note_on_c, 0, 57, 0
2, 407, Note_on_c, 0, 62, 65
2, 424, Note_on_c, 0, 60, 0
2, 426, Note_on_c, 0, 65, 54
2, 436, Note_on_c, 0, 62, 0
2, 436, Note_on_c, 0, 66, 52
2, 439, Note_on_c, 0, 65, 0
2, 455, Note_on_c, 0, 68, 34
2, 478, Note_on_c, 0, 69, 61
2, 479, Note_on_c, 0, 66, 0
2, 481, Note_on_c, 0, 68, 0
2, 497, Note_on_c, 0, 72, 51
2, 504, Note_on_c, 0, 69, 0
2, 508, Note_on_c, 0, 74, 61
2, 530, Note_on_c, 0, 72, 0
2, 530, Note_on_c, 0, 77, 51
2, 538, Note_on_c, 0, 74, 0
2, 542, Note_on_c, 0, 77, 0
2, 544, Note_on_c, 0, 78, 51
2, 561, Note_on_c, 0, 80, 32
2, 579, Note_on_c, 0, 78, 0
2, 585, Note_on_c, 0, 80, 0
2, 587, Note_on_c, 0, 81, 44
2, 598, Note_on_c, 0, 84, 68
2, 610, Note_on_c, 0, 86, 71
2, 611, Note_on_c, 0, 81, 0
2, 631, Note_on_c, 0, 89, 66
2, 634, Note_on_c, 0, 84, 0
2, 641, Note_on_c, 0, 86, 0
2, 644, Note_on_c, 0, 90, 58
2, 646, Note_on_c, 0, 89, 0
2, 661, Note_on_c, 0, 92, 56
2, 675, Note_on_c, 0, 90, 0
2, 682, Note_on_c, 0, 93, 48
2, 683, Note_on_c, 0, 92, 0
2, 699, Note_on_c, 0, 96, 53
2, 720, Note_on_c, 0, 98, 71
2, 735, Note_on_c, 0, 101, 65
2, 753, Note_on_c, 0, 104, 95
2, 786, Note_on_c, 0, 96, 0
2, 793, Note_on_c, 0, 98, 0
2, 795, Note_on_c, 0, 93, 0
2, 795, Note_on_c, 0, 101, 0
2, 834, Note_on_c, 0, 104, 0
2, 1207, Note_on_c, 0, 65, 57
2, 1207, Note_on_c, 0, 39, 37
2, 1212, Note_on_c, 0, 51, 21
2, 1212, Note_on_c, 0, 61, 38
2, 1213, Control_c, 0, 64, 0
2, 1213, Note_on_c, 0, 54, 36
2, 1214, Note_on_c, 0, 58, 37
2, 1237, Control_c, 0, 64, 127
2, 1246, Note_on_c, 0, 51, 0
2, 1265, Note_on_c, 0, 39, 0
2, 1302, Note_on_c, 0, 61, 0
2, 1309, Note_on_c, 0, 54, 0
2, 1322, Note_on_c, 0, 58, 0
2, 1332, Note_on_c, 0, 65, 0
2, 1429, Control_c, 0, 64, 0
2, 1430, Note_on_c, 0, 65, 40
2, 1432, Note_on_c, 0, 54, 29
2, 1433, Note_on_c, 0, 38, 34
2, 1435, Note_on_c, 0, 26, 38
2, 1436, Note_on_c, 0, 57, 38
2, 1441, Note_on_c, 0, 60, 38
2, 1475, Control_c, 0, 64, 127
2, 1530, Note_on_c, 0, 38, 0
2, 1531, Note_on_c, 0, 57, 0
2, 1531, Note_on_c, 0, 65, 0
2, 1532, Note_on_c, 0, 26, 0
2, 1534, Note_on_c, 0, 60, 0
2, 1546, Note_on_c, 0, 54, 0
2, 1685, Note_on_c, 0, 63, 29
2, 1686, Control_c, 0, 64, 0
2, 1687, Note_on_c, 0, 25, 29
2, 1688, Note_on_c, 0, 37, 30
2, 1689, Note_on_c, 0, 56, 30
2, 1689, Note_on_c, 0, 53, 29
2, 1690, Note_on_c, 0, 60, 39
2, 1744, Control_c, 0, 64, 127
2, 1847, Note_on_c, 0, 53, 0
2, 1853, Note_on_c, 0, 60, 0
2, 1855, Note_on_c, 0, 56, 0
2, 1859, Note_on_c, 0, 63, 0
2, 1863, Note_on_c, 0, 25, 0
2, 1864, Note_on_c, 0, 37, 0
2, 2004, Note_on_c, 0, 75, 62
2, 2005, Note_on_c, 0, 68, 64
2, 2006, Note_on_c, 0, 72, 56
2, 2007, Note_on_c, 0, 65, 68
2, 2007, Note_on_c, 0, 60, 54
2, 2026, Control_c, 0, 64, 0
2, 2056, Control_c, 0, 64, 127
2, 2121, Note_on_c, 0, 72, 0
2, 2130, Note_on_c, 0, 65, 0
2, 2131, Note_on_c, 0, 68, 0
2, 2133, Note_on_c, 0, 75, 0
2, 2164, Control_c, 0, 64, 0
2, 2166, Note_on_c, 0, 74, 57
2, 2166, Note_on_c, 0, 68, 35
2, 2167, Note_on_c, 0, 60, 0
2, 2167, Note_on_c, 0, 65, 48
2, 2168, Note_on_c, 0, 71, 34
2, 2169, Note_on_c, 0, 59, 37
2, 2182, Note_on_c, 0, 59, 0
2, 2182, Note_on_c, 0, 71, 0
2, 2183, Note_on_c, 0, 65, 0
2, 2184, Note_on_c, 0, 74, 0
2, 2192, Note_on_c, 0, 68, 0
2, 2269, Control_c, 0, 64, 127
2, 2273, Control_c, 0, 64, 0
2, 2283, Note_on_c, 0, 73, 37
2, 2284, Note_on_c, 0, 58, 40
2, 2285, Note_on_c, 0, 68, 39
2, 2287, Note_on_c, 0, 65, 36
2, 2300, Note_on_c, 0, 65, 0
2, 2304, Note_on_c, 0, 58, 0
2, 2311, Note_on_c, 0, 68, 0
2, 2312, Note_on_c, 0, 73, 0
2, 2347, Control_c, 0, 64, 127
2, 2398, Control_c, 0, 64, 0
2, 2404, Note_on_c, 0, 72, 32
2, 2404, Note_on_c, 0, 57, 38
2, 2404, Note_on_c, 0, 63, 30
2, 2405, Note_on_c, 0, 66, 45
2, 2406, Note_on_c, 0, 69, 36
2, 2426, Note_on_c, 0, 66, 0
2, 2429, Note_on_c, 0, 57, 0
2, 2433, Note_on_c, 0, 72, 0
2, 2433, Note_on_c, 0, 63, 0
2, 2440, Note_on_c, 0, 69, 0
2, 2465, Control_c, 0, 64, 127
2, 2519, Control_c, 0, 64, 0
2, 2525, Note_on_c, 0, 73, 46
2, 2526, Note_on_c, 0, 58, 38
2, 2530, Note_on_c, 0, 68, 44
2, 2531, Note_on_c, 0, 65, 45
2, 2549, Control_c, 0, 64, 127
2, 2552, Note_on_c, 0, 65, 0
2, 2559, Note_on_c, 0, 68, 0
2, 2561, Note_on_c, 0, 58, 0
2, 2562, Control_c, 0, 64, 0
2, 2564, Note_on_c, 0, 73, 0
2, 2654, Note_on_c, 0, 77, 69
2, 2655, Note_on_c, 0, 72, 58
2, 2656, Note_on_c, 0, 61, 56
2, 2656, Note_on_c, 0, 65, 69
2, 2667, Control_c, 0, 64, 127
2, 2689, Note_on_c, 0, 65, 0
2, 2697, Note_on_c, 0, 72, 0
2, 2700, Note_on_c, 0, 77, 0
2, 2722, Note_on_c, 0, 61, 0
2, 2771, Note_on_c, 0, 80, 53
2, 2772, Note_on_c, 0, 75, 50
2, 2773, Note_on_c, 0, 68, 34
2, 2782, Note_on_c, 0, 68, 0
2, 2789, Note_on_c, 0, 75, 0
2, 2792, Note_on_c, 0, 80, 0
2, 2883, Note_on_c, 0, 40, 13
2, 2884, Control_c, 0, 64, 0
2, 2888, Note_on_c, 0, 47, 24
2, 2891, Note_on_c, 0, 74, 60
2, 2891, Note_on_c, 0, 81, 62
2, 2893, Note_on_c, 0, 69, 39
2, 2906, Note_on_c, 0, 81, 0
2, 2906, Control_c, 0, 64, 127
2, 2910, Note_on_c, 0, 74, 0
2, 2916, Note_on_c, 0, 69, 0
2, 2934, Note_on_c, 0, 47, 0
2, 2967, Note_on_c, 0, 59, 31
2, 2968, Note_on_c, 0, 47, 36
2, 2999, Note_on_c, 0, 59, 0
2, 3002, Note_on_c, 0, 40, 0
2, 3011, Note_on_c, 0, 47, 0
2, 3011, Control_c, 0, 64, 0
2, 3011, Note_on_c, 0, 55, 66
2, 3011, Note_on_c, 0, 59, 44
2, 3012, Note_on_c, 0, 62, 71
2, 3013, Note_on_c, 0, 50, 36
2, 3036, Control_c, 0, 64, 127
2, 3037, Note_on_c, 0, 59, 0
2, 3038, Note_on_c, 0, 50, 0
2, 3064, Note_on_c, 0, 55, 0
2, 3076, Note_on_c, 0, 62, 0
2, 3088, Control_c, 0, 64, 0
2, 3088, Note_on_c, 0, 61, 53
2, 3089, Note_on_c, 0, 55, 52
2, 3092, Note_on_c, 0, 45, 48
2, 3092, Note_on_c, 0, 58, 53
2, 3136, Control_c, 0, 64, 127
2, 3222, Note_on_c, 0, 55, 0
2, 3232, Note_on_c, 0, 61, 0
2, 3232, Note_on_c, 0, 58, 0
2, 3250, Note_on_c, 0, 45, 0
2, 3256, Note_on_c, 0, 61, 71
2, 3258, Control_c, 0, 64, 0
2, 3259, Note_on_c, 0, 49, 38
2, 3283, Note_on_c, 0, 49, 0
2, 3283, Control_c, 0, 64, 127
2, 3306, Note_on_c, 0, 61, 0
2, 3329, Control_c, 0, 64, 0
2, 3330, Note_on_c, 0, 60, 84
2, 3336, Note_on_c, 0, 39, 38
2, 3353, Control_c, 0, 64, 127
2, 3368, Note_on_c, 0, 39, 0
2, 3378, Note_on_c, 0, 60, 0
2, 3448, Note_on_c, 0, 66, 68
2, 3449, Note_on_c, 0, 68, 55
2, 3449, Note_on_c, 0, 72, 59
2, 3449, Note_on_c, 0, 61, 70
2, 3450, Note_on_c, 0, 60, 62
2, 3455, Control_c, 0, 64, 0
2, 3484, Note_on_c, 0, 61, 0
2, 3485, Note_on_c, 0, 60, 0
2, 3490, Note_on_c, 0, 72, 0
2, 3494, Note_on_c, 0, 58, 39
2, 3495, Note_on_c, 0, 68, 0
2, 3495, Note_on_c, 0, 66, 0
2, 3503, Note_on_c, 0, 58, 0
2, 3532, Control_c, 0, 64, 127
2, 3570, Note_on_c, 0, 65, 56
2, 3572, Note_on_c, 0, 60, 40
2, 3574, Note_on_c, 0, 70, 32
2, 3576, Note_on_c, 0, 54, 32
2, 3576, Note_on_c, 0, 44, 30
2, 3579, Control_c, 0, 64, 0
2, 3616, Control_c, 0, 64, 127
2, 3646, Note_on_c, 0, 44, 0
2, 3681, Note_on_c, 0, 44, 33
2, 3686, Note_on_c, 0, 65, 0
2, 3692, Note_on_c, 0, 54, 0
2, 3695, Note_on_c, 0, 60, 0
2, 3709, Note_on_c, 0, 70, 0
2, 3718, Control_c, 0, 64, 0
2, 3721, Note_on_c, 0, 64, 48
2, 3721, Note_on_c, 0, 54, 36
2, 3723, Note_on_c, 0, 60, 32
2, 3744, Control_c, 0, 64, 127
2, 3755, Note_on_c, 0, 44, 0
2, 3766, Control_c, 0, 64, 0
2, 3781, Control_c, 0, 64, 127
2, 3797, Note_on_c, 0, 44, 29
2, 3800, Note_on_c, 0, 64, 0
2, 3800, Note_on_c, 0, 60, 0
2, 3809, Note_on_c, 0, 54, 0
2, 3826, Note_on_c, 0, 44, 0
2, 3827, Control_c, 0, 64, 0
2, 3842, Note_on_c, 0, 63, 39
2, 3844, Note_on_c, 0, 60, 38
2, 3844, Note_on_c, 0, 49, 36
2, 3851, Note_on_c, 0, 60, 0
2, 3857, Note_on_c, 0, 49, 0
2, 3857, Note_on_c, 0, 63, 0
2, 3857, Control_c, 0, 64, 127
2, 3910, Note_on_c, 0, 58, 17
2, 3924, Note_on_c, 0, 75, 51
2, 3925, Note_on_c, 0, 59, 79
2, 3926, Note_on_c, 0, 68, 64
2, 3927, Note_on_c, 0, 65, 69
2, 3928, Note_on_c, 0, 73, 37
2, 3928, Note_on_c, 0, 71, 58
2, 3928, Note_on_c, 0, 60, 74
2, 3928, Note_on_c, 0, 72, 64
2, 3930, Note_on_c, 0, 58, 0
2, 3934, Note_on_c, 0, 71, 0
2, 3934, Note_on_c, 0, 59, 0
2, 3940, Control_c, 0, 64, 0
2, 3943, Note_on_c, 0, 73, 0
2, 3977, Control_c, 0, 64, 127
2, 4032, Note_on_c, 0, 75, 0
2, 4040, Note_on_c, 0, 72, 0
2, 4057, Note_on_c, 0, 65, 0
2, 4058, Note_on_c, 0, 68, 0
2, 4059, Note_on_c, 0, 60, 0
2, 4080, Control_c, 0, 64, 0
2, 4083, Note_on_c, 0, 59, 34
2, 4086, Note_on_c, 0, 74, 48
2, 4086, Note_on_c, 0, 71, 37
2, 4086, Note_on_c, 0, 65, 42
2, 4087, Note_on_c, 0, 68, 33
2, 4117, Note_on_c, 0, 59, 0
2, 4120, Note_on_c, 0, 71, 0
2, 4123, Note_on_c, 0, 65, 0
2, 4124, Note_on_c, 0, 74, 0
2, 4128, Note_on_c, 0, 68, 0
2, 4172, Control_c, 0, 64, 127
2, 4192, Control_c, 0, 64, 0
2, 4207, Note_on_c, 0, 73, 30
2, 4208, Note_on_c, 0, 68, 34
2, 4210, Note_on_c, 0, 65, 34
2, 4210, Note_on_c, 0, 58, 30
2, 4246, Note_on_c, 0, 58, 0
2, 4251, Note_on_c, 0, 65, 0
2, 4254, Note_on_c, 0, 73, 0
2, 4257, Note_on_c, 0, 68, 0
2, 4271, Control_c, 0, 64, 127
2, 4310, Control_c, 0, 64, 0
2, 4328, Note_on_c, 0, 66, 36
2, 4328, Note_on_c, 0, 57, 34
2, 4328, Note_on_c, 0, 72, 29
2, 4329, Note_on_c, 0, 63, 34
2, 4368, Note_on_c, 0, 63, 0
2, 4369, Note_on_c, 0, 72, 0
2, 4370, Note_on_c, 0, 57, 0
2, 4371, Note_on_c, 0, 66, 0
2, 4401, Control_c, 0, 64, 127
2, 4422, Control_c, 0, 64, 0
2, 4445, Note_on_c, 0, 73, 40
2, 4448, Note_on_c, 0, 68, 42
2, 4450, Note_on_c, 0, 58, 35
2, 4452, Note_on_c, 0, 65, 35
2, 4457, Control_c, 0, 64, 127
2, 4477, Note_on_c, 0, 65, 0
2, 4485, Note_on_c, 0, 68, 0
2, 4488, Note_on_c, 0, 73, 0
2, 4490, Note_on_c, 0, 58, 0
2, 4564, Note_on_c, 0, 63, 42
2, 4564, Control_c, 0, 64, 0
2, 4567, Note_on_c, 0, 68, 36
2, 4568, Note_on_c, 0, 73, 29
2, 4568, Note_on_c, 0, 77, 54
2, 4592, Control_c, 0, 64, 127
2, 4594, Note_on_c, 0, 68, 0
2, 4597, Note_on_c, 0, 77, 0
2, 4601, Note_on_c, 0, 73, 0
2, 4641, Note_on_c, 0, 63, 0
2, 4649, Note_on_c, 0, 65, 50
2, 4650, Note_on_c, 0, 80, 50
2, 4651, Note_on_c, 0, 77, 54
2, 4656, Control_c, 0, 64, 0
2, 4658, Note_on_c, 0, 65, 0
2, 4672, Control_c, 0, 64, 127
2, 4675, Note_on_c, 0, 77, 0
2, 4677, Note_on_c, 0, 80, 0
2, 4687, Control_c, 0, 64, 0
2, 4708, Control_c, 0, 64, 127
2, 4765, Note_on_c, 0, 83, 56
2, 4765, Note_on_c, 0, 75, 37
2, 4766, Note_on_c, 0, 54, 35
2, 4766, Note_on_c, 0, 71, 49
2, 4767, Note_on_c, 0, 78, 39
2, 4768, Note_on_c, 0, 44, 34
2, 4778, Control_c, 0, 64, 0
2, 4807, Note_on_c, 0, 83, 0
2, 4814, Control_c, 0, 64, 127
2, 4816, Note_on_c, 0, 78, 0
2, 4819, Note_on_c, 0, 75, 0
2, 4821, Note_on_c, 0, 71, 0
2, 4866, Note_on_c, 0, 54, 0
2, 4891, Note_on_c, 0, 63, 50
2, 4893, Note_on_c, 0, 54, 32
2, 4913, Note_on_c, 0, 54, 0
2, 4917, Note_on_c, 0, 63, 0
2, 4937, Note_on_c, 0, 68, 46
2, 4937, Note_on_c, 0, 54, 37
2, 4938, Note_on_c, 0, 63, 43
2, 4939, Control_c, 0, 64, 0
2, 4976, Note_on_c, 0, 54, 0
2, 4978, Control_c, 0, 64, 127
2, 4988, Note_on_c, 0, 63, 0
2, 4992, Note_on_c, 0, 44, 0
2, 4998, Note_on_c, 0, 68, 0
2, 5009, Note_on_c, 0, 59, 37
2, 5010, Note_on_c, 0, 65, 50
2, 5011, Note_on_c, 0, 56, 27
2, 5012, Note_on_c, 0, 63, 34
2, 5014, Note_on_c, 0, 49, 32
2, 5016, Control_c, 0, 64, 0
2, 5052, Control_c, 0, 64, 127
2, 5062, Note_on_c, 0, 59, 0
2, 5069, Note_on_c, 0, 65, 0
2, 5073, Note_on_c, 0, 63, 0
2, 5088, Note_on_c, 0, 49, 0
2, 5125, Note_on_c, 0, 56, 0
2, 5125, Note_on_c, 0, 49, 32
2, 5158, Note_on_c, 0, 49, 0
2, 5164, Control_c, 0, 64, 0
2, 5167, Note_on_c, 0, 73, 68
2, 5185, Control_c, 0, 64, 127
2, 5200, Note_on_c, 0, 73, 0
2, 5243, Note_on_c, 0, 70, 59
2, 5247, Note_on_c, 0, 43, 34
2, 5253, Control_c, 0, 64, 0
2, 5255, Note_on_c, 0, 53, 19
2, 5284, Control_c, 0, 64, 127
2, 5306, Note_on_c, 0, 70, 0
2, 5316, Note_on_c, 0, 53, 0
2, 5355, Note_on_c, 0, 61, 57
2, 5357, Note_on_c, 0, 49, 39
2, 5357, Note_on_c, 0, 58, 47
2, 5358, Control_c, 0, 64, 0
2, 5360, Note_on_c, 0, 50, 39
2, 5363, Note_on_c, 0, 53, 24
2, 5364, Note_on_c, 0, 55, 24
2, 5366, Note_on_c, 0, 49, 0
2, 5366, Note_on_c, 0, 62, 51
2, 5369, Note_on_c, 0, 53, 0
2, 5372, Note_on_c, 0, 43, 0
2, 5372, Note_on_c, 0, 61, 0
2, 5380, Note_on_c, 0, 55, 0
2, 5391, Note_on_c, 0, 50, 0
2, 5398, Note_on_c, 0, 58, 0
2, 5404, Note_on_c, 0, 62, 0
2, 5414, Note_on_c, 0, 58, 48
2, 5414, Note_on_c, 0, 65, 58
2, 5416, Note_on_c, 0, 55, 52
2, 5418, Note_on_c, 0, 53, 55
2, 5418, Note_on_c, 0, 62, 62
2, 5460, Note_on_c, 0, 55, 0
2, 5474, Note_on_c, 0, 65, 0
2, 5476, Note_on_c, 0, 53, 0
2, 5477, Note_on_c, 0, 62, 0
2, 5486, Note_on_c, 0, 55, 49
2, 5487, Note_on_c, 0, 58, 0
2, 5488, Control_c, 0, 64, 127
2, 5494, Note_on_c, 0, 55, 0
2, 5517, Control_c, 0, 64, 0
2, 5529, Note_on_c, 0, 52, 46
2, 5530, Note_on_c, 0, 64, 44
2, 5531, Note_on_c, 0, 55, 54
2, 5531, Note_on_c, 0, 61, 46
2, 5533, Note_on_c, 0, 58, 43
2, 5540, Note_on_c, 0, 55, 0
2, 5546, Control_c, 0, 64, 127
2, 5547, Note_on_c, 0, 52, 0
2, 5548, Note_on_c, 0, 64, 0
2, 5549, Note_on_c, 0, 58, 0
2, 5550, Note_on_c, 0, 61, 0
2, 5642, Control_c, 0, 64, 0
2, 5648, Note_on_c, 0, 72, 64
2, 5649, Note_on_c, 0, 60, 55
2, 5650, Note_on_c, 0, 61, 69
2, 5650, Note_on_c, 0, 64, 68
2, 5651, Note_on_c, 0, 69, 60
2, 5657, Note_on_c, 0, 60, 0
2, 5659, Note_on_c, 0, 69, 0
2, 5664, Note_on_c, 0, 61, 0
2, 5666, Note_on_c, 0, 72, 0
2, 5669, Note_on_c, 0, 64, 0
2, 5677, Control_c, 0, 64, 127
2, 5695, Control_c, 0, 64, 0
2, 5717, Control_c, 0, 64, 127
2, 5724, Note_on_c, 0, 48, 47
2, 5732, Note_on_c, 0, 48, 0
2, 5763, Control_c, 0, 64, 0
2, 5766, Note_on_c, 0, 68, 48
2, 5768, Note_on_c, 0, 41, 52
2, 5770, Note_on_c, 0, 56, 27
2, 5788, Note_on_c, 0, 56, 0
2, 5795, Control_c, 0, 64, 127
2, 5842, Note_on_c, 0, 56, 36
2, 5845, Note_on_c, 0, 63, 32
2, 5845, Note_on_c, 0, 60, 53
2, 5847, Note_on_c, 0, 53, 50
2, 5850, Control_c, 0, 64, 0
2, 5856, Control_c, 0, 64, 127
2, 5866, Note_on_c, 0, 41, 0
2, 5870, Note_on_c, 0, 56, 0
2, 5874, Note_on_c, 0, 60, 0
2, 5875, Note_on_c, 0, 53, 0
2, 5899, Note_on_c, 0, 63, 0
2, 5924, Note_on_c, 0, 68, 0
2, 5964, Note_on_c, 0, 63, 64
2, 5966, Note_on_c, 0, 53, 48
2, 5966, Note_on_c, 0, 60, 59
2, 5968, Note_on_c, 0, 56, 40
2, 6006, Control_c, 0, 64, 0
2, 6012, Note_on_c, 0, 68, 99
2, 6035, Note_on_c, 0, 68, 0
2, 6048, Note_on_c, 0, 68, 67
2, 6060, Note_on_c, 0, 68, 0
2, 6077, Note_on_c, 0, 60, 0
2, 6079, Note_on_c, 0, 63, 0
2, 6088, Control_c, 0, 64, 127
2, 6114, Control_c, 0, 64, 0
2, 6128, Note_on_c, 0, 68, 77
2, 6143, Control_c, 0, 64, 127
2, 6144, Note_on_c, 0, 53, 0
2, 6148, Note_on_c, 0, 56, 0
2, 6152, Note_on_c, 0, 68, 0
2, 6167, Note_on_c, 0, 68, 35
2, 6181, Note_on_c, 0, 68, 0
2, 6208, Note_on_c, 0, 46, 44
2, 6224, Note_on_c, 0, 46, 0
2, 6246, Control_c, 0, 64, 0
2, 6251, Note_on_c, 0, 66, 69
2, 6251, Note_on_c, 0, 73, 53
2, 6252, Note_on_c, 0, 62, 74
2, 6252, Note_on_c, 0, 70, 59
2, 6258, Note_on_c, 0, 62, 0
2, 6262, Note_on_c, 0, 66, 0
2, 6263, Note_on_c, 0, 73, 0
2, 6264, Note_on_c, 0, 70, 0
2, 6324, Note_on_c, 0, 73, 45
2, 6326, Note_on_c, 0, 66, 51
2, 6326, Note_on_c, 0, 62, 50
2, 6326, Note_on_c, 0, 56, 54
2, 6327, Note_on_c, 0, 70, 46
2, 6340, Note_on_c, 0, 62, 0
2, 6343, Note_on_c, 0, 66, 0
2, 6344, Note_on_c, 0, 70, 0
2, 6344, Note_on_c, 0, 56, 0
2, 6348, Note_on_c, 0, 73, 0
2, 6368, Note_on_c, 0, 73, 34
2, 6370, Note_on_c, 0, 62, 36
2, 6370, Note_on_c, 0, 66, 39
2, 6370, Note_on_c, 0, 70, 40
2, 6372, Note_on_c, 0, 56, 43
2, 6382, Note_on_c, 0, 62, 0
2, 6384, Note_on_c, 0, 66, 0
2, 6386, Note_on_c, 0, 73, 0
2, 6386, Note_on_c, 0, 70, 0
2, 6387, Note_on_c, 0, 56, 0
2, 6439, Note_on_c, 0, 56, 35
2, 6439, Note_on_c, 0, 73, 37
2, 6441, Note_on_c, 0, 62, 38
2, 6441, Note_on_c, 0, 66, 35
2, 6443, Note_on_c, 0, 70, 32
2, 6447, Control_c, 0, 64, 127
2, 6455, Note_on_c, 0, 62, 0
2, 6458, Note_on_c, 0, 66, 0
2, 6459, Note_on_c, 0, 56, 0
2, 6460, Note_on_c, 0, 70, 0
2, 6463, Note_on_c, 0, 73, 0
2, 6470, Control_c, 0, 64, 0
2, 6485, Note_on_c, 0, 73, 29
2, 6488, Note_on_c, 0, 62, 29
2, 6488, Note_on_c, 0, 70, 35
2, 6488, Note_on_c, 0, 66, 33
2, 6491, Control_c, 0, 64, 127
2, 6494, Note_on_c, 0, 56, 21
2, 6516, Note_on_c, 0, 62, 0
2, 6564, Note_on_c, 0, 62, 51
2, 6578, Note_on_c, 0, 62, 0
2, 6602, Note_on_c, 0, 56, 0
2, 6669, Note_on_c, 0, 66, 0
2, 6673, Note_on_c, 0, 73, 0
2, 6674, Note_on_c, 0, 70, 0
2, 6679, Note_on_c, 0, 46, 35
2, 6715, Note_on_c, 0, 46, 0
2, 6719, Note_on_c, 0, 39, 35
2, 6721, Control_c, 0, 64, 0
2, 6726, Note_on_c, 0, 73, 28
2, 6726, Note_on_c, 0, 61, 34
2, 6727, Note_on_c, 0, 54, 30
2, 6729, Note_on_c, 0, 70, 37
2, 6729, Note_on_c, 0, 66, 34
2, 6743, Note_on_c, 0, 39, 0
2, 6743, Control_c, 0, 64, 127
2, 6762, Note_on_c, 0, 54, 0
2, 6764, Note_on_c, 0, 61, 0
2, 6783, Note_on_c, 0, 66, 0
2, 6812, Note_on_c, 0, 70, 0
2, 6847, Note_on_c, 0, 65, 36
2, 6848, Note_on_c, 0, 61, 37
2, 6849, Note_on_c, 0, 73, 0
2, 6852, Note_on_c, 0, 54, 21
2, 6854, Note_on_c, 0, 58, 30
2, 6860, Note_on_c, 0, 65, 0
2, 6866, Note_on_c, 0, 61, 0
2, 6871, Note_on_c, 0, 58, 0
2, 6878, Note_on_c, 0, 54, 0
2, 6930, Note_on_c, 0, 68, 77
2, 6931, Note_on_c, 0, 61, 82
2, 6931, Note_on_c, 0, 54, 52
2, 6932, Note_on_c, 0, 65, 76
2, 6933, Control_c, 0, 64, 0
2, 6935, Note_on_c, 0, 56, 51
2, 6936, Note_on_c, 0, 58, 57
2, 6965, Note_on_c, 0, 58, 0
2, 6974, Note_on_c, 0, 54, 0
2, 6974, Note_on_c, 0, 56, 0
2, 6975, Note_on_c, 0, 65, 0
2, 6979, Note_on_c, 0, 61, 0
2, 6981, Note_on_c, 0, 68, 0
2, 7010, Note_on_c, 0, 54, 46
2, 7010, Note_on_c, 0, 68, 53
2, 7010, Note_on_c, 0, 58, 46
2, 7010, Note_on_c, 0, 61, 63
2, 7011, Note_on_c, 0, 65, 66
2, 7012, Note_on_c, 0, 56, 39
2, 7041, Control_c, 0, 64, 127
2, 7050, Note_on_c, 0, 56, 0
2, 7052, Note_on_c, 0, 58, 0
2, 7053, Note_on_c, 0, 65, 0
2, 7055, Note_on_c, 0, 61, 0
2, 7058, Note_on_c, 0, 54, 0
2, 7060, Note_on_c, 0, 68, 0
2, 7073, Control_c, 0, 64, 0
2, 7083, Note_on_c, 0, 58, 49
2, 7086, Note_on_c, 0, 54, 35
2, 7087, Note_on_c, 0, 65, 57
2, 7087, Note_on_c, 0, 61, 38
2, 7088, Note_on_c, 0, 56, 36
2, 7089, Note_on_c, 0, 68, 30
2, 7094, Note_on_c, 0, 58, 0
2, 7096, Control_c, 0, 64, 127
2, 7100, Note_on_c, 0, 56, 0
2, 7103, Note_on_c, 0, 54, 0
2, 7117, Note_on_c, 0, 65, 0
2, 7133, Note_on_c, 0, 61, 0
2, 7138, Note_on_c, 0, 68, 0
2, 7164, Note_on_c, 0, 54, 39
2, 7164, Note_on_c, 0, 60, 50
2, 7164, Note_on_c, 0, 68, 37
2, 7165, Note_on_c, 0, 44, 42
2, 7165, Note_on_c, 0, 64, 54
2, 7169, Control_c, 0, 64, 0
2, 7205, Control_c, 0, 64, 127
2, 7283, Note_on_c, 0, 64, 0
2, 7283, Note_on_c, 0, 54, 0
2, 7290, Note_on_c, 0, 60, 0
2, 7326, Note_on_c, 0, 54, 29
2, 7326, Note_on_c, 0, 60, 34
2, 7328, Note_on_c, 0, 64, 37
2, 7371, Note_on_c, 0, 44, 0
2, 7403, Note_on_c, 0, 44, 43
2, 7411, Note_on_c, 0, 60, 0
2, 7413, Note_on_c, 0, 64, 0
2, 7421, Note_on_c, 0, 54, 0
2, 7447, Note_on_c, 0, 63, 65
2, 7448, Note_on_c, 0, 54, 45
2, 7448, Note_on_c, 0, 60, 65
2, 7453, Control_c, 0, 64, 0
2, 7486, Control_c, 0, 64, 127
2, 7504, Note_on_c, 0, 44, 0
2, 7519, Note_on_c, 0, 44, 40
2, 7532, Note_on_c, 0, 60, 0
2, 7535, Note_on_c, 0, 54, 0
2, 7535, Note_on_c, 0, 63, 0
2, 7566, Note_on_c, 0, 63, 37
2, 7566, Note_on_c, 0, 54, 31
2, 7569, Note_on_c, 0, 60, 43
2, 7597, Note_on_c, 0, 60, 0
2, 7600, Note_on_c, 0, 54, 0
2, 7614, Note_on_c, 0, 44, 0
2, 7620, Note_on_c, 0, 63, 0
2, 7634, Note_on_c, 0, 68, 0
2, 7645, Note_on_c, 0, 60, 51
2, 7646, Note_on_c, 0, 65, 61
2, 7646, Note_on_c, 0, 56, 36
2, 7648, Note_on_c, 0, 49, 47
2, 7652, Control_c, 0, 64, 0
2, 7685, Control_c, 0, 64, 127
2, 7725, Note_on_c, 0, 56, 0
2, 7751, Note_on_c, 0, 60, 0
2, 7775, Note_on_c, 0, 65, 0
2, 7805, Control_c, 0, 64, 0
2, 7807, Note_on_c, 0, 60, 36
2, 7808, Note_on_c, 0, 56, 29
2, 7809, Note_on_c, 0, 63, 30
2, 7817, Control_c, 0, 64, 127
2, 7825, Note_on_c, 0, 49, 0
2, 7858, Note_on_c, 0, 60, 0
2, 7861, Note_on_c, 0, 56, 0
2, 7871, Note_on_c, 0, 63, 0
2, 7886, Note_on_c, 0, 49, 29
2, 7917, Note_on_c, 0, 49, 0
2, 7925, Control_c, 0, 64, 0
2, 7926, Note_on_c, 0, 53, 63
2, 7927, Note_on_c, 0, 68, 83
2, 7929, Note_on_c, 0, 65, 83
2, 7929, Note_on_c, 0, 60, 89
2, 7960, Control_c, 0, 64, 127
2, 7977, Note_on_c, 0, 53, 0
2, 7979, Note_on_c, 0, 60, 0
2, 7981, Note_on_c, 0, 65, 0
2, 7988, Note_on_c, 0, 68, 0
2, 8000, Note_on_c, 0, 53, 55
2, 8000, Note_on_c, 0, 68, 51
2, 8001, Note_on_c, 0, 65, 71
2, 8002, Note_on_c, 0, 60, 66
2, 8017, Note_on_c, 0, 53, 0
2, 8024, Note_on_c, 0, 60, 0
2, 8025, Note_on_c, 0, 65, 0
2, 8030, Note_on_c, 0, 68, 0
2, 8045, Note_on_c, 0, 53, 48
2, 8047, Note_on_c, 0, 65, 55
2, 8048, Note_on_c, 0, 60, 53
2, 8048, Note_on_c, 0, 68, 35
2, 8056, Note_on_c, 0, 60, 0
2, 8065, Note_on_c, 0, 65, 0
2, 8075, Note_on_c, 0, 53, 0
2, 8080, Note_on_c, 0, 68, 0
2, 8106, Control_c, 0, 64, 0
2, 8126, Control_c, 0, 64, 127
2, 8160, Note_on_c, 0, 61, 67
2, 8162, Note_on_c, 0, 63, 55
2, 8162, Note_on_c, 0, 67, 72
2, 8162, Note_on_c, 0, 65, 69
2, 8162, Note_on_c, 0, 75, 77
2, 8162, Note_on_c, 0, 72, 79
2, 8163, Note_on_c, 0, 68, 77
2, 8166, Control_c, 0, 64, 0
2, 8172, Note_on_c, 0, 67, 0
2, 8184, Note_on_c, 0, 68, 0
2, 8190, Note_on_c, 0, 75, 0
2, 8190, Note_on_c, 0, 65, 0
2, 8191, Note_on_c, 0, 72, 0
2, 8193, Note_on_c, 0, 61, 0
2, 8194, Note_on_c, 0, 63, 0
2, 8244, Note_on_c, 0, 75, 77
2, 8245, Note_on_c, 0, 72, 74
2, 8245, Note_on_c, 0, 68, 79
2, 8246, Note_on_c, 0, 65, 80
2, 8246, Note_on_c, 0, 61, 67
2, 8247, Note_on_c, 0, 63, 64
2, 8286, Control_c, 0, 64, 127
2, 8417, Note_on_c, 0, 65, 0
2, 8422, Note_on_c, 0, 63, 0
2, 8426, Note_on_c, 0, 61, 0
2, 8432, Note_on_c, 0, 68, 0
2, 8441, Note_on_c, 0, 72, 0
2, 8446, Note_on_c, 0, 75, 0
2, 8492, Note_on_c, 0, 73, 68
2, 8493, Note_on_c, 0, 66, 61
2, 8493, Note_on_c, 0, 62, 65
2, 8494, Note_on_c, 0, 46, 44
2, 8495, Note_on_c, 0, 70, 38
2, 8495, Note_on_c, 0, 56, 42
2, 8500, Control_c, 0, 64, 0
2, 8503, Note_on_c, 0, 70, 0
2, 8525, Control_c, 0, 64, 127
2, 8543, Note_on_c, 0, 56, 0
2, 8546, Note_on_c, 0, 46, 0
2, 8580, Note_on_c, 0, 66, 0
2, 8583, Note_on_c, 0, 73, 0
2, 8595, Note_on_c, 0, 62, 0
2, 8610, Note_on_c, 0, 46, 26
2, 8621, Note_on_c, 0, 46, 0
2, 8642, Control_c, 0, 64, 0
2, 8649, Note_on_c, 0, 39, 52
2, 8661, Control_c, 0, 64, 127
2, 8662, Note_on_c, 0, 39, 0
2, 8727, Note_on_c, 0, 61, 52
2, 8727, Note_on_c, 0, 69, 62
2, 8727, Note_on_c, 0, 65, 55
2, 8729, Note_on_c, 0, 55, 65
2, 8736, Control_c, 0, 64, 0
2, 8739, Note_on_c, 0, 65, 0
2, 8740, Note_on_c, 0, 61, 0
2, 8743, Note_on_c, 0, 55, 0
2, 8744, Note_on_c, 0, 69, 0
2, 8798, Note_on_c, 0, 61, 52
2, 8799, Note_on_c, 0, 65, 50
2, 8799, Note_on_c, 0, 69, 54
2, 8802, Note_on_c, 0, 55, 57
2, 8805, Control_c, 0, 64, 127
2, 8808, Control_c, 0, 64, 0
2, 8811, Note_on_c, 0, 55, 0
2, 8812, Note_on_c, 0, 65, 0
2, 8814, Note_on_c, 0, 61, 0
2, 8815, Note_on_c, 0, 69, 0
2, 8880, Control_c, 0, 64, 127
2, 8882, Note_on_c, 0, 61, 50
2, 8883, Note_on_c, 0, 65, 55
2, 8883, Note_on_c, 0, 69, 55
2, 8886, Note_on_c, 0, 55, 51
2, 8908, Note_on_c, 0, 69, 0
2, 8955, Note_on_c, 0, 65, 0
2, 8961, Note_on_c, 0, 65, 32
2, 8961, Note_on_c, 0, 72, 70
2, 8971, Note_on_c, 0, 65, 0
2, 8982, Note_on_c, 0, 61, 0
2, 8993, Note_on_c, 0, 72, 0
2, 8998, Note_on_c, 0, 55, 0
2, 9007, Note_on_c, 0, 70, 55
2, 9022, Note_on_c, 0, 70, 0
2, 9122, Control_c, 0, 64, 0
2, 9126, Note_on_c, 0, 38, 28
2, 9126, Note_on_c, 0, 65, 38
2, 9127, Note_on_c, 0, 54, 23
2, 9129, Note_on_c, 0, 26, 28
2, 9133, Note_on_c, 0, 58, 21
2, 9134, Note_on_c, 0, 60, 26
2, 9159, Note_on_c, 0, 60, 0
2, 9168, Note_on_c, 0, 58, 0
2, 9171, Note_on_c, 0, 54, 0
2, 9172, Note_on_c, 0, 65, 0
2, 9173, Note_on_c, 0, 38, 0
2, 9173, Note_on_c, 0, 26, 0
2, 9206, Note_on_c, 0, 54, 26
2, 9207, Note_on_c, 0, 65, 34
2, 9210, Note_on_c, 0, 38, 25
2, 9211, Note_on_c, 0, 26, 33
2, 9236, Note_on_c, 0, 26, 0
2, 9248, Note_on_c, 0, 54, 0
2, 9248, Note_on_c, 0, 65, 0
2, 9248, Note_on_c, 0, 38, 0
2, 9372, Control_c, 0, 64, 127
2, 9471, Control_c, 0, 64, 0
2, 9484, Note_on_c, 0, 54, 27
2, 9485, Note_on_c, 0, 38, 24
2, 9485, Note_on_c, 0, 65, 34
2, 9486, Note_on_c, 0, 26, 32
2, 9490, Note_on_c, 0, 58, 32
2, 9510, Note_on_c, 0, 26, 0
2, 9511, Note_on_c, 0, 65, 0
2, 9511, Note_on_c, 0, 58, 0
2, 9511, Note_on_c, 0, 38, 0
2, 9512, Note_on_c, 0, 54, 0
2, 9615, Note_on_c, 0, 37, 30
2, 9689, Note_on_c, 0, 53, 35
2, 9690, Note_on_c, 0, 63, 39
2, 9692, Note_on_c, 0, 56, 39
2, 9695, Note_on_c, 0, 44, 23
2, 9695, Note_on_c, 0, 60, 53
2, 9823, Note_on_c, 0, 53, 0
2, 9828, Note_on_c, 0, 60, 0
2, 9832, Note_on_c, 0, 37, 0
2, 9835, Note_on_c, 0, 56, 0
2, 9837, Note_on_c, 0, 63, 0
2, 9841, Note_on_c, 0, 44, 0
2, 9850, Note_on_c, 0, 50, 29
2, 9851, Note_on_c, 0, 53, 42
2, 9852, Note_on_c, 0, 56, 18
2, 9858, Note_on_c, 0, 62, 25
2, 9870, Note_on_c, 0, 53, 0
2, 9873, Note_on_c, 0, 62, 0
2, 9875, Note_on_c, 0, 56, 0
2, 9894, Note_on_c, 0, 50, 0
2, 9967, Note_on_c, 0, 61, 45
2, 9967, Note_on_c, 0, 56, 33
2, 9971, Note_on_c, 0, 53, 33
2, 9978, Note_on_c, 0, 49, 25
2, 9991, Note_on_c, 0, 53, 0
2, 9997, Note_on_c, 0, 56, 0
2, 10001, Note_on_c, 0, 49, 0
2, 10004, Note_on_c, 0, 61, 0
2, 10087, Note_on_c, 0, 51, 22
2, 10089, Note_on_c, 0, 54, 30
2, 10090, Note_on_c, 0, 60, 37
2, 10094, Note_on_c, 0, 57, 25
2, 10114, Note_on_c, 0, 54, 0
2, 10119, Note_on_c, 0, 60, 0
2, 10125, Note_on_c, 0, 57, 0
2, 10139, Note_on_c, 0, 51, 0
2, 10201, Note_on_c, 0, 61, 37
2, 10206, Note_on_c, 0, 53, 35
2, 10208, Note_on_c, 0, 56, 32
2, 10211, Note_on_c, 0, 49, 33
2, 10211, Control_c, 0, 64, 127
2, 10217, Note_on_c, 0, 58, 32
2, 10218, Note_on_c, 0, 53, 0
2, 10226, Note_on_c, 0, 58, 0
2, 10229, Note_on_c, 0, 56, 0
2, 10232, Note_on_c, 0, 61, 0
2, 10297, Control_c, 0, 64, 0
2, 10323, Note_on_c, 0, 49, 0
2, 10329, Note_on_c, 0, 53, 34
2, 10329, Note_on_c, 0, 56, 35
2, 10330, Note_on_c, 0, 65, 45
2, 10330, Note_on_c, 0, 61, 39
2, 10345, Note_on_c, 0, 65, 0
2, 10346, Note_on_c, 0, 56, 0
2, 10351, Note_on_c, 0, 61, 0
2, 10362, Control_c, 0, 64, 127
2, 10394, Note_on_c, 0, 53, 0
2, 10406, Control_c, 0, 64, 0
2, 10412, Note_on_c, 0, 68, 30
2, 10414, Note_on_c, 0, 54, 33
2, 10430, Note_on_c, 0, 68, 0
2, 10437, Note_on_c, 0, 54, 0
2, 10522, Note_on_c, 0, 69, 50
2, 10524, Note_on_c, 0, 62, 45
2, 10525, Note_on_c, 0, 59, 34
2, 10527, Note_on_c, 0, 64, 40
2, 10529, Note_on_c, 0, 57, 35
2, 10541, Note_on_c, 0, 59, 0
2, 10546, Control_c, 0, 64, 127
2, 10552, Note_on_c, 0, 62, 0
2, 10554, Note_on_c, 0, 64, 0
2, 10564, Note_on_c, 0, 69, 0
2, 10607, Note_on_c, 0, 57, 0
2, 10642, Note_on_c, 0, 81, 71
2, 10693, Note_on_c, 0, 74, 35
2, 10703, Note_on_c, 0, 81, 0
2, 10748, Note_on_c, 0, 74, 0
2, 10759, Note_on_c, 0, 75, 57
2, 10771, Control_c, 0, 64, 0
2, 10791, Note_on_c, 0, 75, 0
2, 10802, Note_on_c, 0, 66, 35
2, 10805, Note_on_c, 0, 61, 34
2, 10807, Note_on_c, 0, 55, 34
2, 10809, Note_on_c, 0, 76, 32
2, 10865, Note_on_c, 0, 76, 0
2, 10875, Note_on_c, 0, 79, 38
2, 10904, Note_on_c, 0, 79, 0
2, 10917, Note_on_c, 0, 55, 0
2, 10926, Note_on_c, 0, 81, 30
2, 10940, Note_on_c, 0, 66, 0
2, 10949, Note_on_c, 0, 81, 0
2, 10955, Note_on_c, 0, 82, 52
2, 10971, Note_on_c, 0, 61, 0
2, 10972, Note_on_c, 0, 82, 0
2, 10989, Note_on_c, 0, 84, 72
2, 11013, Note_on_c, 0, 61, 27
2, 11015, Note_on_c, 0, 65, 30
2, 11015, Note_on_c, 0, 54, 26
2, 11017, Note_on_c, 0, 84, 0
2, 11021, Note_on_c, 0, 58, 26
2, 11022, Note_on_c, 0, 85, 40
2, 11037, Control_c, 0, 64, 127
2, 11043, Note_on_c, 0, 85, 0
2, 11056, Note_on_c, 0, 87, 52
2, 11071, Note_on_c, 0, 87, 0
2, 11084, Note_on_c, 0, 89, 59
2, 11105, Note_on_c, 0, 89, 0
2, 11107, Note_on_c, 0, 90, 50
2, 11134, Note_on_c, 0, 92, 52
2, 11139, Note_on_c, 0, 90, 0
2, 11151, Note_on_c, 0, 94, 48
2, 11154, Note_on_c, 0, 92, 0
2, 11160, Note_on_c, 0, 94, 0
2, 11174, Note_on_c, 0, 96, 63
2, 11190, Note_on_c, 0, 96, 0
2, 11190, Note_on_c, 0, 65, 0
2, 11197, Note_on_c, 0, 97, 45
2, 11208, Note_on_c, 0, 97, 0
2, 11211, Note_on_c, 0, 54, 0
2, 11216, Note_on_c, 0, 61, 0
2, 11225, Note_on_c, 0, 99, 44
2, 11237, Note_on_c, 0, 58, 0
2, 11253, Note_on_c, 0, 99, 0
2, 11253, Note_on_c, 0, 100, 67
2, 11268, Note_on_c, 0, 100, 0
2, 11277, Note_on_c, 0, 101, 79
2, 11280, Note_on_c, 0, 54, 56
2, 11281, Note_on_c, 0, 60, 66
2, 11281, Note_on_c, 0, 65, 64
2, 11288, Control_c, 0, 64, 0
2, 11403, Note_on_c, 0, 101, 0
2, 11404, Control_c, 0, 64, 127
2, 11405, Note_on_c, 0, 101, 71
2, 11426, Note_on_c, 0, 65, 0
2, 11446, Note_on_c, 0, 60, 0
2, 11450, Note_on_c, 0, 54, 0
2, 11463, Note_on_c, 0, 101, 0
2, 11484, Note_on_c, 0, 53, 61
2, 11484, Note_on_c, 0, 60, 54
2, 11485, Note_on_c, 0, 63, 61
2, 11487, Note_on_c, 0, 56, 56
2, 11489, Note_on_c, 0, 99, 71
2, 11489, Note_on_c, 0, 96, 68
2, 11502, Control_c, 0, 64, 0
2, 11522, Note_on_c, 0, 96, 0
2, 11522, Note_on_c, 0, 99, 0
2, 11532, Control_c, 0, 64, 127
2, 11553, Note_on_c, 0, 60, 0
2, 11556, Note_on_c, 0, 63, 0
2, 11606, Note_on_c, 0, 53, 0
2, 11612, Note_on_c, 0, 56, 0
2, 11612, Note_on_c, 0, 59, 66
2, 11617, Note_on_c, 0, 68, 71
2, 11617, Note_on_c, 0, 75, 78
2, 11618, Note_on_c, 0, 72, 66
2, 11618, Note_on_c, 0, 65, 83
2, 11619, Note_on_c, 0, 60, 96
2, 11630, Control_c, 0, 64, 0
2, 11632, Note_on_c, 0, 59, 0
2, 11679, Control_c, 0, 64, 127
2, 11744, Note_on_c, 0, 72, 0
2, 11752, Note_on_c, 0, 65, 0
2, 11752, Note_on_c, 0, 68, 0
2, 11752, Note_on_c, 0, 75, 0
2, 11772, Note_on_c, 0, 68, 46
2, 11772, Note_on_c, 0, 65, 57
2, 11773, Note_on_c, 0, 60, 0
2, 11773, Note_on_c, 0, 74, 68
2, 11773, Note_on_c, 0, 59, 62
2, 11775, Note_on_c, 0, 71, 53
2, 11776, Control_c, 0, 64, 0
2, 11832, Note_on_c, 0, 71, 0
2, 11845, Note_on_c, 0, 74, 0
2, 11853, Note_on_c, 0, 65, 0
2, 11864, Note_on_c, 0, 68, 0
2, 11885, Note_on_c, 0, 73, 49
2, 11887, Note_on_c, 0, 68, 59
2, 11888, Note_on_c, 0, 58, 59
2, 11888, Note_on_c, 0, 65, 62
2, 11892, Note_on_c, 0, 59, 0
2, 11932, Note_on_c, 0, 65, 0
2, 11937, Note_on_c, 0, 73, 0
2, 11946, Note_on_c, 0, 68, 0
2, 11953, Control_c, 0, 64, 127
2, 11981, Control_c, 0, 64, 0
2, 11997, Note_on_c, 0, 58, 0
2, 11998, Note_on_c, 0, 72, 42
2, 12000, Note_on_c, 0, 66, 55
2, 12001, Note_on_c, 0, 60, 44
2, 12003, Note_on_c, 0, 63, 34
2, 12016, Note_on_c, 0, 71, 24
2, 12037, Control_c, 0, 64, 127
2, 12040, Note_on_c, 0, 72, 0
2, 12052, Note_on_c, 0, 71, 0
2, 12055, Note_on_c, 0, 66, 0
2, 12059, Note_on_c, 0, 63, 0
2, 12100, Control_c, 0, 64, 0
2, 12116, Note_on_c, 0, 73, 57
2, 12118, Note_on_c, 0, 58, 52
2, 12118, Note_on_c, 0, 68, 46
2, 12119, Note_on_c, 0, 65, 54
2, 12123, Note_on_c, 0, 60, 0
2, 12142, Note_on_c, 0, 73, 0
2, 12142, Control_c, 0, 64, 127
2, 12149, Note_on_c, 0, 68, 0
2, 12183, Note_on_c, 0, 65, 0
2, 12216, Control_c, 0, 64, 0
2, 12236, Note_on_c, 0, 58, 0
2, 12239, Note_on_c, 0, 77, 47
2, 12242, Note_on_c, 0, 65, 29
2, 12243, Note_on_c, 0, 61, 42
2, 12246, Note_on_c, 0, 72, 32
2, 12250, Note_on_c, 0, 65, 0
2, 12251, Note_on_c, 0, 77, 0
2, 12251, Control_c, 0, 64, 127
2, 12269, Note_on_c, 0, 72, 0
2, 12317, Note_on_c, 0, 63, 51
2, 12322, Note_on_c, 0, 80, 50
2, 12324, Note_on_c, 0, 68, 45
2, 12328, Note_on_c, 0, 61, 0
2, 12328, Control_c, 0, 64, 0
2, 12329, Note_on_c, 0, 63, 0
2, 12330, Note_on_c, 0, 77, 47
2, 12333, Note_on_c, 0, 68, 0
2, 12339, Note_on_c, 0, 77, 0
2, 12340, Note_on_c, 0, 80, 0
2, 12351, Control_c, 0, 64, 127
2, 12426, Control_c, 0, 64, 0
2, 12429, Note_on_c, 0, 54, 38
2, 12430, Note_on_c, 0, 44, 38
2, 12431, Note_on_c, 0, 75, 49
2, 12431, Note_on_c, 0, 71, 62
2, 12432, Note_on_c, 0, 83, 51
2, 12432, Note_on_c, 0, 78, 37
2, 12440, Note_on_c, 0, 71, 0
2, 12442, Note_on_c, 0, 75, 0
2, 12443, Note_on_c, 0, 78, 0
2, 12444, Note_on_c, 0, 83, 0
2, 12451, Note_on_c, 0, 44, 0
2, 12453, Note_on_c, 0, 54, 0
2, 12543, Note_on_c, 0, 63, 43
2, 12546, Note_on_c, 0, 71, 67
2, 12547, Note_on_c, 0, 83, 57
2, 12548, Note_on_c, 0, 75, 37
2, 12550, Note_on_c, 0, 54, 23
2, 12551, Note_on_c, 0, 78, 27
2, 12551, Note_on_c, 0, 58, 30
2, 12552, Note_on_c, 0, 82, 25
2, 12552, Note_on_c, 0, 59, 35
2, 12555, Note_on_c, 0, 71, 0
2, 12558, Note_on_c, 0, 75, 0
2, 12558, Note_on_c, 0, 78, 0
2, 12560, Note_on_c, 0, 82, 0
2, 12562, Note_on_c, 0, 59, 0
2, 12562, Note_on_c, 0, 63, 0
2, 12566, Note_on_c, 0, 83, 0
2, 12566, Note_on_c, 0, 54, 0
2, 12574, Note_on_c, 0, 58, 0
2, 12603, Note_on_c, 0, 83, 53
2, 12605, Note_on_c, 0, 71, 47
2, 12606, Note_on_c, 0, 75, 40
2, 12608, Note_on_c, 0, 78, 34
2, 12620, Note_on_c, 0, 78, 0
2, 12620, Note_on_c, 0, 71, 0
2, 12621, Note_on_c, 0, 75, 0
2, 12624, Note_on_c, 0, 83, 0
2, 12671, Note_on_c, 0, 71, 64
2, 12671, Note_on_c, 0, 75, 48
2, 12671, Note_on_c, 0, 83, 63
2, 12673, Note_on_c, 0, 78, 36
2, 12685, Note_on_c, 0, 71, 0
2, 12686, Note_on_c, 0, 75, 0
2, 12686, Note_on_c, 0, 78, 0
2, 12690, Note_on_c, 0, 83, 0
2, 12717, Note_on_c, 0, 37, 39
2, 12725, Note_on_c, 0, 37, 0
2, 12729, Note_on_c, 0, 83, 42
2, 12734, Note_on_c, 0, 71, 22
2, 12739, Note_on_c, 0, 83, 0
2, 12743, Note_on_c, 0, 71, 0
2, 12790, Note_on_c, 0, 71, 67
2, 12790, Note_on_c, 0, 75, 50
2, 12792, Note_on_c, 0, 83, 48
2, 12793, Note_on_c, 0, 78, 33
2, 12801, Note_on_c, 0, 71, 0
2, 12802, Note_on_c, 0, 78, 0
2, 12802, Note_on_c, 0, 83, 0
2, 12804, Note_on_c, 0, 75, 0
2, 12838, Note_on_c, 0, 63, 59
2, 12845, Note_on_c, 0, 53, 26
2, 12846, Note_on_c, 0, 71, 64
2, 12846, Note_on_c, 0, 83, 60
2, 12847, Note_on_c, 0, 58, 33
2, 12847, Note_on_c, 0, 75, 42
2, 12849, Note_on_c, 0, 78, 28
2, 12852, Note_on_c, 0, 63, 0
2, 12853, Note_on_c, 0, 53, 0
2, 12854, Note_on_c, 0, 71, 0
2, 12856, Note_on_c, 0, 83, 0
2, 12857, Note_on_c, 0, 78, 0
2, 12857, Note_on_c, 0, 75, 0
2, 12858, Note_on_c, 0, 58, 0
2, 12909, Note_on_c, 0, 75, 73
2, 12910, Note_on_c, 0, 83, 74
2, 12910, Note_on_c, 0, 78, 55
2, 12910, Note_on_c, 0, 71, 74
2, 12921, Note_on_c, 0, 71, 0
2, 12923, Note_on_c, 0, 75, 0
2, 12927, Note_on_c, 0, 78, 0
2, 12930, Note_on_c, 0, 83, 0
2, 12962, Note_on_c, 0, 50, 58
2, 12963, Note_on_c, 0, 43, 58
2, 12968, Note_on_c, 0, 84, 88
2, 12968, Note_on_c, 0, 77, 87
2, 12969, Note_on_c, 0, 72, 85
2, 12971, Note_on_c, 0, 43, 0
2, 12971, Note_on_c, 0, 81, 67
2, 12978, Note_on_c, 0, 81, 0
2, 12983, Note_on_c, 0, 50, 0
2, 12984, Note_on_c, 0, 72, 0
2, 12985, Note_on_c, 0, 77, 0
2, 12992, Note_on_c, 0, 84, 0
2, 13026, Control_c, 0, 64, 127
2, 13029, Note_on_c, 0, 84, 79
2, 13030, Note_on_c, 0, 77, 66
2, 13030, Note_on_c, 0, 72, 66
2, 13035, Note_on_c, 0, 81, 30
2, 13040, Note_on_c, 0, 77, 0
2, 13046, Note_on_c, 0, 81, 0
2, 13046, Note_on_c, 0, 72, 0
2, 13047, Note_on_c, 0, 84, 0
2, 13063, Control_c, 0, 64, 0
2, 13080, Note_on_c, 0, 62, 46
2, 13082, Note_on_c, 0, 81, 46
2, 13082, Note_on_c, 0, 69, 54
2, 13083, Note_on_c, 0, 74, 41
2, 13084, Note_on_c, 0, 55, 28
2, 13084, Note_on_c, 0, 58, 30
2, 13088, Note_on_c, 0, 77, 28
2, 13090, Note_on_c, 0, 62, 0
2, 13094, Note_on_c, 0, 55, 0
2, 13095, Note_on_c, 0, 74, 0
2, 13098, Note_on_c, 0, 69, 0
2, 13100, Note_on_c, 0, 77, 0
2, 13102, Note_on_c, 0, 58, 0
2, 13103, Note_on_c, 0, 81, 0
2, 13126, Control_c, 0, 64, 127
2, 13145, Note_on_c, 0, 81, 62
2, 13148, Note_on_c, 0, 69, 62
2, 13150, Note_on_c, 0, 74, 47
2, 13153, Note_on_c, 0, 77, 32
2, 13160, Note_on_c, 0, 74, 0
2, 13165, Note_on_c, 0, 77, 0
2, 13167, Note_on_c, 0, 81, 0
2, 13168, Note_on_c, 0, 69, 0
2, 13179, Control_c, 0, 64, 0
2, 13201, Note_on_c, 0, 73, 29
2, 13201, Note_on_c, 0, 48, 39
2, 13202, Note_on_c, 0, 58, 43
2, 13202, Note_on_c, 0, 79, 37
2, 13204, Note_on_c, 0, 67, 35
2, 13206, Note_on_c, 0, 76, 47
2, 13217, Control_c, 0, 64, 127
2, 13232, Note_on_c, 0, 76, 0
2, 13236, Note_on_c, 0, 79, 0
2, 13240, Note_on_c, 0, 73, 0
2, 13245, Note_on_c, 0, 67, 0
2, 13273, Note_on_c, 0, 58, 0
2, 13319, Control_c, 0, 64, 0
2, 13323, Note_on_c, 0, 73, 34
2, 13325, Note_on_c, 0, 58, 35
2, 13326, Note_on_c, 0, 68, 36
2, 13329, Note_on_c, 0, 64, 37
2, 13349, Control_c, 0, 64, 127
2, 13370, Note_on_c, 0, 73, 0
2, 13376, Note_on_c, 0, 64, 0
2, 13379, Note_on_c, 0, 68, 0
2, 13388, Note_on_c, 0, 58, 0
2, 13422, Note_on_c, 0, 48, 0
2, 13446, Note_on_c, 0, 68, 33
2, 13448, Note_on_c, 0, 53, 36
2, 13449, Note_on_c, 0, 60, 37
2, 13450, Control_c, 0, 64, 0
2, 13450, Note_on_c, 0, 65, 42
2, 13470, Note_on_c, 0, 53, 0
2, 13485, Note_on_c, 0, 53, 26
2, 13486, Control_c, 0, 64, 127
2, 13527, Note_on_c, 0, 41, 69
2, 13533, Control_c, 0, 64, 0
2, 13551, Note_on_c, 0, 41, 0
2, 13556, Control_c, 0, 64, 127
2, 13568, Note_on_c, 0, 53, 0
2, 13571, Note_on_c, 0, 65, 0
2, 13608, Note_on_c, 0, 60, 0
2, 13614, Note_on_c, 0, 68, 0
2, 13646, Note_on_c, 0, 68, 83
2, 13648, Note_on_c, 0, 53, 84
2, 13648, Note_on_c, 0, 60, 89
2, 13650, Note_on_c, 0, 65, 87
2, 13650, Note_on_c, 0, 63, 57
2, 13684, Note_on_c, 0, 60, 0
2, 13686, Note_on_c, 0, 63, 0
2, 13689, Note_on_c, 0, 53, 0
2, 13695, Note_on_c, 0, 65, 0
2, 13696, Note_on_c, 0, 68, 0
2, 13709, Note_on_c, 0, 53, 69
2, 13711, Note_on_c, 0, 68, 62
2, 13712, Note_on_c, 0, 65, 67
2, 13713, Note_on_c, 0, 60, 75
2, 13742, Note_on_c, 0, 60, 0
2, 13752, Note_on_c, 0, 65, 0
2, 13752, Note_on_c, 0, 53, 0
2, 13757, Note_on_c, 0, 68, 0
2, 13780, Note_on_c, 0, 60, 74
2, 13781, Note_on_c, 0, 53, 62
2, 13781, Note_on_c, 0, 65, 71
2, 13781, Note_on_c, 0, 68, 59
2, 13787, Note_on_c, 0, 66, 33
2, 13790, Note_on_c, 0, 60, 0
2, 13797, Note_on_c, 0, 66, 0
2, 13799, Note_on_c, 0, 53, 0
2, 13800, Note_on_c, 0, 65, 0
2, 13808, Note_on_c, 0, 68, 0
2, 13883, Note_on_c, 0, 75, 83
2, 13883, Note_on_c, 0, 72, 84
2, 13884, Note_on_c, 0, 68, 93
2, 13886, Note_on_c, 0, 61, 83
2, 13886, Note_on_c, 0, 63, 84
2, 13887, Note_on_c, 0, 65, 90
2, 13889, Control_c, 0, 64, 0
2, 13996, Control_c, 0, 64, 127
2, 14027, Note_on_c, 0, 68, 0
2, 14029, Note_on_c, 0, 72, 0
2, 14032, Note_on_c, 0, 65, 0
2, 14038, Note_on_c, 0, 75, 0
2, 14039, Note_on_c, 0, 63, 0
2, 14041, Note_on_c, 0, 61, 0
2, 14049, Control_c, 0, 64, 0
2, 14056, Note_on_c, 0, 75, 51
2, 14059, Note_on_c, 0, 68, 57
2, 14060, Note_on_c, 0, 72, 52
2, 14062, Note_on_c, 0, 63, 42
2, 14063, Note_on_c, 0, 61, 35
2, 14063, Note_on_c, 0, 65, 53
2, 14084, Control_c, 0, 64, 127
2, 14147, Note_on_c, 0, 65, 0
2, 14158, Note_on_c, 0, 63, 0
2, 14162, Note_on_c, 0, 61, 0
2, 14164, Note_on_c, 0, 68, 0
2, 14171, Note_on_c, 0, 72, 0
2, 14178, Note_on_c, 0, 75, 0
2, 14280, Control_c, 0, 64, 0
2, 14286, Note_on_c, 0, 73, 61
2, 14286, Note_on_c, 0, 70, 50
2, 14288, Note_on_c, 0, 56, 40
2, 14290, Note_on_c, 0, 66, 54
2, 14293, Note_on_c, 0, 62, 30
2, 14297, Control_c, 0, 64, 127
2, 14299, Note_on_c, 0, 66, 0
2, 14301, Note_on_c, 0, 56, 0
2, 14301, Note_on_c, 0, 70, 0
2, 14303, Note_on_c, 0, 62, 0
2, 14306, Note_on_c, 0, 73, 0
2, 14363, Note_on_c, 0, 61, 42
2, 14363, Note_on_c, 0, 39, 47
2, 14369, Note_on_c, 0, 69, 60
2, 14374, Note_on_c, 0, 65, 22
2, 14376, Control_c, 0, 64, 0
2, 14415, Control_c, 0, 64, 127
2, 14470, Note_on_c, 0, 39, 0
2, 14481, Note_on_c, 0, 46, 39
2, 14518, Note_on_c, 0, 46, 0
2, 14534, Note_on_c, 0, 55, 38
2, 14601, Note_on_c, 0, 58, 48
2, 14608, Note_on_c, 0, 55, 0
2, 14630, Note_on_c, 0, 69, 0
2, 14650, Note_on_c, 0, 65, 0
2, 14673, Note_on_c, 0, 61, 0
2, 14709, Note_on_c, 0, 58, 0
2, 14717, Note_on_c, 0, 72, 54
2, 14719, Note_on_c, 0, 65, 63
2, 14720, Note_on_c, 0, 61, 49
2, 14724, Note_on_c, 0, 60, 40
2, 14736, Note_on_c, 0, 60, 0
2, 14746, Note_on_c, 0, 61, 0
2, 14750, Control_c, 0, 64, 0
2, 14751, Note_on_c, 0, 72, 0
2, 14760, Note_on_c, 0, 65, 0
2, 14772, Note_on_c, 0, 70, 55
2, 14775, Note_on_c, 0, 61, 31
2, 14778, Control_c, 0, 64, 127
2, 14791, Note_on_c, 0, 61, 0
2, 14792, Note_on_c, 0, 70, 0
2, 14876, Control_c, 0, 64, 0
2, 14882, Note_on_c, 0, 64, 48
2, 14883, Note_on_c, 0, 57, 39
2, 14887, Note_on_c, 0, 52, 33
2, 14887, Note_on_c, 0, 61, 20
2, 14888, Note_on_c, 0, 42, 26
2, 14914, Control_c, 0, 64, 127
2, 15013, Note_on_c, 0, 42, 0
2, 15030, Note_on_c, 0, 52, 0
2, 15032, Note_on_c, 0, 64, 0
2, 15053, Note_on_c, 0, 57, 0
2, 15072, Note_on_c, 0, 61, 0
2, 15127, Note_on_c, 0, 61, 29
2, 15128, Control_c, 0, 64, 0
2, 15129, Note_on_c, 0, 63, 32
2, 15134, Note_on_c, 0, 47, 20
2, 15134, Note_on_c, 0, 57, 22
2, 15233, Control_c, 0, 64, 127
2, 15235, Note_on_c, 0, 57, 0
2, 15237, Note_on_c, 0, 47, 0
2, 15285, Note_on_c, 0, 61, 0
2, 15319, Control_c, 0, 64, 0
2, 15320, Note_on_c, 0, 51, 36
2, 15320, Note_on_c, 0, 56, 32
2, 15323, Note_on_c, 0, 41, 27
2, 15323, Note_on_c, 0, 60, 46
2, 15333, Note_on_c, 0, 60, 0
2, 15335, Note_on_c, 0, 56, 0
2, 15335, Note_on_c, 0, 41, 0
2, 15344, Note_on_c, 0, 63, 0
2, 15351, Note_on_c, 0, 51, 0
2, 15352, Control_c, 0, 64, 127
2, 15436, Note_on_c, 0, 60, 43
2, 15438, Note_on_c, 0, 63, 72
2, 15438, Note_on_c, 0, 72, 51
2, 15439, Note_on_c, 0, 68, 55
2, 15445, Note_on_c, 0, 67, 32
2, 15446, Control_c, 0, 64, 0
2, 15448, Note_on_c, 0, 63, 0
2, 15452, Note_on_c, 0, 60, 0
2, 15452, Note_on_c, 0, 67, 0
2, 15457, Note_on_c, 0, 68, 0
2, 15459, Note_on_c, 0, 72, 0
2, 15501, Control_c, 0, 64, 127
2, 15585, Control_c, 0, 64, 0
2, 15601, Note_on_c, 0, 56, 30
2, 15602, Note_on_c, 0, 70, 36
2, 15604, Note_on_c, 0, 65, 49
2, 15606, Note_on_c, 0, 62, 25
2, 15608, Note_on_c, 0, 46, 25
2, 15625, Control_c, 0, 64, 127
2, 15644, Note_on_c, 0, 62, 0
2, 15669, Note_on_c, 0, 65, 0
2, 15690, Note_on_c, 0, 56, 0
2, 15706, Note_on_c, 0, 46, 0
2, 15716, Note_on_c, 0, 58, 51
2, 15737, Note_on_c, 0, 70, 0
2, 15745, Note_on_c, 0, 58, 0
2, 15847, Note_on_c, 0, 39, 43
2, 15848, Note_on_c, 0, 61, 67
2, 15848, Note_on_c, 0, 65, 74
2, 15850, Control_c, 0, 64, 0
2, 15852, Note_on_c, 0, 54, 32
2, 15894, Control_c, 0, 64, 127
2, 15933, Note_on_c, 0, 68, 56
2, 15934, Note_on_c, 0, 65, 0
2, 15944, Note_on_c, 0, 39, 0
2, 15953, Note_on_c, 0, 61, 0
2, 15970, Note_on_c, 0, 68, 0
2, 15977, Note_on_c, 0, 66, 62
2, 16005, Note_on_c, 0, 54, 0
2, 16022, Note_on_c, 0, 66, 0
2, 16054, Note_on_c, 0, 54, 38
2, 16055, Note_on_c, 0, 63, 47
2, 16057, Control_c, 0, 64, 0
2, 16058, Note_on_c, 0, 60, 47
2, 16065, Note_on_c, 0, 44, 28
2, 16094, Control_c, 0, 64, 127
2, 16137, Note_on_c, 0, 63, 0
2, 16141, Note_on_c, 0, 60, 0
2, 16164, Note_on_c, 0, 54, 0
2, 16199, Control_c, 0, 64, 0
2, 16209, Note_on_c, 0, 54, 37
2, 16209, Note_on_c, 0, 56, 31
2, 16210, Note_on_c, 0, 60, 51
2, 16210, Note_on_c, 0, 65, 37
2, 16212, Note_on_c, 0, 62, 46
2, 16220, Note_on_c, 0, 54, 0
2, 16225, Note_on_c, 0, 60, 0
2, 16225, Note_on_c, 0, 44, 0
2, 16229, Control_c, 0, 64, 127
2, 16232, Note_on_c, 0, 62, 0
2, 16236, Note_on_c, 0, 65, 0
2, 16249, Note_on_c, 0, 56, 0
2, 16331, Note_on_c, 0, 61, 39
2, 16333, Note_on_c, 0, 53, 36
2, 16334, Control_c, 0, 64, 0
2, 16335, Note_on_c, 0, 37, 31
2, 16335, Note_on_c, 0, 56, 34
2, 16335, Note_on_c, 0, 49, 30
2, 16374, Control_c, 0, 64, 127
2, 16409, Note_on_c, 0, 53, 0
2, 16418, Note_on_c, 0, 37, 0
2, 16436, Note_on_c, 0, 56, 0
2, 16439, Note_on_c, 0, 49, 0
2, 16446, Note_on_c, 0, 61, 0
2, 16563, Note_on_c, 0, 63, 39
2, 16563, Note_on_c, 0, 68, 38
2, 16564, Control_c, 0, 64, 0
2, 16565, Note_on_c, 0, 53, 44
2, 16570, Note_on_c, 0, 60, 36
2, 16599, Control_c, 0, 64, 127
2, 16645, Note_on_c, 0, 41, 43
2, 16656, Note_on_c, 0, 41, 0
2, 16657, Note_on_c, 0, 60, 0
2, 16658, Note_on_c, 0, 53, 0
2, 16692, Note_on_c, 0, 63, 0
2, 16696, Note_on_c, 0, 68, 0
2, 16809, Control_c, 0, 64, 0
2, 16809, Note_on_c, 0, 54, 55
2, 16809, Note_on_c, 0, 68, 82
2, 16810, Note_on_c, 0, 61, 92
2, 16810, Note_on_c, 0, 65, 91
2, 16811, Note_on_c, 0, 58, 73
2, 16813, Note_on_c, 0, 56, 62
2, 16846, Control_c, 0, 64, 127
2, 16869, Note_on_c, 0, 58, 0
2, 16871, Note_on_c, 0, 65, 0
2, 16871, Note_on_c, 0, 61, 0
2, 16873, Note_on_c, 0, 68, 0
2, 16874, Note_on_c, 0, 56, 0
2, 16875, Note_on_c, 0, 54, 0
2, 16886, Note_on_c, 0, 58, 64
2, 16889, Note_on_c, 0, 54, 51
2, 16890, Note_on_c, 0, 68, 55
2, 16891, Note_on_c, 0, 56, 68
2, 16891, Note_on_c, 0, 61, 55
2, 16891, Note_on_c, 0, 65, 63
2, 16916, Note_on_c, 0, 61, 0
2, 16918, Note_on_c, 0, 58, 0
2, 16921, Note_on_c, 0, 56, 0
2, 16921, Note_on_c, 0, 65, 0
2, 16923, Note_on_c, 0, 54, 0
2, 16923, Note_on_c, 0, 68, 0
2, 16932, Note_on_c, 0, 58, 48
2, 16936, Note_on_c, 0, 54, 34
2, 16937, Note_on_c, 0, 61, 42
2, 16937, Note_on_c, 0, 68, 53
2, 16937, Note_on_c, 0, 65, 71
2, 16938, Note_on_c, 0, 56, 55
2, 16969, Note_on_c, 0, 58, 0
2, 16971, Note_on_c, 0, 65, 0
2, 16974, Note_on_c, 0, 61, 0
2, 16978, Note_on_c, 0, 56, 0
2, 16981, Note_on_c, 0, 68, 0
2, 16986, Note_on_c, 0, 54, 0
2, 17014, Note_on_c, 0, 61, 64
2, 17015, Note_on_c, 0, 58, 52
2, 17016, Control_c, 0, 64, 0
2, 17016, Note_on_c, 0, 65, 66
2, 17017, Note_on_c, 0, 54, 44
2, 17017, Note_on_c, 0, 56, 49
2, 17018, Note_on_c, 0, 68, 45
2, 17028, Note_on_c, 0, 58, 0
2, 17032, Note_on_c, 0, 61, 0
2, 17033, Note_on_c, 0, 65, 0
2, 17035, Note_on_c, 0, 54, 0
2, 17035, Note_on_c, 0, 56, 0
2, 17037, Note_on_c, 0, 68, 0
2, 17128, Note_on_c, 0, 54, 42
2, 17131, Note_on_c, 0, 68, 40
2, 17133, Note_on_c, 0, 64, 53
2, 17134, Note_on_c, 0, 60, 40
2, 17135, Note_on_c, 0, 44, 31
2, 17157, Note_on_c, 0, 60, 0
2, 17161, Note_on_c, 0, 64, 0
2, 17166, Note_on_c, 0, 68, 0
2, 17167, Note_on_c, 0, 54, 0
2, 17167, Note_on_c, 0, 44, 0
2, 17247, Note_on_c, 0, 87, 71
2, 17280, Note_on_c, 0, 87, 0
2, 17286, Note_on_c, 0, 37, 34
2, 17292, Note_on_c, 0, 80, 37
2, 17292, Control_c, 0, 64, 127
2, 17306, Note_on_c, 0, 37, 0
2, 17350, Note_on_c, 0, 80, 0
2, 17409, Note_on_c, 0, 63, 18
2, 17412, Note_on_c, 0, 58, 37
2, 17412, Note_on_c, 0, 53, 25
2, 17469, Note_on_c, 0, 53, 0
2, 17491, Note_on_c, 0, 58, 0
2, 17495, Note_on_c, 0, 63, 0
2, 17523, Note_on_c, 0, 65, 49
2, 17525, Control_c, 0, 64, 0
2, 17529, Note_on_c, 0, 60, 37
2, 17530, Note_on_c, 0, 55, 38
2, 17573, Control_c, 0, 64, 127
2, 17603, Note_on_c, 0, 55, 0
2, 17608, Note_on_c, 0, 72, 94
2, 17613, Note_on_c, 0, 71, 40
2, 17621, Note_on_c, 0, 71, 0
2, 17636, Note_on_c, 0, 72, 0
2, 17650, Control_c, 0, 64, 0
2, 17650, Note_on_c, 0, 73, 74
2, 17653, Note_on_c, 0, 65, 0
2, 17657, Note_on_c, 0, 60, 0
2, 17698, Control_c, 0, 64, 127
2, 17701, Note_on_c, 0, 73, 0
2, 17721, Note_on_c, 0, 68, 60
2, 17722, Control_c, 0, 64, 0
2, 17722, Note_on_c, 0, 63, 46
2, 17722, Note_on_c, 0, 72, 47
2, 17727, Note_on_c, 0, 53, 34
2, 17728, Note_on_c, 0, 58, 42
2, 17766, Control_c, 0, 64, 127
2, 17773, Note_on_c, 0, 63, 0
2, 17787, Note_on_c, 0, 58, 0
2, 17791, Note_on_c, 0, 53, 0
2, 17802, Note_on_c, 0, 65, 61
2, 17817, Note_on_c, 0, 68, 0
2, 17820, Note_on_c, 0, 72, 0
2, 17832, Note_on_c, 0, 65, 0
2, 17882, Note_on_c, 0, 65, 60
2, 17888, Note_on_c, 0, 60, 40
2, 17892, Control_c, 0, 64, 0
2, 17910, Control_c, 0, 64, 127
2, 17957, Note_on_c, 0, 37, 49
2, 17966, Control_c, 0, 64, 0
2, 17988, Note_on_c, 0, 60, 0
2, 17990, Note_on_c, 0, 65, 0
2, 17991, Note_on_c, 0, 37, 0
2, 18002, Note_on_c, 0, 44, 45
2, 18007, Control_c, 0, 64, 127
2, 18029, Note_on_c, 0, 44, 0
2, 18039, Note_on_c, 0, 44, 20
2, 18083, Note_on_c, 0, 53, 47
2, 18084, Note_on_c, 0, 60, 53
2, 18084, Note_on_c, 0, 65, 51
2, 18097, Control_c, 0, 64, 0
2, 18125, Note_on_c, 0, 53, 0
2, 18127, Control_c, 0, 64, 127
2, 18131, Note_on_c, 0, 44, 0
2, 18173, Note_on_c, 0, 65, 0
2, 18198, Note_on_c, 0, 47, 44
2, 18214, Note_on_c, 0, 60, 0
2, 18231, Note_on_c, 0, 47, 0
2, 18235, Control_c, 0, 64, 0
2, 18242, Note_on_c, 0, 40, 58
2, 18256, Note_on_c, 0, 40, 0
2, 18259, Control_c, 0, 64, 127
2, 18295, Note_on_c, 0, 57, 70
2, 18295, Note_on_c, 0, 59, 60
2, 18295, Note_on_c, 0, 69, 64
2, 18298, Control_c, 0, 64, 0
2, 18298, Note_on_c, 0, 62, 54
2, 18303, Note_on_c, 0, 66, 25
2, 18304, Note_on_c, 0, 57, 0
2, 18309, Note_on_c, 0, 59, 0
2, 18311, Note_on_c, 0, 66, 0
2, 18315, Note_on_c, 0, 62, 0
2, 18316, Note_on_c, 0, 69, 0
2, 18330, Control_c, 0, 64, 127
2, 18334, Note_on_c, 0, 55, 57
2, 18354, Control_c, 0, 64, 0
2, 18359, Note_on_c, 0, 55, 0
2, 18366, Note_on_c, 0, 69, 61
2, 18366, Note_on_c, 0, 66, 50
2, 18366, Note_on_c, 0, 59, 61
2, 18367, Note_on_c, 0, 62, 70
2, 18369, Note_on_c, 0, 57, 53
2, 18384, Control_c, 0, 64, 127
2, 18392, Note_on_c, 0, 59, 0
2, 18396, Note_on_c, 0, 62, 0
2, 18396, Note_on_c, 0, 69, 0
2, 18403, Note_on_c, 0, 57, 0
2, 18407, Note_on_c, 0, 66, 0
2, 18440, Note_on_c, 0, 70, 59
2, 18442, Note_on_c, 0, 61, 56
2, 18442, Note_on_c, 0, 66, 55
2, 18443, Note_on_c, 0, 58, 69
2, 18448, Control_c, 0, 64, 0
2, 18471, Note_on_c, 0, 70, 0
2, 18474, Note_on_c, 0, 66, 0
2, 18475, Note_on_c, 0, 58, 0
2, 18478, Note_on_c, 0, 61, 0
2, 18491, Note_on_c, 0, 72, 60
2, 18494, Note_on_c, 0, 61, 50
2, 18494, Note_on_c, 0, 68, 10
2, 18498, Note_on_c, 0, 65, 58
2, 18498, Note_on_c, 0, 60, 65
2, 18513, Note_on_c, 0, 68, 0
2, 18533, Control_c, 0, 64, 127
2, 18548, Note_on_c, 0, 65, 0
2, 18557, Note_on_c, 0, 61, 0
2, 18559, Note_on_c, 0, 72, 0
2, 18569, Note_on_c, 0, 60, 0
2, 18569, Note_on_c, 0, 70, 55
2, 18570, Note_on_c, 0, 61, 51
2, 18572, Note_on_c, 0, 65, 49
2, 18574, Note_on_c, 0, 58, 43
2, 18581, Control_c, 0, 64, 0
2, 18592, Note_on_c, 0, 61, 0
2, 18596, Note_on_c, 0, 65, 0
2, 18600, Note_on_c, 0, 70, 0
2, 18605, Note_on_c, 0, 58, 0
2, 18617, Note_on_c, 0, 57, 43
2, 18617, Note_on_c, 0, 65, 24
2, 18621, Control_c, 0, 64, 127
2, 18621, Note_on_c, 0, 69, 46
2, 18624, Note_on_c, 0, 61, 18
2, 18659, Note_on_c, 0, 61, 0
2, 18661, Note_on_c, 0, 57, 0
2, 18676, Note_on_c, 0, 65, 0
2, 18685, Note_on_c, 0, 69, 0
2, 18692, Note_on_c, 0, 61, 21
2, 18706, Note_on_c, 0, 61, 0
2, 18721, Control_c, 0, 64, 0
2, 18726, Note_on_c, 0, 61, 37
2, 18728, Note_on_c, 0, 70, 52
2, 18729, Note_on_c, 0, 66, 37
2, 18753, Note_on_c, 0, 61, 0
2, 18761, Control_c, 0, 64, 127
2, 18778, Note_on_c, 0, 65, 43
2, 18780, Note_on_c, 0, 66, 0
2, 18785, Note_on_c, 0, 70, 0
2, 18813, Note_on_c, 0, 66, 65
2, 18821, Control_c, 0, 64, 0
2, 18833, Note_on_c, 0, 65, 0
2, 18834, Note_on_c, 0, 39, 29
2, 18842, Note_on_c, 0, 54, 25
2, 18850, Note_on_c, 0, 39, 0
2, 18852, Note_on_c, 0, 70, 46
2, 18872, Note_on_c, 0, 66, 0
2, 18886, Note_on_c, 0, 67, 36
2, 18887, Note_on_c, 0, 70, 0
2, 18891, Control_c, 0, 64, 127
2, 18908, Note_on_c, 0, 54, 0
2, 18912, Note_on_c, 0, 67, 0
2, 18926, Note_on_c, 0, 68, 59
2, 18938, Control_c, 0, 64, 0
2, 18949, Note_on_c, 0, 54, 34
2, 18949, Note_on_c, 0, 44, 36
2, 18958, Note_on_c, 0, 68, 0
2, 18966, Note_on_c, 0, 72, 29
2, 18968, Note_on_c, 0, 44, 0
2, 18972, Control_c, 0, 64, 127
2, 18978, Note_on_c, 0, 54, 0
2, 18990, Note_on_c, 0, 72, 0
2, 19002, Note_on_c, 0, 69, 45
2, 19039, Note_on_c, 0, 70, 67
2, 19053, Note_on_c, 0, 69, 0
2, 19064, Control_c, 0, 64, 0
2, 19071, Note_on_c, 0, 54, 26
2, 19075, Note_on_c, 0, 73, 37
2, 19076, Note_on_c, 0, 60, 32
2, 19098, Control_c, 0, 64, 127
2, 19099, Note_on_c, 0, 70, 0
2, 19112, Note_on_c, 0, 60, 0
2, 19115, Note_on_c, 0, 73, 0
2, 19117, Note_on_c, 0, 69, 40
2, 19133, Note_on_c, 0, 54, 0
2, 19142, Note_on_c, 0, 69, 0
2, 19147, Note_on_c, 0, 70, 50
2, 19182, Note_on_c, 0, 63, 42
2, 19182, Control_c, 0, 64, 0
2, 19185, Note_on_c, 0, 75, 51
2, 19191, Note_on_c, 0, 53, 24
2, 19193, Note_on_c, 0, 70, 0
2, 19201, Note_on_c, 0, 63, 0
2, 19208, Note_on_c, 0, 53, 0
2, 19224, Control_c, 0, 64, 127
2, 19227, Note_on_c, 0, 75, 0
2, 19231, Note_on_c, 0, 72, 35
2, 19262, Note_on_c, 0, 72, 0
2, 19271, Note_on_c, 0, 73, 48
2, 19309, Note_on_c, 0, 73, 0
2, 19313, Control_c, 0, 64, 0
2, 19314, Note_on_c, 0, 77, 66
2, 19314, Note_on_c, 0, 37, 49
2, 19315, Note_on_c, 0, 49, 46
2, 19330, Note_on_c, 0, 37, 0
2, 19338, Note_on_c, 0, 49, 0
2, 19341, Control_c, 0, 64, 127
2, 19346, Note_on_c, 0, 77, 0
2, 19354, Note_on_c, 0, 74, 49
2, 19393, Note_on_c, 0, 75, 62
2, 19404, Note_on_c, 0, 74, 0
2, 19434, Note_on_c, 0, 63, 53
2, 19435, Note_on_c, 0, 78, 56
2, 19437, Control_c, 0, 64, 0
2, 19438, Note_on_c, 0, 53, 35
2, 19444, Note_on_c, 0, 75, 0
2, 19444, Note_on_c, 0, 58, 33
2, 19467, Control_c, 0, 64, 127
2, 19469, Note_on_c, 0, 78, 0
2, 19477, Note_on_c, 0, 76, 37
2, 19485, Note_on_c, 0, 53, 0
2, 19503, Note_on_c, 0, 76, 0
2, 19511, Note_on_c, 0, 77, 67
2, 19522, Note_on_c, 0, 63, 0
2, 19526, Note_on_c, 0, 58, 0
2, 19549, Note_on_c, 0, 77, 0
2, 19553, Control_c, 0, 64, 0
2, 19554, Note_on_c, 0, 80, 74
2, 19555, Note_on_c, 0, 54, 43
2, 19556, Note_on_c, 0, 64, 51
2, 19559, Note_on_c, 0, 59, 56
2, 19581, Control_c, 0, 64, 127
2, 19593, Note_on_c, 0, 77, 38
2, 19594, Note_on_c, 0, 80, 0
2, 19627, Note_on_c, 0, 77, 0
2, 19628, Note_on_c, 0, 59, 0
2, 19633, Note_on_c, 0, 78, 71
2, 19634, Note_on_c, 0, 64, 0
2, 19637, Note_on_c, 0, 77, 17
2, 19647, Note_on_c, 0, 77, 0
2, 19655, Note_on_c, 0, 54, 0
2, 19668, Note_on_c, 0, 78, 0
2, 19675, Note_on_c, 0, 63, 64
2, 19676, Control_c, 0, 64, 0
2, 19677, Note_on_c, 0, 82, 71
2, 19677, Note_on_c, 0, 53, 59
2, 19680, Note_on_c, 0, 58, 51
2, 19687, Note_on_c, 0, 83, 36
2, 19692, Note_on_c, 0, 63, 0
2, 19702, Control_c, 0, 64, 127
2, 19703, Note_on_c, 0, 53, 0
2, 19704, Note_on_c, 0, 58, 0
2, 19710, Note_on_c, 0, 83, 0
2, 19714, Note_on_c, 0, 82, 0
2, 19719, Note_on_c, 0, 79, 34
2, 19747, Note_on_c, 0, 79, 0
2, 19760, Note_on_c, 0, 80, 74
2, 19794, Note_on_c, 0, 80, 0
2, 19798, Control_c, 0, 64, 0
2, 19802, Note_on_c, 0, 37, 50
2, 19804, Note_on_c, 0, 84, 71
2, 19804, Note_on_c, 0, 49, 45
2, 19818, Note_on_c, 0, 37, 0
2, 19823, Control_c, 0, 64, 127
2, 19825, Note_on_c, 0, 49, 0
2, 19832, Note_on_c, 0, 84, 0
2, 19845, Note_on_c, 0, 85, 62
2, 19846, Note_on_c, 0, 73, 46
2, 19899, Note_on_c, 0, 73, 0
2, 19904, Note_on_c, 0, 85, 0
2, 19923, Note_on_c, 0, 63, 52
2, 19926, Note_on_c, 0, 53, 40
2, 19929, Note_on_c, 0, 75, 70
2, 19929, Control_c, 0, 64, 0
2, 19930, Note_on_c, 0, 58, 50
2, 19930, Note_on_c, 0, 87, 73
2, 19931, Note_on_c, 0, 85, 63
2, 19949, Control_c, 0, 64, 127
2, 19963, Note_on_c, 0, 85, 0
2, 19966, Note_on_c, 0, 87, 0
2, 19975, Note_on_c, 0, 75, 0
2, 19975, Note_on_c, 0, 58, 0
2, 19975, Note_on_c, 0, 53, 0
2, 19979, Note_on_c, 0, 63, 0
2, 20006, Note_on_c, 0, 63, 75
2, 20006, Note_on_c, 0, 89, 58
2, 20007, Note_on_c, 0, 77, 73
2, 20008, Note_on_c, 0, 53, 68
2, 20008, Note_on_c, 0, 58, 65
2, 20014, Note_on_c, 0, 88, 38
2, 20022, Note_on_c, 0, 88, 0
2, 20028, Note_on_c, 0, 89, 0
2, 20030, Note_on_c, 0, 53, 0
2, 20034, Note_on_c, 0, 63, 0
2, 20036, Note_on_c, 0, 77, 0
2, 20041, Note_on_c, 0, 58, 0
2, 20056, Note_on_c, 0, 78, 52
2, 20056, Note_on_c, 0, 90, 65
2, 20056, Note_on_c, 0, 63, 57
2, 20058, Note_on_c, 0, 58, 55
2, 20058, Note_on_c, 0, 53, 64
2, 20076, Note_on_c, 0, 78, 0
2, 20077, Note_on_c, 0, 90, 0
2, 20080, Note_on_c, 0, 63, 0
2, 20084, Note_on_c, 0, 53, 0
2, 20089, Note_on_c, 0, 58, 0
2, 20122, Note_on_c, 0, 63, 57
2, 20125, Note_on_c, 0, 58, 54
2, 20125, Note_on_c, 0, 92, 73
2, 20129, Note_on_c, 0, 80, 47
2, 20130, Note_on_c, 0, 82, 46
2, 20139, Note_on_c, 0, 80, 0
2, 20140, Note_on_c, 0, 82, 0
2, 20142, Note_on_c, 0, 92, 0
2, 20146, Note_on_c, 0, 63, 0
2, 20149, Note_on_c, 0, 58, 0
2, 20172, Control_c, 0, 64, 0
2, 20172, Note_on_c, 0, 63, 46
2, 20172, Note_on_c, 0, 94, 74
2, 20173, Note_on_c, 0, 82, 65
2, 20174, Note_on_c, 0, 54, 37
2, 20174, Note_on_c, 0, 59, 51
2, 20175, Note_on_c, 0, 58, 37
2, 20180, Note_on_c, 0, 92, 29
2, 20200, Control_c, 0, 64, 127
2, 20218, Note_on_c, 0, 54, 0
2, 20220, Note_on_c, 0, 59, 0
2, 20225, Note_on_c, 0, 63, 0
2, 20229, Note_on_c, 0, 58, 0
2, 20230, Note_on_c, 0, 94, 0
2, 20233, Note_on_c, 0, 92, 0
2, 20233, Note_on_c, 0, 82, 0
2, 20245, Note_on_c, 0, 63, 55
2, 20245, Note_on_c, 0, 95, 74
2, 20246, Note_on_c, 0, 54, 61
2, 20246, Note_on_c, 0, 83, 76
2, 20247, Note_on_c, 0, 58, 53
2, 20248, Note_on_c, 0, 59, 71
2, 20251, Note_on_c, 0, 93, 54
2, 20259, Note_on_c, 0, 93, 0
2, 20271, Note_on_c, 0, 63, 0
2, 20272, Note_on_c, 0, 54, 0
2, 20275, Note_on_c, 0, 59, 0
2, 20277, Note_on_c, 0, 95, 0
2, 20277, Note_on_c, 0, 83, 0
2, 20284, Note_on_c, 0, 58, 0
2, 20293, Note_on_c, 0, 95, 66
2, 20294, Note_on_c, 0, 63, 69
2, 20294, Note_on_c, 0, 54, 65
2, 20295, Note_on_c, 0, 83, 70
2, 20295, Note_on_c, 0, 58, 50
2, 20296, Note_on_c, 0, 59, 68
2, 20300, Note_on_c, 0, 93, 54
2, 20310, Note_on_c, 0, 93, 0
2, 20329, Note_on_c, 0, 59, 0
2, 20330, Note_on_c, 0, 95, 0
2, 20330, Note_on_c, 0, 83, 0
2, 20333, Note_on_c, 0, 63, 0
2, 20339, Note_on_c, 0, 54, 0
2, 20341, Note_on_c, 0, 58, 0
2, 20359, Note_on_c, 0, 54, 56
2, 20361, Note_on_c, 0, 95, 78
2, 20361, Note_on_c, 0, 63, 63
2, 20362, Note_on_c, 0, 58, 44
2, 20362, Note_on_c, 0, 83, 77
2, 20366, Note_on_c, 0, 59, 66
2, 20373, Note_on_c, 0, 59, 0
2, 20378, Note_on_c, 0, 63, 0
2, 20390, Note_on_c, 0, 54, 0
2, 20391, Note_on_c, 0, 95, 0
2, 20392, Note_on_c, 0, 83, 0
2, 20397, Note_on_c, 0, 58, 0
2, 20404, Note_on_c, 0, 58, 21
2, 20405, Control_c, 0, 64, 0
2, 20406, Note_on_c, 0, 63, 68
2, 20408, Note_on_c, 0, 95, 66
2, 20409, Note_on_c, 0, 53, 73
2, 20410, Note_on_c, 0, 83, 64
2, 20411, Note_on_c, 0, 59, 55
2, 20425, Control_c, 0, 64, 127
2, 20444, Note_on_c, 0, 95, 0
2, 20455, Note_on_c, 0, 53, 0
2, 20456, Note_on_c, 0, 63, 0
2, 20458, Note_on_c, 0, 59, 0
2, 20458, Note_on_c, 0, 83, 0
2, 20466, Note_on_c, 0, 58, 0
2, 20485, Note_on_c, 0, 94, 62
2, 20487, Note_on_c, 0, 63, 56
2, 20488, Note_on_c, 0, 82, 50
2, 20489, Note_on_c, 0, 58, 49
2, 20491, Note_on_c, 0, 59, 58
2, 20492, Note_on_c, 0, 53, 48
2, 20495, Control_c, 0, 64, 0
2, 20517, Control_c, 0, 64, 127
2, 20525, Note_on_c, 0, 59, 0
2, 20535, Note_on_c, 0, 63, 0
2, 20536, Note_on_c, 0, 58, 0
2, 20536, Note_on_c, 0, 94, 0
2, 20536, Note_on_c, 0, 82, 0
2, 20573, Note_on_c, 0, 53, 0
2, 20606, Note_on_c, 0, 93, 66
2, 20609, Note_on_c, 0, 81, 47
2, 20609, Note_on_c, 0, 86, 62
2, 20610, Note_on_c, 0, 53, 34
2, 20610, Note_on_c, 0, 89, 46
2, 20610, Note_on_c, 0, 58, 46
2, 20610, Note_on_c, 0, 62, 53
2, 20612, Control_c, 0, 64, 0
2, 20612, Note_on_c, 0, 57, 54
2, 20646, Control_c, 0, 64, 127
2, 20656, Note_on_c, 0, 93, 0
2, 20658, Note_on_c, 0, 86, 0
2, 20659, Note_on_c, 0, 89, 0
2, 20672, Note_on_c, 0, 81, 0
2, 20675, Note_on_c, 0, 57, 0
2, 20679, Note_on_c, 0, 53, 0
2, 20683, Note_on_c, 0, 58, 0
2, 20685, Note_on_c, 0, 62, 0
2, 20768, Note_on_c, 0, 81, 71
2, 20768, Control_c, 0, 64, 0
2, 20769, Note_on_c, 0, 74, 78
2, 20770, Note_on_c, 0, 70, 75
2, 20770, Note_on_c, 0, 69, 74
2, 20771, Note_on_c, 0, 76, 66
2, 20803, Note_on_c, 0, 69, 0
2, 20804, Control_c, 0, 64, 127
2, 20823, Note_on_c, 0, 74, 0
2, 20823, Note_on_c, 0, 80, 1
2, 20837, Note_on_c, 0, 76, 0
2, 20849, Note_on_c, 0, 70, 0
2, 20852, Note_on_c, 0, 81, 0
2, 20862, Note_on_c, 0, 80, 0
2, 20877, Control_c, 0, 64, 0
2, 20883, Note_on_c, 0, 67, 61
2, 20884, Note_on_c, 0, 79, 52
2, 20885, Note_on_c, 0, 70, 68
2, 20887, Note_on_c, 0, 73, 40
2, 20887, Note_on_c, 0, 76, 58
2, 20903, Control_c, 0, 64, 127
2, 20907, Note_on_c, 0, 67, 0
2, 20908, Note_on_c, 0, 79, 0
2, 20912, Note_on_c, 0, 76, 0
2, 20919, Note_on_c, 0, 70, 0
2, 20921, Note_on_c, 0, 73, 0
2, 20946, Note_on_c, 0, 73, 18
2, 20968, Note_on_c, 0, 73, 0
2, 20996, Note_on_c, 0, 73, 39
2, 20997, Control_c, 0, 64, 0
2, 21001, Note_on_c, 0, 64, 36
2, 21001, Note_on_c, 0, 68, 35
2, 21002, Note_on_c, 0, 61, 39
2, 21005, Note_on_c, 0, 70, 33
2, 21023, Control_c, 0, 64, 127
2, 21027, Note_on_c, 0, 61, 0
2, 21065, Note_on_c, 0, 64, 0
2, 21070, Note_on_c, 0, 73, 0
2, 21073, Note_on_c, 0, 68, 0
2, 21075, Note_on_c, 0, 70, 0
2, 21115, Control_c, 0, 64, 0
2, 21118, Note_on_c, 0, 53, 30
2, 21118, Note_on_c, 0, 67, 43
2, 21120, Note_on_c, 0, 72, 34
2, 21122, Note_on_c, 0, 56, 29
2, 21126, Note_on_c, 0, 63, 10
2, 21130, Note_on_c, 0, 60, 17
2, 21151, Control_c, 0, 64, 127
2, 21187, Note_on_c, 0, 60, 0
2, 21187, Note_on_c, 0, 67, 0
2, 21191, Note_on_c, 0, 63, 0
2, 21208, Note_on_c, 0, 56, 0
2, 21209, Note_on_c, 0, 72, 0
2, 21236, Control_c, 0, 64, 0
2, 21237, Note_on_c, 0, 63, 37
2, 21237, Note_on_c, 0, 70, 50
2, 21239, Note_on_c, 0, 65, 37
2, 21241, Note_on_c, 0, 56, 19
2, 21247, Note_on_c, 0, 67, 28
2, 21248, Note_on_c, 0, 60, 26
2, 21274, Control_c, 0, 64, 127
2, 21286, Note_on_c, 0, 63, 0
2, 21297, Note_on_c, 0, 67, 0
2, 21306, Note_on_c, 0, 60, 0
2, 21312, Note_on_c, 0, 56, 0
2, 21314, Note_on_c, 0, 65, 0
2, 21329, Note_on_c, 0, 70, 0
2, 21356, Control_c, 0, 64, 0
2, 21357, Note_on_c, 0, 53, 0
2, 21359, Note_on_c, 0, 63, 30
2, 21359, Note_on_c, 0, 68, 35
2, 21359, Note_on_c, 0, 65, 46
2, 21360, Note_on_c, 0, 56, 34
2, 21370, Note_on_c, 0, 60, 27
2, 21390, Control_c, 0, 64, 127
2, 21399, Note_on_c, 0, 63, 0
2, 21439, Note_on_c, 0, 53, 61
2, 21454, Note_on_c, 0, 60, 0
2, 21460, Note_on_c, 0, 65, 0
2, 21468, Note_on_c, 0, 53, 0
2, 21475, Note_on_c, 0, 56, 0
2, 21499, Note_on_c, 0, 68, 0
2, 21557, Note_on_c, 0, 46, 61
2, 21573, Control_c, 0, 64, 0
2, 21574, Note_on_c, 0, 46, 0
2, 21616, Note_on_c, 0, 73, 37
2, 21616, Note_on_c, 0, 56, 53
2, 21617, Note_on_c, 0, 66, 68
2, 21617, Note_on_c, 0, 61, 60
2, 21617, Note_on_c, 0, 62, 68
2, 21619, Note_on_c, 0, 70, 47
2, 21623, Note_on_c, 0, 61, 0
2, 21624, Note_on_c, 0, 62, 0
2, 21625, Note_on_c, 0, 66, 0
2, 21626, Note_on_c, 0, 70, 0
2, 21627, Note_on_c, 0, 73, 0
2, 21632, Note_on_c, 0, 56, 0
2, 21685, Note_on_c, 0, 56, 63
2, 21686, Note_on_c, 0, 73, 53
2, 21686, Note_on_c, 0, 62, 74
2, 21687, Note_on_c, 0, 66, 71
2, 21687, Note_on_c, 0, 61, 77
2, 21689, Note_on_c, 0, 70, 40
2, 21693, Note_on_c, 0, 61, 0
2, 21693, Note_on_c, 0, 66, 0
2, 21693, Note_on_c, 0, 62, 0
2, 21695, Note_on_c, 0, 73, 0
2, 21695, Note_on_c, 0, 70, 0
2, 21698, Note_on_c, 0, 56, 0
2, 21754, Note_on_c, 0, 56, 71
2, 21754, Note_on_c, 0, 62, 81
2, 21756, Note_on_c, 0, 73, 60
2, 21756, Note_on_c, 0, 66, 80
2, 21757, Note_on_c, 0, 61, 86
2, 21758, Note_on_c, 0, 70, 56
2, 21763, Note_on_c, 0, 61, 0
2, 21764, Note_on_c, 0, 70, 0
2, 21766, Note_on_c, 0, 62, 0
2, 21766, Note_on_c, 0, 66, 0
2, 21768, Note_on_c, 0, 56, 0
2, 21770, Note_on_c, 0, 73, 0
2, 21834, Note_on_c, 0, 73, 62
2, 21835, Note_on_c, 0, 56, 77
2, 21835, Note_on_c, 0, 66, 80
2, 21835, Note_on_c, 0, 61, 85
2, 21836, Note_on_c, 0, 70, 64
2, 21836, Note_on_c, 0, 62, 87
2, 21845, Note_on_c, 0, 61, 0
2, 21847, Note_on_c, 0, 66, 0
2, 21849, Note_on_c, 0, 70, 0
2, 21849, Note_on_c, 0, 62, 0
2, 21851, Note_on_c, 0, 73, 0
2, 21853, Note_on_c, 0, 56, 0
2, 21919, Note_on_c, 0, 73, 53
2, 21919, Note_on_c, 0, 61, 77
2, 21919, Note_on_c, 0, 66, 71
2, 21920, Note_on_c, 0, 62, 73
2, 21920, Note_on_c, 0, 56, 64
2, 21921, Note_on_c, 0, 70, 54
2, 21953, Control_c, 0, 64, 127
2, 22010, Note_on_c, 0, 56, 0
2, 22042, Note_on_c, 0, 56, 29
2, 22047, Note_on_c, 0, 62, 0
2, 22049, Note_on_c, 0, 61, 0
2, 22058, Note_on_c, 0, 66, 0
2, 22059, Note_on_c, 0, 70, 0
2, 22070, Note_on_c, 0, 73, 0
2, 22076, Note_on_c, 0, 56, 0
2, 22090, Note_on_c, 0, 51, 67
2, 22095, Control_c, 0, 64, 0
2, 22127, Control_c, 0, 64, 127
2, 22189, Control_c, 0, 64, 0
2, 22207, Control_c, 0, 64, 127
2, 22281, Note_on_c, 0, 73, 59
2, 22282, Note_on_c, 0, 66, 76
2, 22282, Note_on_c, 0, 61, 82
2, 22284, Note_on_c, 0, 70, 58
2, 22284, Note_on_c, 0, 58, 51
2, 22298, Note_on_c, 0, 70, 0
2, 22313, Note_on_c, 0, 61, 0
2, 22313, Note_on_c, 0, 58, 0
2, 22316, Note_on_c, 0, 66, 0
2, 22320, Note_on_c, 0, 73, 0
2, 22330, Control_c, 0, 64, 0
2, 22332, Note_on_c, 0, 73, 42
2, 22335, Note_on_c, 0, 66, 56
2, 22335, Note_on_c, 0, 61, 44
2, 22339, Note_on_c, 0, 70, 50
2, 22348, Control_c, 0, 64, 127
2, 22365, Note_on_c, 0, 61, 0
2, 22370, Note_on_c, 0, 73, 0
2, 22384, Note_on_c, 0, 70, 0
2, 22385, Note_on_c, 0, 66, 0
2, 22404, Note_on_c, 0, 75, 60
2, 22405, Note_on_c, 0, 66, 40
2, 22409, Note_on_c, 0, 58, 49
2, 22426, Note_on_c, 0, 66, 0
2, 22427, Note_on_c, 0, 51, 0
2, 22427, Note_on_c, 0, 75, 0
2, 22435, Note_on_c, 0, 58, 0
2, 22440, Control_c, 0, 64, 0
2, 22445, Note_on_c, 0, 73, 27
2, 22446, Control_c, 0, 64, 127
2, 22447, Note_on_c, 0, 51, 38
2, 22448, Note_on_c, 0, 66, 35
2, 22449, Note_on_c, 0, 61, 29
2, 22467, Note_on_c, 0, 51, 0
2, 22476, Note_on_c, 0, 61, 0
2, 22483, Note_on_c, 0, 73, 0
2, 22489, Note_on_c, 0, 66, 0
2, 22526, Note_on_c, 0, 65, 54
2, 22527, Note_on_c, 0, 72, 36
2, 22528, Note_on_c, 0, 54, 36
2, 22528, Note_on_c, 0, 44, 46
2, 22532, Note_on_c, 0, 60, 25
2, 22534, Control_c, 0, 64, 0
2, 22570, Control_c, 0, 64, 127
2, 22615, Note_on_c, 0, 65, 0
2, 22632, Note_on_c, 0, 60, 0
2, 22640, Note_on_c, 0, 65, 67
2, 22690, Note_on_c, 0, 60, 24
2, 22702, Note_on_c, 0, 44, 0
2, 22706, Note_on_c, 0, 65, 0
2, 22735, Note_on_c, 0, 60, 0
2, 22761, Note_on_c, 0, 44, 42
2, 22768, Note_on_c, 0, 54, 0
2, 22771, Note_on_c, 0, 72, 0
2, 22783, Note_on_c, 0, 44, 0
2, 22806, Note_on_c, 0, 64, 51
2, 22806, Note_on_c, 0, 38, 25
2, 22807, Note_on_c, 0, 60, 38
2, 22809, Control_c, 0, 64, 0
2, 22811, Note_on_c, 0, 52, 45
2, 22841, Control_c, 0, 64, 127
2, 22889, Note_on_c, 0, 60, 0
2, 22891, Note_on_c, 0, 64, 0
2, 22893, Note_on_c, 0, 52, 0
2, 22909, Control_c, 0, 64, 0
2, 22918, Note_on_c, 0, 52, 36
2, 22921, Note_on_c, 0, 64, 39
2, 22923, Note_on_c, 0, 60, 29
2, 22927, Control_c, 0, 64, 127
2, 22945, Note_on_c, 0, 64, 0
2, 22956, Note_on_c, 0, 60, 0
2, 22971, Note_on_c, 0, 52, 0
2, 22984, Note_on_c, 0, 38, 0
2, 22999, Note_on_c, 0, 65, 53
2, 23000, Note_on_c, 0, 60, 34
2, 23002, Control_c, 0, 64, 0
2, 23005, Note_on_c, 0, 49, 35
2, 23038, Control_c, 0, 64, 127
2, 23050, Note_on_c, 0, 60, 0
2, 23071, Note_on_c, 0, 65, 0
2, 23112, Note_on_c, 0, 56, 48
2, 23123, Note_on_c, 0, 49, 0
2, 23130, Note_on_c, 0, 56, 0
2, 23160, Note_on_c, 0, 68, 52
2, 23172, Control_c, 0, 64, 0
2, 23184, Note_on_c, 0, 68, 0
2, 23194, Note_on_c, 0, 70, 37
2, 23208, Note_on_c, 0, 68, 36
2, 23216, Note_on_c, 0, 70, 0
2, 23227, Note_on_c, 0, 67, 66
2, 23230, Note_on_c, 0, 68, 0
2, 23237, Note_on_c, 0, 67, 0
2, 23280, Note_on_c, 0, 68, 72
2, 23281, Note_on_c, 0, 63, 36
2, 23289, Note_on_c, 0, 56, 28
2, 23290, Note_on_c, 0, 60, 34
2, 23313, Note_on_c, 0, 68, 0
2, 23328, Note_on_c, 0, 70, 26
2, 23334, Note_on_c, 0, 68, 39
2, 23337, Note_on_c, 0, 70, 0
2, 23354, Note_on_c, 0, 67, 49
2, 23355, Note_on_c, 0, 68, 0
2, 23365, Note_on_c, 0, 67, 0
2, 23401, Note_on_c, 0, 60, 0
2, 23401, Control_c, 0, 64, 127
2, 23402, Note_on_c, 0, 68, 70
2, 23408, Note_on_c, 0, 63, 0
2, 23411, Note_on_c, 0, 56, 0
2, 23444, Note_on_c, 0, 68, 0
2, 23518, Note_on_c, 0, 75, 34
2, 23519, Note_on_c, 0, 65, 42
2, 23519, Note_on_c, 0, 61, 34
2, 23519, Control_c, 0, 64, 0
2, 23520, Note_on_c, 0, 72, 25
2, 23522, Note_on_c, 0, 68, 26
2, 23522, Note_on_c, 0, 63, 30
2, 23561, Control_c, 0, 64, 127
2, 23637, Note_on_c, 0, 57, 60
2, 23643, Control_c, 0, 64, 0
2, 23649, Note_on_c, 0, 65, 0
2, 23673, Control_c, 0, 64, 127
2, 23702, Note_on_c, 0, 57, 0
2, 23714, Note_on_c, 0, 63, 0
2, 23721, Note_on_c, 0, 61, 0
2, 23754, Control_c, 0, 64, 0
2, 23759, Note_on_c, 0, 61, 38
2, 23761, Note_on_c, 0, 56, 34
2, 23762, Note_on_c, 0, 65, 34
2, 23762, Note_on_c, 0, 63, 29
2, 23786, Control_c, 0, 64, 127
2, 23820, Note_on_c, 0, 72, 0
2, 23835, Note_on_c, 0, 68, 0
2, 23845, Note_on_c, 0, 65, 0
2, 23851, Note_on_c, 0, 75, 0
2, 23895, Note_on_c, 0, 63, 0
2, 23896, Note_on_c, 0, 56, 0
2, 23906, Note_on_c, 0, 61, 0
2, 24002, Note_on_c, 0, 39, 57
2, 24007, Note_on_c, 0, 61, 57
2, 24008, Control_c, 0, 64, 0
2, 24009, Note_on_c, 0, 65, 66
2, 24009, Note_on_c, 0, 69, 60
2, 24040, Control_c, 0, 64, 127
2, 24066, Note_on_c, 0, 69, 0
2, 24067, Note_on_c, 0, 61, 0
2, 24072, Note_on_c, 0, 65, 0
2, 24072, Note_on_c, 0, 39, 0
2, 24079, Note_on_c, 0, 46, 50
2, 24080, Note_on_c, 0, 72, 49
2, 24088, Note_on_c, 0, 72, 0
2, 24120, Note_on_c, 0, 46, 0
2, 24123, Note_on_c, 0, 55, 56
2, 24132, Note_on_c, 0, 55, 0
2, 24201, Note_on_c, 0, 65, 74
2, 24202, Note_on_c, 0, 84, 82
2, 24202, Note_on_c, 0, 60, 68
2, 24202, Note_on_c, 0, 81, 76
2, 24202, Note_on_c, 0, 61, 51
2, 24203, Note_on_c, 0, 77, 80
2, 24203, Note_on_c, 0, 72, 75
2, 24205, Note_on_c, 0, 55, 71
2, 24210, Note_on_c, 0, 58, 32
2, 24211, Control_c, 0, 64, 0
2, 24214, Note_on_c, 0, 83, 22
2, 24221, Note_on_c, 0, 83, 0
2, 24252, Control_c, 0, 64, 127
2, 24290, Note_on_c, 0, 72, 0
2, 24291, Note_on_c, 0, 55, 0
2, 24295, Note_on_c, 0, 77, 0
2, 24295, Note_on_c, 0, 65, 0
2, 24297, Note_on_c, 0, 84, 0
2, 24300, Note_on_c, 0, 81, 0
2, 24301, Note_on_c, 0, 58, 0
2, 24302, Note_on_c, 0, 60, 0
2, 24315, Note_on_c, 0, 61, 0
2, 24326, Note_on_c, 0, 72, 65
2, 24326, Note_on_c, 0, 77, 70
2, 24327, Note_on_c, 0, 84, 73
2, 24327, Note_on_c, 0, 60, 71
2, 24328, Note_on_c, 0, 81, 64
2, 24328, Note_on_c, 0, 61, 51
2, 24330, Note_on_c, 0, 65, 74
2, 24332, Note_on_c, 0, 55, 64
2, 24340, Control_c, 0, 64, 0
2, 24370, Control_c, 0, 64, 127
2, 24377, Note_on_c, 0, 65, 0
2, 24382, Note_on_c, 0, 60, 0
2, 24384, Note_on_c, 0, 61, 0
2, 24387, Note_on_c, 0, 55, 0
2, 24398, Note_on_c, 0, 72, 0
2, 24402, Note_on_c, 0, 84, 0
2, 24410, Note_on_c, 0, 81, 0
2, 24412, Note_on_c, 0, 77, 0
2, 24482, Control_c, 0, 64, 0
2, 24485, Note_on_c, 0, 38, 65
2, 24493, Note_on_c, 0, 38, 0
2, 24498, Control_c, 0, 64, 127
2, 24564, Note_on_c, 0, 77, 64
2, 24565, Note_on_c, 0, 66, 67
2, 24566, Note_on_c, 0, 70, 71
2, 24566, Note_on_c, 0, 54, 52
2, 24571, Note_on_c, 0, 64, 37
2, 24572, Note_on_c, 0, 66, 0
2, 24573, Note_on_c, 0, 60, 45
2, 24578, Note_on_c, 0, 70, 0
2, 24580, Note_on_c, 0, 64, 0
2, 24581, Note_on_c, 0, 60, 0
2, 24581, Control_c, 0, 64, 0
2, 24583, Note_on_c, 0, 77, 0
2, 24585, Note_on_c, 0, 54, 0
2, 24641, Control_c, 0, 64, 127
2, 24723, Control_c, 0, 64, 0
2, 24731, Note_on_c, 0, 77, 61
2, 24733, Note_on_c, 0, 54, 46
2, 24733, Note_on_c, 0, 70, 65
2, 24735, Note_on_c, 0, 66, 47
2, 24740, Note_on_c, 0, 60, 34
2, 24747, Control_c, 0, 64, 127
2, 24792, Note_on_c, 0, 66, 0
2, 24795, Note_on_c, 0, 70, 0
2, 24798, Note_on_c, 0, 60, 0
2, 24800, Note_on_c, 0, 77, 0
2, 24809, Note_on_c, 0, 76, 60
2, 24813, Note_on_c, 0, 66, 50
2, 24817, Note_on_c, 0, 62, 48
2, 24826, Note_on_c, 0, 62, 0
2, 24833, Note_on_c, 0, 76, 0
2, 24842, Note_on_c, 0, 66, 0
2, 24851, Control_c, 0, 64, 0
2, 24852, Note_on_c, 0, 66, 25
2, 24853, Control_c, 0, 64, 127
2, 24853, Note_on_c, 0, 75, 52
2, 24857, Note_on_c, 0, 70, 47
2, 24870, Note_on_c, 0, 54, 0
2, 24922, Note_on_c, 0, 70, 0
2, 24926, Note_on_c, 0, 75, 0
2, 24936, Note_on_c, 0, 66, 0
2, 24960, Control_c, 0, 64, 0
2, 24962, Note_on_c, 0, 75, 50
2, 24965, Note_on_c, 0, 65, 41
2, 24965, Note_on_c, 0, 49, 45
2, 24966, Note_on_c, 0, 72, 39
2, 24966, Note_on_c, 0, 68, 37
2, 24994, Control_c, 0, 64, 127
2, 25012, Note_on_c, 0, 49, 0
2, 25027, Note_on_c, 0, 72, 0
2, 25030, Note_on_c, 0, 65, 0
2, 25034, Note_on_c, 0, 68, 0
2, 25044, Note_on_c, 0, 75, 0
2, 25143, Note_on_c, 0, 58, 29
2, 25161, Note_on_c, 0, 58, 0
2, 25161, Note_on_c, 0, 73, 56
2, 25164, Note_on_c, 0, 60, 62
2, 25165, Note_on_c, 0, 68, 59
2, 25165, Note_on_c, 0, 65, 60
2, 25166, Control_c, 0, 64, 0
2, 25203, Note_on_c, 0, 65, 0
2, 25208, Note_on_c, 0, 68, 0
2, 25211, Note_on_c, 0, 60, 0
2, 25224, Note_on_c, 0, 65, 41
2, 25228, Note_on_c, 0, 58, 31
2, 25232, Note_on_c, 0, 73, 0
2, 25234, Note_on_c, 0, 72, 42
2, 25252, Control_c, 0, 64, 127
2, 25274, Note_on_c, 0, 72, 0
2, 25274, Note_on_c, 0, 65, 0
2, 25293, Note_on_c, 0, 73, 51
2, 25294, Note_on_c, 0, 58, 0
2, 25296, Note_on_c, 0, 60, 56
2, 25296, Note_on_c, 0, 68, 45
2, 25298, Note_on_c, 0, 65, 50
2, 25301, Control_c, 0, 64, 0
2, 25304, Note_on_c, 0, 68, 0
2, 25304, Note_on_c, 0, 60, 0
2, 25305, Note_on_c, 0, 65, 0
2, 25317, Note_on_c, 0, 73, 0
2, 25339, Control_c, 0, 64, 127
2, 25399, Note_on_c, 0, 75, 67
2, 25399, Note_on_c, 0, 61, 70
2, 25400, Note_on_c, 0, 68, 69
2, 25401, Note_on_c, 0, 65, 73
2, 25401, Note_on_c, 0, 72, 47
2, 25408, Note_on_c, 0, 65, 0
2, 25409, Control_c, 0, 64, 0
2, 25411, Note_on_c, 0, 72, 0
2, 25412, Note_on_c, 0, 68, 0
2, 25414, Note_on_c, 0, 61, 0
2, 25417, Note_on_c, 0, 75, 0
2, 25457, Control_c, 0, 64, 127
2, 25511, Note_on_c, 0, 73, 55
2, 25513, Note_on_c, 0, 68, 62
2, 25513, Note_on_c, 0, 65, 64
2, 25515, Note_on_c, 0, 60, 57
2, 25517, Control_c, 0, 64, 0
2, 25557, Control_c, 0, 64, 127
2, 25627, Note_on_c, 0, 65, 0
2, 25633, Note_on_c, 0, 68, 0
2, 25642, Note_on_c, 0, 73, 0
2, 25653, Note_on_c, 0, 60, 0
2, 25662, Control_c, 0, 64, 0
2, 25668, Note_on_c, 0, 68, 44
2, 25669, Note_on_c, 0, 72, 36
2, 25671, Note_on_c, 0, 65, 45
2, 25682, Control_c, 0, 64, 127
2, 25732, Note_on_c, 0, 72, 0
2, 25747, Note_on_c, 0, 65, 0
2, 25751, Note_on_c, 0, 68, 0
2, 25793, Note_on_c, 0, 47, 31
2, 25794, Note_on_c, 0, 73, 36
2, 25794, Note_on_c, 0, 68, 51
2, 25830, Note_on_c, 0, 73, 0
2, 25852, Note_on_c, 0, 68, 0
2, 25860, Note_on_c, 0, 47, 0
2, 25906, Note_on_c, 0, 40, 39
2, 25908, Control_c, 0, 64, 0
2, 25910, Note_on_c, 0, 67, 51
2, 25911, Note_on_c, 0, 74, 44
2, 25912, Note_on_c, 0, 62, 42
2, 25914, Note_on_c, 0, 55, 44
2, 25927, Note_on_c, 0, 40, 0
2, 25932, Control_c, 0, 64, 127
2, 25947, Note_on_c, 0, 55, 0
2, 25979, Note_on_c, 0, 62, 0
2, 26041, Note_on_c, 0, 62, 62
2, 26042, Note_on_c, 0, 52, 53
2, 26048, Note_on_c, 0, 55, 57
2, 26049, Control_c, 0, 64, 0
2, 26052, Note_on_c, 0, 59, 35
2, 26077, Note_on_c, 0, 59, 0
2, 26077, Control_c, 0, 64, 127
2, 26086, Note_on_c, 0, 52, 0
2, 26089, Note_on_c, 0, 55, 0
2, 26102, Note_on_c, 0, 62, 0
2, 26132, Note_on_c, 0, 67, 0
2, 26159, Control_c, 0, 64, 0
2, 26160, Note_on_c, 0, 55, 88
2, 26161, Note_on_c, 0, 65, 84
2, 26161, Note_on_c, 0, 61, 74
2, 26190, Control_c, 0, 64, 127
2, 26243, Note_on_c, 0, 65, 0
2, 26282, Control_c, 0, 64, 0
2, 26284, Note_on_c, 0, 64, 56
2, 26298, Control_c, 0, 64, 127
2, 26324, Note_on_c, 0, 55, 0
2, 26338, Note_on_c, 0, 64, 0
2, 26363, Note_on_c, 0, 61, 0
2, 26392, Note_on_c, 0, 74, 0
2, 26396, Control_c, 0, 64, 0
2, 26397, Note_on_c, 0, 65, 51
2, 26399, Note_on_c, 0, 61, 37
2, 26400, Note_on_c, 0, 54, 29
2, 26402, Note_on_c, 0, 58, 37
2, 26426, Control_c, 0, 64, 127
2, 26457, Note_on_c, 0, 65, 0
2, 26478, Note_on_c, 0, 70, 75
2, 26479, Note_on_c, 0, 66, 77
2, 26488, Note_on_c, 0, 61, 0
2, 26499, Note_on_c, 0, 58, 0
2, 26520, Control_c, 0, 64, 0
2, 26521, Note_on_c, 0, 61, 30
2, 26528, Note_on_c, 0, 70, 0
2, 26528, Note_on_c, 0, 66, 0
2, 26528, Note_on_c, 0, 65, 47
2, 26535, Note_on_c, 0, 61, 0
2, 26547, Note_on_c, 0, 54, 0
2, 26549, Control_c, 0, 64, 127
2, 26590, Note_on_c, 0, 65, 0
2, 26599, Note_on_c, 0, 70, 56
2, 26599, Note_on_c, 0, 66, 49
2, 26627, Note_on_c, 0, 66, 0
2, 26635, Note_on_c, 0, 70, 0
2, 26647, Control_c, 0, 64, 0
2, 26648, Note_on_c, 0, 54, 39
2, 26649, Note_on_c, 0, 72, 40
2, 26649, Note_on_c, 0, 65, 61
2, 26649, Note_on_c, 0, 44, 34
2, 26677, Control_c, 0, 64, 127
2, 26731, Note_on_c, 0, 44, 0
2, 26746, Note_on_c, 0, 65, 0
2, 26750, Note_on_c, 0, 54, 0
2, 26753, Note_on_c, 0, 72, 0
2, 26763, Note_on_c, 0, 44, 42
2, 26764, Note_on_c, 0, 54, 39
2, 26765, Control_c, 0, 64, 0
2, 26773, Control_c, 0, 64, 127
2, 26827, Note_on_c, 0, 54, 0
2, 26842, Note_on_c, 0, 65, 40
2, 26843, Note_on_c, 0, 72, 19
2, 26850, Note_on_c, 0, 65, 0
2, 26853, Note_on_c, 0, 72, 0
2, 26853, Note_on_c, 0, 44, 0
2, 26885, Note_on_c, 0, 56, 43
2, 26886, Control_c, 0, 64, 0
2, 26888, Note_on_c, 0, 49, 48
2, 26889, Note_on_c, 0, 65, 72
2, 26912, Control_c, 0, 64, 127
2, 26926, Note_on_c, 0, 49, 0
2, 26934, Note_on_c, 0, 56, 0
2, 26942, Note_on_c, 0, 65, 0
2, 26962, Note_on_c, 0, 73, 44
2, 26966, Note_on_c, 0, 65, 65
2, 26966, Note_on_c, 0, 68, 64
2, 26984, Note_on_c, 0, 65, 0
2, 26987, Note_on_c, 0, 73, 0
2, 26992, Note_on_c, 0, 68, 0
2, 27011, Note_on_c, 0, 75, 70
2, 27012, Control_c, 0, 64, 0
2, 27012, Note_on_c, 0, 72, 62
2, 27013, Note_on_c, 0, 68, 70
2, 27014, Note_on_c, 0, 65, 72
2, 27016, Note_on_c, 0, 63, 77
2, 27056, Control_c, 0, 64, 127
2, 27069, Note_on_c, 0, 63, 0
2, 27072, Note_on_c, 0, 65, 0
2, 27073, Note_on_c, 0, 68, 0
2, 27073, Note_on_c, 0, 72, 0
2, 27074, Note_on_c, 0, 75, 0
2, 27086, Note_on_c, 0, 68, 58
2, 27087, Note_on_c, 0, 73, 44
2, 27088, Note_on_c, 0, 61, 56
2, 27088, Note_on_c, 0, 65, 65
2, 27109, Note_on_c, 0, 73, 0
2, 27109, Note_on_c, 0, 68, 0
2, 27119, Note_on_c, 0, 65, 0
2, 27122, Note_on_c, 0, 61, 0
2, 27134, Control_c, 0, 64, 0
2, 27137, Note_on_c, 0, 65, 42
2, 27139, Note_on_c, 0, 72, 37
2, 27140, Note_on_c, 0, 68, 34
2, 27140, Note_on_c, 0, 60, 46
2, 27158, Control_c, 0, 64, 127
2, 27161, Note_on_c, 0, 65, 0
2, 27165, Note_on_c, 0, 60, 0
2, 27184, Note_on_c, 0, 72, 0
2, 27186, Note_on_c, 0, 68, 0
2, 27210, Note_on_c, 0, 68, 39
2, 27215, Note_on_c, 0, 65, 54
2, 27215, Note_on_c, 0, 60, 36
2, 27216, Note_on_c, 0, 56, 33
2, 27222, Note_on_c, 0, 49, 21
2, 27228, Control_c, 0, 64, 0
2, 27230, Note_on_c, 0, 60, 0
2, 27234, Note_on_c, 0, 65, 0
2, 27236, Note_on_c, 0, 56, 0
2, 27240, Note_on_c, 0, 68, 0
2, 27261, Control_c, 0, 64, 127
2, 27291, Note_on_c, 0, 49, 0
2, 27321, Note_on_c, 0, 65, 49
2, 27321, Note_on_c, 0, 53, 34
2, 27325, Control_c, 0, 64, 0
2, 27326, Note_on_c, 0, 60, 30
2, 27331, Note_on_c, 0, 49, 19
2, 27359, Note_on_c, 0, 49, 0
2, 27365, Control_c, 0, 64, 127
2, 27391, Note_on_c, 0, 65, 0
2, 27393, Note_on_c, 0, 60, 0
2, 27404, Note_on_c, 0, 53, 0
2, 27427, Control_c, 0, 64, 0
2, 27436, Note_on_c, 0, 70, 67
2, 27438, Note_on_c, 0, 65, 72
2, 27439, Note_on_c, 0, 49, 45
2, 27440, Note_on_c, 0, 60, 71
2, 27441, Note_on_c, 0, 58, 57
2, 27445, Control_c, 0, 64, 127
2, 27464, Note_on_c, 0, 58, 0
2, 27469, Note_on_c, 0, 60, 0
2, 27475, Control_c, 0, 64, 0
2, 27476, Note_on_c, 0, 65, 0
2, 27478, Note_on_c, 0, 70, 0
2, 27490, Note_on_c, 0, 65, 28
2, 27491, Note_on_c, 0, 56, 31
2, 27492, Note_on_c, 0, 68, 53
2, 27494, Note_on_c, 0, 60, 55
2, 27507, Control_c, 0, 64, 127
2, 27512, Note_on_c, 0, 65, 0
2, 27522, Note_on_c, 0, 60, 0
2, 27531, Note_on_c, 0, 56, 0
2, 27551, Note_on_c, 0, 68, 0
2, 27567, Note_on_c, 0, 60, 60
2, 27568, Note_on_c, 0, 65, 63
2, 27568, Note_on_c, 0, 53, 55
2, 27573, Control_c, 0, 64, 0
2, 27574, Note_on_c, 0, 63, 35
2, 27610, Control_c, 0, 64, 127
2, 27644, Note_on_c, 0, 60, 0
2, 27646, Note_on_c, 0, 49, 0
2, 27647, Note_on_c, 0, 63, 0
2, 27650, Note_on_c, 0, 53, 0
2, 27660, Note_on_c, 0, 65, 0
2, 27683, Note_on_c, 0, 63, 51
2, 27686, Note_on_c, 0, 60, 59
2, 27686, Note_on_c, 0, 49, 46
2, 27692, Control_c, 0, 64, 0
2, 27714, Control_c, 0, 64, 127
2, 27718, Note_on_c, 0, 49, 0
2, 27730, Note_on_c, 0, 60, 0
2, 27744, Note_on_c, 0, 63, 0
2, 27793, Note_on_c, 0, 63, 53
2, 27794, Control_c, 0, 64, 0
2, 27795, Note_on_c, 0, 59, 52
2, 27796, Note_on_c, 0, 44, 45
2, 27798, Note_on_c, 0, 54, 36
2, 27815, Note_on_c, 0, 59, 0
2, 27822, Control_c, 0, 64, 127
2, 27825, Note_on_c, 0, 63, 0
2, 27826, Note_on_c, 0, 44, 0
2, 27839, Note_on_c, 0, 54, 0
2, 27916, Note_on_c, 0, 95, 80
2, 27951, Note_on_c, 0, 95, 0
2, 27956, Note_on_c, 0, 63, 37
2, 27962, Note_on_c, 0, 94, 56
2, 27963, Note_on_c, 0, 54, 19
2, 27964, Note_on_c, 0, 59, 37
2, 27965, Control_c, 0, 64, 0
2, 27965, Note_on_c, 0, 58, 30
2, 27978, Note_on_c, 0, 94, 0
2, 27994, Note_on_c, 0, 92, 62
2, 27995, Control_c, 0, 64, 127
2, 28010, Note_on_c, 0, 92, 0
2, 28012, Note_on_c, 0, 59, 0
2, 28018, Note_on_c, 0, 63, 0
2, 28034, Note_on_c, 0, 90, 76
2, 28035, Note_on_c, 0, 58, 0
2, 28067, Note_on_c, 0, 90, 0
2, 28069, Control_c, 0, 64, 0
2, 28076, Note_on_c, 0, 63, 38
2, 28081, Note_on_c, 0, 58, 30
2, 28083, Note_on_c, 0, 59, 42
2, 28094, Note_on_c, 0, 59, 0
2, 28097, Note_on_c, 0, 63, 0
2, 28097, Control_c, 0, 64, 127
2, 28114, Note_on_c, 0, 89, 60
2, 28136, Note_on_c, 0, 89, 0
2, 28148, Note_on_c, 0, 58, 0
2, 28150, Note_on_c, 0, 94, 59
2, 28151, Note_on_c, 0, 87, 64
2, 28164, Note_on_c, 0, 94, 0
2, 28172, Note_on_c, 0, 87, 0
2, 28174, Note_on_c, 0, 54, 0
2, 28187, Note_on_c, 0, 94, 45
2, 28192, Note_on_c, 0, 85, 60
2, 28193, Note_on_c, 0, 63, 42
2, 28196, Note_on_c, 0, 54, 21
2, 28197, Control_c, 0, 64, 0
2, 28197, Note_on_c, 0, 58, 36
2, 28200, Note_on_c, 0, 59, 36
2, 28210, Note_on_c, 0, 85, 0
2, 28215, Note_on_c, 0, 94, 0
2, 28216, Note_on_c, 0, 63, 0
2, 28217, Control_c, 0, 64, 127
2, 28222, Note_on_c, 0, 59, 0
2, 28237, Note_on_c, 0, 83, 42
2, 28241, Note_on_c, 0, 58, 0
2, 28246, Note_on_c, 0, 83, 0
2, 28261, Note_on_c, 0, 54, 0
2, 28274, Note_on_c, 0, 89, 75
2, 28277, Note_on_c, 0, 83, 68
2, 28279, Note_on_c, 0, 58, 49
2, 28279, Note_on_c, 0, 62, 64
2, 28282, Note_on_c, 0, 57, 62
2, 28282, Note_on_c, 0, 53, 41
2, 28285, Control_c, 0, 64, 0
2, 28292, Note_on_c, 0, 83, 0
2, 28318, Control_c, 0, 64, 127
2, 28346, Note_on_c, 0, 89, 0
2, 28356, Note_on_c, 0, 86, 77
2, 28379, Note_on_c, 0, 58, 0
2, 28381, Note_on_c, 0, 86, 0
2, 28382, Note_on_c, 0, 62, 0
2, 28394, Note_on_c, 0, 82, 54
2, 28420, Note_on_c, 0, 82, 0
2, 28430, Control_c, 0, 64, 0
2, 28432, Note_on_c, 0, 77, 51
2, 28433, Note_on_c, 0, 62, 45
2, 28442, Note_on_c, 0, 58, 19
2, 28456, Note_on_c, 0, 77, 0
2, 28462, Control_c, 0, 64, 127
2, 28471, Note_on_c, 0, 74, 43
2, 28477, Note_on_c, 0, 62, 0
2, 28482, Note_on_c, 0, 57, 0
2, 28486, Note_on_c, 0, 58, 0
2, 28495, Note_on_c, 0, 74, 0
2, 28496, Note_on_c, 0, 53, 0
2, 28516, Note_on_c, 0, 75, 73
2, 28519, Note_on_c, 0, 62, 59
2, 28521, Note_on_c, 0, 58, 37
2, 28522, Note_on_c, 0, 52, 47
2, 28527, Note_on_c, 0, 76, 35
2, 28528, Control_c, 0, 64, 0
2, 28544, Note_on_c, 0, 76, 0
2, 28544, Note_on_c, 0, 75, 0
2, 28544, Note_on_c, 0, 62, 0
2, 28552, Note_on_c, 0, 58, 0
2, 28553, Note_on_c, 0, 52, 0
2, 28560, Note_on_c, 0, 76, 40
2, 28590, Note_on_c, 0, 76, 0
2, 28597, Note_on_c, 0, 78, 47
2, 28612, Control_c, 0, 64, 127
2, 28614, Note_on_c, 0, 78, 0
2, 28626, Note_on_c, 0, 79, 45
2, 28648, Note_on_c, 0, 79, 0
2, 28655, Note_on_c, 0, 81, 60
2, 28671, Control_c, 0, 64, 0
2, 28679, Note_on_c, 0, 81, 0
2, 28684, Note_on_c, 0, 58, 39
2, 28687, Note_on_c, 0, 82, 59
2, 28687, Note_on_c, 0, 48, 36
2, 28711, Note_on_c, 0, 48, 0
2, 28711, Note_on_c, 0, 82, 0
2, 28711, Control_c, 0, 64, 127
2, 28711, Note_on_c, 0, 84, 60
2, 28728, Note_on_c, 0, 58, 0
2, 28730, Note_on_c, 0, 84, 0
2, 28733, Note_on_c, 0, 86, 60
2, 28754, Note_on_c, 0, 87, 46
2, 28761, Note_on_c, 0, 86, 0
2, 28773, Note_on_c, 0, 87, 0
2, 28773, Note_on_c, 0, 88, 56
2, 28791, Note_on_c, 0, 88, 0
2, 28793, Note_on_c, 0, 91, 72
2, 28803, Control_c, 0, 64, 0
2, 28806, Note_on_c, 0, 63, 37
2, 28811, Note_on_c, 0, 60, 43
2, 28813, Note_on_c, 0, 89, 58
2, 28813, Note_on_c, 0, 56, 30
2, 28814, Note_on_c, 0, 53, 15
2, 28823, Note_on_c, 0, 91, 0
2, 28837, Control_c, 0, 64, 127
2, 28849, Note_on_c, 0, 89, 0
2, 28851, Note_on_c, 0, 63, 0
2, 28853, Note_on_c, 0, 84, 44
2, 28878, Note_on_c, 0, 84, 0
2, 28879, Note_on_c, 0, 80, 32
2, 28891, Note_on_c, 0, 80, 0
2, 28891, Note_on_c, 0, 60, 0
2, 28892, Note_on_c, 0, 56, 0
2, 28936, Note_on_c, 0, 82, 67
2, 28938, Note_on_c, 0, 63, 37
2, 28939, Control_c, 0, 64, 0
2, 28945, Note_on_c, 0, 60, 34
2, 28947, Note_on_c, 0, 56, 26
2, 28956, Note_on_c, 0, 63, 0
2, 28960, Note_on_c, 0, 82, 0
2, 28968, Note_on_c, 0, 60, 0
2, 28972, Note_on_c, 0, 80, 59
2, 28979, Control_c, 0, 64, 127
2, 28988, Note_on_c, 0, 80, 0
2, 28991, Note_on_c, 0, 56, 0
2, 28996, Note_on_c, 0, 82, 44
2, 29015, Note_on_c, 0, 80, 36
2, 29031, Note_on_c, 0, 82, 0
2, 29034, Note_on_c, 0, 79, 48
2, 29036, Note_on_c, 0, 80, 0
2, 29047, Note_on_c, 0, 63, 35
2, 29050, Note_on_c, 0, 79, 0
2, 29050, Control_c, 0, 64, 0
2, 29054, Note_on_c, 0, 60, 33
2, 29054, Note_on_c, 0, 56, 26
2, 29068, Note_on_c, 0, 78, 64
2, 29088, Note_on_c, 0, 63, 0
2, 29090, Control_c, 0, 64, 127
2, 29091, Note_on_c, 0, 78, 0
2, 29102, Note_on_c, 0, 77, 48
2, 29106, Note_on_c, 0, 60, 0
2, 29121, Note_on_c, 0, 77, 0
2, 29126, Note_on_c, 0, 56, 0
2, 29130, Note_on_c, 0, 75, 56
2, 29156, Note_on_c, 0, 75, 0
2, 29160, Note_on_c, 0, 72, 43
2, 29180, Control_c, 0, 64, 0
2, 29183, Note_on_c, 0, 72, 0
2, 29198, Control_c, 0, 64, 127
2, 29201, Note_on_c, 0, 68, 23
2, 29225, Note_on_c, 0, 53, 0
2, 29228, Note_on_c, 0, 68, 0
2, 29249, Note_on_c, 0, 65, 53
2, 29282, Note_on_c, 0, 65, 0
2, 29297, Note_on_c, 0, 56, 50
2, 29302, Control_c, 0, 64, 0
2, 29361, Note_on_c, 0, 56, 0
2, 29370, Note_on_c, 0, 46, 47
2, 29375, Control_c, 0, 64, 127
2, 29381, Note_on_c, 0, 46, 0
2, 29411, Control_c, 0, 64, 0
2, 29413, Note_on_c, 0, 75, 58
2, 29414, Note_on_c, 0, 63, 61
2, 29415, Note_on_c, 0, 68, 53
2, 29420, Note_on_c, 0, 63, 0
2, 29422, Note_on_c, 0, 68, 0
2, 29428, Note_on_c, 0, 75, 0
2, 29451, Control_c, 0, 64, 127
2, 29471, Control_c, 0, 64, 0
2, 29488, Note_on_c, 0, 75, 44
2, 29490, Note_on_c, 0, 68, 52
2, 29492, Note_on_c, 0, 72, 32
2, 29493, Note_on_c, 0, 61, 39
2, 29493, Note_on_c, 0, 65, 49
2, 29500, Note_on_c, 0, 68, 0
2, 29501, Note_on_c, 0, 65, 0
2, 29503, Note_on_c, 0, 75, 0
2, 29503, Note_on_c, 0, 72, 0
2, 29509, Note_on_c, 0, 61, 0
2, 29537, Note_on_c, 0, 75, 47
2, 29537, Note_on_c, 0, 61, 37
2, 29543, Control_c, 0, 64, 127
2, 29552, Note_on_c, 0, 75, 0
2, 29558, Note_on_c, 0, 61, 0
2, 29605, Note_on_c, 0, 75, 74
2, 29607, Note_on_c, 0, 61, 67
2, 29609, Note_on_c, 0, 65, 60
2, 29609, Note_on_c, 0, 68, 65
2, 29610, Note_on_c, 0, 63, 67
2, 29614, Note_on_c, 0, 72, 26
2, 29615, Note_on_c, 0, 65, 0
2, 29628, Note_on_c, 0, 72, 0
2, 29632, Note_on_c, 0, 68, 0
2, 29632, Note_on_c, 0, 75, 0
2, 29635, Control_c, 0, 64, 0
2, 29636, Note_on_c, 0, 61, 0
2, 29637, Note_on_c, 0, 63, 0
2, 29651, Note_on_c, 0, 73, 51
2, 29652, Note_on_c, 0, 61, 48
2, 29652, Note_on_c, 0, 63, 53
2, 29655, Note_on_c, 0, 68, 57
2, 29666, Note_on_c, 0, 61, 0
2, 29667, Control_c, 0, 64, 127
2, 29706, Note_on_c, 0, 68, 0
2, 29713, Note_on_c, 0, 63, 0
2, 29723, Note_on_c, 0, 73, 0
2, 29766, Control_c, 0, 64, 0
2, 29768, Note_on_c, 0, 61, 71
2, 29769, Note_on_c, 0, 57, 70
2, 29770, Note_on_c, 0, 69, 68
2, 29771, Note_on_c, 0, 51, 34
2, 29771, Note_on_c, 0, 65, 70
2, 29808, Control_c, 0, 64, 127
2, 29889, Note_on_c, 0, 51, 0
2, 29893, Note_on_c, 0, 57, 0
2, 29898, Note_on_c, 0, 61, 0
2, 29921, Note_on_c, 0, 69, 0
2, 29921, Note_on_c, 0, 65, 0
2, 29950, Note_on_c, 0, 59, 64
2, 29961, Note_on_c, 0, 72, 66
2, 29962, Note_on_c, 0, 65, 80
2, 29963, Note_on_c, 0, 61, 81
2, 29963, Note_on_c, 0, 58, 40
2, 29963, Note_on_c, 0, 69, 70
2, 29964, Note_on_c, 0, 60, 83
2, 29968, Control_c, 0, 64, 0
2, 29970, Note_on_c, 0, 58, 0
2, 29977, Note_on_c, 0, 59, 0
2, 30012, Control_c, 0, 64, 127
2, 30049, Note_on_c, 0, 65, 0
2, 30050, Note_on_c, 0, 61, 0
2, 30050, Note_on_c, 0, 72, 0
2, 30051, Note_on_c, 0, 69, 0
2, 30071, Note_on_c, 0, 70, 68
2, 30073, Note_on_c, 0, 58, 57
2, 30074, Note_on_c, 0, 61, 67
2, 30074, Note_on_c, 0, 65, 73
2, 30078, Note_on_c, 0, 60, 0
2, 30083, Control_c, 0, 64, 0
2, 30096, Note_on_c, 0, 58, 0
2, 30101, Control_c, 0, 64, 127
2, 30115, Note_on_c, 0, 65, 0
2, 30117, Note_on_c, 0, 61, 0
2, 30122, Note_on_c, 0, 70, 0
2, 30190, Note_on_c, 0, 61, 48
2, 30190, Note_on_c, 0, 68, 39
2, 30193, Note_on_c, 0, 57, 47
2, 30194, Note_on_c, 0, 64, 56
2, 30195, Note_on_c, 0, 52, 40
2, 30195, Note_on_c, 0, 42, 33
2, 30201, Control_c, 0, 64, 0
2, 30245, Control_c, 0, 64, 127
2, 30270, Note_on_c, 0, 42, 0
2, 30308, Note_on_c, 0, 42, 53
2, 30313, Note_on_c, 0, 52, 0
2, 30329, Note_on_c, 0, 42, 0
2, 30395, Note_on_c, 0, 57, 0
2, 30400, Note_on_c, 0, 64, 0
2, 30412, Note_on_c, 0, 68, 0
2, 30423, Note_on_c, 0, 61, 0
2, 30430, Note_on_c, 0, 66, 61
2, 30434, Note_on_c, 0, 61, 20
2, 30457, Note_on_c, 0, 61, 0
2, 30472, Note_on_c, 0, 66, 0
2, 30482, Control_c, 0, 64, 0
2, 30487, Note_on_c, 0, 63, 43
2, 30487, Note_on_c, 0, 54, 36
2, 30488, Note_on_c, 0, 61, 32
2, 30489, Note_on_c, 0, 57, 35
2, 30491, Note_on_c, 0, 47, 37
2, 30524, Control_c, 0, 64, 127
2, 30563, Note_on_c, 0, 54, 0
2, 30581, Note_on_c, 0, 54, 53
2, 30584, Control_c, 0, 64, 0
2, 30595, Note_on_c, 0, 54, 0
2, 30601, Note_on_c, 0, 47, 0
2, 30602, Control_c, 0, 64, 127
2, 30613, Note_on_c, 0, 57, 0
2, 30634, Note_on_c, 0, 61, 0
2, 30647, Note_on_c, 0, 63, 0
2, 30678, Note_on_c, 0, 56, 55
2, 30678, Control_c, 0, 64, 0
2, 30680, Note_on_c, 0, 41, 58
2, 30681, Note_on_c, 0, 51, 46
2, 30682, Note_on_c, 0, 60, 63
2, 30697, Note_on_c, 0, 56, 0
2, 30699, Note_on_c, 0, 41, 0
2, 30706, Note_on_c, 0, 60, 0
2, 30710, Control_c, 0, 64, 127
2, 30712, Note_on_c, 0, 51, 0
2, 30788, Note_on_c, 0, 58, 52
2, 30794, Note_on_c, 0, 59, 69
2, 30795, Note_on_c, 0, 58, 0
2, 30799, Note_on_c, 0, 72, 62
2, 30799, Note_on_c, 0, 63, 77
2, 30802, Note_on_c, 0, 60, 74
2, 30803, Note_on_c, 0, 68, 50
2, 30803, Note_on_c, 0, 65, 60
2, 30804, Note_on_c, 0, 59, 0
2, 30805, Note_on_c, 0, 64, 58
2, 30811, Control_c, 0, 64, 0
2, 30812, Note_on_c, 0, 64, 0
2, 30851, Control_c, 0, 64, 127
2, 30853, Note_on_c, 0, 60, 0
2, 30904, Note_on_c, 0, 63, 0
2, 30908, Note_on_c, 0, 72, 0
2, 30908, Note_on_c, 0, 65, 0
2, 30909, Note_on_c, 0, 68, 0
2, 30970, Note_on_c, 0, 70, 42
2, 30971, Note_on_c, 0, 56, 32
2, 30971, Note_on_c, 0, 46, 34
2, 30972, Note_on_c, 0, 62, 35
2, 30975, Control_c, 0, 64, 0
2, 30977, Note_on_c, 0, 65, 32
2, 30978, Note_on_c, 0, 67, 32
2, 30989, Note_on_c, 0, 65, 0
2, 30990, Note_on_c, 0, 56, 0
2, 30991, Note_on_c, 0, 67, 0
2, 30992, Note_on_c, 0, 62, 0
2, 30996, Note_on_c, 0, 46, 0
2, 31035, Control_c, 0, 64, 127
2, 31043, Note_on_c, 0, 70, 0
2, 31073, Control_c, 0, 64, 0
2, 31085, Note_on_c, 0, 46, 23
2, 31085, Note_on_c, 0, 56, 25
2, 31086, Note_on_c, 0, 62, 42
2, 31099, Note_on_c, 0, 46, 0
2, 31108, Control_c, 0, 64, 127
2, 31111, Note_on_c, 0, 56, 0
2, 31119, Note_on_c, 0, 62, 0
2, 31192, Control_c, 0, 64, 0
2, 31196, Note_on_c, 0, 58, 35
2, 31197, Note_on_c, 0, 54, 35
2, 31198, Note_on_c, 0, 61, 36
2, 31199, Note_on_c, 0, 68, 44
2, 31200, Note_on_c, 0, 65, 50
2, 31202, Note_on_c, 0, 56, 37
2, 31222, Control_c, 0, 64, 127
2, 31246, Note_on_c, 0, 56, 0
2, 31246, Note_on_c, 0, 58, 0
2, 31250, Note_on_c, 0, 65, 0
2, 31253, Note_on_c, 0, 54, 0
2, 31255, Note_on_c, 0, 61, 0
2, 31260, Note_on_c, 0, 68, 0
2, 31280, Note_on_c, 0, 61, 50
2, 31280, Note_on_c, 0, 58, 44
2, 31281, Note_on_c, 0, 54, 46
2, 31282, Note_on_c, 0, 68, 35
2, 31283, Note_on_c, 0, 65, 58
2, 31283, Note_on_c, 0, 56, 39
2, 31297, Note_on_c, 0, 58, 0
2, 31300, Note_on_c, 0, 56, 0
2, 31303, Note_on_c, 0, 61, 0
2, 31305, Note_on_c, 0, 54, 0
2, 31306, Note_on_c, 0, 65, 0
2, 31309, Note_on_c, 0, 68, 0
2, 31328, Note_on_c, 0, 61, 43
2, 31330, Note_on_c, 0, 54, 35
2, 31332, Note_on_c, 0, 65, 38
2, 31335, Note_on_c, 0, 68, 25
2, 31339, Note_on_c, 0, 56, 18
2, 31347, Note_on_c, 0, 65, 0
2, 31350, Note_on_c, 0, 56, 0
2, 31351, Note_on_c, 0, 61, 0
2, 31355, Note_on_c, 0, 68, 0
2, 31356, Note_on_c, 0, 54, 0
2, 31390, Note_on_c, 0, 54, 40
2, 31401, Note_on_c, 0, 54, 0
2, 31403, Note_on_c, 0, 61, 48
2, 31405, Note_on_c, 0, 65, 40
2, 31406, Note_on_c, 0, 68, 32
2, 31414, Note_on_c, 0, 65, 0
2, 31427, Note_on_c, 0, 61, 0
2, 31442, Note_on_c, 0, 68, 0
2, 31448, Control_c, 0, 64, 0
2, 31453, Note_on_c, 0, 44, 44
2, 31454, Note_on_c, 0, 54, 27
2, 31458, Note_on_c, 0, 64, 50
2, 31461, Note_on_c, 0, 60, 34
2, 31485, Note_on_c, 0, 60, 0
2, 31486, Control_c, 0, 64, 127
2, 31487, Note_on_c, 0, 64, 0
2, 31490, Note_on_c, 0, 44, 0
2, 31506, Note_on_c, 0, 54, 0
2, 31535, Note_on_c, 0, 54, 38
2, 31538, Note_on_c, 0, 64, 54
2, 31539, Control_c, 0, 64, 0
2, 31540, Note_on_c, 0, 44, 28
2, 31541, Note_on_c, 0, 60, 36
2, 31567, Control_c, 0, 64, 127
2, 31570, Note_on_c, 0, 64, 0
2, 31573, Note_on_c, 0, 54, 0
2, 31582, Note_on_c, 0, 44, 0
2, 31583, Note_on_c, 0, 60, 0
2, 31651, Note_on_c, 0, 53, 41
2, 31652, Note_on_c, 0, 60, 50
2, 31653, Note_on_c, 0, 37, 44
2, 31653, Control_c, 0, 64, 0
2, 31660, Note_on_c, 0, 44, 29
2, 31683, Control_c, 0, 64, 127
2, 31689, Note_on_c, 0, 37, 0
2, 31690, Note_on_c, 0, 53, 0
2, 31703, Note_on_c, 0, 60, 0
2, 31717, Note_on_c, 0, 46, 20
2, 31726, Note_on_c, 0, 46, 0
2, 31752, Note_on_c, 0, 44, 0
2, 31768, Note_on_c, 0, 53, 57
2, 31819, Note_on_c, 0, 60, 57
2, 31825, Note_on_c, 0, 53, 0
2, 31838, Note_on_c, 0, 60, 0
2, 31882, Note_on_c, 0, 65, 83
2, 31913, Note_on_c, 0, 65, 0
2, 31998, Note_on_c, 0, 63, 76
2, 31998, Note_on_c, 0, 75, 76
2, 31999, Note_on_c, 0, 68, 78
2, 32001, Note_on_c, 0, 72, 62
2, 32001, Note_on_c, 0, 65, 82
2, 32002, Control_c, 0, 64, 0
2, 32029, Note_on_c, 0, 72, 0
2, 32033, Note_on_c, 0, 65, 0
2, 32039, Note_on_c, 0, 68, 0
2, 32043, Note_on_c, 0, 75, 0
2, 32044, Note_on_c, 0, 63, 0
2, 32046, Control_c, 0, 64, 127
2, 32048, Note_on_c, 0, 73, 34
2, 32051, Note_on_c, 0, 60, 49
2, 32055, Note_on_c, 0, 65, 43
2, 32056, Note_on_c, 0, 68, 28
2, 32063, Note_on_c, 0, 75, 19
2, 32077, Note_on_c, 0, 65, 0
2, 32096, Note_on_c, 0, 60, 0
2, 32098, Note_on_c, 0, 68, 0
2, 32106, Note_on_c, 0, 75, 0
2, 32108, Note_on_c, 0, 73, 0
2, 32156, Control_c, 0, 64, 0
2, 32164, Note_on_c, 0, 51, 71
2, 32186, Control_c, 0, 64, 127
2, 32239, Note_on_c, 0, 80, 73
2, 32240, Note_on_c, 0, 61, 68
2, 32240, Note_on_c, 0, 73, 67
2, 32242, Note_on_c, 0, 54, 37
2, 32242, Note_on_c, 0, 68, 64
2, 32243, Control_c, 0, 64, 0
2, 32244, Note_on_c, 0, 58, 57
2, 32273, Note_on_c, 0, 61, 0
2, 32277, Control_c, 0, 64, 127
2, 32283, Note_on_c, 0, 58, 0
2, 32289, Note_on_c, 0, 54, 0
2, 32289, Note_on_c, 0, 51, 0
2, 32303, Note_on_c, 0, 68, 0
2, 32311, Note_on_c, 0, 73, 0
2, 32320, Note_on_c, 0, 80, 0
2, 32350, Note_on_c, 0, 44, 70
2, 32351, Control_c, 0, 64, 0
2, 32367, Note_on_c, 0, 44, 0
2, 32371, Control_c, 0, 64, 127
2, 32408, Note_on_c, 0, 83, 74
2, 32409, Note_on_c, 0, 78, 65
2, 32410, Note_on_c, 0, 71, 76
2, 32410, Note_on_c, 0, 54, 70
2, 32411, Note_on_c, 0, 64, 76
2, 32411, Note_on_c, 0, 76, 75
2, 32412, Control_c, 0, 64, 0
2, 32413, Note_on_c, 0, 59, 75
2, 32446, Control_c, 0, 64, 127
2, 32452, Note_on_c, 0, 76, 0
2, 32455, Note_on_c, 0, 71, 0
2, 32456, Note_on_c, 0, 64, 0
2, 32457, Note_on_c, 0, 78, 0
2, 32459, Note_on_c, 0, 59, 0
2, 32459, Note_on_c, 0, 83, 0
2, 32461, Note_on_c, 0, 54, 0
2, 32484, Control_c, 0, 64, 0
2, 32489, Note_on_c, 0, 78, 69
2, 32490, Note_on_c, 0, 83, 68
2, 32491, Note_on_c, 0, 54, 67
2, 32491, Note_on_c, 0, 76, 80
2, 32492, Note_on_c, 0, 71, 74
2, 32492, Note_on_c, 0, 59, 75
2, 32493, Note_on_c, 0, 64, 79
2, 32526, Control_c, 0, 64, 127
2, 32542, Note_on_c, 0, 83, 0
2, 32547, Note_on_c, 0, 76, 0
2, 32553, Note_on_c, 0, 78, 0
2, 32554, Note_on_c, 0, 71, 0
2, 32557, Note_on_c, 0, 59, 0
2, 32558, Note_on_c, 0, 64, 0
2, 32579, Note_on_c, 0, 54, 0
2, 32611, Note_on_c, 0, 44, 59
2, 32642, Control_c, 0, 64, 0
2, 32643, Note_on_c, 0, 44, 0
2, 32654, Note_on_c, 0, 80, 56
2, 32655, Note_on_c, 0, 63, 74
2, 32656, Note_on_c, 0, 73, 50
2, 32656, Note_on_c, 0, 77, 56
2, 32657, Note_on_c, 0, 68, 62
2, 32657, Note_on_c, 0, 53, 69
2, 32658, Note_on_c, 0, 58, 60
2, 32660, Note_on_c, 0, 37, 64
2, 32672, Control_c, 0, 64, 127
2, 32674, Note_on_c, 0, 37, 0
2, 32688, Note_on_c, 0, 73, 0
2, 32689, Note_on_c, 0, 68, 0
2, 32693, Note_on_c, 0, 77, 0
2, 32695, Note_on_c, 0, 80, 0
2, 32698, Note_on_c, 0, 53, 0
2, 32699, Note_on_c, 0, 63, 0
2, 32701, Note_on_c, 0, 58, 0
2, 32742, Note_on_c, 0, 75, 74
2, 32743, Note_on_c, 0, 68, 71
2, 32744, Note_on_c, 0, 65, 80
2, 32745, Note_on_c, 0, 72, 59
2, 32745, Note_on_c, 0, 63, 68
2, 32754, Control_c, 0, 64, 0
2, 32790, Control_c, 0, 64, 127
2, 32864, Note_on_c, 0, 72, 0
2, 32866, Note_on_c, 0, 63, 0
2, 32869, Note_on_c, 0, 65, 0
2, 32873, Note_on_c, 0, 68, 0
2, 32879, Note_on_c, 0, 75, 0
2, 32893, Note_on_c, 0, 61, 47
2, 32897, Note_on_c, 0, 73, 39
2, 32899, Note_on_c, 0, 68, 46
2, 32899, Note_on_c, 0, 65, 50
2, 32903, Control_c, 0, 64, 0
2, 32913, Note_on_c, 0, 65, 0
2, 32913, Note_on_c, 0, 61, 0
2, 32916, Note_on_c, 0, 68, 0
2, 32929, Note_on_c, 0, 73, 0
2, 33009, Control_c, 0, 64, 127
2, 33083, Note_on_c, 0, 72, 71
2, 33085, Note_on_c, 0, 60, 64
2, 33086, Note_on_c, 0, 68, 64
2, 33086, Note_on_c, 0, 65, 75
2, 33106, Note_on_c, 0, 65, 0
2, 33106, Note_on_c, 0, 60, 0
2, 33109, Note_on_c, 0, 72, 0
2, 33113, Note_on_c, 0, 68, 0
2, 33131, Note_on_c, 0, 63, 82
2, 33131, Control_c, 0, 64, 0
2, 33132, Note_on_c, 0, 68, 83
2, 33132, Note_on_c, 0, 75, 84
2, 33132, Note_on_c, 0, 65, 91
2, 33134, Note_on_c, 0, 72, 69
2, 33173, Control_c, 0, 64, 127
2, 33209, Note_on_c, 0, 65, 0
2, 33211, Note_on_c, 0, 68, 0
2, 33211, Note_on_c, 0, 63, 0
2, 33215, Note_on_c, 0, 75, 0
2, 33216, Note_on_c, 0, 72, 0
2, 33241, Note_on_c, 0, 73, 56
2, 33241, Note_on_c, 0, 61, 62
2, 33243, Note_on_c, 0, 68, 64
2, 33244, Control_c, 0, 64, 0
2, 33245, Note_on_c, 0, 65, 62
2, 33278, Control_c, 0, 64, 127
2, 33309, Note_on_c, 0, 61, 0
2, 33323, Note_on_c, 0, 65, 0
2, 33326, Note_on_c, 0, 73, 0
2, 33330, Note_on_c, 0, 68, 0
2, 33352, Control_c, 0, 64, 0
2, 33363, Note_on_c, 0, 60, 40
2, 33363, Note_on_c, 0, 72, 40
2, 33365, Note_on_c, 0, 68, 40
2, 33365, Note_on_c, 0, 65, 51
2, 33380, Control_c, 0, 64, 127
2, 33409, Note_on_c, 0, 68, 0
2, 33410, Note_on_c, 0, 65, 0
2, 33418, Note_on_c, 0, 72, 0
2, 33432, Note_on_c, 0, 60, 0
2, 33448, Note_on_c, 0, 73, 38
2, 33450, Note_on_c, 0, 61, 39
2, 33451, Note_on_c, 0, 68, 43
2, 33452, Note_on_c, 0, 65, 44
2, 33468, Note_on_c, 0, 61, 0
2, 33482, Note_on_c, 0, 65, 0
2, 33492, Note_on_c, 0, 73, 0
2, 33498, Note_on_c, 0, 68, 0
2, 33612, Note_on_c, 0, 69, 55
2, 33613, Note_on_c, 0, 62, 44
2, 33614, Note_on_c, 0, 59, 31
2, 33614, Note_on_c, 0, 52, 22
2, 33615, Control_c, 0, 64, 0
2, 33615, Note_on_c, 0, 66, 44
2, 33618, Note_on_c, 0, 57, 40
2, 33619, Note_on_c, 0, 55, 33
2, 33651, Control_c, 0, 64, 127
2, 33676, Note_on_c, 0, 69, 0
2, 33695, Note_on_c, 0, 69, 51
2, 33713, Note_on_c, 0, 57, 0
2, 33715, Note_on_c, 0, 59, 0
2, 33717, Note_on_c, 0, 55, 0
2, 33727, Note_on_c, 0, 69, 0
2, 33732, Note_on_c, 0, 52, 0
2, 33736, Note_on_c, 0, 62, 0
2, 33770, Note_on_c, 0, 66, 0
2, 33807, Note_on_c, 0, 70, 52
2, 33807, Note_on_c, 0, 61, 38
2, 33810, Note_on_c, 0, 66, 35
2, 33815, Note_on_c, 0, 45, 42
2, 33815, Control_c, 0, 64, 0
2, 33816, Note_on_c, 0, 55, 33
2, 33849, Control_c, 0, 64, 127
2, 33885, Note_on_c, 0, 55, 0
2, 33890, Note_on_c, 0, 45, 0
2, 33913, Note_on_c, 0, 61, 0
2, 33914, Note_on_c, 0, 70, 0
2, 33921, Note_on_c, 0, 72, 53
2, 33968, Note_on_c, 0, 72, 0
2, 33969, Note_on_c, 0, 66, 0
2, 34034, Note_on_c, 0, 39, 31
2, 34034, Note_on_c, 0, 68, 49
2, 34037, Note_on_c, 0, 61, 34
2, 34037, Note_on_c, 0, 65, 54
2, 34038, Note_on_c, 0, 54, 25
2, 34042, Control_c, 0, 64, 0
2, 34070, Control_c, 0, 64, 127
2, 34075, Note_on_c, 0, 61, 0
2, 34083, Note_on_c, 0, 65, 0
2, 34089, Note_on_c, 0, 68, 0
2, 34133, Note_on_c, 0, 39, 0
2, 34162, Note_on_c, 0, 77, 71
2, 34170, Note_on_c, 0, 54, 0
2, 34192, Note_on_c, 0, 77, 0
2, 34202, Note_on_c, 0, 72, 44
2, 34230, Note_on_c, 0, 72, 0
2, 34238, Note_on_c, 0, 73, 39
2, 34256, Note_on_c, 0, 73, 0
2, 34277, Note_on_c, 0, 77, 58
2, 34280, Control_c, 0, 64, 0
2, 34290, Note_on_c, 0, 54, 36
2, 34290, Note_on_c, 0, 44, 38
2, 34302, Note_on_c, 0, 44, 0
2, 34305, Control_c, 0, 64, 127
2, 34307, Note_on_c, 0, 54, 0
2, 34316, Note_on_c, 0, 77, 0
2, 34316, Note_on_c, 0, 78, 52
2, 34331, Note_on_c, 0, 78, 0
2, 34353, Note_on_c, 0, 84, 74
2, 34370, Note_on_c, 0, 84, 0
2, 34394, Note_on_c, 0, 89, 84
2, 34419, Note_on_c, 0, 89, 0
2, 34435, Note_on_c, 0, 54, 40
2, 34435, Note_on_c, 0, 65, 41
2, 34436, Note_on_c, 0, 92, 71
2, 34439, Note_on_c, 0, 60, 48
2, 34452, Note_on_c, 0, 65, 0
2, 34462, Note_on_c, 0, 60, 0
2, 34462, Note_on_c, 0, 92, 0
2, 34473, Note_on_c, 0, 54, 0
2, 34477, Note_on_c, 0, 94, 77
2, 34498, Note_on_c, 0, 94, 0
2, 34513, Note_on_c, 0, 95, 80
2, 34539, Note_on_c, 0, 95, 0
2, 34549, Control_c, 0, 64, 0
2, 34550, Note_on_c, 0, 63, 50
2, 34554, Note_on_c, 0, 60, 56
2, 34555, Note_on_c, 0, 56, 49
2, 34556, Note_on_c, 0, 96, 89
2, 34557, Note_on_c, 0, 53, 39
2, 34581, Control_c, 0, 64, 127
2, 34597, Note_on_c, 0, 53, 0
2, 34597, Note_on_c, 0, 60, 0
2, 34604, Note_on_c, 0, 56, 0
2, 34613, Note_on_c, 0, 63, 0
2, 34628, Note_on_c, 0, 96, 0
2, 34679, Note_on_c, 0, 67, 46
2, 34680, Note_on_c, 0, 92, 69
2, 34682, Note_on_c, 0, 63, 36
2, 34683, Note_on_c, 0, 60, 49
2, 34685, Note_on_c, 0, 84, 56
2, 34716, Note_on_c, 0, 92, 0
2, 34723, Note_on_c, 0, 84, 0
2, 34724, Note_on_c, 0, 67, 0
2, 34731, Note_on_c, 0, 63, 0
2, 34731, Note_on_c, 0, 60, 0
2, 34804, Note_on_c, 0, 63, 56
2, 34806, Note_on_c, 0, 80, 55
2, 34808, Note_on_c, 0, 77, 45
2, 34811, Note_on_c, 0, 84, 53
2, 34812, Control_c, 0, 64, 0
2, 34833, Note_on_c, 0, 84, 0
2, 34834, Control_c, 0, 64, 127
2, 34839, Note_on_c, 0, 80, 0
2, 34847, Note_on_c, 0, 77, 0
2, 34892, Note_on_c, 0, 63, 0
2, 34927, Note_on_c, 0, 72, 50
2, 34928, Note_on_c, 0, 68, 54
2, 34930, Note_on_c, 0, 60, 50
2, 34930, Note_on_c, 0, 65, 58
2, 34931, Control_c, 0, 64, 0
2, 34954, Control_c, 0, 64, 127
2, 34960, Note_on_c, 0, 72, 0
2, 34970, Note_on_c, 0, 68, 0
2, 34974, Note_on_c, 0, 65, 0
2, 35003, Note_on_c, 0, 60, 0
2, 35042, Note_on_c, 0, 68, 53
2, 35043, Note_on_c, 0, 65, 68
2, 35045, Control_c, 0, 64, 0
2, 35045, Note_on_c, 0, 56, 57
2, 35045, Note_on_c, 0, 60, 63
2, 35071, Control_c, 0, 64, 127
2, 35077, Note_on_c, 0, 56, 0
2, 35079, Note_on_c, 0, 65, 0
2, 35084, Note_on_c, 0, 68, 0
2, 35089, Note_on_c, 0, 60, 0
2, 35164, Note_on_c, 0, 65, 79
2, 35166, Note_on_c, 0, 56, 64
2, 35166, Note_on_c, 0, 60, 72
2, 35167, Note_on_c, 0, 53, 61
2, 35173, Control_c, 0, 64, 0
2, 35209, Control_c, 0, 64, 127
2, 35216, Note_on_c, 0, 65, 0
2, 35221, Note_on_c, 0, 60, 0
2, 35231, Note_on_c, 0, 53, 0
2, 35232, Note_on_c, 0, 56, 0
2, 35283, Note_on_c, 0, 63, 71
2, 35284, Note_on_c, 0, 56, 73
2, 35286, Note_on_c, 0, 53, 75
2, 35286, Note_on_c, 0, 60, 70
2, 35287, Note_on_c, 0, 49, 71
2, 35291, Control_c, 0, 64, 0
2, 35329, Control_c, 0, 64, 127
2, 35357, Note_on_c, 0, 60, 0
2, 35360, Note_on_c, 0, 53, 0
2, 35363, Note_on_c, 0, 49, 0
2, 35365, Note_on_c, 0, 56, 0
2, 35384, Note_on_c, 0, 63, 0
2, 35402, Note_on_c, 0, 61, 75
2, 35403, Note_on_c, 0, 48, 54
2, 35404, Control_c, 0, 64, 0
2, 35405, Note_on_c, 0, 56, 74
2, 35405, Note_on_c, 0, 53, 74
2, 35411, Note_on_c, 0, 48, 0
2, 35418, Control_c, 0, 64, 127
2, 35454, Note_on_c, 0, 53, 0
2, 35487, Note_on_c, 0, 56, 0
2, 35502, Note_on_c, 0, 61, 0
2, 35518, Control_c, 0, 64, 0
2, 35519, Note_on_c, 0, 44, 57
2, 35519, Note_on_c, 0, 32, 61
2, 35521, Note_on_c, 0, 54, 75
2, 35521, Note_on_c, 0, 59, 80
2, 35527, Note_on_c, 0, 61, 32
2, 35545, Note_on_c, 0, 32, 0
2, 35546, Control_c, 0, 64, 127
2, 35554, Note_on_c, 0, 54, 0
2, 35558, Note_on_c, 0, 44, 0
2, 35567, Note_on_c, 0, 59, 0
2, 35572, Note_on_c, 0, 61, 0
2, 35638, Note_on_c, 0, 54, 55
2, 35638, Note_on_c, 0, 63, 57
2, 35639, Note_on_c, 0, 59, 66
2, 35641, Note_on_c, 0, 58, 57
2, 35652, Control_c, 0, 64, 0
2, 35666, Control_c, 0, 64, 127
2, 35681, Note_on_c, 0, 70, 77
2, 35711, Note_on_c, 0, 70, 0
2, 35719, Note_on_c, 0, 71, 88
2, 35730, Note_on_c, 0, 59, 0
2, 35734, Note_on_c, 0, 63, 0
2, 35751, Note_on_c, 0, 71, 0
2, 35759, Control_c, 0, 64, 0
2, 35760, Note_on_c, 0, 63, 44
2, 35761, Note_on_c, 0, 73, 56
2, 35765, Note_on_c, 0, 59, 50
2, 35774, Note_on_c, 0, 59, 0
2, 35776, Note_on_c, 0, 63, 0
2, 35781, Note_on_c, 0, 54, 0
2, 35789, Note_on_c, 0, 58, 0
2, 35791, Note_on_c, 0, 73, 0
2, 35798, Note_on_c, 0, 75, 59
2, 35807, Control_c, 0, 64, 127
2, 35825, Note_on_c, 0, 75, 0
2, 35838, Note_on_c, 0, 77, 54
2, 35851, Control_c, 0, 64, 0
2, 35864, Note_on_c, 0, 77, 0
2, 35881, Note_on_c, 0, 78, 48
2, 35884, Note_on_c, 0, 63, 30
2, 35889, Note_on_c, 0, 59, 34
2, 35890, Note_on_c, 0, 58, 25
2, 35895, Note_on_c, 0, 63, 0
2, 35897, Note_on_c, 0, 59, 0
2, 35901, Note_on_c, 0, 78, 0
2, 35901, Note_on_c, 0, 58, 0
2, 35920, Note_on_c, 0, 80, 55
2, 35939, Note_on_c, 0, 80, 0
2, 35960, Note_on_c, 0, 82, 60
2, 35984, Note_on_c, 0, 82, 0
2, 35998, Note_on_c, 0, 63, 42
2, 36000, Note_on_c, 0, 83, 57
2, 36001, Note_on_c, 0, 59, 50
2, 36003, Note_on_c, 0, 58, 34
2, 36013, Note_on_c, 0, 63, 0
2, 36020, Note_on_c, 0, 59, 0
2, 36023, Note_on_c, 0, 58, 0
2, 36025, Note_on_c, 0, 83, 0
2, 36043, Note_on_c, 0, 85, 40
2, 36055, Note_on_c, 0, 85, 0
2, 36080, Note_on_c, 0, 87, 67
2, 36101, Note_on_c, 0, 87, 0
2, 36124, Note_on_c, 0, 89, 41
2, 36135, Note_on_c, 0, 89, 0
2, 36160, Note_on_c, 0, 90, 60
2, 36178, Note_on_c, 0, 90, 0
2, 36199, Note_on_c, 0, 63, 74
2, 36201, Note_on_c, 0, 59, 71
2, 36202, Note_on_c, 0, 92, 87
2, 36203, Note_on_c, 0, 58, 55
2, 36204, Note_on_c, 0, 53, 48
2, 36213, Note_on_c, 0, 53, 0
2, 36219, Note_on_c, 0, 63, 0
2, 36227, Note_on_c, 0, 59, 0
2, 36228, Note_on_c, 0, 92, 0
2, 36228, Note_on_c, 0, 58, 0
2, 36246, Note_on_c, 0, 94, 61
2, 36268, Note_on_c, 0, 94, 0
2, 36282, Note_on_c, 0, 95, 63
2, 36287, Note_on_c, 0, 83, 29
2, 36297, Note_on_c, 0, 83, 0
2, 36299, Note_on_c, 0, 95, 0
2, 36325, Note_on_c, 0, 96, 75
2, 36326, Note_on_c, 0, 84, 73
2, 36338, Note_on_c, 0, 96, 0
2, 36339, Note_on_c, 0, 84, 0
2, 36365, Note_on_c, 0, 97, 77
2, 36366, Note_on_c, 0, 54, 55
2, 36366, Note_on_c, 0, 85, 72
2, 36367, Note_on_c, 0, 44, 53
2, 36383, Note_on_c, 0, 85, 0
2, 36384, Control_c, 0, 64, 127
2, 36388, Note_on_c, 0, 97, 0
2, 36405, Note_on_c, 0, 86, 59
2, 36406, Note_on_c, 0, 98, 53
2, 36412, Note_on_c, 0, 86, 0
2, 36414, Note_on_c, 0, 98, 0
2, 36430, Note_on_c, 0, 54, 0
2, 36434, Note_on_c, 0, 44, 0
2, 36441, Note_on_c, 0, 99, 71
2, 36442, Note_on_c, 0, 87, 70
2, 36462, Note_on_c, 0, 87, 0
2, 36463, Note_on_c, 0, 99, 0
2, 36491, Control_c, 0, 64, 0
2, 36559, Note_on_c, 0, 41, 71
2, 36569, Note_on_c, 0, 41, 0
2, 36575, Control_c, 0, 64, 127
2, 36689, Note_on_c, 0, 99, 88
2, 36689, Note_on_c, 0, 53, 74
2, 36689, Note_on_c, 0, 87, 97
2, 36690, Note_on_c, 0, 92, 86
2, 36691, Note_on_c, 0, 60, 80
2, 36691, Note_on_c, 0, 96, 73
2, 36692, Note_on_c, 0, 63, 81
2, 36693, Note_on_c, 0, 56, 58
2, 36696, Note_on_c, 0, 97, 26
2, 36702, Note_on_c, 0, 97, 0
2, 36723, Note_on_c, 0, 87, 0
2, 36725, Note_on_c, 0, 53, 0
2, 36727, Note_on_c, 0, 99, 0
2, 36727, Note_on_c, 0, 92, 0
2, 36729, Note_on_c, 0, 63, 0
2, 36732, Note_on_c, 0, 96, 0
2, 36733, Note_on_c, 0, 56, 0
2, 36734, Note_on_c, 0, 60, 0
2, 36744, Note_on_c, 0, 99, 75
2, 36746, Note_on_c, 0, 92, 71
2, 36747, Note_on_c, 0, 87, 79
2, 36747, Note_on_c, 0, 53, 77
2, 36747, Note_on_c, 0, 63, 70
2, 36748, Note_on_c, 0, 60, 78
2, 36748, Note_on_c, 0, 96, 58
2, 36748, Note_on_c, 0, 56, 59
2, 36768, Note_on_c, 0, 96, 0
2, 36773, Note_on_c, 0, 92, 0
2, 36775, Note_on_c, 0, 99, 0
2, 36779, Note_on_c, 0, 87, 0
2, 36782, Note_on_c, 0, 53, 0
2, 36787, Note_on_c, 0, 56, 0
2, 36787, Note_on_c, 0, 63, 0
2, 36790, Note_on_c, 0, 60, 0
2, 36816, Control_c, 0, 64, 0
2, 36819, Note_on_c, 0, 92, 74
2, 36819, Note_on_c, 0, 96, 75
2, 36821, Note_on_c, 0, 63, 64
2, 36822, Note_on_c, 0, 84, 70
2, 36822, Note_on_c, 0, 90, 62
2, 36822, Note_on_c, 0, 56, 55
2, 36824, Note_on_c, 0, 60, 67
2, 36824, Note_on_c, 0, 53, 47
2, 36832, Control_c, 0, 64, 127
2, 36841, Note_on_c, 0, 90, 0
2, 36845, Note_on_c, 0, 96, 0
2, 36849, Note_on_c, 0, 92, 0
2, 36852, Note_on_c, 0, 84, 0
2, 36856, Note_on_c, 0, 60, 0
2, 36860, Note_on_c, 0, 63, 0
2, 36863, Note_on_c, 0, 56, 0
2, 36880, Note_on_c, 0, 53, 0
2, 36900, Note_on_c, 0, 92, 49
2, 36902, Note_on_c, 0, 53, 40
2, 36903, Note_on_c, 0, 63, 59
2, 36905, Note_on_c, 0, 56, 44
2, 36906, Note_on_c, 0, 60, 54
2, 36911, Note_on_c, 0, 93, 25
2, 36912, Note_on_c, 0, 53, 0
2, 36913, Note_on_c, 0, 82, 19
2, 36914, Note_on_c, 0, 60, 0
2, 36918, Note_on_c, 0, 93, 0
2, 36924, Note_on_c, 0, 56, 0
2, 36926, Note_on_c, 0, 63, 0
2, 36927, Note_on_c, 0, 82, 0
2, 36933, Note_on_c, 0, 92, 0
2, 36972, Note_on_c, 0, 91, 59
2, 36973, Note_on_c, 0, 56, 56
2, 36973, Note_on_c, 0, 79, 58
2, 36973, Note_on_c, 0, 86, 71
2, 36974, Note_on_c, 0, 66, 56
2, 36976, Control_c, 0, 64, 0
2, 36977, Note_on_c, 0, 62, 58
2, 36979, Note_on_c, 0, 89, 29
2, 36990, Note_on_c, 0, 89, 0
2, 37008, Control_c, 0, 64, 127
2, 37033, Note_on_c, 0, 91, 0
2, 37035, Note_on_c, 0, 79, 0
2, 37038, Note_on_c, 0, 86, 0
2, 37048, Note_on_c, 0, 56, 0
2, 37049, Note_on_c, 0, 66, 0
2, 37052, Note_on_c, 0, 62, 0
2, 37070, Control_c, 0, 64, 0
2, 37076, Note_on_c, 0, 90, 49
2, 37080, Note_on_c, 0, 66, 53
2, 37080, Note_on_c, 0, 85, 59
2, 37081, Note_on_c, 0, 78, 44
2, 37082, Note_on_c, 0, 56, 45
2, 37084, Note_on_c, 0, 62, 45
2, 37091, Control_c, 0, 64, 127
2, 37125, Note_on_c, 0, 56, 0
2, 37129, Note_on_c, 0, 85, 0
2, 37129, Note_on_c, 0, 66, 0
2, 37135, Note_on_c, 0, 62, 0
2, 37137, Note_on_c, 0, 78, 0
2, 37140, Note_on_c, 0, 90, 0
2, 37159, Control_c, 0, 64, 0
2, 37160, Note_on_c, 0, 89, 57
2, 37163, Note_on_c, 0, 77, 44
2, 37163, Note_on_c, 0, 66, 50
2, 37164, Note_on_c, 0, 84, 57
2, 37165, Note_on_c, 0, 62, 50
2, 37165, Note_on_c, 0, 56, 48
2, 37168, Note_on_c, 0, 87, 26
2, 37189, Control_c, 0, 64, 127
2, 37202, Note_on_c, 0, 66, 0
2, 37203, Note_on_c, 0, 84, 0
2, 37204, Note_on_c, 0, 62, 0
2, 37205, Note_on_c, 0, 89, 0
2, 37212, Note_on_c, 0, 56, 0
2, 37218, Note_on_c, 0, 87, 0
2, 37224, Note_on_c, 0, 77, 0
2, 37324, Note_on_c, 0, 38, 53
2, 37326, Note_on_c, 0, 50, 32
2, 37340, Note_on_c, 0, 38, 0
2, 37347, Note_on_c, 0, 50, 0
2, 37403, Note_on_c, 0, 54, 51
2, 37406, Note_on_c, 0, 58, 59
2, 37407, Note_on_c, 0, 51, 64
2, 37410, Note_on_c, 0, 39, 50
2, 37416, Control_c, 0, 64, 0
2, 37450, Control_c, 0, 64, 127
2, 37456, Note_on_c, 0, 54, 0
2, 37458, Note_on_c, 0, 39, 0
2, 37470, Note_on_c, 0, 58, 0
2, 37471, Note_on_c, 0, 51, 0
2, 37542, Note_on_c, 0, 77, 81
2, 37543, Note_on_c, 0, 70, 79
2, 37543, Note_on_c, 0, 73, 49
2, 37544, Note_on_c, 0, 66, 80
2, 37544, Note_on_c, 0, 65, 85
2, 37552, Control_c, 0, 64, 0
2, 37587, Note_on_c, 0, 77, 0
2, 37587, Note_on_c, 0, 63, 56
2, 37598, Note_on_c, 0, 65, 0
2, 37618, Note_on_c, 0, 70, 0
2, 37618, Note_on_c, 0, 73, 0
2, 37635, Note_on_c, 0, 66, 0
2, 37647, Control_c, 0, 64, 127
2, 37664, Note_on_c, 0, 63, 0
2, 37673, Control_c, 0, 64, 0
2, 37689, Note_on_c, 0, 62, 55
2, 37690, Note_on_c, 0, 74, 61
2, 37690, Note_on_c, 0, 66, 37
2, 37692, Note_on_c, 0, 70, 46
2, 37721, Control_c, 0, 64, 127
2, 37749, Note_on_c, 0, 70, 0
2, 37752, Note_on_c, 0, 66, 0
2, 37754, Note_on_c, 0, 74, 0
2, 37767, Note_on_c, 0, 75, 60
2, 37769, Note_on_c, 0, 70, 49
2, 37770, Note_on_c, 0, 66, 37
2, 37771, Note_on_c, 0, 63, 40
2, 37772, Note_on_c, 0, 62, 0
2, 37795, Note_on_c, 0, 63, 0
2, 37799, Note_on_c, 0, 66, 0
2, 37801, Note_on_c, 0, 70, 0
2, 37802, Note_on_c, 0, 75, 0
2, 37905, Control_c, 0, 64, 0
2, 37918, Note_on_c, 0, 74, 36
2, 37922, Note_on_c, 0, 54, 25
2, 37922, Note_on_c, 0, 44, 32
2, 37923, Note_on_c, 0, 69, 37
2, 37924, Note_on_c, 0, 66, 20
2, 37926, Note_on_c, 0, 62, 24
2, 37947, Control_c, 0, 64, 127
2, 37963, Note_on_c, 0, 44, 0
2, 37964, Note_on_c, 0, 66, 0
2, 37967, Note_on_c, 0, 62, 0
2, 37968, Note_on_c, 0, 54, 0
2, 37968, Note_on_c, 0, 69, 0
2, 37970, Note_on_c, 0, 74, 0
2, 37995, Note_on_c, 0, 74, 47
2, 37997, Note_on_c, 0, 44, 33
2, 37997, Control_c, 0, 64, 0
2, 37998, Note_on_c, 0, 54, 28
2, 37998, Note_on_c, 0, 62, 40
2, 37999, Note_on_c, 0, 66, 36
2, 38000, Note_on_c, 0, 69, 52
2, 38019, Note_on_c, 0, 66, 0
2, 38019, Note_on_c, 0, 54, 0
2, 38020, Note_on_c, 0, 62, 0
2, 38021, Note_on_c, 0, 44, 0
2, 38023, Note_on_c, 0, 69, 0
2, 38026, Note_on_c, 0, 74, 0
2, 38041, Note_on_c, 0, 74, 31
2, 38041, Note_on_c, 0, 54, 26
2, 38043, Note_on_c, 0, 44, 30
2, 38044, Note_on_c, 0, 62, 34
2, 38044, Note_on_c, 0, 66, 36
2, 38045, Note_on_c, 0, 69, 46
2, 38059, Note_on_c, 0, 66, 0
2, 38059, Note_on_c, 0, 54, 0
2, 38061, Note_on_c, 0, 62, 0
2, 38061, Note_on_c, 0, 44, 0
2, 38062, Note_on_c, 0, 69, 0
2, 38064, Note_on_c, 0, 74, 0
2, 38119, Note_on_c, 0, 66, 62
2, 38119, Note_on_c, 0, 62, 76
2, 38119, Note_on_c, 0, 74, 64
2, 38120, Note_on_c, 0, 69, 63
2, 38121, Note_on_c, 0, 54, 67
2, 38121, Note_on_c, 0, 44, 62
2, 38128, Note_on_c, 0, 69, 0
2, 38129, Note_on_c, 0, 62, 0
2, 38132, Note_on_c, 0, 66, 0
2, 38134, Note_on_c, 0, 54, 0
2, 38134, Note_on_c, 0, 44, 0
2, 38135, Note_on_c, 0, 74, 0
2, 38167, Note_on_c, 0, 74, 68
2, 38169, Note_on_c, 0, 54, 69
2, 38169, Note_on_c, 0, 66, 51
2, 38169, Note_on_c, 0, 44, 59
2, 38170, Note_on_c, 0, 62, 65
2, 38173, Note_on_c, 0, 69, 36
2, 38176, Note_on_c, 0, 62, 0
2, 38178, Note_on_c, 0, 66, 0
2, 38179, Note_on_c, 0, 44, 0
2, 38180, Note_on_c, 0, 54, 0
2, 38181, Note_on_c, 0, 74, 0
2, 38181, Note_on_c, 0, 69, 0
2, 38216, Control_c, 0, 64, 127
2, 38240, Note_on_c, 0, 70, 55
2, 38241, Note_on_c, 0, 54, 46
2, 38243, Note_on_c, 0, 44, 43
2, 38243, Note_on_c, 0, 60, 42
2, 38244, Note_on_c, 0, 65, 55
2, 38246, Control_c, 0, 64, 0
2, 38290, Control_c, 0, 64, 127
2, 38327, Note_on_c, 0, 44, 0
2, 38357, Note_on_c, 0, 70, 0
2, 38360, Note_on_c, 0, 60, 0
2, 38361, Note_on_c, 0, 44, 35
2, 38368, Note_on_c, 0, 65, 0
2, 38378, Note_on_c, 0, 54, 0
2, 38397, Control_c, 0, 64, 0
2, 38403, Note_on_c, 0, 68, 39
2, 38404, Note_on_c, 0, 44, 0
2, 38405, Note_on_c, 0, 65, 47
2, 38407, Note_on_c, 0, 60, 39
2, 38407, Note_on_c, 0, 53, 50
2, 38449, Control_c, 0, 64, 127
2, 38493, Note_on_c, 0, 65, 0
2, 38494, Note_on_c, 0, 60, 0
2, 38498, Note_on_c, 0, 68, 0
2, 38511, Control_c, 0, 64, 0
2, 38513, Note_on_c, 0, 53, 0
2, 38518, Note_on_c, 0, 67, 53
2, 38522, Note_on_c, 0, 65, 35
2, 38523, Note_on_c, 0, 52, 32
2, 38523, Note_on_c, 0, 60, 27
2, 38547, Control_c, 0, 64, 127
2, 38550, Note_on_c, 0, 67, 0
2, 38570, Note_on_c, 0, 60, 0
2, 38572, Note_on_c, 0, 65, 0
2, 38594, Note_on_c, 0, 68, 53
2, 38597, Note_on_c, 0, 65, 57
2, 38599, Note_on_c, 0, 52, 0
2, 38599, Note_on_c, 0, 60, 52
2, 38601, Note_on_c, 0, 53, 50
2, 38601, Control_c, 0, 64, 0
2, 38633, Control_c, 0, 64, 127
2, 38636, Note_on_c, 0, 68, 0
2, 38643, Note_on_c, 0, 65, 0
2, 38660, Note_on_c, 0, 60, 0
2, 38715, Note_on_c, 0, 68, 62
2, 38715, Note_on_c, 0, 72, 60
2, 38715, Note_on_c, 0, 65, 71
2, 38717, Note_on_c, 0, 60, 62
2, 38718, Note_on_c, 0, 56, 59
2, 38719, Control_c, 0, 64, 0
2, 38733, Note_on_c, 0, 53, 0
2, 38737, Note_on_c, 0, 60, 0
2, 38750, Control_c, 0, 64, 127
2, 38764, Note_on_c, 0, 56, 0
2, 38768, Note_on_c, 0, 65, 0
2, 38777, Note_on_c, 0, 72, 0
2, 38777, Note_on_c, 0, 68, 0
2, 38835, Note_on_c, 0, 65, 71
2, 38835, Note_on_c, 0, 72, 66
2, 38836, Note_on_c, 0, 68, 71
2, 38836, Note_on_c, 0, 75, 71
2, 38840, Note_on_c, 0, 63, 37
2, 38841, Note_on_c, 0, 61, 43
2, 38844, Control_c, 0, 64, 0
2, 38876, Control_c, 0, 64, 127
2, 38907, Note_on_c, 0, 65, 0
2, 38915, Note_on_c, 0, 68, 0
2, 38917, Note_on_c, 0, 72, 0
2, 38917, Note_on_c, 0, 63, 0
2, 38921, Note_on_c, 0, 61, 0
2, 38931, Note_on_c, 0, 75, 0
2, 38954, Note_on_c, 0, 73, 55
2, 38957, Note_on_c, 0, 70, 63
2, 38958, Note_on_c, 0, 61, 53
2, 38958, Note_on_c, 0, 63, 54
2, 38959, Note_on_c, 0, 65, 49
2, 38963, Control_c, 0, 64, 0
2, 38993, Note_on_c, 0, 65, 0
2, 38993, Control_c, 0, 64, 127
2, 39002, Note_on_c, 0, 63, 0
2, 39004, Note_on_c, 0, 70, 0
2, 39006, Note_on_c, 0, 61, 0
2, 39009, Note_on_c, 0, 73, 0
2, 39072, Note_on_c, 0, 72, 58
2, 39076, Note_on_c, 0, 57, 51
2, 39077, Note_on_c, 0, 61, 55
2, 39078, Note_on_c, 0, 65, 64
2, 39078, Note_on_c, 0, 68, 39
2, 39079, Control_c, 0, 64, 0
2, 39115, Control_c, 0, 64, 127
2, 39125, Note_on_c, 0, 72, 0
2, 39133, Note_on_c, 0, 61, 0
2, 39137, Note_on_c, 0, 65, 0
2, 39142, Note_on_c, 0, 57, 0
2, 39145, Note_on_c, 0, 68, 0
2, 39199, Note_on_c, 0, 73, 64
2, 39202, Note_on_c, 0, 46, 60
2, 39202, Note_on_c, 0, 66, 70
2, 39202, Note_on_c, 0, 62, 78
2, 39202, Note_on_c, 0, 56, 63
2, 39204, Note_on_c, 0, 70, 48
2, 39213, Control_c, 0, 64, 0
2, 39248, Control_c, 0, 64, 127
2, 39278, Note_on_c, 0, 46, 0
2, 39288, Note_on_c, 0, 56, 0
2, 39303, Note_on_c, 0, 62, 0
2, 39314, Note_on_c, 0, 73, 0
2, 39324, Note_on_c, 0, 66, 0
2, 39332, Note_on_c, 0, 70, 0
2, 39358, Control_c, 0, 64, 0
2, 39364, Note_on_c, 0, 61, 36
2, 39365, Note_on_c, 0, 51, 35
2, 39366, Note_on_c, 0, 65, 54
2, 39366, Note_on_c, 0, 69, 53
2, 39384, Control_c, 0, 64, 127
2, 39390, Note_on_c, 0, 65, 0
2, 39391, Note_on_c, 0, 61, 0
2, 39400, Note_on_c, 0, 69, 0
2, 39415, Note_on_c, 0, 51, 0
2, 39443, Note_on_c, 0, 84, 84
2, 39489, Note_on_c, 0, 84, 0
2, 39495, Note_on_c, 0, 72, 47
2, 39544, Note_on_c, 0, 72, 0
2, 39558, Note_on_c, 0, 77, 55
2, 39559, Note_on_c, 0, 72, 51
2, 39559, Note_on_c, 0, 61, 40
2, 39561, Note_on_c, 0, 60, 48
2, 39562, Note_on_c, 0, 65, 40
2, 39625, Note_on_c, 0, 72, 0
2, 39637, Note_on_c, 0, 81, 80
2, 39659, Note_on_c, 0, 77, 0
2, 39695, Note_on_c, 0, 65, 0
2, 39698, Note_on_c, 0, 81, 0
2, 39714, Note_on_c, 0, 60, 0
2, 39715, Note_on_c, 0, 82, 75
2, 39719, Note_on_c, 0, 61, 0
2, 39768, Note_on_c, 0, 82, 0
2, 39795, Note_on_c, 0, 84, 74
2, 39795, Note_on_c, 0, 72, 60
2, 39796, Note_on_c, 0, 65, 46
2, 39796, Note_on_c, 0, 54, 34
2, 39798, Control_c, 0, 64, 0
2, 39799, Note_on_c, 0, 60, 42
2, 39828, Control_c, 0, 64, 127
2, 39832, Note_on_c, 0, 65, 0
2, 39838, Note_on_c, 0, 60, 0
2, 39839, Note_on_c, 0, 84, 0
2, 39843, Note_on_c, 0, 72, 0
2, 39852, Note_on_c, 0, 54, 0
2, 39872, Note_on_c, 0, 85, 61
2, 39876, Note_on_c, 0, 73, 33
2, 39927, Note_on_c, 0, 85, 0
2, 39930, Note_on_c, 0, 73, 0
2, 39942, Control_c, 0, 64, 0
2, 39951, Note_on_c, 0, 38, 51
2, 39955, Note_on_c, 0, 86, 62
2, 39957, Note_on_c, 0, 74, 48
2, 39958, Note_on_c, 0, 38, 0
2, 39962, Control_c, 0, 64, 127
2, 39972, Note_on_c, 0, 74, 0
2, 39972, Note_on_c, 0, 86, 0
2, 40036, Note_on_c, 0, 54, 34
2, 40037, Note_on_c, 0, 75, 60
2, 40038, Note_on_c, 0, 87, 69
2, 40058, Note_on_c, 0, 54, 0
2, 40086, Note_on_c, 0, 75, 0
2, 40093, Note_on_c, 0, 87, 0
2, 40116, Note_on_c, 0, 88, 68
2, 40118, Note_on_c, 0, 76, 68
2, 40126, Note_on_c, 0, 82, 25
2, 40134, Note_on_c, 0, 82, 0
2, 40158, Note_on_c, 0, 88, 0
2, 40160, Note_on_c, 0, 76, 0
2, 40198, Note_on_c, 0, 54, 46
2, 40199, Note_on_c, 0, 89, 51
2, 40199, Note_on_c, 0, 64, 44
2, 40201, Note_on_c, 0, 77, 46
2, 40203, Note_on_c, 0, 60, 49
2, 40218, Note_on_c, 0, 64, 0
2, 40222, Note_on_c, 0, 89, 0
2, 40229, Note_on_c, 0, 60, 0
2, 40229, Note_on_c, 0, 77, 0
2, 40239, Note_on_c, 0, 54, 0
2, 40281, Note_on_c, 0, 60, 67
2, 40281, Note_on_c, 0, 63, 69
2, 40282, Note_on_c, 0, 92, 79
2, 40282, Note_on_c, 0, 53, 52
2, 40283, Note_on_c, 0, 56, 56
2, 40285, Note_on_c, 0, 80, 74
2, 40293, Control_c, 0, 64, 0
2, 40317, Control_c, 0, 64, 127
2, 40326, Note_on_c, 0, 63, 0
2, 40327, Note_on_c, 0, 92, 0
2, 40331, Note_on_c, 0, 60, 0
2, 40331, Note_on_c, 0, 80, 0
2, 40337, Note_on_c, 0, 53, 0
2, 40341, Note_on_c, 0, 56, 0
2, 40361, Note_on_c, 0, 89, 62
2, 40364, Note_on_c, 0, 77, 57
2, 40383, Note_on_c, 0, 89, 0
2, 40391, Note_on_c, 0, 77, 0
2, 40441, Control_c, 0, 64, 0
2, 40442, Note_on_c, 0, 87, 62
2, 40443, Note_on_c, 0, 37, 49
2, 40444, Note_on_c, 0, 44, 49
2, 40445, Note_on_c, 0, 75, 52
2, 40449, Note_on_c, 0, 80, 33
2, 40452, Note_on_c, 0, 37, 0
2, 40456, Note_on_c, 0, 80, 0
2, 40459, Control_c, 0, 64, 127
2, 40462, Note_on_c, 0, 87, 0
2, 40464, Note_on_c, 0, 44, 0
2, 40464, Note_on_c, 0, 75, 0
2, 40526, Note_on_c, 0, 80, 59
2, 40527, Note_on_c, 0, 84, 71
2, 40527, Note_on_c, 0, 63, 72
2, 40528, Note_on_c, 0, 77, 68
2, 40529, Note_on_c, 0, 53, 67
2, 40530, Note_on_c, 0, 72, 47
2, 40530, Note_on_c, 0, 58, 62
2, 40536, Note_on_c, 0, 83, 30
2, 40538, Control_c, 0, 64, 0
2, 40545, Note_on_c, 0, 83, 0
2, 40564, Control_c, 0, 64, 127
2, 40613, Note_on_c, 0, 53, 0
2, 40631, Note_on_c, 0, 84, 0
2, 40685, Note_on_c, 0, 77, 0
2, 40688, Note_on_c, 0, 53, 59
2, 40689, Note_on_c, 0, 80, 0
2, 40690, Note_on_c, 0, 72, 0
2, 40720, Note_on_c, 0, 63, 0
2, 40722, Note_on_c, 0, 58, 0
2, 40806, Note_on_c, 0, 73, 62
2, 40808, Note_on_c, 0, 68, 75
2, 40809, Control_c, 0, 64, 0
2, 40810, Note_on_c, 0, 65, 74
2, 40810, Note_on_c, 0, 60, 66
2, 40835, Control_c, 0, 64, 127
2, 40875, Note_on_c, 0, 65, 0
2, 40879, Note_on_c, 0, 68, 0
2, 40879, Note_on_c, 0, 73, 0
2, 40889, Note_on_c, 0, 75, 74
2, 40890, Note_on_c, 0, 68, 77
2, 40891, Note_on_c, 0, 65, 66
2, 40892, Note_on_c, 0, 61, 68
2, 40896, Note_on_c, 0, 73, 25
2, 40897, Control_c, 0, 64, 0
2, 40899, Note_on_c, 0, 60, 0
2, 40909, Note_on_c, 0, 65, 0
2, 40921, Note_on_c, 0, 68, 0
2, 40921, Control_c, 0, 64, 127
2, 40924, Note_on_c, 0, 73, 0
2, 40926, Note_on_c, 0, 75, 0
2, 40943, Note_on_c, 0, 78, 42
2, 40958, Note_on_c, 0, 78, 0
2, 41005, Note_on_c, 0, 77, 74
2, 41007, Note_on_c, 0, 70, 72
2, 41008, Note_on_c, 0, 65, 68
2, 41008, Note_on_c, 0, 73, 45
2, 41009, Note_on_c, 0, 68, 55
2, 41017, Control_c, 0, 64, 0
2, 41038, Note_on_c, 0, 68, 0
2, 41046, Control_c, 0, 64, 127
2, 41048, Note_on_c, 0, 53, 0
2, 41048, Note_on_c, 0, 70, 0
2, 41049, Note_on_c, 0, 77, 0
2, 41054, Note_on_c, 0, 73, 0
2, 41068, Note_on_c, 0, 65, 0
2, 41124, Note_on_c, 0, 80, 49
2, 41126, Note_on_c, 0, 73, 47
2, 41126, Note_on_c, 0, 68, 51
2, 41129, Note_on_c, 0, 77, 42
2, 41131, Note_on_c, 0, 53, 50
2, 41134, Control_c, 0, 64, 0
2, 41170, Control_c, 0, 64, 127
2, 41177, Note_on_c, 0, 61, 0
2, 41187, Note_on_c, 0, 68, 0
2, 41187, Note_on_c, 0, 53, 0
2, 41193, Note_on_c, 0, 77, 0
2, 41199, Note_on_c, 0, 73, 0
2, 41200, Note_on_c, 0, 80, 0
2, 41286, Control_c, 0, 64, 0
2, 41290, Note_on_c, 0, 81, 54
2, 41291, Note_on_c, 0, 74, 44
2, 41292, Note_on_c, 0, 52, 36
2, 41295, Note_on_c, 0, 62, 29
2, 41296, Note_on_c, 0, 59, 38
2, 41297, Note_on_c, 0, 67, 43
2, 41298, Note_on_c, 0, 69, 40
2, 41320, Control_c, 0, 64, 127
2, 41335, Note_on_c, 0, 67, 0
2, 41336, Note_on_c, 0, 69, 0
2, 41340, Note_on_c, 0, 62, 0
2, 41344, Note_on_c, 0, 59, 0
2, 41351, Note_on_c, 0, 74, 0
2, 41374, Note_on_c, 0, 81, 0
2, 41412, Note_on_c, 0, 81, 49
2, 41413, Note_on_c, 0, 62, 47
2, 41414, Note_on_c, 0, 74, 51
2, 41417, Control_c, 0, 64, 0
2, 41418, Note_on_c, 0, 59, 26
2, 41420, Note_on_c, 0, 67, 43
2, 41420, Note_on_c, 0, 69, 39
2, 41427, Note_on_c, 0, 62, 0
2, 41431, Note_on_c, 0, 59, 0
2, 41433, Control_c, 0, 64, 127
2, 41444, Note_on_c, 0, 74, 0
2, 41445, Note_on_c, 0, 52, 0
2, 41445, Note_on_c, 0, 81, 0
2, 41450, Note_on_c, 0, 69, 0
2, 41456, Note_on_c, 0, 67, 0
2, 41499, Note_on_c, 0, 45, 52
2, 41527, Control_c, 0, 64, 0
2, 41535, Note_on_c, 0, 70, 47
2, 41537, Note_on_c, 0, 66, 49
2, 41541, Note_on_c, 0, 61, 33
2, 41545, Note_on_c, 0, 55, 30
2, 41552, Note_on_c, 0, 45, 0
2, 41563, Control_c, 0, 64, 127
2, 41598, Note_on_c, 0, 55, 0
2, 41604, Note_on_c, 0, 61, 0
2, 41609, Note_on_c, 0, 70, 0
2, 41612, Note_on_c, 0, 66, 0
2, 41641, Control_c, 0, 64, 0
2, 41647, Note_on_c, 0, 61, 40
2, 41648, Note_on_c, 0, 69, 54
2, 41650, Note_on_c, 0, 65, 50
2, 41675, Control_c, 0, 64, 127
2, 41686, Note_on_c, 0, 65, 0
2, 41697, Note_on_c, 0, 61, 0
2, 41710, Note_on_c, 0, 69, 0
2, 41728, Note_on_c, 0, 61, 51
2, 41730, Note_on_c, 0, 68, 47
2, 41733, Note_on_c, 0, 65, 50
2, 41739, Note_on_c, 0, 65, 0
2, 41739, Note_on_c, 0, 61, 0
2, 41739, Control_c, 0, 64, 0
2, 41757, Note_on_c, 0, 68, 0
2, 41757, Note_on_c, 0, 39, 39
2, 41761, Note_on_c, 0, 54, 29
2, 41766, Control_c, 0, 64, 127
2, 41780, Note_on_c, 0, 39, 0
2, 41799, Note_on_c, 0, 54, 0
2, 41813, Note_on_c, 0, 101, 76
2, 41841, Note_on_c, 0, 101, 0
2, 41851, Note_on_c, 0, 99, 77
2, 41888, Control_c, 0, 64, 0
2, 41892, Note_on_c, 0, 97, 71
2, 41896, Note_on_c, 0, 64, 24
2, 41896, Note_on_c, 0, 61, 25
2, 41896, Note_on_c, 0, 58, 31
2, 41904, Note_on_c, 0, 99, 0
2, 41913, Note_on_c, 0, 64, 0
2, 41913, Control_c, 0, 64, 127
2, 41917, Note_on_c, 0, 58, 0
2, 41922, Note_on_c, 0, 97, 0
2, 41923, Note_on_c, 0, 61, 0
2, 41930, Note_on_c, 0, 96, 62
2, 41943, Note_on_c, 0, 96, 0
2, 41967, Note_on_c, 0, 94, 74
2, 41999, Control_c, 0, 64, 0
2, 42003, Note_on_c, 0, 92, 67
2, 42009, Note_on_c, 0, 94, 0
2, 42025, Control_c, 0, 64, 127
2, 42026, Note_on_c, 0, 92, 0
2, 42038, Note_on_c, 0, 90, 59
2, 42064, Note_on_c, 0, 90, 0
2, 42077, Note_on_c, 0, 89, 46
2, 42082, Note_on_c, 0, 91, 26
2, 42089, Note_on_c, 0, 91, 0
2, 42097, Note_on_c, 0, 89, 0
2, 42116, Note_on_c, 0, 87, 62
2, 42117, Note_on_c, 0, 63, 36
2, 42119, Note_on_c, 0, 60, 40
2, 42123, Control_c, 0, 64, 0
2, 42123, Note_on_c, 0, 56, 32
2, 42125, Note_on_c, 0, 53, 17
2, 42131, Note_on_c, 0, 60, 0
2, 42134, Note_on_c, 0, 63, 0
2, 42142, Note_on_c, 0, 53, 0
2, 42147, Note_on_c, 0, 56, 0
2, 42151, Control_c, 0, 64, 127
2, 42156, Note_on_c, 0, 85, 52
2, 42188, Note_on_c, 0, 85, 0
2, 42188, Note_on_c, 0, 87, 0
2, 42199, Note_on_c, 0, 84, 60
2, 42235, Control_c, 0, 64, 0
2, 42236, Note_on_c, 0, 49, 48
2, 42240, Note_on_c, 0, 60, 34
2, 42258, Note_on_c, 0, 60, 0
2, 42260, Note_on_c, 0, 49, 0
2, 42265, Control_c, 0, 64, 127
2, 42282, Note_on_c, 0, 87, 71
2, 42286, Note_on_c, 0, 84, 0
2, 42308, Note_on_c, 0, 87, 0
2, 42322, Note_on_c, 0, 80, 55
2, 42362, Control_c, 0, 64, 0
2, 42362, Note_on_c, 0, 63, 56
2, 42369, Note_on_c, 0, 53, 36
2, 42369, Note_on_c, 0, 58, 37
2, 42392, Control_c, 0, 64, 127
2, 42394, Note_on_c, 0, 53, 0
2, 42407, Note_on_c, 0, 84, 66
2, 42410, Note_on_c, 0, 58, 0
2, 42413, Note_on_c, 0, 63, 0
2, 42416, Note_on_c, 0, 80, 0
2, 42436, Note_on_c, 0, 84, 0
2, 42447, Note_on_c, 0, 77, 68
2, 42479, Note_on_c, 0, 65, 44
2, 42480, Control_c, 0, 64, 0
2, 42483, Note_on_c, 0, 55, 42
2, 42486, Note_on_c, 0, 60, 26
2, 42510, Control_c, 0, 64, 127
2, 42516, Note_on_c, 0, 65, 0
2, 42519, Note_on_c, 0, 55, 0
2, 42523, Note_on_c, 0, 60, 0
2, 42525, Note_on_c, 0, 80, 71
2, 42531, Note_on_c, 0, 77, 0
2, 42554, Note_on_c, 0, 80, 0
2, 42566, Note_on_c, 0, 75, 71
2, 42603, Note_on_c, 0, 75, 0
2, 42603, Note_on_c, 0, 63, 57
2, 42606, Control_c, 0, 64, 0
2, 42607, Note_on_c, 0, 53, 46
2, 42608, Note_on_c, 0, 77, 71
2, 42612, Note_on_c, 0, 58, 35
2, 42621, Note_on_c, 0, 63, 0
2, 42624, Note_on_c, 0, 53, 0
2, 42630, Note_on_c, 0, 58, 0
2, 42632, Control_c, 0, 64, 127
2, 42646, Note_on_c, 0, 77, 0
2, 42651, Note_on_c, 0, 71, 42
2, 42672, Note_on_c, 0, 71, 0
2, 42685, Note_on_c, 0, 75, 69
2, 42727, Control_c, 0, 64, 0
2, 42729, Note_on_c, 0, 49, 33
2, 42729, Note_on_c, 0, 60, 32
2, 42730, Note_on_c, 0, 75, 0
2, 42731, Note_on_c, 0, 65, 40
2, 42731, Note_on_c, 0, 68, 25
2, 42757, Control_c, 0, 64, 127
2, 42783, Note_on_c, 0, 60, 0
2, 42784, Note_on_c, 0, 68, 0
2, 42793, Note_on_c, 0, 65, 0
2, 42847, Note_on_c, 0, 72, 36
2, 42847, Note_on_c, 0, 58, 52
2, 42847, Note_on_c, 0, 65, 58
2, 42848, Control_c, 0, 64, 0
2, 42880, Control_c, 0, 64, 127
2, 42923, Note_on_c, 0, 65, 0
2, 42935, Note_on_c, 0, 72, 0
2, 42937, Note_on_c, 0, 58, 0
2, 42960, Note_on_c, 0, 70, 53
2, 42964, Control_c, 0, 64, 0
2, 42965, Note_on_c, 0, 65, 42
2, 42968, Note_on_c, 0, 60, 30
2, 42968, Note_on_c, 0, 56, 37
2, 42987, Note_on_c, 0, 49, 0
2, 42994, Control_c, 0, 64, 127
2, 43025, Note_on_c, 0, 65, 0
2, 43033, Note_on_c, 0, 60, 0
2, 43064, Note_on_c, 0, 70, 0
2, 43068, Control_c, 0, 64, 0
2, 43077, Note_on_c, 0, 68, 43
2, 43080, Control_c, 0, 64, 127
2, 43081, Note_on_c, 0, 49, 35
2, 43083, Note_on_c, 0, 65, 36
2, 43085, Note_on_c, 0, 60, 26
2, 43094, Note_on_c, 0, 56, 0
2, 43105, Note_on_c, 0, 49, 0
2, 43109, Note_on_c, 0, 65, 0
2, 43134, Note_on_c, 0, 60, 0
2, 43198, Note_on_c, 0, 44, 35
2, 43199, Control_c, 0, 64, 0
2, 43199, Note_on_c, 0, 59, 39
2, 43200, Note_on_c, 0, 63, 27
2, 43201, Note_on_c, 0, 54, 20
2, 43219, Control_c, 0, 64, 127
2, 43236, Note_on_c, 0, 44, 0
2, 43253, Note_on_c, 0, 54, 0
2, 43265, Note_on_c, 0, 59, 0
2, 43272, Note_on_c, 0, 63, 0
2, 43282, Note_on_c, 0, 70, 53
2, 43285, Note_on_c, 0, 58, 65
2, 43285, Note_on_c, 0, 59, 48
2, 43287, Note_on_c, 0, 63, 37
2, 43300, Note_on_c, 0, 59, 0
2, 43303, Note_on_c, 0, 58, 0
2, 43306, Note_on_c, 0, 70, 0
2, 43307, Note_on_c, 0, 63, 0
2, 43308, Note_on_c, 0, 68, 0
2, 43325, Control_c, 0, 64, 0
2, 43329, Note_on_c, 0, 56, 35
2, 43398, Note_on_c, 0, 56, 0
2, 43403, Note_on_c, 0, 70, 46
2, 43403, Note_on_c, 0, 58, 37
2, 43403, Note_on_c, 0, 63, 43
2, 43405, Control_c, 0, 64, 127
2, 43406, Note_on_c, 0, 59, 44
2, 43426, Note_on_c, 0, 59, 0
2, 43437, Note_on_c, 0, 63, 0
2, 43439, Note_on_c, 0, 70, 0
2, 43446, Note_on_c, 0, 58, 0
2, 43449, Control_c, 0, 64, 0
2, 43455, Note_on_c, 0, 56, 28
2, 43460, Note_on_c, 0, 68, 30
2, 43504, Note_on_c, 0, 68, 0
2, 43510, Control_c, 0, 64, 127
2, 43521, Note_on_c, 0, 56, 0
2, 43523, Note_on_c, 0, 58, 44
2, 43523, Note_on_c, 0, 70, 56
2, 43526, Note_on_c, 0, 63, 42
2, 43527, Note_on_c, 0, 59, 51
2, 43547, Note_on_c, 0, 59, 0
2, 43556, Note_on_c, 0, 70, 0
2, 43557, Note_on_c, 0, 63, 0
2, 43568, Control_c, 0, 64, 0
2, 43570, Note_on_c, 0, 58, 0
2, 43574, Note_on_c, 0, 56, 32
2, 43577, Note_on_c, 0, 68, 29
2, 43580, Note_on_c, 0, 63, 18
2, 43590, Control_c, 0, 64, 127
2, 43591, Note_on_c, 0, 63, 0
2, 43591, Note_on_c, 0, 68, 0
2, 43597, Note_on_c, 0, 56, 0
2, 43634, Note_on_c, 0, 58, 49
2, 43643, Note_on_c, 0, 60, 71
2, 43644, Note_on_c, 0, 72, 61
2, 43646, Note_on_c, 0, 69, 60
2, 43647, Note_on_c, 0, 65, 68
2, 43648, Control_c, 0, 64, 0
2, 43648, Note_on_c, 0, 62, 67
2, 43653, Note_on_c, 0, 58, 0
2, 43653, Note_on_c, 0, 71, 35
2, 43663, Note_on_c, 0, 71, 0
2, 43665, Note_on_c, 0, 60, 0
2, 43666, Note_on_c, 0, 69, 0
2, 43670, Note_on_c, 0, 65, 0
2, 43672, Note_on_c, 0, 72, 0
2, 43681, Note_on_c, 0, 62, 0
2, 43702, Control_c, 0, 64, 127
2, 43758, Note_on_c, 0, 69, 59
2, 43759, Note_on_c, 0, 55, 53
2, 43759, Note_on_c, 0, 58, 43
2, 43760, Note_on_c, 0, 62, 60
2, 43761, Control_c, 0, 64, 0
2, 43763, Note_on_c, 0, 65, 44
2, 43783, Note_on_c, 0, 55, 0
2, 43791, Note_on_c, 0, 69, 0
2, 43792, Note_on_c, 0, 65, 0
2, 43792, Note_on_c, 0, 58, 0
2, 43794, Note_on_c, 0, 62, 0
2, 43818, Control_c, 0, 64, 127
2, 43871, Note_on_c, 0, 47, 49
2, 43876, Note_on_c, 0, 67, 60
2, 43877, Note_on_c, 0, 48, 32
2, 43877, Note_on_c, 0, 58, 34
2, 43879, Note_on_c, 0, 61, 33
2, 43881, Note_on_c, 0, 64, 48
2, 43882, Control_c, 0, 64, 0
2, 43889, Note_on_c, 0, 47, 0
2, 43918, Note_on_c, 0, 67, 0
2, 43920, Note_on_c, 0, 64, 0
2, 43926, Note_on_c, 0, 61, 0
2, 43927, Note_on_c, 0, 58, 0
2, 43927, Control_c, 0, 64, 127
2, 43979, Note_on_c, 0, 48, 0
2, 43988, Note_on_c, 0, 36, 59
2, 43995, Note_on_c, 0, 36, 0
2, 44029, Note_on_c, 0, 61, 46
2, 44029, Control_c, 0, 64, 0
2, 44031, Note_on_c, 0, 52, 44
2, 44035, Note_on_c, 0, 56, 33
2, 44037, Note_on_c, 0, 58, 31
2, 44039, Note_on_c, 0, 50, 31
2, 44045, Note_on_c, 0, 42, 25
2, 44063, Note_on_c, 0, 52, 0
2, 44063, Control_c, 0, 64, 127
2, 44070, Note_on_c, 0, 50, 0
2, 44108, Note_on_c, 0, 42, 0
2, 44117, Note_on_c, 0, 56, 0
2, 44122, Note_on_c, 0, 61, 0
2, 44137, Note_on_c, 0, 58, 0
2, 44145, Control_c, 0, 64, 0
2, 44157, Note_on_c, 0, 56, 40
2, 44159, Note_on_c, 0, 60, 46
2, 44159, Note_on_c, 0, 41, 45
2, 44160, Note_on_c, 0, 53, 36
2, 44160, Note_on_c, 0, 51, 32
2, 44171, Control_c, 0, 64, 127
2, 44175, Note_on_c, 0, 41, 0
2, 44181, Note_on_c, 0, 53, 0
2, 44193, Note_on_c, 0, 60, 0
2, 44195, Note_on_c, 0, 56, 0
2, 44198, Note_on_c, 0, 51, 0
2, 44284, Note_on_c, 0, 56, 62
2, 44286, Control_c, 0, 64, 0
2, 44286, Note_on_c, 0, 68, 73
2, 44286, Note_on_c, 0, 63, 72
2, 44287, Note_on_c, 0, 65, 74
2, 44287, Note_on_c, 0, 60, 83
2, 44348, Note_on_c, 0, 56, 0
2, 44353, Note_on_c, 0, 65, 0
2, 44354, Note_on_c, 0, 68, 0
2, 44354, Note_on_c, 0, 60, 0
2, 44361, Note_on_c, 0, 63, 0
2, 44362, Control_c, 0, 64, 127
2, 44366, Note_on_c, 0, 55, 48
2, 44374, Control_c, 0, 64, 0
2, 44389, Note_on_c, 0, 55, 0
2, 44404, Note_on_c, 0, 56, 47
2, 44405, Note_on_c, 0, 68, 44
2, 44408, Note_on_c, 0, 60, 45
2, 44408, Note_on_c, 0, 63, 36
2, 44411, Note_on_c, 0, 65, 44
2, 44427, Control_c, 0, 64, 127
2, 44462, Note_on_c, 0, 60, 0
2, 44463, Note_on_c, 0, 68, 0
2, 44464, Note_on_c, 0, 56, 0
2, 44465, Note_on_c, 0, 65, 0
2, 44466, Note_on_c, 0, 63, 0
2, 44484, Note_on_c, 0, 56, 47
2, 44485, Note_on_c, 0, 63, 61
2, 44487, Note_on_c, 0, 68, 63
2, 44489, Note_on_c, 0, 60, 63
2, 44491, Note_on_c, 0, 65, 36
2, 44493, Control_c, 0, 64, 0
2, 44496, Note_on_c, 0, 60, 0
2, 44500, Note_on_c, 0, 65, 0
2, 44504, Note_on_c, 0, 56, 0
2, 44506, Note_on_c, 0, 63, 0
2, 44512, Note_on_c, 0, 68, 0
2, 44523, Control_c, 0, 64, 127
2, 44597, Note_on_c, 0, 75, 54
2, 44597, Note_on_c, 0, 68, 49
2, 44599, Note_on_c, 0, 72, 39
2, 44599, Note_on_c, 0, 65, 51
2, 44600, Note_on_c, 0, 63, 46
2, 44600, Note_on_c, 0, 61, 34
2, 44607, Control_c, 0, 64, 0
2, 44628, Note_on_c, 0, 65, 0
2, 44636, Note_on_c, 0, 63, 0
2, 44639, Control_c, 0, 64, 127
2, 44640, Note_on_c, 0, 61, 0
2, 44720, Note_on_c, 0, 46, 56
2, 44748, Note_on_c, 0, 46, 0
2, 44774, Note_on_c, 0, 46, 35
2, 44794, Note_on_c, 0, 46, 0
2, 44841, Note_on_c, 0, 46, 53
2, 44862, Note_on_c, 0, 46, 0
2, 44885, Note_on_c, 0, 68, 0
2, 44891, Note_on_c, 0, 72, 0
2, 44893, Note_on_c, 0, 46, 44
2, 44900, Note_on_c, 0, 75, 0
2, 44948, Note_on_c, 0, 46, 0
2, 44965, Note_on_c, 0, 46, 25
2, 44966, Note_on_c, 0, 73, 54
2, 44967, Note_on_c, 0, 68, 57
2, 44968, Note_on_c, 0, 62, 56
2, 44969, Note_on_c, 0, 56, 42
2, 44972, Control_c, 0, 64, 0
2, 45008, Control_c, 0, 64, 127
2, 45029, Note_on_c, 0, 68, 0
2, 45034, Note_on_c, 0, 73, 0
2, 45036, Note_on_c, 0, 46, 0
2, 45061, Note_on_c, 0, 62, 0
2, 45072, Note_on_c, 0, 46, 36
2, 45091, Note_on_c, 0, 56, 0
2, 45101, Note_on_c, 0, 46, 0
2, 45125, Note_on_c, 0, 51, 37
2, 45126, Note_on_c, 0, 61, 36
2, 45126, Control_c, 0, 64, 0
2, 45127, Note_on_c, 0, 69, 55
2, 45129, Note_on_c, 0, 65, 49
2, 45131, Note_on_c, 0, 57, 40
2, 45185, Control_c, 0, 64, 127
2, 45213, Control_c, 0, 64, 0
2, 45245, Control_c, 0, 64, 127
2, 45278, Note_on_c, 0, 57, 0
2, 45279, Note_on_c, 0, 51, 0
2, 45316, Note_on_c, 0, 65, 0
2, 45316, Note_on_c, 0, 69, 0
2, 45322, Note_on_c, 0, 51, 37
2, 45336, Note_on_c, 0, 61, 0
2, 45338, Note_on_c, 0, 51, 0
2, 45355, Control_c, 0, 64, 0
2, 45362, Note_on_c, 0, 72, 68
2, 45364, Note_on_c, 0, 61, 68
2, 45364, Note_on_c, 0, 65, 77
2, 45365, Note_on_c, 0, 51, 67
2, 45367, Note_on_c, 0, 57, 64
2, 45387, Control_c, 0, 64, 127
2, 45417, Note_on_c, 0, 72, 0
2, 45418, Note_on_c, 0, 57, 0
2, 45425, Note_on_c, 0, 51, 0
2, 45426, Note_on_c, 0, 61, 0
2, 45429, Note_on_c, 0, 65, 0
2, 45444, Note_on_c, 0, 70, 62
2, 45444, Note_on_c, 0, 51, 48
2, 45445, Note_on_c, 0, 61, 52
2, 45446, Note_on_c, 0, 65, 64
2, 45446, Note_on_c, 0, 57, 57
2, 45457, Control_c, 0, 64, 0
2, 45467, Note_on_c, 0, 57, 0
2, 45478, Note_on_c, 0, 65, 0
2, 45478, Control_c, 0, 64, 127
2, 45481, Note_on_c, 0, 70, 0
2, 45482, Note_on_c, 0, 61, 0
2, 45483, Note_on_c, 0, 51, 0
2, 45561, Note_on_c, 0, 64, 82
2, 45562, Note_on_c, 0, 61, 77
2, 45562, Note_on_c, 0, 42, 69
2, 45563, Note_on_c, 0, 57, 79
2, 45564, Note_on_c, 0, 52, 74
2, 45568, Control_c, 0, 64, 0
2, 45606, Control_c, 0, 64, 127
2, 45638, Note_on_c, 0, 57, 0
2, 45667, Note_on_c, 0, 52, 0
2, 45672, Note_on_c, 0, 61, 0
2, 45677, Note_on_c, 0, 64, 0
2, 45685, Note_on_c, 0, 57, 69
2, 45688, Note_on_c, 0, 52, 48
2, 45702, Note_on_c, 0, 57, 0
2, 45724, Control_c, 0, 64, 0
2, 45730, Note_on_c, 0, 61, 81
2, 45742, Note_on_c, 0, 42, 0
2, 45753, Note_on_c, 0, 61, 0
2, 45753, Note_on_c, 0, 64, 57
2, 45755, Note_on_c, 0, 52, 0
2, 45756, Control_c, 0, 64, 127
2, 45786, Note_on_c, 0, 61, 35
2, 45794, Note_on_c, 0, 64, 0
2, 45812, Note_on_c, 0, 57, 40
2, 45820, Note_on_c, 0, 61, 0
2, 45830, Note_on_c, 0, 57, 0
2, 45836, Note_on_c, 0, 54, 25
2, 45838, Note_on_c, 0, 63, 56
2, 45839, Control_c, 0, 64, 0
2, 45841, Note_on_c, 0, 47, 37
2, 45873, Control_c, 0, 64, 127
2, 45905, Note_on_c, 0, 47, 0
2, 45906, Note_on_c, 0, 54, 0
2, 45916, Note_on_c, 0, 54, 32
2, 45921, Note_on_c, 0, 47, 36
2, 45947, Control_c, 0, 64, 0
2, 45969, Control_c, 0, 64, 127
2, 45985, Note_on_c, 0, 47, 0
2, 46022, Note_on_c, 0, 54, 0
2, 46034, Note_on_c, 0, 47, 51
2, 46042, Note_on_c, 0, 47, 0
2, 46073, Control_c, 0, 64, 0
2, 46076, Note_on_c, 0, 63, 0
2, 46080, Note_on_c, 0, 41, 56
2, 46092, Note_on_c, 0, 41, 0
2, 46095, Control_c, 0, 64, 127
2, 46160, Note_on_c, 0, 58, 67
2, 46160, Note_on_c, 0, 72, 69
2, 46162, Note_on_c, 0, 63, 71
2, 46162, Note_on_c, 0, 68, 59
2, 46167, Control_c, 0, 64, 0
2, 46170, Note_on_c, 0, 58, 0
2, 46171, Note_on_c, 0, 63, 0
2, 46177, Note_on_c, 0, 72, 0
2, 46177, Note_on_c, 0, 68, 0
2, 46226, Control_c, 0, 64, 127
2, 46284, Note_on_c, 0, 70, 53
2, 46286, Note_on_c, 0, 46, 39
2, 46288, Note_on_c, 0, 62, 39
2, 46289, Note_on_c, 0, 66, 32
2, 46290, Note_on_c, 0, 56, 26
2, 46290, Control_c, 0, 64, 0
2, 46326, Control_c, 0, 64, 127
2, 46347, Note_on_c, 0, 62, 0
2, 46353, Note_on_c, 0, 66, 0
2, 46360, Note_on_c, 0, 46, 0
2, 46379, Note_on_c, 0, 56, 0
2, 46387, Note_on_c, 0, 70, 0
2, 46411, Note_on_c, 0, 46, 36
2, 46433, Note_on_c, 0, 46, 0
2, 46450, Note_on_c, 0, 58, 44
2, 46468, Note_on_c, 0, 58, 0
2, 46569, Control_c, 0, 64, 0
2, 46570, Note_on_c, 0, 61, 53
2, 46573, Note_on_c, 0, 65, 58
2, 46578, Note_on_c, 0, 58, 23
2, 46607, Control_c, 0, 64, 127
2, 46620, Note_on_c, 0, 58, 0
2, 46638, Note_on_c, 0, 65, 0
2, 46644, Note_on_c, 0, 68, 53
2, 46671, Note_on_c, 0, 68, 0
2, 46680, Note_on_c, 0, 61, 0
2, 46696, Note_on_c, 0, 66, 40
2, 46728, Note_on_c, 0, 66, 0
2, 46761, Note_on_c, 0, 63, 58
2, 46765, Note_on_c, 0, 54, 34
2, 46767, Note_on_c, 0, 44, 31
2, 46773, Control_c, 0, 64, 0
2, 46798, Note_on_c, 0, 63, 0
2, 46803, Control_c, 0, 64, 127
2, 46807, Note_on_c, 0, 44, 0
2, 46812, Note_on_c, 0, 54, 0
2, 46882, Note_on_c, 0, 62, 62
2, 46884, Note_on_c, 0, 44, 45
2, 46885, Note_on_c, 0, 54, 35
2, 46886, Control_c, 0, 64, 0
2, 46886, Note_on_c, 0, 65, 32
2, 46890, Note_on_c, 0, 57, 38
2, 46922, Control_c, 0, 64, 127
2, 46927, Note_on_c, 0, 44, 0
2, 46943, Note_on_c, 0, 57, 0
2, 46952, Note_on_c, 0, 62, 0
2, 46957, Note_on_c, 0, 65, 0
2, 46966, Note_on_c, 0, 54, 0
2, 47040, Control_c, 0, 64, 0
2, 47046, Note_on_c, 0, 61, 60
2, 47048, Note_on_c, 0, 37, 34
2, 47051, Note_on_c, 0, 44, 31
2, 47052, Note_on_c, 0, 53, 36
2, 47053, Note_on_c, 0, 56, 33
2, 47070, Control_c, 0, 64, 127
2, 47091, Note_on_c, 0, 53, 0
2, 47108, Note_on_c, 0, 56, 0
2, 47118, Note_on_c, 0, 61, 0
2, 47124, Note_on_c, 0, 37, 0
2, 47133, Note_on_c, 0, 44, 0
2, 47263, Control_c, 0, 64, 0
2, 47294, Note_on_c, 0, 54, 60
2, 47294, Note_on_c, 0, 75, 77
2, 47296, Note_on_c, 0, 68, 81
2, 47296, Note_on_c, 0, 58, 60
2, 47297, Note_on_c, 0, 72, 62
2, 47298, Note_on_c, 0, 64, 78
2, 47298, Note_on_c, 0, 73, 36
2, 47333, Control_c, 0, 64, 127
2, 47354, Note_on_c, 0, 72, 0
2, 47354, Note_on_c, 0, 75, 0
2, 47359, Note_on_c, 0, 73, 0
2, 47362, Note_on_c, 0, 64, 0
2, 47366, Note_on_c, 0, 74, 66
2, 47370, Note_on_c, 0, 64, 24
2, 47392, Note_on_c, 0, 64, 0
2, 47395, Note_on_c, 0, 74, 0
2, 47406, Note_on_c, 0, 68, 0
2, 47411, Note_on_c, 0, 58, 0
2, 47418, Note_on_c, 0, 73, 40
2, 47427, Note_on_c, 0, 54, 0
2, 47448, Note_on_c, 0, 73, 0
2, 47489, Control_c, 0, 64, 0
2, 47490, Note_on_c, 0, 65, 47
2, 47491, Note_on_c, 0, 72, 36
2, 47492, Note_on_c, 0, 63, 35
2, 47493, Note_on_c, 0, 68, 35
2, 47494, Note_on_c, 0, 56, 35
2, 47496, Note_on_c, 0, 60, 41
2, 47497, Note_on_c, 0, 53, 25
2, 47523, Control_c, 0, 64, 127
2, 47589, Note_on_c, 0, 60, 0
2, 47591, Note_on_c, 0, 63, 0
2, 47606, Note_on_c, 0, 56, 0
2, 47609, Note_on_c, 0, 53, 0
2, 47626, Note_on_c, 0, 65, 0
2, 47648, Note_on_c, 0, 68, 0
2, 47676, Note_on_c, 0, 72, 0
2, 47736, Control_c, 0, 64, 0
2, 47763, Note_on_c, 0, 73, 67
2, 47764, Note_on_c, 0, 46, 59
2, 47765, Note_on_c, 0, 61, 86
2, 47765, Note_on_c, 0, 66, 76
2, 47766, Note_on_c, 0, 56, 51
2, 47766, Note_on_c, 0, 70, 59
2, 47784, Control_c, 0, 64, 127
2, 47823, Note_on_c, 0, 70, 0
2, 47823, Note_on_c, 0, 61, 0
2, 47830, Note_on_c, 0, 66, 0
2, 47830, Note_on_c, 0, 73, 0
2, 47837, Note_on_c, 0, 72, 49
2, 47856, Note_on_c, 0, 46, 0
2, 47866, Note_on_c, 0, 56, 0
2, 47871, Note_on_c, 0, 72, 0
2, 47890, Note_on_c, 0, 71, 49
2, 47924, Note_on_c, 0, 71, 0
2, 47968, Note_on_c, 0, 70, 46
2, 47969, Note_on_c, 0, 61, 42
2, 47971, Note_on_c, 0, 66, 49
2, 47973, Note_on_c, 0, 58, 42
2, 47974, Note_on_c, 0, 54, 30
2, 47975, Control_c, 0, 64, 0
2, 47975, Note_on_c, 0, 51, 28
2, 48019, Control_c, 0, 64, 127
2, 48059, Note_on_c, 0, 58, 0
2, 48072, Note_on_c, 0, 54, 0
2, 48081, Note_on_c, 0, 51, 0
2, 48127, Note_on_c, 0, 61, 0
2, 48134, Note_on_c, 0, 66, 0
2, 48144, Note_on_c, 0, 70, 0
2, 48209, Note_on_c, 0, 44, 49
2, 48232, Note_on_c, 0, 60, 47
2, 48244, Note_on_c, 0, 64, 58
2, 48248, Note_on_c, 0, 66, 63
2, 48249, Control_c, 0, 64, 0
2, 48252, Note_on_c, 0, 54, 60
2, 48254, Note_on_c, 0, 71, 74
2, 48282, Control_c, 0, 64, 127
2, 48308, Note_on_c, 0, 54, 0
2, 48331, Note_on_c, 0, 44, 0
2, 48353, Note_on_c, 0, 60, 0
2, 48356, Note_on_c, 0, 71, 0
2, 48363, Note_on_c, 0, 64, 0
2, 48366, Note_on_c, 0, 66, 0
2, 48371, Note_on_c, 0, 71, 75
2, 48418, Note_on_c, 0, 71, 0
2, 48476, Note_on_c, 0, 25, 40
2, 48500, Note_on_c, 0, 55, 61
2, 48511, Note_on_c, 0, 60, 54
2, 48513, Note_on_c, 0, 37, 46
2, 48516, Control_c, 0, 64, 0
2, 48519, Note_on_c, 0, 64, 68
2, 48524, Note_on_c, 0, 67, 76
2, 48548, Control_c, 0, 64, 127
2, 48567, Note_on_c, 0, 55, 0
2, 48579, Note_on_c, 0, 60, 0
2, 48586, Note_on_c, 0, 64, 0
2, 48589, Note_on_c, 0, 67, 0
2, 48603, Note_on_c, 0, 25, 0
2, 48610, Note_on_c, 0, 37, 0
2, 48711, Note_on_c, 0, 61, 52
2, 48760, Note_on_c, 0, 67, 57
2, 48793, Note_on_c, 0, 67, 0
2, 48795, Note_on_c, 0, 72, 53
2, 48832, Note_on_c, 0, 72, 0
2, 48834, Note_on_c, 0, 79, 74
2, 48852, Note_on_c, 0, 79, 0
2, 48876, Note_on_c, 0, 84, 71
2, 48918, Note_on_c, 0, 91, 75
2, 48929, Note_on_c, 0, 61, 0
2, 48942, Note_on_c, 0, 84, 0
2, 48965, Note_on_c, 0, 79, 43
2, 48966, Note_on_c, 0, 84, 57
2, 49002, Note_on_c, 0, 91, 0
2, 49011, Note_on_c, 0, 84, 0
2, 49015, Note_on_c, 0, 79, 0
2, 49018, Note_on_c, 0, 72, 28
2, 49020, Note_on_c, 0, 91, 62
2, 49065, Note_on_c, 0, 91, 0
2, 49075, Note_on_c, 0, 84, 47
2, 49077, Note_on_c, 0, 79, 32
2, 49111, Note_on_c, 0, 79, 0
2, 49116, Note_on_c, 0, 84, 0
2, 49125, Note_on_c, 0, 91, 45
2, 49185, Note_on_c, 0, 91, 0
2, 49185, Note_on_c, 0, 72, 0
2, 49192, Note_on_c, 0, 84, 45
2, 49196, Note_on_c, 0, 79, 24
2, 49238, Note_on_c, 0, 79, 0
2, 49239, Note_on_c, 0, 84, 0
2, 49244, Note_on_c, 0, 91, 55
2, 49290, Note_on_c, 0, 91, 0
2, 49308, Note_on_c, 0, 79, 32
2, 49310, Note_on_c, 0, 84, 44
2, 49310, Note_on_c, 0, 73, 29
2, 49353, Note_on_c, 0, 79, 0
2, 49362, Note_on_c, 0, 84, 0
2, 49365, Note_on_c, 0, 91, 53
2, 49382, Note_on_c, 0, 91, 0
2, 49421, Note_on_c, 0, 91, 35
2, 49421, Note_on_c, 0, 96, 36
2, 49422, Note_on_c, 0, 77, 34
2, 49425, Note_on_c, 0, 73, 0
2, 49453, Note_on_c, 0, 77, 0
2, 49476, Note_on_c, 0, 91, 0
2, 49477, Note_on_c, 0, 103, 42
2, 49491, Note_on_c, 0, 96, 0
2, 49520, Note_on_c, 0, 103, 0
2, 49539, Note_on_c, 0, 85, 54
2, 49539, Note_on_c, 0, 96, 41
2, 49541, Note_on_c, 0, 91, 33
2, 49581, Note_on_c, 0, 85, 0
2, 49590, Note_on_c, 0, 96, 0
2, 49598, Note_on_c, 0, 91, 0
2, 49865, Note_on_c, 0, 25, 38
2, 49884, Note_on_c, 0, 25, 0
2, 50496, Control_c, 0, 64, 0
2, 50496, End_track
3, 0, Start_track
3, 0, Title_t, ""
3, 0, End_track
0, 0, End_of_file
