0, 0, Header, 1, 6, 960
1, 0, Start_track
1, 0, Title_t, "The Summer Wind"
1, 0, Text_t, "Johnny Mercer and Henry Mayer"
1, 0, Text_t, "dougmck@pipeline.com.au\012"
1, 0, Time_signature, 4, 2, 24, 8
1, 0, Key_signature, -4, "major"
1, 0, Tempo, 461538
1, 0, Marker_t, "Key Ab"
1, 192000, Key_signature, -2, "major"
1, 192000, Marker_t, "Key Bb"
1, 314880, Key_signature, 0, "major"
1, 314880, Marker_t, "Key C"
1, 314880, End_track
2, 0, Start_track
2, 0, Program_c, 0, 0
2, 0, Control_c, 0, 64, 127
2, 104, Control_c, 0, 64, 0
2, 757, Note_on_c, 0, 64, 81
2, 770, Note_on_c, 0, 84, 94
2, 773, Note_on_c, 0, 58, 88
2, 774, Note_on_c, 0, 79, 89
2, 777, Note_on_c, 0, 72, 95
2, 779, Note_on_c, 0, 69, 96
2, 1068, Control_c, 0, 64, 127
2, 1981, Note_on_c, 0, 72, 0
2, 2009, Note_on_c, 0, 64, 0
2, 2025, Note_on_c, 0, 69, 0
2, 2043, Note_on_c, 0, 79, 0
2, 2046, Note_on_c, 0, 84, 0
2, 2165, Note_on_c, 0, 58, 0
2, 2560, Control_c, 0, 64, 0
2, 2663, Note_on_c, 0, 57, 79
2, 2665, Note_on_c, 0, 67, 91
2, 2667, Note_on_c, 0, 63, 80
2, 2671, Note_on_c, 0, 87, 83
2, 2673, Note_on_c, 0, 75, 92
2, 2681, Note_on_c, 0, 82, 82
2, 2877, Note_on_c, 0, 75, 0
2, 2881, Note_on_c, 0, 87, 0
2, 2908, Note_on_c, 0, 67, 0
2, 2917, Note_on_c, 0, 82, 0
2, 2926, Note_on_c, 0, 57, 0
2, 2983, Note_on_c, 0, 63, 0
2, 3096, Note_on_c, 0, 85, 53
2, 3102, Note_on_c, 0, 57, 50
2, 3105, Note_on_c, 0, 73, 44
2, 3107, Note_on_c, 0, 63, 64
2, 3119, Note_on_c, 0, 67, 68
2, 3125, Note_on_c, 0, 80, 44
2, 3341, Note_on_c, 0, 80, 0
2, 3362, Note_on_c, 0, 85, 0
2, 3385, Note_on_c, 0, 57, 0
2, 3412, Note_on_c, 0, 67, 0
2, 3441, Note_on_c, 0, 73, 0
2, 3507, Note_on_c, 0, 63, 0
2, 3699, Note_on_c, 0, 82, 55
2, 3704, Note_on_c, 0, 61, 57
2, 3710, Note_on_c, 0, 60, 53
2, 3712, Note_on_c, 0, 65, 60
2, 3730, Note_on_c, 0, 70, 55
2, 3733, Note_on_c, 0, 56, 59
2, 3960, Control_c, 0, 64, 127
2, 5005, Note_on_c, 0, 60, 0
2, 5035, Note_on_c, 0, 61, 0
2, 5078, Note_on_c, 0, 70, 0
2, 5121, Note_on_c, 0, 65, 0
2, 5163, Note_on_c, 0, 82, 0
2, 5217, Note_on_c, 0, 56, 0
2, 5822, Control_c, 0, 64, 0
2, 5824, Note_on_c, 0, 84, 43
2, 5843, Note_on_c, 0, 61, 39
2, 5850, Note_on_c, 0, 65, 36
2, 5862, Note_on_c, 0, 72, 34
2, 5865, Note_on_c, 0, 55, 37
2, 5867, Note_on_c, 0, 77, 40
2, 6206, Control_c, 0, 64, 127
2, 6319, Note_on_c, 0, 84, 0
2, 6401, Note_on_c, 0, 77, 0
2, 6498, Note_on_c, 0, 72, 0
2, 6597, Note_on_c, 0, 65, 0
2, 6672, Note_on_c, 0, 61, 0
2, 6725, Note_on_c, 0, 55, 0
2, 7398, Note_on_c, 0, 63, 40
2, 7411, Note_on_c, 0, 44, 31
2, 7502, Note_on_c, 0, 44, 0
2, 7505, Note_on_c, 0, 63, 0
2, 7698, Control_c, 0, 64, 0
2, 7718, Note_on_c, 0, 63, 33
2, 7721, Note_on_c, 0, 55, 28
2, 7727, Note_on_c, 0, 70, 39
2, 7943, Note_on_c, 0, 55, 0
2, 7953, Note_on_c, 0, 63, 0
2, 8022, Note_on_c, 0, 70, 0
2, 8693, Note_on_c, 0, 72, 40
2, 8720, Note_on_c, 0, 56, 37
2, 8725, Note_on_c, 0, 63, 21
2, 8728, Note_on_c, 0, 68, 37
2, 9080, Note_on_c, 0, 56, 0
2, 9084, Note_on_c, 0, 63, 0
2, 9100, Note_on_c, 0, 68, 0
2, 9113, Note_on_c, 0, 72, 0
2, 9688, Note_on_c, 0, 72, 57
2, 9713, Note_on_c, 0, 65, 49
2, 9750, Note_on_c, 0, 61, 25
2, 9850, Note_on_c, 0, 55, 9
2, 10345, Control_c, 0, 64, 127
2, 10617, Note_on_c, 0, 55, 0
2, 10705, Note_on_c, 0, 61, 0
2, 10718, Note_on_c, 0, 65, 0
2, 11147, Note_on_c, 0, 72, 0
2, 11344, Note_on_c, 0, 67, 51
2, 11504, Note_on_c, 0, 67, 0
2, 11628, Control_c, 0, 64, 0
2, 11641, Note_on_c, 0, 58, 59
2, 11646, Note_on_c, 0, 63, 64
2, 11666, Note_on_c, 0, 53, 55
2, 11678, Note_on_c, 0, 70, 93
2, 12201, Note_on_c, 0, 70, 0
2, 12254, Control_c, 0, 64, 127
2, 12270, Control_c, 0, 64, 0
2, 12320, Note_on_c, 0, 60, 38
2, 12327, Note_on_c, 0, 72, 90
2, 12350, Control_c, 0, 64, 127
2, 12446, Control_c, 0, 64, 0
2, 12601, Note_on_c, 0, 72, 0
2, 12688, Note_on_c, 0, 53, 0
2, 12721, Note_on_c, 0, 70, 31
2, 13057, Note_on_c, 0, 60, 0
2, 13090, Note_on_c, 0, 63, 0
2, 13188, Note_on_c, 0, 58, 0
2, 13273, Note_on_c, 0, 70, 0
2, 13335, Note_on_c, 0, 72, 70
2, 14286, Note_on_c, 0, 67, 61
2, 14288, Note_on_c, 0, 63, 57
2, 14315, Note_on_c, 0, 57, 34
2, 14353, Note_on_c, 0, 67, 0
2, 14378, Note_on_c, 0, 57, 0
2, 14398, Note_on_c, 0, 63, 0
2, 15109, Control_c, 0, 64, 127
2, 15173, Note_on_c, 0, 72, 0
2, 15193, Note_on_c, 0, 70, 55
2, 15404, Note_on_c, 0, 70, 0
2, 15430, Control_c, 0, 64, 0
2, 15513, Note_on_c, 0, 61, 36
2, 15521, Note_on_c, 0, 72, 54
2, 15523, Note_on_c, 0, 65, 30
2, 15529, Note_on_c, 0, 60, 25
2, 15558, Note_on_c, 0, 56, 27
2, 15890, Note_on_c, 0, 61, 0
2, 15892, Note_on_c, 0, 72, 0
2, 15913, Note_on_c, 0, 65, 0
2, 15949, Note_on_c, 0, 60, 0
2, 15984, Note_on_c, 0, 56, 0
2, 16505, Control_c, 0, 64, 127
2, 17001, Control_c, 0, 64, 0
2, 17069, Note_on_c, 0, 85, 63
2, 17075, Note_on_c, 0, 60, 34
2, 17094, Note_on_c, 0, 65, 32
2, 17100, Note_on_c, 0, 73, 35
2, 17141, Note_on_c, 0, 61, 30
2, 17178, Note_on_c, 0, 56, 20
2, 17227, Note_on_c, 0, 85, 0
2, 17287, Note_on_c, 0, 73, 0
2, 17318, Note_on_c, 0, 65, 0
2, 17343, Note_on_c, 0, 56, 0
2, 17350, Note_on_c, 0, 61, 0
2, 17355, Note_on_c, 0, 60, 0
2, 17565, Note_on_c, 0, 82, 26
2, 17577, Note_on_c, 0, 65, 37
2, 17587, Note_on_c, 0, 61, 27
2, 17644, Note_on_c, 0, 70, 19
2, 17774, Note_on_c, 0, 61, 0
2, 17790, Note_on_c, 0, 65, 0
2, 17824, Note_on_c, 0, 82, 0
2, 17862, Note_on_c, 0, 70, 0
2, 19281, Note_on_c, 0, 61, 31
2, 19307, Note_on_c, 0, 55, 33
2, 19316, Note_on_c, 0, 65, 27
2, 19705, Note_on_c, 0, 55, 0
2, 19707, Note_on_c, 0, 61, 0
2, 19725, Note_on_c, 0, 65, 0
2, 20286, Note_on_c, 0, 87, 76
2, 20528, Note_on_c, 0, 87, 0
2, 20588, Note_on_c, 0, 88, 75
2, 20809, Note_on_c, 0, 88, 0
2, 20869, Note_on_c, 0, 85, 77
2, 20998, Note_on_c, 0, 64, 30
2, 20999, Note_on_c, 0, 61, 23
2, 21053, Note_on_c, 0, 55, 34
2, 21119, Note_on_c, 0, 85, 0
2, 21150, Note_on_c, 0, 84, 44
2, 21334, Note_on_c, 0, 84, 0
2, 21470, Note_on_c, 0, 82, 36
2, 21703, Note_on_c, 0, 82, 0
2, 21825, Note_on_c, 0, 79, 20
2, 21896, Note_on_c, 0, 79, 0
2, 22031, Note_on_c, 0, 81, 70
2, 22317, Note_on_c, 0, 81, 0
2, 22320, Note_on_c, 0, 82, 70
2, 22498, Note_on_c, 0, 82, 0
2, 22525, Note_on_c, 0, 64, 0
2, 22560, Note_on_c, 0, 55, 0
2, 22596, Note_on_c, 0, 83, 65
2, 22651, Note_on_c, 0, 61, 0
2, 22803, Note_on_c, 0, 83, 0
2, 22824, Control_c, 0, 64, 127
2, 22877, Note_on_c, 0, 84, 65
2, 23067, Note_on_c, 0, 84, 0
2, 23081, Control_c, 0, 64, 0
2, 23176, Note_on_c, 0, 85, 56
2, 23392, Note_on_c, 0, 85, 0
2, 23501, Note_on_c, 0, 84, 40
2, 23654, Note_on_c, 0, 84, 0
2, 24712, Note_on_c, 0, 65, 58
2, 24715, Note_on_c, 0, 60, 35
2, 24745, Note_on_c, 0, 61, 28
2, 24766, Note_on_c, 0, 65, 0
2, 24777, Note_on_c, 0, 60, 0
2, 24822, Note_on_c, 0, 61, 0
2, 25368, Note_on_c, 0, 85, 57
2, 25411, Note_on_c, 0, 73, 31
2, 25512, Note_on_c, 0, 73, 0
2, 25550, Note_on_c, 0, 85, 0
2, 26013, Note_on_c, 0, 85, 67
2, 26320, Note_on_c, 0, 85, 0
2, 26618, Note_on_c, 0, 84, 55
2, 26631, Note_on_c, 0, 61, 46
2, 26633, Note_on_c, 0, 65, 58
2, 26691, Note_on_c, 0, 65, 0
2, 26705, Note_on_c, 0, 61, 0
2, 26798, Note_on_c, 0, 84, 0
2, 27057, Note_on_c, 0, 73, 53
2, 27058, Note_on_c, 0, 85, 67
2, 27187, Note_on_c, 0, 73, 0
2, 27200, Note_on_c, 0, 85, 0
2, 27391, Note_on_c, 0, 84, 34
2, 27483, Note_on_c, 0, 84, 0
2, 27641, Note_on_c, 0, 61, 62
2, 27643, Note_on_c, 0, 65, 66
2, 27655, Note_on_c, 0, 55, 61
2, 27665, Note_on_c, 0, 85, 74
2, 27686, Note_on_c, 0, 73, 46
2, 27792, Note_on_c, 0, 65, 0
2, 27814, Note_on_c, 0, 55, 0
2, 27824, Note_on_c, 0, 73, 0
2, 27829, Note_on_c, 0, 61, 0
2, 27860, Note_on_c, 0, 85, 0
2, 28046, Note_on_c, 0, 75, 78
2, 28049, Note_on_c, 0, 87, 81
2, 28051, Note_on_c, 0, 65, 83
2, 28053, Note_on_c, 0, 61, 80
2, 28067, Note_on_c, 0, 55, 75
2, 28414, Note_on_c, 0, 55, 0
2, 28417, Note_on_c, 0, 75, 0
2, 28422, Note_on_c, 0, 65, 0
2, 28424, Note_on_c, 0, 87, 0
2, 28489, Note_on_c, 0, 61, 0
2, 28656, Note_on_c, 0, 55, 80
2, 28665, Note_on_c, 0, 61, 63
2, 28665, Note_on_c, 0, 65, 72
2, 28669, Note_on_c, 0, 87, 77
2, 28679, Note_on_c, 0, 75, 83
2, 28930, Note_on_c, 0, 55, 0
2, 28994, Note_on_c, 0, 65, 0
2, 28998, Note_on_c, 0, 61, 0
2, 28999, Note_on_c, 0, 87, 0
2, 29025, Note_on_c, 0, 75, 0
2, 29145, Note_on_c, 0, 61, 53
2, 29153, Note_on_c, 0, 87, 51
2, 29160, Note_on_c, 0, 65, 36
2, 29161, Note_on_c, 0, 55, 44
2, 29175, Note_on_c, 0, 75, 47
2, 29385, Control_c, 0, 64, 127
2, 29513, Note_on_c, 0, 65, 0
2, 29518, Note_on_c, 0, 61, 0
2, 29528, Note_on_c, 0, 87, 0
2, 29535, Note_on_c, 0, 75, 0
2, 29550, Note_on_c, 0, 55, 0
2, 29738, Control_c, 0, 64, 0
2, 29821, Note_on_c, 0, 61, 43
2, 29822, Note_on_c, 0, 85, 47
2, 29841, Note_on_c, 0, 73, 33
2, 29844, Note_on_c, 0, 55, 44
2, 29865, Note_on_c, 0, 64, 29
2, 29995, Control_c, 0, 64, 127
2, 29997, Note_on_c, 0, 55, 0
2, 29998, Note_on_c, 0, 64, 0
2, 30120, Note_on_c, 0, 61, 0
2, 30432, Note_on_c, 0, 73, 0
2, 30469, Note_on_c, 0, 85, 0
2, 30733, Control_c, 0, 64, 0
2, 31801, Note_on_c, 0, 63, 40
2, 31808, Note_on_c, 0, 85, 59
2, 31830, Note_on_c, 0, 60, 36
2, 31832, Note_on_c, 0, 73, 33
2, 31834, Note_on_c, 0, 53, 37
2, 31848, Note_on_c, 0, 58, 43
2, 31933, Note_on_c, 0, 63, 0
2, 31950, Note_on_c, 0, 60, 0
2, 31975, Note_on_c, 0, 73, 0
2, 31982, Note_on_c, 0, 53, 0
2, 31984, Note_on_c, 0, 58, 0
2, 32035, Note_on_c, 0, 85, 0
2, 32470, Note_on_c, 0, 63, 63
2, 32473, Note_on_c, 0, 60, 50
2, 32484, Note_on_c, 0, 75, 85
2, 32488, Note_on_c, 0, 53, 48
2, 32490, Note_on_c, 0, 87, 74
2, 32521, Note_on_c, 0, 56, 48
2, 32624, Note_on_c, 0, 87, 0
2, 32679, Note_on_c, 0, 63, 0
2, 32681, Note_on_c, 0, 75, 0
2, 32713, Note_on_c, 0, 53, 0
2, 32725, Note_on_c, 0, 56, 0
2, 32730, Note_on_c, 0, 60, 0
2, 32861, Note_on_c, 0, 63, 42
2, 32863, Note_on_c, 0, 84, 62
2, 32886, Note_on_c, 0, 72, 57
2, 32897, Note_on_c, 0, 60, 36
2, 32908, Note_on_c, 0, 56, 32
2, 32937, Note_on_c, 0, 53, 26
2, 33331, Note_on_c, 0, 84, 0
2, 33337, Note_on_c, 0, 53, 0
2, 33350, Note_on_c, 0, 63, 0
2, 33355, Note_on_c, 0, 60, 0
2, 33382, Note_on_c, 0, 56, 0
2, 33385, Note_on_c, 0, 72, 0
2, 33494, Note_on_c, 0, 84, 54
2, 33504, Note_on_c, 0, 63, 46
2, 33513, Note_on_c, 0, 72, 62
2, 33529, Note_on_c, 0, 60, 31
2, 33575, Note_on_c, 0, 56, 25
2, 33582, Note_on_c, 0, 84, 0
2, 33593, Note_on_c, 0, 60, 0
2, 33595, Note_on_c, 0, 72, 0
2, 33605, Note_on_c, 0, 63, 0
2, 33651, Note_on_c, 0, 56, 0
2, 34006, Control_c, 0, 64, 127
2, 35322, Note_on_c, 0, 63, 51
2, 35340, Note_on_c, 0, 60, 37
2, 35387, Note_on_c, 0, 63, 0
2, 35390, Note_on_c, 0, 56, 25
2, 35401, Note_on_c, 0, 60, 0
2, 35466, Note_on_c, 0, 56, 0
2, 35481, Control_c, 0, 64, 0
2, 35653, Note_on_c, 0, 87, 68
2, 35870, Note_on_c, 0, 87, 0
2, 35938, Note_on_c, 0, 84, 59
2, 36014, Note_on_c, 0, 84, 0
2, 36275, Note_on_c, 0, 82, 62
2, 36286, Note_on_c, 0, 63, 45
2, 36307, Note_on_c, 0, 60, 36
2, 36385, Note_on_c, 0, 63, 0
2, 36408, Note_on_c, 0, 60, 0
2, 36441, Note_on_c, 0, 82, 0
2, 36614, Note_on_c, 0, 82, 46
2, 36617, Note_on_c, 0, 80, 61
2, 36729, Note_on_c, 0, 82, 0
2, 36771, Note_on_c, 0, 80, 0
2, 36974, Note_on_c, 0, 82, 70
2, 36977, Note_on_c, 0, 79, 78
2, 36999, Note_on_c, 0, 60, 48
2, 37001, Note_on_c, 0, 63, 57
2, 37067, Note_on_c, 0, 56, 25
2, 37160, Note_on_c, 0, 63, 0
2, 37214, Note_on_c, 0, 79, 0
2, 37215, Note_on_c, 0, 56, 0
2, 37224, Note_on_c, 0, 60, 0
2, 37304, Note_on_c, 0, 77, 54
2, 37331, Note_on_c, 0, 82, 0
2, 37467, Note_on_c, 0, 77, 0
2, 37603, Note_on_c, 0, 75, 71
2, 37637, Note_on_c, 0, 63, 52
2, 37645, Note_on_c, 0, 60, 41
2, 37773, Note_on_c, 0, 63, 0
2, 37805, Note_on_c, 0, 60, 0
2, 37838, Note_on_c, 0, 75, 0
2, 37910, Note_on_c, 0, 72, 47
2, 38137, Note_on_c, 0, 72, 0
2, 38227, Note_on_c, 0, 70, 47
2, 38388, Note_on_c, 0, 70, 0
2, 39539, Control_c, 0, 64, 127
2, 39569, Note_on_c, 0, 74, 90
2, 39595, Note_on_c, 0, 65, 62
2, 39600, Note_on_c, 0, 62, 68
2, 39684, Control_c, 0, 64, 0
2, 39726, Note_on_c, 0, 65, 0
2, 39768, Note_on_c, 0, 62, 0
2, 39917, Note_on_c, 0, 74, 0
2, 40196, Note_on_c, 0, 60, 59
2, 40198, Note_on_c, 0, 65, 78
2, 40206, Note_on_c, 0, 75, 85
2, 40217, Note_on_c, 0, 58, 57
2, 40223, Note_on_c, 0, 54, 59
2, 40544, Note_on_c, 0, 60, 0
2, 40566, Note_on_c, 0, 65, 0
2, 40567, Note_on_c, 0, 54, 0
2, 40617, Note_on_c, 0, 58, 0
2, 40649, Note_on_c, 0, 75, 0
2, 40742, Note_on_c, 0, 60, 57
2, 40760, Note_on_c, 0, 65, 66
2, 40765, Note_on_c, 0, 58, 42
2, 40766, Note_on_c, 0, 75, 70
2, 40784, Note_on_c, 0, 54, 42
2, 40951, Control_c, 0, 64, 127
2, 41152, Note_on_c, 0, 60, 0
2, 41153, Note_on_c, 0, 65, 0
2, 41161, Note_on_c, 0, 58, 0
2, 41197, Note_on_c, 0, 54, 0
2, 41304, Control_c, 0, 64, 0
2, 41337, Note_on_c, 0, 75, 0
2, 41374, Note_on_c, 0, 68, 58
2, 41386, Note_on_c, 0, 61, 34
2, 41393, Note_on_c, 0, 66, 53
2, 41406, Note_on_c, 0, 58, 43
2, 41429, Note_on_c, 0, 51, 25
2, 41556, Note_on_c, 0, 61, 0
2, 41609, Control_c, 0, 64, 127
2, 41642, Note_on_c, 0, 66, 0
2, 41726, Note_on_c, 0, 58, 0
2, 41737, Control_c, 0, 64, 0
2, 41744, Note_on_c, 0, 51, 0
2, 41785, Control_c, 0, 64, 127
2, 41835, Note_on_c, 0, 68, 0
2, 41991, Note_on_c, 0, 62, 77
2, 41993, Note_on_c, 0, 58, 73
2, 41997, Control_c, 0, 64, 0
2, 41998, Note_on_c, 0, 65, 78
2, 42001, Note_on_c, 0, 54, 37
2, 42003, Note_on_c, 0, 72, 66
2, 42443, Control_c, 0, 64, 127
2, 42555, Control_c, 0, 64, 0
2, 42667, Control_c, 0, 64, 127
2, 42847, Note_on_c, 0, 54, 0
2, 42848, Note_on_c, 0, 65, 0
2, 42862, Note_on_c, 0, 62, 0
2, 42872, Note_on_c, 0, 58, 0
2, 42928, Note_on_c, 0, 72, 0
2, 42975, Note_on_c, 0, 58, 81
2, 42977, Note_on_c, 0, 65, 83
2, 42983, Note_on_c, 0, 62, 90
2, 42990, Note_on_c, 0, 54, 71
2, 42992, Note_on_c, 0, 74, 87
2, 42995, Note_on_c, 0, 72, 67
2, 43003, Control_c, 0, 64, 0
2, 43113, Note_on_c, 0, 72, 0
2, 43185, Note_on_c, 0, 54, 0
2, 43224, Note_on_c, 0, 65, 0
2, 43241, Note_on_c, 0, 58, 0
2, 43279, Note_on_c, 0, 62, 0
2, 43314, Note_on_c, 0, 74, 0
2, 43342, Note_on_c, 0, 62, 53
2, 43346, Note_on_c, 0, 65, 77
2, 43350, Note_on_c, 0, 58, 65
2, 43355, Note_on_c, 0, 54, 60
2, 43392, Note_on_c, 0, 75, 83
2, 43422, Control_c, 0, 64, 127
2, 43502, Control_c, 0, 64, 0
2, 43598, Control_c, 0, 64, 127
2, 43768, Note_on_c, 0, 62, 0
2, 43825, Note_on_c, 0, 54, 0
2, 43841, Note_on_c, 0, 65, 0
2, 43894, Note_on_c, 0, 75, 0
2, 43900, Note_on_c, 0, 58, 0
2, 43967, Control_c, 0, 64, 0
2, 43985, Note_on_c, 0, 61, 84
2, 43986, Note_on_c, 0, 75, 79
2, 43988, Note_on_c, 0, 65, 80
2, 43990, Note_on_c, 0, 54, 64
2, 44000, Note_on_c, 0, 58, 78
2, 44384, Control_c, 0, 64, 127
2, 44931, Note_on_c, 0, 61, 0
2, 44993, Note_on_c, 0, 65, 0
2, 45007, Note_on_c, 0, 54, 0
2, 45106, Control_c, 0, 64, 0
2, 45209, Note_on_c, 0, 60, 48
2, 45211, Note_on_c, 0, 65, 53
2, 45286, Note_on_c, 0, 54, 18
2, 45362, Control_c, 0, 64, 127
2, 45643, Note_on_c, 0, 75, 0
2, 45654, Note_on_c, 0, 65, 0
2, 45697, Note_on_c, 0, 58, 0
2, 45795, Note_on_c, 0, 77, 71
2, 45872, Note_on_c, 0, 54, 0
2, 45950, Note_on_c, 0, 77, 0
2, 46006, Note_on_c, 0, 60, 0
2, 46101, Control_c, 0, 64, 0
2, 46113, Note_on_c, 0, 60, 30
2, 46128, Note_on_c, 0, 63, 60
2, 46153, Note_on_c, 0, 65, 50
2, 46158, Note_on_c, 0, 68, 40
2, 46169, Note_on_c, 0, 53, 31
2, 46174, Note_on_c, 0, 56, 40
2, 46185, Note_on_c, 0, 75, 42
2, 46195, Note_on_c, 0, 72, 60
2, 46838, Note_on_c, 0, 63, 0
2, 46862, Note_on_c, 0, 60, 0
2, 46888, Note_on_c, 0, 65, 0
2, 46891, Note_on_c, 0, 68, 0
2, 46917, Note_on_c, 0, 72, 0
2, 46942, Note_on_c, 0, 75, 0
2, 47069, Note_on_c, 0, 73, 44
2, 47072, Note_on_c, 0, 61, 50
2, 47097, Note_on_c, 0, 65, 34
2, 47117, Note_on_c, 0, 68, 33
2, 47665, Note_on_c, 0, 61, 0
2, 47667, Note_on_c, 0, 68, 0
2, 47705, Control_c, 0, 64, 127
2, 47707, Note_on_c, 0, 65, 0
2, 47769, Note_on_c, 0, 73, 0
2, 47865, Note_on_c, 0, 60, 27
2, 47913, Control_c, 0, 64, 0
2, 48006, Note_on_c, 0, 60, 0
2, 48027, Note_on_c, 0, 61, 45
2, 48052, Note_on_c, 0, 73, 46
2, 48088, Note_on_c, 0, 65, 39
2, 48089, Note_on_c, 0, 68, 47
2, 48134, Note_on_c, 0, 56, 0
2, 48201, Control_c, 0, 64, 127
2, 48400, Note_on_c, 0, 61, 0
2, 48474, Note_on_c, 0, 65, 0
2, 48497, Note_on_c, 0, 68, 0
2, 48527, Note_on_c, 0, 73, 0
2, 48536, Note_on_c, 0, 53, 0
2, 48667, Control_c, 0, 64, 0
2, 48718, Note_on_c, 0, 60, 28
2, 48728, Note_on_c, 0, 72, 49
2, 48750, Note_on_c, 0, 68, 25
2, 48955, Control_c, 0, 64, 127
2, 49094, Note_on_c, 0, 68, 0
2, 49129, Note_on_c, 0, 60, 0
2, 49612, Note_on_c, 0, 63, 36
2, 49620, Note_on_c, 0, 72, 0
2, 49647, Note_on_c, 0, 70, 38
2, 49662, Control_c, 0, 64, 0
2, 49671, Note_on_c, 0, 52, 29
2, 49676, Note_on_c, 0, 58, 42
2, 49886, Control_c, 0, 64, 127
2, 49913, Note_on_c, 0, 63, 0
2, 49951, Note_on_c, 0, 70, 0
2, 49981, Note_on_c, 0, 58, 0
2, 50013, Note_on_c, 0, 52, 0
2, 50473, Note_on_c, 0, 48, 31
2, 50545, Note_on_c, 0, 48, 0
2, 50560, Control_c, 0, 64, 0
2, 50588, Note_on_c, 0, 49, 49
2, 50720, Note_on_c, 0, 49, 0
2, 50726, Note_on_c, 0, 51, 34
2, 50790, Note_on_c, 0, 51, 0
2, 50856, Note_on_c, 0, 52, 28
2, 50922, Note_on_c, 0, 52, 0
2, 50988, Note_on_c, 0, 54, 55
2, 51062, Note_on_c, 0, 54, 0
2, 51147, Note_on_c, 0, 55, 58
2, 51273, Note_on_c, 0, 55, 0
2, 51296, Note_on_c, 0, 57, 60
2, 51362, Note_on_c, 0, 57, 0
2, 51419, Note_on_c, 0, 58, 65
2, 51486, Note_on_c, 0, 58, 0
2, 51558, Note_on_c, 0, 60, 61
2, 51669, Note_on_c, 0, 60, 0
2, 51699, Note_on_c, 0, 61, 44
2, 51798, Note_on_c, 0, 61, 0
2, 51805, Note_on_c, 0, 63, 53
2, 51873, Note_on_c, 0, 63, 0
2, 51960, Note_on_c, 0, 64, 52
2, 52055, Note_on_c, 0, 64, 0
2, 52111, Note_on_c, 0, 66, 47
2, 52171, Note_on_c, 0, 66, 0
2, 52299, Note_on_c, 0, 67, 51
2, 52387, Note_on_c, 0, 67, 0
2, 52461, Note_on_c, 0, 69, 50
2, 52523, Note_on_c, 0, 69, 0
2, 52571, Note_on_c, 0, 70, 55
2, 52651, Note_on_c, 0, 70, 0
2, 52753, Note_on_c, 0, 72, 61
2, 52875, Note_on_c, 0, 72, 0
2, 52923, Note_on_c, 0, 73, 34
2, 53024, Note_on_c, 0, 73, 0
2, 53044, Note_on_c, 0, 74, 38
2, 53198, Note_on_c, 0, 74, 0
2, 53217, Note_on_c, 0, 75, 37
2, 53272, Note_on_c, 0, 75, 0
2, 53366, Note_on_c, 0, 76, 37
2, 53470, Note_on_c, 0, 76, 0
2, 54294, Note_on_c, 0, 78, 77
2, 54297, Note_on_c, 0, 84, 89
2, 54310, Note_on_c, 0, 58, 78
2, 54312, Note_on_c, 0, 64, 56
2, 54313, Note_on_c, 0, 72, 73
2, 54317, Note_on_c, 0, 74, 75
2, 54320, Note_on_c, 0, 69, 79
2, 54432, Note_on_c, 0, 78, 0
2, 54446, Note_on_c, 0, 79, 46
2, 54664, Note_on_c, 0, 74, 0
2, 55200, Control_c, 0, 64, 127
2, 55726, Note_on_c, 0, 64, 0
2, 55727, Note_on_c, 0, 69, 0
2, 55742, Note_on_c, 0, 72, 0
2, 55747, Note_on_c, 0, 79, 0
2, 55766, Note_on_c, 0, 84, 0
2, 55960, Note_on_c, 0, 58, 0
2, 56290, Control_c, 0, 64, 0
2, 56326, Note_on_c, 0, 66, 86
2, 56329, Note_on_c, 0, 87, 77
2, 56334, Note_on_c, 0, 75, 88
2, 56336, Note_on_c, 0, 63, 72
2, 56337, Note_on_c, 0, 61, 71
2, 56345, Note_on_c, 0, 57, 68
2, 56347, Note_on_c, 0, 82, 77
2, 56577, Note_on_c, 0, 66, 0
2, 56578, Note_on_c, 0, 87, 0
2, 56592, Note_on_c, 0, 61, 0
2, 56601, Note_on_c, 0, 57, 0
2, 56605, Note_on_c, 0, 75, 0
2, 56654, Note_on_c, 0, 82, 0
2, 56656, Note_on_c, 0, 63, 0
2, 56696, Control_c, 0, 64, 127
2, 56723, Note_on_c, 0, 66, 56
2, 56727, Control_c, 0, 64, 0
2, 56733, Note_on_c, 0, 57, 54
2, 56760, Note_on_c, 0, 63, 42
2, 56761, Note_on_c, 0, 85, 50
2, 56779, Note_on_c, 0, 61, 30
2, 56787, Note_on_c, 0, 73, 25
2, 56800, Note_on_c, 0, 80, 42
2, 56948, Note_on_c, 0, 85, 0
2, 56968, Control_c, 0, 64, 127
2, 57016, Note_on_c, 0, 80, 0
2, 57030, Note_on_c, 0, 57, 0
2, 57046, Note_on_c, 0, 73, 0
2, 57118, Note_on_c, 0, 63, 0
2, 57160, Note_on_c, 0, 61, 0
2, 57173, Note_on_c, 0, 66, 0
2, 57321, Control_c, 0, 64, 0
2, 57360, Note_on_c, 0, 82, 50
2, 57363, Note_on_c, 0, 61, 39
2, 57377, Note_on_c, 0, 65, 62
2, 57382, Note_on_c, 0, 70, 50
2, 57399, Note_on_c, 0, 60, 42
2, 57407, Note_on_c, 0, 56, 46
2, 57818, Control_c, 0, 64, 127
2, 57833, Control_c, 0, 64, 0
2, 57899, Control_c, 0, 64, 127
2, 58792, Note_on_c, 0, 60, 0
2, 58797, Note_on_c, 0, 65, 0
2, 58833, Note_on_c, 0, 70, 0
2, 58902, Note_on_c, 0, 61, 0
2, 58937, Note_on_c, 0, 82, 0
2, 59097, Note_on_c, 0, 56, 0
2, 59598, Control_c, 0, 64, 0
2, 59611, Note_on_c, 0, 84, 36
2, 59614, Note_on_c, 0, 61, 37
2, 59627, Note_on_c, 0, 64, 30
2, 59632, Note_on_c, 0, 72, 22
2, 59640, Note_on_c, 0, 77, 41
2, 59647, Note_on_c, 0, 55, 37
2, 60016, Control_c, 0, 64, 127
2, 60481, Note_on_c, 0, 55, 0
2, 60485, Note_on_c, 0, 64, 0
2, 60502, Note_on_c, 0, 84, 0
2, 60589, Note_on_c, 0, 61, 0
2, 60597, Note_on_c, 0, 77, 0
2, 60689, Note_on_c, 0, 72, 0
2, 61475, Control_c, 0, 64, 0
2, 61502, Note_on_c, 0, 82, 37
2, 61509, Note_on_c, 0, 63, 25
2, 61514, Note_on_c, 0, 75, 36
2, 61522, Note_on_c, 0, 60, 24
2, 61547, Note_on_c, 0, 70, 23
2, 61555, Note_on_c, 0, 58, 29
2, 61570, Note_on_c, 0, 53, 27
2, 61989, Control_c, 0, 64, 127
2, 62068, Note_on_c, 0, 63, 0
2, 62120, Note_on_c, 0, 82, 0
2, 62185, Note_on_c, 0, 63, 25
2, 62216, Note_on_c, 0, 80, 44
2, 62219, Note_on_c, 0, 70, 0
2, 62244, Note_on_c, 0, 75, 0
2, 62279, Note_on_c, 0, 53, 0
2, 62301, Note_on_c, 0, 60, 0
2, 62311, Note_on_c, 0, 63, 0
2, 62326, Note_on_c, 0, 80, 0
2, 62345, Note_on_c, 0, 58, 0
2, 63112, Control_c, 0, 64, 0
2, 63120, Note_on_c, 0, 92, 88
2, 63128, Note_on_c, 0, 63, 71
2, 63133, Note_on_c, 0, 68, 74
2, 63134, Note_on_c, 0, 57, 64
2, 63787, Note_on_c, 0, 92, 0
2, 63851, Note_on_c, 0, 87, 73
2, 63853, Note_on_c, 0, 92, 30
2, 63965, Note_on_c, 0, 92, 0
2, 64080, Note_on_c, 0, 87, 0
2, 64177, Note_on_c, 0, 81, 48
2, 64382, Note_on_c, 0, 81, 0
2, 64406, Note_on_c, 0, 68, 0
2, 64484, Note_on_c, 0, 80, 45
2, 64525, Note_on_c, 0, 57, 0
2, 64569, Note_on_c, 0, 63, 0
2, 64618, Note_on_c, 0, 80, 0
2, 64800, Note_on_c, 0, 78, 46
2, 65072, Note_on_c, 0, 78, 0
2, 65128, Note_on_c, 0, 77, 53
2, 65315, Note_on_c, 0, 77, 0
2, 65409, Note_on_c, 0, 65, 36
2, 65421, Note_on_c, 0, 75, 62
2, 65443, Note_on_c, 0, 60, 40
2, 65450, Note_on_c, 0, 61, 21
2, 65453, Note_on_c, 0, 56, 48
2, 65883, Note_on_c, 0, 75, 0
2, 66058, Note_on_c, 0, 77, 70
2, 66238, Note_on_c, 0, 77, 0
2, 66437, Note_on_c, 0, 73, 37
2, 66551, Note_on_c, 0, 65, 0
2, 66697, Note_on_c, 0, 60, 0
2, 66889, Note_on_c, 0, 61, 0
2, 66911, Note_on_c, 0, 56, 0
2, 66942, Note_on_c, 0, 73, 0
2, 66998, Note_on_c, 0, 75, 59
2, 67254, Note_on_c, 0, 75, 0
2, 67314, Note_on_c, 0, 71, 54
2, 67851, Note_on_c, 0, 71, 0
2, 67916, Note_on_c, 0, 66, 42
2, 67919, Note_on_c, 0, 73, 44
2, 67933, Note_on_c, 0, 61, 37
2, 67937, Note_on_c, 0, 55, 37
2, 68220, Note_on_c, 0, 73, 0
2, 68313, Note_on_c, 0, 66, 0
2, 68336, Note_on_c, 0, 55, 0
2, 68341, Note_on_c, 0, 69, 24
2, 68537, Note_on_c, 0, 61, 0
2, 68886, Control_c, 0, 64, 127
2, 68910, Note_on_c, 0, 70, 57
2, 68924, Note_on_c, 0, 69, 0
2, 69144, Control_c, 0, 64, 0
2, 69158, Note_on_c, 0, 70, 0
2, 69194, Note_on_c, 0, 63, 29
2, 69249, Note_on_c, 0, 60, 26
2, 69271, Note_on_c, 0, 58, 28
2, 69651, Note_on_c, 0, 60, 0
2, 70006, Note_on_c, 0, 60, 19
2, 70071, Note_on_c, 0, 63, 0
2, 70163, Note_on_c, 0, 60, 0
2, 70221, Note_on_c, 0, 72, 83
2, 70224, Note_on_c, 0, 71, 52
2, 70278, Note_on_c, 0, 71, 0
2, 70297, Note_on_c, 0, 58, 0
2, 70756, Note_on_c, 0, 72, 0
2, 70818, Note_on_c, 0, 71, 49
2, 71127, Note_on_c, 0, 71, 0
2, 71133, Control_c, 0, 64, 127
2, 71163, Note_on_c, 0, 72, 60
2, 71405, Control_c, 0, 64, 0
2, 71485, Control_c, 0, 64, 127
2, 71627, Note_on_c, 0, 72, 0
2, 71779, Note_on_c, 0, 75, 71
2, 71783, Note_on_c, 0, 61, 50
2, 71790, Note_on_c, 0, 60, 42
2, 71793, Note_on_c, 0, 65, 55
2, 71806, Control_c, 0, 64, 0
2, 71876, Note_on_c, 0, 55, 19
2, 71930, Note_on_c, 0, 65, 0
2, 71942, Note_on_c, 0, 61, 0
2, 71946, Note_on_c, 0, 75, 0
2, 71950, Note_on_c, 0, 60, 0
2, 71974, Note_on_c, 0, 55, 0
2, 72766, Note_on_c, 0, 60, 59
2, 72768, Note_on_c, 0, 71, 83
2, 72769, Note_on_c, 0, 63, 72
2, 72785, Note_on_c, 0, 58, 57
2, 72803, Note_on_c, 0, 53, 58
2, 73725, Note_on_c, 0, 72, 85
2, 73793, Note_on_c, 0, 71, 0
2, 73982, Note_on_c, 0, 53, 0
2, 74008, Note_on_c, 0, 72, 0
2, 74088, Note_on_c, 0, 72, 64
2, 74246, Note_on_c, 0, 63, 0
2, 74257, Note_on_c, 0, 60, 0
2, 74405, Note_on_c, 0, 58, 0
2, 74559, Note_on_c, 0, 72, 0
2, 74646, Control_c, 0, 64, 127
2, 74671, Note_on_c, 0, 72, 75
2, 74937, Note_on_c, 0, 72, 0
2, 74950, Control_c, 0, 64, 0
2, 75054, Note_on_c, 0, 72, 68
2, 75688, Control_c, 0, 64, 127
2, 75744, Note_on_c, 0, 72, 0
2, 75833, Control_c, 0, 64, 0
2, 75918, Note_on_c, 0, 72, 62
2, 75935, Note_on_c, 0, 67, 57
2, 75942, Note_on_c, 0, 63, 48
2, 75979, Note_on_c, 0, 57, 32
2, 76057, Note_on_c, 0, 57, 0
2, 76070, Note_on_c, 0, 67, 0
2, 76203, Note_on_c, 0, 57, 17
2, 76448, Note_on_c, 0, 57, 0
2, 76465, Note_on_c, 0, 63, 0
2, 76505, Control_c, 0, 64, 127
2, 76621, Note_on_c, 0, 72, 0
2, 76731, Control_c, 0, 64, 0
2, 76830, Note_on_c, 0, 72, 57
2, 76835, Note_on_c, 0, 65, 38
2, 76844, Note_on_c, 0, 61, 35
2, 76859, Note_on_c, 0, 60, 31
2, 76879, Note_on_c, 0, 56, 35
2, 76955, Control_c, 0, 64, 127
2, 77275, Note_on_c, 0, 56, 0
2, 77285, Note_on_c, 0, 65, 0
2, 77298, Note_on_c, 0, 60, 0
2, 77303, Note_on_c, 0, 61, 0
2, 77438, Note_on_c, 0, 72, 0
2, 77501, Note_on_c, 0, 65, 37
2, 77505, Note_on_c, 0, 73, 42
2, 77513, Note_on_c, 0, 61, 37
2, 77518, Note_on_c, 0, 60, 28
2, 77570, Note_on_c, 0, 56, 19
2, 77670, Note_on_c, 0, 65, 0
2, 77697, Note_on_c, 0, 61, 0
2, 77709, Control_c, 0, 64, 0
2, 77712, Note_on_c, 0, 60, 0
2, 77818, Note_on_c, 0, 73, 0
2, 77859, Note_on_c, 0, 65, 29
2, 77862, Note_on_c, 0, 70, 59
2, 77911, Note_on_c, 0, 61, 23
2, 77913, Note_on_c, 0, 60, 22
2, 78217, Note_on_c, 0, 61, 0
2, 78240, Note_on_c, 0, 65, 0
2, 78265, Note_on_c, 0, 60, 0
2, 78302, Control_c, 0, 64, 127
2, 78304, Note_on_c, 0, 56, 0
2, 78350, Note_on_c, 0, 70, 0
2, 78470, Note_on_c, 0, 70, 59
2, 78497, Note_on_c, 0, 65, 33
2, 78504, Note_on_c, 0, 61, 33
2, 78511, Control_c, 0, 64, 0
2, 78513, Note_on_c, 0, 60, 24
2, 78655, Note_on_c, 0, 56, 5
2, 78974, Note_on_c, 0, 65, 0
2, 78991, Note_on_c, 0, 70, 0
2, 79017, Note_on_c, 0, 61, 0
2, 79070, Note_on_c, 0, 72, 50
2, 79163, Note_on_c, 0, 70, 47
2, 79214, Note_on_c, 0, 72, 0
2, 79387, Note_on_c, 0, 70, 0
2, 79425, Note_on_c, 0, 69, 29
2, 79599, Note_on_c, 0, 69, 0
2, 79685, Note_on_c, 0, 65, 19
2, 79721, Note_on_c, 0, 70, 31
2, 79882, Note_on_c, 0, 70, 0
2, 79897, Note_on_c, 0, 65, 0
2, 79971, Note_on_c, 0, 72, 56
2, 80047, Note_on_c, 0, 72, 0
2, 80112, Note_on_c, 0, 60, 0
2, 80213, Note_on_c, 0, 73, 67
2, 80414, Note_on_c, 0, 73, 0
2, 80494, Note_on_c, 0, 75, 64
2, 80568, Note_on_c, 0, 56, 0
2, 80650, Note_on_c, 0, 75, 0
2, 80831, Note_on_c, 0, 76, 30
2, 81121, Note_on_c, 0, 76, 0
2, 81607, Control_c, 0, 64, 127
2, 81768, Control_c, 0, 64, 0
2, 82120, Control_c, 0, 64, 127
2, 82229, Note_on_c, 0, 64, 58
2, 82239, Note_on_c, 0, 61, 49
2, 82262, Note_on_c, 0, 55, 39
2, 82324, Note_on_c, 0, 55, 0
2, 82326, Note_on_c, 0, 64, 0
2, 82377, Control_c, 0, 64, 0
2, 82382, Note_on_c, 0, 61, 0
2, 82857, Note_on_c, 0, 79, 87
2, 83077, Note_on_c, 0, 79, 0
2, 83189, Note_on_c, 0, 78, 67
2, 83366, Note_on_c, 0, 78, 0
2, 83544, Note_on_c, 0, 77, 35
2, 83822, Note_on_c, 0, 77, 0
2, 83910, Note_on_c, 0, 76, 31
2, 84068, Note_on_c, 0, 76, 0
2, 84187, Note_on_c, 0, 82, 77
2, 84225, Note_on_c, 0, 64, 60
2, 84243, Note_on_c, 0, 61, 43
2, 84257, Note_on_c, 0, 55, 40
2, 84361, Note_on_c, 0, 55, 0
2, 84368, Note_on_c, 0, 64, 0
2, 84416, Note_on_c, 0, 61, 0
2, 84512, Note_on_c, 0, 82, 0
2, 84604, Note_on_c, 0, 81, 54
2, 84859, Note_on_c, 0, 81, 0
2, 84917, Note_on_c, 0, 80, 48
2, 85142, Note_on_c, 0, 80, 0
2, 85267, Note_on_c, 0, 79, 27
2, 85459, Note_on_c, 0, 79, 0
2, 86152, Note_on_c, 0, 65, 68
2, 86177, Note_on_c, 0, 61, 36
2, 86183, Note_on_c, 0, 60, 26
2, 86216, Note_on_c, 0, 65, 0
2, 86237, Note_on_c, 0, 60, 0
2, 86258, Note_on_c, 0, 61, 0
2, 86850, Note_on_c, 0, 84, 84
2, 86854, Note_on_c, 0, 72, 82
2, 86965, Control_c, 0, 64, 127
2, 86992, Note_on_c, 0, 72, 0
2, 87014, Note_on_c, 0, 84, 0
2, 87187, Note_on_c, 0, 82, 52
2, 87328, Note_on_c, 0, 82, 0
2, 87334, Control_c, 0, 64, 0
2, 87440, Note_on_c, 0, 60, 71
2, 87454, Note_on_c, 0, 61, 52
2, 87464, Note_on_c, 0, 65, 75
2, 87466, Note_on_c, 0, 85, 88
2, 87477, Note_on_c, 0, 56, 63
2, 87501, Note_on_c, 0, 75, 57
2, 87662, Note_on_c, 0, 86, 28
2, 87766, Note_on_c, 0, 86, 0
2, 87886, Note_on_c, 0, 56, 0
2, 87890, Note_on_c, 0, 75, 0
2, 87894, Note_on_c, 0, 85, 0
2, 87905, Note_on_c, 0, 65, 0
2, 87914, Note_on_c, 0, 60, 0
2, 87929, Note_on_c, 0, 61, 0
2, 88075, Note_on_c, 0, 55, 68
2, 88091, Note_on_c, 0, 85, 61
2, 88096, Note_on_c, 0, 65, 62
2, 88102, Note_on_c, 0, 61, 52
2, 88129, Note_on_c, 0, 73, 56
2, 88337, Note_on_c, 0, 55, 0
2, 88339, Note_on_c, 0, 85, 0
2, 88349, Note_on_c, 0, 65, 0
2, 88359, Note_on_c, 0, 73, 0
2, 88398, Note_on_c, 0, 61, 0
2, 88441, Control_c, 0, 64, 127
2, 88521, Note_on_c, 0, 85, 46
2, 88526, Note_on_c, 0, 65, 37
2, 88528, Note_on_c, 0, 61, 49
2, 88529, Note_on_c, 0, 55, 33
2, 88572, Note_on_c, 0, 73, 37
2, 88998, Note_on_c, 0, 73, 0
2, 89011, Note_on_c, 0, 65, 0
2, 89017, Note_on_c, 0, 55, 0
2, 89053, Note_on_c, 0, 85, 0
2, 89057, Note_on_c, 0, 61, 0
2, 89259, Control_c, 0, 64, 0
2, 89334, Note_on_c, 0, 61, 59
2, 89350, Note_on_c, 0, 65, 57
2, 89358, Note_on_c, 0, 55, 55
2, 89390, Note_on_c, 0, 87, 55
2, 89393, Note_on_c, 0, 75, 67
2, 89433, Note_on_c, 0, 82, 34
2, 89730, Note_on_c, 0, 82, 0
2, 89794, Note_on_c, 0, 65, 0
2, 89801, Note_on_c, 0, 75, 0
2, 89812, Note_on_c, 0, 87, 0
2, 89933, Control_c, 0, 64, 127
2, 89953, Note_on_c, 0, 55, 0
2, 89956, Note_on_c, 0, 61, 0
2, 90109, Control_c, 0, 64, 0
2, 90284, Note_on_c, 0, 64, 48
2, 90286, Note_on_c, 0, 61, 38
2, 90294, Note_on_c, 0, 58, 47
2, 90303, Note_on_c, 0, 55, 33
2, 90314, Note_on_c, 0, 88, 62
2, 90334, Note_on_c, 0, 76, 55
2, 90336, Note_on_c, 0, 82, 40
2, 90430, Control_c, 0, 64, 127
2, 90611, Note_on_c, 0, 76, 0
2, 90659, Note_on_c, 0, 88, 0
2, 90669, Note_on_c, 0, 82, 0
2, 90825, Note_on_c, 0, 58, 0
2, 90878, Note_on_c, 0, 61, 0
2, 90887, Note_on_c, 0, 64, 0
2, 90943, Note_on_c, 0, 55, 0
2, 91168, Control_c, 0, 64, 0
2, 91278, Note_on_c, 0, 64, 49
2, 91280, Note_on_c, 0, 61, 48
2, 91294, Note_on_c, 0, 55, 48
2, 91296, Note_on_c, 0, 91, 62
2, 91310, Note_on_c, 0, 86, 56
2, 91313, Note_on_c, 0, 79, 48
2, 91318, Note_on_c, 0, 58, 39
2, 91440, Control_c, 0, 64, 127
2, 91595, Note_on_c, 0, 55, 0
2, 91648, Note_on_c, 0, 64, 0
2, 91670, Note_on_c, 0, 79, 0
2, 91704, Note_on_c, 0, 58, 0
2, 91737, Note_on_c, 0, 91, 0
2, 91772, Note_on_c, 0, 86, 0
2, 91866, Note_on_c, 0, 61, 0
2, 92226, Control_c, 0, 64, 0
2, 92229, Note_on_c, 0, 58, 62
2, 92233, Note_on_c, 0, 63, 73
2, 92259, Note_on_c, 0, 60, 48
2, 92286, Note_on_c, 0, 53, 43
2, 93286, Control_c, 0, 64, 127
2, 93479, Note_on_c, 0, 60, 0
2, 93486, Note_on_c, 0, 53, 0
2, 93534, Note_on_c, 0, 58, 0
2, 93551, Note_on_c, 0, 63, 0
2, 93798, Control_c, 0, 64, 0
2, 93853, Note_on_c, 0, 63, 61
2, 93870, Note_on_c, 0, 58, 54
2, 93873, Note_on_c, 0, 60, 46
2, 93875, Note_on_c, 0, 97, 71
2, 93881, Note_on_c, 0, 82, 56
2, 93889, Note_on_c, 0, 53, 53
2, 94121, Note_on_c, 0, 53, 0
2, 94124, Note_on_c, 0, 82, 0
2, 94129, Note_on_c, 0, 63, 0
2, 94141, Note_on_c, 0, 60, 0
2, 94169, Note_on_c, 0, 97, 0
2, 94177, Note_on_c, 0, 58, 0
2, 94448, Note_on_c, 0, 63, 46
2, 94449, Note_on_c, 0, 99, 71
2, 94462, Note_on_c, 0, 58, 50
2, 94467, Note_on_c, 0, 60, 33
2, 94472, Note_on_c, 0, 53, 40
2, 94487, Note_on_c, 0, 87, 33
2, 94490, Note_on_c, 0, 85, 37
2, 94520, Control_c, 0, 64, 127
2, 94651, Note_on_c, 0, 87, 0
2, 94685, Note_on_c, 0, 99, 0
2, 94718, Note_on_c, 0, 53, 0
2, 94739, Note_on_c, 0, 85, 0
2, 94748, Note_on_c, 0, 58, 0
2, 94760, Note_on_c, 0, 60, 0
2, 94802, Note_on_c, 0, 63, 0
2, 95049, Control_c, 0, 64, 0
2, 95113, Note_on_c, 0, 63, 53
2, 95136, Note_on_c, 0, 60, 39
2, 95142, Note_on_c, 0, 96, 45
2, 95150, Note_on_c, 0, 53, 48
2, 95152, Note_on_c, 0, 58, 46
2, 95165, Note_on_c, 0, 84, 43
2, 95496, Note_on_c, 0, 53, 0
2, 95503, Note_on_c, 0, 58, 0
2, 95528, Note_on_c, 0, 63, 0
2, 95535, Note_on_c, 0, 96, 0
2, 95549, Note_on_c, 0, 60, 0
2, 95560, Note_on_c, 0, 84, 0
2, 95771, Note_on_c, 0, 96, 58
2, 95773, Note_on_c, 0, 63, 57
2, 95793, Note_on_c, 0, 84, 58
2, 95805, Note_on_c, 0, 58, 48
2, 95806, Note_on_c, 0, 53, 45
2, 95822, Note_on_c, 0, 60, 27
2, 95858, Note_on_c, 0, 96, 0
2, 95885, Note_on_c, 0, 53, 0
2, 95893, Note_on_c, 0, 60, 0
2, 95894, Note_on_c, 0, 84, 0
2, 95916, Note_on_c, 0, 63, 0
2, 95971, Note_on_c, 0, 58, 0
2, 96124, Control_c, 0, 64, 127
2, 96429, Control_c, 0, 64, 0
2, 96445, Control_c, 0, 64, 127
2, 96894, Control_c, 0, 64, 0
2, 96967, Note_on_c, 0, 87, 80
2, 96982, Note_on_c, 0, 77, 84
2, 96984, Note_on_c, 0, 80, 74
2, 96992, Note_on_c, 0, 84, 72
2, 96998, Note_on_c, 0, 75, 86
2, 97348, Note_on_c, 0, 84, 0
2, 97376, Note_on_c, 0, 80, 0
2, 97398, Note_on_c, 0, 87, 0
2, 97422, Note_on_c, 0, 77, 0
2, 97464, Note_on_c, 0, 75, 0
2, 97601, Note_on_c, 0, 85, 70
2, 97614, Note_on_c, 0, 73, 53
2, 97632, Note_on_c, 0, 77, 66
2, 97639, Note_on_c, 0, 80, 53
2, 97763, Note_on_c, 0, 80, 0
2, 97771, Note_on_c, 0, 85, 0
2, 97790, Note_on_c, 0, 77, 0
2, 97913, Note_on_c, 0, 73, 0
2, 98061, Note_on_c, 0, 72, 54
2, 98092, Note_on_c, 0, 84, 48
2, 98097, Note_on_c, 0, 75, 55
2, 98121, Note_on_c, 0, 79, 53
2, 98176, Note_on_c, 0, 79, 0
2, 98213, Note_on_c, 0, 84, 0
2, 98334, Note_on_c, 0, 72, 0
2, 98339, Note_on_c, 0, 75, 0
2, 98601, Note_on_c, 0, 82, 53
2, 98611, Note_on_c, 0, 70, 57
2, 98632, Note_on_c, 0, 75, 67
2, 98659, Note_on_c, 0, 72, 62
2, 98662, Note_on_c, 0, 79, 46
2, 98715, Note_on_c, 0, 79, 0
2, 98755, Control_c, 0, 64, 127
2, 98776, Note_on_c, 0, 82, 0
2, 98791, Note_on_c, 0, 75, 0
2, 98864, Note_on_c, 0, 70, 0
2, 98884, Control_c, 0, 64, 0
2, 98886, Note_on_c, 0, 72, 0
2, 99096, Note_on_c, 0, 79, 51
2, 99121, Note_on_c, 0, 75, 34
2, 99123, Note_on_c, 0, 72, 37
2, 99129, Note_on_c, 0, 67, 14
2, 99173, Control_c, 0, 64, 127
2, 99201, Note_on_c, 0, 67, 0
2, 99313, Note_on_c, 0, 72, 0
2, 99336, Note_on_c, 0, 75, 0
2, 99349, Control_c, 0, 64, 0
2, 99461, Control_c, 0, 64, 127
2, 99496, Note_on_c, 0, 79, 0
2, 99576, Note_on_c, 0, 75, 60
2, 99649, Note_on_c, 0, 60, 45
2, 99739, Note_on_c, 0, 60, 0
2, 99761, Note_on_c, 0, 75, 0
2, 99942, Control_c, 0, 64, 0
2, 100038, Note_on_c, 0, 74, 34
2, 100045, Note_on_c, 0, 70, 33
2, 100061, Note_on_c, 0, 65, 27
2, 100069, Note_on_c, 0, 54, 33
2, 100071, Note_on_c, 0, 72, 29
2, 100080, Note_on_c, 0, 60, 24
2, 100278, Note_on_c, 0, 72, 0
2, 100627, Note_on_c, 0, 74, 0
2, 100666, Note_on_c, 0, 65, 0
2, 100683, Note_on_c, 0, 54, 0
2, 100728, Note_on_c, 0, 60, 0
2, 100782, Note_on_c, 0, 70, 0
2, 100892, Note_on_c, 0, 60, 43
2, 100897, Note_on_c, 0, 75, 49
2, 100907, Note_on_c, 0, 54, 35
2, 100921, Note_on_c, 0, 70, 39
2, 101041, Note_on_c, 0, 65, 20
2, 101219, Note_on_c, 0, 60, 0
2, 101286, Note_on_c, 0, 65, 0
2, 101289, Note_on_c, 0, 70, 0
2, 101302, Note_on_c, 0, 54, 0
2, 101368, Note_on_c, 0, 75, 0
2, 101823, Note_on_c, 0, 75, 57
2, 101838, Note_on_c, 0, 60, 31
2, 101848, Note_on_c, 0, 70, 47
2, 101853, Note_on_c, 0, 54, 30
2, 102269, Control_c, 0, 64, 127
2, 102791, Note_on_c, 0, 70, 0
2, 102804, Note_on_c, 0, 75, 0
2, 102850, Note_on_c, 0, 60, 0
2, 102902, Note_on_c, 0, 54, 0
2, 103680, Control_c, 0, 64, 0
2, 103749, Note_on_c, 0, 62, 76
2, 103761, Note_on_c, 0, 58, 73
2, 103763, Note_on_c, 0, 65, 84
2, 103766, Note_on_c, 0, 85, 80
2, 103767, Note_on_c, 0, 54, 72
2, 103769, Note_on_c, 0, 73, 80
2, 103781, Note_on_c, 0, 78, 70
2, 103798, Note_on_c, 0, 82, 47
2, 103852, Note_on_c, 0, 82, 0
2, 104134, Control_c, 0, 64, 127
2, 104169, Note_on_c, 0, 78, 0
2, 104255, Note_on_c, 0, 65, 0
2, 104257, Note_on_c, 0, 54, 0
2, 104287, Note_on_c, 0, 73, 0
2, 104296, Note_on_c, 0, 58, 0
2, 104305, Note_on_c, 0, 85, 0
2, 104307, Note_on_c, 0, 62, 0
2, 104409, Note_on_c, 0, 58, 68
2, 104410, Note_on_c, 0, 65, 68
2, 104414, Note_on_c, 0, 62, 73
2, 104417, Note_on_c, 0, 54, 56
2, 104427, Note_on_c, 0, 86, 74
2, 104438, Note_on_c, 0, 74, 75
2, 104445, Note_on_c, 0, 79, 67
2, 104454, Note_on_c, 0, 82, 53
2, 104480, Note_on_c, 0, 84, 41
2, 104551, Note_on_c, 0, 84, 0
2, 104555, Note_on_c, 0, 74, 0
2, 104580, Note_on_c, 0, 86, 0
2, 104612, Note_on_c, 0, 65, 0
2, 104658, Note_on_c, 0, 54, 0
2, 104667, Note_on_c, 0, 79, 0
2, 104684, Note_on_c, 0, 58, 0
2, 104686, Note_on_c, 0, 82, 0
2, 104691, Note_on_c, 0, 62, 0
2, 104710, Control_c, 0, 64, 0
2, 104792, Note_on_c, 0, 62, 60
2, 104804, Note_on_c, 0, 58, 59
2, 104806, Note_on_c, 0, 65, 64
2, 104810, Note_on_c, 0, 54, 53
2, 104827, Note_on_c, 0, 87, 69
2, 104832, Note_on_c, 0, 79, 56
2, 104833, Note_on_c, 0, 75, 62
2, 104990, Note_on_c, 0, 79, 0
2, 105064, Control_c, 0, 64, 127
2, 105105, Note_on_c, 0, 62, 0
2, 105166, Note_on_c, 0, 65, 0
2, 105203, Note_on_c, 0, 54, 0
2, 105217, Note_on_c, 0, 75, 0
2, 105227, Note_on_c, 0, 87, 0
2, 105247, Note_on_c, 0, 58, 0
2, 105400, Control_c, 0, 64, 0
2, 105419, Note_on_c, 0, 58, 64
2, 105422, Note_on_c, 0, 54, 63
2, 105424, Note_on_c, 0, 65, 71
2, 105425, Note_on_c, 0, 61, 71
2, 105446, Note_on_c, 0, 89, 70
2, 105450, Note_on_c, 0, 77, 71
2, 105481, Note_on_c, 0, 84, 62
2, 105769, Control_c, 0, 64, 127
2, 105985, Note_on_c, 0, 89, 0
2, 106017, Note_on_c, 0, 84, 0
2, 106078, Note_on_c, 0, 77, 0
2, 106094, Note_on_c, 0, 65, 0
2, 106106, Note_on_c, 0, 54, 0
2, 106159, Note_on_c, 0, 58, 0
2, 106203, Note_on_c, 0, 61, 0
2, 106379, Control_c, 0, 64, 0
2, 106383, Note_on_c, 0, 64, 61
2, 106388, Note_on_c, 0, 60, 54
2, 106390, Note_on_c, 0, 87, 69
2, 106404, Note_on_c, 0, 58, 47
2, 106409, Note_on_c, 0, 75, 63
2, 106437, Note_on_c, 0, 54, 31
2, 106438, Note_on_c, 0, 82, 56
2, 106732, Control_c, 0, 64, 127
2, 107026, Note_on_c, 0, 58, 0
2, 107086, Note_on_c, 0, 64, 0
2, 107147, Note_on_c, 0, 82, 0
2, 107308, Note_on_c, 0, 75, 0
2, 107310, Note_on_c, 0, 54, 0
2, 107331, Note_on_c, 0, 87, 0
2, 107384, Note_on_c, 0, 60, 0
2, 107534, Control_c, 0, 64, 0
2, 107600, Note_on_c, 0, 53, 49
2, 107604, Note_on_c, 0, 63, 42
2, 107608, Note_on_c, 0, 87, 53
2, 107610, Note_on_c, 0, 60, 34
2, 107619, Note_on_c, 0, 56, 52
2, 107641, Note_on_c, 0, 75, 37
2, 107651, Note_on_c, 0, 80, 44
2, 107934, Control_c, 0, 64, 127
2, 108275, Note_on_c, 0, 75, 0
2, 108305, Note_on_c, 0, 87, 0
2, 108381, Note_on_c, 0, 80, 0
2, 108881, Control_c, 0, 64, 0
2, 108885, Note_on_c, 0, 60, 0
2, 108914, Note_on_c, 0, 63, 0
2, 108929, Note_on_c, 0, 85, 46
2, 108974, Note_on_c, 0, 70, 39
2, 109014, Note_on_c, 0, 56, 0
2, 109106, Note_on_c, 0, 70, 0
2, 109118, Note_on_c, 0, 85, 0
2, 109230, Note_on_c, 0, 53, 0
2, 109545, Note_on_c, 0, 63, 26
2, 109556, Note_on_c, 0, 85, 53
2, 109565, Note_on_c, 0, 56, 32
2, 109579, Note_on_c, 0, 70, 37
2, 109585, Note_on_c, 0, 60, 34
2, 109595, Note_on_c, 0, 53, 24
2, 109937, Note_on_c, 0, 60, 0
2, 110033, Note_on_c, 0, 85, 0
2, 110042, Note_on_c, 0, 70, 0
2, 110169, Note_on_c, 0, 60, 22
2, 110221, Note_on_c, 0, 63, 0
2, 110384, Note_on_c, 0, 60, 0
2, 110473, Note_on_c, 0, 53, 0
2, 110477, Note_on_c, 0, 85, 50
2, 110576, Note_on_c, 0, 56, 0
2, 110652, Note_on_c, 0, 85, 0
2, 111070, Note_on_c, 0, 70, 43
2, 111089, Note_on_c, 0, 63, 31
2, 111091, Note_on_c, 0, 85, 37
2, 111105, Note_on_c, 0, 58, 42
2, 111110, Note_on_c, 0, 52, 36
2, 111432, Control_c, 0, 64, 127
2, 112426, Note_on_c, 0, 52, 0
2, 112467, Note_on_c, 0, 63, 0
2, 112492, Note_on_c, 0, 58, 0
2, 113011, Note_on_c, 0, 70, 0
2, 113947, Note_on_c, 0, 63, 40
2, 113966, Control_c, 0, 64, 0
2, 113968, Note_on_c, 0, 58, 48
2, 113990, Note_on_c, 0, 52, 34
2, 114025, Note_on_c, 0, 85, 0
2, 114383, Control_c, 0, 64, 127
2, 114709, Note_on_c, 0, 52, 0
2, 114794, Note_on_c, 0, 58, 0
2, 114856, Note_on_c, 0, 63, 0
2, 115201, Control_c, 0, 64, 0
2, 115203, Note_on_c, 0, 58, 62
2, 115208, Note_on_c, 0, 69, 57
2, 115214, Note_on_c, 0, 77, 60
2, 115219, Note_on_c, 0, 64, 44
2, 115240, Note_on_c, 0, 78, 61
2, 115359, Note_on_c, 0, 78, 0
2, 115412, Note_on_c, 0, 79, 36
2, 115473, Note_on_c, 0, 77, 0
2, 115549, Note_on_c, 0, 79, 0
2, 115554, Note_on_c, 0, 58, 0
2, 115598, Note_on_c, 0, 69, 0
2, 115599, Note_on_c, 0, 64, 0
2, 115918, Note_on_c, 0, 84, 95
2, 115926, Note_on_c, 0, 64, 64
2, 115928, Note_on_c, 0, 58, 76
2, 115933, Note_on_c, 0, 69, 80
2, 116229, Control_c, 0, 64, 127
2, 116294, Note_on_c, 0, 84, 0
2, 116318, Note_on_c, 0, 69, 0
2, 116325, Control_c, 0, 64, 0
2, 116333, Note_on_c, 0, 64, 0
2, 116445, Note_on_c, 0, 58, 0
2, 117238, Control_c, 0, 64, 127
2, 117704, Control_c, 0, 64, 0
2, 117793, Note_on_c, 0, 87, 83
2, 117795, Note_on_c, 0, 75, 90
2, 117806, Note_on_c, 0, 63, 80
2, 117809, Note_on_c, 0, 57, 79
2, 117810, Note_on_c, 0, 67, 85
2, 118008, Control_c, 0, 64, 127
2, 118046, Note_on_c, 0, 87, 0
2, 118051, Note_on_c, 0, 67, 0
2, 118085, Note_on_c, 0, 75, 0
2, 118088, Note_on_c, 0, 57, 0
2, 118121, Control_c, 0, 64, 0
2, 118133, Note_on_c, 0, 63, 0
2, 118229, Note_on_c, 0, 63, 45
2, 118234, Note_on_c, 0, 67, 53
2, 118236, Note_on_c, 0, 57, 58
2, 118238, Note_on_c, 0, 85, 53
2, 118253, Note_on_c, 0, 73, 35
2, 118345, Control_c, 0, 64, 127
2, 118403, Note_on_c, 0, 57, 0
2, 118422, Note_on_c, 0, 67, 0
2, 118478, Note_on_c, 0, 85, 0
2, 118510, Note_on_c, 0, 73, 0
2, 118518, Note_on_c, 0, 63, 0
2, 118797, Note_on_c, 0, 82, 65
2, 118801, Note_on_c, 0, 70, 63
2, 118813, Note_on_c, 0, 60, 55
2, 118821, Note_on_c, 0, 61, 56
2, 118826, Control_c, 0, 64, 0
2, 118829, Note_on_c, 0, 65, 58
2, 118859, Note_on_c, 0, 56, 33
2, 119115, Control_c, 0, 64, 127
2, 119639, Note_on_c, 0, 82, 0
2, 119646, Note_on_c, 0, 70, 0
2, 119701, Note_on_c, 0, 61, 0
2, 119732, Note_on_c, 0, 65, 0
2, 119761, Note_on_c, 0, 60, 0
2, 119803, Note_on_c, 0, 56, 0
2, 120014, Control_c, 0, 64, 0
2, 120081, Note_on_c, 0, 65, 55
2, 120091, Note_on_c, 0, 56, 46
2, 120093, Note_on_c, 0, 84, 58
2, 120095, Note_on_c, 0, 61, 48
2, 120097, Note_on_c, 0, 60, 33
2, 120118, Note_on_c, 0, 72, 55
2, 120312, Note_on_c, 0, 84, 0
2, 120398, Note_on_c, 0, 72, 0
2, 120401, Note_on_c, 0, 65, 0
2, 120430, Note_on_c, 0, 60, 0
2, 120434, Note_on_c, 0, 61, 0
2, 120616, Note_on_c, 0, 56, 0
2, 121009, Note_on_c, 0, 61, 37
2, 121024, Note_on_c, 0, 65, 36
2, 121028, Note_on_c, 0, 55, 39
2, 121038, Note_on_c, 0, 82, 60
2, 121063, Note_on_c, 0, 70, 39
2, 121144, Control_c, 0, 64, 127
2, 121549, Note_on_c, 0, 65, 0
2, 121579, Note_on_c, 0, 70, 0
2, 121599, Note_on_c, 0, 82, 0
2, 121615, Note_on_c, 0, 55, 0
2, 121632, Note_on_c, 0, 61, 0
2, 121898, Control_c, 0, 64, 0
2, 121943, Note_on_c, 0, 55, 48
2, 121949, Note_on_c, 0, 61, 48
2, 121959, Note_on_c, 0, 65, 36
2, 121965, Note_on_c, 0, 67, 38
2, 122128, Note_on_c, 0, 65, 0
2, 122139, Control_c, 0, 64, 127
2, 122231, Note_on_c, 0, 61, 0
2, 122318, Note_on_c, 0, 55, 0
2, 122349, Note_on_c, 0, 67, 0
2, 122715, Note_on_c, 0, 56, 32
2, 122877, Control_c, 0, 64, 0
2, 122888, Note_on_c, 0, 56, 0
2, 122934, Note_on_c, 0, 70, 51
2, 122936, Note_on_c, 0, 58, 60
2, 122965, Note_on_c, 0, 63, 38
2, 122973, Note_on_c, 0, 60, 26
2, 122981, Note_on_c, 0, 67, 40
2, 123360, Note_on_c, 0, 67, 0
2, 123435, Note_on_c, 0, 60, 0
2, 123469, Note_on_c, 0, 63, 0
2, 123491, Note_on_c, 0, 70, 0
2, 123514, Note_on_c, 0, 58, 0
2, 123653, Note_on_c, 0, 56, 29
2, 123899, Note_on_c, 0, 56, 0
2, 123903, Note_on_c, 0, 60, 46
2, 123906, Note_on_c, 0, 58, 50
2, 123917, Note_on_c, 0, 63, 44
2, 123925, Note_on_c, 0, 70, 37
2, 123936, Note_on_c, 0, 67, 38
2, 124064, Control_c, 0, 64, 127
2, 124150, Note_on_c, 0, 67, 0
2, 124160, Control_c, 0, 64, 0
2, 124236, Note_on_c, 0, 58, 0
2, 124243, Note_on_c, 0, 70, 0
2, 124305, Control_c, 0, 64, 127
2, 124379, Note_on_c, 0, 63, 0
2, 124418, Note_on_c, 0, 60, 0
2, 124581, Note_on_c, 0, 54, 29
2, 124770, Control_c, 0, 64, 0
2, 124791, Note_on_c, 0, 54, 0
2, 124843, Note_on_c, 0, 57, 37
2, 124846, Note_on_c, 0, 68, 33
2, 124856, Note_on_c, 0, 56, 47
2, 124861, Note_on_c, 0, 61, 46
2, 124902, Note_on_c, 0, 63, 34
2, 125462, Note_on_c, 0, 57, 0
2, 125464, Note_on_c, 0, 63, 0
2, 125478, Note_on_c, 0, 56, 0
2, 125516, Note_on_c, 0, 68, 0
2, 125531, Note_on_c, 0, 51, 30
2, 125550, Note_on_c, 0, 61, 0
2, 125686, Note_on_c, 0, 51, 0
2, 125771, Note_on_c, 0, 54, 17
2, 125793, Note_on_c, 0, 61, 46
2, 125805, Note_on_c, 0, 68, 32
2, 125807, Note_on_c, 0, 56, 47
2, 125809, Note_on_c, 0, 57, 36
2, 125817, Note_on_c, 0, 63, 44
2, 125941, Control_c, 0, 64, 127
2, 126035, Note_on_c, 0, 68, 0
2, 126091, Note_on_c, 0, 54, 0
2, 126117, Control_c, 0, 64, 0
2, 126155, Note_on_c, 0, 56, 0
2, 126166, Control_c, 0, 64, 127
2, 126217, Note_on_c, 0, 63, 0
2, 126308, Note_on_c, 0, 57, 0
2, 126321, Note_on_c, 0, 61, 0
2, 126513, Note_on_c, 0, 51, 29
2, 126614, Control_c, 0, 64, 0
2, 126632, Note_on_c, 0, 52, 28
2, 126656, Note_on_c, 0, 51, 0
2, 126685, Note_on_c, 0, 53, 46
2, 126704, Note_on_c, 0, 56, 39
2, 126715, Note_on_c, 0, 52, 0
2, 126720, Note_on_c, 0, 61, 40
2, 126736, Note_on_c, 0, 60, 42
2, 126739, Note_on_c, 0, 65, 30
2, 127281, Note_on_c, 0, 60, 0
2, 127305, Note_on_c, 0, 61, 0
2, 127317, Note_on_c, 0, 53, 0
2, 127334, Note_on_c, 0, 56, 0
2, 127369, Note_on_c, 0, 65, 0
2, 127514, Note_on_c, 0, 52, 31
2, 127606, Note_on_c, 0, 53, 55
2, 127607, Note_on_c, 0, 52, 0
2, 127656, Note_on_c, 0, 56, 30
2, 127659, Note_on_c, 0, 61, 39
2, 127670, Note_on_c, 0, 60, 29
2, 127706, Note_on_c, 0, 65, 29
2, 127833, Control_c, 0, 64, 127
2, 127979, Note_on_c, 0, 61, 0
2, 127985, Note_on_c, 0, 60, 0
2, 128126, Note_on_c, 0, 53, 0
2, 128139, Note_on_c, 0, 65, 0
2, 128153, Note_on_c, 0, 56, 0
2, 128253, Note_on_c, 0, 51, 28
2, 128331, Control_c, 0, 64, 0
2, 128334, Note_on_c, 0, 55, 44
2, 128336, Note_on_c, 0, 61, 30
2, 128337, Note_on_c, 0, 64, 37
2, 128350, Note_on_c, 0, 51, 0
2, 128373, Note_on_c, 0, 59, 40
2, 128382, Note_on_c, 0, 52, 24
2, 128635, Control_c, 0, 64, 127
2, 128960, Note_on_c, 0, 55, 0
2, 129118, Note_on_c, 0, 59, 0
2, 129203, Note_on_c, 0, 64, 0
2, 129269, Note_on_c, 0, 40, 53
2, 129334, Note_on_c, 0, 61, 0
2, 129361, Note_on_c, 0, 40, 0
2, 129438, Note_on_c, 0, 52, 0
2, 130274, Note_on_c, 0, 51, 27
2, 130512, Control_c, 0, 64, 0
2, 130569, Note_on_c, 0, 51, 0
2, 130584, Note_on_c, 0, 70, 57
2, 130585, Note_on_c, 0, 63, 62
2, 130591, Note_on_c, 0, 55, 44
2, 130601, Note_on_c, 0, 67, 55
2, 130610, Note_on_c, 0, 60, 45
2, 131094, Note_on_c, 0, 60, 0
2, 131108, Note_on_c, 0, 67, 0
2, 131137, Control_c, 0, 64, 127
2, 131169, Note_on_c, 0, 63, 0
2, 131232, Note_on_c, 0, 70, 0
2, 131555, Control_c, 0, 64, 0
2, 131622, Note_on_c, 0, 56, 72
2, 131629, Note_on_c, 0, 72, 66
2, 131641, Note_on_c, 0, 68, 64
2, 131643, Note_on_c, 0, 63, 65
2, 131678, Note_on_c, 0, 55, 0
2, 131748, Control_c, 0, 64, 127
2, 131891, Note_on_c, 0, 56, 0
2, 131938, Note_on_c, 0, 63, 0
2, 131997, Note_on_c, 0, 72, 0
2, 132009, Note_on_c, 0, 68, 0
2, 132598, Control_c, 0, 64, 0
2, 132600, Note_on_c, 0, 61, 42
2, 132601, Note_on_c, 0, 65, 60
2, 132606, Note_on_c, 0, 60, 34
2, 132609, Note_on_c, 0, 55, 54
2, 132614, Note_on_c, 0, 77, 63
2, 132626, Note_on_c, 0, 72, 66
2, 133465, Note_on_c, 0, 77, 0
2, 133517, Note_on_c, 0, 72, 0
2, 133588, Note_on_c, 0, 69, 42
2, 133753, Note_on_c, 0, 69, 0
2, 133838, Note_on_c, 0, 70, 47
2, 133888, Note_on_c, 0, 65, 0
2, 133905, Note_on_c, 0, 60, 0
2, 133930, Note_on_c, 0, 61, 0
2, 133965, Note_on_c, 0, 55, 0
2, 134000, Note_on_c, 0, 70, 0
2, 134087, Note_on_c, 0, 72, 66
2, 134272, Note_on_c, 0, 72, 0
2, 134349, Note_on_c, 0, 75, 67
2, 134490, Note_on_c, 0, 75, 0
2, 134541, Note_on_c, 0, 63, 37
2, 134566, Note_on_c, 0, 60, 28
2, 134586, Note_on_c, 0, 58, 48
2, 134605, Note_on_c, 0, 53, 25
2, 135093, Note_on_c, 0, 60, 0
2, 135188, Note_on_c, 0, 82, 82
2, 135203, Note_on_c, 0, 60, 19
2, 135420, Note_on_c, 0, 63, 0
2, 135454, Note_on_c, 0, 82, 0
2, 135535, Note_on_c, 0, 79, 40
2, 135637, Note_on_c, 0, 60, 0
2, 135656, Note_on_c, 0, 53, 0
2, 135673, Note_on_c, 0, 79, 0
2, 135742, Note_on_c, 0, 58, 0
2, 135849, Note_on_c, 0, 80, 25
2, 135979, Note_on_c, 0, 80, 0
2, 136094, Note_on_c, 0, 82, 74
2, 136110, Control_c, 0, 64, 127
2, 136239, Control_c, 0, 64, 0
2, 136280, Note_on_c, 0, 82, 0
2, 136383, Note_on_c, 0, 65, 31
2, 136385, Note_on_c, 0, 63, 23
2, 136406, Note_on_c, 0, 84, 64
2, 136421, Note_on_c, 0, 57, 25
2, 136600, Note_on_c, 0, 84, 0
2, 136731, Note_on_c, 0, 81, 49
2, 136846, Note_on_c, 0, 81, 0
2, 137004, Note_on_c, 0, 82, 69
2, 137219, Note_on_c, 0, 82, 0
2, 137320, Note_on_c, 0, 84, 57
2, 137437, Note_on_c, 0, 84, 0
2, 137539, Note_on_c, 0, 63, 0
2, 137550, Note_on_c, 0, 57, 0
2, 137585, Note_on_c, 0, 65, 0
2, 137633, Note_on_c, 0, 85, 46
2, 137737, Note_on_c, 0, 85, 0
2, 137934, Note_on_c, 0, 87, 82
2, 138086, Note_on_c, 0, 61, 36
2, 138097, Note_on_c, 0, 65, 29
2, 138115, Note_on_c, 0, 60, 30
2, 138134, Note_on_c, 0, 56, 28
2, 138149, Note_on_c, 0, 87, 0
2, 138574, Note_on_c, 0, 85, 60
2, 138699, Note_on_c, 0, 85, 0
2, 138770, Note_on_c, 0, 65, 0
2, 138847, Note_on_c, 0, 65, 38
2, 138873, Note_on_c, 0, 87, 67
2, 139050, Note_on_c, 0, 87, 0
2, 139205, Note_on_c, 0, 65, 0
2, 139238, Note_on_c, 0, 89, 39
2, 139377, Note_on_c, 0, 61, 0
2, 139378, Note_on_c, 0, 89, 0
2, 139397, Note_on_c, 0, 60, 0
2, 139539, Note_on_c, 0, 86, 42
2, 139615, Note_on_c, 0, 56, 0
2, 139691, Note_on_c, 0, 86, 0
2, 139845, Note_on_c, 0, 87, 74
2, 139851, Note_on_c, 0, 60, 35
2, 139859, Note_on_c, 0, 65, 42
2, 139878, Note_on_c, 0, 56, 32
2, 139881, Note_on_c, 0, 61, 34
2, 140027, Note_on_c, 0, 87, 0
2, 140195, Note_on_c, 0, 89, 34
2, 140315, Note_on_c, 0, 89, 0
2, 140411, Note_on_c, 0, 65, 0
2, 140454, Note_on_c, 0, 61, 0
2, 140460, Note_on_c, 0, 60, 0
2, 140467, Note_on_c, 0, 91, 47
2, 140521, Note_on_c, 0, 56, 0
2, 140592, Note_on_c, 0, 91, 0
2, 140785, Note_on_c, 0, 65, 55
2, 140793, Note_on_c, 0, 60, 44
2, 140796, Note_on_c, 0, 94, 70
2, 140798, Note_on_c, 0, 61, 51
2, 140835, Note_on_c, 0, 56, 35
2, 141014, Note_on_c, 0, 94, 0
2, 141045, Note_on_c, 0, 65, 0
2, 141176, Note_on_c, 0, 84, 71
2, 141184, Note_on_c, 0, 96, 46
2, 141190, Note_on_c, 0, 65, 38
2, 141196, Control_c, 0, 64, 127
2, 141409, Note_on_c, 0, 96, 0
2, 141494, Note_on_c, 0, 84, 0
2, 141499, Note_on_c, 0, 65, 0
2, 141511, Note_on_c, 0, 61, 0
2, 141569, Note_on_c, 0, 56, 0
2, 141571, Note_on_c, 0, 60, 0
2, 141645, Control_c, 0, 64, 0
2, 141838, Control_c, 0, 64, 127
2, 141853, Note_on_c, 0, 56, 55
2, 141859, Note_on_c, 0, 60, 36
2, 141865, Note_on_c, 0, 65, 48
2, 141882, Note_on_c, 0, 61, 49
2, 141941, Note_on_c, 0, 86, 48
2, 142002, Note_on_c, 0, 86, 0
2, 142021, Note_on_c, 0, 60, 0
2, 142022, Note_on_c, 0, 65, 0
2, 142049, Note_on_c, 0, 56, 0
2, 142104, Note_on_c, 0, 61, 0
2, 142110, Control_c, 0, 64, 0
2, 142446, Note_on_c, 0, 61, 49
2, 142451, Note_on_c, 0, 55, 58
2, 142455, Note_on_c, 0, 85, 56
2, 142468, Note_on_c, 0, 65, 41
2, 142508, Note_on_c, 0, 99, 28
2, 142776, Note_on_c, 0, 85, 0
2, 142784, Note_on_c, 0, 65, 0
2, 142787, Note_on_c, 0, 61, 0
2, 142791, Note_on_c, 0, 55, 0
2, 142830, Note_on_c, 0, 99, 0
2, 143084, Note_on_c, 0, 61, 53
2, 143087, Note_on_c, 0, 55, 49
2, 143097, Note_on_c, 0, 65, 47
2, 143105, Note_on_c, 0, 99, 60
2, 143118, Note_on_c, 0, 85, 46
2, 143201, Control_c, 0, 64, 127
2, 143456, Note_on_c, 0, 55, 0
2, 143489, Note_on_c, 0, 65, 0
2, 143505, Note_on_c, 0, 61, 0
2, 143526, Note_on_c, 0, 85, 0
2, 143545, Note_on_c, 0, 99, 0
2, 143666, Control_c, 0, 64, 0
2, 143765, Note_on_c, 0, 61, 50
2, 143775, Note_on_c, 0, 99, 56
2, 143782, Note_on_c, 0, 65, 44
2, 143785, Note_on_c, 0, 55, 35
2, 143793, Note_on_c, 0, 85, 44
2, 144019, Control_c, 0, 64, 127
2, 144302, Note_on_c, 0, 55, 0
2, 144326, Note_on_c, 0, 85, 0
2, 144340, Note_on_c, 0, 65, 0
2, 144390, Note_on_c, 0, 61, 0
2, 144409, Note_on_c, 0, 99, 0
2, 144613, Control_c, 0, 64, 0
2, 144656, Note_on_c, 0, 61, 49
2, 144660, Note_on_c, 0, 99, 62
2, 144669, Note_on_c, 0, 65, 50
2, 144670, Note_on_c, 0, 55, 51
2, 144676, Note_on_c, 0, 85, 55
2, 144874, Note_on_c, 0, 85, 0
2, 144901, Control_c, 0, 64, 127
2, 145113, Note_on_c, 0, 99, 0
2, 145259, Note_on_c, 0, 55, 0
2, 145371, Note_on_c, 0, 65, 0
2, 145469, Note_on_c, 0, 61, 0
2, 145575, Control_c, 0, 64, 0
2, 145619, Note_on_c, 0, 60, 62
2, 145622, Note_on_c, 0, 56, 68
2, 145624, Note_on_c, 0, 65, 74
2, 145625, Note_on_c, 0, 101, 103
2, 145632, Note_on_c, 0, 61, 56
2, 146239, Note_on_c, 0, 100, 54
2, 146413, Note_on_c, 0, 99, 67
2, 146419, Note_on_c, 0, 101, 0
2, 146473, Note_on_c, 0, 100, 0
2, 146657, Note_on_c, 0, 98, 65
2, 146697, Note_on_c, 0, 99, 0
2, 146822, Note_on_c, 0, 98, 0
2, 146988, Note_on_c, 0, 97, 71
2, 147501, Note_on_c, 0, 97, 0
2, 147600, Note_on_c, 0, 99, 85
2, 147863, Note_on_c, 0, 60, 0
2, 147864, Note_on_c, 0, 65, 0
2, 147880, Note_on_c, 0, 61, 0
2, 147932, Note_on_c, 0, 56, 0
2, 147968, Note_on_c, 0, 99, 0
2, 148041, Note_on_c, 0, 96, 37
2, 148475, Note_on_c, 0, 96, 0
2, 148561, Note_on_c, 0, 97, 75
2, 148600, Note_on_c, 0, 60, 43
2, 148681, Note_on_c, 0, 60, 0
2, 148800, Note_on_c, 0, 97, 0
2, 148993, Note_on_c, 0, 94, 38
2, 149390, Note_on_c, 0, 94, 0
2, 149515, Note_on_c, 0, 65, 72
2, 149518, Note_on_c, 0, 96, 60
2, 149531, Note_on_c, 0, 61, 59
2, 149561, Note_on_c, 0, 55, 32
2, 149574, Note_on_c, 0, 65, 0
2, 149617, Note_on_c, 0, 55, 0
2, 149624, Note_on_c, 0, 61, 0
2, 149709, Note_on_c, 0, 96, 0
2, 150000, Note_on_c, 0, 93, 36
2, 150394, Note_on_c, 0, 93, 0
2, 150467, Control_c, 0, 64, 127
2, 150488, Note_on_c, 0, 94, 62
2, 150734, Note_on_c, 0, 94, 0
2, 150739, Control_c, 0, 64, 0
2, 150843, Note_on_c, 0, 90, 50
2, 150859, Note_on_c, 0, 61, 52
2, 150863, Note_on_c, 0, 66, 60
2, 150893, Note_on_c, 0, 55, 53
2, 151348, Note_on_c, 0, 90, 0
2, 151456, Note_on_c, 0, 91, 80
2, 151707, Note_on_c, 0, 66, 0
2, 151760, Note_on_c, 0, 91, 0
2, 151814, Control_c, 0, 64, 127
2, 151893, Note_on_c, 0, 88, 40
2, 151920, Note_on_c, 0, 55, 0
2, 152045, Note_on_c, 0, 61, 0
2, 152291, Note_on_c, 0, 88, 0
2, 152390, Note_on_c, 0, 87, 64
2, 152407, Note_on_c, 0, 61, 39
2, 152417, Note_on_c, 0, 65, 45
2, 152429, Note_on_c, 0, 55, 44
2, 152439, Control_c, 0, 64, 0
2, 152499, Note_on_c, 0, 65, 0
2, 152513, Note_on_c, 0, 55, 0
2, 152556, Note_on_c, 0, 61, 0
2, 152678, Note_on_c, 0, 87, 0
2, 152826, Note_on_c, 0, 85, 45
2, 153304, Note_on_c, 0, 85, 0
2, 153337, Note_on_c, 0, 84, 60
2, 153387, Note_on_c, 0, 63, 32
2, 153389, Note_on_c, 0, 58, 48
2, 153520, Note_on_c, 0, 84, 0
2, 153725, Note_on_c, 0, 82, 32
2, 153982, Note_on_c, 0, 82, 0
2, 154066, Note_on_c, 0, 83, 62
2, 154256, Note_on_c, 0, 83, 0
2, 154351, Note_on_c, 0, 84, 87
2, 154629, Note_on_c, 0, 84, 0
2, 154689, Note_on_c, 0, 79, 52
2, 155129, Note_on_c, 0, 79, 0
2, 155200, Control_c, 0, 64, 127
2, 155236, Note_on_c, 0, 63, 0
2, 155251, Note_on_c, 0, 75, 73
2, 155408, Control_c, 0, 64, 0
2, 155503, Note_on_c, 0, 75, 0
2, 155628, Note_on_c, 0, 58, 0
2, 155643, Note_on_c, 0, 74, 40
2, 156096, Note_on_c, 0, 74, 0
2, 156199, Note_on_c, 0, 77, 62
2, 156448, Note_on_c, 0, 77, 0
2, 156552, Note_on_c, 0, 75, 49
2, 157318, Note_on_c, 0, 61, 32
2, 157374, Note_on_c, 0, 61, 0
2, 158158, Note_on_c, 0, 67, 84
2, 158333, Note_on_c, 0, 75, 0
2, 159052, Note_on_c, 0, 63, 65
2, 159105, Note_on_c, 0, 60, 35
2, 159162, Note_on_c, 0, 63, 0
2, 159174, Note_on_c, 0, 60, 0
2, 159753, Note_on_c, 0, 68, 84
2, 159763, Note_on_c, 0, 67, 0
2, 160044, Control_c, 0, 64, 127
2, 160088, Note_on_c, 0, 69, 87
2, 160089, Note_on_c, 0, 68, 0
2, 160157, Control_c, 0, 64, 0
2, 160370, Note_on_c, 0, 69, 0
2, 160445, Note_on_c, 0, 70, 45
2, 160707, Note_on_c, 0, 70, 0
2, 160725, Note_on_c, 0, 71, 80
2, 160953, Note_on_c, 0, 71, 0
2, 161059, Note_on_c, 0, 72, 83
2, 161075, Note_on_c, 0, 65, 64
2, 161082, Note_on_c, 0, 60, 50
2, 161097, Note_on_c, 0, 54, 45
2, 161099, Note_on_c, 0, 58, 52
2, 161361, Note_on_c, 0, 72, 0
2, 161404, Note_on_c, 0, 73, 46
2, 161638, Note_on_c, 0, 73, 0
2, 161761, Note_on_c, 0, 74, 90
2, 162057, Note_on_c, 0, 74, 0
2, 162137, Note_on_c, 0, 73, 52
2, 162201, Note_on_c, 0, 65, 0
2, 162289, Note_on_c, 0, 60, 0
2, 162326, Note_on_c, 0, 73, 0
2, 162425, Note_on_c, 0, 75, 82
2, 162454, Note_on_c, 0, 60, 49
2, 162462, Note_on_c, 0, 65, 52
2, 162624, Note_on_c, 0, 65, 0
2, 162704, Note_on_c, 0, 75, 0
2, 162749, Note_on_c, 0, 60, 0
2, 162759, Note_on_c, 0, 74, 51
2, 162981, Note_on_c, 0, 74, 0
2, 163073, Note_on_c, 0, 76, 85
2, 163103, Note_on_c, 0, 75, 64
2, 163113, Note_on_c, 0, 60, 52
2, 163133, Note_on_c, 0, 64, 52
2, 163175, Note_on_c, 0, 75, 0
2, 163307, Note_on_c, 0, 64, 0
2, 163388, Note_on_c, 0, 76, 0
2, 163395, Note_on_c, 0, 60, 0
2, 163473, Note_on_c, 0, 74, 35
2, 163518, Note_on_c, 0, 58, 0
2, 163530, Note_on_c, 0, 54, 0
2, 163590, Note_on_c, 0, 74, 0
2, 163713, Note_on_c, 0, 60, 51
2, 163718, Note_on_c, 0, 77, 79
2, 163727, Note_on_c, 0, 65, 66
2, 163765, Note_on_c, 0, 58, 32
2, 163925, Note_on_c, 0, 65, 0
2, 163930, Note_on_c, 0, 77, 0
2, 163955, Note_on_c, 0, 58, 0
2, 163979, Note_on_c, 0, 60, 0
2, 164311, Note_on_c, 0, 60, 50
2, 164333, Note_on_c, 0, 66, 67
2, 164335, Note_on_c, 0, 78, 75
2, 164351, Note_on_c, 0, 58, 48
2, 164370, Note_on_c, 0, 54, 28
2, 164627, Note_on_c, 0, 78, 0
2, 164628, Note_on_c, 0, 66, 0
2, 164650, Note_on_c, 0, 58, 0
2, 164657, Note_on_c, 0, 60, 0
2, 164679, Note_on_c, 0, 54, 0
2, 164910, Note_on_c, 0, 60, 43
2, 164919, Note_on_c, 0, 79, 68
2, 164923, Note_on_c, 0, 58, 44
2, 164926, Note_on_c, 0, 67, 76
2, 164939, Note_on_c, 0, 54, 32
2, 165054, Note_on_c, 0, 79, 0
2, 165078, Note_on_c, 0, 67, 0
2, 165099, Note_on_c, 0, 54, 0
2, 165136, Note_on_c, 0, 60, 0
2, 165144, Note_on_c, 0, 58, 0
2, 165307, Note_on_c, 0, 58, 39
2, 165316, Note_on_c, 0, 60, 32
2, 165321, Note_on_c, 0, 54, 27
2, 165327, Note_on_c, 0, 65, 52
2, 165342, Note_on_c, 0, 80, 56
2, 165344, Note_on_c, 0, 68, 45
2, 165648, Note_on_c, 0, 60, 0
2, 165723, Control_c, 0, 64, 127
2, 165724, Note_on_c, 0, 68, 0
2, 165731, Note_on_c, 0, 65, 0
2, 165739, Note_on_c, 0, 80, 0
2, 165774, Note_on_c, 0, 58, 0
2, 165849, Note_on_c, 0, 54, 0
2, 165995, Control_c, 0, 64, 0
2, 166125, Note_on_c, 0, 54, 37
2, 166129, Note_on_c, 0, 65, 47
2, 166140, Note_on_c, 0, 60, 40
2, 166145, Note_on_c, 0, 58, 45
2, 166154, Note_on_c, 0, 82, 65
2, 166163, Note_on_c, 0, 70, 50
2, 166268, Control_c, 0, 64, 127
2, 166488, Note_on_c, 0, 82, 0
2, 166497, Note_on_c, 0, 60, 0
2, 166529, Note_on_c, 0, 70, 0
2, 166545, Note_on_c, 0, 65, 0
2, 166552, Note_on_c, 0, 58, 0
2, 166589, Note_on_c, 0, 54, 0
2, 166768, Note_on_c, 0, 58, 55
2, 166777, Note_on_c, 0, 54, 38
2, 166790, Note_on_c, 0, 65, 59
2, 166792, Note_on_c, 0, 84, 72
2, 166811, Note_on_c, 0, 72, 71
2, 166944, Note_on_c, 0, 65, 0
2, 166982, Note_on_c, 0, 72, 0
2, 166987, Note_on_c, 0, 84, 0
2, 167053, Note_on_c, 0, 54, 0
2, 167064, Note_on_c, 0, 58, 0
2, 167134, Control_c, 0, 64, 0
2, 167207, Note_on_c, 0, 54, 45
2, 167211, Note_on_c, 0, 58, 36
2, 167222, Note_on_c, 0, 65, 52
2, 167235, Note_on_c, 0, 62, 61
2, 167244, Note_on_c, 0, 85, 49
2, 167251, Note_on_c, 0, 73, 37
2, 167271, Note_on_c, 0, 82, 31
2, 167317, Note_on_c, 0, 79, 36
2, 167332, Note_on_c, 0, 82, 0
2, 167394, Note_on_c, 0, 79, 0
2, 167423, Control_c, 0, 64, 127
2, 167456, Note_on_c, 0, 73, 0
2, 167462, Note_on_c, 0, 86, 30
2, 167480, Note_on_c, 0, 85, 0
2, 167516, Note_on_c, 0, 74, 35
2, 167545, Note_on_c, 0, 82, 18
2, 167567, Control_c, 0, 64, 0
2, 167600, Control_c, 0, 64, 127
2, 167614, Note_on_c, 0, 62, 0
2, 167665, Note_on_c, 0, 74, 0
2, 167667, Note_on_c, 0, 86, 0
2, 167729, Note_on_c, 0, 65, 0
2, 167764, Note_on_c, 0, 54, 0
2, 167769, Note_on_c, 0, 82, 0
2, 167856, Note_on_c, 0, 58, 0
2, 167952, Control_c, 0, 64, 0
2, 168095, Note_on_c, 0, 65, 48
2, 168098, Note_on_c, 0, 61, 50
2, 168103, Note_on_c, 0, 58, 38
2, 168107, Note_on_c, 0, 54, 39
2, 168133, Note_on_c, 0, 87, 55
2, 168155, Note_on_c, 0, 75, 39
2, 168209, Control_c, 0, 64, 127
2, 168443, Note_on_c, 0, 65, 0
2, 168533, Note_on_c, 0, 58, 0
2, 168644, Note_on_c, 0, 75, 0
2, 168654, Note_on_c, 0, 54, 0
2, 168668, Note_on_c, 0, 87, 0
2, 168689, Note_on_c, 0, 61, 0
2, 168770, Control_c, 0, 64, 0
2, 168795, Note_on_c, 0, 87, 50
2, 168798, Note_on_c, 0, 63, 60
2, 168812, Note_on_c, 0, 60, 39
2, 168814, Note_on_c, 0, 53, 47
2, 168830, Note_on_c, 0, 75, 36
2, 168834, Note_on_c, 0, 56, 35
2, 168847, Note_on_c, 0, 84, 46
2, 168868, Note_on_c, 0, 80, 33
2, 169139, Control_c, 0, 64, 127
2, 169835, Note_on_c, 0, 84, 0
2, 169858, Note_on_c, 0, 75, 0
2, 169949, Note_on_c, 0, 87, 0
2, 170053, Note_on_c, 0, 80, 0
2, 170268, Note_on_c, 0, 60, 0
2, 170313, Note_on_c, 0, 63, 0
2, 170390, Note_on_c, 0, 56, 0
2, 170553, Note_on_c, 0, 63, 50
2, 170568, Note_on_c, 0, 70, 59
2, 170577, Note_on_c, 0, 85, 52
2, 170599, Control_c, 0, 64, 0
2, 170635, Note_on_c, 0, 56, 25
2, 170704, Note_on_c, 0, 63, 0
2, 170720, Note_on_c, 0, 70, 0
2, 170740, Note_on_c, 0, 85, 0
2, 170808, Note_on_c, 0, 53, 0
2, 170825, Note_on_c, 0, 56, 0
2, 170901, Note_on_c, 0, 82, 25
2, 171097, Note_on_c, 0, 82, 0
2, 171225, Note_on_c, 0, 63, 46
2, 171237, Note_on_c, 0, 85, 55
2, 171242, Note_on_c, 0, 70, 52
2, 171253, Note_on_c, 0, 53, 37
2, 171255, Note_on_c, 0, 60, 35
2, 171266, Note_on_c, 0, 56, 37
2, 171621, Note_on_c, 0, 70, 0
2, 171630, Note_on_c, 0, 53, 0
2, 171633, Note_on_c, 0, 63, 0
2, 171642, Note_on_c, 0, 56, 0
2, 171667, Note_on_c, 0, 85, 0
2, 171680, Note_on_c, 0, 60, 0
2, 171859, Note_on_c, 0, 63, 33
2, 171874, Note_on_c, 0, 53, 32
2, 171885, Note_on_c, 0, 82, 38
2, 171889, Note_on_c, 0, 56, 37
2, 172011, Control_c, 0, 64, 127
2, 172077, Note_on_c, 0, 53, 0
2, 172146, Note_on_c, 0, 63, 0
2, 172217, Note_on_c, 0, 56, 0
2, 172281, Note_on_c, 0, 82, 0
2, 172503, Note_on_c, 0, 63, 52
2, 172524, Control_c, 0, 64, 0
2, 172526, Note_on_c, 0, 52, 44
2, 172537, Note_on_c, 0, 58, 51
2, 172541, Note_on_c, 0, 85, 50
2, 172549, Note_on_c, 0, 70, 47
2, 172796, Note_on_c, 0, 70, 0
2, 172845, Control_c, 0, 64, 127
2, 173055, Note_on_c, 0, 85, 0
2, 173807, Control_c, 0, 64, 0
2, 173840, Note_on_c, 0, 100, 61
2, 173841, Note_on_c, 0, 99, 30
2, 173921, Note_on_c, 0, 99, 0
2, 174054, Note_on_c, 0, 100, 0
2, 174198, Note_on_c, 0, 58, 0
2, 174231, Note_on_c, 0, 63, 0
2, 174331, Note_on_c, 0, 52, 0
2, 174443, Note_on_c, 0, 99, 71
2, 174448, Note_on_c, 0, 63, 45
2, 174470, Note_on_c, 0, 58, 50
2, 174505, Note_on_c, 0, 52, 45
2, 174804, Note_on_c, 0, 99, 0
2, 174954, Note_on_c, 0, 97, 53
2, 175168, Note_on_c, 0, 58, 0
2, 175209, Note_on_c, 0, 63, 0
2, 175344, Note_on_c, 0, 97, 0
2, 175421, Note_on_c, 0, 96, 56
2, 175453, Note_on_c, 0, 63, 51
2, 175480, Note_on_c, 0, 58, 47
2, 175606, Note_on_c, 0, 96, 0
2, 175796, Control_c, 0, 64, 127
2, 175833, Note_on_c, 0, 94, 52
2, 175933, Note_on_c, 0, 52, 0
2, 176033, Note_on_c, 0, 63, 0
2, 176041, Note_on_c, 0, 58, 0
2, 176117, Control_c, 0, 64, 0
2, 176238, Note_on_c, 0, 94, 0
2, 176294, Control_c, 0, 64, 127
2, 176365, Note_on_c, 0, 95, 51
2, 176640, Note_on_c, 0, 95, 0
2, 176710, Control_c, 0, 64, 0
2, 176744, Note_on_c, 0, 96, 57
2, 176854, Note_on_c, 0, 96, 0
2, 178258, Note_on_c, 0, 96, 82
2, 178265, Note_on_c, 0, 84, 92
2, 178273, Note_on_c, 0, 64, 73
2, 178277, Note_on_c, 0, 69, 88
2, 178278, Note_on_c, 0, 58, 83
2, 178534, Note_on_c, 0, 58, 0
2, 178545, Note_on_c, 0, 69, 0
2, 178558, Note_on_c, 0, 96, 0
2, 178587, Control_c, 0, 64, 127
2, 178609, Note_on_c, 0, 84, 0
2, 178675, Note_on_c, 0, 58, 61
2, 178678, Note_on_c, 0, 69, 65
2, 178702, Note_on_c, 0, 84, 61
2, 178705, Note_on_c, 0, 96, 56
2, 178883, Note_on_c, 0, 84, 0
2, 178909, Note_on_c, 0, 64, 0
2, 178938, Note_on_c, 0, 96, 0
2, 178947, Note_on_c, 0, 69, 0
2, 179091, Note_on_c, 0, 58, 0
2, 179213, Control_c, 0, 64, 0
2, 179277, Note_on_c, 0, 67, 85
2, 179278, Note_on_c, 0, 57, 78
2, 179283, Note_on_c, 0, 63, 72
2, 179286, Note_on_c, 0, 87, 83
2, 179288, Note_on_c, 0, 99, 83
2, 179448, Note_on_c, 0, 67, 0
2, 179465, Note_on_c, 0, 99, 0
2, 179488, Note_on_c, 0, 87, 0
2, 179536, Note_on_c, 0, 57, 0
2, 179566, Note_on_c, 0, 63, 0
2, 179646, Control_c, 0, 64, 127
2, 179649, Note_on_c, 0, 57, 62
2, 179659, Note_on_c, 0, 67, 57
2, 179665, Note_on_c, 0, 63, 56
2, 179667, Note_on_c, 0, 97, 55
2, 179681, Note_on_c, 0, 85, 49
2, 179917, Note_on_c, 0, 97, 0
2, 179940, Note_on_c, 0, 85, 0
2, 179963, Note_on_c, 0, 67, 0
2, 179978, Note_on_c, 0, 57, 0
2, 180060, Note_on_c, 0, 63, 0
2, 180255, Control_c, 0, 64, 0
2, 180265, Note_on_c, 0, 94, 49
2, 180271, Note_on_c, 0, 65, 60
2, 180286, Note_on_c, 0, 60, 43
2, 180289, Note_on_c, 0, 82, 49
2, 180291, Note_on_c, 0, 56, 44
2, 180295, Note_on_c, 0, 61, 43
2, 180576, Control_c, 0, 64, 127
2, 181677, Note_on_c, 0, 60, 0
2, 181701, Note_on_c, 0, 61, 0
2, 181712, Note_on_c, 0, 82, 0
2, 181714, Note_on_c, 0, 65, 0
2, 181817, Note_on_c, 0, 94, 0
2, 181872, Note_on_c, 0, 56, 0
2, 182469, Control_c, 0, 64, 0
2, 182488, Note_on_c, 0, 96, 54
2, 182493, Note_on_c, 0, 61, 50
2, 182494, Note_on_c, 0, 89, 52
2, 182497, Note_on_c, 0, 65, 51
2, 182510, Note_on_c, 0, 84, 40
2, 182515, Note_on_c, 0, 55, 47
2, 182774, Control_c, 0, 64, 127
2, 183367, Note_on_c, 0, 65, 0
2, 183397, Note_on_c, 0, 55, 0
2, 183427, Note_on_c, 0, 96, 0
2, 183508, Note_on_c, 0, 61, 0
2, 183510, Note_on_c, 0, 89, 0
2, 183618, Note_on_c, 0, 84, 0
2, 184313, Control_c, 0, 64, 0
2, 184323, Note_on_c, 0, 63, 40
2, 184337, Note_on_c, 0, 58, 38
2, 184348, Note_on_c, 0, 94, 69
2, 184350, Note_on_c, 0, 87, 73
2, 184370, Note_on_c, 0, 53, 29
2, 184603, Note_on_c, 0, 94, 0
2, 184614, Note_on_c, 0, 87, 0
2, 184672, Note_on_c, 0, 92, 35
2, 184733, Note_on_c, 0, 84, 25
2, 184894, Note_on_c, 0, 84, 0
2, 184895, Note_on_c, 0, 92, 0
2, 184920, Note_on_c, 0, 63, 0
2, 185022, Note_on_c, 0, 94, 67
2, 185030, Note_on_c, 0, 87, 62
2, 185041, Note_on_c, 0, 63, 29
2, 185508, Note_on_c, 0, 87, 0
2, 185536, Note_on_c, 0, 94, 0
2, 185608, Note_on_c, 0, 63, 0
2, 185729, Note_on_c, 0, 94, 59
2, 185742, Note_on_c, 0, 87, 56
2, 185897, Note_on_c, 0, 94, 0
2, 185944, Note_on_c, 0, 87, 0
2, 185998, Control_c, 0, 64, 127
2, 186056, Note_on_c, 0, 92, 50
2, 186081, Note_on_c, 0, 84, 31
2, 186188, Note_on_c, 0, 84, 0
2, 186222, Control_c, 0, 64, 0
2, 186251, Note_on_c, 0, 92, 0
2, 186366, Note_on_c, 0, 63, 38
2, 186373, Note_on_c, 0, 87, 68
2, 186375, Note_on_c, 0, 94, 67
2, 186385, Note_on_c, 0, 60, 32
2, 186680, Note_on_c, 0, 60, 0
2, 186737, Note_on_c, 0, 94, 0
2, 186747, Note_on_c, 0, 87, 0
2, 186764, Note_on_c, 0, 63, 0
2, 186768, Note_on_c, 0, 53, 0
2, 186813, Note_on_c, 0, 58, 0
2, 187229, Note_on_c, 0, 63, 39
2, 187235, Note_on_c, 0, 94, 69
2, 187242, Note_on_c, 0, 87, 74
2, 187272, Note_on_c, 0, 58, 38
2, 187284, Note_on_c, 0, 60, 27
2, 187357, Note_on_c, 0, 53, 15
2, 187431, Note_on_c, 0, 94, 0
2, 187454, Note_on_c, 0, 63, 0
2, 187456, Note_on_c, 0, 60, 0
2, 187457, Note_on_c, 0, 87, 0
2, 187488, Note_on_c, 0, 58, 0
2, 187526, Note_on_c, 0, 84, 47
2, 187576, Note_on_c, 0, 92, 35
2, 187685, Note_on_c, 0, 84, 0
2, 187686, Note_on_c, 0, 53, 0
2, 187764, Note_on_c, 0, 92, 0
2, 187858, Note_on_c, 0, 63, 62
2, 187873, Note_on_c, 0, 53, 60
2, 187875, Note_on_c, 0, 87, 82
2, 187879, Note_on_c, 0, 58, 62
2, 187881, Note_on_c, 0, 94, 76
2, 187882, Note_on_c, 0, 60, 49
2, 188254, Note_on_c, 0, 58, 0
2, 188256, Note_on_c, 0, 60, 0
2, 188268, Note_on_c, 0, 53, 0
2, 188290, Note_on_c, 0, 87, 0
2, 188302, Note_on_c, 0, 63, 0
2, 188342, Note_on_c, 0, 94, 0
2, 188559, Note_on_c, 0, 94, 60
2, 188573, Note_on_c, 0, 63, 50
2, 188574, Note_on_c, 0, 87, 70
2, 188603, Note_on_c, 0, 60, 29
2, 188608, Note_on_c, 0, 53, 41
2, 188618, Note_on_c, 0, 58, 36
2, 188694, Note_on_c, 0, 63, 0
2, 188700, Note_on_c, 0, 60, 0
2, 188726, Note_on_c, 0, 94, 0
2, 188758, Note_on_c, 0, 58, 0
2, 188770, Note_on_c, 0, 87, 0
2, 188859, Note_on_c, 0, 92, 61
2, 188918, Control_c, 0, 64, 127
2, 189062, Control_c, 0, 64, 0
2, 189081, Note_on_c, 0, 92, 0
2, 189183, Note_on_c, 0, 94, 69
2, 189185, Note_on_c, 0, 87, 69
2, 189187, Note_on_c, 0, 63, 71
2, 189192, Note_on_c, 0, 92, 49
2, 189201, Note_on_c, 0, 58, 51
2, 189217, Note_on_c, 0, 84, 54
2, 189283, Note_on_c, 0, 53, 0
2, 189284, Note_on_c, 0, 84, 0
2, 189329, Note_on_c, 0, 94, 0
2, 189337, Note_on_c, 0, 58, 0
2, 189339, Note_on_c, 0, 63, 0
2, 189358, Note_on_c, 0, 87, 0
2, 189376, Note_on_c, 0, 92, 0
2, 190217, Control_c, 0, 64, 127
2, 190265, Control_c, 0, 64, 0
2, 190281, Control_c, 0, 64, 127
2, 190329, Control_c, 0, 64, 0
2, 190820, Note_on_c, 0, 63, 88
2, 190823, Note_on_c, 0, 80, 95
2, 190827, Note_on_c, 0, 67, 95
2, 190833, Note_on_c, 0, 57, 88
2, 190834, Note_on_c, 0, 86, 84
2, 190837, Note_on_c, 0, 89, 71
2, 190851, Note_on_c, 0, 93, 78
2, 190870, Note_on_c, 0, 92, 25
2, 190878, Note_on_c, 0, 91, 44
2, 190928, Note_on_c, 0, 92, 0
2, 191062, Note_on_c, 0, 81, 32
2, 191097, Note_on_c, 0, 80, 0
2, 191180, Control_c, 0, 64, 127
2, 191481, Note_on_c, 0, 81, 0
2, 191510, Note_on_c, 0, 86, 0
2, 191513, Note_on_c, 0, 89, 0
2, 191526, Note_on_c, 0, 91, 0
2, 191569, Note_on_c, 0, 93, 0
2, 191597, Note_on_c, 0, 67, 0
2, 191625, Note_on_c, 0, 63, 0
2, 191656, Note_on_c, 0, 57, 0
2, 192046, Control_c, 0, 64, 0
2, 192083, Note_on_c, 0, 60, 69
2, 192086, Note_on_c, 0, 62, 74
2, 192088, Note_on_c, 0, 55, 73
2, 192090, Note_on_c, 0, 65, 80
2, 192097, Note_on_c, 0, 96, 73
2, 192106, Note_on_c, 0, 91, 77
2, 192112, Note_on_c, 0, 84, 75
2, 192397, Note_on_c, 0, 84, 0
2, 192406, Note_on_c, 0, 55, 0
2, 192408, Note_on_c, 0, 62, 0
2, 192415, Note_on_c, 0, 65, 0
2, 192417, Note_on_c, 0, 60, 0
2, 192437, Note_on_c, 0, 91, 0
2, 192475, Note_on_c, 0, 96, 0
2, 193045, Note_on_c, 0, 60, 57
2, 193046, Note_on_c, 0, 62, 68
2, 193049, Note_on_c, 0, 65, 74
2, 193051, Note_on_c, 0, 92, 80
2, 193059, Note_on_c, 0, 98, 77
2, 193061, Note_on_c, 0, 86, 78
2, 193068, Note_on_c, 0, 55, 60
2, 193414, Note_on_c, 0, 92, 0
2, 193421, Note_on_c, 0, 93, 56
2, 193507, Note_on_c, 0, 55, 0
2, 193529, Note_on_c, 0, 86, 0
2, 193531, Note_on_c, 0, 93, 0
2, 193549, Note_on_c, 0, 98, 0
2, 193553, Note_on_c, 0, 62, 0
2, 193559, Note_on_c, 0, 60, 0
2, 193588, Note_on_c, 0, 65, 0
2, 193987, Control_c, 0, 64, 127
2, 194012, Note_on_c, 0, 92, 77
2, 194014, Note_on_c, 0, 57, 69
2, 194017, Note_on_c, 0, 98, 78
2, 194019, Note_on_c, 0, 63, 68
2, 194022, Note_on_c, 0, 86, 76
2, 194024, Note_on_c, 0, 67, 78
2, 194472, Note_on_c, 0, 92, 0
2, 194477, Note_on_c, 0, 93, 45
2, 194555, Note_on_c, 0, 93, 0
2, 194571, Note_on_c, 0, 57, 0
2, 194577, Note_on_c, 0, 98, 0
2, 194586, Note_on_c, 0, 86, 0
2, 194591, Note_on_c, 0, 67, 0
2, 194610, Note_on_c, 0, 63, 0
2, 194853, Control_c, 0, 64, 0
2, 195568, Note_on_c, 0, 62, 77
2, 195574, Note_on_c, 0, 60, 58
2, 195577, Note_on_c, 0, 65, 79
2, 195614, Note_on_c, 0, 55, 51
2, 196164, Note_on_c, 0, 72, 89
2, 196585, Control_c, 0, 64, 127
2, 196605, Note_on_c, 0, 72, 0
2, 196649, Control_c, 0, 64, 0
2, 196823, Note_on_c, 0, 74, 101
2, 196894, Note_on_c, 0, 65, 0
2, 197002, Note_on_c, 0, 62, 0
2, 197048, Note_on_c, 0, 60, 0
2, 197057, Note_on_c, 0, 55, 0
2, 197227, Control_c, 0, 64, 127
2, 197345, Note_on_c, 0, 74, 0
2, 197499, Note_on_c, 0, 74, 94
2, 197531, Control_c, 0, 64, 0
2, 198406, Note_on_c, 0, 59, 67
2, 198409, Note_on_c, 0, 63, 77
2, 198416, Note_on_c, 0, 53, 73
2, 199016, Note_on_c, 0, 74, 0
2, 199091, Note_on_c, 0, 73, 59
2, 199113, Note_on_c, 0, 59, 0
2, 199147, Note_on_c, 0, 63, 0
2, 199332, Note_on_c, 0, 73, 0
2, 199363, Note_on_c, 0, 67, 68
2, 199466, Note_on_c, 0, 67, 0
2, 199483, Note_on_c, 0, 59, 27
2, 199609, Note_on_c, 0, 53, 0
2, 199654, Note_on_c, 0, 59, 0
2, 199700, Note_on_c, 0, 62, 66
2, 199702, Note_on_c, 0, 74, 74
2, 199717, Note_on_c, 0, 67, 72
2, 199726, Note_on_c, 0, 63, 60
2, 199749, Note_on_c, 0, 70, 49
2, 199881, Note_on_c, 0, 74, 0
2, 199910, Note_on_c, 0, 67, 0
2, 199931, Note_on_c, 0, 63, 0
2, 199943, Note_on_c, 0, 70, 0
2, 200005, Note_on_c, 0, 62, 0
2, 200061, Note_on_c, 0, 61, 58
2, 200265, Note_on_c, 0, 61, 0
2, 200350, Note_on_c, 0, 72, 68
2, 200358, Note_on_c, 0, 63, 67
2, 200363, Note_on_c, 0, 67, 69
2, 200373, Note_on_c, 0, 60, 49
2, 200565, Note_on_c, 0, 67, 0
2, 200572, Note_on_c, 0, 72, 0
2, 200636, Note_on_c, 0, 60, 0
2, 200669, Note_on_c, 0, 63, 0
2, 200760, Note_on_c, 0, 55, 41
2, 200779, Note_on_c, 0, 70, 52
2, 201032, Note_on_c, 0, 60, 1
2, 201109, Note_on_c, 0, 70, 0
2, 201188, Note_on_c, 0, 60, 0
2, 201221, Control_c, 0, 64, 127
2, 201245, Note_on_c, 0, 55, 0
2, 201287, Note_on_c, 0, 48, 44
2, 201510, Control_c, 0, 64, 0
2, 201537, Note_on_c, 0, 48, 0
2, 201585, Note_on_c, 0, 60, 34
2, 201589, Note_on_c, 0, 63, 51
2, 201592, Note_on_c, 0, 55, 33
2, 201617, Note_on_c, 0, 67, 31
2, 201888, Note_on_c, 0, 67, 0
2, 202086, Note_on_c, 0, 60, 0
2, 202160, Note_on_c, 0, 63, 0
2, 202301, Note_on_c, 0, 55, 0
2, 202517, Note_on_c, 0, 61, 42
2, 202522, Note_on_c, 0, 66, 30
2, 202525, Note_on_c, 0, 58, 32
2, 202541, Note_on_c, 0, 54, 32
2, 202603, Note_on_c, 0, 63, 28
2, 202875, Note_on_c, 0, 66, 0
2, 202910, Note_on_c, 0, 61, 0
2, 202921, Control_c, 0, 64, 127
2, 202942, Note_on_c, 0, 63, 0
2, 202966, Note_on_c, 0, 58, 0
2, 203124, Note_on_c, 0, 54, 0
2, 203130, Control_c, 0, 64, 0
2, 203161, Note_on_c, 0, 60, 35
2, 203164, Note_on_c, 0, 65, 35
2, 203166, Note_on_c, 0, 57, 41
2, 203178, Note_on_c, 0, 53, 50
2, 203238, Note_on_c, 0, 62, 24
2, 203515, Control_c, 0, 64, 127
2, 203539, Note_on_c, 0, 57, 0
2, 204035, Note_on_c, 0, 60, 0
2, 204067, Note_on_c, 0, 41, 64
2, 204092, Note_on_c, 0, 62, 0
2, 204110, Note_on_c, 0, 65, 0
2, 205085, Note_on_c, 0, 48, 41
2, 205377, Note_on_c, 0, 41, 0
2, 205401, Note_on_c, 0, 48, 0
2, 205423, Note_on_c, 0, 101, 76
2, 205456, Control_c, 0, 64, 0
2, 205490, Note_on_c, 0, 53, 0
2, 205627, Note_on_c, 0, 101, 0
2, 205673, Note_on_c, 0, 98, 62
2, 205806, Note_on_c, 0, 98, 0
2, 205893, Note_on_c, 0, 99, 69
2, 206136, Note_on_c, 0, 96, 57
2, 206232, Note_on_c, 0, 99, 0
2, 206285, Note_on_c, 0, 62, 24
2, 206311, Note_on_c, 0, 96, 0
2, 206313, Note_on_c, 0, 67, 43
2, 206324, Note_on_c, 0, 63, 36
2, 206356, Note_on_c, 0, 57, 30
2, 206358, Note_on_c, 0, 95, 50
2, 206433, Note_on_c, 0, 95, 0
2, 206622, Note_on_c, 0, 93, 36
2, 206774, Note_on_c, 0, 93, 0
2, 206846, Note_on_c, 0, 91, 40
2, 206905, Note_on_c, 0, 91, 0
2, 207077, Note_on_c, 0, 57, 0
2, 207147, Note_on_c, 0, 62, 0
2, 207161, Note_on_c, 0, 63, 0
2, 207188, Note_on_c, 0, 67, 0
2, 207912, Note_on_c, 0, 62, 66
2, 207925, Note_on_c, 0, 67, 71
2, 207926, Note_on_c, 0, 63, 60
2, 207985, Note_on_c, 0, 57, 25
2, 208284, Note_on_c, 0, 101, 90
2, 208446, Note_on_c, 0, 101, 0
2, 208553, Note_on_c, 0, 98, 45
2, 208635, Note_on_c, 0, 67, 0
2, 208647, Note_on_c, 0, 98, 0
2, 208654, Note_on_c, 0, 63, 0
2, 208803, Note_on_c, 0, 99, 72
2, 208896, Note_on_c, 0, 63, 45
2, 208897, Note_on_c, 0, 67, 37
2, 209041, Note_on_c, 0, 99, 0
2, 209052, Note_on_c, 0, 67, 0
2, 209088, Note_on_c, 0, 95, 36
2, 209158, Note_on_c, 0, 95, 0
2, 209273, Note_on_c, 0, 63, 0
2, 209306, Note_on_c, 0, 98, 75
2, 209551, Note_on_c, 0, 97, 65
2, 209584, Note_on_c, 0, 98, 0
2, 209626, Note_on_c, 0, 62, 0
2, 209696, Note_on_c, 0, 97, 0
2, 209780, Note_on_c, 0, 57, 0
2, 209797, Note_on_c, 0, 96, 52
2, 209958, Note_on_c, 0, 96, 0
2, 210025, Note_on_c, 0, 67, 36
2, 210029, Note_on_c, 0, 63, 37
2, 210031, Note_on_c, 0, 94, 71
2, 210103, Note_on_c, 0, 63, 0
2, 210105, Note_on_c, 0, 67, 0
2, 210218, Note_on_c, 0, 94, 0
2, 210293, Note_on_c, 0, 91, 44
2, 210386, Note_on_c, 0, 91, 0
2, 210509, Note_on_c, 0, 89, 72
2, 210713, Note_on_c, 0, 89, 0
2, 211294, Note_on_c, 0, 89, 74
2, 211533, Note_on_c, 0, 89, 0
2, 211559, Note_on_c, 0, 86, 58
2, 211645, Note_on_c, 0, 86, 0
2, 211835, Note_on_c, 0, 62, 57
2, 211854, Note_on_c, 0, 67, 54
2, 211856, Note_on_c, 0, 63, 45
2, 211862, Note_on_c, 0, 87, 58
2, 211923, Note_on_c, 0, 67, 0
2, 211966, Note_on_c, 0, 63, 0
2, 211968, Note_on_c, 0, 62, 0
2, 212043, Note_on_c, 0, 87, 0
2, 212222, Note_on_c, 0, 77, 44
2, 212288, Note_on_c, 0, 77, 0
2, 212825, Note_on_c, 0, 62, 52
2, 212846, Note_on_c, 0, 67, 35
2, 212848, Note_on_c, 0, 63, 33
2, 212879, Note_on_c, 0, 62, 0
2, 212902, Note_on_c, 0, 63, 0
2, 212904, Note_on_c, 0, 67, 0
2, 213701, Note_on_c, 0, 67, 80
2, 213702, Note_on_c, 0, 62, 77
2, 213715, Note_on_c, 0, 63, 63
2, 213766, Note_on_c, 0, 57, 26
2, 213824, Note_on_c, 0, 67, 0
2, 213905, Note_on_c, 0, 57, 0
2, 213933, Note_on_c, 0, 62, 0
2, 213979, Note_on_c, 0, 63, 0
2, 214081, Note_on_c, 0, 76, 55
2, 214155, Note_on_c, 0, 76, 0
2, 214363, Note_on_c, 0, 77, 71
2, 214505, Note_on_c, 0, 77, 0
2, 214654, Note_on_c, 0, 79, 84
2, 214910, Note_on_c, 0, 79, 0
2, 214987, Note_on_c, 0, 65, 27
2, 214991, Note_on_c, 0, 62, 38
2, 214995, Note_on_c, 0, 77, 76
2, 215001, Note_on_c, 0, 60, 32
2, 215333, Note_on_c, 0, 77, 0
2, 215368, Note_on_c, 0, 65, 0
2, 215420, Note_on_c, 0, 79, 51
2, 215497, Note_on_c, 0, 79, 0
2, 215510, Note_on_c, 0, 77, 49
2, 215717, Note_on_c, 0, 77, 0
2, 215721, Note_on_c, 0, 74, 53
2, 215800, Note_on_c, 0, 74, 0
2, 216033, Note_on_c, 0, 53, 36
2, 216098, Note_on_c, 0, 75, 74
2, 216306, Note_on_c, 0, 60, 0
2, 216421, Note_on_c, 0, 62, 0
2, 216712, Note_on_c, 0, 73, 42
2, 216766, Note_on_c, 0, 65, 30
2, 216857, Note_on_c, 0, 75, 0
2, 216914, Note_on_c, 0, 65, 0
2, 216942, Note_on_c, 0, 73, 0
2, 216994, Control_c, 0, 64, 127
2, 217010, Control_c, 0, 64, 0
2, 217039, Note_on_c, 0, 74, 65
2, 217475, Control_c, 0, 64, 127
2, 217563, Note_on_c, 0, 74, 0
2, 217576, Note_on_c, 0, 65, 48
2, 217602, Note_on_c, 0, 69, 59
2, 217608, Note_on_c, 0, 62, 36
2, 217645, Note_on_c, 0, 60, 22
2, 217780, Control_c, 0, 64, 0
2, 218421, Control_c, 0, 64, 127
2, 218427, Note_on_c, 0, 62, 0
2, 218635, Note_on_c, 0, 62, 31
2, 218790, Note_on_c, 0, 65, 0
2, 218854, Control_c, 0, 64, 0
2, 218858, Note_on_c, 0, 62, 0
2, 218993, Note_on_c, 0, 60, 0
2, 219006, Note_on_c, 0, 53, 0
2, 219047, Control_c, 0, 64, 127
2, 219227, Note_on_c, 0, 70, 56
2, 219331, Note_on_c, 0, 69, 0
2, 219336, Control_c, 0, 64, 0
2, 219383, Note_on_c, 0, 70, 0
2, 219531, Note_on_c, 0, 72, 80
2, 219577, Note_on_c, 0, 62, 41
2, 219590, Note_on_c, 0, 60, 32
2, 219687, Note_on_c, 0, 62, 0
2, 219720, Note_on_c, 0, 60, 0
2, 219809, Note_on_c, 0, 72, 0
2, 219864, Note_on_c, 0, 65, 48
2, 220154, Note_on_c, 0, 65, 0
2, 220177, Note_on_c, 0, 67, 63
2, 220388, Note_on_c, 0, 67, 0
2, 220466, Note_on_c, 0, 69, 83
2, 220486, Note_on_c, 0, 65, 61
2, 220540, Note_on_c, 0, 62, 35
2, 220603, Note_on_c, 0, 65, 0
2, 220621, Note_on_c, 0, 62, 0
2, 221062, Note_on_c, 0, 69, 0
2, 221126, Note_on_c, 0, 70, 65
2, 221261, Control_c, 0, 64, 127
2, 221313, Note_on_c, 0, 70, 0
2, 221408, Note_on_c, 0, 72, 78
2, 221425, Note_on_c, 0, 65, 65
2, 221433, Note_on_c, 0, 62, 61
2, 221534, Control_c, 0, 64, 0
2, 221579, Note_on_c, 0, 65, 0
2, 221615, Note_on_c, 0, 62, 0
2, 221689, Note_on_c, 0, 72, 0
2, 221718, Note_on_c, 0, 74, 74
2, 221931, Note_on_c, 0, 74, 0
2, 221999, Control_c, 0, 64, 127
2, 222009, Note_on_c, 0, 75, 78
2, 222254, Note_on_c, 0, 75, 0
2, 222320, Control_c, 0, 64, 0
2, 222326, Note_on_c, 0, 63, 67
2, 222328, Note_on_c, 0, 77, 81
2, 222329, Note_on_c, 0, 67, 75
2, 222332, Note_on_c, 0, 60, 57
2, 222345, Note_on_c, 0, 56, 71
2, 222625, Control_c, 0, 64, 127
2, 222652, Note_on_c, 0, 77, 0
2, 222662, Note_on_c, 0, 79, 66
2, 222817, Note_on_c, 0, 60, 0
2, 222848, Note_on_c, 0, 67, 0
2, 222855, Note_on_c, 0, 56, 0
2, 222857, Note_on_c, 0, 79, 0
2, 222875, Note_on_c, 0, 63, 0
2, 222957, Note_on_c, 0, 80, 82
2, 223194, Note_on_c, 0, 80, 0
2, 223245, Note_on_c, 0, 82, 84
2, 223265, Note_on_c, 0, 60, 81
2, 223268, Note_on_c, 0, 63, 83
2, 223270, Note_on_c, 0, 56, 84
2, 223272, Note_on_c, 0, 67, 96
2, 223321, Note_on_c, 0, 58, 42
2, 223377, Control_c, 0, 64, 0
2, 223379, Note_on_c, 0, 58, 0
2, 223537, Note_on_c, 0, 82, 0
2, 223614, Note_on_c, 0, 84, 80
2, 223855, Note_on_c, 0, 84, 0
2, 223934, Note_on_c, 0, 86, 65
2, 224014, Note_on_c, 0, 63, 0
2, 224063, Note_on_c, 0, 67, 0
2, 224078, Note_on_c, 0, 56, 0
2, 224082, Note_on_c, 0, 60, 0
2, 224140, Note_on_c, 0, 86, 0
2, 224233, Note_on_c, 0, 60, 63
2, 224242, Note_on_c, 0, 67, 63
2, 224248, Note_on_c, 0, 56, 50
2, 224251, Note_on_c, 0, 63, 63
2, 224262, Note_on_c, 0, 87, 69
2, 224393, Note_on_c, 0, 67, 0
2, 224471, Note_on_c, 0, 63, 0
2, 224474, Note_on_c, 0, 60, 0
2, 224484, Note_on_c, 0, 56, 0
2, 224536, Note_on_c, 0, 87, 0
2, 224598, Note_on_c, 0, 56, 26
2, 224601, Note_on_c, 0, 67, 46
2, 224610, Note_on_c, 0, 63, 48
2, 224611, Note_on_c, 0, 60, 50
2, 224631, Note_on_c, 0, 89, 51
2, 225068, Note_on_c, 0, 67, 0
2, 225078, Control_c, 0, 64, 127
2, 225080, Note_on_c, 0, 63, 0
2, 225094, Note_on_c, 0, 60, 0
2, 225160, Note_on_c, 0, 56, 0
2, 225189, Note_on_c, 0, 89, 0
2, 225304, Control_c, 0, 64, 0
2, 225736, Control_c, 0, 64, 127
2, 226073, Control_c, 0, 64, 0
2, 226251, Note_on_c, 0, 67, 77
2, 226253, Note_on_c, 0, 56, 62
2, 226258, Note_on_c, 0, 63, 56
2, 226260, Note_on_c, 0, 60, 53
2, 226272, Note_on_c, 0, 91, 72
2, 226274, Note_on_c, 0, 87, 75
2, 226278, Note_on_c, 0, 79, 81
2, 226281, Control_c, 0, 64, 127
2, 226345, Note_on_c, 0, 89, 22
2, 226403, Note_on_c, 0, 89, 0
2, 226405, Note_on_c, 0, 79, 0
2, 226436, Note_on_c, 0, 91, 0
2, 226483, Note_on_c, 0, 67, 0
2, 226534, Note_on_c, 0, 56, 0
2, 226541, Note_on_c, 0, 63, 0
2, 226562, Note_on_c, 0, 87, 0
2, 226584, Note_on_c, 0, 60, 0
2, 226634, Control_c, 0, 64, 0
2, 226683, Note_on_c, 0, 67, 64
2, 226693, Note_on_c, 0, 62, 64
2, 226725, Note_on_c, 0, 56, 39
2, 226730, Note_on_c, 0, 60, 41
2, 226736, Note_on_c, 0, 87, 53
2, 226737, Note_on_c, 0, 92, 68
2, 226750, Note_on_c, 0, 80, 53
2, 226923, Control_c, 0, 64, 127
2, 227214, Note_on_c, 0, 80, 0
2, 227242, Note_on_c, 0, 87, 0
2, 227249, Note_on_c, 0, 92, 0
2, 227255, Note_on_c, 0, 60, 0
2, 227257, Note_on_c, 0, 67, 0
2, 227292, Note_on_c, 0, 62, 0
2, 227309, Note_on_c, 0, 56, 0
2, 227517, Control_c, 0, 64, 0
2, 227603, Note_on_c, 0, 62, 72
2, 227609, Note_on_c, 0, 67, 73
2, 227623, Note_on_c, 0, 56, 56
2, 227640, Note_on_c, 0, 94, 74
2, 227641, Note_on_c, 0, 87, 69
2, 227650, Note_on_c, 0, 60, 32
2, 227657, Note_on_c, 0, 82, 52
2, 227758, Control_c, 0, 64, 127
2, 227889, Note_on_c, 0, 62, 0
2, 228097, Note_on_c, 0, 60, 0
2, 228103, Note_on_c, 0, 56, 0
2, 228125, Note_on_c, 0, 87, 0
2, 228186, Note_on_c, 0, 82, 0
2, 228196, Note_on_c, 0, 94, 0
2, 228216, Note_on_c, 0, 67, 0
2, 228447, Control_c, 0, 64, 0
2, 228526, Note_on_c, 0, 64, 63
2, 228545, Note_on_c, 0, 67, 71
2, 228561, Note_on_c, 0, 56, 52
2, 228571, Note_on_c, 0, 60, 51
2, 228590, Note_on_c, 0, 95, 66
2, 228594, Note_on_c, 0, 83, 66
2, 228688, Control_c, 0, 64, 127
2, 228849, Note_on_c, 0, 95, 0
2, 228878, Note_on_c, 0, 83, 0
2, 228901, Note_on_c, 0, 64, 0
2, 228961, Note_on_c, 0, 67, 0
2, 228974, Note_on_c, 0, 60, 0
2, 228982, Note_on_c, 0, 56, 0
2, 229180, Note_on_c, 0, 60, 53
2, 229191, Note_on_c, 0, 62, 76
2, 229195, Note_on_c, 0, 96, 70
2, 229202, Note_on_c, 0, 56, 61
2, 229204, Note_on_c, 0, 84, 73
2, 229345, Note_on_c, 0, 84, 0
2, 229377, Control_c, 0, 64, 0
2, 229380, Note_on_c, 0, 96, 0
2, 229427, Note_on_c, 0, 56, 0
2, 229459, Note_on_c, 0, 60, 0
2, 229539, Note_on_c, 0, 56, 48
2, 229544, Note_on_c, 0, 66, 80
2, 229559, Note_on_c, 0, 85, 69
2, 229561, Note_on_c, 0, 97, 69
2, 229600, Note_on_c, 0, 60, 32
2, 229603, Note_on_c, 0, 91, 37
2, 229698, Control_c, 0, 64, 127
2, 229753, Note_on_c, 0, 60, 0
2, 229762, Note_on_c, 0, 91, 0
2, 229864, Note_on_c, 0, 56, 0
2, 229865, Note_on_c, 0, 97, 0
2, 229867, Note_on_c, 0, 85, 0
2, 229880, Note_on_c, 0, 66, 0
2, 230062, Note_on_c, 0, 62, 0
2, 230158, Note_on_c, 0, 66, 86
2, 230161, Note_on_c, 0, 56, 78
2, 230168, Note_on_c, 0, 62, 41
2, 230207, Note_on_c, 0, 98, 75
2, 230215, Note_on_c, 0, 86, 74
2, 230218, Note_on_c, 0, 94, 64
2, 230227, Note_on_c, 0, 91, 63
2, 230229, Note_on_c, 0, 60, 29
2, 230243, Control_c, 0, 64, 0
2, 230316, Note_on_c, 0, 60, 0
2, 230384, Note_on_c, 0, 86, 0
2, 230385, Note_on_c, 0, 91, 0
2, 230444, Note_on_c, 0, 66, 0
2, 230457, Note_on_c, 0, 94, 0
2, 230471, Note_on_c, 0, 98, 0
2, 230481, Note_on_c, 0, 56, 0
2, 230572, Note_on_c, 0, 62, 0
2, 230654, Note_on_c, 0, 62, 42
2, 230673, Note_on_c, 0, 65, 73
2, 230694, Note_on_c, 0, 55, 65
2, 230697, Note_on_c, 0, 89, 80
2, 230698, Note_on_c, 0, 101, 77
2, 230701, Note_on_c, 0, 97, 72
2, 230710, Note_on_c, 0, 60, 38
2, 230886, Control_c, 0, 64, 127
2, 230981, Note_on_c, 0, 98, 37
2, 231019, Note_on_c, 0, 97, 0
2, 231196, Note_on_c, 0, 55, 0
2, 231214, Note_on_c, 0, 60, 0
2, 231216, Note_on_c, 0, 89, 0
2, 231217, Note_on_c, 0, 101, 0
2, 231225, Note_on_c, 0, 98, 0
2, 231226, Note_on_c, 0, 65, 0
2, 231269, Note_on_c, 0, 62, 0
2, 231366, Control_c, 0, 64, 0
2, 231433, Note_on_c, 0, 65, 66
2, 231438, Note_on_c, 0, 62, 58
2, 231439, Note_on_c, 0, 60, 37
2, 231445, Note_on_c, 0, 55, 58
2, 231459, Note_on_c, 0, 99, 58
2, 231483, Note_on_c, 0, 94, 58
2, 231486, Note_on_c, 0, 87, 49
2, 231639, Control_c, 0, 64, 127
2, 231857, Note_on_c, 0, 60, 0
2, 231862, Note_on_c, 0, 55, 0
2, 231904, Note_on_c, 0, 65, 0
2, 231910, Note_on_c, 0, 99, 0
2, 231931, Note_on_c, 0, 87, 0
2, 231933, Note_on_c, 0, 94, 0
2, 231943, Note_on_c, 0, 62, 0
2, 232101, Note_on_c, 0, 65, 57
2, 232105, Note_on_c, 0, 62, 47
2, 232107, Note_on_c, 0, 99, 58
2, 232115, Note_on_c, 0, 87, 58
2, 232121, Control_c, 0, 64, 0
2, 232129, Note_on_c, 0, 60, 40
2, 232134, Note_on_c, 0, 55, 43
2, 232138, Note_on_c, 0, 94, 53
2, 232392, Control_c, 0, 64, 127
2, 232870, Note_on_c, 0, 55, 0
2, 232872, Note_on_c, 0, 60, 0
2, 232891, Note_on_c, 0, 65, 0
2, 232893, Note_on_c, 0, 62, 0
2, 232950, Note_on_c, 0, 99, 0
2, 232958, Note_on_c, 0, 87, 0
2, 232984, Note_on_c, 0, 94, 0
2, 233014, Note_on_c, 0, 65, 58
2, 233023, Note_on_c, 0, 55, 44
2, 233035, Note_on_c, 0, 62, 42
2, 233037, Note_on_c, 0, 60, 50
2, 233349, Note_on_c, 0, 62, 0
2, 233361, Note_on_c, 0, 60, 0
2, 233403, Control_c, 0, 64, 0
2, 233413, Note_on_c, 0, 65, 0
2, 233445, Note_on_c, 0, 98, 46
2, 233478, Note_on_c, 0, 55, 0
2, 233625, Note_on_c, 0, 98, 0
2, 234305, Note_on_c, 0, 98, 76
2, 234307, Note_on_c, 0, 94, 68
2, 234310, Note_on_c, 0, 89, 77
2, 234312, Note_on_c, 0, 65, 68
2, 234317, Note_on_c, 0, 58, 53
2, 234334, Note_on_c, 0, 54, 46
2, 234336, Note_on_c, 0, 60, 38
2, 234440, Note_on_c, 0, 89, 0
2, 234453, Note_on_c, 0, 65, 0
2, 234470, Note_on_c, 0, 60, 0
2, 234483, Note_on_c, 0, 94, 0
2, 234505, Note_on_c, 0, 98, 0
2, 234518, Note_on_c, 0, 58, 0
2, 234557, Note_on_c, 0, 54, 0
2, 234921, Note_on_c, 0, 65, 55
2, 234923, Note_on_c, 0, 87, 55
2, 234934, Note_on_c, 0, 92, 51
2, 234938, Note_on_c, 0, 96, 44
2, 234940, Note_on_c, 0, 54, 37
2, 234942, Note_on_c, 0, 60, 37
2, 234945, Note_on_c, 0, 58, 42
2, 235085, Note_on_c, 0, 87, 0
2, 235089, Note_on_c, 0, 65, 0
2, 235134, Note_on_c, 0, 60, 0
2, 235155, Note_on_c, 0, 96, 0
2, 235162, Note_on_c, 0, 58, 0
2, 235170, Note_on_c, 0, 54, 0
2, 235174, Note_on_c, 0, 92, 0
2, 235285, Note_on_c, 0, 65, 42
2, 235288, Note_on_c, 0, 54, 34
2, 235298, Note_on_c, 0, 60, 40
2, 235312, Note_on_c, 0, 58, 51
2, 235314, Note_on_c, 0, 94, 48
2, 235317, Note_on_c, 0, 89, 46
2, 235322, Note_on_c, 0, 98, 52
2, 235470, Note_on_c, 0, 89, 0
2, 235489, Note_on_c, 0, 98, 0
2, 235495, Note_on_c, 0, 65, 0
2, 235504, Note_on_c, 0, 60, 0
2, 235526, Note_on_c, 0, 58, 0
2, 235569, Note_on_c, 0, 94, 0
2, 235579, Note_on_c, 0, 54, 0
2, 235898, Note_on_c, 0, 65, 54
2, 235902, Note_on_c, 0, 54, 45
2, 235911, Note_on_c, 0, 87, 39
2, 235913, Note_on_c, 0, 58, 48
2, 235927, Note_on_c, 0, 92, 44
2, 235942, Note_on_c, 0, 96, 28
2, 235943, Note_on_c, 0, 60, 37
2, 236027, Note_on_c, 0, 60, 0
2, 236047, Note_on_c, 0, 65, 0
2, 236064, Note_on_c, 0, 87, 0
2, 236090, Note_on_c, 0, 58, 0
2, 236094, Note_on_c, 0, 54, 0
2, 236105, Note_on_c, 0, 96, 0
2, 236110, Note_on_c, 0, 92, 0
2, 236204, Note_on_c, 0, 65, 48
2, 236213, Note_on_c, 0, 54, 33
2, 236219, Control_c, 0, 64, 127
2, 236233, Note_on_c, 0, 60, 37
2, 236247, Note_on_c, 0, 58, 52
2, 236257, Note_on_c, 0, 98, 49
2, 236269, Note_on_c, 0, 89, 36
2, 236277, Note_on_c, 0, 94, 47
2, 236409, Note_on_c, 0, 98, 0
2, 236419, Note_on_c, 0, 89, 0
2, 236478, Note_on_c, 0, 60, 0
2, 236480, Note_on_c, 0, 65, 0
2, 236499, Note_on_c, 0, 58, 0
2, 236550, Note_on_c, 0, 94, 0
2, 236558, Note_on_c, 0, 54, 0
2, 236797, Note_on_c, 0, 99, 55
2, 236798, Note_on_c, 0, 65, 69
2, 236800, Note_on_c, 0, 54, 55
2, 236823, Note_on_c, 0, 90, 48
2, 236825, Note_on_c, 0, 58, 49
2, 236828, Note_on_c, 0, 60, 41
2, 236926, Note_on_c, 0, 65, 0
2, 236959, Note_on_c, 0, 99, 0
2, 236972, Control_c, 0, 64, 0
2, 236974, Note_on_c, 0, 60, 0
2, 236980, Note_on_c, 0, 58, 0
2, 237022, Note_on_c, 0, 54, 0
2, 237038, Note_on_c, 0, 90, 0
2, 237113, Note_on_c, 0, 54, 20
2, 237122, Note_on_c, 0, 65, 40
2, 237137, Note_on_c, 0, 60, 40
2, 237147, Note_on_c, 0, 58, 51
2, 237166, Note_on_c, 0, 98, 50
2, 237172, Note_on_c, 0, 94, 33
2, 237174, Note_on_c, 0, 89, 41
2, 237229, Control_c, 0, 64, 127
2, 237313, Note_on_c, 0, 89, 0
2, 237395, Note_on_c, 0, 65, 0
2, 237409, Note_on_c, 0, 98, 0
2, 237411, Note_on_c, 0, 60, 0
2, 237412, Note_on_c, 0, 58, 0
2, 237485, Note_on_c, 0, 94, 0
2, 237546, Note_on_c, 0, 54, 0
2, 237766, Note_on_c, 0, 97, 62
2, 237769, Note_on_c, 0, 54, 62
2, 237774, Note_on_c, 0, 65, 66
2, 237775, Note_on_c, 0, 58, 59
2, 237782, Note_on_c, 0, 92, 48
2, 237798, Note_on_c, 0, 85, 37
2, 237800, Note_on_c, 0, 60, 40
2, 237854, Note_on_c, 0, 85, 0
2, 237864, Note_on_c, 0, 65, 0
2, 237877, Note_on_c, 0, 60, 0
2, 237881, Note_on_c, 0, 92, 0
2, 237902, Control_c, 0, 64, 0
2, 237912, Note_on_c, 0, 97, 0
2, 237934, Note_on_c, 0, 58, 0
2, 237991, Note_on_c, 0, 54, 0
2, 238716, Note_on_c, 0, 60, 66
2, 238718, Note_on_c, 0, 64, 81
2, 238723, Note_on_c, 0, 98, 73
2, 238728, Note_on_c, 0, 53, 77
2, 238731, Note_on_c, 0, 57, 68
2, 238736, Note_on_c, 0, 89, 77
2, 238738, Note_on_c, 0, 86, 79
2, 238744, Note_on_c, 0, 93, 71
2, 238939, Note_on_c, 0, 64, 0
2, 238960, Note_on_c, 0, 86, 0
2, 238992, Note_on_c, 0, 89, 0
2, 238998, Note_on_c, 0, 60, 0
2, 239003, Note_on_c, 0, 57, 0
2, 239008, Note_on_c, 0, 93, 0
2, 239024, Note_on_c, 0, 98, 0
2, 239089, Control_c, 0, 64, 127
2, 239092, Note_on_c, 0, 64, 50
2, 239094, Note_on_c, 0, 60, 48
2, 239104, Note_on_c, 0, 57, 60
2, 239135, Note_on_c, 0, 89, 55
2, 239143, Note_on_c, 0, 98, 53
2, 239145, Note_on_c, 0, 86, 46
2, 239153, Note_on_c, 0, 93, 53
2, 239293, Note_on_c, 0, 89, 0
2, 239310, Note_on_c, 0, 86, 0
2, 239349, Note_on_c, 0, 93, 0
2, 239390, Note_on_c, 0, 60, 0
2, 239421, Note_on_c, 0, 98, 0
2, 239438, Note_on_c, 0, 64, 0
2, 239448, Note_on_c, 0, 57, 0
2, 239483, Note_on_c, 0, 53, 0
2, 239539, Control_c, 0, 64, 0
2, 239713, Note_on_c, 0, 89, 84
2, 239718, Note_on_c, 0, 97, 77
2, 239725, Note_on_c, 0, 101, 73
2, 239726, Note_on_c, 0, 59, 81
2, 239729, Note_on_c, 0, 64, 82
2, 239736, Note_on_c, 0, 53, 81
2, 239737, Note_on_c, 0, 57, 71
2, 240010, Note_on_c, 0, 57, 0
2, 240021, Note_on_c, 0, 98, 44
2, 240023, Note_on_c, 0, 89, 0
2, 240040, Note_on_c, 0, 97, 0
2, 240049, Note_on_c, 0, 64, 0
2, 240065, Note_on_c, 0, 53, 0
2, 240083, Note_on_c, 0, 98, 0
2, 240097, Note_on_c, 0, 101, 0
2, 240102, Note_on_c, 0, 59, 0
2, 240298, Note_on_c, 0, 64, 73
2, 240302, Note_on_c, 0, 97, 73
2, 240304, Note_on_c, 0, 53, 75
2, 240307, Note_on_c, 0, 59, 68
2, 240317, Note_on_c, 0, 89, 69
2, 240318, Note_on_c, 0, 101, 74
2, 240334, Note_on_c, 0, 57, 50
2, 240342, Control_c, 0, 64, 127
2, 240402, Note_on_c, 0, 57, 0
2, 240563, Note_on_c, 0, 98, 55
2, 240598, Note_on_c, 0, 97, 0
2, 240623, Note_on_c, 0, 100, 18
2, 240654, Note_on_c, 0, 98, 0
2, 240675, Note_on_c, 0, 89, 0
2, 240694, Note_on_c, 0, 53, 0
2, 240697, Note_on_c, 0, 64, 0
2, 240701, Note_on_c, 0, 101, 0
2, 240725, Note_on_c, 0, 100, 0
2, 240758, Note_on_c, 0, 59, 0
2, 240806, Control_c, 0, 64, 0
2, 240954, Note_on_c, 0, 53, 64
2, 240969, Note_on_c, 0, 59, 58
2, 240974, Note_on_c, 0, 64, 62
2, 240976, Note_on_c, 0, 98, 68
2, 240993, Note_on_c, 0, 57, 51
2, 241005, Note_on_c, 0, 86, 64
2, 241032, Control_c, 0, 64, 127
2, 241066, Note_on_c, 0, 57, 0
2, 241145, Note_on_c, 0, 53, 0
2, 241165, Note_on_c, 0, 59, 0
2, 241225, Note_on_c, 0, 98, 0
2, 241251, Note_on_c, 0, 64, 0
2, 241357, Note_on_c, 0, 86, 0
2, 241641, Control_c, 0, 64, 0
2, 241652, Note_on_c, 0, 90, 61
2, 241654, Note_on_c, 0, 96, 62
2, 241658, Note_on_c, 0, 84, 58
2, 241664, Note_on_c, 0, 67, 64
2, 241665, Note_on_c, 0, 58, 59
2, 241668, Note_on_c, 0, 62, 67
2, 241673, Note_on_c, 0, 63, 58
2, 241790, Note_on_c, 0, 90, 0
2, 241824, Note_on_c, 0, 91, 37
2, 241977, Control_c, 0, 64, 127
2, 242600, Note_on_c, 0, 91, 0
2, 242630, Note_on_c, 0, 84, 0
2, 242697, Note_on_c, 0, 67, 0
2, 242736, Note_on_c, 0, 63, 0
2, 242744, Note_on_c, 0, 62, 0
2, 242753, Note_on_c, 0, 58, 0
2, 242760, Note_on_c, 0, 96, 0
2, 242861, Control_c, 0, 64, 0
2, 242913, Note_on_c, 0, 91, 50
2, 242917, Note_on_c, 0, 58, 46
2, 242918, Note_on_c, 0, 67, 51
2, 242931, Note_on_c, 0, 63, 42
2, 242950, Note_on_c, 0, 62, 45
2, 243101, Control_c, 0, 64, 127
2, 243309, Note_on_c, 0, 91, 0
2, 243334, Note_on_c, 0, 62, 0
2, 243361, Note_on_c, 0, 67, 0
2, 243459, Note_on_c, 0, 63, 0
2, 243573, Note_on_c, 0, 58, 0
2, 243854, Control_c, 0, 64, 0
2, 243892, Note_on_c, 0, 66, 47
2, 243904, Note_on_c, 0, 61, 38
2, 243910, Note_on_c, 0, 63, 38
2, 243931, Note_on_c, 0, 57, 36
2, 244321, Note_on_c, 0, 61, 0
2, 244323, Note_on_c, 0, 63, 0
2, 244336, Control_c, 0, 64, 127
2, 244347, Note_on_c, 0, 57, 0
2, 244445, Note_on_c, 0, 66, 0
2, 244559, Note_on_c, 0, 66, 63
2, 244562, Note_on_c, 0, 97, 57
2, 244576, Control_c, 0, 64, 0
2, 244593, Note_on_c, 0, 63, 43
2, 244597, Note_on_c, 0, 61, 47
2, 244598, Note_on_c, 0, 57, 36
2, 244787, Note_on_c, 0, 61, 0
2, 244789, Note_on_c, 0, 97, 0
2, 244795, Note_on_c, 0, 63, 0
2, 244801, Note_on_c, 0, 66, 0
2, 244881, Control_c, 0, 64, 127
2, 244936, Note_on_c, 0, 66, 37
2, 244954, Note_on_c, 0, 94, 43
2, 245012, Note_on_c, 0, 61, 29
2, 245036, Note_on_c, 0, 63, 21
2, 245223, Note_on_c, 0, 57, 0
2, 245329, Note_on_c, 0, 66, 0
2, 245397, Note_on_c, 0, 63, 0
2, 245406, Note_on_c, 0, 61, 0
2, 245412, Note_on_c, 0, 94, 0
2, 245501, Note_on_c, 0, 62, 63
2, 245510, Note_on_c, 0, 65, 62
2, 245515, Note_on_c, 0, 96, 74
2, 245518, Note_on_c, 0, 60, 48
2, 245529, Note_on_c, 0, 84, 65
2, 245571, Note_on_c, 0, 55, 38
2, 245587, Control_c, 0, 64, 0
2, 245908, Control_c, 0, 64, 127
2, 246121, Note_on_c, 0, 60, 0
2, 246129, Note_on_c, 0, 55, 0
2, 246156, Note_on_c, 0, 62, 0
2, 246173, Note_on_c, 0, 65, 0
2, 246366, Note_on_c, 0, 84, 0
2, 246446, Note_on_c, 0, 94, 71
2, 246462, Note_on_c, 0, 65, 73
2, 246463, Note_on_c, 0, 96, 0
2, 246467, Note_on_c, 0, 62, 65
2, 246471, Control_c, 0, 64, 0
2, 246473, Note_on_c, 0, 60, 52
2, 246486, Note_on_c, 0, 55, 61
2, 246636, Note_on_c, 0, 94, 0
2, 246758, Control_c, 0, 64, 127
2, 247152, Note_on_c, 0, 62, 0
2, 247193, Note_on_c, 0, 60, 0
2, 247196, Note_on_c, 0, 106, 86
2, 247208, Note_on_c, 0, 65, 0
2, 247336, Note_on_c, 0, 55, 0
2, 247382, Note_on_c, 0, 106, 0
2, 247488, Note_on_c, 0, 104, 65
2, 247661, Note_on_c, 0, 104, 0
2, 247688, Control_c, 0, 64, 0
2, 247761, Note_on_c, 0, 106, 83
2, 247797, Note_on_c, 0, 59, 49
2, 247809, Note_on_c, 0, 64, 43
2, 247822, Note_on_c, 0, 53, 49
2, 247942, Note_on_c, 0, 106, 0
2, 248056, Note_on_c, 0, 104, 69
2, 248302, Note_on_c, 0, 99, 63
2, 248438, Note_on_c, 0, 104, 0
2, 248522, Note_on_c, 0, 99, 0
2, 248545, Note_on_c, 0, 95, 55
2, 248737, Note_on_c, 0, 95, 0
2, 248813, Note_on_c, 0, 94, 67
2, 248866, Note_on_c, 0, 53, 0
2, 248896, Note_on_c, 0, 59, 0
2, 249057, Note_on_c, 0, 64, 0
2, 249089, Note_on_c, 0, 94, 0
2, 249096, Note_on_c, 0, 93, 62
2, 249274, Note_on_c, 0, 93, 0
2, 249353, Note_on_c, 0, 92, 59
2, 249550, Note_on_c, 0, 92, 0
2, 249605, Note_on_c, 0, 91, 55
2, 249643, Note_on_c, 0, 67, 33
2, 249648, Note_on_c, 0, 63, 44
2, 249662, Note_on_c, 0, 58, 37
2, 249701, Note_on_c, 0, 62, 20
2, 249778, Note_on_c, 0, 91, 0
2, 249961, Note_on_c, 0, 89, 70
2, 250150, Note_on_c, 0, 63, 0
2, 250265, Note_on_c, 0, 89, 0
2, 250345, Note_on_c, 0, 63, 46
2, 250573, Note_on_c, 0, 87, 67
2, 250595, Note_on_c, 0, 62, 0
2, 250607, Control_c, 0, 64, 127
2, 250616, Note_on_c, 0, 67, 0
2, 250888, Note_on_c, 0, 58, 0
2, 250985, Note_on_c, 0, 63, 0
2, 250998, Note_on_c, 0, 87, 0
2, 251227, Note_on_c, 0, 86, 67
2, 251229, Note_on_c, 0, 66, 50
2, 251234, Note_on_c, 0, 57, 44
2, 251246, Note_on_c, 0, 63, 48
2, 251249, Control_c, 0, 64, 0
2, 251255, Note_on_c, 0, 61, 48
2, 251634, Control_c, 0, 64, 127
2, 251762, Control_c, 0, 64, 0
2, 251798, Note_on_c, 0, 86, 0
2, 251832, Note_on_c, 0, 63, 0
2, 251841, Note_on_c, 0, 61, 0
2, 251941, Note_on_c, 0, 87, 71
2, 252003, Control_c, 0, 64, 127
2, 252059, Note_on_c, 0, 66, 0
2, 252139, Note_on_c, 0, 87, 0
2, 252305, Note_on_c, 0, 88, 34
2, 252518, Note_on_c, 0, 66, 49
2, 252520, Note_on_c, 0, 61, 53
2, 252542, Note_on_c, 0, 63, 50
2, 252581, Control_c, 0, 64, 0
2, 252744, Note_on_c, 0, 89, 68
2, 252748, Note_on_c, 0, 88, 0
2, 252889, Note_on_c, 0, 66, 0
2, 252951, Note_on_c, 0, 57, 0
2, 252962, Note_on_c, 0, 89, 0
2, 253024, Note_on_c, 0, 83, 30
2, 253104, Note_on_c, 0, 83, 0
2, 253265, Note_on_c, 0, 82, 67
2, 253426, Note_on_c, 0, 61, 0
2, 253439, Note_on_c, 0, 63, 0
2, 253501, Note_on_c, 0, 82, 0
2, 253557, Note_on_c, 0, 62, 40
2, 253598, Note_on_c, 0, 65, 32
2, 253602, Note_on_c, 0, 60, 24
2, 253648, Note_on_c, 0, 84, 47
2, 253771, Note_on_c, 0, 84, 0
2, 254041, Note_on_c, 0, 62, 0
2, 254088, Note_on_c, 0, 55, 1
2, 254186, Note_on_c, 0, 81, 69
2, 254216, Note_on_c, 0, 62, 33
2, 254350, Note_on_c, 0, 81, 0
2, 254465, Note_on_c, 0, 65, 0
2, 254547, Note_on_c, 0, 82, 56
2, 254654, Note_on_c, 0, 82, 0
2, 254672, Note_on_c, 0, 62, 0
2, 254720, Note_on_c, 0, 60, 0
2, 254776, Note_on_c, 0, 55, 0
2, 255127, Note_on_c, 0, 81, 82
2, 255168, Note_on_c, 0, 65, 46
2, 255224, Note_on_c, 0, 62, 27
2, 255265, Note_on_c, 0, 65, 0
2, 255292, Note_on_c, 0, 62, 0
2, 255349, Note_on_c, 0, 81, 0
2, 255518, Note_on_c, 0, 77, 57
2, 255673, Note_on_c, 0, 77, 0
2, 256053, Note_on_c, 0, 74, 68
2, 256071, Note_on_c, 0, 65, 40
2, 256080, Note_on_c, 0, 62, 46
2, 256091, Note_on_c, 0, 60, 32
2, 256169, Note_on_c, 0, 65, 0
2, 256211, Note_on_c, 0, 74, 0
2, 256328, Note_on_c, 0, 60, 0
2, 256353, Note_on_c, 0, 62, 0
2, 256454, Note_on_c, 0, 70, 37
2, 257008, Note_on_c, 0, 70, 0
2, 257017, Note_on_c, 0, 69, 47
2, 257080, Note_on_c, 0, 69, 0
2, 257310, Note_on_c, 0, 72, 82
2, 257966, Note_on_c, 0, 69, 46
2, 257985, Note_on_c, 0, 65, 50
2, 257993, Note_on_c, 0, 62, 49
2, 258048, Note_on_c, 0, 65, 0
2, 258069, Note_on_c, 0, 69, 0
2, 258074, Note_on_c, 0, 62, 0
2, 258099, Note_on_c, 0, 72, 0
2, 258236, Note_on_c, 0, 70, 64
2, 258789, Control_c, 0, 64, 127
2, 258861, Note_on_c, 0, 62, 80
2, 258886, Control_c, 0, 64, 0
2, 259025, Note_on_c, 0, 70, 0
2, 259318, Control_c, 0, 64, 127
2, 259874, Note_on_c, 0, 58, 59
2, 259976, Note_on_c, 0, 58, 0
2, 260120, Control_c, 0, 64, 0
2, 260551, Note_on_c, 0, 63, 50
2, 260686, Note_on_c, 0, 62, 0
2, 260755, Note_on_c, 0, 63, 0
2, 260840, Note_on_c, 0, 65, 76
2, 261120, Note_on_c, 0, 65, 0
2, 261222, Note_on_c, 0, 62, 30
2, 261992, Note_on_c, 0, 62, 0
2, 262115, Note_on_c, 0, 63, 74
2, 263184, Control_c, 0, 64, 127
2, 263280, Control_c, 0, 64, 0
2, 263489, Control_c, 0, 64, 127
2, 263819, Note_on_c, 0, 63, 0
2, 263906, Control_c, 0, 64, 0
2, 264001, Note_on_c, 0, 63, 78
2, 264640, Note_on_c, 0, 63, 0
2, 264697, Note_on_c, 0, 62, 39
2, 264842, Note_on_c, 0, 62, 0
2, 264953, Note_on_c, 0, 63, 60
2, 265414, Control_c, 0, 64, 127
2, 265515, Note_on_c, 0, 63, 0
2, 265613, Note_on_c, 0, 63, 75
2, 265638, Control_c, 0, 64, 0
2, 265749, Note_on_c, 0, 63, 0
2, 266609, Note_on_c, 0, 63, 88
2, 267339, Note_on_c, 0, 63, 0
2, 267433, Note_on_c, 0, 65, 31
2, 267494, Note_on_c, 0, 63, 44
2, 267561, Note_on_c, 0, 65, 0
2, 267686, Note_on_c, 0, 62, 66
2, 267710, Note_on_c, 0, 63, 0
2, 267799, Note_on_c, 0, 62, 0
2, 267921, Note_on_c, 0, 63, 86
2, 268472, Note_on_c, 0, 63, 0
2, 268557, Note_on_c, 0, 65, 53
2, 268616, Note_on_c, 0, 63, 54
2, 268697, Note_on_c, 0, 65, 0
2, 268844, Note_on_c, 0, 63, 0
2, 268853, Note_on_c, 0, 62, 38
2, 269448, Note_on_c, 0, 62, 0
2, 269472, Note_on_c, 0, 63, 67
2, 269689, Note_on_c, 0, 63, 0
2, 269806, Note_on_c, 0, 65, 44
2, 269857, Control_c, 0, 64, 127
2, 269889, Control_c, 0, 64, 0
2, 270146, Control_c, 0, 64, 127
2, 270292, Note_on_c, 0, 65, 0
2, 270401, Note_on_c, 0, 69, 74
2, 270457, Note_on_c, 0, 62, 47
2, 270521, Note_on_c, 0, 62, 0
2, 270558, Note_on_c, 0, 69, 0
2, 270643, Control_c, 0, 64, 0
2, 270709, Note_on_c, 0, 72, 96
2, 271173, Control_c, 0, 64, 127
2, 271250, Note_on_c, 0, 72, 0
2, 271398, Control_c, 0, 64, 0
2, 271670, Control_c, 0, 64, 127
2, 271671, Note_on_c, 0, 70, 57
2, 272139, Note_on_c, 0, 70, 0
2, 272267, Note_on_c, 0, 65, 60
2, 272272, Note_on_c, 0, 74, 60
2, 272333, Note_on_c, 0, 65, 0
2, 272430, Note_on_c, 0, 74, 0
2, 272569, Control_c, 0, 64, 0
2, 273575, Note_on_c, 0, 67, 80
2, 273579, Note_on_c, 0, 58, 78
2, 273584, Note_on_c, 0, 63, 67
2, 273585, Note_on_c, 0, 62, 74
2, 273981, Note_on_c, 0, 67, 0
2, 274010, Note_on_c, 0, 62, 0
2, 274093, Note_on_c, 0, 58, 0
2, 274094, Note_on_c, 0, 63, 0
2, 274261, Note_on_c, 0, 57, 78
2, 274265, Note_on_c, 0, 82, 71
2, 274266, Note_on_c, 0, 86, 77
2, 274270, Note_on_c, 0, 67, 90
2, 274275, Note_on_c, 0, 79, 74
2, 274277, Note_on_c, 0, 63, 79
2, 274279, Note_on_c, 0, 74, 81
2, 274329, Note_on_c, 0, 84, 31
2, 274393, Note_on_c, 0, 84, 0
2, 274459, Note_on_c, 0, 74, 0
2, 274489, Note_on_c, 0, 79, 0
2, 274555, Note_on_c, 0, 67, 0
2, 274557, Note_on_c, 0, 82, 0
2, 274569, Note_on_c, 0, 86, 0
2, 274593, Note_on_c, 0, 57, 0
2, 274681, Note_on_c, 0, 63, 0
2, 274791, Note_on_c, 0, 57, 52
2, 274798, Note_on_c, 0, 63, 68
2, 274808, Note_on_c, 0, 67, 78
2, 274816, Note_on_c, 0, 85, 76
2, 274817, Note_on_c, 0, 77, 80
2, 274820, Note_on_c, 0, 89, 80
2, 274902, Control_c, 0, 64, 127
2, 275126, Note_on_c, 0, 86, 55
2, 275168, Note_on_c, 0, 85, 0
2, 275189, Note_on_c, 0, 86, 0
2, 275222, Note_on_c, 0, 67, 0
2, 275239, Note_on_c, 0, 89, 0
2, 275252, Note_on_c, 0, 57, 0
2, 275254, Note_on_c, 0, 77, 0
2, 275345, Note_on_c, 0, 63, 0
2, 275448, Control_c, 0, 64, 0
2, 275518, Note_on_c, 0, 66, 63
2, 275520, Note_on_c, 0, 56, 67
2, 275526, Note_on_c, 0, 86, 67
2, 275532, Note_on_c, 0, 63, 49
2, 275534, Note_on_c, 0, 61, 53
2, 275535, Note_on_c, 0, 80, 67
2, 275548, Note_on_c, 0, 74, 64
2, 275757, Note_on_c, 0, 80, 0
2, 275769, Control_c, 0, 64, 127
2, 275958, Note_on_c, 0, 86, 0
2, 275967, Note_on_c, 0, 63, 0
2, 275982, Note_on_c, 0, 66, 0
2, 275991, Note_on_c, 0, 74, 0
2, 275993, Note_on_c, 0, 61, 0
2, 276045, Note_on_c, 0, 56, 0
2, 276193, Note_on_c, 0, 62, 58
2, 276195, Note_on_c, 0, 84, 67
2, 276201, Control_c, 0, 64, 0
2, 276217, Note_on_c, 0, 77, 54
2, 276221, Note_on_c, 0, 72, 48
2, 276222, Note_on_c, 0, 60, 46
2, 276225, Note_on_c, 0, 65, 54
2, 276231, Note_on_c, 0, 78, 33
2, 276240, Note_on_c, 0, 55, 52
2, 276251, Note_on_c, 0, 81, 40
2, 276538, Control_c, 0, 64, 127
2, 276669, Note_on_c, 0, 78, 0
2, 276856, Note_on_c, 0, 84, 0
2, 276877, Note_on_c, 0, 81, 0
2, 276945, Note_on_c, 0, 72, 0
2, 277086, Note_on_c, 0, 77, 0
2, 277101, Note_on_c, 0, 55, 0
2, 277103, Note_on_c, 0, 60, 0
2, 277125, Note_on_c, 0, 65, 0
2, 277200, Note_on_c, 0, 65, 49
2, 277211, Note_on_c, 0, 82, 69
2, 277238, Note_on_c, 0, 60, 49
2, 277240, Note_on_c, 0, 55, 55
2, 277242, Note_on_c, 0, 77, 62
2, 277245, Note_on_c, 0, 70, 58
2, 277376, Control_c, 0, 64, 0
2, 277464, Note_on_c, 0, 77, 0
2, 277509, Note_on_c, 0, 70, 0
2, 277553, Note_on_c, 0, 82, 0
2, 277624, Note_on_c, 0, 71, 32
2, 277673, Note_on_c, 0, 81, 53
2, 277887, Note_on_c, 0, 81, 0
2, 277952, Note_on_c, 0, 71, 0
2, 277985, Control_c, 0, 64, 127
2, 278000, Note_on_c, 0, 55, 0
2, 278019, Note_on_c, 0, 60, 0
2, 278022, Note_on_c, 0, 65, 0
2, 278083, Note_on_c, 0, 62, 0
2, 278197, Note_on_c, 0, 65, 57
2, 278201, Note_on_c, 0, 82, 60
2, 278205, Note_on_c, 0, 60, 36
2, 278207, Note_on_c, 0, 62, 44
2, 278211, Control_c, 0, 64, 0
2, 278213, Note_on_c, 0, 55, 44
2, 278233, Note_on_c, 0, 70, 50
2, 278244, Note_on_c, 0, 76, 65
2, 278531, Control_c, 0, 64, 127
2, 278596, Note_on_c, 0, 76, 0
2, 278643, Note_on_c, 0, 82, 0
2, 278691, Note_on_c, 0, 70, 0
2, 278745, Note_on_c, 0, 65, 0
2, 278838, Note_on_c, 0, 60, 0
2, 278846, Note_on_c, 0, 62, 0
2, 278860, Note_on_c, 0, 55, 0
2, 279128, Note_on_c, 0, 77, 60
2, 279142, Note_on_c, 0, 72, 63
2, 279150, Note_on_c, 0, 65, 57
2, 279154, Note_on_c, 0, 62, 51
2, 279162, Note_on_c, 0, 60, 46
2, 279164, Note_on_c, 0, 55, 40
2, 279189, Control_c, 0, 64, 0
2, 279243, Note_on_c, 0, 62, 0
2, 279278, Note_on_c, 0, 60, 0
2, 279350, Note_on_c, 0, 55, 0
2, 280049, Note_on_c, 0, 52, 82
2, 280317, Note_on_c, 0, 52, 0
2, 280353, Note_on_c, 0, 65, 0
2, 280438, Note_on_c, 0, 72, 0
2, 280643, Note_on_c, 0, 77, 0
2, 281227, Note_on_c, 0, 65, 44
2, 281228, Note_on_c, 0, 62, 35
2, 281245, Note_on_c, 0, 60, 30
2, 281329, Note_on_c, 0, 55, 18
2, 281689, Note_on_c, 0, 55, 0
2, 281710, Note_on_c, 0, 60, 0
2, 281729, Note_on_c, 0, 65, 0
2, 281785, Note_on_c, 0, 62, 0
2, 281905, Note_on_c, 0, 65, 62
2, 281916, Note_on_c, 0, 62, 49
2, 281936, Note_on_c, 0, 60, 38
2, 281943, Note_on_c, 0, 55, 52
2, 282102, Note_on_c, 0, 65, 0
2, 282133, Note_on_c, 0, 60, 0
2, 282135, Note_on_c, 0, 55, 0
2, 282151, Note_on_c, 0, 62, 0
2, 282259, Note_on_c, 0, 65, 38
2, 282265, Note_on_c, 0, 62, 33
2, 282270, Note_on_c, 0, 55, 28
2, 282285, Note_on_c, 0, 60, 36
2, 282436, Control_c, 0, 64, 127
2, 282631, Note_on_c, 0, 60, 0
2, 282632, Note_on_c, 0, 65, 0
2, 282682, Note_on_c, 0, 55, 0
2, 282683, Note_on_c, 0, 62, 0
2, 282865, Note_on_c, 0, 62, 54
2, 282868, Note_on_c, 0, 65, 64
2, 282869, Note_on_c, 0, 55, 42
2, 282893, Control_c, 0, 64, 0
2, 282898, Note_on_c, 0, 60, 42
2, 283168, Control_c, 0, 64, 127
2, 283527, Note_on_c, 0, 62, 0
2, 283583, Note_on_c, 0, 55, 0
2, 283622, Note_on_c, 0, 60, 0
2, 283655, Note_on_c, 0, 65, 0
2, 284127, Note_on_c, 0, 63, 42
2, 284130, Note_on_c, 0, 67, 40
2, 284143, Control_c, 0, 64, 0
2, 284145, Note_on_c, 0, 60, 33
2, 284179, Note_on_c, 0, 56, 30
2, 285132, Note_on_c, 0, 63, 0
2, 285138, Note_on_c, 0, 67, 0
2, 285165, Note_on_c, 0, 64, 60
2, 285304, Note_on_c, 0, 64, 0
2, 285465, Note_on_c, 0, 65, 70
2, 285664, Note_on_c, 0, 65, 0
2, 285782, Note_on_c, 0, 67, 95
2, 285809, Note_on_c, 0, 63, 55
2, 286054, Note_on_c, 0, 67, 0
2, 286149, Note_on_c, 0, 68, 76
2, 286237, Note_on_c, 0, 63, 0
2, 286402, Note_on_c, 0, 68, 0
2, 286461, Note_on_c, 0, 65, 33
2, 286626, Note_on_c, 0, 65, 0
2, 286737, Note_on_c, 0, 63, 37
2, 286749, Note_on_c, 0, 67, 57
2, 286939, Note_on_c, 0, 67, 0
2, 287084, Note_on_c, 0, 68, 63
2, 287205, Note_on_c, 0, 60, 0
2, 287298, Note_on_c, 0, 68, 0
2, 287311, Note_on_c, 0, 63, 0
2, 287432, Note_on_c, 0, 70, 62
2, 287626, Note_on_c, 0, 70, 0
2, 287691, Note_on_c, 0, 63, 57
2, 287705, Note_on_c, 0, 67, 57
2, 287714, Note_on_c, 0, 60, 51
2, 287740, Note_on_c, 0, 72, 58
2, 287790, Note_on_c, 0, 67, 0
2, 287817, Note_on_c, 0, 72, 0
2, 288076, Note_on_c, 0, 63, 0
2, 288188, Note_on_c, 0, 67, 44
2, 288190, Note_on_c, 0, 56, 0
2, 288325, Note_on_c, 0, 67, 0
2, 288442, Note_on_c, 0, 60, 0
2, 288492, Note_on_c, 0, 68, 77
2, 288728, Note_on_c, 0, 68, 0
2, 288822, Note_on_c, 0, 56, 37
2, 288834, Note_on_c, 0, 70, 69
2, 288843, Note_on_c, 0, 62, 32
2, 289029, Note_on_c, 0, 70, 0
2, 289120, Note_on_c, 0, 72, 40
2, 289271, Note_on_c, 0, 72, 0
2, 289411, Note_on_c, 0, 74, 64
2, 289435, Note_on_c, 0, 56, 0
2, 289574, Note_on_c, 0, 74, 0
2, 289725, Note_on_c, 0, 66, 51
2, 289750, Note_on_c, 0, 75, 43
2, 289752, Note_on_c, 0, 56, 43
2, 289801, Note_on_c, 0, 75, 0
2, 289848, Note_on_c, 0, 66, 0
2, 289870, Note_on_c, 0, 62, 0
2, 289932, Note_on_c, 0, 56, 0
2, 290148, Note_on_c, 0, 69, 47
2, 290304, Note_on_c, 0, 69, 0
2, 290430, Note_on_c, 0, 70, 77
2, 290637, Note_on_c, 0, 70, 0
2, 290741, Note_on_c, 0, 66, 51
2, 290742, Note_on_c, 0, 72, 64
2, 290760, Note_on_c, 0, 62, 17
2, 290766, Note_on_c, 0, 56, 53
2, 290927, Note_on_c, 0, 72, 0
2, 291058, Note_on_c, 0, 74, 52
2, 291265, Note_on_c, 0, 74, 0
2, 291356, Note_on_c, 0, 75, 64
2, 291412, Note_on_c, 0, 66, 0
2, 291505, Note_on_c, 0, 75, 0
2, 291616, Note_on_c, 0, 62, 0
2, 291625, Note_on_c, 0, 76, 95
2, 291627, Note_on_c, 0, 56, 0
2, 291836, Note_on_c, 0, 62, 20
2, 291853, Note_on_c, 0, 76, 0
2, 291869, Note_on_c, 0, 65, 26
2, 291928, Note_on_c, 0, 55, 26
2, 291954, Note_on_c, 0, 77, 81
2, 292384, Note_on_c, 0, 77, 0
2, 292492, Note_on_c, 0, 74, 72
2, 292682, Note_on_c, 0, 65, 0
2, 292745, Note_on_c, 0, 74, 0
2, 292866, Note_on_c, 0, 70, 43
2, 293122, Note_on_c, 0, 55, 0
2, 293242, Note_on_c, 0, 62, 0
2, 293371, Note_on_c, 0, 70, 0
2, 293484, Note_on_c, 0, 67, 37
2, 293551, Note_on_c, 0, 62, 20
2, 293581, Note_on_c, 0, 65, 22
2, 293582, Note_on_c, 0, 67, 0
2, 293679, Note_on_c, 0, 65, 0
2, 293758, Note_on_c, 0, 65, 19
2, 293782, Note_on_c, 0, 55, 1
2, 293800, Note_on_c, 0, 70, 42
2, 293866, Control_c, 0, 64, 127
2, 293925, Note_on_c, 0, 65, 0
2, 293971, Note_on_c, 0, 55, 0
2, 293994, Note_on_c, 0, 62, 0
2, 294050, Note_on_c, 0, 70, 0
2, 294456, Note_on_c, 0, 65, 44
2, 294469, Note_on_c, 0, 62, 45
2, 294503, Note_on_c, 0, 60, 38
2, 294522, Note_on_c, 0, 55, 32
2, 294627, Control_c, 0, 64, 0
2, 294816, Note_on_c, 0, 72, 34
2, 294871, Control_c, 0, 64, 127
2, 294887, Note_on_c, 0, 60, 0
2, 294913, Note_on_c, 0, 55, 0
2, 294916, Note_on_c, 0, 65, 0
2, 294960, Note_on_c, 0, 72, 0
2, 294973, Note_on_c, 0, 62, 0
2, 295050, Note_on_c, 0, 73, 50
2, 295158, Note_on_c, 0, 73, 0
2, 295279, Note_on_c, 0, 77, 74
2, 295302, Note_on_c, 0, 65, 44
2, 295310, Note_on_c, 0, 62, 26
2, 295339, Note_on_c, 0, 55, 26
2, 295355, Note_on_c, 0, 60, 27
2, 295416, Note_on_c, 0, 60, 0
2, 295427, Note_on_c, 0, 77, 0
2, 295433, Note_on_c, 0, 62, 0
2, 295439, Note_on_c, 0, 65, 0
2, 295509, Note_on_c, 0, 82, 78
2, 295512, Note_on_c, 0, 55, 0
2, 295681, Note_on_c, 0, 82, 0
2, 295755, Control_c, 0, 64, 0
2, 295761, Note_on_c, 0, 58, 67
2, 295762, Note_on_c, 0, 65, 67
2, 295764, Note_on_c, 0, 86, 91
2, 295766, Note_on_c, 0, 77, 92
2, 295778, Note_on_c, 0, 54, 67
2, 295782, Note_on_c, 0, 60, 60
2, 295986, Note_on_c, 0, 86, 0
2, 295994, Note_on_c, 0, 77, 0
2, 295999, Control_c, 0, 64, 127
2, 296045, Note_on_c, 0, 54, 0
2, 296057, Note_on_c, 0, 65, 0
2, 296077, Note_on_c, 0, 60, 0
2, 296084, Note_on_c, 0, 58, 0
2, 296135, Note_on_c, 0, 77, 79
2, 296143, Note_on_c, 0, 65, 80
2, 296149, Note_on_c, 0, 89, 80
2, 296150, Note_on_c, 0, 58, 39
2, 296153, Note_on_c, 0, 54, 61
2, 296165, Note_on_c, 0, 88, 69
2, 296179, Note_on_c, 0, 60, 48
2, 296185, Control_c, 0, 64, 0
2, 296216, Note_on_c, 0, 88, 0
2, 296232, Note_on_c, 0, 60, 0
2, 296235, Note_on_c, 0, 77, 0
2, 296249, Note_on_c, 0, 65, 0
2, 296255, Note_on_c, 0, 89, 0
2, 296303, Note_on_c, 0, 58, 0
2, 296328, Note_on_c, 0, 54, 0
2, 296731, Note_on_c, 0, 89, 84
2, 296743, Note_on_c, 0, 77, 81
2, 296745, Note_on_c, 0, 58, 67
2, 296746, Note_on_c, 0, 65, 73
2, 296757, Note_on_c, 0, 60, 49
2, 296764, Note_on_c, 0, 54, 62
2, 296948, Control_c, 0, 64, 127
2, 297280, Note_on_c, 0, 89, 0
2, 297363, Note_on_c, 0, 60, 0
2, 297374, Note_on_c, 0, 58, 0
2, 297395, Note_on_c, 0, 65, 0
2, 297406, Note_on_c, 0, 54, 0
2, 297451, Note_on_c, 0, 77, 0
2, 297619, Control_c, 0, 64, 0
2, 297628, Note_on_c, 0, 86, 68
2, 297646, Note_on_c, 0, 65, 62
2, 297657, Note_on_c, 0, 58, 55
2, 297658, Note_on_c, 0, 54, 43
2, 297673, Note_on_c, 0, 60, 40
2, 297750, Note_on_c, 0, 60, 0
2, 297777, Note_on_c, 0, 65, 0
2, 297828, Note_on_c, 0, 86, 0
2, 297864, Note_on_c, 0, 65, 44
2, 297889, Note_on_c, 0, 82, 46
2, 297910, Note_on_c, 0, 60, 20
2, 297986, Note_on_c, 0, 82, 0
2, 298008, Note_on_c, 0, 60, 0
2, 298012, Note_on_c, 0, 65, 0
2, 298087, Note_on_c, 0, 58, 0
2, 298214, Note_on_c, 0, 54, 0
2, 298547, Control_c, 0, 64, 127
2, 298572, Note_on_c, 0, 65, 53
2, 298575, Note_on_c, 0, 54, 48
2, 298576, Note_on_c, 0, 58, 50
2, 298579, Note_on_c, 0, 82, 53
2, 298600, Note_on_c, 0, 60, 40
2, 298608, Note_on_c, 0, 77, 45
2, 299039, Note_on_c, 0, 65, 0
2, 299060, Note_on_c, 0, 58, 0
2, 299063, Note_on_c, 0, 60, 0
2, 299122, Note_on_c, 0, 54, 0
2, 299151, Note_on_c, 0, 77, 0
2, 299218, Note_on_c, 0, 82, 0
2, 299608, Note_on_c, 0, 86, 50
2, 299614, Note_on_c, 0, 60, 38
2, 299623, Note_on_c, 0, 77, 42
2, 299626, Note_on_c, 0, 74, 46
2, 299631, Note_on_c, 0, 57, 34
2, 299633, Note_on_c, 0, 50, 34
2, 299648, Note_on_c, 0, 53, 45
2, 299652, Note_on_c, 0, 81, 43
2, 299668, Control_c, 0, 64, 0
2, 300155, Note_on_c, 0, 74, 0
2, 300159, Note_on_c, 0, 86, 0
2, 300184, Note_on_c, 0, 77, 0
2, 300216, Note_on_c, 0, 60, 0
2, 300217, Note_on_c, 0, 81, 0
2, 300222, Note_on_c, 0, 57, 0
2, 300239, Note_on_c, 0, 50, 0
2, 300261, Note_on_c, 0, 53, 0
2, 300551, Note_on_c, 0, 80, 76
2, 300576, Note_on_c, 0, 74, 66
2, 300583, Control_c, 0, 64, 127
2, 300584, Note_on_c, 0, 50, 54
2, 300587, Note_on_c, 0, 57, 57
2, 300588, Note_on_c, 0, 60, 62
2, 300590, Note_on_c, 0, 53, 55
2, 300601, Note_on_c, 0, 78, 34
2, 300640, Note_on_c, 0, 86, 32
2, 300646, Note_on_c, 0, 78, 0
2, 300704, Note_on_c, 0, 81, 47
2, 300707, Control_c, 0, 64, 0
2, 300774, Note_on_c, 0, 80, 0
2, 300856, Note_on_c, 0, 74, 0
2, 300967, Control_c, 0, 64, 127
2, 300969, Note_on_c, 0, 57, 0
2, 300972, Note_on_c, 0, 50, 0
2, 300976, Note_on_c, 0, 53, 0
2, 300998, Control_c, 0, 64, 0
2, 301087, Note_on_c, 0, 81, 0
2, 301092, Note_on_c, 0, 60, 0
2, 301124, Note_on_c, 0, 86, 0
2, 301531, Control_c, 0, 64, 127
2, 301551, Note_on_c, 0, 64, 62
2, 301553, Note_on_c, 0, 80, 71
2, 301557, Note_on_c, 0, 53, 60
2, 301558, Note_on_c, 0, 59, 63
2, 301565, Note_on_c, 0, 74, 75
2, 301583, Note_on_c, 0, 86, 57
2, 301604, Note_on_c, 0, 80, 0
2, 301606, Note_on_c, 0, 84, 40
2, 301634, Note_on_c, 0, 81, 47
2, 301662, Note_on_c, 0, 84, 0
2, 301767, Note_on_c, 0, 74, 0
2, 301808, Note_on_c, 0, 81, 0
2, 301849, Note_on_c, 0, 86, 0
2, 301876, Note_on_c, 0, 59, 0
2, 301891, Note_on_c, 0, 64, 0
2, 301911, Note_on_c, 0, 53, 0
2, 302177, Note_on_c, 0, 89, 76
2, 302195, Note_on_c, 0, 64, 66
2, 302196, Note_on_c, 0, 59, 69
2, 302198, Note_on_c, 0, 53, 68
2, 302201, Note_on_c, 0, 77, 63
2, 302203, Note_on_c, 0, 84, 69
2, 302317, Note_on_c, 0, 64, 0
2, 302349, Note_on_c, 0, 89, 0
2, 302359, Note_on_c, 0, 77, 0
2, 302379, Note_on_c, 0, 53, 0
2, 302402, Note_on_c, 0, 84, 0
2, 302419, Control_c, 0, 64, 0
2, 302437, Note_on_c, 0, 59, 0
2, 302534, Note_on_c, 0, 53, 58
2, 302540, Note_on_c, 0, 64, 47
2, 302552, Note_on_c, 0, 59, 28
2, 302596, Note_on_c, 0, 87, 33
2, 302598, Note_on_c, 0, 82, 45
2, 302624, Note_on_c, 0, 75, 25
2, 302633, Control_c, 0, 64, 127
2, 302715, Note_on_c, 0, 59, 0
2, 302723, Note_on_c, 0, 64, 0
2, 302756, Note_on_c, 0, 75, 0
2, 302778, Note_on_c, 0, 87, 0
2, 302782, Note_on_c, 0, 82, 0
2, 302831, Note_on_c, 0, 53, 0
2, 303349, Control_c, 0, 64, 0
2, 303471, Control_c, 0, 64, 127
2, 304019, Control_c, 0, 64, 0
2, 304044, Note_on_c, 0, 58, 75
2, 304053, Note_on_c, 0, 90, 76
2, 304056, Note_on_c, 0, 67, 80
2, 304062, Note_on_c, 0, 62, 68
2, 304064, Note_on_c, 0, 63, 61
2, 304066, Note_on_c, 0, 78, 77
2, 304068, Note_on_c, 0, 85, 78
2, 304304, Note_on_c, 0, 67, 0
2, 304343, Note_on_c, 0, 78, 0
2, 304349, Note_on_c, 0, 85, 0
2, 304352, Note_on_c, 0, 62, 0
2, 304361, Note_on_c, 0, 90, 0
2, 304390, Note_on_c, 0, 63, 0
2, 304437, Control_c, 0, 64, 127
2, 304448, Note_on_c, 0, 63, 21
2, 304456, Note_on_c, 0, 67, 54
2, 304469, Note_on_c, 0, 91, 53
2, 304475, Note_on_c, 0, 62, 33
2, 304494, Note_on_c, 0, 79, 35
2, 304524, Note_on_c, 0, 86, 51
2, 304538, Note_on_c, 0, 89, 29
2, 304612, Note_on_c, 0, 79, 0
2, 304642, Note_on_c, 0, 86, 0
2, 304656, Note_on_c, 0, 89, 0
2, 304688, Note_on_c, 0, 91, 0
2, 304711, Note_on_c, 0, 67, 0
2, 304713, Note_on_c, 0, 62, 0
2, 304776, Note_on_c, 0, 63, 0
2, 304793, Note_on_c, 0, 58, 0
2, 305005, Note_on_c, 0, 58, 60
2, 305034, Note_on_c, 0, 63, 62
2, 305050, Note_on_c, 0, 96, 65
2, 305053, Note_on_c, 0, 84, 74
2, 305103, Note_on_c, 0, 84, 0
2, 305179, Note_on_c, 0, 96, 0
2, 305195, Note_on_c, 0, 63, 0
2, 305199, Note_on_c, 0, 58, 0
2, 305306, Control_c, 0, 64, 0
2, 305419, Note_on_c, 0, 57, 62
2, 305421, Note_on_c, 0, 66, 67
2, 305423, Note_on_c, 0, 63, 58
2, 305447, Note_on_c, 0, 101, 80
2, 305453, Note_on_c, 0, 89, 75
2, 305463, Note_on_c, 0, 96, 65
2, 305483, Note_on_c, 0, 61, 25
2, 305641, Control_c, 0, 64, 127
2, 305808, Note_on_c, 0, 101, 0
2, 305846, Note_on_c, 0, 96, 0
2, 305892, Note_on_c, 0, 57, 0
2, 305898, Note_on_c, 0, 61, 0
2, 305908, Note_on_c, 0, 66, 0
2, 305917, Note_on_c, 0, 89, 0
2, 305975, Note_on_c, 0, 63, 0
2, 306144, Control_c, 0, 64, 0
2, 306280, Note_on_c, 0, 66, 67
2, 306283, Note_on_c, 0, 57, 55
2, 306288, Note_on_c, 0, 99, 62
2, 306296, Note_on_c, 0, 87, 62
2, 306306, Note_on_c, 0, 63, 52
2, 306308, Note_on_c, 0, 94, 58
2, 306324, Note_on_c, 0, 61, 34
2, 306328, Control_c, 0, 64, 127
2, 306565, Note_on_c, 0, 57, 0
2, 306598, Note_on_c, 0, 99, 0
2, 306616, Note_on_c, 0, 87, 0
2, 306618, Note_on_c, 0, 66, 0
2, 306660, Note_on_c, 0, 61, 0
2, 306661, Note_on_c, 0, 94, 0
2, 306737, Note_on_c, 0, 63, 0
2, 307044, Control_c, 0, 64, 0
2, 307245, Note_on_c, 0, 65, 70
2, 307249, Note_on_c, 0, 62, 56
2, 307255, Note_on_c, 0, 60, 43
2, 307260, Note_on_c, 0, 55, 58
2, 307261, Note_on_c, 0, 98, 73
2, 307278, Note_on_c, 0, 93, 75
2, 307280, Note_on_c, 0, 86, 70
2, 307287, Control_c, 0, 64, 127
2, 307426, Note_on_c, 0, 98, 0
2, 307432, Note_on_c, 0, 86, 0
2, 307447, Note_on_c, 0, 93, 0
2, 307500, Note_on_c, 0, 65, 0
2, 307514, Note_on_c, 0, 55, 0
2, 307539, Note_on_c, 0, 60, 0
2, 307556, Note_on_c, 0, 62, 0
2, 307889, Note_on_c, 0, 89, 55
2, 307910, Note_on_c, 0, 60, 43
2, 307914, Note_on_c, 0, 62, 49
2, 307921, Note_on_c, 0, 65, 52
2, 307939, Note_on_c, 0, 77, 30
2, 307943, Note_on_c, 0, 55, 41
2, 308108, Note_on_c, 0, 89, 0
2, 308130, Note_on_c, 0, 65, 0
2, 308148, Note_on_c, 0, 60, 0
2, 308155, Note_on_c, 0, 77, 0
2, 308172, Note_on_c, 0, 62, 0
2, 308175, Note_on_c, 0, 55, 0
2, 308277, Note_on_c, 0, 77, 42
2, 308280, Note_on_c, 0, 89, 44
2, 308284, Note_on_c, 0, 65, 50
2, 308313, Note_on_c, 0, 62, 31
2, 308319, Note_on_c, 0, 55, 35
2, 308325, Note_on_c, 0, 60, 32
2, 308589, Note_on_c, 0, 89, 0
2, 308593, Note_on_c, 0, 60, 0
2, 308596, Note_on_c, 0, 55, 0
2, 308617, Note_on_c, 0, 65, 0
2, 308633, Note_on_c, 0, 77, 0
2, 308659, Note_on_c, 0, 62, 0
2, 308846, Note_on_c, 0, 65, 61
2, 308854, Note_on_c, 0, 62, 47
2, 308856, Note_on_c, 0, 89, 66
2, 308857, Note_on_c, 0, 55, 49
2, 308867, Note_on_c, 0, 60, 46
2, 308874, Note_on_c, 0, 77, 56
2, 309041, Note_on_c, 0, 60, 0
2, 309049, Note_on_c, 0, 65, 0
2, 309063, Note_on_c, 0, 89, 0
2, 309068, Note_on_c, 0, 62, 0
2, 309074, Note_on_c, 0, 55, 0
2, 309076, Note_on_c, 0, 77, 0
2, 309210, Note_on_c, 0, 65, 51
2, 309225, Note_on_c, 0, 89, 42
2, 309240, Note_on_c, 0, 55, 50
2, 309243, Note_on_c, 0, 62, 49
2, 309255, Note_on_c, 0, 77, 44
2, 309265, Note_on_c, 0, 60, 34
2, 309479, Note_on_c, 0, 60, 0
2, 309487, Note_on_c, 0, 77, 0
2, 309490, Note_on_c, 0, 89, 0
2, 309493, Note_on_c, 0, 55, 0
2, 309520, Note_on_c, 0, 65, 0
2, 309543, Note_on_c, 0, 62, 0
2, 309827, Note_on_c, 0, 65, 65
2, 309840, Note_on_c, 0, 62, 38
2, 309842, Note_on_c, 0, 89, 65
2, 309858, Note_on_c, 0, 60, 38
2, 309861, Note_on_c, 0, 55, 37
2, 309862, Note_on_c, 0, 77, 62
2, 309932, Note_on_c, 0, 60, 0
2, 309961, Note_on_c, 0, 65, 0
2, 309970, Note_on_c, 0, 55, 0
2, 309979, Note_on_c, 0, 89, 0
2, 309981, Note_on_c, 0, 62, 0
2, 310008, Note_on_c, 0, 77, 0
2, 310158, Note_on_c, 0, 89, 57
2, 310163, Note_on_c, 0, 65, 65
2, 310165, Note_on_c, 0, 77, 48
2, 310179, Note_on_c, 0, 62, 48
2, 310182, Note_on_c, 0, 55, 38
2, 310208, Note_on_c, 0, 60, 42
2, 310342, Note_on_c, 0, 89, 0
2, 310349, Note_on_c, 0, 60, 0
2, 310350, Note_on_c, 0, 65, 0
2, 310368, Note_on_c, 0, 55, 0
2, 310373, Note_on_c, 0, 62, 0
2, 310374, Note_on_c, 0, 77, 0
2, 310808, Control_c, 0, 64, 0
2, 310811, Note_on_c, 0, 89, 71
2, 310814, Note_on_c, 0, 62, 62
2, 310817, Note_on_c, 0, 55, 68
2, 310824, Note_on_c, 0, 65, 68
2, 310825, Note_on_c, 0, 77, 71
2, 310827, Note_on_c, 0, 60, 55
2, 310908, Note_on_c, 0, 65, 0
2, 310933, Note_on_c, 0, 62, 0
2, 310937, Note_on_c, 0, 77, 0
2, 310947, Note_on_c, 0, 60, 0
2, 310955, Note_on_c, 0, 89, 0
2, 310984, Note_on_c, 0, 55, 0
2, 311097, Control_c, 0, 64, 127
2, 311981, Control_c, 0, 64, 0
2, 312089, Note_on_c, 0, 59, 78
2, 312108, Note_on_c, 0, 62, 83
2, 312110, Note_on_c, 0, 57, 64
2, 312124, Note_on_c, 0, 53, 56
2, 312241, Note_on_c, 0, 64, 29
2, 312291, Note_on_c, 0, 62, 0
2, 312452, Note_on_c, 0, 65, 34
2, 312466, Note_on_c, 0, 64, 0
2, 312637, Note_on_c, 0, 67, 38
2, 312639, Note_on_c, 0, 65, 0
2, 312806, Note_on_c, 0, 69, 35
2, 312807, Note_on_c, 0, 67, 0
2, 312947, Note_on_c, 0, 71, 39
2, 312959, Note_on_c, 0, 69, 0
2, 313048, Note_on_c, 0, 71, 0
2, 313072, Note_on_c, 0, 59, 0
2, 313086, Note_on_c, 0, 72, 51
2, 313088, Note_on_c, 0, 57, 0
2, 313185, Note_on_c, 0, 72, 0
2, 313218, Note_on_c, 0, 74, 40
2, 313307, Note_on_c, 0, 74, 0
2, 313348, Note_on_c, 0, 76, 52
2, 313414, Note_on_c, 0, 76, 0
2, 313469, Note_on_c, 0, 77, 54
2, 313550, Note_on_c, 0, 77, 0
2, 313601, Note_on_c, 0, 79, 41
2, 313630, Note_on_c, 0, 64, 39
2, 313662, Note_on_c, 0, 59, 39
2, 313699, Note_on_c, 0, 79, 0
2, 313735, Note_on_c, 0, 81, 37
2, 313756, Note_on_c, 0, 64, 0
2, 313759, Note_on_c, 0, 59, 0
2, 313825, Note_on_c, 0, 81, 0
2, 313853, Note_on_c, 0, 83, 43
2, 313875, Note_on_c, 0, 53, 0
2, 313901, Control_c, 0, 64, 127
2, 313945, Note_on_c, 0, 83, 0
2, 313966, Note_on_c, 0, 84, 54
2, 314027, Note_on_c, 0, 84, 0
2, 314083, Note_on_c, 0, 86, 45
2, 314136, Note_on_c, 0, 86, 0
2, 314194, Note_on_c, 0, 88, 46
2, 314246, Note_on_c, 0, 88, 0
2, 314300, Note_on_c, 0, 89, 46
2, 314361, Note_on_c, 0, 89, 0
2, 314416, Note_on_c, 0, 91, 39
2, 314501, Note_on_c, 0, 91, 0
2, 314536, Note_on_c, 0, 93, 41
2, 314611, Note_on_c, 0, 93, 0
2, 314660, Note_on_c, 0, 95, 43
2, 314715, Note_on_c, 0, 95, 0
2, 314761, Note_on_c, 0, 96, 45
2, 314814, Note_on_c, 0, 96, 0
2, 314851, Note_on_c, 0, 98, 43
2, 314883, Note_on_c, 0, 59, 72
2, 314884, Note_on_c, 0, 62, 81
2, 314889, Note_on_c, 0, 55, 73
2, 314893, Note_on_c, 0, 52, 70
2, 314907, Control_c, 0, 64, 0
2, 315150, Control_c, 0, 64, 127
2, 315604, Note_on_c, 0, 59, 0
2, 315650, Note_on_c, 0, 62, 0
2, 315676, Note_on_c, 0, 52, 0
2, 315746, Note_on_c, 0, 98, 0
2, 315748, Note_on_c, 0, 55, 0
2, 315790, Control_c, 0, 64, 0
2, 315874, Note_on_c, 0, 52, 57
2, 315878, Note_on_c, 0, 62, 75
2, 315880, Note_on_c, 0, 55, 47
2, 315887, Note_on_c, 0, 57, 66
2, 315893, Note_on_c, 0, 100, 75
2, 315939, Note_on_c, 0, 98, 29
2, 315989, Control_c, 0, 64, 127
2, 316000, Note_on_c, 0, 98, 0
2, 316395, Note_on_c, 0, 62, 0
2, 316409, Note_on_c, 0, 52, 0
2, 316429, Note_on_c, 0, 57, 0
2, 316445, Note_on_c, 0, 55, 0
2, 316471, Note_on_c, 0, 100, 0
2, 316578, Note_on_c, 0, 100, 87
2, 316603, Note_on_c, 0, 57, 71
2, 316606, Note_on_c, 0, 62, 83
2, 316609, Note_on_c, 0, 52, 70
2, 316611, Note_on_c, 0, 55, 73
2, 316614, Control_c, 0, 64, 0
2, 316836, Note_on_c, 0, 100, 0
2, 316852, Note_on_c, 0, 62, 0
2, 316879, Note_on_c, 0, 57, 0
2, 316892, Note_on_c, 0, 55, 0
2, 316929, Note_on_c, 0, 52, 0
2, 317602, Note_on_c, 0, 48, 26
2, 317708, Note_on_c, 0, 48, 0
2, 317835, Note_on_c, 0, 54, 67
2, 317838, Note_on_c, 0, 63, 68
2, 317849, Note_on_c, 0, 51, 57
2, 317854, Note_on_c, 0, 58, 64
2, 318391, Note_on_c, 0, 54, 0
2, 318392, Note_on_c, 0, 63, 0
2, 318487, Note_on_c, 0, 64, 77
2, 318488, Note_on_c, 0, 55, 75
2, 318491, Note_on_c, 0, 59, 79
2, 318494, Note_on_c, 0, 52, 79
2, 318511, Note_on_c, 0, 58, 0
2, 318521, Note_on_c, 0, 51, 0
2, 318607, Note_on_c, 0, 62, 17
2, 318763, Control_c, 0, 64, 127
2, 318851, Note_on_c, 0, 55, 0
2, 318925, Note_on_c, 0, 62, 0
2, 318934, Note_on_c, 0, 59, 0
2, 318954, Note_on_c, 0, 64, 0
2, 318958, Note_on_c, 0, 52, 0
2, 319692, Control_c, 0, 64, 0
2, 319743, Note_on_c, 0, 74, 55
2, 319754, Note_on_c, 0, 59, 52
2, 319765, Note_on_c, 0, 67, 60
2, 319771, Note_on_c, 0, 64, 54
2, 319774, Note_on_c, 0, 71, 53
2, 319786, Note_on_c, 0, 72, 33
2, 319861, Note_on_c, 0, 72, 0
2, 319890, Control_c, 0, 64, 127
2, 320098, Note_on_c, 0, 64, 0
2, 320157, Note_on_c, 0, 67, 0
2, 320198, Note_on_c, 0, 74, 0
2, 320229, Note_on_c, 0, 71, 0
2, 320358, Note_on_c, 0, 59, 0
2, 320394, Note_on_c, 0, 60, 77
2, 320400, Note_on_c, 0, 76, 84
2, 320405, Note_on_c, 0, 67, 90
2, 320409, Note_on_c, 0, 72, 71
2, 320414, Note_on_c, 0, 69, 81
2, 320454, Control_c, 0, 64, 0
2, 320630, Note_on_c, 0, 60, 0
2, 320644, Note_on_c, 0, 67, 0
2, 320698, Note_on_c, 0, 76, 0
2, 320704, Note_on_c, 0, 69, 0
2, 320729, Note_on_c, 0, 72, 0
2, 320768, Note_on_c, 0, 60, 49
2, 320821, Note_on_c, 0, 76, 67
2, 320840, Note_on_c, 0, 69, 68
2, 320847, Note_on_c, 0, 67, 57
2, 320856, Note_on_c, 0, 72, 59
2, 320865, Control_c, 0, 64, 127
2, 320975, Note_on_c, 0, 60, 0
2, 320976, Note_on_c, 0, 69, 0
2, 321014, Note_on_c, 0, 72, 0
2, 321032, Note_on_c, 0, 67, 0
2, 321157, Note_on_c, 0, 76, 0
2, 321384, Control_c, 0, 64, 0
2, 321411, Note_on_c, 0, 76, 70
2, 321414, Note_on_c, 0, 55, 60
2, 321416, Note_on_c, 0, 73, 51
2, 321428, Note_on_c, 0, 70, 64
2, 321430, Note_on_c, 0, 61, 50
2, 321432, Note_on_c, 0, 64, 53
2, 321438, Note_on_c, 0, 67, 55
2, 321703, Control_c, 0, 64, 127
2, 322116, Note_on_c, 0, 55, 0
2, 322226, Note_on_c, 0, 64, 0
2, 322256, Note_on_c, 0, 67, 0
2, 322293, Note_on_c, 0, 70, 0
2, 322296, Note_on_c, 0, 73, 0
2, 322309, Note_on_c, 0, 76, 0
2, 322317, Note_on_c, 0, 61, 0
2, 322572, Control_c, 0, 64, 0
2, 322594, Note_on_c, 0, 60, 36
2, 322600, Note_on_c, 0, 64, 46
2, 322601, Note_on_c, 0, 53, 44
2, 322603, Note_on_c, 0, 76, 49
2, 322624, Note_on_c, 0, 69, 49
2, 322627, Note_on_c, 0, 72, 34
2, 322648, Note_on_c, 0, 65, 31
2, 322922, Note_on_c, 0, 76, 0
2, 323130, Note_on_c, 0, 64, 0
2, 323157, Note_on_c, 0, 69, 0
2, 323188, Note_on_c, 0, 65, 0
2, 323191, Note_on_c, 0, 53, 0
2, 323195, Note_on_c, 0, 72, 0
2, 323203, Note_on_c, 0, 60, 0
2, 323277, Control_c, 0, 64, 127
2, 323429, Control_c, 0, 64, 0
2, 323548, Note_on_c, 0, 77, 55
2, 323559, Note_on_c, 0, 53, 42
2, 323562, Note_on_c, 0, 60, 35
2, 323565, Note_on_c, 0, 64, 41
2, 323586, Note_on_c, 0, 65, 28
2, 323609, Note_on_c, 0, 69, 18
2, 323614, Note_on_c, 0, 72, 24
2, 323764, Control_c, 0, 64, 127
2, 323769, Note_on_c, 0, 64, 0
2, 323901, Note_on_c, 0, 60, 0
2, 323902, Note_on_c, 0, 77, 0
2, 323987, Note_on_c, 0, 69, 0
2, 324032, Note_on_c, 0, 72, 0
2, 324037, Note_on_c, 0, 65, 0
2, 324090, Note_on_c, 0, 53, 0
2, 324420, Control_c, 0, 64, 0
2, 324495, Note_on_c, 0, 64, 53
2, 324527, Note_on_c, 0, 65, 40
2, 324538, Note_on_c, 0, 69, 45
2, 324545, Note_on_c, 0, 72, 42
2, 324547, Note_on_c, 0, 74, 41
2, 325179, Note_on_c, 0, 60, 48
2, 325281, Note_on_c, 0, 64, 0
2, 325425, Control_c, 0, 64, 127
2, 325433, Note_on_c, 0, 65, 0
2, 325496, Note_on_c, 0, 69, 0
2, 325498, Note_on_c, 0, 60, 0
2, 325558, Note_on_c, 0, 72, 0
2, 325593, Note_on_c, 0, 74, 0
2, 326112, Note_on_c, 0, 78, 70
2, 326114, Note_on_c, 0, 90, 70
2, 326125, Note_on_c, 0, 85, 71
2, 326132, Note_on_c, 0, 64, 67
2, 326133, Note_on_c, 0, 59, 67
2, 326151, Note_on_c, 0, 53, 60
2, 326157, Control_c, 0, 64, 0
2, 326277, Note_on_c, 0, 64, 0
2, 326284, Note_on_c, 0, 78, 0
2, 326290, Note_on_c, 0, 59, 0
2, 326291, Note_on_c, 0, 53, 0
2, 326298, Note_on_c, 0, 85, 0
2, 326318, Note_on_c, 0, 90, 0
2, 327076, Note_on_c, 0, 64, 60
2, 327082, Note_on_c, 0, 59, 60
2, 327088, Note_on_c, 0, 91, 71
2, 327095, Note_on_c, 0, 86, 64
2, 327097, Note_on_c, 0, 53, 47
2, 327103, Note_on_c, 0, 79, 46
2, 327198, Note_on_c, 0, 79, 0
2, 327211, Note_on_c, 0, 91, 0
2, 327231, Note_on_c, 0, 64, 0
2, 327257, Note_on_c, 0, 86, 0
2, 327271, Note_on_c, 0, 53, 0
2, 327294, Note_on_c, 0, 59, 0
2, 327452, Control_c, 0, 64, 127
2, 327483, Control_c, 0, 64, 0
2, 328058, Note_on_c, 0, 53, 62
2, 328062, Note_on_c, 0, 64, 60
2, 328065, Note_on_c, 0, 60, 45
2, 328067, Note_on_c, 0, 57, 48
2, 328085, Note_on_c, 0, 85, 70
2, 328087, Note_on_c, 0, 73, 64
2, 328105, Note_on_c, 0, 80, 56
2, 328347, Note_on_c, 0, 80, 0
2, 328353, Note_on_c, 0, 85, 0
2, 328355, Note_on_c, 0, 64, 0
2, 328374, Note_on_c, 0, 73, 0
2, 328380, Note_on_c, 0, 60, 0
2, 328386, Note_on_c, 0, 57, 0
2, 328423, Note_on_c, 0, 53, 0
2, 328502, Note_on_c, 0, 53, 24
2, 328506, Note_on_c, 0, 64, 36
2, 328522, Note_on_c, 0, 57, 51
2, 328535, Note_on_c, 0, 60, 44
2, 328553, Note_on_c, 0, 88, 62
2, 328575, Note_on_c, 0, 76, 40
2, 328616, Note_on_c, 0, 83, 44
2, 328776, Note_on_c, 0, 83, 0
2, 328812, Note_on_c, 0, 88, 0
2, 328944, Note_on_c, 0, 60, 0
2, 328946, Note_on_c, 0, 76, 0
2, 328993, Note_on_c, 0, 57, 0
2, 329003, Note_on_c, 0, 64, 0
2, 329057, Note_on_c, 0, 53, 0
2, 329358, Control_c, 0, 64, 127
2, 329382, Note_on_c, 0, 64, 38
2, 329385, Note_on_c, 0, 53, 38
2, 329387, Note_on_c, 0, 85, 49
2, 329392, Note_on_c, 0, 57, 32
2, 329400, Note_on_c, 0, 80, 39
2, 329409, Note_on_c, 0, 60, 30
2, 329418, Note_on_c, 0, 73, 28
2, 329718, Note_on_c, 0, 60, 0
2, 329726, Note_on_c, 0, 57, 0
2, 329743, Note_on_c, 0, 64, 0
2, 329745, Note_on_c, 0, 73, 0
2, 329746, Note_on_c, 0, 53, 0
2, 329748, Note_on_c, 0, 80, 0
2, 329786, Note_on_c, 0, 85, 0
2, 329998, Control_c, 0, 64, 0
2, 330016, Note_on_c, 0, 53, 46
2, 330020, Note_on_c, 0, 57, 42
2, 330022, Note_on_c, 0, 64, 50
2, 330024, Note_on_c, 0, 86, 64
2, 330034, Note_on_c, 0, 60, 35
2, 330050, Note_on_c, 0, 81, 66
2, 330063, Note_on_c, 0, 74, 42
2, 330100, Note_on_c, 0, 60, 0
2, 330125, Note_on_c, 0, 64, 0
2, 330138, Note_on_c, 0, 74, 0
2, 330166, Note_on_c, 0, 81, 0
2, 330180, Note_on_c, 0, 57, 0
2, 330186, Note_on_c, 0, 86, 0
2, 330192, Note_on_c, 0, 53, 0
2, 330485, Control_c, 0, 64, 127
2, 330572, Note_on_c, 0, 84, 51
2, 330575, Note_on_c, 0, 64, 33
2, 330586, Note_on_c, 0, 72, 50
2, 330596, Note_on_c, 0, 53, 27
2, 330598, Note_on_c, 0, 57, 39
2, 330604, Note_on_c, 0, 60, 36
2, 330639, Note_on_c, 0, 81, 26
2, 330642, Note_on_c, 0, 77, 35
2, 330727, Note_on_c, 0, 81, 0
2, 330731, Note_on_c, 0, 77, 0
2, 330766, Note_on_c, 0, 84, 0
2, 330824, Note_on_c, 0, 72, 0
2, 330837, Note_on_c, 0, 60, 0
2, 330875, Note_on_c, 0, 57, 0
2, 330889, Note_on_c, 0, 64, 0
2, 330919, Note_on_c, 0, 53, 0
2, 331140, Control_c, 0, 64, 0
2, 331192, Note_on_c, 0, 64, 45
2, 331200, Note_on_c, 0, 53, 43
2, 331201, Note_on_c, 0, 81, 54
2, 331218, Note_on_c, 0, 57, 36
2, 331224, Note_on_c, 0, 60, 35
2, 331233, Note_on_c, 0, 77, 47
2, 331245, Note_on_c, 0, 74, 36
2, 331284, Note_on_c, 0, 69, 24
2, 331353, Control_c, 0, 64, 127
2, 331402, Note_on_c, 0, 77, 0
2, 331436, Note_on_c, 0, 74, 0
2, 331449, Note_on_c, 0, 81, 0
2, 331491, Note_on_c, 0, 64, 0
2, 331492, Note_on_c, 0, 60, 0
2, 331501, Note_on_c, 0, 69, 0
2, 331521, Note_on_c, 0, 57, 0
2, 331580, Note_on_c, 0, 53, 0
2, 331878, Note_on_c, 0, 77, 50
2, 331891, Note_on_c, 0, 53, 36
2, 331896, Note_on_c, 0, 64, 34
2, 331898, Note_on_c, 0, 72, 51
2, 331910, Note_on_c, 0, 57, 44
2, 331917, Control_c, 0, 64, 0
2, 331919, Note_on_c, 0, 60, 33
2, 331925, Note_on_c, 0, 65, 37
2, 332175, Note_on_c, 0, 64, 0
2, 332206, Note_on_c, 0, 60, 0
2, 332230, Note_on_c, 0, 57, 0
2, 332238, Control_c, 0, 64, 127
2, 332318, Note_on_c, 0, 53, 0
2, 332880, Note_on_c, 0, 49, 63
2, 333121, Control_c, 0, 64, 0
2, 333188, Note_on_c, 0, 49, 0
2, 333234, Note_on_c, 0, 50, 64
2, 333348, Note_on_c, 0, 50, 0
2, 333807, Control_c, 0, 64, 127
2, 333810, Note_on_c, 0, 45, 72
2, 333988, Note_on_c, 0, 45, 0
2, 334051, Control_c, 0, 64, 0
2, 334167, Note_on_c, 0, 65, 0
2, 334193, Note_on_c, 0, 43, 41
2, 334221, Note_on_c, 0, 72, 0
2, 334240, Note_on_c, 0, 77, 0
2, 334325, Control_c, 0, 64, 127
2, 334539, Control_c, 0, 64, 0
2, 334722, Note_on_c, 0, 43, 0
2, 334749, Note_on_c, 0, 31, 72
2, 334845, Note_on_c, 0, 31, 0
2, 335071, Control_c, 0, 64, 127
2, 335225, Control_c, 0, 64, 0
2, 335719, Note_on_c, 0, 64, 81
2, 335722, Note_on_c, 0, 76, 85
2, 335726, Note_on_c, 0, 68, 83
2, 335728, Note_on_c, 0, 63, 67
2, 335731, Note_on_c, 0, 71, 74
2, 335735, Note_on_c, 0, 65, 94
2, 335816, Note_on_c, 0, 63, 0
2, 336116, Note_on_c, 0, 76, 0
2, 336263, Note_on_c, 0, 65, 0
2, 336275, Note_on_c, 0, 68, 0
2, 336301, Note_on_c, 0, 71, 0
2, 336348, Note_on_c, 0, 63, 68
2, 336351, Note_on_c, 0, 75, 74
2, 336359, Note_on_c, 0, 64, 0
2, 336368, Note_on_c, 0, 65, 32
2, 336374, Note_on_c, 0, 71, 25
2, 336389, Note_on_c, 0, 68, 30
2, 336524, Note_on_c, 0, 65, 0
2, 336530, Note_on_c, 0, 75, 0
2, 336536, Note_on_c, 0, 68, 0
2, 336544, Note_on_c, 0, 71, 0
2, 336602, Note_on_c, 0, 63, 0
2, 336673, Note_on_c, 0, 62, 64
2, 336944, Note_on_c, 0, 62, 0
2, 337023, Note_on_c, 0, 68, 36
2, 337024, Note_on_c, 0, 71, 51
2, 337030, Note_on_c, 0, 65, 41
2, 337049, Note_on_c, 0, 59, 45
2, 337351, Note_on_c, 0, 68, 0
2, 337356, Note_on_c, 0, 65, 0
2, 337432, Note_on_c, 0, 71, 0
2, 337624, Note_on_c, 0, 59, 0
2, 337662, Note_on_c, 0, 62, 64
2, 337674, Note_on_c, 0, 71, 54
2, 337679, Note_on_c, 0, 74, 61
2, 337686, Note_on_c, 0, 68, 49
2, 337687, Note_on_c, 0, 65, 64
2, 337693, Control_c, 0, 64, 127
2, 337797, Note_on_c, 0, 62, 0
2, 337813, Note_on_c, 0, 65, 0
2, 337818, Note_on_c, 0, 68, 0
2, 337865, Note_on_c, 0, 74, 0
2, 337877, Note_on_c, 0, 71, 0
2, 337921, Control_c, 0, 64, 0
2, 338326, Note_on_c, 0, 48, 49
2, 338450, Note_on_c, 0, 48, 0
2, 338915, Note_on_c, 0, 62, 58
2, 338932, Note_on_c, 0, 52, 48
2, 338946, Note_on_c, 0, 78, 61
2, 338953, Note_on_c, 0, 66, 68
2, 338954, Note_on_c, 0, 57, 45
2, 338973, Note_on_c, 0, 74, 53
2, 339016, Note_on_c, 0, 57, 0
2, 339034, Note_on_c, 0, 74, 0
2, 339044, Note_on_c, 0, 62, 0
2, 339065, Note_on_c, 0, 52, 0
2, 339090, Note_on_c, 0, 66, 0
2, 339163, Note_on_c, 0, 78, 0
2, 339623, Note_on_c, 0, 79, 60
2, 339625, Note_on_c, 0, 52, 52
2, 339627, Note_on_c, 0, 74, 64
2, 339631, Note_on_c, 0, 62, 51
2, 339638, Note_on_c, 0, 57, 44
2, 339640, Note_on_c, 0, 67, 60
2, 339919, Control_c, 0, 64, 127
2, 340098, Note_on_c, 0, 74, 0
2, 340118, Note_on_c, 0, 79, 0
2, 340306, Note_on_c, 0, 67, 0
2, 340345, Note_on_c, 0, 62, 0
2, 340458, Note_on_c, 0, 52, 0
2, 340490, Note_on_c, 0, 57, 0
2, 340802, Control_c, 0, 64, 0
2, 340868, Note_on_c, 0, 64, 49
2, 340882, Note_on_c, 0, 62, 34
2, 340885, Note_on_c, 0, 76, 54
2, 340894, Note_on_c, 0, 52, 36
2, 340899, Note_on_c, 0, 57, 39
2, 341076, Control_c, 0, 64, 127
2, 341357, Note_on_c, 0, 64, 0
2, 341493, Note_on_c, 0, 57, 0
2, 341495, Note_on_c, 0, 52, 0
2, 341575, Note_on_c, 0, 62, 0
2, 341782, Note_on_c, 0, 76, 0
2, 342407, Note_on_c, 0, 67, 80
2, 342412, Note_on_c, 0, 64, 66
2, 342431, Note_on_c, 0, 62, 67
2, 342478, Control_c, 0, 64, 0
2, 342767, Control_c, 0, 64, 127
2, 342822, Note_on_c, 0, 67, 0
2, 343392, Control_c, 0, 64, 0
2, 343407, Note_on_c, 0, 55, 64
2, 343746, Note_on_c, 0, 89, 89
2, 343749, Note_on_c, 0, 91, 87
2, 343864, Note_on_c, 0, 64, 0
2, 343892, Note_on_c, 0, 91, 0
2, 343934, Note_on_c, 0, 62, 0
2, 344145, Note_on_c, 0, 89, 0
2, 344354, Note_on_c, 0, 64, 50
2, 344356, Note_on_c, 0, 67, 57
2, 344362, Note_on_c, 0, 62, 25
2, 344370, Note_on_c, 0, 88, 81
2, 344660, Note_on_c, 0, 88, 0
2, 344665, Note_on_c, 0, 67, 0
2, 344739, Note_on_c, 0, 64, 0
2, 344783, Note_on_c, 0, 62, 0
2, 344811, Note_on_c, 0, 86, 53
2, 344840, Control_c, 0, 64, 127
2, 344843, Note_on_c, 0, 55, 0
2, 345047, Note_on_c, 0, 86, 0
2, 345313, Note_on_c, 0, 82, 70
2, 345319, Note_on_c, 0, 62, 56
2, 345334, Note_on_c, 0, 58, 57
2, 345344, Control_c, 0, 64, 0
2, 345346, Note_on_c, 0, 57, 30
2, 345366, Note_on_c, 0, 52, 31
2, 345576, Note_on_c, 0, 82, 0
2, 345690, Note_on_c, 0, 81, 64
2, 346121, Note_on_c, 0, 81, 0
2, 346193, Note_on_c, 0, 82, 50
2, 346284, Note_on_c, 0, 81, 58
2, 346409, Note_on_c, 0, 82, 0
2, 346497, Note_on_c, 0, 81, 0
2, 346515, Note_on_c, 0, 79, 33
2, 346697, Note_on_c, 0, 79, 0
2, 346699, Note_on_c, 0, 62, 0
2, 346700, Note_on_c, 0, 57, 0
2, 346706, Note_on_c, 0, 58, 0
2, 346864, Note_on_c, 0, 52, 0
2, 347169, Note_on_c, 0, 62, 65
2, 347181, Note_on_c, 0, 77, 68
2, 347184, Note_on_c, 0, 57, 46
2, 347202, Note_on_c, 0, 58, 43
2, 347216, Note_on_c, 0, 52, 33
2, 347275, Note_on_c, 0, 58, 0
2, 347281, Note_on_c, 0, 52, 0
2, 347292, Note_on_c, 0, 62, 0
2, 347294, Note_on_c, 0, 77, 0
2, 347304, Note_on_c, 0, 57, 0
2, 347725, Note_on_c, 0, 62, 44
2, 347727, Note_on_c, 0, 74, 49
2, 347728, Note_on_c, 0, 57, 33
2, 347741, Note_on_c, 0, 58, 37
2, 347751, Note_on_c, 0, 52, 35
2, 348105, Note_on_c, 0, 62, 0
2, 348119, Note_on_c, 0, 58, 0
2, 348153, Note_on_c, 0, 57, 0
2, 348216, Note_on_c, 0, 52, 0
2, 348309, Note_on_c, 0, 74, 0
2, 348458, Note_on_c, 0, 70, 56
2, 348460, Note_on_c, 0, 57, 31
2, 348472, Note_on_c, 0, 62, 33
2, 348488, Note_on_c, 0, 58, 36
2, 348494, Note_on_c, 0, 52, 25
2, 348574, Control_c, 0, 64, 127
2, 348691, Note_on_c, 0, 62, 0
2, 348751, Note_on_c, 0, 58, 0
2, 348771, Note_on_c, 0, 52, 0
2, 348808, Note_on_c, 0, 57, 0
2, 348967, Note_on_c, 0, 70, 0
2, 349130, Note_on_c, 0, 62, 44
2, 349134, Note_on_c, 0, 57, 38
2, 349138, Note_on_c, 0, 69, 68
2, 349144, Note_on_c, 0, 58, 45
2, 349154, Note_on_c, 0, 52, 41
2, 349183, Control_c, 0, 64, 0
2, 349502, Control_c, 0, 64, 127
2, 349746, Note_on_c, 0, 62, 0
2, 349789, Note_on_c, 0, 69, 0
2, 349844, Note_on_c, 0, 52, 0
2, 349853, Note_on_c, 0, 58, 0
2, 349932, Note_on_c, 0, 57, 0
2, 350372, Control_c, 0, 64, 0
2, 350385, Note_on_c, 0, 58, 43
2, 350403, Note_on_c, 0, 68, 51
2, 350412, Note_on_c, 0, 52, 36
2, 350564, Note_on_c, 0, 58, 0
2, 350601, Control_c, 0, 64, 127
2, 350612, Note_on_c, 0, 52, 0
2, 350630, Note_on_c, 0, 68, 0
2, 351377, Control_c, 0, 64, 0
2, 351390, Note_on_c, 0, 58, 42
2, 351402, Note_on_c, 0, 65, 45
2, 351404, Note_on_c, 0, 57, 46
2, 351405, Note_on_c, 0, 67, 55
2, 351410, Note_on_c, 0, 62, 31
2, 351936, Note_on_c, 0, 65, 0
2, 351962, Note_on_c, 0, 58, 0
2, 351997, Note_on_c, 0, 62, 0
2, 352165, Note_on_c, 0, 67, 0
2, 352264, Note_on_c, 0, 57, 0
2, 352332, Note_on_c, 0, 52, 45
2, 352376, Note_on_c, 0, 65, 52
2, 352386, Note_on_c, 0, 58, 43
2, 352404, Note_on_c, 0, 62, 40
2, 352491, Control_c, 0, 64, 127
2, 352673, Note_on_c, 0, 58, 0
2, 352702, Note_on_c, 0, 62, 0
2, 352786, Note_on_c, 0, 65, 0
2, 352887, Note_on_c, 0, 52, 0
2, 353182, Note_on_c, 0, 53, 41
2, 353237, Control_c, 0, 64, 0
2, 353308, Note_on_c, 0, 67, 58
2, 353314, Note_on_c, 0, 60, 47
2, 353319, Note_on_c, 0, 64, 39
2, 353320, Note_on_c, 0, 57, 47
2, 353328, Note_on_c, 0, 55, 53
2, 353335, Note_on_c, 0, 53, 0
2, 354071, Note_on_c, 0, 57, 0
2, 354127, Note_on_c, 0, 64, 0
2, 354144, Note_on_c, 0, 60, 0
2, 354203, Note_on_c, 0, 67, 0
2, 354255, Note_on_c, 0, 55, 0
2, 354260, Note_on_c, 0, 52, 43
2, 354267, Note_on_c, 0, 64, 17
2, 354358, Note_on_c, 0, 57, 11
2, 354659, Note_on_c, 0, 57, 0
2, 354784, Note_on_c, 0, 64, 0
2, 354912, Note_on_c, 0, 65, 60
2, 354920, Note_on_c, 0, 57, 41
2, 354932, Note_on_c, 0, 52, 0
2, 354933, Note_on_c, 0, 60, 35
2, 354936, Note_on_c, 0, 53, 49
2, 355263, Control_c, 0, 64, 127
2, 355271, Note_on_c, 0, 57, 0
2, 355389, Note_on_c, 0, 60, 0
2, 355535, Note_on_c, 0, 65, 0
2, 356088, Note_on_c, 0, 53, 0
2, 356173, Note_on_c, 0, 69, 53
2, 356237, Note_on_c, 0, 69, 0
2, 356422, Note_on_c, 0, 72, 65
2, 356543, Note_on_c, 0, 72, 0
2, 356677, Note_on_c, 0, 76, 89
2, 356832, Note_on_c, 0, 76, 0
2, 356919, Note_on_c, 0, 77, 85
2, 357090, Note_on_c, 0, 77, 0
2, 357138, Control_c, 0, 64, 0
2, 357175, Note_on_c, 0, 62, 51
2, 357188, Note_on_c, 0, 74, 71
2, 357190, Note_on_c, 0, 67, 47
2, 357192, Note_on_c, 0, 56, 53
2, 357218, Note_on_c, 0, 75, 67
2, 357224, Note_on_c, 0, 79, 53
2, 357324, Note_on_c, 0, 74, 0
2, 357387, Note_on_c, 0, 75, 0
2, 357400, Note_on_c, 0, 76, 56
2, 357578, Note_on_c, 0, 79, 0
2, 357598, Note_on_c, 0, 76, 0
2, 357605, Note_on_c, 0, 67, 0
2, 357609, Note_on_c, 0, 56, 0
2, 357611, Note_on_c, 0, 62, 0
2, 357750, Note_on_c, 0, 56, 46
2, 357765, Note_on_c, 0, 67, 40
2, 357785, Note_on_c, 0, 62, 36
2, 357787, Note_on_c, 0, 74, 43
2, 357789, Note_on_c, 0, 79, 30
2, 357817, Note_on_c, 0, 75, 50
2, 357975, Note_on_c, 0, 75, 0
2, 357995, Note_on_c, 0, 74, 0
2, 357998, Note_on_c, 0, 76, 55
2, 358063, Note_on_c, 0, 67, 0
2, 358064, Note_on_c, 0, 79, 0
2, 358065, Note_on_c, 0, 62, 0
2, 358071, Note_on_c, 0, 56, 0
2, 358093, Note_on_c, 0, 76, 0
2, 358301, Note_on_c, 0, 56, 30
2, 358303, Note_on_c, 0, 67, 33
2, 358326, Note_on_c, 0, 74, 34
2, 358345, Note_on_c, 0, 79, 41
2, 358374, Note_on_c, 0, 75, 38
2, 358464, Control_c, 0, 64, 127
2, 358500, Note_on_c, 0, 74, 0
2, 358587, Note_on_c, 0, 76, 32
2, 358593, Note_on_c, 0, 67, 0
2, 358601, Note_on_c, 0, 75, 0
2, 358621, Note_on_c, 0, 56, 0
2, 358644, Note_on_c, 0, 79, 0
2, 358685, Note_on_c, 0, 76, 0
2, 358824, Note_on_c, 0, 72, 29
2, 358996, Note_on_c, 0, 72, 0
2, 359012, Control_c, 0, 64, 0
2, 359078, Note_on_c, 0, 67, 36
2, 359081, Note_on_c, 0, 79, 54
2, 359091, Note_on_c, 0, 56, 35
2, 359097, Note_on_c, 0, 74, 44
2, 359119, Note_on_c, 0, 62, 26
2, 360002, Control_c, 0, 64, 127
2, 360219, Note_on_c, 0, 74, 0
2, 360249, Note_on_c, 0, 79, 0
2, 360285, Note_on_c, 0, 62, 0
2, 360305, Note_on_c, 0, 67, 0
2, 360355, Note_on_c, 0, 56, 0
2, 360857, Control_c, 0, 64, 0
2, 360946, Note_on_c, 0, 67, 47
2, 360965, Note_on_c, 0, 56, 31
2, 360969, Note_on_c, 0, 87, 37
2, 360972, Note_on_c, 0, 62, 34
2, 360978, Note_on_c, 0, 75, 30
2, 360984, Note_on_c, 0, 82, 37
2, 361294, Note_on_c, 0, 67, 0
2, 361298, Note_on_c, 0, 82, 0
2, 361315, Note_on_c, 0, 75, 0
2, 361317, Note_on_c, 0, 56, 0
2, 361332, Note_on_c, 0, 87, 0
2, 361334, Note_on_c, 0, 62, 0
2, 361598, Note_on_c, 0, 56, 71
2, 361600, Note_on_c, 0, 88, 66
2, 361606, Note_on_c, 0, 83, 64
2, 361608, Note_on_c, 0, 67, 65
2, 361613, Note_on_c, 0, 62, 63
2, 361616, Note_on_c, 0, 76, 51
2, 361758, Note_on_c, 0, 88, 0
2, 361839, Note_on_c, 0, 76, 0
2, 361847, Note_on_c, 0, 67, 0
2, 361884, Note_on_c, 0, 56, 0
2, 361890, Note_on_c, 0, 83, 0
2, 361924, Note_on_c, 0, 62, 0
2, 362019, Note_on_c, 0, 56, 51
2, 362023, Note_on_c, 0, 67, 33
2, 362025, Note_on_c, 0, 75, 56
2, 362027, Note_on_c, 0, 62, 31
2, 362039, Note_on_c, 0, 87, 38
2, 362150, Note_on_c, 0, 67, 0
2, 362191, Note_on_c, 0, 87, 0
2, 362197, Note_on_c, 0, 56, 0
2, 362210, Note_on_c, 0, 75, 0
2, 362212, Note_on_c, 0, 62, 0
2, 362613, Note_on_c, 0, 56, 59
2, 362629, Note_on_c, 0, 62, 44
2, 362636, Note_on_c, 0, 83, 60
2, 362639, Note_on_c, 0, 88, 42
2, 362651, Note_on_c, 0, 76, 48
2, 362692, Note_on_c, 0, 62, 0
2, 362707, Note_on_c, 0, 76, 0
2, 362716, Control_c, 0, 64, 127
2, 362747, Note_on_c, 0, 88, 0
2, 362782, Note_on_c, 0, 83, 0
2, 362810, Note_on_c, 0, 56, 0
2, 362974, Control_c, 0, 64, 0
2, 363992, Note_on_c, 0, 66, 70
2, 363998, Note_on_c, 0, 55, 63
2, 364000, Note_on_c, 0, 79, 74
2, 364002, Note_on_c, 0, 61, 64
2, 364004, Note_on_c, 0, 91, 71
2, 364096, Note_on_c, 0, 79, 0
2, 364100, Note_on_c, 0, 66, 0
2, 364112, Note_on_c, 0, 91, 0
2, 364144, Note_on_c, 0, 55, 0
2, 364146, Note_on_c, 0, 61, 0
2, 364570, Note_on_c, 0, 61, 67
2, 364580, Note_on_c, 0, 66, 57
2, 364597, Note_on_c, 0, 55, 43
2, 364606, Note_on_c, 0, 89, 74
2, 364626, Note_on_c, 0, 77, 71
2, 364657, Note_on_c, 0, 55, 0
2, 364666, Control_c, 0, 64, 127
2, 364695, Note_on_c, 0, 66, 0
2, 364725, Note_on_c, 0, 89, 0
2, 364744, Note_on_c, 0, 77, 0
2, 364895, Note_on_c, 0, 61, 0
2, 364986, Control_c, 0, 64, 0
2, 365111, Note_on_c, 0, 85, 39
2, 365117, Note_on_c, 0, 64, 41
2, 365119, Note_on_c, 0, 53, 51
2, 365120, Note_on_c, 0, 57, 49
2, 365123, Note_on_c, 0, 60, 36
2, 365128, Note_on_c, 0, 73, 39
2, 365152, Note_on_c, 0, 80, 42
2, 365216, Note_on_c, 0, 80, 0
2, 365231, Note_on_c, 0, 73, 0
2, 365236, Note_on_c, 0, 86, 54
2, 365257, Note_on_c, 0, 85, 0
2, 365287, Note_on_c, 0, 74, 31
2, 365321, Note_on_c, 0, 81, 37
2, 365616, Note_on_c, 0, 64, 0
2, 365617, Note_on_c, 0, 60, 0
2, 365632, Note_on_c, 0, 74, 0
2, 365637, Note_on_c, 0, 81, 0
2, 365649, Note_on_c, 0, 57, 0
2, 365651, Note_on_c, 0, 86, 0
2, 365654, Note_on_c, 0, 53, 0
2, 365863, Note_on_c, 0, 53, 43
2, 365870, Control_c, 0, 64, 127
2, 365886, Note_on_c, 0, 64, 36
2, 365892, Note_on_c, 0, 86, 45
2, 365895, Note_on_c, 0, 60, 34
2, 365899, Note_on_c, 0, 57, 33
2, 365911, Note_on_c, 0, 81, 46
2, 365946, Note_on_c, 0, 74, 22
2, 366048, Note_on_c, 0, 81, 0
2, 366094, Note_on_c, 0, 60, 0
2, 366145, Note_on_c, 0, 86, 0
2, 366149, Note_on_c, 0, 64, 0
2, 366191, Note_on_c, 0, 57, 0
2, 366194, Note_on_c, 0, 74, 0
2, 366231, Note_on_c, 0, 53, 0
2, 366510, Control_c, 0, 64, 0
2, 366531, Note_on_c, 0, 86, 51
2, 366556, Note_on_c, 0, 53, 30
2, 366558, Note_on_c, 0, 64, 38
2, 366560, Note_on_c, 0, 59, 53
2, 366564, Note_on_c, 0, 74, 30
2, 366571, Note_on_c, 0, 81, 36
2, 366574, Note_on_c, 0, 57, 29
2, 366596, Note_on_c, 0, 77, 26
2, 366769, Control_c, 0, 64, 127
2, 367032, Note_on_c, 0, 77, 0
2, 367042, Note_on_c, 0, 59, 0
2, 367053, Note_on_c, 0, 57, 0
2, 367067, Note_on_c, 0, 74, 0
2, 367124, Note_on_c, 0, 64, 0
2, 367125, Note_on_c, 0, 81, 0
2, 367149, Note_on_c, 0, 86, 0
2, 367168, Note_on_c, 0, 53, 0
2, 367622, Control_c, 0, 64, 0
2, 367683, Note_on_c, 0, 82, 45
2, 367685, Note_on_c, 0, 59, 52
2, 367688, Note_on_c, 0, 88, 52
2, 367689, Note_on_c, 0, 53, 53
2, 367694, Note_on_c, 0, 64, 51
2, 367707, Note_on_c, 0, 76, 36
2, 367735, Note_on_c, 0, 57, 36
2, 367940, Note_on_c, 0, 64, 0
2, 368013, Note_on_c, 0, 59, 0
2, 368016, Note_on_c, 0, 82, 0
2, 368030, Note_on_c, 0, 57, 0
2, 368075, Note_on_c, 0, 88, 0
2, 368093, Note_on_c, 0, 53, 0
2, 368095, Note_on_c, 0, 76, 0
2, 368671, Note_on_c, 0, 86, 56
2, 368680, Note_on_c, 0, 62, 40
2, 368684, Note_on_c, 0, 57, 36
2, 368693, Control_c, 0, 64, 127
2, 368698, Note_on_c, 0, 55, 37
2, 368702, Note_on_c, 0, 74, 31
2, 368710, Note_on_c, 0, 52, 32
2, 368723, Note_on_c, 0, 81, 33
2, 369004, Note_on_c, 0, 86, 0
2, 369054, Note_on_c, 0, 81, 0
2, 369062, Note_on_c, 0, 57, 0
2, 369119, Note_on_c, 0, 74, 0
2, 369125, Note_on_c, 0, 62, 0
2, 369132, Note_on_c, 0, 55, 0
2, 369200, Note_on_c, 0, 52, 0
2, 369633, Note_on_c, 0, 62, 45
2, 369636, Note_on_c, 0, 84, 51
2, 369644, Note_on_c, 0, 57, 40
2, 369651, Note_on_c, 0, 72, 45
2, 369653, Note_on_c, 0, 52, 34
2, 369667, Note_on_c, 0, 79, 38
2, 369846, Note_on_c, 0, 72, 0
2, 369860, Note_on_c, 0, 79, 0
2, 369879, Note_on_c, 0, 57, 0
2, 369885, Note_on_c, 0, 52, 0
2, 369889, Note_on_c, 0, 84, 0
2, 369897, Control_c, 0, 64, 0
2, 369917, Note_on_c, 0, 62, 0
2, 370589, Note_on_c, 0, 84, 60
2, 370607, Note_on_c, 0, 72, 41
2, 370615, Note_on_c, 0, 57, 34
2, 370615, Note_on_c, 0, 52, 31
2, 370617, Note_on_c, 0, 62, 32
2, 370630, Control_c, 0, 64, 127
2, 370632, Note_on_c, 0, 79, 36
2, 370851, Note_on_c, 0, 62, 0
2, 370885, Note_on_c, 0, 57, 0
2, 371027, Note_on_c, 0, 52, 0
2, 372457, Note_on_c, 0, 72, 0
2, 372562, Note_on_c, 0, 79, 0
2, 372650, Note_on_c, 0, 84, 0
2, 373126, Note_on_c, 0, 65, 66
2, 373146, Note_on_c, 0, 60, 43
2, 373148, Note_on_c, 0, 55, 50
2, 373153, Note_on_c, 0, 57, 42
2, 373164, Note_on_c, 0, 91, 78
2, 373219, Control_c, 0, 64, 0
2, 373360, Note_on_c, 0, 91, 0
2, 373591, Note_on_c, 0, 79, 39
2, 373986, Note_on_c, 0, 79, 0
2, 374149, Note_on_c, 0, 79, 55
2, 374407, Control_c, 0, 64, 127
2, 374415, Note_on_c, 0, 60, 0
2, 374418, Note_on_c, 0, 65, 0
2, 374541, Note_on_c, 0, 55, 0
2, 374549, Note_on_c, 0, 57, 0
2, 375067, Note_on_c, 0, 64, 44
2, 375079, Note_on_c, 0, 59, 45
2, 375091, Note_on_c, 0, 53, 38
2, 375140, Control_c, 0, 64, 0
2, 375398, Control_c, 0, 64, 127
2, 375456, Note_on_c, 0, 79, 0
2, 375492, Note_on_c, 0, 64, 0
2, 375519, Note_on_c, 0, 59, 0
2, 375614, Note_on_c, 0, 53, 0
2, 376362, Note_on_c, 0, 57, 37
2, 376365, Note_on_c, 0, 62, 41
2, 376369, Note_on_c, 0, 86, 46
2, 376374, Control_c, 0, 64, 0
2, 376382, Note_on_c, 0, 74, 34
2, 376402, Note_on_c, 0, 52, 31
2, 376599, Note_on_c, 0, 62, 0
2, 376616, Note_on_c, 0, 74, 0
2, 376622, Note_on_c, 0, 57, 0
2, 376624, Note_on_c, 0, 52, 0
2, 376645, Note_on_c, 0, 86, 0
2, 377355, Note_on_c, 0, 88, 33
2, 377361, Note_on_c, 0, 57, 30
2, 377365, Note_on_c, 0, 62, 27
2, 377368, Note_on_c, 0, 76, 36
2, 377384, Note_on_c, 0, 52, 28
2, 377604, Note_on_c, 0, 52, 0
2, 377610, Note_on_c, 0, 88, 0
2, 377614, Note_on_c, 0, 76, 0
2, 377631, Note_on_c, 0, 57, 0
2, 377672, Note_on_c, 0, 62, 0
2, 378370, Note_on_c, 0, 88, 49
2, 378377, Note_on_c, 0, 65, 34
2, 378387, Note_on_c, 0, 76, 42
2, 378401, Note_on_c, 0, 55, 29
2, 378405, Note_on_c, 0, 60, 32
2, 378406, Note_on_c, 0, 57, 36
2, 378461, Control_c, 0, 64, 127
2, 379285, Note_on_c, 0, 76, 0
2, 379293, Note_on_c, 0, 88, 0
2, 379367, Note_on_c, 0, 60, 0
2, 379388, Note_on_c, 0, 65, 0
2, 379415, Note_on_c, 0, 57, 0
2, 379423, Note_on_c, 0, 55, 0
2, 379961, Note_on_c, 0, 64, 39
2, 379967, Note_on_c, 0, 59, 46
2, 380007, Note_on_c, 0, 81, 33
2, 380019, Note_on_c, 0, 59, 0
2, 380019, Note_on_c, 0, 64, 0
2, 380071, Note_on_c, 0, 81, 0
2, 380214, Control_c, 0, 64, 0
2, 380302, Note_on_c, 0, 57, 64
2, 380305, Note_on_c, 0, 62, 71
2, 380314, Note_on_c, 0, 86, 83
2, 380317, Note_on_c, 0, 74, 82
2, 380318, Note_on_c, 0, 52, 62
2, 380534, Control_c, 0, 64, 127
2, 380749, Note_on_c, 0, 74, 0
2, 380750, Note_on_c, 0, 52, 0
2, 380785, Note_on_c, 0, 86, 0
2, 380788, Note_on_c, 0, 62, 0
2, 380804, Note_on_c, 0, 57, 0
2, 380937, Note_on_c, 0, 57, 59
2, 380943, Note_on_c, 0, 88, 81
2, 380946, Note_on_c, 0, 62, 77
2, 380948, Note_on_c, 0, 76, 81
2, 380957, Note_on_c, 0, 52, 63
2, 381067, Control_c, 0, 64, 0
2, 381136, Note_on_c, 0, 52, 0
2, 381164, Note_on_c, 0, 62, 0
2, 381168, Note_on_c, 0, 76, 0
2, 381176, Note_on_c, 0, 88, 0
2, 381208, Note_on_c, 0, 57, 0
2, 381296, Note_on_c, 0, 57, 33
2, 381298, Note_on_c, 0, 62, 46
2, 381326, Note_on_c, 0, 88, 42
2, 381336, Note_on_c, 0, 52, 22
2, 381342, Control_c, 0, 64, 127
2, 381345, Note_on_c, 0, 76, 60
2, 381421, Note_on_c, 0, 52, 0
2, 381457, Note_on_c, 0, 57, 0
2, 381527, Note_on_c, 0, 62, 0
2, 381603, Note_on_c, 0, 88, 0
2, 381604, Note_on_c, 0, 76, 0
2, 381860, Control_c, 0, 64, 0
2, 381904, Note_on_c, 0, 65, 64
2, 381907, Note_on_c, 0, 55, 60
2, 381920, Note_on_c, 0, 88, 68
2, 381924, Note_on_c, 0, 61, 38
2, 381925, Note_on_c, 0, 76, 66
2, 381954, Note_on_c, 0, 65, 0
2, 381957, Note_on_c, 0, 55, 0
2, 381972, Note_on_c, 0, 88, 0
2, 381975, Note_on_c, 0, 61, 0
2, 381977, Note_on_c, 0, 76, 0
2, 382862, Note_on_c, 0, 61, 77
2, 382864, Note_on_c, 0, 85, 72
2, 382866, Note_on_c, 0, 88, 80
2, 382868, Note_on_c, 0, 82, 75
2, 382869, Note_on_c, 0, 64, 80
2, 382871, Note_on_c, 0, 76, 87
2, 382873, Note_on_c, 0, 58, 57
2, 382876, Note_on_c, 0, 55, 74
2, 383197, Control_c, 0, 64, 127
2, 383667, Note_on_c, 0, 55, 0
2, 383731, Note_on_c, 0, 64, 0
2, 383762, Note_on_c, 0, 76, 0
2, 383772, Note_on_c, 0, 58, 0
2, 383787, Note_on_c, 0, 88, 0
2, 383787, Note_on_c, 0, 85, 0
2, 383822, Note_on_c, 0, 82, 0
2, 383865, Note_on_c, 0, 61, 0
2, 384005, Control_c, 0, 64, 0
2, 384098, Note_on_c, 0, 64, 42
2, 384100, Note_on_c, 0, 60, 34
2, 384105, Note_on_c, 0, 53, 45
2, 384113, Note_on_c, 0, 88, 45
2, 384117, Note_on_c, 0, 57, 44
2, 384146, Note_on_c, 0, 76, 30
2, 384148, Note_on_c, 0, 84, 36
2, 384156, Note_on_c, 0, 81, 36
2, 384371, Control_c, 0, 64, 127
2, 384474, Note_on_c, 0, 88, 0
2, 384478, Note_on_c, 0, 76, 0
2, 384564, Note_on_c, 0, 64, 0
2, 384566, Note_on_c, 0, 57, 0
2, 384585, Note_on_c, 0, 84, 0
2, 384589, Note_on_c, 0, 60, 0
2, 384608, Note_on_c, 0, 81, 0
2, 384629, Note_on_c, 0, 53, 0
2, 384965, Control_c, 0, 64, 0
2, 385028, Note_on_c, 0, 53, 35
2, 385030, Note_on_c, 0, 64, 37
2, 385036, Note_on_c, 0, 89, 56
2, 385038, Note_on_c, 0, 60, 35
2, 385045, Note_on_c, 0, 57, 49
2, 385065, Note_on_c, 0, 77, 36
2, 385067, Note_on_c, 0, 81, 32
2, 385090, Note_on_c, 0, 84, 41
2, 385259, Note_on_c, 0, 89, 0
2, 385292, Note_on_c, 0, 84, 0
2, 385312, Note_on_c, 0, 81, 0
2, 385322, Note_on_c, 0, 60, 0
2, 385336, Note_on_c, 0, 64, 0
2, 385342, Note_on_c, 0, 57, 0
2, 385367, Note_on_c, 0, 77, 0
2, 385392, Note_on_c, 0, 53, 0
2, 385726, Control_c, 0, 64, 127
2, 385757, Control_c, 0, 64, 0
2, 385962, Note_on_c, 0, 86, 50
2, 385992, Note_on_c, 0, 77, 33
2, 385994, Note_on_c, 0, 57, 36
2, 385997, Note_on_c, 0, 64, 20
2, 385999, Note_on_c, 0, 60, 30
2, 386000, Note_on_c, 0, 81, 43
2, 386013, Note_on_c, 0, 74, 27
2, 386019, Note_on_c, 0, 53, 24
2, 386111, Control_c, 0, 64, 127
2, 386455, Note_on_c, 0, 86, 0
2, 386543, Note_on_c, 0, 77, 0
2, 386550, Note_on_c, 0, 81, 0
2, 386608, Note_on_c, 0, 74, 0
2, 386720, Note_on_c, 0, 60, 0
2, 386783, Note_on_c, 0, 64, 0
2, 386905, Note_on_c, 0, 57, 0
2, 386931, Note_on_c, 0, 53, 0
2, 387555, Note_on_c, 0, 61, 39
2, 387575, Note_on_c, 0, 64, 44
2, 387577, Note_on_c, 0, 76, 54
2, 387578, Note_on_c, 0, 57, 43
2, 387583, Note_on_c, 0, 53, 36
2, 387590, Note_on_c, 0, 73, 36
2, 387606, Note_on_c, 0, 69, 37
2, 387628, Note_on_c, 0, 65, 15
2, 387665, Control_c, 0, 64, 0
2, 388090, Note_on_c, 0, 65, 0
2, 388110, Note_on_c, 0, 69, 0
2, 388518, Note_on_c, 0, 73, 0
2, 388565, Note_on_c, 0, 76, 0
2, 388787, Note_on_c, 0, 73, 69
2, 388957, Note_on_c, 0, 73, 0
2, 389071, Note_on_c, 0, 74, 52
2, 389196, Note_on_c, 0, 61, 0
2, 389203, Note_on_c, 0, 74, 0
2, 389211, Note_on_c, 0, 73, 33
2, 389233, Note_on_c, 0, 64, 0
2, 389403, Note_on_c, 0, 69, 51
2, 389490, Note_on_c, 0, 73, 0
2, 389504, Note_on_c, 0, 61, 18
2, 389601, Note_on_c, 0, 69, 0
2, 389786, Note_on_c, 0, 72, 83
2, 389831, Note_on_c, 0, 61, 0
2, 390026, Note_on_c, 0, 72, 0
2, 390130, Note_on_c, 0, 57, 0
2, 390139, Note_on_c, 0, 74, 36
2, 390209, Note_on_c, 0, 72, 45
2, 390245, Note_on_c, 0, 74, 0
2, 390416, Note_on_c, 0, 69, 43
2, 390450, Note_on_c, 0, 72, 0
2, 390630, Note_on_c, 0, 69, 0
2, 390711, Note_on_c, 0, 70, 54
2, 390880, Note_on_c, 0, 70, 0
2, 390968, Note_on_c, 0, 71, 46
2, 391193, Note_on_c, 0, 71, 0
2, 391261, Note_on_c, 0, 74, 64
2, 391346, Note_on_c, 0, 53, 0
2, 391459, Note_on_c, 0, 74, 0
2, 391530, Note_on_c, 0, 76, 54
2, 391748, Note_on_c, 0, 76, 0
2, 391825, Note_on_c, 0, 77, 57
2, 392017, Note_on_c, 0, 77, 0
2, 392106, Note_on_c, 0, 64, 40
2, 392134, Note_on_c, 0, 53, 24
2, 392136, Note_on_c, 0, 67, 48
2, 392149, Note_on_c, 0, 57, 32
2, 392151, Note_on_c, 0, 79, 36
2, 392153, Note_on_c, 0, 60, 28
2, 392231, Note_on_c, 0, 60, 0
2, 392266, Note_on_c, 0, 64, 0
2, 392282, Note_on_c, 0, 67, 0
2, 392297, Note_on_c, 0, 57, 0
2, 392301, Note_on_c, 0, 53, 0
2, 392308, Note_on_c, 0, 79, 0
2, 392831, Control_c, 0, 64, 127
2, 393353, Note_on_c, 0, 60, 48
2, 393357, Note_on_c, 0, 88, 75
2, 393360, Note_on_c, 0, 53, 53
2, 393362, Note_on_c, 0, 64, 61
2, 393365, Note_on_c, 0, 57, 51
2, 393366, Note_on_c, 0, 76, 77
2, 393369, Note_on_c, 0, 83, 71
2, 393501, Note_on_c, 0, 76, 0
2, 393512, Note_on_c, 0, 64, 0
2, 393529, Note_on_c, 0, 60, 0
2, 393556, Note_on_c, 0, 83, 0
2, 393567, Note_on_c, 0, 88, 0
2, 393572, Note_on_c, 0, 57, 0
2, 393581, Note_on_c, 0, 53, 0
2, 393719, Control_c, 0, 64, 0
2, 393762, Note_on_c, 0, 89, 68
2, 393768, Note_on_c, 0, 77, 57
2, 393769, Note_on_c, 0, 84, 64
2, 393775, Note_on_c, 0, 64, 64
2, 393778, Note_on_c, 0, 60, 53
2, 393784, Note_on_c, 0, 57, 41
2, 393790, Note_on_c, 0, 53, 38
2, 393813, Note_on_c, 0, 89, 0
2, 393819, Note_on_c, 0, 77, 0
2, 393821, Note_on_c, 0, 84, 0
2, 393827, Note_on_c, 0, 64, 0
2, 393831, Note_on_c, 0, 60, 0
2, 393862, Note_on_c, 0, 57, 0
2, 393863, Note_on_c, 0, 53, 0
2, 394362, Note_on_c, 0, 64, 72
2, 394365, Note_on_c, 0, 60, 57
2, 394372, Note_on_c, 0, 53, 69
2, 394374, Note_on_c, 0, 57, 53
2, 394384, Note_on_c, 0, 89, 76
2, 394392, Note_on_c, 0, 77, 73
2, 394400, Note_on_c, 0, 84, 69
2, 394695, Control_c, 0, 64, 127
2, 394908, Note_on_c, 0, 89, 0
2, 394921, Note_on_c, 0, 77, 0
2, 394927, Note_on_c, 0, 84, 0
2, 395002, Note_on_c, 0, 64, 0
2, 395018, Note_on_c, 0, 60, 0
2, 395029, Note_on_c, 0, 53, 0
2, 395041, Note_on_c, 0, 57, 0
2, 395302, Note_on_c, 0, 64, 46
2, 395306, Note_on_c, 0, 53, 45
2, 395307, Note_on_c, 0, 60, 37
2, 395309, Note_on_c, 0, 57, 47
2, 395339, Note_on_c, 0, 81, 41
2, 395343, Note_on_c, 0, 69, 27
2, 395364, Note_on_c, 0, 60, 0
2, 395365, Note_on_c, 0, 64, 0
2, 395394, Note_on_c, 0, 69, 0
2, 395400, Note_on_c, 0, 81, 0
2, 395414, Note_on_c, 0, 53, 0
2, 395415, Note_on_c, 0, 57, 0
2, 395487, Control_c, 0, 64, 0
2, 395671, Note_on_c, 0, 64, 54
2, 395692, Note_on_c, 0, 88, 31
2, 395722, Note_on_c, 0, 64, 0
2, 395751, Note_on_c, 0, 88, 0
2, 396257, Note_on_c, 0, 64, 82
2, 396264, Note_on_c, 0, 59, 76
2, 396268, Note_on_c, 0, 57, 64
2, 396270, Note_on_c, 0, 53, 74
2, 396274, Note_on_c, 0, 88, 81
2, 396276, Note_on_c, 0, 76, 88
2, 396355, Note_on_c, 0, 64, 0
2, 396381, Note_on_c, 0, 76, 0
2, 396387, Note_on_c, 0, 57, 0
2, 396394, Note_on_c, 0, 59, 0
2, 396400, Note_on_c, 0, 88, 0
2, 396409, Note_on_c, 0, 53, 0
2, 396569, Control_c, 0, 64, 127
2, 396572, Note_on_c, 0, 64, 69
2, 396577, Note_on_c, 0, 59, 63
2, 396578, Note_on_c, 0, 53, 68
2, 396580, Note_on_c, 0, 57, 45
2, 396592, Note_on_c, 0, 89, 74
2, 396605, Note_on_c, 0, 77, 63
2, 396654, Note_on_c, 0, 84, 44
2, 396848, Note_on_c, 0, 64, 0
2, 396856, Note_on_c, 0, 77, 0
2, 396861, Note_on_c, 0, 84, 0
2, 396862, Note_on_c, 0, 57, 0
2, 396868, Note_on_c, 0, 53, 0
2, 396873, Note_on_c, 0, 59, 0
2, 396881, Note_on_c, 0, 89, 0
2, 397087, Control_c, 0, 64, 0
2, 397188, Note_on_c, 0, 89, 79
2, 397190, Note_on_c, 0, 64, 73
2, 397193, Note_on_c, 0, 53, 72
2, 397198, Note_on_c, 0, 59, 65
2, 397199, Note_on_c, 0, 57, 55
2, 397201, Note_on_c, 0, 77, 76
2, 397204, Note_on_c, 0, 84, 74
2, 397484, Control_c, 0, 64, 127
2, 397794, Note_on_c, 0, 64, 0
2, 397797, Note_on_c, 0, 57, 0
2, 397799, Note_on_c, 0, 59, 0
2, 397806, Note_on_c, 0, 77, 0
2, 397812, Note_on_c, 0, 84, 0
2, 397827, Note_on_c, 0, 53, 0
2, 397837, Note_on_c, 0, 89, 0
2, 398110, Note_on_c, 0, 64, 61
2, 398112, Note_on_c, 0, 89, 68
2, 398116, Note_on_c, 0, 53, 66
2, 398122, Control_c, 0, 64, 0
2, 398125, Note_on_c, 0, 59, 61
2, 398127, Note_on_c, 0, 57, 45
2, 398128, Note_on_c, 0, 77, 60
2, 398141, Note_on_c, 0, 84, 60
2, 398489, Control_c, 0, 64, 127
2, 398814, Note_on_c, 0, 57, 0
2, 398832, Note_on_c, 0, 53, 0
2, 398867, Note_on_c, 0, 64, 0
2, 398894, Note_on_c, 0, 59, 0
2, 398990, Note_on_c, 0, 84, 0
2, 398998, Note_on_c, 0, 77, 0
2, 399001, Note_on_c, 0, 89, 0
2, 399084, Note_on_c, 0, 64, 30
2, 399098, Note_on_c, 0, 59, 36
2, 399101, Note_on_c, 0, 53, 36
2, 399124, Note_on_c, 0, 57, 29
2, 399163, Note_on_c, 0, 64, 0
2, 399183, Note_on_c, 0, 59, 0
2, 399184, Note_on_c, 0, 57, 0
2, 399226, Note_on_c, 0, 53, 0
2, 399358, Control_c, 0, 64, 0
2, 399405, Note_on_c, 0, 62, 54
2, 399411, Note_on_c, 0, 89, 52
2, 399418, Note_on_c, 0, 77, 48
2, 399431, Note_on_c, 0, 57, 43
2, 399435, Note_on_c, 0, 84, 45
2, 399443, Note_on_c, 0, 55, 34
2, 399471, Note_on_c, 0, 52, 30
2, 399554, Note_on_c, 0, 62, 0
2, 399574, Note_on_c, 0, 52, 0
2, 399580, Note_on_c, 0, 55, 0
2, 399595, Note_on_c, 0, 57, 0
2, 399621, Note_on_c, 0, 77, 0
2, 399647, Note_on_c, 0, 84, 0
2, 399680, Note_on_c, 0, 89, 0
2, 400326, Note_on_c, 0, 57, 34
2, 400328, Note_on_c, 0, 91, 57
2, 400349, Note_on_c, 0, 62, 36
2, 400351, Note_on_c, 0, 86, 46
2, 400376, Note_on_c, 0, 79, 27
2, 400410, Control_c, 0, 64, 127
2, 400541, Note_on_c, 0, 86, 0
2, 400544, Note_on_c, 0, 91, 0
2, 400556, Note_on_c, 0, 62, 0
2, 400572, Note_on_c, 0, 57, 0
2, 400614, Note_on_c, 0, 79, 0
2, 401248, Control_c, 0, 64, 0
2, 401304, Note_on_c, 0, 57, 37
2, 401306, Note_on_c, 0, 88, 49
2, 401322, Note_on_c, 0, 62, 38
2, 401325, Note_on_c, 0, 52, 40
2, 401348, Note_on_c, 0, 84, 30
2, 401353, Note_on_c, 0, 81, 33
2, 401387, Note_on_c, 0, 76, 17
2, 401552, Control_c, 0, 64, 127
2, 401669, Note_on_c, 0, 88, 0
2, 401693, Note_on_c, 0, 84, 0
2, 401764, Note_on_c, 0, 81, 0
2, 401833, Note_on_c, 0, 76, 0
2, 402333, Note_on_c, 0, 67, 24
2, 402389, Note_on_c, 0, 67, 0
2, 402497, Control_c, 0, 64, 0
2, 403249, Note_on_c, 0, 67, 34
2, 403325, Note_on_c, 0, 67, 0
2, 403500, Note_on_c, 0, 72, 55
2, 403629, Note_on_c, 0, 72, 0
2, 403756, Note_on_c, 0, 76, 68
2, 403891, Note_on_c, 0, 76, 0
2, 403991, Note_on_c, 0, 77, 75
2, 404183, Note_on_c, 0, 77, 0
2, 404257, Note_on_c, 0, 76, 60
2, 404341, Note_on_c, 0, 62, 0
2, 404449, Note_on_c, 0, 76, 0
2, 404479, Note_on_c, 0, 57, 0
2, 404498, Note_on_c, 0, 72, 49
2, 404635, Note_on_c, 0, 72, 0
2, 404707, Note_on_c, 0, 67, 39
2, 404835, Note_on_c, 0, 67, 0
2, 404973, Note_on_c, 0, 65, 32
2, 405086, Note_on_c, 0, 65, 0
2, 405408, Note_on_c, 0, 63, 47
2, 405510, Note_on_c, 0, 63, 0
2, 405615, Note_on_c, 0, 64, 58
2, 405778, Note_on_c, 0, 64, 0
2, 405853, Note_on_c, 0, 65, 72
2, 406013, Note_on_c, 0, 65, 0
2, 406084, Note_on_c, 0, 66, 69
2, 406091, Note_on_c, 0, 62, 43
2, 406125, Note_on_c, 0, 57, 33
2, 406256, Note_on_c, 0, 62, 0
2, 406261, Note_on_c, 0, 66, 0
2, 406283, Note_on_c, 0, 57, 0
2, 406338, Note_on_c, 0, 67, 53
2, 406362, Note_on_c, 0, 52, 0
2, 406502, Note_on_c, 0, 67, 0
2, 406703, Control_c, 0, 64, 127
2, 406910, Note_on_c, 0, 69, 67
2, 407008, Control_c, 0, 64, 0
2, 407119, Note_on_c, 0, 69, 0
2, 407150, Note_on_c, 0, 62, 36
2, 407178, Note_on_c, 0, 66, 28
2, 407214, Note_on_c, 0, 58, 19
2, 407215, Note_on_c, 0, 62, 0
2, 407291, Note_on_c, 0, 58, 0
2, 407516, Note_on_c, 0, 66, 0
2, 408008, Note_on_c, 0, 90, 73
2, 408013, Note_on_c, 0, 62, 74
2, 408015, Note_on_c, 0, 78, 68
2, 408028, Control_c, 0, 64, 127
2, 408031, Note_on_c, 0, 58, 50
2, 408045, Note_on_c, 0, 57, 45
2, 408069, Note_on_c, 0, 52, 33
2, 408162, Note_on_c, 0, 52, 0
2, 408201, Note_on_c, 0, 62, 0
2, 408259, Note_on_c, 0, 58, 0
2, 408282, Note_on_c, 0, 57, 0
2, 408460, Note_on_c, 0, 78, 0
2, 408491, Note_on_c, 0, 90, 0
2, 408649, Note_on_c, 0, 57, 58
2, 408652, Note_on_c, 0, 91, 60
2, 408653, Note_on_c, 0, 62, 64
2, 408676, Note_on_c, 0, 79, 44
2, 408681, Note_on_c, 0, 58, 50
2, 408694, Note_on_c, 0, 52, 38
2, 408765, Note_on_c, 0, 52, 0
2, 408829, Note_on_c, 0, 58, 0
2, 408832, Note_on_c, 0, 62, 0
2, 408851, Control_c, 0, 64, 0
2, 408854, Note_on_c, 0, 91, 0
2, 408867, Note_on_c, 0, 57, 0
2, 408886, Note_on_c, 0, 79, 0
2, 409027, Note_on_c, 0, 62, 44
2, 409031, Note_on_c, 0, 52, 43
2, 409042, Note_on_c, 0, 91, 48
2, 409048, Note_on_c, 0, 57, 38
2, 409055, Note_on_c, 0, 79, 44
2, 409057, Note_on_c, 0, 58, 53
2, 409247, Control_c, 0, 64, 127
2, 409387, Note_on_c, 0, 52, 0
2, 409416, Note_on_c, 0, 91, 0
2, 409421, Note_on_c, 0, 62, 0
2, 409425, Note_on_c, 0, 57, 0
2, 409437, Note_on_c, 0, 58, 0
2, 409460, Note_on_c, 0, 79, 0
2, 409646, Note_on_c, 0, 62, 42
2, 409653, Note_on_c, 0, 79, 50
2, 409655, Note_on_c, 0, 91, 54
2, 409673, Note_on_c, 0, 52, 35
2, 409674, Note_on_c, 0, 57, 27
2, 409679, Note_on_c, 0, 58, 32
2, 409689, Control_c, 0, 64, 0
2, 409755, Note_on_c, 0, 57, 0
2, 409757, Note_on_c, 0, 58, 0
2, 409758, Note_on_c, 0, 52, 0
2, 409761, Note_on_c, 0, 91, 0
2, 409773, Note_on_c, 0, 79, 0
2, 409776, Note_on_c, 0, 62, 0
2, 410039, Control_c, 0, 64, 127
2, 410421, Control_c, 0, 64, 0
2, 410498, Control_c, 0, 64, 127
2, 410597, Note_on_c, 0, 72, 64
2, 410608, Note_on_c, 0, 57, 47
2, 410610, Note_on_c, 0, 84, 52
2, 410617, Note_on_c, 0, 62, 40
2, 410648, Note_on_c, 0, 72, 0
2, 410669, Note_on_c, 0, 57, 0
2, 410678, Note_on_c, 0, 62, 0
2, 410708, Note_on_c, 0, 84, 0
2, 410848, Control_c, 0, 64, 0
2, 411088, Note_on_c, 0, 62, 80
2, 411091, Note_on_c, 0, 78, 75
2, 411093, Note_on_c, 0, 90, 76
2, 411100, Note_on_c, 0, 57, 54
2, 411106, Note_on_c, 0, 52, 64
2, 411108, Note_on_c, 0, 58, 53
2, 411381, Control_c, 0, 64, 127
2, 411578, Note_on_c, 0, 62, 0
2, 411585, Note_on_c, 0, 52, 0
2, 411597, Note_on_c, 0, 57, 0
2, 411641, Note_on_c, 0, 58, 0
2, 411648, Note_on_c, 0, 78, 0
2, 411655, Control_c, 0, 64, 0
2, 411666, Note_on_c, 0, 90, 0
2, 411838, Control_c, 0, 64, 127
2, 411845, Note_on_c, 0, 62, 62
2, 411853, Note_on_c, 0, 91, 49
2, 411854, Note_on_c, 0, 52, 55
2, 411856, Note_on_c, 0, 58, 48
2, 411873, Note_on_c, 0, 57, 38
2, 411875, Note_on_c, 0, 79, 46
2, 412103, Note_on_c, 0, 62, 0
2, 412138, Note_on_c, 0, 52, 0
2, 412139, Note_on_c, 0, 57, 0
2, 412164, Note_on_c, 0, 58, 0
2, 412176, Note_on_c, 0, 91, 0
2, 412182, Note_on_c, 0, 79, 0
2, 412448, Control_c, 0, 64, 0
2, 412514, Note_on_c, 0, 91, 59
2, 412515, Note_on_c, 0, 58, 51
2, 412517, Note_on_c, 0, 62, 62
2, 412537, Note_on_c, 0, 52, 44
2, 412540, Note_on_c, 0, 57, 36
2, 412547, Note_on_c, 0, 79, 55
2, 412768, Control_c, 0, 64, 127
2, 412897, Note_on_c, 0, 79, 0
2, 412947, Note_on_c, 0, 91, 0
2, 412996, Note_on_c, 0, 62, 0
2, 412997, Note_on_c, 0, 57, 0
2, 413030, Note_on_c, 0, 58, 0
2, 413032, Note_on_c, 0, 52, 0
2, 413519, Note_on_c, 0, 93, 83
2, 413520, Note_on_c, 0, 57, 66
2, 413527, Note_on_c, 0, 62, 81
2, 413529, Note_on_c, 0, 58, 63
2, 413531, Note_on_c, 0, 81, 79
2, 413548, Control_c, 0, 64, 0
2, 413550, Note_on_c, 0, 52, 62
2, 413807, Control_c, 0, 64, 127
2, 414099, Note_on_c, 0, 93, 0
2, 414176, Note_on_c, 0, 52, 0
2, 414280, Note_on_c, 0, 58, 0
2, 414300, Note_on_c, 0, 57, 0
2, 414321, Note_on_c, 0, 81, 0
2, 414330, Note_on_c, 0, 62, 0
2, 414786, Note_on_c, 0, 79, 48
2, 414787, Note_on_c, 0, 91, 51
2, 414790, Note_on_c, 0, 87, 47
2, 414792, Note_on_c, 0, 64, 41
2, 414815, Note_on_c, 0, 57, 40
2, 414820, Note_on_c, 0, 60, 35
2, 414824, Note_on_c, 0, 53, 34
2, 414829, Control_c, 0, 64, 0
2, 414967, Note_on_c, 0, 88, 28
2, 415013, Note_on_c, 0, 87, 0
2, 415198, Note_on_c, 0, 91, 0
2, 415201, Note_on_c, 0, 60, 0
2, 415202, Note_on_c, 0, 88, 0
2, 415209, Note_on_c, 0, 79, 0
2, 415216, Note_on_c, 0, 57, 0
2, 415245, Note_on_c, 0, 64, 0
2, 415254, Note_on_c, 0, 53, 0
2, 415741, Note_on_c, 0, 64, 38
2, 415743, Note_on_c, 0, 89, 58
2, 415762, Note_on_c, 0, 60, 37
2, 415764, Note_on_c, 0, 53, 25
2, 415765, Note_on_c, 0, 77, 34
2, 415767, Note_on_c, 0, 57, 41
2, 415807, Note_on_c, 0, 86, 30
2, 416157, Note_on_c, 0, 89, 0
2, 416183, Note_on_c, 0, 60, 0
2, 416195, Note_on_c, 0, 57, 0
2, 416207, Note_on_c, 0, 64, 0
2, 416220, Note_on_c, 0, 77, 0
2, 416223, Note_on_c, 0, 86, 0
2, 416243, Note_on_c, 0, 53, 0
2, 416663, Note_on_c, 0, 64, 36
2, 416673, Control_c, 0, 64, 127
2, 416677, Note_on_c, 0, 53, 26
2, 416679, Note_on_c, 0, 60, 33
2, 416684, Note_on_c, 0, 89, 53
2, 416691, Note_on_c, 0, 57, 36
2, 416697, Note_on_c, 0, 77, 38
2, 416700, Note_on_c, 0, 86, 41
2, 416898, Note_on_c, 0, 86, 0
2, 416923, Note_on_c, 0, 89, 0
2, 416945, Note_on_c, 0, 60, 0
2, 416977, Note_on_c, 0, 77, 0
2, 416981, Note_on_c, 0, 57, 0
2, 416996, Note_on_c, 0, 64, 0
2, 417037, Note_on_c, 0, 53, 0
2, 417358, Control_c, 0, 64, 0
2, 417362, Note_on_c, 0, 88, 39
2, 417368, Note_on_c, 0, 53, 40
2, 417370, Note_on_c, 0, 64, 41
2, 417385, Note_on_c, 0, 60, 30
2, 417387, Note_on_c, 0, 57, 36
2, 417398, Note_on_c, 0, 84, 37
2, 417409, Note_on_c, 0, 76, 25
2, 417467, Note_on_c, 0, 60, 0
2, 417471, Note_on_c, 0, 84, 0
2, 417480, Note_on_c, 0, 76, 0
2, 417481, Note_on_c, 0, 64, 0
2, 417496, Note_on_c, 0, 88, 0
2, 417516, Note_on_c, 0, 53, 0
2, 417526, Note_on_c, 0, 57, 0
2, 417618, Control_c, 0, 64, 127
2, 418258, Control_c, 0, 64, 0
2, 418273, Note_on_c, 0, 86, 46
2, 418282, Note_on_c, 0, 56, 42
2, 418287, Note_on_c, 0, 62, 39
2, 418296, Note_on_c, 0, 67, 35
2, 418304, Note_on_c, 0, 81, 36
2, 418305, Note_on_c, 0, 74, 24
2, 418533, Control_c, 0, 64, 127
2, 418624, Note_on_c, 0, 74, 0
2, 418694, Note_on_c, 0, 81, 0
2, 418716, Note_on_c, 0, 86, 0
2, 419246, Note_on_c, 0, 98, 64
2, 419456, Note_on_c, 0, 98, 0
2, 419555, Note_on_c, 0, 67, 0
2, 419594, Note_on_c, 0, 62, 0
2, 419717, Note_on_c, 0, 56, 0
2, 421161, Note_on_c, 0, 86, 64
2, 421367, Note_on_c, 0, 86, 0
2, 421508, Note_on_c, 0, 74, 41
2, 421944, Note_on_c, 0, 74, 0
2, 422082, Control_c, 0, 64, 0
2, 422094, Note_on_c, 0, 74, 55
2, 422147, Note_on_c, 0, 74, 0
2, 423418, Note_on_c, 0, 88, 77
2, 423421, Note_on_c, 0, 76, 79
2, 423426, Note_on_c, 0, 56, 79
2, 423437, Note_on_c, 0, 67, 74
2, 423439, Note_on_c, 0, 62, 64
2, 423473, Control_c, 0, 64, 127
2, 424228, Note_on_c, 0, 76, 0
2, 424307, Note_on_c, 0, 88, 0
2, 424309, Note_on_c, 0, 67, 0
2, 424359, Note_on_c, 0, 62, 0
2, 424518, Note_on_c, 0, 56, 0
2, 424976, Note_on_c, 0, 91, 78
2, 424980, Note_on_c, 0, 85, 83
2, 424984, Note_on_c, 0, 79, 82
2, 424993, Note_on_c, 0, 61, 77
2, 424996, Note_on_c, 0, 55, 83
2, 424998, Note_on_c, 0, 66, 86
2, 425025, Note_on_c, 0, 89, 30
2, 425076, Note_on_c, 0, 89, 0
2, 425163, Note_on_c, 0, 85, 0
2, 425178, Note_on_c, 0, 86, 62
2, 425236, Note_on_c, 0, 91, 0
2, 425238, Note_on_c, 0, 55, 0
2, 425242, Note_on_c, 0, 66, 0
2, 425252, Note_on_c, 0, 79, 0
2, 425254, Note_on_c, 0, 86, 0
2, 425275, Control_c, 0, 64, 0
2, 425289, Note_on_c, 0, 61, 0
2, 425414, Note_on_c, 0, 55, 52
2, 425425, Note_on_c, 0, 66, 56
2, 425431, Note_on_c, 0, 61, 57
2, 425449, Note_on_c, 0, 89, 58
2, 425473, Note_on_c, 0, 77, 46
2, 425478, Note_on_c, 0, 84, 61
2, 425566, Control_c, 0, 64, 127
2, 425595, Note_on_c, 0, 89, 0
2, 425619, Note_on_c, 0, 84, 0
2, 425666, Note_on_c, 0, 55, 0
2, 425678, Note_on_c, 0, 77, 0
2, 425721, Note_on_c, 0, 66, 0
2, 425955, Note_on_c, 0, 61, 0
2, 426052, Note_on_c, 0, 86, 69
2, 426060, Note_on_c, 0, 74, 66
2, 426065, Note_on_c, 0, 54, 71
2, 426067, Note_on_c, 0, 65, 80
2, 426069, Note_on_c, 0, 81, 66
2, 426071, Note_on_c, 0, 60, 64
2, 426090, Control_c, 0, 64, 0
2, 426457, Control_c, 0, 64, 127
2, 427361, Note_on_c, 0, 65, 0
2, 427398, Note_on_c, 0, 60, 0
2, 427492, Note_on_c, 0, 74, 0
2, 427510, Note_on_c, 0, 54, 0
2, 427592, Note_on_c, 0, 81, 0
2, 427600, Note_on_c, 0, 86, 0
2, 428247, Note_on_c, 0, 88, 45
2, 428255, Control_c, 0, 64, 0
2, 428257, Note_on_c, 0, 76, 42
2, 428264, Note_on_c, 0, 82, 30
2, 428282, Note_on_c, 0, 53, 48
2, 428286, Note_on_c, 0, 59, 47
2, 428288, Note_on_c, 0, 64, 34
2, 428315, Note_on_c, 0, 82, 0
2, 428355, Note_on_c, 0, 83, 29
2, 429270, Note_on_c, 0, 64, 0
2, 429275, Control_c, 0, 64, 127
2, 429282, Note_on_c, 0, 59, 0
2, 429334, Note_on_c, 0, 88, 0
2, 429349, Note_on_c, 0, 83, 0
2, 429375, Note_on_c, 0, 76, 0
2, 429407, Note_on_c, 0, 53, 0
2, 430038, Control_c, 0, 64, 0
2, 430100, Note_on_c, 0, 86, 57
2, 430115, Note_on_c, 0, 62, 33
2, 430120, Note_on_c, 0, 57, 36
2, 430123, Note_on_c, 0, 74, 38
2, 430128, Note_on_c, 0, 52, 35
2, 430141, Note_on_c, 0, 79, 36
2, 430372, Control_c, 0, 64, 127
2, 430479, Note_on_c, 0, 86, 0
2, 430535, Note_on_c, 0, 79, 0
2, 430544, Note_on_c, 0, 52, 0
2, 430554, Note_on_c, 0, 74, 0
2, 430568, Note_on_c, 0, 62, 0
2, 430626, Note_on_c, 0, 57, 0
2, 430759, Note_on_c, 0, 84, 42
2, 430768, Note_on_c, 0, 62, 49
2, 430781, Note_on_c, 0, 57, 35
2, 430784, Control_c, 0, 64, 0
2, 430795, Note_on_c, 0, 72, 24
2, 430810, Note_on_c, 0, 79, 28
2, 430814, Note_on_c, 0, 52, 24
2, 430869, Note_on_c, 0, 79, 0
2, 430874, Note_on_c, 0, 72, 0
2, 430875, Note_on_c, 0, 57, 0
2, 430880, Note_on_c, 0, 52, 0
2, 430894, Note_on_c, 0, 62, 0
2, 430901, Note_on_c, 0, 84, 0
2, 431716, Note_on_c, 0, 72, 36
2, 431724, Note_on_c, 0, 84, 35
2, 431749, Note_on_c, 0, 62, 28
2, 431751, Note_on_c, 0, 57, 32
2, 431755, Note_on_c, 0, 79, 33
2, 431784, Note_on_c, 0, 52, 20
2, 432003, Control_c, 0, 64, 127
2, 432019, Note_on_c, 0, 72, 0
2, 432075, Note_on_c, 0, 57, 0
2, 432082, Note_on_c, 0, 79, 0
2, 432087, Note_on_c, 0, 62, 0
2, 432133, Note_on_c, 0, 52, 0
2, 432217, Note_on_c, 0, 84, 0
2, 434061, Control_c, 0, 64, 0
2, 434063, Note_on_c, 0, 96, 38
2, 434070, Note_on_c, 0, 89, 42
2, 434071, Note_on_c, 0, 81, 42
2, 434082, Note_on_c, 0, 86, 36
2, 434182, Control_c, 0, 64, 127
2, 434513, Note_on_c, 0, 81, 0
2, 434560, Note_on_c, 0, 86, 0
2, 434583, Note_on_c, 0, 89, 0
2, 434591, Note_on_c, 0, 96, 0
2, 434808, Control_c, 0, 64, 0
2, 435556, Note_on_c, 0, 96, 37
2, 435559, Note_on_c, 0, 88, 35
2, 435561, Note_on_c, 0, 91, 38
2, 435597, Note_on_c, 0, 81, 33
2, 435695, Note_on_c, 0, 81, 0
2, 435732, Note_on_c, 0, 88, 0
2, 435747, Note_on_c, 0, 91, 0
2, 435763, Note_on_c, 0, 96, 0
2, 436934, Note_on_c, 0, 24, 27
2, 438579, Note_on_c, 0, 24, 0
2, 438579, End_track
3, 0, Start_track
3, 0, Program_c, 1, 32
3, 0, Note_on_c, 1, 46, 53
3, 0, Note_on_c, 1, 46, 0
3, 0, Note_on_c, 1, 47, 43
3, 0, Note_on_c, 1, 47, 0
3, 71, Note_on_c, 1, 48, 70
3, 721, Note_on_c, 1, 48, 0
3, 740, Note_on_c, 1, 36, 94
3, 1995, Note_on_c, 1, 36, 0
3, 2006, Note_on_c, 1, 41, 87
3, 2966, Note_on_c, 1, 35, 83
3, 2972, Note_on_c, 1, 41, 0
3, 3945, Note_on_c, 1, 34, 77
3, 3990, Note_on_c, 1, 35, 0
3, 5191, Note_on_c, 1, 37, 48
3, 5252, Note_on_c, 1, 34, 0
3, 5254, Note_on_c, 1, 37, 0
3, 5425, Note_on_c, 1, 38, 51
3, 5659, Note_on_c, 1, 38, 0
3, 5752, Note_on_c, 1, 39, 71
3, 7060, Note_on_c, 1, 47, 56
3, 7168, Note_on_c, 1, 39, 0
3, 7173, Note_on_c, 1, 47, 0
3, 7323, Note_on_c, 1, 46, 69
3, 7461, Note_on_c, 1, 46, 0
3, 7658, Note_on_c, 1, 44, 72
3, 9008, Note_on_c, 1, 37, 39
3, 9034, Note_on_c, 1, 44, 0
3, 9163, Note_on_c, 1, 37, 0
3, 9298, Note_on_c, 1, 38, 44
3, 9585, Note_on_c, 1, 38, 0
3, 9644, Note_on_c, 1, 39, 58
3, 10268, Note_on_c, 1, 30, 47
3, 10470, Note_on_c, 1, 39, 0
3, 10600, Note_on_c, 1, 30, 0
3, 10636, Note_on_c, 1, 31, 67
3, 11515, Note_on_c, 1, 31, 0
3, 11560, Note_on_c, 1, 32, 62
3, 13496, Note_on_c, 1, 32, 0
3, 13555, Note_on_c, 1, 39, 60
3, 14212, Note_on_c, 1, 37, 48
3, 14359, Note_on_c, 1, 37, 0
3, 14480, Note_on_c, 1, 39, 0
3, 14501, Note_on_c, 1, 41, 79
3, 15148, Note_on_c, 1, 39, 53
3, 15246, Note_on_c, 1, 39, 0
3, 15325, Note_on_c, 1, 41, 0
3, 15438, Note_on_c, 1, 46, 77
3, 17287, Note_on_c, 1, 46, 0
3, 17325, Note_on_c, 1, 39, 54
3, 19245, Note_on_c, 1, 46, 64
3, 19290, Note_on_c, 1, 39, 0
3, 20853, Note_on_c, 1, 38, 54
3, 20907, Note_on_c, 1, 46, 0
3, 21126, Note_on_c, 1, 38, 0
3, 21177, Note_on_c, 1, 39, 56
3, 21850, Note_on_c, 1, 38, 49
3, 22001, Note_on_c, 1, 39, 0
3, 22039, Note_on_c, 1, 38, 0
3, 22076, Note_on_c, 1, 53, 101
3, 22765, Note_on_c, 1, 38, 36
3, 22832, Note_on_c, 1, 38, 0
3, 22968, Note_on_c, 1, 53, 0
3, 23032, Note_on_c, 1, 51, 65
3, 24913, Note_on_c, 1, 51, 0
3, 24980, Note_on_c, 1, 49, 44
3, 26242, Note_on_c, 1, 44, 44
3, 26291, Note_on_c, 1, 49, 0
3, 26476, Note_on_c, 1, 44, 0
3, 26517, Note_on_c, 1, 45, 58
3, 26777, Note_on_c, 1, 45, 0
3, 26847, Note_on_c, 1, 46, 45
3, 28478, Note_on_c, 1, 38, 52
3, 28496, Note_on_c, 1, 46, 0
3, 28728, Note_on_c, 1, 38, 0
3, 28805, Note_on_c, 1, 39, 55
3, 30314, Note_on_c, 1, 39, 0
3, 30360, Note_on_c, 1, 34, 50
3, 30624, Note_on_c, 1, 34, 0
3, 30680, Note_on_c, 1, 32, 61
3, 32362, Note_on_c, 1, 39, 52
3, 32502, Note_on_c, 1, 32, 0
3, 32686, Note_on_c, 1, 39, 0
3, 32689, Note_on_c, 1, 49, 76
3, 33289, Note_on_c, 1, 39, 48
3, 33363, Note_on_c, 1, 39, 0
3, 33508, Note_on_c, 1, 49, 0
3, 33599, Note_on_c, 1, 48, 74
3, 34503, Note_on_c, 1, 48, 0
3, 34569, Note_on_c, 1, 46, 39
3, 35496, Note_on_c, 1, 46, 0
3, 35529, Note_on_c, 1, 45, 55
3, 36443, Note_on_c, 1, 45, 0
3, 36488, Note_on_c, 1, 44, 53
3, 37161, Note_on_c, 1, 39, 53
3, 37367, Note_on_c, 1, 44, 0
3, 37373, Note_on_c, 1, 39, 0
3, 37506, Note_on_c, 1, 36, 60
3, 37932, Note_on_c, 1, 36, 0
3, 38199, Note_on_c, 1, 34, 81
3, 38506, Note_on_c, 1, 34, 0
3, 38551, Note_on_c, 1, 32, 74
3, 38587, Note_on_c, 1, 34, 23
3, 38636, Note_on_c, 1, 34, 0
3, 40380, Note_on_c, 1, 39, 71
3, 40397, Note_on_c, 1, 32, 0
3, 42320, Note_on_c, 1, 51, 83
3, 42428, Note_on_c, 1, 39, 0
3, 43891, Note_on_c, 1, 39, 47
3, 43963, Note_on_c, 1, 51, 0
3, 44142, Note_on_c, 1, 39, 0
3, 44180, Note_on_c, 1, 44, 85
3, 45117, Note_on_c, 1, 39, 64
3, 45139, Note_on_c, 1, 44, 0
3, 46085, Note_on_c, 1, 39, 0
3, 46104, Note_on_c, 1, 37, 76
3, 48008, Note_on_c, 1, 37, 0
3, 48013, Note_on_c, 1, 44, 71
3, 49632, Note_on_c, 1, 53, 96
3, 49928, Note_on_c, 1, 53, 0
3, 49952, Note_on_c, 1, 54, 75
3, 50047, Note_on_c, 1, 44, 0
3, 50623, Note_on_c, 1, 44, 25
3, 50695, Note_on_c, 1, 44, 0
3, 50856, Note_on_c, 1, 49, 64
3, 51068, Note_on_c, 1, 54, 0
3, 52476, Note_on_c, 1, 39, 34
3, 52685, Note_on_c, 1, 39, 0
3, 52747, Note_on_c, 1, 42, 49
3, 53444, Note_on_c, 1, 42, 0
3, 53672, Note_on_c, 1, 49, 0
3, 54326, Note_on_c, 1, 35, 82
3, 54575, Note_on_c, 1, 35, 0
3, 54630, Note_on_c, 1, 36, 92
3, 56300, Note_on_c, 1, 47, 108
3, 56357, Note_on_c, 1, 36, 0
3, 57263, Note_on_c, 1, 35, 60
3, 57388, Note_on_c, 1, 35, 0
3, 57596, Note_on_c, 1, 47, 0
3, 57608, Note_on_c, 1, 46, 62
3, 58952, Note_on_c, 1, 37, 55
3, 59093, Note_on_c, 1, 37, 0
3, 59233, Note_on_c, 1, 38, 61
3, 59425, Note_on_c, 1, 38, 0
3, 59508, Note_on_c, 1, 46, 0
3, 59545, Note_on_c, 1, 39, 64
3, 60216, Note_on_c, 1, 37, 36
3, 60477, Note_on_c, 1, 37, 0
3, 60507, Note_on_c, 1, 45, 89
3, 60569, Note_on_c, 1, 39, 0
3, 61140, Note_on_c, 1, 38, 54
3, 61266, Note_on_c, 1, 38, 0
3, 61316, Note_on_c, 1, 45, 0
3, 61466, Note_on_c, 1, 44, 75
3, 63060, Note_on_c, 1, 30, 77
3, 63112, Note_on_c, 1, 44, 0
3, 63320, Note_on_c, 1, 30, 0
3, 63407, Note_on_c, 1, 29, 90
3, 65304, Note_on_c, 1, 40, 92
3, 65387, Note_on_c, 1, 29, 0
3, 66912, Note_on_c, 1, 35, 45
3, 66980, Note_on_c, 1, 35, 0
3, 67249, Note_on_c, 1, 40, 0
3, 67250, Note_on_c, 1, 39, 74
3, 67426, Note_on_c, 1, 39, 0
3, 67894, Note_on_c, 1, 33, 82
3, 69095, Note_on_c, 1, 33, 0
3, 69140, Note_on_c, 1, 32, 68
3, 70554, Note_on_c, 1, 37, 54
3, 70567, Note_on_c, 1, 32, 0
3, 70759, Note_on_c, 1, 37, 0
3, 70835, Note_on_c, 1, 38, 44
3, 71051, Note_on_c, 1, 38, 0
3, 71110, Note_on_c, 1, 39, 60
3, 71783, Note_on_c, 1, 38, 32
3, 71927, Note_on_c, 1, 38, 0
3, 72019, Note_on_c, 1, 42, 47
3, 72171, Note_on_c, 1, 39, 0
3, 72173, Note_on_c, 1, 42, 0
3, 72313, Note_on_c, 1, 43, 49
3, 72427, Note_on_c, 1, 43, 0
3, 72595, Note_on_c, 1, 44, 79
3, 74891, Note_on_c, 1, 37, 51
3, 75050, Note_on_c, 1, 37, 0
3, 75466, Note_on_c, 1, 44, 0
3, 75552, Note_on_c, 1, 40, 71
3, 75799, Note_on_c, 1, 40, 0
3, 75870, Note_on_c, 1, 41, 76
3, 76753, Note_on_c, 1, 41, 0
3, 76826, Note_on_c, 1, 34, 71
3, 78678, Note_on_c, 1, 41, 69
3, 78726, Note_on_c, 1, 34, 0
3, 80569, Note_on_c, 1, 51, 73
3, 80645, Note_on_c, 1, 41, 0
3, 82156, Note_on_c, 1, 39, 59
3, 82268, Note_on_c, 1, 39, 0
3, 82398, Note_on_c, 1, 51, 0
3, 82470, Note_on_c, 1, 49, 62
3, 83477, Note_on_c, 1, 51, 25
3, 83539, Note_on_c, 1, 51, 0
3, 83638, Note_on_c, 1, 49, 0
3, 83790, Note_on_c, 1, 44, 45
3, 83975, Note_on_c, 1, 44, 0
3, 84020, Note_on_c, 1, 45, 66
3, 84206, Note_on_c, 1, 45, 0
3, 84395, Note_on_c, 1, 46, 73
3, 86395, Note_on_c, 1, 41, 71
3, 86450, Note_on_c, 1, 46, 0
3, 87979, Note_on_c, 1, 41, 0
3, 87988, Note_on_c, 1, 33, 57
3, 88228, Note_on_c, 1, 33, 0
3, 88300, Note_on_c, 1, 34, 67
3, 88950, Note_on_c, 1, 37, 64
3, 89036, Note_on_c, 1, 34, 0
3, 89093, Note_on_c, 1, 37, 0
3, 89275, Note_on_c, 1, 39, 64
3, 90909, Note_on_c, 1, 34, 62
3, 90924, Note_on_c, 1, 39, 0
3, 91063, Note_on_c, 1, 34, 0
3, 91193, Note_on_c, 1, 33, 65
3, 92076, Note_on_c, 1, 33, 0
3, 92143, Note_on_c, 1, 32, 63
3, 93510, Note_on_c, 1, 37, 46
3, 93511, Note_on_c, 1, 32, 0
3, 93699, Note_on_c, 1, 37, 0
3, 93788, Note_on_c, 1, 38, 44
3, 94037, Note_on_c, 1, 38, 0
3, 94118, Note_on_c, 1, 39, 60
3, 95059, Note_on_c, 1, 49, 86
3, 95091, Note_on_c, 1, 39, 0
3, 95729, Note_on_c, 1, 39, 32
3, 95787, Note_on_c, 1, 39, 0
3, 95957, Note_on_c, 1, 49, 0
3, 96031, Note_on_c, 1, 48, 66
3, 96913, Note_on_c, 1, 48, 0
3, 96978, Note_on_c, 1, 46, 62
3, 97918, Note_on_c, 1, 44, 58
3, 97930, Note_on_c, 1, 46, 0
3, 98559, Note_on_c, 1, 44, 0
3, 98579, Note_on_c, 1, 42, 50
3, 98891, Note_on_c, 1, 43, 55
3, 99102, Note_on_c, 1, 42, 0
3, 99604, Note_on_c, 1, 42, 25
3, 99669, Note_on_c, 1, 43, 0
3, 99728, Note_on_c, 1, 42, 0
3, 99826, Note_on_c, 1, 44, 54
3, 99943, Note_on_c, 1, 44, 0
3, 100470, Note_on_c, 1, 39, 44
3, 100623, Note_on_c, 1, 39, 0
3, 100766, Note_on_c, 1, 32, 69
3, 102378, Note_on_c, 1, 39, 25
3, 102596, Note_on_c, 1, 39, 0
3, 102704, Note_on_c, 1, 44, 57
3, 102810, Note_on_c, 1, 44, 0
3, 102868, Note_on_c, 1, 32, 0
3, 103031, Note_on_c, 1, 39, 46
3, 103085, Note_on_c, 1, 39, 0
3, 103316, Note_on_c, 1, 32, 77
3, 105357, Note_on_c, 1, 44, 75
3, 105928, Note_on_c, 1, 32, 0
3, 105999, Note_on_c, 1, 38, 45
3, 106011, Note_on_c, 1, 44, 0
3, 106267, Note_on_c, 1, 38, 0
3, 106284, Note_on_c, 1, 32, 75
3, 106446, Note_on_c, 1, 32, 0
3, 106619, Note_on_c, 1, 32, 61
3, 107257, Note_on_c, 1, 37, 45
3, 107324, Note_on_c, 1, 32, 0
3, 107483, Note_on_c, 1, 37, 0
3, 107582, Note_on_c, 1, 37, 79
3, 109070, Note_on_c, 1, 37, 0
3, 109123, Note_on_c, 1, 37, 69
3, 109349, Note_on_c, 1, 37, 0
3, 109495, Note_on_c, 1, 37, 60
3, 110448, Note_on_c, 1, 49, 70
3, 110520, Note_on_c, 1, 37, 0
3, 111078, Note_on_c, 1, 37, 44
3, 111352, Note_on_c, 1, 37, 0
3, 111357, Note_on_c, 1, 49, 0
3, 111407, Note_on_c, 1, 54, 64
3, 112135, Note_on_c, 1, 41, 58
3, 112228, Note_on_c, 1, 41, 0
3, 112270, Note_on_c, 1, 54, 0
3, 112389, Note_on_c, 1, 42, 70
3, 113326, Note_on_c, 1, 37, 58
3, 113329, Note_on_c, 1, 42, 0
3, 114184, Note_on_c, 1, 37, 0
3, 114210, Note_on_c, 1, 30, 52
3, 114429, Note_on_c, 1, 30, 0
3, 114577, Note_on_c, 1, 34, 75
3, 114717, Note_on_c, 1, 34, 0
3, 114883, Note_on_c, 1, 35, 71
3, 115136, Note_on_c, 1, 35, 0
3, 115228, Note_on_c, 1, 36, 71
3, 115850, Note_on_c, 1, 48, 108
3, 116297, Note_on_c, 1, 36, 0
3, 117734, Note_on_c, 1, 40, 55
3, 117790, Note_on_c, 1, 40, 0
3, 118039, Note_on_c, 1, 48, 0
3, 118079, Note_on_c, 1, 47, 66
3, 118709, Note_on_c, 1, 35, 57
3, 118961, Note_on_c, 1, 35, 0
3, 119035, Note_on_c, 1, 47, 0
3, 119067, Note_on_c, 1, 34, 59
3, 119783, Note_on_c, 1, 36, 35
3, 119871, Note_on_c, 1, 36, 0
3, 120007, Note_on_c, 1, 46, 70
3, 120035, Note_on_c, 1, 34, 0
3, 120703, Note_on_c, 1, 34, 59
3, 120826, Note_on_c, 1, 34, 0
3, 120907, Note_on_c, 1, 46, 0
3, 120998, Note_on_c, 1, 45, 59
3, 121319, Note_on_c, 1, 45, 0
3, 121622, Note_on_c, 1, 33, 58
3, 121795, Note_on_c, 1, 33, 0
3, 121936, Note_on_c, 1, 39, 65
3, 122548, Note_on_c, 1, 34, 53
3, 122644, Note_on_c, 1, 34, 0
3, 122655, Note_on_c, 1, 39, 0
3, 122872, Note_on_c, 1, 32, 64
3, 124545, Note_on_c, 1, 42, 83
3, 124551, Note_on_c, 1, 32, 0
3, 124827, Note_on_c, 1, 42, 0
3, 124898, Note_on_c, 1, 41, 67
3, 124987, Note_on_c, 1, 41, 0
3, 125226, Note_on_c, 1, 36, 58
3, 125371, Note_on_c, 1, 36, 0
3, 125492, Note_on_c, 1, 30, 57
3, 125706, Note_on_c, 1, 30, 0
3, 125828, Note_on_c, 1, 29, 62
3, 126695, Note_on_c, 1, 29, 0
3, 126775, Note_on_c, 1, 34, 69
3, 127435, Note_on_c, 1, 38, 33
3, 127515, Note_on_c, 1, 38, 0
3, 127684, Note_on_c, 1, 46, 85
3, 127723, Note_on_c, 1, 34, 0
3, 128306, Note_on_c, 1, 34, 49
3, 128519, Note_on_c, 1, 34, 0
3, 128534, Note_on_c, 1, 46, 0
3, 128622, Note_on_c, 1, 45, 61
3, 129618, Note_on_c, 1, 39, 59
3, 129647, Note_on_c, 1, 45, 0
3, 130010, Note_on_c, 1, 39, 0
3, 130264, Note_on_c, 1, 39, 59
3, 130449, Note_on_c, 1, 39, 0
3, 130550, Note_on_c, 1, 32, 61
3, 131486, Note_on_c, 1, 32, 0
3, 131529, Note_on_c, 1, 36, 71
3, 132409, Note_on_c, 1, 36, 0
3, 132555, Note_on_c, 1, 41, 90
3, 133265, Note_on_c, 1, 36, 33
3, 133353, Note_on_c, 1, 36, 0
3, 133446, Note_on_c, 1, 41, 0
3, 133486, Note_on_c, 1, 40, 66
3, 134380, Note_on_c, 1, 40, 0
3, 134425, Note_on_c, 1, 39, 64
3, 135229, Note_on_c, 1, 39, 0
3, 135382, Note_on_c, 1, 39, 73
3, 136251, Note_on_c, 1, 39, 0
3, 136303, Note_on_c, 1, 41, 65
3, 137231, Note_on_c, 1, 41, 0
3, 137241, Note_on_c, 1, 33, 76
3, 138197, Note_on_c, 1, 34, 67
3, 138205, Note_on_c, 1, 33, 0
3, 138860, Note_on_c, 1, 32, 25
3, 139075, Note_on_c, 1, 40, 73
3, 139104, Note_on_c, 1, 34, 0
3, 139132, Note_on_c, 1, 32, 0
3, 139800, Note_on_c, 1, 36, 34
3, 139917, Note_on_c, 1, 36, 0
3, 140059, Note_on_c, 1, 40, 0
3, 140077, Note_on_c, 1, 41, 72
3, 140999, Note_on_c, 1, 41, 0
3, 141027, Note_on_c, 1, 40, 77
3, 141754, Note_on_c, 1, 36, 30
3, 141827, Note_on_c, 1, 36, 0
3, 141988, Note_on_c, 1, 40, 0
3, 142023, Note_on_c, 1, 39, 71
3, 142968, Note_on_c, 1, 31, 68
3, 143888, Note_on_c, 1, 31, 0
3, 143958, Note_on_c, 1, 32, 67
3, 144085, Note_on_c, 1, 39, 0
3, 144908, Note_on_c, 1, 32, 0
3, 144910, Note_on_c, 1, 33, 82
3, 145663, Note_on_c, 1, 32, 49
3, 145700, Note_on_c, 1, 33, 0
3, 145858, Note_on_c, 1, 32, 0
3, 145907, Note_on_c, 1, 34, 64
3, 146580, Note_on_c, 1, 32, 44
3, 146809, Note_on_c, 1, 49, 86
3, 146848, Note_on_c, 1, 34, 0
3, 146891, Note_on_c, 1, 32, 0
3, 147556, Note_on_c, 1, 36, 38
3, 147650, Note_on_c, 1, 36, 0
3, 147695, Note_on_c, 1, 49, 0
3, 147769, Note_on_c, 1, 48, 78
3, 148439, Note_on_c, 1, 36, 36
3, 148519, Note_on_c, 1, 36, 0
3, 148648, Note_on_c, 1, 48, 0
3, 148743, Note_on_c, 1, 47, 71
3, 149677, Note_on_c, 1, 47, 0
3, 149702, Note_on_c, 1, 46, 56
3, 150589, Note_on_c, 1, 46, 0
3, 150605, Note_on_c, 1, 38, 59
3, 151579, Note_on_c, 1, 38, 0
3, 151604, Note_on_c, 1, 39, 67
3, 152398, Note_on_c, 1, 39, 0
3, 152543, Note_on_c, 1, 39, 62
3, 153475, Note_on_c, 1, 39, 0
3, 153480, Note_on_c, 1, 32, 71
3, 154467, Note_on_c, 1, 39, 64
3, 154625, Note_on_c, 1, 32, 0
3, 155462, Note_on_c, 1, 48, 96
3, 155529, Note_on_c, 1, 39, 0
3, 156156, Note_on_c, 1, 39, 37
3, 156238, Note_on_c, 1, 39, 0
3, 156414, Note_on_c, 1, 48, 0
3, 156439, Note_on_c, 1, 46, 71
3, 157086, Note_on_c, 1, 39, 37
3, 157135, Note_on_c, 1, 39, 0
3, 157352, Note_on_c, 1, 46, 0
3, 157394, Note_on_c, 1, 44, 67
3, 158260, Note_on_c, 1, 44, 0
3, 158303, Note_on_c, 1, 42, 68
3, 158998, Note_on_c, 1, 39, 35
3, 159079, Note_on_c, 1, 39, 0
3, 159298, Note_on_c, 1, 43, 69
3, 159302, Note_on_c, 1, 42, 0
3, 159959, Note_on_c, 1, 39, 40
3, 160049, Note_on_c, 1, 39, 0
3, 160243, Note_on_c, 1, 44, 83
3, 160244, Note_on_c, 1, 43, 0
3, 161116, Note_on_c, 1, 44, 0
3, 161140, Note_on_c, 1, 30, 76
3, 162142, Note_on_c, 1, 30, 0
3, 162159, Note_on_c, 1, 31, 77
3, 163143, Note_on_c, 1, 31, 0
3, 163152, Note_on_c, 1, 32, 82
3, 164076, Note_on_c, 1, 42, 86
3, 164169, Note_on_c, 1, 32, 0
3, 165092, Note_on_c, 1, 43, 71
3, 165094, Note_on_c, 1, 42, 0
3, 165737, Note_on_c, 1, 32, 26
3, 165822, Note_on_c, 1, 32, 0
3, 165965, Note_on_c, 1, 43, 0
3, 166020, Note_on_c, 1, 44, 75
3, 167004, Note_on_c, 1, 30, 69
3, 167018, Note_on_c, 1, 44, 0
3, 167633, Note_on_c, 1, 30, 0
3, 167666, Note_on_c, 1, 31, 66
3, 167900, Note_on_c, 1, 31, 0
3, 167981, Note_on_c, 1, 32, 71
3, 168638, Note_on_c, 1, 30, 52
3, 168785, Note_on_c, 1, 32, 0
3, 168802, Note_on_c, 1, 30, 0
3, 168917, Note_on_c, 1, 37, 79
3, 169867, Note_on_c, 1, 41, 81
3, 170409, Note_on_c, 1, 41, 0
3, 170513, Note_on_c, 1, 41, 41
3, 170828, Note_on_c, 1, 51, 77
3, 170903, Note_on_c, 1, 37, 0
3, 170909, Note_on_c, 1, 41, 0
3, 171466, Note_on_c, 1, 41, 35
3, 171667, Note_on_c, 1, 41, 0
3, 171790, Note_on_c, 1, 49, 73
3, 171861, Note_on_c, 1, 51, 0
3, 172423, Note_on_c, 1, 42, 31
3, 172471, Note_on_c, 1, 42, 0
3, 172691, Note_on_c, 1, 49, 0
3, 172740, Note_on_c, 1, 46, 62
3, 173658, Note_on_c, 1, 46, 0
3, 173719, Note_on_c, 1, 42, 50
3, 174683, Note_on_c, 1, 30, 60
3, 174804, Note_on_c, 1, 42, 0
3, 175431, Note_on_c, 1, 30, 0
3, 175431, Note_on_c, 1, 37, 37
3, 175580, Note_on_c, 1, 37, 0
3, 175663, Note_on_c, 1, 42, 70
3, 176357, Note_on_c, 1, 39, 47
3, 176453, Note_on_c, 1, 37, 20
3, 176504, Note_on_c, 1, 42, 0
3, 176526, Note_on_c, 1, 37, 0
3, 176603, Note_on_c, 1, 39, 0
3, 176640, Note_on_c, 1, 48, 83
3, 177273, Note_on_c, 1, 43, 51
3, 177427, Note_on_c, 1, 48, 0
3, 177444, Note_on_c, 1, 43, 0
3, 177593, Note_on_c, 1, 42, 64
3, 178269, Note_on_c, 1, 39, 44
3, 178440, Note_on_c, 1, 42, 0
3, 178463, Note_on_c, 1, 39, 0
3, 178518, Note_on_c, 1, 41, 65
3, 179177, Note_on_c, 1, 41, 0
3, 179213, Note_on_c, 1, 36, 73
3, 179335, Note_on_c, 1, 36, 0
3, 179487, Note_on_c, 1, 34, 82
3, 180429, Note_on_c, 1, 34, 0
3, 180566, Note_on_c, 1, 34, 46
3, 181476, Note_on_c, 1, 39, 72
3, 181503, Note_on_c, 1, 34, 0
3, 182195, Note_on_c, 1, 34, 43
3, 182480, Note_on_c, 1, 51, 82
3, 182518, Note_on_c, 1, 34, 0
3, 182544, Note_on_c, 1, 39, 0
3, 183230, Note_on_c, 1, 43, 38
3, 183267, Note_on_c, 1, 51, 0
3, 183306, Note_on_c, 1, 43, 0
3, 183396, Note_on_c, 1, 51, 77
3, 184076, Note_on_c, 1, 42, 37
3, 184206, Note_on_c, 1, 51, 0
3, 184286, Note_on_c, 1, 42, 0
3, 184336, Note_on_c, 1, 44, 60
3, 185001, Note_on_c, 1, 39, 26
3, 185224, Note_on_c, 1, 53, 85
3, 185226, Note_on_c, 1, 39, 0
3, 185324, Note_on_c, 1, 44, 0
3, 185917, Note_on_c, 1, 44, 35
3, 186081, Note_on_c, 1, 44, 0
3, 186108, Note_on_c, 1, 53, 0
3, 186167, Note_on_c, 1, 51, 68
3, 187109, Note_on_c, 1, 44, 72
3, 187116, Note_on_c, 1, 51, 0
3, 187826, Note_on_c, 1, 39, 32
3, 188011, Note_on_c, 1, 44, 0
3, 188085, Note_on_c, 1, 39, 0
3, 188089, Note_on_c, 1, 53, 92
3, 188742, Note_on_c, 1, 39, 78
3, 188899, Note_on_c, 1, 39, 0
3, 188920, Note_on_c, 1, 53, 0
3, 189025, Note_on_c, 1, 40, 70
3, 189803, Note_on_c, 1, 39, 25
3, 189945, Note_on_c, 1, 39, 0
3, 189947, Note_on_c, 1, 40, 0
3, 190007, Note_on_c, 1, 41, 75
3, 190643, Note_on_c, 1, 36, 67
3, 190696, Note_on_c, 1, 41, 0
3, 190798, Note_on_c, 1, 36, 0
3, 190932, Note_on_c, 1, 35, 78
3, 191868, Note_on_c, 1, 35, 0
3, 191908, Note_on_c, 1, 34, 69
3, 192962, Note_on_c, 1, 40, 78
3, 193124, Note_on_c, 1, 34, 0
3, 193666, Note_on_c, 1, 34, 45
3, 193828, Note_on_c, 1, 34, 0
3, 193900, Note_on_c, 1, 40, 0
3, 193947, Note_on_c, 1, 41, 77
3, 194906, Note_on_c, 1, 29, 79
3, 194944, Note_on_c, 1, 41, 0
3, 195766, Note_on_c, 1, 29, 0
3, 195831, Note_on_c, 1, 34, 75
3, 196757, Note_on_c, 1, 41, 87
3, 196814, Note_on_c, 1, 34, 0
3, 197456, Note_on_c, 1, 34, 52
3, 197614, Note_on_c, 1, 34, 0
3, 197644, Note_on_c, 1, 41, 0
3, 197717, Note_on_c, 1, 43, 75
3, 198591, Note_on_c, 1, 31, 76
3, 198649, Note_on_c, 1, 43, 0
3, 199490, Note_on_c, 1, 31, 0
3, 199576, Note_on_c, 1, 36, 66
3, 200551, Note_on_c, 1, 50, 91
3, 200616, Note_on_c, 1, 36, 0
3, 201276, Note_on_c, 1, 36, 22
3, 201384, Note_on_c, 1, 36, 0
3, 201425, Note_on_c, 1, 50, 0
3, 201480, Note_on_c, 1, 48, 63
3, 202489, Note_on_c, 1, 42, 56
3, 202509, Note_on_c, 1, 48, 0
3, 203418, Note_on_c, 1, 42, 0
3, 203457, Note_on_c, 1, 41, 67
3, 204386, Note_on_c, 1, 36, 71
3, 204387, Note_on_c, 1, 41, 0
3, 205336, Note_on_c, 1, 30, 73
3, 205344, Note_on_c, 1, 36, 0
3, 206162, Note_on_c, 1, 30, 0
3, 206265, Note_on_c, 1, 30, 67
3, 207121, Note_on_c, 1, 30, 0
3, 207227, Note_on_c, 1, 29, 68
3, 208141, Note_on_c, 1, 29, 0
3, 208216, Note_on_c, 1, 31, 69
3, 209135, Note_on_c, 1, 31, 0
3, 209162, Note_on_c, 1, 33, 65
3, 210103, Note_on_c, 1, 38, 78
3, 210166, Note_on_c, 1, 33, 0
3, 210791, Note_on_c, 1, 33, 44
3, 210910, Note_on_c, 1, 33, 0
3, 211069, Note_on_c, 1, 36, 59
3, 211070, Note_on_c, 1, 38, 0
3, 212003, Note_on_c, 1, 36, 0
3, 212042, Note_on_c, 1, 41, 72
3, 212867, Note_on_c, 1, 41, 0
3, 212990, Note_on_c, 1, 29, 73
3, 213926, Note_on_c, 1, 29, 0
3, 213956, Note_on_c, 1, 33, 78
3, 214891, Note_on_c, 1, 33, 0
3, 214905, Note_on_c, 1, 34, 74
3, 215880, Note_on_c, 1, 36, 74
3, 215927, Note_on_c, 1, 34, 0
3, 216908, Note_on_c, 1, 38, 63
3, 216978, Note_on_c, 1, 36, 0
3, 217641, Note_on_c, 1, 37, 27
3, 217847, Note_on_c, 1, 37, 0
3, 217880, Note_on_c, 1, 43, 89
3, 217894, Note_on_c, 1, 38, 0
3, 218547, Note_on_c, 1, 38, 38
3, 218676, Note_on_c, 1, 38, 0
3, 218789, Note_on_c, 1, 43, 0
3, 218794, Note_on_c, 1, 41, 74
3, 219464, Note_on_c, 1, 38, 47
3, 219617, Note_on_c, 1, 38, 0
3, 219644, Note_on_c, 1, 41, 0
3, 219697, Note_on_c, 1, 50, 79
3, 220454, Note_on_c, 1, 38, 36
3, 220584, Note_on_c, 1, 50, 0
3, 220586, Note_on_c, 1, 38, 0
3, 220650, Note_on_c, 1, 48, 67
3, 221338, Note_on_c, 1, 41, 45
3, 221474, Note_on_c, 1, 41, 0
3, 221546, Note_on_c, 1, 48, 0
3, 221614, Note_on_c, 1, 46, 64
3, 222269, Note_on_c, 1, 45, 71
3, 222285, Note_on_c, 1, 41, 54
3, 222344, Note_on_c, 1, 41, 0
3, 222375, Note_on_c, 1, 46, 0
3, 222485, Note_on_c, 1, 45, 0
3, 222559, Note_on_c, 1, 44, 56
3, 222714, Note_on_c, 1, 44, 0
3, 223223, Note_on_c, 1, 40, 79
3, 223497, Note_on_c, 1, 40, 0
3, 223583, Note_on_c, 1, 41, 54
3, 224212, Note_on_c, 1, 41, 0
3, 224229, Note_on_c, 1, 36, 61
3, 224374, Note_on_c, 1, 36, 0
3, 224502, Note_on_c, 1, 34, 73
3, 225457, Note_on_c, 1, 34, 0
3, 225529, Note_on_c, 1, 41, 71
3, 226447, Note_on_c, 1, 41, 0
3, 226517, Note_on_c, 1, 46, 88
3, 227119, Note_on_c, 1, 46, 0
3, 227203, Note_on_c, 1, 41, 68
3, 227414, Note_on_c, 1, 41, 0
3, 227487, Note_on_c, 1, 34, 71
3, 228252, Note_on_c, 1, 41, 56
3, 228313, Note_on_c, 1, 41, 0
3, 228336, Note_on_c, 1, 34, 0
3, 228494, Note_on_c, 1, 46, 74
3, 228672, Note_on_c, 1, 46, 0
3, 228761, Note_on_c, 1, 41, 54
3, 228954, Note_on_c, 1, 41, 0
3, 229079, Note_on_c, 1, 41, 19
3, 229357, Note_on_c, 1, 41, 0
3, 229432, Note_on_c, 1, 37, 64
3, 229884, Note_on_c, 1, 37, 0
3, 230083, Note_on_c, 1, 38, 57
3, 230323, Note_on_c, 1, 38, 0
3, 230390, Note_on_c, 1, 39, 60
3, 231094, Note_on_c, 1, 37, 35
3, 231317, Note_on_c, 1, 39, 0
3, 231319, Note_on_c, 1, 46, 67
3, 231344, Note_on_c, 1, 37, 0
3, 232073, Note_on_c, 1, 39, 36
3, 232288, Note_on_c, 1, 39, 0
3, 232289, Note_on_c, 1, 46, 0
3, 232321, Note_on_c, 1, 55, 79
3, 232974, Note_on_c, 1, 39, 36
3, 233155, Note_on_c, 1, 55, 0
3, 233185, Note_on_c, 1, 39, 0
3, 233232, Note_on_c, 1, 53, 70
3, 234152, Note_on_c, 1, 53, 0
3, 234214, Note_on_c, 1, 51, 62
3, 235118, Note_on_c, 1, 51, 0
3, 235127, Note_on_c, 1, 44, 57
3, 235853, Note_on_c, 1, 39, 57
3, 235897, Note_on_c, 1, 44, 0
3, 236017, Note_on_c, 1, 39, 0
3, 236122, Note_on_c, 1, 32, 51
3, 236773, Note_on_c, 1, 34, 49
3, 236784, Note_on_c, 1, 32, 0
3, 237000, Note_on_c, 1, 34, 0
3, 237085, Note_on_c, 1, 37, 71
3, 237728, Note_on_c, 1, 34, 47
3, 237785, Note_on_c, 1, 37, 0
3, 238031, Note_on_c, 1, 34, 0
3, 238045, Note_on_c, 1, 38, 62
3, 238726, Note_on_c, 1, 45, 108
3, 238809, Note_on_c, 1, 38, 0
3, 238951, Note_on_c, 1, 45, 0
3, 239041, Note_on_c, 1, 44, 72
3, 239713, Note_on_c, 1, 38, 47
3, 239773, Note_on_c, 1, 38, 0
3, 239915, Note_on_c, 1, 44, 0
3, 240033, Note_on_c, 1, 43, 54
3, 240083, Note_on_c, 1, 43, 0
3, 240355, Note_on_c, 1, 38, 44
3, 240470, Note_on_c, 1, 38, 0
3, 240628, Note_on_c, 1, 32, 62
3, 240804, Note_on_c, 1, 32, 0
3, 240922, Note_on_c, 1, 31, 66
3, 241543, Note_on_c, 1, 31, 0
3, 241604, Note_on_c, 1, 35, 62
3, 241850, Note_on_c, 1, 35, 0
3, 241963, Note_on_c, 1, 36, 53
3, 242134, Note_on_c, 1, 36, 0
3, 242261, Note_on_c, 1, 48, 75
3, 242438, Note_on_c, 1, 48, 0
3, 242586, Note_on_c, 1, 43, 58
3, 242656, Note_on_c, 1, 43, 0
3, 242949, Note_on_c, 1, 36, 53
3, 243080, Note_on_c, 1, 36, 0
3, 243243, Note_on_c, 1, 30, 72
3, 243421, Note_on_c, 1, 30, 0
3, 243545, Note_on_c, 1, 29, 84
3, 244750, Note_on_c, 1, 29, 0
3, 244799, Note_on_c, 1, 31, 60
3, 244984, Note_on_c, 1, 31, 0
3, 245454, Note_on_c, 1, 33, 64
3, 245698, Note_on_c, 1, 33, 0
3, 245780, Note_on_c, 1, 34, 46
3, 246428, Note_on_c, 1, 32, 44
3, 246657, Note_on_c, 1, 34, 0
3, 246729, Note_on_c, 1, 40, 64
3, 246850, Note_on_c, 1, 32, 0
3, 247002, Note_on_c, 1, 40, 0
3, 247320, Note_on_c, 1, 34, 42
3, 247339, Note_on_c, 1, 42, 77
3, 247552, Note_on_c, 1, 42, 0
3, 247567, Note_on_c, 1, 34, 0
3, 247681, Note_on_c, 1, 43, 70
3, 248330, Note_on_c, 1, 38, 53
3, 248363, Note_on_c, 1, 43, 0
3, 248602, Note_on_c, 1, 38, 0
3, 248661, Note_on_c, 1, 31, 70
3, 249574, Note_on_c, 1, 31, 0
3, 249593, Note_on_c, 1, 36, 68
3, 250277, Note_on_c, 1, 34, 43
3, 250443, Note_on_c, 1, 36, 0
3, 250522, Note_on_c, 1, 43, 101
3, 250546, Note_on_c, 1, 34, 0
3, 251223, Note_on_c, 1, 36, 32
3, 251314, Note_on_c, 1, 36, 0
3, 251453, Note_on_c, 1, 43, 0
3, 251504, Note_on_c, 1, 41, 74
3, 252071, Note_on_c, 1, 41, 0
3, 252168, Note_on_c, 1, 41, 80
3, 252315, Note_on_c, 1, 41, 0
3, 252450, Note_on_c, 1, 33, 62
3, 253346, Note_on_c, 1, 33, 0
3, 253411, Note_on_c, 1, 34, 57
3, 254257, Note_on_c, 1, 34, 0
3, 254336, Note_on_c, 1, 28, 76
3, 255287, Note_on_c, 1, 28, 0
3, 255340, Note_on_c, 1, 29, 61
3, 256155, Note_on_c, 1, 29, 0
3, 256307, Note_on_c, 1, 36, 125
3, 257279, Note_on_c, 1, 34, 84
3, 257327, Note_on_c, 1, 36, 0
3, 257935, Note_on_c, 1, 36, 48
3, 258063, Note_on_c, 1, 36, 0
3, 258192, Note_on_c, 1, 41, 105
3, 258200, Note_on_c, 1, 34, 0
3, 258810, Note_on_c, 1, 36, 33
3, 258835, Note_on_c, 1, 34, 25
3, 258890, Note_on_c, 1, 36, 0
3, 258945, Note_on_c, 1, 34, 0
3, 259142, Note_on_c, 1, 38, 71
3, 259143, Note_on_c, 1, 41, 0
3, 259798, Note_on_c, 1, 34, 47
3, 259941, Note_on_c, 1, 34, 0
3, 260012, Note_on_c, 1, 38, 0
3, 260073, Note_on_c, 1, 43, 81
3, 260714, Note_on_c, 1, 35, 80
3, 260923, Note_on_c, 1, 43, 0
3, 260995, Note_on_c, 1, 35, 0
3, 261041, Note_on_c, 1, 36, 73
3, 261728, Note_on_c, 1, 34, 42
3, 261861, Note_on_c, 1, 36, 0
3, 261947, Note_on_c, 1, 34, 0
3, 261978, Note_on_c, 1, 38, 68
3, 262965, Note_on_c, 1, 38, 0
3, 263011, Note_on_c, 1, 39, 74
3, 263732, Note_on_c, 1, 36, 20
3, 263814, Note_on_c, 1, 36, 0
3, 263981, Note_on_c, 1, 40, 79
3, 263984, Note_on_c, 1, 39, 0
3, 264578, Note_on_c, 1, 36, 46
3, 264699, Note_on_c, 1, 36, 0
3, 264844, Note_on_c, 1, 40, 0
3, 264904, Note_on_c, 1, 41, 71
3, 265558, Note_on_c, 1, 36, 46
3, 265743, Note_on_c, 1, 41, 0
3, 265806, Note_on_c, 1, 36, 0
3, 265841, Note_on_c, 1, 50, 88
3, 265861, Note_on_c, 1, 41, 55
3, 266029, Note_on_c, 1, 41, 0
3, 266492, Note_on_c, 1, 41, 12
3, 266633, Note_on_c, 1, 41, 0
3, 266722, Note_on_c, 1, 50, 0
3, 266792, Note_on_c, 1, 48, 71
3, 267761, Note_on_c, 1, 40, 75
3, 267789, Note_on_c, 1, 48, 0
3, 268502, Note_on_c, 1, 39, 37
3, 268696, Note_on_c, 1, 39, 0
3, 268700, Note_on_c, 1, 40, 0
3, 268725, Note_on_c, 1, 41, 68
3, 269386, Note_on_c, 1, 39, 35
3, 269579, Note_on_c, 1, 39, 0
3, 269661, Note_on_c, 1, 50, 108
3, 269664, Note_on_c, 1, 41, 0
3, 270387, Note_on_c, 1, 40, 29
3, 270482, Note_on_c, 1, 40, 0
3, 270593, Note_on_c, 1, 50, 0
3, 270645, Note_on_c, 1, 48, 70
3, 271537, Note_on_c, 1, 48, 0
3, 271603, Note_on_c, 1, 41, 80
3, 272488, Note_on_c, 1, 41, 0
3, 272511, Note_on_c, 1, 29, 83
3, 273467, Note_on_c, 1, 29, 0
3, 273473, Note_on_c, 1, 31, 74
3, 274491, Note_on_c, 1, 32, 80
3, 274493, Note_on_c, 1, 31, 0
3, 275469, Note_on_c, 1, 32, 0
3, 275481, Note_on_c, 1, 33, 77
3, 276419, Note_on_c, 1, 33, 0
3, 276445, Note_on_c, 1, 34, 75
3, 277191, Note_on_c, 1, 32, 27
3, 277345, Note_on_c, 1, 32, 0
3, 277373, Note_on_c, 1, 34, 0
3, 277378, Note_on_c, 1, 36, 79
3, 278347, Note_on_c, 1, 38, 72
3, 278373, Note_on_c, 1, 36, 0
3, 279070, Note_on_c, 1, 37, 49
3, 279207, Note_on_c, 1, 37, 0
3, 279302, Note_on_c, 1, 43, 88
3, 279374, Note_on_c, 1, 38, 0
3, 280075, Note_on_c, 1, 38, 29
3, 280163, Note_on_c, 1, 38, 0
3, 280237, Note_on_c, 1, 43, 0
3, 280241, Note_on_c, 1, 41, 72
3, 280906, Note_on_c, 1, 38, 44
3, 281078, Note_on_c, 1, 38, 0
3, 281113, Note_on_c, 1, 41, 0
3, 281174, Note_on_c, 1, 50, 84
3, 281852, Note_on_c, 1, 41, 30
3, 282000, Note_on_c, 1, 41, 0
3, 282049, Note_on_c, 1, 50, 0
3, 282126, Note_on_c, 1, 48, 75
3, 283133, Note_on_c, 1, 48, 0
3, 283145, Note_on_c, 1, 47, 77
3, 284055, Note_on_c, 1, 47, 0
3, 284085, Note_on_c, 1, 46, 74
3, 285101, Note_on_c, 1, 53, 90
3, 285194, Note_on_c, 1, 46, 0
3, 285782, Note_on_c, 1, 46, 25
3, 286034, Note_on_c, 1, 60, 101
3, 286070, Note_on_c, 1, 53, 0
3, 286080, Note_on_c, 1, 46, 0
3, 286721, Note_on_c, 1, 53, 47
3, 286785, Note_on_c, 1, 53, 0
3, 286964, Note_on_c, 1, 58, 78
3, 287036, Note_on_c, 1, 60, 0
3, 287868, Note_on_c, 1, 58, 0
3, 287902, Note_on_c, 1, 56, 80
3, 287947, Note_on_c, 1, 58, 34
3, 288186, Note_on_c, 1, 58, 0
3, 288609, Note_on_c, 1, 50, 36
3, 288747, Note_on_c, 1, 50, 0
3, 288803, Note_on_c, 1, 56, 0
3, 288870, Note_on_c, 1, 55, 76
3, 289781, Note_on_c, 1, 55, 0
3, 289793, Note_on_c, 1, 53, 71
3, 290716, Note_on_c, 1, 46, 64
3, 290745, Note_on_c, 1, 53, 0
3, 291377, Note_on_c, 1, 44, 25
3, 291647, Note_on_c, 1, 51, 94
3, 291664, Note_on_c, 1, 46, 0
3, 291671, Note_on_c, 1, 44, 0
3, 292679, Note_on_c, 1, 42, 71
3, 292704, Note_on_c, 1, 51, 0
3, 293438, Note_on_c, 1, 39, 37
3, 293671, Note_on_c, 1, 42, 0
3, 293691, Note_on_c, 1, 39, 0
3, 293736, Note_on_c, 1, 43, 63
3, 294401, Note_on_c, 1, 39, 70
3, 294494, Note_on_c, 1, 43, 0
3, 294665, Note_on_c, 1, 39, 0
3, 294702, Note_on_c, 1, 33, 64
3, 295597, Note_on_c, 1, 33, 0
3, 295627, Note_on_c, 1, 32, 67
3, 296639, Note_on_c, 1, 32, 0
3, 296644, Note_on_c, 1, 39, 70
3, 297620, Note_on_c, 1, 48, 103
3, 297885, Note_on_c, 1, 39, 0
3, 298612, Note_on_c, 1, 37, 71
3, 298667, Note_on_c, 1, 48, 0
3, 299558, Note_on_c, 1, 37, 0
3, 299587, Note_on_c, 1, 38, 51
3, 300295, Note_on_c, 1, 34, 30
3, 300475, Note_on_c, 1, 34, 0
3, 300511, Note_on_c, 1, 38, 0
3, 300536, Note_on_c, 1, 50, 110
3, 301230, Note_on_c, 1, 32, 74
3, 301279, Note_on_c, 1, 50, 0
3, 301496, Note_on_c, 1, 32, 0
3, 301533, Note_on_c, 1, 31, 72
3, 302487, Note_on_c, 1, 35, 71
3, 302493, Note_on_c, 1, 31, 0
3, 303185, Note_on_c, 1, 34, 47
3, 303340, Note_on_c, 1, 35, 0
3, 303458, Note_on_c, 1, 34, 0
3, 303527, Note_on_c, 1, 36, 66
3, 304109, Note_on_c, 1, 48, 103
3, 304319, Note_on_c, 1, 36, 0
3, 304353, Note_on_c, 1, 48, 0
3, 304417, Note_on_c, 1, 42, 74
3, 305089, Note_on_c, 1, 36, 56
3, 305145, Note_on_c, 1, 36, 0
3, 305288, Note_on_c, 1, 42, 0
3, 305337, Note_on_c, 1, 41, 75
3, 305965, Note_on_c, 1, 36, 64
3, 305970, Note_on_c, 1, 41, 0
3, 306137, Note_on_c, 1, 36, 0
3, 306261, Note_on_c, 1, 29, 71
3, 307133, Note_on_c, 1, 29, 0
3, 307194, Note_on_c, 1, 34, 69
3, 308155, Note_on_c, 1, 46, 79
3, 308265, Note_on_c, 1, 34, 0
3, 309144, Note_on_c, 1, 41, 71
3, 309186, Note_on_c, 1, 46, 0
3, 309807, Note_on_c, 1, 38, 49
3, 310028, Note_on_c, 1, 38, 0
3, 310089, Note_on_c, 1, 50, 101
3, 310182, Note_on_c, 1, 41, 0
3, 310731, Note_on_c, 1, 41, 48
3, 310801, Note_on_c, 1, 41, 0
3, 311064, Note_on_c, 1, 50, 0
3, 311074, Note_on_c, 1, 46, 74
3, 311208, Note_on_c, 1, 46, 0
3, 311675, Note_on_c, 1, 32, 70
3, 311800, Note_on_c, 1, 32, 0
3, 312001, Note_on_c, 1, 31, 95
3, 312982, Note_on_c, 1, 43, 118
3, 313257, Note_on_c, 1, 31, 0
3, 313944, Note_on_c, 1, 35, 92
3, 313993, Note_on_c, 1, 43, 0
3, 314868, Note_on_c, 1, 36, 94
3, 314887, Note_on_c, 1, 35, 0
3, 316200, Note_on_c, 1, 38, 62
3, 316341, Note_on_c, 1, 38, 0
3, 316467, Note_on_c, 1, 39, 77
3, 316748, Note_on_c, 1, 36, 0
3, 316749, Note_on_c, 1, 39, 0
3, 316799, Note_on_c, 1, 40, 70
3, 317454, Note_on_c, 1, 36, 40
3, 317537, Note_on_c, 1, 36, 0
3, 317695, Note_on_c, 1, 40, 0
3, 317741, Note_on_c, 1, 43, 68
3, 318460, Note_on_c, 1, 36, 34
3, 318578, Note_on_c, 1, 36, 0
3, 318678, Note_on_c, 1, 43, 0
3, 318748, Note_on_c, 1, 48, 80
3, 319748, Note_on_c, 1, 42, 74
3, 319765, Note_on_c, 1, 48, 0
3, 320694, Note_on_c, 1, 42, 0
3, 320709, Note_on_c, 1, 45, 85
3, 321635, Note_on_c, 1, 45, 0
3, 321639, Note_on_c, 1, 37, 74
3, 322533, Note_on_c, 1, 37, 0
3, 322588, Note_on_c, 1, 38, 68
3, 323248, Note_on_c, 1, 37, 35
3, 323377, Note_on_c, 1, 37, 0
3, 323514, Note_on_c, 1, 44, 86
3, 323567, Note_on_c, 1, 38, 0
3, 324297, Note_on_c, 1, 38, 31
3, 324358, Note_on_c, 1, 38, 0
3, 324476, Note_on_c, 1, 45, 73
3, 324477, Note_on_c, 1, 44, 0
3, 325482, Note_on_c, 1, 57, 66
3, 325612, Note_on_c, 1, 45, 0
3, 326272, Note_on_c, 1, 57, 0
3, 326355, Note_on_c, 1, 55, 77
3, 327251, Note_on_c, 1, 55, 0
3, 327276, Note_on_c, 1, 42, 62
3, 328210, Note_on_c, 1, 42, 0
3, 328277, Note_on_c, 1, 43, 61
3, 328927, Note_on_c, 1, 43, 0
3, 328982, Note_on_c, 1, 38, 57
3, 329035, Note_on_c, 1, 38, 0
3, 329272, Note_on_c, 1, 32, 46
3, 329360, Note_on_c, 1, 32, 0
3, 329896, Note_on_c, 1, 37, 76
3, 330015, Note_on_c, 1, 37, 0
3, 330172, Note_on_c, 1, 38, 68
3, 331077, Note_on_c, 1, 38, 0
3, 331099, Note_on_c, 1, 33, 66
3, 331848, Note_on_c, 1, 38, 33
3, 331967, Note_on_c, 1, 33, 0
3, 331968, Note_on_c, 1, 38, 0
3, 332098, Note_on_c, 1, 45, 103
3, 332850, Note_on_c, 1, 33, 25
3, 332919, Note_on_c, 1, 33, 0
3, 333064, Note_on_c, 1, 45, 0
3, 333098, Note_on_c, 1, 44, 83
3, 334040, Note_on_c, 1, 44, 0
3, 334094, Note_on_c, 1, 43, 59
3, 334680, Note_on_c, 1, 43, 0
3, 334707, Note_on_c, 1, 38, 49
3, 334935, Note_on_c, 1, 38, 0
3, 334994, Note_on_c, 1, 31, 77
3, 335927, Note_on_c, 1, 31, 0
3, 335950, Note_on_c, 1, 34, 72
3, 336876, Note_on_c, 1, 35, 80
3, 336922, Note_on_c, 1, 34, 0
3, 337540, Note_on_c, 1, 34, 35
3, 337741, Note_on_c, 1, 35, 0
3, 337829, Note_on_c, 1, 34, 0
3, 337833, Note_on_c, 1, 36, 69
3, 338487, Note_on_c, 1, 34, 38
3, 338676, Note_on_c, 1, 36, 0
3, 338784, Note_on_c, 1, 38, 68
3, 338823, Note_on_c, 1, 34, 0
3, 339738, Note_on_c, 1, 38, 0
3, 339784, Note_on_c, 1, 40, 66
3, 340489, Note_on_c, 1, 36, 28
3, 340556, Note_on_c, 1, 36, 0
3, 340631, Note_on_c, 1, 40, 0
3, 340714, Note_on_c, 1, 43, 70
3, 341400, Note_on_c, 1, 40, 45
3, 341532, Note_on_c, 1, 43, 0
3, 341733, Note_on_c, 1, 50, 90
3, 341780, Note_on_c, 1, 40, 0
3, 342368, Note_on_c, 1, 40, 44
3, 342544, Note_on_c, 1, 50, 0
3, 342580, Note_on_c, 1, 40, 0
3, 342663, Note_on_c, 1, 49, 83
3, 343568, Note_on_c, 1, 49, 0
3, 343648, Note_on_c, 1, 48, 65
3, 344318, Note_on_c, 1, 43, 51
3, 344373, Note_on_c, 1, 43, 0
3, 344557, Note_on_c, 1, 48, 0
3, 344623, Note_on_c, 1, 47, 79
3, 345498, Note_on_c, 1, 47, 0
3, 345579, Note_on_c, 1, 46, 65
3, 346236, Note_on_c, 1, 35, 88
3, 346329, Note_on_c, 1, 46, 0
3, 346570, Note_on_c, 1, 36, 66
3, 346581, Note_on_c, 1, 35, 0
3, 347211, Note_on_c, 1, 34, 38
3, 347360, Note_on_c, 1, 36, 0
3, 347450, Note_on_c, 1, 34, 0
3, 347476, Note_on_c, 1, 45, 99
3, 348121, Note_on_c, 1, 40, 29
3, 348206, Note_on_c, 1, 40, 0
3, 348354, Note_on_c, 1, 45, 0
3, 348395, Note_on_c, 1, 44, 85
3, 349299, Note_on_c, 1, 44, 0
3, 349375, Note_on_c, 1, 43, 61
3, 349993, Note_on_c, 1, 40, 79
3, 350040, Note_on_c, 1, 43, 0
3, 350158, Note_on_c, 1, 40, 0
3, 350302, Note_on_c, 1, 36, 78
3, 351260, Note_on_c, 1, 36, 0
3, 351297, Note_on_c, 1, 30, 75
3, 352122, Note_on_c, 1, 30, 0
3, 352274, Note_on_c, 1, 30, 75
3, 353138, Note_on_c, 1, 30, 0
3, 353239, Note_on_c, 1, 29, 70
3, 354212, Note_on_c, 1, 36, 74
3, 354214, Note_on_c, 1, 29, 0
3, 355154, Note_on_c, 1, 41, 72
3, 355220, Note_on_c, 1, 36, 0
3, 355824, Note_on_c, 1, 36, 62
3, 356034, Note_on_c, 1, 41, 0
3, 356116, Note_on_c, 1, 48, 74
3, 356178, Note_on_c, 1, 36, 0
3, 356726, Note_on_c, 1, 48, 0
3, 356776, Note_on_c, 1, 47, 87
3, 356794, Note_on_c, 1, 48, 44
3, 356844, Note_on_c, 1, 48, 0
3, 356861, Note_on_c, 1, 36, 33
3, 356978, Note_on_c, 1, 36, 0
3, 357106, Note_on_c, 1, 47, 0
3, 357151, Note_on_c, 1, 46, 62
3, 358044, Note_on_c, 1, 34, 76
3, 358114, Note_on_c, 1, 46, 0
3, 358988, Note_on_c, 1, 46, 84
3, 359439, Note_on_c, 1, 34, 0
3, 359677, Note_on_c, 1, 34, 55
3, 359733, Note_on_c, 1, 46, 0
3, 359855, Note_on_c, 1, 34, 0
3, 359960, Note_on_c, 1, 46, 83
3, 360550, Note_on_c, 1, 38, 67
3, 360677, Note_on_c, 1, 46, 0
3, 360695, Note_on_c, 1, 38, 0
3, 360895, Note_on_c, 1, 39, 67
3, 360996, Note_on_c, 1, 39, 0
3, 361548, Note_on_c, 1, 40, 83
3, 361818, Note_on_c, 1, 40, 0
3, 361912, Note_on_c, 1, 40, 75
3, 362477, Note_on_c, 1, 40, 0
3, 362558, Note_on_c, 1, 34, 74
3, 362809, Note_on_c, 1, 34, 0
3, 362892, Note_on_c, 1, 33, 64
3, 363585, Note_on_c, 1, 40, 43
3, 363634, Note_on_c, 1, 33, 0
3, 363670, Note_on_c, 1, 40, 0
3, 363902, Note_on_c, 1, 45, 74
3, 363994, Note_on_c, 1, 45, 0
3, 364183, Note_on_c, 1, 40, 48
3, 364301, Note_on_c, 1, 40, 0
3, 364498, Note_on_c, 1, 39, 64
3, 364761, Note_on_c, 1, 39, 0
3, 364862, Note_on_c, 1, 38, 51
3, 365500, Note_on_c, 1, 45, 101
3, 365735, Note_on_c, 1, 45, 0
3, 365738, Note_on_c, 1, 38, 0
3, 365827, Note_on_c, 1, 44, 75
3, 366486, Note_on_c, 1, 38, 57
3, 366610, Note_on_c, 1, 38, 0
3, 366667, Note_on_c, 1, 44, 0
3, 366820, Note_on_c, 1, 43, 66
3, 366944, Note_on_c, 1, 43, 0
3, 367075, Note_on_c, 1, 38, 53
3, 367231, Note_on_c, 1, 38, 0
3, 367392, Note_on_c, 1, 34, 62
3, 367666, Note_on_c, 1, 34, 0
3, 367744, Note_on_c, 1, 35, 72
3, 368335, Note_on_c, 1, 34, 43
3, 368464, Note_on_c, 1, 35, 0
3, 368603, Note_on_c, 1, 34, 0
3, 368665, Note_on_c, 1, 36, 64
3, 369323, Note_on_c, 1, 34, 30
3, 369479, Note_on_c, 1, 36, 0
3, 369613, Note_on_c, 1, 45, 88
3, 370303, Note_on_c, 1, 36, 25
3, 370325, Note_on_c, 1, 34, 0
3, 370402, Note_on_c, 1, 36, 0
3, 370528, Note_on_c, 1, 45, 0
3, 370582, Note_on_c, 1, 43, 63
3, 371384, Note_on_c, 1, 43, 0
3, 371519, Note_on_c, 1, 43, 75
3, 372214, Note_on_c, 1, 31, 91
3, 372284, Note_on_c, 1, 43, 0
3, 373105, Note_on_c, 1, 38, 36
3, 373154, Note_on_c, 1, 38, 0
3, 373423, Note_on_c, 1, 43, 74
3, 373517, Note_on_c, 1, 43, 0
3, 374090, Note_on_c, 1, 42, 67
3, 374274, Note_on_c, 1, 42, 0
3, 374405, Note_on_c, 1, 43, 53
3, 374816, Note_on_c, 1, 31, 0
3, 375057, Note_on_c, 1, 34, 67
3, 375158, Note_on_c, 1, 43, 0
3, 375332, Note_on_c, 1, 34, 0
3, 375378, Note_on_c, 1, 35, 60
3, 376013, Note_on_c, 1, 34, 33
3, 376197, Note_on_c, 1, 35, 0
3, 376280, Note_on_c, 1, 34, 0
3, 376322, Note_on_c, 1, 36, 55
3, 377680, Note_on_c, 1, 45, 42
3, 377757, Note_on_c, 1, 45, 0
3, 377818, Note_on_c, 1, 36, 0
3, 377918, Note_on_c, 1, 44, 67
3, 378178, Note_on_c, 1, 44, 0
3, 378274, Note_on_c, 1, 43, 49
3, 378439, Note_on_c, 1, 43, 0
3, 378895, Note_on_c, 1, 38, 66
3, 379056, Note_on_c, 1, 38, 0
3, 379242, Note_on_c, 1, 35, 58
3, 380187, Note_on_c, 1, 35, 0
3, 380220, Note_on_c, 1, 36, 62
3, 381451, Note_on_c, 1, 36, 0
3, 381517, Note_on_c, 1, 35, 68
3, 381651, Note_on_c, 1, 35, 0
3, 381814, Note_on_c, 1, 34, 71
3, 381999, Note_on_c, 1, 34, 0
3, 382150, Note_on_c, 1, 33, 57
3, 383058, Note_on_c, 1, 33, 0
3, 383103, Note_on_c, 1, 37, 74
3, 383848, Note_on_c, 1, 34, 34
3, 384037, Note_on_c, 1, 37, 0
3, 384082, Note_on_c, 1, 34, 0
3, 384114, Note_on_c, 1, 38, 62
3, 385695, Note_on_c, 1, 37, 46
3, 385867, Note_on_c, 1, 38, 0
3, 385977, Note_on_c, 1, 45, 110
3, 385984, Note_on_c, 1, 37, 0
3, 387503, Note_on_c, 1, 38, 35
3, 387554, Note_on_c, 1, 38, 0
3, 387777, Note_on_c, 1, 45, 0
3, 387808, Note_on_c, 1, 43, 68
3, 387857, Note_on_c, 1, 43, 0
3, 388469, Note_on_c, 1, 38, 53
3, 388682, Note_on_c, 1, 38, 0
3, 388793, Note_on_c, 1, 31, 60
3, 388803, Note_on_c, 1, 29, 50
3, 388968, Note_on_c, 1, 29, 0
3, 390932, Note_on_c, 1, 31, 0
3, 390970, Note_on_c, 1, 36, 50
3, 391201, Note_on_c, 1, 36, 0
3, 391273, Note_on_c, 1, 37, 74
3, 391566, Note_on_c, 1, 37, 0
3, 391613, Note_on_c, 1, 38, 68
3, 392224, Note_on_c, 1, 52, 94
3, 392562, Note_on_c, 1, 38, 0
3, 392624, Note_on_c, 1, 50, 78
3, 392630, Note_on_c, 1, 52, 0
3, 394253, Note_on_c, 1, 45, 71
3, 394417, Note_on_c, 1, 50, 0
3, 394458, Note_on_c, 1, 45, 0
3, 394559, Note_on_c, 1, 44, 57
3, 395348, Note_on_c, 1, 42, 18
3, 395421, Note_on_c, 1, 42, 0
3, 395442, Note_on_c, 1, 44, 0
3, 395494, Note_on_c, 1, 43, 58
3, 396489, Note_on_c, 1, 31, 81
3, 396577, Note_on_c, 1, 43, 0
3, 397436, Note_on_c, 1, 31, 0
3, 397452, Note_on_c, 1, 34, 67
3, 398357, Note_on_c, 1, 34, 0
3, 398382, Note_on_c, 1, 35, 73
3, 399080, Note_on_c, 1, 34, 38
3, 399267, Note_on_c, 1, 35, 0
3, 399282, Note_on_c, 1, 34, 0
3, 399347, Note_on_c, 1, 36, 71
3, 400014, Note_on_c, 1, 34, 34
3, 400195, Note_on_c, 1, 36, 0
3, 400292, Note_on_c, 1, 41, 96
3, 400318, Note_on_c, 1, 34, 0
3, 401203, Note_on_c, 1, 41, 0
3, 401247, Note_on_c, 1, 40, 65
3, 402229, Note_on_c, 1, 31, 89
3, 402246, Note_on_c, 1, 40, 0
3, 404059, Note_on_c, 1, 31, 0
3, 404121, Note_on_c, 1, 41, 99
3, 405043, Note_on_c, 1, 41, 0
3, 405065, Note_on_c, 1, 40, 64
3, 405260, Note_on_c, 1, 40, 0
3, 405707, Note_on_c, 1, 35, 66
3, 405973, Note_on_c, 1, 35, 0
3, 406040, Note_on_c, 1, 36, 55
3, 406614, Note_on_c, 1, 36, 0
3, 406651, Note_on_c, 1, 35, 65
3, 406935, Note_on_c, 1, 35, 0
3, 406993, Note_on_c, 1, 36, 54
3, 407632, Note_on_c, 1, 34, 38
3, 407829, Note_on_c, 1, 36, 0
3, 407898, Note_on_c, 1, 34, 0
3, 407921, Note_on_c, 1, 50, 95
3, 408904, Note_on_c, 1, 50, 0
3, 408979, Note_on_c, 1, 48, 65
3, 409646, Note_on_c, 1, 43, 49
3, 409722, Note_on_c, 1, 48, 0
3, 409941, Note_on_c, 1, 43, 0
3, 409973, Note_on_c, 1, 36, 70
3, 410912, Note_on_c, 1, 45, 69
3, 411030, Note_on_c, 1, 36, 0
3, 411820, Note_on_c, 1, 44, 69
3, 411857, Note_on_c, 1, 45, 0
3, 412729, Note_on_c, 1, 44, 0
3, 412759, Note_on_c, 1, 43, 57
3, 413720, Note_on_c, 1, 43, 0
3, 413723, Note_on_c, 1, 40, 72
3, 414520, Note_on_c, 1, 39, 39
3, 414700, Note_on_c, 1, 40, 0
3, 414709, Note_on_c, 1, 39, 0
3, 414747, Note_on_c, 1, 41, 68
3, 415420, Note_on_c, 1, 39, 30
3, 415657, Note_on_c, 1, 41, 0
3, 415677, Note_on_c, 1, 50, 105
3, 415703, Note_on_c, 1, 39, 0
3, 416621, Note_on_c, 1, 50, 0
3, 416663, Note_on_c, 1, 48, 73
3, 417648, Note_on_c, 1, 33, 90
3, 417658, Note_on_c, 1, 48, 0
3, 418567, Note_on_c, 1, 33, 0
3, 418590, Note_on_c, 1, 34, 81
3, 419550, Note_on_c, 1, 41, 77
3, 419988, Note_on_c, 1, 34, 0
3, 420230, Note_on_c, 1, 34, 47
3, 420465, Note_on_c, 1, 41, 0
3, 420486, Note_on_c, 1, 50, 88
3, 420488, Note_on_c, 1, 34, 0
3, 421136, Note_on_c, 1, 41, 63
3, 421249, Note_on_c, 1, 41, 0
3, 421317, Note_on_c, 1, 50, 0
3, 421414, Note_on_c, 1, 34, 77
3, 422008, Note_on_c, 1, 34, 0
3, 423037, Note_on_c, 1, 40, 94
3, 424315, Note_on_c, 1, 40, 0
3, 424357, Note_on_c, 1, 33, 82
3, 426246, Note_on_c, 1, 33, 0
3, 426256, Note_on_c, 1, 38, 81
3, 427548, Note_on_c, 1, 45, 77
3, 427671, Note_on_c, 1, 45, 0
3, 427704, Note_on_c, 1, 38, 0
3, 427794, Note_on_c, 1, 44, 76
3, 428052, Note_on_c, 1, 44, 0
3, 428138, Note_on_c, 1, 43, 76
3, 428801, Note_on_c, 1, 38, 68
3, 428893, Note_on_c, 1, 43, 0
3, 428947, Note_on_c, 1, 38, 0
3, 429092, Note_on_c, 1, 31, 77
3, 429794, Note_on_c, 1, 35, 52
3, 429884, Note_on_c, 1, 31, 0
3, 430005, Note_on_c, 1, 35, 0
3, 430112, Note_on_c, 1, 36, 67
3, 430766, Note_on_c, 1, 42, 51
3, 430864, Note_on_c, 1, 36, 0
3, 430985, Note_on_c, 1, 42, 0
3, 431064, Note_on_c, 1, 43, 51
3, 431880, Note_on_c, 1, 43, 0
3, 431985, Note_on_c, 1, 50, 60
3, 432797, Note_on_c, 1, 50, 0
3, 432948, Note_on_c, 1, 49, 60
3, 433851, Note_on_c, 1, 49, 0
3, 433906, Note_on_c, 1, 48, 58
3, 434021, Note_on_c, 1, 48, 0
3, 434588, Note_on_c, 1, 34, 50
3, 434835, Note_on_c, 1, 34, 0
3, 434954, Note_on_c, 1, 35, 45
3, 435514, Note_on_c, 1, 35, 0
3, 435552, Note_on_c, 1, 36, 70
3, 439829, Note_on_c, 1, 36, 0
3, 439829, End_track
4, 0, Start_track
4, 0, Title_t, "Ride"
4, 0, Program_c, 9, 0
4, 94, Note_on_c, 9, 59, 71
4, 649, Note_on_c, 9, 59, 0
4, 1020, Note_on_c, 9, 59, 95
4, 1462, Note_on_c, 9, 59, 0
4, 1759, Note_on_c, 9, 59, 57
4, 1873, Note_on_c, 9, 59, 0
4, 2011, Note_on_c, 9, 59, 84
4, 2680, Note_on_c, 9, 59, 0
4, 2963, Note_on_c, 9, 59, 103
4, 3344, Note_on_c, 9, 59, 0
4, 3651, Note_on_c, 9, 59, 68
4, 3772, Note_on_c, 9, 59, 0
4, 3901, Note_on_c, 9, 59, 95
4, 4558, Note_on_c, 9, 59, 0
4, 4833, Note_on_c, 9, 59, 89
4, 5255, Note_on_c, 9, 59, 0
4, 5533, Note_on_c, 9, 59, 71
4, 5693, Note_on_c, 9, 59, 0
4, 5826, Note_on_c, 9, 59, 84
4, 6389, Note_on_c, 9, 59, 0
4, 6770, Note_on_c, 9, 59, 108
4, 7321, Note_on_c, 9, 59, 0
4, 7485, Note_on_c, 9, 59, 60
4, 7624, Note_on_c, 9, 59, 0
4, 7745, Note_on_c, 9, 59, 84
4, 8374, Note_on_c, 9, 59, 0
4, 8700, Note_on_c, 9, 59, 80
4, 9146, Note_on_c, 9, 59, 0
4, 9388, Note_on_c, 9, 59, 58
4, 9551, Note_on_c, 9, 59, 0
4, 9685, Note_on_c, 9, 59, 80
4, 10340, Note_on_c, 9, 59, 0
4, 10666, Note_on_c, 9, 37, 85
4, 10670, Note_on_c, 9, 59, 101
4, 11024, Note_on_c, 9, 59, 0
4, 11173, Note_on_c, 9, 37, 0
4, 11323, Note_on_c, 9, 59, 61
4, 11456, Note_on_c, 9, 59, 0
4, 11599, Note_on_c, 9, 59, 80
4, 12238, Note_on_c, 9, 59, 0
4, 12589, Note_on_c, 9, 59, 90
4, 13080, Note_on_c, 9, 59, 0
4, 13297, Note_on_c, 9, 59, 53
4, 13416, Note_on_c, 9, 59, 0
4, 13551, Note_on_c, 9, 59, 82
4, 14137, Note_on_c, 9, 59, 0
4, 14522, Note_on_c, 9, 59, 105
4, 14526, Note_on_c, 9, 37, 87
4, 14886, Note_on_c, 9, 59, 0
4, 15036, Note_on_c, 9, 37, 0
4, 15183, Note_on_c, 9, 59, 65
4, 15323, Note_on_c, 9, 59, 0
4, 15446, Note_on_c, 9, 59, 82
4, 16050, Note_on_c, 9, 59, 0
4, 16443, Note_on_c, 9, 59, 84
4, 16924, Note_on_c, 9, 59, 0
4, 17141, Note_on_c, 9, 59, 50
4, 17254, Note_on_c, 9, 59, 0
4, 17391, Note_on_c, 9, 59, 84
4, 17897, Note_on_c, 9, 59, 0
4, 18323, Note_on_c, 9, 37, 85
4, 18335, Note_on_c, 9, 59, 113
4, 18718, Note_on_c, 9, 37, 0
4, 18722, Note_on_c, 9, 59, 0
4, 19040, Note_on_c, 9, 59, 55
4, 19175, Note_on_c, 9, 59, 0
4, 19279, Note_on_c, 9, 59, 74
4, 19847, Note_on_c, 9, 59, 0
4, 20279, Note_on_c, 9, 59, 66
4, 20709, Note_on_c, 9, 59, 0
4, 20959, Note_on_c, 9, 59, 54
4, 21080, Note_on_c, 9, 59, 0
4, 21219, Note_on_c, 9, 59, 82
4, 21823, Note_on_c, 9, 59, 0
4, 22143, Note_on_c, 9, 59, 90
4, 22151, Note_on_c, 9, 37, 83
4, 22491, Note_on_c, 9, 59, 0
4, 22573, Note_on_c, 9, 37, 0
4, 22827, Note_on_c, 9, 59, 54
4, 22964, Note_on_c, 9, 59, 0
4, 23079, Note_on_c, 9, 59, 74
4, 23617, Note_on_c, 9, 59, 0
4, 24066, Note_on_c, 9, 59, 99
4, 24457, Note_on_c, 9, 59, 0
4, 24764, Note_on_c, 9, 59, 52
4, 24856, Note_on_c, 9, 59, 0
4, 25010, Note_on_c, 9, 59, 80
4, 25575, Note_on_c, 9, 59, 0
4, 25989, Note_on_c, 9, 37, 83
4, 26003, Note_on_c, 9, 59, 99
4, 26288, Note_on_c, 9, 37, 0
4, 26413, Note_on_c, 9, 59, 0
4, 26687, Note_on_c, 9, 59, 55
4, 26826, Note_on_c, 9, 59, 0
4, 26945, Note_on_c, 9, 59, 80
4, 27441, Note_on_c, 9, 59, 0
4, 27912, Note_on_c, 9, 59, 96
4, 28440, Note_on_c, 9, 59, 0
4, 28868, Note_on_c, 9, 59, 92
4, 29315, Note_on_c, 9, 59, 0
4, 29483, Note_on_c, 9, 59, 59
4, 29597, Note_on_c, 9, 59, 0
4, 29771, Note_on_c, 9, 37, 85
4, 29794, Note_on_c, 9, 59, 84
4, 30302, Note_on_c, 9, 59, 0
4, 30439, Note_on_c, 9, 37, 0
4, 30756, Note_on_c, 9, 59, 95
4, 31260, Note_on_c, 9, 59, 0
4, 31733, Note_on_c, 9, 59, 103
4, 32192, Note_on_c, 9, 59, 0
4, 32424, Note_on_c, 9, 59, 58
4, 32575, Note_on_c, 9, 59, 0
4, 32690, Note_on_c, 9, 59, 91
4, 33298, Note_on_c, 9, 59, 0
4, 33677, Note_on_c, 9, 59, 95
4, 33689, Note_on_c, 9, 37, 83
4, 34031, Note_on_c, 9, 37, 0
4, 34035, Note_on_c, 9, 59, 0
4, 34386, Note_on_c, 9, 59, 60
4, 34527, Note_on_c, 9, 59, 0
4, 34631, Note_on_c, 9, 59, 82
4, 35088, Note_on_c, 9, 59, 0
4, 35604, Note_on_c, 9, 59, 103
4, 36100, Note_on_c, 9, 59, 0
4, 36325, Note_on_c, 9, 59, 47
4, 36411, Note_on_c, 9, 59, 0
4, 36546, Note_on_c, 9, 59, 80
4, 37062, Note_on_c, 9, 59, 0
4, 37515, Note_on_c, 9, 37, 78
4, 37529, Note_on_c, 9, 59, 103
4, 37849, Note_on_c, 9, 59, 0
4, 37972, Note_on_c, 9, 37, 0
4, 38166, Note_on_c, 9, 59, 66
4, 38320, Note_on_c, 9, 59, 0
4, 38445, Note_on_c, 9, 59, 88
4, 38901, Note_on_c, 9, 59, 0
4, 39411, Note_on_c, 9, 59, 92
4, 39850, Note_on_c, 9, 59, 0
4, 40099, Note_on_c, 9, 59, 73
4, 40169, Note_on_c, 9, 59, 0
4, 40316, Note_on_c, 9, 59, 81
4, 40929, Note_on_c, 9, 59, 0
4, 41326, Note_on_c, 9, 59, 92
4, 41879, Note_on_c, 9, 59, 0
4, 42238, Note_on_c, 9, 59, 95
4, 42852, Note_on_c, 9, 59, 0
4, 43229, Note_on_c, 9, 59, 84
4, 43556, Note_on_c, 9, 59, 0
4, 43941, Note_on_c, 9, 59, 69
4, 44097, Note_on_c, 9, 59, 0
4, 44216, Note_on_c, 9, 59, 83
4, 44730, Note_on_c, 9, 59, 0
4, 45193, Note_on_c, 9, 37, 83
4, 45195, Note_on_c, 9, 59, 101
4, 45549, Note_on_c, 9, 37, 0
4, 45600, Note_on_c, 9, 59, 0
4, 45860, Note_on_c, 9, 59, 47
4, 46026, Note_on_c, 9, 59, 0
4, 46129, Note_on_c, 9, 59, 83
4, 46618, Note_on_c, 9, 59, 0
4, 47089, Note_on_c, 9, 59, 95
4, 47517, Note_on_c, 9, 59, 0
4, 47810, Note_on_c, 9, 59, 63
4, 47921, Note_on_c, 9, 59, 0
4, 48070, Note_on_c, 9, 59, 87
4, 48613, Note_on_c, 9, 59, 0
4, 49037, Note_on_c, 9, 59, 90
4, 49444, Note_on_c, 9, 59, 0
4, 49731, Note_on_c, 9, 59, 55
4, 49807, Note_on_c, 9, 59, 0
4, 49967, Note_on_c, 9, 37, 72
4, 50004, Note_on_c, 9, 59, 82
4, 50460, Note_on_c, 9, 37, 0
4, 50499, Note_on_c, 9, 59, 0
4, 50915, Note_on_c, 9, 59, 90
4, 51425, Note_on_c, 9, 59, 0
4, 51648, Note_on_c, 9, 59, 53
4, 51748, Note_on_c, 9, 59, 0
4, 51929, Note_on_c, 9, 59, 81
4, 52551, Note_on_c, 9, 59, 0
4, 52840, Note_on_c, 9, 59, 83
4, 53239, Note_on_c, 9, 59, 0
4, 53469, Note_on_c, 9, 59, 68
4, 53618, Note_on_c, 9, 59, 0
4, 53784, Note_on_c, 9, 59, 74
4, 53913, Note_on_c, 9, 59, 0
4, 54452, Note_on_c, 9, 59, 118
4, 55062, Note_on_c, 9, 59, 0
4, 55834, Note_on_c, 9, 59, 90
4, 56496, Note_on_c, 9, 59, 0
4, 56660, Note_on_c, 9, 37, 80
4, 56873, Note_on_c, 9, 37, 0
4, 57350, Note_on_c, 9, 59, 68
4, 57497, Note_on_c, 9, 59, 0
4, 57636, Note_on_c, 9, 59, 84
4, 58144, Note_on_c, 9, 59, 0
4, 58607, Note_on_c, 9, 59, 96
4, 58984, Note_on_c, 9, 59, 0
4, 59263, Note_on_c, 9, 59, 56
4, 59392, Note_on_c, 9, 59, 0
4, 59541, Note_on_c, 9, 59, 87
4, 60024, Note_on_c, 9, 59, 0
4, 60506, Note_on_c, 9, 37, 80
4, 60541, Note_on_c, 9, 59, 101
4, 60715, Note_on_c, 9, 37, 0
4, 60921, Note_on_c, 9, 59, 0
4, 61177, Note_on_c, 9, 59, 59
4, 61300, Note_on_c, 9, 59, 0
4, 61466, Note_on_c, 9, 59, 81
4, 61890, Note_on_c, 9, 59, 0
4, 63238, Note_on_c, 9, 59, 62
4, 63322, Note_on_c, 9, 59, 0
4, 63490, Note_on_c, 9, 59, 84
4, 64047, Note_on_c, 9, 59, 0
4, 64346, Note_on_c, 9, 59, 74
4, 64739, Note_on_c, 9, 59, 0
4, 65093, Note_on_c, 9, 59, 81
4, 65247, Note_on_c, 9, 59, 0
4, 65370, Note_on_c, 9, 59, 88
4, 65751, Note_on_c, 9, 59, 0
4, 66314, Note_on_c, 9, 59, 91
4, 66711, Note_on_c, 9, 59, 0
4, 66998, Note_on_c, 9, 59, 64
4, 67104, Note_on_c, 9, 59, 0
4, 67285, Note_on_c, 9, 59, 78
4, 67870, Note_on_c, 9, 59, 0
4, 68239, Note_on_c, 9, 37, 77
4, 68268, Note_on_c, 9, 59, 89
4, 68456, Note_on_c, 9, 37, 0
4, 68460, Note_on_c, 9, 59, 0
4, 69283, Note_on_c, 9, 59, 37
4, 69357, Note_on_c, 9, 59, 0
4, 70154, Note_on_c, 9, 59, 66
4, 70592, Note_on_c, 9, 59, 0
4, 71149, Note_on_c, 9, 59, 62
4, 71458, Note_on_c, 9, 59, 0
4, 72099, Note_on_c, 9, 59, 74
4, 72527, Note_on_c, 9, 59, 0
4, 72851, Note_on_c, 9, 59, 71
4, 73001, Note_on_c, 9, 59, 0
4, 73142, Note_on_c, 9, 59, 72
4, 73744, Note_on_c, 9, 59, 0
4, 74035, Note_on_c, 9, 59, 82
4, 74547, Note_on_c, 9, 59, 0
4, 74692, Note_on_c, 9, 59, 64
4, 74829, Note_on_c, 9, 59, 0
4, 74995, Note_on_c, 9, 59, 79
4, 75587, Note_on_c, 9, 59, 0
4, 75915, Note_on_c, 9, 59, 87
4, 76447, Note_on_c, 9, 59, 0
4, 76853, Note_on_c, 9, 59, 84
4, 77344, Note_on_c, 9, 59, 0
4, 77758, Note_on_c, 9, 59, 80
4, 78170, Note_on_c, 9, 59, 0
4, 78469, Note_on_c, 9, 59, 50
4, 78555, Note_on_c, 9, 59, 0
4, 78733, Note_on_c, 9, 59, 77
4, 79374, Note_on_c, 9, 59, 0
4, 79700, Note_on_c, 9, 59, 83
4, 80207, Note_on_c, 9, 59, 0
4, 80388, Note_on_c, 9, 59, 49
4, 80535, Note_on_c, 9, 59, 0
4, 80672, Note_on_c, 9, 59, 85
4, 81223, Note_on_c, 9, 59, 0
4, 81582, Note_on_c, 9, 59, 87
4, 82145, Note_on_c, 9, 59, 0
4, 82563, Note_on_c, 9, 59, 83
4, 83054, Note_on_c, 9, 59, 0
4, 83263, Note_on_c, 9, 59, 53
4, 83368, Note_on_c, 9, 59, 0
4, 83523, Note_on_c, 9, 59, 83
4, 84129, Note_on_c, 9, 59, 0
4, 84471, Note_on_c, 9, 59, 88
4, 85047, Note_on_c, 9, 59, 0
4, 85448, Note_on_c, 9, 59, 85
4, 85946, Note_on_c, 9, 59, 0
4, 86159, Note_on_c, 9, 59, 55
4, 86292, Note_on_c, 9, 59, 0
4, 86446, Note_on_c, 9, 59, 77
4, 87040, Note_on_c, 9, 59, 0
4, 87412, Note_on_c, 9, 59, 89
4, 87875, Note_on_c, 9, 59, 0
4, 88102, Note_on_c, 9, 59, 61
4, 88182, Note_on_c, 9, 59, 0
4, 88369, Note_on_c, 9, 59, 72
4, 88916, Note_on_c, 9, 59, 0
4, 89317, Note_on_c, 9, 59, 82
4, 89864, Note_on_c, 9, 59, 0
4, 90081, Note_on_c, 9, 59, 47
4, 90167, Note_on_c, 9, 59, 0
4, 90343, Note_on_c, 9, 59, 74
4, 90978, Note_on_c, 9, 59, 0
4, 91269, Note_on_c, 9, 59, 84
4, 91717, Note_on_c, 9, 59, 0
4, 91990, Note_on_c, 9, 59, 60
4, 92071, Note_on_c, 9, 59, 0
4, 92242, Note_on_c, 9, 59, 80
4, 92717, Note_on_c, 9, 59, 0
4, 93177, Note_on_c, 9, 59, 89
4, 93608, Note_on_c, 9, 59, 0
4, 93898, Note_on_c, 9, 59, 61
4, 93974, Note_on_c, 9, 59, 0
4, 94183, Note_on_c, 9, 59, 83
4, 94636, Note_on_c, 9, 59, 0
4, 95109, Note_on_c, 9, 59, 92
4, 95613, Note_on_c, 9, 59, 0
4, 96067, Note_on_c, 9, 59, 91
4, 96520, Note_on_c, 9, 59, 0
4, 96802, Note_on_c, 9, 59, 54
4, 96880, Note_on_c, 9, 59, 0
4, 97034, Note_on_c, 9, 59, 83
4, 97618, Note_on_c, 9, 59, 0
4, 97939, Note_on_c, 9, 59, 84
4, 98533, Note_on_c, 9, 59, 0
4, 98904, Note_on_c, 9, 59, 88
4, 99455, Note_on_c, 9, 59, 0
4, 99610, Note_on_c, 9, 59, 61
4, 99729, Note_on_c, 9, 59, 0
4, 99872, Note_on_c, 9, 59, 88
4, 100485, Note_on_c, 9, 59, 0
4, 100847, Note_on_c, 9, 59, 90
4, 101359, Note_on_c, 9, 59, 0
4, 101519, Note_on_c, 9, 59, 61
4, 101656, Note_on_c, 9, 59, 0
4, 101793, Note_on_c, 9, 59, 88
4, 102418, Note_on_c, 9, 59, 0
4, 102770, Note_on_c, 9, 59, 88
4, 103262, Note_on_c, 9, 59, 0
4, 103485, Note_on_c, 9, 59, 57
4, 103575, Note_on_c, 9, 59, 0
4, 103729, Note_on_c, 9, 59, 83
4, 104353, Note_on_c, 9, 59, 0
4, 104693, Note_on_c, 9, 59, 87
4, 105236, Note_on_c, 9, 59, 0
4, 105390, Note_on_c, 9, 59, 52
4, 105461, Note_on_c, 9, 59, 0
4, 105680, Note_on_c, 9, 59, 77
4, 106276, Note_on_c, 9, 59, 0
4, 106651, Note_on_c, 9, 59, 90
4, 107202, Note_on_c, 9, 59, 0
4, 107577, Note_on_c, 9, 59, 84
4, 108181, Note_on_c, 9, 59, 0
4, 108517, Note_on_c, 9, 59, 80
4, 109025, Note_on_c, 9, 59, 0
4, 109254, Note_on_c, 9, 59, 39
4, 109334, Note_on_c, 9, 59, 0
4, 109508, Note_on_c, 9, 59, 68
4, 110086, Note_on_c, 9, 59, 0
4, 110463, Note_on_c, 9, 59, 81
4, 110981, Note_on_c, 9, 59, 0
4, 111183, Note_on_c, 9, 59, 42
4, 111267, Note_on_c, 9, 59, 0
4, 111482, Note_on_c, 9, 59, 60
4, 111552, Note_on_c, 9, 59, 0
4, 112154, Note_on_c, 9, 59, 65
4, 112257, Note_on_c, 9, 59, 0
4, 112416, Note_on_c, 9, 59, 84
4, 113041, Note_on_c, 9, 59, 0
4, 113346, Note_on_c, 9, 59, 78
4, 113842, Note_on_c, 9, 59, 0
4, 114004, Note_on_c, 9, 59, 60
4, 114090, Note_on_c, 9, 59, 0
4, 114288, Note_on_c, 9, 59, 85
4, 114921, Note_on_c, 9, 59, 0
4, 115253, Note_on_c, 9, 59, 75
4, 115669, Note_on_c, 9, 59, 0
4, 116164, Note_on_c, 9, 59, 90
4, 116527, Note_on_c, 9, 59, 0
4, 116916, Note_on_c, 9, 59, 50
4, 116992, Note_on_c, 9, 59, 0
4, 117200, Note_on_c, 9, 59, 66
4, 117270, Note_on_c, 9, 59, 0
4, 117858, Note_on_c, 9, 59, 108
4, 118562, Note_on_c, 9, 59, 0
4, 118784, Note_on_c, 9, 59, 55
4, 118853, Note_on_c, 9, 59, 0
4, 119087, Note_on_c, 9, 59, 96
4, 119699, Note_on_c, 9, 59, 0
4, 120107, Note_on_c, 9, 59, 56
4, 120231, Note_on_c, 9, 59, 0
4, 120705, Note_on_c, 9, 59, 103
4, 121280, Note_on_c, 9, 59, 0
4, 121702, Note_on_c, 9, 59, 38
4, 121784, Note_on_c, 9, 59, 0
4, 122019, Note_on_c, 9, 59, 96
4, 122587, Note_on_c, 9, 59, 0
4, 122929, Note_on_c, 9, 59, 90
4, 123392, Note_on_c, 9, 59, 0
4, 123867, Note_on_c, 9, 59, 94
4, 124278, Note_on_c, 9, 59, 0
4, 124616, Note_on_c, 9, 59, 38
4, 124694, Note_on_c, 9, 59, 0
4, 124901, Note_on_c, 9, 59, 64
4, 124971, Note_on_c, 9, 59, 0
4, 125550, Note_on_c, 9, 59, 91
4, 125724, Note_on_c, 9, 59, 0
4, 125909, Note_on_c, 9, 59, 60
4, 126044, Note_on_c, 9, 59, 0
4, 126451, Note_on_c, 9, 59, 101
4, 127240, Note_on_c, 9, 59, 0
4, 127494, Note_on_c, 9, 59, 34
4, 127576, Note_on_c, 9, 59, 0
4, 127778, Note_on_c, 9, 59, 82
4, 128301, Note_on_c, 9, 59, 0
4, 128716, Note_on_c, 9, 59, 53
4, 128794, Note_on_c, 9, 59, 0
4, 129374, Note_on_c, 9, 59, 95
4, 129816, Note_on_c, 9, 59, 0
4, 130349, Note_on_c, 9, 59, 110
4, 131082, Note_on_c, 9, 59, 0
4, 131328, Note_on_c, 9, 59, 64
4, 131477, Note_on_c, 9, 59, 0
4, 131657, Note_on_c, 9, 59, 77
4, 132112, Note_on_c, 9, 59, 0
4, 132558, Note_on_c, 9, 59, 84
4, 133003, Note_on_c, 9, 59, 0
4, 133562, Note_on_c, 9, 59, 82
4, 133849, Note_on_c, 9, 59, 0
4, 134246, Note_on_c, 9, 59, 55
4, 134326, Note_on_c, 9, 59, 0
4, 134512, Note_on_c, 9, 59, 71
4, 134955, Note_on_c, 9, 59, 0
4, 135405, Note_on_c, 9, 59, 81
4, 135807, Note_on_c, 9, 59, 0
4, 136097, Note_on_c, 9, 59, 47
4, 136175, Note_on_c, 9, 59, 0
4, 136366, Note_on_c, 9, 59, 66
4, 136878, Note_on_c, 9, 59, 0
4, 137312, Note_on_c, 9, 59, 83
4, 137740, Note_on_c, 9, 59, 0
4, 137994, Note_on_c, 9, 59, 51
4, 138088, Note_on_c, 9, 59, 0
4, 138264, Note_on_c, 9, 59, 75
4, 138747, Note_on_c, 9, 59, 0
4, 139255, Note_on_c, 9, 59, 80
4, 139540, Note_on_c, 9, 59, 0
4, 140202, Note_on_c, 9, 59, 79
4, 140576, Note_on_c, 9, 59, 0
4, 141168, Note_on_c, 9, 59, 73
4, 141434, Note_on_c, 9, 59, 0
4, 141860, Note_on_c, 9, 59, 49
4, 141940, Note_on_c, 9, 59, 0
4, 142147, Note_on_c, 9, 59, 69
4, 142573, Note_on_c, 9, 59, 0
4, 143054, Note_on_c, 9, 59, 83
4, 143456, Note_on_c, 9, 59, 0
4, 144003, Note_on_c, 9, 59, 80
4, 144437, Note_on_c, 9, 59, 0
4, 144969, Note_on_c, 9, 59, 79
4, 145188, Note_on_c, 9, 59, 0
4, 145668, Note_on_c, 9, 59, 62
4, 145739, Note_on_c, 9, 59, 0
4, 145926, Note_on_c, 9, 59, 75
4, 146348, Note_on_c, 9, 59, 0
4, 146899, Note_on_c, 9, 59, 74
4, 147171, Note_on_c, 9, 59, 0
4, 147855, Note_on_c, 9, 59, 84
4, 148144, Note_on_c, 9, 59, 0
4, 148869, Note_on_c, 9, 59, 66
4, 149026, Note_on_c, 9, 59, 0
4, 149614, Note_on_c, 9, 59, 66
4, 149721, Note_on_c, 9, 59, 0
4, 149891, Note_on_c, 9, 59, 74
4, 150364, Note_on_c, 9, 59, 0
4, 150775, Note_on_c, 9, 59, 81
4, 151167, Note_on_c, 9, 59, 0
4, 151474, Note_on_c, 9, 59, 54
4, 151556, Note_on_c, 9, 59, 0
4, 151781, Note_on_c, 9, 59, 54
4, 151851, Note_on_c, 9, 59, 0
4, 152438, Note_on_c, 9, 59, 91
4, 152623, Note_on_c, 9, 59, 0
4, 152758, Note_on_c, 9, 59, 66
4, 153301, Note_on_c, 9, 59, 0
4, 153686, Note_on_c, 9, 59, 76
4, 153993, Note_on_c, 9, 59, 0
4, 154605, Note_on_c, 9, 59, 82
4, 154955, Note_on_c, 9, 59, 0
4, 155564, Note_on_c, 9, 59, 84
4, 155873, Note_on_c, 9, 59, 0
4, 156536, Note_on_c, 9, 59, 69
4, 156715, Note_on_c, 9, 59, 0
4, 157239, Note_on_c, 9, 59, 81
4, 157384, Note_on_c, 9, 59, 0
4, 157581, Note_on_c, 9, 59, 60
4, 158091, Note_on_c, 9, 59, 0
4, 158468, Note_on_c, 9, 59, 82
4, 158793, Note_on_c, 9, 59, 0
4, 159189, Note_on_c, 9, 59, 40
4, 159264, Note_on_c, 9, 59, 0
4, 159402, Note_on_c, 9, 59, 73
4, 159998, Note_on_c, 9, 59, 0
4, 160370, Note_on_c, 9, 59, 84
4, 160813, Note_on_c, 9, 59, 0
4, 161077, Note_on_c, 9, 59, 59
4, 161173, Note_on_c, 9, 59, 0
4, 161333, Note_on_c, 9, 59, 80
4, 161902, Note_on_c, 9, 59, 0
4, 162308, Note_on_c, 9, 59, 89
4, 162893, Note_on_c, 9, 59, 0
4, 163264, Note_on_c, 9, 59, 87
4, 163735, Note_on_c, 9, 59, 0
4, 164046, Note_on_c, 9, 59, 62
4, 164118, Note_on_c, 9, 59, 0
4, 164261, Note_on_c, 9, 59, 81
4, 164913, Note_on_c, 9, 59, 0
4, 165222, Note_on_c, 9, 59, 83
4, 165769, Note_on_c, 9, 59, 0
4, 166185, Note_on_c, 9, 59, 89
4, 166684, Note_on_c, 9, 59, 0
4, 166877, Note_on_c, 9, 59, 58
4, 166959, Note_on_c, 9, 59, 0
4, 167145, Note_on_c, 9, 59, 80
4, 167745, Note_on_c, 9, 59, 0
4, 168089, Note_on_c, 9, 59, 85
4, 168466, Note_on_c, 9, 59, 0
4, 168755, Note_on_c, 9, 59, 49
4, 168831, Note_on_c, 9, 59, 0
4, 169007, Note_on_c, 9, 59, 75
4, 169566, Note_on_c, 9, 59, 0
4, 169967, Note_on_c, 9, 59, 85
4, 170528, Note_on_c, 9, 59, 0
4, 170698, Note_on_c, 9, 59, 48
4, 170774, Note_on_c, 9, 59, 0
4, 170944, Note_on_c, 9, 59, 75
4, 171296, Note_on_c, 9, 59, 0
4, 171626, Note_on_c, 9, 59, 95
4, 171810, Note_on_c, 9, 59, 0
4, 171972, Note_on_c, 9, 59, 62
4, 172148, Note_on_c, 9, 59, 0
4, 172240, Note_on_c, 9, 59, 29
4, 172468, Note_on_c, 9, 59, 0
4, 172886, Note_on_c, 9, 59, 80
4, 173381, Note_on_c, 9, 59, 0
4, 173590, Note_on_c, 9, 59, 24
4, 173660, Note_on_c, 9, 59, 0
4, 173858, Note_on_c, 9, 59, 81
4, 174385, Note_on_c, 9, 59, 0
4, 174774, Note_on_c, 9, 59, 84
4, 175263, Note_on_c, 9, 59, 0
4, 175446, Note_on_c, 9, 59, 54
4, 175577, Note_on_c, 9, 59, 0
4, 175726, Note_on_c, 9, 59, 83
4, 176343, Note_on_c, 9, 59, 0
4, 176703, Note_on_c, 9, 59, 84
4, 177121, Note_on_c, 9, 59, 0
4, 177647, Note_on_c, 9, 59, 92
4, 178026, Note_on_c, 9, 59, 0
4, 178360, Note_on_c, 9, 59, 48
4, 178436, Note_on_c, 9, 59, 0
4, 178663, Note_on_c, 9, 59, 66
4, 178733, Note_on_c, 9, 59, 0
4, 179312, Note_on_c, 9, 59, 101
4, 179931, Note_on_c, 9, 59, 0
4, 180254, Note_on_c, 9, 59, 44
4, 180336, Note_on_c, 9, 59, 0
4, 180600, Note_on_c, 9, 59, 92
4, 181170, Note_on_c, 9, 59, 0
4, 181555, Note_on_c, 9, 59, 73
4, 181700, Note_on_c, 9, 59, 0
4, 182222, Note_on_c, 9, 59, 55
4, 182296, Note_on_c, 9, 59, 0
4, 182546, Note_on_c, 9, 59, 70
4, 182925, Note_on_c, 9, 59, 0
4, 183435, Note_on_c, 9, 59, 88
4, 183738, Note_on_c, 9, 59, 0
4, 184103, Note_on_c, 9, 59, 42
4, 184182, Note_on_c, 9, 59, 0
4, 184356, Note_on_c, 9, 59, 74
4, 184821, Note_on_c, 9, 59, 0
4, 185315, Note_on_c, 9, 59, 87
4, 185780, Note_on_c, 9, 59, 0
4, 186071, Note_on_c, 9, 59, 30
4, 186157, Note_on_c, 9, 59, 0
4, 186345, Note_on_c, 9, 59, 58
4, 186611, Note_on_c, 9, 59, 0
4, 186957, Note_on_c, 9, 59, 84
4, 187652, Note_on_c, 9, 59, 0
4, 188223, Note_on_c, 9, 59, 81
4, 188844, Note_on_c, 9, 59, 0
4, 189220, Note_on_c, 9, 59, 60
4, 189315, Note_on_c, 9, 59, 0
4, 189823, Note_on_c, 9, 59, 101
4, 190283, Note_on_c, 9, 59, 0
4, 190812, Note_on_c, 9, 59, 74
4, 190974, Note_on_c, 9, 59, 0
4, 191113, Note_on_c, 9, 59, 77
4, 191469, Note_on_c, 9, 59, 0
4, 191787, Note_on_c, 9, 51, 78
4, 191944, Note_on_c, 9, 51, 0
4, 192106, Note_on_c, 9, 51, 72
4, 192718, Note_on_c, 9, 51, 0
4, 193028, Note_on_c, 9, 51, 79
4, 193603, Note_on_c, 9, 51, 0
4, 193994, Note_on_c, 9, 51, 82
4, 194459, Note_on_c, 9, 51, 0
4, 194926, Note_on_c, 9, 51, 80
4, 195248, Note_on_c, 9, 51, 0
4, 195633, Note_on_c, 9, 51, 64
4, 195743, Note_on_c, 9, 51, 0
4, 195879, Note_on_c, 9, 51, 67
4, 196468, Note_on_c, 9, 51, 0
4, 196831, Note_on_c, 9, 51, 80
4, 197210, Note_on_c, 9, 51, 0
4, 197503, Note_on_c, 9, 51, 46
4, 197574, Note_on_c, 9, 51, 0
4, 197757, Note_on_c, 9, 51, 64
4, 198348, Note_on_c, 9, 51, 0
4, 198715, Note_on_c, 9, 51, 79
4, 199278, Note_on_c, 9, 51, 0
4, 199688, Note_on_c, 9, 51, 77
4, 200155, Note_on_c, 9, 51, 0
4, 200636, Note_on_c, 9, 51, 78
4, 200968, Note_on_c, 9, 51, 0
4, 201345, Note_on_c, 9, 51, 34
4, 201412, Note_on_c, 9, 51, 0
4, 201566, Note_on_c, 9, 51, 57
4, 202143, Note_on_c, 9, 51, 0
4, 202541, Note_on_c, 9, 51, 78
4, 203044, Note_on_c, 9, 51, 0
4, 203532, Note_on_c, 9, 51, 77
4, 204032, Note_on_c, 9, 51, 0
4, 204460, Note_on_c, 9, 51, 77
4, 204796, Note_on_c, 9, 51, 0
4, 205158, Note_on_c, 9, 51, 47
4, 205238, Note_on_c, 9, 51, 0
4, 205377, Note_on_c, 9, 51, 63
4, 205908, Note_on_c, 9, 51, 0
4, 206352, Note_on_c, 9, 51, 79
4, 206899, Note_on_c, 9, 51, 0
4, 207337, Note_on_c, 9, 51, 75
4, 207720, Note_on_c, 9, 51, 0
4, 208074, Note_on_c, 9, 51, 67
4, 208148, Note_on_c, 9, 51, 0
4, 208316, Note_on_c, 9, 51, 67
4, 208865, Note_on_c, 9, 51, 0
4, 209238, Note_on_c, 9, 51, 77
4, 209717, Note_on_c, 9, 51, 0
4, 210200, Note_on_c, 9, 51, 82
4, 210471, Note_on_c, 9, 51, 0
4, 210940, Note_on_c, 9, 51, 67
4, 211040, Note_on_c, 9, 51, 0
4, 211202, Note_on_c, 9, 51, 60
4, 211736, Note_on_c, 9, 51, 0
4, 212125, Note_on_c, 9, 51, 77
4, 212467, Note_on_c, 9, 51, 0
4, 212861, Note_on_c, 9, 51, 60
4, 212930, Note_on_c, 9, 51, 0
4, 213127, Note_on_c, 9, 51, 59
4, 213686, Note_on_c, 9, 51, 0
4, 214048, Note_on_c, 9, 51, 76
4, 214509, Note_on_c, 9, 51, 0
4, 214855, Note_on_c, 9, 51, 58
4, 214925, Note_on_c, 9, 51, 0
4, 215113, Note_on_c, 9, 51, 67
4, 215668, Note_on_c, 9, 51, 0
4, 216043, Note_on_c, 9, 51, 71
4, 216498, Note_on_c, 9, 51, 0
4, 216754, Note_on_c, 9, 51, 64
4, 216864, Note_on_c, 9, 51, 0
4, 217006, Note_on_c, 9, 51, 62
4, 217596, Note_on_c, 9, 51, 0
4, 217892, Note_on_c, 9, 51, 74
4, 218492, Note_on_c, 9, 51, 0
4, 218824, Note_on_c, 9, 51, 73
4, 219291, Note_on_c, 9, 51, 0
4, 219791, Note_on_c, 9, 51, 78
4, 220405, Note_on_c, 9, 51, 0
4, 220741, Note_on_c, 9, 51, 74
4, 221110, Note_on_c, 9, 51, 0
4, 221468, Note_on_c, 9, 51, 49
4, 221546, Note_on_c, 9, 51, 0
4, 221692, Note_on_c, 9, 51, 70
4, 222283, Note_on_c, 9, 51, 0
4, 222652, Note_on_c, 9, 51, 80
4, 223131, Note_on_c, 9, 51, 0
4, 223369, Note_on_c, 9, 53, 68
4, 223651, Note_on_c, 9, 53, 0
4, 223717, Note_on_c, 9, 51, 35
4, 224368, Note_on_c, 9, 51, 0
4, 224606, Note_on_c, 9, 51, 72
4, 225278, Note_on_c, 9, 51, 0
4, 225595, Note_on_c, 9, 51, 80
4, 226136, Note_on_c, 9, 51, 0
4, 226594, Note_on_c, 9, 51, 64
4, 227190, Note_on_c, 9, 51, 0
4, 227547, Note_on_c, 9, 51, 74
4, 228118, Note_on_c, 9, 51, 0
4, 228540, Note_on_c, 9, 51, 71
4, 228837, Note_on_c, 9, 51, 0
4, 229210, Note_on_c, 9, 51, 71
4, 229212, Note_on_c, 9, 53, 71
4, 229501, Note_on_c, 9, 51, 0
4, 229920, Note_on_c, 9, 53, 0
4, 230183, Note_on_c, 9, 51, 51
4, 230320, Note_on_c, 9, 51, 0
4, 230549, Note_on_c, 9, 53, 78
4, 230567, Note_on_c, 9, 51, 79
4, 231194, Note_on_c, 9, 51, 0
4, 231217, Note_on_c, 9, 53, 0
4, 231448, Note_on_c, 9, 51, 57
4, 231678, Note_on_c, 9, 51, 0
4, 232097, Note_on_c, 9, 51, 79
4, 232112, Note_on_c, 9, 53, 74
4, 232681, Note_on_c, 9, 51, 0
4, 232738, Note_on_c, 9, 53, 0
4, 233025, Note_on_c, 9, 51, 54
4, 233175, Note_on_c, 9, 51, 0
4, 233431, Note_on_c, 9, 51, 46
4, 233861, Note_on_c, 9, 51, 0
4, 234276, Note_on_c, 9, 51, 67
4, 234805, Note_on_c, 9, 51, 0
4, 234946, Note_on_c, 9, 51, 47
4, 235065, Note_on_c, 9, 51, 0
4, 235229, Note_on_c, 9, 51, 70
4, 235835, Note_on_c, 9, 51, 0
4, 236150, Note_on_c, 9, 51, 79
4, 236603, Note_on_c, 9, 51, 0
4, 236857, Note_on_c, 9, 51, 59
4, 236941, Note_on_c, 9, 51, 0
4, 237127, Note_on_c, 9, 51, 62
4, 237469, Note_on_c, 9, 51, 0
4, 237774, Note_on_c, 9, 51, 74
4, 237955, Note_on_c, 9, 51, 0
4, 238131, Note_on_c, 9, 51, 35
4, 238260, Note_on_c, 9, 51, 0
4, 238731, Note_on_c, 9, 51, 88
4, 238749, Note_on_c, 9, 53, 82
4, 239597, Note_on_c, 9, 51, 0
4, 239648, Note_on_c, 9, 53, 0
4, 240091, Note_on_c, 9, 51, 86
4, 240115, Note_on_c, 9, 53, 80
4, 240679, Note_on_c, 9, 51, 0
4, 240734, Note_on_c, 9, 53, 0
4, 241086, Note_on_c, 9, 51, 38
4, 241166, Note_on_c, 9, 51, 0
4, 241694, Note_on_c, 9, 51, 86
4, 241711, Note_on_c, 9, 53, 79
4, 242327, Note_on_c, 9, 51, 0
4, 242356, Note_on_c, 9, 53, 0
4, 242694, Note_on_c, 9, 51, 33
4, 242763, Note_on_c, 9, 51, 0
4, 243019, Note_on_c, 9, 51, 86
4, 243054, Note_on_c, 9, 53, 74
4, 243538, Note_on_c, 9, 51, 0
4, 243630, Note_on_c, 9, 53, 0
4, 243961, Note_on_c, 9, 51, 31
4, 244031, Note_on_c, 9, 51, 0
4, 244537, Note_on_c, 9, 51, 85
4, 244557, Note_on_c, 9, 53, 76
4, 245108, Note_on_c, 9, 51, 0
4, 245362, Note_on_c, 9, 53, 0
4, 245817, Note_on_c, 9, 51, 78
4, 246476, Note_on_c, 9, 51, 0
4, 246790, Note_on_c, 9, 51, 77
4, 247453, Note_on_c, 9, 51, 0
4, 247707, Note_on_c, 9, 51, 71
4, 248283, Note_on_c, 9, 51, 0
4, 248668, Note_on_c, 9, 51, 80
4, 249219, Note_on_c, 9, 51, 0
4, 249462, Note_on_c, 9, 51, 37
4, 249536, Note_on_c, 9, 51, 0
4, 249681, Note_on_c, 9, 51, 65
4, 250314, Note_on_c, 9, 51, 0
4, 250628, Note_on_c, 9, 51, 78
4, 251027, Note_on_c, 9, 51, 0
4, 251324, Note_on_c, 9, 51, 49
4, 251406, Note_on_c, 9, 51, 0
4, 251605, Note_on_c, 9, 51, 67
4, 252155, Note_on_c, 9, 51, 0
4, 252565, Note_on_c, 9, 51, 82
4, 252913, Note_on_c, 9, 51, 0
4, 253229, Note_on_c, 9, 51, 50
4, 253321, Note_on_c, 9, 51, 0
4, 253472, Note_on_c, 9, 51, 65
4, 253964, Note_on_c, 9, 51, 0
4, 254425, Note_on_c, 9, 51, 82
4, 254996, Note_on_c, 9, 51, 0
4, 255395, Note_on_c, 9, 51, 78
4, 255920, Note_on_c, 9, 51, 0
4, 256360, Note_on_c, 9, 51, 80
4, 256692, Note_on_c, 9, 51, 0
4, 257050, Note_on_c, 9, 51, 50
4, 257157, Note_on_c, 9, 51, 0
4, 257333, Note_on_c, 9, 51, 62
4, 257880, Note_on_c, 9, 51, 0
4, 258283, Note_on_c, 9, 51, 79
4, 258592, Note_on_c, 9, 51, 0
4, 258973, Note_on_c, 9, 51, 46
4, 259092, Note_on_c, 9, 51, 0
4, 259209, Note_on_c, 9, 51, 70
4, 259747, Note_on_c, 9, 51, 0
4, 260180, Note_on_c, 9, 51, 79
4, 260536, Note_on_c, 9, 51, 0
4, 260898, Note_on_c, 9, 51, 48
4, 260984, Note_on_c, 9, 51, 0
4, 261167, Note_on_c, 9, 51, 67
4, 261714, Note_on_c, 9, 51, 0
4, 262099, Note_on_c, 9, 51, 79
4, 262656, Note_on_c, 9, 51, 0
4, 263084, Note_on_c, 9, 51, 76
4, 263645, Note_on_c, 9, 51, 0
4, 263807, Note_on_c, 9, 51, 43
4, 263893, Note_on_c, 9, 51, 0
4, 264048, Note_on_c, 9, 51, 62
4, 264616, Note_on_c, 9, 51, 0
4, 265019, Note_on_c, 9, 51, 78
4, 265547, Note_on_c, 9, 51, 0
4, 265719, Note_on_c, 9, 51, 37
4, 265799, Note_on_c, 9, 51, 0
4, 265977, Note_on_c, 9, 51, 64
4, 266522, Note_on_c, 9, 51, 0
4, 266917, Note_on_c, 9, 51, 73
4, 267399, Note_on_c, 9, 51, 0
4, 267853, Note_on_c, 9, 51, 77
4, 268396, Note_on_c, 9, 51, 0
4, 268763, Note_on_c, 9, 51, 81
4, 269232, Note_on_c, 9, 51, 0
4, 269748, Note_on_c, 9, 51, 78
4, 270125, Note_on_c, 9, 51, 0
4, 270438, Note_on_c, 9, 51, 53
4, 270579, Note_on_c, 9, 51, 0
4, 270712, Note_on_c, 9, 51, 68
4, 271206, Note_on_c, 9, 51, 0
4, 271669, Note_on_c, 9, 51, 83
4, 272130, Note_on_c, 9, 51, 0
4, 272412, Note_on_c, 9, 51, 31
4, 272490, Note_on_c, 9, 51, 0
4, 272629, Note_on_c, 9, 51, 62
4, 273150, Note_on_c, 9, 51, 0
4, 273571, Note_on_c, 9, 51, 77
4, 274081, Note_on_c, 9, 51, 0
4, 274540, Note_on_c, 9, 51, 77
4, 275241, Note_on_c, 9, 51, 0
4, 275503, Note_on_c, 9, 51, 70
4, 275904, Note_on_c, 9, 51, 0
4, 276183, Note_on_c, 9, 51, 29
4, 276252, Note_on_c, 9, 51, 0
4, 276394, Note_on_c, 9, 51, 53
4, 277047, Note_on_c, 9, 51, 0
4, 277422, Note_on_c, 9, 51, 75
4, 277887, Note_on_c, 9, 51, 0
4, 278177, Note_on_c, 9, 51, 38
4, 278247, Note_on_c, 9, 51, 0
4, 278370, Note_on_c, 9, 51, 53
4, 278857, Note_on_c, 9, 51, 0
4, 279072, Note_on_c, 9, 51, 79
4, 279093, Note_on_c, 9, 53, 69
4, 279746, Note_on_c, 9, 51, 0
4, 279836, Note_on_c, 9, 53, 0
4, 279980, Note_on_c, 9, 51, 60
4, 280111, Note_on_c, 9, 51, 0
4, 280285, Note_on_c, 9, 51, 74
4, 280303, Note_on_c, 9, 53, 74
4, 280954, Note_on_c, 9, 51, 0
4, 281036, Note_on_c, 9, 53, 0
4, 281260, Note_on_c, 9, 51, 70
4, 281751, Note_on_c, 9, 51, 0
4, 281970, Note_on_c, 9, 51, 83
4, 282665, Note_on_c, 9, 51, 0
4, 282972, Note_on_c, 9, 51, 25
4, 283045, Note_on_c, 9, 51, 0
4, 283199, Note_on_c, 9, 51, 63
4, 283854, Note_on_c, 9, 51, 0
4, 284174, Note_on_c, 9, 51, 79
4, 284760, Note_on_c, 9, 51, 0
4, 285128, Note_on_c, 9, 51, 79
4, 285565, Note_on_c, 9, 51, 0
4, 285829, Note_on_c, 9, 51, 55
4, 285937, Note_on_c, 9, 51, 0
4, 286081, Note_on_c, 9, 51, 61
4, 286699, Note_on_c, 9, 51, 0
4, 287049, Note_on_c, 9, 51, 78
4, 287576, Note_on_c, 9, 51, 0
4, 287713, Note_on_c, 9, 51, 50
4, 287797, Note_on_c, 9, 51, 0
4, 288010, Note_on_c, 9, 51, 68
4, 288450, Note_on_c, 9, 51, 0
4, 288682, Note_on_c, 9, 51, 91
4, 289394, Note_on_c, 9, 51, 0
4, 289527, Note_on_c, 9, 51, 45
4, 289634, Note_on_c, 9, 51, 0
4, 289777, Note_on_c, 9, 51, 67
4, 289925, Note_on_c, 9, 51, 0
4, 290033, Note_on_c, 9, 51, 83
4, 290625, Note_on_c, 9, 51, 0
4, 290844, Note_on_c, 9, 51, 78
4, 291399, Note_on_c, 9, 51, 0
4, 291541, Note_on_c, 9, 51, 45
4, 291690, Note_on_c, 9, 51, 0
4, 291823, Note_on_c, 9, 51, 73
4, 292497, Note_on_c, 9, 51, 0
4, 292812, Note_on_c, 9, 51, 83
4, 293269, Note_on_c, 9, 51, 0
4, 293541, Note_on_c, 9, 51, 51
4, 293634, Note_on_c, 9, 51, 0
4, 293791, Note_on_c, 9, 51, 62
4, 294467, Note_on_c, 9, 51, 0
4, 294795, Note_on_c, 9, 51, 77
4, 295245, Note_on_c, 9, 51, 0
4, 295510, Note_on_c, 9, 51, 46
4, 295579, Note_on_c, 9, 51, 0
4, 295802, Note_on_c, 9, 51, 45
4, 296134, Note_on_c, 9, 51, 0
4, 296683, Note_on_c, 9, 51, 74
4, 296704, Note_on_c, 9, 53, 66
4, 297426, Note_on_c, 9, 53, 0
4, 297443, Note_on_c, 9, 51, 0
4, 297834, Note_on_c, 9, 51, 50
4, 297973, Note_on_c, 9, 51, 0
4, 298643, Note_on_c, 9, 51, 78
4, 298653, Note_on_c, 9, 53, 72
4, 299333, Note_on_c, 9, 51, 0
4, 299411, Note_on_c, 9, 53, 0
4, 299610, Note_on_c, 9, 51, 45
4, 299980, Note_on_c, 9, 51, 0
4, 300320, Note_on_c, 9, 51, 52
4, 300460, Note_on_c, 9, 51, 0
4, 300568, Note_on_c, 9, 51, 68
4, 300583, Note_on_c, 9, 53, 74
4, 301326, Note_on_c, 9, 51, 0
4, 301377, Note_on_c, 9, 53, 0
4, 301543, Note_on_c, 9, 51, 38
4, 302020, Note_on_c, 9, 51, 0
4, 302518, Note_on_c, 9, 51, 64
4, 302547, Note_on_c, 9, 53, 74
4, 303196, Note_on_c, 9, 51, 0
4, 303263, Note_on_c, 9, 53, 0
4, 303521, Note_on_c, 9, 51, 27
4, 303863, Note_on_c, 9, 51, 0
4, 304091, Note_on_c, 9, 51, 43
4, 304236, Note_on_c, 9, 51, 0
4, 304375, Note_on_c, 9, 51, 69
4, 304400, Note_on_c, 9, 53, 79
4, 304892, Note_on_c, 9, 51, 0
4, 304932, Note_on_c, 9, 53, 0
4, 305063, Note_on_c, 9, 51, 71
4, 305768, Note_on_c, 9, 51, 0
4, 306026, Note_on_c, 9, 51, 55
4, 306147, Note_on_c, 9, 51, 0
4, 306319, Note_on_c, 9, 51, 76
4, 307021, Note_on_c, 9, 51, 0
4, 307294, Note_on_c, 9, 51, 49
4, 307763, Note_on_c, 9, 51, 0
4, 307914, Note_on_c, 9, 51, 69
4, 308093, Note_on_c, 9, 51, 0
4, 308224, Note_on_c, 9, 51, 67
4, 308926, Note_on_c, 9, 51, 0
4, 309205, Note_on_c, 9, 51, 53
4, 309428, Note_on_c, 9, 51, 0
4, 309850, Note_on_c, 9, 51, 69
4, 310001, Note_on_c, 9, 51, 0
4, 310151, Note_on_c, 9, 51, 63
4, 310718, Note_on_c, 9, 51, 0
4, 311093, Note_on_c, 9, 51, 78
4, 311615, Note_on_c, 9, 51, 0
4, 312027, Note_on_c, 9, 51, 83
4, 312463, Note_on_c, 9, 51, 0
4, 312733, Note_on_c, 9, 51, 59
4, 312821, Note_on_c, 9, 51, 0
4, 313053, Note_on_c, 9, 51, 72
4, 313483, Note_on_c, 9, 51, 0
4, 313983, Note_on_c, 9, 51, 88
4, 314404, Note_on_c, 9, 51, 0
4, 314665, Note_on_c, 9, 51, 60
4, 314738, Note_on_c, 9, 51, 0
4, 314919, Note_on_c, 9, 51, 76
4, 315580, Note_on_c, 9, 51, 0
4, 315863, Note_on_c, 9, 51, 84
4, 316624, Note_on_c, 9, 51, 0
4, 316860, Note_on_c, 9, 51, 80
4, 317536, Note_on_c, 9, 51, 0
4, 317843, Note_on_c, 9, 51, 76
4, 318515, Note_on_c, 9, 51, 0
4, 318789, Note_on_c, 9, 59, 78
4, 318844, Note_on_c, 9, 51, 56
4, 319406, Note_on_c, 9, 59, 0
4, 319494, Note_on_c, 9, 51, 0
4, 319772, Note_on_c, 9, 59, 75
4, 319782, Note_on_c, 9, 51, 58
4, 320362, Note_on_c, 9, 59, 0
4, 320421, Note_on_c, 9, 51, 0
4, 320751, Note_on_c, 9, 59, 75
4, 320776, Note_on_c, 9, 51, 57
4, 321335, Note_on_c, 9, 59, 0
4, 321472, Note_on_c, 9, 51, 0
4, 321675, Note_on_c, 9, 59, 72
4, 321679, Note_on_c, 9, 51, 49
4, 322076, Note_on_c, 9, 59, 0
4, 322127, Note_on_c, 9, 51, 0
4, 322386, Note_on_c, 9, 51, 60
4, 322392, Note_on_c, 9, 59, 65
4, 322461, Note_on_c, 9, 51, 0
4, 322463, Note_on_c, 9, 59, 0
4, 322625, Note_on_c, 9, 51, 59
4, 322639, Note_on_c, 9, 59, 66
4, 323317, Note_on_c, 9, 59, 0
4, 323367, Note_on_c, 9, 51, 0
4, 323606, Note_on_c, 9, 51, 69
4, 323616, Note_on_c, 9, 59, 71
4, 324151, Note_on_c, 9, 59, 0
4, 324171, Note_on_c, 9, 51, 0
4, 324530, Note_on_c, 9, 59, 71
4, 324532, Note_on_c, 9, 51, 65
4, 325042, Note_on_c, 9, 59, 0
4, 325101, Note_on_c, 9, 51, 0
4, 325457, Note_on_c, 9, 51, 62
4, 325466, Note_on_c, 9, 59, 69
4, 325804, Note_on_c, 9, 59, 0
4, 325867, Note_on_c, 9, 51, 0
4, 326162, Note_on_c, 9, 51, 56
4, 326178, Note_on_c, 9, 59, 70
4, 326236, Note_on_c, 9, 51, 0
4, 326248, Note_on_c, 9, 59, 0
4, 326391, Note_on_c, 9, 51, 61
4, 326422, Note_on_c, 9, 59, 74
4, 327010, Note_on_c, 9, 59, 0
4, 327061, Note_on_c, 9, 51, 0
4, 327340, Note_on_c, 9, 51, 60
4, 327348, Note_on_c, 9, 59, 78
4, 327800, Note_on_c, 9, 59, 0
4, 327927, Note_on_c, 9, 51, 0
4, 328300, Note_on_c, 9, 59, 72
4, 328304, Note_on_c, 9, 51, 60
4, 328806, Note_on_c, 9, 59, 0
4, 328986, Note_on_c, 9, 51, 0
4, 329044, Note_on_c, 9, 53, 72
4, 329242, Note_on_c, 9, 51, 68
4, 329279, Note_on_c, 9, 53, 0
4, 329300, Note_on_c, 9, 59, 74
4, 329936, Note_on_c, 9, 59, 0
4, 330004, Note_on_c, 9, 51, 0
4, 330248, Note_on_c, 9, 59, 66
4, 330262, Note_on_c, 9, 51, 68
4, 330940, Note_on_c, 9, 59, 0
4, 330997, Note_on_c, 9, 51, 0
4, 331225, Note_on_c, 9, 51, 57
4, 331229, Note_on_c, 9, 59, 73
4, 331720, Note_on_c, 9, 59, 0
4, 331739, Note_on_c, 9, 51, 0
4, 331960, Note_on_c, 9, 51, 59
4, 331974, Note_on_c, 9, 59, 57
4, 332044, Note_on_c, 9, 59, 0
4, 332046, Note_on_c, 9, 51, 0
4, 332179, Note_on_c, 9, 51, 67
4, 332197, Note_on_c, 9, 59, 66
4, 332791, Note_on_c, 9, 59, 0
4, 332879, Note_on_c, 9, 51, 0
4, 333142, Note_on_c, 9, 59, 74
4, 333146, Note_on_c, 9, 51, 62
4, 333617, Note_on_c, 9, 59, 0
4, 333639, Note_on_c, 9, 51, 0
4, 333842, Note_on_c, 9, 59, 59
4, 333858, Note_on_c, 9, 51, 51
4, 333914, Note_on_c, 9, 59, 0
4, 333944, Note_on_c, 9, 51, 0
4, 334096, Note_on_c, 9, 51, 59
4, 334112, Note_on_c, 9, 59, 66
4, 334731, Note_on_c, 9, 59, 0
4, 334792, Note_on_c, 9, 51, 0
4, 335056, Note_on_c, 9, 51, 60
4, 335065, Note_on_c, 9, 59, 72
4, 335659, Note_on_c, 9, 59, 0
4, 335661, Note_on_c, 9, 51, 0
4, 336023, Note_on_c, 9, 59, 74
4, 336025, Note_on_c, 9, 51, 68
4, 336617, Note_on_c, 9, 59, 0
4, 336685, Note_on_c, 9, 51, 0
4, 336986, Note_on_c, 9, 51, 67
4, 336988, Note_on_c, 9, 59, 68
4, 337565, Note_on_c, 9, 59, 0
4, 337629, Note_on_c, 9, 51, 0
4, 337942, Note_on_c, 9, 59, 70
4, 337944, Note_on_c, 9, 51, 63
4, 338372, Note_on_c, 9, 59, 0
4, 338421, Note_on_c, 9, 51, 0
4, 338642, Note_on_c, 9, 51, 71
4, 338653, Note_on_c, 9, 59, 61
4, 338722, Note_on_c, 9, 59, 0
4, 338765, Note_on_c, 9, 51, 0
4, 338884, Note_on_c, 9, 59, 71
4, 338892, Note_on_c, 9, 51, 69
4, 339517, Note_on_c, 9, 59, 0
4, 339597, Note_on_c, 9, 51, 0
4, 339835, Note_on_c, 9, 59, 74
4, 339847, Note_on_c, 9, 51, 69
4, 340432, Note_on_c, 9, 59, 0
4, 340484, Note_on_c, 9, 51, 0
4, 340787, Note_on_c, 9, 51, 67
4, 340803, Note_on_c, 9, 59, 73
4, 341205, Note_on_c, 9, 59, 0
4, 341295, Note_on_c, 9, 51, 0
4, 341524, Note_on_c, 9, 51, 67
4, 341534, Note_on_c, 9, 59, 70
4, 341647, Note_on_c, 9, 59, 0
4, 341669, Note_on_c, 9, 51, 0
4, 341776, Note_on_c, 9, 51, 68
4, 341794, Note_on_c, 9, 59, 66
4, 342333, Note_on_c, 9, 59, 0
4, 342399, Note_on_c, 9, 51, 0
4, 342683, Note_on_c, 9, 59, 75
4, 342693, Note_on_c, 9, 51, 71
4, 343074, Note_on_c, 9, 59, 0
4, 343146, Note_on_c, 9, 51, 0
4, 343355, Note_on_c, 9, 51, 63
4, 343394, Note_on_c, 9, 59, 71
4, 343509, Note_on_c, 9, 51, 0
4, 343525, Note_on_c, 9, 59, 0
4, 343662, Note_on_c, 9, 51, 59
4, 343685, Note_on_c, 9, 59, 65
4, 344068, Note_on_c, 9, 59, 0
4, 344221, Note_on_c, 9, 51, 0
4, 344379, Note_on_c, 9, 53, 78
4, 344619, Note_on_c, 9, 51, 74
4, 344633, Note_on_c, 9, 53, 0
4, 344658, Note_on_c, 9, 59, 75
4, 345225, Note_on_c, 9, 59, 0
4, 345315, Note_on_c, 9, 51, 0
4, 345571, Note_on_c, 9, 51, 69
4, 345575, Note_on_c, 9, 59, 71
4, 346017, Note_on_c, 9, 59, 0
4, 346071, Note_on_c, 9, 51, 0
4, 346519, Note_on_c, 9, 59, 68
4, 346521, Note_on_c, 9, 51, 64
4, 346898, Note_on_c, 9, 59, 0
4, 346900, Note_on_c, 9, 51, 0
4, 347215, Note_on_c, 9, 51, 64
4, 347238, Note_on_c, 9, 59, 71
4, 347375, Note_on_c, 9, 51, 0
4, 347385, Note_on_c, 9, 59, 0
4, 347506, Note_on_c, 9, 51, 61
4, 347537, Note_on_c, 9, 59, 66
4, 347811, Note_on_c, 9, 59, 0
4, 348033, Note_on_c, 9, 51, 0
4, 348137, Note_on_c, 9, 53, 80
4, 348342, Note_on_c, 9, 51, 29
4, 348373, Note_on_c, 9, 53, 0
4, 348485, Note_on_c, 9, 59, 27
4, 348741, Note_on_c, 9, 59, 0
4, 349139, Note_on_c, 9, 51, 0
4, 349354, Note_on_c, 9, 59, 71
4, 349370, Note_on_c, 9, 51, 68
4, 349945, Note_on_c, 9, 59, 0
4, 349984, Note_on_c, 9, 51, 0
4, 350353, Note_on_c, 9, 59, 73
4, 350369, Note_on_c, 9, 51, 69
4, 350756, Note_on_c, 9, 59, 0
4, 350781, Note_on_c, 9, 51, 0
4, 351037, Note_on_c, 9, 51, 63
4, 351055, Note_on_c, 9, 59, 62
4, 351144, Note_on_c, 9, 59, 0
4, 351180, Note_on_c, 9, 51, 0
4, 351305, Note_on_c, 9, 51, 67
4, 351324, Note_on_c, 9, 59, 60
4, 351909, Note_on_c, 9, 59, 0
4, 351977, Note_on_c, 9, 51, 0
4, 352286, Note_on_c, 9, 59, 77
4, 352309, Note_on_c, 9, 51, 67
4, 352835, Note_on_c, 9, 59, 0
4, 352938, Note_on_c, 9, 51, 0
4, 353290, Note_on_c, 9, 51, 67
4, 353292, Note_on_c, 9, 59, 73
4, 353695, Note_on_c, 9, 59, 0
4, 353746, Note_on_c, 9, 51, 0
4, 353994, Note_on_c, 9, 51, 58
4, 354003, Note_on_c, 9, 59, 54
4, 354078, Note_on_c, 9, 59, 0
4, 354084, Note_on_c, 9, 51, 0
4, 354261, Note_on_c, 9, 51, 60
4, 354261, Note_on_c, 9, 59, 66
4, 354883, Note_on_c, 9, 59, 0
4, 354955, Note_on_c, 9, 51, 0
4, 355233, Note_on_c, 9, 59, 71
4, 355240, Note_on_c, 9, 51, 63
4, 355780, Note_on_c, 9, 51, 0
4, 355788, Note_on_c, 9, 59, 0
4, 356178, Note_on_c, 9, 51, 68
4, 356190, Note_on_c, 9, 59, 74
4, 356560, Note_on_c, 9, 51, 0
4, 356571, Note_on_c, 9, 59, 0
4, 356816, Note_on_c, 9, 51, 64
4, 356849, Note_on_c, 9, 59, 57
4, 356923, Note_on_c, 9, 59, 0
4, 356968, Note_on_c, 9, 51, 0
4, 357099, Note_on_c, 9, 51, 64
4, 357120, Note_on_c, 9, 59, 63
4, 357691, Note_on_c, 9, 59, 0
4, 357734, Note_on_c, 9, 51, 0
4, 358064, Note_on_c, 9, 59, 75
4, 358076, Note_on_c, 9, 51, 68
4, 358539, Note_on_c, 9, 59, 0
4, 358565, Note_on_c, 9, 51, 0
4, 358778, Note_on_c, 9, 51, 65
4, 358787, Note_on_c, 9, 59, 67
4, 358873, Note_on_c, 9, 59, 0
4, 358914, Note_on_c, 9, 51, 0
4, 359049, Note_on_c, 9, 51, 60
4, 359051, Note_on_c, 9, 59, 70
4, 359663, Note_on_c, 9, 59, 0
4, 359678, Note_on_c, 9, 51, 0
4, 360052, Note_on_c, 9, 59, 73
4, 360061, Note_on_c, 9, 51, 62
4, 360396, Note_on_c, 9, 59, 0
4, 360400, Note_on_c, 9, 51, 0
4, 360720, Note_on_c, 9, 51, 62
4, 360740, Note_on_c, 9, 59, 60
4, 360822, Note_on_c, 9, 59, 0
4, 360855, Note_on_c, 9, 51, 0
4, 360976, Note_on_c, 9, 51, 60
4, 361001, Note_on_c, 9, 59, 64
4, 361322, Note_on_c, 9, 59, 0
4, 361353, Note_on_c, 9, 51, 0
4, 361707, Note_on_c, 9, 51, 62
4, 361820, Note_on_c, 9, 51, 0
4, 361967, Note_on_c, 9, 51, 69
4, 361980, Note_on_c, 9, 59, 88
4, 362498, Note_on_c, 9, 59, 0
4, 362522, Note_on_c, 9, 51, 0
4, 362930, Note_on_c, 9, 51, 65
4, 362954, Note_on_c, 9, 59, 74
4, 363343, Note_on_c, 9, 51, 0
4, 363364, Note_on_c, 9, 59, 0
4, 363569, Note_on_c, 9, 51, 50
4, 363677, Note_on_c, 9, 51, 0
4, 363886, Note_on_c, 9, 51, 72
4, 363896, Note_on_c, 9, 59, 74
4, 364511, Note_on_c, 9, 59, 0
4, 364570, Note_on_c, 9, 51, 0
4, 364867, Note_on_c, 9, 59, 65
4, 364879, Note_on_c, 9, 51, 62
4, 365281, Note_on_c, 9, 59, 0
4, 365305, Note_on_c, 9, 51, 0
4, 365813, Note_on_c, 9, 59, 75
4, 365834, Note_on_c, 9, 51, 67
4, 366305, Note_on_c, 9, 59, 0
4, 366319, Note_on_c, 9, 51, 0
4, 366788, Note_on_c, 9, 51, 64
4, 366792, Note_on_c, 9, 59, 78
4, 367083, Note_on_c, 9, 59, 0
4, 367102, Note_on_c, 9, 51, 0
4, 367493, Note_on_c, 9, 51, 64
4, 367562, Note_on_c, 9, 51, 0
4, 367786, Note_on_c, 9, 51, 80
4, 367794, Note_on_c, 9, 59, 80
4, 368326, Note_on_c, 9, 51, 0
4, 368345, Note_on_c, 9, 59, 0
4, 368715, Note_on_c, 9, 59, 78
4, 368724, Note_on_c, 9, 51, 71
4, 369231, Note_on_c, 9, 59, 0
4, 369233, Note_on_c, 9, 51, 0
4, 369639, Note_on_c, 9, 51, 75
4, 369641, Note_on_c, 9, 59, 80
4, 369985, Note_on_c, 9, 59, 0
4, 370010, Note_on_c, 9, 51, 0
4, 370325, Note_on_c, 9, 51, 55
4, 370331, Note_on_c, 9, 59, 55
4, 370405, Note_on_c, 9, 59, 0
4, 370411, Note_on_c, 9, 51, 0
4, 370559, Note_on_c, 9, 51, 63
4, 370589, Note_on_c, 9, 59, 63
4, 371218, Note_on_c, 9, 59, 0
4, 371294, Note_on_c, 9, 51, 0
4, 371585, Note_on_c, 9, 59, 78
4, 371593, Note_on_c, 9, 51, 69
4, 371931, Note_on_c, 9, 59, 0
4, 371994, Note_on_c, 9, 51, 0
4, 372228, Note_on_c, 9, 51, 58
4, 372289, Note_on_c, 9, 59, 36
4, 372367, Note_on_c, 9, 51, 0
4, 372369, Note_on_c, 9, 59, 0
4, 372506, Note_on_c, 9, 51, 59
4, 372535, Note_on_c, 9, 59, 60
4, 372920, Note_on_c, 9, 59, 0
4, 373002, Note_on_c, 9, 51, 0
4, 373131, Note_on_c, 9, 53, 87
4, 373837, Note_on_c, 9, 53, 0
4, 374136, Note_on_c, 9, 51, 53
4, 374206, Note_on_c, 9, 51, 0
4, 374497, Note_on_c, 9, 59, 88
4, 374507, Note_on_c, 9, 53, 81
4, 375083, Note_on_c, 9, 59, 0
4, 375363, Note_on_c, 9, 53, 0
4, 375425, Note_on_c, 9, 51, 56
4, 375576, Note_on_c, 9, 51, 0
4, 376098, Note_on_c, 9, 51, 49
4, 376168, Note_on_c, 9, 51, 0
4, 376391, Note_on_c, 9, 51, 62
4, 376586, Note_on_c, 9, 51, 0
4, 377296, Note_on_c, 9, 59, 54
4, 377569, Note_on_c, 9, 59, 0
4, 378030, Note_on_c, 9, 59, 37
4, 378198, Note_on_c, 9, 59, 0
4, 378345, Note_on_c, 9, 59, 68
4, 378896, Note_on_c, 9, 59, 0
4, 379943, Note_on_c, 9, 59, 63
4, 380072, Note_on_c, 9, 59, 0
4, 380270, Note_on_c, 9, 59, 65
4, 380764, Note_on_c, 9, 59, 0
4, 381898, Note_on_c, 9, 59, 50
4, 381990, Note_on_c, 9, 59, 0
4, 382228, Note_on_c, 9, 59, 60
4, 382838, Note_on_c, 9, 59, 0
4, 383160, Note_on_c, 9, 59, 69
4, 383608, Note_on_c, 9, 59, 0
4, 383909, Note_on_c, 9, 59, 29
4, 384000, Note_on_c, 9, 59, 0
4, 384165, Note_on_c, 9, 59, 69
4, 384616, Note_on_c, 9, 59, 0
4, 385142, Note_on_c, 9, 59, 38
4, 385220, Note_on_c, 9, 59, 0
4, 385785, Note_on_c, 9, 59, 34
4, 385898, Note_on_c, 9, 59, 0
4, 386095, Note_on_c, 9, 59, 64
4, 386570, Note_on_c, 9, 59, 0
4, 387582, Note_on_c, 9, 59, 44
4, 387670, Note_on_c, 9, 59, 0
4, 387874, Note_on_c, 9, 59, 58
4, 388434, Note_on_c, 9, 59, 0
4, 389496, Note_on_c, 9, 59, 52
4, 389584, Note_on_c, 9, 59, 0
4, 389795, Note_on_c, 9, 59, 62
4, 390256, Note_on_c, 9, 59, 0
4, 390369, Note_on_c, 9, 53, 73
4, 390545, Note_on_c, 9, 53, 0
4, 390725, Note_on_c, 9, 59, 41
4, 391041, Note_on_c, 9, 59, 0
4, 391309, Note_on_c, 9, 59, 49
4, 391530, Note_on_c, 9, 59, 0
4, 391684, Note_on_c, 9, 59, 65
4, 392177, Note_on_c, 9, 59, 0
4, 393361, Note_on_c, 9, 59, 52
4, 393455, Note_on_c, 9, 59, 0
4, 393654, Note_on_c, 9, 59, 61
4, 394248, Note_on_c, 9, 59, 0
4, 394561, Note_on_c, 9, 59, 62
4, 394815, Note_on_c, 9, 59, 0
4, 395264, Note_on_c, 9, 59, 51
4, 395366, Note_on_c, 9, 59, 0
4, 395552, Note_on_c, 9, 59, 60
4, 396075, Note_on_c, 9, 59, 0
4, 396503, Note_on_c, 9, 59, 71
4, 396914, Note_on_c, 9, 59, 0
4, 397185, Note_on_c, 9, 59, 44
4, 397297, Note_on_c, 9, 59, 0
4, 397457, Note_on_c, 9, 59, 60
4, 397992, Note_on_c, 9, 59, 0
4, 398450, Note_on_c, 9, 59, 72
4, 398813, Note_on_c, 9, 59, 0
4, 399149, Note_on_c, 9, 59, 56
4, 399249, Note_on_c, 9, 59, 0
4, 399435, Note_on_c, 9, 59, 65
4, 399927, Note_on_c, 9, 59, 0
4, 400392, Note_on_c, 9, 59, 66
4, 400705, Note_on_c, 9, 59, 0
4, 401123, Note_on_c, 9, 59, 48
4, 401203, Note_on_c, 9, 59, 0
4, 401391, Note_on_c, 9, 59, 58
4, 401639, Note_on_c, 9, 59, 0
4, 402305, Note_on_c, 9, 59, 101
4, 402970, Note_on_c, 9, 59, 0
4, 403349, Note_on_c, 9, 59, 58
4, 403660, Note_on_c, 9, 59, 0
4, 403964, Note_on_c, 9, 59, 42
4, 404062, Note_on_c, 9, 59, 0
4, 404217, Note_on_c, 9, 59, 79
4, 404875, Note_on_c, 9, 59, 0
4, 405168, Note_on_c, 9, 59, 70
4, 405692, Note_on_c, 9, 59, 0
4, 405866, Note_on_c, 9, 59, 42
4, 405942, Note_on_c, 9, 59, 0
4, 406089, Note_on_c, 9, 59, 75
4, 406716, Note_on_c, 9, 59, 0
4, 407052, Note_on_c, 9, 59, 80
4, 407609, Note_on_c, 9, 59, 0
4, 408047, Note_on_c, 9, 59, 71
4, 408471, Note_on_c, 9, 59, 0
4, 408735, Note_on_c, 9, 59, 48
4, 408838, Note_on_c, 9, 59, 0
4, 409008, Note_on_c, 9, 59, 70
4, 409591, Note_on_c, 9, 59, 0
4, 410001, Note_on_c, 9, 59, 81
4, 410325, Note_on_c, 9, 59, 0
4, 410697, Note_on_c, 9, 59, 48
4, 410771, Note_on_c, 9, 59, 0
4, 410966, Note_on_c, 9, 59, 70
4, 411535, Note_on_c, 9, 59, 0
4, 411922, Note_on_c, 9, 59, 84
4, 412446, Note_on_c, 9, 59, 0
4, 412600, Note_on_c, 9, 59, 58
4, 412704, Note_on_c, 9, 59, 0
4, 412883, Note_on_c, 9, 59, 69
4, 413505, Note_on_c, 9, 59, 0
4, 413855, Note_on_c, 9, 59, 81
4, 414332, Note_on_c, 9, 59, 0
4, 414568, Note_on_c, 9, 59, 47
4, 414679, Note_on_c, 9, 59, 0
4, 414844, Note_on_c, 9, 59, 72
4, 415361, Note_on_c, 9, 59, 0
4, 415774, Note_on_c, 9, 59, 82
4, 416311, Note_on_c, 9, 59, 0
4, 416483, Note_on_c, 9, 59, 46
4, 416612, Note_on_c, 9, 59, 0
4, 416778, Note_on_c, 9, 59, 80
4, 417275, Note_on_c, 9, 59, 0
4, 417648, Note_on_c, 9, 59, 87
4, 418146, Note_on_c, 9, 59, 0
4, 418318, Note_on_c, 9, 59, 71
4, 418549, Note_on_c, 9, 59, 0
4, 419295, Note_on_c, 9, 59, 68
4, 419444, Note_on_c, 9, 59, 0
4, 419582, Note_on_c, 9, 59, 84
4, 420173, Note_on_c, 9, 59, 0
4, 420542, Note_on_c, 9, 59, 80
4, 421048, Note_on_c, 9, 59, 0
4, 421208, Note_on_c, 9, 59, 60
4, 421277, Note_on_c, 9, 59, 0
4, 421466, Note_on_c, 9, 59, 80
4, 421918, Note_on_c, 9, 59, 0
4, 422453, Note_on_c, 9, 59, 70
4, 422602, Note_on_c, 9, 59, 0
4, 423118, Note_on_c, 9, 59, 54
4, 423188, Note_on_c, 9, 59, 0
4, 423407, Note_on_c, 9, 59, 95
4, 424190, Note_on_c, 9, 59, 0
4, 424497, Note_on_c, 9, 59, 44
4, 424642, Note_on_c, 9, 59, 0
4, 425046, Note_on_c, 9, 59, 99
4, 425381, Note_on_c, 9, 59, 0
4, 426063, Note_on_c, 9, 59, 95
4, 426086, Note_on_c, 9, 53, 71
4, 426866, Note_on_c, 9, 59, 0
4, 427044, Note_on_c, 9, 59, 45
4, 427151, Note_on_c, 9, 59, 0
4, 427184, Note_on_c, 9, 53, 0
4, 427966, Note_on_c, 9, 59, 91
4, 427997, Note_on_c, 9, 53, 80
4, 428752, Note_on_c, 9, 59, 0
4, 429000, Note_on_c, 9, 59, 40
4, 429097, Note_on_c, 9, 59, 0
4, 429111, Note_on_c, 9, 53, 0
4, 429361, Note_on_c, 9, 59, 38
4, 429447, Note_on_c, 9, 59, 0
4, 429903, Note_on_c, 9, 53, 89
4, 429918, Note_on_c, 9, 59, 92
4, 430125, Note_on_c, 9, 59, 0
4, 430135, Note_on_c, 9, 53, 0
4, 430293, Note_on_c, 9, 53, 74
4, 430313, Note_on_c, 9, 59, 68
4, 430575, Note_on_c, 9, 53, 0
4, 430796, Note_on_c, 9, 59, 0
4, 431171, Note_on_c, 9, 59, 50
4, 431331, Note_on_c, 9, 59, 0
4, 431753, Note_on_c, 9, 59, 80
4, 432400, Note_on_c, 9, 59, 0
4, 433127, Note_on_c, 9, 59, 32
4, 433274, Note_on_c, 9, 59, 0
4, 433702, Note_on_c, 9, 59, 53
4, 433786, Note_on_c, 9, 59, 0
4, 434667, Note_on_c, 9, 59, 39
4, 434772, Note_on_c, 9, 59, 0
4, 434995, Note_on_c, 9, 59, 51
4, 435185, Note_on_c, 9, 59, 0
4, 435642, Note_on_c, 9, 59, 57
4, 436467, Note_on_c, 9, 59, 0
4, 436881, Note_on_c, 9, 59, 55
4, 439681, Note_on_c, 9, 59, 0
4, 439681, End_track
5, 0, Start_track
5, 0, Title_t, "HiHats"
5, 1052, Note_on_c, 9, 44, 65
5, 1550, Note_on_c, 9, 44, 0
5, 2902, Note_on_c, 9, 44, 39
5, 3733, Note_on_c, 9, 44, 0
5, 4743, Note_on_c, 9, 44, 54
5, 5392, Note_on_c, 9, 44, 0
5, 8734, Note_on_c, 9, 44, 47
5, 9203, Note_on_c, 9, 44, 0
5, 10655, Note_on_c, 9, 44, 59
5, 11085, Note_on_c, 9, 44, 0
5, 12652, Note_on_c, 9, 44, 55
5, 13051, Note_on_c, 9, 44, 0
5, 14475, Note_on_c, 9, 46, 56
5, 16201, Note_on_c, 9, 46, 0
5, 16398, Note_on_c, 9, 44, 39
5, 16760, Note_on_c, 9, 44, 0
5, 18290, Note_on_c, 9, 44, 49
5, 18720, Note_on_c, 9, 44, 0
5, 20228, Note_on_c, 9, 44, 48
5, 20680, Note_on_c, 9, 44, 0
5, 24055, Note_on_c, 9, 44, 51
5, 24549, Note_on_c, 9, 44, 0
5, 25993, Note_on_c, 9, 46, 44
5, 26409, Note_on_c, 9, 46, 0
5, 27861, Note_on_c, 9, 44, 56
5, 28291, Note_on_c, 9, 44, 0
5, 31694, Note_on_c, 9, 44, 76
5, 32157, Note_on_c, 9, 44, 0
5, 33644, Note_on_c, 9, 44, 76
5, 33937, Note_on_c, 9, 44, 0
5, 35672, Note_on_c, 9, 44, 71
5, 36003, Note_on_c, 9, 44, 0
5, 37533, Note_on_c, 9, 44, 74
5, 37818, Note_on_c, 9, 44, 0
5, 39387, Note_on_c, 9, 44, 69
5, 39870, Note_on_c, 9, 44, 0
5, 41293, Note_on_c, 9, 44, 70
5, 41750, Note_on_c, 9, 44, 0
5, 43151, Note_on_c, 9, 44, 71
5, 43597, Note_on_c, 9, 44, 0
5, 45113, Note_on_c, 9, 44, 74
5, 45494, Note_on_c, 9, 44, 0
5, 47040, Note_on_c, 9, 44, 67
5, 47462, Note_on_c, 9, 44, 0
5, 49021, Note_on_c, 9, 44, 76
5, 49434, Note_on_c, 9, 44, 0
5, 50886, Note_on_c, 9, 44, 70
5, 51542, Note_on_c, 9, 44, 0
5, 52754, Note_on_c, 9, 44, 77
5, 53186, Note_on_c, 9, 44, 0
5, 54716, Note_on_c, 9, 44, 73
5, 55040, Note_on_c, 9, 44, 0
5, 56655, Note_on_c, 9, 44, 70
5, 57188, Note_on_c, 9, 44, 0
5, 58548, Note_on_c, 9, 44, 76
5, 58867, Note_on_c, 9, 44, 0
5, 60487, Note_on_c, 9, 46, 61
5, 61655, Note_on_c, 9, 46, 0
5, 62384, Note_on_c, 9, 44, 54
5, 62924, Note_on_c, 9, 44, 0
5, 64397, Note_on_c, 9, 44, 62
5, 65144, Note_on_c, 9, 44, 0
5, 66338, Note_on_c, 9, 44, 71
5, 66711, Note_on_c, 9, 44, 0
5, 68173, Note_on_c, 9, 46, 59
5, 68479, Note_on_c, 9, 46, 0
5, 70103, Note_on_c, 9, 44, 52
5, 70371, Note_on_c, 9, 44, 0
5, 72026, Note_on_c, 9, 44, 75
5, 72923, Note_on_c, 9, 44, 0
5, 73973, Note_on_c, 9, 44, 74
5, 74698, Note_on_c, 9, 44, 0
5, 75933, Note_on_c, 9, 44, 69
5, 76566, Note_on_c, 9, 44, 0
5, 77729, Note_on_c, 9, 44, 67
5, 78229, Note_on_c, 9, 44, 0
5, 79620, Note_on_c, 9, 44, 69
5, 80066, Note_on_c, 9, 44, 0
5, 81578, Note_on_c, 9, 44, 74
5, 82034, Note_on_c, 9, 44, 0
5, 83517, Note_on_c, 9, 44, 71
5, 83806, Note_on_c, 9, 44, 0
5, 85467, Note_on_c, 9, 44, 71
5, 85803, Note_on_c, 9, 44, 0
5, 87365, Note_on_c, 9, 44, 68
5, 87812, Note_on_c, 9, 44, 0
5, 89331, Note_on_c, 9, 44, 65
5, 89815, Note_on_c, 9, 44, 0
5, 91297, Note_on_c, 9, 44, 69
5, 91711, Note_on_c, 9, 44, 0
5, 93212, Note_on_c, 9, 44, 61
5, 93837, Note_on_c, 9, 44, 0
5, 95105, Note_on_c, 9, 44, 53
5, 95584, Note_on_c, 9, 44, 0
5, 96976, Note_on_c, 9, 44, 72
5, 97376, Note_on_c, 9, 44, 0
5, 98807, Note_on_c, 9, 46, 47
5, 99280, Note_on_c, 9, 46, 0
5, 100786, Note_on_c, 9, 44, 60
5, 101294, Note_on_c, 9, 44, 0
5, 102740, Note_on_c, 9, 44, 70
5, 103131, Note_on_c, 9, 44, 0
5, 104652, Note_on_c, 9, 44, 67
5, 105273, Note_on_c, 9, 44, 0
5, 106567, Note_on_c, 9, 44, 64
5, 106930, Note_on_c, 9, 44, 0
5, 108544, Note_on_c, 9, 44, 54
5, 108894, Note_on_c, 9, 44, 0
5, 110422, Note_on_c, 9, 44, 57
5, 110800, Note_on_c, 9, 44, 0
5, 112353, Note_on_c, 9, 44, 62
5, 112629, Note_on_c, 9, 44, 0
5, 114264, Note_on_c, 9, 46, 48
5, 114520, Note_on_c, 9, 46, 0
5, 116166, Note_on_c, 9, 44, 69
5, 116738, Note_on_c, 9, 44, 0
5, 118110, Note_on_c, 9, 44, 68
5, 118552, Note_on_c, 9, 44, 0
5, 119990, Note_on_c, 9, 44, 64
5, 120293, Note_on_c, 9, 44, 0
5, 121921, Note_on_c, 9, 44, 64
5, 122304, Note_on_c, 9, 44, 0
5, 123832, Note_on_c, 9, 44, 65
5, 124139, Note_on_c, 9, 44, 0
5, 125833, Note_on_c, 9, 44, 64
5, 126216, Note_on_c, 9, 44, 0
5, 127715, Note_on_c, 9, 44, 65
5, 128045, Note_on_c, 9, 44, 0
5, 129626, Note_on_c, 9, 44, 65
5, 129996, Note_on_c, 9, 44, 0
5, 131553, Note_on_c, 9, 44, 62
5, 131993, Note_on_c, 9, 44, 0
5, 133482, Note_on_c, 9, 44, 67
5, 133902, Note_on_c, 9, 44, 0
5, 135319, Note_on_c, 9, 44, 62
5, 135678, Note_on_c, 9, 44, 0
5, 137285, Note_on_c, 9, 44, 60
5, 137687, Note_on_c, 9, 44, 0
5, 139204, Note_on_c, 9, 44, 59
5, 139589, Note_on_c, 9, 44, 0
5, 141131, Note_on_c, 9, 44, 68
5, 141457, Note_on_c, 9, 44, 0
5, 143020, Note_on_c, 9, 44, 65
5, 143470, Note_on_c, 9, 44, 0
5, 144873, Note_on_c, 9, 44, 69
5, 145373, Note_on_c, 9, 44, 0
5, 146839, Note_on_c, 9, 44, 74
5, 147255, Note_on_c, 9, 44, 0
5, 148842, Note_on_c, 9, 44, 72
5, 149266, Note_on_c, 9, 44, 0
5, 150755, Note_on_c, 9, 44, 69
5, 151085, Note_on_c, 9, 44, 0
5, 152688, Note_on_c, 9, 46, 45
5, 152948, Note_on_c, 9, 46, 0
5, 154622, Note_on_c, 9, 44, 60
5, 154914, Note_on_c, 9, 44, 0
5, 156540, Note_on_c, 9, 44, 68
5, 156825, Note_on_c, 9, 44, 0
5, 158435, Note_on_c, 9, 44, 55
5, 158791, Note_on_c, 9, 44, 0
5, 160307, Note_on_c, 9, 44, 62
5, 160712, Note_on_c, 9, 44, 0
5, 162267, Note_on_c, 9, 44, 68
5, 162580, Note_on_c, 9, 44, 0
5, 164247, Note_on_c, 9, 44, 59
5, 164595, Note_on_c, 9, 44, 0
5, 166174, Note_on_c, 9, 44, 59
5, 166504, Note_on_c, 9, 44, 0
5, 168028, Note_on_c, 9, 44, 60
5, 168362, Note_on_c, 9, 44, 0
5, 169920, Note_on_c, 9, 44, 62
5, 170238, Note_on_c, 9, 44, 0
5, 171860, Note_on_c, 9, 44, 65
5, 172216, Note_on_c, 9, 44, 0
5, 173727, Note_on_c, 9, 44, 65
5, 174078, Note_on_c, 9, 44, 0
5, 175679, Note_on_c, 9, 44, 67
5, 176066, Note_on_c, 9, 44, 0
5, 177588, Note_on_c, 9, 44, 70
5, 178088, Note_on_c, 9, 44, 0
5, 179603, Note_on_c, 9, 44, 64
5, 179955, Note_on_c, 9, 44, 0
5, 181530, Note_on_c, 9, 44, 67
5, 181823, Note_on_c, 9, 44, 0
5, 183398, Note_on_c, 9, 46, 23
5, 183517, Note_on_c, 9, 46, 0
5, 185233, Note_on_c, 9, 44, 40
5, 185569, Note_on_c, 9, 44, 0
5, 187154, Note_on_c, 9, 44, 60
5, 187476, Note_on_c, 9, 44, 0
5, 189108, Note_on_c, 9, 44, 65
5, 189431, Note_on_c, 9, 44, 0
5, 191084, Note_on_c, 9, 44, 67
5, 191406, Note_on_c, 9, 44, 0
5, 192948, Note_on_c, 9, 44, 68
5, 193290, Note_on_c, 9, 44, 0
5, 194877, Note_on_c, 9, 44, 70
5, 195219, Note_on_c, 9, 44, 0
5, 196741, Note_on_c, 9, 44, 67
5, 197103, Note_on_c, 9, 44, 0
5, 198692, Note_on_c, 9, 44, 69
5, 199016, Note_on_c, 9, 44, 0
5, 200583, Note_on_c, 9, 44, 68
5, 200896, Note_on_c, 9, 44, 0
5, 202528, Note_on_c, 9, 44, 51
5, 202895, Note_on_c, 9, 44, 0
5, 204433, Note_on_c, 9, 44, 68
5, 204726, Note_on_c, 9, 44, 0
5, 206340, Note_on_c, 9, 44, 64
5, 206657, Note_on_c, 9, 44, 0
5, 208250, Note_on_c, 9, 44, 67
5, 208595, Note_on_c, 9, 44, 0
5, 210182, Note_on_c, 9, 44, 64
5, 210552, Note_on_c, 9, 44, 0
5, 212164, Note_on_c, 9, 44, 63
5, 212521, Note_on_c, 9, 44, 0
5, 214130, Note_on_c, 9, 44, 73
5, 214450, Note_on_c, 9, 44, 0
5, 215992, Note_on_c, 9, 44, 71
5, 216313, Note_on_c, 9, 44, 0
5, 217874, Note_on_c, 9, 44, 74
5, 218218, Note_on_c, 9, 44, 0
5, 219785, Note_on_c, 9, 44, 62
5, 220199, Note_on_c, 9, 44, 0
5, 221696, Note_on_c, 9, 44, 62
5, 222040, Note_on_c, 9, 44, 0
5, 223633, Note_on_c, 9, 44, 63
5, 224030, Note_on_c, 9, 44, 0
5, 225611, Note_on_c, 9, 44, 67
5, 226070, Note_on_c, 9, 44, 0
5, 227534, Note_on_c, 9, 44, 64
5, 227999, Note_on_c, 9, 44, 0
5, 229535, Note_on_c, 9, 44, 64
5, 229933, Note_on_c, 9, 44, 0
5, 231366, Note_on_c, 9, 44, 64
5, 231805, Note_on_c, 9, 44, 0
5, 233281, Note_on_c, 9, 44, 64
5, 233699, Note_on_c, 9, 44, 0
5, 235200, Note_on_c, 9, 44, 62
5, 235632, Note_on_c, 9, 44, 0
5, 237152, Note_on_c, 9, 44, 71
5, 237576, Note_on_c, 9, 44, 0
5, 239052, Note_on_c, 9, 44, 70
5, 239722, Note_on_c, 9, 44, 0
5, 241031, Note_on_c, 9, 44, 74
5, 241514, Note_on_c, 9, 44, 0
5, 242907, Note_on_c, 9, 44, 69
5, 243376, Note_on_c, 9, 44, 0
5, 244830, Note_on_c, 9, 44, 70
5, 245252, Note_on_c, 9, 44, 0
5, 246714, Note_on_c, 9, 44, 73
5, 247121, Note_on_c, 9, 44, 0
5, 248692, Note_on_c, 9, 44, 67
5, 249241, Note_on_c, 9, 44, 0
5, 250587, Note_on_c, 9, 44, 63
5, 251090, Note_on_c, 9, 44, 0
5, 252510, Note_on_c, 9, 44, 70
5, 253028, Note_on_c, 9, 44, 0
5, 254400, Note_on_c, 9, 44, 64
5, 254759, Note_on_c, 9, 44, 0
5, 256356, Note_on_c, 9, 44, 56
5, 256733, Note_on_c, 9, 44, 0
5, 258256, Note_on_c, 9, 44, 65
5, 258664, Note_on_c, 9, 44, 0
5, 260167, Note_on_c, 9, 44, 71
5, 260636, Note_on_c, 9, 44, 0
5, 262117, Note_on_c, 9, 44, 72
5, 262494, Note_on_c, 9, 44, 0
5, 264046, Note_on_c, 9, 44, 72
5, 264355, Note_on_c, 9, 44, 0
5, 265924, Note_on_c, 9, 44, 71
5, 266274, Note_on_c, 9, 44, 0
5, 267759, Note_on_c, 9, 44, 74
5, 268046, Note_on_c, 9, 44, 0
5, 269715, Note_on_c, 9, 44, 76
5, 269996, Note_on_c, 9, 44, 0
5, 271618, Note_on_c, 9, 44, 60
5, 271931, Note_on_c, 9, 44, 0
5, 273537, Note_on_c, 9, 44, 71
5, 273895, Note_on_c, 9, 44, 0
5, 275501, Note_on_c, 9, 44, 60
5, 275800, Note_on_c, 9, 44, 0
5, 277434, Note_on_c, 9, 44, 69
5, 277686, Note_on_c, 9, 44, 0
5, 279353, Note_on_c, 9, 44, 72
5, 279693, Note_on_c, 9, 44, 0
5, 281256, Note_on_c, 9, 44, 64
5, 281598, Note_on_c, 9, 44, 0
5, 283121, Note_on_c, 9, 46, 33
5, 283418, Note_on_c, 9, 46, 0
5, 285040, Note_on_c, 9, 44, 57
5, 285317, Note_on_c, 9, 44, 0
5, 287017, Note_on_c, 9, 44, 69
5, 287307, Note_on_c, 9, 44, 0
5, 288987, Note_on_c, 9, 44, 69
5, 289296, Note_on_c, 9, 44, 0
5, 290861, Note_on_c, 9, 44, 67
5, 291186, Note_on_c, 9, 44, 0
5, 292810, Note_on_c, 9, 44, 68
5, 293113, Note_on_c, 9, 44, 0
5, 294748, Note_on_c, 9, 44, 71
5, 295104, Note_on_c, 9, 44, 0
5, 296683, Note_on_c, 9, 44, 70
5, 297066, Note_on_c, 9, 44, 0
5, 298567, Note_on_c, 9, 44, 65
5, 298989, Note_on_c, 9, 44, 0
5, 300580, Note_on_c, 9, 44, 69
5, 300974, Note_on_c, 9, 44, 0
5, 302528, Note_on_c, 9, 44, 70
5, 302927, Note_on_c, 9, 44, 0
5, 304363, Note_on_c, 9, 44, 62
5, 304789, Note_on_c, 9, 44, 0
5, 306255, Note_on_c, 9, 44, 64
5, 306872, Note_on_c, 9, 44, 0
5, 308148, Note_on_c, 9, 44, 62
5, 308531, Note_on_c, 9, 44, 0
5, 310075, Note_on_c, 9, 44, 69
5, 310431, Note_on_c, 9, 44, 0
5, 311990, Note_on_c, 9, 44, 71
5, 312506, Note_on_c, 9, 44, 0
5, 313976, Note_on_c, 9, 44, 68
5, 314382, Note_on_c, 9, 44, 0
5, 315891, Note_on_c, 9, 44, 74
5, 316217, Note_on_c, 9, 44, 0
5, 317775, Note_on_c, 9, 44, 69
5, 318117, Note_on_c, 9, 44, 0
5, 319783, Note_on_c, 9, 44, 58
5, 320094, Note_on_c, 9, 44, 0
5, 321656, Note_on_c, 9, 44, 67
5, 322103, Note_on_c, 9, 44, 0
5, 323549, Note_on_c, 9, 44, 56
5, 323926, Note_on_c, 9, 44, 0
5, 325392, Note_on_c, 9, 44, 64
5, 325869, Note_on_c, 9, 44, 0
5, 327348, Note_on_c, 9, 44, 67
5, 327718, Note_on_c, 9, 44, 0
5, 329336, Note_on_c, 9, 44, 69
5, 329873, Note_on_c, 9, 44, 0
5, 331276, Note_on_c, 9, 44, 67
5, 331690, Note_on_c, 9, 44, 0
5, 333172, Note_on_c, 9, 44, 69
5, 333594, Note_on_c, 9, 44, 0
5, 335040, Note_on_c, 9, 44, 62
5, 335423, Note_on_c, 9, 44, 0
5, 336937, Note_on_c, 9, 44, 58
5, 337320, Note_on_c, 9, 44, 0
5, 338880, Note_on_c, 9, 44, 64
5, 339196, Note_on_c, 9, 44, 0
5, 340836, Note_on_c, 9, 44, 74
5, 341102, Note_on_c, 9, 44, 0
5, 342681, Note_on_c, 9, 44, 71
5, 342974, Note_on_c, 9, 44, 0
5, 344576, Note_on_c, 9, 46, 55
5, 344813, Note_on_c, 9, 46, 0
5, 346490, Note_on_c, 9, 44, 63
5, 346804, Note_on_c, 9, 44, 0
5, 348438, Note_on_c, 9, 44, 69
5, 348805, Note_on_c, 9, 44, 0
5, 350445, Note_on_c, 9, 44, 70
5, 350765, Note_on_c, 9, 44, 0
5, 352288, Note_on_c, 9, 44, 69
5, 352696, Note_on_c, 9, 44, 0
5, 354238, Note_on_c, 9, 44, 60
5, 354619, Note_on_c, 9, 44, 0
5, 356184, Note_on_c, 9, 44, 69
5, 356587, Note_on_c, 9, 44, 0
5, 358115, Note_on_c, 9, 44, 69
5, 358524, Note_on_c, 9, 44, 0
5, 359977, Note_on_c, 9, 44, 62
5, 360341, Note_on_c, 9, 44, 0
5, 361879, Note_on_c, 9, 44, 64
5, 362291, Note_on_c, 9, 44, 0
5, 363946, Note_on_c, 9, 44, 62
5, 364351, Note_on_c, 9, 44, 0
5, 365803, Note_on_c, 9, 44, 71
5, 366139, Note_on_c, 9, 44, 0
5, 367657, Note_on_c, 9, 44, 69
5, 367986, Note_on_c, 9, 44, 0
5, 369598, Note_on_c, 9, 44, 68
5, 369909, Note_on_c, 9, 44, 0
5, 371507, Note_on_c, 9, 44, 65
5, 371849, Note_on_c, 9, 44, 0
5, 373473, Note_on_c, 9, 44, 62
5, 373778, Note_on_c, 9, 44, 0
5, 375349, Note_on_c, 9, 44, 55
5, 375648, Note_on_c, 9, 44, 0
5, 377274, Note_on_c, 9, 44, 56
5, 377616, Note_on_c, 9, 44, 0
5, 379242, Note_on_c, 9, 44, 63
5, 379586, Note_on_c, 9, 44, 0
5, 381223, Note_on_c, 9, 44, 50
5, 381548, Note_on_c, 9, 44, 0
5, 383045, Note_on_c, 9, 44, 45
5, 383359, Note_on_c, 9, 44, 0
5, 384999, Note_on_c, 9, 44, 52
5, 385329, Note_on_c, 9, 44, 0
5, 386914, Note_on_c, 9, 44, 52
5, 387283, Note_on_c, 9, 44, 0
5, 388798, Note_on_c, 9, 44, 38
5, 389195, Note_on_c, 9, 44, 0
5, 390625, Note_on_c, 9, 44, 67
5, 391006, Note_on_c, 9, 44, 0
5, 392560, Note_on_c, 9, 44, 61
5, 392917, Note_on_c, 9, 44, 0
5, 394512, Note_on_c, 9, 44, 63
5, 394862, Note_on_c, 9, 44, 0
5, 396431, Note_on_c, 9, 44, 60
5, 396918, Note_on_c, 9, 44, 0
5, 398405, Note_on_c, 9, 44, 60
5, 398903, Note_on_c, 9, 44, 0
5, 400314, Note_on_c, 9, 44, 68
5, 400582, Note_on_c, 9, 44, 0
5, 402233, Note_on_c, 9, 44, 70
5, 402444, Note_on_c, 9, 44, 0
5, 404107, Note_on_c, 9, 44, 75
5, 404344, Note_on_c, 9, 44, 0
5, 405981, Note_on_c, 9, 44, 73
5, 406245, Note_on_c, 9, 44, 0
5, 407943, Note_on_c, 9, 44, 64
5, 408309, Note_on_c, 9, 44, 0
5, 409925, Note_on_c, 9, 44, 62
5, 410302, Note_on_c, 9, 44, 0
5, 411818, Note_on_c, 9, 44, 59
5, 412192, Note_on_c, 9, 44, 0
5, 413743, Note_on_c, 9, 44, 62
5, 414183, Note_on_c, 9, 44, 0
5, 415694, Note_on_c, 9, 44, 68
5, 417206, Note_on_c, 9, 44, 0
5, 417575, Note_on_c, 9, 44, 69
5, 417878, Note_on_c, 9, 44, 0
5, 419543, Note_on_c, 9, 44, 67
5, 420053, Note_on_c, 9, 44, 0
5, 421445, Note_on_c, 9, 44, 65
5, 421857, Note_on_c, 9, 44, 0
5, 423405, Note_on_c, 9, 44, 69
5, 424314, Note_on_c, 9, 44, 0
5, 425314, Note_on_c, 9, 44, 65
5, 425773, Note_on_c, 9, 44, 0
5, 427260, Note_on_c, 9, 44, 69
5, 427700, Note_on_c, 9, 44, 0
5, 429162, Note_on_c, 9, 46, 43
5, 429367, Note_on_c, 9, 46, 0
5, 431022, Note_on_c, 9, 44, 48
5, 432646, Note_on_c, 9, 44, 0
5, 432967, Note_on_c, 9, 44, 48
5, 433592, Note_on_c, 9, 44, 0
5, 434933, Note_on_c, 9, 44, 44
5, 435327, Note_on_c, 9, 44, 0
5, 435327, End_track
6, 0, Start_track
6, 0, Title_t, "Other Drum Hits"
6, 0, Note_on_c, 9, 38, 43
6, 13, Note_on_c, 9, 38, 0
6, 596, Note_on_c, 9, 36, 91
6, 836, Note_on_c, 9, 36, 0
6, 1018, Note_on_c, 9, 36, 43
6, 1031, Note_on_c, 9, 36, 0
6, 2082, Note_on_c, 9, 36, 61
6, 3573, Note_on_c, 9, 36, 0
6, 4525, Note_on_c, 9, 38, 27
6, 4583, Note_on_c, 9, 38, 0
6, 5456, Note_on_c, 9, 38, 25
6, 5548, Note_on_c, 9, 38, 0
6, 6392, Note_on_c, 9, 38, 28
6, 6590, Note_on_c, 9, 38, 0
6, 7332, Note_on_c, 9, 36, 60
6, 7491, Note_on_c, 9, 36, 0
6, 7613, Note_on_c, 9, 57, 31
6, 7682, Note_on_c, 9, 36, 31
6, 7814, Note_on_c, 9, 36, 0
6, 7853, Note_on_c, 9, 57, 0
6, 11330, Note_on_c, 9, 36, 64
6, 11558, Note_on_c, 9, 36, 0
6, 11701, Note_on_c, 9, 36, 43
6, 11998, Note_on_c, 9, 36, 0
6, 14298, Note_on_c, 9, 38, 18
6, 14345, Note_on_c, 9, 38, 0
6, 14899, Note_on_c, 9, 38, 27
6, 15017, Note_on_c, 9, 38, 0
6, 15217, Note_on_c, 9, 36, 49
6, 15338, Note_on_c, 9, 36, 0
6, 15491, Note_on_c, 9, 36, 57
6, 15664, Note_on_c, 9, 36, 0
6, 22721, Note_on_c, 9, 36, 47
6, 22786, Note_on_c, 9, 36, 0
6, 29212, Note_on_c, 9, 43, 47
6, 29264, Note_on_c, 9, 43, 0
6, 29450, Note_on_c, 9, 43, 55
6, 29589, Note_on_c, 9, 43, 0
6, 29718, Note_on_c, 9, 41, 58
6, 29781, Note_on_c, 9, 41, 0
6, 30035, Note_on_c, 9, 36, 36
6, 30153, Note_on_c, 9, 36, 0
6, 30368, Note_on_c, 9, 36, 71
6, 30710, Note_on_c, 9, 36, 0
6, 38096, Note_on_c, 9, 36, 60
6, 38148, Note_on_c, 9, 36, 0
6, 38427, Note_on_c, 9, 36, 45
6, 38437, Note_on_c, 9, 57, 33
6, 38530, Note_on_c, 9, 57, 0
6, 38622, Note_on_c, 9, 36, 0
6, 45787, Note_on_c, 9, 36, 50
6, 45921, Note_on_c, 9, 36, 0
6, 52412, Note_on_c, 9, 38, 24
6, 52488, Note_on_c, 9, 38, 0
6, 53104, Note_on_c, 9, 38, 41
6, 53183, Note_on_c, 9, 38, 0
6, 53403, Note_on_c, 9, 38, 40
6, 53539, Note_on_c, 9, 38, 0
6, 53690, Note_on_c, 9, 38, 36
6, 53788, Note_on_c, 9, 38, 0
6, 54293, Note_on_c, 9, 36, 66
6, 54352, Note_on_c, 9, 36, 0
6, 54637, Note_on_c, 9, 36, 54
6, 54812, Note_on_c, 9, 36, 0
6, 55281, Note_on_c, 9, 36, 80
6, 56187, Note_on_c, 9, 36, 0
6, 56295, Note_on_c, 9, 38, 30
6, 56416, Note_on_c, 9, 38, 0
6, 56704, Note_on_c, 9, 36, 39
6, 56864, Note_on_c, 9, 36, 0
6, 57313, Note_on_c, 9, 36, 53
6, 58282, Note_on_c, 9, 36, 0
6, 58308, Note_on_c, 9, 38, 24
6, 58366, Note_on_c, 9, 38, 0
6, 59252, Note_on_c, 9, 36, 45
6, 59532, Note_on_c, 9, 36, 0
6, 66919, Note_on_c, 9, 38, 22
6, 67020, Note_on_c, 9, 38, 0
6, 67278, Note_on_c, 9, 38, 18
6, 67564, Note_on_c, 9, 38, 0
6, 67852, Note_on_c, 9, 36, 54
6, 67972, Note_on_c, 9, 36, 0
6, 68218, Note_on_c, 9, 38, 29
6, 68348, Note_on_c, 9, 38, 0
6, 68851, Note_on_c, 9, 36, 43
6, 68910, Note_on_c, 9, 36, 0
6, 69188, Note_on_c, 9, 57, 38
6, 69212, Note_on_c, 9, 36, 48
6, 69305, Note_on_c, 9, 57, 0
6, 69597, Note_on_c, 9, 36, 0
6, 72711, Note_on_c, 9, 38, 41
6, 72947, Note_on_c, 9, 38, 0
6, 73110, Note_on_c, 9, 36, 40
6, 73517, Note_on_c, 9, 36, 0
6, 73681, Note_on_c, 9, 36, 32
6, 73752, Note_on_c, 9, 36, 0
6, 82228, Note_on_c, 9, 38, 21
6, 82303, Note_on_c, 9, 38, 0
6, 83181, Note_on_c, 9, 38, 25
6, 83266, Note_on_c, 9, 38, 0
6, 83535, Note_on_c, 9, 36, 20
6, 83709, Note_on_c, 9, 36, 0
6, 84153, Note_on_c, 9, 36, 41
6, 84319, Note_on_c, 9, 36, 0
6, 84487, Note_on_c, 9, 36, 40
6, 84763, Note_on_c, 9, 36, 0
6, 87743, Note_on_c, 9, 38, 33
6, 87885, Note_on_c, 9, 38, 0
6, 87985, Note_on_c, 9, 38, 48
6, 88058, Note_on_c, 9, 38, 0
6, 88308, Note_on_c, 9, 36, 53
6, 89147, Note_on_c, 9, 36, 0
6, 89336, Note_on_c, 9, 36, 39
6, 90109, Note_on_c, 9, 36, 0
6, 94715, Note_on_c, 9, 38, 12
6, 94837, Note_on_c, 9, 38, 0
6, 95110, Note_on_c, 9, 38, 23
6, 95209, Note_on_c, 9, 38, 0
6, 95355, Note_on_c, 9, 38, 16
6, 95440, Note_on_c, 9, 38, 0
6, 95597, Note_on_c, 9, 36, 42
6, 95912, Note_on_c, 9, 36, 0
6, 100192, Note_on_c, 9, 38, 15
6, 100308, Note_on_c, 9, 38, 0
6, 100507, Note_on_c, 9, 36, 37
6, 100596, Note_on_c, 9, 36, 0
6, 100780, Note_on_c, 9, 38, 21
6, 101023, Note_on_c, 9, 38, 0
6, 101164, Note_on_c, 9, 36, 24
6, 101244, Note_on_c, 9, 36, 0
6, 101444, Note_on_c, 9, 38, 26
6, 101512, Note_on_c, 9, 38, 0
6, 101786, Note_on_c, 9, 36, 28
6, 101852, Note_on_c, 9, 36, 0
6, 102424, Note_on_c, 9, 36, 64
6, 102673, Note_on_c, 9, 36, 0
6, 102792, Note_on_c, 9, 36, 68
6, 103387, Note_on_c, 9, 36, 0
6, 105271, Note_on_c, 9, 36, 32
6, 105345, Note_on_c, 9, 36, 0
6, 110122, Note_on_c, 9, 38, 23
6, 110267, Note_on_c, 9, 38, 0
6, 111035, Note_on_c, 9, 36, 44
6, 111153, Note_on_c, 9, 36, 0
6, 113623, Note_on_c, 9, 45, 55
6, 113682, Note_on_c, 9, 45, 0
6, 113944, Note_on_c, 9, 45, 64
6, 114188, Note_on_c, 9, 45, 0
6, 114305, Note_on_c, 9, 43, 49
6, 114431, Note_on_c, 9, 43, 0
6, 114607, Note_on_c, 9, 41, 66
6, 114662, Note_on_c, 9, 41, 0
6, 114916, Note_on_c, 9, 38, 50
6, 115011, Note_on_c, 9, 38, 0
6, 115325, Note_on_c, 9, 38, 33
6, 115334, Note_on_c, 9, 40, 44
6, 115374, Note_on_c, 9, 38, 0
6, 115389, Note_on_c, 9, 40, 0
6, 115852, Note_on_c, 9, 57, 69
6, 115857, Note_on_c, 9, 36, 88
6, 117671, Note_on_c, 9, 57, 0
6, 117792, Note_on_c, 9, 38, 55
6, 117832, Note_on_c, 9, 36, 0
6, 118047, Note_on_c, 9, 38, 0
6, 118138, Note_on_c, 9, 36, 60
6, 118533, Note_on_c, 9, 36, 0
6, 118699, Note_on_c, 9, 36, 53
6, 119072, Note_on_c, 9, 36, 0
6, 121623, Note_on_c, 9, 38, 33
6, 121770, Note_on_c, 9, 38, 0
6, 122589, Note_on_c, 9, 36, 24
6, 122685, Note_on_c, 9, 36, 0
6, 122943, Note_on_c, 9, 36, 26
6, 123475, Note_on_c, 9, 36, 0
6, 125451, Note_on_c, 9, 38, 26
6, 125520, Note_on_c, 9, 38, 0
6, 125812, Note_on_c, 9, 38, 30
6, 125965, Note_on_c, 9, 38, 0
6, 126081, Note_on_c, 9, 38, 19
6, 126159, Note_on_c, 9, 38, 0
6, 126424, Note_on_c, 9, 36, 65
6, 126862, Note_on_c, 9, 36, 0
6, 128359, Note_on_c, 9, 38, 24
6, 128416, Note_on_c, 9, 38, 0
6, 128710, Note_on_c, 9, 45, 72
6, 128898, Note_on_c, 9, 45, 0
6, 128989, Note_on_c, 9, 41, 52
6, 129053, Note_on_c, 9, 41, 0
6, 129360, Note_on_c, 9, 38, 29
6, 129521, Note_on_c, 9, 38, 0
6, 129972, Note_on_c, 9, 40, 69
6, 130021, Note_on_c, 9, 40, 0
6, 130296, Note_on_c, 9, 36, 65
6, 130377, Note_on_c, 9, 36, 0
6, 130601, Note_on_c, 9, 57, 39
6, 130612, Note_on_c, 9, 36, 60
6, 132840, Note_on_c, 9, 57, 0
6, 132842, Note_on_c, 9, 36, 0
6, 132885, Note_on_c, 9, 38, 30
6, 132964, Note_on_c, 9, 38, 0
6, 133209, Note_on_c, 9, 38, 30
6, 133342, Note_on_c, 9, 38, 0
6, 133532, Note_on_c, 9, 36, 46
6, 133540, Note_on_c, 9, 57, 40
6, 134461, Note_on_c, 9, 57, 0
6, 135456, Note_on_c, 9, 36, 0
6, 141546, Note_on_c, 9, 38, 33
6, 141615, Note_on_c, 9, 38, 0
6, 142127, Note_on_c, 9, 38, 27
6, 142224, Note_on_c, 9, 38, 0
6, 142388, Note_on_c, 9, 38, 6
6, 142507, Note_on_c, 9, 38, 0
6, 142689, Note_on_c, 9, 36, 43
6, 142834, Note_on_c, 9, 36, 0
6, 143045, Note_on_c, 9, 36, 40
6, 143456, Note_on_c, 9, 36, 0
6, 143681, Note_on_c, 9, 36, 38
6, 143766, Note_on_c, 9, 36, 0
6, 149415, Note_on_c, 9, 38, 29
6, 149473, Note_on_c, 9, 38, 0
6, 150154, Note_on_c, 9, 38, 16
6, 150213, Note_on_c, 9, 38, 0
6, 150411, Note_on_c, 9, 38, 19
6, 150537, Note_on_c, 9, 38, 0
6, 151101, Note_on_c, 9, 36, 42
6, 151365, Note_on_c, 9, 36, 0
6, 157172, Note_on_c, 9, 38, 12
6, 157341, Note_on_c, 9, 38, 0
6, 157777, Note_on_c, 9, 38, 18
6, 158120, Note_on_c, 9, 38, 0
6, 158409, Note_on_c, 9, 38, 19
6, 159019, Note_on_c, 9, 36, 43
6, 159109, Note_on_c, 9, 38, 0
6, 159218, Note_on_c, 9, 36, 0
6, 159394, Note_on_c, 9, 36, 43
6, 159868, Note_on_c, 9, 36, 0
6, 163623, Note_on_c, 9, 38, 26
6, 163777, Note_on_c, 9, 38, 0
6, 163912, Note_on_c, 9, 38, 27
6, 164056, Note_on_c, 9, 38, 0
6, 164214, Note_on_c, 9, 36, 35
6, 164418, Note_on_c, 9, 36, 0
6, 164572, Note_on_c, 9, 36, 45
6, 164745, Note_on_c, 9, 36, 0
6, 164905, Note_on_c, 9, 38, 36
6, 165233, Note_on_c, 9, 38, 0
6, 165553, Note_on_c, 9, 36, 49
6, 165667, Note_on_c, 9, 36, 0
6, 165825, Note_on_c, 9, 36, 48
6, 166102, Note_on_c, 9, 36, 0
6, 168675, Note_on_c, 9, 38, 38
6, 168911, Note_on_c, 9, 38, 0
6, 169084, Note_on_c, 9, 36, 28
6, 169435, Note_on_c, 9, 36, 0
6, 169605, Note_on_c, 9, 36, 34
6, 169758, Note_on_c, 9, 36, 0
6, 169960, Note_on_c, 9, 36, 27
6, 170477, Note_on_c, 9, 36, 0
6, 170621, Note_on_c, 9, 36, 36
6, 170765, Note_on_c, 9, 36, 0
6, 173040, Note_on_c, 9, 38, 1
6, 173436, Note_on_c, 9, 38, 0
6, 173874, Note_on_c, 9, 38, 11
6, 174410, Note_on_c, 9, 38, 0
6, 174792, Note_on_c, 9, 38, 18
6, 175403, Note_on_c, 9, 38, 0
6, 175414, Note_on_c, 9, 36, 46
6, 175586, Note_on_c, 9, 36, 0
6, 175779, Note_on_c, 9, 38, 16
6, 176270, Note_on_c, 9, 38, 0
6, 176342, Note_on_c, 9, 36, 64
6, 176589, Note_on_c, 9, 36, 0
6, 176710, Note_on_c, 9, 36, 54
6, 176817, Note_on_c, 9, 36, 0
6, 177265, Note_on_c, 9, 57, 42
6, 177278, Note_on_c, 9, 36, 72
6, 179030, Note_on_c, 9, 38, 40
6, 179058, Note_on_c, 9, 57, 0
6, 179066, Note_on_c, 9, 36, 0
6, 179148, Note_on_c, 9, 38, 0
6, 179298, Note_on_c, 9, 38, 27
6, 179487, Note_on_c, 9, 38, 0
6, 179635, Note_on_c, 9, 36, 36
6, 180122, Note_on_c, 9, 36, 0
6, 180311, Note_on_c, 9, 36, 76
6, 181616, Note_on_c, 9, 36, 0
6, 184013, Note_on_c, 9, 38, 39
6, 184348, Note_on_c, 9, 36, 29
6, 184393, Note_on_c, 9, 38, 0
6, 184792, Note_on_c, 9, 36, 0
6, 184969, Note_on_c, 9, 36, 37
6, 185071, Note_on_c, 9, 36, 0
6, 186623, Note_on_c, 9, 38, 24
6, 186686, Note_on_c, 9, 38, 0
6, 187234, Note_on_c, 9, 38, 36
6, 187731, Note_on_c, 9, 38, 0
6, 187816, Note_on_c, 9, 36, 57
6, 188170, Note_on_c, 9, 36, 0
6, 190747, Note_on_c, 9, 38, 57
6, 190901, Note_on_c, 9, 38, 0
6, 191104, Note_on_c, 9, 38, 33
6, 191220, Note_on_c, 9, 38, 0
6, 191695, Note_on_c, 9, 36, 80
6, 191920, Note_on_c, 9, 36, 0
6, 192057, Note_on_c, 9, 36, 76
6, 192061, Note_on_c, 9, 57, 47
6, 194062, Note_on_c, 9, 57, 0
6, 194559, Note_on_c, 9, 38, 57
6, 194578, Note_on_c, 9, 36, 0
6, 194727, Note_on_c, 9, 38, 0
6, 195520, Note_on_c, 9, 36, 53
6, 195713, Note_on_c, 9, 36, 0
6, 197454, Note_on_c, 9, 38, 53
6, 197552, Note_on_c, 9, 38, 0
6, 198033, Note_on_c, 9, 38, 51
6, 198362, Note_on_c, 9, 38, 0
6, 198706, Note_on_c, 9, 38, 49
6, 198875, Note_on_c, 9, 38, 0
6, 199300, Note_on_c, 9, 36, 82
6, 199553, Note_on_c, 9, 36, 0
6, 199655, Note_on_c, 9, 36, 71
6, 200169, Note_on_c, 9, 36, 0
6, 200259, Note_on_c, 9, 36, 48
6, 200451, Note_on_c, 9, 36, 0
6, 202233, Note_on_c, 9, 38, 51
6, 202370, Note_on_c, 9, 38, 0
6, 202551, Note_on_c, 9, 38, 19
6, 202728, Note_on_c, 9, 38, 0
6, 203136, Note_on_c, 9, 36, 45
6, 203214, Note_on_c, 9, 36, 0
6, 203468, Note_on_c, 9, 38, 42
6, 203486, Note_on_c, 9, 57, 41
6, 203948, Note_on_c, 9, 57, 0
6, 204031, Note_on_c, 9, 38, 0
6, 205758, Note_on_c, 9, 57, 24
6, 205787, Note_on_c, 9, 38, 33
6, 205814, Note_on_c, 9, 57, 0
6, 205875, Note_on_c, 9, 38, 0
6, 206068, Note_on_c, 9, 38, 39
6, 206189, Note_on_c, 9, 38, 0
6, 206913, Note_on_c, 9, 38, 47
6, 207116, Note_on_c, 9, 38, 0
6, 207294, Note_on_c, 9, 36, 66
6, 207686, Note_on_c, 9, 36, 0
6, 213713, Note_on_c, 9, 38, 30
6, 213988, Note_on_c, 9, 38, 0
6, 214172, Note_on_c, 9, 36, 20
6, 214375, Note_on_c, 9, 36, 0
6, 214716, Note_on_c, 9, 36, 46
6, 214900, Note_on_c, 9, 36, 0
6, 215072, Note_on_c, 9, 36, 48
6, 215235, Note_on_c, 9, 36, 0
6, 218184, Note_on_c, 9, 38, 23
6, 218277, Note_on_c, 9, 38, 0
6, 218490, Note_on_c, 9, 38, 21
6, 218575, Note_on_c, 9, 38, 0
6, 218794, Note_on_c, 9, 36, 35
6, 218886, Note_on_c, 9, 36, 0
6, 219122, Note_on_c, 9, 38, 18
6, 219208, Note_on_c, 9, 38, 0
6, 219416, Note_on_c, 9, 38, 18
6, 219581, Note_on_c, 9, 38, 0
6, 221057, Note_on_c, 9, 38, 26
6, 221186, Note_on_c, 9, 38, 0
6, 221349, Note_on_c, 9, 38, 24
6, 221499, Note_on_c, 9, 38, 0
6, 221631, Note_on_c, 9, 36, 24
6, 221723, Note_on_c, 9, 36, 0
6, 221962, Note_on_c, 9, 38, 27
6, 222106, Note_on_c, 9, 38, 0
6, 222301, Note_on_c, 9, 36, 35
6, 222461, Note_on_c, 9, 36, 0
6, 222654, Note_on_c, 9, 36, 63
6, 223267, Note_on_c, 9, 36, 0
6, 228638, Note_on_c, 9, 38, 22
6, 228800, Note_on_c, 9, 38, 0
6, 229066, Note_on_c, 9, 38, 22
6, 229219, Note_on_c, 9, 38, 0
6, 229525, Note_on_c, 9, 38, 20
6, 229636, Note_on_c, 9, 38, 0
6, 229794, Note_on_c, 9, 36, 43
6, 230103, Note_on_c, 9, 36, 0
6, 235205, Note_on_c, 9, 38, 25
6, 235326, Note_on_c, 9, 38, 0
6, 235706, Note_on_c, 9, 38, 27
6, 235855, Note_on_c, 9, 38, 0
6, 236181, Note_on_c, 9, 38, 27
6, 236273, Note_on_c, 9, 38, 0
6, 236429, Note_on_c, 9, 36, 43
6, 236732, Note_on_c, 9, 36, 0
6, 237152, Note_on_c, 9, 38, 26
6, 237210, Note_on_c, 9, 38, 0
6, 237446, Note_on_c, 9, 38, 21
6, 237504, Note_on_c, 9, 38, 0
6, 238606, Note_on_c, 9, 38, 37
6, 238803, Note_on_c, 9, 38, 0
6, 238982, Note_on_c, 9, 36, 52
6, 238997, Note_on_c, 9, 57, 25
6, 240609, Note_on_c, 9, 57, 0
6, 240674, Note_on_c, 9, 36, 0
6, 240674, Note_on_c, 9, 38, 38
6, 240857, Note_on_c, 9, 38, 0
6, 241039, Note_on_c, 9, 36, 38
6, 241193, Note_on_c, 9, 36, 0
6, 241620, Note_on_c, 9, 57, 34
6, 241621, Note_on_c, 9, 36, 58
6, 243027, Note_on_c, 9, 57, 0
6, 243509, Note_on_c, 9, 36, 0
6, 243538, Note_on_c, 9, 38, 56
6, 244490, Note_on_c, 9, 36, 48
6, 244500, Note_on_c, 9, 38, 0
6, 244684, Note_on_c, 9, 36, 0
6, 244870, Note_on_c, 9, 36, 33
6, 245177, Note_on_c, 9, 36, 0
6, 245431, Note_on_c, 9, 36, 53
6, 245634, Note_on_c, 9, 36, 0
6, 245809, Note_on_c, 9, 36, 34
6, 246821, Note_on_c, 9, 36, 0
6, 248247, Note_on_c, 9, 38, 22
6, 248310, Note_on_c, 9, 38, 0
6, 248723, Note_on_c, 9, 38, 33
6, 248848, Note_on_c, 9, 38, 0
6, 248994, Note_on_c, 9, 38, 25
6, 249053, Note_on_c, 9, 38, 0
6, 249207, Note_on_c, 9, 36, 58
6, 249609, Note_on_c, 9, 36, 0
6, 252208, Note_on_c, 9, 38, 33
6, 252346, Note_on_c, 9, 38, 0
6, 252540, Note_on_c, 9, 38, 21
6, 252737, Note_on_c, 9, 38, 0
6, 253141, Note_on_c, 9, 36, 53
6, 253320, Note_on_c, 9, 36, 0
6, 253497, Note_on_c, 9, 36, 52
6, 254396, Note_on_c, 9, 36, 0
6, 256928, Note_on_c, 9, 38, 41
6, 257126, Note_on_c, 9, 38, 0
6, 257888, Note_on_c, 9, 38, 39
6, 258113, Note_on_c, 9, 38, 0
6, 258322, Note_on_c, 9, 36, 29
6, 258564, Note_on_c, 9, 36, 0
6, 258877, Note_on_c, 9, 36, 62
6, 259097, Note_on_c, 9, 36, 0
6, 259242, Note_on_c, 9, 36, 50
6, 260079, Note_on_c, 9, 36, 0
6, 267763, Note_on_c, 9, 38, 20
6, 267881, Note_on_c, 9, 38, 0
6, 268050, Note_on_c, 9, 38, 21
6, 268147, Note_on_c, 9, 38, 0
6, 270056, Note_on_c, 9, 38, 28
6, 270182, Note_on_c, 9, 38, 0
6, 270345, Note_on_c, 9, 36, 47
6, 270482, Note_on_c, 9, 36, 0
6, 272028, Note_on_c, 9, 38, 30
6, 272083, Note_on_c, 9, 38, 0
6, 272276, Note_on_c, 9, 36, 46
6, 272498, Note_on_c, 9, 36, 0
6, 275163, Note_on_c, 9, 38, 29
6, 275336, Note_on_c, 9, 38, 0
6, 275542, Note_on_c, 9, 36, 28
6, 275697, Note_on_c, 9, 36, 0
6, 276132, Note_on_c, 9, 36, 42
6, 276324, Note_on_c, 9, 36, 0
6, 276477, Note_on_c, 9, 36, 36
6, 277335, Note_on_c, 9, 36, 0
6, 282836, Note_on_c, 9, 38, 40
6, 283043, Note_on_c, 9, 38, 0
6, 283212, Note_on_c, 9, 38, 28
6, 283718, Note_on_c, 9, 38, 0
6, 283813, Note_on_c, 9, 36, 69
6, 284008, Note_on_c, 9, 36, 0
6, 284182, Note_on_c, 9, 36, 71
6, 284185, Note_on_c, 9, 57, 34
6, 286414, Note_on_c, 9, 38, 36
6, 286425, Note_on_c, 9, 57, 0
6, 286429, Note_on_c, 9, 36, 0
6, 286502, Note_on_c, 9, 38, 0
6, 286693, Note_on_c, 9, 38, 34
6, 286946, Note_on_c, 9, 38, 0
6, 287028, Note_on_c, 9, 57, 45
6, 287030, Note_on_c, 9, 36, 60
6, 288796, Note_on_c, 9, 57, 0
6, 289349, Note_on_c, 9, 36, 0
6, 291259, Note_on_c, 9, 38, 30
6, 291354, Note_on_c, 9, 38, 0
6, 291545, Note_on_c, 9, 38, 31
6, 291771, Note_on_c, 9, 38, 0
6, 291805, Note_on_c, 9, 36, 45
6, 292349, Note_on_c, 9, 36, 0
6, 295703, Note_on_c, 9, 38, 19
6, 295780, Note_on_c, 9, 38, 0
6, 296170, Note_on_c, 9, 38, 27
6, 296309, Note_on_c, 9, 38, 0
6, 296439, Note_on_c, 9, 38, 24
6, 296573, Note_on_c, 9, 38, 0
6, 296671, Note_on_c, 9, 38, 39
6, 296727, Note_on_c, 9, 38, 0
6, 296942, Note_on_c, 9, 36, 55
6, 297211, Note_on_c, 9, 36, 0
6, 297724, Note_on_c, 9, 36, 62
6, 298097, Note_on_c, 9, 36, 0
6, 298577, Note_on_c, 9, 38, 32
6, 298681, Note_on_c, 9, 38, 0
6, 298821, Note_on_c, 9, 38, 27
6, 298966, Note_on_c, 9, 38, 0
6, 299091, Note_on_c, 9, 38, 35
6, 299240, Note_on_c, 9, 38, 0
6, 299328, Note_on_c, 9, 38, 33
6, 299488, Note_on_c, 9, 38, 0
6, 299574, Note_on_c, 9, 38, 48
6, 299707, Note_on_c, 9, 38, 0
6, 299869, Note_on_c, 9, 36, 80
6, 300094, Note_on_c, 9, 36, 0
6, 300521, Note_on_c, 9, 36, 78
6, 302626, Note_on_c, 9, 36, 0
6, 304951, Note_on_c, 9, 38, 46
6, 305153, Note_on_c, 9, 38, 0
6, 305926, Note_on_c, 9, 38, 45
6, 306191, Note_on_c, 9, 38, 0
6, 306875, Note_on_c, 9, 36, 51
6, 307061, Note_on_c, 9, 36, 0
6, 307268, Note_on_c, 9, 36, 45
6, 307403, Note_on_c, 9, 36, 0
6, 308844, Note_on_c, 9, 38, 28
6, 308996, Note_on_c, 9, 38, 0
6, 309231, Note_on_c, 9, 38, 12
6, 309619, Note_on_c, 9, 38, 0
6, 309800, Note_on_c, 9, 36, 41
6, 309925, Note_on_c, 9, 36, 0
6, 310786, Note_on_c, 9, 38, 32
6, 310864, Note_on_c, 9, 38, 0
6, 311717, Note_on_c, 9, 45, 95
6, 311949, Note_on_c, 9, 45, 0
6, 312694, Note_on_c, 9, 43, 96
6, 313219, Note_on_c, 9, 43, 0
6, 313610, Note_on_c, 9, 41, 103
6, 313929, Note_on_c, 9, 38, 14
6, 313985, Note_on_c, 9, 38, 0
6, 314007, Note_on_c, 9, 41, 0
6, 314274, Note_on_c, 9, 38, 58
6, 314357, Note_on_c, 9, 38, 0
6, 314557, Note_on_c, 9, 38, 53
6, 314812, Note_on_c, 9, 38, 0
6, 314887, Note_on_c, 9, 57, 51
6, 314896, Note_on_c, 9, 36, 80
6, 317235, Note_on_c, 9, 57, 0
6, 318107, Note_on_c, 9, 36, 0
6, 318188, Note_on_c, 9, 45, 77
6, 318235, Note_on_c, 9, 45, 0
6, 318475, Note_on_c, 9, 38, 49
6, 318743, Note_on_c, 9, 38, 0
6, 318811, Note_on_c, 9, 57, 58
6, 318822, Note_on_c, 9, 36, 78
6, 320665, Note_on_c, 9, 57, 0
6, 321204, Note_on_c, 9, 36, 0
6, 322266, Note_on_c, 9, 38, 26
6, 322384, Note_on_c, 9, 38, 0
6, 322604, Note_on_c, 9, 36, 36
6, 322697, Note_on_c, 9, 36, 0
6, 324477, Note_on_c, 9, 38, 18
6, 324565, Note_on_c, 9, 38, 0
6, 324946, Note_on_c, 9, 38, 30
6, 325060, Note_on_c, 9, 38, 0
6, 325409, Note_on_c, 9, 38, 24
6, 325494, Note_on_c, 9, 38, 0
6, 325667, Note_on_c, 9, 38, 14
6, 325737, Note_on_c, 9, 38, 0
6, 325831, Note_on_c, 9, 36, 44
6, 326009, Note_on_c, 9, 36, 0
6, 329644, Note_on_c, 9, 38, 13
6, 329735, Note_on_c, 9, 38, 0
6, 329867, Note_on_c, 9, 38, 18
6, 329944, Note_on_c, 9, 38, 0
6, 330082, Note_on_c, 9, 38, 18
6, 330195, Note_on_c, 9, 38, 0
6, 330332, Note_on_c, 9, 38, 25
6, 330399, Note_on_c, 9, 38, 0
6, 330577, Note_on_c, 9, 36, 46
6, 330751, Note_on_c, 9, 36, 0
6, 331293, Note_on_c, 9, 36, 32
6, 331504, Note_on_c, 9, 36, 0
6, 334602, Note_on_c, 9, 38, 18
6, 334687, Note_on_c, 9, 38, 0
6, 334877, Note_on_c, 9, 38, 12
6, 334940, Note_on_c, 9, 38, 0
6, 336347, Note_on_c, 9, 38, 26
6, 336497, Note_on_c, 9, 38, 0
6, 336607, Note_on_c, 9, 38, 30
6, 336762, Note_on_c, 9, 38, 0
6, 336881, Note_on_c, 9, 36, 54
6, 337054, Note_on_c, 9, 36, 0
6, 337221, Note_on_c, 9, 36, 63
6, 337482, Note_on_c, 9, 36, 0
6, 337947, Note_on_c, 9, 36, 45
6, 338125, Note_on_c, 9, 36, 0
6, 340214, Note_on_c, 9, 38, 31
6, 340267, Note_on_c, 9, 38, 0
6, 340794, Note_on_c, 9, 38, 31
6, 340887, Note_on_c, 9, 38, 0
6, 341462, Note_on_c, 9, 36, 38
6, 341616, Note_on_c, 9, 36, 0
6, 344349, Note_on_c, 9, 38, 21
6, 344436, Note_on_c, 9, 38, 0
6, 345222, Note_on_c, 9, 40, 68
6, 345279, Note_on_c, 9, 40, 0
6, 345650, Note_on_c, 9, 36, 30
6, 346043, Note_on_c, 9, 36, 0
6, 346219, Note_on_c, 9, 36, 49
6, 346383, Note_on_c, 9, 36, 0
6, 348124, Note_on_c, 9, 38, 37
6, 348317, Note_on_c, 9, 38, 0
6, 348576, Note_on_c, 9, 36, 17
6, 348736, Note_on_c, 9, 36, 0
6, 349070, Note_on_c, 9, 36, 42
6, 349267, Note_on_c, 9, 36, 0
6, 349422, Note_on_c, 9, 36, 33
6, 349712, Note_on_c, 9, 36, 0
6, 355888, Note_on_c, 9, 38, 26
6, 356087, Note_on_c, 9, 38, 0
6, 356257, Note_on_c, 9, 38, 22
6, 356654, Note_on_c, 9, 38, 0
6, 356817, Note_on_c, 9, 36, 42
6, 356989, Note_on_c, 9, 36, 0
6, 357154, Note_on_c, 9, 38, 20
6, 357556, Note_on_c, 9, 38, 0
6, 357738, Note_on_c, 9, 36, 28
6, 357875, Note_on_c, 9, 36, 0
6, 358087, Note_on_c, 9, 36, 31
6, 358559, Note_on_c, 9, 36, 0
6, 358716, Note_on_c, 9, 36, 38
6, 358856, Note_on_c, 9, 36, 0
6, 361569, Note_on_c, 9, 36, 48
6, 361769, Note_on_c, 9, 36, 0
6, 361954, Note_on_c, 9, 36, 34
6, 362413, Note_on_c, 9, 36, 0
6, 362564, Note_on_c, 9, 36, 62
6, 363506, Note_on_c, 9, 36, 0
6, 363598, Note_on_c, 9, 38, 18
6, 363741, Note_on_c, 9, 38, 0
6, 364574, Note_on_c, 9, 36, 30
6, 364692, Note_on_c, 9, 36, 0
6, 364912, Note_on_c, 9, 36, 39
6, 365768, Note_on_c, 9, 36, 0
6, 366527, Note_on_c, 9, 36, 19
6, 366684, Note_on_c, 9, 36, 0
6, 367430, Note_on_c, 9, 38, 31
6, 367555, Note_on_c, 9, 38, 0
6, 368374, Note_on_c, 9, 36, 22
6, 368536, Note_on_c, 9, 36, 0
6, 368730, Note_on_c, 9, 36, 47
6, 369591, Note_on_c, 9, 36, 0
6, 370654, Note_on_c, 9, 36, 42
6, 371073, Note_on_c, 9, 36, 0
6, 371223, Note_on_c, 9, 36, 57
6, 371356, Note_on_c, 9, 36, 0
6, 372177, Note_on_c, 9, 38, 18
6, 372230, Note_on_c, 9, 38, 0
6, 372479, Note_on_c, 9, 36, 58
6, 372624, Note_on_c, 9, 36, 0
6, 373069, Note_on_c, 9, 36, 57
6, 373137, Note_on_c, 9, 36, 0
6, 376000, Note_on_c, 9, 38, 33
6, 376163, Note_on_c, 9, 38, 0
6, 376350, Note_on_c, 9, 57, 25
6, 376377, Note_on_c, 9, 36, 42
6, 379435, Note_on_c, 9, 57, 0
6, 379850, Note_on_c, 9, 36, 0
6, 379864, Note_on_c, 9, 38, 43
6, 380001, Note_on_c, 9, 38, 0
6, 380220, Note_on_c, 9, 36, 38
6, 380655, Note_on_c, 9, 36, 0
6, 380853, Note_on_c, 9, 36, 27
6, 380925, Note_on_c, 9, 36, 0
6, 385663, Note_on_c, 9, 36, 24
6, 385765, Note_on_c, 9, 36, 0
6, 386925, Note_on_c, 9, 37, 79
6, 387274, Note_on_c, 9, 37, 0
6, 390670, Note_on_c, 9, 37, 81
6, 391026, Note_on_c, 9, 37, 0
6, 391318, Note_on_c, 9, 36, 38
6, 391421, Note_on_c, 9, 36, 0
6, 391642, Note_on_c, 9, 36, 48
6, 392771, Note_on_c, 9, 36, 0
6, 394579, Note_on_c, 9, 37, 77
6, 394938, Note_on_c, 9, 37, 0
6, 395219, Note_on_c, 9, 36, 24
6, 395377, Note_on_c, 9, 36, 0
6, 395569, Note_on_c, 9, 36, 45
6, 396004, Note_on_c, 9, 36, 0
6, 398414, Note_on_c, 9, 37, 79
6, 398581, Note_on_c, 9, 37, 0
6, 399023, Note_on_c, 9, 38, 34
6, 399176, Note_on_c, 9, 38, 0
6, 399392, Note_on_c, 9, 36, 31
6, 399556, Note_on_c, 9, 36, 0
6, 402223, Note_on_c, 9, 37, 87
6, 402439, Note_on_c, 9, 37, 0
6, 402858, Note_on_c, 9, 38, 25
6, 402940, Note_on_c, 9, 38, 0
6, 406028, Note_on_c, 9, 37, 80
6, 406258, Note_on_c, 9, 37, 0
6, 409943, Note_on_c, 9, 37, 85
6, 410169, Note_on_c, 9, 37, 0
6, 413789, Note_on_c, 9, 36, 53
6, 413921, Note_on_c, 9, 36, 0
6, 417613, Note_on_c, 9, 37, 81
6, 417935, Note_on_c, 9, 37, 0
6, 421144, Note_on_c, 9, 38, 47
6, 421294, Note_on_c, 9, 38, 0
6, 421486, Note_on_c, 9, 38, 27
6, 421813, Note_on_c, 9, 38, 0
6, 422067, Note_on_c, 9, 36, 59
6, 422266, Note_on_c, 9, 36, 0
6, 422440, Note_on_c, 9, 36, 45
6, 422518, Note_on_c, 9, 36, 0
6, 423068, Note_on_c, 9, 57, 67
6, 423078, Note_on_c, 9, 36, 77
6, 424924, Note_on_c, 9, 38, 48
6, 424932, Note_on_c, 9, 57, 0
6, 424944, Note_on_c, 9, 36, 0
6, 425199, Note_on_c, 9, 38, 0
6, 425287, Note_on_c, 9, 36, 50
6, 425353, Note_on_c, 9, 57, 23
6, 425531, Note_on_c, 9, 57, 0
6, 425638, Note_on_c, 9, 36, 0
6, 425914, Note_on_c, 9, 36, 71
6, 425917, Note_on_c, 9, 57, 39
6, 427717, Note_on_c, 9, 57, 0
6, 427813, Note_on_c, 9, 36, 0
6, 427819, Note_on_c, 9, 38, 51
6, 427982, Note_on_c, 9, 38, 0
6, 428787, Note_on_c, 9, 38, 56
6, 428951, Note_on_c, 9, 38, 0
6, 429174, Note_on_c, 9, 38, 41
6, 429337, Note_on_c, 9, 38, 0
6, 429756, Note_on_c, 9, 36, 57
6, 429843, Note_on_c, 9, 36, 0
6, 430105, Note_on_c, 9, 57, 38
6, 430113, Note_on_c, 9, 36, 71
6, 433228, Note_on_c, 9, 36, 0
6, 433330, Note_on_c, 9, 38, 29
6, 433405, Note_on_c, 9, 38, 0
6, 433495, Note_on_c, 9, 57, 0
6, 433648, Note_on_c, 9, 38, 32
6, 433747, Note_on_c, 9, 38, 0
6, 433981, Note_on_c, 9, 36, 51
6, 433997, Note_on_c, 9, 57, 33
6, 434475, Note_on_c, 9, 57, 0
6, 434502, Note_on_c, 9, 36, 0
6, 435481, Note_on_c, 9, 57, 43
6, 435510, Note_on_c, 9, 36, 55
6, 436233, Note_on_c, 9, 57, 0
6, 437099, Note_on_c, 9, 36, 0
6, 437099, End_track
0, 0, End_of_file
