0, 0, Header, 1, 5, 120
1, 0, Start_track
1, 0, Title_t, "The Surrey with the Fringe On Top"
1, 0, Text_t, "Doug McKenzie dougmck@pipeline.com.au\012"
1, 0, Text_t, "'The Surrey with the Fringe On Top' and 'Oh What a Beautiful Morning' from 'Oaklahoma' - Rodgers and Hammerstein\012"
1, 0, Time_signature, 4, 2, 24, 8
1, 0, Key_signature, 0, "major"
1, 0, Tempo, 352941
1, 0, Marker_t, "Piano and percussion"
1, 17280, Marker_t, "2 pianos and percussion"
1, 34560, Marker_t, "Piano bass and percussion"
1, 51840, Marker_t, "Oh what a Beautiful Morning - solo piano"
1, 51840, End_track
2, 0, Start_track
2, 0, Title_t, "Rhodes piano"
2, 0, Program_c, 3, 4
2, 0, Control_c, 3, 7, 80
2, 0, Control_c, 3, 10, 1
2, 242, Control_c, 3, 64, 0
2, 17283, Note_on_c, 3, 57, 30
2, 17283, Note_on_c, 3, 72, 51
2, 17303, Note_on_c, 3, 72, 0
2, 17341, Note_on_c, 3, 60, 43
2, 17380, Note_on_c, 3, 60, 0
2, 17401, Note_on_c, 3, 62, 36
2, 17404, Note_on_c, 3, 48, 32
2, 17427, Note_on_c, 3, 57, 0
2, 17437, Note_on_c, 3, 62, 0
2, 17464, Note_on_c, 3, 64, 38
2, 17492, Note_on_c, 3, 64, 0
2, 17523, Note_on_c, 3, 65, 36
2, 17526, Note_on_c, 3, 57, 26
2, 17547, Note_on_c, 3, 57, 0
2, 17547, Note_on_c, 3, 65, 0
2, 17583, Note_on_c, 3, 67, 48
2, 17594, Note_on_c, 3, 48, 0
2, 17607, Note_on_c, 3, 67, 0
2, 17638, Note_on_c, 3, 69, 54
2, 17642, Note_on_c, 3, 48, 28
2, 17663, Note_on_c, 3, 69, 0
2, 17701, Note_on_c, 3, 70, 55
2, 17729, Note_on_c, 3, 70, 0
2, 17760, Note_on_c, 3, 58, 55
2, 17761, Note_on_c, 3, 72, 71
2, 17787, Note_on_c, 3, 72, 0
2, 17820, Note_on_c, 3, 60, 43
2, 17833, Note_on_c, 3, 60, 0
2, 17834, Note_on_c, 3, 48, 0
2, 17878, Note_on_c, 3, 62, 44
2, 17882, Note_on_c, 3, 48, 31
2, 17929, Note_on_c, 3, 62, 0
2, 17944, Note_on_c, 3, 64, 32
2, 17955, Note_on_c, 3, 58, 0
2, 17970, Note_on_c, 3, 64, 0
2, 18002, Note_on_c, 3, 65, 29
2, 18008, Note_on_c, 3, 58, 20
2, 18031, Note_on_c, 3, 65, 0
2, 18065, Note_on_c, 3, 67, 44
2, 18068, Note_on_c, 3, 48, 0
2, 18094, Note_on_c, 3, 67, 0
2, 18114, Note_on_c, 3, 48, 39
2, 18124, Note_on_c, 3, 69, 49
2, 18152, Note_on_c, 3, 69, 0
2, 18183, Note_on_c, 3, 70, 53
2, 18184, Note_on_c, 3, 58, 0
2, 18186, Control_c, 3, 64, 127
2, 18210, Note_on_c, 3, 70, 0
2, 18239, Control_c, 3, 64, 0
2, 18239, Note_on_c, 3, 72, 73
2, 18244, Note_on_c, 3, 57, 62
2, 18269, Note_on_c, 3, 72, 0
2, 18286, Note_on_c, 3, 48, 0
2, 18301, Note_on_c, 3, 60, 33
2, 18315, Note_on_c, 3, 60, 0
2, 18353, Note_on_c, 3, 48, 36
2, 18355, Note_on_c, 3, 62, 30
2, 18382, Note_on_c, 3, 57, 0
2, 18390, Note_on_c, 3, 62, 0
2, 18425, Note_on_c, 3, 64, 23
2, 18438, Note_on_c, 3, 64, 0
2, 18478, Note_on_c, 3, 57, 28
2, 18481, Note_on_c, 3, 65, 21
2, 18496, Note_on_c, 3, 65, 0
2, 18523, Note_on_c, 3, 48, 0
2, 18538, Note_on_c, 3, 67, 33
2, 18552, Note_on_c, 3, 67, 0
2, 18595, Note_on_c, 3, 48, 27
2, 18599, Note_on_c, 3, 69, 28
2, 18614, Note_on_c, 3, 69, 0
2, 18619, Note_on_c, 3, 57, 0
2, 18652, Note_on_c, 3, 70, 44
2, 18679, Note_on_c, 3, 70, 0
2, 18711, Note_on_c, 3, 58, 54
2, 18713, Note_on_c, 3, 72, 64
2, 18733, Note_on_c, 3, 48, 0
2, 18744, Note_on_c, 3, 72, 0
2, 18770, Note_on_c, 3, 62, 21
2, 18800, Note_on_c, 3, 62, 0
2, 18822, Note_on_c, 3, 58, 0
2, 18830, Note_on_c, 3, 62, 32
2, 18832, Note_on_c, 3, 48, 32
2, 18853, Note_on_c, 3, 62, 0
2, 18961, Note_on_c, 3, 58, 23
2, 19017, Note_on_c, 3, 48, 0
2, 19067, Note_on_c, 3, 48, 36
2, 19069, Note_on_c, 3, 58, 0
2, 19074, Note_on_c, 3, 70, 33
2, 19101, Note_on_c, 3, 70, 0
2, 19143, Note_on_c, 3, 71, 40
2, 19149, Note_on_c, 3, 48, 0
2, 19149, Control_c, 3, 64, 127
2, 19178, Note_on_c, 3, 71, 0
2, 19188, Control_c, 3, 64, 0
2, 19191, Note_on_c, 3, 48, 32
2, 19193, Note_on_c, 3, 72, 48
2, 19220, Note_on_c, 3, 72, 0
2, 19314, Note_on_c, 3, 57, 25
2, 19318, Note_on_c, 3, 60, 36
2, 19332, Note_on_c, 3, 60, 0
2, 19364, Note_on_c, 3, 48, 0
2, 19384, Note_on_c, 3, 57, 0
2, 19394, Control_c, 3, 64, 127
2, 19420, Control_c, 3, 64, 0
2, 19436, Note_on_c, 3, 46, 38
2, 19438, Note_on_c, 3, 60, 34
2, 19462, Note_on_c, 3, 55, 4
2, 19465, Note_on_c, 3, 60, 0
2, 19555, Note_on_c, 3, 72, 56
2, 19585, Note_on_c, 3, 72, 0
2, 19587, Note_on_c, 3, 46, 0
2, 19616, Note_on_c, 3, 46, 28
2, 19631, Note_on_c, 3, 60, 22
2, 19646, Note_on_c, 3, 55, 0
2, 19662, Note_on_c, 3, 60, 0
2, 19669, Note_on_c, 3, 46, 0
2, 19685, Note_on_c, 3, 45, 32
2, 19686, Note_on_c, 3, 55, 24
2, 19688, Note_on_c, 3, 60, 42
2, 19715, Note_on_c, 3, 60, 0
2, 19744, Note_on_c, 3, 55, 0
2, 19754, Control_c, 3, 64, 127
2, 19777, Control_c, 3, 64, 0
2, 19801, Note_on_c, 3, 55, 34
2, 19803, Note_on_c, 3, 72, 30
2, 19805, Note_on_c, 3, 60, 40
2, 19808, Note_on_c, 3, 71, 25
2, 19816, Note_on_c, 3, 60, 0
2, 19821, Note_on_c, 3, 71, 0
2, 19823, Note_on_c, 3, 72, 0
2, 19860, Note_on_c, 3, 55, 0
2, 19873, Note_on_c, 3, 45, 0
2, 19919, Note_on_c, 3, 70, 39
2, 19921, Note_on_c, 3, 65, 41
2, 19922, Note_on_c, 3, 60, 35
2, 19923, Note_on_c, 3, 54, 36
2, 19936, Note_on_c, 3, 60, 0
2, 19942, Note_on_c, 3, 65, 0
2, 19945, Note_on_c, 3, 70, 0
2, 19947, Note_on_c, 3, 54, 0
2, 20036, Note_on_c, 3, 54, 32
2, 20037, Note_on_c, 3, 68, 40
2, 20041, Note_on_c, 3, 63, 39
2, 20044, Note_on_c, 3, 60, 36
2, 20044, Note_on_c, 3, 44, 26
2, 20057, Note_on_c, 3, 60, 0
2, 20065, Note_on_c, 3, 68, 0
2, 20066, Note_on_c, 3, 63, 0
2, 20067, Note_on_c, 3, 54, 0
2, 20089, Note_on_c, 3, 44, 0
2, 20103, Control_c, 3, 64, 127
2, 20147, Control_c, 3, 64, 0
2, 20160, Note_on_c, 3, 67, 32
2, 20161, Note_on_c, 3, 57, 32
2, 20165, Note_on_c, 3, 55, 32
2, 20167, Note_on_c, 3, 60, 28
2, 20191, Note_on_c, 3, 60, 0
2, 20193, Note_on_c, 3, 57, 0
2, 20207, Note_on_c, 3, 67, 0
2, 20213, Note_on_c, 3, 55, 0
2, 20225, Note_on_c, 3, 43, 30
2, 20249, Note_on_c, 3, 43, 0
2, 20265, Note_on_c, 3, 50, 16
2, 20344, Note_on_c, 3, 53, 45
2, 20349, Note_on_c, 3, 50, 0
2, 20393, Note_on_c, 3, 53, 0
2, 20404, Note_on_c, 3, 65, 38
2, 20407, Note_on_c, 3, 59, 40
2, 20409, Note_on_c, 3, 53, 24
2, 20412, Note_on_c, 3, 47, 24
2, 20486, Note_on_c, 3, 47, 0
2, 20506, Note_on_c, 3, 65, 0
2, 20508, Note_on_c, 3, 53, 0
2, 20520, Note_on_c, 3, 62, 36
2, 20522, Note_on_c, 3, 55, 40
2, 20523, Note_on_c, 3, 47, 28
2, 20549, Note_on_c, 3, 55, 0
2, 20551, Note_on_c, 3, 59, 0
2, 20556, Note_on_c, 3, 62, 0
2, 20596, Note_on_c, 3, 47, 0
2, 20643, Note_on_c, 3, 62, 31
2, 20643, Note_on_c, 3, 50, 33
2, 20644, Note_on_c, 3, 58, 36
2, 20645, Note_on_c, 3, 53, 28
2, 20660, Note_on_c, 3, 53, 0
2, 20669, Note_on_c, 3, 62, 0
2, 20672, Note_on_c, 3, 58, 0
2, 20681, Note_on_c, 3, 50, 0
2, 20761, Note_on_c, 3, 58, 41
2, 20762, Note_on_c, 3, 62, 43
2, 20762, Note_on_c, 3, 65, 37
2, 20763, Note_on_c, 3, 55, 40
2, 20768, Note_on_c, 3, 53, 17
2, 20773, Note_on_c, 3, 55, 0
2, 20777, Note_on_c, 3, 53, 0
2, 20781, Note_on_c, 3, 58, 0
2, 20782, Note_on_c, 3, 62, 0
2, 20784, Note_on_c, 3, 65, 0
2, 20878, Note_on_c, 3, 48, 27
2, 20879, Note_on_c, 3, 64, 45
2, 20880, Note_on_c, 3, 58, 36
2, 20881, Note_on_c, 3, 55, 37
2, 20894, Note_on_c, 3, 55, 0
2, 20896, Control_c, 3, 64, 127
2, 20926, Note_on_c, 3, 58, 0
2, 20937, Note_on_c, 3, 64, 0
2, 20993, Note_on_c, 3, 36, 32
2, 21003, Note_on_c, 3, 36, 0
2, 21008, Control_c, 3, 64, 0
2, 21015, Note_on_c, 3, 48, 0
2, 21018, Control_c, 3, 64, 127
2, 21117, Note_on_c, 3, 72, 70
2, 21119, Note_on_c, 3, 48, 48
2, 21120, Note_on_c, 3, 57, 48
2, 21130, Control_c, 3, 64, 0
2, 21144, Note_on_c, 3, 72, 0
2, 21177, Note_on_c, 3, 60, 28
2, 21186, Note_on_c, 3, 57, 0
2, 21207, Note_on_c, 3, 60, 0
2, 21239, Note_on_c, 3, 62, 39
2, 21241, Note_on_c, 3, 57, 34
2, 21278, Note_on_c, 3, 62, 0
2, 21305, Note_on_c, 3, 64, 37
2, 21307, Control_c, 3, 64, 127
2, 21329, Note_on_c, 3, 57, 0
2, 21336, Note_on_c, 3, 64, 0
2, 21341, Control_c, 3, 64, 0
2, 21358, Note_on_c, 3, 65, 45
2, 21359, Note_on_c, 3, 58, 35
2, 21398, Note_on_c, 3, 65, 0
2, 21421, Note_on_c, 3, 67, 44
2, 21445, Note_on_c, 3, 48, 0
2, 21454, Note_on_c, 3, 67, 0
2, 21471, Note_on_c, 3, 48, 35
2, 21474, Note_on_c, 3, 69, 59
2, 21516, Note_on_c, 3, 69, 0
2, 21524, Control_c, 3, 64, 127
2, 21534, Note_on_c, 3, 70, 59
2, 21572, Note_on_c, 3, 58, 0
2, 21581, Note_on_c, 3, 70, 0
2, 21594, Control_c, 3, 64, 0
2, 21599, Note_on_c, 3, 72, 60
2, 21642, Note_on_c, 3, 72, 0
2, 21661, Note_on_c, 3, 60, 33
2, 21686, Note_on_c, 3, 48, 0
2, 21694, Note_on_c, 3, 60, 0
2, 21715, Note_on_c, 3, 62, 40
2, 21722, Note_on_c, 3, 48, 40
2, 21766, Note_on_c, 3, 62, 0
2, 21776, Note_on_c, 3, 64, 40
2, 21782, Control_c, 3, 64, 127
2, 21790, Note_on_c, 3, 48, 0
2, 21822, Note_on_c, 3, 64, 0
2, 21822, Note_on_c, 3, 48, 16
2, 21835, Note_on_c, 3, 65, 46
2, 21837, Control_c, 3, 64, 0
2, 21837, Note_on_c, 3, 57, 40
2, 21847, Note_on_c, 3, 57, 0
2, 21883, Note_on_c, 3, 65, 0
2, 21894, Note_on_c, 3, 67, 29
2, 21897, Control_c, 3, 64, 127
2, 21923, Note_on_c, 3, 67, 0
2, 21938, Control_c, 3, 64, 0
2, 21956, Note_on_c, 3, 57, 28
2, 21958, Note_on_c, 3, 71, 26
2, 21969, Note_on_c, 3, 69, 26
2, 21979, Note_on_c, 3, 69, 0
2, 21987, Note_on_c, 3, 48, 0
2, 21990, Note_on_c, 3, 71, 0
2, 22010, Note_on_c, 3, 71, 8
2, 22022, Control_c, 3, 64, 127
2, 22048, Note_on_c, 3, 71, 0
2, 22061, Control_c, 3, 64, 0
2, 22074, Note_on_c, 3, 72, 56
2, 22075, Note_on_c, 3, 48, 47
2, 22085, Note_on_c, 3, 57, 0
2, 22105, Note_on_c, 3, 72, 0
2, 22133, Note_on_c, 3, 60, 42
2, 22162, Note_on_c, 3, 60, 0
2, 22189, Note_on_c, 3, 62, 40
2, 22190, Note_on_c, 3, 57, 39
2, 22236, Note_on_c, 3, 62, 0
2, 22251, Note_on_c, 3, 48, 0
2, 22251, Note_on_c, 3, 64, 42
2, 22281, Note_on_c, 3, 64, 0
2, 22302, Note_on_c, 3, 57, 0
2, 22309, Note_on_c, 3, 48, 31
2, 22312, Note_on_c, 3, 65, 28
2, 22345, Note_on_c, 3, 65, 0
2, 22374, Note_on_c, 3, 67, 40
2, 22403, Note_on_c, 3, 67, 0
2, 22435, Note_on_c, 3, 58, 28
2, 22437, Note_on_c, 3, 69, 49
2, 22471, Note_on_c, 3, 69, 0
2, 22478, Note_on_c, 3, 58, 0
2, 22486, Note_on_c, 3, 48, 0
2, 22494, Note_on_c, 3, 70, 31
2, 22502, Control_c, 3, 64, 127
2, 22533, Note_on_c, 3, 70, 0
2, 22548, Control_c, 3, 64, 0
2, 22553, Note_on_c, 3, 72, 55
2, 22585, Note_on_c, 3, 72, 0
2, 22614, Note_on_c, 3, 60, 41
2, 22626, Note_on_c, 3, 48, 40
2, 22646, Note_on_c, 3, 60, 0
2, 22674, Note_on_c, 3, 62, 35
2, 22715, Note_on_c, 3, 62, 0
2, 22739, Note_on_c, 3, 64, 42
2, 22765, Control_c, 3, 64, 127
2, 22769, Note_on_c, 3, 64, 0
2, 22781, Control_c, 3, 64, 0
2, 22796, Note_on_c, 3, 57, 30
2, 22796, Note_on_c, 3, 65, 36
2, 22826, Note_on_c, 3, 57, 0
2, 22830, Note_on_c, 3, 65, 0
2, 22855, Note_on_c, 3, 67, 48
2, 22874, Control_c, 3, 64, 127
2, 22890, Note_on_c, 3, 67, 0
2, 22893, Control_c, 3, 64, 0
2, 22914, Note_on_c, 3, 58, 23
2, 22916, Note_on_c, 3, 69, 48
2, 22927, Control_c, 3, 64, 127
2, 22935, Note_on_c, 3, 58, 0
2, 22942, Control_c, 3, 64, 0
2, 22951, Note_on_c, 3, 69, 0
2, 22961, Control_c, 3, 64, 127
2, 22966, Note_on_c, 3, 48, 0
2, 22977, Note_on_c, 3, 70, 42
2, 23015, Note_on_c, 3, 70, 0
2, 23031, Control_c, 3, 64, 0
2, 23035, Note_on_c, 3, 72, 48
2, 23035, Note_on_c, 3, 48, 29
2, 23040, Note_on_c, 3, 57, 26
2, 23062, Note_on_c, 3, 72, 0
2, 23096, Note_on_c, 3, 60, 32
2, 23122, Control_c, 3, 64, 127
2, 23123, Note_on_c, 3, 60, 0
2, 23133, Control_c, 3, 64, 0
2, 23142, Note_on_c, 3, 48, 0
2, 23150, Note_on_c, 3, 62, 43
2, 23175, Note_on_c, 3, 57, 0
2, 23186, Note_on_c, 3, 62, 0
2, 23195, Control_c, 3, 64, 127
2, 23213, Note_on_c, 3, 64, 39
2, 23256, Note_on_c, 3, 64, 0
2, 23273, Note_on_c, 3, 56, 36
2, 23275, Note_on_c, 3, 65, 46
2, 23276, Control_c, 3, 64, 0
2, 23278, Note_on_c, 3, 46, 34
2, 23323, Note_on_c, 3, 65, 0
2, 23331, Control_c, 3, 64, 127
2, 23334, Note_on_c, 3, 67, 39
2, 23362, Note_on_c, 3, 67, 0
2, 23392, Note_on_c, 3, 69, 43
2, 23419, Note_on_c, 3, 69, 0
2, 23439, Note_on_c, 3, 56, 0
2, 23449, Note_on_c, 3, 46, 0
2, 23456, Note_on_c, 3, 70, 49
2, 23490, Note_on_c, 3, 70, 0
2, 23516, Note_on_c, 3, 72, 51
2, 23518, Note_on_c, 3, 55, 48
2, 23519, Note_on_c, 3, 45, 44
2, 23525, Note_on_c, 3, 71, 19
2, 23527, Control_c, 3, 64, 0
2, 23536, Note_on_c, 3, 71, 0
2, 23539, Note_on_c, 3, 72, 0
2, 23582, Note_on_c, 3, 60, 22
2, 23594, Note_on_c, 3, 55, 0
2, 23606, Note_on_c, 3, 60, 0
2, 23616, Note_on_c, 3, 45, 0
2, 23636, Note_on_c, 3, 62, 26
2, 23666, Note_on_c, 3, 62, 0
2, 23698, Note_on_c, 3, 64, 35
2, 23706, Control_c, 3, 64, 127
2, 23738, Note_on_c, 3, 64, 0
2, 23750, Control_c, 3, 64, 0
2, 23757, Note_on_c, 3, 54, 28
2, 23758, Note_on_c, 3, 65, 37
2, 23761, Note_on_c, 3, 44, 24
2, 23798, Note_on_c, 3, 65, 0
2, 23821, Control_c, 3, 64, 127
2, 23823, Note_on_c, 3, 67, 49
2, 23849, Note_on_c, 3, 67, 0
2, 23862, Note_on_c, 3, 44, 0
2, 23871, Note_on_c, 3, 54, 0
2, 23883, Note_on_c, 3, 68, 37
2, 23919, Note_on_c, 3, 68, 0
2, 23943, Note_on_c, 3, 71, 23
2, 23972, Note_on_c, 3, 71, 0
2, 23996, Control_c, 3, 64, 0
2, 23998, Note_on_c, 3, 43, 42
2, 24002, Note_on_c, 3, 55, 31
2, 24009, Note_on_c, 3, 43, 0
2, 24025, Note_on_c, 3, 55, 0
2, 24027, Control_c, 3, 64, 127
2, 24069, Note_on_c, 3, 62, 34
2, 24082, Note_on_c, 3, 62, 0
2, 24125, Note_on_c, 3, 65, 40
2, 24166, Note_on_c, 3, 65, 0
2, 24183, Note_on_c, 3, 72, 36
2, 24206, Note_on_c, 3, 72, 0
2, 24243, Note_on_c, 3, 71, 32
2, 24246, Control_c, 3, 64, 0
2, 24247, Note_on_c, 3, 55, 29
2, 24254, Note_on_c, 3, 64, 27
2, 24268, Note_on_c, 3, 64, 0
2, 24293, Control_c, 3, 64, 127
2, 24327, Control_c, 3, 64, 0
2, 24343, Note_on_c, 3, 71, 0
2, 24353, Note_on_c, 3, 55, 0
2, 24353, Note_on_c, 3, 67, 43
2, 24355, Note_on_c, 3, 62, 26
2, 24356, Note_on_c, 3, 50, 22
2, 24365, Note_on_c, 3, 50, 0
2, 24366, Note_on_c, 3, 62, 0
2, 24368, Note_on_c, 3, 67, 0
2, 24470, Note_on_c, 3, 72, 36
2, 24473, Note_on_c, 3, 65, 33
2, 24473, Note_on_c, 3, 58, 35
2, 24479, Note_on_c, 3, 62, 29
2, 24489, Control_c, 3, 64, 127
2, 24500, Note_on_c, 3, 58, 0
2, 24576, Note_on_c, 3, 62, 0
2, 24580, Note_on_c, 3, 65, 0
2, 24588, Control_c, 3, 64, 0
2, 24589, Note_on_c, 3, 48, 27
2, 24608, Control_c, 3, 64, 127
2, 24623, Note_on_c, 3, 72, 0
2, 24664, Note_on_c, 3, 48, 0
2, 24700, Control_c, 3, 64, 0
2, 24708, Note_on_c, 3, 65, 37
2, 24711, Note_on_c, 3, 62, 23
2, 24713, Note_on_c, 3, 51, 27
2, 24722, Note_on_c, 3, 57, 19
2, 24736, Note_on_c, 3, 62, 0
2, 24737, Note_on_c, 3, 65, 0
2, 24739, Control_c, 3, 64, 127
2, 24798, Note_on_c, 3, 51, 0
2, 24810, Note_on_c, 3, 57, 0
2, 24823, Note_on_c, 3, 48, 36
2, 24827, Control_c, 3, 64, 0
2, 24832, Note_on_c, 3, 48, 0
2, 24838, Control_c, 3, 64, 127
2, 24955, Control_c, 3, 64, 0
2, 24956, Note_on_c, 3, 82, 53
2, 24957, Note_on_c, 3, 75, 49
2, 24958, Note_on_c, 3, 67, 59
2, 24958, Note_on_c, 3, 72, 52
2, 24959, Note_on_c, 3, 79, 36
2, 24992, Control_c, 3, 64, 127
2, 25025, Note_on_c, 3, 79, 0
2, 25045, Note_on_c, 3, 82, 0
2, 25045, Note_on_c, 3, 72, 0
2, 25050, Note_on_c, 3, 75, 0
2, 25076, Note_on_c, 3, 67, 0
2, 25078, Control_c, 3, 64, 0
2, 25081, Note_on_c, 3, 75, 39
2, 25082, Note_on_c, 3, 81, 48
2, 25084, Note_on_c, 3, 65, 37
2, 25085, Note_on_c, 3, 72, 33
2, 25093, Control_c, 3, 64, 127
2, 25129, Note_on_c, 3, 81, 0
2, 25135, Note_on_c, 3, 72, 0
2, 25156, Note_on_c, 3, 75, 0
2, 25191, Note_on_c, 3, 65, 0
2, 25192, Control_c, 3, 64, 0
2, 25201, Note_on_c, 3, 79, 45
2, 25202, Note_on_c, 3, 71, 40
2, 25205, Note_on_c, 3, 74, 44
2, 25206, Note_on_c, 3, 63, 29
2, 25219, Control_c, 3, 64, 127
2, 25252, Note_on_c, 3, 79, 0
2, 25253, Note_on_c, 3, 74, 0
2, 25267, Note_on_c, 3, 71, 0
2, 25310, Note_on_c, 3, 63, 0
2, 25315, Control_c, 3, 64, 0
2, 25315, Note_on_c, 3, 77, 44
2, 25319, Note_on_c, 3, 72, 35
2, 25319, Note_on_c, 3, 62, 32
2, 25327, Note_on_c, 3, 67, 24
2, 25329, Note_on_c, 3, 69, 19
2, 25344, Note_on_c, 3, 69, 0
2, 25344, Control_c, 3, 64, 127
2, 25347, Note_on_c, 3, 67, 0
2, 25352, Note_on_c, 3, 72, 0
2, 25379, Note_on_c, 3, 77, 0
2, 25423, Note_on_c, 3, 62, 0
2, 25425, Control_c, 3, 64, 0
2, 25432, Note_on_c, 3, 75, 40
2, 25438, Note_on_c, 3, 70, 38
2, 25440, Note_on_c, 3, 65, 31
2, 25443, Note_on_c, 3, 60, 31
2, 25464, Control_c, 3, 64, 127
2, 25479, Note_on_c, 3, 75, 0
2, 25500, Note_on_c, 3, 70, 0
2, 25517, Note_on_c, 3, 65, 0
2, 25547, Note_on_c, 3, 60, 0
2, 25550, Control_c, 3, 64, 0
2, 25556, Note_on_c, 3, 74, 48
2, 25558, Note_on_c, 3, 58, 33
2, 25560, Note_on_c, 3, 65, 27
2, 25560, Note_on_c, 3, 69, 45
2, 25587, Control_c, 3, 64, 127
2, 25594, Note_on_c, 3, 69, 0
2, 25602, Note_on_c, 3, 74, 0
2, 25614, Note_on_c, 3, 65, 0
2, 25661, Note_on_c, 3, 58, 0
2, 25665, Control_c, 3, 64, 0
2, 25676, Note_on_c, 3, 72, 28
2, 25677, Note_on_c, 3, 67, 38
2, 25678, Note_on_c, 3, 57, 24
2, 25678, Note_on_c, 3, 62, 29
2, 25704, Control_c, 3, 64, 127
2, 25715, Note_on_c, 3, 67, 0
2, 25738, Note_on_c, 3, 62, 0
2, 25748, Note_on_c, 3, 72, 0
2, 25783, Control_c, 3, 64, 0
2, 25786, Note_on_c, 3, 57, 0
2, 25793, Note_on_c, 3, 62, 43
2, 25794, Note_on_c, 3, 70, 27
2, 25800, Note_on_c, 3, 55, 35
2, 25803, Note_on_c, 3, 70, 0
2, 25814, Control_c, 3, 64, 127
2, 25816, Note_on_c, 3, 62, 0
2, 25900, Note_on_c, 3, 55, 0
2, 25902, Control_c, 3, 64, 0
2, 25907, Note_on_c, 3, 69, 45
2, 25909, Note_on_c, 3, 58, 32
2, 25910, Note_on_c, 3, 63, 32
2, 25912, Note_on_c, 3, 53, 31
2, 25952, Control_c, 3, 64, 127
2, 25996, Note_on_c, 3, 69, 0
2, 25999, Note_on_c, 3, 58, 0
2, 26013, Note_on_c, 3, 63, 0
2, 26022, Control_c, 3, 64, 0
2, 26027, Note_on_c, 3, 53, 0
2, 26027, Note_on_c, 3, 58, 38
2, 26029, Note_on_c, 3, 63, 20
2, 26032, Note_on_c, 3, 51, 31
2, 26033, Note_on_c, 3, 67, 39
2, 26062, Note_on_c, 3, 67, 0
2, 26068, Note_on_c, 3, 58, 0
2, 26079, Control_c, 3, 64, 127
2, 26081, Note_on_c, 3, 63, 0
2, 26147, Note_on_c, 3, 51, 0
2, 26147, Control_c, 3, 64, 0
2, 26155, Note_on_c, 3, 62, 43
2, 26157, Note_on_c, 3, 50, 28
2, 26176, Note_on_c, 3, 62, 0
2, 26176, Note_on_c, 3, 67, 4
2, 26197, Control_c, 3, 64, 127
2, 26236, Note_on_c, 3, 67, 0
2, 26254, Control_c, 3, 64, 0
2, 26258, Note_on_c, 3, 50, 0
2, 26270, Note_on_c, 3, 65, 40
2, 26272, Note_on_c, 3, 57, 25
2, 26273, Note_on_c, 3, 48, 28
2, 26276, Note_on_c, 3, 62, 24
2, 26290, Note_on_c, 3, 62, 0
2, 26292, Note_on_c, 3, 57, 0
2, 26299, Note_on_c, 3, 65, 0
2, 26309, Control_c, 3, 64, 127
2, 26338, Note_on_c, 3, 48, 0
2, 26391, Note_on_c, 3, 67, 44
2, 26392, Control_c, 3, 64, 0
2, 26395, Note_on_c, 3, 62, 39
2, 26395, Note_on_c, 3, 58, 30
2, 26397, Note_on_c, 3, 46, 31
2, 26398, Note_on_c, 3, 55, 34
2, 26442, Control_c, 3, 64, 127
2, 26499, Control_c, 3, 64, 0
2, 26500, Note_on_c, 3, 55, 0
2, 26515, Note_on_c, 3, 54, 44
2, 26526, Note_on_c, 3, 58, 0
2, 26533, Control_c, 3, 64, 127
2, 26555, Note_on_c, 3, 62, 0
2, 26563, Note_on_c, 3, 67, 0
2, 26619, Control_c, 3, 64, 0
2, 26621, Note_on_c, 3, 46, 0
2, 26629, Note_on_c, 3, 53, 49
2, 26630, Note_on_c, 3, 54, 0
2, 26635, Note_on_c, 3, 65, 44
2, 26636, Note_on_c, 3, 58, 40
2, 26638, Note_on_c, 3, 62, 44
2, 26657, Note_on_c, 3, 58, 0
2, 26671, Control_c, 3, 64, 127
2, 26674, Note_on_c, 3, 62, 0
2, 26677, Note_on_c, 3, 65, 0
2, 26742, Note_on_c, 3, 53, 0
2, 26747, Note_on_c, 3, 46, 50
2, 26766, Note_on_c, 3, 46, 0
2, 26874, Note_on_c, 3, 69, 75
2, 26875, Note_on_c, 3, 77, 67
2, 26875, Note_on_c, 3, 81, 62
2, 26876, Note_on_c, 3, 84, 70
2, 26876, Note_on_c, 3, 74, 71
2, 26880, Note_on_c, 3, 67, 51
2, 26883, Control_c, 3, 64, 0
2, 26885, Note_on_c, 3, 83, 24
2, 26889, Note_on_c, 3, 67, 0
2, 26897, Note_on_c, 3, 83, 0
2, 26928, Control_c, 3, 64, 127
2, 26965, Note_on_c, 3, 84, 0
2, 26973, Note_on_c, 3, 81, 0
2, 26973, Note_on_c, 3, 77, 0
2, 26974, Note_on_c, 3, 74, 0
2, 26976, Note_on_c, 3, 69, 0
2, 26996, Note_on_c, 3, 77, 52
2, 26997, Note_on_c, 3, 83, 59
2, 26998, Control_c, 3, 64, 0
2, 26999, Note_on_c, 3, 74, 36
2, 26999, Note_on_c, 3, 67, 58
2, 27040, Control_c, 3, 64, 127
2, 27052, Note_on_c, 3, 83, 0
2, 27060, Note_on_c, 3, 74, 0
2, 27063, Note_on_c, 3, 77, 0
2, 27106, Note_on_c, 3, 67, 0
2, 27109, Note_on_c, 3, 81, 50
2, 27110, Control_c, 3, 64, 0
2, 27113, Note_on_c, 3, 72, 40
2, 27115, Note_on_c, 3, 76, 52
2, 27117, Note_on_c, 3, 65, 45
2, 27142, Control_c, 3, 64, 127
2, 27187, Note_on_c, 3, 81, 0
2, 27194, Note_on_c, 3, 72, 0
2, 27194, Note_on_c, 3, 76, 0
2, 27226, Note_on_c, 3, 65, 0
2, 27232, Note_on_c, 3, 79, 48
2, 27233, Control_c, 3, 64, 0
2, 27234, Note_on_c, 3, 74, 48
2, 27235, Note_on_c, 3, 71, 40
2, 27236, Note_on_c, 3, 64, 44
2, 27282, Control_c, 3, 64, 127
2, 27304, Note_on_c, 3, 79, 0
2, 27313, Note_on_c, 3, 74, 0
2, 27320, Note_on_c, 3, 71, 0
2, 27346, Note_on_c, 3, 64, 0
2, 27347, Control_c, 3, 64, 0
2, 27350, Note_on_c, 3, 77, 45
2, 27354, Note_on_c, 3, 62, 36
2, 27355, Note_on_c, 3, 69, 38
2, 27356, Note_on_c, 3, 72, 37
2, 27386, Control_c, 3, 64, 127
2, 27426, Note_on_c, 3, 77, 0
2, 27428, Note_on_c, 3, 69, 0
2, 27435, Note_on_c, 3, 72, 0
2, 27457, Control_c, 3, 64, 0
2, 27466, Note_on_c, 3, 62, 0
2, 27468, Note_on_c, 3, 76, 40
2, 27473, Note_on_c, 3, 71, 36
2, 27474, Note_on_c, 3, 67, 28
2, 27475, Note_on_c, 3, 60, 32
2, 27486, Control_c, 3, 64, 127
2, 27528, Note_on_c, 3, 76, 0
2, 27530, Note_on_c, 3, 71, 0
2, 27530, Note_on_c, 3, 67, 0
2, 27574, Control_c, 3, 64, 0
2, 27581, Note_on_c, 3, 60, 0
2, 27587, Note_on_c, 3, 74, 36
2, 27594, Note_on_c, 3, 65, 29
2, 27594, Note_on_c, 3, 69, 40
2, 27597, Note_on_c, 3, 58, 29
2, 27611, Control_c, 3, 64, 127
2, 27626, Note_on_c, 3, 69, 0
2, 27629, Note_on_c, 3, 74, 0
2, 27642, Note_on_c, 3, 65, 0
2, 27703, Note_on_c, 3, 58, 0
2, 27705, Control_c, 3, 64, 0
2, 27709, Note_on_c, 3, 72, 37
2, 27711, Note_on_c, 3, 67, 42
2, 27712, Note_on_c, 3, 64, 32
2, 27714, Note_on_c, 3, 57, 32
2, 27747, Note_on_c, 3, 67, 0
2, 27752, Note_on_c, 3, 72, 0
2, 27752, Control_c, 3, 64, 127
2, 27775, Note_on_c, 3, 64, 0
2, 27821, Note_on_c, 3, 57, 0
2, 27825, Control_c, 3, 64, 0
2, 27827, Note_on_c, 3, 71, 40
2, 27830, Note_on_c, 3, 62, 36
2, 27833, Note_on_c, 3, 67, 34
2, 27835, Note_on_c, 3, 55, 36
2, 27869, Control_c, 3, 64, 127
2, 27876, Note_on_c, 3, 62, 0
2, 27908, Note_on_c, 3, 67, 0
2, 27928, Note_on_c, 3, 71, 0
2, 27931, Control_c, 3, 64, 0
2, 27937, Note_on_c, 3, 55, 0
2, 27950, Note_on_c, 3, 69, 42
2, 27953, Note_on_c, 3, 60, 33
2, 27953, Note_on_c, 3, 53, 29
2, 27954, Note_on_c, 3, 65, 37
2, 27983, Control_c, 3, 64, 127
2, 27991, Note_on_c, 3, 69, 0
2, 28002, Note_on_c, 3, 65, 0
2, 28022, Note_on_c, 3, 60, 0
2, 28053, Note_on_c, 3, 53, 0
2, 28062, Control_c, 3, 64, 0
2, 28073, Note_on_c, 3, 64, 33
2, 28074, Note_on_c, 3, 67, 40
2, 28074, Note_on_c, 3, 43, 28
2, 28078, Note_on_c, 3, 59, 28
2, 28106, Control_c, 3, 64, 127
2, 28116, Note_on_c, 3, 67, 0
2, 28128, Note_on_c, 3, 64, 0
2, 28142, Note_on_c, 3, 59, 0
2, 28187, Control_c, 3, 64, 0
2, 28191, Note_on_c, 3, 65, 43
2, 28192, Note_on_c, 3, 62, 36
2, 28193, Note_on_c, 3, 54, 36
2, 28195, Note_on_c, 3, 59, 31
2, 28216, Control_c, 3, 64, 127
2, 28228, Note_on_c, 3, 59, 0
2, 28233, Note_on_c, 3, 62, 0
2, 28239, Note_on_c, 3, 54, 0
2, 28292, Note_on_c, 3, 65, 0
2, 28307, Control_c, 3, 64, 0
2, 28314, Note_on_c, 3, 58, 40
2, 28316, Note_on_c, 3, 53, 36
2, 28318, Note_on_c, 3, 62, 45
2, 28318, Note_on_c, 3, 64, 45
2, 28343, Note_on_c, 3, 43, 0
2, 28359, Control_c, 3, 64, 127
2, 28393, Note_on_c, 3, 62, 0
2, 28402, Note_on_c, 3, 58, 0
2, 28424, Control_c, 3, 64, 0
2, 28436, Note_on_c, 3, 43, 35
2, 28436, Note_on_c, 3, 62, 42
2, 28439, Note_on_c, 3, 53, 0
2, 28439, Note_on_c, 3, 58, 33
2, 28448, Control_c, 3, 64, 127
2, 28470, Note_on_c, 3, 62, 0
2, 28508, Note_on_c, 3, 58, 0
2, 28540, Note_on_c, 3, 64, 0
2, 28547, Note_on_c, 3, 43, 0
2, 28549, Control_c, 3, 64, 0
2, 28559, Note_on_c, 3, 58, 33
2, 28560, Note_on_c, 3, 60, 46
2, 28560, Note_on_c, 3, 48, 38
2, 28596, Control_c, 3, 64, 127
2, 28616, Note_on_c, 3, 58, 0
2, 28643, Note_on_c, 3, 60, 0
2, 28675, Note_on_c, 3, 36, 51
2, 28683, Note_on_c, 3, 36, 0
2, 28696, Note_on_c, 3, 48, 0
2, 28803, Note_on_c, 3, 72, 56
2, 28807, Note_on_c, 3, 48, 34
2, 28808, Note_on_c, 3, 57, 36
2, 28810, Control_c, 3, 64, 0
2, 28835, Note_on_c, 3, 72, 0
2, 28867, Note_on_c, 3, 60, 32
2, 28879, Note_on_c, 3, 57, 0
2, 28902, Note_on_c, 3, 60, 0
2, 28924, Note_on_c, 3, 62, 35
2, 28931, Note_on_c, 3, 57, 26
2, 28969, Note_on_c, 3, 62, 0
2, 28980, Note_on_c, 3, 57, 0
2, 28989, Note_on_c, 3, 64, 40
2, 29020, Note_on_c, 3, 64, 0
2, 29045, Note_on_c, 3, 58, 39
2, 29053, Note_on_c, 3, 64, 16
2, 29055, Note_on_c, 3, 65, 13
2, 29072, Note_on_c, 3, 65, 0
2, 29073, Note_on_c, 3, 64, 0
2, 29125, Note_on_c, 3, 65, 32
2, 29136, Note_on_c, 3, 48, 0
2, 29146, Note_on_c, 3, 65, 0
2, 29169, Note_on_c, 3, 48, 36
2, 29171, Note_on_c, 3, 67, 43
2, 29211, Note_on_c, 3, 67, 0
2, 29227, Note_on_c, 3, 69, 47
2, 29233, Control_c, 3, 64, 127
2, 29254, Note_on_c, 3, 58, 0
2, 29256, Note_on_c, 3, 69, 0
2, 29269, Note_on_c, 3, 48, 0
2, 29290, Note_on_c, 3, 48, 28
2, 29293, Control_c, 3, 64, 0
2, 29296, Note_on_c, 3, 74, 25
2, 29296, Note_on_c, 3, 72, 27
2, 29300, Note_on_c, 3, 57, 29
2, 29324, Note_on_c, 3, 74, 0
2, 29327, Note_on_c, 3, 72, 0
2, 29360, Note_on_c, 3, 48, 0
2, 29398, Note_on_c, 3, 48, 40
2, 29401, Note_on_c, 3, 72, 40
2, 29402, Note_on_c, 3, 57, 0
2, 29431, Control_c, 3, 64, 127
2, 29437, Note_on_c, 3, 72, 0
2, 29493, Control_c, 3, 64, 0
2, 29517, Note_on_c, 3, 72, 45
2, 29518, Note_on_c, 3, 58, 36
2, 29546, Note_on_c, 3, 72, 0
2, 29553, Control_c, 3, 64, 127
2, 29577, Note_on_c, 3, 48, 0
2, 29619, Control_c, 3, 64, 0
2, 29628, Note_on_c, 3, 58, 0
2, 29630, Note_on_c, 3, 48, 44
2, 29634, Note_on_c, 3, 72, 55
2, 29677, Note_on_c, 3, 72, 0
2, 29686, Control_c, 3, 64, 127
2, 29746, Control_c, 3, 64, 0
2, 29756, Note_on_c, 3, 72, 67
2, 29758, Note_on_c, 3, 57, 48
2, 29763, Note_on_c, 3, 73, 26
2, 29772, Note_on_c, 3, 73, 0
2, 29788, Note_on_c, 3, 72, 0
2, 29798, Note_on_c, 3, 48, 0
2, 29817, Note_on_c, 3, 60, 33
2, 29856, Note_on_c, 3, 60, 0
2, 29877, Note_on_c, 3, 62, 25
2, 29879, Note_on_c, 3, 48, 20
2, 29888, Note_on_c, 3, 57, 0
2, 29929, Control_c, 3, 64, 127
2, 29933, Note_on_c, 3, 62, 0
2, 29943, Note_on_c, 3, 64, 35
2, 29983, Note_on_c, 3, 64, 0
2, 29999, Note_on_c, 3, 57, 32
2, 30004, Control_c, 3, 64, 0
2, 30005, Note_on_c, 3, 65, 37
2, 30038, Note_on_c, 3, 65, 0
2, 30053, Note_on_c, 3, 48, 0
2, 30057, Control_c, 3, 64, 127
2, 30061, Note_on_c, 3, 67, 46
2, 30090, Control_c, 3, 64, 0
2, 30095, Note_on_c, 3, 67, 0
2, 30113, Note_on_c, 3, 48, 28
2, 30115, Note_on_c, 3, 69, 50
2, 30125, Note_on_c, 3, 57, 0
2, 30156, Note_on_c, 3, 69, 0
2, 30158, Control_c, 3, 64, 127
2, 30179, Note_on_c, 3, 70, 50
2, 30215, Note_on_c, 3, 70, 0
2, 30235, Note_on_c, 3, 58, 66
2, 30238, Note_on_c, 3, 72, 72
2, 30242, Control_c, 3, 64, 0
2, 30309, Control_c, 3, 64, 127
2, 30314, Note_on_c, 3, 48, 0
2, 30329, Note_on_c, 3, 72, 0
2, 30335, Control_c, 3, 64, 0
2, 30355, Note_on_c, 3, 58, 0
2, 30361, Note_on_c, 3, 48, 42
2, 30362, Note_on_c, 3, 72, 44
2, 30386, Note_on_c, 3, 72, 0
2, 30390, Control_c, 3, 64, 127
2, 30479, Control_c, 3, 64, 0
2, 30484, Note_on_c, 3, 58, 27
2, 30513, Control_c, 3, 64, 127
2, 30526, Note_on_c, 3, 48, 0
2, 30547, Note_on_c, 3, 62, 33
2, 30570, Note_on_c, 3, 58, 0
2, 30586, Control_c, 3, 64, 0
2, 30592, Note_on_c, 3, 62, 0
2, 30601, Note_on_c, 3, 64, 37
2, 30602, Note_on_c, 3, 58, 27
2, 30633, Control_c, 3, 64, 127
2, 30642, Note_on_c, 3, 64, 0
2, 30662, Note_on_c, 3, 65, 16
2, 30691, Note_on_c, 3, 58, 0
2, 30707, Note_on_c, 3, 65, 0
2, 30717, Note_on_c, 3, 48, 33
2, 30724, Control_c, 3, 64, 0
2, 30737, Note_on_c, 3, 57, 22
2, 30760, Note_on_c, 3, 57, 0
2, 30776, Control_c, 3, 64, 127
2, 30821, Control_c, 3, 64, 0
2, 30844, Control_c, 3, 64, 127
2, 30848, Note_on_c, 3, 60, 28
2, 30853, Note_on_c, 3, 57, 17
2, 30885, Note_on_c, 3, 60, 0
2, 30896, Note_on_c, 3, 48, 0
2, 30906, Note_on_c, 3, 62, 33
2, 30921, Note_on_c, 3, 57, 0
2, 30969, Control_c, 3, 64, 0
2, 30970, Note_on_c, 3, 64, 40
2, 30980, Note_on_c, 3, 62, 0
2, 30989, Note_on_c, 3, 56, 2
2, 31013, Control_c, 3, 64, 127
2, 31041, Note_on_c, 3, 64, 0
2, 31043, Note_on_c, 3, 56, 0
2, 31078, Control_c, 3, 64, 0
2, 31080, Note_on_c, 3, 56, 28
2, 31086, Note_on_c, 3, 64, 41
2, 31107, Control_c, 3, 64, 127
2, 31149, Note_on_c, 3, 46, 33
2, 31186, Note_on_c, 3, 56, 0
2, 31192, Note_on_c, 3, 46, 0
2, 31210, Note_on_c, 3, 45, 40
2, 31214, Control_c, 3, 64, 0
2, 31218, Note_on_c, 3, 55, 35
2, 31251, Control_c, 3, 64, 127
2, 31283, Note_on_c, 3, 55, 0
2, 31309, Note_on_c, 3, 64, 0
2, 31328, Note_on_c, 3, 55, 39
2, 31390, Note_on_c, 3, 55, 0
2, 31402, Note_on_c, 3, 45, 0
2, 31441, Note_on_c, 3, 54, 29
2, 31441, Note_on_c, 3, 70, 41
2, 31444, Control_c, 3, 64, 0
2, 31445, Note_on_c, 3, 65, 45
2, 31446, Note_on_c, 3, 60, 32
2, 31532, Control_c, 3, 64, 127
2, 31551, Note_on_c, 3, 44, 35
2, 31557, Note_on_c, 3, 65, 0
2, 31572, Note_on_c, 3, 70, 0
2, 31583, Note_on_c, 3, 60, 0
2, 31585, Note_on_c, 3, 54, 0
2, 31604, Note_on_c, 3, 44, 0
2, 31678, Note_on_c, 3, 67, 43
2, 31679, Control_c, 3, 64, 0
2, 31679, Note_on_c, 3, 43, 29
2, 31679, Note_on_c, 3, 53, 31
2, 31681, Note_on_c, 3, 62, 35
2, 31722, Note_on_c, 3, 62, 0
2, 31746, Note_on_c, 3, 58, 23
2, 31749, Control_c, 3, 64, 127
2, 31755, Note_on_c, 3, 67, 0
2, 31762, Control_c, 3, 64, 0
2, 31781, Note_on_c, 3, 58, 0
2, 31802, Note_on_c, 3, 62, 28
2, 31806, Control_c, 3, 64, 127
2, 31851, Note_on_c, 3, 62, 0
2, 31858, Note_on_c, 3, 43, 0
2, 31860, Note_on_c, 3, 67, 34
2, 31895, Note_on_c, 3, 67, 0
2, 31917, Note_on_c, 3, 69, 42
2, 31993, Note_on_c, 3, 53, 0
2, 32035, Note_on_c, 3, 45, 56
2, 32046, Control_c, 3, 64, 0
2, 32106, Note_on_c, 3, 69, 0
2, 32106, Control_c, 3, 64, 127
2, 32122, Note_on_c, 3, 45, 0
2, 32160, Note_on_c, 3, 70, 41
2, 32161, Control_c, 3, 64, 0
2, 32162, Note_on_c, 3, 46, 44
2, 32205, Control_c, 3, 64, 127
2, 32220, Note_on_c, 3, 70, 0
2, 32223, Note_on_c, 3, 58, 41
2, 32252, Note_on_c, 3, 58, 0
2, 32260, Control_c, 3, 64, 0
2, 32267, Note_on_c, 3, 46, 0
2, 32278, Note_on_c, 3, 62, 35
2, 32280, Control_c, 3, 64, 127
2, 32318, Note_on_c, 3, 62, 0
2, 32339, Note_on_c, 3, 69, 37
2, 32350, Note_on_c, 3, 69, 0
2, 32398, Note_on_c, 3, 64, 54
2, 32399, Note_on_c, 3, 76, 52
2, 32400, Note_on_c, 3, 77, 61
2, 32400, Note_on_c, 3, 65, 57
2, 32401, Note_on_c, 3, 67, 58
2, 32405, Note_on_c, 3, 75, 26
2, 32406, Note_on_c, 3, 69, 30
2, 32410, Note_on_c, 3, 67, 0
2, 32411, Control_c, 3, 64, 0
2, 32415, Note_on_c, 3, 75, 0
2, 32417, Note_on_c, 3, 69, 0
2, 32447, Note_on_c, 3, 77, 0
2, 32450, Control_c, 3, 64, 127
2, 32464, Note_on_c, 3, 76, 0
2, 32479, Note_on_c, 3, 64, 0
2, 32497, Note_on_c, 3, 65, 0
2, 32516, Note_on_c, 3, 62, 38
2, 32517, Note_on_c, 3, 74, 49
2, 32518, Note_on_c, 3, 65, 47
2, 32519, Note_on_c, 3, 68, 45
2, 32520, Control_c, 3, 64, 0
2, 32534, Note_on_c, 3, 62, 0
2, 32548, Note_on_c, 3, 65, 0
2, 32549, Note_on_c, 3, 74, 0
2, 32554, Note_on_c, 3, 68, 0
2, 32586, Control_c, 3, 64, 127
2, 32646, Control_c, 3, 64, 0
2, 32646, Note_on_c, 3, 72, 51
2, 32648, Note_on_c, 3, 57, 35
2, 32648, Note_on_c, 3, 48, 27
2, 32649, Note_on_c, 3, 65, 52
2, 32672, Note_on_c, 3, 72, 0
2, 32683, Note_on_c, 3, 65, 0
2, 32708, Note_on_c, 3, 60, 32
2, 32729, Note_on_c, 3, 60, 0
2, 32768, Note_on_c, 3, 60, 32
2, 32790, Note_on_c, 3, 60, 0
2, 32826, Note_on_c, 3, 60, 41
2, 32855, Note_on_c, 3, 60, 0
2, 32886, Note_on_c, 3, 60, 29
2, 32905, Note_on_c, 3, 60, 0
2, 32907, Control_c, 3, 64, 127
2, 32923, Note_on_c, 3, 48, 0
2, 32944, Note_on_c, 3, 60, 46
2, 32953, Note_on_c, 3, 48, 32
2, 32974, Note_on_c, 3, 60, 0
2, 33004, Note_on_c, 3, 57, 0
2, 33004, Note_on_c, 3, 60, 36
2, 33028, Note_on_c, 3, 60, 0
2, 33067, Note_on_c, 3, 60, 40
2, 33086, Note_on_c, 3, 60, 0
2, 33127, Note_on_c, 3, 60, 79
2, 33128, Note_on_c, 3, 58, 64
2, 33141, Control_c, 3, 64, 0
2, 33162, Note_on_c, 3, 60, 0
2, 33197, Note_on_c, 3, 60, 35
2, 33220, Note_on_c, 3, 60, 0
2, 33250, Note_on_c, 3, 48, 0
2, 33254, Note_on_c, 3, 60, 34
2, 33272, Note_on_c, 3, 60, 0
2, 33310, Note_on_c, 3, 48, 51
2, 33314, Note_on_c, 3, 60, 65
2, 33342, Note_on_c, 3, 60, 0
2, 33381, Note_on_c, 3, 60, 29
2, 33400, Note_on_c, 3, 60, 0
2, 33436, Note_on_c, 3, 60, 40
2, 33451, Control_c, 3, 64, 127
2, 33452, Note_on_c, 3, 58, 0
2, 33458, Note_on_c, 3, 60, 0
2, 33485, Control_c, 3, 64, 0
2, 33491, Note_on_c, 3, 60, 71
2, 33491, Note_on_c, 3, 58, 56
2, 33526, Note_on_c, 3, 60, 0
2, 33553, Note_on_c, 3, 60, 48
2, 33574, Note_on_c, 3, 60, 0
2, 33577, Control_c, 3, 64, 127
2, 33587, Control_c, 3, 64, 0
2, 33610, Note_on_c, 3, 60, 36
2, 33620, Note_on_c, 3, 58, 0
2, 33636, Control_c, 3, 64, 127
2, 33643, Note_on_c, 3, 60, 0
2, 33670, Note_on_c, 3, 60, 70
2, 33673, Note_on_c, 3, 57, 59
2, 33691, Control_c, 3, 64, 0
2, 33704, Note_on_c, 3, 60, 0
2, 33740, Note_on_c, 3, 60, 24
2, 33767, Note_on_c, 3, 60, 0
2, 33770, Note_on_c, 3, 48, 0
2, 33793, Note_on_c, 3, 60, 52
2, 33801, Control_c, 3, 64, 127
2, 33825, Note_on_c, 3, 60, 0
2, 33843, Note_on_c, 3, 48, 54
2, 33845, Control_c, 3, 64, 0
2, 33848, Note_on_c, 3, 60, 68
2, 33887, Note_on_c, 3, 60, 0
2, 33907, Note_on_c, 3, 60, 43
2, 33934, Note_on_c, 3, 60, 0
2, 33951, Note_on_c, 3, 57, 0
2, 33957, Note_on_c, 3, 60, 43
2, 33994, Note_on_c, 3, 60, 0
2, 34004, Control_c, 3, 64, 127
2, 34022, Note_on_c, 3, 60, 65
2, 34030, Control_c, 3, 64, 0
2, 34060, Note_on_c, 3, 60, 0
2, 34081, Note_on_c, 3, 60, 32
2, 34100, Note_on_c, 3, 60, 0
2, 34116, Control_c, 3, 64, 127
2, 34139, Note_on_c, 3, 60, 64
2, 34141, Note_on_c, 3, 58, 52
2, 34155, Control_c, 3, 64, 0
2, 34172, Note_on_c, 3, 60, 0
2, 34198, Note_on_c, 3, 60, 23
2, 34223, Control_c, 3, 64, 127
2, 34224, Note_on_c, 3, 60, 0
2, 34224, Note_on_c, 3, 48, 0
2, 34255, Note_on_c, 3, 60, 52
2, 34279, Note_on_c, 3, 60, 0
2, 34300, Note_on_c, 3, 58, 0
2, 34304, Control_c, 3, 64, 0
2, 34306, Note_on_c, 3, 48, 44
2, 34310, Note_on_c, 3, 60, 62
2, 34332, Control_c, 3, 64, 127
2, 34342, Note_on_c, 3, 48, 0
2, 34344, Note_on_c, 3, 60, 0
2, 34373, Note_on_c, 3, 60, 36
2, 34391, Note_on_c, 3, 60, 0
2, 34424, Control_c, 3, 64, 0
2, 34427, Note_on_c, 3, 60, 47
2, 34464, Note_on_c, 3, 60, 0
2, 34490, Note_on_c, 3, 60, 42
2, 34501, Note_on_c, 3, 60, 0
2, 34501, End_track
3, 0, Start_track
3, 0, Title_t, "Acoustic Piano"
3, 0, Program_c, 0, 0
3, 0, Control_c, 0, 7, 110
3, 0, Control_c, 0, 10, 127
3, 1, Note_on_c, 0, 60, 57
3, 2, Note_on_c, 0, 48, 36
3, 13, Note_on_c, 0, 60, 0
3, 121, Note_on_c, 0, 60, 42
3, 140, Note_on_c, 0, 60, 0
3, 243, Control_c, 0, 64, 0
3, 245, Note_on_c, 0, 60, 37
3, 261, Note_on_c, 0, 60, 0
3, 364, Note_on_c, 0, 60, 59
3, 394, Note_on_c, 0, 60, 0
3, 483, Note_on_c, 0, 60, 51
3, 502, Note_on_c, 0, 60, 0
3, 602, Note_on_c, 0, 60, 51
3, 642, Note_on_c, 0, 60, 0
3, 666, Note_on_c, 0, 59, 30
3, 681, Note_on_c, 0, 59, 0
3, 720, Note_on_c, 0, 60, 50
3, 725, Note_on_c, 0, 58, 32
3, 784, Note_on_c, 0, 65, 45
3, 797, Note_on_c, 0, 60, 0
3, 916, Note_on_c, 0, 55, 30
3, 931, Note_on_c, 0, 55, 0
3, 942, Note_on_c, 0, 58, 0
3, 949, Note_on_c, 0, 48, 0
3, 966, Note_on_c, 0, 48, 22
3, 974, Note_on_c, 0, 57, 38
3, 1084, Note_on_c, 0, 60, 38
3, 1124, Note_on_c, 0, 60, 0
3, 1145, Note_on_c, 0, 59, 30
3, 1184, Note_on_c, 0, 59, 0
3, 1202, Note_on_c, 0, 60, 38
3, 1251, Note_on_c, 0, 65, 0
3, 1256, Note_on_c, 0, 60, 0
3, 1316, Note_on_c, 0, 60, 62
3, 1359, Note_on_c, 0, 48, 0
3, 1365, Note_on_c, 0, 60, 0
3, 1379, Note_on_c, 0, 48, 62
3, 1382, Note_on_c, 0, 59, 33
3, 1399, Note_on_c, 0, 57, 0
3, 1412, Note_on_c, 0, 59, 0
3, 1435, Note_on_c, 0, 57, 55
3, 1439, Note_on_c, 0, 60, 50
3, 1470, Control_c, 0, 64, 127
3, 1491, Note_on_c, 0, 60, 0
3, 1506, Control_c, 0, 64, 0
3, 1553, Note_on_c, 0, 60, 74
3, 1554, Control_c, 0, 64, 127
3, 1567, Note_on_c, 0, 48, 0
3, 1583, Control_c, 0, 64, 0
3, 1592, Note_on_c, 0, 60, 0
3, 1612, Note_on_c, 0, 59, 37
3, 1618, Note_on_c, 0, 48, 44
3, 1629, Note_on_c, 0, 59, 0
3, 1652, Note_on_c, 0, 57, 0
3, 1672, Note_on_c, 0, 60, 36
3, 1682, Control_c, 0, 64, 127
3, 1721, Note_on_c, 0, 60, 0
3, 1740, Note_on_c, 0, 67, 79
3, 1741, Note_on_c, 0, 58, 67
3, 1744, Control_c, 0, 64, 0
3, 1800, Control_c, 0, 64, 127
3, 1850, Note_on_c, 0, 58, 0
3, 1856, Note_on_c, 0, 48, 0
3, 1866, Note_on_c, 0, 67, 0
3, 1918, Control_c, 0, 64, 0
3, 1921, Note_on_c, 0, 48, 30
3, 1921, Note_on_c, 0, 60, 44
3, 1923, Note_on_c, 0, 57, 29
3, 1964, Note_on_c, 0, 60, 0
3, 1990, Note_on_c, 0, 59, 30
3, 2004, Note_on_c, 0, 59, 0
3, 2010, Note_on_c, 0, 57, 0
3, 2031, Note_on_c, 0, 48, 0
3, 2047, Note_on_c, 0, 60, 34
3, 2097, Note_on_c, 0, 60, 0
3, 2158, Note_on_c, 0, 46, 30
3, 2159, Note_on_c, 0, 60, 32
3, 2163, Note_on_c, 0, 55, 25
3, 2284, Note_on_c, 0, 55, 0
3, 2286, Control_c, 0, 64, 127
3, 2320, Note_on_c, 0, 46, 0
3, 2331, Note_on_c, 0, 60, 0
3, 2344, Note_on_c, 0, 59, 26
3, 2361, Note_on_c, 0, 59, 0
3, 2382, Control_c, 0, 64, 0
3, 2400, Note_on_c, 0, 45, 32
3, 2403, Note_on_c, 0, 55, 28
3, 2405, Note_on_c, 0, 60, 30
3, 2428, Note_on_c, 0, 60, 0
3, 2461, Note_on_c, 0, 55, 0
3, 2481, Note_on_c, 0, 45, 0
3, 2534, Control_c, 0, 64, 127
3, 2558, Control_c, 0, 64, 0
3, 2572, Control_c, 0, 64, 127
3, 2633, Control_c, 0, 64, 0
3, 2646, Note_on_c, 0, 44, 51
3, 2648, Note_on_c, 0, 54, 38
3, 2650, Note_on_c, 0, 60, 76
3, 2664, Control_c, 0, 64, 127
3, 2697, Note_on_c, 0, 60, 0
3, 2706, Note_on_c, 0, 69, 63
3, 2760, Note_on_c, 0, 67, 56
3, 2762, Note_on_c, 0, 69, 0
3, 2779, Note_on_c, 0, 54, 0
3, 2796, Note_on_c, 0, 44, 0
3, 2803, Note_on_c, 0, 67, 0
3, 2824, Note_on_c, 0, 65, 44
3, 2843, Note_on_c, 0, 65, 0
3, 2876, Note_on_c, 0, 67, 60
3, 2881, Note_on_c, 0, 60, 44
3, 2883, Control_c, 0, 64, 0
3, 2884, Note_on_c, 0, 57, 36
3, 2886, Note_on_c, 0, 55, 39
3, 3000, Control_c, 0, 64, 127
3, 3002, Note_on_c, 0, 57, 0
3, 3006, Note_on_c, 0, 60, 0
3, 3018, Note_on_c, 0, 67, 0
3, 3019, Note_on_c, 0, 55, 0
3, 3116, Control_c, 0, 64, 0
3, 3123, Note_on_c, 0, 69, 37
3, 3124, Note_on_c, 0, 53, 31
3, 3125, Note_on_c, 0, 43, 30
3, 3126, Note_on_c, 0, 59, 32
3, 3127, Note_on_c, 0, 64, 37
3, 3155, Control_c, 0, 64, 127
3, 3177, Note_on_c, 0, 59, 0
3, 3179, Note_on_c, 0, 43, 0
3, 3197, Note_on_c, 0, 64, 0
3, 3198, Note_on_c, 0, 53, 0
3, 3208, Note_on_c, 0, 69, 0
3, 3303, Note_on_c, 0, 84, 55
3, 3305, Note_on_c, 0, 83, 51
3, 3332, Note_on_c, 0, 83, 0
3, 3333, Note_on_c, 0, 84, 0
3, 3354, Control_c, 0, 64, 0
3, 3360, Note_on_c, 0, 62, 32
3, 3361, Note_on_c, 0, 72, 35
3, 3364, Note_on_c, 0, 58, 33
3, 3390, Note_on_c, 0, 72, 0
3, 3391, Note_on_c, 0, 62, 0
3, 3393, Note_on_c, 0, 58, 0
3, 3470, Note_on_c, 0, 96, 64
3, 3518, Note_on_c, 0, 96, 0
3, 3543, Note_on_c, 0, 84, 45
3, 3552, Note_on_c, 0, 84, 0
3, 3666, Note_on_c, 0, 73, 48
3, 3674, Note_on_c, 0, 58, 27
3, 3708, Note_on_c, 0, 73, 0
3, 3724, Note_on_c, 0, 64, 37
3, 3734, Note_on_c, 0, 58, 0
3, 3736, Note_on_c, 0, 56, 33
3, 3744, Note_on_c, 0, 64, 0
3, 3758, Note_on_c, 0, 56, 0
3, 3842, Note_on_c, 0, 72, 37
3, 3842, Note_on_c, 0, 67, 48
3, 3844, Note_on_c, 0, 62, 34
3, 3848, Note_on_c, 0, 57, 18
3, 3852, Note_on_c, 0, 67, 0
3, 3855, Note_on_c, 0, 62, 0
3, 3856, Note_on_c, 0, 72, 0
3, 3870, Note_on_c, 0, 57, 0
3, 3952, Note_on_c, 0, 48, 40
3, 3962, Note_on_c, 0, 60, 34
3, 3965, Note_on_c, 0, 48, 0
3, 3979, Note_on_c, 0, 60, 0
3, 4018, Note_on_c, 0, 59, 34
3, 4041, Note_on_c, 0, 59, 0
3, 4078, Note_on_c, 0, 60, 49
3, 4098, Note_on_c, 0, 60, 0
3, 4199, Note_on_c, 0, 60, 49
3, 4199, Note_on_c, 0, 48, 50
3, 4200, Note_on_c, 0, 58, 48
3, 4225, Note_on_c, 0, 58, 0
3, 4227, Note_on_c, 0, 48, 0
3, 4242, Note_on_c, 0, 60, 0
3, 4269, Note_on_c, 0, 59, 32
3, 4284, Note_on_c, 0, 59, 0
3, 4326, Note_on_c, 0, 60, 35
3, 4359, Note_on_c, 0, 60, 0
3, 4381, Note_on_c, 0, 48, 34
3, 4385, Note_on_c, 0, 57, 30
3, 4428, Note_on_c, 0, 60, 38
3, 4478, Note_on_c, 0, 60, 0
3, 4505, Note_on_c, 0, 59, 25
3, 4519, Note_on_c, 0, 59, 0
3, 4551, Note_on_c, 0, 57, 0
3, 4559, Note_on_c, 0, 60, 27
3, 4562, Note_on_c, 0, 48, 0
3, 4614, Note_on_c, 0, 60, 0
3, 4622, Note_on_c, 0, 65, 51
3, 4623, Note_on_c, 0, 58, 51
3, 4637, Note_on_c, 0, 58, 0
3, 4744, Note_on_c, 0, 47, 34
3, 4789, Note_on_c, 0, 47, 0
3, 4799, Note_on_c, 0, 48, 41
3, 4862, Note_on_c, 0, 36, 34
3, 4867, Note_on_c, 0, 65, 0
3, 4879, Note_on_c, 0, 36, 0
3, 4895, Note_on_c, 0, 48, 0
3, 4929, Note_on_c, 0, 60, 31
3, 4965, Note_on_c, 0, 60, 0
3, 4991, Note_on_c, 0, 59, 18
3, 5021, Note_on_c, 0, 59, 0
3, 5044, Note_on_c, 0, 60, 34
3, 5093, Note_on_c, 0, 60, 0
3, 5099, Note_on_c, 0, 46, 42
3, 5115, Note_on_c, 0, 46, 0
3, 5173, Note_on_c, 0, 60, 17
3, 5209, Note_on_c, 0, 60, 0
3, 5227, Note_on_c, 0, 36, 29
3, 5238, Note_on_c, 0, 36, 0
3, 5280, Note_on_c, 0, 60, 41
3, 5340, Note_on_c, 0, 48, 43
3, 5343, Note_on_c, 0, 60, 0
3, 5347, Note_on_c, 0, 47, 30
3, 5357, Note_on_c, 0, 47, 0
3, 5407, Note_on_c, 0, 60, 27
3, 5442, Note_on_c, 0, 60, 0
3, 5466, Note_on_c, 0, 59, 24
3, 5481, Note_on_c, 0, 59, 0
3, 5539, Note_on_c, 0, 60, 7
3, 5578, Note_on_c, 0, 36, 50
3, 5588, Note_on_c, 0, 36, 0
3, 5602, Note_on_c, 0, 48, 0
3, 5620, Note_on_c, 0, 60, 0
3, 5638, Note_on_c, 0, 67, 66
3, 5756, Note_on_c, 0, 60, 48
3, 5807, Note_on_c, 0, 60, 0
3, 5820, Note_on_c, 0, 48, 37
3, 5834, Note_on_c, 0, 48, 0
3, 5881, Note_on_c, 0, 59, 34
3, 5921, Note_on_c, 0, 59, 0
3, 5940, Note_on_c, 0, 46, 36
3, 5944, Note_on_c, 0, 60, 41
3, 5949, Note_on_c, 0, 56, 17
3, 6063, Note_on_c, 0, 60, 0
3, 6068, Note_on_c, 0, 59, 34
3, 6080, Note_on_c, 0, 59, 0
3, 6096, Note_on_c, 0, 67, 0
3, 6128, Note_on_c, 0, 60, 33
3, 6131, Note_on_c, 0, 46, 0
3, 6137, Note_on_c, 0, 60, 0
3, 6179, Note_on_c, 0, 46, 42
3, 6194, Note_on_c, 0, 56, 0
3, 6209, Note_on_c, 0, 46, 0
3, 6243, Note_on_c, 0, 45, 35
3, 6275, Note_on_c, 0, 55, 24
3, 6303, Note_on_c, 0, 60, 68
3, 6336, Note_on_c, 0, 60, 0
3, 6355, Note_on_c, 0, 45, 0
3, 6367, Note_on_c, 0, 59, 24
3, 6388, Note_on_c, 0, 59, 0
3, 6420, Note_on_c, 0, 45, 31
3, 6431, Note_on_c, 0, 55, 0
3, 6438, Note_on_c, 0, 45, 0
3, 6483, Note_on_c, 0, 54, 33
3, 6483, Note_on_c, 0, 60, 55
3, 6487, Note_on_c, 0, 44, 32
3, 6531, Note_on_c, 0, 60, 0
3, 6544, Note_on_c, 0, 69, 53
3, 6586, Note_on_c, 0, 69, 0
3, 6604, Note_on_c, 0, 67, 37
3, 6621, Note_on_c, 0, 44, 0
3, 6644, Note_on_c, 0, 67, 0
3, 6654, Note_on_c, 0, 54, 0
3, 6662, Note_on_c, 0, 65, 45
3, 6662, Note_on_c, 0, 44, 34
3, 6678, Note_on_c, 0, 65, 0
3, 6686, Note_on_c, 0, 44, 0
3, 6724, Note_on_c, 0, 67, 29
3, 6751, Note_on_c, 0, 67, 0
3, 6840, Note_on_c, 0, 67, 35
3, 6843, Note_on_c, 0, 64, 32
3, 6846, Note_on_c, 0, 60, 33
3, 6848, Note_on_c, 0, 57, 22
3, 6850, Note_on_c, 0, 55, 25
3, 6866, Control_c, 0, 64, 127
3, 6901, Note_on_c, 0, 57, 0
3, 6913, Note_on_c, 0, 60, 0
3, 6917, Note_on_c, 0, 55, 0
3, 6922, Note_on_c, 0, 67, 0
3, 6924, Note_on_c, 0, 64, 0
3, 7028, Note_on_c, 0, 69, 53
3, 7030, Note_on_c, 0, 53, 38
3, 7031, Note_on_c, 0, 43, 39
3, 7032, Note_on_c, 0, 59, 37
3, 7032, Control_c, 0, 64, 0
3, 7032, Note_on_c, 0, 64, 42
3, 7060, Note_on_c, 0, 43, 0
3, 7068, Control_c, 0, 64, 127
3, 7086, Note_on_c, 0, 53, 0
3, 7088, Note_on_c, 0, 59, 0
3, 7110, Note_on_c, 0, 64, 0
3, 7113, Note_on_c, 0, 69, 0
3, 7198, Note_on_c, 0, 65, 55
3, 7198, Note_on_c, 0, 72, 47
3, 7199, Note_on_c, 0, 57, 44
3, 7200, Control_c, 0, 64, 0
3, 7201, Note_on_c, 0, 62, 46
3, 7242, Control_c, 0, 64, 127
3, 7302, Note_on_c, 0, 57, 0
3, 7318, Note_on_c, 0, 62, 0
3, 7318, Note_on_c, 0, 65, 0
3, 7335, Note_on_c, 0, 72, 0
3, 7391, Note_on_c, 0, 62, 30
3, 7392, Note_on_c, 0, 65, 44
3, 7393, Note_on_c, 0, 58, 30
3, 7393, Note_on_c, 0, 48, 33
3, 7398, Control_c, 0, 64, 0
3, 7436, Control_c, 0, 64, 127
3, 7472, Note_on_c, 0, 62, 0
3, 7481, Note_on_c, 0, 65, 0
3, 7485, Note_on_c, 0, 48, 0
3, 7506, Note_on_c, 0, 72, 62
3, 7518, Note_on_c, 0, 58, 0
3, 7608, Note_on_c, 0, 72, 0
3, 7622, Note_on_c, 0, 71, 57
3, 7670, Note_on_c, 0, 71, 0
3, 7672, Control_c, 0, 64, 0
3, 7684, Note_on_c, 0, 70, 60
3, 7794, Note_on_c, 0, 67, 44
3, 7803, Note_on_c, 0, 58, 19
3, 7803, Note_on_c, 0, 63, 25
3, 7803, Note_on_c, 0, 62, 30
3, 7817, Note_on_c, 0, 62, 0
3, 7817, Note_on_c, 0, 67, 0
3, 7820, Note_on_c, 0, 63, 0
3, 7828, Note_on_c, 0, 58, 0
3, 7836, Note_on_c, 0, 70, 0
3, 7863, Note_on_c, 0, 69, 48
3, 7899, Note_on_c, 0, 69, 0
3, 7915, Note_on_c, 0, 67, 49
3, 7959, Control_c, 0, 64, 127
3, 7983, Note_on_c, 0, 63, 34
3, 7985, Control_c, 0, 64, 0
3, 7989, Note_on_c, 0, 57, 30
3, 8003, Note_on_c, 0, 57, 0
3, 8008, Note_on_c, 0, 63, 0
3, 8036, Control_c, 0, 64, 127
3, 8082, Control_c, 0, 64, 0
3, 8092, Note_on_c, 0, 67, 0
3, 8096, Control_c, 0, 64, 127
3, 8101, Note_on_c, 0, 65, 49
3, 8114, Note_on_c, 0, 65, 0
3, 8161, Control_c, 0, 64, 0
3, 8207, Control_c, 0, 64, 127
3, 8216, Control_c, 0, 64, 0
3, 8226, Note_on_c, 0, 70, 46
3, 8228, Note_on_c, 0, 62, 48
3, 8229, Note_on_c, 0, 65, 51
3, 8233, Note_on_c, 0, 55, 29
3, 8254, Note_on_c, 0, 62, 0
3, 8255, Note_on_c, 0, 65, 0
3, 8258, Note_on_c, 0, 70, 0
3, 8263, Note_on_c, 0, 55, 0
3, 8290, Note_on_c, 0, 65, 31
3, 8292, Note_on_c, 0, 69, 27
3, 8292, Note_on_c, 0, 60, 30
3, 8295, Note_on_c, 0, 53, 24
3, 8301, Control_c, 0, 64, 127
3, 8302, Note_on_c, 0, 69, 0
3, 8302, Note_on_c, 0, 65, 0
3, 8312, Note_on_c, 0, 60, 0
3, 8312, Note_on_c, 0, 53, 0
3, 8325, Control_c, 0, 64, 0
3, 8365, Control_c, 0, 64, 127
3, 8394, Control_c, 0, 64, 0
3, 8401, Note_on_c, 0, 50, 47
3, 8403, Note_on_c, 0, 67, 61
3, 8404, Note_on_c, 0, 58, 43
3, 8406, Note_on_c, 0, 62, 48
3, 8418, Note_on_c, 0, 62, 0
3, 8420, Note_on_c, 0, 50, 0
3, 8426, Note_on_c, 0, 58, 0
3, 8426, Note_on_c, 0, 67, 0
3, 8454, Control_c, 0, 64, 127
3, 8510, Control_c, 0, 64, 0
3, 8556, Control_c, 0, 64, 127
3, 8587, Note_on_c, 0, 62, 57
3, 8587, Note_on_c, 0, 47, 19
3, 8609, Note_on_c, 0, 47, 0
3, 8613, Note_on_c, 0, 62, 0
3, 8633, Control_c, 0, 64, 0
3, 8645, Note_on_c, 0, 48, 43
3, 8647, Note_on_c, 0, 65, 41
3, 8648, Note_on_c, 0, 55, 42
3, 8648, Note_on_c, 0, 58, 36
3, 8649, Note_on_c, 0, 62, 37
3, 8666, Note_on_c, 0, 55, 0
3, 8670, Note_on_c, 0, 58, 0
3, 8672, Note_on_c, 0, 62, 0
3, 8680, Note_on_c, 0, 65, 0
3, 8683, Note_on_c, 0, 48, 0
3, 8690, Control_c, 0, 64, 127
3, 8722, Control_c, 0, 64, 0
3, 8759, Note_on_c, 0, 36, 44
3, 8760, Note_on_c, 0, 65, 38
3, 8761, Note_on_c, 0, 58, 37
3, 8762, Note_on_c, 0, 55, 43
3, 8764, Note_on_c, 0, 62, 40
3, 8769, Note_on_c, 0, 36, 0
3, 8772, Note_on_c, 0, 55, 0
3, 8777, Note_on_c, 0, 62, 0
3, 8778, Note_on_c, 0, 65, 0
3, 8780, Note_on_c, 0, 58, 0
3, 8832, Control_c, 0, 64, 127
3, 8864, Control_c, 0, 64, 0
3, 8887, Note_on_c, 0, 51, 50
3, 8888, Note_on_c, 0, 57, 44
3, 8888, Note_on_c, 0, 63, 38
3, 8888, Note_on_c, 0, 65, 45
3, 8890, Note_on_c, 0, 61, 48
3, 8898, Note_on_c, 0, 41, 32
3, 8917, Control_c, 0, 64, 127
3, 9006, Note_on_c, 0, 41, 0
3, 9020, Note_on_c, 0, 57, 0
3, 9028, Note_on_c, 0, 51, 0
3, 9035, Note_on_c, 0, 61, 0
3, 9036, Note_on_c, 0, 65, 0
3, 9044, Note_on_c, 0, 63, 0
3, 9120, Note_on_c, 0, 67, 49
3, 9120, Note_on_c, 0, 60, 49
3, 9121, Note_on_c, 0, 62, 44
3, 9121, Control_c, 0, 64, 0
3, 9123, Note_on_c, 0, 46, 33
3, 9123, Note_on_c, 0, 55, 39
3, 9135, Note_on_c, 0, 60, 0
3, 9148, Note_on_c, 0, 62, 0
3, 9152, Note_on_c, 0, 67, 0
3, 9166, Note_on_c, 0, 55, 0
3, 9176, Control_c, 0, 64, 127
3, 9183, Note_on_c, 0, 54, 29
3, 9220, Control_c, 0, 64, 0
3, 9227, Note_on_c, 0, 54, 0
3, 9268, Control_c, 0, 64, 127
3, 9311, Note_on_c, 0, 53, 55
3, 9323, Control_c, 0, 64, 0
3, 9342, Note_on_c, 0, 53, 0
3, 9360, Control_c, 0, 64, 127
3, 9425, Note_on_c, 0, 66, 57
3, 9425, Note_on_c, 0, 74, 66
3, 9427, Note_on_c, 0, 54, 53
3, 9428, Note_on_c, 0, 62, 55
3, 9434, Note_on_c, 0, 69, 38
3, 9439, Control_c, 0, 64, 0
3, 9459, Note_on_c, 0, 69, 0
3, 9459, Note_on_c, 0, 74, 0
3, 9463, Note_on_c, 0, 62, 0
3, 9469, Note_on_c, 0, 66, 0
3, 9482, Note_on_c, 0, 54, 0
3, 9485, Note_on_c, 0, 72, 29
3, 9487, Control_c, 0, 64, 127
3, 9490, Note_on_c, 0, 62, 25
3, 9491, Note_on_c, 0, 66, 23
3, 9492, Note_on_c, 0, 55, 35
3, 9501, Note_on_c, 0, 46, 0
3, 9527, Note_on_c, 0, 72, 0
3, 9527, Note_on_c, 0, 62, 0
3, 9532, Note_on_c, 0, 55, 0
3, 9537, Note_on_c, 0, 66, 0
3, 9545, Note_on_c, 0, 46, 32
3, 9549, Note_on_c, 0, 55, 28
3, 9566, Note_on_c, 0, 55, 0
3, 9573, Note_on_c, 0, 51, 19
3, 9574, Note_on_c, 0, 46, 0
3, 9591, Note_on_c, 0, 51, 0
3, 9603, Control_c, 0, 64, 0
3, 9603, Note_on_c, 0, 72, 53
3, 9606, Note_on_c, 0, 65, 53
3, 9606, Note_on_c, 0, 69, 50
3, 9608, Note_on_c, 0, 60, 43
3, 9614, Note_on_c, 0, 59, 38
3, 9653, Control_c, 0, 64, 127
3, 9690, Note_on_c, 0, 59, 0
3, 9693, Note_on_c, 0, 60, 0
3, 9694, Note_on_c, 0, 72, 0
3, 9695, Note_on_c, 0, 69, 0
3, 9700, Note_on_c, 0, 65, 0
3, 9720, Note_on_c, 0, 65, 49
3, 9721, Note_on_c, 0, 71, 47
3, 9728, Control_c, 0, 64, 0
3, 9728, Note_on_c, 0, 55, 38
3, 9764, Control_c, 0, 64, 127
3, 9771, Note_on_c, 0, 55, 0
3, 9780, Note_on_c, 0, 71, 0
3, 9784, Note_on_c, 0, 65, 0
3, 9841, Control_c, 0, 64, 0
3, 9842, Note_on_c, 0, 69, 38
3, 9843, Note_on_c, 0, 59, 33
3, 9843, Note_on_c, 0, 64, 44
3, 9845, Note_on_c, 0, 53, 36
3, 9879, Control_c, 0, 64, 127
3, 9934, Note_on_c, 0, 59, 0
3, 9944, Note_on_c, 0, 64, 0
3, 9947, Control_c, 0, 64, 0
3, 9954, Note_on_c, 0, 69, 0
3, 9964, Note_on_c, 0, 43, 39
3, 9966, Note_on_c, 0, 67, 53
3, 9973, Control_c, 0, 64, 127
3, 9975, Note_on_c, 0, 43, 0
3, 9992, Note_on_c, 0, 53, 0
3, 10000, Note_on_c, 0, 67, 0
3, 10079, Control_c, 0, 64, 0
3, 10085, Note_on_c, 0, 72, 70
3, 10086, Note_on_c, 0, 67, 69
3, 10087, Note_on_c, 0, 57, 50
3, 10088, Note_on_c, 0, 62, 58
3, 10113, Control_c, 0, 64, 127
3, 10190, Control_c, 0, 64, 0
3, 10191, Note_on_c, 0, 67, 0
3, 10192, Note_on_c, 0, 72, 0
3, 10197, Control_c, 0, 64, 127
3, 10207, Note_on_c, 0, 62, 0
3, 10256, Note_on_c, 0, 57, 0
3, 10260, Note_on_c, 0, 68, 57
3, 10261, Note_on_c, 0, 71, 57
3, 10262, Control_c, 0, 64, 0
3, 10262, Note_on_c, 0, 56, 47
3, 10310, Note_on_c, 0, 68, 0
3, 10311, Note_on_c, 0, 71, 0
3, 10327, Note_on_c, 0, 56, 0
3, 10328, Note_on_c, 0, 69, 48
3, 10330, Note_on_c, 0, 57, 39
3, 10331, Note_on_c, 0, 64, 36
3, 10331, Note_on_c, 0, 60, 31
3, 10363, Control_c, 0, 64, 127
3, 10389, Note_on_c, 0, 57, 0
3, 10396, Note_on_c, 0, 45, 45
3, 10402, Control_c, 0, 64, 0
3, 10423, Note_on_c, 0, 64, 0
3, 10430, Note_on_c, 0, 69, 0
3, 10433, Control_c, 0, 64, 127
3, 10434, Note_on_c, 0, 60, 0
3, 10502, Note_on_c, 0, 60, 36
3, 10503, Note_on_c, 0, 55, 37
3, 10506, Note_on_c, 0, 64, 32
3, 10515, Note_on_c, 0, 55, 0
3, 10516, Note_on_c, 0, 60, 0
3, 10523, Note_on_c, 0, 64, 0
3, 10550, Note_on_c, 0, 45, 0
3, 10558, Control_c, 0, 64, 0
3, 10560, Note_on_c, 0, 67, 45
3, 10564, Note_on_c, 0, 57, 44
3, 10564, Note_on_c, 0, 50, 41
3, 10567, Note_on_c, 0, 60, 28
3, 10567, Note_on_c, 0, 64, 45
3, 10628, Control_c, 0, 64, 127
3, 10633, Control_c, 0, 64, 0
3, 10652, Note_on_c, 0, 67, 0
3, 10680, Note_on_c, 0, 67, 37
3, 10681, Control_c, 0, 64, 127
3, 10691, Note_on_c, 0, 57, 0
3, 10705, Note_on_c, 0, 60, 0
3, 10712, Note_on_c, 0, 64, 0
3, 10723, Note_on_c, 0, 67, 0
3, 10743, Note_on_c, 0, 50, 0
3, 10746, Note_on_c, 0, 67, 45
3, 10748, Note_on_c, 0, 64, 48
3, 10749, Note_on_c, 0, 43, 36
3, 10751, Note_on_c, 0, 59, 31
3, 10753, Note_on_c, 0, 53, 46
3, 10753, Control_c, 0, 64, 0
3, 10799, Control_c, 0, 64, 127
3, 10832, Note_on_c, 0, 67, 0
3, 10850, Note_on_c, 0, 59, 0
3, 10857, Note_on_c, 0, 64, 0
3, 10871, Note_on_c, 0, 67, 55
3, 10872, Note_on_c, 0, 64, 24
3, 10875, Note_on_c, 0, 59, 25
3, 10900, Note_on_c, 0, 43, 0
3, 10905, Note_on_c, 0, 59, 0
3, 10918, Note_on_c, 0, 53, 0
3, 10944, Note_on_c, 0, 67, 0
3, 10945, Note_on_c, 0, 64, 0
3, 11038, Note_on_c, 0, 72, 76
3, 11040, Note_on_c, 0, 65, 76
3, 11041, Note_on_c, 0, 58, 49
3, 11041, Note_on_c, 0, 62, 58
3, 11042, Control_c, 0, 64, 0
3, 11043, Note_on_c, 0, 60, 63
3, 11085, Control_c, 0, 64, 127
3, 11105, Note_on_c, 0, 72, 0
3, 11105, Note_on_c, 0, 69, 54
3, 11107, Note_on_c, 0, 65, 0
3, 11153, Note_on_c, 0, 69, 0
3, 11160, Note_on_c, 0, 60, 0
3, 11166, Note_on_c, 0, 65, 37
3, 11167, Note_on_c, 0, 62, 0
3, 11175, Note_on_c, 0, 58, 0
3, 11193, Note_on_c, 0, 65, 0
3, 11287, Control_c, 0, 64, 0
3, 11290, Control_c, 0, 64, 127
3, 11347, Note_on_c, 0, 75, 51
3, 11353, Note_on_c, 0, 68, 37
3, 11354, Note_on_c, 0, 72, 37
3, 11355, Note_on_c, 0, 64, 35
3, 11355, Control_c, 0, 64, 0
3, 11358, Note_on_c, 0, 58, 42
3, 11393, Control_c, 0, 64, 127
3, 11424, Note_on_c, 0, 72, 0
3, 11427, Note_on_c, 0, 75, 0
3, 11437, Note_on_c, 0, 64, 0
3, 11442, Note_on_c, 0, 58, 0
3, 11444, Note_on_c, 0, 68, 0
3, 11516, Control_c, 0, 64, 0
3, 11521, Note_on_c, 0, 67, 54
3, 11522, Note_on_c, 0, 62, 36
3, 11525, Note_on_c, 0, 57, 35
3, 11526, Note_on_c, 0, 72, 20
3, 11534, Note_on_c, 0, 67, 0
3, 11535, Note_on_c, 0, 62, 0
3, 11537, Note_on_c, 0, 72, 0
3, 11542, Note_on_c, 0, 57, 0
3, 11641, Note_on_c, 0, 60, 35
3, 11677, Note_on_c, 0, 60, 0
3, 11704, Note_on_c, 0, 59, 20
3, 11735, Note_on_c, 0, 59, 0
3, 11759, Note_on_c, 0, 60, 32
3, 11820, Note_on_c, 0, 48, 37
3, 11823, Note_on_c, 0, 58, 38
3, 11841, Note_on_c, 0, 60, 0
3, 11868, Note_on_c, 0, 48, 0
3, 11875, Note_on_c, 0, 58, 0
3, 11932, Note_on_c, 0, 48, 35
3, 11937, Note_on_c, 0, 60, 46
3, 11939, Note_on_c, 0, 57, 34
3, 11970, Note_on_c, 0, 48, 0
3, 11973, Note_on_c, 0, 57, 0
3, 12001, Note_on_c, 0, 60, 0
3, 12059, Note_on_c, 0, 60, 50
3, 12093, Note_on_c, 0, 60, 0
3, 12126, Note_on_c, 0, 59, 17
3, 12179, Note_on_c, 0, 48, 37
3, 12183, Note_on_c, 0, 59, 0
3, 12200, Note_on_c, 0, 48, 0
3, 12235, Note_on_c, 0, 60, 44
3, 12342, Note_on_c, 0, 60, 0
3, 12352, Note_on_c, 0, 65, 57
3, 12480, Note_on_c, 0, 60, 50
3, 12545, Note_on_c, 0, 48, 40
3, 12549, Note_on_c, 0, 57, 26
3, 12557, Note_on_c, 0, 48, 0
3, 12559, Note_on_c, 0, 57, 0
3, 12590, Note_on_c, 0, 65, 0
3, 12600, Note_on_c, 0, 60, 0
3, 12603, Note_on_c, 0, 60, 41
3, 12648, Note_on_c, 0, 60, 0
3, 12720, Note_on_c, 0, 60, 44
3, 12768, Note_on_c, 0, 60, 0
3, 12838, Note_on_c, 0, 58, 51
3, 12840, Note_on_c, 0, 60, 52
3, 12840, Note_on_c, 0, 48, 41
3, 12878, Note_on_c, 0, 60, 0
3, 12882, Note_on_c, 0, 48, 0
3, 12889, Note_on_c, 0, 58, 0
3, 12958, Note_on_c, 0, 60, 47
3, 13005, Note_on_c, 0, 60, 0
3, 13077, Note_on_c, 0, 60, 47
3, 13078, Note_on_c, 0, 48, 28
3, 13081, Note_on_c, 0, 57, 24
3, 13198, Control_c, 0, 64, 127
3, 13227, Note_on_c, 0, 57, 0
3, 13238, Note_on_c, 0, 48, 0
3, 13266, Note_on_c, 0, 67, 71
3, 13266, Note_on_c, 0, 48, 54
3, 13269, Note_on_c, 0, 58, 64
3, 13283, Control_c, 0, 64, 0
3, 13321, Control_c, 0, 64, 127
3, 13387, Note_on_c, 0, 48, 0
3, 13388, Note_on_c, 0, 58, 0
3, 13394, Note_on_c, 0, 60, 0
3, 13413, Note_on_c, 0, 67, 0
3, 13443, Note_on_c, 0, 48, 33
3, 13444, Control_c, 0, 64, 0
3, 13444, Note_on_c, 0, 57, 32
3, 13444, Note_on_c, 0, 60, 44
3, 13470, Note_on_c, 0, 60, 0
3, 13554, Note_on_c, 0, 60, 50
3, 13560, Control_c, 0, 64, 127
3, 13594, Note_on_c, 0, 48, 0
3, 13595, Note_on_c, 0, 60, 0
3, 13602, Note_on_c, 0, 57, 0
3, 13619, Note_on_c, 0, 59, 30
3, 13645, Note_on_c, 0, 59, 0
3, 13680, Note_on_c, 0, 46, 31
3, 13680, Note_on_c, 0, 60, 36
3, 13685, Control_c, 0, 64, 0
3, 13685, Note_on_c, 0, 55, 30
3, 13793, Control_c, 0, 64, 127
3, 13817, Note_on_c, 0, 46, 0
3, 13852, Note_on_c, 0, 55, 0
3, 13860, Note_on_c, 0, 46, 34
3, 13872, Note_on_c, 0, 60, 0
3, 13888, Note_on_c, 0, 46, 0
3, 13904, Control_c, 0, 64, 0
3, 13917, Note_on_c, 0, 45, 36
3, 13932, Control_c, 0, 64, 127
3, 13990, Control_c, 0, 64, 0
3, 13992, Note_on_c, 0, 60, 46
3, 13993, Note_on_c, 0, 55, 39
3, 14014, Control_c, 0, 64, 127
3, 14026, Note_on_c, 0, 60, 0
3, 14048, Note_on_c, 0, 45, 0
3, 14065, Note_on_c, 0, 55, 0
3, 14220, Note_on_c, 0, 69, 58
3, 14248, Control_c, 0, 64, 0
3, 14250, Note_on_c, 0, 69, 0
3, 14280, Note_on_c, 0, 67, 58
3, 14284, Control_c, 0, 64, 127
3, 14304, Note_on_c, 0, 67, 0
3, 14340, Note_on_c, 0, 65, 45
3, 14354, Note_on_c, 0, 65, 0
3, 14397, Control_c, 0, 64, 0
3, 14397, Note_on_c, 0, 58, 38
3, 14400, Note_on_c, 0, 67, 45
3, 14400, Note_on_c, 0, 62, 24
3, 14403, Note_on_c, 0, 57, 32
3, 14413, Note_on_c, 0, 53, 16
3, 14508, Control_c, 0, 64, 127
3, 14527, Note_on_c, 0, 53, 0
3, 14541, Note_on_c, 0, 62, 0
3, 14542, Note_on_c, 0, 67, 0
3, 14549, Note_on_c, 0, 57, 0
3, 14575, Note_on_c, 0, 58, 0
3, 14638, Note_on_c, 0, 54, 50
3, 14642, Note_on_c, 0, 69, 51
3, 14642, Note_on_c, 0, 66, 36
3, 14647, Control_c, 0, 64, 0
3, 14648, Note_on_c, 0, 63, 25
3, 14650, Note_on_c, 0, 60, 24
3, 14691, Control_c, 0, 64, 127
3, 14734, Note_on_c, 0, 60, 0
3, 14741, Note_on_c, 0, 63, 0
3, 14747, Note_on_c, 0, 66, 0
3, 14749, Note_on_c, 0, 69, 0
3, 14761, Note_on_c, 0, 54, 0
3, 14825, Note_on_c, 0, 70, 55
3, 14827, Note_on_c, 0, 67, 54
3, 14827, Note_on_c, 0, 62, 45
3, 14832, Note_on_c, 0, 55, 34
3, 14837, Control_c, 0, 64, 0
3, 14886, Control_c, 0, 64, 127
3, 15040, Note_on_c, 0, 67, 0
3, 15074, Note_on_c, 0, 62, 0
3, 15079, Note_on_c, 0, 70, 0
3, 15173, Note_on_c, 0, 55, 0
3, 15187, Note_on_c, 0, 60, 45
3, 15189, Note_on_c, 0, 64, 45
3, 15190, Note_on_c, 0, 69, 48
3, 15190, Note_on_c, 0, 56, 35
3, 15198, Control_c, 0, 64, 0
3, 15219, Note_on_c, 0, 69, 0
3, 15224, Note_on_c, 0, 56, 0
3, 15228, Note_on_c, 0, 64, 0
3, 15232, Control_c, 0, 64, 127
3, 15233, Note_on_c, 0, 60, 0
3, 15279, Note_on_c, 0, 67, 54
3, 15330, Note_on_c, 0, 67, 0
3, 15360, Note_on_c, 0, 72, 69
3, 15362, Control_c, 0, 64, 0
3, 15364, Note_on_c, 0, 48, 42
3, 15369, Note_on_c, 0, 57, 34
3, 15449, Note_on_c, 0, 72, 0
3, 15475, Control_c, 0, 64, 127
3, 15477, Note_on_c, 0, 60, 55
3, 15501, Note_on_c, 0, 60, 0
3, 15502, Note_on_c, 0, 57, 0
3, 15539, Note_on_c, 0, 60, 60
3, 15555, Control_c, 0, 64, 0
3, 15576, Note_on_c, 0, 60, 0
3, 15600, Control_c, 0, 64, 127
3, 15602, Note_on_c, 0, 57, 24
3, 15662, Note_on_c, 0, 60, 18
3, 15682, Note_on_c, 0, 60, 0
3, 15713, Note_on_c, 0, 48, 0
3, 15718, Note_on_c, 0, 60, 29
3, 15741, Note_on_c, 0, 60, 0
3, 15777, Note_on_c, 0, 48, 37
3, 15786, Note_on_c, 0, 57, 0
3, 15835, Note_on_c, 0, 70, 68
3, 15839, Note_on_c, 0, 62, 75
3, 15840, Note_on_c, 0, 58, 62
3, 15843, Control_c, 0, 64, 0
3, 15892, Control_c, 0, 64, 127
3, 15925, Note_on_c, 0, 48, 0
3, 15938, Note_on_c, 0, 62, 0
3, 15940, Note_on_c, 0, 58, 0
3, 15958, Note_on_c, 0, 48, 35
3, 15960, Note_on_c, 0, 70, 0
3, 15991, Note_on_c, 0, 48, 0
3, 16020, Note_on_c, 0, 48, 36
3, 16047, Note_on_c, 0, 48, 0
3, 16081, Note_on_c, 0, 48, 28
3, 16083, Note_on_c, 0, 60, 44
3, 16115, Note_on_c, 0, 60, 0
3, 16148, Note_on_c, 0, 60, 39
3, 16168, Note_on_c, 0, 60, 0
3, 16205, Note_on_c, 0, 60, 30
3, 16212, Note_on_c, 0, 48, 0
3, 16227, Note_on_c, 0, 60, 0
3, 16259, Note_on_c, 0, 48, 42
3, 16260, Note_on_c, 0, 60, 47
3, 16274, Note_on_c, 0, 60, 0
3, 16318, Note_on_c, 0, 57, 78
3, 16320, Note_on_c, 0, 65, 94
3, 16330, Control_c, 0, 64, 0
3, 16380, Control_c, 0, 64, 127
3, 16440, Note_on_c, 0, 60, 31
3, 16456, Note_on_c, 0, 48, 0
3, 16473, Note_on_c, 0, 60, 0
3, 16500, Note_on_c, 0, 48, 36
3, 16503, Note_on_c, 0, 60, 30
3, 16523, Note_on_c, 0, 60, 0
3, 16563, Note_on_c, 0, 60, 22
3, 16582, Note_on_c, 0, 60, 0
3, 16586, Note_on_c, 0, 48, 0
3, 16624, Note_on_c, 0, 60, 24
3, 16643, Note_on_c, 0, 60, 0
3, 16686, Note_on_c, 0, 48, 19
3, 16695, Note_on_c, 0, 48, 0
3, 16736, Note_on_c, 0, 48, 41
3, 16738, Note_on_c, 0, 60, 28
3, 16750, Note_on_c, 0, 60, 0
3, 16754, Note_on_c, 0, 57, 0
3, 16773, Note_on_c, 0, 48, 0
3, 16797, Note_on_c, 0, 58, 35
3, 16799, Note_on_c, 0, 62, 37
3, 16801, Note_on_c, 0, 48, 46
3, 16806, Control_c, 0, 64, 0
3, 16849, Control_c, 0, 64, 127
3, 16881, Note_on_c, 0, 48, 0
3, 16947, Note_on_c, 0, 58, 0
3, 16953, Note_on_c, 0, 62, 0
3, 16978, Note_on_c, 0, 62, 46
3, 16980, Note_on_c, 0, 53, 30
3, 16981, Note_on_c, 0, 58, 32
3, 16982, Control_c, 0, 64, 0
3, 16986, Note_on_c, 0, 48, 36
3, 17028, Control_c, 0, 64, 127
3, 17048, Note_on_c, 0, 53, 0
3, 17058, Note_on_c, 0, 58, 0
3, 17059, Note_on_c, 0, 62, 0
3, 17100, Control_c, 0, 64, 0
3, 17104, Note_on_c, 0, 58, 42
3, 17105, Note_on_c, 0, 53, 49
3, 17106, Note_on_c, 0, 36, 42
3, 17107, Note_on_c, 0, 62, 44
3, 17179, Note_on_c, 0, 53, 0
3, 17189, Note_on_c, 0, 58, 0
3, 17196, Note_on_c, 0, 62, 0
3, 17214, Note_on_c, 0, 65, 0
3, 17230, Note_on_c, 0, 36, 0
3, 17233, Note_on_c, 0, 48, 0
3, 17286, Note_on_c, 0, 72, 68
3, 17292, Note_on_c, 0, 60, 51
3, 17304, Note_on_c, 0, 72, 0
3, 17309, Note_on_c, 0, 60, 0
3, 17404, Note_on_c, 0, 72, 62
3, 17411, Note_on_c, 0, 60, 49
3, 17424, Note_on_c, 0, 72, 0
3, 17427, Note_on_c, 0, 60, 0
3, 17469, Note_on_c, 0, 71, 57
3, 17474, Note_on_c, 0, 59, 33
3, 17491, Note_on_c, 0, 71, 0
3, 17509, Note_on_c, 0, 59, 0
3, 17525, Note_on_c, 0, 72, 44
3, 17530, Note_on_c, 0, 60, 40
3, 17558, Note_on_c, 0, 72, 0
3, 17563, Note_on_c, 0, 60, 0
3, 17645, Note_on_c, 0, 72, 64
3, 17649, Note_on_c, 0, 60, 55
3, 17675, Note_on_c, 0, 60, 0
3, 17684, Note_on_c, 0, 72, 0
3, 17708, Note_on_c, 0, 59, 39
3, 17709, Note_on_c, 0, 71, 56
3, 17738, Note_on_c, 0, 71, 0
3, 17751, Note_on_c, 0, 59, 0
3, 17767, Note_on_c, 0, 72, 37
3, 17768, Note_on_c, 0, 60, 40
3, 17787, Note_on_c, 0, 60, 0
3, 17796, Note_on_c, 0, 72, 0
3, 17886, Note_on_c, 0, 60, 60
3, 17888, Note_on_c, 0, 72, 66
3, 17925, Note_on_c, 0, 72, 0
3, 17928, Note_on_c, 0, 60, 0
3, 17946, Note_on_c, 0, 71, 50
3, 17997, Note_on_c, 0, 71, 0
3, 18007, Note_on_c, 0, 60, 34
3, 18008, Note_on_c, 0, 72, 36
3, 18023, Note_on_c, 0, 60, 0
3, 18036, Note_on_c, 0, 72, 0
3, 18070, Note_on_c, 0, 79, 71
3, 18072, Note_on_c, 0, 67, 71
3, 18161, Note_on_c, 0, 79, 0
3, 18174, Note_on_c, 0, 77, 68
3, 18179, Note_on_c, 0, 67, 0
3, 18180, Note_on_c, 0, 65, 61
3, 18214, Note_on_c, 0, 65, 0
3, 18224, Note_on_c, 0, 77, 0
3, 18243, Note_on_c, 0, 72, 48
3, 18246, Note_on_c, 0, 60, 60
3, 18261, Note_on_c, 0, 60, 0
3, 18264, Note_on_c, 0, 72, 0
3, 18365, Note_on_c, 0, 72, 57
3, 18367, Note_on_c, 0, 60, 53
3, 18408, Note_on_c, 0, 72, 0
3, 18413, Note_on_c, 0, 60, 0
3, 18424, Note_on_c, 0, 71, 45
3, 18432, Note_on_c, 0, 59, 29
3, 18460, Note_on_c, 0, 71, 0
3, 18473, Note_on_c, 0, 59, 0
3, 18485, Note_on_c, 0, 72, 41
3, 18488, Note_on_c, 0, 60, 49
3, 18522, Note_on_c, 0, 72, 0
3, 18542, Note_on_c, 0, 60, 0
3, 18609, Note_on_c, 0, 72, 51
3, 18611, Note_on_c, 0, 60, 42
3, 18653, Note_on_c, 0, 72, 0
3, 18656, Note_on_c, 0, 60, 0
3, 18663, Note_on_c, 0, 71, 46
3, 18673, Note_on_c, 0, 59, 30
3, 18699, Note_on_c, 0, 71, 0
3, 18712, Note_on_c, 0, 59, 0
3, 18721, Note_on_c, 0, 72, 45
3, 18724, Note_on_c, 0, 60, 41
3, 18779, Note_on_c, 0, 60, 0
3, 18788, Note_on_c, 0, 72, 0
3, 18837, Note_on_c, 0, 72, 49
3, 18844, Note_on_c, 0, 60, 33
3, 18882, Note_on_c, 0, 72, 0
3, 18886, Note_on_c, 0, 60, 0
3, 18898, Note_on_c, 0, 71, 43
3, 18957, Note_on_c, 0, 72, 46
3, 18968, Note_on_c, 0, 71, 0
3, 18980, Note_on_c, 0, 72, 0
3, 19017, Note_on_c, 0, 69, 53
3, 19021, Note_on_c, 0, 81, 73
3, 19056, Note_on_c, 0, 69, 0
3, 19062, Note_on_c, 0, 81, 0
3, 19080, Note_on_c, 0, 79, 58
3, 19081, Note_on_c, 0, 67, 60
3, 19147, Note_on_c, 0, 79, 0
3, 19161, Note_on_c, 0, 67, 0
3, 19263, Note_on_c, 0, 72, 73
3, 19266, Note_on_c, 0, 60, 60
3, 19307, Note_on_c, 0, 60, 0
3, 19308, Note_on_c, 0, 72, 0
3, 19325, Note_on_c, 0, 59, 31
3, 19326, Note_on_c, 0, 71, 42
3, 19356, Note_on_c, 0, 71, 0
3, 19370, Note_on_c, 0, 59, 0
3, 19379, Note_on_c, 0, 60, 55
3, 19381, Note_on_c, 0, 72, 66
3, 19409, Note_on_c, 0, 60, 0
3, 19415, Note_on_c, 0, 72, 0
3, 19442, Note_on_c, 0, 72, 78
3, 19445, Note_on_c, 0, 58, 43
3, 19594, Note_on_c, 0, 58, 0
3, 19628, Note_on_c, 0, 71, 66
3, 19633, Note_on_c, 0, 72, 0
3, 19653, Note_on_c, 0, 71, 0
3, 19685, Note_on_c, 0, 61, 35
3, 19686, Note_on_c, 0, 72, 74
3, 19688, Note_on_c, 0, 55, 46
3, 19688, Note_on_c, 0, 60, 36
3, 19689, Note_on_c, 0, 65, 32
3, 19745, Note_on_c, 0, 72, 0
3, 19753, Note_on_c, 0, 71, 47
3, 19794, Note_on_c, 0, 65, 0
3, 19795, Note_on_c, 0, 71, 0
3, 19811, Note_on_c, 0, 72, 37
3, 19812, Note_on_c, 0, 55, 0
3, 19816, Note_on_c, 0, 60, 0
3, 19839, Note_on_c, 0, 61, 0
3, 19845, Note_on_c, 0, 72, 0
3, 19874, Note_on_c, 0, 64, 62
3, 19874, Note_on_c, 0, 81, 74
3, 19875, Note_on_c, 0, 54, 52
3, 19877, Note_on_c, 0, 60, 54
3, 19896, Note_on_c, 0, 64, 0
3, 19902, Note_on_c, 0, 54, 0
3, 19903, Note_on_c, 0, 60, 0
3, 19909, Note_on_c, 0, 81, 0
3, 19992, Note_on_c, 0, 79, 68
3, 19992, Note_on_c, 0, 64, 53
3, 19992, Note_on_c, 0, 54, 50
3, 19994, Note_on_c, 0, 60, 51
3, 20094, Note_on_c, 0, 60, 0
3, 20096, Note_on_c, 0, 64, 0
3, 20099, Note_on_c, 0, 54, 0
3, 20120, Note_on_c, 0, 79, 0
3, 20120, Note_on_c, 0, 77, 45
3, 20146, Note_on_c, 0, 77, 0
3, 20172, Note_on_c, 0, 53, 30
3, 20173, Note_on_c, 0, 64, 33
3, 20173, Note_on_c, 0, 79, 54
3, 20178, Note_on_c, 0, 57, 32
3, 20178, Note_on_c, 0, 60, 33
3, 20209, Note_on_c, 0, 60, 0
3, 20210, Note_on_c, 0, 64, 0
3, 20215, Note_on_c, 0, 53, 0
3, 20216, Note_on_c, 0, 57, 0
3, 20254, Note_on_c, 0, 79, 0
3, 20286, Note_on_c, 0, 67, 52
3, 20321, Note_on_c, 0, 67, 0
3, 20348, Note_on_c, 0, 67, 47
3, 20371, Note_on_c, 0, 67, 0
3, 20403, Note_on_c, 0, 81, 80
3, 20446, Note_on_c, 0, 81, 0
3, 20469, Note_on_c, 0, 81, 40
3, 20509, Note_on_c, 0, 81, 0
3, 20714, Note_on_c, 0, 62, 44
3, 20717, Note_on_c, 0, 58, 40
3, 20725, Note_on_c, 0, 62, 0
3, 20734, Note_on_c, 0, 58, 0
3, 20768, Note_on_c, 0, 72, 118
3, 20837, Note_on_c, 0, 70, 74
3, 20845, Note_on_c, 0, 72, 0
3, 20893, Note_on_c, 0, 70, 0
3, 20899, Note_on_c, 0, 71, 46
3, 20947, Note_on_c, 0, 71, 0
3, 20955, Note_on_c, 0, 74, 83
3, 20998, Note_on_c, 0, 74, 0
3, 21014, Note_on_c, 0, 72, 49
3, 21069, Note_on_c, 0, 70, 48
3, 21075, Note_on_c, 0, 72, 0
3, 21111, Note_on_c, 0, 70, 0
3, 21129, Note_on_c, 0, 69, 60
3, 21176, Note_on_c, 0, 69, 0
3, 21191, Note_on_c, 0, 72, 59
3, 21226, Note_on_c, 0, 72, 0
3, 21240, Note_on_c, 0, 60, 62
3, 21452, Note_on_c, 0, 60, 0
3, 21477, Note_on_c, 0, 60, 60
3, 21535, Note_on_c, 0, 60, 0
3, 21721, Note_on_c, 0, 60, 103
3, 21722, Note_on_c, 0, 48, 56
3, 21784, Note_on_c, 0, 48, 0
3, 21785, Note_on_c, 0, 47, 44
3, 21786, Note_on_c, 0, 60, 0
3, 21789, Note_on_c, 0, 59, 44
3, 21837, Note_on_c, 0, 59, 0
3, 21838, Note_on_c, 0, 47, 0
3, 21841, Note_on_c, 0, 48, 40
3, 21844, Note_on_c, 0, 60, 43
3, 21891, Note_on_c, 0, 48, 0
3, 21894, Note_on_c, 0, 60, 0
3, 21902, Note_on_c, 0, 53, 54
3, 21908, Note_on_c, 0, 65, 62
3, 21951, Note_on_c, 0, 65, 0
3, 21956, Note_on_c, 0, 53, 0
3, 21957, Note_on_c, 0, 55, 60
3, 21965, Note_on_c, 0, 67, 49
3, 22017, Note_on_c, 0, 55, 0
3, 22018, Note_on_c, 0, 67, 0
3, 22026, Note_on_c, 0, 57, 50
3, 22027, Note_on_c, 0, 69, 68
3, 22065, Note_on_c, 0, 57, 0
3, 22070, Note_on_c, 0, 69, 0
3, 22094, Note_on_c, 0, 60, 56
3, 22095, Note_on_c, 0, 72, 71
3, 22174, Note_on_c, 0, 60, 0
3, 22176, Note_on_c, 0, 72, 0
3, 22202, Note_on_c, 0, 72, 58
3, 22205, Note_on_c, 0, 60, 54
3, 22378, Note_on_c, 0, 72, 0
3, 22449, Note_on_c, 0, 60, 0
3, 22496, Note_on_c, 0, 71, 54
3, 22500, Note_on_c, 0, 59, 33
3, 22522, Note_on_c, 0, 71, 0
3, 22544, Note_on_c, 0, 59, 0
3, 22557, Note_on_c, 0, 72, 36
3, 22560, Note_on_c, 0, 60, 36
3, 22625, Note_on_c, 0, 60, 0
3, 22626, Note_on_c, 0, 72, 0
3, 22683, Note_on_c, 0, 72, 47
3, 22687, Note_on_c, 0, 60, 44
3, 22727, Note_on_c, 0, 72, 0
3, 22731, Note_on_c, 0, 60, 0
3, 22746, Note_on_c, 0, 71, 37
3, 22748, Note_on_c, 0, 59, 29
3, 22782, Note_on_c, 0, 59, 0
3, 22786, Note_on_c, 0, 71, 0
3, 22801, Note_on_c, 0, 72, 36
3, 22849, Note_on_c, 0, 72, 0
3, 22860, Note_on_c, 0, 67, 67
3, 22862, Note_on_c, 0, 79, 67
3, 22904, Note_on_c, 0, 79, 0
3, 22918, Note_on_c, 0, 77, 42
3, 22919, Note_on_c, 0, 67, 0
3, 22920, Note_on_c, 0, 65, 35
3, 22947, Note_on_c, 0, 77, 0
3, 22957, Note_on_c, 0, 65, 0
3, 23156, Note_on_c, 0, 72, 72
3, 23160, Note_on_c, 0, 60, 47
3, 23214, Note_on_c, 0, 72, 0
3, 23222, Note_on_c, 0, 71, 49
3, 23246, Note_on_c, 0, 71, 0
3, 23256, Note_on_c, 0, 60, 0
3, 23281, Note_on_c, 0, 72, 56
3, 23285, Note_on_c, 0, 62, 36
3, 23287, Note_on_c, 0, 58, 34
3, 23313, Note_on_c, 0, 72, 0
3, 23357, Note_on_c, 0, 62, 0
3, 23370, Note_on_c, 0, 58, 0
3, 23458, Note_on_c, 0, 71, 56
3, 23478, Note_on_c, 0, 71, 0
3, 23515, Note_on_c, 0, 61, 32
3, 23516, Note_on_c, 0, 65, 37
3, 23517, Note_on_c, 0, 72, 78
3, 23518, Note_on_c, 0, 60, 42
3, 23520, Note_on_c, 0, 55, 24
3, 23565, Note_on_c, 0, 65, 0
3, 23568, Note_on_c, 0, 55, 0
3, 23576, Note_on_c, 0, 60, 0
3, 23579, Note_on_c, 0, 72, 0
3, 23587, Note_on_c, 0, 71, 48
3, 23589, Note_on_c, 0, 61, 0
3, 23617, Note_on_c, 0, 71, 0
3, 23640, Note_on_c, 0, 72, 58
3, 23701, Note_on_c, 0, 72, 0
3, 23706, Note_on_c, 0, 71, 44
3, 23761, Note_on_c, 0, 72, 45
3, 23764, Note_on_c, 0, 54, 33
3, 23766, Note_on_c, 0, 60, 32
3, 23770, Note_on_c, 0, 64, 18
3, 23781, Note_on_c, 0, 71, 0
3, 23794, Note_on_c, 0, 64, 0
3, 23798, Note_on_c, 0, 60, 0
3, 23804, Note_on_c, 0, 72, 0
3, 23812, Note_on_c, 0, 54, 0
3, 23825, Note_on_c, 0, 81, 70
3, 23866, Note_on_c, 0, 81, 0
3, 23881, Note_on_c, 0, 79, 36
3, 23927, Note_on_c, 0, 79, 0
3, 23942, Note_on_c, 0, 77, 43
3, 23974, Note_on_c, 0, 77, 0
3, 23998, Note_on_c, 0, 67, 53
3, 24002, Note_on_c, 0, 79, 66
3, 24051, Note_on_c, 0, 79, 0
3, 24055, Note_on_c, 0, 67, 0
3, 24064, Note_on_c, 0, 78, 23
3, 24064, Note_on_c, 0, 66, 31
3, 24105, Note_on_c, 0, 78, 0
3, 24110, Note_on_c, 0, 66, 0
3, 24115, Note_on_c, 0, 67, 39
3, 24116, Note_on_c, 0, 79, 49
3, 24189, Note_on_c, 0, 67, 0
3, 24190, Note_on_c, 0, 79, 0
3, 24240, Note_on_c, 0, 81, 80
3, 24241, Note_on_c, 0, 69, 63
3, 24297, Note_on_c, 0, 81, 0
3, 24305, Note_on_c, 0, 69, 0
3, 24306, Note_on_c, 0, 68, 37
3, 24308, Note_on_c, 0, 80, 23
3, 24342, Note_on_c, 0, 80, 0
3, 24355, Note_on_c, 0, 68, 0
3, 24360, Note_on_c, 0, 69, 42
3, 24364, Note_on_c, 0, 81, 45
3, 24395, Note_on_c, 0, 69, 0
3, 24401, Note_on_c, 0, 81, 0
3, 24427, Note_on_c, 0, 72, 72
3, 24429, Note_on_c, 0, 84, 84
3, 24870, Note_on_c, 0, 72, 0
3, 24874, Note_on_c, 0, 84, 0
3, 24894, Note_on_c, 0, 83, 78
3, 24894, Note_on_c, 0, 71, 67
3, 24938, Note_on_c, 0, 83, 0
3, 24946, Note_on_c, 0, 71, 0
3, 24956, Note_on_c, 0, 82, 67
3, 24958, Note_on_c, 0, 70, 57
3, 25075, Note_on_c, 0, 82, 0
3, 25079, Note_on_c, 0, 70, 0
3, 25082, Note_on_c, 0, 81, 67
3, 25083, Note_on_c, 0, 69, 62
3, 25195, Note_on_c, 0, 81, 0
3, 25206, Note_on_c, 0, 79, 65
3, 25208, Note_on_c, 0, 67, 59
3, 25209, Note_on_c, 0, 69, 0
3, 25254, Note_on_c, 0, 67, 0
3, 25256, Note_on_c, 0, 79, 0
3, 25271, Note_on_c, 0, 79, 59
3, 25273, Note_on_c, 0, 67, 61
3, 25314, Note_on_c, 0, 79, 0
3, 25322, Note_on_c, 0, 67, 0
3, 25327, Note_on_c, 0, 77, 67
3, 25330, Note_on_c, 0, 65, 53
3, 25368, Note_on_c, 0, 65, 0
3, 25369, Note_on_c, 0, 77, 0
3, 25388, Note_on_c, 0, 77, 44
3, 25389, Note_on_c, 0, 65, 39
3, 25414, Note_on_c, 0, 65, 0
3, 25425, Note_on_c, 0, 77, 0
3, 25444, Note_on_c, 0, 82, 73
3, 25498, Note_on_c, 0, 82, 0
3, 25503, Note_on_c, 0, 70, 64
3, 25510, Note_on_c, 0, 82, 70
3, 25537, Note_on_c, 0, 70, 0
3, 25546, Note_on_c, 0, 82, 0
3, 25563, Note_on_c, 0, 69, 52
3, 25565, Note_on_c, 0, 81, 58
3, 25672, Note_on_c, 0, 81, 0
3, 25672, Note_on_c, 0, 69, 0
3, 25683, Note_on_c, 0, 79, 61
3, 25684, Note_on_c, 0, 67, 54
3, 25859, Note_on_c, 0, 67, 0
3, 25860, Note_on_c, 0, 79, 0
3, 25860, Note_on_c, 0, 74, 58
3, 25862, Note_on_c, 0, 62, 49
3, 25898, Note_on_c, 0, 74, 0
3, 25912, Note_on_c, 0, 62, 0
3, 25916, Note_on_c, 0, 76, 69
3, 25919, Note_on_c, 0, 65, 71
3, 25920, Note_on_c, 0, 64, 59
3, 25922, Note_on_c, 0, 77, 71
3, 25928, Note_on_c, 0, 64, 0
3, 25935, Note_on_c, 0, 76, 0
3, 25974, Note_on_c, 0, 77, 0
3, 25976, Note_on_c, 0, 65, 0
3, 25984, Note_on_c, 0, 77, 68
3, 25991, Note_on_c, 0, 65, 54
3, 26023, Note_on_c, 0, 65, 0
3, 26028, Note_on_c, 0, 77, 0
3, 26040, Note_on_c, 0, 65, 57
3, 26042, Note_on_c, 0, 77, 73
3, 26136, Note_on_c, 0, 65, 0
3, 26143, Note_on_c, 0, 77, 0
3, 26276, Note_on_c, 0, 77, 72
3, 26276, Note_on_c, 0, 65, 65
3, 26280, Note_on_c, 0, 64, 44
3, 26290, Note_on_c, 0, 64, 0
3, 26327, Note_on_c, 0, 65, 0
3, 26330, Note_on_c, 0, 77, 0
3, 26345, Note_on_c, 0, 65, 61
3, 26345, Note_on_c, 0, 77, 80
3, 26380, Note_on_c, 0, 65, 0
3, 26386, Note_on_c, 0, 77, 0
3, 26399, Note_on_c, 0, 65, 47
3, 26401, Note_on_c, 0, 77, 77
3, 26480, Note_on_c, 0, 65, 0
3, 26484, Note_on_c, 0, 77, 0
3, 26514, Note_on_c, 0, 79, 80
3, 26517, Note_on_c, 0, 67, 77
3, 26520, Note_on_c, 0, 66, 51
3, 26537, Note_on_c, 0, 66, 0
3, 26626, Note_on_c, 0, 79, 0
3, 26628, Note_on_c, 0, 67, 0
3, 26636, Note_on_c, 0, 65, 67
3, 26637, Note_on_c, 0, 77, 68
3, 26768, Note_on_c, 0, 65, 0
3, 26775, Note_on_c, 0, 77, 0
3, 26881, Note_on_c, 0, 72, 82
3, 26881, Note_on_c, 0, 84, 108
3, 26921, Note_on_c, 0, 84, 0
3, 26922, Note_on_c, 0, 72, 0
3, 26937, Note_on_c, 0, 72, 68
3, 26941, Note_on_c, 0, 84, 74
3, 26982, Note_on_c, 0, 84, 0
3, 26983, Note_on_c, 0, 72, 0
3, 26993, Note_on_c, 0, 71, 62
3, 26996, Note_on_c, 0, 83, 65
3, 27041, Note_on_c, 0, 71, 0
3, 27045, Note_on_c, 0, 83, 0
3, 27061, Note_on_c, 0, 83, 67
3, 27062, Note_on_c, 0, 71, 57
3, 27106, Note_on_c, 0, 83, 0
3, 27112, Note_on_c, 0, 71, 0
3, 27120, Note_on_c, 0, 69, 57
3, 27122, Note_on_c, 0, 81, 67
3, 27166, Note_on_c, 0, 69, 0
3, 27169, Note_on_c, 0, 81, 0
3, 27187, Note_on_c, 0, 81, 60
3, 27189, Note_on_c, 0, 69, 49
3, 27238, Note_on_c, 0, 81, 0
3, 27239, Note_on_c, 0, 67, 60
3, 27240, Note_on_c, 0, 69, 0
3, 27240, Note_on_c, 0, 79, 54
3, 27283, Note_on_c, 0, 67, 0
3, 27285, Note_on_c, 0, 79, 0
3, 27302, Note_on_c, 0, 79, 50
3, 27306, Note_on_c, 0, 67, 47
3, 27332, Note_on_c, 0, 67, 0
3, 27338, Note_on_c, 0, 79, 0
3, 27361, Note_on_c, 0, 84, 83
3, 27362, Note_on_c, 0, 72, 77
3, 27407, Note_on_c, 0, 84, 0
3, 27415, Note_on_c, 0, 72, 0
3, 27423, Note_on_c, 0, 72, 46
3, 27424, Note_on_c, 0, 84, 76
3, 27468, Note_on_c, 0, 84, 0
3, 27469, Note_on_c, 0, 72, 0
3, 27477, Note_on_c, 0, 83, 71
3, 27478, Note_on_c, 0, 71, 68
3, 27585, Note_on_c, 0, 83, 0
3, 27595, Note_on_c, 0, 71, 0
3, 27600, Note_on_c, 0, 81, 69
3, 27602, Note_on_c, 0, 69, 57
3, 27709, Note_on_c, 0, 69, 0
3, 27718, Note_on_c, 0, 76, 57
3, 27720, Note_on_c, 0, 64, 36
3, 27813, Note_on_c, 0, 81, 0
3, 27824, Note_on_c, 0, 76, 0
3, 27827, Note_on_c, 0, 64, 0
3, 27834, Note_on_c, 0, 67, 67
3, 27835, Note_on_c, 0, 79, 75
3, 27886, Note_on_c, 0, 67, 0
3, 27891, Note_on_c, 0, 79, 0
3, 27904, Note_on_c, 0, 67, 61
3, 27905, Note_on_c, 0, 79, 61
3, 27938, Note_on_c, 0, 79, 0
3, 27950, Note_on_c, 0, 67, 0
3, 27955, Note_on_c, 0, 79, 55
3, 27969, Note_on_c, 0, 65, 35
3, 27980, Note_on_c, 0, 65, 0
3, 28011, Note_on_c, 0, 79, 0
3, 28026, Note_on_c, 0, 67, 52
3, 28028, Note_on_c, 0, 79, 62
3, 28051, Note_on_c, 0, 67, 0
3, 28057, Note_on_c, 0, 79, 0
3, 28079, Note_on_c, 0, 67, 36
3, 28080, Note_on_c, 0, 79, 53
3, 28119, Note_on_c, 0, 79, 0
3, 28145, Note_on_c, 0, 81, 48
3, 28149, Note_on_c, 0, 67, 0
3, 28149, Note_on_c, 0, 69, 41
3, 28188, Note_on_c, 0, 81, 0
3, 28193, Note_on_c, 0, 69, 0
3, 28201, Note_on_c, 0, 71, 68
3, 28202, Note_on_c, 0, 83, 73
3, 28288, Note_on_c, 0, 71, 0
3, 28296, Note_on_c, 0, 83, 0
3, 28315, Note_on_c, 0, 72, 61
3, 28316, Note_on_c, 0, 84, 75
3, 28423, Note_on_c, 0, 84, 0
3, 28424, Note_on_c, 0, 72, 0
3, 28437, Note_on_c, 0, 79, 71
3, 28438, Note_on_c, 0, 67, 64
3, 28668, Note_on_c, 0, 67, 0
3, 28734, Note_on_c, 0, 79, 0
3, 28745, Note_on_c, 0, 74, 65
3, 28748, Note_on_c, 0, 86, 81
3, 28775, Note_on_c, 0, 74, 0
3, 28783, Note_on_c, 0, 86, 0
3, 28806, Note_on_c, 0, 72, 36
3, 28807, Note_on_c, 0, 84, 51
3, 28846, Note_on_c, 0, 84, 0
3, 28846, Note_on_c, 0, 72, 0
3, 28926, Note_on_c, 0, 84, 57
3, 28930, Note_on_c, 0, 72, 34
3, 28956, Note_on_c, 0, 84, 0
3, 28964, Note_on_c, 0, 72, 0
3, 28982, Note_on_c, 0, 71, 36
3, 28984, Note_on_c, 0, 83, 40
3, 29017, Note_on_c, 0, 83, 0
3, 29029, Note_on_c, 0, 71, 0
3, 29042, Note_on_c, 0, 84, 43
3, 29043, Note_on_c, 0, 72, 30
3, 29070, Note_on_c, 0, 72, 0
3, 29070, Note_on_c, 0, 84, 0
3, 29156, Note_on_c, 0, 83, 83
3, 29158, Note_on_c, 0, 84, 77
3, 29203, Note_on_c, 0, 83, 0
3, 29206, Note_on_c, 0, 84, 0
3, 29291, Note_on_c, 0, 84, 75
3, 29291, Note_on_c, 0, 82, 77
3, 29331, Note_on_c, 0, 84, 0
3, 29337, Note_on_c, 0, 82, 0
3, 29353, Note_on_c, 0, 82, 61
3, 29356, Note_on_c, 0, 84, 68
3, 29387, Note_on_c, 0, 84, 0
3, 29393, Note_on_c, 0, 82, 0
3, 29416, Note_on_c, 0, 84, 56
3, 29418, Note_on_c, 0, 81, 65
3, 29467, Note_on_c, 0, 81, 0
3, 29469, Note_on_c, 0, 84, 0
3, 29765, Note_on_c, 0, 84, 68
3, 29784, Note_on_c, 0, 84, 0
3, 29883, Note_on_c, 0, 71, 49
3, 29886, Note_on_c, 0, 83, 73
3, 29888, Note_on_c, 0, 84, 67
3, 29915, Note_on_c, 0, 83, 0
3, 29916, Note_on_c, 0, 84, 0
3, 29925, Note_on_c, 0, 71, 0
3, 30071, Note_on_c, 0, 82, 70
3, 30072, Note_on_c, 0, 84, 64
3, 30074, Note_on_c, 0, 70, 62
3, 30103, Note_on_c, 0, 84, 0
3, 30107, Note_on_c, 0, 82, 0
3, 30110, Note_on_c, 0, 70, 0
3, 30186, Note_on_c, 0, 69, 65
3, 30187, Note_on_c, 0, 84, 62
3, 30187, Note_on_c, 0, 81, 69
3, 30219, Note_on_c, 0, 84, 0
3, 30222, Note_on_c, 0, 81, 0
3, 30225, Note_on_c, 0, 69, 0
3, 30302, Note_on_c, 0, 80, 67
3, 30304, Note_on_c, 0, 68, 57
3, 30306, Note_on_c, 0, 84, 58
3, 30335, Note_on_c, 0, 84, 0
3, 30346, Note_on_c, 0, 80, 0
3, 30354, Note_on_c, 0, 68, 0
3, 30361, Note_on_c, 0, 84, 43
3, 30361, Note_on_c, 0, 79, 50
3, 30362, Note_on_c, 0, 67, 50
3, 30389, Note_on_c, 0, 79, 0
3, 30392, Note_on_c, 0, 84, 0
3, 30401, Note_on_c, 0, 67, 0
3, 30428, Note_on_c, 0, 65, 34
3, 30442, Note_on_c, 0, 65, 0
3, 30549, Note_on_c, 0, 83, 75
3, 30549, Note_on_c, 0, 71, 54
3, 30592, Note_on_c, 0, 83, 0
3, 30601, Note_on_c, 0, 71, 0
3, 30605, Note_on_c, 0, 72, 57
3, 30610, Note_on_c, 0, 84, 54
3, 30629, Note_on_c, 0, 72, 0
3, 30647, Note_on_c, 0, 84, 0
3, 30670, Note_on_c, 0, 91, 80
3, 30673, Note_on_c, 0, 79, 42
3, 30685, Note_on_c, 0, 79, 0
3, 30691, Note_on_c, 0, 91, 0
3, 30790, Note_on_c, 0, 84, 74
3, 30794, Note_on_c, 0, 72, 35
3, 30828, Note_on_c, 0, 84, 0
3, 30833, Note_on_c, 0, 72, 0
3, 30845, Note_on_c, 0, 71, 29
3, 30850, Note_on_c, 0, 83, 40
3, 30890, Note_on_c, 0, 83, 0
3, 30903, Note_on_c, 0, 71, 0
3, 30908, Note_on_c, 0, 84, 72
3, 30909, Note_on_c, 0, 72, 56
3, 30943, Note_on_c, 0, 84, 0
3, 30945, Note_on_c, 0, 72, 0
3, 30968, Note_on_c, 0, 72, 57
3, 30969, Note_on_c, 0, 84, 76
3, 31146, Note_on_c, 0, 84, 0
3, 31147, Note_on_c, 0, 71, 58
3, 31148, Note_on_c, 0, 83, 55
3, 31152, Note_on_c, 0, 72, 0
3, 31175, Note_on_c, 0, 83, 0
3, 31205, Note_on_c, 0, 71, 0
3, 31206, Note_on_c, 0, 84, 66
3, 31207, Note_on_c, 0, 72, 56
3, 31267, Note_on_c, 0, 84, 0
3, 31270, Note_on_c, 0, 71, 50
3, 31271, Note_on_c, 0, 83, 24
3, 31274, Note_on_c, 0, 72, 0
3, 31298, Note_on_c, 0, 83, 0
3, 31318, Note_on_c, 0, 71, 0
3, 31324, Note_on_c, 0, 72, 43
3, 31325, Note_on_c, 0, 84, 51
3, 31373, Note_on_c, 0, 84, 0
3, 31388, Note_on_c, 0, 83, 33
3, 31389, Note_on_c, 0, 71, 52
3, 31390, Note_on_c, 0, 72, 0
3, 31424, Note_on_c, 0, 83, 0
3, 31429, Note_on_c, 0, 71, 0
3, 31442, Note_on_c, 0, 72, 34
3, 31445, Note_on_c, 0, 84, 50
3, 31454, Note_on_c, 0, 72, 0
3, 31467, Note_on_c, 0, 84, 0
3, 31503, Note_on_c, 0, 93, 80
3, 31506, Note_on_c, 0, 81, 58
3, 31541, Note_on_c, 0, 93, 0
3, 31555, Note_on_c, 0, 81, 0
3, 31559, Note_on_c, 0, 79, 46
3, 31564, Note_on_c, 0, 91, 42
3, 31604, Note_on_c, 0, 79, 0
3, 31605, Note_on_c, 0, 91, 0
3, 31623, Note_on_c, 0, 89, 39
3, 31624, Note_on_c, 0, 77, 30
3, 31644, Note_on_c, 0, 89, 0
3, 31667, Note_on_c, 0, 77, 0
3, 31678, Note_on_c, 0, 79, 55
3, 31685, Note_on_c, 0, 91, 60
3, 31700, Note_on_c, 0, 79, 0
3, 31710, Note_on_c, 0, 91, 0
3, 31929, Note_on_c, 0, 80, 57
3, 31932, Note_on_c, 0, 68, 64
3, 31936, Note_on_c, 0, 56, 62
3, 31941, Note_on_c, 0, 78, 27
3, 31979, Note_on_c, 0, 78, 0
3, 31982, Note_on_c, 0, 80, 0
3, 31982, Note_on_c, 0, 68, 0
3, 31985, Note_on_c, 0, 56, 0
3, 31987, Note_on_c, 0, 69, 62
3, 31989, Note_on_c, 0, 81, 52
3, 31997, Note_on_c, 0, 57, 49
3, 32025, Note_on_c, 0, 69, 0
3, 32027, Note_on_c, 0, 81, 0
3, 32028, Note_on_c, 0, 57, 0
3, 32042, Note_on_c, 0, 81, 29
3, 32044, Note_on_c, 0, 57, 40
3, 32045, Note_on_c, 0, 69, 34
3, 32072, Note_on_c, 0, 81, 0
3, 32073, Note_on_c, 0, 69, 0
3, 32076, Note_on_c, 0, 57, 0
3, 32104, Note_on_c, 0, 81, 53
3, 32105, Note_on_c, 0, 57, 42
3, 32107, Note_on_c, 0, 69, 50
3, 32125, Note_on_c, 0, 69, 0
3, 32125, Note_on_c, 0, 57, 0
3, 32126, Note_on_c, 0, 81, 0
3, 32166, Note_on_c, 0, 58, 44
3, 32168, Note_on_c, 0, 82, 56
3, 32170, Note_on_c, 0, 70, 39
3, 32380, Note_on_c, 0, 58, 0
3, 32394, Note_on_c, 0, 82, 0
3, 32399, Note_on_c, 0, 70, 0
3, 32527, Note_on_c, 0, 68, 58
3, 32528, Note_on_c, 0, 88, 79
3, 32533, Note_on_c, 0, 59, 36
3, 32548, Note_on_c, 0, 68, 0
3, 32549, Note_on_c, 0, 59, 0
3, 32562, Note_on_c, 0, 88, 0
3, 32586, Note_on_c, 0, 86, 80
3, 32622, Note_on_c, 0, 86, 0
3, 32645, Note_on_c, 0, 69, 34
3, 32645, Note_on_c, 0, 84, 55
3, 32660, Note_on_c, 0, 69, 0
3, 32665, Note_on_c, 0, 84, 0
3, 32766, Note_on_c, 0, 84, 64
3, 32797, Note_on_c, 0, 84, 0
3, 32831, Note_on_c, 0, 83, 41
3, 32861, Note_on_c, 0, 83, 0
3, 32884, Note_on_c, 0, 84, 62
3, 32924, Note_on_c, 0, 84, 0
3, 32996, Note_on_c, 0, 96, 80
3, 33018, Note_on_c, 0, 96, 0
3, 33069, Note_on_c, 0, 96, 85
3, 33142, Note_on_c, 0, 96, 0
3, 33250, Note_on_c, 0, 84, 67
3, 33310, Note_on_c, 0, 84, 0
3, 33318, Note_on_c, 0, 83, 45
3, 33347, Note_on_c, 0, 83, 0
3, 33371, Note_on_c, 0, 84, 58
3, 33412, Note_on_c, 0, 84, 0
3, 33434, Note_on_c, 0, 84, 65
3, 33466, Note_on_c, 0, 84, 0
3, 33488, Note_on_c, 0, 84, 61
3, 33524, Note_on_c, 0, 84, 0
3, 33549, Note_on_c, 0, 83, 42
3, 33583, Note_on_c, 0, 83, 0
3, 33609, Note_on_c, 0, 84, 64
3, 33648, Note_on_c, 0, 84, 0
3, 33670, Note_on_c, 0, 84, 74
3, 33712, Note_on_c, 0, 84, 0
3, 33727, Note_on_c, 0, 84, 67
3, 33792, Note_on_c, 0, 83, 55
3, 33793, Note_on_c, 0, 84, 0
3, 33818, Note_on_c, 0, 83, 0
3, 33849, Note_on_c, 0, 84, 69
3, 33895, Note_on_c, 0, 84, 0
3, 33914, Note_on_c, 0, 84, 62
3, 33958, Note_on_c, 0, 84, 0
3, 33969, Note_on_c, 0, 83, 42
3, 34006, Note_on_c, 0, 83, 0
3, 34028, Note_on_c, 0, 84, 71
3, 34141, Note_on_c, 0, 84, 0
3, 34143, Note_on_c, 0, 83, 34
3, 34183, Note_on_c, 0, 83, 0
3, 34202, Note_on_c, 0, 84, 47
3, 34237, Note_on_c, 0, 84, 0
3, 34262, Note_on_c, 0, 84, 62
3, 34292, Note_on_c, 0, 84, 0
3, 34318, Note_on_c, 0, 84, 53
3, 34380, Note_on_c, 0, 84, 0
3, 34497, Note_on_c, 0, 86, 82
3, 34528, Note_on_c, 0, 86, 0
3, 34551, Note_on_c, 0, 84, 62
3, 34565, Note_on_c, 0, 62, 24
3, 34570, Note_on_c, 0, 57, 32
3, 34570, Note_on_c, 0, 60, 38
3, 34572, Note_on_c, 0, 53, 25
3, 34726, Note_on_c, 0, 84, 0
3, 34745, Note_on_c, 0, 81, 64
3, 34778, Note_on_c, 0, 81, 0
3, 34802, Note_on_c, 0, 77, 50
3, 34871, Note_on_c, 0, 72, 54
3, 34873, Note_on_c, 0, 77, 0
3, 34932, Note_on_c, 0, 60, 0
3, 34934, Note_on_c, 0, 62, 0
3, 34950, Note_on_c, 0, 57, 0
3, 34969, Note_on_c, 0, 53, 0
3, 35361, Note_on_c, 0, 65, 55
3, 35365, Note_on_c, 0, 62, 47
3, 35365, Note_on_c, 0, 58, 42
3, 35370, Note_on_c, 0, 65, 0
3, 35375, Note_on_c, 0, 62, 0
3, 35388, Note_on_c, 0, 58, 0
3, 35467, Note_on_c, 0, 76, 74
3, 35479, Note_on_c, 0, 72, 0
3, 35506, Note_on_c, 0, 76, 0
3, 35529, Note_on_c, 0, 79, 91
3, 35532, Note_on_c, 0, 64, 56
3, 35538, Note_on_c, 0, 60, 42
3, 35539, Note_on_c, 0, 57, 42
3, 35540, Note_on_c, 0, 64, 0
3, 35541, Note_on_c, 0, 53, 25
3, 35549, Note_on_c, 0, 60, 0
3, 35553, Note_on_c, 0, 53, 0
3, 35556, Note_on_c, 0, 57, 0
3, 35591, Note_on_c, 0, 79, 0
3, 35604, Note_on_c, 0, 76, 25
3, 35633, Note_on_c, 0, 76, 0
3, 35644, Note_on_c, 0, 77, 72
3, 35701, Note_on_c, 0, 77, 0
3, 35760, Note_on_c, 0, 72, 82
3, 35818, Note_on_c, 0, 72, 0
3, 35832, Note_on_c, 0, 72, 74
3, 35876, Note_on_c, 0, 72, 0
3, 35894, Note_on_c, 0, 69, 25
3, 35948, Note_on_c, 0, 69, 0
3, 36006, Note_on_c, 0, 72, 77
3, 36076, Note_on_c, 0, 72, 0
3, 36187, Note_on_c, 0, 62, 47
3, 36189, Note_on_c, 0, 58, 46
3, 36192, Note_on_c, 0, 57, 43
3, 36216, Note_on_c, 0, 62, 0
3, 36221, Note_on_c, 0, 57, 0
3, 36229, Note_on_c, 0, 58, 0
3, 36264, Note_on_c, 0, 62, 45
3, 36266, Note_on_c, 0, 58, 42
3, 36269, Note_on_c, 0, 57, 41
3, 36313, Note_on_c, 0, 58, 0
3, 36313, Note_on_c, 0, 62, 0
3, 36314, Note_on_c, 0, 57, 0
3, 36363, Note_on_c, 0, 62, 40
3, 36364, Note_on_c, 0, 58, 49
3, 36368, Note_on_c, 0, 57, 38
3, 36393, Note_on_c, 0, 57, 0
3, 36399, Note_on_c, 0, 62, 0
3, 36404, Note_on_c, 0, 58, 0
3, 36621, Control_c, 0, 64, 127
3, 36673, Note_on_c, 0, 65, 56
3, 36674, Note_on_c, 0, 72, 80
3, 36675, Note_on_c, 0, 61, 39
3, 36676, Note_on_c, 0, 60, 57
3, 36682, Note_on_c, 0, 55, 36
3, 36693, Note_on_c, 0, 55, 0
3, 36699, Note_on_c, 0, 65, 0
3, 36702, Note_on_c, 0, 60, 0
3, 36705, Note_on_c, 0, 72, 0
3, 36715, Note_on_c, 0, 61, 0
3, 36741, Control_c, 0, 64, 0
3, 36745, Note_on_c, 0, 67, 80
3, 36746, Note_on_c, 0, 76, 95
3, 36746, Note_on_c, 0, 62, 64
3, 36747, Note_on_c, 0, 56, 70
3, 36792, Control_c, 0, 64, 127
3, 36826, Note_on_c, 0, 56, 0
3, 36829, Note_on_c, 0, 67, 0
3, 36829, Note_on_c, 0, 76, 0
3, 36836, Note_on_c, 0, 62, 0
3, 36840, Control_c, 0, 64, 0
3, 36845, Note_on_c, 0, 67, 68
3, 36845, Control_c, 0, 64, 127
3, 36846, Note_on_c, 0, 76, 75
3, 36846, Note_on_c, 0, 56, 51
3, 36847, Note_on_c, 0, 62, 31
3, 36886, Note_on_c, 0, 67, 0
3, 36888, Note_on_c, 0, 62, 0
3, 36932, Note_on_c, 0, 56, 0
3, 36939, Note_on_c, 0, 76, 0
3, 36970, Control_c, 0, 64, 0
3, 36974, Note_on_c, 0, 72, 75
3, 36977, Note_on_c, 0, 66, 63
3, 36979, Note_on_c, 0, 61, 57
3, 36980, Note_on_c, 0, 55, 67
3, 37001, Control_c, 0, 64, 127
3, 37105, Note_on_c, 0, 55, 0
3, 37119, Note_on_c, 0, 66, 0
3, 37133, Note_on_c, 0, 61, 0
3, 37147, Note_on_c, 0, 72, 0
3, 37149, Note_on_c, 0, 55, 65
3, 37151, Note_on_c, 0, 61, 30
3, 37174, Note_on_c, 0, 55, 0
3, 37198, Note_on_c, 0, 61, 0
3, 37212, Note_on_c, 0, 65, 55
3, 37213, Control_c, 0, 64, 0
3, 37213, Note_on_c, 0, 54, 46
3, 37218, Note_on_c, 0, 60, 53
3, 37336, Control_c, 0, 64, 127
3, 37361, Note_on_c, 0, 54, 0
3, 37370, Note_on_c, 0, 65, 0
3, 37389, Note_on_c, 0, 60, 0
3, 37393, Note_on_c, 0, 54, 53
3, 37398, Note_on_c, 0, 86, 78
3, 37399, Note_on_c, 0, 82, 67
3, 37401, Note_on_c, 0, 74, 69
3, 37428, Note_on_c, 0, 86, 0
3, 37438, Note_on_c, 0, 74, 0
3, 37442, Note_on_c, 0, 54, 0
3, 37443, Note_on_c, 0, 82, 0
3, 37458, Note_on_c, 0, 64, 53
3, 37458, Note_on_c, 0, 53, 49
3, 37461, Note_on_c, 0, 59, 54
3, 37461, Note_on_c, 0, 84, 55
3, 37462, Note_on_c, 0, 72, 48
3, 37464, Note_on_c, 0, 81, 42
3, 37470, Note_on_c, 0, 64, 0
3, 37470, Control_c, 0, 64, 0
3, 37471, Note_on_c, 0, 59, 0
3, 37474, Note_on_c, 0, 72, 0
3, 37476, Note_on_c, 0, 84, 0
3, 37477, Note_on_c, 0, 81, 0
3, 37481, Note_on_c, 0, 53, 0
3, 37573, Note_on_c, 0, 53, 58
3, 37573, Note_on_c, 0, 64, 60
3, 37575, Note_on_c, 0, 72, 76
3, 37575, Note_on_c, 0, 84, 75
3, 37575, Note_on_c, 0, 59, 58
3, 37577, Note_on_c, 0, 81, 58
3, 37581, Control_c, 0, 64, 127
3, 37653, Note_on_c, 0, 84, 0
3, 37656, Note_on_c, 0, 64, 0
3, 37656, Note_on_c, 0, 81, 0
3, 37658, Note_on_c, 0, 53, 0
3, 37663, Note_on_c, 0, 59, 0
3, 37663, Note_on_c, 0, 72, 0
3, 37690, Note_on_c, 0, 83, 62
3, 37691, Note_on_c, 0, 71, 67
3, 37691, Note_on_c, 0, 53, 49
3, 37692, Note_on_c, 0, 59, 48
3, 37692, Note_on_c, 0, 79, 55
3, 37693, Note_on_c, 0, 62, 45
3, 37694, Control_c, 0, 64, 0
3, 37776, Control_c, 0, 64, 127
3, 37811, Note_on_c, 0, 83, 0
3, 37818, Note_on_c, 0, 79, 0
3, 37826, Note_on_c, 0, 62, 0
3, 37830, Note_on_c, 0, 71, 0
3, 37836, Note_on_c, 0, 59, 0
3, 37854, Note_on_c, 0, 53, 0
3, 37886, Note_on_c, 0, 56, 27
3, 37896, Note_on_c, 0, 56, 0
3, 37919, Note_on_c, 0, 69, 77
3, 37920, Note_on_c, 0, 72, 73
3, 37920, Note_on_c, 0, 65, 82
3, 37920, Note_on_c, 0, 62, 84
3, 37921, Note_on_c, 0, 60, 87
3, 37928, Control_c, 0, 64, 0
3, 37966, Note_on_c, 0, 62, 0
3, 37967, Note_on_c, 0, 60, 0
3, 37979, Note_on_c, 0, 65, 0
3, 37984, Note_on_c, 0, 69, 0
3, 37986, Note_on_c, 0, 57, 29
3, 37987, Note_on_c, 0, 72, 0
3, 38025, Note_on_c, 0, 57, 0
3, 38041, Note_on_c, 0, 60, 39
3, 38042, Note_on_c, 0, 72, 60
3, 38043, Note_on_c, 0, 65, 67
3, 38045, Note_on_c, 0, 62, 60
3, 38048, Note_on_c, 0, 69, 36
3, 38059, Note_on_c, 0, 69, 0
3, 38065, Note_on_c, 0, 60, 0
3, 38068, Note_on_c, 0, 72, 0
3, 38072, Note_on_c, 0, 65, 0
3, 38100, Note_on_c, 0, 62, 0
3, 38124, Note_on_c, 0, 54, 23
3, 38153, Note_on_c, 0, 54, 0
3, 38166, Note_on_c, 0, 69, 44
3, 38166, Note_on_c, 0, 58, 36
3, 38167, Note_on_c, 0, 64, 44
3, 38167, Note_on_c, 0, 61, 38
3, 38169, Note_on_c, 0, 57, 41
3, 38213, Note_on_c, 0, 69, 0
3, 38226, Note_on_c, 0, 64, 0
3, 38227, Note_on_c, 0, 57, 0
3, 38229, Note_on_c, 0, 61, 0
3, 38232, Note_on_c, 0, 58, 0
3, 38247, Note_on_c, 0, 55, 26
3, 38264, Note_on_c, 0, 55, 0
3, 38280, Note_on_c, 0, 57, 40
3, 38280, Note_on_c, 0, 61, 54
3, 38281, Note_on_c, 0, 58, 50
3, 38285, Note_on_c, 0, 64, 51
3, 38286, Note_on_c, 0, 69, 45
3, 38320, Note_on_c, 0, 69, 0
3, 38331, Note_on_c, 0, 57, 0
3, 38344, Note_on_c, 0, 58, 0
3, 38345, Note_on_c, 0, 64, 0
3, 38357, Note_on_c, 0, 61, 0
3, 38523, Note_on_c, 0, 72, 81
3, 38551, Note_on_c, 0, 72, 0
3, 38596, Note_on_c, 0, 60, 65
3, 38607, Note_on_c, 0, 57, 38
3, 38616, Note_on_c, 0, 48, 19
3, 38672, Note_on_c, 0, 60, 0
3, 38680, Note_on_c, 0, 62, 68
3, 38751, Note_on_c, 0, 62, 0
3, 38766, Note_on_c, 0, 64, 71
3, 38817, Note_on_c, 0, 57, 0
3, 38839, Note_on_c, 0, 64, 0
3, 38849, Note_on_c, 0, 65, 70
3, 38915, Note_on_c, 0, 65, 0
3, 38924, Note_on_c, 0, 67, 71
3, 38971, Note_on_c, 0, 67, 0
3, 39010, Note_on_c, 0, 69, 73
3, 39018, Note_on_c, 0, 57, 31
3, 39035, Note_on_c, 0, 57, 0
3, 39045, Note_on_c, 0, 69, 0
3, 39086, Note_on_c, 0, 70, 67
3, 39090, Note_on_c, 0, 62, 49
3, 39091, Note_on_c, 0, 65, 54
3, 39091, Note_on_c, 0, 58, 40
3, 39120, Note_on_c, 0, 62, 0
3, 39124, Note_on_c, 0, 58, 0
3, 39126, Note_on_c, 0, 65, 0
3, 39133, Note_on_c, 0, 70, 0
3, 39161, Note_on_c, 0, 72, 47
3, 39165, Note_on_c, 0, 62, 57
3, 39200, Note_on_c, 0, 72, 0
3, 39203, Note_on_c, 0, 62, 0
3, 39247, Note_on_c, 0, 74, 73
3, 39249, Note_on_c, 0, 68, 56
3, 39249, Note_on_c, 0, 64, 64
3, 39250, Note_on_c, 0, 58, 53
3, 39295, Note_on_c, 0, 74, 0
3, 39308, Note_on_c, 0, 64, 0
3, 39312, Note_on_c, 0, 58, 0
3, 39315, Note_on_c, 0, 68, 0
3, 39328, Note_on_c, 0, 72, 48
3, 39328, Note_on_c, 0, 62, 52
3, 39331, Note_on_c, 0, 67, 61
3, 39332, Note_on_c, 0, 57, 48
3, 39478, Control_c, 0, 64, 127
3, 39498, Note_on_c, 0, 62, 0
3, 39498, Note_on_c, 0, 48, 0
3, 39518, Note_on_c, 0, 57, 0
3, 39529, Note_on_c, 0, 67, 0
3, 39535, Note_on_c, 0, 72, 0
3, 39550, Control_c, 0, 64, 0
3, 39597, Note_on_c, 0, 72, 54
3, 39599, Note_on_c, 0, 62, 49
3, 39600, Note_on_c, 0, 67, 55
3, 39601, Note_on_c, 0, 57, 40
3, 39638, Note_on_c, 0, 62, 0
3, 39644, Note_on_c, 0, 67, 0
3, 39654, Note_on_c, 0, 72, 0
3, 39658, Note_on_c, 0, 57, 0
3, 39666, Note_on_c, 0, 56, 39
3, 39708, Note_on_c, 0, 56, 0
3, 39719, Note_on_c, 0, 57, 49
3, 39723, Note_on_c, 0, 72, 43
3, 39723, Note_on_c, 0, 67, 58
3, 39724, Note_on_c, 0, 62, 46
3, 39735, Note_on_c, 0, 62, 0
3, 39739, Note_on_c, 0, 57, 0
3, 39745, Note_on_c, 0, 67, 0
3, 39750, Note_on_c, 0, 72, 0
3, 39845, Note_on_c, 0, 79, 71
3, 39846, Note_on_c, 0, 74, 78
3, 39848, Note_on_c, 0, 69, 68
3, 39849, Note_on_c, 0, 64, 68
3, 39857, Note_on_c, 0, 69, 0
3, 39865, Note_on_c, 0, 74, 0
3, 39867, Note_on_c, 0, 64, 0
3, 39869, Note_on_c, 0, 79, 0
3, 39930, Note_on_c, 0, 79, 68
3, 39932, Note_on_c, 0, 74, 72
3, 39933, Note_on_c, 0, 69, 61
3, 39936, Note_on_c, 0, 64, 50
3, 39944, Note_on_c, 0, 69, 0
3, 39947, Note_on_c, 0, 64, 0
3, 39951, Note_on_c, 0, 74, 0
3, 39954, Note_on_c, 0, 79, 0
3, 40028, Note_on_c, 0, 77, 66
3, 40028, Note_on_c, 0, 72, 66
3, 40031, Note_on_c, 0, 62, 59
3, 40033, Note_on_c, 0, 67, 40
3, 40035, Note_on_c, 0, 69, 44
3, 40057, Note_on_c, 0, 62, 0
3, 40063, Note_on_c, 0, 77, 0
3, 40064, Note_on_c, 0, 69, 0
3, 40067, Note_on_c, 0, 72, 0
3, 40070, Note_on_c, 0, 67, 0
3, 40102, Note_on_c, 0, 76, 65
3, 40105, Note_on_c, 0, 60, 46
3, 40105, Note_on_c, 0, 71, 62
3, 40110, Note_on_c, 0, 65, 34
3, 40111, Note_on_c, 0, 67, 46
3, 40157, Note_on_c, 0, 76, 0
3, 40163, Note_on_c, 0, 71, 0
3, 40169, Note_on_c, 0, 67, 0
3, 40171, Note_on_c, 0, 65, 0
3, 40187, Note_on_c, 0, 60, 0
3, 40204, Note_on_c, 0, 74, 55
3, 40207, Note_on_c, 0, 65, 40
3, 40209, Note_on_c, 0, 69, 57
3, 40211, Note_on_c, 0, 58, 49
3, 40249, Note_on_c, 0, 69, 0
3, 40253, Note_on_c, 0, 74, 0
3, 40267, Note_on_c, 0, 65, 0
3, 40312, Note_on_c, 0, 58, 0
3, 40325, Note_on_c, 0, 57, 39
3, 40327, Note_on_c, 0, 67, 51
3, 40327, Note_on_c, 0, 72, 38
3, 40331, Note_on_c, 0, 62, 34
3, 40371, Note_on_c, 0, 62, 0
3, 40412, Note_on_c, 0, 67, 0
3, 40439, Note_on_c, 0, 72, 0
3, 40471, Note_on_c, 0, 57, 0
3, 40505, Note_on_c, 0, 67, 60
3, 40527, Note_on_c, 0, 67, 0
3, 40566, Note_on_c, 0, 79, 66
3, 40597, Note_on_c, 0, 79, 0
3, 40628, Note_on_c, 0, 79, 51
3, 40661, Note_on_c, 0, 79, 0
3, 40684, Note_on_c, 0, 72, 45
3, 40685, Note_on_c, 0, 67, 40
3, 40689, Note_on_c, 0, 56, 29
3, 40692, Note_on_c, 0, 62, 37
3, 40737, Note_on_c, 0, 62, 0
3, 40742, Note_on_c, 0, 67, 0
3, 40771, Note_on_c, 0, 56, 0
3, 40774, Note_on_c, 0, 72, 0
3, 40804, Note_on_c, 0, 61, 39
3, 40806, Note_on_c, 0, 65, 32
3, 40807, Note_on_c, 0, 55, 44
3, 40874, Note_on_c, 0, 72, 45
3, 40922, Note_on_c, 0, 72, 0
3, 40930, Note_on_c, 0, 73, 37
3, 40937, Note_on_c, 0, 65, 0
3, 40945, Note_on_c, 0, 55, 0
3, 40953, Note_on_c, 0, 73, 0
3, 40970, Note_on_c, 0, 61, 0
3, 40988, Note_on_c, 0, 77, 66
3, 40991, Note_on_c, 0, 65, 64
3, 40997, Note_on_c, 0, 54, 33
3, 41038, Note_on_c, 0, 77, 0
3, 41054, Note_on_c, 0, 82, 40
3, 41072, Note_on_c, 0, 65, 0
3, 41076, Note_on_c, 0, 54, 0
3, 41097, Note_on_c, 0, 82, 0
3, 41108, Note_on_c, 0, 54, 48
3, 41110, Note_on_c, 0, 86, 71
3, 41110, Note_on_c, 0, 65, 55
3, 41111, Note_on_c, 0, 74, 66
3, 41114, Note_on_c, 0, 60, 53
3, 41116, Note_on_c, 0, 82, 23
3, 41136, Note_on_c, 0, 86, 0
3, 41140, Note_on_c, 0, 74, 0
3, 41140, Note_on_c, 0, 65, 0
3, 41146, Note_on_c, 0, 82, 0
3, 41149, Note_on_c, 0, 60, 0
3, 41199, Note_on_c, 0, 54, 0
3, 41225, Note_on_c, 0, 54, 37
3, 41230, Note_on_c, 0, 65, 48
3, 41237, Note_on_c, 0, 60, 45
3, 41242, Note_on_c, 0, 91, 45
3, 41243, Note_on_c, 0, 65, 0
3, 41245, Note_on_c, 0, 89, 37
3, 41251, Note_on_c, 0, 91, 0
3, 41256, Note_on_c, 0, 89, 0
3, 41256, Note_on_c, 0, 60, 0
3, 41259, Note_on_c, 0, 54, 0
3, 41299, Note_on_c, 0, 64, 44
3, 41299, Note_on_c, 0, 85, 67
3, 41300, Note_on_c, 0, 79, 68
3, 41300, Note_on_c, 0, 91, 71
3, 41300, Note_on_c, 0, 57, 64
3, 41301, Note_on_c, 0, 60, 38
3, 41303, Note_on_c, 0, 53, 31
3, 41307, Note_on_c, 0, 87, 33
3, 41307, Note_on_c, 0, 89, 31
3, 41326, Note_on_c, 0, 85, 0
3, 41363, Note_on_c, 0, 88, 35
3, 41366, Note_on_c, 0, 64, 0
3, 41370, Note_on_c, 0, 87, 0
3, 41370, Note_on_c, 0, 53, 0
3, 41371, Note_on_c, 0, 79, 0
3, 41372, Note_on_c, 0, 91, 0
3, 41373, Note_on_c, 0, 60, 0
3, 41374, Note_on_c, 0, 88, 0
3, 41378, Note_on_c, 0, 57, 0
3, 41380, Note_on_c, 0, 89, 0
3, 41476, Note_on_c, 0, 53, 64
3, 41476, Note_on_c, 0, 91, 73
3, 41477, Note_on_c, 0, 79, 63
3, 41477, Note_on_c, 0, 64, 68
3, 41478, Note_on_c, 0, 86, 76
3, 41479, Note_on_c, 0, 59, 60
3, 41510, Note_on_c, 0, 64, 0
3, 41511, Note_on_c, 0, 79, 0
3, 41511, Note_on_c, 0, 91, 0
3, 41514, Note_on_c, 0, 53, 0
3, 41516, Note_on_c, 0, 86, 0
3, 41521, Note_on_c, 0, 59, 0
3, 41555, Note_on_c, 0, 53, 51
3, 41556, Note_on_c, 0, 91, 68
3, 41557, Note_on_c, 0, 64, 54
3, 41557, Note_on_c, 0, 59, 59
3, 41560, Note_on_c, 0, 86, 77
3, 41561, Note_on_c, 0, 79, 49
3, 41592, Note_on_c, 0, 79, 0
3, 41592, Note_on_c, 0, 53, 0
3, 41595, Note_on_c, 0, 64, 0
3, 41600, Note_on_c, 0, 86, 0
3, 41600, Note_on_c, 0, 91, 0
3, 41609, Note_on_c, 0, 59, 0
3, 41627, Note_on_c, 0, 93, 77
3, 41627, Note_on_c, 0, 59, 54
3, 41628, Note_on_c, 0, 86, 52
3, 41628, Note_on_c, 0, 64, 55
3, 41629, Note_on_c, 0, 53, 53
3, 41630, Note_on_c, 0, 81, 48
3, 41643, Note_on_c, 0, 86, 0
3, 41644, Note_on_c, 0, 81, 0
3, 41647, Note_on_c, 0, 64, 0
3, 41651, Note_on_c, 0, 59, 0
3, 41655, Note_on_c, 0, 93, 0
3, 41658, Note_on_c, 0, 53, 0
3, 41719, Note_on_c, 0, 92, 74
3, 41720, Note_on_c, 0, 58, 74
3, 41721, Note_on_c, 0, 62, 76
3, 41722, Note_on_c, 0, 96, 64
3, 41723, Note_on_c, 0, 53, 65
3, 41723, Note_on_c, 0, 95, 62
3, 41723, Note_on_c, 0, 84, 55
3, 41724, Note_on_c, 0, 83, 44
3, 41724, Note_on_c, 0, 57, 60
3, 41724, Note_on_c, 0, 90, 36
3, 41731, Note_on_c, 0, 95, 0
3, 41733, Note_on_c, 0, 83, 0
3, 41734, Note_on_c, 0, 57, 0
3, 41740, Note_on_c, 0, 90, 0
3, 41764, Note_on_c, 0, 62, 0
3, 41764, Note_on_c, 0, 92, 0
3, 41764, Note_on_c, 0, 93, 62
3, 41767, Note_on_c, 0, 58, 0
3, 41768, Note_on_c, 0, 96, 0
3, 41768, Note_on_c, 0, 84, 0
3, 41769, Note_on_c, 0, 53, 0
3, 41773, Note_on_c, 0, 93, 0
3, 41831, Note_on_c, 0, 92, 75
3, 41833, Note_on_c, 0, 62, 69
3, 41834, Note_on_c, 0, 58, 56
3, 41834, Note_on_c, 0, 96, 69
3, 41834, Note_on_c, 0, 84, 68
3, 41835, Note_on_c, 0, 57, 50
3, 41835, Note_on_c, 0, 53, 62
3, 41864, Note_on_c, 0, 84, 0
3, 41868, Note_on_c, 0, 96, 0
3, 41871, Note_on_c, 0, 62, 0
3, 41874, Note_on_c, 0, 57, 0
3, 41876, Note_on_c, 0, 92, 0
3, 41882, Note_on_c, 0, 53, 0
3, 41882, Note_on_c, 0, 58, 0
3, 41952, Note_on_c, 0, 58, 62
3, 41952, Note_on_c, 0, 62, 73
3, 41953, Note_on_c, 0, 52, 56
3, 41971, Note_on_c, 0, 52, 0
3, 41971, Note_on_c, 0, 62, 0
3, 41975, Note_on_c, 0, 58, 0
3, 42072, Note_on_c, 0, 62, 69
3, 42074, Note_on_c, 0, 58, 55
3, 42080, Note_on_c, 0, 52, 30
3, 42090, Note_on_c, 0, 52, 0
3, 42093, Note_on_c, 0, 62, 0
3, 42099, Note_on_c, 0, 58, 0
3, 42131, Note_on_c, 0, 79, 71
3, 42158, Note_on_c, 0, 79, 0
3, 42187, Note_on_c, 0, 86, 94
3, 42217, Note_on_c, 0, 86, 0
3, 42238, Note_on_c, 0, 67, 36
3, 42240, Note_on_c, 0, 58, 31
3, 42241, Note_on_c, 0, 63, 34
3, 42242, Note_on_c, 0, 62, 33
3, 42248, Note_on_c, 0, 82, 53
3, 42362, Note_on_c, 0, 63, 0
3, 42362, Note_on_c, 0, 67, 0
3, 42365, Note_on_c, 0, 62, 0
3, 42408, Note_on_c, 0, 82, 0
3, 42426, Note_on_c, 0, 75, 64
3, 42445, Note_on_c, 0, 58, 0
3, 42469, Note_on_c, 0, 75, 0
3, 42482, Note_on_c, 0, 63, 35
3, 42483, Note_on_c, 0, 67, 33
3, 42485, Note_on_c, 0, 74, 52
3, 42486, Note_on_c, 0, 57, 31
3, 42587, Note_on_c, 0, 67, 0
3, 42631, Note_on_c, 0, 63, 0
3, 42647, Note_on_c, 0, 57, 0
3, 42664, Note_on_c, 0, 72, 57
3, 42686, Note_on_c, 0, 74, 0
3, 42698, Note_on_c, 0, 72, 0
3, 42786, Note_on_c, 0, 65, 61
3, 42786, Note_on_c, 0, 77, 76
3, 42816, Note_on_c, 0, 65, 0
3, 42824, Note_on_c, 0, 77, 0
3, 42841, Note_on_c, 0, 62, 46
3, 42844, Note_on_c, 0, 74, 38
3, 42871, Note_on_c, 0, 62, 0
3, 42889, Note_on_c, 0, 74, 0
3, 42905, Note_on_c, 0, 70, 51
3, 42907, Note_on_c, 0, 58, 29
3, 42942, Note_on_c, 0, 58, 0
3, 42954, Note_on_c, 0, 70, 0
3, 42974, Note_on_c, 0, 67, 53
3, 42995, Note_on_c, 0, 67, 0
3, 43029, Note_on_c, 0, 66, 57
3, 43035, Note_on_c, 0, 54, 43
3, 43059, Note_on_c, 0, 66, 0
3, 43068, Note_on_c, 0, 54, 0
3, 43086, Note_on_c, 0, 69, 74
3, 43087, Note_on_c, 0, 57, 44
3, 43140, Note_on_c, 0, 69, 0
3, 43142, Note_on_c, 0, 57, 0
3, 43151, Note_on_c, 0, 66, 35
3, 43151, Note_on_c, 0, 54, 38
3, 43185, Note_on_c, 0, 66, 0
3, 43192, Note_on_c, 0, 54, 0
3, 43201, Note_on_c, 0, 67, 49
3, 43208, Note_on_c, 0, 55, 46
3, 43241, Note_on_c, 0, 55, 0
3, 43257, Note_on_c, 0, 67, 0
3, 43268, Note_on_c, 0, 70, 31
3, 43291, Note_on_c, 0, 70, 0
3, 43334, Note_on_c, 0, 79, 80
3, 43344, Note_on_c, 0, 65, 32
3, 43374, Note_on_c, 0, 65, 0
3, 43378, Note_on_c, 0, 79, 0
3, 43396, Note_on_c, 0, 75, 64
3, 43402, Note_on_c, 0, 63, 39
3, 43428, Note_on_c, 0, 63, 0
3, 43438, Note_on_c, 0, 75, 0
3, 43450, Note_on_c, 0, 72, 43
3, 43493, Note_on_c, 0, 72, 0
3, 43504, Note_on_c, 0, 58, 45
3, 43506, Note_on_c, 0, 70, 56
3, 43533, Note_on_c, 0, 70, 0
3, 43536, Note_on_c, 0, 58, 0
3, 43561, Note_on_c, 0, 57, 37
3, 43562, Note_on_c, 0, 69, 43
3, 43602, Note_on_c, 0, 69, 0
3, 43612, Note_on_c, 0, 57, 0
3, 43622, Note_on_c, 0, 72, 71
3, 43623, Note_on_c, 0, 60, 64
3, 43650, Note_on_c, 0, 60, 0
3, 43667, Note_on_c, 0, 72, 0
3, 43686, Note_on_c, 0, 69, 49
3, 43686, Note_on_c, 0, 57, 33
3, 43728, Note_on_c, 0, 69, 0
3, 43729, Note_on_c, 0, 57, 0
3, 43748, Note_on_c, 0, 65, 44
3, 43749, Note_on_c, 0, 53, 34
3, 43763, Note_on_c, 0, 53, 0
3, 43781, Note_on_c, 0, 65, 0
3, 43801, Note_on_c, 0, 51, 40
3, 43802, Note_on_c, 0, 63, 31
3, 43856, Note_on_c, 0, 51, 0
3, 43857, Note_on_c, 0, 63, 0
3, 43872, Note_on_c, 0, 62, 51
3, 43874, Note_on_c, 0, 50, 46
3, 43980, Note_on_c, 0, 62, 0
3, 43981, Note_on_c, 0, 50, 0
3, 43983, Note_on_c, 0, 63, 39
3, 43983, Note_on_c, 0, 51, 36
3, 44002, Note_on_c, 0, 64, 64
3, 44003, Note_on_c, 0, 51, 0
3, 44003, Note_on_c, 0, 63, 0
3, 44011, Note_on_c, 0, 52, 38
3, 44024, Note_on_c, 0, 52, 0
3, 44027, Note_on_c, 0, 64, 0
3, 44040, Note_on_c, 0, 65, 72
3, 44040, Note_on_c, 0, 53, 62
3, 44104, Note_on_c, 0, 65, 0
3, 44108, Note_on_c, 0, 53, 0
3, 44115, Note_on_c, 0, 62, 55
3, 44118, Note_on_c, 0, 50, 47
3, 44160, Note_on_c, 0, 50, 0
3, 44164, Note_on_c, 0, 62, 0
3, 44174, Note_on_c, 0, 61, 53
3, 44181, Note_on_c, 0, 49, 31
3, 44345, Note_on_c, 0, 52, 46
3, 44347, Note_on_c, 0, 61, 0
3, 44347, Note_on_c, 0, 64, 55
3, 44348, Note_on_c, 0, 49, 0
3, 44394, Note_on_c, 0, 52, 0
3, 44396, Note_on_c, 0, 64, 0
3, 44406, Note_on_c, 0, 62, 46
3, 44408, Note_on_c, 0, 50, 39
3, 44455, Note_on_c, 0, 50, 0
3, 44470, Note_on_c, 0, 57, 29
3, 44471, Note_on_c, 0, 47, 35
3, 44493, Note_on_c, 0, 57, 0
3, 44502, Note_on_c, 0, 62, 0
3, 44516, Note_on_c, 0, 47, 0
3, 44521, Note_on_c, 0, 60, 57
3, 44524, Note_on_c, 0, 48, 49
3, 44558, Note_on_c, 0, 48, 0
3, 44584, Note_on_c, 0, 60, 0
3, 44593, Note_on_c, 0, 57, 24
3, 44616, Note_on_c, 0, 57, 0
3, 44641, Note_on_c, 0, 59, 50
3, 44643, Note_on_c, 0, 47, 35
3, 44695, Note_on_c, 0, 59, 0
3, 44704, Note_on_c, 0, 47, 0
3, 44709, Note_on_c, 0, 62, 42
3, 44712, Note_on_c, 0, 50, 37
3, 44743, Note_on_c, 0, 62, 0
3, 44759, Note_on_c, 0, 65, 60
3, 44764, Note_on_c, 0, 50, 0
3, 44812, Note_on_c, 0, 65, 0
3, 44828, Note_on_c, 0, 62, 34
3, 44841, Note_on_c, 0, 48, 26
3, 44863, Note_on_c, 0, 62, 0
3, 44866, Note_on_c, 0, 48, 0
3, 44883, Note_on_c, 0, 52, 35
3, 44885, Note_on_c, 0, 64, 51
3, 44928, Note_on_c, 0, 52, 0
3, 44938, Note_on_c, 0, 64, 0
3, 44950, Note_on_c, 0, 48, 33
3, 44951, Note_on_c, 0, 60, 54
3, 44980, Note_on_c, 0, 48, 0
3, 44988, Note_on_c, 0, 60, 0
3, 45010, Note_on_c, 0, 57, 35
3, 45018, Note_on_c, 0, 45, 11
3, 45059, Note_on_c, 0, 57, 0
3, 45063, Note_on_c, 0, 45, 0
3, 45235, Note_on_c, 0, 79, 76
3, 45237, Note_on_c, 0, 67, 85
3, 45286, Note_on_c, 0, 79, 0
3, 45287, Note_on_c, 0, 67, 0
3, 45366, Note_on_c, 0, 79, 65
3, 45366, Note_on_c, 0, 64, 41
3, 45367, Note_on_c, 0, 67, 74
3, 45368, Note_on_c, 0, 53, 29
3, 45368, Note_on_c, 0, 59, 42
3, 45438, Note_on_c, 0, 67, 0
3, 45449, Note_on_c, 0, 79, 0
3, 45477, Note_on_c, 0, 59, 0
3, 45480, Note_on_c, 0, 64, 0
3, 45486, Note_on_c, 0, 53, 0
3, 45528, Note_on_c, 0, 53, 31
3, 45529, Note_on_c, 0, 69, 53
3, 45530, Note_on_c, 0, 81, 43
3, 45533, Note_on_c, 0, 59, 30
3, 45540, Note_on_c, 0, 69, 0
3, 45540, Note_on_c, 0, 53, 0
3, 45541, Note_on_c, 0, 81, 0
3, 45543, Note_on_c, 0, 59, 0
3, 45573, Note_on_c, 0, 70, 35
3, 45574, Note_on_c, 0, 82, 34
3, 45581, Note_on_c, 0, 70, 0
3, 45582, Note_on_c, 0, 82, 0
3, 45676, Note_on_c, 0, 84, 68
3, 45677, Note_on_c, 0, 72, 62
3, 45679, Note_on_c, 0, 58, 52
3, 45681, Note_on_c, 0, 62, 46
3, 45685, Note_on_c, 0, 57, 28
3, 45686, Note_on_c, 0, 72, 0
3, 45686, Note_on_c, 0, 84, 0
3, 45691, Note_on_c, 0, 62, 0
3, 45693, Note_on_c, 0, 57, 0
3, 45696, Note_on_c, 0, 58, 0
3, 45742, Note_on_c, 0, 72, 84
3, 45743, Note_on_c, 0, 62, 65
3, 45743, Note_on_c, 0, 58, 54
3, 45743, Note_on_c, 0, 53, 59
3, 45744, Note_on_c, 0, 57, 49
3, 45745, Note_on_c, 0, 80, 53
3, 45746, Note_on_c, 0, 84, 67
3, 45748, Note_on_c, 0, 78, 38
3, 45749, Note_on_c, 0, 83, 55
3, 45751, Note_on_c, 0, 82, 32
3, 45757, Note_on_c, 0, 83, 0
3, 45759, Note_on_c, 0, 82, 0
3, 45776, Note_on_c, 0, 78, 0
3, 45798, Note_on_c, 0, 81, 49
3, 45800, Note_on_c, 0, 62, 0
3, 45800, Note_on_c, 0, 80, 0
3, 45800, Note_on_c, 0, 53, 0
3, 45801, Note_on_c, 0, 72, 0
3, 45805, Note_on_c, 0, 57, 0
3, 45805, Note_on_c, 0, 58, 0
3, 45807, Note_on_c, 0, 84, 0
3, 45812, Note_on_c, 0, 81, 0
3, 45919, Note_on_c, 0, 75, 59
3, 45920, Note_on_c, 0, 62, 57
3, 45920, Note_on_c, 0, 58, 51
3, 45921, Note_on_c, 0, 67, 68
3, 45922, Note_on_c, 0, 79, 55
3, 45923, Note_on_c, 0, 52, 57
3, 45943, Note_on_c, 0, 62, 0
3, 45948, Note_on_c, 0, 52, 0
3, 45963, Note_on_c, 0, 67, 0
3, 45980, Note_on_c, 0, 75, 0
3, 45980, Note_on_c, 0, 58, 0
3, 45982, Note_on_c, 0, 79, 0
3, 46034, Note_on_c, 0, 58, 45
3, 46044, Note_on_c, 0, 58, 0
3, 46087, Note_on_c, 0, 84, 75
3, 46089, Note_on_c, 0, 72, 66
3, 46093, Note_on_c, 0, 79, 37
3, 46104, Note_on_c, 0, 79, 0
3, 46108, Note_on_c, 0, 72, 0
3, 46117, Note_on_c, 0, 84, 0
3, 46208, Note_on_c, 0, 84, 64
3, 46210, Note_on_c, 0, 72, 51
3, 46222, Note_on_c, 0, 72, 0
3, 46229, Note_on_c, 0, 84, 0
3, 46328, Note_on_c, 0, 86, 80
3, 46329, Note_on_c, 0, 74, 61
3, 46387, Note_on_c, 0, 86, 0
3, 46392, Note_on_c, 0, 74, 0
3, 46442, Note_on_c, 0, 84, 71
3, 46444, Note_on_c, 0, 72, 58
3, 46487, Note_on_c, 0, 84, 0
3, 46509, Note_on_c, 0, 72, 0
3, 46563, Note_on_c, 0, 81, 57
3, 46565, Note_on_c, 0, 69, 53
3, 47037, Note_on_c, 0, 62, 54
3, 47043, Note_on_c, 0, 69, 0
3, 47048, Note_on_c, 0, 57, 40
3, 47049, Note_on_c, 0, 62, 0
3, 47049, Note_on_c, 0, 60, 28
3, 47057, Note_on_c, 0, 60, 0
3, 47062, Note_on_c, 0, 57, 0
3, 47069, Note_on_c, 0, 81, 0
3, 47169, Note_on_c, 0, 84, 80
3, 47170, Note_on_c, 0, 72, 81
3, 47194, Note_on_c, 0, 72, 0
3, 47202, Note_on_c, 0, 84, 0
3, 47227, Note_on_c, 0, 72, 68
3, 47228, Note_on_c, 0, 84, 73
3, 47250, Note_on_c, 0, 72, 0
3, 47257, Note_on_c, 0, 84, 0
3, 47286, Note_on_c, 0, 86, 87
3, 47287, Note_on_c, 0, 74, 72
3, 47294, Note_on_c, 0, 86, 0
3, 47350, Note_on_c, 0, 74, 0
3, 47407, Note_on_c, 0, 84, 70
3, 47410, Note_on_c, 0, 72, 58
3, 47440, Note_on_c, 0, 84, 0
3, 47483, Note_on_c, 0, 72, 0
3, 47832, Note_on_c, 0, 79, 62
3, 47834, Note_on_c, 0, 64, 62
3, 47834, Note_on_c, 0, 74, 66
3, 47837, Note_on_c, 0, 69, 61
3, 47868, Note_on_c, 0, 79, 0
3, 47873, Note_on_c, 0, 69, 0
3, 47878, Note_on_c, 0, 74, 0
3, 47885, Note_on_c, 0, 64, 0
3, 47894, Note_on_c, 0, 63, 40
3, 47899, Note_on_c, 0, 78, 25
3, 47933, Note_on_c, 0, 78, 0
3, 47949, Note_on_c, 0, 63, 0
3, 47952, Note_on_c, 0, 79, 64
3, 47954, Note_on_c, 0, 69, 66
3, 47955, Note_on_c, 0, 64, 54
3, 47957, Note_on_c, 0, 74, 45
3, 47968, Note_on_c, 0, 74, 0
3, 47976, Note_on_c, 0, 64, 0
3, 47976, Note_on_c, 0, 79, 0
3, 47978, Note_on_c, 0, 69, 0
3, 48008, Note_on_c, 0, 77, 60
3, 48011, Note_on_c, 0, 72, 54
3, 48013, Note_on_c, 0, 60, 57
3, 48013, Note_on_c, 0, 67, 47
3, 48034, Note_on_c, 0, 77, 0
3, 48038, Note_on_c, 0, 67, 0
3, 48040, Note_on_c, 0, 72, 0
3, 48060, Note_on_c, 0, 60, 0
3, 48124, Note_on_c, 0, 72, 47
3, 48128, Note_on_c, 0, 67, 44
3, 48130, Note_on_c, 0, 60, 50
3, 48131, Note_on_c, 0, 64, 28
3, 48143, Note_on_c, 0, 60, 0
3, 48151, Note_on_c, 0, 64, 0
3, 48161, Note_on_c, 0, 67, 0
3, 48177, Note_on_c, 0, 72, 0
3, 48239, Note_on_c, 0, 46, 48
3, 48243, Note_on_c, 0, 56, 31
3, 48245, Note_on_c, 0, 64, 55
3, 48247, Note_on_c, 0, 72, 35
3, 48250, Note_on_c, 0, 71, 40
3, 48372, Control_c, 0, 64, 127
3, 48391, Note_on_c, 0, 56, 0
3, 48401, Note_on_c, 0, 64, 0
3, 48402, Note_on_c, 0, 72, 0
3, 48407, Note_on_c, 0, 71, 0
3, 48414, Note_on_c, 0, 46, 0
3, 48429, Note_on_c, 0, 52, 35
3, 48435, Note_on_c, 0, 67, 34
3, 48450, Note_on_c, 0, 67, 0
3, 48459, Control_c, 0, 64, 0
3, 48462, Note_on_c, 0, 52, 0
3, 48486, Note_on_c, 0, 72, 43
3, 48488, Note_on_c, 0, 45, 40
3, 48489, Note_on_c, 0, 65, 39
3, 48490, Note_on_c, 0, 55, 29
3, 48517, Control_c, 0, 64, 127
3, 48548, Note_on_c, 0, 45, 0
3, 48559, Note_on_c, 0, 55, 0
3, 48576, Note_on_c, 0, 65, 0
3, 48591, Note_on_c, 0, 72, 0
3, 48753, Control_c, 0, 64, 0
3, 48786, Note_on_c, 0, 87, 72
3, 48788, Note_on_c, 0, 93, 74
3, 48789, Note_on_c, 0, 81, 60
3, 48790, Note_on_c, 0, 65, 65
3, 48790, Note_on_c, 0, 61, 60
3, 48792, Note_on_c, 0, 55, 64
3, 48807, Note_on_c, 0, 55, 0
3, 48808, Note_on_c, 0, 65, 0
3, 48809, Note_on_c, 0, 87, 0
3, 48813, Note_on_c, 0, 88, 44
3, 48820, Note_on_c, 0, 61, 0
3, 48822, Note_on_c, 0, 93, 0
3, 48827, Note_on_c, 0, 88, 0
3, 48829, Note_on_c, 0, 81, 0
3, 48855, Note_on_c, 0, 91, 48
3, 48861, Note_on_c, 0, 79, 26
3, 48870, Note_on_c, 0, 91, 0
3, 48874, Note_on_c, 0, 79, 0
3, 48907, Note_on_c, 0, 61, 51
3, 48909, Note_on_c, 0, 77, 58
3, 48910, Note_on_c, 0, 89, 47
3, 48912, Note_on_c, 0, 55, 43
3, 48922, Note_on_c, 0, 55, 0
3, 48927, Note_on_c, 0, 61, 0
3, 48927, Note_on_c, 0, 77, 0
3, 48931, Note_on_c, 0, 89, 0
3, 48966, Note_on_c, 0, 62, 52
3, 48967, Note_on_c, 0, 53, 47
3, 48968, Note_on_c, 0, 86, 68
3, 48968, Note_on_c, 0, 79, 48
3, 48969, Note_on_c, 0, 91, 62
3, 48969, Note_on_c, 0, 58, 36
3, 48970, Note_on_c, 0, 57, 42
3, 49014, Note_on_c, 0, 79, 0
3, 49014, Note_on_c, 0, 86, 0
3, 49016, Note_on_c, 0, 91, 0
3, 49016, Note_on_c, 0, 62, 0
3, 49017, Note_on_c, 0, 58, 0
3, 49019, Note_on_c, 0, 57, 0
3, 49020, Note_on_c, 0, 53, 0
3, 49150, Note_on_c, 0, 63, 58
3, 49150, Note_on_c, 0, 87, 59
3, 49150, Note_on_c, 0, 93, 69
3, 49151, Note_on_c, 0, 81, 64
3, 49152, Note_on_c, 0, 90, 44
3, 49152, Note_on_c, 0, 54, 53
3, 49154, Note_on_c, 0, 60, 55
3, 49193, Note_on_c, 0, 81, 0
3, 49194, Note_on_c, 0, 87, 0
3, 49197, Note_on_c, 0, 93, 0
3, 49198, Note_on_c, 0, 90, 0
3, 49198, Note_on_c, 0, 63, 0
3, 49199, Note_on_c, 0, 60, 0
3, 49203, Note_on_c, 0, 54, 0
3, 49325, Note_on_c, 0, 94, 74
3, 49325, Note_on_c, 0, 62, 52
3, 49326, Note_on_c, 0, 65, 60
3, 49326, Note_on_c, 0, 55, 60
3, 49327, Note_on_c, 0, 58, 52
3, 49327, Note_on_c, 0, 82, 59
3, 49376, Note_on_c, 0, 65, 0
3, 49379, Note_on_c, 0, 94, 0
3, 49380, Note_on_c, 0, 55, 0
3, 49382, Note_on_c, 0, 82, 0
3, 49385, Note_on_c, 0, 62, 0
3, 49386, Note_on_c, 0, 58, 0
3, 49398, Note_on_c, 0, 94, 50
3, 49400, Note_on_c, 0, 82, 51
3, 49401, Note_on_c, 0, 65, 49
3, 49404, Note_on_c, 0, 62, 40
3, 49404, Note_on_c, 0, 55, 38
3, 49406, Note_on_c, 0, 58, 45
3, 49425, Note_on_c, 0, 65, 0
3, 49427, Note_on_c, 0, 55, 0
3, 49429, Note_on_c, 0, 94, 0
3, 49429, Note_on_c, 0, 82, 0
3, 49432, Note_on_c, 0, 62, 0
3, 49440, Note_on_c, 0, 58, 0
3, 49693, Note_on_c, 0, 76, 73
3, 49694, Note_on_c, 0, 71, 67
3, 49694, Note_on_c, 0, 65, 80
3, 49694, Note_on_c, 0, 68, 63
3, 49698, Note_on_c, 0, 64, 62
3, 49733, Note_on_c, 0, 76, 0
3, 49750, Note_on_c, 0, 71, 0
3, 49751, Note_on_c, 0, 64, 0
3, 49753, Note_on_c, 0, 65, 0
3, 49753, Note_on_c, 0, 68, 0
3, 49816, Note_on_c, 0, 74, 54
3, 49816, Note_on_c, 0, 71, 53
3, 49817, Note_on_c, 0, 68, 50
3, 49817, Note_on_c, 0, 65, 59
3, 49818, Note_on_c, 0, 62, 51
3, 49864, Note_on_c, 0, 71, 0
3, 49868, Note_on_c, 0, 62, 0
3, 49870, Note_on_c, 0, 74, 0
3, 49873, Note_on_c, 0, 65, 0
3, 49876, Note_on_c, 0, 68, 0
3, 49898, Note_on_c, 0, 58, 25
3, 49914, Note_on_c, 0, 58, 0
3, 49936, Note_on_c, 0, 64, 67
3, 49937, Note_on_c, 0, 67, 67
3, 49937, Note_on_c, 0, 57, 67
3, 49938, Note_on_c, 0, 72, 67
3, 49940, Note_on_c, 0, 69, 67
3, 49973, Note_on_c, 0, 57, 0
3, 49977, Note_on_c, 0, 64, 0
3, 49979, Note_on_c, 0, 67, 0
3, 49985, Note_on_c, 0, 69, 0
3, 49988, Note_on_c, 0, 72, 0
3, 50148, Note_on_c, 0, 56, 61
3, 50168, Note_on_c, 0, 56, 0
3, 50170, Note_on_c, 0, 72, 61
3, 50171, Note_on_c, 0, 57, 61
3, 50172, Note_on_c, 0, 67, 61
3, 50172, Note_on_c, 0, 64, 61
3, 50173, Note_on_c, 0, 69, 61
3, 50214, Note_on_c, 0, 64, 0
3, 50215, Note_on_c, 0, 67, 0
3, 50220, Note_on_c, 0, 72, 0
3, 50222, Note_on_c, 0, 57, 0
3, 50223, Note_on_c, 0, 69, 0
3, 50239, Note_on_c, 0, 56, 59
3, 50270, Note_on_c, 0, 56, 0
3, 50285, Note_on_c, 0, 57, 58
3, 50288, Note_on_c, 0, 72, 58
3, 50288, Note_on_c, 0, 69, 58
3, 50288, Note_on_c, 0, 64, 58
3, 50289, Note_on_c, 0, 67, 58
3, 50333, Note_on_c, 0, 57, 0
3, 50334, Note_on_c, 0, 64, 0
3, 50335, Note_on_c, 0, 67, 0
3, 50335, Note_on_c, 0, 69, 0
3, 50337, Note_on_c, 0, 72, 0
3, 50406, Note_on_c, 0, 62, 55
3, 50407, Note_on_c, 0, 70, 55
3, 50409, Note_on_c, 0, 67, 55
3, 50409, Note_on_c, 0, 65, 55
3, 50411, Note_on_c, 0, 55, 54
3, 50454, Note_on_c, 0, 65, 0
3, 50458, Note_on_c, 0, 62, 0
3, 50459, Note_on_c, 0, 67, 0
3, 50460, Note_on_c, 0, 70, 0
3, 50460, Note_on_c, 0, 55, 0
3, 50709, Note_on_c, 0, 62, 47
3, 50712, Note_on_c, 0, 56, 46
3, 50717, Note_on_c, 0, 59, 46
3, 50718, Note_on_c, 0, 53, 46
3, 50719, Note_on_c, 0, 50, 46
3, 50729, Note_on_c, 0, 53, 0
3, 50730, Note_on_c, 0, 62, 0
3, 50740, Note_on_c, 0, 59, 0
3, 50745, Note_on_c, 0, 56, 0
3, 50756, Note_on_c, 0, 50, 0
3, 50776, Note_on_c, 0, 55, 45
3, 50777, Note_on_c, 0, 52, 45
3, 50777, Note_on_c, 0, 64, 45
3, 50778, Note_on_c, 0, 57, 45
3, 50782, Note_on_c, 0, 60, 45
3, 50816, Note_on_c, 0, 57, 0
3, 50819, Note_on_c, 0, 55, 0
3, 50822, Note_on_c, 0, 60, 0
3, 50823, Note_on_c, 0, 52, 0
3, 50825, Note_on_c, 0, 64, 0
3, 51002, Note_on_c, 0, 57, 39
3, 51004, Note_on_c, 0, 62, 39
3, 51004, Note_on_c, 0, 72, 39
3, 51006, Note_on_c, 0, 65, 39
3, 51007, Note_on_c, 0, 69, 39
3, 51021, Note_on_c, 0, 65, 0
3, 51023, Note_on_c, 0, 62, 0
3, 51023, Note_on_c, 0, 57, 0
3, 51029, Note_on_c, 0, 69, 0
3, 51031, Note_on_c, 0, 72, 0
3, 51128, Note_on_c, 0, 72, 35
3, 51129, Note_on_c, 0, 62, 35
3, 51129, Note_on_c, 0, 57, 35
3, 51130, Note_on_c, 0, 65, 35
3, 51131, Note_on_c, 0, 69, 35
3, 51154, Note_on_c, 0, 57, 0
3, 51157, Note_on_c, 0, 62, 0
3, 51160, Note_on_c, 0, 65, 0
3, 51166, Note_on_c, 0, 69, 0
3, 51166, Note_on_c, 0, 72, 0
3, 51192, Note_on_c, 0, 72, 34
3, 51194, Note_on_c, 0, 62, 34
3, 51196, Note_on_c, 0, 57, 34
3, 51196, Note_on_c, 0, 65, 34
3, 51197, Note_on_c, 0, 69, 34
3, 51215, Note_on_c, 0, 62, 0
3, 51216, Note_on_c, 0, 65, 0
3, 51216, Note_on_c, 0, 57, 0
3, 51223, Note_on_c, 0, 72, 0
3, 51223, Note_on_c, 0, 69, 0
3, 51249, Note_on_c, 0, 72, 32
3, 51253, Note_on_c, 0, 57, 32
3, 51254, Note_on_c, 0, 65, 32
3, 51254, Note_on_c, 0, 62, 32
3, 51256, Note_on_c, 0, 69, 32
3, 51267, Note_on_c, 0, 57, 0
3, 51269, Note_on_c, 0, 65, 0
3, 51271, Note_on_c, 0, 62, 0
3, 51275, Note_on_c, 0, 72, 0
3, 51276, Note_on_c, 0, 69, 0
3, 51312, Note_on_c, 0, 57, 31
3, 51313, Note_on_c, 0, 72, 31
3, 51315, Note_on_c, 0, 65, 31
3, 51317, Note_on_c, 0, 62, 30
3, 51318, Note_on_c, 0, 69, 30
3, 51324, Note_on_c, 0, 57, 0
3, 51337, Note_on_c, 0, 62, 0
3, 51338, Note_on_c, 0, 69, 0
3, 51340, Note_on_c, 0, 65, 0
3, 51344, Note_on_c, 0, 72, 0
3, 51366, Note_on_c, 0, 58, 29
3, 51371, Note_on_c, 0, 48, 29
3, 51371, Note_on_c, 0, 70, 29
3, 51372, Note_on_c, 0, 65, 29
3, 51372, Note_on_c, 0, 62, 29
3, 51406, Note_on_c, 0, 48, 0
3, 51407, Note_on_c, 0, 65, 0
3, 51407, Note_on_c, 0, 58, 0
3, 51408, Note_on_c, 0, 62, 0
3, 51421, Note_on_c, 0, 70, 0
3, 51478, Note_on_c, 0, 58, 26
3, 51480, Note_on_c, 0, 70, 26
3, 51480, Note_on_c, 0, 48, 26
3, 51482, Note_on_c, 0, 65, 26
3, 51482, Note_on_c, 0, 62, 26
3, 51506, Note_on_c, 0, 58, 0
3, 51520, Note_on_c, 0, 70, 0
3, 51521, Note_on_c, 0, 48, 0
3, 51522, Note_on_c, 0, 65, 0
3, 51535, Note_on_c, 0, 62, 0
3, 51668, Note_on_c, 0, 62, 21
3, 51669, Note_on_c, 0, 53, 21
3, 51670, Note_on_c, 0, 48, 21
3, 51670, Note_on_c, 0, 58, 21
3, 51671, Note_on_c, 0, 55, 21
3, 51681, Control_c, 0, 64, 0
3, 51689, Note_on_c, 0, 62, 0
3, 51692, Note_on_c, 0, 53, 0
3, 51696, Note_on_c, 0, 55, 0
3, 51711, Note_on_c, 0, 58, 0
3, 51716, Note_on_c, 0, 48, 0
3, 51729, Note_on_c, 0, 64, 20
3, 51730, Note_on_c, 0, 50, 19
3, 51732, Note_on_c, 0, 57, 19
3, 51756, Note_on_c, 0, 57, 0
3, 51764, Note_on_c, 0, 50, 0
3, 51770, Note_on_c, 0, 64, 0
3, 51859, Control_c, 0, 64, 127
3, 52019, Control_c, 0, 64, 0
3, 52021, Note_on_c, 0, 41, 55
3, 52087, Control_c, 0, 64, 127
3, 52230, Note_on_c, 0, 48, 53
3, 52248, Note_on_c, 0, 41, 0
3, 52347, Note_on_c, 0, 48, 0
3, 52872, Note_on_c, 0, 74, 55
3, 52884, Note_on_c, 0, 57, 33
3, 52884, Note_on_c, 0, 70, 46
3, 52892, Note_on_c, 0, 67, 30
3, 52916, Note_on_c, 0, 63, 5
3, 52970, Note_on_c, 0, 67, 0
3, 52977, Note_on_c, 0, 74, 0
3, 52986, Note_on_c, 0, 63, 0
3, 52988, Note_on_c, 0, 70, 0
3, 53083, Note_on_c, 0, 75, 37
3, 53092, Note_on_c, 0, 57, 0
3, 53094, Note_on_c, 0, 72, 38
3, 53101, Note_on_c, 0, 58, 34
3, 53101, Note_on_c, 0, 68, 25
3, 53104, Note_on_c, 0, 64, 32
3, 53117, Control_c, 0, 64, 0
3, 53178, Control_c, 0, 64, 127
3, 53286, Note_on_c, 0, 58, 0
3, 53670, Note_on_c, 0, 24, 37
3, 53724, Note_on_c, 0, 24, 0
3, 54116, Control_c, 0, 64, 0
3, 54116, Note_on_c, 0, 29, 68
3, 54204, Control_c, 0, 64, 127
3, 54287, Note_on_c, 0, 29, 0
3, 54654, Note_on_c, 0, 48, 59
3, 54778, Note_on_c, 0, 48, 0
3, 54784, Note_on_c, 0, 72, 0
3, 54809, Note_on_c, 0, 75, 0
3, 54874, Note_on_c, 0, 68, 0
3, 54923, Note_on_c, 0, 64, 0
3, 55398, Note_on_c, 0, 72, 43
3, 55405, Note_on_c, 0, 67, 54
3, 55406, Note_on_c, 0, 63, 32
3, 55411, Note_on_c, 0, 68, 31
3, 55417, Note_on_c, 0, 62, 30
3, 55419, Note_on_c, 0, 57, 24
3, 55449, Control_c, 0, 64, 0
3, 55493, Control_c, 0, 64, 127
3, 55616, Note_on_c, 0, 68, 0
3, 55626, Note_on_c, 0, 72, 0
3, 55627, Note_on_c, 0, 67, 0
3, 55666, Note_on_c, 0, 63, 0
3, 55698, Note_on_c, 0, 62, 0
3, 56108, Note_on_c, 0, 70, 31
3, 56110, Note_on_c, 0, 57, 0
3, 56112, Note_on_c, 0, 61, 32
3, 56114, Note_on_c, 0, 65, 35
3, 56120, Note_on_c, 0, 60, 29
3, 56122, Note_on_c, 0, 55, 34
3, 56151, Control_c, 0, 64, 0
3, 56236, Control_c, 0, 64, 127
3, 56442, Note_on_c, 0, 55, 0
3, 56914, Note_on_c, 0, 48, 27
3, 57078, Note_on_c, 0, 48, 0
3, 57079, Note_on_c, 0, 41, 54
3, 57087, Note_on_c, 0, 65, 0
3, 57103, Control_c, 0, 64, 0
3, 57140, Control_c, 0, 64, 127
3, 57146, Note_on_c, 0, 61, 0
3, 57172, Note_on_c, 0, 60, 0
3, 57215, Note_on_c, 0, 70, 0
3, 57229, Note_on_c, 0, 48, 55
3, 57261, Note_on_c, 0, 41, 0
3, 57386, Note_on_c, 0, 74, 73
3, 57398, Note_on_c, 0, 70, 45
3, 57399, Note_on_c, 0, 48, 0
3, 57400, Note_on_c, 0, 67, 60
3, 57404, Note_on_c, 0, 63, 42
3, 57405, Note_on_c, 0, 57, 39
3, 57470, Note_on_c, 0, 67, 0
3, 57479, Note_on_c, 0, 74, 0
3, 57491, Note_on_c, 0, 70, 0
3, 57503, Note_on_c, 0, 63, 0
3, 57582, Note_on_c, 0, 75, 39
3, 57592, Note_on_c, 0, 72, 45
3, 57596, Note_on_c, 0, 68, 38
3, 57600, Note_on_c, 0, 64, 46
3, 57603, Note_on_c, 0, 58, 36
3, 57611, Control_c, 0, 64, 0
3, 57613, Note_on_c, 0, 57, 0
3, 57676, Control_c, 0, 64, 127
3, 57745, Note_on_c, 0, 64, 0
3, 57841, Note_on_c, 0, 64, 28
3, 57976, Note_on_c, 0, 64, 0
3, 58067, Note_on_c, 0, 58, 0
3, 58598, Note_on_c, 0, 48, 31
3, 58783, Note_on_c, 0, 41, 47
3, 58794, Note_on_c, 0, 48, 0
3, 58811, Control_c, 0, 64, 0
3, 58859, Control_c, 0, 64, 127
3, 58932, Note_on_c, 0, 72, 0
3, 58935, Note_on_c, 0, 75, 0
3, 58962, Note_on_c, 0, 68, 0
3, 59033, Note_on_c, 0, 48, 38
3, 59109, Note_on_c, 0, 41, 0
3, 59330, Note_on_c, 0, 48, 0
3, 59335, Note_on_c, 0, 72, 43
3, 59342, Note_on_c, 0, 63, 32
3, 59347, Note_on_c, 0, 62, 46
3, 59347, Note_on_c, 0, 67, 37
3, 59350, Note_on_c, 0, 57, 36
3, 59370, Control_c, 0, 64, 0
3, 59428, Control_c, 0, 64, 127
3, 59587, Note_on_c, 0, 72, 0
3, 59594, Note_on_c, 0, 67, 0
3, 59636, Note_on_c, 0, 63, 0
3, 59660, Note_on_c, 0, 62, 0
3, 59990, Note_on_c, 0, 70, 34
3, 59992, Note_on_c, 0, 61, 29
3, 59994, Note_on_c, 0, 57, 0
3, 59999, Note_on_c, 0, 60, 38
3, 60000, Note_on_c, 0, 65, 40
3, 60007, Note_on_c, 0, 55, 34
3, 60025, Control_c, 0, 64, 0
3, 60124, Control_c, 0, 64, 127
3, 60285, Note_on_c, 0, 55, 0
3, 60358, Note_on_c, 0, 60, 0
3, 60366, Note_on_c, 0, 65, 0
3, 60381, Note_on_c, 0, 61, 0
3, 60401, Note_on_c, 0, 70, 0
3, 60584, Note_on_c, 0, 84, 60
3, 60592, Note_on_c, 0, 75, 60
3, 60694, Note_on_c, 0, 84, 0
3, 60740, Note_on_c, 0, 75, 0
3, 60774, Note_on_c, 0, 82, 51
3, 60780, Note_on_c, 0, 74, 48
3, 60853, Note_on_c, 0, 82, 0
3, 60867, Note_on_c, 0, 74, 0
3, 60936, Note_on_c, 0, 81, 57
3, 60941, Note_on_c, 0, 72, 34
3, 60942, Note_on_c, 0, 53, 36
3, 60945, Control_c, 0, 64, 0
3, 60987, Note_on_c, 0, 81, 0
3, 60993, Control_c, 0, 64, 127
3, 61027, Note_on_c, 0, 72, 0
3, 61079, Note_on_c, 0, 79, 50
3, 61084, Note_on_c, 0, 70, 36
3, 61090, Note_on_c, 0, 60, 28
3, 61127, Note_on_c, 0, 79, 0
3, 61174, Note_on_c, 0, 70, 0
3, 61211, Note_on_c, 0, 65, 38
3, 61212, Note_on_c, 0, 77, 47
3, 61212, Note_on_c, 0, 69, 53
3, 61249, Note_on_c, 0, 65, 0
3, 61251, Note_on_c, 0, 77, 0
3, 61267, Note_on_c, 0, 69, 0
3, 61358, Note_on_c, 0, 60, 0
3, 61362, Note_on_c, 0, 79, 52
3, 61366, Note_on_c, 0, 64, 33
3, 61368, Note_on_c, 0, 70, 44
3, 61371, Control_c, 0, 64, 0
3, 61416, Control_c, 0, 64, 127
3, 61454, Note_on_c, 0, 79, 0
3, 61500, Note_on_c, 0, 53, 0
3, 61530, Note_on_c, 0, 70, 0
3, 61569, Note_on_c, 0, 53, 39
3, 61573, Note_on_c, 0, 81, 64
3, 61580, Note_on_c, 0, 70, 25
3, 61676, Note_on_c, 0, 81, 0
3, 61739, Note_on_c, 0, 82, 49
3, 61793, Note_on_c, 0, 70, 0
3, 61795, Note_on_c, 0, 82, 0
3, 61856, Note_on_c, 0, 53, 0
3, 61889, Note_on_c, 0, 81, 47
3, 61894, Note_on_c, 0, 64, 0
3, 61897, Note_on_c, 0, 53, 33
3, 61898, Note_on_c, 0, 69, 34
3, 61900, Control_c, 0, 64, 0
3, 61931, Control_c, 0, 64, 127
3, 61966, Note_on_c, 0, 69, 0
3, 61983, Note_on_c, 0, 81, 0
3, 62063, Note_on_c, 0, 84, 38
3, 62068, Note_on_c, 0, 72, 24
3, 62149, Note_on_c, 0, 84, 0
3, 62214, Note_on_c, 0, 72, 0
3, 62237, Note_on_c, 0, 65, 24
3, 62280, Note_on_c, 0, 65, 0
3, 62327, Note_on_c, 0, 53, 0
3, 62497, Note_on_c, 0, 72, 32
3, 62498, Note_on_c, 0, 61, 25
3, 62502, Note_on_c, 0, 51, 23
3, 62509, Note_on_c, 0, 65, 32
3, 62513, Note_on_c, 0, 60, 29
3, 62520, Control_c, 0, 64, 0
3, 62589, Control_c, 0, 64, 127
3, 62645, Note_on_c, 0, 60, 0
3, 62677, Note_on_c, 0, 51, 0
3, 63111, Note_on_c, 0, 72, 0
3, 63181, Note_on_c, 0, 72, 38
3, 63475, Note_on_c, 0, 72, 0
3, 63502, Note_on_c, 0, 70, 45
3, 63554, Note_on_c, 0, 65, 0
3, 63569, Note_on_c, 0, 61, 0
3, 63580, Note_on_c, 0, 70, 0
3, 63814, Note_on_c, 0, 69, 37
3, 63815, Note_on_c, 0, 50, 24
3, 63817, Note_on_c, 0, 60, 31
3, 63817, Note_on_c, 0, 65, 29
3, 63817, Note_on_c, 0, 64, 41
3, 63824, Note_on_c, 0, 57, 24
3, 63826, Control_c, 0, 64, 0
3, 63881, Control_c, 0, 64, 127
3, 63945, Note_on_c, 0, 69, 0
3, 63953, Note_on_c, 0, 65, 0
3, 63964, Note_on_c, 0, 67, 63
3, 64082, Note_on_c, 0, 67, 0
3, 64087, Note_on_c, 0, 64, 0
3, 64100, Note_on_c, 0, 65, 58
3, 64109, Note_on_c, 0, 57, 0
3, 64131, Note_on_c, 0, 60, 0
3, 64204, Note_on_c, 0, 65, 0
3, 64209, Note_on_c, 0, 50, 0
3, 64252, Note_on_c, 0, 67, 56
3, 64259, Note_on_c, 0, 62, 46
3, 64259, Note_on_c, 0, 65, 39
3, 64260, Control_c, 0, 64, 0
3, 64261, Note_on_c, 0, 48, 30
3, 64263, Note_on_c, 0, 55, 31
3, 64263, Note_on_c, 0, 58, 21
3, 64314, Control_c, 0, 64, 127
3, 64336, Note_on_c, 0, 65, 0
3, 64352, Note_on_c, 0, 62, 0
3, 64382, Note_on_c, 0, 58, 0
3, 64399, Note_on_c, 0, 67, 0
3, 64401, Note_on_c, 0, 55, 0
3, 64426, Note_on_c, 0, 69, 48
3, 64427, Note_on_c, 0, 58, 36
3, 64432, Note_on_c, 0, 61, 43
3, 64434, Note_on_c, 0, 52, 33
3, 64434, Note_on_c, 0, 64, 45
3, 64447, Control_c, 0, 64, 0
3, 64467, Control_c, 0, 64, 127
3, 64490, Note_on_c, 0, 58, 0
3, 64495, Note_on_c, 0, 64, 0
3, 64498, Note_on_c, 0, 61, 0
3, 64500, Note_on_c, 0, 69, 0
3, 64603, Note_on_c, 0, 52, 0
3, 64757, Note_on_c, 0, 48, 0
3, 64766, Note_on_c, 0, 70, 60
3, 64936, Note_on_c, 0, 70, 0
3, 64979, Note_on_c, 0, 62, 46
3, 64982, Note_on_c, 0, 50, 40
3, 64983, Note_on_c, 0, 57, 39
3, 64986, Control_c, 0, 64, 0
3, 64986, Note_on_c, 0, 69, 38
3, 64989, Note_on_c, 0, 65, 37
3, 65020, Control_c, 0, 64, 127
3, 65044, Note_on_c, 0, 62, 0
3, 65048, Note_on_c, 0, 65, 0
3, 65054, Note_on_c, 0, 69, 0
3, 65158, Note_on_c, 0, 61, 40
3, 65158, Note_on_c, 0, 76, 68
3, 65161, Note_on_c, 0, 69, 60
3, 65163, Control_c, 0, 64, 0
3, 65166, Note_on_c, 0, 65, 51
3, 65204, Control_c, 0, 64, 127
3, 65282, Note_on_c, 0, 57, 0
3, 65297, Note_on_c, 0, 61, 0
3, 65316, Note_on_c, 0, 65, 0
3, 65318, Note_on_c, 0, 69, 0
3, 65329, Note_on_c, 0, 50, 0
3, 65345, Note_on_c, 0, 76, 0
3, 65356, Note_on_c, 0, 74, 52
3, 65361, Note_on_c, 0, 65, 34
3, 65366, Note_on_c, 0, 69, 38
3, 65367, Note_on_c, 0, 50, 36
3, 65367, Note_on_c, 0, 60, 34
3, 65431, Note_on_c, 0, 69, 0
3, 65433, Note_on_c, 0, 65, 0
3, 65440, Note_on_c, 0, 74, 0
3, 65454, Note_on_c, 0, 60, 0
3, 65462, Note_on_c, 0, 50, 0
3, 65588, Note_on_c, 0, 81, 61
3, 65596, Control_c, 0, 64, 0
3, 65598, Note_on_c, 0, 76, 45
3, 65600, Note_on_c, 0, 57, 38
3, 65601, Note_on_c, 0, 69, 36
3, 65604, Note_on_c, 0, 73, 17
3, 65605, Note_on_c, 0, 49, 28
3, 65668, Control_c, 0, 64, 127
3, 65732, Note_on_c, 0, 49, 0
3, 65771, Note_on_c, 0, 81, 0
3, 65775, Note_on_c, 0, 73, 0
3, 65781, Note_on_c, 0, 69, 0
3, 65783, Note_on_c, 0, 76, 0
3, 65851, Note_on_c, 0, 57, 0
3, 65858, Note_on_c, 0, 61, 26
3, 65859, Note_on_c, 0, 69, 24
3, 65864, Note_on_c, 0, 73, 15
3, 65872, Note_on_c, 0, 76, 17
3, 65979, Note_on_c, 0, 69, 0
3, 65981, Note_on_c, 0, 76, 0
3, 65987, Note_on_c, 0, 73, 0
3, 66100, Note_on_c, 0, 79, 40
3, 66108, Note_on_c, 0, 64, 31
3, 66110, Note_on_c, 0, 69, 29
3, 66115, Note_on_c, 0, 76, 27
3, 66120, Note_on_c, 0, 73, 15
3, 66191, Note_on_c, 0, 64, 0
3, 66216, Note_on_c, 0, 61, 0
3, 66315, Note_on_c, 0, 79, 0
3, 66327, Note_on_c, 0, 76, 0
3, 66330, Note_on_c, 0, 73, 0
3, 66351, Note_on_c, 0, 69, 0
3, 66906, Note_on_c, 0, 69, 48
3, 66910, Note_on_c, 0, 61, 34
3, 66913, Note_on_c, 0, 41, 36
3, 66914, Note_on_c, 0, 64, 44
3, 66916, Note_on_c, 0, 57, 33
3, 66920, Note_on_c, 0, 49, 30
3, 66922, Control_c, 0, 64, 0
3, 66984, Control_c, 0, 64, 127
3, 67079, Note_on_c, 0, 64, 0
3, 67088, Note_on_c, 0, 57, 0
3, 67091, Note_on_c, 0, 61, 0
3, 67109, Note_on_c, 0, 69, 0
3, 67134, Note_on_c, 0, 49, 0
3, 67140, Note_on_c, 0, 50, 53
3, 67143, Note_on_c, 0, 67, 49
3, 67149, Note_on_c, 0, 57, 27
3, 67149, Note_on_c, 0, 62, 43
3, 67161, Control_c, 0, 64, 0
3, 67243, Control_c, 0, 64, 127
3, 67327, Note_on_c, 0, 67, 0
3, 67328, Note_on_c, 0, 65, 68
3, 67379, Note_on_c, 0, 41, 0
3, 67403, Note_on_c, 0, 57, 0
3, 67410, Note_on_c, 0, 62, 0
3, 67437, Note_on_c, 0, 50, 0
3, 67485, Note_on_c, 0, 65, 0
3, 67748, Note_on_c, 0, 58, 53
3, 67750, Note_on_c, 0, 67, 55
3, 67752, Note_on_c, 0, 43, 51
3, 67753, Note_on_c, 0, 62, 57
3, 67756, Note_on_c, 0, 51, 39
3, 67768, Control_c, 0, 64, 0
3, 67829, Control_c, 0, 64, 127
3, 67867, Note_on_c, 0, 51, 0
3, 67944, Note_on_c, 0, 58, 0
3, 67952, Note_on_c, 0, 62, 0
3, 67975, Note_on_c, 0, 67, 0
3, 67991, Note_on_c, 0, 58, 54
3, 67991, Note_on_c, 0, 69, 60
3, 67993, Note_on_c, 0, 62, 50
3, 67995, Note_on_c, 0, 52, 45
3, 68002, Note_on_c, 0, 65, 43
3, 68010, Control_c, 0, 64, 0
3, 68074, Control_c, 0, 64, 127
3, 68122, Note_on_c, 0, 69, 0
3, 68182, Note_on_c, 0, 65, 0
3, 68199, Note_on_c, 0, 70, 64
3, 68220, Note_on_c, 0, 62, 0
3, 68223, Note_on_c, 0, 43, 0
3, 68247, Note_on_c, 0, 58, 0
3, 68263, Note_on_c, 0, 52, 0
3, 68286, Note_on_c, 0, 70, 0
3, 68491, Note_on_c, 0, 72, 39
3, 68497, Note_on_c, 0, 64, 53
3, 68500, Note_on_c, 0, 69, 37
3, 68501, Note_on_c, 0, 45, 31
3, 68503, Note_on_c, 0, 61, 25
3, 68508, Control_c, 0, 64, 0
3, 68509, Note_on_c, 0, 55, 34
3, 68617, Control_c, 0, 64, 127
3, 68698, Note_on_c, 0, 72, 0
3, 68706, Note_on_c, 0, 69, 0
3, 68740, Note_on_c, 0, 70, 52
3, 68864, Note_on_c, 0, 70, 0
3, 68896, Note_on_c, 0, 64, 0
3, 68939, Note_on_c, 0, 45, 0
3, 68947, Note_on_c, 0, 61, 0
3, 68949, Note_on_c, 0, 69, 47
3, 69008, Note_on_c, 0, 69, 0
3, 69018, Note_on_c, 0, 55, 0
3, 69158, Note_on_c, 0, 74, 43
3, 69165, Note_on_c, 0, 62, 35
3, 69165, Note_on_c, 0, 69, 54
3, 69170, Note_on_c, 0, 57, 33
3, 69174, Note_on_c, 0, 47, 22
3, 69176, Control_c, 0, 64, 0
3, 69248, Control_c, 0, 64, 127
3, 69369, Note_on_c, 0, 69, 0
3, 69426, Note_on_c, 0, 69, 42
3, 69443, Note_on_c, 0, 57, 0
3, 69561, Note_on_c, 0, 69, 0
3, 69615, Note_on_c, 0, 62, 0
3, 69690, Note_on_c, 0, 74, 0
3, 69701, Note_on_c, 0, 62, 20
3, 69702, Note_on_c, 0, 68, 26
3, 69709, Note_on_c, 0, 56, 18
3, 69871, Note_on_c, 0, 74, 44
3, 69874, Note_on_c, 0, 47, 0
3, 69892, Note_on_c, 0, 56, 0
3, 70004, Note_on_c, 0, 74, 0
3, 70022, Note_on_c, 0, 68, 0
3, 70044, Note_on_c, 0, 62, 0
3, 70120, Note_on_c, 0, 48, 33
3, 70124, Note_on_c, 0, 65, 35
3, 70128, Note_on_c, 0, 72, 24
3, 70132, Note_on_c, 0, 57, 24
3, 70138, Control_c, 0, 64, 0
3, 70202, Control_c, 0, 64, 127
3, 70252, Note_on_c, 0, 72, 0
3, 70261, Note_on_c, 0, 60, 43
3, 70264, Note_on_c, 0, 65, 0
3, 70349, Note_on_c, 0, 60, 0
3, 70368, Note_on_c, 0, 65, 54
3, 70383, Note_on_c, 0, 65, 0
3, 70473, Note_on_c, 0, 84, 66
3, 70529, Note_on_c, 0, 84, 0
3, 70599, Note_on_c, 0, 84, 64
3, 70637, Note_on_c, 0, 84, 0
3, 70716, Note_on_c, 0, 84, 63
3, 70743, Note_on_c, 0, 48, 0
3, 70761, Note_on_c, 0, 84, 0
3, 70830, Note_on_c, 0, 57, 0
3, 70843, Note_on_c, 0, 84, 51
3, 70843, Note_on_c, 0, 48, 32
3, 70847, Control_c, 0, 64, 0
3, 70888, Control_c, 0, 64, 127
3, 70934, Note_on_c, 0, 84, 0
3, 70970, Note_on_c, 0, 57, 37
3, 71107, Note_on_c, 0, 63, 35
3, 71259, Note_on_c, 0, 66, 32
3, 71394, Note_on_c, 0, 63, 0
3, 71415, Note_on_c, 0, 66, 0
3, 71691, Note_on_c, 0, 72, 33
3, 71819, Note_on_c, 0, 72, 0
3, 71851, Note_on_c, 0, 74, 45
3, 71852, Note_on_c, 0, 57, 0
3, 71905, Note_on_c, 0, 48, 0
3, 71942, Note_on_c, 0, 74, 0
3, 72147, Note_on_c, 0, 72, 32
3, 72149, Note_on_c, 0, 64, 31
3, 72151, Note_on_c, 0, 68, 27
3, 72153, Note_on_c, 0, 48, 34
3, 72154, Note_on_c, 0, 58, 26
3, 72173, Control_c, 0, 64, 0
3, 72251, Control_c, 0, 64, 127
3, 72355, Note_on_c, 0, 64, 0
3, 72378, Note_on_c, 0, 68, 0
3, 72382, Note_on_c, 0, 72, 0
3, 72409, Note_on_c, 0, 72, 44
3, 72529, Note_on_c, 0, 58, 0
3, 72542, Note_on_c, 0, 72, 0
3, 72640, Note_on_c, 0, 72, 37
3, 72646, Note_on_c, 0, 62, 38
3, 72650, Note_on_c, 0, 65, 37
3, 72673, Note_on_c, 0, 58, 13
3, 72733, Note_on_c, 0, 48, 0
3, 72757, Note_on_c, 0, 58, 0
3, 72760, Note_on_c, 0, 65, 0
3, 72770, Note_on_c, 0, 62, 0
3, 72777, Note_on_c, 0, 72, 0
3, 72954, Note_on_c, 0, 72, 28
3, 72954, Control_c, 0, 64, 0
3, 72963, Note_on_c, 0, 48, 30
3, 72965, Note_on_c, 0, 58, 25
3, 72967, Note_on_c, 0, 64, 31
3, 72968, Note_on_c, 0, 60, 25
3, 73002, Control_c, 0, 64, 127
3, 73030, Note_on_c, 0, 58, 0
3, 73033, Note_on_c, 0, 48, 0
3, 73321, Note_on_c, 0, 64, 0
3, 73326, Note_on_c, 0, 60, 0
3, 73331, Note_on_c, 0, 24, 27
3, 73377, Note_on_c, 0, 72, 0
3, 73396, Note_on_c, 0, 24, 0
3, 73786, Note_on_c, 0, 96, 41
3, 73801, Note_on_c, 0, 72, 20
3, 73805, Note_on_c, 0, 84, 24
3, 73966, Note_on_c, 0, 96, 0
3, 73970, Note_on_c, 0, 72, 0
3, 73981, Note_on_c, 0, 84, 0
3, 74547, Note_on_c, 0, 72, 62
3, 74551, Note_on_c, 0, 57, 39
3, 74552, Note_on_c, 0, 62, 50
3, 74553, Note_on_c, 0, 67, 55
3, 74566, Control_c, 0, 64, 0
3, 74608, Control_c, 0, 64, 127
3, 74633, Note_on_c, 0, 72, 0
3, 74635, Note_on_c, 0, 67, 0
3, 74668, Note_on_c, 0, 62, 0
3, 74744, Note_on_c, 0, 57, 0
3, 74772, Note_on_c, 0, 60, 36
3, 74773, Note_on_c, 0, 69, 48
3, 74778, Note_on_c, 0, 64, 44
3, 74783, Note_on_c, 0, 53, 30
3, 74792, Control_c, 0, 64, 0
3, 74829, Control_c, 0, 64, 127
3, 75046, Note_on_c, 0, 69, 0
3, 75053, Note_on_c, 0, 64, 0
3, 75089, Note_on_c, 0, 60, 0
3, 75097, Note_on_c, 0, 53, 0
3, 75287, Note_on_c, 0, 64, 41
3, 75291, Note_on_c, 0, 52, 36
3, 75292, Note_on_c, 0, 47, 31
3, 75292, Note_on_c, 0, 56, 31
3, 75293, Note_on_c, 0, 59, 44
3, 75303, Control_c, 0, 64, 0
3, 75326, Note_on_c, 0, 47, 0
3, 75330, Control_c, 0, 64, 127
3, 75356, Note_on_c, 0, 52, 0
3, 75370, Note_on_c, 0, 59, 0
3, 75381, Note_on_c, 0, 56, 0
3, 75388, Note_on_c, 0, 64, 0
3, 75458, Note_on_c, 0, 65, 51
3, 75463, Note_on_c, 0, 57, 36
3, 75466, Note_on_c, 0, 60, 57
3, 75470, Control_c, 0, 64, 0
3, 75472, Note_on_c, 0, 45, 35
3, 75511, Note_on_c, 0, 57, 0
3, 75511, Control_c, 0, 64, 127
3, 75518, Note_on_c, 0, 65, 0
3, 75526, Note_on_c, 0, 60, 0
3, 75595, Note_on_c, 0, 69, 56
3, 75600, Note_on_c, 0, 60, 40
3, 75601, Note_on_c, 0, 53, 38
3, 75602, Note_on_c, 0, 62, 53
3, 75603, Note_on_c, 0, 65, 48
3, 75622, Note_on_c, 0, 65, 0
3, 75622, Note_on_c, 0, 60, 0
3, 75623, Note_on_c, 0, 62, 0
3, 75637, Note_on_c, 0, 69, 0
3, 75732, Note_on_c, 0, 72, 51
3, 75738, Note_on_c, 0, 57, 36
3, 75739, Note_on_c, 0, 69, 39
3, 75740, Note_on_c, 0, 65, 36
3, 75770, Note_on_c, 0, 65, 0
3, 75779, Note_on_c, 0, 69, 0
3, 75786, Note_on_c, 0, 72, 0
3, 75794, Note_on_c, 0, 57, 0
3, 75797, Note_on_c, 0, 45, 0
3, 75888, Note_on_c, 0, 53, 0
3, 75896, Note_on_c, 0, 75, 50
3, 75904, Note_on_c, 0, 63, 28
3, 75905, Note_on_c, 0, 67, 45
3, 75905, Note_on_c, 0, 46, 35
3, 75910, Control_c, 0, 64, 0
3, 75914, Note_on_c, 0, 55, 34
3, 75995, Control_c, 0, 64, 127
3, 76011, Note_on_c, 0, 46, 0
3, 76073, Note_on_c, 0, 55, 0
3, 76096, Note_on_c, 0, 58, 21
3, 76114, Note_on_c, 0, 67, 0
3, 76174, Note_on_c, 0, 63, 0
3, 76237, Note_on_c, 0, 62, 40
3, 76240, Note_on_c, 0, 63, 30
3, 76250, Note_on_c, 0, 67, 34
3, 76253, Note_on_c, 0, 62, 0
3, 76267, Note_on_c, 0, 58, 0
3, 76300, Note_on_c, 0, 67, 0
3, 76309, Note_on_c, 0, 75, 0
3, 76313, Note_on_c, 0, 63, 0
3, 76404, Note_on_c, 0, 74, 55
3, 76411, Note_on_c, 0, 62, 30
3, 76412, Note_on_c, 0, 56, 26
3, 76414, Note_on_c, 0, 47, 34
3, 76418, Control_c, 0, 64, 0
3, 76467, Note_on_c, 0, 47, 0
3, 76469, Control_c, 0, 64, 127
3, 76489, Note_on_c, 0, 56, 0
3, 76580, Note_on_c, 0, 62, 0
3, 76590, Note_on_c, 0, 59, 34
3, 76737, Note_on_c, 0, 74, 0
3, 76768, Note_on_c, 0, 71, 35
3, 76775, Note_on_c, 0, 67, 28
3, 76778, Note_on_c, 0, 62, 26
3, 76792, Note_on_c, 0, 56, 20
3, 76825, Note_on_c, 0, 59, 0
3, 76930, Note_on_c, 0, 56, 0
3, 76938, Note_on_c, 0, 67, 0
3, 76942, Note_on_c, 0, 62, 0
3, 76963, Note_on_c, 0, 71, 0
3, 77126, Note_on_c, 0, 84, 75
3, 77128, Note_on_c, 0, 73, 64
3, 77129, Note_on_c, 0, 77, 71
3, 77130, Note_on_c, 0, 72, 71
3, 77133, Note_on_c, 0, 81, 63
3, 77134, Control_c, 0, 64, 0
3, 77158, Control_c, 0, 64, 127
3, 77183, Note_on_c, 0, 81, 0
3, 77184, Note_on_c, 0, 84, 0
3, 77195, Note_on_c, 0, 77, 0
3, 77199, Note_on_c, 0, 72, 0
3, 77224, Note_on_c, 0, 73, 0
3, 77313, Note_on_c, 0, 73, 37
3, 77313, Note_on_c, 0, 81, 57
3, 77316, Note_on_c, 0, 70, 50
3, 77318, Note_on_c, 0, 69, 52
3, 77327, Note_on_c, 0, 76, 43
3, 77332, Control_c, 0, 64, 0
3, 77342, Control_c, 0, 64, 127
3, 77364, Note_on_c, 0, 81, 0
3, 77372, Note_on_c, 0, 69, 0
3, 77381, Note_on_c, 0, 76, 0
3, 77388, Note_on_c, 0, 73, 0
3, 77401, Note_on_c, 0, 70, 0
3, 77497, Note_on_c, 0, 76, 51
3, 77501, Note_on_c, 0, 67, 41
3, 77503, Note_on_c, 0, 70, 40
3, 77503, Note_on_c, 0, 73, 29
3, 77504, Note_on_c, 0, 61, 35
3, 77523, Control_c, 0, 64, 0
3, 77536, Control_c, 0, 64, 127
3, 77587, Note_on_c, 0, 76, 0
3, 77592, Note_on_c, 0, 67, 0
3, 77602, Note_on_c, 0, 70, 0
3, 77604, Note_on_c, 0, 73, 0
3, 77676, Note_on_c, 0, 61, 0
3, 77680, Note_on_c, 0, 77, 58
3, 77686, Note_on_c, 0, 62, 48
3, 77687, Note_on_c, 0, 70, 35
3, 77689, Note_on_c, 0, 65, 34
3, 77692, Note_on_c, 0, 74, 32
3, 77693, Control_c, 0, 64, 0
3, 77731, Control_c, 0, 64, 127
3, 77754, Note_on_c, 0, 62, 0
3, 77769, Note_on_c, 0, 65, 0
3, 77771, Note_on_c, 0, 74, 0
3, 77777, Note_on_c, 0, 70, 0
3, 77788, Note_on_c, 0, 77, 0
3, 77877, Note_on_c, 0, 81, 52
3, 77883, Note_on_c, 0, 69, 43
3, 77884, Note_on_c, 0, 54, 31
3, 77887, Control_c, 0, 64, 0
3, 77889, Note_on_c, 0, 60, 35
3, 77889, Note_on_c, 0, 50, 30
3, 77891, Note_on_c, 0, 77, 30
3, 77894, Note_on_c, 0, 74, 27
3, 77925, Control_c, 0, 64, 127
3, 77956, Note_on_c, 0, 69, 0
3, 77959, Note_on_c, 0, 50, 0
3, 77961, Note_on_c, 0, 74, 0
3, 77963, Note_on_c, 0, 77, 0
3, 77970, Note_on_c, 0, 54, 0
3, 77977, Note_on_c, 0, 81, 0
3, 77985, Note_on_c, 0, 60, 0
3, 78109, Note_on_c, 0, 54, 32
3, 78111, Note_on_c, 0, 60, 44
3, 78111, Note_on_c, 0, 84, 37
3, 78114, Note_on_c, 0, 65, 32
3, 78116, Note_on_c, 0, 81, 35
3, 78117, Note_on_c, 0, 72, 20
3, 78118, Note_on_c, 0, 77, 28
3, 78126, Control_c, 0, 64, 0
3, 78174, Control_c, 0, 64, 127
3, 78250, Note_on_c, 0, 84, 0
3, 78260, Note_on_c, 0, 81, 0
3, 78266, Note_on_c, 0, 60, 0
3, 78270, Note_on_c, 0, 77, 0
3, 78274, Note_on_c, 0, 65, 0
3, 78280, Note_on_c, 0, 72, 0
3, 78300, Note_on_c, 0, 54, 0
3, 78475, Note_on_c, 0, 79, 38
3, 78480, Note_on_c, 0, 75, 27
3, 78480, Note_on_c, 0, 67, 30
3, 78481, Note_on_c, 0, 71, 47
3, 78485, Note_on_c, 0, 59, 28
3, 78490, Note_on_c, 0, 64, 22
3, 78490, Note_on_c, 0, 53, 28
3, 78494, Control_c, 0, 64, 0
3, 78549, Control_c, 0, 64, 127
3, 78589, Note_on_c, 0, 64, 0
3, 78595, Note_on_c, 0, 59, 0
3, 78609, Note_on_c, 0, 53, 0
3, 78692, Note_on_c, 0, 79, 0
3, 78706, Note_on_c, 0, 71, 0
3, 78708, Note_on_c, 0, 75, 0
3, 78710, Note_on_c, 0, 43, 49
3, 78725, Note_on_c, 0, 67, 0
3, 79073, Note_on_c, 0, 67, 45
3, 79191, Note_on_c, 0, 43, 0
3, 79199, Note_on_c, 0, 67, 0
3, 79332, Note_on_c, 0, 48, 30
3, 79336, Note_on_c, 0, 58, 32
3, 79338, Note_on_c, 0, 65, 40
3, 79338, Note_on_c, 0, 67, 33
3, 79340, Control_c, 0, 64, 0
3, 79345, Note_on_c, 0, 55, 35
3, 79354, Note_on_c, 0, 62, 24
3, 79398, Control_c, 0, 64, 127
3, 79419, Note_on_c, 0, 55, 0
3, 79431, Note_on_c, 0, 48, 0
3, 79647, Note_on_c, 0, 24, 43
3, 79682, Note_on_c, 0, 24, 0
3, 79715, Note_on_c, 0, 65, 0
3, 79717, Note_on_c, 0, 62, 0
3, 79726, Note_on_c, 0, 58, 0
3, 79737, Note_on_c, 0, 67, 0
3, 79961, Note_on_c, 0, 73, 68
3, 79965, Note_on_c, 0, 58, 74
3, 79966, Note_on_c, 0, 63, 79
3, 79968, Note_on_c, 0, 68, 74
3, 79988, Control_c, 0, 64, 0
3, 80036, Control_c, 0, 64, 127
3, 80138, Note_on_c, 0, 63, 0
3, 80142, Note_on_c, 0, 58, 0
3, 80156, Note_on_c, 0, 73, 0
3, 80159, Note_on_c, 0, 68, 0
3, 80206, Note_on_c, 0, 72, 68
3, 80209, Note_on_c, 0, 62, 73
3, 80209, Note_on_c, 0, 67, 74
3, 80214, Note_on_c, 0, 57, 68
3, 80223, Control_c, 0, 64, 0
3, 80274, Control_c, 0, 64, 127
3, 80297, Note_on_c, 0, 72, 0
3, 80300, Note_on_c, 0, 67, 0
3, 80337, Note_on_c, 0, 62, 0
3, 80394, Note_on_c, 0, 57, 0
3, 80409, Note_on_c, 0, 69, 64
3, 80413, Note_on_c, 0, 53, 51
3, 80414, Note_on_c, 0, 64, 63
3, 80417, Note_on_c, 0, 59, 38
3, 80419, Note_on_c, 0, 60, 40
3, 80424, Control_c, 0, 64, 0
3, 80469, Control_c, 0, 64, 127
3, 80475, Note_on_c, 0, 59, 0
3, 80494, Note_on_c, 0, 69, 0
3, 80502, Note_on_c, 0, 64, 0
3, 80513, Note_on_c, 0, 53, 0
3, 80518, Note_on_c, 0, 60, 0
3, 80626, Note_on_c, 0, 64, 49
3, 80627, Note_on_c, 0, 55, 56
3, 80627, Note_on_c, 0, 58, 53
3, 80628, Note_on_c, 0, 61, 48
3, 80633, Note_on_c, 0, 49, 36
3, 80646, Control_c, 0, 64, 0
3, 80694, Control_c, 0, 64, 127
3, 80732, Note_on_c, 0, 64, 0
3, 80734, Note_on_c, 0, 55, 0
3, 80754, Note_on_c, 0, 61, 0
3, 80756, Note_on_c, 0, 58, 0
3, 80826, Note_on_c, 0, 49, 0
3, 80838, Note_on_c, 0, 50, 47
3, 80839, Note_on_c, 0, 65, 48
3, 80842, Note_on_c, 0, 62, 48
3, 80843, Note_on_c, 0, 57, 38
3, 80844, Control_c, 0, 64, 0
3, 80846, Note_on_c, 0, 60, 51
3, 80891, Control_c, 0, 64, 127
3, 80910, Note_on_c, 0, 62, 0
3, 80914, Note_on_c, 0, 57, 0
3, 80917, Note_on_c, 0, 65, 0
3, 80928, Note_on_c, 0, 60, 0
3, 80987, Note_on_c, 0, 69, 61
3, 80991, Note_on_c, 0, 50, 0
3, 80991, Note_on_c, 0, 62, 55
3, 80992, Note_on_c, 0, 60, 48
3, 80993, Note_on_c, 0, 53, 50
3, 80994, Note_on_c, 0, 65, 47
3, 81014, Note_on_c, 0, 60, 0
3, 81017, Note_on_c, 0, 62, 0
3, 81019, Note_on_c, 0, 65, 0
3, 81030, Note_on_c, 0, 69, 0
3, 81103, Note_on_c, 0, 53, 0
3, 81125, Note_on_c, 0, 72, 53
3, 81127, Note_on_c, 0, 62, 55
3, 81127, Note_on_c, 0, 65, 60
3, 81130, Note_on_c, 0, 69, 57
3, 81136, Note_on_c, 0, 57, 31
3, 81166, Note_on_c, 0, 62, 0
3, 81174, Note_on_c, 0, 57, 0
3, 81176, Note_on_c, 0, 65, 0
3, 81184, Note_on_c, 0, 69, 0
3, 81187, Note_on_c, 0, 72, 0
3, 81283, Control_c, 0, 64, 0
3, 81284, Note_on_c, 0, 76, 68
3, 81285, Note_on_c, 0, 46, 49
3, 81286, Note_on_c, 0, 67, 64
3, 81288, Note_on_c, 0, 72, 46
3, 81348, Control_c, 0, 64, 127
3, 81443, Note_on_c, 0, 72, 0
3, 81450, Note_on_c, 0, 67, 0
3, 81459, Note_on_c, 0, 58, 30
3, 81467, Note_on_c, 0, 76, 0
3, 81523, Note_on_c, 0, 58, 0
3, 81609, Note_on_c, 0, 58, 36
3, 81612, Note_on_c, 0, 64, 45
3, 81613, Note_on_c, 0, 67, 45
3, 81648, Note_on_c, 0, 64, 0
3, 81651, Note_on_c, 0, 67, 0
3, 81692, Note_on_c, 0, 58, 0
3, 81693, Note_on_c, 0, 46, 0
3, 81785, Control_c, 0, 64, 0
3, 81789, Note_on_c, 0, 77, 68
3, 81790, Note_on_c, 0, 47, 45
3, 81839, Control_c, 0, 64, 127
3, 81942, Note_on_c, 0, 47, 0
3, 81985, Note_on_c, 0, 56, 27
3, 81987, Note_on_c, 0, 71, 43
3, 81987, Note_on_c, 0, 65, 36
3, 82050, Note_on_c, 0, 56, 0
3, 82078, Note_on_c, 0, 71, 0
3, 82091, Note_on_c, 0, 65, 0
3, 82216, Note_on_c, 0, 65, 40
3, 82222, Note_on_c, 0, 71, 32
3, 82224, Note_on_c, 0, 56, 21
3, 82263, Note_on_c, 0, 65, 0
3, 82297, Note_on_c, 0, 71, 0
3, 82303, Note_on_c, 0, 77, 0
3, 82319, Note_on_c, 0, 56, 0
3, 82465, Note_on_c, 0, 81, 66
3, 82469, Note_on_c, 0, 48, 37
3, 82470, Control_c, 0, 64, 0
3, 82473, Note_on_c, 0, 57, 30
3, 82474, Note_on_c, 0, 72, 57
3, 82518, Control_c, 0, 64, 127
3, 82603, Note_on_c, 0, 81, 0
3, 82604, Note_on_c, 0, 57, 0
3, 82625, Note_on_c, 0, 72, 0
3, 82739, Note_on_c, 0, 77, 38
3, 82747, Note_on_c, 0, 60, 31
3, 82747, Note_on_c, 0, 57, 34
3, 82748, Note_on_c, 0, 69, 37
3, 82803, Note_on_c, 0, 77, 0
3, 82826, Note_on_c, 0, 69, 0
3, 82847, Note_on_c, 0, 60, 0
3, 82859, Note_on_c, 0, 57, 0
3, 82981, Note_on_c, 0, 72, 32
3, 82983, Note_on_c, 0, 65, 44
3, 82987, Note_on_c, 0, 60, 20
3, 82993, Note_on_c, 0, 57, 24
3, 83032, Note_on_c, 0, 60, 0
3, 83038, Note_on_c, 0, 57, 0
3, 83087, Note_on_c, 0, 65, 0
3, 83133, Note_on_c, 0, 72, 0
3, 83186, Note_on_c, 0, 48, 0
3, 83266, Note_on_c, 0, 70, 36
3, 83269, Note_on_c, 0, 48, 41
3, 83271, Note_on_c, 0, 58, 31
3, 83272, Note_on_c, 0, 62, 22
3, 83273, Note_on_c, 0, 65, 36
3, 83288, Control_c, 0, 64, 0
3, 83343, Control_c, 0, 64, 127
3, 83447, Note_on_c, 0, 65, 0
3, 83469, Note_on_c, 0, 62, 0
3, 83480, Note_on_c, 0, 58, 0
3, 83583, Note_on_c, 0, 70, 0
3, 83604, Note_on_c, 0, 62, 24
3, 83605, Note_on_c, 0, 67, 24
3, 83607, Note_on_c, 0, 58, 27
3, 83838, Note_on_c, 0, 62, 0
3, 83891, Note_on_c, 0, 58, 0
3, 83908, Note_on_c, 0, 48, 0
3, 84179, Note_on_c, 0, 64, 29
3, 84244, Note_on_c, 0, 67, 0
3, 84423, Note_on_c, 0, 64, 0
3, 84581, Note_on_c, 0, 46, 25
3, 84582, Note_on_c, 0, 65, 43
3, 84598, Control_c, 0, 64, 0
3, 84656, Control_c, 0, 64, 127
3, 84763, Note_on_c, 0, 53, 26
3, 84767, Note_on_c, 0, 57, 35
3, 84771, Note_on_c, 0, 62, 17
3, 84772, Note_on_c, 0, 58, 29
3, 84837, Note_on_c, 0, 57, 0
3, 84843, Note_on_c, 0, 62, 0
3, 84851, Note_on_c, 0, 58, 0
3, 84957, Note_on_c, 0, 57, 27
3, 84961, Note_on_c, 0, 58, 19
3, 84962, Note_on_c, 0, 62, 20
3, 84987, Note_on_c, 0, 53, 0
3, 85056, Note_on_c, 0, 62, 0
3, 85059, Note_on_c, 0, 46, 0
3, 85105, Note_on_c, 0, 65, 0
3, 85136, Note_on_c, 0, 57, 0
3, 85138, Note_on_c, 0, 63, 36
3, 85138, Note_on_c, 0, 44, 37
3, 85149, Note_on_c, 0, 58, 0
3, 85153, Control_c, 0, 64, 0
3, 85235, Control_c, 0, 64, 127
3, 85317, Control_c, 0, 64, 0
3, 85318, Note_on_c, 0, 51, 30
3, 85319, Note_on_c, 0, 60, 50
3, 85344, Control_c, 0, 64, 127
3, 85386, Note_on_c, 0, 55, 1
3, 85427, Note_on_c, 0, 60, 0
3, 85448, Note_on_c, 0, 55, 0
3, 85505, Note_on_c, 0, 55, 32
3, 85509, Note_on_c, 0, 60, 49
3, 85511, Note_on_c, 0, 63, 0
3, 85542, Note_on_c, 0, 44, 0
3, 85561, Note_on_c, 0, 60, 0
3, 85562, Note_on_c, 0, 55, 0
3, 85583, Note_on_c, 0, 51, 0
3, 85694, Note_on_c, 0, 58, 49
3, 85694, Note_on_c, 0, 65, 53
3, 85695, Note_on_c, 0, 62, 40
3, 85697, Note_on_c, 0, 46, 38
3, 85699, Control_c, 0, 64, 0
3, 85699, Note_on_c, 0, 57, 35
3, 85743, Control_c, 0, 64, 127
3, 85774, Note_on_c, 0, 62, 0
3, 85775, Note_on_c, 0, 65, 0
3, 85783, Note_on_c, 0, 58, 0
3, 85807, Note_on_c, 0, 57, 0
3, 85899, Note_on_c, 0, 70, 62
3, 85905, Note_on_c, 0, 55, 19
3, 85941, Note_on_c, 0, 55, 0
3, 85952, Note_on_c, 0, 70, 0
3, 86030, Note_on_c, 0, 46, 0
3, 86108, Note_on_c, 0, 62, 36
3, 86108, Note_on_c, 0, 65, 36
3, 86111, Note_on_c, 0, 46, 32
3, 86111, Note_on_c, 0, 58, 33
3, 86116, Note_on_c, 0, 57, 17
3, 86184, Note_on_c, 0, 62, 0
3, 86197, Note_on_c, 0, 58, 0
3, 86198, Note_on_c, 0, 46, 0
3, 86199, Note_on_c, 0, 65, 0
3, 86209, Note_on_c, 0, 57, 0
3, 86350, Note_on_c, 0, 63, 33
3, 86359, Note_on_c, 0, 44, 28
3, 86359, Note_on_c, 0, 60, 36
3, 86363, Note_on_c, 0, 51, 25
3, 86366, Note_on_c, 0, 55, 27
3, 86367, Note_on_c, 0, 58, 25
3, 86372, Control_c, 0, 64, 0
3, 86463, Control_c, 0, 64, 127
3, 86548, Note_on_c, 0, 63, 0
3, 86671, Note_on_c, 0, 55, 0
3, 86695, Note_on_c, 0, 58, 0
3, 86776, Note_on_c, 0, 60, 0
3, 86792, Note_on_c, 0, 58, 31
3, 86802, Note_on_c, 0, 55, 17
3, 86834, Note_on_c, 0, 44, 0
3, 86940, Note_on_c, 0, 55, 0
3, 86956, Note_on_c, 0, 51, 0
3, 86961, Note_on_c, 0, 58, 0
3, 86968, Note_on_c, 0, 46, 51
3, 86973, Note_on_c, 0, 65, 62
3, 86985, Control_c, 0, 64, 0
3, 87040, Control_c, 0, 64, 127
3, 87135, Note_on_c, 0, 58, 44
3, 87139, Note_on_c, 0, 62, 54
3, 87141, Note_on_c, 0, 53, 27
3, 87187, Note_on_c, 0, 53, 0
3, 87189, Note_on_c, 0, 62, 0
3, 87218, Note_on_c, 0, 58, 0
3, 87305, Note_on_c, 0, 53, 36
3, 87308, Note_on_c, 0, 62, 45
3, 87318, Note_on_c, 0, 58, 25
3, 87350, Note_on_c, 0, 62, 0
3, 87356, Note_on_c, 0, 58, 0
3, 87366, Note_on_c, 0, 65, 0
3, 87378, Note_on_c, 0, 53, 0
3, 87433, Note_on_c, 0, 46, 0
3, 87484, Note_on_c, 0, 44, 59
3, 87484, Note_on_c, 0, 63, 74
3, 87503, Control_c, 0, 64, 0
3, 87558, Control_c, 0, 64, 127
3, 87659, Note_on_c, 0, 51, 37
3, 87665, Note_on_c, 0, 58, 38
3, 87668, Note_on_c, 0, 55, 45
3, 87710, Note_on_c, 0, 55, 0
3, 87725, Note_on_c, 0, 58, 0
3, 87727, Note_on_c, 0, 51, 0
3, 87839, Note_on_c, 0, 51, 32
3, 87841, Note_on_c, 0, 58, 39
3, 87845, Note_on_c, 0, 55, 38
3, 87888, Note_on_c, 0, 55, 0
3, 87900, Note_on_c, 0, 44, 0
3, 87927, Note_on_c, 0, 63, 0
3, 87935, Note_on_c, 0, 51, 0
3, 87957, Note_on_c, 0, 58, 0
3, 88039, Control_c, 0, 64, 0
3, 88043, Note_on_c, 0, 65, 60
3, 88045, Note_on_c, 0, 58, 62
3, 88045, Note_on_c, 0, 46, 50
3, 88047, Note_on_c, 0, 62, 57
3, 88050, Note_on_c, 0, 57, 62
3, 88080, Control_c, 0, 64, 127
3, 88115, Note_on_c, 0, 57, 0
3, 88119, Note_on_c, 0, 62, 0
3, 88127, Note_on_c, 0, 58, 0
3, 88128, Note_on_c, 0, 65, 0
3, 88261, Note_on_c, 0, 70, 71
3, 88309, Note_on_c, 0, 70, 0
3, 88405, Note_on_c, 0, 46, 0
3, 88510, Note_on_c, 0, 65, 49
3, 88511, Note_on_c, 0, 46, 29
3, 88606, Note_on_c, 0, 46, 0
3, 88763, Note_on_c, 0, 65, 0
3, 88890, Note_on_c, 0, 63, 46
3, 88898, Note_on_c, 0, 44, 27
3, 88898, Note_on_c, 0, 32, 35
3, 88901, Note_on_c, 0, 53, 27
3, 88904, Note_on_c, 0, 58, 33
3, 88932, Control_c, 0, 64, 0
3, 90050, Note_on_c, 0, 53, 0
3, 90054, Note_on_c, 0, 58, 0
3, 90055, Note_on_c, 0, 63, 0
3, 90066, Note_on_c, 0, 32, 0
3, 90076, Note_on_c, 0, 44, 0
3, 90076, End_track
4, 0, Start_track
4, 0, Title_t, "Acoustic Bass"
4, 0, Program_c, 1, 32
4, 0, Control_c, 1, 7, 121
4, 34559, Note_on_c, 1, 36, 65
4, 34678, Note_on_c, 1, 48, 54
4, 34726, Note_on_c, 1, 48, 0
4, 34739, Note_on_c, 1, 48, 50
4, 34782, Note_on_c, 1, 36, 0
4, 34921, Note_on_c, 1, 36, 62
4, 34925, Note_on_c, 1, 48, 0
4, 34973, Note_on_c, 1, 36, 0
4, 34992, Note_on_c, 1, 36, 75
4, 35102, Note_on_c, 1, 46, 100
4, 35216, Note_on_c, 1, 36, 0
4, 35235, Note_on_c, 1, 36, 81
4, 35257, Note_on_c, 1, 36, 0
4, 35292, Note_on_c, 1, 36, 84
4, 35305, Note_on_c, 1, 46, 0
4, 35409, Note_on_c, 1, 46, 89
4, 35428, Note_on_c, 1, 36, 0
4, 35462, Note_on_c, 1, 36, 74
4, 35496, Note_on_c, 1, 46, 0
4, 35501, Note_on_c, 1, 36, 0
4, 35528, Note_on_c, 1, 36, 76
4, 35641, Note_on_c, 1, 48, 109
4, 35743, Note_on_c, 1, 36, 0
4, 35827, Note_on_c, 1, 36, 96
4, 35836, Note_on_c, 1, 48, 0
4, 36188, Note_on_c, 1, 48, 89
4, 36200, Note_on_c, 1, 48, 0
4, 36245, Note_on_c, 1, 36, 0
4, 36253, Note_on_c, 1, 48, 106
4, 36372, Note_on_c, 1, 36, 44
4, 36384, Note_on_c, 1, 36, 0
4, 36433, Note_on_c, 1, 36, 106
4, 36440, Note_on_c, 1, 48, 0
4, 36659, Note_on_c, 1, 48, 104
4, 36669, Note_on_c, 1, 36, 0
4, 36724, Note_on_c, 1, 48, 0
4, 36727, Note_on_c, 1, 46, 74
4, 36952, Note_on_c, 1, 46, 0
4, 36966, Note_on_c, 1, 45, 63
4, 37031, Note_on_c, 1, 45, 0
4, 37033, Note_on_c, 1, 33, 66
4, 37045, Note_on_c, 1, 33, 0
4, 37094, Note_on_c, 1, 33, 63
4, 37122, Note_on_c, 1, 33, 0
4, 37150, Note_on_c, 1, 33, 54
4, 37182, Note_on_c, 1, 33, 0
4, 37204, Note_on_c, 1, 32, 78
4, 37388, Note_on_c, 1, 44, 66
4, 37427, Note_on_c, 1, 44, 0
4, 37447, Note_on_c, 1, 43, 78
4, 37448, Note_on_c, 1, 32, 0
4, 37470, Note_on_c, 1, 43, 0
4, 37508, Note_on_c, 1, 38, 92
4, 37680, Note_on_c, 1, 38, 0
4, 37680, Note_on_c, 1, 45, 88
4, 37742, Note_on_c, 1, 45, 0
4, 37744, Note_on_c, 1, 38, 52
4, 37773, Note_on_c, 1, 38, 0
4, 37800, Note_on_c, 1, 43, 70
4, 37913, Note_on_c, 1, 43, 0
4, 37923, Note_on_c, 1, 31, 80
4, 38105, Note_on_c, 1, 38, 79
4, 38114, Note_on_c, 1, 31, 0
4, 38134, Note_on_c, 1, 38, 0
4, 38163, Note_on_c, 1, 36, 75
4, 38285, Note_on_c, 1, 36, 0
4, 38286, Note_on_c, 1, 50, 100
4, 38347, Note_on_c, 1, 36, 59
4, 38363, Note_on_c, 1, 36, 0
4, 38381, Note_on_c, 1, 50, 0
4, 38407, Note_on_c, 1, 48, 89
4, 38586, Note_on_c, 1, 36, 50
4, 38607, Note_on_c, 1, 36, 0
4, 38645, Note_on_c, 1, 48, 0
4, 38647, Note_on_c, 1, 36, 63
4, 38758, Note_on_c, 1, 46, 80
4, 38894, Note_on_c, 1, 36, 0
4, 38940, Note_on_c, 1, 36, 89
4, 38941, Note_on_c, 1, 46, 0
4, 39124, Note_on_c, 1, 50, 105
4, 39137, Note_on_c, 1, 36, 0
4, 39182, Note_on_c, 1, 36, 48
4, 39196, Note_on_c, 1, 50, 0
4, 39215, Note_on_c, 1, 36, 0
4, 39244, Note_on_c, 1, 48, 89
4, 39304, Note_on_c, 1, 36, 80
4, 39307, Note_on_c, 1, 48, 0
4, 39361, Note_on_c, 1, 46, 79
4, 39433, Note_on_c, 1, 46, 0
4, 39482, Note_on_c, 1, 48, 104
4, 39511, Note_on_c, 1, 36, 0
4, 39563, Note_on_c, 1, 36, 100
4, 39585, Note_on_c, 1, 48, 0
4, 39666, Note_on_c, 1, 36, 0
4, 39681, Note_on_c, 1, 36, 96
4, 39872, Note_on_c, 1, 36, 0
4, 39907, Note_on_c, 1, 36, 76
4, 39970, Note_on_c, 1, 48, 63
4, 39980, Note_on_c, 1, 48, 0
4, 40032, Note_on_c, 1, 48, 87
4, 40041, Note_on_c, 1, 48, 0
4, 40088, Note_on_c, 1, 48, 114
4, 40124, Note_on_c, 1, 36, 0
4, 40208, Note_on_c, 1, 36, 44
4, 40228, Note_on_c, 1, 36, 0
4, 40328, Note_on_c, 1, 36, 100
4, 40335, Note_on_c, 1, 48, 0
4, 40495, Note_on_c, 1, 36, 0
4, 40511, Note_on_c, 1, 36, 65
4, 40544, Note_on_c, 1, 36, 0
4, 40574, Note_on_c, 1, 34, 96
4, 40723, Note_on_c, 1, 34, 0
4, 40750, Note_on_c, 1, 34, 71
4, 40797, Note_on_c, 1, 34, 0
4, 40813, Note_on_c, 1, 33, 76
4, 40989, Note_on_c, 1, 45, 92
4, 41034, Note_on_c, 1, 33, 0
4, 41043, Note_on_c, 1, 45, 0
4, 41051, Note_on_c, 1, 44, 87
4, 41236, Note_on_c, 1, 32, 36
4, 41249, Note_on_c, 1, 32, 0
4, 41289, Note_on_c, 1, 44, 0
4, 41290, Note_on_c, 1, 31, 71
4, 41477, Note_on_c, 1, 43, 113
4, 41501, Note_on_c, 1, 31, 0
4, 41598, Note_on_c, 1, 34, 65
4, 41617, Note_on_c, 1, 43, 0
4, 41627, Note_on_c, 1, 34, 0
4, 41657, Note_on_c, 1, 35, 58
4, 41760, Note_on_c, 1, 35, 0
4, 41772, Note_on_c, 1, 36, 74
4, 41870, Note_on_c, 1, 34, 29
4, 41879, Note_on_c, 1, 36, 0
4, 41891, Note_on_c, 1, 50, 109
4, 41903, Note_on_c, 1, 34, 0
4, 42071, Note_on_c, 1, 48, 85
4, 42079, Note_on_c, 1, 50, 0
4, 42187, Note_on_c, 1, 48, 0
4, 42192, Note_on_c, 1, 47, 52
4, 42232, Note_on_c, 1, 47, 0
4, 42246, Note_on_c, 1, 48, 63
4, 42267, Note_on_c, 1, 48, 0
4, 42308, Note_on_c, 1, 43, 62
4, 42332, Note_on_c, 1, 43, 0
4, 42366, Note_on_c, 1, 42, 66
4, 42471, Note_on_c, 1, 42, 0
4, 42484, Note_on_c, 1, 41, 63
4, 42666, Note_on_c, 1, 33, 50
4, 42670, Note_on_c, 1, 41, 0
4, 42703, Note_on_c, 1, 33, 0
4, 42725, Note_on_c, 1, 34, 58
4, 42911, Note_on_c, 1, 43, 32
4, 42920, Note_on_c, 1, 43, 0
4, 42973, Note_on_c, 1, 43, 97
4, 43031, Note_on_c, 1, 34, 0
4, 43150, Note_on_c, 1, 36, 88
4, 43195, Note_on_c, 1, 36, 0
4, 43205, Note_on_c, 1, 43, 0
4, 43209, Note_on_c, 1, 36, 96
4, 43383, Note_on_c, 1, 48, 107
4, 43388, Note_on_c, 1, 36, 0
4, 43424, Note_on_c, 1, 48, 0
4, 43441, Note_on_c, 1, 41, 97
4, 43551, Note_on_c, 1, 41, 0
4, 43557, Note_on_c, 1, 33, 67
4, 43663, Note_on_c, 1, 33, 0
4, 43680, Note_on_c, 1, 34, 74
4, 43872, Note_on_c, 1, 41, 92
4, 43891, Note_on_c, 1, 34, 0
4, 44053, Note_on_c, 1, 45, 110
4, 44075, Note_on_c, 1, 41, 0
4, 44226, Note_on_c, 1, 45, 0
4, 44232, Note_on_c, 1, 43, 105
4, 44398, Note_on_c, 1, 43, 0
4, 44406, Note_on_c, 1, 38, 70
4, 44509, Note_on_c, 1, 38, 0
4, 44521, Note_on_c, 1, 35, 71
4, 44624, Note_on_c, 1, 35, 0
4, 44643, Note_on_c, 1, 36, 74
4, 44830, Note_on_c, 1, 36, 0
4, 44831, Note_on_c, 1, 45, 107
4, 45010, Note_on_c, 1, 38, 105
4, 45014, Note_on_c, 1, 45, 0
4, 45253, Note_on_c, 1, 43, 113
4, 45302, Note_on_c, 1, 38, 0
4, 45403, Note_on_c, 1, 43, 0
4, 45429, Note_on_c, 1, 43, 104
4, 45481, Note_on_c, 1, 31, 84
4, 45487, Note_on_c, 1, 43, 0
4, 45584, Note_on_c, 1, 31, 0
4, 45600, Note_on_c, 1, 31, 98
4, 45783, Note_on_c, 1, 31, 0
4, 45791, Note_on_c, 1, 43, 89
4, 45852, Note_on_c, 1, 36, 78
4, 45857, Note_on_c, 1, 43, 0
4, 45892, Note_on_c, 1, 36, 0
4, 45911, Note_on_c, 1, 36, 84
4, 45961, Note_on_c, 1, 40, 96
4, 45979, Note_on_c, 1, 36, 0
4, 46057, Note_on_c, 1, 40, 0
4, 46083, Note_on_c, 1, 41, 96
4, 46257, Note_on_c, 1, 41, 0
4, 46264, Note_on_c, 1, 36, 58
4, 46326, Note_on_c, 1, 46, 80
4, 46413, Note_on_c, 1, 46, 0
4, 46447, Note_on_c, 1, 46, 74
4, 46452, Note_on_c, 1, 36, 0
4, 46628, Note_on_c, 1, 46, 0
4, 46632, Note_on_c, 1, 36, 74
4, 46750, Note_on_c, 1, 48, 122
4, 46776, Note_on_c, 1, 36, 0
4, 46867, Note_on_c, 1, 36, 61
4, 46878, Note_on_c, 1, 48, 0
4, 46899, Note_on_c, 1, 36, 0
4, 46928, Note_on_c, 1, 46, 76
4, 46980, Note_on_c, 1, 46, 0
4, 46987, Note_on_c, 1, 36, 71
4, 47016, Note_on_c, 1, 36, 0
4, 47048, Note_on_c, 1, 36, 92
4, 47162, Note_on_c, 1, 48, 113
4, 47283, Note_on_c, 1, 36, 0
4, 47348, Note_on_c, 1, 36, 83
4, 47367, Note_on_c, 1, 48, 0
4, 47586, Note_on_c, 1, 48, 101
4, 47627, Note_on_c, 1, 36, 0
4, 47707, Note_on_c, 1, 36, 68
4, 47735, Note_on_c, 1, 48, 0
4, 47760, Note_on_c, 1, 36, 0
4, 47771, Note_on_c, 1, 46, 59
4, 47825, Note_on_c, 1, 46, 0
4, 47830, Note_on_c, 1, 36, 40
4, 47851, Note_on_c, 1, 36, 0
4, 47881, Note_on_c, 1, 47, 79
4, 47941, Note_on_c, 1, 47, 0
4, 48005, Note_on_c, 1, 48, 101
4, 48239, Note_on_c, 1, 48, 0
4, 48246, Note_on_c, 1, 46, 71
4, 48319, Note_on_c, 1, 46, 0
4, 48321, Note_on_c, 1, 34, 74
4, 48467, Note_on_c, 1, 34, 0
4, 48484, Note_on_c, 1, 33, 68
4, 48589, Note_on_c, 1, 33, 0
4, 48604, Note_on_c, 1, 45, 93
4, 48670, Note_on_c, 1, 45, 0
4, 48673, Note_on_c, 1, 33, 52
4, 48688, Note_on_c, 1, 33, 0
4, 48726, Note_on_c, 1, 44, 87
4, 48908, Note_on_c, 1, 44, 0
4, 48911, Note_on_c, 1, 42, 58
4, 48957, Note_on_c, 1, 42, 0
4, 48966, Note_on_c, 1, 43, 66
4, 48991, Note_on_c, 1, 43, 0
4, 49083, Note_on_c, 1, 31, 75
4, 49196, Note_on_c, 1, 31, 0
4, 49207, Note_on_c, 1, 33, 85
4, 49223, Note_on_c, 1, 31, 28
4, 49232, Note_on_c, 1, 31, 0
4, 49435, Note_on_c, 1, 33, 0
4, 49447, Note_on_c, 1, 34, 88
4, 49688, Note_on_c, 1, 34, 0
4, 49692, Note_on_c, 1, 35, 104
4, 49879, Note_on_c, 1, 34, 39
4, 49914, Note_on_c, 1, 35, 0
4, 49919, Note_on_c, 1, 34, 0
4, 49924, Note_on_c, 1, 36, 84
4, 49990, Note_on_c, 1, 50, 78
4, 50022, Note_on_c, 1, 50, 0
4, 50048, Note_on_c, 1, 48, 72
4, 50133, Note_on_c, 1, 48, 0
4, 50161, Note_on_c, 1, 48, 72
4, 50285, Note_on_c, 1, 36, 0
4, 50349, Note_on_c, 1, 36, 66
4, 50366, Note_on_c, 1, 36, 0
4, 50409, Note_on_c, 1, 36, 65
4, 50487, Note_on_c, 1, 48, 0
4, 50586, Note_on_c, 1, 46, 58
4, 50647, Note_on_c, 1, 36, 0
4, 50832, Note_on_c, 1, 36, 50
4, 50852, Note_on_c, 1, 36, 0
4, 50890, Note_on_c, 1, 36, 48
4, 50896, Note_on_c, 1, 46, 0
4, 51008, Note_on_c, 1, 48, 44
4, 51130, Note_on_c, 1, 36, 0
4, 51190, Note_on_c, 1, 36, 39
4, 51236, Note_on_c, 1, 36, 0
4, 51305, Note_on_c, 1, 36, 35
4, 51334, Note_on_c, 1, 48, 0
4, 51365, Note_on_c, 1, 46, 32
4, 51421, Note_on_c, 1, 46, 0
4, 51487, Note_on_c, 1, 46, 28
4, 51600, Note_on_c, 1, 36, 0
4, 51603, Note_on_c, 1, 39, 24
4, 51612, Note_on_c, 1, 46, 0
4, 51641, Note_on_c, 1, 39, 0
4, 51666, Note_on_c, 1, 39, 22
4, 51716, Note_on_c, 1, 39, 0
4, 51724, Note_on_c, 1, 40, 20
4, 51778, Note_on_c, 1, 40, 0
4, 51778, End_track
5, 0, Start_track
5, 0, Title_t, "Percussion (triangles and clave)"
5, 0, Control_c, 9, 7, 100
5, 0, Note_on_c, 9, 81, 82
5, 6, Note_on_c, 9, 76, 66
5, 33, Note_on_c, 9, 76, 0
5, 35, Note_on_c, 9, 81, 0
5, 60, Note_on_c, 9, 80, 57
5, 85, Note_on_c, 9, 80, 0
5, 120, Note_on_c, 9, 80, 51
5, 148, Note_on_c, 9, 80, 0
5, 180, Note_on_c, 9, 81, 69
5, 186, Note_on_c, 9, 76, 62
5, 217, Note_on_c, 9, 76, 0
5, 219, Note_on_c, 9, 81, 0
5, 240, Note_on_c, 9, 80, 61
5, 265, Note_on_c, 9, 80, 0
5, 300, Note_on_c, 9, 80, 55
5, 330, Note_on_c, 9, 80, 0
5, 360, Note_on_c, 9, 81, 70
5, 361, Note_on_c, 9, 76, 65
5, 387, Note_on_c, 9, 76, 0
5, 401, Note_on_c, 9, 81, 0
5, 420, Note_on_c, 9, 80, 55
5, 443, Note_on_c, 9, 80, 0
5, 480, Note_on_c, 9, 81, 75
5, 530, Note_on_c, 9, 81, 0
5, 540, Note_on_c, 9, 80, 53
5, 564, Note_on_c, 9, 80, 0
5, 600, Note_on_c, 9, 80, 48
5, 604, Note_on_c, 9, 76, 60
5, 636, Note_on_c, 9, 76, 0
5, 642, Note_on_c, 9, 80, 0
5, 660, Note_on_c, 9, 81, 67
5, 720, Note_on_c, 9, 80, 57
5, 721, Note_on_c, 9, 81, 0
5, 724, Note_on_c, 9, 76, 61
5, 752, Note_on_c, 9, 80, 0
5, 756, Note_on_c, 9, 76, 0
5, 780, Note_on_c, 9, 81, 69
5, 819, Note_on_c, 9, 81, 0
5, 840, Note_on_c, 9, 81, 80
5, 840, Note_on_c, 9, 81, 70
5, 866, Note_on_c, 9, 81, 0
5, 893, Note_on_c, 9, 81, 0
5, 900, Note_on_c, 9, 80, 74
5, 900, Note_on_c, 9, 80, 43
5, 913, Note_on_c, 9, 80, 0
5, 922, Note_on_c, 9, 80, 0
5, 960, Note_on_c, 9, 81, 67
5, 975, Note_on_c, 9, 76, 64
5, 1002, Note_on_c, 9, 76, 0
5, 1002, Note_on_c, 9, 81, 0
5, 1020, Note_on_c, 9, 80, 55
5, 1044, Note_on_c, 9, 80, 0
5, 1080, Note_on_c, 9, 80, 48
5, 1108, Note_on_c, 9, 80, 0
5, 1140, Note_on_c, 9, 81, 62
5, 1148, Note_on_c, 9, 76, 61
5, 1177, Note_on_c, 9, 76, 0
5, 1178, Note_on_c, 9, 81, 0
5, 1200, Note_on_c, 9, 80, 40
5, 1223, Note_on_c, 9, 80, 0
5, 1260, Note_on_c, 9, 80, 47
5, 1287, Note_on_c, 9, 80, 0
5, 1320, Note_on_c, 9, 81, 67
5, 1328, Note_on_c, 9, 76, 63
5, 1355, Note_on_c, 9, 76, 0
5, 1375, Note_on_c, 9, 81, 0
5, 1380, Note_on_c, 9, 80, 47
5, 1403, Note_on_c, 9, 80, 0
5, 1440, Note_on_c, 9, 80, 35
5, 1470, Note_on_c, 9, 80, 0
5, 1500, Note_on_c, 9, 81, 70
5, 1538, Note_on_c, 9, 81, 0
5, 1560, Note_on_c, 9, 80, 32
5, 1567, Note_on_c, 9, 76, 64
5, 1576, Note_on_c, 9, 80, 0
5, 1597, Note_on_c, 9, 76, 0
5, 1620, Note_on_c, 9, 80, 45
5, 1641, Note_on_c, 9, 80, 0
5, 1680, Note_on_c, 9, 81, 64
5, 1689, Note_on_c, 9, 76, 64
5, 1720, Note_on_c, 9, 81, 0
5, 1722, Note_on_c, 9, 76, 0
5, 1740, Note_on_c, 9, 80, 40
5, 1764, Note_on_c, 9, 80, 0
5, 1800, Note_on_c, 9, 80, 37
5, 1826, Note_on_c, 9, 80, 0
5, 1860, Note_on_c, 9, 81, 67
5, 1900, Note_on_c, 9, 81, 0
5, 1920, Note_on_c, 9, 80, 26
5, 1930, Note_on_c, 9, 76, 68
5, 1938, Note_on_c, 9, 80, 0
5, 1959, Note_on_c, 9, 76, 0
5, 1980, Note_on_c, 9, 81, 67
5, 2020, Note_on_c, 9, 81, 0
5, 2040, Note_on_c, 9, 80, 28
5, 2061, Note_on_c, 9, 80, 0
5, 2100, Note_on_c, 9, 80, 39
5, 2109, Note_on_c, 9, 76, 64
5, 2125, Note_on_c, 9, 80, 0
5, 2139, Note_on_c, 9, 76, 0
5, 2160, Note_on_c, 9, 80, 50
5, 2187, Note_on_c, 9, 80, 0
5, 2220, Note_on_c, 9, 80, 47
5, 2239, Note_on_c, 9, 80, 0
5, 2280, Note_on_c, 9, 80, 44
5, 2288, Note_on_c, 9, 76, 64
5, 2297, Note_on_c, 9, 80, 0
5, 2315, Note_on_c, 9, 76, 0
5, 2340, Note_on_c, 9, 81, 74
5, 2382, Note_on_c, 9, 81, 0
5, 2400, Note_on_c, 9, 80, 44
5, 2422, Note_on_c, 9, 80, 0
5, 2460, Note_on_c, 9, 81, 63
5, 2494, Note_on_c, 9, 81, 0
5, 2520, Note_on_c, 9, 80, 33
5, 2525, Note_on_c, 9, 76, 64
5, 2539, Note_on_c, 9, 80, 0
5, 2559, Note_on_c, 9, 76, 0
5, 2580, Note_on_c, 9, 80, 38
5, 2597, Note_on_c, 9, 80, 0
5, 2640, Note_on_c, 9, 81, 62
5, 2649, Note_on_c, 9, 76, 66
5, 2668, Note_on_c, 9, 81, 0
5, 2684, Note_on_c, 9, 76, 0
5, 2700, Note_on_c, 9, 80, 47
5, 2719, Note_on_c, 9, 80, 0
5, 2760, Note_on_c, 9, 81, 58
5, 2787, Note_on_c, 9, 81, 0
5, 2820, Note_on_c, 9, 81, 57
5, 2846, Note_on_c, 9, 81, 0
5, 2880, Note_on_c, 9, 81, 62
5, 2884, Note_on_c, 9, 76, 66
5, 2912, Note_on_c, 9, 76, 0
5, 2929, Note_on_c, 9, 81, 0
5, 2940, Note_on_c, 9, 80, 35
5, 2963, Note_on_c, 9, 80, 0
5, 3000, Note_on_c, 9, 80, 51
5, 3024, Note_on_c, 9, 80, 0
5, 3060, Note_on_c, 9, 81, 68
5, 3071, Note_on_c, 9, 76, 64
5, 3098, Note_on_c, 9, 81, 0
5, 3102, Note_on_c, 9, 76, 0
5, 3120, Note_on_c, 9, 80, 34
5, 3142, Note_on_c, 9, 80, 0
5, 3180, Note_on_c, 9, 80, 37
5, 3204, Note_on_c, 9, 80, 0
5, 3240, Note_on_c, 9, 81, 56
5, 3247, Note_on_c, 9, 76, 66
5, 3275, Note_on_c, 9, 76, 0
5, 3283, Note_on_c, 9, 81, 0
5, 3300, Note_on_c, 9, 80, 20
5, 3323, Note_on_c, 9, 80, 0
5, 3360, Note_on_c, 9, 80, 34
5, 3404, Note_on_c, 9, 80, 0
5, 3420, Note_on_c, 9, 81, 53
5, 3466, Note_on_c, 9, 81, 0
5, 3480, Note_on_c, 9, 80, 31
5, 3486, Note_on_c, 9, 76, 66
5, 3501, Note_on_c, 9, 80, 0
5, 3520, Note_on_c, 9, 76, 0
5, 3540, Note_on_c, 9, 80, 25
5, 3566, Note_on_c, 9, 80, 0
5, 3600, Note_on_c, 9, 81, 52
5, 3647, Note_on_c, 9, 81, 0
5, 3660, Note_on_c, 9, 80, 27
5, 3671, Note_on_c, 9, 76, 65
5, 3680, Note_on_c, 9, 80, 0
5, 3702, Note_on_c, 9, 76, 0
5, 3720, Note_on_c, 9, 81, 52
5, 3750, Note_on_c, 9, 81, 0
5, 3780, Note_on_c, 9, 81, 51
5, 3816, Note_on_c, 9, 81, 0
5, 3840, Note_on_c, 9, 80, 30
5, 3847, Note_on_c, 9, 76, 66
5, 3866, Note_on_c, 9, 80, 0
5, 3876, Note_on_c, 9, 76, 0
5, 3900, Note_on_c, 9, 81, 58
5, 3937, Note_on_c, 9, 81, 0
5, 4031, Note_on_c, 9, 76, 62
5, 4062, Note_on_c, 9, 76, 0
5, 4080, Note_on_c, 9, 81, 58
5, 4134, Note_on_c, 9, 81, 0
5, 4200, Note_on_c, 9, 80, 27
5, 4207, Note_on_c, 9, 76, 65
5, 4212, Note_on_c, 9, 80, 0
5, 4236, Note_on_c, 9, 76, 0
5, 4260, Note_on_c, 9, 81, 68
5, 4295, Note_on_c, 9, 81, 0
5, 4320, Note_on_c, 9, 80, 23
5, 4339, Note_on_c, 9, 80, 0
5, 4380, Note_on_c, 9, 80, 46
5, 4405, Note_on_c, 9, 80, 0
5, 4440, Note_on_c, 9, 81, 62
5, 4449, Note_on_c, 9, 76, 66
5, 4478, Note_on_c, 9, 76, 0
5, 4486, Note_on_c, 9, 81, 0
5, 4500, Note_on_c, 9, 80, 32
5, 4518, Note_on_c, 9, 80, 0
5, 4560, Note_on_c, 9, 80, 35
5, 4567, Note_on_c, 9, 76, 61
5, 4590, Note_on_c, 9, 80, 0
5, 4600, Note_on_c, 9, 76, 0
5, 4620, Note_on_c, 9, 81, 65
5, 4658, Note_on_c, 9, 81, 0
5, 4680, Note_on_c, 9, 80, 33
5, 4706, Note_on_c, 9, 80, 0
5, 4740, Note_on_c, 9, 80, 51
5, 4764, Note_on_c, 9, 80, 0
5, 4800, Note_on_c, 9, 81, 71
5, 4807, Note_on_c, 9, 76, 65
5, 4836, Note_on_c, 9, 76, 0
5, 4842, Note_on_c, 9, 81, 0
5, 4860, Note_on_c, 9, 80, 43
5, 4885, Note_on_c, 9, 80, 0
5, 4920, Note_on_c, 9, 80, 46
5, 4943, Note_on_c, 9, 80, 0
5, 4980, Note_on_c, 9, 81, 68
5, 4987, Note_on_c, 9, 76, 60
5, 5016, Note_on_c, 9, 81, 0
5, 5018, Note_on_c, 9, 76, 0
5, 5040, Note_on_c, 9, 80, 32
5, 5064, Note_on_c, 9, 80, 0
5, 5100, Note_on_c, 9, 80, 38
5, 5118, Note_on_c, 9, 80, 0
5, 5160, Note_on_c, 9, 81, 79
5, 5164, Note_on_c, 9, 76, 63
5, 5190, Note_on_c, 9, 76, 0
5, 5206, Note_on_c, 9, 81, 0
5, 5220, Note_on_c, 9, 80, 35
5, 5243, Note_on_c, 9, 80, 0
5, 5280, Note_on_c, 9, 80, 34
5, 5297, Note_on_c, 9, 80, 0
5, 5340, Note_on_c, 9, 81, 71
5, 5380, Note_on_c, 9, 81, 0
5, 5400, Note_on_c, 9, 80, 35
5, 5409, Note_on_c, 9, 76, 65
5, 5420, Note_on_c, 9, 80, 0
5, 5445, Note_on_c, 9, 76, 0
5, 5460, Note_on_c, 9, 81, 69
5, 5500, Note_on_c, 9, 81, 0
5, 5520, Note_on_c, 9, 80, 40
5, 5542, Note_on_c, 9, 80, 0
5, 5580, Note_on_c, 9, 80, 53
5, 5588, Note_on_c, 9, 76, 62
5, 5606, Note_on_c, 9, 80, 0
5, 5619, Note_on_c, 9, 76, 0
5, 5640, Note_on_c, 9, 81, 78
5, 5682, Note_on_c, 9, 81, 0
5, 5700, Note_on_c, 9, 80, 33
5, 5709, Note_on_c, 9, 76, 41
5, 5718, Note_on_c, 9, 80, 0
5, 5721, Note_on_c, 9, 76, 0
5, 5760, Note_on_c, 9, 80, 43
5, 5767, Note_on_c, 9, 76, 63
5, 5783, Note_on_c, 9, 80, 0
5, 5799, Note_on_c, 9, 76, 0
5, 5820, Note_on_c, 9, 80, 67
5, 5844, Note_on_c, 9, 80, 0
5, 5880, Note_on_c, 9, 81, 58
5, 5916, Note_on_c, 9, 81, 0
5, 5940, Note_on_c, 9, 80, 57
5, 5946, Note_on_c, 9, 76, 62
5, 5960, Note_on_c, 9, 80, 0
5, 5973, Note_on_c, 9, 76, 0
5, 6000, Note_on_c, 9, 80, 52
5, 6022, Note_on_c, 9, 80, 0
5, 6060, Note_on_c, 9, 81, 83
5, 6098, Note_on_c, 9, 81, 0
5, 6120, Note_on_c, 9, 80, 36
5, 6129, Note_on_c, 9, 76, 64
5, 6134, Note_on_c, 9, 80, 0
5, 6155, Note_on_c, 9, 76, 0
5, 6180, Note_on_c, 9, 80, 67
5, 6204, Note_on_c, 9, 80, 0
5, 6240, Note_on_c, 9, 81, 69
5, 6286, Note_on_c, 9, 81, 0
5, 6300, Note_on_c, 9, 80, 44
5, 6327, Note_on_c, 9, 80, 0
5, 6360, Note_on_c, 9, 81, 72
5, 6369, Note_on_c, 9, 76, 64
5, 6403, Note_on_c, 9, 76, 0
5, 6403, Note_on_c, 9, 81, 0
5, 6420, Note_on_c, 9, 81, 64
5, 6462, Note_on_c, 9, 81, 0
5, 6480, Note_on_c, 9, 80, 32
5, 6492, Note_on_c, 9, 76, 64
5, 6519, Note_on_c, 9, 80, 0
5, 6524, Note_on_c, 9, 76, 0
5, 6540, Note_on_c, 9, 81, 68
5, 6580, Note_on_c, 9, 81, 0
5, 6600, Note_on_c, 9, 80, 39
5, 6622, Note_on_c, 9, 80, 0
5, 6660, Note_on_c, 9, 81, 77
5, 6689, Note_on_c, 9, 81, 0
5, 6720, Note_on_c, 9, 81, 72
5, 6731, Note_on_c, 9, 76, 63
5, 6758, Note_on_c, 9, 76, 0
5, 6761, Note_on_c, 9, 81, 0
5, 6780, Note_on_c, 9, 80, 48
5, 6809, Note_on_c, 9, 80, 0
5, 6840, Note_on_c, 9, 81, 68
5, 6875, Note_on_c, 9, 81, 0
5, 6900, Note_on_c, 9, 80, 37
5, 6908, Note_on_c, 9, 76, 62
5, 6920, Note_on_c, 9, 80, 0
5, 6938, Note_on_c, 9, 76, 0
5, 6960, Note_on_c, 9, 81, 66
5, 6992, Note_on_c, 9, 81, 0
5, 7020, Note_on_c, 9, 81, 66
5, 7062, Note_on_c, 9, 81, 0
5, 7080, Note_on_c, 9, 80, 49
5, 7089, Note_on_c, 9, 76, 63
5, 7106, Note_on_c, 9, 80, 0
5, 7116, Note_on_c, 9, 76, 0
5, 7140, Note_on_c, 9, 81, 71
5, 7171, Note_on_c, 9, 81, 0
5, 7200, Note_on_c, 9, 81, 64
5, 7242, Note_on_c, 9, 81, 0
5, 7260, Note_on_c, 9, 80, 49
5, 7286, Note_on_c, 9, 80, 0
5, 7320, Note_on_c, 9, 81, 68
5, 7330, Note_on_c, 9, 76, 64
5, 7356, Note_on_c, 9, 76, 0
5, 7361, Note_on_c, 9, 81, 0
5, 7380, Note_on_c, 9, 80, 42
5, 7397, Note_on_c, 9, 80, 0
5, 7440, Note_on_c, 9, 81, 66
5, 7443, Note_on_c, 9, 76, 66
5, 7466, Note_on_c, 9, 81, 0
5, 7470, Note_on_c, 9, 76, 0
5, 7500, Note_on_c, 9, 81, 68
5, 7538, Note_on_c, 9, 81, 0
5, 7560, Note_on_c, 9, 80, 46
5, 7583, Note_on_c, 9, 80, 0
5, 7620, Note_on_c, 9, 81, 72
5, 7652, Note_on_c, 9, 81, 0
5, 7680, Note_on_c, 9, 81, 70
5, 7686, Note_on_c, 9, 76, 66
5, 7713, Note_on_c, 9, 76, 0
5, 7728, Note_on_c, 9, 81, 0
5, 7740, Note_on_c, 9, 80, 34
5, 7755, Note_on_c, 9, 80, 0
5, 7800, Note_on_c, 9, 81, 68
5, 7832, Note_on_c, 9, 81, 0
5, 7860, Note_on_c, 9, 81, 59
5, 7866, Note_on_c, 9, 76, 62
5, 7891, Note_on_c, 9, 81, 0
5, 7897, Note_on_c, 9, 76, 0
5, 7980, Note_on_c, 9, 81, 69
5, 8019, Note_on_c, 9, 81, 0
5, 8041, Note_on_c, 9, 76, 65
5, 8067, Note_on_c, 9, 76, 0
5, 8100, Note_on_c, 9, 80, 60
5, 8119, Note_on_c, 9, 80, 0
5, 8160, Note_on_c, 9, 81, 68
5, 8192, Note_on_c, 9, 81, 0
5, 8220, Note_on_c, 9, 81, 65
5, 8255, Note_on_c, 9, 81, 0
5, 8280, Note_on_c, 9, 80, 45
5, 8284, Note_on_c, 9, 76, 60
5, 8307, Note_on_c, 9, 80, 0
5, 8316, Note_on_c, 9, 76, 0
5, 8340, Note_on_c, 9, 81, 66
5, 8370, Note_on_c, 9, 81, 0
5, 8400, Note_on_c, 9, 81, 60
5, 8404, Note_on_c, 9, 76, 61
5, 8436, Note_on_c, 9, 76, 0
5, 8440, Note_on_c, 9, 81, 0
5, 8460, Note_on_c, 9, 80, 49
5, 8483, Note_on_c, 9, 80, 0
5, 8520, Note_on_c, 9, 81, 57
5, 8546, Note_on_c, 9, 81, 0
5, 8580, Note_on_c, 9, 81, 58
5, 8607, Note_on_c, 9, 81, 0
5, 8640, Note_on_c, 9, 81, 60
5, 8655, Note_on_c, 9, 76, 64
5, 8671, Note_on_c, 9, 81, 0
5, 8682, Note_on_c, 9, 76, 0
5, 8700, Note_on_c, 9, 80, 52
5, 8722, Note_on_c, 9, 80, 0
5, 8760, Note_on_c, 9, 81, 64
5, 8789, Note_on_c, 9, 81, 0
5, 8820, Note_on_c, 9, 81, 71
5, 8828, Note_on_c, 9, 76, 61
5, 8851, Note_on_c, 9, 81, 0
5, 8857, Note_on_c, 9, 76, 0
5, 8880, Note_on_c, 9, 81, 68
5, 8923, Note_on_c, 9, 81, 0
5, 8940, Note_on_c, 9, 80, 53
5, 8966, Note_on_c, 9, 80, 0
5, 9000, Note_on_c, 9, 81, 66
5, 9008, Note_on_c, 9, 76, 63
5, 9035, Note_on_c, 9, 76, 0
5, 9037, Note_on_c, 9, 81, 0
5, 9060, Note_on_c, 9, 80, 39
5, 9083, Note_on_c, 9, 80, 0
5, 9120, Note_on_c, 9, 81, 62
5, 9172, Note_on_c, 9, 81, 0
5, 9180, Note_on_c, 9, 80, 54
5, 9199, Note_on_c, 9, 80, 0
5, 9240, Note_on_c, 9, 80, 50
5, 9247, Note_on_c, 9, 76, 64
5, 9264, Note_on_c, 9, 80, 0
5, 9277, Note_on_c, 9, 76, 0
5, 9300, Note_on_c, 9, 81, 71
5, 9344, Note_on_c, 9, 81, 0
5, 9360, Note_on_c, 9, 80, 47
5, 9369, Note_on_c, 9, 76, 64
5, 9380, Note_on_c, 9, 80, 0
5, 9402, Note_on_c, 9, 76, 0
5, 9420, Note_on_c, 9, 80, 31
5, 9431, Note_on_c, 9, 80, 0
5, 9480, Note_on_c, 9, 81, 74
5, 9529, Note_on_c, 9, 81, 0
5, 9600, Note_on_c, 9, 81, 68
5, 9610, Note_on_c, 9, 76, 68
5, 9639, Note_on_c, 9, 76, 0
5, 9646, Note_on_c, 9, 81, 0
5, 9660, Note_on_c, 9, 80, 33
5, 9676, Note_on_c, 9, 80, 0
5, 9720, Note_on_c, 9, 81, 51
5, 9747, Note_on_c, 9, 81, 0
5, 9780, Note_on_c, 9, 81, 73
5, 9789, Note_on_c, 9, 76, 64
5, 9819, Note_on_c, 9, 76, 0
5, 9822, Note_on_c, 9, 81, 0
5, 9840, Note_on_c, 9, 80, 33
5, 9854, Note_on_c, 9, 80, 0
5, 9900, Note_on_c, 9, 81, 65
5, 9931, Note_on_c, 9, 81, 0
5, 9960, Note_on_c, 9, 81, 64
5, 9968, Note_on_c, 9, 76, 64
5, 9990, Note_on_c, 9, 81, 0
5, 9995, Note_on_c, 9, 76, 0
5, 10020, Note_on_c, 9, 80, 37
5, 10031, Note_on_c, 9, 80, 0
5, 10080, Note_on_c, 9, 81, 66
5, 10125, Note_on_c, 9, 81, 0
5, 10140, Note_on_c, 9, 80, 49
5, 10161, Note_on_c, 9, 80, 0
5, 10200, Note_on_c, 9, 80, 37
5, 10205, Note_on_c, 9, 76, 64
5, 10213, Note_on_c, 9, 80, 0
5, 10239, Note_on_c, 9, 76, 0
5, 10260, Note_on_c, 9, 81, 71
5, 10303, Note_on_c, 9, 81, 0
5, 10320, Note_on_c, 9, 80, 32
5, 10329, Note_on_c, 9, 76, 66
5, 10341, Note_on_c, 9, 80, 0
5, 10364, Note_on_c, 9, 76, 0
5, 10380, Note_on_c, 9, 80, 47
5, 10394, Note_on_c, 9, 80, 0
5, 10440, Note_on_c, 9, 81, 71
5, 10480, Note_on_c, 9, 81, 0
5, 10500, Note_on_c, 9, 80, 31
5, 10518, Note_on_c, 9, 80, 0
5, 10560, Note_on_c, 9, 80, 32
5, 10564, Note_on_c, 9, 76, 66
5, 10577, Note_on_c, 9, 80, 0
5, 10592, Note_on_c, 9, 76, 0
5, 10620, Note_on_c, 9, 81, 72
5, 10658, Note_on_c, 9, 81, 0
5, 10680, Note_on_c, 9, 80, 32
5, 10699, Note_on_c, 9, 80, 0
5, 10740, Note_on_c, 9, 80, 39
5, 10751, Note_on_c, 9, 76, 64
5, 10753, Note_on_c, 9, 80, 0
5, 10782, Note_on_c, 9, 76, 0
5, 10800, Note_on_c, 9, 81, 73
5, 10841, Note_on_c, 9, 81, 0
5, 10860, Note_on_c, 9, 80, 38
5, 10879, Note_on_c, 9, 80, 0
5, 10920, Note_on_c, 9, 81, 70
5, 10927, Note_on_c, 9, 76, 66
5, 10954, Note_on_c, 9, 81, 0
5, 10955, Note_on_c, 9, 76, 0
5, 10980, Note_on_c, 9, 81, 64
5, 11018, Note_on_c, 9, 81, 0
5, 11040, Note_on_c, 9, 80, 30
5, 11065, Note_on_c, 9, 80, 0
5, 11100, Note_on_c, 9, 81, 72
5, 11137, Note_on_c, 9, 81, 0
5, 11160, Note_on_c, 9, 80, 42
5, 11166, Note_on_c, 9, 76, 66
5, 11182, Note_on_c, 9, 80, 0
5, 11200, Note_on_c, 9, 76, 0
5, 11220, Note_on_c, 9, 80, 35
5, 11232, Note_on_c, 9, 80, 0
5, 11280, Note_on_c, 9, 81, 71
5, 11324, Note_on_c, 9, 81, 0
5, 11340, Note_on_c, 9, 80, 37
5, 11351, Note_on_c, 9, 76, 65
5, 11357, Note_on_c, 9, 80, 0
5, 11382, Note_on_c, 9, 76, 0
5, 11400, Note_on_c, 9, 81, 68
5, 11433, Note_on_c, 9, 81, 0
5, 11460, Note_on_c, 9, 81, 65
5, 11496, Note_on_c, 9, 81, 0
5, 11520, Note_on_c, 9, 81, 45
5, 11527, Note_on_c, 9, 76, 66
5, 11541, Note_on_c, 9, 81, 0
5, 11556, Note_on_c, 9, 76, 0
5, 11580, Note_on_c, 9, 81, 80
5, 11619, Note_on_c, 9, 81, 0
5, 11640, Note_on_c, 9, 81, 45
5, 11666, Note_on_c, 9, 81, 0
5, 11700, Note_on_c, 9, 81, 72
5, 11711, Note_on_c, 9, 76, 62
5, 11730, Note_on_c, 9, 81, 0
5, 11742, Note_on_c, 9, 76, 0
5, 11760, Note_on_c, 9, 81, 72
5, 11797, Note_on_c, 9, 81, 0
5, 11820, Note_on_c, 9, 80, 57
5, 11844, Note_on_c, 9, 80, 0
5, 11880, Note_on_c, 9, 81, 54
5, 11887, Note_on_c, 9, 76, 65
5, 11907, Note_on_c, 9, 81, 0
5, 11916, Note_on_c, 9, 76, 0
5, 11940, Note_on_c, 9, 81, 70
5, 11967, Note_on_c, 9, 81, 0
5, 12000, Note_on_c, 9, 81, 68
5, 12041, Note_on_c, 9, 81, 0
5, 12060, Note_on_c, 9, 80, 45
5, 12082, Note_on_c, 9, 80, 0
5, 12120, Note_on_c, 9, 81, 63
5, 12129, Note_on_c, 9, 76, 66
5, 12147, Note_on_c, 9, 81, 0
5, 12158, Note_on_c, 9, 76, 0
5, 12180, Note_on_c, 9, 81, 70
5, 12207, Note_on_c, 9, 81, 0
5, 12240, Note_on_c, 9, 81, 73
5, 12247, Note_on_c, 9, 76, 61
5, 12280, Note_on_c, 9, 76, 0
5, 12282, Note_on_c, 9, 81, 0
5, 12300, Note_on_c, 9, 80, 59
5, 12326, Note_on_c, 9, 80, 0
5, 12360, Note_on_c, 9, 81, 68
5, 12397, Note_on_c, 9, 81, 0
5, 12420, Note_on_c, 9, 81, 64
5, 12458, Note_on_c, 9, 81, 0
5, 12480, Note_on_c, 9, 80, 40
5, 12487, Note_on_c, 9, 76, 65
5, 12511, Note_on_c, 9, 80, 0
5, 12516, Note_on_c, 9, 76, 0
5, 12540, Note_on_c, 9, 81, 66
5, 12576, Note_on_c, 9, 81, 0
5, 12600, Note_on_c, 9, 81, 64
5, 12643, Note_on_c, 9, 81, 0
5, 12660, Note_on_c, 9, 80, 49
5, 12667, Note_on_c, 9, 76, 60
5, 12682, Note_on_c, 9, 80, 0
5, 12698, Note_on_c, 9, 76, 0
5, 12720, Note_on_c, 9, 81, 67
5, 12752, Note_on_c, 9, 81, 0
5, 12780, Note_on_c, 9, 81, 68
5, 12815, Note_on_c, 9, 81, 0
5, 12840, Note_on_c, 9, 80, 49
5, 12844, Note_on_c, 9, 76, 63
5, 12858, Note_on_c, 9, 80, 0
5, 12870, Note_on_c, 9, 76, 0
5, 12900, Note_on_c, 9, 81, 77
5, 12957, Note_on_c, 9, 81, 0
5, 12960, Note_on_c, 9, 80, 46
5, 12974, Note_on_c, 9, 80, 0
5, 13020, Note_on_c, 9, 81, 75
5, 13060, Note_on_c, 9, 81, 0
5, 13080, Note_on_c, 9, 81, 59
5, 13089, Note_on_c, 9, 76, 65
5, 13125, Note_on_c, 9, 76, 0
5, 13129, Note_on_c, 9, 81, 0
5, 13140, Note_on_c, 9, 80, 56
5, 13165, Note_on_c, 9, 80, 0
5, 13200, Note_on_c, 9, 81, 73
5, 13242, Note_on_c, 9, 81, 0
5, 13260, Note_on_c, 9, 80, 27
5, 13268, Note_on_c, 9, 76, 62
5, 13272, Note_on_c, 9, 80, 0
5, 13299, Note_on_c, 9, 76, 0
5, 13320, Note_on_c, 9, 81, 72
5, 13355, Note_on_c, 9, 81, 0
5, 13380, Note_on_c, 9, 81, 66
5, 13389, Note_on_c, 9, 76, 41
5, 13401, Note_on_c, 9, 76, 0
5, 13428, Note_on_c, 9, 81, 0
5, 13440, Note_on_c, 9, 80, 46
5, 13447, Note_on_c, 9, 76, 63
5, 13479, Note_on_c, 9, 76, 0
5, 13479, Note_on_c, 9, 80, 0
5, 13500, Note_on_c, 9, 81, 71
5, 13545, Note_on_c, 9, 81, 0
5, 13560, Note_on_c, 9, 80, 48
5, 13584, Note_on_c, 9, 80, 0
5, 13620, Note_on_c, 9, 81, 80
5, 13626, Note_on_c, 9, 76, 62
5, 13653, Note_on_c, 9, 76, 0
5, 13653, Note_on_c, 9, 81, 0
5, 13680, Note_on_c, 9, 81, 71
5, 13731, Note_on_c, 9, 81, 0
5, 13740, Note_on_c, 9, 80, 50
5, 13770, Note_on_c, 9, 80, 0
5, 13800, Note_on_c, 9, 81, 74
5, 13809, Note_on_c, 9, 76, 64
5, 13835, Note_on_c, 9, 76, 0
5, 13845, Note_on_c, 9, 81, 0
5, 13860, Note_on_c, 9, 80, 46
5, 13875, Note_on_c, 9, 80, 0
5, 13920, Note_on_c, 9, 81, 74
5, 13955, Note_on_c, 9, 81, 0
5, 13980, Note_on_c, 9, 81, 69
5, 14024, Note_on_c, 9, 81, 0
5, 14040, Note_on_c, 9, 80, 40
5, 14049, Note_on_c, 9, 76, 64
5, 14070, Note_on_c, 9, 80, 0
5, 14083, Note_on_c, 9, 76, 0
5, 14100, Note_on_c, 9, 81, 74
5, 14129, Note_on_c, 9, 81, 0
5, 14160, Note_on_c, 9, 81, 68
5, 14172, Note_on_c, 9, 76, 64
5, 14204, Note_on_c, 9, 76, 0
5, 14206, Note_on_c, 9, 81, 0
5, 14220, Note_on_c, 9, 80, 53
5, 14244, Note_on_c, 9, 80, 0
5, 14280, Note_on_c, 9, 81, 73
5, 14313, Note_on_c, 9, 81, 0
5, 14340, Note_on_c, 9, 81, 66
5, 14377, Note_on_c, 9, 81, 0
5, 14400, Note_on_c, 9, 80, 47
5, 14411, Note_on_c, 9, 76, 63
5, 14427, Note_on_c, 9, 80, 0
5, 14438, Note_on_c, 9, 76, 0
5, 14460, Note_on_c, 9, 81, 79
5, 14502, Note_on_c, 9, 81, 0
5, 14520, Note_on_c, 9, 80, 30
5, 14539, Note_on_c, 9, 80, 0
5, 14580, Note_on_c, 9, 80, 46
5, 14588, Note_on_c, 9, 76, 62
5, 14594, Note_on_c, 9, 80, 0
5, 14618, Note_on_c, 9, 76, 0
5, 14640, Note_on_c, 9, 81, 75
5, 14693, Note_on_c, 9, 81, 0
5, 14700, Note_on_c, 9, 80, 36
5, 14720, Note_on_c, 9, 80, 0
5, 14760, Note_on_c, 9, 81, 75
5, 14769, Note_on_c, 9, 76, 63
5, 14796, Note_on_c, 9, 76, 0
5, 14798, Note_on_c, 9, 81, 0
5, 14820, Note_on_c, 9, 81, 66
5, 14870, Note_on_c, 9, 81, 0
5, 14880, Note_on_c, 9, 80, 45
5, 14899, Note_on_c, 9, 80, 0
5, 14940, Note_on_c, 9, 81, 77
5, 14972, Note_on_c, 9, 81, 0
5, 15000, Note_on_c, 9, 81, 67
5, 15010, Note_on_c, 9, 76, 64
5, 15036, Note_on_c, 9, 76, 0
5, 15043, Note_on_c, 9, 81, 0
5, 15060, Note_on_c, 9, 80, 56
5, 15083, Note_on_c, 9, 80, 0
5, 15120, Note_on_c, 9, 81, 73
5, 15123, Note_on_c, 9, 76, 66
5, 15148, Note_on_c, 9, 81, 0
5, 15150, Note_on_c, 9, 76, 0
5, 15180, Note_on_c, 9, 81, 70
5, 15218, Note_on_c, 9, 81, 0
5, 15240, Note_on_c, 9, 80, 53
5, 15264, Note_on_c, 9, 80, 0
5, 15300, Note_on_c, 9, 81, 74
5, 15331, Note_on_c, 9, 81, 0
5, 15366, Note_on_c, 9, 76, 66
5, 15393, Note_on_c, 9, 76, 0
5, 15420, Note_on_c, 9, 80, 64
5, 15439, Note_on_c, 9, 80, 0
5, 15480, Note_on_c, 9, 81, 74
5, 15507, Note_on_c, 9, 81, 0
5, 15540, Note_on_c, 9, 81, 76
5, 15546, Note_on_c, 9, 76, 62
5, 15574, Note_on_c, 9, 81, 0
5, 15577, Note_on_c, 9, 76, 0
5, 15600, Note_on_c, 9, 80, 56
5, 15623, Note_on_c, 9, 80, 0
5, 15660, Note_on_c, 9, 81, 78
5, 15689, Note_on_c, 9, 81, 0
5, 15720, Note_on_c, 9, 81, 71
5, 15721, Note_on_c, 9, 76, 65
5, 15747, Note_on_c, 9, 76, 0
5, 15762, Note_on_c, 9, 81, 0
5, 15780, Note_on_c, 9, 80, 53
5, 15798, Note_on_c, 9, 80, 0
5, 15840, Note_on_c, 9, 81, 78
5, 15870, Note_on_c, 9, 81, 0
5, 15900, Note_on_c, 9, 81, 64
5, 15931, Note_on_c, 9, 81, 0
5, 15960, Note_on_c, 9, 81, 55
5, 15964, Note_on_c, 9, 76, 60
5, 15994, Note_on_c, 9, 81, 0
5, 15996, Note_on_c, 9, 76, 0
5, 16020, Note_on_c, 9, 81, 63
5, 16053, Note_on_c, 9, 81, 0
5, 16080, Note_on_c, 9, 81, 75
5, 16084, Note_on_c, 9, 76, 61
5, 16116, Note_on_c, 9, 76, 0
5, 16118, Note_on_c, 9, 81, 0
5, 16140, Note_on_c, 9, 80, 55
5, 16159, Note_on_c, 9, 80, 0
5, 16200, Note_on_c, 9, 80, 40
5, 16221, Note_on_c, 9, 80, 0
5, 16260, Note_on_c, 9, 80, 73
5, 16289, Note_on_c, 9, 80, 0
5, 16320, Note_on_c, 9, 81, 73
5, 16335, Note_on_c, 9, 76, 64
5, 16361, Note_on_c, 9, 81, 0
5, 16362, Note_on_c, 9, 76, 0
5, 16380, Note_on_c, 9, 80, 46
5, 16395, Note_on_c, 9, 80, 0
5, 16440, Note_on_c, 9, 80, 56
5, 16457, Note_on_c, 9, 80, 0
5, 16500, Note_on_c, 9, 81, 81
5, 16508, Note_on_c, 9, 76, 61
5, 16537, Note_on_c, 9, 76, 0
5, 16537, Note_on_c, 9, 81, 0
5, 16560, Note_on_c, 9, 80, 40
5, 16582, Note_on_c, 9, 80, 0
5, 16620, Note_on_c, 9, 80, 45
5, 16634, Note_on_c, 9, 80, 0
5, 16680, Note_on_c, 9, 81, 75
5, 16688, Note_on_c, 9, 76, 63
5, 16713, Note_on_c, 9, 81, 0
5, 16715, Note_on_c, 9, 76, 0
5, 16740, Note_on_c, 9, 81, 62
5, 16770, Note_on_c, 9, 81, 0
5, 16800, Note_on_c, 9, 81, 71
5, 16842, Note_on_c, 9, 81, 0
5, 16860, Note_on_c, 9, 80, 44
5, 16886, Note_on_c, 9, 80, 0
5, 16920, Note_on_c, 9, 81, 57
5, 16927, Note_on_c, 9, 76, 64
5, 16957, Note_on_c, 9, 76, 0
5, 16964, Note_on_c, 9, 81, 0
5, 16980, Note_on_c, 9, 81, 74
5, 17015, Note_on_c, 9, 81, 0
5, 17040, Note_on_c, 9, 80, 49
5, 17049, Note_on_c, 9, 76, 64
5, 17060, Note_on_c, 9, 80, 0
5, 17082, Note_on_c, 9, 76, 0
5, 17100, Note_on_c, 9, 81, 75
5, 17130, Note_on_c, 9, 81, 0
5, 17160, Note_on_c, 9, 81, 68
5, 17192, Note_on_c, 9, 81, 0
5, 17220, Note_on_c, 9, 80, 55
5, 17235, Note_on_c, 9, 80, 0
5, 17280, Note_on_c, 9, 81, 65
5, 17290, Note_on_c, 9, 76, 68
5, 17307, Note_on_c, 9, 81, 0
5, 17319, Note_on_c, 9, 76, 0
5, 17340, Note_on_c, 9, 81, 70
5, 17376, Note_on_c, 9, 81, 0
5, 17400, Note_on_c, 9, 80, 47
5, 17424, Note_on_c, 9, 80, 0
5, 17460, Note_on_c, 9, 81, 64
5, 17469, Note_on_c, 9, 76, 64
5, 17496, Note_on_c, 9, 81, 0
5, 17499, Note_on_c, 9, 76, 0
5, 17520, Note_on_c, 9, 81, 68
5, 17568, Note_on_c, 9, 81, 0
5, 17580, Note_on_c, 9, 80, 58
5, 17611, Note_on_c, 9, 80, 0
5, 17640, Note_on_c, 9, 81, 69
5, 17648, Note_on_c, 9, 76, 64
5, 17674, Note_on_c, 9, 81, 0
5, 17675, Note_on_c, 9, 76, 0
5, 17700, Note_on_c, 9, 81, 58
5, 17742, Note_on_c, 9, 81, 0
5, 17760, Note_on_c, 9, 80, 43
5, 17787, Note_on_c, 9, 80, 0
5, 17820, Note_on_c, 9, 81, 68
5, 17851, Note_on_c, 9, 81, 0
5, 17880, Note_on_c, 9, 81, 63
5, 17885, Note_on_c, 9, 76, 64
5, 17919, Note_on_c, 9, 76, 0
5, 17932, Note_on_c, 9, 81, 0
5, 17940, Note_on_c, 9, 80, 36
5, 17972, Note_on_c, 9, 80, 0
5, 18000, Note_on_c, 9, 81, 65
5, 18009, Note_on_c, 9, 76, 66
5, 18044, Note_on_c, 9, 76, 0
5, 18046, Note_on_c, 9, 81, 0
5, 18060, Note_on_c, 9, 80, 38
5, 18089, Note_on_c, 9, 80, 0
5, 18120, Note_on_c, 9, 81, 63
5, 18148, Note_on_c, 9, 81, 0
5, 18180, Note_on_c, 9, 81, 70
5, 18228, Note_on_c, 9, 81, 0
5, 18240, Note_on_c, 9, 80, 49
5, 18244, Note_on_c, 9, 76, 66
5, 18268, Note_on_c, 9, 80, 0
5, 18272, Note_on_c, 9, 76, 0
5, 18300, Note_on_c, 9, 81, 71
5, 18332, Note_on_c, 9, 81, 0
5, 18360, Note_on_c, 9, 81, 57
5, 18406, Note_on_c, 9, 81, 0
5, 18420, Note_on_c, 9, 80, 53
5, 18431, Note_on_c, 9, 76, 64
5, 18445, Note_on_c, 9, 80, 0
5, 18462, Note_on_c, 9, 76, 0
5, 18480, Note_on_c, 9, 81, 73
5, 18524, Note_on_c, 9, 81, 0
5, 18540, Note_on_c, 9, 80, 39
5, 18562, Note_on_c, 9, 80, 0
5, 18600, Note_on_c, 9, 81, 66
5, 18607, Note_on_c, 9, 76, 66
5, 18631, Note_on_c, 9, 81, 0
5, 18635, Note_on_c, 9, 76, 0
5, 18660, Note_on_c, 9, 81, 66
5, 18710, Note_on_c, 9, 81, 0
5, 18720, Note_on_c, 9, 80, 49
5, 18752, Note_on_c, 9, 80, 0
5, 18780, Note_on_c, 9, 81, 74
5, 18817, Note_on_c, 9, 81, 0
5, 18840, Note_on_c, 9, 80, 50
5, 18846, Note_on_c, 9, 76, 66
5, 18862, Note_on_c, 9, 80, 0
5, 18880, Note_on_c, 9, 76, 0
5, 18900, Note_on_c, 9, 81, 74
5, 18931, Note_on_c, 9, 81, 0
5, 18960, Note_on_c, 9, 81, 76
5, 19006, Note_on_c, 9, 81, 0
5, 19020, Note_on_c, 9, 80, 55
5, 19031, Note_on_c, 9, 76, 65
5, 19046, Note_on_c, 9, 80, 0
5, 19062, Note_on_c, 9, 76, 0
5, 19080, Note_on_c, 9, 81, 70
5, 19112, Note_on_c, 9, 81, 0
5, 19140, Note_on_c, 9, 81, 70
5, 19184, Note_on_c, 9, 81, 0
5, 19207, Note_on_c, 9, 76, 66
5, 19236, Note_on_c, 9, 76, 0
5, 19260, Note_on_c, 9, 81, 71
5, 19291, Note_on_c, 9, 81, 0
5, 19320, Note_on_c, 9, 81, 70
5, 19365, Note_on_c, 9, 81, 0
5, 19380, Note_on_c, 9, 80, 54
5, 19391, Note_on_c, 9, 76, 62
5, 19407, Note_on_c, 9, 80, 0
5, 19422, Note_on_c, 9, 76, 0
5, 19440, Note_on_c, 9, 81, 58
5, 19475, Note_on_c, 9, 81, 0
5, 19500, Note_on_c, 9, 81, 68
5, 19549, Note_on_c, 9, 81, 0
5, 19560, Note_on_c, 9, 80, 47
5, 19567, Note_on_c, 9, 76, 65
5, 19591, Note_on_c, 9, 80, 0
5, 19596, Note_on_c, 9, 76, 0
5, 19620, Note_on_c, 9, 81, 71
5, 19654, Note_on_c, 9, 81, 0
5, 19680, Note_on_c, 9, 81, 68
5, 19731, Note_on_c, 9, 81, 0
5, 19740, Note_on_c, 9, 80, 52
5, 19767, Note_on_c, 9, 80, 0
5, 19800, Note_on_c, 9, 81, 69
5, 19809, Note_on_c, 9, 76, 66
5, 19834, Note_on_c, 9, 81, 0
5, 19838, Note_on_c, 9, 76, 0
5, 19860, Note_on_c, 9, 81, 67
5, 19910, Note_on_c, 9, 81, 0
5, 19920, Note_on_c, 9, 80, 37
5, 19927, Note_on_c, 9, 76, 61
5, 19949, Note_on_c, 9, 80, 0
5, 19960, Note_on_c, 9, 76, 0
5, 19980, Note_on_c, 9, 81, 69
5, 20014, Note_on_c, 9, 81, 0
5, 20040, Note_on_c, 9, 81, 66
5, 20097, Note_on_c, 9, 81, 0
5, 20100, Note_on_c, 9, 80, 57
5, 20130, Note_on_c, 9, 80, 0
5, 20160, Note_on_c, 9, 81, 72
5, 20167, Note_on_c, 9, 76, 65
5, 20196, Note_on_c, 9, 76, 0
5, 20213, Note_on_c, 9, 81, 0
5, 20220, Note_on_c, 9, 80, 57
5, 20252, Note_on_c, 9, 80, 0
5, 20280, Note_on_c, 9, 81, 69
5, 20313, Note_on_c, 9, 81, 0
5, 20340, Note_on_c, 9, 81, 68
5, 20347, Note_on_c, 9, 76, 60
5, 20378, Note_on_c, 9, 76, 0
5, 20389, Note_on_c, 9, 81, 0
5, 20400, Note_on_c, 9, 80, 55
5, 20431, Note_on_c, 9, 80, 0
5, 20460, Note_on_c, 9, 81, 74
5, 20493, Note_on_c, 9, 81, 0
5, 20520, Note_on_c, 9, 81, 65
5, 20524, Note_on_c, 9, 76, 63
5, 20550, Note_on_c, 9, 76, 0
5, 20569, Note_on_c, 9, 81, 0
5, 20580, Note_on_c, 9, 80, 51
5, 20603, Note_on_c, 9, 80, 0
5, 20640, Note_on_c, 9, 81, 73
5, 20687, Note_on_c, 9, 81, 0
5, 20700, Note_on_c, 9, 80, 37
5, 20728, Note_on_c, 9, 80, 0
5, 20760, Note_on_c, 9, 81, 69
5, 20769, Note_on_c, 9, 76, 65
5, 20795, Note_on_c, 9, 81, 0
5, 20805, Note_on_c, 9, 76, 0
5, 20820, Note_on_c, 9, 81, 66
5, 20873, Note_on_c, 9, 81, 0
5, 20880, Note_on_c, 9, 80, 28
5, 20915, Note_on_c, 9, 80, 0
5, 20940, Note_on_c, 9, 81, 74
5, 20948, Note_on_c, 9, 76, 62
5, 20975, Note_on_c, 9, 81, 0
5, 20979, Note_on_c, 9, 76, 0
5, 21000, Note_on_c, 9, 81, 39
5, 21021, Note_on_c, 9, 81, 0
5, 21069, Note_on_c, 9, 76, 41
5, 21081, Note_on_c, 9, 76, 0
5, 21120, Note_on_c, 9, 80, 28
5, 21120, Note_on_c, 9, 81, 75
5, 21127, Note_on_c, 9, 76, 63
5, 21129, Note_on_c, 9, 80, 0
5, 21155, Note_on_c, 9, 81, 0
5, 21159, Note_on_c, 9, 76, 0
5, 21180, Note_on_c, 9, 81, 51
5, 21193, Note_on_c, 9, 81, 0
5, 21240, Note_on_c, 9, 81, 75
5, 21269, Note_on_c, 9, 81, 0
5, 21300, Note_on_c, 9, 80, 47
5, 21306, Note_on_c, 9, 76, 62
5, 21310, Note_on_c, 9, 80, 0
5, 21333, Note_on_c, 9, 76, 0
5, 21360, Note_on_c, 9, 81, 74
5, 21410, Note_on_c, 9, 81, 0
5, 21420, Note_on_c, 9, 80, 30
5, 21430, Note_on_c, 9, 80, 0
5, 21480, Note_on_c, 9, 81, 72
5, 21489, Note_on_c, 9, 76, 64
5, 21511, Note_on_c, 9, 81, 0
5, 21515, Note_on_c, 9, 76, 0
5, 21540, Note_on_c, 9, 81, 66
5, 21578, Note_on_c, 9, 81, 0
5, 21600, Note_on_c, 9, 80, 52
5, 21635, Note_on_c, 9, 80, 0
5, 21660, Note_on_c, 9, 81, 66
5, 21690, Note_on_c, 9, 81, 0
5, 21720, Note_on_c, 9, 81, 67
5, 21729, Note_on_c, 9, 76, 64
5, 21763, Note_on_c, 9, 76, 0
5, 21763, Note_on_c, 9, 81, 0
5, 21780, Note_on_c, 9, 80, 47
5, 21796, Note_on_c, 9, 80, 0
5, 21840, Note_on_c, 9, 81, 75
5, 21852, Note_on_c, 9, 76, 64
5, 21873, Note_on_c, 9, 81, 0
5, 21884, Note_on_c, 9, 76, 0
5, 21900, Note_on_c, 9, 80, 27
5, 21910, Note_on_c, 9, 80, 0
5, 21960, Note_on_c, 9, 81, 66
5, 21992, Note_on_c, 9, 81, 0
5, 22020, Note_on_c, 9, 81, 68
5, 22062, Note_on_c, 9, 81, 0
5, 22080, Note_on_c, 9, 80, 55
5, 22091, Note_on_c, 9, 76, 63
5, 22108, Note_on_c, 9, 80, 0
5, 22118, Note_on_c, 9, 76, 0
5, 22140, Note_on_c, 9, 81, 74
5, 22194, Note_on_c, 9, 81, 0
5, 22260, Note_on_c, 9, 80, 51
5, 22268, Note_on_c, 9, 76, 62
5, 22283, Note_on_c, 9, 80, 0
5, 22298, Note_on_c, 9, 76, 0
5, 22320, Note_on_c, 9, 81, 74
5, 22353, Note_on_c, 9, 81, 0
5, 22380, Note_on_c, 9, 81, 68
5, 22418, Note_on_c, 9, 81, 0
5, 22440, Note_on_c, 9, 80, 53
5, 22449, Note_on_c, 9, 76, 63
5, 22464, Note_on_c, 9, 80, 0
5, 22476, Note_on_c, 9, 76, 0
5, 22500, Note_on_c, 9, 81, 74
5, 22538, Note_on_c, 9, 81, 0
5, 22560, Note_on_c, 9, 80, 60
5, 22579, Note_on_c, 9, 80, 0
5, 22620, Note_on_c, 9, 81, 75
5, 22651, Note_on_c, 9, 81, 0
5, 22680, Note_on_c, 9, 81, 72
5, 22690, Note_on_c, 9, 76, 64
5, 22716, Note_on_c, 9, 76, 0
5, 22721, Note_on_c, 9, 81, 0
5, 22740, Note_on_c, 9, 80, 52
5, 22759, Note_on_c, 9, 80, 0
5, 22800, Note_on_c, 9, 81, 71
5, 22803, Note_on_c, 9, 76, 66
5, 22830, Note_on_c, 9, 76, 0
5, 22831, Note_on_c, 9, 81, 0
5, 22860, Note_on_c, 9, 81, 65
5, 22894, Note_on_c, 9, 81, 0
5, 22920, Note_on_c, 9, 80, 40
5, 22936, Note_on_c, 9, 80, 0
5, 22980, Note_on_c, 9, 81, 69
5, 23015, Note_on_c, 9, 81, 0
5, 23040, Note_on_c, 9, 81, 66
5, 23046, Note_on_c, 9, 76, 66
5, 23073, Note_on_c, 9, 76, 0
5, 23086, Note_on_c, 9, 81, 0
5, 23100, Note_on_c, 9, 80, 49
5, 23121, Note_on_c, 9, 80, 0
5, 23160, Note_on_c, 9, 81, 79
5, 23196, Note_on_c, 9, 81, 0
5, 23220, Note_on_c, 9, 81, 64
5, 23226, Note_on_c, 9, 76, 62
5, 23257, Note_on_c, 9, 76, 0
5, 23269, Note_on_c, 9, 81, 0
5, 23280, Note_on_c, 9, 80, 53
5, 23305, Note_on_c, 9, 80, 0
5, 23340, Note_on_c, 9, 81, 77
5, 23375, Note_on_c, 9, 81, 0
5, 23400, Note_on_c, 9, 81, 67
5, 23401, Note_on_c, 9, 76, 65
5, 23427, Note_on_c, 9, 76, 0
5, 23447, Note_on_c, 9, 81, 0
5, 23460, Note_on_c, 9, 80, 64
5, 23488, Note_on_c, 9, 80, 0
5, 23520, Note_on_c, 9, 81, 77
5, 23568, Note_on_c, 9, 81, 0
5, 23580, Note_on_c, 9, 80, 37
5, 23597, Note_on_c, 9, 80, 0
5, 23640, Note_on_c, 9, 81, 74
5, 23644, Note_on_c, 9, 76, 60
5, 23676, Note_on_c, 9, 76, 0
5, 23678, Note_on_c, 9, 81, 0
5, 23700, Note_on_c, 9, 81, 70
5, 23748, Note_on_c, 9, 81, 0
5, 23760, Note_on_c, 9, 80, 59
5, 23764, Note_on_c, 9, 76, 61
5, 23783, Note_on_c, 9, 80, 0
5, 23796, Note_on_c, 9, 76, 0
5, 23820, Note_on_c, 9, 81, 78
5, 23865, Note_on_c, 9, 81, 0
5, 23880, Note_on_c, 9, 80, 38
5, 23894, Note_on_c, 9, 80, 0
5, 23940, Note_on_c, 9, 81, 80
5, 23973, Note_on_c, 9, 81, 0
5, 24000, Note_on_c, 9, 81, 71
5, 24015, Note_on_c, 9, 76, 64
5, 24042, Note_on_c, 9, 76, 0
5, 24051, Note_on_c, 9, 81, 0
5, 24060, Note_on_c, 9, 80, 59
5, 24086, Note_on_c, 9, 80, 0
5, 24120, Note_on_c, 9, 81, 71
5, 24153, Note_on_c, 9, 81, 0
5, 24180, Note_on_c, 9, 81, 60
5, 24188, Note_on_c, 9, 76, 61
5, 24210, Note_on_c, 9, 81, 0
5, 24217, Note_on_c, 9, 76, 0
5, 24240, Note_on_c, 9, 81, 73
5, 24274, Note_on_c, 9, 81, 0
5, 24300, Note_on_c, 9, 81, 68
5, 24331, Note_on_c, 9, 81, 0
5, 24360, Note_on_c, 9, 81, 94
5, 24368, Note_on_c, 9, 76, 63
5, 24395, Note_on_c, 9, 76, 0
5, 24408, Note_on_c, 9, 81, 0
5, 24420, Note_on_c, 9, 80, 53
5, 24445, Note_on_c, 9, 80, 0
5, 24480, Note_on_c, 9, 80, 60
5, 24512, Note_on_c, 9, 80, 0
5, 24540, Note_on_c, 9, 81, 79
5, 24583, Note_on_c, 9, 81, 0
5, 24600, Note_on_c, 9, 80, 45
5, 24607, Note_on_c, 9, 76, 64
5, 24631, Note_on_c, 9, 80, 0
5, 24637, Note_on_c, 9, 76, 0
5, 24660, Note_on_c, 9, 80, 62
5, 24684, Note_on_c, 9, 80, 0
5, 24720, Note_on_c, 9, 81, 77
5, 24729, Note_on_c, 9, 76, 64
5, 24762, Note_on_c, 9, 76, 0
5, 24763, Note_on_c, 9, 81, 0
5, 24780, Note_on_c, 9, 80, 38
5, 24795, Note_on_c, 9, 80, 0
5, 24840, Note_on_c, 9, 81, 76
5, 24880, Note_on_c, 9, 81, 0
5, 24900, Note_on_c, 9, 80, 63
5, 24922, Note_on_c, 9, 80, 0
5, 24960, Note_on_c, 9, 81, 79
5, 24970, Note_on_c, 9, 76, 68
5, 24998, Note_on_c, 9, 81, 0
5, 24999, Note_on_c, 9, 76, 0
5, 25020, Note_on_c, 9, 81, 49
5, 25051, Note_on_c, 9, 81, 0
5, 25080, Note_on_c, 9, 81, 26
5, 25111, Note_on_c, 9, 81, 0
5, 25140, Note_on_c, 9, 81, 84
5, 25149, Note_on_c, 9, 76, 64
5, 25169, Note_on_c, 9, 81, 0
5, 25179, Note_on_c, 9, 76, 0
5, 25200, Note_on_c, 9, 81, 81
5, 25248, Note_on_c, 9, 81, 0
5, 25260, Note_on_c, 9, 80, 53
5, 25285, Note_on_c, 9, 80, 0
5, 25320, Note_on_c, 9, 81, 76
5, 25328, Note_on_c, 9, 76, 64
5, 25355, Note_on_c, 9, 76, 0
5, 25356, Note_on_c, 9, 81, 0
5, 25380, Note_on_c, 9, 81, 68
5, 25462, Note_on_c, 9, 81, 0
5, 25500, Note_on_c, 9, 80, 63
5, 25522, Note_on_c, 9, 80, 0
5, 25560, Note_on_c, 9, 81, 71
5, 25565, Note_on_c, 9, 76, 64
5, 25599, Note_on_c, 9, 76, 0
5, 25615, Note_on_c, 9, 81, 0
5, 25620, Note_on_c, 9, 80, 42
5, 25658, Note_on_c, 9, 80, 0
5, 25680, Note_on_c, 9, 81, 68
5, 25689, Note_on_c, 9, 76, 66
5, 25724, Note_on_c, 9, 76, 0
5, 25736, Note_on_c, 9, 81, 0
5, 25740, Note_on_c, 9, 80, 55
5, 25765, Note_on_c, 9, 80, 0
5, 25800, Note_on_c, 9, 81, 72
5, 25846, Note_on_c, 9, 81, 0
5, 25860, Note_on_c, 9, 80, 56
5, 25888, Note_on_c, 9, 80, 0
5, 25920, Note_on_c, 9, 81, 70
5, 25924, Note_on_c, 9, 76, 66
5, 25952, Note_on_c, 9, 76, 0
5, 25956, Note_on_c, 9, 81, 0
5, 25980, Note_on_c, 9, 81, 58
5, 26005, Note_on_c, 9, 81, 0
5, 26040, Note_on_c, 9, 80, 49
5, 26050, Note_on_c, 9, 80, 0
5, 26100, Note_on_c, 9, 81, 80
5, 26111, Note_on_c, 9, 76, 64
5, 26131, Note_on_c, 9, 81, 0
5, 26142, Note_on_c, 9, 76, 0
5, 26160, Note_on_c, 9, 81, 68
5, 26208, Note_on_c, 9, 81, 0
5, 26220, Note_on_c, 9, 80, 57
5, 26246, Note_on_c, 9, 80, 0
5, 26280, Note_on_c, 9, 81, 68
5, 26287, Note_on_c, 9, 76, 66
5, 26305, Note_on_c, 9, 81, 0
5, 26315, Note_on_c, 9, 76, 0
5, 26340, Note_on_c, 9, 81, 73
5, 26379, Note_on_c, 9, 81, 0
5, 26400, Note_on_c, 9, 80, 42
5, 26431, Note_on_c, 9, 80, 0
5, 26460, Note_on_c, 9, 81, 69
5, 26495, Note_on_c, 9, 81, 0
5, 26520, Note_on_c, 9, 81, 64
5, 26526, Note_on_c, 9, 76, 66
5, 26560, Note_on_c, 9, 76, 0
5, 26578, Note_on_c, 9, 81, 0
5, 26580, Note_on_c, 9, 80, 51
5, 26604, Note_on_c, 9, 80, 0
5, 26640, Note_on_c, 9, 81, 73
5, 26683, Note_on_c, 9, 81, 0
5, 26700, Note_on_c, 9, 80, 36
5, 26711, Note_on_c, 9, 76, 65
5, 26726, Note_on_c, 9, 80, 0
5, 26742, Note_on_c, 9, 76, 0
5, 26760, Note_on_c, 9, 81, 67
5, 26793, Note_on_c, 9, 81, 0
5, 26820, Note_on_c, 9, 81, 71
5, 26862, Note_on_c, 9, 81, 0
5, 26880, Note_on_c, 9, 80, 55
5, 26887, Note_on_c, 9, 76, 66
5, 26908, Note_on_c, 9, 80, 0
5, 26916, Note_on_c, 9, 76, 0
5, 26940, Note_on_c, 9, 81, 73
5, 26968, Note_on_c, 9, 81, 0
5, 27000, Note_on_c, 9, 81, 68
5, 27043, Note_on_c, 9, 81, 0
5, 27060, Note_on_c, 9, 80, 51
5, 27071, Note_on_c, 9, 76, 62
5, 27082, Note_on_c, 9, 80, 0
5, 27102, Note_on_c, 9, 76, 0
5, 27120, Note_on_c, 9, 81, 74
5, 27180, Note_on_c, 9, 80, 40
5, 27184, Note_on_c, 9, 81, 0
5, 27200, Note_on_c, 9, 80, 0
5, 27240, Note_on_c, 9, 81, 66
5, 27247, Note_on_c, 9, 76, 65
5, 27272, Note_on_c, 9, 81, 0
5, 27276, Note_on_c, 9, 76, 0
5, 27300, Note_on_c, 9, 81, 68
5, 27347, Note_on_c, 9, 81, 0
5, 27360, Note_on_c, 9, 80, 46
5, 27390, Note_on_c, 9, 80, 0
5, 27420, Note_on_c, 9, 81, 73
5, 27459, Note_on_c, 9, 81, 0
5, 27480, Note_on_c, 9, 80, 46
5, 27489, Note_on_c, 9, 76, 66
5, 27506, Note_on_c, 9, 80, 0
5, 27518, Note_on_c, 9, 76, 0
5, 27540, Note_on_c, 9, 81, 78
5, 27574, Note_on_c, 9, 81, 0
5, 27600, Note_on_c, 9, 81, 68
5, 27607, Note_on_c, 9, 76, 61
5, 27639, Note_on_c, 9, 81, 0
5, 27640, Note_on_c, 9, 76, 0
5, 27660, Note_on_c, 9, 80, 64
5, 27681, Note_on_c, 9, 80, 0
5, 27720, Note_on_c, 9, 81, 79
5, 27756, Note_on_c, 9, 81, 0
5, 27780, Note_on_c, 9, 80, 44
5, 27793, Note_on_c, 9, 80, 0
5, 27840, Note_on_c, 9, 81, 70
5, 27847, Note_on_c, 9, 76, 65
5, 27870, Note_on_c, 9, 81, 0
5, 27876, Note_on_c, 9, 76, 0
5, 27900, Note_on_c, 9, 81, 74
5, 27934, Note_on_c, 9, 81, 0
5, 27960, Note_on_c, 9, 80, 51
5, 27972, Note_on_c, 9, 80, 0
5, 28020, Note_on_c, 9, 81, 78
5, 28027, Note_on_c, 9, 76, 60
5, 28048, Note_on_c, 9, 81, 0
5, 28058, Note_on_c, 9, 76, 0
5, 28080, Note_on_c, 9, 81, 69
5, 28117, Note_on_c, 9, 81, 0
5, 28140, Note_on_c, 9, 80, 51
5, 28162, Note_on_c, 9, 80, 0
5, 28200, Note_on_c, 9, 81, 70
5, 28204, Note_on_c, 9, 76, 63
5, 28230, Note_on_c, 9, 76, 0
5, 28230, Note_on_c, 9, 81, 0
5, 28260, Note_on_c, 9, 81, 68
5, 28298, Note_on_c, 9, 81, 0
5, 28320, Note_on_c, 9, 80, 26
5, 28337, Note_on_c, 9, 80, 0
5, 28380, Note_on_c, 9, 81, 74
5, 28404, Note_on_c, 9, 81, 0
5, 28440, Note_on_c, 9, 81, 64
5, 28449, Note_on_c, 9, 76, 65
5, 28481, Note_on_c, 9, 81, 0
5, 28485, Note_on_c, 9, 76, 0
5, 28500, Note_on_c, 9, 80, 52
5, 28523, Note_on_c, 9, 80, 0
5, 28560, Note_on_c, 9, 81, 74
5, 28594, Note_on_c, 9, 81, 0
5, 28620, Note_on_c, 9, 80, 55
5, 28628, Note_on_c, 9, 76, 62
5, 28643, Note_on_c, 9, 80, 0
5, 28659, Note_on_c, 9, 76, 0
5, 28680, Note_on_c, 9, 81, 71
5, 28713, Note_on_c, 9, 81, 0
5, 28740, Note_on_c, 9, 81, 72
5, 28749, Note_on_c, 9, 76, 41
5, 28761, Note_on_c, 9, 76, 0
5, 28780, Note_on_c, 9, 81, 0
5, 28800, Note_on_c, 9, 80, 51
5, 28807, Note_on_c, 9, 76, 63
5, 28825, Note_on_c, 9, 80, 0
5, 28839, Note_on_c, 9, 76, 0
5, 28860, Note_on_c, 9, 81, 71
5, 28890, Note_on_c, 9, 81, 0
5, 28920, Note_on_c, 9, 81, 64
5, 28966, Note_on_c, 9, 81, 0
5, 28980, Note_on_c, 9, 80, 62
5, 28986, Note_on_c, 9, 76, 62
5, 29007, Note_on_c, 9, 80, 0
5, 29013, Note_on_c, 9, 76, 0
5, 29040, Note_on_c, 9, 81, 74
5, 29077, Note_on_c, 9, 81, 0
5, 29100, Note_on_c, 9, 80, 51
5, 29116, Note_on_c, 9, 80, 0
5, 29160, Note_on_c, 9, 81, 75
5, 29169, Note_on_c, 9, 76, 64
5, 29193, Note_on_c, 9, 81, 0
5, 29195, Note_on_c, 9, 76, 0
5, 29220, Note_on_c, 9, 81, 71
5, 29257, Note_on_c, 9, 81, 0
5, 29280, Note_on_c, 9, 80, 63
5, 29306, Note_on_c, 9, 80, 0
5, 29340, Note_on_c, 9, 81, 74
5, 29371, Note_on_c, 9, 81, 0
5, 29400, Note_on_c, 9, 81, 66
5, 29409, Note_on_c, 9, 76, 64
5, 29438, Note_on_c, 9, 81, 0
5, 29443, Note_on_c, 9, 76, 0
5, 29460, Note_on_c, 9, 80, 60
5, 29482, Note_on_c, 9, 80, 0
5, 29520, Note_on_c, 9, 81, 75
5, 29532, Note_on_c, 9, 76, 64
5, 29558, Note_on_c, 9, 81, 0
5, 29564, Note_on_c, 9, 76, 0
5, 29580, Note_on_c, 9, 80, 33
5, 29608, Note_on_c, 9, 80, 0
5, 29640, Note_on_c, 9, 81, 74
5, 29675, Note_on_c, 9, 81, 0
5, 29700, Note_on_c, 9, 80, 52
5, 29712, Note_on_c, 9, 80, 0
5, 29760, Note_on_c, 9, 81, 64
5, 29771, Note_on_c, 9, 76, 63
5, 29786, Note_on_c, 9, 81, 0
5, 29798, Note_on_c, 9, 76, 0
5, 29820, Note_on_c, 9, 81, 74
5, 29846, Note_on_c, 9, 81, 0
5, 29880, Note_on_c, 9, 81, 80
5, 29921, Note_on_c, 9, 81, 0
5, 29940, Note_on_c, 9, 80, 53
5, 29948, Note_on_c, 9, 76, 62
5, 29964, Note_on_c, 9, 80, 0
5, 29978, Note_on_c, 9, 76, 0
5, 30000, Note_on_c, 9, 81, 71
5, 30037, Note_on_c, 9, 81, 0
5, 30060, Note_on_c, 9, 80, 52
5, 30071, Note_on_c, 9, 80, 0
5, 30120, Note_on_c, 9, 81, 77
5, 30129, Note_on_c, 9, 76, 63
5, 30150, Note_on_c, 9, 81, 0
5, 30156, Note_on_c, 9, 76, 0
5, 30180, Note_on_c, 9, 81, 80
5, 30210, Note_on_c, 9, 81, 0
5, 30240, Note_on_c, 9, 81, 82
5, 30292, Note_on_c, 9, 81, 0
5, 30300, Note_on_c, 9, 80, 53
5, 30323, Note_on_c, 9, 80, 0
5, 30360, Note_on_c, 9, 81, 63
5, 30370, Note_on_c, 9, 76, 64
5, 30391, Note_on_c, 9, 81, 0
5, 30396, Note_on_c, 9, 76, 0
5, 30420, Note_on_c, 9, 81, 75
5, 30452, Note_on_c, 9, 81, 0
5, 30480, Note_on_c, 9, 81, 75
5, 30483, Note_on_c, 9, 76, 66
5, 30510, Note_on_c, 9, 76, 0
5, 30526, Note_on_c, 9, 81, 0
5, 30540, Note_on_c, 9, 80, 60
5, 30564, Note_on_c, 9, 80, 0
5, 30600, Note_on_c, 9, 81, 78
5, 30652, Note_on_c, 9, 81, 0
5, 30660, Note_on_c, 9, 80, 55
5, 30683, Note_on_c, 9, 80, 0
5, 30720, Note_on_c, 9, 81, 77
5, 30726, Note_on_c, 9, 76, 66
5, 30749, Note_on_c, 9, 81, 0
5, 30753, Note_on_c, 9, 76, 0
5, 30780, Note_on_c, 9, 81, 72
5, 30815, Note_on_c, 9, 81, 0
5, 30840, Note_on_c, 9, 80, 59
5, 30864, Note_on_c, 9, 80, 0
5, 30900, Note_on_c, 9, 80, 63
5, 30906, Note_on_c, 9, 76, 62
5, 30926, Note_on_c, 9, 80, 0
5, 30937, Note_on_c, 9, 76, 0
5, 30960, Note_on_c, 9, 81, 80
5, 31013, Note_on_c, 9, 81, 0
5, 31020, Note_on_c, 9, 80, 57
5, 31044, Note_on_c, 9, 80, 0
5, 31080, Note_on_c, 9, 81, 77
5, 31081, Note_on_c, 9, 76, 65
5, 31107, Note_on_c, 9, 76, 0
5, 31113, Note_on_c, 9, 81, 0
5, 31140, Note_on_c, 9, 80, 73
5, 31161, Note_on_c, 9, 80, 0
5, 31200, Note_on_c, 9, 80, 49
5, 31213, Note_on_c, 9, 80, 0
5, 31260, Note_on_c, 9, 81, 87
5, 31301, Note_on_c, 9, 81, 0
5, 31320, Note_on_c, 9, 80, 62
5, 31324, Note_on_c, 9, 76, 60
5, 31340, Note_on_c, 9, 80, 0
5, 31356, Note_on_c, 9, 76, 0
5, 31380, Note_on_c, 9, 80, 49
5, 31404, Note_on_c, 9, 80, 0
5, 31440, Note_on_c, 9, 81, 83
5, 31444, Note_on_c, 9, 76, 61
5, 31476, Note_on_c, 9, 76, 0
5, 31479, Note_on_c, 9, 81, 0
5, 31500, Note_on_c, 9, 80, 56
5, 31517, Note_on_c, 9, 80, 0
5, 31560, Note_on_c, 9, 81, 82
5, 31594, Note_on_c, 9, 81, 0
5, 31620, Note_on_c, 9, 80, 63
5, 31643, Note_on_c, 9, 80, 0
5, 31680, Note_on_c, 9, 81, 80
5, 31695, Note_on_c, 9, 76, 64
5, 31716, Note_on_c, 9, 81, 0
5, 31722, Note_on_c, 9, 76, 0
5, 31740, Note_on_c, 9, 81, 64
5, 31775, Note_on_c, 9, 81, 0
5, 31800, Note_on_c, 9, 81, 60
5, 31836, Note_on_c, 9, 81, 0
5, 31860, Note_on_c, 9, 80, 64
5, 31868, Note_on_c, 9, 76, 61
5, 31886, Note_on_c, 9, 80, 0
5, 31897, Note_on_c, 9, 76, 0
5, 31920, Note_on_c, 9, 81, 75
5, 31953, Note_on_c, 9, 81, 0
5, 31980, Note_on_c, 9, 80, 60
5, 32001, Note_on_c, 9, 80, 0
5, 32040, Note_on_c, 9, 81, 78
5, 32048, Note_on_c, 9, 76, 63
5, 32071, Note_on_c, 9, 81, 0
5, 32075, Note_on_c, 9, 76, 0
5, 32100, Note_on_c, 9, 81, 79
5, 32136, Note_on_c, 9, 81, 0
5, 32160, Note_on_c, 9, 80, 56
5, 32184, Note_on_c, 9, 80, 0
5, 32220, Note_on_c, 9, 81, 78
5, 32259, Note_on_c, 9, 81, 0
5, 32280, Note_on_c, 9, 80, 51
5, 32287, Note_on_c, 9, 76, 64
5, 32310, Note_on_c, 9, 80, 0
5, 32317, Note_on_c, 9, 76, 0
5, 32340, Note_on_c, 9, 81, 79
5, 32374, Note_on_c, 9, 81, 0
5, 32400, Note_on_c, 9, 81, 74
5, 32409, Note_on_c, 9, 76, 64
5, 32442, Note_on_c, 9, 76, 0
5, 32456, Note_on_c, 9, 81, 0
5, 32460, Note_on_c, 9, 80, 64
5, 32486, Note_on_c, 9, 80, 0
5, 32520, Note_on_c, 9, 81, 74
5, 32559, Note_on_c, 9, 81, 0
5, 32580, Note_on_c, 9, 80, 57
5, 32604, Note_on_c, 9, 80, 0
5, 32640, Note_on_c, 9, 81, 76
5, 32650, Note_on_c, 9, 76, 68
5, 32679, Note_on_c, 9, 76, 0
5, 32682, Note_on_c, 9, 81, 0
5, 32700, Note_on_c, 9, 81, 68
5, 32733, Note_on_c, 9, 81, 0
5, 32760, Note_on_c, 9, 81, 66
5, 32803, Note_on_c, 9, 81, 0
5, 32820, Note_on_c, 9, 80, 59
5, 32829, Note_on_c, 9, 76, 64
5, 32848, Note_on_c, 9, 80, 0
5, 32859, Note_on_c, 9, 76, 0
5, 32880, Note_on_c, 9, 81, 74
5, 32921, Note_on_c, 9, 81, 0
5, 32940, Note_on_c, 9, 80, 43
5, 32959, Note_on_c, 9, 80, 0
5, 33000, Note_on_c, 9, 81, 65
5, 33008, Note_on_c, 9, 76, 64
5, 33029, Note_on_c, 9, 81, 0
5, 33035, Note_on_c, 9, 76, 0
5, 33060, Note_on_c, 9, 81, 69
5, 33089, Note_on_c, 9, 81, 0
5, 33120, Note_on_c, 9, 81, 74
5, 33154, Note_on_c, 9, 81, 0
5, 33180, Note_on_c, 9, 80, 60
5, 33203, Note_on_c, 9, 80, 0
5, 33240, Note_on_c, 9, 81, 73
5, 33245, Note_on_c, 9, 76, 64
5, 33267, Note_on_c, 9, 81, 0
5, 33279, Note_on_c, 9, 76, 0
5, 33300, Note_on_c, 9, 81, 74
5, 33327, Note_on_c, 9, 81, 0
5, 33360, Note_on_c, 9, 81, 73
5, 33369, Note_on_c, 9, 76, 66
5, 33391, Note_on_c, 9, 81, 0
5, 33404, Note_on_c, 9, 76, 0
5, 33420, Note_on_c, 9, 80, 53
5, 33441, Note_on_c, 9, 80, 0
5, 33480, Note_on_c, 9, 81, 68
5, 33505, Note_on_c, 9, 81, 0
5, 33540, Note_on_c, 9, 81, 75
5, 33562, Note_on_c, 9, 81, 0
5, 33604, Note_on_c, 9, 76, 66
5, 33632, Note_on_c, 9, 76, 0
5, 33660, Note_on_c, 9, 81, 79
5, 33684, Note_on_c, 9, 81, 0
5, 33720, Note_on_c, 9, 81, 73
5, 33742, Note_on_c, 9, 81, 0
5, 33780, Note_on_c, 9, 80, 64
5, 33791, Note_on_c, 9, 76, 64
5, 33800, Note_on_c, 9, 80, 0
5, 33822, Note_on_c, 9, 76, 0
5, 33840, Note_on_c, 9, 81, 75
5, 33862, Note_on_c, 9, 81, 0
5, 33900, Note_on_c, 9, 81, 74
5, 33929, Note_on_c, 9, 81, 0
5, 33960, Note_on_c, 9, 80, 65
5, 33967, Note_on_c, 9, 76, 66
5, 33980, Note_on_c, 9, 80, 0
5, 33995, Note_on_c, 9, 76, 0
5, 34020, Note_on_c, 9, 81, 77
5, 34046, Note_on_c, 9, 81, 0
5, 34080, Note_on_c, 9, 81, 68
5, 34111, Note_on_c, 9, 81, 0
5, 34140, Note_on_c, 9, 80, 54
5, 34164, Note_on_c, 9, 80, 0
5, 34200, Note_on_c, 9, 81, 68
5, 34206, Note_on_c, 9, 76, 66
5, 34233, Note_on_c, 9, 81, 0
5, 34240, Note_on_c, 9, 76, 0
5, 34260, Note_on_c, 9, 80, 49
5, 34281, Note_on_c, 9, 80, 0
5, 34320, Note_on_c, 9, 81, 64
5, 34345, Note_on_c, 9, 81, 0
5, 34380, Note_on_c, 9, 81, 73
5, 34391, Note_on_c, 9, 76, 65
5, 34407, Note_on_c, 9, 81, 0
5, 34422, Note_on_c, 9, 76, 0
5, 34500, Note_on_c, 9, 81, 70
5, 34525, Note_on_c, 9, 81, 0
5, 34560, Note_on_c, 9, 81, 65
5, 34567, Note_on_c, 9, 76, 66
5, 34595, Note_on_c, 9, 81, 0
5, 34596, Note_on_c, 9, 76, 0
5, 34620, Note_on_c, 9, 80, 55
5, 34644, Note_on_c, 9, 80, 0
5, 34680, Note_on_c, 9, 81, 43
5, 34707, Note_on_c, 9, 81, 0
5, 34740, Note_on_c, 9, 81, 62
5, 34751, Note_on_c, 9, 76, 62
5, 34764, Note_on_c, 9, 81, 0
5, 34782, Note_on_c, 9, 76, 0
5, 34800, Note_on_c, 9, 81, 81
5, 34844, Note_on_c, 9, 81, 0
5, 34860, Note_on_c, 9, 80, 57
5, 34879, Note_on_c, 9, 80, 0
5, 34920, Note_on_c, 9, 81, 56
5, 34927, Note_on_c, 9, 76, 65
5, 34948, Note_on_c, 9, 81, 0
5, 34956, Note_on_c, 9, 76, 0
5, 34980, Note_on_c, 9, 81, 62
5, 35004, Note_on_c, 9, 81, 0
5, 35040, Note_on_c, 9, 81, 77
5, 35069, Note_on_c, 9, 81, 0
5, 35100, Note_on_c, 9, 81, 78
5, 35127, Note_on_c, 9, 81, 0
5, 35160, Note_on_c, 9, 81, 85
5, 35169, Note_on_c, 9, 76, 66
5, 35197, Note_on_c, 9, 81, 0
5, 35198, Note_on_c, 9, 76, 0
5, 35220, Note_on_c, 9, 80, 60
5, 35238, Note_on_c, 9, 80, 0
5, 35280, Note_on_c, 9, 81, 72
5, 35287, Note_on_c, 9, 76, 61
5, 35315, Note_on_c, 9, 81, 0
5, 35320, Note_on_c, 9, 76, 0
5, 35340, Note_on_c, 9, 80, 48
5, 35352, Note_on_c, 9, 80, 0
5, 35400, Note_on_c, 9, 81, 74
5, 35426, Note_on_c, 9, 81, 0
5, 35460, Note_on_c, 9, 81, 71
5, 35487, Note_on_c, 9, 81, 0
5, 35520, Note_on_c, 9, 81, 80
5, 35527, Note_on_c, 9, 76, 65
5, 35556, Note_on_c, 9, 76, 0
5, 35560, Note_on_c, 9, 81, 0
5, 35580, Note_on_c, 9, 80, 55
5, 35599, Note_on_c, 9, 80, 0
5, 35640, Note_on_c, 9, 81, 76
5, 35684, Note_on_c, 9, 81, 0
5, 35700, Note_on_c, 9, 80, 46
5, 35707, Note_on_c, 9, 76, 60
5, 35720, Note_on_c, 9, 80, 0
5, 35738, Note_on_c, 9, 76, 0
5, 35760, Note_on_c, 9, 81, 74
5, 35791, Note_on_c, 9, 81, 0
5, 35820, Note_on_c, 9, 81, 72
5, 35849, Note_on_c, 9, 81, 0
5, 35880, Note_on_c, 9, 81, 74
5, 35884, Note_on_c, 9, 76, 63
5, 35910, Note_on_c, 9, 76, 0
5, 35916, Note_on_c, 9, 81, 0
5, 35940, Note_on_c, 9, 80, 70
5, 35965, Note_on_c, 9, 80, 0
5, 36000, Note_on_c, 9, 80, 67
5, 36021, Note_on_c, 9, 80, 0
5, 36060, Note_on_c, 9, 81, 76
5, 36093, Note_on_c, 9, 81, 0
5, 36120, Note_on_c, 9, 81, 64
5, 36129, Note_on_c, 9, 76, 65
5, 36154, Note_on_c, 9, 81, 0
5, 36165, Note_on_c, 9, 76, 0
5, 36180, Note_on_c, 9, 80, 56
5, 36193, Note_on_c, 9, 80, 0
5, 36240, Note_on_c, 9, 81, 70
5, 36271, Note_on_c, 9, 81, 0
5, 36300, Note_on_c, 9, 80, 32
5, 36308, Note_on_c, 9, 76, 62
5, 36324, Note_on_c, 9, 80, 0
5, 36339, Note_on_c, 9, 76, 0
5, 36360, Note_on_c, 9, 81, 71
5, 36389, Note_on_c, 9, 81, 0
5, 36420, Note_on_c, 9, 81, 73
5, 36429, Note_on_c, 9, 76, 41
5, 36441, Note_on_c, 9, 76, 0
5, 36452, Note_on_c, 9, 81, 0
5, 36480, Note_on_c, 9, 80, 51
5, 36487, Note_on_c, 9, 76, 63
5, 36496, Note_on_c, 9, 80, 0
5, 36519, Note_on_c, 9, 76, 0
5, 36540, Note_on_c, 9, 80, 70
5, 36572, Note_on_c, 9, 80, 0
5, 36600, Note_on_c, 9, 81, 72
5, 36638, Note_on_c, 9, 81, 0
5, 36660, Note_on_c, 9, 80, 58
5, 36666, Note_on_c, 9, 76, 62
5, 36677, Note_on_c, 9, 80, 0
5, 36693, Note_on_c, 9, 76, 0
5, 36720, Note_on_c, 9, 81, 77
5, 36756, Note_on_c, 9, 81, 0
5, 36780, Note_on_c, 9, 80, 60
5, 36801, Note_on_c, 9, 80, 0
5, 36840, Note_on_c, 9, 81, 71
5, 36849, Note_on_c, 9, 76, 64
5, 36864, Note_on_c, 9, 81, 0
5, 36875, Note_on_c, 9, 76, 0
5, 36900, Note_on_c, 9, 81, 75
5, 36932, Note_on_c, 9, 81, 0
5, 36960, Note_on_c, 9, 81, 69
5, 36988, Note_on_c, 9, 81, 0
5, 37020, Note_on_c, 9, 80, 60
5, 37043, Note_on_c, 9, 80, 0
5, 37080, Note_on_c, 9, 81, 72
5, 37089, Note_on_c, 9, 76, 64
5, 37105, Note_on_c, 9, 81, 0
5, 37123, Note_on_c, 9, 76, 0
5, 37140, Note_on_c, 9, 81, 69
5, 37155, Note_on_c, 9, 81, 0
5, 37212, Note_on_c, 9, 76, 64
5, 37244, Note_on_c, 9, 76, 0
5, 37260, Note_on_c, 9, 80, 50
5, 37298, Note_on_c, 9, 80, 0
5, 37320, Note_on_c, 9, 81, 65
5, 37352, Note_on_c, 9, 81, 0
5, 37380, Note_on_c, 9, 81, 63
5, 37413, Note_on_c, 9, 81, 0
5, 37440, Note_on_c, 9, 81, 60
5, 37451, Note_on_c, 9, 76, 63
5, 37478, Note_on_c, 9, 76, 0
5, 37479, Note_on_c, 9, 81, 0
5, 37500, Note_on_c, 9, 80, 56
5, 37549, Note_on_c, 9, 80, 0
5, 37560, Note_on_c, 9, 81, 74
5, 37603, Note_on_c, 9, 81, 0
5, 37620, Note_on_c, 9, 80, 52
5, 37628, Note_on_c, 9, 76, 62
5, 37658, Note_on_c, 9, 76, 0
5, 37662, Note_on_c, 9, 80, 0
5, 37680, Note_on_c, 9, 81, 72
5, 37711, Note_on_c, 9, 81, 0
5, 37740, Note_on_c, 9, 81, 68
5, 37779, Note_on_c, 9, 81, 0
5, 37800, Note_on_c, 9, 80, 50
5, 37809, Note_on_c, 9, 76, 63
5, 37830, Note_on_c, 9, 80, 0
5, 37836, Note_on_c, 9, 76, 0
5, 37860, Note_on_c, 9, 81, 74
5, 37894, Note_on_c, 9, 81, 0
5, 37920, Note_on_c, 9, 81, 64
5, 37968, Note_on_c, 9, 81, 0
5, 37980, Note_on_c, 9, 80, 60
5, 38015, Note_on_c, 9, 80, 0
5, 38040, Note_on_c, 9, 81, 73
5, 38050, Note_on_c, 9, 76, 64
5, 38072, Note_on_c, 9, 81, 0
5, 38076, Note_on_c, 9, 76, 0
5, 38100, Note_on_c, 9, 81, 67
5, 38136, Note_on_c, 9, 81, 0
5, 38160, Note_on_c, 9, 80, 48
5, 38163, Note_on_c, 9, 76, 66
5, 38190, Note_on_c, 9, 76, 0
5, 38198, Note_on_c, 9, 80, 0
5, 38220, Note_on_c, 9, 81, 78
5, 38259, Note_on_c, 9, 81, 0
5, 38280, Note_on_c, 9, 80, 35
5, 38312, Note_on_c, 9, 80, 0
5, 38340, Note_on_c, 9, 81, 68
5, 38367, Note_on_c, 9, 81, 0
5, 38400, Note_on_c, 9, 81, 65
5, 38406, Note_on_c, 9, 76, 66
5, 38433, Note_on_c, 9, 76, 0
5, 38441, Note_on_c, 9, 81, 0
5, 38460, Note_on_c, 9, 80, 51
5, 38510, Note_on_c, 9, 80, 0
5, 38520, Note_on_c, 9, 81, 70
5, 38561, Note_on_c, 9, 81, 0
5, 38580, Note_on_c, 9, 80, 48
5, 38586, Note_on_c, 9, 76, 62
5, 38616, Note_on_c, 9, 80, 0
5, 38617, Note_on_c, 9, 76, 0
5, 38640, Note_on_c, 9, 81, 72
5, 38666, Note_on_c, 9, 81, 0
5, 38700, Note_on_c, 9, 81, 71
5, 38736, Note_on_c, 9, 81, 0
5, 38760, Note_on_c, 9, 80, 50
5, 38761, Note_on_c, 9, 76, 65
5, 38787, Note_on_c, 9, 76, 0
5, 38800, Note_on_c, 9, 80, 0
5, 38820, Note_on_c, 9, 81, 76
5, 38850, Note_on_c, 9, 81, 0
5, 38880, Note_on_c, 9, 81, 67
5, 38928, Note_on_c, 9, 81, 0
5, 38940, Note_on_c, 9, 80, 59
5, 38976, Note_on_c, 9, 80, 0
5, 39000, Note_on_c, 9, 81, 74
5, 39004, Note_on_c, 9, 76, 60
5, 39036, Note_on_c, 9, 76, 0
5, 39040, Note_on_c, 9, 81, 0
5, 39060, Note_on_c, 9, 80, 53
5, 39096, Note_on_c, 9, 80, 0
5, 39120, Note_on_c, 9, 81, 72
5, 39124, Note_on_c, 9, 76, 61
5, 39148, Note_on_c, 9, 81, 0
5, 39156, Note_on_c, 9, 76, 0
5, 39180, Note_on_c, 9, 81, 71
5, 39214, Note_on_c, 9, 81, 0
5, 39240, Note_on_c, 9, 80, 42
5, 39272, Note_on_c, 9, 80, 0
5, 39300, Note_on_c, 9, 81, 77
5, 39324, Note_on_c, 9, 81, 0
5, 39360, Note_on_c, 9, 81, 58
5, 39375, Note_on_c, 9, 76, 64
5, 39402, Note_on_c, 9, 76, 0
5, 39404, Note_on_c, 9, 81, 0
5, 39420, Note_on_c, 9, 80, 56
5, 39452, Note_on_c, 9, 80, 0
5, 39480, Note_on_c, 9, 81, 71
5, 39523, Note_on_c, 9, 81, 0
5, 39540, Note_on_c, 9, 80, 51
5, 39548, Note_on_c, 9, 76, 61
5, 39569, Note_on_c, 9, 80, 0
5, 39577, Note_on_c, 9, 76, 0
5, 39600, Note_on_c, 9, 81, 74
5, 39630, Note_on_c, 9, 81, 0
5, 39660, Note_on_c, 9, 81, 69
5, 39695, Note_on_c, 9, 81, 0
5, 39720, Note_on_c, 9, 80, 50
5, 39728, Note_on_c, 9, 76, 63
5, 39751, Note_on_c, 9, 80, 0
5, 39755, Note_on_c, 9, 76, 0
5, 39780, Note_on_c, 9, 81, 77
5, 39807, Note_on_c, 9, 81, 0
5, 39840, Note_on_c, 9, 81, 66
5, 39880, Note_on_c, 9, 81, 0
5, 39900, Note_on_c, 9, 80, 55
5, 39935, Note_on_c, 9, 80, 0
5, 39960, Note_on_c, 9, 81, 79
5, 39967, Note_on_c, 9, 76, 64
5, 39997, Note_on_c, 9, 76, 0
5, 40004, Note_on_c, 9, 81, 0
5, 40020, Note_on_c, 9, 80, 54
5, 40047, Note_on_c, 9, 80, 0
5, 40080, Note_on_c, 9, 81, 73
5, 40089, Note_on_c, 9, 76, 64
5, 40120, Note_on_c, 9, 81, 0
5, 40122, Note_on_c, 9, 76, 0
5, 40140, Note_on_c, 9, 80, 39
5, 40181, Note_on_c, 9, 80, 0
5, 40200, Note_on_c, 9, 81, 71
5, 40239, Note_on_c, 9, 81, 0
5, 40260, Note_on_c, 9, 80, 51
5, 40291, Note_on_c, 9, 80, 0
5, 40320, Note_on_c, 9, 81, 61
5, 40330, Note_on_c, 9, 76, 68
5, 40348, Note_on_c, 9, 81, 0
5, 40359, Note_on_c, 9, 76, 0
5, 40380, Note_on_c, 9, 81, 74
5, 40402, Note_on_c, 9, 81, 0
5, 40440, Note_on_c, 9, 81, 75
5, 40476, Note_on_c, 9, 81, 0
5, 40500, Note_on_c, 9, 80, 59
5, 40509, Note_on_c, 9, 76, 64
5, 40533, Note_on_c, 9, 80, 0
5, 40539, Note_on_c, 9, 76, 0
5, 40560, Note_on_c, 9, 81, 77
5, 40598, Note_on_c, 9, 81, 0
5, 40620, Note_on_c, 9, 80, 46
5, 40639, Note_on_c, 9, 80, 0
5, 40680, Note_on_c, 9, 81, 73
5, 40688, Note_on_c, 9, 76, 64
5, 40704, Note_on_c, 9, 81, 0
5, 40715, Note_on_c, 9, 76, 0
5, 40740, Note_on_c, 9, 81, 79
5, 40766, Note_on_c, 9, 81, 0
5, 40800, Note_on_c, 9, 81, 74
5, 40832, Note_on_c, 9, 81, 0
5, 40860, Note_on_c, 9, 80, 59
5, 40888, Note_on_c, 9, 80, 0
5, 40920, Note_on_c, 9, 81, 73
5, 40925, Note_on_c, 9, 76, 64
5, 40943, Note_on_c, 9, 81, 0
5, 40959, Note_on_c, 9, 76, 0
5, 40980, Note_on_c, 9, 81, 77
5, 41008, Note_on_c, 9, 81, 0
5, 41040, Note_on_c, 9, 80, 64
5, 41049, Note_on_c, 9, 76, 66
5, 41068, Note_on_c, 9, 80, 0
5, 41084, Note_on_c, 9, 76, 0
5, 41100, Note_on_c, 9, 80, 62
5, 41123, Note_on_c, 9, 80, 0
5, 41160, Note_on_c, 9, 81, 80
5, 41203, Note_on_c, 9, 81, 0
5, 41220, Note_on_c, 9, 80, 56
5, 41254, Note_on_c, 9, 80, 0
5, 41280, Note_on_c, 9, 80, 64
5, 41284, Note_on_c, 9, 76, 66
5, 41309, Note_on_c, 9, 80, 0
5, 41312, Note_on_c, 9, 76, 0
5, 41340, Note_on_c, 9, 81, 82
5, 41379, Note_on_c, 9, 81, 0
5, 41400, Note_on_c, 9, 80, 53
5, 41428, Note_on_c, 9, 80, 0
5, 41460, Note_on_c, 9, 80, 64
5, 41471, Note_on_c, 9, 76, 64
5, 41488, Note_on_c, 9, 80, 0
5, 41502, Note_on_c, 9, 76, 0
5, 41520, Note_on_c, 9, 81, 81
5, 41561, Note_on_c, 9, 81, 0
5, 41580, Note_on_c, 9, 80, 48
5, 41618, Note_on_c, 9, 80, 0
5, 41640, Note_on_c, 9, 81, 81
5, 41647, Note_on_c, 9, 76, 66
5, 41675, Note_on_c, 9, 76, 0
5, 41683, Note_on_c, 9, 81, 0
5, 41700, Note_on_c, 9, 80, 59
5, 41725, Note_on_c, 9, 80, 0
5, 41760, Note_on_c, 9, 80, 51
5, 41782, Note_on_c, 9, 80, 0
5, 41820, Note_on_c, 9, 81, 83
5, 41863, Note_on_c, 9, 81, 0
5, 41880, Note_on_c, 9, 80, 54
5, 41886, Note_on_c, 9, 76, 66
5, 41909, Note_on_c, 9, 80, 0
5, 41920, Note_on_c, 9, 76, 0
5, 41940, Note_on_c, 9, 80, 63
5, 41971, Note_on_c, 9, 80, 0
5, 42000, Note_on_c, 9, 81, 77
5, 42041, Note_on_c, 9, 81, 0
5, 42060, Note_on_c, 9, 80, 53
5, 42071, Note_on_c, 9, 76, 65
5, 42092, Note_on_c, 9, 80, 0
5, 42102, Note_on_c, 9, 76, 0
5, 42120, Note_on_c, 9, 81, 71
5, 42146, Note_on_c, 9, 81, 0
5, 42180, Note_on_c, 9, 81, 70
5, 42204, Note_on_c, 9, 81, 0
5, 42240, Note_on_c, 9, 81, 73
5, 42247, Note_on_c, 9, 76, 66
5, 42276, Note_on_c, 9, 76, 0
5, 42277, Note_on_c, 9, 81, 0
5, 42300, Note_on_c, 9, 80, 57
5, 42329, Note_on_c, 9, 80, 0
5, 42360, Note_on_c, 9, 81, 64
5, 42384, Note_on_c, 9, 81, 0
5, 42420, Note_on_c, 9, 81, 64
5, 42431, Note_on_c, 9, 76, 62
5, 42441, Note_on_c, 9, 81, 0
5, 42462, Note_on_c, 9, 76, 0
5, 42480, Note_on_c, 9, 81, 71
5, 42515, Note_on_c, 9, 81, 0
5, 42540, Note_on_c, 9, 80, 62
5, 42581, Note_on_c, 9, 80, 0
5, 42600, Note_on_c, 9, 81, 67
5, 42607, Note_on_c, 9, 76, 65
5, 42626, Note_on_c, 9, 81, 0
5, 42636, Note_on_c, 9, 76, 0
5, 42660, Note_on_c, 9, 81, 64
5, 42682, Note_on_c, 9, 81, 0
5, 42720, Note_on_c, 9, 80, 64
5, 42735, Note_on_c, 9, 80, 0
5, 42780, Note_on_c, 9, 80, 61
5, 42799, Note_on_c, 9, 80, 0
5, 42840, Note_on_c, 9, 81, 77
5, 42849, Note_on_c, 9, 76, 66
5, 42878, Note_on_c, 9, 76, 0
5, 42880, Note_on_c, 9, 81, 0
5, 42900, Note_on_c, 9, 80, 59
5, 42900, Note_on_c, 9, 81, 54
5, 42915, Note_on_c, 9, 81, 0
5, 42923, Note_on_c, 9, 80, 0
5, 42960, Note_on_c, 9, 81, 71
5, 42967, Note_on_c, 9, 76, 61
5, 43000, Note_on_c, 9, 76, 0
5, 43004, Note_on_c, 9, 81, 0
5, 43020, Note_on_c, 9, 81, 68
5, 43044, Note_on_c, 9, 81, 0
5, 43080, Note_on_c, 9, 80, 57
5, 43101, Note_on_c, 9, 80, 0
5, 43140, Note_on_c, 9, 81, 74
5, 43164, Note_on_c, 9, 81, 0
5, 43200, Note_on_c, 9, 81, 65
5, 43207, Note_on_c, 9, 76, 65
5, 43233, Note_on_c, 9, 81, 0
5, 43236, Note_on_c, 9, 76, 0
5, 43260, Note_on_c, 9, 80, 59
5, 43288, Note_on_c, 9, 80, 0
5, 43320, Note_on_c, 9, 81, 68
5, 43343, Note_on_c, 9, 81, 0
5, 43380, Note_on_c, 9, 81, 74
5, 43387, Note_on_c, 9, 76, 60
5, 43412, Note_on_c, 9, 81, 0
5, 43418, Note_on_c, 9, 76, 0
5, 43440, Note_on_c, 9, 80, 61
5, 43467, Note_on_c, 9, 80, 0
5, 43500, Note_on_c, 9, 81, 74
5, 43524, Note_on_c, 9, 81, 0
5, 43560, Note_on_c, 9, 81, 69
5, 43564, Note_on_c, 9, 76, 63
5, 43590, Note_on_c, 9, 76, 0
5, 43597, Note_on_c, 9, 81, 0
5, 43620, Note_on_c, 9, 80, 67
5, 43651, Note_on_c, 9, 80, 0
5, 43680, Note_on_c, 9, 81, 64
5, 43703, Note_on_c, 9, 81, 0
5, 43740, Note_on_c, 9, 81, 68
5, 43774, Note_on_c, 9, 81, 0
5, 43800, Note_on_c, 9, 80, 65
5, 43809, Note_on_c, 9, 76, 65
5, 43834, Note_on_c, 9, 80, 0
5, 43845, Note_on_c, 9, 76, 0
5, 43860, Note_on_c, 9, 81, 69
5, 43887, Note_on_c, 9, 81, 0
5, 43920, Note_on_c, 9, 81, 69
5, 43955, Note_on_c, 9, 81, 0
5, 43980, Note_on_c, 9, 80, 68
5, 43988, Note_on_c, 9, 76, 62
5, 44010, Note_on_c, 9, 80, 0
5, 44019, Note_on_c, 9, 76, 0
5, 44040, Note_on_c, 9, 81, 69
5, 44069, Note_on_c, 9, 81, 0
5, 44100, Note_on_c, 9, 81, 74
5, 44109, Note_on_c, 9, 76, 41
5, 44121, Note_on_c, 9, 76, 0
5, 44137, Note_on_c, 9, 81, 0
5, 44160, Note_on_c, 9, 80, 60
5, 44167, Note_on_c, 9, 76, 63
5, 44196, Note_on_c, 9, 80, 0
5, 44199, Note_on_c, 9, 76, 0
5, 44220, Note_on_c, 9, 81, 74
5, 44248, Note_on_c, 9, 81, 0
5, 44280, Note_on_c, 9, 81, 67
5, 44316, Note_on_c, 9, 81, 0
5, 44340, Note_on_c, 9, 80, 70
5, 44346, Note_on_c, 9, 76, 62
5, 44371, Note_on_c, 9, 80, 0
5, 44373, Note_on_c, 9, 76, 0
5, 44400, Note_on_c, 9, 81, 67
5, 44424, Note_on_c, 9, 81, 0
5, 44460, Note_on_c, 9, 81, 74
5, 44492, Note_on_c, 9, 81, 0
5, 44520, Note_on_c, 9, 80, 62
5, 44529, Note_on_c, 9, 76, 64
5, 44554, Note_on_c, 9, 80, 0
5, 44555, Note_on_c, 9, 76, 0
5, 44580, Note_on_c, 9, 81, 71
5, 44604, Note_on_c, 9, 81, 0
5, 44640, Note_on_c, 9, 81, 71
5, 44679, Note_on_c, 9, 81, 0
5, 44700, Note_on_c, 9, 80, 58
5, 44732, Note_on_c, 9, 80, 0
5, 44760, Note_on_c, 9, 81, 71
5, 44769, Note_on_c, 9, 76, 64
5, 44792, Note_on_c, 9, 81, 0
5, 44803, Note_on_c, 9, 76, 0
5, 44820, Note_on_c, 9, 80, 58
5, 44859, Note_on_c, 9, 80, 0
5, 44880, Note_on_c, 9, 81, 71
5, 44892, Note_on_c, 9, 76, 64
5, 44906, Note_on_c, 9, 81, 0
5, 44924, Note_on_c, 9, 76, 0
5, 44940, Note_on_c, 9, 81, 73
5, 44976, Note_on_c, 9, 81, 0
5, 45000, Note_on_c, 9, 80, 56
5, 45030, Note_on_c, 9, 80, 0
5, 45060, Note_on_c, 9, 81, 71
5, 45084, Note_on_c, 9, 81, 0
5, 45120, Note_on_c, 9, 81, 71
5, 45131, Note_on_c, 9, 76, 63
5, 45158, Note_on_c, 9, 76, 0
5, 45160, Note_on_c, 9, 81, 0
5, 45180, Note_on_c, 9, 80, 60
5, 45206, Note_on_c, 9, 80, 0
5, 45240, Note_on_c, 9, 81, 71
5, 45270, Note_on_c, 9, 81, 0
5, 45300, Note_on_c, 9, 81, 68
5, 45308, Note_on_c, 9, 76, 62
5, 45335, Note_on_c, 9, 81, 0
5, 45338, Note_on_c, 9, 76, 0
5, 45360, Note_on_c, 9, 80, 59
5, 45388, Note_on_c, 9, 80, 0
5, 45420, Note_on_c, 9, 81, 71
5, 45444, Note_on_c, 9, 81, 0
5, 45480, Note_on_c, 9, 81, 66
5, 45489, Note_on_c, 9, 76, 63
5, 45514, Note_on_c, 9, 81, 0
5, 45516, Note_on_c, 9, 76, 0
5, 45540, Note_on_c, 9, 80, 65
5, 45572, Note_on_c, 9, 80, 0
5, 45600, Note_on_c, 9, 81, 75
5, 45638, Note_on_c, 9, 81, 0
5, 45660, Note_on_c, 9, 80, 51
5, 45691, Note_on_c, 9, 80, 0
5, 45720, Note_on_c, 9, 81, 76
5, 45730, Note_on_c, 9, 76, 64
5, 45750, Note_on_c, 9, 81, 0
5, 45756, Note_on_c, 9, 76, 0
5, 45780, Note_on_c, 9, 81, 68
5, 45817, Note_on_c, 9, 81, 0
5, 45840, Note_on_c, 9, 80, 58
5, 45843, Note_on_c, 9, 76, 66
5, 45870, Note_on_c, 9, 76, 0
5, 45870, Note_on_c, 9, 80, 0
5, 45900, Note_on_c, 9, 81, 75
5, 45927, Note_on_c, 9, 81, 0
5, 45960, Note_on_c, 9, 81, 63
5, 46004, Note_on_c, 9, 81, 0
5, 46020, Note_on_c, 9, 80, 67
5, 46053, Note_on_c, 9, 80, 0
5, 46080, Note_on_c, 9, 81, 81
5, 46080, Note_on_c, 9, 81, 82
5, 46086, Note_on_c, 9, 76, 66
5, 46108, Note_on_c, 9, 81, 0
5, 46113, Note_on_c, 9, 76, 0
5, 46115, Note_on_c, 9, 81, 0
5, 46140, Note_on_c, 9, 80, 57
5, 46165, Note_on_c, 9, 80, 0
5, 46200, Note_on_c, 9, 80, 51
5, 46228, Note_on_c, 9, 80, 0
5, 46260, Note_on_c, 9, 81, 69
5, 46266, Note_on_c, 9, 76, 62
5, 46297, Note_on_c, 9, 76, 0
5, 46299, Note_on_c, 9, 81, 0
5, 46320, Note_on_c, 9, 80, 61
5, 46345, Note_on_c, 9, 80, 0
5, 46380, Note_on_c, 9, 80, 55
5, 46410, Note_on_c, 9, 80, 0
5, 46440, Note_on_c, 9, 81, 70
5, 46441, Note_on_c, 9, 76, 65
5, 46467, Note_on_c, 9, 76, 0
5, 46481, Note_on_c, 9, 81, 0
5, 46500, Note_on_c, 9, 80, 55
5, 46523, Note_on_c, 9, 80, 0
5, 46560, Note_on_c, 9, 81, 75
5, 46610, Note_on_c, 9, 81, 0
5, 46620, Note_on_c, 9, 80, 53
5, 46644, Note_on_c, 9, 80, 0
5, 46680, Note_on_c, 9, 80, 48
5, 46684, Note_on_c, 9, 76, 60
5, 46716, Note_on_c, 9, 76, 0
5, 46722, Note_on_c, 9, 80, 0
5, 46740, Note_on_c, 9, 81, 67
5, 46800, Note_on_c, 9, 80, 57
5, 46801, Note_on_c, 9, 81, 0
5, 46804, Note_on_c, 9, 76, 61
5, 46832, Note_on_c, 9, 80, 0
5, 46836, Note_on_c, 9, 76, 0
5, 46860, Note_on_c, 9, 81, 69
5, 46899, Note_on_c, 9, 81, 0
5, 46920, Note_on_c, 9, 81, 80
5, 46920, Note_on_c, 9, 81, 70
5, 46946, Note_on_c, 9, 81, 0
5, 46973, Note_on_c, 9, 81, 0
5, 46980, Note_on_c, 9, 80, 74
5, 46980, Note_on_c, 9, 80, 43
5, 46993, Note_on_c, 9, 80, 0
5, 47002, Note_on_c, 9, 80, 0
5, 47040, Note_on_c, 9, 81, 67
5, 47055, Note_on_c, 9, 76, 64
5, 47082, Note_on_c, 9, 76, 0
5, 47082, Note_on_c, 9, 81, 0
5, 47100, Note_on_c, 9, 80, 55
5, 47124, Note_on_c, 9, 80, 0
5, 47160, Note_on_c, 9, 80, 48
5, 47188, Note_on_c, 9, 80, 0
5, 47220, Note_on_c, 9, 81, 62
5, 47228, Note_on_c, 9, 76, 61
5, 47257, Note_on_c, 9, 76, 0
5, 47258, Note_on_c, 9, 81, 0
5, 47280, Note_on_c, 9, 80, 40
5, 47303, Note_on_c, 9, 80, 0
5, 47340, Note_on_c, 9, 80, 47
5, 47367, Note_on_c, 9, 80, 0
5, 47400, Note_on_c, 9, 81, 67
5, 47408, Note_on_c, 9, 76, 63
5, 47435, Note_on_c, 9, 76, 0
5, 47455, Note_on_c, 9, 81, 0
5, 47460, Note_on_c, 9, 80, 47
5, 47483, Note_on_c, 9, 80, 0
5, 47520, Note_on_c, 9, 80, 35
5, 47550, Note_on_c, 9, 80, 0
5, 47580, Note_on_c, 9, 81, 70
5, 47618, Note_on_c, 9, 81, 0
5, 47640, Note_on_c, 9, 80, 32
5, 47647, Note_on_c, 9, 76, 64
5, 47656, Note_on_c, 9, 80, 0
5, 47677, Note_on_c, 9, 76, 0
5, 47700, Note_on_c, 9, 80, 45
5, 47721, Note_on_c, 9, 80, 0
5, 47760, Note_on_c, 9, 81, 64
5, 47769, Note_on_c, 9, 76, 64
5, 47800, Note_on_c, 9, 81, 0
5, 47802, Note_on_c, 9, 76, 0
5, 47820, Note_on_c, 9, 80, 40
5, 47844, Note_on_c, 9, 80, 0
5, 47880, Note_on_c, 9, 80, 37
5, 47906, Note_on_c, 9, 80, 0
5, 47940, Note_on_c, 9, 81, 67
5, 47980, Note_on_c, 9, 81, 0
5, 48000, Note_on_c, 9, 80, 26
5, 48010, Note_on_c, 9, 76, 68
5, 48018, Note_on_c, 9, 80, 0
5, 48039, Note_on_c, 9, 76, 0
5, 48060, Note_on_c, 9, 81, 67
5, 48100, Note_on_c, 9, 81, 0
5, 48120, Note_on_c, 9, 80, 28
5, 48141, Note_on_c, 9, 80, 0
5, 48180, Note_on_c, 9, 80, 39
5, 48189, Note_on_c, 9, 76, 64
5, 48205, Note_on_c, 9, 80, 0
5, 48219, Note_on_c, 9, 76, 0
5, 48240, Note_on_c, 9, 80, 50
5, 48267, Note_on_c, 9, 80, 0
5, 48300, Note_on_c, 9, 80, 47
5, 48319, Note_on_c, 9, 80, 0
5, 48360, Note_on_c, 9, 80, 44
5, 48368, Note_on_c, 9, 76, 64
5, 48377, Note_on_c, 9, 80, 0
5, 48395, Note_on_c, 9, 76, 0
5, 48420, Note_on_c, 9, 81, 74
5, 48462, Note_on_c, 9, 81, 0
5, 48480, Note_on_c, 9, 80, 44
5, 48502, Note_on_c, 9, 80, 0
5, 48540, Note_on_c, 9, 81, 63
5, 48574, Note_on_c, 9, 81, 0
5, 48600, Note_on_c, 9, 80, 33
5, 48605, Note_on_c, 9, 76, 64
5, 48619, Note_on_c, 9, 80, 0
5, 48639, Note_on_c, 9, 76, 0
5, 48660, Note_on_c, 9, 80, 38
5, 48677, Note_on_c, 9, 80, 0
5, 48720, Note_on_c, 9, 81, 62
5, 48729, Note_on_c, 9, 76, 66
5, 48748, Note_on_c, 9, 81, 0
5, 48764, Note_on_c, 9, 76, 0
5, 48780, Note_on_c, 9, 80, 47
5, 48799, Note_on_c, 9, 80, 0
5, 48840, Note_on_c, 9, 81, 58
5, 48867, Note_on_c, 9, 81, 0
5, 48900, Note_on_c, 9, 81, 57
5, 48926, Note_on_c, 9, 81, 0
5, 48960, Note_on_c, 9, 81, 62
5, 48964, Note_on_c, 9, 76, 66
5, 48992, Note_on_c, 9, 76, 0
5, 49009, Note_on_c, 9, 81, 0
5, 49020, Note_on_c, 9, 80, 35
5, 49043, Note_on_c, 9, 80, 0
5, 49080, Note_on_c, 9, 80, 51
5, 49104, Note_on_c, 9, 80, 0
5, 49140, Note_on_c, 9, 81, 68
5, 49151, Note_on_c, 9, 76, 64
5, 49178, Note_on_c, 9, 81, 0
5, 49182, Note_on_c, 9, 76, 0
5, 49200, Note_on_c, 9, 80, 34
5, 49222, Note_on_c, 9, 80, 0
5, 49260, Note_on_c, 9, 80, 37
5, 49284, Note_on_c, 9, 80, 0
5, 49320, Note_on_c, 9, 81, 56
5, 49327, Note_on_c, 9, 76, 66
5, 49355, Note_on_c, 9, 76, 0
5, 49363, Note_on_c, 9, 81, 0
5, 49380, Note_on_c, 9, 80, 20
5, 49403, Note_on_c, 9, 80, 0
5, 49440, Note_on_c, 9, 80, 34
5, 49484, Note_on_c, 9, 80, 0
5, 49500, Note_on_c, 9, 81, 53
5, 49546, Note_on_c, 9, 81, 0
5, 49560, Note_on_c, 9, 80, 31
5, 49566, Note_on_c, 9, 76, 66
5, 49581, Note_on_c, 9, 80, 0
5, 49600, Note_on_c, 9, 76, 0
5, 49620, Note_on_c, 9, 80, 25
5, 49646, Note_on_c, 9, 80, 0
5, 49680, Note_on_c, 9, 81, 52
5, 49727, Note_on_c, 9, 81, 0
5, 49740, Note_on_c, 9, 80, 27
5, 49751, Note_on_c, 9, 76, 65
5, 49760, Note_on_c, 9, 80, 0
5, 49782, Note_on_c, 9, 76, 0
5, 49800, Note_on_c, 9, 81, 52
5, 49830, Note_on_c, 9, 81, 0
5, 49860, Note_on_c, 9, 81, 51
5, 49896, Note_on_c, 9, 81, 0
5, 49920, Note_on_c, 9, 80, 30
5, 49927, Note_on_c, 9, 76, 66
5, 49946, Note_on_c, 9, 80, 0
5, 49956, Note_on_c, 9, 76, 0
5, 49980, Note_on_c, 9, 81, 61
5, 50017, Note_on_c, 9, 81, 0
5, 50111, Note_on_c, 9, 76, 58
5, 50142, Note_on_c, 9, 76, 0
5, 50160, Note_on_c, 9, 81, 57
5, 50214, Note_on_c, 9, 81, 0
5, 50280, Note_on_c, 9, 80, 54
5, 50287, Note_on_c, 9, 76, 54
5, 50292, Note_on_c, 9, 80, 0
5, 50316, Note_on_c, 9, 76, 0
5, 50340, Note_on_c, 9, 81, 52
5, 50375, Note_on_c, 9, 81, 0
5, 50400, Note_on_c, 9, 80, 51
5, 50419, Note_on_c, 9, 80, 0
5, 50460, Note_on_c, 9, 80, 49
5, 50485, Note_on_c, 9, 80, 0
5, 50520, Note_on_c, 9, 81, 48
5, 50529, Note_on_c, 9, 76, 48
5, 50558, Note_on_c, 9, 76, 0
5, 50566, Note_on_c, 9, 81, 0
5, 50580, Note_on_c, 9, 80, 46
5, 50598, Note_on_c, 9, 80, 0
5, 50640, Note_on_c, 9, 80, 45
5, 50647, Note_on_c, 9, 76, 45
5, 50670, Note_on_c, 9, 80, 0
5, 50680, Note_on_c, 9, 76, 0
5, 50700, Note_on_c, 9, 81, 43
5, 50738, Note_on_c, 9, 81, 0
5, 50760, Note_on_c, 9, 80, 42
5, 50786, Note_on_c, 9, 80, 0
5, 50820, Note_on_c, 9, 80, 40
5, 50844, Note_on_c, 9, 80, 0
5, 50880, Note_on_c, 9, 81, 39
5, 50887, Note_on_c, 9, 76, 39
5, 50916, Note_on_c, 9, 76, 0
5, 50922, Note_on_c, 9, 81, 0
5, 50940, Note_on_c, 9, 80, 37
5, 50965, Note_on_c, 9, 80, 0
5, 51000, Note_on_c, 9, 80, 36
5, 51023, Note_on_c, 9, 80, 0
5, 51060, Note_on_c, 9, 81, 35
5, 51067, Note_on_c, 9, 76, 34
5, 51096, Note_on_c, 9, 81, 0
5, 51098, Note_on_c, 9, 76, 0
5, 51120, Note_on_c, 9, 80, 33
5, 51144, Note_on_c, 9, 80, 0
5, 51180, Note_on_c, 9, 80, 32
5, 51198, Note_on_c, 9, 80, 0
5, 51240, Note_on_c, 9, 81, 30
5, 51244, Note_on_c, 9, 76, 30
5, 51270, Note_on_c, 9, 76, 0
5, 51286, Note_on_c, 9, 81, 0
5, 51300, Note_on_c, 9, 80, 29
5, 51323, Note_on_c, 9, 80, 0
5, 51360, Note_on_c, 9, 80, 27
5, 51377, Note_on_c, 9, 80, 0
5, 51420, Note_on_c, 9, 81, 26
5, 51460, Note_on_c, 9, 81, 0
5, 51480, Note_on_c, 9, 80, 24
5, 51489, Note_on_c, 9, 76, 24
5, 51500, Note_on_c, 9, 80, 0
5, 51525, Note_on_c, 9, 76, 0
5, 51540, Note_on_c, 9, 81, 23
5, 51580, Note_on_c, 9, 81, 0
5, 51600, Note_on_c, 9, 80, 21
5, 51622, Note_on_c, 9, 80, 0
5, 51660, Note_on_c, 9, 80, 20
5, 51668, Note_on_c, 9, 76, 19
5, 51686, Note_on_c, 9, 80, 0
5, 51699, Note_on_c, 9, 76, 0
5, 51720, Note_on_c, 9, 81, 18
5, 51762, Note_on_c, 9, 81, 0
5, 51780, Note_on_c, 9, 80, 17
5, 51789, Note_on_c, 9, 76, 16
5, 51798, Note_on_c, 9, 80, 0
5, 51801, Note_on_c, 9, 76, 0
5, 51840, Note_on_c, 9, 80, 15
5, 51847, Note_on_c, 9, 76, 15
5, 51863, Note_on_c, 9, 80, 0
5, 51879, Note_on_c, 9, 76, 0
5, 51900, Note_on_c, 9, 80, 14
5, 51924, Note_on_c, 9, 80, 0
5, 51924, End_track
0, 0, End_of_file
