0, 0, Header, 0, 1, 384
1, 0, Start_track
1, 0, Title_t, "untitled"
1, 0, System_exclusive, 5, 126, 127, 9, 1, 247
1, 1, System_exclusive, 8, 67, 16, 76, 0, 0, 126, 0, 247
1, 1, System_exclusive, 8, 67, 16, 76, 8, 15, 0, 1, 247
1, 1, System_exclusive, 8, 67, 16, 76, 8, 14, 0, 1, 247
1, 1, System_exclusive, 8, 67, 16, 76, 8, 13, 0, 1, 247
1, 1, System_exclusive, 8, 67, 16, 76, 8, 12, 0, 1, 247
1, 1, System_exclusive, 8, 67, 16, 76, 8, 11, 0, 1, 247
1, 1, System_exclusive, 8, 67, 16, 76, 8, 10, 0, 1, 247
1, 1, System_exclusive, 8, 67, 16, 76, 8, 9, 0, 0, 247
1, 1, System_exclusive, 8, 67, 16, 76, 8, 8, 0, 1, 247
1, 1, System_exclusive, 8, 67, 16, 76, 8, 7, 0, 1, 247
1, 1, System_exclusive, 8, 67, 16, 76, 8, 6, 0, 1, 247
1, 1, System_exclusive, 8, 67, 16, 76, 8, 5, 0, 1, 247
1, 1, System_exclusive, 8, 67, 16, 76, 8, 4, 0, 2, 247
1, 1, System_exclusive, 8, 67, 16, 76, 8, 3, 0, 2, 247
1, 1, System_exclusive, 8, 67, 16, 76, 8, 2, 0, 4, 247
1, 1, System_exclusive, 8, 67, 16, 76, 8, 1, 0, 4, 247
1, 1, System_exclusive, 8, 67, 16, 76, 8, 0, 0, 8, 247
1, 1, System_exclusive, 8, 67, 16, 76, 8, 0, 7, 0, 247
1, 1, System_exclusive, 8, 67, 16, 76, 8, 1, 7, 0, 247
1, 1, System_exclusive, 8, 67, 16, 76, 8, 2, 7, 0, 247
1, 1, System_exclusive, 8, 67, 16, 76, 8, 3, 7, 0, 247
1, 1, System_exclusive, 8, 67, 16, 76, 8, 4, 7, 0, 247
1, 1, System_exclusive, 8, 67, 16, 76, 8, 5, 7, 0, 247
1, 1, System_exclusive, 8, 67, 16, 76, 8, 6, 7, 0, 247
1, 1, System_exclusive, 8, 67, 16, 76, 8, 7, 7, 0, 247
1, 1, System_exclusive, 8, 67, 16, 76, 8, 8, 7, 0, 247
1, 1, System_exclusive, 8, 67, 16, 76, 8, 9, 7, 2, 247
1, 1, System_exclusive, 8, 67, 16, 76, 8, 10, 7, 0, 247
1, 1, System_exclusive, 8, 67, 16, 76, 8, 11, 7, 0, 247
1, 1, System_exclusive, 8, 67, 16, 76, 8, 12, 7, 0, 247
1, 1, System_exclusive, 8, 67, 16, 76, 8, 13, 7, 0, 247
1, 1, System_exclusive, 8, 67, 16, 76, 8, 14, 7, 0, 247
1, 1, System_exclusive, 8, 67, 16, 76, 8, 15, 7, 0, 247
1, 1, System_exclusive, 9, 67, 16, 76, 2, 1, 0, 2, 17, 247
1, 1, System_exclusive, 9, 67, 16, 76, 2, 1, 32, 65, 8, 247
1, 1, System_exclusive, 9, 67, 16, 76, 2, 1, 64, 5, 0, 247
1, 1, System_exclusive, 8, 67, 16, 76, 8, 0, 114, 64, 247
1, 1, System_exclusive, 8, 67, 16, 76, 8, 0, 115, 95, 247
1, 1, System_exclusive, 8, 67, 16, 76, 8, 0, 119, 46, 247
1, 1, Time_signature, 4, 2, 24, 8
1, 1, Key_signature, 0, "major"
1, 1, Tempo, 500000
1, 1, Sequencer_specific, 21, 67, 115, 10, 0, 5, 75, 79, 79, 79, 79, 79, 79, 79, 79, 79, 79, 79, 79, 79, 79, 79
1, 1, Sequencer_specific, 6, 67, 115, 10, 0, 4, 1
1, 1, Sequencer_specific, 9, 67, 123, 0, 88, 70, 48, 50, 0, 0
1, 385, Program_c, 0, 0
1, 386, Control_c, 0, 7, 107
1, 386, Control_c, 0, 10, 64
1, 386, Control_c, 0, 91, 10
1, 386, Control_c, 0, 93, 0
1, 769, Control_c, 0, 11, 127
1, 769, Control_c, 0, 94, 0
1, 769, Control_c, 0, 101, 0
1, 770, Control_c, 0, 100, 1
1, 771, Control_c, 0, 6, 64
1, 772, Control_c, 0, 38, 0
1, 772, Pitch_bend_c, 0, 8192
1, 772, Control_c, 0, 71, 43
1, 772, Control_c, 0, 74, 46
1, 772, Control_c, 0, 64, 0
1, 1537, Note_on_c, 0, 75, 81
1, 1677, Note_on_c, 0, 75, 0
1, 1693, Control_c, 0, 64, 127
1, 1693, Note_on_c, 0, 74, 65
1, 1925, Control_c, 0, 64, 0
1, 1965, Note_on_c, 0, 63, 50
1, 1977, Note_on_c, 0, 69, 48
1, 1977, Note_on_c, 0, 67, 54
1, 1981, Note_on_c, 0, 62, 49
1, 2021, Note_on_c, 0, 62, 0
1, 2029, Note_on_c, 0, 63, 0
1, 2029, Note_on_c, 0, 67, 0
1, 2057, Note_on_c, 0, 69, 0
1, 2213, Control_c, 0, 64, 127
1, 2601, Control_c, 0, 64, 0
1, 2613, Note_on_c, 0, 63, 41
1, 2625, Note_on_c, 0, 66, 43
1, 2641, Note_on_c, 0, 60, 33
1, 2649, Note_on_c, 0, 69, 35
1, 2649, Note_on_c, 0, 50, 36
1, 2773, Control_c, 0, 64, 127
1, 3017, Note_on_c, 0, 74, 0
1, 3045, Note_on_c, 0, 69, 0
1, 3117, Note_on_c, 0, 60, 0
1, 3173, Note_on_c, 0, 50, 0
1, 3193, Note_on_c, 0, 63, 0
1, 3361, Note_on_c, 0, 72, 66
1, 3397, Note_on_c, 0, 66, 0
1, 3473, Note_on_c, 0, 72, 0
1, 3537, Note_on_c, 0, 70, 60
1, 3545, Control_c, 0, 64, 0
1, 3737, Control_c, 0, 64, 127
1, 3817, Note_on_c, 0, 70, 0
1, 3837, Note_on_c, 0, 43, 46
1, 3949, Note_on_c, 0, 43, 0
1, 4021, Note_on_c, 0, 50, 49
1, 4269, Note_on_c, 0, 50, 0
1, 4301, Note_on_c, 0, 58, 48
1, 4309, Control_c, 0, 64, 0
1, 4313, Note_on_c, 0, 69, 45
1, 4321, Note_on_c, 0, 57, 45
1, 4321, Note_on_c, 0, 66, 39
1, 4329, Note_on_c, 0, 62, 45
1, 4509, Control_c, 0, 64, 127
1, 4561, Control_c, 0, 64, 0
1, 4601, Note_on_c, 0, 56, 52
1, 4601, Control_c, 0, 64, 127
1, 4613, Note_on_c, 0, 57, 0
1, 4765, Note_on_c, 0, 66, 0
1, 4785, Note_on_c, 0, 58, 0
1, 4793, Note_on_c, 0, 62, 0
1, 4833, Note_on_c, 0, 69, 0
1, 4873, Control_c, 0, 64, 0
1, 4905, Note_on_c, 0, 56, 0
1, 4913, Note_on_c, 0, 58, 44
1, 4929, Note_on_c, 0, 55, 45
1, 4941, Note_on_c, 0, 67, 45
1, 4949, Note_on_c, 0, 62, 39
1, 4993, Control_c, 0, 64, 127
1, 5085, Note_on_c, 0, 58, 0
1, 5165, Note_on_c, 0, 62, 0
1, 5193, Note_on_c, 0, 67, 0
1, 5233, Note_on_c, 0, 48, 58
1, 5257, Note_on_c, 0, 48, 0
1, 5257, Note_on_c, 0, 55, 0
1, 5673, Note_on_c, 0, 86, 88
1, 5677, Note_on_c, 0, 67, 81
1, 5677, Note_on_c, 0, 63, 63
1, 5677, Note_on_c, 0, 82, 76
1, 5677, Note_on_c, 0, 58, 73
1, 5677, Note_on_c, 0, 79, 83
1, 5677, Note_on_c, 0, 62, 72
1, 5677, Note_on_c, 0, 74, 84
1, 5697, Control_c, 0, 64, 0
1, 5849, Control_c, 0, 64, 127
1, 5881, Note_on_c, 0, 86, 0
1, 5885, Note_on_c, 0, 74, 0
1, 5941, Note_on_c, 0, 79, 0
1, 5949, Note_on_c, 0, 82, 0
1, 6001, Note_on_c, 0, 87, 79
1, 6081, Note_on_c, 0, 87, 0
1, 6113, Note_on_c, 0, 58, 0
1, 6129, Note_on_c, 0, 67, 0
1, 6141, Note_on_c, 0, 89, 98
1, 6153, Note_on_c, 0, 63, 0
1, 6189, Note_on_c, 0, 62, 0
1, 6245, Note_on_c, 0, 89, 0
1, 6293, Control_c, 0, 64, 0
1, 6305, Note_on_c, 0, 87, 77
1, 6309, Note_on_c, 0, 67, 55
1, 6321, Note_on_c, 0, 63, 46
1, 6329, Note_on_c, 0, 62, 43
1, 6337, Note_on_c, 0, 57, 48
1, 6389, Note_on_c, 0, 87, 0
1, 6485, Note_on_c, 0, 67, 0
1, 6485, Note_on_c, 0, 63, 0
1, 6537, Note_on_c, 0, 62, 0
1, 6625, Note_on_c, 0, 86, 60
1, 6725, Note_on_c, 0, 86, 0
1, 6769, Note_on_c, 0, 67, 38
1, 6781, Note_on_c, 0, 84, 47
1, 6789, Control_c, 0, 64, 127
1, 6793, Note_on_c, 0, 62, 12
1, 6793, Note_on_c, 0, 63, 31
1, 6857, Note_on_c, 0, 62, 0
1, 6865, Note_on_c, 0, 67, 0
1, 6881, Note_on_c, 0, 84, 0
1, 6885, Note_on_c, 0, 63, 0
1, 6921, Note_on_c, 0, 81, 40
1, 6945, Note_on_c, 0, 57, 0
1, 6985, Note_on_c, 0, 81, 0
1, 7093, Note_on_c, 0, 82, 41
1, 7177, Note_on_c, 0, 82, 0
1, 7177, Control_c, 0, 64, 0
1, 7221, Note_on_c, 0, 65, 27
1, 7225, Note_on_c, 0, 60, 24
1, 7233, Note_on_c, 0, 84, 55
1, 7253, Note_on_c, 0, 62, 35
1, 7317, Note_on_c, 0, 84, 0
1, 7389, Control_c, 0, 64, 127
1, 7577, Note_on_c, 0, 65, 0
1, 7613, Note_on_c, 0, 62, 0
1, 7701, Note_on_c, 0, 65, 39
1, 7709, Note_on_c, 0, 62, 45
1, 7909, Note_on_c, 0, 65, 0
1, 7913, Note_on_c, 0, 62, 0
1, 7949, Note_on_c, 0, 60, 0
1, 8461, Note_on_c, 0, 39, 58
1, 8557, Note_on_c, 0, 39, 0
1, 8629, Control_c, 0, 64, 0
1, 8649, Note_on_c, 0, 46, 40
1, 8689, Note_on_c, 0, 46, 0
1, 8733, Note_on_c, 0, 46, 21
1, 8769, Control_c, 0, 64, 127
1, 8781, Control_c, 0, 64, 0
1, 8793, Control_c, 0, 64, 127
1, 8805, Note_on_c, 0, 55, 50
1, 8865, Note_on_c, 0, 55, 0
1, 8877, Note_on_c, 0, 46, 0
1, 8973, Note_on_c, 0, 70, 61
1, 8981, Note_on_c, 0, 62, 57
1, 8989, Note_on_c, 0, 65, 57
1, 9013, Note_on_c, 0, 62, 0
1, 9069, Note_on_c, 0, 65, 0
1, 9081, Note_on_c, 0, 70, 0
1, 9125, Control_c, 0, 64, 0
1, 9177, Note_on_c, 0, 63, 46
1, 9193, Note_on_c, 0, 59, 52
1, 9201, Note_on_c, 0, 58, 45
1, 9205, Note_on_c, 0, 54, 48
1, 9477, Note_on_c, 0, 71, 85
1, 9649, Control_c, 0, 64, 127
1, 9821, Note_on_c, 0, 73, 61
1, 9845, Note_on_c, 0, 71, 0
1, 9893, Note_on_c, 0, 73, 0
1, 9897, Note_on_c, 0, 63, 0
1, 9961, Note_on_c, 0, 75, 98
1, 9965, Note_on_c, 0, 59, 0
1, 9973, Note_on_c, 0, 54, 0
1, 10021, Note_on_c, 0, 58, 0
1, 10085, Note_on_c, 0, 75, 0
1, 10085, Control_c, 0, 64, 0
1, 10117, Note_on_c, 0, 63, 63
1, 10117, Note_on_c, 0, 59, 51
1, 10125, Note_on_c, 0, 73, 94
1, 10129, Note_on_c, 0, 53, 56
1, 10129, Note_on_c, 0, 58, 49
1, 10149, Note_on_c, 0, 75, 45
1, 10181, Note_on_c, 0, 75, 0
1, 10233, Control_c, 0, 64, 127
1, 10373, Note_on_c, 0, 73, 0
1, 10389, Note_on_c, 0, 53, 0
1, 10413, Note_on_c, 0, 63, 0
1, 10421, Note_on_c, 0, 73, 78
1, 10441, Note_on_c, 0, 58, 0
1, 10449, Note_on_c, 0, 59, 0
1, 10553, Note_on_c, 0, 63, 54
1, 10553, Control_c, 0, 64, 0
1, 10569, Note_on_c, 0, 73, 0
1, 10589, Note_on_c, 0, 53, 35
1, 10589, Note_on_c, 0, 71, 56
1, 10593, Note_on_c, 0, 59, 29
1, 10601, Note_on_c, 0, 58, 22
1, 10629, Control_c, 0, 64, 127
1, 10661, Note_on_c, 0, 59, 0
1, 10669, Note_on_c, 0, 58, 0
1, 10685, Note_on_c, 0, 63, 0
1, 10717, Note_on_c, 0, 53, 0
1, 10781, Note_on_c, 0, 71, 0
1, 10861, Control_c, 0, 64, 0
1, 10877, Note_on_c, 0, 61, 48
1, 10885, Note_on_c, 0, 70, 62
1, 10893, Note_on_c, 0, 51, 41
1, 10905, Note_on_c, 0, 56, 41
1, 10905, Note_on_c, 0, 58, 41
1, 11025, Control_c, 0, 64, 127
1, 11109, Note_on_c, 0, 70, 0
1, 11137, Note_on_c, 0, 58, 0
1, 11149, Note_on_c, 0, 61, 0
1, 11161, Note_on_c, 0, 56, 0
1, 11165, Note_on_c, 0, 51, 0
1, 11337, Note_on_c, 0, 61, 48
1, 11337, Note_on_c, 0, 73, 50
1, 11353, Note_on_c, 0, 51, 40
1, 11357, Note_on_c, 0, 68, 53
1, 11361, Control_c, 0, 64, 0
1, 11381, Note_on_c, 0, 58, 33
1, 11385, Note_on_c, 0, 70, 38
1, 11421, Note_on_c, 0, 61, 0
1, 11433, Note_on_c, 0, 70, 0
1, 11437, Note_on_c, 0, 58, 0
1, 11449, Note_on_c, 0, 73, 0
1, 11449, Note_on_c, 0, 68, 0
1, 11477, Note_on_c, 0, 51, 0
1, 11481, Control_c, 0, 64, 127
1, 11789, Control_c, 0, 64, 0
1, 11805, Note_on_c, 0, 54, 50
1, 11813, Note_on_c, 0, 58, 47
1, 11813, Note_on_c, 0, 66, 48
1, 11817, Note_on_c, 0, 47, 48
1, 11825, Note_on_c, 0, 61, 46
1, 11861, Note_on_c, 0, 63, 29
1, 11925, Note_on_c, 0, 63, 0
1, 11933, Control_c, 0, 64, 127
1, 12017, Note_on_c, 0, 58, 0
1, 12037, Note_on_c, 0, 66, 0
1, 12041, Note_on_c, 0, 61, 0
1, 12125, Note_on_c, 0, 54, 0
1, 12165, Note_on_c, 0, 47, 0
1, 12293, Note_on_c, 0, 47, 39
1, 12313, Note_on_c, 0, 54, 26
1, 12369, Note_on_c, 0, 54, 0
1, 12437, Control_c, 0, 64, 0
1, 12461, Note_on_c, 0, 70, 51
1, 12481, Note_on_c, 0, 61, 39
1, 12485, Control_c, 0, 64, 127
1, 12529, Note_on_c, 0, 47, 0
1, 12541, Note_on_c, 0, 70, 0
1, 12573, Note_on_c, 0, 61, 0
1, 12705, Note_on_c, 0, 46, 36
1, 12785, Note_on_c, 0, 46, 0
1, 12785, Control_c, 0, 64, 0
1, 12789, Note_on_c, 0, 58, 51
1, 12793, Note_on_c, 0, 47, 45
1, 12809, Note_on_c, 0, 48, 48
1, 12813, Note_on_c, 0, 66, 35
1, 12829, Note_on_c, 0, 63, 36
1, 12833, Note_on_c, 0, 47, 0
1, 12865, Note_on_c, 0, 66, 0
1, 12873, Note_on_c, 0, 63, 0
1, 12885, Note_on_c, 0, 58, 0
1, 12989, Control_c, 0, 64, 127
1, 13217, Control_c, 0, 64, 0
1, 13237, Note_on_c, 0, 36, 57
1, 13237, Note_on_c, 0, 68, 56
1, 13241, Note_on_c, 0, 61, 54
1, 13261, Note_on_c, 0, 63, 35
1, 13269, Note_on_c, 0, 61, 0
1, 13285, Note_on_c, 0, 68, 0
1, 13301, Note_on_c, 0, 63, 0
1, 13325, Note_on_c, 0, 48, 0
1, 13393, Note_on_c, 0, 66, 57
1, 13425, Note_on_c, 0, 66, 0
1, 13565, Note_on_c, 0, 61, 63
1, 13573, Note_on_c, 0, 63, 52
1, 13577, Note_on_c, 0, 36, 0
1, 13581, Note_on_c, 0, 68, 56
1, 13585, Control_c, 0, 64, 127
1, 13589, Note_on_c, 0, 48, 46
1, 13757, Note_on_c, 0, 48, 0
1, 13805, Note_on_c, 0, 61, 0
1, 13841, Note_on_c, 0, 68, 0
1, 13845, Note_on_c, 0, 63, 0
1, 13881, Control_c, 0, 64, 0
1, 13913, Note_on_c, 0, 66, 58
1, 13917, Note_on_c, 0, 57, 50
1, 13937, Note_on_c, 0, 51, 35
1, 13957, Note_on_c, 0, 57, 0
1, 13985, Note_on_c, 0, 51, 0
1, 14009, Note_on_c, 0, 66, 0
1, 14073, Note_on_c, 0, 63, 48
1, 14101, Note_on_c, 0, 63, 0
1, 14109, Note_on_c, 0, 48, 34
1, 14169, Note_on_c, 0, 48, 0
1, 14233, Note_on_c, 0, 66, 65
1, 14237, Note_on_c, 0, 57, 66
1, 14237, Note_on_c, 0, 63, 55
1, 14237, Note_on_c, 0, 61, 55
1, 14245, Note_on_c, 0, 51, 49
1, 14373, Control_c, 0, 64, 127
1, 14501, Note_on_c, 0, 63, 0
1, 14517, Note_on_c, 0, 61, 0
1, 14537, Note_on_c, 0, 57, 0
1, 14549, Note_on_c, 0, 66, 0
1, 14585, Note_on_c, 0, 63, 52
1, 14605, Note_on_c, 0, 51, 0
1, 14673, Note_on_c, 0, 63, 0
1, 14733, Note_on_c, 0, 57, 61
1, 14753, Note_on_c, 0, 51, 51
1, 14769, Note_on_c, 0, 57, 0
1, 14789, Note_on_c, 0, 51, 0
1, 14853, Control_c, 0, 64, 0
1, 14909, Note_on_c, 0, 64, 61
1, 14909, Note_on_c, 0, 55, 61
1, 14925, Note_on_c, 0, 60, 57
1, 14925, Note_on_c, 0, 46, 57
1, 14949, Note_on_c, 0, 53, 36
1, 14993, Control_c, 0, 64, 127
1, 15113, Note_on_c, 0, 55, 0
1, 15177, Note_on_c, 0, 64, 0
1, 15185, Note_on_c, 0, 60, 0
1, 15241, Note_on_c, 0, 65, 71
1, 15241, Note_on_c, 0, 60, 80
1, 15249, Control_c, 0, 64, 0
1, 15249, Note_on_c, 0, 62, 68
1, 15257, Note_on_c, 0, 57, 54
1, 15365, Note_on_c, 0, 57, 0
1, 15369, Control_c, 0, 64, 127
1, 15557, Note_on_c, 0, 46, 0
1, 15729, Note_on_c, 0, 46, 73
1, 15749, Note_on_c, 0, 60, 0
1, 15773, Note_on_c, 0, 62, 0
1, 15797, Note_on_c, 0, 65, 0
1, 15993, Control_c, 0, 64, 0
1, 16093, Note_on_c, 0, 72, 66
1, 16173, Note_on_c, 0, 72, 0
1, 16189, Control_c, 0, 64, 127
1, 16233, Note_on_c, 0, 75, 82
1, 16321, Note_on_c, 0, 75, 0
1, 16357, Note_on_c, 0, 53, 0
1, 16369, Note_on_c, 0, 46, 0
1, 16385, Note_on_c, 0, 79, 82
1, 16457, Note_on_c, 0, 79, 0
1, 16549, Note_on_c, 0, 84, 107
1, 16629, Note_on_c, 0, 84, 0
1, 16693, Note_on_c, 0, 86, 122
1, 16805, Note_on_c, 0, 86, 0
1, 16825, Control_c, 0, 64, 0
1, 16853, Note_on_c, 0, 87, 87
1, 16861, Note_on_c, 0, 63, 57
1, 16861, Note_on_c, 0, 57, 57
1, 16865, Note_on_c, 0, 60, 56
1, 16865, Note_on_c, 0, 55, 58
1, 16981, Note_on_c, 0, 87, 0
1, 17025, Note_on_c, 0, 89, 85
1, 17061, Note_on_c, 0, 63, 0
1, 17073, Control_c, 0, 64, 127
1, 17109, Note_on_c, 0, 60, 0
1, 17109, Note_on_c, 0, 89, 0
1, 17173, Note_on_c, 0, 87, 82
1, 17229, Control_c, 0, 64, 0
1, 17281, Note_on_c, 0, 87, 0
1, 17301, Note_on_c, 0, 63, 50
1, 17321, Note_on_c, 0, 60, 42
1, 17329, Control_c, 0, 64, 127
1, 17341, Note_on_c, 0, 86, 72
1, 17361, Note_on_c, 0, 60, 0
1, 17365, Note_on_c, 0, 63, 0
1, 17385, Note_on_c, 0, 55, 0
1, 17385, Note_on_c, 0, 57, 0
1, 17417, Note_on_c, 0, 86, 0
1, 17453, Note_on_c, 0, 87, 56
1, 17525, Note_on_c, 0, 86, 56
1, 17537, Note_on_c, 0, 87, 0
1, 17609, Note_on_c, 0, 86, 0
1, 17621, Note_on_c, 0, 84, 61
1, 17689, Note_on_c, 0, 84, 0
1, 17729, Note_on_c, 0, 82, 63
1, 17765, Control_c, 0, 64, 0
1, 17797, Note_on_c, 0, 54, 39
1, 17797, Note_on_c, 0, 60, 33
1, 17809, Note_on_c, 0, 82, 0
1, 17813, Note_on_c, 0, 50, 41
1, 17837, Note_on_c, 0, 81, 46
1, 17905, Control_c, 0, 64, 24
1, 17909, Control_c, 0, 64, 127
1, 18029, Note_on_c, 0, 50, 0
1, 18045, Note_on_c, 0, 54, 0
1, 18073, Note_on_c, 0, 81, 0
1, 18081, Note_on_c, 0, 60, 0
1, 18185, Note_on_c, 0, 84, 68
1, 18297, Note_on_c, 0, 60, 49
1, 18301, Note_on_c, 0, 54, 48
1, 18341, Note_on_c, 0, 60, 0
1, 18385, Note_on_c, 0, 54, 0
1, 18477, Note_on_c, 0, 84, 0
1, 18517, Note_on_c, 0, 74, 42
1, 18553, Note_on_c, 0, 74, 0
1, 18757, Note_on_c, 0, 84, 85
1, 18761, Control_c, 0, 64, 0
1, 18793, Note_on_c, 0, 43, 47
1, 18825, Note_on_c, 0, 50, 36
1, 18881, Control_c, 0, 64, 127
1, 18889, Note_on_c, 0, 43, 0
1, 18921, Note_on_c, 0, 50, 0
1, 18941, Note_on_c, 0, 82, 72
1, 18953, Note_on_c, 0, 84, 0
1, 19073, Note_on_c, 0, 82, 0
1, 19101, Note_on_c, 0, 70, 68
1, 19261, Note_on_c, 0, 55, 50
1, 19277, Note_on_c, 0, 58, 50
1, 19285, Note_on_c, 0, 62, 33
1, 19293, Control_c, 0, 64, 0
1, 19405, Control_c, 0, 64, 127
1, 19457, Note_on_c, 0, 54, 72
1, 19461, Note_on_c, 0, 55, 0
1, 19489, Note_on_c, 0, 56, 19
1, 19589, Note_on_c, 0, 70, 0
1, 19589, Note_on_c, 0, 54, 0
1, 19601, Note_on_c, 0, 56, 0
1, 19633, Note_on_c, 0, 53, 72
1, 19761, Note_on_c, 0, 62, 0
1, 19769, Note_on_c, 0, 53, 0
1, 19769, Control_c, 0, 64, 0
1, 19789, Note_on_c, 0, 58, 0
1, 19845, Note_on_c, 0, 52, 77
1, 19845, Note_on_c, 0, 62, 51
1, 19869, Note_on_c, 0, 57, 43
1, 19873, Note_on_c, 0, 58, 23
1, 19913, Note_on_c, 0, 57, 0
1, 19957, Note_on_c, 0, 58, 0
1, 19965, Control_c, 0, 64, 127
1, 20073, Note_on_c, 0, 78, 31
1, 20125, Note_on_c, 0, 62, 0
1, 20333, Note_on_c, 0, 67, 49
1, 20333, Note_on_c, 0, 58, 54
1, 20337, Note_on_c, 0, 62, 50
1, 20405, Note_on_c, 0, 78, 0
1, 20517, Note_on_c, 0, 52, 0
1, 20553, Note_on_c, 0, 67, 0
1, 20565, Note_on_c, 0, 62, 0
1, 20613, Note_on_c, 0, 58, 0
1, 20657, Note_on_c, 0, 52, 57
1, 20705, Note_on_c, 0, 52, 0
1, 20797, Control_c, 0, 64, 0
1, 20837, Note_on_c, 0, 74, 60
1, 20845, Note_on_c, 0, 63, 52
1, 20845, Note_on_c, 0, 59, 54
1, 20853, Note_on_c, 0, 67, 45
1, 20933, Control_c, 0, 64, 127
1, 20997, Note_on_c, 0, 74, 0
1, 21053, Note_on_c, 0, 63, 0
1, 21085, Note_on_c, 0, 67, 0
1, 21153, Note_on_c, 0, 75, 74
1, 21161, Note_on_c, 0, 59, 0
1, 21165, Note_on_c, 0, 60, 50
1, 21197, Note_on_c, 0, 60, 0
1, 21241, Note_on_c, 0, 75, 0
1, 21285, Control_c, 0, 64, 0
1, 21325, Note_on_c, 0, 70, 61
1, 21329, Note_on_c, 0, 67, 60
1, 21337, Note_on_c, 0, 62, 48
1, 21345, Note_on_c, 0, 77, 45
1, 21357, Note_on_c, 0, 67, 0
1, 21373, Note_on_c, 0, 77, 0
1, 21373, Note_on_c, 0, 62, 0
1, 21385, Note_on_c, 0, 70, 0
1, 21465, Control_c, 0, 64, 127
1, 21629, Note_on_c, 0, 75, 61
1, 21633, Note_on_c, 0, 63, 54
1, 21637, Control_c, 0, 64, 0
1, 21665, Note_on_c, 0, 63, 0
1, 21717, Note_on_c, 0, 75, 0
1, 21993, Note_on_c, 0, 74, 59
1, 21993, Note_on_c, 0, 66, 53
1, 22005, Note_on_c, 0, 63, 39
1, 22017, Note_on_c, 0, 57, 41
1, 22021, Control_c, 0, 64, 127
1, 22025, Note_on_c, 0, 51, 42
1, 22221, Note_on_c, 0, 63, 0
1, 22245, Note_on_c, 0, 66, 0
1, 22249, Note_on_c, 0, 74, 0
1, 22249, Note_on_c, 0, 57, 0
1, 22317, Note_on_c, 0, 63, 54
1, 22333, Note_on_c, 0, 66, 42
1, 22337, Note_on_c, 0, 72, 44
1, 22345, Note_on_c, 0, 57, 31
1, 22349, Note_on_c, 0, 69, 45
1, 22433, Note_on_c, 0, 51, 0
1, 22497, Note_on_c, 0, 57, 0
1, 22537, Note_on_c, 0, 72, 0
1, 22553, Note_on_c, 0, 63, 0
1, 22605, Note_on_c, 0, 69, 0
1, 22661, Note_on_c, 0, 51, 41
1, 22669, Note_on_c, 0, 66, 0
1, 22777, Control_c, 0, 64, 0
1, 22813, Note_on_c, 0, 51, 0
1, 22841, Note_on_c, 0, 62, 58
1, 22857, Note_on_c, 0, 46, 45
1, 22881, Note_on_c, 0, 62, 0
1, 22933, Control_c, 0, 64, 127
1, 23149, Note_on_c, 0, 70, 55
1, 23161, Note_on_c, 0, 62, 56
1, 23169, Note_on_c, 0, 53, 49
1, 23189, Note_on_c, 0, 65, 36
1, 23205, Note_on_c, 0, 70, 0
1, 23217, Note_on_c, 0, 53, 0
1, 23225, Note_on_c, 0, 65, 0
1, 23225, Note_on_c, 0, 62, 0
1, 23257, Control_c, 0, 64, 0
1, 23353, Note_on_c, 0, 72, 61
1, 23361, Note_on_c, 0, 62, 49
1, 23373, Note_on_c, 0, 55, 39
1, 23389, Note_on_c, 0, 62, 0
1, 23397, Note_on_c, 0, 46, 0
1, 23401, Control_c, 0, 64, 127
1, 23405, Note_on_c, 0, 55, 0
1, 23433, Note_on_c, 0, 72, 0
1, 23637, Control_c, 0, 64, 0
1, 23649, Note_on_c, 0, 74, 79
1, 23657, Note_on_c, 0, 58, 57
1, 23657, Note_on_c, 0, 67, 68
1, 23657, Note_on_c, 0, 62, 64
1, 23665, Note_on_c, 0, 51, 55
1, 23673, Note_on_c, 0, 70, 54
1, 23825, Control_c, 0, 64, 127
1, 23849, Note_on_c, 0, 62, 0
1, 23885, Note_on_c, 0, 67, 0
1, 23897, Note_on_c, 0, 58, 0
1, 23929, Note_on_c, 0, 70, 0
1, 23945, Note_on_c, 0, 74, 0
1, 24149, Note_on_c, 0, 58, 62
1, 24157, Note_on_c, 0, 62, 55
1, 24385, Note_on_c, 0, 51, 0
1, 24393, Note_on_c, 0, 58, 0
1, 24433, Note_on_c, 0, 62, 0
1, 24617, Note_on_c, 0, 63, 55
1, 24625, Note_on_c, 0, 54, 45
1, 24629, Note_on_c, 0, 59, 56
1, 24633, Note_on_c, 0, 58, 45
1, 24649, Control_c, 0, 64, 0
1, 24805, Note_on_c, 0, 70, 38
1, 24833, Control_c, 0, 64, 127
1, 24961, Note_on_c, 0, 70, 0
1, 24969, Note_on_c, 0, 59, 0
1, 24997, Note_on_c, 0, 63, 0
1, 25025, Note_on_c, 0, 58, 0
1, 25149, Note_on_c, 0, 82, 45
1, 25189, Note_on_c, 0, 82, 0
1, 25261, Control_c, 0, 64, 0
1, 25273, Note_on_c, 0, 63, 36
1, 25289, Note_on_c, 0, 58, 30
1, 25309, Note_on_c, 0, 70, 38
1, 25309, Note_on_c, 0, 85, 47
1, 25309, Note_on_c, 0, 59, 33
1, 25405, Control_c, 0, 64, 127
1, 25521, Note_on_c, 0, 70, 0
1, 25525, Note_on_c, 0, 85, 0
1, 25525, Note_on_c, 0, 63, 0
1, 25585, Note_on_c, 0, 54, 0
1, 25605, Note_on_c, 0, 58, 0
1, 25621, Note_on_c, 0, 70, 52
1, 25621, Note_on_c, 0, 85, 55
1, 25665, Note_on_c, 0, 59, 0
1, 25705, Control_c, 0, 64, 0
1, 25717, Note_on_c, 0, 70, 0
1, 25729, Note_on_c, 0, 85, 0
1, 25765, Note_on_c, 0, 53, 42
1, 25769, Note_on_c, 0, 59, 43
1, 25769, Note_on_c, 0, 63, 39
1, 25785, Note_on_c, 0, 58, 39
1, 25829, Note_on_c, 0, 82, 34
1, 25857, Note_on_c, 0, 70, 20
1, 25869, Control_c, 0, 64, 127
1, 25953, Note_on_c, 0, 53, 0
1, 25969, Note_on_c, 0, 63, 0
1, 25969, Note_on_c, 0, 70, 0
1, 26009, Note_on_c, 0, 82, 0
1, 26013, Note_on_c, 0, 58, 0
1, 26041, Note_on_c, 0, 59, 0
1, 26101, Note_on_c, 0, 70, 62
1, 26105, Note_on_c, 0, 85, 57
1, 26153, Note_on_c, 0, 70, 0
1, 26157, Note_on_c, 0, 85, 0
1, 26197, Control_c, 0, 64, 0
1, 26253, Note_on_c, 0, 63, 50
1, 26265, Note_on_c, 0, 59, 49
1, 26269, Note_on_c, 0, 58, 40
1, 26285, Note_on_c, 0, 53, 33
1, 26293, Note_on_c, 0, 63, 0
1, 26297, Note_on_c, 0, 59, 0
1, 26301, Control_c, 0, 64, 127
1, 26321, Note_on_c, 0, 58, 0
1, 26325, Note_on_c, 0, 53, 0
1, 26605, Note_on_c, 0, 39, 68
1, 26717, Control_c, 0, 64, 0
1, 26721, Note_on_c, 0, 39, 0
1, 26773, Control_c, 0, 64, 127
1, 26981, Control_c, 0, 64, 0
1, 27069, Note_on_c, 0, 42, 66
1, 27077, Note_on_c, 0, 44, 61
1, 27105, Note_on_c, 0, 44, 0
1, 27137, Note_on_c, 0, 42, 0
1, 27137, Control_c, 0, 64, 127
1, 27269, Note_on_c, 0, 85, 82
1, 27269, Note_on_c, 0, 70, 86
1, 27281, Note_on_c, 0, 63, 66
1, 27289, Note_on_c, 0, 82, 48
1, 27301, Note_on_c, 0, 58, 36
1, 27309, Note_on_c, 0, 63, 0
1, 27321, Note_on_c, 0, 82, 0
1, 27341, Note_on_c, 0, 58, 0
1, 27445, Note_on_c, 0, 85, 0
1, 27449, Note_on_c, 0, 70, 0
1, 27565, Note_on_c, 0, 85, 81
1, 27577, Note_on_c, 0, 70, 79
1, 27677, Note_on_c, 0, 70, 0
1, 27689, Note_on_c, 0, 85, 0
1, 27701, Control_c, 0, 64, 0
1, 27761, Note_on_c, 0, 54, 52
1, 27765, Note_on_c, 0, 47, 56
1, 27781, Note_on_c, 0, 82, 56
1, 27825, Control_c, 0, 64, 127
1, 27953, Note_on_c, 0, 82, 0
1, 27981, Note_on_c, 0, 54, 0
1, 28053, Note_on_c, 0, 54, 60
1, 28061, Note_on_c, 0, 70, 84
1, 28069, Note_on_c, 0, 82, 71
1, 28069, Note_on_c, 0, 85, 67
1, 28073, Control_c, 0, 64, 0
1, 28197, Control_c, 0, 64, 127
1, 28253, Note_on_c, 0, 47, 0
1, 28333, Note_on_c, 0, 70, 0
1, 28401, Note_on_c, 0, 85, 0
1, 28413, Note_on_c, 0, 82, 0
1, 28481, Note_on_c, 0, 54, 0
1, 28549, Note_on_c, 0, 54, 59
1, 28717, Control_c, 0, 64, 0
1, 28721, Note_on_c, 0, 54, 0
1, 28749, Note_on_c, 0, 48, 75
1, 28809, Control_c, 0, 64, 127
1, 29225, Control_c, 0, 64, 0
1, 29257, Note_on_c, 0, 68, 55
1, 29265, Note_on_c, 0, 56, 48
1, 29273, Note_on_c, 0, 66, 47
1, 29273, Note_on_c, 0, 63, 47
1, 29273, Note_on_c, 0, 61, 50
1, 29337, Note_on_c, 0, 56, 0
1, 29345, Note_on_c, 0, 61, 0
1, 29353, Note_on_c, 0, 68, 0
1, 29357, Note_on_c, 0, 63, 0
1, 29357, Note_on_c, 0, 66, 0
1, 29421, Note_on_c, 0, 61, 44
1, 29425, Note_on_c, 0, 56, 49
1, 29433, Note_on_c, 0, 63, 43
1, 29453, Note_on_c, 0, 66, 36
1, 29473, Note_on_c, 0, 63, 0
1, 29481, Note_on_c, 0, 56, 0
1, 29493, Note_on_c, 0, 66, 0
1, 29493, Note_on_c, 0, 61, 0
1, 29537, Note_on_c, 0, 48, 0
1, 29621, Note_on_c, 0, 68, 63
1, 29625, Note_on_c, 0, 61, 56
1, 29633, Note_on_c, 0, 57, 57
1, 29633, Note_on_c, 0, 63, 57
1, 29645, Note_on_c, 0, 56, 52
1, 29797, Control_c, 0, 64, 127
1, 29881, Note_on_c, 0, 57, 0
1, 29893, Note_on_c, 0, 63, 0
1, 29901, Note_on_c, 0, 61, 0
1, 29909, Note_on_c, 0, 56, 0
1, 29925, Note_on_c, 0, 68, 0
1, 29929, Control_c, 0, 64, 0
1, 29949, Note_on_c, 0, 66, 57
1, 29949, Note_on_c, 0, 57, 54
1, 29961, Note_on_c, 0, 54, 51
1, 29965, Note_on_c, 0, 61, 54
1, 29973, Note_on_c, 0, 63, 48
1, 30005, Control_c, 0, 64, 127
1, 30145, Note_on_c, 0, 57, 0
1, 30173, Note_on_c, 0, 66, 0
1, 30173, Note_on_c, 0, 54, 0
1, 30189, Note_on_c, 0, 61, 0
1, 30193, Control_c, 0, 64, 0
1, 30213, Note_on_c, 0, 63, 0
1, 30273, Note_on_c, 0, 65, 53
1, 30273, Note_on_c, 0, 53, 46
1, 30281, Note_on_c, 0, 57, 43
1, 30281, Control_c, 0, 64, 127
1, 30285, Note_on_c, 0, 61, 49
1, 30357, Note_on_c, 0, 53, 0
1, 30377, Note_on_c, 0, 61, 0
1, 30393, Note_on_c, 0, 57, 0
1, 30393, Note_on_c, 0, 65, 0
1, 30409, Note_on_c, 0, 63, 57
1, 30433, Note_on_c, 0, 51, 55
1, 30461, Note_on_c, 0, 63, 0
1, 30469, Note_on_c, 0, 51, 0
1, 30569, Control_c, 0, 64, 0
1, 30593, Note_on_c, 0, 64, 69
1, 30605, Note_on_c, 0, 60, 65
1, 30609, Note_on_c, 0, 46, 63
1, 30617, Note_on_c, 0, 55, 57
1, 30781, Control_c, 0, 64, 24
1, 30781, Control_c, 0, 64, 127
1, 30961, Note_on_c, 0, 55, 0
1, 31089, Note_on_c, 0, 64, 0
1, 31101, Note_on_c, 0, 60, 0
1, 31173, Control_c, 0, 64, 0
1, 31201, Note_on_c, 0, 60, 42
1, 31201, Note_on_c, 0, 65, 56
1, 31209, Note_on_c, 0, 62, 58
1, 31297, Control_c, 0, 64, 127
1, 31505, Note_on_c, 0, 53, 68
1, 31533, Control_c, 0, 64, 0
1, 31573, Control_c, 0, 64, 127
1, 31669, Note_on_c, 0, 60, 0
1, 31697, Note_on_c, 0, 62, 0
1, 31737, Note_on_c, 0, 65, 0
1, 31801, Note_on_c, 0, 46, 0
1, 31965, Note_on_c, 0, 46, 58
1, 32021, Control_c, 0, 64, 0
1, 32117, Note_on_c, 0, 46, 0
1, 32117, Control_c, 0, 64, 127
1, 32145, Note_on_c, 0, 53, 0
1, 32169, Note_on_c, 0, 69, 39
1, 32217, Note_on_c, 0, 69, 0
1, 32305, Note_on_c, 0, 70, 60
1, 32361, Note_on_c, 0, 70, 0
1, 32449, Note_on_c, 0, 74, 81
1, 32541, Note_on_c, 0, 74, 0
1, 32601, Control_c, 0, 64, 0
1, 32609, Note_on_c, 0, 78, 84
1, 32717, Note_on_c, 0, 78, 0
1, 32757, Note_on_c, 0, 81, 78
1, 32789, Control_c, 0, 64, 127
1, 32841, Note_on_c, 0, 81, 0
1, 32889, Control_c, 0, 64, 0
1, 32921, Note_on_c, 0, 81, 78
1, 32921, Note_on_c, 0, 66, 63
1, 32933, Note_on_c, 0, 62, 54
1, 32949, Note_on_c, 0, 59, 56
1, 32961, Note_on_c, 0, 55, 37
1, 33009, Note_on_c, 0, 81, 0
1, 33089, Note_on_c, 0, 81, 66
1, 33097, Control_c, 0, 64, 127
1, 33157, Control_c, 0, 64, 56
1, 33157, Control_c, 0, 64, 0
1, 33165, Note_on_c, 0, 81, 0
1, 33253, Note_on_c, 0, 84, 72
1, 33317, Note_on_c, 0, 84, 0
1, 33337, Note_on_c, 0, 62, 0
1, 33337, Control_c, 0, 64, 56
1, 33341, Control_c, 0, 64, 127
1, 33389, Note_on_c, 0, 55, 0
1, 33405, Note_on_c, 0, 59, 0
1, 33405, Note_on_c, 0, 84, 72
1, 33465, Note_on_c, 0, 66, 0
1, 33469, Note_on_c, 0, 84, 0
1, 33545, Control_c, 0, 64, 0
1, 33573, Note_on_c, 0, 84, 87
1, 33581, Note_on_c, 0, 66, 54
1, 33593, Note_on_c, 0, 61, 49
1, 33601, Note_on_c, 0, 55, 39
1, 33729, Note_on_c, 0, 83, 61
1, 33741, Note_on_c, 0, 84, 0
1, 33805, Note_on_c, 0, 83, 0
1, 33809, Note_on_c, 0, 82, 66
1, 33885, Note_on_c, 0, 82, 0
1, 33905, Note_on_c, 0, 81, 58
1, 33973, Note_on_c, 0, 81, 0
1, 33981, Note_on_c, 0, 55, 0
1, 33989, Note_on_c, 0, 66, 0
1, 34029, Note_on_c, 0, 61, 0
1, 34077, Control_c, 0, 64, 24
1, 34081, Control_c, 0, 64, 127
1, 34097, Note_on_c, 0, 66, 55
1, 34101, Note_on_c, 0, 61, 50
1, 34109, Note_on_c, 0, 81, 66
1, 34125, Note_on_c, 0, 55, 39
1, 34329, Note_on_c, 0, 55, 0
1, 34357, Note_on_c, 0, 81, 0
1, 34361, Note_on_c, 0, 66, 0
1, 34401, Note_on_c, 0, 80, 56
1, 34493, Note_on_c, 0, 61, 0
1, 34509, Control_c, 0, 64, 0
1, 34537, Note_on_c, 0, 80, 0
1, 34557, Note_on_c, 0, 61, 31
1, 34569, Note_on_c, 0, 64, 48
1, 34581, Note_on_c, 0, 54, 42
1, 34597, Note_on_c, 0, 59, 42
1, 34597, Note_on_c, 0, 81, 52
1, 34601, Control_c, 0, 64, 127
1, 34625, Note_on_c, 0, 64, 0
1, 34629, Note_on_c, 0, 59, 0
1, 34649, Note_on_c, 0, 61, 0
1, 34685, Note_on_c, 0, 54, 0
1, 34737, Note_on_c, 0, 81, 0
1, 34889, Note_on_c, 0, 50, 59
1, 35041, Control_c, 0, 64, 0
1, 35077, Note_on_c, 0, 61, 56
1, 35077, Note_on_c, 0, 69, 50
1, 35089, Note_on_c, 0, 57, 49
1, 35097, Note_on_c, 0, 66, 45
1, 35101, Note_on_c, 0, 64, 49
1, 35121, Note_on_c, 0, 57, 0
1, 35129, Control_c, 0, 64, 127
1, 35189, Note_on_c, 0, 50, 0
1, 35241, Note_on_c, 0, 69, 0
1, 35241, Note_on_c, 0, 64, 0
1, 35273, Note_on_c, 0, 61, 0
1, 35297, Note_on_c, 0, 66, 0
1, 35377, Note_on_c, 0, 49, 64
1, 35505, Control_c, 0, 64, 0
1, 35545, Note_on_c, 0, 49, 0
1, 35561, Note_on_c, 0, 66, 54
1, 35573, Note_on_c, 0, 57, 49
1, 35573, Note_on_c, 0, 61, 49
1, 35573, Note_on_c, 0, 50, 57
1, 35717, Control_c, 0, 64, 127
1, 35837, Note_on_c, 0, 57, 0
1, 35853, Note_on_c, 0, 50, 0
1, 35869, Note_on_c, 0, 38, 76
1, 35893, Note_on_c, 0, 61, 0
1, 35913, Note_on_c, 0, 66, 0
1, 35973, Control_c, 0, 64, 0
1, 36049, Note_on_c, 0, 38, 0
1, 36053, Control_c, 0, 64, 127
1, 36065, Note_on_c, 0, 50, 55
1, 36069, Note_on_c, 0, 61, 59
1, 36077, Note_on_c, 0, 66, 43
1, 36085, Note_on_c, 0, 57, 50
1, 36105, Note_on_c, 0, 50, 0
1, 36177, Note_on_c, 0, 57, 0
1, 36193, Note_on_c, 0, 66, 0
1, 36221, Note_on_c, 0, 61, 0
1, 36389, Note_on_c, 0, 40, 55
1, 36533, Control_c, 0, 64, 0
1, 36549, Note_on_c, 0, 47, 51
1, 36557, Note_on_c, 0, 55, 62
1, 36565, Note_on_c, 0, 67, 73
1, 36569, Note_on_c, 0, 62, 74
1, 36577, Note_on_c, 0, 59, 68
1, 36589, Note_on_c, 0, 40, 0
1, 36665, Control_c, 0, 64, 127
1, 36673, Note_on_c, 0, 47, 0
1, 36713, Note_on_c, 0, 55, 0
1, 36757, Note_on_c, 0, 59, 0
1, 36825, Note_on_c, 0, 62, 0
1, 36849, Note_on_c, 0, 67, 0
1, 37001, Control_c, 0, 64, 0
1, 37029, Note_on_c, 0, 46, 70
1, 37029, Note_on_c, 0, 69, 77
1, 37033, Note_on_c, 0, 62, 81
1, 37033, Note_on_c, 0, 56, 72
1, 37037, Note_on_c, 0, 65, 63
1, 37041, Note_on_c, 0, 59, 75
1, 37169, Control_c, 0, 64, 127
1, 37229, Note_on_c, 0, 59, 0
1, 37257, Note_on_c, 0, 69, 0
1, 37257, Note_on_c, 0, 62, 0
1, 37261, Note_on_c, 0, 65, 0
1, 37305, Note_on_c, 0, 56, 0
1, 37329, Note_on_c, 0, 46, 0
1, 37477, Control_c, 0, 64, 0
1, 37513, Note_on_c, 0, 70, 69
1, 37513, Note_on_c, 0, 61, 75
1, 37513, Note_on_c, 0, 45, 69
1, 37513, Note_on_c, 0, 66, 70
1, 37521, Note_on_c, 0, 55, 66
1, 37593, Control_c, 0, 64, 127
1, 37701, Note_on_c, 0, 55, 0
1, 37721, Note_on_c, 0, 61, 0
1, 37797, Note_on_c, 0, 66, 0
1, 37873, Note_on_c, 0, 70, 0
1, 37957, Control_c, 0, 64, 0
1, 37997, Note_on_c, 0, 72, 68
1, 38001, Note_on_c, 0, 66, 72
1, 38009, Note_on_c, 0, 61, 68
1, 38017, Note_on_c, 0, 57, 56
1, 38025, Note_on_c, 0, 69, 51
1, 38057, Control_c, 0, 64, 127
1, 38069, Note_on_c, 0, 45, 0
1, 38157, Note_on_c, 0, 61, 0
1, 38165, Note_on_c, 0, 69, 0
1, 38181, Note_on_c, 0, 72, 0
1, 38237, Note_on_c, 0, 66, 0
1, 38241, Note_on_c, 0, 57, 0
1, 38445, Control_c, 0, 64, 0
1, 38493, Note_on_c, 0, 66, 56
1, 38501, Note_on_c, 0, 50, 50
1, 38501, Note_on_c, 0, 73, 55
1, 38505, Note_on_c, 0, 62, 45
1, 38521, Note_on_c, 0, 57, 41
1, 38533, Note_on_c, 0, 69, 31
1, 38553, Control_c, 0, 64, 127
1, 38589, Note_on_c, 0, 69, 0
1, 38601, Note_on_c, 0, 62, 0
1, 38665, Note_on_c, 0, 66, 0
1, 38669, Note_on_c, 0, 73, 0
1, 38693, Note_on_c, 0, 50, 0
1, 38757, Note_on_c, 0, 57, 0
1, 38841, Note_on_c, 0, 64, 63
1, 38841, Note_on_c, 0, 76, 65
1, 38845, Note_on_c, 0, 66, 57
1, 38849, Control_c, 0, 64, 0
1, 38853, Note_on_c, 0, 69, 57
1, 38853, Note_on_c, 0, 73, 52
1, 38985, Control_c, 0, 64, 127
1, 39057, Note_on_c, 0, 64, 0
1, 39065, Note_on_c, 0, 66, 0
1, 39069, Note_on_c, 0, 69, 0
1, 39077, Note_on_c, 0, 73, 0
1, 39081, Note_on_c, 0, 76, 0
1, 39145, Control_c, 0, 64, 0
1, 39165, Note_on_c, 0, 66, 62
1, 39169, Note_on_c, 0, 62, 52
1, 39177, Note_on_c, 0, 69, 47
1, 39177, Note_on_c, 0, 74, 63
1, 39209, Control_c, 0, 64, 127
1, 39365, Note_on_c, 0, 66, 0
1, 39377, Note_on_c, 0, 69, 0
1, 39429, Note_on_c, 0, 74, 0
1, 39429, Control_c, 0, 64, 0
1, 39473, Note_on_c, 0, 62, 0
1, 39493, Control_c, 0, 64, 127
1, 39497, Note_on_c, 0, 66, 50
1, 39497, Note_on_c, 0, 61, 52
1, 39505, Note_on_c, 0, 73, 52
1, 39517, Note_on_c, 0, 69, 45
1, 39653, Note_on_c, 0, 69, 0
1, 39669, Note_on_c, 0, 66, 0
1, 39717, Note_on_c, 0, 73, 0
1, 39817, Note_on_c, 0, 66, 50
1, 39821, Control_c, 0, 64, 0
1, 39825, Note_on_c, 0, 74, 58
1, 39825, Note_on_c, 0, 62, 49
1, 39845, Note_on_c, 0, 69, 39
1, 39865, Control_c, 0, 64, 127
1, 39873, Note_on_c, 0, 61, 0
1, 39917, Note_on_c, 0, 66, 0
1, 39941, Note_on_c, 0, 62, 0
1, 39949, Note_on_c, 0, 69, 0
1, 40017, Note_on_c, 0, 74, 0
1, 40201, Note_on_c, 0, 69, 55
1, 40205, Note_on_c, 0, 60, 48
1, 40213, Note_on_c, 0, 66, 36
1, 40341, Note_on_c, 0, 60, 0
1, 40373, Note_on_c, 0, 69, 0
1, 40389, Note_on_c, 0, 66, 0
1, 40501, Control_c, 0, 64, 0
1, 40517, Note_on_c, 0, 65, 52
1, 40521, Note_on_c, 0, 57, 56
1, 40525, Note_on_c, 0, 69, 56
1, 40545, Note_on_c, 0, 60, 45
1, 40613, Control_c, 0, 64, 127
1, 40801, Note_on_c, 0, 57, 0
1, 40825, Note_on_c, 0, 60, 0
1, 40837, Note_on_c, 0, 55, 57
1, 40921, Note_on_c, 0, 55, 0
1, 40993, Note_on_c, 0, 69, 0
1, 41041, Note_on_c, 0, 65, 0
1, 41317, Note_on_c, 0, 50, 47
1, 41321, Note_on_c, 0, 43, 51
1, 41457, Note_on_c, 0, 60, 47
1, 41461, Control_c, 0, 64, 0
1, 41485, Note_on_c, 0, 60, 0
1, 41533, Note_on_c, 0, 62, 52
1, 41557, Note_on_c, 0, 62, 0
1, 41605, Note_on_c, 0, 62, 61
1, 41609, Control_c, 0, 64, 127
1, 41625, Note_on_c, 0, 43, 0
1, 41637, Note_on_c, 0, 62, 0
1, 41653, Note_on_c, 0, 50, 0
1, 41693, Note_on_c, 0, 64, 55
1, 41721, Note_on_c, 0, 64, 0
1, 41765, Note_on_c, 0, 64, 58
1, 41829, Note_on_c, 0, 64, 0
1, 41845, Note_on_c, 0, 65, 60
1, 41865, Control_c, 0, 64, 0
1, 41873, Note_on_c, 0, 65, 0
1, 41913, Note_on_c, 0, 60, 44
1, 41921, Note_on_c, 0, 65, 60
1, 41925, Note_on_c, 0, 55, 36
1, 41933, Note_on_c, 0, 57, 36
1, 41949, Note_on_c, 0, 65, 0
1, 41977, Note_on_c, 0, 55, 0
1, 41993, Note_on_c, 0, 67, 59
1, 42017, Note_on_c, 0, 67, 0
1, 42029, Note_on_c, 0, 60, 0
1, 42057, Note_on_c, 0, 57, 0
1, 42057, Note_on_c, 0, 67, 50
1, 42117, Note_on_c, 0, 67, 0
1, 42141, Note_on_c, 0, 69, 49
1, 42169, Note_on_c, 0, 69, 0
1, 42217, Note_on_c, 0, 69, 46
1, 42285, Note_on_c, 0, 69, 0
1, 42285, Note_on_c, 0, 71, 65
1, 42345, Note_on_c, 0, 71, 0
1, 42345, Note_on_c, 0, 64, 46
1, 42349, Note_on_c, 0, 59, 41
1, 42361, Note_on_c, 0, 53, 46
1, 42625, Control_c, 0, 64, 127
1, 42693, Note_on_c, 0, 64, 0
1, 42729, Note_on_c, 0, 59, 0
1, 42765, Note_on_c, 0, 59, 45
1, 42777, Note_on_c, 0, 62, 61
1, 42805, Note_on_c, 0, 62, 0
1, 42841, Note_on_c, 0, 59, 0
1, 42853, Control_c, 0, 64, 0
1, 42897, Note_on_c, 0, 53, 0
1, 42917, Control_c, 0, 64, 127
1, 43145, Note_on_c, 0, 43, 74
1, 43241, Note_on_c, 0, 43, 0
1, 43289, Note_on_c, 0, 71, 71
1, 43293, Control_c, 0, 64, 0
1, 43417, Note_on_c, 0, 71, 0
1, 43453, Note_on_c, 0, 76, 68
1, 43461, Control_c, 0, 64, 104
1, 43465, Control_c, 0, 64, 127
1, 43469, Note_on_c, 0, 67, 56
1, 43473, Note_on_c, 0, 71, 72
1, 43565, Note_on_c, 0, 71, 0
1, 43573, Note_on_c, 0, 67, 0
1, 43641, Note_on_c, 0, 76, 0
1, 43753, Note_on_c, 0, 79, 87
1, 43761, Note_on_c, 0, 74, 76
1, 43769, Note_on_c, 0, 69, 56
1, 43769, Note_on_c, 0, 64, 69
1, 43777, Note_on_c, 0, 71, 66
1, 43801, Note_on_c, 0, 71, 0
1, 43817, Note_on_c, 0, 74, 0
1, 43829, Note_on_c, 0, 79, 0
1, 43833, Note_on_c, 0, 69, 0
1, 43909, Control_c, 0, 64, 0
1, 43933, Note_on_c, 0, 64, 0
1, 43949, Note_on_c, 0, 67, 60
1, 43949, Note_on_c, 0, 76, 63
1, 43953, Control_c, 0, 64, 127
1, 43957, Note_on_c, 0, 71, 56
1, 43965, Note_on_c, 0, 62, 48
1, 44025, Note_on_c, 0, 62, 0
1, 44041, Note_on_c, 0, 71, 0
1, 44041, Note_on_c, 0, 67, 0
1, 44069, Note_on_c, 0, 76, 0
1, 44289, Note_on_c, 0, 53, 60
1, 44313, Note_on_c, 0, 53, 0
1, 44429, Control_c, 0, 64, 0
1, 44457, Note_on_c, 0, 73, 60
1, 44461, Note_on_c, 0, 66, 60
1, 44465, Note_on_c, 0, 54, 51
1, 44465, Note_on_c, 0, 70, 61
1, 44485, Note_on_c, 0, 56, 41
1, 44521, Note_on_c, 0, 56, 0
1, 44557, Control_c, 0, 64, 127
1, 44761, Note_on_c, 0, 39, 68
1, 44777, Note_on_c, 0, 66, 0
1, 44809, Note_on_c, 0, 70, 0
1, 44857, Note_on_c, 0, 39, 0
1, 44873, Note_on_c, 0, 73, 0
1, 44909, Note_on_c, 0, 54, 0
1, 45277, Note_on_c, 0, 58, 71
1, 45281, Note_on_c, 0, 65, 80
1, 45281, Note_on_c, 0, 54, 72
1, 45281, Note_on_c, 0, 61, 68
1, 45285, Note_on_c, 0, 89, 85
1, 45289, Note_on_c, 0, 82, 72
1, 45289, Note_on_c, 0, 77, 74
1, 45297, Note_on_c, 0, 85, 61
1, 45385, Note_on_c, 0, 77, 0
1, 45413, Note_on_c, 0, 65, 0
1, 45417, Note_on_c, 0, 89, 0
1, 45417, Note_on_c, 0, 82, 0
1, 45441, Note_on_c, 0, 85, 0
1, 45445, Note_on_c, 0, 61, 0
1, 45457, Note_on_c, 0, 54, 0
1, 45497, Note_on_c, 0, 58, 0
1, 45517, Control_c, 0, 64, 0
1, 45537, Note_on_c, 0, 90, 75
1, 45545, Note_on_c, 0, 54, 56
1, 45545, Note_on_c, 0, 58, 54
1, 45549, Note_on_c, 0, 85, 76
1, 45549, Note_on_c, 0, 64, 67
1, 45553, Note_on_c, 0, 78, 65
1, 45553, Note_on_c, 0, 60, 63
1, 45613, Control_c, 0, 64, 127
1, 45753, Note_on_c, 0, 78, 0
1, 45761, Note_on_c, 0, 85, 0
1, 45773, Note_on_c, 0, 64, 0
1, 45777, Note_on_c, 0, 54, 0
1, 45785, Note_on_c, 0, 90, 0
1, 45793, Note_on_c, 0, 60, 0
1, 45797, Note_on_c, 0, 58, 0
1, 45897, Note_on_c, 0, 92, 68
1, 45897, Note_on_c, 0, 80, 67
1, 45897, Note_on_c, 0, 58, 52
1, 45897, Note_on_c, 0, 64, 58
1, 45897, Note_on_c, 0, 54, 51
1, 45905, Note_on_c, 0, 87, 60
1, 45909, Control_c, 0, 64, 0
1, 45913, Note_on_c, 0, 60, 53
1, 46009, Control_c, 0, 64, 127
1, 46157, Note_on_c, 0, 60, 0
1, 46161, Note_on_c, 0, 92, 0
1, 46161, Note_on_c, 0, 87, 0
1, 46165, Note_on_c, 0, 58, 0
1, 46173, Note_on_c, 0, 54, 0
1, 46177, Note_on_c, 0, 80, 0
1, 46197, Note_on_c, 0, 64, 0
1, 46393, Control_c, 0, 64, 0
1, 46417, Note_on_c, 0, 91, 58
1, 46421, Note_on_c, 0, 65, 47
1, 46421, Note_on_c, 0, 79, 48
1, 46421, Note_on_c, 0, 55, 52
1, 46421, Note_on_c, 0, 60, 58
1, 46429, Note_on_c, 0, 57, 46
1, 46441, Note_on_c, 0, 84, 33
1, 46505, Control_c, 0, 64, 127
1, 46513, Note_on_c, 0, 65, 0
1, 46549, Note_on_c, 0, 60, 0
1, 46577, Note_on_c, 0, 57, 0
1, 46585, Note_on_c, 0, 55, 0
1, 46593, Note_on_c, 0, 91, 0
1, 46621, Note_on_c, 0, 84, 0
1, 46637, Note_on_c, 0, 79, 0
1, 46913, Note_on_c, 0, 43, 60
1, 47061, Control_c, 0, 64, 0
1, 47133, Note_on_c, 0, 64, 45
1, 47149, Note_on_c, 0, 57, 39
1, 47149, Note_on_c, 0, 53, 30
1, 47153, Note_on_c, 0, 59, 41
1, 47257, Control_c, 0, 64, 127
1, 47261, Note_on_c, 0, 53, 0
1, 47297, Note_on_c, 0, 57, 0
1, 47313, Note_on_c, 0, 59, 0
1, 47317, Note_on_c, 0, 64, 0
1, 47433, Control_c, 0, 64, 0
1, 47445, Note_on_c, 0, 55, 79
1, 47661, Note_on_c, 0, 57, 42
1, 47661, Note_on_c, 0, 64, 45
1, 47685, Note_on_c, 0, 43, 0
1, 47693, Note_on_c, 0, 57, 0
1, 47701, Note_on_c, 0, 64, 0
1, 47829, Control_c, 0, 64, 127
1, 47981, Note_on_c, 0, 43, 54
1, 47997, Note_on_c, 0, 55, 0
1, 48009, Note_on_c, 0, 43, 0
1, 48085, Control_c, 0, 64, 0
1, 48161, Note_on_c, 0, 74, 61
1, 48169, Note_on_c, 0, 65, 39
1, 48185, Note_on_c, 0, 69, 41
1, 48209, Note_on_c, 0, 65, 0
1, 48217, Control_c, 0, 64, 127
1, 48221, Note_on_c, 0, 69, 0
1, 48241, Note_on_c, 0, 74, 0
1, 48453, Note_on_c, 0, 75, 57
1, 48469, Note_on_c, 0, 63, 52
1, 48481, Note_on_c, 0, 68, 30
1, 48513, Note_on_c, 0, 70, 31
1, 48525, Note_on_c, 0, 68, 0
1, 48545, Note_on_c, 0, 63, 0
1, 48557, Note_on_c, 0, 70, 0
1, 48565, Note_on_c, 0, 75, 0
1, 48581, Control_c, 0, 64, 0
1, 48641, Note_on_c, 0, 63, 36
1, 48645, Note_on_c, 0, 74, 49
1, 48649, Note_on_c, 0, 67, 48
1, 48669, Note_on_c, 0, 62, 49
1, 48853, Note_on_c, 0, 62, 0
1, 48917, Control_c, 0, 64, 127
1, 48945, Note_on_c, 0, 67, 0
1, 49001, Note_on_c, 0, 62, 56
1, 49017, Note_on_c, 0, 63, 0
1, 49057, Note_on_c, 0, 62, 0
1, 49101, Control_c, 0, 64, 0
1, 49149, Note_on_c, 0, 63, 42
1, 49161, Note_on_c, 0, 67, 55
1, 49441, Note_on_c, 0, 67, 0
1, 49461, Note_on_c, 0, 60, 76
1, 49501, Note_on_c, 0, 63, 0
1, 49665, Note_on_c, 0, 63, 41
1, 49685, Note_on_c, 0, 67, 48
1, 49713, Control_c, 0, 64, 127
1, 49901, Note_on_c, 0, 60, 0
1, 49917, Note_on_c, 0, 67, 0
1, 49965, Note_on_c, 0, 54, 49
1, 49993, Note_on_c, 0, 63, 0
1, 50041, Note_on_c, 0, 74, 0
1, 50085, Control_c, 0, 64, 0
1, 50113, Note_on_c, 0, 54, 0
1, 50153, Note_on_c, 0, 63, 47
1, 50161, Note_on_c, 0, 72, 48
1, 50169, Note_on_c, 0, 57, 39
1, 50177, Note_on_c, 0, 66, 40
1, 50213, Note_on_c, 0, 69, 31
1, 50245, Control_c, 0, 64, 127
1, 50269, Note_on_c, 0, 57, 0
1, 50329, Note_on_c, 0, 69, 0
1, 50333, Note_on_c, 0, 72, 0
1, 50369, Note_on_c, 0, 66, 0
1, 50377, Note_on_c, 0, 63, 0
1, 50469, Note_on_c, 0, 50, 43
1, 50541, Note_on_c, 0, 50, 0
1, 50605, Control_c, 0, 64, 0
1, 50645, Note_on_c, 0, 70, 45
1, 50661, Note_on_c, 0, 58, 36
1, 50677, Note_on_c, 0, 62, 45
1, 50689, Note_on_c, 0, 57, 48
1, 50697, Note_on_c, 0, 65, 36
1, 50893, Note_on_c, 0, 57, 0
1, 50973, Note_on_c, 0, 56, 57
1, 51017, Note_on_c, 0, 65, 0
1, 51033, Note_on_c, 0, 62, 0
1, 51053, Note_on_c, 0, 58, 0
1, 51105, Note_on_c, 0, 56, 0
1, 51149, Note_on_c, 0, 58, 41
1, 51173, Note_on_c, 0, 55, 49
1, 51177, Note_on_c, 0, 62, 38
1, 51397, Control_c, 0, 64, 127
1, 51405, Note_on_c, 0, 55, 0
1, 51437, Note_on_c, 0, 62, 0
1, 51437, Note_on_c, 0, 58, 0
1, 51461, Note_on_c, 0, 54, 54
1, 51529, Control_c, 0, 64, 0
1, 51577, Note_on_c, 0, 54, 0
1, 51653, Note_on_c, 0, 58, 40
1, 51661, Note_on_c, 0, 53, 51
1, 51685, Note_on_c, 0, 62, 37
1, 51705, Note_on_c, 0, 65, 26
1, 51845, Note_on_c, 0, 53, 0
1, 51865, Note_on_c, 0, 58, 0
1, 51889, Note_on_c, 0, 65, 0
1, 51897, Note_on_c, 0, 62, 0
1, 51977, Note_on_c, 0, 51, 50
1, 52073, Note_on_c, 0, 70, 0
1, 52101, Note_on_c, 0, 51, 0
1, 52161, Note_on_c, 0, 52, 52
1, 52161, Note_on_c, 0, 58, 45
1, 52169, Note_on_c, 0, 64, 49
1, 52197, Control_c, 0, 64, 127
1, 52201, Note_on_c, 0, 52, 0
1, 52321, Note_on_c, 0, 58, 0
1, 52361, Note_on_c, 0, 64, 0
1, 52461, Note_on_c, 0, 36, 69
1, 52489, Note_on_c, 0, 36, 0
1, 52649, Control_c, 0, 64, 0
1, 52657, Note_on_c, 0, 63, 85
1, 52661, Note_on_c, 0, 74, 82
1, 52661, Note_on_c, 0, 70, 77
1, 52665, Note_on_c, 0, 67, 79
1, 52665, Note_on_c, 0, 62, 82
1, 52777, Control_c, 0, 64, 127
1, 52873, Note_on_c, 0, 74, 0
1, 52885, Note_on_c, 0, 63, 0
1, 52901, Note_on_c, 0, 67, 0
1, 52913, Note_on_c, 0, 62, 0
1, 52921, Note_on_c, 0, 70, 0
1, 52965, Note_on_c, 0, 75, 82
1, 52965, Note_on_c, 0, 61, 78
1, 52977, Note_on_c, 0, 63, 70
1, 52981, Note_on_c, 0, 70, 63
1, 52985, Note_on_c, 0, 67, 59
1, 53061, Note_on_c, 0, 67, 0
1, 53061, Note_on_c, 0, 63, 0
1, 53081, Note_on_c, 0, 75, 0
1, 53093, Note_on_c, 0, 70, 0
1, 53137, Note_on_c, 0, 61, 0
1, 53141, Control_c, 0, 64, 0
1, 53169, Note_on_c, 0, 77, 88
1, 53169, Note_on_c, 0, 60, 61
1, 53241, Control_c, 0, 64, 127
1, 53281, Note_on_c, 0, 77, 0
1, 53285, Note_on_c, 0, 60, 0
1, 53509, Note_on_c, 0, 51, 66
1, 53509, Note_on_c, 0, 63, 60
1, 53513, Note_on_c, 0, 57, 66
1, 53517, Note_on_c, 0, 74, 55
1, 53521, Note_on_c, 0, 66, 49
1, 53537, Control_c, 0, 64, 0
1, 53561, Note_on_c, 0, 66, 0
1, 53601, Note_on_c, 0, 63, 0
1, 53601, Note_on_c, 0, 74, 0
1, 53645, Note_on_c, 0, 57, 0
1, 53665, Note_on_c, 0, 51, 0
1, 53693, Control_c, 0, 64, 127
1, 53777, Note_on_c, 0, 49, 33
1, 53837, Note_on_c, 0, 49, 0
1, 53957, Note_on_c, 0, 41, 63
1, 53981, Note_on_c, 0, 41, 0
1, 54149, Control_c, 0, 64, 0
1, 54169, Note_on_c, 0, 66, 60
1, 54177, Note_on_c, 0, 59, 45
1, 54181, Note_on_c, 0, 63, 48
1, 54181, Note_on_c, 0, 69, 60
1, 54189, Note_on_c, 0, 57, 35
1, 54201, Control_c, 0, 64, 127
1, 54225, Note_on_c, 0, 57, 0
1, 54225, Note_on_c, 0, 59, 0
1, 54321, Note_on_c, 0, 63, 0
1, 54325, Note_on_c, 0, 69, 0
1, 54373, Note_on_c, 0, 66, 0
1, 54493, Note_on_c, 0, 65, 76
1, 54493, Note_on_c, 0, 69, 72
1, 54501, Control_c, 0, 64, 0
1, 54509, Note_on_c, 0, 62, 57
1, 54537, Note_on_c, 0, 62, 0
1, 54601, Control_c, 0, 64, 127
1, 54705, Note_on_c, 0, 65, 0
1, 54741, Note_on_c, 0, 69, 0
1, 54861, Note_on_c, 0, 69, 57
1, 54885, Note_on_c, 0, 65, 51
1, 54901, Note_on_c, 0, 62, 44
1, 54921, Note_on_c, 0, 60, 33
1, 54953, Note_on_c, 0, 69, 0
1, 55005, Note_on_c, 0, 70, 64
1, 55073, Control_c, 0, 64, 0
1, 55077, Note_on_c, 0, 70, 0
1, 55165, Note_on_c, 0, 74, 56
1, 55177, Control_c, 0, 64, 127
1, 55185, Note_on_c, 0, 65, 0
1, 55225, Note_on_c, 0, 62, 0
1, 55237, Note_on_c, 0, 60, 0
1, 55245, Note_on_c, 0, 74, 0
1, 55325, Note_on_c, 0, 77, 84
1, 55413, Note_on_c, 0, 77, 0
1, 55469, Note_on_c, 0, 81, 89
1, 55561, Control_c, 0, 64, 0
1, 55605, Note_on_c, 0, 81, 0
1, 55617, Note_on_c, 0, 39, 66
1, 55637, Note_on_c, 0, 82, 79
1, 55649, Note_on_c, 0, 46, 40
1, 55657, Control_c, 0, 64, 127
1, 55689, Note_on_c, 0, 82, 0
1, 55701, Note_on_c, 0, 46, 0
1, 55733, Note_on_c, 0, 39, 0
1, 55785, Note_on_c, 0, 86, 76
1, 55865, Note_on_c, 0, 86, 0
1, 55953, Note_on_c, 0, 89, 98
1, 55961, Note_on_c, 0, 55, 81
1, 55961, Note_on_c, 0, 65, 81
1, 55973, Note_on_c, 0, 60, 71
1, 55977, Control_c, 0, 64, 0
1, 56077, Control_c, 0, 64, 127
1, 56085, Note_on_c, 0, 89, 0
1, 56125, Note_on_c, 0, 93, 85
1, 56225, Note_on_c, 0, 93, 0
1, 56293, Note_on_c, 0, 94, 89
1, 56377, Note_on_c, 0, 65, 0
1, 56409, Note_on_c, 0, 94, 0
1, 56437, Note_on_c, 0, 55, 0
1, 56437, Note_on_c, 0, 60, 0
1, 56457, Note_on_c, 0, 96, 111
1, 56581, Note_on_c, 0, 96, 0
1, 56609, Control_c, 0, 64, 0
1, 56613, Note_on_c, 0, 63, 68
1, 56625, Note_on_c, 0, 95, 85
1, 56625, Note_on_c, 0, 59, 61
1, 56629, Note_on_c, 0, 54, 51
1, 56633, Note_on_c, 0, 58, 57
1, 56737, Note_on_c, 0, 95, 0
1, 56805, Note_on_c, 0, 94, 72
1, 56837, Control_c, 0, 64, 127
1, 56873, Note_on_c, 0, 94, 0
1, 56933, Note_on_c, 0, 63, 0
1, 56945, Note_on_c, 0, 59, 0
1, 57121, Control_c, 0, 64, 0
1, 57145, Note_on_c, 0, 63, 46
1, 57145, Note_on_c, 0, 92, 64
1, 57177, Note_on_c, 0, 59, 39
1, 57197, Control_c, 0, 64, 127
1, 57281, Note_on_c, 0, 92, 0
1, 57317, Note_on_c, 0, 90, 63
1, 57405, Note_on_c, 0, 90, 0
1, 57413, Note_on_c, 0, 63, 0
1, 57449, Note_on_c, 0, 54, 0
1, 57477, Note_on_c, 0, 59, 0
1, 57493, Note_on_c, 0, 58, 0
1, 57621, Control_c, 0, 64, 0
1, 57637, Note_on_c, 0, 63, 42
1, 57645, Note_on_c, 0, 89, 57
1, 57653, Note_on_c, 0, 59, 36
1, 57665, Note_on_c, 0, 53, 36
1, 57741, Note_on_c, 0, 89, 0
1, 57837, Note_on_c, 0, 88, 46
1, 57837, Control_c, 0, 64, 127
1, 57881, Note_on_c, 0, 63, 0
1, 57953, Note_on_c, 0, 59, 0
1, 57969, Note_on_c, 0, 88, 0
1, 58105, Control_c, 0, 64, 0
1, 58149, Note_on_c, 0, 63, 44
1, 58149, Note_on_c, 0, 87, 56
1, 58177, Note_on_c, 0, 59, 37
1, 58189, Control_c, 0, 64, 127
1, 58349, Note_on_c, 0, 59, 0
1, 58357, Note_on_c, 0, 63, 0
1, 58393, Note_on_c, 0, 53, 0
1, 58585, Control_c, 0, 64, 0
1, 58625, Note_on_c, 0, 87, 0
1, 58637, Note_on_c, 0, 61, 34
1, 58641, Note_on_c, 0, 51, 39
1, 58657, Note_on_c, 0, 85, 49
1, 58657, Note_on_c, 0, 58, 41
1, 58673, Note_on_c, 0, 56, 38
1, 58705, Control_c, 0, 64, 127
1, 58869, Note_on_c, 0, 56, 0
1, 58877, Note_on_c, 0, 58, 0
1, 58901, Note_on_c, 0, 61, 0
1, 58925, Note_on_c, 0, 51, 0
1, 58953, Note_on_c, 0, 85, 0
1, 58961, Note_on_c, 0, 82, 55
1, 59065, Note_on_c, 0, 82, 0
1, 59121, Note_on_c, 0, 61, 31
1, 59137, Note_on_c, 0, 51, 35
1, 59149, Note_on_c, 0, 58, 37
1, 59165, Note_on_c, 0, 56, 34
1, 59173, Note_on_c, 0, 61, 0
1, 59189, Note_on_c, 0, 58, 0
1, 59201, Note_on_c, 0, 56, 0
1, 59229, Note_on_c, 0, 51, 0
1, 59473, Note_on_c, 0, 47, 54
1, 59585, Control_c, 0, 64, 0
1, 59661, Note_on_c, 0, 54, 51
1, 59665, Note_on_c, 0, 66, 49
1, 59665, Note_on_c, 0, 63, 56
1, 59701, Control_c, 0, 64, 127
1, 59853, Note_on_c, 0, 54, 0
1, 59861, Note_on_c, 0, 66, 0
1, 59869, Note_on_c, 0, 63, 0
1, 59873, Note_on_c, 0, 47, 0
1, 59973, Note_on_c, 0, 66, 61
1, 59977, Note_on_c, 0, 63, 61
1, 59977, Note_on_c, 0, 54, 54
1, 59977, Note_on_c, 0, 58, 63
1, 59977, Note_on_c, 0, 47, 49
1, 60061, Note_on_c, 0, 58, 0
1, 60065, Note_on_c, 0, 54, 0
1, 60065, Note_on_c, 0, 47, 0
1, 60097, Note_on_c, 0, 66, 0
1, 60105, Note_on_c, 0, 63, 0
1, 60161, Note_on_c, 0, 54, 40
1, 60169, Note_on_c, 0, 58, 45
1, 60173, Note_on_c, 0, 63, 46
1, 60173, Note_on_c, 0, 66, 54
1, 60241, Note_on_c, 0, 58, 0
1, 60261, Note_on_c, 0, 54, 0
1, 60277, Note_on_c, 0, 63, 0
1, 60337, Note_on_c, 0, 66, 0
1, 60401, Control_c, 0, 64, 0
1, 60433, Note_on_c, 0, 68, 57
1, 60437, Note_on_c, 0, 57, 55
1, 60441, Note_on_c, 0, 61, 52
1, 60441, Note_on_c, 0, 56, 50
1, 60441, Note_on_c, 0, 63, 47
1, 60493, Note_on_c, 0, 57, 0
1, 60501, Note_on_c, 0, 63, 0
1, 60513, Note_on_c, 0, 68, 0
1, 60517, Note_on_c, 0, 61, 0
1, 60529, Note_on_c, 0, 56, 0
1, 60589, Note_on_c, 0, 66, 45
1, 60601, Note_on_c, 0, 54, 35
1, 60633, Note_on_c, 0, 66, 0
1, 60697, Note_on_c, 0, 54, 0
1, 60753, Note_on_c, 0, 68, 57
1, 60761, Note_on_c, 0, 57, 55
1, 60761, Note_on_c, 0, 63, 50
1, 60761, Note_on_c, 0, 56, 57
1, 60761, Note_on_c, 0, 61, 52
1, 60825, Control_c, 0, 64, 127
1, 60985, Note_on_c, 0, 57, 0
1, 60993, Note_on_c, 0, 61, 0
1, 61001, Note_on_c, 0, 56, 0
1, 61013, Note_on_c, 0, 63, 0
1, 61021, Note_on_c, 0, 68, 0
1, 61037, Control_c, 0, 64, 0
1, 61049, Note_on_c, 0, 66, 57
1, 61053, Note_on_c, 0, 57, 56
1, 61065, Note_on_c, 0, 54, 52
1, 61069, Note_on_c, 0, 61, 44
1, 61081, Note_on_c, 0, 63, 38
1, 61141, Control_c, 0, 64, 127
1, 61257, Note_on_c, 0, 61, 0
1, 61265, Note_on_c, 0, 63, 0
1, 61297, Note_on_c, 0, 57, 0
1, 61325, Note_on_c, 0, 54, 0
1, 61365, Note_on_c, 0, 61, 59
1, 61373, Note_on_c, 0, 57, 61
1, 61389, Note_on_c, 0, 54, 54
1, 61397, Control_c, 0, 64, 0
1, 61473, Control_c, 0, 64, 127
1, 61569, Note_on_c, 0, 66, 0
1, 61657, Note_on_c, 0, 57, 0
1, 61677, Note_on_c, 0, 54, 0
1, 61685, Note_on_c, 0, 61, 0
1, 61709, Control_c, 0, 64, 0
1, 61833, Note_on_c, 0, 57, 58
1, 61837, Note_on_c, 0, 66, 53
1, 61837, Note_on_c, 0, 61, 54
1, 61845, Note_on_c, 0, 63, 49
1, 61845, Note_on_c, 0, 47, 57
1, 61985, Control_c, 0, 64, 127
1, 62113, Note_on_c, 0, 47, 0
1, 62245, Note_on_c, 0, 57, 0
1, 62333, Note_on_c, 0, 47, 37
1, 62345, Note_on_c, 0, 61, 0
1, 62349, Note_on_c, 0, 66, 0
1, 62381, Note_on_c, 0, 47, 0
1, 62413, Note_on_c, 0, 63, 0
1, 62461, Control_c, 0, 64, 0
1, 62513, Note_on_c, 0, 62, 50
1, 62517, Note_on_c, 0, 65, 48
1, 62521, Note_on_c, 0, 46, 60
1, 62577, Control_c, 0, 64, 127
1, 62669, Note_on_c, 0, 62, 0
1, 62673, Note_on_c, 0, 65, 0
1, 62677, Note_on_c, 0, 46, 0
1, 63021, Control_c, 0, 64, 0
1, 63057, Note_on_c, 0, 70, 69
1, 63069, Note_on_c, 0, 58, 62
1, 63073, Note_on_c, 0, 46, 62
1, 63181, Control_c, 0, 64, 127
1, 63337, Note_on_c, 0, 58, 0
1, 63349, Note_on_c, 0, 70, 0
1, 63501, Control_c, 0, 64, 0
1, 63557, Note_on_c, 0, 46, 0
1, 63565, Note_on_c, 0, 71, 76
1, 63573, Note_on_c, 0, 59, 57
1, 63605, Note_on_c, 0, 47, 46
1, 63613, Control_c, 0, 64, 127
1, 63681, Note_on_c, 0, 59, 0
1, 63749, Note_on_c, 0, 71, 0
1, 63801, Note_on_c, 0, 47, 0
1, 64329, Note_on_c, 0, 78, 65
1, 64341, Note_on_c, 0, 66, 48
1, 64489, Note_on_c, 0, 78, 0
1, 64497, Note_on_c, 0, 66, 0
1, 64549, Control_c, 0, 64, 0
1, 64573, Note_on_c, 0, 54, 40
1, 64581, Note_on_c, 0, 77, 41
1, 64589, Note_on_c, 0, 65, 40
1, 64589, Note_on_c, 0, 39, 36
1, 64705, Control_c, 0, 64, 127
1, 64821, Note_on_c, 0, 54, 0
1, 64889, Note_on_c, 0, 46, 48
1, 64973, Note_on_c, 0, 65, 0
1, 65017, Note_on_c, 0, 39, 0
1, 65069, Note_on_c, 0, 46, 0
1, 65069, Note_on_c, 0, 54, 46
1, 65121, Note_on_c, 0, 54, 0
1, 65281, Note_on_c, 0, 77, 0
1, 65409, Note_on_c, 0, 65, 49
1, 65409, Note_on_c, 0, 77, 50
1, 65409, Note_on_c, 0, 70, 53
1, 65413, Note_on_c, 0, 54, 50
1, 65425, Note_on_c, 0, 61, 48
1, 65433, Note_on_c, 0, 73, 49
1, 65453, Note_on_c, 0, 58, 46
1, 65469, Note_on_c, 0, 73, 0
1, 65705, Note_on_c, 0, 54, 0
1, 65721, Note_on_c, 0, 61, 0
1, 65745, Note_on_c, 0, 58, 0
1, 65889, Note_on_c, 0, 61, 55
1, 65897, Note_on_c, 0, 58, 48
1, 65897, Note_on_c, 0, 54, 46
1, 65925, Note_on_c, 0, 61, 0
1, 65937, Note_on_c, 0, 58, 0
1, 65981, Note_on_c, 0, 54, 0
1, 66089, Note_on_c, 0, 73, 1
1, 66429, Note_on_c, 0, 39, 74
1, 66593, Note_on_c, 0, 39, 0
1, 66645, Control_c, 0, 64, 0
1, 66669, Note_on_c, 0, 39, 67
1, 66689, Control_c, 0, 64, 127
1, 66729, Note_on_c, 0, 39, 0
1, 66817, Note_on_c, 0, 65, 0
1, 67097, Note_on_c, 0, 70, 0
1, 67149, Note_on_c, 0, 73, 0
1, 67169, Note_on_c, 0, 63, 57
1, 67169, Note_on_c, 0, 60, 56
1, 67181, Note_on_c, 0, 56, 49
1, 67189, Note_on_c, 0, 53, 56
1, 67189, Control_c, 0, 64, 0
1, 67261, Control_c, 0, 64, 24
1, 67261, Control_c, 0, 64, 127
1, 67337, Note_on_c, 0, 77, 0
1, 67489, Note_on_c, 0, 67, 43
1, 67661, Note_on_c, 0, 67, 0
1, 67885, Note_on_c, 0, 75, 85
1, 68041, Note_on_c, 0, 72, 70
1, 68065, Note_on_c, 0, 75, 0
1, 68189, Note_on_c, 0, 73, 75
1, 68213, Note_on_c, 0, 63, 0
1, 68229, Note_on_c, 0, 72, 0
1, 68245, Note_on_c, 0, 60, 0
1, 68249, Note_on_c, 0, 53, 0
1, 68269, Note_on_c, 0, 56, 0
1, 68333, Note_on_c, 0, 73, 0
1, 68357, Note_on_c, 0, 75, 63
1, 68437, Note_on_c, 0, 75, 0
1, 68501, Note_on_c, 0, 77, 68
1, 68621, Control_c, 0, 64, 0
1, 68629, Note_on_c, 0, 77, 0
1, 68645, Note_on_c, 0, 39, 50
1, 68657, Note_on_c, 0, 54, 41
1, 68681, Note_on_c, 0, 78, 55
1, 68733, Control_c, 0, 64, 127
1, 68757, Note_on_c, 0, 39, 0
1, 68805, Note_on_c, 0, 78, 0
1, 68821, Note_on_c, 0, 54, 0
1, 68841, Note_on_c, 0, 80, 68
1, 68941, Note_on_c, 0, 80, 0
1, 69001, Note_on_c, 0, 84, 84
1, 69161, Note_on_c, 0, 65, 49
1, 69173, Note_on_c, 0, 61, 48
1, 69177, Note_on_c, 0, 58, 46
1, 69177, Note_on_c, 0, 54, 35
1, 69185, Note_on_c, 0, 77, 58
1, 69189, Control_c, 0, 64, 0
1, 69205, Note_on_c, 0, 84, 0
1, 69281, Control_c, 0, 64, 127
1, 69661, Note_on_c, 0, 54, 0
1, 69677, Note_on_c, 0, 65, 0
1, 69713, Note_on_c, 0, 58, 0
1, 69745, Note_on_c, 0, 61, 0
1, 69897, Note_on_c, 0, 77, 0
1, 69961, Note_on_c, 0, 65, 50
1, 69973, Note_on_c, 0, 61, 46
1, 69977, Note_on_c, 0, 54, 38
1, 69981, Note_on_c, 0, 58, 45
1, 70037, Note_on_c, 0, 65, 0
1, 70049, Note_on_c, 0, 54, 0
1, 70077, Note_on_c, 0, 58, 0
1, 70089, Note_on_c, 0, 61, 0
1, 70497, Note_on_c, 0, 84, 81
1, 70637, Control_c, 0, 64, 0
1, 70657, Note_on_c, 0, 84, 0
1, 70681, Note_on_c, 0, 39, 49
1, 70689, Note_on_c, 0, 80, 58
1, 70713, Note_on_c, 0, 39, 0
1, 70725, Control_c, 0, 64, 127
1, 71705, Note_on_c, 0, 63, 63
1, 71721, Note_on_c, 0, 55, 64
1, 71721, Note_on_c, 0, 56, 56
1, 71737, Note_on_c, 0, 60, 57
1, 71741, Control_c, 0, 64, 88
1, 71741, Control_c, 0, 64, 0
1, 71809, Control_c, 0, 64, 127
1, 71973, Note_on_c, 0, 55, 0
1, 71977, Note_on_c, 0, 60, 0
1, 71977, Note_on_c, 0, 63, 0
1, 71985, Note_on_c, 0, 56, 0
1, 72053, Control_c, 0, 64, 0
1, 72077, Note_on_c, 0, 63, 61
1, 72081, Note_on_c, 0, 55, 56
1, 72097, Note_on_c, 0, 60, 45
1, 72097, Note_on_c, 0, 56, 46
1, 72113, Control_c, 0, 64, 127
1, 72177, Note_on_c, 0, 63, 0
1, 72185, Note_on_c, 0, 60, 0
1, 72241, Note_on_c, 0, 55, 0
1, 72245, Note_on_c, 0, 56, 0
1, 72417, Note_on_c, 0, 78, 52
1, 72537, Note_on_c, 0, 80, 0
1, 72565, Note_on_c, 0, 77, 57
1, 72585, Note_on_c, 0, 78, 0
1, 72693, Note_on_c, 0, 77, 0
1, 72709, Control_c, 0, 64, 0
1, 72725, Note_on_c, 0, 54, 50
1, 72725, Note_on_c, 0, 39, 48
1, 72753, Note_on_c, 0, 78, 56
1, 72793, Control_c, 0, 64, 127
1, 72833, Note_on_c, 0, 39, 0
1, 72949, Note_on_c, 0, 54, 0
1, 73261, Note_on_c, 0, 77, 48
1, 73269, Note_on_c, 0, 78, 0
1, 73709, Note_on_c, 0, 77, 0
1, 73729, Note_on_c, 0, 75, 46
1, 73733, Note_on_c, 0, 65, 35
1, 73737, Note_on_c, 0, 61, 41
1, 73737, Note_on_c, 0, 54, 36
1, 73749, Note_on_c, 0, 58, 39
1, 73773, Control_c, 0, 64, 0
1, 73789, Control_c, 0, 64, 127
1, 74065, Note_on_c, 0, 65, 0
1, 74105, Note_on_c, 0, 54, 0
1, 74109, Note_on_c, 0, 61, 0
1, 74133, Note_on_c, 0, 58, 0
1, 74233, Note_on_c, 0, 73, 45
1, 74281, Note_on_c, 0, 75, 0
1, 74585, Note_on_c, 0, 77, 79
1, 74601, Note_on_c, 0, 73, 0
1, 74945, Note_on_c, 0, 75, 66
1, 75193, Note_on_c, 0, 77, 0
1, 75249, Control_c, 0, 64, 0
1, 75281, Note_on_c, 0, 39, 51
1, 75289, Control_c, 0, 64, 127
1, 75321, Note_on_c, 0, 39, 0
1, 75377, Note_on_c, 0, 75, 0
1, 75637, Note_on_c, 0, 51, 49
1, 75641, Note_on_c, 0, 68, 57
1, 75645, Note_on_c, 0, 65, 50
1, 75649, Note_on_c, 0, 56, 45
1, 75661, Note_on_c, 0, 60, 40
1, 75669, Control_c, 0, 64, 0
1, 75769, Control_c, 0, 64, 127
1, 75953, Note_on_c, 0, 51, 0
1, 75977, Note_on_c, 0, 56, 0
1, 75977, Note_on_c, 0, 60, 0
1, 76109, Note_on_c, 0, 56, 52
1, 76117, Note_on_c, 0, 51, 45
1, 76141, Note_on_c, 0, 56, 0
1, 76149, Note_on_c, 0, 65, 0
1, 76157, Note_on_c, 0, 51, 0
1, 76309, Note_on_c, 0, 65, 39
1, 76369, Note_on_c, 0, 65, 0
1, 76489, Note_on_c, 0, 68, 0
1, 76581, Note_on_c, 0, 46, 38
1, 76717, Note_on_c, 0, 46, 0
1, 76741, Control_c, 0, 64, 0
1, 76769, Note_on_c, 0, 54, 48
1, 76785, Note_on_c, 0, 61, 39
1, 76785, Note_on_c, 0, 39, 35
1, 76789, Note_on_c, 0, 66, 44
1, 76849, Control_c, 0, 64, 88
1, 76849, Control_c, 0, 64, 127
1, 77005, Note_on_c, 0, 54, 0
1, 77089, Note_on_c, 0, 46, 47
1, 77117, Note_on_c, 0, 61, 0
1, 77253, Note_on_c, 0, 39, 0
1, 77277, Note_on_c, 0, 54, 46
1, 77289, Note_on_c, 0, 66, 0
1, 77421, Note_on_c, 0, 54, 0
1, 77573, Control_c, 0, 64, 0
1, 77581, Note_on_c, 0, 70, 58
1, 77585, Note_on_c, 0, 61, 55
1, 77593, Note_on_c, 0, 66, 51
1, 77597, Note_on_c, 0, 54, 43
1, 77701, Control_c, 0, 64, 127
1, 77885, Note_on_c, 0, 54, 0
1, 78021, Note_on_c, 0, 46, 0
1, 78049, Note_on_c, 0, 39, 63
1, 78093, Note_on_c, 0, 46, 24
1, 78173, Note_on_c, 0, 39, 0
1, 78213, Note_on_c, 0, 70, 0
1, 78213, Note_on_c, 0, 46, 0
1, 78225, Note_on_c, 0, 66, 0
1, 78273, Note_on_c, 0, 61, 0
1, 78277, Note_on_c, 0, 39, 43
1, 78353, Note_on_c, 0, 39, 0
1, 78573, Note_on_c, 0, 68, 68
1, 78577, Control_c, 0, 64, 0
1, 78585, Note_on_c, 0, 63, 58
1, 78585, Note_on_c, 0, 56, 62
1, 78593, Note_on_c, 0, 60, 58
1, 78605, Note_on_c, 0, 39, 44
1, 78645, Note_on_c, 0, 39, 0
1, 78761, Control_c, 0, 64, 127
1, 79053, Note_on_c, 0, 39, 68
1, 79309, Note_on_c, 0, 60, 0
1, 79313, Note_on_c, 0, 56, 0
1, 79345, Note_on_c, 0, 39, 0
1, 79369, Note_on_c, 0, 63, 0
1, 79385, Note_on_c, 0, 68, 0
1, 79553, Note_on_c, 0, 39, 75
1, 79817, Control_c, 0, 64, 0
1, 79857, Control_c, 0, 64, 127
1, 79917, Note_on_c, 0, 72, 46
1, 79997, Note_on_c, 0, 72, 0
1, 80053, Note_on_c, 0, 74, 90
1, 80105, Note_on_c, 0, 39, 0
1, 80161, Note_on_c, 0, 74, 0
1, 80217, Note_on_c, 0, 75, 74
1, 80285, Note_on_c, 0, 75, 0
1, 80365, Note_on_c, 0, 79, 58
1, 80409, Note_on_c, 0, 79, 0
1, 80521, Note_on_c, 0, 84, 107
1, 80585, Control_c, 0, 64, 0
1, 80625, Note_on_c, 0, 84, 0
1, 80677, Note_on_c, 0, 86, 98
1, 80681, Note_on_c, 0, 45, 57
1, 80709, Control_c, 0, 64, 127
1, 80733, Note_on_c, 0, 45, 0
1, 80781, Note_on_c, 0, 86, 0
1, 80821, Note_on_c, 0, 87, 85
1, 80925, Note_on_c, 0, 87, 0
1, 80985, Note_on_c, 0, 89, 107
1, 81089, Note_on_c, 0, 89, 0
1, 81153, Note_on_c, 0, 63, 54
1, 81157, Note_on_c, 0, 55, 56
1, 81169, Note_on_c, 0, 60, 51
1, 81181, Note_on_c, 0, 57, 39
1, 81229, Note_on_c, 0, 63, 0
1, 81237, Control_c, 0, 64, 0
1, 81249, Note_on_c, 0, 57, 0
1, 81249, Note_on_c, 0, 60, 0
1, 81297, Note_on_c, 0, 55, 0
1, 81317, Note_on_c, 0, 87, 82
1, 81353, Control_c, 0, 64, 127
1, 81377, Note_on_c, 0, 87, 0
1, 81409, Note_on_c, 0, 89, 60
1, 81477, Note_on_c, 0, 87, 54
1, 81493, Note_on_c, 0, 89, 0
1, 81581, Note_on_c, 0, 87, 0
1, 81581, Note_on_c, 0, 86, 64
1, 81629, Control_c, 0, 64, 0
1, 81653, Note_on_c, 0, 86, 0
1, 81673, Note_on_c, 0, 38, 51
1, 81685, Note_on_c, 0, 50, 32
1, 81721, Note_on_c, 0, 85, 68
1, 81765, Note_on_c, 0, 38, 0
1, 81777, Note_on_c, 0, 50, 0
1, 81785, Control_c, 0, 64, 127
1, 81897, Note_on_c, 0, 85, 0
1, 81997, Note_on_c, 0, 84, 66
1, 82129, Note_on_c, 0, 84, 0
1, 82149, Note_on_c, 0, 64, 50
1, 82149, Note_on_c, 0, 54, 48
1, 82165, Note_on_c, 0, 60, 50
1, 82177, Note_on_c, 0, 64, 0
1, 82193, Note_on_c, 0, 60, 0
1, 82217, Control_c, 0, 64, 0
1, 82245, Note_on_c, 0, 82, 54
1, 82249, Note_on_c, 0, 54, 0
1, 82281, Control_c, 0, 64, 127
1, 82365, Note_on_c, 0, 82, 0
1, 82497, Note_on_c, 0, 81, 65
1, 82617, Control_c, 0, 64, 0
1, 82645, Note_on_c, 0, 81, 0
1, 82645, Note_on_c, 0, 43, 48
1, 82665, Note_on_c, 0, 50, 42
1, 82689, Note_on_c, 0, 84, 63
1, 82721, Note_on_c, 0, 43, 0
1, 82737, Control_c, 0, 64, 127
1, 82753, Note_on_c, 0, 50, 0
1, 82921, Note_on_c, 0, 84, 0
1, 82981, Note_on_c, 0, 82, 63
1, 83097, Note_on_c, 0, 82, 0
1, 83129, Control_c, 0, 64, 0
1, 83133, Note_on_c, 0, 55, 41
1, 83145, Note_on_c, 0, 78, 52
1, 83149, Note_on_c, 0, 62, 37
1, 83157, Note_on_c, 0, 58, 42
1, 83201, Note_on_c, 0, 62, 0
1, 83221, Note_on_c, 0, 58, 0
1, 83265, Note_on_c, 0, 55, 0
1, 83273, Note_on_c, 0, 78, 0
1, 83273, Control_c, 0, 64, 127
1, 83305, Note_on_c, 0, 81, 60
1, 83397, Note_on_c, 0, 81, 0
1, 83465, Note_on_c, 0, 79, 61
1, 83585, Note_on_c, 0, 79, 0
1, 83625, Control_c, 0, 64, 0
1, 83629, Note_on_c, 0, 58, 50
1, 83633, Note_on_c, 0, 48, 43
1, 83637, Note_on_c, 0, 55, 35
1, 83693, Note_on_c, 0, 77, 54
1, 83737, Note_on_c, 0, 77, 0
1, 83749, Note_on_c, 0, 55, 0
1, 83753, Note_on_c, 0, 48, 0
1, 83773, Note_on_c, 0, 79, 56
1, 83813, Control_c, 0, 64, 127
1, 83825, Note_on_c, 0, 79, 0
1, 83829, Note_on_c, 0, 77, 54
1, 83833, Note_on_c, 0, 58, 0
1, 83913, Note_on_c, 0, 77, 0
1, 83941, Note_on_c, 0, 74, 49
1, 84013, Note_on_c, 0, 74, 0
1, 84057, Note_on_c, 0, 75, 63
1, 84109, Control_c, 0, 64, 0
1, 84133, Note_on_c, 0, 75, 0
1, 84137, Note_on_c, 0, 58, 40
1, 84149, Note_on_c, 0, 62, 36
1, 84165, Note_on_c, 0, 52, 39
1, 84189, Note_on_c, 0, 76, 48
1, 84261, Note_on_c, 0, 76, 0
1, 84269, Control_c, 0, 64, 127
1, 84301, Note_on_c, 0, 79, 75
1, 84321, Note_on_c, 0, 52, 0
1, 84345, Note_on_c, 0, 58, 0
1, 84369, Note_on_c, 0, 79, 0
1, 84381, Note_on_c, 0, 62, 0
1, 84421, Note_on_c, 0, 82, 83
1, 84497, Note_on_c, 0, 82, 0
1, 84553, Note_on_c, 0, 83, 84
1, 84637, Note_on_c, 0, 83, 0
1, 84649, Control_c, 0, 64, 0
1, 84693, Note_on_c, 0, 63, 50
1, 84693, Note_on_c, 0, 67, 53
1, 84693, Note_on_c, 0, 62, 50
1, 84705, Note_on_c, 0, 86, 99
1, 84705, Note_on_c, 0, 58, 48
1, 84781, Control_c, 0, 64, 127
1, 84889, Note_on_c, 0, 86, 0
1, 84973, Note_on_c, 0, 67, 0
1, 84989, Note_on_c, 0, 63, 0
1, 85041, Note_on_c, 0, 84, 120
1, 85113, Control_c, 0, 64, 0
1, 85205, Note_on_c, 0, 67, 43
1, 85221, Note_on_c, 0, 63, 39
1, 85229, Control_c, 0, 64, 127
1, 85389, Note_on_c, 0, 62, 0
1, 85393, Note_on_c, 0, 67, 0
1, 85397, Note_on_c, 0, 79, 57
1, 85413, Note_on_c, 0, 63, 0
1, 85437, Note_on_c, 0, 84, 0
1, 85469, Note_on_c, 0, 79, 0
1, 85477, Note_on_c, 0, 58, 0
1, 85533, Note_on_c, 0, 78, 56
1, 85645, Note_on_c, 0, 78, 0
1, 85645, Control_c, 0, 64, 0
1, 85709, Note_on_c, 0, 63, 48
1, 85713, Note_on_c, 0, 67, 40
1, 85717, Note_on_c, 0, 57, 43
1, 85717, Control_c, 0, 64, 127
1, 85721, Note_on_c, 0, 77, 61
1, 85749, Note_on_c, 0, 67, 0
1, 85753, Note_on_c, 0, 77, 0
1, 85769, Note_on_c, 0, 63, 0
1, 85793, Note_on_c, 0, 57, 0
1, 86053, Note_on_c, 0, 41, 56
1, 86081, Note_on_c, 0, 41, 0
1, 86209, Control_c, 0, 64, 0
1, 86233, Note_on_c, 0, 68, 63
1, 86245, Note_on_c, 0, 57, 49
1, 86265, Note_on_c, 0, 61, 32
1, 86273, Note_on_c, 0, 57, 0
1, 86305, Note_on_c, 0, 61, 0
1, 86305, Note_on_c, 0, 68, 0
1, 86381, Control_c, 0, 64, 127
1, 86413, Note_on_c, 0, 68, 57
1, 86417, Note_on_c, 0, 56, 46
1, 86429, Note_on_c, 0, 57, 41
1, 86437, Note_on_c, 0, 61, 39
1, 86453, Note_on_c, 0, 68, 0
1, 86457, Note_on_c, 0, 56, 0
1, 86465, Note_on_c, 0, 57, 0
1, 86485, Note_on_c, 0, 61, 0
1, 86585, Control_c, 0, 64, 0
1, 86629, Note_on_c, 0, 53, 45
1, 86729, Note_on_c, 0, 53, 0
1, 86817, Control_c, 0, 64, 127
1, 86997, Control_c, 0, 64, 0
1, 87041, Note_on_c, 0, 72, 68
1, 87041, Note_on_c, 0, 65, 66
1, 87049, Note_on_c, 0, 62, 61
1, 87049, Note_on_c, 0, 69, 63
1, 87057, Note_on_c, 0, 57, 51
1, 87093, Note_on_c, 0, 57, 0
1, 87105, Note_on_c, 0, 62, 0
1, 87113, Note_on_c, 0, 65, 0
1, 87129, Note_on_c, 0, 69, 0
1, 87141, Note_on_c, 0, 72, 0
1, 87165, Control_c, 0, 64, 127
1, 87201, Note_on_c, 0, 72, 62
1, 87209, Note_on_c, 0, 65, 58
1, 87213, Note_on_c, 0, 62, 53
1, 87221, Note_on_c, 0, 57, 57
1, 87261, Note_on_c, 0, 62, 0
1, 87269, Note_on_c, 0, 72, 0
1, 87277, Note_on_c, 0, 65, 0
1, 87285, Note_on_c, 0, 57, 0
1, 87325, Control_c, 0, 64, 0
1, 87381, Note_on_c, 0, 69, 66
1, 87385, Note_on_c, 0, 65, 62
1, 87385, Note_on_c, 0, 62, 60
1, 87401, Control_c, 0, 64, 127
1, 87405, Note_on_c, 0, 53, 52
1, 87489, Note_on_c, 0, 62, 0
1, 87505, Note_on_c, 0, 53, 0
1, 87505, Note_on_c, 0, 65, 0
1, 87529, Note_on_c, 0, 69, 0
1, 87681, Note_on_c, 0, 67, 80
1, 87693, Note_on_c, 0, 74, 75
1, 87693, Note_on_c, 0, 46, 40
1, 87749, Note_on_c, 0, 46, 0
1, 87761, Control_c, 0, 64, 0
1, 87785, Note_on_c, 0, 74, 0
1, 87797, Note_on_c, 0, 67, 0
1, 87841, Note_on_c, 0, 67, 73
1, 87841, Note_on_c, 0, 74, 84
1, 87953, Control_c, 0, 64, 127
1, 87957, Note_on_c, 0, 74, 0
1, 87997, Note_on_c, 0, 70, 65
1, 88001, Note_on_c, 0, 39, 50
1, 88013, Note_on_c, 0, 46, 43
1, 88017, Note_on_c, 0, 62, 65
1, 88057, Note_on_c, 0, 67, 0
1, 88085, Note_on_c, 0, 62, 0
1, 88085, Note_on_c, 0, 39, 0
1, 88117, Note_on_c, 0, 70, 0
1, 88345, Note_on_c, 0, 77, 87
1, 88349, Note_on_c, 0, 70, 89
1, 88377, Note_on_c, 0, 53, 51
1, 88405, Note_on_c, 0, 53, 0
1, 88437, Note_on_c, 0, 70, 0
1, 88437, Note_on_c, 0, 77, 0
1, 88509, Note_on_c, 0, 46, 0
1, 88509, Note_on_c, 0, 77, 81
1, 88521, Note_on_c, 0, 70, 74
1, 88617, Note_on_c, 0, 77, 0
1, 88625, Note_on_c, 0, 70, 0
1, 88681, Note_on_c, 0, 46, 48
1, 88685, Note_on_c, 0, 74, 66
1, 88689, Note_on_c, 0, 67, 44
1, 88697, Note_on_c, 0, 70, 34
1, 88725, Note_on_c, 0, 67, 0
1, 88733, Note_on_c, 0, 70, 0
1, 88753, Note_on_c, 0, 74, 0
1, 88801, Control_c, 0, 64, 0
1, 88805, Note_on_c, 0, 46, 0
1, 88861, Note_on_c, 0, 44, 65
1, 88881, Note_on_c, 0, 75, 77
1, 88881, Note_on_c, 0, 82, 75
1, 88881, Control_c, 0, 64, 127
1, 88949, Note_on_c, 0, 44, 0
1, 89173, Note_on_c, 0, 75, 0
1, 89413, Note_on_c, 0, 58, 33
1, 89417, Note_on_c, 0, 54, 36
1, 89417, Note_on_c, 0, 75, 49
1, 89417, Note_on_c, 0, 63, 27
1, 89421, Note_on_c, 0, 59, 43
1, 89425, Note_on_c, 0, 70, 45
1, 89477, Control_c, 0, 64, 0
1, 89521, Control_c, 0, 64, 127
1, 89581, Note_on_c, 0, 59, 0
1, 89641, Note_on_c, 0, 82, 0
1, 89645, Note_on_c, 0, 63, 0
1, 89665, Note_on_c, 0, 70, 0
1, 89737, Note_on_c, 0, 54, 0
1, 89757, Note_on_c, 0, 58, 0
1, 89797, Note_on_c, 0, 75, 0
1, 89913, Control_c, 0, 64, 0
1, 89933, Note_on_c, 0, 80, 51
1, 89941, Note_on_c, 0, 63, 41
1, 89941, Note_on_c, 0, 68, 48
1, 89949, Note_on_c, 0, 75, 55
1, 89957, Note_on_c, 0, 59, 41
1, 89961, Note_on_c, 0, 53, 28
1, 90025, Control_c, 0, 64, 127
1, 90161, Note_on_c, 0, 63, 0
1, 90201, Note_on_c, 0, 53, 0
1, 90297, Note_on_c, 0, 59, 0
1, 90341, Note_on_c, 0, 68, 0
1, 90469, Note_on_c, 0, 63, 52
1, 90477, Note_on_c, 0, 59, 52
1, 90509, Note_on_c, 0, 63, 0
1, 90513, Note_on_c, 0, 59, 0
1, 90565, Note_on_c, 0, 75, 0
1, 90585, Note_on_c, 0, 80, 0
1, 91017, Note_on_c, 0, 85, 68
1, 91029, Note_on_c, 0, 73, 49
1, 91041, Note_on_c, 0, 78, 54
1, 91045, Control_c, 0, 64, 0
1, 91145, Control_c, 0, 64, 127
1, 91333, Note_on_c, 0, 30, 62
1, 91461, Note_on_c, 0, 30, 0
1, 91801, Note_on_c, 0, 73, 0
1, 91809, Note_on_c, 0, 78, 0
1, 91845, Note_on_c, 0, 85, 0
1, 92097, Note_on_c, 0, 47, 52
1, 92121, Control_c, 0, 64, 0
1, 92193, Control_c, 0, 64, 127
1, 92433, Note_on_c, 0, 54, 51
1, 92433, Note_on_c, 0, 58, 57
1, 92433, Note_on_c, 0, 87, 76
1, 92437, Control_c, 0, 64, 0
1, 92441, Note_on_c, 0, 82, 72
1, 92441, Note_on_c, 0, 75, 72
1, 92581, Control_c, 0, 64, 127
1, 92761, Note_on_c, 0, 47, 0
1, 92949, Note_on_c, 0, 58, 0
1, 92961, Note_on_c, 0, 75, 0
1, 92977, Note_on_c, 0, 47, 57
1, 92981, Note_on_c, 0, 82, 0
1, 93001, Note_on_c, 0, 87, 0
1, 93053, Note_on_c, 0, 47, 0
1, 93133, Control_c, 0, 64, 0
1, 93161, Note_on_c, 0, 54, 0
1, 93197, Note_on_c, 0, 48, 63
1, 93245, Control_c, 0, 64, 127
1, 93501, Note_on_c, 0, 89, 87
1, 93505, Note_on_c, 0, 82, 81
1, 93509, Note_on_c, 0, 77, 79
1, 93509, Control_c, 0, 64, 0
1, 93513, Note_on_c, 0, 58, 57
1, 93617, Control_c, 0, 64, 127
1, 93653, Note_on_c, 0, 58, 0
1, 93681, Note_on_c, 0, 48, 0
1, 94021, Note_on_c, 0, 41, 88
1, 94069, Note_on_c, 0, 89, 0
1, 94069, Control_c, 0, 64, 0
1, 94073, Note_on_c, 0, 77, 0
1, 94097, Note_on_c, 0, 82, 0
1, 94117, Note_on_c, 0, 41, 0
1, 94153, Control_c, 0, 64, 127
1, 94313, Note_on_c, 0, 90, 89
1, 94317, Note_on_c, 0, 51, 81
1, 94317, Note_on_c, 0, 78, 92
1, 94321, Note_on_c, 0, 85, 89
1, 94321, Note_on_c, 0, 62, 79
1, 94325, Note_on_c, 0, 57, 72
1, 94337, Control_c, 0, 64, 0
1, 94393, Control_c, 0, 64, 127
1, 94629, Note_on_c, 0, 57, 0
1, 94629, Note_on_c, 0, 51, 0
1, 94649, Note_on_c, 0, 62, 0
1, 94657, Note_on_c, 0, 78, 0
1, 94729, Note_on_c, 0, 78, 26
1, 94769, Note_on_c, 0, 62, 58
1, 94769, Note_on_c, 0, 51, 56
1, 94781, Note_on_c, 0, 57, 42
1, 94805, Note_on_c, 0, 51, 0
1, 94817, Note_on_c, 0, 57, 0
1, 94865, Note_on_c, 0, 62, 0
1, 94945, Note_on_c, 0, 78, 0
1, 94981, Note_on_c, 0, 90, 0
1, 94985, Note_on_c, 0, 85, 0
1, 95077, Control_c, 0, 64, 0
1, 95081, Note_on_c, 0, 91, 84
1, 95085, Note_on_c, 0, 86, 82
1, 95085, Note_on_c, 0, 79, 82
1, 95097, Note_on_c, 0, 65, 80
1, 95101, Note_on_c, 0, 62, 76
1, 95105, Note_on_c, 0, 60, 70
1, 95121, Note_on_c, 0, 87, 31
1, 95157, Note_on_c, 0, 87, 0
1, 95201, Control_c, 0, 64, 127
1, 95333, Note_on_c, 0, 65, 0
1, 95385, Note_on_c, 0, 79, 0
1, 95393, Note_on_c, 0, 91, 0
1, 95445, Note_on_c, 0, 86, 0
1, 95557, Control_c, 0, 64, 0
1, 95561, Note_on_c, 0, 93, 84
1, 95569, Note_on_c, 0, 86, 82
1, 95573, Note_on_c, 0, 53, 76
1, 95577, Note_on_c, 0, 81, 78
1, 95581, Note_on_c, 0, 89, 58
1, 95697, Control_c, 0, 64, 127
1, 95773, Note_on_c, 0, 93, 0
1, 95789, Note_on_c, 0, 62, 0
1, 95797, Note_on_c, 0, 81, 0
1, 95797, Note_on_c, 0, 89, 0
1, 95829, Note_on_c, 0, 86, 0
1, 95841, Note_on_c, 0, 60, 0
1, 96041, Note_on_c, 0, 94, 74
1, 96045, Note_on_c, 0, 60, 47
1, 96045, Note_on_c, 0, 86, 74
1, 96045, Control_c, 0, 64, 0
1, 96053, Note_on_c, 0, 65, 74
1, 96053, Note_on_c, 0, 62, 63
1, 96061, Note_on_c, 0, 82, 57
1, 96173, Control_c, 0, 64, 127
1, 96177, Note_on_c, 0, 65, 0
1, 96177, Note_on_c, 0, 86, 0
1, 96233, Note_on_c, 0, 82, 0
1, 96241, Note_on_c, 0, 53, 0
1, 96261, Note_on_c, 0, 94, 0
1, 96505, Control_c, 0, 64, 0
1, 96513, Note_on_c, 0, 96, 82
1, 96513, Note_on_c, 0, 53, 78
1, 96517, Note_on_c, 0, 91, 82
1, 96529, Note_on_c, 0, 84, 73
1, 96573, Note_on_c, 0, 60, 0
1, 96593, Note_on_c, 0, 62, 0
1, 96613, Control_c, 0, 64, 127
1, 96649, Note_on_c, 0, 53, 0
1, 96725, Note_on_c, 0, 96, 0
1, 96733, Note_on_c, 0, 84, 0
1, 96749, Note_on_c, 0, 91, 0
1, 96969, Control_c, 0, 64, 0
1, 96981, Note_on_c, 0, 33, 85
1, 96985, Note_on_c, 0, 98, 94
1, 96985, Note_on_c, 0, 45, 83
1, 96985, Note_on_c, 0, 94, 78
1, 96985, Note_on_c, 0, 91, 82
1, 96993, Note_on_c, 0, 86, 81
1, 97057, Note_on_c, 0, 33, 0
1, 97085, Note_on_c, 0, 45, 0
1, 97085, Control_c, 0, 64, 127
1, 97173, Note_on_c, 0, 98, 0
1, 97193, Note_on_c, 0, 86, 0
1, 97221, Note_on_c, 0, 94, 0
1, 97225, Note_on_c, 0, 91, 0
1, 97445, Control_c, 0, 64, 0
1, 97449, Note_on_c, 0, 63, 86
1, 97453, Note_on_c, 0, 99, 87
1, 97453, Note_on_c, 0, 91, 76
1, 97453, Note_on_c, 0, 57, 69
1, 97453, Note_on_c, 0, 60, 73
1, 97453, Note_on_c, 0, 55, 75
1, 97453, Note_on_c, 0, 94, 73
1, 97453, Note_on_c, 0, 87, 77
1, 97557, Control_c, 0, 64, 127
1, 97589, Note_on_c, 0, 91, 0
1, 97637, Note_on_c, 0, 94, 0
1, 97641, Note_on_c, 0, 63, 0
1, 97673, Note_on_c, 0, 87, 0
1, 97681, Note_on_c, 0, 55, 0
1, 97685, Note_on_c, 0, 57, 0
1, 97685, Note_on_c, 0, 99, 0
1, 97733, Note_on_c, 0, 60, 0
1, 97921, Note_on_c, 0, 63, 85
1, 97925, Note_on_c, 0, 101, 102
1, 97925, Note_on_c, 0, 96, 85
1, 97929, Note_on_c, 0, 55, 72
1, 97929, Note_on_c, 0, 89, 87
1, 97929, Note_on_c, 0, 60, 68
1, 97941, Control_c, 0, 64, 0
1, 97941, Note_on_c, 0, 57, 52
1, 97977, Note_on_c, 0, 57, 0
1, 97989, Control_c, 0, 64, 127
1, 97997, Note_on_c, 0, 63, 0
1, 98021, Note_on_c, 0, 60, 0
1, 98049, Note_on_c, 0, 55, 0
1, 98181, Note_on_c, 0, 89, 0
1, 98197, Note_on_c, 0, 101, 0
1, 98205, Note_on_c, 0, 96, 0
1, 98345, Control_c, 0, 64, 0
1, 98365, Note_on_c, 0, 102, 90
1, 98373, Note_on_c, 0, 96, 82
1, 98373, Note_on_c, 0, 90, 77
1, 98381, Note_on_c, 0, 38, 86
1, 98381, Note_on_c, 0, 50, 85
1, 98385, Note_on_c, 0, 99, 57
1, 98417, Note_on_c, 0, 99, 0
1, 98457, Note_on_c, 0, 99, 19
1, 98477, Control_c, 0, 64, 127
1, 98493, Note_on_c, 0, 38, 0
1, 98505, Note_on_c, 0, 50, 0
1, 98613, Note_on_c, 0, 96, 0
1, 98641, Note_on_c, 0, 99, 0
1, 98669, Note_on_c, 0, 90, 0
1, 98677, Note_on_c, 0, 102, 0
1, 98833, Note_on_c, 0, 44, 78
1, 98845, Note_on_c, 0, 98, 80
1, 98845, Note_on_c, 0, 103, 80
1, 98849, Note_on_c, 0, 91, 68
1, 98937, Note_on_c, 0, 91, 0
1, 98937, Note_on_c, 0, 103, 0
1, 99005, Note_on_c, 0, 98, 0
1, 99005, Note_on_c, 0, 44, 0
1, 99057, Control_c, 0, 64, 0
1, 99093, Note_on_c, 0, 43, 72
1, 99101, Note_on_c, 0, 98, 72
1, 99105, Note_on_c, 0, 105, 73
1, 99113, Note_on_c, 0, 93, 66
1, 99117, Note_on_c, 0, 101, 58
1, 99141, Control_c, 0, 64, 127
1, 99149, Note_on_c, 0, 43, 0
1, 99253, Note_on_c, 0, 98, 0
1, 99261, Note_on_c, 0, 93, 0
1, 99269, Note_on_c, 0, 101, 0
1, 99289, Note_on_c, 0, 105, 0
1, 99409, Note_on_c, 0, 108, 64
1, 99409, Note_on_c, 0, 57, 55
1, 99413, Note_on_c, 0, 58, 48
1, 99421, Note_on_c, 0, 62, 51
1, 99437, Control_c, 0, 64, 0
1, 99509, Control_c, 0, 64, 127
1, 99737, Note_on_c, 0, 108, 0
1, 99773, Note_on_c, 0, 57, 0
1, 99801, Note_on_c, 0, 106, 70
1, 99881, Note_on_c, 0, 58, 0
1, 99917, Note_on_c, 0, 62, 0
1, 99921, Note_on_c, 0, 106, 0
1, 99945, Note_on_c, 0, 105, 70
1, 100061, Note_on_c, 0, 105, 0
1, 100073, Control_c, 0, 64, 0
1, 100105, Note_on_c, 0, 58, 42
1, 100113, Note_on_c, 0, 62, 46
1, 100129, Note_on_c, 0, 52, 44
1, 100133, Note_on_c, 0, 103, 46
1, 100209, Control_c, 0, 64, 127
1, 100325, Note_on_c, 0, 62, 0
1, 100345, Note_on_c, 0, 58, 0
1, 100377, Note_on_c, 0, 103, 0
1, 100429, Note_on_c, 0, 102, 59
1, 100581, Note_on_c, 0, 102, 0
1, 100589, Note_on_c, 0, 58, 47
1, 100605, Note_on_c, 0, 62, 44
1, 100629, Note_on_c, 0, 101, 42
1, 100693, Note_on_c, 0, 52, 0
1, 100717, Note_on_c, 0, 58, 0
1, 100805, Note_on_c, 0, 62, 0
1, 100873, Note_on_c, 0, 101, 0
1, 100925, Note_on_c, 0, 100, 56
1, 101049, Note_on_c, 0, 100, 0
1, 101085, Note_on_c, 0, 63, 46
1, 101093, Note_on_c, 0, 67, 38
1, 101097, Control_c, 0, 64, 0
1, 101101, Note_on_c, 0, 99, 56
1, 101105, Note_on_c, 0, 62, 32
1, 101229, Note_on_c, 0, 99, 0
1, 101241, Control_c, 0, 64, 127
1, 101293, Note_on_c, 0, 67, 0
1, 101297, Note_on_c, 0, 63, 0
1, 101297, Note_on_c, 0, 101, 37
1, 101297, Note_on_c, 0, 103, 33
1, 101357, Note_on_c, 0, 103, 0
1, 101381, Note_on_c, 0, 101, 0
1, 101433, Note_on_c, 0, 98, 64
1, 101505, Note_on_c, 0, 67, 32
1, 101509, Note_on_c, 0, 63, 36
1, 101557, Note_on_c, 0, 98, 0
1, 101597, Note_on_c, 0, 99, 47
1, 101665, Note_on_c, 0, 62, 0
1, 101741, Note_on_c, 0, 99, 0
1, 101753, Note_on_c, 0, 67, 0
1, 101785, Note_on_c, 0, 97, 58
1, 101797, Note_on_c, 0, 63, 0
1, 101921, Note_on_c, 0, 97, 0
1, 101941, Note_on_c, 0, 99, 66
1, 101973, Note_on_c, 0, 63, 39
1, 101981, Control_c, 0, 64, 0
1, 101993, Note_on_c, 0, 57, 36
1, 102085, Note_on_c, 0, 99, 0
1, 102121, Note_on_c, 0, 96, 57
1, 102133, Control_c, 0, 64, 127
1, 102181, Note_on_c, 0, 63, 0
1, 102241, Note_on_c, 0, 96, 0
1, 102277, Note_on_c, 0, 98, 70
1, 102397, Note_on_c, 0, 98, 0
1, 102453, Note_on_c, 0, 95, 64
1, 102465, Note_on_c, 0, 63, 51
1, 102477, Control_c, 0, 64, 0
1, 102481, Note_on_c, 0, 67, 40
1, 102565, Note_on_c, 0, 95, 0
1, 102593, Control_c, 0, 64, 127
1, 102605, Note_on_c, 0, 97, 56
1, 102649, Note_on_c, 0, 67, 0
1, 102725, Note_on_c, 0, 63, 0
1, 102745, Note_on_c, 0, 57, 0
1, 102745, Note_on_c, 0, 97, 0
1, 102765, Note_on_c, 0, 94, 64
1, 102885, Note_on_c, 0, 94, 0
1, 102929, Note_on_c, 0, 96, 75
1, 103001, Control_c, 0, 64, 0
1, 103069, Note_on_c, 0, 62, 58
1, 103069, Note_on_c, 0, 65, 53
1, 103077, Note_on_c, 0, 93, 72
1, 103093, Note_on_c, 0, 60, 48
1, 103105, Note_on_c, 0, 96, 0
1, 103197, Control_c, 0, 64, 127
1, 103205, Note_on_c, 0, 93, 0
1, 103253, Note_on_c, 0, 94, 54
1, 103329, Note_on_c, 0, 65, 0
1, 103393, Note_on_c, 0, 94, 0
1, 103417, Note_on_c, 0, 91, 57
1, 103421, Note_on_c, 0, 55, 68
1, 103457, Control_c, 0, 64, 0
1, 103513, Note_on_c, 0, 91, 0
1, 103589, Control_c, 0, 64, 127
1, 103593, Note_on_c, 0, 93, 66
1, 103657, Note_on_c, 0, 60, 0
1, 103661, Note_on_c, 0, 62, 0
1, 103697, Note_on_c, 0, 55, 0
1, 103701, Note_on_c, 0, 93, 0
1, 103753, Note_on_c, 0, 90, 55
1, 103821, Note_on_c, 0, 90, 0
1, 103901, Note_on_c, 0, 91, 64
1, 104033, Control_c, 0, 64, 0
1, 104053, Note_on_c, 0, 39, 48
1, 104065, Note_on_c, 0, 86, 56
1, 104077, Note_on_c, 0, 91, 0
1, 104081, Note_on_c, 0, 46, 27
1, 104105, Note_on_c, 0, 39, 0
1, 104133, Control_c, 0, 64, 127
1, 104141, Note_on_c, 0, 46, 0
1, 104177, Note_on_c, 0, 86, 0
1, 104241, Note_on_c, 0, 89, 49
1, 104337, Note_on_c, 0, 89, 0
1, 104409, Note_on_c, 0, 84, 42
1, 104509, Note_on_c, 0, 65, 31
1, 104513, Note_on_c, 0, 60, 39
1, 104529, Note_on_c, 0, 55, 28
1, 104537, Control_c, 0, 64, 0
1, 104541, Note_on_c, 0, 84, 0
1, 104577, Note_on_c, 0, 87, 56
1, 104637, Control_c, 0, 64, 127
1, 104693, Note_on_c, 0, 87, 0
1, 104733, Note_on_c, 0, 82, 45
1, 104833, Note_on_c, 0, 65, 0
1, 104845, Note_on_c, 0, 82, 0
1, 104877, Note_on_c, 0, 55, 0
1, 104881, Note_on_c, 0, 60, 0
1, 104905, Note_on_c, 0, 86, 60
1, 105029, Note_on_c, 0, 86, 0
1, 105081, Note_on_c, 0, 81, 37
1, 105125, Control_c, 0, 64, 0
1, 105189, Control_c, 0, 64, 127
1, 105205, Note_on_c, 0, 81, 0
1, 105245, Note_on_c, 0, 84, 56
1, 105337, Note_on_c, 0, 84, 0
1, 105373, Note_on_c, 0, 80, 61
1, 105385, Note_on_c, 0, 63, 54
1, 105413, Note_on_c, 0, 59, 46
1, 105417, Note_on_c, 0, 58, 39
1, 105421, Note_on_c, 0, 54, 38
1, 105465, Control_c, 0, 64, 0
1, 105521, Note_on_c, 0, 80, 0
1, 105561, Note_on_c, 0, 83, 62
1, 105581, Control_c, 0, 64, 127
1, 105661, Note_on_c, 0, 83, 0
1, 105725, Note_on_c, 0, 79, 46
1, 105813, Note_on_c, 0, 79, 0
1, 105817, Note_on_c, 0, 63, 0
1, 105865, Note_on_c, 0, 82, 70
1, 105873, Note_on_c, 0, 59, 0
1, 105909, Note_on_c, 0, 58, 0
1, 105913, Note_on_c, 0, 54, 0
1, 106009, Note_on_c, 0, 82, 0
1, 106037, Note_on_c, 0, 63, 40
1, 106041, Note_on_c, 0, 79, 50
1, 106045, Note_on_c, 0, 58, 24
1, 106045, Control_c, 0, 64, 0
1, 106049, Note_on_c, 0, 59, 42
1, 106053, Note_on_c, 0, 53, 41
1, 106145, Note_on_c, 0, 79, 0
1, 106205, Note_on_c, 0, 80, 55
1, 106225, Control_c, 0, 64, 127
1, 106257, Note_on_c, 0, 63, 0
1, 106321, Note_on_c, 0, 80, 0
1, 106337, Note_on_c, 0, 59, 0
1, 106361, Note_on_c, 0, 58, 0
1, 106361, Note_on_c, 0, 77, 54
1, 106521, Note_on_c, 0, 63, 51
1, 106537, Note_on_c, 0, 58, 14
1, 106545, Note_on_c, 0, 59, 47
1, 106569, Note_on_c, 0, 53, 0
1, 106585, Note_on_c, 0, 63, 0
1, 106705, Note_on_c, 0, 77, 0
1, 106845, Note_on_c, 0, 59, 0
1, 106845, Note_on_c, 0, 58, 0
1, 106865, Note_on_c, 0, 53, 48
1, 106941, Note_on_c, 0, 53, 0
1, 107041, Control_c, 0, 64, 0
1, 107057, Note_on_c, 0, 66, 57
1, 107061, Note_on_c, 0, 77, 60
1, 107061, Note_on_c, 0, 70, 60
1, 107069, Note_on_c, 0, 73, 55
1, 107209, Control_c, 0, 64, 127
1, 107381, Note_on_c, 0, 63, 63
1, 107453, Note_on_c, 0, 73, 0
1, 107461, Note_on_c, 0, 70, 0
1, 107473, Note_on_c, 0, 66, 0
1, 107509, Control_c, 0, 64, 0
1, 107517, Note_on_c, 0, 77, 0
1, 107549, Note_on_c, 0, 63, 0
1, 107577, Note_on_c, 0, 75, 56
1, 107577, Note_on_c, 0, 66, 55
1, 107581, Control_c, 0, 64, 127
1, 107589, Note_on_c, 0, 70, 47
1, 107617, Note_on_c, 0, 73, 29
1, 107673, Note_on_c, 0, 73, 0
1, 107717, Note_on_c, 0, 75, 0
1, 107721, Note_on_c, 0, 70, 0
1, 107753, Note_on_c, 0, 66, 0
1, 107893, Note_on_c, 0, 54, 52
1, 107925, Note_on_c, 0, 54, 0
1, 108073, Control_c, 0, 64, 0
1, 108185, Control_c, 0, 64, 127
1, 108405, Control_c, 0, 64, 0
1, 108457, Note_on_c, 0, 47, 48
1, 108661, Note_on_c, 0, 66, 45
1, 108665, Note_on_c, 0, 58, 40
1, 108673, Note_on_c, 0, 61, 43
1, 108677, Control_c, 0, 64, 127
1, 108685, Note_on_c, 0, 54, 33
1, 108693, Note_on_c, 0, 63, 36
1, 108705, Note_on_c, 0, 58, 0
1, 108709, Note_on_c, 0, 61, 0
1, 108713, Control_c, 0, 64, 0
1, 108717, Note_on_c, 0, 66, 0
1, 108729, Note_on_c, 0, 54, 0
1, 108733, Note_on_c, 0, 63, 0
1, 108821, Note_on_c, 0, 58, 43
1, 108829, Note_on_c, 0, 66, 40
1, 108837, Note_on_c, 0, 61, 43
1, 108849, Note_on_c, 0, 63, 27
1, 108857, Note_on_c, 0, 58, 0
1, 108873, Note_on_c, 0, 61, 0
1, 108877, Note_on_c, 0, 66, 0
1, 108893, Note_on_c, 0, 63, 0
1, 109001, Note_on_c, 0, 66, 57
1, 109017, Note_on_c, 0, 58, 41
1, 109021, Note_on_c, 0, 61, 50
1, 109037, Note_on_c, 0, 63, 37
1, 109069, Note_on_c, 0, 58, 0
1, 109081, Note_on_c, 0, 63, 0
1, 109085, Note_on_c, 0, 61, 0
1, 109089, Note_on_c, 0, 66, 0
1, 109173, Note_on_c, 0, 66, 40
1, 109173, Note_on_c, 0, 58, 43
1, 109177, Note_on_c, 0, 61, 40
1, 109209, Note_on_c, 0, 58, 0
1, 109209, Note_on_c, 0, 63, 27
1, 109213, Note_on_c, 0, 61, 0
1, 109217, Note_on_c, 0, 66, 0
1, 109233, Note_on_c, 0, 47, 0
1, 109245, Note_on_c, 0, 63, 0
1, 109361, Note_on_c, 0, 66, 57
1, 109361, Note_on_c, 0, 58, 63
1, 109369, Note_on_c, 0, 48, 57
1, 109369, Note_on_c, 0, 63, 55
1, 109425, Note_on_c, 0, 58, 0
1, 109433, Note_on_c, 0, 66, 0
1, 109449, Note_on_c, 0, 63, 0
1, 109477, Note_on_c, 0, 48, 0
1, 109521, Note_on_c, 0, 58, 41
1, 109525, Note_on_c, 0, 66, 32
1, 109525, Note_on_c, 0, 63, 49
1, 109565, Note_on_c, 0, 58, 0
1, 109573, Note_on_c, 0, 66, 0
1, 109581, Note_on_c, 0, 63, 0
1, 109701, Note_on_c, 0, 66, 57
1, 109701, Note_on_c, 0, 58, 59
1, 109713, Note_on_c, 0, 63, 50
1, 109745, Note_on_c, 0, 63, 0
1, 109745, Note_on_c, 0, 58, 0
1, 109761, Note_on_c, 0, 66, 0
1, 109877, Note_on_c, 0, 66, 49
1, 109885, Note_on_c, 0, 58, 47
1, 109913, Note_on_c, 0, 58, 0
1, 109913, Note_on_c, 0, 66, 0
1, 110049, Note_on_c, 0, 58, 75
1, 110049, Note_on_c, 0, 66, 63
1, 110049, Note_on_c, 0, 41, 63
1, 110065, Note_on_c, 0, 63, 52
1, 110089, Note_on_c, 0, 41, 0
1, 110097, Note_on_c, 0, 63, 0
1, 110113, Note_on_c, 0, 58, 0
1, 110133, Note_on_c, 0, 66, 0
1, 110213, Note_on_c, 0, 57, 41
1, 110217, Note_on_c, 0, 66, 41
1, 110237, Note_on_c, 0, 63, 30
1, 110257, Note_on_c, 0, 66, 0
1, 110265, Note_on_c, 0, 57, 0
1, 110281, Note_on_c, 0, 63, 0
1, 110389, Note_on_c, 0, 57, 66
1, 110389, Note_on_c, 0, 66, 57
1, 110389, Note_on_c, 0, 63, 65
1, 110425, Note_on_c, 0, 66, 0
1, 110429, Note_on_c, 0, 51, 43
1, 110449, Note_on_c, 0, 57, 0
1, 110481, Note_on_c, 0, 51, 0
1, 110481, Note_on_c, 0, 63, 0
1, 110545, Note_on_c, 0, 63, 52
1, 110545, Note_on_c, 0, 57, 58
1, 110549, Note_on_c, 0, 66, 47
1, 110589, Note_on_c, 0, 66, 0
1, 110601, Note_on_c, 0, 57, 0
1, 110609, Note_on_c, 0, 63, 0
1, 110705, Note_on_c, 0, 41, 70
1, 110717, Note_on_c, 0, 66, 70
1, 110725, Note_on_c, 0, 57, 69
1, 110729, Note_on_c, 0, 63, 57
1, 110761, Note_on_c, 0, 63, 0
1, 110765, Note_on_c, 0, 57, 0
1, 110785, Note_on_c, 0, 66, 0
1, 110789, Note_on_c, 0, 41, 0
1, 110893, Note_on_c, 0, 66, 37
1, 110901, Note_on_c, 0, 57, 32
1, 110913, Note_on_c, 0, 63, 32
1, 110937, Note_on_c, 0, 57, 0
1, 110937, Note_on_c, 0, 66, 0
1, 110957, Note_on_c, 0, 63, 0
1, 111049, Note_on_c, 0, 46, 55
1, 111049, Note_on_c, 0, 65, 50
1, 111061, Note_on_c, 0, 57, 54
1, 111065, Note_on_c, 0, 62, 48
1, 111113, Note_on_c, 0, 57, 0
1, 111125, Note_on_c, 0, 62, 0
1, 111149, Note_on_c, 0, 65, 0
1, 111177, Note_on_c, 0, 46, 0
1, 111217, Note_on_c, 0, 65, 56
1, 111221, Note_on_c, 0, 62, 42
1, 111249, Note_on_c, 0, 62, 0
1, 111273, Note_on_c, 0, 65, 0
1, 111381, Note_on_c, 0, 72, 77
1, 111381, Note_on_c, 0, 65, 66
1, 111381, Note_on_c, 0, 57, 57
1, 111397, Note_on_c, 0, 67, 52
1, 111425, Note_on_c, 0, 67, 0
1, 111429, Note_on_c, 0, 57, 0
1, 111437, Note_on_c, 0, 65, 0
1, 111477, Note_on_c, 0, 72, 0
1, 111533, Note_on_c, 0, 72, 63
1, 111545, Note_on_c, 0, 65, 56
1, 111621, Note_on_c, 0, 72, 0
1, 111633, Note_on_c, 0, 65, 0
1, 111697, Note_on_c, 0, 65, 50
1, 111701, Note_on_c, 0, 57, 57
1, 111701, Note_on_c, 0, 62, 56
1, 111701, Note_on_c, 0, 69, 58
1, 111741, Control_c, 0, 64, 127
1, 111973, Note_on_c, 0, 62, 0
1, 111981, Note_on_c, 0, 65, 0
1, 112041, Note_on_c, 0, 65, 72
1, 112045, Note_on_c, 0, 62, 58
1, 112053, Note_on_c, 0, 53, 43
1, 112069, Note_on_c, 0, 57, 0
1, 112093, Control_c, 0, 64, 0
1, 112197, Control_c, 0, 64, 127
1, 112337, Note_on_c, 0, 62, 0
1, 112513, Note_on_c, 0, 65, 0
1, 112533, Note_on_c, 0, 69, 0
1, 112545, Note_on_c, 0, 46, 61
1, 112757, Note_on_c, 0, 53, 0
1, 112765, Note_on_c, 0, 46, 0
1, 113093, Note_on_c, 0, 81, 86
1, 113257, Control_c, 0, 64, 0
1, 113273, Note_on_c, 0, 66, 46
1, 113273, Note_on_c, 0, 62, 41
1, 113289, Note_on_c, 0, 55, 37
1, 113301, Note_on_c, 0, 59, 46
1, 113401, Note_on_c, 0, 81, 0
1, 113417, Note_on_c, 0, 82, 55
1, 113513, Note_on_c, 0, 81, 58
1, 113525, Note_on_c, 0, 82, 0
1, 113525, Note_on_c, 0, 66, 0
1, 113553, Control_c, 0, 64, 127
1, 113597, Note_on_c, 0, 81, 0
1, 113617, Note_on_c, 0, 62, 0
1, 113617, Note_on_c, 0, 79, 50
1, 113653, Note_on_c, 0, 79, 0
1, 113673, Note_on_c, 0, 59, 0
1, 113729, Note_on_c, 0, 81, 83
1, 113765, Control_c, 0, 64, 0
1, 113841, Note_on_c, 0, 66, 41
1, 113861, Note_on_c, 0, 62, 33
1, 113861, Note_on_c, 0, 82, 79
1, 113873, Note_on_c, 0, 81, 0
1, 113897, Note_on_c, 0, 59, 31
1, 113925, Note_on_c, 0, 62, 0
1, 113937, Note_on_c, 0, 82, 0
1, 113937, Control_c, 0, 64, 24
1, 113941, Control_c, 0, 64, 127
1, 113993, Note_on_c, 0, 66, 0
1, 113993, Note_on_c, 0, 84, 66
1, 114045, Note_on_c, 0, 59, 0
1, 114065, Note_on_c, 0, 84, 0
1, 114077, Note_on_c, 0, 55, 0
1, 114125, Note_on_c, 0, 89, 65
1, 114201, Note_on_c, 0, 89, 0
1, 114249, Note_on_c, 0, 93, 90
1, 114333, Control_c, 0, 64, 0
1, 114353, Note_on_c, 0, 93, 0
1, 114389, Note_on_c, 0, 96, 107
1, 114397, Note_on_c, 0, 66, 60
1, 114401, Note_on_c, 0, 61, 56
1, 114417, Note_on_c, 0, 55, 48
1, 114557, Control_c, 0, 64, 127
1, 114565, Note_on_c, 0, 96, 0
1, 114633, Note_on_c, 0, 94, 75
1, 114693, Note_on_c, 0, 55, 0
1, 114729, Note_on_c, 0, 61, 0
1, 114741, Note_on_c, 0, 66, 0
1, 114765, Note_on_c, 0, 94, 0
1, 114893, Control_c, 0, 64, 0
1, 114897, Note_on_c, 0, 61, 53
1, 114897, Note_on_c, 0, 65, 49
1, 114905, Note_on_c, 0, 93, 77
1, 114917, Note_on_c, 0, 55, 39
1, 114977, Note_on_c, 0, 65, 0
1, 114993, Note_on_c, 0, 55, 0
1, 115013, Control_c, 0, 64, 127
1, 115041, Note_on_c, 0, 93, 0
1, 115061, Note_on_c, 0, 91, 61
1, 115185, Note_on_c, 0, 91, 0
1, 115189, Note_on_c, 0, 61, 0
1, 115237, Note_on_c, 0, 90, 75
1, 115297, Control_c, 0, 64, 0
1, 115353, Note_on_c, 0, 61, 40
1, 115357, Note_on_c, 0, 64, 42
1, 115361, Note_on_c, 0, 54, 39
1, 115377, Note_on_c, 0, 59, 46
1, 115405, Control_c, 0, 64, 127
1, 115413, Note_on_c, 0, 59, 0
1, 115433, Note_on_c, 0, 64, 0
1, 115441, Note_on_c, 0, 61, 0
1, 115477, Note_on_c, 0, 54, 0
1, 115497, Note_on_c, 0, 90, 0
1, 115733, Note_on_c, 0, 40, 43
1, 115769, Note_on_c, 0, 40, 0
1, 115929, Control_c, 0, 64, 0
1, 115929, Note_on_c, 0, 45, 55
1, 115997, Note_on_c, 0, 45, 0
1, 116045, Control_c, 0, 64, 127
1, 116237, Note_on_c, 0, 54, 59
1, 116249, Note_on_c, 0, 69, 63
1, 116249, Note_on_c, 0, 66, 62
1, 116253, Note_on_c, 0, 61, 65
1, 116265, Control_c, 0, 64, 0
1, 116401, Note_on_c, 0, 54, 0
1, 116441, Control_c, 0, 64, 127
1, 116481, Note_on_c, 0, 69, 0
1, 116501, Note_on_c, 0, 61, 0
1, 116505, Note_on_c, 0, 66, 0
1, 116729, Note_on_c, 0, 66, 57
1, 116733, Control_c, 0, 64, 0
1, 116737, Note_on_c, 0, 61, 57
1, 116745, Note_on_c, 0, 57, 52
1, 116765, Note_on_c, 0, 45, 49
1, 116941, Control_c, 0, 64, 127
1, 116961, Note_on_c, 0, 38, 56
1, 117033, Note_on_c, 0, 38, 0
1, 117181, Note_on_c, 0, 45, 0
1, 117189, Note_on_c, 0, 57, 0
1, 117277, Note_on_c, 0, 61, 0
1, 117281, Note_on_c, 0, 66, 0
1, 117305, Note_on_c, 0, 38, 44
1, 117337, Note_on_c, 0, 38, 0
1, 117497, Note_on_c, 0, 69, 76
1, 117501, Control_c, 0, 64, 0
1, 117501, Note_on_c, 0, 59, 76
1, 117501, Note_on_c, 0, 62, 76
1, 117501, Note_on_c, 0, 66, 67
1, 117501, Note_on_c, 0, 52, 69
1, 117649, Control_c, 0, 64, 127
1, 117657, Note_on_c, 0, 52, 0
1, 117825, Control_c, 0, 64, 0
1, 117829, Note_on_c, 0, 57, 86
1, 117981, Note_on_c, 0, 57, 0
1, 118045, Note_on_c, 0, 57, 68
1, 118073, Control_c, 0, 64, 127
1, 118161, Note_on_c, 0, 57, 0
1, 118161, Note_on_c, 0, 59, 0
1, 118177, Note_on_c, 0, 62, 0
1, 118201, Note_on_c, 0, 45, 67
1, 118221, Note_on_c, 0, 66, 0
1, 118229, Note_on_c, 0, 69, 0
1, 118285, Note_on_c, 0, 45, 0
1, 118401, Note_on_c, 0, 45, 75
1, 118693, Control_c, 0, 64, 0
1, 118729, Note_on_c, 0, 61, 56
1, 118733, Note_on_c, 0, 58, 52
1, 118737, Note_on_c, 0, 69, 49
1, 118753, Note_on_c, 0, 64, 50
1, 118813, Note_on_c, 0, 58, 0
1, 118833, Note_on_c, 0, 61, 0
1, 118841, Note_on_c, 0, 69, 0
1, 118849, Note_on_c, 0, 64, 0
1, 118857, Control_c, 0, 64, 127
1, 118909, Note_on_c, 0, 57, 71
1, 118977, Note_on_c, 0, 57, 0
1, 119097, Note_on_c, 0, 58, 60
1, 119101, Note_on_c, 0, 61, 57
1, 119105, Note_on_c, 0, 69, 54
1, 119109, Control_c, 0, 64, 0
1, 119109, Note_on_c, 0, 57, 66
1, 119121, Note_on_c, 0, 64, 54
1, 119145, Note_on_c, 0, 58, 0
1, 119157, Note_on_c, 0, 64, 0
1, 119169, Note_on_c, 0, 57, 0
1, 119193, Note_on_c, 0, 69, 0
1, 119193, Note_on_c, 0, 61, 0
1, 119281, Control_c, 0, 64, 127
1, 119289, Note_on_c, 0, 45, 0
1, 119365, Control_c, 0, 64, 0
1, 119453, Note_on_c, 0, 45, 88
1, 119565, Control_c, 0, 64, 127
1, 119749, Control_c, 0, 64, 0
1, 119797, Note_on_c, 0, 61, 61
1, 119805, Note_on_c, 0, 69, 57
1, 119813, Note_on_c, 0, 57, 63
1, 119817, Note_on_c, 0, 64, 44
1, 119817, Note_on_c, 0, 66, 41
1, 119849, Note_on_c, 0, 57, 0
1, 119865, Note_on_c, 0, 61, 0
1, 119873, Note_on_c, 0, 64, 0
1, 119893, Note_on_c, 0, 69, 0
1, 119909, Control_c, 0, 64, 127
1, 119913, Control_c, 0, 64, 0
1, 119917, Control_c, 0, 64, 127
1, 119945, Note_on_c, 0, 66, 0
1, 119981, Note_on_c, 0, 57, 54
1, 120013, Note_on_c, 0, 57, 0
1, 120121, Control_c, 0, 64, 0
1, 120169, Note_on_c, 0, 61, 62
1, 120169, Note_on_c, 0, 69, 60
1, 120177, Note_on_c, 0, 64, 58
1, 120181, Note_on_c, 0, 66, 51
1, 120181, Note_on_c, 0, 57, 68
1, 120197, Control_c, 0, 64, 127
1, 120269, Note_on_c, 0, 45, 0
1, 120325, Control_c, 0, 64, 0
1, 120329, Note_on_c, 0, 61, 0
1, 120329, Note_on_c, 0, 57, 0
1, 120333, Note_on_c, 0, 64, 0
1, 120341, Note_on_c, 0, 45, 68
1, 120349, Note_on_c, 0, 69, 0
1, 120353, Control_c, 0, 64, 127
1, 120373, Note_on_c, 0, 66, 0
1, 120489, Control_c, 0, 64, 0
1, 120529, Note_on_c, 0, 57, 78
1, 120529, Note_on_c, 0, 61, 71
1, 120537, Note_on_c, 0, 69, 63
1, 120541, Note_on_c, 0, 64, 63
1, 120541, Note_on_c, 0, 66, 58
1, 120605, Control_c, 0, 64, 127
1, 120777, Note_on_c, 0, 45, 0
1, 120849, Note_on_c, 0, 57, 0
1, 120873, Note_on_c, 0, 69, 0
1, 120893, Note_on_c, 0, 64, 0
1, 120913, Note_on_c, 0, 61, 0
1, 120925, Note_on_c, 0, 66, 0
1, 121029, Note_on_c, 0, 45, 46
1, 121029, Note_on_c, 0, 43, 45
1, 121061, Note_on_c, 0, 43, 0
1, 121065, Note_on_c, 0, 45, 0
1, 121341, Control_c, 0, 64, 0
1, 121413, Note_on_c, 0, 64, 52
1, 121417, Note_on_c, 0, 45, 63
1, 121421, Control_c, 0, 64, 127
1, 121437, Note_on_c, 0, 33, 36
1, 121437, Note_on_c, 0, 60, 51
1, 121445, Note_on_c, 0, 57, 38
1, 121453, Note_on_c, 0, 64, 0
1, 121461, Note_on_c, 0, 45, 0
1, 121473, Note_on_c, 0, 33, 0
1, 121481, Note_on_c, 0, 57, 0
1, 121485, Control_c, 0, 64, 0
1, 121497, Note_on_c, 0, 60, 0
1, 121557, Control_c, 0, 64, 127
1, 121589, Note_on_c, 0, 63, 54
1, 121593, Note_on_c, 0, 44, 55
1, 121593, Note_on_c, 0, 32, 57
1, 121593, Note_on_c, 0, 56, 51
1, 121617, Note_on_c, 0, 61, 31
1, 121693, Note_on_c, 0, 44, 0
1, 121693, Note_on_c, 0, 63, 0
1, 121697, Note_on_c, 0, 61, 0
1, 121701, Note_on_c, 0, 56, 0
1, 121733, Note_on_c, 0, 32, 0
1, 121733, Control_c, 0, 64, 0
1, 121777, Note_on_c, 0, 43, 68
1, 121777, Note_on_c, 0, 64, 52
1, 121781, Note_on_c, 0, 53, 56
1, 121781, Note_on_c, 0, 31, 57
1, 121785, Note_on_c, 0, 57, 63
1, 121789, Note_on_c, 0, 60, 58
1, 121881, Control_c, 0, 64, 127
1, 122005, Note_on_c, 0, 53, 0
1, 122009, Note_on_c, 0, 31, 0
1, 122029, Note_on_c, 0, 57, 0
1, 122065, Note_on_c, 0, 64, 0
1, 122065, Note_on_c, 0, 60, 0
1, 122085, Note_on_c, 0, 43, 0
1, 122113, Note_on_c, 0, 31, 80
1, 122185, Note_on_c, 0, 31, 0
1, 122501, Note_on_c, 0, 76, 81
1, 122509, Note_on_c, 0, 69, 81
1, 122509, Note_on_c, 0, 65, 83
1, 122513, Note_on_c, 0, 72, 75
1, 122513, Note_on_c, 0, 64, 86
1, 122581, Note_on_c, 0, 65, 0
1, 122597, Note_on_c, 0, 64, 0
1, 122601, Note_on_c, 0, 76, 0
1, 122609, Note_on_c, 0, 69, 0
1, 122617, Note_on_c, 0, 72, 0
1, 122661, Note_on_c, 0, 64, 72
1, 122665, Note_on_c, 0, 69, 72
1, 122665, Note_on_c, 0, 76, 65
1, 122669, Note_on_c, 0, 65, 75
1, 122677, Note_on_c, 0, 72, 76
1, 122733, Note_on_c, 0, 65, 0
1, 122749, Note_on_c, 0, 64, 0
1, 122757, Note_on_c, 0, 76, 0
1, 122765, Note_on_c, 0, 69, 0
1, 122765, Note_on_c, 0, 72, 0
1, 122825, Control_c, 0, 64, 0
1, 122861, Note_on_c, 0, 64, 85
1, 122861, Note_on_c, 0, 69, 85
1, 122861, Note_on_c, 0, 76, 80
1, 122869, Note_on_c, 0, 72, 71
1, 122873, Note_on_c, 0, 65, 81
1, 122909, Control_c, 0, 64, 127
1, 122949, Note_on_c, 0, 64, 0
1, 123021, Note_on_c, 0, 72, 0
1, 123029, Note_on_c, 0, 69, 0
1, 123037, Note_on_c, 0, 65, 0
1, 123065, Note_on_c, 0, 76, 0
1, 123189, Control_c, 0, 64, 0
1, 123193, Note_on_c, 0, 74, 73
1, 123201, Note_on_c, 0, 68, 72
1, 123205, Note_on_c, 0, 71, 74
1, 123205, Note_on_c, 0, 65, 71
1, 123205, Note_on_c, 0, 64, 70
1, 123209, Note_on_c, 0, 59, 61
1, 123209, Note_on_c, 0, 53, 66
1, 123317, Control_c, 0, 64, 127
1, 123537, Note_on_c, 0, 65, 0
1, 123569, Note_on_c, 0, 64, 0
1, 123569, Note_on_c, 0, 68, 0
1, 123569, Note_on_c, 0, 71, 0
1, 123569, Note_on_c, 0, 59, 0
1, 123593, Note_on_c, 0, 53, 0
1, 123597, Note_on_c, 0, 74, 0
1, 123877, Control_c, 0, 64, 0
1, 123921, Note_on_c, 0, 79, 61
1, 123925, Note_on_c, 0, 74, 61
1, 123929, Note_on_c, 0, 59, 39
1, 123933, Note_on_c, 0, 67, 48
1, 123937, Note_on_c, 0, 55, 45
1, 123941, Note_on_c, 0, 62, 39
1, 123949, Note_on_c, 0, 52, 39
1, 123977, Note_on_c, 0, 67, 0
1, 123981, Control_c, 0, 64, 127
1, 124041, Note_on_c, 0, 74, 0
1, 124061, Note_on_c, 0, 79, 0
1, 124209, Note_on_c, 0, 62, 0
1, 124253, Note_on_c, 0, 86, 57
1, 124257, Note_on_c, 0, 79, 58
1, 124281, Note_on_c, 0, 59, 0
1, 124341, Note_on_c, 0, 55, 0
1, 124377, Note_on_c, 0, 86, 0
1, 124397, Note_on_c, 0, 79, 0
1, 124437, Note_on_c, 0, 83, 57
1, 124453, Note_on_c, 0, 74, 33
1, 124485, Note_on_c, 0, 55, 25
1, 124533, Note_on_c, 0, 74, 0
1, 124573, Note_on_c, 0, 83, 0
1, 124577, Note_on_c, 0, 55, 0
1, 124613, Note_on_c, 0, 86, 61
1, 124625, Note_on_c, 0, 79, 60
1, 124701, Note_on_c, 0, 79, 0
1, 124717, Note_on_c, 0, 86, 0
1, 124789, Note_on_c, 0, 83, 63
1, 124809, Note_on_c, 0, 74, 47
1, 124865, Note_on_c, 0, 74, 0
1, 124913, Note_on_c, 0, 83, 0
1, 124949, Note_on_c, 0, 86, 66
1, 124957, Note_on_c, 0, 52, 0
1, 124961, Note_on_c, 0, 79, 59
1, 125029, Note_on_c, 0, 79, 0
1, 125029, Note_on_c, 0, 86, 0
1, 125145, Control_c, 0, 64, 0
1, 125149, Note_on_c, 0, 62, 39
1, 125149, Note_on_c, 0, 83, 63
1, 125157, Note_on_c, 0, 52, 31
1, 125157, Note_on_c, 0, 74, 54
1, 125157, Note_on_c, 0, 55, 44
1, 125157, Note_on_c, 0, 79, 48
1, 125165, Note_on_c, 0, 59, 46
1, 125213, Control_c, 0, 64, 127
1, 125269, Note_on_c, 0, 83, 0
1, 125273, Note_on_c, 0, 79, 0
1, 125309, Note_on_c, 0, 74, 0
1, 125321, Note_on_c, 0, 55, 0
1, 125341, Note_on_c, 0, 62, 0
1, 125365, Note_on_c, 0, 52, 0
1, 125369, Note_on_c, 0, 59, 0
1, 125509, Note_on_c, 0, 74, 57
1, 125513, Note_on_c, 0, 79, 54
1, 125513, Note_on_c, 0, 71, 45
1, 125521, Note_on_c, 0, 59, 37
1, 125557, Note_on_c, 0, 59, 0
1, 125705, Note_on_c, 0, 71, 0
1, 125801, Note_on_c, 0, 74, 0
1, 125853, Note_on_c, 0, 79, 0
1, 125925, Note_on_c, 0, 54, 80
1, 125929, Note_on_c, 0, 39, 76
1, 125993, Control_c, 0, 64, 0
1, 126085, Control_c, 0, 64, 127
1, 126113, Note_on_c, 0, 39, 0
1, 126169, Note_on_c, 0, 54, 0
1, 126445, Note_on_c, 0, 89, 94
1, 126445, Note_on_c, 0, 65, 83
1, 126449, Note_on_c, 0, 82, 88
1, 126449, Note_on_c, 0, 61, 67
1, 126449, Note_on_c, 0, 58, 69
1, 126449, Note_on_c, 0, 77, 89
1, 126449, Note_on_c, 0, 54, 70
1, 126449, Note_on_c, 0, 85, 81
1, 126561, Note_on_c, 0, 77, 0
1, 126581, Note_on_c, 0, 82, 0
1, 126589, Note_on_c, 0, 89, 0
1, 126617, Note_on_c, 0, 54, 0
1, 126621, Note_on_c, 0, 65, 0
1, 126625, Note_on_c, 0, 85, 0
1, 126641, Note_on_c, 0, 61, 0
1, 126645, Note_on_c, 0, 58, 0
1, 126693, Note_on_c, 0, 90, 89
1, 126697, Note_on_c, 0, 78, 88
1, 126697, Note_on_c, 0, 85, 72
1, 126701, Note_on_c, 0, 58, 76
1, 126701, Note_on_c, 0, 61, 71
1, 126701, Note_on_c, 0, 65, 79
1, 126701, Note_on_c, 0, 54, 72
1, 126845, Note_on_c, 0, 85, 0
1, 126869, Note_on_c, 0, 78, 0
1, 126885, Note_on_c, 0, 90, 0
1, 126889, Note_on_c, 0, 65, 0
1, 126897, Note_on_c, 0, 54, 0
1, 126901, Note_on_c, 0, 61, 0
1, 126901, Note_on_c, 0, 58, 0
1, 127005, Note_on_c, 0, 92, 90
1, 127005, Note_on_c, 0, 87, 92
1, 127005, Note_on_c, 0, 80, 94
1, 127005, Note_on_c, 0, 58, 82
1, 127005, Note_on_c, 0, 61, 82
1, 127005, Note_on_c, 0, 65, 94
1, 127005, Note_on_c, 0, 54, 81
1, 127025, Control_c, 0, 64, 0
1, 127101, Control_c, 0, 64, 127
1, 127169, Note_on_c, 0, 65, 0
1, 127209, Note_on_c, 0, 61, 0
1, 127217, Note_on_c, 0, 58, 0
1, 127217, Note_on_c, 0, 54, 0
1, 127369, Note_on_c, 0, 87, 0
1, 127373, Note_on_c, 0, 80, 0
1, 127373, Note_on_c, 0, 92, 0
1, 127521, Note_on_c, 0, 44, 77
1, 127525, Note_on_c, 0, 90, 87
1, 127529, Note_on_c, 0, 54, 72
1, 127533, Note_on_c, 0, 78, 87
1, 127533, Note_on_c, 0, 85, 85
1, 127545, Control_c, 0, 64, 0
1, 127641, Control_c, 0, 64, 127
1, 127773, Note_on_c, 0, 54, 0
1, 127777, Note_on_c, 0, 44, 0
1, 127817, Note_on_c, 0, 85, 0
1, 127865, Note_on_c, 0, 90, 0
1, 127869, Note_on_c, 0, 78, 0
1, 127953, Note_on_c, 0, 89, 81
1, 127957, Note_on_c, 0, 77, 75
1, 127957, Note_on_c, 0, 84, 78
1, 128061, Note_on_c, 0, 89, 0
1, 128069, Note_on_c, 0, 84, 0
1, 128113, Note_on_c, 0, 77, 0
1, 128265, Control_c, 0, 64, 0
1, 128297, Note_on_c, 0, 83, 58
1, 128301, Note_on_c, 0, 88, 52
1, 128305, Note_on_c, 0, 55, 49
1, 128317, Note_on_c, 0, 76, 41
1, 128345, Control_c, 0, 64, 127
1, 128437, Note_on_c, 0, 88, 0
1, 128469, Note_on_c, 0, 83, 0
1, 128517, Note_on_c, 0, 76, 0
1, 128621, Note_on_c, 0, 43, 55
1, 128633, Note_on_c, 0, 55, 0
1, 128697, Note_on_c, 0, 43, 0
1, 128865, Note_on_c, 0, 43, 47
1, 128969, Note_on_c, 0, 43, 0
1, 129157, Control_c, 0, 64, 0
1, 129165, Note_on_c, 0, 57, 52
1, 129169, Note_on_c, 0, 53, 50
1, 129173, Note_on_c, 0, 59, 49
1, 129173, Note_on_c, 0, 64, 44
1, 129177, Note_on_c, 0, 43, 49
1, 129177, Note_on_c, 0, 52, 48
1, 129357, Control_c, 0, 64, 127
1, 129405, Note_on_c, 0, 53, 0
1, 129409, Note_on_c, 0, 57, 0
1, 129421, Note_on_c, 0, 52, 0
1, 129425, Note_on_c, 0, 59, 0
1, 129425, Control_c, 0, 64, 0
1, 129441, Note_on_c, 0, 64, 0
1, 129509, Note_on_c, 0, 53, 51
1, 129517, Note_on_c, 0, 59, 45
1, 129517, Note_on_c, 0, 62, 57
1, 129517, Note_on_c, 0, 57, 49
1, 129521, Control_c, 0, 64, 127
1, 129529, Note_on_c, 0, 50, 49
1, 129657, Note_on_c, 0, 43, 0
1, 129869, Note_on_c, 0, 53, 0
1, 129877, Note_on_c, 0, 43, 62
1, 129885, Note_on_c, 0, 57, 0
1, 129921, Note_on_c, 0, 59, 0
1, 129945, Note_on_c, 0, 43, 0
1, 129945, Note_on_c, 0, 62, 0
1, 129957, Note_on_c, 0, 50, 0
1, 130145, Control_c, 0, 64, 0
1, 130205, Note_on_c, 0, 63, 55
1, 130213, Note_on_c, 0, 55, 58
1, 130213, Note_on_c, 0, 57, 57
1, 130221, Note_on_c, 0, 45, 61
1, 130225, Note_on_c, 0, 60, 55
1, 130269, Control_c, 0, 64, 127
1, 130281, Note_on_c, 0, 55, 0
1, 130293, Note_on_c, 0, 57, 0
1, 130309, Note_on_c, 0, 45, 0
1, 130317, Note_on_c, 0, 60, 0
1, 130341, Note_on_c, 0, 63, 0
1, 130705, Note_on_c, 0, 63, 54
1, 130709, Note_on_c, 0, 74, 57
1, 130709, Note_on_c, 0, 67, 57
1, 130721, Note_on_c, 0, 62, 59
1, 130789, Note_on_c, 0, 63, 0
1, 130809, Note_on_c, 0, 67, 0
1, 130813, Note_on_c, 0, 74, 0
1, 130845, Control_c, 0, 64, 0
1, 130861, Control_c, 0, 64, 127
1, 130881, Note_on_c, 0, 50, 43
1, 131117, Note_on_c, 0, 50, 0
1, 131225, Note_on_c, 0, 50, 56
1, 131273, Note_on_c, 0, 62, 0
1, 131309, Control_c, 0, 64, 0
1, 131421, Note_on_c, 0, 63, 49
1, 131429, Note_on_c, 0, 60, 50
1, 131429, Note_on_c, 0, 72, 55
1, 131445, Note_on_c, 0, 66, 38
1, 131457, Note_on_c, 0, 69, 39
1, 131589, Note_on_c, 0, 50, 0
1, 131745, Note_on_c, 0, 50, 58
1, 131833, Note_on_c, 0, 50, 0
1, 131941, Control_c, 0, 64, 127
1, 131985, Note_on_c, 0, 50, 37
1, 132001, Note_on_c, 0, 60, 0
1, 132025, Note_on_c, 0, 72, 0
1, 132025, Note_on_c, 0, 50, 0
1, 132049, Note_on_c, 0, 69, 0
1, 132077, Note_on_c, 0, 63, 0
1, 132125, Note_on_c, 0, 66, 0
1, 132281, Note_on_c, 0, 72, 56
1, 132353, Note_on_c, 0, 72, 0
1, 132421, Control_c, 0, 64, 0
1, 132477, Note_on_c, 0, 70, 54
1, 132497, Note_on_c, 0, 43, 39
1, 132773, Note_on_c, 0, 43, 0
1, 132801, Note_on_c, 0, 50, 46
1, 132877, Note_on_c, 0, 50, 0
1, 132993, Note_on_c, 0, 62, 46
1, 132997, Note_on_c, 0, 58, 35
1, 132997, Note_on_c, 0, 57, 46
1, 133113, Note_on_c, 0, 57, 0
1, 133241, Note_on_c, 0, 58, 0
1, 133257, Note_on_c, 0, 62, 0
1, 133317, Note_on_c, 0, 55, 35
1, 133377, Note_on_c, 0, 70, 0
1, 133417, Note_on_c, 0, 55, 0
1, 133505, Note_on_c, 0, 58, 48
1, 133517, Note_on_c, 0, 61, 45
1, 133533, Note_on_c, 0, 64, 43
1, 133633, Control_c, 0, 64, 127
1, 133665, Note_on_c, 0, 58, 0
1, 133717, Note_on_c, 0, 64, 0
1, 133737, Note_on_c, 0, 61, 0
1, 133817, Note_on_c, 0, 48, 48
1, 133985, Control_c, 0, 64, 0
1, 134009, Note_on_c, 0, 58, 45
1, 134025, Control_c, 0, 64, 127
1, 134033, Note_on_c, 0, 73, 33
1, 134041, Note_on_c, 0, 70, 42
1, 134049, Note_on_c, 0, 68, 36
1, 134069, Note_on_c, 0, 48, 0
1, 134105, Note_on_c, 0, 58, 0
1, 134177, Note_on_c, 0, 73, 0
1, 134201, Note_on_c, 0, 68, 0
1, 134209, Note_on_c, 0, 70, 0
1, 134301, Control_c, 0, 64, 0
1, 134337, Note_on_c, 0, 62, 37
1, 134337, Note_on_c, 0, 74, 49
1, 134341, Note_on_c, 0, 70, 38
1, 134341, Note_on_c, 0, 63, 51
1, 134345, Note_on_c, 0, 67, 56
1, 134481, Control_c, 0, 64, 127
1, 134565, Note_on_c, 0, 63, 0
1, 134565, Note_on_c, 0, 74, 0
1, 134625, Note_on_c, 0, 67, 0
1, 134717, Note_on_c, 0, 70, 0
1, 134829, Note_on_c, 0, 75, 58
1, 134929, Note_on_c, 0, 62, 0
1, 134973, Note_on_c, 0, 75, 0
1, 135157, Note_on_c, 0, 77, 63
1, 135353, Note_on_c, 0, 77, 0
1, 135457, Control_c, 0, 64, 0
1, 135477, Note_on_c, 0, 63, 35
1, 135485, Note_on_c, 0, 75, 52
1, 135493, Note_on_c, 0, 67, 28
1, 135497, Note_on_c, 0, 57, 37
1, 135609, Control_c, 0, 64, 127
1, 135785, Note_on_c, 0, 75, 0
1, 135829, Note_on_c, 0, 74, 58
1, 136061, Note_on_c, 0, 67, 0
1, 136177, Note_on_c, 0, 57, 0
1, 136177, Note_on_c, 0, 63, 0
1, 136325, Note_on_c, 0, 72, 57
1, 136341, Note_on_c, 0, 74, 0
1, 136813, Control_c, 0, 64, 0
1, 136817, Note_on_c, 0, 69, 51
1, 136825, Note_on_c, 0, 65, 45
1, 136833, Note_on_c, 0, 62, 45
1, 136841, Note_on_c, 0, 60, 40
1, 137037, Note_on_c, 0, 69, 0
1, 137041, Note_on_c, 0, 72, 0
1, 137061, Note_on_c, 0, 70, 60
1, 137137, Note_on_c, 0, 65, 0
1, 137233, Control_c, 0, 64, 127
1, 137301, Note_on_c, 0, 70, 0
1, 137373, Note_on_c, 0, 53, 57
1, 137381, Note_on_c, 0, 72, 72
1, 137449, Control_c, 0, 64, 0
1, 137469, Note_on_c, 0, 72, 0
1, 137549, Control_c, 0, 64, 127
1, 137601, Note_on_c, 0, 62, 0
1, 137605, Note_on_c, 0, 60, 0
1, 137605, Note_on_c, 0, 74, 74
1, 137641, Note_on_c, 0, 53, 0
1, 137913, Note_on_c, 0, 39, 52
1, 137989, Note_on_c, 0, 39, 0
1, 138061, Control_c, 0, 64, 0
1, 138121, Note_on_c, 0, 55, 48
1, 138125, Note_on_c, 0, 62, 39
1, 138129, Note_on_c, 0, 67, 45
1, 138217, Control_c, 0, 64, 127
1, 138357, Note_on_c, 0, 62, 0
1, 138365, Note_on_c, 0, 67, 0
1, 138373, Note_on_c, 0, 74, 0
1, 138381, Note_on_c, 0, 55, 0
1, 138437, Note_on_c, 0, 46, 45
1, 138521, Note_on_c, 0, 46, 0
1, 138557, Control_c, 0, 64, 0
1, 138625, Control_c, 0, 64, 127
1, 138625, Note_on_c, 0, 66, 48
1, 138625, Note_on_c, 0, 44, 46
1, 138637, Note_on_c, 0, 59, 35
1, 138637, Note_on_c, 0, 54, 31
1, 138665, Note_on_c, 0, 44, 0
1, 138677, Note_on_c, 0, 59, 0
1, 138713, Note_on_c, 0, 54, 0
1, 138721, Note_on_c, 0, 66, 0
1, 139113, Note_on_c, 0, 63, 43
1, 139129, Note_on_c, 0, 58, 48
1, 139133, Note_on_c, 0, 59, 50
1, 139133, Control_c, 0, 64, 0
1, 139145, Note_on_c, 0, 54, 31
1, 139273, Note_on_c, 0, 71, 45
1, 139297, Control_c, 0, 64, 127
1, 139341, Note_on_c, 0, 71, 0
1, 139493, Note_on_c, 0, 59, 0
1, 139509, Note_on_c, 0, 63, 0
1, 139537, Note_on_c, 0, 54, 0
1, 139629, Control_c, 0, 64, 0
1, 139629, Note_on_c, 0, 63, 41
1, 139637, Note_on_c, 0, 53, 42
1, 139657, Note_on_c, 0, 59, 39
1, 139897, Note_on_c, 0, 73, 85
1, 139905, Note_on_c, 0, 63, 0
1, 139965, Note_on_c, 0, 59, 0
1, 139981, Note_on_c, 0, 73, 0
1, 139985, Control_c, 0, 64, 127
1, 140021, Note_on_c, 0, 75, 94
1, 140029, Note_on_c, 0, 58, 0
1, 140061, Control_c, 0, 64, 0
1, 140129, Note_on_c, 0, 63, 48
1, 140141, Note_on_c, 0, 58, 24
1, 140161, Note_on_c, 0, 73, 76
1, 140161, Note_on_c, 0, 59, 43
1, 140193, Note_on_c, 0, 63, 0
1, 140197, Control_c, 0, 64, 127
1, 140205, Note_on_c, 0, 75, 0
1, 140209, Note_on_c, 0, 59, 0
1, 140285, Note_on_c, 0, 53, 0
1, 140301, Note_on_c, 0, 58, 0
1, 140313, Note_on_c, 0, 73, 0
1, 140461, Note_on_c, 0, 71, 75
1, 140549, Note_on_c, 0, 71, 0
1, 140621, Control_c, 0, 64, 0
1, 140645, Note_on_c, 0, 61, 36
1, 140653, Note_on_c, 0, 51, 39
1, 140657, Note_on_c, 0, 70, 61
1, 140657, Note_on_c, 0, 58, 47
1, 140685, Note_on_c, 0, 56, 33
1, 140733, Control_c, 0, 64, 127
1, 140737, Note_on_c, 0, 56, 0
1, 140777, Note_on_c, 0, 58, 0
1, 140805, Note_on_c, 0, 61, 0
1, 140809, Note_on_c, 0, 51, 0
1, 140921, Control_c, 0, 64, 0
1, 140941, Note_on_c, 0, 70, 0
1, 140969, Note_on_c, 0, 73, 64
1, 140981, Note_on_c, 0, 51, 39
1, 140981, Note_on_c, 0, 61, 28
1, 141017, Note_on_c, 0, 61, 0
1, 141025, Note_on_c, 0, 73, 0
1, 141033, Note_on_c, 0, 51, 0
1, 141125, Control_c, 0, 64, 127
1, 141409, Control_c, 0, 64, 0
1, 141437, Note_on_c, 0, 58, 54
1, 141445, Note_on_c, 0, 66, 46
1, 141453, Note_on_c, 0, 54, 43
1, 141469, Note_on_c, 0, 47, 39
1, 141477, Note_on_c, 0, 63, 39
1, 141541, Control_c, 0, 64, 127
1, 141853, Note_on_c, 0, 66, 0
1, 141861, Note_on_c, 0, 63, 0
1, 141945, Note_on_c, 0, 58, 0
1, 142161, Note_on_c, 0, 70, 54
1, 142297, Note_on_c, 0, 70, 0
1, 142325, Note_on_c, 0, 47, 0
1, 142337, Note_on_c, 0, 54, 0
1, 142649, Control_c, 0, 64, 0
1, 142653, Note_on_c, 0, 41, 51
1, 142765, Control_c, 0, 64, 127
1, 142909, Note_on_c, 0, 41, 0
1, 142989, Note_on_c, 0, 68, 43
1, 143001, Note_on_c, 0, 61, 41
1, 143001, Control_c, 0, 64, 0
1, 143009, Note_on_c, 0, 41, 8
1, 143009, Note_on_c, 0, 63, 39
1, 143037, Note_on_c, 0, 61, 0
1, 143037, Note_on_c, 0, 68, 0
1, 143041, Note_on_c, 0, 63, 0
1, 143217, Note_on_c, 0, 54, 38
1, 143221, Control_c, 0, 64, 127
1, 143225, Note_on_c, 0, 68, 41
1, 143245, Note_on_c, 0, 61, 31
1, 143253, Note_on_c, 0, 63, 27
1, 143257, Note_on_c, 0, 54, 0
1, 143269, Note_on_c, 0, 68, 0
1, 143285, Note_on_c, 0, 61, 0
1, 143289, Note_on_c, 0, 63, 0
1, 143529, Note_on_c, 0, 68, 42
1, 143537, Note_on_c, 0, 57, 39
1, 143537, Note_on_c, 0, 61, 41
1, 143541, Note_on_c, 0, 63, 42
1, 143589, Note_on_c, 0, 63, 0
1, 143605, Note_on_c, 0, 57, 0
1, 143617, Note_on_c, 0, 61, 0
1, 143637, Note_on_c, 0, 68, 0
1, 143657, Note_on_c, 0, 41, 0
1, 143761, Control_c, 0, 64, 0
1, 143765, Note_on_c, 0, 68, 44
1, 143769, Note_on_c, 0, 63, 46
1, 143773, Note_on_c, 0, 61, 41
1, 143777, Note_on_c, 0, 57, 36
1, 143949, Note_on_c, 0, 61, 0
1, 143957, Note_on_c, 0, 63, 0
1, 143961, Control_c, 0, 64, 127
1, 143973, Note_on_c, 0, 57, 0
1, 144037, Note_on_c, 0, 68, 0
1, 144069, Control_c, 0, 64, 0
1, 144109, Note_on_c, 0, 57, 43
1, 144109, Note_on_c, 0, 66, 49
1, 144121, Note_on_c, 0, 61, 44
1, 144141, Note_on_c, 0, 63, 39
1, 144153, Note_on_c, 0, 47, 22
1, 144165, Control_c, 0, 64, 127
1, 144337, Note_on_c, 0, 57, 0
1, 144361, Note_on_c, 0, 66, 0
1, 144393, Note_on_c, 0, 61, 0
1, 144397, Note_on_c, 0, 63, 0
1, 144445, Note_on_c, 0, 47, 0
1, 144573, Control_c, 0, 64, 0
1, 144613, Note_on_c, 0, 46, 48
1, 144617, Note_on_c, 0, 65, 50
1, 144617, Note_on_c, 0, 62, 50
1, 144701, Control_c, 0, 64, 127
1, 144845, Note_on_c, 0, 65, 0
1, 144905, Note_on_c, 0, 62, 0
1, 144921, Note_on_c, 0, 46, 0
1, 145173, Note_on_c, 0, 46, 58
1, 145173, Note_on_c, 0, 58, 66
1, 145313, Note_on_c, 0, 46, 0
1, 145345, Control_c, 0, 64, 0
1, 145349, Note_on_c, 0, 58, 0
1, 145401, Note_on_c, 0, 46, 41
1, 145413, Note_on_c, 0, 58, 56
1, 145629, Note_on_c, 0, 58, 0
1, 145641, Note_on_c, 0, 46, 0
1, 145709, Note_on_c, 0, 59, 58
1, 145729, Note_on_c, 0, 47, 38
1, 145841, Note_on_c, 0, 47, 0
1, 145861, Note_on_c, 0, 59, 0
1, 145905, Control_c, 0, 64, 127
1, 145929, Note_on_c, 0, 59, 53
1, 145949, Note_on_c, 0, 47, 34
1, 146145, Note_on_c, 0, 47, 0
1, 146737, Note_on_c, 0, 66, 39
1, 146761, Note_on_c, 0, 59, 0
1, 146921, Note_on_c, 0, 66, 0
1, 146937, Control_c, 0, 64, 0
1, 146969, Note_on_c, 0, 63, 48
1, 146993, Note_on_c, 0, 39, 42
1, 147065, Control_c, 0, 64, 127
1, 147205, Note_on_c, 0, 63, 0
1, 147309, Note_on_c, 0, 46, 40
1, 147453, Note_on_c, 0, 39, 0
1, 147497, Note_on_c, 0, 54, 46
1, 147501, Note_on_c, 0, 46, 0
1, 147565, Note_on_c, 0, 54, 0
1, 147841, Note_on_c, 0, 77, 38
1, 147841, Note_on_c, 0, 73, 41
1, 147845, Note_on_c, 0, 65, 35
1, 147845, Note_on_c, 0, 70, 38
1, 147845, Note_on_c, 0, 61, 41
1, 147861, Note_on_c, 0, 54, 37
1, 147869, Note_on_c, 0, 58, 40
1, 148409, Note_on_c, 0, 58, 0
1, 148409, Note_on_c, 0, 61, 0
1, 148417, Note_on_c, 0, 54, 0
1, 149001, Note_on_c, 0, 65, 0
1, 149005, Control_c, 0, 64, 0
1, 149089, Note_on_c, 0, 39, 45
1, 149093, Control_c, 0, 64, 127
1, 149125, Note_on_c, 0, 39, 0
1, 149129, Note_on_c, 0, 77, 0
1, 149133, Note_on_c, 0, 70, 0
1, 149145, Note_on_c, 0, 73, 0
1, 150005, Note_on_c, 0, 75, 57
1, 150093, Note_on_c, 0, 72, 59
1, 150145, Note_on_c, 0, 68, 58
1, 150265, Note_on_c, 0, 67, 63
1, 150281, Note_on_c, 0, 60, 40
1, 150281, Note_on_c, 0, 51, 32
1, 150641, Note_on_c, 0, 60, 0
1, 150681, Note_on_c, 0, 51, 0
1, 151133, Note_on_c, 0, 46, 39
1, 151313, Note_on_c, 0, 46, 0
1, 151321, Control_c, 0, 64, 0
1, 151325, Note_on_c, 0, 67, 0
1, 151329, Note_on_c, 0, 75, 0
1, 151337, Note_on_c, 0, 72, 0
1, 151369, Note_on_c, 0, 39, 47
1, 151493, Control_c, 0, 64, 127
1, 151669, Note_on_c, 0, 46, 44
1, 151681, Note_on_c, 0, 68, 0
1, 151801, Note_on_c, 0, 39, 0
1, 151905, Note_on_c, 0, 53, 41
1, 151909, Note_on_c, 0, 46, 0
1, 152217, Note_on_c, 0, 73, 44
1, 152225, Note_on_c, 0, 53, 0
1, 152225, Control_c, 0, 64, 0
1, 152229, Note_on_c, 0, 66, 49
1, 152229, Note_on_c, 0, 70, 54
1, 152233, Note_on_c, 0, 65, 32
1, 152241, Note_on_c, 0, 54, 43
1, 152325, Control_c, 0, 64, 127
1, 152573, Note_on_c, 0, 54, 0
1, 153461, Control_c, 0, 64, 0
1, 153497, Note_on_c, 0, 65, 0
1, 153513, Note_on_c, 0, 39, 48
1, 153569, Control_c, 0, 64, 127
1, 153577, Note_on_c, 0, 39, 0
1, 153681, Note_on_c, 0, 70, 0
1, 153713, Note_on_c, 0, 66, 0
1, 153721, Note_on_c, 0, 73, 0
1, 153877, Note_on_c, 0, 51, 43
1, 154105, Note_on_c, 0, 51, 0
1, 154121, Note_on_c, 0, 56, 47
1, 154137, Note_on_c, 0, 53, 45
1, 154153, Note_on_c, 0, 56, 0
1, 154313, Note_on_c, 0, 53, 0
1, 154349, Note_on_c, 0, 60, 55
1, 154361, Note_on_c, 0, 56, 31
1, 154441, Note_on_c, 0, 60, 0
1, 154533, Note_on_c, 0, 63, 54
1, 154565, Note_on_c, 0, 60, 31
1, 154625, Note_on_c, 0, 63, 0
1, 154649, Note_on_c, 0, 56, 0
1, 154677, Note_on_c, 0, 60, 0
1, 154721, Note_on_c, 0, 65, 50
1, 154745, Note_on_c, 0, 63, 45
1, 154785, Note_on_c, 0, 63, 0
1, 154801, Note_on_c, 0, 65, 0
1, 154897, Note_on_c, 0, 68, 52
1, 154929, Note_on_c, 0, 65, 39
1, 154949, Note_on_c, 0, 68, 0
1, 155009, Note_on_c, 0, 65, 0
1, 155069, Note_on_c, 0, 70, 60
1, 155109, Note_on_c, 0, 70, 0
1, 155161, Note_on_c, 0, 68, 31
1, 155229, Note_on_c, 0, 68, 0
1, 155245, Note_on_c, 0, 72, 54
1, 155293, Note_on_c, 0, 71, 28
1, 155325, Note_on_c, 0, 71, 0
1, 155357, Note_on_c, 0, 72, 0
1, 155457, Note_on_c, 0, 75, 50
1, 155485, Note_on_c, 0, 75, 0
1, 155493, Note_on_c, 0, 74, 36
1, 155537, Note_on_c, 0, 74, 0
1, 155637, Note_on_c, 0, 77, 60
1, 155649, Note_on_c, 0, 75, 39
1, 155717, Note_on_c, 0, 77, 0
1, 155773, Note_on_c, 0, 75, 0
1, 155845, Note_on_c, 0, 80, 57
1, 155845, Note_on_c, 0, 77, 43
1, 155913, Note_on_c, 0, 80, 0
1, 155949, Note_on_c, 0, 77, 0
1, 156025, Note_on_c, 0, 82, 57
1, 156065, Note_on_c, 0, 82, 0
1, 156081, Note_on_c, 0, 80, 39
1, 156137, Note_on_c, 0, 80, 0
1, 156225, Note_on_c, 0, 84, 58
1, 156237, Note_on_c, 0, 82, 55
1, 156309, Note_on_c, 0, 82, 0
1, 156309, Note_on_c, 0, 84, 0
1, 156421, Note_on_c, 0, 87, 56
1, 156453, Note_on_c, 0, 84, 38
1, 156493, Note_on_c, 0, 87, 0
1, 156589, Note_on_c, 0, 84, 0
1, 156633, Note_on_c, 0, 89, 56
1, 156637, Note_on_c, 0, 87, 52
1, 156709, Note_on_c, 0, 89, 0
1, 156817, Note_on_c, 0, 87, 0
1, 156853, Note_on_c, 0, 92, 50
1, 156857, Note_on_c, 0, 89, 49
1, 156897, Note_on_c, 0, 89, 0
1, 156957, Note_on_c, 0, 92, 0
1, 157105, Note_on_c, 0, 94, 57
1, 157337, Note_on_c, 0, 94, 0
1, 157373, Note_on_c, 0, 96, 61
1, 157593, Note_on_c, 0, 96, 0
1, 157677, Note_on_c, 0, 98, 58
1, 157821, Note_on_c, 0, 98, 0
1, 158049, Note_on_c, 0, 99, 57
1, 158553, Note_on_c, 0, 99, 0
1, 158581, Note_on_c, 0, 101, 56
1, 158581, Note_on_c, 0, 54, 42
1, 158585, Note_on_c, 0, 39, 43
1, 158593, Control_c, 0, 64, 0
1, 158685, Control_c, 0, 64, 127
1, 158789, Note_on_c, 0, 101, 0
1, 158929, Note_on_c, 0, 54, 0
1, 159097, Note_on_c, 0, 39, 0
1, 159105, Note_on_c, 0, 46, 39
1, 159173, Note_on_c, 0, 46, 0
1, 159537, Note_on_c, 0, 77, 47
1, 159545, Note_on_c, 0, 75, 54
1, 159617, Note_on_c, 0, 72, 45
1, 159669, Note_on_c, 0, 70, 51
1, 159785, Note_on_c, 0, 66, 38
1, 159845, Note_on_c, 0, 65, 47
1, 163133, Note_on_c, 0, 65, 0
1, 163209, Note_on_c, 0, 72, 0
1, 163221, Note_on_c, 0, 66, 0
1, 163229, Note_on_c, 0, 75, 0
1, 163233, Note_on_c, 0, 77, 0
1, 163241, Note_on_c, 0, 70, 0
1, 163417, Control_c, 0, 64, 0
1, 163417, End_track
0, 0, End_of_file
