0, 0, Header, 0, 1, 120
1, 0, Start_track
1, 0, Title_t, "untitled"
1, 0, System_exclusive, 5, 126, 127, 9, 1, 247
1, 0, Time_signature, 4, 2, 24, 8
1, 0, Key_signature, 0, "major"
1, 0, Tempo, 600000
1, 1, Tempo, 422535
1, 1, System_exclusive, 8, 67, 115, 1, 17, 15, 89, 0, 247
1, 124, Control_c, 0, 7, 120
1, 481, Note_on_c, 0, 67, 81
1, 511, Note_on_c, 0, 67, 0
1, 529, Control_c, 0, 64, 127
1, 546, Note_on_c, 0, 66, 40
1, 548, Note_on_c, 0, 68, 70
1, 553, Note_on_c, 0, 66, 0
1, 554, Note_on_c, 0, 55, 53
1, 556, Note_on_c, 0, 43, 28
1, 561, Control_c, 0, 64, 0
1, 569, Note_on_c, 0, 68, 0
1, 571, Note_on_c, 0, 69, 74
1, 607, Control_c, 0, 64, 127
1, 628, Note_on_c, 0, 72, 74
1, 629, Note_on_c, 0, 65, 36
1, 629, Note_on_c, 0, 60, 71
1, 657, Note_on_c, 0, 65, 0
1, 659, Note_on_c, 0, 55, 0
1, 661, Note_on_c, 0, 60, 0
1, 666, Note_on_c, 0, 43, 0
1, 668, Note_on_c, 0, 69, 0
1, 668, Note_on_c, 0, 72, 0
1, 698, Note_on_c, 0, 74, 74
1, 721, Note_on_c, 0, 74, 0
1, 763, Note_on_c, 0, 36, 28
1, 774, Control_c, 0, 64, 0
1, 777, Note_on_c, 0, 76, 64
1, 777, Note_on_c, 0, 64, 62
1, 778, Note_on_c, 0, 72, 50
1, 778, Note_on_c, 0, 52, 42
1, 817, Control_c, 0, 64, 127
1, 835, Note_on_c, 0, 36, 0
1, 853, Note_on_c, 0, 52, 0
1, 879, Note_on_c, 0, 64, 0
1, 883, Note_on_c, 0, 76, 0
1, 895, Note_on_c, 0, 72, 0
1, 916, Note_on_c, 0, 76, 67
1, 942, Note_on_c, 0, 76, 0
1, 998, Note_on_c, 0, 76, 41
1, 998, Note_on_c, 0, 68, 38
1, 999, Note_on_c, 0, 67, 38
1, 1001, Note_on_c, 0, 74, 46
1, 1001, Note_on_c, 0, 56, 33
1, 1002, Note_on_c, 0, 70, 40
1, 1002, Note_on_c, 0, 62, 37
1, 1004, Control_c, 0, 64, 0
1, 1046, Control_c, 0, 64, 127
1, 1096, Note_on_c, 0, 67, 0
1, 1097, Note_on_c, 0, 62, 0
1, 1115, Note_on_c, 0, 76, 0
1, 1119, Note_on_c, 0, 74, 0
1, 1119, Note_on_c, 0, 68, 0
1, 1128, Note_on_c, 0, 70, 0
1, 1128, Note_on_c, 0, 56, 0
1, 1223, Note_on_c, 0, 76, 46
1, 1224, Control_c, 0, 64, 0
1, 1231, Note_on_c, 0, 70, 30
1, 1233, Note_on_c, 0, 73, 33
1, 1234, Note_on_c, 0, 67, 15
1, 1234, Note_on_c, 0, 55, 24
1, 1238, Note_on_c, 0, 61, 29
1, 1238, Note_on_c, 0, 64, 18
1, 1249, Note_on_c, 0, 67, 0
1, 1250, Note_on_c, 0, 76, 0
1, 1251, Note_on_c, 0, 64, 0
1, 1253, Note_on_c, 0, 73, 0
1, 1254, Note_on_c, 0, 70, 0
1, 1257, Note_on_c, 0, 55, 0
1, 1258, Note_on_c, 0, 61, 0
1, 1342, Control_c, 0, 64, 127
1, 1438, Note_on_c, 0, 61, 49
1, 1439, Note_on_c, 0, 33, 30
1, 1439, Note_on_c, 0, 55, 34
1, 1441, Control_c, 0, 64, 0
1, 1441, Note_on_c, 0, 45, 36
1, 1467, Control_c, 0, 64, 127
1, 1473, Note_on_c, 0, 45, 0
1, 1495, Note_on_c, 0, 33, 0
1, 1504, Note_on_c, 0, 61, 0
1, 1514, Note_on_c, 0, 55, 0
1, 1669, Control_c, 0, 64, 0
1, 1674, Note_on_c, 0, 54, 48
1, 1677, Note_on_c, 0, 26, 38
1, 1707, Control_c, 0, 64, 127
1, 1729, Note_on_c, 0, 26, 0
1, 1731, Note_on_c, 0, 54, 0
1, 1908, Note_on_c, 0, 60, 36
1, 1909, Note_on_c, 0, 54, 39
1, 1909, Note_on_c, 0, 64, 40
1, 1986, Note_on_c, 0, 74, 115
1, 2009, Note_on_c, 0, 74, 0
1, 2015, Note_on_c, 0, 60, 0
1, 2016, Note_on_c, 0, 54, 0
1, 2026, Note_on_c, 0, 64, 0
1, 2051, Note_on_c, 0, 76, 96
1, 2079, Note_on_c, 0, 76, 0
1, 2122, Note_on_c, 0, 77, 71
1, 2124, Note_on_c, 0, 57, 47
1, 2127, Note_on_c, 0, 72, 87
1, 2129, Note_on_c, 0, 69, 87
1, 2131, Note_on_c, 0, 65, 67
1, 2131, Control_c, 0, 64, 0
1, 2168, Control_c, 0, 64, 127
1, 2239, Note_on_c, 0, 77, 0
1, 2242, Note_on_c, 0, 57, 0
1, 2244, Note_on_c, 0, 69, 0
1, 2246, Note_on_c, 0, 65, 0
1, 2249, Note_on_c, 0, 72, 0
1, 2256, Note_on_c, 0, 79, 79
1, 2276, Note_on_c, 0, 79, 0
1, 2346, Note_on_c, 0, 76, 71
1, 2347, Control_c, 0, 64, 0
1, 2349, Note_on_c, 0, 68, 48
1, 2349, Note_on_c, 0, 65, 53
1, 2352, Note_on_c, 0, 71, 38
1, 2353, Note_on_c, 0, 56, 37
1, 2354, Note_on_c, 0, 62, 29
1, 2391, Control_c, 0, 64, 127
1, 2429, Note_on_c, 0, 62, 0
1, 2464, Note_on_c, 0, 71, 0
1, 2464, Note_on_c, 0, 76, 0
1, 2464, Note_on_c, 0, 56, 0
1, 2474, Note_on_c, 0, 65, 0
1, 2479, Note_on_c, 0, 68, 0
1, 2481, Note_on_c, 0, 74, 58
1, 2489, Note_on_c, 0, 68, 21
1, 2497, Note_on_c, 0, 65, 32
1, 2508, Note_on_c, 0, 74, 0
1, 2513, Note_on_c, 0, 65, 0
1, 2520, Note_on_c, 0, 68, 0
1, 2571, Control_c, 0, 64, 0
1, 2572, Note_on_c, 0, 72, 41
1, 2572, Note_on_c, 0, 64, 34
1, 2572, Note_on_c, 0, 67, 45
1, 2573, Note_on_c, 0, 57, 32
1, 2573, Note_on_c, 0, 60, 30
1, 2609, Control_c, 0, 64, 127
1, 2705, Note_on_c, 0, 60, 0
1, 2709, Note_on_c, 0, 57, 0
1, 2710, Note_on_c, 0, 67, 0
1, 2713, Note_on_c, 0, 64, 0
1, 2743, Note_on_c, 0, 72, 0
1, 2798, Note_on_c, 0, 72, 53
1, 2799, Note_on_c, 0, 68, 46
1, 2802, Note_on_c, 0, 62, 38
1, 2802, Control_c, 0, 64, 0
1, 2803, Note_on_c, 0, 65, 48
1, 2811, Note_on_c, 0, 56, 25
1, 2838, Control_c, 0, 64, 127
1, 2914, Note_on_c, 0, 56, 0
1, 2939, Note_on_c, 0, 62, 0
1, 2955, Note_on_c, 0, 65, 0
1, 2967, Note_on_c, 0, 68, 0
1, 2986, Note_on_c, 0, 72, 0
1, 3044, Note_on_c, 0, 65, 62
1, 3047, Note_on_c, 0, 72, 41
1, 3047, Control_c, 0, 64, 0
1, 3048, Note_on_c, 0, 58, 43
1, 3051, Note_on_c, 0, 55, 31
1, 3092, Control_c, 0, 64, 127
1, 3121, Note_on_c, 0, 55, 0
1, 3154, Note_on_c, 0, 72, 0
1, 3160, Note_on_c, 0, 65, 0
1, 3174, Note_on_c, 0, 58, 0
1, 3291, Note_on_c, 0, 52, 55
1, 3293, Note_on_c, 0, 60, 54
1, 3294, Note_on_c, 0, 58, 47
1, 3296, Note_on_c, 0, 42, 34
1, 3301, Control_c, 0, 64, 0
1, 3306, Note_on_c, 0, 49, 25
1, 3357, Control_c, 0, 64, 127
1, 3447, Note_on_c, 0, 58, 0
1, 3449, Note_on_c, 0, 52, 0
1, 3452, Note_on_c, 0, 42, 0
1, 3457, Note_on_c, 0, 49, 0
1, 3461, Note_on_c, 0, 60, 0
1, 3522, Control_c, 0, 64, 0
1, 3533, Note_on_c, 0, 60, 46
1, 3533, Note_on_c, 0, 41, 36
1, 3534, Note_on_c, 0, 52, 38
1, 3538, Note_on_c, 0, 57, 42
1, 3538, Note_on_c, 0, 48, 34
1, 3563, Control_c, 0, 64, 127
1, 3585, Note_on_c, 0, 52, 0
1, 3595, Note_on_c, 0, 57, 0
1, 3603, Note_on_c, 0, 60, 0
1, 3609, Note_on_c, 0, 41, 0
1, 3613, Note_on_c, 0, 48, 0
1, 3769, Note_on_c, 0, 71, 70
1, 3774, Note_on_c, 0, 67, 81
1, 3776, Control_c, 0, 64, 0
1, 3776, Note_on_c, 0, 53, 46
1, 3777, Note_on_c, 0, 62, 83
1, 3777, Note_on_c, 0, 60, 38
1, 3813, Control_c, 0, 64, 127
1, 3869, Note_on_c, 0, 53, 0
1, 3873, Note_on_c, 0, 62, 0
1, 3874, Note_on_c, 0, 71, 0
1, 3880, Note_on_c, 0, 60, 0
1, 3892, Note_on_c, 0, 72, 87
1, 3898, Note_on_c, 0, 71, 37
1, 3901, Note_on_c, 0, 67, 0
1, 3909, Note_on_c, 0, 71, 0
1, 3928, Note_on_c, 0, 72, 0
1, 3998, Note_on_c, 0, 74, 88
1, 4001, Note_on_c, 0, 71, 78
1, 4002, Note_on_c, 0, 69, 83
1, 4004, Note_on_c, 0, 65, 85
1, 4006, Note_on_c, 0, 64, 74
1, 4007, Control_c, 0, 64, 0
1, 4047, Control_c, 0, 64, 127
1, 4085, Note_on_c, 0, 74, 0
1, 4110, Note_on_c, 0, 65, 0
1, 4111, Note_on_c, 0, 71, 0
1, 4118, Note_on_c, 0, 64, 0
1, 4123, Note_on_c, 0, 76, 75
1, 4126, Note_on_c, 0, 65, 28
1, 4174, Note_on_c, 0, 76, 0
1, 4177, Note_on_c, 0, 65, 0
1, 4177, Note_on_c, 0, 69, 0
1, 4216, Control_c, 0, 64, 0
1, 4264, Control_c, 0, 64, 127
1, 4302, Control_c, 0, 64, 0
1, 4309, Note_on_c, 0, 72, 52
1, 4313, Note_on_c, 0, 64, 43
1, 4314, Note_on_c, 0, 67, 60
1, 4314, Note_on_c, 0, 56, 35
1, 4318, Note_on_c, 0, 62, 32
1, 4336, Control_c, 0, 64, 127
1, 4346, Note_on_c, 0, 62, 0
1, 4376, Note_on_c, 0, 56, 0
1, 4385, Note_on_c, 0, 64, 0
1, 4386, Note_on_c, 0, 72, 0
1, 4391, Note_on_c, 0, 67, 0
1, 4397, Note_on_c, 0, 71, 58
1, 4413, Note_on_c, 0, 71, 0
1, 4538, Control_c, 0, 64, 0
1, 4539, Note_on_c, 0, 69, 66
1, 4541, Note_on_c, 0, 58, 36
1, 4543, Note_on_c, 0, 61, 48
1, 4543, Note_on_c, 0, 64, 51
1, 4547, Note_on_c, 0, 57, 34
1, 4586, Control_c, 0, 64, 127
1, 4621, Note_on_c, 0, 69, 0
1, 4690, Note_on_c, 0, 57, 0
1, 4734, Note_on_c, 0, 64, 0
1, 4744, Note_on_c, 0, 69, 58
1, 4772, Note_on_c, 0, 69, 0
1, 4779, Note_on_c, 0, 58, 0
1, 4783, Note_on_c, 0, 61, 0
1, 4796, Note_on_c, 0, 68, 40
1, 4808, Note_on_c, 0, 68, 0
1, 4861, Note_on_c, 0, 69, 44
1, 4863, Note_on_c, 0, 61, 43
1, 4867, Note_on_c, 0, 55, 35
1, 4869, Note_on_c, 0, 57, 33
1, 4871, Control_c, 0, 64, 0
1, 4871, Note_on_c, 0, 39, 34
1, 4871, Note_on_c, 0, 66, 20
1, 4876, Note_on_c, 0, 46, 26
1, 4923, Control_c, 0, 64, 127
1, 5007, Note_on_c, 0, 55, 0
1, 5011, Note_on_c, 0, 57, 0
1, 5026, Note_on_c, 0, 61, 0
1, 5087, Note_on_c, 0, 61, 45
1, 5091, Note_on_c, 0, 51, 28
1, 5093, Note_on_c, 0, 55, 44
1, 5094, Note_on_c, 0, 57, 37
1, 5121, Note_on_c, 0, 46, 0
1, 5122, Note_on_c, 0, 51, 0
1, 5123, Note_on_c, 0, 39, 0
1, 5173, Note_on_c, 0, 55, 0
1, 5189, Note_on_c, 0, 57, 0
1, 5237, Note_on_c, 0, 45, 52
1, 5238, Note_on_c, 0, 66, 0
1, 5241, Note_on_c, 0, 69, 0
1, 5243, Note_on_c, 0, 61, 0
1, 5314, Note_on_c, 0, 38, 57
1, 5317, Control_c, 0, 64, 0
1, 5320, Note_on_c, 0, 45, 0
1, 5322, Note_on_c, 0, 53, 54
1, 5366, Control_c, 0, 64, 127
1, 5394, Note_on_c, 0, 38, 0
1, 5417, Note_on_c, 0, 53, 0
1, 5462, Note_on_c, 0, 67, 115
1, 5543, Note_on_c, 0, 57, 48
1, 5544, Note_on_c, 0, 64, 46
1, 5546, Note_on_c, 0, 68, 58
1, 5547, Control_c, 0, 64, 0
1, 5548, Note_on_c, 0, 60, 35
1, 5551, Note_on_c, 0, 53, 29
1, 5563, Note_on_c, 0, 67, 0
1, 5571, Note_on_c, 0, 68, 0
1, 5574, Note_on_c, 0, 69, 47
1, 5602, Note_on_c, 0, 64, 0
1, 5630, Note_on_c, 0, 60, 0
1, 5633, Control_c, 0, 64, 127
1, 5638, Note_on_c, 0, 57, 0
1, 5656, Note_on_c, 0, 53, 0
1, 5669, Note_on_c, 0, 69, 0
1, 5679, Control_c, 0, 64, 0
1, 5702, Note_on_c, 0, 71, 74
1, 5709, Control_c, 0, 64, 127
1, 5766, Note_on_c, 0, 64, 66
1, 5771, Note_on_c, 0, 59, 57
1, 5771, Control_c, 0, 64, 0
1, 5783, Note_on_c, 0, 59, 0
1, 5783, Note_on_c, 0, 64, 0
1, 5889, Note_on_c, 0, 71, 0
1, 5908, Note_on_c, 0, 72, 63
1, 5912, Control_c, 0, 64, 127
1, 6001, Control_c, 0, 64, 0
1, 6014, Note_on_c, 0, 41, 43
1, 6041, Note_on_c, 0, 72, 0
1, 6087, Note_on_c, 0, 41, 0
1, 6087, Note_on_c, 0, 74, 77
1, 6094, Control_c, 0, 64, 127
1, 6124, Note_on_c, 0, 74, 0
1, 6152, Note_on_c, 0, 76, 70
1, 6177, Note_on_c, 0, 76, 0
1, 6219, Note_on_c, 0, 40, 52
1, 6222, Note_on_c, 0, 79, 53
1, 6226, Note_on_c, 0, 67, 43
1, 6227, Note_on_c, 0, 74, 49
1, 6227, Control_c, 0, 64, 0
1, 6231, Note_on_c, 0, 55, 36
1, 6269, Control_c, 0, 64, 127
1, 6297, Note_on_c, 0, 40, 0
1, 6322, Note_on_c, 0, 55, 0
1, 6341, Note_on_c, 0, 67, 0
1, 6364, Note_on_c, 0, 74, 0
1, 6374, Note_on_c, 0, 67, 48
1, 6416, Note_on_c, 0, 67, 0
1, 6447, Note_on_c, 0, 79, 0
1, 6448, Note_on_c, 0, 64, 44
1, 6453, Note_on_c, 0, 62, 36
1, 6454, Note_on_c, 0, 59, 42
1, 6519, Note_on_c, 0, 81, 101
1, 6520, Note_on_c, 0, 62, 0
1, 6527, Note_on_c, 0, 59, 0
1, 6543, Note_on_c, 0, 64, 0
1, 6564, Note_on_c, 0, 81, 0
1, 6587, Note_on_c, 0, 82, 88
1, 6619, Note_on_c, 0, 82, 0
1, 6647, Note_on_c, 0, 81, 38
1, 6657, Note_on_c, 0, 82, 55
1, 6666, Control_c, 0, 64, 0
1, 6667, Note_on_c, 0, 81, 0
1, 6668, Note_on_c, 0, 55, 36
1, 6668, Note_on_c, 0, 83, 76
1, 6671, Note_on_c, 0, 61, 26
1, 6673, Note_on_c, 0, 82, 0
1, 6673, Note_on_c, 0, 65, 47
1, 6673, Note_on_c, 0, 60, 16
1, 6694, Note_on_c, 0, 83, 0
1, 6697, Note_on_c, 0, 84, 70
1, 6727, Note_on_c, 0, 83, 65
1, 6732, Note_on_c, 0, 84, 0
1, 6750, Note_on_c, 0, 83, 0
1, 6751, Note_on_c, 0, 82, 63
1, 6777, Note_on_c, 0, 82, 0
1, 6782, Note_on_c, 0, 81, 38
1, 6784, Control_c, 0, 64, 127
1, 6810, Note_on_c, 0, 60, 0
1, 6821, Note_on_c, 0, 65, 0
1, 6842, Note_on_c, 0, 61, 0
1, 6858, Note_on_c, 0, 81, 0
1, 6892, Note_on_c, 0, 76, 50
1, 6893, Note_on_c, 0, 64, 38
1, 6894, Note_on_c, 0, 61, 35
1, 6897, Control_c, 0, 64, 0
1, 6924, Control_c, 0, 64, 127
1, 7023, Note_on_c, 0, 76, 0
1, 7028, Note_on_c, 0, 55, 0
1, 7030, Note_on_c, 0, 64, 0
1, 7034, Note_on_c, 0, 61, 0
1, 7116, Note_on_c, 0, 77, 81
1, 7118, Note_on_c, 0, 73, 70
1, 7119, Note_on_c, 0, 70, 81
1, 7121, Note_on_c, 0, 65, 70
1, 7122, Note_on_c, 0, 66, 76
1, 7122, Control_c, 0, 64, 0
1, 7162, Control_c, 0, 64, 127
1, 7211, Note_on_c, 0, 77, 0
1, 7223, Note_on_c, 0, 65, 0
1, 7224, Note_on_c, 0, 66, 0
1, 7233, Note_on_c, 0, 75, 72
1, 7262, Note_on_c, 0, 70, 0
1, 7273, Note_on_c, 0, 73, 0
1, 7328, Note_on_c, 0, 75, 0
1, 7341, Note_on_c, 0, 66, 46
1, 7343, Note_on_c, 0, 68, 60
1, 7348, Note_on_c, 0, 54, 32
1, 7349, Control_c, 0, 64, 0
1, 7352, Note_on_c, 0, 60, 29
1, 7382, Control_c, 0, 64, 127
1, 7435, Note_on_c, 0, 60, 0
1, 7444, Note_on_c, 0, 66, 0
1, 7451, Note_on_c, 0, 54, 0
1, 7475, Note_on_c, 0, 68, 0
1, 7567, Note_on_c, 0, 67, 61
1, 7569, Note_on_c, 0, 60, 34
1, 7569, Note_on_c, 0, 64, 49
1, 7572, Control_c, 0, 64, 0
1, 7574, Note_on_c, 0, 50, 34
1, 7578, Note_on_c, 0, 57, 24
1, 7609, Control_c, 0, 64, 127
1, 7626, Note_on_c, 0, 64, 0
1, 7654, Note_on_c, 0, 57, 0
1, 7670, Note_on_c, 0, 67, 0
1, 7671, Note_on_c, 0, 60, 0
1, 7674, Note_on_c, 0, 50, 0
1, 7684, Note_on_c, 0, 65, 54
1, 7716, Note_on_c, 0, 65, 0
1, 7803, Note_on_c, 0, 63, 42
1, 7804, Note_on_c, 0, 59, 37
1, 7806, Control_c, 0, 64, 0
1, 7808, Note_on_c, 0, 43, 33
1, 7811, Note_on_c, 0, 53, 28
1, 7837, Control_c, 0, 64, 127
1, 7887, Note_on_c, 0, 53, 0
1, 7898, Note_on_c, 0, 43, 0
1, 7899, Note_on_c, 0, 63, 0
1, 7912, Note_on_c, 0, 59, 0
1, 7924, Note_on_c, 0, 64, 56
1, 8026, Note_on_c, 0, 64, 0
1, 8039, Note_on_c, 0, 36, 44
1, 8042, Note_on_c, 0, 52, 36
1, 8043, Note_on_c, 0, 43, 31
1, 8043, Control_c, 0, 64, 0
1, 8074, Control_c, 0, 64, 127
1, 8130, Note_on_c, 0, 36, 0
1, 8141, Note_on_c, 0, 43, 0
1, 8157, Note_on_c, 0, 52, 0
1, 8191, Note_on_c, 0, 76, 105
1, 8242, Note_on_c, 0, 76, 0
1, 8274, Note_on_c, 0, 76, 79
1, 8276, Note_on_c, 0, 74, 71
1, 8279, Note_on_c, 0, 68, 52
1, 8284, Note_on_c, 0, 67, 44
1, 8284, Note_on_c, 0, 56, 39
1, 8284, Note_on_c, 0, 62, 57
1, 8288, Control_c, 0, 64, 0
1, 8331, Control_c, 0, 64, 127
1, 8386, Note_on_c, 0, 76, 0
1, 8391, Note_on_c, 0, 62, 0
1, 8399, Note_on_c, 0, 67, 0
1, 8420, Note_on_c, 0, 56, 0
1, 8437, Note_on_c, 0, 76, 53
1, 8445, Note_on_c, 0, 68, 0
1, 8466, Note_on_c, 0, 74, 0
1, 8473, Note_on_c, 0, 76, 0
1, 8517, Control_c, 0, 64, 0
1, 8518, Note_on_c, 0, 73, 51
1, 8519, Note_on_c, 0, 61, 31
1, 8521, Note_on_c, 0, 76, 39
1, 8521, Note_on_c, 0, 67, 46
1, 8522, Note_on_c, 0, 64, 34
1, 8523, Note_on_c, 0, 55, 38
1, 8533, Note_on_c, 0, 76, 0
1, 8534, Note_on_c, 0, 67, 0
1, 8535, Note_on_c, 0, 64, 0
1, 8539, Note_on_c, 0, 73, 0
1, 8544, Note_on_c, 0, 61, 0
1, 8546, Note_on_c, 0, 55, 0
1, 8667, Note_on_c, 0, 62, 43
1, 8669, Note_on_c, 0, 55, 36
1, 8678, Control_c, 0, 64, 127
1, 8714, Note_on_c, 0, 62, 0
1, 8730, Note_on_c, 0, 55, 0
1, 8756, Note_on_c, 0, 55, 45
1, 8757, Note_on_c, 0, 61, 32
1, 8758, Note_on_c, 0, 45, 37
1, 8764, Control_c, 0, 64, 0
1, 8798, Control_c, 0, 64, 127
1, 8806, Note_on_c, 0, 45, 0
1, 8832, Note_on_c, 0, 55, 0
1, 8835, Note_on_c, 0, 61, 0
1, 8911, Note_on_c, 0, 55, 41
1, 8973, Note_on_c, 0, 55, 0
1, 8992, Control_c, 0, 64, 0
1, 8994, Note_on_c, 0, 26, 30
1, 8998, Note_on_c, 0, 54, 35
1, 9024, Control_c, 0, 64, 127
1, 9053, Note_on_c, 0, 54, 0
1, 9057, Note_on_c, 0, 26, 0
1, 9236, Note_on_c, 0, 54, 27
1, 9239, Note_on_c, 0, 60, 31
1, 9242, Note_on_c, 0, 64, 18
1, 9314, Note_on_c, 0, 74, 99
1, 9344, Note_on_c, 0, 74, 0
1, 9351, Note_on_c, 0, 60, 0
1, 9364, Note_on_c, 0, 54, 0
1, 9370, Note_on_c, 0, 64, 0
1, 9387, Note_on_c, 0, 76, 101
1, 9459, Note_on_c, 0, 57, 47
1, 9462, Note_on_c, 0, 60, 40
1, 9462, Note_on_c, 0, 65, 48
1, 9469, Control_c, 0, 64, 0
1, 9497, Control_c, 0, 64, 127
1, 9535, Note_on_c, 0, 76, 0
1, 9538, Note_on_c, 0, 77, 84
1, 9560, Note_on_c, 0, 65, 0
1, 9562, Note_on_c, 0, 60, 0
1, 9574, Note_on_c, 0, 57, 0
1, 9601, Note_on_c, 0, 77, 0
1, 9618, Note_on_c, 0, 79, 85
1, 9688, Control_c, 0, 64, 0
1, 9688, Note_on_c, 0, 62, 43
1, 9691, Note_on_c, 0, 56, 38
1, 9694, Note_on_c, 0, 59, 46
1, 9698, Note_on_c, 0, 79, 0
1, 9743, Control_c, 0, 64, 127
1, 9764, Note_on_c, 0, 76, 68
1, 9766, Note_on_c, 0, 68, 40
1, 9768, Note_on_c, 0, 65, 44
1, 9771, Note_on_c, 0, 71, 55
1, 9774, Control_c, 0, 64, 0
1, 9794, Control_c, 0, 64, 127
1, 9819, Note_on_c, 0, 56, 0
1, 9824, Note_on_c, 0, 76, 0
1, 9824, Note_on_c, 0, 59, 0
1, 9834, Note_on_c, 0, 65, 0
1, 9837, Note_on_c, 0, 71, 0
1, 9847, Note_on_c, 0, 74, 55
1, 9855, Note_on_c, 0, 62, 0
1, 9861, Note_on_c, 0, 68, 0
1, 9903, Note_on_c, 0, 74, 0
1, 9928, Control_c, 0, 64, 0
1, 9929, Note_on_c, 0, 60, 34
1, 9929, Note_on_c, 0, 57, 44
1, 9932, Note_on_c, 0, 72, 50
1, 9937, Note_on_c, 0, 64, 14
1, 9938, Note_on_c, 0, 69, 39
1, 9977, Control_c, 0, 64, 127
1, 10000, Note_on_c, 0, 64, 0
1, 10014, Note_on_c, 0, 64, 50
1, 10070, Note_on_c, 0, 64, 0
1, 10075, Note_on_c, 0, 60, 0
1, 10086, Note_on_c, 0, 57, 0
1, 10086, Note_on_c, 0, 69, 0
1, 10092, Note_on_c, 0, 72, 0
1, 10092, Note_on_c, 0, 64, 46
1, 10114, Note_on_c, 0, 64, 0
1, 10169, Note_on_c, 0, 72, 74
1, 10172, Note_on_c, 0, 68, 60
1, 10173, Note_on_c, 0, 62, 66
1, 10173, Control_c, 0, 64, 0
1, 10174, Note_on_c, 0, 65, 69
1, 10174, Note_on_c, 0, 56, 47
1, 10219, Control_c, 0, 64, 127
1, 10235, Note_on_c, 0, 62, 0
1, 10254, Note_on_c, 0, 62, 57
1, 10286, Note_on_c, 0, 62, 0
1, 10316, Note_on_c, 0, 72, 0
1, 10317, Note_on_c, 0, 65, 0
1, 10328, Note_on_c, 0, 68, 0
1, 10329, Note_on_c, 0, 62, 51
1, 10351, Note_on_c, 0, 62, 0
1, 10361, Note_on_c, 0, 56, 0
1, 10412, Note_on_c, 0, 72, 62
1, 10413, Note_on_c, 0, 65, 60
1, 10414, Note_on_c, 0, 58, 36
1, 10416, Note_on_c, 0, 69, 56
1, 10416, Control_c, 0, 64, 0
1, 10417, Note_on_c, 0, 55, 39
1, 10461, Control_c, 0, 64, 127
1, 10467, Note_on_c, 0, 58, 0
1, 10477, Note_on_c, 0, 72, 0
1, 10485, Note_on_c, 0, 55, 0
1, 10489, Note_on_c, 0, 58, 49
1, 10533, Note_on_c, 0, 69, 0
1, 10539, Note_on_c, 0, 58, 0
1, 10540, Note_on_c, 0, 65, 0
1, 10566, Note_on_c, 0, 58, 48
1, 10581, Note_on_c, 0, 58, 0
1, 10646, Note_on_c, 0, 58, 49
1, 10647, Note_on_c, 0, 60, 59
1, 10648, Note_on_c, 0, 42, 27
1, 10648, Note_on_c, 0, 52, 48
1, 10658, Control_c, 0, 64, 0
1, 10659, Note_on_c, 0, 49, 23
1, 10703, Control_c, 0, 64, 127
1, 10713, Note_on_c, 0, 52, 0
1, 10729, Note_on_c, 0, 52, 37
1, 10742, Note_on_c, 0, 58, 0
1, 10769, Note_on_c, 0, 52, 0
1, 10792, Note_on_c, 0, 60, 0
1, 10806, Note_on_c, 0, 56, 46
1, 10813, Note_on_c, 0, 52, 30
1, 10819, Note_on_c, 0, 42, 0
1, 10829, Note_on_c, 0, 49, 0
1, 10851, Note_on_c, 0, 52, 0
1, 10866, Note_on_c, 0, 56, 0
1, 10888, Note_on_c, 0, 52, 41
1, 10889, Control_c, 0, 64, 0
1, 10891, Note_on_c, 0, 57, 44
1, 10897, Note_on_c, 0, 48, 32
1, 10899, Note_on_c, 0, 41, 29
1, 10929, Control_c, 0, 64, 127
1, 10941, Note_on_c, 0, 52, 0
1, 10961, Note_on_c, 0, 57, 0
1, 10990, Note_on_c, 0, 41, 0
1, 11000, Note_on_c, 0, 48, 0
1, 11038, Note_on_c, 0, 71, 75
1, 11049, Note_on_c, 0, 67, 75
1, 11053, Note_on_c, 0, 62, 72
1, 11054, Control_c, 0, 64, 0
1, 11088, Control_c, 0, 64, 127
1, 11133, Note_on_c, 0, 60, 36
1, 11137, Control_c, 0, 64, 0
1, 11137, Note_on_c, 0, 57, 44
1, 11138, Note_on_c, 0, 53, 29
1, 11179, Control_c, 0, 64, 127
1, 11199, Note_on_c, 0, 71, 0
1, 11207, Note_on_c, 0, 72, 65
1, 11241, Note_on_c, 0, 60, 0
1, 11250, Note_on_c, 0, 57, 0
1, 11259, Note_on_c, 0, 53, 0
1, 11260, Note_on_c, 0, 62, 0
1, 11263, Note_on_c, 0, 71, 1
1, 11291, Note_on_c, 0, 67, 0
1, 11292, Note_on_c, 0, 72, 0
1, 11298, Note_on_c, 0, 71, 0
1, 11369, Note_on_c, 0, 74, 68
1, 11373, Note_on_c, 0, 71, 54
1, 11376, Note_on_c, 0, 69, 71
1, 11377, Control_c, 0, 64, 0
1, 11381, Note_on_c, 0, 64, 41
1, 11382, Note_on_c, 0, 65, 50
1, 11417, Control_c, 0, 64, 127
1, 11467, Note_on_c, 0, 74, 0
1, 11505, Note_on_c, 0, 71, 0
1, 11513, Note_on_c, 0, 65, 0
1, 11514, Note_on_c, 0, 64, 0
1, 11517, Note_on_c, 0, 69, 0
1, 11522, Note_on_c, 0, 76, 65
1, 11540, Note_on_c, 0, 76, 0
1, 11613, Control_c, 0, 64, 0
1, 11616, Note_on_c, 0, 72, 47
1, 11617, Note_on_c, 0, 64, 48
1, 11617, Note_on_c, 0, 56, 38
1, 11618, Note_on_c, 0, 67, 54
1, 11619, Note_on_c, 0, 62, 34
1, 11619, Note_on_c, 0, 69, 46
1, 11632, Note_on_c, 0, 62, 0
1, 11634, Note_on_c, 0, 67, 0
1, 11634, Note_on_c, 0, 64, 0
1, 11635, Note_on_c, 0, 69, 0
1, 11642, Note_on_c, 0, 72, 0
1, 11644, Note_on_c, 0, 56, 0
1, 11736, Note_on_c, 0, 71, 49
1, 11737, Note_on_c, 0, 62, 50
1, 11737, Note_on_c, 0, 67, 52
1, 11739, Note_on_c, 0, 56, 44
1, 11778, Control_c, 0, 64, 127
1, 11790, Note_on_c, 0, 67, 0
1, 11791, Note_on_c, 0, 71, 0
1, 11800, Note_on_c, 0, 56, 0
1, 11803, Note_on_c, 0, 62, 0
1, 11931, Note_on_c, 0, 69, 81
1, 11933, Note_on_c, 0, 57, 75
1, 11936, Note_on_c, 0, 61, 77
1, 11936, Note_on_c, 0, 58, 72
1, 11937, Note_on_c, 0, 64, 73
1, 11941, Control_c, 0, 64, 0
1, 11993, Control_c, 0, 64, 127
1, 12031, Note_on_c, 0, 69, 0
1, 12042, Note_on_c, 0, 58, 0
1, 12043, Note_on_c, 0, 57, 0
1, 12044, Note_on_c, 0, 64, 0
1, 12051, Note_on_c, 0, 69, 68
1, 12053, Note_on_c, 0, 58, 57
1, 12053, Control_c, 0, 64, 0
1, 12054, Note_on_c, 0, 51, 78
1, 12059, Note_on_c, 0, 64, 57
1, 12121, Control_c, 0, 64, 127
1, 12184, Note_on_c, 0, 64, 0
1, 12187, Note_on_c, 0, 69, 0
1, 12193, Note_on_c, 0, 58, 0
1, 12204, Note_on_c, 0, 61, 0
1, 12257, Note_on_c, 0, 51, 0
1, 12291, Note_on_c, 0, 69, 44
1, 12292, Note_on_c, 0, 61, 39
1, 12298, Note_on_c, 0, 55, 63
1, 12299, Note_on_c, 0, 57, 55
1, 12301, Note_on_c, 0, 51, 52
1, 12312, Control_c, 0, 64, 0
1, 12414, Control_c, 0, 64, 127
1, 12444, Note_on_c, 0, 55, 0
1, 12446, Note_on_c, 0, 57, 0
1, 12475, Note_on_c, 0, 61, 0
1, 12532, Note_on_c, 0, 51, 0
1, 12539, Note_on_c, 0, 61, 30
1, 12543, Note_on_c, 0, 63, 34
1, 12544, Note_on_c, 0, 55, 46
1, 12546, Note_on_c, 0, 57, 36
1, 12664, Note_on_c, 0, 55, 0
1, 12686, Note_on_c, 0, 63, 0
1, 12693, Note_on_c, 0, 57, 0
1, 12694, Note_on_c, 0, 45, 31
1, 12754, Note_on_c, 0, 69, 0
1, 12784, Note_on_c, 0, 38, 47
1, 12786, Note_on_c, 0, 60, 40
1, 12791, Note_on_c, 0, 45, 0
1, 12791, Note_on_c, 0, 57, 31
1, 12797, Control_c, 0, 64, 0
1, 12837, Note_on_c, 0, 57, 0
1, 12837, Control_c, 0, 64, 127
1, 12856, Note_on_c, 0, 60, 0
1, 12864, Note_on_c, 0, 38, 0
1, 12866, Note_on_c, 0, 61, 0
1, 13104, Control_c, 0, 64, 0
1, 13112, Note_on_c, 0, 89, 91
1, 13113, Note_on_c, 0, 77, 89
1, 13113, Note_on_c, 0, 38, 71
1, 13113, Note_on_c, 0, 50, 75
1, 13113, Note_on_c, 0, 84, 85
1, 13143, Control_c, 0, 64, 127
1, 13154, Note_on_c, 0, 89, 0
1, 13155, Note_on_c, 0, 38, 0
1, 13156, Note_on_c, 0, 84, 0
1, 13161, Note_on_c, 0, 77, 0
1, 13163, Control_c, 0, 64, 0
1, 13164, Note_on_c, 0, 50, 0
1, 13182, Note_on_c, 0, 88, 79
1, 13186, Note_on_c, 0, 76, 72
1, 13186, Note_on_c, 0, 52, 78
1, 13186, Note_on_c, 0, 83, 79
1, 13186, Note_on_c, 0, 40, 68
1, 13207, Note_on_c, 0, 83, 0
1, 13209, Note_on_c, 0, 88, 0
1, 13216, Note_on_c, 0, 76, 0
1, 13217, Note_on_c, 0, 40, 0
1, 13227, Note_on_c, 0, 52, 0
1, 13334, Note_on_c, 0, 80, 70
1, 13337, Note_on_c, 0, 72, 68
1, 13337, Note_on_c, 0, 84, 79
1, 13339, Note_on_c, 0, 54, 59
1, 13339, Note_on_c, 0, 77, 60
1, 13341, Note_on_c, 0, 42, 49
1, 13347, Note_on_c, 0, 77, 0
1, 13357, Note_on_c, 0, 72, 0
1, 13360, Note_on_c, 0, 80, 0
1, 13361, Note_on_c, 0, 81, 57
1, 13364, Note_on_c, 0, 77, 20
1, 13372, Note_on_c, 0, 42, 0
1, 13373, Note_on_c, 0, 84, 0
1, 13381, Note_on_c, 0, 77, 0
1, 13382, Note_on_c, 0, 81, 0
1, 13384, Note_on_c, 0, 54, 0
1, 13463, Note_on_c, 0, 80, 55
1, 13463, Note_on_c, 0, 72, 64
1, 13466, Note_on_c, 0, 84, 70
1, 13466, Note_on_c, 0, 43, 51
1, 13467, Note_on_c, 0, 53, 53
1, 13469, Note_on_c, 0, 77, 41
1, 13501, Note_on_c, 0, 80, 0
1, 13501, Note_on_c, 0, 81, 39
1, 13513, Control_c, 0, 64, 127
1, 13553, Note_on_c, 0, 43, 0
1, 13557, Note_on_c, 0, 81, 0
1, 13567, Note_on_c, 0, 53, 0
1, 13580, Note_on_c, 0, 77, 0
1, 13583, Note_on_c, 0, 72, 0
1, 13601, Note_on_c, 0, 84, 0
1, 13619, Note_on_c, 0, 81, 56
1, 13644, Note_on_c, 0, 81, 0
1, 13693, Control_c, 0, 64, 0
1, 13694, Note_on_c, 0, 62, 37
1, 13694, Note_on_c, 0, 84, 51
1, 13697, Note_on_c, 0, 52, 41
1, 13697, Note_on_c, 0, 57, 41
1, 13697, Note_on_c, 0, 79, 49
1, 13698, Note_on_c, 0, 72, 24
1, 13729, Control_c, 0, 64, 127
1, 13747, Note_on_c, 0, 84, 0
1, 13752, Note_on_c, 0, 79, 0
1, 13756, Note_on_c, 0, 72, 0
1, 13811, Note_on_c, 0, 62, 0
1, 13827, Note_on_c, 0, 57, 0
1, 13853, Note_on_c, 0, 72, 92
1, 13910, Note_on_c, 0, 72, 0
1, 13924, Note_on_c, 0, 67, 51
1, 13929, Control_c, 0, 64, 0
1, 13931, Note_on_c, 0, 62, 31
1, 13931, Note_on_c, 0, 68, 60
1, 13934, Note_on_c, 0, 57, 34
1, 13939, Note_on_c, 0, 62, 0
1, 13944, Note_on_c, 0, 52, 0
1, 13945, Note_on_c, 0, 57, 0
1, 13945, Note_on_c, 0, 67, 0
1, 13951, Note_on_c, 0, 68, 0
1, 13958, Note_on_c, 0, 69, 37
1, 13993, Note_on_c, 0, 69, 0
1, 14006, Note_on_c, 0, 72, 66
1, 14027, Control_c, 0, 64, 127
1, 14037, Note_on_c, 0, 72, 0
1, 14081, Note_on_c, 0, 74, 78
1, 14108, Note_on_c, 0, 74, 0
1, 14154, Control_c, 0, 64, 0
1, 14161, Note_on_c, 0, 72, 53
1, 14163, Note_on_c, 0, 62, 44
1, 14163, Note_on_c, 0, 67, 53
1, 14164, Note_on_c, 0, 57, 35
1, 14196, Control_c, 0, 64, 127
1, 14232, Note_on_c, 0, 57, 0
1, 14246, Note_on_c, 0, 72, 0
1, 14258, Note_on_c, 0, 67, 0
1, 14281, Note_on_c, 0, 62, 0
1, 14389, Note_on_c, 0, 67, 54
1, 14392, Note_on_c, 0, 62, 39
1, 14394, Control_c, 0, 64, 0
1, 14397, Note_on_c, 0, 57, 31
1, 14398, Note_on_c, 0, 52, 36
1, 14421, Control_c, 0, 64, 127
1, 14443, Note_on_c, 0, 62, 0
1, 14448, Note_on_c, 0, 52, 0
1, 14449, Note_on_c, 0, 67, 0
1, 14478, Note_on_c, 0, 57, 0
1, 14542, Note_on_c, 0, 57, 51
1, 14592, Note_on_c, 0, 57, 0
1, 14608, Control_c, 0, 64, 0
1, 14624, Note_on_c, 0, 36, 51
1, 14624, Note_on_c, 0, 58, 43
1, 14626, Note_on_c, 0, 55, 47
1, 14637, Control_c, 0, 64, 127
1, 14643, Note_on_c, 0, 55, 0
1, 14646, Note_on_c, 0, 36, 0
1, 14649, Note_on_c, 0, 58, 0
1, 14708, Note_on_c, 0, 66, 73
1, 14708, Note_on_c, 0, 64, 75
1, 14709, Note_on_c, 0, 72, 71
1, 14711, Control_c, 0, 64, 0
1, 14713, Note_on_c, 0, 58, 79
1, 14723, Note_on_c, 0, 66, 0
1, 14727, Note_on_c, 0, 67, 60
1, 14744, Note_on_c, 0, 64, 0
1, 14757, Note_on_c, 0, 67, 0
1, 14776, Note_on_c, 0, 58, 0
1, 14782, Note_on_c, 0, 63, 68
1, 14784, Note_on_c, 0, 66, 63
1, 14787, Note_on_c, 0, 57, 64
1, 14817, Control_c, 0, 64, 127
1, 14840, Note_on_c, 0, 72, 0
1, 14842, Note_on_c, 0, 57, 0
1, 14842, Note_on_c, 0, 66, 0
1, 14845, Note_on_c, 0, 63, 0
1, 14857, Control_c, 0, 64, 0
1, 14863, Note_on_c, 0, 72, 58
1, 14864, Note_on_c, 0, 65, 61
1, 14867, Note_on_c, 0, 55, 61
1, 14867, Note_on_c, 0, 62, 53
1, 14911, Control_c, 0, 64, 127
1, 14945, Note_on_c, 0, 65, 0
1, 14958, Note_on_c, 0, 62, 0
1, 14975, Note_on_c, 0, 72, 0
1, 14977, Note_on_c, 0, 55, 0
1, 15012, Note_on_c, 0, 63, 56
1, 15016, Note_on_c, 0, 60, 54
1, 15047, Note_on_c, 0, 60, 0
1, 15075, Note_on_c, 0, 63, 0
1, 15102, Note_on_c, 0, 58, 35
1, 15104, Note_on_c, 0, 64, 39
1, 15106, Note_on_c, 0, 67, 44
1, 15108, Note_on_c, 0, 55, 32
1, 15111, Control_c, 0, 64, 0
1, 15112, Note_on_c, 0, 48, 35
1, 15156, Control_c, 0, 64, 127
1, 15174, Note_on_c, 0, 55, 0
1, 15189, Note_on_c, 0, 48, 0
1, 15190, Note_on_c, 0, 58, 0
1, 15195, Note_on_c, 0, 64, 0
1, 15203, Note_on_c, 0, 67, 0
1, 15248, Note_on_c, 0, 58, 40
1, 15259, Note_on_c, 0, 58, 0
1, 15336, Note_on_c, 0, 62, 42
1, 15337, Note_on_c, 0, 58, 37
1, 15338, Note_on_c, 0, 52, 30
1, 15339, Note_on_c, 0, 42, 35
1, 15344, Note_on_c, 0, 49, 29
1, 15349, Control_c, 0, 64, 0
1, 15393, Control_c, 0, 64, 127
1, 15423, Note_on_c, 0, 52, 0
1, 15436, Note_on_c, 0, 42, 0
1, 15439, Note_on_c, 0, 58, 0
1, 15442, Note_on_c, 0, 49, 0
1, 15479, Note_on_c, 0, 62, 0
1, 15486, Note_on_c, 0, 56, 40
1, 15542, Note_on_c, 0, 56, 0
1, 15564, Control_c, 0, 64, 0
1, 15573, Note_on_c, 0, 57, 37
1, 15574, Note_on_c, 0, 48, 34
1, 15578, Note_on_c, 0, 41, 33
1, 15601, Control_c, 0, 64, 127
1, 15606, Note_on_c, 0, 57, 0
1, 15639, Note_on_c, 0, 41, 0
1, 15639, Note_on_c, 0, 48, 0
1, 15718, Note_on_c, 0, 77, 82
1, 15737, Note_on_c, 0, 65, 59
1, 15777, Note_on_c, 0, 65, 0
1, 15781, Note_on_c, 0, 77, 0
1, 15808, Note_on_c, 0, 79, 71
1, 15809, Note_on_c, 0, 62, 37
1, 15811, Note_on_c, 0, 60, 29
1, 15817, Control_c, 0, 64, 0
1, 15817, Note_on_c, 0, 57, 29
1, 15819, Note_on_c, 0, 67, 63
1, 15821, Note_on_c, 0, 53, 19
1, 15845, Note_on_c, 0, 67, 0
1, 15853, Note_on_c, 0, 79, 0
1, 15861, Control_c, 0, 64, 127
1, 15874, Note_on_c, 0, 62, 0
1, 15882, Note_on_c, 0, 60, 0
1, 15886, Note_on_c, 0, 81, 75
1, 15888, Note_on_c, 0, 57, 0
1, 15889, Note_on_c, 0, 69, 65
1, 15907, Note_on_c, 0, 69, 0
1, 15908, Note_on_c, 0, 53, 0
1, 15911, Note_on_c, 0, 81, 0
1, 15962, Note_on_c, 0, 82, 71
1, 15964, Note_on_c, 0, 70, 68
1, 16002, Note_on_c, 0, 82, 0
1, 16009, Note_on_c, 0, 70, 0
1, 16038, Note_on_c, 0, 58, 32
1, 16039, Control_c, 0, 64, 0
1, 16039, Note_on_c, 0, 81, 64
1, 16041, Note_on_c, 0, 62, 35
1, 16042, Note_on_c, 0, 69, 53
1, 16043, Note_on_c, 0, 52, 38
1, 16061, Note_on_c, 0, 62, 0
1, 16068, Note_on_c, 0, 58, 0
1, 16071, Note_on_c, 0, 52, 0
1, 16083, Note_on_c, 0, 69, 0
1, 16086, Note_on_c, 0, 81, 0
1, 16128, Control_c, 0, 64, 127
1, 16187, Note_on_c, 0, 45, 54
1, 16271, Note_on_c, 0, 55, 57
1, 16273, Note_on_c, 0, 58, 44
1, 16273, Note_on_c, 0, 61, 43
1, 16276, Note_on_c, 0, 64, 33
1, 16277, Control_c, 0, 64, 0
1, 16282, Control_c, 0, 64, 127
1, 16286, Note_on_c, 0, 64, 0
1, 16296, Note_on_c, 0, 58, 0
1, 16297, Note_on_c, 0, 45, 0
1, 16299, Note_on_c, 0, 55, 0
1, 16299, Note_on_c, 0, 61, 0
1, 16352, Note_on_c, 0, 69, 77
1, 16353, Note_on_c, 0, 58, 71
1, 16354, Note_on_c, 0, 61, 69
1, 16354, Note_on_c, 0, 57, 57
1, 16356, Note_on_c, 0, 64, 69
1, 16371, Control_c, 0, 64, 0
1, 16399, Control_c, 0, 64, 127
1, 16410, Note_on_c, 0, 69, 0
1, 16421, Note_on_c, 0, 64, 0
1, 16422, Note_on_c, 0, 57, 0
1, 16423, Note_on_c, 0, 67, 67
1, 16427, Note_on_c, 0, 55, 48
1, 16464, Note_on_c, 0, 58, 0
1, 16472, Note_on_c, 0, 55, 0
1, 16479, Note_on_c, 0, 61, 0
1, 16480, Note_on_c, 0, 67, 0
1, 16499, Control_c, 0, 64, 0
1, 16503, Note_on_c, 0, 65, 53
1, 16504, Note_on_c, 0, 57, 42
1, 16507, Note_on_c, 0, 62, 50
1, 16508, Note_on_c, 0, 50, 40
1, 16528, Control_c, 0, 64, 127
1, 16532, Note_on_c, 0, 57, 0
1, 16549, Note_on_c, 0, 62, 0
1, 16553, Note_on_c, 0, 65, 0
1, 16588, Note_on_c, 0, 77, 82
1, 16648, Note_on_c, 0, 77, 0
1, 16661, Note_on_c, 0, 77, 83
1, 16719, Note_on_c, 0, 77, 0
1, 16739, Note_on_c, 0, 77, 54
1, 16743, Note_on_c, 0, 65, 63
1, 16743, Note_on_c, 0, 73, 56
1, 16743, Note_on_c, 0, 61, 39
1, 16744, Note_on_c, 0, 69, 62
1, 16751, Control_c, 0, 64, 0
1, 16799, Control_c, 0, 64, 127
1, 16809, Note_on_c, 0, 77, 0
1, 16826, Note_on_c, 0, 77, 69
1, 16869, Note_on_c, 0, 77, 0
1, 16889, Note_on_c, 0, 65, 0
1, 16895, Note_on_c, 0, 69, 0
1, 16901, Note_on_c, 0, 77, 74
1, 16908, Note_on_c, 0, 50, 0
1, 16909, Note_on_c, 0, 73, 0
1, 16916, Note_on_c, 0, 61, 0
1, 16948, Note_on_c, 0, 77, 0
1, 16976, Control_c, 0, 64, 0
1, 16978, Note_on_c, 0, 77, 67
1, 16979, Note_on_c, 0, 58, 59
1, 16982, Note_on_c, 0, 70, 57
1, 16983, Note_on_c, 0, 75, 60
1, 16983, Note_on_c, 0, 48, 56
1, 16984, Note_on_c, 0, 67, 57
1, 17018, Control_c, 0, 64, 127
1, 17024, Note_on_c, 0, 77, 0
1, 17031, Note_on_c, 0, 75, 0
1, 17035, Note_on_c, 0, 70, 0
1, 17037, Note_on_c, 0, 67, 0
1, 17059, Note_on_c, 0, 58, 0
1, 17059, Note_on_c, 0, 55, 74
1, 17142, Note_on_c, 0, 55, 0
1, 17155, Note_on_c, 0, 48, 0
1, 17219, Note_on_c, 0, 65, 62
1, 17222, Note_on_c, 0, 63, 53
1, 17226, Note_on_c, 0, 61, 54
1, 17227, Note_on_c, 0, 57, 60
1, 17229, Control_c, 0, 64, 0
1, 17232, Note_on_c, 0, 54, 46
1, 17233, Note_on_c, 0, 47, 45
1, 17281, Control_c, 0, 64, 127
1, 17377, Note_on_c, 0, 57, 0
1, 17381, Note_on_c, 0, 47, 0
1, 17393, Note_on_c, 0, 63, 0
1, 17400, Note_on_c, 0, 54, 0
1, 17406, Note_on_c, 0, 65, 0
1, 17419, Note_on_c, 0, 61, 0
1, 17473, Note_on_c, 0, 62, 47
1, 17474, Control_c, 0, 64, 0
1, 17477, Note_on_c, 0, 56, 34
1, 17478, Note_on_c, 0, 46, 30
1, 17482, Note_on_c, 0, 53, 29
1, 17483, Note_on_c, 0, 60, 47
1, 17515, Note_on_c, 0, 56, 0
1, 17516, Note_on_c, 0, 60, 0
1, 17519, Control_c, 0, 64, 127
1, 17530, Note_on_c, 0, 62, 0
1, 17552, Note_on_c, 0, 53, 0
1, 17560, Note_on_c, 0, 46, 0
1, 17639, Note_on_c, 0, 77, 101
1, 17723, Note_on_c, 0, 56, 39
1, 17723, Note_on_c, 0, 67, 47
1, 17724, Note_on_c, 0, 62, 50
1, 17726, Note_on_c, 0, 79, 80
1, 17728, Control_c, 0, 64, 0
1, 17736, Note_on_c, 0, 77, 0
1, 17759, Control_c, 0, 64, 127
1, 17802, Note_on_c, 0, 81, 74
1, 17803, Note_on_c, 0, 79, 0
1, 17850, Note_on_c, 0, 81, 0
1, 17900, Note_on_c, 0, 62, 0
1, 17900, Note_on_c, 0, 67, 0
1, 17926, Note_on_c, 0, 82, 83
1, 17928, Note_on_c, 0, 56, 0
1, 17968, Control_c, 0, 64, 0
1, 17969, Note_on_c, 0, 82, 0
1, 17972, Note_on_c, 0, 81, 73
1, 17974, Note_on_c, 0, 66, 35
1, 17976, Note_on_c, 0, 55, 41
1, 17976, Note_on_c, 0, 61, 39
1, 18011, Control_c, 0, 64, 127
1, 18050, Note_on_c, 0, 66, 0
1, 18059, Note_on_c, 0, 55, 0
1, 18066, Note_on_c, 0, 61, 0
1, 18088, Note_on_c, 0, 81, 0
1, 18214, Note_on_c, 0, 73, 65
1, 18214, Note_on_c, 0, 76, 64
1, 18216, Note_on_c, 0, 70, 56
1, 18222, Note_on_c, 0, 61, 35
1, 18289, Note_on_c, 0, 79, 74
1, 18342, Note_on_c, 0, 76, 0
1, 18349, Note_on_c, 0, 70, 0
1, 18351, Note_on_c, 0, 79, 0
1, 18361, Note_on_c, 0, 73, 0
1, 18366, Note_on_c, 0, 51, 42
1, 18403, Note_on_c, 0, 61, 0
1, 18412, Note_on_c, 0, 51, 0
1, 18447, Note_on_c, 0, 77, 50
1, 18449, Note_on_c, 0, 50, 46
1, 18451, Control_c, 0, 64, 0
1, 18452, Note_on_c, 0, 57, 19
1, 18452, Note_on_c, 0, 65, 35
1, 18485, Note_on_c, 0, 50, 0
1, 18492, Control_c, 0, 64, 127
1, 18528, Note_on_c, 0, 62, 77
1, 18530, Note_on_c, 0, 57, 0
1, 18553, Note_on_c, 0, 65, 0
1, 18611, Note_on_c, 0, 69, 46
1, 18613, Note_on_c, 0, 65, 33
1, 18683, Note_on_c, 0, 61, 85
1, 18693, Note_on_c, 0, 62, 0
1, 18701, Note_on_c, 0, 69, 0
1, 18710, Note_on_c, 0, 65, 0
1, 18732, Control_c, 0, 64, 0
1, 18763, Control_c, 0, 64, 127
1, 18773, Note_on_c, 0, 65, 26
1, 18774, Note_on_c, 0, 69, 33
1, 18832, Note_on_c, 0, 69, 0
1, 18834, Note_on_c, 0, 65, 0
1, 18887, Note_on_c, 0, 77, 0
1, 18941, Note_on_c, 0, 60, 71
1, 18947, Control_c, 0, 64, 0
1, 18960, Note_on_c, 0, 61, 0
1, 19018, Note_on_c, 0, 70, 45
1, 19023, Note_on_c, 0, 63, 32
1, 19023, Note_on_c, 0, 67, 47
1, 19026, Control_c, 0, 64, 127
1, 19088, Note_on_c, 0, 60, 0
1, 19179, Note_on_c, 0, 67, 0
1, 19183, Note_on_c, 0, 59, 67
1, 19191, Note_on_c, 0, 63, 0
1, 19193, Note_on_c, 0, 70, 0
1, 19194, Control_c, 0, 64, 0
1, 19232, Control_c, 0, 64, 127
1, 19336, Note_on_c, 0, 59, 0
1, 19359, Note_on_c, 0, 63, 39
1, 19366, Note_on_c, 0, 63, 0
1, 19446, Note_on_c, 0, 56, 32
1, 19448, Control_c, 0, 64, 0
1, 19449, Note_on_c, 0, 65, 46
1, 19451, Note_on_c, 0, 46, 26
1, 19452, Note_on_c, 0, 62, 47
1, 19456, Note_on_c, 0, 53, 22
1, 19491, Control_c, 0, 64, 127
1, 19493, Note_on_c, 0, 62, 0
1, 19493, Note_on_c, 0, 56, 0
1, 19499, Note_on_c, 0, 65, 0
1, 19517, Note_on_c, 0, 53, 0
1, 19527, Note_on_c, 0, 46, 0
1, 19613, Note_on_c, 0, 74, 113
1, 19689, Note_on_c, 0, 67, 46
1, 19689, Note_on_c, 0, 56, 35
1, 19692, Note_on_c, 0, 62, 43
1, 19693, Control_c, 0, 64, 0
1, 19751, Control_c, 0, 64, 127
1, 19761, Note_on_c, 0, 76, 73
1, 19766, Note_on_c, 0, 74, 0
1, 19792, Note_on_c, 0, 76, 0
1, 19816, Note_on_c, 0, 67, 0
1, 19822, Note_on_c, 0, 77, 76
1, 19834, Note_on_c, 0, 62, 0
1, 19847, Note_on_c, 0, 77, 0
1, 19863, Note_on_c, 0, 79, 75
1, 19867, Note_on_c, 0, 56, 0
1, 19886, Note_on_c, 0, 79, 0
1, 19911, Control_c, 0, 64, 0
1, 19917, Note_on_c, 0, 66, 47
1, 19917, Note_on_c, 0, 77, 67
1, 19918, Note_on_c, 0, 55, 55
1, 19923, Note_on_c, 0, 61, 43
1, 19943, Note_on_c, 0, 66, 0
1, 19947, Note_on_c, 0, 77, 0
1, 19950, Note_on_c, 0, 55, 0
1, 19955, Note_on_c, 0, 61, 0
1, 20052, Note_on_c, 0, 45, 51
1, 20072, Control_c, 0, 64, 127
1, 20146, Note_on_c, 0, 52, 60
1, 20166, Note_on_c, 0, 62, 55
1, 20166, Note_on_c, 0, 58, 42
1, 20167, Note_on_c, 0, 65, 59
1, 20167, Control_c, 0, 64, 0
1, 20168, Note_on_c, 0, 52, 0
1, 20169, Note_on_c, 0, 55, 45
1, 20169, Note_on_c, 0, 53, 64
1, 20216, Control_c, 0, 64, 127
1, 20255, Note_on_c, 0, 45, 0
1, 20257, Note_on_c, 0, 55, 0
1, 20267, Note_on_c, 0, 65, 0
1, 20268, Note_on_c, 0, 62, 0
1, 20272, Note_on_c, 0, 53, 0
1, 20274, Control_c, 0, 64, 0
1, 20291, Note_on_c, 0, 64, 59
1, 20291, Note_on_c, 0, 45, 52
1, 20292, Note_on_c, 0, 55, 46
1, 20306, Note_on_c, 0, 52, 64
1, 20314, Note_on_c, 0, 45, 0
1, 20314, Control_c, 0, 64, 127
1, 20327, Note_on_c, 0, 64, 0
1, 20346, Note_on_c, 0, 58, 0
1, 20348, Note_on_c, 0, 55, 0
1, 20362, Note_on_c, 0, 52, 0
1, 20407, Note_on_c, 0, 62, 66
1, 20409, Control_c, 0, 64, 0
1, 20411, Note_on_c, 0, 58, 52
1, 20412, Note_on_c, 0, 53, 51
1, 20412, Note_on_c, 0, 44, 46
1, 20457, Control_c, 0, 64, 127
1, 20463, Note_on_c, 0, 53, 0
1, 20473, Note_on_c, 0, 58, 0
1, 20474, Note_on_c, 0, 62, 0
1, 20510, Note_on_c, 0, 44, 0
1, 20533, Note_on_c, 0, 73, 46
1, 20540, Note_on_c, 0, 73, 0
1, 20543, Note_on_c, 0, 72, 47
1, 20566, Note_on_c, 0, 72, 0
1, 20646, Note_on_c, 0, 74, 80
1, 20649, Note_on_c, 0, 70, 68
1, 20652, Note_on_c, 0, 60, 42
1, 20656, Note_on_c, 0, 65, 63
1, 20666, Control_c, 0, 64, 0
1, 20683, Control_c, 0, 64, 127
1, 20699, Note_on_c, 0, 74, 0
1, 20716, Note_on_c, 0, 74, 69
1, 20749, Note_on_c, 0, 74, 0
1, 20776, Note_on_c, 0, 74, 53
1, 20777, Note_on_c, 0, 60, 0
1, 20801, Note_on_c, 0, 65, 0
1, 20801, Note_on_c, 0, 74, 0
1, 20817, Note_on_c, 0, 70, 0
1, 20824, Note_on_c, 0, 74, 55
1, 20859, Note_on_c, 0, 74, 0
1, 20887, Note_on_c, 0, 74, 35
1, 20891, Control_c, 0, 64, 0
1, 20892, Note_on_c, 0, 60, 36
1, 20892, Note_on_c, 0, 69, 42
1, 20892, Note_on_c, 0, 55, 33
1, 20893, Note_on_c, 0, 65, 29
1, 20894, Note_on_c, 0, 72, 36
1, 20896, Note_on_c, 0, 57, 45
1, 20919, Control_c, 0, 64, 127
1, 20963, Note_on_c, 0, 60, 0
1, 20972, Note_on_c, 0, 55, 0
1, 20980, Note_on_c, 0, 74, 0
1, 20980, Note_on_c, 0, 69, 0
1, 20981, Note_on_c, 0, 72, 0
1, 20982, Note_on_c, 0, 57, 0
1, 20985, Note_on_c, 0, 65, 0
1, 21142, Note_on_c, 0, 59, 44
1, 21142, Note_on_c, 0, 53, 34
1, 21143, Note_on_c, 0, 43, 37
1, 21143, Note_on_c, 0, 57, 51
1, 21153, Control_c, 0, 64, 0
1, 21197, Control_c, 0, 64, 127
1, 21204, Note_on_c, 0, 43, 0
1, 21269, Note_on_c, 0, 53, 0
1, 21273, Note_on_c, 0, 57, 0
1, 21275, Note_on_c, 0, 59, 0
1, 21397, Note_on_c, 0, 44, 77
1, 21399, Note_on_c, 0, 62, 76
1, 21402, Control_c, 0, 64, 0
1, 21403, Note_on_c, 0, 58, 73
1, 21403, Note_on_c, 0, 56, 65
1, 21407, Note_on_c, 0, 46, 67
1, 21428, Note_on_c, 0, 44, 0
1, 21561, Note_on_c, 0, 64, 66
1, 21584, Note_on_c, 0, 62, 0
1, 21589, Control_c, 0, 64, 127
1, 21611, Note_on_c, 0, 58, 0
1, 21616, Note_on_c, 0, 56, 0
1, 21621, Note_on_c, 0, 64, 0
1, 21643, Note_on_c, 0, 34, 38
1, 21646, Note_on_c, 0, 56, 33
1, 21648, Note_on_c, 0, 58, 36
1, 21651, Note_on_c, 0, 65, 42
1, 21652, Control_c, 0, 64, 0
1, 21657, Note_on_c, 0, 62, 32
1, 21663, Note_on_c, 0, 65, 0
1, 21668, Note_on_c, 0, 56, 0
1, 21668, Note_on_c, 0, 34, 0
1, 21669, Note_on_c, 0, 62, 0
1, 21669, Note_on_c, 0, 58, 0
1, 21673, Note_on_c, 0, 46, 0
1, 21803, Note_on_c, 0, 67, 48
1, 21804, Control_c, 0, 64, 127
1, 21807, Note_on_c, 0, 66, 34
1, 21816, Note_on_c, 0, 67, 0
1, 21818, Note_on_c, 0, 66, 0
1, 21884, Note_on_c, 0, 65, 36
1, 21887, Note_on_c, 0, 61, 34
1, 21887, Note_on_c, 0, 58, 36
1, 21888, Note_on_c, 0, 55, 31
1, 21889, Control_c, 0, 64, 0
1, 21891, Note_on_c, 0, 33, 37
1, 21891, Note_on_c, 0, 45, 30
1, 21926, Control_c, 0, 64, 127
1, 21986, Note_on_c, 0, 33, 0
1, 22012, Note_on_c, 0, 45, 0
1, 22069, Note_on_c, 0, 55, 0
1, 22095, Note_on_c, 0, 58, 0
1, 22098, Note_on_c, 0, 61, 0
1, 22124, Note_on_c, 0, 65, 0
1, 22142, Note_on_c, 0, 64, 47
1, 22144, Note_on_c, 0, 61, 33
1, 22144, Note_on_c, 0, 58, 27
1, 22147, Note_on_c, 0, 55, 36
1, 22159, Control_c, 0, 64, 0
1, 22169, Control_c, 0, 64, 127
1, 22264, Note_on_c, 0, 64, 0
1, 22278, Note_on_c, 0, 55, 0
1, 22296, Note_on_c, 0, 58, 0
1, 22339, Note_on_c, 0, 48, 40
1, 22342, Note_on_c, 0, 61, 0
1, 22350, Note_on_c, 0, 48, 0
1, 22353, Note_on_c, 0, 49, 58
1, 22364, Note_on_c, 0, 62, 62
1, 22366, Note_on_c, 0, 60, 54
1, 22366, Control_c, 0, 64, 0
1, 22367, Note_on_c, 0, 54, 33
1, 22369, Note_on_c, 0, 56, 44
1, 22371, Note_on_c, 0, 49, 0
1, 22376, Note_on_c, 0, 50, 49
1, 22421, Note_on_c, 0, 50, 0
1, 22424, Note_on_c, 0, 49, 47
1, 22440, Note_on_c, 0, 49, 0
1, 22453, Note_on_c, 0, 48, 46
1, 22465, Note_on_c, 0, 48, 0
1, 22476, Note_on_c, 0, 47, 34
1, 22496, Note_on_c, 0, 47, 0
1, 22502, Note_on_c, 0, 46, 43
1, 22519, Note_on_c, 0, 46, 0
1, 22532, Note_on_c, 0, 45, 31
1, 22557, Note_on_c, 0, 45, 0
1, 22563, Note_on_c, 0, 44, 50
1, 22637, Control_c, 0, 64, 127
1, 22703, Note_on_c, 0, 54, 0
1, 22763, Note_on_c, 0, 44, 0
1, 22781, Note_on_c, 0, 60, 0
1, 22805, Note_on_c, 0, 56, 0
1, 22819, Note_on_c, 0, 41, 33
1, 22820, Note_on_c, 0, 62, 0
1, 22834, Note_on_c, 0, 41, 0
1, 22837, Note_on_c, 0, 42, 45
1, 22846, Note_on_c, 0, 43, 56
1, 22846, Note_on_c, 0, 62, 18
1, 22847, Control_c, 0, 64, 0
1, 22849, Note_on_c, 0, 53, 34
1, 22849, Note_on_c, 0, 56, 29
1, 22849, Note_on_c, 0, 59, 34
1, 22855, Note_on_c, 0, 42, 0
1, 22858, Note_on_c, 0, 43, 0
1, 22914, Note_on_c, 0, 43, 68
1, 22922, Note_on_c, 0, 43, 0
1, 22987, Note_on_c, 0, 38, 46
1, 22988, Note_on_c, 0, 26, 38
1, 23001, Note_on_c, 0, 26, 0
1, 23004, Control_c, 0, 64, 127
1, 23007, Note_on_c, 0, 38, 0
1, 23007, Control_c, 0, 64, 0
1, 23029, Control_c, 0, 64, 127
1, 23067, Control_c, 0, 64, 0
1, 23068, Note_on_c, 0, 37, 60
1, 23073, Note_on_c, 0, 25, 35
1, 23112, Control_c, 0, 64, 127
1, 23203, Note_on_c, 0, 25, 0
1, 23204, Note_on_c, 0, 53, 0
1, 23206, Note_on_c, 0, 56, 0
1, 23219, Note_on_c, 0, 59, 0
1, 23225, Note_on_c, 0, 37, 0
1, 23233, Note_on_c, 0, 62, 0
1, 23303, Control_c, 0, 64, 0
1, 23317, Note_on_c, 0, 36, 48
1, 23318, Note_on_c, 0, 24, 46
1, 23344, Control_c, 0, 64, 127
1, 23378, Note_on_c, 0, 24, 0
1, 23394, Note_on_c, 0, 36, 0
1, 23487, Note_on_c, 0, 88, 84
1, 23493, Note_on_c, 0, 76, 82
1, 23616, Note_on_c, 0, 76, 0
1, 23624, Note_on_c, 0, 88, 0
1, 23663, Note_on_c, 0, 88, 88
1, 23671, Note_on_c, 0, 62, 64
1, 23673, Note_on_c, 0, 67, 61
1, 23674, Note_on_c, 0, 56, 53
1, 23676, Note_on_c, 0, 76, 66
1, 23681, Control_c, 0, 64, 0
1, 23709, Control_c, 0, 64, 127
1, 23749, Note_on_c, 0, 67, 0
1, 23749, Note_on_c, 0, 62, 0
1, 23754, Note_on_c, 0, 76, 0
1, 23761, Note_on_c, 0, 88, 0
1, 23769, Note_on_c, 0, 56, 0
1, 23808, Note_on_c, 0, 88, 77
1, 23812, Control_c, 0, 64, 0
1, 23814, Note_on_c, 0, 66, 52
1, 23817, Note_on_c, 0, 55, 44
1, 23818, Note_on_c, 0, 61, 38
1, 23819, Note_on_c, 0, 76, 67
1, 23854, Control_c, 0, 64, 127
1, 23887, Note_on_c, 0, 66, 0
1, 23893, Note_on_c, 0, 55, 0
1, 23896, Note_on_c, 0, 88, 0
1, 23905, Note_on_c, 0, 61, 0
1, 23914, Note_on_c, 0, 76, 0
1, 24062, Note_on_c, 0, 58, 27
1, 24062, Note_on_c, 0, 64, 44
1, 24067, Note_on_c, 0, 61, 33
1, 24068, Note_on_c, 0, 45, 34
1, 24072, Note_on_c, 0, 55, 19
1, 24077, Control_c, 0, 64, 0
1, 24102, Control_c, 0, 64, 127
1, 24133, Note_on_c, 0, 55, 0
1, 24142, Note_on_c, 0, 64, 0
1, 24152, Note_on_c, 0, 58, 0
1, 24160, Note_on_c, 0, 45, 0
1, 24165, Note_on_c, 0, 61, 0
1, 24311, Note_on_c, 0, 54, 40
1, 24313, Note_on_c, 0, 38, 37
1, 24317, Note_on_c, 0, 26, 40
1, 24319, Control_c, 0, 64, 0
1, 24356, Control_c, 0, 64, 127
1, 24372, Note_on_c, 0, 54, 0
1, 24380, Note_on_c, 0, 26, 0
1, 24400, Note_on_c, 0, 38, 0
1, 24561, Note_on_c, 0, 72, 53
1, 24566, Note_on_c, 0, 64, 42
1, 24567, Note_on_c, 0, 60, 48
1, 24567, Note_on_c, 0, 54, 29
1, 24569, Note_on_c, 0, 73, 53
1, 24571, Control_c, 0, 64, 0
1, 24586, Note_on_c, 0, 72, 0
1, 24595, Note_on_c, 0, 73, 0
1, 24597, Note_on_c, 0, 74, 64
1, 24620, Note_on_c, 0, 74, 0
1, 24670, Note_on_c, 0, 60, 0
1, 24681, Note_on_c, 0, 76, 88
1, 24719, Note_on_c, 0, 64, 0
1, 24721, Note_on_c, 0, 76, 0
1, 24736, Control_c, 0, 64, 127
1, 24743, Note_on_c, 0, 76, 74
1, 24759, Note_on_c, 0, 54, 0
1, 24780, Note_on_c, 0, 76, 0
1, 24796, Control_c, 0, 64, 0
1, 24799, Note_on_c, 0, 64, 44
1, 24803, Note_on_c, 0, 59, 37
1, 24806, Note_on_c, 0, 77, 80
1, 24807, Note_on_c, 0, 53, 32
1, 24856, Note_on_c, 0, 77, 0
1, 24876, Note_on_c, 0, 79, 81
1, 24929, Control_c, 0, 64, 127
1, 24948, Note_on_c, 0, 79, 0
1, 24954, Note_on_c, 0, 59, 0
1, 24955, Note_on_c, 0, 64, 0
1, 24997, Note_on_c, 0, 53, 0
1, 25027, Control_c, 0, 64, 0
1, 25029, Note_on_c, 0, 76, 73
1, 25036, Note_on_c, 0, 71, 51
1, 25037, Note_on_c, 0, 62, 48
1, 25037, Note_on_c, 0, 68, 46
1, 25037, Note_on_c, 0, 56, 36
1, 25039, Note_on_c, 0, 65, 57
1, 25083, Control_c, 0, 64, 127
1, 25085, Note_on_c, 0, 76, 0
1, 25110, Note_on_c, 0, 65, 0
1, 25114, Note_on_c, 0, 71, 0
1, 25118, Note_on_c, 0, 76, 83
1, 25133, Note_on_c, 0, 68, 0
1, 25142, Note_on_c, 0, 56, 0
1, 25161, Note_on_c, 0, 76, 0
1, 25177, Note_on_c, 0, 62, 0
1, 25197, Note_on_c, 0, 71, 67
1, 25220, Note_on_c, 0, 71, 0
1, 25236, Note_on_c, 0, 74, 82
1, 25267, Note_on_c, 0, 74, 0
1, 25279, Control_c, 0, 64, 0
1, 25284, Note_on_c, 0, 64, 36
1, 25287, Note_on_c, 0, 72, 60
1, 25289, Note_on_c, 0, 60, 36
1, 25289, Note_on_c, 0, 57, 37
1, 25314, Control_c, 0, 64, 127
1, 25322, Note_on_c, 0, 64, 0
1, 25334, Note_on_c, 0, 60, 0
1, 25347, Note_on_c, 0, 57, 0
1, 25352, Note_on_c, 0, 60, 55
1, 25444, Note_on_c, 0, 60, 0
1, 25519, Note_on_c, 0, 62, 51
1, 25523, Note_on_c, 0, 56, 31
1, 25523, Note_on_c, 0, 59, 58
1, 25526, Control_c, 0, 64, 0
1, 25559, Control_c, 0, 64, 127
1, 25583, Note_on_c, 0, 59, 0
1, 25584, Note_on_c, 0, 62, 0
1, 25599, Note_on_c, 0, 56, 0
1, 25628, Note_on_c, 0, 70, 85
1, 25642, Note_on_c, 0, 72, 0
1, 25683, Note_on_c, 0, 70, 0
1, 25693, Note_on_c, 0, 66, 67
1, 25733, Note_on_c, 0, 66, 0
1, 25742, Note_on_c, 0, 69, 81
1, 25777, Control_c, 0, 64, 0
1, 25782, Note_on_c, 0, 69, 0
1, 25784, Note_on_c, 0, 43, 51
1, 25791, Note_on_c, 0, 66, 49
1, 25828, Note_on_c, 0, 66, 0
1, 25837, Note_on_c, 0, 67, 71
1, 25868, Note_on_c, 0, 67, 0
1, 25877, Note_on_c, 0, 69, 69
1, 25884, Note_on_c, 0, 43, 0
1, 25900, Note_on_c, 0, 69, 0
1, 25916, Note_on_c, 0, 70, 56
1, 25928, Note_on_c, 0, 70, 0
1, 25952, Note_on_c, 0, 72, 44
1, 25973, Control_c, 0, 64, 127
1, 25974, Note_on_c, 0, 72, 0
1, 25982, Note_on_c, 0, 73, 57
1, 26004, Control_c, 0, 64, 0
1, 26008, Note_on_c, 0, 30, 53
1, 26012, Note_on_c, 0, 73, 0
1, 26012, Note_on_c, 0, 42, 34
1, 26014, Note_on_c, 0, 75, 54
1, 26038, Note_on_c, 0, 42, 0
1, 26038, Note_on_c, 0, 30, 0
1, 26039, Note_on_c, 0, 75, 0
1, 26051, Note_on_c, 0, 76, 64
1, 26072, Note_on_c, 0, 76, 0
1, 26082, Note_on_c, 0, 78, 51
1, 26099, Note_on_c, 0, 78, 0
1, 26122, Note_on_c, 0, 79, 40
1, 26138, Note_on_c, 0, 79, 0
1, 26139, Note_on_c, 0, 81, 59
1, 26161, Note_on_c, 0, 81, 0
1, 26167, Control_c, 0, 64, 127
1, 26172, Note_on_c, 0, 82, 56
1, 26192, Note_on_c, 0, 82, 0
1, 26202, Note_on_c, 0, 83, 31
1, 26219, Note_on_c, 0, 83, 0
1, 26226, Note_on_c, 0, 84, 80
1, 26233, Control_c, 0, 64, 0
1, 26248, Note_on_c, 0, 41, 27
1, 26249, Note_on_c, 0, 29, 41
1, 26261, Note_on_c, 0, 81, 66
1, 26267, Note_on_c, 0, 84, 0
1, 26276, Control_c, 0, 64, 127
1, 26278, Note_on_c, 0, 41, 0
1, 26285, Note_on_c, 0, 29, 0
1, 26313, Note_on_c, 0, 81, 0
1, 26313, Note_on_c, 0, 76, 59
1, 26388, Note_on_c, 0, 58, 23
1, 26398, Note_on_c, 0, 58, 0
1, 26410, Note_on_c, 0, 76, 0
1, 26492, Note_on_c, 0, 60, 37
1, 26492, Note_on_c, 0, 57, 45
1, 26493, Note_on_c, 0, 64, 39
1, 26496, Note_on_c, 0, 53, 31
1, 26553, Note_on_c, 0, 83, 84
1, 26563, Note_on_c, 0, 71, 77
1, 26584, Note_on_c, 0, 71, 0
1, 26594, Note_on_c, 0, 64, 0
1, 26596, Note_on_c, 0, 83, 0
1, 26603, Note_on_c, 0, 60, 0
1, 26608, Note_on_c, 0, 57, 0
1, 26611, Note_on_c, 0, 53, 0
1, 26629, Note_on_c, 0, 84, 91
1, 26637, Note_on_c, 0, 72, 80
1, 26655, Note_on_c, 0, 72, 0
1, 26666, Note_on_c, 0, 84, 0
1, 26713, Note_on_c, 0, 86, 83
1, 26717, Control_c, 0, 64, 0
1, 26723, Note_on_c, 0, 81, 69
1, 26724, Note_on_c, 0, 62, 38
1, 26726, Note_on_c, 0, 74, 72
1, 26727, Note_on_c, 0, 64, 60
1, 26729, Note_on_c, 0, 57, 51
1, 26752, Control_c, 0, 64, 127
1, 26771, Note_on_c, 0, 74, 0
1, 26773, Note_on_c, 0, 86, 0
1, 26784, Note_on_c, 0, 81, 0
1, 26797, Note_on_c, 0, 88, 87
1, 26803, Note_on_c, 0, 81, 62
1, 26809, Note_on_c, 0, 76, 69
1, 26812, Note_on_c, 0, 86, 24
1, 26850, Note_on_c, 0, 88, 0
1, 26853, Note_on_c, 0, 86, 0
1, 26854, Note_on_c, 0, 81, 0
1, 26859, Note_on_c, 0, 76, 0
1, 26877, Note_on_c, 0, 64, 0
1, 26884, Note_on_c, 0, 62, 0
1, 26885, Note_on_c, 0, 57, 0
1, 26956, Note_on_c, 0, 84, 80
1, 26962, Note_on_c, 0, 76, 64
1, 26963, Note_on_c, 0, 79, 60
1, 26966, Note_on_c, 0, 67, 49
1, 26967, Note_on_c, 0, 72, 58
1, 26969, Note_on_c, 0, 62, 40
1, 26971, Control_c, 0, 64, 0
1, 26971, Note_on_c, 0, 56, 34
1, 27006, Control_c, 0, 64, 127
1, 27077, Note_on_c, 0, 72, 0
1, 27081, Note_on_c, 0, 84, 0
1, 27097, Note_on_c, 0, 62, 0
1, 27098, Note_on_c, 0, 67, 0
1, 27099, Note_on_c, 0, 76, 0
1, 27100, Note_on_c, 0, 79, 0
1, 27113, Note_on_c, 0, 56, 0
1, 27124, Note_on_c, 0, 83, 39
1, 27128, Note_on_c, 0, 81, 38
1, 27128, Note_on_c, 0, 76, 44
1, 27136, Note_on_c, 0, 76, 0
1, 27137, Note_on_c, 0, 71, 22
1, 27146, Note_on_c, 0, 83, 0
1, 27147, Note_on_c, 0, 71, 0
1, 27151, Note_on_c, 0, 81, 0
1, 27208, Note_on_c, 0, 81, 51
1, 27213, Note_on_c, 0, 76, 46
1, 27213, Note_on_c, 0, 69, 55
1, 27213, Note_on_c, 0, 74, 47
1, 27214, Note_on_c, 0, 71, 46
1, 27214, Control_c, 0, 64, 0
1, 27259, Control_c, 0, 64, 127
1, 27264, Note_on_c, 0, 81, 0
1, 27294, Note_on_c, 0, 81, 56
1, 27311, Note_on_c, 0, 69, 0
1, 27325, Note_on_c, 0, 81, 0
1, 27331, Note_on_c, 0, 74, 0
1, 27332, Note_on_c, 0, 71, 0
1, 27334, Note_on_c, 0, 76, 0
1, 27452, Note_on_c, 0, 69, 64
1, 27459, Note_on_c, 0, 64, 59
1, 27462, Note_on_c, 0, 62, 55
1, 27464, Note_on_c, 0, 58, 32
1, 27468, Control_c, 0, 64, 0
1, 27533, Control_c, 0, 64, 127
1, 27538, Note_on_c, 0, 57, 52
1, 27578, Note_on_c, 0, 57, 0
1, 27609, Note_on_c, 0, 52, 48
1, 27617, Note_on_c, 0, 62, 0
1, 27621, Note_on_c, 0, 52, 0
1, 27625, Note_on_c, 0, 64, 0
1, 27626, Note_on_c, 0, 58, 0
1, 27631, Note_on_c, 0, 68, 15
1, 27654, Note_on_c, 0, 68, 0
1, 27692, Note_on_c, 0, 61, 44
1, 27693, Note_on_c, 0, 39, 45
1, 27694, Note_on_c, 0, 55, 46
1, 27697, Note_on_c, 0, 57, 44
1, 27698, Note_on_c, 0, 46, 35
1, 27701, Control_c, 0, 64, 0
1, 27744, Control_c, 0, 64, 127
1, 27841, Note_on_c, 0, 39, 0
1, 27860, Note_on_c, 0, 55, 0
1, 27862, Note_on_c, 0, 57, 0
1, 27890, Note_on_c, 0, 61, 0
1, 27958, Note_on_c, 0, 61, 47
1, 27961, Note_on_c, 0, 55, 50
1, 27962, Note_on_c, 0, 57, 44
1, 27993, Note_on_c, 0, 46, 0
1, 28099, Note_on_c, 0, 69, 0
1, 28115, Note_on_c, 0, 57, 0
1, 28116, Note_on_c, 0, 61, 0
1, 28119, Note_on_c, 0, 55, 0
1, 28122, Note_on_c, 0, 46, 34
1, 28129, Note_on_c, 0, 39, 29
1, 28172, Note_on_c, 0, 39, 0
1, 28179, Note_on_c, 0, 46, 0
1, 28209, Note_on_c, 0, 53, 49
1, 28209, Control_c, 0, 64, 0
1, 28211, Note_on_c, 0, 57, 43
1, 28211, Note_on_c, 0, 45, 40
1, 28216, Note_on_c, 0, 38, 39
1, 28242, Note_on_c, 0, 53, 0
1, 28246, Note_on_c, 0, 57, 0
1, 28252, Control_c, 0, 64, 127
1, 28258, Control_c, 0, 64, 0
1, 28293, Note_on_c, 0, 38, 0
1, 28301, Note_on_c, 0, 45, 0
1, 28371, Note_on_c, 0, 79, 66
1, 28371, Note_on_c, 0, 67, 64
1, 28399, Control_c, 0, 64, 127
1, 28447, Note_on_c, 0, 64, 45
1, 28447, Note_on_c, 0, 54, 42
1, 28452, Note_on_c, 0, 60, 33
1, 28452, Control_c, 0, 64, 0
1, 28454, Note_on_c, 0, 57, 41
1, 28467, Note_on_c, 0, 67, 0
1, 28471, Note_on_c, 0, 79, 0
1, 28513, Note_on_c, 0, 64, 0
1, 28517, Note_on_c, 0, 60, 0
1, 28522, Note_on_c, 0, 57, 0
1, 28530, Note_on_c, 0, 54, 0
1, 28532, Note_on_c, 0, 81, 64
1, 28533, Note_on_c, 0, 69, 58
1, 28596, Note_on_c, 0, 69, 0
1, 28602, Note_on_c, 0, 50, 64
1, 28603, Note_on_c, 0, 81, 0
1, 28613, Control_c, 0, 64, 127
1, 28672, Note_on_c, 0, 50, 0
1, 28678, Note_on_c, 0, 83, 66
1, 28678, Note_on_c, 0, 75, 52
1, 28679, Control_c, 0, 64, 0
1, 28679, Note_on_c, 0, 71, 43
1, 28682, Note_on_c, 0, 43, 62
1, 28704, Note_on_c, 0, 75, 0
1, 28707, Note_on_c, 0, 76, 38
1, 28757, Note_on_c, 0, 76, 0
1, 28760, Note_on_c, 0, 71, 0
1, 28769, Note_on_c, 0, 83, 0
1, 28769, Note_on_c, 0, 43, 0
1, 28822, Note_on_c, 0, 84, 65
1, 28829, Note_on_c, 0, 72, 30
1, 28831, Note_on_c, 0, 79, 43
1, 28859, Control_c, 0, 64, 127
1, 28864, Note_on_c, 0, 79, 0
1, 28866, Note_on_c, 0, 72, 0
1, 28870, Note_on_c, 0, 84, 0
1, 28902, Note_on_c, 0, 64, 40
1, 28903, Note_on_c, 0, 86, 59
1, 28904, Control_c, 0, 64, 0
1, 28904, Note_on_c, 0, 59, 44
1, 28907, Note_on_c, 0, 74, 46
1, 28909, Note_on_c, 0, 79, 41
1, 28912, Note_on_c, 0, 53, 20
1, 28937, Control_c, 0, 64, 127
1, 28959, Note_on_c, 0, 79, 0
1, 28974, Note_on_c, 0, 74, 0
1, 28974, Note_on_c, 0, 86, 0
1, 29059, Note_on_c, 0, 59, 0
1, 29062, Note_on_c, 0, 64, 0
1, 29063, Note_on_c, 0, 88, 57
1, 29075, Note_on_c, 0, 53, 0
1, 29081, Note_on_c, 0, 88, 0
1, 29139, Control_c, 0, 64, 0
1, 29144, Note_on_c, 0, 84, 65
1, 29146, Note_on_c, 0, 62, 36
1, 29149, Note_on_c, 0, 72, 42
1, 29149, Note_on_c, 0, 79, 51
1, 29149, Note_on_c, 0, 52, 30
1, 29149, Note_on_c, 0, 57, 39
1, 29160, Note_on_c, 0, 79, 0
1, 29162, Note_on_c, 0, 72, 0
1, 29162, Note_on_c, 0, 84, 0
1, 29167, Note_on_c, 0, 62, 0
1, 29167, Note_on_c, 0, 57, 0
1, 29176, Note_on_c, 0, 52, 0
1, 29301, Note_on_c, 0, 55, 62
1, 29332, Control_c, 0, 64, 127
1, 29381, Note_on_c, 0, 43, 46
1, 29433, Note_on_c, 0, 55, 0
1, 29536, Note_on_c, 0, 53, 50
1, 29539, Note_on_c, 0, 57, 53
1, 29539, Note_on_c, 0, 60, 53
1, 29583, Note_on_c, 0, 53, 0
1, 29712, Note_on_c, 0, 55, 68
1, 29743, Note_on_c, 0, 43, 0
1, 29895, Note_on_c, 0, 55, 0
1, 29927, Note_on_c, 0, 55, 60
1, 29989, Note_on_c, 0, 43, 51
1, 30021, Note_on_c, 0, 57, 0
1, 30030, Note_on_c, 0, 60, 0
1, 30039, Note_on_c, 0, 43, 0
1, 30053, Note_on_c, 0, 55, 0
1, 30063, Note_on_c, 0, 43, 32
1, 30064, Note_on_c, 0, 64, 58
1, 30067, Note_on_c, 0, 56, 48
1, 30068, Note_on_c, 0, 59, 57
1, 30074, Note_on_c, 0, 43, 0
1, 30074, Note_on_c, 0, 55, 57
1, 30074, Control_c, 0, 64, 0
1, 30148, Control_c, 0, 64, 127
1, 30205, Note_on_c, 0, 55, 0
1, 30248, Note_on_c, 0, 59, 0
1, 30252, Note_on_c, 0, 56, 0
1, 30300, Note_on_c, 0, 64, 0
1, 30311, Note_on_c, 0, 56, 36
1, 30311, Note_on_c, 0, 59, 50
1, 30314, Note_on_c, 0, 53, 40
1, 30419, Note_on_c, 0, 53, 0
1, 30499, Note_on_c, 0, 59, 0
1, 30499, Note_on_c, 0, 56, 0
1, 30567, Note_on_c, 0, 56, 30
1, 30568, Note_on_c, 0, 64, 41
1, 30569, Note_on_c, 0, 43, 37
1, 30569, Note_on_c, 0, 59, 43
1, 30573, Control_c, 0, 64, 0
1, 30604, Control_c, 0, 64, 127
1, 30625, Note_on_c, 0, 59, 0
1, 30625, Note_on_c, 0, 56, 0
1, 30638, Note_on_c, 0, 64, 0
1, 30667, Note_on_c, 0, 43, 0
1, 30738, Note_on_c, 0, 67, 110
1, 30781, Note_on_c, 0, 67, 0
1, 30808, Note_on_c, 0, 66, 64
1, 30809, Note_on_c, 0, 54, 51
1, 30816, Note_on_c, 0, 68, 52
1, 30819, Note_on_c, 0, 55, 58
1, 30821, Control_c, 0, 64, 0
1, 30823, Note_on_c, 0, 66, 0
1, 30831, Note_on_c, 0, 69, 70
1, 30832, Note_on_c, 0, 54, 0
1, 30834, Note_on_c, 0, 68, 0
1, 30839, Note_on_c, 0, 55, 0
1, 30873, Note_on_c, 0, 69, 0
1, 30891, Note_on_c, 0, 69, 62
1, 30892, Note_on_c, 0, 72, 62
1, 30892, Note_on_c, 0, 60, 58
1, 30894, Note_on_c, 0, 65, 58
1, 30898, Control_c, 0, 64, 127
1, 30925, Note_on_c, 0, 60, 0
1, 30930, Note_on_c, 0, 65, 0
1, 30934, Note_on_c, 0, 72, 0
1, 30938, Note_on_c, 0, 69, 0
1, 30956, Control_c, 0, 64, 0
1, 30967, Note_on_c, 0, 74, 67
1, 30968, Note_on_c, 0, 62, 57
1, 30972, Control_c, 0, 64, 127
1, 30996, Note_on_c, 0, 62, 0
1, 30998, Note_on_c, 0, 74, 0
1, 31048, Note_on_c, 0, 36, 40
1, 31049, Note_on_c, 0, 76, 45
1, 31051, Note_on_c, 0, 64, 42
1, 31054, Control_c, 0, 64, 0
1, 31056, Note_on_c, 0, 52, 53
1, 31058, Note_on_c, 0, 72, 29
1, 31091, Note_on_c, 0, 52, 0
1, 31092, Control_c, 0, 64, 127
1, 31108, Note_on_c, 0, 36, 0
1, 31116, Note_on_c, 0, 76, 0
1, 31124, Note_on_c, 0, 64, 0
1, 31129, Note_on_c, 0, 76, 64
1, 31141, Note_on_c, 0, 72, 0
1, 31170, Note_on_c, 0, 76, 0
1, 31206, Note_on_c, 0, 72, 44
1, 31222, Note_on_c, 0, 72, 0
1, 31281, Note_on_c, 0, 74, 42
1, 31288, Note_on_c, 0, 67, 41
1, 31289, Note_on_c, 0, 75, 47
1, 31292, Note_on_c, 0, 56, 28
1, 31292, Control_c, 0, 64, 0
1, 31293, Note_on_c, 0, 62, 36
1, 31310, Note_on_c, 0, 75, 0
1, 31316, Note_on_c, 0, 74, 0
1, 31319, Note_on_c, 0, 76, 30
1, 31349, Control_c, 0, 64, 127
1, 31359, Note_on_c, 0, 76, 0
1, 31368, Note_on_c, 0, 81, 60
1, 31453, Note_on_c, 0, 62, 0
1, 31453, Note_on_c, 0, 67, 0
1, 31480, Note_on_c, 0, 56, 0
1, 31484, Note_on_c, 0, 81, 0
1, 31533, Note_on_c, 0, 81, 42
1, 31536, Note_on_c, 0, 76, 46
1, 31537, Control_c, 0, 64, 0
1, 31538, Note_on_c, 0, 66, 34
1, 31538, Note_on_c, 0, 73, 30
1, 31539, Note_on_c, 0, 69, 27
1, 31548, Note_on_c, 0, 55, 20
1, 31548, Note_on_c, 0, 61, 29
1, 31575, Note_on_c, 0, 69, 0
1, 31576, Note_on_c, 0, 66, 0
1, 31580, Note_on_c, 0, 81, 0
1, 31580, Note_on_c, 0, 55, 0
1, 31581, Note_on_c, 0, 76, 0
1, 31585, Note_on_c, 0, 61, 0
1, 31585, Note_on_c, 0, 73, 0
1, 31637, Control_c, 0, 64, 127
1, 31678, Note_on_c, 0, 45, 53
1, 31758, Note_on_c, 0, 45, 0
1, 31764, Note_on_c, 0, 55, 47
1, 31764, Note_on_c, 0, 64, 42
1, 31766, Note_on_c, 0, 61, 46
1, 31766, Note_on_c, 0, 58, 42
1, 31812, Note_on_c, 0, 55, 0
1, 31856, Note_on_c, 0, 64, 0
1, 31868, Note_on_c, 0, 58, 0
1, 31869, Note_on_c, 0, 61, 0
1, 31923, Note_on_c, 0, 53, 62
1, 31994, Note_on_c, 0, 53, 0
1, 32012, Note_on_c, 0, 26, 44
1, 32012, Note_on_c, 0, 54, 43
1, 32017, Control_c, 0, 64, 0
1, 32062, Control_c, 0, 64, 127
1, 32100, Note_on_c, 0, 26, 0
1, 32103, Note_on_c, 0, 54, 0
1, 32252, Note_on_c, 0, 54, 36
1, 32252, Note_on_c, 0, 60, 44
1, 32253, Note_on_c, 0, 64, 35
1, 32319, Note_on_c, 0, 74, 101
1, 32340, Note_on_c, 0, 74, 0
1, 32397, Note_on_c, 0, 60, 0
1, 32399, Note_on_c, 0, 76, 105
1, 32409, Note_on_c, 0, 54, 0
1, 32415, Note_on_c, 0, 64, 0
1, 32431, Note_on_c, 0, 76, 0
1, 32452, Note_on_c, 0, 76, 89
1, 32485, Note_on_c, 0, 76, 0
1, 32488, Note_on_c, 0, 65, 51
1, 32491, Note_on_c, 0, 55, 39
1, 32491, Note_on_c, 0, 57, 44
1, 32491, Note_on_c, 0, 60, 34
1, 32492, Control_c, 0, 64, 0
1, 32518, Note_on_c, 0, 77, 83
1, 32545, Note_on_c, 0, 77, 0
1, 32554, Control_c, 0, 64, 127
1, 32572, Note_on_c, 0, 77, 74
1, 32600, Note_on_c, 0, 77, 0
1, 32608, Note_on_c, 0, 60, 0
1, 32609, Note_on_c, 0, 65, 0
1, 32622, Note_on_c, 0, 57, 0
1, 32622, Note_on_c, 0, 55, 0
1, 32622, Note_on_c, 0, 79, 80
1, 32647, Note_on_c, 0, 79, 0
1, 32676, Note_on_c, 0, 79, 73
1, 32697, Note_on_c, 0, 79, 0
1, 32736, Note_on_c, 0, 76, 64
1, 32739, Note_on_c, 0, 65, 57
1, 32741, Control_c, 0, 64, 0
1, 32742, Note_on_c, 0, 62, 36
1, 32743, Note_on_c, 0, 68, 39
1, 32743, Note_on_c, 0, 56, 38
1, 32747, Note_on_c, 0, 71, 45
1, 32783, Note_on_c, 0, 76, 0
1, 32803, Control_c, 0, 64, 127
1, 32803, Note_on_c, 0, 76, 57
1, 32840, Note_on_c, 0, 76, 0
1, 32840, Note_on_c, 0, 65, 0
1, 32844, Note_on_c, 0, 71, 0
1, 32847, Note_on_c, 0, 62, 0
1, 32851, Note_on_c, 0, 68, 0
1, 32861, Note_on_c, 0, 74, 57
1, 32871, Note_on_c, 0, 56, 0
1, 32884, Note_on_c, 0, 74, 0
1, 32919, Note_on_c, 0, 74, 69
1, 32949, Note_on_c, 0, 74, 0
1, 32979, Note_on_c, 0, 60, 36
1, 32982, Note_on_c, 0, 72, 53
1, 32983, Note_on_c, 0, 57, 44
1, 32983, Control_c, 0, 64, 0
1, 32984, Note_on_c, 0, 64, 35
1, 32987, Note_on_c, 0, 69, 35
1, 33023, Note_on_c, 0, 72, 0
1, 33023, Control_c, 0, 64, 127
1, 33051, Note_on_c, 0, 72, 44
1, 33054, Note_on_c, 0, 64, 0
1, 33062, Note_on_c, 0, 69, 0
1, 33074, Note_on_c, 0, 72, 0
1, 33107, Note_on_c, 0, 79, 72
1, 33130, Note_on_c, 0, 79, 0
1, 33139, Note_on_c, 0, 57, 0
1, 33144, Note_on_c, 0, 60, 0
1, 33172, Note_on_c, 0, 79, 67
1, 33193, Note_on_c, 0, 79, 0
1, 33228, Note_on_c, 0, 77, 71
1, 33231, Control_c, 0, 64, 0
1, 33234, Note_on_c, 0, 56, 37
1, 33236, Note_on_c, 0, 68, 56
1, 33239, Note_on_c, 0, 71, 50
1, 33244, Note_on_c, 0, 59, 28
1, 33270, Note_on_c, 0, 77, 0
1, 33273, Control_c, 0, 64, 127
1, 33296, Note_on_c, 0, 71, 0
1, 33296, Note_on_c, 0, 62, 1
1, 33298, Note_on_c, 0, 77, 61
1, 33313, Note_on_c, 0, 68, 0
1, 33324, Note_on_c, 0, 59, 0
1, 33347, Note_on_c, 0, 62, 0
1, 33364, Note_on_c, 0, 56, 0
1, 33376, Note_on_c, 0, 77, 0
1, 33419, Note_on_c, 0, 65, 34
1, 33430, Note_on_c, 0, 65, 0
1, 33477, Note_on_c, 0, 72, 58
1, 33479, Note_on_c, 0, 69, 65
1, 33479, Note_on_c, 0, 65, 54
1, 33482, Control_c, 0, 64, 0
1, 33483, Note_on_c, 0, 58, 31
1, 33484, Note_on_c, 0, 62, 31
1, 33486, Note_on_c, 0, 60, 38
1, 33517, Note_on_c, 0, 72, 0
1, 33524, Control_c, 0, 64, 127
1, 33542, Note_on_c, 0, 72, 54
1, 33548, Note_on_c, 0, 60, 0
1, 33550, Note_on_c, 0, 62, 0
1, 33551, Note_on_c, 0, 69, 0
1, 33554, Note_on_c, 0, 58, 0
1, 33555, Note_on_c, 0, 65, 0
1, 33585, Note_on_c, 0, 72, 0
1, 33601, Note_on_c, 0, 65, 31
1, 33624, Note_on_c, 0, 65, 0
1, 33721, Note_on_c, 0, 66, 50
1, 33722, Note_on_c, 0, 58, 31
1, 33724, Control_c, 0, 64, 0
1, 33726, Note_on_c, 0, 64, 45
1, 33729, Note_on_c, 0, 52, 40
1, 33778, Control_c, 0, 64, 127
1, 33789, Note_on_c, 0, 58, 0
1, 33794, Note_on_c, 0, 52, 0
1, 33799, Note_on_c, 0, 67, 59
1, 33808, Note_on_c, 0, 64, 0
1, 33870, Note_on_c, 0, 67, 0
1, 33872, Note_on_c, 0, 48, 40
1, 33881, Note_on_c, 0, 66, 0
1, 33882, Note_on_c, 0, 48, 0
1, 33957, Note_on_c, 0, 64, 39
1, 33959, Note_on_c, 0, 57, 37
1, 33962, Note_on_c, 0, 48, 35
1, 33963, Control_c, 0, 64, 0
1, 33964, Note_on_c, 0, 41, 43
1, 34002, Note_on_c, 0, 57, 0
1, 34004, Control_c, 0, 64, 127
1, 34023, Note_on_c, 0, 64, 0
1, 34036, Note_on_c, 0, 41, 0
1, 34038, Note_on_c, 0, 48, 0
1, 34209, Note_on_c, 0, 60, 34
1, 34216, Note_on_c, 0, 64, 24
1, 34221, Note_on_c, 0, 57, 22
1, 34223, Control_c, 0, 64, 0
1, 34223, Note_on_c, 0, 53, 13
1, 34232, Note_on_c, 0, 64, 0
1, 34237, Note_on_c, 0, 60, 0
1, 34239, Note_on_c, 0, 71, 63
1, 34243, Note_on_c, 0, 57, 0
1, 34249, Note_on_c, 0, 71, 0
1, 34256, Note_on_c, 0, 72, 63
1, 34260, Note_on_c, 0, 53, 0
1, 34264, Note_on_c, 0, 72, 0
1, 34269, Note_on_c, 0, 71, 51
1, 34299, Note_on_c, 0, 70, 32
1, 34305, Note_on_c, 0, 71, 0
1, 34322, Note_on_c, 0, 70, 0
1, 34346, Note_on_c, 0, 71, 56
1, 34362, Note_on_c, 0, 71, 0
1, 34381, Note_on_c, 0, 72, 64
1, 34399, Note_on_c, 0, 72, 0
1, 34403, Control_c, 0, 64, 127
1, 34417, Note_on_c, 0, 73, 65
1, 34440, Note_on_c, 0, 73, 0
1, 34446, Control_c, 0, 64, 0
1, 34452, Note_on_c, 0, 57, 46
1, 34454, Note_on_c, 0, 47, 43
1, 34459, Note_on_c, 0, 74, 58
1, 34501, Note_on_c, 0, 74, 0
1, 34507, Note_on_c, 0, 62, 56
1, 34519, Control_c, 0, 64, 127
1, 34553, Note_on_c, 0, 62, 0
1, 34557, Note_on_c, 0, 47, 0
1, 34564, Note_on_c, 0, 69, 70
1, 34567, Note_on_c, 0, 57, 0
1, 34597, Note_on_c, 0, 69, 0
1, 34613, Note_on_c, 0, 76, 88
1, 34654, Note_on_c, 0, 76, 0
1, 34682, Note_on_c, 0, 77, 91
1, 34684, Note_on_c, 0, 56, 51
1, 34684, Note_on_c, 0, 67, 64
1, 34686, Note_on_c, 0, 62, 60
1, 34692, Control_c, 0, 64, 0
1, 34753, Note_on_c, 0, 76, 83
1, 34764, Note_on_c, 0, 77, 0
1, 34771, Control_c, 0, 64, 127
1, 34798, Note_on_c, 0, 62, 0
1, 34799, Note_on_c, 0, 67, 0
1, 34811, Note_on_c, 0, 71, 57
1, 34831, Note_on_c, 0, 56, 0
1, 34853, Note_on_c, 0, 76, 0
1, 34862, Note_on_c, 0, 71, 0
1, 34873, Note_on_c, 0, 74, 77
1, 34915, Note_on_c, 0, 74, 0
1, 34936, Control_c, 0, 64, 0
1, 34937, Note_on_c, 0, 64, 45
1, 34938, Note_on_c, 0, 74, 72
1, 34939, Note_on_c, 0, 60, 53
1, 34942, Note_on_c, 0, 57, 31
1, 34994, Note_on_c, 0, 64, 0
1, 34997, Note_on_c, 0, 60, 0
1, 35001, Note_on_c, 0, 74, 0
1, 35008, Note_on_c, 0, 72, 55
1, 35014, Note_on_c, 0, 57, 0
1, 35076, Note_on_c, 0, 73, 65
1, 35079, Note_on_c, 0, 72, 0
1, 35121, Note_on_c, 0, 73, 0
1, 35133, Note_on_c, 0, 75, 71
1, 35179, Note_on_c, 0, 75, 0
1, 35193, Note_on_c, 0, 45, 53
1, 35193, Note_on_c, 0, 76, 60
1, 35209, Control_c, 0, 64, 127
1, 35213, Note_on_c, 0, 45, 0
1, 35235, Note_on_c, 0, 76, 0
1, 35253, Note_on_c, 0, 81, 69
1, 35310, Note_on_c, 0, 81, 0
1, 35311, Note_on_c, 0, 82, 57
1, 35328, Note_on_c, 0, 82, 0
1, 35368, Note_on_c, 0, 84, 64
1, 35394, Note_on_c, 0, 84, 0
1, 35436, Note_on_c, 0, 65, 53
1, 35436, Note_on_c, 0, 96, 80
1, 35437, Note_on_c, 0, 61, 44
1, 35441, Note_on_c, 0, 55, 41
1, 35449, Control_c, 0, 64, 0
1, 35497, Note_on_c, 0, 96, 0
1, 35509, Control_c, 0, 64, 127
1, 35513, Note_on_c, 0, 94, 57
1, 35564, Note_on_c, 0, 94, 0
1, 35576, Note_on_c, 0, 90, 37
1, 35583, Note_on_c, 0, 65, 0
1, 35596, Note_on_c, 0, 55, 0
1, 35621, Note_on_c, 0, 90, 0
1, 35633, Note_on_c, 0, 61, 0
1, 35634, Note_on_c, 0, 93, 66
1, 35694, Note_on_c, 0, 88, 68
1, 35697, Note_on_c, 0, 61, 28
1, 35698, Note_on_c, 0, 64, 44
1, 35701, Note_on_c, 0, 88, 0
1, 35702, Note_on_c, 0, 55, 32
1, 35704, Control_c, 0, 64, 0
1, 35705, Note_on_c, 0, 93, 0
1, 35706, Note_on_c, 0, 64, 0
1, 35715, Note_on_c, 0, 55, 0
1, 35719, Note_on_c, 0, 61, 0
1, 35801, Control_c, 0, 64, 127
1, 35803, Note_on_c, 0, 55, 73
1, 35809, Control_c, 0, 64, 0
1, 35837, Control_c, 0, 64, 127
1, 35967, Note_on_c, 0, 38, 57
1, 35972, Control_c, 0, 64, 0
1, 36017, Control_c, 0, 64, 127
1, 36064, Note_on_c, 0, 53, 71
1, 36066, Note_on_c, 0, 55, 0
1, 36082, Note_on_c, 0, 38, 0
1, 36091, Note_on_c, 0, 53, 0
1, 36224, Note_on_c, 0, 66, 71
1, 36226, Note_on_c, 0, 62, 73
1, 36231, Note_on_c, 0, 54, 39
1, 36232, Note_on_c, 0, 60, 37
1, 36242, Control_c, 0, 64, 0
1, 36283, Control_c, 0, 64, 127
1, 36299, Note_on_c, 0, 62, 0
1, 36307, Note_on_c, 0, 69, 80
1, 36354, Note_on_c, 0, 66, 0
1, 36364, Note_on_c, 0, 69, 0
1, 36380, Note_on_c, 0, 60, 0
1, 36381, Note_on_c, 0, 54, 0
1, 36388, Note_on_c, 0, 72, 105
1, 36434, Note_on_c, 0, 72, 0
1, 36472, Note_on_c, 0, 76, 80
1, 36473, Note_on_c, 0, 65, 60
1, 36473, Note_on_c, 0, 69, 80
1, 36476, Note_on_c, 0, 57, 46
1, 36477, Note_on_c, 0, 60, 57
1, 36479, Control_c, 0, 64, 0
1, 36524, Control_c, 0, 64, 127
1, 36530, Note_on_c, 0, 76, 0
1, 36534, Note_on_c, 0, 69, 0
1, 36557, Note_on_c, 0, 79, 79
1, 36633, Note_on_c, 0, 65, 0
1, 36635, Note_on_c, 0, 60, 0
1, 36643, Note_on_c, 0, 57, 0
1, 36645, Note_on_c, 0, 79, 0
1, 36728, Control_c, 0, 64, 0
1, 36731, Note_on_c, 0, 64, 60
1, 36731, Note_on_c, 0, 59, 54
1, 36737, Note_on_c, 0, 53, 36
1, 36762, Control_c, 0, 64, 127
1, 36786, Note_on_c, 0, 64, 0
1, 36789, Note_on_c, 0, 59, 0
1, 36799, Note_on_c, 0, 53, 0
1, 36808, Note_on_c, 0, 83, 77
1, 36811, Note_on_c, 0, 71, 68
1, 36834, Note_on_c, 0, 71, 0
1, 36843, Note_on_c, 0, 83, 0
1, 36887, Note_on_c, 0, 86, 80
1, 36889, Note_on_c, 0, 74, 70
1, 36897, Note_on_c, 0, 74, 0
1, 36903, Note_on_c, 0, 86, 0
1, 36971, Note_on_c, 0, 67, 58
1, 36973, Note_on_c, 0, 40, 56
1, 36974, Note_on_c, 0, 79, 45
1, 36981, Control_c, 0, 64, 0
1, 36981, Note_on_c, 0, 55, 58
1, 37033, Control_c, 0, 64, 127
1, 37076, Note_on_c, 0, 40, 0
1, 37099, Note_on_c, 0, 55, 0
1, 37111, Note_on_c, 0, 67, 0
1, 37133, Note_on_c, 0, 67, 46
1, 37221, Note_on_c, 0, 62, 44
1, 37225, Note_on_c, 0, 79, 0
1, 37227, Note_on_c, 0, 59, 19
1, 37229, Note_on_c, 0, 52, 33
1, 37229, Note_on_c, 0, 55, 34
1, 37314, Note_on_c, 0, 67, 0
1, 37314, Note_on_c, 0, 69, 62
1, 37316, Control_c, 0, 64, 0
1, 37317, Note_on_c, 0, 55, 0
1, 37319, Note_on_c, 0, 52, 0
1, 37320, Note_on_c, 0, 59, 0
1, 37335, Note_on_c, 0, 69, 0
1, 37336, Note_on_c, 0, 62, 0
1, 37349, Note_on_c, 0, 70, 56
1, 37361, Note_on_c, 0, 70, 0
1, 37382, Note_on_c, 0, 72, 40
1, 37407, Note_on_c, 0, 72, 0
1, 37416, Note_on_c, 0, 75, 67
1, 37432, Note_on_c, 0, 75, 0
1, 37456, Note_on_c, 0, 79, 61
1, 37464, Note_on_c, 0, 66, 44
1, 37468, Note_on_c, 0, 55, 37
1, 37471, Note_on_c, 0, 61, 31
1, 37474, Note_on_c, 0, 79, 0
1, 37485, Note_on_c, 0, 66, 0
1, 37490, Note_on_c, 0, 55, 0
1, 37493, Note_on_c, 0, 82, 53
1, 37502, Note_on_c, 0, 61, 0
1, 37514, Note_on_c, 0, 82, 0
1, 37528, Note_on_c, 0, 87, 64
1, 37543, Note_on_c, 0, 87, 0
1, 37566, Note_on_c, 0, 91, 70
1, 37583, Note_on_c, 0, 91, 0
1, 37604, Note_on_c, 0, 94, 63
1, 37621, Note_on_c, 0, 94, 0
1, 37642, Note_on_c, 0, 99, 64
1, 37659, Note_on_c, 0, 99, 0
1, 37678, Note_on_c, 0, 103, 61
1, 37685, Note_on_c, 0, 103, 0
1, 37697, Note_on_c, 0, 55, 45
1, 37698, Note_on_c, 0, 45, 46
1, 37714, Note_on_c, 0, 55, 0
1, 37729, Note_on_c, 0, 45, 0
1, 37836, Note_on_c, 0, 45, 54
1, 37851, Control_c, 0, 64, 127
1, 37856, Note_on_c, 0, 45, 0
1, 37906, Control_c, 0, 64, 0
1, 37919, Note_on_c, 0, 38, 59
1, 37937, Control_c, 0, 64, 127
1, 37942, Note_on_c, 0, 38, 0
1, 38053, Note_on_c, 0, 68, 86
1, 38084, Note_on_c, 0, 68, 0
1, 38104, Note_on_c, 0, 69, 80
1, 38131, Note_on_c, 0, 69, 0
1, 38166, Note_on_c, 0, 72, 71
1, 38167, Note_on_c, 0, 65, 62
1, 38168, Note_on_c, 0, 60, 68
1, 38168, Note_on_c, 0, 69, 65
1, 38168, Control_c, 0, 64, 0
1, 38171, Note_on_c, 0, 57, 53
1, 38219, Note_on_c, 0, 72, 0
1, 38219, Control_c, 0, 64, 127
1, 38239, Note_on_c, 0, 69, 0
1, 38242, Note_on_c, 0, 57, 0
1, 38243, Note_on_c, 0, 72, 66
1, 38285, Note_on_c, 0, 60, 0
1, 38292, Note_on_c, 0, 65, 0
1, 38295, Note_on_c, 0, 72, 0
1, 38317, Note_on_c, 0, 69, 64
1, 38335, Note_on_c, 0, 69, 0
1, 38399, Note_on_c, 0, 71, 41
1, 38401, Note_on_c, 0, 59, 47
1, 38401, Note_on_c, 0, 67, 58
1, 38401, Note_on_c, 0, 63, 47
1, 38403, Note_on_c, 0, 43, 34
1, 38404, Note_on_c, 0, 53, 39
1, 38407, Control_c, 0, 64, 0
1, 38447, Control_c, 0, 64, 127
1, 38546, Note_on_c, 0, 71, 0
1, 38549, Note_on_c, 0, 43, 0
1, 38551, Note_on_c, 0, 53, 0
1, 38553, Note_on_c, 0, 67, 0
1, 38562, Note_on_c, 0, 59, 0
1, 38601, Note_on_c, 0, 63, 0
1, 38648, Note_on_c, 0, 63, 64
1, 38648, Note_on_c, 0, 68, 60
1, 38649, Note_on_c, 0, 59, 58
1, 38653, Note_on_c, 0, 47, 40
1, 38656, Note_on_c, 0, 53, 34
1, 38661, Control_c, 0, 64, 0
1, 38681, Note_on_c, 0, 47, 0
1, 38698, Control_c, 0, 64, 127
1, 38706, Note_on_c, 0, 53, 0
1, 38817, Note_on_c, 0, 43, 36
1, 38829, Note_on_c, 0, 59, 0
1, 38841, Note_on_c, 0, 68, 0
1, 38851, Note_on_c, 0, 63, 0
1, 38902, Note_on_c, 0, 36, 36
1, 38903, Note_on_c, 0, 57, 35
1, 38904, Note_on_c, 0, 67, 49
1, 38906, Control_c, 0, 64, 0
1, 38906, Note_on_c, 0, 62, 44
1, 38907, Note_on_c, 0, 52, 49
1, 38914, Note_on_c, 0, 43, 0
1, 38935, Note_on_c, 0, 57, 0
1, 38943, Control_c, 0, 64, 127
1, 38951, Note_on_c, 0, 62, 0
1, 38961, Note_on_c, 0, 67, 0
1, 38964, Note_on_c, 0, 36, 0
1, 38990, Note_on_c, 0, 52, 0
1, 39067, Note_on_c, 0, 74, 125
1, 39120, Note_on_c, 0, 74, 0
1, 39141, Note_on_c, 0, 74, 28
1, 39144, Note_on_c, 0, 75, 64
1, 39146, Control_c, 0, 64, 0
1, 39151, Note_on_c, 0, 67, 49
1, 39152, Note_on_c, 0, 62, 46
1, 39153, Note_on_c, 0, 74, 0
1, 39157, Note_on_c, 0, 56, 35
1, 39167, Note_on_c, 0, 75, 0
1, 39171, Note_on_c, 0, 76, 57
1, 39219, Note_on_c, 0, 76, 0
1, 39228, Note_on_c, 0, 79, 75
1, 39231, Control_c, 0, 64, 127
1, 39255, Note_on_c, 0, 79, 0
1, 39292, Note_on_c, 0, 67, 0
1, 39298, Note_on_c, 0, 81, 91
1, 39303, Control_c, 0, 64, 0
1, 39307, Note_on_c, 0, 62, 0
1, 39311, Control_c, 0, 64, 127
1, 39328, Note_on_c, 0, 81, 0
1, 39343, Note_on_c, 0, 56, 0
1, 39347, Note_on_c, 0, 79, 60
1, 39363, Note_on_c, 0, 79, 0
1, 39386, Control_c, 0, 64, 0
1, 39394, Note_on_c, 0, 66, 49
1, 39396, Note_on_c, 0, 55, 49
1, 39399, Note_on_c, 0, 61, 42
1, 39399, Note_on_c, 0, 70, 68
1, 39399, Note_on_c, 0, 82, 67
1, 39434, Note_on_c, 0, 82, 0
1, 39439, Note_on_c, 0, 70, 0
1, 39462, Note_on_c, 0, 84, 56
1, 39467, Note_on_c, 0, 72, 51
1, 39479, Note_on_c, 0, 84, 0
1, 39485, Note_on_c, 0, 72, 0
1, 39519, Note_on_c, 0, 66, 0
1, 39534, Note_on_c, 0, 81, 55
1, 39539, Note_on_c, 0, 55, 0
1, 39544, Note_on_c, 0, 69, 19
1, 39544, Note_on_c, 0, 76, 34
1, 39549, Note_on_c, 0, 73, 23
1, 39569, Note_on_c, 0, 69, 0
1, 39574, Note_on_c, 0, 73, 0
1, 39575, Note_on_c, 0, 81, 0
1, 39576, Note_on_c, 0, 61, 0
1, 39579, Note_on_c, 0, 76, 0
1, 39587, Control_c, 0, 64, 127
1, 39616, Control_c, 0, 64, 0
1, 39621, Note_on_c, 0, 64, 58
1, 39622, Note_on_c, 0, 61, 46
1, 39626, Note_on_c, 0, 55, 47
1, 39628, Note_on_c, 0, 64, 0
1, 39630, Note_on_c, 0, 61, 0
1, 39637, Note_on_c, 0, 55, 0
1, 39701, Note_on_c, 0, 55, 78
1, 39702, Note_on_c, 0, 39, 62
1, 39726, Control_c, 0, 64, 127
1, 39738, Note_on_c, 0, 40, 24
1, 39783, Note_on_c, 0, 40, 0
1, 39788, Note_on_c, 0, 39, 0
1, 39843, Note_on_c, 0, 55, 0
1, 39849, Control_c, 0, 64, 0
1, 39858, Note_on_c, 0, 38, 47
1, 39861, Note_on_c, 0, 54, 39
1, 39892, Control_c, 0, 64, 127
1, 39921, Note_on_c, 0, 54, 0
1, 39931, Note_on_c, 0, 38, 0
1, 40099, Note_on_c, 0, 54, 28
1, 40099, Note_on_c, 0, 64, 36
1, 40103, Note_on_c, 0, 60, 37
1, 40106, Control_c, 0, 64, 0
1, 40107, Note_on_c, 0, 57, 43
1, 40122, Control_c, 0, 64, 127
1, 40145, Note_on_c, 0, 64, 0
1, 40151, Note_on_c, 0, 60, 0
1, 40153, Note_on_c, 0, 57, 0
1, 40169, Note_on_c, 0, 54, 0
1, 40172, Note_on_c, 0, 71, 72
1, 40172, Note_on_c, 0, 74, 78
1, 40209, Note_on_c, 0, 71, 0
1, 40225, Note_on_c, 0, 74, 0
1, 40249, Note_on_c, 0, 76, 80
1, 40251, Note_on_c, 0, 72, 84
1, 40287, Note_on_c, 0, 72, 0
1, 40299, Note_on_c, 0, 76, 0
1, 40328, Control_c, 0, 64, 0
1, 40329, Note_on_c, 0, 43, 32
1, 40333, Note_on_c, 0, 74, 70
1, 40333, Note_on_c, 0, 77, 69
1, 40336, Note_on_c, 0, 65, 62
1, 40337, Note_on_c, 0, 59, 58
1, 40376, Control_c, 0, 64, 127
1, 40393, Note_on_c, 0, 65, 0
1, 40398, Note_on_c, 0, 74, 0
1, 40406, Note_on_c, 0, 77, 0
1, 40412, Note_on_c, 0, 43, 0
1, 40418, Note_on_c, 0, 59, 0
1, 40494, Note_on_c, 0, 75, 70
1, 40496, Note_on_c, 0, 79, 74
1, 40498, Note_on_c, 0, 67, 63
1, 40509, Note_on_c, 0, 75, 0
1, 40511, Note_on_c, 0, 76, 54
1, 40526, Note_on_c, 0, 76, 0
1, 40529, Note_on_c, 0, 79, 0
1, 40530, Note_on_c, 0, 67, 0
1, 40582, Note_on_c, 0, 76, 61
1, 40582, Note_on_c, 0, 56, 49
1, 40584, Note_on_c, 0, 62, 44
1, 40586, Note_on_c, 0, 65, 46
1, 40587, Note_on_c, 0, 68, 55
1, 40588, Note_on_c, 0, 71, 52
1, 40588, Control_c, 0, 64, 0
1, 40633, Control_c, 0, 64, 127
1, 40660, Note_on_c, 0, 76, 0
1, 40672, Note_on_c, 0, 56, 0
1, 40692, Note_on_c, 0, 62, 0
1, 40697, Note_on_c, 0, 65, 0
1, 40700, Note_on_c, 0, 71, 0
1, 40704, Note_on_c, 0, 68, 0
1, 40737, Note_on_c, 0, 68, 34
1, 40738, Note_on_c, 0, 74, 66
1, 40769, Note_on_c, 0, 68, 0
1, 40785, Note_on_c, 0, 74, 0
1, 40818, Note_on_c, 0, 64, 37
1, 40822, Note_on_c, 0, 69, 51
1, 40822, Control_c, 0, 64, 0
1, 40823, Note_on_c, 0, 72, 50
1, 40823, Note_on_c, 0, 60, 38
1, 40827, Note_on_c, 0, 57, 27
1, 40866, Note_on_c, 0, 72, 0
1, 40869, Note_on_c, 0, 69, 0
1, 40884, Control_c, 0, 64, 127
1, 40904, Note_on_c, 0, 72, 64
1, 40904, Note_on_c, 0, 69, 64
1, 40955, Note_on_c, 0, 69, 0
1, 40957, Note_on_c, 0, 72, 0
1, 40959, Note_on_c, 0, 60, 0
1, 40960, Note_on_c, 0, 64, 0
1, 40983, Note_on_c, 0, 71, 60
1, 41014, Note_on_c, 0, 71, 0
1, 41066, Note_on_c, 0, 72, 64
1, 41068, Note_on_c, 0, 69, 74
1, 41100, Note_on_c, 0, 57, 0
1, 41121, Note_on_c, 0, 69, 0
1, 41124, Note_on_c, 0, 72, 0
1, 41209, Control_c, 0, 64, 0
1, 41219, Note_on_c, 0, 44, 47
1, 41224, Note_on_c, 0, 65, 48
1, 41224, Note_on_c, 0, 54, 30
1, 41228, Note_on_c, 0, 60, 40
1, 41232, Control_c, 0, 64, 127
1, 41235, Note_on_c, 0, 65, 0
1, 41245, Note_on_c, 0, 60, 0
1, 41267, Note_on_c, 0, 63, 36
1, 41280, Note_on_c, 0, 63, 0
1, 41286, Note_on_c, 0, 54, 0
1, 41300, Note_on_c, 0, 44, 0
1, 41314, Control_c, 0, 64, 0
1, 41317, Note_on_c, 0, 58, 37
1, 41318, Note_on_c, 0, 62, 55
1, 41319, Note_on_c, 0, 53, 31
1, 41322, Note_on_c, 0, 43, 50
1, 41337, Note_on_c, 0, 53, 0
1, 41348, Control_c, 0, 64, 127
1, 41349, Note_on_c, 0, 58, 0
1, 41353, Note_on_c, 0, 62, 0
1, 41370, Note_on_c, 0, 43, 0
1, 41406, Note_on_c, 0, 74, 59
1, 41411, Note_on_c, 0, 72, 54
1, 41418, Note_on_c, 0, 72, 0
1, 41444, Note_on_c, 0, 74, 0
1, 41478, Note_on_c, 0, 69, 74
1, 41481, Note_on_c, 0, 65, 61
1, 41504, Note_on_c, 0, 65, 0
1, 41509, Note_on_c, 0, 69, 0
1, 41561, Note_on_c, 0, 68, 65
1, 41563, Note_on_c, 0, 64, 62
1, 41566, Note_on_c, 0, 70, 62
1, 41568, Note_on_c, 0, 58, 55
1, 41571, Control_c, 0, 64, 0
1, 41614, Control_c, 0, 64, 127
1, 41644, Note_on_c, 0, 72, 62
1, 41655, Note_on_c, 0, 58, 0
1, 41709, Note_on_c, 0, 64, 0
1, 41713, Note_on_c, 0, 70, 0
1, 41728, Note_on_c, 0, 68, 0
1, 41733, Note_on_c, 0, 48, 43
1, 41759, Note_on_c, 0, 48, 0
1, 41784, Note_on_c, 0, 72, 0
1, 41819, Note_on_c, 0, 69, 51
1, 41822, Note_on_c, 0, 41, 29
1, 41824, Control_c, 0, 64, 0
1, 41824, Note_on_c, 0, 67, 40
1, 41831, Note_on_c, 0, 62, 13
1, 41862, Note_on_c, 0, 57, 1
1, 41866, Control_c, 0, 64, 127
1, 41871, Note_on_c, 0, 62, 0
1, 41899, Note_on_c, 0, 41, 0
1, 41916, Note_on_c, 0, 67, 0
1, 41918, Note_on_c, 0, 57, 0
1, 41939, Note_on_c, 0, 69, 0
1, 41979, Note_on_c, 0, 71, 74
1, 41984, Note_on_c, 0, 67, 72
1, 41988, Note_on_c, 0, 62, 64
1, 42068, Note_on_c, 0, 60, 42
1, 42068, Note_on_c, 0, 57, 50
1, 42071, Note_on_c, 0, 53, 40
1, 42083, Note_on_c, 0, 62, 0
1, 42101, Note_on_c, 0, 67, 0
1, 42120, Note_on_c, 0, 71, 0
1, 42128, Note_on_c, 0, 60, 0
1, 42147, Note_on_c, 0, 72, 64
1, 42149, Note_on_c, 0, 57, 0
1, 42149, Note_on_c, 0, 69, 62
1, 42149, Note_on_c, 0, 64, 65
1, 42159, Note_on_c, 0, 53, 0
1, 42187, Note_on_c, 0, 64, 0
1, 42202, Note_on_c, 0, 72, 0
1, 42205, Note_on_c, 0, 69, 0
1, 42223, Note_on_c, 0, 47, 70
1, 42224, Control_c, 0, 64, 0
1, 42238, Control_c, 0, 64, 127
1, 42245, Note_on_c, 0, 47, 0
1, 42308, Note_on_c, 0, 74, 81
1, 42308, Note_on_c, 0, 69, 84
1, 42309, Note_on_c, 0, 62, 80
1, 42316, Note_on_c, 0, 59, 79
1, 42327, Control_c, 0, 64, 0
1, 42362, Control_c, 0, 64, 127
1, 42379, Note_on_c, 0, 74, 0
1, 42382, Note_on_c, 0, 62, 0
1, 42401, Note_on_c, 0, 76, 80
1, 42471, Note_on_c, 0, 76, 0
1, 42480, Note_on_c, 0, 69, 0
1, 42513, Note_on_c, 0, 59, 0
1, 42569, Note_on_c, 0, 68, 51
1, 42571, Note_on_c, 0, 62, 42
1, 42572, Control_c, 0, 64, 0
1, 42572, Note_on_c, 0, 72, 37
1, 42574, Note_on_c, 0, 56, 35
1, 42616, Control_c, 0, 64, 127
1, 42620, Note_on_c, 0, 72, 0
1, 42659, Note_on_c, 0, 68, 0
1, 42679, Note_on_c, 0, 62, 0
1, 42736, Note_on_c, 0, 56, 0
1, 42737, Note_on_c, 0, 71, 55
1, 42759, Note_on_c, 0, 71, 0
1, 42977, Note_on_c, 0, 69, 62
1, 42982, Note_on_c, 0, 64, 73
1, 42986, Note_on_c, 0, 61, 71
1, 42986, Note_on_c, 0, 67, 50
1, 42987, Note_on_c, 0, 58, 59
1, 42989, Control_c, 0, 64, 0
1, 43041, Control_c, 0, 64, 127
1, 43074, Note_on_c, 0, 69, 0
1, 43083, Note_on_c, 0, 67, 0
1, 43106, Note_on_c, 0, 69, 74
1, 43181, Note_on_c, 0, 69, 0
1, 43224, Note_on_c, 0, 69, 65
1, 43234, Note_on_c, 0, 64, 0
1, 43247, Note_on_c, 0, 58, 0
1, 43252, Note_on_c, 0, 69, 0
1, 43253, Note_on_c, 0, 61, 0
1, 43338, Note_on_c, 0, 69, 34
1, 43343, Note_on_c, 0, 61, 50
1, 43346, Note_on_c, 0, 55, 62
1, 43346, Note_on_c, 0, 39, 37
1, 43347, Note_on_c, 0, 57, 55
1, 43348, Note_on_c, 0, 46, 40
1, 43353, Control_c, 0, 64, 0
1, 43422, Control_c, 0, 64, 127
1, 43503, Note_on_c, 0, 55, 0
1, 43504, Note_on_c, 0, 57, 0
1, 43553, Note_on_c, 0, 61, 0
1, 43599, Note_on_c, 0, 61, 36
1, 43607, Note_on_c, 0, 55, 41
1, 43608, Note_on_c, 0, 57, 34
1, 43612, Note_on_c, 0, 51, 18
1, 43714, Note_on_c, 0, 51, 0
1, 43729, Note_on_c, 0, 39, 0
1, 43733, Note_on_c, 0, 55, 0
1, 43738, Note_on_c, 0, 57, 0
1, 43758, Note_on_c, 0, 46, 0
1, 43769, Note_on_c, 0, 69, 0
1, 43832, Note_on_c, 0, 61, 0
1, 43863, Note_on_c, 0, 60, 22
1, 43864, Note_on_c, 0, 38, 40
1, 43866, Note_on_c, 0, 50, 36
1, 43869, Control_c, 0, 64, 0
1, 43879, Note_on_c, 0, 60, 0
1, 43907, Control_c, 0, 64, 127
1, 43954, Note_on_c, 0, 38, 0
1, 43969, Note_on_c, 0, 50, 0
1, 44117, Note_on_c, 0, 79, 79
1, 44126, Note_on_c, 0, 64, 42
1, 44128, Note_on_c, 0, 60, 31
1, 44129, Note_on_c, 0, 57, 36
1, 44131, Note_on_c, 0, 67, 66
1, 44131, Note_on_c, 0, 53, 26
1, 44184, Note_on_c, 0, 79, 0
1, 44199, Note_on_c, 0, 67, 0
1, 44211, Note_on_c, 0, 60, 0
1, 44213, Note_on_c, 0, 64, 0
1, 44216, Note_on_c, 0, 57, 0
1, 44218, Note_on_c, 0, 53, 0
1, 44272, Note_on_c, 0, 81, 69
1, 44282, Note_on_c, 0, 69, 66
1, 44313, Note_on_c, 0, 81, 0
1, 44322, Note_on_c, 0, 69, 0
1, 44352, Control_c, 0, 64, 0
1, 44361, Note_on_c, 0, 59, 46
1, 44361, Note_on_c, 0, 64, 33
1, 44363, Note_on_c, 0, 83, 58
1, 44366, Note_on_c, 0, 53, 24
1, 44367, Note_on_c, 0, 71, 41
1, 44378, Note_on_c, 0, 64, 0
1, 44379, Note_on_c, 0, 71, 0
1, 44383, Note_on_c, 0, 59, 0
1, 44385, Note_on_c, 0, 83, 0
1, 44394, Note_on_c, 0, 53, 0
1, 44432, Control_c, 0, 64, 127
1, 44506, Note_on_c, 0, 43, 34
1, 44514, Note_on_c, 0, 84, 71
1, 44516, Note_on_c, 0, 43, 0
1, 44517, Note_on_c, 0, 72, 51
1, 44532, Note_on_c, 0, 72, 0
1, 44536, Note_on_c, 0, 84, 0
1, 44597, Control_c, 0, 64, 0
1, 44599, Note_on_c, 0, 86, 62
1, 44602, Note_on_c, 0, 64, 40
1, 44603, Note_on_c, 0, 59, 40
1, 44606, Note_on_c, 0, 74, 55
1, 44613, Note_on_c, 0, 53, 24
1, 44621, Control_c, 0, 64, 127
1, 44665, Note_on_c, 0, 86, 0
1, 44672, Note_on_c, 0, 74, 0
1, 44689, Note_on_c, 0, 59, 0
1, 44693, Note_on_c, 0, 64, 0
1, 44714, Note_on_c, 0, 53, 0
1, 44747, Note_on_c, 0, 89, 57
1, 44749, Note_on_c, 0, 88, 55
1, 44757, Note_on_c, 0, 88, 0
1, 44763, Note_on_c, 0, 89, 0
1, 44822, Control_c, 0, 64, 0
1, 44829, Note_on_c, 0, 84, 58
1, 44833, Note_on_c, 0, 62, 26
1, 44833, Note_on_c, 0, 72, 35
1, 44833, Note_on_c, 0, 57, 33
1, 44834, Note_on_c, 0, 52, 32
1, 44834, Note_on_c, 0, 79, 41
1, 44854, Control_c, 0, 64, 127
1, 44885, Note_on_c, 0, 84, 0
1, 44890, Note_on_c, 0, 79, 0
1, 44911, Note_on_c, 0, 72, 0
1, 45006, Note_on_c, 0, 62, 0
1, 45021, Note_on_c, 0, 57, 0
1, 45066, Note_on_c, 0, 75, 86
1, 45076, Control_c, 0, 64, 0
1, 45076, Note_on_c, 0, 57, 39
1, 45076, Note_on_c, 0, 76, 84
1, 45077, Note_on_c, 0, 75, 0
1, 45086, Note_on_c, 0, 57, 0
1, 45102, Note_on_c, 0, 52, 0
1, 45122, Note_on_c, 0, 76, 0
1, 45131, Note_on_c, 0, 77, 80
1, 45164, Note_on_c, 0, 77, 0
1, 45183, Note_on_c, 0, 76, 75
1, 45204, Note_on_c, 0, 76, 0
1, 45218, Note_on_c, 0, 77, 66
1, 45248, Note_on_c, 0, 76, 58
1, 45250, Note_on_c, 0, 77, 0
1, 45251, Control_c, 0, 64, 127
1, 45270, Note_on_c, 0, 76, 0
1, 45271, Note_on_c, 0, 72, 57
1, 45294, Note_on_c, 0, 72, 0
1, 45304, Note_on_c, 0, 67, 53
1, 45307, Control_c, 0, 64, 0
1, 45314, Note_on_c, 0, 55, 36
1, 45330, Note_on_c, 0, 67, 0
1, 45352, Note_on_c, 0, 65, 55
1, 45377, Note_on_c, 0, 65, 0
1, 45419, Note_on_c, 0, 63, 44
1, 45441, Note_on_c, 0, 63, 0
1, 45462, Note_on_c, 0, 64, 69
1, 45482, Note_on_c, 0, 64, 0
1, 45482, Note_on_c, 0, 55, 0
1, 45489, Control_c, 0, 64, 127
1, 45504, Note_on_c, 0, 60, 57
1, 45531, Note_on_c, 0, 60, 0
1, 45546, Note_on_c, 0, 43, 41
1, 45547, Control_c, 0, 64, 0
1, 45551, Note_on_c, 0, 55, 49
1, 45576, Note_on_c, 0, 55, 0
1, 45577, Note_on_c, 0, 43, 0
1, 45602, Note_on_c, 0, 53, 22
1, 45618, Note_on_c, 0, 53, 0
1, 45646, Note_on_c, 0, 51, 49
1, 45683, Control_c, 0, 64, 127
1, 45688, Note_on_c, 0, 51, 0
1, 45699, Note_on_c, 0, 52, 60
1, 45749, Note_on_c, 0, 52, 0
1, 45759, Note_on_c, 0, 36, 63
1, 45761, Control_c, 0, 64, 0
1, 45783, Control_c, 0, 64, 127
1, 45842, Note_on_c, 0, 74, 71
1, 45848, Note_on_c, 0, 75, 63
1, 45857, Control_c, 0, 64, 0
1, 45859, Note_on_c, 0, 76, 68
1, 45860, Note_on_c, 0, 75, 0
1, 45868, Note_on_c, 0, 74, 0
1, 45905, Note_on_c, 0, 76, 0
1, 45909, Note_on_c, 0, 84, 84
1, 45926, Control_c, 0, 64, 127
1, 45931, Note_on_c, 0, 84, 0
1, 45976, Note_on_c, 0, 73, 64
1, 45983, Note_on_c, 0, 52, 46
1, 45989, Note_on_c, 0, 36, 0
1, 45989, Control_c, 0, 64, 0
1, 45991, Note_on_c, 0, 73, 0
1, 45994, Note_on_c, 0, 74, 44
1, 46020, Note_on_c, 0, 52, 0
1, 46063, Control_c, 0, 64, 127
1, 46066, Note_on_c, 0, 74, 0
1, 46127, Note_on_c, 0, 72, 54
1, 46153, Note_on_c, 0, 72, 0
1, 46206, Note_on_c, 0, 81, 64
1, 46209, Note_on_c, 0, 70, 37
1, 46209, Note_on_c, 0, 76, 58
1, 46211, Control_c, 0, 64, 0
1, 46212, Note_on_c, 0, 58, 38
1, 46216, Note_on_c, 0, 64, 28
1, 46251, Control_c, 0, 64, 127
1, 46279, Note_on_c, 0, 64, 0
1, 46284, Note_on_c, 0, 81, 0
1, 46284, Note_on_c, 0, 58, 0
1, 46294, Note_on_c, 0, 76, 0
1, 46301, Note_on_c, 0, 70, 0
1, 46351, Note_on_c, 0, 48, 51
1, 46359, Note_on_c, 0, 48, 0
1, 46438, Note_on_c, 0, 63, 59
1, 46442, Note_on_c, 0, 75, 57
1, 46442, Note_on_c, 0, 72, 66
1, 46443, Note_on_c, 0, 68, 60
1, 46444, Note_on_c, 0, 64, 68
1, 46446, Control_c, 0, 64, 0
1, 46486, Control_c, 0, 64, 127
1, 46488, Note_on_c, 0, 63, 0
1, 46579, Note_on_c, 0, 72, 0
1, 46583, Note_on_c, 0, 75, 0
1, 46589, Note_on_c, 0, 48, 34
1, 46590, Note_on_c, 0, 64, 0
1, 46591, Note_on_c, 0, 68, 0
1, 46636, Note_on_c, 0, 48, 0
1, 46671, Control_c, 0, 64, 0
1, 46674, Note_on_c, 0, 69, 55
1, 46678, Note_on_c, 0, 41, 35
1, 46679, Note_on_c, 0, 65, 50
1, 46684, Note_on_c, 0, 60, 20
1, 46699, Note_on_c, 0, 60, 0
1, 46705, Note_on_c, 0, 65, 0
1, 46707, Control_c, 0, 64, 127
1, 46716, Control_c, 0, 64, 0
1, 46717, Note_on_c, 0, 69, 0
1, 46795, Note_on_c, 0, 41, 0
1, 46824, Note_on_c, 0, 77, 68
1, 46826, Note_on_c, 0, 65, 62
1, 46844, Note_on_c, 0, 65, 0
1, 46851, Note_on_c, 0, 77, 0
1, 46873, Control_c, 0, 64, 127
1, 46881, Note_on_c, 0, 79, 69
1, 46883, Note_on_c, 0, 67, 61
1, 46909, Note_on_c, 0, 67, 0
1, 46912, Note_on_c, 0, 79, 0
1, 46918, Control_c, 0, 64, 0
1, 46918, Note_on_c, 0, 60, 39
1, 46918, Note_on_c, 0, 62, 35
1, 46921, Note_on_c, 0, 53, 30
1, 46924, Note_on_c, 0, 57, 30
1, 46931, Note_on_c, 0, 62, 0
1, 46944, Note_on_c, 0, 60, 0
1, 46946, Note_on_c, 0, 57, 0
1, 46961, Note_on_c, 0, 81, 66
1, 46963, Note_on_c, 0, 69, 61
1, 46982, Note_on_c, 0, 53, 0
1, 46988, Note_on_c, 0, 69, 0
1, 46992, Note_on_c, 0, 81, 0
1, 47077, Note_on_c, 0, 82, 67
1, 47078, Note_on_c, 0, 70, 73
1, 47107, Control_c, 0, 64, 127
1, 47125, Note_on_c, 0, 82, 0
1, 47138, Note_on_c, 0, 70, 0
1, 47164, Control_c, 0, 64, 0
1, 47229, Note_on_c, 0, 81, 69
1, 47231, Note_on_c, 0, 70, 48
1, 47232, Note_on_c, 0, 73, 49
1, 47233, Note_on_c, 0, 76, 57
1, 47238, Note_on_c, 0, 45, 64
1, 47246, Note_on_c, 0, 45, 0
1, 47252, Control_c, 0, 64, 127
1, 47304, Note_on_c, 0, 58, 55
1, 47309, Note_on_c, 0, 81, 0
1, 47319, Note_on_c, 0, 70, 0
1, 47320, Note_on_c, 0, 76, 0
1, 47335, Note_on_c, 0, 73, 0
1, 47384, Note_on_c, 0, 64, 66
1, 47387, Note_on_c, 0, 73, 36
1, 47387, Note_on_c, 0, 67, 39
1, 47387, Note_on_c, 0, 74, 64
1, 47407, Note_on_c, 0, 74, 0
1, 47457, Note_on_c, 0, 79, 74
1, 47463, Note_on_c, 0, 61, 64
1, 47466, Note_on_c, 0, 64, 0
1, 47474, Note_on_c, 0, 58, 0
1, 47491, Note_on_c, 0, 61, 0
1, 47512, Note_on_c, 0, 79, 0
1, 47524, Note_on_c, 0, 51, 59
1, 47533, Note_on_c, 0, 67, 0
1, 47538, Note_on_c, 0, 73, 0
1, 47569, Note_on_c, 0, 51, 0
1, 47604, Note_on_c, 0, 57, 24
1, 47606, Note_on_c, 0, 77, 54
1, 47606, Note_on_c, 0, 69, 43
1, 47608, Note_on_c, 0, 62, 32
1, 47609, Note_on_c, 0, 50, 41
1, 47611, Note_on_c, 0, 65, 36
1, 47614, Control_c, 0, 64, 0
1, 47654, Control_c, 0, 64, 127
1, 47664, Note_on_c, 0, 65, 0
1, 47676, Note_on_c, 0, 50, 0
1, 47678, Note_on_c, 0, 62, 0
1, 47687, Note_on_c, 0, 65, 50
1, 47742, Note_on_c, 0, 69, 0
1, 47750, Note_on_c, 0, 57, 0
1, 47756, Note_on_c, 0, 61, 91
1, 47807, Note_on_c, 0, 65, 0
1, 47837, Note_on_c, 0, 69, 57
1, 47839, Note_on_c, 0, 65, 53
1, 47960, Note_on_c, 0, 65, 0
1, 47963, Note_on_c, 0, 69, 0
1, 47974, Note_on_c, 0, 77, 0
1, 47996, Note_on_c, 0, 61, 0
1, 48082, Note_on_c, 0, 75, 38
1, 48083, Note_on_c, 0, 60, 53
1, 48083, Note_on_c, 0, 77, 44
1, 48084, Note_on_c, 0, 67, 33
1, 48086, Note_on_c, 0, 70, 39
1, 48096, Control_c, 0, 64, 0
1, 48117, Control_c, 0, 64, 127
1, 48144, Note_on_c, 0, 77, 0
1, 48150, Note_on_c, 0, 60, 0
1, 48155, Note_on_c, 0, 75, 0
1, 48159, Note_on_c, 0, 67, 0
1, 48161, Note_on_c, 0, 70, 0
1, 48337, Note_on_c, 0, 57, 51
1, 48338, Note_on_c, 0, 65, 57
1, 48339, Note_on_c, 0, 47, 47
1, 48339, Note_on_c, 0, 63, 49
1, 48339, Note_on_c, 0, 54, 34
1, 48341, Note_on_c, 0, 61, 50
1, 48341, Control_c, 0, 64, 0
1, 48403, Control_c, 0, 64, 127
1, 48499, Note_on_c, 0, 57, 0
1, 48502, Note_on_c, 0, 47, 0
1, 48515, Note_on_c, 0, 54, 0
1, 48530, Note_on_c, 0, 63, 0
1, 48543, Note_on_c, 0, 65, 0
1, 48574, Note_on_c, 0, 61, 0
1, 48592, Note_on_c, 0, 56, 34
1, 48598, Note_on_c, 0, 46, 31
1, 48599, Note_on_c, 0, 62, 40
1, 48602, Note_on_c, 0, 60, 38
1, 48603, Control_c, 0, 64, 0
1, 48648, Control_c, 0, 64, 127
1, 48652, Note_on_c, 0, 56, 0
1, 48653, Note_on_c, 0, 60, 0
1, 48660, Note_on_c, 0, 62, 0
1, 48680, Note_on_c, 0, 46, 0
1, 48761, Note_on_c, 0, 77, 75
1, 48823, Note_on_c, 0, 77, 0
1, 48839, Note_on_c, 0, 67, 44
1, 48839, Note_on_c, 0, 56, 33
1, 48843, Note_on_c, 0, 79, 75
1, 48844, Note_on_c, 0, 62, 39
1, 48857, Control_c, 0, 64, 0
1, 48888, Control_c, 0, 64, 127
1, 48889, Note_on_c, 0, 79, 0
1, 48916, Note_on_c, 0, 81, 77
1, 48954, Note_on_c, 0, 81, 0
1, 48989, Note_on_c, 0, 67, 0
1, 48989, Note_on_c, 0, 82, 80
1, 48994, Note_on_c, 0, 62, 0
1, 49026, Note_on_c, 0, 56, 0
1, 49056, Note_on_c, 0, 82, 0
1, 49066, Note_on_c, 0, 81, 68
1, 49066, Control_c, 0, 64, 0
1, 49067, Note_on_c, 0, 66, 40
1, 49071, Note_on_c, 0, 55, 36
1, 49072, Note_on_c, 0, 61, 35
1, 49108, Control_c, 0, 64, 127
1, 49129, Note_on_c, 0, 66, 0
1, 49139, Note_on_c, 0, 55, 0
1, 49148, Note_on_c, 0, 61, 0
1, 49162, Note_on_c, 0, 81, 0
1, 49221, Note_on_c, 0, 45, 30
1, 49229, Note_on_c, 0, 45, 0
1, 49308, Note_on_c, 0, 76, 59
1, 49308, Note_on_c, 0, 73, 64
1, 49309, Note_on_c, 0, 70, 59
1, 49382, Note_on_c, 0, 79, 75
1, 49387, Control_c, 0, 64, 0
1, 49388, Note_on_c, 0, 64, 55
1, 49464, Control_c, 0, 64, 127
1, 49498, Note_on_c, 0, 76, 0
1, 49507, Note_on_c, 0, 70, 0
1, 49508, Note_on_c, 0, 64, 0
1, 49511, Note_on_c, 0, 73, 0
1, 49519, Note_on_c, 0, 79, 0
1, 49544, Note_on_c, 0, 74, 41
1, 49546, Note_on_c, 0, 62, 40
1, 49546, Note_on_c, 0, 77, 48
1, 49547, Control_c, 0, 64, 0
1, 49547, Note_on_c, 0, 69, 35
1, 49578, Control_c, 0, 64, 127
1, 49598, Note_on_c, 0, 69, 0
1, 49621, Note_on_c, 0, 74, 0
1, 49628, Note_on_c, 0, 69, 60
1, 49633, Note_on_c, 0, 77, 0
1, 49673, Note_on_c, 0, 69, 0
1, 49694, Note_on_c, 0, 77, 60
1, 49694, Note_on_c, 0, 79, 52
1, 49712, Note_on_c, 0, 79, 0
1, 49726, Note_on_c, 0, 77, 0
1, 49769, Note_on_c, 0, 62, 0
1, 49776, Note_on_c, 0, 76, 66
1, 49781, Note_on_c, 0, 69, 68
1, 49781, Note_on_c, 0, 61, 51
1, 49782, Note_on_c, 0, 65, 52
1, 49792, Control_c, 0, 64, 0
1, 49827, Control_c, 0, 64, 127
1, 49843, Note_on_c, 0, 69, 0
1, 49855, Note_on_c, 0, 65, 0
1, 49861, Note_on_c, 0, 69, 67
1, 49934, Note_on_c, 0, 76, 0
1, 49936, Note_on_c, 0, 69, 0
1, 49941, Note_on_c, 0, 65, 33
1, 49951, Note_on_c, 0, 65, 0
1, 50018, Note_on_c, 0, 74, 73
1, 50023, Note_on_c, 0, 67, 61
1, 50027, Note_on_c, 0, 70, 50
1, 50027, Note_on_c, 0, 60, 45
1, 50027, Note_on_c, 0, 63, 40
1, 50032, Control_c, 0, 64, 0
1, 50037, Note_on_c, 0, 61, 0
1, 50069, Control_c, 0, 64, 127
1, 50094, Note_on_c, 0, 74, 0
1, 50106, Note_on_c, 0, 72, 66
1, 50126, Note_on_c, 0, 67, 0
1, 50159, Note_on_c, 0, 70, 0
1, 50179, Note_on_c, 0, 67, 59
1, 50209, Note_on_c, 0, 67, 0
1, 50220, Note_on_c, 0, 60, 0
1, 50223, Note_on_c, 0, 63, 0
1, 50247, Note_on_c, 0, 72, 0
1, 50258, Note_on_c, 0, 66, 51
1, 50258, Control_c, 0, 64, 0
1, 50259, Note_on_c, 0, 69, 55
1, 50261, Note_on_c, 0, 62, 38
1, 50297, Control_c, 0, 64, 127
1, 50326, Note_on_c, 0, 69, 0
1, 50328, Control_c, 0, 64, 0
1, 50329, Note_on_c, 0, 47, 62
1, 50338, Note_on_c, 0, 66, 0
1, 50343, Note_on_c, 0, 62, 0
1, 50359, Control_c, 0, 64, 127
1, 50440, Note_on_c, 0, 47, 0
1, 50497, Note_on_c, 0, 46, 43
1, 50503, Note_on_c, 0, 56, 28
1, 50506, Note_on_c, 0, 62, 46
1, 50506, Note_on_c, 0, 65, 44
1, 50507, Note_on_c, 0, 60, 45
1, 50514, Control_c, 0, 64, 0
1, 50574, Control_c, 0, 64, 127
1, 50661, Note_on_c, 0, 56, 0
1, 50679, Note_on_c, 0, 62, 0
1, 50688, Note_on_c, 0, 65, 0
1, 50695, Note_on_c, 0, 60, 0
1, 50739, Note_on_c, 0, 62, 74
1, 50742, Note_on_c, 0, 56, 59
1, 50742, Note_on_c, 0, 60, 74
1, 50746, Control_c, 0, 64, 0
1, 50747, Note_on_c, 0, 55, 45
1, 50799, Control_c, 0, 64, 127
1, 50801, Note_on_c, 0, 64, 74
1, 50851, Note_on_c, 0, 65, 74
1, 50856, Note_on_c, 0, 62, 0
1, 50865, Note_on_c, 0, 56, 0
1, 50876, Note_on_c, 0, 65, 0
1, 50878, Note_on_c, 0, 60, 0
1, 50883, Note_on_c, 0, 46, 0
1, 50883, Note_on_c, 0, 64, 0
1, 50903, Note_on_c, 0, 46, 40
1, 50913, Note_on_c, 0, 67, 53
1, 50925, Note_on_c, 0, 67, 0
1, 50955, Note_on_c, 0, 55, 0
1, 50963, Note_on_c, 0, 46, 0
1, 50977, Note_on_c, 0, 65, 52
1, 50978, Control_c, 0, 64, 0
1, 50982, Note_on_c, 0, 45, 37
1, 50984, Note_on_c, 0, 61, 44
1, 50987, Note_on_c, 0, 58, 25
1, 51047, Control_c, 0, 64, 127
1, 51104, Note_on_c, 0, 58, 0
1, 51115, Note_on_c, 0, 65, 0
1, 51130, Note_on_c, 0, 61, 0
1, 51216, Note_on_c, 0, 58, 37
1, 51218, Note_on_c, 0, 55, 38
1, 51229, Note_on_c, 0, 61, 15
1, 51296, Note_on_c, 0, 64, 55
1, 51307, Note_on_c, 0, 45, 0
1, 51365, Note_on_c, 0, 55, 0
1, 51387, Note_on_c, 0, 64, 0
1, 51389, Note_on_c, 0, 58, 0
1, 51404, Note_on_c, 0, 61, 0
1, 51452, Control_c, 0, 64, 0
1, 51461, Note_on_c, 0, 58, 57
1, 51461, Note_on_c, 0, 32, 40
1, 51462, Note_on_c, 0, 62, 61
1, 51463, Note_on_c, 0, 44, 37
1, 51463, Note_on_c, 0, 53, 54
1, 51470, Note_on_c, 0, 53, 0
1, 51477, Note_on_c, 0, 58, 0
1, 51478, Note_on_c, 0, 32, 0
1, 51479, Note_on_c, 0, 44, 0
1, 51483, Note_on_c, 0, 62, 0
1, 51576, Note_on_c, 0, 70, 60
1, 51577, Note_on_c, 0, 74, 62
1, 51577, Note_on_c, 0, 54, 44
1, 51578, Note_on_c, 0, 65, 62
1, 51578, Note_on_c, 0, 60, 55
1, 51585, Note_on_c, 0, 65, 0
1, 51594, Note_on_c, 0, 70, 0
1, 51598, Note_on_c, 0, 74, 0
1, 51601, Note_on_c, 0, 60, 0
1, 51603, Note_on_c, 0, 54, 0
1, 51694, Note_on_c, 0, 82, 50
1, 51697, Note_on_c, 0, 77, 52
1, 51697, Note_on_c, 0, 65, 55
1, 51698, Note_on_c, 0, 86, 44
1, 51699, Note_on_c, 0, 60, 38
1, 51706, Control_c, 0, 64, 127
1, 51707, Note_on_c, 0, 54, 26
1, 51713, Note_on_c, 0, 86, 0
1, 51717, Note_on_c, 0, 65, 0
1, 51717, Note_on_c, 0, 82, 0
1, 51720, Note_on_c, 0, 60, 0
1, 51722, Note_on_c, 0, 77, 0
1, 51727, Note_on_c, 0, 54, 0
1, 51786, Note_on_c, 0, 82, 50
1, 51787, Note_on_c, 0, 86, 50
1, 51787, Note_on_c, 0, 89, 67
1, 51789, Note_on_c, 0, 77, 50
1, 51789, Note_on_c, 0, 60, 34
1, 51791, Note_on_c, 0, 54, 36
1, 51792, Note_on_c, 0, 65, 39
1, 51855, Note_on_c, 0, 60, 0
1, 51859, Note_on_c, 0, 65, 0
1, 51879, Note_on_c, 0, 86, 0
1, 51884, Note_on_c, 0, 89, 0
1, 51889, Note_on_c, 0, 82, 0
1, 51891, Note_on_c, 0, 54, 0
1, 51894, Note_on_c, 0, 77, 0
1, 51937, Control_c, 0, 64, 0
1, 51949, Note_on_c, 0, 64, 43
1, 51951, Note_on_c, 0, 86, 51
1, 51952, Note_on_c, 0, 77, 40
1, 51953, Note_on_c, 0, 83, 51
1, 51953, Note_on_c, 0, 59, 44
1, 51957, Note_on_c, 0, 53, 27
1, 51965, Note_on_c, 0, 77, 0
1, 51966, Note_on_c, 0, 83, 0
1, 51967, Note_on_c, 0, 64, 0
1, 51968, Note_on_c, 0, 86, 0
1, 51968, Note_on_c, 0, 59, 0
1, 51980, Note_on_c, 0, 53, 0
1, 52037, Note_on_c, 0, 43, 50
1, 52051, Control_c, 0, 64, 127
1, 52201, Note_on_c, 0, 62, 56
1, 52203, Note_on_c, 0, 56, 38
1, 52203, Note_on_c, 0, 59, 54
1, 52206, Note_on_c, 0, 53, 35
1, 52304, Note_on_c, 0, 53, 0
1, 52320, Note_on_c, 0, 43, 0
1, 52365, Note_on_c, 0, 56, 0
1, 52381, Note_on_c, 0, 59, 0
1, 52398, Note_on_c, 0, 62, 0
1, 52406, Note_on_c, 0, 42, 34
1, 52407, Note_on_c, 0, 44, 67
1, 52427, Note_on_c, 0, 42, 0
1, 52427, Note_on_c, 0, 45, 72
1, 52435, Note_on_c, 0, 44, 0
1, 52442, Control_c, 0, 64, 0
1, 52451, Note_on_c, 0, 46, 69
1, 52453, Note_on_c, 0, 56, 57
1, 52454, Note_on_c, 0, 62, 62
1, 52457, Note_on_c, 0, 60, 66
1, 52459, Note_on_c, 0, 45, 0
1, 52499, Note_on_c, 0, 46, 0
1, 52503, Note_on_c, 0, 56, 0
1, 52504, Note_on_c, 0, 60, 0
1, 52506, Note_on_c, 0, 62, 0
1, 52561, Note_on_c, 0, 34, 55
1, 52564, Note_on_c, 0, 64, 68
1, 52564, Note_on_c, 0, 56, 52
1, 52569, Note_on_c, 0, 60, 51
1, 52569, Note_on_c, 0, 62, 45
1, 52588, Note_on_c, 0, 34, 0
1, 52631, Note_on_c, 0, 60, 0
1, 52637, Note_on_c, 0, 62, 0
1, 52640, Note_on_c, 0, 56, 0
1, 52652, Note_on_c, 0, 64, 0
1, 52681, Note_on_c, 0, 56, 51
1, 52681, Note_on_c, 0, 65, 52
1, 52684, Note_on_c, 0, 60, 57
1, 52687, Note_on_c, 0, 62, 48
1, 52693, Note_on_c, 0, 65, 0
1, 52704, Control_c, 0, 64, 127
1, 52729, Note_on_c, 0, 56, 0
1, 52738, Note_on_c, 0, 62, 0
1, 52759, Note_on_c, 0, 67, 55
1, 52782, Note_on_c, 0, 67, 0
1, 52804, Note_on_c, 0, 60, 0
1, 52922, Note_on_c, 0, 65, 54
1, 52926, Note_on_c, 0, 55, 39
1, 52926, Note_on_c, 0, 58, 36
1, 52926, Note_on_c, 0, 45, 29
1, 52927, Note_on_c, 0, 61, 33
1, 52928, Note_on_c, 0, 33, 31
1, 52936, Control_c, 0, 64, 0
1, 52973, Control_c, 0, 64, 127
1, 53006, Note_on_c, 0, 33, 0
1, 53026, Note_on_c, 0, 45, 0
1, 53064, Note_on_c, 0, 55, 0
1, 53111, Note_on_c, 0, 58, 0
1, 53114, Note_on_c, 0, 61, 0
1, 53163, Note_on_c, 0, 65, 0
1, 53177, Note_on_c, 0, 58, 37
1, 53182, Note_on_c, 0, 61, 27
1, 53182, Note_on_c, 0, 55, 37
1, 53363, Note_on_c, 0, 64, 63
1, 53379, Note_on_c, 0, 55, 0
1, 53385, Note_on_c, 0, 61, 0
1, 53410, Note_on_c, 0, 64, 0
1, 53424, Note_on_c, 0, 58, 0
1, 53431, Note_on_c, 0, 62, 54
1, 53433, Note_on_c, 0, 54, 38
1, 53438, Note_on_c, 0, 38, 35
1, 53439, Control_c, 0, 64, 0
1, 53474, Control_c, 0, 64, 127
1, 53489, Note_on_c, 0, 54, 0
1, 53501, Note_on_c, 0, 62, 0
1, 53514, Note_on_c, 0, 38, 0
1, 53597, Note_on_c, 0, 74, 85
1, 53677, Note_on_c, 0, 64, 33
1, 53677, Note_on_c, 0, 54, 33
1, 53678, Note_on_c, 0, 60, 37
1, 53697, Note_on_c, 0, 64, 0
1, 53700, Note_on_c, 0, 60, 0
1, 53712, Note_on_c, 0, 54, 0
1, 53735, Note_on_c, 0, 74, 0
1, 53834, Note_on_c, 0, 50, 49
1, 53856, Note_on_c, 0, 50, 0
1, 53923, Note_on_c, 0, 43, 48
1, 53926, Note_on_c, 0, 71, 50
1, 53927, Note_on_c, 0, 65, 44
1, 53931, Note_on_c, 0, 59, 46
1, 53933, Control_c, 0, 64, 0
1, 53973, Control_c, 0, 64, 127
1, 53998, Note_on_c, 0, 43, 0
1, 54002, Note_on_c, 0, 65, 0
1, 54014, Note_on_c, 0, 59, 0
1, 54016, Note_on_c, 0, 71, 0
1, 54178, Note_on_c, 0, 75, 79
1, 54181, Note_on_c, 0, 71, 79
1, 54182, Note_on_c, 0, 68, 80
1, 54183, Note_on_c, 0, 53, 66
1, 54184, Note_on_c, 0, 59, 68
1, 54184, Note_on_c, 0, 63, 77
1, 54184, Note_on_c, 0, 65, 83
1, 54192, Control_c, 0, 64, 0
1, 54229, Control_c, 0, 64, 127
1, 54325, Note_on_c, 0, 59, 0
1, 54337, Note_on_c, 0, 65, 0
1, 54341, Note_on_c, 0, 63, 0
1, 54344, Note_on_c, 0, 53, 0
1, 54348, Note_on_c, 0, 75, 0
1, 54348, Note_on_c, 0, 71, 0
1, 54374, Note_on_c, 0, 68, 0
1, 54449, Control_c, 0, 64, 0
1, 54451, Note_on_c, 0, 76, 50
1, 54453, Note_on_c, 0, 67, 50
1, 54453, Note_on_c, 0, 71, 49
1, 54454, Note_on_c, 0, 64, 43
1, 54457, Note_on_c, 0, 62, 34
1, 54458, Note_on_c, 0, 57, 33
1, 54458, Note_on_c, 0, 52, 37
1, 54489, Control_c, 0, 64, 127
1, 54561, Note_on_c, 0, 57, 0
1, 54561, Note_on_c, 0, 64, 0
1, 54568, Note_on_c, 0, 62, 0
1, 54570, Note_on_c, 0, 52, 0
1, 54589, Note_on_c, 0, 76, 0
1, 54595, Note_on_c, 0, 67, 0
1, 54604, Note_on_c, 0, 71, 0
1, 54716, Note_on_c, 0, 76, 59
1, 54717, Note_on_c, 0, 62, 49
1, 54718, Note_on_c, 0, 72, 55
1, 54719, Note_on_c, 0, 67, 45
1, 54724, Note_on_c, 0, 56, 38
1, 54726, Control_c, 0, 64, 0
1, 54763, Control_c, 0, 64, 127
1, 54839, Note_on_c, 0, 62, 0
1, 54876, Note_on_c, 0, 72, 0
1, 54880, Note_on_c, 0, 56, 0
1, 54881, Note_on_c, 0, 67, 0
1, 54888, Note_on_c, 0, 76, 0
1, 54977, Note_on_c, 0, 67, 48
1, 54977, Note_on_c, 0, 76, 48
1, 54977, Note_on_c, 0, 70, 51
1, 54977, Note_on_c, 0, 61, 31
1, 54978, Note_on_c, 0, 73, 46
1, 54979, Note_on_c, 0, 64, 32
1, 54979, Control_c, 0, 64, 0
1, 54981, Note_on_c, 0, 55, 38
1, 54992, Note_on_c, 0, 64, 0
1, 54992, Note_on_c, 0, 76, 0
1, 54993, Note_on_c, 0, 67, 0
1, 54996, Note_on_c, 0, 73, 0
1, 54997, Note_on_c, 0, 70, 0
1, 55002, Note_on_c, 0, 61, 0
1, 55004, Note_on_c, 0, 55, 0
1, 55171, Control_c, 0, 64, 127
1, 55196, Note_on_c, 0, 45, 58
1, 55227, Control_c, 0, 64, 0
1, 55246, Note_on_c, 0, 45, 0
1, 55247, Note_on_c, 0, 64, 59
1, 55247, Note_on_c, 0, 58, 48
1, 55248, Note_on_c, 0, 69, 45
1, 55248, Note_on_c, 0, 55, 58
1, 55251, Note_on_c, 0, 61, 40
1, 55258, Note_on_c, 0, 55, 0
1, 55259, Note_on_c, 0, 69, 0
1, 55266, Note_on_c, 0, 61, 0
1, 55267, Note_on_c, 0, 64, 0
1, 55275, Note_on_c, 0, 58, 0
1, 55334, Note_on_c, 0, 58, 60
1, 55338, Note_on_c, 0, 55, 62
1, 55338, Note_on_c, 0, 39, 46
1, 55389, Control_c, 0, 64, 127
1, 55460, Note_on_c, 0, 55, 0
1, 55461, Note_on_c, 0, 45, 32
1, 55479, Note_on_c, 0, 39, 0
1, 55493, Note_on_c, 0, 45, 0
1, 55511, Control_c, 0, 64, 0
1, 55514, Note_on_c, 0, 54, 45
1, 55517, Note_on_c, 0, 58, 0
1, 55518, Note_on_c, 0, 38, 45
1, 55553, Control_c, 0, 64, 127
1, 55592, Note_on_c, 0, 54, 0
1, 55599, Note_on_c, 0, 38, 0
1, 55758, Note_on_c, 0, 86, 50
1, 55761, Note_on_c, 0, 81, 49
1, 55761, Note_on_c, 0, 74, 44
1, 55764, Note_on_c, 0, 54, 35
1, 55764, Note_on_c, 0, 64, 34
1, 55764, Note_on_c, 0, 60, 35
1, 55771, Control_c, 0, 64, 0
1, 55798, Note_on_c, 0, 74, 0
1, 55798, Note_on_c, 0, 86, 0
1, 55806, Note_on_c, 0, 81, 0
1, 55839, Note_on_c, 0, 86, 68
1, 55841, Note_on_c, 0, 81, 62
1, 55842, Note_on_c, 0, 74, 55
1, 55855, Note_on_c, 0, 74, 0
1, 55864, Note_on_c, 0, 81, 0
1, 55865, Note_on_c, 0, 86, 0
1, 55892, Control_c, 0, 64, 127
1, 55893, Note_on_c, 0, 88, 85
1, 55893, Note_on_c, 0, 76, 80
1, 55905, Note_on_c, 0, 60, 0
1, 55927, Note_on_c, 0, 64, 0
1, 55931, Note_on_c, 0, 76, 0
1, 55934, Note_on_c, 0, 88, 0
1, 55946, Note_on_c, 0, 54, 0
1, 55959, Note_on_c, 0, 88, 77
1, 55962, Note_on_c, 0, 76, 75
1, 55983, Note_on_c, 0, 76, 0
1, 55990, Note_on_c, 0, 88, 0
1, 56002, Control_c, 0, 64, 0
1, 56004, Note_on_c, 0, 64, 40
1, 56006, Note_on_c, 0, 59, 46
1, 56011, Note_on_c, 0, 53, 30
1, 56012, Note_on_c, 0, 89, 81
1, 56013, Note_on_c, 0, 77, 71
1, 56059, Control_c, 0, 64, 127
1, 56061, Note_on_c, 0, 77, 0
1, 56063, Note_on_c, 0, 89, 0
1, 56091, Note_on_c, 0, 91, 64
1, 56093, Note_on_c, 0, 79, 65
1, 56099, Note_on_c, 0, 89, 26
1, 56121, Note_on_c, 0, 91, 0
1, 56127, Note_on_c, 0, 89, 0
1, 56141, Note_on_c, 0, 79, 0
1, 56165, Note_on_c, 0, 64, 0
1, 56177, Note_on_c, 0, 59, 0
1, 56191, Note_on_c, 0, 53, 0
1, 56254, Note_on_c, 0, 76, 80
1, 56256, Note_on_c, 0, 68, 78
1, 56257, Note_on_c, 0, 71, 75
1, 56257, Control_c, 0, 64, 0
1, 56258, Note_on_c, 0, 65, 81
1, 56259, Note_on_c, 0, 64, 72
1, 56268, Note_on_c, 0, 74, 24
1, 56286, Note_on_c, 0, 64, 0
1, 56293, Note_on_c, 0, 74, 0
1, 56302, Note_on_c, 0, 76, 0
1, 56305, Note_on_c, 0, 71, 0
1, 56308, Note_on_c, 0, 65, 0
1, 56312, Note_on_c, 0, 68, 0
1, 56342, Note_on_c, 0, 56, 37
1, 56351, Control_c, 0, 64, 127
1, 56374, Note_on_c, 0, 56, 0
1, 56379, Control_c, 0, 64, 0
1, 56389, Note_on_c, 0, 71, 60
1, 56391, Note_on_c, 0, 68, 53
1, 56391, Note_on_c, 0, 65, 57
1, 56448, Note_on_c, 0, 65, 0
1, 56450, Note_on_c, 0, 71, 0
1, 56453, Control_c, 0, 64, 127
1, 56461, Note_on_c, 0, 74, 74
1, 56466, Note_on_c, 0, 65, 31
1, 56486, Note_on_c, 0, 65, 0
1, 56491, Note_on_c, 0, 74, 0
1, 56508, Note_on_c, 0, 68, 0
1, 56514, Note_on_c, 0, 45, 36
1, 56516, Note_on_c, 0, 72, 68
1, 56519, Control_c, 0, 64, 0
1, 56524, Note_on_c, 0, 52, 17
1, 56591, Note_on_c, 0, 67, 46
1, 56591, Note_on_c, 0, 60, 46
1, 56647, Control_c, 0, 64, 127
1, 56704, Note_on_c, 0, 45, 0
1, 56706, Note_on_c, 0, 67, 0
1, 56707, Note_on_c, 0, 52, 0
1, 56719, Note_on_c, 0, 60, 0
1, 56761, Note_on_c, 0, 66, 46
1, 56761, Note_on_c, 0, 44, 37
1, 56763, Note_on_c, 0, 60, 46
1, 56763, Note_on_c, 0, 54, 31
1, 56769, Control_c, 0, 64, 0
1, 56811, Note_on_c, 0, 72, 0
1, 56836, Control_c, 0, 64, 127
1, 56848, Note_on_c, 0, 72, 46
1, 56900, Note_on_c, 0, 60, 0
1, 56939, Note_on_c, 0, 54, 0
1, 56949, Note_on_c, 0, 44, 0
1, 56951, Note_on_c, 0, 66, 0
1, 57011, Note_on_c, 0, 58, 35
1, 57011, Note_on_c, 0, 65, 51
1, 57014, Note_on_c, 0, 72, 0
1, 57016, Note_on_c, 0, 53, 42
1, 57017, Note_on_c, 0, 43, 34
1, 57021, Control_c, 0, 64, 0
1, 57058, Control_c, 0, 64, 127
1, 57096, Note_on_c, 0, 72, 60
1, 57144, Note_on_c, 0, 43, 0
1, 57149, Note_on_c, 0, 58, 0
1, 57168, Note_on_c, 0, 53, 0
1, 57201, Note_on_c, 0, 65, 0
1, 57266, Note_on_c, 0, 68, 55
1, 57266, Note_on_c, 0, 64, 51
1, 57271, Note_on_c, 0, 58, 44
1, 57277, Control_c, 0, 64, 0
1, 57303, Note_on_c, 0, 72, 0
1, 57329, Control_c, 0, 64, 127
1, 57352, Note_on_c, 0, 72, 58
1, 57434, Note_on_c, 0, 64, 0
1, 57480, Note_on_c, 0, 72, 0
1, 57504, Note_on_c, 0, 58, 0
1, 57514, Note_on_c, 0, 68, 0
1, 57524, Note_on_c, 0, 72, 45
1, 57527, Note_on_c, 0, 67, 43
1, 57531, Note_on_c, 0, 62, 30
1, 57533, Control_c, 0, 64, 0
1, 57534, Note_on_c, 0, 57, 24
1, 57573, Control_c, 0, 64, 127
1, 57579, Note_on_c, 0, 57, 0
1, 57712, Note_on_c, 0, 41, 71
1, 57754, Note_on_c, 0, 62, 0
1, 57762, Note_on_c, 0, 67, 0
1, 57774, Note_on_c, 0, 48, 33
1, 57775, Note_on_c, 0, 72, 0
1, 57785, Note_on_c, 0, 41, 0
1, 57787, Note_on_c, 0, 62, 71
1, 57788, Note_on_c, 0, 71, 66
1, 57788, Note_on_c, 0, 67, 74
1, 57793, Note_on_c, 0, 57, 61
1, 57863, Note_on_c, 0, 62, 0
1, 57869, Note_on_c, 0, 67, 0
1, 57878, Note_on_c, 0, 62, 60
1, 57881, Note_on_c, 0, 67, 50
1, 57891, Note_on_c, 0, 48, 0
1, 57925, Note_on_c, 0, 57, 0
1, 57939, Note_on_c, 0, 62, 0
1, 57943, Note_on_c, 0, 71, 0
1, 57952, Note_on_c, 0, 72, 74
1, 57957, Note_on_c, 0, 71, 30
1, 57972, Note_on_c, 0, 67, 0
1, 57983, Note_on_c, 0, 71, 0
1, 57984, Note_on_c, 0, 72, 0
1, 58036, Note_on_c, 0, 74, 73
1, 58038, Control_c, 0, 64, 0
1, 58039, Note_on_c, 0, 47, 39
1, 58042, Note_on_c, 0, 69, 79
1, 58047, Note_on_c, 0, 57, 55
1, 58047, Note_on_c, 0, 62, 68
1, 58066, Note_on_c, 0, 47, 0
1, 58071, Control_c, 0, 64, 127
1, 58092, Note_on_c, 0, 57, 0
1, 58098, Note_on_c, 0, 62, 0
1, 58099, Note_on_c, 0, 74, 0
1, 58115, Note_on_c, 0, 69, 0
1, 58149, Note_on_c, 0, 76, 71
1, 58156, Note_on_c, 0, 71, 68
1, 58156, Note_on_c, 0, 69, 80
1, 58159, Note_on_c, 0, 64, 72
1, 58159, Note_on_c, 0, 74, 53
1, 58161, Note_on_c, 0, 65, 75
1, 58167, Control_c, 0, 64, 0
1, 58198, Control_c, 0, 64, 127
1, 58322, Note_on_c, 0, 76, 0
1, 58324, Note_on_c, 0, 74, 0
1, 58326, Note_on_c, 0, 64, 0
1, 58326, Note_on_c, 0, 71, 0
1, 58327, Note_on_c, 0, 69, 0
1, 58329, Note_on_c, 0, 65, 0
1, 58394, Note_on_c, 0, 72, 56
1, 58396, Note_on_c, 0, 67, 54
1, 58397, Note_on_c, 0, 64, 40
1, 58398, Note_on_c, 0, 56, 35
1, 58398, Control_c, 0, 64, 0
1, 58401, Note_on_c, 0, 62, 24
1, 58429, Control_c, 0, 64, 127
1, 58434, Note_on_c, 0, 62, 0
1, 58458, Note_on_c, 0, 64, 0
1, 58464, Note_on_c, 0, 67, 0
1, 58469, Note_on_c, 0, 56, 0
1, 58491, Note_on_c, 0, 72, 0
1, 58549, Note_on_c, 0, 71, 63
1, 58572, Note_on_c, 0, 71, 0
1, 58747, Note_on_c, 0, 69, 69
1, 58748, Note_on_c, 0, 58, 59
1, 58749, Note_on_c, 0, 61, 62
1, 58752, Note_on_c, 0, 67, 29
1, 58753, Note_on_c, 0, 64, 56
1, 58756, Note_on_c, 0, 57, 37
1, 58761, Control_c, 0, 64, 0
1, 58764, Note_on_c, 0, 57, 0
1, 58797, Control_c, 0, 64, 127
1, 58799, Note_on_c, 0, 67, 0
1, 58805, Note_on_c, 0, 64, 0
1, 58810, Note_on_c, 0, 69, 0
1, 58810, Note_on_c, 0, 58, 0
1, 58811, Note_on_c, 0, 61, 0
1, 58854, Note_on_c, 0, 69, 62
1, 58854, Control_c, 0, 64, 0
1, 58857, Note_on_c, 0, 61, 69
1, 58858, Note_on_c, 0, 39, 42
1, 58863, Note_on_c, 0, 55, 55
1, 58863, Note_on_c, 0, 57, 47
1, 58867, Note_on_c, 0, 46, 34
1, 58917, Control_c, 0, 64, 127
1, 58994, Note_on_c, 0, 55, 0
1, 58999, Note_on_c, 0, 57, 0
1, 59006, Note_on_c, 0, 66, 1
1, 59022, Note_on_c, 0, 61, 0
1, 59108, Note_on_c, 0, 61, 42
1, 59110, Note_on_c, 0, 39, 0
1, 59111, Note_on_c, 0, 55, 53
1, 59112, Note_on_c, 0, 57, 46
1, 59113, Note_on_c, 0, 63, 39
1, 59143, Note_on_c, 0, 46, 0
1, 59214, Note_on_c, 0, 45, 91
1, 59226, Control_c, 0, 64, 0
1, 59291, Note_on_c, 0, 55, 0
1, 59294, Note_on_c, 0, 57, 0
1, 59298, Note_on_c, 0, 63, 0
1, 59302, Control_c, 0, 64, 127
1, 59311, Note_on_c, 0, 61, 0
1, 59361, Note_on_c, 0, 69, 0
1, 59366, Note_on_c, 0, 63, 40
1, 59367, Control_c, 0, 64, 0
1, 59367, Note_on_c, 0, 61, 42
1, 59371, Note_on_c, 0, 55, 34
1, 59386, Note_on_c, 0, 66, 0
1, 59439, Note_on_c, 0, 39, 68
1, 59447, Note_on_c, 0, 45, 0
1, 59470, Note_on_c, 0, 39, 0
1, 59502, Note_on_c, 0, 63, 0
1, 59505, Note_on_c, 0, 61, 0
1, 59513, Note_on_c, 0, 37, 55
1, 59516, Note_on_c, 0, 55, 0
1, 59528, Control_c, 0, 64, 127
1, 59581, Note_on_c, 0, 37, 0
1, 59598, Note_on_c, 0, 38, 52
1, 59601, Note_on_c, 0, 60, 49
1, 59601, Note_on_c, 0, 53, 38
1, 59602, Control_c, 0, 64, 0
1, 59606, Note_on_c, 0, 57, 37
1, 59628, Note_on_c, 0, 53, 0
1, 59634, Note_on_c, 0, 57, 0
1, 59647, Note_on_c, 0, 60, 0
1, 59649, Control_c, 0, 64, 127
1, 59841, Note_on_c, 0, 38, 0
1, 59849, Control_c, 0, 64, 0
1, 59849, Note_on_c, 0, 89, 84
1, 59851, Note_on_c, 0, 40, 64
1, 59851, Note_on_c, 0, 77, 83
1, 59853, Note_on_c, 0, 84, 72
1, 59860, Note_on_c, 0, 84, 0
1, 59868, Note_on_c, 0, 77, 0
1, 59870, Note_on_c, 0, 89, 0
1, 59933, Note_on_c, 0, 88, 79
1, 59934, Note_on_c, 0, 41, 65
1, 59934, Note_on_c, 0, 83, 76
1, 59936, Note_on_c, 0, 76, 67
1, 59937, Note_on_c, 0, 40, 0
1, 59992, Control_c, 0, 64, 127
1, 60011, Note_on_c, 0, 88, 0
1, 60012, Note_on_c, 0, 83, 0
1, 60024, Note_on_c, 0, 76, 0
1, 60067, Note_on_c, 0, 41, 0
1, 60067, Note_on_c, 0, 42, 44
1, 60083, Control_c, 0, 64, 0
1, 60088, Note_on_c, 0, 80, 47
1, 60088, Note_on_c, 0, 72, 55
1, 60091, Note_on_c, 0, 84, 54
1, 60093, Note_on_c, 0, 42, 0
1, 60098, Note_on_c, 0, 43, 52
1, 60119, Note_on_c, 0, 80, 0
1, 60119, Note_on_c, 0, 84, 0
1, 60129, Note_on_c, 0, 72, 0
1, 60179, Note_on_c, 0, 31, 65
1, 60281, Control_c, 0, 64, 127
1, 60317, Control_c, 0, 64, 0
1, 60326, Note_on_c, 0, 60, 64
1, 60326, Note_on_c, 0, 63, 60
1, 60329, Note_on_c, 0, 67, 63
1, 60334, Note_on_c, 0, 31, 0
1, 60348, Note_on_c, 0, 63, 0
1, 60349, Note_on_c, 0, 43, 0
1, 60352, Note_on_c, 0, 64, 49
1, 60363, Note_on_c, 0, 60, 0
1, 60366, Note_on_c, 0, 67, 0
1, 60375, Note_on_c, 0, 64, 0
1, 60407, Note_on_c, 0, 69, 65
1, 60408, Note_on_c, 0, 65, 57
1, 60455, Note_on_c, 0, 69, 0
1, 60463, Note_on_c, 0, 65, 0
1, 60481, Note_on_c, 0, 67, 63
1, 60483, Note_on_c, 0, 64, 66
1, 60499, Control_c, 0, 64, 127
1, 60509, Note_on_c, 0, 64, 0
1, 60528, Note_on_c, 0, 67, 0
1, 60559, Control_c, 0, 64, 0
1, 60559, Note_on_c, 0, 64, 54
1, 60584, Note_on_c, 0, 64, 0
1, 60634, Note_on_c, 0, 36, 55
1, 60641, Note_on_c, 0, 36, 0
1, 60646, Control_c, 0, 64, 127
1, 60814, Note_on_c, 0, 64, 66
1, 60816, Note_on_c, 0, 66, 57
1, 60817, Note_on_c, 0, 58, 59
1, 60819, Control_c, 0, 64, 0
1, 60829, Note_on_c, 0, 66, 0
1, 60832, Note_on_c, 0, 67, 59
1, 60877, Control_c, 0, 64, 127
1, 60889, Note_on_c, 0, 72, 61
1, 60928, Note_on_c, 0, 67, 0
1, 60932, Note_on_c, 0, 64, 0
1, 60962, Note_on_c, 0, 72, 0
1, 60967, Note_on_c, 0, 64, 46
1, 60968, Note_on_c, 0, 67, 57
1, 60992, Note_on_c, 0, 64, 0
1, 61001, Note_on_c, 0, 67, 0
1, 61015, Note_on_c, 0, 58, 0
1, 61052, Note_on_c, 0, 66, 52
1, 61053, Note_on_c, 0, 63, 44
1, 61057, Note_on_c, 0, 57, 42
1, 61058, Control_c, 0, 64, 0
1, 61091, Control_c, 0, 64, 127
1, 61186, Note_on_c, 0, 63, 0
1, 61218, Note_on_c, 0, 66, 0
1, 61221, Note_on_c, 0, 63, 35
1, 61242, Note_on_c, 0, 57, 0
1, 61254, Note_on_c, 0, 63, 0
1, 61314, Note_on_c, 0, 62, 44
1, 61316, Control_c, 0, 64, 0
1, 61317, Note_on_c, 0, 65, 44
1, 61317, Note_on_c, 0, 56, 34
1, 61349, Control_c, 0, 64, 127
1, 61380, Note_on_c, 0, 56, 0
1, 61403, Note_on_c, 0, 72, 55
1, 61407, Note_on_c, 0, 62, 0
1, 61424, Note_on_c, 0, 65, 0
1, 61489, Note_on_c, 0, 72, 0
1, 61489, Note_on_c, 0, 65, 39
1, 61529, Note_on_c, 0, 65, 0
1, 61593, Note_on_c, 0, 64, 53
1, 61596, Control_c, 0, 64, 0
1, 61597, Note_on_c, 0, 60, 28
1, 61597, Note_on_c, 0, 55, 39
1, 61612, Note_on_c, 0, 55, 0
1, 61621, Note_on_c, 0, 64, 0
1, 61624, Note_on_c, 0, 60, 0
1, 61698, Control_c, 0, 64, 127
1, 61734, Control_c, 0, 64, 0
1, 61738, Note_on_c, 0, 43, 39
1, 61765, Note_on_c, 0, 43, 0
1, 61889, Note_on_c, 0, 63, 39
1, 61893, Note_on_c, 0, 56, 25
1, 61893, Note_on_c, 0, 59, 41
1, 61894, Note_on_c, 0, 37, 25
1, 61894, Note_on_c, 0, 25, 28
1, 61896, Note_on_c, 0, 53, 27
1, 61936, Note_on_c, 0, 63, 0
1, 61938, Note_on_c, 0, 59, 0
1, 61938, Note_on_c, 0, 53, 0
1, 61941, Note_on_c, 0, 56, 0
1, 61947, Note_on_c, 0, 37, 0
1, 61951, Note_on_c, 0, 25, 0
1, 62039, Control_c, 0, 64, 127
1, 62056, Control_c, 0, 64, 0
1, 62061, Note_on_c, 0, 58, 19
1, 62061, Note_on_c, 0, 52, 33
1, 62062, Note_on_c, 0, 62, 33
1, 62064, Note_on_c, 0, 57, 47
1, 62064, Note_on_c, 0, 36, 37
1, 62066, Note_on_c, 0, 24, 37
1, 62137, Control_c, 0, 64, 127
1, 62164, Note_on_c, 0, 52, 0
1, 62170, Note_on_c, 0, 57, 0
1, 62190, Note_on_c, 0, 62, 0
1, 62196, Note_on_c, 0, 58, 0
1, 62211, Note_on_c, 0, 24, 0
1, 62214, Note_on_c, 0, 36, 0
1, 62456, Note_on_c, 0, 94, 32
1, 62462, Note_on_c, 0, 96, 39
1, 62471, Note_on_c, 0, 94, 0
1, 62483, Note_on_c, 0, 100, 50
1, 62488, Note_on_c, 0, 96, 0
1, 62494, Note_on_c, 0, 103, 57
1, 62508, Note_on_c, 0, 100, 0
1, 62515, Note_on_c, 0, 103, 0
1, 62516, Note_on_c, 0, 108, 63
1, 62569, Note_on_c, 0, 108, 0
1, 62937, Control_c, 0, 64, 0
1, 62937, End_track
0, 0, End_of_file
