0, 0, Header, 0, 1, 384
1, 0, Start_track
1, 0, Title_t, "untitled"
1, 0, System_exclusive, 5, 126, 127, 9, 1, 247
1, 1, System_exclusive, 8, 67, 16, 76, 0, 0, 126, 0, 247
1, 1, System_exclusive, 8, 67, 16, 76, 8, 15, 0, 1, 247
1, 1, System_exclusive, 8, 67, 16, 76, 8, 14, 0, 1, 247
1, 1, System_exclusive, 8, 67, 16, 76, 8, 13, 0, 1, 247
1, 1, System_exclusive, 8, 67, 16, 76, 8, 12, 0, 1, 247
1, 1, System_exclusive, 8, 67, 16, 76, 8, 11, 0, 1, 247
1, 1, System_exclusive, 8, 67, 16, 76, 8, 10, 0, 1, 247
1, 1, System_exclusive, 8, 67, 16, 76, 8, 9, 0, 0, 247
1, 1, System_exclusive, 8, 67, 16, 76, 8, 8, 0, 1, 247
1, 1, System_exclusive, 8, 67, 16, 76, 8, 7, 0, 1, 247
1, 1, System_exclusive, 8, 67, 16, 76, 8, 6, 0, 1, 247
1, 1, System_exclusive, 8, 67, 16, 76, 8, 5, 0, 1, 247
1, 1, System_exclusive, 8, 67, 16, 76, 8, 4, 0, 2, 247
1, 1, System_exclusive, 8, 67, 16, 76, 8, 3, 0, 2, 247
1, 1, System_exclusive, 8, 67, 16, 76, 8, 2, 0, 4, 247
1, 1, System_exclusive, 8, 67, 16, 76, 8, 1, 0, 4, 247
1, 1, System_exclusive, 8, 67, 16, 76, 8, 0, 0, 8, 247
1, 1, System_exclusive, 8, 67, 16, 76, 8, 0, 7, 0, 247
1, 1, System_exclusive, 8, 67, 16, 76, 8, 1, 7, 0, 247
1, 1, System_exclusive, 8, 67, 16, 76, 8, 2, 7, 0, 247
1, 1, System_exclusive, 8, 67, 16, 76, 8, 3, 7, 0, 247
1, 1, System_exclusive, 8, 67, 16, 76, 8, 4, 7, 0, 247
1, 1, System_exclusive, 8, 67, 16, 76, 8, 5, 7, 0, 247
1, 1, System_exclusive, 8, 67, 16, 76, 8, 6, 7, 0, 247
1, 1, System_exclusive, 8, 67, 16, 76, 8, 7, 7, 0, 247
1, 1, System_exclusive, 8, 67, 16, 76, 8, 8, 7, 0, 247
1, 1, System_exclusive, 8, 67, 16, 76, 8, 9, 7, 2, 247
1, 1, System_exclusive, 8, 67, 16, 76, 8, 10, 7, 0, 247
1, 1, System_exclusive, 8, 67, 16, 76, 8, 11, 7, 0, 247
1, 1, System_exclusive, 8, 67, 16, 76, 8, 12, 7, 0, 247
1, 1, System_exclusive, 8, 67, 16, 76, 8, 13, 7, 0, 247
1, 1, System_exclusive, 8, 67, 16, 76, 8, 14, 7, 0, 247
1, 1, System_exclusive, 8, 67, 16, 76, 8, 15, 7, 0, 247
1, 1, System_exclusive, 9, 67, 16, 76, 2, 1, 0, 1, 0, 247
1, 1, System_exclusive, 9, 67, 16, 76, 2, 1, 32, 65, 0, 247
1, 1, System_exclusive, 9, 67, 16, 76, 2, 1, 64, 5, 0, 247
1, 1, System_exclusive, 8, 67, 16, 76, 8, 0, 114, 64, 247
1, 1, System_exclusive, 8, 67, 16, 76, 8, 0, 115, 95, 247
1, 1, System_exclusive, 8, 67, 16, 76, 8, 0, 119, 46, 247
1, 1, Time_signature, 4, 2, 24, 8
1, 1, Key_signature, 0, "major"
1, 1, Tempo, 500000
1, 1, Sequencer_specific, 21, 67, 115, 10, 0, 5, 75, 79, 79, 79, 79, 79, 79, 79, 79, 79, 79, 79, 79, 79, 79, 79
1, 1, Sequencer_specific, 6, 67, 115, 10, 0, 4, 1
1, 1, Sequencer_specific, 9, 67, 123, 0, 88, 70, 48, 50, 0, 0
1, 385, Program_c, 0, 0
1, 386, Control_c, 0, 7, 107
1, 386, Control_c, 0, 10, 64
1, 386, Control_c, 0, 91, 10
1, 386, Control_c, 0, 93, 0
1, 769, Control_c, 0, 11, 127
1, 769, Control_c, 0, 94, 0
1, 769, Control_c, 0, 101, 0
1, 770, Control_c, 0, 100, 1
1, 771, Control_c, 0, 6, 64
1, 772, Control_c, 0, 38, 0
1, 772, Pitch_bend_c, 0, 8192
1, 772, Control_c, 0, 71, 43
1, 772, Control_c, 0, 74, 46
1, 1537, Note_on_c, 0, 75, 77
1, 1585, Control_c, 0, 64, 127
1, 2137, Note_on_c, 0, 75, 0
1, 2413, Note_on_c, 0, 74, 57
1, 2453, Note_on_c, 0, 69, 45
1, 2457, Note_on_c, 0, 67, 47
1, 2461, Note_on_c, 0, 63, 45
1, 2469, Note_on_c, 0, 62, 38
1, 2493, Control_c, 0, 64, 0
1, 2753, Control_c, 0, 64, 127
1, 2901, Note_on_c, 0, 63, 0
1, 2901, Note_on_c, 0, 67, 0
1, 2905, Note_on_c, 0, 69, 0
1, 2933, Note_on_c, 0, 74, 0
1, 3545, Note_on_c, 0, 98, 57
1, 3593, Note_on_c, 0, 86, 41
1, 3601, Note_on_c, 0, 50, 39
1, 3993, Note_on_c, 0, 62, 0
1, 4013, Note_on_c, 0, 50, 0
1, 4629, Note_on_c, 0, 86, 0
1, 4629, Note_on_c, 0, 26, 66
1, 4649, Note_on_c, 0, 98, 0
1, 5337, Note_on_c, 0, 26, 0
1, 6669, Note_on_c, 0, 72, 72
1, 6669, Note_on_c, 0, 63, 72
1, 6673, Note_on_c, 0, 66, 67
1, 6681, Note_on_c, 0, 57, 65
1, 6741, Control_c, 0, 64, 0
1, 6793, Control_c, 0, 64, 127
1, 7029, Note_on_c, 0, 56, 61
1, 7033, Note_on_c, 0, 57, 0
1, 7193, Note_on_c, 0, 72, 0
1, 7309, Note_on_c, 0, 63, 0
1, 7345, Note_on_c, 0, 66, 0
1, 7369, Note_on_c, 0, 56, 0
1, 7385, Control_c, 0, 64, 0
1, 7397, Note_on_c, 0, 62, 46
1, 7397, Note_on_c, 0, 70, 48
1, 7397, Note_on_c, 0, 55, 51
1, 7581, Control_c, 0, 64, 127
1, 7717, Note_on_c, 0, 55, 0
1, 7737, Note_on_c, 0, 43, 56
1, 7753, Note_on_c, 0, 70, 0
1, 7789, Note_on_c, 0, 62, 0
1, 8021, Note_on_c, 0, 55, 43
1, 8029, Note_on_c, 0, 50, 36
1, 8041, Note_on_c, 0, 57, 32
1, 8121, Note_on_c, 0, 57, 0
1, 8141, Note_on_c, 0, 55, 0
1, 8645, Note_on_c, 0, 57, 56
1, 8785, Note_on_c, 0, 57, 0
1, 8809, Note_on_c, 0, 58, 62
1, 8889, Note_on_c, 0, 58, 0
1, 8961, Note_on_c, 0, 62, 68
1, 8973, Note_on_c, 0, 43, 0
1, 8989, Note_on_c, 0, 50, 0
1, 9069, Note_on_c, 0, 62, 0
1, 9121, Note_on_c, 0, 66, 69
1, 9237, Note_on_c, 0, 66, 0
1, 9281, Note_on_c, 0, 69, 80
1, 9413, Note_on_c, 0, 69, 0
1, 9465, Note_on_c, 0, 70, 68
1, 9589, Note_on_c, 0, 70, 0
1, 9641, Note_on_c, 0, 72, 62
1, 9881, Note_on_c, 0, 36, 42
1, 9885, Note_on_c, 0, 84, 53
1, 9893, Control_c, 0, 64, 0
1, 9901, Note_on_c, 0, 52, 36
1, 10025, Control_c, 0, 64, 127
1, 10061, Note_on_c, 0, 36, 0
1, 10173, Note_on_c, 0, 52, 0
1, 10189, Note_on_c, 0, 78, 56
1, 10517, Note_on_c, 0, 78, 0
1, 10529, Note_on_c, 0, 84, 0
1, 10565, Note_on_c, 0, 64, 38
1, 10569, Note_on_c, 0, 79, 44
1, 10581, Note_on_c, 0, 58, 33
1, 10777, Note_on_c, 0, 72, 0
1, 10889, Note_on_c, 0, 84, 50
1, 10893, Note_on_c, 0, 79, 0
1, 10937, Note_on_c, 0, 84, 0
1, 11401, Note_on_c, 0, 102, 51
1, 11445, Note_on_c, 0, 90, 29
1, 11661, Note_on_c, 0, 102, 0
1, 11693, Note_on_c, 0, 90, 0
1, 12225, Note_on_c, 0, 64, 0
1, 12281, Note_on_c, 0, 58, 0
1, 12733, Control_c, 0, 64, 0
1, 12745, Note_on_c, 0, 74, 66
1, 12765, Note_on_c, 0, 59, 46
1, 12765, Note_on_c, 0, 67, 48
1, 12765, Note_on_c, 0, 63, 40
1, 12793, Note_on_c, 0, 71, 39
1, 12853, Control_c, 0, 64, 127
1, 12905, Note_on_c, 0, 67, 0
1, 12913, Note_on_c, 0, 63, 0
1, 12917, Note_on_c, 0, 71, 0
1, 12945, Note_on_c, 0, 74, 0
1, 13125, Note_on_c, 0, 75, 67
1, 13137, Note_on_c, 0, 67, 56
1, 13137, Control_c, 0, 64, 0
1, 13145, Note_on_c, 0, 59, 0
1, 13157, Note_on_c, 0, 60, 45
1, 13277, Control_c, 0, 64, 127
1, 13309, Note_on_c, 0, 67, 0
1, 13349, Note_on_c, 0, 75, 0
1, 13461, Control_c, 0, 64, 0
1, 13469, Note_on_c, 0, 60, 0
1, 13473, Note_on_c, 0, 77, 68
1, 13477, Note_on_c, 0, 62, 49
1, 13481, Note_on_c, 0, 68, 43
1, 13489, Note_on_c, 0, 71, 52
1, 13553, Control_c, 0, 64, 127
1, 13653, Note_on_c, 0, 71, 0
1, 13681, Note_on_c, 0, 68, 0
1, 13693, Note_on_c, 0, 77, 0
1, 13805, Note_on_c, 0, 62, 0
1, 13821, Note_on_c, 0, 75, 60
1, 13829, Note_on_c, 0, 67, 50
1, 13841, Note_on_c, 0, 70, 50
1, 13849, Note_on_c, 0, 60, 38
1, 14017, Note_on_c, 0, 67, 0
1, 14069, Note_on_c, 0, 75, 0
1, 14137, Note_on_c, 0, 70, 0
1, 14221, Note_on_c, 0, 60, 0
1, 14229, Control_c, 0, 64, 0
1, 14241, Note_on_c, 0, 74, 61
1, 14249, Note_on_c, 0, 63, 45
1, 14261, Note_on_c, 0, 58, 39
1, 14261, Note_on_c, 0, 69, 50
1, 14325, Control_c, 0, 64, 127
1, 14361, Note_on_c, 0, 58, 0
1, 14433, Note_on_c, 0, 69, 0
1, 14457, Note_on_c, 0, 74, 0
1, 14473, Note_on_c, 0, 63, 0
1, 14861, Note_on_c, 0, 72, 52
1, 14865, Note_on_c, 0, 66, 37
1, 14889, Note_on_c, 0, 51, 26
1, 14889, Note_on_c, 0, 62, 33
1, 14897, Note_on_c, 0, 41, 39
1, 14901, Control_c, 0, 64, 0
1, 15129, Control_c, 0, 64, 127
1, 15337, Note_on_c, 0, 51, 0
1, 15401, Note_on_c, 0, 41, 0
1, 15405, Note_on_c, 0, 48, 35
1, 15661, Note_on_c, 0, 62, 0
1, 15733, Note_on_c, 0, 72, 0
1, 15749, Note_on_c, 0, 48, 0
1, 15793, Note_on_c, 0, 69, 57
1, 15981, Note_on_c, 0, 66, 0
1, 16001, Note_on_c, 0, 69, 0
1, 16105, Note_on_c, 0, 70, 58
1, 16109, Control_c, 0, 64, 0
1, 16129, Note_on_c, 0, 46, 48
1, 16129, Note_on_c, 0, 65, 39
1, 16137, Note_on_c, 0, 62, 33
1, 16285, Control_c, 0, 64, 127
1, 16357, Note_on_c, 0, 70, 0
1, 16373, Note_on_c, 0, 62, 0
1, 16417, Note_on_c, 0, 72, 66
1, 16433, Note_on_c, 0, 53, 46
1, 16437, Note_on_c, 0, 65, 0
1, 16437, Note_on_c, 0, 70, 46
1, 16521, Note_on_c, 0, 53, 0
1, 16521, Note_on_c, 0, 62, 1
1, 16577, Note_on_c, 0, 46, 0
1, 16605, Note_on_c, 0, 72, 0
1, 16657, Note_on_c, 0, 62, 0
1, 16661, Note_on_c, 0, 70, 0
1, 16757, Control_c, 0, 64, 0
1, 16777, Note_on_c, 0, 74, 66
1, 16789, Note_on_c, 0, 62, 50
1, 16793, Note_on_c, 0, 67, 50
1, 16797, Note_on_c, 0, 70, 43
1, 16805, Note_on_c, 0, 39, 43
1, 16845, Note_on_c, 0, 62, 0
1, 16865, Control_c, 0, 64, 127
1, 16893, Note_on_c, 0, 67, 0
1, 16917, Note_on_c, 0, 70, 0
1, 16945, Note_on_c, 0, 74, 0
1, 17153, Note_on_c, 0, 39, 0
1, 17157, Note_on_c, 0, 86, 72
1, 17169, Note_on_c, 0, 79, 71
1, 17173, Note_on_c, 0, 46, 45
1, 17533, Note_on_c, 0, 86, 0
1, 17565, Note_on_c, 0, 82, 51
1, 17565, Note_on_c, 0, 74, 50
1, 17601, Note_on_c, 0, 55, 39
1, 17625, Note_on_c, 0, 46, 0
1, 17717, Note_on_c, 0, 55, 0
1, 18069, Note_on_c, 0, 58, 39
1, 18241, Note_on_c, 0, 79, 0
1, 18265, Note_on_c, 0, 74, 0
1, 18265, Note_on_c, 0, 82, 0
1, 18489, Note_on_c, 0, 58, 0
1, 18917, Control_c, 0, 64, 0
1, 18921, Note_on_c, 0, 63, 50
1, 18925, Note_on_c, 0, 78, 63
1, 18925, Note_on_c, 0, 83, 58
1, 18937, Note_on_c, 0, 71, 48
1, 18937, Note_on_c, 0, 58, 41
1, 18937, Note_on_c, 0, 59, 58
1, 19021, Control_c, 0, 64, 127
1, 19149, Note_on_c, 0, 59, 0
1, 19165, Note_on_c, 0, 63, 0
1, 19169, Note_on_c, 0, 58, 0
1, 19289, Note_on_c, 0, 71, 0
1, 19301, Note_on_c, 0, 83, 0
1, 19309, Note_on_c, 0, 63, 47
1, 19321, Note_on_c, 0, 58, 43
1, 19329, Note_on_c, 0, 59, 51
1, 19361, Note_on_c, 0, 78, 0
1, 19561, Note_on_c, 0, 59, 0
1, 19609, Note_on_c, 0, 85, 68
1, 19621, Note_on_c, 0, 73, 56
1, 19621, Note_on_c, 0, 80, 66
1, 19661, Note_on_c, 0, 63, 0
1, 19677, Note_on_c, 0, 58, 0
1, 19777, Note_on_c, 0, 73, 0
1, 19793, Note_on_c, 0, 80, 0
1, 19817, Note_on_c, 0, 85, 0
1, 19913, Note_on_c, 0, 63, 50
1, 19921, Note_on_c, 0, 87, 72
1, 19929, Note_on_c, 0, 75, 65
1, 19929, Note_on_c, 0, 59, 56
1, 19933, Note_on_c, 0, 82, 63
1, 19937, Note_on_c, 0, 58, 41
1, 20105, Note_on_c, 0, 87, 0
1, 20117, Note_on_c, 0, 82, 0
1, 20125, Note_on_c, 0, 75, 0
1, 20137, Note_on_c, 0, 63, 0
1, 20153, Note_on_c, 0, 59, 0
1, 20157, Note_on_c, 0, 58, 0
1, 20269, Note_on_c, 0, 63, 41
1, 20273, Note_on_c, 0, 85, 60
1, 20281, Note_on_c, 0, 73, 48
1, 20289, Control_c, 0, 64, 0
1, 20289, Note_on_c, 0, 56, 49
1, 20289, Note_on_c, 0, 80, 56
1, 20293, Note_on_c, 0, 59, 41
1, 20397, Control_c, 0, 64, 127
1, 20489, Note_on_c, 0, 56, 0
1, 20545, Note_on_c, 0, 63, 0
1, 20545, Note_on_c, 0, 59, 0
1, 20657, Note_on_c, 0, 63, 47
1, 20689, Note_on_c, 0, 56, 41
1, 20693, Note_on_c, 0, 59, 42
1, 20849, Note_on_c, 0, 80, 0
1, 20865, Note_on_c, 0, 85, 0
1, 20877, Note_on_c, 0, 73, 0
1, 20949, Note_on_c, 0, 59, 0
1, 20973, Note_on_c, 0, 63, 0
1, 21045, Note_on_c, 0, 56, 0
1, 21493, Note_on_c, 0, 63, 36
1, 21509, Note_on_c, 0, 71, 34
1, 21509, Note_on_c, 0, 83, 42
1, 21529, Note_on_c, 0, 56, 29
1, 21545, Note_on_c, 0, 59, 32
1, 21597, Note_on_c, 0, 59, 0
1, 21609, Note_on_c, 0, 63, 0
1, 21645, Note_on_c, 0, 83, 0
1, 21665, Note_on_c, 0, 56, 0
1, 21721, Note_on_c, 0, 71, 0
1, 22077, Control_c, 0, 64, 0
1, 22109, Note_on_c, 0, 82, 49
1, 22133, Note_on_c, 0, 70, 27
1, 22141, Note_on_c, 0, 42, 36
1, 22165, Note_on_c, 0, 75, 36
1, 22173, Control_c, 0, 64, 127
1, 22461, Note_on_c, 0, 49, 47
1, 22465, Note_on_c, 0, 75, 0
1, 22465, Note_on_c, 0, 70, 0
1, 22673, Note_on_c, 0, 82, 0
1, 22749, Note_on_c, 0, 42, 0
1, 22749, Note_on_c, 0, 49, 0
1, 22749, Note_on_c, 0, 54, 52
1, 22821, Note_on_c, 0, 54, 0
1, 23073, Note_on_c, 0, 85, 63
1, 23093, Note_on_c, 0, 58, 42
1, 23093, Note_on_c, 0, 75, 44
1, 23109, Note_on_c, 0, 80, 43
1, 23133, Note_on_c, 0, 75, 0
1, 23137, Note_on_c, 0, 58, 0
1, 23141, Note_on_c, 0, 85, 0
1, 23141, Note_on_c, 0, 80, 0
1, 23473, Note_on_c, 0, 78, 48
1, 23481, Note_on_c, 0, 66, 39
1, 23493, Note_on_c, 0, 47, 39
1, 23513, Control_c, 0, 64, 0
1, 23657, Control_c, 0, 64, 127
1, 23745, Note_on_c, 0, 78, 0
1, 23769, Note_on_c, 0, 66, 0
1, 23805, Note_on_c, 0, 54, 45
1, 24025, Note_on_c, 0, 54, 0
1, 24169, Note_on_c, 0, 54, 26
1, 24201, Note_on_c, 0, 61, 37
1, 24277, Note_on_c, 0, 61, 0
1, 24317, Note_on_c, 0, 54, 0
1, 24585, Note_on_c, 0, 70, 54
1, 24621, Note_on_c, 0, 54, 31
1, 24673, Note_on_c, 0, 47, 0
1, 24725, Note_on_c, 0, 70, 0
1, 24861, Note_on_c, 0, 54, 0
1, 25941, Control_c, 0, 64, 0
1, 25957, Note_on_c, 0, 68, 56
1, 25961, Note_on_c, 0, 48, 40
1, 25961, Note_on_c, 0, 63, 54
1, 25961, Note_on_c, 0, 58, 52
1, 26109, Control_c, 0, 64, 127
1, 26193, Note_on_c, 0, 68, 0
1, 26265, Note_on_c, 0, 68, 64
1, 26413, Note_on_c, 0, 68, 0
1, 26497, Note_on_c, 0, 48, 0
1, 26557, Note_on_c, 0, 68, 71
1, 26677, Note_on_c, 0, 68, 0
1, 26857, Note_on_c, 0, 68, 62
1, 26961, Note_on_c, 0, 58, 0
1, 27049, Note_on_c, 0, 63, 0
1, 27073, Note_on_c, 0, 68, 0
1, 27197, Note_on_c, 0, 68, 51
1, 27213, Note_on_c, 0, 41, 45
1, 27217, Note_on_c, 0, 62, 52
1, 27221, Control_c, 0, 64, 0
1, 27233, Note_on_c, 0, 57, 29
1, 27237, Note_on_c, 0, 51, 27
1, 27425, Control_c, 0, 64, 56
1, 27425, Control_c, 0, 64, 127
1, 27529, Note_on_c, 0, 62, 0
1, 27621, Note_on_c, 0, 61, 57
1, 27813, Note_on_c, 0, 57, 0
1, 27857, Note_on_c, 0, 51, 0
1, 27885, Note_on_c, 0, 41, 0
1, 27937, Note_on_c, 0, 61, 0
1, 28073, Note_on_c, 0, 68, 0
1, 28117, Note_on_c, 0, 60, 46
1, 28129, Note_on_c, 0, 51, 34
1, 28129, Control_c, 0, 64, 0
1, 28129, Note_on_c, 0, 57, 39
1, 28173, Note_on_c, 0, 41, 30
1, 28397, Control_c, 0, 64, 127
1, 28581, Note_on_c, 0, 66, 55
1, 28737, Note_on_c, 0, 41, 0
1, 28877, Note_on_c, 0, 51, 0
1, 28901, Note_on_c, 0, 57, 0
1, 28957, Note_on_c, 0, 60, 0
1, 29005, Note_on_c, 0, 66, 0
1, 29221, Control_c, 0, 64, 0
1, 29277, Note_on_c, 0, 55, 38
1, 29277, Note_on_c, 0, 64, 51
1, 29281, Note_on_c, 0, 46, 43
1, 29289, Note_on_c, 0, 60, 42
1, 29393, Control_c, 0, 64, 127
1, 29401, Note_on_c, 0, 55, 0
1, 29517, Note_on_c, 0, 64, 0
1, 29525, Note_on_c, 0, 60, 0
1, 29621, Note_on_c, 0, 65, 68
1, 29625, Note_on_c, 0, 60, 50
1, 29645, Note_on_c, 0, 53, 45
1, 29653, Note_on_c, 0, 60, 0
1, 29681, Note_on_c, 0, 65, 0
1, 30045, Note_on_c, 0, 81, 79
1, 30053, Note_on_c, 0, 74, 74
1, 30089, Note_on_c, 0, 53, 0
1, 30101, Note_on_c, 0, 57, 50
1, 30113, Note_on_c, 0, 46, 0
1, 30341, Note_on_c, 0, 57, 0
1, 30385, Note_on_c, 0, 74, 0
1, 30389, Note_on_c, 0, 81, 0
1, 30421, Note_on_c, 0, 74, 42
1, 30425, Note_on_c, 0, 69, 66
1, 30433, Note_on_c, 0, 77, 68
1, 30493, Note_on_c, 0, 60, 27
1, 30529, Note_on_c, 0, 69, 0
1, 30609, Note_on_c, 0, 74, 0
1, 30637, Note_on_c, 0, 77, 0
1, 31277, Note_on_c, 0, 89, 64
1, 31281, Note_on_c, 0, 62, 48
1, 31297, Note_on_c, 0, 81, 31
1, 31317, Note_on_c, 0, 60, 0
1, 31381, Note_on_c, 0, 89, 0
1, 31433, Note_on_c, 0, 81, 0
1, 31741, Note_on_c, 0, 86, 52
1, 31753, Note_on_c, 0, 65, 39
1, 31785, Note_on_c, 0, 77, 23
1, 31865, Note_on_c, 0, 86, 0
1, 31909, Note_on_c, 0, 77, 0
1, 31949, Note_on_c, 0, 62, 0
1, 32241, Note_on_c, 0, 62, 27
1, 32241, Note_on_c, 0, 74, 35
1, 32245, Note_on_c, 0, 65, 0
1, 32245, Note_on_c, 0, 81, 40
1, 32601, Note_on_c, 0, 74, 0
1, 32945, Note_on_c, 0, 62, 0
1, 33045, Note_on_c, 0, 81, 0
1, 33873, Note_on_c, 0, 75, 56
1, 34593, Note_on_c, 0, 75, 0
1, 34601, Note_on_c, 0, 77, 48
1, 34737, Note_on_c, 0, 77, 0
1, 34741, Note_on_c, 0, 75, 55
1, 34853, Control_c, 0, 64, 0
1, 34885, Note_on_c, 0, 75, 0
1, 34921, Note_on_c, 0, 74, 53
1, 34921, Note_on_c, 0, 45, 35
1, 34989, Control_c, 0, 64, 127
1, 34993, Note_on_c, 0, 45, 0
1, 35145, Note_on_c, 0, 74, 0
1, 35401, Note_on_c, 0, 74, 61
1, 35445, Note_on_c, 0, 69, 53
1, 35469, Note_on_c, 0, 67, 62
1, 35561, Note_on_c, 0, 63, 61
1, 35689, Note_on_c, 0, 62, 55
1, 36093, Note_on_c, 0, 62, 0
1, 36201, Note_on_c, 0, 67, 0
1, 36221, Note_on_c, 0, 74, 0
1, 36337, Note_on_c, 0, 63, 0
1, 36421, Note_on_c, 0, 69, 0
1, 36469, Note_on_c, 0, 63, 38
1, 36485, Note_on_c, 0, 66, 41
1, 36493, Note_on_c, 0, 60, 32
1, 36493, Control_c, 0, 64, 0
1, 36521, Note_on_c, 0, 50, 38
1, 36649, Control_c, 0, 64, 127
1, 37117, Note_on_c, 0, 63, 0
1, 37257, Note_on_c, 0, 60, 0
1, 37365, Note_on_c, 0, 66, 0
1, 37633, Note_on_c, 0, 65, 68
1, 37637, Note_on_c, 0, 72, 72
1, 37641, Control_c, 0, 64, 0
1, 37645, Note_on_c, 0, 62, 60
1, 37653, Note_on_c, 0, 59, 56
1, 37865, Control_c, 0, 64, 127
1, 38053, Note_on_c, 0, 59, 0
1, 38065, Note_on_c, 0, 58, 49
1, 38149, Control_c, 0, 64, 0
1, 38185, Control_c, 0, 64, 127
1, 38193, Note_on_c, 0, 58, 0
1, 38209, Note_on_c, 0, 72, 0
1, 38217, Note_on_c, 0, 57, 54
1, 38237, Note_on_c, 0, 62, 0
1, 38265, Note_on_c, 0, 65, 0
1, 38349, Note_on_c, 0, 57, 0
1, 38373, Note_on_c, 0, 56, 50
1, 38565, Note_on_c, 0, 55, 57
1, 38565, Note_on_c, 0, 71, 66
1, 38573, Note_on_c, 0, 62, 56
1, 38601, Note_on_c, 0, 56, 0
1, 38661, Note_on_c, 0, 50, 0
1, 38669, Note_on_c, 0, 71, 0
1, 38821, Note_on_c, 0, 62, 0
1, 38837, Control_c, 0, 64, 0
1, 38841, Note_on_c, 0, 70, 71
1, 38841, Note_on_c, 0, 43, 62
1, 38865, Note_on_c, 0, 55, 0
1, 39145, Note_on_c, 0, 58, 57
1, 39153, Control_c, 0, 64, 127
1, 39153, Note_on_c, 0, 50, 54
1, 39289, Note_on_c, 0, 43, 0
1, 39329, Note_on_c, 0, 58, 0
1, 39409, Note_on_c, 0, 50, 0
1, 39425, Note_on_c, 0, 55, 54
1, 39429, Note_on_c, 0, 62, 63
1, 39485, Note_on_c, 0, 62, 0
1, 39513, Note_on_c, 0, 70, 0
1, 39617, Note_on_c, 0, 55, 0
1, 39701, Note_on_c, 0, 58, 57
1, 39721, Note_on_c, 0, 70, 71
1, 39777, Note_on_c, 0, 58, 0
1, 39985, Note_on_c, 0, 70, 0
1, 40049, Control_c, 0, 64, 0
1, 40069, Note_on_c, 0, 58, 48
1, 40069, Note_on_c, 0, 72, 54
1, 40069, Note_on_c, 0, 64, 52
1, 40073, Note_on_c, 0, 68, 54
1, 40097, Note_on_c, 0, 48, 38
1, 40193, Note_on_c, 0, 72, 0
1, 40233, Control_c, 0, 64, 127
1, 40329, Note_on_c, 0, 68, 0
1, 40381, Note_on_c, 0, 64, 0
1, 40401, Note_on_c, 0, 48, 0
1, 40425, Note_on_c, 0, 58, 0
1, 40425, Note_on_c, 0, 73, 68
1, 40445, Note_on_c, 0, 55, 41
1, 40489, Note_on_c, 0, 55, 0
1, 40545, Note_on_c, 0, 73, 0
1, 40681, Note_on_c, 0, 55, 8
1, 40857, Note_on_c, 0, 55, 0
1, 40953, Note_on_c, 0, 55, 47
1, 40969, Note_on_c, 0, 73, 64
1, 41217, Note_on_c, 0, 55, 0
1, 41273, Note_on_c, 0, 73, 0
1, 41337, Note_on_c, 0, 74, 76
1, 41417, Note_on_c, 0, 74, 0
1, 41649, Control_c, 0, 64, 0
1, 41661, Note_on_c, 0, 74, 77
1, 41689, Note_on_c, 0, 58, 40
1, 41693, Note_on_c, 0, 67, 55
1, 41701, Note_on_c, 0, 70, 46
1, 41701, Note_on_c, 0, 48, 41
1, 41713, Note_on_c, 0, 63, 31
1, 41757, Control_c, 0, 64, 127
1, 41813, Note_on_c, 0, 74, 0
1, 41921, Note_on_c, 0, 63, 0
1, 41929, Note_on_c, 0, 70, 0
1, 41929, Note_on_c, 0, 58, 0
1, 41949, Note_on_c, 0, 67, 0
1, 41957, Note_on_c, 0, 75, 82
1, 41969, Note_on_c, 0, 55, 49
1, 42089, Note_on_c, 0, 75, 0
1, 42197, Note_on_c, 0, 55, 0
1, 42221, Note_on_c, 0, 58, 46
1, 42229, Note_on_c, 0, 48, 0
1, 42229, Note_on_c, 0, 75, 81
1, 42249, Note_on_c, 0, 58, 0
1, 42321, Note_on_c, 0, 75, 0
1, 42393, Note_on_c, 0, 49, 25
1, 42453, Note_on_c, 0, 49, 0
1, 42517, Note_on_c, 0, 77, 79
1, 42617, Note_on_c, 0, 77, 0
1, 42865, Control_c, 0, 64, 0
1, 42881, Note_on_c, 0, 77, 56
1, 42901, Note_on_c, 0, 69, 36
1, 42901, Note_on_c, 0, 41, 48
1, 42901, Note_on_c, 0, 72, 40
1, 42909, Note_on_c, 0, 65, 37
1, 42961, Note_on_c, 0, 41, 0
1, 42973, Control_c, 0, 64, 127
1, 43105, Note_on_c, 0, 69, 0
1, 43125, Note_on_c, 0, 65, 0
1, 43137, Note_on_c, 0, 77, 0
1, 43149, Note_on_c, 0, 72, 0
1, 43285, Note_on_c, 0, 79, 60
1, 43289, Note_on_c, 0, 51, 42
1, 43485, Note_on_c, 0, 79, 0
1, 43809, Note_on_c, 0, 77, 49
1, 43825, Note_on_c, 0, 65, 34
1, 43837, Note_on_c, 0, 57, 37
1, 43837, Note_on_c, 0, 69, 37
1, 43845, Note_on_c, 0, 75, 31
1, 44209, Note_on_c, 0, 75, 0
1, 44297, Note_on_c, 0, 77, 0
1, 44377, Note_on_c, 0, 75, 61
1, 44409, Note_on_c, 0, 51, 0
1, 44433, Note_on_c, 0, 69, 0
1, 44437, Note_on_c, 0, 57, 0
1, 44489, Note_on_c, 0, 65, 0
1, 44629, Note_on_c, 0, 75, 0
1, 44669, Note_on_c, 0, 74, 68
1, 44917, Note_on_c, 0, 74, 0
1, 44917, Note_on_c, 0, 72, 62
1, 45181, Note_on_c, 0, 69, 43
1, 45185, Note_on_c, 0, 72, 0
1, 45185, Control_c, 0, 64, 0
1, 45189, Note_on_c, 0, 65, 30
1, 45189, Note_on_c, 0, 62, 37
1, 45197, Note_on_c, 0, 60, 38
1, 45373, Control_c, 0, 64, 127
1, 45441, Note_on_c, 0, 65, 0
1, 45449, Note_on_c, 0, 70, 47
1, 45665, Note_on_c, 0, 69, 0
1, 45717, Note_on_c, 0, 70, 0
1, 45741, Control_c, 0, 64, 0
1, 45745, Note_on_c, 0, 72, 46
1, 45761, Note_on_c, 0, 53, 29
1, 45837, Control_c, 0, 64, 127
1, 46101, Note_on_c, 0, 62, 0
1, 46141, Note_on_c, 0, 60, 0
1, 46205, Note_on_c, 0, 53, 0
1, 46305, Note_on_c, 0, 72, 0
1, 46325, Note_on_c, 0, 74, 59
1, 46609, Note_on_c, 0, 74, 0
1, 46653, Note_on_c, 0, 75, 43
1, 46665, Control_c, 0, 64, 0
1, 46677, Note_on_c, 0, 39, 39
1, 46761, Control_c, 0, 64, 127
1, 46889, Note_on_c, 0, 75, 0
1, 46909, Note_on_c, 0, 39, 0
1, 46909, Note_on_c, 0, 77, 54
1, 46917, Note_on_c, 0, 46, 42
1, 47033, Note_on_c, 0, 77, 0
1, 47133, Note_on_c, 0, 46, 0
1, 47149, Note_on_c, 0, 79, 58
1, 47157, Note_on_c, 0, 55, 44
1, 47353, Note_on_c, 0, 79, 0
1, 47381, Note_on_c, 0, 86, 79
1, 47389, Note_on_c, 0, 58, 39
1, 47401, Note_on_c, 0, 55, 0
1, 47669, Note_on_c, 0, 79, 62
1, 47693, Note_on_c, 0, 86, 0
1, 47697, Note_on_c, 0, 62, 39
1, 47749, Note_on_c, 0, 62, 0
1, 48381, Note_on_c, 0, 80, 57
1, 48389, Note_on_c, 0, 67, 25
1, 48457, Note_on_c, 0, 67, 0
1, 48505, Note_on_c, 0, 79, 0
1, 48561, Note_on_c, 0, 80, 0
1, 48581, Note_on_c, 0, 81, 68
1, 48625, Note_on_c, 0, 58, 0
1, 48717, Note_on_c, 0, 81, 0
1, 48769, Note_on_c, 0, 82, 69
1, 48929, Note_on_c, 0, 82, 0
1, 48965, Control_c, 0, 64, 0
1, 48981, Note_on_c, 0, 44, 48
1, 48981, Note_on_c, 0, 83, 51
1, 49001, Note_on_c, 0, 54, 38
1, 49113, Control_c, 0, 64, 127
1, 49117, Note_on_c, 0, 44, 0
1, 49157, Note_on_c, 0, 54, 0
1, 49385, Note_on_c, 0, 63, 39
1, 49389, Note_on_c, 0, 59, 49
1, 49393, Note_on_c, 0, 58, 43
1, 49401, Note_on_c, 0, 54, 30
1, 49517, Note_on_c, 0, 54, 0
1, 49545, Note_on_c, 0, 63, 0
1, 49553, Note_on_c, 0, 59, 0
1, 49573, Note_on_c, 0, 58, 0
1, 49669, Note_on_c, 0, 83, 0
1, 49721, Note_on_c, 0, 85, 74
1, 49729, Note_on_c, 0, 63, 49
1, 49737, Note_on_c, 0, 73, 61
1, 49749, Note_on_c, 0, 59, 48
1, 49753, Note_on_c, 0, 58, 39
1, 49757, Note_on_c, 0, 54, 32
1, 49953, Note_on_c, 0, 54, 0
1, 49953, Note_on_c, 0, 63, 0
1, 49961, Note_on_c, 0, 59, 0
1, 49969, Note_on_c, 0, 73, 0
1, 49997, Note_on_c, 0, 58, 0
1, 50001, Note_on_c, 0, 85, 0
1, 50065, Note_on_c, 0, 54, 40
1, 50069, Note_on_c, 0, 63, 52
1, 50081, Note_on_c, 0, 87, 77
1, 50085, Note_on_c, 0, 75, 57
1, 50085, Note_on_c, 0, 58, 24
1, 50093, Note_on_c, 0, 59, 42
1, 50273, Note_on_c, 0, 87, 0
1, 50325, Note_on_c, 0, 54, 0
1, 50373, Note_on_c, 0, 75, 0
1, 50393, Note_on_c, 0, 58, 0
1, 50453, Note_on_c, 0, 85, 63
1, 50457, Note_on_c, 0, 73, 50
1, 50469, Note_on_c, 0, 53, 47
1, 50477, Control_c, 0, 64, 0
1, 50653, Control_c, 0, 64, 127
1, 50709, Note_on_c, 0, 59, 0
1, 50725, Note_on_c, 0, 63, 0
1, 50789, Note_on_c, 0, 53, 0
1, 50897, Note_on_c, 0, 63, 38
1, 50913, Note_on_c, 0, 59, 49
1, 50929, Note_on_c, 0, 53, 33
1, 51053, Note_on_c, 0, 53, 0
1, 51129, Note_on_c, 0, 59, 0
1, 51153, Note_on_c, 0, 63, 0
1, 51153, Note_on_c, 0, 85, 0
1, 51233, Note_on_c, 0, 73, 0
1, 51689, Note_on_c, 0, 82, 57
1, 51697, Note_on_c, 0, 63, 41
1, 51697, Note_on_c, 0, 70, 44
1, 51713, Note_on_c, 0, 59, 34
1, 51745, Note_on_c, 0, 63, 0
1, 51761, Note_on_c, 0, 59, 0
1, 51861, Note_on_c, 0, 82, 0
1, 51881, Note_on_c, 0, 70, 0
1, 52213, Note_on_c, 0, 83, 48
1, 52225, Note_on_c, 0, 71, 28
1, 52325, Note_on_c, 0, 83, 0
1, 52365, Note_on_c, 0, 71, 0
1, 52465, Note_on_c, 0, 82, 58
1, 52477, Note_on_c, 0, 70, 47
1, 52489, Control_c, 0, 64, 0
1, 52513, Note_on_c, 0, 42, 38
1, 52593, Control_c, 0, 64, 127
1, 52729, Note_on_c, 0, 49, 57
1, 52913, Note_on_c, 0, 70, 0
1, 53001, Note_on_c, 0, 42, 0
1, 53005, Note_on_c, 0, 49, 0
1, 53009, Note_on_c, 0, 54, 54
1, 53013, Note_on_c, 0, 82, 0
1, 53093, Note_on_c, 0, 54, 0
1, 53321, Note_on_c, 0, 85, 61
1, 53325, Note_on_c, 0, 58, 54
1, 53337, Note_on_c, 0, 73, 46
1, 53461, Note_on_c, 0, 58, 0
1, 53477, Note_on_c, 0, 85, 0
1, 53501, Note_on_c, 0, 73, 0
1, 53709, Note_on_c, 0, 47, 55
1, 53709, Control_c, 0, 64, 0
1, 53793, Control_c, 0, 64, 127
1, 54041, Note_on_c, 0, 66, 48
1, 54057, Control_c, 0, 64, 0
1, 54057, Note_on_c, 0, 63, 49
1, 54057, Note_on_c, 0, 61, 48
1, 54061, Note_on_c, 0, 57, 35
1, 54069, Note_on_c, 0, 54, 38
1, 54089, Note_on_c, 0, 61, 0
1, 54089, Note_on_c, 0, 63, 0
1, 54101, Note_on_c, 0, 57, 0
1, 54121, Note_on_c, 0, 66, 0
1, 54133, Note_on_c, 0, 54, 0
1, 54385, Note_on_c, 0, 66, 51
1, 54389, Note_on_c, 0, 54, 42
1, 54413, Note_on_c, 0, 61, 40
1, 54417, Note_on_c, 0, 57, 30
1, 54425, Control_c, 0, 64, 127
1, 54433, Note_on_c, 0, 63, 31
1, 54569, Note_on_c, 0, 66, 0
1, 54613, Note_on_c, 0, 57, 0
1, 54637, Note_on_c, 0, 47, 0
1, 54653, Note_on_c, 0, 63, 0
1, 54709, Note_on_c, 0, 68, 49
1, 54717, Note_on_c, 0, 47, 34
1, 54809, Note_on_c, 0, 47, 0
1, 55041, Note_on_c, 0, 54, 0
1, 55045, Note_on_c, 0, 48, 52
1, 55049, Control_c, 0, 64, 0
1, 55245, Note_on_c, 0, 61, 0
1, 55261, Note_on_c, 0, 68, 0
1, 55349, Note_on_c, 0, 61, 63
1, 55353, Note_on_c, 0, 68, 52
1, 55369, Note_on_c, 0, 63, 36
1, 55381, Note_on_c, 0, 61, 0
1, 55389, Note_on_c, 0, 68, 0
1, 55405, Note_on_c, 0, 63, 0
1, 55629, Control_c, 0, 64, 127
1, 55665, Note_on_c, 0, 68, 49
1, 55673, Note_on_c, 0, 61, 48
1, 55693, Note_on_c, 0, 63, 47
1, 55785, Note_on_c, 0, 48, 0
1, 55925, Note_on_c, 0, 68, 0
1, 55929, Note_on_c, 0, 61, 0
1, 55949, Note_on_c, 0, 63, 0
1, 56005, Note_on_c, 0, 61, 42
1, 56005, Note_on_c, 0, 66, 55
1, 56021, Note_on_c, 0, 63, 33
1, 56217, Note_on_c, 0, 63, 0
1, 56229, Note_on_c, 0, 61, 0
1, 56313, Note_on_c, 0, 66, 0
1, 56349, Note_on_c, 0, 63, 41
1, 56353, Note_on_c, 0, 57, 48
1, 56369, Note_on_c, 0, 61, 45
1, 56373, Control_c, 0, 64, 0
1, 56389, Note_on_c, 0, 41, 35
1, 56393, Note_on_c, 0, 51, 20
1, 56581, Control_c, 0, 64, 127
1, 56757, Note_on_c, 0, 51, 0
1, 56757, Note_on_c, 0, 48, 39
1, 56877, Note_on_c, 0, 57, 0
1, 56909, Note_on_c, 0, 61, 0
1, 57129, Note_on_c, 0, 61, 39
1, 57141, Note_on_c, 0, 57, 31
1, 57157, Note_on_c, 0, 51, 24
1, 57553, Note_on_c, 0, 66, 50
1, 57737, Note_on_c, 0, 41, 0
1, 57785, Note_on_c, 0, 48, 0
1, 57849, Note_on_c, 0, 57, 0
1, 57857, Note_on_c, 0, 51, 0
1, 57925, Note_on_c, 0, 63, 0
1, 57933, Note_on_c, 0, 66, 0
1, 57973, Note_on_c, 0, 61, 0
1, 58145, Control_c, 0, 64, 0
1, 58177, Note_on_c, 0, 46, 42
1, 58193, Note_on_c, 0, 55, 34
1, 58197, Note_on_c, 0, 64, 42
1, 58201, Note_on_c, 0, 60, 41
1, 58237, Control_c, 0, 64, 127
1, 58305, Note_on_c, 0, 55, 0
1, 58401, Note_on_c, 0, 64, 0
1, 58433, Note_on_c, 0, 60, 0
1, 58493, Control_c, 0, 64, 0
1, 58525, Note_on_c, 0, 65, 57
1, 58549, Note_on_c, 0, 53, 42
1, 58553, Note_on_c, 0, 60, 28
1, 58553, Note_on_c, 0, 62, 32
1, 58581, Control_c, 0, 64, 127
1, 58597, Note_on_c, 0, 62, 0
1, 58597, Note_on_c, 0, 60, 0
1, 58621, Note_on_c, 0, 65, 0
1, 58861, Note_on_c, 0, 69, 54
1, 58865, Note_on_c, 0, 62, 49
1, 58869, Note_on_c, 0, 53, 0
1, 58881, Note_on_c, 0, 65, 40
1, 58889, Note_on_c, 0, 46, 0
1, 58893, Note_on_c, 0, 62, 0
1, 58893, Note_on_c, 0, 57, 44
1, 58913, Note_on_c, 0, 65, 0
1, 58933, Note_on_c, 0, 69, 0
1, 59225, Note_on_c, 0, 57, 0
1, 60289, Note_on_c, 0, 72, 56
1, 60297, Note_on_c, 0, 65, 48
1, 60305, Note_on_c, 0, 62, 36
1, 60309, Note_on_c, 0, 57, 45
1, 60393, Note_on_c, 0, 62, 0
1, 60409, Note_on_c, 0, 65, 0
1, 60469, Note_on_c, 0, 72, 0
1, 60633, Control_c, 0, 64, 0
1, 60645, Note_on_c, 0, 65, 45
1, 60653, Note_on_c, 0, 74, 55
1, 60653, Note_on_c, 0, 70, 51
1, 60661, Note_on_c, 0, 57, 0
1, 60661, Note_on_c, 0, 67, 50
1, 60665, Note_on_c, 0, 58, 49
1, 60689, Control_c, 0, 64, 127
1, 60697, Note_on_c, 0, 67, 0
1, 60713, Note_on_c, 0, 65, 0
1, 60737, Note_on_c, 0, 70, 0
1, 60745, Note_on_c, 0, 74, 0
1, 61065, Note_on_c, 0, 77, 63
1, 61073, Note_on_c, 0, 70, 54
1, 61073, Note_on_c, 0, 62, 52
1, 61089, Note_on_c, 0, 74, 55
1, 61093, Note_on_c, 0, 67, 31
1, 61133, Note_on_c, 0, 67, 0
1, 61157, Note_on_c, 0, 58, 0
1, 61169, Note_on_c, 0, 74, 0
1, 61193, Note_on_c, 0, 70, 0
1, 61221, Note_on_c, 0, 77, 0
1, 61353, Note_on_c, 0, 62, 0
1, 61461, Note_on_c, 0, 81, 62
1, 61473, Note_on_c, 0, 74, 63
1, 61481, Note_on_c, 0, 70, 49
1, 61485, Note_on_c, 0, 65, 55
1, 61497, Note_on_c, 0, 77, 43
1, 61509, Note_on_c, 0, 70, 0
1, 61533, Note_on_c, 0, 77, 0
1, 61553, Note_on_c, 0, 74, 0
1, 61593, Note_on_c, 0, 81, 0
1, 61721, Note_on_c, 0, 65, 0
1, 62061, Note_on_c, 0, 84, 71
1, 62305, Note_on_c, 0, 84, 0
1, 62837, Note_on_c, 0, 81, 75
1, 62857, Control_c, 0, 64, 0
1, 62869, Note_on_c, 0, 74, 66
1, 62881, Note_on_c, 0, 59, 36
1, 62893, Note_on_c, 0, 62, 34
1, 62901, Note_on_c, 0, 52, 38
1, 62905, Note_on_c, 0, 69, 47
1, 62973, Control_c, 0, 64, 127
1, 63137, Note_on_c, 0, 62, 0
1, 63145, Note_on_c, 0, 59, 0
1, 63161, Note_on_c, 0, 52, 0
1, 63525, Control_c, 0, 64, 0
1, 63533, Note_on_c, 0, 33, 68
1, 63589, Control_c, 0, 64, 127
1, 63617, Note_on_c, 0, 33, 0
1, 63633, Note_on_c, 0, 69, 0
1, 63721, Note_on_c, 0, 74, 0
1, 63749, Note_on_c, 0, 81, 0
1, 64077, Note_on_c, 0, 84, 86
1, 64097, Note_on_c, 0, 81, 81
1, 64101, Note_on_c, 0, 77, 86
1, 64101, Note_on_c, 0, 61, 66
1, 64105, Note_on_c, 0, 55, 66
1, 64113, Note_on_c, 0, 66, 75
1, 64117, Note_on_c, 0, 72, 66
1, 64149, Note_on_c, 0, 72, 0
1, 64177, Note_on_c, 0, 72, 22
1, 64345, Note_on_c, 0, 66, 0
1, 64373, Note_on_c, 0, 55, 0
1, 64385, Note_on_c, 0, 61, 0
1, 64793, Note_on_c, 0, 33, 79
1, 64981, Note_on_c, 0, 33, 0
1, 65073, Note_on_c, 0, 84, 0
1, 65073, Note_on_c, 0, 81, 0
1, 65101, Note_on_c, 0, 77, 0
1, 65109, Note_on_c, 0, 72, 0
1, 65453, Note_on_c, 0, 81, 84
1, 65461, Note_on_c, 0, 54, 68
1, 65461, Note_on_c, 0, 73, 82
1, 65461, Note_on_c, 0, 61, 67
1, 65465, Note_on_c, 0, 69, 81
1, 65469, Note_on_c, 0, 78, 67
1, 65477, Control_c, 0, 64, 0
1, 65481, Note_on_c, 0, 59, 59
1, 65485, Note_on_c, 0, 64, 70
1, 65641, Control_c, 0, 64, 127
1, 65773, Note_on_c, 0, 64, 0
1, 65785, Note_on_c, 0, 59, 0
1, 65801, Note_on_c, 0, 61, 0
1, 65833, Note_on_c, 0, 54, 0
1, 66177, Note_on_c, 0, 73, 0
1, 66181, Note_on_c, 0, 33, 89
1, 66181, Note_on_c, 0, 45, 85
1, 66185, Note_on_c, 0, 69, 0
1, 66297, Note_on_c, 0, 33, 0
1, 66305, Note_on_c, 0, 81, 0
1, 66305, Note_on_c, 0, 78, 0
1, 66365, Note_on_c, 0, 45, 0
1, 66789, Note_on_c, 0, 92, 42
1, 66817, Note_on_c, 0, 92, 0
1, 66961, Note_on_c, 0, 93, 81
1, 66969, Note_on_c, 0, 85, 85
1, 66969, Note_on_c, 0, 90, 78
1, 66973, Note_on_c, 0, 81, 79
1, 66973, Note_on_c, 0, 61, 69
1, 66977, Note_on_c, 0, 64, 81
1, 66981, Note_on_c, 0, 54, 76
1, 66985, Note_on_c, 0, 59, 70
1, 66989, Note_on_c, 0, 91, 47
1, 67017, Note_on_c, 0, 91, 0
1, 67385, Note_on_c, 0, 64, 0
1, 67389, Note_on_c, 0, 59, 0
1, 67409, Note_on_c, 0, 61, 0
1, 67437, Note_on_c, 0, 54, 0
1, 67945, Note_on_c, 0, 45, 63
1, 67949, Note_on_c, 0, 33, 56
1, 67949, Control_c, 0, 64, 0
1, 68173, Control_c, 0, 64, 127
1, 68313, Note_on_c, 0, 93, 0
1, 68337, Note_on_c, 0, 33, 0
1, 68345, Note_on_c, 0, 90, 0
1, 68397, Note_on_c, 0, 45, 0
1, 68409, Note_on_c, 0, 85, 0
1, 68437, Note_on_c, 0, 81, 0
1, 69685, Note_on_c, 0, 81, 46
1, 69689, Note_on_c, 0, 66, 39
1, 69689, Note_on_c, 0, 78, 45
1, 69697, Note_on_c, 0, 74, 50
1, 69705, Note_on_c, 0, 69, 34
1, 69705, Control_c, 0, 64, 0
1, 69717, Note_on_c, 0, 62, 45
1, 69737, Note_on_c, 0, 59, 45
1, 69765, Note_on_c, 0, 55, 23
1, 69945, Control_c, 0, 64, 127
1, 70089, Note_on_c, 0, 55, 0
1, 70101, Note_on_c, 0, 59, 0
1, 70109, Note_on_c, 0, 69, 0
1, 70117, Note_on_c, 0, 81, 0
1, 70121, Note_on_c, 0, 66, 0
1, 70129, Note_on_c, 0, 74, 0
1, 70129, Note_on_c, 0, 62, 0
1, 70153, Note_on_c, 0, 78, 0
1, 70285, Note_on_c, 0, 66, 50
1, 70289, Note_on_c, 0, 78, 45
1, 70297, Note_on_c, 0, 81, 48
1, 70297, Note_on_c, 0, 74, 51
1, 70305, Note_on_c, 0, 62, 45
1, 70305, Note_on_c, 0, 69, 32
1, 70325, Note_on_c, 0, 59, 45
1, 70501, Note_on_c, 0, 69, 0
1, 70501, Note_on_c, 0, 66, 0
1, 70509, Note_on_c, 0, 59, 0
1, 70513, Note_on_c, 0, 62, 0
1, 70521, Note_on_c, 0, 74, 0
1, 70525, Note_on_c, 0, 81, 0
1, 70537, Note_on_c, 0, 78, 0
1, 70713, Note_on_c, 0, 66, 48
1, 70717, Note_on_c, 0, 81, 50
1, 70721, Note_on_c, 0, 78, 43
1, 70725, Note_on_c, 0, 74, 50
1, 70733, Note_on_c, 0, 69, 33
1, 70733, Note_on_c, 0, 62, 42
1, 70737, Note_on_c, 0, 59, 49
1, 70893, Note_on_c, 0, 69, 0
1, 70901, Note_on_c, 0, 59, 0
1, 70909, Note_on_c, 0, 74, 0
1, 70909, Note_on_c, 0, 66, 0
1, 70921, Note_on_c, 0, 62, 0
1, 70925, Note_on_c, 0, 78, 0
1, 70929, Note_on_c, 0, 81, 0
1, 71137, Note_on_c, 0, 66, 48
1, 71141, Note_on_c, 0, 81, 54
1, 71145, Note_on_c, 0, 78, 48
1, 71149, Note_on_c, 0, 74, 54
1, 71153, Note_on_c, 0, 69, 40
1, 71153, Note_on_c, 0, 59, 48
1, 71161, Note_on_c, 0, 62, 38
1, 71229, Note_on_c, 0, 69, 0
1, 71233, Note_on_c, 0, 62, 0
1, 71257, Note_on_c, 0, 66, 0
1, 71261, Note_on_c, 0, 74, 0
1, 71273, Note_on_c, 0, 81, 0
1, 71273, Note_on_c, 0, 59, 0
1, 71293, Note_on_c, 0, 78, 0
1, 72009, Note_on_c, 0, 85, 90
1, 72017, Note_on_c, 0, 65, 74
1, 72017, Note_on_c, 0, 73, 71
1, 72017, Note_on_c, 0, 77, 77
1, 72017, Note_on_c, 0, 55, 68
1, 72017, Note_on_c, 0, 60, 63
1, 72017, Note_on_c, 0, 61, 61
1, 72037, Control_c, 0, 64, 0
1, 72181, Control_c, 0, 64, 127
1, 72301, Note_on_c, 0, 73, 0
1, 72313, Note_on_c, 0, 65, 0
1, 72317, Note_on_c, 0, 55, 0
1, 72317, Note_on_c, 0, 85, 0
1, 72321, Note_on_c, 0, 77, 0
1, 72321, Note_on_c, 0, 60, 0
1, 72333, Note_on_c, 0, 61, 0
1, 72569, Note_on_c, 0, 85, 80
1, 72573, Note_on_c, 0, 61, 56
1, 72573, Note_on_c, 0, 65, 70
1, 72573, Note_on_c, 0, 73, 66
1, 72581, Note_on_c, 0, 55, 60
1, 72581, Note_on_c, 0, 60, 52
1, 72585, Note_on_c, 0, 77, 63
1, 72861, Note_on_c, 0, 73, 0
1, 72865, Note_on_c, 0, 77, 0
1, 72873, Note_on_c, 0, 65, 0
1, 72877, Note_on_c, 0, 61, 0
1, 72881, Note_on_c, 0, 60, 0
1, 72885, Note_on_c, 0, 55, 0
1, 72889, Note_on_c, 0, 85, 0
1, 73089, Note_on_c, 0, 65, 48
1, 73093, Note_on_c, 0, 61, 50
1, 73093, Note_on_c, 0, 85, 68
1, 73097, Note_on_c, 0, 60, 52
1, 73097, Note_on_c, 0, 73, 50
1, 73097, Note_on_c, 0, 55, 41
1, 73109, Note_on_c, 0, 77, 57
1, 73241, Note_on_c, 0, 85, 0
1, 73249, Note_on_c, 0, 77, 0
1, 73273, Note_on_c, 0, 55, 0
1, 73281, Note_on_c, 0, 65, 0
1, 73285, Note_on_c, 0, 61, 0
1, 73285, Note_on_c, 0, 60, 0
1, 73289, Note_on_c, 0, 73, 0
1, 73557, Note_on_c, 0, 81, 58
1, 73565, Note_on_c, 0, 65, 41
1, 73569, Note_on_c, 0, 61, 43
1, 73573, Note_on_c, 0, 76, 48
1, 73577, Note_on_c, 0, 60, 39
1, 73577, Note_on_c, 0, 69, 28
1, 73589, Note_on_c, 0, 55, 36
1, 73661, Note_on_c, 0, 81, 0
1, 73681, Note_on_c, 0, 76, 0
1, 73681, Note_on_c, 0, 65, 0
1, 73685, Note_on_c, 0, 55, 0
1, 73709, Note_on_c, 0, 60, 0
1, 73745, Note_on_c, 0, 61, 0
1, 73745, Note_on_c, 0, 69, 0
1, 73997, Control_c, 0, 64, 0
1, 74013, Note_on_c, 0, 61, 46
1, 74021, Note_on_c, 0, 64, 46
1, 74021, Note_on_c, 0, 78, 52
1, 74021, Note_on_c, 0, 66, 43
1, 74021, Note_on_c, 0, 54, 48
1, 74041, Note_on_c, 0, 59, 49
1, 74057, Note_on_c, 0, 73, 42
1, 74105, Control_c, 0, 64, 127
1, 74145, Note_on_c, 0, 59, 0
1, 74149, Note_on_c, 0, 64, 0
1, 74165, Note_on_c, 0, 61, 0
1, 74205, Note_on_c, 0, 54, 0
1, 74333, Note_on_c, 0, 73, 0
1, 74453, Note_on_c, 0, 78, 0
1, 74457, Note_on_c, 0, 66, 0
1, 74481, Note_on_c, 0, 38, 75
1, 74865, Note_on_c, 0, 38, 0
1, 74865, Note_on_c, 0, 45, 62
1, 74873, Note_on_c, 0, 52, 75
1, 75061, Note_on_c, 0, 52, 0
1, 75161, Note_on_c, 0, 45, 0
1, 75173, Note_on_c, 0, 54, 72
1, 75197, Note_on_c, 0, 52, 57
1, 75277, Note_on_c, 0, 54, 0
1, 75405, Note_on_c, 0, 57, 77
1, 75413, Note_on_c, 0, 54, 66
1, 75425, Note_on_c, 0, 52, 0
1, 75537, Note_on_c, 0, 57, 0
1, 75649, Note_on_c, 0, 59, 73
1, 75657, Note_on_c, 0, 54, 0
1, 75665, Note_on_c, 0, 57, 60
1, 75817, Note_on_c, 0, 59, 0
1, 75845, Note_on_c, 0, 57, 0
1, 75921, Note_on_c, 0, 61, 71
1, 75957, Note_on_c, 0, 59, 49
1, 76221, Note_on_c, 0, 61, 0
1, 76261, Note_on_c, 0, 62, 49
1, 76265, Note_on_c, 0, 64, 50
1, 76285, Note_on_c, 0, 59, 0
1, 76301, Note_on_c, 0, 62, 0
1, 76521, Note_on_c, 0, 64, 0
1, 76521, Note_on_c, 0, 65, 63
1, 76709, Note_on_c, 0, 65, 0
1, 76721, Note_on_c, 0, 66, 61
1, 76825, Note_on_c, 0, 66, 0
1, 76841, Note_on_c, 0, 67, 57
1, 76929, Note_on_c, 0, 67, 0
1, 76953, Note_on_c, 0, 68, 38
1, 77041, Note_on_c, 0, 68, 0
1, 77129, Note_on_c, 0, 70, 66
1, 77225, Note_on_c, 0, 70, 0
1, 77249, Note_on_c, 0, 43, 49
1, 77261, Note_on_c, 0, 69, 53
1, 77265, Control_c, 0, 64, 0
1, 77277, Note_on_c, 0, 59, 31
1, 77433, Control_c, 0, 64, 127
1, 77561, Note_on_c, 0, 59, 0
1, 77589, Note_on_c, 0, 69, 0
1, 77589, Note_on_c, 0, 50, 57
1, 77629, Note_on_c, 0, 43, 0
1, 77705, Note_on_c, 0, 50, 0
1, 77921, Note_on_c, 0, 76, 66
1, 77929, Note_on_c, 0, 69, 63
1, 77933, Note_on_c, 0, 72, 59
1, 77941, Note_on_c, 0, 65, 57
1, 77949, Note_on_c, 0, 64, 47
1, 78285, Note_on_c, 0, 64, 0
1, 78289, Note_on_c, 0, 62, 60
1, 78445, Note_on_c, 0, 65, 0
1, 78457, Note_on_c, 0, 72, 0
1, 78461, Note_on_c, 0, 76, 0
1, 78469, Note_on_c, 0, 69, 0
1, 78625, Note_on_c, 0, 62, 0
1, 78745, Note_on_c, 0, 72, 54
1, 78749, Control_c, 0, 64, 0
1, 78749, Note_on_c, 0, 62, 49
1, 78753, Note_on_c, 0, 69, 60
1, 78753, Note_on_c, 0, 65, 58
1, 78761, Note_on_c, 0, 60, 48
1, 78841, Control_c, 0, 64, 127
1, 78913, Note_on_c, 0, 62, 0
1, 78937, Note_on_c, 0, 65, 0
1, 78965, Note_on_c, 0, 69, 0
1, 78977, Note_on_c, 0, 72, 0
1, 79093, Note_on_c, 0, 60, 0
1, 79105, Control_c, 0, 64, 0
1, 79113, Note_on_c, 0, 74, 57
1, 79113, Note_on_c, 0, 65, 61
1, 79113, Note_on_c, 0, 68, 58
1, 79125, Note_on_c, 0, 59, 54
1, 79129, Note_on_c, 0, 71, 57
1, 79201, Control_c, 0, 64, 127
1, 79289, Note_on_c, 0, 74, 0
1, 79309, Note_on_c, 0, 68, 0
1, 79329, Note_on_c, 0, 71, 0
1, 79341, Note_on_c, 0, 65, 0
1, 79473, Note_on_c, 0, 59, 0
1, 79477, Control_c, 0, 64, 0
1, 79485, Note_on_c, 0, 68, 60
1, 79485, Note_on_c, 0, 76, 60
1, 79493, Note_on_c, 0, 71, 58
1, 79497, Note_on_c, 0, 65, 55
1, 79505, Note_on_c, 0, 60, 46
1, 79537, Control_c, 0, 64, 127
1, 79617, Note_on_c, 0, 71, 0
1, 79673, Note_on_c, 0, 68, 0
1, 79681, Note_on_c, 0, 65, 0
1, 79721, Note_on_c, 0, 76, 0
1, 79745, Note_on_c, 0, 60, 0
1, 79853, Note_on_c, 0, 60, 63
1, 79873, Note_on_c, 0, 77, 68
1, 79873, Note_on_c, 0, 72, 68
1, 80033, Note_on_c, 0, 72, 0
1, 80049, Note_on_c, 0, 60, 0
1, 80057, Note_on_c, 0, 77, 0
1, 80777, Note_on_c, 0, 79, 60
1, 80793, Control_c, 0, 64, 0
1, 80797, Note_on_c, 0, 76, 46
1, 80801, Note_on_c, 0, 71, 46
1, 80801, Note_on_c, 0, 74, 42
1, 80801, Note_on_c, 0, 55, 56
1, 80985, Control_c, 0, 64, 127
1, 80997, Note_on_c, 0, 71, 0
1, 81029, Note_on_c, 0, 74, 0
1, 81041, Note_on_c, 0, 79, 0
1, 81041, Note_on_c, 0, 76, 0
1, 81149, Note_on_c, 0, 62, 40
1, 81165, Note_on_c, 0, 83, 80
1, 81165, Note_on_c, 0, 74, 68
1, 81169, Note_on_c, 0, 84, 49
1, 81173, Note_on_c, 0, 67, 52
1, 81197, Note_on_c, 0, 84, 0
1, 81273, Note_on_c, 0, 83, 0
1, 81337, Note_on_c, 0, 74, 0
1, 81489, Note_on_c, 0, 67, 0
1, 81493, Note_on_c, 0, 79, 64
1, 81501, Note_on_c, 0, 71, 53
1, 81509, Note_on_c, 0, 64, 48
1, 81697, Note_on_c, 0, 55, 0
1, 81777, Note_on_c, 0, 79, 0
1, 81789, Note_on_c, 0, 55, 54
1, 81809, Note_on_c, 0, 71, 0
1, 81993, Note_on_c, 0, 64, 0
1, 82109, Note_on_c, 0, 76, 63
1, 82117, Note_on_c, 0, 67, 40
1, 82121, Note_on_c, 0, 64, 48
1, 82125, Note_on_c, 0, 71, 46
1, 82321, Note_on_c, 0, 55, 0
1, 82473, Note_on_c, 0, 55, 63
1, 82589, Note_on_c, 0, 67, 0
1, 82677, Note_on_c, 0, 71, 0
1, 82809, Note_on_c, 0, 55, 0
1, 82825, Note_on_c, 0, 62, 0
1, 82889, Note_on_c, 0, 67, 61
1, 82897, Note_on_c, 0, 55, 44
1, 82985, Note_on_c, 0, 64, 0
1, 83009, Note_on_c, 0, 67, 0
1, 83041, Note_on_c, 0, 76, 0
1, 83077, Note_on_c, 0, 55, 0
1, 83265, Note_on_c, 0, 78, 79
1, 83269, Note_on_c, 0, 55, 43
1, 83277, Note_on_c, 0, 66, 58
1, 83293, Note_on_c, 0, 70, 48
1, 83325, Note_on_c, 0, 55, 0
1, 83425, Note_on_c, 0, 70, 0
1, 83473, Note_on_c, 0, 66, 0
1, 83509, Note_on_c, 0, 78, 0
1, 83725, Control_c, 0, 64, 104
1, 83729, Control_c, 0, 64, 0
1, 83745, Note_on_c, 0, 39, 55
1, 83745, Note_on_c, 0, 54, 58
1, 83753, Note_on_c, 0, 77, 72
1, 83761, Note_on_c, 0, 70, 72
1, 83761, Note_on_c, 0, 65, 75
1, 83761, Note_on_c, 0, 73, 62
1, 83793, Note_on_c, 0, 76, 31
1, 83809, Control_c, 0, 64, 127
1, 83837, Note_on_c, 0, 76, 0
1, 83865, Note_on_c, 0, 77, 0
1, 83921, Note_on_c, 0, 54, 0
1, 83921, Note_on_c, 0, 73, 0
1, 83925, Note_on_c, 0, 65, 0
1, 83953, Note_on_c, 0, 70, 0
1, 83981, Note_on_c, 0, 39, 0
1, 84245, Note_on_c, 0, 44, 44
1, 84273, Note_on_c, 0, 44, 0
1, 84313, Note_on_c, 0, 46, 68
1, 84337, Note_on_c, 0, 46, 0
1, 84381, Note_on_c, 0, 49, 63
1, 84401, Note_on_c, 0, 49, 0
1, 84429, Note_on_c, 0, 51, 68
1, 84453, Note_on_c, 0, 51, 0
1, 84485, Note_on_c, 0, 54, 68
1, 84509, Note_on_c, 0, 54, 0
1, 84525, Note_on_c, 0, 56, 70
1, 84553, Note_on_c, 0, 56, 0
1, 84569, Note_on_c, 0, 58, 70
1, 84593, Note_on_c, 0, 58, 0
1, 84625, Note_on_c, 0, 61, 66
1, 84649, Note_on_c, 0, 61, 0
1, 84669, Note_on_c, 0, 63, 66
1, 84693, Note_on_c, 0, 63, 0
1, 84729, Note_on_c, 0, 66, 67
1, 84753, Note_on_c, 0, 66, 0
1, 84773, Note_on_c, 0, 68, 66
1, 84797, Note_on_c, 0, 68, 0
1, 84821, Note_on_c, 0, 70, 60
1, 84845, Note_on_c, 0, 70, 0
1, 84881, Note_on_c, 0, 73, 64
1, 84905, Note_on_c, 0, 73, 0
1, 84929, Note_on_c, 0, 75, 58
1, 84953, Note_on_c, 0, 75, 0
1, 85001, Note_on_c, 0, 78, 63
1, 85029, Note_on_c, 0, 78, 0
1, 85041, Note_on_c, 0, 80, 60
1, 85069, Note_on_c, 0, 80, 0
1, 85089, Note_on_c, 0, 82, 63
1, 85113, Note_on_c, 0, 82, 0
1, 85153, Note_on_c, 0, 85, 58
1, 85177, Note_on_c, 0, 85, 0
1, 85189, Note_on_c, 0, 87, 67
1, 85213, Note_on_c, 0, 87, 0
1, 85261, Note_on_c, 0, 90, 65
1, 85285, Note_on_c, 0, 90, 0
1, 85309, Note_on_c, 0, 92, 56
1, 85353, Note_on_c, 0, 92, 0
1, 85369, Note_on_c, 0, 94, 58
1, 85393, Note_on_c, 0, 94, 0
1, 85449, Note_on_c, 0, 97, 42
1, 85485, Note_on_c, 0, 97, 0
1, 85501, Note_on_c, 0, 54, 77
1, 85501, Note_on_c, 0, 44, 81
1, 85525, Note_on_c, 0, 99, 74
1, 85533, Control_c, 0, 64, 0
1, 85713, Control_c, 0, 64, 127
1, 85805, Note_on_c, 0, 44, 0
1, 85837, Note_on_c, 0, 99, 0
1, 85837, Note_on_c, 0, 54, 0
1, 86417, Note_on_c, 0, 68, 43
1, 86437, Note_on_c, 0, 65, 36
1, 86445, Note_on_c, 0, 54, 31
1, 86453, Note_on_c, 0, 60, 39
1, 86933, Note_on_c, 0, 65, 0
1, 86945, Note_on_c, 0, 68, 0
1, 86985, Note_on_c, 0, 60, 0
1, 87097, Note_on_c, 0, 54, 0
1, 87289, Note_on_c, 0, 75, 55
1, 87457, Note_on_c, 0, 75, 0
1, 87909, Control_c, 0, 64, 0
1, 87949, Note_on_c, 0, 74, 56
1, 87949, Note_on_c, 0, 65, 45
1, 87953, Note_on_c, 0, 55, 42
1, 87953, Note_on_c, 0, 43, 42
1, 87977, Note_on_c, 0, 69, 39
1, 88037, Control_c, 0, 64, 127
1, 88101, Note_on_c, 0, 55, 0
1, 88101, Note_on_c, 0, 74, 0
1, 88109, Note_on_c, 0, 65, 0
1, 88113, Note_on_c, 0, 69, 0
1, 88173, Note_on_c, 0, 43, 0
1, 88465, Note_on_c, 0, 50, 36
1, 88497, Note_on_c, 0, 50, 0
1, 88501, Note_on_c, 0, 55, 36
1, 88529, Note_on_c, 0, 52, 50
1, 88537, Note_on_c, 0, 55, 0
1, 88561, Note_on_c, 0, 57, 39
1, 88573, Note_on_c, 0, 52, 0
1, 88605, Note_on_c, 0, 57, 0
1, 88605, Control_c, 0, 64, 0
1, 88621, Note_on_c, 0, 53, 54
1, 88645, Note_on_c, 0, 53, 0
1, 88653, Note_on_c, 0, 59, 28
1, 88689, Note_on_c, 0, 59, 0
1, 88693, Note_on_c, 0, 55, 47
1, 88705, Note_on_c, 0, 60, 47
1, 88717, Note_on_c, 0, 55, 0
1, 88769, Note_on_c, 0, 57, 46
1, 88773, Note_on_c, 0, 60, 0
1, 88785, Note_on_c, 0, 62, 52
1, 88797, Note_on_c, 0, 57, 0
1, 88841, Note_on_c, 0, 62, 0
1, 88841, Note_on_c, 0, 59, 43
1, 88861, Note_on_c, 0, 64, 56
1, 88873, Note_on_c, 0, 59, 0
1, 88917, Note_on_c, 0, 60, 44
1, 88921, Note_on_c, 0, 64, 0
1, 88941, Note_on_c, 0, 65, 54
1, 88949, Note_on_c, 0, 60, 0
1, 88985, Note_on_c, 0, 65, 0
1, 88989, Note_on_c, 0, 62, 51
1, 89021, Note_on_c, 0, 62, 0
1, 89029, Note_on_c, 0, 67, 38
1, 89065, Note_on_c, 0, 64, 54
1, 89069, Note_on_c, 0, 67, 0
1, 89105, Note_on_c, 0, 64, 0
1, 89113, Note_on_c, 0, 69, 33
1, 89145, Note_on_c, 0, 65, 51
1, 89153, Note_on_c, 0, 69, 0
1, 89177, Note_on_c, 0, 65, 0
1, 89189, Note_on_c, 0, 71, 35
1, 89221, Note_on_c, 0, 67, 52
1, 89229, Note_on_c, 0, 71, 0
1, 89253, Note_on_c, 0, 67, 0
1, 89257, Note_on_c, 0, 72, 45
1, 89297, Note_on_c, 0, 72, 0
1, 89297, Note_on_c, 0, 69, 54
1, 89325, Note_on_c, 0, 69, 0
1, 89341, Note_on_c, 0, 74, 40
1, 89373, Note_on_c, 0, 74, 0
1, 89373, Note_on_c, 0, 71, 43
1, 89409, Note_on_c, 0, 71, 0
1, 89409, Note_on_c, 0, 76, 46
1, 89437, Note_on_c, 0, 76, 0
1, 89437, Note_on_c, 0, 72, 50
1, 89469, Note_on_c, 0, 72, 0
1, 89469, Note_on_c, 0, 77, 54
1, 89497, Note_on_c, 0, 77, 0
1, 89521, Note_on_c, 0, 74, 46
1, 89549, Note_on_c, 0, 74, 0
1, 89557, Note_on_c, 0, 79, 47
1, 89589, Note_on_c, 0, 79, 0
1, 89605, Note_on_c, 0, 76, 44
1, 89633, Note_on_c, 0, 76, 0
1, 89633, Note_on_c, 0, 81, 49
1, 89673, Note_on_c, 0, 81, 0
1, 89685, Note_on_c, 0, 77, 46
1, 89701, Control_c, 0, 64, 127
1, 89713, Note_on_c, 0, 77, 0
1, 89721, Note_on_c, 0, 83, 40
1, 89753, Note_on_c, 0, 83, 0
1, 89781, Note_on_c, 0, 79, 32
1, 89813, Note_on_c, 0, 79, 0
1, 89865, Note_on_c, 0, 81, 31
1, 89901, Note_on_c, 0, 81, 0
1, 89945, Note_on_c, 0, 83, 41
1, 89989, Note_on_c, 0, 83, 0
1, 90045, Note_on_c, 0, 84, 38
1, 90065, Note_on_c, 0, 55, 40
1, 90077, Note_on_c, 0, 65, 36
1, 90081, Note_on_c, 0, 57, 48
1, 90089, Note_on_c, 0, 60, 46
1, 90113, Note_on_c, 0, 89, 24
1, 90129, Control_c, 0, 64, 0
1, 90429, Control_c, 0, 64, 127
1, 90541, Note_on_c, 0, 84, 0
1, 90773, Note_on_c, 0, 89, 0
1, 91085, Note_on_c, 0, 86, 49
1, 91589, Note_on_c, 0, 86, 0
1, 91649, Note_on_c, 0, 87, 68
1, 91717, Note_on_c, 0, 65, 0
1, 91721, Note_on_c, 0, 60, 0
1, 91781, Note_on_c, 0, 55, 0
1, 91801, Note_on_c, 0, 57, 0
1, 91877, Note_on_c, 0, 87, 0
1, 91929, Note_on_c, 0, 87, 78
1, 92141, Note_on_c, 0, 87, 0
1, 92145, Control_c, 0, 64, 0
1, 92185, Note_on_c, 0, 86, 58
1, 92185, Note_on_c, 0, 45, 48
1, 92241, Control_c, 0, 64, 127
1, 92269, Note_on_c, 0, 45, 0
1, 92521, Note_on_c, 0, 63, 45
1, 92533, Note_on_c, 0, 60, 48
1, 92533, Note_on_c, 0, 57, 37
1, 92541, Note_on_c, 0, 55, 32
1, 92609, Note_on_c, 0, 55, 0
1, 92617, Note_on_c, 0, 63, 0
1, 92645, Note_on_c, 0, 60, 0
1, 92653, Note_on_c, 0, 57, 0
1, 92805, Note_on_c, 0, 63, 47
1, 92829, Note_on_c, 0, 60, 41
1, 92837, Note_on_c, 0, 57, 39
1, 92913, Note_on_c, 0, 63, 0
1, 92937, Note_on_c, 0, 57, 0
1, 92949, Note_on_c, 0, 60, 0
1, 93085, Note_on_c, 0, 63, 57
1, 93113, Note_on_c, 0, 55, 35
1, 93117, Note_on_c, 0, 63, 0
1, 93161, Note_on_c, 0, 55, 0
1, 93465, Note_on_c, 0, 26, 50
1, 93497, Control_c, 0, 64, 0
1, 93577, Note_on_c, 0, 26, 0
1, 93577, Control_c, 0, 64, 127
1, 93917, Note_on_c, 0, 65, 44
1, 93937, Note_on_c, 0, 54, 39
1, 93937, Note_on_c, 0, 60, 36
1, 93953, Note_on_c, 0, 58, 40
1, 93961, Note_on_c, 0, 86, 0
1, 93989, Note_on_c, 0, 58, 0
1, 93997, Note_on_c, 0, 65, 0
1, 94021, Note_on_c, 0, 60, 0
1, 94029, Note_on_c, 0, 54, 0
1, 94373, Note_on_c, 0, 65, 48
1, 94373, Note_on_c, 0, 72, 51
1, 94377, Note_on_c, 0, 84, 54
1, 94381, Note_on_c, 0, 81, 50
1, 94393, Note_on_c, 0, 58, 41
1, 94393, Note_on_c, 0, 60, 43
1, 94405, Note_on_c, 0, 54, 39
1, 94697, Note_on_c, 0, 81, 0
1, 94697, Note_on_c, 0, 84, 0
1, 94709, Note_on_c, 0, 72, 0
1, 94837, Note_on_c, 0, 65, 0
1, 94877, Note_on_c, 0, 60, 0
1, 94933, Note_on_c, 0, 58, 0
1, 94965, Note_on_c, 0, 54, 0
1, 95073, Note_on_c, 0, 83, 61
1, 95081, Note_on_c, 0, 79, 68
1, 95197, Note_on_c, 0, 79, 0
1, 95273, Note_on_c, 0, 83, 0
1, 95565, Control_c, 0, 64, 0
1, 95581, Note_on_c, 0, 82, 60
1, 95581, Note_on_c, 0, 79, 63
1, 95589, Note_on_c, 0, 43, 56
1, 95737, Control_c, 0, 64, 127
1, 95817, Note_on_c, 0, 79, 0
1, 95833, Note_on_c, 0, 82, 0
1, 95837, Note_on_c, 0, 43, 0
1, 95853, Note_on_c, 0, 78, 66
1, 95865, Note_on_c, 0, 81, 63
1, 95869, Note_on_c, 0, 55, 52
1, 95989, Note_on_c, 0, 82, 34
1, 95997, Note_on_c, 0, 81, 0
1, 96021, Note_on_c, 0, 78, 0
1, 96069, Note_on_c, 0, 82, 0
1, 96077, Note_on_c, 0, 55, 0
1, 96117, Note_on_c, 0, 58, 49
1, 96121, Note_on_c, 0, 77, 66
1, 96133, Note_on_c, 0, 80, 63
1, 96205, Note_on_c, 0, 77, 0
1, 96273, Note_on_c, 0, 80, 0
1, 96353, Note_on_c, 0, 58, 0
1, 96381, Note_on_c, 0, 76, 66
1, 96381, Note_on_c, 0, 79, 60
1, 96457, Note_on_c, 0, 79, 0
1, 96549, Note_on_c, 0, 76, 0
1, 96669, Control_c, 0, 64, 0
1, 96677, Note_on_c, 0, 78, 51
1, 96677, Note_on_c, 0, 75, 54
1, 96693, Note_on_c, 0, 58, 37
1, 96693, Note_on_c, 0, 48, 45
1, 96797, Control_c, 0, 64, 127
1, 96913, Note_on_c, 0, 75, 0
1, 96937, Note_on_c, 0, 78, 0
1, 96945, Note_on_c, 0, 58, 0
1, 96981, Note_on_c, 0, 55, 42
1, 96985, Note_on_c, 0, 77, 68
1, 96989, Note_on_c, 0, 48, 0
1, 96989, Note_on_c, 0, 74, 50
1, 97045, Note_on_c, 0, 55, 0
1, 97053, Note_on_c, 0, 74, 0
1, 97073, Note_on_c, 0, 77, 0
1, 97345, Note_on_c, 0, 73, 46
1, 97349, Note_on_c, 0, 76, 57
1, 97385, Note_on_c, 0, 64, 23
1, 97577, Note_on_c, 0, 73, 0
1, 97605, Note_on_c, 0, 64, 0
1, 97633, Note_on_c, 0, 76, 0
1, 97689, Note_on_c, 0, 75, 58
1, 97713, Note_on_c, 0, 71, 31
1, 97781, Note_on_c, 0, 71, 0
1, 97873, Note_on_c, 0, 75, 0
1, 98053, Note_on_c, 0, 70, 43
1, 98057, Note_on_c, 0, 74, 52
1, 98061, Note_on_c, 0, 63, 39
1, 98073, Control_c, 0, 64, 0
1, 98141, Control_c, 0, 64, 127
1, 98325, Note_on_c, 0, 74, 0
1, 98357, Note_on_c, 0, 70, 0
1, 98361, Note_on_c, 0, 63, 0
1, 98385, Note_on_c, 0, 75, 52
1, 98393, Note_on_c, 0, 60, 42
1, 98397, Note_on_c, 0, 72, 52
1, 98565, Note_on_c, 0, 72, 0
1, 98701, Note_on_c, 0, 75, 0
1, 98733, Note_on_c, 0, 60, 0
1, 98753, Note_on_c, 0, 63, 45
1, 98753, Note_on_c, 0, 69, 35
1, 98765, Note_on_c, 0, 72, 52
1, 98781, Note_on_c, 0, 57, 42
1, 98813, Control_c, 0, 64, 0
1, 98877, Control_c, 0, 64, 127
1, 98929, Note_on_c, 0, 72, 0
1, 99073, Note_on_c, 0, 69, 0
1, 99093, Note_on_c, 0, 70, 63
1, 99105, Note_on_c, 0, 73, 48
1, 99129, Note_on_c, 0, 63, 0
1, 99229, Note_on_c, 0, 57, 0
1, 99345, Note_on_c, 0, 73, 0
1, 99433, Note_on_c, 0, 70, 0
1, 99445, Note_on_c, 0, 74, 68
1, 99449, Control_c, 0, 64, 0
1, 99465, Note_on_c, 0, 69, 54
1, 99473, Note_on_c, 0, 53, 40
1, 99557, Control_c, 0, 64, 127
1, 99705, Note_on_c, 0, 69, 0
1, 99793, Note_on_c, 0, 75, 61
1, 99801, Note_on_c, 0, 63, 41
1, 99809, Note_on_c, 0, 69, 49
1, 99821, Note_on_c, 0, 60, 31
1, 99917, Note_on_c, 0, 74, 0
1, 99941, Note_on_c, 0, 63, 0
1, 99961, Note_on_c, 0, 69, 0
1, 99993, Note_on_c, 0, 75, 0
1, 100257, Note_on_c, 0, 76, 66
1, 100461, Note_on_c, 0, 76, 0
1, 100629, Note_on_c, 0, 79, 78
1, 100637, Note_on_c, 0, 60, 0
1, 100661, Note_on_c, 0, 53, 0
1, 101009, Note_on_c, 0, 79, 0
1, 101041, Note_on_c, 0, 76, 69
1, 101053, Note_on_c, 0, 65, 36
1, 101061, Note_on_c, 0, 62, 42
1, 101069, Note_on_c, 0, 60, 43
1, 101105, Control_c, 0, 64, 0
1, 101193, Control_c, 0, 64, 127
1, 101221, Note_on_c, 0, 65, 0
1, 101353, Note_on_c, 0, 77, 78
1, 101361, Note_on_c, 0, 76, 0
1, 101393, Note_on_c, 0, 53, 46
1, 101445, Note_on_c, 0, 77, 0
1, 101497, Note_on_c, 0, 62, 0
1, 101549, Note_on_c, 0, 60, 0
1, 101665, Note_on_c, 0, 62, 61
1, 101673, Note_on_c, 0, 81, 82
1, 101681, Note_on_c, 0, 65, 47
1, 101681, Note_on_c, 0, 60, 18
1, 101713, Note_on_c, 0, 65, 0
1, 101773, Note_on_c, 0, 53, 0
1, 101909, Note_on_c, 0, 81, 0
1, 101941, Note_on_c, 0, 60, 0
1, 101945, Note_on_c, 0, 84, 88
1, 101945, Note_on_c, 0, 53, 49
1, 101953, Note_on_c, 0, 62, 0
1, 101985, Note_on_c, 0, 53, 0
1, 102185, Note_on_c, 0, 84, 0
1, 102201, Note_on_c, 0, 81, 67
1, 102209, Note_on_c, 0, 39, 54
1, 102217, Control_c, 0, 64, 0
1, 102345, Control_c, 0, 64, 127
1, 102417, Note_on_c, 0, 82, 66
1, 102421, Note_on_c, 0, 46, 66
1, 102433, Note_on_c, 0, 39, 0
1, 102433, Note_on_c, 0, 81, 0
1, 102489, Note_on_c, 0, 82, 0
1, 102629, Note_on_c, 0, 46, 0
1, 102641, Note_on_c, 0, 86, 63
1, 102657, Note_on_c, 0, 55, 52
1, 102881, Note_on_c, 0, 58, 50
1, 102885, Note_on_c, 0, 91, 55
1, 102897, Note_on_c, 0, 55, 0
1, 103165, Note_on_c, 0, 91, 0
1, 103165, Note_on_c, 0, 98, 66
1, 103177, Note_on_c, 0, 62, 46
1, 103313, Note_on_c, 0, 62, 0
1, 103385, Note_on_c, 0, 98, 0
1, 103457, Note_on_c, 0, 67, 42
1, 103481, Note_on_c, 0, 93, 45
1, 103705, Note_on_c, 0, 93, 0
1, 103753, Note_on_c, 0, 67, 0
1, 103777, Note_on_c, 0, 94, 47
1, 103781, Note_on_c, 0, 62, 38
1, 103897, Note_on_c, 0, 62, 0
1, 103965, Note_on_c, 0, 58, 0
1, 104485, Note_on_c, 0, 94, 0
1, 104517, Note_on_c, 0, 96, 47
1, 104809, Note_on_c, 0, 96, 0
1, 104829, Note_on_c, 0, 44, 48
1, 104837, Control_c, 0, 64, 0
1, 104841, Note_on_c, 0, 95, 54
1, 104865, Note_on_c, 0, 86, 0
1, 104889, Control_c, 0, 64, 127
1, 104909, Note_on_c, 0, 44, 0
1, 105213, Note_on_c, 0, 63, 40
1, 105225, Note_on_c, 0, 59, 48
1, 105237, Note_on_c, 0, 58, 41
1, 105249, Note_on_c, 0, 54, 29
1, 105277, Note_on_c, 0, 95, 0
1, 105349, Note_on_c, 0, 59, 0
1, 105369, Note_on_c, 0, 63, 0
1, 105381, Note_on_c, 0, 54, 0
1, 105393, Note_on_c, 0, 58, 0
1, 105573, Note_on_c, 0, 63, 40
1, 105597, Note_on_c, 0, 54, 28
1, 105601, Note_on_c, 0, 59, 41
1, 105609, Note_on_c, 0, 58, 36
1, 105741, Note_on_c, 0, 59, 0
1, 105757, Note_on_c, 0, 63, 0
1, 105761, Note_on_c, 0, 54, 0
1, 105765, Note_on_c, 0, 58, 0
1, 105957, Note_on_c, 0, 63, 37
1, 105965, Note_on_c, 0, 54, 35
1, 105969, Note_on_c, 0, 85, 60
1, 105997, Note_on_c, 0, 59, 36
1, 106005, Note_on_c, 0, 58, 30
1, 106025, Note_on_c, 0, 70, 13
1, 106105, Note_on_c, 0, 59, 0
1, 106121, Note_on_c, 0, 85, 0
1, 106149, Note_on_c, 0, 70, 0
1, 106153, Note_on_c, 0, 63, 0
1, 106157, Note_on_c, 0, 54, 0
1, 106213, Note_on_c, 0, 58, 0
1, 106333, Control_c, 0, 64, 0
1, 106337, Note_on_c, 0, 63, 36
1, 106341, Note_on_c, 0, 59, 39
1, 106345, Note_on_c, 0, 85, 59
1, 106349, Note_on_c, 0, 70, 52
1, 106357, Note_on_c, 0, 53, 41
1, 106473, Control_c, 0, 64, 127
1, 106521, Note_on_c, 0, 53, 0
1, 106549, Note_on_c, 0, 63, 0
1, 106561, Note_on_c, 0, 59, 0
1, 106561, Note_on_c, 0, 70, 0
1, 106581, Note_on_c, 0, 85, 0
1, 106705, Note_on_c, 0, 63, 47
1, 106721, Note_on_c, 0, 59, 45
1, 106725, Note_on_c, 0, 85, 60
1, 106733, Note_on_c, 0, 70, 50
1, 106733, Note_on_c, 0, 53, 42
1, 106801, Note_on_c, 0, 53, 0
1, 106865, Note_on_c, 0, 63, 0
1, 106873, Note_on_c, 0, 59, 0
1, 107217, Note_on_c, 0, 70, 0
1, 107233, Note_on_c, 0, 85, 0
1, 107385, Note_on_c, 0, 63, 39
1, 107393, Note_on_c, 0, 59, 32
1, 107405, Note_on_c, 0, 85, 50
1, 107417, Note_on_c, 0, 70, 39
1, 107437, Note_on_c, 0, 59, 0
1, 107469, Note_on_c, 0, 63, 0
1, 107589, Note_on_c, 0, 70, 0
1, 107609, Note_on_c, 0, 85, 0
1, 107749, Control_c, 0, 64, 0
1, 107769, Note_on_c, 0, 61, 39
1, 107785, Note_on_c, 0, 85, 56
1, 107789, Note_on_c, 0, 58, 39
1, 107793, Note_on_c, 0, 70, 47
1, 107801, Note_on_c, 0, 56, 38
1, 107813, Note_on_c, 0, 51, 23
1, 107813, Control_c, 0, 64, 127
1, 107821, Note_on_c, 0, 61, 0
1, 107829, Note_on_c, 0, 58, 0
1, 107833, Note_on_c, 0, 56, 0
1, 107865, Note_on_c, 0, 51, 0
1, 108001, Note_on_c, 0, 70, 0
1, 108041, Note_on_c, 0, 85, 0
1, 108121, Note_on_c, 0, 30, 53
1, 108141, Note_on_c, 0, 85, 59
1, 108153, Note_on_c, 0, 70, 49
1, 108169, Note_on_c, 0, 30, 0
1, 108481, Note_on_c, 0, 61, 36
1, 108521, Note_on_c, 0, 56, 38
1, 108541, Note_on_c, 0, 58, 22
1, 108565, Note_on_c, 0, 56, 0
1, 108581, Note_on_c, 0, 61, 0
1, 108581, Note_on_c, 0, 58, 0
1, 108609, Note_on_c, 0, 70, 0
1, 108637, Note_on_c, 0, 85, 0
1, 108829, Note_on_c, 0, 85, 68
1, 108837, Note_on_c, 0, 70, 68
1, 108841, Note_on_c, 0, 58, 52
1, 108869, Note_on_c, 0, 58, 0
1, 109053, Note_on_c, 0, 85, 0
1, 109069, Note_on_c, 0, 70, 0
1, 109173, Control_c, 0, 64, 0
1, 109185, Note_on_c, 0, 70, 72
1, 109185, Note_on_c, 0, 85, 72
1, 109197, Note_on_c, 0, 47, 58
1, 109225, Note_on_c, 0, 82, 33
1, 109273, Note_on_c, 0, 82, 0
1, 109277, Control_c, 0, 64, 127
1, 109401, Note_on_c, 0, 70, 0
1, 109405, Note_on_c, 0, 85, 0
1, 109565, Note_on_c, 0, 58, 66
1, 109569, Note_on_c, 0, 85, 82
1, 109573, Note_on_c, 0, 70, 83
1, 109593, Note_on_c, 0, 82, 44
1, 109625, Note_on_c, 0, 82, 0
1, 109809, Note_on_c, 0, 58, 0
1, 109949, Note_on_c, 0, 58, 79
1, 109981, Note_on_c, 0, 54, 40
1, 110125, Note_on_c, 0, 70, 0
1, 110125, Note_on_c, 0, 85, 0
1, 110173, Note_on_c, 0, 47, 0
1, 110245, Note_on_c, 0, 54, 0
1, 110253, Note_on_c, 0, 58, 0
1, 110329, Note_on_c, 0, 47, 64
1, 110333, Note_on_c, 0, 85, 82
1, 110337, Note_on_c, 0, 70, 85
1, 110365, Note_on_c, 0, 82, 34
1, 110409, Note_on_c, 0, 82, 0
1, 110437, Note_on_c, 0, 47, 0
1, 110621, Note_on_c, 0, 70, 0
1, 110629, Note_on_c, 0, 85, 0
1, 110769, Control_c, 0, 64, 0
1, 110785, Note_on_c, 0, 85, 75
1, 110793, Note_on_c, 0, 70, 76
1, 110793, Note_on_c, 0, 29, 75
1, 110793, Note_on_c, 0, 41, 72
1, 110817, Note_on_c, 0, 82, 39
1, 110857, Note_on_c, 0, 82, 0
1, 110861, Note_on_c, 0, 29, 0
1, 110873, Control_c, 0, 64, 127
1, 110893, Note_on_c, 0, 41, 0
1, 110949, Note_on_c, 0, 85, 0
1, 111005, Note_on_c, 0, 70, 0
1, 111293, Note_on_c, 0, 68, 78
1, 111293, Note_on_c, 0, 61, 75
1, 111293, Note_on_c, 0, 63, 72
1, 111301, Note_on_c, 0, 57, 76
1, 111301, Note_on_c, 0, 56, 82
1, 111573, Note_on_c, 0, 57, 0
1, 111597, Note_on_c, 0, 68, 0
1, 111597, Note_on_c, 0, 56, 0
1, 111605, Note_on_c, 0, 61, 0
1, 111613, Note_on_c, 0, 63, 0
1, 111769, Note_on_c, 0, 68, 78
1, 111777, Note_on_c, 0, 61, 70
1, 111777, Note_on_c, 0, 63, 68
1, 111781, Note_on_c, 0, 57, 68
1, 111789, Note_on_c, 0, 56, 71
1, 111821, Note_on_c, 0, 57, 0
1, 111921, Note_on_c, 0, 57, 9
1, 111945, Note_on_c, 0, 56, 0
1, 112341, Note_on_c, 0, 29, 77
1, 112389, Control_c, 0, 64, 0
1, 112449, Control_c, 0, 64, 127
1, 112593, Note_on_c, 0, 29, 0
1, 112937, Note_on_c, 0, 57, 0
1, 112977, Note_on_c, 0, 61, 0
1, 112985, Control_c, 0, 64, 0
1, 112993, Note_on_c, 0, 63, 0
1, 112993, Note_on_c, 0, 68, 0
1, 113001, Note_on_c, 0, 23, 87
1, 113153, Control_c, 0, 64, 127
1, 113269, Note_on_c, 0, 23, 0
1, 113833, Note_on_c, 0, 80, 58
1, 113845, Note_on_c, 0, 75, 50
1, 113845, Note_on_c, 0, 73, 48
1, 113845, Note_on_c, 0, 68, 57
1, 113845, Note_on_c, 0, 69, 41
1, 114169, Note_on_c, 0, 68, 0
1, 114173, Note_on_c, 0, 69, 0
1, 114217, Note_on_c, 0, 73, 0
1, 114225, Note_on_c, 0, 80, 0
1, 114229, Note_on_c, 0, 75, 0
1, 114517, Note_on_c, 0, 75, 47
1, 114517, Note_on_c, 0, 80, 49
1, 114529, Note_on_c, 0, 68, 51
1, 114529, Note_on_c, 0, 73, 45
1, 114533, Note_on_c, 0, 69, 35
1, 114713, Note_on_c, 0, 68, 0
1, 114797, Note_on_c, 0, 69, 0
1, 114805, Note_on_c, 0, 73, 0
1, 114833, Note_on_c, 0, 80, 0
1, 114913, Note_on_c, 0, 75, 0
1, 115269, Note_on_c, 0, 78, 42
1, 115273, Note_on_c, 0, 66, 45
1, 115285, Note_on_c, 0, 69, 31
1, 115289, Note_on_c, 0, 73, 41
1, 115297, Note_on_c, 0, 75, 39
1, 115353, Note_on_c, 0, 66, 0
1, 115565, Note_on_c, 0, 69, 0
1, 115613, Note_on_c, 0, 78, 0
1, 115753, Note_on_c, 0, 73, 0
1, 115825, Note_on_c, 0, 75, 0
1, 116281, Control_c, 0, 64, 0
1, 116289, Note_on_c, 0, 46, 40
1, 116289, Note_on_c, 0, 77, 52
1, 116293, Note_on_c, 0, 34, 39
1, 116317, Note_on_c, 0, 72, 39
1, 116453, Control_c, 0, 64, 127
1, 116773, Note_on_c, 0, 77, 0
1, 116849, Note_on_c, 0, 72, 0
1, 116857, Note_on_c, 0, 34, 0
1, 116917, Note_on_c, 0, 46, 0
1, 117749, Note_on_c, 0, 46, 46
1, 117753, Note_on_c, 0, 58, 51
1, 117857, Note_on_c, 0, 46, 0
1, 117885, Note_on_c, 0, 58, 0
1, 117893, Control_c, 0, 64, 0
1, 117937, Note_on_c, 0, 59, 39
1, 117941, Note_on_c, 0, 47, 39
1, 118121, Control_c, 0, 64, 127
1, 118537, Note_on_c, 0, 47, 0
1, 118865, Note_on_c, 0, 66, 48
1, 119213, Note_on_c, 0, 59, 0
1, 119313, Note_on_c, 0, 66, 0
1, 120069, Note_on_c, 0, 54, 34
1, 120069, Note_on_c, 0, 63, 42
1, 120077, Control_c, 0, 64, 88
1, 120081, Control_c, 0, 64, 0
1, 120085, Note_on_c, 0, 58, 39
1, 120089, Note_on_c, 0, 39, 38
1, 120281, Control_c, 0, 64, 127
1, 120517, Note_on_c, 0, 46, 56
1, 120525, Note_on_c, 0, 54, 0
1, 120549, Note_on_c, 0, 39, 0
1, 120785, Note_on_c, 0, 58, 0
1, 120821, Note_on_c, 0, 46, 0
1, 120841, Note_on_c, 0, 53, 62
1, 121065, Note_on_c, 0, 53, 0
1, 121081, Note_on_c, 0, 54, 72
1, 121089, Note_on_c, 0, 63, 0
1, 121361, Note_on_c, 0, 61, 89
1, 121477, Note_on_c, 0, 54, 0
1, 121757, Note_on_c, 0, 54, 54
1, 122089, Note_on_c, 0, 54, 0
1, 122125, Note_on_c, 0, 53, 51
1, 122433, Note_on_c, 0, 53, 0
1, 122493, Note_on_c, 0, 46, 48
1, 122909, Note_on_c, 0, 46, 0
1, 122949, Note_on_c, 0, 39, 56
1, 122949, Control_c, 0, 64, 0
1, 123101, Control_c, 0, 64, 127
1, 123561, Note_on_c, 0, 48, 49
1, 123589, Note_on_c, 0, 39, 0
1, 123677, Note_on_c, 0, 61, 0
1, 123821, Note_on_c, 0, 48, 0
1, 123845, Note_on_c, 0, 56, 56
1, 123869, Note_on_c, 0, 53, 41
1, 123961, Note_on_c, 0, 56, 0
1, 124025, Note_on_c, 0, 53, 0
1, 124037, Note_on_c, 0, 56, 43
1, 124041, Note_on_c, 0, 60, 51
1, 124153, Note_on_c, 0, 60, 0
1, 124205, Note_on_c, 0, 63, 60
1, 124253, Note_on_c, 0, 60, 31
1, 124325, Note_on_c, 0, 63, 0
1, 124361, Note_on_c, 0, 65, 71
1, 124405, Note_on_c, 0, 60, 0
1, 124405, Note_on_c, 0, 63, 48
1, 124477, Note_on_c, 0, 65, 0
1, 124493, Note_on_c, 0, 63, 0
1, 124521, Note_on_c, 0, 68, 66
1, 124553, Note_on_c, 0, 56, 0
1, 124649, Note_on_c, 0, 65, 7
1, 124657, Note_on_c, 0, 68, 0
1, 124697, Note_on_c, 0, 70, 60
1, 124745, Note_on_c, 0, 65, 0
1, 124777, Note_on_c, 0, 70, 0
1, 124845, Note_on_c, 0, 72, 57
1, 124873, Note_on_c, 0, 68, 47
1, 124949, Note_on_c, 0, 72, 0
1, 125017, Note_on_c, 0, 68, 0
1, 125017, Note_on_c, 0, 75, 50
1, 125049, Note_on_c, 0, 75, 0
1, 125217, Note_on_c, 0, 77, 62
1, 125345, Note_on_c, 0, 77, 0
1, 125393, Note_on_c, 0, 80, 60
1, 125457, Note_on_c, 0, 77, 31
1, 125493, Note_on_c, 0, 77, 0
1, 125533, Note_on_c, 0, 80, 0
1, 125609, Note_on_c, 0, 82, 46
1, 125701, Note_on_c, 0, 82, 0
1, 125801, Note_on_c, 0, 84, 54
1, 125965, Note_on_c, 0, 84, 0
1, 126057, Note_on_c, 0, 87, 52
1, 126081, Note_on_c, 0, 39, 39
1, 126125, Control_c, 0, 64, 0
1, 126257, Control_c, 0, 64, 127
1, 126273, Note_on_c, 0, 87, 0
1, 126321, Note_on_c, 0, 46, 39
1, 126321, Note_on_c, 0, 89, 46
1, 126485, Note_on_c, 0, 39, 0
1, 126577, Note_on_c, 0, 46, 0
1, 126577, Note_on_c, 0, 90, 46
1, 126577, Note_on_c, 0, 78, 38
1, 126601, Note_on_c, 0, 53, 42
1, 126829, Note_on_c, 0, 53, 0
1, 126853, Note_on_c, 0, 54, 41
1, 126989, Note_on_c, 0, 89, 0
1, 127053, Note_on_c, 0, 90, 0
1, 127093, Note_on_c, 0, 78, 0
1, 127137, Note_on_c, 0, 61, 35
1, 127157, Note_on_c, 0, 89, 43
1, 127165, Note_on_c, 0, 77, 45
1, 127349, Note_on_c, 0, 54, 0
1, 127441, Note_on_c, 0, 61, 0
1, 127489, Note_on_c, 0, 54, 44
1, 127533, Note_on_c, 0, 89, 0
1, 127557, Note_on_c, 0, 77, 0
1, 127793, Note_on_c, 0, 54, 0
1, 127813, Note_on_c, 0, 87, 49
1, 127829, Note_on_c, 0, 75, 33
1, 127829, Note_on_c, 0, 53, 36
1, 128053, Note_on_c, 0, 53, 0
1, 128165, Note_on_c, 0, 46, 46
1, 128417, Note_on_c, 0, 75, 0
1, 128421, Note_on_c, 0, 87, 0
1, 128797, Note_on_c, 0, 77, 46
1, 128805, Control_c, 0, 64, 0
1, 128809, Note_on_c, 0, 84, 52
1, 128813, Note_on_c, 0, 46, 0
1, 128825, Note_on_c, 0, 39, 45
1, 128941, Control_c, 0, 64, 127
1, 129049, Note_on_c, 0, 84, 0
1, 129085, Note_on_c, 0, 80, 52
1, 129109, Note_on_c, 0, 48, 43
1, 129117, Note_on_c, 0, 72, 33
1, 129137, Note_on_c, 0, 77, 0
1, 129165, Note_on_c, 0, 39, 0
1, 129377, Note_on_c, 0, 48, 0
1, 129385, Note_on_c, 0, 51, 48
1, 129529, Note_on_c, 0, 80, 0
1, 129541, Note_on_c, 0, 51, 0
1, 129565, Note_on_c, 0, 72, 0
1, 129669, Note_on_c, 0, 53, 52
1, 130009, Note_on_c, 0, 60, 52
1, 130009, Note_on_c, 0, 56, 38
1, 130353, Note_on_c, 0, 63, 38
1, 130661, Note_on_c, 0, 63, 0
1, 130685, Note_on_c, 0, 68, 39
1, 130697, Note_on_c, 0, 60, 0
1, 130761, Note_on_c, 0, 68, 0
1, 131041, Note_on_c, 0, 56, 0
1, 131045, Note_on_c, 0, 75, 48
1, 131089, Note_on_c, 0, 53, 0
1, 131325, Note_on_c, 0, 75, 0
1, 132125, Note_on_c, 0, 77, 45
1, 132137, Note_on_c, 0, 65, 35
1, 132149, Control_c, 0, 64, 0
1, 132161, Note_on_c, 0, 39, 36
1, 132369, Control_c, 0, 64, 127
1, 132473, Note_on_c, 0, 77, 0
1, 132473, Note_on_c, 0, 46, 39
1, 132541, Note_on_c, 0, 65, 0
1, 132825, Note_on_c, 0, 54, 37
1, 132829, Note_on_c, 0, 39, 0
1, 132897, Note_on_c, 0, 46, 0
1, 133365, Note_on_c, 0, 58, 43
1, 134225, Note_on_c, 0, 54, 0
1, 134713, Note_on_c, 0, 39, 38
1, 134789, Control_c, 0, 64, 0
1, 135049, Note_on_c, 0, 46, 35
1, 135105, Control_c, 0, 64, 127
1, 135297, Note_on_c, 0, 39, 0
1, 135389, Note_on_c, 0, 58, 0
1, 135425, Note_on_c, 0, 53, 30
1, 135481, Note_on_c, 0, 53, 0
1, 135789, Note_on_c, 0, 54, 37
1, 136269, Note_on_c, 0, 58, 36
1, 136285, Note_on_c, 0, 61, 39
1, 138073, Note_on_c, 0, 61, 0
1, 138097, Note_on_c, 0, 58, 0
1, 138189, Note_on_c, 0, 54, 0
1, 138197, Note_on_c, 0, 46, 0
1, 138713, Control_c, 0, 64, 0
1, 139489, Note_on_c, 0, 75, 72
1, 139593, Note_on_c, 0, 75, 0
1, 139645, Note_on_c, 0, 74, 60
1, 139801, Note_on_c, 0, 74, 0
1, 139901, Note_on_c, 0, 63, 27
1, 139905, Note_on_c, 0, 67, 47
1, 139905, Note_on_c, 0, 69, 41
1, 139917, Note_on_c, 0, 62, 42
1, 139917, Note_on_c, 0, 74, 28
1, 139941, Note_on_c, 0, 67, 0
1, 139945, Note_on_c, 0, 63, 0
1, 139953, Note_on_c, 0, 62, 0
1, 139973, Note_on_c, 0, 69, 0
1, 140225, Control_c, 0, 64, 127
1, 140401, Control_c, 0, 64, 0
1, 140489, Note_on_c, 0, 66, 46
1, 140493, Note_on_c, 0, 63, 36
1, 140501, Note_on_c, 0, 60, 37
1, 140521, Note_on_c, 0, 50, 35
1, 140561, Control_c, 0, 64, 127
1, 140593, Note_on_c, 0, 74, 0
1, 140773, Note_on_c, 0, 63, 0
1, 140825, Note_on_c, 0, 66, 0
1, 140853, Note_on_c, 0, 60, 0
1, 140857, Note_on_c, 0, 50, 0
1, 140861, Control_c, 0, 64, 0
1, 140921, Note_on_c, 0, 63, 45
1, 140925, Note_on_c, 0, 66, 37
1, 140933, Note_on_c, 0, 72, 45
1, 140945, Note_on_c, 0, 57, 24
1, 140949, Control_c, 0, 64, 127
1, 141113, Note_on_c, 0, 66, 0
1, 141117, Note_on_c, 0, 72, 0
1, 141129, Note_on_c, 0, 57, 0
1, 141149, Note_on_c, 0, 63, 0
1, 141165, Note_on_c, 0, 54, 36
1, 141205, Control_c, 0, 64, 0
1, 141213, Note_on_c, 0, 54, 0
1, 141217, Note_on_c, 0, 70, 57
1, 141229, Note_on_c, 0, 62, 43
1, 141241, Note_on_c, 0, 67, 41
1, 141253, Note_on_c, 0, 55, 38
1, 141357, Control_c, 0, 64, 127
1, 141405, Note_on_c, 0, 67, 0
1, 141461, Note_on_c, 0, 70, 0
1, 141517, Note_on_c, 0, 62, 0
1, 141573, Note_on_c, 0, 55, 0
1, 141625, Note_on_c, 0, 50, 44
1, 141653, Note_on_c, 0, 50, 0
1, 141729, Control_c, 0, 64, 0
1, 141789, Note_on_c, 0, 58, 32
1, 141797, Note_on_c, 0, 62, 34
1, 141801, Note_on_c, 0, 55, 29
1, 141893, Control_c, 0, 64, 127
1, 141921, Note_on_c, 0, 62, 0
1, 141957, Note_on_c, 0, 55, 0
1, 141981, Note_on_c, 0, 58, 0
1, 142061, Note_on_c, 0, 64, 39
1, 142073, Note_on_c, 0, 58, 41
1, 142077, Note_on_c, 0, 55, 45
1, 142077, Control_c, 0, 64, 0
1, 142105, Note_on_c, 0, 55, 0
1, 142105, Note_on_c, 0, 58, 0
1, 142129, Note_on_c, 0, 64, 0
1, 142233, Control_c, 0, 64, 127
1, 142449, Control_c, 0, 64, 0
1, 142473, Note_on_c, 0, 36, 55
1, 142485, Note_on_c, 0, 52, 40
1, 142621, Control_c, 0, 64, 127
1, 142653, Note_on_c, 0, 36, 0
1, 142729, Note_on_c, 0, 52, 0
1, 143077, Note_on_c, 0, 67, 49
1, 143081, Note_on_c, 0, 63, 44
1, 143085, Note_on_c, 0, 62, 42
1, 143373, Note_on_c, 0, 84, 78
1, 143377, Note_on_c, 0, 72, 65
1, 143541, Note_on_c, 0, 84, 0
1, 143545, Note_on_c, 0, 72, 0
1, 143641, Note_on_c, 0, 67, 0
1, 143677, Note_on_c, 0, 86, 70
1, 143685, Note_on_c, 0, 63, 0
1, 143693, Note_on_c, 0, 62, 0
1, 143693, Note_on_c, 0, 74, 46
1, 143701, Note_on_c, 0, 86, 0
1, 143717, Note_on_c, 0, 85, 48
1, 143721, Note_on_c, 0, 74, 0
1, 143741, Note_on_c, 0, 85, 0
1, 143817, Note_on_c, 0, 87, 76
1, 143825, Note_on_c, 0, 75, 57
1, 143857, Note_on_c, 0, 75, 0
1, 143881, Note_on_c, 0, 87, 0
1, 143957, Control_c, 0, 64, 0
1, 143981, Note_on_c, 0, 89, 80
1, 143985, Note_on_c, 0, 67, 54
1, 143985, Note_on_c, 0, 77, 81
1, 143997, Note_on_c, 0, 63, 45
1, 144001, Note_on_c, 0, 57, 44
1, 144053, Control_c, 0, 64, 127
1, 144389, Note_on_c, 0, 67, 0
1, 144445, Note_on_c, 0, 63, 0
1, 144453, Note_on_c, 0, 57, 0
1, 144645, Note_on_c, 0, 77, 0
1, 144693, Note_on_c, 0, 65, 55
1, 144705, Control_c, 0, 64, 0
1, 144709, Note_on_c, 0, 62, 52
1, 144713, Note_on_c, 0, 60, 52
1, 144805, Control_c, 0, 64, 127
1, 144937, Note_on_c, 0, 89, 0
1, 144961, Note_on_c, 0, 81, 66
1, 144977, Note_on_c, 0, 65, 0
1, 145029, Note_on_c, 0, 81, 0
1, 145105, Note_on_c, 0, 82, 71
1, 145213, Control_c, 0, 64, 0
1, 145221, Note_on_c, 0, 82, 0
1, 145249, Note_on_c, 0, 84, 86
1, 145257, Note_on_c, 0, 53, 59
1, 145297, Control_c, 0, 64, 127
1, 145533, Note_on_c, 0, 60, 0
1, 145537, Note_on_c, 0, 62, 0
1, 145585, Note_on_c, 0, 53, 0
1, 145641, Note_on_c, 0, 84, 0
1, 145645, Note_on_c, 0, 77, 42
1, 145693, Note_on_c, 0, 77, 0
1, 145781, Note_on_c, 0, 79, 28
1, 145849, Note_on_c, 0, 79, 0
1, 145869, Control_c, 0, 64, 0
1, 145901, Note_on_c, 0, 62, 50
1, 145905, Note_on_c, 0, 58, 49
1, 145913, Note_on_c, 0, 51, 43
1, 145921, Note_on_c, 0, 81, 72
1, 145993, Control_c, 0, 64, 127
1, 146077, Note_on_c, 0, 81, 0
1, 146137, Note_on_c, 0, 62, 0
1, 146185, Note_on_c, 0, 58, 0
1, 146225, Note_on_c, 0, 51, 0
1, 146249, Note_on_c, 0, 74, 39
1, 146305, Note_on_c, 0, 74, 0
1, 146381, Note_on_c, 0, 75, 43
1, 146457, Control_c, 0, 64, 0
1, 146481, Note_on_c, 0, 75, 0
1, 146521, Note_on_c, 0, 77, 64
1, 146525, Note_on_c, 0, 54, 41
1, 146525, Note_on_c, 0, 44, 40
1, 146533, Control_c, 0, 64, 127
1, 146577, Note_on_c, 0, 44, 0
1, 146613, Note_on_c, 0, 54, 0
1, 146905, Note_on_c, 0, 63, 38
1, 146905, Note_on_c, 0, 71, 42
1, 146913, Note_on_c, 0, 77, 0
1, 146929, Control_c, 0, 64, 0
1, 146937, Note_on_c, 0, 58, 36
1, 146937, Note_on_c, 0, 54, 22
1, 146953, Note_on_c, 0, 71, 0
1, 146953, Note_on_c, 0, 59, 36
1, 147057, Note_on_c, 0, 73, 40
1, 147109, Control_c, 0, 64, 127
1, 147121, Note_on_c, 0, 63, 0
1, 147141, Note_on_c, 0, 54, 0
1, 147141, Control_c, 0, 64, 0
1, 147149, Note_on_c, 0, 73, 0
1, 147157, Note_on_c, 0, 59, 0
1, 147205, Note_on_c, 0, 63, 51
1, 147205, Note_on_c, 0, 75, 70
1, 147233, Note_on_c, 0, 59, 24
1, 147233, Note_on_c, 0, 53, 48
1, 147365, Control_c, 0, 64, 127
1, 147573, Note_on_c, 0, 63, 0
1, 147589, Note_on_c, 0, 59, 0
1, 147589, Note_on_c, 0, 53, 0
1, 147613, Note_on_c, 0, 58, 0
1, 147789, Note_on_c, 0, 63, 42
1, 147805, Note_on_c, 0, 75, 0
1, 147873, Note_on_c, 0, 63, 0
1, 148193, Control_c, 0, 64, 0
1, 148237, Note_on_c, 0, 73, 48
1, 148241, Note_on_c, 0, 63, 39
1, 148245, Note_on_c, 0, 61, 42
1, 148269, Note_on_c, 0, 68, 36
1, 148297, Note_on_c, 0, 70, 25
1, 148297, Control_c, 0, 64, 127
1, 148361, Note_on_c, 0, 70, 0
1, 148413, Note_on_c, 0, 73, 0
1, 148421, Note_on_c, 0, 63, 0
1, 148425, Note_on_c, 0, 68, 0
1, 148497, Note_on_c, 0, 61, 0
1, 148529, Note_on_c, 0, 75, 63
1, 148537, Note_on_c, 0, 63, 50
1, 148545, Note_on_c, 0, 58, 45
1, 148549, Note_on_c, 0, 68, 53
1, 148621, Note_on_c, 0, 63, 0
1, 148633, Note_on_c, 0, 75, 0
1, 148637, Note_on_c, 0, 68, 0
1, 148673, Control_c, 0, 64, 0
1, 148685, Note_on_c, 0, 58, 0
1, 148733, Note_on_c, 0, 63, 32
1, 148733, Note_on_c, 0, 56, 42
1, 148733, Note_on_c, 0, 68, 41
1, 148741, Control_c, 0, 64, 127
1, 148745, Note_on_c, 0, 73, 36
1, 148781, Note_on_c, 0, 73, 0
1, 148785, Note_on_c, 0, 68, 0
1, 148785, Note_on_c, 0, 56, 0
1, 148793, Note_on_c, 0, 63, 0
1, 149001, Control_c, 0, 64, 0
1, 149021, Note_on_c, 0, 70, 49
1, 149029, Note_on_c, 0, 61, 43
1, 149029, Note_on_c, 0, 54, 46
1, 149037, Note_on_c, 0, 66, 45
1, 149057, Note_on_c, 0, 70, 0
1, 149073, Note_on_c, 0, 66, 0
1, 149081, Note_on_c, 0, 61, 0
1, 149113, Note_on_c, 0, 54, 0
1, 149281, Control_c, 0, 64, 127
1, 149385, Control_c, 0, 64, 0
1, 149453, Note_on_c, 0, 68, 56
1, 149457, Note_on_c, 0, 54, 46
1, 149481, Note_on_c, 0, 47, 40
1, 149489, Note_on_c, 0, 63, 35
1, 149545, Note_on_c, 0, 68, 0
1, 149569, Note_on_c, 0, 63, 0
1, 149629, Control_c, 0, 64, 127
1, 149641, Note_on_c, 0, 66, 51
1, 149665, Note_on_c, 0, 54, 0
1, 149665, Note_on_c, 0, 61, 34
1, 149697, Note_on_c, 0, 47, 0
1, 149805, Note_on_c, 0, 61, 0
1, 149865, Note_on_c, 0, 66, 0
1, 149885, Note_on_c, 0, 46, 42
1, 149929, Note_on_c, 0, 58, 45
1, 149937, Note_on_c, 0, 46, 0
1, 149937, Note_on_c, 0, 47, 42
1, 149941, Note_on_c, 0, 63, 51
1, 149945, Note_on_c, 0, 68, 39
1, 149953, Control_c, 0, 64, 88
1, 149957, Control_c, 0, 64, 0
1, 149969, Note_on_c, 0, 48, 52
1, 149981, Note_on_c, 0, 47, 0
1, 150137, Control_c, 0, 64, 127
1, 150337, Note_on_c, 0, 36, 50
1, 150365, Note_on_c, 0, 36, 0
1, 150385, Note_on_c, 0, 48, 0
1, 150429, Control_c, 0, 64, 0
1, 150501, Note_on_c, 0, 52, 48
1, 150517, Control_c, 0, 64, 127
1, 150557, Note_on_c, 0, 42, 36
1, 150677, Note_on_c, 0, 52, 0
1, 150705, Note_on_c, 0, 63, 0
1, 150721, Note_on_c, 0, 58, 0
1, 150729, Note_on_c, 0, 68, 0
1, 150737, Note_on_c, 0, 42, 0
1, 150785, Control_c, 0, 64, 0
1, 150793, Note_on_c, 0, 66, 54
1, 150793, Note_on_c, 0, 57, 48
1, 150793, Note_on_c, 0, 63, 49
1, 150797, Note_on_c, 0, 51, 50
1, 150813, Note_on_c, 0, 61, 39
1, 150825, Note_on_c, 0, 41, 46
1, 150925, Control_c, 0, 64, 127
1, 151061, Note_on_c, 0, 66, 0
1, 151125, Note_on_c, 0, 41, 0
1, 151141, Note_on_c, 0, 51, 0
1, 151193, Note_on_c, 0, 61, 0
1, 151205, Note_on_c, 0, 57, 0
1, 151217, Note_on_c, 0, 63, 0
1, 151225, Note_on_c, 0, 48, 39
1, 151261, Control_c, 0, 64, 72
1, 151265, Control_c, 0, 64, 0
1, 151341, Note_on_c, 0, 48, 0
1, 151357, Control_c, 0, 64, 127
1, 151365, Note_on_c, 0, 51, 42
1, 151365, Note_on_c, 0, 66, 41
1, 151377, Note_on_c, 0, 61, 43
1, 151393, Note_on_c, 0, 57, 30
1, 151401, Note_on_c, 0, 63, 32
1, 151429, Note_on_c, 0, 51, 0
1, 151449, Note_on_c, 0, 57, 0
1, 151453, Note_on_c, 0, 66, 0
1, 151493, Note_on_c, 0, 63, 0
1, 151517, Note_on_c, 0, 61, 0
1, 151617, Control_c, 0, 64, 0
1, 151657, Note_on_c, 0, 64, 49
1, 151657, Note_on_c, 0, 55, 46
1, 151665, Note_on_c, 0, 46, 39
1, 151665, Note_on_c, 0, 60, 47
1, 151693, Note_on_c, 0, 53, 31
1, 151737, Control_c, 0, 64, 127
1, 151777, Note_on_c, 0, 55, 0
1, 151853, Note_on_c, 0, 53, 0
1, 151893, Note_on_c, 0, 46, 0
1, 151897, Note_on_c, 0, 60, 0
1, 151905, Note_on_c, 0, 64, 0
1, 152057, Control_c, 0, 64, 0
1, 152069, Note_on_c, 0, 57, 51
1, 152073, Note_on_c, 0, 60, 50
1, 152073, Note_on_c, 0, 65, 43
1, 152081, Note_on_c, 0, 46, 41
1, 152089, Note_on_c, 0, 62, 45
1, 152113, Note_on_c, 0, 53, 26
1, 152201, Control_c, 0, 64, 127
1, 152237, Note_on_c, 0, 57, 0
1, 152285, Note_on_c, 0, 62, 0
1, 152297, Note_on_c, 0, 65, 0
1, 152305, Note_on_c, 0, 60, 0
1, 152457, Note_on_c, 0, 53, 0
1, 152477, Control_c, 0, 64, 0
1, 152513, Note_on_c, 0, 56, 59
1, 152521, Note_on_c, 0, 68, 56
1, 152529, Note_on_c, 0, 60, 57
1, 152537, Note_on_c, 0, 62, 45
1, 152573, Note_on_c, 0, 62, 0
1, 152577, Note_on_c, 0, 66, 25
1, 152617, Note_on_c, 0, 56, 0
1, 152621, Note_on_c, 0, 60, 0
1, 152629, Note_on_c, 0, 66, 0
1, 152633, Note_on_c, 0, 68, 0
1, 152685, Control_c, 0, 64, 127
1, 152705, Note_on_c, 0, 46, 0
1, 152733, Note_on_c, 0, 57, 31
1, 152793, Note_on_c, 0, 57, 0
1, 152957, Note_on_c, 0, 72, 65
1, 152961, Note_on_c, 0, 62, 61
1, 152973, Note_on_c, 0, 65, 56
1, 152973, Note_on_c, 0, 60, 57
1, 153005, Note_on_c, 0, 65, 0
1, 153021, Note_on_c, 0, 62, 0
1, 153033, Note_on_c, 0, 60, 0
1, 153045, Note_on_c, 0, 72, 0
1, 153049, Control_c, 0, 64, 0
1, 153125, Note_on_c, 0, 74, 75
1, 153129, Note_on_c, 0, 67, 58
1, 153141, Note_on_c, 0, 62, 58
1, 153161, Control_c, 0, 64, 127
1, 153165, Note_on_c, 0, 67, 0
1, 153177, Note_on_c, 0, 62, 0
1, 153217, Note_on_c, 0, 74, 0
1, 153401, Note_on_c, 0, 77, 90
1, 153401, Note_on_c, 0, 72, 85
1, 153401, Control_c, 0, 64, 88
1, 153405, Note_on_c, 0, 69, 85
1, 153405, Control_c, 0, 64, 0
1, 153465, Note_on_c, 0, 69, 0
1, 153469, Note_on_c, 0, 72, 0
1, 153485, Note_on_c, 0, 77, 0
1, 153589, Note_on_c, 0, 68, 37
1, 153593, Note_on_c, 0, 63, 74
1, 153597, Note_on_c, 0, 75, 75
1, 153625, Note_on_c, 0, 68, 0
1, 153637, Note_on_c, 0, 63, 0
1, 153701, Note_on_c, 0, 75, 0
1, 153853, Note_on_c, 0, 74, 72
1, 153853, Note_on_c, 0, 63, 63
1, 153857, Note_on_c, 0, 62, 63
1, 153861, Note_on_c, 0, 67, 65
1, 153961, Note_on_c, 0, 74, 0
1, 154029, Note_on_c, 0, 50, 54
1, 154033, Note_on_c, 0, 72, 57
1, 154041, Control_c, 0, 64, 127
1, 154149, Note_on_c, 0, 67, 0
1, 154181, Note_on_c, 0, 62, 0
1, 154193, Note_on_c, 0, 63, 0
1, 154281, Note_on_c, 0, 72, 0
1, 154301, Control_c, 0, 64, 0
1, 154309, Note_on_c, 0, 63, 56
1, 154321, Note_on_c, 0, 66, 63
1, 154333, Note_on_c, 0, 60, 48
1, 154441, Control_c, 0, 64, 127
1, 154589, Note_on_c, 0, 50, 0
1, 154725, Note_on_c, 0, 50, 57
1, 154801, Note_on_c, 0, 63, 0
1, 154825, Note_on_c, 0, 60, 0
1, 154897, Note_on_c, 0, 66, 0
1, 155165, Note_on_c, 0, 57, 61
1, 155181, Note_on_c, 0, 62, 57
1, 155189, Note_on_c, 0, 58, 54
1, 155225, Control_c, 0, 64, 0
1, 155233, Note_on_c, 0, 50, 0
1, 155345, Note_on_c, 0, 69, 46
1, 155409, Note_on_c, 0, 69, 0
1, 155477, Note_on_c, 0, 69, 11
1, 155497, Note_on_c, 0, 70, 61
1, 155509, Note_on_c, 0, 69, 0
1, 155565, Note_on_c, 0, 70, 0
1, 155637, Note_on_c, 0, 74, 81
1, 155653, Note_on_c, 0, 57, 0
1, 155665, Note_on_c, 0, 55, 56
1, 155713, Note_on_c, 0, 62, 0
1, 155721, Note_on_c, 0, 58, 0
1, 155741, Note_on_c, 0, 55, 0
1, 155749, Note_on_c, 0, 74, 0
1, 155797, Note_on_c, 0, 77, 69
1, 155881, Control_c, 0, 64, 127
1, 155885, Note_on_c, 0, 77, 0
1, 155945, Note_on_c, 0, 81, 70
1, 156009, Note_on_c, 0, 81, 0
1, 156069, Note_on_c, 0, 82, 74
1, 156145, Control_c, 0, 64, 40
1, 156145, Control_c, 0, 64, 0
1, 156197, Note_on_c, 0, 36, 43
1, 156209, Note_on_c, 0, 82, 0
1, 156213, Note_on_c, 0, 52, 39
1, 156229, Note_on_c, 0, 84, 64
1, 156233, Note_on_c, 0, 36, 0
1, 156233, Note_on_c, 0, 72, 54
1, 156257, Control_c, 0, 64, 127
1, 156325, Note_on_c, 0, 52, 0
1, 156429, Note_on_c, 0, 84, 0
1, 156453, Note_on_c, 0, 72, 0
1, 156633, Note_on_c, 0, 64, 45
1, 156641, Note_on_c, 0, 58, 42
1, 156653, Note_on_c, 0, 61, 32
1, 156657, Note_on_c, 0, 55, 47
1, 156697, Note_on_c, 0, 55, 0
1, 156713, Note_on_c, 0, 64, 0
1, 156741, Note_on_c, 0, 58, 0
1, 156757, Note_on_c, 0, 61, 0
1, 156917, Note_on_c, 0, 85, 79
1, 156917, Note_on_c, 0, 73, 75
1, 157025, Note_on_c, 0, 73, 0
1, 157037, Note_on_c, 0, 85, 0
1, 157049, Control_c, 0, 64, 0
1, 157081, Note_on_c, 0, 67, 56
1, 157093, Note_on_c, 0, 63, 48
1, 157093, Note_on_c, 0, 62, 50
1, 157097, Note_on_c, 0, 58, 50
1, 157101, Note_on_c, 0, 74, 75
1, 157105, Note_on_c, 0, 86, 70
1, 157109, Note_on_c, 0, 82, 57
1, 157109, Note_on_c, 0, 79, 68
1, 157185, Control_c, 0, 64, 127
1, 157297, Note_on_c, 0, 86, 0
1, 157301, Note_on_c, 0, 58, 0
1, 157305, Note_on_c, 0, 74, 0
1, 157305, Note_on_c, 0, 62, 0
1, 157305, Note_on_c, 0, 67, 0
1, 157317, Note_on_c, 0, 79, 0
1, 157317, Note_on_c, 0, 63, 0
1, 157329, Note_on_c, 0, 82, 0
1, 157365, Note_on_c, 0, 86, 76
1, 157369, Note_on_c, 0, 74, 70
1, 157369, Note_on_c, 0, 67, 61
1, 157369, Note_on_c, 0, 58, 51
1, 157377, Note_on_c, 0, 82, 56
1, 157381, Note_on_c, 0, 79, 67
1, 157385, Note_on_c, 0, 63, 58
1, 157385, Note_on_c, 0, 62, 56
1, 157465, Note_on_c, 0, 86, 0
1, 157469, Note_on_c, 0, 58, 0
1, 157469, Note_on_c, 0, 67, 0
1, 157485, Note_on_c, 0, 74, 0
1, 157497, Note_on_c, 0, 62, 0
1, 157513, Note_on_c, 0, 79, 0
1, 157513, Note_on_c, 0, 63, 0
1, 157521, Note_on_c, 0, 82, 0
1, 157549, Note_on_c, 0, 58, 48
1, 157561, Note_on_c, 0, 67, 46
1, 157561, Note_on_c, 0, 84, 58
1, 157565, Note_on_c, 0, 63, 24
1, 157573, Note_on_c, 0, 62, 29
1, 157573, Note_on_c, 0, 72, 47
1, 157577, Note_on_c, 0, 79, 48
1, 157577, Note_on_c, 0, 82, 50
1, 157605, Note_on_c, 0, 72, 0
1, 157629, Note_on_c, 0, 79, 0
1, 157649, Note_on_c, 0, 82, 0
1, 157653, Note_on_c, 0, 84, 0
1, 157657, Note_on_c, 0, 62, 0
1, 157661, Note_on_c, 0, 67, 0
1, 157689, Note_on_c, 0, 63, 0
1, 157741, Note_on_c, 0, 58, 0
1, 157805, Control_c, 0, 64, 0
1, 157857, Note_on_c, 0, 89, 85
1, 157865, Note_on_c, 0, 84, 82
1, 157869, Note_on_c, 0, 67, 66
1, 157869, Note_on_c, 0, 57, 68
1, 157869, Note_on_c, 0, 77, 81
1, 157869, Note_on_c, 0, 63, 60
1, 157985, Control_c, 0, 64, 127
1, 158001, Note_on_c, 0, 89, 0
1, 158021, Note_on_c, 0, 84, 0
1, 158053, Note_on_c, 0, 67, 0
1, 158057, Note_on_c, 0, 77, 0
1, 158073, Note_on_c, 0, 57, 0
1, 158125, Note_on_c, 0, 63, 0
1, 158209, Control_c, 0, 64, 0
1, 158273, Note_on_c, 0, 80, 82
1, 158273, Note_on_c, 0, 86, 78
1, 158281, Note_on_c, 0, 66, 75
1, 158281, Note_on_c, 0, 74, 66
1, 158289, Note_on_c, 0, 57, 56
1, 158289, Note_on_c, 0, 63, 57
1, 158305, Note_on_c, 0, 61, 47
1, 158389, Note_on_c, 0, 80, 0
1, 158401, Note_on_c, 0, 81, 50
1, 158409, Control_c, 0, 64, 127
1, 158469, Note_on_c, 0, 74, 0
1, 158473, Note_on_c, 0, 61, 0
1, 158473, Note_on_c, 0, 81, 0
1, 158481, Note_on_c, 0, 57, 0
1, 158485, Note_on_c, 0, 86, 0
1, 158489, Note_on_c, 0, 66, 0
1, 158497, Note_on_c, 0, 63, 0
1, 158565, Control_c, 0, 64, 0
1, 158589, Note_on_c, 0, 84, 70
1, 158593, Note_on_c, 0, 66, 70
1, 158593, Note_on_c, 0, 72, 62
1, 158601, Note_on_c, 0, 80, 66
1, 158601, Note_on_c, 0, 57, 57
1, 158613, Note_on_c, 0, 78, 55
1, 158621, Control_c, 0, 64, 127
1, 158621, Note_on_c, 0, 63, 48
1, 158629, Note_on_c, 0, 61, 35
1, 158677, Note_on_c, 0, 78, 0
1, 158725, Note_on_c, 0, 80, 0
1, 158729, Note_on_c, 0, 57, 0
1, 158749, Note_on_c, 0, 72, 0
1, 158765, Note_on_c, 0, 84, 0
1, 158781, Note_on_c, 0, 66, 0
1, 158825, Note_on_c, 0, 63, 0
1, 158829, Control_c, 0, 64, 0
1, 158841, Note_on_c, 0, 61, 0
1, 158889, Note_on_c, 0, 65, 57
1, 158897, Note_on_c, 0, 81, 54
1, 158897, Note_on_c, 0, 62, 49
1, 158913, Note_on_c, 0, 60, 45
1, 158917, Note_on_c, 0, 77, 54
1, 158921, Note_on_c, 0, 55, 49
1, 158921, Note_on_c, 0, 74, 33
1, 158921, Note_on_c, 0, 69, 40
1, 158937, Control_c, 0, 64, 127
1, 159017, Note_on_c, 0, 77, 0
1, 159021, Note_on_c, 0, 65, 0
1, 159033, Note_on_c, 0, 81, 0
1, 159037, Note_on_c, 0, 74, 0
1, 159053, Note_on_c, 0, 55, 0
1, 159057, Note_on_c, 0, 62, 0
1, 159061, Note_on_c, 0, 60, 0
1, 159065, Note_on_c, 0, 69, 0
1, 159177, Control_c, 0, 64, 0
1, 159217, Note_on_c, 0, 77, 48
1, 159229, Note_on_c, 0, 72, 41
1, 159233, Note_on_c, 0, 62, 42
1, 159237, Note_on_c, 0, 74, 48
1, 159237, Note_on_c, 0, 55, 47
1, 159249, Note_on_c, 0, 60, 38
1, 159257, Note_on_c, 0, 65, 24
1, 159285, Note_on_c, 0, 62, 0
1, 159285, Control_c, 0, 64, 127
1, 159289, Note_on_c, 0, 60, 0
1, 159341, Note_on_c, 0, 55, 0
1, 159433, Note_on_c, 0, 77, 0
1, 159437, Note_on_c, 0, 74, 0
1, 159453, Note_on_c, 0, 72, 0
1, 159477, Note_on_c, 0, 65, 0
1, 159677, Note_on_c, 0, 39, 49
1, 159713, Note_on_c, 0, 39, 0
1, 159777, Control_c, 0, 64, 0
1, 159849, Note_on_c, 0, 70, 57
1, 159865, Note_on_c, 0, 60, 41
1, 159877, Note_on_c, 0, 65, 40
1, 159905, Note_on_c, 0, 60, 0
1, 159913, Note_on_c, 0, 65, 0
1, 159921, Note_on_c, 0, 70, 0
1, 160005, Note_on_c, 0, 54, 35
1, 160121, Note_on_c, 0, 54, 0
1, 160145, Note_on_c, 0, 70, 60
1, 160153, Note_on_c, 0, 65, 57
1, 160153, Note_on_c, 0, 60, 48
1, 160153, Note_on_c, 0, 55, 51
1, 160237, Note_on_c, 0, 70, 0
1, 160241, Note_on_c, 0, 65, 0
1, 160245, Control_c, 0, 64, 127
1, 160257, Note_on_c, 0, 60, 0
1, 160297, Control_c, 0, 64, 0
1, 160321, Note_on_c, 0, 55, 0
1, 160333, Note_on_c, 0, 69, 45
1, 160341, Note_on_c, 0, 54, 45
1, 160341, Note_on_c, 0, 59, 33
1, 160345, Note_on_c, 0, 64, 45
1, 160349, Control_c, 0, 64, 127
1, 160437, Note_on_c, 0, 59, 0
1, 160437, Note_on_c, 0, 69, 0
1, 160489, Note_on_c, 0, 64, 0
1, 160585, Note_on_c, 0, 54, 0
1, 160609, Note_on_c, 0, 70, 60
1, 160617, Note_on_c, 0, 65, 52
1, 160621, Note_on_c, 0, 60, 51
1, 160625, Note_on_c, 0, 55, 38
1, 160657, Note_on_c, 0, 55, 0
1, 160661, Note_on_c, 0, 60, 0
1, 160665, Note_on_c, 0, 65, 0
1, 160681, Note_on_c, 0, 70, 0
1, 160713, Control_c, 0, 64, 0
1, 160781, Note_on_c, 0, 44, 58
1, 160897, Control_c, 0, 64, 127
1, 161177, Control_c, 0, 64, 0
1, 161225, Note_on_c, 0, 70, 56
1, 161237, Note_on_c, 0, 59, 39
1, 161241, Note_on_c, 0, 63, 43
1, 161257, Note_on_c, 0, 70, 0
1, 161273, Note_on_c, 0, 59, 0
1, 161277, Note_on_c, 0, 63, 0
1, 161361, Note_on_c, 0, 51, 39
1, 161417, Note_on_c, 0, 51, 0
1, 161501, Note_on_c, 0, 70, 73
1, 161513, Note_on_c, 0, 53, 49
1, 161521, Note_on_c, 0, 63, 56
1, 161529, Note_on_c, 0, 59, 43
1, 161553, Note_on_c, 0, 53, 0
1, 161573, Note_on_c, 0, 59, 0
1, 161573, Control_c, 0, 64, 127
1, 161589, Note_on_c, 0, 70, 0
1, 161613, Note_on_c, 0, 44, 0
1, 161621, Note_on_c, 0, 63, 0
1, 161637, Control_c, 0, 64, 0
1, 161677, Note_on_c, 0, 56, 49
1, 161685, Note_on_c, 0, 63, 56
1, 161689, Note_on_c, 0, 68, 58
1, 161689, Note_on_c, 0, 49, 51
1, 161697, Note_on_c, 0, 59, 51
1, 161753, Control_c, 0, 64, 127
1, 161925, Note_on_c, 0, 56, 0
1, 161973, Note_on_c, 0, 59, 0
1, 162125, Note_on_c, 0, 56, 58
1, 162129, Note_on_c, 0, 63, 0
1, 162177, Note_on_c, 0, 49, 0
1, 162185, Note_on_c, 0, 68, 0
1, 162197, Note_on_c, 0, 56, 0
1, 162525, Control_c, 0, 64, 0
1, 162561, Note_on_c, 0, 61, 39
1, 162565, Note_on_c, 0, 82, 48
1, 162577, Note_on_c, 0, 56, 41
1, 162581, Note_on_c, 0, 78, 50
1, 162585, Note_on_c, 0, 70, 39
1, 162593, Note_on_c, 0, 58, 42
1, 162609, Control_c, 0, 64, 127
1, 162717, Note_on_c, 0, 56, 0
1, 162725, Note_on_c, 0, 70, 0
1, 162745, Note_on_c, 0, 61, 0
1, 162745, Note_on_c, 0, 58, 0
1, 162753, Note_on_c, 0, 78, 0
1, 162761, Note_on_c, 0, 82, 0
1, 162865, Note_on_c, 0, 61, 50
1, 162869, Note_on_c, 0, 82, 58
1, 162881, Note_on_c, 0, 70, 55
1, 162885, Note_on_c, 0, 58, 45
1, 162889, Note_on_c, 0, 78, 55
1, 162901, Note_on_c, 0, 56, 38
1, 162917, Note_on_c, 0, 70, 0
1, 162925, Note_on_c, 0, 61, 0
1, 162941, Note_on_c, 0, 58, 0
1, 162941, Note_on_c, 0, 56, 0
1, 162953, Note_on_c, 0, 78, 0
1, 162961, Note_on_c, 0, 82, 0
1, 163041, Note_on_c, 0, 85, 69
1, 163045, Note_on_c, 0, 80, 65
1, 163045, Note_on_c, 0, 73, 56
1, 163049, Note_on_c, 0, 58, 43
1, 163093, Note_on_c, 0, 58, 0
1, 163217, Note_on_c, 0, 73, 0
1, 163217, Note_on_c, 0, 85, 0
1, 163225, Note_on_c, 0, 80, 0
1, 163321, Note_on_c, 0, 85, 65
1, 163329, Note_on_c, 0, 73, 57
1, 163333, Note_on_c, 0, 80, 62
1, 163365, Note_on_c, 0, 73, 0
1, 163401, Note_on_c, 0, 80, 0
1, 163413, Note_on_c, 0, 85, 0
1, 163453, Control_c, 0, 64, 0
1, 163469, Note_on_c, 0, 54, 50
1, 163493, Note_on_c, 0, 47, 48
1, 163501, Note_on_c, 0, 87, 50
1, 163509, Note_on_c, 0, 75, 40
1, 163509, Note_on_c, 0, 82, 45
1, 163589, Note_on_c, 0, 87, 0
1, 163593, Control_c, 0, 64, 127
1, 163597, Note_on_c, 0, 75, 0
1, 163617, Note_on_c, 0, 82, 0
1, 163709, Note_on_c, 0, 54, 0
1, 163753, Note_on_c, 0, 87, 57
1, 163777, Note_on_c, 0, 82, 42
1, 163809, Note_on_c, 0, 82, 0
1, 163821, Note_on_c, 0, 87, 0
1, 163909, Note_on_c, 0, 54, 45
1, 163909, Note_on_c, 0, 90, 63
1, 163925, Note_on_c, 0, 78, 39
1, 163933, Note_on_c, 0, 85, 45
1, 163985, Note_on_c, 0, 47, 0
1, 164037, Note_on_c, 0, 85, 0
1, 164077, Note_on_c, 0, 90, 0
1, 164085, Note_on_c, 0, 78, 0
1, 164125, Note_on_c, 0, 54, 0
1, 164181, Note_on_c, 0, 90, 51
1, 164201, Note_on_c, 0, 78, 28
1, 164205, Note_on_c, 0, 85, 46
1, 164233, Note_on_c, 0, 85, 0
1, 164237, Note_on_c, 0, 78, 0
1, 164261, Note_on_c, 0, 90, 0
1, 164345, Control_c, 0, 64, 0
1, 164397, Note_on_c, 0, 58, 33
1, 164401, Note_on_c, 0, 92, 32
1, 164409, Note_on_c, 0, 80, 31
1, 164413, Note_on_c, 0, 87, 39
1, 164421, Note_on_c, 0, 48, 39
1, 164457, Control_c, 0, 64, 127
1, 164505, Note_on_c, 0, 87, 0
1, 164521, Note_on_c, 0, 80, 0
1, 164533, Note_on_c, 0, 92, 0
1, 164545, Note_on_c, 0, 58, 0
1, 164601, Note_on_c, 0, 48, 0
1, 164657, Note_on_c, 0, 92, 57
1, 164661, Note_on_c, 0, 58, 38
1, 164673, Note_on_c, 0, 80, 41
1, 164673, Note_on_c, 0, 87, 57
1, 164701, Note_on_c, 0, 58, 0
1, 164705, Note_on_c, 0, 87, 0
1, 164705, Note_on_c, 0, 80, 0
1, 164725, Note_on_c, 0, 92, 0
1, 164793, Control_c, 0, 64, 0
1, 164833, Note_on_c, 0, 94, 69
1, 164841, Note_on_c, 0, 87, 62
1, 164845, Note_on_c, 0, 82, 49
1, 164861, Note_on_c, 0, 42, 43
1, 164897, Control_c, 0, 64, 127
1, 164945, Note_on_c, 0, 42, 0
1, 165005, Note_on_c, 0, 94, 0
1, 165005, Note_on_c, 0, 87, 0
1, 165013, Note_on_c, 0, 82, 0
1, 165093, Note_on_c, 0, 42, 55
1, 165101, Note_on_c, 0, 94, 68
1, 165113, Note_on_c, 0, 82, 48
1, 165121, Note_on_c, 0, 52, 29
1, 165129, Note_on_c, 0, 87, 49
1, 165157, Note_on_c, 0, 87, 0
1, 165157, Note_on_c, 0, 52, 0
1, 165169, Note_on_c, 0, 82, 0
1, 165201, Note_on_c, 0, 94, 0
1, 165205, Note_on_c, 0, 42, 0
1, 165249, Control_c, 0, 64, 0
1, 165325, Note_on_c, 0, 51, 40
1, 165329, Note_on_c, 0, 41, 42
1, 165333, Control_c, 0, 64, 127
1, 165469, Note_on_c, 0, 51, 0
1, 165597, Note_on_c, 0, 97, 75
1, 165609, Note_on_c, 0, 51, 54
1, 165609, Note_on_c, 0, 85, 66
1, 165609, Note_on_c, 0, 92, 67
1, 165645, Note_on_c, 0, 92, 0
1, 165669, Note_on_c, 0, 97, 0
1, 165717, Note_on_c, 0, 85, 0
1, 165757, Note_on_c, 0, 41, 0
1, 165917, Note_on_c, 0, 51, 0
1, 166021, Note_on_c, 0, 41, 58
1, 166045, Note_on_c, 0, 41, 0
1, 166189, Control_c, 0, 64, 0
1, 166209, Note_on_c, 0, 72, 80
1, 166213, Note_on_c, 0, 65, 80
1, 166213, Note_on_c, 0, 57, 81
1, 166213, Note_on_c, 0, 62, 83
1, 166217, Note_on_c, 0, 69, 66
1, 166313, Control_c, 0, 64, 127
1, 166509, Note_on_c, 0, 69, 0
1, 166541, Note_on_c, 0, 62, 0
1, 166585, Note_on_c, 0, 72, 0
1, 166589, Note_on_c, 0, 65, 0
1, 166609, Control_c, 0, 64, 0
1, 166629, Note_on_c, 0, 57, 0
1, 166645, Note_on_c, 0, 70, 68
1, 166649, Note_on_c, 0, 56, 60
1, 166649, Note_on_c, 0, 62, 57
1, 166653, Note_on_c, 0, 65, 66
1, 166697, Control_c, 0, 64, 127
1, 166921, Note_on_c, 0, 62, 0
1, 166997, Note_on_c, 0, 65, 0
1, 167013, Control_c, 0, 64, 0
1, 167041, Note_on_c, 0, 70, 0
1, 167085, Note_on_c, 0, 56, 0
1, 167089, Note_on_c, 0, 65, 50
1, 167097, Note_on_c, 0, 62, 43
1, 167101, Note_on_c, 0, 55, 43
1, 167101, Note_on_c, 0, 69, 46
1, 167169, Control_c, 0, 64, 127
1, 167277, Note_on_c, 0, 62, 0
1, 167321, Note_on_c, 0, 65, 0
1, 167329, Note_on_c, 0, 69, 0
1, 167393, Note_on_c, 0, 70, 60
1, 167405, Note_on_c, 0, 65, 46
1, 167409, Note_on_c, 0, 62, 52
1, 167413, Note_on_c, 0, 54, 46
1, 167437, Note_on_c, 0, 55, 0
1, 167453, Note_on_c, 0, 65, 0
1, 167473, Note_on_c, 0, 70, 0
1, 167485, Note_on_c, 0, 54, 0
1, 167485, Note_on_c, 0, 62, 0
1, 167585, Note_on_c, 0, 66, 36
1, 167625, Note_on_c, 0, 66, 0
1, 167789, Control_c, 0, 64, 0
1, 167797, Note_on_c, 0, 69, 56
1, 167809, Note_on_c, 0, 62, 51
1, 167813, Note_on_c, 0, 59, 38
1, 167813, Note_on_c, 0, 64, 54
1, 168245, Note_on_c, 0, 57, 53
1, 168285, Note_on_c, 0, 57, 0
1, 168425, Control_c, 0, 64, 127
1, 168429, Note_on_c, 0, 45, 42
1, 168445, Note_on_c, 0, 69, 0
1, 168453, Note_on_c, 0, 59, 0
1, 168457, Note_on_c, 0, 62, 0
1, 168505, Note_on_c, 0, 64, 0
1, 168729, Note_on_c, 0, 61, 52
1, 168737, Control_c, 0, 64, 0
1, 168741, Note_on_c, 0, 55, 43
1, 168741, Note_on_c, 0, 58, 36
1, 168745, Note_on_c, 0, 64, 49
1, 168857, Control_c, 0, 64, 127
1, 168989, Note_on_c, 0, 45, 0
1, 169077, Note_on_c, 0, 58, 0
1, 169161, Note_on_c, 0, 45, 64
1, 169193, Note_on_c, 0, 64, 0
1, 169201, Note_on_c, 0, 61, 0
1, 169245, Note_on_c, 0, 45, 0
1, 169277, Note_on_c, 0, 55, 0
1, 169613, Note_on_c, 0, 81, 120
1, 169733, Note_on_c, 0, 81, 0
1, 169793, Control_c, 0, 64, 0
1, 169797, Note_on_c, 0, 78, 66
1, 169801, Note_on_c, 0, 64, 41
1, 169813, Note_on_c, 0, 61, 35
1, 169829, Note_on_c, 0, 54, 32
1, 169837, Note_on_c, 0, 59, 41
1, 169901, Note_on_c, 0, 78, 0
1, 169925, Note_on_c, 0, 73, 61
1, 170021, Note_on_c, 0, 73, 0
1, 170085, Note_on_c, 0, 69, 52
1, 170241, Control_c, 0, 64, 127
1, 170365, Note_on_c, 0, 69, 0
1, 170385, Note_on_c, 0, 76, 76
1, 170413, Note_on_c, 0, 64, 0
1, 170461, Note_on_c, 0, 76, 0
1, 170469, Control_c, 0, 64, 0
1, 170485, Note_on_c, 0, 59, 0
1, 170513, Note_on_c, 0, 61, 0
1, 170529, Note_on_c, 0, 73, 56
1, 170557, Note_on_c, 0, 54, 0
1, 170617, Note_on_c, 0, 73, 0
1, 170653, Control_c, 0, 64, 56
1, 170657, Control_c, 0, 64, 127
1, 170669, Note_on_c, 0, 69, 43
1, 170733, Note_on_c, 0, 69, 0
1, 170813, Note_on_c, 0, 66, 48
1, 170865, Note_on_c, 0, 66, 0
1, 170941, Control_c, 0, 64, 0
1, 170973, Note_on_c, 0, 55, 44
1, 170973, Note_on_c, 0, 64, 48
1, 170989, Note_on_c, 0, 45, 36
1, 171101, Control_c, 0, 64, 127
1, 171221, Note_on_c, 0, 45, 0
1, 171249, Note_on_c, 0, 64, 0
1, 171265, Note_on_c, 0, 55, 0
1, 171265, Note_on_c, 0, 66, 57
1, 171337, Note_on_c, 0, 66, 0
1, 171393, Note_on_c, 0, 67, 66
1, 171481, Note_on_c, 0, 67, 0
1, 171517, Control_c, 0, 64, 0
1, 171553, Note_on_c, 0, 68, 63
1, 171565, Note_on_c, 0, 62, 45
1, 171577, Note_on_c, 0, 59, 28
1, 171585, Note_on_c, 0, 55, 40
1, 171597, Note_on_c, 0, 52, 23
1, 171637, Note_on_c, 0, 68, 0
1, 171701, Note_on_c, 0, 69, 63
1, 171781, Note_on_c, 0, 69, 0
1, 171829, Note_on_c, 0, 66, 56
1, 171937, Note_on_c, 0, 66, 0
1, 171969, Note_on_c, 0, 67, 55
1, 172057, Note_on_c, 0, 67, 0
1, 172089, Note_on_c, 0, 55, 0
1, 172093, Note_on_c, 0, 52, 0
1, 172105, Note_on_c, 0, 59, 0
1, 172105, Note_on_c, 0, 69, 63
1, 172189, Note_on_c, 0, 62, 0
1, 172193, Note_on_c, 0, 69, 0
1, 172237, Note_on_c, 0, 70, 61
1, 172349, Note_on_c, 0, 70, 0
1, 172377, Note_on_c, 0, 69, 62
1, 172397, Note_on_c, 0, 55, 55
1, 172401, Note_on_c, 0, 61, 49
1, 172405, Note_on_c, 0, 66, 40
1, 172517, Note_on_c, 0, 70, 56
1, 172525, Note_on_c, 0, 69, 0
1, 172661, Note_on_c, 0, 72, 63
1, 172693, Note_on_c, 0, 70, 0
1, 172773, Note_on_c, 0, 72, 0
1, 172785, Note_on_c, 0, 66, 0
1, 172809, Note_on_c, 0, 73, 51
1, 172841, Note_on_c, 0, 55, 0
1, 172853, Note_on_c, 0, 61, 0
1, 172901, Note_on_c, 0, 73, 0
1, 173085, Note_on_c, 0, 38, 57
1, 173089, Note_on_c, 0, 72, 67
1, 173113, Note_on_c, 0, 38, 0
1, 173181, Note_on_c, 0, 72, 0
1, 173225, Note_on_c, 0, 73, 55
1, 173305, Note_on_c, 0, 73, 0
1, 173313, Control_c, 0, 64, 127
1, 173345, Note_on_c, 0, 74, 67
1, 173401, Note_on_c, 0, 74, 0
1, 173469, Note_on_c, 0, 75, 82
1, 173517, Control_c, 0, 64, 0
1, 173549, Note_on_c, 0, 75, 0
1, 173565, Note_on_c, 0, 61, 45
1, 173569, Note_on_c, 0, 64, 46
1, 173585, Note_on_c, 0, 54, 40
1, 173593, Note_on_c, 0, 59, 39
1, 173601, Note_on_c, 0, 76, 63
1, 173801, Note_on_c, 0, 76, 0
1, 173829, Note_on_c, 0, 72, 72
1, 173841, Note_on_c, 0, 64, 0
1, 173901, Note_on_c, 0, 72, 0
1, 173921, Note_on_c, 0, 59, 0
1, 173949, Control_c, 0, 64, 127
1, 173977, Note_on_c, 0, 69, 56
1, 174025, Note_on_c, 0, 54, 0
1, 174037, Note_on_c, 0, 61, 0
1, 174045, Note_on_c, 0, 69, 0
1, 174129, Note_on_c, 0, 66, 35
1, 174149, Control_c, 0, 64, 0
1, 174213, Control_c, 0, 64, 127
1, 174217, Note_on_c, 0, 66, 0
1, 174257, Note_on_c, 0, 62, 40
1, 174321, Note_on_c, 0, 62, 0
1, 174321, Control_c, 0, 64, 0
1, 174405, Note_on_c, 0, 63, 68
1, 174405, Note_on_c, 0, 66, 50
1, 174429, Control_c, 0, 64, 127
1, 174593, Note_on_c, 0, 66, 0
1, 174625, Note_on_c, 0, 63, 0
1, 174685, Control_c, 0, 64, 0
1, 174685, Note_on_c, 0, 56, 65
1, 174693, Note_on_c, 0, 63, 60
1, 174693, Note_on_c, 0, 61, 57
1, 174697, Note_on_c, 0, 68, 46
1, 174721, Note_on_c, 0, 65, 49
1, 174797, Note_on_c, 0, 56, 0
1, 174857, Note_on_c, 0, 56, 62
1, 174905, Control_c, 0, 64, 127
1, 174993, Note_on_c, 0, 56, 0
1, 175025, Note_on_c, 0, 61, 0
1, 175065, Note_on_c, 0, 68, 0
1, 175073, Note_on_c, 0, 65, 0
1, 175105, Note_on_c, 0, 63, 0
1, 175113, Control_c, 0, 64, 0
1, 175137, Note_on_c, 0, 53, 67
1, 175137, Note_on_c, 0, 69, 66
1, 175145, Note_on_c, 0, 60, 62
1, 175145, Note_on_c, 0, 65, 26
1, 175145, Note_on_c, 0, 43, 65
1, 175145, Note_on_c, 0, 62, 58
1, 175229, Control_c, 0, 64, 127
1, 175281, Note_on_c, 0, 60, 0
1, 175285, Note_on_c, 0, 43, 0
1, 175317, Note_on_c, 0, 65, 0
1, 175317, Note_on_c, 0, 62, 0
1, 175333, Note_on_c, 0, 53, 0
1, 175333, Note_on_c, 0, 69, 0
1, 175589, Note_on_c, 0, 76, 81
1, 175593, Note_on_c, 0, 69, 82
1, 175597, Note_on_c, 0, 64, 76
1, 175597, Note_on_c, 0, 65, 82
1, 175601, Note_on_c, 0, 72, 60
1, 175633, Control_c, 0, 64, 0
1, 175637, Note_on_c, 0, 72, 0
1, 175657, Note_on_c, 0, 69, 0
1, 175669, Note_on_c, 0, 65, 0
1, 175685, Note_on_c, 0, 64, 0
1, 175685, Note_on_c, 0, 76, 0
1, 175745, Note_on_c, 0, 62, 51
1, 175853, Note_on_c, 0, 62, 0
1, 175861, Control_c, 0, 64, 127
1, 175873, Note_on_c, 0, 76, 77
1, 175877, Note_on_c, 0, 69, 78
1, 175881, Note_on_c, 0, 64, 72
1, 175881, Note_on_c, 0, 65, 72
1, 175885, Note_on_c, 0, 72, 63
1, 176033, Note_on_c, 0, 64, 0
1, 176049, Note_on_c, 0, 72, 0
1, 176053, Note_on_c, 0, 69, 0
1, 176065, Note_on_c, 0, 65, 0
1, 176097, Note_on_c, 0, 76, 0
1, 176129, Control_c, 0, 64, 0
1, 176161, Note_on_c, 0, 68, 68
1, 176161, Note_on_c, 0, 65, 68
1, 176161, Note_on_c, 0, 62, 73
1, 176161, Note_on_c, 0, 74, 61
1, 176161, Note_on_c, 0, 71, 64
1, 176293, Control_c, 0, 64, 127
1, 176321, Note_on_c, 0, 62, 0
1, 176325, Note_on_c, 0, 74, 0
1, 176329, Note_on_c, 0, 71, 0
1, 176357, Note_on_c, 0, 65, 0
1, 176373, Note_on_c, 0, 68, 0
1, 176589, Note_on_c, 0, 50, 39
1, 176661, Control_c, 0, 64, 0
1, 176721, Note_on_c, 0, 50, 0
1, 176745, Note_on_c, 0, 68, 52
1, 176753, Note_on_c, 0, 63, 52
1, 176757, Note_on_c, 0, 53, 45
1, 176769, Note_on_c, 0, 59, 45
1, 176769, Control_c, 0, 64, 127
1, 176925, Note_on_c, 0, 68, 0
1, 176929, Note_on_c, 0, 59, 0
1, 176937, Note_on_c, 0, 53, 0
1, 176977, Note_on_c, 0, 63, 0
1, 177053, Control_c, 0, 64, 0
1, 177057, Note_on_c, 0, 67, 57
1, 177057, Note_on_c, 0, 62, 56
1, 177061, Note_on_c, 0, 57, 50
1, 177065, Note_on_c, 0, 59, 49
1, 177077, Note_on_c, 0, 43, 51
1, 177081, Note_on_c, 0, 52, 49
1, 177205, Control_c, 0, 64, 127
1, 177341, Note_on_c, 0, 43, 0
1, 177533, Note_on_c, 0, 43, 67
1, 177661, Note_on_c, 0, 43, 0
1, 177713, Note_on_c, 0, 62, 0
1, 177733, Note_on_c, 0, 43, 60
1, 177745, Note_on_c, 0, 59, 0
1, 177745, Note_on_c, 0, 57, 0
1, 177761, Note_on_c, 0, 67, 0
1, 177797, Note_on_c, 0, 52, 0
1, 177985, Control_c, 0, 64, 0
1, 178001, Note_on_c, 0, 59, 68
1, 178005, Note_on_c, 0, 64, 63
1, 178005, Note_on_c, 0, 55, 63
1, 178017, Note_on_c, 0, 52, 57
1, 178121, Control_c, 0, 64, 127
1, 178169, Note_on_c, 0, 43, 0
1, 178433, Note_on_c, 0, 43, 80
1, 178493, Note_on_c, 0, 52, 0
1, 178505, Note_on_c, 0, 55, 0
1, 178569, Note_on_c, 0, 43, 0
1, 178589, Note_on_c, 0, 59, 0
1, 178649, Note_on_c, 0, 55, 45
1, 178665, Note_on_c, 0, 64, 0
1, 178693, Note_on_c, 0, 55, 0
1, 178905, Control_c, 0, 64, 0
1, 178917, Note_on_c, 0, 54, 67
1, 178921, Note_on_c, 0, 39, 62
1, 178921, Note_on_c, 0, 65, 81
1, 178921, Note_on_c, 0, 58, 89
1, 178921, Note_on_c, 0, 61, 80
1, 179021, Control_c, 0, 64, 127
1, 179061, Note_on_c, 0, 54, 0
1, 179073, Note_on_c, 0, 65, 0
1, 179109, Note_on_c, 0, 61, 0
1, 179137, Note_on_c, 0, 58, 0
1, 179217, Note_on_c, 0, 53, 50
1, 179269, Note_on_c, 0, 54, 54
1, 179289, Note_on_c, 0, 53, 0
1, 179317, Control_c, 0, 64, 0
1, 179345, Note_on_c, 0, 56, 52
1, 179373, Note_on_c, 0, 54, 0
1, 179381, Note_on_c, 0, 58, 54
1, 179397, Note_on_c, 0, 56, 0
1, 179413, Note_on_c, 0, 58, 0
1, 179453, Note_on_c, 0, 60, 72
1, 179457, Note_on_c, 0, 39, 0
1, 179517, Note_on_c, 0, 60, 0
1, 179517, Note_on_c, 0, 61, 54
1, 179585, Note_on_c, 0, 63, 57
1, 179597, Note_on_c, 0, 61, 0
1, 179617, Note_on_c, 0, 63, 0
1, 179657, Note_on_c, 0, 65, 69
1, 179717, Note_on_c, 0, 65, 0
1, 179729, Note_on_c, 0, 66, 40
1, 179797, Note_on_c, 0, 68, 45
1, 179801, Note_on_c, 0, 66, 0
1, 179829, Note_on_c, 0, 68, 0
1, 179829, Note_on_c, 0, 70, 45
1, 179861, Note_on_c, 0, 70, 0
1, 179897, Note_on_c, 0, 72, 56
1, 179933, Note_on_c, 0, 72, 0
1, 179973, Note_on_c, 0, 73, 45
1, 179977, Note_on_c, 0, 44, 54
1, 179977, Note_on_c, 0, 54, 46
1, 180009, Note_on_c, 0, 73, 0
1, 180021, Note_on_c, 0, 44, 0
1, 180029, Note_on_c, 0, 75, 56
1, 180053, Note_on_c, 0, 75, 0
1, 180065, Note_on_c, 0, 54, 0
1, 180109, Note_on_c, 0, 77, 62
1, 180137, Note_on_c, 0, 77, 0
1, 180185, Note_on_c, 0, 78, 39
1, 180241, Note_on_c, 0, 78, 0
1, 180253, Note_on_c, 0, 80, 32
1, 180293, Note_on_c, 0, 80, 0
1, 180301, Note_on_c, 0, 82, 35
1, 180341, Note_on_c, 0, 82, 0
1, 180361, Note_on_c, 0, 84, 56
1, 180389, Note_on_c, 0, 84, 0
1, 180413, Note_on_c, 0, 65, 42
1, 180417, Note_on_c, 0, 54, 39
1, 180421, Note_on_c, 0, 61, 45
1, 180429, Note_on_c, 0, 58, 48
1, 180433, Note_on_c, 0, 85, 49
1, 180469, Note_on_c, 0, 85, 0
1, 180613, Note_on_c, 0, 65, 0
1, 180629, Control_c, 0, 64, 127
1, 180669, Note_on_c, 0, 90, 45
1, 180717, Note_on_c, 0, 92, 55
1, 180729, Note_on_c, 0, 58, 0
1, 180733, Note_on_c, 0, 90, 0
1, 180737, Note_on_c, 0, 61, 0
1, 180753, Note_on_c, 0, 54, 0
1, 180805, Note_on_c, 0, 92, 0
1, 180813, Note_on_c, 0, 93, 56
1, 180885, Control_c, 0, 64, 0
1, 180901, Note_on_c, 0, 93, 0
1, 180925, Note_on_c, 0, 96, 92
1, 180933, Note_on_c, 0, 57, 47
1, 180945, Note_on_c, 0, 65, 55
1, 180949, Note_on_c, 0, 60, 55
1, 181101, Control_c, 0, 64, 127
1, 181113, Note_on_c, 0, 96, 0
1, 181149, Note_on_c, 0, 93, 79
1, 181245, Note_on_c, 0, 93, 0
1, 181333, Note_on_c, 0, 65, 0
1, 181413, Note_on_c, 0, 53, 57
1, 181465, Note_on_c, 0, 57, 0
1, 181469, Note_on_c, 0, 60, 0
1, 181541, Note_on_c, 0, 53, 0
1, 181733, Note_on_c, 0, 69, 79
1, 181733, Note_on_c, 0, 76, 85
1, 181733, Note_on_c, 0, 65, 85
1, 181737, Note_on_c, 0, 72, 68
1, 181745, Note_on_c, 0, 64, 82
1, 181765, Control_c, 0, 64, 0
1, 181885, Control_c, 0, 64, 127
1, 181973, Note_on_c, 0, 64, 0
1, 182041, Note_on_c, 0, 69, 0
1, 182041, Note_on_c, 0, 72, 0
1, 182073, Note_on_c, 0, 65, 0
1, 182097, Note_on_c, 0, 76, 0
1, 182213, Note_on_c, 0, 68, 66
1, 182217, Note_on_c, 0, 62, 68
1, 182217, Control_c, 0, 64, 0
1, 182217, Note_on_c, 0, 71, 65
1, 182217, Note_on_c, 0, 65, 63
1, 182225, Note_on_c, 0, 74, 56
1, 182321, Note_on_c, 0, 62, 0
1, 182341, Note_on_c, 0, 74, 0
1, 182353, Note_on_c, 0, 71, 0
1, 182385, Note_on_c, 0, 68, 0
1, 182401, Note_on_c, 0, 65, 0
1, 182413, Note_on_c, 0, 59, 54
1, 182437, Control_c, 0, 64, 127
1, 182665, Note_on_c, 0, 59, 0
1, 182685, Note_on_c, 0, 75, 66
1, 182697, Control_c, 0, 64, 0
1, 182701, Note_on_c, 0, 63, 56
1, 182701, Note_on_c, 0, 67, 55
1, 182709, Note_on_c, 0, 62, 54
1, 182789, Note_on_c, 0, 63, 0
1, 182789, Note_on_c, 0, 75, 0
1, 182805, Note_on_c, 0, 62, 0
1, 182829, Note_on_c, 0, 67, 0
1, 182861, Note_on_c, 0, 63, 50
1, 182865, Note_on_c, 0, 74, 59
1, 182873, Note_on_c, 0, 67, 34
1, 182885, Note_on_c, 0, 62, 51
1, 183093, Control_c, 0, 64, 127
1, 183157, Note_on_c, 0, 50, 51
1, 183241, Note_on_c, 0, 50, 0
1, 183333, Note_on_c, 0, 50, 41
1, 183369, Note_on_c, 0, 62, 0
1, 183381, Note_on_c, 0, 67, 0
1, 183425, Note_on_c, 0, 74, 0
1, 183437, Note_on_c, 0, 63, 0
1, 183601, Control_c, 0, 64, 0
1, 183625, Note_on_c, 0, 63, 46
1, 183629, Note_on_c, 0, 72, 52
1, 183645, Note_on_c, 0, 60, 45
1, 183645, Note_on_c, 0, 69, 46
1, 183649, Note_on_c, 0, 66, 39
1, 183713, Control_c, 0, 64, 127
1, 183885, Note_on_c, 0, 50, 0
1, 184065, Note_on_c, 0, 50, 56
1, 184165, Note_on_c, 0, 50, 0
1, 184217, Note_on_c, 0, 60, 0
1, 184245, Note_on_c, 0, 72, 0
1, 184253, Note_on_c, 0, 69, 0
1, 184257, Note_on_c, 0, 50, 43
1, 184265, Note_on_c, 0, 63, 0
1, 184385, Note_on_c, 0, 66, 0
1, 184509, Control_c, 0, 64, 24
1, 184513, Control_c, 0, 64, 0
1, 184533, Note_on_c, 0, 70, 45
1, 184545, Note_on_c, 0, 65, 50
1, 184545, Note_on_c, 0, 62, 42
1, 184557, Note_on_c, 0, 55, 39
1, 184565, Note_on_c, 0, 67, 35
1, 184661, Control_c, 0, 64, 127
1, 184689, Note_on_c, 0, 50, 0
1, 184697, Note_on_c, 0, 55, 0
1, 184833, Note_on_c, 0, 67, 0
1, 184857, Note_on_c, 0, 65, 0
1, 184877, Note_on_c, 0, 70, 0
1, 184893, Note_on_c, 0, 62, 0
1, 184989, Note_on_c, 0, 50, 55
1, 184997, Note_on_c, 0, 49, 48
1, 185033, Note_on_c, 0, 49, 0
1, 185073, Control_c, 0, 64, 0
1, 185173, Note_on_c, 0, 58, 36
1, 185189, Note_on_c, 0, 65, 39
1, 185189, Note_on_c, 0, 62, 41
1, 185205, Note_on_c, 0, 50, 0
1, 185285, Control_c, 0, 64, 127
1, 185333, Note_on_c, 0, 62, 0
1, 185333, Note_on_c, 0, 65, 0
1, 185373, Note_on_c, 0, 58, 0
1, 185453, Note_on_c, 0, 58, 48
1, 185469, Control_c, 0, 64, 0
1, 185469, Note_on_c, 0, 61, 43
1, 185497, Note_on_c, 0, 58, 0
1, 185505, Note_on_c, 0, 61, 0
1, 185589, Note_on_c, 0, 36, 49
1, 185613, Control_c, 0, 64, 127
1, 185629, Note_on_c, 0, 52, 27
1, 185805, Note_on_c, 0, 36, 0
1, 185889, Note_on_c, 0, 52, 0
1, 186049, Control_c, 0, 64, 0
1, 186069, Note_on_c, 0, 58, 45
1, 186073, Control_c, 0, 64, 127
1, 186073, Note_on_c, 0, 61, 49
1, 186077, Note_on_c, 0, 55, 51
1, 186105, Note_on_c, 0, 64, 37
1, 186181, Note_on_c, 0, 55, 0
1, 186201, Note_on_c, 0, 58, 0
1, 186213, Note_on_c, 0, 64, 0
1, 186225, Note_on_c, 0, 61, 0
1, 186413, Note_on_c, 0, 63, 52
1, 186413, Note_on_c, 0, 74, 66
1, 186425, Note_on_c, 0, 70, 49
1, 186425, Note_on_c, 0, 67, 43
1, 186429, Control_c, 0, 64, 0
1, 186489, Note_on_c, 0, 58, 43
1, 186521, Note_on_c, 0, 48, 31
1, 186537, Control_c, 0, 64, 127
1, 186565, Note_on_c, 0, 58, 0
1, 186581, Note_on_c, 0, 74, 0
1, 186581, Note_on_c, 0, 48, 0
1, 186629, Note_on_c, 0, 70, 0
1, 186629, Note_on_c, 0, 67, 0
1, 186633, Note_on_c, 0, 63, 0
1, 186825, Note_on_c, 0, 75, 57
1, 186849, Note_on_c, 0, 63, 38
1, 186893, Note_on_c, 0, 63, 0
1, 186909, Note_on_c, 0, 75, 0
1, 186929, Control_c, 0, 64, 0
1, 186945, Note_on_c, 0, 42, 46
1, 186949, Note_on_c, 0, 52, 39
1, 187017, Control_c, 0, 64, 127
1, 187093, Note_on_c, 0, 64, 13
1, 187125, Note_on_c, 0, 52, 0
1, 187189, Note_on_c, 0, 64, 0
1, 187253, Note_on_c, 0, 42, 0
1, 187285, Note_on_c, 0, 77, 72
1, 187285, Note_on_c, 0, 72, 58
1, 187285, Note_on_c, 0, 65, 63
1, 187305, Control_c, 0, 64, 0
1, 187381, Note_on_c, 0, 51, 41
1, 187405, Note_on_c, 0, 41, 27
1, 187413, Note_on_c, 0, 77, 0
1, 187413, Control_c, 0, 64, 40
1, 187417, Control_c, 0, 64, 127
1, 187421, Note_on_c, 0, 72, 0
1, 187441, Note_on_c, 0, 41, 0
1, 187457, Note_on_c, 0, 65, 0
1, 187477, Note_on_c, 0, 51, 0
1, 187821, Control_c, 0, 64, 0
1, 187829, Note_on_c, 0, 55, 45
1, 187849, Note_on_c, 0, 75, 77
1, 187849, Note_on_c, 0, 61, 45
1, 187889, Note_on_c, 0, 64, 27
1, 187889, Control_c, 0, 64, 127
1, 187973, Note_on_c, 0, 55, 0
1, 188013, Note_on_c, 0, 61, 0
1, 188065, Note_on_c, 0, 64, 0
1, 188097, Note_on_c, 0, 75, 0
1, 188129, Note_on_c, 0, 74, 71
1, 188149, Note_on_c, 0, 69, 61
1, 188245, Note_on_c, 0, 69, 0
1, 188245, Control_c, 0, 64, 0
1, 188277, Note_on_c, 0, 60, 53
1, 188281, Note_on_c, 0, 62, 45
1, 188305, Note_on_c, 0, 74, 0
1, 188329, Control_c, 0, 64, 127
1, 188433, Note_on_c, 0, 69, 74
1, 188633, Note_on_c, 0, 69, 0
1, 188677, Control_c, 0, 64, 0
1, 188713, Note_on_c, 0, 53, 61
1, 188713, Note_on_c, 0, 70, 81
1, 188757, Note_on_c, 0, 60, 0
1, 188761, Note_on_c, 0, 62, 0
1, 188777, Control_c, 0, 64, 127
1, 188825, Note_on_c, 0, 53, 0
1, 188961, Note_on_c, 0, 70, 0
1, 189021, Note_on_c, 0, 72, 72
1, 189033, Note_on_c, 0, 67, 71
1, 189037, Control_c, 0, 64, 0
1, 189041, Note_on_c, 0, 70, 42
1, 189057, Note_on_c, 0, 46, 57
1, 189061, Note_on_c, 0, 39, 60
1, 189157, Note_on_c, 0, 70, 0
1, 189161, Control_c, 0, 64, 56
1, 189165, Control_c, 0, 64, 127
1, 189189, Note_on_c, 0, 39, 0
1, 189189, Note_on_c, 0, 67, 0
1, 189209, Note_on_c, 0, 46, 0
1, 189261, Note_on_c, 0, 72, 0
1, 189289, Note_on_c, 0, 74, 57
1, 189309, Note_on_c, 0, 62, 57
1, 189309, Note_on_c, 0, 67, 56
1, 189309, Note_on_c, 0, 70, 49
1, 189325, Note_on_c, 0, 72, 26
1, 189373, Note_on_c, 0, 74, 0
1, 189381, Note_on_c, 0, 72, 0
1, 189393, Note_on_c, 0, 62, 0
1, 189453, Note_on_c, 0, 67, 0
1, 189473, Note_on_c, 0, 70, 0
1, 189565, Note_on_c, 0, 58, 45
1, 189581, Note_on_c, 0, 75, 52
1, 189597, Note_on_c, 0, 70, 38
1, 189617, Note_on_c, 0, 63, 32
1, 189641, Note_on_c, 0, 70, 0
1, 189641, Note_on_c, 0, 58, 0
1, 189693, Note_on_c, 0, 63, 0
1, 189721, Note_on_c, 0, 75, 0
1, 189857, Note_on_c, 0, 77, 67
1, 189865, Note_on_c, 0, 65, 54
1, 189901, Note_on_c, 0, 65, 0
1, 189969, Note_on_c, 0, 77, 0
1, 189993, Note_on_c, 0, 63, 53
1, 189993, Control_c, 0, 64, 0
1, 190037, Note_on_c, 0, 59, 41
1, 190041, Note_on_c, 0, 58, 30
1, 190053, Note_on_c, 0, 54, 31
1, 190085, Control_c, 0, 64, 127
1, 190125, Note_on_c, 0, 83, 54
1, 190133, Note_on_c, 0, 71, 57
1, 190193, Note_on_c, 0, 63, 0
1, 190285, Note_on_c, 0, 71, 0
1, 190289, Note_on_c, 0, 83, 0
1, 190301, Note_on_c, 0, 59, 0
1, 190421, Control_c, 0, 64, 0
1, 190449, Note_on_c, 0, 63, 49
1, 190449, Note_on_c, 0, 85, 57
1, 190461, Note_on_c, 0, 73, 39
1, 190465, Note_on_c, 0, 80, 46
1, 190481, Control_c, 0, 64, 127
1, 190505, Note_on_c, 0, 59, 22
1, 190565, Note_on_c, 0, 80, 0
1, 190585, Note_on_c, 0, 85, 0
1, 190609, Note_on_c, 0, 63, 0
1, 190613, Note_on_c, 0, 73, 0
1, 190633, Note_on_c, 0, 59, 0
1, 190645, Note_on_c, 0, 54, 0
1, 190697, Note_on_c, 0, 58, 0
1, 190733, Note_on_c, 0, 87, 78
1, 190737, Note_on_c, 0, 63, 62
1, 190737, Note_on_c, 0, 75, 67
1, 190749, Note_on_c, 0, 59, 45
1, 190753, Note_on_c, 0, 82, 59
1, 190753, Note_on_c, 0, 58, 23
1, 190753, Note_on_c, 0, 53, 54
1, 190781, Control_c, 0, 64, 40
1, 190781, Control_c, 0, 64, 0
1, 190825, Note_on_c, 0, 87, 0
1, 190841, Note_on_c, 0, 75, 0
1, 190853, Note_on_c, 0, 82, 0
1, 190897, Control_c, 0, 64, 127
1, 190905, Note_on_c, 0, 63, 0
1, 190929, Note_on_c, 0, 85, 59
1, 190961, Note_on_c, 0, 73, 35
1, 190965, Note_on_c, 0, 80, 44
1, 191045, Note_on_c, 0, 73, 0
1, 191057, Note_on_c, 0, 53, 0
1, 191061, Note_on_c, 0, 58, 0
1, 191069, Note_on_c, 0, 85, 0
1, 191069, Note_on_c, 0, 80, 0
1, 191089, Note_on_c, 0, 59, 0
1, 191173, Note_on_c, 0, 85, 52
1, 191189, Note_on_c, 0, 73, 55
1, 191197, Note_on_c, 0, 80, 48
1, 191233, Note_on_c, 0, 80, 0
1, 191237, Note_on_c, 0, 85, 0
1, 191237, Note_on_c, 0, 63, 44
1, 191241, Note_on_c, 0, 59, 41
1, 191257, Note_on_c, 0, 73, 0
1, 191257, Note_on_c, 0, 58, 37
1, 191281, Control_c, 0, 64, 0
1, 191305, Note_on_c, 0, 63, 0
1, 191345, Note_on_c, 0, 83, 48
1, 191357, Control_c, 0, 64, 127
1, 191369, Note_on_c, 0, 59, 0
1, 191377, Note_on_c, 0, 71, 31
1, 191389, Note_on_c, 0, 80, 30
1, 191417, Note_on_c, 0, 58, 0
1, 191457, Note_on_c, 0, 71, 0
1, 191465, Note_on_c, 0, 83, 0
1, 191481, Note_on_c, 0, 80, 0
1, 191589, Note_on_c, 0, 71, 63
1, 191593, Note_on_c, 0, 83, 43
1, 191617, Note_on_c, 0, 80, 35
1, 191633, Note_on_c, 0, 83, 0
1, 191653, Note_on_c, 0, 71, 0
1, 191661, Note_on_c, 0, 80, 0
1, 191701, Control_c, 0, 64, 0
1, 191737, Note_on_c, 0, 61, 41
1, 191741, Note_on_c, 0, 58, 48
1, 191745, Note_on_c, 0, 51, 36
1, 191757, Note_on_c, 0, 82, 44
1, 191765, Note_on_c, 0, 70, 37
1, 191785, Note_on_c, 0, 75, 31
1, 191801, Note_on_c, 0, 56, 19
1, 191809, Control_c, 0, 64, 127
1, 191833, Note_on_c, 0, 70, 0
1, 191837, Note_on_c, 0, 75, 0
1, 191853, Note_on_c, 0, 82, 0
1, 191913, Note_on_c, 0, 56, 0
1, 191921, Note_on_c, 0, 51, 0
1, 191929, Note_on_c, 0, 61, 0
1, 191957, Note_on_c, 0, 58, 0
1, 192037, Note_on_c, 0, 73, 62
1, 192041, Note_on_c, 0, 85, 63
1, 192045, Note_on_c, 0, 61, 51
1, 192045, Note_on_c, 0, 58, 42
1, 192049, Control_c, 0, 64, 0
1, 192049, Note_on_c, 0, 51, 46
1, 192077, Note_on_c, 0, 85, 0
1, 192085, Note_on_c, 0, 73, 0
1, 192085, Note_on_c, 0, 61, 0
1, 192097, Note_on_c, 0, 51, 0
1, 192149, Note_on_c, 0, 58, 0
1, 192177, Control_c, 0, 64, 127
1, 192553, Control_c, 0, 64, 0
1, 192593, Note_on_c, 0, 47, 38
1, 192613, Control_c, 0, 64, 127
1, 192889, Control_c, 0, 64, 0
1, 192893, Note_on_c, 0, 66, 48
1, 192897, Note_on_c, 0, 54, 42
1, 192901, Note_on_c, 0, 58, 44
1, 192901, Note_on_c, 0, 63, 50
1, 192973, Control_c, 0, 64, 127
1, 193037, Note_on_c, 0, 66, 0
1, 193073, Note_on_c, 0, 63, 0
1, 193149, Note_on_c, 0, 58, 0
1, 193209, Note_on_c, 0, 70, 56
1, 193293, Note_on_c, 0, 47, 0
1, 193305, Note_on_c, 0, 70, 0
1, 193445, Note_on_c, 0, 54, 0
1, 193777, Note_on_c, 0, 68, 57
1, 193793, Note_on_c, 0, 61, 48
1, 193797, Note_on_c, 0, 57, 40
1, 193797, Note_on_c, 0, 63, 48
1, 193801, Control_c, 0, 64, 0
1, 193833, Note_on_c, 0, 41, 42
1, 193921, Control_c, 0, 64, 127
1, 194273, Note_on_c, 0, 57, 0
1, 194333, Note_on_c, 0, 41, 0
1, 194333, Note_on_c, 0, 61, 0
1, 194337, Note_on_c, 0, 63, 0
1, 194665, Note_on_c, 0, 66, 54
1, 194673, Note_on_c, 0, 57, 39
1, 194673, Control_c, 0, 64, 0
1, 194685, Note_on_c, 0, 61, 37
1, 194685, Note_on_c, 0, 63, 38
1, 194685, Note_on_c, 0, 47, 36
1, 194765, Control_c, 0, 64, 127
1, 194809, Note_on_c, 0, 47, 0
1, 194845, Note_on_c, 0, 68, 0
1, 194897, Note_on_c, 0, 57, 0
1, 194933, Note_on_c, 0, 66, 0
1, 194985, Note_on_c, 0, 63, 0
1, 195009, Note_on_c, 0, 61, 0
1, 195065, Control_c, 0, 64, 0
1, 195081, Note_on_c, 0, 56, 49
1, 195097, Note_on_c, 0, 65, 43
1, 195113, Note_on_c, 0, 46, 29
1, 195113, Note_on_c, 0, 34, 39
1, 195117, Note_on_c, 0, 63, 40
1, 195137, Note_on_c, 0, 60, 40
1, 195233, Control_c, 0, 64, 127
1, 195273, Note_on_c, 0, 34, 0
1, 195297, Note_on_c, 0, 56, 0
1, 195301, Note_on_c, 0, 60, 0
1, 195321, Note_on_c, 0, 46, 0
1, 195345, Note_on_c, 0, 63, 0
1, 195345, Note_on_c, 0, 65, 0
1, 195533, Note_on_c, 0, 58, 66
1, 195541, Note_on_c, 0, 46, 59
1, 195557, Control_c, 0, 64, 0
1, 195677, Control_c, 0, 64, 127
1, 195989, Note_on_c, 0, 46, 0
1, 196009, Note_on_c, 0, 58, 0
1, 196037, Control_c, 0, 64, 0
1, 196101, Note_on_c, 0, 59, 45
1, 196109, Note_on_c, 0, 47, 46
1, 196173, Control_c, 0, 64, 127
1, 196229, Note_on_c, 0, 47, 0
1, 196281, Note_on_c, 0, 59, 0
1, 196493, Control_c, 0, 64, 0
1, 196545, Control_c, 0, 64, 127
1, 196557, Note_on_c, 0, 66, 57
1, 196685, Note_on_c, 0, 66, 0
1, 196813, Note_on_c, 0, 46, 35
1, 196869, Note_on_c, 0, 46, 0
1, 196921, Control_c, 0, 64, 0
1, 196969, Note_on_c, 0, 65, 39
1, 196977, Note_on_c, 0, 58, 41
1, 196977, Note_on_c, 0, 61, 39
1, 196989, Note_on_c, 0, 54, 24
1, 197037, Note_on_c, 0, 39, 28
1, 197053, Control_c, 0, 64, 127
1, 197289, Note_on_c, 0, 46, 42
1, 197317, Note_on_c, 0, 54, 0
1, 197321, Note_on_c, 0, 39, 0
1, 197393, Note_on_c, 0, 58, 0
1, 197457, Note_on_c, 0, 53, 25
1, 197473, Note_on_c, 0, 61, 0
1, 197713, Control_c, 0, 64, 0
1, 197741, Note_on_c, 0, 61, 36
1, 197741, Note_on_c, 0, 54, 42
1, 197749, Note_on_c, 0, 58, 48
1, 197797, Control_c, 0, 64, 127
1, 197825, Note_on_c, 0, 53, 0
1, 197985, Note_on_c, 0, 46, 0
1, 198145, Note_on_c, 0, 46, 46
1, 198201, Note_on_c, 0, 54, 0
1, 198213, Note_on_c, 0, 58, 0
1, 198309, Note_on_c, 0, 46, 0
1, 198353, Note_on_c, 0, 58, 32
1, 198353, Note_on_c, 0, 54, 25
1, 198413, Note_on_c, 0, 54, 0
1, 198517, Note_on_c, 0, 58, 0
1, 198657, Note_on_c, 0, 39, 38
1, 198665, Note_on_c, 0, 61, 0
1, 198701, Note_on_c, 0, 39, 0
1, 198705, Note_on_c, 0, 65, 0
1, 198753, Control_c, 0, 64, 0
1, 198809, Note_on_c, 0, 56, 47
1, 198825, Control_c, 0, 64, 127
1, 198829, Note_on_c, 0, 63, 42
1, 198849, Note_on_c, 0, 60, 39
1, 198849, Note_on_c, 0, 39, 41
1, 199041, Note_on_c, 0, 60, 0
1, 199049, Note_on_c, 0, 56, 0
1, 199093, Note_on_c, 0, 48, 51
1, 199109, Note_on_c, 0, 63, 0
1, 199189, Control_c, 0, 64, 0
1, 199225, Note_on_c, 0, 53, 39
1, 199257, Note_on_c, 0, 53, 0
1, 199301, Control_c, 0, 64, 127
1, 199309, Note_on_c, 0, 56, 35
1, 199361, Note_on_c, 0, 56, 0
1, 199377, Note_on_c, 0, 58, 49
1, 199417, Note_on_c, 0, 58, 0
1, 199453, Note_on_c, 0, 60, 55
1, 199509, Note_on_c, 0, 60, 0
1, 199537, Note_on_c, 0, 63, 57
1, 199605, Note_on_c, 0, 63, 0
1, 199645, Note_on_c, 0, 65, 68
1, 199697, Note_on_c, 0, 65, 0
1, 199713, Note_on_c, 0, 68, 63
1, 199793, Note_on_c, 0, 68, 0
1, 199801, Note_on_c, 0, 70, 60
1, 199829, Note_on_c, 0, 70, 0
1, 199885, Note_on_c, 0, 72, 58
1, 199921, Note_on_c, 0, 72, 0
1, 199961, Note_on_c, 0, 75, 58
1, 199993, Note_on_c, 0, 75, 0
1, 200069, Note_on_c, 0, 77, 63
1, 200109, Note_on_c, 0, 77, 0
1, 200133, Note_on_c, 0, 48, 0
1, 200149, Note_on_c, 0, 80, 50
1, 200165, Note_on_c, 0, 39, 0
1, 200237, Note_on_c, 0, 80, 0
1, 200241, Note_on_c, 0, 82, 49
1, 200337, Note_on_c, 0, 82, 0
1, 200373, Note_on_c, 0, 84, 48
1, 200469, Note_on_c, 0, 84, 0
1, 200489, Control_c, 0, 64, 0
1, 200493, Note_on_c, 0, 82, 66
1, 200501, Note_on_c, 0, 39, 52
1, 200501, Note_on_c, 0, 54, 49
1, 200581, Control_c, 0, 64, 40
1, 200581, Control_c, 0, 64, 127
1, 200641, Note_on_c, 0, 39, 0
1, 200705, Note_on_c, 0, 54, 0
1, 200965, Note_on_c, 0, 82, 0
1, 201201, Note_on_c, 0, 65, 49
1, 201221, Note_on_c, 0, 54, 37
1, 201221, Note_on_c, 0, 61, 50
1, 201221, Note_on_c, 0, 58, 49
1, 201409, Note_on_c, 0, 58, 0
1, 201429, Note_on_c, 0, 54, 0
1, 201457, Note_on_c, 0, 65, 0
1, 201473, Note_on_c, 0, 61, 0
1, 201645, Note_on_c, 0, 65, 56
1, 201645, Note_on_c, 0, 61, 54
1, 201665, Note_on_c, 0, 58, 46
1, 201665, Note_on_c, 0, 54, 36
1, 201705, Note_on_c, 0, 65, 0
1, 201757, Note_on_c, 0, 61, 0
1, 201769, Note_on_c, 0, 58, 0
1, 201773, Note_on_c, 0, 54, 0
1, 202097, Note_on_c, 0, 39, 59
1, 202209, Note_on_c, 0, 39, 0
1, 202249, Control_c, 0, 64, 0
1, 202285, Control_c, 0, 64, 127
1, 202293, Note_on_c, 0, 39, 61
1, 202409, Note_on_c, 0, 39, 0
1, 202961, Note_on_c, 0, 63, 54
1, 202981, Note_on_c, 0, 60, 46
1, 202985, Note_on_c, 0, 56, 46
1, 203017, Note_on_c, 0, 53, 25
1, 203029, Control_c, 0, 64, 0
1, 203169, Note_on_c, 0, 72, 36
1, 203229, Note_on_c, 0, 72, 0
1, 203237, Control_c, 0, 64, 88
1, 203241, Control_c, 0, 64, 127
1, 203317, Note_on_c, 0, 75, 60
1, 203385, Note_on_c, 0, 75, 0
1, 203445, Note_on_c, 0, 77, 81
1, 203529, Note_on_c, 0, 77, 0
1, 203589, Note_on_c, 0, 63, 0
1, 203593, Note_on_c, 0, 82, 78
1, 203597, Note_on_c, 0, 53, 0
1, 203613, Note_on_c, 0, 60, 0
1, 203621, Note_on_c, 0, 56, 0
1, 203713, Note_on_c, 0, 82, 0
1, 203745, Note_on_c, 0, 79, 55
1, 203813, Note_on_c, 0, 79, 0
1, 203889, Note_on_c, 0, 80, 74
1, 203949, Control_c, 0, 64, 0
1, 203993, Note_on_c, 0, 39, 50
1, 204037, Control_c, 0, 64, 127
1, 204045, Note_on_c, 0, 39, 0
1, 204049, Note_on_c, 0, 82, 52
1, 204061, Note_on_c, 0, 80, 0
1, 204137, Note_on_c, 0, 82, 0
1, 204193, Note_on_c, 0, 84, 57
1, 204273, Note_on_c, 0, 84, 0
1, 204341, Note_on_c, 0, 85, 68
1, 204381, Note_on_c, 0, 58, 48
1, 204381, Note_on_c, 0, 61, 48
1, 204381, Note_on_c, 0, 65, 50
1, 204393, Note_on_c, 0, 54, 38
1, 204401, Control_c, 0, 64, 0
1, 204469, Note_on_c, 0, 85, 0
1, 204493, Control_c, 0, 64, 127
1, 204505, Note_on_c, 0, 87, 53
1, 204593, Note_on_c, 0, 87, 0
1, 204649, Note_on_c, 0, 89, 57
1, 204689, Note_on_c, 0, 89, 0
1, 204781, Note_on_c, 0, 90, 58
1, 204789, Note_on_c, 0, 65, 0
1, 204849, Note_on_c, 0, 61, 0
1, 204853, Note_on_c, 0, 58, 0
1, 204857, Note_on_c, 0, 90, 0
1, 204865, Note_on_c, 0, 54, 0
1, 204933, Note_on_c, 0, 92, 56
1, 204985, Note_on_c, 0, 92, 0
1, 205073, Note_on_c, 0, 94, 57
1, 205157, Note_on_c, 0, 94, 0
1, 205225, Note_on_c, 0, 96, 71
1, 205305, Note_on_c, 0, 96, 0
1, 205353, Control_c, 0, 64, 0
1, 205365, Note_on_c, 0, 94, 67
1, 205377, Note_on_c, 0, 54, 32
1, 205429, Control_c, 0, 64, 127
1, 205433, Note_on_c, 0, 54, 0
1, 205465, Note_on_c, 0, 94, 0
1, 205521, Note_on_c, 0, 92, 54
1, 205613, Note_on_c, 0, 92, 0
1, 205653, Control_c, 0, 64, 0
1, 205661, Note_on_c, 0, 90, 66
1, 205701, Note_on_c, 0, 39, 53
1, 205737, Control_c, 0, 64, 127
1, 205761, Note_on_c, 0, 39, 0
1, 206037, Note_on_c, 0, 89, 48
1, 206041, Note_on_c, 0, 90, 0
1, 206117, Note_on_c, 0, 89, 0
1, 206177, Note_on_c, 0, 90, 54
1, 206297, Control_c, 0, 64, 40
1, 206301, Control_c, 0, 64, 0
1, 206305, Note_on_c, 0, 60, 43
1, 206317, Note_on_c, 0, 53, 44
1, 206325, Note_on_c, 0, 90, 0
1, 206325, Note_on_c, 0, 56, 52
1, 206325, Note_on_c, 0, 51, 34
1, 206329, Note_on_c, 0, 89, 43
1, 206385, Control_c, 0, 64, 127
1, 206593, Note_on_c, 0, 89, 0
1, 206749, Note_on_c, 0, 87, 50
1, 206809, Note_on_c, 0, 60, 0
1, 206813, Note_on_c, 0, 51, 0
1, 206813, Note_on_c, 0, 53, 0
1, 206817, Note_on_c, 0, 56, 0
1, 206817, Note_on_c, 0, 87, 0
1, 206877, Note_on_c, 0, 89, 41
1, 206953, Note_on_c, 0, 89, 0
1, 206985, Control_c, 0, 64, 0
1, 207009, Note_on_c, 0, 60, 39
1, 207025, Note_on_c, 0, 56, 41
1, 207025, Note_on_c, 0, 87, 49
1, 207029, Note_on_c, 0, 53, 40
1, 207069, Control_c, 0, 64, 127
1, 207093, Note_on_c, 0, 60, 0
1, 207145, Note_on_c, 0, 56, 0
1, 207173, Note_on_c, 0, 53, 0
1, 207341, Note_on_c, 0, 87, 0
1, 207513, Note_on_c, 0, 87, 50
1, 207629, Control_c, 0, 64, 0
1, 207665, Note_on_c, 0, 87, 0
1, 207677, Note_on_c, 0, 54, 31
1, 207681, Note_on_c, 0, 39, 35
1, 207693, Control_c, 0, 64, 127
1, 207705, Note_on_c, 0, 84, 37
1, 207761, Note_on_c, 0, 39, 0
1, 207873, Note_on_c, 0, 54, 0
1, 208425, Note_on_c, 0, 82, 50
1, 208437, Note_on_c, 0, 65, 28
1, 208441, Note_on_c, 0, 61, 38
1, 208449, Note_on_c, 0, 58, 36
1, 208457, Note_on_c, 0, 84, 0
1, 208465, Note_on_c, 0, 54, 24
1, 208769, Note_on_c, 0, 65, 0
1, 208785, Note_on_c, 0, 58, 0
1, 208793, Note_on_c, 0, 61, 0
1, 208833, Note_on_c, 0, 54, 0
1, 209453, Note_on_c, 0, 82, 0
1, 209553, Note_on_c, 0, 39, 46
1, 209585, Control_c, 0, 64, 0
1, 209661, Control_c, 0, 64, 127
1, 210397, Note_on_c, 0, 56, 41
1, 210401, Note_on_c, 0, 60, 45
1, 210401, Note_on_c, 0, 53, 39
1, 210409, Note_on_c, 0, 51, 33
1, 210409, Note_on_c, 0, 48, 35
1, 210421, Control_c, 0, 64, 0
1, 210485, Control_c, 0, 64, 24
1, 210485, Control_c, 0, 64, 127
1, 211029, Note_on_c, 0, 51, 0
1, 211077, Note_on_c, 0, 48, 0
1, 211129, Note_on_c, 0, 39, 0
1, 211253, Note_on_c, 0, 60, 0
1, 211389, Note_on_c, 0, 53, 0
1, 211421, Note_on_c, 0, 56, 0
1, 212241, Note_on_c, 0, 51, 38
1, 212241, Note_on_c, 0, 61, 45
1, 212253, Note_on_c, 0, 27, 44
1, 212253, Note_on_c, 0, 53, 56
1, 212257, Note_on_c, 0, 54, 42
1, 212265, Note_on_c, 0, 39, 36
1, 212269, Control_c, 0, 64, 0
1, 212677, Control_c, 0, 64, 127
1, 213229, Note_on_c, 0, 51, 0
1, 213269, Note_on_c, 0, 53, 0
1, 213353, Note_on_c, 0, 54, 0
1, 213417, Note_on_c, 0, 61, 0
1, 213417, Note_on_c, 0, 27, 0
1, 213461, Note_on_c, 0, 39, 0
1, 214289, Note_on_c, 0, 63, 48
1, 214389, Note_on_c, 0, 68, 41
1, 214417, Note_on_c, 0, 78, 36
1, 214421, Note_on_c, 0, 73, 45
1, 214513, Note_on_c, 0, 78, 0
1, 214521, Note_on_c, 0, 82, 46
1, 214621, Note_on_c, 0, 82, 0
1, 214657, Note_on_c, 0, 84, 39
1, 216817, Note_on_c, 0, 73, 0
1, 216829, Note_on_c, 0, 68, 0
1, 216877, Note_on_c, 0, 63, 0
1, 216889, Note_on_c, 0, 84, 0
1, 217425, Control_c, 0, 64, 0
1, 217425, End_track
0, 0, End_of_file
