0, 0, Header, 0, 1, 384
1, 0, Start_track
1, 0, Title_t, "untitled"
1, 0, System_exclusive, 5, 126, 127, 9, 1, 247
1, 1, System_exclusive, 8, 67, 16, 76, 0, 0, 126, 0, 247
1, 1, System_exclusive, 8, 67, 16, 76, 8, 15, 0, 1, 247
1, 1, System_exclusive, 8, 67, 16, 76, 8, 14, 0, 1, 247
1, 1, System_exclusive, 8, 67, 16, 76, 8, 13, 0, 1, 247
1, 1, System_exclusive, 8, 67, 16, 76, 8, 12, 0, 1, 247
1, 1, System_exclusive, 8, 67, 16, 76, 8, 11, 0, 1, 247
1, 1, System_exclusive, 8, 67, 16, 76, 8, 10, 0, 1, 247
1, 1, System_exclusive, 8, 67, 16, 76, 8, 9, 0, 0, 247
1, 1, System_exclusive, 8, 67, 16, 76, 8, 8, 0, 1, 247
1, 1, System_exclusive, 8, 67, 16, 76, 8, 7, 0, 1, 247
1, 1, System_exclusive, 8, 67, 16, 76, 8, 6, 0, 1, 247
1, 1, System_exclusive, 8, 67, 16, 76, 8, 5, 0, 1, 247
1, 1, System_exclusive, 8, 67, 16, 76, 8, 4, 0, 2, 247
1, 1, System_exclusive, 8, 67, 16, 76, 8, 3, 0, 2, 247
1, 1, System_exclusive, 8, 67, 16, 76, 8, 2, 0, 4, 247
1, 1, System_exclusive, 8, 67, 16, 76, 8, 1, 0, 4, 247
1, 1, System_exclusive, 8, 67, 16, 76, 8, 0, 0, 8, 247
1, 1, System_exclusive, 8, 67, 16, 76, 8, 0, 7, 0, 247
1, 1, System_exclusive, 8, 67, 16, 76, 8, 1, 7, 0, 247
1, 1, System_exclusive, 8, 67, 16, 76, 8, 2, 7, 0, 247
1, 1, System_exclusive, 8, 67, 16, 76, 8, 3, 7, 0, 247
1, 1, System_exclusive, 8, 67, 16, 76, 8, 4, 7, 0, 247
1, 1, System_exclusive, 8, 67, 16, 76, 8, 5, 7, 0, 247
1, 1, System_exclusive, 8, 67, 16, 76, 8, 6, 7, 0, 247
1, 1, System_exclusive, 8, 67, 16, 76, 8, 7, 7, 0, 247
1, 1, System_exclusive, 8, 67, 16, 76, 8, 8, 7, 0, 247
1, 1, System_exclusive, 8, 67, 16, 76, 8, 9, 7, 2, 247
1, 1, System_exclusive, 8, 67, 16, 76, 8, 10, 7, 0, 247
1, 1, System_exclusive, 8, 67, 16, 76, 8, 11, 7, 0, 247
1, 1, System_exclusive, 8, 67, 16, 76, 8, 12, 7, 0, 247
1, 1, System_exclusive, 8, 67, 16, 76, 8, 13, 7, 0, 247
1, 1, System_exclusive, 8, 67, 16, 76, 8, 14, 7, 0, 247
1, 1, System_exclusive, 8, 67, 16, 76, 8, 15, 7, 0, 247
1, 1, System_exclusive, 9, 67, 16, 76, 2, 1, 0, 1, 0, 247
1, 1, System_exclusive, 9, 67, 16, 76, 2, 1, 32, 65, 0, 247
1, 1, System_exclusive, 9, 67, 16, 76, 2, 1, 64, 5, 0, 247
1, 1, System_exclusive, 8, 67, 16, 76, 8, 0, 114, 64, 247
1, 1, System_exclusive, 8, 67, 16, 76, 8, 0, 115, 95, 247
1, 1, System_exclusive, 8, 67, 16, 76, 8, 0, 119, 46, 247
1, 1, Time_signature, 4, 2, 24, 8
1, 1, Key_signature, 0, "major"
1, 1, Tempo, 500000
1, 1, Sequencer_specific, 21, 67, 115, 10, 0, 5, 75, 79, 79, 79, 79, 79, 79, 79, 79, 79, 79, 79, 79, 79, 79, 79
1, 1, Sequencer_specific, 6, 67, 115, 10, 0, 4, 1
1, 1, Sequencer_specific, 9, 67, 123, 0, 88, 70, 48, 50, 0, 0
1, 385, Program_c, 0, 0
1, 386, Control_c, 0, 7, 107
1, 386, Control_c, 0, 10, 64
1, 386, Control_c, 0, 91, 10
1, 386, Control_c, 0, 93, 0
1, 769, Control_c, 0, 11, 127
1, 769, Control_c, 0, 94, 0
1, 769, Control_c, 0, 101, 0
1, 770, Control_c, 0, 100, 1
1, 771, Control_c, 0, 6, 64
1, 772, Control_c, 0, 38, 0
1, 772, Pitch_bend_c, 0, 8192
1, 772, Control_c, 0, 71, 43
1, 772, Control_c, 0, 74, 46
1, 1537, Note_on_c, 0, 75, 74
1, 1621, Control_c, 0, 64, 127
1, 1953, Note_on_c, 0, 75, 0
1, 2005, Note_on_c, 0, 74, 48
1, 2061, Note_on_c, 0, 69, 57
1, 2101, Note_on_c, 0, 67, 57
1, 2209, Note_on_c, 0, 63, 48
1, 2257, Note_on_c, 0, 62, 31
1, 2345, Control_c, 0, 64, 0
1, 2385, Control_c, 0, 64, 127
1, 2713, Note_on_c, 0, 50, 44
1, 2785, Note_on_c, 0, 62, 0
1, 2817, Note_on_c, 0, 50, 0
1, 3345, Note_on_c, 0, 26, 41
1, 3685, Note_on_c, 0, 26, 0
1, 3685, Note_on_c, 0, 63, 0
1, 3689, Note_on_c, 0, 67, 0
1, 3709, Note_on_c, 0, 69, 0
1, 3773, Note_on_c, 0, 74, 0
1, 4477, Note_on_c, 0, 84, 68
1, 4481, Note_on_c, 0, 77, 60
1, 4489, Note_on_c, 0, 69, 60
1, 4493, Note_on_c, 0, 74, 56
1, 4801, Note_on_c, 0, 69, 0
1, 4809, Note_on_c, 0, 68, 54
1, 4837, Note_on_c, 0, 84, 0
1, 4857, Note_on_c, 0, 74, 0
1, 4893, Note_on_c, 0, 77, 0
1, 5101, Control_c, 0, 64, 0
1, 5109, Note_on_c, 0, 82, 61
1, 5121, Note_on_c, 0, 74, 49
1, 5125, Note_on_c, 0, 68, 0
1, 5129, Note_on_c, 0, 77, 57
1, 5129, Note_on_c, 0, 67, 52
1, 5209, Control_c, 0, 64, 127
1, 5217, Note_on_c, 0, 67, 0
1, 5413, Note_on_c, 0, 77, 0
1, 5413, Note_on_c, 0, 82, 0
1, 5429, Note_on_c, 0, 74, 0
1, 5433, Note_on_c, 0, 43, 54
1, 5717, Note_on_c, 0, 57, 63
1, 5745, Note_on_c, 0, 50, 43
1, 5829, Note_on_c, 0, 43, 0
1, 5905, Note_on_c, 0, 50, 0
1, 5921, Note_on_c, 0, 57, 0
1, 5973, Note_on_c, 0, 58, 66
1, 6049, Note_on_c, 0, 58, 0
1, 6261, Note_on_c, 0, 62, 63
1, 6517, Note_on_c, 0, 62, 0
1, 6557, Note_on_c, 0, 65, 58
1, 6653, Note_on_c, 0, 65, 0
1, 6921, Note_on_c, 0, 64, 49
1, 6929, Note_on_c, 0, 70, 49
1, 6933, Note_on_c, 0, 58, 32
1, 6961, Control_c, 0, 64, 24
1, 6965, Note_on_c, 0, 48, 36
1, 6965, Control_c, 0, 64, 0
1, 7057, Control_c, 0, 64, 127
1, 7269, Note_on_c, 0, 58, 0
1, 7269, Note_on_c, 0, 72, 60
1, 7373, Note_on_c, 0, 72, 0
1, 7417, Note_on_c, 0, 64, 0
1, 7465, Note_on_c, 0, 70, 0
1, 7609, Note_on_c, 0, 74, 63
1, 7625, Control_c, 0, 64, 0
1, 7637, Note_on_c, 0, 67, 42
1, 7645, Note_on_c, 0, 63, 39
1, 7653, Note_on_c, 0, 59, 39
1, 7725, Control_c, 0, 64, 127
1, 7877, Note_on_c, 0, 74, 0
1, 7905, Note_on_c, 0, 59, 0
1, 8005, Note_on_c, 0, 63, 0
1, 8065, Note_on_c, 0, 75, 57
1, 8101, Note_on_c, 0, 60, 36
1, 8109, Note_on_c, 0, 48, 0
1, 8301, Note_on_c, 0, 63, 1
1, 8505, Note_on_c, 0, 67, 0
1, 8549, Note_on_c, 0, 63, 0
1, 8709, Note_on_c, 0, 75, 0
1, 8973, Note_on_c, 0, 60, 0
1, 9093, Note_on_c, 0, 77, 76
1, 9261, Note_on_c, 0, 77, 0
1, 9321, Note_on_c, 0, 77, 79
1, 9489, Note_on_c, 0, 77, 0
1, 9529, Control_c, 0, 64, 0
1, 9549, Note_on_c, 0, 41, 45
1, 9565, Note_on_c, 0, 75, 68
1, 9601, Note_on_c, 0, 41, 0
1, 9601, Control_c, 0, 64, 127
1, 9677, Note_on_c, 0, 75, 0
1, 9957, Note_on_c, 0, 74, 66
1, 9969, Note_on_c, 0, 66, 50
1, 9977, Note_on_c, 0, 63, 44
1, 9989, Note_on_c, 0, 51, 41
1, 9993, Note_on_c, 0, 57, 39
1, 10009, Note_on_c, 0, 69, 27
1, 10257, Note_on_c, 0, 74, 0
1, 10301, Note_on_c, 0, 69, 0
1, 10337, Note_on_c, 0, 72, 63
1, 10369, Note_on_c, 0, 69, 14
1, 10573, Note_on_c, 0, 69, 0
1, 10677, Note_on_c, 0, 63, 0
1, 10677, Note_on_c, 0, 69, 65
1, 10685, Note_on_c, 0, 72, 0
1, 10693, Note_on_c, 0, 51, 0
1, 10717, Note_on_c, 0, 57, 0
1, 10845, Note_on_c, 0, 66, 0
1, 11033, Note_on_c, 0, 69, 0
1, 11081, Note_on_c, 0, 65, 39
1, 11081, Control_c, 0, 64, 0
1, 11085, Note_on_c, 0, 70, 59
1, 11097, Note_on_c, 0, 62, 39
1, 11113, Note_on_c, 0, 60, 40
1, 11205, Control_c, 0, 64, 127
1, 11221, Note_on_c, 0, 65, 0
1, 11257, Note_on_c, 0, 70, 0
1, 11305, Note_on_c, 0, 72, 52
1, 11489, Note_on_c, 0, 72, 0
1, 11505, Control_c, 0, 64, 0
1, 11537, Note_on_c, 0, 53, 41
1, 11541, Note_on_c, 0, 74, 53
1, 11565, Control_c, 0, 64, 127
1, 11597, Note_on_c, 0, 60, 0
1, 11609, Note_on_c, 0, 62, 0
1, 11709, Note_on_c, 0, 74, 0
1, 11741, Note_on_c, 0, 53, 0
1, 11881, Note_on_c, 0, 77, 51
1, 11949, Note_on_c, 0, 77, 0
1, 12037, Note_on_c, 0, 79, 38
1, 12113, Control_c, 0, 64, 0
1, 12125, Note_on_c, 0, 79, 0
1, 12149, Note_on_c, 0, 46, 39
1, 12157, Note_on_c, 0, 39, 40
1, 12169, Note_on_c, 0, 82, 50
1, 12189, Control_c, 0, 64, 127
1, 12245, Note_on_c, 0, 39, 0
1, 12257, Note_on_c, 0, 46, 0
1, 12285, Note_on_c, 0, 82, 0
1, 12425, Note_on_c, 0, 84, 52
1, 12485, Note_on_c, 0, 84, 0
1, 12557, Note_on_c, 0, 86, 47
1, 12597, Note_on_c, 0, 86, 0
1, 12701, Note_on_c, 0, 65, 36
1, 12705, Note_on_c, 0, 89, 51
1, 12709, Note_on_c, 0, 55, 38
1, 12721, Note_on_c, 0, 60, 39
1, 13257, Note_on_c, 0, 89, 0
1, 13281, Note_on_c, 0, 91, 39
1, 13305, Note_on_c, 0, 65, 0
1, 13429, Note_on_c, 0, 91, 0
1, 13453, Note_on_c, 0, 60, 0
1, 13461, Note_on_c, 0, 55, 0
1, 13497, Note_on_c, 0, 94, 52
1, 13637, Note_on_c, 0, 94, 0
1, 13705, Note_on_c, 0, 96, 64
1, 13897, Note_on_c, 0, 96, 0
1, 13941, Control_c, 0, 64, 24
1, 13941, Note_on_c, 0, 44, 50
1, 13945, Control_c, 0, 64, 0
1, 13949, Note_on_c, 0, 95, 54
1, 14013, Control_c, 0, 64, 127
1, 14021, Note_on_c, 0, 44, 0
1, 14305, Note_on_c, 0, 63, 36
1, 14313, Note_on_c, 0, 58, 41
1, 14329, Note_on_c, 0, 59, 48
1, 14329, Note_on_c, 0, 54, 31
1, 14373, Note_on_c, 0, 95, 0
1, 14445, Note_on_c, 0, 59, 0
1, 14453, Note_on_c, 0, 54, 0
1, 14481, Note_on_c, 0, 58, 0
1, 14481, Note_on_c, 0, 63, 0
1, 14661, Note_on_c, 0, 63, 46
1, 14681, Note_on_c, 0, 54, 38
1, 14685, Note_on_c, 0, 58, 41
1, 14697, Note_on_c, 0, 59, 42
1, 14853, Note_on_c, 0, 59, 0
1, 14869, Note_on_c, 0, 54, 0
1, 14881, Note_on_c, 0, 58, 0
1, 14881, Note_on_c, 0, 63, 0
1, 15033, Note_on_c, 0, 63, 52
1, 15057, Note_on_c, 0, 54, 34
1, 15073, Note_on_c, 0, 58, 39
1, 15077, Note_on_c, 0, 59, 39
1, 15249, Note_on_c, 0, 59, 0
1, 15281, Note_on_c, 0, 58, 0
1, 15285, Note_on_c, 0, 63, 0
1, 15297, Note_on_c, 0, 54, 0
1, 15657, Note_on_c, 0, 63, 54
1, 15677, Note_on_c, 0, 54, 38
1, 15693, Note_on_c, 0, 58, 39
1, 15701, Note_on_c, 0, 59, 39
1, 15841, Note_on_c, 0, 59, 0
1, 15877, Note_on_c, 0, 63, 0
1, 15877, Note_on_c, 0, 54, 0
1, 15877, Note_on_c, 0, 58, 0
1, 15969, Note_on_c, 0, 63, 56
1, 15977, Note_on_c, 0, 54, 48
1, 15981, Note_on_c, 0, 73, 75
1, 15981, Note_on_c, 0, 85, 78
1, 15989, Note_on_c, 0, 58, 46
1, 15997, Note_on_c, 0, 59, 49
1, 16125, Note_on_c, 0, 73, 0
1, 16129, Note_on_c, 0, 54, 0
1, 16145, Note_on_c, 0, 59, 0
1, 16149, Note_on_c, 0, 63, 0
1, 16153, Note_on_c, 0, 85, 0
1, 16177, Note_on_c, 0, 58, 0
1, 16217, Note_on_c, 0, 63, 57
1, 16217, Note_on_c, 0, 54, 55
1, 16221, Note_on_c, 0, 87, 87
1, 16225, Note_on_c, 0, 75, 78
1, 16237, Note_on_c, 0, 58, 37
1, 16245, Note_on_c, 0, 59, 51
1, 16353, Note_on_c, 0, 87, 0
1, 16389, Note_on_c, 0, 75, 0
1, 16389, Note_on_c, 0, 54, 0
1, 16409, Note_on_c, 0, 63, 0
1, 16437, Note_on_c, 0, 59, 0
1, 16481, Control_c, 0, 64, 0
1, 16485, Note_on_c, 0, 85, 81
1, 16485, Note_on_c, 0, 63, 50
1, 16493, Note_on_c, 0, 73, 68
1, 16501, Note_on_c, 0, 59, 49
1, 16501, Note_on_c, 0, 53, 57
1, 16637, Control_c, 0, 64, 127
1, 16661, Note_on_c, 0, 53, 0
1, 16689, Note_on_c, 0, 63, 0
1, 16701, Note_on_c, 0, 59, 0
1, 16729, Note_on_c, 0, 58, 0
1, 16797, Note_on_c, 0, 63, 49
1, 16801, Note_on_c, 0, 53, 51
1, 16821, Note_on_c, 0, 59, 45
1, 16833, Note_on_c, 0, 58, 30
1, 16925, Note_on_c, 0, 53, 0
1, 16949, Note_on_c, 0, 85, 0
1, 16953, Note_on_c, 0, 63, 0
1, 16973, Note_on_c, 0, 58, 0
1, 16973, Note_on_c, 0, 59, 0
1, 16981, Note_on_c, 0, 73, 0
1, 17097, Note_on_c, 0, 63, 57
1, 17109, Note_on_c, 0, 83, 66
1, 17117, Note_on_c, 0, 53, 44
1, 17121, Note_on_c, 0, 59, 47
1, 17121, Note_on_c, 0, 71, 54
1, 17137, Note_on_c, 0, 58, 32
1, 17217, Note_on_c, 0, 53, 0
1, 17229, Note_on_c, 0, 63, 0
1, 17253, Note_on_c, 0, 59, 0
1, 17261, Note_on_c, 0, 58, 0
1, 17385, Note_on_c, 0, 80, 1
1, 17401, Note_on_c, 0, 83, 0
1, 17425, Note_on_c, 0, 63, 52
1, 17453, Note_on_c, 0, 63, 0
1, 17457, Note_on_c, 0, 53, 32
1, 17469, Note_on_c, 0, 71, 0
1, 17509, Note_on_c, 0, 53, 0
1, 17585, Note_on_c, 0, 80, 0
1, 17789, Note_on_c, 0, 30, 55
1, 17801, Control_c, 0, 64, 0
1, 17801, Note_on_c, 0, 82, 63
1, 17817, Note_on_c, 0, 75, 54
1, 17817, Note_on_c, 0, 70, 39
1, 17873, Note_on_c, 0, 30, 0
1, 17881, Control_c, 0, 64, 127
1, 17941, Note_on_c, 0, 82, 0
1, 17965, Note_on_c, 0, 75, 0
1, 17997, Note_on_c, 0, 70, 0
1, 18269, Note_on_c, 0, 73, 57
1, 18269, Note_on_c, 0, 63, 58
1, 18289, Note_on_c, 0, 68, 55
1, 18293, Note_on_c, 0, 70, 50
1, 18305, Note_on_c, 0, 58, 47
1, 18393, Note_on_c, 0, 63, 0
1, 18429, Note_on_c, 0, 70, 0
1, 18433, Note_on_c, 0, 68, 0
1, 18445, Note_on_c, 0, 73, 0
1, 18633, Note_on_c, 0, 75, 69
1, 18649, Note_on_c, 0, 66, 63
1, 18661, Note_on_c, 0, 58, 0
1, 18661, Note_on_c, 0, 61, 55
1, 18665, Note_on_c, 0, 70, 54
1, 18697, Note_on_c, 0, 70, 0
1, 18705, Note_on_c, 0, 66, 0
1, 18745, Note_on_c, 0, 75, 0
1, 18945, Note_on_c, 0, 63, 51
1, 18961, Note_on_c, 0, 78, 66
1, 18961, Note_on_c, 0, 70, 63
1, 18965, Note_on_c, 0, 75, 65
1, 18973, Note_on_c, 0, 63, 0
1, 19005, Note_on_c, 0, 70, 0
1, 19005, Note_on_c, 0, 61, 0
1, 19041, Note_on_c, 0, 78, 0
1, 19041, Note_on_c, 0, 75, 0
1, 19301, Control_c, 0, 64, 40
1, 19305, Control_c, 0, 64, 0
1, 19325, Note_on_c, 0, 73, 50
1, 19325, Note_on_c, 0, 35, 56
1, 19325, Note_on_c, 0, 85, 53
1, 19337, Note_on_c, 0, 47, 39
1, 19337, Note_on_c, 0, 78, 57
1, 19353, Note_on_c, 0, 82, 33
1, 19393, Note_on_c, 0, 35, 0
1, 19397, Control_c, 0, 64, 127
1, 19405, Note_on_c, 0, 73, 0
1, 19409, Note_on_c, 0, 85, 0
1, 19429, Note_on_c, 0, 78, 0
1, 19437, Note_on_c, 0, 82, 0
1, 19437, Note_on_c, 0, 47, 0
1, 19665, Note_on_c, 0, 82, 60
1, 19669, Note_on_c, 0, 85, 62
1, 19673, Note_on_c, 0, 87, 58
1, 19677, Note_on_c, 0, 78, 56
1, 19697, Note_on_c, 0, 80, 39
1, 19733, Note_on_c, 0, 80, 0
1, 19757, Note_on_c, 0, 78, 0
1, 19777, Note_on_c, 0, 82, 0
1, 19777, Note_on_c, 0, 85, 0
1, 19777, Note_on_c, 0, 87, 0
1, 20037, Note_on_c, 0, 90, 39
1, 20045, Note_on_c, 0, 87, 52
1, 20049, Note_on_c, 0, 85, 39
1, 20057, Note_on_c, 0, 92, 36
1, 20069, Note_on_c, 0, 94, 39
1, 20077, Note_on_c, 0, 58, 28
1, 20133, Note_on_c, 0, 58, 0
1, 20161, Note_on_c, 0, 85, 0
1, 20173, Note_on_c, 0, 87, 0
1, 20181, Note_on_c, 0, 94, 0
1, 20185, Note_on_c, 0, 92, 0
1, 20193, Note_on_c, 0, 90, 0
1, 20429, Note_on_c, 0, 94, 36
1, 20429, Note_on_c, 0, 97, 55
1, 20433, Note_on_c, 0, 92, 22
1, 20449, Note_on_c, 0, 87, 39
1, 20497, Note_on_c, 0, 87, 0
1, 20537, Note_on_c, 0, 92, 0
1, 20549, Note_on_c, 0, 94, 0
1, 20573, Note_on_c, 0, 97, 0
1, 20873, Note_on_c, 0, 102, 46
1, 20885, Note_on_c, 0, 58, 38
1, 20889, Note_on_c, 0, 92, 39
1, 20905, Note_on_c, 0, 48, 39
1, 20909, Control_c, 0, 64, 0
1, 21021, Control_c, 0, 64, 127
1, 21073, Note_on_c, 0, 102, 0
1, 21085, Note_on_c, 0, 92, 0
1, 21237, Note_on_c, 0, 58, 0
1, 21281, Note_on_c, 0, 48, 0
1, 21285, Note_on_c, 0, 54, 38
1, 21325, Note_on_c, 0, 54, 0
1, 21653, Note_on_c, 0, 80, 66
1, 21681, Note_on_c, 0, 75, 54
1, 21693, Note_on_c, 0, 73, 52
1, 21725, Note_on_c, 0, 70, 40
1, 22101, Note_on_c, 0, 68, 55
1, 22189, Note_on_c, 0, 68, 0
1, 22429, Note_on_c, 0, 80, 0
1, 22461, Note_on_c, 0, 70, 0
1, 22493, Note_on_c, 0, 75, 0
1, 22505, Note_on_c, 0, 73, 0
1, 22677, Note_on_c, 0, 78, 56
1, 22677, Note_on_c, 0, 69, 54
1, 22689, Note_on_c, 0, 75, 56
1, 22709, Note_on_c, 0, 66, 33
1, 22737, Control_c, 0, 64, 0
1, 22805, Control_c, 0, 64, 127
1, 22993, Note_on_c, 0, 66, 0
1, 23045, Note_on_c, 0, 63, 52
1, 23077, Note_on_c, 0, 63, 0
1, 23165, Note_on_c, 0, 75, 0
1, 23165, Note_on_c, 0, 78, 0
1, 23169, Note_on_c, 0, 69, 0
1, 23433, Note_on_c, 0, 63, 35
1, 23441, Note_on_c, 0, 66, 49
1, 23449, Note_on_c, 0, 57, 37
1, 23457, Note_on_c, 0, 51, 36
1, 23581, Note_on_c, 0, 57, 0
1, 23585, Note_on_c, 0, 51, 0
1, 23893, Note_on_c, 0, 41, 51
1, 23929, Note_on_c, 0, 41, 0
1, 24225, Note_on_c, 0, 63, 0
1, 24233, Note_on_c, 0, 66, 0
1, 24541, Control_c, 0, 64, 0
1, 24565, Note_on_c, 0, 46, 45
1, 24569, Note_on_c, 0, 55, 48
1, 24577, Note_on_c, 0, 64, 48
1, 24585, Note_on_c, 0, 60, 48
1, 24657, Control_c, 0, 64, 127
1, 24773, Note_on_c, 0, 55, 0
1, 24837, Note_on_c, 0, 64, 0
1, 24853, Note_on_c, 0, 60, 0
1, 24921, Control_c, 0, 64, 0
1, 24929, Note_on_c, 0, 65, 58
1, 24933, Note_on_c, 0, 60, 54
1, 24933, Note_on_c, 0, 53, 48
1, 24933, Note_on_c, 0, 57, 36
1, 25017, Control_c, 0, 64, 127
1, 25041, Note_on_c, 0, 57, 0
1, 25069, Note_on_c, 0, 65, 0
1, 25077, Note_on_c, 0, 60, 0
1, 25133, Note_on_c, 0, 53, 0
1, 25209, Control_c, 0, 64, 0
1, 25237, Note_on_c, 0, 69, 66
1, 25241, Note_on_c, 0, 62, 60
1, 25265, Note_on_c, 0, 57, 50
1, 25269, Note_on_c, 0, 46, 0
1, 25269, Note_on_c, 0, 65, 40
1, 25273, Note_on_c, 0, 60, 38
1, 25281, Control_c, 0, 64, 127
1, 25309, Note_on_c, 0, 60, 0
1, 25309, Note_on_c, 0, 65, 0
1, 25329, Note_on_c, 0, 62, 0
1, 25337, Note_on_c, 0, 69, 0
1, 25465, Note_on_c, 0, 57, 0
1, 25573, Note_on_c, 0, 72, 78
1, 25581, Note_on_c, 0, 65, 69
1, 25581, Note_on_c, 0, 62, 73
1, 25585, Note_on_c, 0, 69, 68
1, 25589, Note_on_c, 0, 60, 68
1, 25601, Control_c, 0, 64, 0
1, 25689, Control_c, 0, 64, 127
1, 25785, Note_on_c, 0, 69, 0
1, 25833, Note_on_c, 0, 62, 0
1, 25889, Note_on_c, 0, 65, 0
1, 25913, Note_on_c, 0, 72, 0
1, 25913, Control_c, 0, 64, 0
1, 25937, Note_on_c, 0, 65, 68
1, 25937, Note_on_c, 0, 69, 81
1, 25937, Note_on_c, 0, 57, 74
1, 25937, Note_on_c, 0, 62, 72
1, 25953, Note_on_c, 0, 60, 0
1, 26025, Control_c, 0, 64, 127
1, 26137, Note_on_c, 0, 62, 0
1, 26153, Note_on_c, 0, 69, 0
1, 26209, Note_on_c, 0, 57, 0
1, 26225, Note_on_c, 0, 58, 82
1, 26225, Note_on_c, 0, 70, 84
1, 26265, Note_on_c, 0, 68, 31
1, 26313, Note_on_c, 0, 68, 0
1, 26361, Note_on_c, 0, 65, 0
1, 26421, Note_on_c, 0, 70, 0
1, 26485, Note_on_c, 0, 72, 80
1, 26489, Note_on_c, 0, 65, 78
1, 26501, Note_on_c, 0, 60, 72
1, 26505, Note_on_c, 0, 62, 69
1, 26533, Note_on_c, 0, 58, 0
1, 26569, Note_on_c, 0, 60, 0
1, 26581, Note_on_c, 0, 62, 0
1, 26597, Note_on_c, 0, 65, 0
1, 26609, Note_on_c, 0, 72, 0
1, 26737, Note_on_c, 0, 74, 80
1, 26741, Note_on_c, 0, 46, 55
1, 26841, Note_on_c, 0, 74, 0
1, 26945, Note_on_c, 0, 46, 0
1, 27021, Control_c, 0, 64, 0
1, 27033, Note_on_c, 0, 75, 80
1, 27045, Note_on_c, 0, 67, 69
1, 27045, Note_on_c, 0, 45, 56
1, 27045, Note_on_c, 0, 63, 61
1, 27221, Control_c, 0, 64, 127
1, 27277, Note_on_c, 0, 75, 0
1, 27301, Note_on_c, 0, 63, 0
1, 27333, Note_on_c, 0, 74, 83
1, 27345, Note_on_c, 0, 55, 45
1, 27361, Note_on_c, 0, 45, 0
1, 27405, Note_on_c, 0, 55, 0
1, 27457, Note_on_c, 0, 67, 0
1, 27645, Note_on_c, 0, 63, 57
1, 27645, Note_on_c, 0, 67, 64
1, 27657, Note_on_c, 0, 62, 55
1, 27805, Note_on_c, 0, 74, 0
1, 27889, Note_on_c, 0, 62, 0
1, 27925, Note_on_c, 0, 63, 0
1, 27981, Note_on_c, 0, 69, 62
1, 27981, Note_on_c, 0, 63, 29
1, 28001, Note_on_c, 0, 60, 49
1, 28177, Note_on_c, 0, 67, 0
1, 28305, Note_on_c, 0, 63, 0
1, 28381, Note_on_c, 0, 69, 0
1, 28389, Note_on_c, 0, 63, 36
1, 28397, Note_on_c, 0, 66, 54
1, 28409, Note_on_c, 0, 50, 41
1, 28437, Control_c, 0, 64, 0
1, 28613, Control_c, 0, 64, 127
1, 28721, Note_on_c, 0, 63, 0
1, 28745, Note_on_c, 0, 54, 54
1, 28757, Note_on_c, 0, 60, 0
1, 28801, Note_on_c, 0, 66, 0
1, 29109, Note_on_c, 0, 84, 75
1, 29125, Note_on_c, 0, 57, 37
1, 29125, Note_on_c, 0, 81, 61
1, 29405, Note_on_c, 0, 81, 0
1, 29461, Note_on_c, 0, 84, 0
1, 29485, Note_on_c, 0, 83, 57
1, 29485, Note_on_c, 0, 80, 63
1, 29521, Note_on_c, 0, 57, 0
1, 29553, Note_on_c, 0, 54, 0
1, 29573, Note_on_c, 0, 50, 0
1, 29761, Note_on_c, 0, 80, 0
1, 29773, Note_on_c, 0, 83, 0
1, 29817, Note_on_c, 0, 79, 48
1, 29825, Control_c, 0, 64, 0
1, 29837, Note_on_c, 0, 82, 60
1, 29849, Note_on_c, 0, 43, 49
1, 29961, Control_c, 0, 64, 127
1, 30097, Note_on_c, 0, 50, 53
1, 30269, Note_on_c, 0, 79, 0
1, 30301, Note_on_c, 0, 43, 0
1, 30313, Note_on_c, 0, 50, 0
1, 30353, Note_on_c, 0, 55, 46
1, 30353, Note_on_c, 0, 81, 66
1, 30357, Note_on_c, 0, 78, 49
1, 30381, Note_on_c, 0, 82, 0
1, 30385, Note_on_c, 0, 55, 0
1, 30529, Note_on_c, 0, 78, 0
1, 30549, Note_on_c, 0, 81, 0
1, 30597, Note_on_c, 0, 58, 57
1, 30597, Note_on_c, 0, 77, 55
1, 30597, Note_on_c, 0, 80, 60
1, 30669, Note_on_c, 0, 58, 0
1, 30673, Note_on_c, 0, 77, 0
1, 30757, Note_on_c, 0, 80, 0
1, 30861, Control_c, 0, 64, 0
1, 30881, Note_on_c, 0, 79, 63
1, 30881, Note_on_c, 0, 76, 50
1, 30897, Note_on_c, 0, 58, 51
1, 30897, Note_on_c, 0, 48, 48
1, 30997, Control_c, 0, 64, 127
1, 31029, Note_on_c, 0, 76, 0
1, 31125, Note_on_c, 0, 58, 0
1, 31141, Note_on_c, 0, 79, 0
1, 31173, Note_on_c, 0, 78, 63
1, 31181, Note_on_c, 0, 75, 50
1, 31185, Note_on_c, 0, 55, 40
1, 31209, Note_on_c, 0, 75, 0
1, 31397, Note_on_c, 0, 78, 0
1, 31485, Note_on_c, 0, 58, 51
1, 31485, Note_on_c, 0, 74, 42
1, 31489, Note_on_c, 0, 77, 61
1, 31541, Note_on_c, 0, 48, 0
1, 31585, Note_on_c, 0, 74, 0
1, 31585, Note_on_c, 0, 77, 0
1, 31601, Note_on_c, 0, 58, 0
1, 31725, Note_on_c, 0, 55, 0
1, 31777, Note_on_c, 0, 48, 41
1, 31785, Note_on_c, 0, 73, 45
1, 31793, Note_on_c, 0, 76, 57
1, 31809, Note_on_c, 0, 48, 0
1, 31889, Note_on_c, 0, 73, 0
1, 32045, Note_on_c, 0, 76, 0
1, 32153, Note_on_c, 0, 75, 53
1, 32153, Control_c, 0, 64, 0
1, 32165, Note_on_c, 0, 72, 45
1, 32177, Note_on_c, 0, 62, 42
1, 32225, Control_c, 0, 64, 127
1, 32277, Note_on_c, 0, 72, 0
1, 32449, Note_on_c, 0, 75, 0
1, 32501, Note_on_c, 0, 62, 0
1, 32513, Control_c, 0, 64, 0
1, 32521, Note_on_c, 0, 74, 49
1, 32525, Note_on_c, 0, 71, 55
1, 32537, Note_on_c, 0, 68, 34
1, 32541, Note_on_c, 0, 59, 42
1, 32605, Control_c, 0, 64, 127
1, 32673, Note_on_c, 0, 71, 0
1, 32737, Note_on_c, 0, 68, 0
1, 32797, Note_on_c, 0, 74, 0
1, 32889, Note_on_c, 0, 59, 0
1, 32909, Note_on_c, 0, 75, 48
1, 32913, Note_on_c, 0, 68, 45
1, 32913, Note_on_c, 0, 72, 52
1, 32921, Control_c, 0, 64, 0
1, 32925, Note_on_c, 0, 60, 42
1, 32993, Control_c, 0, 64, 127
1, 33113, Note_on_c, 0, 68, 0
1, 33121, Note_on_c, 0, 60, 0
1, 33121, Note_on_c, 0, 72, 0
1, 33181, Note_on_c, 0, 75, 0
1, 33249, Note_on_c, 0, 77, 64
1, 33257, Note_on_c, 0, 60, 51
1, 33261, Note_on_c, 0, 74, 61
1, 33325, Note_on_c, 0, 74, 0
1, 33349, Note_on_c, 0, 77, 0
1, 33641, Note_on_c, 0, 60, 0
1, 33645, Note_on_c, 0, 79, 60
1, 33649, Control_c, 0, 64, 0
1, 33653, Note_on_c, 0, 74, 57
1, 33657, Note_on_c, 0, 63, 39
1, 33661, Note_on_c, 0, 53, 46
1, 33665, Note_on_c, 0, 67, 48
1, 33845, Control_c, 0, 64, 127
1, 33877, Note_on_c, 0, 79, 0
1, 33893, Note_on_c, 0, 67, 0
1, 33969, Note_on_c, 0, 74, 0
1, 33989, Note_on_c, 0, 63, 0
1, 34021, Note_on_c, 0, 80, 70
1, 34025, Note_on_c, 0, 60, 49
1, 34041, Note_on_c, 0, 68, 51
1, 34041, Note_on_c, 0, 74, 56
1, 34177, Note_on_c, 0, 78, 22
1, 34193, Note_on_c, 0, 74, 0
1, 34221, Note_on_c, 0, 68, 0
1, 34237, Note_on_c, 0, 80, 0
1, 34305, Note_on_c, 0, 78, 0
1, 34321, Control_c, 0, 64, 0
1, 34353, Note_on_c, 0, 81, 66
1, 34361, Note_on_c, 0, 74, 70
1, 34361, Note_on_c, 0, 69, 68
1, 34369, Note_on_c, 0, 63, 51
1, 34377, Note_on_c, 0, 77, 57
1, 34377, Control_c, 0, 64, 127
1, 34385, Note_on_c, 0, 78, 33
1, 34405, Note_on_c, 0, 53, 0
1, 34409, Note_on_c, 0, 63, 0
1, 34445, Note_on_c, 0, 78, 0
1, 34453, Note_on_c, 0, 81, 0
1, 34465, Note_on_c, 0, 69, 0
1, 34509, Note_on_c, 0, 77, 0
1, 34569, Note_on_c, 0, 74, 0
1, 34625, Note_on_c, 0, 53, 46
1, 34629, Note_on_c, 0, 82, 77
1, 34637, Note_on_c, 0, 60, 0
1, 34645, Note_on_c, 0, 70, 60
1, 34657, Note_on_c, 0, 53, 0
1, 34657, Note_on_c, 0, 74, 40
1, 34673, Note_on_c, 0, 80, 39
1, 34689, Note_on_c, 0, 74, 0
1, 34741, Note_on_c, 0, 80, 0
1, 34745, Note_on_c, 0, 70, 0
1, 34789, Note_on_c, 0, 82, 0
1, 34909, Control_c, 0, 64, 0
1, 34949, Note_on_c, 0, 83, 62
1, 34953, Note_on_c, 0, 71, 56
1, 34953, Note_on_c, 0, 46, 56
1, 34953, Note_on_c, 0, 76, 62
1, 35009, Control_c, 0, 64, 127
1, 35085, Note_on_c, 0, 71, 0
1, 35101, Note_on_c, 0, 76, 0
1, 35129, Note_on_c, 0, 83, 0
1, 35217, Note_on_c, 0, 84, 82
1, 35225, Note_on_c, 0, 53, 40
1, 35229, Note_on_c, 0, 72, 66
1, 35249, Note_on_c, 0, 46, 0
1, 35261, Note_on_c, 0, 53, 0
1, 35341, Note_on_c, 0, 72, 0
1, 35373, Note_on_c, 0, 84, 0
1, 35513, Note_on_c, 0, 86, 80
1, 35521, Note_on_c, 0, 79, 69
1, 35525, Note_on_c, 0, 60, 64
1, 35529, Note_on_c, 0, 74, 66
1, 35545, Note_on_c, 0, 82, 39
1, 35585, Note_on_c, 0, 82, 0
1, 35629, Note_on_c, 0, 74, 0
1, 35641, Note_on_c, 0, 86, 0
1, 35761, Note_on_c, 0, 79, 0
1, 35797, Note_on_c, 0, 62, 57
1, 35817, Note_on_c, 0, 87, 71
1, 35825, Note_on_c, 0, 62, 0
1, 35841, Note_on_c, 0, 75, 39
1, 35853, Note_on_c, 0, 60, 0
1, 35957, Note_on_c, 0, 75, 0
1, 35981, Note_on_c, 0, 87, 0
1, 36153, Control_c, 0, 64, 0
1, 36161, Note_on_c, 0, 88, 52
1, 36173, Note_on_c, 0, 76, 44
1, 36189, Note_on_c, 0, 39, 42
1, 36241, Note_on_c, 0, 83, 14
1, 36249, Control_c, 0, 64, 127
1, 36317, Note_on_c, 0, 76, 0
1, 36317, Note_on_c, 0, 88, 0
1, 36329, Note_on_c, 0, 83, 0
1, 36501, Note_on_c, 0, 39, 0
1, 36505, Note_on_c, 0, 89, 52
1, 36505, Note_on_c, 0, 46, 45
1, 36537, Note_on_c, 0, 77, 35
1, 36541, Note_on_c, 0, 84, 33
1, 36589, Note_on_c, 0, 84, 0
1, 36605, Note_on_c, 0, 77, 0
1, 36641, Note_on_c, 0, 89, 0
1, 36837, Note_on_c, 0, 46, 0
1, 36849, Note_on_c, 0, 91, 57
1, 36877, Note_on_c, 0, 79, 37
1, 36881, Note_on_c, 0, 55, 42
1, 36993, Note_on_c, 0, 91, 0
1, 37049, Note_on_c, 0, 79, 0
1, 37249, Note_on_c, 0, 58, 39
1, 37265, Note_on_c, 0, 55, 0
1, 37601, Note_on_c, 0, 92, 59
1, 37621, Note_on_c, 0, 80, 46
1, 37737, Note_on_c, 0, 80, 0
1, 37757, Note_on_c, 0, 92, 0
1, 37933, Note_on_c, 0, 94, 62
1, 37949, Note_on_c, 0, 82, 42
1, 38133, Note_on_c, 0, 82, 0
1, 38141, Note_on_c, 0, 94, 0
1, 38221, Note_on_c, 0, 58, 0
1, 38233, Note_on_c, 0, 59, 49
1, 38241, Note_on_c, 0, 95, 65
1, 38241, Note_on_c, 0, 63, 37
1, 38269, Note_on_c, 0, 83, 31
1, 38297, Control_c, 0, 64, 0
1, 38341, Control_c, 0, 64, 127
1, 38645, Note_on_c, 0, 58, 48
1, 39013, Note_on_c, 0, 95, 0
1, 39061, Note_on_c, 0, 94, 57
1, 39069, Note_on_c, 0, 56, 40
1, 39449, Note_on_c, 0, 54, 42
1, 39533, Note_on_c, 0, 83, 0
1, 39581, Note_on_c, 0, 59, 0
1, 39585, Note_on_c, 0, 58, 0
1, 39613, Note_on_c, 0, 63, 0
1, 39629, Note_on_c, 0, 56, 0
1, 39681, Note_on_c, 0, 54, 0
1, 39813, Control_c, 0, 64, 0
1, 39825, Note_on_c, 0, 94, 0
1, 39833, Note_on_c, 0, 63, 43
1, 39833, Note_on_c, 0, 59, 30
1, 39837, Note_on_c, 0, 92, 50
1, 39849, Note_on_c, 0, 53, 41
1, 39885, Control_c, 0, 64, 127
1, 39957, Note_on_c, 0, 63, 0
1, 39961, Note_on_c, 0, 59, 0
1, 39985, Note_on_c, 0, 53, 0
1, 40321, Note_on_c, 0, 25, 65
1, 40733, Note_on_c, 0, 25, 0
1, 40817, Note_on_c, 0, 25, 70
1, 41125, Note_on_c, 0, 25, 0
1, 41261, Note_on_c, 0, 25, 66
1, 41337, Note_on_c, 0, 25, 0
1, 41569, Note_on_c, 0, 92, 0
1, 42437, Note_on_c, 0, 96, 81
1, 42453, Note_on_c, 0, 42, 63
1, 42505, Control_c, 0, 64, 0
1, 42661, Control_c, 0, 64, 127
1, 42741, Note_on_c, 0, 96, 0
1, 42809, Note_on_c, 0, 95, 77
1, 42829, Note_on_c, 0, 49, 57
1, 43069, Note_on_c, 0, 95, 0
1, 43201, Note_on_c, 0, 94, 82
1, 43209, Note_on_c, 0, 54, 51
1, 43213, Note_on_c, 0, 42, 0
1, 43225, Note_on_c, 0, 49, 0
1, 43317, Note_on_c, 0, 54, 0
1, 43521, Note_on_c, 0, 94, 0
1, 43605, Note_on_c, 0, 92, 70
1, 44013, Control_c, 0, 64, 0
1, 44025, Note_on_c, 0, 92, 0
1, 44029, Note_on_c, 0, 90, 59
1, 44033, Note_on_c, 0, 47, 52
1, 44113, Control_c, 0, 64, 127
1, 44241, Note_on_c, 0, 90, 0
1, 44397, Note_on_c, 0, 54, 40
1, 44741, Note_on_c, 0, 63, 46
1, 44753, Note_on_c, 0, 59, 41
1, 44769, Note_on_c, 0, 58, 36
1, 44805, Note_on_c, 0, 54, 0
1, 44869, Note_on_c, 0, 59, 0
1, 44969, Note_on_c, 0, 63, 0
1, 45121, Note_on_c, 0, 54, 43
1, 45245, Note_on_c, 0, 47, 0
1, 45385, Note_on_c, 0, 58, 0
1, 45517, Note_on_c, 0, 96, 71
1, 45529, Control_c, 0, 64, 0
1, 45537, Note_on_c, 0, 48, 51
1, 45553, Note_on_c, 0, 54, 0
1, 45677, Control_c, 0, 64, 127
1, 45837, Note_on_c, 0, 96, 0
1, 45933, Note_on_c, 0, 54, 41
1, 45937, Note_on_c, 0, 94, 57
1, 46293, Note_on_c, 0, 94, 0
1, 46341, Note_on_c, 0, 92, 67
1, 46349, Note_on_c, 0, 58, 46
1, 46445, Note_on_c, 0, 48, 0
1, 46513, Note_on_c, 0, 58, 0
1, 46701, Note_on_c, 0, 90, 63
1, 46721, Note_on_c, 0, 54, 0
1, 47053, Note_on_c, 0, 90, 0
1, 47109, Note_on_c, 0, 92, 0
1, 47125, Control_c, 0, 64, 0
1, 47129, Note_on_c, 0, 29, 48
1, 47133, Note_on_c, 0, 89, 48
1, 47181, Note_on_c, 0, 29, 0
1, 47193, Control_c, 0, 64, 127
1, 47589, Note_on_c, 0, 51, 49
1, 47973, Note_on_c, 0, 89, 0
1, 48021, Note_on_c, 0, 87, 56
1, 48049, Note_on_c, 0, 57, 18
1, 48501, Note_on_c, 0, 62, 27
1, 48565, Note_on_c, 0, 57, 0
1, 48593, Note_on_c, 0, 51, 0
1, 48673, Note_on_c, 0, 62, 0
1, 48785, Note_on_c, 0, 85, 48
1, 48793, Note_on_c, 0, 87, 0
1, 49005, Note_on_c, 0, 85, 0
1, 49337, Note_on_c, 0, 87, 58
1, 49417, Note_on_c, 0, 88, 54
1, 49429, Note_on_c, 0, 65, 24
1, 49433, Note_on_c, 0, 87, 0
1, 49445, Note_on_c, 0, 60, 35
1, 49445, Control_c, 0, 64, 0
1, 49449, Note_on_c, 0, 62, 39
1, 49657, Note_on_c, 0, 65, 0
1, 49689, Note_on_c, 0, 88, 0
1, 49709, Control_c, 0, 64, 127
1, 49745, Note_on_c, 0, 91, 49
1, 49929, Note_on_c, 0, 91, 0
1, 49961, Control_c, 0, 64, 0
1, 49985, Note_on_c, 0, 89, 50
1, 49993, Note_on_c, 0, 53, 34
1, 50037, Control_c, 0, 64, 127
1, 50121, Note_on_c, 0, 62, 0
1, 50133, Note_on_c, 0, 60, 0
1, 50241, Note_on_c, 0, 60, 50
1, 50269, Note_on_c, 0, 89, 0
1, 50521, Note_on_c, 0, 62, 34
1, 50529, Note_on_c, 0, 79, 46
1, 50793, Note_on_c, 0, 79, 0
1, 50813, Note_on_c, 0, 65, 41
1, 50821, Note_on_c, 0, 84, 58
1, 51017, Note_on_c, 0, 65, 0
1, 51029, Note_on_c, 0, 86, 73
1, 51057, Note_on_c, 0, 84, 0
1, 51085, Note_on_c, 0, 53, 0
1, 51113, Note_on_c, 0, 86, 0
1, 51125, Note_on_c, 0, 60, 0
1, 51133, Note_on_c, 0, 62, 0
1, 51165, Note_on_c, 0, 87, 67
1, 51237, Note_on_c, 0, 87, 0
1, 51289, Note_on_c, 0, 88, 75
1, 51413, Note_on_c, 0, 88, 0
1, 51421, Note_on_c, 0, 89, 64
1, 51525, Note_on_c, 0, 90, 63
1, 51541, Note_on_c, 0, 89, 0
1, 51605, Note_on_c, 0, 90, 0
1, 51661, Note_on_c, 0, 91, 46
1, 51669, Note_on_c, 0, 93, 49
1, 51729, Note_on_c, 0, 93, 0
1, 51745, Note_on_c, 0, 91, 0
1, 51777, Note_on_c, 0, 92, 72
1, 51845, Note_on_c, 0, 92, 0
1, 51893, Note_on_c, 0, 93, 69
1, 51909, Control_c, 0, 64, 0
1, 51909, Note_on_c, 0, 66, 45
1, 51925, Note_on_c, 0, 62, 49
1, 51933, Note_on_c, 0, 55, 39
1, 51941, Note_on_c, 0, 59, 52
1, 52061, Control_c, 0, 64, 127
1, 52237, Note_on_c, 0, 93, 0
1, 52313, Note_on_c, 0, 81, 51
1, 52505, Note_on_c, 0, 81, 0
1, 52569, Note_on_c, 0, 86, 57
1, 52625, Note_on_c, 0, 62, 0
1, 52693, Note_on_c, 0, 59, 0
1, 52701, Note_on_c, 0, 55, 0
1, 52705, Note_on_c, 0, 86, 0
1, 52713, Note_on_c, 0, 93, 75
1, 52721, Note_on_c, 0, 66, 0
1, 52789, Note_on_c, 0, 93, 0
1, 52865, Note_on_c, 0, 96, 99
1, 52957, Note_on_c, 0, 96, 0
1, 53025, Note_on_c, 0, 94, 74
1, 53125, Note_on_c, 0, 94, 0
1, 53141, Note_on_c, 0, 90, 27
1, 53153, Note_on_c, 0, 89, 68
1, 53185, Note_on_c, 0, 90, 0
1, 53241, Note_on_c, 0, 89, 0
1, 53257, Note_on_c, 0, 85, 68
1, 53257, Control_c, 0, 64, 0
1, 53321, Note_on_c, 0, 66, 42
1, 53341, Note_on_c, 0, 61, 39
1, 53353, Note_on_c, 0, 85, 0
1, 53361, Note_on_c, 0, 55, 36
1, 53381, Note_on_c, 0, 84, 54
1, 53441, Note_on_c, 0, 84, 0
1, 53533, Note_on_c, 0, 82, 28
1, 53565, Note_on_c, 0, 82, 0
1, 53653, Note_on_c, 0, 81, 51
1, 53733, Note_on_c, 0, 81, 0
1, 53785, Control_c, 0, 64, 127
1, 54061, Note_on_c, 0, 79, 60
1, 54173, Note_on_c, 0, 79, 0
1, 54185, Note_on_c, 0, 80, 63
1, 54189, Note_on_c, 0, 66, 0
1, 54237, Note_on_c, 0, 55, 0
1, 54273, Note_on_c, 0, 80, 0
1, 54277, Note_on_c, 0, 81, 46
1, 54353, Note_on_c, 0, 81, 0
1, 54353, Note_on_c, 0, 82, 63
1, 54421, Note_on_c, 0, 82, 0
1, 54457, Note_on_c, 0, 83, 35
1, 54493, Note_on_c, 0, 83, 0
1, 54509, Note_on_c, 0, 61, 0
1, 54513, Note_on_c, 0, 84, 81
1, 54581, Control_c, 0, 64, 72
1, 54581, Control_c, 0, 64, 0
1, 54605, Note_on_c, 0, 84, 0
1, 54637, Note_on_c, 0, 54, 37
1, 54641, Note_on_c, 0, 64, 33
1, 54645, Note_on_c, 0, 61, 38
1, 54657, Note_on_c, 0, 59, 45
1, 54665, Note_on_c, 0, 82, 63
1, 54729, Note_on_c, 0, 82, 0
1, 54913, Note_on_c, 0, 78, 54
1, 55065, Note_on_c, 0, 78, 0
1, 55085, Note_on_c, 0, 81, 63
1, 55093, Control_c, 0, 64, 127
1, 55201, Note_on_c, 0, 81, 0
1, 55249, Note_on_c, 0, 76, 48
1, 55353, Note_on_c, 0, 76, 0
1, 55405, Note_on_c, 0, 78, 65
1, 55413, Note_on_c, 0, 64, 0
1, 55453, Note_on_c, 0, 59, 0
1, 55485, Note_on_c, 0, 61, 0
1, 55553, Note_on_c, 0, 73, 58
1, 55573, Note_on_c, 0, 78, 0
1, 55697, Note_on_c, 0, 73, 0
1, 55721, Note_on_c, 0, 69, 58
1, 55945, Note_on_c, 0, 69, 0
1, 56029, Note_on_c, 0, 69, 56
1, 56049, Note_on_c, 0, 61, 37
1, 56053, Note_on_c, 0, 64, 31
1, 56057, Note_on_c, 0, 59, 41
1, 56221, Note_on_c, 0, 59, 0
1, 56233, Note_on_c, 0, 64, 0
1, 56245, Note_on_c, 0, 54, 0
1, 56253, Note_on_c, 0, 61, 0
1, 56365, Note_on_c, 0, 61, 41
1, 56365, Note_on_c, 0, 54, 45
1, 56365, Note_on_c, 0, 64, 44
1, 56385, Note_on_c, 0, 59, 46
1, 56521, Note_on_c, 0, 59, 0
1, 56533, Note_on_c, 0, 64, 0
1, 56545, Note_on_c, 0, 54, 0
1, 56553, Note_on_c, 0, 61, 0
1, 56689, Note_on_c, 0, 61, 43
1, 56689, Note_on_c, 0, 54, 46
1, 56693, Note_on_c, 0, 64, 44
1, 56701, Note_on_c, 0, 59, 51
1, 56777, Note_on_c, 0, 64, 0
1, 56797, Note_on_c, 0, 59, 0
1, 56801, Note_on_c, 0, 69, 0
1, 56821, Note_on_c, 0, 61, 0
1, 56825, Note_on_c, 0, 54, 0
1, 57021, Note_on_c, 0, 54, 51
1, 57029, Note_on_c, 0, 61, 49
1, 57065, Note_on_c, 0, 61, 0
1, 57117, Note_on_c, 0, 54, 0
1, 57433, Control_c, 0, 64, 0
1, 57453, Note_on_c, 0, 45, 68
1, 57453, Note_on_c, 0, 33, 66
1, 57497, Control_c, 0, 64, 127
1, 57525, Note_on_c, 0, 33, 0
1, 57561, Note_on_c, 0, 45, 0
1, 57877, Note_on_c, 0, 81, 83
1, 57881, Note_on_c, 0, 66, 82
1, 57881, Note_on_c, 0, 55, 68
1, 57885, Note_on_c, 0, 74, 79
1, 57885, Note_on_c, 0, 69, 74
1, 57885, Note_on_c, 0, 78, 69
1, 57885, Note_on_c, 0, 62, 61
1, 57897, Note_on_c, 0, 59, 62
1, 58065, Note_on_c, 0, 69, 0
1, 58065, Note_on_c, 0, 55, 0
1, 58077, Note_on_c, 0, 81, 0
1, 58081, Note_on_c, 0, 59, 0
1, 58081, Note_on_c, 0, 62, 0
1, 58085, Note_on_c, 0, 66, 0
1, 58093, Note_on_c, 0, 74, 0
1, 58097, Note_on_c, 0, 78, 0
1, 58221, Note_on_c, 0, 81, 77
1, 58225, Note_on_c, 0, 74, 81
1, 58229, Note_on_c, 0, 78, 68
1, 58229, Note_on_c, 0, 69, 76
1, 58229, Note_on_c, 0, 66, 79
1, 58229, Note_on_c, 0, 55, 69
1, 58229, Note_on_c, 0, 62, 62
1, 58253, Note_on_c, 0, 59, 58
1, 58369, Note_on_c, 0, 55, 0
1, 58373, Note_on_c, 0, 66, 0
1, 58381, Note_on_c, 0, 59, 0
1, 58393, Note_on_c, 0, 62, 0
1, 58405, Note_on_c, 0, 69, 0
1, 58425, Note_on_c, 0, 74, 0
1, 58437, Note_on_c, 0, 81, 0
1, 58441, Note_on_c, 0, 78, 0
1, 58561, Note_on_c, 0, 66, 60
1, 58569, Note_on_c, 0, 81, 63
1, 58569, Note_on_c, 0, 78, 62
1, 58569, Note_on_c, 0, 74, 72
1, 58569, Note_on_c, 0, 69, 61
1, 58569, Note_on_c, 0, 62, 39
1, 58589, Note_on_c, 0, 66, 0
1, 58613, Note_on_c, 0, 62, 0
1, 58817, Note_on_c, 0, 69, 0
1, 58865, Note_on_c, 0, 74, 0
1, 58881, Note_on_c, 0, 81, 0
1, 58929, Note_on_c, 0, 78, 0
1, 58949, Control_c, 0, 64, 0
1, 58981, Note_on_c, 0, 33, 92
1, 58981, Note_on_c, 0, 45, 92
1, 59037, Control_c, 0, 64, 72
1, 59041, Control_c, 0, 64, 127
1, 59073, Note_on_c, 0, 33, 0
1, 59121, Note_on_c, 0, 45, 0
1, 59469, Note_on_c, 0, 61, 69
1, 59473, Note_on_c, 0, 66, 86
1, 59473, Note_on_c, 0, 84, 92
1, 59473, Note_on_c, 0, 55, 74
1, 59473, Note_on_c, 0, 77, 92
1, 59473, Note_on_c, 0, 72, 84
1, 59473, Note_on_c, 0, 81, 82
1, 59721, Note_on_c, 0, 72, 0
1, 59721, Note_on_c, 0, 55, 0
1, 59733, Note_on_c, 0, 66, 0
1, 59745, Note_on_c, 0, 77, 0
1, 59757, Note_on_c, 0, 84, 0
1, 59761, Note_on_c, 0, 61, 0
1, 59765, Note_on_c, 0, 81, 0
1, 59917, Note_on_c, 0, 84, 81
1, 59925, Note_on_c, 0, 77, 83
1, 59925, Note_on_c, 0, 72, 76
1, 59925, Note_on_c, 0, 66, 84
1, 59925, Note_on_c, 0, 81, 74
1, 59925, Note_on_c, 0, 61, 61
1, 59925, Note_on_c, 0, 55, 75
1, 60145, Note_on_c, 0, 55, 0
1, 60161, Note_on_c, 0, 72, 0
1, 60173, Note_on_c, 0, 66, 0
1, 60173, Note_on_c, 0, 77, 0
1, 60189, Note_on_c, 0, 61, 0
1, 60193, Note_on_c, 0, 84, 0
1, 60201, Note_on_c, 0, 81, 0
1, 60349, Note_on_c, 0, 66, 66
1, 60353, Note_on_c, 0, 84, 63
1, 60357, Note_on_c, 0, 61, 54
1, 60357, Note_on_c, 0, 81, 56
1, 60357, Note_on_c, 0, 77, 63
1, 60357, Note_on_c, 0, 72, 51
1, 60377, Note_on_c, 0, 55, 36
1, 60381, Note_on_c, 0, 66, 0
1, 60405, Note_on_c, 0, 61, 0
1, 60421, Note_on_c, 0, 55, 0
1, 60697, Note_on_c, 0, 72, 0
1, 60753, Note_on_c, 0, 77, 0
1, 60785, Note_on_c, 0, 81, 0
1, 60801, Control_c, 0, 64, 0
1, 60805, Note_on_c, 0, 84, 0
1, 60825, Note_on_c, 0, 33, 68
1, 60825, Note_on_c, 0, 45, 65
1, 60889, Note_on_c, 0, 33, 0
1, 60905, Control_c, 0, 64, 127
1, 60941, Note_on_c, 0, 45, 0
1, 61297, Note_on_c, 0, 88, 60
1, 61297, Note_on_c, 0, 85, 49
1, 61305, Note_on_c, 0, 61, 39
1, 61305, Note_on_c, 0, 54, 40
1, 61305, Note_on_c, 0, 64, 43
1, 61317, Note_on_c, 0, 81, 53
1, 61317, Note_on_c, 0, 76, 39
1, 61321, Note_on_c, 0, 59, 49
1, 61465, Note_on_c, 0, 54, 0
1, 61473, Note_on_c, 0, 59, 0
1, 61481, Note_on_c, 0, 64, 0
1, 61485, Note_on_c, 0, 88, 0
1, 61485, Note_on_c, 0, 76, 0
1, 61489, Note_on_c, 0, 61, 0
1, 61493, Note_on_c, 0, 81, 0
1, 61509, Note_on_c, 0, 85, 0
1, 61677, Note_on_c, 0, 64, 41
1, 61677, Note_on_c, 0, 61, 39
1, 61677, Note_on_c, 0, 85, 40
1, 61677, Note_on_c, 0, 88, 48
1, 61693, Note_on_c, 0, 81, 50
1, 61693, Note_on_c, 0, 54, 37
1, 61693, Note_on_c, 0, 76, 36
1, 61701, Note_on_c, 0, 59, 43
1, 61797, Note_on_c, 0, 59, 0
1, 61797, Note_on_c, 0, 64, 0
1, 61821, Note_on_c, 0, 81, 0
1, 61821, Note_on_c, 0, 54, 0
1, 61825, Note_on_c, 0, 61, 0
1, 61825, Note_on_c, 0, 76, 0
1, 61829, Note_on_c, 0, 88, 0
1, 61849, Note_on_c, 0, 85, 0
1, 61981, Note_on_c, 0, 54, 37
1, 61985, Note_on_c, 0, 61, 28
1, 61989, Note_on_c, 0, 88, 52
1, 61993, Note_on_c, 0, 85, 43
1, 62001, Note_on_c, 0, 76, 40
1, 62001, Note_on_c, 0, 81, 50
1, 62017, Note_on_c, 0, 61, 0
1, 62017, Note_on_c, 0, 54, 0
1, 62049, Note_on_c, 0, 76, 0
1, 62069, Note_on_c, 0, 81, 0
1, 62113, Note_on_c, 0, 85, 0
1, 62141, Note_on_c, 0, 88, 0
1, 62565, Note_on_c, 0, 54, 43
1, 62577, Note_on_c, 0, 61, 47
1, 62577, Note_on_c, 0, 81, 47
1, 62577, Note_on_c, 0, 93, 49
1, 62577, Note_on_c, 0, 88, 45
1, 62589, Note_on_c, 0, 59, 47
1, 62593, Note_on_c, 0, 64, 38
1, 62705, Note_on_c, 0, 54, 0
1, 62713, Note_on_c, 0, 59, 0
1, 62713, Note_on_c, 0, 64, 0
1, 62717, Note_on_c, 0, 81, 0
1, 62721, Note_on_c, 0, 61, 0
1, 62733, Note_on_c, 0, 88, 0
1, 62733, Note_on_c, 0, 93, 0
1, 62885, Note_on_c, 0, 93, 56
1, 62893, Note_on_c, 0, 61, 48
1, 62897, Note_on_c, 0, 64, 46
1, 62897, Note_on_c, 0, 54, 43
1, 62897, Note_on_c, 0, 81, 42
1, 62897, Note_on_c, 0, 88, 49
1, 62909, Note_on_c, 0, 59, 43
1, 62989, Note_on_c, 0, 64, 0
1, 62993, Note_on_c, 0, 59, 0
1, 63017, Note_on_c, 0, 54, 0
1, 63029, Note_on_c, 0, 61, 0
1, 63029, Note_on_c, 0, 88, 0
1, 63033, Note_on_c, 0, 81, 0
1, 63037, Note_on_c, 0, 93, 0
1, 63193, Note_on_c, 0, 54, 44
1, 63197, Note_on_c, 0, 61, 44
1, 63213, Note_on_c, 0, 93, 57
1, 63225, Note_on_c, 0, 81, 45
1, 63229, Note_on_c, 0, 61, 0
1, 63229, Note_on_c, 0, 88, 48
1, 63281, Note_on_c, 0, 54, 0
1, 63457, Note_on_c, 0, 81, 0
1, 63537, Note_on_c, 0, 93, 0
1, 63537, Note_on_c, 0, 88, 0
1, 63585, Note_on_c, 0, 31, 74
1, 63589, Note_on_c, 0, 43, 66
1, 63597, Control_c, 0, 64, 0
1, 63653, Control_c, 0, 64, 127
1, 63661, Note_on_c, 0, 31, 0
1, 63709, Note_on_c, 0, 43, 0
1, 64041, Note_on_c, 0, 88, 77
1, 64049, Note_on_c, 0, 81, 79
1, 64049, Note_on_c, 0, 76, 76
1, 64049, Note_on_c, 0, 55, 66
1, 64049, Note_on_c, 0, 65, 59
1, 64049, Note_on_c, 0, 60, 65
1, 64049, Note_on_c, 0, 84, 68
1, 64049, Note_on_c, 0, 57, 63
1, 64049, Note_on_c, 0, 64, 60
1, 64073, Note_on_c, 0, 58, 42
1, 64085, Note_on_c, 0, 64, 0
1, 64229, Note_on_c, 0, 55, 0
1, 64241, Note_on_c, 0, 76, 0
1, 64261, Note_on_c, 0, 88, 0
1, 64261, Note_on_c, 0, 65, 0
1, 64261, Note_on_c, 0, 81, 0
1, 64265, Note_on_c, 0, 84, 0
1, 64273, Note_on_c, 0, 58, 0
1, 64273, Note_on_c, 0, 60, 0
1, 64273, Note_on_c, 0, 57, 0
1, 64397, Note_on_c, 0, 88, 78
1, 64405, Note_on_c, 0, 81, 81
1, 64413, Note_on_c, 0, 76, 73
1, 64413, Note_on_c, 0, 84, 65
1, 64413, Note_on_c, 0, 55, 68
1, 64413, Note_on_c, 0, 57, 58
1, 64413, Note_on_c, 0, 60, 66
1, 64413, Note_on_c, 0, 65, 72
1, 64493, Note_on_c, 0, 84, 0
1, 64501, Note_on_c, 0, 88, 0
1, 64521, Note_on_c, 0, 81, 0
1, 64545, Note_on_c, 0, 76, 0
1, 64553, Note_on_c, 0, 55, 0
1, 64565, Note_on_c, 0, 65, 0
1, 64573, Note_on_c, 0, 57, 0
1, 64581, Note_on_c, 0, 60, 0
1, 64729, Note_on_c, 0, 65, 66
1, 64729, Note_on_c, 0, 84, 66
1, 64729, Note_on_c, 0, 72, 69
1, 64737, Note_on_c, 0, 77, 72
1, 64737, Note_on_c, 0, 81, 62
1, 64745, Note_on_c, 0, 55, 47
1, 64749, Note_on_c, 0, 60, 49
1, 64753, Note_on_c, 0, 65, 0
1, 64765, Note_on_c, 0, 57, 31
1, 64777, Note_on_c, 0, 60, 0
1, 64805, Note_on_c, 0, 57, 0
1, 64825, Note_on_c, 0, 55, 0
1, 64841, Note_on_c, 0, 77, 0
1, 64845, Note_on_c, 0, 72, 0
1, 64885, Note_on_c, 0, 84, 0
1, 64885, Note_on_c, 0, 81, 0
1, 65073, Control_c, 0, 64, 0
1, 65097, Note_on_c, 0, 31, 68
1, 65101, Note_on_c, 0, 77, 72
1, 65101, Note_on_c, 0, 86, 75
1, 65101, Note_on_c, 0, 74, 71
1, 65101, Note_on_c, 0, 81, 67
1, 65101, Note_on_c, 0, 43, 43
1, 65169, Note_on_c, 0, 31, 0
1, 65181, Control_c, 0, 64, 127
1, 65205, Note_on_c, 0, 43, 0
1, 65273, Note_on_c, 0, 77, 0
1, 65297, Note_on_c, 0, 74, 0
1, 65301, Note_on_c, 0, 81, 0
1, 65333, Note_on_c, 0, 86, 0
1, 65525, Note_on_c, 0, 80, 65
1, 65525, Note_on_c, 0, 86, 72
1, 65525, Note_on_c, 0, 64, 64
1, 65525, Note_on_c, 0, 53, 66
1, 65525, Note_on_c, 0, 83, 65
1, 65525, Note_on_c, 0, 74, 63
1, 65557, Note_on_c, 0, 59, 50
1, 65725, Note_on_c, 0, 86, 0
1, 65729, Note_on_c, 0, 74, 0
1, 65769, Note_on_c, 0, 83, 0
1, 65773, Note_on_c, 0, 80, 0
1, 65777, Note_on_c, 0, 64, 0
1, 65777, Note_on_c, 0, 59, 0
1, 65789, Note_on_c, 0, 53, 0
1, 65985, Note_on_c, 0, 80, 74
1, 65985, Note_on_c, 0, 88, 71
1, 65997, Note_on_c, 0, 64, 57
1, 66001, Note_on_c, 0, 53, 56
1, 66001, Note_on_c, 0, 76, 65
1, 66001, Note_on_c, 0, 59, 55
1, 66001, Note_on_c, 0, 83, 57
1, 66161, Note_on_c, 0, 64, 0
1, 66181, Note_on_c, 0, 76, 0
1, 66185, Note_on_c, 0, 83, 0
1, 66197, Note_on_c, 0, 53, 0
1, 66197, Note_on_c, 0, 59, 0
1, 66197, Note_on_c, 0, 80, 0
1, 66245, Note_on_c, 0, 88, 0
1, 66393, Note_on_c, 0, 64, 61
1, 66393, Note_on_c, 0, 89, 56
1, 66393, Note_on_c, 0, 53, 57
1, 66405, Note_on_c, 0, 77, 53
1, 66405, Note_on_c, 0, 59, 54
1, 66405, Note_on_c, 0, 84, 56
1, 66425, Note_on_c, 0, 88, 30
1, 66433, Note_on_c, 0, 64, 0
1, 66445, Note_on_c, 0, 59, 0
1, 66457, Note_on_c, 0, 88, 0
1, 66509, Note_on_c, 0, 53, 0
1, 66525, Note_on_c, 0, 77, 0
1, 66573, Note_on_c, 0, 84, 0
1, 66597, Note_on_c, 0, 89, 0
1, 66837, Control_c, 0, 64, 0
1, 66853, Note_on_c, 0, 91, 63
1, 66853, Note_on_c, 0, 88, 60
1, 66853, Note_on_c, 0, 79, 55
1, 66853, Note_on_c, 0, 43, 53
1, 66853, Note_on_c, 0, 31, 52
1, 66921, Control_c, 0, 64, 127
1, 66925, Note_on_c, 0, 31, 0
1, 66949, Note_on_c, 0, 43, 0
1, 67101, Note_on_c, 0, 79, 0
1, 67181, Note_on_c, 0, 91, 0
1, 67185, Note_on_c, 0, 88, 0
1, 67253, Note_on_c, 0, 91, 54
1, 67265, Note_on_c, 0, 88, 58
1, 67265, Note_on_c, 0, 83, 48
1, 67265, Note_on_c, 0, 67, 50
1, 67265, Note_on_c, 0, 86, 64
1, 67265, Note_on_c, 0, 62, 46
1, 67281, Note_on_c, 0, 64, 49
1, 67429, Note_on_c, 0, 62, 0
1, 67433, Note_on_c, 0, 64, 0
1, 67437, Note_on_c, 0, 83, 0
1, 67437, Note_on_c, 0, 86, 0
1, 67441, Note_on_c, 0, 91, 0
1, 67445, Note_on_c, 0, 67, 0
1, 67461, Note_on_c, 0, 88, 0
1, 67585, Note_on_c, 0, 91, 76
1, 67593, Note_on_c, 0, 67, 58
1, 67597, Note_on_c, 0, 86, 68
1, 67597, Note_on_c, 0, 83, 67
1, 67609, Note_on_c, 0, 64, 58
1, 67613, Note_on_c, 0, 62, 52
1, 67661, Note_on_c, 0, 91, 0
1, 67669, Note_on_c, 0, 86, 0
1, 67673, Note_on_c, 0, 67, 0
1, 67705, Note_on_c, 0, 83, 0
1, 67889, Note_on_c, 0, 88, 51
1, 67889, Note_on_c, 0, 79, 72
1, 67889, Note_on_c, 0, 55, 61
1, 67889, Note_on_c, 0, 83, 66
1, 67901, Note_on_c, 0, 86, 48
1, 67921, Note_on_c, 0, 83, 0
1, 67937, Note_on_c, 0, 86, 0
1, 67945, Note_on_c, 0, 88, 0
1, 67957, Note_on_c, 0, 79, 0
1, 67973, Note_on_c, 0, 64, 0
1, 67973, Note_on_c, 0, 62, 0
1, 68201, Note_on_c, 0, 83, 66
1, 68209, Note_on_c, 0, 67, 57
1, 68217, Note_on_c, 0, 76, 68
1, 68217, Note_on_c, 0, 74, 58
1, 68225, Note_on_c, 0, 62, 33
1, 68229, Note_on_c, 0, 79, 49
1, 68245, Note_on_c, 0, 64, 39
1, 68261, Note_on_c, 0, 79, 0
1, 68293, Note_on_c, 0, 83, 0
1, 68305, Note_on_c, 0, 76, 0
1, 68309, Note_on_c, 0, 67, 0
1, 68341, Note_on_c, 0, 74, 0
1, 68361, Note_on_c, 0, 64, 0
1, 68417, Note_on_c, 0, 62, 0
1, 68521, Note_on_c, 0, 79, 63
1, 68525, Note_on_c, 0, 74, 65
1, 68525, Note_on_c, 0, 62, 27
1, 68533, Note_on_c, 0, 71, 54
1, 68541, Note_on_c, 0, 64, 44
1, 68569, Note_on_c, 0, 79, 0
1, 68573, Note_on_c, 0, 74, 0
1, 68613, Note_on_c, 0, 71, 0
1, 68681, Note_on_c, 0, 55, 0
1, 68825, Note_on_c, 0, 55, 56
1, 68833, Note_on_c, 0, 76, 66
1, 68841, Note_on_c, 0, 71, 66
1, 68845, Note_on_c, 0, 67, 51
1, 68853, Note_on_c, 0, 62, 0
1, 68861, Note_on_c, 0, 64, 0
1, 68905, Note_on_c, 0, 71, 0
1, 68905, Note_on_c, 0, 76, 0
1, 68913, Note_on_c, 0, 67, 0
1, 68913, Note_on_c, 0, 55, 0
1, 69169, Note_on_c, 0, 72, 52
1, 69169, Note_on_c, 0, 67, 64
1, 69181, Note_on_c, 0, 64, 51
1, 69249, Note_on_c, 0, 64, 0
1, 69261, Note_on_c, 0, 67, 0
1, 69317, Note_on_c, 0, 72, 0
1, 69537, Control_c, 0, 64, 0
1, 69549, Note_on_c, 0, 54, 43
1, 69549, Note_on_c, 0, 39, 46
1, 69549, Note_on_c, 0, 70, 63
1, 69561, Note_on_c, 0, 66, 55
1, 69565, Note_on_c, 0, 61, 49
1, 69649, Control_c, 0, 64, 127
1, 69869, Note_on_c, 0, 61, 0
1, 69869, Note_on_c, 0, 66, 0
1, 69877, Note_on_c, 0, 70, 0
1, 69989, Note_on_c, 0, 60, 68
1, 69997, Note_on_c, 0, 46, 43
1, 70165, Note_on_c, 0, 60, 0
1, 70173, Note_on_c, 0, 61, 70
1, 70309, Note_on_c, 0, 63, 70
1, 70313, Note_on_c, 0, 61, 0
1, 70313, Note_on_c, 0, 39, 0
1, 70357, Note_on_c, 0, 46, 0
1, 70373, Note_on_c, 0, 63, 0
1, 70409, Note_on_c, 0, 65, 77
1, 70493, Note_on_c, 0, 65, 0
1, 70501, Note_on_c, 0, 66, 68
1, 70549, Note_on_c, 0, 54, 0
1, 70577, Note_on_c, 0, 68, 66
1, 70609, Note_on_c, 0, 66, 0
1, 70657, Note_on_c, 0, 70, 61
1, 70669, Note_on_c, 0, 68, 0
1, 70681, Note_on_c, 0, 70, 0
1, 70721, Note_on_c, 0, 72, 75
1, 70757, Note_on_c, 0, 72, 0
1, 70789, Note_on_c, 0, 73, 66
1, 70857, Note_on_c, 0, 75, 72
1, 70865, Note_on_c, 0, 73, 0
1, 70885, Note_on_c, 0, 75, 0
1, 70933, Note_on_c, 0, 77, 81
1, 70993, Control_c, 0, 64, 0
1, 70997, Note_on_c, 0, 77, 0
1, 71001, Note_on_c, 0, 78, 68
1, 71049, Note_on_c, 0, 80, 58
1, 71081, Note_on_c, 0, 44, 59
1, 71101, Note_on_c, 0, 82, 68
1, 71113, Note_on_c, 0, 78, 0
1, 71125, Note_on_c, 0, 80, 0
1, 71133, Control_c, 0, 64, 127
1, 71141, Note_on_c, 0, 82, 0
1, 71193, Note_on_c, 0, 84, 72
1, 71205, Note_on_c, 0, 44, 0
1, 71245, Note_on_c, 0, 84, 0
1, 71261, Note_on_c, 0, 85, 63
1, 71305, Note_on_c, 0, 85, 0
1, 71329, Note_on_c, 0, 87, 60
1, 71353, Note_on_c, 0, 87, 0
1, 71409, Note_on_c, 0, 89, 62
1, 71473, Note_on_c, 0, 89, 0
1, 71493, Note_on_c, 0, 90, 41
1, 71565, Note_on_c, 0, 90, 0
1, 71581, Note_on_c, 0, 94, 56
1, 71605, Note_on_c, 0, 94, 0
1, 71705, Note_on_c, 0, 96, 34
1, 71749, Note_on_c, 0, 96, 0
1, 71761, Note_on_c, 0, 97, 50
1, 71813, Note_on_c, 0, 97, 0
1, 71941, Note_on_c, 0, 101, 42
1, 71941, Note_on_c, 0, 54, 34
1, 71945, Note_on_c, 0, 58, 41
1, 71945, Note_on_c, 0, 65, 33
1, 71949, Note_on_c, 0, 60, 42
1, 71969, Control_c, 0, 64, 0
1, 72121, Control_c, 0, 64, 127
1, 72233, Note_on_c, 0, 101, 0
1, 72481, Note_on_c, 0, 65, 0
1, 72569, Note_on_c, 0, 60, 0
1, 72593, Note_on_c, 0, 54, 0
1, 72677, Note_on_c, 0, 58, 0
1, 72917, Note_on_c, 0, 63, 56
1, 73193, Note_on_c, 0, 63, 0
1, 73225, Control_c, 0, 64, 0
1, 73261, Note_on_c, 0, 62, 45
1, 73261, Note_on_c, 0, 43, 45
1, 73349, Control_c, 0, 64, 127
1, 73393, Note_on_c, 0, 62, 0
1, 73653, Note_on_c, 0, 62, 48
1, 73653, Note_on_c, 0, 53, 46
1, 73673, Note_on_c, 0, 60, 46
1, 73677, Note_on_c, 0, 57, 39
1, 73685, Note_on_c, 0, 50, 25
1, 73801, Note_on_c, 0, 57, 0
1, 73813, Note_on_c, 0, 53, 0
1, 73833, Note_on_c, 0, 60, 0
1, 73893, Note_on_c, 0, 62, 0
1, 73993, Note_on_c, 0, 50, 0
1, 74185, Note_on_c, 0, 57, 41
1, 74197, Note_on_c, 0, 50, 34
1, 74209, Note_on_c, 0, 65, 16
1, 74209, Note_on_c, 0, 60, 27
1, 74221, Note_on_c, 0, 63, 31
1, 74253, Note_on_c, 0, 61, 21
1, 74285, Note_on_c, 0, 61, 0
1, 74289, Note_on_c, 0, 57, 0
1, 74293, Note_on_c, 0, 60, 0
1, 74301, Note_on_c, 0, 65, 0
1, 74365, Note_on_c, 0, 63, 0
1, 74433, Note_on_c, 0, 67, 72
1, 74445, Note_on_c, 0, 59, 60
1, 74449, Note_on_c, 0, 62, 63
1, 74453, Note_on_c, 0, 50, 0
1, 74461, Note_on_c, 0, 55, 54
1, 74493, Note_on_c, 0, 43, 0
1, 74561, Note_on_c, 0, 59, 0
1, 74561, Note_on_c, 0, 67, 0
1, 74577, Note_on_c, 0, 62, 0
1, 74577, Note_on_c, 0, 55, 0
1, 74697, Control_c, 0, 64, 0
1, 74705, Note_on_c, 0, 69, 73
1, 74713, Note_on_c, 0, 60, 65
1, 74717, Note_on_c, 0, 64, 68
1, 74733, Note_on_c, 0, 55, 46
1, 74761, Control_c, 0, 64, 127
1, 74837, Note_on_c, 0, 60, 0
1, 74861, Note_on_c, 0, 69, 0
1, 74869, Note_on_c, 0, 64, 0
1, 74873, Note_on_c, 0, 55, 0
1, 74989, Note_on_c, 0, 71, 73
1, 75001, Note_on_c, 0, 65, 69
1, 75001, Note_on_c, 0, 62, 66
1, 75021, Note_on_c, 0, 55, 57
1, 75117, Note_on_c, 0, 62, 0
1, 75121, Note_on_c, 0, 55, 0
1, 75137, Note_on_c, 0, 65, 0
1, 75157, Note_on_c, 0, 71, 0
1, 75285, Note_on_c, 0, 72, 66
1, 75297, Note_on_c, 0, 67, 67
1, 75301, Note_on_c, 0, 64, 60
1, 75309, Note_on_c, 0, 55, 50
1, 75377, Note_on_c, 0, 64, 0
1, 75393, Note_on_c, 0, 55, 0
1, 75397, Note_on_c, 0, 72, 0
1, 75405, Note_on_c, 0, 67, 0
1, 75593, Note_on_c, 0, 55, 52
1, 75605, Note_on_c, 0, 74, 75
1, 75645, Note_on_c, 0, 55, 0
1, 75829, Note_on_c, 0, 74, 0
1, 75933, Note_on_c, 0, 72, 63
1, 75945, Note_on_c, 0, 63, 58
1, 75965, Note_on_c, 0, 67, 47
1, 75973, Note_on_c, 0, 62, 45
1, 75977, Control_c, 0, 64, 0
1, 76277, Note_on_c, 0, 50, 48
1, 76297, Control_c, 0, 64, 127
1, 76365, Note_on_c, 0, 62, 0
1, 76389, Note_on_c, 0, 67, 0
1, 76465, Note_on_c, 0, 63, 0
1, 76573, Note_on_c, 0, 63, 51
1, 76581, Note_on_c, 0, 67, 54
1, 76585, Note_on_c, 0, 60, 41
1, 76705, Note_on_c, 0, 72, 0
1, 76737, Note_on_c, 0, 63, 0
1, 76757, Note_on_c, 0, 74, 66
1, 76777, Note_on_c, 0, 73, 31
1, 76817, Note_on_c, 0, 67, 0
1, 76877, Note_on_c, 0, 74, 0
1, 76881, Note_on_c, 0, 73, 0
1, 76885, Note_on_c, 0, 50, 0
1, 76897, Note_on_c, 0, 60, 0
1, 76949, Note_on_c, 0, 60, 22
1, 76957, Note_on_c, 0, 72, 39
1, 76961, Control_c, 0, 64, 40
1, 76961, Note_on_c, 0, 63, 46
1, 76965, Control_c, 0, 64, 0
1, 76965, Note_on_c, 0, 66, 48
1, 76969, Note_on_c, 0, 69, 56
1, 76977, Note_on_c, 0, 54, 48
1, 77149, Control_c, 0, 64, 127
1, 77225, Note_on_c, 0, 50, 63
1, 77281, Note_on_c, 0, 72, 0
1, 77285, Note_on_c, 0, 63, 0
1, 77337, Note_on_c, 0, 69, 0
1, 77369, Note_on_c, 0, 60, 0
1, 77397, Note_on_c, 0, 63, 56
1, 77437, Note_on_c, 0, 54, 0
1, 77457, Note_on_c, 0, 50, 0
1, 77485, Note_on_c, 0, 63, 0
1, 77549, Note_on_c, 0, 72, 71
1, 77605, Note_on_c, 0, 66, 0
1, 77665, Note_on_c, 0, 72, 0
1, 77709, Note_on_c, 0, 43, 54
1, 77717, Note_on_c, 0, 70, 66
1, 77721, Control_c, 0, 64, 0
1, 77893, Control_c, 0, 64, 127
1, 77901, Note_on_c, 0, 50, 53
1, 77977, Note_on_c, 0, 43, 0
1, 78069, Note_on_c, 0, 50, 0
1, 78089, Note_on_c, 0, 58, 47
1, 78089, Note_on_c, 0, 62, 54
1, 78113, Note_on_c, 0, 57, 42
1, 78125, Note_on_c, 0, 66, 22
1, 78221, Note_on_c, 0, 57, 0
1, 78281, Note_on_c, 0, 66, 0
1, 78281, Note_on_c, 0, 56, 49
1, 78313, Note_on_c, 0, 58, 0
1, 78325, Note_on_c, 0, 62, 0
1, 78417, Note_on_c, 0, 70, 0
1, 78477, Note_on_c, 0, 58, 56
1, 78485, Control_c, 0, 64, 0
1, 78501, Note_on_c, 0, 56, 0
1, 78505, Note_on_c, 0, 64, 49
1, 78517, Note_on_c, 0, 55, 45
1, 78657, Control_c, 0, 64, 127
1, 78669, Note_on_c, 0, 58, 0
1, 78705, Note_on_c, 0, 64, 0
1, 78725, Note_on_c, 0, 48, 55
1, 78729, Note_on_c, 0, 55, 0
1, 78965, Note_on_c, 0, 55, 51
1, 79037, Note_on_c, 0, 48, 0
1, 79061, Note_on_c, 0, 55, 0
1, 79157, Note_on_c, 0, 63, 61
1, 79229, Note_on_c, 0, 63, 0
1, 79433, Note_on_c, 0, 67, 52
1, 79433, Note_on_c, 0, 63, 50
1, 79445, Note_on_c, 0, 62, 50
1, 79529, Control_c, 0, 64, 0
1, 79657, Control_c, 0, 64, 127
1, 79665, Note_on_c, 0, 74, 72
1, 79669, Note_on_c, 0, 71, 66
1, 79829, Note_on_c, 0, 71, 0
1, 79833, Note_on_c, 0, 74, 0
1, 79877, Note_on_c, 0, 75, 68
1, 79889, Note_on_c, 0, 72, 66
1, 79897, Note_on_c, 0, 62, 0
1, 79901, Note_on_c, 0, 60, 46
1, 79965, Note_on_c, 0, 67, 0
1, 79997, Note_on_c, 0, 63, 0
1, 80025, Note_on_c, 0, 60, 0
1, 80037, Note_on_c, 0, 75, 0
1, 80097, Note_on_c, 0, 77, 73
1, 80105, Note_on_c, 0, 74, 55
1, 80149, Note_on_c, 0, 74, 0
1, 80185, Note_on_c, 0, 72, 0
1, 80245, Note_on_c, 0, 77, 0
1, 80341, Note_on_c, 0, 69, 52
1, 80341, Note_on_c, 0, 74, 68
1, 80349, Note_on_c, 0, 63, 43
1, 80357, Control_c, 0, 64, 0
1, 80365, Note_on_c, 0, 53, 38
1, 80561, Control_c, 0, 64, 127
1, 80593, Note_on_c, 0, 73, 61
1, 80597, Note_on_c, 0, 63, 0
1, 80601, Note_on_c, 0, 74, 0
1, 80629, Note_on_c, 0, 60, 37
1, 80773, Note_on_c, 0, 69, 0
1, 80825, Note_on_c, 0, 73, 0
1, 80869, Note_on_c, 0, 63, 49
1, 80869, Note_on_c, 0, 72, 54
1, 80885, Note_on_c, 0, 69, 35
1, 81061, Note_on_c, 0, 69, 0
1, 81165, Note_on_c, 0, 72, 0
1, 81169, Note_on_c, 0, 53, 0
1, 81285, Note_on_c, 0, 63, 0
1, 81309, Note_on_c, 0, 60, 0
1, 81869, Note_on_c, 0, 69, 52
1, 82053, Note_on_c, 0, 69, 0
1, 82105, Note_on_c, 0, 65, 41
1, 82109, Note_on_c, 0, 70, 57
1, 82113, Control_c, 0, 64, 0
1, 82137, Note_on_c, 0, 60, 36
1, 82137, Note_on_c, 0, 62, 34
1, 82229, Note_on_c, 0, 65, 0
1, 82249, Note_on_c, 0, 70, 0
1, 82301, Note_on_c, 0, 72, 46
1, 82405, Note_on_c, 0, 72, 0
1, 82445, Control_c, 0, 64, 127
1, 82461, Note_on_c, 0, 53, 54
1, 82489, Note_on_c, 0, 60, 0
1, 82497, Note_on_c, 0, 62, 0
1, 82497, Note_on_c, 0, 74, 46
1, 82561, Note_on_c, 0, 53, 0
1, 82817, Note_on_c, 0, 74, 0
1, 83169, Note_on_c, 0, 77, 43
1, 83261, Note_on_c, 0, 77, 0
1, 83309, Control_c, 0, 64, 0
1, 83313, Note_on_c, 0, 79, 57
1, 83425, Note_on_c, 0, 79, 0
1, 83425, Control_c, 0, 64, 127
1, 83425, Note_on_c, 0, 39, 45
1, 83433, Note_on_c, 0, 46, 39
1, 83465, Note_on_c, 0, 82, 60
1, 83469, Note_on_c, 0, 39, 0
1, 83513, Note_on_c, 0, 46, 0
1, 83553, Note_on_c, 0, 82, 0
1, 83621, Note_on_c, 0, 84, 60
1, 83681, Note_on_c, 0, 84, 0
1, 83797, Note_on_c, 0, 86, 55
1, 83813, Note_on_c, 0, 65, 47
1, 83817, Note_on_c, 0, 55, 41
1, 83833, Note_on_c, 0, 60, 44
1, 84129, Note_on_c, 0, 86, 0
1, 84185, Note_on_c, 0, 89, 52
1, 84269, Note_on_c, 0, 89, 0
1, 84417, Note_on_c, 0, 94, 62
1, 84441, Note_on_c, 0, 65, 0
1, 84509, Note_on_c, 0, 94, 0
1, 84541, Note_on_c, 0, 60, 0
1, 84589, Note_on_c, 0, 55, 0
1, 84653, Note_on_c, 0, 96, 67
1, 84845, Note_on_c, 0, 96, 0
1, 84873, Control_c, 0, 64, 0
1, 84893, Note_on_c, 0, 95, 58
1, 84901, Note_on_c, 0, 44, 46
1, 84961, Control_c, 0, 64, 127
1, 84973, Note_on_c, 0, 44, 0
1, 85209, Note_on_c, 0, 54, 39
1, 85217, Note_on_c, 0, 58, 46
1, 85245, Note_on_c, 0, 54, 0
1, 85361, Note_on_c, 0, 58, 0
1, 85461, Note_on_c, 0, 95, 0
1, 85485, Note_on_c, 0, 97, 72
1, 85485, Note_on_c, 0, 63, 48
1, 85501, Note_on_c, 0, 58, 40
1, 85505, Note_on_c, 0, 54, 37
1, 85533, Note_on_c, 0, 59, 31
1, 85577, Note_on_c, 0, 54, 0
1, 85605, Note_on_c, 0, 59, 0
1, 85609, Note_on_c, 0, 63, 0
1, 85637, Note_on_c, 0, 58, 0
1, 85677, Note_on_c, 0, 97, 0
1, 85689, Note_on_c, 0, 99, 82
1, 85709, Note_on_c, 0, 63, 39
1, 85709, Note_on_c, 0, 54, 54
1, 85733, Note_on_c, 0, 58, 38
1, 85737, Note_on_c, 0, 59, 38
1, 85853, Note_on_c, 0, 54, 0
1, 85861, Note_on_c, 0, 63, 0
1, 85873, Note_on_c, 0, 99, 0
1, 85905, Note_on_c, 0, 59, 0
1, 85913, Note_on_c, 0, 58, 0
1, 85913, Note_on_c, 0, 97, 77
1, 85925, Control_c, 0, 64, 0
1, 85929, Note_on_c, 0, 53, 63
1, 86045, Control_c, 0, 64, 127
1, 86137, Note_on_c, 0, 63, 46
1, 86149, Note_on_c, 0, 58, 44
1, 86165, Note_on_c, 0, 59, 39
1, 86217, Note_on_c, 0, 97, 0
1, 86221, Note_on_c, 0, 63, 0
1, 86249, Note_on_c, 0, 59, 0
1, 86281, Note_on_c, 0, 58, 0
1, 86381, Note_on_c, 0, 95, 76
1, 86405, Note_on_c, 0, 63, 43
1, 86417, Note_on_c, 0, 58, 31
1, 86429, Note_on_c, 0, 59, 39
1, 86469, Note_on_c, 0, 53, 0
1, 86557, Note_on_c, 0, 63, 0
1, 86613, Note_on_c, 0, 53, 46
1, 86729, Note_on_c, 0, 53, 0
1, 86741, Note_on_c, 0, 59, 0
1, 86765, Note_on_c, 0, 58, 0
1, 86829, Note_on_c, 0, 95, 0
1, 86861, Note_on_c, 0, 51, 62
1, 86861, Control_c, 0, 64, 0
1, 86873, Note_on_c, 0, 94, 57
1, 86969, Control_c, 0, 64, 127
1, 87097, Note_on_c, 0, 61, 40
1, 87113, Note_on_c, 0, 58, 41
1, 87261, Note_on_c, 0, 94, 0
1, 87297, Note_on_c, 0, 61, 0
1, 87341, Note_on_c, 0, 51, 0
1, 87341, Note_on_c, 0, 97, 57
1, 87357, Note_on_c, 0, 85, 60
1, 87377, Note_on_c, 0, 58, 0
1, 87637, Note_on_c, 0, 30, 68
1, 87673, Control_c, 0, 64, 0
1, 87725, Control_c, 0, 64, 127
1, 87733, Note_on_c, 0, 30, 0
1, 87905, Note_on_c, 0, 97, 0
1, 87925, Note_on_c, 0, 85, 0
1, 88733, Note_on_c, 0, 90, 63
1, 88745, Note_on_c, 0, 47, 55
1, 88757, Control_c, 0, 64, 0
1, 88889, Control_c, 0, 64, 56
1, 88893, Control_c, 0, 64, 127
1, 89037, Note_on_c, 0, 54, 55
1, 89341, Note_on_c, 0, 78, 55
1, 89349, Note_on_c, 0, 59, 44
1, 89357, Note_on_c, 0, 90, 0
1, 89373, Note_on_c, 0, 78, 0
1, 89517, Note_on_c, 0, 47, 0
1, 89633, Note_on_c, 0, 59, 0
1, 89681, Note_on_c, 0, 47, 45
1, 89681, Note_on_c, 0, 70, 50
1, 89741, Note_on_c, 0, 70, 0
1, 89781, Note_on_c, 0, 47, 0
1, 90149, Note_on_c, 0, 54, 0
1, 90613, Control_c, 0, 64, 0
1, 90649, Note_on_c, 0, 48, 49
1, 90649, Note_on_c, 0, 68, 52
1, 90657, Note_on_c, 0, 63, 54
1, 90697, Note_on_c, 0, 61, 35
1, 90805, Control_c, 0, 64, 127
1, 90869, Note_on_c, 0, 68, 0
1, 90941, Note_on_c, 0, 68, 58
1, 91073, Note_on_c, 0, 68, 0
1, 91185, Note_on_c, 0, 68, 62
1, 91213, Note_on_c, 0, 48, 0
1, 91281, Note_on_c, 0, 68, 0
1, 91369, Note_on_c, 0, 63, 0
1, 91401, Note_on_c, 0, 68, 57
1, 91513, Note_on_c, 0, 61, 0
1, 91525, Note_on_c, 0, 68, 0
1, 91609, Note_on_c, 0, 66, 57
1, 91617, Note_on_c, 0, 57, 49
1, 91617, Note_on_c, 0, 63, 43
1, 91617, Control_c, 0, 64, 24
1, 91621, Note_on_c, 0, 61, 42
1, 91621, Control_c, 0, 64, 0
1, 91629, Note_on_c, 0, 41, 50
1, 91637, Note_on_c, 0, 51, 37
1, 91729, Control_c, 0, 64, 127
1, 91765, Note_on_c, 0, 66, 0
1, 91857, Note_on_c, 0, 66, 57
1, 91989, Note_on_c, 0, 66, 0
1, 92017, Note_on_c, 0, 57, 0
1, 92033, Note_on_c, 0, 63, 0
1, 92077, Note_on_c, 0, 66, 48
1, 92089, Note_on_c, 0, 41, 0
1, 92113, Note_on_c, 0, 63, 30
1, 92193, Note_on_c, 0, 51, 0
1, 92201, Note_on_c, 0, 66, 0
1, 92237, Note_on_c, 0, 63, 0
1, 92257, Note_on_c, 0, 61, 0
1, 92309, Note_on_c, 0, 66, 48
1, 92325, Note_on_c, 0, 61, 21
1, 92413, Note_on_c, 0, 66, 0
1, 92469, Note_on_c, 0, 61, 0
1, 92677, Control_c, 0, 64, 0
1, 92685, Note_on_c, 0, 46, 45
1, 92689, Note_on_c, 0, 65, 51
1, 92697, Note_on_c, 0, 57, 44
1, 92701, Note_on_c, 0, 60, 48
1, 92801, Control_c, 0, 64, 127
1, 92921, Note_on_c, 0, 65, 0
1, 93221, Note_on_c, 0, 57, 0
1, 93293, Note_on_c, 0, 60, 0
1, 93545, Note_on_c, 0, 56, 45
1, 93841, Note_on_c, 0, 46, 0
1, 93941, Note_on_c, 0, 46, 48
1, 93949, Note_on_c, 0, 56, 0
1, 93953, Note_on_c, 0, 58, 66
1, 94221, Note_on_c, 0, 58, 0
1, 94221, Control_c, 0, 64, 0
1, 94237, Note_on_c, 0, 46, 0
1, 94249, Note_on_c, 0, 59, 72
1, 94261, Note_on_c, 0, 47, 58
1, 94321, Control_c, 0, 64, 127
1, 94541, Note_on_c, 0, 66, 74
1, 94545, Note_on_c, 0, 54, 54
1, 94621, Note_on_c, 0, 54, 0
1, 94657, Note_on_c, 0, 47, 0
1, 94737, Note_on_c, 0, 66, 0
1, 94745, Note_on_c, 0, 59, 0
1, 95417, Control_c, 0, 64, 0
1, 95453, Note_on_c, 0, 63, 50
1, 95453, Note_on_c, 0, 54, 44
1, 95465, Note_on_c, 0, 39, 45
1, 95465, Note_on_c, 0, 58, 48
1, 95469, Note_on_c, 0, 46, 39
1, 95497, Control_c, 0, 64, 72
1, 95501, Note_on_c, 0, 54, 0
1, 95501, Control_c, 0, 64, 127
1, 95549, Note_on_c, 0, 58, 0
1, 95565, Note_on_c, 0, 63, 0
1, 95617, Note_on_c, 0, 39, 0
1, 95617, Note_on_c, 0, 46, 0
1, 95789, Note_on_c, 0, 77, 66
1, 96021, Note_on_c, 0, 70, 54
1, 96033, Note_on_c, 0, 66, 38
1, 96041, Note_on_c, 0, 65, 45
1, 96101, Note_on_c, 0, 65, 0
1, 96169, Note_on_c, 0, 66, 0
1, 96173, Note_on_c, 0, 70, 0
1, 96285, Note_on_c, 0, 66, 46
1, 96293, Note_on_c, 0, 70, 54
1, 96317, Note_on_c, 0, 65, 42
1, 96365, Note_on_c, 0, 65, 0
1, 96393, Note_on_c, 0, 70, 0
1, 96413, Note_on_c, 0, 66, 0
1, 96629, Note_on_c, 0, 66, 49
1, 96637, Note_on_c, 0, 70, 56
1, 96657, Note_on_c, 0, 65, 40
1, 96697, Note_on_c, 0, 65, 0
1, 96705, Note_on_c, 0, 66, 0
1, 96733, Note_on_c, 0, 70, 0
1, 96941, Note_on_c, 0, 66, 41
1, 96945, Note_on_c, 0, 70, 48
1, 96953, Note_on_c, 0, 65, 42
1, 96993, Note_on_c, 0, 65, 0
1, 97001, Note_on_c, 0, 66, 0
1, 97029, Note_on_c, 0, 70, 0
1, 97249, Note_on_c, 0, 65, 37
1, 97249, Note_on_c, 0, 66, 41
1, 97257, Note_on_c, 0, 70, 46
1, 97285, Note_on_c, 0, 65, 0
1, 97373, Note_on_c, 0, 70, 0
1, 97393, Note_on_c, 0, 66, 0
1, 97605, Note_on_c, 0, 66, 44
1, 97613, Note_on_c, 0, 70, 49
1, 97633, Note_on_c, 0, 51, 47
1, 97637, Control_c, 0, 64, 0
1, 97657, Note_on_c, 0, 77, 0
1, 97721, Control_c, 0, 64, 127
1, 97809, Note_on_c, 0, 70, 0
1, 97865, Note_on_c, 0, 66, 0
1, 97873, Note_on_c, 0, 75, 57
1, 97873, Note_on_c, 0, 68, 50
1, 97885, Note_on_c, 0, 56, 41
1, 97921, Control_c, 0, 64, 88
1, 97925, Control_c, 0, 64, 0
1, 98049, Control_c, 0, 64, 127
1, 98093, Note_on_c, 0, 75, 0
1, 98121, Note_on_c, 0, 65, 46
1, 98145, Note_on_c, 0, 72, 48
1, 98149, Note_on_c, 0, 60, 29
1, 98181, Note_on_c, 0, 56, 0
1, 98753, Note_on_c, 0, 65, 0
1, 98977, Note_on_c, 0, 68, 0
1, 98981, Note_on_c, 0, 72, 0
1, 99105, Note_on_c, 0, 68, 56
1, 99109, Note_on_c, 0, 56, 43
1, 99145, Note_on_c, 0, 65, 16
1, 99213, Note_on_c, 0, 60, 0
1, 99253, Note_on_c, 0, 65, 0
1, 99261, Note_on_c, 0, 68, 0
1, 99389, Note_on_c, 0, 68, 49
1, 99405, Note_on_c, 0, 60, 38
1, 99405, Note_on_c, 0, 65, 39
1, 99521, Note_on_c, 0, 68, 0
1, 99533, Note_on_c, 0, 65, 0
1, 99721, Note_on_c, 0, 77, 68
1, 99749, Note_on_c, 0, 60, 0
1, 99873, Note_on_c, 0, 51, 0
1, 99933, Note_on_c, 0, 56, 0
1, 99981, Note_on_c, 0, 77, 0
1, 100069, Note_on_c, 0, 66, 51
1, 100081, Note_on_c, 0, 70, 56
1, 100085, Note_on_c, 0, 51, 48
1, 100097, Note_on_c, 0, 61, 33
1, 100121, Control_c, 0, 64, 0
1, 100229, Control_c, 0, 64, 127
1, 100321, Note_on_c, 0, 61, 0
1, 100329, Note_on_c, 0, 75, 68
1, 100337, Note_on_c, 0, 58, 49
1, 100493, Note_on_c, 0, 75, 0
1, 100501, Note_on_c, 0, 66, 0
1, 100525, Note_on_c, 0, 70, 0
1, 100597, Note_on_c, 0, 61, 51
1, 100597, Note_on_c, 0, 75, 72
1, 100597, Note_on_c, 0, 66, 54
1, 100621, Note_on_c, 0, 70, 30
1, 100677, Note_on_c, 0, 70, 0
1, 100697, Note_on_c, 0, 51, 0
1, 100697, Note_on_c, 0, 61, 0
1, 100793, Note_on_c, 0, 66, 0
1, 100805, Note_on_c, 0, 58, 0
1, 100861, Note_on_c, 0, 66, 54
1, 100865, Note_on_c, 0, 65, 80
1, 100865, Note_on_c, 0, 70, 57
1, 101009, Note_on_c, 0, 70, 0
1, 101017, Note_on_c, 0, 66, 0
1, 101173, Note_on_c, 0, 66, 49
1, 101177, Note_on_c, 0, 70, 54
1, 101285, Note_on_c, 0, 70, 0
1, 101321, Note_on_c, 0, 66, 0
1, 101449, Note_on_c, 0, 66, 49
1, 101457, Note_on_c, 0, 70, 54
1, 101457, Note_on_c, 0, 63, 55
1, 101465, Note_on_c, 0, 65, 0
1, 101585, Note_on_c, 0, 70, 0
1, 101601, Note_on_c, 0, 66, 0
1, 101717, Note_on_c, 0, 63, 0
1, 101737, Note_on_c, 0, 70, 52
1, 101745, Note_on_c, 0, 66, 42
1, 101881, Note_on_c, 0, 66, 0
1, 101957, Note_on_c, 0, 75, 0
1, 101993, Note_on_c, 0, 77, 49
1, 102041, Note_on_c, 0, 77, 0
1, 102049, Note_on_c, 0, 75, 13
1, 102053, Note_on_c, 0, 70, 0
1, 102189, Note_on_c, 0, 75, 0
1, 102229, Note_on_c, 0, 65, 49
1, 102233, Note_on_c, 0, 68, 54
1, 102245, Note_on_c, 0, 51, 40
1, 102257, Note_on_c, 0, 60, 26
1, 102265, Control_c, 0, 64, 0
1, 102485, Control_c, 0, 64, 127
1, 102529, Note_on_c, 0, 68, 0
1, 102545, Note_on_c, 0, 56, 45
1, 102549, Note_on_c, 0, 60, 0
1, 102857, Note_on_c, 0, 72, 51
1, 102861, Note_on_c, 0, 60, 35
1, 102873, Note_on_c, 0, 68, 33
1, 103357, Note_on_c, 0, 60, 0
1, 103669, Note_on_c, 0, 65, 0
1, 103761, Note_on_c, 0, 60, 36
1, 103881, Note_on_c, 0, 60, 0
1, 104001, Note_on_c, 0, 51, 0
1, 104017, Note_on_c, 0, 56, 0
1, 104033, Note_on_c, 0, 68, 0
1, 104069, Note_on_c, 0, 72, 0
1, 104113, Note_on_c, 0, 65, 38
1, 104309, Note_on_c, 0, 65, 0
1, 104445, Note_on_c, 0, 77, 41
1, 104949, Note_on_c, 0, 70, 48
1, 104949, Note_on_c, 0, 66, 38
1, 104965, Control_c, 0, 64, 0
1, 104969, Note_on_c, 0, 39, 35
1, 104969, Note_on_c, 0, 54, 34
1, 104981, Note_on_c, 0, 77, 0
1, 105125, Control_c, 0, 64, 127
1, 105257, Note_on_c, 0, 70, 0
1, 105289, Note_on_c, 0, 54, 0
1, 105309, Note_on_c, 0, 66, 0
1, 105353, Note_on_c, 0, 46, 39
1, 105397, Note_on_c, 0, 39, 0
1, 105581, Note_on_c, 0, 46, 0
1, 105633, Note_on_c, 0, 54, 41
1, 105897, Note_on_c, 0, 54, 0
1, 105929, Note_on_c, 0, 58, 46
1, 106157, Note_on_c, 0, 60, 45
1, 106717, Note_on_c, 0, 60, 0
1, 106753, Note_on_c, 0, 63, 43
1, 106945, Note_on_c, 0, 63, 0
1, 106973, Note_on_c, 0, 65, 49
1, 107117, Note_on_c, 0, 65, 0
1, 107145, Note_on_c, 0, 66, 47
1, 107201, Note_on_c, 0, 66, 0
1, 107337, Note_on_c, 0, 72, 51
1, 107465, Note_on_c, 0, 72, 0
1, 107521, Note_on_c, 0, 73, 43
1, 107565, Note_on_c, 0, 73, 0
1, 107697, Note_on_c, 0, 77, 50
1, 107821, Note_on_c, 0, 77, 0
1, 107865, Note_on_c, 0, 78, 42
1, 107901, Note_on_c, 0, 78, 0
1, 108057, Note_on_c, 0, 84, 37
1, 108161, Note_on_c, 0, 84, 0
1, 108217, Note_on_c, 0, 85, 47
1, 108245, Note_on_c, 0, 85, 0
1, 108413, Note_on_c, 0, 89, 28
1, 108501, Note_on_c, 0, 89, 0
1, 108541, Note_on_c, 0, 90, 45
1, 108577, Note_on_c, 0, 90, 0
1, 108753, Note_on_c, 0, 96, 33
1, 108789, Note_on_c, 0, 96, 0
1, 108917, Note_on_c, 0, 97, 42
1, 109009, Note_on_c, 0, 97, 0
1, 109101, Note_on_c, 0, 101, 45
1, 109257, Note_on_c, 0, 101, 0
1, 109281, Note_on_c, 0, 102, 55
1, 109441, Note_on_c, 0, 102, 0
1, 109505, Note_on_c, 0, 101, 52
1, 110673, Note_on_c, 0, 101, 0
1, 110825, Control_c, 0, 64, 0
1, 110857, Note_on_c, 0, 58, 0
1, 110857, End_track
0, 0, End_of_file
