0, 0, Header, 1, 2, 384
1, 0, Start_track
1, 0, Title_t, "untitled"
1, 0, Time_signature, 4, 2, 24, 8
1, 0, Key_signature, 0, "major"
1, 0, Tempo, 600000
1, 0, Tempo, 582524
1, 0, Sequencer_specific, 21, 67, 115, 10, 0, 5, 75, 79, 79, 79, 79, 79, 79, 79, 79, 79, 79, 79, 79, 79, 79, 79
1, 0, Sequencer_specific, 6, 67, 115, 10, 0, 4, 1
1, 0, Sequencer_specific, 9, 67, 123, 0, 88, 70, 48, 50, 0, 0
1, 0, End_track
2, 0, Start_track
2, 0, Title_t, "Piano will need good piano sound  for bass notes to be effective"
2, 0, Control_c, 0, 0, 0
2, 0, Control_c, 0, 32, 1
2, 0, Program_c, 0, 0
2, 0, Control_c, 0, 7, 107
2, 0, Control_c, 0, 10, 64
2, 0, Control_c, 0, 91, 10
2, 0, Control_c, 0, 93, 0
2, 0, Note_on_c, 0, 36, 1
2, 384, Note_on_c, 0, 36, 0
2, 2954, Note_on_c, 0, 24, 85
2, 2958, Note_on_c, 0, 36, 81
2, 2998, Control_c, 0, 64, 127
2, 3094, Note_on_c, 0, 24, 0
2, 3114, Note_on_c, 0, 36, 0
2, 3162, Note_on_c, 0, 24, 44
2, 3198, Note_on_c, 0, 24, 0
2, 3210, Note_on_c, 0, 36, 39
2, 3286, Note_on_c, 0, 36, 0
2, 3318, Note_on_c, 0, 24, 47
2, 3382, Note_on_c, 0, 24, 0
2, 3418, Note_on_c, 0, 36, 34
2, 3470, Note_on_c, 0, 36, 0
2, 3498, Note_on_c, 0, 24, 47
2, 3574, Note_on_c, 0, 24, 0
2, 3598, Note_on_c, 0, 36, 40
2, 3642, Note_on_c, 0, 36, 0
2, 3674, Note_on_c, 0, 24, 43
2, 3746, Note_on_c, 0, 24, 0
2, 3766, Note_on_c, 0, 36, 43
2, 3818, Note_on_c, 0, 36, 0
2, 3854, Note_on_c, 0, 24, 42
2, 3926, Note_on_c, 0, 24, 0
2, 3950, Note_on_c, 0, 36, 36
2, 3994, Note_on_c, 0, 36, 0
2, 4030, Note_on_c, 0, 24, 42
2, 4102, Note_on_c, 0, 24, 0
2, 4130, Note_on_c, 0, 36, 37
2, 4174, Note_on_c, 0, 36, 0
2, 4210, Note_on_c, 0, 24, 41
2, 4274, Note_on_c, 0, 24, 0
2, 4306, Note_on_c, 0, 36, 36
2, 4354, Note_on_c, 0, 36, 0
2, 4382, Note_on_c, 0, 24, 42
2, 4458, Note_on_c, 0, 24, 0
2, 4486, Note_on_c, 0, 36, 38
2, 4530, Note_on_c, 0, 36, 0
2, 4562, Note_on_c, 0, 24, 48
2, 4638, Note_on_c, 0, 24, 0
2, 4658, Note_on_c, 0, 36, 40
2, 4706, Note_on_c, 0, 36, 0
2, 4742, Note_on_c, 0, 24, 49
2, 4814, Note_on_c, 0, 24, 0
2, 4830, Note_on_c, 0, 36, 45
2, 4870, Note_on_c, 0, 36, 0
2, 4910, Note_on_c, 0, 24, 50
2, 4974, Note_on_c, 0, 24, 0
2, 4990, Note_on_c, 0, 36, 46
2, 5026, Note_on_c, 0, 36, 0
2, 5054, Note_on_c, 0, 24, 54
2, 5122, Note_on_c, 0, 24, 0
2, 5150, Note_on_c, 0, 36, 48
2, 5214, Note_on_c, 0, 36, 0
2, 5214, Note_on_c, 0, 24, 56
2, 5298, Note_on_c, 0, 24, 0
2, 5314, Note_on_c, 0, 36, 56
2, 5370, Note_on_c, 0, 24, 72
2, 5390, Note_on_c, 0, 36, 0
2, 5454, Note_on_c, 0, 36, 64
2, 5462, Note_on_c, 0, 24, 0
2, 5510, Note_on_c, 0, 24, 77
2, 5602, Note_on_c, 0, 24, 0
2, 5646, Note_on_c, 0, 24, 80
2, 5658, Note_on_c, 0, 36, 0
2, 5718, Note_on_c, 0, 36, 60
2, 5730, Note_on_c, 0, 24, 0
2, 5786, Note_on_c, 0, 24, 70
2, 5810, Note_on_c, 0, 36, 0
2, 5886, Note_on_c, 0, 24, 0
2, 5886, Note_on_c, 0, 36, 48
2, 5954, Note_on_c, 0, 24, 63
2, 5966, Note_on_c, 0, 36, 0
2, 6050, Note_on_c, 0, 24, 0
2, 6054, Note_on_c, 0, 36, 48
2, 6114, Note_on_c, 0, 24, 56
2, 6126, Note_on_c, 0, 36, 0
2, 6210, Note_on_c, 0, 24, 0
2, 6226, Note_on_c, 0, 36, 48
2, 6298, Note_on_c, 0, 36, 0
2, 6306, Note_on_c, 0, 24, 51
2, 6386, Note_on_c, 0, 24, 0
2, 6418, Note_on_c, 0, 36, 36
2, 6470, Note_on_c, 0, 36, 0
2, 6486, Note_on_c, 0, 24, 50
2, 6562, Note_on_c, 0, 24, 0
2, 6590, Note_on_c, 0, 36, 42
2, 6630, Note_on_c, 0, 36, 0
2, 6654, Note_on_c, 0, 24, 56
2, 6734, Note_on_c, 0, 24, 0
2, 6758, Note_on_c, 0, 36, 45
2, 6818, Note_on_c, 0, 36, 0
2, 6830, Note_on_c, 0, 24, 50
2, 6902, Note_on_c, 0, 24, 0
2, 6926, Note_on_c, 0, 36, 46
2, 6966, Note_on_c, 0, 36, 0
2, 6994, Note_on_c, 0, 24, 54
2, 7050, Control_c, 0, 74, 46
2, 7050, Control_c, 0, 64, 127
2, 7050, Control_c, 0, 11, 127
2, 7050, Control_c, 0, 94, 0
2, 7050, Control_c, 0, 101, 0
2, 7051, Control_c, 0, 100, 1
2, 7052, Control_c, 0, 6, 64
2, 7053, Control_c, 0, 38, 0
2, 7054, Pitch_bend_c, 0, 8192
2, 7054, Control_c, 0, 71, 43
2, 7074, Note_on_c, 0, 24, 0
2, 7078, Note_on_c, 0, 36, 58
2, 7150, Note_on_c, 0, 36, 0
2, 7154, Note_on_c, 0, 24, 68
2, 7226, Note_on_c, 0, 36, 72
2, 7234, Note_on_c, 0, 24, 0
2, 7238, Note_on_c, 0, 76, 82
2, 7238, Note_on_c, 0, 84, 82
2, 7238, Note_on_c, 0, 72, 79
2, 7238, Note_on_c, 0, 79, 82
2, 7270, Note_on_c, 0, 24, 54
2, 7318, Note_on_c, 0, 36, 0
2, 7358, Note_on_c, 0, 24, 0
2, 7358, Note_on_c, 0, 36, 56
2, 7414, Note_on_c, 0, 24, 68
2, 7430, Note_on_c, 0, 36, 0
2, 7514, Note_on_c, 0, 24, 0
2, 7514, Note_on_c, 0, 36, 58
2, 7590, Note_on_c, 0, 24, 65
2, 7602, Note_on_c, 0, 36, 0
2, 7694, Note_on_c, 0, 24, 0
2, 7694, Note_on_c, 0, 36, 57
2, 7762, Note_on_c, 0, 24, 55
2, 7774, Note_on_c, 0, 36, 0
2, 7866, Note_on_c, 0, 24, 0
2, 7866, Note_on_c, 0, 36, 50
2, 7946, Note_on_c, 0, 24, 60
2, 7950, Note_on_c, 0, 36, 0
2, 8038, Note_on_c, 0, 24, 0
2, 8042, Note_on_c, 0, 36, 48
2, 8122, Note_on_c, 0, 36, 0
2, 8122, Note_on_c, 0, 24, 58
2, 8222, Note_on_c, 0, 24, 0
2, 8222, Note_on_c, 0, 36, 52
2, 8266, Note_on_c, 0, 79, 0
2, 8298, Note_on_c, 0, 24, 55
2, 8306, Note_on_c, 0, 76, 0
2, 8310, Note_on_c, 0, 36, 0
2, 8358, Note_on_c, 0, 84, 0
2, 8394, Note_on_c, 0, 24, 0
2, 8418, Note_on_c, 0, 36, 43
2, 8422, Note_on_c, 0, 72, 0
2, 8470, Note_on_c, 0, 36, 0
2, 8478, Note_on_c, 0, 24, 58
2, 8566, Note_on_c, 0, 24, 0
2, 8578, Note_on_c, 0, 36, 60
2, 8610, Note_on_c, 0, 86, 85
2, 8610, Note_on_c, 0, 74, 79
2, 8610, Note_on_c, 0, 78, 79
2, 8610, Note_on_c, 0, 81, 81
2, 8610, Note_on_c, 0, 24, 78
2, 8646, Note_on_c, 0, 36, 0
2, 8710, Note_on_c, 0, 36, 52
2, 8726, Note_on_c, 0, 24, 0
2, 8890, Note_on_c, 0, 24, 57
2, 8922, Note_on_c, 0, 74, 0
2, 8930, Note_on_c, 0, 86, 0
2, 8934, Note_on_c, 0, 36, 0
2, 8938, Note_on_c, 0, 81, 0
2, 8942, Note_on_c, 0, 78, 0
2, 8998, Note_on_c, 0, 36, 61
2, 9006, Note_on_c, 0, 24, 0
2, 9026, Note_on_c, 0, 78, 74
2, 9030, Note_on_c, 0, 86, 75
2, 9030, Note_on_c, 0, 81, 78
2, 9030, Note_on_c, 0, 74, 70
2, 9058, Note_on_c, 0, 24, 72
2, 9094, Note_on_c, 0, 36, 0
2, 9162, Note_on_c, 0, 86, 0
2, 9170, Note_on_c, 0, 36, 55
2, 9178, Note_on_c, 0, 81, 0
2, 9182, Note_on_c, 0, 24, 0
2, 9202, Note_on_c, 0, 78, 0
2, 9226, Note_on_c, 0, 74, 0
2, 9250, Note_on_c, 0, 24, 56
2, 9258, Note_on_c, 0, 36, 0
2, 9362, Note_on_c, 0, 36, 57
2, 9370, Note_on_c, 0, 24, 0
2, 9410, Note_on_c, 0, 79, 63
2, 9410, Note_on_c, 0, 67, 70
2, 9414, Note_on_c, 0, 71, 69
2, 9418, Note_on_c, 0, 74, 66
2, 9422, Note_on_c, 0, 24, 75
2, 9430, Note_on_c, 0, 77, 39
2, 9442, Note_on_c, 0, 36, 0
2, 9462, Note_on_c, 0, 77, 0
2, 9514, Note_on_c, 0, 36, 55
2, 9526, Note_on_c, 0, 24, 0
2, 9590, Note_on_c, 0, 24, 60
2, 9602, Note_on_c, 0, 36, 0
2, 9678, Note_on_c, 0, 24, 0
2, 9682, Note_on_c, 0, 36, 50
2, 9762, Note_on_c, 0, 36, 0
2, 9762, Note_on_c, 0, 24, 55
2, 9846, Note_on_c, 0, 24, 0
2, 9866, Note_on_c, 0, 36, 47
2, 9934, Note_on_c, 0, 24, 57
2, 9950, Note_on_c, 0, 36, 0
2, 10026, Note_on_c, 0, 24, 0
2, 10034, Note_on_c, 0, 36, 56
2, 10098, Note_on_c, 0, 24, 72
2, 10106, Note_on_c, 0, 36, 0
2, 10178, Note_on_c, 0, 36, 57
2, 10194, Note_on_c, 0, 24, 0
2, 10246, Note_on_c, 0, 24, 77
2, 10258, Note_on_c, 0, 36, 0
2, 10314, Note_on_c, 0, 36, 68
2, 10330, Note_on_c, 0, 24, 0
2, 10390, Note_on_c, 0, 24, 81
2, 10410, Note_on_c, 0, 36, 0
2, 10454, Note_on_c, 0, 36, 54
2, 10478, Note_on_c, 0, 24, 0
2, 10530, Note_on_c, 0, 24, 81
2, 10550, Note_on_c, 0, 36, 0
2, 10602, Note_on_c, 0, 36, 71
2, 10622, Note_on_c, 0, 24, 0
2, 10670, Note_on_c, 0, 24, 81
2, 10694, Note_on_c, 0, 36, 0
2, 10746, Note_on_c, 0, 36, 66
2, 10774, Note_on_c, 0, 24, 0
2, 10822, Note_on_c, 0, 24, 78
2, 10834, Note_on_c, 0, 36, 0
2, 10898, Control_c, 0, 64, 0
2, 10910, Note_on_c, 0, 36, 49
2, 10934, Note_on_c, 0, 24, 0
2, 10994, Note_on_c, 0, 24, 56
2, 11006, Note_on_c, 0, 36, 0
2, 11110, Note_on_c, 0, 24, 0
2, 11114, Note_on_c, 0, 36, 43
2, 11198, Note_on_c, 0, 24, 39
2, 11202, Note_on_c, 0, 36, 0
2, 11302, Note_on_c, 0, 36, 47
2, 11314, Note_on_c, 0, 24, 0
2, 11362, Note_on_c, 0, 79, 0
2, 11362, Note_on_c, 0, 67, 0
2, 11374, Note_on_c, 0, 74, 0
2, 11382, Note_on_c, 0, 71, 0
2, 11394, Note_on_c, 0, 36, 0
2, 11394, Note_on_c, 0, 24, 47
2, 11510, Note_on_c, 0, 24, 0
2, 11514, Note_on_c, 0, 36, 42
2, 11606, Note_on_c, 0, 36, 0
2, 11606, Note_on_c, 0, 24, 39
2, 11726, Note_on_c, 0, 36, 39
2, 11734, Note_on_c, 0, 24, 0
2, 11802, Note_on_c, 0, 24, 48
2, 11822, Note_on_c, 0, 36, 0
2, 11950, Note_on_c, 0, 24, 0
2, 11950, Note_on_c, 0, 36, 38
2, 12026, Note_on_c, 0, 24, 40
2, 12034, Note_on_c, 0, 36, 0
2, 12130, Note_on_c, 0, 24, 0
2, 12154, Note_on_c, 0, 36, 39
2, 12202, Note_on_c, 0, 36, 0
2, 12226, Note_on_c, 0, 24, 48
2, 12310, Note_on_c, 0, 36, 50
2, 12318, Note_on_c, 0, 24, 0
2, 12318, Note_on_c, 0, 84, 48
2, 12330, Note_on_c, 0, 79, 55
2, 12330, Note_on_c, 0, 72, 31
2, 12330, Note_on_c, 0, 76, 48
2, 12338, Control_c, 0, 64, 0
2, 12378, Note_on_c, 0, 24, 57
2, 12430, Control_c, 0, 64, 127
2, 12446, Note_on_c, 0, 36, 0
2, 12542, Note_on_c, 0, 84, 0
2, 12546, Note_on_c, 0, 72, 0
2, 12550, Note_on_c, 0, 24, 0
2, 12554, Note_on_c, 0, 76, 0
2, 12574, Note_on_c, 0, 79, 0
2, 12578, Note_on_c, 0, 36, 37
2, 12626, Note_on_c, 0, 36, 0
2, 12626, Note_on_c, 0, 24, 50
2, 12642, Note_on_c, 0, 72, 36
2, 12646, Note_on_c, 0, 84, 45
2, 12658, Note_on_c, 0, 79, 53
2, 12658, Note_on_c, 0, 76, 46
2, 12730, Note_on_c, 0, 24, 0
2, 12734, Note_on_c, 0, 36, 52
2, 12794, Note_on_c, 0, 76, 0
2, 12798, Note_on_c, 0, 72, 0
2, 12798, Note_on_c, 0, 84, 0
2, 12806, Note_on_c, 0, 36, 0
2, 12810, Note_on_c, 0, 24, 52
2, 12818, Note_on_c, 0, 79, 0
2, 12902, Note_on_c, 0, 24, 0
2, 12914, Note_on_c, 0, 36, 54
2, 12930, Note_on_c, 0, 72, 42
2, 12938, Note_on_c, 0, 84, 44
2, 12942, Note_on_c, 0, 76, 56
2, 12942, Note_on_c, 0, 79, 48
2, 12978, Note_on_c, 0, 24, 54
2, 12990, Note_on_c, 0, 36, 0
2, 13058, Note_on_c, 0, 76, 0
2, 13070, Note_on_c, 0, 84, 0
2, 13078, Note_on_c, 0, 72, 0
2, 13090, Note_on_c, 0, 24, 0
2, 13094, Note_on_c, 0, 79, 0
2, 13098, Note_on_c, 0, 36, 51
2, 13162, Note_on_c, 0, 36, 0
2, 13166, Note_on_c, 0, 24, 60
2, 13178, Note_on_c, 0, 72, 46
2, 13186, Note_on_c, 0, 84, 46
2, 13194, Note_on_c, 0, 79, 54
2, 13194, Note_on_c, 0, 76, 53
2, 13270, Note_on_c, 0, 36, 55
2, 13274, Note_on_c, 0, 24, 0
2, 13314, Note_on_c, 0, 76, 0
2, 13338, Note_on_c, 0, 72, 0
2, 13346, Note_on_c, 0, 84, 0
2, 13350, Note_on_c, 0, 79, 0
2, 13354, Note_on_c, 0, 24, 57
2, 13366, Note_on_c, 0, 36, 0
2, 13450, Note_on_c, 0, 72, 54
2, 13462, Note_on_c, 0, 24, 0
2, 13462, Note_on_c, 0, 36, 51
2, 13462, Note_on_c, 0, 76, 63
2, 13470, Note_on_c, 0, 79, 50
2, 13478, Note_on_c, 0, 84, 52
2, 13534, Note_on_c, 0, 24, 49
2, 13554, Note_on_c, 0, 36, 0
2, 13654, Note_on_c, 0, 24, 0
2, 13674, Note_on_c, 0, 36, 39
2, 13690, Note_on_c, 0, 79, 0
2, 13694, Note_on_c, 0, 76, 0
2, 13706, Note_on_c, 0, 72, 0
2, 13718, Note_on_c, 0, 84, 0
2, 13734, Note_on_c, 0, 24, 49
2, 13738, Note_on_c, 0, 36, 0
2, 13858, Note_on_c, 0, 24, 0
2, 13878, Note_on_c, 0, 36, 45
2, 13942, Note_on_c, 0, 36, 0
2, 13950, Note_on_c, 0, 24, 45
2, 14042, Note_on_c, 0, 36, 47
2, 14058, Note_on_c, 0, 24, 0
2, 14134, Note_on_c, 0, 36, 0
2, 14138, Note_on_c, 0, 24, 54
2, 14238, Note_on_c, 0, 24, 0
2, 14498, Note_on_c, 0, 36, 47
2, 14506, Note_on_c, 0, 85, 59
2, 14506, Note_on_c, 0, 73, 61
2, 14514, Note_on_c, 0, 24, 43
2, 14518, Note_on_c, 0, 77, 68
2, 14518, Note_on_c, 0, 80, 61
2, 14582, Note_on_c, 0, 24, 0
2, 14634, Note_on_c, 0, 77, 0
2, 14650, Note_on_c, 0, 36, 0
2, 14662, Note_on_c, 0, 24, 51
2, 14670, Note_on_c, 0, 73, 0
2, 14674, Note_on_c, 0, 80, 0
2, 14706, Note_on_c, 0, 85, 0
2, 14782, Note_on_c, 0, 24, 0
2, 14846, Note_on_c, 0, 78, 66
2, 14846, Note_on_c, 0, 86, 75
2, 14850, Note_on_c, 0, 74, 68
2, 14850, Note_on_c, 0, 24, 51
2, 14858, Note_on_c, 0, 81, 68
2, 14858, Note_on_c, 0, 36, 57
2, 14878, Control_c, 0, 64, 0
2, 14898, Control_c, 0, 64, 127
2, 14962, Note_on_c, 0, 24, 0
2, 15006, Note_on_c, 0, 86, 0
2, 15010, Note_on_c, 0, 81, 0
2, 15030, Note_on_c, 0, 24, 55
2, 15038, Note_on_c, 0, 78, 0
2, 15046, Note_on_c, 0, 36, 0
2, 15050, Note_on_c, 0, 74, 0
2, 15134, Note_on_c, 0, 24, 0
2, 15162, Note_on_c, 0, 36, 47
2, 15202, Note_on_c, 0, 24, 50
2, 15222, Note_on_c, 0, 36, 0
2, 15222, Note_on_c, 0, 70, 59
2, 15226, Note_on_c, 0, 73, 66
2, 15242, Note_on_c, 0, 67, 46
2, 15242, Note_on_c, 0, 79, 71
2, 15250, Note_on_c, 0, 73, 0
2, 15250, Note_on_c, 0, 77, 59
2, 15270, Note_on_c, 0, 77, 0
2, 15274, Note_on_c, 0, 70, 0
2, 15274, Note_on_c, 0, 71, 65
2, 15294, Control_c, 0, 64, 0
2, 15294, Note_on_c, 0, 74, 34
2, 15306, Note_on_c, 0, 36, 47
2, 15334, Control_c, 0, 64, 127
2, 15430, Note_on_c, 0, 36, 0
2, 15486, Note_on_c, 0, 24, 0
2, 15498, Note_on_c, 0, 36, 48
2, 15546, Note_on_c, 0, 24, 57
2, 15558, Note_on_c, 0, 36, 0
2, 15642, Note_on_c, 0, 24, 0
2, 15654, Note_on_c, 0, 36, 41
2, 15714, Note_on_c, 0, 24, 50
2, 15734, Note_on_c, 0, 36, 0
2, 15810, Note_on_c, 0, 24, 0
2, 15834, Note_on_c, 0, 36, 42
2, 15894, Note_on_c, 0, 24, 46
2, 15898, Note_on_c, 0, 36, 0
2, 15974, Note_on_c, 0, 24, 0
2, 16002, Note_on_c, 0, 36, 45
2, 16070, Note_on_c, 0, 24, 51
2, 16074, Note_on_c, 0, 36, 0
2, 16162, Note_on_c, 0, 24, 0
2, 16182, Note_on_c, 0, 36, 42
2, 16254, Note_on_c, 0, 36, 0
2, 16258, Note_on_c, 0, 24, 48
2, 16330, Note_on_c, 0, 24, 0
2, 16354, Note_on_c, 0, 36, 48
2, 16418, Note_on_c, 0, 36, 0
2, 16426, Note_on_c, 0, 24, 57
2, 16506, Note_on_c, 0, 24, 0
2, 16518, Note_on_c, 0, 36, 45
2, 16586, Note_on_c, 0, 36, 0
2, 16586, Note_on_c, 0, 24, 56
2, 16662, Note_on_c, 0, 36, 43
2, 16670, Note_on_c, 0, 24, 0
2, 16730, Note_on_c, 0, 24, 57
2, 16738, Note_on_c, 0, 36, 0
2, 16810, Note_on_c, 0, 36, 48
2, 16814, Note_on_c, 0, 24, 0
2, 16890, Note_on_c, 0, 36, 0
2, 16890, Note_on_c, 0, 24, 57
2, 16950, Note_on_c, 0, 74, 0
2, 16958, Note_on_c, 0, 67, 0
2, 16962, Note_on_c, 0, 36, 52
2, 16970, Note_on_c, 0, 71, 0
2, 16970, Note_on_c, 0, 24, 0
2, 17042, Note_on_c, 0, 24, 63
2, 17054, Note_on_c, 0, 36, 0
2, 17118, Note_on_c, 0, 36, 52
2, 17126, Note_on_c, 0, 24, 0
2, 17174, Note_on_c, 0, 79, 0
2, 17190, Note_on_c, 0, 24, 61
2, 17206, Note_on_c, 0, 36, 0
2, 17286, Note_on_c, 0, 24, 0
2, 17286, Note_on_c, 0, 36, 54
2, 17350, Note_on_c, 0, 24, 61
2, 17366, Note_on_c, 0, 36, 0
2, 17430, Note_on_c, 0, 36, 54
2, 17434, Note_on_c, 0, 24, 0
2, 17498, Note_on_c, 0, 24, 62
2, 17506, Note_on_c, 0, 36, 0
2, 17586, Note_on_c, 0, 36, 48
2, 17590, Note_on_c, 0, 24, 0
2, 17654, Note_on_c, 0, 24, 61
2, 17662, Note_on_c, 0, 36, 0
2, 17746, Note_on_c, 0, 24, 0
2, 17754, Note_on_c, 0, 36, 50
2, 17822, Note_on_c, 0, 24, 55
2, 17830, Note_on_c, 0, 36, 0
2, 17918, Note_on_c, 0, 24, 0
2, 17938, Note_on_c, 0, 36, 50
2, 17970, Note_on_c, 0, 36, 0
2, 17998, Note_on_c, 0, 24, 56
2, 18078, Note_on_c, 0, 24, 0
2, 18086, Note_on_c, 0, 36, 63
2, 18154, Note_on_c, 0, 36, 0
2, 18154, Note_on_c, 0, 24, 68
2, 18234, Note_on_c, 0, 36, 63
2, 18246, Note_on_c, 0, 24, 0
2, 18306, Note_on_c, 0, 24, 75
2, 18314, Note_on_c, 0, 36, 0
2, 18314, Note_on_c, 0, 81, 81
2, 18314, Note_on_c, 0, 73, 74
2, 18318, Note_on_c, 0, 69, 73
2, 18318, Note_on_c, 0, 76, 82
2, 18350, Note_on_c, 0, 36, 63
2, 18398, Note_on_c, 0, 24, 0
2, 18446, Note_on_c, 0, 24, 71
2, 18458, Note_on_c, 0, 36, 0
2, 18546, Note_on_c, 0, 36, 60
2, 18562, Note_on_c, 0, 24, 0
2, 18630, Note_on_c, 0, 24, 77
2, 18642, Note_on_c, 0, 36, 0
2, 18722, Note_on_c, 0, 36, 58
2, 18750, Note_on_c, 0, 24, 0
2, 18810, Note_on_c, 0, 24, 70
2, 18830, Note_on_c, 0, 36, 0
2, 18906, Note_on_c, 0, 36, 60
2, 18922, Note_on_c, 0, 24, 0
2, 18982, Note_on_c, 0, 24, 73
2, 19006, Note_on_c, 0, 36, 0
2, 19034, Note_on_c, 0, 69, 0
2, 19054, Note_on_c, 0, 76, 0
2, 19086, Note_on_c, 0, 36, 63
2, 19094, Note_on_c, 0, 73, 0
2, 19098, Note_on_c, 0, 24, 0
2, 19146, Note_on_c, 0, 81, 0
2, 19162, Note_on_c, 0, 24, 71
2, 19186, Note_on_c, 0, 36, 0
2, 19250, Note_on_c, 0, 36, 56
2, 19266, Note_on_c, 0, 24, 0
2, 19318, Note_on_c, 0, 24, 72
2, 19342, Note_on_c, 0, 36, 0
2, 19410, Note_on_c, 0, 36, 64
2, 19434, Note_on_c, 0, 24, 0
2, 19486, Note_on_c, 0, 24, 78
2, 19494, Note_on_c, 0, 36, 0
2, 19570, Note_on_c, 0, 36, 75
2, 19578, Note_on_c, 0, 84, 81
2, 19586, Note_on_c, 0, 79, 77
2, 19586, Note_on_c, 0, 72, 70
2, 19586, Note_on_c, 0, 76, 77
2, 19602, Note_on_c, 0, 24, 0
2, 19634, Note_on_c, 0, 24, 54
2, 19666, Note_on_c, 0, 36, 0
2, 19726, Note_on_c, 0, 36, 58
2, 19762, Note_on_c, 0, 24, 0
2, 19842, Note_on_c, 0, 24, 56
2, 19866, Note_on_c, 0, 36, 0
2, 19974, Note_on_c, 0, 36, 57
2, 19998, Note_on_c, 0, 24, 0
2, 20058, Note_on_c, 0, 72, 0
2, 20070, Note_on_c, 0, 24, 69
2, 20074, Note_on_c, 0, 36, 0
2, 20098, Note_on_c, 0, 76, 0
2, 20098, Note_on_c, 0, 84, 0
2, 20114, Note_on_c, 0, 79, 0
2, 20170, Note_on_c, 0, 36, 75
2, 20186, Note_on_c, 0, 24, 0
2, 20214, Control_c, 0, 64, 0
2, 20222, Note_on_c, 0, 76, 67
2, 20222, Note_on_c, 0, 84, 72
2, 20222, Note_on_c, 0, 72, 66
2, 20222, Note_on_c, 0, 24, 86
2, 20222, Note_on_c, 0, 79, 65
2, 20262, Note_on_c, 0, 36, 0
2, 20282, Control_c, 0, 64, 127
2, 20326, Note_on_c, 0, 36, 57
2, 20366, Note_on_c, 0, 84, 0
2, 20394, Note_on_c, 0, 24, 0
2, 20410, Note_on_c, 0, 79, 0
2, 20422, Note_on_c, 0, 76, 0
2, 20446, Note_on_c, 0, 72, 0
2, 20462, Note_on_c, 0, 24, 51
2, 20474, Note_on_c, 0, 36, 0
2, 20590, Note_on_c, 0, 36, 48
2, 20614, Note_on_c, 0, 24, 0
2, 20682, Note_on_c, 0, 36, 0
2, 20694, Note_on_c, 0, 24, 64
2, 20730, Note_on_c, 0, 72, 66
2, 20730, Note_on_c, 0, 69, 66
2, 20730, Note_on_c, 0, 77, 74
2, 20742, Note_on_c, 0, 65, 63
2, 20758, Note_on_c, 0, 36, 59
2, 20762, Control_c, 0, 64, 0
2, 20886, Note_on_c, 0, 24, 0
2, 20890, Control_c, 0, 64, 127
2, 20918, Note_on_c, 0, 24, 42
2, 20942, Note_on_c, 0, 36, 0
2, 21014, Note_on_c, 0, 36, 37
2, 21034, Note_on_c, 0, 24, 0
2, 21106, Note_on_c, 0, 24, 45
2, 21130, Note_on_c, 0, 36, 0
2, 21250, Note_on_c, 0, 24, 0
2, 21250, Note_on_c, 0, 36, 37
2, 21326, Note_on_c, 0, 24, 38
2, 21334, Note_on_c, 0, 36, 0
2, 21342, Note_on_c, 0, 69, 0
2, 21370, Note_on_c, 0, 65, 0
2, 21398, Note_on_c, 0, 72, 0
2, 21470, Note_on_c, 0, 24, 0
2, 21474, Note_on_c, 0, 36, 38
2, 21550, Note_on_c, 0, 24, 42
2, 21558, Note_on_c, 0, 36, 0
2, 21682, Note_on_c, 0, 24, 0
2, 21690, Note_on_c, 0, 36, 33
2, 21774, Note_on_c, 0, 36, 0
2, 21786, Note_on_c, 0, 24, 46
2, 21902, Note_on_c, 0, 24, 0
2, 21902, Note_on_c, 0, 36, 35
2, 21978, Note_on_c, 0, 24, 39
2, 21990, Note_on_c, 0, 36, 0
2, 22114, Note_on_c, 0, 36, 38
2, 22118, Note_on_c, 0, 24, 0
2, 22194, Note_on_c, 0, 24, 41
2, 22202, Note_on_c, 0, 36, 0
2, 22214, Note_on_c, 0, 65, 19
2, 22214, Note_on_c, 0, 69, 34
2, 22214, Note_on_c, 0, 72, 20
2, 22326, Note_on_c, 0, 36, 34
2, 22334, Note_on_c, 0, 24, 0
2, 22414, Note_on_c, 0, 24, 43
2, 22434, Note_on_c, 0, 36, 0
2, 22610, Note_on_c, 0, 36, 36
2, 22994, Note_on_c, 0, 24, 0
2, 23094, Note_on_c, 0, 77, 0
2, 23094, Note_on_c, 0, 36, 0
2, 23178, Note_on_c, 0, 72, 0
2, 23194, Note_on_c, 0, 69, 0
2, 23210, Note_on_c, 0, 65, 0
2, 23770, Note_on_c, 0, 59, 73
2, 23778, Note_on_c, 0, 58, 58
2, 23974, Note_on_c, 0, 59, 0
2, 23994, Note_on_c, 0, 60, 81
2, 24002, Control_c, 0, 64, 0
2, 24006, Note_on_c, 0, 57, 64
2, 24030, Note_on_c, 0, 58, 0
2, 24038, Control_c, 0, 64, 127
2, 24242, Control_c, 0, 64, 0
2, 24242, Note_on_c, 0, 64, 73
2, 24254, Note_on_c, 0, 57, 0
2, 24262, Note_on_c, 0, 56, 57
2, 24274, Note_on_c, 0, 60, 0
2, 24302, Control_c, 0, 64, 127
2, 24534, Note_on_c, 0, 56, 0
2, 24542, Note_on_c, 0, 55, 52
2, 24542, Note_on_c, 0, 67, 58
2, 24554, Control_c, 0, 64, 0
2, 24602, Note_on_c, 0, 64, 0
2, 24602, Control_c, 0, 64, 127
2, 24722, Note_on_c, 0, 67, 0
2, 24910, Note_on_c, 0, 63, 54
2, 24914, Note_on_c, 0, 68, 52
2, 24918, Note_on_c, 0, 55, 0
2, 24926, Note_on_c, 0, 54, 46
2, 24938, Control_c, 0, 64, 88
2, 24942, Control_c, 0, 64, 0
2, 24950, Note_on_c, 0, 59, 24
2, 25030, Control_c, 0, 64, 127
2, 25046, Note_on_c, 0, 59, 0
2, 25206, Note_on_c, 0, 68, 0
2, 25258, Note_on_c, 0, 63, 0
2, 25326, Note_on_c, 0, 54, 0
2, 25334, Note_on_c, 0, 64, 46
2, 25338, Note_on_c, 0, 69, 54
2, 25350, Note_on_c, 0, 53, 45
2, 25354, Control_c, 0, 64, 0
2, 25426, Control_c, 0, 64, 127
2, 25770, Note_on_c, 0, 53, 0
2, 25786, Note_on_c, 0, 43, 50
2, 25794, Control_c, 0, 64, 0
2, 25806, Note_on_c, 0, 69, 0
2, 25818, Note_on_c, 0, 64, 0
2, 25822, Control_c, 0, 64, 127
2, 25822, Control_c, 0, 64, 40
2, 25962, Note_on_c, 0, 43, 0
2, 26326, Note_on_c, 0, 59, 42
2, 26330, Control_c, 0, 64, 0
2, 26330, Note_on_c, 0, 68, 42
2, 26338, Note_on_c, 0, 71, 38
2, 26338, Note_on_c, 0, 62, 35
2, 26338, Note_on_c, 0, 65, 44
2, 26342, Note_on_c, 0, 53, 38
2, 26390, Control_c, 0, 64, 127
2, 26562, Note_on_c, 0, 65, 0
2, 26574, Note_on_c, 0, 59, 0
2, 26578, Note_on_c, 0, 71, 0
2, 26582, Note_on_c, 0, 62, 0
2, 26594, Note_on_c, 0, 53, 0
2, 26622, Note_on_c, 0, 68, 0
2, 26966, Note_on_c, 0, 67, 45
2, 26970, Note_on_c, 0, 72, 38
2, 26970, Note_on_c, 0, 57, 35
2, 26970, Control_c, 0, 64, 0
2, 26970, Note_on_c, 0, 62, 36
2, 26998, Note_on_c, 0, 52, 38
2, 27078, Control_c, 0, 64, 127
2, 27366, Note_on_c, 0, 57, 0
2, 27406, Note_on_c, 0, 52, 0
2, 28610, Note_on_c, 0, 24, 28
2, 29202, Note_on_c, 0, 24, 0
2, 29222, Note_on_c, 0, 36, 1
2, 29350, Note_on_c, 0, 36, 0
2, 29362, Note_on_c, 0, 24, 38
2, 29550, Note_on_c, 0, 24, 0
2, 29586, Note_on_c, 0, 36, 25
2, 29726, Note_on_c, 0, 36, 0
2, 29746, Note_on_c, 0, 24, 36
2, 29894, Note_on_c, 0, 24, 0
2, 29914, Note_on_c, 0, 36, 35
2, 29946, Note_on_c, 0, 62, 0
2, 29986, Note_on_c, 0, 72, 0
2, 30006, Note_on_c, 0, 67, 0
2, 30018, Note_on_c, 0, 36, 0
2, 30038, Note_on_c, 0, 24, 37
2, 30150, Note_on_c, 0, 24, 0
2, 30170, Note_on_c, 0, 36, 41
2, 30246, Note_on_c, 0, 36, 0
2, 30266, Note_on_c, 0, 24, 45
2, 30346, Note_on_c, 0, 24, 0
2, 30374, Note_on_c, 0, 36, 39
2, 30430, Note_on_c, 0, 36, 0
2, 30470, Note_on_c, 0, 24, 40
2, 30546, Note_on_c, 0, 24, 0
2, 30574, Note_on_c, 0, 36, 31
2, 30614, Note_on_c, 0, 36, 0
2, 30634, Note_on_c, 0, 24, 46
2, 30710, Note_on_c, 0, 24, 0
2, 30742, Note_on_c, 0, 36, 36
2, 30778, Note_on_c, 0, 36, 0
2, 30798, Note_on_c, 0, 24, 48
2, 30870, Note_on_c, 0, 24, 0
2, 30898, Note_on_c, 0, 36, 40
2, 30930, Note_on_c, 0, 36, 0
2, 30954, Note_on_c, 0, 24, 49
2, 31026, Note_on_c, 0, 24, 0
2, 31046, Note_on_c, 0, 36, 45
2, 31078, Note_on_c, 0, 36, 0
2, 31122, Note_on_c, 0, 24, 46
2, 31174, Note_on_c, 0, 24, 0
2, 31214, Note_on_c, 0, 36, 36
2, 31254, Note_on_c, 0, 36, 0
2, 31290, Note_on_c, 0, 24, 49
2, 31346, Note_on_c, 0, 24, 0
2, 31454, Note_on_c, 0, 24, 49
2, 31534, Note_on_c, 0, 24, 0
2, 31562, Note_on_c, 0, 36, 38
2, 31606, Note_on_c, 0, 36, 0
2, 31638, Note_on_c, 0, 24, 48
2, 31710, Note_on_c, 0, 24, 0
2, 31710, Note_on_c, 0, 84, 62
2, 31722, Note_on_c, 0, 36, 51
2, 31722, Note_on_c, 0, 79, 71
2, 31734, Note_on_c, 0, 76, 60
2, 31766, Note_on_c, 0, 72, 44
2, 31786, Note_on_c, 0, 24, 54
2, 31798, Note_on_c, 0, 36, 0
2, 31902, Note_on_c, 0, 36, 55
2, 31906, Note_on_c, 0, 24, 0
2, 31978, Note_on_c, 0, 36, 0
2, 31982, Note_on_c, 0, 24, 50
2, 32090, Note_on_c, 0, 24, 0
2, 32094, Note_on_c, 0, 36, 50
2, 32190, Note_on_c, 0, 36, 0
2, 32194, Note_on_c, 0, 24, 59
2, 32294, Note_on_c, 0, 24, 0
2, 32298, Note_on_c, 0, 36, 50
2, 32382, Note_on_c, 0, 36, 0
2, 32390, Note_on_c, 0, 24, 61
2, 32490, Note_on_c, 0, 24, 0
2, 32490, Note_on_c, 0, 36, 56
2, 32566, Note_on_c, 0, 36, 0
2, 32570, Note_on_c, 0, 24, 59
2, 32642, Note_on_c, 0, 24, 0
2, 32654, Note_on_c, 0, 36, 46
2, 32686, Note_on_c, 0, 76, 0
2, 32706, Note_on_c, 0, 72, 0
2, 32722, Note_on_c, 0, 79, 0
2, 32730, Note_on_c, 0, 24, 55
2, 32734, Note_on_c, 0, 36, 0
2, 32766, Note_on_c, 0, 84, 0
2, 32818, Note_on_c, 0, 24, 0
2, 32830, Note_on_c, 0, 36, 52
2, 32906, Note_on_c, 0, 36, 0
2, 32906, Note_on_c, 0, 24, 66
2, 32990, Note_on_c, 0, 24, 0
2, 32994, Note_on_c, 0, 36, 56
2, 33026, Note_on_c, 0, 86, 80
2, 33042, Note_on_c, 0, 78, 68
2, 33042, Note_on_c, 0, 81, 68
2, 33054, Note_on_c, 0, 74, 61
2, 33058, Note_on_c, 0, 24, 68
2, 33070, Note_on_c, 0, 36, 0
2, 33146, Note_on_c, 0, 36, 49
2, 33162, Note_on_c, 0, 24, 0
2, 33262, Note_on_c, 0, 36, 0
2, 33262, Note_on_c, 0, 24, 68
2, 33274, Note_on_c, 0, 74, 0
2, 33286, Note_on_c, 0, 86, 0
2, 33294, Note_on_c, 0, 78, 0
2, 33298, Note_on_c, 0, 81, 0
2, 33358, Note_on_c, 0, 24, 0
2, 33362, Note_on_c, 0, 36, 68
2, 33394, Note_on_c, 0, 86, 79
2, 33406, Note_on_c, 0, 81, 75
2, 33406, Note_on_c, 0, 78, 80
2, 33418, Note_on_c, 0, 24, 68
2, 33418, Note_on_c, 0, 74, 72
2, 33442, Note_on_c, 0, 36, 0
2, 33498, Note_on_c, 0, 86, 0
2, 33502, Note_on_c, 0, 81, 0
2, 33522, Note_on_c, 0, 36, 43
2, 33526, Note_on_c, 0, 78, 0
2, 33526, Note_on_c, 0, 24, 0
2, 33550, Note_on_c, 0, 74, 0
2, 33610, Note_on_c, 0, 24, 62
2, 33622, Note_on_c, 0, 36, 0
2, 33722, Note_on_c, 0, 24, 0
2, 33730, Note_on_c, 0, 36, 56
2, 33746, Note_on_c, 0, 79, 74
2, 33758, Note_on_c, 0, 74, 61
2, 33758, Note_on_c, 0, 71, 63
2, 33758, Note_on_c, 0, 67, 56
2, 33778, Note_on_c, 0, 24, 68
2, 33814, Note_on_c, 0, 36, 0
2, 33882, Note_on_c, 0, 36, 52
2, 33890, Note_on_c, 0, 24, 0
2, 33954, Note_on_c, 0, 24, 57
2, 33978, Note_on_c, 0, 36, 0
2, 34070, Note_on_c, 0, 24, 0
2, 34070, Note_on_c, 0, 36, 47
2, 34146, Note_on_c, 0, 24, 58
2, 34162, Note_on_c, 0, 36, 0
2, 34262, Note_on_c, 0, 24, 0
2, 34270, Note_on_c, 0, 36, 43
2, 34342, Note_on_c, 0, 24, 54
2, 34346, Note_on_c, 0, 36, 0
2, 34454, Note_on_c, 0, 24, 0
2, 34466, Note_on_c, 0, 36, 45
2, 34530, Note_on_c, 0, 24, 54
2, 34538, Note_on_c, 0, 36, 0
2, 34598, Note_on_c, 0, 67, 0
2, 34610, Note_on_c, 0, 71, 0
2, 34634, Note_on_c, 0, 74, 0
2, 34642, Note_on_c, 0, 24, 0
2, 34654, Note_on_c, 0, 36, 46
2, 34722, Note_on_c, 0, 24, 47
2, 34726, Note_on_c, 0, 79, 0
2, 34730, Note_on_c, 0, 36, 0
2, 34834, Note_on_c, 0, 24, 0
2, 34854, Note_on_c, 0, 36, 39
2, 34926, Note_on_c, 0, 36, 0
2, 34934, Note_on_c, 0, 24, 50
2, 35018, Note_on_c, 0, 24, 0
2, 35042, Note_on_c, 0, 36, 46
2, 35086, Note_on_c, 0, 36, 0
2, 35110, Note_on_c, 0, 24, 58
2, 35166, Note_on_c, 0, 84, 63
2, 35186, Note_on_c, 0, 79, 63
2, 35194, Note_on_c, 0, 36, 58
2, 35194, Note_on_c, 0, 76, 57
2, 35206, Note_on_c, 0, 24, 0
2, 35210, Note_on_c, 0, 72, 57
2, 35254, Note_on_c, 0, 24, 39
2, 35298, Note_on_c, 0, 36, 0
2, 35354, Note_on_c, 0, 84, 0
2, 35362, Note_on_c, 0, 24, 0
2, 35374, Note_on_c, 0, 36, 48
2, 35382, Note_on_c, 0, 76, 0
2, 35382, Note_on_c, 0, 72, 0
2, 35402, Note_on_c, 0, 79, 0
2, 35438, Note_on_c, 0, 24, 63
2, 35442, Note_on_c, 0, 84, 67
2, 35446, Note_on_c, 0, 36, 0
2, 35458, Note_on_c, 0, 79, 75
2, 35466, Note_on_c, 0, 76, 66
2, 35486, Note_on_c, 0, 72, 59
2, 35534, Note_on_c, 0, 36, 52
2, 35550, Note_on_c, 0, 24, 0
2, 35582, Note_on_c, 0, 84, 0
2, 35594, Note_on_c, 0, 76, 0
2, 35606, Note_on_c, 0, 72, 0
2, 35610, Note_on_c, 0, 79, 0
2, 35622, Note_on_c, 0, 24, 60
2, 35626, Note_on_c, 0, 36, 0
2, 35662, Note_on_c, 0, 84, 73
2, 35674, Note_on_c, 0, 79, 65
2, 35686, Note_on_c, 0, 76, 69
2, 35698, Note_on_c, 0, 72, 60
2, 35714, Note_on_c, 0, 36, 54
2, 35738, Note_on_c, 0, 24, 0
2, 35790, Note_on_c, 0, 84, 0
2, 35806, Note_on_c, 0, 76, 0
2, 35814, Note_on_c, 0, 79, 0
2, 35818, Note_on_c, 0, 72, 0
2, 35826, Note_on_c, 0, 36, 0
2, 35826, Note_on_c, 0, 24, 67
2, 35886, Note_on_c, 0, 84, 72
2, 35902, Note_on_c, 0, 76, 71
2, 35910, Note_on_c, 0, 79, 53
2, 35918, Note_on_c, 0, 36, 52
2, 35926, Note_on_c, 0, 72, 54
2, 35934, Note_on_c, 0, 79, 0
2, 35938, Note_on_c, 0, 24, 0
2, 35970, Note_on_c, 0, 84, 0
2, 35970, Note_on_c, 0, 76, 0
2, 35994, Note_on_c, 0, 72, 0
2, 36066, Note_on_c, 0, 36, 0
2, 36078, Note_on_c, 0, 24, 56
2, 36134, Note_on_c, 0, 80, 66
2, 36134, Note_on_c, 0, 36, 49
2, 36134, Note_on_c, 0, 85, 60
2, 36134, Note_on_c, 0, 73, 61
2, 36134, Note_on_c, 0, 77, 63
2, 36202, Note_on_c, 0, 24, 0
2, 36206, Note_on_c, 0, 77, 0
2, 36234, Note_on_c, 0, 73, 0
2, 36246, Note_on_c, 0, 80, 0
2, 36262, Note_on_c, 0, 85, 0
2, 36286, Note_on_c, 0, 36, 0
2, 36286, Note_on_c, 0, 24, 41
2, 36366, Control_c, 0, 64, 0
2, 36378, Note_on_c, 0, 86, 68
2, 36378, Note_on_c, 0, 74, 64
2, 36378, Note_on_c, 0, 78, 66
2, 36386, Note_on_c, 0, 36, 58
2, 36394, Control_c, 0, 64, 127
2, 36398, Note_on_c, 0, 81, 60
2, 36402, Note_on_c, 0, 84, 46
2, 36410, Note_on_c, 0, 82, 38
2, 36450, Note_on_c, 0, 82, 0
2, 36454, Note_on_c, 0, 24, 0
2, 36478, Note_on_c, 0, 81, 0
2, 36482, Note_on_c, 0, 86, 0
2, 36490, Note_on_c, 0, 84, 0
2, 36506, Note_on_c, 0, 78, 0
2, 36518, Note_on_c, 0, 74, 0
2, 36542, Note_on_c, 0, 24, 55
2, 36562, Note_on_c, 0, 36, 0
2, 36654, Note_on_c, 0, 24, 0
2, 36658, Note_on_c, 0, 36, 57
2, 36682, Note_on_c, 0, 79, 66
2, 36682, Note_on_c, 0, 67, 56
2, 36694, Note_on_c, 0, 71, 56
2, 36694, Note_on_c, 0, 74, 57
2, 36706, Control_c, 0, 64, 0
2, 36714, Note_on_c, 0, 24, 59
2, 36738, Control_c, 0, 64, 127
2, 36746, Note_on_c, 0, 36, 0
2, 36822, Note_on_c, 0, 24, 0
2, 36830, Note_on_c, 0, 36, 43
2, 36890, Note_on_c, 0, 24, 49
2, 36902, Note_on_c, 0, 36, 0
2, 36982, Note_on_c, 0, 24, 0
2, 36998, Note_on_c, 0, 36, 52
2, 37066, Note_on_c, 0, 24, 55
2, 37074, Note_on_c, 0, 36, 0
2, 37158, Note_on_c, 0, 24, 0
2, 37166, Note_on_c, 0, 36, 52
2, 37242, Note_on_c, 0, 36, 0
2, 37246, Note_on_c, 0, 24, 68
2, 37338, Note_on_c, 0, 36, 57
2, 37346, Note_on_c, 0, 24, 0
2, 37422, Note_on_c, 0, 24, 65
2, 37434, Note_on_c, 0, 36, 0
2, 37514, Note_on_c, 0, 36, 62
2, 37518, Note_on_c, 0, 24, 0
2, 37594, Note_on_c, 0, 24, 72
2, 37622, Note_on_c, 0, 36, 0
2, 37682, Note_on_c, 0, 36, 65
2, 37690, Note_on_c, 0, 24, 0
2, 37722, Note_on_c, 0, 79, 0
2, 37758, Note_on_c, 0, 74, 0
2, 37762, Note_on_c, 0, 71, 0
2, 37766, Note_on_c, 0, 24, 68
2, 37790, Note_on_c, 0, 36, 0
2, 37838, Note_on_c, 0, 67, 0
2, 37846, Note_on_c, 0, 36, 58
2, 37858, Note_on_c, 0, 24, 0
2, 37934, Note_on_c, 0, 24, 56
2, 37954, Note_on_c, 0, 36, 0
2, 38034, Note_on_c, 0, 24, 0
2, 38034, Note_on_c, 0, 36, 52
2, 38114, Note_on_c, 0, 24, 54
2, 38130, Note_on_c, 0, 36, 0
2, 38222, Note_on_c, 0, 24, 0
2, 38230, Note_on_c, 0, 36, 48
2, 38298, Note_on_c, 0, 24, 53
2, 38322, Note_on_c, 0, 36, 0
2, 38406, Note_on_c, 0, 24, 0
2, 38430, Note_on_c, 0, 36, 46
2, 38510, Note_on_c, 0, 24, 41
2, 38522, Note_on_c, 0, 36, 0
2, 38642, Note_on_c, 0, 24, 0
2, 38678, Note_on_c, 0, 36, 34
2, 38770, Note_on_c, 0, 36, 0
2, 38922, Note_on_c, 0, 24, 57
2, 39010, Note_on_c, 0, 24, 0
2, 39034, Note_on_c, 0, 36, 55
2, 39098, Note_on_c, 0, 24, 63
2, 39106, Note_on_c, 0, 36, 0
2, 39114, Note_on_c, 0, 81, 68
2, 39114, Note_on_c, 0, 73, 62
2, 39122, Note_on_c, 0, 69, 61
2, 39126, Note_on_c, 0, 76, 69
2, 39138, Control_c, 0, 64, 0
2, 39170, Note_on_c, 0, 36, 55
2, 39210, Control_c, 0, 64, 127
2, 39222, Note_on_c, 0, 24, 0
2, 39326, Note_on_c, 0, 24, 67
2, 39334, Note_on_c, 0, 36, 0
2, 39418, Note_on_c, 0, 36, 52
2, 39430, Note_on_c, 0, 24, 0
2, 39506, Note_on_c, 0, 24, 54
2, 39526, Note_on_c, 0, 36, 0
2, 39610, Note_on_c, 0, 24, 0
2, 39614, Note_on_c, 0, 36, 55
2, 39694, Note_on_c, 0, 24, 57
2, 39698, Note_on_c, 0, 69, 0
2, 39710, Note_on_c, 0, 36, 0
2, 39714, Note_on_c, 0, 76, 0
2, 39758, Note_on_c, 0, 73, 0
2, 39790, Note_on_c, 0, 81, 0
2, 39790, Note_on_c, 0, 24, 0
2, 39790, Note_on_c, 0, 36, 53
2, 39874, Note_on_c, 0, 24, 63
2, 39886, Note_on_c, 0, 36, 0
2, 39962, Note_on_c, 0, 24, 0
2, 39962, Note_on_c, 0, 36, 49
2, 40030, Note_on_c, 0, 24, 63
2, 40042, Note_on_c, 0, 36, 0
2, 40106, Note_on_c, 0, 36, 64
2, 40118, Note_on_c, 0, 24, 0
2, 40182, Note_on_c, 0, 24, 74
2, 40198, Note_on_c, 0, 36, 0
2, 40254, Note_on_c, 0, 36, 69
2, 40274, Note_on_c, 0, 24, 0
2, 40274, Note_on_c, 0, 84, 81
2, 40282, Note_on_c, 0, 76, 79
2, 40282, Note_on_c, 0, 72, 74
2, 40282, Note_on_c, 0, 79, 76
2, 40322, Note_on_c, 0, 24, 74
2, 40350, Note_on_c, 0, 36, 0
2, 40418, Note_on_c, 0, 36, 54
2, 40438, Note_on_c, 0, 24, 0
2, 40518, Note_on_c, 0, 24, 79
2, 40550, Note_on_c, 0, 36, 0
2, 40642, Note_on_c, 0, 36, 58
2, 40646, Note_on_c, 0, 24, 0
2, 40702, Note_on_c, 0, 24, 72
2, 40738, Note_on_c, 0, 72, 0
2, 40738, Note_on_c, 0, 36, 0
2, 40746, Note_on_c, 0, 76, 0
2, 40754, Note_on_c, 0, 84, 0
2, 40762, Note_on_c, 0, 79, 0
2, 40834, Note_on_c, 0, 36, 75
2, 40850, Note_on_c, 0, 24, 0
2, 40874, Note_on_c, 0, 84, 75
2, 40874, Note_on_c, 0, 76, 79
2, 40874, Note_on_c, 0, 79, 75
2, 40874, Note_on_c, 0, 72, 75
2, 40894, Note_on_c, 0, 24, 82
2, 40926, Note_on_c, 0, 36, 0
2, 40998, Note_on_c, 0, 84, 0
2, 41006, Note_on_c, 0, 36, 52
2, 41026, Note_on_c, 0, 24, 0
2, 41034, Note_on_c, 0, 79, 0
2, 41046, Note_on_c, 0, 76, 0
2, 41074, Note_on_c, 0, 72, 0
2, 41090, Note_on_c, 0, 24, 66
2, 41118, Note_on_c, 0, 36, 0
2, 41210, Note_on_c, 0, 24, 0
2, 41210, Note_on_c, 0, 36, 57
2, 41282, Note_on_c, 0, 36, 0
2, 41282, Note_on_c, 0, 24, 64
2, 41354, Note_on_c, 0, 77, 75
2, 41358, Note_on_c, 0, 69, 75
2, 41358, Note_on_c, 0, 72, 70
2, 41366, Note_on_c, 0, 65, 72
2, 41366, Note_on_c, 0, 36, 68
2, 41402, Control_c, 0, 64, 0
2, 41458, Control_c, 0, 64, 127
2, 41510, Note_on_c, 0, 24, 0
2, 41566, Note_on_c, 0, 24, 68
2, 41594, Note_on_c, 0, 36, 0
2, 41686, Note_on_c, 0, 24, 0
2, 41686, Note_on_c, 0, 36, 41
2, 41758, Note_on_c, 0, 24, 46
2, 41790, Note_on_c, 0, 36, 0
2, 41890, Note_on_c, 0, 36, 39
2, 41898, Note_on_c, 0, 24, 0
2, 41974, Note_on_c, 0, 24, 46
2, 42002, Note_on_c, 0, 36, 0
2, 42118, Note_on_c, 0, 24, 0
2, 42122, Note_on_c, 0, 36, 37
2, 42194, Note_on_c, 0, 24, 45
2, 42210, Note_on_c, 0, 36, 0
2, 42334, Note_on_c, 0, 36, 36
2, 42370, Note_on_c, 0, 24, 0
2, 42458, Note_on_c, 0, 24, 46
2, 42462, Note_on_c, 0, 36, 0
2, 42630, Note_on_c, 0, 36, 36
2, 42734, Note_on_c, 0, 65, 0
2, 42830, Note_on_c, 0, 77, 0
2, 42838, Note_on_c, 0, 24, 0
2, 42850, Note_on_c, 0, 69, 0
2, 42858, Note_on_c, 0, 72, 0
2, 42890, Note_on_c, 0, 36, 0
2, 44298, Control_c, 0, 64, 0
2, 44306, Note_on_c, 0, 71, 57
2, 44310, Note_on_c, 0, 62, 54
2, 44310, Note_on_c, 0, 68, 55
2, 44314, Note_on_c, 0, 56, 45
2, 44322, Note_on_c, 0, 65, 48
2, 44342, Control_c, 0, 64, 127
2, 44394, Note_on_c, 0, 71, 0
2, 44402, Note_on_c, 0, 65, 0
2, 44438, Note_on_c, 0, 62, 0
2, 44474, Note_on_c, 0, 68, 0
2, 44546, Control_c, 0, 64, 0
2, 44558, Note_on_c, 0, 56, 0
2, 44570, Note_on_c, 0, 72, 68
2, 44578, Note_on_c, 0, 67, 63
2, 44578, Note_on_c, 0, 64, 57
2, 44590, Note_on_c, 0, 57, 56
2, 44618, Control_c, 0, 64, 127
2, 44666, Note_on_c, 0, 64, 0
2, 44698, Note_on_c, 0, 72, 0
2, 44714, Note_on_c, 0, 67, 0
2, 44806, Control_c, 0, 64, 0
2, 44810, Note_on_c, 0, 76, 75
2, 44814, Note_on_c, 0, 67, 66
2, 44814, Note_on_c, 0, 69, 57
2, 44818, Note_on_c, 0, 57, 0
2, 44818, Note_on_c, 0, 60, 56
2, 44826, Note_on_c, 0, 72, 53
2, 44830, Control_c, 0, 64, 127
2, 44882, Note_on_c, 0, 67, 0
2, 44902, Note_on_c, 0, 69, 0
2, 44902, Note_on_c, 0, 72, 0
2, 44918, Note_on_c, 0, 76, 0
2, 44982, Note_on_c, 0, 60, 0
2, 45114, Note_on_c, 0, 79, 58
2, 45118, Note_on_c, 0, 72, 57
2, 45118, Note_on_c, 0, 76, 56
2, 45122, Note_on_c, 0, 69, 39
2, 45122, Note_on_c, 0, 64, 50
2, 45190, Note_on_c, 0, 64, 0
2, 45214, Note_on_c, 0, 69, 0
2, 45226, Note_on_c, 0, 72, 0
2, 45238, Note_on_c, 0, 76, 0
2, 45246, Note_on_c, 0, 79, 0
2, 45442, Control_c, 0, 64, 40
2, 45442, Control_c, 0, 64, 0
2, 45454, Note_on_c, 0, 80, 63
2, 45462, Note_on_c, 0, 71, 42
2, 45462, Note_on_c, 0, 74, 60
2, 45474, Note_on_c, 0, 53, 39
2, 45478, Note_on_c, 0, 64, 34
2, 45478, Note_on_c, 0, 59, 43
2, 45518, Control_c, 0, 64, 127
2, 45582, Note_on_c, 0, 64, 0
2, 45594, Note_on_c, 0, 59, 0
2, 45622, Note_on_c, 0, 53, 0
2, 45726, Note_on_c, 0, 80, 0
2, 45850, Note_on_c, 0, 71, 0
2, 45894, Note_on_c, 0, 81, 63
2, 45918, Note_on_c, 0, 43, 42
2, 45922, Control_c, 0, 64, 0
2, 45958, Control_c, 0, 64, 127
2, 46142, Note_on_c, 0, 81, 0
2, 46278, Note_on_c, 0, 74, 0
2, 46326, Note_on_c, 0, 43, 0
2, 46890, Control_c, 0, 64, 0
2, 46926, Note_on_c, 0, 68, 47
2, 46930, Note_on_c, 0, 64, 31
2, 46934, Note_on_c, 0, 71, 42
2, 46934, Note_on_c, 0, 59, 36
2, 46942, Control_c, 0, 64, 127
2, 46950, Note_on_c, 0, 53, 39
2, 47050, Note_on_c, 0, 59, 0
2, 47066, Note_on_c, 0, 64, 0
2, 47066, Note_on_c, 0, 53, 0
2, 47114, Note_on_c, 0, 71, 0
2, 47126, Note_on_c, 0, 68, 0
2, 47230, Control_c, 0, 64, 0
2, 47238, Note_on_c, 0, 72, 42
2, 47238, Note_on_c, 0, 62, 36
2, 47238, Note_on_c, 0, 67, 45
2, 47250, Note_on_c, 0, 57, 32
2, 47258, Note_on_c, 0, 52, 33
2, 47318, Control_c, 0, 64, 127
2, 47414, Note_on_c, 0, 62, 0
2, 47454, Note_on_c, 0, 67, 0
2, 47478, Note_on_c, 0, 72, 0
2, 47634, Note_on_c, 0, 84, 72
2, 47958, Note_on_c, 0, 84, 0
2, 48022, Note_on_c, 0, 84, 55
2, 48330, Note_on_c, 0, 72, 46
2, 48574, Note_on_c, 0, 72, 0
2, 48678, Note_on_c, 0, 84, 0
2, 48726, Note_on_c, 0, 72, 38
2, 48998, Note_on_c, 0, 57, 0
2, 49106, Note_on_c, 0, 52, 0
2, 49110, Note_on_c, 0, 84, 51
2, 49434, Note_on_c, 0, 84, 0
2, 49578, Note_on_c, 0, 84, 46
2, 49606, Note_on_c, 0, 72, 0
2, 50038, Note_on_c, 0, 84, 0
2, 50046, Note_on_c, 0, 72, 36
2, 50414, Note_on_c, 0, 72, 0
2, 50574, Note_on_c, 0, 58, 38
2, 50578, Note_on_c, 0, 68, 31
2, 50582, Note_on_c, 0, 72, 47
2, 50582, Control_c, 0, 64, 0
2, 50610, Note_on_c, 0, 63, 36
2, 50630, Note_on_c, 0, 60, 31
2, 50662, Control_c, 0, 64, 127
2, 50850, Note_on_c, 0, 80, 66
2, 51058, Note_on_c, 0, 80, 0
2, 51134, Note_on_c, 0, 80, 66
2, 51298, Note_on_c, 0, 80, 0
2, 51366, Note_on_c, 0, 68, 0
2, 51398, Note_on_c, 0, 63, 0
2, 51402, Note_on_c, 0, 58, 0
2, 51410, Note_on_c, 0, 80, 60
2, 51418, Note_on_c, 0, 60, 0
2, 51454, Note_on_c, 0, 72, 0
2, 51486, Note_on_c, 0, 80, 0
2, 51922, Note_on_c, 0, 79, 66
2, 51938, Note_on_c, 0, 46, 41
2, 51942, Note_on_c, 0, 71, 48
2, 51946, Note_on_c, 0, 67, 36
2, 51958, Note_on_c, 0, 56, 35
2, 51974, Control_c, 0, 64, 0
2, 52042, Control_c, 0, 64, 127
2, 52222, Note_on_c, 0, 56, 0
2, 52270, Note_on_c, 0, 53, 38
2, 52318, Note_on_c, 0, 67, 0
2, 52398, Note_on_c, 0, 71, 0
2, 52702, Note_on_c, 0, 67, 40
2, 52702, Note_on_c, 0, 56, 39
2, 52754, Note_on_c, 0, 79, 0
2, 52862, Note_on_c, 0, 67, 0
2, 52946, Note_on_c, 0, 56, 0
2, 52990, Note_on_c, 0, 53, 0
2, 53086, Note_on_c, 0, 46, 0
2, 54270, Note_on_c, 0, 60, 59
2, 54274, Note_on_c, 0, 49, 42
2, 54290, Control_c, 0, 64, 0
2, 54314, Note_on_c, 0, 49, 0
2, 54314, Control_c, 0, 64, 127
2, 54458, Note_on_c, 0, 60, 0
2, 54606, Note_on_c, 0, 36, 39
2, 54638, Control_c, 0, 64, 0
2, 54646, Note_on_c, 0, 55, 40
2, 54650, Note_on_c, 0, 64, 45
2, 54654, Note_on_c, 0, 59, 44
2, 54662, Note_on_c, 0, 43, 38
2, 54674, Note_on_c, 0, 52, 35
2, 54698, Control_c, 0, 64, 127
2, 54770, Note_on_c, 0, 36, 0
2, 54774, Note_on_c, 0, 43, 0
2, 54774, Note_on_c, 0, 55, 0
2, 54806, Note_on_c, 0, 59, 0
2, 54806, Note_on_c, 0, 64, 0
2, 54826, Note_on_c, 0, 52, 0
2, 55014, Control_c, 0, 64, 0
2, 55022, Note_on_c, 0, 38, 46
2, 55034, Note_on_c, 0, 65, 57
2, 55038, Note_on_c, 0, 60, 53
2, 55042, Note_on_c, 0, 57, 41
2, 55046, Note_on_c, 0, 45, 40
2, 55062, Note_on_c, 0, 53, 32
2, 55082, Control_c, 0, 64, 127
2, 55110, Note_on_c, 0, 38, 0
2, 55118, Note_on_c, 0, 45, 0
2, 55162, Note_on_c, 0, 53, 0
2, 55178, Note_on_c, 0, 57, 0
2, 55182, Note_on_c, 0, 60, 0
2, 55194, Note_on_c, 0, 65, 0
2, 55446, Control_c, 0, 64, 0
2, 55462, Note_on_c, 0, 40, 37
2, 55466, Note_on_c, 0, 67, 46
2, 55470, Note_on_c, 0, 59, 34
2, 55470, Note_on_c, 0, 62, 48
2, 55490, Note_on_c, 0, 55, 40
2, 55526, Control_c, 0, 64, 127
2, 55582, Note_on_c, 0, 59, 0
2, 55622, Note_on_c, 0, 62, 0
2, 55634, Note_on_c, 0, 67, 0
2, 55838, Note_on_c, 0, 79, 82
2, 55842, Note_on_c, 0, 47, 48
2, 55862, Note_on_c, 0, 55, 0
2, 55870, Note_on_c, 0, 40, 0
2, 55906, Note_on_c, 0, 47, 0
2, 56150, Note_on_c, 0, 79, 0
2, 56182, Note_on_c, 0, 67, 66
2, 56194, Note_on_c, 0, 59, 55
2, 56682, Note_on_c, 0, 67, 0
2, 56694, Note_on_c, 0, 69, 73
2, 56842, Note_on_c, 0, 71, 82
2, 56878, Note_on_c, 0, 69, 0
2, 56970, Note_on_c, 0, 71, 0
2, 56994, Note_on_c, 0, 72, 78
2, 57254, Note_on_c, 0, 72, 0
2, 57258, Note_on_c, 0, 74, 78
2, 57354, Note_on_c, 0, 59, 0
2, 57358, Note_on_c, 0, 74, 0
2, 57382, Note_on_c, 0, 75, 76
2, 57386, Note_on_c, 0, 74, 38
2, 57450, Note_on_c, 0, 74, 0
2, 57478, Note_on_c, 0, 75, 0
2, 57530, Note_on_c, 0, 76, 81
2, 57666, Note_on_c, 0, 76, 0
2, 57682, Note_on_c, 0, 77, 70
2, 57854, Note_on_c, 0, 72, 57
2, 57862, Note_on_c, 0, 63, 36
2, 57866, Control_c, 0, 64, 0
2, 57874, Note_on_c, 0, 53, 38
2, 57950, Control_c, 0, 64, 127
2, 58062, Note_on_c, 0, 77, 0
2, 58086, Note_on_c, 0, 63, 0
2, 58118, Note_on_c, 0, 80, 63
2, 58146, Note_on_c, 0, 60, 33
2, 58258, Note_on_c, 0, 53, 0
2, 58326, Note_on_c, 0, 80, 0
2, 58362, Note_on_c, 0, 72, 0
2, 58402, Note_on_c, 0, 80, 53
2, 58422, Note_on_c, 0, 68, 49
2, 58422, Note_on_c, 0, 65, 42
2, 58422, Note_on_c, 0, 72, 35
2, 58590, Note_on_c, 0, 60, 0
2, 58670, Note_on_c, 0, 65, 0
2, 58714, Note_on_c, 0, 68, 0
2, 58946, Note_on_c, 0, 34, 48
2, 58994, Control_c, 0, 64, 0
2, 59046, Control_c, 0, 64, 127
2, 59070, Note_on_c, 0, 34, 0
2, 59190, Note_on_c, 0, 72, 0
2, 59310, Note_on_c, 0, 80, 0
2, 59474, Note_on_c, 0, 80, 63
2, 59482, Note_on_c, 0, 67, 48
2, 59486, Note_on_c, 0, 68, 49
2, 59486, Note_on_c, 0, 75, 57
2, 59490, Note_on_c, 0, 72, 54
2, 59750, Note_on_c, 0, 72, 0
2, 59754, Note_on_c, 0, 67, 0
2, 59778, Note_on_c, 0, 75, 0
2, 59778, Note_on_c, 0, 68, 0
2, 59802, Note_on_c, 0, 80, 0
2, 59922, Note_on_c, 0, 79, 62
2, 59926, Note_on_c, 0, 56, 44
2, 59930, Note_on_c, 0, 71, 55
2, 59930, Note_on_c, 0, 65, 48
2, 59930, Note_on_c, 0, 68, 39
2, 59942, Note_on_c, 0, 74, 49
2, 60258, Note_on_c, 0, 79, 0
2, 60274, Note_on_c, 0, 68, 0
2, 60314, Note_on_c, 0, 68, 30
2, 60330, Note_on_c, 0, 77, 67
2, 60346, Note_on_c, 0, 62, 39
2, 60882, Note_on_c, 0, 77, 0
2, 60886, Note_on_c, 0, 65, 0
2, 60918, Note_on_c, 0, 62, 0
2, 60978, Note_on_c, 0, 56, 0
2, 61078, Note_on_c, 0, 74, 0
2, 61114, Note_on_c, 0, 76, 53
2, 61346, Note_on_c, 0, 71, 0
2, 61362, Note_on_c, 0, 68, 0
2, 61446, Note_on_c, 0, 76, 0
2, 62094, Control_c, 0, 64, 0
2, 62106, Note_on_c, 0, 79, 56
2, 62114, Note_on_c, 0, 48, 37
2, 62170, Control_c, 0, 64, 127
2, 62290, Note_on_c, 0, 79, 0
2, 62370, Note_on_c, 0, 56, 42
2, 62714, Note_on_c, 0, 64, 41
2, 62718, Note_on_c, 0, 59, 39
2, 62990, Note_on_c, 0, 74, 63
2, 63038, Note_on_c, 0, 59, 0
2, 63078, Note_on_c, 0, 74, 0
2, 63082, Note_on_c, 0, 64, 0
2, 63254, Note_on_c, 0, 56, 0
2, 63278, Control_c, 0, 64, 0
2, 63282, Note_on_c, 0, 64, 40
2, 63286, Note_on_c, 0, 57, 40
2, 63286, Note_on_c, 0, 67, 48
2, 63290, Note_on_c, 0, 72, 39
2, 63358, Control_c, 0, 64, 127
2, 63582, Note_on_c, 0, 56, 52
2, 63598, Note_on_c, 0, 67, 0
2, 63614, Note_on_c, 0, 57, 0
2, 63658, Note_on_c, 0, 72, 0
2, 63730, Note_on_c, 0, 64, 0
2, 63906, Note_on_c, 0, 65, 56
2, 63910, Note_on_c, 0, 62, 40
2, 63918, Note_on_c, 0, 55, 39
2, 63926, Control_c, 0, 64, 72
2, 63930, Control_c, 0, 64, 0
2, 63982, Control_c, 0, 64, 127
2, 64118, Note_on_c, 0, 48, 0
2, 64378, Note_on_c, 0, 65, 0
2, 64402, Note_on_c, 0, 62, 0
2, 64506, Note_on_c, 0, 56, 0
2, 64682, Note_on_c, 0, 55, 0
2, 64686, Control_c, 0, 64, 0
2, 64690, Note_on_c, 0, 60, 42
2, 64698, Note_on_c, 0, 64, 49
2, 64698, Note_on_c, 0, 48, 43
2, 64706, Control_c, 0, 64, 127
2, 64910, Note_on_c, 0, 48, 0
2, 64934, Note_on_c, 0, 64, 0
2, 65002, Note_on_c, 0, 60, 0
2, 65206, Control_c, 0, 64, 0
2, 65210, Note_on_c, 0, 63, 49
2, 65214, Note_on_c, 0, 59, 43
2, 65214, Note_on_c, 0, 44, 44
2, 65218, Note_on_c, 0, 54, 36
2, 65310, Control_c, 0, 64, 127
2, 65438, Note_on_c, 0, 59, 0
2, 65546, Note_on_c, 0, 54, 0
2, 65602, Note_on_c, 0, 51, 41
2, 65622, Note_on_c, 0, 44, 0
2, 65634, Note_on_c, 0, 51, 0
2, 65642, Note_on_c, 0, 63, 0
2, 66170, Note_on_c, 0, 68, 45
2, 66182, Note_on_c, 0, 59, 43
2, 66190, Note_on_c, 0, 75, 61
2, 66202, Note_on_c, 0, 64, 42
2, 66206, Note_on_c, 0, 63, 35
2, 66746, Note_on_c, 0, 68, 0
2, 66758, Note_on_c, 0, 83, 77
2, 66818, Note_on_c, 0, 59, 0
2, 66822, Note_on_c, 0, 64, 0
2, 66838, Note_on_c, 0, 63, 0
2, 66886, Note_on_c, 0, 83, 0
2, 66966, Note_on_c, 0, 83, 62
2, 67098, Note_on_c, 0, 83, 0
2, 67170, Note_on_c, 0, 83, 56
2, 67222, Note_on_c, 0, 75, 0
2, 67266, Note_on_c, 0, 83, 0
2, 67378, Control_c, 0, 64, 0
2, 67378, Note_on_c, 0, 83, 56
2, 67398, Note_on_c, 0, 37, 42
2, 67442, Control_c, 0, 64, 127
2, 67538, Note_on_c, 0, 37, 0
2, 67578, Note_on_c, 0, 44, 54
2, 67674, Note_on_c, 0, 44, 0
2, 67782, Note_on_c, 0, 53, 55
2, 67998, Note_on_c, 0, 53, 0
2, 68002, Note_on_c, 0, 56, 47
2, 68262, Note_on_c, 0, 58, 47
2, 68262, Note_on_c, 0, 71, 37
2, 68262, Note_on_c, 0, 75, 49
2, 68286, Note_on_c, 0, 83, 0
2, 68398, Note_on_c, 0, 58, 0
2, 68542, Note_on_c, 0, 71, 0
2, 68666, Note_on_c, 0, 59, 39
2, 68922, Note_on_c, 0, 75, 0
2, 68982, Note_on_c, 0, 80, 66
2, 69002, Note_on_c, 0, 71, 35
2, 69018, Note_on_c, 0, 75, 34
2, 69246, Note_on_c, 0, 75, 0
2, 69438, Note_on_c, 0, 71, 0
2, 69466, Note_on_c, 0, 80, 0
2, 69478, Note_on_c, 0, 59, 0
2, 69502, Note_on_c, 0, 76, 57
2, 69618, Note_on_c, 0, 76, 0
2, 69658, Note_on_c, 0, 56, 0
2, 70070, Note_on_c, 0, 67, 56
2, 70074, Control_c, 0, 64, 0
2, 70082, Note_on_c, 0, 62, 51
2, 70082, Note_on_c, 0, 39, 40
2, 70090, Note_on_c, 0, 55, 31
2, 70090, Note_on_c, 0, 46, 39
2, 70162, Control_c, 0, 64, 127
2, 70262, Note_on_c, 0, 67, 0
2, 70278, Note_on_c, 0, 55, 0
2, 70318, Note_on_c, 0, 62, 0
2, 70346, Note_on_c, 0, 46, 0
2, 70354, Note_on_c, 0, 39, 0
2, 70454, Control_c, 0, 64, 0
2, 70462, Note_on_c, 0, 68, 66
2, 70470, Note_on_c, 0, 56, 57
2, 70474, Note_on_c, 0, 63, 57
2, 70474, Note_on_c, 0, 48, 50
2, 70478, Note_on_c, 0, 41, 52
2, 70534, Control_c, 0, 64, 127
2, 70658, Note_on_c, 0, 56, 0
2, 70670, Note_on_c, 0, 41, 0
2, 70678, Note_on_c, 0, 48, 0
2, 70706, Note_on_c, 0, 63, 0
2, 70710, Note_on_c, 0, 68, 0
2, 70894, Note_on_c, 0, 70, 61
2, 70902, Note_on_c, 0, 58, 51
2, 70906, Control_c, 0, 64, 0
2, 70906, Note_on_c, 0, 65, 61
2, 70910, Note_on_c, 0, 43, 52
2, 70918, Note_on_c, 0, 50, 50
2, 71066, Control_c, 0, 64, 127
2, 71222, Note_on_c, 0, 70, 0
2, 71302, Note_on_c, 0, 70, 68
2, 71330, Note_on_c, 0, 43, 0
2, 71334, Note_on_c, 0, 50, 0
2, 71426, Note_on_c, 0, 70, 0
2, 71434, Note_on_c, 0, 65, 0
2, 71454, Note_on_c, 0, 58, 0
2, 71718, Control_c, 0, 64, 0
2, 71722, Note_on_c, 0, 66, 73
2, 71734, Note_on_c, 0, 61, 68
2, 71742, Note_on_c, 0, 54, 45
2, 71746, Note_on_c, 0, 39, 57
2, 71750, Note_on_c, 0, 46, 54
2, 71754, Note_on_c, 0, 56, 43
2, 71782, Note_on_c, 0, 54, 0
2, 71814, Control_c, 0, 64, 127
2, 71846, Note_on_c, 0, 56, 0
2, 71926, Note_on_c, 0, 66, 0
2, 71930, Note_on_c, 0, 61, 0
2, 71998, Note_on_c, 0, 39, 0
2, 72106, Note_on_c, 0, 68, 77
2, 72114, Note_on_c, 0, 54, 49
2, 72114, Note_on_c, 0, 58, 68
2, 72114, Note_on_c, 0, 63, 68
2, 72222, Note_on_c, 0, 46, 0
2, 72282, Note_on_c, 0, 58, 0
2, 72326, Note_on_c, 0, 68, 0
2, 72330, Note_on_c, 0, 54, 0
2, 72330, Note_on_c, 0, 63, 0
2, 72554, Note_on_c, 0, 70, 76
2, 72558, Control_c, 0, 64, 0
2, 72566, Note_on_c, 0, 65, 72
2, 72570, Note_on_c, 0, 60, 66
2, 72574, Note_on_c, 0, 54, 56
2, 72578, Note_on_c, 0, 44, 56
2, 72682, Control_c, 0, 64, 127
2, 72846, Note_on_c, 0, 70, 0
2, 72930, Note_on_c, 0, 60, 0
2, 72942, Note_on_c, 0, 65, 0
2, 72982, Note_on_c, 0, 54, 0
2, 73014, Note_on_c, 0, 70, 75
2, 73022, Note_on_c, 0, 51, 45
2, 73026, Note_on_c, 0, 65, 58
2, 73102, Note_on_c, 0, 44, 0
2, 73146, Note_on_c, 0, 70, 0
2, 73154, Note_on_c, 0, 65, 0
2, 73266, Note_on_c, 0, 51, 0
2, 73582, Note_on_c, 0, 65, 73
2, 73582, Note_on_c, 0, 67, 76
2, 73586, Control_c, 0, 64, 0
2, 73586, Note_on_c, 0, 60, 80
2, 73590, Note_on_c, 0, 57, 75
2, 73594, Note_on_c, 0, 55, 66
2, 73622, Note_on_c, 0, 63, 35
2, 73662, Note_on_c, 0, 63, 0
2, 73706, Control_c, 0, 64, 127
2, 73874, Note_on_c, 0, 67, 0
2, 73906, Note_on_c, 0, 65, 0
2, 73910, Note_on_c, 0, 57, 0
2, 73986, Note_on_c, 0, 60, 0
2, 74098, Note_on_c, 0, 69, 70
2, 74098, Note_on_c, 0, 43, 57
2, 74182, Note_on_c, 0, 55, 0
2, 74282, Note_on_c, 0, 43, 0
2, 74358, Note_on_c, 0, 69, 0
2, 74810, Note_on_c, 0, 63, 49
2, 74830, Note_on_c, 0, 59, 39
2, 74830, Note_on_c, 0, 71, 41
2, 74842, Note_on_c, 0, 63, 0
2, 74842, Control_c, 0, 64, 0
2, 74846, Note_on_c, 0, 43, 41
2, 74850, Note_on_c, 0, 31, 45
2, 74862, Note_on_c, 0, 64, 55
2, 74970, Control_c, 0, 64, 127
2, 75390, Note_on_c, 0, 31, 0
2, 75430, Note_on_c, 0, 43, 0
2, 75686, Note_on_c, 0, 43, 37
2, 75690, Note_on_c, 0, 31, 36
2, 75710, Note_on_c, 0, 59, 0
2, 75742, Note_on_c, 0, 64, 0
2, 75842, Note_on_c, 0, 43, 0
2, 75890, Note_on_c, 0, 71, 0
2, 75942, Note_on_c, 0, 31, 0
2, 76694, Note_on_c, 0, 84, 55
2, 76698, Note_on_c, 0, 24, 51
2, 76702, Note_on_c, 0, 36, 39
2, 76702, Note_on_c, 0, 76, 47
2, 76702, Note_on_c, 0, 72, 41
2, 76714, Note_on_c, 0, 79, 56
2, 76898, Note_on_c, 0, 24, 0
2, 76978, Note_on_c, 0, 36, 0
2, 77002, Note_on_c, 0, 24, 31
2, 77134, Note_on_c, 0, 24, 0
2, 77170, Note_on_c, 0, 36, 36
2, 77246, Note_on_c, 0, 36, 0
2, 77258, Note_on_c, 0, 24, 45
2, 77386, Note_on_c, 0, 24, 0
2, 77410, Note_on_c, 0, 36, 37
2, 77490, Note_on_c, 0, 36, 0
2, 77494, Note_on_c, 0, 24, 46
2, 77610, Note_on_c, 0, 24, 0
2, 77618, Note_on_c, 0, 36, 40
2, 77702, Note_on_c, 0, 36, 0
2, 77702, Note_on_c, 0, 24, 42
2, 77814, Note_on_c, 0, 24, 0
2, 77830, Note_on_c, 0, 36, 39
2, 77890, Note_on_c, 0, 36, 0
2, 77890, Note_on_c, 0, 24, 48
2, 77990, Note_on_c, 0, 24, 0
2, 78002, Note_on_c, 0, 36, 56
2, 78018, Note_on_c, 0, 84, 0
2, 78026, Note_on_c, 0, 72, 0
2, 78070, Note_on_c, 0, 24, 50
2, 78074, Note_on_c, 0, 36, 0
2, 78114, Note_on_c, 0, 76, 0
2, 78154, Note_on_c, 0, 24, 0
2, 78166, Note_on_c, 0, 79, 0
2, 78166, Note_on_c, 0, 36, 41
2, 78230, Note_on_c, 0, 36, 0
2, 78230, Note_on_c, 0, 24, 48
2, 78298, Note_on_c, 0, 24, 0
2, 78326, Note_on_c, 0, 36, 43
2, 78382, Note_on_c, 0, 36, 0
2, 78394, Note_on_c, 0, 24, 56
2, 78466, Note_on_c, 0, 24, 0
2, 78478, Note_on_c, 0, 36, 52
2, 78518, Note_on_c, 0, 36, 0
2, 78526, Note_on_c, 0, 24, 58
2, 78598, Note_on_c, 0, 24, 0
2, 78598, Note_on_c, 0, 86, 67
2, 78602, Note_on_c, 0, 78, 56
2, 78602, Note_on_c, 0, 36, 57
2, 78606, Note_on_c, 0, 74, 51
2, 78614, Note_on_c, 0, 81, 53
2, 78662, Note_on_c, 0, 24, 61
2, 78670, Note_on_c, 0, 36, 0
2, 78758, Note_on_c, 0, 36, 53
2, 78766, Note_on_c, 0, 86, 0
2, 78766, Note_on_c, 0, 24, 0
2, 78782, Note_on_c, 0, 74, 0
2, 78794, Note_on_c, 0, 78, 0
2, 78810, Note_on_c, 0, 81, 0
2, 78822, Note_on_c, 0, 36, 0
2, 78830, Note_on_c, 0, 24, 70
2, 78894, Note_on_c, 0, 74, 67
2, 78894, Note_on_c, 0, 78, 64
2, 78894, Note_on_c, 0, 86, 69
2, 78902, Note_on_c, 0, 81, 65
2, 78902, Note_on_c, 0, 36, 60
2, 78926, Note_on_c, 0, 24, 0
2, 78986, Note_on_c, 0, 86, 0
2, 78986, Note_on_c, 0, 24, 57
2, 78994, Note_on_c, 0, 81, 0
2, 79002, Note_on_c, 0, 36, 0
2, 79018, Note_on_c, 0, 78, 0
2, 79038, Note_on_c, 0, 74, 0
2, 79102, Note_on_c, 0, 24, 0
2, 79118, Note_on_c, 0, 36, 46
2, 79174, Note_on_c, 0, 24, 57
2, 79178, Note_on_c, 0, 36, 0
2, 79250, Note_on_c, 0, 79, 66
2, 79254, Note_on_c, 0, 67, 59
2, 79262, Note_on_c, 0, 71, 52
2, 79262, Note_on_c, 0, 74, 57
2, 79262, Note_on_c, 0, 36, 57
2, 79290, Control_c, 0, 64, 0
2, 79326, Control_c, 0, 64, 127
2, 79362, Note_on_c, 0, 24, 0
2, 79414, Note_on_c, 0, 24, 69
2, 79426, Note_on_c, 0, 36, 0
2, 79510, Note_on_c, 0, 24, 0
2, 79518, Note_on_c, 0, 36, 36
2, 79582, Note_on_c, 0, 24, 48
2, 79594, Note_on_c, 0, 36, 0
2, 79682, Note_on_c, 0, 36, 47
2, 79690, Note_on_c, 0, 24, 0
2, 79762, Note_on_c, 0, 24, 58
2, 79766, Note_on_c, 0, 36, 0
2, 79854, Note_on_c, 0, 24, 0
2, 79862, Note_on_c, 0, 36, 54
2, 79926, Note_on_c, 0, 24, 57
2, 79934, Note_on_c, 0, 36, 0
2, 80006, Note_on_c, 0, 71, 0
2, 80018, Note_on_c, 0, 24, 0
2, 80022, Note_on_c, 0, 36, 55
2, 80030, Note_on_c, 0, 67, 0
2, 80034, Note_on_c, 0, 79, 0
2, 80062, Note_on_c, 0, 74, 0
2, 80094, Note_on_c, 0, 24, 67
2, 80102, Note_on_c, 0, 36, 0
2, 80170, Note_on_c, 0, 36, 61
2, 80182, Note_on_c, 0, 24, 0
2, 80250, Note_on_c, 0, 24, 68
2, 80254, Note_on_c, 0, 36, 0
2, 80330, Note_on_c, 0, 36, 56
2, 80334, Note_on_c, 0, 24, 0
2, 80398, Note_on_c, 0, 24, 70
2, 80402, Note_on_c, 0, 36, 0
2, 80478, Note_on_c, 0, 24, 0
2, 80482, Note_on_c, 0, 36, 55
2, 80546, Note_on_c, 0, 24, 71
2, 80558, Note_on_c, 0, 36, 0
2, 80626, Note_on_c, 0, 36, 60
2, 80638, Note_on_c, 0, 24, 0
2, 80694, Note_on_c, 0, 24, 75
2, 80714, Note_on_c, 0, 36, 0
2, 80778, Note_on_c, 0, 36, 58
2, 80794, Note_on_c, 0, 24, 0
2, 80838, Note_on_c, 0, 24, 83
2, 80850, Note_on_c, 0, 76, 75
2, 80850, Note_on_c, 0, 84, 80
2, 80854, Note_on_c, 0, 72, 68
2, 80854, Note_on_c, 0, 79, 73
2, 80934, Note_on_c, 0, 24, 0
2, 80982, Note_on_c, 0, 24, 79
2, 80994, Note_on_c, 0, 36, 0
2, 81038, Note_on_c, 0, 72, 0
2, 81046, Note_on_c, 0, 84, 0
2, 81046, Note_on_c, 0, 76, 0
2, 81066, Note_on_c, 0, 79, 0
2, 81070, Note_on_c, 0, 36, 52
2, 81090, Note_on_c, 0, 24, 0
2, 81130, Note_on_c, 0, 79, 68
2, 81130, Note_on_c, 0, 76, 74
2, 81130, Note_on_c, 0, 72, 69
2, 81130, Note_on_c, 0, 84, 70
2, 81146, Note_on_c, 0, 24, 75
2, 81178, Note_on_c, 0, 36, 0
2, 81262, Note_on_c, 0, 36, 61
2, 81270, Note_on_c, 0, 84, 0
2, 81274, Note_on_c, 0, 24, 0
2, 81282, Note_on_c, 0, 72, 0
2, 81282, Note_on_c, 0, 76, 0
2, 81298, Note_on_c, 0, 79, 0
2, 81334, Note_on_c, 0, 24, 72
2, 81346, Note_on_c, 0, 36, 0
2, 81358, Note_on_c, 0, 84, 61
2, 81358, Note_on_c, 0, 76, 63
2, 81358, Note_on_c, 0, 72, 59
2, 81358, Note_on_c, 0, 79, 72
2, 81418, Note_on_c, 0, 36, 56
2, 81442, Note_on_c, 0, 24, 0
2, 81458, Note_on_c, 0, 72, 0
2, 81466, Note_on_c, 0, 76, 0
2, 81470, Note_on_c, 0, 84, 0
2, 81482, Note_on_c, 0, 79, 0
2, 81518, Note_on_c, 0, 36, 0
2, 81518, Note_on_c, 0, 24, 66
2, 81562, Note_on_c, 0, 84, 71
2, 81562, Note_on_c, 0, 76, 71
2, 81574, Note_on_c, 0, 72, 61
2, 81586, Note_on_c, 0, 79, 46
2, 81598, Note_on_c, 0, 36, 57
2, 81646, Note_on_c, 0, 24, 0
2, 81662, Note_on_c, 0, 79, 0
2, 81702, Note_on_c, 0, 72, 0
2, 81710, Note_on_c, 0, 36, 0
2, 81714, Note_on_c, 0, 84, 0
2, 81718, Note_on_c, 0, 76, 0
2, 81730, Note_on_c, 0, 24, 67
2, 81766, Note_on_c, 0, 72, 61
2, 81770, Note_on_c, 0, 84, 51
2, 81770, Note_on_c, 0, 76, 66
2, 81770, Note_on_c, 0, 79, 60
2, 81770, Note_on_c, 0, 36, 49
2, 81862, Note_on_c, 0, 79, 0
2, 81870, Note_on_c, 0, 76, 0
2, 81874, Note_on_c, 0, 72, 0
2, 81894, Note_on_c, 0, 84, 0
2, 81898, Note_on_c, 0, 24, 0
2, 81958, Note_on_c, 0, 24, 60
2, 81962, Note_on_c, 0, 36, 0
2, 82006, Note_on_c, 0, 73, 63
2, 82010, Note_on_c, 0, 85, 57
2, 82014, Note_on_c, 0, 77, 61
2, 82014, Note_on_c, 0, 80, 58
2, 82022, Note_on_c, 0, 36, 60
2, 82098, Note_on_c, 0, 24, 0
2, 82126, Note_on_c, 0, 77, 0
2, 82158, Note_on_c, 0, 80, 0
2, 82162, Note_on_c, 0, 73, 0
2, 82190, Note_on_c, 0, 24, 59
2, 82194, Note_on_c, 0, 85, 0
2, 82202, Note_on_c, 0, 36, 0
2, 82294, Note_on_c, 0, 78, 61
2, 82298, Note_on_c, 0, 86, 68
2, 82302, Note_on_c, 0, 74, 61
2, 82306, Note_on_c, 0, 36, 57
2, 82314, Note_on_c, 0, 81, 58
2, 82418, Note_on_c, 0, 24, 0
2, 82426, Note_on_c, 0, 86, 0
2, 82430, Note_on_c, 0, 81, 0
2, 82454, Note_on_c, 0, 78, 0
2, 82478, Note_on_c, 0, 74, 0
2, 82498, Note_on_c, 0, 36, 0
2, 82502, Note_on_c, 0, 24, 53
2, 82606, Note_on_c, 0, 36, 40
2, 82618, Note_on_c, 0, 24, 0
2, 82698, Note_on_c, 0, 36, 0
2, 82702, Note_on_c, 0, 24, 51
2, 82806, Note_on_c, 0, 36, 52
2, 82818, Note_on_c, 0, 24, 0
2, 82818, Note_on_c, 0, 79, 58
2, 82822, Note_on_c, 0, 67, 50
2, 82826, Note_on_c, 0, 71, 51
2, 82830, Note_on_c, 0, 74, 52
2, 82838, Control_c, 0, 64, 0
2, 82850, Note_on_c, 0, 24, 36
2, 82958, Control_c, 0, 64, 127
2, 83046, Note_on_c, 0, 24, 0
2, 83102, Note_on_c, 0, 24, 65
2, 83114, Note_on_c, 0, 36, 0
2, 83206, Note_on_c, 0, 36, 41
2, 83238, Note_on_c, 0, 24, 0
2, 83334, Note_on_c, 0, 36, 0
2, 83334, Note_on_c, 0, 24, 46
2, 83434, Note_on_c, 0, 24, 0
2, 83450, Note_on_c, 0, 36, 39
2, 83542, Note_on_c, 0, 36, 0
2, 83554, Note_on_c, 0, 24, 41
2, 83646, Note_on_c, 0, 24, 0
2, 83654, Note_on_c, 0, 36, 42
2, 83734, Note_on_c, 0, 36, 0
2, 83746, Note_on_c, 0, 24, 45
2, 83838, Note_on_c, 0, 24, 0
2, 83842, Note_on_c, 0, 36, 40
2, 83914, Note_on_c, 0, 24, 42
2, 83918, Note_on_c, 0, 36, 0
2, 84026, Note_on_c, 0, 36, 41
2, 84038, Note_on_c, 0, 24, 0
2, 84114, Note_on_c, 0, 36, 0
2, 84114, Note_on_c, 0, 24, 41
2, 84226, Note_on_c, 0, 36, 43
2, 84234, Note_on_c, 0, 24, 0
2, 84310, Note_on_c, 0, 24, 43
2, 84314, Note_on_c, 0, 36, 0
2, 84422, Note_on_c, 0, 36, 46
2, 84442, Note_on_c, 0, 24, 0
2, 84522, Note_on_c, 0, 36, 0
2, 84522, Note_on_c, 0, 24, 42
2, 84626, Note_on_c, 0, 36, 39
2, 84646, Note_on_c, 0, 24, 0
2, 84734, Note_on_c, 0, 24, 39
2, 84742, Note_on_c, 0, 36, 0
2, 84846, Note_on_c, 0, 36, 41
2, 84874, Note_on_c, 0, 24, 0
2, 84938, Note_on_c, 0, 24, 20
2, 84974, Note_on_c, 0, 36, 0
2, 85090, Note_on_c, 0, 36, 37
2, 85234, Note_on_c, 0, 36, 0
2, 85286, Note_on_c, 0, 67, 0
2, 85306, Note_on_c, 0, 71, 0
2, 85322, Note_on_c, 0, 74, 0
2, 85354, Note_on_c, 0, 36, 29
2, 85382, Note_on_c, 0, 24, 0
2, 85462, Note_on_c, 0, 79, 0
2, 85518, Note_on_c, 0, 24, 36
2, 85530, Note_on_c, 0, 36, 0
2, 85738, Note_on_c, 0, 36, 23
2, 85766, Note_on_c, 0, 24, 0
2, 85930, Note_on_c, 0, 24, 34
2, 85938, Note_on_c, 0, 36, 0
2, 86182, Note_on_c, 0, 36, 31
2, 86198, Note_on_c, 0, 24, 0
2, 86498, Note_on_c, 0, 36, 0
2, 86518, Note_on_c, 0, 24, 41
2, 86702, Note_on_c, 0, 24, 0
2, 86702, Note_on_c, 0, 36, 45
2, 86870, Note_on_c, 0, 36, 0
2, 86878, Note_on_c, 0, 24, 50
2, 87002, Note_on_c, 0, 81, 48
2, 87002, Note_on_c, 0, 69, 56
2, 87002, Note_on_c, 0, 73, 57
2, 87014, Note_on_c, 0, 24, 0
2, 87018, Note_on_c, 0, 36, 49
2, 87018, Note_on_c, 0, 76, 66
2, 87106, Note_on_c, 0, 24, 45
2, 87118, Note_on_c, 0, 36, 0
2, 87242, Note_on_c, 0, 24, 0
2, 87250, Note_on_c, 0, 36, 60
2, 87358, Note_on_c, 0, 24, 57
2, 87370, Note_on_c, 0, 36, 0
2, 87502, Note_on_c, 0, 24, 0
2, 87502, Note_on_c, 0, 36, 54
2, 87586, Note_on_c, 0, 24, 63
2, 87598, Note_on_c, 0, 36, 0
2, 87710, Note_on_c, 0, 36, 57
2, 87718, Note_on_c, 0, 24, 0
2, 87798, Note_on_c, 0, 24, 66
2, 87806, Note_on_c, 0, 36, 0
2, 87846, Note_on_c, 0, 69, 0
2, 87886, Note_on_c, 0, 76, 0
2, 87894, Note_on_c, 0, 24, 0
2, 87902, Note_on_c, 0, 36, 56
2, 87918, Note_on_c, 0, 73, 0
2, 87950, Note_on_c, 0, 81, 0
2, 87974, Note_on_c, 0, 36, 0
2, 87978, Note_on_c, 0, 24, 61
2, 88046, Note_on_c, 0, 24, 0
2, 88058, Note_on_c, 0, 36, 50
2, 88142, Note_on_c, 0, 36, 0
2, 88142, Note_on_c, 0, 24, 63
2, 88206, Note_on_c, 0, 24, 0
2, 88218, Note_on_c, 0, 36, 58
2, 88286, Note_on_c, 0, 24, 74
2, 88290, Note_on_c, 0, 36, 0
2, 88366, Note_on_c, 0, 36, 58
2, 88374, Note_on_c, 0, 24, 0
2, 88402, Note_on_c, 0, 84, 79
2, 88406, Note_on_c, 0, 79, 72
2, 88406, Note_on_c, 0, 72, 66
2, 88406, Note_on_c, 0, 76, 76
2, 88426, Note_on_c, 0, 24, 77
2, 88454, Note_on_c, 0, 36, 0
2, 88518, Note_on_c, 0, 36, 60
2, 88522, Note_on_c, 0, 24, 0
2, 88586, Note_on_c, 0, 36, 0
2, 88586, Note_on_c, 0, 24, 68
2, 88650, Note_on_c, 0, 72, 0
2, 88678, Note_on_c, 0, 36, 65
2, 88686, Note_on_c, 0, 24, 0
2, 88698, Note_on_c, 0, 76, 0
2, 88714, Note_on_c, 0, 79, 0
2, 88734, Note_on_c, 0, 84, 0
2, 88746, Note_on_c, 0, 24, 76
2, 88762, Note_on_c, 0, 36, 0
2, 88838, Note_on_c, 0, 36, 73
2, 88854, Note_on_c, 0, 24, 0
2, 88854, Note_on_c, 0, 76, 81
2, 88854, Note_on_c, 0, 72, 69
2, 88854, Note_on_c, 0, 79, 75
2, 88854, Note_on_c, 0, 84, 75
2, 88906, Note_on_c, 0, 24, 66
2, 88962, Note_on_c, 0, 84, 0
2, 88974, Note_on_c, 0, 24, 0
2, 88990, Note_on_c, 0, 79, 0
2, 89002, Note_on_c, 0, 76, 0
2, 89026, Note_on_c, 0, 72, 0
2, 89042, Note_on_c, 0, 24, 70
2, 89046, Note_on_c, 0, 36, 0
2, 89154, Note_on_c, 0, 24, 0
2, 89158, Note_on_c, 0, 36, 56
2, 89218, Note_on_c, 0, 24, 63
2, 89234, Note_on_c, 0, 36, 0
2, 89290, Note_on_c, 0, 69, 79
2, 89290, Note_on_c, 0, 72, 75
2, 89290, Note_on_c, 0, 77, 81
2, 89298, Note_on_c, 0, 65, 77
2, 89298, Note_on_c, 0, 36, 74
2, 89438, Note_on_c, 0, 24, 0
2, 89498, Note_on_c, 0, 24, 65
2, 89522, Note_on_c, 0, 36, 0
2, 89622, Note_on_c, 0, 36, 48
2, 89662, Note_on_c, 0, 24, 0
2, 89730, Note_on_c, 0, 24, 56
2, 89754, Note_on_c, 0, 36, 0
2, 89858, Note_on_c, 0, 36, 50
2, 89914, Note_on_c, 0, 24, 0
2, 89998, Note_on_c, 0, 24, 52
2, 90038, Note_on_c, 0, 36, 0
2, 90042, Note_on_c, 0, 65, 0
2, 90042, Note_on_c, 0, 69, 0
2, 90090, Note_on_c, 0, 72, 0
2, 90158, Note_on_c, 0, 36, 50
2, 90194, Note_on_c, 0, 24, 0
2, 90274, Note_on_c, 0, 24, 45
2, 90298, Note_on_c, 0, 36, 0
2, 90430, Note_on_c, 0, 36, 38
2, 90438, Note_on_c, 0, 72, 41
2, 90446, Note_on_c, 0, 65, 35
2, 90450, Note_on_c, 0, 69, 39
2, 90534, Note_on_c, 0, 24, 0
2, 90726, Note_on_c, 0, 77, 0
2, 90770, Note_on_c, 0, 65, 0
2, 90774, Note_on_c, 0, 36, 0
2, 90814, Note_on_c, 0, 72, 0
2, 90862, Note_on_c, 0, 69, 0
2, 92218, Note_on_c, 0, 71, 68
2, 92234, Note_on_c, 0, 70, 53
2, 92242, Control_c, 0, 64, 0
2, 92246, Control_c, 0, 64, 127
2, 92434, Note_on_c, 0, 70, 0
2, 92442, Control_c, 0, 64, 0
2, 92458, Note_on_c, 0, 71, 0
2, 92458, Note_on_c, 0, 69, 46
2, 92458, Note_on_c, 0, 72, 64
2, 92470, Control_c, 0, 64, 127
2, 92642, Note_on_c, 0, 72, 0
2, 92714, Note_on_c, 0, 69, 0
2, 92718, Note_on_c, 0, 76, 61
2, 92726, Note_on_c, 0, 68, 50
2, 92910, Note_on_c, 0, 76, 0
2, 93038, Note_on_c, 0, 79, 66
2, 93046, Note_on_c, 0, 68, 0
2, 93046, Note_on_c, 0, 67, 49
2, 93086, Control_c, 0, 64, 0
2, 93146, Control_c, 0, 64, 127
2, 93246, Note_on_c, 0, 79, 0
2, 93414, Note_on_c, 0, 80, 54
2, 93426, Note_on_c, 0, 67, 0
2, 93426, Note_on_c, 0, 66, 45
2, 93434, Control_c, 0, 64, 0
2, 93478, Control_c, 0, 64, 127
2, 93810, Note_on_c, 0, 80, 0
2, 93846, Note_on_c, 0, 66, 0
2, 93854, Note_on_c, 0, 81, 57
2, 93862, Note_on_c, 0, 65, 43
2, 93890, Control_c, 0, 64, 0
2, 93918, Control_c, 0, 64, 127
2, 94054, Note_on_c, 0, 65, 0
2, 94374, Note_on_c, 0, 43, 39
2, 94994, Note_on_c, 0, 43, 0
2, 95118, Note_on_c, 0, 81, 0
2, 95782, Note_on_c, 0, 68, 38
2, 95786, Note_on_c, 0, 83, 43
2, 95786, Note_on_c, 0, 80, 41
2, 95798, Note_on_c, 0, 74, 28
2, 95810, Note_on_c, 0, 77, 41
2, 96222, Note_on_c, 0, 68, 0
2, 96314, Note_on_c, 0, 74, 0
2, 96382, Note_on_c, 0, 77, 0
2, 96538, Note_on_c, 0, 83, 0
2, 96590, Note_on_c, 0, 80, 0
2, 97058, Control_c, 0, 64, 0
2, 97098, Note_on_c, 0, 84, 60
2, 97106, Note_on_c, 0, 43, 46
2, 97106, Control_c, 0, 64, 127
2, 97110, Note_on_c, 0, 72, 40
2, 97110, Note_on_c, 0, 77, 45
2, 97122, Note_on_c, 0, 53, 30
2, 97194, Note_on_c, 0, 43, 0
2, 97242, Note_on_c, 0, 53, 0
2, 97602, Note_on_c, 0, 62, 40
2, 97610, Note_on_c, 0, 58, 41
2, 97622, Control_c, 0, 64, 0
2, 97642, Note_on_c, 0, 62, 0
2, 97642, Note_on_c, 0, 53, 33
2, 97654, Note_on_c, 0, 58, 0
2, 97682, Note_on_c, 0, 53, 0
2, 97786, Control_c, 0, 64, 127
2, 98078, Note_on_c, 0, 50, 49
2, 98238, Note_on_c, 0, 50, 0
2, 98554, Note_on_c, 0, 51, 51
2, 98594, Note_on_c, 0, 72, 0
2, 98614, Note_on_c, 0, 51, 0
2, 98626, Note_on_c, 0, 77, 0
2, 98674, Note_on_c, 0, 84, 0
2, 98862, Note_on_c, 0, 86, 79
2, 99018, Control_c, 0, 64, 0
2, 99018, Note_on_c, 0, 36, 54
2, 99034, Note_on_c, 0, 86, 0
2, 99058, Note_on_c, 0, 52, 26
2, 99094, Control_c, 0, 64, 127
2, 99110, Note_on_c, 0, 36, 0
2, 99142, Note_on_c, 0, 52, 0
2, 99150, Note_on_c, 0, 86, 70
2, 99286, Note_on_c, 0, 86, 0
2, 99314, Note_on_c, 0, 79, 50
2, 99354, Note_on_c, 0, 79, 0
2, 99450, Note_on_c, 0, 79, 52
2, 99470, Note_on_c, 0, 79, 0
2, 99478, Note_on_c, 0, 64, 57
2, 99498, Note_on_c, 0, 58, 41
2, 99510, Note_on_c, 0, 64, 0
2, 99522, Control_c, 0, 64, 0
2, 99530, Note_on_c, 0, 58, 0
2, 99782, Note_on_c, 0, 64, 51
2, 99782, Note_on_c, 0, 74, 56
2, 99786, Note_on_c, 0, 70, 50
2, 99798, Control_c, 0, 64, 127
2, 99806, Note_on_c, 0, 64, 0
2, 99810, Note_on_c, 0, 70, 0
2, 99810, Note_on_c, 0, 74, 0
2, 100262, Note_on_c, 0, 64, 60
2, 100262, Note_on_c, 0, 67, 58
2, 100266, Note_on_c, 0, 58, 55
2, 100290, Note_on_c, 0, 52, 54
2, 100346, Note_on_c, 0, 58, 0
2, 100362, Note_on_c, 0, 52, 0
2, 100378, Note_on_c, 0, 67, 0
2, 100390, Note_on_c, 0, 64, 0
2, 100750, Note_on_c, 0, 44, 50
2, 100842, Control_c, 0, 64, 0
2, 100858, Note_on_c, 0, 44, 0
2, 100918, Control_c, 0, 64, 127
2, 100922, Note_on_c, 0, 43, 60
2, 100974, Note_on_c, 0, 43, 0
2, 101242, Note_on_c, 0, 62, 41
2, 101250, Note_on_c, 0, 72, 37
2, 101254, Note_on_c, 0, 65, 36
2, 101262, Note_on_c, 0, 69, 54
2, 101270, Note_on_c, 0, 58, 41
2, 101290, Note_on_c, 0, 60, 31
2, 101362, Note_on_c, 0, 72, 0
2, 101382, Note_on_c, 0, 65, 0
2, 101390, Note_on_c, 0, 69, 0
2, 101394, Note_on_c, 0, 60, 0
2, 101398, Note_on_c, 0, 62, 0
2, 101398, Note_on_c, 0, 58, 0
2, 101450, Note_on_c, 0, 72, 65
2, 101454, Note_on_c, 0, 69, 66
2, 101454, Note_on_c, 0, 65, 70
2, 101462, Note_on_c, 0, 62, 61
2, 101466, Note_on_c, 0, 58, 61
2, 101474, Note_on_c, 0, 60, 61
2, 101570, Note_on_c, 0, 65, 0
2, 101578, Note_on_c, 0, 69, 0
2, 101578, Note_on_c, 0, 60, 0
2, 101582, Note_on_c, 0, 62, 0
2, 101594, Note_on_c, 0, 72, 0
2, 101614, Note_on_c, 0, 58, 0
2, 101730, Note_on_c, 0, 72, 87
2, 101730, Note_on_c, 0, 65, 86
2, 101730, Note_on_c, 0, 69, 82
2, 101734, Note_on_c, 0, 62, 72
2, 101734, Note_on_c, 0, 58, 71
2, 101742, Note_on_c, 0, 60, 68
2, 101754, Note_on_c, 0, 67, 43
2, 101782, Note_on_c, 0, 67, 0
2, 101822, Note_on_c, 0, 62, 0
2, 101830, Note_on_c, 0, 65, 0
2, 101838, Note_on_c, 0, 72, 0
2, 101846, Note_on_c, 0, 60, 0
2, 101850, Note_on_c, 0, 69, 0
2, 101870, Note_on_c, 0, 58, 0
2, 101906, Note_on_c, 0, 72, 68
2, 101914, Note_on_c, 0, 69, 79
2, 101918, Note_on_c, 0, 62, 69
2, 101918, Note_on_c, 0, 65, 79
2, 101922, Note_on_c, 0, 58, 74
2, 101922, Note_on_c, 0, 60, 60
2, 102010, Note_on_c, 0, 65, 0
2, 102018, Note_on_c, 0, 60, 0
2, 102026, Note_on_c, 0, 69, 0
2, 102026, Note_on_c, 0, 72, 0
2, 102042, Note_on_c, 0, 62, 0
2, 102118, Note_on_c, 0, 58, 0
2, 102190, Note_on_c, 0, 73, 58
2, 102190, Note_on_c, 0, 66, 62
2, 102214, Note_on_c, 0, 70, 40
2, 102250, Note_on_c, 0, 70, 0
2, 102274, Note_on_c, 0, 73, 0
2, 102294, Note_on_c, 0, 66, 0
2, 102370, Note_on_c, 0, 74, 67
2, 102502, Note_on_c, 0, 74, 0
2, 102846, Control_c, 0, 64, 0
2, 102862, Note_on_c, 0, 62, 43
2, 102866, Note_on_c, 0, 65, 51
2, 102866, Note_on_c, 0, 67, 49
2, 102866, Note_on_c, 0, 58, 45
2, 102874, Note_on_c, 0, 48, 45
2, 102958, Control_c, 0, 64, 127
2, 103154, Note_on_c, 0, 65, 0
2, 103242, Note_on_c, 0, 58, 0
2, 103294, Note_on_c, 0, 62, 0
2, 103330, Note_on_c, 0, 67, 0
2, 103366, Note_on_c, 0, 58, 39
2, 103366, Note_on_c, 0, 63, 49
2, 103370, Control_c, 0, 64, 0
2, 103442, Control_c, 0, 64, 127
2, 103522, Note_on_c, 0, 48, 0
2, 103550, Note_on_c, 0, 58, 0
2, 103750, Note_on_c, 0, 63, 0
2, 103838, Control_c, 0, 64, 0
2, 103862, Note_on_c, 0, 64, 51
2, 103866, Note_on_c, 0, 58, 31
2, 103870, Note_on_c, 0, 60, 38
2, 103882, Note_on_c, 0, 52, 40
2, 103902, Control_c, 0, 64, 127
2, 103954, Note_on_c, 0, 58, 0
2, 103970, Note_on_c, 0, 52, 0
2, 104066, Note_on_c, 0, 64, 0
2, 104070, Note_on_c, 0, 60, 0
2, 104638, Control_c, 0, 64, 0
2, 104662, Note_on_c, 0, 56, 48
2, 104670, Note_on_c, 0, 42, 43
2, 104670, Note_on_c, 0, 52, 29
2, 104670, Note_on_c, 0, 61, 50
2, 104670, Note_on_c, 0, 58, 48
2, 104674, Note_on_c, 0, 49, 42
2, 104706, Control_c, 0, 64, 127
2, 104766, Note_on_c, 0, 52, 0
2, 104790, Note_on_c, 0, 61, 0
2, 104814, Note_on_c, 0, 56, 0
2, 104818, Note_on_c, 0, 49, 0
2, 104834, Note_on_c, 0, 42, 0
2, 104838, Note_on_c, 0, 58, 0
2, 104906, Control_c, 0, 64, 0
2, 104922, Note_on_c, 0, 51, 49
2, 104938, Note_on_c, 0, 57, 47
2, 104942, Note_on_c, 0, 60, 48
2, 104950, Note_on_c, 0, 41, 36
2, 104958, Note_on_c, 0, 48, 36
2, 104994, Control_c, 0, 64, 127
2, 105030, Note_on_c, 0, 51, 0
2, 105090, Note_on_c, 0, 57, 0
2, 105090, Note_on_c, 0, 60, 0
2, 105142, Note_on_c, 0, 41, 0
2, 105174, Note_on_c, 0, 48, 0
2, 105426, Note_on_c, 0, 67, 56
2, 105438, Note_on_c, 0, 63, 43
2, 105454, Note_on_c, 0, 62, 23
2, 105538, Note_on_c, 0, 67, 0
2, 105562, Note_on_c, 0, 63, 0
2, 105570, Note_on_c, 0, 62, 0
2, 105586, Note_on_c, 0, 69, 60
2, 105634, Note_on_c, 0, 69, 0
2, 105718, Note_on_c, 0, 81, 85
2, 105750, Note_on_c, 0, 80, 47
2, 105782, Note_on_c, 0, 80, 0
2, 105806, Note_on_c, 0, 81, 0
2, 105878, Note_on_c, 0, 84, 111
2, 105906, Control_c, 0, 64, 0
2, 105946, Control_c, 0, 64, 127
2, 106022, Note_on_c, 0, 84, 0
2, 106054, Note_on_c, 0, 84, 72
2, 106150, Note_on_c, 0, 84, 0
2, 106202, Note_on_c, 0, 72, 55
2, 106346, Note_on_c, 0, 67, 48
2, 106362, Note_on_c, 0, 63, 41
2, 106394, Note_on_c, 0, 57, 25
2, 106438, Note_on_c, 0, 63, 0
2, 106438, Note_on_c, 0, 67, 0
2, 106478, Note_on_c, 0, 57, 0
2, 106646, Note_on_c, 0, 72, 0
2, 106670, Note_on_c, 0, 47, 54
2, 106730, Note_on_c, 0, 47, 0
2, 106846, Control_c, 0, 64, 0
2, 106850, Note_on_c, 0, 46, 55
2, 106854, Note_on_c, 0, 57, 52
2, 106866, Note_on_c, 0, 84, 66
2, 106870, Note_on_c, 0, 77, 61
2, 106930, Control_c, 0, 64, 127
2, 106998, Note_on_c, 0, 46, 0
2, 107026, Note_on_c, 0, 57, 0
2, 107146, Note_on_c, 0, 84, 0
2, 107170, Note_on_c, 0, 77, 0
2, 107330, Note_on_c, 0, 73, 41
2, 107334, Note_on_c, 0, 77, 56
2, 107334, Note_on_c, 0, 65, 43
2, 107338, Note_on_c, 0, 61, 46
2, 107350, Note_on_c, 0, 60, 47
2, 107470, Note_on_c, 0, 60, 0
2, 107534, Note_on_c, 0, 65, 0
2, 107558, Note_on_c, 0, 61, 0
2, 107634, Note_on_c, 0, 65, 12
2, 107634, Note_on_c, 0, 61, 31
2, 107642, Note_on_c, 0, 56, 42
2, 107674, Note_on_c, 0, 56, 0
2, 107806, Note_on_c, 0, 77, 0
2, 107814, Note_on_c, 0, 73, 0
2, 107842, Control_c, 0, 64, 0
2, 107846, Note_on_c, 0, 55, 65
2, 107938, Control_c, 0, 64, 127
2, 108082, Note_on_c, 0, 65, 0
2, 108114, Note_on_c, 0, 61, 0
2, 108334, Note_on_c, 0, 73, 46
2, 108338, Note_on_c, 0, 65, 36
2, 108338, Note_on_c, 0, 61, 42
2, 108358, Note_on_c, 0, 67, 22
2, 108390, Note_on_c, 0, 65, 0
2, 108446, Note_on_c, 0, 61, 0
2, 108462, Note_on_c, 0, 73, 0
2, 108494, Note_on_c, 0, 67, 0
2, 108534, Note_on_c, 0, 55, 0
2, 108762, Control_c, 0, 64, 0
2, 108818, Note_on_c, 0, 71, 51
2, 108822, Note_on_c, 0, 65, 46
2, 108830, Note_on_c, 0, 62, 40
2, 108830, Note_on_c, 0, 56, 48
2, 108834, Note_on_c, 0, 68, 45
2, 108846, Control_c, 0, 64, 127
2, 108898, Note_on_c, 0, 71, 0
2, 108918, Note_on_c, 0, 65, 0
2, 108930, Note_on_c, 0, 62, 0
2, 108942, Note_on_c, 0, 68, 0
2, 109118, Note_on_c, 0, 72, 63
2, 109130, Note_on_c, 0, 67, 52
2, 109138, Note_on_c, 0, 57, 52
2, 109146, Note_on_c, 0, 56, 0
2, 109150, Note_on_c, 0, 67, 0
2, 109178, Note_on_c, 0, 72, 0
2, 109238, Control_c, 0, 64, 0
2, 109266, Note_on_c, 0, 57, 0
2, 109298, Note_on_c, 0, 60, 52
2, 109298, Note_on_c, 0, 76, 58
2, 109298, Note_on_c, 0, 69, 54
2, 109314, Note_on_c, 0, 72, 50
2, 109334, Note_on_c, 0, 69, 0
2, 109338, Note_on_c, 0, 72, 0
2, 109342, Control_c, 0, 64, 127
2, 109370, Note_on_c, 0, 76, 0
2, 109398, Note_on_c, 0, 60, 0
2, 109590, Note_on_c, 0, 79, 61
2, 109598, Note_on_c, 0, 72, 49
2, 109598, Note_on_c, 0, 69, 43
2, 109622, Note_on_c, 0, 72, 0
2, 109622, Note_on_c, 0, 79, 0
2, 109626, Note_on_c, 0, 69, 0
2, 109650, Note_on_c, 0, 78, 43
2, 109682, Note_on_c, 0, 78, 0
2, 109754, Control_c, 0, 64, 0
2, 109770, Note_on_c, 0, 63, 55
2, 109790, Note_on_c, 0, 59, 48
2, 109794, Note_on_c, 0, 53, 28
2, 109814, Note_on_c, 0, 63, 0
2, 109822, Note_on_c, 0, 59, 0
2, 109858, Note_on_c, 0, 53, 0
2, 109930, Note_on_c, 0, 82, 57
2, 109938, Note_on_c, 0, 70, 46
2, 109966, Note_on_c, 0, 75, 31
2, 109982, Control_c, 0, 64, 127
2, 109986, Note_on_c, 0, 70, 0
2, 110014, Note_on_c, 0, 75, 0
2, 110018, Note_on_c, 0, 82, 0
2, 110110, Note_on_c, 0, 83, 53
2, 110114, Note_on_c, 0, 71, 44
2, 110146, Note_on_c, 0, 71, 0
2, 110178, Note_on_c, 0, 83, 0
2, 110222, Control_c, 0, 64, 0
2, 110242, Note_on_c, 0, 43, 57
2, 110246, Note_on_c, 0, 53, 50
2, 110294, Note_on_c, 0, 53, 0
2, 110302, Control_c, 0, 64, 127
2, 110310, Note_on_c, 0, 43, 0
2, 110402, Note_on_c, 0, 71, 51
2, 110486, Note_on_c, 0, 71, 0
2, 110562, Note_on_c, 0, 74, 77
2, 110674, Note_on_c, 0, 74, 0
2, 110698, Control_c, 0, 64, 0
2, 110710, Note_on_c, 0, 36, 47
2, 110730, Note_on_c, 0, 72, 54
2, 110738, Note_on_c, 0, 52, 39
2, 110786, Note_on_c, 0, 36, 0
2, 110838, Note_on_c, 0, 72, 0
2, 110866, Note_on_c, 0, 52, 0
2, 110870, Note_on_c, 0, 74, 57
2, 110906, Note_on_c, 0, 72, 48
2, 110922, Note_on_c, 0, 74, 0
2, 110950, Control_c, 0, 64, 127
2, 110982, Note_on_c, 0, 71, 57
2, 110990, Note_on_c, 0, 72, 0
2, 111054, Note_on_c, 0, 71, 0
2, 111122, Note_on_c, 0, 72, 70
2, 111170, Control_c, 0, 64, 0
2, 111194, Note_on_c, 0, 72, 0
2, 111262, Note_on_c, 0, 60, 48
2, 111266, Note_on_c, 0, 84, 82
2, 111270, Note_on_c, 0, 64, 27
2, 111290, Note_on_c, 0, 60, 0
2, 111306, Note_on_c, 0, 64, 0
2, 111326, Control_c, 0, 64, 127
2, 111450, Note_on_c, 0, 84, 0
2, 111558, Note_on_c, 0, 76, 66
2, 111718, Note_on_c, 0, 64, 44
2, 111730, Note_on_c, 0, 60, 48
2, 111738, Note_on_c, 0, 59, 37
2, 111762, Note_on_c, 0, 64, 0
2, 111774, Note_on_c, 0, 60, 0
2, 111786, Note_on_c, 0, 59, 0
2, 112042, Note_on_c, 0, 76, 0
2, 112046, Note_on_c, 0, 81, 70
2, 112102, Note_on_c, 0, 81, 0
2, 112214, Note_on_c, 0, 55, 53
2, 112218, Note_on_c, 0, 45, 55
2, 112422, Note_on_c, 0, 45, 0
2, 112422, Note_on_c, 0, 55, 0
2, 112510, Note_on_c, 0, 54, 56
2, 112510, Note_on_c, 0, 44, 65
2, 112634, Control_c, 0, 64, 56
2, 112638, Control_c, 0, 64, 0
2, 112654, Note_on_c, 0, 44, 0
2, 112654, Note_on_c, 0, 54, 0
2, 112706, Note_on_c, 0, 43, 64
2, 112710, Note_on_c, 0, 53, 57
2, 112734, Control_c, 0, 64, 127
2, 112734, Control_c, 0, 64, 40
2, 112818, Note_on_c, 0, 43, 0
2, 112870, Note_on_c, 0, 53, 0
2, 113014, Note_on_c, 0, 84, 87
2, 113018, Note_on_c, 0, 72, 82
2, 113078, Note_on_c, 0, 72, 0
2, 113106, Note_on_c, 0, 84, 0
2, 113166, Note_on_c, 0, 81, 58
2, 113194, Note_on_c, 0, 62, 54
2, 113198, Control_c, 0, 64, 0
2, 113206, Note_on_c, 0, 58, 46
2, 113210, Note_on_c, 0, 81, 0
2, 113218, Note_on_c, 0, 53, 37
2, 113254, Note_on_c, 0, 62, 0
2, 113294, Note_on_c, 0, 58, 0
2, 113318, Note_on_c, 0, 84, 75
2, 113326, Note_on_c, 0, 53, 0
2, 113334, Note_on_c, 0, 72, 48
2, 113398, Note_on_c, 0, 72, 0
2, 113426, Note_on_c, 0, 84, 0
2, 113462, Control_c, 0, 64, 127
2, 113482, Note_on_c, 0, 81, 66
2, 113506, Note_on_c, 0, 72, 23
2, 113534, Note_on_c, 0, 72, 0
2, 113570, Note_on_c, 0, 81, 0
2, 113634, Control_c, 0, 64, 0
2, 113642, Note_on_c, 0, 84, 72
2, 113646, Note_on_c, 0, 72, 59
2, 113654, Note_on_c, 0, 50, 46
2, 113710, Control_c, 0, 64, 127
2, 113722, Note_on_c, 0, 72, 0
2, 113754, Note_on_c, 0, 84, 0
2, 113766, Note_on_c, 0, 50, 0
2, 113810, Note_on_c, 0, 81, 44
2, 113854, Note_on_c, 0, 81, 0
2, 113962, Note_on_c, 0, 84, 78
2, 113970, Note_on_c, 0, 72, 68
2, 114106, Note_on_c, 0, 51, 51
2, 114146, Note_on_c, 0, 84, 0
2, 114158, Note_on_c, 0, 51, 0
2, 114158, Note_on_c, 0, 72, 0
2, 114258, Note_on_c, 0, 85, 65
2, 114274, Note_on_c, 0, 73, 43
2, 114330, Note_on_c, 0, 73, 0
2, 114346, Note_on_c, 0, 85, 0
2, 114414, Note_on_c, 0, 85, 69
2, 114422, Note_on_c, 0, 73, 60
2, 114494, Note_on_c, 0, 73, 0
2, 114526, Note_on_c, 0, 85, 0
2, 114554, Control_c, 0, 64, 0
2, 114578, Note_on_c, 0, 36, 50
2, 114594, Note_on_c, 0, 74, 60
2, 114598, Note_on_c, 0, 78, 49
2, 114598, Note_on_c, 0, 86, 55
2, 114610, Note_on_c, 0, 52, 42
2, 114630, Control_c, 0, 64, 127
2, 114658, Note_on_c, 0, 36, 0
2, 114754, Note_on_c, 0, 52, 0
2, 114758, Note_on_c, 0, 86, 0
2, 114802, Note_on_c, 0, 78, 0
2, 114814, Note_on_c, 0, 74, 0
2, 115066, Control_c, 0, 64, 0
2, 115070, Note_on_c, 0, 67, 53
2, 115074, Note_on_c, 0, 79, 59
2, 115082, Note_on_c, 0, 64, 42
2, 115082, Note_on_c, 0, 58, 43
2, 115090, Note_on_c, 0, 60, 45
2, 115206, Control_c, 0, 64, 127
2, 115266, Note_on_c, 0, 79, 0
2, 115290, Note_on_c, 0, 64, 0
2, 115302, Note_on_c, 0, 60, 0
2, 115322, Note_on_c, 0, 67, 0
2, 115346, Note_on_c, 0, 58, 0
2, 115586, Note_on_c, 0, 70, 70
2, 115594, Note_on_c, 0, 62, 58
2, 115598, Note_on_c, 0, 60, 60
2, 115970, Note_on_c, 0, 62, 0
2, 116022, Note_on_c, 0, 60, 0
2, 116062, Note_on_c, 0, 62, 49
2, 116062, Note_on_c, 0, 58, 47
2, 116066, Note_on_c, 0, 65, 51
2, 116070, Control_c, 0, 64, 0
2, 116138, Control_c, 0, 64, 127
2, 116206, Note_on_c, 0, 58, 0
2, 116274, Note_on_c, 0, 65, 0
2, 116282, Note_on_c, 0, 70, 0
2, 116290, Note_on_c, 0, 62, 0
2, 116386, Note_on_c, 0, 44, 46
2, 116478, Note_on_c, 0, 44, 0
2, 116534, Control_c, 0, 64, 0
2, 116558, Note_on_c, 0, 62, 53
2, 116558, Note_on_c, 0, 58, 42
2, 116562, Note_on_c, 0, 43, 49
2, 116562, Note_on_c, 0, 53, 41
2, 116602, Control_c, 0, 64, 127
2, 116630, Note_on_c, 0, 58, 0
2, 116630, Note_on_c, 0, 62, 0
2, 116638, Note_on_c, 0, 43, 0
2, 116690, Note_on_c, 0, 53, 0
2, 116846, Note_on_c, 0, 84, 82
2, 116850, Note_on_c, 0, 72, 66
2, 116934, Note_on_c, 0, 72, 0
2, 116942, Note_on_c, 0, 84, 0
2, 116994, Note_on_c, 0, 62, 59
2, 117006, Note_on_c, 0, 58, 51
2, 117006, Note_on_c, 0, 84, 56
2, 117018, Note_on_c, 0, 62, 0
2, 117018, Note_on_c, 0, 72, 57
2, 117018, Note_on_c, 0, 53, 34
2, 117018, Control_c, 0, 64, 0
2, 117034, Note_on_c, 0, 58, 0
2, 117082, Note_on_c, 0, 84, 0
2, 117086, Note_on_c, 0, 72, 0
2, 117090, Note_on_c, 0, 53, 0
2, 117318, Note_on_c, 0, 84, 81
2, 117326, Note_on_c, 0, 72, 69
2, 117398, Note_on_c, 0, 84, 0
2, 117410, Note_on_c, 0, 72, 0
2, 117474, Note_on_c, 0, 50, 36
2, 117526, Note_on_c, 0, 81, 40
2, 117570, Note_on_c, 0, 81, 0
2, 117614, Note_on_c, 0, 50, 0
2, 117642, Note_on_c, 0, 84, 75
2, 117654, Note_on_c, 0, 72, 56
2, 117694, Control_c, 0, 64, 127
2, 117710, Note_on_c, 0, 72, 0
2, 117746, Note_on_c, 0, 84, 0
2, 117814, Note_on_c, 0, 81, 42
2, 117846, Note_on_c, 0, 81, 0
2, 117922, Control_c, 0, 64, 0
2, 117934, Note_on_c, 0, 37, 49
2, 117942, Note_on_c, 0, 49, 37
2, 117942, Note_on_c, 0, 85, 67
2, 117962, Note_on_c, 0, 73, 46
2, 117986, Note_on_c, 0, 49, 0
2, 118006, Note_on_c, 0, 73, 0
2, 118018, Note_on_c, 0, 37, 0
2, 118050, Note_on_c, 0, 85, 0
2, 118110, Note_on_c, 0, 82, 39
2, 118142, Note_on_c, 0, 82, 0
2, 118270, Note_on_c, 0, 74, 66
2, 118270, Note_on_c, 0, 86, 61
2, 118278, Note_on_c, 0, 82, 45
2, 118290, Note_on_c, 0, 79, 40
2, 118322, Note_on_c, 0, 79, 0
2, 118334, Note_on_c, 0, 86, 0
2, 118350, Note_on_c, 0, 74, 0
2, 118354, Note_on_c, 0, 82, 0
2, 118382, Control_c, 0, 64, 127
2, 118386, Note_on_c, 0, 36, 49
2, 118430, Note_on_c, 0, 52, 34
2, 118466, Note_on_c, 0, 36, 0
2, 118542, Note_on_c, 0, 52, 0
2, 118582, Note_on_c, 0, 79, 57
2, 118590, Note_on_c, 0, 67, 46
2, 118922, Note_on_c, 0, 64, 48
2, 118930, Note_on_c, 0, 58, 39
2, 118982, Note_on_c, 0, 64, 0
2, 119022, Note_on_c, 0, 58, 0
2, 119046, Note_on_c, 0, 79, 0
2, 119090, Note_on_c, 0, 67, 0
2, 119418, Control_c, 0, 64, 0
2, 119434, Note_on_c, 0, 70, 58
2, 119438, Note_on_c, 0, 48, 49
2, 119438, Note_on_c, 0, 58, 48
2, 119442, Note_on_c, 0, 64, 52
2, 119446, Note_on_c, 0, 74, 54
2, 119490, Control_c, 0, 64, 127
2, 119554, Note_on_c, 0, 48, 0
2, 119578, Note_on_c, 0, 58, 0
2, 119590, Note_on_c, 0, 74, 0
2, 119622, Note_on_c, 0, 70, 0
2, 119638, Note_on_c, 0, 64, 0
2, 119938, Control_c, 0, 64, 0
2, 119942, Note_on_c, 0, 68, 44
2, 119946, Note_on_c, 0, 63, 54
2, 119958, Note_on_c, 0, 57, 34
2, 119958, Note_on_c, 0, 42, 41
2, 119974, Note_on_c, 0, 52, 30
2, 120018, Control_c, 0, 64, 127
2, 120090, Note_on_c, 0, 52, 0
2, 120218, Note_on_c, 0, 57, 0
2, 120282, Note_on_c, 0, 68, 0
2, 120302, Note_on_c, 0, 63, 0
2, 120318, Note_on_c, 0, 42, 0
2, 120446, Control_c, 0, 64, 0
2, 120470, Note_on_c, 0, 51, 45
2, 120470, Note_on_c, 0, 57, 45
2, 120478, Note_on_c, 0, 62, 54
2, 120478, Note_on_c, 0, 67, 49
2, 120486, Note_on_c, 0, 41, 41
2, 120582, Control_c, 0, 64, 127
2, 120786, Note_on_c, 0, 62, 0
2, 120798, Note_on_c, 0, 57, 0
2, 120818, Note_on_c, 0, 51, 0
2, 120950, Control_c, 0, 64, 0
2, 120978, Note_on_c, 0, 61, 58
2, 120982, Note_on_c, 0, 51, 45
2, 120990, Note_on_c, 0, 57, 46
2, 121078, Control_c, 0, 64, 127
2, 121122, Note_on_c, 0, 41, 0
2, 121230, Note_on_c, 0, 51, 0
2, 121282, Note_on_c, 0, 57, 0
2, 121310, Note_on_c, 0, 41, 60
2, 121338, Note_on_c, 0, 61, 0
2, 121354, Note_on_c, 0, 67, 0
2, 121402, Control_c, 0, 64, 0
2, 121450, Control_c, 0, 64, 127
2, 121478, Note_on_c, 0, 57, 54
2, 121478, Note_on_c, 0, 60, 53
2, 121482, Note_on_c, 0, 53, 43
2, 121534, Note_on_c, 0, 57, 0
2, 121566, Note_on_c, 0, 60, 0
2, 121570, Note_on_c, 0, 41, 0
2, 121634, Note_on_c, 0, 53, 0
2, 121798, Note_on_c, 0, 72, 86
2, 121806, Note_on_c, 0, 65, 88
2, 121826, Note_on_c, 0, 70, 46
2, 121854, Note_on_c, 0, 70, 0
2, 121906, Note_on_c, 0, 72, 0
2, 121910, Note_on_c, 0, 65, 0
2, 122006, Note_on_c, 0, 72, 85
2, 122010, Note_on_c, 0, 65, 89
2, 122150, Note_on_c, 0, 72, 0
2, 122190, Note_on_c, 0, 65, 0
2, 122310, Note_on_c, 0, 72, 70
2, 122410, Note_on_c, 0, 72, 0
2, 122506, Control_c, 0, 64, 0
2, 122522, Note_on_c, 0, 72, 60
2, 122530, Note_on_c, 0, 46, 52
2, 122534, Note_on_c, 0, 64, 59
2, 122538, Note_on_c, 0, 61, 50
2, 122542, Note_on_c, 0, 69, 48
2, 122554, Note_on_c, 0, 54, 44
2, 122662, Control_c, 0, 64, 127
2, 122794, Note_on_c, 0, 54, 0
2, 122830, Note_on_c, 0, 55, 49
2, 122910, Note_on_c, 0, 64, 0
2, 122922, Note_on_c, 0, 46, 0
2, 123022, Note_on_c, 0, 61, 0
2, 123050, Note_on_c, 0, 69, 0
2, 123054, Control_c, 0, 64, 0
2, 123074, Note_on_c, 0, 55, 0
2, 123074, Note_on_c, 0, 61, 57
2, 123086, Note_on_c, 0, 56, 49
2, 123086, Note_on_c, 0, 65, 66
2, 123338, Note_on_c, 0, 57, 54
2, 123346, Note_on_c, 0, 56, 0
2, 123350, Control_c, 0, 64, 127
2, 123366, Note_on_c, 0, 57, 0
2, 123602, Note_on_c, 0, 46, 63
2, 123610, Note_on_c, 0, 72, 0
2, 123674, Note_on_c, 0, 65, 0
2, 123714, Note_on_c, 0, 61, 0
2, 123806, Control_c, 0, 64, 0
2, 123838, Note_on_c, 0, 46, 0
2, 123854, Note_on_c, 0, 39, 57
2, 124058, Control_c, 0, 64, 127
2, 124106, Note_on_c, 0, 46, 41
2, 124106, Note_on_c, 0, 61, 56
2, 124118, Note_on_c, 0, 57, 45
2, 124170, Note_on_c, 0, 39, 0
2, 124210, Note_on_c, 0, 46, 0
2, 124226, Note_on_c, 0, 57, 0
2, 124290, Note_on_c, 0, 61, 0
2, 124374, Note_on_c, 0, 46, 48
2, 124410, Note_on_c, 0, 46, 0
2, 124590, Control_c, 0, 64, 0
2, 124618, Note_on_c, 0, 56, 48
2, 124626, Note_on_c, 0, 71, 57
2, 124634, Note_on_c, 0, 68, 47
2, 124634, Note_on_c, 0, 65, 55
2, 124634, Note_on_c, 0, 62, 49
2, 124694, Control_c, 0, 64, 127
2, 124710, Note_on_c, 0, 71, 0
2, 124794, Note_on_c, 0, 62, 0
2, 124798, Note_on_c, 0, 68, 0
2, 124810, Note_on_c, 0, 65, 0
2, 124890, Note_on_c, 0, 56, 0
2, 124890, Note_on_c, 0, 72, 63
2, 124894, Note_on_c, 0, 65, 49
2, 124894, Note_on_c, 0, 57, 57
2, 124906, Note_on_c, 0, 62, 48
2, 124938, Note_on_c, 0, 62, 0
2, 124958, Note_on_c, 0, 65, 0
2, 124974, Note_on_c, 0, 57, 0
2, 124998, Note_on_c, 0, 72, 0
2, 125266, Control_c, 0, 64, 0
2, 125302, Note_on_c, 0, 76, 69
2, 125306, Note_on_c, 0, 67, 55
2, 125306, Note_on_c, 0, 60, 60
2, 125318, Note_on_c, 0, 71, 48
2, 125330, Note_on_c, 0, 67, 0
2, 125342, Note_on_c, 0, 71, 0
2, 125346, Note_on_c, 0, 60, 0
2, 125366, Note_on_c, 0, 76, 0
2, 125486, Note_on_c, 0, 79, 75
2, 125494, Note_on_c, 0, 62, 48
2, 125498, Note_on_c, 0, 74, 67
2, 125502, Note_on_c, 0, 69, 49
2, 125514, Note_on_c, 0, 62, 0
2, 125526, Note_on_c, 0, 69, 0
2, 125538, Note_on_c, 0, 79, 0
2, 125542, Note_on_c, 0, 74, 0
2, 125682, Control_c, 0, 64, 127
2, 125702, Note_on_c, 0, 68, 57
2, 125706, Note_on_c, 0, 53, 43
2, 125710, Note_on_c, 0, 80, 49
2, 125714, Note_on_c, 0, 59, 39
2, 125750, Note_on_c, 0, 59, 0
2, 125802, Note_on_c, 0, 53, 0
2, 125962, Note_on_c, 0, 68, 0
2, 125970, Note_on_c, 0, 80, 0
2, 126038, Note_on_c, 0, 81, 59
2, 126038, Note_on_c, 0, 69, 48
2, 126046, Note_on_c, 0, 74, 54
2, 126066, Note_on_c, 0, 69, 0
2, 126070, Note_on_c, 0, 74, 0
2, 126074, Note_on_c, 0, 81, 0
2, 126134, Control_c, 0, 64, 0
2, 126174, Control_c, 0, 64, 127
2, 126202, Note_on_c, 0, 43, 44
2, 126226, Note_on_c, 0, 53, 27
2, 126282, Note_on_c, 0, 43, 0
2, 126286, Note_on_c, 0, 53, 0
2, 126498, Note_on_c, 0, 71, 59
2, 126614, Note_on_c, 0, 71, 0
2, 126650, Control_c, 0, 64, 40
2, 126654, Control_c, 0, 64, 0
2, 126670, Note_on_c, 0, 36, 45
2, 126698, Note_on_c, 0, 52, 50
2, 126698, Note_on_c, 0, 72, 53
2, 126702, Note_on_c, 0, 67, 45
2, 126754, Control_c, 0, 64, 127
2, 126826, Note_on_c, 0, 36, 0
2, 126842, Note_on_c, 0, 72, 0
2, 126846, Note_on_c, 0, 67, 0
2, 126858, Note_on_c, 0, 52, 0
2, 127138, Control_c, 0, 64, 0
2, 127166, Note_on_c, 0, 38, 50
2, 127170, Note_on_c, 0, 53, 43
2, 127210, Control_c, 0, 64, 127
2, 127278, Note_on_c, 0, 38, 0
2, 127298, Note_on_c, 0, 53, 0
2, 127630, Control_c, 0, 64, 0
2, 127654, Note_on_c, 0, 39, 52
2, 127658, Note_on_c, 0, 54, 51
2, 127706, Control_c, 0, 64, 127
2, 127782, Note_on_c, 0, 54, 0
2, 127798, Note_on_c, 0, 39, 0
2, 128098, Control_c, 0, 64, 0
2, 128142, Note_on_c, 0, 40, 58
2, 128182, Control_c, 0, 64, 127
2, 128214, Note_on_c, 0, 40, 0
2, 128466, Note_on_c, 0, 42, 43
2, 128486, Note_on_c, 0, 58, 63
2, 128606, Note_on_c, 0, 42, 0
2, 128622, Note_on_c, 0, 58, 0
2, 128638, Control_c, 0, 64, 0
2, 128690, Note_on_c, 0, 56, 61
2, 128694, Note_on_c, 0, 41, 48
2, 128694, Note_on_c, 0, 51, 40
2, 128734, Control_c, 0, 64, 127
2, 128810, Note_on_c, 0, 41, 0
2, 128858, Note_on_c, 0, 56, 0
2, 128874, Note_on_c, 0, 51, 0
2, 129166, Note_on_c, 0, 63, 49
2, 129202, Note_on_c, 0, 56, 39
2, 129210, Note_on_c, 0, 60, 28
2, 129210, Note_on_c, 0, 53, 22
2, 129250, Note_on_c, 0, 53, 0
2, 129266, Note_on_c, 0, 63, 0
2, 129270, Note_on_c, 0, 60, 0
2, 129298, Note_on_c, 0, 56, 0
2, 129334, Note_on_c, 0, 80, 72
2, 129338, Note_on_c, 0, 72, 66
2, 129422, Note_on_c, 0, 80, 0
2, 129446, Note_on_c, 0, 72, 0
2, 129486, Note_on_c, 0, 75, 66
2, 129490, Note_on_c, 0, 68, 52
2, 129502, Note_on_c, 0, 72, 39
2, 129534, Note_on_c, 0, 72, 0
2, 129578, Note_on_c, 0, 68, 0
2, 129594, Note_on_c, 0, 75, 0
2, 129618, Control_c, 0, 64, 0
2, 129638, Note_on_c, 0, 63, 52
2, 129646, Note_on_c, 0, 79, 66
2, 129650, Note_on_c, 0, 71, 52
2, 129666, Note_on_c, 0, 60, 46
2, 129686, Note_on_c, 0, 74, 32
2, 129722, Control_c, 0, 64, 127
2, 129794, Note_on_c, 0, 63, 0
2, 129802, Note_on_c, 0, 60, 0
2, 129922, Note_on_c, 0, 74, 0
2, 129970, Note_on_c, 0, 71, 0
2, 130106, Note_on_c, 0, 79, 0
2, 130130, Control_c, 0, 64, 0
2, 130154, Note_on_c, 0, 71, 45
2, 130158, Note_on_c, 0, 56, 43
2, 130158, Note_on_c, 0, 67, 35
2, 130158, Note_on_c, 0, 74, 41
2, 130174, Note_on_c, 0, 46, 39
2, 130222, Control_c, 0, 64, 127
2, 130250, Note_on_c, 0, 56, 0
2, 130270, Note_on_c, 0, 46, 0
2, 130498, Note_on_c, 0, 67, 0
2, 130610, Note_on_c, 0, 71, 0
2, 130622, Control_c, 0, 64, 0
2, 130642, Note_on_c, 0, 36, 52
2, 130666, Note_on_c, 0, 52, 43
2, 130674, Note_on_c, 0, 74, 0
2, 130698, Control_c, 0, 64, 127
2, 130758, Note_on_c, 0, 36, 0
2, 130842, Note_on_c, 0, 52, 0
2, 130926, Note_on_c, 0, 83, 75
2, 130938, Note_on_c, 0, 76, 77
2, 131026, Note_on_c, 0, 83, 0
2, 131050, Note_on_c, 0, 76, 0
2, 131058, Note_on_c, 0, 71, 59
2, 131066, Note_on_c, 0, 79, 63
2, 131078, Note_on_c, 0, 78, 40
2, 131138, Control_c, 0, 64, 0
2, 131158, Note_on_c, 0, 78, 0
2, 131162, Note_on_c, 0, 71, 0
2, 131166, Note_on_c, 0, 62, 57
2, 131170, Note_on_c, 0, 79, 0
2, 131178, Note_on_c, 0, 57, 50
2, 131186, Note_on_c, 0, 52, 48
2, 131202, Note_on_c, 0, 83, 74
2, 131202, Note_on_c, 0, 76, 72
2, 131226, Note_on_c, 0, 71, 47
2, 131262, Control_c, 0, 64, 127
2, 131310, Note_on_c, 0, 83, 0
2, 131330, Note_on_c, 0, 76, 0
2, 131374, Note_on_c, 0, 71, 0
2, 131414, Note_on_c, 0, 57, 0
2, 131434, Note_on_c, 0, 62, 0
2, 131506, Note_on_c, 0, 79, 86
2, 131506, Note_on_c, 0, 71, 79
2, 131634, Note_on_c, 0, 71, 0
2, 131646, Note_on_c, 0, 79, 0
2, 131698, Note_on_c, 0, 62, 49
2, 131702, Note_on_c, 0, 74, 68
2, 131702, Note_on_c, 0, 59, 48
2, 131706, Note_on_c, 0, 71, 50
2, 131706, Note_on_c, 0, 67, 57
2, 131814, Note_on_c, 0, 52, 0
2, 131858, Note_on_c, 0, 74, 0
2, 131882, Note_on_c, 0, 71, 0
2, 131910, Note_on_c, 0, 62, 0
2, 131930, Note_on_c, 0, 67, 0
2, 131998, Note_on_c, 0, 52, 58
2, 132082, Note_on_c, 0, 59, 0
2, 132106, Note_on_c, 0, 52, 0
2, 132182, Note_on_c, 0, 67, 59
2, 132186, Note_on_c, 0, 71, 60
2, 132186, Note_on_c, 0, 64, 61
2, 132194, Note_on_c, 0, 62, 43
2, 132198, Note_on_c, 0, 59, 40
2, 132198, Note_on_c, 0, 52, 26
2, 132230, Note_on_c, 0, 62, 0
2, 132234, Note_on_c, 0, 59, 0
2, 132298, Note_on_c, 0, 71, 0
2, 132322, Note_on_c, 0, 52, 0
2, 132330, Note_on_c, 0, 67, 0
2, 132406, Note_on_c, 0, 64, 0
2, 132486, Note_on_c, 0, 53, 59
2, 132518, Note_on_c, 0, 53, 0
2, 132650, Control_c, 0, 64, 0
2, 132658, Note_on_c, 0, 70, 66
2, 132666, Note_on_c, 0, 58, 66
2, 132666, Note_on_c, 0, 60, 75
2, 132666, Note_on_c, 0, 63, 67
2, 132678, Note_on_c, 0, 67, 50
2, 132806, Control_c, 0, 64, 127
2, 132894, Note_on_c, 0, 60, 0
2, 132914, Note_on_c, 0, 67, 0
2, 132922, Note_on_c, 0, 70, 0
2, 132942, Note_on_c, 0, 63, 0
2, 132974, Note_on_c, 0, 63, 39
2, 132982, Note_on_c, 0, 60, 60
2, 132982, Note_on_c, 0, 56, 60
2, 132986, Note_on_c, 0, 68, 57
2, 132990, Note_on_c, 0, 58, 0
2, 133078, Note_on_c, 0, 60, 0
2, 133122, Note_on_c, 0, 63, 0
2, 133174, Note_on_c, 0, 68, 0
2, 133174, Note_on_c, 0, 56, 0
2, 133350, Note_on_c, 0, 63, 61
2, 133486, Note_on_c, 0, 60, 57
2, 133526, Note_on_c, 0, 60, 0
2, 133590, Note_on_c, 0, 63, 0
2, 133602, Control_c, 0, 64, 0
2, 133654, Note_on_c, 0, 46, 47
2, 133658, Note_on_c, 0, 59, 56
2, 133658, Note_on_c, 0, 65, 56
2, 133666, Note_on_c, 0, 62, 58
2, 133670, Note_on_c, 0, 56, 42
2, 133738, Control_c, 0, 64, 127
2, 133942, Note_on_c, 0, 62, 0
2, 133966, Note_on_c, 0, 59, 0
2, 134034, Note_on_c, 0, 56, 0
2, 134038, Note_on_c, 0, 65, 0
2, 134146, Control_c, 0, 64, 0
2, 134170, Note_on_c, 0, 63, 57
2, 134174, Note_on_c, 0, 56, 48
2, 134174, Note_on_c, 0, 67, 52
2, 134178, Note_on_c, 0, 59, 48
2, 134222, Control_c, 0, 64, 127
2, 134222, Control_c, 0, 64, 88
2, 134262, Note_on_c, 0, 56, 0
2, 134318, Note_on_c, 0, 46, 0
2, 134406, Note_on_c, 0, 59, 0
2, 134542, Note_on_c, 0, 67, 0
2, 134562, Note_on_c, 0, 63, 0
2, 134658, Control_c, 0, 64, 0
2, 134666, Note_on_c, 0, 36, 44
2, 134674, Note_on_c, 0, 59, 49
2, 134678, Note_on_c, 0, 67, 57
2, 134678, Note_on_c, 0, 64, 56
2, 134694, Note_on_c, 0, 52, 36
2, 134798, Control_c, 0, 64, 127
2, 134926, Note_on_c, 0, 59, 0
2, 134966, Note_on_c, 0, 64, 0
2, 135058, Note_on_c, 0, 67, 0
2, 135090, Note_on_c, 0, 52, 0
2, 135122, Control_c, 0, 64, 0
2, 135154, Note_on_c, 0, 69, 68
2, 135162, Note_on_c, 0, 64, 62
2, 135166, Note_on_c, 0, 60, 54
2, 135174, Note_on_c, 0, 43, 54
2, 135198, Control_c, 0, 64, 127
2, 135222, Note_on_c, 0, 36, 0
2, 135282, Note_on_c, 0, 43, 0
2, 135322, Note_on_c, 0, 60, 0
2, 135346, Note_on_c, 0, 69, 0
2, 135430, Note_on_c, 0, 64, 0
2, 135610, Control_c, 0, 64, 0
2, 135658, Note_on_c, 0, 71, 69
2, 135658, Note_on_c, 0, 64, 70
2, 135662, Note_on_c, 0, 67, 67
2, 135666, Note_on_c, 0, 62, 63
2, 135674, Note_on_c, 0, 55, 65
2, 135690, Control_c, 0, 64, 127
2, 135842, Note_on_c, 0, 62, 0
2, 135862, Note_on_c, 0, 64, 0
2, 135866, Note_on_c, 0, 67, 0
2, 135882, Note_on_c, 0, 71, 0
2, 136150, Note_on_c, 0, 59, 66
2, 136154, Note_on_c, 0, 74, 83
2, 136154, Note_on_c, 0, 67, 72
2, 136158, Note_on_c, 0, 64, 72
2, 136178, Note_on_c, 0, 70, 39
2, 136214, Note_on_c, 0, 70, 0
2, 136238, Note_on_c, 0, 59, 0
2, 136254, Note_on_c, 0, 55, 0
2, 136370, Note_on_c, 0, 67, 0
2, 136386, Note_on_c, 0, 64, 0
2, 136610, Note_on_c, 0, 74, 0
2, 136614, Control_c, 0, 64, 0
2, 136650, Note_on_c, 0, 68, 57
2, 136650, Note_on_c, 0, 64, 53
2, 136658, Note_on_c, 0, 44, 52
2, 136666, Note_on_c, 0, 54, 43
2, 136714, Control_c, 0, 64, 127
2, 136754, Note_on_c, 0, 44, 0
2, 136782, Note_on_c, 0, 54, 0
2, 136822, Note_on_c, 0, 64, 0
2, 136906, Note_on_c, 0, 68, 0
2, 137106, Note_on_c, 0, 63, 48
2, 137126, Note_on_c, 0, 58, 39
2, 137138, Note_on_c, 0, 59, 44
2, 137174, Control_c, 0, 64, 0
2, 137182, Control_c, 0, 64, 127
2, 137274, Note_on_c, 0, 92, 78
2, 137274, Note_on_c, 0, 80, 67
2, 137354, Note_on_c, 0, 80, 0
2, 137354, Note_on_c, 0, 92, 0
2, 137442, Note_on_c, 0, 63, 0
2, 137442, Note_on_c, 0, 92, 85
2, 137450, Note_on_c, 0, 80, 73
2, 137510, Note_on_c, 0, 59, 0
2, 137530, Note_on_c, 0, 58, 0
2, 137542, Note_on_c, 0, 80, 0
2, 137550, Note_on_c, 0, 92, 0
2, 137550, Control_c, 0, 64, 0
2, 137582, Note_on_c, 0, 63, 54
2, 137598, Note_on_c, 0, 59, 50
2, 137602, Note_on_c, 0, 53, 48
2, 137626, Note_on_c, 0, 92, 73
2, 137630, Note_on_c, 0, 80, 63
2, 137666, Control_c, 0, 64, 127
2, 137694, Note_on_c, 0, 63, 0
2, 137726, Note_on_c, 0, 59, 0
2, 137726, Note_on_c, 0, 53, 0
2, 138098, Note_on_c, 0, 37, 50
2, 138322, Note_on_c, 0, 37, 0
2, 138450, Note_on_c, 0, 80, 0
2, 138482, Note_on_c, 0, 92, 0
2, 138518, Note_on_c, 0, 90, 6
2, 138550, Note_on_c, 0, 90, 0
2, 138610, Control_c, 0, 64, 0
2, 138622, Note_on_c, 0, 91, 63
2, 138626, Note_on_c, 0, 39, 54
2, 138626, Note_on_c, 0, 79, 49
2, 138634, Note_on_c, 0, 46, 45
2, 138634, Note_on_c, 0, 86, 58
2, 138674, Note_on_c, 0, 91, 0
2, 138678, Control_c, 0, 64, 127
2, 138698, Note_on_c, 0, 86, 0
2, 138746, Note_on_c, 0, 79, 0
2, 138942, Note_on_c, 0, 39, 0
2, 138954, Note_on_c, 0, 46, 0
2, 139106, Note_on_c, 0, 68, 57
2, 139114, Control_c, 0, 64, 0
2, 139118, Note_on_c, 0, 63, 58
2, 139122, Note_on_c, 0, 56, 54
2, 139134, Note_on_c, 0, 41, 54
2, 139138, Note_on_c, 0, 48, 49
2, 139206, Control_c, 0, 64, 127
2, 139342, Note_on_c, 0, 41, 0
2, 139354, Note_on_c, 0, 56, 0
2, 139354, Note_on_c, 0, 48, 0
2, 139394, Note_on_c, 0, 68, 0
2, 139402, Note_on_c, 0, 63, 0
2, 139606, Control_c, 0, 64, 0
2, 139614, Note_on_c, 0, 70, 75
2, 139622, Note_on_c, 0, 65, 72
2, 139622, Note_on_c, 0, 58, 68
2, 139630, Note_on_c, 0, 50, 58
2, 139638, Note_on_c, 0, 43, 54
2, 139726, Control_c, 0, 64, 127
2, 140030, Note_on_c, 0, 58, 0
2, 140102, Note_on_c, 0, 65, 0
2, 140150, Note_on_c, 0, 58, 47
2, 140186, Note_on_c, 0, 65, 12
2, 140298, Note_on_c, 0, 65, 0
2, 140306, Note_on_c, 0, 50, 0
2, 140314, Note_on_c, 0, 70, 0
2, 140318, Note_on_c, 0, 43, 0
2, 140362, Note_on_c, 0, 58, 0
2, 140634, Control_c, 0, 64, 24
2, 140638, Control_c, 0, 64, 0
2, 140658, Note_on_c, 0, 66, 67
2, 140658, Note_on_c, 0, 39, 62
2, 140666, Note_on_c, 0, 58, 71
2, 140670, Note_on_c, 0, 54, 45
2, 140670, Note_on_c, 0, 61, 60
2, 140746, Control_c, 0, 64, 127
2, 140882, Note_on_c, 0, 58, 0
2, 140910, Note_on_c, 0, 61, 0
2, 140922, Note_on_c, 0, 66, 0
2, 140994, Note_on_c, 0, 54, 0
2, 141174, Note_on_c, 0, 54, 47
2, 141318, Note_on_c, 0, 39, 0
2, 141426, Note_on_c, 0, 68, 69
2, 141498, Note_on_c, 0, 54, 0
2, 141514, Note_on_c, 0, 68, 0
2, 141682, Control_c, 0, 64, 0
2, 141698, Note_on_c, 0, 70, 66
2, 141706, Note_on_c, 0, 44, 56
2, 141710, Note_on_c, 0, 60, 61
2, 141718, Note_on_c, 0, 65, 59
2, 141958, Note_on_c, 0, 54, 82
2, 142158, Note_on_c, 0, 54, 0
2, 142174, Control_c, 0, 64, 104
2, 142178, Control_c, 0, 64, 127
2, 142222, Note_on_c, 0, 54, 76
2, 142370, Note_on_c, 0, 44, 0
2, 142418, Note_on_c, 0, 60, 0
2, 142454, Note_on_c, 0, 65, 0
2, 142458, Note_on_c, 0, 70, 0
2, 142482, Note_on_c, 0, 44, 71
2, 142522, Note_on_c, 0, 54, 0
2, 142586, Note_on_c, 0, 44, 0
2, 142762, Control_c, 0, 64, 0
2, 142774, Note_on_c, 0, 64, 85
2, 142774, Note_on_c, 0, 67, 83
2, 142774, Note_on_c, 0, 60, 87
2, 142778, Note_on_c, 0, 55, 81
2, 142938, Control_c, 0, 64, 127
2, 143014, Control_c, 0, 64, 0
2, 143038, Note_on_c, 0, 55, 0
2, 143074, Note_on_c, 0, 50, 82
2, 143090, Control_c, 0, 64, 127
2, 143358, Note_on_c, 0, 50, 0
2, 143398, Note_on_c, 0, 45, 63
2, 143514, Note_on_c, 0, 60, 0
2, 143562, Note_on_c, 0, 64, 0
2, 143630, Note_on_c, 0, 45, 0
2, 143650, Note_on_c, 0, 67, 0
2, 143714, Note_on_c, 0, 69, 63
2, 143718, Note_on_c, 0, 43, 56
2, 143718, Note_on_c, 0, 60, 56
2, 143722, Note_on_c, 0, 65, 57
2, 143798, Note_on_c, 0, 60, 0
2, 143798, Note_on_c, 0, 43, 0
2, 143818, Note_on_c, 0, 65, 0
2, 143826, Note_on_c, 0, 69, 0
2, 144062, Control_c, 0, 64, 0
2, 144090, Note_on_c, 0, 71, 63
2, 144098, Note_on_c, 0, 64, 63
2, 144106, Note_on_c, 0, 43, 48
2, 144106, Note_on_c, 0, 31, 56
2, 144106, Note_on_c, 0, 59, 51
2, 144150, Control_c, 0, 64, 127
2, 144182, Note_on_c, 0, 59, 0
2, 144182, Note_on_c, 0, 31, 0
2, 144214, Note_on_c, 0, 64, 0
2, 144234, Note_on_c, 0, 43, 0
2, 144258, Note_on_c, 0, 71, 0
2, 144518, Note_on_c, 0, 83, 55
2, 144522, Note_on_c, 0, 64, 39
2, 144530, Note_on_c, 0, 76, 49
2, 144530, Note_on_c, 0, 59, 43
2, 144534, Note_on_c, 0, 71, 39
2, 144542, Note_on_c, 0, 53, 38
2, 144702, Note_on_c, 0, 53, 0
2, 144726, Note_on_c, 0, 64, 0
2, 144734, Note_on_c, 0, 71, 0
2, 144766, Note_on_c, 0, 76, 0
2, 144778, Note_on_c, 0, 83, 0
2, 144786, Note_on_c, 0, 59, 0
2, 144966, Note_on_c, 0, 83, 52
2, 144978, Note_on_c, 0, 71, 40
2, 144986, Note_on_c, 0, 76, 48
2, 144990, Note_on_c, 0, 53, 36
2, 144990, Note_on_c, 0, 64, 31
2, 144990, Note_on_c, 0, 59, 39
2, 145138, Note_on_c, 0, 64, 0
2, 145174, Note_on_c, 0, 53, 0
2, 145190, Note_on_c, 0, 71, 0
2, 145226, Note_on_c, 0, 76, 0
2, 145238, Note_on_c, 0, 59, 0
2, 145254, Note_on_c, 0, 83, 0
2, 145506, Note_on_c, 0, 83, 45
2, 145522, Note_on_c, 0, 76, 38
2, 145530, Note_on_c, 0, 71, 26
2, 145534, Note_on_c, 0, 59, 31
2, 145534, Note_on_c, 0, 64, 20
2, 145542, Note_on_c, 0, 53, 22
2, 145586, Note_on_c, 0, 64, 0
2, 145610, Note_on_c, 0, 59, 0
2, 145618, Note_on_c, 0, 71, 0
2, 145650, Note_on_c, 0, 53, 0
2, 145662, Note_on_c, 0, 76, 0
2, 145666, Note_on_c, 0, 83, 0
2, 147142, Note_on_c, 0, 36, 39
2, 147246, Note_on_c, 0, 48, 40
2, 147266, Note_on_c, 0, 36, 0
2, 147354, Note_on_c, 0, 48, 0
2, 147378, Note_on_c, 0, 36, 50
2, 147458, Note_on_c, 0, 36, 0
2, 147494, Note_on_c, 0, 48, 35
2, 147550, Note_on_c, 0, 48, 0
2, 147606, Note_on_c, 0, 36, 41
2, 147678, Note_on_c, 0, 36, 0
2, 147714, Note_on_c, 0, 48, 37
2, 147750, Note_on_c, 0, 48, 0
2, 147798, Note_on_c, 0, 36, 40
2, 147850, Note_on_c, 0, 36, 0
2, 147890, Note_on_c, 0, 48, 45
2, 147922, Note_on_c, 0, 48, 0
2, 147958, Note_on_c, 0, 36, 54
2, 147994, Note_on_c, 0, 36, 0
2, 148042, Note_on_c, 0, 48, 49
2, 148086, Note_on_c, 0, 48, 0
2, 148110, Note_on_c, 0, 36, 56
2, 148154, Note_on_c, 0, 36, 0
2, 148206, Note_on_c, 0, 48, 49
2, 148234, Note_on_c, 0, 48, 0
2, 148278, Note_on_c, 0, 36, 42
2, 148318, Note_on_c, 0, 36, 0
2, 148330, Note_on_c, 0, 48, 54
2, 148446, Note_on_c, 0, 48, 0
2, 148466, Note_on_c, 0, 36, 57
2, 148566, Note_on_c, 0, 36, 0
2, 148622, Note_on_c, 0, 36, 54
2, 148754, Note_on_c, 0, 24, 60
2, 148758, Note_on_c, 0, 36, 0
2, 148834, Note_on_c, 0, 24, 0
2, 148878, Note_on_c, 0, 36, 43
2, 148938, Note_on_c, 0, 24, 44
2, 148950, Note_on_c, 0, 36, 0
2, 149022, Note_on_c, 0, 24, 0
2, 149050, Note_on_c, 0, 36, 47
2, 149122, Note_on_c, 0, 36, 0
2, 149134, Note_on_c, 0, 24, 55
2, 149214, Note_on_c, 0, 24, 0
2, 149230, Note_on_c, 0, 36, 50
2, 149270, Note_on_c, 0, 36, 0
2, 149298, Note_on_c, 0, 24, 55
2, 149386, Note_on_c, 0, 24, 0
2, 149390, Note_on_c, 0, 36, 58
2, 149450, Note_on_c, 0, 24, 68
2, 149458, Note_on_c, 0, 36, 0
2, 149522, Note_on_c, 0, 84, 77
2, 149522, Note_on_c, 0, 36, 62
2, 149530, Note_on_c, 0, 24, 0
2, 149546, Note_on_c, 0, 72, 68
2, 149586, Note_on_c, 0, 24, 65
2, 149614, Note_on_c, 0, 36, 0
2, 149682, Note_on_c, 0, 24, 0
2, 149682, Note_on_c, 0, 36, 55
2, 149746, Note_on_c, 0, 24, 68
2, 149762, Note_on_c, 0, 36, 0
2, 149850, Note_on_c, 0, 24, 0
2, 149850, Note_on_c, 0, 36, 63
2, 149922, Note_on_c, 0, 24, 69
2, 149934, Note_on_c, 0, 36, 0
2, 150010, Note_on_c, 0, 24, 0
2, 150010, Note_on_c, 0, 36, 58
2, 150078, Note_on_c, 0, 24, 71
2, 150090, Note_on_c, 0, 36, 0
2, 150154, Note_on_c, 0, 36, 58
2, 150158, Note_on_c, 0, 24, 0
2, 150222, Note_on_c, 0, 24, 71
2, 150230, Note_on_c, 0, 36, 0
2, 150306, Note_on_c, 0, 36, 58
2, 150310, Note_on_c, 0, 24, 0
2, 150354, Note_on_c, 0, 72, 0
2, 150382, Note_on_c, 0, 24, 66
2, 150394, Note_on_c, 0, 36, 0
2, 150466, Note_on_c, 0, 24, 0
2, 150478, Note_on_c, 0, 36, 50
2, 150494, Note_on_c, 0, 84, 0
2, 150554, Note_on_c, 0, 24, 60
2, 150562, Note_on_c, 0, 36, 0
2, 150658, Note_on_c, 0, 24, 0
2, 150662, Note_on_c, 0, 36, 57
2, 150738, Note_on_c, 0, 36, 0
2, 150738, Note_on_c, 0, 24, 57
2, 150846, Note_on_c, 0, 24, 0
2, 150850, Note_on_c, 0, 36, 45
2, 150914, Note_on_c, 0, 36, 0
2, 150914, Note_on_c, 0, 24, 63
2, 151014, Note_on_c, 0, 24, 0
2, 151022, Note_on_c, 0, 36, 65
2, 151090, Note_on_c, 0, 36, 0
2, 151090, Note_on_c, 0, 24, 72
2, 151134, Note_on_c, 0, 86, 90
2, 151146, Note_on_c, 0, 36, 63
2, 151146, Note_on_c, 0, 74, 86
2, 151182, Note_on_c, 0, 24, 0
2, 151342, Note_on_c, 0, 24, 75
2, 151354, Note_on_c, 0, 36, 0
2, 151386, Note_on_c, 0, 74, 0
2, 151386, Note_on_c, 0, 86, 0
2, 151442, Note_on_c, 0, 24, 0
2, 151458, Note_on_c, 0, 36, 65
2, 151522, Note_on_c, 0, 86, 81
2, 151522, Note_on_c, 0, 24, 75
2, 151534, Note_on_c, 0, 74, 79
2, 151538, Note_on_c, 0, 36, 0
2, 151614, Note_on_c, 0, 86, 0
2, 151626, Note_on_c, 0, 24, 0
2, 151638, Note_on_c, 0, 36, 54
2, 151658, Note_on_c, 0, 74, 0
2, 151714, Note_on_c, 0, 24, 67
2, 151722, Note_on_c, 0, 36, 0
2, 151778, Note_on_c, 0, 75, 26
2, 151814, Note_on_c, 0, 24, 0
2, 151818, Note_on_c, 0, 75, 0
2, 151838, Note_on_c, 0, 36, 47
2, 151874, Note_on_c, 0, 79, 80
2, 151878, Note_on_c, 0, 24, 74
2, 151878, Note_on_c, 0, 67, 72
2, 151878, Note_on_c, 0, 71, 66
2, 151898, Note_on_c, 0, 74, 49
2, 151934, Note_on_c, 0, 36, 0
2, 152002, Note_on_c, 0, 24, 0
2, 152002, Note_on_c, 0, 36, 55
2, 152062, Note_on_c, 0, 24, 63
2, 152078, Note_on_c, 0, 36, 0
2, 152166, Note_on_c, 0, 24, 0
2, 152170, Note_on_c, 0, 36, 45
2, 152250, Note_on_c, 0, 24, 55
2, 152254, Note_on_c, 0, 36, 0
2, 152358, Note_on_c, 0, 24, 0
2, 152370, Note_on_c, 0, 36, 42
2, 152446, Note_on_c, 0, 24, 41
2, 152454, Note_on_c, 0, 36, 0
2, 152570, Note_on_c, 0, 24, 0
2, 152570, Note_on_c, 0, 36, 39
2, 152642, Note_on_c, 0, 24, 45
2, 152650, Note_on_c, 0, 36, 0
2, 152754, Note_on_c, 0, 24, 0
2, 152766, Note_on_c, 0, 36, 45
2, 152838, Note_on_c, 0, 36, 0
2, 152846, Note_on_c, 0, 24, 46
2, 152942, Note_on_c, 0, 24, 0
2, 152962, Note_on_c, 0, 36, 41
2, 153034, Note_on_c, 0, 24, 48
2, 153038, Note_on_c, 0, 36, 0
2, 153050, Note_on_c, 0, 67, 0
2, 153066, Note_on_c, 0, 71, 0
2, 153082, Note_on_c, 0, 74, 0
2, 153134, Note_on_c, 0, 24, 0
2, 153138, Note_on_c, 0, 79, 0
2, 153166, Note_on_c, 0, 36, 36
2, 153226, Note_on_c, 0, 36, 0
2, 153226, Note_on_c, 0, 24, 41
2, 153326, Note_on_c, 0, 24, 0
2, 153346, Note_on_c, 0, 36, 44
2, 153406, Note_on_c, 0, 36, 0
2, 153418, Note_on_c, 0, 24, 43
2, 153514, Note_on_c, 0, 24, 0
2, 153530, Note_on_c, 0, 36, 39
2, 153594, Note_on_c, 0, 36, 0
2, 153598, Note_on_c, 0, 24, 44
2, 153698, Note_on_c, 0, 24, 0
2, 153710, Note_on_c, 0, 36, 43
2, 153782, Note_on_c, 0, 36, 0
2, 153786, Note_on_c, 0, 24, 49
2, 153882, Note_on_c, 0, 24, 0
2, 153898, Note_on_c, 0, 36, 38
2, 153950, Note_on_c, 0, 36, 0
2, 153966, Note_on_c, 0, 24, 48
2, 154066, Note_on_c, 0, 24, 0
2, 154090, Note_on_c, 0, 36, 42
2, 154098, Note_on_c, 0, 84, 57
2, 154122, Note_on_c, 0, 79, 60
2, 154130, Note_on_c, 0, 76, 66
2, 154134, Note_on_c, 0, 24, 52
2, 154146, Note_on_c, 0, 36, 0
2, 154154, Note_on_c, 0, 72, 50
2, 154278, Note_on_c, 0, 36, 37
2, 154286, Note_on_c, 0, 24, 0
2, 154350, Note_on_c, 0, 84, 0
2, 154374, Note_on_c, 0, 36, 0
2, 154382, Note_on_c, 0, 24, 45
2, 154418, Note_on_c, 0, 72, 0
2, 154430, Note_on_c, 0, 76, 0
2, 154470, Note_on_c, 0, 79, 0
2, 154506, Note_on_c, 0, 84, 54
2, 154522, Note_on_c, 0, 24, 0
2, 154522, Note_on_c, 0, 36, 43
2, 154526, Note_on_c, 0, 76, 49
2, 154526, Note_on_c, 0, 72, 48
2, 154526, Note_on_c, 0, 79, 46
2, 154606, Note_on_c, 0, 24, 41
2, 154626, Note_on_c, 0, 36, 0
2, 154646, Note_on_c, 0, 84, 0
2, 154662, Note_on_c, 0, 76, 0
2, 154666, Note_on_c, 0, 72, 0
2, 154702, Note_on_c, 0, 79, 0
2, 154758, Note_on_c, 0, 84, 62
2, 154774, Note_on_c, 0, 24, 0
2, 154774, Note_on_c, 0, 79, 66
2, 154782, Note_on_c, 0, 36, 48
2, 154782, Note_on_c, 0, 76, 58
2, 154802, Note_on_c, 0, 72, 49
2, 154882, Note_on_c, 0, 84, 0
2, 154910, Note_on_c, 0, 76, 0
2, 154910, Note_on_c, 0, 36, 0
2, 154918, Note_on_c, 0, 24, 50
2, 154930, Note_on_c, 0, 72, 0
2, 154934, Note_on_c, 0, 79, 0
2, 154982, Note_on_c, 0, 84, 60
2, 155002, Note_on_c, 0, 79, 63
2, 155010, Note_on_c, 0, 76, 65
2, 155022, Note_on_c, 0, 72, 60
2, 155030, Note_on_c, 0, 36, 46
2, 155062, Note_on_c, 0, 24, 0
2, 155110, Note_on_c, 0, 84, 0
2, 155138, Note_on_c, 0, 76, 0
2, 155146, Note_on_c, 0, 72, 0
2, 155154, Note_on_c, 0, 79, 0
2, 155166, Note_on_c, 0, 36, 0
2, 155174, Note_on_c, 0, 24, 62
2, 155214, Note_on_c, 0, 84, 65
2, 155222, Note_on_c, 0, 79, 61
2, 155238, Note_on_c, 0, 76, 73
2, 155258, Note_on_c, 0, 72, 56
2, 155266, Note_on_c, 0, 36, 49
2, 155286, Note_on_c, 0, 24, 0
2, 155350, Note_on_c, 0, 84, 0
2, 155378, Note_on_c, 0, 36, 0
2, 155382, Note_on_c, 0, 76, 0
2, 155382, Note_on_c, 0, 24, 50
2, 155394, Note_on_c, 0, 79, 0
2, 155402, Note_on_c, 0, 72, 0
2, 155502, Note_on_c, 0, 24, 0
2, 155514, Note_on_c, 0, 36, 44
2, 155562, Note_on_c, 0, 36, 0
2, 155586, Note_on_c, 0, 24, 53
2, 155650, Note_on_c, 0, 85, 72
2, 155674, Note_on_c, 0, 80, 68
2, 155694, Note_on_c, 0, 77, 65
2, 155694, Note_on_c, 0, 36, 49
2, 155702, Note_on_c, 0, 73, 56
2, 155758, Note_on_c, 0, 24, 0
2, 155798, Note_on_c, 0, 77, 0
2, 155830, Note_on_c, 0, 73, 0
2, 155838, Note_on_c, 0, 80, 0
2, 155866, Note_on_c, 0, 85, 0
2, 155894, Note_on_c, 0, 36, 0
2, 155898, Note_on_c, 0, 24, 43
2, 156014, Note_on_c, 0, 86, 80
2, 156034, Note_on_c, 0, 24, 0
2, 156034, Note_on_c, 0, 78, 72
2, 156034, Note_on_c, 0, 36, 51
2, 156034, Note_on_c, 0, 81, 72
2, 156046, Note_on_c, 0, 74, 67
2, 156058, Note_on_c, 0, 84, 39
2, 156182, Note_on_c, 0, 84, 0
2, 156182, Note_on_c, 0, 86, 0
2, 156186, Note_on_c, 0, 81, 0
2, 156190, Note_on_c, 0, 36, 0
2, 156198, Note_on_c, 0, 24, 59
2, 156206, Note_on_c, 0, 78, 0
2, 156222, Note_on_c, 0, 74, 0
2, 156306, Note_on_c, 0, 24, 0
2, 156310, Note_on_c, 0, 36, 48
2, 156386, Note_on_c, 0, 36, 0
2, 156394, Note_on_c, 0, 24, 52
2, 156418, Note_on_c, 0, 79, 68
2, 156434, Note_on_c, 0, 77, 52
2, 156446, Note_on_c, 0, 74, 59
2, 156450, Note_on_c, 0, 71, 61
2, 156462, Note_on_c, 0, 77, 0
2, 156470, Note_on_c, 0, 67, 51
2, 156486, Note_on_c, 0, 36, 50
2, 156502, Note_on_c, 0, 24, 0
2, 156578, Note_on_c, 0, 36, 0
2, 156586, Note_on_c, 0, 24, 47
2, 156678, Note_on_c, 0, 24, 0
2, 156678, Note_on_c, 0, 36, 45
2, 156750, Note_on_c, 0, 24, 52
2, 156754, Note_on_c, 0, 36, 0
2, 156866, Note_on_c, 0, 24, 0
2, 156870, Note_on_c, 0, 36, 42
2, 156946, Note_on_c, 0, 24, 42
2, 156950, Note_on_c, 0, 36, 0
2, 157066, Note_on_c, 0, 24, 0
2, 157078, Note_on_c, 0, 36, 34
2, 157142, Note_on_c, 0, 36, 0
2, 157142, Note_on_c, 0, 24, 42
2, 157266, Note_on_c, 0, 24, 0
2, 157274, Note_on_c, 0, 36, 39
2, 157350, Note_on_c, 0, 36, 0
2, 157354, Note_on_c, 0, 24, 40
2, 157474, Note_on_c, 0, 24, 0
2, 157486, Note_on_c, 0, 36, 31
2, 157546, Note_on_c, 0, 36, 0
2, 157558, Note_on_c, 0, 24, 43
2, 157686, Note_on_c, 0, 24, 0
2, 157686, Note_on_c, 0, 36, 36
2, 157774, Note_on_c, 0, 36, 0
2, 157778, Note_on_c, 0, 24, 41
2, 157902, Note_on_c, 0, 36, 38
2, 157910, Note_on_c, 0, 24, 0
2, 157982, Note_on_c, 0, 24, 42
2, 157990, Note_on_c, 0, 36, 0
2, 158134, Note_on_c, 0, 36, 36
2, 158142, Note_on_c, 0, 24, 0
2, 158238, Note_on_c, 0, 36, 0
2, 158258, Note_on_c, 0, 24, 43
2, 158370, Note_on_c, 0, 36, 33
2, 158386, Note_on_c, 0, 24, 0
2, 158470, Note_on_c, 0, 24, 39
2, 158486, Note_on_c, 0, 36, 0
2, 158638, Note_on_c, 0, 36, 36
2, 158646, Note_on_c, 0, 67, 0
2, 158674, Note_on_c, 0, 24, 0
2, 158770, Note_on_c, 0, 36, 0
2, 158782, Note_on_c, 0, 71, 0
2, 158786, Note_on_c, 0, 24, 43
2, 158794, Note_on_c, 0, 74, 0
2, 158882, Note_on_c, 0, 79, 0
2, 158974, Note_on_c, 0, 24, 0
2, 158978, Note_on_c, 0, 36, 31
2, 159130, Note_on_c, 0, 36, 0
2, 159154, Note_on_c, 0, 24, 43
2, 159318, Note_on_c, 0, 24, 0
2, 159338, Note_on_c, 0, 36, 30
2, 159426, Note_on_c, 0, 36, 0
2, 159430, Note_on_c, 0, 24, 43
2, 159546, Note_on_c, 0, 24, 0
2, 159558, Note_on_c, 0, 36, 44
2, 159630, Note_on_c, 0, 36, 0
2, 159650, Note_on_c, 0, 81, 42
2, 159654, Note_on_c, 0, 24, 43
2, 159654, Note_on_c, 0, 73, 43
2, 159662, Note_on_c, 0, 69, 41
2, 159666, Note_on_c, 0, 76, 57
2, 159750, Note_on_c, 0, 24, 0
2, 159758, Note_on_c, 0, 36, 39
2, 159822, Note_on_c, 0, 36, 0
2, 159838, Note_on_c, 0, 24, 42
2, 159942, Note_on_c, 0, 24, 0
2, 159950, Note_on_c, 0, 36, 47
2, 160042, Note_on_c, 0, 36, 0
2, 160046, Note_on_c, 0, 24, 49
2, 160158, Note_on_c, 0, 24, 0
2, 160158, Note_on_c, 0, 36, 48
2, 160242, Note_on_c, 0, 36, 0
2, 160242, Note_on_c, 0, 24, 47
2, 160350, Note_on_c, 0, 24, 0
2, 160350, Note_on_c, 0, 36, 48
2, 160430, Note_on_c, 0, 24, 52
2, 160438, Note_on_c, 0, 36, 0
2, 160478, Note_on_c, 0, 69, 0
2, 160530, Note_on_c, 0, 24, 0
2, 160534, Note_on_c, 0, 81, 0
2, 160538, Note_on_c, 0, 36, 52
2, 160562, Note_on_c, 0, 76, 0
2, 160602, Note_on_c, 0, 73, 0
2, 160610, Note_on_c, 0, 24, 52
2, 160618, Note_on_c, 0, 36, 0
2, 160698, Note_on_c, 0, 24, 0
2, 160702, Note_on_c, 0, 36, 48
2, 160786, Note_on_c, 0, 36, 0
2, 160794, Note_on_c, 0, 24, 52
2, 160870, Note_on_c, 0, 24, 0
2, 160886, Note_on_c, 0, 36, 44
2, 160958, Note_on_c, 0, 24, 52
2, 160962, Note_on_c, 0, 36, 0
2, 161042, Note_on_c, 0, 24, 0
2, 161066, Note_on_c, 0, 36, 50
2, 161102, Note_on_c, 0, 36, 0
2, 161114, Note_on_c, 0, 24, 57
2, 161210, Note_on_c, 0, 36, 60
2, 161218, Note_on_c, 0, 24, 0
2, 161238, Note_on_c, 0, 84, 69
2, 161242, Note_on_c, 0, 76, 67
2, 161242, Note_on_c, 0, 72, 60
2, 161250, Note_on_c, 0, 79, 63
2, 161274, Note_on_c, 0, 24, 66
2, 161290, Note_on_c, 0, 36, 0
2, 161386, Note_on_c, 0, 24, 0
2, 161410, Note_on_c, 0, 36, 40
2, 161470, Note_on_c, 0, 24, 60
2, 161474, Note_on_c, 0, 36, 0
2, 161534, Note_on_c, 0, 72, 0
2, 161558, Note_on_c, 0, 76, 0
2, 161570, Note_on_c, 0, 24, 0
2, 161574, Note_on_c, 0, 36, 65
2, 161578, Note_on_c, 0, 84, 0
2, 161602, Note_on_c, 0, 79, 0
2, 161650, Note_on_c, 0, 24, 71
2, 161654, Note_on_c, 0, 36, 0
2, 161678, Note_on_c, 0, 76, 64
2, 161678, Note_on_c, 0, 84, 58
2, 161678, Note_on_c, 0, 79, 52
2, 161678, Note_on_c, 0, 72, 56
2, 161742, Note_on_c, 0, 84, 0
2, 161742, Note_on_c, 0, 36, 46
2, 161750, Note_on_c, 0, 79, 0
2, 161750, Note_on_c, 0, 24, 0
2, 161770, Note_on_c, 0, 76, 0
2, 161798, Note_on_c, 0, 72, 0
2, 161838, Note_on_c, 0, 24, 61
2, 161846, Note_on_c, 0, 36, 0
2, 161946, Note_on_c, 0, 36, 57
2, 161954, Note_on_c, 0, 24, 0
2, 162018, Note_on_c, 0, 24, 75
2, 162022, Note_on_c, 0, 36, 0
2, 162038, Note_on_c, 0, 77, 78
2, 162038, Note_on_c, 0, 72, 73
2, 162042, Note_on_c, 0, 69, 78
2, 162042, Note_on_c, 0, 65, 77
2, 162066, Control_c, 0, 64, 0
2, 162082, Note_on_c, 0, 36, 61
2, 162142, Control_c, 0, 64, 127
2, 162178, Note_on_c, 0, 24, 0
2, 162234, Note_on_c, 0, 24, 69
2, 162250, Note_on_c, 0, 36, 0
2, 162326, Note_on_c, 0, 36, 61
2, 162342, Note_on_c, 0, 24, 0
2, 162398, Note_on_c, 0, 24, 67
2, 162434, Note_on_c, 0, 36, 0
2, 162514, Note_on_c, 0, 36, 60
2, 162526, Note_on_c, 0, 24, 0
2, 162586, Note_on_c, 0, 24, 72
2, 162618, Note_on_c, 0, 36, 0
2, 162690, Note_on_c, 0, 36, 60
2, 162698, Note_on_c, 0, 24, 0
2, 162762, Note_on_c, 0, 24, 72
2, 162794, Note_on_c, 0, 36, 0
2, 162870, Note_on_c, 0, 36, 57
2, 162882, Note_on_c, 0, 24, 0
2, 162942, Note_on_c, 0, 24, 68
2, 162966, Note_on_c, 0, 36, 0
2, 163062, Note_on_c, 0, 36, 63
2, 163070, Note_on_c, 0, 24, 0
2, 163130, Note_on_c, 0, 24, 66
2, 163154, Note_on_c, 0, 36, 0
2, 163202, Note_on_c, 0, 77, 0
2, 163246, Note_on_c, 0, 36, 63
2, 163254, Note_on_c, 0, 24, 0
2, 163310, Note_on_c, 0, 72, 0
2, 163322, Note_on_c, 0, 24, 54
2, 163326, Note_on_c, 0, 65, 0
2, 163330, Note_on_c, 0, 69, 0
2, 163350, Note_on_c, 0, 36, 0
2, 163450, Note_on_c, 0, 36, 54
2, 163470, Note_on_c, 0, 24, 0
2, 163538, Note_on_c, 0, 24, 50
2, 163558, Note_on_c, 0, 36, 0
2, 163662, Note_on_c, 0, 24, 0
2, 163666, Note_on_c, 0, 36, 49
2, 163738, Note_on_c, 0, 24, 42
2, 163758, Note_on_c, 0, 36, 0
2, 163878, Note_on_c, 0, 36, 40
2, 163886, Note_on_c, 0, 24, 0
2, 163974, Note_on_c, 0, 36, 0
2, 163978, Note_on_c, 0, 24, 40
2, 164114, Note_on_c, 0, 24, 0
2, 164114, Note_on_c, 0, 36, 35
2, 164186, Note_on_c, 0, 24, 48
2, 164194, Note_on_c, 0, 36, 0
2, 164294, Note_on_c, 0, 24, 0
2, 164314, Note_on_c, 0, 36, 38
2, 164386, Note_on_c, 0, 36, 0
2, 164394, Note_on_c, 0, 24, 40
2, 164518, Note_on_c, 0, 24, 0
2, 164530, Note_on_c, 0, 36, 39
2, 164606, Note_on_c, 0, 36, 0
2, 164618, Note_on_c, 0, 24, 46
2, 164722, Note_on_c, 0, 24, 0
2, 164782, Control_c, 0, 64, 0
2, 164782, Note_on_c, 0, 36, 37
2, 164786, Note_on_c, 0, 24, 56
2, 164798, Note_on_c, 0, 66, 62
2, 164798, Note_on_c, 0, 59, 61
2, 164798, Note_on_c, 0, 63, 64
2, 164798, Note_on_c, 0, 71, 62
2, 164878, Control_c, 0, 64, 127
2, 165006, Note_on_c, 0, 24, 0
2, 165010, Note_on_c, 0, 71, 0
2, 165034, Note_on_c, 0, 59, 0
2, 165054, Note_on_c, 0, 66, 0
2, 165090, Note_on_c, 0, 24, 45
2, 165102, Note_on_c, 0, 36, 0
2, 165110, Note_on_c, 0, 63, 0
2, 165222, Note_on_c, 0, 72, 64
2, 165226, Note_on_c, 0, 64, 73
2, 165230, Note_on_c, 0, 67, 59
2, 165230, Note_on_c, 0, 36, 56
2, 165238, Note_on_c, 0, 60, 65
2, 165246, Note_on_c, 0, 68, 40
2, 165246, Control_c, 0, 64, 0
2, 165258, Note_on_c, 0, 70, 34
2, 165306, Control_c, 0, 64, 127
2, 165398, Note_on_c, 0, 60, 0
2, 165402, Note_on_c, 0, 68, 0
2, 165406, Note_on_c, 0, 64, 0
2, 165406, Note_on_c, 0, 67, 0
2, 165414, Note_on_c, 0, 70, 0
2, 165426, Note_on_c, 0, 24, 0
2, 165446, Note_on_c, 0, 72, 0
2, 165530, Note_on_c, 0, 36, 0
2, 165534, Note_on_c, 0, 24, 52
2, 165634, Note_on_c, 0, 76, 78
2, 165634, Note_on_c, 0, 68, 75
2, 165642, Note_on_c, 0, 36, 54
2, 165642, Note_on_c, 0, 64, 74
2, 165646, Note_on_c, 0, 71, 77
2, 165662, Note_on_c, 0, 74, 41
2, 165674, Control_c, 0, 64, 0
2, 165694, Note_on_c, 0, 74, 0
2, 165710, Control_c, 0, 64, 127
2, 165866, Note_on_c, 0, 64, 0
2, 165866, Note_on_c, 0, 71, 0
2, 165906, Note_on_c, 0, 68, 0
2, 165918, Note_on_c, 0, 76, 0
2, 166090, Note_on_c, 0, 36, 0
2, 166406, Note_on_c, 0, 79, 74
2, 166410, Note_on_c, 0, 71, 66
2, 166414, Note_on_c, 0, 74, 66
2, 166414, Note_on_c, 0, 67, 64
2, 166426, Note_on_c, 0, 36, 48
2, 166490, Note_on_c, 0, 24, 0
2, 166578, Note_on_c, 0, 24, 29
2, 166598, Note_on_c, 0, 67, 0
2, 166598, Note_on_c, 0, 74, 0
2, 166602, Note_on_c, 0, 71, 0
2, 166610, Note_on_c, 0, 79, 0
2, 166626, Note_on_c, 0, 24, 0
2, 166710, Note_on_c, 0, 36, 0
2, 166730, Note_on_c, 0, 24, 54
2, 166814, Note_on_c, 0, 24, 0
2, 166882, Note_on_c, 0, 36, 28
2, 166902, Note_on_c, 0, 24, 48
2, 166918, Note_on_c, 0, 68, 52
2, 166938, Note_on_c, 0, 36, 0
2, 166938, Note_on_c, 0, 72, 63
2, 166938, Note_on_c, 0, 80, 72
2, 166938, Note_on_c, 0, 75, 66
2, 166950, Control_c, 0, 64, 0
2, 167018, Control_c, 0, 64, 127
2, 167046, Note_on_c, 0, 36, 46
2, 167054, Note_on_c, 0, 24, 0
2, 167146, Note_on_c, 0, 24, 46
2, 167150, Note_on_c, 0, 36, 0
2, 167194, Note_on_c, 0, 72, 0
2, 167262, Note_on_c, 0, 24, 0
2, 167282, Note_on_c, 0, 68, 0
2, 167286, Note_on_c, 0, 75, 0
2, 167326, Note_on_c, 0, 80, 0
2, 167358, Note_on_c, 0, 24, 54
2, 167482, Note_on_c, 0, 81, 57
2, 167482, Note_on_c, 0, 69, 57
2, 167482, Note_on_c, 0, 36, 51
2, 167482, Note_on_c, 0, 73, 51
2, 167502, Note_on_c, 0, 76, 59
2, 167570, Note_on_c, 0, 24, 0
2, 167654, Note_on_c, 0, 24, 48
2, 167658, Note_on_c, 0, 36, 0
2, 167670, Note_on_c, 0, 81, 0
2, 167682, Note_on_c, 0, 76, 0
2, 167722, Note_on_c, 0, 73, 0
2, 167738, Note_on_c, 0, 24, 0
2, 167738, Note_on_c, 0, 69, 0
2, 167786, Note_on_c, 0, 36, 34
2, 167830, Note_on_c, 0, 36, 0
2, 167834, Note_on_c, 0, 24, 41
2, 167934, Note_on_c, 0, 24, 0
2, 167958, Note_on_c, 0, 36, 38
2, 168010, Note_on_c, 0, 36, 0
2, 168010, Note_on_c, 0, 24, 43
2, 168110, Note_on_c, 0, 24, 0
2, 168142, Note_on_c, 0, 36, 35
2, 168190, Note_on_c, 0, 36, 0
2, 168198, Note_on_c, 0, 24, 42
2, 168302, Note_on_c, 0, 24, 0
2, 168334, Note_on_c, 0, 36, 29
2, 168382, Note_on_c, 0, 36, 0
2, 168390, Note_on_c, 0, 24, 40
2, 168498, Note_on_c, 0, 24, 0
2, 168518, Note_on_c, 0, 36, 40
2, 168578, Note_on_c, 0, 36, 0
2, 168582, Note_on_c, 0, 24, 45
2, 168678, Note_on_c, 0, 24, 0
2, 168706, Note_on_c, 0, 36, 39
2, 168758, Note_on_c, 0, 63, 53
2, 168758, Note_on_c, 0, 71, 48
2, 168758, Note_on_c, 0, 59, 46
2, 168758, Note_on_c, 0, 66, 53
2, 168758, Note_on_c, 0, 24, 48
2, 168770, Note_on_c, 0, 36, 0
2, 168870, Note_on_c, 0, 24, 0
2, 168954, Note_on_c, 0, 24, 41
2, 169022, Note_on_c, 0, 59, 0
2, 169058, Note_on_c, 0, 24, 0
2, 169062, Note_on_c, 0, 71, 0
2, 169102, Note_on_c, 0, 66, 0
2, 169146, Note_on_c, 0, 63, 0
2, 169182, Note_on_c, 0, 24, 39
2, 169282, Note_on_c, 0, 24, 0
2, 169414, Note_on_c, 0, 24, 38
2, 169478, Note_on_c, 0, 24, 0
2, 169586, Note_on_c, 0, 24, 48
2, 169674, Note_on_c, 0, 24, 0
2, 169758, Note_on_c, 0, 24, 39
2, 169758, Note_on_c, 0, 36, 20
2, 169802, Control_c, 0, 64, 0
2, 169814, Note_on_c, 0, 72, 38
2, 169814, Note_on_c, 0, 60, 49
2, 169818, Note_on_c, 0, 64, 50
2, 169838, Note_on_c, 0, 67, 38
2, 169846, Control_c, 0, 64, 127
2, 169862, Note_on_c, 0, 36, 0
2, 169886, Note_on_c, 0, 24, 0
2, 169946, Note_on_c, 0, 24, 46
2, 169946, Note_on_c, 0, 36, 20
2, 169994, Note_on_c, 0, 36, 0
2, 170046, Note_on_c, 0, 24, 0
2, 170098, Note_on_c, 0, 36, 28
2, 170142, Note_on_c, 0, 24, 42
2, 170154, Note_on_c, 0, 36, 0
2, 170246, Note_on_c, 0, 24, 0
2, 170302, Note_on_c, 0, 36, 26
2, 170358, Note_on_c, 0, 36, 0
2, 170362, Note_on_c, 0, 24, 46
2, 170466, Note_on_c, 0, 24, 0
2, 170514, Note_on_c, 0, 36, 31
2, 170562, Note_on_c, 0, 36, 0
2, 170562, Note_on_c, 0, 24, 42
2, 170674, Note_on_c, 0, 24, 0
2, 170718, Note_on_c, 0, 36, 26
2, 170762, Note_on_c, 0, 36, 0
2, 170770, Note_on_c, 0, 24, 42
2, 170874, Note_on_c, 0, 24, 0
2, 170914, Note_on_c, 0, 36, 31
2, 170966, Note_on_c, 0, 36, 0
2, 170974, Note_on_c, 0, 24, 41
2, 171086, Note_on_c, 0, 24, 0
2, 171102, Note_on_c, 0, 36, 30
2, 171158, Note_on_c, 0, 36, 0
2, 171170, Note_on_c, 0, 24, 43
2, 171286, Note_on_c, 0, 24, 0
2, 171318, Note_on_c, 0, 36, 34
2, 171374, Note_on_c, 0, 36, 0
2, 171378, Note_on_c, 0, 24, 41
2, 171506, Note_on_c, 0, 24, 0
2, 171538, Note_on_c, 0, 36, 29
2, 171606, Note_on_c, 0, 36, 0
2, 171626, Note_on_c, 0, 24, 36
2, 171738, Note_on_c, 0, 24, 0
2, 171758, Note_on_c, 0, 36, 28
2, 171818, Note_on_c, 0, 36, 0
2, 171838, Note_on_c, 0, 24, 41
2, 171946, Note_on_c, 0, 24, 0
2, 171966, Note_on_c, 0, 36, 32
2, 172026, Note_on_c, 0, 36, 0
2, 172046, Note_on_c, 0, 24, 33
2, 172178, Note_on_c, 0, 24, 0
2, 172194, Note_on_c, 0, 36, 33
2, 172258, Note_on_c, 0, 36, 0
2, 172270, Note_on_c, 0, 24, 34
2, 172402, Note_on_c, 0, 24, 0
2, 172426, Note_on_c, 0, 36, 26
2, 172482, Note_on_c, 0, 36, 0
2, 172506, Note_on_c, 0, 24, 36
2, 172630, Note_on_c, 0, 24, 0
2, 172650, Note_on_c, 0, 36, 22
2, 172718, Note_on_c, 0, 36, 0
2, 172734, Note_on_c, 0, 24, 35
2, 172870, Note_on_c, 0, 24, 0
2, 172906, Note_on_c, 0, 36, 12
2, 172970, Note_on_c, 0, 36, 0
2, 172982, Note_on_c, 0, 24, 36
2, 173126, Note_on_c, 0, 24, 0
2, 173130, Note_on_c, 0, 36, 27
2, 173222, Note_on_c, 0, 36, 0
2, 173226, Note_on_c, 0, 24, 37
2, 173394, Note_on_c, 0, 24, 0
2, 173394, Note_on_c, 0, 36, 25
2, 173478, Note_on_c, 0, 36, 0
2, 173494, Note_on_c, 0, 24, 34
2, 173638, Note_on_c, 0, 36, 31
2, 173646, Note_on_c, 0, 24, 0
2, 173734, Note_on_c, 0, 36, 0
2, 173746, Note_on_c, 0, 24, 39
2, 173870, Note_on_c, 0, 36, 39
2, 173986, Note_on_c, 0, 36, 0
2, 174130, Note_on_c, 0, 36, 28
2, 174134, Note_on_c, 0, 24, 0
2, 174262, Note_on_c, 0, 24, 35
2, 174274, Note_on_c, 0, 36, 0
2, 174438, Note_on_c, 0, 36, 30
2, 174746, Note_on_c, 0, 24, 0
2, 174822, Note_on_c, 0, 24, 26
2, 174882, Note_on_c, 0, 36, 0
2, 179294, Control_c, 0, 64, 0
2, 179310, Note_on_c, 0, 60, 0
2, 179326, Note_on_c, 0, 67, 0
2, 179330, Note_on_c, 0, 72, 0
2, 179338, Note_on_c, 0, 64, 0
2, 179342, Note_on_c, 0, 24, 0
2, 179342, End_track
0, 0, End_of_file
