0, 0, Header, 1, 6, 480
1, 0, Start_track
1, 0, Title_t, "Sweet And Lovely"
1, 0, Text_t, "dougmck@pipeline.com.au\012"
1, 0, Text_t, "DrumSet4\012"
1, 0, Text_t, "BrsSect \012"
1, 0, Text_t, "dougmck1\012"
1, 0, Text_t, "Piano1  \012"
1, 0, Time_signature, 4, 2, 24, 8
1, 0, Key_signature, 0, "major"
1, 0, Tempo, 461538
1, 0, Marker_t, "YAMAHA DOU 10                   "
1, 0, Marker_t, "was recorded in real time in one take .. it is far from perfect but I guess it is O.K."
1, 0, Marker_t, "It contains three tracks - piano, bass and drums. The piano "
1, 0, Marker_t, "This is a sequence that I produced in General MIDI format intended as a Music-minus-one"
1, 0, End_track
2, 0, Start_track
2, 0, Title_t, "dougmck@pipeline.com.au"
2, 0, Program_c, 0, 0
2, 0, Control_c, 0, 7, 100
2, 1612, Note_on_c, 0, 82, 62
2, 1664, Note_on_c, 0, 82, 0
2, 1764, Note_on_c, 0, 83, 61
2, 1836, Note_on_c, 0, 83, 0
2, 1944, Note_on_c, 0, 84, 69
2, 1952, Note_on_c, 0, 57, 24
2, 1960, Note_on_c, 0, 58, 25
2, 1960, Note_on_c, 0, 62, 24
2, 2840, Control_c, 0, 64, 127
2, 2984, Note_on_c, 0, 62, 0
2, 3000, Note_on_c, 0, 57, 0
2, 3004, Note_on_c, 0, 58, 0
2, 3104, Note_on_c, 0, 84, 0
2, 3360, Control_c, 0, 64, 0
2, 3368, Note_on_c, 0, 58, 52
2, 3368, Note_on_c, 0, 86, 80
2, 3372, Note_on_c, 0, 62, 67
2, 3372, Note_on_c, 0, 74, 83
2, 3380, Note_on_c, 0, 57, 55
2, 3392, Note_on_c, 0, 53, 45
2, 3424, Note_on_c, 0, 53, 0
2, 3436, Note_on_c, 0, 74, 0
2, 3452, Note_on_c, 0, 57, 0
2, 3456, Note_on_c, 0, 62, 0
2, 3480, Note_on_c, 0, 86, 0
2, 3488, Note_on_c, 0, 58, 0
2, 3848, Note_on_c, 0, 86, 79
2, 3852, Note_on_c, 0, 74, 82
2, 3852, Note_on_c, 0, 62, 64
2, 3852, Note_on_c, 0, 58, 54
2, 3872, Control_c, 0, 64, 127
2, 3872, Note_on_c, 0, 52, 56
2, 4168, Note_on_c, 0, 86, 0
2, 4176, Note_on_c, 0, 52, 0
2, 4216, Note_on_c, 0, 62, 0
2, 4244, Note_on_c, 0, 58, 0
2, 4260, Note_on_c, 0, 74, 0
2, 4644, Note_on_c, 0, 74, 73
2, 4644, Note_on_c, 0, 79, 71
2, 4648, Note_on_c, 0, 58, 57
2, 4648, Note_on_c, 0, 67, 71
2, 4652, Control_c, 0, 64, 0
2, 4652, Note_on_c, 0, 62, 68
2, 4660, Note_on_c, 0, 52, 64
2, 4860, Control_c, 0, 64, 127
2, 5108, Note_on_c, 0, 79, 0
2, 5172, Note_on_c, 0, 74, 0
2, 5188, Note_on_c, 0, 52, 0
2, 5220, Note_on_c, 0, 67, 0
2, 5220, Note_on_c, 0, 62, 0
2, 5220, Note_on_c, 0, 58, 0
2, 5704, Control_c, 0, 64, 0
2, 5732, Note_on_c, 0, 62, 75
2, 5732, Note_on_c, 0, 58, 62
2, 5740, Note_on_c, 0, 72, 79
2, 5740, Note_on_c, 0, 65, 82
2, 5740, Note_on_c, 0, 69, 85
2, 5740, Note_on_c, 0, 60, 64
2, 5980, Note_on_c, 0, 62, 0
2, 5984, Note_on_c, 0, 65, 0
2, 5988, Note_on_c, 0, 60, 0
2, 5992, Note_on_c, 0, 58, 0
2, 5992, Note_on_c, 0, 72, 0
2, 6000, Note_on_c, 0, 69, 0
2, 6060, Note_on_c, 0, 69, 64
2, 6060, Note_on_c, 0, 72, 62
2, 6064, Note_on_c, 0, 65, 63
2, 6064, Note_on_c, 0, 58, 48
2, 6068, Note_on_c, 0, 62, 44
2, 6072, Note_on_c, 0, 60, 45
2, 6160, Note_on_c, 0, 60, 0
2, 6168, Note_on_c, 0, 72, 0
2, 6172, Note_on_c, 0, 62, 0
2, 6176, Note_on_c, 0, 65, 0
2, 6184, Note_on_c, 0, 69, 0
2, 6240, Note_on_c, 0, 62, 35
2, 6244, Note_on_c, 0, 65, 29
2, 6248, Note_on_c, 0, 69, 57
2, 6252, Note_on_c, 0, 60, 53
2, 6252, Note_on_c, 0, 72, 48
2, 6364, Note_on_c, 0, 60, 0
2, 6368, Note_on_c, 0, 62, 0
2, 6376, Note_on_c, 0, 69, 0
2, 6376, Note_on_c, 0, 65, 0
2, 6380, Note_on_c, 0, 72, 0
2, 6396, Note_on_c, 0, 58, 0
2, 6580, Note_on_c, 0, 58, 46
2, 6584, Note_on_c, 0, 65, 59
2, 6584, Note_on_c, 0, 72, 53
2, 6584, Note_on_c, 0, 62, 49
2, 6588, Note_on_c, 0, 69, 59
2, 6588, Note_on_c, 0, 60, 48
2, 6612, Note_on_c, 0, 65, 0
2, 6616, Note_on_c, 0, 72, 0
2, 6616, Note_on_c, 0, 62, 0
2, 6616, Note_on_c, 0, 60, 0
2, 6620, Note_on_c, 0, 69, 0
2, 6644, Note_on_c, 0, 58, 0
2, 6780, Note_on_c, 0, 69, 56
2, 6784, Note_on_c, 0, 65, 45
2, 6788, Note_on_c, 0, 58, 28
2, 6788, Note_on_c, 0, 72, 38
2, 6816, Note_on_c, 0, 72, 0
2, 6816, Note_on_c, 0, 58, 0
2, 6816, Note_on_c, 0, 65, 0
2, 6820, Note_on_c, 0, 69, 0
2, 7060, Note_on_c, 0, 73, 69
2, 7064, Note_on_c, 0, 66, 73
2, 7068, Note_on_c, 0, 62, 62
2, 7072, Note_on_c, 0, 70, 57
2, 7080, Note_on_c, 0, 61, 35
2, 7096, Note_on_c, 0, 70, 0
2, 7100, Note_on_c, 0, 62, 0
2, 7112, Note_on_c, 0, 66, 0
2, 7124, Note_on_c, 0, 61, 0
2, 7152, Note_on_c, 0, 73, 0
2, 7264, Note_on_c, 0, 74, 39
2, 7264, Note_on_c, 0, 67, 48
2, 7268, Note_on_c, 0, 71, 29
2, 7288, Note_on_c, 0, 67, 0
2, 7296, Note_on_c, 0, 71, 0
2, 7296, Note_on_c, 0, 74, 0
2, 7544, Note_on_c, 0, 64, 53
2, 7548, Note_on_c, 0, 67, 56
2, 7552, Note_on_c, 0, 58, 30
2, 7572, Note_on_c, 0, 52, 42
2, 7732, Control_c, 0, 64, 127
2, 7820, Note_on_c, 0, 58, 0
2, 7836, Note_on_c, 0, 52, 0
2, 8148, Control_c, 0, 64, 0
2, 8188, Note_on_c, 0, 48, 70
2, 8200, Note_on_c, 0, 36, 69
2, 8236, Note_on_c, 0, 64, 0
2, 8268, Note_on_c, 0, 67, 0
2, 8284, Control_c, 0, 64, 127
2, 8332, Note_on_c, 0, 36, 0
2, 8376, Note_on_c, 0, 48, 0
2, 8968, Note_on_c, 0, 58, 71
2, 8972, Note_on_c, 0, 78, 81
2, 8972, Note_on_c, 0, 62, 83
2, 8980, Control_c, 0, 64, 0
2, 8980, Note_on_c, 0, 52, 80
2, 8980, Note_on_c, 0, 84, 87
2, 8984, Note_on_c, 0, 72, 80
2, 9092, Note_on_c, 0, 78, 0
2, 9092, Note_on_c, 0, 79, 51
2, 9152, Note_on_c, 0, 72, 0
2, 9160, Note_on_c, 0, 52, 0
2, 9164, Note_on_c, 0, 84, 0
2, 9164, Note_on_c, 0, 79, 0
2, 9180, Note_on_c, 0, 58, 0
2, 9192, Note_on_c, 0, 62, 0
2, 9640, Note_on_c, 0, 63, 42
2, 9640, Note_on_c, 0, 67, 60
2, 9648, Note_on_c, 0, 62, 40
2, 9648, Note_on_c, 0, 57, 53
2, 10092, Control_c, 0, 64, 127
2, 10120, Note_on_c, 0, 62, 0
2, 10160, Note_on_c, 0, 57, 0
2, 10160, Note_on_c, 0, 67, 0
2, 10180, Note_on_c, 0, 63, 0
2, 10500, Control_c, 0, 64, 0
2, 10540, Note_on_c, 0, 62, 59
2, 10540, Note_on_c, 0, 67, 73
2, 10544, Note_on_c, 0, 81, 89
2, 10548, Note_on_c, 0, 63, 48
2, 10552, Note_on_c, 0, 57, 55
2, 10672, Note_on_c, 0, 81, 0
2, 10684, Note_on_c, 0, 67, 0
2, 10696, Note_on_c, 0, 57, 0
2, 10696, Note_on_c, 0, 63, 0
2, 10704, Note_on_c, 0, 62, 0
2, 10980, Note_on_c, 0, 63, 53
2, 10984, Note_on_c, 0, 62, 53
2, 10988, Note_on_c, 0, 67, 72
2, 11000, Note_on_c, 0, 57, 51
2, 11000, Note_on_c, 0, 84, 96
2, 11104, Note_on_c, 0, 62, 0
2, 11128, Note_on_c, 0, 67, 0
2, 11132, Note_on_c, 0, 63, 0
2, 11148, Note_on_c, 0, 57, 0
2, 11172, Note_on_c, 0, 84, 0
2, 11500, Note_on_c, 0, 62, 58
2, 11504, Note_on_c, 0, 65, 68
2, 11508, Note_on_c, 0, 84, 86
2, 11508, Note_on_c, 0, 60, 54
2, 11512, Note_on_c, 0, 74, 82
2, 11512, Note_on_c, 0, 77, 75
2, 11520, Note_on_c, 0, 55, 59
2, 11532, Control_c, 0, 64, 127
2, 11840, Note_on_c, 0, 84, 0
2, 11872, Note_on_c, 0, 62, 0
2, 11904, Note_on_c, 0, 77, 0
2, 11908, Note_on_c, 0, 65, 0
2, 11912, Note_on_c, 0, 60, 0
2, 11924, Note_on_c, 0, 74, 0
2, 11960, Note_on_c, 0, 55, 0
2, 12288, Note_on_c, 0, 77, 54
2, 12304, Note_on_c, 0, 72, 47
2, 12312, Note_on_c, 0, 61, 46
2, 12320, Note_on_c, 0, 55, 55
2, 12324, Control_c, 0, 64, 0
2, 12324, Note_on_c, 0, 65, 54
2, 12480, Control_c, 0, 64, 127
2, 12532, Note_on_c, 0, 65, 0
2, 12556, Note_on_c, 0, 77, 0
2, 12576, Note_on_c, 0, 61, 0
2, 12628, Note_on_c, 0, 55, 0
2, 12632, Note_on_c, 0, 72, 0
2, 13392, Control_c, 0, 64, 0
2, 13444, Note_on_c, 0, 56, 47
2, 13448, Note_on_c, 0, 71, 50
2, 13460, Note_on_c, 0, 66, 43
2, 13468, Note_on_c, 0, 62, 30
2, 13540, Control_c, 0, 64, 127
2, 13600, Note_on_c, 0, 71, 0
2, 13636, Note_on_c, 0, 62, 0
2, 13692, Note_on_c, 0, 66, 0
2, 13724, Control_c, 0, 64, 0
2, 13740, Note_on_c, 0, 72, 66
2, 13740, Note_on_c, 0, 57, 66
2, 13744, Note_on_c, 0, 67, 69
2, 13752, Control_c, 0, 64, 127
2, 13832, Note_on_c, 0, 72, 0
2, 13852, Note_on_c, 0, 67, 0
2, 13868, Control_c, 0, 64, 0
2, 13944, Note_on_c, 0, 57, 0
2, 13944, Note_on_c, 0, 56, 0
2, 13948, Note_on_c, 0, 60, 63
2, 13964, Note_on_c, 0, 76, 68
2, 13964, Note_on_c, 0, 67, 62
2, 13968, Note_on_c, 0, 69, 50
2, 13972, Note_on_c, 0, 72, 53
2, 14020, Note_on_c, 0, 69, 0
2, 14036, Note_on_c, 0, 67, 0
2, 14052, Note_on_c, 0, 72, 0
2, 14064, Note_on_c, 0, 76, 0
2, 14200, Note_on_c, 0, 60, 0
2, 14200, Note_on_c, 0, 64, 70
2, 14220, Note_on_c, 0, 79, 79
2, 14224, Note_on_c, 0, 72, 68
2, 14224, Note_on_c, 0, 76, 65
2, 14224, Note_on_c, 0, 69, 76
2, 14272, Note_on_c, 0, 64, 0
2, 14284, Note_on_c, 0, 72, 0
2, 14304, Note_on_c, 0, 76, 0
2, 14320, Note_on_c, 0, 79, 0
2, 14324, Note_on_c, 0, 69, 0
2, 14464, Note_on_c, 0, 80, 64
2, 14472, Note_on_c, 0, 59, 56
2, 14472, Note_on_c, 0, 70, 59
2, 14480, Note_on_c, 0, 64, 57
2, 14484, Note_on_c, 0, 53, 30
2, 14508, Note_on_c, 0, 75, 16
2, 14512, Note_on_c, 0, 76, 31
2, 14556, Note_on_c, 0, 76, 0
2, 14612, Note_on_c, 0, 70, 0
2, 14636, Note_on_c, 0, 80, 0
2, 14664, Note_on_c, 0, 64, 0
2, 14668, Note_on_c, 0, 75, 0
2, 14672, Note_on_c, 0, 53, 0
2, 14680, Note_on_c, 0, 59, 0
2, 14724, Note_on_c, 0, 81, 69
2, 14740, Note_on_c, 0, 64, 36
2, 14740, Note_on_c, 0, 53, 35
2, 14744, Note_on_c, 0, 59, 67
2, 14752, Note_on_c, 0, 69, 33
2, 14780, Note_on_c, 0, 64, 0
2, 14784, Note_on_c, 0, 81, 0
2, 14784, Note_on_c, 0, 69, 0
2, 14800, Note_on_c, 0, 53, 0
2, 14824, Note_on_c, 0, 59, 0
2, 14960, Note_on_c, 0, 59, 47
2, 14964, Note_on_c, 0, 63, 51
2, 14968, Note_on_c, 0, 65, 33
2, 14980, Note_on_c, 0, 71, 30
2, 14980, Note_on_c, 0, 68, 28
2, 14992, Note_on_c, 0, 53, 27
2, 15048, Note_on_c, 0, 68, 0
2, 15060, Note_on_c, 0, 59, 0
2, 15088, Note_on_c, 0, 65, 0
2, 15100, Note_on_c, 0, 71, 0
2, 15124, Note_on_c, 0, 63, 0
2, 15128, Control_c, 0, 64, 127
2, 15132, Note_on_c, 0, 53, 0
2, 15212, Control_c, 0, 64, 0
2, 15248, Note_on_c, 0, 62, 44
2, 15260, Note_on_c, 0, 69, 45
2, 15260, Note_on_c, 0, 72, 47
2, 15264, Note_on_c, 0, 52, 40
2, 15272, Note_on_c, 0, 64, 31
2, 15272, Note_on_c, 0, 57, 49
2, 15364, Note_on_c, 0, 64, 0
2, 15472, Control_c, 0, 64, 127
2, 15516, Note_on_c, 0, 57, 0
2, 15596, Note_on_c, 0, 52, 0
2, 15720, Control_c, 0, 64, 0
2, 15752, Note_on_c, 0, 54, 76
2, 15760, Note_on_c, 0, 55, 80
2, 15788, Note_on_c, 0, 53, 19
2, 15816, Note_on_c, 0, 53, 0
2, 15840, Note_on_c, 0, 54, 0
2, 16272, Note_on_c, 0, 62, 0
2, 16332, Note_on_c, 0, 69, 0
2, 16360, Note_on_c, 0, 72, 0
2, 16460, Control_c, 0, 64, 127
2, 16680, Note_on_c, 0, 84, 108
2, 16724, Control_c, 0, 64, 0
2, 16772, Note_on_c, 0, 84, 0
2, 16820, Note_on_c, 0, 55, 0
2, 16844, Note_on_c, 0, 81, 53
2, 16908, Note_on_c, 0, 81, 0
2, 16980, Note_on_c, 0, 77, 50
2, 17072, Note_on_c, 0, 77, 0
2, 17144, Note_on_c, 0, 73, 52
2, 17268, Note_on_c, 0, 73, 0
2, 17292, Note_on_c, 0, 62, 37
2, 17300, Note_on_c, 0, 72, 50
2, 17304, Note_on_c, 0, 58, 27
2, 17320, Note_on_c, 0, 57, 22
2, 17328, Note_on_c, 0, 53, 25
2, 17560, Note_on_c, 0, 62, 0
2, 17564, Note_on_c, 0, 58, 0
2, 17588, Control_c, 0, 64, 127
2, 17608, Note_on_c, 0, 62, 33
2, 17612, Note_on_c, 0, 84, 69
2, 17632, Note_on_c, 0, 58, 20
2, 17640, Note_on_c, 0, 84, 0
2, 17664, Note_on_c, 0, 72, 0
2, 17668, Control_c, 0, 64, 0
2, 17676, Note_on_c, 0, 62, 0
2, 17676, Note_on_c, 0, 53, 0
2, 17684, Note_on_c, 0, 57, 0
2, 17684, Note_on_c, 0, 58, 0
2, 18084, Note_on_c, 0, 72, 76
2, 18088, Note_on_c, 0, 69, 78
2, 18092, Note_on_c, 0, 65, 79
2, 18092, Note_on_c, 0, 58, 64
2, 18092, Note_on_c, 0, 62, 78
2, 18100, Note_on_c, 0, 60, 67
2, 18116, Note_on_c, 0, 65, 0
2, 18116, Note_on_c, 0, 69, 0
2, 18124, Note_on_c, 0, 60, 0
2, 18132, Note_on_c, 0, 72, 0
2, 18140, Note_on_c, 0, 58, 0
2, 18144, Note_on_c, 0, 62, 0
2, 18260, Note_on_c, 0, 58, 59
2, 18268, Note_on_c, 0, 60, 60
2, 18268, Note_on_c, 0, 62, 61
2, 18272, Note_on_c, 0, 65, 69
2, 18272, Note_on_c, 0, 72, 65
2, 18280, Note_on_c, 0, 69, 67
2, 18292, Note_on_c, 0, 60, 0
2, 18296, Note_on_c, 0, 72, 0
2, 18296, Note_on_c, 0, 65, 0
2, 18296, Note_on_c, 0, 62, 0
2, 18304, Note_on_c, 0, 69, 0
2, 18312, Note_on_c, 0, 58, 0
2, 18428, Note_on_c, 0, 72, 73
2, 18428, Note_on_c, 0, 65, 78
2, 18428, Note_on_c, 0, 58, 71
2, 18428, Note_on_c, 0, 69, 80
2, 18432, Note_on_c, 0, 62, 78
2, 18440, Note_on_c, 0, 60, 71
2, 18624, Note_on_c, 0, 62, 0
2, 18628, Note_on_c, 0, 69, 0
2, 18628, Note_on_c, 0, 65, 0
2, 18632, Note_on_c, 0, 60, 0
2, 18640, Note_on_c, 0, 72, 0
2, 18652, Note_on_c, 0, 58, 0
2, 18748, Note_on_c, 0, 72, 73
2, 18752, Note_on_c, 0, 69, 84
2, 18760, Note_on_c, 0, 62, 69
2, 18760, Note_on_c, 0, 58, 58
2, 18764, Note_on_c, 0, 65, 76
2, 18764, Note_on_c, 0, 60, 53
2, 18864, Control_c, 0, 64, 127
2, 18908, Note_on_c, 0, 65, 0
2, 18908, Note_on_c, 0, 62, 0
2, 18920, Note_on_c, 0, 72, 0
2, 18924, Note_on_c, 0, 69, 0
2, 18932, Note_on_c, 0, 60, 0
2, 18932, Note_on_c, 0, 58, 0
2, 19060, Note_on_c, 0, 74, 86
2, 19060, Note_on_c, 0, 58, 54
2, 19064, Note_on_c, 0, 62, 61
2, 19068, Note_on_c, 0, 65, 76
2, 19072, Note_on_c, 0, 69, 66
2, 19100, Note_on_c, 0, 69, 0
2, 19128, Note_on_c, 0, 62, 0
2, 19152, Note_on_c, 0, 65, 0
2, 19160, Note_on_c, 0, 58, 0
2, 19168, Note_on_c, 0, 74, 0
2, 19208, Control_c, 0, 64, 0
2, 19272, Note_on_c, 0, 74, 72
2, 19280, Note_on_c, 0, 64, 66
2, 19284, Note_on_c, 0, 58, 48
2, 19284, Note_on_c, 0, 62, 60
2, 19288, Note_on_c, 0, 67, 61
2, 19292, Note_on_c, 0, 70, 44
2, 19308, Note_on_c, 0, 52, 30
2, 19324, Note_on_c, 0, 62, 0
2, 19340, Note_on_c, 0, 52, 0
2, 19356, Note_on_c, 0, 58, 0
2, 19392, Note_on_c, 0, 67, 0
2, 19392, Note_on_c, 0, 64, 0
2, 19396, Note_on_c, 0, 74, 0
2, 19420, Note_on_c, 0, 70, 0
2, 19580, Note_on_c, 0, 67, 57
2, 19588, Note_on_c, 0, 58, 38
2, 19588, Note_on_c, 0, 62, 54
2, 19588, Note_on_c, 0, 64, 47
2, 19608, Note_on_c, 0, 52, 47
2, 19868, Control_c, 0, 64, 127
2, 20012, Note_on_c, 0, 64, 0
2, 20248, Note_on_c, 0, 67, 0
2, 20320, Note_on_c, 0, 52, 0
2, 20356, Note_on_c, 0, 62, 0
2, 20368, Note_on_c, 0, 58, 0
2, 21108, Control_c, 0, 64, 0
2, 21152, Note_on_c, 0, 65, 53
2, 21152, Note_on_c, 0, 72, 43
2, 21160, Note_on_c, 0, 58, 38
2, 21160, Note_on_c, 0, 43, 42
2, 21164, Note_on_c, 0, 50, 35
2, 21180, Note_on_c, 0, 57, 25
2, 21240, Note_on_c, 0, 58, 0
2, 21244, Note_on_c, 0, 72, 0
2, 21252, Note_on_c, 0, 65, 0
2, 21252, Note_on_c, 0, 57, 0
2, 21264, Note_on_c, 0, 43, 0
2, 21264, Note_on_c, 0, 50, 0
2, 21644, Note_on_c, 0, 72, 43
2, 21644, Note_on_c, 0, 58, 33
2, 21648, Note_on_c, 0, 43, 30
2, 21648, Note_on_c, 0, 65, 50
2, 21652, Note_on_c, 0, 57, 24
2, 21660, Note_on_c, 0, 50, 32
2, 21780, Note_on_c, 0, 65, 0
2, 21784, Note_on_c, 0, 58, 0
2, 21788, Note_on_c, 0, 72, 0
2, 21804, Note_on_c, 0, 57, 0
2, 21804, Note_on_c, 0, 50, 0
2, 21816, Note_on_c, 0, 43, 0
2, 22092, Control_c, 0, 64, 127
2, 22108, Note_on_c, 0, 58, 41
2, 22108, Note_on_c, 0, 50, 45
2, 22112, Note_on_c, 0, 43, 39
2, 22112, Note_on_c, 0, 72, 36
2, 22112, Note_on_c, 0, 65, 56
2, 22124, Note_on_c, 0, 57, 26
2, 22196, Note_on_c, 0, 72, 0
2, 22208, Note_on_c, 0, 58, 0
2, 22240, Note_on_c, 0, 65, 0
2, 22264, Note_on_c, 0, 43, 0
2, 22268, Note_on_c, 0, 57, 0
2, 22272, Note_on_c, 0, 50, 0
2, 22404, Note_on_c, 0, 73, 56
2, 22488, Note_on_c, 0, 73, 0
2, 22572, Note_on_c, 0, 74, 61
2, 22664, Note_on_c, 0, 74, 0
2, 22860, Note_on_c, 0, 58, 37
2, 22864, Note_on_c, 0, 62, 41
2, 22868, Note_on_c, 0, 67, 52
2, 22872, Note_on_c, 0, 57, 35
2, 22884, Control_c, 0, 64, 0
2, 23340, Control_c, 0, 64, 127
2, 23432, Control_c, 0, 64, 0
2, 23556, Note_on_c, 0, 57, 0
2, 23580, Note_on_c, 0, 58, 0
2, 23596, Note_on_c, 0, 62, 0
2, 23828, Control_c, 0, 64, 127
2, 23908, Control_c, 0, 64, 0
2, 24052, Control_c, 0, 64, 127
2, 24304, Note_on_c, 0, 58, 63
2, 24308, Note_on_c, 0, 62, 64
2, 24308, Control_c, 0, 64, 0
2, 24336, Note_on_c, 0, 62, 0
2, 24340, Note_on_c, 0, 67, 0
2, 24356, Note_on_c, 0, 58, 0
2, 24812, Note_on_c, 0, 63, 65
2, 24820, Note_on_c, 0, 62, 68
2, 24824, Note_on_c, 0, 67, 75
2, 24828, Note_on_c, 0, 80, 75
2, 24828, Note_on_c, 0, 92, 76
2, 24832, Note_on_c, 0, 87, 73
2, 24832, Note_on_c, 0, 57, 57
2, 24876, Note_on_c, 0, 80, 0
2, 24904, Note_on_c, 0, 67, 0
2, 24916, Note_on_c, 0, 57, 0
2, 24928, Note_on_c, 0, 92, 0
2, 24928, Note_on_c, 0, 62, 0
2, 24932, Note_on_c, 0, 87, 0
2, 24936, Note_on_c, 0, 63, 0
2, 25068, Note_on_c, 0, 92, 55
2, 25084, Note_on_c, 0, 80, 60
2, 25088, Note_on_c, 0, 62, 63
2, 25092, Note_on_c, 0, 63, 47
2, 25100, Note_on_c, 0, 67, 62
2, 25108, Note_on_c, 0, 57, 49
2, 25128, Note_on_c, 0, 90, 20
2, 25160, Note_on_c, 0, 90, 0
2, 25200, Note_on_c, 0, 92, 0
2, 25208, Note_on_c, 0, 80, 0
2, 25208, Note_on_c, 0, 81, 71
2, 25216, Note_on_c, 0, 63, 0
2, 25236, Note_on_c, 0, 62, 0
2, 25260, Note_on_c, 0, 67, 0
2, 25288, Note_on_c, 0, 93, 20
2, 25300, Note_on_c, 0, 81, 0
2, 25324, Note_on_c, 0, 90, 30
2, 25324, Note_on_c, 0, 62, 36
2, 25340, Note_on_c, 0, 86, 27
2, 25344, Note_on_c, 0, 63, 43
2, 25360, Note_on_c, 0, 93, 0
2, 25364, Note_on_c, 0, 81, 55
2, 25368, Note_on_c, 0, 67, 31
2, 25384, Control_c, 0, 64, 127
2, 25396, Note_on_c, 0, 90, 0
2, 25412, Note_on_c, 0, 86, 0
2, 25448, Note_on_c, 0, 63, 0
2, 25456, Note_on_c, 0, 62, 0
2, 25460, Note_on_c, 0, 93, 35
2, 25464, Note_on_c, 0, 81, 0
2, 25468, Note_on_c, 0, 90, 40
2, 25484, Note_on_c, 0, 86, 28
2, 25524, Note_on_c, 0, 81, 44
2, 25532, Note_on_c, 0, 93, 0
2, 25540, Note_on_c, 0, 62, 22
2, 25544, Control_c, 0, 64, 0
2, 25556, Note_on_c, 0, 90, 0
2, 25564, Note_on_c, 0, 86, 0
2, 25572, Note_on_c, 0, 67, 0
2, 25592, Note_on_c, 0, 81, 0
2, 25596, Note_on_c, 0, 57, 0
2, 25604, Note_on_c, 0, 62, 0
2, 25840, Note_on_c, 0, 62, 61
2, 25844, Note_on_c, 0, 63, 45
2, 25844, Note_on_c, 0, 67, 63
2, 25868, Note_on_c, 0, 67, 0
2, 25884, Note_on_c, 0, 63, 0
2, 25884, Note_on_c, 0, 62, 0
2, 26268, Note_on_c, 0, 84, 90
2, 26268, Note_on_c, 0, 63, 60
2, 26272, Note_on_c, 0, 72, 86
2, 26272, Note_on_c, 0, 62, 69
2, 26280, Note_on_c, 0, 67, 69
2, 26308, Note_on_c, 0, 67, 0
2, 26316, Note_on_c, 0, 72, 0
2, 26332, Note_on_c, 0, 84, 0
2, 26336, Note_on_c, 0, 62, 0
2, 26400, Note_on_c, 0, 63, 0
2, 26600, Note_on_c, 0, 63, 50
2, 26604, Note_on_c, 0, 67, 61
2, 26608, Note_on_c, 0, 62, 37
2, 26612, Note_on_c, 0, 84, 80
2, 26612, Note_on_c, 0, 72, 71
2, 26632, Note_on_c, 0, 67, 0
2, 26640, Note_on_c, 0, 62, 0
2, 26652, Note_on_c, 0, 72, 0
2, 26664, Note_on_c, 0, 84, 0
2, 26680, Note_on_c, 0, 63, 0
2, 26728, Control_c, 0, 64, 127
2, 26752, Note_on_c, 0, 81, 41
2, 26784, Note_on_c, 0, 81, 0
2, 26848, Control_c, 0, 64, 0
2, 26900, Note_on_c, 0, 60, 43
2, 26900, Note_on_c, 0, 65, 59
2, 26904, Note_on_c, 0, 61, 38
2, 26908, Note_on_c, 0, 84, 86
2, 26908, Note_on_c, 0, 72, 83
2, 26928, Note_on_c, 0, 55, 38
2, 27132, Control_c, 0, 64, 127
2, 27560, Note_on_c, 0, 55, 0
2, 27560, Note_on_c, 0, 72, 0
2, 27564, Note_on_c, 0, 60, 0
2, 27568, Note_on_c, 0, 65, 0
2, 27596, Note_on_c, 0, 61, 0
2, 27608, Note_on_c, 0, 84, 0
2, 27608, Note_on_c, 0, 81, 41
2, 27648, Note_on_c, 0, 77, 56
2, 27708, Control_c, 0, 64, 0
2, 27720, Note_on_c, 0, 73, 47
2, 27728, Note_on_c, 0, 81, 0
2, 27740, Note_on_c, 0, 77, 0
2, 27824, Note_on_c, 0, 73, 0
2, 28152, Note_on_c, 0, 61, 45
2, 28160, Note_on_c, 0, 65, 56
2, 28168, Note_on_c, 0, 55, 42
2, 28188, Note_on_c, 0, 65, 0
2, 28200, Note_on_c, 0, 55, 0
2, 28224, Note_on_c, 0, 61, 0
2, 28548, Control_c, 0, 64, 127
2, 28812, Control_c, 0, 64, 0
2, 28832, Note_on_c, 0, 71, 33
2, 28832, Note_on_c, 0, 56, 44
2, 28844, Note_on_c, 0, 64, 50
2, 28844, Note_on_c, 0, 68, 37
2, 28932, Control_c, 0, 64, 127
2, 29000, Note_on_c, 0, 71, 0
2, 29068, Note_on_c, 0, 64, 0
2, 29072, Note_on_c, 0, 68, 0
2, 29124, Note_on_c, 0, 57, 70
2, 29132, Note_on_c, 0, 72, 72
2, 29212, Note_on_c, 0, 72, 0
2, 29304, Note_on_c, 0, 57, 0
2, 29304, Note_on_c, 0, 56, 0
2, 29312, Control_c, 0, 64, 0
2, 29324, Note_on_c, 0, 60, 66
2, 29324, Note_on_c, 0, 76, 79
2, 29428, Note_on_c, 0, 76, 0
2, 29512, Control_c, 0, 64, 127
2, 29564, Note_on_c, 0, 64, 66
2, 29568, Note_on_c, 0, 60, 0
2, 29600, Note_on_c, 0, 77, 58
2, 29600, Note_on_c, 0, 79, 57
2, 29624, Note_on_c, 0, 64, 0
2, 29632, Note_on_c, 0, 78, 29
2, 29640, Note_on_c, 0, 77, 0
2, 29652, Note_on_c, 0, 79, 0
2, 29660, Note_on_c, 0, 78, 0
2, 29752, Control_c, 0, 64, 0
2, 29804, Note_on_c, 0, 59, 52
2, 29804, Note_on_c, 0, 80, 64
2, 29804, Note_on_c, 0, 68, 66
2, 29808, Note_on_c, 0, 75, 54
2, 29824, Note_on_c, 0, 64, 33
2, 29824, Note_on_c, 0, 53, 22
2, 29968, Control_c, 0, 64, 127
2, 29972, Note_on_c, 0, 64, 0
2, 29988, Note_on_c, 0, 80, 0
2, 30004, Note_on_c, 0, 68, 0
2, 30004, Note_on_c, 0, 53, 0
2, 30016, Note_on_c, 0, 59, 0
2, 30020, Note_on_c, 0, 75, 0
2, 30032, Control_c, 0, 64, 0
2, 30064, Note_on_c, 0, 81, 66
2, 30080, Note_on_c, 0, 59, 59
2, 30088, Note_on_c, 0, 53, 41
2, 30120, Note_on_c, 0, 53, 0
2, 30124, Note_on_c, 0, 81, 0
2, 30180, Note_on_c, 0, 59, 0
2, 30352, Note_on_c, 0, 64, 41
2, 30352, Note_on_c, 0, 71, 57
2, 30352, Note_on_c, 0, 68, 38
2, 30360, Note_on_c, 0, 63, 46
2, 30364, Note_on_c, 0, 59, 41
2, 30384, Note_on_c, 0, 56, 29
2, 30384, Note_on_c, 0, 53, 23
2, 30420, Control_c, 0, 64, 127
2, 30472, Note_on_c, 0, 59, 0
2, 30540, Note_on_c, 0, 71, 0
2, 30560, Note_on_c, 0, 63, 0
2, 30572, Note_on_c, 0, 64, 0
2, 30572, Note_on_c, 0, 53, 0
2, 30600, Note_on_c, 0, 68, 0
2, 30616, Note_on_c, 0, 56, 0
2, 30748, Control_c, 0, 64, 0
2, 30764, Note_on_c, 0, 62, 45
2, 30768, Note_on_c, 0, 72, 32
2, 30772, Note_on_c, 0, 67, 49
2, 30788, Note_on_c, 0, 52, 35
2, 30792, Note_on_c, 0, 57, 33
2, 31200, Control_c, 0, 64, 127
2, 31312, Note_on_c, 0, 57, 0
2, 31496, Note_on_c, 0, 62, 0
2, 31496, Note_on_c, 0, 52, 0
2, 31652, Note_on_c, 0, 67, 0
2, 31816, Note_on_c, 0, 72, 0
2, 32320, Note_on_c, 0, 74, 80
2, 32440, Note_on_c, 0, 74, 0
2, 32472, Note_on_c, 0, 71, 43
2, 32572, Note_on_c, 0, 71, 0
2, 32584, Control_c, 0, 64, 0
2, 32628, Note_on_c, 0, 72, 46
2, 32632, Note_on_c, 0, 63, 29
2, 32644, Note_on_c, 0, 56, 22
2, 32644, Note_on_c, 0, 60, 29
2, 32664, Note_on_c, 0, 67, 6
2, 32872, Note_on_c, 0, 72, 0
2, 32984, Note_on_c, 0, 80, 54
2, 33056, Note_on_c, 0, 80, 0
2, 33164, Note_on_c, 0, 67, 0
2, 33188, Note_on_c, 0, 80, 41
2, 33192, Note_on_c, 0, 63, 0
2, 33212, Note_on_c, 0, 60, 0
2, 33220, Note_on_c, 0, 80, 0
2, 33236, Note_on_c, 0, 56, 0
2, 33448, Note_on_c, 0, 67, 53
2, 33452, Note_on_c, 0, 80, 71
2, 33452, Note_on_c, 0, 56, 37
2, 33484, Note_on_c, 0, 62, 36
2, 33484, Note_on_c, 0, 60, 25
2, 33600, Note_on_c, 0, 80, 0
2, 33652, Note_on_c, 0, 78, 31
2, 33720, Note_on_c, 0, 79, 36
2, 33728, Note_on_c, 0, 62, 0
2, 33732, Note_on_c, 0, 78, 0
2, 33816, Note_on_c, 0, 67, 0
2, 34064, Note_on_c, 0, 79, 0
2, 34100, Note_on_c, 0, 77, 56
2, 34108, Note_on_c, 0, 60, 0
2, 34172, Control_c, 0, 64, 127
2, 34200, Note_on_c, 0, 56, 0
2, 34380, Note_on_c, 0, 77, 0
2, 34424, Note_on_c, 0, 72, 32
2, 34528, Note_on_c, 0, 72, 0
2, 34540, Control_c, 0, 64, 0
2, 34580, Note_on_c, 0, 52, 19
2, 34584, Note_on_c, 0, 76, 50
2, 34588, Note_on_c, 0, 57, 26
2, 34628, Note_on_c, 0, 57, 0
2, 34660, Note_on_c, 0, 52, 0
2, 34676, Note_on_c, 0, 76, 0
2, 34724, Note_on_c, 0, 77, 55
2, 34728, Note_on_c, 0, 52, 30
2, 34732, Note_on_c, 0, 62, 25
2, 34744, Note_on_c, 0, 57, 33
2, 34792, Note_on_c, 0, 62, 0
2, 34796, Note_on_c, 0, 57, 0
2, 34800, Note_on_c, 0, 52, 0
2, 34812, Note_on_c, 0, 77, 0
2, 34880, Note_on_c, 0, 79, 66
2, 34888, Note_on_c, 0, 52, 49
2, 34892, Note_on_c, 0, 67, 61
2, 34892, Note_on_c, 0, 62, 42
2, 34892, Note_on_c, 0, 74, 63
2, 34892, Note_on_c, 0, 57, 48
2, 35124, Control_c, 0, 64, 127
2, 35544, Note_on_c, 0, 67, 0
2, 35600, Note_on_c, 0, 74, 0
2, 35612, Note_on_c, 0, 62, 0
2, 35660, Note_on_c, 0, 79, 0
2, 35660, Note_on_c, 0, 57, 0
2, 35712, Note_on_c, 0, 52, 0
2, 36304, Note_on_c, 0, 83, 69
2, 36308, Note_on_c, 0, 71, 61
2, 36336, Note_on_c, 0, 71, 0
2, 36352, Note_on_c, 0, 83, 0
2, 36420, Control_c, 0, 64, 0
2, 36448, Note_on_c, 0, 63, 33
2, 36460, Note_on_c, 0, 60, 38
2, 36468, Note_on_c, 0, 67, 31
2, 36472, Note_on_c, 0, 84, 63
2, 36480, Note_on_c, 0, 72, 43
2, 36500, Note_on_c, 0, 67, 0
2, 36500, Note_on_c, 0, 60, 0
2, 36504, Note_on_c, 0, 72, 0
2, 36512, Note_on_c, 0, 84, 0
2, 36512, Note_on_c, 0, 63, 0
2, 36792, Control_c, 0, 64, 127
2, 36800, Note_on_c, 0, 92, 78
2, 36800, Note_on_c, 0, 60, 57
2, 36804, Note_on_c, 0, 80, 77
2, 36804, Note_on_c, 0, 56, 60
2, 36808, Note_on_c, 0, 67, 68
2, 36808, Note_on_c, 0, 87, 72
2, 36808, Note_on_c, 0, 63, 56
2, 36960, Note_on_c, 0, 67, 0
2, 36964, Note_on_c, 0, 80, 0
2, 36968, Note_on_c, 0, 87, 0
2, 36972, Note_on_c, 0, 92, 0
2, 36972, Note_on_c, 0, 60, 0
2, 36976, Note_on_c, 0, 56, 0
2, 36988, Note_on_c, 0, 63, 0
2, 37044, Control_c, 0, 64, 0
2, 37120, Note_on_c, 0, 63, 59
2, 37120, Note_on_c, 0, 92, 75
2, 37124, Note_on_c, 0, 80, 77
2, 37124, Note_on_c, 0, 67, 70
2, 37128, Note_on_c, 0, 56, 55
2, 37128, Note_on_c, 0, 87, 74
2, 37132, Note_on_c, 0, 60, 59
2, 37172, Control_c, 0, 64, 127
2, 37292, Note_on_c, 0, 80, 0
2, 37292, Note_on_c, 0, 92, 0
2, 37296, Note_on_c, 0, 67, 0
2, 37296, Note_on_c, 0, 87, 0
2, 37308, Note_on_c, 0, 63, 0
2, 37308, Note_on_c, 0, 56, 0
2, 37332, Note_on_c, 0, 60, 0
2, 37480, Control_c, 0, 64, 0
2, 37480, Note_on_c, 0, 67, 72
2, 37480, Note_on_c, 0, 92, 76
2, 37484, Note_on_c, 0, 87, 74
2, 37484, Note_on_c, 0, 80, 72
2, 37484, Note_on_c, 0, 62, 62
2, 37484, Note_on_c, 0, 60, 57
2, 37492, Note_on_c, 0, 56, 52
2, 37644, Control_c, 0, 64, 127
2, 37692, Note_on_c, 0, 67, 0
2, 37696, Note_on_c, 0, 60, 0
2, 37696, Note_on_c, 0, 56, 0
2, 37704, Note_on_c, 0, 87, 0
2, 37708, Note_on_c, 0, 92, 0
2, 37712, Note_on_c, 0, 80, 0
2, 37716, Note_on_c, 0, 62, 0
2, 37808, Note_on_c, 0, 56, 58
2, 37808, Note_on_c, 0, 67, 69
2, 37812, Note_on_c, 0, 91, 65
2, 37812, Note_on_c, 0, 62, 52
2, 37820, Note_on_c, 0, 86, 63
2, 37820, Note_on_c, 0, 79, 55
2, 37824, Note_on_c, 0, 60, 58
2, 37916, Note_on_c, 0, 91, 0
2, 37920, Note_on_c, 0, 67, 0
2, 37928, Note_on_c, 0, 60, 0
2, 37940, Note_on_c, 0, 79, 0
2, 37944, Note_on_c, 0, 86, 0
2, 37956, Note_on_c, 0, 62, 0
2, 37956, Note_on_c, 0, 56, 0
2, 38008, Note_on_c, 0, 56, 37
2, 38012, Note_on_c, 0, 67, 41
2, 38028, Note_on_c, 0, 62, 48
2, 38032, Note_on_c, 0, 89, 12
2, 38040, Note_on_c, 0, 77, 53
2, 38044, Note_on_c, 0, 60, 22
2, 38048, Control_c, 0, 64, 0
2, 38076, Note_on_c, 0, 60, 0
2, 38092, Note_on_c, 0, 89, 0
2, 38100, Note_on_c, 0, 67, 0
2, 38100, Note_on_c, 0, 77, 0
2, 38104, Control_c, 0, 64, 127
2, 38128, Note_on_c, 0, 62, 0
2, 38148, Note_on_c, 0, 56, 0
2, 38288, Note_on_c, 0, 56, 51
2, 38304, Note_on_c, 0, 76, 64
2, 38308, Note_on_c, 0, 88, 50
2, 38368, Note_on_c, 0, 76, 0
2, 38376, Note_on_c, 0, 56, 0
2, 38388, Note_on_c, 0, 88, 0
2, 38440, Control_c, 0, 64, 0
2, 38504, Note_on_c, 0, 79, 59
2, 38504, Note_on_c, 0, 62, 55
2, 38508, Note_on_c, 0, 91, 62
2, 38508, Note_on_c, 0, 57, 52
2, 38512, Note_on_c, 0, 85, 51
2, 38512, Note_on_c, 0, 52, 49
2, 38632, Note_on_c, 0, 85, 0
2, 38644, Note_on_c, 0, 86, 28
2, 38696, Note_on_c, 0, 86, 0
2, 38700, Note_on_c, 0, 91, 0
2, 38708, Note_on_c, 0, 79, 0
2, 38724, Note_on_c, 0, 52, 0
2, 38728, Note_on_c, 0, 57, 0
2, 38728, Note_on_c, 0, 62, 0
2, 38804, Note_on_c, 0, 91, 69
2, 38808, Note_on_c, 0, 79, 59
2, 38812, Note_on_c, 0, 57, 57
2, 38812, Note_on_c, 0, 52, 59
2, 38820, Note_on_c, 0, 85, 62
2, 38820, Note_on_c, 0, 62, 58
2, 38988, Note_on_c, 0, 85, 0
2, 39012, Note_on_c, 0, 86, 27
2, 39100, Control_c, 0, 64, 127
2, 39372, Note_on_c, 0, 91, 0
2, 39384, Note_on_c, 0, 86, 0
2, 39440, Note_on_c, 0, 79, 0
2, 39548, Note_on_c, 0, 62, 0
2, 39600, Note_on_c, 0, 57, 0
2, 39660, Note_on_c, 0, 62, 34
2, 39672, Note_on_c, 0, 57, 31
2, 39740, Note_on_c, 0, 62, 0
2, 39800, Note_on_c, 0, 52, 0
2, 39816, Note_on_c, 0, 57, 0
2, 39852, Note_on_c, 0, 75, 50
2, 39900, Control_c, 0, 64, 0
2, 39904, Note_on_c, 0, 75, 0
2, 39928, Note_on_c, 0, 77, 62
2, 40012, Note_on_c, 0, 75, 45
2, 40048, Note_on_c, 0, 77, 0
2, 40124, Note_on_c, 0, 74, 56
2, 40132, Note_on_c, 0, 75, 0
2, 40260, Control_c, 0, 64, 127
2, 40264, Note_on_c, 0, 74, 0
2, 40288, Note_on_c, 0, 75, 71
2, 40292, Control_c, 0, 64, 0
2, 40340, Note_on_c, 0, 63, 27
2, 40360, Note_on_c, 0, 58, 30
2, 40364, Note_on_c, 0, 54, 26
2, 40368, Note_on_c, 0, 59, 41
2, 40732, Note_on_c, 0, 75, 0
2, 40968, Note_on_c, 0, 59, 0
2, 41000, Note_on_c, 0, 83, 72
2, 41000, Note_on_c, 0, 84, 80
2, 41052, Note_on_c, 0, 84, 0
2, 41072, Note_on_c, 0, 58, 0
2, 41080, Note_on_c, 0, 63, 0
2, 41084, Note_on_c, 0, 83, 0
2, 41148, Note_on_c, 0, 83, 77
2, 41168, Note_on_c, 0, 54, 0
2, 41172, Control_c, 0, 64, 127
2, 41260, Note_on_c, 0, 83, 0
2, 41280, Control_c, 0, 64, 0
2, 41304, Note_on_c, 0, 63, 43
2, 41308, Note_on_c, 0, 58, 20
2, 41320, Note_on_c, 0, 59, 45
2, 41332, Note_on_c, 0, 82, 67
2, 41348, Note_on_c, 0, 53, 29
2, 41532, Note_on_c, 0, 82, 0
2, 41624, Note_on_c, 0, 82, 70
2, 41756, Note_on_c, 0, 82, 0
2, 41820, Note_on_c, 0, 80, 51
2, 42000, Note_on_c, 0, 59, 0
2, 42012, Note_on_c, 0, 53, 0
2, 42012, Control_c, 0, 64, 127
2, 42020, Note_on_c, 0, 80, 0
2, 42028, Note_on_c, 0, 63, 0
2, 42032, Note_on_c, 0, 58, 0
2, 42092, Note_on_c, 0, 75, 44
2, 42184, Note_on_c, 0, 75, 0
2, 42208, Control_c, 0, 64, 0
2, 42240, Note_on_c, 0, 51, 18
2, 42244, Note_on_c, 0, 79, 57
2, 42244, Note_on_c, 0, 58, 28
2, 42268, Note_on_c, 0, 55, 33
2, 42308, Note_on_c, 0, 55, 0
2, 42312, Note_on_c, 0, 79, 0
2, 42324, Note_on_c, 0, 51, 0
2, 42336, Note_on_c, 0, 58, 0
2, 42424, Note_on_c, 0, 80, 42
2, 42476, Note_on_c, 0, 80, 0
2, 42544, Note_on_c, 0, 58, 45
2, 42548, Note_on_c, 0, 62, 59
2, 42552, Note_on_c, 0, 51, 43
2, 42560, Note_on_c, 0, 82, 71
2, 42560, Note_on_c, 0, 55, 53
2, 42832, Control_c, 0, 64, 127
2, 43204, Note_on_c, 0, 82, 0
2, 43240, Note_on_c, 0, 55, 0
2, 43252, Note_on_c, 0, 51, 0
2, 43252, Note_on_c, 0, 62, 0
2, 43288, Note_on_c, 0, 58, 0
2, 43660, Control_c, 0, 64, 0
2, 43672, Note_on_c, 0, 51, 59
2, 43672, Note_on_c, 0, 61, 72
2, 43680, Note_on_c, 0, 78, 68
2, 43680, Note_on_c, 0, 58, 57
2, 43684, Note_on_c, 0, 66, 70
2, 43684, Note_on_c, 0, 54, 47
2, 43688, Note_on_c, 0, 73, 71
2, 43852, Control_c, 0, 64, 127
2, 43880, Note_on_c, 0, 78, 0
2, 43880, Note_on_c, 0, 51, 0
2, 43884, Note_on_c, 0, 66, 0
2, 43896, Note_on_c, 0, 54, 0
2, 43896, Note_on_c, 0, 73, 0
2, 43904, Note_on_c, 0, 61, 0
2, 43920, Note_on_c, 0, 58, 0
2, 44028, Control_c, 0, 64, 0
2, 44028, Note_on_c, 0, 61, 71
2, 44032, Note_on_c, 0, 51, 58
2, 44032, Note_on_c, 0, 78, 72
2, 44040, Note_on_c, 0, 58, 57
2, 44040, Note_on_c, 0, 66, 75
2, 44044, Note_on_c, 0, 73, 73
2, 44044, Note_on_c, 0, 54, 52
2, 44412, Control_c, 0, 64, 127
2, 44512, Note_on_c, 0, 58, 0
2, 44528, Note_on_c, 0, 54, 0
2, 44544, Note_on_c, 0, 51, 0
2, 44548, Note_on_c, 0, 66, 0
2, 44552, Note_on_c, 0, 61, 0
2, 44572, Note_on_c, 0, 78, 0
2, 44584, Note_on_c, 0, 73, 0
2, 44664, Control_c, 0, 64, 0
2, 44668, Note_on_c, 0, 61, 38
2, 44680, Note_on_c, 0, 68, 46
2, 44680, Note_on_c, 0, 51, 27
2, 44684, Note_on_c, 0, 75, 45
2, 44688, Note_on_c, 0, 54, 31
2, 44688, Note_on_c, 0, 58, 38
2, 44692, Note_on_c, 0, 80, 30
2, 44756, Note_on_c, 0, 54, 0
2, 44760, Note_on_c, 0, 51, 0
2, 44760, Control_c, 0, 64, 127
2, 44772, Note_on_c, 0, 58, 0
2, 44780, Note_on_c, 0, 68, 0
2, 44784, Note_on_c, 0, 80, 0
2, 44796, Note_on_c, 0, 61, 0
2, 44816, Note_on_c, 0, 75, 0
2, 44920, Control_c, 0, 64, 0
2, 44980, Note_on_c, 0, 65, 68
2, 44984, Note_on_c, 0, 82, 70
2, 44984, Note_on_c, 0, 70, 72
2, 44984, Note_on_c, 0, 58, 51
2, 44988, Note_on_c, 0, 54, 57
2, 44992, Note_on_c, 0, 60, 61
2, 44992, Note_on_c, 0, 77, 73
2, 45208, Control_c, 0, 64, 127
2, 45440, Note_on_c, 0, 77, 0
2, 45472, Note_on_c, 0, 82, 0
2, 45508, Note_on_c, 0, 70, 0
2, 45540, Note_on_c, 0, 65, 0
2, 45560, Note_on_c, 0, 60, 0
2, 45604, Note_on_c, 0, 58, 0
2, 45608, Note_on_c, 0, 54, 0
2, 46092, Note_on_c, 0, 66, 26
2, 46092, Control_c, 0, 64, 0
2, 46112, Note_on_c, 0, 72, 84
2, 46112, Note_on_c, 0, 69, 67
2, 46112, Note_on_c, 0, 79, 79
2, 46112, Note_on_c, 0, 76, 84
2, 46120, Note_on_c, 0, 67, 63
2, 46124, Note_on_c, 0, 65, 63
2, 46136, Note_on_c, 0, 66, 0
2, 46336, Note_on_c, 0, 65, 0
2, 46344, Note_on_c, 0, 72, 0
2, 46348, Note_on_c, 0, 67, 0
2, 46352, Note_on_c, 0, 79, 0
2, 46360, Note_on_c, 0, 76, 0
2, 46364, Note_on_c, 0, 69, 0
2, 46588, Note_on_c, 0, 81, 73
2, 46592, Note_on_c, 0, 77, 70
2, 46600, Note_on_c, 0, 72, 65
2, 46608, Note_on_c, 0, 65, 58
2, 46608, Note_on_c, 0, 69, 66
2, 46612, Note_on_c, 0, 67, 59
2, 46732, Note_on_c, 0, 67, 0
2, 46736, Note_on_c, 0, 69, 0
2, 46760, Note_on_c, 0, 65, 0
2, 46792, Note_on_c, 0, 81, 0
2, 46796, Note_on_c, 0, 77, 0
2, 46824, Note_on_c, 0, 72, 0
2, 47080, Note_on_c, 0, 75, 79
2, 47084, Note_on_c, 0, 71, 71
2, 47084, Note_on_c, 0, 64, 63
2, 47084, Note_on_c, 0, 59, 57
2, 47084, Note_on_c, 0, 83, 77
2, 47088, Note_on_c, 0, 53, 55
2, 47264, Note_on_c, 0, 76, 31
2, 47284, Note_on_c, 0, 75, 0
2, 47308, Note_on_c, 0, 71, 0
2, 47332, Note_on_c, 0, 76, 0
2, 47336, Note_on_c, 0, 83, 0
2, 47368, Note_on_c, 0, 53, 0
2, 47368, Note_on_c, 0, 64, 0
2, 47372, Note_on_c, 0, 59, 0
2, 47564, Note_on_c, 0, 58, 54
2, 47568, Note_on_c, 0, 57, 57
2, 47568, Note_on_c, 0, 84, 84
2, 47568, Note_on_c, 0, 62, 71
2, 47572, Note_on_c, 0, 77, 72
2, 47572, Note_on_c, 0, 72, 76
2, 47580, Note_on_c, 0, 53, 56
2, 47584, Note_on_c, 0, 81, 59
2, 47760, Note_on_c, 0, 72, 0
2, 47764, Note_on_c, 0, 77, 0
2, 47780, Note_on_c, 0, 62, 0
2, 47780, Note_on_c, 0, 84, 0
2, 47780, Note_on_c, 0, 53, 0
2, 47788, Note_on_c, 0, 81, 0
2, 47792, Note_on_c, 0, 57, 0
2, 47816, Note_on_c, 0, 58, 0
2, 47912, Note_on_c, 0, 58, 67
2, 47920, Note_on_c, 0, 62, 76
2, 47920, Note_on_c, 0, 53, 76
2, 47920, Note_on_c, 0, 84, 85
2, 47924, Note_on_c, 0, 81, 75
2, 47924, Note_on_c, 0, 77, 80
2, 47924, Note_on_c, 0, 72, 82
2, 47928, Note_on_c, 0, 57, 62
2, 48508, Control_c, 0, 64, 127
2, 48640, Note_on_c, 0, 84, 0
2, 48652, Note_on_c, 0, 81, 0
2, 48692, Note_on_c, 0, 77, 0
2, 48724, Note_on_c, 0, 72, 0
2, 48792, Note_on_c, 0, 62, 0
2, 48812, Note_on_c, 0, 53, 0
2, 48832, Note_on_c, 0, 57, 0
2, 48840, Note_on_c, 0, 58, 0
2, 48920, Control_c, 0, 64, 0
2, 48960, Note_on_c, 0, 58, 34
2, 48960, Note_on_c, 0, 62, 49
2, 48972, Note_on_c, 0, 57, 36
2, 48972, Note_on_c, 0, 81, 32
2, 48972, Note_on_c, 0, 69, 44
2, 48980, Note_on_c, 0, 74, 39
2, 48988, Note_on_c, 0, 77, 37
2, 49012, Note_on_c, 0, 69, 0
2, 49012, Note_on_c, 0, 57, 0
2, 49024, Note_on_c, 0, 62, 0
2, 49040, Note_on_c, 0, 74, 0
2, 49048, Note_on_c, 0, 77, 0
2, 49048, Note_on_c, 0, 58, 0
2, 49080, Note_on_c, 0, 81, 0
2, 49424, Note_on_c, 0, 58, 48
2, 49424, Note_on_c, 0, 57, 58
2, 49428, Note_on_c, 0, 84, 76
2, 49428, Note_on_c, 0, 62, 59
2, 49432, Note_on_c, 0, 72, 71
2, 49440, Note_on_c, 0, 77, 64
2, 49440, Note_on_c, 0, 81, 62
2, 49492, Note_on_c, 0, 72, 0
2, 49500, Note_on_c, 0, 77, 0
2, 49508, Note_on_c, 0, 62, 0
2, 49512, Note_on_c, 0, 57, 0
2, 49532, Note_on_c, 0, 81, 0
2, 49544, Note_on_c, 0, 58, 0
2, 49552, Note_on_c, 0, 84, 0
2, 49904, Note_on_c, 0, 86, 73
2, 49908, Note_on_c, 0, 58, 55
2, 49912, Note_on_c, 0, 79, 65
2, 49912, Note_on_c, 0, 74, 68
2, 49912, Note_on_c, 0, 62, 65
2, 49924, Note_on_c, 0, 52, 59
2, 49948, Control_c, 0, 64, 127
2, 50064, Note_on_c, 0, 79, 0
2, 50072, Note_on_c, 0, 86, 0
2, 50080, Note_on_c, 0, 74, 0
2, 50116, Note_on_c, 0, 52, 0
2, 50136, Note_on_c, 0, 62, 0
2, 50156, Note_on_c, 0, 58, 0
2, 50288, Note_on_c, 0, 79, 39
2, 50304, Control_c, 0, 64, 0
2, 50304, Note_on_c, 0, 74, 33
2, 50312, Note_on_c, 0, 58, 32
2, 50324, Note_on_c, 0, 62, 35
2, 50344, Note_on_c, 0, 74, 0
2, 50352, Note_on_c, 0, 79, 0
2, 50356, Note_on_c, 0, 62, 0
2, 50376, Note_on_c, 0, 58, 0
2, 50724, Note_on_c, 0, 74, 64
2, 50724, Note_on_c, 0, 79, 56
2, 50728, Note_on_c, 0, 67, 57
2, 50728, Note_on_c, 0, 58, 45
2, 50728, Note_on_c, 0, 62, 57
2, 50732, Note_on_c, 0, 52, 48
2, 50752, Note_on_c, 0, 67, 0
2, 50756, Note_on_c, 0, 79, 0
2, 50764, Note_on_c, 0, 52, 0
2, 50768, Note_on_c, 0, 74, 0
2, 50772, Note_on_c, 0, 62, 0
2, 50796, Note_on_c, 0, 58, 0
2, 51372, Note_on_c, 0, 58, 57
2, 51380, Note_on_c, 0, 65, 69
2, 51380, Note_on_c, 0, 62, 69
2, 51380, Note_on_c, 0, 72, 66
2, 51380, Note_on_c, 0, 69, 75
2, 51384, Note_on_c, 0, 60, 55
2, 51408, Note_on_c, 0, 60, 0
2, 51412, Note_on_c, 0, 65, 0
2, 51420, Note_on_c, 0, 69, 0
2, 51428, Note_on_c, 0, 72, 0
2, 51428, Note_on_c, 0, 62, 0
2, 51432, Note_on_c, 0, 58, 0
2, 51508, Note_on_c, 0, 58, 38
2, 51512, Note_on_c, 0, 72, 56
2, 51520, Note_on_c, 0, 65, 60
2, 51520, Note_on_c, 0, 62, 39
2, 51524, Note_on_c, 0, 69, 59
2, 51524, Note_on_c, 0, 60, 50
2, 51548, Note_on_c, 0, 60, 0
2, 51548, Note_on_c, 0, 65, 0
2, 51548, Note_on_c, 0, 69, 0
2, 51552, Note_on_c, 0, 72, 0
2, 51552, Note_on_c, 0, 62, 0
2, 51572, Note_on_c, 0, 58, 0
2, 51820, Note_on_c, 0, 58, 59
2, 51828, Note_on_c, 0, 60, 53
2, 51828, Note_on_c, 0, 62, 57
2, 51840, Note_on_c, 0, 69, 64
2, 51844, Note_on_c, 0, 65, 46
2, 51844, Note_on_c, 0, 72, 54
2, 51856, Note_on_c, 0, 62, 0
2, 51856, Note_on_c, 0, 60, 0
2, 51868, Note_on_c, 0, 69, 0
2, 51868, Note_on_c, 0, 72, 0
2, 51876, Note_on_c, 0, 65, 0
2, 51884, Note_on_c, 0, 58, 0
2, 51988, Note_on_c, 0, 66, 69
2, 51988, Note_on_c, 0, 70, 72
2, 51992, Note_on_c, 0, 61, 66
2, 51992, Note_on_c, 0, 73, 65
2, 52000, Note_on_c, 0, 58, 51
2, 52004, Note_on_c, 0, 64, 49
2, 52008, Note_on_c, 0, 62, 63
2, 52028, Note_on_c, 0, 64, 0
2, 52172, Note_on_c, 0, 62, 0
2, 52224, Note_on_c, 0, 61, 0
2, 52228, Note_on_c, 0, 58, 0
2, 52232, Note_on_c, 0, 73, 0
2, 52236, Note_on_c, 0, 66, 0
2, 52248, Note_on_c, 0, 70, 0
2, 52312, Note_on_c, 0, 62, 52
2, 52320, Note_on_c, 0, 58, 30
2, 52320, Note_on_c, 0, 69, 61
2, 52320, Note_on_c, 0, 65, 59
2, 52320, Note_on_c, 0, 72, 60
2, 52328, Note_on_c, 0, 60, 57
2, 52548, Note_on_c, 0, 60, 0
2, 52560, Note_on_c, 0, 62, 0
2, 52560, Note_on_c, 0, 72, 0
2, 52564, Note_on_c, 0, 65, 0
2, 52568, Note_on_c, 0, 69, 0
2, 52604, Note_on_c, 0, 58, 0
2, 52648, Note_on_c, 0, 68, 68
2, 52652, Note_on_c, 0, 61, 64
2, 52652, Note_on_c, 0, 71, 62
2, 52660, Note_on_c, 0, 64, 66
2, 52668, Note_on_c, 0, 59, 60
2, 52672, Note_on_c, 0, 57, 46
2, 52784, Note_on_c, 0, 64, 0
2, 52792, Note_on_c, 0, 57, 0
2, 52808, Note_on_c, 0, 59, 0
2, 52824, Note_on_c, 0, 71, 0
2, 52836, Note_on_c, 0, 61, 0
2, 52836, Note_on_c, 0, 68, 0
2, 52924, Note_on_c, 0, 62, 66
2, 52928, Note_on_c, 0, 69, 69
2, 52928, Note_on_c, 0, 72, 63
2, 52928, Note_on_c, 0, 65, 66
2, 52932, Note_on_c, 0, 58, 44
2, 52940, Note_on_c, 0, 60, 55
2, 53124, Note_on_c, 0, 60, 0
2, 53140, Control_c, 0, 64, 127
2, 53160, Note_on_c, 0, 65, 0
2, 53164, Note_on_c, 0, 62, 0
2, 53176, Note_on_c, 0, 69, 0
2, 53184, Note_on_c, 0, 58, 0
2, 53200, Note_on_c, 0, 72, 0
2, 53228, Control_c, 0, 64, 0
2, 53620, Note_on_c, 0, 58, 55
2, 53620, Note_on_c, 0, 62, 69
2, 53624, Note_on_c, 0, 74, 100
2, 53628, Note_on_c, 0, 57, 40
2, 53656, Note_on_c, 0, 57, 0
2, 53660, Note_on_c, 0, 62, 0
2, 53684, Note_on_c, 0, 58, 0
2, 53704, Note_on_c, 0, 74, 0
2, 53840, Note_on_c, 0, 66, 72
2, 53940, Note_on_c, 0, 66, 0
2, 53984, Note_on_c, 0, 67, 60
2, 54056, Note_on_c, 0, 67, 0
2, 54104, Note_on_c, 0, 62, 31
2, 54136, Note_on_c, 0, 62, 0
2, 54564, Note_on_c, 0, 62, 53
2, 54564, Note_on_c, 0, 57, 48
2, 54580, Note_on_c, 0, 58, 32
2, 55212, Note_on_c, 0, 57, 0
2, 55220, Note_on_c, 0, 68, 69
2, 55232, Note_on_c, 0, 58, 0
2, 55284, Note_on_c, 0, 68, 0
2, 55312, Note_on_c, 0, 62, 0
2, 55340, Note_on_c, 0, 69, 63
2, 55400, Note_on_c, 0, 69, 0
2, 55480, Note_on_c, 0, 70, 73
2, 55572, Note_on_c, 0, 70, 0
2, 55612, Note_on_c, 0, 68, 62
2, 55628, Note_on_c, 0, 63, 30
2, 55644, Note_on_c, 0, 67, 26
2, 55652, Note_on_c, 0, 62, 19
2, 55680, Note_on_c, 0, 57, 10
2, 55700, Note_on_c, 0, 68, 0
2, 55728, Note_on_c, 0, 69, 40
2, 55872, Note_on_c, 0, 69, 0
2, 55876, Note_on_c, 0, 62, 0
2, 55892, Note_on_c, 0, 57, 0
2, 55896, Note_on_c, 0, 67, 0
2, 55912, Note_on_c, 0, 63, 0
2, 56652, Note_on_c, 0, 63, 49
2, 56660, Note_on_c, 0, 62, 52
2, 56664, Note_on_c, 0, 72, 70
2, 56664, Note_on_c, 0, 67, 47
2, 56692, Note_on_c, 0, 67, 0
2, 56692, Note_on_c, 0, 62, 0
2, 56692, Note_on_c, 0, 84, 82
2, 56732, Note_on_c, 0, 72, 0
2, 56732, Note_on_c, 0, 63, 0
2, 56812, Note_on_c, 0, 84, 0
2, 56840, Note_on_c, 0, 72, 55
2, 56924, Note_on_c, 0, 72, 0
2, 56928, Note_on_c, 0, 84, 51
2, 57028, Note_on_c, 0, 72, 40
2, 57032, Note_on_c, 0, 84, 0
2, 57136, Note_on_c, 0, 72, 0
2, 57140, Note_on_c, 0, 84, 57
2, 57232, Note_on_c, 0, 72, 36
2, 57240, Note_on_c, 0, 84, 0
2, 57340, Note_on_c, 0, 84, 43
2, 57360, Note_on_c, 0, 72, 0
2, 57440, Note_on_c, 0, 60, 65
2, 57440, Note_on_c, 0, 65, 66
2, 57444, Note_on_c, 0, 61, 51
2, 57504, Note_on_c, 0, 65, 0
2, 57508, Note_on_c, 0, 84, 0
2, 57520, Note_on_c, 0, 60, 0
2, 57548, Note_on_c, 0, 61, 0
2, 57988, Note_on_c, 0, 84, 91
2, 58348, Note_on_c, 0, 84, 0
2, 58348, Note_on_c, 0, 82, 35
2, 58412, Note_on_c, 0, 82, 0
2, 58448, Note_on_c, 0, 81, 38
2, 58564, Note_on_c, 0, 79, 44
2, 58620, Note_on_c, 0, 81, 0
2, 58668, Note_on_c, 0, 79, 0
2, 58672, Note_on_c, 0, 78, 45
2, 58692, Note_on_c, 0, 65, 28
2, 58700, Note_on_c, 0, 61, 20
2, 58708, Note_on_c, 0, 60, 17
2, 58720, Note_on_c, 0, 55, 31
2, 58772, Note_on_c, 0, 78, 0
2, 58788, Note_on_c, 0, 77, 37
2, 59288, Note_on_c, 0, 60, 0
2, 59292, Note_on_c, 0, 65, 0
2, 59348, Note_on_c, 0, 61, 0
2, 59432, Note_on_c, 0, 77, 0
2, 59544, Note_on_c, 0, 71, 55
2, 59552, Note_on_c, 0, 60, 24
2, 59564, Note_on_c, 0, 59, 21
2, 59584, Note_on_c, 0, 64, 20
2, 59624, Note_on_c, 0, 71, 0
2, 59672, Note_on_c, 0, 72, 50
2, 59744, Note_on_c, 0, 72, 0
2, 59968, Note_on_c, 0, 64, 0
2, 60004, Note_on_c, 0, 76, 69
2, 60044, Note_on_c, 0, 59, 0
2, 60044, Note_on_c, 0, 60, 0
2, 60092, Note_on_c, 0, 55, 0
2, 60112, Note_on_c, 0, 76, 0
2, 60320, Note_on_c, 0, 55, 57
2, 60332, Note_on_c, 0, 60, 33
2, 60332, Note_on_c, 0, 79, 71
2, 60364, Note_on_c, 0, 60, 0
2, 60396, Note_on_c, 0, 79, 0
2, 60412, Note_on_c, 0, 55, 0
2, 60532, Note_on_c, 0, 59, 46
2, 60540, Note_on_c, 0, 80, 52
2, 60540, Note_on_c, 0, 68, 57
2, 60544, Note_on_c, 0, 53, 40
2, 60544, Note_on_c, 0, 64, 36
2, 60564, Note_on_c, 0, 68, 0
2, 60564, Note_on_c, 0, 59, 0
2, 60568, Note_on_c, 0, 80, 0
2, 60572, Note_on_c, 0, 53, 0
2, 60576, Note_on_c, 0, 64, 0
2, 60828, Note_on_c, 0, 59, 51
2, 60832, Note_on_c, 0, 53, 53
2, 60832, Note_on_c, 0, 64, 50
2, 60844, Note_on_c, 0, 81, 63
2, 60844, Note_on_c, 0, 69, 66
2, 60860, Note_on_c, 0, 64, 0
2, 60868, Note_on_c, 0, 81, 0
2, 60872, Note_on_c, 0, 53, 0
2, 60904, Note_on_c, 0, 69, 0
2, 60908, Note_on_c, 0, 59, 0
2, 61028, Note_on_c, 0, 59, 44
2, 61028, Note_on_c, 0, 63, 52
2, 61032, Note_on_c, 0, 65, 26
2, 61040, Note_on_c, 0, 53, 35
2, 61048, Note_on_c, 0, 56, 32
2, 61080, Note_on_c, 0, 71, 8
2, 61132, Control_c, 0, 64, 127
2, 61152, Note_on_c, 0, 71, 0
2, 61156, Note_on_c, 0, 59, 0
2, 61204, Note_on_c, 0, 65, 0
2, 61220, Note_on_c, 0, 63, 0
2, 61228, Note_on_c, 0, 53, 0
2, 61276, Note_on_c, 0, 56, 0
2, 61312, Note_on_c, 0, 72, 59
2, 61320, Note_on_c, 0, 67, 64
2, 61324, Note_on_c, 0, 62, 51
2, 61328, Note_on_c, 0, 57, 53
2, 61332, Control_c, 0, 64, 0
2, 61340, Note_on_c, 0, 52, 43
2, 61392, Note_on_c, 0, 69, 10
2, 61400, Note_on_c, 0, 57, 0
2, 61448, Note_on_c, 0, 52, 0
2, 61788, Note_on_c, 0, 55, 105
2, 61792, Note_on_c, 0, 54, 77
2, 61812, Note_on_c, 0, 51, 34
2, 61816, Note_on_c, 0, 54, 0
2, 61816, Note_on_c, 0, 62, 0
2, 61824, Note_on_c, 0, 67, 0
2, 61832, Note_on_c, 0, 69, 0
2, 61836, Note_on_c, 0, 72, 0
2, 61840, Note_on_c, 0, 51, 0
2, 62444, Note_on_c, 0, 62, 74
2, 62444, Note_on_c, 0, 60, 78
2, 62508, Note_on_c, 0, 60, 0
2, 62512, Note_on_c, 0, 62, 0
2, 62792, Note_on_c, 0, 57, 43
2, 62856, Note_on_c, 0, 57, 0
2, 62920, Note_on_c, 0, 55, 0
2, 62952, Note_on_c, 0, 59, 57
2, 62964, Note_on_c, 0, 60, 44
2, 62992, Note_on_c, 0, 60, 0
2, 63224, Note_on_c, 0, 59, 0
2, 63248, Note_on_c, 0, 57, 52
2, 63348, Note_on_c, 0, 57, 0
2, 63388, Note_on_c, 0, 58, 63
2, 63716, Note_on_c, 0, 58, 0
2, 63728, Note_on_c, 0, 54, 20
2, 63792, Note_on_c, 0, 54, 0
2, 63848, Note_on_c, 0, 57, 60
2, 64168, Note_on_c, 0, 57, 0
2, 64204, Note_on_c, 0, 54, 28
2, 64312, Note_on_c, 0, 54, 0
2, 64340, Note_on_c, 0, 55, 55
2, 64620, Note_on_c, 0, 55, 0
2, 64668, Note_on_c, 0, 48, 61
2, 64732, Note_on_c, 0, 48, 0
2, 65272, Note_on_c, 0, 62, 50
2, 65280, Note_on_c, 0, 58, 37
2, 65288, Note_on_c, 0, 52, 26
2, 65304, Note_on_c, 0, 62, 0
2, 65320, Note_on_c, 0, 52, 0
2, 65344, Note_on_c, 0, 58, 0
2, 66252, Note_on_c, 0, 62, 53
2, 66260, Note_on_c, 0, 58, 39
2, 66280, Note_on_c, 0, 62, 0
2, 66308, Note_on_c, 0, 58, 0
2, 66724, Note_on_c, 0, 75, 77
2, 67044, Note_on_c, 0, 72, 57
2, 67048, Note_on_c, 0, 75, 0
2, 67088, Note_on_c, 0, 58, 25
2, 67168, Note_on_c, 0, 58, 0
2, 68028, Note_on_c, 0, 72, 0
2, 68028, Note_on_c, 0, 58, 47
2, 68028, Note_on_c, 0, 62, 48
2, 68032, Note_on_c, 0, 57, 41
2, 68064, Note_on_c, 0, 57, 0
2, 68068, Note_on_c, 0, 62, 0
2, 68092, Note_on_c, 0, 58, 0
2, 68172, Note_on_c, 0, 72, 85
2, 68396, Note_on_c, 0, 72, 0
2, 68404, Note_on_c, 0, 71, 50
2, 68468, Note_on_c, 0, 70, 57
2, 68472, Note_on_c, 0, 71, 0
2, 68560, Note_on_c, 0, 69, 58
2, 68572, Note_on_c, 0, 70, 0
2, 68640, Note_on_c, 0, 69, 0
2, 68700, Note_on_c, 0, 66, 41
2, 68908, Note_on_c, 0, 66, 0
2, 68972, Note_on_c, 0, 69, 56
2, 69000, Note_on_c, 0, 62, 31
2, 69032, Note_on_c, 0, 62, 0
2, 69104, Note_on_c, 0, 69, 0
2, 69164, Note_on_c, 0, 66, 29
2, 69256, Note_on_c, 0, 66, 0
2, 69288, Note_on_c, 0, 67, 53
2, 69380, Note_on_c, 0, 67, 0
2, 69420, Note_on_c, 0, 69, 53
2, 69532, Note_on_c, 0, 69, 0
2, 69564, Note_on_c, 0, 70, 51
2, 69652, Note_on_c, 0, 70, 0
2, 69688, Note_on_c, 0, 71, 40
2, 69776, Note_on_c, 0, 71, 0
2, 69828, Note_on_c, 0, 74, 73
2, 69928, Note_on_c, 0, 74, 0
2, 69964, Note_on_c, 0, 71, 57
2, 70036, Note_on_c, 0, 71, 0
2, 70220, Note_on_c, 0, 73, 53
2, 70304, Note_on_c, 0, 73, 0
2, 70332, Note_on_c, 0, 75, 57
2, 70420, Note_on_c, 0, 75, 0
2, 70460, Note_on_c, 0, 76, 69
2, 70492, Note_on_c, 0, 58, 29
2, 70500, Note_on_c, 0, 62, 32
2, 70528, Note_on_c, 0, 52, 19
2, 70552, Note_on_c, 0, 76, 0
2, 70556, Note_on_c, 0, 52, 0
2, 70560, Note_on_c, 0, 62, 0
2, 70588, Note_on_c, 0, 78, 54
2, 70604, Note_on_c, 0, 58, 0
2, 70660, Note_on_c, 0, 78, 0
2, 70712, Note_on_c, 0, 79, 58
2, 70812, Note_on_c, 0, 79, 0
2, 70840, Note_on_c, 0, 80, 45
2, 70932, Note_on_c, 0, 80, 0
2, 70948, Note_on_c, 0, 81, 51
2, 71012, Note_on_c, 0, 63, 30
2, 71020, Note_on_c, 0, 67, 34
2, 71028, Note_on_c, 0, 62, 32
2, 71044, Note_on_c, 0, 57, 33
2, 71072, Note_on_c, 0, 82, 50
2, 71080, Note_on_c, 0, 81, 0
2, 71176, Note_on_c, 0, 82, 0
2, 71204, Note_on_c, 0, 83, 45
2, 71272, Note_on_c, 0, 83, 0
2, 71332, Note_on_c, 0, 84, 67
2, 71400, Note_on_c, 0, 84, 0
2, 71424, Note_on_c, 0, 67, 0
2, 71436, Note_on_c, 0, 62, 0
2, 71464, Note_on_c, 0, 57, 0
2, 71476, Note_on_c, 0, 63, 0
2, 71484, Text_t, "The drums are a bit uninspired!"
2, 71484, Note_on_c, 0, 81, 47
2, 71556, Note_on_c, 0, 81, 0
2, 71748, Note_on_c, 0, 77, 57
2, 71796, Note_on_c, 0, 77, 0
2, 72300, Note_on_c, 0, 63, 46
2, 72304, Note_on_c, 0, 67, 61
2, 72304, Note_on_c, 0, 62, 49
2, 72328, Note_on_c, 0, 67, 0
2, 72344, Note_on_c, 0, 62, 0
2, 72368, Note_on_c, 0, 63, 0
2, 72628, Note_on_c, 0, 74, 56
2, 72656, Note_on_c, 0, 74, 0
2, 72744, Note_on_c, 0, 75, 69
2, 72816, Note_on_c, 0, 75, 0
2, 72872, Note_on_c, 0, 76, 75
2, 72944, Note_on_c, 0, 76, 0
2, 72952, Note_on_c, 0, 60, 25
2, 72960, Note_on_c, 0, 65, 39
2, 72960, Note_on_c, 0, 61, 33
2, 72968, Note_on_c, 0, 55, 37
2, 73004, Note_on_c, 0, 77, 73
2, 73292, Note_on_c, 0, 69, 66
2, 73656, Note_on_c, 0, 60, 0
2, 73664, Note_on_c, 0, 65, 0
2, 73696, Note_on_c, 0, 55, 0
2, 73720, Note_on_c, 0, 61, 0
2, 73904, Note_on_c, 0, 69, 0
2, 73916, Note_on_c, 0, 77, 0
2, 73944, Note_on_c, 0, 72, 56
2, 73948, Note_on_c, 0, 65, 44
2, 73948, Note_on_c, 0, 61, 29
2, 73960, Note_on_c, 0, 55, 38
2, 74176, Note_on_c, 0, 65, 0
2, 74180, Note_on_c, 0, 55, 0
2, 74208, Note_on_c, 0, 61, 0
2, 74236, Note_on_c, 0, 72, 0
2, 74268, Note_on_c, 0, 77, 61
2, 74292, Note_on_c, 0, 55, 37
2, 74304, Note_on_c, 0, 61, 26
2, 74308, Note_on_c, 0, 65, 20
2, 74332, Note_on_c, 0, 77, 0
2, 74336, Note_on_c, 0, 55, 0
2, 74336, Note_on_c, 0, 65, 0
2, 74368, Note_on_c, 0, 61, 0
2, 74868, Note_on_c, 0, 59, 61
2, 74872, Note_on_c, 0, 71, 72
2, 74872, Note_on_c, 0, 83, 76
2, 74932, Note_on_c, 0, 83, 0
2, 74932, Note_on_c, 0, 71, 0
2, 74932, Note_on_c, 0, 59, 0
2, 75180, Note_on_c, 0, 60, 68
2, 75184, Note_on_c, 0, 72, 66
2, 75184, Note_on_c, 0, 84, 76
2, 75232, Note_on_c, 0, 72, 0
2, 75236, Note_on_c, 0, 84, 0
2, 75248, Note_on_c, 0, 60, 0
2, 75348, Note_on_c, 0, 64, 59
2, 75364, Note_on_c, 0, 88, 69
2, 75364, Note_on_c, 0, 76, 63
2, 75376, Note_on_c, 0, 64, 0
2, 75388, Note_on_c, 0, 76, 0
2, 75392, Note_on_c, 0, 88, 0
2, 75440, Control_c, 0, 64, 127
2, 75508, Control_c, 0, 64, 0
2, 75572, Control_c, 0, 64, 127
2, 75644, Note_on_c, 0, 79, 75
2, 75648, Note_on_c, 0, 91, 72
2, 75692, Note_on_c, 0, 91, 0
2, 75704, Note_on_c, 0, 79, 0
2, 75728, Control_c, 0, 64, 0
2, 75828, Note_on_c, 0, 80, 64
2, 75828, Note_on_c, 0, 59, 49
2, 75832, Note_on_c, 0, 92, 72
2, 75840, Note_on_c, 0, 64, 40
2, 75844, Note_on_c, 0, 53, 37
2, 75852, Control_c, 0, 64, 127
2, 75984, Note_on_c, 0, 64, 0
2, 76004, Note_on_c, 0, 53, 0
2, 76020, Note_on_c, 0, 59, 0
2, 76036, Note_on_c, 0, 80, 0
2, 76040, Note_on_c, 0, 92, 0
2, 76112, Note_on_c, 0, 93, 71
2, 76124, Note_on_c, 0, 81, 49
2, 76124, Note_on_c, 0, 59, 59
2, 76144, Note_on_c, 0, 53, 31
2, 76172, Note_on_c, 0, 93, 0
2, 76176, Note_on_c, 0, 53, 0
2, 76192, Note_on_c, 0, 81, 0
2, 76232, Note_on_c, 0, 59, 0
2, 76240, Control_c, 0, 64, 0
2, 76308, Note_on_c, 0, 53, 46
2, 76308, Note_on_c, 0, 59, 42
2, 76312, Note_on_c, 0, 56, 44
2, 76320, Note_on_c, 0, 63, 46
2, 76440, Note_on_c, 0, 59, 0
2, 76508, Note_on_c, 0, 53, 0
2, 76560, Note_on_c, 0, 63, 0
2, 76572, Note_on_c, 0, 56, 0
2, 76624, Note_on_c, 0, 62, 63
2, 76632, Note_on_c, 0, 52, 50
2, 76640, Note_on_c, 0, 57, 53
2, 76968, Note_on_c, 0, 83, 82
2, 77036, Note_on_c, 0, 83, 0
2, 77120, Note_on_c, 0, 84, 80
2, 77200, Note_on_c, 0, 84, 0
2, 77256, Note_on_c, 0, 62, 0
2, 77268, Note_on_c, 0, 86, 79
2, 77288, Note_on_c, 0, 57, 0
2, 77352, Note_on_c, 0, 86, 0
2, 77412, Note_on_c, 0, 52, 0
2, 77432, Note_on_c, 0, 83, 79
2, 77580, Note_on_c, 0, 83, 0
2, 77592, Note_on_c, 0, 79, 84
2, 77604, Note_on_c, 0, 54, 72
2, 77612, Note_on_c, 0, 55, 83
2, 77656, Note_on_c, 0, 54, 0
2, 77876, Note_on_c, 0, 79, 0
2, 77892, Note_on_c, 0, 76, 50
2, 77964, Note_on_c, 0, 76, 0
2, 78064, Note_on_c, 0, 71, 49
2, 78068, Note_on_c, 0, 72, 48
2, 78092, Note_on_c, 0, 72, 0
2, 78176, Note_on_c, 0, 71, 0
2, 78224, Note_on_c, 0, 67, 49
2, 78296, Note_on_c, 0, 67, 0
2, 78336, Note_on_c, 0, 55, 0
2, 78372, Note_on_c, 0, 72, 75
2, 78524, Note_on_c, 0, 70, 74
2, 78532, Note_on_c, 0, 72, 0
2, 78616, Note_on_c, 0, 70, 0
2, 78684, Note_on_c, 0, 62, 39
2, 78700, Note_on_c, 0, 58, 29
2, 78704, Note_on_c, 0, 57, 19
2, 78844, Note_on_c, 0, 69, 57
2, 78948, Note_on_c, 0, 69, 0
2, 78972, Note_on_c, 0, 66, 51
2, 79024, Note_on_c, 0, 62, 0
2, 79044, Note_on_c, 0, 66, 0
2, 79104, Note_on_c, 0, 67, 66
2, 79196, Note_on_c, 0, 67, 0
2, 79208, Note_on_c, 0, 58, 0
2, 79252, Note_on_c, 0, 57, 0
2, 79260, Note_on_c, 0, 62, 23
2, 79304, Note_on_c, 0, 62, 0
2, 79384, Note_on_c, 0, 60, 63
2, 79452, Note_on_c, 0, 60, 0
2, 79680, Note_on_c, 0, 58, 69
2, 79820, Note_on_c, 0, 58, 0
2, 79860, Note_on_c, 0, 60, 42
2, 79928, Note_on_c, 0, 58, 44
2, 79932, Note_on_c, 0, 60, 0
2, 80040, Note_on_c, 0, 58, 0
2, 80044, Note_on_c, 0, 57, 52
2, 80132, Note_on_c, 0, 57, 0
2, 80188, Note_on_c, 0, 54, 37
2, 80452, Note_on_c, 0, 54, 0
2, 80472, Note_on_c, 0, 57, 55
2, 80600, Note_on_c, 0, 57, 0
2, 80664, Note_on_c, 0, 54, 26
2, 80764, Note_on_c, 0, 54, 0
2, 80788, Note_on_c, 0, 55, 53
2, 81796, Note_on_c, 0, 55, 0
2, 81808, Note_on_c, 0, 60, 70
2, 82088, Note_on_c, 0, 60, 0
2, 82108, Note_on_c, 0, 65, 74
2, 82148, Control_c, 0, 64, 127
2, 82268, Note_on_c, 0, 65, 0
2, 82420, Note_on_c, 0, 70, 79
2, 82560, Note_on_c, 0, 70, 0
2, 82664, Control_c, 0, 64, 0
2, 82708, Note_on_c, 0, 75, 75
2, 82800, Control_c, 0, 64, 127
2, 82960, Note_on_c, 0, 75, 0
2, 83052, Control_c, 0, 64, 0
2, 83852, Note_on_c, 0, 63, 51
2, 83884, Note_on_c, 0, 57, 26
2, 83892, Note_on_c, 0, 63, 0
2, 83916, Note_on_c, 0, 57, 0
2, 84340, Note_on_c, 0, 81, 69
2, 84372, Note_on_c, 0, 81, 0
2, 84492, Note_on_c, 0, 84, 78
2, 84504, Note_on_c, 0, 72, 73
2, 84712, Note_on_c, 0, 72, 0
2, 84712, Note_on_c, 0, 84, 0
2, 84864, Note_on_c, 0, 58, 20
2, 84892, Note_on_c, 0, 58, 0
2, 84984, Note_on_c, 0, 84, 82
2, 84984, Note_on_c, 0, 72, 71
2, 85156, Note_on_c, 0, 84, 0
2, 85176, Note_on_c, 0, 72, 0
2, 85308, Note_on_c, 0, 84, 75
2, 85324, Note_on_c, 0, 62, 25
2, 85328, Note_on_c, 0, 58, 20
2, 85352, Note_on_c, 0, 62, 0
2, 85360, Note_on_c, 0, 58, 0
2, 85408, Note_on_c, 0, 84, 0
2, 85508, Note_on_c, 0, 81, 34
2, 85700, Note_on_c, 0, 81, 0
2, 85780, Note_on_c, 0, 62, 63
2, 85780, Note_on_c, 0, 84, 79
2, 85784, Note_on_c, 0, 57, 48
2, 85788, Note_on_c, 0, 72, 64
2, 85788, Note_on_c, 0, 58, 32
2, 85816, Note_on_c, 0, 57, 0
2, 85836, Note_on_c, 0, 58, 0
2, 85840, Note_on_c, 0, 62, 0
2, 85880, Note_on_c, 0, 72, 0
2, 85900, Note_on_c, 0, 84, 0
2, 85972, Note_on_c, 0, 81, 32
2, 86160, Note_on_c, 0, 81, 0
2, 86248, Note_on_c, 0, 67, 65
2, 86248, Note_on_c, 0, 63, 42
2, 86248, Note_on_c, 0, 62, 55
2, 86252, Note_on_c, 0, 84, 80
2, 86264, Note_on_c, 0, 72, 66
2, 86268, Note_on_c, 0, 57, 31
2, 86288, Note_on_c, 0, 67, 0
2, 86308, Note_on_c, 0, 57, 0
2, 86332, Note_on_c, 0, 63, 0
2, 86344, Note_on_c, 0, 72, 0
2, 86364, Note_on_c, 0, 84, 0
2, 86396, Note_on_c, 0, 62, 0
2, 86508, Note_on_c, 0, 80, 20
2, 86536, Note_on_c, 0, 80, 0
2, 86608, Note_on_c, 0, 81, 42
2, 86680, Note_on_c, 0, 81, 0
2, 86732, Note_on_c, 0, 84, 90
2, 86876, Note_on_c, 0, 84, 0
2, 86904, Note_on_c, 0, 80, 33
2, 86984, Note_on_c, 0, 80, 0
2, 87044, Note_on_c, 0, 81, 36
2, 87156, Note_on_c, 0, 81, 0
2, 87192, Note_on_c, 0, 72, 57
2, 87680, Note_on_c, 0, 63, 35
2, 87688, Note_on_c, 0, 67, 32
2, 87692, Note_on_c, 0, 62, 25
2, 87720, Note_on_c, 0, 67, 0
2, 87752, Note_on_c, 0, 62, 0
2, 87764, Note_on_c, 0, 63, 0
2, 87836, Note_on_c, 0, 72, 0
2, 87852, Note_on_c, 0, 73, 32
2, 87916, Note_on_c, 0, 73, 0
2, 87952, Note_on_c, 0, 74, 51
2, 88044, Note_on_c, 0, 74, 0
2, 88088, Note_on_c, 0, 75, 35
2, 88152, Note_on_c, 0, 75, 0
2, 88208, Note_on_c, 0, 76, 55
2, 88280, Note_on_c, 0, 76, 0
2, 88280, Note_on_c, 0, 65, 47
2, 88288, Note_on_c, 0, 61, 30
2, 88292, Note_on_c, 0, 60, 22
2, 88328, Note_on_c, 0, 77, 61
2, 88328, Note_on_c, 0, 55, 25
2, 88368, Note_on_c, 0, 65, 0
2, 88388, Note_on_c, 0, 55, 0
2, 88400, Note_on_c, 0, 60, 0
2, 88408, Note_on_c, 0, 77, 0
2, 88428, Note_on_c, 0, 61, 0
2, 88484, Note_on_c, 0, 69, 61
2, 88744, Note_on_c, 0, 69, 0
2, 88792, Note_on_c, 0, 70, 34
2, 88824, Note_on_c, 0, 71, 67
2, 88840, Note_on_c, 0, 70, 0
2, 88888, Note_on_c, 0, 71, 0
2, 88904, Note_on_c, 0, 72, 52
2, 89008, Note_on_c, 0, 71, 48
2, 89016, Note_on_c, 0, 72, 0
2, 89100, Note_on_c, 0, 71, 0
2, 89112, Note_on_c, 0, 70, 33
2, 89212, Note_on_c, 0, 70, 0
2, 89580, Note_on_c, 0, 55, 56
2, 89600, Note_on_c, 0, 61, 45
2, 89600, Note_on_c, 0, 65, 55
2, 89952, Note_on_c, 0, 65, 0
2, 90000, Note_on_c, 0, 61, 0
2, 90044, Note_on_c, 0, 55, 0
2, 90248, Note_on_c, 0, 71, 49
2, 90252, Note_on_c, 0, 56, 37
2, 90260, Note_on_c, 0, 65, 53
2, 90428, Note_on_c, 0, 71, 0
2, 90464, Control_c, 0, 64, 127
2, 90540, Note_on_c, 0, 65, 0
2, 90572, Note_on_c, 0, 57, 63
2, 90580, Note_on_c, 0, 72, 60
2, 90652, Note_on_c, 0, 72, 0
2, 90724, Note_on_c, 0, 57, 0
2, 90740, Control_c, 0, 64, 0
2, 90744, Note_on_c, 0, 56, 0
2, 90760, Note_on_c, 0, 76, 73
2, 90764, Note_on_c, 0, 60, 63
2, 90844, Note_on_c, 0, 76, 0
2, 90908, Control_c, 0, 64, 127
2, 90928, Note_on_c, 0, 60, 0
2, 91044, Note_on_c, 0, 62, 67
2, 91048, Note_on_c, 0, 79, 69
2, 91076, Note_on_c, 0, 62, 0
2, 91116, Note_on_c, 0, 79, 0
2, 91152, Control_c, 0, 64, 0
2, 91240, Note_on_c, 0, 68, 60
2, 91244, Note_on_c, 0, 80, 57
2, 91248, Note_on_c, 0, 59, 46
2, 91252, Note_on_c, 0, 64, 35
2, 91260, Note_on_c, 0, 53, 40
2, 91308, Control_c, 0, 64, 127
2, 91420, Note_on_c, 0, 53, 0
2, 91424, Note_on_c, 0, 64, 0
2, 91452, Note_on_c, 0, 59, 0
2, 91452, Note_on_c, 0, 80, 0
2, 91464, Note_on_c, 0, 68, 0
2, 91524, Note_on_c, 0, 81, 64
2, 91540, Note_on_c, 0, 59, 45
2, 91544, Note_on_c, 0, 69, 53
2, 91592, Note_on_c, 0, 81, 0
2, 91608, Note_on_c, 0, 69, 0
2, 91640, Note_on_c, 0, 59, 0
2, 91640, Control_c, 0, 64, 0
2, 91720, Note_on_c, 0, 59, 50
2, 91720, Note_on_c, 0, 63, 31
2, 91740, Note_on_c, 0, 53, 14
2, 91760, Control_c, 0, 64, 127
2, 91768, Note_on_c, 0, 56, 13
2, 91824, Note_on_c, 0, 59, 0
2, 91888, Note_on_c, 0, 53, 0
2, 91908, Note_on_c, 0, 63, 0
2, 91940, Note_on_c, 0, 56, 0
2, 92020, Note_on_c, 0, 67, 49
2, 92020, Note_on_c, 0, 72, 48
2, 92024, Note_on_c, 0, 62, 50
2, 92044, Note_on_c, 0, 52, 35
2, 92048, Note_on_c, 0, 57, 46
2, 92060, Control_c, 0, 64, 0
2, 92252, Control_c, 0, 64, 127
2, 92384, Note_on_c, 0, 67, 0
2, 92404, Note_on_c, 0, 72, 0
2, 92948, Note_on_c, 0, 62, 0
2, 92968, Note_on_c, 0, 57, 0
2, 93460, Note_on_c, 0, 62, 27
2, 93460, Note_on_c, 0, 57, 33
2, 93544, Note_on_c, 0, 57, 0
2, 93588, Note_on_c, 0, 67, 108
2, 93620, Control_c, 0, 64, 0
2, 93636, Note_on_c, 0, 52, 0
2, 93740, Note_on_c, 0, 67, 0
2, 93748, Note_on_c, 0, 64, 53
2, 93792, Note_on_c, 0, 62, 0
2, 93812, Note_on_c, 0, 64, 0
2, 93864, Note_on_c, 0, 65, 59
2, 93968, Note_on_c, 0, 65, 0
2, 93992, Note_on_c, 0, 67, 60
2, 94068, Note_on_c, 0, 63, 26
2, 94100, Note_on_c, 0, 67, 0
2, 94100, Note_on_c, 0, 60, 28
2, 94108, Note_on_c, 0, 56, 20
2, 94124, Note_on_c, 0, 68, 52
2, 94288, Note_on_c, 0, 65, 57
2, 94292, Note_on_c, 0, 68, 0
2, 94356, Note_on_c, 0, 65, 0
2, 94404, Note_on_c, 0, 67, 55
2, 94488, Note_on_c, 0, 67, 0
2, 94528, Note_on_c, 0, 68, 60
2, 94612, Note_on_c, 0, 68, 0
2, 94648, Note_on_c, 0, 70, 52
2, 94728, Note_on_c, 0, 70, 0
2, 94776, Note_on_c, 0, 56, 0
2, 94788, Note_on_c, 0, 67, 25
2, 94808, Note_on_c, 0, 63, 0
2, 94840, Note_on_c, 0, 67, 0
2, 94868, Note_on_c, 0, 68, 59
2, 94880, Note_on_c, 0, 60, 0
2, 94960, Note_on_c, 0, 68, 0
2, 94992, Note_on_c, 0, 70, 62
2, 95076, Note_on_c, 0, 70, 0
2, 95088, Note_on_c, 0, 66, 43
2, 95108, Note_on_c, 0, 62, 31
2, 95120, Note_on_c, 0, 56, 27
2, 95128, Note_on_c, 0, 72, 35
2, 95268, Note_on_c, 0, 72, 0
2, 95328, Note_on_c, 0, 62, 0
2, 95332, Note_on_c, 0, 66, 0
2, 95340, Note_on_c, 0, 56, 0
2, 95824, Note_on_c, 0, 59, 57
2, 95828, Note_on_c, 0, 60, 58
2, 95828, Note_on_c, 0, 64, 54
2, 96308, Note_on_c, 0, 60, 0
2, 96384, Note_on_c, 0, 60, 46
2, 96448, Note_on_c, 0, 64, 0
2, 96492, Note_on_c, 0, 71, 85
2, 96584, Note_on_c, 0, 71, 0
2, 96604, Note_on_c, 0, 59, 0
2, 96620, Note_on_c, 0, 67, 64
2, 96652, Note_on_c, 0, 60, 0
2, 96720, Note_on_c, 0, 67, 0
2, 96728, Note_on_c, 0, 69, 58
2, 96848, Note_on_c, 0, 70, 56
2, 96860, Note_on_c, 0, 69, 0
2, 96900, Note_on_c, 0, 70, 0
2, 96900, Note_on_c, 0, 64, 28
2, 96908, Note_on_c, 0, 60, 27
2, 96932, Note_on_c, 0, 59, 20
2, 96968, Note_on_c, 0, 71, 45
2, 97028, Note_on_c, 0, 71, 0
2, 97080, Note_on_c, 0, 74, 57
2, 97188, Note_on_c, 0, 74, 0
2, 97200, Note_on_c, 0, 78, 57
2, 97272, Note_on_c, 0, 78, 0
2, 97332, Note_on_c, 0, 81, 79
2, 97404, Note_on_c, 0, 81, 0
2, 97448, Note_on_c, 0, 84, 69
2, 97464, Note_on_c, 0, 64, 0
2, 97492, Note_on_c, 0, 59, 0
2, 97516, Note_on_c, 0, 60, 0
2, 97548, Note_on_c, 0, 84, 0
2, 97604, Note_on_c, 0, 88, 58
2, 97608, Note_on_c, 0, 86, 58
2, 97660, Note_on_c, 0, 86, 0
2, 97664, Note_on_c, 0, 88, 0
2, 97804, Note_on_c, 0, 67, 73
2, 97804, Note_on_c, 0, 63, 66
2, 97808, Note_on_c, 0, 60, 63
2, 97820, Note_on_c, 0, 56, 46
2, 98180, Note_on_c, 0, 91, 76
2, 98188, Note_on_c, 0, 84, 70
2, 98188, Note_on_c, 0, 85, 29
2, 98188, Note_on_c, 0, 87, 51
2, 98192, Note_on_c, 0, 79, 66
2, 98212, Note_on_c, 0, 85, 0
2, 98232, Note_on_c, 0, 79, 0
2, 98248, Note_on_c, 0, 87, 0
2, 98248, Note_on_c, 0, 67, 0
2, 98260, Note_on_c, 0, 84, 0
2, 98264, Note_on_c, 0, 91, 0
2, 98320, Note_on_c, 0, 77, 57
2, 98328, Note_on_c, 0, 89, 32
2, 98332, Note_on_c, 0, 67, 34
2, 98360, Note_on_c, 0, 89, 0
2, 98364, Note_on_c, 0, 77, 0
2, 98364, Note_on_c, 0, 67, 0
2, 98408, Note_on_c, 0, 60, 0
2, 98412, Note_on_c, 0, 63, 0
2, 98412, Note_on_c, 0, 56, 0
2, 98448, Note_on_c, 0, 63, 25
2, 98452, Note_on_c, 0, 67, 48
2, 98452, Note_on_c, 0, 56, 18
2, 98460, Note_on_c, 0, 91, 72
2, 98468, Note_on_c, 0, 60, 39
2, 98468, Note_on_c, 0, 87, 41
2, 98468, Note_on_c, 0, 79, 59
2, 98472, Note_on_c, 0, 84, 51
2, 98496, Note_on_c, 0, 79, 0
2, 98516, Note_on_c, 0, 84, 0
2, 98536, Note_on_c, 0, 67, 0
2, 98540, Note_on_c, 0, 87, 0
2, 98552, Note_on_c, 0, 91, 0
2, 98564, Note_on_c, 0, 56, 0
2, 98600, Note_on_c, 0, 60, 0
2, 98628, Note_on_c, 0, 63, 0
2, 98764, Note_on_c, 0, 63, 41
2, 98764, Note_on_c, 0, 94, 73
2, 98764, Note_on_c, 0, 82, 78
2, 98768, Note_on_c, 0, 67, 60
2, 98768, Note_on_c, 0, 60, 51
2, 98784, Note_on_c, 0, 56, 25
2, 98796, Note_on_c, 0, 67, 0
2, 98804, Note_on_c, 0, 82, 0
2, 98804, Note_on_c, 0, 94, 0
2, 98816, Note_on_c, 0, 63, 0
2, 98848, Note_on_c, 0, 56, 0
2, 98872, Note_on_c, 0, 60, 0
2, 99024, Note_on_c, 0, 85, 62
2, 99028, Note_on_c, 0, 91, 64
2, 99028, Note_on_c, 0, 79, 66
2, 99044, Note_on_c, 0, 67, 56
2, 99044, Note_on_c, 0, 62, 52
2, 99048, Note_on_c, 0, 60, 46
2, 99052, Note_on_c, 0, 56, 33
2, 99168, Note_on_c, 0, 85, 0
2, 99168, Note_on_c, 0, 86, 59
2, 99208, Note_on_c, 0, 79, 0
2, 99216, Note_on_c, 0, 91, 0
2, 99228, Note_on_c, 0, 67, 0
2, 99236, Note_on_c, 0, 60, 0
2, 99248, Note_on_c, 0, 86, 0
2, 99248, Note_on_c, 0, 62, 0
2, 99252, Note_on_c, 0, 56, 0
2, 99348, Note_on_c, 0, 56, 50
2, 99360, Note_on_c, 0, 90, 70
2, 99364, Note_on_c, 0, 78, 60
2, 99368, Note_on_c, 0, 67, 35
2, 99368, Note_on_c, 0, 85, 57
2, 99372, Note_on_c, 0, 62, 23
2, 99400, Note_on_c, 0, 67, 0
2, 99404, Note_on_c, 0, 62, 0
2, 99508, Note_on_c, 0, 85, 0
2, 99544, Note_on_c, 0, 78, 0
2, 99548, Note_on_c, 0, 90, 0
2, 99548, Note_on_c, 0, 56, 0
2, 99672, Note_on_c, 0, 64, 55
2, 99672, Note_on_c, 0, 60, 55
2, 99680, Note_on_c, 0, 89, 75
2, 99680, Note_on_c, 0, 59, 49
2, 99840, Note_on_c, 0, 89, 0
2, 99908, Note_on_c, 0, 88, 83
2, 100036, Note_on_c, 0, 88, 0
2, 100188, Note_on_c, 0, 85, 75
2, 100272, Note_on_c, 0, 85, 0
2, 100332, Note_on_c, 0, 86, 64
2, 100420, Note_on_c, 0, 86, 0
2, 100420, Note_on_c, 0, 64, 0
2, 100424, Note_on_c, 0, 59, 0
2, 100440, Note_on_c, 0, 60, 0
2, 100472, Note_on_c, 0, 82, 64
2, 100552, Note_on_c, 0, 82, 0
2, 100624, Note_on_c, 0, 83, 67
2, 100640, Note_on_c, 0, 64, 42
2, 100644, Note_on_c, 0, 60, 40
2, 100680, Note_on_c, 0, 59, 24
2, 100688, Note_on_c, 0, 83, 0
2, 100784, Note_on_c, 0, 78, 55
2, 100864, Note_on_c, 0, 78, 0
2, 100924, Note_on_c, 0, 79, 63
2, 100960, Note_on_c, 0, 64, 0
2, 100984, Note_on_c, 0, 59, 0
2, 100988, Note_on_c, 0, 79, 0
2, 100992, Note_on_c, 0, 60, 0
2, 101064, Note_on_c, 0, 75, 64
2, 101144, Note_on_c, 0, 75, 0
2, 101188, Note_on_c, 0, 76, 57
2, 101272, Note_on_c, 0, 76, 0
2, 101328, Note_on_c, 0, 71, 27
2, 101436, Note_on_c, 0, 71, 0
2, 101500, Note_on_c, 0, 71, 62
2, 101588, Note_on_c, 0, 71, 0
2, 101652, Note_on_c, 0, 71, 57
2, 101712, Note_on_c, 0, 63, 38
2, 101732, Note_on_c, 0, 58, 26
2, 101740, Note_on_c, 0, 63, 0
2, 101740, Note_on_c, 0, 59, 29
2, 101760, Note_on_c, 0, 71, 0
2, 101780, Note_on_c, 0, 59, 0
2, 101840, Note_on_c, 0, 70, 57
2, 101864, Note_on_c, 0, 58, 0
2, 101928, Note_on_c, 0, 70, 0
2, 101968, Note_on_c, 0, 71, 58
2, 102060, Note_on_c, 0, 71, 0
2, 102108, Note_on_c, 0, 70, 52
2, 102168, Note_on_c, 0, 70, 0
2, 102260, Note_on_c, 0, 63, 29
2, 102272, Note_on_c, 0, 59, 34
2, 102288, Note_on_c, 0, 63, 0
2, 102288, Note_on_c, 0, 58, 18
2, 102304, Note_on_c, 0, 65, 34
2, 102312, Note_on_c, 0, 59, 0
2, 102348, Note_on_c, 0, 65, 0
2, 102368, Note_on_c, 0, 58, 0
2, 102384, Note_on_c, 0, 66, 49
2, 102504, Note_on_c, 0, 68, 56
2, 102524, Note_on_c, 0, 66, 0
2, 102600, Note_on_c, 0, 70, 57
2, 102608, Note_on_c, 0, 68, 0
2, 102680, Note_on_c, 0, 63, 39
2, 102684, Note_on_c, 0, 70, 0
2, 102688, Note_on_c, 0, 58, 26
2, 102700, Note_on_c, 0, 59, 29
2, 102748, Note_on_c, 0, 71, 24
2, 102760, Note_on_c, 0, 63, 0
2, 102792, Note_on_c, 0, 71, 0
2, 102808, Note_on_c, 0, 53, 11
2, 102844, Note_on_c, 0, 73, 46
2, 102928, Note_on_c, 0, 73, 0
2, 102940, Note_on_c, 0, 53, 0
2, 102960, Note_on_c, 0, 58, 0
2, 102964, Note_on_c, 0, 75, 58
2, 103004, Note_on_c, 0, 59, 0
2, 103036, Note_on_c, 0, 75, 0
2, 103084, Note_on_c, 0, 77, 32
2, 103104, Note_on_c, 0, 79, 30
2, 103144, Note_on_c, 0, 63, 41
2, 103152, Note_on_c, 0, 79, 0
2, 103160, Note_on_c, 0, 59, 35
2, 103172, Note_on_c, 0, 58, 20
2, 103188, Note_on_c, 0, 77, 0
2, 103212, Note_on_c, 0, 80, 30
2, 103236, Note_on_c, 0, 63, 0
2, 103252, Note_on_c, 0, 59, 0
2, 103264, Note_on_c, 0, 58, 0
2, 103280, Note_on_c, 0, 80, 0
2, 103348, Note_on_c, 0, 81, 67
2, 103464, Note_on_c, 0, 82, 57
2, 103488, Note_on_c, 0, 81, 0
2, 103568, Note_on_c, 0, 82, 0
2, 103600, Note_on_c, 0, 84, 78
2, 103644, Note_on_c, 0, 65, 40
2, 103648, Note_on_c, 0, 62, 40
2, 103660, Note_on_c, 0, 60, 32
2, 103672, Note_on_c, 0, 55, 27
2, 103688, Note_on_c, 0, 84, 0
2, 103740, Note_on_c, 0, 82, 71
2, 103844, Note_on_c, 0, 65, 0
2, 103852, Note_on_c, 0, 62, 0
2, 103864, Note_on_c, 0, 82, 0
2, 103864, Note_on_c, 0, 55, 0
2, 103868, Note_on_c, 0, 60, 0
2, 103872, Note_on_c, 0, 78, 48
2, 103936, Note_on_c, 0, 78, 0
2, 103984, Note_on_c, 0, 81, 75
2, 103992, Note_on_c, 0, 65, 55
2, 103992, Note_on_c, 0, 55, 35
2, 104000, Note_on_c, 0, 62, 46
2, 104004, Note_on_c, 0, 60, 46
2, 104096, Note_on_c, 0, 60, 0
2, 104100, Note_on_c, 0, 65, 0
2, 104104, Note_on_c, 0, 62, 0
2, 104108, Note_on_c, 0, 81, 0
2, 104124, Note_on_c, 0, 79, 61
2, 104152, Note_on_c, 0, 55, 0
2, 104212, Note_on_c, 0, 79, 0
2, 104240, Note_on_c, 0, 74, 59
2, 104248, Note_on_c, 0, 55, 17
2, 104252, Note_on_c, 0, 65, 28
2, 104264, Note_on_c, 0, 62, 23
2, 104280, Note_on_c, 0, 60, 19
2, 104364, Note_on_c, 0, 62, 0
2, 104384, Note_on_c, 0, 60, 0
2, 104396, Note_on_c, 0, 65, 0
2, 104408, Note_on_c, 0, 55, 0
2, 104408, Note_on_c, 0, 74, 0
2, 104984, Note_on_c, 0, 62, 59
2, 104988, Note_on_c, 0, 60, 57
2, 104988, Note_on_c, 0, 65, 66
2, 105004, Note_on_c, 0, 55, 44
2, 105228, Note_on_c, 0, 65, 0
2, 105252, Note_on_c, 0, 55, 0
2, 105252, Note_on_c, 0, 60, 0
2, 105288, Note_on_c, 0, 62, 0
2, 105304, Note_on_c, 0, 72, 49
2, 105344, Note_on_c, 0, 72, 0
2, 105372, Control_c, 0, 64, 127
2, 105428, Note_on_c, 0, 65, 50
2, 105432, Note_on_c, 0, 55, 48
2, 105444, Note_on_c, 0, 62, 27
2, 105472, Note_on_c, 0, 65, 0
2, 105476, Note_on_c, 0, 62, 0
2, 105504, Note_on_c, 0, 55, 0
2, 105628, Note_on_c, 0, 61, 32
2, 105628, Note_on_c, 0, 58, 29
2, 105640, Note_on_c, 0, 54, 39
2, 105648, Control_c, 0, 64, 0
2, 105732, Note_on_c, 0, 61, 0
2, 105852, Note_on_c, 0, 60, 56
2, 105900, Note_on_c, 0, 60, 0
2, 105928, Note_on_c, 0, 61, 31
2, 105988, Note_on_c, 0, 61, 0
2, 106000, Note_on_c, 0, 65, 53
2, 106060, Note_on_c, 0, 65, 0
2, 106064, Note_on_c, 0, 62, 28
2, 106100, Note_on_c, 0, 54, 0
2, 106124, Note_on_c, 0, 63, 48
2, 106128, Note_on_c, 0, 62, 0
2, 106132, Note_on_c, 0, 58, 0
2, 106212, Note_on_c, 0, 66, 40
2, 106236, Note_on_c, 0, 63, 0
2, 106268, Note_on_c, 0, 64, 49
2, 106272, Note_on_c, 0, 66, 0
2, 106340, Note_on_c, 0, 64, 0
2, 106368, Note_on_c, 0, 65, 21
2, 106408, Note_on_c, 0, 68, 51
2, 106416, Note_on_c, 0, 65, 0
2, 106480, Note_on_c, 0, 68, 0
2, 106484, Note_on_c, 0, 65, 49
2, 106504, Note_on_c, 0, 61, 24
2, 106532, Note_on_c, 0, 58, 16
2, 106548, Note_on_c, 0, 65, 0
2, 106572, Note_on_c, 0, 66, 47
2, 106592, Note_on_c, 0, 61, 0
2, 106620, Note_on_c, 0, 70, 46
2, 106656, Note_on_c, 0, 58, 0
2, 106664, Note_on_c, 0, 66, 0
2, 106704, Note_on_c, 0, 67, 53
2, 106724, Note_on_c, 0, 70, 0
2, 106736, Note_on_c, 0, 67, 0
2, 106928, Note_on_c, 0, 65, 65
2, 106932, Note_on_c, 0, 54, 52
2, 106940, Note_on_c, 0, 58, 48
2, 106940, Note_on_c, 0, 60, 59
2, 107300, Note_on_c, 0, 65, 0
2, 107352, Note_on_c, 0, 60, 0
2, 107372, Note_on_c, 0, 58, 0
2, 107376, Note_on_c, 0, 54, 0
2, 107424, Note_on_c, 0, 64, 62
2, 107428, Note_on_c, 0, 60, 32
2, 107432, Note_on_c, 0, 53, 50
2, 107440, Note_on_c, 0, 57, 55
2, 107664, Note_on_c, 0, 64, 0
2, 107812, Note_on_c, 0, 64, 61
2, 107856, Note_on_c, 0, 64, 0
2, 107868, Note_on_c, 0, 65, 46
2, 107876, Note_on_c, 0, 60, 0
2, 107900, Note_on_c, 0, 57, 0
2, 107940, Note_on_c, 0, 69, 54
2, 107956, Note_on_c, 0, 65, 0
2, 107980, Note_on_c, 0, 60, 27
2, 107984, Note_on_c, 0, 57, 21
2, 108020, Note_on_c, 0, 69, 0
2, 108060, Note_on_c, 0, 66, 27
2, 108100, Note_on_c, 0, 66, 0
2, 108104, Note_on_c, 0, 67, 60
2, 108112, Note_on_c, 0, 60, 0
2, 108180, Note_on_c, 0, 53, 0
2, 108188, Note_on_c, 0, 67, 0
2, 108188, Note_on_c, 0, 71, 53
2, 108212, Note_on_c, 0, 57, 0
2, 108220, Note_on_c, 0, 71, 0
2, 108268, Note_on_c, 0, 68, 49
2, 108324, Note_on_c, 0, 69, 42
2, 108332, Note_on_c, 0, 68, 0
2, 108384, Note_on_c, 0, 72, 39
2, 108392, Note_on_c, 0, 69, 0
2, 108448, Note_on_c, 0, 72, 0
2, 108484, Note_on_c, 0, 70, 45
2, 108492, Note_on_c, 0, 59, 55
2, 108504, Note_on_c, 0, 53, 39
2, 108548, Note_on_c, 0, 70, 0
2, 108548, Note_on_c, 0, 71, 59
2, 108596, Note_on_c, 0, 59, 0
2, 108608, Note_on_c, 0, 53, 0
2, 108616, Note_on_c, 0, 71, 0
2, 108620, Note_on_c, 0, 74, 57
2, 108684, Note_on_c, 0, 71, 39
2, 108688, Note_on_c, 0, 74, 0
2, 108744, Note_on_c, 0, 72, 47
2, 108776, Note_on_c, 0, 71, 0
2, 108844, Note_on_c, 0, 72, 0
2, 108864, Note_on_c, 0, 63, 47
2, 108868, Note_on_c, 0, 59, 44
2, 108880, Note_on_c, 0, 53, 33
2, 109148, Note_on_c, 0, 63, 0
2, 109148, Note_on_c, 0, 77, 45
2, 109180, Note_on_c, 0, 59, 0
2, 109212, Note_on_c, 0, 81, 55
2, 109240, Note_on_c, 0, 77, 0
2, 109260, Note_on_c, 0, 81, 0
2, 109268, Note_on_c, 0, 53, 0
2, 109280, Note_on_c, 0, 84, 94
2, 109408, Note_on_c, 0, 81, 71
2, 109412, Note_on_c, 0, 84, 0
2, 109428, Note_on_c, 0, 62, 33
2, 109432, Note_on_c, 0, 58, 38
2, 109452, Note_on_c, 0, 57, 27
2, 109492, Note_on_c, 0, 81, 0
2, 109532, Note_on_c, 0, 77, 53
2, 109600, Note_on_c, 0, 77, 0
2, 109648, Note_on_c, 0, 73, 50
2, 109692, Note_on_c, 0, 73, 0
2, 109700, Note_on_c, 0, 62, 0
2, 109744, Note_on_c, 0, 58, 0
2, 109772, Note_on_c, 0, 72, 52
2, 109840, Note_on_c, 0, 72, 0
2, 109912, Note_on_c, 0, 70, 41
2, 109968, Note_on_c, 0, 62, 26
2, 109968, Note_on_c, 0, 58, 26
2, 109996, Note_on_c, 0, 70, 0
2, 110028, Note_on_c, 0, 69, 30
2, 110072, Note_on_c, 0, 62, 0
2, 110076, Note_on_c, 0, 69, 0
2, 110156, Note_on_c, 0, 58, 0
2, 110184, Note_on_c, 0, 72, 54
2, 110284, Note_on_c, 0, 72, 0
2, 110304, Note_on_c, 0, 70, 57
2, 110376, Note_on_c, 0, 70, 0
2, 110440, Note_on_c, 0, 66, 42
2, 110480, Note_on_c, 0, 66, 0
2, 110524, Note_on_c, 0, 57, 0
2, 110564, Note_on_c, 0, 69, 46
2, 110564, Note_on_c, 0, 71, 43
2, 110636, Note_on_c, 0, 71, 0
2, 110672, Note_on_c, 0, 69, 0
2, 110708, Note_on_c, 0, 66, 38
2, 110736, Note_on_c, 0, 66, 0
2, 110788, Note_on_c, 0, 67, 61
2, 110876, Note_on_c, 0, 67, 0
2, 110960, Note_on_c, 0, 59, 47
2, 111052, Note_on_c, 0, 59, 0
2, 111128, Note_on_c, 0, 59, 53
2, 111160, Note_on_c, 0, 59, 0
2, 111252, Note_on_c, 0, 60, 66
2, 111316, Note_on_c, 0, 60, 0
2, 111680, Note_on_c, 0, 62, 62
2, 111688, Note_on_c, 0, 58, 37
2, 111700, Note_on_c, 0, 57, 31
2, 111720, Note_on_c, 0, 62, 0
2, 111732, Note_on_c, 0, 57, 0
2, 111756, Note_on_c, 0, 58, 0
2, 112204, Note_on_c, 0, 62, 64
2, 112220, Note_on_c, 0, 58, 44
2, 112236, Note_on_c, 0, 62, 0
2, 112244, Note_on_c, 0, 58, 0
2, 112352, Note_on_c, 0, 66, 78
2, 112352, Note_on_c, 0, 72, 76
2, 112360, Note_on_c, 0, 62, 71
2, 112364, Note_on_c, 0, 58, 55
2, 112364, Note_on_c, 0, 52, 65
2, 112556, Note_on_c, 0, 66, 0
2, 112584, Note_on_c, 0, 67, 29
2, 112592, Note_on_c, 0, 52, 0
2, 112608, Note_on_c, 0, 58, 0
2, 112628, Note_on_c, 0, 62, 0
2, 112632, Note_on_c, 0, 67, 0
2, 112640, Note_on_c, 0, 72, 0
2, 112824, Note_on_c, 0, 65, 66
2, 112828, Note_on_c, 0, 62, 61
2, 112832, Note_on_c, 0, 52, 60
2, 112848, Note_on_c, 0, 58, 31
2, 112928, Note_on_c, 0, 65, 0
2, 113004, Note_on_c, 0, 52, 0
2, 113072, Note_on_c, 0, 62, 0
2, 113072, Note_on_c, 0, 58, 0
2, 113272, Control_c, 0, 64, 127
2, 113292, Note_on_c, 0, 84, 83
2, 113292, Note_on_c, 0, 62, 66
2, 113292, Note_on_c, 0, 72, 75
2, 113300, Note_on_c, 0, 77, 70
2, 113300, Note_on_c, 0, 57, 59
2, 113304, Note_on_c, 0, 53, 59
2, 113304, Note_on_c, 0, 58, 37
2, 113308, Note_on_c, 0, 81, 54
2, 113332, Note_on_c, 0, 81, 0
2, 113372, Note_on_c, 0, 81, 14
2, 113440, Note_on_c, 0, 62, 0
2, 113444, Note_on_c, 0, 77, 0
2, 113444, Note_on_c, 0, 72, 0
2, 113448, Note_on_c, 0, 57, 0
2, 113448, Note_on_c, 0, 53, 0
2, 113456, Note_on_c, 0, 81, 0
2, 113464, Note_on_c, 0, 84, 0
2, 113468, Note_on_c, 0, 58, 0
2, 113620, Note_on_c, 0, 86, 68
2, 113620, Note_on_c, 0, 74, 74
2, 113624, Note_on_c, 0, 58, 51
2, 113624, Note_on_c, 0, 62, 69
2, 113628, Note_on_c, 0, 53, 57
2, 113628, Note_on_c, 0, 57, 49
2, 113628, Note_on_c, 0, 81, 65
2, 113672, Note_on_c, 0, 57, 0
2, 113672, Note_on_c, 0, 86, 0
2, 113672, Note_on_c, 0, 53, 0
2, 113680, Note_on_c, 0, 74, 0
2, 113684, Note_on_c, 0, 62, 0
2, 113692, Note_on_c, 0, 81, 0
2, 113708, Control_c, 0, 64, 0
2, 113712, Note_on_c, 0, 58, 0
2, 113788, Note_on_c, 0, 62, 37
2, 113792, Note_on_c, 0, 53, 38
2, 113792, Note_on_c, 0, 58, 34
2, 113804, Note_on_c, 0, 84, 30
2, 113808, Note_on_c, 0, 57, 31
2, 113812, Note_on_c, 0, 72, 24
2, 113824, Note_on_c, 0, 79, 30
2, 113884, Note_on_c, 0, 72, 0
2, 113896, Note_on_c, 0, 62, 0
2, 113908, Note_on_c, 0, 79, 0
2, 113912, Note_on_c, 0, 53, 0
2, 113920, Note_on_c, 0, 57, 0
2, 113928, Note_on_c, 0, 84, 0
2, 113936, Note_on_c, 0, 58, 0
2, 114088, Note_on_c, 0, 62, 58
2, 114088, Note_on_c, 0, 58, 42
2, 114092, Note_on_c, 0, 74, 68
2, 114092, Note_on_c, 0, 86, 60
2, 114092, Note_on_c, 0, 57, 47
2, 114100, Note_on_c, 0, 53, 35
2, 114100, Note_on_c, 0, 81, 61
2, 114120, Note_on_c, 0, 74, 0
2, 114124, Note_on_c, 0, 57, 0
2, 114128, Note_on_c, 0, 62, 0
2, 114140, Note_on_c, 0, 81, 0
2, 114140, Note_on_c, 0, 53, 0
2, 114156, Note_on_c, 0, 86, 0
2, 114160, Note_on_c, 0, 58, 0
2, 114292, Note_on_c, 0, 58, 47
2, 114292, Note_on_c, 0, 89, 66
2, 114292, Note_on_c, 0, 62, 63
2, 114304, Note_on_c, 0, 77, 37
2, 114304, Note_on_c, 0, 84, 54
2, 114304, Note_on_c, 0, 57, 46
2, 114316, Note_on_c, 0, 89, 0
2, 114324, Note_on_c, 0, 62, 0
2, 114328, Note_on_c, 0, 84, 0
2, 114332, Note_on_c, 0, 57, 0
2, 114344, Note_on_c, 0, 77, 0
2, 114356, Note_on_c, 0, 58, 0
2, 114588, Note_on_c, 0, 86, 83
2, 114592, Note_on_c, 0, 74, 87
2, 114604, Note_on_c, 0, 58, 64
2, 114604, Note_on_c, 0, 62, 75
2, 114608, Note_on_c, 0, 57, 63
2, 114612, Note_on_c, 0, 81, 50
2, 114612, Note_on_c, 0, 53, 61
2, 114780, Control_c, 0, 64, 127
2, 115048, Note_on_c, 0, 62, 0
2, 115056, Note_on_c, 0, 57, 0
2, 115060, Note_on_c, 0, 53, 0
2, 115072, Note_on_c, 0, 86, 0
2, 115084, Note_on_c, 0, 74, 0
2, 115084, Note_on_c, 0, 81, 0
2, 115116, Note_on_c, 0, 58, 0
2, 115168, Control_c, 0, 64, 0
2, 115208, Note_on_c, 0, 58, 47
2, 115212, Note_on_c, 0, 84, 46
2, 115212, Note_on_c, 0, 62, 58
2, 115224, Note_on_c, 0, 52, 48
2, 115228, Note_on_c, 0, 72, 27
2, 115232, Note_on_c, 0, 79, 39
2, 115276, Note_on_c, 0, 62, 0
2, 115292, Note_on_c, 0, 52, 0
2, 115296, Note_on_c, 0, 72, 0
2, 115320, Note_on_c, 0, 58, 0
2, 115324, Note_on_c, 0, 79, 0
2, 115340, Note_on_c, 0, 84, 0
2, 115708, Note_on_c, 0, 58, 55
2, 115712, Note_on_c, 0, 77, 67
2, 115712, Note_on_c, 0, 89, 69
2, 115712, Note_on_c, 0, 62, 59
2, 115712, Note_on_c, 0, 52, 66
2, 115720, Note_on_c, 0, 84, 71
2, 115776, Note_on_c, 0, 77, 0
2, 115780, Note_on_c, 0, 62, 0
2, 115804, Note_on_c, 0, 52, 0
2, 115824, Note_on_c, 0, 84, 0
2, 115836, Note_on_c, 0, 89, 0
2, 115856, Note_on_c, 0, 58, 0
2, 116192, Note_on_c, 0, 58, 56
2, 116192, Control_c, 0, 64, 127
2, 116192, Note_on_c, 0, 63, 71
2, 116204, Note_on_c, 0, 52, 56
2, 116208, Note_on_c, 0, 82, 68
2, 116208, Note_on_c, 0, 87, 69
2, 116208, Note_on_c, 0, 94, 74
2, 116356, Note_on_c, 0, 87, 0
2, 116384, Note_on_c, 0, 52, 0
2, 116404, Note_on_c, 0, 63, 0
2, 116424, Note_on_c, 0, 58, 0
2, 116436, Note_on_c, 0, 82, 0
2, 116492, Note_on_c, 0, 94, 0
2, 116508, Note_on_c, 0, 63, 55
2, 116524, Note_on_c, 0, 58, 37
2, 116528, Note_on_c, 0, 52, 44
2, 116532, Note_on_c, 0, 83, 57
2, 116532, Note_on_c, 0, 95, 52
2, 116560, Note_on_c, 0, 83, 0
2, 116560, Note_on_c, 0, 52, 0
2, 116576, Note_on_c, 0, 63, 0
2, 116596, Note_on_c, 0, 95, 0
2, 116616, Note_on_c, 0, 58, 0
2, 116644, Control_c, 0, 64, 0
2, 116684, Note_on_c, 0, 58, 45
2, 116684, Note_on_c, 0, 63, 64
2, 116688, Note_on_c, 0, 52, 67
2, 116700, Note_on_c, 0, 98, 68
2, 116708, Note_on_c, 0, 86, 49
2, 116768, Note_on_c, 0, 98, 0
2, 116792, Control_c, 0, 64, 127
2, 116796, Note_on_c, 0, 52, 0
2, 116824, Note_on_c, 0, 58, 0
2, 116832, Note_on_c, 0, 86, 0
2, 116864, Note_on_c, 0, 63, 0
2, 116964, Control_c, 0, 64, 0
2, 116984, Note_on_c, 0, 57, 70
2, 116988, Note_on_c, 0, 67, 66
2, 116988, Note_on_c, 0, 63, 59
2, 116992, Note_on_c, 0, 84, 72
2, 116992, Note_on_c, 0, 96, 74
2, 117000, Note_on_c, 0, 93, 61
2, 117164, Control_c, 0, 64, 127
2, 117532, Note_on_c, 0, 96, 0
2, 117580, Note_on_c, 0, 93, 0
2, 117604, Note_on_c, 0, 84, 0
2, 118004, Control_c, 0, 64, 0
2, 118428, Note_on_c, 0, 84, 79
2, 118440, Note_on_c, 0, 72, 72
2, 118452, Note_on_c, 0, 74, 53
2, 118480, Note_on_c, 0, 74, 0
2, 118512, Note_on_c, 0, 72, 0
2, 118540, Note_on_c, 0, 84, 0
2, 118736, Note_on_c, 0, 67, 0
2, 118760, Note_on_c, 0, 84, 75
2, 118768, Note_on_c, 0, 72, 59
2, 118792, Note_on_c, 0, 63, 0
2, 118908, Note_on_c, 0, 57, 0
2, 118908, Note_on_c, 0, 72, 0
2, 118920, Note_on_c, 0, 84, 0
2, 119092, Note_on_c, 0, 60, 30
2, 119104, Note_on_c, 0, 84, 75
2, 119104, Note_on_c, 0, 65, 42
2, 119108, Note_on_c, 0, 72, 61
2, 119124, Note_on_c, 0, 55, 35
2, 119124, Note_on_c, 0, 61, 32
2, 119376, Note_on_c, 0, 72, 0
2, 119384, Note_on_c, 0, 84, 0
2, 119428, Note_on_c, 0, 77, 54
2, 119712, Note_on_c, 0, 60, 0
2, 119764, Note_on_c, 0, 65, 0
2, 119764, Note_on_c, 0, 61, 0
2, 119768, Note_on_c, 0, 55, 0
2, 120024, Note_on_c, 0, 60, 48
2, 120028, Note_on_c, 0, 61, 32
2, 120032, Note_on_c, 0, 65, 38
2, 120064, Note_on_c, 0, 65, 0
2, 120088, Note_on_c, 0, 60, 0
2, 120100, Note_on_c, 0, 61, 0
2, 120216, Note_on_c, 0, 77, 0
2, 120992, Note_on_c, 0, 71, 69
2, 121000, Note_on_c, 0, 68, 63
2, 121000, Note_on_c, 0, 62, 69
2, 121004, Note_on_c, 0, 56, 51
2, 121244, Note_on_c, 0, 62, 0
2, 121264, Note_on_c, 0, 71, 0
2, 121292, Note_on_c, 0, 68, 0
2, 121328, Note_on_c, 0, 57, 61
2, 121328, Note_on_c, 0, 72, 63
2, 121332, Note_on_c, 0, 62, 47
2, 121340, Note_on_c, 0, 67, 61
2, 121360, Note_on_c, 0, 71, 20
2, 121364, Note_on_c, 0, 56, 0
2, 121432, Note_on_c, 0, 62, 0
2, 121472, Note_on_c, 0, 67, 0
2, 121472, Note_on_c, 0, 72, 0
2, 121484, Note_on_c, 0, 71, 0
2, 121560, Note_on_c, 0, 57, 0
2, 121564, Note_on_c, 0, 64, 54
2, 121568, Note_on_c, 0, 60, 57
2, 121572, Note_on_c, 0, 76, 38
2, 121580, Note_on_c, 0, 71, 35
2, 121584, Note_on_c, 0, 74, 30
2, 121628, Note_on_c, 0, 64, 0
2, 121644, Note_on_c, 0, 74, 0
2, 121660, Note_on_c, 0, 76, 0
2, 121668, Note_on_c, 0, 71, 0
2, 121720, Note_on_c, 0, 60, 0
2, 121828, Note_on_c, 0, 62, 63
2, 121848, Note_on_c, 0, 79, 39
2, 121860, Note_on_c, 0, 77, 45
2, 121888, Note_on_c, 0, 62, 0
2, 121900, Note_on_c, 0, 79, 0
2, 121904, Note_on_c, 0, 77, 0
2, 122044, Note_on_c, 0, 59, 39
2, 122048, Note_on_c, 0, 80, 35
2, 122048, Note_on_c, 0, 68, 35
2, 122052, Note_on_c, 0, 53, 27
2, 122052, Note_on_c, 0, 75, 37
2, 122052, Note_on_c, 0, 64, 32
2, 122132, Note_on_c, 0, 64, 0
2, 122152, Note_on_c, 0, 53, 0
2, 122192, Note_on_c, 0, 75, 0
2, 122208, Note_on_c, 0, 68, 0
2, 122212, Note_on_c, 0, 59, 0
2, 122220, Note_on_c, 0, 80, 0
2, 122312, Note_on_c, 0, 81, 63
2, 122324, Note_on_c, 0, 63, 45
2, 122324, Note_on_c, 0, 69, 59
2, 122328, Note_on_c, 0, 53, 39
2, 122328, Note_on_c, 0, 59, 55
2, 122380, Note_on_c, 0, 81, 0
2, 122396, Note_on_c, 0, 63, 0
2, 122396, Note_on_c, 0, 69, 0
2, 122416, Note_on_c, 0, 53, 0
2, 122436, Note_on_c, 0, 59, 0
2, 122512, Note_on_c, 0, 63, 47
2, 122528, Note_on_c, 0, 53, 31
2, 122528, Note_on_c, 0, 59, 36
2, 122552, Note_on_c, 0, 56, 18
2, 122628, Note_on_c, 0, 59, 0
2, 122680, Note_on_c, 0, 63, 0
2, 122688, Note_on_c, 0, 53, 0
2, 122724, Note_on_c, 0, 56, 0
2, 122788, Note_on_c, 0, 62, 57
2, 122792, Note_on_c, 0, 72, 58
2, 122804, Note_on_c, 0, 57, 49
2, 122820, Note_on_c, 0, 52, 42
2, 122880, Note_on_c, 0, 62, 0
2, 122932, Note_on_c, 0, 57, 0
2, 123032, Note_on_c, 0, 52, 0
2, 123244, Note_on_c, 0, 54, 76
2, 123244, Note_on_c, 0, 55, 89
2, 123292, Note_on_c, 0, 72, 0
2, 123356, Note_on_c, 0, 54, 0
2, 123712, Note_on_c, 0, 54, 28
2, 123724, Note_on_c, 0, 69, 79
2, 123760, Note_on_c, 0, 54, 0
2, 123816, Note_on_c, 0, 69, 0
2, 123900, Note_on_c, 0, 67, 52
2, 124072, Note_on_c, 0, 67, 0
2, 124188, Note_on_c, 0, 64, 54
2, 124256, Note_on_c, 0, 55, 0
2, 124296, Note_on_c, 0, 64, 0
2, 124372, Note_on_c, 0, 60, 22
2, 124604, Note_on_c, 0, 60, 0
2, 124648, Note_on_c, 0, 59, 59
2, 124648, Note_on_c, 0, 50, 39
2, 124752, Note_on_c, 0, 59, 0
2, 124792, Note_on_c, 0, 50, 0
2, 124832, Note_on_c, 0, 53, 29
2, 124832, Note_on_c, 0, 58, 44
2, 124880, Note_on_c, 0, 53, 0
2, 125156, Note_on_c, 0, 58, 0
2, 125192, Note_on_c, 0, 54, 32
2, 125260, Note_on_c, 0, 54, 0
2, 125308, Note_on_c, 0, 57, 56
2, 125616, Note_on_c, 0, 57, 0
2, 125644, Note_on_c, 0, 54, 33
2, 125732, Note_on_c, 0, 54, 0
2, 125788, Note_on_c, 0, 55, 56
2, 126076, Note_on_c, 0, 55, 0
2, 126112, Note_on_c, 0, 48, 55
2, 126360, Note_on_c, 0, 48, 0
2, 126760, Note_on_c, 0, 63, 45
2, 126764, Note_on_c, 0, 52, 38
2, 126780, Note_on_c, 0, 58, 30
2, 126840, Note_on_c, 0, 63, 0
2, 126848, Note_on_c, 0, 52, 0
2, 126880, Note_on_c, 0, 58, 0
2, 127544, Note_on_c, 0, 63, 52
2, 127564, Note_on_c, 0, 58, 47
2, 127568, Note_on_c, 0, 57, 49
2, 128288, Note_on_c, 0, 63, 0
2, 128292, Note_on_c, 0, 57, 0
2, 128392, Note_on_c, 0, 58, 0
2, 128500, Note_on_c, 0, 62, 50
2, 128500, Note_on_c, 0, 58, 32
2, 128520, Note_on_c, 0, 57, 28
2, 128528, Note_on_c, 0, 62, 0
2, 128552, Note_on_c, 0, 58, 0
2, 128580, Note_on_c, 0, 57, 0
2, 128660, Note_on_c, 0, 72, 100
2, 128748, Note_on_c, 0, 72, 0
2, 128812, Note_on_c, 0, 69, 50
2, 128840, Note_on_c, 0, 69, 0
2, 128932, Note_on_c, 0, 72, 89
2, 128960, Note_on_c, 0, 62, 43
2, 128972, Note_on_c, 0, 58, 26
2, 128984, Note_on_c, 0, 57, 29
2, 128988, Note_on_c, 0, 62, 0
2, 129032, Note_on_c, 0, 58, 0
2, 129036, Note_on_c, 0, 57, 0
2, 129064, Note_on_c, 0, 72, 0
2, 129080, Note_on_c, 0, 69, 53
2, 129160, Note_on_c, 0, 69, 0
2, 129184, Note_on_c, 0, 65, 30
2, 129252, Note_on_c, 0, 65, 0
2, 129292, Note_on_c, 0, 60, 48
2, 129400, Note_on_c, 0, 60, 0
2, 129420, Note_on_c, 0, 58, 29
2, 129540, Note_on_c, 0, 58, 0
2, 129580, Note_on_c, 0, 53, 30
2, 129612, Note_on_c, 0, 53, 0
2, 129652, Note_on_c, 0, 57, 59
2, 129840, Note_on_c, 0, 57, 0
2, 129904, Note_on_c, 0, 53, 19
2, 129932, Note_on_c, 0, 53, 0
2, 131052, Note_on_c, 0, 75, 82
2, 131052, Note_on_c, 0, 63, 50
2, 131064, Note_on_c, 0, 58, 32
2, 131064, Note_on_c, 0, 52, 33
2, 131076, Note_on_c, 0, 63, 0
2, 131108, Note_on_c, 0, 52, 0
2, 131116, Note_on_c, 0, 75, 0
2, 131136, Note_on_c, 0, 58, 0
2, 131212, Note_on_c, 0, 72, 57
2, 131300, Note_on_c, 0, 72, 0
2, 131300, Note_on_c, 0, 68, 43
2, 131412, Note_on_c, 0, 68, 0
2, 131424, Note_on_c, 0, 63, 43
2, 131492, Note_on_c, 0, 63, 0
2, 131544, Note_on_c, 0, 58, 41
2, 131548, Note_on_c, 0, 64, 44
2, 131548, Note_on_c, 0, 73, 73
2, 131640, Note_on_c, 0, 64, 0
2, 131680, Note_on_c, 0, 73, 0
2, 131688, Note_on_c, 0, 70, 46
2, 131800, Note_on_c, 0, 70, 0
2, 131908, Note_on_c, 0, 63, 27
2, 131956, Note_on_c, 0, 63, 0
2, 131988, Note_on_c, 0, 64, 37
2, 132024, Note_on_c, 0, 72, 74
2, 132040, Note_on_c, 0, 64, 0
2, 132112, Note_on_c, 0, 72, 0
2, 132148, Note_on_c, 0, 68, 52
2, 132232, Note_on_c, 0, 58, 0
2, 132256, Note_on_c, 0, 68, 0
2, 132284, Note_on_c, 0, 63, 31
2, 132372, Note_on_c, 0, 63, 0
2, 132512, Note_on_c, 0, 71, 57
2, 132512, Note_on_c, 0, 69, 54
2, 132572, Note_on_c, 0, 71, 0
2, 132576, Note_on_c, 0, 69, 0
2, 132660, Note_on_c, 0, 66, 26
2, 132708, Note_on_c, 0, 66, 0
2, 132732, Note_on_c, 0, 63, 29
2, 132796, Note_on_c, 0, 63, 0
2, 132908, Note_on_c, 0, 59, 25
2, 132940, Note_on_c, 0, 59, 0
2, 132948, Note_on_c, 0, 57, 46
2, 132952, Note_on_c, 0, 51, 30
2, 133000, Note_on_c, 0, 57, 0
2, 133004, Note_on_c, 0, 66, 70
2, 133064, Note_on_c, 0, 51, 0
2, 133132, Note_on_c, 0, 63, 42
2, 133164, Note_on_c, 0, 66, 0
2, 133256, Note_on_c, 0, 63, 0
2, 133264, Note_on_c, 0, 59, 36
2, 133304, Note_on_c, 0, 59, 0
2, 133368, Note_on_c, 0, 65, 61
2, 133392, Note_on_c, 0, 57, 31
2, 133412, Note_on_c, 0, 51, 20
2, 133440, Note_on_c, 0, 57, 0
2, 133504, Note_on_c, 0, 61, 37
2, 133508, Note_on_c, 0, 65, 0
2, 133536, Note_on_c, 0, 51, 0
2, 133604, Note_on_c, 0, 61, 0
2, 133620, Note_on_c, 0, 56, 35
2, 133688, Note_on_c, 0, 56, 0
2, 133728, Note_on_c, 0, 63, 57
2, 133744, Note_on_c, 0, 57, 33
2, 133764, Note_on_c, 0, 51, 20
2, 133784, Note_on_c, 0, 57, 0
2, 133860, Note_on_c, 0, 59, 49
2, 133864, Note_on_c, 0, 51, 0
2, 133868, Note_on_c, 0, 63, 0
2, 133964, Note_on_c, 0, 59, 0
2, 133984, Note_on_c, 0, 54, 43
2, 134064, Note_on_c, 0, 54, 0
2, 134744, Note_on_c, 0, 46, 45
2, 134764, Note_on_c, 0, 53, 33
2, 134792, Note_on_c, 0, 53, 0
2, 134836, Note_on_c, 0, 46, 0
2, 134944, Note_on_c, 0, 57, 63
2, 135004, Note_on_c, 0, 57, 0
2, 135068, Note_on_c, 0, 58, 59
2, 135152, Note_on_c, 0, 58, 0
2, 135204, Note_on_c, 0, 60, 65
2, 135292, Note_on_c, 0, 60, 0
2, 135380, Note_on_c, 0, 57, 57
2, 135692, Note_on_c, 0, 49, 62
2, 135976, Note_on_c, 0, 49, 0
2, 136120, Note_on_c, 0, 57, 0
2, 136348, Note_on_c, 0, 59, 65
2, 136412, Note_on_c, 0, 59, 0
2, 136472, Note_on_c, 0, 60, 48
2, 136576, Note_on_c, 0, 60, 0
2, 136584, Note_on_c, 0, 64, 52
2, 136684, Note_on_c, 0, 64, 0
2, 136708, Note_on_c, 0, 67, 64
2, 136768, Note_on_c, 0, 67, 0
2, 136804, Note_on_c, 0, 59, 31
2, 136844, Note_on_c, 0, 71, 40
2, 136852, Note_on_c, 0, 59, 0
2, 136944, Note_on_c, 0, 71, 0
2, 136980, Note_on_c, 0, 74, 71
2, 137072, Note_on_c, 0, 74, 0
2, 137192, Note_on_c, 0, 53, 66
2, 137200, Note_on_c, 0, 63, 76
2, 137204, Note_on_c, 0, 59, 65
2, 137292, Note_on_c, 0, 63, 0
2, 137308, Note_on_c, 0, 59, 0
2, 137320, Note_on_c, 0, 53, 0
2, 137612, Note_on_c, 0, 63, 76
2, 137620, Note_on_c, 0, 59, 63
2, 137624, Note_on_c, 0, 53, 61
2, 137628, Note_on_c, 0, 56, 40
2, 137944, Note_on_c, 0, 59, 0
2, 138052, Note_on_c, 0, 53, 0
2, 138100, Note_on_c, 0, 63, 0
2, 138140, Note_on_c, 0, 56, 0
2, 138188, Note_on_c, 0, 62, 43
2, 138192, Note_on_c, 0, 57, 40
2, 138212, Note_on_c, 0, 52, 32
2, 138648, Note_on_c, 0, 62, 0
2, 138688, Note_on_c, 0, 71, 62
2, 138740, Note_on_c, 0, 71, 0
2, 138772, Note_on_c, 0, 57, 0
2, 138792, Note_on_c, 0, 52, 0
2, 138800, Note_on_c, 0, 72, 57
2, 138892, Note_on_c, 0, 72, 0
2, 138920, Note_on_c, 0, 76, 60
2, 139020, Note_on_c, 0, 79, 69
2, 139024, Note_on_c, 0, 62, 29
2, 139040, Note_on_c, 0, 76, 0
2, 139060, Note_on_c, 0, 57, 24
2, 139064, Note_on_c, 0, 62, 0
2, 139092, Note_on_c, 0, 79, 0
2, 139120, Note_on_c, 0, 57, 0
2, 139144, Note_on_c, 0, 75, 52
2, 139232, Note_on_c, 0, 75, 0
2, 139272, Note_on_c, 0, 76, 15
2, 139332, Note_on_c, 0, 80, 45
2, 139344, Note_on_c, 0, 76, 0
2, 139480, Note_on_c, 0, 83, 69
2, 139504, Note_on_c, 0, 80, 0
2, 139524, Note_on_c, 0, 63, 48
2, 139552, Note_on_c, 0, 83, 0
2, 139564, Note_on_c, 0, 59, 27
2, 139568, Note_on_c, 0, 63, 0
2, 139612, Note_on_c, 0, 59, 0
2, 139620, Note_on_c, 0, 79, 52
2, 139724, Note_on_c, 0, 79, 0
2, 139724, Note_on_c, 0, 80, 32
2, 139848, Note_on_c, 0, 84, 45
2, 139892, Note_on_c, 0, 80, 0
2, 139956, Note_on_c, 0, 84, 0
2, 139968, Note_on_c, 0, 87, 71
2, 140048, Note_on_c, 0, 87, 0
2, 140088, Note_on_c, 0, 62, 36
2, 140100, Note_on_c, 0, 58, 30
2, 140104, Note_on_c, 0, 84, 67
2, 140108, Note_on_c, 0, 57, 23
2, 140248, Note_on_c, 0, 84, 0
2, 140260, Note_on_c, 0, 81, 62
2, 140328, Note_on_c, 0, 58, 0
2, 140336, Note_on_c, 0, 62, 0
2, 140340, Note_on_c, 0, 81, 0
2, 140372, Note_on_c, 0, 77, 38
2, 140472, Note_on_c, 0, 77, 0
2, 140532, Note_on_c, 0, 58, 18
2, 140532, Note_on_c, 0, 62, 15
2, 140564, Note_on_c, 0, 62, 0
2, 140584, Note_on_c, 0, 58, 0
2, 140668, Note_on_c, 0, 57, 0
2, 140928, Note_on_c, 0, 62, 38
2, 140940, Note_on_c, 0, 58, 29
2, 140952, Note_on_c, 0, 57, 25
2, 140960, Note_on_c, 0, 62, 0
2, 140980, Note_on_c, 0, 58, 0
2, 141096, Note_on_c, 0, 57, 0
2, 141168, Note_on_c, 0, 71, 53
2, 141208, Note_on_c, 0, 71, 0
2, 141244, Note_on_c, 0, 72, 51
2, 141340, Note_on_c, 0, 71, 49
2, 141348, Note_on_c, 0, 72, 0
2, 141432, Note_on_c, 0, 71, 0
2, 141432, Note_on_c, 0, 70, 54
2, 141544, Note_on_c, 0, 70, 0
2, 141552, Note_on_c, 0, 69, 57
2, 141624, Note_on_c, 0, 69, 0
2, 141632, Note_on_c, 0, 57, 17
2, 141696, Note_on_c, 0, 57, 0
2, 141700, Note_on_c, 0, 66, 27
2, 141784, Note_on_c, 0, 66, 0
2, 141808, Note_on_c, 0, 69, 59
2, 141916, Note_on_c, 0, 69, 0
2, 141928, Note_on_c, 0, 66, 55
2, 142016, Note_on_c, 0, 66, 0
2, 142064, Note_on_c, 0, 67, 56
2, 142164, Note_on_c, 0, 67, 0
2, 142224, Note_on_c, 0, 64, 30
2, 142368, Note_on_c, 0, 64, 0
2, 142412, Note_on_c, 0, 64, 63
2, 142532, Note_on_c, 0, 64, 0
2, 142624, Note_on_c, 0, 60, 27
2, 142828, Note_on_c, 0, 60, 0
2, 142888, Note_on_c, 0, 60, 64
2, 143028, Note_on_c, 0, 60, 0
2, 143088, Note_on_c, 0, 59, 28
2, 143328, Note_on_c, 0, 59, 0
2, 143372, Note_on_c, 0, 59, 60
2, 143552, Note_on_c, 0, 58, 57
2, 143564, Note_on_c, 0, 59, 0
2, 143792, Note_on_c, 0, 58, 0
2, 143880, Note_on_c, 0, 58, 47
2, 143920, Note_on_c, 0, 43, 26
2, 143972, Note_on_c, 0, 43, 0
2, 144004, Note_on_c, 0, 58, 0
2, 144072, Note_on_c, 0, 57, 39
2, 144264, Note_on_c, 0, 57, 0
2, 144332, Note_on_c, 0, 57, 60
2, 144380, Note_on_c, 0, 43, 27
2, 144424, Note_on_c, 0, 43, 0
2, 144464, Note_on_c, 0, 57, 0
2, 144524, Note_on_c, 0, 55, 37
2, 144728, Note_on_c, 0, 55, 0
2, 144840, Note_on_c, 0, 55, 54
2, 144868, Note_on_c, 0, 50, 33
2, 144900, Note_on_c, 0, 50, 0
2, 144908, Note_on_c, 0, 55, 0
2, 145308, Note_on_c, 0, 50, 45
2, 145340, Note_on_c, 0, 50, 0
2, 145340, Note_on_c, 0, 43, 20
2, 145364, Note_on_c, 0, 43, 0
2, 145468, Note_on_c, 0, 59, 56
2, 145552, Note_on_c, 0, 59, 0
2, 145784, Note_on_c, 0, 58, 80
2, 145928, Note_on_c, 0, 58, 0
2, 146000, Note_on_c, 0, 60, 51
2, 146260, Note_on_c, 0, 60, 0
2, 146448, Note_on_c, 0, 57, 61
2, 146560, Note_on_c, 0, 57, 0
2, 146768, Note_on_c, 0, 58, 41
2, 146780, Note_on_c, 0, 52, 32
2, 146812, Note_on_c, 0, 52, 0
2, 146872, Note_on_c, 0, 58, 0
2, 147112, Note_on_c, 0, 73, 73
2, 147192, Note_on_c, 0, 73, 0
2, 147248, Note_on_c, 0, 74, 72
2, 147284, Note_on_c, 0, 58, 33
2, 147300, Note_on_c, 0, 60, 37
2, 147320, Note_on_c, 0, 74, 0
2, 147348, Note_on_c, 0, 58, 0
2, 147364, Note_on_c, 0, 60, 0
2, 147400, Note_on_c, 0, 77, 71
2, 147500, Note_on_c, 0, 77, 0
2, 147544, Note_on_c, 0, 79, 69
2, 147624, Note_on_c, 0, 79, 0
2, 147692, Note_on_c, 0, 80, 74
2, 147700, Note_on_c, 0, 62, 57
2, 147704, Note_on_c, 0, 63, 41
2, 147712, Note_on_c, 0, 67, 51
2, 147840, Note_on_c, 0, 80, 0
2, 147880, Note_on_c, 0, 81, 55
2, 147884, Note_on_c, 0, 57, 1
2, 148012, Note_on_c, 0, 67, 0
2, 148048, Note_on_c, 0, 57, 0
2, 148052, Note_on_c, 0, 62, 0
2, 148072, Note_on_c, 0, 63, 0
2, 148140, Note_on_c, 0, 81, 0
2, 148204, Note_on_c, 0, 62, 46
2, 148204, Note_on_c, 0, 67, 52
2, 148204, Note_on_c, 0, 63, 29
2, 148208, Note_on_c, 0, 84, 58
2, 148208, Note_on_c, 0, 72, 52
2, 148232, Note_on_c, 0, 57, 19
2, 148236, Note_on_c, 0, 67, 0
2, 148260, Note_on_c, 0, 57, 0
2, 148268, Note_on_c, 0, 72, 0
2, 148272, Note_on_c, 0, 84, 0
2, 148276, Note_on_c, 0, 63, 0
2, 148276, Note_on_c, 0, 62, 0
2, 148360, Note_on_c, 0, 62, 61
2, 148360, Note_on_c, 0, 63, 37
2, 148364, Note_on_c, 0, 86, 73
2, 148364, Note_on_c, 0, 67, 55
2, 148368, Note_on_c, 0, 57, 37
2, 148368, Note_on_c, 0, 74, 70
2, 148552, Note_on_c, 0, 57, 0
2, 148564, Note_on_c, 0, 67, 0
2, 148568, Note_on_c, 0, 86, 0
2, 148584, Note_on_c, 0, 62, 0
2, 148584, Note_on_c, 0, 63, 0
2, 148592, Note_on_c, 0, 74, 0
2, 148664, Note_on_c, 0, 62, 47
2, 148664, Note_on_c, 0, 63, 38
2, 148668, Note_on_c, 0, 67, 53
2, 148668, Note_on_c, 0, 84, 68
2, 148672, Note_on_c, 0, 57, 49
2, 148684, Note_on_c, 0, 72, 59
2, 149116, Note_on_c, 0, 67, 0
2, 149192, Note_on_c, 0, 63, 0
2, 149196, Note_on_c, 0, 62, 0
2, 149196, Note_on_c, 0, 57, 0
2, 149208, Note_on_c, 0, 72, 0
2, 149256, Note_on_c, 0, 84, 0
2, 149280, Note_on_c, 0, 57, 20
2, 149284, Note_on_c, 0, 63, 24
2, 149288, Note_on_c, 0, 67, 39
2, 149288, Note_on_c, 0, 72, 30
2, 149300, Note_on_c, 0, 62, 29
2, 149324, Control_c, 0, 64, 127
2, 149324, Note_on_c, 0, 81, 26
2, 149360, Note_on_c, 0, 67, 0
2, 149388, Note_on_c, 0, 62, 0
2, 149408, Note_on_c, 0, 63, 0
2, 149472, Note_on_c, 0, 57, 0
2, 149512, Note_on_c, 0, 72, 0
2, 149528, Note_on_c, 0, 81, 0
2, 149684, Control_c, 0, 64, 0
2, 149748, Note_on_c, 0, 60, 55
2, 149752, Note_on_c, 0, 65, 60
2, 149764, Note_on_c, 0, 61, 30
2, 149768, Note_on_c, 0, 84, 78
2, 149772, Note_on_c, 0, 72, 72
2, 149792, Note_on_c, 0, 65, 0
2, 149808, Note_on_c, 0, 61, 0
2, 149816, Note_on_c, 0, 60, 0
2, 149816, Note_on_c, 0, 84, 0
2, 149816, Note_on_c, 0, 72, 0
2, 150004, Note_on_c, 0, 62, 65
2, 150004, Note_on_c, 0, 60, 59
2, 150012, Note_on_c, 0, 65, 56
2, 150020, Note_on_c, 0, 84, 83
2, 150024, Note_on_c, 0, 72, 78
2, 150040, Note_on_c, 0, 65, 0
2, 150064, Note_on_c, 0, 62, 0
2, 150068, Note_on_c, 0, 84, 0
2, 150072, Note_on_c, 0, 60, 0
2, 150076, Note_on_c, 0, 72, 0
2, 150252, Note_on_c, 0, 62, 68
2, 150264, Note_on_c, 0, 60, 53
2, 150268, Note_on_c, 0, 65, 52
2, 150268, Note_on_c, 0, 84, 83
2, 150272, Note_on_c, 0, 55, 57
2, 150280, Note_on_c, 0, 72, 70
2, 150296, Note_on_c, 0, 65, 0
2, 150320, Note_on_c, 0, 72, 0
2, 150332, Note_on_c, 0, 62, 0
2, 150344, Note_on_c, 0, 60, 0
2, 150368, Note_on_c, 0, 84, 0
2, 150392, Note_on_c, 0, 62, 31
2, 150404, Note_on_c, 0, 65, 52
2, 150408, Note_on_c, 0, 60, 25
2, 150412, Note_on_c, 0, 77, 66
2, 150600, Note_on_c, 0, 62, 0
2, 150624, Note_on_c, 0, 55, 0
2, 150624, Note_on_c, 0, 65, 0
2, 150648, Note_on_c, 0, 60, 0
2, 150656, Note_on_c, 0, 77, 0
2, 150760, Note_on_c, 0, 55, 51
2, 150760, Note_on_c, 0, 60, 49
2, 150760, Note_on_c, 0, 61, 47
2, 150760, Note_on_c, 0, 65, 55
2, 151240, Control_c, 0, 64, 127
2, 151324, Note_on_c, 0, 65, 0
2, 151328, Note_on_c, 0, 60, 0
2, 151360, Note_on_c, 0, 61, 0
2, 151508, Note_on_c, 0, 55, 0
2, 151692, Note_on_c, 0, 60, 46
2, 151700, Note_on_c, 0, 59, 43
2, 151700, Control_c, 0, 64, 0
2, 151704, Note_on_c, 0, 64, 39
2, 152020, Note_on_c, 0, 70, 72
2, 152164, Note_on_c, 0, 70, 0
2, 152168, Note_on_c, 0, 64, 0
2, 152180, Note_on_c, 0, 59, 0
2, 152180, Note_on_c, 0, 60, 0
2, 152232, Note_on_c, 0, 71, 39
2, 152332, Note_on_c, 0, 71, 0
2, 152484, Note_on_c, 0, 71, 69
2, 152488, Note_on_c, 0, 59, 53
2, 152492, Note_on_c, 0, 64, 45
2, 152504, Note_on_c, 0, 53, 32
2, 152584, Note_on_c, 0, 64, 0
2, 152604, Note_on_c, 0, 71, 0
2, 152660, Note_on_c, 0, 72, 52
2, 152680, Note_on_c, 0, 59, 0
2, 152692, Note_on_c, 0, 53, 0
2, 152732, Note_on_c, 0, 72, 0
2, 152792, Note_on_c, 0, 75, 49
2, 152864, Note_on_c, 0, 75, 0
2, 152932, Note_on_c, 0, 76, 61
2, 153004, Note_on_c, 0, 76, 0
2, 153060, Note_on_c, 0, 79, 68
2, 153124, Note_on_c, 0, 79, 0
2, 153208, Note_on_c, 0, 63, 44
2, 153212, Note_on_c, 0, 53, 29
2, 153220, Note_on_c, 0, 59, 47
2, 153224, Note_on_c, 0, 68, 55
2, 153228, Note_on_c, 0, 80, 55
2, 153328, Note_on_c, 0, 68, 0
2, 153332, Note_on_c, 0, 80, 0
2, 153372, Note_on_c, 0, 81, 56
2, 153384, Note_on_c, 0, 69, 43
2, 153408, Note_on_c, 0, 59, 0
2, 153432, Note_on_c, 0, 69, 0
2, 153444, Note_on_c, 0, 81, 0
2, 153460, Note_on_c, 0, 53, 0
2, 153460, Note_on_c, 0, 63, 0
2, 153564, Note_on_c, 0, 70, 71
2, 153564, Note_on_c, 0, 82, 65
2, 153592, Note_on_c, 0, 62, 40
2, 153612, Note_on_c, 0, 57, 29
2, 153612, Note_on_c, 0, 52, 25
2, 153624, Note_on_c, 0, 62, 0
2, 153656, Note_on_c, 0, 57, 0
2, 153656, Note_on_c, 0, 70, 0
2, 153664, Note_on_c, 0, 82, 0
2, 153704, Note_on_c, 0, 52, 0
2, 153760, Note_on_c, 0, 83, 48
2, 153760, Note_on_c, 0, 71, 37
2, 153792, Note_on_c, 0, 71, 0
2, 153832, Note_on_c, 0, 83, 0
2, 153912, Note_on_c, 0, 55, 79
2, 153920, Note_on_c, 0, 86, 73
2, 153924, Note_on_c, 0, 54, 50
2, 154032, Note_on_c, 0, 54, 0
2, 154480, Note_on_c, 0, 86, 0
2, 154588, Note_on_c, 0, 84, 77
2, 154640, Note_on_c, 0, 55, 0
2, 154820, Note_on_c, 0, 84, 0
2, 154888, Note_on_c, 0, 55, 77
2, 154960, Note_on_c, 0, 55, 0
2, 155088, Note_on_c, 0, 79, 33
2, 155228, Note_on_c, 0, 79, 0
2, 155340, Note_on_c, 0, 82, 73
2, 155344, Note_on_c, 0, 79, 82
2, 155352, Note_on_c, 0, 63, 41
2, 155352, Note_on_c, 0, 67, 52
2, 155360, Note_on_c, 0, 60, 50
2, 155360, Note_on_c, 0, 56, 37
2, 155484, Note_on_c, 0, 79, 0
2, 155500, Note_on_c, 0, 82, 0
2, 155548, Note_on_c, 0, 82, 52
2, 155548, Note_on_c, 0, 79, 53
2, 155672, Note_on_c, 0, 67, 0
2, 155684, Note_on_c, 0, 63, 0
2, 155800, Note_on_c, 0, 79, 0
2, 155804, Note_on_c, 0, 60, 0
2, 155812, Note_on_c, 0, 82, 0
2, 155872, Note_on_c, 0, 63, 31
2, 155872, Note_on_c, 0, 77, 48
2, 155880, Note_on_c, 0, 60, 15
2, 155880, Note_on_c, 0, 80, 31
2, 155940, Note_on_c, 0, 60, 0
2, 155940, Note_on_c, 0, 77, 0
2, 155940, Note_on_c, 0, 63, 0
2, 155952, Note_on_c, 0, 80, 0
2, 155960, Note_on_c, 0, 56, 0
2, 156020, Note_on_c, 0, 56, 15
2, 156020, Note_on_c, 0, 63, 31
2, 156028, Note_on_c, 0, 60, 32
2, 156028, Note_on_c, 0, 67, 41
2, 156032, Note_on_c, 0, 82, 57
2, 156044, Note_on_c, 0, 79, 59
2, 156120, Note_on_c, 0, 67, 0
2, 156152, Note_on_c, 0, 60, 0
2, 156180, Note_on_c, 0, 63, 0
2, 156184, Note_on_c, 0, 56, 0
2, 156208, Control_c, 0, 64, 127
2, 156224, Note_on_c, 0, 79, 0
2, 156276, Note_on_c, 0, 82, 0
2, 156328, Note_on_c, 0, 63, 34
2, 156332, Note_on_c, 0, 80, 52
2, 156340, Note_on_c, 0, 67, 43
2, 156344, Note_on_c, 0, 77, 53
2, 156344, Note_on_c, 0, 56, 29
2, 156352, Note_on_c, 0, 60, 37
2, 156384, Note_on_c, 0, 67, 0
2, 156404, Note_on_c, 0, 77, 0
2, 156416, Note_on_c, 0, 63, 0
2, 156424, Note_on_c, 0, 56, 0
2, 156452, Note_on_c, 0, 60, 0
2, 156464, Note_on_c, 0, 80, 0
2, 156492, Control_c, 0, 64, 0
2, 156524, Note_on_c, 0, 67, 46
2, 156532, Note_on_c, 0, 56, 35
2, 156544, Note_on_c, 0, 75, 41
2, 156552, Note_on_c, 0, 62, 41
2, 156564, Note_on_c, 0, 79, 31
2, 156636, Note_on_c, 0, 67, 0
2, 156656, Note_on_c, 0, 62, 0
2, 156688, Note_on_c, 0, 75, 0
2, 156704, Note_on_c, 0, 79, 0
2, 156740, Note_on_c, 0, 56, 0
2, 156980, Note_on_c, 0, 66, 45
2, 156988, Note_on_c, 0, 74, 57
2, 156988, Note_on_c, 0, 77, 59
2, 156992, Note_on_c, 0, 56, 31
2, 157000, Note_on_c, 0, 62, 37
2, 157004, Control_c, 0, 64, 127
2, 157104, Note_on_c, 0, 62, 0
2, 157148, Note_on_c, 0, 66, 0
2, 157152, Note_on_c, 0, 77, 0
2, 157180, Note_on_c, 0, 74, 0
2, 157196, Note_on_c, 0, 56, 0
2, 157424, Control_c, 0, 64, 0
2, 157468, Note_on_c, 0, 76, 53
2, 157468, Note_on_c, 0, 62, 45
2, 157484, Note_on_c, 0, 52, 27
2, 157484, Note_on_c, 0, 71, 27
2, 157488, Note_on_c, 0, 57, 34
2, 157504, Note_on_c, 0, 72, 21
2, 157528, Note_on_c, 0, 72, 0
2, 157584, Control_c, 0, 64, 127
2, 157704, Note_on_c, 0, 71, 0
2, 157732, Note_on_c, 0, 76, 0
2, 157784, Note_on_c, 0, 77, 55
2, 157792, Note_on_c, 0, 74, 61
2, 157840, Note_on_c, 0, 62, 0
2, 157872, Note_on_c, 0, 77, 0
2, 157876, Note_on_c, 0, 57, 0
2, 157876, Note_on_c, 0, 74, 0
2, 157880, Control_c, 0, 64, 0
2, 157948, Note_on_c, 0, 79, 77
2, 157960, Note_on_c, 0, 76, 72
2, 158084, Note_on_c, 0, 52, 0
2, 158148, Note_on_c, 0, 79, 0
2, 158228, Note_on_c, 0, 76, 0
2, 158244, Note_on_c, 0, 54, 52
2, 158248, Note_on_c, 0, 55, 70
2, 158260, Note_on_c, 0, 67, 60
2, 158328, Note_on_c, 0, 54, 0
2, 158512, Control_c, 0, 64, 127
2, 158772, Note_on_c, 0, 67, 0
2, 158912, Note_on_c, 0, 70, 78
2, 158912, Control_c, 0, 64, 0
2, 158932, Note_on_c, 0, 55, 0
2, 158992, Control_c, 0, 64, 127
2, 159196, Note_on_c, 0, 70, 0
2, 159212, Note_on_c, 0, 63, 45
2, 159232, Note_on_c, 0, 60, 43
2, 159244, Note_on_c, 0, 67, 52
2, 159248, Control_c, 0, 64, 0
2, 159252, Note_on_c, 0, 53, 22
2, 159264, Note_on_c, 0, 56, 24
2, 159392, Control_c, 0, 64, 127
2, 159424, Note_on_c, 0, 63, 0
2, 159484, Note_on_c, 0, 60, 0
2, 159544, Note_on_c, 0, 56, 0
2, 159560, Note_on_c, 0, 53, 0
2, 159576, Note_on_c, 0, 67, 0
2, 159692, Note_on_c, 0, 60, 33
2, 159720, Note_on_c, 0, 53, 26
2, 159720, Note_on_c, 0, 56, 20
2, 159776, Note_on_c, 0, 60, 0
2, 159812, Control_c, 0, 64, 0
2, 159844, Note_on_c, 0, 63, 56
2, 159872, Note_on_c, 0, 56, 0
2, 159872, Control_c, 0, 64, 127
2, 159880, Note_on_c, 0, 53, 0
2, 160116, Note_on_c, 0, 63, 0
2, 160160, Note_on_c, 0, 62, 69
2, 160164, Note_on_c, 0, 56, 44
2, 160172, Note_on_c, 0, 46, 43
2, 160188, Control_c, 0, 64, 0
2, 160284, Note_on_c, 0, 62, 0
2, 160300, Control_c, 0, 64, 127
2, 160384, Note_on_c, 0, 46, 0
2, 160408, Note_on_c, 0, 56, 0
2, 160624, Note_on_c, 0, 68, 79
2, 160628, Note_on_c, 0, 71, 77
2, 160632, Note_on_c, 0, 64, 76
2, 160644, Note_on_c, 0, 56, 53
2, 160644, Note_on_c, 0, 62, 67
2, 160648, Control_c, 0, 64, 0
2, 160784, Control_c, 0, 64, 127
2, 161032, Note_on_c, 0, 64, 0
2, 161072, Note_on_c, 0, 62, 0
2, 161088, Note_on_c, 0, 71, 0
2, 161124, Note_on_c, 0, 68, 0
2, 161152, Note_on_c, 0, 56, 0
2, 161268, Control_c, 0, 64, 0
2, 161592, Note_on_c, 0, 71, 61
2, 161592, Note_on_c, 0, 64, 63
2, 161592, Note_on_c, 0, 57, 56
2, 161600, Note_on_c, 0, 67, 63
2, 161604, Note_on_c, 0, 52, 41
2, 161640, Note_on_c, 0, 64, 0
2, 161648, Note_on_c, 0, 52, 0
2, 161660, Note_on_c, 0, 67, 0
2, 161660, Note_on_c, 0, 57, 0
2, 161684, Note_on_c, 0, 71, 0
2, 161880, Note_on_c, 0, 74, 75
2, 161888, Note_on_c, 0, 67, 72
2, 161888, Note_on_c, 0, 62, 62
2, 161900, Note_on_c, 0, 57, 46
2, 161904, Note_on_c, 0, 52, 46
2, 161952, Control_c, 0, 64, 127
2, 162060, Note_on_c, 0, 62, 0
2, 162100, Note_on_c, 0, 67, 0
2, 162108, Note_on_c, 0, 52, 0
2, 162108, Note_on_c, 0, 57, 0
2, 162128, Note_on_c, 0, 74, 0
2, 162208, Control_c, 0, 64, 0
2, 162228, Note_on_c, 0, 71, 55
2, 162232, Note_on_c, 0, 64, 49
2, 162240, Note_on_c, 0, 62, 37
2, 162240, Note_on_c, 0, 67, 47
2, 162244, Note_on_c, 0, 57, 45
2, 162244, Note_on_c, 0, 52, 39
2, 162328, Control_c, 0, 64, 127
2, 162404, Note_on_c, 0, 64, 0
2, 162504, Note_on_c, 0, 67, 0
2, 162560, Note_on_c, 0, 71, 0
2, 162688, Note_on_c, 0, 57, 0
2, 162708, Note_on_c, 0, 52, 0
2, 162760, Note_on_c, 0, 62, 0
2, 162980, Control_c, 0, 64, 0
2, 163004, Note_on_c, 0, 94, 65
2, 163052, Note_on_c, 0, 63, 35
2, 163072, Note_on_c, 0, 59, 31
2, 163092, Note_on_c, 0, 90, 44
2, 163100, Note_on_c, 0, 58, 20
2, 163108, Note_on_c, 0, 94, 0
2, 163120, Note_on_c, 0, 54, 12
2, 163156, Note_on_c, 0, 90, 0
2, 163248, Note_on_c, 0, 92, 48
2, 163304, Note_on_c, 0, 87, 52
2, 163320, Note_on_c, 0, 92, 0
2, 163324, Note_on_c, 0, 59, 0
2, 163376, Note_on_c, 0, 87, 0
2, 163392, Note_on_c, 0, 86, 51
2, 163404, Note_on_c, 0, 63, 0
2, 163432, Note_on_c, 0, 86, 0
2, 163460, Note_on_c, 0, 90, 49
2, 163532, Note_on_c, 0, 85, 44
2, 163552, Note_on_c, 0, 90, 0
2, 163604, Note_on_c, 0, 85, 0
2, 163624, Note_on_c, 0, 84, 43
2, 163664, Note_on_c, 0, 84, 0
2, 163688, Note_on_c, 0, 59, 24
2, 163760, Note_on_c, 0, 82, 37
2, 163776, Note_on_c, 0, 59, 0
2, 163820, Note_on_c, 0, 82, 0
2, 163948, Note_on_c, 0, 58, 0
2, 163952, Note_on_c, 0, 54, 0
2, 164048, Note_on_c, 0, 63, 59
2, 164052, Note_on_c, 0, 59, 55
2, 164064, Note_on_c, 0, 53, 48
2, 164068, Note_on_c, 0, 58, 26
2, 164388, Note_on_c, 0, 87, 69
2, 164464, Note_on_c, 0, 82, 51
2, 164496, Note_on_c, 0, 87, 0
2, 164540, Note_on_c, 0, 63, 0
2, 164544, Note_on_c, 0, 82, 0
2, 164548, Note_on_c, 0, 81, 36
2, 164576, Note_on_c, 0, 59, 0
2, 164580, Note_on_c, 0, 81, 0
2, 164608, Note_on_c, 0, 58, 0
2, 164680, Note_on_c, 0, 85, 69
2, 164708, Note_on_c, 0, 63, 32
2, 164740, Note_on_c, 0, 59, 29
2, 164744, Note_on_c, 0, 58, 16
2, 164800, Note_on_c, 0, 85, 0
2, 164808, Note_on_c, 0, 78, 58
2, 164820, Note_on_c, 0, 63, 0
2, 164892, Note_on_c, 0, 59, 0
2, 164916, Note_on_c, 0, 78, 0
2, 164936, Note_on_c, 0, 58, 0
2, 164944, Note_on_c, 0, 77, 42
2, 164988, Note_on_c, 0, 53, 0
2, 165068, Note_on_c, 0, 77, 0
2, 165208, Note_on_c, 0, 74, 40
2, 165212, Note_on_c, 0, 62, 22
2, 165240, Note_on_c, 0, 74, 0
2, 165244, Note_on_c, 0, 62, 0
2, 165300, Note_on_c, 0, 75, 48
2, 165388, Note_on_c, 0, 75, 0
2, 165424, Note_on_c, 0, 76, 59
2, 165516, Note_on_c, 0, 76, 0
2, 165544, Note_on_c, 0, 77, 66
2, 165548, Note_on_c, 0, 62, 31
2, 165604, Note_on_c, 0, 55, 19
2, 165608, Note_on_c, 0, 62, 0
2, 165628, Note_on_c, 0, 77, 0
2, 165664, Note_on_c, 0, 55, 0
2, 165680, Note_on_c, 0, 74, 59
2, 165808, Note_on_c, 0, 70, 38
2, 165832, Note_on_c, 0, 74, 0
2, 165840, Note_on_c, 0, 70, 0
2, 166444, Note_on_c, 0, 62, 52
2, 166448, Note_on_c, 0, 58, 33
2, 166468, Note_on_c, 0, 55, 29
2, 166472, Note_on_c, 0, 62, 0
2, 166508, Note_on_c, 0, 55, 0
2, 166536, Note_on_c, 0, 58, 0
2, 166732, Note_on_c, 0, 68, 57
2, 166796, Note_on_c, 0, 68, 0
2, 166880, Note_on_c, 0, 58, 47
2, 166884, Note_on_c, 0, 70, 80
2, 166888, Note_on_c, 0, 62, 60
2, 166968, Note_on_c, 0, 62, 0
2, 166968, Note_on_c, 0, 58, 0
2, 167004, Note_on_c, 0, 70, 0
2, 167048, Note_on_c, 0, 61, 51
2, 167060, Note_on_c, 0, 54, 37
2, 167068, Note_on_c, 0, 66, 50
2, 167072, Note_on_c, 0, 58, 31
2, 167332, Note_on_c, 0, 58, 0
2, 167348, Note_on_c, 0, 54, 0
2, 167352, Note_on_c, 0, 61, 0
2, 167408, Note_on_c, 0, 66, 0
2, 167408, Note_on_c, 0, 65, 33
2, 167456, Note_on_c, 0, 65, 0
2, 167540, Note_on_c, 0, 61, 30
2, 167544, Note_on_c, 0, 54, 32
2, 167548, Note_on_c, 0, 66, 48
2, 167552, Note_on_c, 0, 58, 38
2, 167708, Note_on_c, 0, 54, 0
2, 167732, Note_on_c, 0, 61, 0
2, 167780, Note_on_c, 0, 58, 0
2, 167792, Note_on_c, 0, 66, 0
2, 167840, Note_on_c, 0, 68, 64
2, 167844, Note_on_c, 0, 58, 32
2, 167852, Note_on_c, 0, 65, 49
2, 167864, Note_on_c, 0, 60, 46
2, 167872, Note_on_c, 0, 54, 26
2, 168000, Note_on_c, 0, 65, 0
2, 168008, Control_c, 0, 64, 127
2, 168044, Note_on_c, 0, 60, 0
2, 168148, Note_on_c, 0, 58, 0
2, 168184, Note_on_c, 0, 54, 0
2, 168264, Note_on_c, 0, 68, 0
2, 168324, Note_on_c, 0, 54, 57
2, 168324, Note_on_c, 0, 58, 48
2, 168328, Note_on_c, 0, 60, 56
2, 168332, Note_on_c, 0, 65, 42
2, 168360, Note_on_c, 0, 65, 0
2, 168408, Note_on_c, 0, 60, 0
2, 168432, Note_on_c, 0, 58, 0
2, 168456, Note_on_c, 0, 54, 0
2, 168824, Note_on_c, 0, 67, 90
2, 168828, Note_on_c, 0, 64, 89
2, 168832, Note_on_c, 0, 60, 94
2, 168832, Note_on_c, 0, 55, 78
2, 168832, Note_on_c, 0, 57, 79
2, 168840, Control_c, 0, 64, 0
2, 168840, Note_on_c, 0, 53, 70
2, 168984, Control_c, 0, 64, 127
2, 169336, Note_on_c, 0, 60, 0
2, 169344, Note_on_c, 0, 57, 0
2, 169356, Note_on_c, 0, 64, 0
2, 169360, Note_on_c, 0, 53, 0
2, 169360, Note_on_c, 0, 55, 0
2, 169384, Note_on_c, 0, 67, 0
2, 169468, Control_c, 0, 64, 0
2, 169468, Note_on_c, 0, 69, 72
2, 169472, Note_on_c, 0, 57, 53
2, 169472, Note_on_c, 0, 64, 72
2, 169480, Note_on_c, 0, 60, 57
2, 169484, Note_on_c, 0, 55, 53
2, 169484, Note_on_c, 0, 53, 53
2, 169652, Note_on_c, 0, 60, 0
2, 169656, Note_on_c, 0, 55, 0
2, 169668, Note_on_c, 0, 53, 0
2, 169688, Note_on_c, 0, 69, 0
2, 169692, Note_on_c, 0, 64, 0
2, 169696, Note_on_c, 0, 57, 0
2, 169964, Note_on_c, 0, 71, 54
2, 169968, Note_on_c, 0, 59, 60
2, 169968, Note_on_c, 0, 63, 62
2, 169968, Note_on_c, 0, 67, 55
2, 169972, Note_on_c, 0, 53, 47
2, 170072, Note_on_c, 0, 53, 0
2, 170076, Note_on_c, 0, 63, 0
2, 170080, Note_on_c, 0, 67, 0
2, 170108, Note_on_c, 0, 71, 0
2, 170120, Note_on_c, 0, 59, 0
2, 170408, Note_on_c, 0, 53, 59
2, 170408, Note_on_c, 0, 59, 58
2, 170412, Note_on_c, 0, 72, 84
2, 170412, Note_on_c, 0, 64, 68
2, 170420, Note_on_c, 0, 84, 91
2, 170492, Note_on_c, 0, 64, 0
2, 170528, Note_on_c, 0, 59, 0
2, 170628, Note_on_c, 0, 53, 0
2, 170640, Note_on_c, 0, 72, 0
2, 170640, Note_on_c, 0, 84, 0
2, 170908, Note_on_c, 0, 58, 70
2, 170912, Note_on_c, 0, 57, 68
2, 170920, Note_on_c, 0, 62, 75
2, 170920, Note_on_c, 0, 77, 85
2, 170920, Note_on_c, 0, 84, 90
2, 170924, Note_on_c, 0, 72, 86
2, 170928, Note_on_c, 0, 81, 66
2, 170940, Note_on_c, 0, 83, 34
2, 170948, Note_on_c, 0, 72, 0
2, 170964, Note_on_c, 0, 83, 0
2, 170976, Note_on_c, 0, 57, 0
2, 170980, Note_on_c, 0, 77, 0
2, 171028, Note_on_c, 0, 62, 0
2, 171028, Note_on_c, 0, 81, 0
2, 171032, Note_on_c, 0, 58, 0
2, 171040, Note_on_c, 0, 84, 0
2, 171040, Note_on_c, 0, 72, 49
2, 171072, Note_on_c, 0, 57, 36
2, 171112, Note_on_c, 0, 84, 48
2, 171120, Note_on_c, 0, 72, 0
2, 171132, Note_on_c, 0, 58, 31
2, 171140, Note_on_c, 0, 81, 38
2, 171140, Note_on_c, 0, 62, 41
2, 171140, Note_on_c, 0, 77, 37
2, 171144, Note_on_c, 0, 57, 0
2, 171184, Note_on_c, 0, 84, 0
2, 171200, Note_on_c, 0, 81, 0
2, 171200, Note_on_c, 0, 77, 0
2, 171200, Note_on_c, 0, 72, 43
2, 171232, Note_on_c, 0, 58, 0
2, 171264, Note_on_c, 0, 62, 0
2, 171268, Note_on_c, 0, 57, 45
2, 171272, Note_on_c, 0, 84, 39
2, 171280, Note_on_c, 0, 72, 0
2, 171304, Note_on_c, 0, 84, 0
2, 171304, Note_on_c, 0, 77, 33
2, 171316, Note_on_c, 0, 57, 0
2, 171336, Note_on_c, 0, 77, 0
2, 171428, Note_on_c, 0, 62, 60
2, 171428, Note_on_c, 0, 57, 49
2, 171428, Note_on_c, 0, 58, 41
2, 171432, Note_on_c, 0, 69, 70
2, 171440, Note_on_c, 0, 81, 58
2, 171488, Note_on_c, 0, 57, 0
2, 171492, Note_on_c, 0, 62, 0
2, 171504, Note_on_c, 0, 69, 0
2, 171508, Note_on_c, 0, 58, 0
2, 171524, Note_on_c, 0, 81, 0
2, 171884, Note_on_c, 0, 80, 71
2, 171888, Note_on_c, 0, 84, 82
2, 171888, Note_on_c, 0, 72, 80
2, 171888, Note_on_c, 0, 58, 55
2, 171888, Note_on_c, 0, 62, 65
2, 171892, Note_on_c, 0, 57, 55
2, 171900, Note_on_c, 0, 78, 40
2, 171924, Note_on_c, 0, 78, 0
2, 172028, Note_on_c, 0, 81, 38
2, 172032, Note_on_c, 0, 80, 0
2, 172308, Control_c, 0, 64, 127
2, 172536, Note_on_c, 0, 72, 0
2, 172572, Note_on_c, 0, 62, 0
2, 172592, Note_on_c, 0, 81, 0
2, 172612, Note_on_c, 0, 57, 0
2, 172612, Note_on_c, 0, 84, 0
2, 172628, Note_on_c, 0, 58, 0
2, 172712, Control_c, 0, 64, 0
2, 173160, Note_on_c, 0, 86, 70
2, 173164, Note_on_c, 0, 58, 48
2, 173164, Note_on_c, 0, 62, 61
2, 173168, Note_on_c, 0, 74, 63
2, 173188, Note_on_c, 0, 62, 0
2, 173188, Note_on_c, 0, 86, 0
2, 173192, Note_on_c, 0, 74, 0
2, 173192, Note_on_c, 0, 52, 19
2, 173216, Note_on_c, 0, 52, 0
2, 173224, Note_on_c, 0, 58, 0
2, 173620, Note_on_c, 0, 67, 57
2, 173624, Note_on_c, 0, 79, 47
2, 173632, Note_on_c, 0, 58, 33
2, 173632, Note_on_c, 0, 62, 45
2, 173664, Note_on_c, 0, 52, 33
2, 173748, Note_on_c, 0, 67, 0
2, 173764, Control_c, 0, 64, 127
2, 173824, Note_on_c, 0, 79, 0
2, 174120, Note_on_c, 0, 96, 90
2, 174184, Control_c, 0, 64, 0
2, 174248, Note_on_c, 0, 96, 0
2, 174268, Note_on_c, 0, 52, 0
2, 174364, Note_on_c, 0, 62, 0
2, 174460, Note_on_c, 0, 93, 38
2, 174464, Note_on_c, 0, 58, 0
2, 174500, Note_on_c, 0, 93, 0
2, 174572, Note_on_c, 0, 96, 86
2, 174632, Note_on_c, 0, 62, 29
2, 174640, Note_on_c, 0, 58, 23
2, 174664, Note_on_c, 0, 53, 21
2, 174668, Note_on_c, 0, 57, 17
2, 174772, Note_on_c, 0, 62, 0
2, 174784, Note_on_c, 0, 96, 0
2, 174804, Note_on_c, 0, 93, 32
2, 174864, Note_on_c, 0, 89, 39
2, 174892, Note_on_c, 0, 58, 0
2, 174912, Note_on_c, 0, 93, 0
2, 174928, Note_on_c, 0, 85, 30
2, 174936, Note_on_c, 0, 89, 0
2, 174976, Note_on_c, 0, 85, 0
2, 175000, Note_on_c, 0, 84, 61
2, 175124, Note_on_c, 0, 84, 0
2, 175172, Note_on_c, 0, 82, 51
2, 175172, Note_on_c, 0, 62, 30
2, 175188, Note_on_c, 0, 53, 0
2, 175216, Note_on_c, 0, 62, 0
2, 175288, Note_on_c, 0, 57, 0
2, 175524, Note_on_c, 0, 82, 0
2, 175524, Note_on_c, 0, 81, 57
2, 175540, Note_on_c, 0, 58, 22
2, 175540, Note_on_c, 0, 62, 17
2, 175580, Note_on_c, 0, 62, 0
2, 175592, Note_on_c, 0, 81, 0
2, 175652, Note_on_c, 0, 58, 0
2, 175704, Note_on_c, 0, 82, 33
2, 175768, Note_on_c, 0, 82, 0
2, 175820, Note_on_c, 0, 83, 55
2, 175908, Note_on_c, 0, 83, 0
2, 175948, Note_on_c, 0, 84, 64
2, 176020, Note_on_c, 0, 84, 0
2, 176088, Note_on_c, 0, 62, 23
2, 176100, Note_on_c, 0, 58, 23
2, 176104, Note_on_c, 0, 78, 52
2, 176176, Note_on_c, 0, 78, 0
2, 176180, Note_on_c, 0, 62, 0
2, 176224, Note_on_c, 0, 81, 52
2, 176324, Note_on_c, 0, 58, 0
2, 176332, Note_on_c, 0, 81, 0
2, 176352, Note_on_c, 0, 78, 42
2, 176416, Note_on_c, 0, 78, 0
2, 176472, Note_on_c, 0, 79, 56
2, 176572, Note_on_c, 0, 79, 0
2, 176608, Note_on_c, 0, 62, 35
2, 176612, Note_on_c, 0, 58, 23
2, 176624, Note_on_c, 0, 74, 33
2, 176628, Note_on_c, 0, 76, 26
2, 176644, Note_on_c, 0, 52, 37
2, 176660, Note_on_c, 0, 76, 0
2, 176688, Note_on_c, 0, 74, 0
2, 176740, Note_on_c, 0, 75, 32
2, 176768, Note_on_c, 0, 62, 0
2, 176848, Note_on_c, 0, 75, 0
2, 176868, Note_on_c, 0, 73, 32
2, 176892, Note_on_c, 0, 58, 0
2, 176980, Note_on_c, 0, 73, 0
2, 176992, Note_on_c, 0, 72, 42
2, 177056, Note_on_c, 0, 72, 0
2, 177112, Note_on_c, 0, 70, 45
2, 177132, Note_on_c, 0, 58, 13
2, 177216, Note_on_c, 0, 70, 0
2, 177284, Note_on_c, 0, 58, 0
2, 177412, Note_on_c, 0, 52, 0
2, 177924, Note_on_c, 0, 58, 47
2, 177932, Note_on_c, 0, 52, 50
2, 177956, Note_on_c, 0, 52, 0
2, 178004, Note_on_c, 0, 58, 0
2, 178100, Note_on_c, 0, 68, 60
2, 178212, Note_on_c, 0, 68, 0
2, 178228, Note_on_c, 0, 69, 54
2, 178288, Note_on_c, 0, 69, 0
2, 178432, Note_on_c, 0, 67, 66
2, 178440, Note_on_c, 0, 63, 54
2, 178444, Note_on_c, 0, 57, 55
2, 178460, Note_on_c, 0, 67, 0
2, 178472, Note_on_c, 0, 57, 0
2, 178524, Note_on_c, 0, 63, 0
2, 178900, Note_on_c, 0, 63, 30
2, 178908, Note_on_c, 0, 62, 34
2, 178956, Note_on_c, 0, 62, 0
2, 178988, Note_on_c, 0, 63, 0
2, 179060, Note_on_c, 0, 70, 69
2, 179184, Note_on_c, 0, 70, 0
2, 179184, Note_on_c, 0, 68, 53
2, 179312, Note_on_c, 0, 68, 0
2, 179320, Note_on_c, 0, 69, 55
2, 179404, Note_on_c, 0, 69, 0
2, 179452, Note_on_c, 0, 73, 59
2, 179464, Note_on_c, 0, 67, 29
2, 179468, Note_on_c, 0, 63, 29
2, 179492, Note_on_c, 0, 62, 19
2, 179508, Note_on_c, 0, 67, 0
2, 179536, Note_on_c, 0, 62, 0
2, 179564, Note_on_c, 0, 73, 0
2, 179576, Note_on_c, 0, 63, 0
2, 179584, Note_on_c, 0, 71, 35
2, 179704, Note_on_c, 0, 71, 0
2, 179712, Note_on_c, 0, 72, 46
2, 179760, Note_on_c, 0, 72, 0
2, 179824, Note_on_c, 0, 75, 64
2, 179892, Note_on_c, 0, 63, 20
2, 179944, Note_on_c, 0, 75, 0
2, 179980, Note_on_c, 0, 63, 0
2, 179980, Note_on_c, 0, 74, 54
2, 180112, Note_on_c, 0, 74, 0
2, 180780, Note_on_c, 0, 65, 62
2, 180784, Note_on_c, 0, 60, 43
2, 180792, Note_on_c, 0, 61, 35
2, 180812, Note_on_c, 0, 65, 0
2, 180824, Note_on_c, 0, 60, 0
2, 180864, Note_on_c, 0, 61, 0
2, 181280, Note_on_c, 0, 72, 94
2, 181292, Note_on_c, 0, 60, 52
2, 181292, Note_on_c, 0, 62, 53
2, 181300, Note_on_c, 0, 65, 37
2, 181332, Note_on_c, 0, 65, 0
2, 181336, Note_on_c, 0, 62, 0
2, 181412, Note_on_c, 0, 72, 0
2, 181488, Note_on_c, 0, 69, 35
2, 181656, Note_on_c, 0, 60, 0
2, 181732, Note_on_c, 0, 69, 0
2, 181768, Note_on_c, 0, 61, 47
2, 181772, Note_on_c, 0, 70, 58
2, 181780, Note_on_c, 0, 65, 56
2, 181784, Note_on_c, 0, 55, 57
2, 181828, Note_on_c, 0, 65, 0
2, 181892, Note_on_c, 0, 70, 0
2, 181952, Note_on_c, 0, 71, 49
2, 181992, Note_on_c, 0, 61, 0
2, 182036, Note_on_c, 0, 55, 0
2, 182152, Note_on_c, 0, 71, 0
2, 182240, Note_on_c, 0, 72, 39
2, 182300, Note_on_c, 0, 72, 0
2, 182388, Note_on_c, 0, 56, 38
2, 182404, Note_on_c, 0, 71, 49
2, 182440, Note_on_c, 0, 60, 8
2, 182448, Note_on_c, 0, 59, 8
2, 182580, Note_on_c, 0, 59, 0
2, 182588, Note_on_c, 0, 60, 0
2, 182604, Note_on_c, 0, 71, 0
2, 182620, Control_c, 0, 64, 127
2, 182708, Note_on_c, 0, 72, 64
2, 182708, Note_on_c, 0, 57, 57
2, 182768, Note_on_c, 0, 72, 0
2, 182856, Note_on_c, 0, 56, 0
2, 182884, Note_on_c, 0, 64, 61
2, 182888, Note_on_c, 0, 57, 0
2, 182888, Note_on_c, 0, 60, 55
2, 182888, Note_on_c, 0, 76, 61
2, 182948, Note_on_c, 0, 64, 0
2, 182972, Note_on_c, 0, 76, 0
2, 182980, Note_on_c, 0, 60, 0
2, 183188, Note_on_c, 0, 79, 57
2, 183192, Note_on_c, 0, 67, 61
2, 183192, Note_on_c, 0, 59, 55
2, 183212, Note_on_c, 0, 77, 29
2, 183232, Note_on_c, 0, 78, 31
2, 183236, Note_on_c, 0, 79, 0
2, 183240, Note_on_c, 0, 77, 0
2, 183240, Note_on_c, 0, 67, 0
2, 183240, Note_on_c, 0, 59, 0
2, 183272, Note_on_c, 0, 78, 0
2, 183320, Control_c, 0, 64, 0
2, 183360, Note_on_c, 0, 68, 68
2, 183364, Note_on_c, 0, 80, 69
2, 183368, Note_on_c, 0, 64, 52
2, 183372, Note_on_c, 0, 59, 55
2, 183372, Note_on_c, 0, 53, 50
2, 183428, Control_c, 0, 64, 127
2, 183520, Note_on_c, 0, 64, 0
2, 183540, Note_on_c, 0, 53, 0
2, 183568, Note_on_c, 0, 80, 0
2, 183576, Note_on_c, 0, 59, 0
2, 183580, Note_on_c, 0, 68, 0
2, 183660, Note_on_c, 0, 59, 57
2, 183664, Note_on_c, 0, 81, 69
2, 183672, Note_on_c, 0, 69, 69
2, 183728, Note_on_c, 0, 81, 0
2, 183736, Note_on_c, 0, 69, 0
2, 183772, Control_c, 0, 64, 0
2, 183780, Note_on_c, 0, 59, 0
2, 183848, Note_on_c, 0, 59, 50
2, 183848, Note_on_c, 0, 63, 52
2, 183848, Note_on_c, 0, 53, 49
2, 183864, Note_on_c, 0, 64, 31
2, 183868, Note_on_c, 0, 56, 27
2, 183884, Note_on_c, 0, 71, 15
2, 183920, Control_c, 0, 64, 127
2, 183956, Note_on_c, 0, 59, 0
2, 183964, Note_on_c, 0, 71, 0
2, 183992, Note_on_c, 0, 64, 0
2, 184020, Note_on_c, 0, 63, 0
2, 184032, Note_on_c, 0, 53, 0
2, 184080, Note_on_c, 0, 56, 0
2, 184152, Note_on_c, 0, 72, 47
2, 184164, Note_on_c, 0, 67, 48
2, 184164, Note_on_c, 0, 57, 53
2, 184168, Note_on_c, 0, 52, 46
2, 184168, Control_c, 0, 64, 0
2, 184180, Note_on_c, 0, 62, 40
2, 184328, Note_on_c, 0, 57, 0
2, 184392, Note_on_c, 0, 52, 0
2, 184484, Note_on_c, 0, 55, 76
2, 184488, Note_on_c, 0, 54, 55
2, 184572, Note_on_c, 0, 54, 0
2, 184716, Note_on_c, 0, 55, 0
2, 184832, Note_on_c, 0, 55, 72
2, 184840, Note_on_c, 0, 54, 52
2, 184932, Note_on_c, 0, 54, 0
2, 185036, Note_on_c, 0, 55, 0
2, 185048, Control_c, 0, 64, 127
2, 185072, Control_c, 0, 64, 0
2, 185168, Note_on_c, 0, 54, 59
2, 185168, Note_on_c, 0, 55, 74
2, 185212, Note_on_c, 0, 54, 0
2, 185284, Control_c, 0, 64, 127
2, 185292, Note_on_c, 0, 62, 0
2, 185324, Note_on_c, 0, 67, 0
2, 185360, Note_on_c, 0, 72, 0
2, 185480, Note_on_c, 0, 55, 0
2, 185608, Note_on_c, 0, 55, 59
2, 185708, Note_on_c, 0, 55, 0
2, 185800, Note_on_c, 0, 84, 78
2, 185808, Control_c, 0, 64, 0
2, 185884, Note_on_c, 0, 84, 0
2, 185948, Note_on_c, 0, 81, 46
2, 185988, Note_on_c, 0, 81, 0
2, 186088, Note_on_c, 0, 84, 80
2, 186092, Note_on_c, 0, 62, 44
2, 186100, Note_on_c, 0, 58, 32
2, 186100, Note_on_c, 0, 72, 59
2, 186104, Note_on_c, 0, 57, 31
2, 186120, Note_on_c, 0, 53, 19
2, 186272, Control_c, 0, 64, 127
2, 186596, Note_on_c, 0, 62, 0
2, 186608, Note_on_c, 0, 58, 0
2, 186612, Note_on_c, 0, 57, 0
2, 186648, Note_on_c, 0, 53, 0
2, 186664, Note_on_c, 0, 72, 0
2, 186700, Control_c, 0, 64, 0
2, 186708, Note_on_c, 0, 84, 0
2, 186724, Note_on_c, 0, 62, 33
2, 186732, Note_on_c, 0, 53, 15
2, 186744, Note_on_c, 0, 58, 25
2, 186760, Note_on_c, 0, 81, 35
2, 186764, Note_on_c, 0, 57, 14
2, 186832, Note_on_c, 0, 62, 0
2, 186860, Note_on_c, 0, 53, 0
2, 186872, Note_on_c, 0, 58, 0
2, 186876, Note_on_c, 0, 57, 0
2, 186944, Note_on_c, 0, 81, 0
2, 187240, Note_on_c, 0, 62, 30
2, 187240, Note_on_c, 0, 84, 66
2, 187248, Note_on_c, 0, 53, 25
2, 187252, Note_on_c, 0, 72, 35
2, 187252, Note_on_c, 0, 58, 24
2, 187260, Note_on_c, 0, 57, 27
2, 187416, Note_on_c, 0, 58, 0
2, 187424, Note_on_c, 0, 62, 0
2, 187428, Note_on_c, 0, 57, 0
2, 187440, Note_on_c, 0, 53, 0
2, 187440, Note_on_c, 0, 72, 0
2, 187444, Note_on_c, 0, 84, 0
2, 187708, Note_on_c, 0, 62, 33
2, 187708, Note_on_c, 0, 53, 33
2, 187712, Note_on_c, 0, 81, 56
2, 187720, Note_on_c, 0, 57, 24
2, 187728, Note_on_c, 0, 58, 28
2, 187740, Note_on_c, 0, 72, 32
2, 187832, Note_on_c, 0, 81, 0
2, 187840, Note_on_c, 0, 57, 0
2, 187840, Note_on_c, 0, 62, 0
2, 187872, Note_on_c, 0, 53, 0
2, 187880, Note_on_c, 0, 58, 0
2, 187920, Note_on_c, 0, 72, 0
2, 188184, Note_on_c, 0, 63, 70
2, 188192, Note_on_c, 0, 73, 76
2, 188192, Note_on_c, 0, 58, 51
2, 188200, Note_on_c, 0, 85, 79
2, 188200, Note_on_c, 0, 52, 67
2, 188404, Control_c, 0, 64, 127
2, 188492, Note_on_c, 0, 52, 0
2, 188540, Note_on_c, 0, 85, 0
2, 188564, Note_on_c, 0, 73, 0
2, 188568, Note_on_c, 0, 63, 0
2, 188580, Note_on_c, 0, 58, 0
2, 188620, Control_c, 0, 64, 0
2, 188672, Note_on_c, 0, 63, 33
2, 188680, Note_on_c, 0, 82, 28
2, 188688, Note_on_c, 0, 70, 29
2, 188692, Note_on_c, 0, 58, 25
2, 188692, Note_on_c, 0, 52, 36
2, 188824, Note_on_c, 0, 52, 0
2, 188868, Note_on_c, 0, 70, 0
2, 188876, Note_on_c, 0, 63, 0
2, 188884, Note_on_c, 0, 82, 0
2, 188900, Note_on_c, 0, 58, 0
2, 188992, Note_on_c, 0, 85, 54
2, 189000, Note_on_c, 0, 63, 46
2, 189000, Note_on_c, 0, 73, 34
2, 189012, Note_on_c, 0, 58, 31
2, 189024, Note_on_c, 0, 52, 37
2, 189048, Note_on_c, 0, 73, 0
2, 189052, Note_on_c, 0, 85, 0
2, 189064, Note_on_c, 0, 52, 0
2, 189068, Note_on_c, 0, 63, 0
2, 189132, Note_on_c, 0, 58, 0
2, 189460, Note_on_c, 0, 63, 67
2, 189472, Note_on_c, 0, 58, 34
2, 189500, Note_on_c, 0, 58, 0
2, 189504, Note_on_c, 0, 63, 0
2, 189932, Note_on_c, 0, 58, 60
2, 189940, Note_on_c, 0, 62, 67
2, 189940, Note_on_c, 0, 57, 61
2, 189968, Note_on_c, 0, 57, 0
2, 189980, Note_on_c, 0, 62, 0
2, 189992, Note_on_c, 0, 58, 0
2, 190212, Control_c, 0, 64, 127
2, 190240, Control_c, 0, 64, 0
2, 190272, Note_on_c, 0, 84, 73
2, 190280, Note_on_c, 0, 96, 63
2, 190280, Note_on_c, 0, 98, 67
2, 190288, Note_on_c, 0, 86, 49
2, 190308, Note_on_c, 0, 98, 0
2, 190312, Note_on_c, 0, 86, 0
2, 190424, Note_on_c, 0, 96, 0
2, 190436, Note_on_c, 0, 84, 0
2, 190868, Note_on_c, 0, 62, 70
2, 190872, Note_on_c, 0, 58, 55
2, 190880, Note_on_c, 0, 57, 53
2, 190908, Note_on_c, 0, 57, 0
2, 190928, Note_on_c, 0, 62, 0
2, 190976, Note_on_c, 0, 58, 0
2, 191184, Note_on_c, 0, 93, 84
2, 191320, Note_on_c, 0, 90, 67
2, 191336, Note_on_c, 0, 93, 0
2, 191432, Note_on_c, 0, 90, 0
2, 191484, Note_on_c, 0, 62, 56
2, 191500, Note_on_c, 0, 91, 70
2, 191500, Note_on_c, 0, 58, 38
2, 191572, Note_on_c, 0, 62, 0
2, 191612, Note_on_c, 0, 91, 0
2, 191632, Note_on_c, 0, 58, 0
2, 191664, Note_on_c, 0, 86, 31
2, 191752, Note_on_c, 0, 86, 0
2, 191800, Note_on_c, 0, 89, 74
2, 191948, Note_on_c, 0, 89, 0
2, 191968, Note_on_c, 0, 88, 49
2, 192000, Note_on_c, 0, 88, 0
2, 192252, Note_on_c, 0, 63, 64
2, 192260, Note_on_c, 0, 58, 53
2, 192272, Note_on_c, 0, 52, 46
2, 192296, Note_on_c, 0, 52, 0
2, 192304, Note_on_c, 0, 63, 0
2, 192380, Note_on_c, 0, 58, 0
2, 192448, Note_on_c, 0, 87, 74
2, 192528, Note_on_c, 0, 87, 0
2, 192572, Note_on_c, 0, 88, 69
2, 192688, Note_on_c, 0, 87, 72
2, 192692, Note_on_c, 0, 88, 0
2, 192812, Note_on_c, 0, 85, 65
2, 192880, Note_on_c, 0, 87, 0
2, 192924, Note_on_c, 0, 63, 34
2, 192928, Note_on_c, 0, 58, 31
2, 192944, Note_on_c, 0, 85, 0
2, 192952, Note_on_c, 0, 52, 32
2, 192956, Note_on_c, 0, 63, 0
2, 192964, Note_on_c, 0, 84, 63
2, 193016, Note_on_c, 0, 84, 0
2, 193072, Note_on_c, 0, 82, 52
2, 193152, Note_on_c, 0, 82, 0
2, 193200, Note_on_c, 0, 81, 17
2, 193236, Note_on_c, 0, 58, 0
2, 193272, Note_on_c, 0, 81, 0
2, 193400, Note_on_c, 0, 58, 20
2, 193416, Note_on_c, 0, 52, 0
2, 193452, Note_on_c, 0, 81, 61
2, 193480, Note_on_c, 0, 58, 0
2, 193552, Note_on_c, 0, 81, 0
2, 193584, Note_on_c, 0, 78, 49
2, 193616, Note_on_c, 0, 78, 0
2, 193672, Note_on_c, 0, 80, 65
2, 193764, Note_on_c, 0, 80, 0
2, 193852, Note_on_c, 0, 63, 34
2, 193868, Note_on_c, 0, 67, 30
2, 193868, Note_on_c, 0, 62, 42
2, 193928, Note_on_c, 0, 79, 72
2, 193948, Note_on_c, 0, 67, 0
2, 193988, Note_on_c, 0, 62, 0
2, 194056, Note_on_c, 0, 79, 0
2, 194060, Note_on_c, 0, 63, 0
2, 194068, Note_on_c, 0, 78, 66
2, 194204, Note_on_c, 0, 77, 42
2, 194240, Note_on_c, 0, 78, 0
2, 194268, Note_on_c, 0, 77, 0
2, 194312, Note_on_c, 0, 75, 54
2, 194344, Note_on_c, 0, 63, 18
2, 194364, Note_on_c, 0, 62, 21
2, 194372, Note_on_c, 0, 63, 0
2, 194404, Note_on_c, 0, 75, 0
2, 194412, Note_on_c, 0, 62, 0
2, 194468, Note_on_c, 0, 72, 19
2, 194508, Note_on_c, 0, 72, 0
2, 194764, Note_on_c, 0, 63, 30
2, 194768, Note_on_c, 0, 67, 43
2, 194772, Note_on_c, 0, 62, 44
2, 194792, Note_on_c, 0, 57, 31
2, 195372, Note_on_c, 0, 62, 0
2, 195388, Note_on_c, 0, 67, 0
2, 195404, Note_on_c, 0, 69, 55
2, 195412, Note_on_c, 0, 63, 0
2, 195444, Note_on_c, 0, 57, 0
2, 195472, Note_on_c, 0, 69, 0
2, 195512, Note_on_c, 0, 70, 54
2, 195624, Note_on_c, 0, 70, 0
2, 195628, Note_on_c, 0, 74, 63
2, 195632, Control_c, 0, 64, 127
2, 195748, Note_on_c, 0, 77, 60
2, 195756, Note_on_c, 0, 74, 0
2, 195804, Control_c, 0, 64, 0
2, 195812, Note_on_c, 0, 77, 0
2, 195820, Note_on_c, 0, 62, 29
2, 195828, Note_on_c, 0, 60, 32
2, 195832, Note_on_c, 0, 65, 21
2, 195852, Note_on_c, 0, 55, 25
2, 195876, Note_on_c, 0, 65, 0
2, 195880, Note_on_c, 0, 73, 40
2, 195964, Note_on_c, 0, 73, 0
2, 195972, Note_on_c, 0, 74, 43
2, 196036, Note_on_c, 0, 60, 0
2, 196060, Note_on_c, 0, 62, 0
2, 196072, Note_on_c, 0, 77, 35
2, 196116, Note_on_c, 0, 74, 0
2, 196160, Note_on_c, 0, 77, 0
2, 196188, Note_on_c, 0, 80, 52
2, 196240, Note_on_c, 0, 65, 35
2, 196248, Note_on_c, 0, 62, 27
2, 196268, Note_on_c, 0, 80, 0
2, 196268, Note_on_c, 0, 60, 29
2, 196272, Note_on_c, 0, 65, 0
2, 196332, Note_on_c, 0, 62, 0
2, 196332, Note_on_c, 0, 60, 0
2, 196340, Note_on_c, 0, 77, 48
2, 196428, Note_on_c, 0, 77, 0
2, 196440, Note_on_c, 0, 78, 29
2, 196472, Note_on_c, 0, 55, 0
2, 196568, Note_on_c, 0, 82, 45
2, 196628, Note_on_c, 0, 78, 0
2, 196684, Note_on_c, 0, 85, 56
2, 196700, Note_on_c, 0, 82, 0
2, 196784, Note_on_c, 0, 85, 0
2, 196788, Note_on_c, 0, 61, 27
2, 196792, Note_on_c, 0, 55, 29
2, 196832, Note_on_c, 0, 81, 49
2, 196916, Note_on_c, 0, 81, 0
2, 196944, Note_on_c, 0, 82, 54
2, 196996, Note_on_c, 0, 61, 0
2, 197036, Note_on_c, 0, 82, 0
2, 197068, Note_on_c, 0, 83, 52
2, 197140, Note_on_c, 0, 83, 0
2, 197152, Note_on_c, 0, 61, 28
2, 197184, Note_on_c, 0, 84, 51
2, 197296, Note_on_c, 0, 61, 0
2, 197308, Note_on_c, 0, 88, 53
2, 197312, Note_on_c, 0, 84, 0
2, 197412, Note_on_c, 0, 88, 0
2, 197412, Note_on_c, 0, 55, 0
2, 197428, Note_on_c, 0, 91, 58
2, 197496, Note_on_c, 0, 91, 0
2, 197568, Note_on_c, 0, 95, 52
2, 197656, Note_on_c, 0, 95, 0
2, 197688, Note_on_c, 0, 98, 71
2, 197748, Note_on_c, 0, 60, 25
2, 197768, Note_on_c, 0, 59, 26
2, 197772, Note_on_c, 0, 64, 19
2, 197820, Note_on_c, 0, 98, 0
2, 197820, Note_on_c, 0, 96, 63
2, 197932, Note_on_c, 0, 96, 0
2, 197968, Note_on_c, 0, 92, 42
2, 197992, Note_on_c, 0, 64, 0
2, 198028, Note_on_c, 0, 92, 0
2, 198052, Note_on_c, 0, 60, 0
2, 198064, Note_on_c, 0, 95, 68
2, 198140, Note_on_c, 0, 60, 5
2, 198144, Note_on_c, 0, 64, 24
2, 198168, Note_on_c, 0, 95, 0
2, 198204, Note_on_c, 0, 91, 59
2, 198256, Note_on_c, 0, 91, 0
2, 198320, Note_on_c, 0, 94, 64
2, 198328, Note_on_c, 0, 64, 0
2, 198376, Note_on_c, 0, 59, 0
2, 198380, Note_on_c, 0, 60, 0
2, 198420, Note_on_c, 0, 94, 0
2, 198468, Note_on_c, 0, 91, 51
2, 198528, Note_on_c, 0, 91, 0
2, 198568, Note_on_c, 0, 93, 69
2, 198668, Note_on_c, 0, 93, 0
2, 198688, Note_on_c, 0, 89, 56
2, 198732, Note_on_c, 0, 59, 35
2, 198740, Note_on_c, 0, 89, 0
2, 198744, Note_on_c, 0, 64, 15
2, 198780, Note_on_c, 0, 53, 13
2, 198812, Note_on_c, 0, 92, 54
2, 198892, Note_on_c, 0, 92, 0
2, 198920, Note_on_c, 0, 88, 53
2, 198928, Note_on_c, 0, 64, 0
2, 198948, Note_on_c, 0, 53, 0
2, 198960, Note_on_c, 0, 88, 0
2, 199024, Note_on_c, 0, 91, 63
2, 199080, Note_on_c, 0, 59, 0
2, 199104, Note_on_c, 0, 91, 0
2, 199140, Note_on_c, 0, 87, 57
2, 199148, Note_on_c, 0, 63, 40
2, 199152, Note_on_c, 0, 59, 12
2, 199204, Note_on_c, 0, 87, 0
2, 199240, Note_on_c, 0, 56, 13
2, 199248, Note_on_c, 0, 89, 61
2, 199332, Note_on_c, 0, 53, 1
2, 199348, Note_on_c, 0, 89, 0
2, 199368, Note_on_c, 0, 87, 54
2, 199372, Note_on_c, 0, 59, 0
2, 199484, Note_on_c, 0, 53, 0
2, 199496, Note_on_c, 0, 87, 0
2, 199500, Note_on_c, 0, 63, 0
2, 199500, Note_on_c, 0, 88, 68
2, 199580, Note_on_c, 0, 88, 0
2, 199600, Note_on_c, 0, 56, 0
2, 199652, Note_on_c, 0, 62, 43
2, 199668, Note_on_c, 0, 52, 29
2, 199672, Note_on_c, 0, 57, 48
2, 199952, Note_on_c, 0, 83, 76
2, 200024, Note_on_c, 0, 83, 0
2, 200068, Note_on_c, 0, 84, 69
2, 200164, Note_on_c, 0, 88, 56
2, 200168, Note_on_c, 0, 84, 0
2, 200228, Note_on_c, 0, 88, 0
2, 200252, Note_on_c, 0, 91, 26
2, 200280, Note_on_c, 0, 91, 0
2, 200368, Note_on_c, 0, 88, 24
2, 200400, Control_c, 0, 64, 127
2, 200404, Note_on_c, 0, 62, 0
2, 200420, Note_on_c, 0, 92, 39
2, 200436, Note_on_c, 0, 88, 0
2, 200456, Note_on_c, 0, 57, 0
2, 200488, Note_on_c, 0, 95, 39
2, 200520, Note_on_c, 0, 95, 0
2, 200520, Note_on_c, 0, 92, 0
2, 200564, Note_on_c, 0, 91, 66
2, 200608, Control_c, 0, 64, 0
2, 200624, Note_on_c, 0, 57, 15
2, 200624, Note_on_c, 0, 62, 9
2, 200636, Note_on_c, 0, 91, 0
2, 200652, Note_on_c, 0, 92, 20
2, 200728, Note_on_c, 0, 96, 27
2, 200740, Note_on_c, 0, 92, 0
2, 200792, Note_on_c, 0, 96, 0
2, 200792, Note_on_c, 0, 99, 41
2, 200852, Note_on_c, 0, 99, 0
2, 200864, Note_on_c, 0, 95, 61
2, 200948, Note_on_c, 0, 95, 0
2, 200980, Note_on_c, 0, 96, 29
2, 201008, Note_on_c, 0, 62, 0
2, 201008, Note_on_c, 0, 100, 56
2, 201028, Note_on_c, 0, 96, 0
2, 201032, Note_on_c, 0, 57, 0
2, 201076, Note_on_c, 0, 100, 0
2, 201100, Note_on_c, 0, 103, 60
2, 201144, Note_on_c, 0, 103, 0
2, 201168, Note_on_c, 0, 52, 0
2, 201292, Note_on_c, 0, 55, 84
2, 201300, Note_on_c, 0, 54, 60
2, 201360, Note_on_c, 0, 55, 0
2, 201400, Note_on_c, 0, 54, 0
2, 201480, Note_on_c, 0, 54, 74
2, 201488, Note_on_c, 0, 44, 67
2, 201504, Note_on_c, 0, 54, 0
2, 201508, Note_on_c, 0, 53, 45
2, 201512, Note_on_c, 0, 43, 41
2, 201536, Note_on_c, 0, 53, 0
2, 201544, Note_on_c, 0, 43, 0
2, 201580, Note_on_c, 0, 44, 0
2, 201648, Note_on_c, 0, 53, 62
2, 201648, Note_on_c, 0, 43, 63
2, 201908, Note_on_c, 0, 65, 73
2, 201908, Note_on_c, 0, 64, 67
2, 201912, Note_on_c, 0, 72, 65
2, 201920, Note_on_c, 0, 71, 68
2, 201928, Note_on_c, 0, 68, 33
2, 201952, Note_on_c, 0, 68, 0
2, 201992, Note_on_c, 0, 64, 0
2, 202020, Note_on_c, 0, 71, 0
2, 202388, Note_on_c, 0, 53, 0
2, 202400, Note_on_c, 0, 50, 41
2, 202424, Note_on_c, 0, 71, 1
2, 202488, Note_on_c, 0, 43, 0
2, 202544, Note_on_c, 0, 50, 0
2, 202560, Note_on_c, 0, 57, 57
2, 202564, Note_on_c, 0, 69, 58
2, 202568, Note_on_c, 0, 61, 30
2, 202572, Note_on_c, 0, 72, 0
2, 202616, Note_on_c, 0, 71, 0
2, 202812, Note_on_c, 0, 65, 0
2, 202900, Note_on_c, 0, 61, 0
2, 202968, Note_on_c, 0, 57, 0
2, 203048, Note_on_c, 0, 69, 0
2, 203052, Note_on_c, 0, 61, 42
2, 203064, Note_on_c, 0, 55, 47
2, 203068, Note_on_c, 0, 65, 55
2, 203220, Note_on_c, 0, 61, 0
2, 203252, Note_on_c, 0, 65, 0
2, 203256, Note_on_c, 0, 55, 0
2, 203548, Note_on_c, 0, 68, 60
2, 203548, Note_on_c, 0, 58, 41
2, 203552, Note_on_c, 0, 72, 61
2, 203560, Note_on_c, 0, 64, 66
2, 203564, Note_on_c, 0, 52, 50
2, 203940, Note_on_c, 0, 72, 0
2, 203956, Note_on_c, 0, 68, 0
2, 203960, Control_c, 0, 64, 127
2, 203976, Note_on_c, 0, 58, 0
2, 203988, Note_on_c, 0, 64, 0
2, 204048, Note_on_c, 0, 52, 0
2, 204312, Note_on_c, 0, 58, 41
2, 204320, Note_on_c, 0, 62, 52
2, 204324, Note_on_c, 0, 65, 48
2, 204324, Note_on_c, 0, 52, 58
2, 204352, Control_c, 0, 64, 0
2, 204360, Note_on_c, 0, 58, 0
2, 204364, Note_on_c, 0, 62, 0
2, 204396, Note_on_c, 0, 52, 0
2, 204404, Note_on_c, 0, 65, 0
2, 204544, Control_c, 0, 64, 127
2, 204824, Note_on_c, 0, 94, 28
2, 204864, Control_c, 0, 64, 0
2, 204876, Note_on_c, 0, 94, 0
2, 204952, Note_on_c, 0, 96, 67
2, 204964, Note_on_c, 0, 84, 55
2, 204968, Note_on_c, 0, 89, 58
2, 204968, Note_on_c, 0, 58, 42
2, 204968, Note_on_c, 0, 62, 61
2, 204972, Note_on_c, 0, 53, 45
2, 204980, Note_on_c, 0, 93, 54
2, 204984, Note_on_c, 0, 57, 50
2, 205072, Control_c, 0, 64, 127
2, 205128, Note_on_c, 0, 89, 0
2, 205140, Note_on_c, 0, 93, 0
2, 205144, Note_on_c, 0, 84, 0
2, 205152, Note_on_c, 0, 96, 0
2, 205160, Note_on_c, 0, 62, 0
2, 205160, Note_on_c, 0, 53, 0
2, 205164, Note_on_c, 0, 57, 0
2, 205176, Note_on_c, 0, 58, 0
2, 205304, Note_on_c, 0, 96, 78
2, 205308, Note_on_c, 0, 58, 54
2, 205308, Note_on_c, 0, 62, 66
2, 205308, Note_on_c, 0, 84, 74
2, 205312, Note_on_c, 0, 53, 53
2, 205320, Note_on_c, 0, 93, 62
2, 205320, Note_on_c, 0, 89, 62
2, 205324, Note_on_c, 0, 57, 46
2, 205344, Note_on_c, 0, 93, 0
2, 205352, Note_on_c, 0, 57, 0
2, 205364, Note_on_c, 0, 89, 0
2, 205376, Note_on_c, 0, 62, 0
2, 205388, Note_on_c, 0, 96, 0
2, 205392, Note_on_c, 0, 84, 0
2, 205396, Note_on_c, 0, 53, 0
2, 205412, Note_on_c, 0, 58, 0
2, 205448, Control_c, 0, 64, 0
2, 205472, Note_on_c, 0, 53, 45
2, 205480, Note_on_c, 0, 62, 46
2, 205484, Note_on_c, 0, 58, 32
2, 205488, Note_on_c, 0, 93, 58
2, 205500, Note_on_c, 0, 57, 40
2, 205500, Note_on_c, 0, 81, 30
2, 205504, Note_on_c, 0, 86, 42
2, 205508, Note_on_c, 0, 89, 37
2, 205588, Note_on_c, 0, 81, 0
2, 205596, Note_on_c, 0, 86, 0
2, 205620, Note_on_c, 0, 89, 0
2, 205620, Note_on_c, 0, 93, 0
2, 205644, Note_on_c, 0, 53, 0
2, 205644, Note_on_c, 0, 62, 0
2, 205648, Note_on_c, 0, 57, 0
2, 205656, Note_on_c, 0, 58, 0
2, 205804, Note_on_c, 0, 62, 66
2, 205808, Note_on_c, 0, 58, 44
2, 205808, Note_on_c, 0, 89, 61
2, 205812, Note_on_c, 0, 57, 44
2, 205812, Note_on_c, 0, 53, 46
2, 205820, Note_on_c, 0, 93, 55
2, 205820, Note_on_c, 0, 84, 57
2, 205820, Note_on_c, 0, 96, 67
2, 205848, Note_on_c, 0, 93, 0
2, 205852, Note_on_c, 0, 57, 0
2, 205872, Note_on_c, 0, 89, 0
2, 205876, Note_on_c, 0, 53, 0
2, 205876, Note_on_c, 0, 62, 0
2, 205880, Note_on_c, 0, 96, 0
2, 205888, Note_on_c, 0, 84, 0
2, 205920, Note_on_c, 0, 58, 0
2, 206012, Note_on_c, 0, 62, 44
2, 206024, Note_on_c, 0, 58, 30
2, 206028, Note_on_c, 0, 57, 27
2, 206032, Note_on_c, 0, 93, 31
2, 206032, Note_on_c, 0, 86, 23
2, 206060, Note_on_c, 0, 86, 0
2, 206060, Note_on_c, 0, 62, 0
2, 206068, Note_on_c, 0, 57, 0
2, 206084, Note_on_c, 0, 93, 0
2, 206088, Note_on_c, 0, 58, 0
2, 206284, Note_on_c, 0, 62, 63
2, 206288, Note_on_c, 0, 58, 44
2, 206288, Note_on_c, 0, 89, 57
2, 206288, Note_on_c, 0, 57, 49
2, 206288, Note_on_c, 0, 96, 67
2, 206300, Note_on_c, 0, 53, 39
2, 206304, Note_on_c, 0, 93, 40
2, 206308, Note_on_c, 0, 84, 27
2, 206332, Note_on_c, 0, 93, 0
2, 206340, Note_on_c, 0, 53, 0
2, 206356, Note_on_c, 0, 89, 0
2, 206356, Note_on_c, 0, 96, 0
2, 206360, Note_on_c, 0, 84, 0
2, 206364, Note_on_c, 0, 62, 0
2, 206372, Note_on_c, 0, 57, 0
2, 206400, Note_on_c, 0, 58, 0
2, 206488, Note_on_c, 0, 86, 50
2, 206488, Note_on_c, 0, 81, 44
2, 206492, Note_on_c, 0, 93, 42
2, 206492, Note_on_c, 0, 58, 30
2, 206500, Note_on_c, 0, 62, 42
2, 206504, Note_on_c, 0, 57, 33
2, 206508, Note_on_c, 0, 53, 27
2, 206512, Note_on_c, 0, 89, 28
2, 206568, Note_on_c, 0, 81, 0
2, 206576, Note_on_c, 0, 86, 0
2, 206580, Note_on_c, 0, 89, 0
2, 206580, Note_on_c, 0, 62, 0
2, 206580, Note_on_c, 0, 53, 0
2, 206612, Note_on_c, 0, 93, 0
2, 206612, Note_on_c, 0, 57, 0
2, 206620, Note_on_c, 0, 58, 0
2, 206920, Note_on_c, 0, 58, 49
2, 206924, Note_on_c, 0, 62, 60
2, 206928, Note_on_c, 0, 84, 53
2, 206928, Note_on_c, 0, 57, 49
2, 206928, Note_on_c, 0, 96, 72
2, 206932, Note_on_c, 0, 89, 57
2, 206932, Note_on_c, 0, 93, 59
2, 206940, Note_on_c, 0, 53, 55
2, 207016, Note_on_c, 0, 84, 0
2, 207052, Note_on_c, 0, 89, 0
2, 207068, Note_on_c, 0, 62, 0
2, 207072, Note_on_c, 0, 57, 0
2, 207072, Note_on_c, 0, 93, 0
2, 207080, Note_on_c, 0, 96, 0
2, 207088, Note_on_c, 0, 53, 0
2, 207124, Note_on_c, 0, 58, 0
2, 207380, Note_on_c, 0, 58, 55
2, 207384, Note_on_c, 0, 63, 71
2, 207384, Note_on_c, 0, 87, 74
2, 207384, Note_on_c, 0, 56, 45
2, 207388, Note_on_c, 0, 94, 70
2, 207388, Note_on_c, 0, 99, 74
2, 207400, Note_on_c, 0, 52, 50
2, 207512, Control_c, 0, 64, 127
2, 207556, Note_on_c, 0, 94, 0
2, 207564, Note_on_c, 0, 52, 0
2, 207576, Note_on_c, 0, 63, 0
2, 207592, Note_on_c, 0, 87, 0
2, 207596, Note_on_c, 0, 99, 0
2, 207608, Note_on_c, 0, 56, 0
2, 207612, Note_on_c, 0, 58, 0
2, 207680, Note_on_c, 0, 63, 60
2, 207684, Note_on_c, 0, 58, 32
2, 207684, Note_on_c, 0, 100, 63
2, 207688, Note_on_c, 0, 56, 32
2, 207688, Note_on_c, 0, 94, 54
2, 207700, Note_on_c, 0, 52, 48
2, 207704, Note_on_c, 0, 88, 20
2, 207756, Note_on_c, 0, 88, 0
2, 207756, Note_on_c, 0, 100, 0
2, 207772, Note_on_c, 0, 52, 0
2, 207780, Note_on_c, 0, 63, 0
2, 207808, Note_on_c, 0, 58, 0
2, 207808, Note_on_c, 0, 56, 0
2, 207812, Note_on_c, 0, 94, 0
2, 207852, Control_c, 0, 64, 0
2, 207884, Note_on_c, 0, 63, 52
2, 207900, Note_on_c, 0, 58, 27
2, 207900, Note_on_c, 0, 85, 37
2, 207900, Note_on_c, 0, 97, 34
2, 207920, Note_on_c, 0, 92, 29
2, 207920, Note_on_c, 0, 52, 37
2, 207960, Note_on_c, 0, 52, 0
2, 207984, Note_on_c, 0, 63, 0
2, 208008, Note_on_c, 0, 92, 0
2, 208020, Note_on_c, 0, 58, 0
2, 208028, Note_on_c, 0, 85, 0
2, 208032, Note_on_c, 0, 97, 0
2, 208192, Note_on_c, 0, 63, 64
2, 208200, Note_on_c, 0, 96, 62
2, 208204, Note_on_c, 0, 91, 53
2, 208204, Note_on_c, 0, 84, 52
2, 208208, Note_on_c, 0, 52, 61
2, 208208, Note_on_c, 0, 58, 43
2, 208288, Note_on_c, 0, 96, 0
2, 208308, Note_on_c, 0, 52, 0
2, 208324, Note_on_c, 0, 84, 0
2, 208336, Note_on_c, 0, 63, 0
2, 208336, Note_on_c, 0, 91, 0
2, 208348, Note_on_c, 0, 58, 0
2, 208488, Control_c, 0, 64, 127
2, 208492, Note_on_c, 0, 63, 52
2, 208504, Note_on_c, 0, 94, 54
2, 208508, Note_on_c, 0, 82, 51
2, 208512, Note_on_c, 0, 58, 34
2, 208520, Note_on_c, 0, 52, 43
2, 208612, Note_on_c, 0, 52, 0
2, 208620, Note_on_c, 0, 63, 0
2, 208628, Note_on_c, 0, 94, 0
2, 208636, Note_on_c, 0, 82, 0
2, 208652, Note_on_c, 0, 58, 0
2, 208744, Control_c, 0, 64, 0
2, 208808, Note_on_c, 0, 63, 55
2, 208812, Note_on_c, 0, 92, 58
2, 208812, Note_on_c, 0, 80, 46
2, 208848, Control_c, 0, 64, 127
2, 208920, Note_on_c, 0, 63, 0
2, 208980, Note_on_c, 0, 80, 0
2, 208984, Note_on_c, 0, 92, 0
2, 209120, Note_on_c, 0, 63, 51
2, 209124, Note_on_c, 0, 57, 55
2, 209124, Note_on_c, 0, 67, 59
2, 209128, Note_on_c, 0, 93, 64
2, 209132, Note_on_c, 0, 81, 58
2, 209140, Note_on_c, 0, 86, 59
2, 209144, Control_c, 0, 64, 0
2, 209272, Note_on_c, 0, 67, 0
2, 209280, Note_on_c, 0, 93, 0
2, 209296, Note_on_c, 0, 57, 0
2, 209304, Note_on_c, 0, 63, 0
2, 209304, Note_on_c, 0, 81, 0
2, 209304, Note_on_c, 0, 86, 0
2, 209448, Note_on_c, 0, 90, 69
2, 209448, Note_on_c, 0, 63, 44
2, 209452, Note_on_c, 0, 67, 51
2, 209452, Note_on_c, 0, 57, 53
2, 209484, Control_c, 0, 64, 127
2, 209608, Note_on_c, 0, 90, 0
2, 209616, Note_on_c, 0, 57, 0
2, 209616, Note_on_c, 0, 67, 0
2, 209648, Note_on_c, 0, 63, 0
2, 209744, Control_c, 0, 64, 0
2, 209788, Note_on_c, 0, 89, 72
2, 209792, Note_on_c, 0, 63, 46
2, 209800, Note_on_c, 0, 57, 55
2, 209800, Note_on_c, 0, 67, 50
2, 209880, Note_on_c, 0, 67, 0
2, 209884, Control_c, 0, 64, 127
2, 209900, Note_on_c, 0, 57, 0
2, 209932, Note_on_c, 0, 63, 0
2, 209972, Note_on_c, 0, 89, 0
2, 210124, Note_on_c, 0, 87, 68
2, 210124, Control_c, 0, 64, 0
2, 210132, Note_on_c, 0, 57, 55
2, 210132, Note_on_c, 0, 63, 48
2, 210140, Note_on_c, 0, 67, 46
2, 210200, Note_on_c, 0, 67, 0
2, 210236, Note_on_c, 0, 57, 0
2, 210276, Note_on_c, 0, 63, 0
2, 210288, Note_on_c, 0, 87, 0
2, 210424, Note_on_c, 0, 86, 55
2, 210444, Note_on_c, 0, 57, 55
2, 210448, Note_on_c, 0, 63, 47
2, 210460, Control_c, 0, 64, 127
2, 210460, Note_on_c, 0, 67, 41
2, 210508, Note_on_c, 0, 67, 0
2, 210544, Note_on_c, 0, 57, 0
2, 210572, Note_on_c, 0, 63, 0
2, 210588, Note_on_c, 0, 86, 0
2, 210684, Control_c, 0, 64, 0
2, 210748, Note_on_c, 0, 63, 45
2, 210748, Note_on_c, 0, 57, 53
2, 210752, Note_on_c, 0, 81, 57
2, 210772, Note_on_c, 0, 67, 29
2, 210784, Control_c, 0, 64, 127
2, 210804, Note_on_c, 0, 67, 0
2, 210840, Note_on_c, 0, 81, 0
2, 210876, Note_on_c, 0, 63, 0
2, 210900, Note_on_c, 0, 57, 0
2, 211052, Note_on_c, 0, 62, 54
2, 211060, Note_on_c, 0, 60, 41
2, 211064, Note_on_c, 0, 84, 100
2, 211064, Note_on_c, 0, 65, 59
2, 211080, Note_on_c, 0, 55, 38
2, 211092, Control_c, 0, 64, 0
2, 211424, Note_on_c, 0, 83, 52
2, 211464, Note_on_c, 0, 84, 0
2, 211472, Note_on_c, 0, 62, 0
2, 211484, Note_on_c, 0, 82, 46
2, 211524, Note_on_c, 0, 83, 0
2, 211532, Note_on_c, 0, 60, 0
2, 211564, Note_on_c, 0, 82, 0
2, 211580, Control_c, 0, 64, 127
2, 211584, Note_on_c, 0, 81, 44
2, 211592, Note_on_c, 0, 65, 0
2, 211608, Control_c, 0, 64, 0
2, 211640, Note_on_c, 0, 55, 0
2, 211708, Note_on_c, 0, 77, 45
2, 211712, Note_on_c, 0, 81, 0
2, 211728, Note_on_c, 0, 78, 25
2, 211748, Note_on_c, 0, 77, 0
2, 211756, Note_on_c, 0, 78, 0
2, 212008, Note_on_c, 0, 61, 45
2, 212012, Note_on_c, 0, 60, 50
2, 212012, Note_on_c, 0, 73, 69
2, 212020, Note_on_c, 0, 65, 52
2, 212028, Note_on_c, 0, 55, 44
2, 212180, Note_on_c, 0, 65, 0
2, 212200, Note_on_c, 0, 61, 0
2, 212204, Note_on_c, 0, 73, 0
2, 212264, Note_on_c, 0, 65, 32
2, 212268, Note_on_c, 0, 61, 13
2, 212272, Note_on_c, 0, 72, 34
2, 212388, Note_on_c, 0, 65, 0
2, 212412, Note_on_c, 0, 61, 0
2, 212412, Note_on_c, 0, 55, 0
2, 212440, Note_on_c, 0, 60, 0
2, 212484, Note_on_c, 0, 72, 0
2, 212544, Note_on_c, 0, 60, 33
2, 212548, Note_on_c, 0, 61, 30
2, 212548, Note_on_c, 0, 70, 44
2, 212560, Note_on_c, 0, 65, 39
2, 212620, Note_on_c, 0, 65, 0
2, 212656, Note_on_c, 0, 70, 0
2, 212764, Note_on_c, 0, 69, 26
2, 212852, Control_c, 0, 64, 127
2, 212872, Note_on_c, 0, 60, 0
2, 212916, Note_on_c, 0, 61, 0
2, 212948, Note_on_c, 0, 69, 0
2, 213020, Note_on_c, 0, 70, 49
2, 213112, Note_on_c, 0, 70, 0
2, 213112, Control_c, 0, 64, 0
2, 213184, Note_on_c, 0, 56, 32
2, 213184, Note_on_c, 0, 71, 52
2, 213200, Note_on_c, 0, 68, 32
2, 213200, Note_on_c, 0, 62, 22
2, 213260, Control_c, 0, 64, 127
2, 213372, Note_on_c, 0, 62, 0
2, 213416, Note_on_c, 0, 71, 0
2, 213424, Note_on_c, 0, 68, 0
2, 213468, Note_on_c, 0, 72, 60
2, 213480, Note_on_c, 0, 62, 46
2, 213480, Note_on_c, 0, 57, 57
2, 213492, Note_on_c, 0, 67, 57
2, 213504, Note_on_c, 0, 71, 24
2, 213536, Note_on_c, 0, 71, 0
2, 213548, Note_on_c, 0, 62, 0
2, 213556, Note_on_c, 0, 72, 0
2, 213564, Control_c, 0, 64, 0
2, 213584, Note_on_c, 0, 67, 0
2, 213628, Note_on_c, 0, 57, 0
2, 213632, Note_on_c, 0, 56, 0
2, 213660, Note_on_c, 0, 60, 55
2, 213668, Note_on_c, 0, 76, 45
2, 213672, Note_on_c, 0, 74, 52
2, 213700, Note_on_c, 0, 74, 0
2, 213748, Note_on_c, 0, 76, 0
2, 213812, Note_on_c, 0, 60, 0
2, 213940, Note_on_c, 0, 79, 57
2, 213944, Note_on_c, 0, 62, 52
2, 213964, Control_c, 0, 64, 127
2, 213972, Note_on_c, 0, 62, 0
2, 213972, Note_on_c, 0, 78, 30
2, 213992, Note_on_c, 0, 79, 0
2, 214024, Control_c, 0, 64, 0
2, 214036, Note_on_c, 0, 78, 0
2, 214124, Note_on_c, 0, 80, 56
2, 214124, Note_on_c, 0, 53, 29
2, 214128, Note_on_c, 0, 64, 41
2, 214128, Note_on_c, 0, 68, 55
2, 214132, Note_on_c, 0, 59, 19
2, 214152, Note_on_c, 0, 75, 26
2, 214168, Note_on_c, 0, 64, 0
2, 214184, Note_on_c, 0, 75, 0
2, 214188, Note_on_c, 0, 53, 0
2, 214192, Note_on_c, 0, 80, 0
2, 214192, Note_on_c, 0, 68, 0
2, 214200, Note_on_c, 0, 59, 0
2, 214240, Note_on_c, 0, 53, 25
2, 214244, Note_on_c, 0, 59, 32
2, 214244, Note_on_c, 0, 64, 44
2, 214260, Note_on_c, 0, 81, 58
2, 214264, Note_on_c, 0, 69, 53
2, 214284, Note_on_c, 0, 75, 18
2, 214364, Note_on_c, 0, 81, 0
2, 214368, Note_on_c, 0, 75, 0
2, 214372, Note_on_c, 0, 64, 0
2, 214372, Note_on_c, 0, 53, 0
2, 214392, Control_c, 0, 64, 127
2, 214416, Note_on_c, 0, 69, 0
2, 214472, Note_on_c, 0, 59, 0
2, 214472, Control_c, 0, 64, 0
2, 214564, Note_on_c, 0, 59, 43
2, 214568, Note_on_c, 0, 63, 57
2, 214580, Note_on_c, 0, 53, 40
2, 214584, Control_c, 0, 64, 127
2, 214588, Note_on_c, 0, 56, 29
2, 214696, Note_on_c, 0, 59, 0
2, 214760, Note_on_c, 0, 53, 0
2, 214780, Note_on_c, 0, 63, 0
2, 214832, Note_on_c, 0, 56, 0
2, 214888, Note_on_c, 0, 62, 55
2, 214908, Note_on_c, 0, 57, 49
2, 214912, Control_c, 0, 64, 0
2, 214920, Note_on_c, 0, 52, 28
2, 215232, Note_on_c, 0, 72, 71
2, 215480, Note_on_c, 0, 72, 0
2, 215512, Note_on_c, 0, 62, 0
2, 215548, Note_on_c, 0, 71, 67
2, 215552, Note_on_c, 0, 57, 0
2, 215608, Note_on_c, 0, 52, 0
2, 215800, Note_on_c, 0, 71, 0
2, 215852, Note_on_c, 0, 67, 64
2, 215852, Note_on_c, 0, 54, 57
2, 215864, Note_on_c, 0, 55, 63
2, 215916, Note_on_c, 0, 54, 0
2, 216172, Note_on_c, 0, 67, 0
2, 216180, Note_on_c, 0, 64, 49
2, 216188, Control_c, 0, 64, 127
2, 216272, Note_on_c, 0, 64, 0
2, 216456, Note_on_c, 0, 55, 0
2, 216472, Control_c, 0, 64, 0
2, 216492, Note_on_c, 0, 59, 57
2, 216500, Control_c, 0, 64, 127
2, 216724, Note_on_c, 0, 59, 0
2, 216820, Note_on_c, 0, 58, 53
2, 216824, Control_c, 0, 64, 0
2, 216824, Note_on_c, 0, 51, 37
2, 216832, Note_on_c, 0, 41, 44
2, 217372, Note_on_c, 0, 58, 0
2, 217432, Note_on_c, 0, 41, 0
2, 217464, Note_on_c, 0, 60, 60
2, 217472, Note_on_c, 0, 51, 0
2, 217536, Note_on_c, 0, 60, 0
2, 217932, Note_on_c, 0, 70, 51
2, 217944, Note_on_c, 0, 58, 32
2, 217944, Note_on_c, 0, 63, 38
2, 217948, Note_on_c, 0, 60, 40
2, 217952, Note_on_c, 0, 67, 40
2, 218208, Note_on_c, 0, 60, 0
2, 218224, Note_on_c, 0, 70, 0
2, 218228, Note_on_c, 0, 63, 0
2, 218236, Note_on_c, 0, 67, 0
2, 218264, Note_on_c, 0, 58, 0
2, 218332, Note_on_c, 0, 56, 21
2, 218412, Note_on_c, 0, 58, 44
2, 218420, Note_on_c, 0, 70, 52
2, 218424, Note_on_c, 0, 63, 43
2, 218428, Note_on_c, 0, 67, 46
2, 218440, Note_on_c, 0, 60, 43
2, 218460, Note_on_c, 0, 56, 0
2, 218612, Note_on_c, 0, 67, 0
2, 218624, Note_on_c, 0, 58, 0
2, 218640, Note_on_c, 0, 70, 0
2, 218684, Note_on_c, 0, 63, 0
2, 218692, Note_on_c, 0, 60, 0
2, 219288, Note_on_c, 0, 51, 31
2, 219344, Note_on_c, 0, 53, 36
2, 219348, Note_on_c, 0, 51, 0
2, 219364, Note_on_c, 0, 56, 44
2, 219364, Note_on_c, 0, 67, 58
2, 219368, Note_on_c, 0, 60, 61
2, 219380, Note_on_c, 0, 55, 58
2, 219380, Note_on_c, 0, 62, 49
2, 219392, Note_on_c, 0, 53, 0
2, 219640, Note_on_c, 0, 55, 0
2, 219668, Note_on_c, 0, 56, 0
2, 219668, Note_on_c, 0, 62, 0
2, 219672, Note_on_c, 0, 60, 0
2, 219684, Note_on_c, 0, 67, 0
2, 219844, Note_on_c, 0, 56, 47
2, 219848, Note_on_c, 0, 53, 45
2, 219852, Note_on_c, 0, 65, 54
2, 219864, Note_on_c, 0, 60, 49
2, 219888, Note_on_c, 0, 62, 33
2, 219960, Note_on_c, 0, 65, 0
2, 219980, Note_on_c, 0, 62, 0
2, 219992, Note_on_c, 0, 60, 0
2, 220012, Note_on_c, 0, 53, 0
2, 220036, Note_on_c, 0, 56, 0
2, 220164, Note_on_c, 0, 52, 49
2, 220172, Note_on_c, 0, 64, 62
2, 220184, Note_on_c, 0, 59, 53
2, 220188, Note_on_c, 0, 55, 42
2, 220312, Note_on_c, 0, 52, 0
2, 220328, Note_on_c, 0, 48, 40
2, 220540, Note_on_c, 0, 64, 0
2, 220548, Note_on_c, 0, 48, 0
2, 220556, Note_on_c, 0, 55, 0
2, 220572, Note_on_c, 0, 59, 0
2, 220644, Note_on_c, 0, 41, 57
2, 220772, Note_on_c, 0, 41, 0
2, 220792, Note_on_c, 0, 51, 54
2, 220812, Note_on_c, 0, 56, 51
2, 220820, Note_on_c, 0, 63, 51
2, 220820, Note_on_c, 0, 60, 53
2, 220832, Note_on_c, 0, 53, 43
2, 220892, Note_on_c, 0, 53, 0
2, 220952, Note_on_c, 0, 56, 0
2, 220952, Note_on_c, 0, 51, 0
2, 220952, Note_on_c, 0, 60, 0
2, 220988, Note_on_c, 0, 63, 0
2, 221140, Note_on_c, 0, 67, 69
2, 221148, Note_on_c, 0, 56, 68
2, 221148, Note_on_c, 0, 60, 69
2, 221152, Note_on_c, 0, 55, 58
2, 221152, Note_on_c, 0, 63, 55
2, 221272, Note_on_c, 0, 67, 0
2, 221276, Note_on_c, 0, 56, 0
2, 221292, Note_on_c, 0, 60, 0
2, 221296, Note_on_c, 0, 55, 0
2, 221312, Note_on_c, 0, 63, 0
2, 221332, Note_on_c, 0, 53, 33
2, 221608, Note_on_c, 0, 66, 70
2, 221620, Note_on_c, 0, 70, 67
2, 221624, Note_on_c, 0, 56, 57
2, 221628, Note_on_c, 0, 62, 64
2, 221656, Note_on_c, 0, 53, 0
2, 221720, Note_on_c, 0, 62, 0
2, 221732, Note_on_c, 0, 66, 0
2, 221740, Note_on_c, 0, 70, 0
2, 221768, Note_on_c, 0, 56, 0
2, 221860, Note_on_c, 0, 74, 82
2, 221864, Note_on_c, 0, 67, 74
2, 221864, Note_on_c, 0, 56, 57
2, 221872, Note_on_c, 0, 62, 61
2, 221888, Note_on_c, 0, 71, 30
2, 222060, Note_on_c, 0, 71, 0
2, 222104, Note_on_c, 0, 67, 0
2, 222108, Note_on_c, 0, 56, 0
2, 222120, Note_on_c, 0, 74, 0
2, 222132, Note_on_c, 0, 62, 0
2, 222248, Note_on_c, 0, 56, 54
2, 222252, Note_on_c, 0, 66, 49
2, 222260, Note_on_c, 0, 62, 49
2, 222264, Note_on_c, 0, 71, 51
2, 222268, Note_on_c, 0, 46, 39
2, 222360, Note_on_c, 0, 66, 0
2, 222372, Note_on_c, 0, 67, 38
2, 222404, Note_on_c, 0, 67, 0
2, 222428, Note_on_c, 0, 71, 0
2, 222444, Note_on_c, 0, 62, 0
2, 222492, Note_on_c, 0, 56, 0
2, 222492, Note_on_c, 0, 46, 0
2, 222572, Note_on_c, 0, 59, 64
2, 222572, Note_on_c, 0, 67, 61
2, 222584, Note_on_c, 0, 62, 57
2, 222588, Note_on_c, 0, 55, 56
2, 222588, Note_on_c, 0, 64, 51
2, 222600, Note_on_c, 0, 48, 48
2, 222832, Control_c, 0, 64, 127
2, 222924, Note_on_c, 0, 59, 0
2, 222972, Note_on_c, 0, 62, 0
2, 222992, Note_on_c, 0, 48, 0
2, 223008, Note_on_c, 0, 64, 0
2, 223012, Note_on_c, 0, 67, 0
2, 223016, Note_on_c, 0, 55, 0
2, 223204, Control_c, 0, 64, 0
2, 223212, Note_on_c, 0, 62, 55
2, 223224, Note_on_c, 0, 52, 28
2, 223228, Note_on_c, 0, 57, 44
2, 223228, Note_on_c, 0, 67, 40
2, 223228, Note_on_c, 0, 79, 39
2, 223240, Note_on_c, 0, 62, 0
2, 223240, Note_on_c, 0, 65, 20
2, 223256, Note_on_c, 0, 67, 0
2, 223256, Note_on_c, 0, 79, 0
2, 223256, Note_on_c, 0, 52, 0
2, 223256, Note_on_c, 0, 57, 0
2, 223264, Note_on_c, 0, 65, 0
2, 223540, Note_on_c, 0, 83, 80
2, 223544, Note_on_c, 0, 57, 60
2, 223544, Note_on_c, 0, 62, 61
2, 223544, Note_on_c, 0, 71, 75
2, 223560, Note_on_c, 0, 52, 35
2, 223568, Note_on_c, 0, 71, 0
2, 223568, Note_on_c, 0, 62, 0
2, 223568, Note_on_c, 0, 57, 0
2, 223592, Note_on_c, 0, 52, 0
2, 223600, Note_on_c, 0, 83, 0
2, 223708, Note_on_c, 0, 88, 76
2, 223720, Control_c, 0, 64, 127
2, 223720, Note_on_c, 0, 76, 75
2, 223724, Note_on_c, 0, 57, 69
2, 223724, Note_on_c, 0, 52, 73
2, 223728, Note_on_c, 0, 62, 73
2, 223880, Note_on_c, 0, 62, 0
2, 223892, Note_on_c, 0, 76, 0
2, 223900, Note_on_c, 0, 88, 0
2, 223904, Note_on_c, 0, 52, 0
2, 223928, Note_on_c, 0, 57, 0
2, 224012, Note_on_c, 0, 88, 74
2, 224028, Note_on_c, 0, 76, 52
2, 224044, Note_on_c, 0, 57, 55
2, 224060, Note_on_c, 0, 52, 28
2, 224080, Note_on_c, 0, 76, 0
2, 224084, Note_on_c, 0, 88, 0
2, 224092, Note_on_c, 0, 52, 0
2, 224120, Control_c, 0, 64, 0
2, 224124, Note_on_c, 0, 57, 0
2, 224164, Note_on_c, 0, 52, 38
2, 224188, Note_on_c, 0, 57, 27
2, 224192, Note_on_c, 0, 62, 40
2, 224204, Note_on_c, 0, 71, 48
2, 224212, Note_on_c, 0, 83, 25
2, 224220, Control_c, 0, 64, 127
2, 224228, Note_on_c, 0, 57, 0
2, 224232, Note_on_c, 0, 71, 0
2, 224236, Note_on_c, 0, 62, 0
2, 224256, Note_on_c, 0, 52, 0
2, 224264, Note_on_c, 0, 83, 0
2, 224492, Note_on_c, 0, 54, 56
2, 224500, Note_on_c, 0, 82, 80
2, 224504, Note_on_c, 0, 59, 63
2, 224504, Note_on_c, 0, 94, 80
2, 224508, Note_on_c, 0, 58, 43
2, 224508, Note_on_c, 0, 63, 62
2, 224528, Control_c, 0, 64, 0
2, 224656, Note_on_c, 0, 63, 0
2, 224660, Note_on_c, 0, 54, 0
2, 224660, Note_on_c, 0, 82, 0
2, 224664, Note_on_c, 0, 94, 0
2, 224664, Note_on_c, 0, 59, 0
2, 224676, Note_on_c, 0, 58, 0
2, 224688, Control_c, 0, 64, 127
2, 224752, Note_on_c, 0, 94, 67
2, 224760, Note_on_c, 0, 63, 55
2, 224764, Note_on_c, 0, 82, 60
2, 224768, Note_on_c, 0, 54, 51
2, 224768, Note_on_c, 0, 59, 49
2, 224772, Note_on_c, 0, 58, 26
2, 224788, Note_on_c, 0, 87, 33
2, 224936, Note_on_c, 0, 87, 0
2, 224940, Note_on_c, 0, 63, 0
2, 224944, Note_on_c, 0, 94, 0
2, 224948, Note_on_c, 0, 59, 0
2, 224948, Note_on_c, 0, 82, 0
2, 224956, Note_on_c, 0, 54, 0
2, 224960, Note_on_c, 0, 58, 0
2, 225040, Note_on_c, 0, 92, 47
2, 225040, Note_on_c, 0, 54, 37
2, 225044, Note_on_c, 0, 63, 44
2, 225048, Note_on_c, 0, 80, 38
2, 225052, Note_on_c, 0, 59, 33
2, 225060, Note_on_c, 0, 58, 21
2, 225068, Note_on_c, 0, 87, 28
2, 225084, Control_c, 0, 64, 0
2, 225092, Note_on_c, 0, 59, 0
2, 225092, Note_on_c, 0, 80, 0
2, 225096, Note_on_c, 0, 63, 0
2, 225100, Note_on_c, 0, 87, 0
2, 225124, Note_on_c, 0, 58, 0
2, 225132, Note_on_c, 0, 92, 0
2, 225144, Note_on_c, 0, 54, 0
2, 225208, Note_on_c, 0, 54, 46
2, 225212, Note_on_c, 0, 63, 43
2, 225224, Note_on_c, 0, 94, 70
2, 225224, Note_on_c, 0, 82, 55
2, 225228, Note_on_c, 0, 58, 29
2, 225232, Note_on_c, 0, 59, 49
2, 225244, Note_on_c, 0, 87, 49
2, 225284, Control_c, 0, 64, 127
2, 225324, Note_on_c, 0, 94, 0
2, 225328, Note_on_c, 0, 82, 0
2, 225336, Note_on_c, 0, 63, 0
2, 225364, Note_on_c, 0, 59, 0
2, 225368, Note_on_c, 0, 87, 0
2, 225396, Note_on_c, 0, 58, 0
2, 225480, Note_on_c, 0, 80, 54
2, 225488, Note_on_c, 0, 58, 25
2, 225492, Note_on_c, 0, 87, 39
2, 225504, Note_on_c, 0, 63, 20
2, 225504, Note_on_c, 0, 59, 44
2, 225524, Note_on_c, 0, 87, 0
2, 225528, Note_on_c, 0, 63, 0
2, 225540, Note_on_c, 0, 80, 0
2, 225548, Note_on_c, 0, 59, 0
2, 225560, Note_on_c, 0, 54, 0
2, 225568, Control_c, 0, 64, 0
2, 225592, Note_on_c, 0, 58, 0
2, 225640, Note_on_c, 0, 63, 66
2, 225644, Note_on_c, 0, 94, 73
2, 225644, Note_on_c, 0, 58, 18
2, 225648, Note_on_c, 0, 59, 51
2, 225648, Note_on_c, 0, 87, 60
2, 225652, Note_on_c, 0, 82, 52
2, 225668, Note_on_c, 0, 53, 52
2, 225740, Note_on_c, 0, 87, 0
2, 225820, Control_c, 0, 64, 127
2, 225824, Note_on_c, 0, 82, 0
2, 225848, Note_on_c, 0, 83, 38
2, 225860, Note_on_c, 0, 88, 28
2, 225864, Note_on_c, 0, 91, 1
2, 225908, Note_on_c, 0, 83, 0
2, 225920, Note_on_c, 0, 53, 0
2, 225944, Note_on_c, 0, 63, 0
2, 225948, Note_on_c, 0, 59, 0
2, 225956, Note_on_c, 0, 94, 0
2, 225968, Note_on_c, 0, 88, 0
2, 225968, Note_on_c, 0, 58, 0
2, 226008, Note_on_c, 0, 91, 0
2, 226044, Control_c, 0, 64, 0
2, 226064, Note_on_c, 0, 63, 56
2, 226080, Note_on_c, 0, 94, 59
2, 226080, Note_on_c, 0, 59, 56
2, 226084, Note_on_c, 0, 58, 28
2, 226088, Note_on_c, 0, 82, 51
2, 226092, Note_on_c, 0, 53, 27
2, 226108, Note_on_c, 0, 88, 32
2, 226148, Control_c, 0, 64, 127
2, 226196, Note_on_c, 0, 88, 0
2, 226204, Note_on_c, 0, 59, 0
2, 226216, Note_on_c, 0, 58, 0
2, 226252, Note_on_c, 0, 53, 0
2, 226256, Note_on_c, 0, 82, 0
2, 226268, Note_on_c, 0, 94, 0
2, 226268, Note_on_c, 0, 63, 0
2, 226392, Note_on_c, 0, 92, 58
2, 226404, Note_on_c, 0, 62, 54
2, 226404, Note_on_c, 0, 80, 48
2, 226408, Note_on_c, 0, 58, 35
2, 226412, Note_on_c, 0, 87, 47
2, 226424, Note_on_c, 0, 51, 21
2, 226432, Note_on_c, 0, 55, 44
2, 226468, Control_c, 0, 64, 0
2, 226540, Note_on_c, 0, 87, 0
2, 226540, Note_on_c, 0, 92, 0
2, 226548, Note_on_c, 0, 80, 0
2, 226588, Note_on_c, 0, 62, 0
2, 226628, Note_on_c, 0, 58, 0
2, 226632, Note_on_c, 0, 91, 31
2, 226632, Note_on_c, 0, 79, 44
2, 226644, Control_c, 0, 64, 127
2, 226672, Note_on_c, 0, 86, 25
2, 226672, Note_on_c, 0, 62, 22
2, 226700, Note_on_c, 0, 58, 6
2, 226712, Note_on_c, 0, 91, 0
2, 226744, Note_on_c, 0, 79, 0
2, 226752, Note_on_c, 0, 86, 0
2, 226756, Note_on_c, 0, 62, 0
2, 226784, Note_on_c, 0, 58, 0
2, 226788, Note_on_c, 0, 51, 0
2, 226796, Note_on_c, 0, 55, 0
2, 226892, Note_on_c, 0, 58, 52
2, 226904, Note_on_c, 0, 51, 33
2, 226908, Note_on_c, 0, 62, 28
2, 226908, Note_on_c, 0, 80, 60
2, 226912, Note_on_c, 0, 92, 62
2, 226924, Note_on_c, 0, 87, 49
2, 226928, Note_on_c, 0, 51, 0
2, 226940, Note_on_c, 0, 62, 0
2, 226964, Note_on_c, 0, 58, 0
2, 226968, Control_c, 0, 64, 0
2, 226972, Note_on_c, 0, 80, 0
2, 226992, Note_on_c, 0, 92, 0
2, 226996, Note_on_c, 0, 87, 0
2, 227064, Note_on_c, 0, 60, 55
2, 227084, Note_on_c, 0, 94, 58
2, 227088, Note_on_c, 0, 82, 40
2, 227088, Note_on_c, 0, 56, 29
2, 227112, Note_on_c, 0, 87, 25
2, 227140, Note_on_c, 0, 87, 0
2, 227144, Note_on_c, 0, 60, 0
2, 227168, Note_on_c, 0, 94, 0
2, 227168, Note_on_c, 0, 82, 0
2, 227200, Note_on_c, 0, 56, 0
2, 227388, Note_on_c, 0, 63, 62
2, 227392, Note_on_c, 0, 60, 59
2, 227392, Note_on_c, 0, 94, 66
2, 227392, Note_on_c, 0, 82, 57
2, 227400, Note_on_c, 0, 87, 57
2, 227404, Note_on_c, 0, 53, 35
2, 227412, Note_on_c, 0, 56, 32
2, 227416, Note_on_c, 0, 94, 0
2, 227424, Note_on_c, 0, 82, 0
2, 227428, Note_on_c, 0, 87, 0
2, 227436, Note_on_c, 0, 60, 0
2, 227436, Note_on_c, 0, 63, 0
2, 227436, Note_on_c, 0, 53, 0
2, 227480, Note_on_c, 0, 56, 0
2, 227864, Note_on_c, 0, 58, 58
2, 227868, Note_on_c, 0, 62, 69
2, 227868, Note_on_c, 0, 51, 54
2, 227880, Note_on_c, 0, 55, 50
2, 227896, Note_on_c, 0, 51, 0
2, 227896, Note_on_c, 0, 62, 0
2, 227908, Note_on_c, 0, 55, 0
2, 227944, Note_on_c, 0, 58, 0
2, 228040, Control_c, 0, 64, 127
2, 228352, Note_on_c, 0, 61, 62
2, 228352, Note_on_c, 0, 65, 76
2, 228352, Note_on_c, 0, 58, 60
2, 228364, Note_on_c, 0, 54, 60
2, 228380, Note_on_c, 0, 64, 37
2, 228408, Note_on_c, 0, 64, 0
2, 228408, Control_c, 0, 64, 0
2, 228444, Note_on_c, 0, 65, 0
2, 228500, Note_on_c, 0, 61, 0
2, 228528, Control_c, 0, 64, 127
2, 228568, Note_on_c, 0, 54, 0
2, 228604, Note_on_c, 0, 58, 0
2, 228648, Note_on_c, 0, 61, 58
2, 228652, Note_on_c, 0, 65, 69
2, 228664, Note_on_c, 0, 58, 59
2, 228672, Note_on_c, 0, 54, 48
2, 228864, Note_on_c, 0, 54, 0
2, 228868, Note_on_c, 0, 61, 0
2, 228908, Note_on_c, 0, 58, 0
2, 228924, Note_on_c, 0, 65, 0
2, 228964, Note_on_c, 0, 63, 66
2, 228968, Note_on_c, 0, 54, 53
2, 228968, Note_on_c, 0, 58, 47
2, 228972, Control_c, 0, 64, 0
2, 228972, Note_on_c, 0, 66, 66
2, 228988, Note_on_c, 0, 61, 32
2, 229052, Control_c, 0, 64, 127
2, 229140, Note_on_c, 0, 54, 0
2, 229172, Note_on_c, 0, 61, 0
2, 229176, Note_on_c, 0, 63, 0
2, 229208, Note_on_c, 0, 58, 0
2, 229220, Note_on_c, 0, 66, 0
2, 229280, Note_on_c, 0, 68, 65
2, 229284, Note_on_c, 0, 65, 73
2, 229292, Note_on_c, 0, 60, 61
2, 229300, Control_c, 0, 64, 0
2, 229304, Note_on_c, 0, 58, 34
2, 229308, Note_on_c, 0, 54, 32
2, 229440, Control_c, 0, 64, 127
2, 229492, Note_on_c, 0, 54, 0
2, 229492, Note_on_c, 0, 60, 0
2, 229496, Note_on_c, 0, 58, 0
2, 229520, Note_on_c, 0, 68, 0
2, 229528, Note_on_c, 0, 65, 0
2, 229584, Note_on_c, 0, 66, 66
2, 229584, Note_on_c, 0, 70, 68
2, 229600, Note_on_c, 0, 54, 48
2, 229604, Note_on_c, 0, 58, 46
2, 229612, Note_on_c, 0, 60, 43
2, 229716, Note_on_c, 0, 66, 0
2, 229732, Note_on_c, 0, 60, 0
2, 229744, Note_on_c, 0, 70, 0
2, 229756, Note_on_c, 0, 58, 0
2, 229772, Note_on_c, 0, 54, 0
2, 229884, Control_c, 0, 64, 0
2, 229904, Note_on_c, 0, 54, 56
2, 229920, Note_on_c, 0, 72, 57
2, 229924, Note_on_c, 0, 58, 37
2, 229932, Note_on_c, 0, 60, 38
2, 229948, Control_c, 0, 64, 127
2, 229980, Note_on_c, 0, 60, 0
2, 230004, Note_on_c, 0, 72, 0
2, 230016, Note_on_c, 0, 58, 0
2, 230048, Note_on_c, 0, 54, 0
2, 230224, Note_on_c, 0, 60, 54
2, 230224, Note_on_c, 0, 79, 66
2, 230228, Note_on_c, 0, 72, 53
2, 230232, Note_on_c, 0, 67, 50
2, 230232, Note_on_c, 0, 64, 59
2, 230232, Note_on_c, 0, 76, 56
2, 230240, Control_c, 0, 64, 0
2, 230244, Note_on_c, 0, 53, 39
2, 230248, Note_on_c, 0, 57, 49
2, 230380, Note_on_c, 0, 64, 0
2, 230384, Control_c, 0, 64, 127
2, 230400, Note_on_c, 0, 67, 0
2, 230404, Note_on_c, 0, 53, 0
2, 230408, Note_on_c, 0, 72, 0
2, 230420, Note_on_c, 0, 57, 0
2, 230428, Note_on_c, 0, 60, 0
2, 230444, Note_on_c, 0, 79, 0
2, 230452, Note_on_c, 0, 76, 0
2, 230548, Note_on_c, 0, 81, 69
2, 230552, Note_on_c, 0, 60, 39
2, 230552, Note_on_c, 0, 69, 64
2, 230552, Note_on_c, 0, 64, 57
2, 230560, Note_on_c, 0, 76, 56
2, 230564, Note_on_c, 0, 57, 46
2, 230564, Note_on_c, 0, 53, 36
2, 230676, Note_on_c, 0, 69, 0
2, 230680, Note_on_c, 0, 64, 0
2, 230688, Note_on_c, 0, 53, 0
2, 230708, Note_on_c, 0, 76, 0
2, 230712, Note_on_c, 0, 57, 0
2, 230712, Note_on_c, 0, 81, 0
2, 230724, Note_on_c, 0, 60, 0
2, 230812, Control_c, 0, 64, 0
2, 230872, Note_on_c, 0, 77, 61
2, 230880, Note_on_c, 0, 60, 52
2, 230880, Note_on_c, 0, 83, 68
2, 230884, Note_on_c, 0, 71, 58
2, 230888, Note_on_c, 0, 64, 58
2, 230888, Note_on_c, 0, 57, 46
2, 230888, Note_on_c, 0, 53, 52
2, 230920, Control_c, 0, 64, 127
2, 230976, Note_on_c, 0, 64, 0
2, 230996, Note_on_c, 0, 71, 0
2, 231000, Note_on_c, 0, 60, 0
2, 231020, Note_on_c, 0, 77, 0
2, 231028, Note_on_c, 0, 53, 0
2, 231032, Note_on_c, 0, 57, 0
2, 231044, Note_on_c, 0, 83, 0
2, 231192, Control_c, 0, 64, 0
2, 231204, Note_on_c, 0, 79, 69
2, 231204, Note_on_c, 0, 84, 76
2, 231204, Note_on_c, 0, 59, 66
2, 231208, Note_on_c, 0, 72, 60
2, 231208, Note_on_c, 0, 64, 66
2, 231208, Note_on_c, 0, 53, 65
2, 231280, Note_on_c, 0, 64, 0
2, 231320, Note_on_c, 0, 72, 0
2, 231336, Note_on_c, 0, 53, 0
2, 231348, Note_on_c, 0, 79, 0
2, 231348, Control_c, 0, 64, 127
2, 231356, Note_on_c, 0, 59, 0
2, 231356, Note_on_c, 0, 84, 0
2, 231500, Note_on_c, 0, 81, 70
2, 231500, Note_on_c, 0, 86, 71
2, 231504, Note_on_c, 0, 74, 69
2, 231504, Note_on_c, 0, 59, 66
2, 231508, Note_on_c, 0, 64, 67
2, 231512, Note_on_c, 0, 53, 63
2, 231596, Note_on_c, 0, 74, 0
2, 231616, Note_on_c, 0, 64, 0
2, 231624, Note_on_c, 0, 53, 0
2, 231628, Note_on_c, 0, 81, 0
2, 231648, Note_on_c, 0, 86, 0
2, 231668, Note_on_c, 0, 59, 0
2, 231764, Control_c, 0, 64, 0
2, 231804, Note_on_c, 0, 64, 71
2, 231804, Note_on_c, 0, 59, 57
2, 231808, Note_on_c, 0, 53, 62
2, 231812, Note_on_c, 0, 84, 75
2, 231812, Note_on_c, 0, 89, 72
2, 231820, Note_on_c, 0, 77, 69
2, 231852, Control_c, 0, 64, 127
2, 231864, Note_on_c, 0, 77, 0
2, 231872, Note_on_c, 0, 64, 0
2, 231876, Note_on_c, 0, 59, 0
2, 231884, Note_on_c, 0, 84, 0
2, 231900, Note_on_c, 0, 89, 0
2, 231916, Note_on_c, 0, 53, 0
2, 232068, Control_c, 0, 64, 0
2, 232124, Note_on_c, 0, 58, 69
2, 232128, Note_on_c, 0, 81, 75
2, 232128, Note_on_c, 0, 93, 82
2, 232132, Note_on_c, 0, 62, 75
2, 232132, Note_on_c, 0, 88, 77
2, 232132, Note_on_c, 0, 57, 62
2, 232140, Note_on_c, 0, 53, 61
2, 232256, Note_on_c, 0, 81, 0
2, 232260, Note_on_c, 0, 57, 0
2, 232260, Note_on_c, 0, 53, 0
2, 232264, Note_on_c, 0, 62, 0
2, 232268, Note_on_c, 0, 93, 0
2, 232276, Note_on_c, 0, 88, 0
2, 232296, Note_on_c, 0, 58, 0
2, 232424, Note_on_c, 0, 58, 70
2, 232432, Note_on_c, 0, 57, 64
2, 232432, Note_on_c, 0, 62, 75
2, 232440, Note_on_c, 0, 98, 66
2, 232440, Note_on_c, 0, 96, 64
2, 232440, Note_on_c, 0, 53, 69
2, 232440, Note_on_c, 0, 84, 50
2, 232448, Note_on_c, 0, 91, 33
2, 232448, Note_on_c, 0, 86, 44
2, 232452, Note_on_c, 0, 89, 44
2, 232540, Note_on_c, 0, 91, 0
2, 232556, Note_on_c, 0, 86, 0
2, 232564, Note_on_c, 0, 98, 0
2, 232580, Note_on_c, 0, 89, 0
2, 232616, Note_on_c, 0, 62, 0
2, 232620, Note_on_c, 0, 57, 0
2, 232624, Note_on_c, 0, 53, 0
2, 232628, Note_on_c, 0, 84, 0
2, 232628, Note_on_c, 0, 96, 0
2, 232652, Note_on_c, 0, 58, 0
2, 232784, Note_on_c, 0, 58, 59
2, 232788, Note_on_c, 0, 93, 66
2, 232788, Note_on_c, 0, 57, 55
2, 232792, Note_on_c, 0, 62, 61
2, 232800, Note_on_c, 0, 81, 49
2, 232804, Note_on_c, 0, 53, 48
2, 232804, Note_on_c, 0, 86, 47
2, 232812, Note_on_c, 0, 89, 42
2, 232908, Note_on_c, 0, 86, 0
2, 232912, Note_on_c, 0, 81, 0
2, 232924, Note_on_c, 0, 89, 0
2, 232936, Note_on_c, 0, 62, 0
2, 232952, Note_on_c, 0, 93, 0
2, 232972, Note_on_c, 0, 58, 0
2, 232976, Note_on_c, 0, 53, 0
2, 232980, Note_on_c, 0, 57, 0
2, 233144, Note_on_c, 0, 58, 68
2, 233144, Note_on_c, 0, 84, 87
2, 233148, Note_on_c, 0, 89, 85
2, 233148, Note_on_c, 0, 53, 72
2, 233148, Note_on_c, 0, 62, 73
2, 233152, Note_on_c, 0, 57, 59
2, 233152, Note_on_c, 0, 96, 83
2, 233160, Note_on_c, 0, 93, 68
2, 233196, Note_on_c, 0, 84, 0
2, 233200, Note_on_c, 0, 57, 0
2, 233224, Control_c, 0, 64, 127
2, 233248, Note_on_c, 0, 62, 0
2, 233264, Note_on_c, 0, 58, 0
2, 233268, Note_on_c, 0, 89, 0
2, 233284, Note_on_c, 0, 96, 0
2, 233292, Note_on_c, 0, 84, 54
2, 233300, Note_on_c, 0, 93, 0
2, 233324, Note_on_c, 0, 57, 41
2, 233348, Note_on_c, 0, 53, 0
2, 233348, Note_on_c, 0, 58, 44
2, 233352, Note_on_c, 0, 62, 53
2, 233372, Note_on_c, 0, 96, 48
2, 233380, Note_on_c, 0, 84, 0
2, 233388, Note_on_c, 0, 57, 0
2, 233388, Note_on_c, 0, 93, 43
2, 233404, Note_on_c, 0, 89, 39
2, 233432, Note_on_c, 0, 58, 0
2, 233448, Note_on_c, 0, 89, 0
2, 233452, Note_on_c, 0, 84, 43
2, 233456, Note_on_c, 0, 62, 0
2, 233460, Note_on_c, 0, 96, 0
2, 233472, Note_on_c, 0, 93, 0
2, 233492, Note_on_c, 0, 53, 22
2, 233512, Note_on_c, 0, 57, 31
2, 233568, Note_on_c, 0, 96, 51
2, 233572, Note_on_c, 0, 53, 0
2, 233572, Note_on_c, 0, 58, 35
2, 233592, Note_on_c, 0, 84, 0
2, 233612, Note_on_c, 0, 57, 0
2, 233620, Note_on_c, 0, 58, 0
2, 233668, Note_on_c, 0, 96, 0
2, 233680, Control_c, 0, 64, 0
2, 234152, Note_on_c, 0, 58, 64
2, 234164, Note_on_c, 0, 62, 67
2, 234164, Note_on_c, 0, 53, 62
2, 234168, Note_on_c, 0, 57, 42
2, 234168, Note_on_c, 0, 81, 73
2, 234168, Note_on_c, 0, 86, 75
2, 234172, Note_on_c, 0, 93, 68
2, 234184, Note_on_c, 0, 89, 30
2, 234192, Note_on_c, 0, 81, 0
2, 234196, Note_on_c, 0, 57, 0
2, 234196, Note_on_c, 0, 62, 0
2, 234216, Note_on_c, 0, 89, 0
2, 234220, Note_on_c, 0, 86, 0
2, 234232, Note_on_c, 0, 53, 0
2, 234252, Note_on_c, 0, 93, 0
2, 234256, Note_on_c, 0, 58, 0
2, 234368, Note_on_c, 0, 58, 56
2, 234368, Note_on_c, 0, 89, 68
2, 234368, Note_on_c, 0, 62, 74
2, 234368, Note_on_c, 0, 84, 69
2, 234372, Note_on_c, 0, 96, 64
2, 234380, Note_on_c, 0, 52, 64
2, 234384, Note_on_c, 0, 93, 39
2, 234412, Note_on_c, 0, 93, 0
2, 234412, Note_on_c, 0, 84, 0
2, 234420, Note_on_c, 0, 89, 0
2, 234424, Note_on_c, 0, 96, 0
2, 234432, Note_on_c, 0, 62, 0
2, 234432, Note_on_c, 0, 52, 0
2, 234448, Note_on_c, 0, 58, 0
2, 234820, Note_on_c, 0, 62, 75
2, 234824, Note_on_c, 0, 79, 76
2, 234824, Note_on_c, 0, 91, 74
2, 234824, Note_on_c, 0, 58, 54
2, 234828, Note_on_c, 0, 52, 69
2, 235244, Control_c, 0, 64, 127
2, 235324, Note_on_c, 0, 91, 0
2, 235424, Note_on_c, 0, 79, 0
2, 235632, Note_on_c, 0, 52, 0
2, 235660, Note_on_c, 0, 62, 0
2, 235708, Note_on_c, 0, 58, 0
2, 236168, Control_c, 0, 64, 0
2, 236180, Note_on_c, 0, 72, 78
2, 236184, Note_on_c, 0, 58, 62
2, 236188, Note_on_c, 0, 65, 76
2, 236188, Note_on_c, 0, 69, 82
2, 236192, Note_on_c, 0, 62, 75
2, 236192, Note_on_c, 0, 60, 66
2, 236356, Note_on_c, 0, 62, 0
2, 236364, Note_on_c, 0, 60, 0
2, 236372, Note_on_c, 0, 65, 0
2, 236376, Note_on_c, 0, 69, 0
2, 236388, Note_on_c, 0, 58, 0
2, 236392, Note_on_c, 0, 72, 0
2, 236664, Note_on_c, 0, 58, 54
2, 236664, Note_on_c, 0, 62, 69
2, 236668, Note_on_c, 0, 60, 60
2, 236668, Note_on_c, 0, 72, 69
2, 236668, Note_on_c, 0, 69, 77
2, 236672, Note_on_c, 0, 65, 70
2, 236880, Note_on_c, 0, 60, 0
2, 236892, Note_on_c, 0, 65, 0
2, 236896, Note_on_c, 0, 58, 0
2, 236896, Note_on_c, 0, 62, 0
2, 236900, Note_on_c, 0, 69, 0
2, 236912, Note_on_c, 0, 72, 0
2, 237148, Control_c, 0, 64, 127
2, 237160, Note_on_c, 0, 72, 75
2, 237164, Note_on_c, 0, 69, 75
2, 237164, Note_on_c, 0, 62, 61
2, 237168, Note_on_c, 0, 65, 74
2, 237168, Note_on_c, 0, 58, 44
2, 237184, Note_on_c, 0, 60, 41
2, 237292, Note_on_c, 0, 60, 0
2, 237312, Note_on_c, 0, 62, 0
2, 237340, Note_on_c, 0, 58, 0
2, 237368, Note_on_c, 0, 72, 0
2, 237376, Note_on_c, 0, 69, 0
2, 237380, Note_on_c, 0, 65, 0
2, 237480, Note_on_c, 0, 69, 35
2, 237492, Note_on_c, 0, 58, 34
2, 237544, Note_on_c, 0, 69, 0
2, 237604, Control_c, 0, 64, 0
2, 237628, Note_on_c, 0, 74, 60
2, 237644, Note_on_c, 0, 62, 41
2, 237704, Control_c, 0, 64, 127
2, 237728, Note_on_c, 0, 62, 0
2, 237760, Note_on_c, 0, 58, 0
2, 237832, Note_on_c, 0, 74, 0
2, 237940, Note_on_c, 0, 67, 55
2, 237948, Note_on_c, 0, 64, 46
2, 237964, Note_on_c, 0, 62, 49
2, 237968, Note_on_c, 0, 58, 30
2, 237980, Note_on_c, 0, 52, 38
2, 237984, Control_c, 0, 64, 0
2, 238280, Control_c, 0, 64, 127
2, 238488, Note_on_c, 0, 64, 0
2, 238560, Note_on_c, 0, 67, 0
2, 238884, Note_on_c, 0, 52, 0
2, 238892, Note_on_c, 0, 58, 0
2, 238928, Note_on_c, 0, 84, 100
2, 238968, Note_on_c, 0, 62, 0
2, 239060, Control_c, 0, 64, 0
2, 239120, Note_on_c, 0, 84, 0
2, 239308, Note_on_c, 0, 81, 35
2, 239388, Note_on_c, 0, 81, 0
2, 239440, Note_on_c, 0, 84, 86
2, 239580, Note_on_c, 0, 84, 0
2, 239784, Note_on_c, 0, 81, 26
2, 239828, Note_on_c, 0, 81, 0
2, 239888, Note_on_c, 0, 84, 82
2, 240000, Note_on_c, 0, 63, 30
2, 240004, Note_on_c, 0, 67, 42
2, 240012, Note_on_c, 0, 62, 36
2, 240020, Note_on_c, 0, 57, 34
2, 240036, Note_on_c, 0, 84, 0
2, 240068, Note_on_c, 0, 79, 32
2, 240128, Note_on_c, 0, 80, 30
2, 240160, Note_on_c, 0, 79, 0
2, 240200, Note_on_c, 0, 80, 0
2, 240232, Note_on_c, 0, 81, 24
2, 240344, Note_on_c, 0, 81, 0
2, 240392, Note_on_c, 0, 77, 33
2, 240472, Note_on_c, 0, 77, 0
2, 240520, Note_on_c, 0, 79, 57
2, 240708, Note_on_c, 0, 63, 0
2, 240732, Note_on_c, 0, 67, 0
2, 240892, Note_on_c, 0, 79, 0
2, 240980, Note_on_c, 0, 67, 40
2, 240984, Note_on_c, 0, 77, 41
2, 241032, Note_on_c, 0, 67, 0
2, 241060, Note_on_c, 0, 62, 0
2, 241084, Note_on_c, 0, 77, 0
2, 241120, Note_on_c, 0, 57, 0
2, 241468, Control_c, 0, 64, 127
2, 241864, Control_c, 0, 64, 0
2, 241932, Note_on_c, 0, 65, 52
2, 241940, Note_on_c, 0, 60, 41
2, 241944, Note_on_c, 0, 61, 35
2, 241968, Note_on_c, 0, 83, 25
2, 241972, Note_on_c, 0, 96, 43
2, 241980, Note_on_c, 0, 84, 37
2, 242012, Note_on_c, 0, 83, 0
2, 242100, Note_on_c, 0, 65, 0
2, 242120, Note_on_c, 0, 60, 0
2, 242124, Note_on_c, 0, 61, 0
2, 242132, Note_on_c, 0, 96, 0
2, 242140, Note_on_c, 0, 84, 0
2, 242428, Note_on_c, 0, 60, 50
2, 242432, Note_on_c, 0, 61, 37
2, 242440, Note_on_c, 0, 89, 45
2, 242440, Note_on_c, 0, 65, 56
2, 242444, Note_on_c, 0, 77, 24
2, 242452, Note_on_c, 0, 55, 35
2, 242600, Note_on_c, 0, 60, 0
2, 242604, Note_on_c, 0, 65, 0
2, 242604, Note_on_c, 0, 89, 0
2, 242616, Note_on_c, 0, 55, 0
2, 242624, Note_on_c, 0, 77, 0
2, 242624, Note_on_c, 0, 61, 0
2, 242912, Note_on_c, 0, 55, 64
2, 242920, Note_on_c, 0, 65, 58
2, 242920, Note_on_c, 0, 61, 48
2, 242928, Note_on_c, 0, 77, 64
2, 242932, Note_on_c, 0, 89, 66
2, 242940, Control_c, 0, 64, 127
2, 243072, Note_on_c, 0, 89, 0
2, 243180, Note_on_c, 0, 65, 0
2, 243192, Note_on_c, 0, 77, 0
2, 243248, Note_on_c, 0, 61, 0
2, 243312, Note_on_c, 0, 55, 0
2, 243788, Control_c, 0, 64, 0
2, 243844, Note_on_c, 0, 71, 37
2, 243844, Note_on_c, 0, 59, 38
2, 243844, Note_on_c, 0, 56, 44
2, 243848, Note_on_c, 0, 68, 33
2, 243852, Note_on_c, 0, 64, 41
2, 243888, Control_c, 0, 64, 127
2, 243968, Note_on_c, 0, 71, 0
2, 244056, Note_on_c, 0, 59, 0
2, 244096, Note_on_c, 0, 68, 0
2, 244100, Note_on_c, 0, 64, 0
2, 244148, Note_on_c, 0, 57, 56
2, 244152, Note_on_c, 0, 72, 52
2, 244164, Note_on_c, 0, 71, 40
2, 244192, Note_on_c, 0, 71, 0
2, 244248, Control_c, 0, 64, 0
2, 244252, Note_on_c, 0, 72, 0
2, 244348, Note_on_c, 0, 57, 0
2, 244352, Note_on_c, 0, 56, 0
2, 244364, Note_on_c, 0, 60, 59
2, 244368, Control_c, 0, 64, 127
2, 244372, Note_on_c, 0, 76, 59
2, 244548, Note_on_c, 0, 60, 0
2, 244560, Note_on_c, 0, 76, 0
2, 244648, Note_on_c, 0, 79, 66
2, 244664, Note_on_c, 0, 62, 36
2, 244692, Note_on_c, 0, 62, 0
2, 244728, Note_on_c, 0, 79, 0
2, 244808, Control_c, 0, 64, 0
2, 244840, Note_on_c, 0, 68, 62
2, 244844, Note_on_c, 0, 80, 62
2, 244860, Note_on_c, 0, 59, 31
2, 244860, Note_on_c, 0, 64, 48
2, 244864, Note_on_c, 0, 75, 42
2, 244868, Note_on_c, 0, 53, 26
2, 244940, Control_c, 0, 64, 127
2, 245004, Note_on_c, 0, 64, 0
2, 245012, Note_on_c, 0, 53, 0
2, 245024, Note_on_c, 0, 80, 0
2, 245032, Note_on_c, 0, 68, 0
2, 245032, Note_on_c, 0, 59, 0
2, 245044, Note_on_c, 0, 75, 0
2, 245112, Note_on_c, 0, 59, 40
2, 245112, Note_on_c, 0, 81, 65
2, 245180, Note_on_c, 0, 81, 0
2, 245216, Note_on_c, 0, 59, 0
2, 245224, Control_c, 0, 64, 0
2, 245288, Note_on_c, 0, 71, 52
2, 245300, Note_on_c, 0, 59, 43
2, 245304, Note_on_c, 0, 63, 37
2, 245308, Note_on_c, 0, 53, 30
2, 245340, Note_on_c, 0, 59, 0
2, 245340, Control_c, 0, 64, 127
2, 245352, Note_on_c, 0, 71, 0
2, 245392, Note_on_c, 0, 63, 0
2, 245400, Note_on_c, 0, 53, 0
2, 245592, Note_on_c, 0, 67, 52
2, 245600, Note_on_c, 0, 62, 41
2, 245600, Note_on_c, 0, 72, 45
2, 245612, Note_on_c, 0, 57, 28
2, 245620, Control_c, 0, 64, 0
2, 245620, Note_on_c, 0, 52, 30
2, 245780, Control_c, 0, 64, 127
2, 246376, Note_on_c, 0, 57, 0
2, 246408, Note_on_c, 0, 52, 0
2, 247772, Control_c, 0, 64, 0
2, 248180, Note_on_c, 0, 72, 0
2, 248188, Note_on_c, 0, 62, 0
2, 248196, Note_on_c, 0, 67, 0
2, 248196, End_track
3, 0, Start_track
3, 0, Program_c, 1, 32
3, 0, Control_c, 1, 7, 127
3, 1568, Note_on_c, 1, 33, 46
3, 1632, Note_on_c, 1, 33, 0
3, 1720, Note_on_c, 1, 32, 45
3, 1868, Note_on_c, 1, 32, 0
3, 1904, Note_on_c, 1, 31, 57
3, 2848, Note_on_c, 1, 43, 68
3, 2864, Note_on_c, 1, 31, 0
3, 3644, Note_on_c, 1, 35, 59
3, 3692, Note_on_c, 1, 43, 0
3, 3772, Note_on_c, 1, 35, 0
3, 3820, Note_on_c, 1, 36, 50
3, 4148, Note_on_c, 1, 48, 77
3, 4224, Note_on_c, 1, 36, 0
3, 5408, Note_on_c, 1, 48, 0
3, 5444, Note_on_c, 1, 45, 65
3, 5508, Note_on_c, 1, 45, 0
3, 5584, Note_on_c, 1, 44, 71
3, 5668, Note_on_c, 1, 44, 0
3, 5740, Note_on_c, 1, 43, 65
3, 5792, Note_on_c, 1, 43, 0
3, 5912, Note_on_c, 1, 38, 49
3, 5960, Note_on_c, 1, 38, 0
3, 6064, Note_on_c, 1, 32, 53
3, 6216, Note_on_c, 1, 32, 0
3, 6232, Note_on_c, 1, 31, 60
3, 6692, Note_on_c, 1, 38, 61
3, 6700, Note_on_c, 1, 31, 0
3, 7036, Note_on_c, 1, 38, 0
3, 7040, Note_on_c, 1, 34, 45
3, 7144, Note_on_c, 1, 34, 0
3, 7164, Note_on_c, 1, 35, 54
3, 7816, Note_on_c, 1, 35, 0
3, 7824, Note_on_c, 1, 36, 67
3, 8148, Note_on_c, 1, 36, 0
3, 8152, Note_on_c, 1, 45, 78
3, 8456, Note_on_c, 1, 45, 0
3, 8460, Note_on_c, 1, 43, 64
3, 8752, Note_on_c, 1, 43, 0
3, 8768, Note_on_c, 1, 50, 60
3, 8968, Note_on_c, 1, 36, 44
3, 9008, Note_on_c, 1, 36, 0
3, 9016, Note_on_c, 1, 50, 0
3, 9088, Note_on_c, 1, 42, 55
3, 9400, Note_on_c, 1, 41, 61
3, 9416, Note_on_c, 1, 42, 0
3, 9712, Note_on_c, 1, 36, 45
3, 9776, Note_on_c, 1, 36, 0
3, 9788, Note_on_c, 1, 41, 0
3, 9852, Note_on_c, 1, 30, 55
3, 10024, Note_on_c, 1, 30, 0
3, 10048, Note_on_c, 1, 29, 50
3, 10868, Note_on_c, 1, 32, 50
3, 10908, Note_on_c, 1, 29, 0
3, 11000, Note_on_c, 1, 32, 0
3, 11044, Note_on_c, 1, 33, 44
3, 11204, Note_on_c, 1, 33, 0
3, 11332, Pitch_bend_c, 1, 8192
3, 11344, Pitch_bend_c, 1, 8192
3, 11348, Pitch_bend_c, 1, 7680
3, 11352, Pitch_bend_c, 1, 7424
3, 11360, Pitch_bend_c, 1, 7296
3, 11364, Pitch_bend_c, 1, 7040
3, 11368, Pitch_bend_c, 1, 6784
3, 11372, Pitch_bend_c, 1, 6528
3, 11380, Pitch_bend_c, 1, 6272
3, 11384, Pitch_bend_c, 1, 6144
3, 11388, Pitch_bend_c, 1, 5888
3, 11392, Pitch_bend_c, 1, 5632
3, 11400, Pitch_bend_c, 1, 5504
3, 11404, Pitch_bend_c, 1, 5120
3, 11408, Pitch_bend_c, 1, 4992
3, 11412, Pitch_bend_c, 1, 4864
3, 11420, Pitch_bend_c, 1, 4608
3, 11424, Pitch_bend_c, 1, 4480
3, 11428, Pitch_bend_c, 1, 4352
3, 11432, Pitch_bend_c, 1, 4224
3, 11440, Pitch_bend_c, 1, 4096
3, 11444, Pitch_bend_c, 1, 3968
3, 11448, Pitch_bend_c, 1, 3840
3, 11460, Pitch_bend_c, 1, 3712
3, 11468, Pitch_bend_c, 1, 3584
3, 11512, Pitch_bend_c, 1, 3712
3, 11524, Pitch_bend_c, 1, 3968
3, 11528, Pitch_bend_c, 1, 4096
3, 11528, Note_on_c, 1, 34, 63
3, 11532, Pitch_bend_c, 1, 4352
3, 11540, Pitch_bend_c, 1, 4480
3, 11544, Pitch_bend_c, 1, 4608
3, 11552, Pitch_bend_c, 1, 4736
3, 11568, Pitch_bend_c, 1, 4992
3, 11584, Pitch_bend_c, 1, 5120
3, 11592, Pitch_bend_c, 1, 5376
3, 11608, Pitch_bend_c, 1, 5504
3, 11620, Pitch_bend_c, 1, 5760
3, 11628, Pitch_bend_c, 1, 5888
3, 11632, Pitch_bend_c, 1, 6144
3, 11640, Pitch_bend_c, 1, 6272
3, 11644, Pitch_bend_c, 1, 6528
3, 11648, Pitch_bend_c, 1, 6656
3, 11652, Pitch_bend_c, 1, 6912
3, 11664, Pitch_bend_c, 1, 7168
3, 11668, Pitch_bend_c, 1, 7296
3, 11680, Pitch_bend_c, 1, 7424
3, 11688, Pitch_bend_c, 1, 7680
3, 11700, Pitch_bend_c, 1, 8192
3, 11708, Pitch_bend_c, 1, 8192
3, 11720, Pitch_bend_c, 1, 8192
3, 11728, Pitch_bend_c, 1, 8192
3, 11740, Pitch_bend_c, 1, 8192
3, 12268, Note_on_c, 1, 37, 52
3, 12300, Note_on_c, 1, 34, 0
3, 12340, Note_on_c, 1, 37, 0
3, 12380, Note_on_c, 1, 38, 46
3, 12468, Note_on_c, 1, 38, 0
3, 12540, Note_on_c, 1, 39, 61
3, 12544, Pitch_bend_c, 1, 8192
3, 12544, Pitch_bend_c, 1, 8192
3, 12552, Pitch_bend_c, 1, 8192
3, 12560, Pitch_bend_c, 1, 7680
3, 12564, Pitch_bend_c, 1, 7552
3, 12568, Pitch_bend_c, 1, 7296
3, 12572, Pitch_bend_c, 1, 7168
3, 12580, Pitch_bend_c, 1, 7040
3, 12584, Pitch_bend_c, 1, 6784
3, 12588, Pitch_bend_c, 1, 6656
3, 12600, Pitch_bend_c, 1, 6528
3, 12604, Pitch_bend_c, 1, 6400
3, 12608, Pitch_bend_c, 1, 6272
3, 12632, Pitch_bend_c, 1, 6528
3, 12640, Pitch_bend_c, 1, 6656
3, 12644, Pitch_bend_c, 1, 6784
3, 12648, Pitch_bend_c, 1, 7040
3, 12652, Pitch_bend_c, 1, 7296
3, 12664, Pitch_bend_c, 1, 7552
3, 12668, Pitch_bend_c, 1, 8192
3, 12668, Pitch_bend_c, 1, 8192
3, 12672, Pitch_bend_c, 1, 8192
3, 13424, Note_on_c, 1, 36, 62
3, 13432, Note_on_c, 1, 39, 0
3, 13940, Note_on_c, 1, 48, 85
3, 14192, Note_on_c, 1, 36, 0
3, 14424, Note_on_c, 1, 43, 60
3, 14432, Note_on_c, 1, 48, 0
3, 14468, Note_on_c, 1, 43, 0
3, 14728, Note_on_c, 1, 38, 49
3, 14816, Note_on_c, 1, 38, 0
3, 14884, Note_on_c, 1, 35, 57
3, 15344, Note_on_c, 1, 35, 0
3, 15364, Note_on_c, 1, 36, 44
3, 15700, Note_on_c, 1, 48, 90
3, 16960, Note_on_c, 1, 33, 54
3, 16972, Note_on_c, 1, 36, 0
3, 17028, Note_on_c, 1, 48, 0
3, 17044, Note_on_c, 1, 33, 0
3, 17104, Note_on_c, 1, 32, 55
3, 17232, Note_on_c, 1, 32, 0
3, 17284, Note_on_c, 1, 31, 45
3, 17604, Note_on_c, 1, 48, 54
3, 17656, Note_on_c, 1, 48, 0
3, 17780, Note_on_c, 1, 43, 56
3, 18164, Note_on_c, 1, 31, 0
3, 18544, Note_on_c, 1, 36, 59
3, 18604, Note_on_c, 1, 36, 0
3, 18712, Note_on_c, 1, 34, 62
3, 18732, Note_on_c, 1, 43, 0
3, 18776, Note_on_c, 1, 34, 0
3, 19020, Note_on_c, 1, 35, 53
3, 19140, Note_on_c, 1, 35, 0
3, 19212, Note_on_c, 1, 36, 12
3, 19520, Note_on_c, 1, 50, 32
3, 19580, Note_on_c, 1, 50, 0
3, 19612, Note_on_c, 1, 49, 29
3, 19676, Note_on_c, 1, 49, 0
3, 19728, Note_on_c, 1, 48, 52
3, 20460, Note_on_c, 1, 48, 0
3, 20480, Note_on_c, 1, 43, 65
3, 20516, Note_on_c, 1, 36, 0
3, 20524, Note_on_c, 1, 43, 0
3, 20632, Note_on_c, 1, 33, 48
3, 20720, Note_on_c, 1, 33, 0
3, 20952, Note_on_c, 1, 32, 56
3, 21076, Note_on_c, 1, 32, 0
3, 21124, Note_on_c, 1, 31, 42
3, 21588, Note_on_c, 1, 45, 50
3, 21900, Note_on_c, 1, 38, 36
3, 21928, Note_on_c, 1, 38, 0
3, 21984, Note_on_c, 1, 31, 0
3, 22020, Note_on_c, 1, 45, 0
3, 22052, Note_on_c, 1, 43, 35
3, 22368, Note_on_c, 1, 38, 52
3, 22392, Note_on_c, 1, 43, 0
3, 22452, Note_on_c, 1, 38, 0
3, 22528, Note_on_c, 1, 35, 39
3, 22996, Note_on_c, 1, 35, 0
3, 23044, Note_on_c, 1, 36, 42
3, 23252, Note_on_c, 1, 50, 26
3, 23280, Note_on_c, 1, 50, 0
3, 23360, Note_on_c, 1, 49, 45
3, 23440, Note_on_c, 1, 49, 0
3, 23504, Note_on_c, 1, 48, 50
3, 23944, Note_on_c, 1, 48, 0
3, 23968, Note_on_c, 1, 36, 0
3, 23980, Note_on_c, 1, 43, 42
3, 24320, Note_on_c, 1, 36, 41
3, 24352, Note_on_c, 1, 36, 0
3, 24424, Note_on_c, 1, 43, 0
3, 24468, Note_on_c, 1, 40, 44
3, 24508, Note_on_c, 1, 40, 0
3, 24604, Note_on_c, 1, 36, 51
3, 24652, Note_on_c, 1, 36, 0
3, 24748, Note_on_c, 1, 30, 60
3, 24916, Note_on_c, 1, 30, 0
3, 24952, Note_on_c, 1, 29, 36
3, 25264, Note_on_c, 1, 43, 66
3, 25296, Note_on_c, 1, 29, 0
3, 25364, Note_on_c, 1, 43, 0
3, 25444, Note_on_c, 1, 41, 53
3, 25856, Note_on_c, 1, 41, 0
3, 25912, Note_on_c, 1, 50, 58
3, 26164, Note_on_c, 1, 50, 0
3, 26244, Note_on_c, 1, 48, 43
3, 26284, Note_on_c, 1, 48, 0
3, 26404, Note_on_c, 1, 53, 61
3, 26456, Note_on_c, 1, 53, 0
3, 26712, Note_on_c, 1, 45, 58
3, 26800, Note_on_c, 1, 45, 0
3, 26900, Note_on_c, 1, 46, 40
3, 27512, Note_on_c, 1, 41, 26
3, 27528, Note_on_c, 1, 46, 0
3, 27536, Note_on_c, 1, 41, 0
3, 27644, Note_on_c, 1, 40, 57
3, 27784, Note_on_c, 1, 40, 0
3, 27832, Note_on_c, 1, 39, 36
3, 28752, Note_on_c, 1, 39, 0
3, 28804, Note_on_c, 1, 36, 49
3, 29588, Note_on_c, 1, 43, 65
3, 29644, Note_on_c, 1, 36, 0
3, 30084, Note_on_c, 1, 38, 45
3, 30112, Note_on_c, 1, 38, 0
3, 30228, Note_on_c, 1, 31, 55
3, 30272, Note_on_c, 1, 43, 0
3, 30656, Note_on_c, 1, 31, 0
3, 30708, Note_on_c, 1, 36, 53
3, 32004, Note_on_c, 1, 45, 73
3, 32028, Note_on_c, 1, 36, 0
3, 32084, Note_on_c, 1, 45, 0
3, 32152, Note_on_c, 1, 43, 64
3, 32200, Note_on_c, 1, 43, 0
3, 32308, Note_on_c, 1, 42, 61
3, 32336, Note_on_c, 1, 42, 0
3, 32448, Note_on_c, 1, 36, 54
3, 32488, Note_on_c, 1, 36, 0
3, 32608, Note_on_c, 1, 41, 66
3, 32920, Note_on_c, 1, 36, 62
3, 32988, Note_on_c, 1, 41, 0
3, 33000, Note_on_c, 1, 36, 0
3, 33072, Note_on_c, 1, 33, 50
3, 33556, Note_on_c, 1, 33, 0
3, 33580, Note_on_c, 1, 34, 45
3, 34032, Note_on_c, 1, 34, 0
3, 34052, Note_on_c, 1, 35, 50
3, 34364, Note_on_c, 1, 34, 25
3, 34504, Note_on_c, 1, 34, 0
3, 34504, Note_on_c, 1, 35, 0
3, 34524, Note_on_c, 1, 36, 46
3, 34852, Note_on_c, 1, 45, 58
3, 34960, Note_on_c, 1, 45, 0
3, 34996, Note_on_c, 1, 36, 0
3, 35012, Note_on_c, 1, 43, 35
3, 35460, Note_on_c, 1, 43, 0
3, 35472, Note_on_c, 1, 50, 60
3, 35960, Note_on_c, 1, 50, 0
3, 35972, Note_on_c, 1, 48, 56
3, 36000, Note_on_c, 1, 48, 0
3, 36132, Note_on_c, 1, 43, 54
3, 36216, Note_on_c, 1, 43, 0
3, 36280, Note_on_c, 1, 42, 47
3, 36404, Note_on_c, 1, 42, 0
3, 36444, Note_on_c, 1, 41, 48
3, 36772, Note_on_c, 1, 44, 63
3, 36804, Note_on_c, 1, 41, 0
3, 37124, Note_on_c, 1, 36, 56
3, 37196, Note_on_c, 1, 36, 0
3, 37244, Note_on_c, 1, 44, 0
3, 37272, Note_on_c, 1, 33, 58
3, 37424, Note_on_c, 1, 33, 0
3, 37444, Note_on_c, 1, 34, 53
3, 37908, Note_on_c, 1, 34, 0
3, 37908, Note_on_c, 1, 36, 42
3, 38188, Note_on_c, 1, 36, 0
3, 38224, Note_on_c, 1, 35, 55
3, 38392, Note_on_c, 1, 35, 0
3, 38400, Note_on_c, 1, 36, 43
3, 38764, Note_on_c, 1, 35, 30
3, 38808, Note_on_c, 1, 35, 0
3, 38824, Note_on_c, 1, 36, 0
3, 38868, Note_on_c, 1, 38, 45
3, 39184, Note_on_c, 1, 35, 37
3, 39232, Note_on_c, 1, 35, 0
3, 39316, Note_on_c, 1, 38, 0
3, 39328, Note_on_c, 1, 40, 43
3, 39660, Note_on_c, 1, 35, 41
3, 39744, Note_on_c, 1, 35, 0
3, 39812, Note_on_c, 1, 40, 0
3, 39820, Note_on_c, 1, 45, 51
3, 40164, Note_on_c, 1, 35, 32
3, 40212, Note_on_c, 1, 35, 0
3, 40248, Note_on_c, 1, 45, 0
3, 40288, Note_on_c, 1, 44, 46
3, 40928, Note_on_c, 1, 39, 59
3, 41000, Note_on_c, 1, 44, 0
3, 41012, Note_on_c, 1, 39, 0
3, 41080, Note_on_c, 1, 38, 58
3, 41240, Note_on_c, 1, 38, 0
3, 41252, Note_on_c, 1, 37, 46
3, 41680, Note_on_c, 1, 37, 0
3, 41744, Note_on_c, 1, 37, 47
3, 42088, Note_on_c, 1, 32, 25
3, 42128, Note_on_c, 1, 32, 0
3, 42228, Note_on_c, 1, 37, 0
3, 42228, Note_on_c, 1, 39, 47
3, 42696, Note_on_c, 1, 39, 0
3, 42700, Note_on_c, 1, 34, 39
3, 43164, Note_on_c, 1, 34, 0
3, 43164, Note_on_c, 1, 31, 47
3, 43512, Note_on_c, 1, 34, 20
3, 43592, Note_on_c, 1, 34, 0
3, 43648, Note_on_c, 1, 31, 0
3, 43652, Note_on_c, 1, 43, 48
3, 43988, Note_on_c, 1, 34, 31
3, 44096, Note_on_c, 1, 43, 0
3, 44112, Note_on_c, 1, 34, 0
3, 44144, Note_on_c, 1, 42, 38
3, 44632, Note_on_c, 1, 42, 0
3, 44640, Note_on_c, 1, 39, 45
3, 44948, Note_on_c, 1, 34, 44
3, 44960, Note_on_c, 1, 39, 0
3, 45088, Note_on_c, 1, 34, 0
3, 45112, Note_on_c, 1, 32, 46
3, 45588, Note_on_c, 1, 44, 47
3, 45636, Note_on_c, 1, 32, 0
3, 45920, Note_on_c, 1, 32, 34
3, 46048, Note_on_c, 1, 44, 0
3, 46060, Note_on_c, 1, 32, 0
3, 46088, Note_on_c, 1, 38, 27
3, 46404, Note_on_c, 1, 37, 25
3, 46492, Note_on_c, 1, 37, 0
3, 46492, Note_on_c, 1, 38, 0
3, 46544, Note_on_c, 1, 45, 45
3, 47152, Note_on_c, 1, 43, 61
3, 47164, Note_on_c, 1, 45, 0
3, 47320, Note_on_c, 1, 38, 43
3, 47380, Note_on_c, 1, 38, 0
3, 47488, Note_on_c, 1, 32, 70
3, 47752, Note_on_c, 1, 43, 0
3, 47808, Note_on_c, 1, 32, 0
3, 47808, Note_on_c, 1, 31, 76
3, 48468, Note_on_c, 1, 48, 51
3, 48880, Note_on_c, 1, 31, 0
3, 48900, Note_on_c, 1, 48, 0
3, 48924, Note_on_c, 1, 43, 49
3, 49316, Note_on_c, 1, 43, 0
3, 49412, Note_on_c, 1, 37, 48
3, 49836, Note_on_c, 1, 37, 0
3, 49900, Note_on_c, 1, 36, 44
3, 50272, Note_on_c, 1, 36, 0
3, 50368, Note_on_c, 1, 35, 39
3, 50820, Note_on_c, 1, 35, 0
3, 50868, Note_on_c, 1, 36, 44
3, 51320, Note_on_c, 1, 36, 0
3, 51348, Note_on_c, 1, 34, 39
3, 51588, Note_on_c, 1, 34, 0
3, 51648, Note_on_c, 1, 35, 58
3, 51760, Note_on_c, 1, 35, 0
3, 51832, Note_on_c, 1, 43, 42
3, 52160, Note_on_c, 1, 38, 50
3, 52212, Note_on_c, 1, 38, 0
3, 52244, Note_on_c, 1, 43, 0
3, 52308, Note_on_c, 1, 31, 44
3, 52804, Note_on_c, 1, 43, 41
3, 52872, Note_on_c, 1, 31, 0
3, 53104, Note_on_c, 1, 43, 0
3, 53128, Note_on_c, 1, 34, 42
3, 53228, Note_on_c, 1, 34, 0
3, 53272, Note_on_c, 1, 35, 47
3, 53724, Note_on_c, 1, 35, 0
3, 53744, Note_on_c, 1, 36, 55
3, 54152, Note_on_c, 1, 34, 18
3, 54216, Note_on_c, 1, 36, 0
3, 54232, Note_on_c, 1, 38, 62
3, 54260, Note_on_c, 1, 34, 0
3, 55060, Note_on_c, 1, 36, 37
3, 55108, Note_on_c, 1, 36, 0
3, 55208, Note_on_c, 1, 40, 44
3, 55252, Note_on_c, 1, 38, 0
3, 55520, Note_on_c, 1, 36, 40
3, 55568, Note_on_c, 1, 36, 0
3, 55668, Note_on_c, 1, 40, 0
3, 55680, Note_on_c, 1, 41, 50
3, 56020, Note_on_c, 1, 36, 34
3, 56084, Note_on_c, 1, 36, 0
3, 56120, Note_on_c, 1, 41, 0
3, 56160, Note_on_c, 1, 33, 58
3, 57608, Note_on_c, 1, 33, 0
3, 57608, Note_on_c, 1, 34, 52
3, 58068, Note_on_c, 1, 41, 30
3, 58120, Note_on_c, 1, 34, 0
3, 58408, Note_on_c, 1, 34, 34
3, 58488, Note_on_c, 1, 34, 0
3, 58512, Note_on_c, 1, 41, 0
3, 58532, Note_on_c, 1, 39, 35
3, 59020, Note_on_c, 1, 39, 0
3, 59020, Note_on_c, 1, 51, 50
3, 59328, Note_on_c, 1, 34, 29
3, 59444, Note_on_c, 1, 51, 0
3, 59448, Note_on_c, 1, 34, 0
3, 59500, Note_on_c, 1, 48, 50
3, 59972, Note_on_c, 1, 31, 68
3, 60404, Note_on_c, 1, 48, 0
3, 60452, Note_on_c, 1, 43, 51
3, 60844, Note_on_c, 1, 31, 0
3, 60932, Note_on_c, 1, 31, 62
3, 60952, Note_on_c, 1, 43, 0
3, 61376, Note_on_c, 1, 31, 0
3, 61404, Note_on_c, 1, 36, 68
3, 63044, Note_on_c, 1, 45, 68
3, 63088, Note_on_c, 1, 36, 0
3, 63108, Note_on_c, 1, 45, 0
3, 63172, Note_on_c, 1, 44, 58
3, 63300, Note_on_c, 1, 44, 0
3, 63344, Note_on_c, 1, 43, 38
3, 63824, Note_on_c, 1, 34, 60
3, 63864, Note_on_c, 1, 43, 0
3, 64284, Note_on_c, 1, 34, 0
3, 64288, Note_on_c, 1, 31, 44
3, 64768, Note_on_c, 1, 31, 0
3, 64772, Note_on_c, 1, 35, 32
3, 65212, Note_on_c, 1, 35, 0
3, 65244, Note_on_c, 1, 36, 39
3, 65580, Note_on_c, 1, 45, 54
3, 65680, Note_on_c, 1, 45, 0
3, 65752, Note_on_c, 1, 43, 25
3, 66036, Note_on_c, 1, 43, 0
3, 66060, Note_on_c, 1, 52, 55
3, 66220, Note_on_c, 1, 52, 0
3, 66544, Note_on_c, 1, 50, 60
3, 66644, Note_on_c, 1, 36, 0
3, 66708, Note_on_c, 1, 50, 0
3, 66720, Note_on_c, 1, 48, 53
3, 66784, Note_on_c, 1, 48, 0
3, 67040, Note_on_c, 1, 44, 71
3, 67184, Note_on_c, 1, 44, 0
3, 67220, Note_on_c, 1, 43, 43
3, 67988, Note_on_c, 1, 38, 51
3, 68048, Note_on_c, 1, 38, 0
3, 68140, Note_on_c, 1, 43, 0
3, 68144, Note_on_c, 1, 31, 56
3, 68764, Note_on_c, 1, 43, 50
3, 68796, Note_on_c, 1, 43, 0
3, 68812, Note_on_c, 1, 31, 0
3, 68884, Note_on_c, 1, 34, 44
3, 68964, Note_on_c, 1, 34, 0
3, 69028, Note_on_c, 1, 35, 57
3, 69120, Note_on_c, 1, 35, 0
3, 69148, Note_on_c, 1, 36, 45
3, 69540, Note_on_c, 1, 50, 44
3, 69788, Note_on_c, 1, 36, 0
3, 69820, Note_on_c, 1, 50, 0
3, 69852, Note_on_c, 1, 48, 58
3, 70408, Note_on_c, 1, 43, 68
3, 70456, Note_on_c, 1, 48, 0
3, 70568, Note_on_c, 1, 43, 0
3, 70732, Note_on_c, 1, 42, 49
3, 70824, Note_on_c, 1, 42, 0
3, 71012, Control_c, 1, 1, 4
3, 71012, Control_c, 1, 1, 3
3, 71020, Note_on_c, 1, 41, 64
3, 71020, Control_c, 1, 1, 5
3, 71024, Control_c, 1, 1, 8
3, 71024, Control_c, 1, 1, 7
3, 71028, Control_c, 1, 1, 11
3, 71028, Control_c, 1, 1, 10
3, 71032, Control_c, 1, 1, 13
3, 71032, Control_c, 1, 1, 12
3, 71040, Control_c, 1, 1, 16
3, 71040, Control_c, 1, 1, 15
3, 71044, Control_c, 1, 1, 17
3, 71048, Control_c, 1, 1, 19
3, 71048, Control_c, 1, 1, 20
3, 71052, Control_c, 1, 1, 23
3, 71052, Control_c, 1, 1, 22
3, 71060, Control_c, 1, 1, 26
3, 71060, Control_c, 1, 1, 25
3, 71064, Control_c, 1, 1, 28
3, 71064, Control_c, 1, 1, 29
3, 71068, Control_c, 1, 1, 32
3, 71068, Control_c, 1, 1, 31
3, 71072, Control_c, 1, 1, 35
3, 71072, Control_c, 1, 1, 34
3, 71080, Control_c, 1, 1, 36
3, 71084, Control_c, 1, 1, 37
3, 71084, Control_c, 1, 1, 39
3, 71088, Control_c, 1, 1, 41
3, 71088, Control_c, 1, 1, 42
3, 71092, Control_c, 1, 1, 45
3, 71092, Control_c, 1, 1, 43
3, 71100, Control_c, 1, 1, 46
3, 71100, Control_c, 1, 1, 48
3, 71104, Control_c, 1, 1, 49
3, 71104, Control_c, 1, 1, 50
3, 71108, Control_c, 1, 1, 51
3, 71108, Control_c, 1, 1, 53
3, 71112, Control_c, 1, 1, 55
3, 71112, Control_c, 1, 1, 54
3, 71120, Control_c, 1, 1, 56
3, 71124, Control_c, 1, 1, 57
3, 71124, Control_c, 1, 1, 58
3, 71128, Control_c, 1, 1, 60
3, 71132, Control_c, 1, 1, 62
3, 71144, Control_c, 1, 1, 64
3, 71144, Control_c, 1, 1, 63
3, 71152, Control_c, 1, 1, 66
3, 71172, Control_c, 1, 1, 67
3, 71200, Control_c, 1, 1, 66
3, 71208, Control_c, 1, 1, 65
3, 71212, Control_c, 1, 1, 63
3, 71224, Control_c, 1, 1, 62
3, 71232, Control_c, 1, 1, 60
3, 71240, Control_c, 1, 1, 59
3, 71248, Control_c, 1, 1, 57
3, 71252, Control_c, 1, 1, 55
3, 71264, Control_c, 1, 1, 53
3, 71268, Control_c, 1, 1, 51
3, 71280, Control_c, 1, 1, 49
3, 71280, Control_c, 1, 1, 48
3, 71284, Control_c, 1, 1, 47
3, 71288, Control_c, 1, 1, 45
3, 71292, Control_c, 1, 1, 42
3, 71292, Control_c, 1, 1, 43
3, 71300, Control_c, 1, 1, 41
3, 71304, Control_c, 1, 1, 39
3, 71304, Control_c, 1, 1, 38
3, 71308, Control_c, 1, 1, 37
3, 71308, Control_c, 1, 1, 35
3, 71312, Control_c, 1, 1, 32
3, 71312, Control_c, 1, 1, 34
3, 71320, Control_c, 1, 1, 30
3, 71320, Control_c, 1, 1, 28
3, 71324, Control_c, 1, 1, 26
3, 71324, Control_c, 1, 1, 24
3, 71328, Control_c, 1, 1, 21
3, 71328, Control_c, 1, 1, 22
3, 71332, Control_c, 1, 1, 19
3, 71340, Control_c, 1, 1, 15
3, 71340, Control_c, 1, 1, 17
3, 71344, Control_c, 1, 1, 13
3, 71344, Control_c, 1, 1, 12
3, 71348, Control_c, 1, 1, 9
3, 71348, Control_c, 1, 1, 10
3, 71352, Control_c, 1, 1, 7
3, 71352, Control_c, 1, 1, 6
3, 71360, Control_c, 1, 1, 4
3, 71360, Control_c, 1, 1, 2
3, 71364, Control_c, 1, 1, 1
3, 71500, Note_on_c, 1, 41, 0
3, 71828, Note_on_c, 1, 41, 68
3, 72304, Note_on_c, 1, 33, 40
3, 72392, Note_on_c, 1, 33, 0
3, 72464, Note_on_c, 1, 36, 58
3, 72488, Note_on_c, 1, 36, 0
3, 72572, Note_on_c, 1, 41, 0
3, 72604, Note_on_c, 1, 36, 68
3, 72708, Note_on_c, 1, 36, 0
3, 72768, Note_on_c, 1, 35, 64
3, 72876, Note_on_c, 1, 35, 0
3, 72960, Note_on_c, 1, 34, 39
3, 73304, Note_on_c, 1, 46, 52
3, 73432, Note_on_c, 1, 34, 0
3, 73620, Note_on_c, 1, 37, 38
3, 73652, Note_on_c, 1, 46, 0
3, 73692, Note_on_c, 1, 37, 0
3, 73772, Note_on_c, 1, 38, 50
3, 73884, Note_on_c, 1, 38, 0
3, 73944, Note_on_c, 1, 39, 37
3, 74388, Note_on_c, 1, 55, 50
3, 74412, Note_on_c, 1, 55, 0
3, 74684, Note_on_c, 1, 39, 0
3, 74708, Note_on_c, 1, 38, 36
3, 74748, Note_on_c, 1, 38, 0
3, 74880, Note_on_c, 1, 47, 48
3, 75172, Note_on_c, 1, 48, 71
3, 75184, Note_on_c, 1, 47, 0
3, 75332, Note_on_c, 1, 48, 0
3, 75364, Note_on_c, 1, 52, 57
3, 75588, Note_on_c, 1, 52, 0
3, 75632, Note_on_c, 1, 55, 73
3, 75812, Note_on_c, 1, 55, 0
3, 76132, Note_on_c, 1, 43, 37
3, 76232, Note_on_c, 1, 43, 0
3, 76312, Note_on_c, 1, 55, 59
3, 76416, Note_on_c, 1, 55, 0
3, 76580, Note_on_c, 1, 35, 41
3, 76704, Note_on_c, 1, 35, 0
3, 76784, Note_on_c, 1, 36, 30
3, 76792, Note_on_c, 1, 52, 48
3, 76836, Note_on_c, 1, 36, 0
3, 76896, Note_on_c, 1, 52, 0
3, 76940, Note_on_c, 1, 47, 53
3, 77232, Note_on_c, 1, 47, 0
3, 77272, Note_on_c, 1, 50, 50
3, 77412, Note_on_c, 1, 50, 0
3, 77432, Note_on_c, 1, 48, 61
3, 77704, Note_on_c, 1, 48, 0
3, 77744, Note_on_c, 1, 43, 45
3, 78172, Note_on_c, 1, 43, 0
3, 78228, Note_on_c, 1, 38, 54
3, 78292, Note_on_c, 1, 38, 0
3, 78388, Note_on_c, 1, 33, 44
3, 78456, Note_on_c, 1, 33, 0
3, 78524, Note_on_c, 1, 32, 59
3, 78696, Note_on_c, 1, 32, 0
3, 78728, Note_on_c, 1, 31, 48
3, 79044, Note_on_c, 1, 45, 64
3, 79172, Note_on_c, 1, 45, 0
3, 79176, Note_on_c, 1, 31, 0
3, 79224, Note_on_c, 1, 43, 36
3, 79524, Note_on_c, 1, 31, 44
3, 79576, Note_on_c, 1, 31, 0
3, 79652, Note_on_c, 1, 43, 0
3, 79684, Note_on_c, 1, 50, 37
3, 79992, Note_on_c, 1, 38, 51
3, 80092, Note_on_c, 1, 38, 0
3, 80096, Note_on_c, 1, 50, 0
3, 80164, Note_on_c, 1, 37, 33
3, 80468, Note_on_c, 1, 34, 29
3, 80484, Note_on_c, 1, 37, 0
3, 80596, Note_on_c, 1, 34, 0
3, 80624, Note_on_c, 1, 36, 53
3, 80660, Note_on_c, 1, 50, 81
3, 80668, Note_on_c, 1, 36, 0
3, 80928, Note_on_c, 1, 50, 0
3, 80980, Note_on_c, 1, 43, 55
3, 81432, Note_on_c, 1, 35, 54
3, 81480, Note_on_c, 1, 43, 0
3, 81616, Note_on_c, 1, 35, 0
3, 81624, Note_on_c, 1, 36, 45
3, 81940, Note_on_c, 1, 50, 62
3, 81984, Note_on_c, 1, 36, 0
3, 81988, Note_on_c, 1, 50, 0
3, 82108, Note_on_c, 1, 48, 53
3, 82136, Note_on_c, 1, 48, 0
3, 82268, Note_on_c, 1, 41, 54
3, 82356, Note_on_c, 1, 41, 0
3, 82424, Note_on_c, 1, 42, 40
3, 82528, Note_on_c, 1, 42, 0
3, 82592, Note_on_c, 1, 43, 50
3, 82900, Note_on_c, 1, 38, 54
3, 82928, Note_on_c, 1, 38, 0
3, 82980, Note_on_c, 1, 43, 0
3, 83048, Note_on_c, 1, 31, 44
3, 83052, Note_on_c, 1, 48, 64
3, 83252, Note_on_c, 1, 48, 0
3, 83384, Note_on_c, 1, 38, 22
3, 83424, Note_on_c, 1, 38, 0
3, 83496, Note_on_c, 1, 31, 0
3, 83528, Note_on_c, 1, 43, 53
3, 83816, Note_on_c, 1, 43, 0
3, 83844, Note_on_c, 1, 38, 54
3, 83936, Note_on_c, 1, 38, 0
3, 84008, Note_on_c, 1, 35, 53
3, 84436, Note_on_c, 1, 35, 0
3, 84480, Note_on_c, 1, 36, 34
3, 84952, Note_on_c, 1, 38, 45
3, 84964, Note_on_c, 1, 36, 0
3, 85364, Note_on_c, 1, 38, 0
3, 85432, Note_on_c, 1, 40, 57
3, 85756, Note_on_c, 1, 40, 0
3, 85772, Note_on_c, 1, 36, 50
3, 85900, Note_on_c, 1, 42, 55
3, 85952, Note_on_c, 1, 36, 0
3, 86248, Note_on_c, 1, 36, 38
3, 86280, Note_on_c, 1, 36, 0
3, 86388, Note_on_c, 1, 42, 0
3, 86404, Note_on_c, 1, 41, 53
3, 86432, Note_on_c, 1, 41, 0
3, 86544, Note_on_c, 1, 36, 60
3, 86632, Note_on_c, 1, 36, 0
3, 86684, Note_on_c, 1, 30, 59
3, 87048, Note_on_c, 1, 29, 62
3, 87064, Note_on_c, 1, 30, 0
3, 87360, Note_on_c, 1, 29, 0
3, 87380, Note_on_c, 1, 36, 74
3, 87688, Note_on_c, 1, 36, 0
3, 87688, Note_on_c, 1, 33, 68
3, 87976, Note_on_c, 1, 33, 0
3, 88012, Note_on_c, 1, 35, 65
3, 88152, Note_on_c, 1, 35, 0
3, 88184, Note_on_c, 1, 33, 49
3, 88296, Note_on_c, 1, 33, 0
3, 88340, Note_on_c, 1, 34, 55
3, 88812, Note_on_c, 1, 41, 48
3, 88828, Note_on_c, 1, 34, 0
3, 88856, Note_on_c, 1, 41, 0
3, 88980, Note_on_c, 1, 34, 42
3, 89032, Note_on_c, 1, 34, 0
3, 89120, Note_on_c, 1, 40, 51
3, 89268, Note_on_c, 1, 40, 0
3, 89288, Note_on_c, 1, 39, 53
3, 89372, Note_on_c, 1, 39, 0
3, 89448, Note_on_c, 1, 33, 75
3, 90044, Note_on_c, 1, 39, 62
3, 90060, Note_on_c, 1, 33, 0
3, 90196, Note_on_c, 1, 39, 0
3, 90280, Note_on_c, 1, 38, 41
3, 90300, Note_on_c, 1, 36, 37
3, 90324, Note_on_c, 1, 36, 0
3, 90612, Note_on_c, 1, 38, 0
3, 90732, Note_on_c, 1, 36, 46
3, 91160, Note_on_c, 1, 36, 0
3, 91208, Note_on_c, 1, 43, 41
3, 91508, Note_on_c, 1, 38, 49
3, 91552, Note_on_c, 1, 38, 0
3, 91580, Note_on_c, 1, 43, 0
3, 91660, Note_on_c, 1, 35, 38
3, 92112, Note_on_c, 1, 35, 0
3, 92132, Note_on_c, 1, 36, 55
3, 92452, Note_on_c, 1, 45, 68
3, 92572, Note_on_c, 1, 45, 0
3, 92580, Note_on_c, 1, 36, 0
3, 92620, Note_on_c, 1, 43, 38
3, 92932, Note_on_c, 1, 36, 36
3, 92980, Note_on_c, 1, 36, 0
3, 93052, Note_on_c, 1, 43, 0
3, 93092, Note_on_c, 1, 50, 53
3, 93440, Note_on_c, 1, 36, 42
3, 93472, Note_on_c, 1, 50, 0
3, 93544, Note_on_c, 1, 36, 0
3, 93572, Note_on_c, 1, 42, 52
3, 93924, Note_on_c, 1, 36, 40
3, 93972, Note_on_c, 1, 36, 0
3, 94068, Note_on_c, 1, 41, 40
3, 94076, Note_on_c, 1, 42, 0
3, 94472, Note_on_c, 1, 41, 0
3, 94544, Note_on_c, 1, 41, 61
3, 94956, Note_on_c, 1, 41, 0
3, 95020, Note_on_c, 1, 34, 52
3, 95488, Note_on_c, 1, 46, 46
3, 95560, Note_on_c, 1, 34, 0
3, 95780, Note_on_c, 1, 46, 0
3, 95804, Note_on_c, 1, 47, 57
3, 95892, Note_on_c, 1, 47, 0
3, 95952, Note_on_c, 1, 48, 54
3, 96256, Note_on_c, 1, 48, 0
3, 96284, Note_on_c, 1, 43, 53
3, 96772, Note_on_c, 1, 36, 35
3, 96860, Note_on_c, 1, 36, 0
3, 96932, Note_on_c, 1, 40, 38
3, 97156, Note_on_c, 1, 40, 0
3, 97172, Note_on_c, 1, 43, 0
3, 97260, Note_on_c, 1, 36, 53
3, 97404, Note_on_c, 1, 39, 62
3, 97488, Note_on_c, 1, 36, 0
3, 97612, Note_on_c, 1, 39, 0
3, 97732, Note_on_c, 1, 40, 60
3, 97844, Note_on_c, 1, 40, 0
3, 97908, Note_on_c, 1, 41, 45
3, 97936, Note_on_c, 1, 41, 0
3, 98052, Note_on_c, 1, 36, 57
3, 98140, Note_on_c, 1, 36, 0
3, 98224, Note_on_c, 1, 32, 52
3, 98356, Note_on_c, 1, 32, 0
3, 98400, Note_on_c, 1, 29, 43
3, 98708, Note_on_c, 1, 29, 0
3, 98724, Note_on_c, 1, 33, 54
3, 98852, Note_on_c, 1, 33, 0
3, 98872, Note_on_c, 1, 34, 47
3, 99264, Note_on_c, 1, 34, 0
3, 99348, Note_on_c, 1, 35, 59
3, 99704, Note_on_c, 1, 34, 27
3, 99780, Note_on_c, 1, 35, 0
3, 99804, Note_on_c, 1, 34, 0
3, 99824, Note_on_c, 1, 36, 47
3, 100172, Note_on_c, 1, 34, 30
3, 100232, Note_on_c, 1, 36, 0
3, 100288, Note_on_c, 1, 38, 47
3, 100300, Note_on_c, 1, 34, 0
3, 100768, Note_on_c, 1, 40, 45
3, 100796, Note_on_c, 1, 38, 0
3, 101108, Note_on_c, 1, 35, 36
3, 101216, Note_on_c, 1, 40, 0
3, 101244, Note_on_c, 1, 45, 57
3, 101248, Note_on_c, 1, 35, 0
3, 101604, Note_on_c, 1, 35, 29
3, 101652, Note_on_c, 1, 35, 0
3, 101672, Note_on_c, 1, 45, 0
3, 101728, Note_on_c, 1, 44, 54
3, 102032, Note_on_c, 1, 34, 33
3, 102100, Note_on_c, 1, 34, 0
3, 102172, Note_on_c, 1, 44, 0
3, 102180, Note_on_c, 1, 39, 46
3, 102528, Note_on_c, 1, 34, 31
3, 102588, Note_on_c, 1, 34, 0
3, 102644, Note_on_c, 1, 39, 0
3, 102684, Note_on_c, 1, 37, 38
3, 103172, Note_on_c, 1, 32, 48
3, 103228, Note_on_c, 1, 37, 0
3, 103680, Note_on_c, 1, 39, 46
3, 103700, Note_on_c, 1, 32, 0
3, 104092, Note_on_c, 1, 34, 18
3, 104100, Note_on_c, 1, 39, 0
3, 104148, Note_on_c, 1, 39, 50
3, 104152, Note_on_c, 1, 34, 0
3, 104628, Note_on_c, 1, 39, 0
3, 104628, Note_on_c, 1, 34, 46
3, 105100, Note_on_c, 1, 38, 34
3, 105180, Note_on_c, 1, 34, 0
3, 105420, Note_on_c, 1, 34, 34
3, 105524, Note_on_c, 1, 38, 0
3, 105552, Note_on_c, 1, 34, 0
3, 105564, Note_on_c, 1, 39, 38
3, 105888, Note_on_c, 1, 42, 56
3, 105908, Note_on_c, 1, 39, 0
3, 106008, Note_on_c, 1, 42, 0
3, 106060, Note_on_c, 1, 39, 34
3, 106380, Note_on_c, 1, 34, 42
3, 106392, Note_on_c, 1, 39, 0
3, 106488, Note_on_c, 1, 34, 0
3, 106544, Note_on_c, 1, 32, 42
3, 107032, Note_on_c, 1, 32, 0
3, 107040, Note_on_c, 1, 44, 59
3, 107348, Note_on_c, 1, 37, 31
3, 107456, Note_on_c, 1, 37, 0
3, 107492, Note_on_c, 1, 38, 43
3, 107524, Note_on_c, 1, 44, 0
3, 107864, Note_on_c, 1, 37, 21
3, 107948, Note_on_c, 1, 37, 0
3, 107972, Note_on_c, 1, 45, 50
3, 107992, Note_on_c, 1, 38, 0
3, 108416, Note_on_c, 1, 45, 0
3, 108452, Note_on_c, 1, 43, 35
3, 108768, Note_on_c, 1, 38, 31
3, 108796, Note_on_c, 1, 38, 0
3, 108908, Note_on_c, 1, 32, 58
3, 108944, Note_on_c, 1, 43, 0
3, 109300, Note_on_c, 1, 32, 0
3, 109300, Note_on_c, 1, 38, 20
3, 109348, Note_on_c, 1, 38, 0
3, 109392, Note_on_c, 1, 31, 44
3, 109780, Note_on_c, 1, 38, 24
3, 109812, Note_on_c, 1, 38, 0
3, 109888, Note_on_c, 1, 43, 61
3, 109904, Note_on_c, 1, 31, 0
3, 110692, Note_on_c, 1, 31, 55
3, 110792, Note_on_c, 1, 31, 0
3, 110812, Note_on_c, 1, 43, 0
3, 110848, Note_on_c, 1, 48, 67
3, 111168, Note_on_c, 1, 31, 37
3, 111248, Note_on_c, 1, 31, 0
3, 111256, Note_on_c, 1, 48, 0
3, 111328, Note_on_c, 1, 36, 64
3, 111828, Note_on_c, 1, 50, 43
3, 111872, Note_on_c, 1, 36, 0
3, 112184, Note_on_c, 1, 36, 25
3, 112224, Note_on_c, 1, 36, 0
3, 112256, Note_on_c, 1, 50, 0
3, 112300, Note_on_c, 1, 43, 45
3, 112648, Note_on_c, 1, 36, 43
3, 112688, Note_on_c, 1, 36, 0
3, 112708, Note_on_c, 1, 43, 0
3, 112760, Note_on_c, 1, 32, 46
3, 113108, Note_on_c, 1, 32, 0
3, 113124, Note_on_c, 1, 38, 32
3, 113216, Note_on_c, 1, 38, 0
3, 113232, Note_on_c, 1, 31, 52
3, 113572, Note_on_c, 1, 38, 35
3, 113612, Note_on_c, 1, 38, 0
3, 113616, Note_on_c, 1, 31, 0
3, 113720, Note_on_c, 1, 48, 68
3, 113860, Note_on_c, 1, 48, 0
3, 113900, Note_on_c, 1, 48, 66
3, 114144, Note_on_c, 1, 48, 0
3, 114220, Note_on_c, 1, 48, 53
3, 114488, Note_on_c, 1, 48, 0
3, 114532, Note_on_c, 1, 31, 65
3, 114912, Note_on_c, 1, 38, 60
3, 114956, Note_on_c, 1, 38, 0
3, 114960, Note_on_c, 1, 31, 0
3, 115060, Note_on_c, 1, 35, 52
3, 115200, Note_on_c, 1, 35, 0
3, 115212, Note_on_c, 1, 36, 63
3, 115828, Note_on_c, 1, 38, 49
3, 115884, Note_on_c, 1, 36, 0
3, 115908, Note_on_c, 1, 38, 0
3, 115968, Note_on_c, 1, 39, 57
3, 116108, Note_on_c, 1, 39, 0
3, 116132, Note_on_c, 1, 40, 49
3, 116492, Note_on_c, 1, 36, 31
3, 116524, Note_on_c, 1, 36, 0
3, 116536, Note_on_c, 1, 40, 0
3, 116608, Note_on_c, 1, 43, 55
3, 116748, Note_on_c, 1, 43, 0
3, 116800, Note_on_c, 1, 36, 45
3, 116832, Note_on_c, 1, 36, 0
3, 116932, Note_on_c, 1, 42, 64
3, 117216, Note_on_c, 1, 42, 0
3, 117280, Note_on_c, 1, 41, 57
3, 117344, Note_on_c, 1, 41, 0
3, 117432, Note_on_c, 1, 36, 51
3, 117524, Note_on_c, 1, 36, 0
3, 117592, Note_on_c, 1, 30, 45
3, 118040, Note_on_c, 1, 30, 0
3, 118080, Note_on_c, 1, 29, 43
3, 118348, Note_on_c, 1, 29, 0
3, 118380, Note_on_c, 1, 35, 73
3, 118540, Note_on_c, 1, 35, 0
3, 118564, Note_on_c, 1, 33, 44
3, 119016, Note_on_c, 1, 33, 0
3, 119032, Note_on_c, 1, 34, 44
3, 119520, Note_on_c, 1, 41, 56
3, 119544, Note_on_c, 1, 34, 0
3, 119848, Note_on_c, 1, 34, 34
3, 119900, Note_on_c, 1, 34, 0
3, 119980, Note_on_c, 1, 41, 0
3, 120000, Note_on_c, 1, 39, 49
3, 120472, Note_on_c, 1, 35, 43
3, 120548, Note_on_c, 1, 39, 0
3, 120808, Note_on_c, 1, 34, 25
3, 120904, Note_on_c, 1, 35, 0
3, 120916, Note_on_c, 1, 34, 0
3, 120940, Note_on_c, 1, 36, 53
3, 121432, Note_on_c, 1, 36, 0
3, 121432, Note_on_c, 1, 43, 67
3, 121920, Note_on_c, 1, 31, 50
3, 121940, Note_on_c, 1, 43, 0
3, 122372, Note_on_c, 1, 43, 57
3, 122488, Note_on_c, 1, 31, 0
3, 122864, Note_on_c, 1, 43, 0
3, 122872, Note_on_c, 1, 31, 45
3, 123192, Note_on_c, 1, 38, 31
3, 123260, Note_on_c, 1, 38, 0
3, 123348, Note_on_c, 1, 43, 55
3, 123372, Note_on_c, 1, 31, 0
3, 123704, Note_on_c, 1, 38, 37
3, 123776, Note_on_c, 1, 38, 0
3, 123828, Note_on_c, 1, 31, 58
3, 124076, Note_on_c, 1, 43, 0
3, 124164, Note_on_c, 1, 38, 43
3, 124196, Note_on_c, 1, 38, 0
3, 124308, Note_on_c, 1, 42, 51
3, 124324, Note_on_c, 1, 41, 60
3, 124464, Note_on_c, 1, 41, 0
3, 124480, Note_on_c, 1, 31, 0
3, 124648, Note_on_c, 1, 38, 31
3, 124708, Note_on_c, 1, 38, 0
3, 124772, Note_on_c, 1, 42, 0
3, 124792, Note_on_c, 1, 43, 55
3, 125088, Note_on_c, 1, 34, 71
3, 125116, Note_on_c, 1, 43, 0
3, 125720, Note_on_c, 1, 34, 0
3, 125740, Note_on_c, 1, 31, 50
3, 126232, Note_on_c, 1, 35, 54
3, 126264, Note_on_c, 1, 31, 0
3, 126600, Note_on_c, 1, 34, 23
3, 126672, Note_on_c, 1, 35, 0
3, 126700, Note_on_c, 1, 34, 0
3, 126728, Note_on_c, 1, 36, 39
3, 126872, Note_on_c, 1, 50, 39
3, 126932, Note_on_c, 1, 50, 0
3, 127028, Note_on_c, 1, 51, 49
3, 127192, Note_on_c, 1, 51, 0
3, 127208, Note_on_c, 1, 52, 54
3, 127636, Note_on_c, 1, 52, 0
3, 127680, Note_on_c, 1, 48, 49
3, 127736, Note_on_c, 1, 36, 0
3, 127964, Note_on_c, 1, 48, 0
3, 128012, Note_on_c, 1, 41, 30
3, 128312, Note_on_c, 1, 41, 0
3, 128364, Note_on_c, 1, 42, 47
3, 128648, Note_on_c, 1, 42, 0
3, 128660, Note_on_c, 1, 43, 40
3, 128964, Note_on_c, 1, 48, 66
3, 129184, Note_on_c, 1, 43, 0
3, 129444, Note_on_c, 1, 38, 40
3, 129508, Note_on_c, 1, 48, 0
3, 129536, Note_on_c, 1, 38, 0
3, 129604, Note_on_c, 1, 31, 49
3, 129932, Note_on_c, 1, 31, 0
3, 129944, Note_on_c, 1, 34, 42
3, 130048, Note_on_c, 1, 34, 0
3, 130088, Note_on_c, 1, 35, 48
3, 130420, Note_on_c, 1, 34, 23
3, 130476, Note_on_c, 1, 35, 0
3, 130532, Note_on_c, 1, 34, 0
3, 130572, Note_on_c, 1, 36, 36
3, 130888, Note_on_c, 1, 38, 43
3, 130892, Note_on_c, 1, 36, 0
3, 130960, Note_on_c, 1, 38, 0
3, 131032, Note_on_c, 1, 39, 57
3, 131272, Note_on_c, 1, 39, 0
3, 131292, Pitch_bend_c, 1, 8192
3, 131300, Pitch_bend_c, 1, 8192
3, 131308, Pitch_bend_c, 1, 7424
3, 131312, Pitch_bend_c, 1, 7296
3, 131320, Pitch_bend_c, 1, 7040
3, 131324, Pitch_bend_c, 1, 6784
3, 131332, Pitch_bend_c, 1, 6528
3, 131340, Pitch_bend_c, 1, 6144
3, 131344, Pitch_bend_c, 1, 5888
3, 131348, Pitch_bend_c, 1, 5632
3, 131352, Pitch_bend_c, 1, 5376
3, 131360, Pitch_bend_c, 1, 4992
3, 131364, Pitch_bend_c, 1, 4736
3, 131368, Pitch_bend_c, 1, 4480
3, 131372, Pitch_bend_c, 1, 4096
3, 131380, Pitch_bend_c, 1, 3840
3, 131384, Pitch_bend_c, 1, 3712
3, 131388, Pitch_bend_c, 1, 3456
3, 131392, Pitch_bend_c, 1, 3200
3, 131400, Pitch_bend_c, 1, 3072
3, 131404, Pitch_bend_c, 1, 2944
3, 131408, Pitch_bend_c, 1, 2816
3, 131412, Pitch_bend_c, 1, 2560
3, 131420, Pitch_bend_c, 1, 2432
3, 131428, Pitch_bend_c, 1, 2304
3, 131440, Pitch_bend_c, 1, 2176
3, 131448, Pitch_bend_c, 1, 1920
3, 131468, Pitch_bend_c, 1, 1792
3, 131500, Pitch_bend_c, 1, 1920
3, 131504, Note_on_c, 1, 40, 58
3, 131512, Pitch_bend_c, 1, 2176
3, 131524, Pitch_bend_c, 1, 2304
3, 131528, Pitch_bend_c, 1, 2432
3, 131540, Pitch_bend_c, 1, 2560
3, 131544, Pitch_bend_c, 1, 2688
3, 131548, Pitch_bend_c, 1, 2816
3, 131552, Pitch_bend_c, 1, 2944
3, 131564, Pitch_bend_c, 1, 3072
3, 131568, Pitch_bend_c, 1, 3200
3, 131580, Pitch_bend_c, 1, 3456
3, 131588, Pitch_bend_c, 1, 3584
3, 131592, Pitch_bend_c, 1, 3712
3, 131604, Pitch_bend_c, 1, 3840
3, 131608, Pitch_bend_c, 1, 3968
3, 131620, Pitch_bend_c, 1, 4096
3, 131624, Pitch_bend_c, 1, 4224
3, 131632, Pitch_bend_c, 1, 4352
3, 131644, Pitch_bend_c, 1, 4608
3, 131652, Pitch_bend_c, 1, 4736
3, 131664, Pitch_bend_c, 1, 4864
3, 131668, Pitch_bend_c, 1, 4992
3, 131672, Pitch_bend_c, 1, 5120
3, 131684, Pitch_bend_c, 1, 5376
3, 131700, Pitch_bend_c, 1, 5504
3, 131720, Pitch_bend_c, 1, 5632
3, 131728, Pitch_bend_c, 1, 5760
3, 131744, Pitch_bend_c, 1, 5888
3, 131752, Pitch_bend_c, 1, 6016
3, 131764, Pitch_bend_c, 1, 6144
3, 131768, Pitch_bend_c, 1, 6272
3, 131780, Pitch_bend_c, 1, 6400
3, 131784, Pitch_bend_c, 1, 6528
3, 131800, Pitch_bend_c, 1, 6784
3, 131808, Pitch_bend_c, 1, 6912
3, 131820, Pitch_bend_c, 1, 7168
3, 131824, Pitch_bend_c, 1, 7296
3, 131832, Pitch_bend_c, 1, 7552
3, 131840, Pitch_bend_c, 1, 7680
3, 131844, Pitch_bend_c, 1, 8192
3, 131852, Pitch_bend_c, 1, 8192
3, 131864, Pitch_bend_c, 1, 8192
3, 131868, Pitch_bend_c, 1, 8192
3, 132228, Note_on_c, 1, 43, 54
3, 132248, Note_on_c, 1, 40, 0
3, 132312, Note_on_c, 1, 43, 0
3, 132368, Note_on_c, 1, 42, 67
3, 132476, Note_on_c, 1, 42, 0
3, 132540, Note_on_c, 1, 41, 54
3, 132688, Pitch_bend_c, 1, 8192
3, 132688, Pitch_bend_c, 1, 8192
3, 132692, Pitch_bend_c, 1, 7552
3, 132700, Pitch_bend_c, 1, 7168
3, 132704, Pitch_bend_c, 1, 6784
3, 132708, Pitch_bend_c, 1, 6400
3, 132712, Pitch_bend_c, 1, 6016
3, 132724, Pitch_bend_c, 1, 5632
3, 132728, Pitch_bend_c, 1, 5376
3, 132732, Pitch_bend_c, 1, 4864
3, 132740, Pitch_bend_c, 1, 4608
3, 132744, Pitch_bend_c, 1, 4352
3, 132748, Pitch_bend_c, 1, 4096
3, 132752, Pitch_bend_c, 1, 3968
3, 132760, Pitch_bend_c, 1, 3712
3, 132764, Pitch_bend_c, 1, 3584
3, 132772, Pitch_bend_c, 1, 3456
3, 132804, Pitch_bend_c, 1, 3712
3, 132812, Pitch_bend_c, 1, 3840
3, 132824, Pitch_bend_c, 1, 3968
3, 132840, Pitch_bend_c, 1, 4096
3, 132852, Pitch_bend_c, 1, 4352
3, 132860, Pitch_bend_c, 1, 4480
3, 132864, Pitch_bend_c, 1, 4608
3, 132868, Pitch_bend_c, 1, 4736
3, 132872, Pitch_bend_c, 1, 5120
3, 132880, Pitch_bend_c, 1, 5504
3, 132884, Pitch_bend_c, 1, 5888
3, 132888, Pitch_bend_c, 1, 6272
3, 132892, Pitch_bend_c, 1, 6784
3, 132900, Pitch_bend_c, 1, 7168
3, 132904, Pitch_bend_c, 1, 7680
3, 132908, Pitch_bend_c, 1, 8192
3, 132912, Pitch_bend_c, 1, 8192
3, 133012, Pitch_bend_c, 1, 8192
3, 133020, Pitch_bend_c, 1, 8192
3, 133028, Pitch_bend_c, 1, 7552
3, 133032, Pitch_bend_c, 1, 7296
3, 133040, Pitch_bend_c, 1, 7040
3, 133044, Pitch_bend_c, 1, 6784
3, 133048, Pitch_bend_c, 1, 6528
3, 133052, Pitch_bend_c, 1, 6400
3, 133060, Pitch_bend_c, 1, 6272
3, 133068, Pitch_bend_c, 1, 6016
3, 133072, Pitch_bend_c, 1, 5888
3, 133080, Pitch_bend_c, 1, 5760
3, 133088, Pitch_bend_c, 1, 5504
3, 133100, Pitch_bend_c, 1, 5376
3, 133104, Pitch_bend_c, 1, 5120
3, 133108, Pitch_bend_c, 1, 4992
3, 133148, Pitch_bend_c, 1, 5376
3, 133152, Pitch_bend_c, 1, 5504
3, 133160, Pitch_bend_c, 1, 5632
3, 133164, Pitch_bend_c, 1, 5760
3, 133168, Pitch_bend_c, 1, 6016
3, 133172, Pitch_bend_c, 1, 6144
3, 133180, Pitch_bend_c, 1, 6400
3, 133184, Pitch_bend_c, 1, 6656
3, 133188, Pitch_bend_c, 1, 6912
3, 133192, Pitch_bend_c, 1, 7168
3, 133200, Pitch_bend_c, 1, 7424
3, 133204, Pitch_bend_c, 1, 8192
3, 133204, Pitch_bend_c, 1, 8192
3, 133208, Pitch_bend_c, 1, 8192
3, 133212, Pitch_bend_c, 1, 8192
3, 133272, Pitch_bend_c, 1, 8192
3, 133300, Pitch_bend_c, 1, 8192
3, 133364, Pitch_bend_c, 1, 8192
3, 133368, Pitch_bend_c, 1, 8192
3, 133372, Pitch_bend_c, 1, 7680
3, 133380, Pitch_bend_c, 1, 7424
3, 133384, Pitch_bend_c, 1, 7040
3, 133388, Pitch_bend_c, 1, 6784
3, 133392, Pitch_bend_c, 1, 6528
3, 133400, Pitch_bend_c, 1, 6144
3, 133408, Pitch_bend_c, 1, 5888
3, 133412, Pitch_bend_c, 1, 5632
3, 133420, Pitch_bend_c, 1, 5376
3, 133424, Pitch_bend_c, 1, 4992
3, 133428, Pitch_bend_c, 1, 4736
3, 133432, Pitch_bend_c, 1, 4608
3, 133440, Pitch_bend_c, 1, 4352
3, 133444, Pitch_bend_c, 1, 4096
3, 133448, Pitch_bend_c, 1, 3968
3, 133452, Pitch_bend_c, 1, 3840
3, 133460, Pitch_bend_c, 1, 3712
3, 133488, Pitch_bend_c, 1, 4096
3, 133492, Pitch_bend_c, 1, 4224
3, 133500, Pitch_bend_c, 1, 4480
3, 133504, Pitch_bend_c, 1, 4736
3, 133512, Pitch_bend_c, 1, 5120
3, 133520, Pitch_bend_c, 1, 5632
3, 133524, Pitch_bend_c, 1, 6144
3, 133528, Pitch_bend_c, 1, 6656
3, 133532, Pitch_bend_c, 1, 7040
3, 133540, Pitch_bend_c, 1, 7552
3, 133544, Pitch_bend_c, 1, 8192
3, 133544, Pitch_bend_c, 1, 8192
3, 134004, Note_on_c, 1, 36, 66
3, 134008, Note_on_c, 1, 41, 0
3, 134028, Note_on_c, 1, 36, 0
3, 134272, Note_on_c, 1, 35, 66
3, 134424, Note_on_c, 1, 35, 0
3, 134448, Note_on_c, 1, 34, 42
3, 134904, Note_on_c, 1, 46, 56
3, 134908, Note_on_c, 1, 34, 0
3, 135272, Note_on_c, 1, 38, 47
3, 135312, Note_on_c, 1, 38, 0
3, 135372, Note_on_c, 1, 46, 0
3, 135372, Note_on_c, 1, 39, 34
3, 135844, Note_on_c, 1, 51, 51
3, 135856, Note_on_c, 1, 39, 0
3, 136272, Note_on_c, 1, 51, 0
3, 136320, Note_on_c, 1, 35, 41
3, 136640, Note_on_c, 1, 35, 0
3, 136648, Note_on_c, 1, 36, 62
3, 136824, Note_on_c, 1, 40, 54
3, 136888, Note_on_c, 1, 36, 0
3, 137068, Note_on_c, 1, 40, 0
3, 137112, Note_on_c, 1, 43, 77
3, 137244, Note_on_c, 1, 43, 0
3, 137284, Note_on_c, 1, 44, 62
3, 137548, Note_on_c, 1, 44, 0
3, 137580, Note_on_c, 1, 45, 57
3, 137692, Note_on_c, 1, 45, 0
3, 137748, Note_on_c, 1, 35, 35
3, 138032, Note_on_c, 1, 35, 0
3, 138052, Note_on_c, 1, 36, 52
3, 138412, Note_on_c, 1, 45, 40
3, 138464, Note_on_c, 1, 45, 0
3, 138548, Note_on_c, 1, 44, 46
3, 138688, Note_on_c, 1, 44, 0
3, 138720, Note_on_c, 1, 43, 39
3, 139000, Note_on_c, 1, 43, 0
3, 139024, Note_on_c, 1, 50, 68
3, 139136, Note_on_c, 1, 36, 0
3, 139532, Note_on_c, 1, 36, 41
3, 139604, Note_on_c, 1, 36, 0
3, 139824, Note_on_c, 1, 49, 48
3, 139852, Note_on_c, 1, 50, 0
3, 139892, Note_on_c, 1, 49, 0
3, 139980, Note_on_c, 1, 42, 55
3, 140112, Note_on_c, 1, 42, 0
3, 140160, Note_on_c, 1, 43, 38
3, 140428, Note_on_c, 1, 43, 0
3, 140460, Note_on_c, 1, 38, 53
3, 140488, Note_on_c, 1, 38, 0
3, 140640, Note_on_c, 1, 34, 54
3, 141100, Note_on_c, 1, 34, 0
3, 141112, Note_on_c, 1, 38, 60
3, 141564, Note_on_c, 1, 38, 0
3, 141600, Note_on_c, 1, 37, 40
3, 141928, Note_on_c, 1, 34, 25
3, 141980, Note_on_c, 1, 37, 0
3, 142056, Note_on_c, 1, 34, 0
3, 142064, Note_on_c, 1, 36, 38
3, 142364, Note_on_c, 1, 51, 50
3, 142452, Note_on_c, 1, 51, 0
3, 142532, Note_on_c, 1, 52, 57
3, 142596, Note_on_c, 1, 52, 0
3, 142704, Note_on_c, 1, 48, 53
3, 142984, Note_on_c, 1, 48, 0
3, 143040, Note_on_c, 1, 43, 46
3, 143104, Note_on_c, 1, 36, 0
3, 143360, Note_on_c, 1, 36, 29
3, 143392, Note_on_c, 1, 36, 0
3, 143440, Note_on_c, 1, 43, 0
3, 143512, Note_on_c, 1, 42, 32
3, 143924, Note_on_c, 1, 42, 0
3, 143940, Control_c, 1, 1, 5
3, 143940, Control_c, 1, 1, 3
3, 143944, Control_c, 1, 1, 6
3, 143944, Control_c, 1, 1, 8
3, 143948, Control_c, 1, 1, 10
3, 143948, Control_c, 1, 1, 13
3, 143952, Control_c, 1, 1, 17
3, 143952, Control_c, 1, 1, 15
3, 143960, Control_c, 1, 1, 20
3, 143964, Control_c, 1, 1, 24
3, 143964, Control_c, 1, 1, 22
3, 143968, Control_c, 1, 1, 29
3, 143968, Control_c, 1, 1, 27
3, 143972, Control_c, 1, 1, 34
3, 143972, Control_c, 1, 1, 31
3, 143980, Control_c, 1, 1, 36
3, 143980, Note_on_c, 1, 43, 50
3, 143984, Control_c, 1, 1, 41
3, 143984, Control_c, 1, 1, 39
3, 143988, Control_c, 1, 1, 46
3, 143988, Control_c, 1, 1, 43
3, 143992, Control_c, 1, 1, 49
3, 143992, Control_c, 1, 1, 47
3, 144000, Control_c, 1, 1, 51
3, 144000, Control_c, 1, 1, 53
3, 144004, Control_c, 1, 1, 55
3, 144004, Control_c, 1, 1, 57
3, 144008, Control_c, 1, 1, 59
3, 144012, Control_c, 1, 1, 60
3, 144012, Control_c, 1, 1, 62
3, 144020, Control_c, 1, 1, 65
3, 144020, Control_c, 1, 1, 64
3, 144024, Control_c, 1, 1, 69
3, 144024, Control_c, 1, 1, 67
3, 144028, Control_c, 1, 1, 70
3, 144028, Control_c, 1, 1, 71
3, 144032, Control_c, 1, 1, 73
3, 144032, Control_c, 1, 1, 74
3, 144040, Control_c, 1, 1, 76
3, 144040, Control_c, 1, 1, 75
3, 144044, Control_c, 1, 1, 78
3, 144052, Control_c, 1, 1, 81
3, 144052, Control_c, 1, 1, 80
3, 144060, Control_c, 1, 1, 83
3, 144060, Control_c, 1, 1, 82
3, 144068, Control_c, 1, 1, 84
3, 144068, Control_c, 1, 1, 85
3, 144080, Control_c, 1, 1, 87
3, 144084, Control_c, 1, 1, 88
3, 144092, Control_c, 1, 1, 90
3, 144172, Control_c, 1, 1, 88
3, 144184, Control_c, 1, 1, 87
3, 144192, Control_c, 1, 1, 85
3, 144204, Control_c, 1, 1, 84
3, 144212, Control_c, 1, 1, 82
3, 144212, Control_c, 1, 1, 81
3, 144224, Control_c, 1, 1, 80
3, 144224, Control_c, 1, 1, 79
3, 144232, Control_c, 1, 1, 77
3, 144232, Control_c, 1, 1, 76
3, 144244, Control_c, 1, 1, 72
3, 144244, Control_c, 1, 1, 73
3, 144248, Control_c, 1, 1, 70
3, 144248, Control_c, 1, 1, 71
3, 144252, Control_c, 1, 1, 67
3, 144252, Control_c, 1, 1, 68
3, 144260, Control_c, 1, 1, 65
3, 144264, Control_c, 1, 1, 62
3, 144264, Control_c, 1, 1, 64
3, 144268, Control_c, 1, 1, 59
3, 144268, Control_c, 1, 1, 61
3, 144272, Control_c, 1, 1, 57
3, 144272, Control_c, 1, 1, 55
3, 144280, Control_c, 1, 1, 54
3, 144280, Control_c, 1, 1, 52
3, 144284, Control_c, 1, 1, 48
3, 144284, Control_c, 1, 1, 50
3, 144288, Control_c, 1, 1, 47
3, 144292, Control_c, 1, 1, 45
3, 144292, Control_c, 1, 1, 42
3, 144300, Control_c, 1, 1, 39
3, 144300, Control_c, 1, 1, 41
3, 144304, Control_c, 1, 1, 37
3, 144304, Control_c, 1, 1, 35
3, 144308, Control_c, 1, 1, 31
3, 144308, Control_c, 1, 1, 33
3, 144312, Control_c, 1, 1, 29
3, 144312, Control_c, 1, 1, 27
3, 144320, Control_c, 1, 1, 24
3, 144320, Control_c, 1, 1, 22
3, 144324, Control_c, 1, 1, 18
3, 144324, Control_c, 1, 1, 20
3, 144328, Control_c, 1, 1, 16
3, 144332, Control_c, 1, 1, 11
3, 144332, Control_c, 1, 1, 13
3, 144340, Control_c, 1, 1, 9
3, 144340, Control_c, 1, 1, 6
3, 144344, Control_c, 1, 1, 3
3, 144344, Control_c, 1, 1, 4
3, 144348, Control_c, 1, 1, 1
3, 144404, Note_on_c, 1, 43, 0
3, 144752, Note_on_c, 1, 38, 53
3, 144872, Note_on_c, 1, 38, 0
3, 144928, Note_on_c, 1, 41, 58
3, 144948, Pitch_bend_c, 1, 8192
3, 144952, Pitch_bend_c, 1, 8192
3, 144964, Pitch_bend_c, 1, 8842
3, 144968, Pitch_bend_c, 1, 8972
3, 144972, Pitch_bend_c, 1, 9232
3, 144980, Pitch_bend_c, 1, 9492
3, 144984, Pitch_bend_c, 1, 9752
3, 144988, Pitch_bend_c, 1, 9882
3, 144992, Pitch_bend_c, 1, 10142
3, 145000, Pitch_bend_c, 1, 10402
3, 145008, Pitch_bend_c, 1, 10662
3, 145012, Pitch_bend_c, 1, 10792
3, 145020, Pitch_bend_c, 1, 11052
3, 145024, Pitch_bend_c, 1, 11442
3, 145028, Pitch_bend_c, 1, 11572
3, 145032, Pitch_bend_c, 1, 11832
3, 145040, Pitch_bend_c, 1, 11962
3, 145044, Pitch_bend_c, 1, 12092
3, 145048, Pitch_bend_c, 1, 12222
3, 145060, Pitch_bend_c, 1, 12352
3, 145080, Pitch_bend_c, 1, 12092
3, 145084, Pitch_bend_c, 1, 11962
3, 145088, Pitch_bend_c, 1, 11702
3, 145092, Pitch_bend_c, 1, 11442
3, 145100, Pitch_bend_c, 1, 11052
3, 145104, Pitch_bend_c, 1, 10792
3, 145108, Pitch_bend_c, 1, 10402
3, 145112, Pitch_bend_c, 1, 10142
3, 145120, Pitch_bend_c, 1, 9882
3, 145124, Pitch_bend_c, 1, 9622
3, 145128, Pitch_bend_c, 1, 9232
3, 145132, Pitch_bend_c, 1, 8972
3, 145140, Pitch_bend_c, 1, 8842
3, 145144, Pitch_bend_c, 1, 8192
3, 145148, Pitch_bend_c, 1, 8192
3, 145148, Pitch_bend_c, 1, 8192
3, 145160, Pitch_bend_c, 1, 8192
3, 145192, Pitch_bend_c, 1, 8192
3, 145200, Pitch_bend_c, 1, 8192
3, 145212, Pitch_bend_c, 1, 8712
3, 145220, Pitch_bend_c, 1, 8972
3, 145224, Pitch_bend_c, 1, 9232
3, 145228, Pitch_bend_c, 1, 9622
3, 145232, Pitch_bend_c, 1, 9882
3, 145240, Pitch_bend_c, 1, 10272
3, 145244, Pitch_bend_c, 1, 10662
3, 145248, Pitch_bend_c, 1, 11052
3, 145252, Pitch_bend_c, 1, 11442
3, 145260, Pitch_bend_c, 1, 11832
3, 145264, Pitch_bend_c, 1, 12092
3, 145268, Pitch_bend_c, 1, 12482
3, 145272, Pitch_bend_c, 1, 12742
3, 145280, Pitch_bend_c, 1, 13002
3, 145284, Pitch_bend_c, 1, 13262
3, 145288, Pitch_bend_c, 1, 13522
3, 145292, Pitch_bend_c, 1, 13652
3, 145300, Pitch_bend_c, 1, 13782
3, 145332, Pitch_bend_c, 1, 13522
3, 145340, Pitch_bend_c, 1, 13392
3, 145344, Pitch_bend_c, 1, 13132
3, 145348, Pitch_bend_c, 1, 12872
3, 145352, Pitch_bend_c, 1, 12612
3, 145360, Pitch_bend_c, 1, 12352
3, 145364, Pitch_bend_c, 1, 12092
3, 145368, Pitch_bend_c, 1, 11702
3, 145372, Pitch_bend_c, 1, 11312
3, 145380, Pitch_bend_c, 1, 10792
3, 145384, Pitch_bend_c, 1, 10402
3, 145388, Pitch_bend_c, 1, 10012
3, 145392, Pitch_bend_c, 1, 9622
3, 145400, Pitch_bend_c, 1, 9232
3, 145404, Pitch_bend_c, 1, 8972
3, 145408, Pitch_bend_c, 1, 8712
3, 145412, Pitch_bend_c, 1, 8192
3, 145420, Pitch_bend_c, 1, 8192
3, 145428, Pitch_bend_c, 1, 8192
3, 145460, Pitch_bend_c, 1, 8192
3, 145472, Pitch_bend_c, 1, 8192
3, 145764, Note_on_c, 1, 38, 44
3, 145880, Note_on_c, 1, 41, 0
3, 145932, Note_on_c, 1, 38, 0
3, 145952, Note_on_c, 1, 40, 58
3, 146216, Note_on_c, 1, 40, 0
3, 146260, Note_on_c, 1, 36, 71
3, 146464, Note_on_c, 1, 48, 55
3, 146564, Note_on_c, 1, 36, 0
3, 146884, Note_on_c, 1, 48, 0
3, 146892, Note_on_c, 1, 43, 38
3, 147208, Note_on_c, 1, 38, 47
3, 147252, Note_on_c, 1, 43, 0
3, 147320, Note_on_c, 1, 38, 0
3, 147348, Note_on_c, 1, 42, 46
3, 147960, Note_on_c, 1, 41, 56
3, 147976, Note_on_c, 1, 42, 0
3, 147984, Note_on_c, 1, 41, 0
3, 148120, Note_on_c, 1, 36, 55
3, 148200, Note_on_c, 1, 36, 0
3, 148292, Note_on_c, 1, 33, 37
3, 148776, Note_on_c, 1, 33, 0
3, 148788, Note_on_c, 1, 31, 44
3, 149080, Note_on_c, 1, 31, 0
3, 149092, Note_on_c, 1, 29, 53
3, 149156, Note_on_c, 1, 29, 0
3, 149240, Note_on_c, 1, 33, 57
3, 149680, Note_on_c, 1, 33, 0
3, 149724, Note_on_c, 1, 34, 37
3, 150124, Note_on_c, 1, 33, 33
3, 150224, Note_on_c, 1, 41, 50
3, 150236, Note_on_c, 1, 33, 0
3, 150264, Note_on_c, 1, 34, 0
3, 150684, Note_on_c, 1, 41, 0
3, 150692, Note_on_c, 1, 39, 34
3, 151164, Note_on_c, 1, 39, 0
3, 151204, Note_on_c, 1, 35, 59
3, 151584, Note_on_c, 1, 34, 21
3, 151656, Note_on_c, 1, 35, 0
3, 151668, Note_on_c, 1, 34, 0
3, 151672, Note_on_c, 1, 36, 44
3, 152004, Note_on_c, 1, 45, 78
3, 152128, Note_on_c, 1, 45, 0
3, 152136, Note_on_c, 1, 36, 0
3, 152180, Note_on_c, 1, 44, 35
3, 152472, Note_on_c, 1, 34, 38
3, 152524, Note_on_c, 1, 34, 0
3, 152608, Note_on_c, 1, 44, 0
3, 152620, Note_on_c, 1, 43, 43
3, 152652, Note_on_c, 1, 43, 0
3, 152772, Note_on_c, 1, 38, 55
3, 152884, Note_on_c, 1, 38, 0
3, 152928, Note_on_c, 1, 38, 26
3, 153072, Note_on_c, 1, 38, 0
3, 153120, Note_on_c, 1, 35, 55
3, 153424, Note_on_c, 1, 35, 0
3, 153432, Note_on_c, 1, 36, 71
3, 154072, Note_on_c, 1, 38, 40
3, 154076, Note_on_c, 1, 36, 0
3, 154392, Note_on_c, 1, 38, 0
3, 154400, Note_on_c, 1, 36, 35
3, 154528, Note_on_c, 1, 40, 49
3, 154552, Note_on_c, 1, 36, 0
3, 154872, Note_on_c, 1, 36, 38
3, 154916, Note_on_c, 1, 36, 0
3, 154956, Note_on_c, 1, 40, 0
3, 155004, Note_on_c, 1, 42, 60
3, 155324, Note_on_c, 1, 36, 32
3, 155368, Note_on_c, 1, 36, 0
3, 155476, Note_on_c, 1, 42, 0
3, 155500, Note_on_c, 1, 41, 37
3, 155812, Note_on_c, 1, 51, 67
3, 155828, Note_on_c, 1, 41, 0
3, 155932, Note_on_c, 1, 51, 0
3, 155980, Note_on_c, 1, 44, 37
3, 156284, Note_on_c, 1, 44, 0
3, 156304, Note_on_c, 1, 36, 47
3, 156324, Note_on_c, 1, 41, 22
3, 156352, Note_on_c, 1, 41, 0
3, 156376, Note_on_c, 1, 36, 0
3, 156448, Note_on_c, 1, 46, 39
3, 156932, Note_on_c, 1, 46, 0
3, 156944, Note_on_c, 1, 34, 46
3, 157272, Note_on_c, 1, 35, 45
3, 157324, Note_on_c, 1, 34, 0
3, 157392, Note_on_c, 1, 35, 0
3, 157424, Note_on_c, 1, 36, 31
3, 157844, Note_on_c, 1, 34, 19
3, 157908, Note_on_c, 1, 36, 0
3, 157928, Note_on_c, 1, 45, 47
3, 157968, Note_on_c, 1, 34, 0
3, 158352, Note_on_c, 1, 45, 0
3, 158400, Note_on_c, 1, 43, 46
3, 158832, Note_on_c, 1, 43, 0
3, 158872, Note_on_c, 1, 50, 57
3, 159184, Note_on_c, 1, 43, 33
3, 159224, Note_on_c, 1, 50, 0
3, 159372, Note_on_c, 1, 43, 0
3, 159384, Note_on_c, 1, 53, 12
3, 159680, Note_on_c, 1, 43, 33
3, 159704, Note_on_c, 1, 53, 0
3, 159724, Note_on_c, 1, 43, 0
3, 159800, Note_on_c, 1, 44, 32
3, 160260, Note_on_c, 1, 44, 0
3, 160272, Note_on_c, 1, 46, 44
3, 160760, Note_on_c, 1, 34, 40
3, 160820, Note_on_c, 1, 46, 0
3, 161232, Note_on_c, 1, 36, 43
3, 161240, Note_on_c, 1, 34, 0
3, 161708, Note_on_c, 1, 50, 44
3, 161784, Note_on_c, 1, 36, 0
3, 162176, Note_on_c, 1, 50, 0
3, 162200, Note_on_c, 1, 48, 42
3, 163024, Note_on_c, 1, 45, 74
3, 163128, Note_on_c, 1, 45, 0
3, 163180, Note_on_c, 1, 44, 42
3, 163832, Note_on_c, 1, 39, 38
3, 163852, Note_on_c, 1, 44, 0
3, 163872, Note_on_c, 1, 48, 0
3, 163956, Note_on_c, 1, 39, 0
3, 163980, Note_on_c, 1, 38, 51
3, 164160, Note_on_c, 1, 38, 0
3, 164168, Note_on_c, 1, 37, 45
3, 164844, Note_on_c, 1, 40, 68
3, 164872, Note_on_c, 1, 37, 0
3, 164884, Note_on_c, 1, 40, 0
3, 164964, Note_on_c, 1, 37, 54
3, 165112, Note_on_c, 1, 37, 0
3, 165132, Note_on_c, 1, 39, 52
3, 165940, Note_on_c, 1, 39, 0
3, 165952, Note_on_c, 1, 38, 24
3, 166004, Note_on_c, 1, 38, 0
3, 166092, Note_on_c, 1, 39, 48
3, 166552, Note_on_c, 1, 39, 0
3, 166560, Note_on_c, 1, 34, 38
3, 166912, Note_on_c, 1, 36, 32
3, 166956, Note_on_c, 1, 36, 0
3, 167012, Note_on_c, 1, 34, 0
3, 167044, Note_on_c, 1, 39, 43
3, 167812, Note_on_c, 1, 45, 48
3, 167844, Note_on_c, 1, 39, 0
3, 167920, Note_on_c, 1, 45, 0
3, 167992, Note_on_c, 1, 44, 32
3, 168320, Note_on_c, 1, 39, 43
3, 168380, Note_on_c, 1, 39, 0
3, 168444, Note_on_c, 1, 44, 0
3, 168468, Note_on_c, 1, 32, 37
3, 168824, Note_on_c, 1, 37, 33
3, 168876, Note_on_c, 1, 37, 0
3, 168968, Note_on_c, 1, 39, 60
3, 169012, Note_on_c, 1, 32, 0
3, 169060, Note_on_c, 1, 39, 0
3, 169080, Note_on_c, 1, 38, 50
3, 169372, Note_on_c, 1, 38, 0
3, 169432, Note_on_c, 1, 44, 62
3, 169740, Note_on_c, 1, 43, 58
3, 169844, Note_on_c, 1, 44, 0
3, 170080, Note_on_c, 1, 38, 50
3, 170140, Note_on_c, 1, 38, 0
3, 170232, Note_on_c, 1, 34, 45
3, 170308, Note_on_c, 1, 43, 0
3, 170352, Note_on_c, 1, 34, 0
3, 170388, Note_on_c, 1, 35, 56
3, 170652, Note_on_c, 1, 42, 74
3, 170688, Note_on_c, 1, 35, 0
3, 170840, Note_on_c, 1, 42, 0
3, 170868, Note_on_c, 1, 43, 50
3, 170960, Note_on_c, 1, 43, 0
3, 171024, Note_on_c, 1, 38, 46
3, 171068, Note_on_c, 1, 38, 0
3, 171168, Note_on_c, 1, 34, 52
3, 171276, Note_on_c, 1, 34, 0
3, 171340, Note_on_c, 1, 33, 53
3, 171424, Note_on_c, 1, 33, 0
3, 171472, Note_on_c, 1, 32, 67
3, 171632, Note_on_c, 1, 32, 0
3, 171664, Note_on_c, 1, 31, 64
3, 171892, Note_on_c, 1, 40, 36
3, 171900, Note_on_c, 1, 38, 36
3, 171960, Note_on_c, 1, 40, 0
3, 172156, Note_on_c, 1, 31, 0
3, 172228, Note_on_c, 1, 34, 47
3, 172248, Note_on_c, 1, 38, 0
3, 172392, Note_on_c, 1, 35, 43
3, 172416, Note_on_c, 1, 34, 0
3, 172660, Note_on_c, 1, 34, 36
3, 172700, Note_on_c, 1, 35, 0
3, 172764, Note_on_c, 1, 34, 0
3, 172800, Note_on_c, 1, 36, 51
3, 173124, Note_on_c, 1, 34, 20
3, 173160, Note_on_c, 1, 36, 0
3, 173268, Note_on_c, 1, 38, 50
3, 173308, Note_on_c, 1, 34, 0
3, 173564, Note_on_c, 1, 34, 25
3, 173620, Note_on_c, 1, 38, 0
3, 173688, Note_on_c, 1, 34, 0
3, 173764, Note_on_c, 1, 40, 31
3, 174100, Note_on_c, 1, 37, 21
3, 174188, Note_on_c, 1, 37, 0
3, 174220, Note_on_c, 1, 48, 58
3, 174228, Note_on_c, 1, 40, 0
3, 174328, Note_on_c, 1, 48, 0
3, 174544, Note_on_c, 1, 44, 69
3, 174684, Note_on_c, 1, 44, 0
3, 174728, Note_on_c, 1, 43, 37
3, 175028, Note_on_c, 1, 38, 48
3, 175072, Note_on_c, 1, 43, 0
3, 175116, Note_on_c, 1, 38, 0
3, 175180, Note_on_c, 1, 34, 48
3, 175660, Note_on_c, 1, 46, 46
3, 175672, Note_on_c, 1, 34, 0
3, 175992, Note_on_c, 1, 38, 45
3, 176032, Note_on_c, 1, 38, 0
3, 176064, Note_on_c, 1, 46, 0
3, 176124, Note_on_c, 1, 35, 48
3, 176480, Note_on_c, 1, 34, 30
3, 176524, Note_on_c, 1, 35, 0
3, 176572, Note_on_c, 1, 34, 0
3, 176608, Note_on_c, 1, 36, 42
3, 177092, Note_on_c, 1, 36, 0
3, 177092, Note_on_c, 1, 38, 42
3, 177428, Note_on_c, 1, 36, 32
3, 177480, Note_on_c, 1, 36, 0
3, 177540, Note_on_c, 1, 38, 0
3, 177572, Note_on_c, 1, 40, 45
3, 177912, Note_on_c, 1, 36, 53
3, 177976, Note_on_c, 1, 36, 0
3, 178024, Note_on_c, 1, 40, 0
3, 178072, Note_on_c, 1, 42, 51
3, 178516, Note_on_c, 1, 42, 0
3, 178544, Note_on_c, 1, 41, 41
3, 178852, Note_on_c, 1, 36, 49
3, 178936, Note_on_c, 1, 36, 0
3, 178964, Note_on_c, 1, 41, 0
3, 179008, Note_on_c, 1, 29, 46
3, 179360, Note_on_c, 1, 36, 32
3, 179404, Note_on_c, 1, 36, 0
3, 179504, Note_on_c, 1, 41, 37
3, 179508, Note_on_c, 1, 29, 0
3, 179828, Note_on_c, 1, 36, 51
3, 179912, Note_on_c, 1, 36, 0
3, 179972, Note_on_c, 1, 41, 0
3, 179984, Note_on_c, 1, 29, 41
3, 180400, Note_on_c, 1, 34, 37
3, 180412, Note_on_c, 1, 29, 0
3, 180448, Note_on_c, 1, 34, 0
3, 180480, Note_on_c, 1, 46, 53
3, 180764, Note_on_c, 1, 46, 0
3, 180804, Note_on_c, 1, 34, 43
3, 180892, Note_on_c, 1, 34, 0
3, 180948, Note_on_c, 1, 38, 33
3, 181376, Note_on_c, 1, 38, 0
3, 181412, Note_on_c, 1, 39, 38
3, 181840, Note_on_c, 1, 39, 0
3, 181904, Note_on_c, 1, 39, 35
3, 182384, Note_on_c, 1, 35, 37
3, 182404, Note_on_c, 1, 39, 0
3, 182688, Note_on_c, 1, 35, 0
3, 182692, Note_on_c, 1, 36, 64
3, 182884, Note_on_c, 1, 36, 0
3, 182888, Note_on_c, 1, 40, 37
3, 183188, Note_on_c, 1, 40, 0
3, 183200, Note_on_c, 1, 43, 76
3, 183344, Note_on_c, 1, 43, 0
3, 183388, Note_on_c, 1, 44, 77
3, 183616, Note_on_c, 1, 44, 0
3, 183680, Note_on_c, 1, 45, 74
3, 183840, Note_on_c, 1, 45, 0
3, 183860, Note_on_c, 1, 35, 51
3, 184148, Note_on_c, 1, 35, 0
3, 184164, Note_on_c, 1, 36, 72
3, 184528, Note_on_c, 1, 45, 42
3, 184600, Note_on_c, 1, 45, 0
3, 184672, Note_on_c, 1, 44, 53
3, 184824, Note_on_c, 1, 44, 0
3, 184828, Note_on_c, 1, 43, 53
3, 184888, Note_on_c, 1, 36, 0
3, 185624, Note_on_c, 1, 36, 37
3, 185672, Note_on_c, 1, 36, 0
3, 185712, Note_on_c, 1, 43, 0
3, 185752, Note_on_c, 1, 49, 73
3, 186080, Note_on_c, 1, 42, 26
3, 186108, Note_on_c, 1, 42, 0
3, 186180, Note_on_c, 1, 49, 0
3, 186240, Note_on_c, 1, 48, 57
3, 186568, Note_on_c, 1, 43, 40
3, 186600, Note_on_c, 1, 48, 0
3, 186708, Note_on_c, 1, 43, 0
3, 186732, Note_on_c, 1, 38, 47
3, 187144, Note_on_c, 1, 38, 0
3, 187184, Note_on_c, 1, 34, 48
3, 187632, Note_on_c, 1, 34, 0
3, 187652, Note_on_c, 1, 35, 53
3, 188028, Note_on_c, 1, 34, 18
3, 188080, Note_on_c, 1, 35, 0
3, 188092, Note_on_c, 1, 34, 0
3, 188108, Note_on_c, 1, 36, 44
3, 188200, Note_on_c, 1, 36, 0
3, 188240, Note_on_c, 1, 38, 47
3, 188340, Note_on_c, 1, 38, 0
3, 188380, Note_on_c, 1, 39, 37
3, 188472, Note_on_c, 1, 39, 0
3, 188504, Note_on_c, 1, 40, 47
3, 188576, Note_on_c, 1, 40, 0
3, 188632, Note_on_c, 1, 43, 49
3, 188736, Note_on_c, 1, 43, 0
3, 188868, Note_on_c, 1, 50, 62
3, 188972, Note_on_c, 1, 50, 0
3, 189108, Note_on_c, 1, 48, 53
3, 189176, Note_on_c, 1, 48, 0
3, 189240, Note_on_c, 1, 43, 50
3, 189432, Note_on_c, 1, 43, 0
3, 190072, Note_on_c, 1, 48, 80
3, 190424, Note_on_c, 1, 38, 30
3, 190456, Note_on_c, 1, 38, 0
3, 190476, Note_on_c, 1, 48, 0
3, 190540, Note_on_c, 1, 43, 48
3, 190880, Note_on_c, 1, 38, 29
3, 190912, Note_on_c, 1, 38, 0
3, 190944, Note_on_c, 1, 43, 0
3, 191000, Note_on_c, 1, 41, 35
3, 191332, Note_on_c, 1, 38, 45
3, 191340, Note_on_c, 1, 41, 0
3, 191400, Note_on_c, 1, 38, 0
3, 191480, Note_on_c, 1, 35, 36
3, 191840, Note_on_c, 1, 34, 29
3, 191928, Note_on_c, 1, 34, 0
3, 191940, Note_on_c, 1, 35, 0
3, 191964, Note_on_c, 1, 36, 40
3, 192448, Note_on_c, 1, 48, 83
3, 192452, Note_on_c, 1, 36, 0
3, 192896, Note_on_c, 1, 48, 0
3, 192928, Note_on_c, 1, 43, 33
3, 193268, Note_on_c, 1, 36, 44
3, 193300, Note_on_c, 1, 36, 0
3, 193300, Note_on_c, 1, 43, 0
3, 193412, Note_on_c, 1, 42, 45
3, 193872, Note_on_c, 1, 42, 0
3, 193872, Pitch_bend_c, 1, 8192
3, 193872, Pitch_bend_c, 1, 8192
3, 193880, Pitch_bend_c, 1, 8192
3, 193884, Pitch_bend_c, 1, 7552
3, 193888, Pitch_bend_c, 1, 7296
3, 193892, Pitch_bend_c, 1, 6784
3, 193900, Pitch_bend_c, 1, 6528
3, 193904, Pitch_bend_c, 1, 6144
3, 193908, Pitch_bend_c, 1, 5632
3, 193912, Pitch_bend_c, 1, 5376
3, 193920, Pitch_bend_c, 1, 4864
3, 193924, Pitch_bend_c, 1, 4480
3, 193928, Pitch_bend_c, 1, 4224
3, 193932, Pitch_bend_c, 1, 3840
3, 193940, Pitch_bend_c, 1, 3584
3, 193944, Pitch_bend_c, 1, 3456
3, 193948, Pitch_bend_c, 1, 3200
3, 193952, Note_on_c, 1, 41, 55
3, 193960, Pitch_bend_c, 1, 3072
3, 193968, Pitch_bend_c, 1, 2944
3, 194020, Pitch_bend_c, 1, 3072
3, 194044, Pitch_bend_c, 1, 3200
3, 194052, Pitch_bend_c, 1, 3328
3, 194064, Pitch_bend_c, 1, 3456
3, 194092, Pitch_bend_c, 1, 3584
3, 194108, Pitch_bend_c, 1, 3712
3, 194112, Pitch_bend_c, 1, 3840
3, 194124, Pitch_bend_c, 1, 3968
3, 194128, Pitch_bend_c, 1, 4096
3, 194132, Pitch_bend_c, 1, 4352
3, 194140, Pitch_bend_c, 1, 4480
3, 194144, Pitch_bend_c, 1, 4608
3, 194152, Pitch_bend_c, 1, 4736
3, 194168, Pitch_bend_c, 1, 4992
3, 194180, Pitch_bend_c, 1, 5120
3, 194192, Pitch_bend_c, 1, 5376
3, 194212, Pitch_bend_c, 1, 5504
3, 194244, Pitch_bend_c, 1, 5632
3, 194260, Pitch_bend_c, 1, 5760
3, 194268, Pitch_bend_c, 1, 5888
3, 194284, Pitch_bend_c, 1, 6144
3, 194288, Pitch_bend_c, 1, 6272
3, 194292, Pitch_bend_c, 1, 6400
3, 194300, Pitch_bend_c, 1, 6528
3, 194308, Pitch_bend_c, 1, 6784
3, 194312, Pitch_bend_c, 1, 6912
3, 194324, Pitch_bend_c, 1, 7040
3, 194328, Pitch_bend_c, 1, 7168
3, 194332, Pitch_bend_c, 1, 7296
3, 194344, Pitch_bend_c, 1, 7552
3, 194348, Pitch_bend_c, 1, 7680
3, 194352, Pitch_bend_c, 1, 8192
3, 194360, Pitch_bend_c, 1, 8192
3, 194368, Pitch_bend_c, 1, 8192
3, 194372, Pitch_bend_c, 1, 8192
3, 194800, Note_on_c, 1, 41, 0
3, 194868, Note_on_c, 1, 36, 57
3, 195148, Note_on_c, 1, 36, 0
3, 195184, Note_on_c, 1, 33, 78
3, 195828, Note_on_c, 1, 33, 0
3, 195832, Note_on_c, 1, 34, 49
3, 196184, Note_on_c, 1, 33, 33
3, 196228, Note_on_c, 1, 33, 0
3, 196284, Note_on_c, 1, 34, 0
3, 196300, Note_on_c, 1, 36, 55
3, 196732, Note_on_c, 1, 36, 0
3, 196768, Note_on_c, 1, 39, 37
3, 197104, Note_on_c, 1, 34, 25
3, 197164, Note_on_c, 1, 34, 0
3, 197228, Note_on_c, 1, 39, 0
3, 197284, Note_on_c, 1, 35, 46
3, 197612, Note_on_c, 1, 32, 18
3, 197684, Note_on_c, 1, 35, 0
3, 197724, Note_on_c, 1, 36, 50
3, 197732, Note_on_c, 1, 32, 0
3, 198052, Note_on_c, 1, 32, 20
3, 198168, Note_on_c, 1, 36, 0
3, 198200, Note_on_c, 1, 32, 0
3, 198200, Note_on_c, 1, 45, 51
3, 198488, Note_on_c, 1, 32, 27
3, 198608, Note_on_c, 1, 32, 0
3, 198660, Note_on_c, 1, 45, 0
3, 198704, Note_on_c, 1, 43, 32
3, 199148, Note_on_c, 1, 43, 0
3, 199152, Note_on_c, 1, 55, 64
3, 199520, Note_on_c, 1, 43, 27
3, 199572, Note_on_c, 1, 43, 0
3, 199584, Note_on_c, 1, 55, 0
3, 199652, Note_on_c, 1, 48, 30
3, 200092, Note_on_c, 1, 48, 0
3, 200108, Note_on_c, 1, 43, 56
3, 200600, Note_on_c, 1, 43, 0
3, 200612, Note_on_c, 1, 40, 48
3, 200712, Note_on_c, 1, 40, 0
3, 200768, Note_on_c, 1, 33, 54
3, 201092, Note_on_c, 1, 33, 0
3, 201104, Note_on_c, 1, 32, 51
3, 201440, Note_on_c, 1, 31, 71
3, 201468, Note_on_c, 1, 32, 0
3, 202060, Note_on_c, 1, 45, 56
3, 202188, Note_on_c, 1, 31, 0
3, 202548, Note_on_c, 1, 45, 0
3, 202548, Note_on_c, 1, 43, 45
3, 203048, Note_on_c, 1, 35, 55
3, 203072, Note_on_c, 1, 35, 0
3, 203156, Note_on_c, 1, 43, 0
3, 203328, Note_on_c, 1, 35, 62
3, 203488, Note_on_c, 1, 35, 0
3, 203488, Note_on_c, 1, 36, 57
3, 203840, Note_on_c, 1, 35, 39
3, 203900, Note_on_c, 1, 36, 0
3, 203944, Note_on_c, 1, 35, 0
3, 203960, Note_on_c, 1, 50, 41
3, 204308, Note_on_c, 1, 35, 31
3, 204392, Note_on_c, 1, 50, 0
3, 204408, Note_on_c, 1, 35, 0
3, 204452, Note_on_c, 1, 48, 31
3, 205264, Note_on_c, 1, 48, 0
3, 205264, Note_on_c, 1, 44, 68
3, 205392, Note_on_c, 1, 44, 0
3, 205452, Note_on_c, 1, 43, 35
3, 205780, Note_on_c, 1, 39, 76
3, 205904, Note_on_c, 1, 39, 0
3, 205940, Note_on_c, 1, 38, 42
3, 206180, Note_on_c, 1, 38, 0
3, 206248, Note_on_c, 1, 32, 62
3, 206316, Note_on_c, 1, 43, 0
3, 206388, Note_on_c, 1, 32, 0
3, 206404, Note_on_c, 1, 31, 37
3, 206684, Note_on_c, 1, 31, 0
3, 206712, Note_on_c, 1, 38, 54
3, 206740, Note_on_c, 1, 38, 0
3, 206844, Note_on_c, 1, 38, 50
3, 207116, Note_on_c, 1, 38, 0
3, 207164, Note_on_c, 1, 35, 55
3, 207288, Note_on_c, 1, 35, 0
3, 207312, Note_on_c, 1, 36, 51
3, 207452, Note_on_c, 1, 38, 64
3, 207572, Note_on_c, 1, 36, 0
3, 207640, Note_on_c, 1, 38, 0
3, 207768, Note_on_c, 1, 35, 16
3, 207808, Note_on_c, 1, 39, 53
3, 207828, Note_on_c, 1, 35, 0
3, 208116, Note_on_c, 1, 39, 0
3, 208132, Note_on_c, 1, 40, 60
3, 208444, Note_on_c, 1, 40, 0
3, 208464, Note_on_c, 1, 48, 48
3, 208620, Note_on_c, 1, 41, 47
3, 208660, Note_on_c, 1, 41, 0
3, 208688, Note_on_c, 1, 48, 0
3, 208780, Note_on_c, 1, 43, 40
3, 208852, Note_on_c, 1, 43, 0
3, 208944, Note_on_c, 1, 42, 36
3, 209116, Note_on_c, 1, 42, 0
3, 209124, Note_on_c, 1, 41, 53
3, 209752, Note_on_c, 1, 36, 51
3, 209772, Note_on_c, 1, 41, 0
3, 210204, Note_on_c, 1, 36, 0
3, 210220, Note_on_c, 1, 29, 36
3, 210684, Note_on_c, 1, 29, 0
3, 210692, Note_on_c, 1, 33, 51
3, 211172, Note_on_c, 1, 33, 0
3, 211184, Note_on_c, 1, 34, 45
3, 211648, Note_on_c, 1, 36, 50
3, 211656, Note_on_c, 1, 34, 0
3, 211960, Note_on_c, 1, 38, 54
3, 211976, Note_on_c, 1, 36, 0
3, 212128, Note_on_c, 1, 38, 0
3, 212152, Note_on_c, 1, 39, 51
3, 212500, Note_on_c, 1, 34, 25
3, 212572, Note_on_c, 1, 34, 0
3, 212600, Note_on_c, 1, 46, 42
3, 212616, Note_on_c, 1, 39, 0
3, 212928, Note_on_c, 1, 35, 60
3, 212948, Note_on_c, 1, 46, 0
3, 213040, Note_on_c, 1, 35, 0
3, 213092, Note_on_c, 1, 36, 44
3, 213540, Note_on_c, 1, 36, 0
3, 213572, Note_on_c, 1, 35, 50
3, 213720, Note_on_c, 1, 35, 0
3, 213724, Note_on_c, 1, 36, 56
3, 213776, Note_on_c, 1, 36, 0
3, 213820, Note_on_c, 1, 40, 55
3, 213900, Note_on_c, 1, 40, 0
3, 213948, Note_on_c, 1, 43, 57
3, 214012, Note_on_c, 1, 43, 0
3, 214072, Note_on_c, 1, 44, 72
3, 214240, Note_on_c, 1, 44, 0
3, 214248, Note_on_c, 1, 45, 67
3, 214460, Note_on_c, 1, 45, 0
3, 214540, Note_on_c, 1, 35, 45
3, 215000, Note_on_c, 1, 35, 0
3, 215020, Note_on_c, 1, 36, 41
3, 215360, Note_on_c, 1, 45, 87
3, 215452, Note_on_c, 1, 36, 0
3, 215468, Note_on_c, 1, 45, 0
3, 215532, Note_on_c, 1, 43, 40
3, 215872, Note_on_c, 1, 38, 15
3, 215920, Note_on_c, 1, 38, 0
3, 215932, Note_on_c, 1, 43, 0
3, 215980, Note_on_c, 1, 50, 57
3, 216580, Note_on_c, 1, 50, 0
3, 216628, Note_on_c, 1, 44, 59
3, 216712, Note_on_c, 1, 44, 0
3, 216800, Note_on_c, 1, 42, 68
3, 216904, Note_on_c, 1, 42, 0
3, 216944, Note_on_c, 1, 41, 49
3, 217280, Note_on_c, 1, 36, 57
3, 217320, Note_on_c, 1, 36, 0
3, 217332, Note_on_c, 1, 41, 0
3, 217420, Note_on_c, 1, 33, 54
3, 217864, Note_on_c, 1, 33, 0
3, 217892, Note_on_c, 1, 34, 37
3, 218372, Note_on_c, 1, 34, 0
3, 218372, Note_on_c, 1, 38, 44
3, 218660, Note_on_c, 1, 38, 0
3, 218692, Note_on_c, 1, 35, 46
3, 218816, Note_on_c, 1, 35, 0
3, 218840, Note_on_c, 1, 36, 46
3, 219208, Note_on_c, 1, 35, 32
3, 219248, Note_on_c, 1, 36, 0
3, 219292, Note_on_c, 1, 35, 0
3, 219324, Note_on_c, 1, 38, 49
3, 219660, Note_on_c, 1, 35, 36
3, 219736, Note_on_c, 1, 38, 0
3, 219784, Note_on_c, 1, 35, 0
3, 219804, Note_on_c, 1, 40, 47
3, 220092, Note_on_c, 1, 40, 0
3, 220140, Note_on_c, 1, 43, 43
3, 220252, Note_on_c, 1, 43, 0
3, 220280, Note_on_c, 1, 48, 60
3, 220540, Note_on_c, 1, 48, 0
3, 220600, Note_on_c, 1, 42, 64
3, 220620, Note_on_c, 1, 38, 34
3, 220652, Note_on_c, 1, 38, 0
3, 220760, Note_on_c, 1, 42, 0
3, 220804, Note_on_c, 1, 41, 43
3, 221088, Note_on_c, 1, 36, 57
3, 221132, Note_on_c, 1, 41, 0
3, 221180, Note_on_c, 1, 36, 0
3, 221240, Note_on_c, 1, 32, 46
3, 221680, Note_on_c, 1, 32, 0
3, 221712, Note_on_c, 1, 34, 43
3, 222072, Note_on_c, 1, 32, 25
3, 222212, Note_on_c, 1, 32, 0
3, 222212, Note_on_c, 1, 46, 49
3, 222244, Note_on_c, 1, 34, 0
3, 222564, Note_on_c, 1, 35, 36
3, 222624, Note_on_c, 1, 35, 0
3, 222652, Note_on_c, 1, 46, 0
3, 222704, Note_on_c, 1, 47, 39
3, 223164, Note_on_c, 1, 47, 0
3, 223192, Note_on_c, 1, 50, 50
3, 223600, Note_on_c, 1, 50, 0
3, 223684, Note_on_c, 1, 48, 45
3, 223976, Note_on_c, 1, 48, 0
3, 223984, Note_on_c, 1, 43, 51
3, 224032, Note_on_c, 1, 43, 0
3, 224124, Note_on_c, 1, 33, 51
3, 224588, Note_on_c, 1, 33, 0
3, 224608, Note_on_c, 1, 32, 47
3, 225080, Note_on_c, 1, 32, 0
3, 225092, Note_on_c, 1, 44, 55
3, 225568, Note_on_c, 1, 37, 48
3, 225600, Note_on_c, 1, 44, 0
3, 226052, Note_on_c, 1, 44, 60
3, 226100, Note_on_c, 1, 37, 0
3, 226276, Note_on_c, 1, 44, 0
3, 226380, Note_on_c, 1, 37, 37
3, 226528, Note_on_c, 1, 37, 0
3, 226528, Note_on_c, 1, 39, 50
3, 227024, Note_on_c, 1, 46, 59
3, 227060, Note_on_c, 1, 39, 0
3, 227508, Note_on_c, 1, 39, 46
3, 227528, Note_on_c, 1, 46, 0
3, 227988, Note_on_c, 1, 39, 0
3, 228000, Note_on_c, 1, 34, 36
3, 228484, Note_on_c, 1, 39, 38
3, 228488, Note_on_c, 1, 34, 0
3, 228880, Note_on_c, 1, 34, 19
3, 228948, Note_on_c, 1, 39, 0
3, 228960, Note_on_c, 1, 34, 0
3, 228972, Note_on_c, 1, 42, 56
3, 229236, Note_on_c, 1, 42, 0
3, 229280, Note_on_c, 1, 34, 42
3, 229372, Note_on_c, 1, 34, 0
3, 229428, Note_on_c, 1, 32, 40
3, 229856, Note_on_c, 1, 32, 0
3, 229888, Note_on_c, 1, 44, 50
3, 229992, Note_on_c, 1, 44, 0
3, 230024, Note_on_c, 1, 40, 57
3, 230104, Note_on_c, 1, 40, 0
3, 230188, Note_on_c, 1, 39, 61
3, 230360, Note_on_c, 1, 39, 0
3, 230360, Note_on_c, 1, 38, 49
3, 230524, Note_on_c, 1, 45, 58
3, 230532, Note_on_c, 1, 47, 39
3, 230552, Note_on_c, 1, 38, 0
3, 230564, Note_on_c, 1, 47, 0
3, 230840, Note_on_c, 1, 41, 50
3, 230848, Note_on_c, 1, 45, 0
3, 231252, Note_on_c, 1, 42, 46
3, 231280, Note_on_c, 1, 42, 0
3, 231412, Note_on_c, 1, 41, 0
3, 231572, Note_on_c, 1, 42, 73
3, 231676, Note_on_c, 1, 42, 0
3, 231692, Note_on_c, 1, 43, 62
3, 231760, Note_on_c, 1, 43, 0
3, 231872, Note_on_c, 1, 38, 57
3, 231932, Note_on_c, 1, 38, 0
3, 232160, Note_on_c, 1, 35, 55
3, 232224, Note_on_c, 1, 35, 0
3, 232320, Note_on_c, 1, 31, 54
3, 232788, Note_on_c, 1, 43, 56
3, 232892, Note_on_c, 1, 43, 0
3, 232952, Note_on_c, 1, 42, 27
3, 233012, Note_on_c, 1, 42, 0
3, 233100, Note_on_c, 1, 43, 56
3, 233188, Note_on_c, 1, 31, 0
3, 233440, Note_on_c, 1, 31, 57
3, 233660, Note_on_c, 1, 31, 0
3, 233744, Note_on_c, 1, 31, 35
3, 233788, Note_on_c, 1, 43, 0
3, 234064, Note_on_c, 1, 31, 0
3, 234072, Note_on_c, 1, 35, 47
3, 234212, Note_on_c, 1, 35, 0
3, 234248, Note_on_c, 1, 36, 40
3, 234572, Note_on_c, 1, 50, 60
3, 234664, Note_on_c, 1, 50, 0
3, 234732, Note_on_c, 1, 36, 0
3, 234744, Note_on_c, 1, 48, 48
3, 235504, Note_on_c, 1, 35, 45
3, 235652, Note_on_c, 1, 35, 0
3, 235680, Note_on_c, 1, 36, 55
3, 235692, Note_on_c, 1, 48, 0
3, 236008, Note_on_c, 1, 34, 32
3, 236068, Note_on_c, 1, 36, 0
3, 236140, Note_on_c, 1, 34, 0
3, 236160, Note_on_c, 1, 48, 78
3, 236244, Note_on_c, 1, 48, 0
3, 236628, Note_on_c, 1, 43, 68
3, 236952, Note_on_c, 1, 38, 35
3, 236980, Note_on_c, 1, 38, 0
3, 237100, Note_on_c, 1, 31, 46
3, 237368, Note_on_c, 1, 31, 0
3, 237440, Note_on_c, 1, 34, 37
3, 237552, Note_on_c, 1, 34, 0
3, 237552, Note_on_c, 1, 43, 0
3, 237584, Note_on_c, 1, 35, 54
3, 237912, Note_on_c, 1, 34, 32
3, 237972, Note_on_c, 1, 35, 0
3, 238016, Note_on_c, 1, 34, 0
3, 238060, Note_on_c, 1, 36, 44
3, 238540, Note_on_c, 1, 36, 0
3, 238548, Note_on_c, 1, 38, 45
3, 238924, Note_on_c, 1, 34, 33
3, 238996, Note_on_c, 1, 34, 0
3, 239016, Note_on_c, 1, 38, 0
3, 239028, Note_on_c, 1, 39, 47
3, 239364, Note_on_c, 1, 36, 30
3, 239412, Note_on_c, 1, 36, 0
3, 239492, Note_on_c, 1, 40, 49
3, 239496, Note_on_c, 1, 39, 0
3, 239828, Note_on_c, 1, 36, 36
3, 239880, Note_on_c, 1, 36, 0
3, 239920, Note_on_c, 1, 40, 0
3, 239960, Note_on_c, 1, 41, 36
3, 240264, Note_on_c, 1, 41, 0
3, 240280, Note_on_c, 1, 29, 53
3, 240408, Note_on_c, 1, 29, 0
3, 240440, Note_on_c, 1, 45, 67
3, 240940, Note_on_c, 1, 33, 53
3, 241024, Note_on_c, 1, 45, 0
3, 241312, Note_on_c, 1, 36, 30
3, 241344, Note_on_c, 1, 33, 0
3, 241352, Note_on_c, 1, 36, 0
3, 241424, Note_on_c, 1, 48, 88
3, 241712, Note_on_c, 1, 48, 0
3, 241724, Note_on_c, 1, 37, 44
3, 241748, Note_on_c, 1, 37, 0
3, 241884, Note_on_c, 1, 34, 50
3, 241920, Note_on_c, 1, 48, 63
3, 242060, Note_on_c, 1, 48, 0
3, 242404, Note_on_c, 1, 41, 30
3, 242484, Note_on_c, 1, 34, 0
3, 242708, Note_on_c, 1, 38, 43
3, 242808, Note_on_c, 1, 38, 0
3, 242816, Note_on_c, 1, 41, 0
3, 242852, Note_on_c, 1, 39, 47
3, 243540, Note_on_c, 1, 39, 0
3, 243664, Note_on_c, 1, 34, 46
3, 243812, Note_on_c, 1, 34, 0
3, 243840, Note_on_c, 1, 35, 55
3, 244152, Note_on_c, 1, 35, 0
3, 244152, Note_on_c, 1, 36, 60
3, 244284, Note_on_c, 1, 36, 0
3, 244344, Note_on_c, 1, 40, 48
3, 244568, Note_on_c, 1, 40, 0
3, 244612, Note_on_c, 1, 43, 60
3, 244724, Note_on_c, 1, 43, 0
3, 244800, Note_on_c, 1, 44, 80
3, 245032, Note_on_c, 1, 44, 0
3, 245092, Note_on_c, 1, 45, 62
3, 245172, Note_on_c, 1, 45, 0
3, 245284, Note_on_c, 1, 35, 33
3, 245584, Note_on_c, 1, 35, 0
3, 245592, Note_on_c, 1, 36, 62
3, 249152, Note_on_c, 1, 36, 0
3, 249152, End_track
4, 0, Start_track
4, 0, Program_c, 9, 0
4, 0, Control_c, 9, 7, 100
4, 0, Control_c, 9, 7, 80
4, 0, Control_c, 9, 7, 81
4, 0, Control_c, 9, 7, 70
4, 1892, Note_on_c, 9, 35, 55
4, 1916, Note_on_c, 9, 35, 0
4, 1920, Note_on_c, 9, 51, 49
4, 2312, Note_on_c, 9, 51, 0
4, 2388, Note_on_c, 9, 44, 43
4, 2392, Note_on_c, 9, 64, 56
4, 2400, Note_on_c, 9, 51, 76
4, 2456, Note_on_c, 9, 64, 0
4, 2548, Note_on_c, 9, 44, 0
4, 2708, Note_on_c, 9, 35, 51
4, 2724, Note_on_c, 9, 64, 92
4, 2732, Note_on_c, 9, 35, 0
4, 2804, Note_on_c, 9, 51, 0
4, 2880, Note_on_c, 9, 51, 71
4, 3272, Note_on_c, 9, 64, 0
4, 3292, Note_on_c, 9, 51, 0
4, 3348, Note_on_c, 9, 44, 57
4, 3360, Note_on_c, 9, 51, 83
4, 3384, Note_on_c, 9, 62, 40
4, 3536, Note_on_c, 9, 44, 0
4, 3588, Note_on_c, 9, 62, 0
4, 3660, Note_on_c, 9, 62, 60
4, 3728, Note_on_c, 9, 62, 0
4, 3728, Note_on_c, 9, 51, 0
4, 3840, Note_on_c, 9, 51, 105
4, 4252, Note_on_c, 9, 51, 0
4, 4308, Note_on_c, 9, 44, 63
4, 4320, Note_on_c, 9, 51, 79
4, 4332, Note_on_c, 9, 64, 61
4, 4424, Note_on_c, 9, 64, 0
4, 4548, Note_on_c, 9, 44, 0
4, 4589, Note_on_c, 9, 40, 64
4, 4600, Note_on_c, 9, 35, 55
4, 4648, Note_on_c, 9, 51, 0
4, 4660, Note_on_c, 9, 64, 75
4, 4669, Note_on_c, 9, 40, 0
4, 4724, Note_on_c, 9, 35, 0
4, 4788, Note_on_c, 9, 35, 43
4, 4800, Note_on_c, 9, 51, 78
4, 5052, Note_on_c, 9, 35, 0
4, 5064, Note_on_c, 9, 64, 0
4, 5092, Note_on_c, 9, 62, 46
4, 5092, Note_on_c, 9, 35, 33
4, 5136, Note_on_c, 9, 35, 0
4, 5208, Note_on_c, 9, 51, 0
4, 5220, Note_on_c, 9, 62, 0
4, 5260, Note_on_c, 9, 63, 61
4, 5268, Note_on_c, 9, 44, 61
4, 5280, Note_on_c, 9, 51, 62
4, 5388, Note_on_c, 9, 44, 0
4, 5452, Note_on_c, 9, 63, 0
4, 5532, Note_on_c, 9, 51, 0
4, 5584, Note_on_c, 9, 63, 109
4, 5600, Note_on_c, 9, 51, 108
4, 5680, Note_on_c, 9, 51, 0
4, 5736, Note_on_c, 9, 63, 0
4, 5760, Note_on_c, 9, 51, 85
4, 6128, Note_on_c, 9, 51, 0
4, 6228, Note_on_c, 9, 44, 57
4, 6240, Note_on_c, 9, 51, 85
4, 6244, Note_on_c, 9, 64, 49
4, 6296, Note_on_c, 9, 64, 0
4, 6428, Note_on_c, 9, 44, 0
4, 6509, Note_on_c, 9, 40, 58
4, 6540, Note_on_c, 9, 51, 0
4, 6560, Note_on_c, 9, 64, 115
4, 6613, Note_on_c, 9, 40, 0
4, 6700, Note_on_c, 9, 64, 0
4, 6720, Note_on_c, 9, 51, 74
4, 6989, Note_on_c, 9, 40, 70
4, 7004, Note_on_c, 9, 51, 0
4, 7069, Note_on_c, 9, 40, 0
4, 7188, Note_on_c, 9, 44, 51
4, 7200, Note_on_c, 9, 51, 88
4, 7260, Note_on_c, 9, 62, 39
4, 7332, Note_on_c, 9, 62, 0
4, 7420, Note_on_c, 9, 44, 0
4, 7520, Note_on_c, 9, 62, 95
4, 7540, Note_on_c, 9, 51, 0
4, 7608, Note_on_c, 9, 62, 0
4, 7680, Note_on_c, 9, 51, 74
4, 8072, Note_on_c, 9, 51, 0
4, 8148, Note_on_c, 9, 44, 53
4, 8160, Note_on_c, 9, 51, 64
4, 8464, Note_on_c, 9, 38, 55
4, 8476, Note_on_c, 9, 44, 0
4, 8488, Note_on_c, 9, 38, 0
4, 8492, Note_on_c, 9, 64, 76
4, 8568, Note_on_c, 9, 51, 0
4, 8604, Note_on_c, 9, 64, 0
4, 8640, Note_on_c, 9, 51, 68
4, 8808, Note_on_c, 9, 51, 0
4, 8948, Note_on_c, 9, 38, 50
4, 8960, Note_on_c, 9, 51, 79
4, 8976, Note_on_c, 9, 38, 0
4, 8980, Note_on_c, 9, 63, 58
4, 9040, Note_on_c, 9, 63, 0
4, 9064, Note_on_c, 9, 51, 0
4, 9108, Note_on_c, 9, 46, 41
4, 9120, Note_on_c, 9, 51, 95
4, 9248, Note_on_c, 9, 46, 0
4, 9440, Note_on_c, 9, 62, 48
4, 9472, Note_on_c, 9, 62, 0
4, 9472, Note_on_c, 9, 38, 54
4, 9492, Note_on_c, 9, 51, 0
4, 9572, Note_on_c, 9, 38, 0
4, 9600, Note_on_c, 9, 51, 85
4, 9644, Note_on_c, 9, 38, 45
4, 9792, Note_on_c, 9, 38, 0
4, 9960, Note_on_c, 9, 51, 0
4, 10068, Note_on_c, 9, 44, 56
4, 10072, Note_on_c, 9, 64, 47
4, 10080, Note_on_c, 9, 51, 74
4, 10196, Note_on_c, 9, 44, 0
4, 10280, Note_on_c, 9, 64, 0
4, 10380, Note_on_c, 9, 64, 94
4, 10380, Note_on_c, 9, 38, 51
4, 10404, Note_on_c, 9, 38, 0
4, 10452, Note_on_c, 9, 51, 0
4, 10560, Note_on_c, 9, 51, 79
4, 10588, Note_on_c, 9, 64, 0
4, 10829, Note_on_c, 9, 40, 53
4, 10880, Note_on_c, 9, 51, 0
4, 10909, Note_on_c, 9, 40, 0
4, 11028, Note_on_c, 9, 44, 55
4, 11040, Note_on_c, 9, 62, 37
4, 11040, Note_on_c, 9, 51, 73
4, 11088, Note_on_c, 9, 62, 0
4, 11208, Note_on_c, 9, 44, 0
4, 11320, Note_on_c, 9, 63, 91
4, 11400, Note_on_c, 9, 63, 0
4, 11440, Note_on_c, 9, 51, 0
4, 11504, Note_on_c, 9, 62, 30
4, 11520, Note_on_c, 9, 51, 73
4, 11532, Note_on_c, 9, 62, 0
4, 11840, Note_on_c, 9, 38, 46
4, 11872, Note_on_c, 9, 38, 0
4, 11928, Note_on_c, 9, 51, 0
4, 11988, Note_on_c, 9, 44, 44
4, 12000, Note_on_c, 9, 51, 88
4, 12012, Note_on_c, 9, 38, 36
4, 12032, Note_on_c, 9, 64, 38
4, 12152, Note_on_c, 9, 38, 0
4, 12196, Note_on_c, 9, 44, 0
4, 12220, Note_on_c, 9, 64, 0
4, 12300, Note_on_c, 9, 38, 38
4, 12308, Note_on_c, 9, 64, 84
4, 12340, Note_on_c, 9, 38, 0
4, 12380, Note_on_c, 9, 51, 0
4, 12480, Note_on_c, 9, 51, 73
4, 12488, Note_on_c, 9, 64, 0
4, 12780, Note_on_c, 9, 38, 38
4, 12792, Note_on_c, 9, 62, 42
4, 12820, Note_on_c, 9, 38, 0
4, 12840, Note_on_c, 9, 62, 0
4, 12860, Note_on_c, 9, 51, 0
4, 12932, Note_on_c, 9, 53, 33
4, 12944, Note_on_c, 9, 63, 69
4, 12948, Note_on_c, 9, 44, 52
4, 12960, Note_on_c, 9, 51, 83
4, 12976, Note_on_c, 9, 53, 0
4, 13068, Note_on_c, 9, 53, 39
4, 13096, Note_on_c, 9, 44, 0
4, 13108, Note_on_c, 9, 53, 0
4, 13168, Note_on_c, 9, 63, 0
4, 13200, Note_on_c, 9, 51, 0
4, 13240, Note_on_c, 9, 38, 35
4, 13252, Note_on_c, 9, 63, 103
4, 13280, Note_on_c, 9, 51, 90
4, 13300, Note_on_c, 9, 38, 0
4, 13360, Note_on_c, 9, 51, 0
4, 13384, Note_on_c, 9, 63, 0
4, 13440, Note_on_c, 9, 51, 79
4, 13824, Note_on_c, 9, 51, 0
4, 13908, Note_on_c, 9, 44, 55
4, 13920, Note_on_c, 9, 51, 74
4, 13932, Note_on_c, 9, 64, 67
4, 14088, Note_on_c, 9, 44, 0
4, 14184, Note_on_c, 9, 64, 0
4, 14248, Note_on_c, 9, 38, 51
4, 14260, Note_on_c, 9, 64, 82
4, 14280, Note_on_c, 9, 38, 0
4, 14340, Note_on_c, 9, 51, 0
4, 14380, Note_on_c, 9, 64, 0
4, 14400, Note_on_c, 9, 38, 33
4, 14400, Note_on_c, 9, 51, 59
4, 14472, Note_on_c, 9, 38, 0
4, 14669, Note_on_c, 9, 40, 65
4, 14757, Note_on_c, 9, 40, 0
4, 14760, Note_on_c, 9, 51, 0
4, 14792, Note_on_c, 9, 62, 39
4, 14832, Note_on_c, 9, 62, 0
4, 14868, Note_on_c, 9, 44, 55
4, 14880, Note_on_c, 9, 51, 74
4, 14932, Note_on_c, 9, 63, 48
4, 14956, Note_on_c, 9, 63, 0
4, 15028, Note_on_c, 9, 44, 0
4, 15192, Note_on_c, 9, 38, 40
4, 15220, Note_on_c, 9, 38, 0
4, 15220, Note_on_c, 9, 63, 97
4, 15308, Note_on_c, 9, 51, 0
4, 15324, Note_on_c, 9, 63, 0
4, 15360, Note_on_c, 9, 51, 107
4, 15760, Note_on_c, 9, 51, 0
4, 15828, Note_on_c, 9, 44, 65
4, 15840, Note_on_c, 9, 51, 98
4, 15968, Note_on_c, 9, 44, 0
4, 16172, Note_on_c, 9, 64, 113
4, 16184, Note_on_c, 9, 51, 0
4, 16320, Note_on_c, 9, 51, 68
4, 16364, Note_on_c, 9, 64, 0
4, 16540, Note_on_c, 9, 62, 34
4, 16572, Note_on_c, 9, 62, 0
4, 16632, Note_on_c, 9, 51, 0
4, 16668, Note_on_c, 9, 62, 68
4, 16760, Note_on_c, 9, 62, 0
4, 16788, Note_on_c, 9, 44, 64
4, 16800, Note_on_c, 9, 51, 83
4, 16832, Note_on_c, 9, 62, 71
4, 16900, Note_on_c, 9, 62, 0
4, 16956, Note_on_c, 9, 44, 0
4, 17069, Note_on_c, 9, 40, 70
4, 17080, Note_on_c, 9, 51, 0
4, 17128, Note_on_c, 9, 38, 42
4, 17128, Note_on_c, 9, 63, 98
4, 17160, Note_on_c, 9, 38, 0
4, 17209, Note_on_c, 9, 40, 0
4, 17240, Note_on_c, 9, 63, 0
4, 17280, Note_on_c, 9, 51, 90
4, 17660, Note_on_c, 9, 51, 0
4, 17748, Note_on_c, 9, 44, 51
4, 17760, Note_on_c, 9, 51, 76
4, 17840, Note_on_c, 9, 64, 24
4, 17936, Note_on_c, 9, 44, 0
4, 17984, Note_on_c, 9, 64, 0
4, 18040, Note_on_c, 9, 51, 0
4, 18060, Note_on_c, 9, 38, 48
4, 18084, Note_on_c, 9, 38, 0
4, 18092, Note_on_c, 9, 64, 106
4, 18220, Note_on_c, 9, 64, 0
4, 18240, Note_on_c, 9, 51, 76
4, 18640, Note_on_c, 9, 51, 0
4, 18680, Note_on_c, 9, 62, 44
4, 18708, Note_on_c, 9, 44, 58
4, 18720, Note_on_c, 9, 51, 93
4, 18768, Note_on_c, 9, 62, 0
4, 18876, Note_on_c, 9, 44, 0
4, 19044, Note_on_c, 9, 63, 98
4, 19060, Note_on_c, 9, 38, 42
4, 19088, Note_on_c, 9, 38, 0
4, 19120, Note_on_c, 9, 51, 0
4, 19172, Note_on_c, 9, 63, 0
4, 19200, Note_on_c, 9, 51, 79
4, 19224, Note_on_c, 9, 38, 35
4, 19264, Note_on_c, 9, 38, 0
4, 19584, Note_on_c, 9, 51, 0
4, 19668, Note_on_c, 9, 44, 53
4, 19680, Note_on_c, 9, 51, 76
4, 19856, Note_on_c, 9, 44, 0
4, 19949, Note_on_c, 9, 40, 52
4, 19972, Note_on_c, 9, 51, 0
4, 19980, Note_on_c, 9, 38, 45
4, 20008, Note_on_c, 9, 38, 0
4, 20012, Note_on_c, 9, 64, 85
4, 20041, Note_on_c, 9, 40, 0
4, 20140, Note_on_c, 9, 64, 0
4, 20160, Note_on_c, 9, 51, 64
4, 20540, Note_on_c, 9, 51, 0
4, 20628, Note_on_c, 9, 44, 62
4, 20640, Note_on_c, 9, 51, 73
4, 20748, Note_on_c, 9, 51, 0
4, 20800, Note_on_c, 9, 38, 39
4, 20828, Note_on_c, 9, 44, 0
4, 20904, Note_on_c, 9, 38, 0
4, 20952, Note_on_c, 9, 38, 41
4, 20960, Note_on_c, 9, 51, 117
4, 20984, Note_on_c, 9, 62, 41
4, 21016, Note_on_c, 9, 38, 0
4, 21028, Note_on_c, 9, 62, 0
4, 21048, Note_on_c, 9, 51, 0
4, 21112, Note_on_c, 9, 38, 37
4, 21120, Note_on_c, 9, 51, 91
4, 21120, Note_on_c, 9, 46, 38
4, 21172, Note_on_c, 9, 38, 0
4, 21184, Note_on_c, 9, 46, 0
4, 21488, Note_on_c, 9, 51, 0
4, 21588, Note_on_c, 9, 44, 61
4, 21600, Note_on_c, 9, 51, 98
4, 21600, Note_on_c, 9, 63, 41
4, 21664, Note_on_c, 9, 63, 0
4, 21756, Note_on_c, 9, 44, 0
4, 21869, Note_on_c, 9, 40, 60
4, 21888, Note_on_c, 9, 51, 0
4, 21928, Note_on_c, 9, 63, 96
4, 21977, Note_on_c, 9, 40, 0
4, 22072, Note_on_c, 9, 63, 0
4, 22080, Note_on_c, 9, 51, 68
4, 22444, Note_on_c, 9, 51, 0
4, 22548, Note_on_c, 9, 44, 59
4, 22560, Note_on_c, 9, 51, 73
4, 22592, Note_on_c, 9, 64, 95
4, 22648, Note_on_c, 9, 44, 0
4, 22804, Note_on_c, 9, 64, 0
4, 22860, Note_on_c, 9, 64, 92
4, 22932, Note_on_c, 9, 51, 0
4, 23008, Note_on_c, 9, 64, 0
4, 23040, Note_on_c, 9, 51, 69
4, 23428, Note_on_c, 9, 51, 0
4, 23508, Note_on_c, 9, 44, 65
4, 23520, Note_on_c, 9, 51, 78
4, 23532, Note_on_c, 9, 64, 56
4, 23628, Note_on_c, 9, 44, 0
4, 23756, Note_on_c, 9, 64, 0
4, 23789, Note_on_c, 9, 40, 55
4, 23812, Note_on_c, 9, 51, 0
4, 23828, Note_on_c, 9, 64, 78
4, 23893, Note_on_c, 9, 40, 0
4, 24000, Note_on_c, 9, 51, 69
4, 24076, Note_on_c, 9, 64, 0
4, 24292, Note_on_c, 9, 62, 53
4, 24372, Note_on_c, 9, 51, 0
4, 24380, Note_on_c, 9, 62, 0
4, 24468, Note_on_c, 9, 46, 65
4, 24480, Note_on_c, 9, 51, 78
4, 24500, Note_on_c, 9, 63, 41
4, 24604, Note_on_c, 9, 51, 0
4, 24640, Note_on_c, 9, 41, 40
4, 24640, Note_on_c, 9, 38, 37
4, 24648, Note_on_c, 9, 46, 0
4, 24668, Note_on_c, 9, 38, 0
4, 24684, Note_on_c, 9, 63, 0
4, 24724, Note_on_c, 9, 41, 0
4, 24772, Note_on_c, 9, 38, 50
4, 24792, Note_on_c, 9, 63, 107
4, 24800, Note_on_c, 9, 51, 93
4, 24836, Note_on_c, 9, 38, 0
4, 24904, Note_on_c, 9, 51, 0
4, 24936, Note_on_c, 9, 63, 0
4, 24960, Note_on_c, 9, 51, 73
4, 25288, Note_on_c, 9, 62, 34
4, 25328, Note_on_c, 9, 62, 0
4, 25344, Note_on_c, 9, 51, 0
4, 25428, Note_on_c, 9, 44, 52
4, 25440, Note_on_c, 9, 51, 85
4, 25448, Note_on_c, 9, 64, 54
4, 25576, Note_on_c, 9, 44, 0
4, 25640, Note_on_c, 9, 64, 0
4, 25760, Note_on_c, 9, 64, 113
4, 25832, Note_on_c, 9, 51, 0
4, 25904, Note_on_c, 9, 64, 0
4, 25920, Note_on_c, 9, 51, 73
4, 26100, Note_on_c, 9, 62, 65
4, 26148, Note_on_c, 9, 62, 0
4, 26189, Note_on_c, 9, 40, 62
4, 26252, Note_on_c, 9, 51, 0
4, 26260, Note_on_c, 9, 62, 70
4, 26312, Note_on_c, 9, 62, 0
4, 26317, Note_on_c, 9, 40, 0
4, 26388, Note_on_c, 9, 44, 55
4, 26400, Note_on_c, 9, 51, 74
4, 26412, Note_on_c, 9, 63, 89
4, 26536, Note_on_c, 9, 44, 0
4, 26652, Note_on_c, 9, 63, 0
4, 26669, Note_on_c, 9, 40, 73
4, 26728, Note_on_c, 9, 63, 100
4, 26732, Note_on_c, 9, 51, 0
4, 26829, Note_on_c, 9, 40, 0
4, 26876, Note_on_c, 9, 63, 0
4, 26880, Note_on_c, 9, 51, 76
4, 27320, Note_on_c, 9, 51, 0
4, 27348, Note_on_c, 9, 44, 67
4, 27360, Note_on_c, 9, 51, 78
4, 27388, Note_on_c, 9, 64, 79
4, 27468, Note_on_c, 9, 44, 0
4, 27568, Note_on_c, 9, 64, 0
4, 27684, Note_on_c, 9, 64, 74
4, 27700, Note_on_c, 9, 38, 57
4, 27740, Note_on_c, 9, 38, 0
4, 27756, Note_on_c, 9, 64, 0
4, 27768, Note_on_c, 9, 51, 0
4, 27840, Note_on_c, 9, 51, 69
4, 27860, Note_on_c, 9, 38, 36
4, 27908, Note_on_c, 9, 38, 0
4, 28092, Note_on_c, 9, 63, 76
4, 28109, Note_on_c, 9, 40, 66
4, 28116, Note_on_c, 9, 63, 0
4, 28172, Note_on_c, 9, 63, 96
4, 28180, Note_on_c, 9, 51, 0
4, 28220, Note_on_c, 9, 63, 0
4, 28248, Note_on_c, 9, 63, 92
4, 28249, Note_on_c, 9, 40, 0
4, 28292, Note_on_c, 9, 63, 0
4, 28308, Note_on_c, 9, 44, 64
4, 28320, Note_on_c, 9, 51, 66
4, 28368, Note_on_c, 9, 63, 93
4, 28412, Note_on_c, 9, 63, 0
4, 28536, Note_on_c, 9, 44, 0
4, 28572, Note_on_c, 9, 63, 93
4, 28604, Note_on_c, 9, 35, 48
4, 28616, Note_on_c, 9, 63, 0
4, 28636, Note_on_c, 9, 35, 0
4, 28728, Note_on_c, 9, 51, 0
4, 28800, Note_on_c, 9, 51, 90
4, 29208, Note_on_c, 9, 51, 0
4, 29268, Note_on_c, 9, 44, 64
4, 29280, Note_on_c, 9, 51, 78
4, 29312, Note_on_c, 9, 64, 79
4, 29496, Note_on_c, 9, 44, 0
4, 29536, Note_on_c, 9, 64, 0
4, 29549, Note_on_c, 9, 40, 53
4, 29588, Note_on_c, 9, 35, 40
4, 29600, Note_on_c, 9, 64, 76
4, 29608, Note_on_c, 9, 51, 0
4, 29620, Note_on_c, 9, 35, 0
4, 29672, Note_on_c, 9, 64, 0
4, 29673, Note_on_c, 9, 40, 0
4, 29760, Note_on_c, 9, 51, 76
4, 30112, Note_on_c, 9, 62, 49
4, 30128, Note_on_c, 9, 51, 0
4, 30184, Note_on_c, 9, 62, 0
4, 30228, Note_on_c, 9, 44, 58
4, 30240, Note_on_c, 9, 51, 83
4, 30436, Note_on_c, 9, 44, 0
4, 30509, Note_on_c, 9, 40, 52
4, 30548, Note_on_c, 9, 51, 0
4, 30568, Note_on_c, 9, 35, 38
4, 30596, Note_on_c, 9, 35, 0
4, 30621, Note_on_c, 9, 40, 0
4, 30720, Note_on_c, 9, 51, 76
4, 31092, Note_on_c, 9, 51, 0
4, 31188, Note_on_c, 9, 44, 67
4, 31200, Note_on_c, 9, 51, 78
4, 31224, Note_on_c, 9, 64, 62
4, 31292, Note_on_c, 9, 64, 0
4, 31428, Note_on_c, 9, 44, 0
4, 31488, Note_on_c, 9, 51, 0
4, 31504, Note_on_c, 9, 35, 43
4, 31512, Note_on_c, 9, 64, 120
4, 31520, Note_on_c, 9, 50, 35
4, 31532, Note_on_c, 9, 35, 0
4, 31600, Note_on_c, 9, 50, 0
4, 31644, Note_on_c, 9, 64, 0
4, 31680, Note_on_c, 9, 51, 68
4, 31832, Note_on_c, 9, 47, 34
4, 31860, Note_on_c, 9, 47, 0
4, 31949, Note_on_c, 9, 40, 36
4, 31980, Note_on_c, 9, 47, 44
4, 31988, Note_on_c, 9, 51, 0
4, 32012, Note_on_c, 9, 47, 0
4, 32049, Note_on_c, 9, 40, 0
4, 32128, Note_on_c, 9, 47, 55
4, 32144, Note_on_c, 9, 62, 101
4, 32148, Note_on_c, 9, 44, 48
4, 32160, Note_on_c, 9, 51, 95
4, 32180, Note_on_c, 9, 65, 35
4, 32200, Note_on_c, 9, 47, 0
4, 32208, Note_on_c, 9, 65, 0
4, 32272, Note_on_c, 9, 45, 66
4, 32308, Note_on_c, 9, 62, 0
4, 32324, Note_on_c, 9, 45, 0
4, 32336, Note_on_c, 9, 44, 0
4, 32420, Note_on_c, 9, 43, 72
4, 32429, Note_on_c, 9, 40, 72
4, 32460, Note_on_c, 9, 51, 0
4, 32468, Note_on_c, 9, 43, 0
4, 32541, Note_on_c, 9, 40, 0
4, 32604, Note_on_c, 9, 35, 46
4, 32636, Note_on_c, 9, 35, 0
4, 32640, Note_on_c, 9, 51, 73
4, 32928, Note_on_c, 9, 63, 69
4, 33020, Note_on_c, 9, 51, 0
4, 33060, Note_on_c, 9, 63, 0
4, 33108, Note_on_c, 9, 44, 56
4, 33120, Note_on_c, 9, 51, 86
4, 33140, Note_on_c, 9, 64, 46
4, 33348, Note_on_c, 9, 44, 0
4, 33364, Note_on_c, 9, 64, 0
4, 33389, Note_on_c, 9, 40, 50
4, 33420, Note_on_c, 9, 35, 54
4, 33428, Note_on_c, 9, 64, 97
4, 33432, Note_on_c, 9, 51, 0
4, 33448, Note_on_c, 9, 35, 0
4, 33501, Note_on_c, 9, 40, 0
4, 33596, Note_on_c, 9, 64, 0
4, 33600, Note_on_c, 9, 51, 88
4, 33912, Note_on_c, 9, 62, 86
4, 33972, Note_on_c, 9, 51, 0
4, 34000, Note_on_c, 9, 62, 0
4, 34068, Note_on_c, 9, 44, 53
4, 34080, Note_on_c, 9, 51, 83
4, 34316, Note_on_c, 9, 44, 0
4, 34349, Note_on_c, 9, 40, 39
4, 34404, Note_on_c, 9, 51, 0
4, 34412, Note_on_c, 9, 35, 76
4, 34412, Note_on_c, 9, 63, 58
4, 34460, Note_on_c, 9, 35, 0
4, 34464, Note_on_c, 9, 63, 0
4, 34469, Note_on_c, 9, 40, 0
4, 34560, Note_on_c, 9, 51, 85
4, 34908, Note_on_c, 9, 62, 24
4, 34948, Note_on_c, 9, 62, 0
4, 34988, Note_on_c, 9, 51, 0
4, 35028, Note_on_c, 9, 44, 64
4, 35040, Note_on_c, 9, 51, 69
4, 35064, Note_on_c, 9, 63, 57
4, 35256, Note_on_c, 9, 63, 0
4, 35288, Note_on_c, 9, 44, 0
4, 35360, Note_on_c, 9, 63, 76
4, 35380, Note_on_c, 9, 35, 32
4, 35408, Note_on_c, 9, 51, 0
4, 35424, Note_on_c, 9, 35, 0
4, 35468, Note_on_c, 9, 63, 0
4, 35520, Note_on_c, 9, 51, 76
4, 35528, Note_on_c, 9, 35, 37
4, 35728, Note_on_c, 9, 35, 0
4, 35948, Note_on_c, 9, 51, 0
4, 35988, Note_on_c, 9, 44, 52
4, 36000, Note_on_c, 9, 51, 88
4, 36000, Note_on_c, 9, 64, 82
4, 36108, Note_on_c, 9, 64, 0
4, 36216, Note_on_c, 9, 44, 0
4, 36384, Note_on_c, 9, 51, 0
4, 36480, Note_on_c, 9, 51, 83
4, 36749, Note_on_c, 9, 40, 57
4, 36804, Note_on_c, 9, 51, 0
4, 36897, Note_on_c, 9, 40, 0
4, 36928, Note_on_c, 9, 63, 47
4, 36948, Note_on_c, 9, 44, 57
4, 36956, Note_on_c, 9, 63, 0
4, 36960, Note_on_c, 9, 51, 69
4, 37096, Note_on_c, 9, 44, 0
4, 37229, Note_on_c, 9, 40, 67
4, 37260, Note_on_c, 9, 63, 67
4, 37268, Note_on_c, 9, 51, 0
4, 37284, Note_on_c, 9, 35, 53
4, 37308, Note_on_c, 9, 35, 0
4, 37361, Note_on_c, 9, 40, 0
4, 37392, Note_on_c, 9, 63, 0
4, 37440, Note_on_c, 9, 51, 81
4, 37812, Note_on_c, 9, 51, 0
4, 37908, Note_on_c, 9, 44, 56
4, 37920, Note_on_c, 9, 51, 83
4, 37964, Note_on_c, 9, 63, 97
4, 38036, Note_on_c, 9, 44, 0
4, 38072, Note_on_c, 9, 63, 0
4, 38189, Note_on_c, 9, 40, 56
4, 38208, Note_on_c, 9, 35, 53
4, 38212, Note_on_c, 9, 51, 0
4, 38236, Note_on_c, 9, 35, 0
4, 38313, Note_on_c, 9, 40, 0
4, 38400, Note_on_c, 9, 51, 88
4, 38672, Note_on_c, 9, 51, 0
4, 38868, Note_on_c, 9, 44, 55
4, 38880, Note_on_c, 9, 51, 90
4, 38912, Note_on_c, 9, 63, 41
4, 38944, Note_on_c, 9, 63, 0
4, 38996, Note_on_c, 9, 44, 0
4, 39240, Note_on_c, 9, 64, 80
4, 39248, Note_on_c, 9, 51, 0
4, 39360, Note_on_c, 9, 51, 74
4, 39488, Note_on_c, 9, 64, 0
4, 39684, Note_on_c, 9, 51, 0
4, 39828, Note_on_c, 9, 44, 52
4, 39840, Note_on_c, 9, 51, 68
4, 39864, Note_on_c, 9, 62, 73
4, 40008, Note_on_c, 9, 44, 0
4, 40028, Note_on_c, 9, 62, 0
4, 40168, Note_on_c, 9, 51, 0
4, 40320, Note_on_c, 9, 51, 66
4, 40720, Note_on_c, 9, 51, 0
4, 40788, Note_on_c, 9, 44, 62
4, 40800, Note_on_c, 9, 51, 74
4, 40804, Note_on_c, 9, 63, 53
4, 40868, Note_on_c, 9, 63, 0
4, 40956, Note_on_c, 9, 44, 0
4, 41080, Note_on_c, 9, 41, 53
4, 41092, Note_on_c, 9, 64, 104
4, 41104, Note_on_c, 9, 41, 0
4, 41208, Note_on_c, 9, 51, 0
4, 41280, Note_on_c, 9, 51, 81
4, 41352, Note_on_c, 9, 64, 0
4, 41584, Note_on_c, 9, 35, 67
4, 41632, Note_on_c, 9, 51, 0
4, 41676, Note_on_c, 9, 35, 0
4, 41748, Note_on_c, 9, 44, 68
4, 41760, Note_on_c, 9, 51, 66
4, 41764, Note_on_c, 9, 62, 88
4, 41932, Note_on_c, 9, 62, 0
4, 41956, Note_on_c, 9, 44, 0
4, 42108, Note_on_c, 9, 51, 0
4, 42240, Note_on_c, 9, 51, 64
4, 42648, Note_on_c, 9, 51, 0
4, 42708, Note_on_c, 9, 44, 58
4, 42720, Note_on_c, 9, 51, 78
4, 42728, Note_on_c, 9, 63, 36
4, 42828, Note_on_c, 9, 63, 0
4, 42896, Note_on_c, 9, 44, 0
4, 42964, Note_on_c, 9, 51, 0
4, 43040, Note_on_c, 9, 51, 68
4, 43064, Note_on_c, 9, 64, 59
4, 43112, Note_on_c, 9, 64, 0
4, 43512, Note_on_c, 9, 64, 85
4, 43580, Note_on_c, 9, 51, 0
4, 43652, Note_on_c, 9, 64, 0
4, 43668, Note_on_c, 9, 44, 65
4, 43680, Note_on_c, 9, 51, 81
4, 43692, Note_on_c, 9, 62, 95
4, 43836, Note_on_c, 9, 44, 0
4, 43852, Note_on_c, 9, 62, 0
4, 43980, Note_on_c, 9, 51, 0
4, 44160, Note_on_c, 9, 51, 74
4, 44160, Note_on_c, 9, 35, 52
4, 44460, Note_on_c, 9, 35, 41
4, 44472, Note_on_c, 9, 51, 0
4, 44480, Note_on_c, 9, 63, 39
4, 44488, Note_on_c, 9, 35, 0
4, 44520, Note_on_c, 9, 35, 0
4, 44588, Note_on_c, 9, 63, 0
4, 44628, Note_on_c, 9, 44, 61
4, 44640, Note_on_c, 9, 51, 86
4, 44652, Note_on_c, 9, 64, 37
4, 44788, Note_on_c, 9, 44, 0
4, 44820, Note_on_c, 9, 64, 0
4, 44944, Note_on_c, 9, 51, 0
4, 44968, Note_on_c, 9, 64, 115
4, 45112, Note_on_c, 9, 64, 0
4, 45120, Note_on_c, 9, 51, 81
4, 45428, Note_on_c, 9, 51, 0
4, 45440, Note_on_c, 9, 35, 37
4, 45468, Note_on_c, 9, 35, 0
4, 45588, Note_on_c, 9, 44, 65
4, 45592, Note_on_c, 9, 35, 24
4, 45600, Note_on_c, 9, 51, 69
4, 45612, Note_on_c, 9, 62, 110
4, 45620, Note_on_c, 9, 35, 0
4, 45708, Note_on_c, 9, 44, 0
4, 45824, Note_on_c, 9, 62, 0
4, 45904, Note_on_c, 9, 62, 101
4, 46020, Note_on_c, 9, 51, 0
4, 46024, Note_on_c, 9, 62, 0
4, 46080, Note_on_c, 9, 51, 85
4, 46380, Note_on_c, 9, 35, 39
4, 46400, Note_on_c, 9, 62, 41
4, 46412, Note_on_c, 9, 35, 0
4, 46432, Note_on_c, 9, 62, 0
4, 46492, Note_on_c, 9, 51, 0
4, 46548, Note_on_c, 9, 44, 67
4, 46560, Note_on_c, 9, 51, 73
4, 46572, Note_on_c, 9, 63, 58
4, 46660, Note_on_c, 9, 63, 0
4, 46688, Note_on_c, 9, 44, 0
4, 46692, Note_on_c, 9, 64, 73
4, 46852, Note_on_c, 9, 35, 44
4, 46872, Note_on_c, 9, 51, 0
4, 46880, Note_on_c, 9, 35, 0
4, 46880, Note_on_c, 9, 35, 46
4, 46900, Note_on_c, 9, 64, 0
4, 46960, Note_on_c, 9, 35, 0
4, 47040, Note_on_c, 9, 51, 69
4, 47208, Note_on_c, 9, 41, 29
4, 47228, Note_on_c, 9, 41, 0
4, 47452, Note_on_c, 9, 51, 0
4, 47508, Note_on_c, 9, 46, 58
4, 47512, Note_on_c, 9, 62, 69
4, 47512, Note_on_c, 9, 41, 39
4, 47520, Note_on_c, 9, 51, 78
4, 47540, Note_on_c, 9, 41, 0
4, 47596, Note_on_c, 9, 62, 0
4, 47616, Note_on_c, 9, 46, 0
4, 47808, Note_on_c, 9, 46, 56
4, 47820, Note_on_c, 9, 35, 48
4, 47844, Note_on_c, 9, 51, 0
4, 47880, Note_on_c, 9, 46, 0
4, 48000, Note_on_c, 9, 51, 66
4, 48124, Note_on_c, 9, 35, 0
4, 48388, Note_on_c, 9, 51, 0
4, 48468, Note_on_c, 9, 44, 60
4, 48480, Note_on_c, 9, 51, 76
4, 48488, Note_on_c, 9, 63, 40
4, 48596, Note_on_c, 9, 63, 0
4, 48628, Note_on_c, 9, 44, 0
4, 48800, Note_on_c, 9, 63, 88
4, 48872, Note_on_c, 9, 51, 0
4, 48952, Note_on_c, 9, 63, 0
4, 48960, Note_on_c, 9, 51, 76
4, 49120, Note_on_c, 9, 38, 63
4, 49200, Note_on_c, 9, 38, 0
4, 49208, Note_on_c, 9, 51, 0
4, 49284, Note_on_c, 9, 62, 29
4, 49308, Note_on_c, 9, 62, 0
4, 49428, Note_on_c, 9, 44, 55
4, 49440, Note_on_c, 9, 51, 91
4, 49448, Note_on_c, 9, 64, 88
4, 49592, Note_on_c, 9, 45, 57
4, 49608, Note_on_c, 9, 44, 0
4, 49612, Note_on_c, 9, 64, 0
4, 49616, Note_on_c, 9, 45, 0
4, 49692, Note_on_c, 9, 51, 0
4, 49744, Note_on_c, 9, 35, 54
4, 49760, Note_on_c, 9, 51, 127
4, 49808, Note_on_c, 9, 35, 0
4, 49852, Note_on_c, 9, 51, 0
4, 49912, Note_on_c, 9, 46, 33
4, 49920, Note_on_c, 9, 51, 66
4, 49996, Note_on_c, 9, 46, 0
4, 50240, Note_on_c, 9, 51, 0
4, 50388, Note_on_c, 9, 44, 60
4, 50400, Note_on_c, 9, 51, 71
4, 50400, Note_on_c, 9, 63, 51
4, 50460, Note_on_c, 9, 63, 0
4, 50508, Note_on_c, 9, 44, 0
4, 50668, Note_on_c, 9, 51, 0
4, 50720, Note_on_c, 9, 51, 57
4, 50728, Note_on_c, 9, 63, 54
4, 50796, Note_on_c, 9, 63, 0
4, 50800, Note_on_c, 9, 51, 0
4, 50880, Note_on_c, 9, 51, 88
4, 51140, Note_on_c, 9, 62, 79
4, 51149, Note_on_c, 9, 40, 70
4, 51184, Note_on_c, 9, 51, 0
4, 51192, Note_on_c, 9, 62, 0
4, 51281, Note_on_c, 9, 40, 0
4, 51348, Note_on_c, 9, 44, 60
4, 51360, Note_on_c, 9, 51, 64
4, 51496, Note_on_c, 9, 44, 0
4, 51629, Note_on_c, 9, 40, 70
4, 51664, Note_on_c, 9, 51, 0
4, 51761, Note_on_c, 9, 40, 0
4, 51840, Note_on_c, 9, 51, 73
4, 52220, Note_on_c, 9, 51, 0
4, 52300, Note_on_c, 9, 63, 56
4, 52308, Note_on_c, 9, 44, 56
4, 52320, Note_on_c, 9, 51, 79
4, 52444, Note_on_c, 9, 63, 0
4, 52476, Note_on_c, 9, 44, 0
4, 52640, Note_on_c, 9, 64, 88
4, 52704, Note_on_c, 9, 51, 0
4, 52768, Note_on_c, 9, 64, 0
4, 52800, Note_on_c, 9, 51, 73
4, 53128, Note_on_c, 9, 51, 0
4, 53264, Note_on_c, 9, 62, 60
4, 53268, Note_on_c, 9, 44, 55
4, 53280, Note_on_c, 9, 51, 62
4, 53384, Note_on_c, 9, 62, 0
4, 53448, Note_on_c, 9, 44, 0
4, 53520, Note_on_c, 9, 51, 0
4, 53600, Note_on_c, 9, 51, 108
4, 54029, Note_on_c, 9, 40, 51
4, 54072, Note_on_c, 9, 51, 0
4, 54157, Note_on_c, 9, 40, 0
4, 54228, Note_on_c, 9, 44, 55
4, 54228, Note_on_c, 9, 63, 43
4, 54240, Note_on_c, 9, 51, 79
4, 54372, Note_on_c, 9, 63, 0
4, 54416, Note_on_c, 9, 44, 0
4, 54584, Note_on_c, 9, 64, 94
4, 54608, Note_on_c, 9, 51, 0
4, 54720, Note_on_c, 9, 51, 74
4, 54788, Note_on_c, 9, 64, 0
4, 54880, Note_on_c, 9, 45, 45
4, 54924, Note_on_c, 9, 45, 0
4, 54989, Note_on_c, 9, 40, 63
4, 55052, Note_on_c, 9, 62, 51
4, 55060, Note_on_c, 9, 51, 0
4, 55076, Note_on_c, 9, 62, 0
4, 55117, Note_on_c, 9, 40, 0
4, 55188, Note_on_c, 9, 44, 53
4, 55200, Note_on_c, 9, 51, 68
4, 55220, Note_on_c, 9, 62, 110
4, 55352, Note_on_c, 9, 45, 49
4, 55368, Note_on_c, 9, 44, 0
4, 55404, Note_on_c, 9, 45, 0
4, 55452, Note_on_c, 9, 62, 0
4, 55508, Note_on_c, 9, 62, 99
4, 55604, Note_on_c, 9, 51, 0
4, 55660, Note_on_c, 9, 35, 64
4, 55676, Note_on_c, 9, 62, 0
4, 55680, Note_on_c, 9, 51, 86
4, 55724, Note_on_c, 9, 35, 0
4, 56064, Note_on_c, 9, 51, 0
4, 56144, Note_on_c, 9, 63, 50
4, 56148, Note_on_c, 9, 44, 54
4, 56160, Note_on_c, 9, 51, 74
4, 56276, Note_on_c, 9, 44, 0
4, 56356, Note_on_c, 9, 63, 0
4, 56429, Note_on_c, 9, 40, 59
4, 56468, Note_on_c, 9, 51, 0
4, 56468, Note_on_c, 9, 35, 43
4, 56472, Note_on_c, 9, 63, 55
4, 56496, Note_on_c, 9, 35, 0
4, 56529, Note_on_c, 9, 40, 0
4, 56564, Note_on_c, 9, 63, 0
4, 56640, Note_on_c, 9, 51, 68
4, 57000, Note_on_c, 9, 51, 0
4, 57108, Note_on_c, 9, 44, 52
4, 57120, Note_on_c, 9, 51, 74
4, 57160, Note_on_c, 9, 64, 78
4, 57276, Note_on_c, 9, 44, 0
4, 57288, Note_on_c, 9, 45, 32
4, 57300, Note_on_c, 9, 64, 0
4, 57312, Note_on_c, 9, 45, 0
4, 57420, Note_on_c, 9, 35, 41
4, 57452, Note_on_c, 9, 35, 0
4, 57500, Note_on_c, 9, 51, 0
4, 57588, Note_on_c, 9, 46, 52
4, 57592, Note_on_c, 9, 35, 56
4, 57600, Note_on_c, 9, 51, 76
4, 57612, Note_on_c, 9, 46, 0
4, 57636, Note_on_c, 9, 35, 0
4, 57869, Note_on_c, 9, 40, 47
4, 57912, Note_on_c, 9, 51, 0
4, 57989, Note_on_c, 9, 40, 0
4, 58068, Note_on_c, 9, 44, 45
4, 58080, Note_on_c, 9, 51, 73
4, 58148, Note_on_c, 9, 44, 0
4, 58404, Note_on_c, 9, 35, 50
4, 58428, Note_on_c, 9, 51, 0
4, 58432, Note_on_c, 9, 35, 0
4, 58560, Note_on_c, 9, 51, 83
4, 58829, Note_on_c, 9, 40, 53
4, 58840, Note_on_c, 9, 51, 0
4, 58949, Note_on_c, 9, 40, 0
4, 59028, Note_on_c, 9, 44, 43
4, 59032, Note_on_c, 9, 64, 64
4, 59040, Note_on_c, 9, 51, 74
4, 59112, Note_on_c, 9, 64, 0
4, 59168, Note_on_c, 9, 44, 0
4, 59340, Note_on_c, 9, 51, 0
4, 59348, Note_on_c, 9, 35, 41
4, 59392, Note_on_c, 9, 35, 0
4, 59508, Note_on_c, 9, 35, 39
4, 59520, Note_on_c, 9, 51, 98
4, 59520, Note_on_c, 9, 46, 53
4, 59556, Note_on_c, 9, 35, 0
4, 59660, Note_on_c, 9, 46, 0
4, 59824, Note_on_c, 9, 51, 0
4, 59844, Note_on_c, 9, 62, 61
4, 59904, Note_on_c, 9, 62, 0
4, 59988, Note_on_c, 9, 44, 51
4, 60000, Note_on_c, 9, 51, 93
4, 60028, Note_on_c, 9, 63, 35
4, 60148, Note_on_c, 9, 44, 0
4, 60228, Note_on_c, 9, 51, 0
4, 60268, Note_on_c, 9, 63, 0
4, 60312, Note_on_c, 9, 35, 49
4, 60320, Note_on_c, 9, 63, 82
4, 60320, Note_on_c, 9, 51, 98
4, 60340, Note_on_c, 9, 35, 0
4, 60404, Note_on_c, 9, 51, 0
4, 60444, Note_on_c, 9, 63, 0
4, 60480, Note_on_c, 9, 51, 68
4, 60749, Note_on_c, 9, 40, 65
4, 60804, Note_on_c, 9, 51, 0
4, 60897, Note_on_c, 9, 40, 0
4, 60948, Note_on_c, 9, 44, 50
4, 60960, Note_on_c, 9, 51, 69
4, 61000, Note_on_c, 9, 64, 54
4, 61052, Note_on_c, 9, 64, 0
4, 61096, Note_on_c, 9, 44, 0
4, 61264, Note_on_c, 9, 35, 49
4, 61316, Note_on_c, 9, 35, 0
4, 61348, Note_on_c, 9, 51, 0
4, 61440, Note_on_c, 9, 51, 81
4, 61780, Note_on_c, 9, 63, 72
4, 61840, Note_on_c, 9, 51, 0
4, 61872, Note_on_c, 9, 63, 0
4, 61908, Note_on_c, 9, 44, 54
4, 61920, Note_on_c, 9, 51, 81
4, 61952, Note_on_c, 9, 62, 63
4, 62076, Note_on_c, 9, 44, 0
4, 62172, Note_on_c, 9, 62, 0
4, 62189, Note_on_c, 9, 40, 55
4, 62232, Note_on_c, 9, 35, 36
4, 62260, Note_on_c, 9, 35, 0
4, 62264, Note_on_c, 9, 51, 0
4, 62264, Note_on_c, 9, 64, 59
4, 62312, Note_on_c, 9, 64, 0
4, 62333, Note_on_c, 9, 40, 0
4, 62392, Note_on_c, 9, 52, 45
4, 62400, Note_on_c, 9, 51, 68
4, 62532, Note_on_c, 9, 52, 0
4, 62792, Note_on_c, 9, 51, 0
4, 62868, Note_on_c, 9, 44, 54
4, 62880, Note_on_c, 9, 51, 74
4, 63036, Note_on_c, 9, 44, 0
4, 63149, Note_on_c, 9, 40, 51
4, 63188, Note_on_c, 9, 35, 73
4, 63208, Note_on_c, 9, 51, 0
4, 63240, Note_on_c, 9, 35, 0
4, 63301, Note_on_c, 9, 40, 0
4, 63360, Note_on_c, 9, 36, 38
4, 63360, Note_on_c, 9, 51, 68
4, 63440, Note_on_c, 9, 36, 0
4, 63680, Note_on_c, 9, 63, 43
4, 63772, Note_on_c, 9, 51, 0
4, 63788, Note_on_c, 9, 63, 0
4, 63828, Note_on_c, 9, 44, 57
4, 63840, Note_on_c, 9, 51, 71
4, 63848, Note_on_c, 9, 62, 60
4, 63920, Note_on_c, 9, 62, 0
4, 64008, Note_on_c, 9, 44, 0
4, 64144, Note_on_c, 9, 35, 73
4, 64160, Note_on_c, 9, 36, 56
4, 64188, Note_on_c, 9, 36, 0
4, 64224, Note_on_c, 9, 35, 0
4, 64228, Note_on_c, 9, 51, 0
4, 64320, Note_on_c, 9, 51, 79
4, 64589, Note_on_c, 9, 40, 60
4, 64620, Note_on_c, 9, 51, 0
4, 64693, Note_on_c, 9, 40, 0
4, 64788, Note_on_c, 9, 44, 61
4, 64800, Note_on_c, 9, 51, 66
4, 64936, Note_on_c, 9, 44, 0
4, 65069, Note_on_c, 9, 40, 55
4, 65092, Note_on_c, 9, 35, 48
4, 65104, Note_on_c, 9, 51, 0
4, 65160, Note_on_c, 9, 35, 0
4, 65201, Note_on_c, 9, 40, 0
4, 65252, Note_on_c, 9, 35, 37
4, 65280, Note_on_c, 9, 51, 73
4, 65300, Note_on_c, 9, 35, 0
4, 65564, Note_on_c, 9, 63, 54
4, 65632, Note_on_c, 9, 63, 0
4, 65680, Note_on_c, 9, 51, 0
4, 65748, Note_on_c, 9, 44, 53
4, 65760, Note_on_c, 9, 51, 85
4, 65936, Note_on_c, 9, 44, 0
4, 66028, Note_on_c, 9, 51, 0
4, 66080, Note_on_c, 9, 51, 93
4, 66108, Note_on_c, 9, 36, 53
4, 66196, Note_on_c, 9, 36, 0
4, 66272, Note_on_c, 9, 36, 52
4, 66504, Note_on_c, 9, 36, 0
4, 66552, Note_on_c, 9, 36, 50
4, 66592, Note_on_c, 9, 36, 0
4, 66644, Note_on_c, 9, 51, 0
4, 66708, Note_on_c, 9, 44, 57
4, 66720, Note_on_c, 9, 51, 100
4, 66752, Note_on_c, 9, 64, 58
4, 66896, Note_on_c, 9, 44, 0
4, 66920, Note_on_c, 9, 64, 0
4, 67040, Note_on_c, 9, 64, 100
4, 67100, Note_on_c, 9, 51, 0
4, 67200, Note_on_c, 9, 51, 74
4, 67204, Note_on_c, 9, 64, 0
4, 67488, Note_on_c, 9, 51, 0
4, 67668, Note_on_c, 9, 44, 62
4, 67680, Note_on_c, 9, 51, 68
4, 67700, Note_on_c, 9, 63, 47
4, 67828, Note_on_c, 9, 44, 0
4, 67940, Note_on_c, 9, 63, 0
4, 68000, Note_on_c, 9, 63, 47
4, 68004, Note_on_c, 9, 51, 0
4, 68152, Note_on_c, 9, 63, 0
4, 68160, Note_on_c, 9, 51, 61
4, 68484, Note_on_c, 9, 35, 32
4, 68512, Note_on_c, 9, 35, 0
4, 68540, Note_on_c, 9, 51, 0
4, 68628, Note_on_c, 9, 44, 60
4, 68640, Note_on_c, 9, 51, 73
4, 68648, Note_on_c, 9, 64, 71
4, 68848, Note_on_c, 9, 44, 0
4, 68864, Note_on_c, 9, 51, 0
4, 68880, Note_on_c, 9, 64, 0
4, 68940, Note_on_c, 9, 36, 76
4, 68944, Note_on_c, 9, 64, 76
4, 68960, Note_on_c, 9, 51, 96
4, 69008, Note_on_c, 9, 36, 0
4, 69040, Note_on_c, 9, 51, 0
4, 69052, Note_on_c, 9, 64, 0
4, 69120, Note_on_c, 9, 51, 57
4, 69424, Note_on_c, 9, 62, 41
4, 69452, Note_on_c, 9, 62, 0
4, 69480, Note_on_c, 9, 51, 0
4, 69588, Note_on_c, 9, 44, 61
4, 69592, Note_on_c, 9, 63, 41
4, 69600, Note_on_c, 9, 51, 79
4, 69796, Note_on_c, 9, 44, 0
4, 69824, Note_on_c, 9, 63, 0
4, 69888, Note_on_c, 9, 63, 57
4, 69968, Note_on_c, 9, 63, 0
4, 69984, Note_on_c, 9, 51, 0
4, 70080, Note_on_c, 9, 51, 69
4, 70108, Note_on_c, 9, 47, 39
4, 70132, Note_on_c, 9, 47, 0
4, 70212, Note_on_c, 9, 64, 40
4, 70228, Note_on_c, 9, 47, 39
4, 70256, Note_on_c, 9, 47, 0
4, 70256, Note_on_c, 9, 64, 0
4, 70349, Note_on_c, 9, 40, 56
4, 70364, Note_on_c, 9, 64, 90
4, 70380, Note_on_c, 9, 51, 0
4, 70388, Note_on_c, 9, 36, 52
4, 70416, Note_on_c, 9, 36, 0
4, 70461, Note_on_c, 9, 40, 0
4, 70464, Note_on_c, 9, 64, 0
4, 70512, Note_on_c, 9, 64, 96
4, 70548, Note_on_c, 9, 46, 45
4, 70560, Note_on_c, 9, 51, 66
4, 70568, Note_on_c, 9, 45, 70
4, 70612, Note_on_c, 9, 45, 0
4, 70688, Note_on_c, 9, 45, 59
4, 70696, Note_on_c, 9, 46, 0
4, 70712, Note_on_c, 9, 64, 0
4, 70712, Note_on_c, 9, 45, 0
4, 70860, Note_on_c, 9, 35, 79
4, 70860, Note_on_c, 9, 35, 67
4, 70860, Note_on_c, 9, 62, 55
4, 70904, Note_on_c, 9, 51, 0
4, 70920, Note_on_c, 9, 62, 0
4, 70972, Note_on_c, 9, 35, 0
4, 71004, Note_on_c, 9, 35, 0
4, 71028, Note_on_c, 9, 35, 48
4, 71040, Note_on_c, 9, 51, 76
4, 71068, Note_on_c, 9, 35, 0
4, 71309, Note_on_c, 9, 40, 59
4, 71312, Note_on_c, 9, 51, 0
4, 71429, Note_on_c, 9, 40, 0
4, 71508, Note_on_c, 9, 44, 45
4, 71520, Note_on_c, 9, 51, 76
4, 71524, Note_on_c, 9, 63, 47
4, 71704, Note_on_c, 9, 63, 0
4, 71728, Note_on_c, 9, 44, 0
4, 71789, Note_on_c, 9, 40, 45
4, 71800, Note_on_c, 9, 63, 62
4, 71820, Note_on_c, 9, 51, 0
4, 71840, Note_on_c, 9, 43, 56
4, 71840, Note_on_c, 9, 35, 54
4, 71868, Note_on_c, 9, 35, 0
4, 71897, Note_on_c, 9, 40, 0
4, 71920, Note_on_c, 9, 43, 0
4, 71924, Note_on_c, 9, 63, 0
4, 72000, Note_on_c, 9, 51, 68
4, 72269, Note_on_c, 9, 40, 56
4, 72292, Note_on_c, 9, 51, 0
4, 72292, Note_on_c, 9, 62, 47
4, 72320, Note_on_c, 9, 62, 0
4, 72369, Note_on_c, 9, 40, 0
4, 72448, Note_on_c, 9, 64, 74
4, 72468, Note_on_c, 9, 44, 52
4, 72480, Note_on_c, 9, 51, 73
4, 72648, Note_on_c, 9, 38, 60
4, 72668, Note_on_c, 9, 44, 0
4, 72676, Note_on_c, 9, 38, 0
4, 72680, Note_on_c, 9, 64, 0
4, 72708, Note_on_c, 9, 51, 0
4, 72740, Note_on_c, 9, 64, 69
4, 72784, Note_on_c, 9, 30, 41
4, 72800, Note_on_c, 9, 51, 117
4, 72852, Note_on_c, 9, 64, 0
4, 72880, Note_on_c, 9, 51, 0
4, 72932, Note_on_c, 9, 30, 0
4, 72960, Note_on_c, 9, 51, 52
4, 72968, Note_on_c, 9, 36, 38
4, 73040, Note_on_c, 9, 36, 0
4, 73229, Note_on_c, 9, 40, 50
4, 73248, Note_on_c, 9, 51, 0
4, 73341, Note_on_c, 9, 40, 0
4, 73428, Note_on_c, 9, 44, 57
4, 73440, Note_on_c, 9, 51, 66
4, 73464, Note_on_c, 9, 63, 20
4, 73588, Note_on_c, 9, 44, 0
4, 73636, Note_on_c, 9, 63, 0
4, 73768, Note_on_c, 9, 63, 49
4, 73880, Note_on_c, 9, 63, 0
4, 73892, Note_on_c, 9, 51, 0
4, 73920, Note_on_c, 9, 51, 93
4, 74124, Note_on_c, 9, 38, 52
4, 74152, Note_on_c, 9, 38, 0
4, 74320, Note_on_c, 9, 51, 0
4, 74388, Note_on_c, 9, 44, 56
4, 74400, Note_on_c, 9, 51, 66
4, 74408, Note_on_c, 9, 62, 88
4, 74424, Note_on_c, 9, 38, 46
4, 74472, Note_on_c, 9, 38, 0
4, 74508, Note_on_c, 9, 62, 0
4, 74548, Note_on_c, 9, 44, 0
4, 74768, Note_on_c, 9, 51, 0
4, 74880, Note_on_c, 9, 51, 95
4, 75064, Note_on_c, 9, 38, 52
4, 75096, Note_on_c, 9, 38, 0
4, 75272, Note_on_c, 9, 51, 0
4, 75340, Note_on_c, 9, 36, 67
4, 75348, Note_on_c, 9, 44, 51
4, 75360, Note_on_c, 9, 51, 73
4, 75372, Note_on_c, 9, 63, 43
4, 75464, Note_on_c, 9, 36, 0
4, 75528, Note_on_c, 9, 44, 0
4, 75584, Note_on_c, 9, 63, 0
4, 75629, Note_on_c, 9, 40, 60
4, 75660, Note_on_c, 9, 64, 44
4, 75668, Note_on_c, 9, 51, 0
4, 75724, Note_on_c, 9, 64, 0
4, 75761, Note_on_c, 9, 40, 0
4, 75824, Note_on_c, 9, 38, 47
4, 75840, Note_on_c, 9, 51, 66
4, 75876, Note_on_c, 9, 38, 0
4, 76100, Note_on_c, 9, 35, 75
4, 76212, Note_on_c, 9, 35, 0
4, 76220, Note_on_c, 9, 51, 0
4, 76288, Note_on_c, 9, 62, 85
4, 76308, Note_on_c, 9, 44, 61
4, 76320, Note_on_c, 9, 51, 74
4, 76472, Note_on_c, 9, 62, 0
4, 76488, Note_on_c, 9, 44, 0
4, 76588, Note_on_c, 9, 62, 110
4, 76716, Note_on_c, 9, 62, 0
4, 76728, Note_on_c, 9, 51, 0
4, 76800, Note_on_c, 9, 51, 83
4, 77152, Note_on_c, 9, 51, 0
4, 77268, Note_on_c, 9, 44, 51
4, 77280, Note_on_c, 9, 51, 64
4, 77304, Note_on_c, 9, 63, 51
4, 77468, Note_on_c, 9, 63, 0
4, 77468, Note_on_c, 9, 44, 0
4, 77580, Note_on_c, 9, 63, 51
4, 77684, Note_on_c, 9, 63, 0
4, 77688, Note_on_c, 9, 51, 0
4, 77760, Note_on_c, 9, 51, 88
4, 77869, Note_on_c, 9, 40, 52
4, 77920, Note_on_c, 9, 38, 51
4, 77928, Note_on_c, 9, 51, 0
4, 77981, Note_on_c, 9, 40, 0
4, 78024, Note_on_c, 9, 38, 0
4, 78029, Note_on_c, 9, 40, 60
4, 78129, Note_on_c, 9, 40, 0
4, 78228, Note_on_c, 9, 44, 55
4, 78232, Note_on_c, 9, 35, 56
4, 78240, Note_on_c, 9, 51, 105
4, 78244, Note_on_c, 9, 62, 104
4, 78280, Note_on_c, 9, 35, 0
4, 78384, Note_on_c, 9, 62, 0
4, 78396, Note_on_c, 9, 44, 0
4, 78532, Note_on_c, 9, 38, 55
4, 78600, Note_on_c, 9, 38, 0
4, 78640, Note_on_c, 9, 51, 0
4, 78720, Note_on_c, 9, 51, 95
4, 78989, Note_on_c, 9, 40, 59
4, 79024, Note_on_c, 9, 63, 48
4, 79052, Note_on_c, 9, 51, 0
4, 79088, Note_on_c, 9, 63, 0
4, 79172, Note_on_c, 9, 64, 80
4, 79188, Note_on_c, 9, 44, 56
4, 79189, Note_on_c, 9, 40, 0
4, 79200, Note_on_c, 9, 51, 91
4, 79308, Note_on_c, 9, 44, 0
4, 79424, Note_on_c, 9, 64, 0
4, 79469, Note_on_c, 9, 40, 64
4, 79492, Note_on_c, 9, 64, 101
4, 79500, Note_on_c, 9, 51, 0
4, 79601, Note_on_c, 9, 40, 0
4, 79680, Note_on_c, 9, 51, 83
4, 79700, Note_on_c, 9, 64, 0
4, 79968, Note_on_c, 9, 46, 54
4, 80020, Note_on_c, 9, 46, 0
4, 80072, Note_on_c, 9, 51, 0
4, 80148, Note_on_c, 9, 44, 72
4, 80160, Note_on_c, 9, 51, 88
4, 80168, Note_on_c, 9, 62, 74
4, 80248, Note_on_c, 9, 62, 0
4, 80268, Note_on_c, 9, 44, 0
4, 80568, Note_on_c, 9, 51, 0
4, 80640, Note_on_c, 9, 51, 78
4, 80909, Note_on_c, 9, 40, 56
4, 80960, Note_on_c, 9, 51, 0
4, 80960, Note_on_c, 9, 62, 58
4, 81029, Note_on_c, 9, 40, 0
4, 81040, Note_on_c, 9, 62, 0
4, 81108, Note_on_c, 9, 44, 69
4, 81120, Note_on_c, 9, 51, 74
4, 81140, Note_on_c, 9, 64, 34
4, 81228, Note_on_c, 9, 44, 0
4, 81324, Note_on_c, 9, 64, 0
4, 81389, Note_on_c, 9, 40, 63
4, 81400, Note_on_c, 9, 51, 0
4, 81464, Note_on_c, 9, 64, 55
4, 81493, Note_on_c, 9, 40, 0
4, 81556, Note_on_c, 9, 64, 0
4, 81600, Note_on_c, 9, 51, 86
4, 81980, Note_on_c, 9, 51, 0
4, 82068, Note_on_c, 9, 44, 65
4, 82080, Note_on_c, 9, 51, 90
4, 82108, Note_on_c, 9, 62, 100
4, 82208, Note_on_c, 9, 62, 0
4, 82216, Note_on_c, 9, 44, 0
4, 82372, Note_on_c, 9, 51, 0
4, 82400, Note_on_c, 9, 35, 64
4, 82464, Note_on_c, 9, 35, 0
4, 82552, Note_on_c, 9, 35, 39
4, 82560, Note_on_c, 9, 51, 102
4, 82612, Note_on_c, 9, 35, 0
4, 82880, Note_on_c, 9, 63, 87
4, 82928, Note_on_c, 9, 51, 0
4, 83012, Note_on_c, 9, 63, 0
4, 83028, Note_on_c, 9, 44, 63
4, 83040, Note_on_c, 9, 51, 81
4, 83084, Note_on_c, 9, 64, 37
4, 83196, Note_on_c, 9, 44, 0
4, 83224, Note_on_c, 9, 46, 39
4, 83248, Note_on_c, 9, 46, 0
4, 83309, Note_on_c, 9, 40, 60
4, 83324, Note_on_c, 9, 64, 0
4, 83344, Note_on_c, 9, 51, 0
4, 83360, Note_on_c, 9, 35, 34
4, 83384, Note_on_c, 9, 64, 65
4, 83404, Note_on_c, 9, 35, 0
4, 83453, Note_on_c, 9, 40, 0
4, 83512, Note_on_c, 9, 46, 38
4, 83520, Note_on_c, 9, 51, 61
4, 83524, Note_on_c, 9, 64, 0
4, 83544, Note_on_c, 9, 46, 0
4, 83832, Note_on_c, 9, 35, 34
4, 83864, Note_on_c, 9, 35, 0
4, 83872, Note_on_c, 9, 51, 0
4, 83988, Note_on_c, 9, 44, 64
4, 84000, Note_on_c, 9, 51, 71
4, 84024, Note_on_c, 9, 62, 45
4, 84176, Note_on_c, 9, 44, 0
4, 84244, Note_on_c, 9, 62, 0
4, 84269, Note_on_c, 9, 40, 54
4, 84288, Note_on_c, 9, 51, 0
4, 84312, Note_on_c, 9, 62, 44
4, 84376, Note_on_c, 9, 62, 0
4, 84393, Note_on_c, 9, 40, 0
4, 84480, Note_on_c, 9, 51, 64
4, 84780, Note_on_c, 9, 35, 35
4, 84808, Note_on_c, 9, 35, 0
4, 84860, Note_on_c, 9, 51, 0
4, 84928, Note_on_c, 9, 53, 52
4, 84948, Note_on_c, 9, 44, 66
4, 84960, Note_on_c, 9, 51, 85
4, 85000, Note_on_c, 9, 53, 0
4, 85072, Note_on_c, 9, 53, 56
4, 85104, Note_on_c, 9, 53, 0
4, 85108, Note_on_c, 9, 44, 0
4, 85108, Note_on_c, 9, 63, 65
4, 85160, Note_on_c, 9, 63, 0
4, 85252, Note_on_c, 9, 35, 52
4, 85268, Note_on_c, 9, 51, 0
4, 85272, Note_on_c, 9, 63, 97
4, 85284, Note_on_c, 9, 35, 0
4, 85384, Note_on_c, 9, 63, 0
4, 85440, Note_on_c, 9, 51, 54
4, 85764, Note_on_c, 9, 51, 0
4, 85908, Note_on_c, 9, 44, 68
4, 85920, Note_on_c, 9, 51, 68
4, 85948, Note_on_c, 9, 64, 53
4, 86088, Note_on_c, 9, 44, 0
4, 86092, Note_on_c, 9, 64, 0
4, 86192, Note_on_c, 9, 35, 49
4, 86236, Note_on_c, 9, 35, 0
4, 86304, Note_on_c, 9, 51, 0
4, 86384, Note_on_c, 9, 35, 52
4, 86400, Note_on_c, 9, 51, 74
4, 86412, Note_on_c, 9, 35, 0
4, 86669, Note_on_c, 9, 40, 55
4, 86720, Note_on_c, 9, 51, 0
4, 86801, Note_on_c, 9, 40, 0
4, 86868, Note_on_c, 9, 44, 69
4, 86880, Note_on_c, 9, 51, 71
4, 86900, Note_on_c, 9, 63, 38
4, 86924, Note_on_c, 9, 63, 0
4, 87048, Note_on_c, 9, 44, 0
4, 87048, Note_on_c, 9, 63, 58
4, 87100, Note_on_c, 9, 63, 0
4, 87180, Note_on_c, 9, 35, 43
4, 87204, Note_on_c, 9, 64, 88
4, 87208, Note_on_c, 9, 35, 0
4, 87264, Note_on_c, 9, 51, 0
4, 87316, Note_on_c, 9, 64, 0
4, 87360, Note_on_c, 9, 51, 83
4, 87740, Note_on_c, 9, 51, 0
4, 87828, Note_on_c, 9, 44, 72
4, 87840, Note_on_c, 9, 51, 73
4, 87868, Note_on_c, 9, 62, 73
4, 87948, Note_on_c, 9, 44, 0
4, 88032, Note_on_c, 9, 62, 0
4, 88109, Note_on_c, 9, 40, 59
4, 88152, Note_on_c, 9, 51, 0
4, 88213, Note_on_c, 9, 40, 0
4, 88320, Note_on_c, 9, 51, 69
4, 88324, Note_on_c, 9, 47, 17
4, 88348, Note_on_c, 9, 47, 0
4, 88448, Note_on_c, 9, 47, 27
4, 88488, Note_on_c, 9, 47, 0
4, 88640, Note_on_c, 9, 35, 31
4, 88664, Note_on_c, 9, 35, 0
4, 88688, Note_on_c, 9, 51, 0
4, 88784, Note_on_c, 9, 63, 47
4, 88788, Note_on_c, 9, 44, 68
4, 88800, Note_on_c, 9, 51, 79
4, 88820, Note_on_c, 9, 47, 33
4, 88852, Note_on_c, 9, 63, 0
4, 88860, Note_on_c, 9, 47, 0
4, 88928, Note_on_c, 9, 63, 50
4, 88936, Note_on_c, 9, 44, 0
4, 88964, Note_on_c, 9, 47, 37
4, 88972, Note_on_c, 9, 63, 0
4, 88996, Note_on_c, 9, 47, 0
4, 89000, Note_on_c, 9, 51, 0
4, 89120, Note_on_c, 9, 51, 100
4, 89144, Note_on_c, 9, 35, 49
4, 89172, Note_on_c, 9, 35, 0
4, 89200, Note_on_c, 9, 51, 0
4, 89280, Note_on_c, 9, 51, 62
4, 89640, Note_on_c, 9, 51, 0
4, 89748, Note_on_c, 9, 44, 63
4, 89760, Note_on_c, 9, 51, 86
4, 89768, Note_on_c, 9, 62, 88
4, 89876, Note_on_c, 9, 62, 0
4, 89916, Note_on_c, 9, 44, 0
4, 90029, Note_on_c, 9, 40, 59
4, 90072, Note_on_c, 9, 51, 0
4, 90080, Note_on_c, 9, 35, 79
4, 90144, Note_on_c, 9, 35, 0
4, 90157, Note_on_c, 9, 40, 0
4, 90240, Note_on_c, 9, 51, 68
4, 90612, Note_on_c, 9, 51, 0
4, 90708, Note_on_c, 9, 44, 62
4, 90720, Note_on_c, 9, 51, 83
4, 90748, Note_on_c, 9, 63, 74
4, 90868, Note_on_c, 9, 44, 0
4, 90876, Note_on_c, 9, 63, 0
4, 90924, Note_on_c, 9, 64, 59
4, 90992, Note_on_c, 9, 64, 0
4, 91040, Note_on_c, 9, 35, 65
4, 91068, Note_on_c, 9, 64, 58
4, 91104, Note_on_c, 9, 51, 0
4, 91168, Note_on_c, 9, 35, 0
4, 91180, Note_on_c, 9, 64, 0
4, 91200, Note_on_c, 9, 51, 85
4, 91208, Note_on_c, 9, 35, 35
4, 91308, Note_on_c, 9, 35, 0
4, 91469, Note_on_c, 9, 40, 67
4, 91528, Note_on_c, 9, 51, 0
4, 91609, Note_on_c, 9, 40, 0
4, 91668, Note_on_c, 9, 44, 61
4, 91680, Note_on_c, 9, 51, 71
4, 91712, Note_on_c, 9, 62, 85
4, 91828, Note_on_c, 9, 44, 0
4, 91912, Note_on_c, 9, 62, 0
4, 91949, Note_on_c, 9, 40, 70
4, 91988, Note_on_c, 9, 62, 52
4, 91992, Note_on_c, 9, 35, 83
4, 92008, Note_on_c, 9, 51, 0
4, 92040, Note_on_c, 9, 62, 0
4, 92072, Note_on_c, 9, 35, 0
4, 92097, Note_on_c, 9, 40, 0
4, 92160, Note_on_c, 9, 51, 76
4, 92544, Note_on_c, 9, 51, 0
4, 92628, Note_on_c, 9, 44, 60
4, 92640, Note_on_c, 9, 51, 73
4, 92648, Note_on_c, 9, 63, 54
4, 92788, Note_on_c, 9, 44, 0
4, 92868, Note_on_c, 9, 63, 0
4, 92948, Note_on_c, 9, 51, 0
4, 92948, Note_on_c, 9, 63, 51
4, 93056, Note_on_c, 9, 63, 0
4, 93120, Note_on_c, 9, 51, 74
4, 93268, Note_on_c, 9, 47, 33
4, 93300, Note_on_c, 9, 47, 0
4, 93384, Note_on_c, 9, 51, 0
4, 93428, Note_on_c, 9, 35, 54
4, 93468, Note_on_c, 9, 35, 0
4, 93584, Note_on_c, 9, 62, 120
4, 93588, Note_on_c, 9, 44, 59
4, 93600, Note_on_c, 9, 47, 42
4, 93600, Note_on_c, 9, 51, 81
4, 93624, Note_on_c, 9, 47, 0
4, 93736, Note_on_c, 9, 44, 0
4, 93744, Note_on_c, 9, 62, 0
4, 93928, Note_on_c, 9, 35, 83
4, 94020, Note_on_c, 9, 51, 0
4, 94052, Note_on_c, 9, 35, 0
4, 94080, Note_on_c, 9, 51, 96
4, 94504, Note_on_c, 9, 51, 0
4, 94532, Note_on_c, 9, 63, 66
4, 94548, Note_on_c, 9, 44, 57
4, 94560, Note_on_c, 9, 51, 90
4, 94676, Note_on_c, 9, 44, 0
4, 94732, Note_on_c, 9, 63, 0
4, 94852, Note_on_c, 9, 64, 87
4, 94960, Note_on_c, 9, 51, 0
4, 95040, Note_on_c, 9, 51, 79
4, 95136, Note_on_c, 9, 64, 0
4, 95309, Note_on_c, 9, 40, 58
4, 95368, Note_on_c, 9, 51, 0
4, 95449, Note_on_c, 9, 40, 0
4, 95508, Note_on_c, 9, 44, 47
4, 95520, Note_on_c, 9, 51, 66
4, 95520, Note_on_c, 9, 62, 104
4, 95636, Note_on_c, 9, 44, 0
4, 95680, Note_on_c, 9, 62, 0
4, 95932, Note_on_c, 9, 51, 0
4, 96000, Note_on_c, 9, 51, 88
4, 96392, Note_on_c, 9, 51, 0
4, 96468, Note_on_c, 9, 44, 45
4, 96480, Note_on_c, 9, 51, 90
4, 96484, Note_on_c, 9, 63, 79
4, 96588, Note_on_c, 9, 44, 0
4, 96708, Note_on_c, 9, 63, 0
4, 96772, Note_on_c, 9, 63, 91
4, 96788, Note_on_c, 9, 51, 0
4, 96912, Note_on_c, 9, 63, 0
4, 96960, Note_on_c, 9, 51, 81
4, 97128, Note_on_c, 9, 47, 53
4, 97176, Note_on_c, 9, 47, 0
4, 97260, Note_on_c, 9, 38, 75
4, 97312, Note_on_c, 9, 38, 0
4, 97324, Note_on_c, 9, 51, 0
4, 97404, Note_on_c, 9, 64, 88
4, 97428, Note_on_c, 9, 44, 68
4, 97428, Note_on_c, 9, 35, 80
4, 97440, Note_on_c, 9, 51, 88
4, 97548, Note_on_c, 9, 44, 0
4, 97549, Note_on_c, 9, 40, 74
4, 97620, Note_on_c, 9, 51, 0
4, 97628, Note_on_c, 9, 64, 0
4, 97628, Note_on_c, 9, 35, 0
4, 97633, Note_on_c, 9, 40, 0
4, 97709, Note_on_c, 9, 40, 59
4, 97861, Note_on_c, 9, 40, 0
4, 97920, Note_on_c, 9, 51, 95
4, 98340, Note_on_c, 9, 51, 0
4, 98388, Note_on_c, 9, 44, 66
4, 98400, Note_on_c, 9, 51, 83
4, 98404, Note_on_c, 9, 62, 25
4, 98548, Note_on_c, 9, 44, 0
4, 98584, Note_on_c, 9, 62, 0
4, 98700, Note_on_c, 9, 62, 73
4, 98780, Note_on_c, 9, 51, 0
4, 98880, Note_on_c, 9, 51, 64
4, 98904, Note_on_c, 9, 62, 0
4, 98989, Note_on_c, 9, 40, 61
4, 99008, Note_on_c, 9, 51, 0
4, 99069, Note_on_c, 9, 40, 0
4, 99149, Note_on_c, 9, 40, 72
4, 99289, Note_on_c, 9, 40, 0
4, 99348, Note_on_c, 9, 44, 64
4, 99360, Note_on_c, 9, 63, 69
4, 99360, Note_on_c, 9, 51, 105
4, 99496, Note_on_c, 9, 44, 0
4, 99604, Note_on_c, 9, 63, 0
4, 99664, Note_on_c, 9, 63, 60
4, 99736, Note_on_c, 9, 63, 0
4, 99744, Note_on_c, 9, 51, 0
4, 99840, Note_on_c, 9, 51, 83
4, 100020, Note_on_c, 9, 47, 36
4, 100044, Note_on_c, 9, 47, 0
4, 100152, Note_on_c, 9, 38, 52
4, 100208, Note_on_c, 9, 51, 0
4, 100212, Note_on_c, 9, 38, 0
4, 100308, Note_on_c, 9, 44, 65
4, 100312, Note_on_c, 9, 35, 54
4, 100320, Note_on_c, 9, 51, 76
4, 100392, Note_on_c, 9, 64, 27
4, 100436, Note_on_c, 9, 35, 0
4, 100464, Note_on_c, 9, 64, 0
4, 100488, Note_on_c, 9, 44, 0
4, 100589, Note_on_c, 9, 40, 66
4, 100628, Note_on_c, 9, 51, 0
4, 100701, Note_on_c, 9, 40, 0
4, 100772, Note_on_c, 9, 47, 46
4, 100796, Note_on_c, 9, 47, 0
4, 100800, Note_on_c, 9, 51, 68
4, 100932, Note_on_c, 9, 38, 51
4, 101004, Note_on_c, 9, 38, 0
4, 101069, Note_on_c, 9, 40, 70
4, 101088, Note_on_c, 9, 35, 71
4, 101112, Note_on_c, 9, 35, 0
4, 101112, Note_on_c, 9, 51, 0
4, 101201, Note_on_c, 9, 40, 0
4, 101260, Note_on_c, 9, 46, 61
4, 101260, Note_on_c, 9, 63, 58
4, 101268, Note_on_c, 9, 35, 76
4, 101268, Note_on_c, 9, 44, 72
4, 101280, Note_on_c, 9, 51, 74
4, 101320, Note_on_c, 9, 46, 0
4, 101332, Note_on_c, 9, 35, 0
4, 101476, Note_on_c, 9, 44, 0
4, 101492, Note_on_c, 9, 63, 0
4, 101552, Note_on_c, 9, 46, 80
4, 101552, Note_on_c, 9, 35, 83
4, 101564, Note_on_c, 9, 63, 82
4, 101644, Note_on_c, 9, 46, 0
4, 101648, Note_on_c, 9, 51, 0
4, 101708, Note_on_c, 9, 63, 0
4, 101712, Note_on_c, 9, 35, 0
4, 101760, Note_on_c, 9, 51, 86
4, 102040, Note_on_c, 9, 62, 36
4, 102064, Note_on_c, 9, 62, 0
4, 102172, Note_on_c, 9, 51, 0
4, 102204, Note_on_c, 9, 64, 108
4, 102228, Note_on_c, 9, 44, 72
4, 102240, Note_on_c, 9, 51, 95
4, 102432, Note_on_c, 9, 64, 0
4, 102448, Note_on_c, 9, 44, 0
4, 102564, Note_on_c, 9, 35, 59
4, 102648, Note_on_c, 9, 35, 0
4, 102652, Note_on_c, 9, 51, 0
4, 102720, Note_on_c, 9, 51, 88
4, 102728, Note_on_c, 9, 35, 43
4, 102796, Note_on_c, 9, 35, 0
4, 102989, Note_on_c, 9, 40, 64
4, 103060, Note_on_c, 9, 51, 0
4, 103081, Note_on_c, 9, 40, 0
4, 103188, Note_on_c, 9, 44, 68
4, 103200, Note_on_c, 9, 51, 88
4, 103436, Note_on_c, 9, 44, 0
4, 103469, Note_on_c, 9, 40, 77
4, 103500, Note_on_c, 9, 63, 77
4, 103512, Note_on_c, 9, 51, 0
4, 103577, Note_on_c, 9, 40, 0
4, 103604, Note_on_c, 9, 63, 0
4, 103680, Note_on_c, 9, 51, 85
4, 104052, Note_on_c, 9, 51, 0
4, 104148, Note_on_c, 9, 44, 66
4, 104160, Note_on_c, 9, 51, 90
4, 104180, Note_on_c, 9, 62, 100
4, 104324, Note_on_c, 9, 62, 0
4, 104388, Note_on_c, 9, 44, 0
4, 104488, Note_on_c, 9, 35, 74
4, 104504, Note_on_c, 9, 51, 0
4, 104612, Note_on_c, 9, 35, 0
4, 104640, Note_on_c, 9, 51, 79
4, 104909, Note_on_c, 9, 40, 63
4, 104928, Note_on_c, 9, 51, 0
4, 105021, Note_on_c, 9, 40, 0
4, 105108, Note_on_c, 9, 44, 68
4, 105120, Note_on_c, 9, 51, 81
4, 105144, Note_on_c, 9, 63, 44
4, 105316, Note_on_c, 9, 44, 0
4, 105328, Note_on_c, 9, 63, 0
4, 105364, Note_on_c, 9, 51, 0
4, 105440, Note_on_c, 9, 38, 65
4, 105460, Note_on_c, 9, 64, 90
4, 105524, Note_on_c, 9, 38, 0
4, 105600, Note_on_c, 9, 51, 73
4, 105664, Note_on_c, 9, 64, 0
4, 105968, Note_on_c, 9, 51, 0
4, 106068, Note_on_c, 9, 44, 58
4, 106080, Note_on_c, 9, 51, 79
4, 106088, Note_on_c, 9, 62, 85
4, 106276, Note_on_c, 9, 44, 0
4, 106332, Note_on_c, 9, 62, 0
4, 106388, Note_on_c, 9, 62, 69
4, 106448, Note_on_c, 9, 51, 0
4, 106492, Note_on_c, 9, 62, 0
4, 106560, Note_on_c, 9, 51, 76
4, 106568, Note_on_c, 9, 35, 40
4, 106848, Note_on_c, 9, 51, 0
4, 106860, Note_on_c, 9, 35, 0
4, 106880, Note_on_c, 9, 40, 74
4, 106892, Note_on_c, 9, 35, 39
4, 106924, Note_on_c, 9, 35, 0
4, 106960, Note_on_c, 9, 40, 0
4, 107028, Note_on_c, 9, 44, 70
4, 107040, Note_on_c, 9, 51, 73
4, 107236, Note_on_c, 9, 44, 0
4, 107320, Note_on_c, 9, 51, 0
4, 107360, Note_on_c, 9, 40, 75
4, 107440, Note_on_c, 9, 40, 0
4, 107520, Note_on_c, 9, 51, 64
4, 107668, Note_on_c, 9, 63, 44
4, 107732, Note_on_c, 9, 63, 0
4, 107832, Note_on_c, 9, 63, 53
4, 107888, Note_on_c, 9, 51, 0
4, 107932, Note_on_c, 9, 63, 0
4, 107988, Note_on_c, 9, 44, 67
4, 107992, Note_on_c, 9, 63, 82
4, 108000, Note_on_c, 9, 51, 85
4, 108160, Note_on_c, 9, 63, 0
4, 108188, Note_on_c, 9, 44, 0
4, 108300, Note_on_c, 9, 63, 104
4, 108384, Note_on_c, 9, 51, 0
4, 108464, Note_on_c, 9, 63, 0
4, 108480, Note_on_c, 9, 51, 74
4, 108600, Note_on_c, 9, 51, 0
4, 108780, Note_on_c, 9, 64, 49
4, 108800, Note_on_c, 9, 51, 98
4, 108860, Note_on_c, 9, 64, 0
4, 108904, Note_on_c, 9, 51, 0
4, 108944, Note_on_c, 9, 62, 60
4, 108948, Note_on_c, 9, 46, 61
4, 109028, Note_on_c, 9, 46, 0
4, 109144, Note_on_c, 9, 62, 0
4, 109172, Note_on_c, 9, 35, 50
4, 109204, Note_on_c, 9, 35, 0
4, 109280, Note_on_c, 9, 51, 127
4, 109292, Note_on_c, 9, 35, 81
4, 109356, Note_on_c, 9, 35, 0
4, 109364, Note_on_c, 9, 51, 0
4, 109440, Note_on_c, 9, 51, 105
4, 109440, Note_on_c, 9, 35, 76
4, 109492, Note_on_c, 9, 35, 0
4, 109760, Note_on_c, 9, 64, 55
4, 109792, Note_on_c, 9, 51, 0
4, 109820, Note_on_c, 9, 64, 0
4, 109908, Note_on_c, 9, 44, 67
4, 109920, Note_on_c, 9, 62, 53
4, 109920, Note_on_c, 9, 51, 86
4, 110068, Note_on_c, 9, 44, 0
4, 110144, Note_on_c, 9, 62, 0
4, 110168, Note_on_c, 9, 51, 0
4, 110240, Note_on_c, 9, 38, 65
4, 110252, Note_on_c, 9, 35, 54
4, 110276, Note_on_c, 9, 35, 0
4, 110320, Note_on_c, 9, 38, 0
4, 110400, Note_on_c, 9, 51, 73
4, 110688, Note_on_c, 9, 51, 0
4, 110712, Note_on_c, 9, 64, 85
4, 110812, Note_on_c, 9, 64, 0
4, 110868, Note_on_c, 9, 44, 72
4, 110880, Note_on_c, 9, 51, 64
4, 110884, Note_on_c, 9, 62, 55
4, 111036, Note_on_c, 9, 44, 0
4, 111104, Note_on_c, 9, 62, 0
4, 111164, Note_on_c, 9, 62, 68
4, 111180, Note_on_c, 9, 51, 0
4, 111200, Note_on_c, 9, 38, 84
4, 111216, Note_on_c, 9, 62, 0
4, 111280, Note_on_c, 9, 38, 0
4, 111360, Note_on_c, 9, 51, 66
4, 111752, Note_on_c, 9, 51, 0
4, 111824, Note_on_c, 9, 63, 65
4, 111828, Note_on_c, 9, 44, 68
4, 111840, Note_on_c, 9, 51, 78
4, 111908, Note_on_c, 9, 63, 0
4, 111960, Note_on_c, 9, 63, 28
4, 111968, Note_on_c, 9, 44, 0
4, 112048, Note_on_c, 9, 63, 0
4, 112212, Note_on_c, 9, 51, 0
4, 112320, Note_on_c, 9, 51, 69
4, 112589, Note_on_c, 9, 40, 61
4, 112632, Note_on_c, 9, 51, 0
4, 112713, Note_on_c, 9, 40, 0
4, 112788, Note_on_c, 9, 44, 70
4, 112800, Note_on_c, 9, 51, 69
4, 112828, Note_on_c, 9, 63, 77
4, 112928, Note_on_c, 9, 63, 0
4, 112936, Note_on_c, 9, 44, 0
4, 112984, Note_on_c, 9, 63, 49
4, 113069, Note_on_c, 9, 40, 65
4, 113076, Note_on_c, 9, 63, 0
4, 113124, Note_on_c, 9, 51, 0
4, 113181, Note_on_c, 9, 40, 0
4, 113280, Note_on_c, 9, 51, 69
4, 113288, Note_on_c, 9, 63, 78
4, 113312, Note_on_c, 9, 50, 48
4, 113356, Note_on_c, 9, 50, 0
4, 113372, Note_on_c, 9, 63, 0
4, 113412, Note_on_c, 9, 63, 41
4, 113428, Note_on_c, 9, 50, 32
4, 113480, Note_on_c, 9, 50, 0
4, 113556, Note_on_c, 9, 63, 0
4, 113560, Note_on_c, 9, 50, 30
4, 113588, Note_on_c, 9, 50, 0
4, 113608, Note_on_c, 9, 64, 81
4, 113664, Note_on_c, 9, 51, 0
4, 113748, Note_on_c, 9, 44, 73
4, 113760, Note_on_c, 9, 51, 85
4, 113768, Note_on_c, 9, 64, 0
4, 113768, Note_on_c, 9, 48, 55
4, 113808, Note_on_c, 9, 48, 0
4, 113888, Note_on_c, 9, 44, 0
4, 113892, Note_on_c, 9, 48, 38
4, 113920, Note_on_c, 9, 48, 0
4, 114104, Note_on_c, 9, 51, 0
4, 114232, Note_on_c, 9, 47, 33
4, 114240, Note_on_c, 9, 51, 100
4, 114276, Note_on_c, 9, 47, 0
4, 114360, Note_on_c, 9, 47, 41
4, 114404, Note_on_c, 9, 47, 0
4, 114540, Note_on_c, 9, 35, 69
4, 114632, Note_on_c, 9, 35, 0
4, 114660, Note_on_c, 9, 51, 0
4, 114708, Note_on_c, 9, 44, 70
4, 114720, Note_on_c, 9, 51, 86
4, 114728, Note_on_c, 9, 63, 86
4, 114820, Note_on_c, 9, 63, 0
4, 114828, Note_on_c, 9, 44, 0
4, 114872, Note_on_c, 9, 63, 59
4, 114980, Note_on_c, 9, 63, 0
4, 115048, Note_on_c, 9, 51, 0
4, 115200, Note_on_c, 9, 51, 62
4, 115552, Note_on_c, 9, 51, 0
4, 115668, Note_on_c, 9, 44, 75
4, 115680, Note_on_c, 9, 50, 53
4, 115680, Note_on_c, 9, 51, 88
4, 115728, Note_on_c, 9, 50, 0
4, 115796, Note_on_c, 9, 44, 0
4, 115812, Note_on_c, 9, 50, 49
4, 115872, Note_on_c, 9, 50, 0
4, 115949, Note_on_c, 9, 40, 51
4, 115968, Note_on_c, 9, 35, 63
4, 115980, Note_on_c, 9, 51, 0
4, 116000, Note_on_c, 9, 35, 0
4, 116077, Note_on_c, 9, 40, 0
4, 116160, Note_on_c, 9, 51, 78
4, 116192, Note_on_c, 9, 63, 91
4, 116236, Note_on_c, 9, 63, 0
4, 116308, Note_on_c, 9, 63, 53
4, 116308, Note_on_c, 9, 50, 51
4, 116340, Note_on_c, 9, 50, 0
4, 116352, Note_on_c, 9, 63, 0
4, 116468, Note_on_c, 9, 35, 49
4, 116492, Note_on_c, 9, 63, 30
4, 116500, Note_on_c, 9, 35, 0
4, 116516, Note_on_c, 9, 63, 0
4, 116524, Note_on_c, 9, 51, 0
4, 116628, Note_on_c, 9, 44, 72
4, 116640, Note_on_c, 9, 51, 76
4, 116640, Note_on_c, 9, 48, 37
4, 116660, Note_on_c, 9, 64, 88
4, 116664, Note_on_c, 9, 48, 0
4, 116740, Note_on_c, 9, 64, 0
4, 116748, Note_on_c, 9, 44, 0
4, 116828, Note_on_c, 9, 63, 43
4, 116852, Note_on_c, 9, 63, 0
4, 116909, Note_on_c, 9, 40, 61
4, 116932, Note_on_c, 9, 51, 0
4, 116940, Note_on_c, 9, 47, 41
4, 116964, Note_on_c, 9, 47, 0
4, 116972, Note_on_c, 9, 62, 118
4, 117021, Note_on_c, 9, 40, 0
4, 117084, Note_on_c, 9, 62, 0
4, 117120, Note_on_c, 9, 35, 55
4, 117120, Note_on_c, 9, 51, 71
4, 117188, Note_on_c, 9, 35, 0
4, 117408, Note_on_c, 9, 35, 78
4, 117480, Note_on_c, 9, 35, 0
4, 117488, Note_on_c, 9, 51, 0
4, 117588, Note_on_c, 9, 44, 74
4, 117600, Note_on_c, 9, 51, 76
4, 117628, Note_on_c, 9, 63, 61
4, 117656, Note_on_c, 9, 63, 0
4, 117708, Note_on_c, 9, 44, 0
4, 117709, Note_on_c, 9, 40, 48
4, 117712, Note_on_c, 9, 51, 0
4, 117772, Note_on_c, 9, 63, 54
4, 117800, Note_on_c, 9, 63, 0
4, 117809, Note_on_c, 9, 40, 0
4, 117920, Note_on_c, 9, 51, 100
4, 117928, Note_on_c, 9, 63, 42
4, 117952, Note_on_c, 9, 63, 0
4, 118000, Note_on_c, 9, 51, 0
4, 118072, Note_on_c, 9, 64, 96
4, 118080, Note_on_c, 9, 51, 79
4, 118172, Note_on_c, 9, 64, 0
4, 118224, Note_on_c, 9, 62, 62
4, 118248, Note_on_c, 9, 62, 0
4, 118460, Note_on_c, 9, 51, 0
4, 118548, Note_on_c, 9, 44, 69
4, 118560, Note_on_c, 9, 51, 78
4, 118688, Note_on_c, 9, 44, 0
4, 118829, Note_on_c, 9, 40, 64
4, 118872, Note_on_c, 9, 51, 0
4, 118973, Note_on_c, 9, 40, 0
4, 119040, Note_on_c, 9, 51, 68
4, 119309, Note_on_c, 9, 40, 70
4, 119328, Note_on_c, 9, 51, 0
4, 119449, Note_on_c, 9, 40, 0
4, 119508, Note_on_c, 9, 44, 74
4, 119520, Note_on_c, 9, 51, 76
4, 119528, Note_on_c, 9, 63, 76
4, 119636, Note_on_c, 9, 44, 0
4, 119768, Note_on_c, 9, 63, 0
4, 119848, Note_on_c, 9, 63, 76
4, 119928, Note_on_c, 9, 51, 0
4, 120000, Note_on_c, 9, 51, 78
4, 120008, Note_on_c, 9, 63, 0
4, 120332, Note_on_c, 9, 38, 39
4, 120340, Note_on_c, 9, 62, 87
4, 120344, Note_on_c, 9, 51, 0
4, 120372, Note_on_c, 9, 38, 0
4, 120468, Note_on_c, 9, 44, 73
4, 120480, Note_on_c, 9, 62, 0
4, 120480, Note_on_c, 9, 51, 66
4, 120648, Note_on_c, 9, 44, 0
4, 120712, Note_on_c, 9, 51, 0
4, 120800, Note_on_c, 9, 51, 105
4, 120944, Note_on_c, 9, 51, 0
4, 120960, Note_on_c, 9, 51, 57
4, 121332, Note_on_c, 9, 51, 0
4, 121428, Note_on_c, 9, 44, 69
4, 121440, Note_on_c, 9, 51, 88
4, 121480, Note_on_c, 9, 63, 65
4, 121596, Note_on_c, 9, 44, 0
4, 121712, Note_on_c, 9, 63, 0
4, 121764, Note_on_c, 9, 51, 0
4, 121792, Note_on_c, 9, 63, 74
4, 121904, Note_on_c, 9, 63, 0
4, 121920, Note_on_c, 9, 51, 59
4, 122104, Note_on_c, 9, 38, 59
4, 122128, Note_on_c, 9, 38, 0
4, 122248, Note_on_c, 9, 38, 57
4, 122312, Note_on_c, 9, 38, 0
4, 122320, Note_on_c, 9, 51, 0
4, 122388, Note_on_c, 9, 44, 70
4, 122400, Note_on_c, 9, 51, 76
4, 122408, Note_on_c, 9, 35, 48
4, 122440, Note_on_c, 9, 35, 0
4, 122468, Note_on_c, 9, 64, 104
4, 122528, Note_on_c, 9, 44, 0
4, 122636, Note_on_c, 9, 64, 0
4, 122669, Note_on_c, 9, 40, 62
4, 122728, Note_on_c, 9, 51, 0
4, 122817, Note_on_c, 9, 40, 0
4, 122880, Note_on_c, 9, 51, 66
4, 123204, Note_on_c, 9, 38, 71
4, 123256, Note_on_c, 9, 38, 0
4, 123264, Note_on_c, 9, 51, 0
4, 123348, Note_on_c, 9, 44, 66
4, 123360, Note_on_c, 9, 51, 78
4, 123384, Note_on_c, 9, 63, 66
4, 123508, Note_on_c, 9, 44, 0
4, 123612, Note_on_c, 9, 63, 0
4, 123660, Note_on_c, 9, 38, 73
4, 123688, Note_on_c, 9, 63, 79
4, 123740, Note_on_c, 9, 38, 0
4, 123768, Note_on_c, 9, 51, 0
4, 123840, Note_on_c, 9, 51, 76
4, 123880, Note_on_c, 9, 63, 0
4, 123988, Note_on_c, 9, 38, 80
4, 124052, Note_on_c, 9, 38, 0
4, 124109, Note_on_c, 9, 40, 61
4, 124140, Note_on_c, 9, 38, 76
4, 124172, Note_on_c, 9, 51, 0
4, 124204, Note_on_c, 9, 38, 0
4, 124241, Note_on_c, 9, 40, 0
4, 124308, Note_on_c, 9, 38, 64
4, 124308, Note_on_c, 9, 44, 67
4, 124320, Note_on_c, 9, 51, 79
4, 124324, Note_on_c, 9, 64, 94
4, 124332, Note_on_c, 9, 38, 0
4, 124456, Note_on_c, 9, 44, 0
4, 124468, Note_on_c, 9, 64, 0
4, 124468, Note_on_c, 9, 38, 75
4, 124520, Note_on_c, 9, 38, 0
4, 124589, Note_on_c, 9, 40, 72
4, 124604, Note_on_c, 9, 38, 69
4, 124648, Note_on_c, 9, 51, 0
4, 124736, Note_on_c, 9, 38, 0
4, 124753, Note_on_c, 9, 40, 0
4, 124784, Note_on_c, 9, 35, 72
4, 124800, Note_on_c, 9, 51, 76
4, 124976, Note_on_c, 9, 35, 0
4, 125224, Note_on_c, 9, 51, 0
4, 125268, Note_on_c, 9, 44, 65
4, 125280, Note_on_c, 9, 51, 103
4, 125416, Note_on_c, 9, 44, 0
4, 125628, Note_on_c, 9, 38, 71
4, 125652, Note_on_c, 9, 38, 0
4, 125692, Note_on_c, 9, 51, 0
4, 125760, Note_on_c, 9, 51, 64
4, 126112, Note_on_c, 9, 51, 0
4, 126228, Note_on_c, 9, 44, 69
4, 126240, Note_on_c, 9, 51, 100
4, 126388, Note_on_c, 9, 44, 0
4, 126432, Note_on_c, 9, 38, 76
4, 126484, Note_on_c, 9, 38, 0
4, 126568, Note_on_c, 9, 38, 63
4, 126648, Note_on_c, 9, 38, 0
4, 126660, Note_on_c, 9, 51, 0
4, 126720, Note_on_c, 9, 51, 57
4, 126724, Note_on_c, 9, 35, 63
4, 126732, Note_on_c, 9, 57, 55
4, 126792, Note_on_c, 9, 57, 0
4, 126989, Note_on_c, 9, 40, 67
4, 127008, Note_on_c, 9, 51, 0
4, 127024, Note_on_c, 9, 35, 0
4, 127133, Note_on_c, 9, 40, 0
4, 127188, Note_on_c, 9, 44, 67
4, 127200, Note_on_c, 9, 51, 78
4, 127316, Note_on_c, 9, 44, 0
4, 127504, Note_on_c, 9, 35, 61
4, 127528, Note_on_c, 9, 35, 0
4, 127612, Note_on_c, 9, 51, 0
4, 127680, Note_on_c, 9, 51, 100
4, 128104, Note_on_c, 9, 51, 0
4, 128148, Note_on_c, 9, 44, 63
4, 128160, Note_on_c, 9, 51, 68
4, 128288, Note_on_c, 9, 44, 0
4, 128472, Note_on_c, 9, 35, 65
4, 128512, Note_on_c, 9, 35, 0
4, 128560, Note_on_c, 9, 51, 0
4, 128640, Note_on_c, 9, 51, 71
4, 128909, Note_on_c, 9, 40, 66
4, 128964, Note_on_c, 9, 51, 0
4, 129081, Note_on_c, 9, 40, 0
4, 129108, Note_on_c, 9, 44, 62
4, 129120, Note_on_c, 9, 51, 68
4, 129236, Note_on_c, 9, 44, 0
4, 129389, Note_on_c, 9, 40, 74
4, 129444, Note_on_c, 9, 51, 0
4, 129549, Note_on_c, 9, 40, 0
4, 129600, Note_on_c, 9, 51, 71
4, 130000, Note_on_c, 9, 51, 0
4, 130068, Note_on_c, 9, 44, 69
4, 130080, Note_on_c, 9, 51, 98
4, 130216, Note_on_c, 9, 44, 0
4, 130349, Note_on_c, 9, 40, 48
4, 130408, Note_on_c, 9, 51, 0
4, 130412, Note_on_c, 9, 35, 55
4, 130493, Note_on_c, 9, 40, 0
4, 130512, Note_on_c, 9, 35, 0
4, 130560, Note_on_c, 9, 51, 69
4, 130588, Note_on_c, 9, 35, 35
4, 130780, Note_on_c, 9, 35, 0
4, 130829, Note_on_c, 9, 40, 72
4, 130832, Note_on_c, 9, 51, 0
4, 130888, Note_on_c, 9, 35, 51
4, 130932, Note_on_c, 9, 35, 0
4, 130993, Note_on_c, 9, 40, 0
4, 131028, Note_on_c, 9, 44, 69
4, 131040, Note_on_c, 9, 51, 64
4, 131176, Note_on_c, 9, 44, 0
4, 131432, Note_on_c, 9, 51, 0
4, 131520, Note_on_c, 9, 51, 74
4, 131668, Note_on_c, 9, 38, 47
4, 131700, Note_on_c, 9, 38, 0
4, 131824, Note_on_c, 9, 35, 43
4, 131864, Note_on_c, 9, 35, 0
4, 131908, Note_on_c, 9, 51, 0
4, 131988, Note_on_c, 9, 46, 25
4, 131992, Note_on_c, 9, 38, 55
4, 132000, Note_on_c, 9, 51, 69
4, 132020, Note_on_c, 9, 38, 0
4, 132148, Note_on_c, 9, 46, 0
4, 132164, Note_on_c, 9, 35, 53
4, 132192, Note_on_c, 9, 35, 0
4, 132269, Note_on_c, 9, 40, 53
4, 132304, Note_on_c, 9, 51, 0
4, 132312, Note_on_c, 9, 35, 92
4, 132409, Note_on_c, 9, 40, 0
4, 132464, Note_on_c, 9, 35, 0
4, 132480, Note_on_c, 9, 51, 59
4, 132749, Note_on_c, 9, 40, 65
4, 132804, Note_on_c, 9, 51, 0
4, 132901, Note_on_c, 9, 40, 0
4, 132948, Note_on_c, 9, 44, 72
4, 132960, Note_on_c, 9, 51, 69
4, 133136, Note_on_c, 9, 44, 0
4, 133352, Note_on_c, 9, 51, 0
4, 133440, Note_on_c, 9, 51, 73
4, 133832, Note_on_c, 9, 51, 0
4, 133908, Note_on_c, 9, 44, 73
4, 133920, Note_on_c, 9, 51, 73
4, 134028, Note_on_c, 9, 44, 0
4, 134189, Note_on_c, 9, 40, 61
4, 134244, Note_on_c, 9, 38, 37
4, 134260, Note_on_c, 9, 51, 0
4, 134276, Note_on_c, 9, 38, 0
4, 134349, Note_on_c, 9, 40, 0
4, 134400, Note_on_c, 9, 51, 61
4, 134669, Note_on_c, 9, 40, 69
4, 134744, Note_on_c, 9, 51, 0
4, 134829, Note_on_c, 9, 40, 0
4, 134868, Note_on_c, 9, 44, 72
4, 134880, Note_on_c, 9, 51, 66
4, 134976, Note_on_c, 9, 44, 0
4, 135212, Note_on_c, 9, 35, 52
4, 135240, Note_on_c, 9, 35, 0
4, 135280, Note_on_c, 9, 51, 0
4, 135360, Note_on_c, 9, 51, 93
4, 135384, Note_on_c, 9, 45, 39
4, 135412, Note_on_c, 9, 45, 0
4, 135700, Note_on_c, 9, 45, 71
4, 135728, Note_on_c, 9, 45, 0
4, 135804, Note_on_c, 9, 51, 0
4, 135828, Note_on_c, 9, 44, 68
4, 135840, Note_on_c, 9, 51, 88
4, 135872, Note_on_c, 9, 45, 68
4, 135944, Note_on_c, 9, 45, 0
4, 135996, Note_on_c, 9, 44, 0
4, 136008, Note_on_c, 9, 43, 49
4, 136036, Note_on_c, 9, 43, 0
4, 136109, Note_on_c, 9, 40, 76
4, 136168, Note_on_c, 9, 51, 0
4, 136172, Note_on_c, 9, 35, 62
4, 136257, Note_on_c, 9, 40, 0
4, 136284, Note_on_c, 9, 35, 0
4, 136320, Note_on_c, 9, 51, 93
4, 136589, Note_on_c, 9, 40, 82
4, 136672, Note_on_c, 9, 51, 0
4, 136717, Note_on_c, 9, 40, 0
4, 136788, Note_on_c, 9, 44, 67
4, 136800, Note_on_c, 9, 51, 76
4, 136948, Note_on_c, 9, 44, 0
4, 137204, Note_on_c, 9, 51, 0
4, 137280, Note_on_c, 9, 51, 85
4, 137672, Note_on_c, 9, 51, 0
4, 137748, Note_on_c, 9, 44, 68
4, 137760, Note_on_c, 9, 51, 73
4, 137936, Note_on_c, 9, 44, 0
4, 138029, Note_on_c, 9, 40, 72
4, 138109, Note_on_c, 9, 40, 0
4, 138124, Note_on_c, 9, 51, 0
4, 138240, Note_on_c, 9, 51, 81
4, 138644, Note_on_c, 9, 51, 0
4, 138708, Note_on_c, 9, 44, 61
4, 138720, Note_on_c, 9, 51, 68
4, 138928, Note_on_c, 9, 44, 0
4, 138980, Note_on_c, 9, 51, 0
4, 139032, Note_on_c, 9, 35, 59
4, 139040, Note_on_c, 9, 51, 98
4, 139056, Note_on_c, 9, 35, 0
4, 139592, Note_on_c, 9, 51, 0
4, 139668, Note_on_c, 9, 44, 63
4, 139680, Note_on_c, 9, 51, 88
4, 139816, Note_on_c, 9, 44, 0
4, 139984, Note_on_c, 9, 35, 75
4, 140064, Note_on_c, 9, 51, 0
4, 140072, Note_on_c, 9, 35, 0
4, 140152, Note_on_c, 9, 35, 55
4, 140160, Note_on_c, 9, 51, 78
4, 140304, Note_on_c, 9, 35, 0
4, 140429, Note_on_c, 9, 40, 72
4, 140500, Note_on_c, 9, 51, 0
4, 140509, Note_on_c, 9, 40, 0
4, 140628, Note_on_c, 9, 44, 55
4, 140640, Note_on_c, 9, 51, 69
4, 140788, Note_on_c, 9, 44, 0
4, 140909, Note_on_c, 9, 40, 70
4, 140948, Note_on_c, 9, 35, 62
4, 140952, Note_on_c, 9, 51, 0
4, 140976, Note_on_c, 9, 35, 0
4, 140989, Note_on_c, 9, 40, 0
4, 141120, Note_on_c, 9, 51, 66
4, 141484, Note_on_c, 9, 51, 0
4, 141588, Note_on_c, 9, 44, 60
4, 141600, Note_on_c, 9, 51, 95
4, 141756, Note_on_c, 9, 44, 0
4, 141988, Note_on_c, 9, 51, 0
4, 142080, Note_on_c, 9, 51, 95
4, 142244, Note_on_c, 9, 51, 0
4, 142400, Note_on_c, 9, 51, 127
4, 142509, Note_on_c, 9, 40, 43
4, 142520, Note_on_c, 9, 51, 0
4, 142548, Note_on_c, 9, 44, 63
4, 142748, Note_on_c, 9, 44, 0
4, 142789, Note_on_c, 9, 40, 0
4, 142880, Note_on_c, 9, 35, 52
4, 142880, Note_on_c, 9, 51, 105
4, 142944, Note_on_c, 9, 35, 0
4, 142960, Note_on_c, 9, 51, 0
4, 143040, Note_on_c, 9, 51, 62
4, 143052, Note_on_c, 9, 35, 29
4, 143100, Note_on_c, 9, 35, 0
4, 143428, Note_on_c, 9, 51, 0
4, 143508, Note_on_c, 9, 46, 49
4, 143520, Note_on_c, 9, 51, 85
4, 143696, Note_on_c, 9, 46, 0
4, 143789, Note_on_c, 9, 40, 61
4, 143824, Note_on_c, 9, 35, 59
4, 143856, Note_on_c, 9, 35, 0
4, 143860, Note_on_c, 9, 51, 0
4, 143973, Note_on_c, 9, 40, 0
4, 144000, Note_on_c, 9, 51, 61
4, 144380, Note_on_c, 9, 51, 0
4, 144468, Note_on_c, 9, 44, 60
4, 144480, Note_on_c, 9, 51, 86
4, 144656, Note_on_c, 9, 44, 0
4, 144808, Note_on_c, 9, 35, 45
4, 144840, Note_on_c, 9, 35, 0
4, 144860, Note_on_c, 9, 51, 0
4, 144960, Note_on_c, 9, 51, 71
4, 145332, Note_on_c, 9, 51, 0
4, 145428, Note_on_c, 9, 44, 59
4, 145440, Note_on_c, 9, 51, 79
4, 145616, Note_on_c, 9, 44, 0
4, 145788, Note_on_c, 9, 51, 0
4, 145920, Note_on_c, 9, 51, 56
4, 145952, Note_on_c, 9, 38, 66
4, 146176, Note_on_c, 9, 38, 0
4, 146240, Note_on_c, 9, 51, 0
4, 146388, Note_on_c, 9, 44, 65
4, 146400, Note_on_c, 9, 51, 56
4, 146424, Note_on_c, 9, 38, 60
4, 146596, Note_on_c, 9, 44, 0
4, 146624, Note_on_c, 9, 38, 0
4, 146728, Note_on_c, 9, 51, 0
4, 146880, Note_on_c, 9, 51, 61
4, 147220, Note_on_c, 9, 38, 32
4, 147244, Note_on_c, 9, 38, 0
4, 147280, Note_on_c, 9, 51, 0
4, 147348, Note_on_c, 9, 44, 60
4, 147360, Note_on_c, 9, 51, 71
4, 147520, Note_on_c, 9, 38, 65
4, 147568, Note_on_c, 9, 44, 0
4, 147580, Note_on_c, 9, 38, 0
4, 147672, Note_on_c, 9, 35, 79
4, 147700, Note_on_c, 9, 57, 77
4, 147752, Note_on_c, 9, 57, 0
4, 147752, Note_on_c, 9, 51, 0
4, 147796, Note_on_c, 9, 35, 0
4, 147840, Note_on_c, 9, 51, 74
4, 148109, Note_on_c, 9, 40, 72
4, 148160, Note_on_c, 9, 51, 0
4, 148249, Note_on_c, 9, 40, 0
4, 148308, Note_on_c, 9, 44, 65
4, 148320, Note_on_c, 9, 51, 61
4, 148516, Note_on_c, 9, 44, 0
4, 148589, Note_on_c, 9, 40, 70
4, 148620, Note_on_c, 9, 38, 58
4, 148624, Note_on_c, 9, 51, 0
4, 148652, Note_on_c, 9, 38, 0
4, 148713, Note_on_c, 9, 40, 0
4, 148800, Note_on_c, 9, 51, 76
4, 148804, Note_on_c, 9, 38, 44
4, 148836, Note_on_c, 9, 38, 0
4, 149080, Note_on_c, 9, 35, 60
4, 149160, Note_on_c, 9, 51, 0
4, 149180, Note_on_c, 9, 35, 0
4, 149268, Note_on_c, 9, 44, 61
4, 149280, Note_on_c, 9, 51, 79
4, 149456, Note_on_c, 9, 44, 0
4, 149549, Note_on_c, 9, 40, 69
4, 149588, Note_on_c, 9, 51, 0
4, 149673, Note_on_c, 9, 40, 0
4, 149760, Note_on_c, 9, 51, 74
4, 150088, Note_on_c, 9, 51, 0
4, 150228, Note_on_c, 9, 44, 61
4, 150240, Note_on_c, 9, 51, 88
4, 150428, Note_on_c, 9, 44, 0
4, 150509, Note_on_c, 9, 40, 53
4, 150552, Note_on_c, 9, 51, 0
4, 150629, Note_on_c, 9, 40, 0
4, 150720, Note_on_c, 9, 51, 64
4, 151108, Note_on_c, 9, 51, 0
4, 151188, Note_on_c, 9, 46, 41
4, 151200, Note_on_c, 9, 51, 66
4, 151348, Note_on_c, 9, 46, 0
4, 151520, Note_on_c, 9, 51, 95
4, 151524, Note_on_c, 9, 35, 53
4, 151540, Note_on_c, 9, 51, 0
4, 151552, Note_on_c, 9, 35, 0
4, 151584, Note_on_c, 9, 51, 0
4, 151680, Note_on_c, 9, 51, 76
4, 151988, Note_on_c, 9, 35, 36
4, 151992, Note_on_c, 9, 51, 0
4, 152016, Note_on_c, 9, 35, 0
4, 152148, Note_on_c, 9, 44, 55
4, 152160, Note_on_c, 9, 51, 66
4, 152356, Note_on_c, 9, 44, 0
4, 152468, Note_on_c, 9, 35, 47
4, 152496, Note_on_c, 9, 35, 0
4, 152528, Note_on_c, 9, 51, 0
4, 152640, Note_on_c, 9, 51, 88
4, 152909, Note_on_c, 9, 40, 65
4, 152960, Note_on_c, 9, 51, 0
4, 152964, Note_on_c, 9, 35, 61
4, 153012, Note_on_c, 9, 35, 0
4, 153017, Note_on_c, 9, 40, 0
4, 153108, Note_on_c, 9, 44, 58
4, 153120, Note_on_c, 9, 51, 64
4, 153308, Note_on_c, 9, 44, 0
4, 153324, Note_on_c, 9, 51, 0
4, 153389, Note_on_c, 9, 40, 67
4, 153448, Note_on_c, 9, 46, 50
4, 153452, Note_on_c, 9, 35, 65
4, 153472, Note_on_c, 9, 46, 0
4, 153496, Note_on_c, 9, 35, 0
4, 153517, Note_on_c, 9, 40, 0
4, 153600, Note_on_c, 9, 51, 76
4, 153960, Note_on_c, 9, 35, 46
4, 153972, Note_on_c, 9, 51, 0
4, 153988, Note_on_c, 9, 35, 0
4, 154068, Note_on_c, 9, 44, 66
4, 154080, Note_on_c, 9, 51, 71
4, 154132, Note_on_c, 9, 35, 49
4, 154160, Note_on_c, 9, 35, 0
4, 154248, Note_on_c, 9, 44, 0
4, 154320, Note_on_c, 9, 51, 0
4, 154400, Note_on_c, 9, 51, 117
4, 154420, Note_on_c, 9, 46, 69
4, 154432, Note_on_c, 9, 35, 73
4, 154464, Note_on_c, 9, 46, 0
4, 154496, Note_on_c, 9, 35, 0
4, 154912, Note_on_c, 9, 35, 55
4, 154940, Note_on_c, 9, 51, 0
4, 154944, Note_on_c, 9, 35, 0
4, 155028, Note_on_c, 9, 44, 59
4, 155040, Note_on_c, 9, 51, 90
4, 155084, Note_on_c, 9, 35, 52
4, 155112, Note_on_c, 9, 35, 0
4, 155208, Note_on_c, 9, 44, 0
4, 155364, Note_on_c, 9, 35, 77
4, 155416, Note_on_c, 9, 35, 0
4, 155428, Note_on_c, 9, 51, 0
4, 155520, Note_on_c, 9, 51, 68
4, 155789, Note_on_c, 9, 40, 61
4, 155828, Note_on_c, 9, 51, 0
4, 155921, Note_on_c, 9, 40, 0
4, 155988, Note_on_c, 9, 44, 62
4, 156000, Note_on_c, 9, 51, 68
4, 156148, Note_on_c, 9, 44, 0
4, 156304, Note_on_c, 9, 35, 52
4, 156356, Note_on_c, 9, 35, 0
4, 156364, Note_on_c, 9, 51, 0
4, 156480, Note_on_c, 9, 35, 40
4, 156480, Note_on_c, 9, 51, 90
4, 156528, Note_on_c, 9, 35, 0
4, 156872, Note_on_c, 9, 51, 0
4, 156948, Note_on_c, 9, 44, 59
4, 156960, Note_on_c, 9, 51, 83
4, 157096, Note_on_c, 9, 44, 0
4, 157184, Note_on_c, 9, 51, 0
4, 157280, Note_on_c, 9, 51, 98
4, 157312, Note_on_c, 9, 35, 77
4, 157396, Note_on_c, 9, 35, 0
4, 157400, Note_on_c, 9, 51, 0
4, 157440, Note_on_c, 9, 51, 62
4, 157472, Note_on_c, 9, 35, 50
4, 157596, Note_on_c, 9, 35, 0
4, 157804, Note_on_c, 9, 51, 0
4, 157908, Note_on_c, 9, 44, 54
4, 157920, Note_on_c, 9, 51, 74
4, 158076, Note_on_c, 9, 44, 0
4, 158244, Note_on_c, 9, 51, 0
4, 158272, Note_on_c, 9, 35, 67
4, 158380, Note_on_c, 9, 35, 0
4, 158400, Note_on_c, 9, 51, 69
4, 158760, Note_on_c, 9, 51, 0
4, 158868, Note_on_c, 9, 44, 53
4, 158880, Note_on_c, 9, 51, 85
4, 159026, Note_on_c, 9, 40, 72
4, 159028, Note_on_c, 9, 44, 0
4, 159054, Note_on_c, 9, 40, 0
4, 159220, Note_on_c, 9, 35, 58
4, 159252, Note_on_c, 9, 51, 0
4, 159260, Note_on_c, 9, 35, 0
4, 159360, Note_on_c, 9, 51, 90
4, 159388, Note_on_c, 9, 35, 47
4, 159440, Note_on_c, 9, 35, 0
4, 159629, Note_on_c, 9, 40, 60
4, 159664, Note_on_c, 9, 35, 62
4, 159684, Note_on_c, 9, 51, 0
4, 159692, Note_on_c, 9, 35, 0
4, 159777, Note_on_c, 9, 40, 0
4, 159828, Note_on_c, 9, 44, 56
4, 159840, Note_on_c, 9, 51, 61
4, 159968, Note_on_c, 9, 44, 0
4, 160208, Note_on_c, 9, 51, 0
4, 160320, Note_on_c, 9, 51, 81
4, 160444, Note_on_c, 9, 38, 50
4, 160476, Note_on_c, 9, 38, 0
4, 160620, Note_on_c, 9, 35, 47
4, 160652, Note_on_c, 9, 35, 0
4, 160684, Note_on_c, 9, 51, 0
4, 160780, Note_on_c, 9, 38, 58
4, 160788, Note_on_c, 9, 44, 62
4, 160800, Note_on_c, 9, 51, 71
4, 160820, Note_on_c, 9, 38, 0
4, 160956, Note_on_c, 9, 44, 0
4, 160960, Note_on_c, 9, 35, 50
4, 160968, Note_on_c, 9, 51, 0
4, 160988, Note_on_c, 9, 35, 0
4, 161069, Note_on_c, 9, 40, 65
4, 161088, Note_on_c, 9, 38, 74
4, 161148, Note_on_c, 9, 38, 0
4, 161213, Note_on_c, 9, 40, 0
4, 161280, Note_on_c, 9, 51, 96
4, 161420, Note_on_c, 9, 38, 60
4, 161444, Note_on_c, 9, 38, 0
4, 161592, Note_on_c, 9, 35, 63
4, 161616, Note_on_c, 9, 35, 0
4, 161688, Note_on_c, 9, 51, 0
4, 161748, Note_on_c, 9, 44, 61
4, 161760, Note_on_c, 9, 51, 83
4, 161936, Note_on_c, 9, 44, 0
4, 162068, Note_on_c, 9, 38, 82
4, 162116, Note_on_c, 9, 38, 0
4, 162124, Note_on_c, 9, 51, 0
4, 162240, Note_on_c, 9, 51, 81
4, 162248, Note_on_c, 9, 35, 38
4, 162276, Note_on_c, 9, 35, 0
4, 162349, Note_on_c, 9, 40, 57
4, 162372, Note_on_c, 9, 51, 0
4, 162400, Note_on_c, 9, 38, 60
4, 162424, Note_on_c, 9, 38, 0
4, 162433, Note_on_c, 9, 40, 0
4, 162564, Note_on_c, 9, 35, 45
4, 162592, Note_on_c, 9, 35, 0
4, 162708, Note_on_c, 9, 44, 57
4, 162720, Note_on_c, 9, 38, 69
4, 162720, Note_on_c, 9, 51, 88
4, 162748, Note_on_c, 9, 38, 0
4, 162888, Note_on_c, 9, 35, 46
4, 162920, Note_on_c, 9, 35, 0
4, 162968, Note_on_c, 9, 44, 0
4, 163060, Note_on_c, 9, 57, 84
4, 163064, Note_on_c, 9, 35, 82
4, 163104, Note_on_c, 9, 57, 0
4, 163104, Note_on_c, 9, 51, 0
4, 163136, Note_on_c, 9, 35, 0
4, 163200, Note_on_c, 9, 51, 69
4, 163568, Note_on_c, 9, 51, 0
4, 163668, Note_on_c, 9, 44, 59
4, 163680, Note_on_c, 9, 51, 81
4, 163908, Note_on_c, 9, 44, 0
4, 163920, Note_on_c, 9, 51, 0
4, 163949, Note_on_c, 9, 40, 60
4, 164012, Note_on_c, 9, 35, 68
4, 164069, Note_on_c, 9, 40, 0
4, 164084, Note_on_c, 9, 35, 0
4, 164160, Note_on_c, 9, 51, 81
4, 164168, Note_on_c, 9, 35, 49
4, 164240, Note_on_c, 9, 35, 0
4, 164532, Note_on_c, 9, 51, 0
4, 164628, Note_on_c, 9, 44, 61
4, 164640, Note_on_c, 9, 51, 83
4, 164848, Note_on_c, 9, 44, 0
4, 164909, Note_on_c, 9, 40, 59
4, 164968, Note_on_c, 9, 51, 0
4, 164984, Note_on_c, 9, 35, 55
4, 165008, Note_on_c, 9, 35, 0
4, 165033, Note_on_c, 9, 40, 0
4, 165120, Note_on_c, 9, 51, 66
4, 165504, Note_on_c, 9, 51, 0
4, 165588, Note_on_c, 9, 44, 62
4, 165600, Note_on_c, 9, 51, 83
4, 165788, Note_on_c, 9, 44, 0
4, 165824, Note_on_c, 9, 51, 0
4, 165920, Note_on_c, 9, 51, 117
4, 165928, Note_on_c, 9, 35, 29
4, 165952, Note_on_c, 9, 35, 0
4, 166012, Note_on_c, 9, 51, 0
4, 166080, Note_on_c, 9, 51, 76
4, 166400, Note_on_c, 9, 35, 31
4, 166432, Note_on_c, 9, 35, 0
4, 166460, Note_on_c, 9, 51, 0
4, 166548, Note_on_c, 9, 44, 56
4, 166560, Note_on_c, 9, 51, 74
4, 166768, Note_on_c, 9, 44, 0
4, 166892, Note_on_c, 9, 35, 47
4, 166924, Note_on_c, 9, 35, 0
4, 166932, Note_on_c, 9, 51, 0
4, 167040, Note_on_c, 9, 51, 81
4, 167068, Note_on_c, 9, 35, 38
4, 167108, Note_on_c, 9, 35, 0
4, 167309, Note_on_c, 9, 40, 64
4, 167364, Note_on_c, 9, 51, 0
4, 167461, Note_on_c, 9, 40, 0
4, 167508, Note_on_c, 9, 44, 57
4, 167520, Note_on_c, 9, 51, 57
4, 167708, Note_on_c, 9, 44, 0
4, 167844, Note_on_c, 9, 35, 44
4, 167876, Note_on_c, 9, 35, 0
4, 167900, Note_on_c, 9, 51, 0
4, 168000, Note_on_c, 9, 51, 74
4, 168180, Note_on_c, 9, 50, 46
4, 168208, Note_on_c, 9, 50, 0
4, 168324, Note_on_c, 9, 50, 51
4, 168368, Note_on_c, 9, 50, 0
4, 168368, Note_on_c, 9, 51, 0
4, 168468, Note_on_c, 9, 44, 55
4, 168480, Note_on_c, 9, 51, 69
4, 168628, Note_on_c, 9, 44, 0
4, 168652, Note_on_c, 9, 48, 56
4, 168676, Note_on_c, 9, 48, 0
4, 168749, Note_on_c, 9, 40, 61
4, 168800, Note_on_c, 9, 51, 0
4, 168804, Note_on_c, 9, 35, 52
4, 168832, Note_on_c, 9, 35, 0
4, 168881, Note_on_c, 9, 40, 0
4, 168960, Note_on_c, 9, 51, 62
4, 169328, Note_on_c, 9, 51, 0
4, 169428, Note_on_c, 9, 44, 62
4, 169440, Note_on_c, 9, 51, 76
4, 169608, Note_on_c, 9, 44, 0
4, 169624, Note_on_c, 9, 51, 0
4, 169760, Note_on_c, 9, 51, 105
4, 169764, Note_on_c, 9, 35, 49
4, 169792, Note_on_c, 9, 35, 0
4, 169852, Note_on_c, 9, 51, 0
4, 169920, Note_on_c, 9, 51, 85
4, 169928, Note_on_c, 9, 50, 69
4, 169976, Note_on_c, 9, 50, 0
4, 170148, Note_on_c, 9, 50, 72
4, 170192, Note_on_c, 9, 50, 0
4, 170292, Note_on_c, 9, 51, 0
4, 170384, Note_on_c, 9, 50, 67
4, 170388, Note_on_c, 9, 44, 57
4, 170400, Note_on_c, 9, 51, 88
4, 170456, Note_on_c, 9, 50, 0
4, 170508, Note_on_c, 9, 48, 53
4, 170576, Note_on_c, 9, 48, 0
4, 170596, Note_on_c, 9, 44, 0
4, 170640, Note_on_c, 9, 47, 32
4, 170672, Note_on_c, 9, 47, 0
4, 170748, Note_on_c, 9, 51, 0
4, 170748, Note_on_c, 9, 45, 53
4, 170772, Note_on_c, 9, 45, 0
4, 170860, Note_on_c, 9, 35, 77
4, 170880, Note_on_c, 9, 51, 85
4, 171020, Note_on_c, 9, 35, 0
4, 171288, Note_on_c, 9, 51, 0
4, 171348, Note_on_c, 9, 44, 61
4, 171360, Note_on_c, 9, 51, 93
4, 171536, Note_on_c, 9, 44, 0
4, 171672, Note_on_c, 9, 35, 71
4, 171700, Note_on_c, 9, 51, 0
4, 171720, Note_on_c, 9, 35, 0
4, 171840, Note_on_c, 9, 51, 69
4, 172228, Note_on_c, 9, 51, 0
4, 172308, Note_on_c, 9, 44, 62
4, 172320, Note_on_c, 9, 51, 73
4, 172488, Note_on_c, 9, 44, 0
4, 172589, Note_on_c, 9, 40, 58
4, 172652, Note_on_c, 9, 51, 0
4, 172652, Note_on_c, 9, 35, 88
4, 172733, Note_on_c, 9, 40, 0
4, 172764, Note_on_c, 9, 35, 0
4, 172800, Note_on_c, 9, 51, 62
4, 172820, Note_on_c, 9, 35, 69
4, 173004, Note_on_c, 9, 35, 0
4, 173204, Note_on_c, 9, 51, 0
4, 173268, Note_on_c, 9, 44, 61
4, 173280, Note_on_c, 9, 51, 86
4, 173408, Note_on_c, 9, 44, 0
4, 173624, Note_on_c, 9, 35, 62
4, 173688, Note_on_c, 9, 51, 0
4, 173704, Note_on_c, 9, 35, 0
4, 173760, Note_on_c, 9, 51, 81
4, 174029, Note_on_c, 9, 40, 61
4, 174100, Note_on_c, 9, 51, 0
4, 174177, Note_on_c, 9, 40, 0
4, 174228, Note_on_c, 9, 44, 65
4, 174240, Note_on_c, 9, 51, 66
4, 174388, Note_on_c, 9, 44, 0
4, 174509, Note_on_c, 9, 40, 66
4, 174580, Note_on_c, 9, 51, 0
4, 174628, Note_on_c, 9, 35, 45
4, 174656, Note_on_c, 9, 35, 0
4, 174669, Note_on_c, 9, 40, 0
4, 174720, Note_on_c, 9, 51, 73
4, 174788, Note_on_c, 9, 40, 45
4, 174836, Note_on_c, 9, 40, 0
4, 174932, Note_on_c, 9, 40, 44
4, 174964, Note_on_c, 9, 40, 0
4, 175088, Note_on_c, 9, 35, 51
4, 175100, Note_on_c, 9, 51, 0
4, 175116, Note_on_c, 9, 35, 0
4, 175188, Note_on_c, 9, 44, 65
4, 175200, Note_on_c, 9, 51, 83
4, 175248, Note_on_c, 9, 40, 59
4, 175276, Note_on_c, 9, 40, 0
4, 175388, Note_on_c, 9, 44, 0
4, 175469, Note_on_c, 9, 40, 52
4, 175524, Note_on_c, 9, 51, 0
4, 175548, Note_on_c, 9, 35, 84
4, 175593, Note_on_c, 9, 40, 0
4, 175656, Note_on_c, 9, 35, 0
4, 175680, Note_on_c, 9, 51, 78
4, 176072, Note_on_c, 9, 51, 0
4, 176148, Note_on_c, 9, 44, 61
4, 176160, Note_on_c, 9, 51, 83
4, 176316, Note_on_c, 9, 44, 0
4, 176420, Note_on_c, 9, 51, 0
4, 176480, Note_on_c, 9, 51, 120
4, 176580, Note_on_c, 9, 51, 0
4, 176640, Note_on_c, 9, 51, 69
4, 176684, Note_on_c, 9, 40, 71
4, 176748, Note_on_c, 9, 40, 0
4, 176812, Note_on_c, 9, 38, 61
4, 176844, Note_on_c, 9, 38, 0
4, 176980, Note_on_c, 9, 35, 86
4, 177028, Note_on_c, 9, 51, 0
4, 177108, Note_on_c, 9, 44, 61
4, 177120, Note_on_c, 9, 51, 78
4, 177188, Note_on_c, 9, 35, 0
4, 177288, Note_on_c, 9, 44, 0
4, 177332, Note_on_c, 9, 40, 59
4, 177392, Note_on_c, 9, 40, 0
4, 177448, Note_on_c, 9, 38, 57
4, 177452, Note_on_c, 9, 51, 0
4, 177476, Note_on_c, 9, 38, 0
4, 177600, Note_on_c, 9, 51, 78
4, 177624, Note_on_c, 9, 35, 71
4, 177756, Note_on_c, 9, 35, 0
4, 177988, Note_on_c, 9, 51, 0
4, 178068, Note_on_c, 9, 44, 65
4, 178080, Note_on_c, 9, 51, 83
4, 178112, Note_on_c, 9, 40, 64
4, 178184, Note_on_c, 9, 40, 0
4, 178236, Note_on_c, 9, 44, 0
4, 178260, Note_on_c, 9, 38, 53
4, 178284, Note_on_c, 9, 38, 0
4, 178412, Note_on_c, 9, 51, 127
4, 178420, Note_on_c, 9, 51, 0
4, 178424, Note_on_c, 9, 35, 44
4, 178444, Note_on_c, 9, 51, 0
4, 178448, Note_on_c, 9, 35, 0
4, 178560, Note_on_c, 9, 51, 71
4, 178964, Note_on_c, 9, 51, 0
4, 179028, Note_on_c, 9, 44, 67
4, 179040, Note_on_c, 9, 51, 83
4, 179208, Note_on_c, 9, 44, 0
4, 179309, Note_on_c, 9, 40, 63
4, 179364, Note_on_c, 9, 51, 0
4, 179384, Note_on_c, 9, 35, 52
4, 179424, Note_on_c, 9, 35, 0
4, 179461, Note_on_c, 9, 40, 0
4, 179520, Note_on_c, 9, 51, 54
4, 179532, Note_on_c, 9, 35, 50
4, 179564, Note_on_c, 9, 35, 0
4, 179789, Note_on_c, 9, 40, 64
4, 179864, Note_on_c, 9, 51, 0
4, 179949, Note_on_c, 9, 40, 0
4, 179988, Note_on_c, 9, 44, 73
4, 180000, Note_on_c, 9, 51, 61
4, 180128, Note_on_c, 9, 44, 0
4, 180320, Note_on_c, 9, 35, 56
4, 180384, Note_on_c, 9, 35, 0
4, 180400, Note_on_c, 9, 51, 0
4, 180480, Note_on_c, 9, 51, 74
4, 180484, Note_on_c, 9, 35, 43
4, 180524, Note_on_c, 9, 35, 0
4, 180860, Note_on_c, 9, 51, 0
4, 180948, Note_on_c, 9, 44, 72
4, 180960, Note_on_c, 9, 51, 69
4, 181108, Note_on_c, 9, 44, 0
4, 181292, Note_on_c, 9, 51, 0
4, 181440, Note_on_c, 9, 51, 66
4, 181804, Note_on_c, 9, 51, 0
4, 181824, Note_on_c, 9, 35, 53
4, 181848, Note_on_c, 9, 35, 0
4, 181908, Note_on_c, 9, 44, 66
4, 181920, Note_on_c, 9, 51, 71
4, 181988, Note_on_c, 9, 35, 31
4, 182020, Note_on_c, 9, 35, 0
4, 182096, Note_on_c, 9, 44, 0
4, 182260, Note_on_c, 9, 51, 0
4, 182264, Note_on_c, 9, 35, 77
4, 182312, Note_on_c, 9, 35, 0
4, 182400, Note_on_c, 9, 51, 64
4, 182788, Note_on_c, 9, 51, 0
4, 182868, Note_on_c, 9, 46, 67
4, 182880, Note_on_c, 9, 51, 83
4, 182996, Note_on_c, 9, 46, 0
4, 183208, Note_on_c, 9, 51, 0
4, 183244, Note_on_c, 9, 35, 69
4, 183296, Note_on_c, 9, 35, 0
4, 183360, Note_on_c, 9, 51, 69
4, 183700, Note_on_c, 9, 51, 0
4, 183828, Note_on_c, 9, 44, 57
4, 183840, Note_on_c, 9, 51, 79
4, 184008, Note_on_c, 9, 44, 0
4, 184160, Note_on_c, 9, 35, 58
4, 184188, Note_on_c, 9, 35, 0
4, 184244, Note_on_c, 9, 51, 0
4, 184320, Note_on_c, 9, 51, 83
4, 184589, Note_on_c, 9, 40, 63
4, 184664, Note_on_c, 9, 51, 0
4, 184757, Note_on_c, 9, 40, 0
4, 184788, Note_on_c, 9, 44, 53
4, 184800, Note_on_c, 9, 51, 66
4, 185008, Note_on_c, 9, 44, 0
4, 185188, Note_on_c, 9, 51, 0
4, 185280, Note_on_c, 9, 51, 69
4, 185444, Note_on_c, 9, 45, 70
4, 185472, Note_on_c, 9, 45, 0
4, 185604, Note_on_c, 9, 38, 55
4, 185632, Note_on_c, 9, 38, 0
4, 185668, Note_on_c, 9, 51, 0
4, 185748, Note_on_c, 9, 44, 58
4, 185752, Note_on_c, 9, 45, 40
4, 185760, Note_on_c, 9, 51, 78
4, 185764, Note_on_c, 9, 43, 48
4, 185784, Note_on_c, 9, 45, 0
4, 185792, Note_on_c, 9, 43, 0
4, 185916, Note_on_c, 9, 44, 0
4, 185928, Note_on_c, 9, 38, 54
4, 185952, Note_on_c, 9, 38, 0
4, 186029, Note_on_c, 9, 40, 56
4, 186068, Note_on_c, 9, 51, 0
4, 186068, Note_on_c, 9, 38, 70
4, 186132, Note_on_c, 9, 38, 0
4, 186141, Note_on_c, 9, 40, 0
4, 186232, Note_on_c, 9, 35, 56
4, 186240, Note_on_c, 9, 57, 54
4, 186240, Note_on_c, 9, 51, 68
4, 186268, Note_on_c, 9, 57, 0
4, 186284, Note_on_c, 9, 35, 0
4, 186620, Note_on_c, 9, 51, 0
4, 186708, Note_on_c, 9, 44, 60
4, 186720, Note_on_c, 9, 51, 73
4, 186836, Note_on_c, 9, 44, 0
4, 186980, Note_on_c, 9, 51, 0
4, 187040, Note_on_c, 9, 51, 110
4, 187060, Note_on_c, 9, 35, 54
4, 187092, Note_on_c, 9, 35, 0
4, 187120, Note_on_c, 9, 51, 0
4, 187200, Note_on_c, 9, 51, 62
4, 187564, Note_on_c, 9, 51, 0
4, 187668, Note_on_c, 9, 44, 61
4, 187680, Note_on_c, 9, 51, 90
4, 187896, Note_on_c, 9, 44, 0
4, 187949, Note_on_c, 9, 40, 59
4, 188000, Note_on_c, 9, 51, 0
4, 188093, Note_on_c, 9, 40, 0
4, 188160, Note_on_c, 9, 51, 69
4, 188160, Note_on_c, 9, 35, 45
4, 188224, Note_on_c, 9, 35, 0
4, 188429, Note_on_c, 9, 40, 61
4, 188484, Note_on_c, 9, 51, 0
4, 188569, Note_on_c, 9, 40, 0
4, 188628, Note_on_c, 9, 44, 61
4, 188640, Note_on_c, 9, 51, 69
4, 188848, Note_on_c, 9, 44, 0
4, 188984, Note_on_c, 9, 35, 52
4, 189012, Note_on_c, 9, 35, 0
4, 189012, Note_on_c, 9, 51, 0
4, 189120, Note_on_c, 9, 51, 69
4, 189468, Note_on_c, 9, 51, 0
4, 189588, Note_on_c, 9, 44, 74
4, 189600, Note_on_c, 9, 51, 64
4, 189816, Note_on_c, 9, 44, 0
4, 189944, Note_on_c, 9, 51, 0
4, 190080, Note_on_c, 9, 51, 71
4, 190500, Note_on_c, 9, 51, 0
4, 190548, Note_on_c, 9, 44, 72
4, 190560, Note_on_c, 9, 51, 86
4, 190568, Note_on_c, 9, 35, 58
4, 190768, Note_on_c, 9, 44, 0
4, 190836, Note_on_c, 9, 35, 0
4, 190868, Note_on_c, 9, 35, 43
4, 190888, Note_on_c, 9, 51, 0
4, 190916, Note_on_c, 9, 35, 0
4, 191040, Note_on_c, 9, 51, 59
4, 191340, Note_on_c, 9, 51, 0
4, 191508, Note_on_c, 9, 44, 69
4, 191520, Note_on_c, 9, 51, 64
4, 191756, Note_on_c, 9, 44, 0
4, 191844, Note_on_c, 9, 35, 89
4, 191908, Note_on_c, 9, 35, 0
4, 191928, Note_on_c, 9, 51, 0
4, 192000, Note_on_c, 9, 51, 81
4, 192269, Note_on_c, 9, 40, 68
4, 192348, Note_on_c, 9, 51, 0
4, 192449, Note_on_c, 9, 40, 0
4, 192468, Note_on_c, 9, 44, 69
4, 192480, Note_on_c, 9, 51, 61
4, 192696, Note_on_c, 9, 44, 0
4, 192749, Note_on_c, 9, 40, 69
4, 192820, Note_on_c, 9, 51, 0
4, 192832, Note_on_c, 9, 35, 25
4, 192864, Note_on_c, 9, 35, 0
4, 192921, Note_on_c, 9, 40, 0
4, 192960, Note_on_c, 9, 51, 66
4, 192988, Note_on_c, 9, 35, 33
4, 193016, Note_on_c, 9, 35, 0
4, 193380, Note_on_c, 9, 51, 0
4, 193428, Note_on_c, 9, 46, 58
4, 193432, Note_on_c, 9, 35, 47
4, 193440, Note_on_c, 9, 51, 74
4, 193464, Note_on_c, 9, 35, 0
4, 193536, Note_on_c, 9, 46, 0
4, 193720, Note_on_c, 9, 51, 0
4, 193744, Note_on_c, 9, 35, 49
4, 193760, Note_on_c, 9, 51, 100
4, 193776, Note_on_c, 9, 35, 0
4, 193864, Note_on_c, 9, 51, 0
4, 193920, Note_on_c, 9, 51, 79
4, 194308, Note_on_c, 9, 51, 0
4, 194388, Note_on_c, 9, 44, 67
4, 194400, Note_on_c, 9, 51, 66
4, 194556, Note_on_c, 9, 44, 0
4, 194784, Note_on_c, 9, 51, 0
4, 194880, Note_on_c, 9, 51, 74
4, 195252, Note_on_c, 9, 51, 0
4, 195348, Note_on_c, 9, 44, 65
4, 195360, Note_on_c, 9, 51, 68
4, 195476, Note_on_c, 9, 44, 0
4, 195604, Note_on_c, 9, 51, 0
4, 195629, Note_on_c, 9, 40, 49
4, 195708, Note_on_c, 9, 35, 76
4, 195777, Note_on_c, 9, 40, 0
4, 195796, Note_on_c, 9, 35, 0
4, 195840, Note_on_c, 9, 51, 62
4, 195884, Note_on_c, 9, 35, 41
4, 196084, Note_on_c, 9, 35, 0
4, 196212, Note_on_c, 9, 35, 35
4, 196220, Note_on_c, 9, 51, 0
4, 196244, Note_on_c, 9, 35, 0
4, 196308, Note_on_c, 9, 44, 74
4, 196320, Note_on_c, 9, 51, 83
4, 196356, Note_on_c, 9, 44, 0
4, 196420, Note_on_c, 9, 51, 0
4, 196480, Note_on_c, 9, 40, 49
4, 196592, Note_on_c, 9, 40, 0
4, 196640, Note_on_c, 9, 51, 98
4, 196720, Note_on_c, 9, 51, 0
4, 196800, Note_on_c, 9, 51, 78
4, 197168, Note_on_c, 9, 51, 0
4, 197268, Note_on_c, 9, 44, 74
4, 197280, Note_on_c, 9, 51, 83
4, 197376, Note_on_c, 9, 44, 0
4, 197412, Note_on_c, 9, 51, 0
4, 197440, Note_on_c, 9, 40, 53
4, 197488, Note_on_c, 9, 35, 65
4, 197520, Note_on_c, 9, 40, 0
4, 197560, Note_on_c, 9, 35, 0
4, 197600, Note_on_c, 9, 51, 86
4, 197624, Note_on_c, 9, 35, 59
4, 197680, Note_on_c, 9, 51, 0
4, 197732, Note_on_c, 9, 35, 0
4, 197760, Note_on_c, 9, 51, 93
4, 197772, Note_on_c, 9, 35, 53
4, 197884, Note_on_c, 9, 35, 0
4, 198080, Note_on_c, 9, 51, 0
4, 198228, Note_on_c, 9, 44, 72
4, 198240, Note_on_c, 9, 51, 66
4, 198376, Note_on_c, 9, 44, 0
4, 198564, Note_on_c, 9, 35, 47
4, 198596, Note_on_c, 9, 35, 0
4, 198668, Note_on_c, 9, 51, 0
4, 198720, Note_on_c, 9, 51, 69
4, 199060, Note_on_c, 9, 51, 0
4, 199188, Note_on_c, 9, 44, 70
4, 199200, Note_on_c, 9, 51, 71
4, 199348, Note_on_c, 9, 44, 0
4, 199532, Note_on_c, 9, 35, 51
4, 199564, Note_on_c, 9, 35, 0
4, 199612, Note_on_c, 9, 51, 0
4, 199680, Note_on_c, 9, 51, 69
4, 199972, Note_on_c, 9, 51, 0
4, 200000, Note_on_c, 9, 41, 43
4, 200080, Note_on_c, 9, 41, 0
4, 200148, Note_on_c, 9, 44, 72
4, 200160, Note_on_c, 9, 51, 66
4, 200200, Note_on_c, 9, 48, 25
4, 200228, Note_on_c, 9, 48, 0
4, 200316, Note_on_c, 9, 44, 0
4, 200352, Note_on_c, 9, 48, 35
4, 200380, Note_on_c, 9, 48, 0
4, 200560, Note_on_c, 9, 51, 0
4, 200640, Note_on_c, 9, 51, 69
4, 200832, Note_on_c, 9, 48, 53
4, 200856, Note_on_c, 9, 48, 0
4, 200909, Note_on_c, 9, 40, 62
4, 200952, Note_on_c, 9, 51, 0
4, 200988, Note_on_c, 9, 35, 62
4, 201028, Note_on_c, 9, 35, 0
4, 201061, Note_on_c, 9, 40, 0
4, 201108, Note_on_c, 9, 44, 68
4, 201120, Note_on_c, 9, 51, 54
4, 201152, Note_on_c, 9, 48, 56
4, 201176, Note_on_c, 9, 48, 0
4, 201276, Note_on_c, 9, 44, 0
4, 201440, Note_on_c, 9, 48, 49
4, 201464, Note_on_c, 9, 48, 0
4, 201480, Note_on_c, 9, 51, 0
4, 201600, Note_on_c, 9, 51, 85
4, 201620, Note_on_c, 9, 35, 84
4, 201692, Note_on_c, 9, 35, 0
4, 201869, Note_on_c, 9, 40, 45
4, 201900, Note_on_c, 9, 51, 0
4, 201944, Note_on_c, 9, 35, 33
4, 201972, Note_on_c, 9, 35, 0
4, 201973, Note_on_c, 9, 40, 0
4, 202068, Note_on_c, 9, 44, 69
4, 202080, Note_on_c, 9, 51, 68
4, 202216, Note_on_c, 9, 44, 0
4, 202308, Note_on_c, 9, 51, 0
4, 202400, Note_on_c, 9, 51, 117
4, 202509, Note_on_c, 9, 40, 54
4, 202584, Note_on_c, 9, 51, 0
4, 202793, Note_on_c, 9, 40, 0
4, 202880, Note_on_c, 9, 51, 93
4, 203028, Note_on_c, 9, 44, 66
4, 203148, Note_on_c, 9, 45, 71
4, 203156, Note_on_c, 9, 44, 0
4, 203172, Note_on_c, 9, 45, 0
4, 203232, Note_on_c, 9, 51, 0
4, 203312, Note_on_c, 9, 45, 71
4, 203360, Note_on_c, 9, 51, 120
4, 203432, Note_on_c, 9, 45, 0
4, 203440, Note_on_c, 9, 51, 0
4, 203480, Note_on_c, 9, 57, 76
4, 203484, Note_on_c, 9, 35, 71
4, 203520, Note_on_c, 9, 51, 56
4, 203544, Note_on_c, 9, 57, 0
4, 203920, Note_on_c, 9, 51, 0
4, 203988, Note_on_c, 9, 44, 65
4, 204000, Note_on_c, 9, 51, 73
4, 204116, Note_on_c, 9, 44, 0
4, 204269, Note_on_c, 9, 40, 49
4, 204328, Note_on_c, 9, 51, 0
4, 204413, Note_on_c, 9, 40, 0
4, 204480, Note_on_c, 9, 51, 61
4, 204524, Note_on_c, 9, 35, 0
4, 204792, Note_on_c, 9, 51, 0
4, 204800, Note_on_c, 9, 38, 67
4, 204884, Note_on_c, 9, 38, 0
4, 204948, Note_on_c, 9, 46, 60
4, 204960, Note_on_c, 9, 51, 56
4, 205048, Note_on_c, 9, 46, 0
4, 205304, Note_on_c, 9, 35, 59
4, 205360, Note_on_c, 9, 51, 0
4, 205392, Note_on_c, 9, 35, 0
4, 205440, Note_on_c, 9, 51, 66
4, 205468, Note_on_c, 9, 35, 54
4, 205672, Note_on_c, 9, 35, 0
4, 205832, Note_on_c, 9, 51, 0
4, 205908, Note_on_c, 9, 44, 59
4, 205920, Note_on_c, 9, 51, 71
4, 206016, Note_on_c, 9, 44, 0
4, 206080, Note_on_c, 9, 38, 57
4, 206140, Note_on_c, 9, 51, 0
4, 206160, Note_on_c, 9, 38, 0
4, 206189, Note_on_c, 9, 40, 58
4, 206240, Note_on_c, 9, 36, 58
4, 206268, Note_on_c, 9, 36, 0
4, 206321, Note_on_c, 9, 40, 0
4, 206400, Note_on_c, 9, 51, 107
4, 206428, Note_on_c, 9, 35, 33
4, 206500, Note_on_c, 9, 35, 0
4, 206692, Note_on_c, 9, 35, 43
4, 206752, Note_on_c, 9, 35, 0
4, 206868, Note_on_c, 9, 44, 67
4, 206880, Note_on_c, 9, 38, 62
4, 206888, Note_on_c, 9, 51, 0
4, 206960, Note_on_c, 9, 38, 0
4, 206989, Note_on_c, 9, 40, 60
4, 206996, Note_on_c, 9, 44, 0
4, 207129, Note_on_c, 9, 40, 0
4, 207200, Note_on_c, 9, 51, 125
4, 207360, Note_on_c, 9, 38, 54
4, 207624, Note_on_c, 9, 38, 0
4, 207784, Note_on_c, 9, 51, 0
4, 207828, Note_on_c, 9, 44, 62
4, 207840, Note_on_c, 9, 51, 83
4, 207948, Note_on_c, 9, 44, 0
4, 208228, Note_on_c, 9, 51, 0
4, 208320, Note_on_c, 9, 51, 74
4, 208632, Note_on_c, 9, 51, 0
4, 208788, Note_on_c, 9, 46, 38
4, 208800, Note_on_c, 9, 51, 91
4, 208988, Note_on_c, 9, 46, 0
4, 209108, Note_on_c, 9, 35, 59
4, 209136, Note_on_c, 9, 35, 0
4, 209184, Note_on_c, 9, 51, 0
4, 209280, Note_on_c, 9, 51, 85
4, 209588, Note_on_c, 9, 51, 0
4, 209748, Note_on_c, 9, 44, 61
4, 209760, Note_on_c, 9, 51, 95
4, 209848, Note_on_c, 9, 44, 0
4, 210029, Note_on_c, 9, 40, 72
4, 210072, Note_on_c, 9, 51, 0
4, 210177, Note_on_c, 9, 40, 0
4, 210240, Note_on_c, 9, 51, 73
4, 210432, Note_on_c, 9, 38, 51
4, 210456, Note_on_c, 9, 38, 0
4, 210524, Note_on_c, 9, 51, 0
4, 210708, Note_on_c, 9, 44, 69
4, 210720, Note_on_c, 9, 51, 86
4, 210760, Note_on_c, 9, 35, 59
4, 210856, Note_on_c, 9, 44, 0
4, 211000, Note_on_c, 9, 35, 0
4, 211060, Note_on_c, 9, 35, 57
4, 211100, Note_on_c, 9, 35, 0
4, 211144, Note_on_c, 9, 51, 0
4, 211200, Note_on_c, 9, 51, 96
4, 211628, Note_on_c, 9, 51, 0
4, 211668, Note_on_c, 9, 44, 75
4, 211680, Note_on_c, 9, 51, 73
4, 211836, Note_on_c, 9, 44, 0
4, 212012, Note_on_c, 9, 51, 0
4, 212160, Note_on_c, 9, 51, 81
4, 212528, Note_on_c, 9, 38, 40
4, 212556, Note_on_c, 9, 38, 0
4, 212580, Note_on_c, 9, 51, 0
4, 212628, Note_on_c, 9, 44, 75
4, 212640, Note_on_c, 9, 51, 110
4, 212796, Note_on_c, 9, 44, 0
4, 212972, Note_on_c, 9, 51, 0
4, 213120, Note_on_c, 9, 51, 91
4, 213160, Note_on_c, 9, 46, 35
4, 213384, Note_on_c, 9, 46, 0
4, 213460, Note_on_c, 9, 51, 0
4, 213588, Note_on_c, 9, 44, 76
4, 213600, Note_on_c, 9, 51, 90
4, 213788, Note_on_c, 9, 44, 0
4, 213869, Note_on_c, 9, 40, 74
4, 213924, Note_on_c, 9, 51, 0
4, 213972, Note_on_c, 9, 35, 62
4, 214000, Note_on_c, 9, 35, 0
4, 214021, Note_on_c, 9, 40, 0
4, 214080, Note_on_c, 9, 51, 78
4, 214384, Note_on_c, 9, 51, 0
4, 214548, Note_on_c, 9, 44, 76
4, 214560, Note_on_c, 9, 51, 90
4, 214728, Note_on_c, 9, 44, 0
4, 214868, Note_on_c, 9, 51, 0
4, 214888, Note_on_c, 9, 35, 62
4, 214988, Note_on_c, 9, 35, 0
4, 215040, Note_on_c, 9, 51, 113
4, 215052, Note_on_c, 9, 35, 55
4, 215272, Note_on_c, 9, 35, 0
4, 215309, Note_on_c, 9, 40, 62
4, 215380, Note_on_c, 9, 51, 0
4, 215493, Note_on_c, 9, 40, 0
4, 215508, Note_on_c, 9, 44, 76
4, 215520, Note_on_c, 9, 51, 74
4, 215688, Note_on_c, 9, 44, 0
4, 215848, Note_on_c, 9, 51, 0
4, 216000, Note_on_c, 9, 51, 85
4, 216048, Note_on_c, 9, 38, 39
4, 216076, Note_on_c, 9, 38, 0
4, 216360, Note_on_c, 9, 38, 75
4, 216420, Note_on_c, 9, 38, 0
4, 216424, Note_on_c, 9, 51, 0
4, 216468, Note_on_c, 9, 44, 79
4, 216480, Note_on_c, 9, 51, 83
4, 216628, Note_on_c, 9, 44, 0
4, 216652, Note_on_c, 9, 38, 72
4, 216704, Note_on_c, 9, 38, 0
4, 216812, Note_on_c, 9, 35, 75
4, 216872, Note_on_c, 9, 35, 0
4, 216880, Note_on_c, 9, 51, 0
4, 216960, Note_on_c, 9, 51, 96
4, 216992, Note_on_c, 9, 35, 85
4, 217084, Note_on_c, 9, 35, 0
4, 217229, Note_on_c, 9, 40, 76
4, 217280, Note_on_c, 9, 51, 0
4, 217361, Note_on_c, 9, 40, 0
4, 217428, Note_on_c, 9, 44, 78
4, 217440, Note_on_c, 9, 51, 68
4, 217588, Note_on_c, 9, 44, 0
4, 217748, Note_on_c, 9, 35, 74
4, 217800, Note_on_c, 9, 35, 0
4, 217844, Note_on_c, 9, 51, 0
4, 217920, Note_on_c, 9, 51, 93
4, 218324, Note_on_c, 9, 51, 0
4, 218388, Note_on_c, 9, 44, 76
4, 218400, Note_on_c, 9, 51, 93
4, 218568, Note_on_c, 9, 44, 0
4, 218744, Note_on_c, 9, 51, 0
4, 218748, Note_on_c, 9, 35, 47
4, 218780, Note_on_c, 9, 35, 0
4, 218880, Note_on_c, 9, 51, 71
4, 218904, Note_on_c, 9, 35, 45
4, 218996, Note_on_c, 9, 35, 0
4, 219264, Note_on_c, 9, 51, 0
4, 219348, Note_on_c, 9, 44, 76
4, 219360, Note_on_c, 9, 51, 78
4, 219536, Note_on_c, 9, 44, 0
4, 219629, Note_on_c, 9, 40, 58
4, 219688, Note_on_c, 9, 51, 0
4, 219781, Note_on_c, 9, 40, 0
4, 219840, Note_on_c, 9, 51, 71
4, 219864, Note_on_c, 9, 35, 38
4, 219936, Note_on_c, 9, 35, 0
4, 220109, Note_on_c, 9, 40, 67
4, 220172, Note_on_c, 9, 51, 0
4, 220261, Note_on_c, 9, 40, 0
4, 220308, Note_on_c, 9, 44, 76
4, 220320, Note_on_c, 9, 51, 66
4, 220496, Note_on_c, 9, 44, 0
4, 220644, Note_on_c, 9, 35, 48
4, 220676, Note_on_c, 9, 35, 0
4, 220728, Note_on_c, 9, 51, 0
4, 220800, Note_on_c, 9, 51, 78
4, 220832, Note_on_c, 9, 35, 38
4, 220876, Note_on_c, 9, 35, 0
4, 221069, Note_on_c, 9, 40, 60
4, 221144, Note_on_c, 9, 51, 0
4, 221217, Note_on_c, 9, 40, 0
4, 221268, Note_on_c, 9, 44, 76
4, 221280, Note_on_c, 9, 51, 62
4, 221456, Note_on_c, 9, 44, 0
4, 221592, Note_on_c, 9, 35, 55
4, 221644, Note_on_c, 9, 35, 0
4, 221664, Note_on_c, 9, 51, 0
4, 221760, Note_on_c, 9, 51, 69
4, 221772, Note_on_c, 9, 35, 40
4, 221836, Note_on_c, 9, 35, 0
4, 222029, Note_on_c, 9, 40, 58
4, 222068, Note_on_c, 9, 51, 0
4, 222153, Note_on_c, 9, 40, 0
4, 222228, Note_on_c, 9, 44, 76
4, 222240, Note_on_c, 9, 51, 73
4, 222428, Note_on_c, 9, 44, 0
4, 222580, Note_on_c, 9, 35, 51
4, 222624, Note_on_c, 9, 35, 0
4, 222628, Note_on_c, 9, 51, 0
4, 222720, Note_on_c, 9, 51, 88
4, 222752, Note_on_c, 9, 35, 42
4, 222804, Note_on_c, 9, 35, 0
4, 222984, Note_on_c, 9, 51, 0
4, 223040, Note_on_c, 9, 30, 44
4, 223120, Note_on_c, 9, 30, 0
4, 223188, Note_on_c, 9, 44, 76
4, 223200, Note_on_c, 9, 51, 62
4, 223388, Note_on_c, 9, 44, 0
4, 223564, Note_on_c, 9, 51, 0
4, 223680, Note_on_c, 9, 51, 81
4, 223712, Note_on_c, 9, 35, 55
4, 223760, Note_on_c, 9, 35, 0
4, 223949, Note_on_c, 9, 40, 61
4, 223984, Note_on_c, 9, 51, 0
4, 224057, Note_on_c, 9, 40, 0
4, 224148, Note_on_c, 9, 44, 76
4, 224160, Note_on_c, 9, 51, 68
4, 224220, Note_on_c, 9, 53, 65
4, 224284, Note_on_c, 9, 53, 0
4, 224360, Note_on_c, 9, 50, 53
4, 224368, Note_on_c, 9, 44, 0
4, 224392, Note_on_c, 9, 50, 0
4, 224429, Note_on_c, 9, 40, 64
4, 224444, Note_on_c, 9, 51, 0
4, 224508, Note_on_c, 9, 35, 73
4, 224537, Note_on_c, 9, 40, 0
4, 224640, Note_on_c, 9, 51, 69
4, 224752, Note_on_c, 9, 35, 0
4, 224928, Note_on_c, 9, 51, 0
4, 225108, Note_on_c, 9, 44, 79
4, 225328, Note_on_c, 9, 44, 0
4, 225440, Note_on_c, 9, 51, 127
4, 225452, Note_on_c, 9, 35, 62
4, 225496, Note_on_c, 9, 35, 0
4, 225608, Note_on_c, 9, 35, 56
4, 225800, Note_on_c, 9, 35, 0
4, 225972, Note_on_c, 9, 51, 0
4, 226068, Note_on_c, 9, 44, 76
4, 226080, Note_on_c, 9, 51, 73
4, 226256, Note_on_c, 9, 44, 0
4, 226400, Note_on_c, 9, 51, 0
4, 226428, Note_on_c, 9, 35, 48
4, 226492, Note_on_c, 9, 35, 0
4, 226560, Note_on_c, 9, 51, 95
4, 226632, Note_on_c, 9, 35, 51
4, 226700, Note_on_c, 9, 35, 0
4, 226844, Note_on_c, 9, 51, 0
4, 227028, Note_on_c, 9, 44, 76
4, 227040, Note_on_c, 9, 51, 79
4, 227216, Note_on_c, 9, 44, 0
4, 227400, Note_on_c, 9, 35, 48
4, 227412, Note_on_c, 9, 51, 0
4, 227440, Note_on_c, 9, 35, 0
4, 227520, Note_on_c, 9, 51, 83
4, 227572, Note_on_c, 9, 35, 48
4, 227656, Note_on_c, 9, 35, 0
4, 227768, Note_on_c, 9, 51, 0
4, 227988, Note_on_c, 9, 44, 75
4, 228000, Note_on_c, 9, 51, 98
4, 228156, Note_on_c, 9, 44, 0
4, 228312, Note_on_c, 9, 51, 0
4, 228332, Note_on_c, 9, 35, 63
4, 228364, Note_on_c, 9, 35, 0
4, 228480, Note_on_c, 9, 51, 100
4, 228760, Note_on_c, 9, 51, 0
4, 228948, Note_on_c, 9, 44, 79
4, 228960, Note_on_c, 9, 51, 79
4, 229116, Note_on_c, 9, 44, 0
4, 229240, Note_on_c, 9, 51, 0
4, 229292, Note_on_c, 9, 35, 58
4, 229340, Note_on_c, 9, 35, 0
4, 229440, Note_on_c, 9, 35, 41
4, 229440, Note_on_c, 9, 51, 88
4, 229532, Note_on_c, 9, 35, 0
4, 229684, Note_on_c, 9, 51, 0
4, 229908, Note_on_c, 9, 44, 81
4, 229920, Note_on_c, 9, 51, 71
4, 230028, Note_on_c, 9, 51, 0
4, 230088, Note_on_c, 9, 44, 0
4, 230104, Note_on_c, 9, 38, 55
4, 230128, Note_on_c, 9, 38, 0
4, 230240, Note_on_c, 9, 51, 91
4, 230248, Note_on_c, 9, 35, 49
4, 230288, Note_on_c, 9, 35, 0
4, 230320, Note_on_c, 9, 51, 0
4, 230400, Note_on_c, 9, 51, 68
4, 230428, Note_on_c, 9, 38, 45
4, 230456, Note_on_c, 9, 38, 0
4, 230584, Note_on_c, 9, 38, 57
4, 230612, Note_on_c, 9, 38, 0
4, 230669, Note_on_c, 9, 40, 67
4, 230684, Note_on_c, 9, 51, 0
4, 230744, Note_on_c, 9, 35, 54
4, 230776, Note_on_c, 9, 35, 0
4, 230789, Note_on_c, 9, 40, 0
4, 230868, Note_on_c, 9, 44, 80
4, 230880, Note_on_c, 9, 51, 69
4, 230892, Note_on_c, 9, 38, 54
4, 230920, Note_on_c, 9, 38, 0
4, 231052, Note_on_c, 9, 38, 50
4, 231056, Note_on_c, 9, 44, 0
4, 231100, Note_on_c, 9, 38, 0
4, 231212, Note_on_c, 9, 35, 57
4, 231292, Note_on_c, 9, 51, 0
4, 231316, Note_on_c, 9, 35, 0
4, 231360, Note_on_c, 9, 51, 83
4, 231372, Note_on_c, 9, 38, 60
4, 231400, Note_on_c, 9, 38, 0
4, 231528, Note_on_c, 9, 38, 62
4, 231560, Note_on_c, 9, 38, 0
4, 231672, Note_on_c, 9, 35, 64
4, 231744, Note_on_c, 9, 35, 0
4, 231748, Note_on_c, 9, 51, 0
4, 231828, Note_on_c, 9, 44, 79
4, 231832, Note_on_c, 9, 38, 63
4, 231840, Note_on_c, 9, 51, 86
4, 231860, Note_on_c, 9, 38, 0
4, 232016, Note_on_c, 9, 44, 0
4, 232040, Note_on_c, 9, 35, 32
4, 232064, Note_on_c, 9, 35, 0
4, 232092, Note_on_c, 9, 51, 0
4, 232160, Note_on_c, 9, 51, 105
4, 232164, Note_on_c, 9, 38, 75
4, 232180, Note_on_c, 9, 35, 46
4, 232188, Note_on_c, 9, 38, 0
4, 232208, Note_on_c, 9, 35, 0
4, 232240, Note_on_c, 9, 51, 0
4, 232320, Note_on_c, 9, 51, 81
4, 232332, Note_on_c, 9, 57, 77
4, 232344, Note_on_c, 9, 35, 56
4, 232360, Note_on_c, 9, 36, 47
4, 232388, Note_on_c, 9, 36, 0
4, 232392, Note_on_c, 9, 57, 0
4, 232589, Note_on_c, 9, 40, 58
4, 232612, Note_on_c, 9, 51, 0
4, 232677, Note_on_c, 9, 40, 0
4, 232788, Note_on_c, 9, 44, 80
4, 232800, Note_on_c, 9, 51, 90
4, 232976, Note_on_c, 9, 35, 0
4, 233008, Note_on_c, 9, 44, 0
4, 233204, Note_on_c, 9, 51, 0
4, 233280, Note_on_c, 9, 51, 76
4, 233500, Note_on_c, 9, 38, 55
4, 233528, Note_on_c, 9, 38, 0
4, 233600, Note_on_c, 9, 51, 0
4, 233648, Note_on_c, 9, 38, 85
4, 233720, Note_on_c, 9, 38, 0
4, 233748, Note_on_c, 9, 44, 79
4, 233760, Note_on_c, 9, 51, 83
4, 233792, Note_on_c, 9, 57, 71
4, 233808, Note_on_c, 9, 35, 79
4, 233840, Note_on_c, 9, 57, 0
4, 233932, Note_on_c, 9, 35, 0
4, 233948, Note_on_c, 9, 44, 0
4, 234120, Note_on_c, 9, 51, 0
4, 234240, Note_on_c, 9, 51, 83
4, 234548, Note_on_c, 9, 51, 0
4, 234708, Note_on_c, 9, 44, 76
4, 234720, Note_on_c, 9, 51, 66
4, 234928, Note_on_c, 9, 44, 0
4, 235040, Note_on_c, 9, 38, 49
4, 235104, Note_on_c, 9, 51, 0
4, 235128, Note_on_c, 9, 38, 0
4, 235200, Note_on_c, 9, 51, 83
4, 235224, Note_on_c, 9, 38, 50
4, 235444, Note_on_c, 9, 38, 0
4, 235508, Note_on_c, 9, 51, 0
4, 235532, Note_on_c, 9, 35, 45
4, 235580, Note_on_c, 9, 35, 0
4, 235668, Note_on_c, 9, 44, 78
4, 235680, Note_on_c, 9, 51, 100
4, 235868, Note_on_c, 9, 44, 0
4, 236080, Note_on_c, 9, 51, 0
4, 236160, Note_on_c, 9, 51, 81
4, 236484, Note_on_c, 9, 51, 0
4, 236508, Note_on_c, 9, 38, 42
4, 236560, Note_on_c, 9, 38, 0
4, 236628, Note_on_c, 9, 44, 74
4, 236640, Note_on_c, 9, 51, 73
4, 236808, Note_on_c, 9, 44, 0
4, 236972, Note_on_c, 9, 35, 29
4, 237016, Note_on_c, 9, 35, 0
4, 237044, Note_on_c, 9, 51, 0
4, 237120, Note_on_c, 9, 53, 41
4, 237120, Note_on_c, 9, 51, 100
4, 237152, Note_on_c, 9, 53, 0
4, 237412, Note_on_c, 9, 53, 60
4, 237440, Note_on_c, 9, 53, 0
4, 237460, Note_on_c, 9, 51, 0
4, 237588, Note_on_c, 9, 44, 74
4, 237600, Note_on_c, 9, 51, 95
4, 237748, Note_on_c, 9, 44, 0
4, 237928, Note_on_c, 9, 35, 41
4, 237932, Note_on_c, 9, 51, 0
4, 237968, Note_on_c, 9, 35, 0
4, 238080, Note_on_c, 9, 51, 98
4, 238104, Note_on_c, 9, 53, 49
4, 238296, Note_on_c, 9, 53, 0
4, 238388, Note_on_c, 9, 53, 50
4, 238428, Note_on_c, 9, 53, 0
4, 238484, Note_on_c, 9, 51, 0
4, 238548, Note_on_c, 9, 44, 75
4, 238560, Note_on_c, 9, 51, 76
4, 238676, Note_on_c, 9, 44, 0
4, 238868, Note_on_c, 9, 51, 0
4, 238872, Note_on_c, 9, 35, 56
4, 238960, Note_on_c, 9, 35, 0
4, 239040, Note_on_c, 9, 51, 102
4, 239332, Note_on_c, 9, 35, 65
4, 239396, Note_on_c, 9, 35, 0
4, 239424, Note_on_c, 9, 51, 0
4, 239508, Note_on_c, 9, 44, 73
4, 239520, Note_on_c, 9, 51, 85
4, 239628, Note_on_c, 9, 44, 0
4, 239668, Note_on_c, 9, 38, 77
4, 239712, Note_on_c, 9, 38, 0
4, 239820, Note_on_c, 9, 38, 73
4, 239828, Note_on_c, 9, 51, 0
4, 239920, Note_on_c, 9, 38, 0
4, 239988, Note_on_c, 9, 35, 53
4, 240000, Note_on_c, 9, 51, 98
4, 240028, Note_on_c, 9, 35, 0
4, 240320, Note_on_c, 9, 35, 53
4, 240388, Note_on_c, 9, 35, 0
4, 240392, Note_on_c, 9, 51, 0
4, 240468, Note_on_c, 9, 44, 73
4, 240480, Note_on_c, 9, 51, 86
4, 240616, Note_on_c, 9, 44, 0
4, 240764, Note_on_c, 9, 51, 0
4, 240788, Note_on_c, 9, 38, 53
4, 240828, Note_on_c, 9, 38, 0
4, 240960, Note_on_c, 9, 51, 102
4, 241284, Note_on_c, 9, 38, 69
4, 241308, Note_on_c, 9, 38, 0
4, 241348, Note_on_c, 9, 51, 0
4, 241428, Note_on_c, 9, 44, 74
4, 241440, Note_on_c, 9, 51, 88
4, 241568, Note_on_c, 9, 44, 0
4, 241709, Note_on_c, 9, 40, 58
4, 241740, Note_on_c, 9, 51, 0
4, 241788, Note_on_c, 9, 35, 43
4, 241828, Note_on_c, 9, 35, 0
4, 241833, Note_on_c, 9, 40, 0
4, 241920, Note_on_c, 9, 51, 86
4, 242088, Note_on_c, 9, 46, 44
4, 242112, Note_on_c, 9, 46, 0
4, 242248, Note_on_c, 9, 35, 52
4, 242276, Note_on_c, 9, 35, 0
4, 242312, Note_on_c, 9, 51, 0
4, 242388, Note_on_c, 9, 44, 76
4, 242400, Note_on_c, 9, 51, 76
4, 242400, Note_on_c, 9, 46, 44
4, 242428, Note_on_c, 9, 46, 0
4, 242496, Note_on_c, 9, 44, 0
4, 242548, Note_on_c, 9, 35, 49
4, 242576, Note_on_c, 9, 35, 0
4, 242669, Note_on_c, 9, 40, 43
4, 242680, Note_on_c, 9, 46, 63
4, 242740, Note_on_c, 9, 46, 0
4, 242748, Note_on_c, 9, 51, 0
4, 242809, Note_on_c, 9, 40, 0
4, 242880, Note_on_c, 9, 51, 93
4, 243192, Note_on_c, 9, 35, 47
4, 243224, Note_on_c, 9, 35, 0
4, 243304, Note_on_c, 9, 51, 0
4, 243348, Note_on_c, 9, 46, 56
4, 243360, Note_on_c, 9, 51, 79
4, 243468, Note_on_c, 9, 46, 0
4, 243548, Note_on_c, 9, 35, 68
4, 243608, Note_on_c, 9, 35, 0
4, 243680, Note_on_c, 9, 46, 41
4, 243708, Note_on_c, 9, 46, 0
4, 243772, Note_on_c, 9, 51, 0
4, 243840, Note_on_c, 9, 51, 83
4, 244172, Note_on_c, 9, 51, 0
4, 244212, Note_on_c, 9, 35, 59
4, 244240, Note_on_c, 9, 35, 0
4, 244308, Note_on_c, 9, 44, 66
4, 244320, Note_on_c, 9, 51, 73
4, 244396, Note_on_c, 9, 44, 0
4, 244484, Note_on_c, 9, 51, 0
4, 244640, Note_on_c, 9, 51, 124
4, 244640, Note_on_c, 9, 35, 79
4, 244720, Note_on_c, 9, 35, 0
4, 245108, Note_on_c, 9, 35, 71
4, 245156, Note_on_c, 9, 35, 0
4, 245200, Note_on_c, 9, 51, 0
4, 245254, Note_on_c, 9, 57, 100
4, 245268, Note_on_c, 9, 44, 72
4, 245280, Note_on_c, 9, 51, 103
4, 245314, Note_on_c, 9, 57, 0
4, 245436, Note_on_c, 9, 44, 0
4, 245563, Note_on_c, 9, 57, 100
4, 245584, Note_on_c, 9, 38, 76
4, 245588, Note_on_c, 9, 51, 0
4, 245623, Note_on_c, 9, 57, 0
4, 245636, Note_on_c, 9, 38, 0
4, 245636, End_track
5, 0, Start_track
5, 0, Control_c, 0, 7, 100
5, 0, End_track
6, 0, Start_track
6, 0, Control_c, 0, 7, 100
6, 0, End_track
0, 0, End_of_file
