0, 0, Header, 1, 3, 120
1, 0, Start_track
1, 0, Title_t, "untitled"
1, 0, Text_t, "Doug McK"
1, 0, Time_signature, 4, 2, 24, 8
1, 0, Key_signature, 0, "major"
1, 0, Tempo, 666667
1, 0, End_track
2, 0, Start_track
2, 0, Title_t, ""
2, 0, End_track
3, 0, Start_track
3, 0, Title_t, ""
3, 0, Note_on_c, 0, 55, 49
3, 19, Control_c, 0, 64, 127
3, 30, Note_on_c, 0, 64, 44
3, 31, Note_on_c, 0, 76, 85
3, 35, Note_on_c, 0, 60, 37
3, 114, Note_on_c, 0, 55, 0
3, 116, Note_on_c, 0, 64, 0
3, 117, Note_on_c, 0, 74, 40
3, 121, Note_on_c, 0, 60, 0
3, 130, Note_on_c, 0, 76, 0
3, 135, Note_on_c, 0, 72, 49
3, 147, Note_on_c, 0, 70, 55
3, 158, Note_on_c, 0, 74, 0
3, 159, Control_c, 0, 64, 0
3, 162, Note_on_c, 0, 72, 0
3, 167, Note_on_c, 0, 64, 33
3, 169, Note_on_c, 0, 60, 30
3, 169, Note_on_c, 0, 54, 35
3, 173, Note_on_c, 0, 68, 47
3, 179, Note_on_c, 0, 70, 0
3, 244, Control_c, 0, 64, 127
3, 283, Note_on_c, 0, 68, 0
3, 298, Note_on_c, 0, 64, 0
3, 298, Note_on_c, 0, 60, 0
3, 299, Note_on_c, 0, 54, 0
3, 452, Note_on_c, 0, 55, 70
3, 452, Note_on_c, 0, 64, 68
3, 453, Control_c, 0, 64, 0
3, 453, Note_on_c, 0, 76, 101
3, 455, Note_on_c, 0, 60, 62
3, 484, Control_c, 0, 64, 127
3, 528, Note_on_c, 0, 55, 0
3, 529, Note_on_c, 0, 75, 38
3, 531, Note_on_c, 0, 64, 0
3, 532, Note_on_c, 0, 60, 0
3, 536, Note_on_c, 0, 75, 0
3, 539, Note_on_c, 0, 74, 44
3, 553, Note_on_c, 0, 76, 0
3, 558, Note_on_c, 0, 72, 34
3, 572, Note_on_c, 0, 70, 60
3, 574, Control_c, 0, 64, 0
3, 580, Note_on_c, 0, 72, 0
3, 582, Note_on_c, 0, 74, 0
3, 586, Note_on_c, 0, 64, 38
3, 587, Note_on_c, 0, 60, 33
3, 588, Note_on_c, 0, 54, 33
3, 594, Note_on_c, 0, 68, 50
3, 609, Note_on_c, 0, 70, 0
3, 614, Control_c, 0, 64, 127
3, 631, Note_on_c, 0, 68, 0
3, 661, Note_on_c, 0, 68, 43
3, 672, Note_on_c, 0, 68, 0
3, 739, Note_on_c, 0, 92, 51
3, 739, Note_on_c, 0, 80, 36
3, 822, Note_on_c, 0, 92, 0
3, 828, Note_on_c, 0, 80, 0
3, 958, Note_on_c, 0, 54, 0
3, 971, Note_on_c, 0, 60, 0
3, 979, Note_on_c, 0, 64, 0
3, 1038, Control_c, 0, 64, 0
3, 1042, Note_on_c, 0, 55, 91
3, 1110, Note_on_c, 0, 64, 71
3, 1113, Note_on_c, 0, 60, 62
3, 1114, Note_on_c, 0, 76, 103
3, 1126, Control_c, 0, 64, 127
3, 1176, Note_on_c, 0, 74, 36
3, 1177, Note_on_c, 0, 55, 0
3, 1178, Note_on_c, 0, 64, 0
3, 1180, Note_on_c, 0, 60, 0
3, 1189, Note_on_c, 0, 76, 0
3, 1189, Note_on_c, 0, 72, 49
3, 1202, Note_on_c, 0, 70, 59
3, 1211, Note_on_c, 0, 74, 0
3, 1214, Note_on_c, 0, 72, 0
3, 1216, Control_c, 0, 64, 0
3, 1223, Note_on_c, 0, 64, 45
3, 1224, Note_on_c, 0, 54, 39
3, 1226, Note_on_c, 0, 60, 32
3, 1226, Note_on_c, 0, 68, 53
3, 1239, Note_on_c, 0, 70, 0
3, 1271, Control_c, 0, 64, 127
3, 1300, Note_on_c, 0, 68, 0
3, 1308, Note_on_c, 0, 60, 0
3, 1313, Note_on_c, 0, 54, 0
3, 1321, Note_on_c, 0, 64, 0
3, 1368, Control_c, 0, 64, 0
3, 1376, Note_on_c, 0, 55, 67
3, 1377, Note_on_c, 0, 76, 101
3, 1378, Note_on_c, 0, 64, 70
3, 1379, Note_on_c, 0, 60, 62
3, 1410, Control_c, 0, 64, 127
3, 1499, Note_on_c, 0, 64, 0
3, 1503, Note_on_c, 0, 60, 0
3, 1503, Note_on_c, 0, 55, 0
3, 1523, Note_on_c, 0, 74, 38
3, 1536, Note_on_c, 0, 76, 0
3, 1540, Note_on_c, 0, 72, 44
3, 1556, Note_on_c, 0, 70, 53
3, 1565, Note_on_c, 0, 74, 0
3, 1570, Note_on_c, 0, 72, 0
3, 1576, Control_c, 0, 64, 0
3, 1585, Note_on_c, 0, 68, 40
3, 1585, Note_on_c, 0, 54, 34
3, 1587, Note_on_c, 0, 64, 36
3, 1589, Note_on_c, 0, 60, 34
3, 1593, Note_on_c, 0, 70, 0
3, 1621, Control_c, 0, 64, 127
3, 1654, Note_on_c, 0, 68, 0
3, 1675, Note_on_c, 0, 68, 27
3, 1805, Note_on_c, 0, 64, 0
3, 1805, Note_on_c, 0, 60, 0
3, 1819, Note_on_c, 0, 54, 0
3, 1910, Note_on_c, 0, 68, 0
3, 2126, Note_on_c, 0, 67, 48
3, 2131, Note_on_c, 0, 36, 44
3, 2131, Note_on_c, 0, 62, 36
3, 2132, Note_on_c, 0, 59, 33
3, 2132, Note_on_c, 0, 57, 36
3, 2143, Control_c, 0, 64, 0
3, 2197, Note_on_c, 0, 43, 43
3, 2201, Note_on_c, 0, 57, 0
3, 2204, Note_on_c, 0, 59, 0
3, 2206, Note_on_c, 0, 62, 0
3, 2208, Control_c, 0, 64, 127
3, 2279, Note_on_c, 0, 67, 0
3, 2282, Note_on_c, 0, 62, 38
3, 2288, Note_on_c, 0, 57, 34
3, 2288, Note_on_c, 0, 59, 31
3, 2289, Note_on_c, 0, 52, 26
3, 2378, Note_on_c, 0, 57, 0
3, 2382, Note_on_c, 0, 59, 0
3, 2433, Note_on_c, 0, 62, 0
3, 2434, Note_on_c, 0, 36, 0
3, 2445, Note_on_c, 0, 43, 0
3, 2468, Note_on_c, 0, 52, 0
3, 2738, Note_on_c, 0, 64, 82
3, 2738, Note_on_c, 0, 88, 95
3, 2822, Note_on_c, 0, 88, 0
3, 2885, Note_on_c, 0, 64, 0
3, 3147, Note_on_c, 0, 62, 38
3, 3148, Control_c, 0, 64, 0
3, 3148, Note_on_c, 0, 67, 41
3, 3149, Note_on_c, 0, 64, 53
3, 3149, Note_on_c, 0, 56, 33
3, 3157, Note_on_c, 0, 52, 16
3, 3189, Control_c, 0, 64, 127
3, 3210, Note_on_c, 0, 62, 0
3, 3211, Note_on_c, 0, 64, 0
3, 3214, Note_on_c, 0, 52, 0
3, 3214, Note_on_c, 0, 67, 0
3, 3236, Note_on_c, 0, 56, 0
3, 3257, Note_on_c, 0, 61, 48
3, 3258, Note_on_c, 0, 65, 48
3, 3259, Note_on_c, 0, 72, 49
3, 3260, Control_c, 0, 64, 0
3, 3260, Note_on_c, 0, 69, 54
3, 3261, Note_on_c, 0, 55, 51
3, 3292, Control_c, 0, 64, 127
3, 3299, Note_on_c, 0, 55, 0
3, 3299, Note_on_c, 0, 69, 0
3, 3304, Note_on_c, 0, 72, 0
3, 3306, Note_on_c, 0, 65, 0
3, 3310, Note_on_c, 0, 61, 0
3, 3371, Note_on_c, 0, 76, 39
3, 3372, Control_c, 0, 64, 0
3, 3373, Note_on_c, 0, 60, 38
3, 3374, Note_on_c, 0, 71, 41
3, 3374, Note_on_c, 0, 64, 36
3, 3375, Note_on_c, 0, 54, 32
3, 3376, Note_on_c, 0, 68, 33
3, 3376, Note_on_c, 0, 50, 34
3, 3440, Control_c, 0, 64, 127
3, 3519, Note_on_c, 0, 68, 0
3, 3547, Note_on_c, 0, 68, 25
3, 3558, Note_on_c, 0, 50, 0
3, 3566, Note_on_c, 0, 60, 0
3, 3568, Note_on_c, 0, 54, 0
3, 3595, Note_on_c, 0, 64, 0
3, 3627, Note_on_c, 0, 76, 0
3, 3627, Note_on_c, 0, 71, 0
3, 3640, Note_on_c, 0, 68, 0
3, 3728, Note_on_c, 0, 66, 34
3, 3729, Note_on_c, 0, 72, 55
3, 3729, Note_on_c, 0, 61, 37
3, 3730, Note_on_c, 0, 55, 37
3, 3738, Control_c, 0, 64, 0
3, 3761, Note_on_c, 0, 72, 0
3, 3765, Note_on_c, 0, 73, 34
3, 3777, Note_on_c, 0, 73, 0
3, 3802, Note_on_c, 0, 76, 22
3, 3814, Note_on_c, 0, 76, 0
3, 3829, Note_on_c, 0, 82, 63
3, 3849, Note_on_c, 0, 82, 0
3, 3863, Note_on_c, 0, 84, 68
3, 3886, Note_on_c, 0, 84, 0
3, 3898, Note_on_c, 0, 86, 64
3, 3918, Note_on_c, 0, 86, 0
3, 3982, Note_on_c, 0, 55, 0
3, 3996, Note_on_c, 0, 66, 0
3, 4010, Note_on_c, 0, 61, 0
3, 4020, Note_on_c, 0, 54, 52
3, 4029, Control_c, 0, 64, 127
3, 4078, Note_on_c, 0, 76, 28
3, 4078, Note_on_c, 0, 83, 36
3, 4079, Note_on_c, 0, 65, 36
3, 4080, Note_on_c, 0, 60, 33
3, 4080, Note_on_c, 0, 80, 27
3, 4120, Note_on_c, 0, 65, 0
3, 4121, Note_on_c, 0, 83, 0
3, 4122, Note_on_c, 0, 76, 0
3, 4124, Note_on_c, 0, 60, 0
3, 4129, Note_on_c, 0, 86, 51
3, 4131, Note_on_c, 0, 80, 0
3, 4138, Note_on_c, 0, 54, 0
3, 4140, Note_on_c, 0, 86, 0
3, 4173, Note_on_c, 0, 50, 40
3, 4223, Note_on_c, 0, 68, 34
3, 4224, Note_on_c, 0, 59, 50
3, 4225, Note_on_c, 0, 64, 54
3, 4225, Note_on_c, 0, 60, 37
3, 4242, Control_c, 0, 64, 0
3, 4269, Note_on_c, 0, 59, 0
3, 4275, Note_on_c, 0, 58, 32
3, 4286, Note_on_c, 0, 58, 0
3, 4295, Note_on_c, 0, 57, 51
3, 4317, Note_on_c, 0, 57, 0
3, 4324, Note_on_c, 0, 56, 23
3, 4346, Note_on_c, 0, 56, 0
3, 4352, Note_on_c, 0, 55, 36
3, 4385, Note_on_c, 0, 55, 0
3, 4385, Note_on_c, 0, 54, 38
3, 4437, Control_c, 0, 64, 127
3, 4495, Note_on_c, 0, 60, 0
3, 4526, Note_on_c, 0, 64, 0
3, 4532, Note_on_c, 0, 60, 34
3, 4578, Note_on_c, 0, 60, 0
3, 4606, Note_on_c, 0, 68, 0
3, 4626, Note_on_c, 0, 50, 0
3, 4648, Note_on_c, 0, 54, 0
3, 4663, Note_on_c, 0, 69, 91
3, 4663, Note_on_c, 0, 65, 99
3, 4666, Note_on_c, 0, 64, 84
3, 4673, Control_c, 0, 64, 0
3, 4700, Note_on_c, 0, 63, 57
3, 4703, Note_on_c, 0, 64, 0
3, 4736, Note_on_c, 0, 63, 0
3, 4736, Note_on_c, 0, 62, 57
3, 4774, Note_on_c, 0, 62, 0
3, 4775, Note_on_c, 0, 61, 54
3, 4812, Note_on_c, 0, 61, 0
3, 4822, Note_on_c, 0, 60, 50
3, 4845, Control_c, 0, 64, 127
3, 4860, Note_on_c, 0, 60, 0
3, 4878, Note_on_c, 0, 57, 52
3, 4932, Note_on_c, 0, 57, 0
3, 4934, Note_on_c, 0, 53, 49
3, 4946, Note_on_c, 0, 53, 0
3, 5015, Note_on_c, 0, 50, 54
3, 5033, Note_on_c, 0, 50, 0
3, 5095, Note_on_c, 0, 65, 0
3, 5107, Note_on_c, 0, 69, 0
3, 5114, Control_c, 0, 64, 0
3, 5115, Note_on_c, 0, 31, 78
3, 5115, Note_on_c, 0, 43, 79
3, 5134, Control_c, 0, 64, 127
3, 5146, Note_on_c, 0, 31, 0
3, 5158, Note_on_c, 0, 43, 0
3, 5319, Note_on_c, 0, 69, 51
3, 5319, Note_on_c, 0, 65, 55
3, 5320, Note_on_c, 0, 60, 47
3, 5320, Note_on_c, 0, 53, 36
3, 5347, Note_on_c, 0, 60, 0
3, 5362, Note_on_c, 0, 69, 0
3, 5366, Note_on_c, 0, 65, 0
3, 5377, Note_on_c, 0, 70, 60
3, 5378, Note_on_c, 0, 61, 49
3, 5381, Note_on_c, 0, 66, 45
3, 5382, Note_on_c, 0, 54, 54
3, 5385, Note_on_c, 0, 53, 0
3, 5419, Note_on_c, 0, 66, 0
3, 5419, Note_on_c, 0, 70, 0
3, 5425, Note_on_c, 0, 61, 0
3, 5433, Control_c, 0, 64, 0
3, 5439, Note_on_c, 0, 62, 68
3, 5439, Note_on_c, 0, 55, 60
3, 5440, Note_on_c, 0, 67, 53
3, 5440, Note_on_c, 0, 71, 60
3, 5441, Note_on_c, 0, 54, 0
3, 5453, Note_on_c, 0, 69, 18
3, 5457, Note_on_c, 0, 62, 0
3, 5459, Note_on_c, 0, 67, 0
3, 5460, Control_c, 0, 64, 127
3, 5462, Note_on_c, 0, 69, 0
3, 5464, Note_on_c, 0, 71, 0
3, 5515, Note_on_c, 0, 76, 68
3, 5517, Note_on_c, 0, 55, 0
3, 5518, Note_on_c, 0, 65, 45
3, 5519, Note_on_c, 0, 71, 64
3, 5520, Note_on_c, 0, 56, 48
3, 5522, Control_c, 0, 64, 0
3, 5523, Note_on_c, 0, 74, 34
3, 5532, Note_on_c, 0, 74, 0
3, 5533, Control_c, 0, 64, 127
3, 5538, Note_on_c, 0, 71, 0
3, 5538, Note_on_c, 0, 76, 0
3, 5542, Note_on_c, 0, 65, 0
3, 5542, Note_on_c, 0, 56, 0
3, 5599, Note_on_c, 0, 67, 48
3, 5600, Note_on_c, 0, 63, 43
3, 5600, Note_on_c, 0, 59, 45
3, 5604, Note_on_c, 0, 53, 46
3, 5606, Control_c, 0, 64, 0
3, 5628, Control_c, 0, 64, 127
3, 5656, Note_on_c, 0, 59, 0
3, 5661, Note_on_c, 0, 67, 0
3, 5663, Note_on_c, 0, 63, 0
3, 5675, Control_c, 0, 64, 0
3, 5678, Note_on_c, 0, 66, 48
3, 5678, Note_on_c, 0, 59, 35
3, 5679, Note_on_c, 0, 43, 34
3, 5684, Note_on_c, 0, 62, 40
3, 5691, Note_on_c, 0, 53, 0
3, 5700, Control_c, 0, 64, 127
3, 5702, Note_on_c, 0, 62, 0
3, 5704, Note_on_c, 0, 66, 0
3, 5710, Note_on_c, 0, 59, 0
3, 5764, Control_c, 0, 64, 0
3, 5764, Note_on_c, 0, 56, 32
3, 5766, Note_on_c, 0, 65, 44
3, 5767, Note_on_c, 0, 62, 31
3, 5768, Note_on_c, 0, 59, 38
3, 5768, Note_on_c, 0, 53, 35
3, 5785, Control_c, 0, 64, 127
3, 5801, Note_on_c, 0, 59, 0
3, 5811, Note_on_c, 0, 56, 0
3, 5812, Note_on_c, 0, 62, 0
3, 5820, Note_on_c, 0, 43, 0
3, 5822, Note_on_c, 0, 65, 0
3, 5836, Note_on_c, 0, 53, 0
3, 6004, Note_on_c, 0, 73, 42
3, 6007, Note_on_c, 0, 64, 43
3, 6007, Note_on_c, 0, 59, 37
3, 6008, Note_on_c, 0, 69, 50
3, 6012, Note_on_c, 0, 53, 28
3, 6123, Note_on_c, 0, 69, 0
3, 6123, Note_on_c, 0, 59, 0
3, 6126, Note_on_c, 0, 53, 0
3, 6136, Note_on_c, 0, 64, 0
3, 6137, Note_on_c, 0, 73, 0
3, 6185, Note_on_c, 0, 62, 50
3, 6188, Note_on_c, 0, 72, 40
3, 6189, Note_on_c, 0, 67, 37
3, 6190, Note_on_c, 0, 52, 35
3, 6191, Control_c, 0, 64, 0
3, 6192, Note_on_c, 0, 57, 34
3, 6260, Control_c, 0, 64, 127
3, 6389, Note_on_c, 0, 72, 0
3, 6409, Note_on_c, 0, 57, 0
3, 6417, Note_on_c, 0, 52, 0
3, 6442, Note_on_c, 0, 72, 56
3, 6452, Note_on_c, 0, 62, 0
3, 6457, Note_on_c, 0, 67, 0
3, 6478, Note_on_c, 0, 72, 0
3, 6553, Note_on_c, 0, 39, 48
3, 6554, Control_c, 0, 64, 0
3, 6558, Note_on_c, 0, 54, 49
3, 6558, Note_on_c, 0, 72, 75
3, 6560, Note_on_c, 0, 61, 59
3, 6560, Note_on_c, 0, 66, 60
3, 6581, Control_c, 0, 64, 127
3, 6582, Note_on_c, 0, 39, 0
3, 6625, Note_on_c, 0, 72, 0
3, 6639, Note_on_c, 0, 70, 60
3, 6662, Note_on_c, 0, 54, 0
3, 6679, Note_on_c, 0, 66, 0
3, 6693, Note_on_c, 0, 61, 0
3, 6693, Note_on_c, 0, 70, 0
3, 6741, Note_on_c, 0, 70, 53
3, 6744, Control_c, 0, 64, 0
3, 6744, Note_on_c, 0, 61, 34
3, 6745, Note_on_c, 0, 54, 29
3, 6745, Note_on_c, 0, 65, 53
3, 6747, Note_on_c, 0, 44, 31
3, 6798, Control_c, 0, 64, 127
3, 6826, Note_on_c, 0, 70, 0
3, 6863, Note_on_c, 0, 68, 57
3, 6911, Note_on_c, 0, 65, 0
3, 6915, Note_on_c, 0, 54, 0
3, 6916, Note_on_c, 0, 44, 0
3, 6989, Note_on_c, 0, 61, 0
3, 6996, Note_on_c, 0, 68, 0
3, 7024, Note_on_c, 0, 66, 19
3, 7030, Note_on_c, 0, 66, 0
3, 7115, Note_on_c, 0, 67, 50
3, 7117, Note_on_c, 0, 60, 51
3, 7119, Control_c, 0, 64, 0
3, 7120, Note_on_c, 0, 55, 47
3, 7120, Note_on_c, 0, 57, 35
3, 7177, Note_on_c, 0, 67, 0
3, 7183, Note_on_c, 0, 65, 55
3, 7184, Note_on_c, 0, 43, 44
3, 7197, Control_c, 0, 64, 127
3, 7223, Note_on_c, 0, 60, 0
3, 7223, Note_on_c, 0, 55, 0
3, 7227, Note_on_c, 0, 57, 0
3, 7235, Note_on_c, 0, 65, 0
3, 7261, Note_on_c, 0, 65, 40
3, 7263, Note_on_c, 0, 57, 33
3, 7266, Note_on_c, 0, 55, 34
3, 7268, Note_on_c, 0, 60, 27
3, 7277, Note_on_c, 0, 60, 0
3, 7310, Note_on_c, 0, 43, 0
3, 7342, Note_on_c, 0, 60, 34
3, 7343, Note_on_c, 0, 43, 32
3, 7359, Note_on_c, 0, 55, 0
3, 7365, Note_on_c, 0, 57, 0
3, 7370, Note_on_c, 0, 65, 0
3, 7384, Note_on_c, 0, 60, 0
3, 7433, Note_on_c, 0, 63, 39
3, 7439, Note_on_c, 0, 56, 18
3, 7442, Note_on_c, 0, 59, 29
3, 7444, Control_c, 0, 64, 0
3, 7446, Note_on_c, 0, 53, 17
3, 7495, Note_on_c, 0, 43, 0
3, 7533, Note_on_c, 0, 65, 45
3, 7534, Note_on_c, 0, 43, 29
3, 7536, Control_c, 0, 64, 127
3, 7571, Note_on_c, 0, 65, 0
3, 7573, Note_on_c, 0, 59, 0
3, 7573, Note_on_c, 0, 53, 0
3, 7585, Note_on_c, 0, 56, 0
3, 7604, Note_on_c, 0, 63, 0
3, 7649, Note_on_c, 0, 67, 27
3, 7651, Note_on_c, 0, 59, 26
3, 7652, Note_on_c, 0, 63, 27
3, 7653, Control_c, 0, 64, 0
3, 7654, Note_on_c, 0, 53, 24
3, 7654, Note_on_c, 0, 61, 32
3, 7686, Control_c, 0, 64, 127
3, 7767, Note_on_c, 0, 67, 0
3, 7831, Note_on_c, 0, 63, 0
3, 7835, Note_on_c, 0, 61, 0
3, 7866, Note_on_c, 0, 59, 0
3, 8034, Note_on_c, 0, 53, 0
3, 8036, Note_on_c, 0, 74, 45
3, 8037, Note_on_c, 0, 43, 0
3, 8091, Note_on_c, 0, 74, 0
3, 8221, Note_on_c, 0, 67, 41
3, 8224, Control_c, 0, 64, 0
3, 8226, Note_on_c, 0, 62, 35
3, 8228, Note_on_c, 0, 59, 26
3, 8230, Note_on_c, 0, 43, 17
3, 8233, Note_on_c, 0, 36, 35
3, 8234, Note_on_c, 0, 52, 31
3, 8264, Control_c, 0, 64, 127
3, 8287, Note_on_c, 0, 59, 0
3, 8295, Note_on_c, 0, 62, 0
3, 8304, Note_on_c, 0, 67, 0
3, 8319, Note_on_c, 0, 36, 0
3, 8330, Note_on_c, 0, 43, 0
3, 8346, Note_on_c, 0, 52, 0
3, 8433, Note_on_c, 0, 83, 81
3, 8466, Note_on_c, 0, 83, 0
3, 8476, Note_on_c, 0, 79, 54
3, 8477, Note_on_c, 0, 76, 44
3, 8481, Note_on_c, 0, 71, 42
3, 8481, Note_on_c, 0, 64, 48
3, 8527, Note_on_c, 0, 79, 0
3, 8531, Note_on_c, 0, 76, 0
3, 8542, Note_on_c, 0, 71, 0
3, 8571, Note_on_c, 0, 64, 0
3, 8589, Note_on_c, 0, 76, 55
3, 8607, Note_on_c, 0, 76, 0
3, 8644, Note_on_c, 0, 64, 44
3, 8646, Note_on_c, 0, 67, 40
3, 8648, Note_on_c, 0, 57, 35
3, 8709, Note_on_c, 0, 67, 0
3, 8722, Note_on_c, 0, 64, 0
3, 8723, Note_on_c, 0, 57, 0
3, 8754, Note_on_c, 0, 67, 54
3, 8809, Note_on_c, 0, 67, 0
3, 8820, Note_on_c, 0, 62, 40
3, 8822, Note_on_c, 0, 57, 38
3, 8826, Note_on_c, 0, 59, 36
3, 8903, Note_on_c, 0, 57, 0
3, 8906, Note_on_c, 0, 59, 0
3, 8987, Note_on_c, 0, 36, 42
3, 8987, Note_on_c, 0, 43, 31
3, 9082, Note_on_c, 0, 62, 0
3, 9174, Note_on_c, 0, 36, 0
3, 9190, Note_on_c, 0, 43, 0
3, 9257, Note_on_c, 0, 76, 77
3, 9274, Note_on_c, 0, 76, 0
3, 9309, Note_on_c, 0, 62, 43
3, 9310, Note_on_c, 0, 64, 46
3, 9311, Control_c, 0, 64, 0
3, 9311, Note_on_c, 0, 67, 49
3, 9311, Note_on_c, 0, 56, 36
3, 9316, Note_on_c, 0, 52, 39
3, 9350, Control_c, 0, 64, 127
3, 9394, Note_on_c, 0, 64, 0
3, 9396, Note_on_c, 0, 62, 0
3, 9411, Note_on_c, 0, 56, 0
3, 9412, Note_on_c, 0, 52, 0
3, 9416, Note_on_c, 0, 67, 0
3, 9472, Note_on_c, 0, 61, 36
3, 9475, Control_c, 0, 64, 0
3, 9476, Note_on_c, 0, 72, 36
3, 9476, Note_on_c, 0, 65, 33
3, 9478, Note_on_c, 0, 69, 39
3, 9480, Note_on_c, 0, 55, 39
3, 9515, Control_c, 0, 64, 127
3, 9540, Note_on_c, 0, 55, 0
3, 9544, Note_on_c, 0, 72, 0
3, 9545, Note_on_c, 0, 65, 0
3, 9546, Note_on_c, 0, 69, 0
3, 9552, Note_on_c, 0, 61, 0
3, 9637, Control_c, 0, 64, 0
3, 9638, Note_on_c, 0, 76, 44
3, 9640, Note_on_c, 0, 68, 36
3, 9640, Note_on_c, 0, 60, 37
3, 9641, Note_on_c, 0, 64, 45
3, 9641, Note_on_c, 0, 71, 43
3, 9643, Note_on_c, 0, 54, 25
3, 9651, Note_on_c, 0, 64, 0
3, 9652, Note_on_c, 0, 68, 0
3, 9655, Note_on_c, 0, 60, 0
3, 9656, Note_on_c, 0, 76, 0
3, 9656, Note_on_c, 0, 71, 0
3, 9660, Note_on_c, 0, 54, 0
3, 9742, Control_c, 0, 64, 127
3, 9743, Note_on_c, 0, 64, 30
3, 9744, Note_on_c, 0, 68, 43
3, 9744, Note_on_c, 0, 60, 32
3, 9746, Note_on_c, 0, 54, 26
3, 9767, Note_on_c, 0, 68, 0
3, 9770, Note_on_c, 0, 60, 0
3, 9771, Note_on_c, 0, 64, 0
3, 9774, Note_on_c, 0, 54, 0
3, 9796, Control_c, 0, 64, 0
3, 9803, Note_on_c, 0, 64, 33
3, 9803, Note_on_c, 0, 60, 35
3, 9804, Note_on_c, 0, 68, 29
3, 9806, Note_on_c, 0, 54, 30
3, 9815, Note_on_c, 0, 68, 0
3, 9815, Note_on_c, 0, 64, 0
3, 9817, Note_on_c, 0, 60, 0
3, 9822, Note_on_c, 0, 54, 0
3, 9890, Control_c, 0, 64, 127
3, 9902, Note_on_c, 0, 68, 37
3, 9903, Note_on_c, 0, 60, 38
3, 9903, Note_on_c, 0, 54, 31
3, 9904, Note_on_c, 0, 64, 36
3, 9912, Note_on_c, 0, 60, 0
3, 9915, Note_on_c, 0, 64, 0
3, 9919, Note_on_c, 0, 68, 0
3, 9922, Note_on_c, 0, 54, 0
3, 9957, Note_on_c, 0, 68, 35
3, 9960, Note_on_c, 0, 64, 26
3, 9961, Note_on_c, 0, 60, 44
3, 9961, Note_on_c, 0, 54, 33
3, 9966, Note_on_c, 0, 64, 0
3, 9970, Note_on_c, 0, 68, 0
3, 10020, Note_on_c, 0, 83, 80
3, 10036, Control_c, 0, 64, 0
3, 10055, Note_on_c, 0, 82, 59
3, 10064, Note_on_c, 0, 83, 0
3, 10065, Note_on_c, 0, 82, 0
3, 10072, Note_on_c, 0, 81, 33
3, 10093, Note_on_c, 0, 81, 0
3, 10096, Note_on_c, 0, 80, 38
3, 10114, Note_on_c, 0, 80, 0
3, 10119, Note_on_c, 0, 60, 0
3, 10121, Note_on_c, 0, 54, 0
3, 10229, Note_on_c, 0, 76, 68
3, 10244, Note_on_c, 0, 75, 60
3, 10247, Note_on_c, 0, 76, 0
3, 10264, Note_on_c, 0, 74, 56
3, 10275, Note_on_c, 0, 75, 0
3, 10279, Note_on_c, 0, 74, 0
3, 10319, Note_on_c, 0, 71, 49
3, 10332, Note_on_c, 0, 70, 52
3, 10337, Note_on_c, 0, 71, 0
3, 10351, Note_on_c, 0, 69, 59
3, 10354, Note_on_c, 0, 70, 0
3, 10367, Note_on_c, 0, 69, 0
3, 10370, Note_on_c, 0, 68, 62
3, 10389, Note_on_c, 0, 68, 0
3, 10532, Note_on_c, 0, 38, 40
3, 10544, Control_c, 0, 64, 127
3, 10562, Note_on_c, 0, 38, 0
3, 10590, Note_on_c, 0, 65, 41
3, 10593, Note_on_c, 0, 54, 27
3, 10594, Note_on_c, 0, 60, 57
3, 10596, Note_on_c, 0, 50, 38
3, 10685, Note_on_c, 0, 60, 0
3, 10700, Note_on_c, 0, 54, 0
3, 10711, Note_on_c, 0, 65, 0
3, 10735, Note_on_c, 0, 50, 0
3, 10742, Note_on_c, 0, 62, 27
3, 10743, Note_on_c, 0, 54, 21
3, 10748, Note_on_c, 0, 60, 35
3, 10748, Note_on_c, 0, 45, 33
3, 10751, Control_c, 0, 64, 0
3, 10782, Control_c, 0, 64, 127
3, 10808, Note_on_c, 0, 62, 0
3, 10817, Note_on_c, 0, 60, 0
3, 10826, Note_on_c, 0, 54, 0
3, 10844, Note_on_c, 0, 39, 35
3, 10851, Note_on_c, 0, 45, 0
3, 10871, Note_on_c, 0, 39, 0
3, 10885, Control_c, 0, 64, 0
3, 10899, Note_on_c, 0, 60, 45
3, 10901, Note_on_c, 0, 38, 39
3, 10904, Note_on_c, 0, 48, 26
3, 10904, Note_on_c, 0, 53, 18
3, 10907, Note_on_c, 0, 57, 24
3, 10915, Control_c, 0, 64, 127
3, 10940, Note_on_c, 0, 38, 0
3, 10942, Note_on_c, 0, 53, 0
3, 10954, Note_on_c, 0, 48, 0
3, 10958, Note_on_c, 0, 57, 0
3, 10975, Note_on_c, 0, 60, 0
3, 11059, Note_on_c, 0, 73, 51
3, 11061, Note_on_c, 0, 70, 62
3, 11061, Note_on_c, 0, 61, 59
3, 11064, Note_on_c, 0, 67, 62
3, 11079, Note_on_c, 0, 67, 0
3, 11093, Note_on_c, 0, 70, 0
3, 11096, Note_on_c, 0, 73, 0
3, 11100, Note_on_c, 0, 76, 59
3, 11104, Note_on_c, 0, 73, 32
3, 11104, Note_on_c, 0, 70, 51
3, 11105, Note_on_c, 0, 64, 74
3, 11105, Note_on_c, 0, 67, 56
3, 11108, Note_on_c, 0, 61, 0
3, 11138, Note_on_c, 0, 67, 0
3, 11142, Note_on_c, 0, 70, 0
3, 11142, Note_on_c, 0, 76, 0
3, 11146, Note_on_c, 0, 64, 0
3, 11150, Note_on_c, 0, 73, 0
3, 11192, Control_c, 0, 64, 0
3, 11195, Note_on_c, 0, 74, 64
3, 11196, Note_on_c, 0, 62, 56
3, 11198, Note_on_c, 0, 69, 56
3, 11199, Note_on_c, 0, 65, 49
3, 11206, Note_on_c, 0, 69, 0
3, 11208, Note_on_c, 0, 65, 0
3, 11214, Note_on_c, 0, 74, 0
3, 11217, Note_on_c, 0, 62, 0
3, 11250, Note_on_c, 0, 69, 47
3, 11253, Note_on_c, 0, 62, 33
3, 11254, Note_on_c, 0, 57, 53
3, 11255, Note_on_c, 0, 65, 50
3, 11264, Note_on_c, 0, 65, 0
3, 11279, Note_on_c, 0, 62, 0
3, 11290, Note_on_c, 0, 57, 0
3, 11292, Note_on_c, 0, 72, 61
3, 11293, Control_c, 0, 64, 127
3, 11294, Note_on_c, 0, 60, 63
3, 11295, Note_on_c, 0, 62, 46
3, 11296, Note_on_c, 0, 65, 59
3, 11310, Note_on_c, 0, 69, 0
3, 11311, Note_on_c, 0, 65, 0
3, 11314, Note_on_c, 0, 72, 0
3, 11322, Note_on_c, 0, 62, 0
3, 11330, Note_on_c, 0, 60, 0
3, 11344, Note_on_c, 0, 57, 53
3, 11345, Note_on_c, 0, 65, 58
3, 11345, Note_on_c, 0, 69, 46
3, 11346, Note_on_c, 0, 60, 53
3, 11372, Note_on_c, 0, 65, 0
3, 11374, Note_on_c, 0, 69, 0
3, 11381, Note_on_c, 0, 60, 0
3, 11390, Note_on_c, 0, 57, 0
3, 11435, Note_on_c, 0, 53, 46
3, 11441, Note_on_c, 0, 53, 0
3, 11486, Note_on_c, 0, 63, 52
3, 11487, Note_on_c, 0, 59, 62
3, 11487, Note_on_c, 0, 67, 57
3, 11490, Control_c, 0, 64, 0
3, 11491, Note_on_c, 0, 53, 38
3, 11493, Note_on_c, 0, 43, 31
3, 11509, Note_on_c, 0, 63, 0
3, 11511, Note_on_c, 0, 64, 44
3, 11528, Control_c, 0, 64, 127
3, 11579, Note_on_c, 0, 53, 0
3, 11602, Note_on_c, 0, 59, 0
3, 11613, Note_on_c, 0, 64, 0
3, 11633, Note_on_c, 0, 59, 29
3, 11635, Note_on_c, 0, 63, 34
3, 11638, Control_c, 0, 64, 0
3, 11641, Note_on_c, 0, 54, 25
3, 11649, Control_c, 0, 64, 127
3, 11700, Note_on_c, 0, 54, 0
3, 11709, Note_on_c, 0, 59, 0
3, 11720, Note_on_c, 0, 63, 0
3, 11732, Note_on_c, 0, 59, 18
3, 11735, Note_on_c, 0, 62, 31
3, 11737, Control_c, 0, 64, 0
3, 11738, Note_on_c, 0, 53, 35
3, 11770, Control_c, 0, 64, 127
3, 11774, Note_on_c, 0, 59, 0
3, 11785, Note_on_c, 0, 62, 0
3, 11793, Note_on_c, 0, 43, 0
3, 11793, Note_on_c, 0, 67, 0
3, 11812, Note_on_c, 0, 53, 0
3, 12033, Note_on_c, 0, 43, 34
3, 12075, Control_c, 0, 64, 0
3, 12081, Note_on_c, 0, 64, 46
3, 12081, Note_on_c, 0, 52, 40
3, 12082, Note_on_c, 0, 62, 31
3, 12082, Note_on_c, 0, 57, 28
3, 12084, Note_on_c, 0, 59, 35
3, 12105, Control_c, 0, 64, 127
3, 12128, Note_on_c, 0, 59, 0
3, 12138, Note_on_c, 0, 43, 0
3, 12180, Note_on_c, 0, 43, 68
3, 12196, Note_on_c, 0, 62, 0
3, 12198, Note_on_c, 0, 57, 0
3, 12200, Note_on_c, 0, 52, 0
3, 12202, Note_on_c, 0, 64, 0
3, 12213, Note_on_c, 0, 43, 0
3, 12462, Note_on_c, 0, 67, 59
3, 12462, Note_on_c, 0, 62, 60
3, 12463, Note_on_c, 0, 57, 49
3, 12465, Note_on_c, 0, 52, 40
3, 12470, Note_on_c, 0, 57, 0
3, 12473, Note_on_c, 0, 52, 0
3, 12476, Note_on_c, 0, 62, 0
3, 12480, Note_on_c, 0, 67, 0
3, 12523, Note_on_c, 0, 60, 81
3, 12523, Note_on_c, 0, 72, 74
3, 12524, Note_on_c, 0, 67, 80
3, 12524, Note_on_c, 0, 62, 74
3, 12526, Control_c, 0, 64, 0
3, 12546, Control_c, 0, 64, 127
3, 12591, Note_on_c, 0, 72, 0
3, 12592, Note_on_c, 0, 62, 0
3, 12593, Note_on_c, 0, 67, 0
3, 12597, Note_on_c, 0, 60, 0
3, 12615, Note_on_c, 0, 72, 51
3, 12615, Note_on_c, 0, 60, 58
3, 12616, Note_on_c, 0, 67, 52
3, 12617, Note_on_c, 0, 62, 55
3, 12629, Note_on_c, 0, 67, 0
3, 12630, Note_on_c, 0, 72, 0
3, 12630, Note_on_c, 0, 60, 0
3, 12638, Note_on_c, 0, 62, 0
3, 12667, Note_on_c, 0, 70, 47
3, 12672, Control_c, 0, 64, 0
3, 12673, Note_on_c, 0, 70, 0
3, 12675, Note_on_c, 0, 69, 56
3, 12676, Note_on_c, 0, 58, 63
3, 12677, Note_on_c, 0, 62, 56
3, 12677, Note_on_c, 0, 57, 57
3, 12678, Note_on_c, 0, 64, 51
3, 12696, Note_on_c, 0, 58, 0
3, 12700, Note_on_c, 0, 62, 0
3, 12701, Note_on_c, 0, 69, 0
3, 12702, Note_on_c, 0, 64, 0
3, 12709, Note_on_c, 0, 57, 0
3, 12744, Control_c, 0, 64, 127
3, 12764, Note_on_c, 0, 57, 50
3, 12765, Note_on_c, 0, 69, 49
3, 12765, Note_on_c, 0, 58, 43
3, 12766, Note_on_c, 0, 62, 50
3, 12769, Note_on_c, 0, 64, 48
3, 12778, Note_on_c, 0, 64, 0
3, 12790, Note_on_c, 0, 62, 0
3, 12794, Note_on_c, 0, 58, 0
3, 12797, Note_on_c, 0, 69, 0
3, 12800, Control_c, 0, 64, 0
3, 12808, Note_on_c, 0, 57, 0
3, 12815, Note_on_c, 0, 58, 46
3, 12818, Note_on_c, 0, 67, 36
3, 12819, Note_on_c, 0, 62, 36
3, 12820, Control_c, 0, 64, 127
3, 12820, Note_on_c, 0, 64, 45
3, 12823, Note_on_c, 0, 55, 42
3, 12851, Note_on_c, 0, 55, 0
3, 12852, Note_on_c, 0, 67, 0
3, 12857, Note_on_c, 0, 64, 0
3, 12857, Note_on_c, 0, 62, 0
3, 12863, Note_on_c, 0, 58, 0
3, 12959, Note_on_c, 0, 61, 35
3, 12962, Note_on_c, 0, 42, 36
3, 12963, Note_on_c, 0, 58, 30
3, 12963, Note_on_c, 0, 56, 32
3, 12965, Control_c, 0, 64, 0
3, 12965, Note_on_c, 0, 49, 27
3, 12965, Note_on_c, 0, 52, 22
3, 12995, Control_c, 0, 64, 127
3, 13033, Note_on_c, 0, 52, 0
3, 13059, Note_on_c, 0, 61, 0
3, 13062, Note_on_c, 0, 56, 0
3, 13067, Note_on_c, 0, 42, 0
3, 13069, Note_on_c, 0, 58, 0
3, 13079, Note_on_c, 0, 49, 0
3, 13199, Note_on_c, 0, 73, 55
3, 13200, Note_on_c, 0, 68, 70
3, 13200, Note_on_c, 0, 70, 62
3, 13202, Note_on_c, 0, 64, 55
3, 13238, Note_on_c, 0, 64, 0
3, 13246, Note_on_c, 0, 73, 0
3, 13248, Control_c, 0, 64, 0
3, 13251, Note_on_c, 0, 68, 0
3, 13252, Note_on_c, 0, 70, 0
3, 13260, Note_on_c, 0, 41, 40
3, 13260, Note_on_c, 0, 72, 64
3, 13261, Note_on_c, 0, 67, 58
3, 13262, Note_on_c, 0, 62, 49
3, 13264, Note_on_c, 0, 57, 32
3, 13275, Control_c, 0, 64, 127
3, 13276, Note_on_c, 0, 62, 0
3, 13297, Note_on_c, 0, 67, 0
3, 13306, Note_on_c, 0, 72, 0
3, 13310, Note_on_c, 0, 57, 0
3, 13312, Note_on_c, 0, 48, 55
3, 13339, Note_on_c, 0, 41, 0
3, 13347, Note_on_c, 0, 48, 0
3, 13352, Note_on_c, 0, 57, 69
3, 13365, Note_on_c, 0, 57, 0
3, 13390, Note_on_c, 0, 60, 73
3, 13430, Note_on_c, 0, 84, 89
3, 13431, Note_on_c, 0, 64, 87
3, 13431, Note_on_c, 0, 72, 95
3, 13432, Note_on_c, 0, 79, 85
3, 13572, Note_on_c, 0, 84, 0
3, 13573, Note_on_c, 0, 64, 0
3, 13577, Note_on_c, 0, 79, 0
3, 13581, Note_on_c, 0, 60, 0
3, 13610, Note_on_c, 0, 72, 0
3, 13711, Note_on_c, 0, 60, 44
3, 13720, Note_on_c, 0, 60, 0
3, 13802, Note_on_c, 0, 48, 35
3, 13844, Note_on_c, 0, 41, 44
3, 13845, Control_c, 0, 64, 0
3, 13847, Note_on_c, 0, 76, 66
3, 13851, Note_on_c, 0, 57, 53
3, 13852, Note_on_c, 0, 72, 64
3, 13853, Note_on_c, 0, 69, 64
3, 13855, Note_on_c, 0, 65, 63
3, 13872, Control_c, 0, 64, 127
3, 13883, Note_on_c, 0, 41, 0
3, 13887, Note_on_c, 0, 48, 0
3, 13901, Note_on_c, 0, 57, 0
3, 13920, Note_on_c, 0, 76, 0
3, 13921, Note_on_c, 0, 72, 0
3, 13926, Note_on_c, 0, 69, 0
3, 13927, Note_on_c, 0, 65, 0
3, 14110, Note_on_c, 0, 49, 46
3, 14120, Control_c, 0, 64, 0
3, 14127, Note_on_c, 0, 50, 56
3, 14128, Note_on_c, 0, 65, 65
3, 14129, Note_on_c, 0, 62, 52
3, 14129, Note_on_c, 0, 60, 63
3, 14130, Note_on_c, 0, 57, 57
3, 14131, Note_on_c, 0, 49, 0
3, 14146, Control_c, 0, 64, 127
3, 14168, Note_on_c, 0, 62, 0
3, 14170, Note_on_c, 0, 65, 0
3, 14170, Note_on_c, 0, 57, 0
3, 14171, Note_on_c, 0, 50, 0
3, 14173, Note_on_c, 0, 60, 0
3, 14180, Note_on_c, 0, 51, 20
3, 14210, Note_on_c, 0, 51, 0
3, 14212, Note_on_c, 0, 53, 62
3, 14212, Note_on_c, 0, 69, 75
3, 14213, Note_on_c, 0, 62, 77
3, 14214, Note_on_c, 0, 60, 78
3, 14214, Note_on_c, 0, 65, 71
3, 14222, Note_on_c, 0, 67, 31
3, 14229, Note_on_c, 0, 60, 0
3, 14230, Note_on_c, 0, 62, 0
3, 14232, Note_on_c, 0, 67, 0
3, 14236, Note_on_c, 0, 65, 0
3, 14237, Note_on_c, 0, 69, 0
3, 14251, Note_on_c, 0, 53, 0
3, 14256, Control_c, 0, 64, 0
3, 14263, Note_on_c, 0, 57, 74
3, 14264, Note_on_c, 0, 69, 80
3, 14264, Note_on_c, 0, 72, 78
3, 14264, Note_on_c, 0, 65, 87
3, 14264, Note_on_c, 0, 62, 83
3, 14279, Control_c, 0, 64, 127
3, 14289, Note_on_c, 0, 62, 0
3, 14294, Note_on_c, 0, 65, 0
3, 14296, Note_on_c, 0, 57, 0
3, 14301, Note_on_c, 0, 69, 0
3, 14302, Note_on_c, 0, 72, 0
3, 14326, Note_on_c, 0, 58, 34
3, 14340, Note_on_c, 0, 59, 72
3, 14340, Note_on_c, 0, 68, 77
3, 14341, Note_on_c, 0, 76, 74
3, 14342, Note_on_c, 0, 72, 74
3, 14342, Note_on_c, 0, 65, 78
3, 14346, Control_c, 0, 64, 0
3, 14347, Note_on_c, 0, 60, 83
3, 14347, Note_on_c, 0, 74, 37
3, 14348, Note_on_c, 0, 58, 0
3, 14358, Note_on_c, 0, 59, 0
3, 14362, Note_on_c, 0, 68, 0
3, 14363, Note_on_c, 0, 69, 60
3, 14380, Control_c, 0, 64, 127
3, 14419, Note_on_c, 0, 60, 0
3, 14421, Note_on_c, 0, 72, 0
3, 14422, Note_on_c, 0, 59, 36
3, 14424, Note_on_c, 0, 69, 0
3, 14425, Note_on_c, 0, 76, 0
3, 14430, Note_on_c, 0, 74, 0
3, 14432, Note_on_c, 0, 65, 0
3, 14438, Note_on_c, 0, 59, 0
3, 14439, Note_on_c, 0, 58, 47
3, 14457, Note_on_c, 0, 58, 0
3, 14465, Control_c, 0, 64, 0
3, 14467, Note_on_c, 0, 62, 55
3, 14467, Note_on_c, 0, 69, 51
3, 14468, Note_on_c, 0, 57, 66
3, 14468, Note_on_c, 0, 72, 45
3, 14470, Note_on_c, 0, 65, 60
3, 14477, Note_on_c, 0, 65, 0
3, 14481, Note_on_c, 0, 62, 0
3, 14482, Note_on_c, 0, 57, 0
3, 14485, Note_on_c, 0, 69, 0
3, 14486, Note_on_c, 0, 72, 0
3, 14602, Note_on_c, 0, 60, 66
3, 14603, Note_on_c, 0, 69, 55
3, 14603, Note_on_c, 0, 65, 66
3, 14610, Note_on_c, 0, 53, 35
3, 14637, Control_c, 0, 64, 127
3, 14651, Note_on_c, 0, 53, 0
3, 14662, Note_on_c, 0, 65, 0
3, 14664, Note_on_c, 0, 69, 0
3, 14670, Note_on_c, 0, 60, 0
3, 14739, Note_on_c, 0, 48, 38
3, 14770, Note_on_c, 0, 48, 0
3, 14785, Control_c, 0, 64, 0
3, 14786, Note_on_c, 0, 64, 40
3, 14787, Note_on_c, 0, 57, 51
3, 14788, Note_on_c, 0, 60, 49
3, 14788, Note_on_c, 0, 53, 30
3, 14790, Note_on_c, 0, 52, 30
3, 14801, Note_on_c, 0, 53, 0
3, 14809, Note_on_c, 0, 57, 0
3, 14809, Note_on_c, 0, 64, 0
3, 14811, Note_on_c, 0, 60, 0
3, 14829, Note_on_c, 0, 52, 0
3, 14851, Control_c, 0, 64, 127
3, 14873, Note_on_c, 0, 62, 40
3, 14875, Note_on_c, 0, 50, 39
3, 14897, Note_on_c, 0, 62, 0
3, 14904, Control_c, 0, 64, 0
3, 14906, Note_on_c, 0, 50, 0
3, 14922, Note_on_c, 0, 52, 42
3, 14923, Note_on_c, 0, 64, 41
3, 14925, Note_on_c, 0, 53, 26
3, 14925, Control_c, 0, 64, 127
3, 14927, Note_on_c, 0, 57, 32
3, 14928, Note_on_c, 0, 60, 39
3, 14937, Note_on_c, 0, 53, 0
3, 14940, Note_on_c, 0, 57, 0
3, 14941, Note_on_c, 0, 60, 0
3, 14948, Note_on_c, 0, 64, 0
3, 14948, Note_on_c, 0, 52, 0
3, 15003, Note_on_c, 0, 67, 62
3, 15003, Note_on_c, 0, 55, 52
3, 15006, Note_on_c, 0, 60, 70
3, 15007, Note_on_c, 0, 57, 60
3, 15014, Note_on_c, 0, 55, 0
3, 15016, Control_c, 0, 64, 0
3, 15017, Note_on_c, 0, 67, 0
3, 15019, Note_on_c, 0, 60, 0
3, 15021, Note_on_c, 0, 57, 0
3, 15046, Note_on_c, 0, 64, 47
3, 15051, Note_on_c, 0, 57, 37
3, 15052, Note_on_c, 0, 52, 34
3, 15053, Note_on_c, 0, 60, 35
3, 15064, Note_on_c, 0, 60, 0
3, 15066, Note_on_c, 0, 57, 0
3, 15068, Note_on_c, 0, 64, 0
3, 15073, Note_on_c, 0, 52, 0
3, 15078, Note_on_c, 0, 50, 31
3, 15109, Note_on_c, 0, 50, 0
3, 15119, Note_on_c, 0, 64, 38
3, 15121, Note_on_c, 0, 52, 50
3, 15121, Note_on_c, 0, 57, 53
3, 15121, Note_on_c, 0, 60, 54
3, 15123, Note_on_c, 0, 53, 29
3, 15158, Control_c, 0, 64, 127
3, 15202, Note_on_c, 0, 41, 62
3, 15257, Note_on_c, 0, 53, 0
3, 15258, Note_on_c, 0, 57, 0
3, 15258, Note_on_c, 0, 52, 0
3, 15261, Note_on_c, 0, 41, 0
3, 15276, Note_on_c, 0, 60, 0
3, 15286, Control_c, 0, 64, 0
3, 15290, Note_on_c, 0, 57, 51
3, 15291, Note_on_c, 0, 53, 41
3, 15293, Note_on_c, 0, 39, 47
3, 15313, Control_c, 0, 64, 127
3, 15317, Note_on_c, 0, 53, 0
3, 15318, Note_on_c, 0, 64, 0
3, 15335, Note_on_c, 0, 57, 0
3, 15362, Note_on_c, 0, 39, 0
3, 15366, Control_c, 0, 64, 0
3, 15373, Note_on_c, 0, 54, 60
3, 15377, Note_on_c, 0, 38, 53
3, 15395, Control_c, 0, 64, 127
3, 15419, Note_on_c, 0, 54, 0
3, 15424, Note_on_c, 0, 38, 0
3, 15504, Note_on_c, 0, 66, 56
3, 15505, Note_on_c, 0, 69, 71
3, 15506, Note_on_c, 0, 60, 73
3, 15506, Note_on_c, 0, 64, 70
3, 15521, Control_c, 0, 64, 0
3, 15529, Note_on_c, 0, 54, 43
3, 15546, Control_c, 0, 64, 127
3, 15563, Note_on_c, 0, 54, 0
3, 15571, Note_on_c, 0, 60, 0
3, 15579, Note_on_c, 0, 64, 0
3, 15587, Note_on_c, 0, 69, 0
3, 15588, Note_on_c, 0, 66, 0
3, 15667, Control_c, 0, 64, 0
3, 15669, Note_on_c, 0, 69, 43
3, 15670, Note_on_c, 0, 66, 37
3, 15670, Note_on_c, 0, 72, 39
3, 15670, Note_on_c, 0, 62, 39
3, 15673, Note_on_c, 0, 54, 28
3, 15675, Note_on_c, 0, 45, 37
3, 15689, Note_on_c, 0, 62, 0
3, 15692, Note_on_c, 0, 66, 0
3, 15695, Note_on_c, 0, 69, 0
3, 15697, Note_on_c, 0, 72, 0
3, 15701, Note_on_c, 0, 45, 0
3, 15716, Note_on_c, 0, 54, 0
3, 15718, Control_c, 0, 64, 127
3, 15786, Control_c, 0, 64, 0
3, 15800, Note_on_c, 0, 66, 31
3, 15803, Note_on_c, 0, 54, 25
3, 15803, Note_on_c, 0, 62, 24
3, 15807, Note_on_c, 0, 60, 25
3, 15817, Control_c, 0, 64, 127
3, 15829, Note_on_c, 0, 60, 0
3, 15833, Note_on_c, 0, 62, 0
3, 15841, Note_on_c, 0, 54, 0
3, 15845, Note_on_c, 0, 66, 0
3, 15909, Note_on_c, 0, 57, 37
3, 15914, Note_on_c, 0, 58, 43
3, 15919, Note_on_c, 0, 57, 0
3, 15924, Control_c, 0, 64, 0
3, 15925, Note_on_c, 0, 59, 47
3, 15926, Note_on_c, 0, 58, 0
3, 15929, Note_on_c, 0, 76, 74
3, 15931, Note_on_c, 0, 66, 71
3, 15931, Note_on_c, 0, 69, 71
3, 15932, Note_on_c, 0, 60, 81
3, 15934, Note_on_c, 0, 72, 59
3, 15941, Note_on_c, 0, 59, 0
3, 15942, Note_on_c, 0, 74, 17
3, 15954, Control_c, 0, 64, 127
3, 15961, Note_on_c, 0, 74, 0
3, 15964, Note_on_c, 0, 76, 0
3, 15971, Note_on_c, 0, 72, 0
3, 15972, Note_on_c, 0, 69, 0
3, 15974, Note_on_c, 0, 60, 0
3, 15983, Note_on_c, 0, 66, 0
3, 15997, Note_on_c, 0, 58, 50
3, 16018, Note_on_c, 0, 58, 0
3, 16026, Note_on_c, 0, 57, 61
3, 16030, Control_c, 0, 64, 0
3, 16034, Note_on_c, 0, 66, 36
3, 16034, Note_on_c, 0, 64, 49
3, 16036, Note_on_c, 0, 69, 41
3, 16043, Note_on_c, 0, 64, 0
3, 16046, Note_on_c, 0, 69, 0
3, 16047, Note_on_c, 0, 66, 0
3, 16052, Note_on_c, 0, 57, 0
3, 16102, Control_c, 0, 64, 127
3, 16138, Control_c, 0, 64, 0
3, 16150, Note_on_c, 0, 66, 59
3, 16151, Note_on_c, 0, 62, 68
3, 16152, Note_on_c, 0, 57, 54
3, 16152, Note_on_c, 0, 50, 55
3, 16162, Control_c, 0, 64, 127
3, 16169, Note_on_c, 0, 57, 0
3, 16179, Note_on_c, 0, 62, 0
3, 16188, Note_on_c, 0, 66, 0
3, 16201, Control_c, 0, 64, 0
3, 16210, Note_on_c, 0, 66, 52
3, 16210, Note_on_c, 0, 69, 58
3, 16214, Note_on_c, 0, 60, 55
3, 16214, Note_on_c, 0, 54, 47
3, 16216, Control_c, 0, 64, 127
3, 16234, Note_on_c, 0, 60, 0
3, 16235, Note_on_c, 0, 69, 0
3, 16238, Note_on_c, 0, 66, 0
3, 16288, Note_on_c, 0, 54, 0
3, 16291, Note_on_c, 0, 72, 64
3, 16292, Control_c, 0, 64, 0
3, 16292, Note_on_c, 0, 63, 60
3, 16292, Note_on_c, 0, 66, 55
3, 16293, Note_on_c, 0, 69, 57
3, 16294, Note_on_c, 0, 57, 53
3, 16321, Control_c, 0, 64, 127
3, 16343, Note_on_c, 0, 69, 0
3, 16344, Note_on_c, 0, 63, 0
3, 16348, Note_on_c, 0, 72, 0
3, 16350, Note_on_c, 0, 66, 0
3, 16408, Note_on_c, 0, 57, 0
3, 16411, Control_c, 0, 64, 0
3, 16413, Note_on_c, 0, 76, 60
3, 16415, Note_on_c, 0, 65, 57
3, 16416, Note_on_c, 0, 72, 53
3, 16416, Note_on_c, 0, 69, 57
3, 16417, Note_on_c, 0, 60, 59
3, 16445, Control_c, 0, 64, 127
3, 16539, Note_on_c, 0, 69, 0
3, 16539, Note_on_c, 0, 65, 0
3, 16546, Note_on_c, 0, 72, 0
3, 16554, Note_on_c, 0, 60, 0
3, 16555, Note_on_c, 0, 57, 37
3, 16557, Note_on_c, 0, 69, 41
3, 16558, Note_on_c, 0, 76, 0
3, 16562, Note_on_c, 0, 50, 0
3, 16565, Note_on_c, 0, 69, 0
3, 16571, Note_on_c, 0, 57, 0
3, 16597, Control_c, 0, 64, 0
3, 16602, Note_on_c, 0, 79, 80
3, 16602, Note_on_c, 0, 69, 88
3, 16603, Note_on_c, 0, 64, 76
3, 16603, Note_on_c, 0, 72, 70
3, 16622, Control_c, 0, 64, 127
3, 16656, Note_on_c, 0, 72, 0
3, 16660, Note_on_c, 0, 69, 0
3, 16662, Note_on_c, 0, 64, 0
3, 16662, Note_on_c, 0, 79, 0
3, 16685, Note_on_c, 0, 64, 44
3, 16687, Note_on_c, 0, 79, 51
3, 16689, Note_on_c, 0, 69, 66
3, 16691, Note_on_c, 0, 72, 60
3, 16709, Note_on_c, 0, 79, 0
3, 16709, Control_c, 0, 64, 0
3, 16712, Note_on_c, 0, 69, 0
3, 16714, Note_on_c, 0, 72, 0
3, 16726, Note_on_c, 0, 64, 0
3, 16732, Note_on_c, 0, 77, 60
3, 16734, Note_on_c, 0, 72, 44
3, 16734, Control_c, 0, 64, 127
3, 16734, Note_on_c, 0, 62, 51
3, 16736, Note_on_c, 0, 69, 34
3, 16759, Note_on_c, 0, 72, 0
3, 16760, Note_on_c, 0, 77, 0
3, 16763, Note_on_c, 0, 69, 0
3, 16855, Control_c, 0, 64, 0
3, 16856, Note_on_c, 0, 62, 0
3, 16859, Note_on_c, 0, 76, 59
3, 16863, Note_on_c, 0, 65, 42
3, 16864, Note_on_c, 0, 72, 42
3, 16864, Note_on_c, 0, 60, 36
3, 16864, Note_on_c, 0, 69, 43
3, 16869, Control_c, 0, 64, 127
3, 16902, Note_on_c, 0, 72, 0
3, 16903, Note_on_c, 0, 76, 0
3, 16905, Note_on_c, 0, 69, 0
3, 16910, Note_on_c, 0, 65, 0
3, 16939, Note_on_c, 0, 60, 0
3, 16989, Note_on_c, 0, 72, 38
3, 16990, Note_on_c, 0, 69, 40
3, 16990, Note_on_c, 0, 65, 48
3, 16991, Note_on_c, 0, 60, 33
3, 16996, Control_c, 0, 64, 0
3, 16998, Note_on_c, 0, 57, 18
3, 17020, Note_on_c, 0, 57, 0
3, 17023, Control_c, 0, 64, 127
3, 17028, Note_on_c, 0, 69, 0
3, 17030, Note_on_c, 0, 72, 0
3, 17035, Note_on_c, 0, 65, 0
3, 17046, Note_on_c, 0, 60, 0
3, 17118, Note_on_c, 0, 65, 48
3, 17119, Note_on_c, 0, 53, 38
3, 17119, Note_on_c, 0, 60, 33
3, 17120, Note_on_c, 0, 69, 38
3, 17124, Control_c, 0, 64, 0
3, 17151, Control_c, 0, 64, 127
3, 17177, Note_on_c, 0, 65, 0
3, 17184, Note_on_c, 0, 69, 0
3, 17188, Note_on_c, 0, 60, 0
3, 17206, Note_on_c, 0, 53, 0
3, 17254, Note_on_c, 0, 68, 34
3, 17254, Note_on_c, 0, 59, 26
3, 17255, Note_on_c, 0, 43, 35
3, 17256, Note_on_c, 0, 64, 39
3, 17257, Note_on_c, 0, 53, 27
3, 17261, Control_c, 0, 64, 0
3, 17303, Control_c, 0, 64, 127
3, 17328, Note_on_c, 0, 64, 0
3, 17330, Note_on_c, 0, 53, 0
3, 17345, Note_on_c, 0, 59, 0
3, 17391, Note_on_c, 0, 53, 35
3, 17392, Note_on_c, 0, 64, 34
3, 17393, Note_on_c, 0, 59, 28
3, 17408, Note_on_c, 0, 43, 0
3, 17422, Note_on_c, 0, 53, 0
3, 17433, Note_on_c, 0, 64, 0
3, 17446, Note_on_c, 0, 59, 0
3, 17454, Note_on_c, 0, 68, 0
3, 17547, Note_on_c, 0, 36, 35
3, 17549, Note_on_c, 0, 67, 44
3, 17554, Control_c, 0, 64, 0
3, 17554, Note_on_c, 0, 43, 24
3, 17555, Note_on_c, 0, 62, 40
3, 17556, Note_on_c, 0, 64, 33
3, 17559, Note_on_c, 0, 57, 34
3, 17559, Note_on_c, 0, 59, 30
3, 17562, Note_on_c, 0, 52, 34
3, 17613, Control_c, 0, 64, 127
3, 17652, Note_on_c, 0, 57, 0
3, 17663, Note_on_c, 0, 59, 0
3, 17687, Note_on_c, 0, 67, 0
3, 17688, Note_on_c, 0, 36, 0
3, 17694, Note_on_c, 0, 64, 0
3, 17694, Note_on_c, 0, 62, 0
3, 17697, Note_on_c, 0, 43, 0
3, 17717, Note_on_c, 0, 52, 0
3, 17947, Note_on_c, 0, 88, 77
3, 17949, Note_on_c, 0, 64, 51
3, 17987, Note_on_c, 0, 64, 0
3, 17994, Note_on_c, 0, 55, 40
3, 17996, Note_on_c, 0, 79, 37
3, 18010, Note_on_c, 0, 88, 0
3, 18012, Note_on_c, 0, 79, 0
3, 18044, Note_on_c, 0, 55, 0
3, 18046, Note_on_c, 0, 60, 38
3, 18046, Note_on_c, 0, 84, 45
3, 18059, Note_on_c, 0, 84, 0
3, 18084, Note_on_c, 0, 60, 0
3, 18102, Note_on_c, 0, 64, 43
3, 18104, Note_on_c, 0, 88, 71
3, 18140, Note_on_c, 0, 88, 0
3, 18148, Note_on_c, 0, 64, 0
3, 18169, Note_on_c, 0, 54, 40
3, 18169, Note_on_c, 0, 80, 48
3, 18187, Control_c, 0, 64, 0
3, 18227, Control_c, 0, 64, 127
3, 18229, Note_on_c, 0, 80, 0
3, 18230, Note_on_c, 0, 60, 39
3, 18286, Note_on_c, 0, 71, 28
3, 18290, Note_on_c, 0, 68, 25
3, 18291, Note_on_c, 0, 64, 34
3, 18332, Note_on_c, 0, 71, 0
3, 18337, Note_on_c, 0, 68, 0
3, 18340, Note_on_c, 0, 60, 0
3, 18341, Note_on_c, 0, 76, 45
3, 18355, Note_on_c, 0, 76, 0
3, 18392, Note_on_c, 0, 64, 0
3, 18395, Note_on_c, 0, 88, 64
3, 18397, Note_on_c, 0, 60, 34
3, 18435, Note_on_c, 0, 88, 0
3, 18458, Note_on_c, 0, 80, 25
3, 18460, Note_on_c, 0, 64, 29
3, 18461, Note_on_c, 0, 76, 22
3, 18465, Note_on_c, 0, 83, 27
3, 18677, Note_on_c, 0, 83, 0
3, 18700, Note_on_c, 0, 80, 0
3, 18709, Note_on_c, 0, 76, 0
3, 18733, Note_on_c, 0, 64, 0
3, 18736, Note_on_c, 0, 60, 0
3, 18760, Note_on_c, 0, 54, 0
3, 18820, Note_on_c, 0, 69, 66
3, 18826, Note_on_c, 0, 65, 64
3, 18831, Note_on_c, 0, 60, 55
3, 18842, Control_c, 0, 64, 0
3, 18851, Note_on_c, 0, 60, 0
3, 18892, Note_on_c, 0, 50, 35
3, 18951, Control_c, 0, 64, 127
3, 18960, Note_on_c, 0, 57, 37
3, 18978, Note_on_c, 0, 65, 0
3, 19047, Note_on_c, 0, 60, 35
3, 19088, Note_on_c, 0, 57, 0
3, 19108, Note_on_c, 0, 69, 0
3, 19124, Note_on_c, 0, 60, 0
3, 19157, Note_on_c, 0, 50, 0
3, 19599, Control_c, 0, 64, 0
3, 19602, Note_on_c, 0, 58, 64
3, 19604, Note_on_c, 0, 69, 46
3, 19605, Note_on_c, 0, 61, 53
3, 19605, Note_on_c, 0, 64, 57
3, 19606, Note_on_c, 0, 57, 57
3, 19617, Control_c, 0, 64, 127
3, 19636, Note_on_c, 0, 64, 0
3, 19639, Note_on_c, 0, 69, 0
3, 19641, Note_on_c, 0, 58, 0
3, 19641, Note_on_c, 0, 61, 0
3, 19673, Note_on_c, 0, 57, 0
3, 19673, Control_c, 0, 64, 0
3, 19673, Note_on_c, 0, 70, 68
3, 19673, Note_on_c, 0, 59, 57
3, 19675, Note_on_c, 0, 62, 66
3, 19676, Note_on_c, 0, 58, 59
3, 19685, Control_c, 0, 64, 127
3, 19694, Note_on_c, 0, 62, 0
3, 19701, Note_on_c, 0, 59, 0
3, 19713, Note_on_c, 0, 70, 0
3, 19732, Control_c, 0, 64, 0
3, 19734, Note_on_c, 0, 63, 57
3, 19735, Note_on_c, 0, 71, 62
3, 19736, Note_on_c, 0, 60, 72
3, 19737, Note_on_c, 0, 67, 58
3, 19738, Note_on_c, 0, 59, 68
3, 19749, Note_on_c, 0, 60, 0
3, 19752, Control_c, 0, 64, 127
3, 19753, Note_on_c, 0, 63, 0
3, 19753, Note_on_c, 0, 58, 0
3, 19755, Note_on_c, 0, 67, 0
3, 19757, Note_on_c, 0, 71, 0
3, 19808, Note_on_c, 0, 59, 0
3, 19812, Note_on_c, 0, 76, 69
3, 19813, Note_on_c, 0, 68, 67
3, 19813, Note_on_c, 0, 65, 71
3, 19813, Note_on_c, 0, 64, 69
3, 19814, Note_on_c, 0, 71, 68
3, 19817, Control_c, 0, 64, 0
3, 19822, Note_on_c, 0, 65, 0
3, 19824, Note_on_c, 0, 64, 0
3, 19826, Note_on_c, 0, 76, 0
3, 19826, Note_on_c, 0, 68, 0
3, 19826, Note_on_c, 0, 71, 0
3, 19857, Control_c, 0, 64, 127
3, 19913, Control_c, 0, 64, 0
3, 19916, Note_on_c, 0, 62, 51
3, 19918, Note_on_c, 0, 59, 48
3, 19918, Note_on_c, 0, 67, 37
3, 19919, Note_on_c, 0, 56, 35
3, 19923, Note_on_c, 0, 55, 40
3, 19933, Control_c, 0, 64, 127
3, 19970, Note_on_c, 0, 67, 0
3, 20060, Note_on_c, 0, 59, 0
3, 20061, Note_on_c, 0, 62, 0
3, 20068, Note_on_c, 0, 56, 0
3, 20071, Note_on_c, 0, 55, 0
3, 20100, Control_c, 0, 64, 0
3, 20103, Note_on_c, 0, 66, 39
3, 20105, Note_on_c, 0, 55, 53
3, 20107, Note_on_c, 0, 61, 42
3, 20107, Note_on_c, 0, 54, 34
3, 20109, Note_on_c, 0, 58, 37
3, 20119, Control_c, 0, 64, 127
3, 20137, Note_on_c, 0, 55, 0
3, 20144, Note_on_c, 0, 54, 0
3, 20154, Note_on_c, 0, 66, 0
3, 20154, Note_on_c, 0, 61, 0
3, 20157, Note_on_c, 0, 58, 0
3, 20198, Control_c, 0, 64, 0
3, 20200, Note_on_c, 0, 65, 50
3, 20201, Note_on_c, 0, 54, 30
3, 20204, Note_on_c, 0, 53, 36
3, 20204, Note_on_c, 0, 57, 44
3, 20206, Note_on_c, 0, 60, 48
3, 20240, Control_c, 0, 64, 127
3, 20265, Note_on_c, 0, 57, 0
3, 20270, Note_on_c, 0, 54, 0
3, 20276, Note_on_c, 0, 60, 0
3, 20280, Note_on_c, 0, 65, 0
3, 20280, Note_on_c, 0, 43, 50
3, 20287, Note_on_c, 0, 53, 0
3, 20295, Note_on_c, 0, 43, 0
3, 20383, Note_on_c, 0, 73, 34
3, 20387, Note_on_c, 0, 69, 45
3, 20387, Note_on_c, 0, 64, 37
3, 20388, Note_on_c, 0, 59, 29
3, 20389, Note_on_c, 0, 53, 43
3, 20567, Note_on_c, 0, 73, 0
3, 20588, Note_on_c, 0, 73, 32
3, 20643, Note_on_c, 0, 53, 0
3, 20653, Note_on_c, 0, 59, 0
3, 20660, Note_on_c, 0, 69, 0
3, 20688, Note_on_c, 0, 73, 0
3, 20695, Note_on_c, 0, 64, 0
3, 20958, Control_c, 0, 64, 0
3, 20961, Note_on_c, 0, 72, 73
3, 20963, Note_on_c, 0, 67, 69
3, 20963, Note_on_c, 0, 57, 64
3, 20964, Note_on_c, 0, 62, 68
3, 20985, Control_c, 0, 64, 127
3, 21013, Note_on_c, 0, 72, 0
3, 21038, Note_on_c, 0, 72, 72
3, 21075, Note_on_c, 0, 72, 0
3, 21127, Note_on_c, 0, 72, 70
3, 21220, Note_on_c, 0, 72, 0
3, 21231, Note_on_c, 0, 70, 55
3, 21240, Note_on_c, 0, 67, 0
3, 21241, Note_on_c, 0, 57, 0
3, 21261, Note_on_c, 0, 62, 0
3, 21288, Note_on_c, 0, 70, 0
3, 21320, Note_on_c, 0, 70, 56
3, 21322, Note_on_c, 0, 61, 49
3, 21322, Note_on_c, 0, 66, 50
3, 21326, Note_on_c, 0, 55, 32
3, 21326, Control_c, 0, 64, 0
3, 21328, Note_on_c, 0, 45, 36
3, 21369, Control_c, 0, 64, 127
3, 21393, Note_on_c, 0, 70, 0
3, 21408, Note_on_c, 0, 70, 51
3, 21454, Note_on_c, 0, 70, 0
3, 21475, Note_on_c, 0, 70, 59
3, 21520, Note_on_c, 0, 70, 0
3, 21544, Note_on_c, 0, 70, 51
3, 21560, Note_on_c, 0, 55, 0
3, 21566, Note_on_c, 0, 45, 0
3, 21587, Note_on_c, 0, 70, 0
3, 21587, Note_on_c, 0, 66, 0
3, 21589, Note_on_c, 0, 61, 0
3, 21728, Note_on_c, 0, 68, 40
3, 21729, Note_on_c, 0, 44, 37
3, 21730, Note_on_c, 0, 64, 51
3, 21730, Note_on_c, 0, 59, 40
3, 21732, Note_on_c, 0, 54, 31
3, 21745, Control_c, 0, 64, 0
3, 21801, Note_on_c, 0, 68, 0
3, 21814, Control_c, 0, 64, 127
3, 21815, Note_on_c, 0, 68, 46
3, 21875, Note_on_c, 0, 68, 0
3, 21902, Note_on_c, 0, 68, 42
3, 21936, Note_on_c, 0, 68, 0
3, 21994, Note_on_c, 0, 54, 0
3, 21994, Note_on_c, 0, 68, 42
3, 22029, Note_on_c, 0, 44, 0
3, 22043, Note_on_c, 0, 59, 0
3, 22052, Note_on_c, 0, 64, 0
3, 22082, Note_on_c, 0, 68, 0
3, 22169, Control_c, 0, 64, 0
3, 22172, Note_on_c, 0, 69, 38
3, 22174, Note_on_c, 0, 65, 37
3, 22174, Note_on_c, 0, 63, 33
3, 22176, Note_on_c, 0, 59, 28
3, 22176, Note_on_c, 0, 43, 33
3, 22180, Note_on_c, 0, 53, 18
3, 22208, Control_c, 0, 64, 127
3, 22232, Note_on_c, 0, 53, 0
3, 22249, Note_on_c, 0, 43, 0
3, 22314, Note_on_c, 0, 31, 36
3, 22331, Note_on_c, 0, 31, 0
3, 22383, Note_on_c, 0, 65, 0
3, 22388, Note_on_c, 0, 69, 0
3, 22388, Note_on_c, 0, 59, 0
3, 22406, Note_on_c, 0, 63, 0
3, 22493, Note_on_c, 0, 67, 33
3, 22494, Note_on_c, 0, 63, 32
3, 22496, Note_on_c, 0, 59, 26
3, 22501, Note_on_c, 0, 53, 26
3, 22504, Note_on_c, 0, 43, 31
3, 22531, Control_c, 0, 64, 0
3, 22554, Control_c, 0, 64, 127
3, 22772, Note_on_c, 0, 59, 0
3, 22780, Note_on_c, 0, 67, 0
3, 22780, Note_on_c, 0, 63, 0
3, 22906, Note_on_c, 0, 43, 0
3, 22907, Note_on_c, 0, 53, 0
3, 22928, Control_c, 0, 64, 0
3, 22938, Note_on_c, 0, 36, 37
3, 22940, Note_on_c, 0, 67, 36
3, 22946, Note_on_c, 0, 52, 24
3, 22949, Control_c, 0, 64, 0
3, 22950, Note_on_c, 0, 36, 0
3, 22966, Note_on_c, 0, 67, 0
3, 22967, Note_on_c, 0, 52, 0
3, 23023, Control_c, 0, 64, 127
3, 23045, Note_on_c, 0, 64, 35
3, 23048, Control_c, 0, 64, 0
3, 23055, Note_on_c, 0, 55, 24
3, 23055, Note_on_c, 0, 60, 24
3, 23068, Note_on_c, 0, 60, 0
3, 23068, Note_on_c, 0, 64, 0
3, 23078, Note_on_c, 0, 55, 0
3, 23102, Control_c, 0, 64, 127
3, 23129, Control_c, 0, 64, 0
3, 23145, Note_on_c, 0, 43, 30
3, 23150, Note_on_c, 0, 53, 32
3, 23162, Note_on_c, 0, 43, 0
3, 23165, Control_c, 0, 64, 127
3, 23170, Note_on_c, 0, 53, 0
3, 23251, Note_on_c, 0, 63, 32
3, 23254, Control_c, 0, 64, 0
3, 23258, Note_on_c, 0, 53, 24
3, 23260, Note_on_c, 0, 58, 30
3, 23286, Control_c, 0, 64, 127
3, 23307, Note_on_c, 0, 53, 0
3, 23318, Note_on_c, 0, 63, 0
3, 23346, Control_c, 0, 64, 0
3, 23347, Note_on_c, 0, 58, 0
3, 23354, Note_on_c, 0, 62, 47
3, 23359, Note_on_c, 0, 57, 39
3, 23368, Control_c, 0, 64, 127
3, 23373, Note_on_c, 0, 62, 0
3, 23378, Note_on_c, 0, 57, 0
3, 23425, Note_on_c, 0, 76, 103
3, 23431, Note_on_c, 0, 75, 54
3, 23437, Note_on_c, 0, 75, 0
3, 23498, Note_on_c, 0, 76, 0
3, 23522, Note_on_c, 0, 56, 36
3, 23523, Note_on_c, 0, 62, 44
3, 23524, Control_c, 0, 64, 0
3, 23529, Note_on_c, 0, 64, 27
3, 23533, Note_on_c, 0, 52, 22
3, 23550, Control_c, 0, 64, 127
3, 23561, Note_on_c, 0, 62, 0
3, 23570, Note_on_c, 0, 56, 0
3, 23570, Note_on_c, 0, 52, 0
3, 23576, Note_on_c, 0, 64, 0
3, 23626, Note_on_c, 0, 72, 54
3, 23627, Note_on_c, 0, 61, 49
3, 23628, Control_c, 0, 64, 0
3, 23628, Note_on_c, 0, 65, 59
3, 23629, Note_on_c, 0, 69, 45
3, 23639, Note_on_c, 0, 45, 32
3, 23639, Note_on_c, 0, 55, 33
3, 23642, Note_on_c, 0, 61, 0
3, 23643, Note_on_c, 0, 65, 0
3, 23645, Note_on_c, 0, 69, 0
3, 23650, Note_on_c, 0, 72, 0
3, 23652, Note_on_c, 0, 45, 0
3, 23661, Note_on_c, 0, 55, 0
3, 23671, Control_c, 0, 64, 127
3, 23721, Note_on_c, 0, 76, 54
3, 23723, Note_on_c, 0, 71, 53
3, 23724, Note_on_c, 0, 68, 53
3, 23725, Note_on_c, 0, 64, 59
3, 23732, Control_c, 0, 64, 0
3, 23739, Note_on_c, 0, 71, 0
3, 23740, Note_on_c, 0, 64, 0
3, 23741, Note_on_c, 0, 76, 0
3, 23746, Note_on_c, 0, 68, 0
3, 23749, Note_on_c, 0, 54, 33
3, 23764, Note_on_c, 0, 54, 0
3, 23790, Control_c, 0, 64, 127
3, 23820, Note_on_c, 0, 64, 59
3, 23820, Note_on_c, 0, 68, 35
3, 23821, Note_on_c, 0, 60, 51
3, 23833, Note_on_c, 0, 64, 0
3, 23834, Note_on_c, 0, 54, 32
3, 23838, Note_on_c, 0, 60, 0
3, 23839, Note_on_c, 0, 68, 0
3, 23839, Control_c, 0, 64, 0
3, 23850, Note_on_c, 0, 54, 0
3, 23887, Control_c, 0, 64, 127
3, 23911, Note_on_c, 0, 39, 58
3, 23934, Note_on_c, 0, 39, 0
3, 23936, Control_c, 0, 64, 0
3, 23951, Note_on_c, 0, 46, 40
3, 23952, Note_on_c, 0, 55, 64
3, 23963, Control_c, 0, 64, 127
3, 23998, Note_on_c, 0, 55, 0
3, 24011, Note_on_c, 0, 46, 0
3, 24044, Note_on_c, 0, 39, 60
3, 24046, Control_c, 0, 64, 0
3, 24071, Control_c, 0, 64, 127
3, 24115, Note_on_c, 0, 39, 0
3, 24133, Control_c, 0, 64, 0
3, 24143, Note_on_c, 0, 38, 52
3, 24153, Control_c, 0, 64, 127
3, 24154, Note_on_c, 0, 38, 0
3, 24214, Note_on_c, 0, 83, 80
3, 24214, Note_on_c, 0, 76, 87
3, 24234, Control_c, 0, 64, 0
3, 24234, Note_on_c, 0, 64, 40
3, 24238, Note_on_c, 0, 60, 36
3, 24239, Note_on_c, 0, 54, 23
3, 24241, Note_on_c, 0, 64, 0
3, 24246, Note_on_c, 0, 60, 0
3, 24256, Note_on_c, 0, 54, 0
3, 24257, Control_c, 0, 64, 127
3, 24291, Note_on_c, 0, 76, 0
3, 24296, Note_on_c, 0, 83, 0
3, 24304, Note_on_c, 0, 80, 37
3, 24307, Note_on_c, 0, 71, 44
3, 24308, Note_on_c, 0, 76, 32
3, 24321, Control_c, 0, 64, 0
3, 24333, Note_on_c, 0, 45, 20
3, 24334, Note_on_c, 0, 54, 18
3, 24336, Note_on_c, 0, 76, 0
3, 24340, Note_on_c, 0, 80, 0
3, 24340, Control_c, 0, 64, 127
3, 24343, Note_on_c, 0, 45, 0
3, 24356, Note_on_c, 0, 71, 0
3, 24358, Note_on_c, 0, 54, 0
3, 24402, Note_on_c, 0, 68, 47
3, 24403, Note_on_c, 0, 71, 43
3, 24406, Note_on_c, 0, 65, 28
3, 24414, Note_on_c, 0, 65, 0
3, 24421, Note_on_c, 0, 71, 0
3, 24422, Note_on_c, 0, 68, 0
3, 24423, Control_c, 0, 64, 0
3, 24426, Note_on_c, 0, 64, 34
3, 24429, Note_on_c, 0, 60, 35
3, 24433, Note_on_c, 0, 54, 25
3, 24436, Note_on_c, 0, 64, 0
3, 24438, Note_on_c, 0, 60, 0
3, 24445, Control_c, 0, 64, 127
3, 24451, Note_on_c, 0, 54, 0
3, 24494, Note_on_c, 0, 50, 57
3, 24514, Control_c, 0, 64, 0
3, 24527, Note_on_c, 0, 69, 40
3, 24528, Note_on_c, 0, 72, 48
3, 24530, Note_on_c, 0, 60, 43
3, 24539, Control_c, 0, 64, 127
3, 24544, Note_on_c, 0, 50, 0
3, 24558, Note_on_c, 0, 60, 0
3, 24573, Note_on_c, 0, 69, 0
3, 24584, Note_on_c, 0, 72, 0
3, 24618, Control_c, 0, 64, 0
3, 24619, Note_on_c, 0, 65, 56
3, 24620, Note_on_c, 0, 60, 54
3, 24626, Note_on_c, 0, 54, 43
3, 24642, Control_c, 0, 64, 127
3, 24675, Note_on_c, 0, 65, 0
3, 24691, Note_on_c, 0, 60, 0
3, 24694, Note_on_c, 0, 54, 0
3, 24707, Control_c, 0, 64, 0
3, 24712, Note_on_c, 0, 64, 58
3, 24716, Note_on_c, 0, 60, 32
3, 24717, Note_on_c, 0, 81, 87
3, 24718, Note_on_c, 0, 69, 95
3, 24719, Note_on_c, 0, 53, 40
3, 24719, Note_on_c, 0, 77, 74
3, 24719, Note_on_c, 0, 57, 46
3, 24729, Note_on_c, 0, 57, 0
3, 24729, Note_on_c, 0, 64, 0
3, 24729, Note_on_c, 0, 60, 0
3, 24732, Control_c, 0, 64, 127
3, 24743, Note_on_c, 0, 53, 0
3, 24763, Note_on_c, 0, 69, 0
3, 24764, Note_on_c, 0, 81, 0
3, 24767, Note_on_c, 0, 77, 0
3, 24784, Note_on_c, 0, 81, 55
3, 24784, Note_on_c, 0, 77, 59
3, 24785, Note_on_c, 0, 69, 61
3, 24799, Note_on_c, 0, 69, 0
3, 24799, Control_c, 0, 64, 0
3, 24800, Note_on_c, 0, 81, 0
3, 24801, Note_on_c, 0, 77, 0
3, 24810, Note_on_c, 0, 60, 36
3, 24811, Note_on_c, 0, 50, 37
3, 24814, Note_on_c, 0, 57, 33
3, 24819, Control_c, 0, 64, 127
3, 24820, Note_on_c, 0, 60, 0
3, 24822, Note_on_c, 0, 57, 0
3, 24831, Note_on_c, 0, 50, 0
3, 24880, Note_on_c, 0, 43, 71
3, 24886, Control_c, 0, 64, 0
3, 24894, Note_on_c, 0, 43, 0
3, 24905, Control_c, 0, 64, 127
3, 24974, Note_on_c, 0, 64, 87
3, 24975, Note_on_c, 0, 76, 76
3, 24976, Note_on_c, 0, 72, 74
3, 24976, Note_on_c, 0, 65, 90
3, 24977, Note_on_c, 0, 69, 80
3, 25001, Control_c, 0, 64, 0
3, 25002, Note_on_c, 0, 69, 0
3, 25002, Note_on_c, 0, 65, 0
3, 25006, Note_on_c, 0, 64, 0
3, 25006, Note_on_c, 0, 76, 0
3, 25006, Note_on_c, 0, 72, 0
3, 25016, Note_on_c, 0, 76, 25
3, 25019, Note_on_c, 0, 65, 38
3, 25019, Note_on_c, 0, 64, 60
3, 25021, Note_on_c, 0, 72, 54
3, 25022, Note_on_c, 0, 69, 36
3, 25034, Note_on_c, 0, 69, 0
3, 25037, Note_on_c, 0, 65, 0
3, 25039, Note_on_c, 0, 72, 0
3, 25040, Note_on_c, 0, 64, 0
3, 25042, Note_on_c, 0, 76, 0
3, 25061, Control_c, 0, 64, 127
3, 25080, Note_on_c, 0, 64, 60
3, 25082, Note_on_c, 0, 76, 60
3, 25083, Note_on_c, 0, 65, 67
3, 25083, Note_on_c, 0, 72, 54
3, 25084, Note_on_c, 0, 69, 58
3, 25089, Note_on_c, 0, 64, 0
3, 25096, Note_on_c, 0, 69, 0
3, 25097, Note_on_c, 0, 65, 0
3, 25101, Note_on_c, 0, 72, 0
3, 25103, Note_on_c, 0, 76, 0
3, 25120, Control_c, 0, 64, 0
3, 25130, Note_on_c, 0, 76, 62
3, 25133, Note_on_c, 0, 65, 50
3, 25133, Note_on_c, 0, 62, 51
3, 25134, Note_on_c, 0, 71, 46
3, 25135, Note_on_c, 0, 68, 42
3, 25144, Control_c, 0, 64, 127
3, 25193, Note_on_c, 0, 68, 0
3, 25193, Note_on_c, 0, 65, 0
3, 25195, Note_on_c, 0, 71, 0
3, 25195, Note_on_c, 0, 62, 0
3, 25197, Note_on_c, 0, 76, 0
3, 25219, Note_on_c, 0, 62, 31
3, 25221, Note_on_c, 0, 76, 40
3, 25223, Note_on_c, 0, 65, 61
3, 25224, Note_on_c, 0, 68, 48
3, 25225, Note_on_c, 0, 71, 48
3, 25234, Note_on_c, 0, 62, 0
3, 25240, Note_on_c, 0, 65, 0
3, 25243, Note_on_c, 0, 76, 0
3, 25252, Note_on_c, 0, 68, 0
3, 25257, Note_on_c, 0, 71, 0
3, 25285, Control_c, 0, 64, 0
3, 25289, Note_on_c, 0, 74, 44
3, 25289, Note_on_c, 0, 59, 37
3, 25289, Note_on_c, 0, 71, 40
3, 25291, Note_on_c, 0, 68, 50
3, 25291, Note_on_c, 0, 64, 57
3, 25293, Note_on_c, 0, 53, 33
3, 25315, Note_on_c, 0, 64, 0
3, 25315, Note_on_c, 0, 71, 0
3, 25320, Note_on_c, 0, 74, 0
3, 25321, Note_on_c, 0, 53, 0
3, 25322, Note_on_c, 0, 68, 0
3, 25322, Note_on_c, 0, 59, 0
3, 25326, Control_c, 0, 64, 127
3, 25382, Control_c, 0, 64, 0
3, 25382, Note_on_c, 0, 72, 54
3, 25383, Note_on_c, 0, 62, 54
3, 25384, Note_on_c, 0, 57, 47
3, 25384, Note_on_c, 0, 67, 55
3, 25386, Note_on_c, 0, 52, 38
3, 25412, Control_c, 0, 64, 127
3, 25448, Note_on_c, 0, 57, 0
3, 25451, Note_on_c, 0, 67, 0
3, 25454, Note_on_c, 0, 52, 0
3, 25462, Note_on_c, 0, 62, 0
3, 25471, Note_on_c, 0, 72, 0
3, 25570, Note_on_c, 0, 54, 34
3, 25571, Note_on_c, 0, 70, 71
3, 25572, Note_on_c, 0, 61, 75
3, 25573, Note_on_c, 0, 66, 62
3, 25577, Control_c, 0, 64, 0
3, 25582, Control_c, 0, 64, 127
3, 25600, Note_on_c, 0, 54, 0
3, 25603, Note_on_c, 0, 70, 0
3, 25606, Note_on_c, 0, 66, 0
3, 25607, Note_on_c, 0, 61, 0
3, 25617, Control_c, 0, 64, 0
3, 25619, Note_on_c, 0, 68, 39
3, 25620, Note_on_c, 0, 44, 31
3, 25621, Note_on_c, 0, 60, 44
3, 25621, Note_on_c, 0, 54, 25
3, 25621, Note_on_c, 0, 65, 56
3, 25635, Control_c, 0, 64, 127
3, 25637, Note_on_c, 0, 65, 0
3, 25646, Note_on_c, 0, 68, 0
3, 25650, Note_on_c, 0, 60, 0
3, 25659, Note_on_c, 0, 54, 0
3, 25682, Note_on_c, 0, 44, 0
3, 25686, Note_on_c, 0, 67, 47
3, 25687, Note_on_c, 0, 52, 51
3, 25688, Note_on_c, 0, 57, 45
3, 25689, Note_on_c, 0, 66, 17
3, 25691, Control_c, 0, 64, 0
3, 25691, Note_on_c, 0, 60, 57
3, 25718, Control_c, 0, 64, 127
3, 25740, Note_on_c, 0, 66, 0
3, 25748, Note_on_c, 0, 67, 0
3, 25750, Note_on_c, 0, 60, 0
3, 25765, Note_on_c, 0, 57, 0
3, 25774, Note_on_c, 0, 65, 62
3, 25775, Note_on_c, 0, 57, 26
3, 25778, Note_on_c, 0, 60, 55
3, 25779, Note_on_c, 0, 43, 48
3, 25780, Note_on_c, 0, 52, 0
3, 25783, Control_c, 0, 64, 0
3, 25790, Note_on_c, 0, 60, 0
3, 25792, Note_on_c, 0, 57, 0
3, 25796, Note_on_c, 0, 65, 0
3, 25806, Control_c, 0, 64, 127
3, 25866, Note_on_c, 0, 64, 57
3, 25867, Note_on_c, 0, 60, 64
3, 25868, Note_on_c, 0, 55, 57
3, 25871, Note_on_c, 0, 57, 49
3, 25877, Control_c, 0, 64, 0
3, 25878, Note_on_c, 0, 57, 0
3, 25885, Note_on_c, 0, 60, 0
3, 25889, Note_on_c, 0, 64, 0
3, 25899, Note_on_c, 0, 55, 0
3, 25913, Control_c, 0, 64, 127
3, 25963, Note_on_c, 0, 59, 58
3, 25963, Note_on_c, 0, 64, 58
3, 25964, Note_on_c, 0, 56, 55
3, 25969, Note_on_c, 0, 53, 33
3, 25970, Control_c, 0, 64, 0
3, 25985, Note_on_c, 0, 56, 0
3, 25986, Note_on_c, 0, 43, 0
3, 25987, Note_on_c, 0, 59, 0
3, 25994, Control_c, 0, 64, 127
3, 25996, Note_on_c, 0, 53, 0
3, 25997, Note_on_c, 0, 64, 0
3, 26066, Note_on_c, 0, 69, 83
3, 26082, Note_on_c, 0, 36, 38
3, 26088, Control_c, 0, 64, 0
3, 26090, Note_on_c, 0, 36, 0
3, 26092, Note_on_c, 0, 69, 0
3, 26107, Control_c, 0, 64, 127
3, 26109, Note_on_c, 0, 67, 27
3, 26138, Note_on_c, 0, 67, 0
3, 26165, Note_on_c, 0, 74, 79
3, 26192, Note_on_c, 0, 62, 34
3, 26193, Note_on_c, 0, 74, 0
3, 26194, Control_c, 0, 64, 0
3, 26196, Note_on_c, 0, 52, 35
3, 26197, Note_on_c, 0, 57, 35
3, 26199, Note_on_c, 0, 62, 0
3, 26204, Note_on_c, 0, 57, 0
3, 26205, Note_on_c, 0, 72, 30
3, 26218, Note_on_c, 0, 52, 0
3, 26230, Note_on_c, 0, 72, 0
3, 26230, Control_c, 0, 64, 127
3, 26261, Note_on_c, 0, 81, 75
3, 26267, Note_on_c, 0, 54, 49
3, 26270, Note_on_c, 0, 55, 56
3, 26277, Control_c, 0, 64, 0
3, 26285, Note_on_c, 0, 54, 0
3, 26291, Note_on_c, 0, 81, 0
3, 26307, Note_on_c, 0, 79, 34
3, 26308, Control_c, 0, 64, 127
3, 26330, Note_on_c, 0, 79, 0
3, 26356, Note_on_c, 0, 86, 82
3, 26371, Control_c, 0, 64, 0
3, 26371, Note_on_c, 0, 43, 38
3, 26378, Note_on_c, 0, 86, 0
3, 26379, Note_on_c, 0, 43, 0
3, 26391, Note_on_c, 0, 55, 0
3, 26395, Control_c, 0, 64, 127
3, 26397, Note_on_c, 0, 84, 34
3, 26418, Note_on_c, 0, 84, 0
3, 26451, Note_on_c, 0, 93, 89
3, 26474, Note_on_c, 0, 93, 0
3, 26479, Control_c, 0, 64, 0
3, 26486, Note_on_c, 0, 62, 40
3, 26487, Note_on_c, 0, 91, 69
3, 26491, Note_on_c, 0, 57, 26
3, 26500, Note_on_c, 0, 57, 0
3, 26504, Note_on_c, 0, 62, 0
3, 26505, Control_c, 0, 64, 127
3, 26526, Note_on_c, 0, 91, 0
3, 26548, Note_on_c, 0, 88, 66
3, 26567, Note_on_c, 0, 88, 0
3, 26573, Control_c, 0, 64, 0
3, 26576, Note_on_c, 0, 64, 35
3, 26579, Note_on_c, 0, 84, 59
3, 26584, Note_on_c, 0, 64, 0
3, 26595, Control_c, 0, 64, 127
3, 26624, Note_on_c, 0, 84, 0
3, 26640, Note_on_c, 0, 79, 56
3, 26658, Note_on_c, 0, 79, 0
3, 26660, Control_c, 0, 64, 0
3, 26661, Note_on_c, 0, 62, 44
3, 26669, Note_on_c, 0, 62, 0
3, 26670, Note_on_c, 0, 84, 54
3, 26671, Note_on_c, 0, 77, 49
3, 26678, Control_c, 0, 64, 127
3, 26724, Note_on_c, 0, 77, 0
3, 26730, Note_on_c, 0, 40, 57
3, 26736, Note_on_c, 0, 40, 0
3, 26741, Note_on_c, 0, 84, 0
3, 26752, Control_c, 0, 64, 0
3, 26762, Note_on_c, 0, 39, 53
3, 26769, Note_on_c, 0, 51, 31
3, 26772, Control_c, 0, 64, 127
3, 26834, Note_on_c, 0, 51, 0
3, 26838, Note_on_c, 0, 39, 0
3, 26846, Control_c, 0, 64, 0
3, 26854, Note_on_c, 0, 50, 54
3, 26856, Note_on_c, 0, 38, 37
3, 26857, Note_on_c, 0, 86, 78
3, 26857, Note_on_c, 0, 80, 71
3, 26857, Note_on_c, 0, 76, 80
3, 26860, Note_on_c, 0, 83, 50
3, 26863, Note_on_c, 0, 38, 0
3, 26868, Note_on_c, 0, 50, 0
3, 26883, Note_on_c, 0, 83, 0
3, 26887, Control_c, 0, 64, 127
3, 26889, Note_on_c, 0, 80, 0
3, 26896, Note_on_c, 0, 76, 0
3, 26909, Note_on_c, 0, 83, 40
3, 26913, Note_on_c, 0, 84, 17
3, 26917, Note_on_c, 0, 86, 0
3, 26918, Note_on_c, 0, 80, 46
3, 26921, Note_on_c, 0, 84, 0
3, 26925, Note_on_c, 0, 83, 0
3, 26929, Note_on_c, 0, 80, 0
3, 26931, Note_on_c, 0, 76, 47
3, 26940, Note_on_c, 0, 76, 0
3, 26949, Note_on_c, 0, 60, 30
3, 26950, Note_on_c, 0, 54, 27
3, 26952, Note_on_c, 0, 83, 50
3, 26953, Note_on_c, 0, 76, 51
3, 26954, Control_c, 0, 64, 0
3, 26956, Note_on_c, 0, 60, 0
3, 26964, Note_on_c, 0, 54, 0
3, 26983, Control_c, 0, 64, 127
3, 26993, Note_on_c, 0, 76, 0
3, 27004, Note_on_c, 0, 83, 0
3, 27012, Note_on_c, 0, 80, 50
3, 27016, Note_on_c, 0, 76, 32
3, 27016, Note_on_c, 0, 71, 27
3, 27025, Note_on_c, 0, 76, 0
3, 27026, Note_on_c, 0, 80, 0
3, 27026, Control_c, 0, 64, 0
3, 27027, Note_on_c, 0, 71, 0
3, 27036, Note_on_c, 0, 54, 30
3, 27041, Note_on_c, 0, 45, 36
3, 27048, Control_c, 0, 64, 127
3, 27068, Note_on_c, 0, 45, 0
3, 27088, Note_on_c, 0, 54, 0
3, 27137, Control_c, 0, 64, 0
3, 27143, Note_on_c, 0, 55, 62
3, 27149, Note_on_c, 0, 55, 0
3, 27169, Control_c, 0, 64, 127
3, 27204, Note_on_c, 0, 45, 70
3, 27230, Control_c, 0, 64, 0
3, 27237, Note_on_c, 0, 66, 46
3, 27239, Note_on_c, 0, 54, 42
3, 27240, Note_on_c, 0, 64, 50
3, 27242, Note_on_c, 0, 60, 39
3, 27253, Note_on_c, 0, 45, 0
3, 27257, Control_c, 0, 64, 127
3, 27258, Note_on_c, 0, 54, 0
3, 27279, Note_on_c, 0, 64, 0
3, 27288, Note_on_c, 0, 66, 0
3, 27289, Note_on_c, 0, 60, 0
3, 27300, Note_on_c, 0, 41, 71
3, 27319, Note_on_c, 0, 41, 0
3, 27330, Note_on_c, 0, 54, 76
3, 27337, Control_c, 0, 64, 0
3, 27378, Control_c, 0, 64, 127
3, 27391, Note_on_c, 0, 38, 90
3, 27407, Control_c, 0, 64, 0
3, 27464, Note_on_c, 0, 38, 0
3, 27466, Note_on_c, 0, 37, 34
3, 27473, Note_on_c, 0, 54, 0
3, 27479, Control_c, 0, 64, 127
3, 27480, Note_on_c, 0, 37, 0
3, 27484, Note_on_c, 0, 40, 65
3, 27484, Note_on_c, 0, 55, 75
3, 27513, Note_on_c, 0, 40, 0
3, 27519, Note_on_c, 0, 55, 0
3, 27525, Control_c, 0, 64, 0
3, 27525, Note_on_c, 0, 56, 53
3, 27527, Note_on_c, 0, 41, 52
3, 27559, Note_on_c, 0, 56, 0
3, 27565, Note_on_c, 0, 41, 0
3, 27575, Control_c, 0, 64, 127
3, 27581, Note_on_c, 0, 42, 62
3, 27591, Note_on_c, 0, 57, 36
3, 27602, Note_on_c, 0, 57, 0
3, 27603, Note_on_c, 0, 42, 0
3, 27604, Control_c, 0, 64, 0
3, 27619, Note_on_c, 0, 43, 62
3, 27619, Note_on_c, 0, 60, 73
3, 27621, Note_on_c, 0, 57, 32
3, 27624, Note_on_c, 0, 53, 29
3, 27628, Control_c, 0, 64, 127
3, 27631, Note_on_c, 0, 53, 0
3, 27635, Note_on_c, 0, 57, 0
3, 27636, Note_on_c, 0, 43, 0
3, 27641, Note_on_c, 0, 60, 0
3, 27681, Note_on_c, 0, 67, 57
3, 27683, Note_on_c, 0, 57, 59
3, 27684, Note_on_c, 0, 60, 66
3, 27686, Note_on_c, 0, 55, 78
3, 27686, Note_on_c, 0, 64, 49
3, 27697, Note_on_c, 0, 57, 0
3, 27698, Note_on_c, 0, 60, 0
3, 27698, Control_c, 0, 64, 0
3, 27699, Note_on_c, 0, 64, 0
3, 27703, Note_on_c, 0, 67, 0
3, 27706, Note_on_c, 0, 55, 0
3, 27720, Note_on_c, 0, 43, 42
3, 27729, Control_c, 0, 64, 127
3, 27772, Control_c, 0, 64, 0
3, 27776, Note_on_c, 0, 64, 55
3, 27778, Note_on_c, 0, 60, 58
3, 27779, Note_on_c, 0, 57, 55
3, 27782, Note_on_c, 0, 55, 62
3, 27794, Control_c, 0, 64, 127
3, 27797, Note_on_c, 0, 57, 0
3, 27803, Note_on_c, 0, 60, 0
3, 27804, Note_on_c, 0, 64, 0
3, 27828, Note_on_c, 0, 55, 0
3, 27874, Note_on_c, 0, 65, 75
3, 27875, Note_on_c, 0, 72, 66
3, 27875, Note_on_c, 0, 55, 61
3, 27876, Note_on_c, 0, 60, 65
3, 27877, Note_on_c, 0, 43, 0
3, 27877, Note_on_c, 0, 69, 51
3, 27882, Note_on_c, 0, 60, 0
3, 27884, Note_on_c, 0, 69, 0
3, 27887, Note_on_c, 0, 65, 0
3, 27890, Note_on_c, 0, 72, 0
3, 27895, Control_c, 0, 64, 0
3, 27910, Note_on_c, 0, 43, 41
3, 27911, Note_on_c, 0, 55, 0
3, 27916, Control_c, 0, 64, 127
3, 27965, Note_on_c, 0, 68, 69
3, 27967, Note_on_c, 0, 63, 64
3, 27968, Note_on_c, 0, 59, 56
3, 27970, Note_on_c, 0, 53, 54
3, 27972, Control_c, 0, 64, 0
3, 28006, Control_c, 0, 64, 127
3, 28020, Note_on_c, 0, 43, 0
3, 28061, Note_on_c, 0, 43, 53
3, 28080, Note_on_c, 0, 43, 0
3, 28100, Note_on_c, 0, 43, 42
3, 28101, Note_on_c, 0, 53, 0
3, 28105, Note_on_c, 0, 59, 0
3, 28105, Note_on_c, 0, 63, 0
3, 28124, Note_on_c, 0, 68, 0
3, 28162, Note_on_c, 0, 70, 78
3, 28164, Note_on_c, 0, 63, 67
3, 28165, Note_on_c, 0, 59, 74
3, 28165, Control_c, 0, 64, 0
3, 28166, Note_on_c, 0, 53, 52
3, 28173, Note_on_c, 0, 53, 0
3, 28173, Note_on_c, 0, 59, 0
3, 28175, Note_on_c, 0, 63, 0
3, 28176, Note_on_c, 0, 70, 0
3, 28184, Note_on_c, 0, 43, 0
3, 28227, Control_c, 0, 64, 127
3, 28247, Control_c, 0, 64, 0
3, 28252, Note_on_c, 0, 53, 49
3, 28255, Note_on_c, 0, 43, 34
3, 28255, Note_on_c, 0, 68, 64
3, 28256, Note_on_c, 0, 63, 69
3, 28257, Note_on_c, 0, 59, 65
3, 28260, Note_on_c, 0, 53, 0
3, 28270, Note_on_c, 0, 43, 0
3, 28272, Note_on_c, 0, 59, 0
3, 28273, Note_on_c, 0, 68, 0
3, 28276, Control_c, 0, 64, 127
3, 28278, Note_on_c, 0, 63, 0
3, 28336, Note_on_c, 0, 67, 66
3, 28339, Note_on_c, 0, 59, 68
3, 28339, Note_on_c, 0, 62, 62
3, 28341, Control_c, 0, 64, 0
3, 28342, Note_on_c, 0, 36, 41
3, 28342, Note_on_c, 0, 48, 38
3, 28344, Note_on_c, 0, 67, 0
3, 28345, Note_on_c, 0, 62, 0
3, 28346, Note_on_c, 0, 59, 0
3, 28349, Note_on_c, 0, 48, 0
3, 28349, Note_on_c, 0, 36, 0
3, 28364, Control_c, 0, 64, 127
3, 28412, Note_on_c, 0, 49, 58
3, 28420, Note_on_c, 0, 50, 73
3, 28422, Note_on_c, 0, 58, 74
3, 28422, Note_on_c, 0, 63, 70
3, 28423, Note_on_c, 0, 55, 83
3, 28424, Control_c, 0, 64, 0
3, 28424, Note_on_c, 0, 52, 82
3, 28427, Note_on_c, 0, 51, 88
3, 28431, Note_on_c, 0, 61, 28
3, 28432, Note_on_c, 0, 50, 0
3, 28436, Note_on_c, 0, 49, 0
3, 28444, Note_on_c, 0, 52, 0
3, 28448, Note_on_c, 0, 55, 0
3, 28449, Control_c, 0, 64, 127
3, 28457, Note_on_c, 0, 61, 0
3, 28457, Note_on_c, 0, 58, 0
3, 28460, Note_on_c, 0, 63, 0
3, 28488, Note_on_c, 0, 51, 0
3, 28500, Note_on_c, 0, 51, 47
3, 28503, Note_on_c, 0, 50, 50
3, 28510, Note_on_c, 0, 52, 60
3, 28511, Note_on_c, 0, 50, 0
3, 28515, Note_on_c, 0, 66, 74
3, 28516, Note_on_c, 0, 52, 0
3, 28516, Note_on_c, 0, 53, 81
3, 28516, Note_on_c, 0, 61, 75
3, 28516, Note_on_c, 0, 58, 83
3, 28517, Note_on_c, 0, 55, 89
3, 28519, Control_c, 0, 64, 0
3, 28523, Note_on_c, 0, 54, 37
3, 28528, Note_on_c, 0, 53, 0
3, 28535, Note_on_c, 0, 51, 0
3, 28539, Note_on_c, 0, 55, 0
3, 28545, Control_c, 0, 64, 127
3, 28546, Note_on_c, 0, 58, 0
3, 28548, Note_on_c, 0, 66, 0
3, 28549, Note_on_c, 0, 61, 0
3, 28576, Note_on_c, 0, 51, 26
3, 28580, Note_on_c, 0, 53, 54
3, 28592, Note_on_c, 0, 51, 0
3, 28600, Note_on_c, 0, 53, 0
3, 28600, Note_on_c, 0, 56, 73
3, 28601, Note_on_c, 0, 69, 74
3, 28603, Note_on_c, 0, 61, 74
3, 28603, Note_on_c, 0, 64, 75
3, 28604, Note_on_c, 0, 58, 79
3, 28606, Control_c, 0, 64, 0
3, 28606, Note_on_c, 0, 57, 87
3, 28614, Note_on_c, 0, 56, 0
3, 28614, Note_on_c, 0, 67, 18
3, 28617, Note_on_c, 0, 54, 0
3, 28624, Note_on_c, 0, 67, 0
3, 28628, Note_on_c, 0, 58, 0
3, 28630, Note_on_c, 0, 61, 0
3, 28631, Note_on_c, 0, 64, 0
3, 28632, Note_on_c, 0, 69, 0
3, 28648, Control_c, 0, 64, 127
3, 28670, Note_on_c, 0, 56, 28
3, 28678, Note_on_c, 0, 58, 55
3, 28686, Note_on_c, 0, 72, 82
3, 28686, Note_on_c, 0, 59, 64
3, 28687, Note_on_c, 0, 56, 0
3, 28688, Note_on_c, 0, 57, 0
3, 28689, Note_on_c, 0, 61, 81
3, 28690, Control_c, 0, 64, 0
3, 28691, Note_on_c, 0, 58, 0
3, 28691, Note_on_c, 0, 68, 48
3, 28691, Note_on_c, 0, 65, 76
3, 28693, Note_on_c, 0, 60, 81
3, 28706, Note_on_c, 0, 59, 0
3, 28708, Note_on_c, 0, 65, 0
3, 28710, Note_on_c, 0, 61, 0
3, 28714, Note_on_c, 0, 68, 0
3, 28716, Note_on_c, 0, 72, 0
3, 28720, Control_c, 0, 64, 127
3, 28759, Note_on_c, 0, 58, 36
3, 28765, Note_on_c, 0, 61, 56
3, 28773, Note_on_c, 0, 58, 0
3, 28775, Note_on_c, 0, 62, 62
3, 28776, Note_on_c, 0, 75, 83
3, 28777, Note_on_c, 0, 70, 76
3, 28777, Note_on_c, 0, 64, 84
3, 28778, Note_on_c, 0, 60, 0
3, 28778, Note_on_c, 0, 67, 75
3, 28782, Note_on_c, 0, 62, 0
3, 28782, Control_c, 0, 64, 0
3, 28784, Note_on_c, 0, 63, 68
3, 28786, Note_on_c, 0, 73, 18
3, 28796, Note_on_c, 0, 67, 0
3, 28797, Note_on_c, 0, 64, 0
3, 28802, Note_on_c, 0, 70, 0
3, 28803, Note_on_c, 0, 61, 0
3, 28804, Note_on_c, 0, 73, 0
3, 28805, Note_on_c, 0, 75, 0
3, 28807, Control_c, 0, 64, 127
3, 28862, Note_on_c, 0, 70, 77
3, 28862, Note_on_c, 0, 78, 73
3, 28862, Note_on_c, 0, 73, 54
3, 28863, Note_on_c, 0, 67, 79
3, 28864, Note_on_c, 0, 66, 63
3, 28867, Control_c, 0, 64, 0
3, 28868, Note_on_c, 0, 68, 71
3, 28875, Note_on_c, 0, 67, 0
3, 28875, Note_on_c, 0, 70, 0
3, 28877, Note_on_c, 0, 63, 0
3, 28880, Note_on_c, 0, 73, 0
3, 28881, Note_on_c, 0, 66, 0
3, 28883, Note_on_c, 0, 78, 0
3, 28890, Control_c, 0, 64, 127
3, 28894, Note_on_c, 0, 68, 0
3, 28922, Note_on_c, 0, 66, 13
3, 28941, Note_on_c, 0, 66, 0
3, 28949, Note_on_c, 0, 68, 68
3, 28951, Note_on_c, 0, 69, 74
3, 28951, Note_on_c, 0, 76, 64
3, 28951, Note_on_c, 0, 73, 53
3, 28952, Note_on_c, 0, 81, 63
3, 28953, Note_on_c, 0, 70, 62
3, 28954, Note_on_c, 0, 66, 29
3, 28958, Note_on_c, 0, 69, 0
3, 28960, Note_on_c, 0, 79, 27
3, 28960, Control_c, 0, 64, 0
3, 28962, Note_on_c, 0, 68, 0
3, 28963, Note_on_c, 0, 70, 0
3, 28964, Note_on_c, 0, 66, 0
3, 28967, Note_on_c, 0, 73, 0
3, 28970, Note_on_c, 0, 76, 0
3, 28970, Note_on_c, 0, 79, 0
3, 28974, Note_on_c, 0, 81, 0
3, 28980, Control_c, 0, 64, 127
3, 28999, Note_on_c, 0, 82, 25
3, 29008, Note_on_c, 0, 82, 0
3, 29043, Note_on_c, 0, 48, 52
3, 29043, Note_on_c, 0, 84, 58
3, 29043, Note_on_c, 0, 74, 55
3, 29049, Note_on_c, 0, 84, 0
3, 29053, Note_on_c, 0, 48, 0
3, 29054, Note_on_c, 0, 74, 0
3, 29068, Note_on_c, 0, 50, 47
3, 29069, Note_on_c, 0, 41, 50
3, 29071, Control_c, 0, 64, 0
3, 29073, Note_on_c, 0, 86, 56
3, 29077, Note_on_c, 0, 41, 0
3, 29079, Note_on_c, 0, 74, 24
3, 29080, Note_on_c, 0, 50, 0
3, 29080, Note_on_c, 0, 76, 22
3, 29083, Note_on_c, 0, 77, 18
3, 29102, Note_on_c, 0, 81, 1
3, 29121, Note_on_c, 0, 86, 0
3, 29122, Note_on_c, 0, 76, 0
3, 29124, Note_on_c, 0, 77, 0
3, 29125, Note_on_c, 0, 74, 0
3, 29127, Control_c, 0, 64, 127
3, 29133, Note_on_c, 0, 81, 0
3, 29161, Control_c, 0, 64, 0
3, 29167, Note_on_c, 0, 84, 36
3, 29167, Note_on_c, 0, 77, 33
3, 29168, Note_on_c, 0, 62, 44
3, 29171, Note_on_c, 0, 81, 29
3, 29172, Note_on_c, 0, 72, 18
3, 29174, Note_on_c, 0, 62, 0
3, 29175, Note_on_c, 0, 53, 15
3, 29178, Note_on_c, 0, 57, 34
3, 29185, Note_on_c, 0, 57, 0
3, 29187, Note_on_c, 0, 53, 0
3, 29200, Note_on_c, 0, 77, 0
3, 29201, Note_on_c, 0, 72, 0
3, 29210, Note_on_c, 0, 81, 0
3, 29218, Note_on_c, 0, 84, 0
3, 29258, Note_on_c, 0, 36, 43
3, 29259, Note_on_c, 0, 81, 35
3, 29266, Note_on_c, 0, 36, 0
3, 29290, Note_on_c, 0, 81, 0
3, 29305, Control_c, 0, 64, 127
3, 29347, Control_c, 0, 64, 0
3, 29349, Note_on_c, 0, 64, 64
3, 29350, Note_on_c, 0, 58, 55
3, 29362, Note_on_c, 0, 64, 0
3, 29368, Note_on_c, 0, 58, 0
3, 29379, Control_c, 0, 64, 127
3, 29413, Note_on_c, 0, 48, 73
3, 29414, Note_on_c, 0, 84, 74
3, 29414, Note_on_c, 0, 74, 84
3, 29414, Note_on_c, 0, 86, 74
3, 29419, Control_c, 0, 64, 0
3, 29436, Note_on_c, 0, 48, 0
3, 29438, Note_on_c, 0, 84, 0
3, 29446, Note_on_c, 0, 50, 58
3, 29448, Note_on_c, 0, 41, 51
3, 29450, Control_c, 0, 64, 127
3, 29455, Note_on_c, 0, 41, 0
3, 29457, Note_on_c, 0, 50, 0
3, 29488, Note_on_c, 0, 74, 0
3, 29488, Note_on_c, 0, 86, 0
3, 29513, Note_on_c, 0, 86, 70
3, 29513, Note_on_c, 0, 74, 84
3, 29514, Note_on_c, 0, 88, 85
3, 29517, Note_on_c, 0, 80, 44
3, 29523, Note_on_c, 0, 80, 0
3, 29529, Control_c, 0, 64, 0
3, 29530, Note_on_c, 0, 62, 48
3, 29534, Note_on_c, 0, 60, 34
3, 29536, Note_on_c, 0, 62, 0
3, 29539, Note_on_c, 0, 57, 35
3, 29540, Note_on_c, 0, 60, 0
3, 29540, Note_on_c, 0, 53, 30
3, 29545, Note_on_c, 0, 88, 0
3, 29546, Note_on_c, 0, 57, 0
3, 29550, Note_on_c, 0, 53, 0
3, 29556, Control_c, 0, 64, 127
3, 29564, Note_on_c, 0, 86, 0
3, 29571, Note_on_c, 0, 74, 0
3, 29596, Note_on_c, 0, 84, 67
3, 29604, Note_on_c, 0, 74, 30
3, 29611, Note_on_c, 0, 74, 0
3, 29612, Control_c, 0, 64, 0
3, 29613, Note_on_c, 0, 36, 58
3, 29621, Note_on_c, 0, 36, 0
3, 29621, Note_on_c, 0, 84, 0
3, 29630, Note_on_c, 0, 81, 63
3, 29634, Control_c, 0, 64, 127
3, 29658, Note_on_c, 0, 81, 0
3, 29710, Note_on_c, 0, 62, 64
3, 29711, Control_c, 0, 64, 0
3, 29712, Note_on_c, 0, 60, 54
3, 29714, Note_on_c, 0, 53, 45
3, 29716, Note_on_c, 0, 62, 0
3, 29716, Note_on_c, 0, 57, 43
3, 29717, Note_on_c, 0, 72, 68
3, 29718, Note_on_c, 0, 60, 0
3, 29718, Note_on_c, 0, 84, 64
3, 29722, Note_on_c, 0, 57, 0
3, 29730, Note_on_c, 0, 53, 0
3, 29740, Control_c, 0, 64, 127
3, 29741, Note_on_c, 0, 72, 0
3, 29750, Note_on_c, 0, 84, 0
3, 29776, Note_on_c, 0, 48, 35
3, 29793, Note_on_c, 0, 48, 0
3, 29793, Control_c, 0, 64, 0
3, 29804, Note_on_c, 0, 41, 73
3, 29806, Note_on_c, 0, 86, 88
3, 29807, Note_on_c, 0, 74, 90
3, 29807, Note_on_c, 0, 52, 55
3, 29807, Note_on_c, 0, 80, 77
3, 29809, Note_on_c, 0, 76, 71
3, 29814, Note_on_c, 0, 52, 0
3, 29815, Note_on_c, 0, 76, 0
3, 29819, Note_on_c, 0, 41, 0
3, 29823, Control_c, 0, 64, 127
3, 29847, Note_on_c, 0, 80, 0
3, 29851, Note_on_c, 0, 86, 0
3, 29857, Note_on_c, 0, 74, 0
3, 29892, Control_c, 0, 64, 0
3, 29893, Note_on_c, 0, 62, 62
3, 29895, Note_on_c, 0, 84, 61
3, 29896, Note_on_c, 0, 60, 56
3, 29896, Note_on_c, 0, 56, 37
3, 29896, Note_on_c, 0, 53, 44
3, 29898, Note_on_c, 0, 72, 64
3, 29899, Note_on_c, 0, 77, 57
3, 29900, Note_on_c, 0, 62, 0
3, 29900, Note_on_c, 0, 81, 39
3, 29903, Note_on_c, 0, 60, 0
3, 29911, Note_on_c, 0, 81, 0
3, 29913, Note_on_c, 0, 56, 0
3, 29915, Control_c, 0, 64, 127
3, 29916, Note_on_c, 0, 53, 0
3, 29917, Note_on_c, 0, 84, 0
3, 29917, Note_on_c, 0, 77, 0
3, 29923, Note_on_c, 0, 72, 0
3, 29971, Control_c, 0, 64, 0
3, 29983, Note_on_c, 0, 68, 52
3, 29983, Note_on_c, 0, 41, 58
3, 29985, Note_on_c, 0, 80, 21
3, 29990, Note_on_c, 0, 41, 0
3, 29993, Note_on_c, 0, 68, 0
3, 30000, Control_c, 0, 64, 127
3, 30003, Note_on_c, 0, 80, 0
3, 30051, Note_on_c, 0, 84, 74
3, 30051, Note_on_c, 0, 72, 70
3, 30053, Note_on_c, 0, 77, 38
3, 30061, Note_on_c, 0, 77, 0
3, 30061, Note_on_c, 0, 72, 0
3, 30064, Note_on_c, 0, 62, 64
3, 30066, Note_on_c, 0, 60, 49
3, 30067, Note_on_c, 0, 84, 0
3, 30067, Control_c, 0, 64, 0
3, 30067, Note_on_c, 0, 56, 37
3, 30071, Note_on_c, 0, 62, 0
3, 30071, Note_on_c, 0, 53, 27
3, 30074, Note_on_c, 0, 60, 0
3, 30081, Note_on_c, 0, 53, 0
3, 30084, Note_on_c, 0, 56, 0
3, 30089, Control_c, 0, 64, 127
3, 30132, Control_c, 0, 64, 0
3, 30135, Note_on_c, 0, 86, 74
3, 30135, Note_on_c, 0, 77, 80
3, 30136, Note_on_c, 0, 74, 87
3, 30137, Note_on_c, 0, 84, 75
3, 30137, Note_on_c, 0, 81, 68
3, 30143, Note_on_c, 0, 41, 68
3, 30145, Note_on_c, 0, 53, 44
3, 30149, Note_on_c, 0, 41, 0
3, 30151, Note_on_c, 0, 53, 0
3, 30159, Note_on_c, 0, 77, 0
3, 30159, Note_on_c, 0, 81, 0
3, 30159, Control_c, 0, 64, 127
3, 30160, Note_on_c, 0, 74, 0
3, 30162, Note_on_c, 0, 86, 0
3, 30163, Note_on_c, 0, 84, 0
3, 30181, Note_on_c, 0, 84, 37
3, 30187, Note_on_c, 0, 84, 0
3, 30221, Note_on_c, 0, 84, 69
3, 30223, Note_on_c, 0, 77, 79
3, 30225, Note_on_c, 0, 72, 76
3, 30231, Control_c, 0, 64, 0
3, 30233, Note_on_c, 0, 72, 0
3, 30233, Note_on_c, 0, 62, 64
3, 30235, Note_on_c, 0, 60, 47
3, 30236, Note_on_c, 0, 77, 0
3, 30236, Note_on_c, 0, 56, 34
3, 30237, Note_on_c, 0, 53, 39
3, 30239, Note_on_c, 0, 84, 0
3, 30239, Note_on_c, 0, 62, 0
3, 30241, Note_on_c, 0, 60, 0
3, 30253, Note_on_c, 0, 53, 0
3, 30253, Note_on_c, 0, 56, 0
3, 30255, Control_c, 0, 64, 127
3, 30305, Note_on_c, 0, 40, 80
3, 30307, Note_on_c, 0, 74, 68
3, 30308, Note_on_c, 0, 81, 57
3, 30308, Note_on_c, 0, 69, 73
3, 30311, Note_on_c, 0, 77, 35
3, 30315, Note_on_c, 0, 69, 0
3, 30316, Note_on_c, 0, 74, 0
3, 30317, Note_on_c, 0, 81, 0
3, 30319, Note_on_c, 0, 77, 0
3, 30323, Control_c, 0, 64, 0
3, 30340, Note_on_c, 0, 52, 54
3, 30385, Note_on_c, 0, 52, 0
3, 30394, Control_c, 0, 64, 127
3, 30398, Note_on_c, 0, 44, 53
3, 30399, Note_on_c, 0, 40, 0
3, 30404, Note_on_c, 0, 44, 0
3, 30409, Note_on_c, 0, 45, 38
3, 30415, Control_c, 0, 64, 0
3, 30418, Note_on_c, 0, 45, 0
3, 30428, Note_on_c, 0, 39, 62
3, 30429, Note_on_c, 0, 51, 59
3, 30452, Control_c, 0, 64, 127
3, 30492, Note_on_c, 0, 51, 0
3, 30504, Control_c, 0, 64, 0
3, 30507, Note_on_c, 0, 39, 0
3, 30513, Note_on_c, 0, 38, 59
3, 30519, Note_on_c, 0, 50, 29
3, 30524, Note_on_c, 0, 38, 0
3, 30531, Control_c, 0, 64, 127
3, 30532, Note_on_c, 0, 50, 0
3, 30592, Control_c, 0, 64, 0
3, 30598, Note_on_c, 0, 64, 69
3, 30599, Note_on_c, 0, 87, 94
3, 30599, Note_on_c, 0, 75, 102
3, 30601, Note_on_c, 0, 56, 48
3, 30601, Note_on_c, 0, 81, 80
3, 30603, Note_on_c, 0, 84, 60
3, 30609, Note_on_c, 0, 84, 0
3, 30613, Note_on_c, 0, 64, 0
3, 30621, Note_on_c, 0, 56, 0
3, 30633, Note_on_c, 0, 81, 0
3, 30643, Control_c, 0, 64, 127
3, 30645, Note_on_c, 0, 87, 0
3, 30647, Note_on_c, 0, 75, 0
3, 30659, Control_c, 0, 64, 0
3, 30660, Note_on_c, 0, 88, 66
3, 30662, Note_on_c, 0, 76, 54
3, 30667, Note_on_c, 0, 81, 41
3, 30667, Note_on_c, 0, 84, 37
3, 30673, Note_on_c, 0, 88, 0
3, 30674, Note_on_c, 0, 76, 0
3, 30681, Note_on_c, 0, 81, 0
3, 30685, Note_on_c, 0, 84, 0
3, 30686, Note_on_c, 0, 54, 23
3, 30687, Note_on_c, 0, 45, 24
3, 30690, Note_on_c, 0, 75, 53
3, 30690, Note_on_c, 0, 87, 53
3, 30695, Note_on_c, 0, 45, 0
3, 30699, Note_on_c, 0, 81, 22
3, 30705, Note_on_c, 0, 54, 0
3, 30706, Control_c, 0, 64, 127
3, 30721, Note_on_c, 0, 81, 0
3, 30729, Note_on_c, 0, 87, 0
3, 30737, Note_on_c, 0, 75, 0
3, 30753, Note_on_c, 0, 88, 36
3, 30754, Note_on_c, 0, 81, 53
3, 30756, Note_on_c, 0, 84, 40
3, 30758, Control_c, 0, 64, 0
3, 30761, Note_on_c, 0, 88, 0
3, 30765, Note_on_c, 0, 84, 0
3, 30765, Note_on_c, 0, 60, 58
3, 30766, Note_on_c, 0, 54, 46
3, 30771, Note_on_c, 0, 60, 0
3, 30771, Note_on_c, 0, 81, 0
3, 30776, Note_on_c, 0, 87, 70
3, 30779, Note_on_c, 0, 75, 53
3, 30781, Note_on_c, 0, 54, 0
3, 30789, Control_c, 0, 64, 127
3, 30791, Note_on_c, 0, 81, 17
3, 30802, Note_on_c, 0, 81, 0
3, 30817, Note_on_c, 0, 87, 0
3, 30818, Note_on_c, 0, 75, 0
3, 30835, Note_on_c, 0, 88, 65
3, 30839, Note_on_c, 0, 81, 48
3, 30843, Note_on_c, 0, 88, 0
3, 30845, Control_c, 0, 64, 0
3, 30849, Note_on_c, 0, 81, 0
3, 30856, Note_on_c, 0, 54, 38
3, 30856, Note_on_c, 0, 45, 44
3, 30864, Note_on_c, 0, 84, 58
3, 30866, Note_on_c, 0, 45, 0
3, 30868, Note_on_c, 0, 72, 37
3, 30870, Control_c, 0, 64, 127
3, 30877, Note_on_c, 0, 54, 0
3, 30907, Note_on_c, 0, 72, 0
3, 30913, Note_on_c, 0, 84, 0
3, 30924, Note_on_c, 0, 72, 57
3, 30925, Note_on_c, 0, 81, 60
3, 30931, Note_on_c, 0, 81, 0
3, 30935, Note_on_c, 0, 72, 0
3, 30937, Control_c, 0, 64, 0
3, 30937, Note_on_c, 0, 64, 55
3, 30939, Note_on_c, 0, 60, 62
3, 30940, Note_on_c, 0, 54, 39
3, 30943, Note_on_c, 0, 64, 0
3, 30946, Note_on_c, 0, 60, 0
3, 30956, Note_on_c, 0, 54, 0
3, 30959, Control_c, 0, 64, 127
3, 31005, Note_on_c, 0, 45, 43
3, 31022, Control_c, 0, 64, 0
3, 31030, Note_on_c, 0, 54, 67
3, 31033, Note_on_c, 0, 76, 60
3, 31034, Note_on_c, 0, 72, 64
3, 31034, Note_on_c, 0, 69, 69
3, 31037, Note_on_c, 0, 64, 50
3, 31045, Control_c, 0, 64, 127
3, 31046, Note_on_c, 0, 45, 0
3, 31056, Note_on_c, 0, 54, 0
3, 31078, Note_on_c, 0, 72, 0
3, 31081, Note_on_c, 0, 69, 0
3, 31083, Note_on_c, 0, 64, 0
3, 31104, Note_on_c, 0, 76, 0
3, 31112, Control_c, 0, 64, 0
3, 31120, Note_on_c, 0, 60, 62
3, 31121, Note_on_c, 0, 54, 50
3, 31122, Note_on_c, 0, 72, 64
3, 31122, Note_on_c, 0, 64, 72
3, 31122, Note_on_c, 0, 69, 66
3, 31127, Note_on_c, 0, 60, 0
3, 31132, Control_c, 0, 64, 127
3, 31138, Note_on_c, 0, 72, 0
3, 31139, Note_on_c, 0, 69, 0
3, 31142, Note_on_c, 0, 64, 0
3, 31142, Note_on_c, 0, 54, 0
3, 31208, Control_c, 0, 64, 0
3, 31212, Note_on_c, 0, 68, 77
3, 31213, Note_on_c, 0, 65, 88
3, 31213, Note_on_c, 0, 72, 78
3, 31214, Note_on_c, 0, 60, 84
3, 31216, Note_on_c, 0, 54, 78
3, 31273, Note_on_c, 0, 44, 61
3, 31287, Note_on_c, 0, 72, 0
3, 31287, Control_c, 0, 64, 127
3, 31293, Note_on_c, 0, 44, 0
3, 31294, Note_on_c, 0, 65, 0
3, 31298, Note_on_c, 0, 68, 0
3, 31308, Note_on_c, 0, 44, 54
3, 31309, Note_on_c, 0, 60, 0
3, 31334, Note_on_c, 0, 54, 0
3, 31370, Note_on_c, 0, 62, 58
3, 31371, Note_on_c, 0, 58, 60
3, 31372, Note_on_c, 0, 53, 61
3, 31378, Control_c, 0, 64, 0
3, 31414, Control_c, 0, 64, 127
3, 31427, Note_on_c, 0, 44, 0
3, 31455, Note_on_c, 0, 44, 59
3, 31470, Control_c, 0, 64, 0
3, 31471, Note_on_c, 0, 44, 0
3, 31473, Control_c, 0, 64, 127
3, 31478, Note_on_c, 0, 62, 0
3, 31489, Note_on_c, 0, 44, 54
3, 31494, Note_on_c, 0, 58, 0
3, 31494, Note_on_c, 0, 53, 0
3, 31524, Note_on_c, 0, 44, 0
3, 31548, Note_on_c, 0, 43, 55
3, 31548, Note_on_c, 0, 60, 70
3, 31548, Note_on_c, 0, 53, 50
3, 31548, Note_on_c, 0, 57, 57
3, 31551, Control_c, 0, 64, 0
3, 31555, Note_on_c, 0, 53, 0
3, 31562, Note_on_c, 0, 57, 0
3, 31567, Note_on_c, 0, 60, 0
3, 31601, Control_c, 0, 64, 127
3, 31625, Note_on_c, 0, 70, 83
3, 31645, Note_on_c, 0, 70, 0
3, 31645, Control_c, 0, 64, 0
3, 31647, Note_on_c, 0, 43, 0
3, 31654, Note_on_c, 0, 68, 60
3, 31676, Note_on_c, 0, 68, 0
3, 31682, Note_on_c, 0, 63, 52
3, 31699, Note_on_c, 0, 63, 0
3, 31713, Note_on_c, 0, 59, 40
3, 31731, Note_on_c, 0, 59, 0
3, 31741, Note_on_c, 0, 58, 51
3, 31763, Note_on_c, 0, 58, 0
3, 31777, Note_on_c, 0, 56, 35
3, 31827, Note_on_c, 0, 56, 0
3, 31832, Note_on_c, 0, 55, 64
3, 31833, Note_on_c, 0, 42, 46
3, 31834, Note_on_c, 0, 43, 45
3, 31850, Note_on_c, 0, 43, 0
3, 31851, Note_on_c, 0, 55, 0
3, 31854, Note_on_c, 0, 42, 0
3, 31869, Note_on_c, 0, 53, 55
3, 31899, Note_on_c, 0, 53, 0
3, 31917, Control_c, 0, 64, 127
3, 31925, Note_on_c, 0, 43, 24
3, 31926, Note_on_c, 0, 51, 45
3, 31938, Note_on_c, 0, 43, 0
3, 31944, Control_c, 0, 64, 0
3, 31949, Note_on_c, 0, 51, 0
3, 31958, Note_on_c, 0, 36, 48
3, 31965, Note_on_c, 0, 52, 50
3, 32000, Note_on_c, 0, 52, 0
3, 32011, Control_c, 0, 64, 127
3, 32022, Note_on_c, 0, 55, 59
3, 32024, Note_on_c, 0, 43, 51
3, 32026, Note_on_c, 0, 36, 0
3, 32031, Control_c, 0, 64, 0
3, 32042, Note_on_c, 0, 55, 0
3, 32043, Note_on_c, 0, 43, 0
3, 32053, Note_on_c, 0, 57, 57
3, 32056, Note_on_c, 0, 48, 54
3, 32063, Control_c, 0, 64, 127
3, 32064, Note_on_c, 0, 48, 0
3, 32069, Note_on_c, 0, 57, 0
3, 32117, Note_on_c, 0, 62, 60
3, 32117, Note_on_c, 0, 67, 42
3, 32119, Control_c, 0, 64, 0
3, 32120, Note_on_c, 0, 57, 34
3, 32120, Note_on_c, 0, 52, 51
3, 32121, Note_on_c, 0, 64, 35
3, 32132, Note_on_c, 0, 57, 0
3, 32134, Note_on_c, 0, 52, 0
3, 32138, Note_on_c, 0, 64, 0
3, 32143, Note_on_c, 0, 62, 0
3, 32145, Control_c, 0, 64, 127
3, 32149, Note_on_c, 0, 67, 0
3, 32202, Note_on_c, 0, 71, 62
3, 32203, Note_on_c, 0, 62, 71
3, 32204, Note_on_c, 0, 67, 51
3, 32204, Note_on_c, 0, 59, 63
3, 32204, Note_on_c, 0, 64, 62
3, 32206, Control_c, 0, 64, 0
3, 32218, Note_on_c, 0, 62, 0
3, 32226, Control_c, 0, 64, 127
3, 32227, Note_on_c, 0, 64, 0
3, 32231, Note_on_c, 0, 67, 0
3, 32233, Note_on_c, 0, 71, 0
3, 32257, Note_on_c, 0, 59, 0
3, 32270, Note_on_c, 0, 58, 17
3, 32277, Note_on_c, 0, 58, 0
3, 32284, Note_on_c, 0, 61, 61
3, 32286, Note_on_c, 0, 62, 84
3, 32287, Note_on_c, 0, 74, 74
3, 32289, Note_on_c, 0, 71, 59
3, 32289, Note_on_c, 0, 64, 78
3, 32290, Note_on_c, 0, 61, 0
3, 32290, Note_on_c, 0, 67, 71
3, 32291, Control_c, 0, 64, 0
3, 32294, Note_on_c, 0, 60, 41
3, 32300, Note_on_c, 0, 60, 0
3, 32322, Control_c, 0, 64, 127
3, 32326, Note_on_c, 0, 71, 0
3, 32336, Note_on_c, 0, 67, 0
3, 32342, Note_on_c, 0, 74, 0
3, 32345, Note_on_c, 0, 64, 0
3, 32352, Note_on_c, 0, 62, 0
3, 32375, Note_on_c, 0, 72, 66
3, 32375, Note_on_c, 0, 60, 75
3, 32376, Note_on_c, 0, 67, 66
3, 32376, Note_on_c, 0, 64, 70
3, 32379, Control_c, 0, 64, 0
3, 32380, Note_on_c, 0, 69, 57
3, 32405, Control_c, 0, 64, 127
3, 32406, Note_on_c, 0, 69, 0
3, 32412, Note_on_c, 0, 64, 0
3, 32413, Note_on_c, 0, 60, 0
3, 32418, Note_on_c, 0, 67, 0
3, 32437, Note_on_c, 0, 72, 0
3, 32462, Control_c, 0, 64, 0
3, 32463, Note_on_c, 0, 67, 74
3, 32463, Note_on_c, 0, 62, 72
3, 32465, Note_on_c, 0, 64, 73
3, 32465, Note_on_c, 0, 56, 55
3, 32480, Note_on_c, 0, 62, 0
3, 32488, Control_c, 0, 64, 127
3, 32493, Note_on_c, 0, 56, 0
3, 32499, Note_on_c, 0, 64, 0
3, 32500, Note_on_c, 0, 67, 0
3, 32548, Note_on_c, 0, 72, 64
3, 32550, Note_on_c, 0, 61, 68
3, 32551, Note_on_c, 0, 65, 73
3, 32552, Note_on_c, 0, 45, 61
3, 32553, Control_c, 0, 64, 0
3, 32553, Note_on_c, 0, 55, 55
3, 32554, Note_on_c, 0, 69, 51
3, 32566, Note_on_c, 0, 55, 0
3, 32572, Note_on_c, 0, 69, 0
3, 32573, Note_on_c, 0, 65, 0
3, 32574, Note_on_c, 0, 72, 0
3, 32576, Note_on_c, 0, 61, 0
3, 32578, Control_c, 0, 64, 127
3, 32579, Note_on_c, 0, 45, 0
3, 32632, Control_c, 0, 64, 0
3, 32634, Note_on_c, 0, 71, 54
3, 32635, Note_on_c, 0, 68, 52
3, 32637, Note_on_c, 0, 64, 68
3, 32640, Note_on_c, 0, 59, 40
3, 32640, Note_on_c, 0, 38, 46
3, 32642, Note_on_c, 0, 50, 34
3, 32647, Note_on_c, 0, 59, 0
3, 32654, Note_on_c, 0, 38, 0
3, 32655, Note_on_c, 0, 50, 0
3, 32656, Note_on_c, 0, 64, 0
3, 32657, Control_c, 0, 64, 127
3, 32662, Note_on_c, 0, 68, 0
3, 32664, Note_on_c, 0, 71, 0
3, 32723, Note_on_c, 0, 83, 60
3, 32725, Note_on_c, 0, 76, 58
3, 32725, Note_on_c, 0, 71, 58
3, 32728, Note_on_c, 0, 80, 34
3, 32734, Note_on_c, 0, 80, 0
3, 32739, Note_on_c, 0, 76, 0
3, 32739, Note_on_c, 0, 64, 35
3, 32743, Note_on_c, 0, 71, 0
3, 32746, Note_on_c, 0, 64, 0
3, 32746, Control_c, 0, 64, 0
3, 32747, Note_on_c, 0, 83, 0
3, 32759, Note_on_c, 0, 80, 34
3, 32793, Control_c, 0, 64, 127
3, 32809, Note_on_c, 0, 80, 0
3, 32827, Control_c, 0, 64, 0
3, 32842, Note_on_c, 0, 54, 34
3, 32844, Note_on_c, 0, 45, 37
3, 32846, Note_on_c, 0, 83, 33
3, 32847, Note_on_c, 0, 71, 33
3, 32847, Note_on_c, 0, 80, 29
3, 32848, Note_on_c, 0, 76, 39
3, 32864, Note_on_c, 0, 71, 0
3, 32865, Note_on_c, 0, 76, 0
3, 32867, Note_on_c, 0, 80, 0
3, 32869, Note_on_c, 0, 83, 0
3, 32877, Note_on_c, 0, 45, 0
3, 32881, Control_c, 0, 64, 127
3, 32894, Note_on_c, 0, 54, 0
3, 32915, Control_c, 0, 64, 0
3, 32935, Note_on_c, 0, 46, 39
3, 32937, Note_on_c, 0, 55, 36
3, 32955, Control_c, 0, 64, 127
3, 32967, Note_on_c, 0, 55, 0
3, 32991, Note_on_c, 0, 46, 0
3, 33013, Control_c, 0, 64, 0
3, 33026, Note_on_c, 0, 54, 47
3, 33029, Note_on_c, 0, 45, 41
3, 33030, Note_on_c, 0, 95, 92
3, 33030, Note_on_c, 0, 88, 95
3, 33036, Note_on_c, 0, 45, 0
3, 33050, Note_on_c, 0, 54, 0
3, 33056, Note_on_c, 0, 88, 0
3, 33059, Note_on_c, 0, 92, 64
3, 33060, Note_on_c, 0, 95, 0
3, 33060, Control_c, 0, 64, 127
3, 33062, Note_on_c, 0, 83, 55
3, 33080, Note_on_c, 0, 92, 0
3, 33088, Note_on_c, 0, 83, 0
3, 33116, Control_c, 0, 64, 0
3, 33125, Note_on_c, 0, 54, 34
3, 33127, Note_on_c, 0, 60, 36
3, 33127, Note_on_c, 0, 86, 49
3, 33128, Note_on_c, 0, 88, 61
3, 33133, Note_on_c, 0, 60, 0
3, 33133, Note_on_c, 0, 85, 34
3, 33139, Note_on_c, 0, 54, 0
3, 33143, Note_on_c, 0, 88, 0
3, 33147, Note_on_c, 0, 86, 0
3, 33147, Control_c, 0, 64, 127
3, 33153, Note_on_c, 0, 83, 40
3, 33155, Note_on_c, 0, 76, 45
3, 33181, Note_on_c, 0, 85, 0
3, 33183, Note_on_c, 0, 83, 0
3, 33194, Control_c, 0, 64, 0
3, 33196, Note_on_c, 0, 76, 0
3, 33213, Note_on_c, 0, 54, 38
3, 33214, Note_on_c, 0, 45, 48
3, 33224, Control_c, 0, 64, 127
3, 33227, Note_on_c, 0, 45, 0
3, 33242, Note_on_c, 0, 54, 0
3, 33302, Control_c, 0, 64, 0
3, 33307, Note_on_c, 0, 60, 51
3, 33308, Note_on_c, 0, 65, 36
3, 33310, Note_on_c, 0, 54, 35
3, 33322, Note_on_c, 0, 65, 0
3, 33322, Control_c, 0, 64, 127
3, 33328, Note_on_c, 0, 60, 0
3, 33357, Note_on_c, 0, 54, 0
3, 33396, Control_c, 0, 64, 0
3, 33397, Note_on_c, 0, 64, 74
3, 33400, Note_on_c, 0, 76, 64
3, 33400, Note_on_c, 0, 65, 74
3, 33401, Note_on_c, 0, 69, 64
3, 33402, Note_on_c, 0, 72, 45
3, 33406, Note_on_c, 0, 65, 0
3, 33407, Note_on_c, 0, 69, 0
3, 33409, Note_on_c, 0, 72, 0
3, 33413, Note_on_c, 0, 76, 0
3, 33413, Note_on_c, 0, 64, 0
3, 33426, Note_on_c, 0, 63, 52
3, 33442, Note_on_c, 0, 63, 0
3, 33452, Control_c, 0, 64, 127
3, 33454, Note_on_c, 0, 62, 52
3, 33475, Note_on_c, 0, 62, 0
3, 33482, Note_on_c, 0, 61, 52
3, 33488, Control_c, 0, 64, 0
3, 33501, Note_on_c, 0, 72, 65
3, 33502, Note_on_c, 0, 61, 0
3, 33502, Note_on_c, 0, 65, 68
3, 33504, Note_on_c, 0, 69, 52
3, 33510, Note_on_c, 0, 60, 60
3, 33540, Control_c, 0, 64, 127
3, 33542, Note_on_c, 0, 65, 0
3, 33543, Note_on_c, 0, 69, 0
3, 33554, Note_on_c, 0, 72, 0
3, 33557, Note_on_c, 0, 60, 0
3, 33576, Control_c, 0, 64, 0
3, 33588, Note_on_c, 0, 69, 54
3, 33588, Note_on_c, 0, 57, 60
3, 33589, Note_on_c, 0, 65, 60
3, 33590, Note_on_c, 0, 60, 50
3, 33604, Note_on_c, 0, 65, 0
3, 33604, Note_on_c, 0, 69, 0
3, 33605, Note_on_c, 0, 57, 0
3, 33616, Note_on_c, 0, 60, 0
3, 33656, Note_on_c, 0, 60, 55
3, 33656, Note_on_c, 0, 53, 60
3, 33667, Note_on_c, 0, 53, 0
3, 33668, Note_on_c, 0, 60, 0
3, 33752, Note_on_c, 0, 72, 71
3, 33767, Note_on_c, 0, 72, 0
3, 33782, Note_on_c, 0, 76, 85
3, 33784, Note_on_c, 0, 38, 66
3, 33791, Note_on_c, 0, 38, 0
3, 33814, Note_on_c, 0, 76, 0
3, 33872, Note_on_c, 0, 60, 67
3, 33876, Note_on_c, 0, 71, 48
3, 33876, Note_on_c, 0, 57, 40
3, 33876, Note_on_c, 0, 69, 53
3, 33879, Note_on_c, 0, 53, 35
3, 33883, Note_on_c, 0, 57, 0
3, 33883, Note_on_c, 0, 60, 0
3, 33886, Note_on_c, 0, 71, 0
3, 33889, Note_on_c, 0, 53, 0
3, 33890, Note_on_c, 0, 69, 0
3, 33962, Note_on_c, 0, 72, 89
3, 33966, Note_on_c, 0, 43, 54
3, 33986, Note_on_c, 0, 43, 0
3, 33991, Note_on_c, 0, 72, 0
3, 34052, Note_on_c, 0, 68, 75
3, 34053, Note_on_c, 0, 71, 66
3, 34054, Note_on_c, 0, 53, 49
3, 34054, Note_on_c, 0, 64, 71
3, 34073, Note_on_c, 0, 71, 0
3, 34076, Note_on_c, 0, 68, 0
3, 34081, Note_on_c, 0, 64, 0
3, 34104, Note_on_c, 0, 53, 0
3, 34115, Note_on_c, 0, 50, 40
3, 34134, Note_on_c, 0, 50, 0
3, 34145, Note_on_c, 0, 67, 62
3, 34145, Note_on_c, 0, 52, 51
3, 34146, Note_on_c, 0, 62, 65
3, 34147, Note_on_c, 0, 57, 63
3, 34198, Note_on_c, 0, 52, 0
3, 34198, Note_on_c, 0, 67, 0
3, 34199, Note_on_c, 0, 62, 0
3, 34199, Note_on_c, 0, 57, 0
3, 34212, Note_on_c, 0, 51, 42
3, 34237, Note_on_c, 0, 51, 0
3, 34241, Note_on_c, 0, 62, 70
3, 34241, Note_on_c, 0, 67, 57
3, 34242, Note_on_c, 0, 57, 68
3, 34243, Note_on_c, 0, 52, 57
3, 34264, Note_on_c, 0, 57, 0
3, 34271, Note_on_c, 0, 67, 0
3, 34275, Note_on_c, 0, 62, 0
3, 34289, Note_on_c, 0, 52, 0
3, 34333, Note_on_c, 0, 70, 71
3, 34333, Note_on_c, 0, 61, 79
3, 34333, Note_on_c, 0, 66, 71
3, 34334, Note_on_c, 0, 55, 76
3, 34384, Note_on_c, 0, 61, 0
3, 34386, Note_on_c, 0, 55, 0
3, 34386, Note_on_c, 0, 66, 0
3, 34387, Note_on_c, 0, 70, 0
3, 34394, Note_on_c, 0, 54, 42
3, 34416, Note_on_c, 0, 54, 0
3, 34421, Note_on_c, 0, 70, 59
3, 34421, Note_on_c, 0, 61, 64
3, 34422, Note_on_c, 0, 66, 58
3, 34424, Note_on_c, 0, 55, 66
3, 34464, Note_on_c, 0, 66, 0
3, 34466, Note_on_c, 0, 70, 0
3, 34469, Note_on_c, 0, 61, 0
3, 34478, Note_on_c, 0, 55, 0
3, 34486, Note_on_c, 0, 54, 64
3, 34487, Note_on_c, 0, 69, 60
3, 34487, Note_on_c, 0, 65, 71
3, 34487, Note_on_c, 0, 60, 66
3, 34503, Note_on_c, 0, 60, 0
3, 34507, Note_on_c, 0, 69, 0
3, 34509, Note_on_c, 0, 65, 0
3, 34512, Note_on_c, 0, 54, 0
3, 34571, Note_on_c, 0, 54, 59
3, 34571, Note_on_c, 0, 65, 62
3, 34571, Note_on_c, 0, 69, 50
3, 34573, Note_on_c, 0, 60, 56
3, 34582, Note_on_c, 0, 60, 0
3, 34582, Note_on_c, 0, 69, 0
3, 34586, Note_on_c, 0, 65, 0
3, 34590, Note_on_c, 0, 54, 0
3, 34659, Note_on_c, 0, 68, 46
3, 34660, Note_on_c, 0, 59, 47
3, 34661, Note_on_c, 0, 64, 51
3, 34663, Note_on_c, 0, 53, 51
3, 34676, Note_on_c, 0, 59, 0
3, 34680, Note_on_c, 0, 53, 0
3, 34680, Note_on_c, 0, 64, 0
3, 34684, Note_on_c, 0, 68, 0
3, 34744, Note_on_c, 0, 68, 45
3, 34745, Note_on_c, 0, 64, 56
3, 34745, Note_on_c, 0, 53, 52
3, 34747, Note_on_c, 0, 59, 39
3, 34759, Note_on_c, 0, 53, 0
3, 34760, Note_on_c, 0, 64, 0
3, 34763, Note_on_c, 0, 68, 0
3, 34763, Note_on_c, 0, 59, 0
3, 34831, Note_on_c, 0, 43, 42
3, 34831, Note_on_c, 0, 56, 60
3, 34832, Note_on_c, 0, 61, 59
3, 34833, Note_on_c, 0, 66, 42
3, 34853, Note_on_c, 0, 43, 0
3, 34856, Note_on_c, 0, 66, 0
3, 34858, Note_on_c, 0, 61, 0
3, 34858, Note_on_c, 0, 56, 0
3, 34871, Note_on_c, 0, 36, 45
3, 34872, Note_on_c, 0, 67, 40
3, 34872, Note_on_c, 0, 62, 33
3, 34874, Note_on_c, 0, 57, 29
3, 34888, Note_on_c, 0, 57, 0
3, 34908, Control_c, 0, 64, 127
3, 34924, Note_on_c, 0, 43, 60
3, 34931, Note_on_c, 0, 62, 0
3, 34931, Note_on_c, 0, 36, 0
3, 34940, Note_on_c, 0, 67, 0
3, 34951, Note_on_c, 0, 43, 0
3, 34954, Note_on_c, 0, 52, 51
3, 34964, Note_on_c, 0, 52, 0
3, 35017, Note_on_c, 0, 74, 94
3, 35017, Note_on_c, 0, 62, 79
3, 35018, Note_on_c, 0, 67, 103
3, 35019, Note_on_c, 0, 57, 68
3, 35020, Note_on_c, 0, 52, 66
3, 35076, Note_on_c, 0, 62, 0
3, 35078, Note_on_c, 0, 57, 0
3, 35087, Note_on_c, 0, 52, 0
3, 35178, Note_on_c, 0, 43, 59
3, 35197, Control_c, 0, 64, 0
3, 35209, Note_on_c, 0, 67, 0
3, 35212, Note_on_c, 0, 36, 68
3, 35213, Note_on_c, 0, 43, 0
3, 35234, Note_on_c, 0, 74, 0
3, 35239, Control_c, 0, 64, 127
3, 35265, Note_on_c, 0, 43, 58
3, 35284, Note_on_c, 0, 36, 0
3, 35296, Note_on_c, 0, 43, 0
3, 35303, Note_on_c, 0, 50, 50
3, 35316, Note_on_c, 0, 50, 0
3, 35360, Note_on_c, 0, 52, 90
3, 35361, Note_on_c, 0, 79, 89
3, 35361, Note_on_c, 0, 74, 94
3, 35362, Note_on_c, 0, 69, 96
3, 35363, Control_c, 0, 64, 0
3, 35389, Control_c, 0, 64, 127
3, 35400, Note_on_c, 0, 79, 0
3, 35403, Note_on_c, 0, 74, 0
3, 35413, Note_on_c, 0, 69, 0
3, 35447, Note_on_c, 0, 52, 0
3, 35557, Control_c, 0, 64, 0
3, 35563, Note_on_c, 0, 68, 60
3, 35565, Note_on_c, 0, 71, 56
3, 35565, Note_on_c, 0, 60, 62
3, 35566, Note_on_c, 0, 64, 54
3, 35567, Note_on_c, 0, 54, 33
3, 35573, Note_on_c, 0, 64, 0
3, 35573, Note_on_c, 0, 50, 19
3, 35578, Note_on_c, 0, 68, 0
3, 35579, Note_on_c, 0, 50, 0
3, 35580, Note_on_c, 0, 60, 0
3, 35582, Note_on_c, 0, 71, 0
3, 35582, Note_on_c, 0, 54, 0
3, 35627, Control_c, 0, 64, 127
3, 35643, Control_c, 0, 64, 0
3, 35657, Note_on_c, 0, 72, 60
3, 35658, Note_on_c, 0, 84, 69
3, 35658, Note_on_c, 0, 76, 73
3, 35659, Note_on_c, 0, 80, 51
3, 35668, Note_on_c, 0, 76, 0
3, 35670, Note_on_c, 0, 80, 0
3, 35670, Note_on_c, 0, 84, 0
3, 35675, Note_on_c, 0, 72, 0
3, 35680, Note_on_c, 0, 70, 46
3, 35706, Note_on_c, 0, 70, 0
3, 35711, Note_on_c, 0, 80, 71
3, 35711, Note_on_c, 0, 76, 75
3, 35713, Note_on_c, 0, 84, 68
3, 35715, Note_on_c, 0, 72, 60
3, 35726, Note_on_c, 0, 72, 0
3, 35729, Note_on_c, 0, 84, 0
3, 35732, Note_on_c, 0, 80, 0
3, 35735, Control_c, 0, 64, 127
3, 35737, Note_on_c, 0, 76, 0
3, 35748, Control_c, 0, 64, 0
3, 35777, Note_on_c, 0, 80, 64
3, 35778, Note_on_c, 0, 68, 63
3, 35778, Note_on_c, 0, 76, 68
3, 35779, Note_on_c, 0, 72, 65
3, 35794, Note_on_c, 0, 76, 0
3, 35796, Note_on_c, 0, 68, 0
3, 35798, Note_on_c, 0, 72, 0
3, 35800, Note_on_c, 0, 80, 0
3, 35820, Control_c, 0, 64, 127
3, 35831, Control_c, 0, 64, 0
3, 35846, Note_on_c, 0, 73, 38
3, 35849, Note_on_c, 0, 64, 58
3, 35855, Note_on_c, 0, 77, 19
3, 35858, Note_on_c, 0, 76, 22
3, 35863, Control_c, 0, 64, 127
3, 35867, Note_on_c, 0, 66, 7
3, 35875, Note_on_c, 0, 77, 0
3, 35876, Note_on_c, 0, 73, 0
3, 35880, Note_on_c, 0, 76, 0
3, 35891, Note_on_c, 0, 66, 0
3, 35907, Note_on_c, 0, 66, 53
3, 35909, Note_on_c, 0, 64, 0
3, 35909, Note_on_c, 0, 68, 57
3, 35910, Control_c, 0, 64, 0
3, 35910, Note_on_c, 0, 72, 62
3, 35913, Note_on_c, 0, 60, 50
3, 35939, Control_c, 0, 64, 127
3, 36003, Note_on_c, 0, 60, 0
3, 36022, Note_on_c, 0, 66, 0
3, 36033, Note_on_c, 0, 72, 0
3, 36040, Note_on_c, 0, 68, 0
3, 36109, Control_c, 0, 64, 0
3, 36109, Note_on_c, 0, 75, 69
3, 36109, Note_on_c, 0, 63, 74
3, 36109, Note_on_c, 0, 68, 70
3, 36110, Note_on_c, 0, 60, 68
3, 36111, Note_on_c, 0, 54, 49
3, 36111, Note_on_c, 0, 50, 57
3, 36113, Note_on_c, 0, 72, 46
3, 36133, Note_on_c, 0, 63, 0
3, 36134, Note_on_c, 0, 60, 0
3, 36136, Note_on_c, 0, 75, 0
3, 36136, Note_on_c, 0, 72, 0
3, 36137, Note_on_c, 0, 50, 0
3, 36137, Note_on_c, 0, 68, 0
3, 36144, Note_on_c, 0, 54, 0
3, 36169, Note_on_c, 0, 75, 69
3, 36170, Note_on_c, 0, 63, 74
3, 36170, Note_on_c, 0, 60, 72
3, 36171, Note_on_c, 0, 54, 54
3, 36171, Note_on_c, 0, 68, 64
3, 36173, Note_on_c, 0, 50, 50
3, 36174, Note_on_c, 0, 72, 54
3, 36187, Note_on_c, 0, 60, 0
3, 36187, Note_on_c, 0, 63, 0
3, 36188, Note_on_c, 0, 50, 0
3, 36188, Note_on_c, 0, 75, 0
3, 36188, Note_on_c, 0, 68, 0
3, 36188, Note_on_c, 0, 72, 0
3, 36193, Note_on_c, 0, 54, 0
3, 36203, Note_on_c, 0, 75, 57
3, 36205, Note_on_c, 0, 63, 60
3, 36205, Note_on_c, 0, 60, 66
3, 36205, Note_on_c, 0, 68, 57
3, 36207, Note_on_c, 0, 54, 59
3, 36207, Note_on_c, 0, 72, 57
3, 36208, Note_on_c, 0, 50, 38
3, 36228, Note_on_c, 0, 50, 0
3, 36229, Note_on_c, 0, 63, 0
3, 36231, Note_on_c, 0, 72, 0
3, 36232, Note_on_c, 0, 68, 0
3, 36232, Note_on_c, 0, 75, 0
3, 36232, Note_on_c, 0, 60, 0
3, 36240, Note_on_c, 0, 54, 0
3, 36261, Note_on_c, 0, 75, 69
3, 36261, Note_on_c, 0, 54, 70
3, 36261, Note_on_c, 0, 63, 79
3, 36262, Note_on_c, 0, 60, 81
3, 36262, Note_on_c, 0, 68, 72
3, 36263, Note_on_c, 0, 72, 62
3, 36265, Note_on_c, 0, 50, 57
3, 36269, Note_on_c, 0, 72, 0
3, 36271, Note_on_c, 0, 50, 0
3, 36274, Note_on_c, 0, 60, 0
3, 36276, Note_on_c, 0, 75, 0
3, 36277, Note_on_c, 0, 68, 0
3, 36278, Note_on_c, 0, 63, 0
3, 36286, Note_on_c, 0, 54, 0
3, 36342, Control_c, 0, 64, 127
3, 36344, Note_on_c, 0, 70, 30
3, 36351, Note_on_c, 0, 70, 0
3, 36370, Control_c, 0, 64, 0
3, 36388, Note_on_c, 0, 65, 71
3, 36389, Note_on_c, 0, 69, 64
3, 36389, Note_on_c, 0, 72, 62
3, 36390, Note_on_c, 0, 60, 73
3, 36391, Note_on_c, 0, 57, 66
3, 36394, Control_c, 0, 64, 127
3, 36411, Note_on_c, 0, 65, 0
3, 36412, Note_on_c, 0, 72, 0
3, 36413, Note_on_c, 0, 69, 0
3, 36416, Note_on_c, 0, 60, 0
3, 36441, Note_on_c, 0, 57, 0
3, 36454, Note_on_c, 0, 69, 73
3, 36455, Note_on_c, 0, 53, 64
3, 36455, Note_on_c, 0, 60, 79
3, 36455, Note_on_c, 0, 65, 73
3, 36459, Control_c, 0, 64, 0
3, 36468, Note_on_c, 0, 69, 0
3, 36469, Note_on_c, 0, 65, 0
3, 36469, Note_on_c, 0, 60, 0
3, 36470, Control_c, 0, 64, 127
3, 36475, Note_on_c, 0, 53, 0
3, 36537, Note_on_c, 0, 65, 64
3, 36539, Note_on_c, 0, 60, 64
3, 36539, Note_on_c, 0, 57, 54
3, 36540, Note_on_c, 0, 50, 54
3, 36541, Note_on_c, 0, 43, 45
3, 36544, Control_c, 0, 64, 0
3, 36554, Note_on_c, 0, 60, 0
3, 36554, Note_on_c, 0, 65, 0
3, 36556, Note_on_c, 0, 57, 0
3, 36557, Note_on_c, 0, 50, 0
3, 36557, Note_on_c, 0, 43, 0
3, 36570, Control_c, 0, 64, 127
3, 36622, Control_c, 0, 64, 0
3, 36624, Note_on_c, 0, 64, 48
3, 36625, Note_on_c, 0, 57, 55
3, 36625, Note_on_c, 0, 60, 60
3, 36627, Note_on_c, 0, 50, 49
3, 36628, Note_on_c, 0, 43, 44
3, 36628, Note_on_c, 0, 53, 32
3, 36658, Control_c, 0, 64, 127
3, 36710, Note_on_c, 0, 43, 0
3, 36711, Note_on_c, 0, 60, 0
3, 36712, Note_on_c, 0, 53, 0
3, 36714, Note_on_c, 0, 57, 0
3, 36727, Note_on_c, 0, 64, 0
3, 36728, Note_on_c, 0, 50, 0
3, 36743, Control_c, 0, 64, 0
3, 36748, Note_on_c, 0, 43, 37
3, 36749, Note_on_c, 0, 53, 34
3, 36750, Note_on_c, 0, 50, 24
3, 36750, Note_on_c, 0, 60, 44
3, 36754, Note_on_c, 0, 57, 25
3, 36758, Control_c, 0, 64, 127
3, 36763, Note_on_c, 0, 53, 0
3, 36768, Note_on_c, 0, 57, 0
3, 36772, Note_on_c, 0, 60, 0
3, 36782, Note_on_c, 0, 43, 0
3, 36790, Note_on_c, 0, 50, 0
3, 36810, Note_on_c, 0, 56, 58
3, 36810, Note_on_c, 0, 63, 59
3, 36812, Note_on_c, 0, 43, 42
3, 36814, Note_on_c, 0, 59, 50
3, 36815, Note_on_c, 0, 53, 43
3, 36817, Control_c, 0, 64, 0
3, 36848, Control_c, 0, 64, 127
3, 36868, Note_on_c, 0, 43, 0
3, 36895, Note_on_c, 0, 63, 0
3, 36898, Note_on_c, 0, 43, 43
3, 36899, Note_on_c, 0, 53, 0
3, 36899, Note_on_c, 0, 59, 0
3, 36905, Note_on_c, 0, 56, 0
3, 36920, Control_c, 0, 64, 0
3, 36933, Control_c, 0, 64, 127
3, 36933, Note_on_c, 0, 56, 38
3, 36934, Note_on_c, 0, 53, 37
3, 36935, Note_on_c, 0, 63, 35
3, 36944, Note_on_c, 0, 53, 0
3, 36949, Note_on_c, 0, 63, 0
3, 36955, Note_on_c, 0, 56, 0
3, 36991, Control_c, 0, 64, 0
3, 36992, Note_on_c, 0, 67, 48
3, 36994, Note_on_c, 0, 62, 53
3, 36994, Note_on_c, 0, 57, 55
3, 36995, Note_on_c, 0, 43, 0
3, 36995, Note_on_c, 0, 52, 48
3, 37014, Control_c, 0, 64, 127
3, 37040, Note_on_c, 0, 57, 0
3, 37044, Note_on_c, 0, 62, 0
3, 37045, Note_on_c, 0, 67, 0
3, 37048, Note_on_c, 0, 52, 0
3, 37083, Note_on_c, 0, 71, 65
3, 37084, Note_on_c, 0, 62, 68
3, 37085, Note_on_c, 0, 67, 64
3, 37085, Note_on_c, 0, 55, 69
3, 37086, Control_c, 0, 64, 0
3, 37108, Control_c, 0, 64, 127
3, 37120, Note_on_c, 0, 67, 0
3, 37132, Note_on_c, 0, 62, 0
3, 37133, Note_on_c, 0, 71, 0
3, 37159, Note_on_c, 0, 55, 0
3, 37171, Control_c, 0, 64, 0
3, 37175, Note_on_c, 0, 70, 65
3, 37175, Note_on_c, 0, 61, 71
3, 37176, Note_on_c, 0, 54, 56
3, 37176, Note_on_c, 0, 66, 57
3, 37198, Control_c, 0, 64, 127
3, 37213, Note_on_c, 0, 61, 0
3, 37225, Note_on_c, 0, 66, 0
3, 37233, Note_on_c, 0, 70, 0
3, 37292, Note_on_c, 0, 54, 0
3, 37346, Note_on_c, 0, 76, 80
3, 37346, Note_on_c, 0, 64, 50
3, 37348, Note_on_c, 0, 69, 68
3, 37348, Note_on_c, 0, 65, 76
3, 37350, Note_on_c, 0, 62, 41
3, 37351, Note_on_c, 0, 72, 38
3, 37357, Note_on_c, 0, 62, 0
3, 37362, Note_on_c, 0, 72, 0
3, 37370, Note_on_c, 0, 65, 0
3, 37374, Control_c, 0, 64, 0
3, 37375, Note_on_c, 0, 64, 0
3, 37376, Note_on_c, 0, 69, 0
3, 37379, Note_on_c, 0, 76, 0
3, 37383, Note_on_c, 0, 62, 53
3, 37390, Note_on_c, 0, 74, 42
3, 37399, Control_c, 0, 64, 127
3, 37412, Note_on_c, 0, 74, 0
3, 37432, Note_on_c, 0, 62, 0
3, 37442, Note_on_c, 0, 79, 52
3, 37443, Note_on_c, 0, 64, 59
3, 37444, Note_on_c, 0, 77, 66
3, 37444, Note_on_c, 0, 72, 55
3, 37447, Note_on_c, 0, 69, 37
3, 37448, Control_c, 0, 64, 0
3, 37450, Note_on_c, 0, 77, 0
3, 37452, Note_on_c, 0, 72, 0
3, 37454, Note_on_c, 0, 69, 0
3, 37454, Note_on_c, 0, 64, 0
3, 37456, Note_on_c, 0, 79, 0
3, 37478, Control_c, 0, 64, 127
3, 37513, Control_c, 0, 64, 0
3, 37520, Note_on_c, 0, 76, 60
3, 37521, Note_on_c, 0, 64, 50
3, 37523, Note_on_c, 0, 68, 47
3, 37523, Note_on_c, 0, 59, 48
3, 37524, Note_on_c, 0, 71, 49
3, 37525, Note_on_c, 0, 65, 38
3, 37528, Note_on_c, 0, 53, 25
3, 37529, Note_on_c, 0, 64, 0
3, 37531, Note_on_c, 0, 71, 0
3, 37531, Note_on_c, 0, 76, 0
3, 37531, Note_on_c, 0, 65, 0
3, 37537, Note_on_c, 0, 59, 0
3, 37538, Note_on_c, 0, 68, 0
3, 37542, Note_on_c, 0, 53, 0
3, 37545, Control_c, 0, 64, 127
3, 37603, Control_c, 0, 64, 0
3, 37606, Note_on_c, 0, 43, 47
3, 37608, Note_on_c, 0, 53, 51
3, 37620, Note_on_c, 0, 43, 0
3, 37630, Control_c, 0, 64, 127
3, 37632, Note_on_c, 0, 53, 0
3, 37690, Note_on_c, 0, 43, 56
3, 37711, Note_on_c, 0, 43, 0
3, 37718, Control_c, 0, 64, 0
3, 37723, Note_on_c, 0, 36, 47
3, 37769, Control_c, 0, 64, 127
3, 37783, Note_on_c, 0, 64, 77
3, 37794, Control_c, 0, 64, 0
3, 37795, Note_on_c, 0, 36, 0
3, 37803, Note_on_c, 0, 52, 32
3, 37806, Note_on_c, 0, 64, 0
3, 37814, Note_on_c, 0, 52, 0
3, 37820, Note_on_c, 0, 62, 28
3, 37830, Control_c, 0, 64, 127
3, 37846, Note_on_c, 0, 62, 0
3, 37875, Note_on_c, 0, 69, 77
3, 37882, Note_on_c, 0, 62, 39
3, 37883, Note_on_c, 0, 57, 36
3, 37885, Note_on_c, 0, 52, 29
3, 37886, Control_c, 0, 64, 0
3, 37896, Note_on_c, 0, 69, 0
3, 37900, Note_on_c, 0, 57, 0
3, 37908, Note_on_c, 0, 52, 0
3, 37916, Note_on_c, 0, 67, 32
3, 37919, Note_on_c, 0, 62, 0
3, 37922, Control_c, 0, 64, 127
3, 37940, Note_on_c, 0, 67, 0
3, 37965, Note_on_c, 0, 76, 74
3, 37973, Note_on_c, 0, 64, 37
3, 37975, Control_c, 0, 64, 0
3, 37976, Note_on_c, 0, 59, 34
3, 37980, Note_on_c, 0, 54, 23
3, 37990, Note_on_c, 0, 76, 0
3, 38004, Control_c, 0, 64, 127
3, 38010, Note_on_c, 0, 74, 26
3, 38014, Note_on_c, 0, 59, 0
3, 38028, Note_on_c, 0, 74, 0
3, 38029, Note_on_c, 0, 54, 0
3, 38037, Note_on_c, 0, 64, 0
3, 38054, Note_on_c, 0, 81, 73
3, 38060, Note_on_c, 0, 65, 44
3, 38063, Control_c, 0, 64, 0
3, 38064, Note_on_c, 0, 60, 36
3, 38066, Note_on_c, 0, 55, 25
3, 38074, Note_on_c, 0, 65, 0
3, 38076, Note_on_c, 0, 81, 0
3, 38078, Note_on_c, 0, 60, 0
3, 38084, Note_on_c, 0, 55, 0
3, 38087, Control_c, 0, 64, 127
3, 38095, Note_on_c, 0, 79, 20
3, 38116, Note_on_c, 0, 79, 0
3, 38141, Note_on_c, 0, 88, 76
3, 38147, Note_on_c, 0, 62, 55
3, 38151, Note_on_c, 0, 57, 46
3, 38152, Control_c, 0, 64, 0
3, 38155, Note_on_c, 0, 62, 0
3, 38159, Note_on_c, 0, 57, 0
3, 38168, Note_on_c, 0, 88, 0
3, 38175, Control_c, 0, 64, 127
3, 38184, Note_on_c, 0, 86, 24
3, 38215, Note_on_c, 0, 86, 0
3, 38226, Note_on_c, 0, 91, 75
3, 38229, Note_on_c, 0, 79, 54
3, 38238, Control_c, 0, 64, 0
3, 38242, Note_on_c, 0, 36, 45
3, 38244, Note_on_c, 0, 79, 0
3, 38249, Note_on_c, 0, 91, 0
3, 38250, Note_on_c, 0, 43, 29
3, 38251, Note_on_c, 0, 36, 0
3, 38261, Note_on_c, 0, 43, 0
3, 38264, Control_c, 0, 64, 127
3, 38270, Note_on_c, 0, 88, 36
3, 38301, Note_on_c, 0, 88, 0
3, 38317, Note_on_c, 0, 86, 64
3, 38332, Control_c, 0, 64, 0
3, 38337, Note_on_c, 0, 62, 30
3, 38338, Note_on_c, 0, 86, 0
3, 38338, Note_on_c, 0, 57, 38
3, 38348, Note_on_c, 0, 52, 26
3, 38349, Note_on_c, 0, 81, 34
3, 38352, Control_c, 0, 64, 127
3, 38353, Note_on_c, 0, 62, 0
3, 38357, Note_on_c, 0, 57, 0
3, 38361, Note_on_c, 0, 52, 0
3, 38388, Note_on_c, 0, 81, 0
3, 38422, Control_c, 0, 64, 0
3, 38427, Note_on_c, 0, 60, 48
3, 38428, Note_on_c, 0, 54, 33
3, 38428, Note_on_c, 0, 86, 60
3, 38429, Note_on_c, 0, 76, 58
3, 38431, Note_on_c, 0, 50, 24
3, 38433, Note_on_c, 0, 80, 39
3, 38437, Note_on_c, 0, 83, 27
3, 38438, Note_on_c, 0, 50, 0
3, 38446, Note_on_c, 0, 60, 0
3, 38448, Note_on_c, 0, 54, 0
3, 38448, Control_c, 0, 64, 127
3, 38465, Note_on_c, 0, 83, 0
3, 38473, Note_on_c, 0, 80, 0
3, 38475, Note_on_c, 0, 76, 0
3, 38480, Note_on_c, 0, 86, 0
3, 38495, Note_on_c, 0, 83, 36
3, 38498, Note_on_c, 0, 80, 25
3, 38504, Note_on_c, 0, 80, 0
3, 38504, Note_on_c, 0, 83, 0
3, 38513, Control_c, 0, 64, 0
3, 38518, Note_on_c, 0, 65, 43
3, 38518, Note_on_c, 0, 60, 50
3, 38518, Note_on_c, 0, 86, 57
3, 38519, Note_on_c, 0, 76, 53
3, 38520, Note_on_c, 0, 54, 31
3, 38520, Note_on_c, 0, 80, 32
3, 38520, Note_on_c, 0, 83, 48
3, 38524, Note_on_c, 0, 65, 0
3, 38535, Note_on_c, 0, 60, 0
3, 38537, Note_on_c, 0, 54, 0
3, 38537, Control_c, 0, 64, 127
3, 38538, Note_on_c, 0, 86, 0
3, 38538, Note_on_c, 0, 83, 0
3, 38540, Note_on_c, 0, 80, 0
3, 38547, Note_on_c, 0, 76, 0
3, 38582, Note_on_c, 0, 80, 35
3, 38583, Note_on_c, 0, 76, 48
3, 38584, Note_on_c, 0, 83, 34
3, 38588, Note_on_c, 0, 71, 38
3, 38591, Control_c, 0, 64, 0
3, 38599, Note_on_c, 0, 54, 47
3, 38601, Note_on_c, 0, 45, 52
3, 38607, Note_on_c, 0, 76, 0
3, 38608, Note_on_c, 0, 83, 0
3, 38611, Note_on_c, 0, 80, 0
3, 38614, Control_c, 0, 64, 127
3, 38615, Note_on_c, 0, 71, 0
3, 38622, Note_on_c, 0, 45, 0
3, 38641, Note_on_c, 0, 54, 0
3, 38672, Note_on_c, 0, 68, 72
3, 38672, Note_on_c, 0, 71, 69
3, 38674, Note_on_c, 0, 64, 74
3, 38676, Note_on_c, 0, 73, 33
3, 38685, Note_on_c, 0, 59, 45
3, 38694, Control_c, 0, 64, 0
3, 38715, Control_c, 0, 64, 127
3, 38762, Note_on_c, 0, 64, 0
3, 38764, Note_on_c, 0, 68, 0
3, 38765, Note_on_c, 0, 59, 0
3, 38766, Note_on_c, 0, 71, 0
3, 38778, Note_on_c, 0, 73, 0
3, 38788, Control_c, 0, 64, 0
3, 38789, Note_on_c, 0, 68, 67
3, 38791, Note_on_c, 0, 71, 54
3, 38791, Note_on_c, 0, 64, 70
3, 38791, Note_on_c, 0, 59, 58
3, 38812, Note_on_c, 0, 71, 0
3, 38815, Note_on_c, 0, 64, 0
3, 38818, Note_on_c, 0, 68, 0
3, 38823, Note_on_c, 0, 59, 0
3, 38826, Note_on_c, 0, 58, 35
3, 38833, Control_c, 0, 64, 127
3, 38852, Note_on_c, 0, 58, 0
3, 38857, Note_on_c, 0, 57, 27
3, 38865, Note_on_c, 0, 57, 0
3, 38869, Control_c, 0, 64, 0
3, 38873, Note_on_c, 0, 56, 46
3, 38874, Note_on_c, 0, 68, 44
3, 38877, Note_on_c, 0, 64, 46
3, 38878, Note_on_c, 0, 60, 27
3, 38908, Control_c, 0, 64, 127
3, 38913, Note_on_c, 0, 64, 0
3, 38918, Note_on_c, 0, 60, 0
3, 38929, Note_on_c, 0, 68, 0
3, 38935, Note_on_c, 0, 56, 0
3, 38936, Note_on_c, 0, 59, 57
3, 38936, Note_on_c, 0, 71, 60
3, 38939, Note_on_c, 0, 60, 44
3, 38940, Note_on_c, 0, 64, 48
3, 38942, Note_on_c, 0, 68, 27
3, 38944, Control_c, 0, 64, 0
3, 38950, Note_on_c, 0, 68, 0
3, 38952, Note_on_c, 0, 60, 0
3, 38953, Note_on_c, 0, 64, 0
3, 38957, Note_on_c, 0, 71, 0
3, 38957, Note_on_c, 0, 59, 0
3, 38973, Note_on_c, 0, 69, 40
3, 38975, Note_on_c, 0, 57, 34
3, 38988, Control_c, 0, 64, 127
3, 39010, Note_on_c, 0, 69, 0
3, 39015, Note_on_c, 0, 57, 0
3, 39022, Note_on_c, 0, 60, 66
3, 39031, Note_on_c, 0, 56, 31
3, 39031, Control_c, 0, 64, 0
3, 39035, Note_on_c, 0, 60, 0
3, 39037, Note_on_c, 0, 56, 0
3, 39062, Control_c, 0, 64, 127
3, 39103, Note_on_c, 0, 51, 64
3, 39107, Note_on_c, 0, 60, 67
3, 39108, Note_on_c, 0, 52, 57
3, 39109, Note_on_c, 0, 67, 43
3, 39110, Note_on_c, 0, 57, 51
3, 39110, Note_on_c, 0, 64, 36
3, 39112, Control_c, 0, 64, 0
3, 39114, Note_on_c, 0, 51, 0
3, 39148, Note_on_c, 0, 64, 0
3, 39161, Note_on_c, 0, 67, 0
3, 39177, Note_on_c, 0, 57, 0
3, 39179, Note_on_c, 0, 60, 0
3, 39190, Control_c, 0, 64, 127
3, 39191, Note_on_c, 0, 65, 47
3, 39194, Note_on_c, 0, 57, 35
3, 39195, Note_on_c, 0, 51, 61
3, 39196, Note_on_c, 0, 52, 0
3, 39197, Note_on_c, 0, 60, 51
3, 39205, Note_on_c, 0, 60, 0
3, 39210, Note_on_c, 0, 65, 0
3, 39216, Note_on_c, 0, 57, 0
3, 39224, Control_c, 0, 64, 0
3, 39225, Note_on_c, 0, 51, 0
3, 39235, Note_on_c, 0, 50, 36
3, 39270, Control_c, 0, 64, 127
3, 39281, Note_on_c, 0, 50, 0
3, 39287, Note_on_c, 0, 49, 56
3, 39304, Control_c, 0, 64, 0
3, 39311, Note_on_c, 0, 49, 0
3, 39323, Note_on_c, 0, 48, 47
3, 39358, Control_c, 0, 64, 127
3, 39380, Note_on_c, 0, 57, 73
3, 39382, Note_on_c, 0, 60, 68
3, 39383, Note_on_c, 0, 53, 57
3, 39385, Control_c, 0, 64, 0
3, 39386, Note_on_c, 0, 48, 0
3, 39387, Note_on_c, 0, 45, 57
3, 39404, Note_on_c, 0, 45, 0
3, 39414, Control_c, 0, 64, 127
3, 39436, Note_on_c, 0, 53, 0
3, 39438, Note_on_c, 0, 57, 0
3, 39440, Note_on_c, 0, 60, 0
3, 39468, Note_on_c, 0, 31, 65
3, 39469, Note_on_c, 0, 43, 69
3, 39469, Note_on_c, 0, 64, 76
3, 39470, Note_on_c, 0, 57, 82
3, 39470, Note_on_c, 0, 60, 79
3, 39470, Note_on_c, 0, 53, 84
3, 39472, Control_c, 0, 64, 0
3, 39490, Note_on_c, 0, 31, 0
3, 39497, Control_c, 0, 64, 127
3, 39502, Note_on_c, 0, 43, 0
3, 39524, Note_on_c, 0, 53, 0
3, 39542, Note_on_c, 0, 57, 0
3, 39547, Note_on_c, 0, 60, 0
3, 39564, Note_on_c, 0, 43, 72
3, 39565, Note_on_c, 0, 55, 80
3, 39584, Note_on_c, 0, 55, 0
3, 39590, Note_on_c, 0, 43, 0
3, 39600, Note_on_c, 0, 64, 0
3, 39601, Note_on_c, 0, 43, 46
3, 39603, Note_on_c, 0, 55, 55
3, 39624, Note_on_c, 0, 43, 0
3, 39625, Note_on_c, 0, 55, 0
3, 39659, Note_on_c, 0, 55, 71
3, 39660, Note_on_c, 0, 43, 58
3, 39673, Note_on_c, 0, 55, 0
3, 39676, Note_on_c, 0, 43, 0
3, 39694, Control_c, 0, 64, 0
3, 39700, Note_on_c, 0, 43, 50
3, 39700, Note_on_c, 0, 64, 50
3, 39701, Note_on_c, 0, 53, 56
3, 39702, Note_on_c, 0, 56, 45
3, 39704, Note_on_c, 0, 59, 49
3, 39721, Control_c, 0, 64, 127
3, 39734, Note_on_c, 0, 53, 0
3, 39736, Note_on_c, 0, 56, 0
3, 39736, Note_on_c, 0, 43, 0
3, 39736, Note_on_c, 0, 64, 0
3, 39737, Note_on_c, 0, 59, 0
3, 39755, Control_c, 0, 64, 0
3, 39762, Note_on_c, 0, 56, 48
3, 39763, Note_on_c, 0, 64, 37
3, 39763, Note_on_c, 0, 53, 51
3, 39764, Note_on_c, 0, 43, 51
3, 39765, Note_on_c, 0, 59, 52
3, 39785, Note_on_c, 0, 59, 0
3, 39785, Note_on_c, 0, 56, 0
3, 39788, Control_c, 0, 64, 127
3, 39792, Note_on_c, 0, 64, 0
3, 39818, Note_on_c, 0, 53, 0
3, 39836, Note_on_c, 0, 43, 0
3, 39855, Note_on_c, 0, 43, 76
3, 39871, Control_c, 0, 64, 0
3, 39884, Note_on_c, 0, 43, 0
3, 39890, Control_c, 0, 64, 127
3, 39931, Note_on_c, 0, 43, 74
3, 39948, Note_on_c, 0, 43, 0
3, 39977, Control_c, 0, 64, 0
3, 39985, Note_on_c, 0, 68, 72
3, 39986, Note_on_c, 0, 71, 68
3, 39986, Note_on_c, 0, 64, 80
3, 39987, Note_on_c, 0, 53, 47
3, 39987, Note_on_c, 0, 59, 67
3, 39992, Control_c, 0, 64, 127
3, 40026, Note_on_c, 0, 64, 0
3, 40030, Note_on_c, 0, 59, 0
3, 40034, Note_on_c, 0, 53, 0
3, 40034, Note_on_c, 0, 71, 0
3, 40041, Note_on_c, 0, 68, 0
3, 40131, Note_on_c, 0, 72, 81
3, 40132, Note_on_c, 0, 67, 85
3, 40132, Note_on_c, 0, 62, 92
3, 40132, Note_on_c, 0, 52, 74
3, 40132, Note_on_c, 0, 57, 77
3, 40133, Control_c, 0, 64, 0
3, 40165, Control_c, 0, 64, 127
3, 40179, Note_on_c, 0, 57, 0
3, 40188, Note_on_c, 0, 72, 0
3, 40188, Note_on_c, 0, 52, 0
3, 40190, Note_on_c, 0, 67, 0
3, 40198, Note_on_c, 0, 62, 0
3, 40263, Note_on_c, 0, 69, 80
3, 40263, Note_on_c, 0, 58, 77
3, 40264, Note_on_c, 0, 62, 74
3, 40264, Note_on_c, 0, 57, 82
3, 40265, Note_on_c, 0, 64, 65
3, 40266, Control_c, 0, 64, 0
3, 40310, Control_c, 0, 64, 127
3, 40318, Note_on_c, 0, 64, 0
3, 40319, Note_on_c, 0, 62, 0
3, 40320, Note_on_c, 0, 58, 0
3, 40322, Note_on_c, 0, 69, 0
3, 40326, Control_c, 0, 64, 0
3, 40332, Note_on_c, 0, 55, 58
3, 40334, Note_on_c, 0, 58, 46
3, 40336, Note_on_c, 0, 67, 44
3, 40337, Note_on_c, 0, 62, 48
3, 40337, Note_on_c, 0, 64, 51
3, 40339, Note_on_c, 0, 57, 0
3, 40347, Note_on_c, 0, 62, 0
3, 40351, Note_on_c, 0, 58, 0
3, 40353, Control_c, 0, 64, 127
3, 40354, Note_on_c, 0, 64, 0
3, 40357, Note_on_c, 0, 67, 0
3, 40404, Note_on_c, 0, 55, 0
3, 40413, Note_on_c, 0, 58, 65
3, 40414, Note_on_c, 0, 75, 64
3, 40415, Note_on_c, 0, 68, 56
3, 40416, Note_on_c, 0, 64, 61
3, 40416, Control_c, 0, 64, 0
3, 40417, Note_on_c, 0, 72, 44
3, 40427, Note_on_c, 0, 58, 0
3, 40438, Note_on_c, 0, 72, 0
3, 40442, Note_on_c, 0, 68, 0
3, 40443, Note_on_c, 0, 64, 0
3, 40447, Note_on_c, 0, 75, 0
3, 40472, Control_c, 0, 64, 127
3, 40502, Note_on_c, 0, 73, 38
3, 40503, Note_on_c, 0, 68, 52
3, 40505, Note_on_c, 0, 64, 55
3, 40506, Control_c, 0, 64, 0
3, 40512, Note_on_c, 0, 64, 0
3, 40516, Note_on_c, 0, 42, 29
3, 40517, Note_on_c, 0, 68, 0
3, 40521, Note_on_c, 0, 49, 30
3, 40524, Note_on_c, 0, 73, 0
3, 40587, Note_on_c, 0, 86, 69
3, 40588, Note_on_c, 0, 42, 0
3, 40589, Note_on_c, 0, 74, 62
3, 40591, Note_on_c, 0, 49, 0
3, 40592, Note_on_c, 0, 81, 40
3, 40593, Note_on_c, 0, 77, 27
3, 40600, Note_on_c, 0, 81, 0
3, 40602, Note_on_c, 0, 77, 0
3, 40606, Note_on_c, 0, 41, 32
3, 40608, Note_on_c, 0, 50, 25
3, 40609, Note_on_c, 0, 74, 0
3, 40612, Note_on_c, 0, 86, 0
3, 40614, Note_on_c, 0, 41, 0
3, 40621, Note_on_c, 0, 50, 0
3, 40624, Note_on_c, 0, 84, 37
3, 40631, Control_c, 0, 64, 127
3, 40665, Note_on_c, 0, 84, 0
3, 40682, Note_on_c, 0, 86, 64
3, 40683, Note_on_c, 0, 77, 40
3, 40685, Note_on_c, 0, 81, 39
3, 40685, Note_on_c, 0, 74, 33
3, 40694, Note_on_c, 0, 81, 0
3, 40699, Note_on_c, 0, 77, 0
3, 40702, Note_on_c, 0, 74, 0
3, 40705, Note_on_c, 0, 86, 0
3, 40705, Control_c, 0, 64, 0
3, 40709, Note_on_c, 0, 84, 30
3, 40712, Note_on_c, 0, 57, 49
3, 40716, Note_on_c, 0, 74, 15
3, 40730, Note_on_c, 0, 57, 0
3, 40736, Control_c, 0, 64, 127
3, 40756, Note_on_c, 0, 74, 0
3, 40759, Note_on_c, 0, 84, 0
3, 40792, Control_c, 0, 64, 0
3, 40801, Note_on_c, 0, 80, 37
3, 40804, Note_on_c, 0, 72, 36
3, 40805, Note_on_c, 0, 58, 33
3, 40807, Note_on_c, 0, 84, 22
3, 40809, Note_on_c, 0, 48, 29
3, 40828, Note_on_c, 0, 84, 0
3, 40828, Control_c, 0, 64, 127
3, 40831, Note_on_c, 0, 48, 0
3, 40832, Note_on_c, 0, 72, 0
3, 40838, Note_on_c, 0, 80, 0
3, 40849, Note_on_c, 0, 58, 0
3, 40891, Control_c, 0, 64, 0
3, 40894, Note_on_c, 0, 64, 49
3, 40894, Note_on_c, 0, 58, 48
3, 40898, Note_on_c, 0, 61, 44
3, 40918, Control_c, 0, 64, 127
3, 40952, Note_on_c, 0, 64, 0
3, 40964, Note_on_c, 0, 61, 0
3, 40966, Note_on_c, 0, 58, 0
3, 40981, Control_c, 0, 64, 0
3, 40985, Note_on_c, 0, 62, 49
3, 40990, Note_on_c, 0, 57, 48
3, 41008, Control_c, 0, 64, 127
3, 41021, Note_on_c, 0, 62, 0
3, 41027, Note_on_c, 0, 57, 0
3, 41049, Note_on_c, 0, 74, 74
3, 41050, Note_on_c, 0, 86, 68
3, 41050, Note_on_c, 0, 77, 61
3, 41050, Note_on_c, 0, 81, 61
3, 41064, Control_c, 0, 64, 0
3, 41075, Note_on_c, 0, 41, 55
3, 41077, Note_on_c, 0, 48, 41
3, 41097, Control_c, 0, 64, 127
3, 41099, Note_on_c, 0, 41, 0
3, 41108, Note_on_c, 0, 48, 0
3, 41140, Note_on_c, 0, 77, 0
3, 41142, Note_on_c, 0, 86, 0
3, 41144, Note_on_c, 0, 74, 0
3, 41155, Note_on_c, 0, 81, 0
3, 41169, Control_c, 0, 64, 0
3, 41169, Note_on_c, 0, 58, 65
3, 41170, Note_on_c, 0, 84, 60
3, 41170, Note_on_c, 0, 81, 65
3, 41171, Note_on_c, 0, 77, 67
3, 41171, Note_on_c, 0, 48, 53
3, 41171, Note_on_c, 0, 72, 64
3, 41180, Note_on_c, 0, 48, 0
3, 41182, Note_on_c, 0, 58, 0
3, 41189, Control_c, 0, 64, 127
3, 41263, Control_c, 0, 64, 0
3, 41274, Control_c, 0, 64, 127
3, 41322, Note_on_c, 0, 24, 68
3, 41325, Note_on_c, 0, 84, 0
3, 41327, Note_on_c, 0, 81, 0
3, 41331, Note_on_c, 0, 77, 0
3, 41334, Note_on_c, 0, 72, 0
3, 41337, Note_on_c, 0, 24, 0
3, 41337, Control_c, 0, 64, 0
3, 41355, Control_c, 0, 64, 127
3, 41419, Note_on_c, 0, 67, 75
3, 41420, Note_on_c, 0, 62, 84
3, 41421, Note_on_c, 0, 52, 80
3, 41421, Note_on_c, 0, 57, 79
3, 41440, Control_c, 0, 64, 0
3, 41463, Control_c, 0, 64, 127
3, 41502, Note_on_c, 0, 62, 0
3, 41510, Note_on_c, 0, 67, 0
3, 41515, Note_on_c, 0, 57, 0
3, 41529, Note_on_c, 0, 52, 0
3, 41534, Control_c, 0, 64, 0
3, 41539, Note_on_c, 0, 57, 43
3, 41540, Note_on_c, 0, 65, 50
3, 41541, Note_on_c, 0, 50, 50
3, 41543, Note_on_c, 0, 60, 53
3, 41563, Note_on_c, 0, 65, 0
3, 41566, Control_c, 0, 64, 127
3, 41576, Note_on_c, 0, 57, 0
3, 41588, Note_on_c, 0, 50, 0
3, 41588, Note_on_c, 0, 60, 0
3, 41596, Note_on_c, 0, 52, 50
3, 41599, Note_on_c, 0, 67, 62
3, 41599, Note_on_c, 0, 60, 37
3, 41604, Control_c, 0, 64, 0
3, 41604, Note_on_c, 0, 57, 29
3, 41612, Note_on_c, 0, 57, 0
3, 41612, Note_on_c, 0, 52, 0
3, 41623, Note_on_c, 0, 60, 0
3, 41624, Note_on_c, 0, 67, 0
3, 41625, Note_on_c, 0, 50, 42
3, 41629, Control_c, 0, 64, 127
3, 41640, Note_on_c, 0, 50, 0
3, 41687, Note_on_c, 0, 73, 56
3, 41687, Note_on_c, 0, 63, 70
3, 41689, Note_on_c, 0, 68, 69
3, 41689, Note_on_c, 0, 58, 74
3, 41696, Control_c, 0, 64, 0
3, 41715, Note_on_c, 0, 68, 0
3, 41717, Note_on_c, 0, 73, 0
3, 41717, Note_on_c, 0, 63, 0
3, 41720, Note_on_c, 0, 58, 0
3, 41725, Control_c, 0, 64, 127
3, 41731, Note_on_c, 0, 72, 55
3, 41733, Note_on_c, 0, 62, 48
3, 41733, Note_on_c, 0, 57, 54
3, 41734, Note_on_c, 0, 67, 45
3, 41757, Note_on_c, 0, 62, 0
3, 41765, Note_on_c, 0, 67, 0
3, 41765, Note_on_c, 0, 57, 0
3, 41772, Note_on_c, 0, 72, 0
3, 41808, Control_c, 0, 64, 0
3, 41810, Note_on_c, 0, 63, 61
3, 41810, Note_on_c, 0, 73, 47
3, 41812, Note_on_c, 0, 79, 48
3, 41813, Note_on_c, 0, 77, 64
3, 41813, Control_c, 0, 64, 127
3, 41816, Note_on_c, 0, 67, 35
3, 41816, Note_on_c, 0, 69, 36
3, 41847, Note_on_c, 0, 67, 0
3, 41849, Note_on_c, 0, 69, 0
3, 41850, Note_on_c, 0, 79, 0
3, 41850, Note_on_c, 0, 77, 0
3, 41854, Note_on_c, 0, 73, 0
3, 41866, Note_on_c, 0, 63, 0
3, 41868, Note_on_c, 0, 77, 54
3, 41869, Control_c, 0, 64, 0
3, 41869, Note_on_c, 0, 72, 66
3, 41871, Note_on_c, 0, 62, 71
3, 41872, Note_on_c, 0, 67, 44
3, 41883, Note_on_c, 0, 72, 0
3, 41884, Note_on_c, 0, 77, 0
3, 41884, Note_on_c, 0, 67, 0
3, 41896, Control_c, 0, 64, 127
3, 41941, Note_on_c, 0, 62, 0
3, 41950, Note_on_c, 0, 60, 61
3, 41951, Note_on_c, 0, 72, 73
3, 41953, Note_on_c, 0, 69, 66
3, 41953, Note_on_c, 0, 64, 41
3, 41957, Note_on_c, 0, 65, 44
3, 41963, Note_on_c, 0, 65, 0
3, 41966, Note_on_c, 0, 64, 0
3, 41968, Note_on_c, 0, 60, 0
3, 41972, Control_c, 0, 64, 0
3, 41973, Note_on_c, 0, 69, 0
3, 41978, Note_on_c, 0, 72, 0
3, 41994, Control_c, 0, 64, 127
3, 41996, Note_on_c, 0, 50, 35
3, 41998, Note_on_c, 0, 51, 20
3, 42005, Note_on_c, 0, 50, 0
3, 42028, Note_on_c, 0, 51, 0
3, 42042, Note_on_c, 0, 71, 74
3, 42042, Note_on_c, 0, 68, 77
3, 42043, Note_on_c, 0, 64, 80
3, 42044, Note_on_c, 0, 50, 64
3, 42045, Note_on_c, 0, 60, 64
3, 42048, Control_c, 0, 64, 0
3, 42052, Note_on_c, 0, 60, 0
3, 42061, Note_on_c, 0, 64, 0
3, 42068, Note_on_c, 0, 50, 0
3, 42075, Note_on_c, 0, 71, 0
3, 42076, Note_on_c, 0, 68, 0
3, 42077, Note_on_c, 0, 64, 57
3, 42093, Note_on_c, 0, 64, 0
3, 42099, Note_on_c, 0, 68, 35
3, 42099, Note_on_c, 0, 71, 18
3, 42111, Note_on_c, 0, 71, 0
3, 42112, Note_on_c, 0, 64, 46
3, 42118, Control_c, 0, 64, 127
3, 42120, Note_on_c, 0, 68, 0
3, 42131, Note_on_c, 0, 64, 0
3, 42133, Note_on_c, 0, 71, 29
3, 42135, Note_on_c, 0, 68, 34
3, 42150, Note_on_c, 0, 64, 41
3, 42151, Note_on_c, 0, 71, 0
3, 42152, Note_on_c, 0, 68, 0
3, 42153, Control_c, 0, 64, 0
3, 42168, Note_on_c, 0, 64, 0
3, 42170, Note_on_c, 0, 68, 43
3, 42172, Note_on_c, 0, 71, 34
3, 42185, Note_on_c, 0, 71, 0
3, 42185, Note_on_c, 0, 64, 38
3, 42190, Note_on_c, 0, 68, 0
3, 42191, Control_c, 0, 64, 127
3, 42206, Note_on_c, 0, 64, 0
3, 42206, Note_on_c, 0, 68, 47
3, 42207, Note_on_c, 0, 71, 32
3, 42220, Note_on_c, 0, 62, 96
3, 42223, Note_on_c, 0, 71, 0
3, 42223, Note_on_c, 0, 64, 36
3, 42228, Note_on_c, 0, 68, 0
3, 42239, Control_c, 0, 64, 0
3, 42240, Note_on_c, 0, 64, 0
3, 42243, Note_on_c, 0, 68, 48
3, 42245, Note_on_c, 0, 71, 32
3, 42256, Note_on_c, 0, 71, 0
3, 42257, Note_on_c, 0, 64, 45
3, 42258, Note_on_c, 0, 68, 0
3, 42277, Note_on_c, 0, 64, 0
3, 42280, Note_on_c, 0, 71, 32
3, 42280, Note_on_c, 0, 68, 36
3, 42290, Control_c, 0, 64, 127
3, 42291, Note_on_c, 0, 68, 0
3, 42293, Note_on_c, 0, 71, 0
3, 42294, Note_on_c, 0, 64, 51
3, 42314, Note_on_c, 0, 64, 0
3, 42315, Note_on_c, 0, 68, 45
3, 42316, Note_on_c, 0, 62, 0
3, 42316, Note_on_c, 0, 71, 30
3, 42320, Note_on_c, 0, 58, 52
3, 42326, Note_on_c, 0, 56, 21
3, 42330, Note_on_c, 0, 68, 0
3, 42331, Note_on_c, 0, 71, 0
3, 42331, Note_on_c, 0, 64, 54
3, 42332, Note_on_c, 0, 56, 0
3, 42333, Note_on_c, 0, 58, 0
3, 42340, Control_c, 0, 64, 0
3, 42341, Note_on_c, 0, 59, 74
3, 42344, Note_on_c, 0, 56, 29
3, 42348, Note_on_c, 0, 58, 47
3, 42350, Note_on_c, 0, 56, 0
3, 42350, Note_on_c, 0, 64, 0
3, 42350, Note_on_c, 0, 71, 32
3, 42350, Note_on_c, 0, 68, 42
3, 42354, Note_on_c, 0, 58, 0
3, 42365, Note_on_c, 0, 68, 0
3, 42367, Note_on_c, 0, 71, 0
3, 42368, Note_on_c, 0, 64, 51
3, 42384, Note_on_c, 0, 64, 0
3, 42384, Note_on_c, 0, 71, 35
3, 42386, Note_on_c, 0, 68, 42
3, 42400, Note_on_c, 0, 68, 0
3, 42401, Note_on_c, 0, 64, 48
3, 42402, Note_on_c, 0, 71, 0
3, 42419, Note_on_c, 0, 64, 0
3, 42421, Note_on_c, 0, 68, 42
3, 42422, Note_on_c, 0, 71, 24
3, 42429, Control_c, 0, 64, 127
3, 42432, Note_on_c, 0, 71, 0
3, 42433, Note_on_c, 0, 68, 0
3, 42441, Note_on_c, 0, 64, 15
3, 42456, Note_on_c, 0, 64, 0
3, 42479, Note_on_c, 0, 56, 72
3, 42480, Note_on_c, 0, 59, 0
3, 42482, Note_on_c, 0, 68, 47
3, 42482, Note_on_c, 0, 71, 58
3, 42486, Note_on_c, 0, 64, 55
3, 42490, Note_on_c, 0, 69, 38
3, 42495, Note_on_c, 0, 59, 28
3, 42496, Note_on_c, 0, 69, 0
3, 42501, Note_on_c, 0, 71, 0
3, 42503, Note_on_c, 0, 64, 0
3, 42506, Control_c, 0, 64, 0
3, 42510, Note_on_c, 0, 68, 0
3, 42514, Note_on_c, 0, 59, 0
3, 42520, Note_on_c, 0, 68, 28
3, 42526, Note_on_c, 0, 64, 27
3, 42536, Note_on_c, 0, 64, 0
3, 42536, Note_on_c, 0, 59, 46
3, 42540, Note_on_c, 0, 68, 0
3, 42541, Control_c, 0, 64, 127
3, 42557, Note_on_c, 0, 59, 0
3, 42559, Note_on_c, 0, 68, 34
3, 42562, Note_on_c, 0, 64, 48
3, 42563, Note_on_c, 0, 71, 27
3, 42564, Note_on_c, 0, 51, 29
3, 42573, Note_on_c, 0, 71, 0
3, 42577, Note_on_c, 0, 59, 42
3, 42580, Note_on_c, 0, 64, 0
3, 42580, Note_on_c, 0, 56, 0
3, 42583, Note_on_c, 0, 68, 0
3, 42593, Note_on_c, 0, 51, 0
3, 42595, Control_c, 0, 64, 0
3, 42599, Note_on_c, 0, 59, 0
3, 42599, Note_on_c, 0, 68, 35
3, 42600, Note_on_c, 0, 53, 55
3, 42600, Note_on_c, 0, 64, 47
3, 42601, Note_on_c, 0, 71, 45
3, 42611, Note_on_c, 0, 71, 0
3, 42617, Note_on_c, 0, 64, 0
3, 42617, Note_on_c, 0, 59, 45
3, 42618, Note_on_c, 0, 68, 0
3, 42629, Control_c, 0, 64, 127
3, 42635, Note_on_c, 0, 59, 0
3, 42639, Note_on_c, 0, 68, 37
3, 42640, Note_on_c, 0, 64, 37
3, 42655, Note_on_c, 0, 59, 36
3, 42656, Note_on_c, 0, 64, 0
3, 42666, Note_on_c, 0, 53, 0
3, 42670, Note_on_c, 0, 64, 43
3, 42670, Note_on_c, 0, 50, 64
3, 42676, Note_on_c, 0, 50, 0
3, 42677, Note_on_c, 0, 59, 0
3, 42680, Note_on_c, 0, 64, 0
3, 42681, Note_on_c, 0, 68, 0
3, 42683, Control_c, 0, 64, 0
3, 42696, Note_on_c, 0, 51, 84
3, 42707, Control_c, 0, 64, 127
3, 42754, Note_on_c, 0, 51, 0
3, 42754, Control_c, 0, 64, 0
3, 42755, Note_on_c, 0, 65, 70
3, 42755, Note_on_c, 0, 60, 75
3, 42757, Note_on_c, 0, 62, 61
3, 42757, Note_on_c, 0, 57, 71
3, 42760, Note_on_c, 0, 50, 67
3, 42784, Note_on_c, 0, 57, 0
3, 42786, Control_c, 0, 64, 127
3, 42797, Note_on_c, 0, 60, 0
3, 42800, Note_on_c, 0, 62, 0
3, 42803, Note_on_c, 0, 65, 0
3, 42847, Note_on_c, 0, 64, 77
3, 42848, Note_on_c, 0, 38, 66
3, 42856, Note_on_c, 0, 38, 0
3, 42858, Control_c, 0, 64, 0
3, 42866, Note_on_c, 0, 64, 0
3, 42873, Note_on_c, 0, 50, 0
3, 42877, Note_on_c, 0, 65, 51
3, 42887, Control_c, 0, 64, 127
3, 42901, Note_on_c, 0, 65, 0
3, 42904, Note_on_c, 0, 69, 33
3, 42913, Note_on_c, 0, 69, 0
3, 42924, Note_on_c, 0, 72, 44
3, 42934, Note_on_c, 0, 72, 0
3, 42943, Note_on_c, 0, 61, 48
3, 42949, Note_on_c, 0, 74, 55
3, 42956, Note_on_c, 0, 62, 54
3, 42958, Note_on_c, 0, 74, 0
3, 42960, Note_on_c, 0, 61, 0
3, 42967, Note_on_c, 0, 62, 0
3, 42969, Control_c, 0, 64, 0
3, 42971, Note_on_c, 0, 64, 81
3, 42973, Note_on_c, 0, 79, 80
3, 42974, Note_on_c, 0, 72, 61
3, 42974, Note_on_c, 0, 69, 71
3, 42984, Note_on_c, 0, 72, 0
3, 43008, Control_c, 0, 64, 127
3, 43015, Note_on_c, 0, 79, 0
3, 43020, Note_on_c, 0, 64, 0
3, 43021, Note_on_c, 0, 69, 0
3, 43031, Note_on_c, 0, 77, 65
3, 43034, Note_on_c, 0, 69, 59
3, 43036, Note_on_c, 0, 72, 40
3, 43037, Note_on_c, 0, 62, 74
3, 43045, Note_on_c, 0, 72, 0
3, 43049, Note_on_c, 0, 77, 0
3, 43049, Note_on_c, 0, 69, 0
3, 43053, Control_c, 0, 64, 0
3, 43059, Note_on_c, 0, 62, 0
3, 43067, Note_on_c, 0, 61, 50
3, 43077, Control_c, 0, 64, 127
3, 43118, Note_on_c, 0, 61, 0
3, 43121, Note_on_c, 0, 72, 68
3, 43123, Note_on_c, 0, 65, 73
3, 43124, Note_on_c, 0, 60, 71
3, 43131, Control_c, 0, 64, 0
3, 43143, Note_on_c, 0, 65, 0
3, 43150, Note_on_c, 0, 60, 0
3, 43150, Note_on_c, 0, 72, 0
3, 43160, Control_c, 0, 64, 127
3, 43160, Note_on_c, 0, 57, 49
3, 43160, Note_on_c, 0, 60, 47
3, 43161, Note_on_c, 0, 69, 50
3, 43164, Note_on_c, 0, 65, 24
3, 43190, Note_on_c, 0, 65, 0
3, 43210, Note_on_c, 0, 60, 0
3, 43228, Note_on_c, 0, 57, 0
3, 43235, Note_on_c, 0, 69, 0
3, 43239, Note_on_c, 0, 65, 47
3, 43241, Note_on_c, 0, 53, 43
3, 43244, Note_on_c, 0, 60, 29
3, 43256, Note_on_c, 0, 65, 0
3, 43258, Note_on_c, 0, 53, 0
3, 43264, Note_on_c, 0, 60, 0
3, 43302, Note_on_c, 0, 68, 48
3, 43303, Note_on_c, 0, 63, 40
3, 43304, Note_on_c, 0, 53, 43
3, 43305, Note_on_c, 0, 59, 44
3, 43310, Control_c, 0, 64, 0
3, 43349, Control_c, 0, 64, 127
3, 43386, Note_on_c, 0, 43, 82
3, 43387, Control_c, 0, 64, 0
3, 43393, Note_on_c, 0, 53, 0
3, 43411, Control_c, 0, 64, 127
3, 43427, Note_on_c, 0, 68, 0
3, 43433, Note_on_c, 0, 63, 0
3, 43443, Note_on_c, 0, 59, 0
3, 43483, Note_on_c, 0, 50, 33
3, 43497, Note_on_c, 0, 50, 0
3, 43503, Control_c, 0, 64, 0
3, 43509, Note_on_c, 0, 60, 54
3, 43509, Note_on_c, 0, 55, 43
3, 43510, Note_on_c, 0, 52, 54
3, 43511, Note_on_c, 0, 64, 36
3, 43511, Note_on_c, 0, 57, 46
3, 43525, Control_c, 0, 64, 127
3, 43528, Note_on_c, 0, 57, 0
3, 43530, Note_on_c, 0, 60, 0
3, 43530, Note_on_c, 0, 55, 0
3, 43537, Note_on_c, 0, 64, 0
3, 43543, Note_on_c, 0, 43, 0
3, 43550, Note_on_c, 0, 52, 0
3, 43571, Note_on_c, 0, 67, 66
3, 43572, Note_on_c, 0, 55, 69
3, 43573, Note_on_c, 0, 62, 63
3, 43575, Note_on_c, 0, 57, 35
3, 43576, Note_on_c, 0, 59, 47
3, 43583, Note_on_c, 0, 57, 0
3, 43584, Note_on_c, 0, 59, 0
3, 43589, Note_on_c, 0, 67, 0
3, 43591, Note_on_c, 0, 62, 0
3, 43594, Note_on_c, 0, 55, 0
3, 43600, Control_c, 0, 64, 0
3, 43611, Note_on_c, 0, 52, 46
3, 43626, Control_c, 0, 64, 127
3, 43660, Note_on_c, 0, 52, 0
3, 43661, Note_on_c, 0, 67, 62
3, 43662, Note_on_c, 0, 62, 68
3, 43666, Note_on_c, 0, 55, 53
3, 43667, Note_on_c, 0, 57, 26
3, 43673, Note_on_c, 0, 57, 0
3, 43674, Note_on_c, 0, 55, 0
3, 43676, Control_c, 0, 64, 0
3, 43679, Note_on_c, 0, 67, 0
3, 43680, Note_on_c, 0, 62, 0
3, 43698, Note_on_c, 0, 59, 76
3, 43698, Note_on_c, 0, 71, 76
3, 43699, Note_on_c, 0, 67, 45
3, 43700, Note_on_c, 0, 64, 66
3, 43702, Note_on_c, 0, 60, 72
3, 43712, Control_c, 0, 64, 127
3, 43758, Note_on_c, 0, 60, 0
3, 43765, Note_on_c, 0, 64, 0
3, 43769, Note_on_c, 0, 67, 0
3, 43770, Control_c, 0, 64, 0
3, 43772, Note_on_c, 0, 71, 0
3, 43775, Note_on_c, 0, 59, 0
3, 43783, Note_on_c, 0, 69, 46
3, 43783, Note_on_c, 0, 57, 56
3, 43787, Note_on_c, 0, 64, 34
3, 43788, Control_c, 0, 64, 127
3, 43792, Note_on_c, 0, 60, 17
3, 43813, Note_on_c, 0, 60, 0
3, 43815, Note_on_c, 0, 64, 0
3, 43830, Note_on_c, 0, 69, 0
3, 43835, Note_on_c, 0, 57, 0
3, 43843, Note_on_c, 0, 67, 55
3, 43844, Control_c, 0, 64, 0
3, 43844, Note_on_c, 0, 60, 62
3, 43845, Note_on_c, 0, 64, 59
3, 43845, Note_on_c, 0, 55, 58
3, 43864, Control_c, 0, 64, 127
3, 43909, Note_on_c, 0, 55, 0
3, 43926, Note_on_c, 0, 43, 80
3, 43939, Note_on_c, 0, 67, 0
3, 43952, Note_on_c, 0, 64, 0
3, 43955, Note_on_c, 0, 60, 0
3, 44026, Note_on_c, 0, 50, 28
3, 44036, Note_on_c, 0, 50, 0
3, 44046, Control_c, 0, 64, 0
3, 44048, Note_on_c, 0, 64, 61
3, 44051, Note_on_c, 0, 55, 44
3, 44052, Note_on_c, 0, 57, 62
3, 44053, Note_on_c, 0, 52, 48
3, 44054, Note_on_c, 0, 60, 53
3, 44073, Note_on_c, 0, 43, 0
3, 44086, Control_c, 0, 64, 127
3, 44092, Note_on_c, 0, 55, 0
3, 44093, Note_on_c, 0, 64, 0
3, 44096, Note_on_c, 0, 57, 0
3, 44100, Note_on_c, 0, 60, 0
3, 44105, Note_on_c, 0, 52, 0
3, 44112, Note_on_c, 0, 43, 44
3, 44113, Control_c, 0, 64, 0
3, 44139, Note_on_c, 0, 52, 40
3, 44143, Note_on_c, 0, 64, 61
3, 44144, Control_c, 0, 64, 127
3, 44145, Note_on_c, 0, 55, 62
3, 44145, Note_on_c, 0, 60, 57
3, 44146, Note_on_c, 0, 52, 0
3, 44147, Note_on_c, 0, 57, 52
3, 44158, Note_on_c, 0, 57, 0
3, 44159, Note_on_c, 0, 43, 0
3, 44165, Note_on_c, 0, 64, 0
3, 44168, Note_on_c, 0, 55, 0
3, 44177, Note_on_c, 0, 60, 0
3, 44206, Note_on_c, 0, 62, 50
3, 44209, Control_c, 0, 64, 0
3, 44209, Note_on_c, 0, 54, 72
3, 44209, Note_on_c, 0, 56, 63
3, 44210, Note_on_c, 0, 60, 68
3, 44211, Note_on_c, 0, 38, 51
3, 44241, Control_c, 0, 64, 127
3, 44272, Note_on_c, 0, 54, 0
3, 44286, Note_on_c, 0, 60, 0
3, 44289, Note_on_c, 0, 56, 0
3, 44292, Note_on_c, 0, 62, 0
3, 44292, Note_on_c, 0, 26, 72
3, 44293, Note_on_c, 0, 38, 0
3, 44308, Note_on_c, 0, 26, 0
3, 44379, Note_on_c, 0, 66, 74
3, 44379, Note_on_c, 0, 68, 64
3, 44380, Note_on_c, 0, 72, 74
3, 44380, Note_on_c, 0, 64, 80
3, 44380, Note_on_c, 0, 54, 59
3, 44383, Note_on_c, 0, 60, 63
3, 44386, Control_c, 0, 64, 0
3, 44405, Control_c, 0, 64, 127
3, 44475, Note_on_c, 0, 64, 0
3, 44488, Note_on_c, 0, 66, 0
3, 44496, Note_on_c, 0, 68, 0
3, 44498, Note_on_c, 0, 72, 0
3, 44551, Note_on_c, 0, 54, 0
3, 44621, Note_on_c, 0, 60, 0
3, 44682, Note_on_c, 0, 54, 38
3, 44682, Note_on_c, 0, 80, 49
3, 44682, Note_on_c, 0, 60, 48
3, 44683, Note_on_c, 0, 68, 54
3, 44683, Note_on_c, 0, 73, 36
3, 44683, Note_on_c, 0, 50, 38
3, 44685, Control_c, 0, 64, 0
3, 44693, Note_on_c, 0, 77, 18
3, 44716, Control_c, 0, 64, 127
3, 44721, Note_on_c, 0, 68, 0
3, 44722, Note_on_c, 0, 80, 0
3, 44723, Note_on_c, 0, 73, 0
3, 44723, Note_on_c, 0, 50, 0
3, 44724, Note_on_c, 0, 60, 0
3, 44724, Note_on_c, 0, 77, 0
3, 44729, Note_on_c, 0, 54, 0
3, 44741, Note_on_c, 0, 80, 44
3, 44743, Note_on_c, 0, 68, 48
3, 44745, Note_on_c, 0, 60, 49
3, 44745, Note_on_c, 0, 73, 34
3, 44746, Note_on_c, 0, 54, 39
3, 44747, Note_on_c, 0, 50, 33
3, 44748, Control_c, 0, 64, 0
3, 44750, Note_on_c, 0, 77, 32
3, 44758, Note_on_c, 0, 50, 0
3, 44760, Note_on_c, 0, 60, 0
3, 44762, Note_on_c, 0, 80, 0
3, 44762, Note_on_c, 0, 68, 0
3, 44764, Note_on_c, 0, 73, 0
3, 44766, Note_on_c, 0, 77, 0
3, 44770, Note_on_c, 0, 54, 0
3, 44774, Note_on_c, 0, 80, 27
3, 44775, Note_on_c, 0, 68, 25
3, 44777, Note_on_c, 0, 60, 49
3, 44777, Note_on_c, 0, 54, 17
3, 44778, Note_on_c, 0, 73, 33
3, 44778, Note_on_c, 0, 50, 29
3, 44783, Note_on_c, 0, 77, 18
3, 44794, Control_c, 0, 64, 127
3, 44808, Note_on_c, 0, 50, 0
3, 44810, Note_on_c, 0, 68, 0
3, 44812, Note_on_c, 0, 73, 0
3, 44812, Note_on_c, 0, 80, 0
3, 44812, Note_on_c, 0, 60, 0
3, 44816, Note_on_c, 0, 77, 0
3, 44821, Note_on_c, 0, 54, 0
3, 44836, Note_on_c, 0, 80, 53
3, 44836, Note_on_c, 0, 68, 67
3, 44838, Note_on_c, 0, 60, 74
3, 44839, Note_on_c, 0, 73, 37
3, 44839, Note_on_c, 0, 54, 48
3, 44841, Note_on_c, 0, 77, 35
3, 44843, Note_on_c, 0, 50, 35
3, 44846, Control_c, 0, 64, 0
3, 44847, Note_on_c, 0, 73, 0
3, 44847, Note_on_c, 0, 68, 0
3, 44850, Note_on_c, 0, 50, 0
3, 44851, Note_on_c, 0, 77, 0
3, 44852, Note_on_c, 0, 60, 0
3, 44855, Note_on_c, 0, 80, 0
3, 44857, Note_on_c, 0, 54, 0
3, 44884, Control_c, 0, 64, 127
3, 44945, Control_c, 0, 64, 0
3, 44964, Note_on_c, 0, 76, 84
3, 44965, Note_on_c, 0, 65, 92
3, 44965, Note_on_c, 0, 69, 85
3, 44965, Note_on_c, 0, 72, 77
3, 44965, Note_on_c, 0, 64, 82
3, 44981, Control_c, 0, 64, 127
3, 44994, Note_on_c, 0, 65, 0
3, 44998, Note_on_c, 0, 69, 0
3, 44999, Note_on_c, 0, 76, 0
3, 45000, Note_on_c, 0, 72, 0
3, 45001, Note_on_c, 0, 64, 0
3, 45024, Note_on_c, 0, 76, 64
3, 45025, Note_on_c, 0, 65, 73
3, 45025, Note_on_c, 0, 64, 67
3, 45026, Note_on_c, 0, 69, 74
3, 45026, Note_on_c, 0, 72, 68
3, 45037, Control_c, 0, 64, 0
3, 45039, Note_on_c, 0, 65, 0
3, 45042, Note_on_c, 0, 69, 0
3, 45042, Note_on_c, 0, 76, 0
3, 45044, Note_on_c, 0, 72, 0
3, 45045, Note_on_c, 0, 64, 0
3, 45058, Note_on_c, 0, 64, 61
3, 45059, Note_on_c, 0, 65, 55
3, 45059, Note_on_c, 0, 76, 45
3, 45060, Note_on_c, 0, 72, 60
3, 45061, Note_on_c, 0, 69, 61
3, 45085, Note_on_c, 0, 65, 0
3, 45087, Note_on_c, 0, 69, 0
3, 45088, Note_on_c, 0, 76, 0
3, 45090, Note_on_c, 0, 72, 0
3, 45091, Note_on_c, 0, 64, 0
3, 45119, Note_on_c, 0, 76, 60
3, 45119, Note_on_c, 0, 65, 71
3, 45119, Note_on_c, 0, 72, 68
3, 45119, Note_on_c, 0, 69, 64
3, 45121, Note_on_c, 0, 64, 74
3, 45131, Note_on_c, 0, 65, 0
3, 45133, Note_on_c, 0, 69, 0
3, 45134, Note_on_c, 0, 76, 0
3, 45135, Note_on_c, 0, 72, 0
3, 45135, Note_on_c, 0, 64, 0
3, 45205, Note_on_c, 0, 69, 80
3, 45206, Note_on_c, 0, 65, 83
3, 45206, Note_on_c, 0, 72, 66
3, 45206, Note_on_c, 0, 76, 67
3, 45208, Note_on_c, 0, 64, 75
3, 45212, Note_on_c, 0, 65, 0
3, 45213, Note_on_c, 0, 72, 0
3, 45214, Note_on_c, 0, 64, 0
3, 45217, Note_on_c, 0, 76, 0
3, 45217, Note_on_c, 0, 69, 0
3, 45247, Control_c, 0, 64, 127
3, 45364, Control_c, 0, 64, 0
3, 45372, Note_on_c, 0, 31, 84
3, 45372, Note_on_c, 0, 43, 85
3, 45389, Note_on_c, 0, 31, 0
3, 45389, Control_c, 0, 64, 127
3, 45403, Note_on_c, 0, 43, 0
3, 45499, Note_on_c, 0, 64, 85
3, 45499, Note_on_c, 0, 59, 68
3, 45500, Note_on_c, 0, 68, 88
3, 45500, Note_on_c, 0, 53, 76
3, 45500, Note_on_c, 0, 76, 81
3, 45501, Note_on_c, 0, 71, 81
3, 45501, Note_on_c, 0, 65, 99
3, 45504, Note_on_c, 0, 74, 54
3, 45514, Control_c, 0, 64, 0
3, 45524, Note_on_c, 0, 65, 0
3, 45529, Note_on_c, 0, 53, 0
3, 45530, Note_on_c, 0, 74, 0
3, 45530, Note_on_c, 0, 68, 0
3, 45530, Note_on_c, 0, 64, 0
3, 45531, Note_on_c, 0, 71, 0
3, 45532, Note_on_c, 0, 76, 0
3, 45533, Note_on_c, 0, 59, 0
3, 45593, Note_on_c, 0, 59, 70
3, 45594, Note_on_c, 0, 76, 75
3, 45594, Note_on_c, 0, 64, 77
3, 45594, Note_on_c, 0, 68, 75
3, 45594, Note_on_c, 0, 53, 74
3, 45595, Note_on_c, 0, 65, 90
3, 45595, Note_on_c, 0, 71, 70
3, 45599, Control_c, 0, 64, 127
3, 45602, Note_on_c, 0, 74, 24
3, 45603, Note_on_c, 0, 64, 0
3, 45606, Note_on_c, 0, 65, 0
3, 45609, Note_on_c, 0, 59, 0
3, 45612, Note_on_c, 0, 74, 0
3, 45614, Note_on_c, 0, 53, 0
3, 45616, Note_on_c, 0, 68, 0
3, 45616, Note_on_c, 0, 76, 0
3, 45618, Note_on_c, 0, 71, 0
3, 45695, Note_on_c, 0, 62, 92
3, 45695, Note_on_c, 0, 68, 87
3, 45695, Note_on_c, 0, 74, 88
3, 45696, Note_on_c, 0, 71, 84
3, 45696, Note_on_c, 0, 64, 103
3, 45696, Control_c, 0, 64, 0
3, 45696, Note_on_c, 0, 56, 81
3, 45728, Control_c, 0, 64, 127
3, 45768, Note_on_c, 0, 62, 0
3, 45779, Note_on_c, 0, 56, 0
3, 45788, Note_on_c, 0, 74, 0
3, 45789, Note_on_c, 0, 64, 0
3, 45789, Note_on_c, 0, 71, 0
3, 45817, Note_on_c, 0, 68, 0
3, 45848, Note_on_c, 0, 72, 67
3, 45848, Note_on_c, 0, 62, 69
3, 45849, Note_on_c, 0, 67, 70
3, 45850, Note_on_c, 0, 57, 54
3, 45851, Note_on_c, 0, 52, 49
3, 45853, Control_c, 0, 64, 0
3, 45893, Control_c, 0, 64, 127
3, 45940, Note_on_c, 0, 57, 0
3, 45947, Note_on_c, 0, 52, 0
3, 45953, Note_on_c, 0, 72, 0
3, 45956, Note_on_c, 0, 67, 0
3, 45965, Note_on_c, 0, 62, 0
3, 46054, Note_on_c, 0, 64, 44
3, 46055, Control_c, 0, 64, 0
3, 46056, Note_on_c, 0, 60, 55
3, 46059, Note_on_c, 0, 43, 36
3, 46060, Note_on_c, 0, 50, 35
3, 46060, Note_on_c, 0, 57, 40
3, 46099, Note_on_c, 0, 43, 0
3, 46100, Note_on_c, 0, 64, 0
3, 46104, Note_on_c, 0, 57, 0
3, 46106, Note_on_c, 0, 50, 0
3, 46110, Note_on_c, 0, 60, 0
3, 46121, Note_on_c, 0, 64, 35
3, 46122, Note_on_c, 0, 53, 43
3, 46123, Note_on_c, 0, 57, 55
3, 46124, Note_on_c, 0, 60, 33
3, 46124, Note_on_c, 0, 50, 34
3, 46126, Note_on_c, 0, 43, 34
3, 46129, Note_on_c, 0, 53, 0
3, 46131, Note_on_c, 0, 64, 0
3, 46132, Note_on_c, 0, 50, 0
3, 46133, Note_on_c, 0, 57, 0
3, 46136, Note_on_c, 0, 60, 0
3, 46141, Note_on_c, 0, 43, 0
3, 46244, Note_on_c, 0, 63, 36
3, 46245, Note_on_c, 0, 56, 35
3, 46247, Note_on_c, 0, 43, 35
3, 46247, Note_on_c, 0, 59, 47
3, 46248, Note_on_c, 0, 53, 36
3, 46249, Note_on_c, 0, 31, 33
3, 46308, Control_c, 0, 64, 127
3, 46348, Note_on_c, 0, 53, 0
3, 46351, Note_on_c, 0, 43, 0
3, 46352, Note_on_c, 0, 59, 0
3, 46352, Note_on_c, 0, 63, 0
3, 46353, Control_c, 0, 64, 0
3, 46354, Note_on_c, 0, 56, 0
3, 46356, Note_on_c, 0, 31, 0
3, 46436, Note_on_c, 0, 72, 79
3, 46437, Note_on_c, 0, 60, 78
3, 46437, Note_on_c, 0, 67, 74
3, 46438, Note_on_c, 0, 64, 82
3, 46439, Note_on_c, 0, 69, 67
3, 46455, Note_on_c, 0, 60, 0
3, 46461, Note_on_c, 0, 69, 0
3, 46463, Note_on_c, 0, 72, 0
3, 46465, Note_on_c, 0, 67, 0
3, 46466, Note_on_c, 0, 64, 0
3, 46568, Control_c, 0, 64, 127
3, 46590, Note_on_c, 0, 62, 64
3, 46590, Note_on_c, 0, 47, 66
3, 46593, Note_on_c, 0, 56, 51
3, 46594, Note_on_c, 0, 53, 65
3, 46597, Note_on_c, 0, 59, 39
3, 46609, Note_on_c, 0, 62, 0
3, 46616, Note_on_c, 0, 53, 0
3, 46619, Note_on_c, 0, 59, 0
3, 46623, Note_on_c, 0, 56, 0
3, 46629, Note_on_c, 0, 47, 0
3, 46629, Control_c, 0, 64, 0
3, 46639, Note_on_c, 0, 48, 51
3, 46642, Note_on_c, 0, 55, 63
3, 46644, Note_on_c, 0, 60, 41
3, 46645, Note_on_c, 0, 64, 54
3, 46647, Note_on_c, 0, 57, 46
3, 46668, Note_on_c, 0, 57, 0
3, 46669, Note_on_c, 0, 60, 0
3, 46675, Note_on_c, 0, 55, 0
3, 46679, Note_on_c, 0, 64, 0
3, 46698, Note_on_c, 0, 48, 0
3, 46700, Note_on_c, 0, 57, 66
3, 46700, Note_on_c, 0, 65, 63
3, 46701, Note_on_c, 0, 50, 60
3, 46702, Note_on_c, 0, 60, 60
3, 46704, Note_on_c, 0, 62, 57
3, 46710, Note_on_c, 0, 62, 0
3, 46710, Note_on_c, 0, 60, 0
3, 46713, Note_on_c, 0, 57, 0
3, 46715, Note_on_c, 0, 65, 0
3, 46718, Note_on_c, 0, 50, 0
3, 46783, Note_on_c, 0, 67, 62
3, 46784, Note_on_c, 0, 62, 64
3, 46785, Note_on_c, 0, 59, 55
3, 46787, Note_on_c, 0, 52, 56
3, 46794, Note_on_c, 0, 59, 0
3, 46798, Note_on_c, 0, 67, 0
3, 46801, Note_on_c, 0, 52, 0
3, 46802, Note_on_c, 0, 62, 0
3, 46868, Note_on_c, 0, 69, 64
3, 46868, Note_on_c, 0, 62, 65
3, 46870, Note_on_c, 0, 60, 66
3, 46871, Note_on_c, 0, 65, 56
3, 46873, Note_on_c, 0, 55, 48
3, 46875, Note_on_c, 0, 53, 41
3, 46891, Control_c, 0, 64, 127
3, 46893, Note_on_c, 0, 53, 0
3, 46899, Note_on_c, 0, 55, 0
3, 46917, Note_on_c, 0, 60, 0
3, 46920, Note_on_c, 0, 65, 0
3, 46920, Note_on_c, 0, 62, 0
3, 46929, Note_on_c, 0, 69, 0
3, 46980, Control_c, 0, 64, 0
3, 46985, Note_on_c, 0, 56, 68
3, 46986, Note_on_c, 0, 71, 68
3, 46988, Note_on_c, 0, 62, 75
3, 46989, Note_on_c, 0, 67, 55
3, 47000, Note_on_c, 0, 67, 0
3, 47000, Note_on_c, 0, 62, 0
3, 47003, Note_on_c, 0, 56, 0
3, 47007, Note_on_c, 0, 71, 0
3, 47071, Note_on_c, 0, 45, 52
3, 47072, Note_on_c, 0, 72, 53
3, 47074, Note_on_c, 0, 61, 48
3, 47074, Note_on_c, 0, 65, 62
3, 47075, Note_on_c, 0, 55, 52
3, 47078, Note_on_c, 0, 45, 0
3, 47078, Note_on_c, 0, 69, 32
3, 47081, Note_on_c, 0, 65, 0
3, 47084, Note_on_c, 0, 61, 0
3, 47086, Note_on_c, 0, 69, 0
3, 47086, Note_on_c, 0, 55, 0
3, 47090, Note_on_c, 0, 72, 0
3, 47160, Control_c, 0, 64, 127
3, 47162, Note_on_c, 0, 74, 74
3, 47165, Note_on_c, 0, 68, 64
3, 47166, Note_on_c, 0, 60, 73
3, 47166, Note_on_c, 0, 54, 44
3, 47166, Note_on_c, 0, 64, 75
3, 47168, Note_on_c, 0, 71, 45
3, 47169, Note_on_c, 0, 50, 47
3, 47171, Control_c, 0, 64, 0
3, 47175, Note_on_c, 0, 71, 0
3, 47176, Note_on_c, 0, 50, 0
3, 47181, Note_on_c, 0, 68, 0
3, 47185, Note_on_c, 0, 54, 0
3, 47189, Note_on_c, 0, 64, 0
3, 47192, Note_on_c, 0, 74, 0
3, 47196, Note_on_c, 0, 60, 0
3, 47198, Note_on_c, 0, 73, 48
3, 47219, Note_on_c, 0, 73, 0
3, 47223, Note_on_c, 0, 59, 40
3, 47227, Note_on_c, 0, 72, 37
3, 47242, Note_on_c, 0, 59, 0
3, 47247, Note_on_c, 0, 72, 0
3, 47252, Note_on_c, 0, 58, 25
3, 47254, Note_on_c, 0, 71, 40
3, 47275, Note_on_c, 0, 58, 0
3, 47277, Note_on_c, 0, 71, 0
3, 47280, Note_on_c, 0, 57, 31
3, 47287, Note_on_c, 0, 70, 30
3, 47309, Note_on_c, 0, 70, 0
3, 47313, Note_on_c, 0, 69, 39
3, 47331, Note_on_c, 0, 69, 0
3, 47337, Note_on_c, 0, 57, 0
3, 47344, Note_on_c, 0, 56, 36
3, 47345, Note_on_c, 0, 68, 48
3, 47402, Control_c, 0, 64, 127
3, 47434, Note_on_c, 0, 56, 0
3, 47444, Note_on_c, 0, 68, 0
3, 47488, Note_on_c, 0, 50, 44
3, 47495, Note_on_c, 0, 50, 0
3, 47533, Note_on_c, 0, 80, 64
3, 47535, Note_on_c, 0, 88, 67
3, 47538, Note_on_c, 0, 64, 45
3, 47541, Note_on_c, 0, 60, 54
3, 47542, Note_on_c, 0, 54, 28
3, 47569, Note_on_c, 0, 80, 0
3, 47571, Note_on_c, 0, 88, 0
3, 47591, Note_on_c, 0, 76, 45
3, 47598, Note_on_c, 0, 83, 35
3, 47602, Note_on_c, 0, 76, 0
3, 47605, Note_on_c, 0, 83, 0
3, 47675, Note_on_c, 0, 100, 71
3, 47676, Note_on_c, 0, 92, 73
3, 47694, Note_on_c, 0, 92, 0
3, 47695, Note_on_c, 0, 100, 0
3, 47704, Note_on_c, 0, 64, 0
3, 47708, Note_on_c, 0, 60, 0
3, 47718, Note_on_c, 0, 54, 0
3, 47843, Note_on_c, 0, 45, 66
3, 47864, Control_c, 0, 64, 0
3, 47866, Note_on_c, 0, 45, 0
3, 47875, Note_on_c, 0, 38, 51
3, 47883, Note_on_c, 0, 38, 0
3, 47889, Control_c, 0, 64, 127
3, 47938, Note_on_c, 0, 73, 30
3, 47955, Note_on_c, 0, 73, 0
3, 47965, Control_c, 0, 64, 0
3, 47966, Note_on_c, 0, 76, 76
3, 47966, Note_on_c, 0, 53, 44
3, 47967, Note_on_c, 0, 60, 57
3, 47969, Note_on_c, 0, 57, 36
3, 47981, Note_on_c, 0, 53, 0
3, 47985, Note_on_c, 0, 57, 0
3, 47991, Note_on_c, 0, 60, 0
3, 48001, Control_c, 0, 64, 127
3, 48020, Note_on_c, 0, 76, 0
3, 48048, Control_c, 0, 64, 0
3, 48056, Note_on_c, 0, 74, 80
3, 48058, Note_on_c, 0, 60, 39
3, 48058, Note_on_c, 0, 65, 40
3, 48061, Note_on_c, 0, 55, 22
3, 48062, Note_on_c, 0, 57, 30
3, 48087, Note_on_c, 0, 55, 0
3, 48089, Note_on_c, 0, 65, 0
3, 48091, Note_on_c, 0, 60, 0
3, 48092, Note_on_c, 0, 57, 0
3, 48092, Control_c, 0, 64, 127
3, 48113, Note_on_c, 0, 74, 0
3, 48122, Note_on_c, 0, 69, 73
3, 48128, Control_c, 0, 64, 0
3, 48138, Note_on_c, 0, 64, 35
3, 48139, Note_on_c, 0, 59, 32
3, 48143, Note_on_c, 0, 53, 29
3, 48148, Control_c, 0, 64, 127
3, 48162, Note_on_c, 0, 59, 0
3, 48162, Note_on_c, 0, 64, 0
3, 48169, Note_on_c, 0, 53, 0
3, 48178, Note_on_c, 0, 69, 0
3, 48203, Note_on_c, 0, 72, 99
3, 48204, Note_on_c, 0, 45, 76
3, 48205, Control_c, 0, 64, 0
3, 48208, Note_on_c, 0, 43, 34
3, 48215, Note_on_c, 0, 43, 0
3, 48218, Note_on_c, 0, 45, 0
3, 48231, Control_c, 0, 64, 127
3, 48259, Note_on_c, 0, 72, 0
3, 48291, Note_on_c, 0, 74, 92
3, 48291, Note_on_c, 0, 64, 71
3, 48293, Note_on_c, 0, 59, 60
3, 48295, Note_on_c, 0, 53, 42
3, 48303, Note_on_c, 0, 64, 0
3, 48310, Note_on_c, 0, 59, 0
3, 48316, Note_on_c, 0, 53, 0
3, 48324, Note_on_c, 0, 74, 0
3, 48332, Note_on_c, 0, 72, 49
3, 48370, Note_on_c, 0, 72, 0
3, 48385, Note_on_c, 0, 43, 71
3, 48386, Control_c, 0, 64, 0
3, 48387, Note_on_c, 0, 71, 82
3, 48404, Note_on_c, 0, 43, 0
3, 48411, Control_c, 0, 64, 127
3, 48418, Note_on_c, 0, 71, 0
3, 48475, Note_on_c, 0, 75, 75
3, 48476, Note_on_c, 0, 63, 64
3, 48476, Note_on_c, 0, 68, 75
3, 48478, Note_on_c, 0, 53, 56
3, 48479, Note_on_c, 0, 58, 47
3, 48492, Control_c, 0, 64, 0
3, 48499, Note_on_c, 0, 75, 0
3, 48502, Note_on_c, 0, 68, 0
3, 48512, Note_on_c, 0, 63, 0
3, 48516, Note_on_c, 0, 71, 40
3, 48523, Control_c, 0, 64, 127
3, 48543, Note_on_c, 0, 53, 0
3, 48555, Note_on_c, 0, 71, 0
3, 48560, Note_on_c, 0, 58, 0
3, 48567, Note_on_c, 0, 62, 47
3, 48569, Note_on_c, 0, 67, 59
3, 48570, Control_c, 0, 64, 0
3, 48571, Note_on_c, 0, 64, 57
3, 48573, Note_on_c, 0, 57, 50
3, 48576, Note_on_c, 0, 52, 36
3, 48597, Control_c, 0, 64, 127
3, 48634, Note_on_c, 0, 64, 0
3, 48644, Note_on_c, 0, 67, 0
3, 48646, Note_on_c, 0, 74, 61
3, 48665, Note_on_c, 0, 62, 0
3, 48674, Note_on_c, 0, 57, 0
3, 48682, Note_on_c, 0, 52, 0
3, 48684, Note_on_c, 0, 74, 0
3, 48684, Note_on_c, 0, 67, 42
3, 48709, Note_on_c, 0, 67, 0
3, 48735, Note_on_c, 0, 66, 56
3, 48738, Control_c, 0, 64, 0
3, 48738, Note_on_c, 0, 61, 38
3, 48744, Note_on_c, 0, 55, 42
3, 48767, Control_c, 0, 64, 127
3, 48808, Note_on_c, 0, 61, 0
3, 48811, Note_on_c, 0, 66, 0
3, 48813, Note_on_c, 0, 70, 57
3, 48847, Note_on_c, 0, 70, 0
3, 48854, Note_on_c, 0, 61, 31
3, 48855, Note_on_c, 0, 66, 36
3, 48877, Note_on_c, 0, 66, 0
3, 48897, Note_on_c, 0, 61, 0
3, 48904, Note_on_c, 0, 55, 0
3, 48904, Control_c, 0, 64, 0
3, 48905, Note_on_c, 0, 54, 48
3, 48907, Note_on_c, 0, 60, 48
3, 48907, Note_on_c, 0, 65, 57
3, 48935, Control_c, 0, 64, 127
3, 48971, Note_on_c, 0, 60, 0
3, 48974, Note_on_c, 0, 65, 0
3, 48985, Note_on_c, 0, 69, 51
3, 49011, Note_on_c, 0, 69, 0
3, 49021, Note_on_c, 0, 65, 29
3, 49043, Note_on_c, 0, 65, 0
3, 49070, Control_c, 0, 64, 0
3, 49073, Note_on_c, 0, 68, 34
3, 49074, Note_on_c, 0, 59, 41
3, 49074, Note_on_c, 0, 64, 42
3, 49077, Note_on_c, 0, 53, 43
3, 49079, Note_on_c, 0, 54, 0
3, 49104, Control_c, 0, 64, 127
3, 49141, Note_on_c, 0, 59, 0
3, 49186, Note_on_c, 0, 53, 0
3, 49187, Note_on_c, 0, 64, 0
3, 49191, Note_on_c, 0, 68, 0
3, 49241, Note_on_c, 0, 60, 80
3, 49241, Note_on_c, 0, 67, 80
3, 49242, Note_on_c, 0, 72, 73
3, 49242, Note_on_c, 0, 64, 82
3, 49243, Note_on_c, 0, 69, 69
3, 49249, Note_on_c, 0, 69, 0
3, 49252, Note_on_c, 0, 60, 0
3, 49253, Note_on_c, 0, 67, 0
3, 49253, Note_on_c, 0, 64, 0
3, 49254, Control_c, 0, 64, 0
3, 49256, Note_on_c, 0, 72, 0
3, 49278, Control_c, 0, 64, 127
3, 49328, Note_on_c, 0, 47, 66
3, 49329, Note_on_c, 0, 62, 67
3, 49329, Note_on_c, 0, 56, 64
3, 49329, Note_on_c, 0, 59, 60
3, 49330, Control_c, 0, 64, 0
3, 49331, Note_on_c, 0, 53, 71
3, 49366, Control_c, 0, 64, 127
3, 49401, Note_on_c, 0, 62, 0
3, 49414, Note_on_c, 0, 59, 0
3, 49416, Note_on_c, 0, 53, 0
3, 49427, Note_on_c, 0, 56, 0
3, 49448, Note_on_c, 0, 47, 0
3, 49449, Control_c, 0, 64, 0
3, 49450, Note_on_c, 0, 55, 45
3, 49452, Note_on_c, 0, 64, 45
3, 49453, Note_on_c, 0, 60, 44
3, 49454, Note_on_c, 0, 57, 45
3, 49454, Note_on_c, 0, 48, 38
3, 49475, Note_on_c, 0, 57, 0
3, 49475, Note_on_c, 0, 60, 0
3, 49478, Note_on_c, 0, 55, 0
3, 49483, Note_on_c, 0, 64, 0
3, 49527, Note_on_c, 0, 48, 0
3, 49540, Note_on_c, 0, 65, 45
3, 49541, Note_on_c, 0, 50, 47
3, 49541, Note_on_c, 0, 57, 47
3, 49541, Note_on_c, 0, 62, 37
3, 49551, Note_on_c, 0, 60, 17
3, 49560, Note_on_c, 0, 60, 0
3, 49563, Note_on_c, 0, 62, 0
3, 49565, Note_on_c, 0, 57, 0
3, 49568, Note_on_c, 0, 65, 0
3, 49624, Note_on_c, 0, 50, 0
3, 49629, Note_on_c, 0, 67, 46
3, 49630, Control_c, 0, 64, 127
3, 49634, Note_on_c, 0, 52, 36
3, 49635, Note_on_c, 0, 62, 39
3, 49648, Note_on_c, 0, 67, 0
3, 49655, Note_on_c, 0, 62, 0
3, 49674, Note_on_c, 0, 52, 0
3, 49689, Note_on_c, 0, 53, 57
3, 49691, Note_on_c, 0, 69, 55
3, 49694, Note_on_c, 0, 65, 53
3, 49694, Note_on_c, 0, 62, 37
3, 49700, Note_on_c, 0, 65, 0
3, 49701, Note_on_c, 0, 62, 0
3, 49704, Note_on_c, 0, 53, 0
3, 49709, Note_on_c, 0, 69, 0
3, 49760, Control_c, 0, 64, 0
3, 49769, Note_on_c, 0, 70, 69
3, 49771, Note_on_c, 0, 61, 72
3, 49771, Note_on_c, 0, 55, 65
3, 49771, Note_on_c, 0, 66, 64
3, 49789, Control_c, 0, 64, 127
3, 49790, Note_on_c, 0, 55, 0
3, 49795, Note_on_c, 0, 66, 0
3, 49795, Note_on_c, 0, 61, 0
3, 49802, Note_on_c, 0, 70, 0
3, 49820, Note_on_c, 0, 70, 19
3, 49837, Note_on_c, 0, 70, 0
3, 49850, Control_c, 0, 64, 0
3, 49854, Note_on_c, 0, 72, 68
3, 49856, Note_on_c, 0, 69, 61
3, 49856, Note_on_c, 0, 55, 69
3, 49856, Note_on_c, 0, 61, 68
3, 49856, Note_on_c, 0, 45, 69
3, 49857, Note_on_c, 0, 65, 76
3, 49869, Note_on_c, 0, 61, 0
3, 49870, Note_on_c, 0, 55, 0
3, 49872, Note_on_c, 0, 45, 0
3, 49872, Note_on_c, 0, 65, 0
3, 49877, Note_on_c, 0, 69, 0
3, 49880, Note_on_c, 0, 72, 0
3, 49883, Control_c, 0, 64, 127
3, 49942, Note_on_c, 0, 74, 90
3, 49942, Note_on_c, 0, 68, 91
3, 49942, Note_on_c, 0, 71, 88
3, 49943, Control_c, 0, 64, 0
3, 49943, Note_on_c, 0, 54, 72
3, 49943, Note_on_c, 0, 64, 96
3, 49944, Note_on_c, 0, 60, 90
3, 49945, Note_on_c, 0, 50, 72
3, 49969, Note_on_c, 0, 64, 0
3, 49977, Control_c, 0, 64, 127
3, 49981, Note_on_c, 0, 68, 0
3, 49982, Note_on_c, 0, 64, 48
3, 49983, Note_on_c, 0, 71, 0
3, 49988, Note_on_c, 0, 50, 0
3, 49991, Note_on_c, 0, 60, 0
3, 49996, Note_on_c, 0, 68, 29
3, 49999, Note_on_c, 0, 64, 0
3, 50001, Note_on_c, 0, 71, 40
3, 50007, Note_on_c, 0, 54, 0
3, 50016, Note_on_c, 0, 71, 0
3, 50017, Note_on_c, 0, 74, 0
3, 50017, Note_on_c, 0, 64, 43
3, 50019, Note_on_c, 0, 68, 0
3, 50034, Note_on_c, 0, 64, 0
3, 50036, Note_on_c, 0, 68, 46
3, 50036, Note_on_c, 0, 74, 9
3, 50038, Note_on_c, 0, 71, 35
3, 50051, Note_on_c, 0, 64, 43
3, 50053, Note_on_c, 0, 71, 0
3, 50053, Note_on_c, 0, 68, 0
3, 50071, Note_on_c, 0, 64, 0
3, 50072, Note_on_c, 0, 68, 45
3, 50073, Note_on_c, 0, 71, 33
3, 50087, Note_on_c, 0, 71, 0
3, 50088, Note_on_c, 0, 68, 0
3, 50088, Note_on_c, 0, 64, 54
3, 50089, Note_on_c, 0, 74, 0
3, 50103, Note_on_c, 0, 74, 11
3, 50105, Note_on_c, 0, 68, 48
3, 50106, Note_on_c, 0, 64, 0
3, 50108, Note_on_c, 0, 71, 34
3, 50114, Note_on_c, 0, 60, 108
3, 50120, Control_c, 0, 64, 0
3, 50122, Note_on_c, 0, 74, 0
3, 50123, Note_on_c, 0, 64, 49
3, 50125, Note_on_c, 0, 68, 0
3, 50125, Note_on_c, 0, 71, 0
3, 50141, Note_on_c, 0, 64, 0
3, 50142, Note_on_c, 0, 68, 43
3, 50143, Note_on_c, 0, 74, 22
3, 50143, Note_on_c, 0, 71, 35
3, 50156, Note_on_c, 0, 74, 0
3, 50157, Note_on_c, 0, 64, 53
3, 50159, Note_on_c, 0, 68, 0
3, 50160, Note_on_c, 0, 71, 0
3, 50177, Note_on_c, 0, 64, 0
3, 50179, Note_on_c, 0, 68, 46
3, 50180, Note_on_c, 0, 74, 22
3, 50181, Note_on_c, 0, 71, 30
3, 50191, Note_on_c, 0, 74, 0
3, 50193, Note_on_c, 0, 64, 58
3, 50194, Note_on_c, 0, 68, 0
3, 50195, Note_on_c, 0, 71, 0
3, 50213, Note_on_c, 0, 74, 24
3, 50214, Note_on_c, 0, 68, 53
3, 50215, Note_on_c, 0, 64, 0
3, 50215, Note_on_c, 0, 71, 35
3, 50217, Note_on_c, 0, 56, 39
3, 50220, Note_on_c, 0, 60, 0
3, 50230, Note_on_c, 0, 74, 0
3, 50230, Note_on_c, 0, 64, 62
3, 50233, Note_on_c, 0, 56, 0
3, 50233, Note_on_c, 0, 71, 0
3, 50234, Note_on_c, 0, 68, 0
3, 50238, Note_on_c, 0, 59, 82
3, 50249, Note_on_c, 0, 64, 0
3, 50249, Note_on_c, 0, 74, 14
3, 50249, Note_on_c, 0, 68, 40
3, 50252, Note_on_c, 0, 71, 44
3, 50264, Note_on_c, 0, 71, 0
3, 50264, Note_on_c, 0, 68, 0
3, 50265, Note_on_c, 0, 74, 0
3, 50265, Note_on_c, 0, 64, 55
3, 50282, Note_on_c, 0, 74, 15
3, 50285, Note_on_c, 0, 64, 0
3, 50285, Note_on_c, 0, 68, 44
3, 50289, Note_on_c, 0, 71, 29
3, 50300, Note_on_c, 0, 71, 0
3, 50300, Note_on_c, 0, 68, 0
3, 50301, Note_on_c, 0, 74, 0
3, 50301, Note_on_c, 0, 64, 50
3, 50318, Note_on_c, 0, 74, 22
3, 50320, Note_on_c, 0, 64, 0
3, 50321, Note_on_c, 0, 68, 50
3, 50323, Note_on_c, 0, 71, 34
3, 50335, Note_on_c, 0, 64, 44
3, 50337, Note_on_c, 0, 71, 0
3, 50337, Note_on_c, 0, 68, 0
3, 50337, Note_on_c, 0, 74, 0
3, 50347, Control_c, 0, 64, 127
3, 50357, Note_on_c, 0, 64, 0
3, 50359, Note_on_c, 0, 74, 24
3, 50359, Note_on_c, 0, 68, 43
3, 50362, Note_on_c, 0, 71, 30
3, 50373, Control_c, 0, 64, 0
3, 50373, Note_on_c, 0, 56, 65
3, 50376, Note_on_c, 0, 64, 55
3, 50380, Note_on_c, 0, 59, 0
3, 50382, Note_on_c, 0, 71, 0
3, 50383, Note_on_c, 0, 68, 0
3, 50397, Note_on_c, 0, 64, 0
3, 50399, Note_on_c, 0, 68, 35
3, 50402, Note_on_c, 0, 71, 31
3, 50411, Note_on_c, 0, 64, 37
3, 50413, Note_on_c, 0, 71, 0
3, 50413, Note_on_c, 0, 68, 0
3, 50416, Control_c, 0, 64, 127
3, 50432, Note_on_c, 0, 64, 0
3, 50436, Note_on_c, 0, 71, 32
3, 50436, Note_on_c, 0, 68, 28
3, 50446, Note_on_c, 0, 68, 0
3, 50448, Note_on_c, 0, 71, 0
3, 50448, Note_on_c, 0, 64, 39
3, 50473, Note_on_c, 0, 68, 25
3, 50475, Note_on_c, 0, 71, 29
3, 50479, Note_on_c, 0, 56, 0
3, 50479, Control_c, 0, 64, 0
3, 50484, Note_on_c, 0, 64, 0
3, 50485, Note_on_c, 0, 68, 0
3, 50488, Note_on_c, 0, 71, 0
3, 50488, Note_on_c, 0, 52, 60
3, 50490, Note_on_c, 0, 74, 0
3, 50513, Control_c, 0, 64, 127
3, 50533, Note_on_c, 0, 52, 0
3, 50548, Note_on_c, 0, 51, 78
3, 50559, Control_c, 0, 64, 0
3, 50588, Control_c, 0, 64, 127
3, 50619, Note_on_c, 0, 51, 0
3, 50626, Note_on_c, 0, 77, 81
3, 50629, Note_on_c, 0, 50, 63
3, 50631, Control_c, 0, 64, 0
3, 50632, Note_on_c, 0, 60, 60
3, 50634, Note_on_c, 0, 72, 33
3, 50640, Note_on_c, 0, 72, 0
3, 50652, Note_on_c, 0, 77, 0
3, 50658, Control_c, 0, 64, 127
3, 50694, Note_on_c, 0, 60, 0
3, 50714, Note_on_c, 0, 76, 61
3, 50717, Note_on_c, 0, 69, 63
3, 50718, Note_on_c, 0, 65, 63
3, 50718, Note_on_c, 0, 60, 71
3, 50720, Note_on_c, 0, 72, 49
3, 50723, Control_c, 0, 64, 0
3, 50748, Control_c, 0, 64, 127
3, 50765, Note_on_c, 0, 72, 0
3, 50769, Note_on_c, 0, 76, 0
3, 50771, Note_on_c, 0, 69, 0
3, 50779, Note_on_c, 0, 65, 0
3, 50813, Note_on_c, 0, 60, 0
3, 50829, Note_on_c, 0, 50, 0
3, 50833, Note_on_c, 0, 65, 61
3, 50834, Note_on_c, 0, 60, 55
3, 50834, Note_on_c, 0, 57, 55
3, 50834, Note_on_c, 0, 72, 44
3, 50834, Note_on_c, 0, 69, 48
3, 50835, Control_c, 0, 64, 0
3, 50840, Note_on_c, 0, 57, 0
3, 50851, Note_on_c, 0, 60, 0
3, 50855, Control_c, 0, 64, 127
3, 50856, Note_on_c, 0, 65, 0
3, 50866, Note_on_c, 0, 69, 0
3, 50871, Note_on_c, 0, 72, 0
3, 50897, Note_on_c, 0, 43, 74
3, 50898, Control_c, 0, 64, 0
3, 50921, Note_on_c, 0, 43, 0
3, 50929, Control_c, 0, 64, 127
3, 50934, Note_on_c, 0, 43, 65
3, 50969, Note_on_c, 0, 43, 0
3, 50994, Note_on_c, 0, 43, 83
3, 51003, Control_c, 0, 64, 0
3, 51021, Control_c, 0, 64, 127
3, 51082, Note_on_c, 0, 67, 43
3, 51083, Note_on_c, 0, 61, 40
3, 51083, Note_on_c, 0, 53, 45
3, 51084, Note_on_c, 0, 63, 31
3, 51084, Control_c, 0, 64, 0
3, 51085, Note_on_c, 0, 59, 36
3, 51101, Note_on_c, 0, 53, 0
3, 51109, Note_on_c, 0, 61, 0
3, 51109, Note_on_c, 0, 59, 0
3, 51110, Note_on_c, 0, 67, 0
3, 51123, Note_on_c, 0, 59, 25
3, 51123, Note_on_c, 0, 67, 30
3, 51125, Note_on_c, 0, 61, 32
3, 51125, Note_on_c, 0, 53, 43
3, 51127, Control_c, 0, 64, 127
3, 51146, Note_on_c, 0, 59, 0
3, 51148, Note_on_c, 0, 61, 0
3, 51150, Note_on_c, 0, 53, 0
3, 51154, Note_on_c, 0, 63, 0
3, 51158, Note_on_c, 0, 67, 0
3, 51185, Note_on_c, 0, 67, 43
3, 51187, Note_on_c, 0, 61, 48
3, 51187, Note_on_c, 0, 63, 39
3, 51188, Note_on_c, 0, 59, 46
3, 51188, Note_on_c, 0, 53, 45
3, 51190, Control_c, 0, 64, 0
3, 51208, Note_on_c, 0, 59, 0
3, 51213, Note_on_c, 0, 61, 0
3, 51214, Note_on_c, 0, 63, 0
3, 51216, Note_on_c, 0, 67, 0
3, 51219, Control_c, 0, 64, 127
3, 51231, Note_on_c, 0, 53, 0
3, 51275, Note_on_c, 0, 64, 39
3, 51276, Note_on_c, 0, 57, 37
3, 51277, Note_on_c, 0, 62, 32
3, 51277, Note_on_c, 0, 52, 43
3, 51278, Note_on_c, 0, 59, 43
3, 51288, Control_c, 0, 64, 0
3, 51294, Note_on_c, 0, 59, 0
3, 51297, Note_on_c, 0, 57, 0
3, 51297, Note_on_c, 0, 52, 0
3, 51299, Note_on_c, 0, 64, 0
3, 51300, Note_on_c, 0, 62, 0
3, 51313, Note_on_c, 0, 57, 35
3, 51316, Note_on_c, 0, 52, 26
3, 51318, Note_on_c, 0, 64, 40
3, 51319, Note_on_c, 0, 62, 33
3, 51320, Note_on_c, 0, 59, 25
3, 51328, Control_c, 0, 64, 127
3, 51340, Note_on_c, 0, 59, 0
3, 51344, Note_on_c, 0, 57, 0
3, 51347, Note_on_c, 0, 62, 0
3, 51348, Note_on_c, 0, 52, 0
3, 51350, Note_on_c, 0, 64, 0
3, 51372, Note_on_c, 0, 64, 54
3, 51373, Control_c, 0, 64, 0
3, 51374, Note_on_c, 0, 57, 59
3, 51376, Note_on_c, 0, 59, 48
3, 51376, Note_on_c, 0, 62, 47
3, 51378, Note_on_c, 0, 52, 45
3, 51396, Note_on_c, 0, 57, 0
3, 51396, Control_c, 0, 64, 127
3, 51401, Note_on_c, 0, 43, 0
3, 51429, Note_on_c, 0, 59, 0
3, 51440, Note_on_c, 0, 62, 0
3, 51451, Note_on_c, 0, 52, 0
3, 51457, Note_on_c, 0, 43, 77
3, 51460, Note_on_c, 0, 64, 0
3, 51463, Control_c, 0, 64, 0
3, 51479, Control_c, 0, 64, 127
3, 51480, Note_on_c, 0, 43, 0
3, 51582, Control_c, 0, 64, 0
3, 51584, Note_on_c, 0, 64, 76
3, 51584, Note_on_c, 0, 72, 64
3, 51585, Note_on_c, 0, 61, 62
3, 51585, Note_on_c, 0, 60, 84
3, 51586, Note_on_c, 0, 67, 49
3, 51600, Control_c, 0, 64, 127
3, 51606, Note_on_c, 0, 67, 0
3, 51611, Note_on_c, 0, 61, 0
3, 51612, Note_on_c, 0, 64, 0
3, 51620, Note_on_c, 0, 72, 0
3, 51639, Note_on_c, 0, 60, 0
3, 51648, Note_on_c, 0, 58, 55
3, 51667, Note_on_c, 0, 58, 0
3, 51667, Control_c, 0, 64, 0
3, 51675, Note_on_c, 0, 70, 70
3, 51677, Note_on_c, 0, 67, 67
3, 51677, Note_on_c, 0, 75, 71
3, 51677, Note_on_c, 0, 64, 70
3, 51679, Note_on_c, 0, 63, 72
3, 51701, Control_c, 0, 64, 127
3, 51718, Note_on_c, 0, 67, 0
3, 51723, Note_on_c, 0, 75, 0
3, 51724, Note_on_c, 0, 64, 0
3, 51725, Note_on_c, 0, 63, 0
3, 51727, Note_on_c, 0, 70, 0
3, 51737, Note_on_c, 0, 61, 69
3, 51738, Note_on_c, 0, 73, 49
3, 51740, Note_on_c, 0, 70, 57
3, 51741, Note_on_c, 0, 64, 71
3, 51741, Control_c, 0, 64, 0
3, 51752, Note_on_c, 0, 70, 0
3, 51755, Note_on_c, 0, 73, 0
3, 51758, Note_on_c, 0, 64, 0
3, 51759, Note_on_c, 0, 61, 0
3, 51770, Control_c, 0, 64, 127
3, 51824, Note_on_c, 0, 69, 71
3, 51827, Note_on_c, 0, 61, 51
3, 51828, Control_c, 0, 64, 0
3, 51830, Note_on_c, 0, 57, 76
3, 51831, Note_on_c, 0, 67, 25
3, 51833, Note_on_c, 0, 64, 28
3, 51839, Note_on_c, 0, 67, 0
3, 51849, Note_on_c, 0, 64, 0
3, 51852, Note_on_c, 0, 69, 0
3, 51856, Note_on_c, 0, 57, 0
3, 51856, Note_on_c, 0, 61, 0
3, 51860, Note_on_c, 0, 67, 36
3, 51866, Control_c, 0, 64, 127
3, 51875, Note_on_c, 0, 61, 17
3, 51879, Note_on_c, 0, 64, 13
3, 51904, Note_on_c, 0, 67, 0
3, 51921, Note_on_c, 0, 52, 49
3, 51922, Note_on_c, 0, 61, 0
3, 51923, Note_on_c, 0, 64, 0
3, 51936, Note_on_c, 0, 52, 0
3, 51936, Control_c, 0, 64, 0
3, 51946, Note_on_c, 0, 55, 52
3, 51948, Note_on_c, 0, 58, 53
3, 51948, Note_on_c, 0, 61, 42
3, 51952, Note_on_c, 0, 67, 50
3, 51960, Note_on_c, 0, 55, 0
3, 51963, Control_c, 0, 64, 127
3, 51987, Note_on_c, 0, 67, 0
3, 52002, Note_on_c, 0, 58, 0
3, 52005, Note_on_c, 0, 61, 0
3, 52033, Control_c, 0, 64, 0
3, 52036, Note_on_c, 0, 42, 50
3, 52039, Note_on_c, 0, 49, 39
3, 52080, Control_c, 0, 64, 127
3, 52105, Note_on_c, 0, 42, 0
3, 52106, Control_c, 0, 64, 0
3, 52109, Note_on_c, 0, 49, 0
3, 52124, Note_on_c, 0, 50, 29
3, 52125, Note_on_c, 0, 41, 38
3, 52133, Note_on_c, 0, 41, 0
3, 52136, Note_on_c, 0, 50, 0
3, 52151, Control_c, 0, 64, 127
3, 52186, Note_on_c, 0, 74, 68
3, 52204, Note_on_c, 0, 74, 0
3, 52207, Note_on_c, 0, 62, 33
3, 52209, Control_c, 0, 64, 0
3, 52213, Note_on_c, 0, 62, 0
3, 52218, Note_on_c, 0, 72, 38
3, 52219, Note_on_c, 0, 53, 30
3, 52231, Note_on_c, 0, 53, 0
3, 52246, Control_c, 0, 64, 127
3, 52263, Note_on_c, 0, 72, 0
3, 52268, Control_c, 0, 64, 0
3, 52276, Note_on_c, 0, 69, 39
3, 52286, Note_on_c, 0, 69, 0
3, 52287, Note_on_c, 0, 36, 63
3, 52295, Note_on_c, 0, 36, 0
3, 52306, Control_c, 0, 64, 127
3, 52326, Note_on_c, 0, 69, 53
3, 52350, Note_on_c, 0, 69, 0
3, 52383, Note_on_c, 0, 62, 53
3, 52384, Control_c, 0, 64, 0
3, 52389, Note_on_c, 0, 60, 33
3, 52390, Note_on_c, 0, 62, 0
3, 52390, Note_on_c, 0, 69, 58
3, 52395, Note_on_c, 0, 60, 0
3, 52396, Note_on_c, 0, 53, 30
3, 52405, Note_on_c, 0, 53, 0
3, 52412, Control_c, 0, 64, 127
3, 52421, Note_on_c, 0, 69, 0
3, 52440, Control_c, 0, 64, 0
3, 52446, Note_on_c, 0, 69, 55
3, 52461, Note_on_c, 0, 69, 0
3, 52462, Note_on_c, 0, 41, 48
3, 52470, Note_on_c, 0, 41, 0
3, 52472, Control_c, 0, 64, 127
3, 52529, Note_on_c, 0, 76, 101
3, 52535, Note_on_c, 0, 75, 34
3, 52541, Note_on_c, 0, 75, 0
3, 52550, Note_on_c, 0, 62, 37
3, 52551, Note_on_c, 0, 60, 41
3, 52551, Control_c, 0, 64, 0
3, 52555, Note_on_c, 0, 53, 39
3, 52555, Note_on_c, 0, 57, 34
3, 52556, Note_on_c, 0, 62, 0
3, 52559, Note_on_c, 0, 60, 0
3, 52564, Note_on_c, 0, 57, 0
3, 52571, Note_on_c, 0, 53, 0
3, 52582, Control_c, 0, 64, 127
3, 52615, Note_on_c, 0, 43, 44
3, 52624, Note_on_c, 0, 43, 0
3, 52629, Control_c, 0, 64, 0
3, 52639, Note_on_c, 0, 36, 42
3, 52642, Note_on_c, 0, 65, 59
3, 52648, Note_on_c, 0, 36, 0
3, 52654, Control_c, 0, 64, 127
3, 52680, Note_on_c, 0, 65, 0
3, 52686, Note_on_c, 0, 76, 0
3, 52700, Note_on_c, 0, 69, 57
3, 52717, Note_on_c, 0, 69, 0
3, 52719, Control_c, 0, 64, 0
3, 52727, Note_on_c, 0, 72, 62
3, 52741, Control_c, 0, 64, 127
3, 52764, Note_on_c, 0, 72, 0
3, 52779, Control_c, 0, 64, 0
3, 52781, Note_on_c, 0, 76, 62
3, 52782, Note_on_c, 0, 69, 65
3, 52783, Note_on_c, 0, 72, 42
3, 52785, Note_on_c, 0, 65, 39
3, 52791, Note_on_c, 0, 72, 0
3, 52792, Note_on_c, 0, 65, 0
3, 52795, Note_on_c, 0, 41, 46
3, 52798, Note_on_c, 0, 69, 0
3, 52798, Note_on_c, 0, 76, 0
3, 52800, Note_on_c, 0, 50, 32
3, 52801, Note_on_c, 0, 41, 0
3, 52807, Note_on_c, 0, 50, 0
3, 52810, Control_c, 0, 64, 127
3, 52865, Note_on_c, 0, 67, 66
3, 52866, Note_on_c, 0, 72, 55
3, 52867, Note_on_c, 0, 64, 57
3, 52870, Note_on_c, 0, 69, 35
3, 52873, Note_on_c, 0, 64, 0
3, 52875, Note_on_c, 0, 72, 0
3, 52877, Note_on_c, 0, 67, 0
3, 52877, Note_on_c, 0, 69, 0
3, 52881, Note_on_c, 0, 60, 30
3, 52885, Note_on_c, 0, 57, 28
3, 52886, Control_c, 0, 64, 0
3, 52888, Note_on_c, 0, 53, 25
3, 52889, Note_on_c, 0, 60, 0
3, 52895, Note_on_c, 0, 57, 0
3, 52897, Note_on_c, 0, 53, 0
3, 52914, Control_c, 0, 64, 127
3, 52943, Note_on_c, 0, 48, 50
3, 52953, Note_on_c, 0, 48, 0
3, 52954, Control_c, 0, 64, 0
3, 52970, Note_on_c, 0, 61, 44
3, 52970, Note_on_c, 0, 58, 37
3, 52973, Note_on_c, 0, 67, 32
3, 52973, Note_on_c, 0, 64, 50
3, 52975, Note_on_c, 0, 55, 42
3, 52981, Control_c, 0, 64, 127
3, 52991, Note_on_c, 0, 55, 0
3, 53024, Note_on_c, 0, 61, 0
3, 53025, Note_on_c, 0, 67, 0
3, 53033, Note_on_c, 0, 58, 0
3, 53046, Note_on_c, 0, 64, 0
3, 53058, Note_on_c, 0, 42, 37
3, 53058, Note_on_c, 0, 58, 39
3, 53059, Control_c, 0, 64, 0
3, 53059, Note_on_c, 0, 61, 32
3, 53061, Note_on_c, 0, 49, 32
3, 53078, Control_c, 0, 64, 127
3, 53105, Note_on_c, 0, 58, 0
3, 53107, Note_on_c, 0, 61, 0
3, 53120, Note_on_c, 0, 42, 0
3, 53120, Note_on_c, 0, 57, 48
3, 53124, Note_on_c, 0, 60, 47
3, 53129, Control_c, 0, 64, 0
3, 53131, Note_on_c, 0, 49, 0
3, 53138, Note_on_c, 0, 50, 29
3, 53140, Note_on_c, 0, 41, 32
3, 53156, Control_c, 0, 64, 127
3, 53179, Note_on_c, 0, 60, 0
3, 53192, Note_on_c, 0, 57, 0
3, 53194, Note_on_c, 0, 50, 0
3, 53222, Note_on_c, 0, 41, 0
3, 53223, Note_on_c, 0, 43, 34
3, 53225, Note_on_c, 0, 58, 53
3, 53229, Note_on_c, 0, 50, 37
3, 53229, Note_on_c, 0, 53, 44
3, 53230, Control_c, 0, 64, 0
3, 53255, Control_c, 0, 64, 127
3, 53289, Note_on_c, 0, 53, 0
3, 53293, Control_c, 0, 64, 0
3, 53302, Note_on_c, 0, 58, 0
3, 53312, Note_on_c, 0, 43, 0
3, 53314, Note_on_c, 0, 50, 0
3, 53314, Note_on_c, 0, 53, 36
3, 53315, Note_on_c, 0, 44, 49
3, 53316, Note_on_c, 0, 59, 48
3, 53320, Control_c, 0, 64, 127
3, 53358, Note_on_c, 0, 53, 0
3, 53374, Note_on_c, 0, 59, 0
3, 53378, Note_on_c, 0, 44, 0
3, 53380, Note_on_c, 0, 45, 36
3, 53380, Note_on_c, 0, 57, 61
3, 53381, Note_on_c, 0, 53, 28
3, 53382, Note_on_c, 0, 60, 59
3, 53389, Note_on_c, 0, 53, 0
3, 53389, Note_on_c, 0, 45, 0
3, 53396, Control_c, 0, 64, 0
3, 53397, Note_on_c, 0, 57, 0
3, 53400, Note_on_c, 0, 39, 48
3, 53403, Note_on_c, 0, 60, 0
3, 53404, Note_on_c, 0, 49, 21
3, 53420, Control_c, 0, 64, 127
3, 53462, Note_on_c, 0, 49, 0
3, 53463, Control_c, 0, 64, 0
3, 53465, Note_on_c, 0, 62, 54
3, 53465, Note_on_c, 0, 54, 46
3, 53474, Note_on_c, 0, 39, 0
3, 53476, Note_on_c, 0, 54, 0
3, 53477, Note_on_c, 0, 38, 53
3, 53480, Note_on_c, 0, 50, 19
3, 53482, Note_on_c, 0, 62, 0
3, 53485, Note_on_c, 0, 38, 0
3, 53487, Control_c, 0, 64, 127
3, 53499, Note_on_c, 0, 50, 0
3, 53545, Note_on_c, 0, 66, 60
3, 53546, Note_on_c, 0, 74, 58
3, 53547, Note_on_c, 0, 64, 62
3, 53551, Note_on_c, 0, 69, 51
3, 53553, Note_on_c, 0, 64, 0
3, 53557, Note_on_c, 0, 69, 0
3, 53557, Note_on_c, 0, 66, 0
3, 53561, Control_c, 0, 64, 0
3, 53564, Note_on_c, 0, 74, 0
3, 53566, Note_on_c, 0, 54, 35
3, 53566, Note_on_c, 0, 60, 39
3, 53573, Note_on_c, 0, 60, 0
3, 53582, Control_c, 0, 64, 127
3, 53583, Note_on_c, 0, 54, 0
3, 53627, Note_on_c, 0, 76, 64
3, 53628, Note_on_c, 0, 69, 69
3, 53628, Note_on_c, 0, 64, 73
3, 53629, Note_on_c, 0, 72, 55
3, 53629, Control_c, 0, 64, 0
3, 53638, Note_on_c, 0, 64, 0
3, 53644, Note_on_c, 0, 69, 0
3, 53645, Note_on_c, 0, 45, 31
3, 53645, Note_on_c, 0, 54, 27
3, 53647, Note_on_c, 0, 72, 0
3, 53648, Note_on_c, 0, 76, 0
3, 53655, Note_on_c, 0, 45, 0
3, 53656, Control_c, 0, 64, 127
3, 53669, Note_on_c, 0, 54, 0
3, 53710, Note_on_c, 0, 64, 79
3, 53711, Note_on_c, 0, 76, 64
3, 53711, Note_on_c, 0, 69, 68
3, 53711, Note_on_c, 0, 72, 60
3, 53722, Note_on_c, 0, 60, 54
3, 53723, Note_on_c, 0, 64, 0
3, 53723, Control_c, 0, 64, 0
3, 53724, Note_on_c, 0, 69, 0
3, 53725, Note_on_c, 0, 54, 39
3, 53727, Note_on_c, 0, 76, 0
3, 53727, Note_on_c, 0, 72, 0
3, 53728, Note_on_c, 0, 60, 0
3, 53736, Note_on_c, 0, 54, 0
3, 53748, Control_c, 0, 64, 127
3, 53793, Note_on_c, 0, 76, 66
3, 53794, Note_on_c, 0, 69, 74
3, 53794, Note_on_c, 0, 72, 68
3, 53794, Note_on_c, 0, 64, 79
3, 53797, Control_c, 0, 64, 0
3, 53799, Note_on_c, 0, 74, 40
3, 53808, Note_on_c, 0, 45, 36
3, 53809, Note_on_c, 0, 54, 48
3, 53822, Note_on_c, 0, 45, 0
3, 53824, Control_c, 0, 64, 127
3, 53837, Note_on_c, 0, 54, 0
3, 53841, Note_on_c, 0, 64, 0
3, 53848, Note_on_c, 0, 76, 0
3, 53858, Note_on_c, 0, 74, 0
3, 53872, Note_on_c, 0, 69, 0
3, 53879, Note_on_c, 0, 66, 81
3, 53883, Note_on_c, 0, 69, 44
3, 53894, Note_on_c, 0, 54, 59
3, 53895, Note_on_c, 0, 60, 57
3, 53902, Control_c, 0, 64, 0
3, 53913, Note_on_c, 0, 60, 0
3, 53922, Note_on_c, 0, 54, 0
3, 53923, Control_c, 0, 64, 127
3, 53944, Note_on_c, 0, 69, 0
3, 53976, Note_on_c, 0, 66, 0
3, 53981, Control_c, 0, 64, 0
3, 53983, Note_on_c, 0, 72, 0
3, 53992, Note_on_c, 0, 54, 38
3, 53995, Note_on_c, 0, 66, 47
3, 53995, Note_on_c, 0, 60, 38
3, 53996, Note_on_c, 0, 69, 58
3, 54003, Control_c, 0, 64, 127
3, 54012, Note_on_c, 0, 60, 0
3, 54027, Note_on_c, 0, 54, 0
3, 54040, Note_on_c, 0, 66, 0
3, 54059, Note_on_c, 0, 69, 0
3, 54077, Note_on_c, 0, 63, 62
3, 54077, Control_c, 0, 64, 0
3, 54079, Note_on_c, 0, 66, 59
3, 54080, Note_on_c, 0, 69, 45
3, 54081, Note_on_c, 0, 72, 57
3, 54097, Control_c, 0, 64, 127
3, 54128, Note_on_c, 0, 66, 0
3, 54136, Note_on_c, 0, 69, 0
3, 54141, Note_on_c, 0, 72, 0
3, 54149, Note_on_c, 0, 63, 0
3, 54156, Control_c, 0, 64, 0
3, 54163, Note_on_c, 0, 62, 54
3, 54164, Note_on_c, 0, 76, 49
3, 54165, Note_on_c, 0, 65, 55
3, 54165, Note_on_c, 0, 72, 37
3, 54167, Note_on_c, 0, 69, 47
3, 54178, Control_c, 0, 64, 127
3, 54239, Control_c, 0, 64, 0
3, 54243, Note_on_c, 0, 62, 0
3, 54249, Note_on_c, 0, 61, 61
3, 54254, Control_c, 0, 64, 127
3, 54258, Note_on_c, 0, 72, 0
3, 54259, Note_on_c, 0, 76, 0
3, 54266, Note_on_c, 0, 69, 0
3, 54288, Note_on_c, 0, 65, 0
3, 54322, Control_c, 0, 64, 0
3, 54325, Note_on_c, 0, 61, 0
3, 54335, Note_on_c, 0, 65, 62
3, 54336, Note_on_c, 0, 72, 43
3, 54337, Note_on_c, 0, 69, 46
3, 54337, Note_on_c, 0, 60, 51
3, 54342, Control_c, 0, 64, 127
3, 54383, Note_on_c, 0, 65, 0
3, 54401, Note_on_c, 0, 60, 0
3, 54414, Control_c, 0, 64, 0
3, 54417, Note_on_c, 0, 72, 0
3, 54418, Note_on_c, 0, 65, 60
3, 54418, Note_on_c, 0, 57, 57
3, 54421, Control_c, 0, 64, 127
3, 54422, Note_on_c, 0, 60, 51
3, 54428, Note_on_c, 0, 69, 0
3, 54431, Note_on_c, 0, 57, 0
3, 54447, Note_on_c, 0, 65, 0
3, 54453, Note_on_c, 0, 60, 0
3, 54496, Control_c, 0, 64, 0
3, 54503, Note_on_c, 0, 64, 60
3, 54506, Note_on_c, 0, 67, 48
3, 54506, Note_on_c, 0, 59, 51
3, 54508, Note_on_c, 0, 53, 50
3, 54521, Control_c, 0, 64, 127
3, 54564, Note_on_c, 0, 43, 68
3, 54568, Note_on_c, 0, 59, 0
3, 54573, Note_on_c, 0, 64, 0
3, 54581, Note_on_c, 0, 43, 0
3, 54583, Note_on_c, 0, 53, 0
3, 54583, Note_on_c, 0, 67, 0
3, 54647, Note_on_c, 0, 67, 85
3, 54648, Note_on_c, 0, 63, 79
3, 54648, Note_on_c, 0, 58, 86
3, 54649, Note_on_c, 0, 53, 78
3, 54649, Note_on_c, 0, 49, 77
3, 54649, Note_on_c, 0, 59, 83
3, 54650, Control_c, 0, 64, 0
3, 54686, Control_c, 0, 64, 127
3, 54774, Note_on_c, 0, 59, 0
3, 54798, Note_on_c, 0, 67, 0
3, 54800, Note_on_c, 0, 58, 0
3, 54801, Note_on_c, 0, 53, 0
3, 54805, Note_on_c, 0, 63, 0
3, 54811, Note_on_c, 0, 49, 0
3, 54857, Note_on_c, 0, 67, 78
3, 54857, Note_on_c, 0, 62, 81
3, 54858, Note_on_c, 0, 64, 76
3, 54858, Note_on_c, 0, 57, 81
3, 54859, Control_c, 0, 64, 0
3, 54862, Note_on_c, 0, 52, 59
3, 54942, Control_c, 0, 64, 127
3, 54949, Note_on_c, 0, 52, 0
3, 55012, Note_on_c, 0, 36, 74
3, 55014, Control_c, 0, 64, 0
3, 55077, Control_c, 0, 64, 127
3, 55090, Control_c, 0, 64, 0
3, 55091, Note_on_c, 0, 36, 0
3, 55102, Note_on_c, 0, 43, 80
3, 55113, Control_c, 0, 64, 127
3, 55154, Note_on_c, 0, 57, 0
3, 55175, Note_on_c, 0, 62, 0
3, 55177, Note_on_c, 0, 64, 0
3, 55182, Note_on_c, 0, 43, 0
3, 55187, Note_on_c, 0, 52, 82
3, 55194, Note_on_c, 0, 67, 0
3, 55201, Note_on_c, 0, 52, 0
3, 55270, Note_on_c, 0, 64, 87
3, 55270, Note_on_c, 0, 76, 94
3, 55271, Note_on_c, 0, 60, 82
3, 55278, Note_on_c, 0, 75, 36
3, 55285, Note_on_c, 0, 75, 0
3, 55366, Note_on_c, 0, 64, 0
3, 55384, Control_c, 0, 64, 0
3, 55385, Note_on_c, 0, 76, 0
3, 55386, Note_on_c, 0, 60, 0
3, 55389, Note_on_c, 0, 67, 46
3, 55414, Note_on_c, 0, 67, 0
3, 55476, Note_on_c, 0, 72, 51
3, 55485, Control_c, 0, 64, 127
3, 55489, Note_on_c, 0, 72, 0
3, 55552, Control_c, 0, 64, 0
3, 55559, Note_on_c, 0, 68, 36
3, 55560, Note_on_c, 0, 76, 48
3, 55561, Note_on_c, 0, 60, 34
3, 55563, Note_on_c, 0, 64, 43
3, 55566, Note_on_c, 0, 54, 30
3, 55568, Note_on_c, 0, 50, 33
3, 55586, Control_c, 0, 64, 127
3, 55637, Note_on_c, 0, 50, 0
3, 55642, Note_on_c, 0, 64, 0
3, 55644, Note_on_c, 0, 60, 0
3, 55647, Note_on_c, 0, 76, 0
3, 55650, Note_on_c, 0, 54, 0
3, 55664, Note_on_c, 0, 68, 0
3, 55702, Note_on_c, 0, 68, 35
3, 55704, Control_c, 0, 64, 0
3, 55705, Note_on_c, 0, 60, 44
3, 55705, Note_on_c, 0, 64, 38
3, 55706, Note_on_c, 0, 54, 31
3, 55710, Note_on_c, 0, 50, 32
3, 55716, Control_c, 0, 64, 127
3, 55730, Note_on_c, 0, 64, 0
3, 55744, Note_on_c, 0, 50, 0
3, 55744, Note_on_c, 0, 68, 0
3, 55748, Note_on_c, 0, 54, 0
3, 55752, Note_on_c, 0, 60, 0
3, 55902, Note_on_c, 0, 76, 29
3, 55902, Note_on_c, 0, 82, 32
3, 55903, Note_on_c, 0, 78, 29
3, 55904, Control_c, 0, 64, 0
3, 55904, Note_on_c, 0, 80, 33
3, 55905, Note_on_c, 0, 84, 36
3, 55905, Note_on_c, 0, 72, 46
3, 55932, Note_on_c, 0, 84, 0
3, 55936, Note_on_c, 0, 78, 0
3, 55937, Note_on_c, 0, 80, 0
3, 55938, Note_on_c, 0, 76, 0
3, 55939, Note_on_c, 0, 82, 0
3, 55939, Note_on_c, 0, 72, 0
3, 55942, Control_c, 0, 64, 127
3, 55959, Note_on_c, 0, 72, 37
3, 55960, Note_on_c, 0, 76, 29
3, 55962, Note_on_c, 0, 78, 33
3, 55962, Note_on_c, 0, 82, 28
3, 55963, Note_on_c, 0, 80, 33
3, 55965, Note_on_c, 0, 84, 22
3, 55972, Note_on_c, 0, 84, 0
3, 55974, Control_c, 0, 64, 0
3, 55975, Note_on_c, 0, 78, 0
3, 55975, Note_on_c, 0, 80, 0
3, 55977, Note_on_c, 0, 76, 0
3, 55979, Note_on_c, 0, 72, 0
3, 55980, Note_on_c, 0, 82, 0
3, 55990, Note_on_c, 0, 72, 31
3, 55992, Note_on_c, 0, 76, 30
3, 55993, Note_on_c, 0, 78, 31
3, 55994, Note_on_c, 0, 80, 29
3, 55995, Note_on_c, 0, 82, 26
3, 55995, Note_on_c, 0, 84, 27
3, 56005, Note_on_c, 0, 84, 0
3, 56007, Note_on_c, 0, 76, 0
3, 56007, Note_on_c, 0, 78, 0
3, 56007, Note_on_c, 0, 80, 0
3, 56011, Note_on_c, 0, 72, 0
3, 56013, Note_on_c, 0, 82, 0
3, 56082, Note_on_c, 0, 76, 40
3, 56082, Note_on_c, 0, 72, 49
3, 56083, Note_on_c, 0, 84, 40
3, 56083, Note_on_c, 0, 78, 30
3, 56084, Note_on_c, 0, 82, 34
3, 56085, Note_on_c, 0, 80, 30
3, 56095, Control_c, 0, 64, 127
3, 56112, Note_on_c, 0, 80, 0
3, 56113, Note_on_c, 0, 84, 0
3, 56115, Note_on_c, 0, 82, 0
3, 56116, Note_on_c, 0, 78, 0
3, 56116, Note_on_c, 0, 72, 0
3, 56117, Note_on_c, 0, 76, 0
3, 56141, Note_on_c, 0, 72, 49
3, 56142, Note_on_c, 0, 78, 47
3, 56143, Note_on_c, 0, 76, 48
3, 56143, Note_on_c, 0, 84, 47
3, 56145, Note_on_c, 0, 82, 32
3, 56146, Note_on_c, 0, 80, 31
3, 56149, Note_on_c, 0, 84, 0
3, 56150, Note_on_c, 0, 72, 0
3, 56152, Note_on_c, 0, 82, 0
3, 56152, Note_on_c, 0, 80, 0
3, 56153, Note_on_c, 0, 76, 0
3, 56155, Note_on_c, 0, 78, 0
3, 56155, Control_c, 0, 64, 0
3, 56187, Control_c, 0, 64, 127
3, 56314, Note_on_c, 0, 65, 88
3, 56315, Note_on_c, 0, 60, 94
3, 56315, Note_on_c, 0, 69, 78
3, 56319, Control_c, 0, 64, 0
3, 56338, Note_on_c, 0, 60, 0
3, 56339, Note_on_c, 0, 65, 0
3, 56347, Note_on_c, 0, 69, 0
3, 56375, Control_c, 0, 64, 127
3, 56400, Control_c, 0, 64, 0
3, 56435, Note_on_c, 0, 65, 71
3, 56436, Note_on_c, 0, 69, 64
3, 56437, Note_on_c, 0, 60, 66
3, 56439, Note_on_c, 0, 55, 50
3, 56442, Control_c, 0, 64, 127
3, 56479, Note_on_c, 0, 55, 0
3, 56480, Note_on_c, 0, 60, 0
3, 56496, Note_on_c, 0, 65, 0
3, 56501, Note_on_c, 0, 69, 0
3, 56610, Control_c, 0, 64, 0
3, 56618, Note_on_c, 0, 57, 74
3, 56620, Note_on_c, 0, 69, 96
3, 56637, Control_c, 0, 64, 127
3, 56670, Note_on_c, 0, 58, 53
3, 56673, Note_on_c, 0, 70, 67
3, 56675, Note_on_c, 0, 57, 0
3, 56685, Note_on_c, 0, 69, 0
3, 56689, Control_c, 0, 64, 0
3, 56695, Note_on_c, 0, 70, 0
3, 56699, Note_on_c, 0, 58, 0
3, 56706, Note_on_c, 0, 59, 41
3, 56707, Note_on_c, 0, 71, 64
3, 56711, Control_c, 0, 64, 127
3, 56747, Note_on_c, 0, 59, 0
3, 56749, Note_on_c, 0, 71, 0
3, 56756, Note_on_c, 0, 64, 63
3, 56757, Note_on_c, 0, 76, 78
3, 56760, Control_c, 0, 64, 0
3, 56763, Note_on_c, 0, 64, 0
3, 56774, Note_on_c, 0, 76, 0
3, 56795, Note_on_c, 0, 67, 47
3, 56799, Note_on_c, 0, 65, 26
3, 56799, Note_on_c, 0, 55, 47
3, 56801, Control_c, 0, 64, 127
3, 56805, Note_on_c, 0, 65, 0
3, 56811, Note_on_c, 0, 55, 0
3, 56813, Note_on_c, 0, 67, 0
3, 56828, Note_on_c, 0, 66, 20
3, 56834, Note_on_c, 0, 66, 0
3, 56839, Control_c, 0, 64, 0
3, 56843, Note_on_c, 0, 66, 56
3, 56844, Note_on_c, 0, 54, 47
3, 56850, Control_c, 0, 64, 127
3, 56863, Note_on_c, 0, 66, 0
3, 56869, Note_on_c, 0, 54, 0
3, 56878, Note_on_c, 0, 53, 43
3, 56885, Note_on_c, 0, 64, 30
3, 56896, Note_on_c, 0, 64, 0
3, 56896, Note_on_c, 0, 53, 0
3, 56927, Note_on_c, 0, 74, 63
3, 56933, Control_c, 0, 64, 0
3, 56942, Note_on_c, 0, 74, 0
3, 56964, Control_c, 0, 64, 127
3, 57033, Note_on_c, 0, 64, 113
3, 57038, Note_on_c, 0, 40, 88
3, 57039, Control_c, 0, 64, 0
3, 57076, Control_c, 0, 64, 127
3, 57122, Note_on_c, 0, 39, 39
3, 57123, Note_on_c, 0, 40, 0
3, 57141, Note_on_c, 0, 39, 0
3, 57142, Note_on_c, 0, 64, 0
3, 57142, Control_c, 0, 64, 0
3, 57147, Note_on_c, 0, 41, 75
3, 57149, Note_on_c, 0, 65, 81
3, 57178, Note_on_c, 0, 65, 0
3, 57198, Note_on_c, 0, 41, 0
3, 57230, Note_on_c, 0, 42, 77
3, 57233, Note_on_c, 0, 66, 74
3, 57238, Control_c, 0, 64, 127
3, 57247, Note_on_c, 0, 42, 0
3, 57256, Note_on_c, 0, 66, 0
3, 57310, Control_c, 0, 64, 0
3, 57319, Note_on_c, 0, 32, 60
3, 57320, Note_on_c, 0, 68, 58
3, 57320, Note_on_c, 0, 44, 64
3, 57320, Note_on_c, 0, 56, 67
3, 57328, Control_c, 0, 64, 127
3, 57335, Note_on_c, 0, 32, 0
3, 57337, Note_on_c, 0, 56, 0
3, 57338, Note_on_c, 0, 68, 0
3, 57340, Note_on_c, 0, 44, 0
3, 57375, Note_on_c, 0, 34, 65
3, 57376, Note_on_c, 0, 46, 72
3, 57376, Note_on_c, 0, 70, 64
3, 57379, Note_on_c, 0, 58, 45
3, 57389, Note_on_c, 0, 70, 0
3, 57390, Note_on_c, 0, 34, 0
3, 57390, Note_on_c, 0, 46, 0
3, 57390, Note_on_c, 0, 58, 0
3, 57395, Control_c, 0, 64, 0
3, 57407, Note_on_c, 0, 48, 78
3, 57409, Note_on_c, 0, 72, 70
3, 57409, Note_on_c, 0, 60, 74
3, 57410, Note_on_c, 0, 36, 74
3, 57413, Note_on_c, 0, 47, 40
3, 57417, Control_c, 0, 64, 127
3, 57420, Note_on_c, 0, 47, 0
3, 57428, Note_on_c, 0, 72, 0
3, 57429, Note_on_c, 0, 36, 0
3, 57435, Note_on_c, 0, 60, 0
3, 57437, Note_on_c, 0, 48, 0
3, 57465, Control_c, 0, 64, 0
3, 57466, Note_on_c, 0, 37, 82
3, 57467, Note_on_c, 0, 73, 76
3, 57467, Note_on_c, 0, 49, 93
3, 57467, Note_on_c, 0, 61, 94
3, 57496, Control_c, 0, 64, 127
3, 57581, Note_on_c, 0, 37, 0
3, 57589, Note_on_c, 0, 49, 0
3, 57610, Note_on_c, 0, 61, 0
3, 57634, Note_on_c, 0, 73, 0
3, 57982, Note_on_c, 0, 66, 33
3, 57982, Note_on_c, 0, 74, 43
3, 57983, Note_on_c, 0, 69, 51
3, 57986, Note_on_c, 0, 48, 41
3, 57989, Control_c, 0, 64, 0
3, 58014, Control_c, 0, 64, 127
3, 58030, Note_on_c, 0, 66, 0
3, 58032, Note_on_c, 0, 48, 0
3, 58036, Note_on_c, 0, 69, 0
3, 58037, Note_on_c, 0, 58, 34
3, 58042, Note_on_c, 0, 74, 0
3, 58056, Note_on_c, 0, 58, 0
3, 58088, Note_on_c, 0, 74, 38
3, 58090, Note_on_c, 0, 58, 33
3, 58090, Note_on_c, 0, 81, 46
3, 58116, Note_on_c, 0, 81, 0
3, 58119, Note_on_c, 0, 74, 0
3, 58134, Note_on_c, 0, 69, 45
3, 58136, Note_on_c, 0, 78, 36
3, 58140, Note_on_c, 0, 64, 36
3, 58141, Note_on_c, 0, 69, 0
3, 58151, Note_on_c, 0, 78, 0
3, 58158, Note_on_c, 0, 58, 0
3, 58189, Note_on_c, 0, 93, 69
3, 58195, Note_on_c, 0, 86, 20
3, 58220, Note_on_c, 0, 86, 0
3, 58222, Note_on_c, 0, 93, 0
3, 58232, Note_on_c, 0, 81, 40
3, 58238, Note_on_c, 0, 64, 0
3, 58239, Note_on_c, 0, 58, 26
3, 58240, Note_on_c, 0, 90, 32
3, 58242, Note_on_c, 0, 81, 0
3, 58250, Note_on_c, 0, 90, 0
3, 58297, Note_on_c, 0, 64, 32
3, 58302, Note_on_c, 0, 98, 22
3, 58302, Note_on_c, 0, 105, 13
3, 58306, Note_on_c, 0, 58, 0
3, 58332, Note_on_c, 0, 98, 0
3, 58334, Note_on_c, 0, 105, 0
3, 58347, Note_on_c, 0, 64, 0
3, 58347, Note_on_c, 0, 93, 29
3, 58348, Note_on_c, 0, 102, 34
3, 58351, Note_on_c, 0, 58, 21
3, 58361, Note_on_c, 0, 58, 0
3, 58381, Note_on_c, 0, 93, 0
3, 58391, Note_on_c, 0, 102, 0
3, 58412, Note_on_c, 0, 98, 40
3, 58417, Note_on_c, 0, 105, 24
3, 58442, Note_on_c, 0, 98, 0
3, 58445, Note_on_c, 0, 105, 0
3, 58467, Note_on_c, 0, 102, 39
3, 58468, Note_on_c, 0, 93, 36
3, 58486, Note_on_c, 0, 93, 0
3, 58498, Note_on_c, 0, 102, 0
3, 58530, Note_on_c, 0, 105, 40
3, 58531, Note_on_c, 0, 98, 41
3, 58534, Note_on_c, 0, 24, 42
3, 58546, Note_on_c, 0, 98, 0
3, 58546, Note_on_c, 0, 105, 0
3, 58558, Note_on_c, 0, 24, 0
3, 58992, Control_c, 0, 64, 0
3, 58992, End_track
0, 0, End_of_file
