0, 0, Header, 1, 4, 480
1, 0, Start_track
1, 0, Title_t, "GoneWithThe Wind"
1, 0, Copyright_t, "1997"
1, 0, Text_t, "\012"
1, 0, Time_signature, 4, 2, 24, 8
1, 0, Key_signature, 0, "major"
1, 0, Tempo, 461538
1, 0, End_track
2, 0, Start_track
2, 0, MIDI_port, 1
2, 0, Title_t, ""
2, 0, Program_c, 2, 32
2, 0, Control_c, 2, 7, 100
2, 2, Note_on_c, 2, 36, 82
2, 359, Note_on_c, 2, 43, 58
2, 398, Note_on_c, 2, 43, 0
2, 490, Note_on_c, 2, 48, 123
2, 887, Note_on_c, 2, 48, 0
2, 933, Note_on_c, 2, 49, 83
2, 1142, Note_on_c, 2, 36, 0
2, 1412, Note_on_c, 2, 49, 0
2, 1415, Note_on_c, 2, 37, 96
2, 1835, Note_on_c, 2, 34, 18
2, 1890, Note_on_c, 2, 34, 0
2, 1899, Note_on_c, 2, 37, 0
2, 1906, Note_on_c, 2, 38, 71
2, 2246, Note_on_c, 2, 48, 110
2, 2314, Note_on_c, 2, 38, 0
2, 2350, Note_on_c, 2, 48, 0
2, 2402, Note_on_c, 2, 45, 55
2, 2728, Note_on_c, 2, 37, 47
2, 2809, Note_on_c, 2, 37, 0
2, 2815, Note_on_c, 2, 45, 0
2, 2860, Note_on_c, 2, 41, 71
2, 3279, Note_on_c, 2, 41, 0
2, 3314, Note_on_c, 2, 42, 100
2, 3799, Note_on_c, 2, 42, 0
2, 3808, Note_on_c, 2, 43, 91
2, 3847, Note_on_c, 2, 43, 0
2, 4143, Note_on_c, 2, 38, 85
2, 4229, Note_on_c, 2, 38, 0
2, 4282, Note_on_c, 2, 32, 93
2, 4727, Note_on_c, 2, 32, 0
2, 4764, Note_on_c, 2, 31, 92
2, 4771, Note_on_c, 2, 32, 63
2, 4819, Note_on_c, 2, 32, 0
2, 5184, Note_on_c, 2, 31, 0
2, 5247, Note_on_c, 2, 31, 96
2, 5733, Note_on_c, 2, 31, 0
2, 5744, Note_on_c, 2, 36, 101
2, 6202, Note_on_c, 2, 36, 0
2, 6238, Note_on_c, 2, 36, 117
2, 6861, Note_on_c, 2, 35, 92
2, 6876, Note_on_c, 2, 36, 0
2, 6939, Note_on_c, 2, 35, 0
2, 7009, Note_on_c, 2, 34, 98
2, 7122, Note_on_c, 2, 34, 0
2, 7186, Note_on_c, 2, 32, 96
2, 7658, Note_on_c, 2, 32, 0
2, 7706, Note_on_c, 2, 33, 83
2, 8183, Note_on_c, 2, 48, 127
2, 8529, Note_on_c, 2, 33, 0
2, 8839, Note_on_c, 2, 45, 77
2, 8842, Note_on_c, 2, 48, 0
2, 8877, Note_on_c, 2, 45, 0
2, 8986, Note_on_c, 2, 40, 75
2, 9112, Note_on_c, 2, 40, 0
2, 9150, Note_on_c, 2, 39, 83
2, 9505, Note_on_c, 2, 37, 52
2, 9554, Note_on_c, 2, 39, 0
2, 9640, Note_on_c, 2, 37, 0
2, 9647, Note_on_c, 2, 38, 72
2, 9972, Note_on_c, 2, 37, 33
2, 10112, Note_on_c, 2, 55, 92
2, 10125, Note_on_c, 2, 37, 0
2, 10554, Note_on_c, 2, 55, 0
2, 10608, Note_on_c, 2, 54, 42
2, 10811, Note_on_c, 2, 38, 0
2, 11039, Note_on_c, 2, 38, 72
2, 11061, Note_on_c, 2, 54, 0
2, 11385, Note_on_c, 2, 37, 72
2, 11395, Note_on_c, 2, 38, 0
2, 11520, Note_on_c, 2, 37, 0
2, 11535, Note_on_c, 2, 38, 60
2, 11880, Note_on_c, 2, 37, 35
2, 11990, Note_on_c, 2, 37, 0
2, 11999, Note_on_c, 2, 53, 85
2, 12048, Note_on_c, 2, 38, 0
2, 12447, Note_on_c, 2, 53, 0
2, 12490, Note_on_c, 2, 52, 51
2, 12925, Note_on_c, 2, 52, 0
2, 12951, Note_on_c, 2, 50, 72
2, 13297, Note_on_c, 2, 41, 53
2, 13335, Note_on_c, 2, 41, 0
2, 13370, Note_on_c, 2, 50, 0
2, 13417, Note_on_c, 2, 48, 62
2, 13900, Note_on_c, 2, 48, 0
2, 13907, Note_on_c, 2, 39, 92
2, 14375, Note_on_c, 2, 39, 0
2, 14407, Note_on_c, 2, 38, 65
2, 14733, Note_on_c, 2, 48, 100
2, 14817, Note_on_c, 2, 38, 0
2, 14824, Note_on_c, 2, 48, 0
2, 14896, Note_on_c, 2, 47, 77
2, 15244, Note_on_c, 2, 47, 0
2, 15409, Note_on_c, 2, 36, 108
2, 16181, Note_on_c, 2, 34, 42
2, 16267, Note_on_c, 2, 34, 0
2, 16277, Note_on_c, 2, 36, 0
2, 16305, Note_on_c, 2, 37, 92
2, 16969, Note_on_c, 2, 37, 0
2, 16991, Note_on_c, 2, 36, 78
2, 17111, Note_on_c, 2, 36, 0
2, 17131, Note_on_c, 2, 37, 93
2, 17239, Note_on_c, 2, 37, 0
2, 17300, Note_on_c, 2, 38, 106
2, 18234, Note_on_c, 2, 33, 80
2, 18244, Note_on_c, 2, 38, 0
2, 18676, Note_on_c, 2, 33, 0
2, 18706, Note_on_c, 2, 32, 88
2, 19159, Note_on_c, 2, 32, 0
2, 19198, Note_on_c, 2, 31, 88
2, 19523, Note_on_c, 2, 45, 105
2, 19595, Note_on_c, 2, 31, 0
2, 19657, Note_on_c, 2, 45, 0
2, 19684, Note_on_c, 2, 43, 85
2, 20467, Note_on_c, 2, 38, 70
2, 20515, Note_on_c, 2, 38, 0
2, 20618, Note_on_c, 2, 35, 97
2, 20628, Note_on_c, 2, 43, 0
2, 21102, Note_on_c, 2, 35, 0
2, 21113, Note_on_c, 2, 36, 93
2, 22415, Note_on_c, 2, 45, 82
2, 22643, Note_on_c, 2, 36, 0
2, 22692, Note_on_c, 2, 45, 0
2, 22714, Note_on_c, 2, 43, 70
2, 22791, Note_on_c, 2, 43, 0
2, 22886, Note_on_c, 2, 44, 68
2, 23018, Note_on_c, 2, 44, 0
2, 23050, Note_on_c, 2, 45, 77
2, 23385, Note_on_c, 2, 40, 75
2, 23405, Note_on_c, 2, 45, 0
2, 23471, Note_on_c, 2, 40, 0
2, 23543, Note_on_c, 2, 36, 92
2, 23975, Note_on_c, 2, 36, 0
2, 24013, Note_on_c, 2, 33, 77
2, 24467, Note_on_c, 2, 33, 0
2, 24474, Note_on_c, 2, 37, 80
2, 24820, Note_on_c, 2, 34, 33
2, 24951, Note_on_c, 2, 38, 81
2, 24958, Note_on_c, 2, 34, 0
2, 24959, Note_on_c, 2, 37, 0
2, 25828, Note_on_c, 2, 37, 31
2, 25855, Note_on_c, 2, 37, 0
2, 25927, Note_on_c, 2, 54, 76
2, 26842, Note_on_c, 2, 38, 0
2, 27168, Note_on_c, 2, 39, 32
2, 27231, Note_on_c, 2, 39, 0
2, 27273, Note_on_c, 2, 54, 0
2, 27324, Note_on_c, 2, 38, 86
2, 27799, Note_on_c, 2, 38, 0
2, 27821, Note_on_c, 2, 43, 68
2, 28136, Note_on_c, 2, 34, 53
2, 28143, Note_on_c, 2, 43, 0
2, 28234, Note_on_c, 2, 34, 0
2, 28276, Note_on_c, 2, 35, 75
2, 28674, Note_on_c, 2, 34, 17
2, 28738, Note_on_c, 2, 35, 0
2, 28744, Note_on_c, 2, 34, 0
2, 28783, Note_on_c, 2, 36, 83
2, 29264, Note_on_c, 2, 45, 105
2, 29343, Note_on_c, 2, 36, 0
2, 30055, Note_on_c, 2, 43, 82
2, 30066, Note_on_c, 2, 45, 0
2, 30389, Note_on_c, 2, 33, 66
2, 30425, Note_on_c, 2, 43, 0
2, 30453, Note_on_c, 2, 33, 0
2, 30525, Note_on_c, 2, 32, 92
2, 30693, Note_on_c, 2, 31, 93
2, 30712, Note_on_c, 2, 32, 0
2, 31212, Note_on_c, 2, 31, 0
2, 31258, Note_on_c, 2, 38, 82
2, 31569, Note_on_c, 2, 37, 86
2, 31602, Note_on_c, 2, 38, 0
2, 31678, Note_on_c, 2, 37, 0
2, 31714, Note_on_c, 2, 36, 81
2, 32041, Note_on_c, 2, 37, 66
2, 32131, Note_on_c, 2, 36, 0
2, 32178, Note_on_c, 2, 37, 0
2, 32189, Note_on_c, 2, 45, 106
2, 32501, Note_on_c, 2, 40, 72
2, 32539, Note_on_c, 2, 40, 0
2, 32632, Note_on_c, 2, 45, 0
2, 32663, Note_on_c, 2, 41, 58
2, 32978, Note_on_c, 2, 36, 97
2, 33054, Note_on_c, 2, 41, 0
2, 33088, Note_on_c, 2, 36, 0
2, 33125, Note_on_c, 2, 33, 83
2, 33546, Note_on_c, 2, 33, 0
2, 33583, Note_on_c, 2, 30, 96
2, 34014, Note_on_c, 2, 30, 0
2, 34070, Note_on_c, 2, 30, 96
2, 34514, Note_on_c, 2, 30, 0
2, 34548, Note_on_c, 2, 31, 106
2, 34967, Note_on_c, 2, 31, 0
2, 35016, Note_on_c, 2, 31, 105
2, 35484, Note_on_c, 2, 31, 0
2, 35503, Note_on_c, 2, 36, 106
2, 35927, Note_on_c, 2, 36, 0
2, 35970, Note_on_c, 2, 36, 111
2, 36341, Note_on_c, 2, 34, 35
2, 36407, Note_on_c, 2, 36, 0
2, 36408, Note_on_c, 2, 43, 112
2, 36410, Note_on_c, 2, 34, 0
2, 36866, Note_on_c, 2, 43, 0
2, 36889, Note_on_c, 2, 41, 92
2, 37402, Note_on_c, 2, 41, 0
2, 37409, Note_on_c, 2, 36, 88
2, 37743, Note_on_c, 2, 33, 92
2, 37774, Note_on_c, 2, 36, 0
2, 38312, Note_on_c, 2, 33, 0
2, 38362, Note_on_c, 2, 32, 77
2, 38741, Note_on_c, 2, 36, 46
2, 38782, Note_on_c, 2, 36, 0
2, 38795, Note_on_c, 2, 32, 0
2, 38852, Note_on_c, 2, 41, 83
2, 39267, Note_on_c, 2, 41, 0
2, 39298, Note_on_c, 2, 34, 70
2, 39708, Note_on_c, 2, 38, 45
2, 39767, Note_on_c, 2, 34, 0
2, 39770, Note_on_c, 2, 38, 0
2, 39800, Note_on_c, 2, 46, 67
2, 40138, Note_on_c, 2, 38, 60
2, 40162, Note_on_c, 2, 46, 0
2, 40220, Note_on_c, 2, 38, 0
2, 40281, Note_on_c, 2, 39, 87
2, 40736, Note_on_c, 2, 39, 0
2, 40790, Note_on_c, 2, 39, 77
2, 41226, Note_on_c, 2, 39, 0
2, 41261, Note_on_c, 2, 40, 97
2, 41700, Note_on_c, 2, 40, 0
2, 41746, Note_on_c, 2, 40, 100
2, 42211, Note_on_c, 2, 41, 102
2, 42218, Note_on_c, 2, 40, 0
2, 42663, Note_on_c, 2, 41, 0
2, 42707, Note_on_c, 2, 29, 90
2, 43199, Note_on_c, 2, 29, 0
2, 43200, Note_on_c, 2, 32, 95
2, 43621, Note_on_c, 2, 32, 0
2, 43677, Note_on_c, 2, 32, 90
2, 44101, Note_on_c, 2, 32, 0
2, 44159, Note_on_c, 2, 31, 106
2, 44975, Note_on_c, 2, 45, 102
2, 45236, Note_on_c, 2, 45, 0
2, 45271, Note_on_c, 2, 43, 82
2, 45487, Note_on_c, 2, 31, 0
2, 45542, Note_on_c, 2, 43, 0
2, 45581, Note_on_c, 2, 35, 90
2, 45931, Note_on_c, 2, 35, 0
2, 45941, Note_on_c, 2, 36, 108
2, 46703, Note_on_c, 2, 36, 0
2, 46706, Note_on_c, 2, 35, 68
2, 46833, Note_on_c, 2, 35, 0
2, 46859, Note_on_c, 2, 36, 85
2, 47021, Note_on_c, 2, 37, 87
2, 47054, Note_on_c, 2, 36, 0
2, 47807, Note_on_c, 2, 37, 0
2, 47827, Note_on_c, 2, 36, 86
2, 47939, Note_on_c, 2, 36, 0
2, 47994, Note_on_c, 2, 38, 92
2, 48782, Note_on_c, 2, 45, 101
2, 48869, Note_on_c, 2, 38, 0
2, 48874, Note_on_c, 2, 45, 0
2, 48944, Note_on_c, 2, 41, 80
2, 49258, Note_on_c, 2, 38, 73
2, 49330, Note_on_c, 2, 38, 0
2, 49338, Note_on_c, 2, 41, 0
2, 49394, Note_on_c, 2, 42, 78
2, 49871, Note_on_c, 2, 42, 0
2, 49894, Note_on_c, 2, 43, 70
2, 50200, Note_on_c, 2, 43, 0
2, 50227, Note_on_c, 2, 32, 83
2, 50371, Note_on_c, 2, 32, 0
2, 50396, Note_on_c, 2, 31, 81
2, 51209, Note_on_c, 2, 43, 100
2, 51490, Note_on_c, 2, 31, 0
2, 52636, Note_on_c, 2, 31, 75
2, 52637, Note_on_c, 2, 43, 0
2, 52754, Note_on_c, 2, 31, 0
2, 52776, Note_on_c, 2, 43, 92
2, 53100, Note_on_c, 2, 43, 0
2, 53110, Note_on_c, 2, 31, 52
2, 53215, Note_on_c, 2, 31, 0
2, 53256, Note_on_c, 2, 32, 83
2, 53716, Note_on_c, 2, 32, 0
2, 53739, Note_on_c, 2, 33, 85
2, 54250, Note_on_c, 2, 47, 98
2, 54346, Note_on_c, 2, 33, 0
2, 54620, Note_on_c, 2, 33, 41
2, 54676, Note_on_c, 2, 33, 0
2, 54708, Note_on_c, 2, 47, 0
2, 54728, Note_on_c, 2, 45, 71
2, 55191, Note_on_c, 2, 39, 75
2, 55218, Note_on_c, 2, 45, 0
2, 55535, Note_on_c, 2, 37, 43
2, 55660, Note_on_c, 2, 39, 0
2, 55663, Note_on_c, 2, 38, 78
2, 55681, Note_on_c, 2, 37, 0
2, 56043, Note_on_c, 2, 37, 32
2, 56162, Note_on_c, 2, 51, 92
2, 56204, Note_on_c, 2, 52, 77
2, 56205, Note_on_c, 2, 38, 0
2, 56215, Note_on_c, 2, 37, 0
2, 56557, Note_on_c, 2, 52, 0
2, 56618, Note_on_c, 2, 51, 0
2, 56642, Note_on_c, 2, 50, 80
2, 57098, Note_on_c, 2, 50, 0
2, 57127, Note_on_c, 2, 48, 80
2, 57421, Note_on_c, 2, 42, 61
2, 57456, Note_on_c, 2, 42, 0
2, 57538, Note_on_c, 2, 48, 0
2, 57583, Note_on_c, 2, 45, 66
2, 57904, Note_on_c, 2, 39, 45
2, 57965, Note_on_c, 2, 39, 0
2, 58006, Note_on_c, 2, 45, 0
2, 58048, Note_on_c, 2, 44, 63
2, 58543, Note_on_c, 2, 44, 0
2, 58551, Note_on_c, 2, 43, 76
2, 58868, Note_on_c, 2, 32, 88
2, 58912, Note_on_c, 2, 43, 0
2, 59009, Note_on_c, 2, 32, 0
2, 59030, Note_on_c, 2, 31, 92
2, 59421, Note_on_c, 2, 31, 0
2, 59475, Note_on_c, 2, 36, 101
2, 59819, Note_on_c, 2, 45, 115
2, 59914, Note_on_c, 2, 36, 0
2, 60795, Note_on_c, 2, 36, 67
2, 60837, Note_on_c, 2, 36, 0
2, 60933, Note_on_c, 2, 45, 0
2, 60951, Note_on_c, 2, 43, 82
2, 61259, Note_on_c, 2, 43, 0
2, 61268, Note_on_c, 2, 35, 72
2, 61407, Note_on_c, 2, 35, 0
2, 61425, Note_on_c, 2, 36, 83
2, 61852, Note_on_c, 2, 36, 0
2, 61903, Note_on_c, 2, 36, 98
2, 62292, Note_on_c, 2, 36, 0
2, 62382, Note_on_c, 2, 37, 76
2, 62810, Note_on_c, 2, 37, 0
2, 62863, Note_on_c, 2, 37, 87
2, 63222, Note_on_c, 2, 34, 42
2, 63321, Note_on_c, 2, 38, 87
2, 63324, Note_on_c, 2, 34, 0
2, 63332, Note_on_c, 2, 37, 0
2, 63694, Note_on_c, 2, 37, 48
2, 63795, Note_on_c, 2, 45, 105
2, 63799, Note_on_c, 2, 37, 0
2, 63806, Note_on_c, 2, 38, 0
2, 64255, Note_on_c, 2, 45, 0
2, 64269, Note_on_c, 2, 41, 72
2, 64626, Note_on_c, 2, 33, 87
2, 64697, Note_on_c, 2, 41, 0
2, 64708, Note_on_c, 2, 33, 0
2, 64772, Note_on_c, 2, 32, 108
2, 65237, Note_on_c, 2, 32, 0
2, 65258, Note_on_c, 2, 31, 108
2, 65690, Note_on_c, 2, 31, 0
2, 65746, Note_on_c, 2, 31, 82
2, 65751, Note_on_c, 2, 29, 81
2, 65822, Note_on_c, 2, 29, 0
2, 66196, Note_on_c, 2, 31, 0
2, 66232, Note_on_c, 2, 31, 82
2, 66720, Note_on_c, 2, 35, 97
2, 66722, Note_on_c, 2, 31, 0
2, 67049, Note_on_c, 2, 34, 37
2, 67203, Note_on_c, 2, 34, 0
2, 67210, Note_on_c, 2, 35, 0
2, 67211, Note_on_c, 2, 36, 92
2, 67669, Note_on_c, 2, 36, 0
2, 67701, Note_on_c, 2, 36, 92
2, 68167, Note_on_c, 2, 43, 92
2, 68210, Note_on_c, 2, 36, 0
2, 68495, Note_on_c, 2, 36, 78
2, 68538, Note_on_c, 2, 36, 0
2, 68582, Note_on_c, 2, 43, 0
2, 68632, Note_on_c, 2, 44, 98
2, 69309, Note_on_c, 2, 45, 97
2, 69313, Note_on_c, 2, 44, 0
2, 69371, Note_on_c, 2, 45, 0
2, 69465, Note_on_c, 2, 40, 85
2, 69552, Note_on_c, 2, 40, 0
2, 69621, Note_on_c, 2, 33, 87
2, 70060, Note_on_c, 2, 33, 0
2, 70073, Note_on_c, 2, 40, 90
2, 70543, Note_on_c, 2, 40, 0
2, 70570, Note_on_c, 2, 37, 80
2, 70898, Note_on_c, 2, 34, 37
2, 71017, Note_on_c, 2, 37, 0
2, 71026, Note_on_c, 2, 38, 80
2, 71029, Note_on_c, 2, 34, 0
2, 71347, Note_on_c, 2, 52, 117
2, 71480, Note_on_c, 2, 52, 0
2, 71529, Note_on_c, 2, 51, 70
2, 71849, Note_on_c, 2, 51, 0
2, 71851, Note_on_c, 2, 38, 0
2, 71855, Note_on_c, 2, 49, 53
2, 71874, Note_on_c, 2, 37, 37
2, 71971, Note_on_c, 2, 37, 0
2, 71972, Note_on_c, 2, 49, 0
2, 72015, Note_on_c, 2, 50, 80
2, 72345, Note_on_c, 2, 38, 60
2, 72386, Note_on_c, 2, 38, 0
2, 72417, Note_on_c, 2, 50, 0
2, 72489, Note_on_c, 2, 48, 85
2, 72813, Note_on_c, 2, 38, 57
2, 72846, Note_on_c, 2, 38, 0
2, 72939, Note_on_c, 2, 48, 0
2, 72973, Note_on_c, 2, 45, 71
2, 73287, Note_on_c, 2, 38, 58
2, 73319, Note_on_c, 2, 38, 0
2, 73398, Note_on_c, 2, 45, 0
2, 73439, Note_on_c, 2, 44, 98
2, 73891, Note_on_c, 2, 44, 0
2, 73926, Note_on_c, 2, 43, 72
2, 74404, Note_on_c, 2, 43, 0
2, 74407, Note_on_c, 2, 41, 90
2, 74801, Note_on_c, 2, 37, 50
2, 74832, Note_on_c, 2, 41, 0
2, 74861, Note_on_c, 2, 39, 33
2, 74890, Note_on_c, 2, 39, 0
2, 74896, Note_on_c, 2, 37, 0
2, 74921, Note_on_c, 2, 40, 83
2, 75329, Note_on_c, 2, 40, 0
2, 75358, Note_on_c, 2, 39, 92
2, 75702, Note_on_c, 2, 37, 57
2, 75762, Note_on_c, 2, 39, 0
2, 75817, Note_on_c, 2, 37, 0
2, 75831, Note_on_c, 2, 38, 81
2, 76172, Note_on_c, 2, 37, 42
2, 76184, Note_on_c, 2, 43, 127
2, 76225, Note_on_c, 2, 38, 0
2, 76234, Note_on_c, 2, 37, 0
2, 76647, Note_on_c, 2, 35, 67
2, 76741, Note_on_c, 2, 43, 0
2, 76743, Note_on_c, 2, 35, 0
2, 76789, Note_on_c, 2, 36, 82
2, 77208, Note_on_c, 2, 34, 40
2, 77242, Note_on_c, 2, 36, 0
2, 77263, Note_on_c, 2, 34, 0
2, 77278, Note_on_c, 2, 36, 120
2, 77741, Note_on_c, 2, 36, 0
2, 77745, Note_on_c, 2, 37, 105
2, 78162, Note_on_c, 2, 37, 0
2, 78207, Note_on_c, 2, 37, 103
2, 78618, Note_on_c, 2, 34, 7
2, 78663, Note_on_c, 2, 34, 0
2, 78699, Note_on_c, 2, 38, 101
2, 78714, Note_on_c, 2, 37, 0
2, 79169, Note_on_c, 2, 38, 0
2, 79215, Note_on_c, 2, 38, 106
2, 79645, Note_on_c, 2, 38, 0
2, 79658, Note_on_c, 2, 33, 87
2, 80053, Note_on_c, 2, 33, 0
2, 80122, Note_on_c, 2, 32, 101
2, 80598, Note_on_c, 2, 32, 0
2, 80628, Note_on_c, 2, 31, 86
2, 81139, Note_on_c, 2, 45, 105
2, 81226, Note_on_c, 2, 31, 0
2, 81527, Note_on_c, 2, 31, 25
2, 81580, Note_on_c, 2, 31, 0
2, 81615, Note_on_c, 2, 43, 85
2, 81626, Note_on_c, 2, 45, 0
2, 82063, Note_on_c, 2, 31, 85
2, 82408, Note_on_c, 2, 43, 0
2, 82530, Note_on_c, 2, 31, 0
2, 82566, Note_on_c, 2, 36, 95
2, 82991, Note_on_c, 2, 36, 0
2, 83036, Note_on_c, 2, 36, 102
2, 83471, Note_on_c, 2, 36, 0
2, 83506, Note_on_c, 2, 31, 91
2, 84014, Note_on_c, 2, 32, 115
2, 84023, Note_on_c, 2, 31, 0
2, 84466, Note_on_c, 2, 32, 0
2, 84478, Note_on_c, 2, 33, 102
2, 84915, Note_on_c, 2, 33, 0
2, 84970, Note_on_c, 2, 33, 100
2, 85450, Note_on_c, 2, 40, 98
2, 85492, Note_on_c, 2, 33, 0
2, 85917, Note_on_c, 2, 39, 100
2, 85936, Note_on_c, 2, 40, 0
2, 86378, Note_on_c, 2, 39, 0
2, 86402, Note_on_c, 2, 38, 91
2, 86881, Note_on_c, 2, 33, 93
2, 86883, Note_on_c, 2, 38, 0
2, 87335, Note_on_c, 2, 33, 0
2, 87350, Note_on_c, 2, 30, 95
2, 87792, Note_on_c, 2, 30, 0
2, 87844, Note_on_c, 2, 30, 92
2, 88286, Note_on_c, 2, 30, 0
2, 88314, Note_on_c, 2, 29, 96
2, 88777, Note_on_c, 2, 29, 0
2, 88779, Note_on_c, 2, 30, 107
2, 89256, Note_on_c, 2, 31, 110
2, 89306, Note_on_c, 2, 30, 0
2, 89694, Note_on_c, 2, 31, 0
2, 89758, Note_on_c, 2, 31, 100
2, 90228, Note_on_c, 2, 36, 111
2, 90280, Note_on_c, 2, 31, 0
2, 90640, Note_on_c, 2, 36, 0
2, 90693, Note_on_c, 2, 36, 108
2, 91523, Note_on_c, 2, 34, 52
2, 91614, Note_on_c, 2, 34, 0
2, 91631, Note_on_c, 2, 36, 0
2, 91670, Note_on_c, 2, 45, 106
2, 91966, Note_on_c, 2, 45, 0
2, 91983, Note_on_c, 2, 44, 83
2, 92107, Note_on_c, 2, 44, 0
2, 92143, Note_on_c, 2, 43, 75
2, 92194, Note_on_c, 2, 43, 0
2, 92319, Note_on_c, 2, 38, 73
2, 92404, Note_on_c, 2, 38, 0
2, 92474, Note_on_c, 2, 34, 75
2, 92574, Note_on_c, 2, 34, 0
2, 92637, Note_on_c, 2, 38, 93
2, 92962, Note_on_c, 2, 38, 0
2, 92970, Note_on_c, 2, 37, 71
2, 93074, Note_on_c, 2, 37, 0
2, 93117, Note_on_c, 2, 36, 80
2, 93432, Note_on_c, 2, 34, 62
2, 93594, Note_on_c, 2, 34, 0
2, 93602, Note_on_c, 2, 50, 100
2, 93630, Note_on_c, 2, 36, 0
2, 93759, Note_on_c, 2, 48, 80
2, 93782, Note_on_c, 2, 50, 0
2, 93841, Note_on_c, 2, 48, 0
2, 93922, Note_on_c, 2, 45, 81
2, 94406, Note_on_c, 2, 40, 63
2, 94436, Note_on_c, 2, 40, 0
2, 94534, Note_on_c, 2, 45, 0
2, 94550, Note_on_c, 2, 43, 76
2, 94986, Note_on_c, 2, 43, 0
2, 95030, Note_on_c, 2, 42, 76
2, 95311, Note_on_c, 2, 36, 38
2, 95343, Note_on_c, 2, 36, 0
2, 95504, Note_on_c, 2, 39, 71
2, 95762, Note_on_c, 2, 42, 0
2, 95807, Note_on_c, 2, 39, 0
2, 95838, Note_on_c, 2, 33, 82
2, 95988, Note_on_c, 2, 33, 0
2, 95993, Note_on_c, 2, 31, 81
2, 96411, Note_on_c, 2, 31, 0
2, 96479, Note_on_c, 2, 38, 71
2, 96802, Note_on_c, 2, 35, 52
2, 96822, Note_on_c, 2, 38, 0
2, 96906, Note_on_c, 2, 35, 0
2, 96956, Note_on_c, 2, 36, 72
2, 97098, Note_on_c, 2, 36, 0
2, 97135, Note_on_c, 2, 41, 80
2, 97248, Note_on_c, 2, 41, 0
2, 97279, Note_on_c, 2, 40, 68
2, 97383, Note_on_c, 2, 40, 0
2, 97450, Note_on_c, 2, 36, 71
2, 97519, Note_on_c, 2, 36, 0
2, 97611, Note_on_c, 2, 41, 88
2, 97712, Note_on_c, 2, 41, 0
2, 97764, Note_on_c, 2, 36, 75
2, 97837, Note_on_c, 2, 36, 0
2, 97939, Note_on_c, 2, 45, 98
2, 98383, Note_on_c, 2, 45, 0
2, 98428, Note_on_c, 2, 41, 77
2, 98717, Note_on_c, 2, 34, 41
2, 98744, Note_on_c, 2, 34, 0
2, 98905, Note_on_c, 2, 41, 0
2, 98917, Note_on_c, 2, 36, 75
2, 99322, Note_on_c, 2, 36, 0
2, 99407, Note_on_c, 2, 31, 93
2, 99418, Note_on_c, 2, 32, 57
2, 99445, Note_on_c, 2, 32, 0
2, 99838, Note_on_c, 2, 31, 0
2, 99865, Note_on_c, 2, 29, 80
2, 100200, Note_on_c, 2, 36, 80
2, 100266, Note_on_c, 2, 29, 0
2, 100300, Note_on_c, 2, 36, 0
2, 100308, Note_on_c, 2, 41, 108
2, 100762, Note_on_c, 2, 41, 0
2, 100789, Note_on_c, 2, 34, 78
2, 101130, Note_on_c, 2, 38, 52
2, 101227, Note_on_c, 2, 34, 0
2, 101254, Note_on_c, 2, 38, 0
2, 101255, Note_on_c, 2, 46, 92
2, 101756, Note_on_c, 2, 39, 66
2, 101762, Note_on_c, 2, 46, 0
2, 102074, Note_on_c, 2, 37, 41
2, 102225, Note_on_c, 2, 51, 91
2, 102243, Note_on_c, 2, 39, 0
2, 102251, Note_on_c, 2, 37, 0
2, 102680, Note_on_c, 2, 51, 0
2, 102705, Note_on_c, 2, 52, 86
2, 103144, Note_on_c, 2, 52, 0
2, 103186, Note_on_c, 2, 46, 92
2, 103527, Note_on_c, 2, 42, 37
2, 103578, Note_on_c, 2, 42, 0
2, 103674, Note_on_c, 2, 44, 71
2, 103719, Note_on_c, 2, 46, 0
2, 104007, Note_on_c, 2, 41, 50
2, 104086, Note_on_c, 2, 41, 0
2, 104087, Note_on_c, 2, 44, 0
2, 104134, Note_on_c, 2, 51, 88
2, 104479, Note_on_c, 2, 44, 52
2, 104529, Note_on_c, 2, 51, 0
2, 104594, Note_on_c, 2, 44, 0
2, 104610, Note_on_c, 2, 56, 90
2, 104971, Note_on_c, 2, 44, 33
2, 105010, Note_on_c, 2, 56, 0
2, 105089, Note_on_c, 2, 56, 91
2, 105101, Note_on_c, 2, 44, 0
2, 105357, Note_on_c, 2, 42, 41
2, 105407, Note_on_c, 2, 42, 0
2, 105554, Note_on_c, 2, 56, 0
2, 105594, Note_on_c, 2, 55, 87
2, 105657, Note_on_c, 2, 55, 0
2, 105747, Note_on_c, 2, 45, 75
2, 105809, Note_on_c, 2, 45, 0
2, 105903, Note_on_c, 2, 44, 85
2, 106058, Note_on_c, 2, 44, 0
2, 106078, Note_on_c, 2, 43, 88
2, 106542, Note_on_c, 2, 43, 0
2, 106552, Note_on_c, 2, 31, 110
2, 107018, Note_on_c, 2, 31, 0
2, 107023, Note_on_c, 2, 35, 100
2, 107502, Note_on_c, 2, 35, 0
2, 107516, Note_on_c, 2, 36, 103
2, 107935, Note_on_c, 2, 36, 0
2, 107995, Note_on_c, 2, 36, 103
2, 108439, Note_on_c, 2, 36, 0
2, 108488, Note_on_c, 2, 37, 96
2, 108960, Note_on_c, 2, 40, 103
2, 108963, Note_on_c, 2, 37, 0
2, 109287, Note_on_c, 2, 39, 83
2, 109298, Note_on_c, 2, 40, 0
2, 109444, Note_on_c, 2, 38, 90
2, 109455, Note_on_c, 2, 39, 0
2, 109796, Note_on_c, 2, 39, 62
2, 109918, Note_on_c, 2, 53, 102
2, 109927, Note_on_c, 2, 38, 0
2, 109938, Note_on_c, 2, 39, 0
2, 110349, Note_on_c, 2, 53, 0
2, 110407, Note_on_c, 2, 52, 88
2, 110727, Note_on_c, 2, 45, 85
2, 110754, Note_on_c, 2, 52, 0
2, 110823, Note_on_c, 2, 45, 0
2, 110891, Note_on_c, 2, 41, 71
2, 111150, Note_on_c, 2, 41, 0
2, 111191, Note_on_c, 2, 32, 102
2, 111370, Note_on_c, 2, 31, 98
2, 111443, Note_on_c, 2, 32, 0
2, 111807, Note_on_c, 2, 31, 0
2, 111850, Note_on_c, 2, 31, 110
2, 112303, Note_on_c, 2, 33, 93
2, 112321, Note_on_c, 2, 31, 0
2, 112805, Note_on_c, 2, 33, 0
2, 112816, Note_on_c, 2, 35, 85
2, 113146, Note_on_c, 2, 34, 40
2, 113285, Note_on_c, 2, 34, 0
2, 113291, Note_on_c, 2, 35, 0
2, 113298, Note_on_c, 2, 36, 96
2, 113794, Note_on_c, 2, 45, 108
2, 113853, Note_on_c, 2, 36, 0
2, 114133, Note_on_c, 2, 36, 65
2, 114218, Note_on_c, 2, 36, 0
2, 114258, Note_on_c, 2, 45, 0
2, 114275, Note_on_c, 2, 43, 80
2, 114601, Note_on_c, 2, 37, 60
2, 114680, Note_on_c, 2, 37, 0
2, 114695, Note_on_c, 2, 43, 0
2, 114745, Note_on_c, 2, 46, 96
2, 115050, Note_on_c, 2, 44, 65
2, 115095, Note_on_c, 2, 46, 0
2, 115123, Note_on_c, 2, 44, 0
2, 115211, Note_on_c, 2, 45, 52
2, 115263, Note_on_c, 2, 45, 0
2, 115371, Note_on_c, 2, 40, 71
2, 115447, Note_on_c, 2, 40, 0
2, 115528, Note_on_c, 2, 36, 91
2, 115653, Note_on_c, 2, 36, 0
2, 115690, Note_on_c, 2, 33, 85
2, 116247, Note_on_c, 2, 33, 0
2, 116343, Note_on_c, 2, 45, 62
2, 116377, Note_on_c, 2, 45, 0
2, 116491, Note_on_c, 2, 40, 83
2, 116562, Note_on_c, 2, 40, 0
2, 116643, Note_on_c, 2, 36, 87
2, 116756, Note_on_c, 2, 36, 0
2, 116819, Note_on_c, 2, 37, 88
2, 116897, Note_on_c, 2, 37, 0
2, 116975, Note_on_c, 2, 38, 105
2, 117458, Note_on_c, 2, 37, 65
2, 117565, Note_on_c, 2, 37, 0
2, 117610, Note_on_c, 2, 38, 0
2, 117624, Note_on_c, 2, 52, 101
2, 118094, Note_on_c, 2, 50, 88
2, 118101, Note_on_c, 2, 52, 0
2, 118418, Note_on_c, 2, 45, 80
2, 118428, Note_on_c, 2, 50, 0
2, 118556, Note_on_c, 2, 45, 0
2, 118577, Note_on_c, 2, 44, 90
2, 118890, Note_on_c, 2, 42, 48
2, 118981, Note_on_c, 2, 44, 0
2, 118999, Note_on_c, 2, 42, 0
2, 119047, Note_on_c, 2, 43, 56
2, 119155, Note_on_c, 2, 43, 0
2, 119198, Note_on_c, 2, 38, 72
2, 119255, Note_on_c, 2, 38, 0
2, 119340, Note_on_c, 2, 32, 83
2, 119442, Note_on_c, 2, 32, 0
2, 119483, Note_on_c, 2, 32, 45
2, 119504, Note_on_c, 2, 31, 92
2, 119511, Note_on_c, 2, 32, 0
2, 119961, Note_on_c, 2, 31, 0
2, 120007, Note_on_c, 2, 33, 82
2, 120340, Note_on_c, 2, 34, 87
2, 120376, Note_on_c, 2, 33, 0
2, 120435, Note_on_c, 2, 34, 0
2, 120493, Note_on_c, 2, 35, 86
2, 120888, Note_on_c, 2, 34, 22
2, 120967, Note_on_c, 2, 35, 0
2, 120970, Note_on_c, 2, 34, 0
2, 120996, Note_on_c, 2, 36, 87
2, 121325, Note_on_c, 2, 43, 115
2, 121342, Note_on_c, 2, 36, 0
2, 122248, Note_on_c, 2, 31, 101
2, 122294, Note_on_c, 2, 43, 0
2, 122701, Note_on_c, 2, 34, 55
2, 122807, Note_on_c, 2, 34, 0
2, 122808, Note_on_c, 2, 31, 0
2, 122855, Note_on_c, 2, 36, 90
2, 123319, Note_on_c, 2, 36, 0
2, 123362, Note_on_c, 2, 36, 100
2, 123684, Note_on_c, 2, 50, 92
2, 123783, Note_on_c, 2, 36, 0
2, 123814, Note_on_c, 2, 50, 0
2, 123853, Note_on_c, 2, 49, 71
2, 124167, Note_on_c, 2, 36, 63
2, 124232, Note_on_c, 2, 36, 0
2, 124304, Note_on_c, 2, 46, 68
2, 124339, Note_on_c, 2, 49, 0
2, 124646, Note_on_c, 2, 38, 58
2, 124726, Note_on_c, 2, 38, 0
2, 124759, Note_on_c, 2, 46, 0
2, 124786, Note_on_c, 2, 48, 72
2, 125098, Note_on_c, 2, 48, 0
2, 125102, Note_on_c, 2, 44, 86
2, 125242, Note_on_c, 2, 44, 0
2, 125282, Note_on_c, 2, 45, 53
2, 125571, Note_on_c, 2, 38, 66
2, 125610, Note_on_c, 2, 38, 0
2, 125680, Note_on_c, 2, 45, 0
2, 125727, Note_on_c, 2, 41, 75
2, 126081, Note_on_c, 2, 38, 71
2, 126127, Note_on_c, 2, 38, 0
2, 126159, Note_on_c, 2, 41, 0
2, 126235, Note_on_c, 2, 42, 78
2, 126519, Note_on_c, 2, 42, 0
2, 126574, Note_on_c, 2, 43, 81
2, 127026, Note_on_c, 2, 43, 0
2, 127039, Note_on_c, 2, 40, 110
2, 127178, Note_on_c, 2, 40, 0
2, 127245, Note_on_c, 2, 41, 35
2, 127250, Note_on_c, 2, 43, 30
2, 127295, Note_on_c, 2, 43, 0
2, 127501, Note_on_c, 2, 41, 0
2, 127508, Note_on_c, 2, 37, 100
2, 127681, Note_on_c, 2, 37, 0
2, 127703, Note_on_c, 2, 38, 50
2, 127970, Note_on_c, 2, 38, 0
2, 127994, Note_on_c, 2, 34, 103
2, 128161, Note_on_c, 2, 34, 0
2, 128162, Note_on_c, 2, 35, 68
2, 128424, Note_on_c, 2, 35, 0
2, 128484, Note_on_c, 2, 35, 103
2, 128649, Note_on_c, 2, 35, 0
2, 128664, Note_on_c, 2, 36, 82
2, 129047, Note_on_c, 2, 36, 0
2, 129117, Note_on_c, 2, 36, 98
2, 129555, Note_on_c, 2, 36, 0
2, 129597, Note_on_c, 2, 32, 96
2, 130027, Note_on_c, 2, 32, 0
2, 130079, Note_on_c, 2, 32, 92
2, 130506, Note_on_c, 2, 32, 0
2, 130558, Note_on_c, 2, 33, 85
2, 130879, Note_on_c, 2, 47, 126
2, 130940, Note_on_c, 2, 33, 0
2, 131024, Note_on_c, 2, 47, 0
2, 131060, Note_on_c, 2, 45, 77
2, 131344, Note_on_c, 2, 36, 57
2, 131400, Note_on_c, 2, 45, 0
2, 131486, Note_on_c, 2, 36, 0
2, 131520, Note_on_c, 2, 40, 83
2, 131839, Note_on_c, 2, 36, 88
2, 131863, Note_on_c, 2, 40, 0
2, 131922, Note_on_c, 2, 36, 0
2, 131983, Note_on_c, 2, 37, 93
2, 132337, Note_on_c, 2, 34, 38
2, 132433, Note_on_c, 2, 37, 0
2, 132456, Note_on_c, 2, 34, 0
2, 132490, Note_on_c, 2, 38, 85
2, 132783, Note_on_c, 2, 38, 0
2, 132788, Note_on_c, 2, 32, 107
2, 132922, Note_on_c, 2, 32, 0
2, 132945, Note_on_c, 2, 33, 93
2, 133432, Note_on_c, 2, 33, 0
2, 133445, Note_on_c, 2, 36, 108
2, 133898, Note_on_c, 2, 36, 0
2, 133913, Note_on_c, 2, 32, 93
2, 134406, Note_on_c, 2, 33, 102
2, 134415, Note_on_c, 2, 32, 0
2, 134864, Note_on_c, 2, 33, 0
2, 134891, Note_on_c, 2, 36, 96
2, 135223, Note_on_c, 2, 33, 76
2, 135239, Note_on_c, 2, 36, 0
2, 135346, Note_on_c, 2, 33, 0
2, 135383, Note_on_c, 2, 35, 91
2, 135707, Note_on_c, 2, 36, 92
2, 135737, Note_on_c, 2, 35, 0
2, 135775, Note_on_c, 2, 36, 0
2, 135842, Note_on_c, 2, 38, 98
2, 136229, Note_on_c, 2, 38, 0
2, 136230, Note_on_c, 2, 35, 45
2, 136317, Note_on_c, 2, 35, 0
2, 136341, Note_on_c, 2, 40, 96
2, 136759, Note_on_c, 2, 40, 0
2, 136807, Note_on_c, 2, 39, 88
2, 137137, Note_on_c, 2, 37, 52
2, 137228, Note_on_c, 2, 39, 0
2, 137257, Note_on_c, 2, 37, 0
2, 137272, Note_on_c, 2, 38, 83
2, 137760, Note_on_c, 2, 35, 92
2, 137763, Note_on_c, 2, 38, 0
2, 137999, Note_on_c, 2, 35, 0
2, 138087, Note_on_c, 2, 35, 100
2, 138239, Note_on_c, 2, 35, 0
2, 138246, Note_on_c, 2, 36, 85
2, 138524, Note_on_c, 2, 36, 0
2, 138559, Note_on_c, 2, 34, 96
2, 138693, Note_on_c, 2, 34, 0
2, 138733, Note_on_c, 2, 35, 61
2, 138961, Note_on_c, 2, 35, 0
2, 139039, Note_on_c, 2, 32, 96
2, 139198, Note_on_c, 2, 32, 0
2, 139210, Note_on_c, 2, 33, 78
2, 139458, Note_on_c, 2, 33, 0
2, 139537, Note_on_c, 2, 34, 65
2, 139629, Note_on_c, 2, 34, 0
2, 139672, Note_on_c, 2, 37, 90
2, 140029, Note_on_c, 2, 34, 38
2, 140119, Note_on_c, 2, 37, 0
2, 140148, Note_on_c, 2, 34, 0
2, 140170, Note_on_c, 2, 38, 92
2, 140484, Note_on_c, 2, 37, 63
2, 140599, Note_on_c, 2, 37, 0
2, 140599, Note_on_c, 2, 38, 0
2, 140632, Note_on_c, 2, 52, 113
2, 140983, Note_on_c, 2, 38, 58
2, 141068, Note_on_c, 2, 38, 0
2, 141087, Note_on_c, 2, 52, 0
2, 141314, Note_on_c, 2, 50, 85
2, 141452, Note_on_c, 2, 50, 0
2, 141472, Note_on_c, 2, 47, 47
2, 141497, Note_on_c, 2, 38, 61
2, 141504, Note_on_c, 2, 47, 0
2, 141543, Note_on_c, 2, 38, 0
2, 141684, Note_on_c, 2, 45, 48
2, 141847, Note_on_c, 2, 45, 0
2, 141936, Note_on_c, 2, 44, 97
2, 142064, Note_on_c, 2, 44, 0
2, 142112, Note_on_c, 2, 43, 67
2, 142370, Note_on_c, 2, 43, 0
2, 142398, Note_on_c, 2, 38, 77
2, 142553, Note_on_c, 2, 31, 85
2, 142630, Note_on_c, 2, 38, 0
2, 143030, Note_on_c, 2, 31, 0
2, 143035, Note_on_c, 2, 33, 85
2, 143503, Note_on_c, 2, 35, 92
2, 143506, Note_on_c, 2, 33, 0
2, 143962, Note_on_c, 2, 35, 0
2, 143983, Note_on_c, 2, 36, 85
2, 144331, Note_on_c, 2, 34, 46
2, 144413, Note_on_c, 2, 34, 0
2, 144482, Note_on_c, 2, 44, 93
2, 144506, Note_on_c, 2, 36, 0
2, 144798, Note_on_c, 2, 36, 52
2, 144853, Note_on_c, 2, 36, 0
2, 144947, Note_on_c, 2, 44, 0
2, 144960, Note_on_c, 2, 43, 75
2, 145291, Note_on_c, 2, 38, 68
2, 145350, Note_on_c, 2, 38, 0
2, 145373, Note_on_c, 2, 43, 0
2, 145426, Note_on_c, 2, 46, 87
2, 145765, Note_on_c, 2, 44, 63
2, 145823, Note_on_c, 2, 46, 0
2, 145828, Note_on_c, 2, 44, 0
2, 145911, Note_on_c, 2, 45, 63
2, 145970, Note_on_c, 2, 45, 0
2, 146069, Note_on_c, 2, 40, 80
2, 146167, Note_on_c, 2, 40, 0
2, 146222, Note_on_c, 2, 36, 95
2, 146354, Note_on_c, 2, 36, 0
2, 146383, Note_on_c, 2, 33, 92
2, 146796, Note_on_c, 2, 36, 25
2, 146898, Note_on_c, 2, 36, 0
2, 146905, Note_on_c, 2, 33, 0
2, 147022, Note_on_c, 2, 45, 81
2, 147088, Note_on_c, 2, 45, 0
2, 147173, Note_on_c, 2, 40, 75
2, 147265, Note_on_c, 2, 40, 0
2, 147338, Note_on_c, 2, 36, 92
2, 147436, Note_on_c, 2, 36, 0
2, 147499, Note_on_c, 2, 33, 76
2, 147585, Note_on_c, 2, 33, 0
2, 147671, Note_on_c, 2, 45, 100
2, 148005, Note_on_c, 2, 40, 77
2, 148034, Note_on_c, 2, 45, 0
2, 148077, Note_on_c, 2, 40, 0
2, 148170, Note_on_c, 2, 39, 85
2, 148241, Note_on_c, 2, 39, 0
2, 148337, Note_on_c, 2, 38, 100
2, 148790, Note_on_c, 2, 51, 98
2, 148811, Note_on_c, 2, 52, 105
2, 148820, Note_on_c, 2, 51, 0
2, 148947, Note_on_c, 2, 38, 0
2, 149154, Note_on_c, 2, 38, 25
2, 149161, Note_on_c, 2, 37, 41
2, 149186, Note_on_c, 2, 38, 0
2, 149226, Note_on_c, 2, 52, 0
2, 149257, Note_on_c, 2, 37, 0
2, 149261, Note_on_c, 2, 51, 96
2, 149590, Note_on_c, 2, 43, 46
2, 149631, Note_on_c, 2, 43, 0
2, 149667, Note_on_c, 2, 51, 0
2, 149742, Note_on_c, 2, 50, 80
2, 149834, Note_on_c, 2, 50, 0
2, 149896, Note_on_c, 2, 48, 78
2, 149961, Note_on_c, 2, 48, 0
2, 150030, Note_on_c, 2, 45, 78
2, 150206, Note_on_c, 2, 45, 0
2, 150226, Note_on_c, 2, 46, 86
2, 150599, Note_on_c, 2, 43, 30
2, 150626, Note_on_c, 2, 43, 0
2, 150674, Note_on_c, 2, 46, 0
2, 150726, Note_on_c, 2, 47, 81
2, 151056, Note_on_c, 2, 38, 85
2, 151112, Note_on_c, 2, 38, 0
2, 151119, Note_on_c, 2, 47, 0
2, 151204, Note_on_c, 2, 35, 92
2, 151661, Note_on_c, 2, 35, 0
2, 151688, Note_on_c, 2, 36, 95
2, 152114, Note_on_c, 2, 36, 0
2, 152154, Note_on_c, 2, 36, 102
2, 152630, Note_on_c, 2, 48, 115
2, 152665, Note_on_c, 2, 36, 0
2, 152945, Note_on_c, 2, 36, 81
2, 153032, Note_on_c, 2, 48, 0
2, 153039, Note_on_c, 2, 36, 0
2, 153091, Note_on_c, 2, 42, 87
2, 153389, Note_on_c, 2, 38, 40
2, 153428, Note_on_c, 2, 38, 0
2, 153552, Note_on_c, 2, 42, 0
2, 153579, Note_on_c, 2, 43, 88
2, 153911, Note_on_c, 2, 34, 88
2, 153922, Note_on_c, 2, 43, 0
2, 154540, Note_on_c, 2, 36, 72
2, 154541, Note_on_c, 2, 34, 0
2, 154887, Note_on_c, 2, 34, 58
2, 154980, Note_on_c, 2, 36, 0
2, 155015, Note_on_c, 2, 50, 117
2, 155067, Note_on_c, 2, 34, 0
2, 155370, Note_on_c, 2, 38, 58
2, 155460, Note_on_c, 2, 38, 0
2, 155464, Note_on_c, 2, 50, 0
2, 155499, Note_on_c, 2, 48, 92
2, 155826, Note_on_c, 2, 38, 66
2, 155912, Note_on_c, 2, 38, 0
2, 155930, Note_on_c, 2, 48, 0
2, 155975, Note_on_c, 2, 45, 77
2, 156284, Note_on_c, 2, 38, 61
2, 156347, Note_on_c, 2, 38, 0
2, 156402, Note_on_c, 2, 45, 0
2, 156438, Note_on_c, 2, 42, 88
2, 156914, Note_on_c, 2, 42, 0
2, 156945, Note_on_c, 2, 39, 86
2, 157295, Note_on_c, 2, 37, 63
2, 157351, Note_on_c, 2, 39, 0
2, 157395, Note_on_c, 2, 37, 0
2, 157434, Note_on_c, 2, 43, 80
2, 157758, Note_on_c, 2, 38, 91
2, 157762, Note_on_c, 2, 43, 0
2, 157841, Note_on_c, 2, 38, 0
2, 157920, Note_on_c, 2, 34, 70
2, 158210, Note_on_c, 2, 34, 0
2, 158248, Note_on_c, 2, 35, 76
2, 158373, Note_on_c, 2, 35, 0
2, 158394, Note_on_c, 2, 36, 85
2, 158716, Note_on_c, 2, 34, 55
2, 158844, Note_on_c, 2, 36, 0
2, 158858, Note_on_c, 2, 40, 92
2, 158887, Note_on_c, 2, 34, 0
2, 159189, Note_on_c, 2, 34, 67
2, 159266, Note_on_c, 2, 34, 0
2, 159282, Note_on_c, 2, 40, 0
2, 159343, Note_on_c, 2, 41, 91
2, 159537, Note_on_c, 2, 41, 0
2, 159665, Note_on_c, 2, 39, 113
2, 159797, Note_on_c, 2, 39, 0
2, 159858, Note_on_c, 2, 40, 63
2, 160090, Note_on_c, 2, 40, 0
2, 160146, Note_on_c, 2, 37, 96
2, 160306, Note_on_c, 2, 37, 0
2, 160313, Note_on_c, 2, 38, 67
2, 160622, Note_on_c, 2, 38, 0
2, 160639, Note_on_c, 2, 35, 68
2, 160738, Note_on_c, 2, 35, 0
2, 160775, Note_on_c, 2, 36, 71
2, 161003, Note_on_c, 2, 36, 0
2, 161105, Note_on_c, 2, 40, 101
2, 161265, Note_on_c, 2, 40, 0
2, 161282, Note_on_c, 2, 41, 66
2, 161591, Note_on_c, 2, 36, 70
2, 161631, Note_on_c, 2, 41, 0
2, 161665, Note_on_c, 2, 36, 0
2, 161742, Note_on_c, 2, 48, 103
2, 162050, Note_on_c, 2, 47, 92
2, 162098, Note_on_c, 2, 48, 0
2, 162226, Note_on_c, 2, 47, 0
2, 162233, Note_on_c, 2, 46, 73
2, 162558, Note_on_c, 2, 41, 80
2, 162654, Note_on_c, 2, 46, 0
2, 162659, Note_on_c, 2, 41, 0
2, 162711, Note_on_c, 2, 34, 88
2, 163210, Note_on_c, 2, 39, 97
2, 163236, Note_on_c, 2, 34, 0
2, 163641, Note_on_c, 2, 39, 0
2, 163686, Note_on_c, 2, 39, 101
2, 164636, Note_on_c, 2, 37, 86
2, 164706, Note_on_c, 2, 39, 0
2, 165130, Note_on_c, 2, 41, 72
2, 165131, Note_on_c, 2, 37, 0
2, 165579, Note_on_c, 2, 41, 0
2, 165611, Note_on_c, 2, 36, 90
2, 166063, Note_on_c, 2, 36, 0
2, 166098, Note_on_c, 2, 32, 90
2, 166582, Note_on_c, 2, 44, 113
2, 166605, Note_on_c, 2, 34, 36
2, 166632, Note_on_c, 2, 34, 0
2, 167004, Note_on_c, 2, 44, 0
2, 167047, Note_on_c, 2, 43, 86
2, 167048, Note_on_c, 2, 32, 0
2, 167508, Note_on_c, 2, 31, 112
2, 167554, Note_on_c, 2, 43, 0
2, 167993, Note_on_c, 2, 31, 0
2, 167994, Note_on_c, 2, 33, 92
2, 168482, Note_on_c, 2, 35, 102
2, 168671, Note_on_c, 2, 33, 0
2, 168967, Note_on_c, 2, 35, 0
2, 168979, Note_on_c, 2, 36, 95
2, 169469, Note_on_c, 2, 40, 108
2, 169509, Note_on_c, 2, 36, 0
2, 169815, Note_on_c, 2, 36, 71
2, 169834, Note_on_c, 2, 40, 0
2, 169917, Note_on_c, 2, 36, 0
2, 169957, Note_on_c, 2, 37, 98
2, 170431, Note_on_c, 2, 40, 103
2, 170466, Note_on_c, 2, 37, 0
2, 170764, Note_on_c, 2, 40, 0
2, 170793, Note_on_c, 2, 37, 70
2, 170895, Note_on_c, 2, 37, 0
2, 170911, Note_on_c, 2, 38, 100
2, 171240, Note_on_c, 2, 37, 53
2, 171327, Note_on_c, 2, 38, 0
2, 171376, Note_on_c, 2, 45, 105
2, 171399, Note_on_c, 2, 37, 0
2, 171837, Note_on_c, 2, 41, 90
2, 171870, Note_on_c, 2, 45, 0
2, 172115, Note_on_c, 2, 41, 0
2, 172175, Note_on_c, 2, 38, 82
2, 172285, Note_on_c, 2, 38, 0
2, 172298, Note_on_c, 2, 32, 92
2, 172757, Note_on_c, 2, 32, 0
2, 172791, Note_on_c, 2, 31, 92
2, 173218, Note_on_c, 2, 31, 0
2, 173273, Note_on_c, 2, 31, 85
2, 173742, Note_on_c, 2, 31, 0
2, 173750, Note_on_c, 2, 35, 96
2, 174170, Note_on_c, 2, 35, 0
2, 174222, Note_on_c, 2, 35, 100
2, 174580, Note_on_c, 2, 34, 37
2, 174707, Note_on_c, 2, 34, 0
2, 174711, Note_on_c, 2, 35, 0
2, 174721, Note_on_c, 2, 36, 98
2, 175066, Note_on_c, 2, 34, 46
2, 175212, Note_on_c, 2, 44, 95
2, 175294, Note_on_c, 2, 34, 0
2, 175333, Note_on_c, 2, 36, 0
2, 175552, Note_on_c, 2, 36, 55
2, 175664, Note_on_c, 2, 36, 0
2, 175688, Note_on_c, 2, 43, 77
2, 175711, Note_on_c, 2, 44, 0
2, 176025, Note_on_c, 2, 39, 66
2, 176071, Note_on_c, 2, 39, 0
2, 176136, Note_on_c, 2, 43, 0
2, 176162, Note_on_c, 2, 47, 92
2, 176509, Note_on_c, 2, 44, 61
2, 176522, Note_on_c, 2, 47, 0
2, 176583, Note_on_c, 2, 44, 0
2, 176655, Note_on_c, 2, 45, 86
2, 176989, Note_on_c, 2, 45, 0
2, 176991, Note_on_c, 2, 40, 71
2, 177085, Note_on_c, 2, 40, 0
2, 177144, Note_on_c, 2, 36, 98
2, 177598, Note_on_c, 2, 36, 0
2, 177636, Note_on_c, 2, 33, 88
2, 178087, Note_on_c, 2, 33, 0
2, 178101, Note_on_c, 2, 39, 86
2, 178442, Note_on_c, 2, 37, 47
2, 178511, Note_on_c, 2, 39, 0
2, 178577, Note_on_c, 2, 38, 75
2, 178579, Note_on_c, 2, 37, 0
2, 178767, Note_on_c, 2, 52, 75
2, 178833, Note_on_c, 2, 52, 0
2, 178907, Note_on_c, 2, 53, 75
2, 179018, Note_on_c, 2, 53, 0
2, 179066, Note_on_c, 2, 54, 105
2, 179325, Note_on_c, 2, 38, 0
2, 179347, Note_on_c, 2, 39, 58
2, 179467, Note_on_c, 2, 39, 0
2, 179514, Note_on_c, 2, 45, 106
2, 179841, Note_on_c, 2, 54, 0
2, 180013, Note_on_c, 2, 42, 98
2, 180067, Note_on_c, 2, 45, 0
2, 180379, Note_on_c, 2, 39, 41
2, 180482, Note_on_c, 2, 42, 0
2, 180495, Note_on_c, 2, 39, 0
2, 180521, Note_on_c, 2, 45, 100
2, 180827, Note_on_c, 2, 45, 0
2, 180847, Note_on_c, 2, 41, 72
2, 180948, Note_on_c, 2, 41, 0
2, 180995, Note_on_c, 2, 42, 97
2, 181397, Note_on_c, 2, 42, 0
2, 181455, Note_on_c, 2, 43, 85
2, 181755, Note_on_c, 2, 43, 0
2, 181803, Note_on_c, 2, 38, 88
2, 181950, Note_on_c, 2, 31, 105
2, 181954, Note_on_c, 2, 38, 0
2, 182396, Note_on_c, 2, 36, 98
2, 182399, Note_on_c, 2, 31, 0
2, 182832, Note_on_c, 2, 36, 0
2, 182881, Note_on_c, 2, 36, 105
2, 183350, Note_on_c, 2, 36, 0
2, 183366, Note_on_c, 2, 43, 111
2, 183688, Note_on_c, 2, 31, 77
2, 183741, Note_on_c, 2, 43, 0
2, 183791, Note_on_c, 2, 31, 0
2, 183835, Note_on_c, 2, 35, 95
2, 184270, Note_on_c, 2, 35, 0
2, 184300, Note_on_c, 2, 36, 98
2, 184982, Note_on_c, 2, 36, 0
2, 184985, Note_on_c, 2, 35, 82
2, 185126, Note_on_c, 2, 35, 0
2, 185135, Note_on_c, 2, 36, 91
2, 185275, Note_on_c, 2, 36, 0
2, 185303, Note_on_c, 2, 37, 90
2, 185742, Note_on_c, 2, 36, 85
2, 185749, Note_on_c, 2, 37, 0
2, 185912, Note_on_c, 2, 36, 0
2, 185922, Note_on_c, 2, 37, 80
2, 186003, Note_on_c, 2, 37, 0
2, 186080, Note_on_c, 2, 38, 103
2, 186594, Note_on_c, 2, 37, 48
2, 186673, Note_on_c, 2, 37, 0
2, 186725, Note_on_c, 2, 38, 0
2, 186740, Note_on_c, 2, 45, 92
2, 187212, Note_on_c, 2, 41, 80
2, 187214, Note_on_c, 2, 45, 0
2, 187548, Note_on_c, 2, 38, 66
2, 187559, Note_on_c, 2, 41, 0
2, 187648, Note_on_c, 2, 38, 0
2, 187684, Note_on_c, 2, 32, 73
2, 188015, Note_on_c, 2, 31, 83
2, 188018, Note_on_c, 2, 32, 0
2, 188096, Note_on_c, 2, 31, 0
2, 188178, Note_on_c, 2, 31, 57
2, 188635, Note_on_c, 2, 45, 101
2, 188688, Note_on_c, 2, 31, 0
2, 188965, Note_on_c, 2, 31, 72
2, 189063, Note_on_c, 2, 31, 0
2, 189098, Note_on_c, 2, 45, 0
2, 189130, Note_on_c, 2, 43, 68
2, 189331, Note_on_c, 2, 43, 0
2, 189425, Note_on_c, 2, 43, 62
2, 189498, Note_on_c, 2, 43, 0
2, 189578, Note_on_c, 2, 35, 67
2, 189898, Note_on_c, 2, 34, 41
2, 190011, Note_on_c, 2, 34, 0
2, 190036, Note_on_c, 2, 35, 0
2, 190052, Note_on_c, 2, 36, 77
2, 190387, Note_on_c, 2, 47, 100
2, 190390, Note_on_c, 2, 34, 37
2, 190507, Note_on_c, 2, 47, 0
2, 190564, Note_on_c, 2, 34, 0
2, 190569, Note_on_c, 2, 48, 66
2, 190579, Note_on_c, 2, 47, 61
2, 190605, Note_on_c, 2, 36, 0
2, 190690, Note_on_c, 2, 47, 0
2, 190864, Note_on_c, 2, 36, 85
2, 190939, Note_on_c, 2, 36, 0
2, 190971, Note_on_c, 2, 48, 0
2, 191023, Note_on_c, 2, 45, 61
2, 191319, Note_on_c, 2, 38, 70
2, 191325, Note_on_c, 2, 45, 0
2, 191426, Note_on_c, 2, 38, 0
2, 191476, Note_on_c, 2, 44, 85
2, 191788, Note_on_c, 2, 37, 37
2, 191816, Note_on_c, 2, 37, 0
2, 191960, Note_on_c, 2, 44, 0
2, 191977, Note_on_c, 2, 45, 76
2, 192480, Note_on_c, 2, 45, 0
2, 192495, Note_on_c, 2, 40, 95
2, 192980, Note_on_c, 2, 40, 0
2, 192981, Note_on_c, 2, 36, 100
2, 193434, Note_on_c, 2, 36, 0
2, 193455, Note_on_c, 2, 33, 106
2, 193938, Note_on_c, 2, 38, 108
2, 193975, Note_on_c, 2, 33, 0
2, 194388, Note_on_c, 2, 38, 0
2, 194422, Note_on_c, 2, 38, 97
2, 194880, Note_on_c, 2, 33, 96
2, 194892, Note_on_c, 2, 38, 0
2, 195327, Note_on_c, 2, 33, 0
2, 195402, Note_on_c, 2, 32, 108
2, 195848, Note_on_c, 2, 32, 0
2, 195874, Note_on_c, 2, 31, 93
2, 196232, Note_on_c, 2, 38, 61
2, 196322, Note_on_c, 2, 38, 0
2, 196351, Note_on_c, 2, 43, 100
2, 196425, Note_on_c, 2, 31, 0
2, 196786, Note_on_c, 2, 43, 0
2, 196833, Note_on_c, 2, 43, 98
2, 197267, Note_on_c, 2, 43, 0
2, 197287, Note_on_c, 2, 31, 98
2, 197626, Note_on_c, 2, 38, 50
2, 197709, Note_on_c, 2, 38, 0
2, 197728, Note_on_c, 2, 31, 0
2, 197746, Note_on_c, 2, 40, 97
2, 198143, Note_on_c, 2, 37, 41
2, 198183, Note_on_c, 2, 40, 0
2, 198235, Note_on_c, 2, 37, 0
2, 198263, Note_on_c, 2, 39, 97
2, 198610, Note_on_c, 2, 37, 48
2, 198698, Note_on_c, 2, 39, 0
2, 198726, Note_on_c, 2, 38, 98
2, 198730, Note_on_c, 2, 37, 0
2, 199138, Note_on_c, 2, 38, 0
2, 199194, Note_on_c, 2, 37, 95
2, 199560, Note_on_c, 2, 34, 46
2, 199658, Note_on_c, 2, 37, 0
2, 199679, Note_on_c, 2, 36, 91
2, 199692, Note_on_c, 2, 34, 0
2, 200184, Note_on_c, 2, 45, 100
2, 200322, Note_on_c, 2, 36, 0
2, 200536, Note_on_c, 2, 37, 45
2, 200599, Note_on_c, 2, 37, 0
2, 200618, Note_on_c, 2, 45, 0
2, 200674, Note_on_c, 2, 49, 95
2, 201170, Note_on_c, 2, 49, 0
2, 201173, Note_on_c, 2, 46, 83
2, 201515, Note_on_c, 2, 40, 46
2, 201566, Note_on_c, 2, 40, 0
2, 201604, Note_on_c, 2, 46, 0
2, 201642, Note_on_c, 2, 48, 97
2, 202106, Note_on_c, 2, 48, 0
2, 202113, Note_on_c, 2, 45, 87
2, 202450, Note_on_c, 2, 38, 37
2, 202498, Note_on_c, 2, 38, 0
2, 202556, Note_on_c, 2, 45, 0
2, 202602, Note_on_c, 2, 41, 71
2, 202935, Note_on_c, 2, 38, 88
2, 202991, Note_on_c, 2, 41, 0
2, 203054, Note_on_c, 2, 38, 0
2, 203070, Note_on_c, 2, 32, 77
2, 203508, Note_on_c, 2, 32, 0
2, 203524, Note_on_c, 2, 31, 87
2, 203792, Note_on_c, 2, 31, 0
2, 203862, Note_on_c, 2, 31, 70
2, 203977, Note_on_c, 2, 31, 0
2, 203994, Note_on_c, 2, 33, 93
2, 204006, Note_on_c, 2, 31, 68
2, 204035, Note_on_c, 2, 31, 0
2, 204474, Note_on_c, 2, 33, 0
2, 204490, Note_on_c, 2, 34, 96
2, 204767, Note_on_c, 2, 34, 0
2, 204825, Note_on_c, 2, 34, 71
2, 204926, Note_on_c, 2, 34, 0
2, 204968, Note_on_c, 2, 35, 91
2, 205274, Note_on_c, 2, 34, 42
2, 205422, Note_on_c, 2, 35, 0
2, 205423, Note_on_c, 2, 34, 0
2, 205454, Note_on_c, 2, 36, 90
2, 205855, Note_on_c, 2, 34, 22
2, 205935, Note_on_c, 2, 43, 88
2, 205949, Note_on_c, 2, 36, 0
2, 206128, Note_on_c, 2, 34, 0
2, 206295, Note_on_c, 2, 36, 75
2, 206355, Note_on_c, 2, 36, 0
2, 206407, Note_on_c, 2, 43, 0
2, 206417, Note_on_c, 2, 44, 80
2, 206747, Note_on_c, 2, 40, 80
2, 206802, Note_on_c, 2, 40, 0
2, 206833, Note_on_c, 2, 44, 0
2, 206887, Note_on_c, 2, 47, 90
2, 207192, Note_on_c, 2, 44, 91
2, 207205, Note_on_c, 2, 47, 0
2, 207327, Note_on_c, 2, 44, 0
2, 207363, Note_on_c, 2, 45, 90
2, 207642, Note_on_c, 2, 45, 0
2, 207671, Note_on_c, 2, 40, 111
2, 207782, Note_on_c, 2, 40, 0
2, 207842, Note_on_c, 2, 36, 75
2, 208314, Note_on_c, 2, 36, 0
2, 208339, Note_on_c, 2, 33, 72
2, 208650, Note_on_c, 2, 33, 0
2, 208661, Note_on_c, 2, 48, 115
2, 208778, Note_on_c, 2, 48, 0
2, 208837, Note_on_c, 2, 45, 60
2, 209123, Note_on_c, 2, 45, 0
2, 209148, Note_on_c, 2, 38, 120
2, 209607, Note_on_c, 2, 37, 62
2, 209767, Note_on_c, 2, 52, 127
2, 209786, Note_on_c, 2, 37, 0
2, 209908, Note_on_c, 2, 38, 0
2, 210395, Note_on_c, 2, 50, 71
2, 210431, Note_on_c, 2, 52, 0
2, 210456, Note_on_c, 2, 50, 0
2, 210538, Note_on_c, 2, 45, 85
2, 210642, Note_on_c, 2, 45, 0
2, 210730, Note_on_c, 2, 41, 86
2, 211069, Note_on_c, 2, 42, 98
2, 211079, Note_on_c, 2, 41, 0
2, 211175, Note_on_c, 2, 42, 0
2, 211230, Note_on_c, 2, 43, 85
2, 211639, Note_on_c, 2, 43, 0
2, 211679, Note_on_c, 2, 31, 88
2, 212141, Note_on_c, 2, 31, 0
2, 212171, Note_on_c, 2, 33, 82
2, 212484, Note_on_c, 2, 34, 107
2, 212497, Note_on_c, 2, 33, 0
2, 212607, Note_on_c, 2, 34, 0
2, 212642, Note_on_c, 2, 35, 97
2, 212974, Note_on_c, 2, 34, 52
2, 213101, Note_on_c, 2, 34, 0
2, 213109, Note_on_c, 2, 35, 0
2, 213129, Note_on_c, 2, 36, 96
2, 213546, Note_on_c, 2, 36, 0
2, 213602, Note_on_c, 2, 36, 96
2, 214085, Note_on_c, 2, 43, 75
2, 214092, Note_on_c, 2, 45, 75
2, 214140, Note_on_c, 2, 36, 0
2, 214423, Note_on_c, 2, 45, 0
2, 214439, Note_on_c, 2, 36, 68
2, 214514, Note_on_c, 2, 36, 0
2, 214542, Note_on_c, 2, 43, 0
2, 214570, Note_on_c, 2, 50, 98
2, 214871, Note_on_c, 2, 41, 47
2, 214913, Note_on_c, 2, 41, 0
2, 214918, Note_on_c, 2, 40, 37
2, 214954, Note_on_c, 2, 40, 0
2, 215026, Note_on_c, 2, 50, 0
2, 215059, Note_on_c, 2, 48, 87
2, 215384, Note_on_c, 2, 43, 80
2, 215423, Note_on_c, 2, 48, 0
2, 215467, Note_on_c, 2, 43, 0
2, 215534, Note_on_c, 2, 37, 101
2, 216005, Note_on_c, 2, 36, 88
2, 216039, Note_on_c, 2, 37, 0
2, 216454, Note_on_c, 2, 36, 0
2, 216481, Note_on_c, 2, 41, 100
2, 216975, Note_on_c, 2, 48, 120
2, 217034, Note_on_c, 2, 41, 0
2, 217335, Note_on_c, 2, 39, 33
2, 217378, Note_on_c, 2, 39, 0
2, 217444, Note_on_c, 2, 48, 0
2, 217452, Note_on_c, 2, 45, 80
2, 217926, Note_on_c, 2, 42, 83
2, 217953, Note_on_c, 2, 45, 0
2, 218271, Note_on_c, 2, 39, 57
2, 218393, Note_on_c, 2, 42, 0
2, 218407, Note_on_c, 2, 51, 110
2, 218686, Note_on_c, 2, 39, 0
2, 218738, Note_on_c, 2, 49, 66
2, 218783, Note_on_c, 2, 51, 0
2, 218841, Note_on_c, 2, 49, 0
2, 218899, Note_on_c, 2, 50, 85
2, 219367, Note_on_c, 2, 43, 88
2, 219375, Note_on_c, 2, 50, 0
2, 219695, Note_on_c, 2, 42, 43
2, 219823, Note_on_c, 2, 42, 0
2, 219826, Note_on_c, 2, 43, 0
2, 219846, Note_on_c, 2, 48, 96
2, 220318, Note_on_c, 2, 48, 0
2, 220321, Note_on_c, 2, 36, 103
2, 220805, Note_on_c, 2, 36, 0
2, 220809, Note_on_c, 2, 41, 96
2, 221166, Note_on_c, 2, 39, 46
2, 221292, Note_on_c, 2, 50, 126
2, 221293, Note_on_c, 2, 41, 0
2, 221357, Note_on_c, 2, 39, 0
2, 221711, Note_on_c, 2, 50, 0
2, 221763, Note_on_c, 2, 48, 92
2, 222254, Note_on_c, 2, 48, 0
2, 222255, Note_on_c, 2, 41, 120
2, 222641, Note_on_c, 2, 39, 23
2, 222733, Note_on_c, 2, 50, 120
2, 222736, Note_on_c, 2, 41, 0
2, 222786, Note_on_c, 2, 39, 0
2, 223166, Note_on_c, 2, 50, 0
2, 223214, Note_on_c, 2, 48, 93
2, 223554, Note_on_c, 2, 41, 62
2, 223589, Note_on_c, 2, 41, 0
2, 223651, Note_on_c, 2, 48, 0
2, 223691, Note_on_c, 2, 44, 90
2, 224011, Note_on_c, 2, 41, 55
2, 224054, Note_on_c, 2, 41, 0
2, 224135, Note_on_c, 2, 44, 0
2, 224173, Note_on_c, 2, 46, 87
2, 224505, Note_on_c, 2, 38, 68
2, 224556, Note_on_c, 2, 46, 0
2, 224589, Note_on_c, 2, 38, 0
2, 224638, Note_on_c, 2, 39, 85
2, 225153, Note_on_c, 2, 51, 106
2, 225221, Note_on_c, 2, 39, 0
2, 225484, Note_on_c, 2, 39, 58
2, 225571, Note_on_c, 2, 39, 0
2, 225583, Note_on_c, 2, 51, 0
2, 225642, Note_on_c, 2, 52, 92
2, 225966, Note_on_c, 2, 40, 58
2, 226039, Note_on_c, 2, 40, 0
2, 226092, Note_on_c, 2, 52, 0
2, 226118, Note_on_c, 2, 46, 86
2, 226468, Note_on_c, 2, 41, 37
2, 226500, Note_on_c, 2, 41, 0
2, 226882, Note_on_c, 2, 39, 75
2, 226914, Note_on_c, 2, 46, 0
2, 226976, Note_on_c, 2, 39, 0
2, 227024, Note_on_c, 2, 46, 80
2, 227347, Note_on_c, 2, 39, 55
2, 227399, Note_on_c, 2, 39, 0
2, 227469, Note_on_c, 2, 46, 0
2, 227498, Note_on_c, 2, 44, 86
2, 227983, Note_on_c, 2, 42, 100
2, 227998, Note_on_c, 2, 44, 0
2, 228423, Note_on_c, 2, 42, 0
2, 228458, Note_on_c, 2, 43, 88
2, 228878, Note_on_c, 2, 43, 0
2, 228908, Note_on_c, 2, 31, 112
2, 229386, Note_on_c, 2, 31, 0
2, 229414, Note_on_c, 2, 33, 92
2, 229856, Note_on_c, 2, 33, 0
2, 229857, Note_on_c, 2, 35, 105
2, 230398, Note_on_c, 2, 35, 0
2, 230402, Note_on_c, 2, 36, 97
2, 230832, Note_on_c, 2, 36, 0
2, 230894, Note_on_c, 2, 36, 95
2, 231390, Note_on_c, 2, 36, 0
2, 231395, Note_on_c, 2, 37, 102
2, 231814, Note_on_c, 2, 37, 0
2, 231858, Note_on_c, 2, 37, 100
2, 232112, Note_on_c, 2, 37, 0
2, 232210, Note_on_c, 2, 37, 95
2, 232362, Note_on_c, 2, 38, 105
2, 232391, Note_on_c, 2, 37, 0
2, 232676, Note_on_c, 2, 37, 36
2, 232789, Note_on_c, 2, 38, 0
2, 232802, Note_on_c, 2, 37, 0
2, 232817, Note_on_c, 2, 52, 126
2, 233121, Note_on_c, 2, 43, 48
2, 233193, Note_on_c, 2, 43, 0
2, 233274, Note_on_c, 2, 52, 0
2, 233311, Note_on_c, 2, 50, 72
2, 233354, Note_on_c, 2, 50, 0
2, 233460, Note_on_c, 2, 45, 80
2, 233530, Note_on_c, 2, 45, 0
2, 233606, Note_on_c, 2, 41, 87
2, 233735, Note_on_c, 2, 41, 0
2, 233786, Note_on_c, 2, 42, 96
2, 234166, Note_on_c, 2, 39, 32
2, 234215, Note_on_c, 2, 39, 0
2, 234221, Note_on_c, 2, 42, 0
2, 234250, Note_on_c, 2, 43, 90
2, 234538, Note_on_c, 2, 43, 0
2, 234559, Note_on_c, 2, 38, 95
2, 234655, Note_on_c, 2, 38, 0
2, 234720, Note_on_c, 2, 35, 75
2, 234725, Note_on_c, 2, 36, 80
2, 234842, Note_on_c, 2, 36, 0
2, 235343, Note_on_c, 2, 35, 0
2, 235366, Note_on_c, 2, 43, 65
2, 235434, Note_on_c, 2, 43, 0
2, 235523, Note_on_c, 2, 38, 38
2, 235564, Note_on_c, 2, 38, 0
2, 235655, Note_on_c, 2, 35, 82
2, 236111, Note_on_c, 2, 35, 0
2, 236151, Note_on_c, 2, 43, 76
2, 236199, Note_on_c, 2, 43, 0
2, 236316, Note_on_c, 2, 40, 85
2, 236355, Note_on_c, 2, 40, 0
2, 236462, Note_on_c, 2, 36, 110
2, 237019, Note_on_c, 2, 40, 45
2, 237061, Note_on_c, 2, 40, 0
2, 237095, Note_on_c, 2, 36, 0
2, 237120, Note_on_c, 2, 50, 101
2, 237434, Note_on_c, 2, 47, 72
2, 237453, Note_on_c, 2, 50, 0
2, 237533, Note_on_c, 2, 47, 0
2, 237611, Note_on_c, 2, 44, 92
2, 237945, Note_on_c, 2, 39, 28
2, 238001, Note_on_c, 2, 44, 0
2, 238029, Note_on_c, 2, 39, 0
2, 238060, Note_on_c, 2, 45, 93
2, 238369, Note_on_c, 2, 45, 0
2, 238386, Note_on_c, 2, 40, 67
2, 238509, Note_on_c, 2, 40, 0
2, 238538, Note_on_c, 2, 36, 82
2, 239019, Note_on_c, 2, 40, 87
2, 239021, Note_on_c, 2, 36, 0
2, 239360, Note_on_c, 2, 36, 63
2, 239364, Note_on_c, 2, 40, 0
2, 239450, Note_on_c, 2, 36, 0
2, 239484, Note_on_c, 2, 39, 87
2, 239816, Note_on_c, 2, 37, 53
2, 239899, Note_on_c, 2, 39, 0
2, 239938, Note_on_c, 2, 37, 0
2, 239983, Note_on_c, 2, 38, 83
2, 240468, Note_on_c, 2, 47, 108
2, 240495, Note_on_c, 2, 38, 0
2, 240785, Note_on_c, 2, 38, 61
2, 240858, Note_on_c, 2, 38, 0
2, 240962, Note_on_c, 2, 45, 87
2, 240966, Note_on_c, 2, 47, 0
2, 241321, Note_on_c, 2, 38, 67
2, 241360, Note_on_c, 2, 38, 0
2, 241442, Note_on_c, 2, 44, 86
2, 241452, Note_on_c, 2, 45, 0
2, 241927, Note_on_c, 2, 44, 0
2, 241939, Note_on_c, 2, 43, 75
2, 242258, Note_on_c, 2, 43, 0
2, 242263, Note_on_c, 2, 38, 100
2, 242397, Note_on_c, 2, 38, 0
2, 242411, Note_on_c, 2, 31, 112
2, 243188, Note_on_c, 2, 38, 36
2, 243223, Note_on_c, 2, 38, 0
2, 243700, Note_on_c, 2, 43, 106
2, 243912, Note_on_c, 2, 31, 0
2, 244187, Note_on_c, 2, 38, 66
2, 244292, Note_on_c, 2, 38, 0
2, 244329, Note_on_c, 2, 31, 112
2, 244341, Note_on_c, 2, 43, 0
2, 245129, Note_on_c, 2, 34, 75
2, 245142, Note_on_c, 2, 31, 0
2, 245264, Note_on_c, 2, 34, 0
2, 245277, Note_on_c, 2, 35, 78
2, 245608, Note_on_c, 2, 34, 52
2, 245722, Note_on_c, 2, 35, 0
2, 245745, Note_on_c, 2, 34, 0
2, 245762, Note_on_c, 2, 36, 82
2, 246591, Note_on_c, 2, 34, 46
2, 246638, Note_on_c, 2, 36, 0
2, 246724, Note_on_c, 2, 37, 65
2, 246740, Note_on_c, 2, 34, 0
2, 247332, Note_on_c, 2, 37, 0
2, 247389, Note_on_c, 2, 36, 72
2, 247487, Note_on_c, 2, 36, 0
2, 247530, Note_on_c, 2, 37, 81
2, 247655, Note_on_c, 2, 37, 0
2, 247688, Note_on_c, 2, 38, 80
2, 247815, Note_on_c, 2, 38, 0
2, 247834, Note_on_c, 2, 52, 92
2, 247982, Note_on_c, 2, 52, 0
2, 247986, Note_on_c, 2, 51, 77
2, 248125, Note_on_c, 2, 51, 0
2, 248151, Note_on_c, 2, 50, 82
2, 248947, Note_on_c, 2, 45, 90
2, 249018, Note_on_c, 2, 50, 0
2, 249042, Note_on_c, 2, 45, 0
2, 249115, Note_on_c, 2, 41, 56
2, 249384, Note_on_c, 2, 41, 0
2, 249429, Note_on_c, 2, 42, 71
2, 249560, Note_on_c, 2, 42, 0
2, 249591, Note_on_c, 2, 43, 75
2, 249844, Note_on_c, 2, 43, 0
2, 249908, Note_on_c, 2, 43, 92
2, 250060, Note_on_c, 2, 31, 105
2, 250119, Note_on_c, 2, 43, 0
2, 251008, Note_on_c, 2, 38, 85
2, 251034, Note_on_c, 2, 31, 0
2, 251314, Note_on_c, 2, 38, 0
2, 251337, Note_on_c, 2, 35, 67
2, 251491, Note_on_c, 2, 35, 0
2, 251511, Note_on_c, 2, 36, 90
2, 252473, Note_on_c, 2, 45, 105
2, 252521, Note_on_c, 2, 36, 0
2, 252806, Note_on_c, 2, 36, 65
2, 252917, Note_on_c, 2, 45, 0
2, 252922, Note_on_c, 2, 36, 0
2, 252952, Note_on_c, 2, 44, 75
2, 253451, Note_on_c, 2, 44, 0
2, 253456, Note_on_c, 2, 45, 85
2, 253768, Note_on_c, 2, 40, 81
2, 253789, Note_on_c, 2, 45, 0
2, 253916, Note_on_c, 2, 40, 0
2, 253922, Note_on_c, 2, 33, 92
2, 255030, Note_on_c, 2, 45, 88
2, 255080, Note_on_c, 2, 45, 0
2, 255178, Note_on_c, 2, 40, 91
2, 255224, Note_on_c, 2, 33, 0
2, 255269, Note_on_c, 2, 40, 0
2, 255346, Note_on_c, 2, 38, 95
2, 256169, Note_on_c, 2, 55, 86
2, 256340, Note_on_c, 2, 55, 0
2, 256388, Note_on_c, 2, 54, 71
2, 257236, Note_on_c, 2, 54, 0
2, 257249, Note_on_c, 2, 38, 0
2, 257268, Note_on_c, 2, 50, 75
2, 257775, Note_on_c, 2, 43, 88
2, 257776, Note_on_c, 2, 50, 0
2, 258733, Note_on_c, 2, 31, 75
2, 258759, Note_on_c, 2, 43, 0
2, 259055, Note_on_c, 2, 38, 57
2, 259175, Note_on_c, 2, 38, 0
2, 259212, Note_on_c, 2, 31, 0
2, 259223, Note_on_c, 2, 40, 78
2, 259519, Note_on_c, 2, 55, 80
2, 259703, Note_on_c, 2, 55, 0
2, 259736, Note_on_c, 2, 54, 73
2, 259855, Note_on_c, 2, 40, 0
2, 260010, Note_on_c, 2, 39, 75
2, 260063, Note_on_c, 2, 54, 0
2, 260148, Note_on_c, 2, 39, 0
2, 260196, Note_on_c, 2, 38, 81
2, 260498, Note_on_c, 2, 53, 77
2, 260624, Note_on_c, 2, 53, 0
2, 260625, Note_on_c, 2, 38, 0
2, 260938, Note_on_c, 2, 42, 73
2, 261029, Note_on_c, 2, 42, 0
2, 261116, Note_on_c, 2, 48, 82
2, 262562, Note_on_c, 2, 48, 0
2, 262570, Note_on_c, 2, 37, 86
2, 263020, Note_on_c, 2, 37, 0
2, 263027, Note_on_c, 2, 38, 88
2, 263851, Note_on_c, 2, 37, 55
2, 263965, Note_on_c, 2, 37, 0
2, 264002, Note_on_c, 2, 48, 115
2, 264021, Note_on_c, 2, 38, 0
2, 264601, Note_on_c, 2, 48, 0
2, 264623, Note_on_c, 2, 45, 78
2, 264688, Note_on_c, 2, 45, 0
2, 264772, Note_on_c, 2, 38, 82
2, 264912, Note_on_c, 2, 38, 0
2, 264940, Note_on_c, 2, 31, 110
2, 266231, Note_on_c, 2, 33, 76
2, 266255, Note_on_c, 2, 31, 0
2, 266348, Note_on_c, 2, 33, 0
2, 266391, Note_on_c, 2, 35, 100
2, 266744, Note_on_c, 2, 34, 31
2, 266868, Note_on_c, 2, 34, 0
2, 266875, Note_on_c, 2, 35, 0
2, 266884, Note_on_c, 2, 36, 97
2, 267325, Note_on_c, 2, 36, 0
2, 267380, Note_on_c, 2, 36, 100
2, 268306, Note_on_c, 2, 36, 0
2, 268311, Note_on_c, 2, 32, 102
2, 268777, Note_on_c, 2, 32, 0
2, 268799, Note_on_c, 2, 33, 87
2, 269295, Note_on_c, 2, 47, 106
2, 269393, Note_on_c, 2, 33, 0
2, 269729, Note_on_c, 2, 47, 0
2, 269750, Note_on_c, 2, 37, 25
2, 269777, Note_on_c, 2, 37, 0
2, 269787, Note_on_c, 2, 45, 93
2, 270107, Note_on_c, 2, 45, 0
2, 270114, Note_on_c, 2, 33, 103
2, 270620, Note_on_c, 2, 37, 55
2, 270735, Note_on_c, 2, 37, 0
2, 270735, Note_on_c, 2, 33, 0
2, 270753, Note_on_c, 2, 38, 101
2, 271667, Note_on_c, 2, 30, 105
2, 271690, Note_on_c, 2, 38, 0
2, 272610, Note_on_c, 2, 29, 90
2, 272687, Note_on_c, 2, 30, 0
2, 273415, Note_on_c, 2, 29, 0
2, 273438, Note_on_c, 2, 30, 102
2, 273605, Note_on_c, 2, 30, 0
2, 273611, Note_on_c, 2, 31, 108
2, 274417, Note_on_c, 2, 36, 127
2, 274427, Note_on_c, 2, 31, 0
2, 275793, Note_on_c, 2, 33, 83
2, 275807, Note_on_c, 2, 36, 0
2, 275868, Note_on_c, 2, 33, 0
2, 275930, Note_on_c, 2, 32, 92
2, 276004, Note_on_c, 2, 32, 0
2, 276270, Note_on_c, 2, 30, 73
2, 276384, Note_on_c, 2, 30, 0
2, 276440, Note_on_c, 2, 31, 85
2, 276776, Note_on_c, 2, 45, 93
2, 276866, Note_on_c, 2, 31, 0
2, 276890, Note_on_c, 2, 45, 0
2, 276944, Note_on_c, 2, 43, 71
2, 277772, Note_on_c, 2, 35, 77
2, 277872, Note_on_c, 2, 43, 0
2, 277896, Note_on_c, 2, 35, 0
2, 277920, Note_on_c, 2, 36, 81
2, 278251, Note_on_c, 2, 34, 57
2, 278330, Note_on_c, 2, 36, 0
2, 278377, Note_on_c, 2, 34, 0
2, 278407, Note_on_c, 2, 41, 96
2, 279044, Note_on_c, 2, 41, 0
2, 279061, Note_on_c, 2, 40, 67
2, 279132, Note_on_c, 2, 40, 0
2, 279215, Note_on_c, 2, 41, 67
2, 279314, Note_on_c, 2, 41, 0
2, 279376, Note_on_c, 2, 42, 90
2, 279855, Note_on_c, 2, 39, 63
2, 279862, Note_on_c, 2, 42, 0
2, 279937, Note_on_c, 2, 39, 0
2, 280023, Note_on_c, 2, 36, 65
2, 280110, Note_on_c, 2, 36, 0
2, 280164, Note_on_c, 2, 45, 95
2, 280503, Note_on_c, 2, 43, 87
2, 280516, Note_on_c, 2, 45, 0
2, 280578, Note_on_c, 2, 43, 0
2, 280851, Note_on_c, 2, 38, 81
2, 281050, Note_on_c, 2, 38, 0
2, 281127, Note_on_c, 2, 34, 66
2, 281257, Note_on_c, 2, 34, 0
2, 281299, Note_on_c, 2, 36, 87
2, 281594, Note_on_c, 2, 34, 62
2, 281642, Note_on_c, 2, 36, 0
2, 281708, Note_on_c, 2, 34, 0
2, 281744, Note_on_c, 2, 48, 112
2, 282095, Note_on_c, 2, 41, 46
2, 282168, Note_on_c, 2, 48, 0
2, 282169, Note_on_c, 2, 41, 0
2, 282218, Note_on_c, 2, 50, 95
2, 282559, Note_on_c, 2, 41, 61
2, 282593, Note_on_c, 2, 41, 0
2, 282625, Note_on_c, 2, 50, 0
2, 282706, Note_on_c, 2, 48, 77
2, 283194, Note_on_c, 2, 48, 0
2, 283205, Note_on_c, 2, 45, 71
2, 283511, Note_on_c, 2, 40, 63
2, 283549, Note_on_c, 2, 40, 0
2, 283629, Note_on_c, 2, 45, 0
2, 283667, Note_on_c, 2, 41, 80
2, 283978, Note_on_c, 2, 37, 52
2, 284047, Note_on_c, 2, 37, 0
2, 284098, Note_on_c, 2, 41, 0
2, 284119, Note_on_c, 2, 46, 91
2, 284626, Note_on_c, 2, 41, 71
2, 284636, Note_on_c, 2, 46, 0
2, 284975, Note_on_c, 2, 34, 88
2, 285096, Note_on_c, 2, 41, 0
2, 285623, Note_on_c, 2, 46, 70
2, 285667, Note_on_c, 2, 34, 0
2, 285922, Note_on_c, 2, 38, 85
2, 285946, Note_on_c, 2, 46, 0
2, 286016, Note_on_c, 2, 38, 0
2, 286069, Note_on_c, 2, 39, 77
2, 286562, Note_on_c, 2, 46, 83
2, 286634, Note_on_c, 2, 39, 0
2, 286889, Note_on_c, 2, 39, 70
2, 286904, Note_on_c, 2, 46, 0
2, 287031, Note_on_c, 2, 40, 87
2, 287035, Note_on_c, 2, 39, 0
2, 287374, Note_on_c, 2, 39, 48
2, 287505, Note_on_c, 2, 46, 92
2, 287512, Note_on_c, 2, 39, 0
2, 287549, Note_on_c, 2, 40, 0
2, 287815, Note_on_c, 2, 40, 75
2, 287839, Note_on_c, 2, 46, 0
2, 287959, Note_on_c, 2, 40, 0
2, 287968, Note_on_c, 2, 41, 88
2, 288297, Note_on_c, 2, 48, 97
2, 288352, Note_on_c, 2, 41, 0
2, 288396, Note_on_c, 2, 48, 0
2, 288464, Note_on_c, 2, 44, 77
2, 288766, Note_on_c, 2, 33, 80
2, 288790, Note_on_c, 2, 44, 0
2, 288866, Note_on_c, 2, 33, 0
2, 288927, Note_on_c, 2, 32, 96
2, 289412, Note_on_c, 2, 44, 101
2, 289479, Note_on_c, 2, 32, 0
2, 289736, Note_on_c, 2, 32, 75
2, 289802, Note_on_c, 2, 32, 0
2, 289843, Note_on_c, 2, 44, 0
2, 289890, Note_on_c, 2, 43, 82
2, 290225, Note_on_c, 2, 38, 83
2, 290235, Note_on_c, 2, 43, 0
2, 290350, Note_on_c, 2, 38, 0
2, 290383, Note_on_c, 2, 31, 113
2, 291175, Note_on_c, 2, 33, 91
2, 291176, Note_on_c, 2, 31, 0
2, 291511, Note_on_c, 2, 34, 83
2, 291527, Note_on_c, 2, 33, 0
2, 291612, Note_on_c, 2, 34, 0
2, 291670, Note_on_c, 2, 35, 92
2, 291836, Note_on_c, 2, 35, 0
2, 291842, Note_on_c, 2, 36, 103
2, 292450, Note_on_c, 2, 36, 0
2, 292477, Note_on_c, 2, 35, 73
2, 292575, Note_on_c, 2, 35, 0
2, 292639, Note_on_c, 2, 36, 91
2, 292784, Note_on_c, 2, 37, 96
2, 292810, Note_on_c, 2, 36, 0
2, 293250, Note_on_c, 2, 37, 0
2, 293273, Note_on_c, 2, 36, 77
2, 293390, Note_on_c, 2, 36, 0
2, 293450, Note_on_c, 2, 37, 75
2, 293558, Note_on_c, 2, 37, 0
2, 293610, Note_on_c, 2, 38, 106
2, 294717, Note_on_c, 2, 48, 117
2, 294718, Note_on_c, 2, 38, 0
2, 295338, Note_on_c, 2, 48, 0
2, 295356, Note_on_c, 2, 45, 60
2, 295430, Note_on_c, 2, 45, 0
2, 295492, Note_on_c, 2, 44, 77
2, 295650, Note_on_c, 2, 44, 0
2, 295663, Note_on_c, 2, 43, 72
2, 295809, Note_on_c, 2, 43, 0
2, 295992, Note_on_c, 2, 38, 77
2, 296149, Note_on_c, 2, 31, 91
2, 296218, Note_on_c, 2, 38, 0
2, 296631, Note_on_c, 2, 38, 21
2, 296671, Note_on_c, 2, 38, 0
2, 296771, Note_on_c, 2, 31, 0
2, 296780, Note_on_c, 2, 43, 63
2, 296810, Note_on_c, 2, 43, 0
2, 296931, Note_on_c, 2, 38, 47
2, 297003, Note_on_c, 2, 38, 0
2, 297098, Note_on_c, 2, 31, 102
2, 297367, Note_on_c, 2, 31, 0
2, 297410, Note_on_c, 2, 35, 75
2, 297551, Note_on_c, 2, 35, 0
2, 297586, Note_on_c, 2, 36, 86
2, 298874, Note_on_c, 2, 41, 57
2, 298909, Note_on_c, 2, 41, 0
2, 298928, Note_on_c, 2, 36, 0
2, 299071, Note_on_c, 2, 39, 58
2, 299099, Note_on_c, 2, 39, 0
2, 299353, Note_on_c, 2, 40, 82
2, 299399, Note_on_c, 2, 40, 0
2, 299506, Note_on_c, 2, 45, 95
2, 299824, Note_on_c, 2, 45, 0
2, 299842, Note_on_c, 2, 40, 62
2, 299948, Note_on_c, 2, 40, 0
2, 299994, Note_on_c, 2, 33, 120
2, 300791, Note_on_c, 2, 40, 108
2, 301039, Note_on_c, 2, 33, 0
2, 301125, Note_on_c, 2, 36, 81
2, 301131, Note_on_c, 2, 40, 0
2, 301227, Note_on_c, 2, 36, 0
2, 301278, Note_on_c, 2, 37, 88
2, 301448, Note_on_c, 2, 38, 98
2, 301462, Note_on_c, 2, 37, 0
2, 301768, Note_on_c, 2, 30, 110
2, 301770, Note_on_c, 2, 38, 0
2, 302428, Note_on_c, 2, 30, 0
2, 302451, Note_on_c, 2, 31, 100
2, 302786, Note_on_c, 2, 32, 86
2, 302804, Note_on_c, 2, 31, 0
2, 302893, Note_on_c, 2, 32, 0
2, 302932, Note_on_c, 2, 33, 85
2, 303187, Note_on_c, 2, 33, 0
2, 303253, Note_on_c, 2, 32, 61
2, 303344, Note_on_c, 2, 32, 0
2, 303407, Note_on_c, 2, 31, 90
2, 303731, Note_on_c, 2, 45, 103
2, 303791, Note_on_c, 2, 31, 0
2, 303857, Note_on_c, 2, 45, 0
2, 303906, Note_on_c, 2, 44, 78
2, 304203, Note_on_c, 2, 31, 81
2, 304264, Note_on_c, 2, 44, 0
2, 304265, Note_on_c, 2, 31, 0
2, 304352, Note_on_c, 2, 43, 72
2, 304435, Note_on_c, 2, 43, 0
2, 304651, Note_on_c, 2, 34, 75
2, 304783, Note_on_c, 2, 34, 0
2, 304818, Note_on_c, 2, 35, 71
2, 305254, Note_on_c, 2, 35, 0
2, 305277, Note_on_c, 2, 36, 73
2, 306197, Note_on_c, 2, 36, 0
2, 306210, Note_on_c, 2, 33, 80
2, 307179, Note_on_c, 2, 33, 0
2, 307188, Note_on_c, 2, 38, 68
2, 307243, Note_on_c, 2, 38, 0
2, 307514, Note_on_c, 2, 33, 75
2, 307599, Note_on_c, 2, 33, 0
2, 307663, Note_on_c, 2, 32, 76
2, 308090, Note_on_c, 2, 32, 0
2, 308137, Note_on_c, 2, 31, 58
2, 308960, Note_on_c, 2, 36, 58
2, 309047, Note_on_c, 2, 31, 0
2, 309064, Note_on_c, 2, 36, 0
2, 309111, Note_on_c, 2, 40, 88
2, 309436, Note_on_c, 2, 34, 105
2, 309446, Note_on_c, 2, 40, 0
2, 310041, Note_on_c, 2, 34, 0
2, 310083, Note_on_c, 2, 33, 82
2, 310186, Note_on_c, 2, 33, 0
2, 310397, Note_on_c, 2, 40, 82
2, 310515, Note_on_c, 2, 40, 0
2, 310561, Note_on_c, 2, 39, 78
2, 310803, Note_on_c, 2, 39, 0
2, 310868, Note_on_c, 2, 37, 72
2, 311007, Note_on_c, 2, 37, 0
2, 311032, Note_on_c, 2, 38, 87
2, 311354, Note_on_c, 2, 48, 101
2, 311471, Note_on_c, 2, 48, 0
2, 311501, Note_on_c, 2, 38, 0
2, 311535, Note_on_c, 2, 45, 72
2, 311723, Note_on_c, 2, 45, 0
2, 311834, Note_on_c, 2, 44, 78
2, 311959, Note_on_c, 2, 44, 0
2, 312007, Note_on_c, 2, 43, 70
2, 312069, Note_on_c, 2, 43, 0
2, 312154, Note_on_c, 2, 38, 68
2, 312238, Note_on_c, 2, 38, 0
2, 312316, Note_on_c, 2, 31, 93
2, 312423, Note_on_c, 2, 31, 0
2, 312470, Note_on_c, 2, 35, 92
2, 312919, Note_on_c, 2, 35, 0
2, 312947, Note_on_c, 2, 36, 120
2, 315079, Note_on_c, 2, 36, 0
2, 315079, End_track
3, 0, Start_track
3, 0, MIDI_port, 1
3, 0, Title_t, ""
3, 0, Program_c, 0, 0
3, 0, Control_c, 0, 7, 93
3, 0, Note_on_c, 0, 51, 30
3, 15, Note_on_c, 0, 51, 0
3, 26, Note_on_c, 0, 57, 58
3, 27, Note_on_c, 0, 62, 49
3, 31, Note_on_c, 0, 67, 41
3, 40, Note_on_c, 0, 52, 33
3, 370, Note_on_c, 0, 57, 0
3, 376, Note_on_c, 0, 52, 0
3, 386, Note_on_c, 0, 67, 0
3, 388, Note_on_c, 0, 62, 0
3, 390, Note_on_c, 0, 51, 44
3, 511, Note_on_c, 0, 67, 35
3, 517, Note_on_c, 0, 62, 36
3, 522, Note_on_c, 0, 51, 0
3, 523, Note_on_c, 0, 52, 36
3, 524, Note_on_c, 0, 57, 52
3, 773, Control_c, 0, 64, 127
3, 831, Note_on_c, 0, 57, 0
3, 832, Note_on_c, 0, 62, 0
3, 854, Note_on_c, 0, 67, 0
3, 895, Note_on_c, 0, 52, 0
3, 942, Control_c, 0, 64, 0
3, 1001, Note_on_c, 0, 58, 48
3, 1002, Note_on_c, 0, 67, 51
3, 1009, Note_on_c, 0, 64, 45
3, 1010, Note_on_c, 0, 52, 41
3, 1017, Note_on_c, 0, 61, 40
3, 1513, Note_on_c, 0, 64, 0
3, 1519, Control_c, 0, 64, 127
3, 1520, Note_on_c, 0, 67, 0
3, 1606, Note_on_c, 0, 58, 0
3, 1617, Note_on_c, 0, 61, 0
3, 1681, Control_c, 0, 64, 0
3, 1731, Note_on_c, 0, 52, 0
3, 1760, Note_on_c, 0, 51, 67
3, 1767, Note_on_c, 0, 66, 60
3, 1770, Note_on_c, 0, 58, 69
3, 1777, Note_on_c, 0, 63, 57
3, 1778, Note_on_c, 0, 61, 64
3, 1792, Control_c, 0, 64, 127
3, 1879, Note_on_c, 0, 61, 0
3, 1904, Control_c, 0, 64, 0
3, 1905, Note_on_c, 0, 58, 0
3, 1927, Note_on_c, 0, 63, 0
3, 1929, Note_on_c, 0, 66, 0
3, 1962, Note_on_c, 0, 51, 0
3, 1975, Note_on_c, 0, 67, 54
3, 1981, Note_on_c, 0, 60, 54
3, 1991, Note_on_c, 0, 52, 48
3, 1999, Note_on_c, 0, 57, 44
3, 2113, Control_c, 0, 64, 127
3, 2191, Note_on_c, 0, 67, 0
3, 2205, Note_on_c, 0, 60, 0
3, 2221, Note_on_c, 0, 57, 0
3, 2282, Control_c, 0, 64, 0
3, 2289, Note_on_c, 0, 65, 57
3, 2297, Note_on_c, 0, 52, 0
3, 2298, Note_on_c, 0, 60, 60
3, 2301, Note_on_c, 0, 57, 50
3, 2305, Note_on_c, 0, 50, 61
3, 2333, Note_on_c, 0, 57, 0
3, 2361, Note_on_c, 0, 60, 0
3, 2369, Note_on_c, 0, 65, 0
3, 2375, Note_on_c, 0, 50, 0
3, 2730, Note_on_c, 0, 65, 54
3, 2736, Note_on_c, 0, 60, 51
3, 2738, Note_on_c, 0, 57, 40
3, 2743, Note_on_c, 0, 50, 51
3, 2939, Control_c, 0, 64, 127
3, 3546, Note_on_c, 0, 65, 0
3, 3591, Note_on_c, 0, 57, 0
3, 3655, Note_on_c, 0, 60, 0
3, 3773, Note_on_c, 0, 50, 0
3, 3787, Note_on_c, 0, 43, 41
3, 3798, Control_c, 0, 64, 0
3, 3878, Control_c, 0, 64, 127
3, 4119, Note_on_c, 0, 53, 65
3, 4122, Note_on_c, 0, 65, 82
3, 4130, Note_on_c, 0, 60, 78
3, 4137, Note_on_c, 0, 57, 80
3, 4195, Note_on_c, 0, 60, 0
3, 4229, Note_on_c, 0, 43, 0
3, 4245, Note_on_c, 0, 57, 0
3, 4273, Note_on_c, 0, 65, 0
3, 4282, Note_on_c, 0, 53, 0
3, 4327, Control_c, 0, 64, 0
3, 4338, Note_on_c, 0, 52, 45
3, 4366, Note_on_c, 0, 64, 32
3, 4370, Note_on_c, 0, 58, 30
3, 4373, Note_on_c, 0, 55, 40
3, 4453, Note_on_c, 0, 55, 0
3, 4464, Control_c, 0, 64, 127
3, 4500, Note_on_c, 0, 58, 0
3, 4519, Note_on_c, 0, 64, 0
3, 4568, Note_on_c, 0, 52, 0
3, 4618, Note_on_c, 0, 65, 67
3, 4638, Note_on_c, 0, 53, 46
3, 4665, Note_on_c, 0, 53, 0
3, 4669, Note_on_c, 0, 64, 24
3, 4681, Note_on_c, 0, 65, 0
3, 4695, Note_on_c, 0, 64, 0
3, 4785, Control_c, 0, 64, 0
3, 4852, Note_on_c, 0, 64, 59
3, 4854, Note_on_c, 0, 74, 64
3, 4868, Note_on_c, 0, 65, 41
3, 4879, Note_on_c, 0, 64, 0
3, 4897, Note_on_c, 0, 65, 0
3, 4910, Note_on_c, 0, 74, 0
3, 5026, Control_c, 0, 64, 127
3, 5202, Control_c, 0, 64, 0
3, 5330, Control_c, 0, 64, 127
3, 5498, Control_c, 0, 64, 0
3, 5538, Control_c, 0, 64, 127
3, 5567, Note_on_c, 0, 53, 54
3, 5569, Note_on_c, 0, 57, 66
3, 5570, Note_on_c, 0, 65, 64
3, 5571, Note_on_c, 0, 60, 60
3, 5575, Note_on_c, 0, 62, 44
3, 5640, Note_on_c, 0, 57, 0
3, 5649, Note_on_c, 0, 53, 0
3, 5662, Note_on_c, 0, 65, 0
3, 5695, Note_on_c, 0, 60, 0
3, 5714, Note_on_c, 0, 62, 0
3, 5811, Control_c, 0, 64, 0
3, 5860, Note_on_c, 0, 56, 52
3, 5864, Note_on_c, 0, 65, 57
3, 5866, Note_on_c, 0, 60, 55
3, 5869, Note_on_c, 0, 53, 49
3, 5871, Note_on_c, 0, 62, 46
3, 6004, Control_c, 0, 64, 127
3, 6064, Note_on_c, 0, 56, 0
3, 6071, Note_on_c, 0, 65, 0
3, 6086, Note_on_c, 0, 62, 0
3, 6103, Note_on_c, 0, 60, 0
3, 6188, Note_on_c, 0, 53, 0
3, 6205, Control_c, 0, 64, 0
3, 6212, Note_on_c, 0, 58, 51
3, 6216, Note_on_c, 0, 51, 43
3, 6221, Note_on_c, 0, 63, 35
3, 6231, Note_on_c, 0, 54, 28
3, 6397, Control_c, 0, 64, 127
3, 6455, Note_on_c, 0, 58, 0
3, 6464, Note_on_c, 0, 54, 0
3, 6478, Note_on_c, 0, 63, 0
3, 6551, Note_on_c, 0, 51, 0
3, 6551, Control_c, 0, 64, 0
3, 6558, Note_on_c, 0, 64, 41
3, 6559, Note_on_c, 0, 59, 47
3, 6562, Note_on_c, 0, 55, 35
3, 6566, Note_on_c, 0, 52, 51
3, 6727, Control_c, 0, 64, 127
3, 6883, Note_on_c, 0, 55, 0
3, 6942, Note_on_c, 0, 52, 0
3, 6970, Note_on_c, 0, 64, 0
3, 6977, Note_on_c, 0, 59, 0
3, 7506, Note_on_c, 0, 64, 80
3, 7515, Note_on_c, 0, 89, 91
3, 7518, Note_on_c, 0, 55, 66
3, 7520, Note_on_c, 0, 60, 54
3, 7522, Note_on_c, 0, 77, 89
3, 7535, Note_on_c, 0, 57, 57
3, 7618, Note_on_c, 0, 89, 0
3, 7639, Note_on_c, 0, 77, 0
3, 7647, Note_on_c, 0, 55, 0
3, 7662, Note_on_c, 0, 64, 0
3, 7674, Note_on_c, 0, 57, 0
3, 7682, Note_on_c, 0, 60, 0
3, 7737, Control_c, 0, 64, 0
3, 7741, Note_on_c, 0, 87, 61
3, 7742, Note_on_c, 0, 75, 61
3, 7746, Note_on_c, 0, 55, 50
3, 7752, Note_on_c, 0, 57, 51
3, 7757, Note_on_c, 0, 64, 50
3, 7759, Note_on_c, 0, 60, 66
3, 7871, Note_on_c, 0, 87, 0
3, 7893, Note_on_c, 0, 75, 0
3, 7906, Note_on_c, 0, 88, 32
3, 7915, Note_on_c, 0, 76, 18
3, 8035, Note_on_c, 0, 88, 0
3, 8063, Note_on_c, 0, 76, 0
3, 8068, Note_on_c, 0, 55, 0
3, 8076, Note_on_c, 0, 64, 0
3, 8079, Note_on_c, 0, 57, 0
3, 8087, Note_on_c, 0, 60, 0
3, 8426, Control_c, 0, 64, 127
3, 8611, Control_c, 0, 64, 0
3, 8689, Note_on_c, 0, 76, 44
3, 8690, Note_on_c, 0, 64, 34
3, 8690, Note_on_c, 0, 88, 50
3, 8698, Note_on_c, 0, 55, 36
3, 8701, Note_on_c, 0, 57, 42
3, 8706, Note_on_c, 0, 60, 41
3, 8812, Control_c, 0, 64, 127
3, 9050, Note_on_c, 0, 76, 0
3, 9079, Note_on_c, 0, 88, 0
3, 9080, Note_on_c, 0, 60, 0
3, 9082, Note_on_c, 0, 64, 0
3, 9135, Note_on_c, 0, 55, 0
3, 9226, Note_on_c, 0, 57, 0
3, 9609, Note_on_c, 0, 64, 47
3, 9611, Note_on_c, 0, 76, 46
3, 9614, Control_c, 0, 64, 0
3, 9617, Note_on_c, 0, 54, 44
3, 9623, Note_on_c, 0, 60, 35
3, 9623, Note_on_c, 0, 80, 38
3, 9629, Note_on_c, 0, 88, 36
3, 9639, Note_on_c, 0, 83, 32
3, 9759, Note_on_c, 0, 88, 0
3, 9770, Note_on_c, 0, 83, 0
3, 9774, Note_on_c, 0, 60, 0
3, 9775, Note_on_c, 0, 64, 0
3, 9778, Note_on_c, 0, 80, 0
3, 9783, Note_on_c, 0, 76, 0
3, 9786, Note_on_c, 0, 54, 0
3, 10080, Note_on_c, 0, 87, 38
3, 10080, Note_on_c, 0, 64, 42
3, 10082, Note_on_c, 0, 54, 43
3, 10082, Note_on_c, 0, 75, 33
3, 10087, Note_on_c, 0, 80, 34
3, 10087, Note_on_c, 0, 60, 36
3, 10234, Note_on_c, 0, 80, 0
3, 10246, Note_on_c, 0, 60, 0
3, 10253, Note_on_c, 0, 75, 0
3, 10255, Note_on_c, 0, 54, 0
3, 10256, Note_on_c, 0, 64, 0
3, 10257, Note_on_c, 0, 87, 0
3, 10562, Note_on_c, 0, 86, 44
3, 10564, Note_on_c, 0, 74, 36
3, 10570, Note_on_c, 0, 64, 40
3, 10576, Note_on_c, 0, 60, 44
3, 10577, Note_on_c, 0, 80, 34
3, 10579, Note_on_c, 0, 54, 38
3, 10715, Control_c, 0, 64, 127
3, 10939, Note_on_c, 0, 86, 0
3, 10982, Note_on_c, 0, 80, 0
3, 10994, Note_on_c, 0, 64, 0
3, 11001, Note_on_c, 0, 60, 0
3, 11018, Note_on_c, 0, 74, 0
3, 11154, Note_on_c, 0, 54, 0
3, 11449, Note_on_c, 0, 56, 38
3, 11518, Note_on_c, 0, 56, 0
3, 11526, Control_c, 0, 64, 0
3, 11533, Note_on_c, 0, 57, 68
3, 11535, Note_on_c, 0, 72, 74
3, 11537, Note_on_c, 0, 62, 76
3, 11541, Note_on_c, 0, 65, 73
3, 11546, Note_on_c, 0, 69, 66
3, 11654, Control_c, 0, 64, 127
3, 11734, Note_on_c, 0, 72, 0
3, 11766, Note_on_c, 0, 62, 0
3, 11822, Note_on_c, 0, 65, 0
3, 11831, Note_on_c, 0, 69, 0
3, 11832, Note_on_c, 0, 57, 0
3, 11859, Note_on_c, 0, 59, 55
3, 11871, Note_on_c, 0, 74, 70
3, 11873, Note_on_c, 0, 65, 65
3, 11900, Note_on_c, 0, 69, 35
3, 11953, Note_on_c, 0, 74, 0
3, 12007, Note_on_c, 0, 59, 0
3, 12007, Note_on_c, 0, 69, 0
3, 12023, Control_c, 0, 64, 0
3, 12037, Note_on_c, 0, 72, 36
3, 12038, Note_on_c, 0, 62, 46
3, 12045, Note_on_c, 0, 57, 44
3, 12151, Control_c, 0, 64, 127
3, 12172, Note_on_c, 0, 72, 0
3, 12208, Note_on_c, 0, 65, 0
3, 12226, Note_on_c, 0, 62, 0
3, 12286, Note_on_c, 0, 57, 0
3, 12327, Note_on_c, 0, 71, 44
3, 12335, Note_on_c, 0, 65, 69
3, 12338, Note_on_c, 0, 62, 36
3, 12342, Note_on_c, 0, 55, 53
3, 12362, Note_on_c, 0, 65, 0
3, 12370, Note_on_c, 0, 62, 0
3, 12375, Control_c, 0, 64, 0
3, 12378, Note_on_c, 0, 55, 0
3, 12389, Note_on_c, 0, 71, 0
3, 12543, Note_on_c, 0, 66, 27
3, 12568, Control_c, 0, 64, 127
3, 12574, Note_on_c, 0, 66, 0
3, 12785, Note_on_c, 0, 69, 56
3, 12786, Note_on_c, 0, 64, 57
3, 12792, Note_on_c, 0, 59, 42
3, 12796, Note_on_c, 0, 53, 51
3, 12802, Note_on_c, 0, 43, 36
3, 12809, Control_c, 0, 64, 0
3, 12970, Control_c, 0, 64, 127
3, 13155, Note_on_c, 0, 69, 0
3, 13170, Note_on_c, 0, 64, 0
3, 13252, Note_on_c, 0, 53, 0
3, 13273, Note_on_c, 0, 59, 0
3, 13290, Note_on_c, 0, 50, 38
3, 13396, Note_on_c, 0, 50, 0
3, 13410, Control_c, 0, 64, 0
3, 13423, Note_on_c, 0, 62, 58
3, 13424, Note_on_c, 0, 52, 47
3, 13425, Note_on_c, 0, 67, 53
3, 13426, Note_on_c, 0, 43, 0
3, 13428, Note_on_c, 0, 57, 60
3, 13523, Control_c, 0, 64, 127
3, 13577, Note_on_c, 0, 57, 0
3, 13597, Note_on_c, 0, 67, 0
3, 13615, Note_on_c, 0, 62, 0
3, 13673, Note_on_c, 0, 52, 0
3, 13905, Note_on_c, 0, 70, 75
3, 13906, Note_on_c, 0, 55, 73
3, 13907, Note_on_c, 0, 61, 82
3, 13907, Note_on_c, 0, 66, 76
3, 13924, Control_c, 0, 64, 0
3, 14069, Control_c, 0, 64, 127
3, 14245, Note_on_c, 0, 55, 0
3, 14295, Note_on_c, 0, 66, 0
3, 14302, Note_on_c, 0, 70, 0
3, 14353, Note_on_c, 0, 61, 0
3, 14411, Note_on_c, 0, 69, 53
3, 14415, Note_on_c, 0, 53, 42
3, 14422, Control_c, 0, 64, 0
3, 14424, Note_on_c, 0, 65, 54
3, 14433, Note_on_c, 0, 60, 42
3, 14574, Control_c, 0, 64, 127
3, 14649, Note_on_c, 0, 69, 0
3, 14711, Note_on_c, 0, 65, 0
3, 14746, Note_on_c, 0, 60, 0
3, 14783, Note_on_c, 0, 53, 0
3, 14796, Note_on_c, 0, 43, 37
3, 14865, Note_on_c, 0, 53, 58
3, 14867, Note_on_c, 0, 68, 53
3, 14870, Note_on_c, 0, 64, 62
3, 14871, Control_c, 0, 64, 0
3, 14879, Note_on_c, 0, 59, 50
3, 15015, Control_c, 0, 64, 127
3, 15066, Note_on_c, 0, 64, 0
3, 15127, Note_on_c, 0, 68, 0
3, 15228, Note_on_c, 0, 59, 0
3, 15239, Note_on_c, 0, 53, 0
3, 15250, Note_on_c, 0, 50, 47
3, 15308, Note_on_c, 0, 50, 0
3, 15353, Control_c, 0, 64, 0
3, 15354, Note_on_c, 0, 67, 42
3, 15354, Note_on_c, 0, 62, 47
3, 15362, Note_on_c, 0, 57, 44
3, 15375, Note_on_c, 0, 52, 34
3, 15486, Note_on_c, 0, 62, 0
3, 15609, Control_c, 0, 64, 127
3, 15662, Note_on_c, 0, 67, 0
3, 15666, Note_on_c, 0, 57, 0
3, 15687, Note_on_c, 0, 52, 0
3, 15695, Note_on_c, 0, 51, 37
3, 15810, Control_c, 0, 64, 0
3, 15828, Note_on_c, 0, 51, 0
3, 15846, Note_on_c, 0, 67, 34
3, 15847, Note_on_c, 0, 62, 40
3, 15849, Note_on_c, 0, 52, 48
3, 15858, Note_on_c, 0, 57, 36
3, 15897, Note_on_c, 0, 43, 0
3, 15946, Control_c, 0, 64, 127
3, 16033, Note_on_c, 0, 62, 0
3, 16041, Note_on_c, 0, 67, 0
3, 16052, Note_on_c, 0, 57, 0
3, 16087, Note_on_c, 0, 52, 0
3, 16154, Note_on_c, 0, 67, 49
3, 16166, Note_on_c, 0, 58, 53
3, 16167, Note_on_c, 0, 64, 59
3, 16169, Note_on_c, 0, 61, 57
3, 16182, Note_on_c, 0, 55, 75
3, 16210, Control_c, 0, 64, 0
3, 16308, Note_on_c, 0, 64, 0
3, 16335, Note_on_c, 0, 58, 0
3, 16340, Note_on_c, 0, 67, 0
3, 16352, Note_on_c, 0, 61, 0
3, 16375, Note_on_c, 0, 55, 0
3, 16391, Note_on_c, 0, 64, 37
3, 16414, Note_on_c, 0, 52, 24
3, 16415, Note_on_c, 0, 58, 25
3, 16421, Note_on_c, 0, 61, 23
3, 16628, Control_c, 0, 64, 127
3, 16631, Note_on_c, 0, 61, 0
3, 16642, Note_on_c, 0, 58, 0
3, 16710, Note_on_c, 0, 64, 0
3, 16732, Control_c, 0, 64, 0
3, 16750, Note_on_c, 0, 52, 0
3, 16793, Note_on_c, 0, 58, 35
3, 16796, Note_on_c, 0, 61, 49
3, 16800, Note_on_c, 0, 49, 46
3, 16933, Control_c, 0, 64, 127
3, 17026, Note_on_c, 0, 61, 0
3, 17036, Note_on_c, 0, 58, 0
3, 17100, Note_on_c, 0, 49, 0
3, 17127, Note_on_c, 0, 57, 31
3, 17128, Note_on_c, 0, 60, 45
3, 17130, Note_on_c, 0, 65, 45
3, 17134, Control_c, 0, 64, 0
3, 17143, Note_on_c, 0, 50, 47
3, 17302, Control_c, 0, 64, 127
3, 17510, Note_on_c, 0, 57, 0
3, 17561, Note_on_c, 0, 50, 0
3, 17589, Note_on_c, 0, 60, 0
3, 17601, Note_on_c, 0, 65, 0
3, 18089, Note_on_c, 0, 85, 69
3, 18090, Note_on_c, 0, 65, 69
3, 18095, Note_on_c, 0, 55, 54
3, 18095, Note_on_c, 0, 60, 58
3, 18096, Note_on_c, 0, 57, 54
3, 18098, Note_on_c, 0, 79, 58
3, 18104, Note_on_c, 0, 91, 54
3, 18138, Control_c, 0, 64, 0
3, 18234, Note_on_c, 0, 85, 0
3, 18258, Note_on_c, 0, 55, 0
3, 18265, Note_on_c, 0, 79, 0
3, 18276, Note_on_c, 0, 65, 0
3, 18279, Note_on_c, 0, 57, 0
3, 18290, Note_on_c, 0, 60, 0
3, 18291, Note_on_c, 0, 91, 0
3, 18399, Note_on_c, 0, 89, 54
3, 18405, Note_on_c, 0, 65, 55
3, 18412, Note_on_c, 0, 60, 47
3, 18416, Note_on_c, 0, 55, 37
3, 18420, Note_on_c, 0, 57, 45
3, 18420, Note_on_c, 0, 84, 38
3, 18423, Note_on_c, 0, 77, 30
3, 18503, Note_on_c, 0, 55, 0
3, 18516, Note_on_c, 0, 77, 0
3, 18520, Note_on_c, 0, 84, 0
3, 18522, Note_on_c, 0, 65, 0
3, 18527, Note_on_c, 0, 57, 0
3, 18538, Note_on_c, 0, 60, 0
3, 18543, Note_on_c, 0, 89, 0
3, 18724, Note_on_c, 0, 89, 45
3, 18728, Note_on_c, 0, 65, 57
3, 18731, Note_on_c, 0, 55, 45
3, 18736, Note_on_c, 0, 60, 45
3, 18740, Note_on_c, 0, 77, 31
3, 18741, Note_on_c, 0, 57, 50
3, 18749, Note_on_c, 0, 84, 37
3, 18796, Control_c, 0, 64, 127
3, 18838, Note_on_c, 0, 84, 0
3, 18868, Note_on_c, 0, 60, 0
3, 18871, Note_on_c, 0, 89, 0
3, 18882, Note_on_c, 0, 77, 0
3, 18884, Note_on_c, 0, 65, 0
3, 18889, Note_on_c, 0, 57, 0
3, 18893, Note_on_c, 0, 55, 0
3, 19059, Note_on_c, 0, 59, 40
3, 19060, Note_on_c, 0, 89, 44
3, 19061, Note_on_c, 0, 64, 52
3, 19063, Control_c, 0, 64, 0
3, 19068, Note_on_c, 0, 77, 31
3, 19079, Note_on_c, 0, 53, 40
3, 19082, Note_on_c, 0, 84, 34
3, 19207, Control_c, 0, 64, 127
3, 19255, Note_on_c, 0, 89, 0
3, 19283, Note_on_c, 0, 84, 0
3, 19299, Note_on_c, 0, 64, 0
3, 19317, Note_on_c, 0, 77, 0
3, 19319, Note_on_c, 0, 59, 0
3, 19378, Note_on_c, 0, 53, 0
3, 19474, Note_on_c, 0, 65, 53
3, 19526, Note_on_c, 0, 53, 59
3, 19577, Note_on_c, 0, 57, 36
3, 19586, Note_on_c, 0, 53, 0
3, 19588, Note_on_c, 0, 52, 57
3, 19654, Note_on_c, 0, 57, 0
3, 19654, Note_on_c, 0, 65, 0
3, 19750, Note_on_c, 0, 55, 24
3, 19768, Control_c, 0, 64, 0
3, 19783, Note_on_c, 0, 64, 53
3, 19811, Note_on_c, 0, 55, 0
3, 19820, Note_on_c, 0, 52, 0
3, 19963, Note_on_c, 0, 64, 0
3, 20021, Note_on_c, 0, 59, 55
3, 20031, Note_on_c, 0, 55, 69
3, 20040, Note_on_c, 0, 65, 37
3, 20047, Note_on_c, 0, 59, 0
3, 20063, Note_on_c, 0, 55, 0
3, 20100, Note_on_c, 0, 65, 0
3, 20238, Note_on_c, 0, 73, 37
3, 20350, Note_on_c, 0, 73, 0
3, 20458, Note_on_c, 0, 74, 71
3, 20460, Note_on_c, 0, 62, 65
3, 20461, Note_on_c, 0, 64, 45
3, 20462, Note_on_c, 0, 68, 81
3, 20478, Note_on_c, 0, 65, 74
3, 20487, Note_on_c, 0, 64, 0
3, 20505, Note_on_c, 0, 65, 0
3, 20508, Note_on_c, 0, 62, 0
3, 20521, Note_on_c, 0, 68, 0
3, 20525, Note_on_c, 0, 74, 0
3, 20771, Note_on_c, 0, 65, 52
3, 20776, Note_on_c, 0, 56, 50
3, 20785, Note_on_c, 0, 62, 34
3, 20789, Note_on_c, 0, 60, 53
3, 20807, Note_on_c, 0, 53, 44
3, 20820, Note_on_c, 0, 60, 0
3, 20857, Note_on_c, 0, 56, 0
3, 20871, Note_on_c, 0, 65, 0
3, 20872, Note_on_c, 0, 53, 0
3, 20875, Note_on_c, 0, 62, 0
3, 20924, Control_c, 0, 64, 127
3, 21060, Control_c, 0, 64, 0
3, 21075, Note_on_c, 0, 52, 44
3, 21104, Note_on_c, 0, 56, 57
3, 21114, Note_on_c, 0, 52, 0
3, 21117, Note_on_c, 0, 65, 59
3, 21118, Note_on_c, 0, 60, 60
3, 21119, Note_on_c, 0, 62, 46
3, 21124, Note_on_c, 0, 53, 53
3, 21293, Control_c, 0, 64, 127
3, 21328, Note_on_c, 0, 65, 0
3, 21335, Note_on_c, 0, 62, 0
3, 21396, Note_on_c, 0, 60, 0
3, 21420, Note_on_c, 0, 56, 0
3, 21530, Note_on_c, 0, 53, 0
3, 21542, Control_c, 0, 64, 0
3, 21570, Note_on_c, 0, 54, 38
3, 21570, Note_on_c, 0, 51, 48
3, 21577, Note_on_c, 0, 63, 32
3, 21751, Control_c, 0, 64, 127
3, 21786, Note_on_c, 0, 54, 0
3, 21791, Note_on_c, 0, 63, 0
3, 21890, Note_on_c, 0, 51, 0
3, 21908, Note_on_c, 0, 55, 40
3, 21911, Control_c, 0, 64, 0
3, 21914, Note_on_c, 0, 59, 40
3, 21914, Note_on_c, 0, 64, 43
3, 21919, Note_on_c, 0, 52, 39
3, 22119, Control_c, 0, 64, 127
3, 22212, Note_on_c, 0, 55, 0
3, 22286, Note_on_c, 0, 59, 0
3, 22306, Note_on_c, 0, 52, 0
3, 22326, Note_on_c, 0, 64, 0
3, 22898, Note_on_c, 0, 79, 63
3, 22979, Note_on_c, 0, 79, 0
3, 23059, Note_on_c, 0, 76, 45
3, 23063, Note_on_c, 0, 64, 33
3, 23071, Note_on_c, 0, 55, 36
3, 23074, Note_on_c, 0, 60, 40
3, 23077, Note_on_c, 0, 72, 36
3, 23078, Note_on_c, 0, 67, 39
3, 23082, Control_c, 0, 64, 0
3, 23370, Control_c, 0, 64, 127
3, 23652, Note_on_c, 0, 60, 0
3, 23656, Note_on_c, 0, 64, 0
3, 23663, Note_on_c, 0, 55, 0
3, 23751, Note_on_c, 0, 67, 0
3, 23781, Note_on_c, 0, 72, 0
3, 23794, Note_on_c, 0, 76, 0
3, 24006, Control_c, 0, 64, 0
3, 24017, Note_on_c, 0, 64, 51
3, 24030, Note_on_c, 0, 60, 53
3, 24035, Note_on_c, 0, 59, 51
3, 24038, Note_on_c, 0, 55, 31
3, 24257, Note_on_c, 0, 55, 0
3, 24280, Note_on_c, 0, 59, 0
3, 24286, Control_c, 0, 64, 127
3, 24288, Note_on_c, 0, 64, 0
3, 24289, Note_on_c, 0, 60, 0
3, 24354, Note_on_c, 0, 64, 62
3, 24372, Note_on_c, 0, 60, 47
3, 24378, Note_on_c, 0, 59, 37
3, 24385, Note_on_c, 0, 55, 17
3, 24400, Note_on_c, 0, 60, 0
3, 24408, Note_on_c, 0, 59, 0
3, 24414, Control_c, 0, 64, 0
3, 24421, Note_on_c, 0, 55, 0
3, 24422, Note_on_c, 0, 64, 0
3, 24719, Control_c, 0, 64, 127
3, 24919, Control_c, 0, 64, 0
3, 24970, Note_on_c, 0, 68, 48
3, 24971, Note_on_c, 0, 76, 51
3, 24973, Note_on_c, 0, 64, 57
3, 24977, Note_on_c, 0, 54, 53
3, 24983, Note_on_c, 0, 71, 34
3, 24985, Note_on_c, 0, 60, 39
3, 25005, Note_on_c, 0, 74, 24
3, 25044, Note_on_c, 0, 74, 0
3, 25061, Note_on_c, 0, 68, 0
3, 25065, Note_on_c, 0, 60, 0
3, 25066, Note_on_c, 0, 64, 0
3, 25074, Note_on_c, 0, 71, 0
3, 25079, Note_on_c, 0, 54, 0
3, 25096, Note_on_c, 0, 76, 0
3, 25430, Note_on_c, 0, 74, 26
3, 25434, Note_on_c, 0, 54, 44
3, 25437, Note_on_c, 0, 64, 37
3, 25439, Note_on_c, 0, 68, 44
3, 25443, Note_on_c, 0, 71, 34
3, 25484, Note_on_c, 0, 60, 15
3, 25634, Note_on_c, 0, 64, 0
3, 25637, Note_on_c, 0, 68, 0
3, 25643, Note_on_c, 0, 60, 0
3, 25650, Note_on_c, 0, 71, 0
3, 25655, Note_on_c, 0, 54, 0
3, 25671, Note_on_c, 0, 74, 0
3, 25930, Note_on_c, 0, 74, 32
3, 25931, Note_on_c, 0, 54, 42
3, 25938, Note_on_c, 0, 68, 36
3, 25939, Note_on_c, 0, 64, 41
3, 25942, Note_on_c, 0, 60, 41
3, 25945, Note_on_c, 0, 71, 32
3, 26059, Control_c, 0, 64, 127
3, 26333, Note_on_c, 0, 60, 0
3, 26452, Note_on_c, 0, 71, 0
3, 26464, Note_on_c, 0, 64, 0
3, 26476, Note_on_c, 0, 74, 0
3, 26488, Note_on_c, 0, 68, 0
3, 26567, Note_on_c, 0, 54, 0
3, 26869, Control_c, 0, 64, 0
3, 26874, Note_on_c, 0, 57, 68
3, 26880, Note_on_c, 0, 72, 74
3, 26883, Note_on_c, 0, 69, 73
3, 26884, Note_on_c, 0, 62, 81
3, 26886, Note_on_c, 0, 65, 81
3, 27047, Control_c, 0, 64, 127
3, 27085, Note_on_c, 0, 72, 0
3, 27087, Note_on_c, 0, 62, 0
3, 27146, Note_on_c, 0, 65, 0
3, 27160, Note_on_c, 0, 57, 0
3, 27166, Note_on_c, 0, 69, 0
3, 27189, Note_on_c, 0, 59, 54
3, 27210, Note_on_c, 0, 65, 74
3, 27210, Note_on_c, 0, 74, 67
3, 27234, Note_on_c, 0, 69, 58
3, 27273, Note_on_c, 0, 69, 0
3, 27296, Note_on_c, 0, 74, 0
3, 27312, Note_on_c, 0, 65, 0
3, 27335, Note_on_c, 0, 59, 0
3, 27360, Control_c, 0, 64, 0
3, 27378, Note_on_c, 0, 62, 47
3, 27381, Note_on_c, 0, 57, 49
3, 27384, Note_on_c, 0, 65, 30
3, 27386, Note_on_c, 0, 72, 44
3, 27473, Control_c, 0, 64, 127
3, 27527, Note_on_c, 0, 72, 0
3, 27579, Note_on_c, 0, 65, 0
3, 27591, Note_on_c, 0, 62, 0
3, 27672, Note_on_c, 0, 62, 58
3, 27673, Note_on_c, 0, 65, 60
3, 27676, Note_on_c, 0, 57, 0
3, 27676, Note_on_c, 0, 55, 64
3, 27686, Note_on_c, 0, 71, 36
3, 27688, Note_on_c, 0, 67, 51
3, 27715, Note_on_c, 0, 67, 0
3, 27732, Note_on_c, 0, 71, 0
3, 27735, Note_on_c, 0, 55, 0
3, 27737, Note_on_c, 0, 62, 0
3, 27738, Note_on_c, 0, 65, 0
3, 27745, Control_c, 0, 64, 0
3, 27914, Control_c, 0, 64, 127
3, 28186, Note_on_c, 0, 56, 67
3, 28193, Note_on_c, 0, 62, 58
3, 28200, Note_on_c, 0, 59, 64
3, 28217, Note_on_c, 0, 43, 46
3, 28220, Note_on_c, 0, 53, 58
3, 28234, Control_c, 0, 64, 0
3, 28420, Control_c, 0, 64, 127
3, 28576, Note_on_c, 0, 53, 0
3, 28588, Note_on_c, 0, 59, 0
3, 28655, Note_on_c, 0, 56, 0
3, 28665, Note_on_c, 0, 50, 37
3, 28719, Note_on_c, 0, 62, 0
3, 28734, Note_on_c, 0, 50, 0
3, 28789, Note_on_c, 0, 52, 45
3, 28792, Note_on_c, 0, 55, 40
3, 28795, Note_on_c, 0, 60, 40
3, 28797, Control_c, 0, 64, 0
3, 28807, Note_on_c, 0, 57, 50
3, 28809, Note_on_c, 0, 43, 0
3, 29061, Control_c, 0, 64, 127
3, 29085, Control_c, 0, 64, 0
3, 29106, Note_on_c, 0, 43, 67
3, 29350, Control_c, 0, 64, 127
3, 30165, Note_on_c, 0, 55, 0
3, 30183, Note_on_c, 0, 43, 0
3, 30223, Note_on_c, 0, 52, 0
3, 30226, Note_on_c, 0, 57, 0
3, 30272, Note_on_c, 0, 60, 0
3, 30706, Note_on_c, 0, 60, 54
3, 30712, Note_on_c, 0, 58, 48
3, 30716, Note_on_c, 0, 53, 38
3, 30722, Control_c, 0, 64, 0
3, 30772, Note_on_c, 0, 53, 0
3, 30774, Note_on_c, 0, 60, 0
3, 30790, Note_on_c, 0, 58, 0
3, 31093, Note_on_c, 0, 82, 30
3, 31120, Note_on_c, 0, 82, 0
3, 31202, Note_on_c, 0, 82, 79
3, 31207, Note_on_c, 0, 70, 79
3, 31434, Note_on_c, 0, 70, 0
3, 31461, Note_on_c, 0, 82, 0
3, 31564, Note_on_c, 0, 84, 73
3, 31565, Note_on_c, 0, 72, 74
3, 31685, Note_on_c, 0, 72, 0
3, 31688, Note_on_c, 0, 84, 0
3, 31858, Note_on_c, 0, 85, 65
3, 31859, Note_on_c, 0, 73, 62
3, 31898, Note_on_c, 0, 86, 48
3, 31924, Note_on_c, 0, 85, 0
3, 31941, Control_c, 0, 64, 127
3, 31951, Note_on_c, 0, 73, 0
3, 31954, Note_on_c, 0, 74, 40
3, 32031, Note_on_c, 0, 86, 0
3, 32061, Note_on_c, 0, 74, 0
3, 32156, Note_on_c, 0, 70, 35
3, 32160, Note_on_c, 0, 64, 45
3, 32164, Note_on_c, 0, 84, 65
3, 32174, Control_c, 0, 64, 0
3, 32192, Note_on_c, 0, 58, 37
3, 32214, Note_on_c, 0, 52, 44
3, 32326, Control_c, 0, 64, 127
3, 32383, Note_on_c, 0, 82, 65
3, 32457, Note_on_c, 0, 52, 0
3, 32514, Note_on_c, 0, 58, 0
3, 32516, Note_on_c, 0, 70, 0
3, 32520, Note_on_c, 0, 64, 0
3, 32524, Note_on_c, 0, 84, 0
3, 32671, Control_c, 0, 64, 0
3, 32684, Note_on_c, 0, 64, 36
3, 32689, Note_on_c, 0, 53, 36
3, 32690, Note_on_c, 0, 60, 45
3, 32698, Note_on_c, 0, 57, 47
3, 32743, Note_on_c, 0, 82, 0
3, 32823, Control_c, 0, 64, 127
3, 33017, Note_on_c, 0, 86, 75
3, 33019, Note_on_c, 0, 74, 66
3, 33080, Control_c, 0, 64, 0
3, 33110, Note_on_c, 0, 74, 0
3, 33114, Note_on_c, 0, 86, 0
3, 33224, Note_on_c, 0, 81, 37
3, 33313, Control_c, 0, 64, 127
3, 33328, Note_on_c, 0, 53, 0
3, 33352, Note_on_c, 0, 64, 0
3, 33389, Note_on_c, 0, 57, 0
3, 33420, Note_on_c, 0, 60, 0
3, 33433, Note_on_c, 0, 81, 0
3, 33472, Note_on_c, 0, 84, 72
3, 33477, Note_on_c, 0, 60, 49
3, 33478, Note_on_c, 0, 72, 68
3, 33479, Note_on_c, 0, 63, 67
3, 33486, Note_on_c, 0, 57, 48
3, 33487, Note_on_c, 0, 54, 54
3, 33514, Control_c, 0, 64, 0
3, 33674, Control_c, 0, 64, 127
3, 33935, Note_on_c, 0, 72, 0
3, 33937, Note_on_c, 0, 84, 0
3, 33969, Note_on_c, 0, 54, 0
3, 33972, Note_on_c, 0, 63, 0
3, 34006, Note_on_c, 0, 57, 0
3, 34069, Note_on_c, 0, 63, 46
3, 34082, Note_on_c, 0, 54, 40
3, 34087, Note_on_c, 0, 84, 58
3, 34096, Note_on_c, 0, 72, 47
3, 34098, Control_c, 0, 64, 0
3, 34113, Note_on_c, 0, 57, 28
3, 34232, Note_on_c, 0, 60, 0
3, 34267, Control_c, 0, 64, 127
3, 34289, Note_on_c, 0, 57, 0
3, 34316, Note_on_c, 0, 63, 0
3, 34317, Note_on_c, 0, 72, 0
3, 34346, Note_on_c, 0, 84, 0
3, 34410, Note_on_c, 0, 54, 0
3, 34418, Note_on_c, 0, 62, 62
3, 34424, Note_on_c, 0, 57, 37
3, 34429, Note_on_c, 0, 58, 50
3, 34431, Note_on_c, 0, 81, 36
3, 34437, Note_on_c, 0, 53, 44
3, 34464, Note_on_c, 0, 62, 0
3, 34468, Control_c, 0, 64, 0
3, 34471, Note_on_c, 0, 53, 0
3, 34476, Note_on_c, 0, 58, 0
3, 34501, Note_on_c, 0, 57, 0
3, 34511, Note_on_c, 0, 81, 0
3, 34610, Note_on_c, 0, 84, 48
3, 34641, Note_on_c, 0, 72, 29
3, 34813, Note_on_c, 0, 84, 0
3, 34846, Note_on_c, 0, 72, 0
3, 34910, Note_on_c, 0, 84, 38
3, 34920, Note_on_c, 0, 72, 39
3, 34948, Note_on_c, 0, 72, 0
3, 34969, Note_on_c, 0, 84, 0
3, 35495, Note_on_c, 0, 63, 39
3, 35497, Note_on_c, 0, 58, 42
3, 35517, Note_on_c, 0, 52, 33
3, 35555, Note_on_c, 0, 52, 0
3, 35571, Note_on_c, 0, 63, 0
3, 35579, Note_on_c, 0, 58, 0
3, 35839, Note_on_c, 0, 79, 42
3, 35900, Note_on_c, 0, 79, 0
3, 35981, Note_on_c, 0, 82, 92
3, 36191, Note_on_c, 0, 82, 0
3, 36287, Note_on_c, 0, 64, 71
3, 36295, Note_on_c, 0, 57, 66
3, 36296, Note_on_c, 0, 60, 58
3, 36309, Note_on_c, 0, 82, 79
3, 36314, Note_on_c, 0, 64, 0
3, 36343, Note_on_c, 0, 60, 0
3, 36422, Note_on_c, 0, 57, 0
3, 36483, Note_on_c, 0, 82, 0
3, 36579, Note_on_c, 0, 80, 42
3, 36634, Note_on_c, 0, 81, 69
3, 36678, Note_on_c, 0, 80, 0
3, 36690, Control_c, 0, 64, 127
3, 36724, Note_on_c, 0, 81, 0
3, 36866, Control_c, 0, 64, 0
3, 36888, Note_on_c, 0, 75, 64
3, 36938, Note_on_c, 0, 76, 58
3, 36969, Note_on_c, 0, 75, 0
3, 37075, Control_c, 0, 64, 127
3, 37147, Note_on_c, 0, 76, 0
3, 37198, Note_on_c, 0, 64, 42
3, 37210, Note_on_c, 0, 60, 36
3, 37221, Note_on_c, 0, 72, 47
3, 37223, Note_on_c, 0, 57, 44
3, 37225, Note_on_c, 0, 53, 34
3, 37236, Control_c, 0, 64, 0
3, 37453, Control_c, 0, 64, 127
3, 37930, Note_on_c, 0, 53, 0
3, 37935, Note_on_c, 0, 57, 0
3, 37945, Note_on_c, 0, 60, 0
3, 37975, Note_on_c, 0, 64, 0
3, 38218, Note_on_c, 0, 69, 56
3, 38222, Note_on_c, 0, 72, 0
3, 38353, Note_on_c, 0, 63, 35
3, 38356, Note_on_c, 0, 67, 27
3, 38362, Note_on_c, 0, 56, 30
3, 38367, Control_c, 0, 64, 0
3, 38379, Note_on_c, 0, 60, 38
3, 38381, Note_on_c, 0, 69, 0
3, 38386, Note_on_c, 0, 68, 57
3, 38905, Control_c, 0, 64, 127
3, 39000, Note_on_c, 0, 56, 0
3, 39057, Control_c, 0, 64, 0
3, 39058, Note_on_c, 0, 60, 0
3, 39058, Note_on_c, 0, 67, 0
3, 39070, Note_on_c, 0, 70, 36
3, 39103, Note_on_c, 0, 68, 0
3, 39120, Note_on_c, 0, 70, 0
3, 39137, Control_c, 0, 64, 127
3, 39249, Note_on_c, 0, 63, 0
3, 39322, Control_c, 0, 64, 0
3, 39351, Note_on_c, 0, 72, 83
3, 39357, Note_on_c, 0, 56, 53
3, 39359, Note_on_c, 0, 67, 65
3, 39362, Note_on_c, 0, 62, 68
3, 39506, Control_c, 0, 64, 127
3, 39837, Note_on_c, 0, 67, 0
3, 39907, Note_on_c, 0, 56, 0
3, 39944, Note_on_c, 0, 72, 0
3, 40001, Note_on_c, 0, 70, 59
3, 40039, Note_on_c, 0, 62, 0
3, 40097, Note_on_c, 0, 70, 0
3, 40106, Note_on_c, 0, 62, 19
3, 40106, Note_on_c, 0, 56, 39
3, 40111, Note_on_c, 0, 66, 44
3, 40131, Note_on_c, 0, 68, 55
3, 40183, Note_on_c, 0, 66, 0
3, 40194, Note_on_c, 0, 68, 0
3, 40215, Note_on_c, 0, 56, 0
3, 40242, Note_on_c, 0, 62, 0
3, 40276, Control_c, 0, 64, 0
3, 40284, Note_on_c, 0, 62, 32
3, 40295, Note_on_c, 0, 71, 74
3, 40303, Note_on_c, 0, 65, 62
3, 40318, Note_on_c, 0, 55, 51
3, 40319, Note_on_c, 0, 60, 32
3, 40346, Note_on_c, 0, 72, 58
3, 40376, Note_on_c, 0, 71, 0
3, 40582, Control_c, 0, 64, 127
3, 41020, Note_on_c, 0, 65, 0
3, 41100, Note_on_c, 0, 62, 0
3, 41145, Note_on_c, 0, 60, 0
3, 41247, Control_c, 0, 64, 0
3, 41274, Note_on_c, 0, 67, 51
3, 41290, Note_on_c, 0, 72, 0
3, 41376, Control_c, 0, 64, 127
3, 41381, Note_on_c, 0, 55, 0
3, 41519, Note_on_c, 0, 67, 0
3, 41597, Note_on_c, 0, 70, 73
3, 41612, Note_on_c, 0, 61, 39
3, 41620, Note_on_c, 0, 64, 48
3, 41627, Note_on_c, 0, 55, 35
3, 41629, Note_on_c, 0, 58, 28
3, 41648, Control_c, 0, 64, 0
3, 41785, Control_c, 0, 64, 127
3, 41885, Note_on_c, 0, 55, 0
3, 41926, Note_on_c, 0, 64, 0
3, 41939, Note_on_c, 0, 58, 0
3, 42013, Note_on_c, 0, 70, 0
3, 42027, Note_on_c, 0, 61, 0
3, 42229, Note_on_c, 0, 63, 69
3, 42232, Note_on_c, 0, 60, 58
3, 42241, Note_on_c, 0, 53, 51
3, 42242, Note_on_c, 0, 70, 85
3, 42260, Note_on_c, 0, 56, 35
3, 42282, Control_c, 0, 64, 0
3, 42423, Note_on_c, 0, 70, 0
3, 42431, Note_on_c, 0, 69, 64
3, 42529, Note_on_c, 0, 69, 0
3, 42535, Note_on_c, 0, 68, 47
3, 42558, Note_on_c, 0, 63, 0
3, 42587, Control_c, 0, 64, 127
3, 42610, Note_on_c, 0, 68, 0
3, 42634, Note_on_c, 0, 67, 35
3, 42663, Note_on_c, 0, 67, 0
3, 42682, Note_on_c, 0, 66, 56
3, 42763, Control_c, 0, 64, 0
3, 42784, Note_on_c, 0, 66, 0
3, 42808, Note_on_c, 0, 65, 54
3, 42815, Note_on_c, 0, 60, 0
3, 42817, Note_on_c, 0, 53, 0
3, 42887, Note_on_c, 0, 56, 0
3, 42911, Note_on_c, 0, 65, 0
3, 43068, Control_c, 0, 64, 127
3, 43162, Note_on_c, 0, 68, 92
3, 43173, Control_c, 0, 64, 0
3, 43174, Note_on_c, 0, 60, 62
3, 43176, Note_on_c, 0, 54, 64
3, 43180, Note_on_c, 0, 58, 49
3, 43244, Note_on_c, 0, 60, 0
3, 43278, Note_on_c, 0, 68, 0
3, 43294, Note_on_c, 0, 58, 0
3, 43310, Note_on_c, 0, 67, 50
3, 43336, Note_on_c, 0, 54, 0
3, 43394, Note_on_c, 0, 66, 50
3, 43410, Note_on_c, 0, 67, 0
3, 43413, Control_c, 0, 64, 127
3, 43479, Note_on_c, 0, 66, 0
3, 43505, Note_on_c, 0, 65, 46
3, 43583, Note_on_c, 0, 65, 0
3, 43610, Note_on_c, 0, 64, 38
3, 43670, Control_c, 0, 64, 0
3, 43678, Note_on_c, 0, 64, 0
3, 43686, Note_on_c, 0, 63, 46
3, 43823, Note_on_c, 0, 63, 0
3, 44039, Control_c, 0, 64, 127
3, 44079, Control_c, 0, 64, 0
3, 44482, Note_on_c, 0, 67, 43
3, 44482, Note_on_c, 0, 55, 68
3, 44495, Note_on_c, 0, 57, 42
3, 44500, Note_on_c, 0, 60, 46
3, 44515, Note_on_c, 0, 67, 0
3, 44518, Note_on_c, 0, 55, 0
3, 44524, Note_on_c, 0, 57, 0
3, 44527, Note_on_c, 0, 60, 0
3, 44650, Note_on_c, 0, 43, 42
3, 44695, Note_on_c, 0, 43, 0
3, 45006, Note_on_c, 0, 50, 32
3, 45055, Note_on_c, 0, 50, 0
3, 45140, Note_on_c, 0, 56, 36
3, 45153, Note_on_c, 0, 53, 42
3, 45160, Note_on_c, 0, 65, 42
3, 45163, Note_on_c, 0, 59, 38
3, 45167, Note_on_c, 0, 62, 32
3, 45258, Control_c, 0, 64, 127
3, 45378, Note_on_c, 0, 65, 0
3, 45408, Note_on_c, 0, 62, 0
3, 45418, Note_on_c, 0, 59, 0
3, 45447, Note_on_c, 0, 56, 0
3, 45453, Note_on_c, 0, 53, 0
3, 45476, Note_on_c, 0, 46, 35
3, 45541, Note_on_c, 0, 46, 0
3, 45571, Control_c, 0, 64, 0
3, 45600, Note_on_c, 0, 65, 38
3, 45616, Note_on_c, 0, 56, 52
3, 45625, Note_on_c, 0, 61, 53
3, 45639, Note_on_c, 0, 51, 56
3, 45788, Control_c, 0, 64, 127
3, 45840, Note_on_c, 0, 65, 0
3, 45867, Note_on_c, 0, 56, 0
3, 45882, Note_on_c, 0, 61, 0
3, 45915, Note_on_c, 0, 51, 0
3, 45932, Note_on_c, 0, 67, 57
3, 45949, Note_on_c, 0, 57, 55
3, 45951, Note_on_c, 0, 52, 47
3, 45952, Note_on_c, 0, 62, 53
3, 45981, Control_c, 0, 64, 0
3, 46017, Note_on_c, 0, 57, 0
3, 46018, Note_on_c, 0, 67, 0
3, 46062, Note_on_c, 0, 62, 0
3, 46146, Note_on_c, 0, 52, 0
3, 46153, Note_on_c, 0, 56, 29
3, 46156, Note_on_c, 0, 51, 44
3, 46169, Note_on_c, 0, 61, 35
3, 46186, Note_on_c, 0, 66, 18
3, 46362, Note_on_c, 0, 66, 0
3, 46374, Note_on_c, 0, 61, 0
3, 46390, Note_on_c, 0, 56, 0
3, 46442, Note_on_c, 0, 67, 50
3, 46446, Note_on_c, 0, 51, 0
3, 46451, Note_on_c, 0, 57, 54
3, 46452, Note_on_c, 0, 62, 51
3, 46456, Note_on_c, 0, 52, 51
3, 46474, Note_on_c, 0, 67, 0
3, 46478, Note_on_c, 0, 57, 0
3, 46498, Note_on_c, 0, 62, 0
3, 46506, Note_on_c, 0, 52, 0
3, 46783, Control_c, 0, 64, 127
3, 46893, Note_on_c, 0, 67, 49
3, 46896, Note_on_c, 0, 61, 59
3, 46902, Note_on_c, 0, 58, 43
3, 46903, Control_c, 0, 64, 0
3, 46910, Note_on_c, 0, 49, 33
3, 46911, Note_on_c, 0, 64, 46
3, 46916, Note_on_c, 0, 55, 45
3, 46925, Note_on_c, 0, 67, 0
3, 46929, Note_on_c, 0, 58, 0
3, 46946, Note_on_c, 0, 64, 0
3, 46948, Note_on_c, 0, 55, 0
3, 46950, Note_on_c, 0, 61, 0
3, 46963, Note_on_c, 0, 49, 0
3, 47168, Control_c, 0, 64, 127
3, 47382, Note_on_c, 0, 67, 60
3, 47385, Note_on_c, 0, 79, 60
3, 47408, Note_on_c, 0, 67, 0
3, 47447, Note_on_c, 0, 79, 0
3, 47489, Control_c, 0, 64, 0
3, 47527, Note_on_c, 0, 55, 80
3, 47528, Note_on_c, 0, 64, 77
3, 47531, Note_on_c, 0, 61, 67
3, 47535, Note_on_c, 0, 72, 89
3, 47536, Note_on_c, 0, 84, 88
3, 47538, Note_on_c, 0, 58, 64
3, 47634, Control_c, 0, 64, 127
3, 47678, Note_on_c, 0, 72, 0
3, 47703, Note_on_c, 0, 84, 0
3, 47711, Note_on_c, 0, 55, 0
3, 47720, Note_on_c, 0, 64, 0
3, 47741, Note_on_c, 0, 61, 0
3, 47748, Note_on_c, 0, 58, 0
3, 47836, Note_on_c, 0, 61, 62
3, 47846, Note_on_c, 0, 76, 74
3, 47848, Note_on_c, 0, 88, 84
3, 47863, Note_on_c, 0, 61, 0
3, 47900, Note_on_c, 0, 76, 0
3, 47929, Note_on_c, 0, 88, 0
3, 47990, Note_on_c, 0, 50, 79
3, 47994, Control_c, 0, 64, 0
3, 48001, Note_on_c, 0, 59, 58
3, 48002, Note_on_c, 0, 60, 62
3, 48004, Note_on_c, 0, 79, 82
3, 48005, Note_on_c, 0, 91, 80
3, 48009, Note_on_c, 0, 52, 36
3, 48010, Note_on_c, 0, 57, 49
3, 48016, Note_on_c, 0, 55, 39
3, 48018, Note_on_c, 0, 53, 47
3, 48043, Note_on_c, 0, 55, 0
3, 48069, Note_on_c, 0, 52, 0
3, 48073, Note_on_c, 0, 59, 0
3, 48181, Control_c, 0, 64, 127
3, 48352, Note_on_c, 0, 60, 0
3, 48359, Note_on_c, 0, 50, 0
3, 48361, Note_on_c, 0, 91, 0
3, 48376, Note_on_c, 0, 53, 0
3, 48384, Note_on_c, 0, 57, 0
3, 48385, Note_on_c, 0, 79, 0
3, 48454, Control_c, 0, 64, 0
3, 48477, Note_on_c, 0, 89, 47
3, 48478, Note_on_c, 0, 50, 40
3, 48479, Note_on_c, 0, 60, 51
3, 48482, Note_on_c, 0, 57, 41
3, 48488, Note_on_c, 0, 77, 45
3, 48490, Note_on_c, 0, 53, 49
3, 48614, Control_c, 0, 64, 127
3, 48695, Note_on_c, 0, 50, 0
3, 48698, Note_on_c, 0, 60, 0
3, 48704, Note_on_c, 0, 89, 0
3, 48710, Note_on_c, 0, 77, 0
3, 48715, Note_on_c, 0, 53, 0
3, 48728, Note_on_c, 0, 57, 0
3, 48803, Note_on_c, 0, 89, 26
3, 48807, Note_on_c, 0, 60, 58
3, 48810, Note_on_c, 0, 57, 57
3, 48823, Note_on_c, 0, 53, 45
3, 48834, Note_on_c, 0, 89, 0
3, 48839, Control_c, 0, 64, 0
3, 48851, Note_on_c, 0, 60, 0
3, 48855, Note_on_c, 0, 53, 0
3, 48878, Note_on_c, 0, 57, 0
3, 49432, Control_c, 0, 64, 127
3, 49858, Control_c, 0, 64, 0
3, 49871, Note_on_c, 0, 60, 75
3, 49878, Note_on_c, 0, 53, 76
3, 49879, Note_on_c, 0, 77, 94
3, 49879, Note_on_c, 0, 57, 70
3, 49881, Note_on_c, 0, 85, 92
3, 49882, Note_on_c, 0, 89, 87
3, 49882, Note_on_c, 0, 64, 92
3, 50121, Note_on_c, 0, 86, 30
3, 50142, Note_on_c, 0, 85, 0
3, 50263, Note_on_c, 0, 89, 0
3, 50264, Note_on_c, 0, 86, 0
3, 50272, Note_on_c, 0, 53, 0
3, 50276, Note_on_c, 0, 77, 0
3, 50280, Note_on_c, 0, 64, 0
3, 50286, Note_on_c, 0, 57, 0
3, 50294, Note_on_c, 0, 60, 0
3, 50357, Note_on_c, 0, 64, 45
3, 50370, Note_on_c, 0, 53, 32
3, 50374, Control_c, 0, 64, 127
3, 50374, Note_on_c, 0, 57, 38
3, 50375, Note_on_c, 0, 60, 58
3, 50380, Note_on_c, 0, 76, 48
3, 50381, Note_on_c, 0, 88, 47
3, 50399, Note_on_c, 0, 60, 0
3, 50423, Note_on_c, 0, 53, 0
3, 50423, Note_on_c, 0, 64, 0
3, 50429, Note_on_c, 0, 57, 0
3, 50434, Note_on_c, 0, 76, 0
3, 50445, Control_c, 0, 64, 0
3, 50467, Note_on_c, 0, 88, 0
3, 50654, Control_c, 0, 64, 127
3, 50702, Note_on_c, 0, 77, 61
3, 50706, Note_on_c, 0, 57, 51
3, 50707, Note_on_c, 0, 89, 60
3, 50711, Note_on_c, 0, 60, 44
3, 50711, Note_on_c, 0, 64, 55
3, 50729, Note_on_c, 0, 77, 0
3, 50737, Note_on_c, 0, 60, 0
3, 50740, Note_on_c, 0, 64, 0
3, 50763, Note_on_c, 0, 57, 0
3, 50767, Note_on_c, 0, 89, 0
3, 50823, Control_c, 0, 64, 0
3, 51007, Note_on_c, 0, 59, 68
3, 51013, Note_on_c, 0, 64, 80
3, 51015, Note_on_c, 0, 98, 81
3, 51019, Note_on_c, 0, 53, 58
3, 51020, Note_on_c, 0, 86, 73
3, 51039, Control_c, 0, 64, 127
3, 51101, Note_on_c, 0, 98, 0
3, 51106, Note_on_c, 0, 86, 0
3, 51164, Note_on_c, 0, 64, 0
3, 51165, Note_on_c, 0, 53, 0
3, 51213, Note_on_c, 0, 59, 0
3, 51319, Control_c, 0, 64, 0
3, 51331, Note_on_c, 0, 89, 58
3, 51338, Note_on_c, 0, 59, 54
3, 51340, Note_on_c, 0, 77, 45
3, 51341, Note_on_c, 0, 64, 71
3, 51347, Note_on_c, 0, 53, 53
3, 51433, Control_c, 0, 64, 127
3, 51519, Note_on_c, 0, 59, 0
3, 51545, Note_on_c, 0, 53, 0
3, 51595, Note_on_c, 0, 64, 0
3, 51607, Note_on_c, 0, 77, 0
3, 51647, Note_on_c, 0, 89, 0
3, 52114, Control_c, 0, 64, 0
3, 52152, Note_on_c, 0, 62, 70
3, 52159, Note_on_c, 0, 60, 65
3, 52159, Note_on_c, 0, 67, 81
3, 52160, Note_on_c, 0, 77, 90
3, 52161, Note_on_c, 0, 89, 89
3, 52162, Note_on_c, 0, 56, 70
3, 52163, Note_on_c, 0, 84, 84
3, 52300, Control_c, 0, 64, 127
3, 52451, Note_on_c, 0, 62, 0
3, 52461, Note_on_c, 0, 67, 0
3, 52473, Note_on_c, 0, 60, 0
3, 52594, Note_on_c, 0, 89, 0
3, 52634, Note_on_c, 0, 84, 0
3, 52642, Note_on_c, 0, 77, 0
3, 52673, Note_on_c, 0, 56, 0
3, 52790, Control_c, 0, 64, 0
3, 52823, Note_on_c, 0, 55, 56
3, 52823, Note_on_c, 0, 64, 60
3, 52827, Note_on_c, 0, 76, 52
3, 52830, Note_on_c, 0, 88, 55
3, 52831, Note_on_c, 0, 60, 54
3, 52834, Note_on_c, 0, 83, 47
3, 52967, Control_c, 0, 64, 127
3, 53183, Note_on_c, 0, 88, 0
3, 53194, Note_on_c, 0, 76, 0
3, 53202, Note_on_c, 0, 83, 0
3, 53218, Note_on_c, 0, 55, 0
3, 53219, Note_on_c, 0, 64, 0
3, 53260, Note_on_c, 0, 60, 0
3, 53287, Control_c, 0, 64, 0
3, 53552, Control_c, 0, 64, 127
3, 53595, Note_on_c, 0, 82, 56
3, 53597, Note_on_c, 0, 64, 36
3, 53599, Note_on_c, 0, 75, 49
3, 53600, Note_on_c, 0, 56, 36
3, 53603, Note_on_c, 0, 60, 32
3, 53609, Note_on_c, 0, 87, 52
3, 53676, Note_on_c, 0, 60, 0
3, 53678, Note_on_c, 0, 64, 0
3, 53693, Note_on_c, 0, 56, 0
3, 53707, Note_on_c, 0, 75, 0
3, 53711, Note_on_c, 0, 87, 0
3, 53717, Note_on_c, 0, 82, 0
3, 53737, Control_c, 0, 64, 0
3, 53778, Note_on_c, 0, 76, 42
3, 53779, Note_on_c, 0, 64, 48
3, 53780, Note_on_c, 0, 88, 55
3, 53782, Note_on_c, 0, 57, 44
3, 53799, Note_on_c, 0, 60, 34
3, 53873, Control_c, 0, 64, 127
3, 53900, Note_on_c, 0, 88, 0
3, 53952, Note_on_c, 0, 76, 0
3, 54105, Note_on_c, 0, 64, 0
3, 54202, Control_c, 0, 64, 0
3, 54267, Note_on_c, 0, 64, 54
3, 54302, Note_on_c, 0, 64, 0
3, 54338, Note_on_c, 0, 60, 0
3, 54410, Note_on_c, 0, 69, 56
3, 54439, Note_on_c, 0, 69, 0
3, 54516, Note_on_c, 0, 57, 0
3, 54570, Note_on_c, 0, 72, 71
3, 54603, Note_on_c, 0, 57, 24
3, 54607, Note_on_c, 0, 60, 28
3, 54637, Note_on_c, 0, 60, 0
3, 54638, Note_on_c, 0, 72, 0
3, 54647, Note_on_c, 0, 57, 0
3, 54730, Note_on_c, 0, 76, 64
3, 54730, Note_on_c, 0, 57, 54
3, 54739, Note_on_c, 0, 64, 65
3, 54744, Note_on_c, 0, 69, 51
3, 54745, Note_on_c, 0, 60, 41
3, 54963, Note_on_c, 0, 69, 0
3, 54973, Note_on_c, 0, 60, 0
3, 54975, Note_on_c, 0, 57, 0
3, 54978, Note_on_c, 0, 64, 0
3, 54985, Note_on_c, 0, 76, 0
3, 55063, Note_on_c, 0, 76, 46
3, 55071, Note_on_c, 0, 69, 60
3, 55072, Note_on_c, 0, 64, 49
3, 55075, Note_on_c, 0, 72, 50
3, 55080, Note_on_c, 0, 57, 51
3, 55092, Note_on_c, 0, 60, 37
3, 55099, Note_on_c, 0, 69, 0
3, 55101, Note_on_c, 0, 64, 0
3, 55102, Note_on_c, 0, 72, 0
3, 55119, Note_on_c, 0, 60, 0
3, 55121, Note_on_c, 0, 76, 0
3, 55155, Note_on_c, 0, 57, 0
3, 55453, Control_c, 0, 64, 127
3, 55678, Control_c, 0, 64, 0
3, 55702, Note_on_c, 0, 60, 38
3, 55706, Note_on_c, 0, 54, 48
3, 55712, Note_on_c, 0, 64, 58
3, 55781, Note_on_c, 0, 64, 0
3, 55805, Note_on_c, 0, 60, 0
3, 55809, Note_on_c, 0, 54, 0
3, 55856, Note_on_c, 0, 68, 46
3, 55913, Note_on_c, 0, 68, 0
3, 56006, Note_on_c, 0, 72, 58
3, 56027, Note_on_c, 0, 54, 37
3, 56031, Control_c, 0, 64, 127
3, 56032, Note_on_c, 0, 60, 35
3, 56074, Note_on_c, 0, 54, 0
3, 56075, Note_on_c, 0, 60, 0
3, 56079, Note_on_c, 0, 72, 0
3, 56111, Control_c, 0, 64, 0
3, 56160, Note_on_c, 0, 72, 42
3, 56161, Note_on_c, 0, 76, 66
3, 56163, Note_on_c, 0, 68, 53
3, 56167, Note_on_c, 0, 64, 66
3, 56169, Note_on_c, 0, 54, 43
3, 56183, Note_on_c, 0, 60, 43
3, 56375, Note_on_c, 0, 54, 0
3, 56405, Note_on_c, 0, 64, 0
3, 56412, Note_on_c, 0, 68, 0
3, 56415, Note_on_c, 0, 76, 0
3, 56415, Note_on_c, 0, 60, 0
3, 56434, Note_on_c, 0, 72, 0
3, 56497, Note_on_c, 0, 76, 52
3, 56506, Note_on_c, 0, 68, 55
3, 56507, Note_on_c, 0, 64, 57
3, 56511, Note_on_c, 0, 72, 49
3, 56519, Note_on_c, 0, 54, 57
3, 56522, Note_on_c, 0, 60, 50
3, 56595, Note_on_c, 0, 60, 0
3, 56598, Note_on_c, 0, 64, 0
3, 56600, Note_on_c, 0, 54, 0
3, 56612, Note_on_c, 0, 72, 0
3, 56616, Note_on_c, 0, 68, 0
3, 56636, Note_on_c, 0, 76, 0
3, 56762, Note_on_c, 0, 76, 53
3, 56770, Note_on_c, 0, 64, 49
3, 56771, Note_on_c, 0, 68, 43
3, 56778, Note_on_c, 0, 54, 37
3, 56781, Note_on_c, 0, 72, 37
3, 56788, Note_on_c, 0, 60, 35
3, 56873, Control_c, 0, 64, 127
3, 56938, Note_on_c, 0, 76, 0
3, 56948, Note_on_c, 0, 54, 0
3, 56951, Note_on_c, 0, 68, 0
3, 56954, Note_on_c, 0, 60, 0
3, 56957, Note_on_c, 0, 64, 0
3, 56958, Note_on_c, 0, 72, 0
3, 57013, Note_on_c, 0, 74, 53
3, 57021, Note_on_c, 0, 68, 50
3, 57023, Note_on_c, 0, 64, 34
3, 57026, Note_on_c, 0, 54, 43
3, 57037, Note_on_c, 0, 60, 45
3, 57068, Note_on_c, 0, 64, 0
3, 57079, Note_on_c, 0, 60, 0
3, 57082, Control_c, 0, 64, 0
3, 57093, Note_on_c, 0, 68, 0
3, 57099, Note_on_c, 0, 54, 0
3, 57108, Note_on_c, 0, 74, 0
3, 57354, Control_c, 0, 64, 127
3, 57503, Note_on_c, 0, 58, 30
3, 57575, Note_on_c, 0, 58, 0
3, 57611, Control_c, 0, 64, 0
3, 57639, Note_on_c, 0, 74, 51
3, 57652, Note_on_c, 0, 65, 59
3, 57654, Note_on_c, 0, 69, 48
3, 57664, Note_on_c, 0, 60, 46
3, 57837, Control_c, 0, 64, 127
3, 57874, Note_on_c, 0, 69, 0
3, 57884, Note_on_c, 0, 65, 0
3, 57887, Note_on_c, 0, 60, 0
3, 57896, Note_on_c, 0, 74, 0
3, 58098, Note_on_c, 0, 76, 79
3, 58106, Note_on_c, 0, 69, 75
3, 58109, Control_c, 0, 64, 0
3, 58111, Note_on_c, 0, 62, 76
3, 58112, Note_on_c, 0, 65, 75
3, 58306, Note_on_c, 0, 76, 0
3, 58317, Control_c, 0, 64, 127
3, 58324, Note_on_c, 0, 69, 0
3, 58354, Note_on_c, 0, 65, 0
3, 58411, Note_on_c, 0, 74, 65
3, 58429, Note_on_c, 0, 62, 0
3, 58574, Control_c, 0, 64, 0
3, 58575, Note_on_c, 0, 56, 56
3, 58578, Note_on_c, 0, 71, 59
3, 58585, Note_on_c, 0, 68, 55
3, 58602, Note_on_c, 0, 62, 29
3, 58735, Control_c, 0, 64, 127
3, 58759, Note_on_c, 0, 62, 0
3, 58771, Note_on_c, 0, 74, 0
3, 58870, Note_on_c, 0, 71, 0
3, 58914, Note_on_c, 0, 68, 0
3, 59031, Control_c, 0, 64, 0
3, 59032, Note_on_c, 0, 74, 51
3, 59033, Note_on_c, 0, 56, 0
3, 59041, Note_on_c, 0, 59, 55
3, 59045, Note_on_c, 0, 64, 49
3, 59052, Note_on_c, 0, 67, 49
3, 59168, Control_c, 0, 64, 127
3, 59275, Note_on_c, 0, 59, 0
3, 59289, Note_on_c, 0, 74, 0
3, 59299, Note_on_c, 0, 64, 0
3, 59314, Note_on_c, 0, 67, 0
3, 59383, Note_on_c, 0, 72, 62
3, 59387, Note_on_c, 0, 67, 67
3, 59388, Note_on_c, 0, 62, 47
3, 59391, Note_on_c, 0, 57, 36
3, 59432, Control_c, 0, 64, 0
3, 59475, Note_on_c, 0, 57, 0
3, 59535, Note_on_c, 0, 67, 0
3, 59536, Note_on_c, 0, 72, 0
3, 59581, Note_on_c, 0, 62, 0
3, 59689, Control_c, 0, 64, 127
3, 59839, Note_on_c, 0, 65, 69
3, 59840, Note_on_c, 0, 69, 68
3, 59842, Note_on_c, 0, 60, 66
3, 59850, Note_on_c, 0, 55, 64
3, 59890, Control_c, 0, 64, 0
3, 60018, Note_on_c, 0, 43, 50
3, 60103, Note_on_c, 0, 55, 0
3, 60146, Control_c, 0, 64, 127
3, 60327, Note_on_c, 0, 65, 0
3, 60342, Note_on_c, 0, 60, 0
3, 60384, Note_on_c, 0, 50, 31
3, 60399, Note_on_c, 0, 69, 0
3, 60447, Note_on_c, 0, 50, 0
3, 60494, Note_on_c, 0, 64, 51
3, 60495, Note_on_c, 0, 68, 53
3, 60497, Note_on_c, 0, 59, 40
3, 60499, Control_c, 0, 64, 0
3, 60503, Note_on_c, 0, 53, 50
3, 60616, Note_on_c, 0, 43, 0
3, 60764, Control_c, 0, 64, 127
3, 60812, Note_on_c, 0, 43, 76
3, 61090, Note_on_c, 0, 64, 0
3, 61106, Note_on_c, 0, 68, 0
3, 61259, Note_on_c, 0, 59, 0
3, 61270, Note_on_c, 0, 53, 0
3, 61304, Note_on_c, 0, 50, 42
3, 61407, Note_on_c, 0, 50, 0
3, 61445, Note_on_c, 0, 52, 46
3, 61446, Note_on_c, 0, 67, 34
3, 61447, Note_on_c, 0, 62, 42
3, 61449, Control_c, 0, 64, 0
3, 61450, Note_on_c, 0, 57, 44
3, 61527, Note_on_c, 0, 57, 0
3, 61592, Note_on_c, 0, 62, 0
3, 61601, Note_on_c, 0, 43, 0
3, 61618, Note_on_c, 0, 67, 0
3, 61794, Note_on_c, 0, 52, 0
3, 61928, Note_on_c, 0, 66, 54
3, 62199, Note_on_c, 0, 66, 0
3, 62245, Note_on_c, 0, 67, 42
3, 62358, Note_on_c, 0, 67, 0
3, 62410, Note_on_c, 0, 70, 52
3, 62707, Note_on_c, 0, 64, 56
3, 62710, Note_on_c, 0, 61, 47
3, 62735, Note_on_c, 0, 58, 31
3, 62748, Note_on_c, 0, 64, 0
3, 62779, Note_on_c, 0, 58, 0
3, 62787, Note_on_c, 0, 61, 0
3, 63238, Control_c, 0, 64, 127
3, 63310, Control_c, 0, 64, 0
3, 63329, Note_on_c, 0, 70, 0
3, 63358, Note_on_c, 0, 64, 47
3, 63369, Note_on_c, 0, 69, 62
3, 63383, Note_on_c, 0, 60, 36
3, 63391, Note_on_c, 0, 57, 38
3, 63415, Note_on_c, 0, 60, 0
3, 63419, Note_on_c, 0, 64, 0
3, 63430, Note_on_c, 0, 57, 0
3, 63809, Note_on_c, 0, 69, 0
3, 63860, Note_on_c, 0, 68, 38
3, 64079, Control_c, 0, 64, 127
3, 64154, Note_on_c, 0, 68, 0
3, 64171, Note_on_c, 0, 64, 34
3, 64185, Note_on_c, 0, 60, 33
3, 64190, Note_on_c, 0, 57, 41
3, 64191, Note_on_c, 0, 69, 52
3, 64204, Note_on_c, 0, 64, 0
3, 64220, Note_on_c, 0, 60, 0
3, 64260, Note_on_c, 0, 69, 0
3, 64274, Note_on_c, 0, 57, 0
3, 64288, Control_c, 0, 64, 0
3, 64447, Note_on_c, 0, 76, 64
3, 64553, Control_c, 0, 64, 127
3, 64721, Control_c, 0, 64, 0
3, 64736, Note_on_c, 0, 76, 0
3, 64906, Control_c, 0, 64, 127
3, 65126, Note_on_c, 0, 72, 82
3, 65127, Note_on_c, 0, 64, 60
3, 65140, Note_on_c, 0, 57, 43
3, 65141, Note_on_c, 0, 60, 39
3, 65151, Note_on_c, 0, 53, 32
3, 65194, Control_c, 0, 64, 0
3, 65210, Note_on_c, 0, 64, 0
3, 65231, Note_on_c, 0, 60, 0
3, 65252, Note_on_c, 0, 53, 0
3, 65256, Note_on_c, 0, 72, 0
3, 65315, Note_on_c, 0, 57, 0
3, 65354, Note_on_c, 0, 69, 35
3, 65640, Note_on_c, 0, 69, 0
3, 65657, Note_on_c, 0, 57, 20
3, 65750, Note_on_c, 0, 57, 0
3, 65756, Note_on_c, 0, 70, 60
3, 65828, Control_c, 0, 64, 127
3, 66198, Control_c, 0, 64, 0
3, 66199, Note_on_c, 0, 70, 0
3, 66212, Note_on_c, 0, 59, 34
3, 66215, Note_on_c, 0, 64, 33
3, 66250, Note_on_c, 0, 71, 54
3, 66262, Note_on_c, 0, 53, 19
3, 66422, Note_on_c, 0, 53, 0
3, 66431, Control_c, 0, 64, 127
3, 66456, Note_on_c, 0, 64, 0
3, 66519, Note_on_c, 0, 59, 0
3, 66550, Note_on_c, 0, 82, 84
3, 66558, Note_on_c, 0, 59, 31
3, 66567, Note_on_c, 0, 64, 53
3, 66578, Note_on_c, 0, 53, 42
3, 66626, Note_on_c, 0, 64, 0
3, 66694, Note_on_c, 0, 59, 0
3, 66716, Note_on_c, 0, 71, 0
3, 66717, Note_on_c, 0, 53, 0
3, 66719, Control_c, 0, 64, 0
3, 66727, Note_on_c, 0, 80, 55
3, 66738, Note_on_c, 0, 82, 0
3, 66850, Note_on_c, 0, 80, 0
3, 66875, Note_on_c, 0, 75, 57
3, 66962, Note_on_c, 0, 75, 0
3, 67023, Note_on_c, 0, 71, 30
3, 67040, Control_c, 0, 64, 127
3, 67087, Note_on_c, 0, 71, 0
3, 67133, Note_on_c, 0, 57, 34
3, 67192, Control_c, 0, 64, 0
3, 67214, Note_on_c, 0, 57, 0
3, 67930, Control_c, 0, 64, 127
3, 68026, Note_on_c, 0, 77, 101
3, 68031, Note_on_c, 0, 56, 44
3, 68033, Note_on_c, 0, 62, 53
3, 68034, Note_on_c, 0, 60, 45
3, 68066, Note_on_c, 0, 60, 0
3, 68067, Note_on_c, 0, 62, 0
3, 68139, Control_c, 0, 64, 0
3, 68152, Note_on_c, 0, 56, 0
3, 68188, Note_on_c, 0, 77, 0
3, 68202, Note_on_c, 0, 76, 64
3, 68328, Note_on_c, 0, 76, 0
3, 68346, Note_on_c, 0, 72, 62
3, 68452, Control_c, 0, 64, 127
3, 68455, Note_on_c, 0, 72, 0
3, 68491, Note_on_c, 0, 62, 46
3, 68493, Note_on_c, 0, 67, 51
3, 68510, Note_on_c, 0, 57, 47
3, 68520, Note_on_c, 0, 62, 0
3, 68534, Note_on_c, 0, 52, 26
3, 68550, Note_on_c, 0, 57, 0
3, 68578, Note_on_c, 0, 67, 0
3, 68599, Note_on_c, 0, 52, 0
3, 68612, Control_c, 0, 64, 0
3, 68647, Note_on_c, 0, 65, 58
3, 68763, Note_on_c, 0, 65, 0
3, 68890, Note_on_c, 0, 63, 19
3, 68909, Control_c, 0, 64, 127
3, 68984, Note_on_c, 0, 63, 0
3, 69086, Control_c, 0, 64, 0
3, 69131, Note_on_c, 0, 64, 69
3, 69268, Note_on_c, 0, 60, 58
3, 69299, Note_on_c, 0, 64, 0
3, 69328, Note_on_c, 0, 60, 0
3, 69375, Control_c, 0, 64, 127
3, 69549, Note_on_c, 0, 45, 58
3, 69576, Note_on_c, 0, 45, 0
3, 70094, Note_on_c, 0, 62, 72
3, 70097, Control_c, 0, 64, 0
3, 70098, Note_on_c, 0, 67, 77
3, 70100, Note_on_c, 0, 76, 82
3, 70101, Note_on_c, 0, 57, 76
3, 70105, Note_on_c, 0, 72, 88
3, 70201, Control_c, 0, 64, 127
3, 70567, Note_on_c, 0, 67, 0
3, 70611, Note_on_c, 0, 62, 0
3, 70722, Note_on_c, 0, 57, 0
3, 70723, Note_on_c, 0, 72, 0
3, 70741, Note_on_c, 0, 76, 0
3, 70898, Note_on_c, 0, 77, 75
3, 70992, Note_on_c, 0, 77, 0
3, 71067, Control_c, 0, 64, 0
3, 71137, Note_on_c, 0, 65, 60
3, 71143, Note_on_c, 0, 54, 51
3, 71154, Note_on_c, 0, 60, 38
3, 71160, Note_on_c, 0, 76, 51
3, 71235, Control_c, 0, 64, 127
3, 71391, Note_on_c, 0, 65, 0
3, 71392, Note_on_c, 0, 54, 0
3, 71403, Note_on_c, 0, 60, 0
3, 71460, Control_c, 0, 64, 0
3, 71520, Note_on_c, 0, 76, 0
3, 71527, Note_on_c, 0, 71, 37
3, 71533, Note_on_c, 0, 54, 43
3, 71534, Note_on_c, 0, 64, 34
3, 71537, Note_on_c, 0, 60, 35
3, 71549, Note_on_c, 0, 68, 27
3, 71597, Control_c, 0, 64, 127
3, 71714, Note_on_c, 0, 68, 0
3, 71718, Note_on_c, 0, 54, 0
3, 71750, Note_on_c, 0, 64, 0
3, 71762, Note_on_c, 0, 60, 0
3, 71808, Note_on_c, 0, 71, 0
3, 71846, Note_on_c, 0, 68, 45
3, 71855, Note_on_c, 0, 64, 45
3, 71879, Note_on_c, 0, 54, 37
3, 71880, Note_on_c, 0, 60, 37
3, 71902, Control_c, 0, 64, 0
3, 72062, Control_c, 0, 64, 127
3, 72551, Note_on_c, 0, 60, 0
3, 72551, Note_on_c, 0, 64, 0
3, 72564, Note_on_c, 0, 54, 0
3, 72636, Note_on_c, 0, 68, 0
3, 73001, Control_c, 0, 64, 0
3, 73003, Note_on_c, 0, 79, 79
3, 73010, Note_on_c, 0, 69, 77
3, 73011, Note_on_c, 0, 64, 71
3, 73098, Note_on_c, 0, 72, 15
3, 73145, Control_c, 0, 64, 127
3, 73201, Note_on_c, 0, 79, 0
3, 73207, Note_on_c, 0, 72, 0
3, 73234, Note_on_c, 0, 69, 0
3, 73434, Note_on_c, 0, 64, 0
3, 73488, Note_on_c, 0, 61, 50
3, 73498, Control_c, 0, 64, 0
3, 73499, Note_on_c, 0, 76, 55
3, 73501, Note_on_c, 0, 73, 67
3, 73696, Note_on_c, 0, 73, 0
3, 73714, Control_c, 0, 64, 127
3, 73715, Note_on_c, 0, 76, 0
3, 73791, Note_on_c, 0, 64, 64
3, 73800, Note_on_c, 0, 79, 66
3, 73804, Note_on_c, 0, 61, 0
3, 73809, Note_on_c, 0, 69, 74
3, 73812, Note_on_c, 0, 72, 68
3, 73876, Note_on_c, 0, 72, 0
3, 73900, Note_on_c, 0, 69, 0
3, 73914, Note_on_c, 0, 65, 54
3, 73920, Note_on_c, 0, 79, 0
3, 73931, Note_on_c, 0, 77, 54
3, 73953, Note_on_c, 0, 64, 0
3, 73971, Control_c, 0, 64, 0
3, 74034, Note_on_c, 0, 65, 0
3, 74051, Note_on_c, 0, 77, 0
3, 74116, Control_c, 0, 64, 127
3, 74287, Note_on_c, 0, 57, 53
3, 74311, Note_on_c, 0, 69, 32
3, 74382, Note_on_c, 0, 69, 0
3, 74394, Note_on_c, 0, 57, 0
3, 74446, Control_c, 0, 64, 0
3, 74447, Note_on_c, 0, 65, 55
3, 74448, Note_on_c, 0, 60, 64
3, 74449, Note_on_c, 0, 69, 55
3, 74458, Note_on_c, 0, 74, 38
3, 74498, Note_on_c, 0, 72, 15
3, 74514, Note_on_c, 0, 74, 0
3, 74576, Note_on_c, 0, 72, 0
3, 74604, Note_on_c, 0, 69, 0
3, 74615, Note_on_c, 0, 65, 0
3, 74654, Note_on_c, 0, 60, 0
3, 74678, Control_c, 0, 64, 127
3, 74756, Note_on_c, 0, 56, 37
3, 74863, Note_on_c, 0, 56, 0
3, 74886, Control_c, 0, 64, 0
3, 74922, Note_on_c, 0, 59, 54
3, 74932, Note_on_c, 0, 62, 64
3, 74940, Note_on_c, 0, 71, 46
3, 74946, Note_on_c, 0, 64, 55
3, 74950, Note_on_c, 0, 67, 36
3, 74971, Note_on_c, 0, 59, 0
3, 74977, Note_on_c, 0, 67, 0
3, 75007, Note_on_c, 0, 71, 0
3, 75009, Note_on_c, 0, 64, 0
3, 75011, Note_on_c, 0, 62, 0
3, 75103, Control_c, 0, 64, 127
3, 75232, Note_on_c, 0, 59, 60
3, 75233, Note_on_c, 0, 67, 48
3, 75239, Note_on_c, 0, 62, 60
3, 75242, Note_on_c, 0, 52, 60
3, 75248, Note_on_c, 0, 64, 50
3, 75276, Note_on_c, 0, 64, 0
3, 75280, Note_on_c, 0, 62, 0
3, 75282, Note_on_c, 0, 59, 0
3, 75294, Note_on_c, 0, 67, 0
3, 75362, Note_on_c, 0, 52, 0
3, 75399, Control_c, 0, 64, 0
3, 75426, Note_on_c, 0, 61, 71
3, 75431, Note_on_c, 0, 66, 63
3, 75436, Note_on_c, 0, 55, 64
3, 75438, Note_on_c, 0, 70, 57
3, 75576, Control_c, 0, 64, 127
3, 75657, Note_on_c, 0, 55, 0
3, 75663, Note_on_c, 0, 66, 0
3, 75675, Note_on_c, 0, 70, 0
3, 75707, Note_on_c, 0, 61, 0
3, 75738, Note_on_c, 0, 69, 65
3, 75744, Note_on_c, 0, 65, 66
3, 75746, Note_on_c, 0, 60, 51
3, 75751, Note_on_c, 0, 53, 58
3, 75769, Control_c, 0, 64, 0
3, 75929, Control_c, 0, 64, 127
3, 75969, Note_on_c, 0, 69, 0
3, 75991, Note_on_c, 0, 65, 0
3, 76054, Note_on_c, 0, 60, 0
3, 76099, Note_on_c, 0, 53, 0
3, 76188, Note_on_c, 0, 68, 51
3, 76191, Note_on_c, 0, 64, 53
3, 76193, Note_on_c, 0, 53, 40
3, 76197, Note_on_c, 0, 59, 50
3, 76199, Note_on_c, 0, 43, 43
3, 76226, Control_c, 0, 64, 0
3, 76386, Control_c, 0, 64, 127
3, 76535, Note_on_c, 0, 64, 0
3, 76585, Note_on_c, 0, 68, 0
3, 76655, Note_on_c, 0, 53, 0
3, 76671, Note_on_c, 0, 59, 0
3, 76705, Note_on_c, 0, 50, 47
3, 76793, Note_on_c, 0, 50, 0
3, 76803, Control_c, 0, 64, 0
3, 76811, Note_on_c, 0, 62, 44
3, 76812, Note_on_c, 0, 57, 48
3, 76818, Note_on_c, 0, 67, 34
3, 76827, Note_on_c, 0, 52, 38
3, 76993, Note_on_c, 0, 67, 0
3, 77028, Note_on_c, 0, 57, 0
3, 77050, Note_on_c, 0, 62, 0
3, 77108, Control_c, 0, 64, 127
3, 77142, Note_on_c, 0, 52, 0
3, 77143, Note_on_c, 0, 66, 60
3, 77145, Note_on_c, 0, 56, 64
3, 77152, Note_on_c, 0, 51, 55
3, 77162, Note_on_c, 0, 61, 52
3, 77258, Note_on_c, 0, 66, 0
3, 77261, Control_c, 0, 64, 0
3, 77266, Note_on_c, 0, 61, 0
3, 77274, Note_on_c, 0, 56, 0
3, 77306, Note_on_c, 0, 51, 0
3, 77322, Note_on_c, 0, 52, 46
3, 77325, Note_on_c, 0, 67, 48
3, 77344, Note_on_c, 0, 57, 34
3, 77350, Note_on_c, 0, 62, 42
3, 77542, Control_c, 0, 64, 127
3, 77599, Note_on_c, 0, 57, 0
3, 77630, Note_on_c, 0, 62, 0
3, 77631, Note_on_c, 0, 67, 0
3, 77656, Note_on_c, 0, 52, 0
3, 77682, Note_on_c, 0, 51, 31
3, 77737, Note_on_c, 0, 43, 0
3, 77750, Control_c, 0, 64, 0
3, 77759, Note_on_c, 0, 51, 0
3, 77775, Note_on_c, 0, 67, 44
3, 77785, Note_on_c, 0, 52, 49
3, 77794, Note_on_c, 0, 61, 46
3, 77795, Note_on_c, 0, 58, 32
3, 77806, Note_on_c, 0, 64, 36
3, 77920, Note_on_c, 0, 64, 0
3, 77940, Note_on_c, 0, 58, 0
3, 77955, Note_on_c, 0, 61, 0
3, 77964, Note_on_c, 0, 67, 0
3, 78057, Note_on_c, 0, 52, 0
3, 78071, Control_c, 0, 64, 127
3, 78089, Note_on_c, 0, 51, 58
3, 78111, Note_on_c, 0, 57, 40
3, 78145, Note_on_c, 0, 57, 0
3, 78208, Control_c, 0, 64, 0
3, 78250, Note_on_c, 0, 67, 58
3, 78261, Note_on_c, 0, 51, 0
3, 78281, Note_on_c, 0, 52, 55
3, 78282, Note_on_c, 0, 57, 31
3, 78357, Note_on_c, 0, 57, 0
3, 78538, Note_on_c, 0, 67, 0
3, 78545, Control_c, 0, 64, 127
3, 78583, Note_on_c, 0, 52, 0
3, 78608, Note_on_c, 0, 51, 40
3, 78613, Note_on_c, 0, 49, 25
3, 78649, Control_c, 0, 64, 0
3, 78708, Note_on_c, 0, 51, 0
3, 78713, Note_on_c, 0, 49, 0
3, 78713, Note_on_c, 0, 67, 52
3, 78724, Note_on_c, 0, 57, 50
3, 78727, Note_on_c, 0, 60, 55
3, 78729, Note_on_c, 0, 52, 43
3, 78738, Note_on_c, 0, 64, 34
3, 78842, Note_on_c, 0, 64, 0
3, 78875, Note_on_c, 0, 67, 0
3, 78887, Note_on_c, 0, 60, 0
3, 78892, Note_on_c, 0, 57, 0
3, 78986, Note_on_c, 0, 52, 0
3, 79010, Note_on_c, 0, 51, 59
3, 79018, Control_c, 0, 64, 127
3, 79026, Note_on_c, 0, 66, 59
3, 79042, Note_on_c, 0, 63, 36
3, 79052, Note_on_c, 0, 57, 43
3, 79056, Note_on_c, 0, 60, 40
3, 79114, Control_c, 0, 64, 0
3, 79159, Note_on_c, 0, 57, 0
3, 79164, Note_on_c, 0, 51, 0
3, 79170, Note_on_c, 0, 63, 0
3, 79178, Note_on_c, 0, 66, 0
3, 79194, Note_on_c, 0, 50, 50
3, 79211, Note_on_c, 0, 65, 49
3, 79215, Note_on_c, 0, 57, 27
3, 79364, Note_on_c, 0, 65, 0
3, 79367, Note_on_c, 0, 60, 0
3, 79455, Note_on_c, 0, 57, 0
3, 79463, Note_on_c, 0, 50, 0
3, 79484, Control_c, 0, 64, 127
3, 79504, Note_on_c, 0, 43, 33
3, 79615, Note_on_c, 0, 43, 0
3, 79619, Control_c, 0, 64, 0
3, 79659, Note_on_c, 0, 64, 51
3, 79660, Note_on_c, 0, 58, 60
3, 79671, Note_on_c, 0, 61, 48
3, 79696, Note_on_c, 0, 50, 16
3, 79932, Note_on_c, 0, 61, 0
3, 79933, Note_on_c, 0, 50, 0
3, 79943, Control_c, 0, 64, 127
3, 79981, Note_on_c, 0, 49, 40
3, 79991, Note_on_c, 0, 58, 0
3, 80034, Note_on_c, 0, 49, 0
3, 80054, Note_on_c, 0, 64, 0
3, 80071, Control_c, 0, 64, 0
3, 80126, Note_on_c, 0, 44, 54
3, 80131, Note_on_c, 0, 58, 44
3, 80134, Note_on_c, 0, 61, 40
3, 80164, Note_on_c, 0, 53, 25
3, 80311, Control_c, 0, 64, 127
3, 80312, Note_on_c, 0, 53, 0
3, 80346, Note_on_c, 0, 58, 0
3, 80373, Note_on_c, 0, 61, 0
3, 80396, Note_on_c, 0, 44, 0
3, 80464, Note_on_c, 0, 57, 54
3, 80471, Note_on_c, 0, 43, 52
3, 80475, Note_on_c, 0, 60, 52
3, 80503, Note_on_c, 0, 53, 36
3, 80506, Control_c, 0, 64, 0
3, 80580, Note_on_c, 0, 57, 0
3, 80604, Note_on_c, 0, 60, 0
3, 80609, Control_c, 0, 64, 127
3, 80641, Note_on_c, 0, 43, 0
3, 80704, Note_on_c, 0, 53, 0
3, 80850, Note_on_c, 0, 79, 64
3, 80859, Note_on_c, 0, 78, 46
3, 80947, Note_on_c, 0, 78, 0
3, 80951, Note_on_c, 0, 79, 0
3, 81001, Control_c, 0, 64, 0
3, 81002, Note_on_c, 0, 79, 28
3, 81052, Note_on_c, 0, 78, 20
3, 81092, Note_on_c, 0, 78, 0
3, 81133, Note_on_c, 0, 79, 0
3, 81140, Note_on_c, 0, 67, 57
3, 81244, Note_on_c, 0, 67, 0
3, 81313, Note_on_c, 0, 67, 53
3, 81362, Note_on_c, 0, 67, 0
3, 81498, Note_on_c, 0, 64, 64
3, 81501, Note_on_c, 0, 59, 57
3, 81530, Note_on_c, 0, 64, 0
3, 81543, Note_on_c, 0, 59, 0
3, 81645, Note_on_c, 0, 91, 67
3, 81722, Note_on_c, 0, 91, 0
3, 81780, Note_on_c, 0, 91, 65
3, 81898, Note_on_c, 0, 91, 0
3, 81923, Note_on_c, 0, 79, 57
3, 81984, Note_on_c, 0, 79, 0
3, 82087, Note_on_c, 0, 79, 36
3, 82116, Note_on_c, 0, 79, 0
3, 82269, Note_on_c, 0, 98, 71
3, 82284, Note_on_c, 0, 59, 46
3, 82317, Note_on_c, 0, 59, 0
3, 82336, Note_on_c, 0, 98, 0
3, 82418, Note_on_c, 0, 98, 78
3, 82514, Note_on_c, 0, 98, 0
3, 82543, Note_on_c, 0, 62, 47
3, 82577, Note_on_c, 0, 62, 0
3, 82587, Note_on_c, 0, 55, 26
3, 82590, Note_on_c, 0, 83, 40
3, 82622, Note_on_c, 0, 55, 0
3, 82641, Note_on_c, 0, 83, 0
3, 82737, Note_on_c, 0, 83, 48
3, 82778, Note_on_c, 0, 83, 0
3, 82875, Note_on_c, 0, 96, 82
3, 82967, Note_on_c, 0, 96, 0
3, 83039, Note_on_c, 0, 96, 71
3, 83102, Note_on_c, 0, 96, 0
3, 83225, Note_on_c, 0, 79, 48
3, 83264, Note_on_c, 0, 79, 0
3, 83375, Note_on_c, 0, 79, 54
3, 83452, Note_on_c, 0, 79, 0
3, 83474, Note_on_c, 0, 62, 30
3, 83481, Note_on_c, 0, 58, 30
3, 83512, Note_on_c, 0, 62, 0
3, 83559, Note_on_c, 0, 89, 75
3, 83562, Note_on_c, 0, 58, 0
3, 83639, Note_on_c, 0, 89, 0
3, 83722, Note_on_c, 0, 89, 65
3, 83798, Note_on_c, 0, 89, 0
3, 83899, Note_on_c, 0, 62, 36
3, 83903, Note_on_c, 0, 58, 32
3, 83927, Note_on_c, 0, 62, 0
3, 83954, Note_on_c, 0, 58, 0
3, 84043, Note_on_c, 0, 72, 51
3, 84073, Note_on_c, 0, 72, 0
3, 84185, Note_on_c, 0, 86, 80
3, 84282, Note_on_c, 0, 86, 0
3, 84335, Note_on_c, 0, 86, 67
3, 84363, Note_on_c, 0, 64, 27
3, 84397, Note_on_c, 0, 64, 0
3, 84454, Note_on_c, 0, 86, 0
3, 84511, Note_on_c, 0, 84, 61
3, 84543, Note_on_c, 0, 84, 0
3, 84649, Note_on_c, 0, 84, 67
3, 84733, Note_on_c, 0, 84, 0
3, 84795, Note_on_c, 0, 64, 36
3, 84839, Note_on_c, 0, 64, 0
3, 84974, Note_on_c, 0, 79, 57
3, 85046, Note_on_c, 0, 79, 0
3, 85110, Note_on_c, 0, 76, 57
3, 85222, Note_on_c, 0, 76, 0
3, 85780, Note_on_c, 0, 64, 59
3, 85786, Note_on_c, 0, 55, 49
3, 85795, Note_on_c, 0, 57, 46
3, 85801, Note_on_c, 0, 60, 46
3, 85831, Note_on_c, 0, 60, 0
3, 85836, Note_on_c, 0, 64, 0
3, 85839, Note_on_c, 0, 55, 0
3, 85938, Note_on_c, 0, 57, 0
3, 85962, Note_on_c, 0, 81, 35
3, 86114, Note_on_c, 0, 82, 68
3, 86151, Note_on_c, 0, 81, 0
3, 86210, Note_on_c, 0, 82, 0
3, 86263, Note_on_c, 0, 83, 76
3, 86375, Note_on_c, 0, 83, 0
3, 86384, Note_on_c, 0, 60, 45
3, 86390, Note_on_c, 0, 64, 46
3, 86399, Note_on_c, 0, 54, 42
3, 86420, Note_on_c, 0, 86, 82
3, 86448, Note_on_c, 0, 64, 0
3, 86478, Note_on_c, 0, 54, 0
3, 86522, Note_on_c, 0, 60, 0
3, 86556, Note_on_c, 0, 86, 0
3, 86588, Note_on_c, 0, 83, 47
3, 86659, Note_on_c, 0, 83, 0
3, 86739, Note_on_c, 0, 79, 57
3, 86776, Note_on_c, 0, 60, 17
3, 86803, Note_on_c, 0, 79, 0
3, 86832, Note_on_c, 0, 60, 0
3, 87200, Note_on_c, 0, 60, 54
3, 87209, Note_on_c, 0, 54, 35
3, 87230, Note_on_c, 0, 60, 0
3, 87268, Note_on_c, 0, 54, 0
3, 87375, Note_on_c, 0, 83, 74
3, 87380, Note_on_c, 0, 71, 80
3, 87441, Note_on_c, 0, 71, 0
3, 87461, Note_on_c, 0, 83, 0
3, 87526, Note_on_c, 0, 80, 49
3, 87574, Note_on_c, 0, 80, 0
3, 87673, Note_on_c, 0, 60, 69
3, 87675, Note_on_c, 0, 83, 87
3, 87676, Note_on_c, 0, 54, 74
3, 87678, Note_on_c, 0, 71, 88
3, 87681, Note_on_c, 0, 64, 69
3, 87690, Note_on_c, 0, 76, 55
3, 87717, Note_on_c, 0, 76, 0
3, 87823, Note_on_c, 0, 71, 0
3, 87842, Note_on_c, 0, 80, 57
3, 87887, Note_on_c, 0, 83, 0
3, 87947, Note_on_c, 0, 80, 0
3, 87951, Note_on_c, 0, 64, 0
3, 87957, Note_on_c, 0, 54, 0
3, 88000, Note_on_c, 0, 76, 58
3, 88039, Note_on_c, 0, 60, 0
3, 88077, Control_c, 0, 64, 127
3, 88112, Note_on_c, 0, 76, 0
3, 88143, Note_on_c, 0, 60, 28
3, 88154, Note_on_c, 0, 54, 47
3, 88162, Note_on_c, 0, 71, 48
3, 88196, Note_on_c, 0, 71, 0
3, 88238, Note_on_c, 0, 60, 0
3, 88241, Note_on_c, 0, 54, 0
3, 88326, Control_c, 0, 64, 0
3, 88335, Note_on_c, 0, 79, 69
3, 88335, Note_on_c, 0, 64, 62
3, 88345, Note_on_c, 0, 69, 66
3, 88349, Note_on_c, 0, 72, 57
3, 88377, Note_on_c, 0, 72, 0
3, 88395, Note_on_c, 0, 69, 0
3, 88398, Note_on_c, 0, 79, 0
3, 88465, Note_on_c, 0, 64, 0
3, 88492, Note_on_c, 0, 63, 47
3, 88593, Note_on_c, 0, 63, 0
3, 88639, Note_on_c, 0, 62, 50
3, 88642, Note_on_c, 0, 77, 62
3, 88650, Note_on_c, 0, 69, 62
3, 88658, Note_on_c, 0, 72, 58
3, 88712, Note_on_c, 0, 72, 0
3, 88719, Note_on_c, 0, 69, 0
3, 88730, Note_on_c, 0, 77, 0
3, 88776, Note_on_c, 0, 62, 0
3, 88790, Note_on_c, 0, 61, 45
3, 88913, Note_on_c, 0, 61, 0
3, 88931, Note_on_c, 0, 76, 58
3, 88950, Note_on_c, 0, 69, 57
3, 88960, Note_on_c, 0, 60, 45
3, 88962, Note_on_c, 0, 65, 48
3, 89022, Note_on_c, 0, 69, 0
3, 89026, Note_on_c, 0, 76, 0
3, 89050, Note_on_c, 0, 65, 0
3, 89103, Note_on_c, 0, 60, 0
3, 89120, Control_c, 0, 64, 127
3, 89121, Note_on_c, 0, 65, 63
3, 89127, Note_on_c, 0, 72, 53
3, 89146, Note_on_c, 0, 57, 52
3, 89247, Note_on_c, 0, 65, 0
3, 89256, Control_c, 0, 64, 0
3, 89257, Note_on_c, 0, 72, 0
3, 89271, Note_on_c, 0, 57, 0
3, 89305, Note_on_c, 0, 65, 58
3, 89306, Note_on_c, 0, 69, 64
3, 89314, Note_on_c, 0, 60, 62
3, 89322, Note_on_c, 0, 53, 49
3, 89380, Note_on_c, 0, 53, 0
3, 89521, Control_c, 0, 64, 127
3, 89527, Note_on_c, 0, 69, 0
3, 89545, Note_on_c, 0, 65, 0
3, 89550, Note_on_c, 0, 60, 0
3, 89611, Note_on_c, 0, 43, 42
3, 89687, Note_on_c, 0, 43, 0
3, 89758, Note_on_c, 0, 68, 60
3, 89762, Control_c, 0, 64, 0
3, 89763, Note_on_c, 0, 63, 61
3, 89766, Note_on_c, 0, 59, 51
3, 89776, Note_on_c, 0, 53, 54
3, 89962, Control_c, 0, 64, 127
3, 90057, Note_on_c, 0, 68, 0
3, 90079, Note_on_c, 0, 53, 0
3, 90094, Note_on_c, 0, 50, 55
3, 90096, Note_on_c, 0, 63, 0
3, 90109, Note_on_c, 0, 59, 0
3, 90218, Note_on_c, 0, 50, 0
3, 90228, Control_c, 0, 64, 0
3, 90242, Note_on_c, 0, 67, 51
3, 90247, Note_on_c, 0, 62, 49
3, 90258, Note_on_c, 0, 52, 43
3, 90258, Note_on_c, 0, 57, 46
3, 90398, Note_on_c, 0, 67, 0
3, 90432, Note_on_c, 0, 57, 0
3, 90447, Note_on_c, 0, 62, 0
3, 90476, Control_c, 0, 64, 127
3, 90557, Note_on_c, 0, 66, 47
3, 90562, Note_on_c, 0, 56, 46
3, 90563, Note_on_c, 0, 51, 50
3, 90568, Note_on_c, 0, 52, 0
3, 90574, Note_on_c, 0, 61, 40
3, 90643, Note_on_c, 0, 66, 0
3, 90651, Note_on_c, 0, 56, 0
3, 90658, Note_on_c, 0, 61, 0
3, 90676, Control_c, 0, 64, 0
3, 90697, Note_on_c, 0, 51, 0
3, 90713, Note_on_c, 0, 67, 51
3, 90719, Note_on_c, 0, 62, 37
3, 90720, Note_on_c, 0, 57, 47
3, 90734, Note_on_c, 0, 52, 44
3, 90922, Note_on_c, 0, 67, 0
3, 90934, Control_c, 0, 64, 127
3, 90951, Note_on_c, 0, 57, 0
3, 90975, Note_on_c, 0, 62, 0
3, 91036, Note_on_c, 0, 51, 49
3, 91055, Note_on_c, 0, 52, 0
3, 91134, Control_c, 0, 64, 0
3, 91135, Note_on_c, 0, 51, 0
3, 91186, Note_on_c, 0, 52, 59
3, 91512, Note_on_c, 0, 72, 84
3, 91513, Note_on_c, 0, 51, 34
3, 91599, Note_on_c, 0, 51, 0
3, 91600, Note_on_c, 0, 52, 0
3, 91627, Note_on_c, 0, 72, 0
3, 91682, Note_on_c, 0, 69, 42
3, 91775, Note_on_c, 0, 69, 0
3, 91799, Note_on_c, 0, 70, 56
3, 91858, Note_on_c, 0, 70, 0
3, 91927, Note_on_c, 0, 74, 46
3, 91948, Note_on_c, 0, 76, 31
3, 91978, Note_on_c, 0, 76, 0
3, 91999, Note_on_c, 0, 74, 0
3, 92052, Note_on_c, 0, 78, 56
3, 92124, Note_on_c, 0, 78, 0
3, 92139, Note_on_c, 0, 62, 44
3, 92143, Note_on_c, 0, 58, 49
3, 92154, Note_on_c, 0, 81, 77
3, 92168, Note_on_c, 0, 57, 24
3, 92264, Note_on_c, 0, 81, 0
3, 92319, Note_on_c, 0, 78, 31
3, 92346, Note_on_c, 0, 78, 0
3, 92402, Note_on_c, 0, 81, 80
3, 92514, Note_on_c, 0, 81, 0
3, 92535, Note_on_c, 0, 78, 65
3, 92609, Note_on_c, 0, 78, 0
3, 92634, Note_on_c, 0, 74, 40
3, 92703, Note_on_c, 0, 74, 0
3, 92768, Note_on_c, 0, 70, 56
3, 92841, Note_on_c, 0, 70, 0
3, 92855, Note_on_c, 0, 62, 0
3, 92886, Note_on_c, 0, 57, 0
3, 92906, Note_on_c, 0, 58, 0
3, 93427, Note_on_c, 0, 63, 64
3, 93431, Note_on_c, 0, 58, 50
3, 93449, Note_on_c, 0, 52, 46
3, 93482, Note_on_c, 0, 52, 0
3, 93489, Note_on_c, 0, 63, 0
3, 93516, Note_on_c, 0, 58, 0
3, 93599, Note_on_c, 0, 87, 83
3, 93686, Note_on_c, 0, 87, 0
3, 93774, Note_on_c, 0, 84, 38
3, 93804, Note_on_c, 0, 84, 0
3, 94387, Note_on_c, 0, 64, 58
3, 94396, Note_on_c, 0, 57, 58
3, 94397, Note_on_c, 0, 60, 46
3, 94430, Note_on_c, 0, 64, 0
3, 94439, Note_on_c, 0, 60, 0
3, 94505, Note_on_c, 0, 57, 0
3, 94751, Note_on_c, 0, 86, 80
3, 94759, Note_on_c, 0, 74, 71
3, 94815, Note_on_c, 0, 74, 0
3, 94834, Note_on_c, 0, 86, 0
3, 94905, Note_on_c, 0, 84, 40
3, 94954, Note_on_c, 0, 84, 0
3, 95049, Note_on_c, 0, 86, 77
3, 95057, Note_on_c, 0, 74, 63
3, 95120, Note_on_c, 0, 74, 0
3, 95138, Note_on_c, 0, 86, 0
3, 95215, Note_on_c, 0, 84, 49
3, 95266, Note_on_c, 0, 84, 0
3, 95355, Note_on_c, 0, 63, 76
3, 95362, Note_on_c, 0, 86, 81
3, 95365, Note_on_c, 0, 74, 77
3, 95366, Note_on_c, 0, 54, 60
3, 95373, Note_on_c, 0, 60, 55
3, 95374, Note_on_c, 0, 57, 55
3, 95498, Note_on_c, 0, 74, 0
3, 95514, Note_on_c, 0, 86, 0
3, 95541, Note_on_c, 0, 84, 26
3, 95597, Note_on_c, 0, 84, 0
3, 95682, Note_on_c, 0, 86, 77
3, 95686, Note_on_c, 0, 74, 64
3, 95744, Note_on_c, 0, 60, 0
3, 95757, Note_on_c, 0, 74, 0
3, 95767, Note_on_c, 0, 86, 0
3, 95784, Note_on_c, 0, 57, 0
3, 95801, Note_on_c, 0, 63, 0
3, 95826, Control_c, 0, 64, 127
3, 95842, Note_on_c, 0, 84, 58
3, 95907, Note_on_c, 0, 84, 0
3, 95914, Note_on_c, 0, 54, 0
3, 95971, Control_c, 0, 64, 0
3, 95994, Note_on_c, 0, 58, 49
3, 95995, Note_on_c, 0, 62, 54
3, 96003, Note_on_c, 0, 84, 73
3, 96007, Note_on_c, 0, 57, 39
3, 96010, Note_on_c, 0, 53, 34
3, 96011, Note_on_c, 0, 72, 74
3, 96199, Note_on_c, 0, 84, 0
3, 96202, Note_on_c, 0, 72, 0
3, 96213, Note_on_c, 0, 53, 0
3, 96215, Note_on_c, 0, 62, 0
3, 96241, Note_on_c, 0, 57, 0
3, 96242, Note_on_c, 0, 58, 0
3, 96270, Control_c, 0, 64, 127
3, 96311, Note_on_c, 0, 84, 71
3, 96317, Note_on_c, 0, 62, 39
3, 96323, Note_on_c, 0, 72, 64
3, 96328, Note_on_c, 0, 58, 48
3, 96333, Note_on_c, 0, 53, 37
3, 96342, Note_on_c, 0, 57, 37
3, 96380, Note_on_c, 0, 57, 0
3, 96401, Note_on_c, 0, 72, 0
3, 96403, Note_on_c, 0, 62, 0
3, 96407, Note_on_c, 0, 53, 0
3, 96431, Note_on_c, 0, 84, 0
3, 96436, Note_on_c, 0, 58, 0
3, 96463, Control_c, 0, 64, 0
3, 96466, Note_on_c, 0, 62, 28
3, 96492, Note_on_c, 0, 57, 14
3, 96502, Note_on_c, 0, 58, 25
3, 96507, Note_on_c, 0, 81, 50
3, 96565, Note_on_c, 0, 81, 0
3, 96568, Note_on_c, 0, 62, 0
3, 96591, Note_on_c, 0, 58, 0
3, 96672, Note_on_c, 0, 57, 0
3, 96735, Control_c, 0, 64, 127
3, 96774, Note_on_c, 0, 58, 62
3, 96775, Note_on_c, 0, 84, 57
3, 96786, Note_on_c, 0, 72, 68
3, 96802, Note_on_c, 0, 84, 0
3, 96831, Note_on_c, 0, 72, 0
3, 96859, Note_on_c, 0, 58, 0
3, 96974, Note_on_c, 0, 75, 81
3, 96978, Note_on_c, 0, 64, 80
3, 96980, Note_on_c, 0, 68, 70
3, 96981, Note_on_c, 0, 63, 82
3, 96984, Control_c, 0, 64, 0
3, 97154, Note_on_c, 0, 63, 0
3, 97158, Note_on_c, 0, 68, 0
3, 97161, Note_on_c, 0, 75, 0
3, 97179, Note_on_c, 0, 62, 45
3, 97185, Control_c, 0, 64, 127
3, 97195, Note_on_c, 0, 64, 0
3, 97208, Note_on_c, 0, 62, 0
3, 97210, Note_on_c, 0, 61, 48
3, 97312, Note_on_c, 0, 61, 0
3, 97321, Control_c, 0, 64, 0
3, 97327, Note_on_c, 0, 72, 64
3, 97332, Note_on_c, 0, 60, 78
3, 97336, Note_on_c, 0, 64, 68
3, 97338, Note_on_c, 0, 61, 36
3, 97342, Note_on_c, 0, 67, 43
3, 97363, Note_on_c, 0, 70, 25
3, 97538, Control_c, 0, 64, 127
3, 97575, Note_on_c, 0, 67, 0
3, 97587, Note_on_c, 0, 60, 0
3, 97629, Note_on_c, 0, 64, 0
3, 97663, Note_on_c, 0, 72, 0
3, 97687, Note_on_c, 0, 67, 42
3, 97692, Note_on_c, 0, 61, 0
3, 97706, Note_on_c, 0, 64, 60
3, 97713, Note_on_c, 0, 57, 31
3, 97739, Note_on_c, 0, 70, 0
3, 97757, Note_on_c, 0, 57, 0
3, 97762, Note_on_c, 0, 67, 0
3, 97801, Note_on_c, 0, 61, 27
3, 97803, Note_on_c, 0, 64, 0
3, 97853, Note_on_c, 0, 61, 0
3, 97863, Note_on_c, 0, 52, 52
3, 97939, Control_c, 0, 64, 0
3, 97949, Note_on_c, 0, 52, 0
3, 97962, Note_on_c, 0, 67, 59
3, 97971, Note_on_c, 0, 57, 62
3, 97972, Note_on_c, 0, 55, 70
3, 97985, Note_on_c, 0, 60, 57
3, 97994, Note_on_c, 0, 64, 25
3, 98086, Note_on_c, 0, 64, 0
3, 98112, Note_on_c, 0, 67, 0
3, 98123, Note_on_c, 0, 60, 0
3, 98148, Note_on_c, 0, 57, 0
3, 98162, Note_on_c, 0, 55, 0
3, 98172, Note_on_c, 0, 54, 57
3, 98213, Note_on_c, 0, 66, 29
3, 98220, Note_on_c, 0, 57, 19
3, 98234, Note_on_c, 0, 54, 0
3, 98240, Note_on_c, 0, 66, 0
3, 98265, Note_on_c, 0, 53, 54
3, 98282, Note_on_c, 0, 57, 0
3, 98284, Control_c, 0, 64, 127
3, 98292, Note_on_c, 0, 53, 0
3, 98324, Control_c, 0, 64, 0
3, 98331, Note_on_c, 0, 52, 44
3, 98346, Note_on_c, 0, 64, 69
3, 98559, Note_on_c, 0, 52, 0
3, 98595, Note_on_c, 0, 64, 0
3, 98607, Note_on_c, 0, 53, 43
3, 98608, Note_on_c, 0, 48, 46
3, 98610, Note_on_c, 0, 60, 51
3, 98615, Note_on_c, 0, 57, 36
3, 98658, Note_on_c, 0, 53, 0
3, 98664, Note_on_c, 0, 57, 0
3, 98674, Note_on_c, 0, 60, 0
3, 98743, Note_on_c, 0, 48, 0
3, 98770, Note_on_c, 0, 62, 71
3, 98785, Note_on_c, 0, 53, 47
3, 98797, Note_on_c, 0, 52, 64
3, 98846, Note_on_c, 0, 53, 0
3, 98879, Note_on_c, 0, 52, 0
3, 98887, Note_on_c, 0, 62, 0
3, 98930, Note_on_c, 0, 48, 43
3, 99038, Note_on_c, 0, 48, 0
3, 99053, Note_on_c, 0, 60, 57
3, 99057, Note_on_c, 0, 53, 31
3, 99059, Note_on_c, 0, 57, 44
3, 99064, Note_on_c, 0, 50, 40
3, 99236, Note_on_c, 0, 57, 0
3, 99245, Note_on_c, 0, 53, 0
3, 99395, Note_on_c, 0, 60, 0
3, 99401, Note_on_c, 0, 57, 56
3, 99402, Note_on_c, 0, 53, 27
3, 99423, Control_c, 0, 64, 127
3, 99615, Note_on_c, 0, 50, 0
3, 99621, Note_on_c, 0, 53, 0
3, 99649, Note_on_c, 0, 57, 0
3, 99703, Note_on_c, 0, 48, 49
3, 99792, Note_on_c, 0, 48, 0
3, 99824, Control_c, 0, 64, 0
3, 99852, Note_on_c, 0, 56, 45
3, 99854, Note_on_c, 0, 53, 40
3, 99855, Note_on_c, 0, 41, 48
3, 99856, Note_on_c, 0, 63, 30
3, 99863, Note_on_c, 0, 60, 36
3, 99865, Note_on_c, 0, 51, 30
3, 99907, Note_on_c, 0, 53, 0
3, 99917, Note_on_c, 0, 41, 0
3, 99937, Control_c, 0, 64, 127
3, 99951, Note_on_c, 0, 60, 0
3, 99953, Note_on_c, 0, 56, 0
3, 99960, Note_on_c, 0, 51, 0
3, 99983, Note_on_c, 0, 63, 0
3, 100188, Note_on_c, 0, 72, 74
3, 100191, Note_on_c, 0, 68, 72
3, 100196, Note_on_c, 0, 53, 65
3, 100202, Note_on_c, 0, 63, 79
3, 100208, Note_on_c, 0, 58, 69
3, 100249, Control_c, 0, 64, 0
3, 100362, Control_c, 0, 64, 127
3, 100380, Note_on_c, 0, 53, 0
3, 100427, Note_on_c, 0, 58, 0
3, 100443, Note_on_c, 0, 63, 0
3, 100471, Note_on_c, 0, 68, 0
3, 100482, Note_on_c, 0, 72, 0
3, 100516, Note_on_c, 0, 74, 64
3, 100526, Note_on_c, 0, 70, 76
3, 100526, Note_on_c, 0, 65, 77
3, 100529, Note_on_c, 0, 60, 59
3, 100535, Note_on_c, 0, 55, 65
3, 100538, Control_c, 0, 64, 0
3, 100578, Control_c, 0, 64, 127
3, 100671, Note_on_c, 0, 55, 0
3, 100674, Note_on_c, 0, 60, 0
3, 100731, Note_on_c, 0, 65, 0
3, 100800, Note_on_c, 0, 70, 0
3, 100806, Note_on_c, 0, 74, 0
3, 100903, Note_on_c, 0, 75, 69
3, 100910, Note_on_c, 0, 70, 82
3, 100921, Note_on_c, 0, 66, 81
3, 100922, Note_on_c, 0, 56, 77
3, 100928, Note_on_c, 0, 61, 75
3, 100931, Control_c, 0, 64, 0
3, 101172, Control_c, 0, 64, 127
3, 101252, Control_c, 0, 64, 0
3, 101308, Control_c, 0, 64, 127
3, 101551, Note_on_c, 0, 56, 0
3, 101567, Note_on_c, 0, 75, 0
3, 101594, Note_on_c, 0, 70, 0
3, 101609, Note_on_c, 0, 56, 53
3, 101632, Note_on_c, 0, 70, 49
3, 101700, Note_on_c, 0, 66, 0
3, 101723, Note_on_c, 0, 61, 0
3, 101737, Note_on_c, 0, 70, 0
3, 101753, Note_on_c, 0, 56, 0
3, 101790, Control_c, 0, 64, 0
3, 101791, Note_on_c, 0, 67, 37
3, 101801, Note_on_c, 0, 65, 68
3, 101807, Note_on_c, 0, 72, 54
3, 101811, Note_on_c, 0, 62, 50
3, 101822, Note_on_c, 0, 55, 50
3, 101824, Note_on_c, 0, 60, 41
3, 102264, Control_c, 0, 64, 127
3, 102295, Note_on_c, 0, 62, 0
3, 102298, Note_on_c, 0, 65, 0
3, 102311, Note_on_c, 0, 60, 0
3, 102358, Note_on_c, 0, 72, 0
3, 102378, Note_on_c, 0, 55, 0
3, 102399, Note_on_c, 0, 67, 0
3, 102730, Note_on_c, 0, 55, 64
3, 102730, Note_on_c, 0, 70, 52
3, 102734, Note_on_c, 0, 61, 58
3, 102735, Note_on_c, 0, 64, 62
3, 102744, Control_c, 0, 64, 0
3, 102746, Note_on_c, 0, 67, 43
3, 102945, Control_c, 0, 64, 127
3, 103032, Note_on_c, 0, 55, 0
3, 103050, Note_on_c, 0, 70, 0
3, 103088, Note_on_c, 0, 64, 0
3, 103089, Note_on_c, 0, 52, 57
3, 103090, Note_on_c, 0, 61, 0
3, 103091, Note_on_c, 0, 67, 0
3, 103146, Control_c, 0, 64, 0
3, 103187, Note_on_c, 0, 52, 0
3, 103223, Note_on_c, 0, 61, 64
3, 103224, Note_on_c, 0, 55, 75
3, 103225, Note_on_c, 0, 70, 64
3, 103231, Note_on_c, 0, 64, 65
3, 103237, Note_on_c, 0, 67, 48
3, 103282, Control_c, 0, 64, 127
3, 103408, Note_on_c, 0, 64, 0
3, 103439, Note_on_c, 0, 55, 0
3, 103474, Note_on_c, 0, 67, 0
3, 103475, Note_on_c, 0, 70, 0
3, 103482, Note_on_c, 0, 61, 0
3, 103548, Note_on_c, 0, 70, 57
3, 103554, Note_on_c, 0, 58, 74
3, 103558, Note_on_c, 0, 63, 67
3, 103559, Note_on_c, 0, 67, 57
3, 103562, Note_on_c, 0, 60, 68
3, 103611, Control_c, 0, 64, 0
3, 103699, Note_on_c, 0, 67, 0
3, 103727, Note_on_c, 0, 60, 0
3, 103743, Note_on_c, 0, 63, 0
3, 103772, Note_on_c, 0, 70, 0
3, 103786, Note_on_c, 0, 58, 0
3, 103809, Note_on_c, 0, 63, 18
3, 103817, Note_on_c, 0, 60, 40
3, 103826, Note_on_c, 0, 67, 12
3, 103831, Note_on_c, 0, 56, 35
3, 103946, Note_on_c, 0, 60, 0
3, 103956, Control_c, 0, 64, 127
3, 103970, Note_on_c, 0, 63, 0
3, 103986, Note_on_c, 0, 67, 0
3, 104026, Note_on_c, 0, 56, 0
3, 104036, Note_on_c, 0, 70, 71
3, 104054, Note_on_c, 0, 58, 35
3, 104055, Note_on_c, 0, 60, 48
3, 104055, Note_on_c, 0, 63, 46
3, 104062, Note_on_c, 0, 67, 47
3, 104082, Note_on_c, 0, 58, 0
3, 104111, Note_on_c, 0, 60, 0
3, 104118, Note_on_c, 0, 70, 0
3, 104124, Control_c, 0, 64, 0
3, 104155, Note_on_c, 0, 63, 0
3, 104182, Note_on_c, 0, 56, 34
3, 104206, Note_on_c, 0, 63, 19
3, 104413, Control_c, 0, 64, 127
3, 104428, Note_on_c, 0, 67, 0
3, 104433, Note_on_c, 0, 63, 0
3, 104479, Note_on_c, 0, 58, 46
3, 104491, Note_on_c, 0, 63, 28
3, 104498, Note_on_c, 0, 70, 59
3, 104507, Note_on_c, 0, 58, 0
3, 104519, Note_on_c, 0, 67, 38
3, 104519, Note_on_c, 0, 60, 36
3, 104528, Note_on_c, 0, 56, 0
3, 104567, Note_on_c, 0, 63, 0
3, 104578, Note_on_c, 0, 60, 0
3, 104585, Note_on_c, 0, 70, 0
3, 104586, Note_on_c, 0, 67, 0
3, 104630, Control_c, 0, 64, 0
3, 104634, Note_on_c, 0, 60, 37
3, 104646, Note_on_c, 0, 54, 52
3, 104655, Note_on_c, 0, 65, 55
3, 104911, Control_c, 0, 64, 127
3, 104991, Control_c, 0, 64, 0
3, 105025, Note_on_c, 0, 65, 0
3, 105084, Note_on_c, 0, 44, 51
3, 105106, Note_on_c, 0, 60, 0
3, 105175, Control_c, 0, 64, 127
3, 105346, Note_on_c, 0, 54, 0
3, 105409, Note_on_c, 0, 44, 0
3, 105424, Note_on_c, 0, 67, 38
3, 105427, Note_on_c, 0, 65, 46
3, 105433, Note_on_c, 0, 57, 46
3, 105434, Note_on_c, 0, 60, 51
3, 105449, Note_on_c, 0, 55, 44
3, 105464, Control_c, 0, 64, 0
3, 105594, Note_on_c, 0, 57, 0
3, 105601, Control_c, 0, 64, 127
3, 105629, Note_on_c, 0, 65, 0
3, 105643, Note_on_c, 0, 60, 0
3, 105667, Note_on_c, 0, 67, 0
3, 105912, Note_on_c, 0, 43, 47
3, 105922, Note_on_c, 0, 79, 64
3, 105946, Note_on_c, 0, 43, 0
3, 105986, Control_c, 0, 64, 0
3, 105993, Note_on_c, 0, 55, 0
3, 106030, Note_on_c, 0, 79, 0
3, 106090, Note_on_c, 0, 67, 43
3, 106368, Note_on_c, 0, 67, 0
3, 106392, Note_on_c, 0, 64, 47
3, 106393, Note_on_c, 0, 68, 60
3, 106402, Note_on_c, 0, 59, 47
3, 106426, Note_on_c, 0, 53, 30
3, 106604, Control_c, 0, 64, 127
3, 106841, Note_on_c, 0, 53, 0
3, 106850, Note_on_c, 0, 64, 0
3, 106897, Note_on_c, 0, 59, 0
3, 107013, Control_c, 0, 64, 0
3, 107038, Note_on_c, 0, 63, 52
3, 107048, Note_on_c, 0, 59, 47
3, 107056, Note_on_c, 0, 53, 26
3, 107066, Note_on_c, 0, 56, 36
3, 107194, Note_on_c, 0, 59, 0
3, 107197, Control_c, 0, 64, 127
3, 107318, Note_on_c, 0, 53, 0
3, 107363, Note_on_c, 0, 63, 0
3, 107441, Note_on_c, 0, 56, 0
3, 107490, Note_on_c, 0, 68, 0
3, 107507, Note_on_c, 0, 62, 47
3, 107510, Control_c, 0, 64, 0
3, 107518, Note_on_c, 0, 57, 50
3, 107524, Note_on_c, 0, 52, 39
3, 107852, Note_on_c, 0, 74, 74
3, 107954, Note_on_c, 0, 74, 0
3, 108011, Note_on_c, 0, 71, 29
3, 108077, Note_on_c, 0, 57, 0
3, 108103, Note_on_c, 0, 52, 0
3, 108177, Note_on_c, 0, 71, 0
3, 108205, Note_on_c, 0, 72, 47
3, 108287, Note_on_c, 0, 72, 0
3, 108310, Note_on_c, 0, 62, 0
3, 108320, Control_c, 0, 64, 127
3, 108341, Note_on_c, 0, 74, 50
3, 108448, Control_c, 0, 64, 0
3, 108467, Note_on_c, 0, 74, 0
3, 108495, Note_on_c, 0, 64, 32
3, 108495, Note_on_c, 0, 61, 36
3, 108499, Note_on_c, 0, 58, 37
3, 108503, Note_on_c, 0, 55, 33
3, 108513, Note_on_c, 0, 76, 62
3, 108745, Control_c, 0, 64, 127
3, 108914, Control_c, 0, 64, 0
3, 108986, Note_on_c, 0, 64, 0
3, 108993, Note_on_c, 0, 55, 0
3, 109002, Note_on_c, 0, 58, 0
3, 109010, Note_on_c, 0, 61, 0
3, 109034, Control_c, 0, 64, 127
3, 109306, Note_on_c, 0, 76, 0
3, 109340, Note_on_c, 0, 60, 54
3, 109341, Note_on_c, 0, 57, 43
3, 109352, Note_on_c, 0, 50, 36
3, 109358, Note_on_c, 0, 53, 42
3, 109379, Control_c, 0, 64, 0
3, 109732, Control_c, 0, 64, 127
3, 109788, Note_on_c, 0, 76, 83
3, 109866, Note_on_c, 0, 53, 0
3, 109889, Note_on_c, 0, 50, 0
3, 109901, Note_on_c, 0, 76, 0
3, 109902, Note_on_c, 0, 57, 0
3, 109917, Control_c, 0, 64, 0
3, 109951, Note_on_c, 0, 60, 0
3, 109967, Note_on_c, 0, 73, 36
3, 110087, Note_on_c, 0, 73, 0
3, 110108, Note_on_c, 0, 74, 41
3, 110157, Control_c, 0, 64, 127
3, 110191, Note_on_c, 0, 74, 0
3, 110263, Note_on_c, 0, 76, 66
3, 110358, Control_c, 0, 64, 0
3, 110363, Note_on_c, 0, 76, 0
3, 110423, Note_on_c, 0, 77, 79
3, 110558, Note_on_c, 0, 77, 0
3, 110596, Note_on_c, 0, 73, 33
3, 110647, Control_c, 0, 64, 127
3, 110676, Note_on_c, 0, 73, 0
3, 110725, Note_on_c, 0, 76, 77
3, 110778, Note_on_c, 0, 64, 26
3, 110792, Note_on_c, 0, 60, 29
3, 110801, Note_on_c, 0, 57, 30
3, 110816, Note_on_c, 0, 64, 0
3, 110863, Control_c, 0, 64, 0
3, 110874, Note_on_c, 0, 76, 0
3, 110895, Note_on_c, 0, 60, 0
3, 110899, Note_on_c, 0, 74, 40
3, 110938, Note_on_c, 0, 57, 0
3, 111006, Note_on_c, 0, 74, 0
3, 111054, Note_on_c, 0, 69, 44
3, 111097, Note_on_c, 0, 69, 0
3, 111144, Control_c, 0, 64, 127
3, 111210, Note_on_c, 0, 72, 81
3, 111242, Note_on_c, 0, 64, 35
3, 111257, Note_on_c, 0, 60, 27
3, 111281, Note_on_c, 0, 57, 20
3, 111298, Note_on_c, 0, 64, 0
3, 111339, Note_on_c, 0, 60, 0
3, 111341, Note_on_c, 0, 72, 0
3, 111354, Control_c, 0, 64, 0
3, 111364, Note_on_c, 0, 57, 0
3, 111365, Note_on_c, 0, 74, 35
3, 111429, Note_on_c, 0, 72, 35
3, 111445, Note_on_c, 0, 74, 0
3, 111533, Note_on_c, 0, 72, 0
3, 111539, Note_on_c, 0, 69, 45
3, 111580, Note_on_c, 0, 69, 0
3, 111698, Note_on_c, 0, 70, 69
3, 111762, Control_c, 0, 64, 127
3, 111784, Note_on_c, 0, 70, 0
3, 111842, Control_c, 0, 64, 0
3, 111847, Note_on_c, 0, 71, 56
3, 111868, Note_on_c, 0, 64, 26
3, 111922, Note_on_c, 0, 64, 0
3, 111935, Note_on_c, 0, 71, 0
3, 111999, Note_on_c, 0, 74, 53
3, 112095, Note_on_c, 0, 74, 0
3, 112155, Control_c, 0, 64, 127
3, 112316, Note_on_c, 0, 64, 52
3, 112323, Control_c, 0, 64, 0
3, 112324, Note_on_c, 0, 59, 49
3, 112338, Note_on_c, 0, 53, 24
3, 112548, Control_c, 0, 64, 127
3, 112574, Note_on_c, 0, 87, 82
3, 112637, Note_on_c, 0, 64, 0
3, 112646, Note_on_c, 0, 53, 0
3, 112658, Note_on_c, 0, 87, 0
3, 112704, Note_on_c, 0, 59, 0
3, 112781, Control_c, 0, 64, 0
3, 112786, Note_on_c, 0, 63, 60
3, 112797, Note_on_c, 0, 59, 51
3, 112798, Note_on_c, 0, 85, 69
3, 112805, Note_on_c, 0, 56, 36
3, 112834, Note_on_c, 0, 85, 0
3, 112871, Note_on_c, 0, 53, 7
3, 112887, Note_on_c, 0, 87, 43
3, 112939, Note_on_c, 0, 63, 0
3, 112949, Note_on_c, 0, 59, 0
3, 112957, Note_on_c, 0, 85, 49
3, 112984, Note_on_c, 0, 53, 0
3, 113022, Control_c, 0, 64, 127
3, 113031, Note_on_c, 0, 87, 0
3, 113048, Note_on_c, 0, 85, 0
3, 113098, Note_on_c, 0, 56, 0
3, 113231, Control_c, 0, 64, 0
3, 113274, Note_on_c, 0, 62, 40
3, 113280, Note_on_c, 0, 57, 49
3, 113282, Note_on_c, 0, 52, 31
3, 113575, Control_c, 0, 64, 127
3, 113591, Note_on_c, 0, 86, 90
3, 113687, Control_c, 0, 64, 0
3, 113750, Note_on_c, 0, 62, 0
3, 113757, Note_on_c, 0, 85, 63
3, 113826, Note_on_c, 0, 86, 0
3, 113830, Note_on_c, 0, 84, 57
3, 113833, Note_on_c, 0, 57, 0
3, 113855, Note_on_c, 0, 52, 0
3, 113864, Note_on_c, 0, 85, 0
3, 113939, Note_on_c, 0, 84, 0
3, 113949, Note_on_c, 0, 83, 40
3, 113979, Note_on_c, 0, 83, 0
3, 114111, Note_on_c, 0, 80, 76
3, 114206, Note_on_c, 0, 80, 0
3, 114247, Note_on_c, 0, 83, 79
3, 114351, Note_on_c, 0, 83, 0
3, 114397, Note_on_c, 0, 81, 70
3, 114479, Note_on_c, 0, 81, 0
3, 114543, Note_on_c, 0, 74, 44
3, 114550, Note_on_c, 0, 76, 43
3, 114579, Note_on_c, 0, 76, 0
3, 114607, Note_on_c, 0, 74, 0
3, 114799, Note_on_c, 0, 71, 55
3, 114917, Note_on_c, 0, 71, 0
3, 114954, Note_on_c, 0, 74, 68
3, 115061, Note_on_c, 0, 74, 0
3, 115103, Note_on_c, 0, 72, 72
3, 115128, Note_on_c, 0, 74, 31
3, 115139, Note_on_c, 0, 64, 38
3, 115147, Control_c, 0, 64, 127
3, 115156, Note_on_c, 0, 60, 35
3, 115164, Note_on_c, 0, 57, 32
3, 115170, Note_on_c, 0, 74, 0
3, 115171, Note_on_c, 0, 64, 0
3, 115183, Note_on_c, 0, 72, 0
3, 115195, Control_c, 0, 64, 0
3, 115218, Note_on_c, 0, 60, 0
3, 115274, Note_on_c, 0, 57, 0
3, 115274, Note_on_c, 0, 68, 48
3, 115382, Note_on_c, 0, 68, 0
3, 115443, Note_on_c, 0, 71, 66
3, 115571, Note_on_c, 0, 71, 0
3, 115584, Note_on_c, 0, 68, 75
3, 115607, Note_on_c, 0, 64, 57
3, 115635, Note_on_c, 0, 64, 0
3, 115642, Note_on_c, 0, 60, 24
3, 115662, Note_on_c, 0, 68, 0
3, 115670, Note_on_c, 0, 60, 0
3, 115741, Note_on_c, 0, 69, 74
3, 115839, Note_on_c, 0, 69, 0
3, 116021, Note_on_c, 0, 64, 79
3, 116058, Note_on_c, 0, 52, 33
3, 116142, Note_on_c, 0, 64, 0
3, 116143, Note_on_c, 0, 52, 0
3, 116202, Note_on_c, 0, 62, 36
3, 116415, Note_on_c, 0, 62, 0
3, 116431, Control_c, 0, 64, 127
3, 116496, Note_on_c, 0, 60, 70
3, 116538, Note_on_c, 0, 52, 27
3, 116576, Note_on_c, 0, 52, 0
3, 116623, Control_c, 0, 64, 0
3, 116640, Note_on_c, 0, 60, 0
3, 116685, Note_on_c, 0, 59, 46
3, 116928, Control_c, 0, 64, 127
3, 116960, Note_on_c, 0, 59, 0
3, 116970, Note_on_c, 0, 60, 71
3, 117026, Note_on_c, 0, 47, 30
3, 117037, Note_on_c, 0, 60, 0
3, 117058, Note_on_c, 0, 47, 0
3, 117139, Note_on_c, 0, 64, 55
3, 117145, Control_c, 0, 64, 0
3, 117147, Note_on_c, 0, 54, 69
3, 117167, Note_on_c, 0, 56, 53
3, 117177, Note_on_c, 0, 53, 42
3, 117181, Note_on_c, 0, 52, 43
3, 117185, Note_on_c, 0, 60, 43
3, 117220, Note_on_c, 0, 53, 0
3, 117410, Control_c, 0, 64, 127
3, 117459, Note_on_c, 0, 64, 0
3, 117506, Control_c, 0, 64, 0
3, 117514, Note_on_c, 0, 54, 0
3, 117514, Note_on_c, 0, 56, 0
3, 117546, Note_on_c, 0, 60, 0
3, 117566, Note_on_c, 0, 52, 0
3, 117593, Note_on_c, 0, 51, 55
3, 117611, Note_on_c, 0, 54, 37
3, 117614, Note_on_c, 0, 56, 32
3, 117615, Note_on_c, 0, 60, 20
3, 117624, Note_on_c, 0, 63, 32
3, 117698, Control_c, 0, 64, 127
3, 117754, Note_on_c, 0, 56, 0
3, 117763, Note_on_c, 0, 54, 0
3, 117774, Note_on_c, 0, 60, 0
3, 117794, Note_on_c, 0, 63, 0
3, 117916, Note_on_c, 0, 62, 53
3, 117919, Note_on_c, 0, 56, 51
3, 117930, Note_on_c, 0, 54, 29
3, 117937, Note_on_c, 0, 60, 38
3, 117938, Note_on_c, 0, 51, 0
3, 117947, Control_c, 0, 64, 0
3, 117955, Note_on_c, 0, 50, 44
3, 117958, Note_on_c, 0, 54, 0
3, 117973, Note_on_c, 0, 60, 0
3, 117986, Note_on_c, 0, 56, 0
3, 118020, Note_on_c, 0, 62, 0
3, 118124, Control_c, 0, 64, 127
3, 118346, Note_on_c, 0, 84, 82
3, 118354, Note_on_c, 0, 72, 72
3, 118378, Note_on_c, 0, 38, 38
3, 118398, Note_on_c, 0, 50, 0
3, 118408, Note_on_c, 0, 72, 0
3, 118409, Note_on_c, 0, 38, 0
3, 118432, Note_on_c, 0, 84, 0
3, 118461, Control_c, 0, 64, 0
3, 118507, Note_on_c, 0, 81, 46
3, 118563, Note_on_c, 0, 81, 0
3, 118647, Note_on_c, 0, 84, 76
3, 118650, Note_on_c, 0, 72, 68
3, 118713, Note_on_c, 0, 72, 0
3, 118736, Note_on_c, 0, 84, 0
3, 118804, Note_on_c, 0, 81, 47
3, 118807, Control_c, 0, 64, 127
3, 118859, Note_on_c, 0, 81, 0
3, 118921, Note_on_c, 0, 60, 40
3, 118924, Note_on_c, 0, 64, 47
3, 118925, Note_on_c, 0, 84, 74
3, 118927, Control_c, 0, 64, 0
3, 118935, Note_on_c, 0, 57, 48
3, 118935, Note_on_c, 0, 72, 64
3, 118938, Note_on_c, 0, 53, 30
3, 119033, Note_on_c, 0, 72, 0
3, 119035, Note_on_c, 0, 84, 0
3, 119058, Note_on_c, 0, 57, 0
3, 119082, Note_on_c, 0, 64, 0
3, 119094, Note_on_c, 0, 81, 38
3, 119109, Note_on_c, 0, 53, 0
3, 119184, Note_on_c, 0, 81, 0
3, 119194, Note_on_c, 0, 60, 0
3, 119242, Note_on_c, 0, 84, 57
3, 119256, Note_on_c, 0, 72, 47
3, 119333, Note_on_c, 0, 72, 0
3, 119335, Control_c, 0, 64, 127
3, 119343, Note_on_c, 0, 84, 0
3, 119395, Note_on_c, 0, 81, 38
3, 119483, Note_on_c, 0, 81, 0
3, 119503, Control_c, 0, 64, 0
3, 119516, Note_on_c, 0, 64, 39
3, 119518, Note_on_c, 0, 60, 36
3, 119530, Note_on_c, 0, 57, 49
3, 119535, Note_on_c, 0, 84, 66
3, 119543, Note_on_c, 0, 53, 33
3, 119554, Note_on_c, 0, 72, 57
3, 119727, Note_on_c, 0, 53, 0
3, 119735, Note_on_c, 0, 60, 0
3, 119742, Note_on_c, 0, 57, 0
3, 119748, Note_on_c, 0, 64, 0
3, 119766, Note_on_c, 0, 84, 0
3, 119768, Note_on_c, 0, 72, 0
3, 119817, Control_c, 0, 64, 127
3, 119879, Note_on_c, 0, 81, 47
3, 119883, Note_on_c, 0, 57, 40
3, 119914, Note_on_c, 0, 81, 0
3, 119927, Note_on_c, 0, 57, 0
3, 119953, Control_c, 0, 64, 0
3, 120006, Note_on_c, 0, 64, 64
3, 120011, Note_on_c, 0, 53, 33
3, 120021, Note_on_c, 0, 71, 43
3, 120023, Note_on_c, 0, 83, 39
3, 120033, Note_on_c, 0, 59, 48
3, 120114, Control_c, 0, 64, 127
3, 120171, Note_on_c, 0, 64, 0
3, 120174, Note_on_c, 0, 71, 0
3, 120191, Note_on_c, 0, 53, 0
3, 120200, Note_on_c, 0, 83, 0
3, 120213, Note_on_c, 0, 59, 0
3, 120335, Note_on_c, 0, 59, 45
3, 120343, Note_on_c, 0, 84, 66
3, 120349, Note_on_c, 0, 72, 52
3, 120375, Note_on_c, 0, 84, 0
3, 120376, Note_on_c, 0, 72, 0
3, 120379, Note_on_c, 0, 59, 0
3, 120458, Control_c, 0, 64, 0
3, 120466, Note_on_c, 0, 59, 77
3, 120470, Note_on_c, 0, 64, 91
3, 120471, Note_on_c, 0, 53, 83
3, 120481, Note_on_c, 0, 86, 87
3, 120482, Note_on_c, 0, 74, 76
3, 120492, Note_on_c, 0, 76, 68
3, 120519, Note_on_c, 0, 76, 0
3, 120619, Control_c, 0, 64, 127
3, 120732, Note_on_c, 0, 64, 0
3, 120745, Note_on_c, 0, 53, 0
3, 120748, Note_on_c, 0, 86, 0
3, 120834, Note_on_c, 0, 74, 0
3, 120843, Note_on_c, 0, 59, 0
3, 120954, Note_on_c, 0, 59, 55
3, 120960, Note_on_c, 0, 62, 72
3, 120965, Note_on_c, 0, 84, 72
3, 120967, Note_on_c, 0, 52, 58
3, 120972, Control_c, 0, 64, 0
3, 120977, Note_on_c, 0, 55, 49
3, 120979, Note_on_c, 0, 79, 58
3, 120982, Note_on_c, 0, 72, 66
3, 121010, Note_on_c, 0, 62, 0
3, 121021, Note_on_c, 0, 59, 0
3, 121022, Note_on_c, 0, 55, 0
3, 121050, Note_on_c, 0, 84, 0
3, 121062, Note_on_c, 0, 52, 0
3, 121068, Note_on_c, 0, 79, 0
3, 121085, Control_c, 0, 64, 127
3, 121093, Note_on_c, 0, 72, 0
3, 121321, Note_on_c, 0, 72, 71
3, 121322, Note_on_c, 0, 65, 91
3, 121322, Note_on_c, 0, 69, 58
3, 121329, Note_on_c, 0, 60, 90
3, 121331, Note_on_c, 0, 55, 105
3, 121381, Control_c, 0, 64, 0
3, 121542, Control_c, 0, 64, 127
3, 121743, Note_on_c, 0, 69, 0
3, 121745, Note_on_c, 0, 72, 0
3, 121801, Note_on_c, 0, 65, 0
3, 121801, Note_on_c, 0, 43, 47
3, 121834, Note_on_c, 0, 55, 0
3, 121839, Note_on_c, 0, 60, 0
3, 121958, Control_c, 0, 64, 0
3, 121962, Note_on_c, 0, 64, 68
3, 121962, Note_on_c, 0, 70, 52
3, 121971, Note_on_c, 0, 59, 55
3, 121975, Note_on_c, 0, 53, 62
3, 122119, Note_on_c, 0, 43, 0
3, 122199, Note_on_c, 0, 70, 0
3, 122210, Note_on_c, 0, 64, 0
3, 122215, Control_c, 0, 64, 127
3, 122260, Note_on_c, 0, 43, 53
3, 122266, Note_on_c, 0, 53, 0
3, 122279, Control_c, 0, 64, 0
3, 122295, Note_on_c, 0, 59, 0
3, 122406, Note_on_c, 0, 68, 60
3, 122413, Note_on_c, 0, 63, 62
3, 122420, Note_on_c, 0, 59, 47
3, 122421, Note_on_c, 0, 53, 57
3, 122464, Control_c, 0, 64, 127
3, 122722, Note_on_c, 0, 53, 0
3, 122734, Note_on_c, 0, 59, 0
3, 122735, Note_on_c, 0, 63, 0
3, 122743, Note_on_c, 0, 51, 35
3, 122750, Note_on_c, 0, 68, 0
3, 122793, Control_c, 0, 64, 0
3, 122877, Note_on_c, 0, 51, 0
3, 122883, Note_on_c, 0, 52, 65
3, 122883, Note_on_c, 0, 67, 56
3, 122890, Note_on_c, 0, 62, 59
3, 122897, Note_on_c, 0, 57, 47
3, 122901, Note_on_c, 0, 43, 0
3, 122967, Note_on_c, 0, 67, 0
3, 122968, Note_on_c, 0, 62, 0
3, 122987, Note_on_c, 0, 57, 0
3, 123271, Note_on_c, 0, 55, 88
3, 123381, Note_on_c, 0, 52, 0
3, 123466, Note_on_c, 0, 55, 0
3, 123526, Note_on_c, 0, 55, 78
3, 123716, Note_on_c, 0, 55, 0
3, 123753, Note_on_c, 0, 55, 54
3, 123869, Note_on_c, 0, 55, 0
3, 123927, Note_on_c, 0, 55, 57
3, 124202, Note_on_c, 0, 57, 63
3, 124231, Note_on_c, 0, 55, 0
3, 124327, Note_on_c, 0, 57, 0
3, 124359, Note_on_c, 0, 55, 43
3, 124687, Note_on_c, 0, 55, 0
3, 124991, Control_c, 0, 64, 127
3, 125216, Control_c, 0, 64, 0
3, 125283, Note_on_c, 0, 65, 51
3, 125285, Note_on_c, 0, 55, 48
3, 125286, Note_on_c, 0, 60, 45
3, 125384, Note_on_c, 0, 65, 0
3, 125398, Note_on_c, 0, 60, 0
3, 125441, Note_on_c, 0, 55, 0
3, 125747, Note_on_c, 0, 64, 42
3, 125748, Note_on_c, 0, 59, 43
3, 125755, Note_on_c, 0, 53, 36
3, 125946, Control_c, 0, 64, 127
3, 126248, Note_on_c, 0, 64, 0
3, 126259, Note_on_c, 0, 59, 0
3, 126302, Note_on_c, 0, 53, 0
3, 126676, Control_c, 0, 64, 0
3, 126716, Note_on_c, 0, 50, 52
3, 126724, Note_on_c, 0, 60, 47
3, 126727, Note_on_c, 0, 65, 63
3, 126728, Note_on_c, 0, 55, 44
3, 126730, Note_on_c, 0, 69, 52
3, 126748, Control_c, 0, 64, 127
3, 126793, Note_on_c, 0, 55, 0
3, 126803, Note_on_c, 0, 50, 0
3, 126851, Note_on_c, 0, 60, 0
3, 126955, Note_on_c, 0, 65, 0
3, 126973, Note_on_c, 0, 69, 0
3, 127029, Note_on_c, 0, 71, 60
3, 127031, Note_on_c, 0, 52, 52
3, 127031, Note_on_c, 0, 67, 66
3, 127040, Note_on_c, 0, 62, 54
3, 127048, Note_on_c, 0, 57, 60
3, 127069, Control_c, 0, 64, 0
3, 127198, Control_c, 0, 64, 127
3, 127466, Note_on_c, 0, 57, 0
3, 127505, Note_on_c, 0, 52, 0
3, 127536, Note_on_c, 0, 62, 0
3, 127607, Note_on_c, 0, 67, 0
3, 127713, Note_on_c, 0, 71, 0
3, 128018, Note_on_c, 0, 63, 61
3, 128020, Note_on_c, 0, 53, 57
3, 128023, Control_c, 0, 64, 0
3, 128026, Note_on_c, 0, 72, 74
3, 128028, Note_on_c, 0, 67, 79
3, 128038, Note_on_c, 0, 58, 52
3, 128115, Note_on_c, 0, 53, 0
3, 128152, Control_c, 0, 64, 127
3, 128171, Note_on_c, 0, 58, 0
3, 128172, Note_on_c, 0, 67, 0
3, 128175, Note_on_c, 0, 63, 0
3, 128185, Note_on_c, 0, 72, 0
3, 128326, Note_on_c, 0, 65, 64
3, 128332, Note_on_c, 0, 55, 48
3, 128335, Note_on_c, 0, 74, 64
3, 128336, Note_on_c, 0, 69, 74
3, 128345, Note_on_c, 0, 60, 54
3, 128396, Note_on_c, 0, 65, 0
3, 128418, Note_on_c, 0, 60, 0
3, 128441, Note_on_c, 0, 55, 0
3, 128441, Note_on_c, 0, 74, 0
3, 128448, Note_on_c, 0, 69, 0
3, 128643, Control_c, 0, 64, 0
3, 128655, Note_on_c, 0, 59, 56
3, 128658, Note_on_c, 0, 71, 53
3, 128666, Note_on_c, 0, 67, 44
3, 128666, Note_on_c, 0, 64, 56
3, 128673, Note_on_c, 0, 62, 42
3, 128782, Note_on_c, 0, 67, 0
3, 128788, Control_c, 0, 64, 127
3, 128810, Note_on_c, 0, 71, 0
3, 128825, Note_on_c, 0, 64, 0
3, 128846, Note_on_c, 0, 59, 0
3, 128864, Note_on_c, 0, 62, 0
3, 128986, Note_on_c, 0, 55, 71
3, 128986, Note_on_c, 0, 67, 62
3, 129007, Note_on_c, 0, 62, 51
3, 129010, Note_on_c, 0, 59, 46
3, 129027, Note_on_c, 0, 64, 30
3, 129060, Note_on_c, 0, 55, 0
3, 129097, Note_on_c, 0, 59, 0
3, 129112, Note_on_c, 0, 64, 0
3, 129117, Control_c, 0, 64, 0
3, 129127, Note_on_c, 0, 62, 0
3, 129146, Note_on_c, 0, 52, 46
3, 129154, Note_on_c, 0, 67, 0
3, 129199, Note_on_c, 0, 59, 20
3, 129301, Control_c, 0, 64, 127
3, 129409, Note_on_c, 0, 59, 0
3, 129458, Note_on_c, 0, 50, 51
3, 129460, Note_on_c, 0, 52, 0
3, 129551, Note_on_c, 0, 50, 0
3, 129597, Note_on_c, 0, 65, 57
3, 129598, Note_on_c, 0, 56, 46
3, 129600, Control_c, 0, 64, 0
3, 129605, Note_on_c, 0, 60, 60
3, 129608, Note_on_c, 0, 53, 44
3, 129610, Note_on_c, 0, 62, 44
3, 129777, Control_c, 0, 64, 127
3, 129802, Note_on_c, 0, 65, 0
3, 129818, Note_on_c, 0, 62, 0
3, 129850, Note_on_c, 0, 60, 0
3, 129900, Note_on_c, 0, 56, 0
3, 129904, Note_on_c, 0, 53, 0
3, 129958, Note_on_c, 0, 49, 25
3, 129979, Note_on_c, 0, 51, 37
3, 130042, Control_c, 0, 64, 0
3, 130068, Note_on_c, 0, 58, 53
3, 130070, Note_on_c, 0, 63, 43
3, 130077, Note_on_c, 0, 54, 39
3, 130125, Note_on_c, 0, 49, 0
3, 130145, Note_on_c, 0, 52, 27
3, 130194, Control_c, 0, 64, 127
3, 130266, Note_on_c, 0, 52, 0
3, 130290, Note_on_c, 0, 63, 0
3, 130319, Note_on_c, 0, 51, 0
3, 130335, Note_on_c, 0, 54, 0
3, 130398, Note_on_c, 0, 64, 74
3, 130412, Note_on_c, 0, 52, 40
3, 130464, Note_on_c, 0, 58, 0
3, 130503, Note_on_c, 0, 52, 0
3, 130520, Note_on_c, 0, 64, 0
3, 130522, Control_c, 0, 64, 0
3, 130578, Note_on_c, 0, 60, 46
3, 130585, Note_on_c, 0, 45, 49
3, 130591, Note_on_c, 0, 57, 37
3, 130602, Note_on_c, 0, 55, 25
3, 130618, Note_on_c, 0, 52, 31
3, 130755, Control_c, 0, 64, 127
3, 130790, Note_on_c, 0, 57, 0
3, 130802, Note_on_c, 0, 55, 0
3, 130871, Note_on_c, 0, 60, 0
3, 130889, Note_on_c, 0, 57, 55
3, 130890, Note_on_c, 0, 45, 0
3, 130929, Note_on_c, 0, 52, 0
3, 130965, Note_on_c, 0, 57, 0
3, 131366, Note_on_c, 0, 64, 62
3, 131378, Note_on_c, 0, 60, 50
3, 131383, Note_on_c, 0, 55, 40
3, 131394, Note_on_c, 0, 57, 28
3, 131430, Note_on_c, 0, 64, 0
3, 131430, Control_c, 0, 64, 0
3, 131431, Note_on_c, 0, 60, 0
3, 131431, Note_on_c, 0, 55, 0
3, 131446, Note_on_c, 0, 57, 0
3, 131672, Note_on_c, 0, 82, 67
3, 131679, Note_on_c, 0, 70, 78
3, 131814, Note_on_c, 0, 70, 0
3, 131827, Note_on_c, 0, 71, 54
3, 131828, Note_on_c, 0, 82, 0
3, 131844, Note_on_c, 0, 83, 47
3, 131908, Note_on_c, 0, 71, 0
3, 131913, Note_on_c, 0, 83, 0
3, 132026, Note_on_c, 0, 82, 60
3, 132031, Note_on_c, 0, 70, 65
3, 132146, Note_on_c, 0, 70, 0
3, 132149, Note_on_c, 0, 82, 0
3, 132162, Note_on_c, 0, 71, 54
3, 132172, Note_on_c, 0, 83, 39
3, 132241, Note_on_c, 0, 71, 0
3, 132251, Note_on_c, 0, 83, 0
3, 132343, Note_on_c, 0, 60, 51
3, 132345, Note_on_c, 0, 64, 62
3, 132356, Note_on_c, 0, 54, 56
3, 132577, Control_c, 0, 64, 127
3, 133252, Note_on_c, 0, 60, 0
3, 133303, Note_on_c, 0, 60, 22
3, 133343, Note_on_c, 0, 64, 0
3, 133367, Note_on_c, 0, 83, 33
3, 133383, Note_on_c, 0, 54, 0
3, 133403, Note_on_c, 0, 83, 0
3, 133434, Control_c, 0, 64, 0
3, 133470, Note_on_c, 0, 76, 76
3, 133473, Note_on_c, 0, 88, 89
3, 133692, Control_c, 0, 64, 127
3, 133716, Note_on_c, 0, 88, 0
3, 133732, Note_on_c, 0, 60, 0
3, 133783, Note_on_c, 0, 76, 0
3, 133924, Control_c, 0, 64, 0
3, 133925, Note_on_c, 0, 60, 22
3, 133944, Note_on_c, 0, 54, 46
3, 133949, Note_on_c, 0, 64, 48
3, 133959, Note_on_c, 0, 87, 77
3, 133962, Note_on_c, 0, 58, 33
3, 133969, Note_on_c, 0, 75, 74
3, 134173, Control_c, 0, 64, 127
3, 134209, Note_on_c, 0, 64, 0
3, 134247, Note_on_c, 0, 87, 0
3, 134248, Note_on_c, 0, 75, 0
3, 134290, Note_on_c, 0, 58, 0
3, 134291, Note_on_c, 0, 54, 0
3, 134330, Note_on_c, 0, 83, 30
3, 134377, Note_on_c, 0, 83, 0
3, 134391, Note_on_c, 0, 57, 47
3, 134398, Control_c, 0, 64, 0
3, 134399, Note_on_c, 0, 53, 39
3, 134399, Note_on_c, 0, 64, 36
3, 134423, Note_on_c, 0, 74, 65
3, 134426, Note_on_c, 0, 86, 68
3, 134655, Control_c, 0, 64, 127
3, 134695, Note_on_c, 0, 86, 0
3, 134743, Note_on_c, 0, 60, 0
3, 134757, Note_on_c, 0, 64, 0
3, 134763, Note_on_c, 0, 74, 0
3, 134793, Note_on_c, 0, 53, 0
3, 134795, Note_on_c, 0, 57, 0
3, 134847, Control_c, 0, 64, 0
3, 134879, Note_on_c, 0, 57, 48
3, 134881, Note_on_c, 0, 84, 70
3, 134887, Note_on_c, 0, 60, 41
3, 134887, Note_on_c, 0, 72, 64
3, 134888, Note_on_c, 0, 64, 34
3, 134899, Note_on_c, 0, 53, 34
3, 135039, Control_c, 0, 64, 127
3, 135120, Note_on_c, 0, 60, 0
3, 135127, Note_on_c, 0, 84, 0
3, 135182, Note_on_c, 0, 64, 0
3, 135190, Note_on_c, 0, 53, 0
3, 135226, Note_on_c, 0, 57, 0
3, 135243, Note_on_c, 0, 72, 0
3, 135361, Control_c, 0, 64, 0
3, 135382, Note_on_c, 0, 64, 45
3, 135385, Note_on_c, 0, 53, 32
3, 135386, Note_on_c, 0, 59, 51
3, 135400, Note_on_c, 0, 83, 44
3, 135401, Note_on_c, 0, 71, 47
3, 135465, Control_c, 0, 64, 127
3, 135578, Note_on_c, 0, 71, 0
3, 135655, Note_on_c, 0, 83, 0
3, 135683, Note_on_c, 0, 59, 0
3, 135687, Note_on_c, 0, 64, 0
3, 135693, Note_on_c, 0, 53, 0
3, 135858, Control_c, 0, 64, 0
3, 135867, Note_on_c, 0, 64, 74
3, 135870, Note_on_c, 0, 53, 58
3, 135871, Note_on_c, 0, 59, 64
3, 135872, Note_on_c, 0, 93, 90
3, 135879, Note_on_c, 0, 81, 78
3, 135887, Note_on_c, 0, 88, 71
3, 135978, Control_c, 0, 64, 127
3, 136087, Note_on_c, 0, 64, 0
3, 136089, Note_on_c, 0, 53, 0
3, 136201, Note_on_c, 0, 88, 0
3, 136207, Note_on_c, 0, 93, 0
3, 136215, Note_on_c, 0, 81, 0
3, 136223, Note_on_c, 0, 59, 0
3, 136298, Control_c, 0, 64, 0
3, 136327, Note_on_c, 0, 59, 47
3, 136335, Note_on_c, 0, 62, 66
3, 136338, Note_on_c, 0, 52, 54
3, 136343, Note_on_c, 0, 55, 55
3, 136349, Note_on_c, 0, 91, 52
3, 136361, Note_on_c, 0, 79, 45
3, 136370, Note_on_c, 0, 86, 49
3, 136395, Control_c, 0, 64, 127
3, 136417, Note_on_c, 0, 52, 0
3, 136428, Note_on_c, 0, 55, 0
3, 136432, Note_on_c, 0, 79, 0
3, 136452, Note_on_c, 0, 59, 0
3, 136453, Note_on_c, 0, 86, 0
3, 136477, Note_on_c, 0, 91, 0
3, 136479, Note_on_c, 0, 62, 0
3, 136594, Note_on_c, 0, 55, 49
3, 136629, Note_on_c, 0, 55, 0
3, 136805, Note_on_c, 0, 96, 83
3, 136806, Note_on_c, 0, 55, 87
3, 136807, Note_on_c, 0, 61, 81
3, 136808, Note_on_c, 0, 84, 80
3, 136809, Note_on_c, 0, 65, 90
3, 136815, Control_c, 0, 64, 0
3, 136817, Note_on_c, 0, 91, 68
3, 136943, Control_c, 0, 64, 127
3, 136956, Note_on_c, 0, 84, 0
3, 136994, Note_on_c, 0, 91, 0
3, 137006, Note_on_c, 0, 96, 0
3, 137065, Note_on_c, 0, 55, 0
3, 137068, Note_on_c, 0, 65, 0
3, 137156, Note_on_c, 0, 61, 0
3, 137295, Note_on_c, 0, 105, 83
3, 137295, Note_on_c, 0, 60, 71
3, 137295, Note_on_c, 0, 65, 89
3, 137298, Note_on_c, 0, 54, 77
3, 137302, Note_on_c, 0, 93, 71
3, 137304, Note_on_c, 0, 100, 71
3, 137306, Control_c, 0, 64, 0
3, 137330, Note_on_c, 0, 57, 29
3, 137378, Note_on_c, 0, 57, 0
3, 137418, Control_c, 0, 64, 127
3, 137585, Note_on_c, 0, 60, 0
3, 137590, Note_on_c, 0, 65, 0
3, 137600, Note_on_c, 0, 105, 0
3, 137623, Note_on_c, 0, 100, 0
3, 137646, Note_on_c, 0, 93, 0
3, 137660, Note_on_c, 0, 54, 0
3, 137765, Note_on_c, 0, 53, 72
3, 137768, Note_on_c, 0, 64, 73
3, 137770, Note_on_c, 0, 103, 76
3, 137775, Note_on_c, 0, 59, 69
3, 137779, Control_c, 0, 64, 0
3, 137780, Note_on_c, 0, 98, 73
3, 137783, Note_on_c, 0, 91, 58
3, 137899, Control_c, 0, 64, 127
3, 138034, Note_on_c, 0, 98, 0
3, 138035, Note_on_c, 0, 103, 0
3, 138086, Note_on_c, 0, 91, 0
3, 138091, Note_on_c, 0, 64, 0
3, 138094, Note_on_c, 0, 59, 0
3, 138098, Note_on_c, 0, 53, 0
3, 138265, Note_on_c, 0, 100, 74
3, 138267, Note_on_c, 0, 88, 68
3, 138269, Note_on_c, 0, 52, 64
3, 138271, Control_c, 0, 64, 0
3, 138271, Note_on_c, 0, 95, 73
3, 138273, Note_on_c, 0, 62, 51
3, 138289, Note_on_c, 0, 57, 64
3, 138383, Control_c, 0, 64, 127
3, 138447, Note_on_c, 0, 100, 0
3, 138451, Note_on_c, 0, 95, 0
3, 138522, Note_on_c, 0, 88, 0
3, 138567, Note_on_c, 0, 57, 0
3, 138583, Note_on_c, 0, 52, 0
3, 138599, Note_on_c, 0, 62, 0
3, 138726, Note_on_c, 0, 98, 74
3, 138728, Control_c, 0, 64, 0
3, 138730, Note_on_c, 0, 86, 66
3, 138731, Note_on_c, 0, 95, 62
3, 138732, Note_on_c, 0, 57, 68
3, 138735, Note_on_c, 0, 52, 68
3, 138735, Note_on_c, 0, 91, 60
3, 138737, Note_on_c, 0, 62, 66
3, 138842, Control_c, 0, 64, 127
3, 138898, Note_on_c, 0, 57, 0
3, 138903, Note_on_c, 0, 52, 0
3, 138928, Note_on_c, 0, 95, 0
3, 138946, Note_on_c, 0, 98, 0
3, 138973, Note_on_c, 0, 91, 0
3, 138989, Note_on_c, 0, 62, 0
3, 139003, Note_on_c, 0, 86, 0
3, 139204, Note_on_c, 0, 64, 64
3, 139207, Note_on_c, 0, 55, 52
3, 139212, Note_on_c, 0, 58, 48
3, 139212, Control_c, 0, 64, 0
3, 139215, Note_on_c, 0, 61, 48
3, 139222, Note_on_c, 0, 94, 47
3, 139239, Note_on_c, 0, 82, 36
3, 139484, Control_c, 0, 64, 127
3, 139582, Note_on_c, 0, 94, 0
3, 139612, Control_c, 0, 64, 0
3, 139613, Note_on_c, 0, 82, 0
3, 139625, Note_on_c, 0, 64, 0
3, 139639, Note_on_c, 0, 55, 0
3, 139643, Note_on_c, 0, 61, 0
3, 139679, Note_on_c, 0, 58, 0
3, 139853, Control_c, 0, 64, 127
3, 140096, Note_on_c, 0, 61, 47
3, 140150, Control_c, 0, 64, 0
3, 140157, Note_on_c, 0, 76, 70
3, 140158, Note_on_c, 0, 79, 76
3, 140159, Note_on_c, 0, 73, 75
3, 140163, Note_on_c, 0, 69, 82
3, 140165, Note_on_c, 0, 64, 88
3, 140200, Note_on_c, 0, 61, 0
3, 140329, Control_c, 0, 64, 127
3, 140506, Note_on_c, 0, 76, 0
3, 140534, Note_on_c, 0, 79, 0
3, 140542, Note_on_c, 0, 69, 0
3, 140561, Note_on_c, 0, 73, 0
3, 140619, Note_on_c, 0, 64, 0
3, 140633, Control_c, 0, 64, 0
3, 140634, Note_on_c, 0, 77, 57
3, 140638, Note_on_c, 0, 62, 64
3, 140650, Note_on_c, 0, 69, 53
3, 140654, Note_on_c, 0, 72, 56
3, 140754, Control_c, 0, 64, 127
3, 140850, Note_on_c, 0, 72, 0
3, 140876, Note_on_c, 0, 77, 0
3, 140898, Note_on_c, 0, 69, 0
3, 140955, Note_on_c, 0, 62, 0
3, 141112, Note_on_c, 0, 65, 46
3, 141120, Note_on_c, 0, 69, 39
3, 141122, Control_c, 0, 64, 0
3, 141133, Note_on_c, 0, 60, 52
3, 141159, Note_on_c, 0, 55, 52
3, 141292, Note_on_c, 0, 65, 0
3, 141300, Note_on_c, 0, 69, 0
3, 141313, Note_on_c, 0, 60, 0
3, 141339, Note_on_c, 0, 55, 0
3, 141387, Control_c, 0, 64, 127
3, 141483, Control_c, 0, 64, 0
3, 141584, Note_on_c, 0, 76, 68
3, 141588, Note_on_c, 0, 60, 57
3, 141590, Note_on_c, 0, 69, 68
3, 141593, Note_on_c, 0, 65, 70
3, 141600, Note_on_c, 0, 72, 53
3, 141660, Control_c, 0, 64, 127
3, 141874, Note_on_c, 0, 72, 0
3, 141884, Note_on_c, 0, 76, 0
3, 141894, Note_on_c, 0, 69, 0
3, 141895, Note_on_c, 0, 65, 0
3, 142033, Note_on_c, 0, 60, 0
3, 142062, Control_c, 0, 64, 0
3, 142072, Note_on_c, 0, 74, 40
3, 142090, Note_on_c, 0, 57, 47
3, 142097, Note_on_c, 0, 69, 34
3, 142098, Note_on_c, 0, 65, 42
3, 142162, Note_on_c, 0, 65, 0
3, 142174, Control_c, 0, 64, 127
3, 142272, Note_on_c, 0, 57, 0
3, 142301, Note_on_c, 0, 69, 0
3, 142318, Note_on_c, 0, 74, 0
3, 142871, Note_on_c, 0, 79, 68
3, 142874, Note_on_c, 0, 75, 69
3, 142878, Note_on_c, 0, 65, 71
3, 142881, Control_c, 0, 64, 0
3, 142881, Note_on_c, 0, 70, 75
3, 143001, Note_on_c, 0, 70, 0
3, 143024, Control_c, 0, 64, 127
3, 143046, Note_on_c, 0, 79, 0
3, 143055, Note_on_c, 0, 75, 0
3, 143084, Note_on_c, 0, 65, 0
3, 143126, Note_on_c, 0, 77, 53
3, 143127, Note_on_c, 0, 73, 64
3, 143127, Note_on_c, 0, 68, 60
3, 143129, Note_on_c, 0, 63, 56
3, 143252, Note_on_c, 0, 77, 0
3, 143267, Note_on_c, 0, 73, 0
3, 143299, Note_on_c, 0, 68, 0
3, 143375, Note_on_c, 0, 63, 0
3, 143403, Control_c, 0, 64, 0
3, 143404, Note_on_c, 0, 66, 52
3, 143405, Note_on_c, 0, 75, 55
3, 143408, Note_on_c, 0, 61, 60
3, 143412, Note_on_c, 0, 71, 39
3, 143447, Note_on_c, 0, 71, 0
3, 143495, Note_on_c, 0, 75, 0
3, 143526, Note_on_c, 0, 66, 0
3, 143583, Note_on_c, 0, 61, 0
3, 143622, Note_on_c, 0, 68, 34
3, 143639, Note_on_c, 0, 59, 49
3, 143647, Note_on_c, 0, 73, 54
3, 143657, Note_on_c, 0, 64, 44
3, 143672, Note_on_c, 0, 69, 60
3, 143675, Note_on_c, 0, 68, 0
3, 143708, Control_c, 0, 64, 127
3, 143752, Note_on_c, 0, 69, 0
3, 143767, Note_on_c, 0, 64, 0
3, 143816, Note_on_c, 0, 73, 0
3, 143836, Note_on_c, 0, 59, 0
3, 143844, Control_c, 0, 64, 0
3, 143884, Note_on_c, 0, 58, 47
3, 143884, Note_on_c, 0, 68, 45
3, 143910, Note_on_c, 0, 62, 34
3, 143913, Note_on_c, 0, 72, 30
3, 143924, Note_on_c, 0, 64, 24
3, 143951, Note_on_c, 0, 64, 0
3, 143951, Note_on_c, 0, 72, 0
3, 143957, Control_c, 0, 64, 127
3, 143973, Note_on_c, 0, 68, 0
3, 143994, Note_on_c, 0, 58, 0
3, 143999, Note_on_c, 0, 62, 0
3, 144085, Control_c, 0, 64, 0
3, 144111, Note_on_c, 0, 57, 47
3, 144116, Note_on_c, 0, 71, 47
3, 144151, Note_on_c, 0, 60, 22
3, 144158, Note_on_c, 0, 64, 39
3, 144283, Note_on_c, 0, 60, 0
3, 144310, Note_on_c, 0, 71, 0
3, 144317, Note_on_c, 0, 57, 0
3, 144318, Note_on_c, 0, 64, 0
3, 144350, Control_c, 0, 64, 127
3, 144391, Note_on_c, 0, 52, 44
3, 144490, Note_on_c, 0, 52, 0
3, 144503, Control_c, 0, 64, 0
3, 144545, Note_on_c, 0, 69, 67
3, 144551, Note_on_c, 0, 64, 51
3, 144552, Note_on_c, 0, 55, 57
3, 144553, Note_on_c, 0, 59, 43
3, 144662, Note_on_c, 0, 69, 0
3, 144687, Note_on_c, 0, 64, 0
3, 144701, Note_on_c, 0, 59, 0
3, 144756, Note_on_c, 0, 55, 0
3, 144767, Control_c, 0, 64, 127
3, 144802, Note_on_c, 0, 68, 69
3, 144804, Note_on_c, 0, 58, 67
3, 144806, Note_on_c, 0, 63, 68
3, 144827, Note_on_c, 0, 51, 37
3, 144851, Note_on_c, 0, 55, 35
3, 144872, Note_on_c, 0, 68, 0
3, 144879, Note_on_c, 0, 55, 0
3, 144906, Note_on_c, 0, 58, 0
3, 144910, Note_on_c, 0, 63, 0
3, 144935, Control_c, 0, 64, 0
3, 144970, Note_on_c, 0, 51, 0
3, 144983, Note_on_c, 0, 67, 53
3, 144992, Note_on_c, 0, 62, 44
3, 145021, Note_on_c, 0, 57, 34
3, 145033, Note_on_c, 0, 52, 27
3, 145071, Note_on_c, 0, 62, 0
3, 145095, Note_on_c, 0, 67, 0
3, 145154, Note_on_c, 0, 57, 0
3, 145177, Control_c, 0, 64, 127
3, 145215, Note_on_c, 0, 52, 0
3, 145267, Note_on_c, 0, 64, 70
3, 145274, Note_on_c, 0, 48, 65
3, 145278, Note_on_c, 0, 60, 71
3, 145287, Note_on_c, 0, 55, 51
3, 145316, Note_on_c, 0, 55, 0
3, 145334, Note_on_c, 0, 48, 0
3, 145402, Note_on_c, 0, 64, 0
3, 145403, Note_on_c, 0, 60, 0
3, 145417, Control_c, 0, 64, 0
3, 145446, Note_on_c, 0, 47, 64
3, 145449, Note_on_c, 0, 55, 57
3, 145655, Note_on_c, 0, 47, 0
3, 145657, Control_c, 0, 64, 127
3, 145762, Note_on_c, 0, 46, 62
3, 145765, Note_on_c, 0, 34, 62
3, 145778, Note_on_c, 0, 55, 0
3, 145819, Note_on_c, 0, 46, 0
3, 145842, Note_on_c, 0, 34, 0
3, 145866, Control_c, 0, 64, 0
3, 145907, Note_on_c, 0, 55, 44
3, 145922, Note_on_c, 0, 45, 62
3, 145924, Note_on_c, 0, 60, 34
3, 145929, Note_on_c, 0, 33, 42
3, 145937, Note_on_c, 0, 57, 42
3, 145976, Note_on_c, 0, 55, 0
3, 146011, Note_on_c, 0, 57, 0
3, 146025, Note_on_c, 0, 33, 0
3, 146031, Note_on_c, 0, 60, 0
3, 146103, Note_on_c, 0, 45, 0
3, 146397, Note_on_c, 0, 74, 64
3, 146418, Note_on_c, 0, 72, 29
3, 146446, Note_on_c, 0, 72, 0
3, 146598, Note_on_c, 0, 74, 0
3, 146839, Note_on_c, 0, 64, 33
3, 146842, Note_on_c, 0, 55, 24
3, 146858, Note_on_c, 0, 68, 44
3, 146858, Note_on_c, 0, 57, 33
3, 146859, Note_on_c, 0, 60, 35
3, 146860, Note_on_c, 0, 72, 43
3, 146902, Note_on_c, 0, 64, 0
3, 146906, Note_on_c, 0, 55, 0
3, 146949, Note_on_c, 0, 60, 0
3, 147008, Note_on_c, 0, 57, 0
3, 147039, Note_on_c, 0, 68, 0
3, 147065, Note_on_c, 0, 69, 40
3, 147111, Note_on_c, 0, 72, 0
3, 147129, Note_on_c, 0, 69, 0
3, 147336, Note_on_c, 0, 60, 52
3, 147572, Note_on_c, 0, 60, 0
3, 147684, Note_on_c, 0, 60, 35
3, 147746, Note_on_c, 0, 54, 29
3, 147820, Note_on_c, 0, 60, 0
3, 147821, Note_on_c, 0, 64, 57
3, 147826, Note_on_c, 0, 54, 0
3, 148151, Note_on_c, 0, 64, 0
3, 148162, Note_on_c, 0, 71, 42
3, 148265, Note_on_c, 0, 71, 0
3, 148325, Note_on_c, 0, 64, 30
3, 148539, Note_on_c, 0, 64, 0
3, 148807, Note_on_c, 0, 64, 33
3, 148807, Note_on_c, 0, 54, 32
3, 148815, Note_on_c, 0, 60, 35
3, 148876, Note_on_c, 0, 60, 0
3, 148877, Note_on_c, 0, 64, 0
3, 148897, Note_on_c, 0, 54, 0
3, 149139, Note_on_c, 0, 76, 36
3, 149197, Note_on_c, 0, 76, 0
3, 149276, Note_on_c, 0, 83, 84
3, 149279, Note_on_c, 0, 71, 85
3, 149601, Note_on_c, 0, 83, 0
3, 149610, Note_on_c, 0, 76, 53
3, 149618, Note_on_c, 0, 64, 58
3, 149628, Note_on_c, 0, 71, 0
3, 149638, Note_on_c, 0, 60, 37
3, 149649, Note_on_c, 0, 64, 0
3, 149650, Note_on_c, 0, 57, 35
3, 149671, Note_on_c, 0, 60, 0
3, 149675, Note_on_c, 0, 76, 0
3, 149690, Note_on_c, 0, 57, 0
3, 149901, Note_on_c, 0, 84, 62
3, 149908, Note_on_c, 0, 72, 62
3, 150162, Note_on_c, 0, 84, 0
3, 150170, Note_on_c, 0, 72, 0
3, 150238, Note_on_c, 0, 81, 54
3, 150255, Control_c, 0, 64, 127
3, 150359, Note_on_c, 0, 81, 0
3, 150562, Note_on_c, 0, 59, 53
3, 150563, Note_on_c, 0, 64, 64
3, 150564, Note_on_c, 0, 73, 70
3, 150566, Note_on_c, 0, 85, 77
3, 150576, Note_on_c, 0, 53, 45
3, 150583, Control_c, 0, 64, 0
3, 150803, Note_on_c, 0, 85, 0
3, 150824, Control_c, 0, 64, 127
3, 150847, Note_on_c, 0, 82, 51
3, 150987, Note_on_c, 0, 53, 0
3, 150998, Note_on_c, 0, 82, 0
3, 151002, Note_on_c, 0, 64, 0
3, 151021, Note_on_c, 0, 73, 0
3, 151039, Note_on_c, 0, 59, 0
3, 151153, Control_c, 0, 64, 0
3, 151189, Note_on_c, 0, 63, 56
3, 151198, Note_on_c, 0, 59, 43
3, 151199, Note_on_c, 0, 53, 38
3, 151207, Note_on_c, 0, 56, 43
3, 151346, Control_c, 0, 64, 127
3, 151394, Note_on_c, 0, 59, 0
3, 151442, Note_on_c, 0, 53, 0
3, 151479, Note_on_c, 0, 63, 0
3, 151495, Note_on_c, 0, 56, 0
3, 151531, Note_on_c, 0, 62, 63
3, 151538, Note_on_c, 0, 52, 50
3, 151568, Note_on_c, 0, 57, 55
3, 151586, Control_c, 0, 64, 0
3, 151963, Control_c, 0, 64, 127
3, 152051, Control_c, 0, 64, 0
3, 152220, Control_c, 0, 64, 127
3, 152394, Note_on_c, 0, 57, 0
3, 152532, Note_on_c, 0, 52, 0
3, 152545, Note_on_c, 0, 57, 36
3, 152551, Note_on_c, 0, 62, 0
3, 152661, Control_c, 0, 64, 0
3, 152668, Note_on_c, 0, 62, 43
3, 152679, Note_on_c, 0, 93, 81
3, 152680, Note_on_c, 0, 91, 82
3, 152690, Note_on_c, 0, 52, 32
3, 152749, Note_on_c, 0, 93, 0
3, 152768, Note_on_c, 0, 91, 0
3, 152986, Note_on_c, 0, 91, 85
3, 152990, Control_c, 0, 64, 127
3, 153071, Control_c, 0, 64, 0
3, 153101, Note_on_c, 0, 91, 0
3, 153111, Note_on_c, 0, 57, 0
3, 153148, Note_on_c, 0, 86, 55
3, 153149, Note_on_c, 0, 52, 0
3, 153240, Note_on_c, 0, 86, 0
3, 153279, Note_on_c, 0, 62, 0
3, 153303, Note_on_c, 0, 86, 53
3, 153391, Control_c, 0, 64, 127
3, 153408, Note_on_c, 0, 86, 0
3, 153461, Note_on_c, 0, 89, 77
3, 153478, Note_on_c, 0, 62, 44
3, 153488, Note_on_c, 0, 58, 43
3, 153498, Note_on_c, 0, 53, 31
3, 153506, Note_on_c, 0, 57, 31
3, 153511, Control_c, 0, 64, 0
3, 153554, Note_on_c, 0, 89, 0
3, 153570, Note_on_c, 0, 62, 0
3, 153581, Note_on_c, 0, 58, 0
3, 153607, Note_on_c, 0, 53, 0
3, 153633, Note_on_c, 0, 89, 62
3, 153634, Note_on_c, 0, 57, 0
3, 153728, Note_on_c, 0, 89, 0
3, 153791, Note_on_c, 0, 82, 44
3, 153864, Control_c, 0, 64, 127
3, 153870, Note_on_c, 0, 82, 0
3, 153929, Note_on_c, 0, 82, 46
3, 154017, Control_c, 0, 64, 0
3, 154046, Note_on_c, 0, 82, 0
3, 154103, Note_on_c, 0, 86, 66
3, 154209, Note_on_c, 0, 86, 0
3, 154354, Control_c, 0, 64, 127
3, 154410, Note_on_c, 0, 63, 77
3, 154425, Note_on_c, 0, 58, 52
3, 154426, Control_c, 0, 64, 0
3, 154466, Note_on_c, 0, 63, 0
3, 154486, Note_on_c, 0, 58, 0
3, 154742, Note_on_c, 0, 87, 75
3, 154743, Note_on_c, 0, 75, 68
3, 154818, Note_on_c, 0, 75, 0
3, 154818, Note_on_c, 0, 87, 0
3, 154917, Note_on_c, 0, 85, 44
3, 154960, Note_on_c, 0, 85, 0
3, 155034, Note_on_c, 0, 52, 54
3, 155035, Note_on_c, 0, 63, 55
3, 155063, Note_on_c, 0, 58, 30
3, 155068, Note_on_c, 0, 87, 76
3, 155069, Note_on_c, 0, 75, 75
3, 155119, Note_on_c, 0, 63, 0
3, 155127, Note_on_c, 0, 75, 0
3, 155131, Note_on_c, 0, 87, 0
3, 155141, Note_on_c, 0, 52, 0
3, 155150, Note_on_c, 0, 58, 0
3, 155209, Note_on_c, 0, 73, 57
3, 155210, Note_on_c, 0, 85, 57
3, 155218, Note_on_c, 0, 52, 28
3, 155277, Note_on_c, 0, 73, 0
3, 155289, Note_on_c, 0, 85, 0
3, 155290, Note_on_c, 0, 52, 0
3, 155309, Control_c, 0, 64, 127
3, 155345, Note_on_c, 0, 84, 33
3, 155349, Note_on_c, 0, 72, 45
3, 155401, Note_on_c, 0, 72, 0
3, 155401, Note_on_c, 0, 84, 0
3, 155471, Note_on_c, 0, 82, 65
3, 155502, Control_c, 0, 64, 0
3, 155520, Note_on_c, 0, 64, 29
3, 155520, Note_on_c, 0, 53, 32
3, 155522, Note_on_c, 0, 57, 42
3, 155527, Note_on_c, 0, 60, 43
3, 155563, Note_on_c, 0, 82, 0
3, 155605, Note_on_c, 0, 81, 53
3, 155717, Note_on_c, 0, 81, 0
3, 155790, Note_on_c, 0, 60, 0
3, 155795, Note_on_c, 0, 64, 0
3, 155816, Note_on_c, 0, 57, 0
3, 155840, Note_on_c, 0, 53, 0
3, 155852, Note_on_c, 0, 76, 63
3, 155938, Note_on_c, 0, 76, 0
3, 156018, Note_on_c, 0, 76, 40
3, 156097, Note_on_c, 0, 76, 0
3, 156303, Control_c, 0, 64, 127
3, 156321, Note_on_c, 0, 76, 70
3, 156335, Note_on_c, 0, 64, 44
3, 156367, Note_on_c, 0, 64, 0
3, 156370, Note_on_c, 0, 57, 24
3, 156378, Note_on_c, 0, 76, 0
3, 156391, Control_c, 0, 64, 0
3, 156431, Note_on_c, 0, 57, 0
3, 156513, Note_on_c, 0, 76, 66
3, 156688, Note_on_c, 0, 77, 41
3, 156714, Note_on_c, 0, 76, 0
3, 156783, Note_on_c, 0, 78, 64
3, 156795, Note_on_c, 0, 77, 0
3, 156809, Control_c, 0, 64, 127
3, 156815, Note_on_c, 0, 79, 59
3, 156816, Note_on_c, 0, 78, 0
3, 156945, Note_on_c, 0, 79, 0
3, 156961, Control_c, 0, 64, 0
3, 157041, Note_on_c, 0, 72, 58
3, 157175, Note_on_c, 0, 73, 56
3, 157206, Note_on_c, 0, 72, 0
3, 157262, Note_on_c, 0, 74, 44
3, 157327, Note_on_c, 0, 73, 0
3, 157335, Note_on_c, 0, 75, 73
3, 157337, Note_on_c, 0, 74, 0
3, 157376, Note_on_c, 0, 63, 46
3, 157409, Note_on_c, 0, 63, 0
3, 157430, Note_on_c, 0, 75, 0
3, 157471, Note_on_c, 0, 69, 70
3, 157675, Note_on_c, 0, 70, 7
3, 157706, Note_on_c, 0, 69, 0
3, 157712, Note_on_c, 0, 71, 58
3, 157724, Control_c, 0, 64, 127
3, 157753, Note_on_c, 0, 70, 0
3, 157788, Note_on_c, 0, 71, 0
3, 157802, Note_on_c, 0, 72, 56
3, 157841, Note_on_c, 0, 72, 0
3, 157900, Control_c, 0, 64, 0
3, 158003, Note_on_c, 0, 70, 77
3, 158086, Note_on_c, 0, 70, 0
3, 158195, Note_on_c, 0, 66, 53
3, 158263, Note_on_c, 0, 66, 0
3, 158309, Note_on_c, 0, 62, 36
3, 158314, Note_on_c, 0, 69, 73
3, 158341, Note_on_c, 0, 58, 25
3, 158344, Note_on_c, 0, 62, 0
3, 158366, Note_on_c, 0, 53, 24
3, 158398, Note_on_c, 0, 58, 0
3, 158412, Note_on_c, 0, 69, 0
3, 158418, Note_on_c, 0, 53, 0
3, 158468, Note_on_c, 0, 67, 60
3, 158551, Note_on_c, 0, 67, 0
3, 158613, Note_on_c, 0, 62, 50
3, 158698, Note_on_c, 0, 62, 0
3, 158750, Note_on_c, 0, 65, 67
3, 158815, Control_c, 0, 64, 127
3, 158821, Note_on_c, 0, 65, 0
3, 158891, Note_on_c, 0, 58, 36
3, 158898, Note_on_c, 0, 48, 48
3, 158922, Note_on_c, 0, 65, 44
3, 158935, Control_c, 0, 64, 0
3, 158950, Note_on_c, 0, 65, 0
3, 158998, Note_on_c, 0, 58, 0
3, 159105, Note_on_c, 0, 48, 0
3, 159239, Note_on_c, 0, 64, 63
3, 159288, Control_c, 0, 64, 127
3, 159305, Note_on_c, 0, 64, 0
3, 159344, Control_c, 0, 64, 0
3, 159404, Note_on_c, 0, 57, 36
3, 159406, Note_on_c, 0, 67, 48
3, 159411, Note_on_c, 0, 60, 40
3, 159426, Note_on_c, 0, 64, 24
3, 159426, Note_on_c, 0, 53, 36
3, 159462, Note_on_c, 0, 64, 0
3, 159464, Note_on_c, 0, 57, 0
3, 159466, Note_on_c, 0, 53, 0
3, 159483, Note_on_c, 0, 67, 0
3, 159490, Note_on_c, 0, 60, 0
3, 159570, Note_on_c, 0, 54, 62
3, 159676, Note_on_c, 0, 54, 0
3, 159716, Note_on_c, 0, 65, 68
3, 159717, Note_on_c, 0, 60, 66
3, 159718, Note_on_c, 0, 57, 66
3, 159725, Note_on_c, 0, 53, 47
3, 159726, Note_on_c, 0, 62, 49
3, 159811, Note_on_c, 0, 62, 0
3, 159821, Note_on_c, 0, 53, 0
3, 159824, Note_on_c, 0, 60, 0
3, 159827, Note_on_c, 0, 65, 0
3, 159847, Note_on_c, 0, 57, 0
3, 159922, Note_on_c, 0, 64, 62
3, 159923, Note_on_c, 0, 52, 55
3, 159940, Note_on_c, 0, 57, 47
3, 160072, Note_on_c, 0, 57, 0
3, 160098, Control_c, 0, 64, 127
3, 160162, Note_on_c, 0, 64, 0
3, 160165, Note_on_c, 0, 52, 0
3, 160206, Note_on_c, 0, 48, 53
3, 160314, Control_c, 0, 64, 0
3, 160318, Note_on_c, 0, 48, 0
3, 160365, Note_on_c, 0, 60, 56
3, 160367, Note_on_c, 0, 57, 44
3, 160373, Note_on_c, 0, 52, 44
3, 160376, Note_on_c, 0, 55, 36
3, 160475, Control_c, 0, 64, 127
3, 160554, Note_on_c, 0, 55, 0
3, 160556, Note_on_c, 0, 52, 0
3, 160557, Note_on_c, 0, 57, 0
3, 160646, Note_on_c, 0, 60, 0
3, 160663, Note_on_c, 0, 57, 48
3, 160675, Note_on_c, 0, 48, 46
3, 160682, Note_on_c, 0, 55, 36
3, 160699, Control_c, 0, 64, 0
3, 160831, Note_on_c, 0, 55, 0
3, 160836, Control_c, 0, 64, 127
3, 161116, Note_on_c, 0, 57, 0
3, 161127, Note_on_c, 0, 41, 54
3, 161154, Note_on_c, 0, 48, 0
3, 161280, Note_on_c, 0, 51, 31
3, 161286, Control_c, 0, 64, 0
3, 161303, Note_on_c, 0, 56, 53
3, 161367, Note_on_c, 0, 56, 0
3, 161379, Note_on_c, 0, 58, 56
3, 161447, Note_on_c, 0, 51, 0
3, 161464, Note_on_c, 0, 56, 38
3, 161471, Note_on_c, 0, 58, 0
3, 161534, Note_on_c, 0, 56, 0
3, 161590, Note_on_c, 0, 41, 0
3, 161598, Note_on_c, 0, 56, 21
3, 161659, Note_on_c, 0, 58, 50
3, 161674, Note_on_c, 0, 56, 0
3, 161722, Note_on_c, 0, 58, 0
3, 161765, Note_on_c, 0, 60, 58
3, 161841, Note_on_c, 0, 62, 64
3, 161844, Note_on_c, 0, 60, 0
3, 161929, Note_on_c, 0, 62, 0
3, 161963, Note_on_c, 0, 63, 49
3, 161990, Note_on_c, 0, 63, 0
3, 162061, Note_on_c, 0, 65, 42
3, 162098, Note_on_c, 0, 65, 0
3, 162142, Note_on_c, 0, 67, 58
3, 162222, Note_on_c, 0, 67, 0
3, 162237, Note_on_c, 0, 68, 61
3, 162306, Note_on_c, 0, 62, 42
3, 162311, Note_on_c, 0, 67, 31
3, 162312, Note_on_c, 0, 56, 46
3, 162343, Note_on_c, 0, 68, 0
3, 162354, Note_on_c, 0, 70, 67
3, 162426, Note_on_c, 0, 70, 0
3, 162495, Note_on_c, 0, 71, 69
3, 162498, Note_on_c, 0, 67, 0
3, 162559, Note_on_c, 0, 71, 0
3, 162610, Note_on_c, 0, 56, 0
3, 162614, Note_on_c, 0, 73, 67
3, 162663, Note_on_c, 0, 62, 0
3, 162673, Note_on_c, 0, 73, 0
3, 162721, Note_on_c, 0, 74, 64
3, 162745, Note_on_c, 0, 66, 44
3, 162748, Note_on_c, 0, 62, 22
3, 162759, Note_on_c, 0, 56, 25
3, 162797, Note_on_c, 0, 74, 0
3, 162817, Note_on_c, 0, 56, 0
3, 162820, Note_on_c, 0, 66, 0
3, 162846, Note_on_c, 0, 76, 55
3, 162869, Note_on_c, 0, 62, 0
3, 162933, Note_on_c, 0, 76, 0
3, 162958, Note_on_c, 0, 77, 53
3, 163000, Note_on_c, 0, 77, 0
3, 163019, Note_on_c, 0, 66, 52
3, 163026, Note_on_c, 0, 56, 49
3, 163027, Note_on_c, 0, 62, 36
3, 163065, Note_on_c, 0, 79, 57
3, 163093, Control_c, 0, 64, 127
3, 163094, Note_on_c, 0, 66, 0
3, 163113, Note_on_c, 0, 79, 0
3, 163126, Note_on_c, 0, 56, 0
3, 163130, Note_on_c, 0, 62, 0
3, 163170, Note_on_c, 0, 80, 60
3, 163173, Control_c, 0, 64, 0
3, 163187, Note_on_c, 0, 62, 43
3, 163210, Note_on_c, 0, 65, 60
3, 163230, Note_on_c, 0, 60, 31
3, 163247, Note_on_c, 0, 55, 34
3, 163269, Note_on_c, 0, 65, 0
3, 163271, Note_on_c, 0, 80, 0
3, 163296, Note_on_c, 0, 82, 47
3, 163403, Note_on_c, 0, 82, 0
3, 163425, Note_on_c, 0, 83, 55
3, 163461, Note_on_c, 0, 60, 0
3, 163463, Note_on_c, 0, 83, 0
3, 163474, Note_on_c, 0, 62, 0
3, 163481, Note_on_c, 0, 55, 0
3, 163510, Note_on_c, 0, 86, 82
3, 163602, Note_on_c, 0, 86, 0
3, 163654, Note_on_c, 0, 83, 54
3, 163684, Note_on_c, 0, 83, 0
3, 163739, Note_on_c, 0, 84, 71
3, 163840, Note_on_c, 0, 84, 0
3, 163868, Note_on_c, 0, 79, 55
3, 163933, Note_on_c, 0, 79, 0
3, 163959, Control_c, 0, 64, 127
3, 163973, Note_on_c, 0, 77, 27
3, 164013, Note_on_c, 0, 77, 0
3, 164160, Control_c, 0, 64, 0
3, 164166, Note_on_c, 0, 64, 67
3, 164170, Note_on_c, 0, 61, 42
3, 164177, Note_on_c, 0, 58, 38
3, 164193, Note_on_c, 0, 55, 29
3, 164213, Note_on_c, 0, 64, 0
3, 164230, Note_on_c, 0, 55, 0
3, 164255, Note_on_c, 0, 61, 0
3, 164290, Note_on_c, 0, 58, 0
3, 164374, Note_on_c, 0, 82, 68
3, 164385, Note_on_c, 0, 70, 72
3, 164455, Note_on_c, 0, 70, 0
3, 164483, Note_on_c, 0, 82, 0
3, 164525, Note_on_c, 0, 79, 49
3, 164601, Note_on_c, 0, 79, 0
3, 164658, Note_on_c, 0, 82, 76
3, 164665, Note_on_c, 0, 70, 67
3, 164680, Note_on_c, 0, 64, 42
3, 164684, Note_on_c, 0, 61, 33
3, 164715, Note_on_c, 0, 64, 0
3, 164727, Note_on_c, 0, 70, 0
3, 164739, Note_on_c, 0, 61, 0
3, 164754, Note_on_c, 0, 82, 0
3, 164849, Note_on_c, 0, 79, 33
3, 164901, Note_on_c, 0, 79, 0
3, 164962, Control_c, 0, 64, 127
3, 164988, Note_on_c, 0, 82, 84
3, 164994, Note_on_c, 0, 70, 86
3, 165087, Note_on_c, 0, 70, 0
3, 165094, Note_on_c, 0, 82, 0
3, 165114, Control_c, 0, 64, 0
3, 165148, Note_on_c, 0, 56, 45
3, 165154, Note_on_c, 0, 63, 48
3, 165156, Note_on_c, 0, 67, 44
3, 165158, Note_on_c, 0, 82, 61
3, 165167, Note_on_c, 0, 70, 64
3, 165175, Note_on_c, 0, 60, 42
3, 165216, Note_on_c, 0, 79, 18
3, 165258, Control_c, 0, 64, 127
3, 165259, Note_on_c, 0, 79, 0
3, 165304, Note_on_c, 0, 82, 0
3, 165375, Note_on_c, 0, 67, 0
3, 165386, Note_on_c, 0, 70, 0
3, 165456, Note_on_c, 0, 60, 0
3, 165471, Note_on_c, 0, 56, 0
3, 165487, Note_on_c, 0, 63, 0
3, 165616, Note_on_c, 0, 63, 33
3, 165625, Note_on_c, 0, 67, 51
3, 165627, Note_on_c, 0, 56, 35
3, 165631, Note_on_c, 0, 77, 63
3, 165643, Note_on_c, 0, 60, 43
3, 165787, Note_on_c, 0, 77, 0
3, 165810, Note_on_c, 0, 63, 0
3, 165821, Note_on_c, 0, 60, 0
3, 165842, Note_on_c, 0, 67, 0
3, 165860, Note_on_c, 0, 56, 0
3, 166109, Control_c, 0, 64, 0
3, 166111, Note_on_c, 0, 65, 58
3, 166122, Note_on_c, 0, 80, 59
3, 166126, Note_on_c, 0, 54, 38
3, 166131, Note_on_c, 0, 60, 37
3, 166132, Note_on_c, 0, 68, 43
3, 166139, Note_on_c, 0, 75, 42
3, 166141, Note_on_c, 0, 58, 35
3, 166254, Control_c, 0, 64, 127
3, 166372, Note_on_c, 0, 65, 0
3, 166376, Note_on_c, 0, 80, 0
3, 166387, Note_on_c, 0, 60, 0
3, 166389, Note_on_c, 0, 75, 0
3, 166404, Note_on_c, 0, 68, 0
3, 166438, Note_on_c, 0, 58, 0
3, 166443, Note_on_c, 0, 54, 0
3, 166591, Control_c, 0, 64, 0
3, 166598, Note_on_c, 0, 78, 38
3, 166600, Note_on_c, 0, 54, 53
3, 166601, Note_on_c, 0, 66, 35
3, 166625, Note_on_c, 0, 58, 26
3, 166631, Control_c, 0, 64, 127
3, 166818, Note_on_c, 0, 66, 0
3, 166876, Note_on_c, 0, 58, 0
3, 166893, Note_on_c, 0, 78, 0
3, 166907, Note_on_c, 0, 54, 0
3, 167040, Control_c, 0, 64, 0
3, 167071, Note_on_c, 0, 79, 36
3, 167078, Note_on_c, 0, 75, 49
3, 167080, Note_on_c, 0, 67, 31
3, 167082, Note_on_c, 0, 64, 36
3, 167083, Note_on_c, 0, 59, 41
3, 167107, Note_on_c, 0, 67, 0
3, 167109, Note_on_c, 0, 75, 0
3, 167118, Note_on_c, 0, 64, 0
3, 167119, Note_on_c, 0, 59, 0
3, 167124, Note_on_c, 0, 79, 0
3, 167128, Control_c, 0, 64, 127
3, 167200, Control_c, 0, 64, 0
3, 167312, Control_c, 0, 64, 127
3, 167409, Note_on_c, 0, 82, 76
3, 167414, Note_on_c, 0, 75, 71
3, 167417, Control_c, 0, 64, 0
3, 167418, Note_on_c, 0, 70, 81
3, 167423, Note_on_c, 0, 71, 52
3, 167427, Note_on_c, 0, 79, 47
3, 167489, Note_on_c, 0, 79, 0
3, 167501, Note_on_c, 0, 71, 0
3, 167504, Note_on_c, 0, 70, 0
3, 167519, Note_on_c, 0, 75, 0
3, 167525, Note_on_c, 0, 82, 0
3, 167615, Note_on_c, 0, 68, 46
3, 167644, Note_on_c, 0, 68, 0
3, 168050, Note_on_c, 0, 63, 69
3, 168052, Note_on_c, 0, 75, 71
3, 168055, Note_on_c, 0, 68, 59
3, 168058, Note_on_c, 0, 71, 57
3, 168061, Note_on_c, 0, 65, 68
3, 168143, Note_on_c, 0, 71, 0
3, 168147, Note_on_c, 0, 63, 0
3, 168161, Note_on_c, 0, 68, 0
3, 168171, Note_on_c, 0, 75, 0
3, 168184, Note_on_c, 0, 65, 0
3, 168370, Note_on_c, 0, 61, 57
3, 168380, Note_on_c, 0, 73, 73
3, 168383, Note_on_c, 0, 65, 72
3, 168391, Note_on_c, 0, 68, 58
3, 168458, Note_on_c, 0, 65, 0
3, 168474, Note_on_c, 0, 61, 0
3, 168534, Note_on_c, 0, 59, 40
3, 168536, Note_on_c, 0, 73, 0
3, 168555, Note_on_c, 0, 68, 0
3, 168585, Note_on_c, 0, 65, 33
3, 168626, Note_on_c, 0, 65, 0
3, 168735, Note_on_c, 0, 59, 0
3, 168821, Control_c, 0, 64, 127
3, 168851, Note_on_c, 0, 63, 30
3, 168965, Control_c, 0, 64, 0
3, 169017, Note_on_c, 0, 71, 45
3, 169020, Note_on_c, 0, 60, 47
3, 169021, Note_on_c, 0, 63, 0
3, 169022, Note_on_c, 0, 59, 57
3, 169026, Note_on_c, 0, 67, 34
3, 169028, Note_on_c, 0, 64, 56
3, 169222, Note_on_c, 0, 71, 0
3, 169226, Note_on_c, 0, 67, 0
3, 169240, Note_on_c, 0, 59, 0
3, 169247, Control_c, 0, 64, 127
3, 169268, Note_on_c, 0, 64, 0
3, 169280, Note_on_c, 0, 60, 0
3, 169335, Note_on_c, 0, 69, 58
3, 169339, Note_on_c, 0, 60, 50
3, 169348, Note_on_c, 0, 64, 65
3, 169379, Note_on_c, 0, 57, 54
3, 169412, Note_on_c, 0, 69, 0
3, 169434, Note_on_c, 0, 64, 0
3, 169463, Note_on_c, 0, 60, 0
3, 169483, Note_on_c, 0, 57, 0
3, 169489, Control_c, 0, 64, 0
3, 169535, Note_on_c, 0, 55, 46
3, 169559, Note_on_c, 0, 67, 18
3, 169559, Note_on_c, 0, 64, 39
3, 169581, Note_on_c, 0, 62, 25
3, 169654, Note_on_c, 0, 55, 0
3, 169671, Note_on_c, 0, 64, 0
3, 169679, Note_on_c, 0, 67, 0
3, 169685, Note_on_c, 0, 62, 0
3, 169793, Control_c, 0, 64, 127
3, 169815, Note_on_c, 0, 65, 41
3, 169817, Note_on_c, 0, 57, 45
3, 169822, Note_on_c, 0, 64, 42
3, 169828, Note_on_c, 0, 60, 36
3, 169842, Note_on_c, 0, 52, 34
3, 169882, Note_on_c, 0, 60, 0
3, 169908, Note_on_c, 0, 57, 0
3, 169943, Note_on_c, 0, 65, 0
3, 169959, Note_on_c, 0, 64, 0
3, 170010, Control_c, 0, 64, 0
3, 170013, Note_on_c, 0, 52, 0
3, 170024, Note_on_c, 0, 49, 49
3, 170032, Note_on_c, 0, 58, 38
3, 170051, Note_on_c, 0, 55, 15
3, 170095, Note_on_c, 0, 61, 6
3, 170103, Note_on_c, 0, 55, 0
3, 170152, Note_on_c, 0, 61, 0
3, 170158, Note_on_c, 0, 58, 0
3, 170170, Control_c, 0, 64, 127
3, 170368, Note_on_c, 0, 51, 42
3, 170427, Control_c, 0, 64, 0
3, 170438, Note_on_c, 0, 61, 57
3, 170441, Note_on_c, 0, 58, 52
3, 170442, Note_on_c, 0, 52, 56
3, 170445, Note_on_c, 0, 67, 35
3, 170452, Note_on_c, 0, 64, 44
3, 170464, Note_on_c, 0, 49, 0
3, 170482, Note_on_c, 0, 51, 0
3, 170589, Note_on_c, 0, 67, 0
3, 170636, Control_c, 0, 64, 127
3, 170650, Note_on_c, 0, 64, 0
3, 170685, Note_on_c, 0, 58, 0
3, 170746, Note_on_c, 0, 52, 0
3, 170775, Note_on_c, 0, 49, 39
3, 170776, Note_on_c, 0, 61, 0
3, 170885, Control_c, 0, 64, 0
3, 170922, Note_on_c, 0, 49, 0
3, 170929, Note_on_c, 0, 50, 48
3, 170937, Note_on_c, 0, 57, 47
3, 170951, Note_on_c, 0, 60, 38
3, 170957, Note_on_c, 0, 62, 34
3, 170959, Note_on_c, 0, 65, 40
3, 171010, Note_on_c, 0, 57, 0
3, 171066, Note_on_c, 0, 62, 0
3, 171079, Note_on_c, 0, 60, 0
3, 171108, Note_on_c, 0, 65, 0
3, 171906, Note_on_c, 0, 64, 99
3, 171924, Note_on_c, 0, 50, 0
3, 172033, Note_on_c, 0, 63, 62
3, 172052, Note_on_c, 0, 64, 0
3, 172089, Note_on_c, 0, 63, 0
3, 172106, Note_on_c, 0, 62, 53
3, 172199, Note_on_c, 0, 62, 0
3, 172223, Note_on_c, 0, 61, 49
3, 172274, Note_on_c, 0, 61, 0
3, 172353, Note_on_c, 0, 64, 76
3, 172456, Note_on_c, 0, 64, 0
3, 172473, Note_on_c, 0, 61, 42
3, 172559, Note_on_c, 0, 61, 0
3, 172582, Note_on_c, 0, 62, 60
3, 172678, Note_on_c, 0, 62, 0
3, 172711, Note_on_c, 0, 63, 62
3, 172790, Note_on_c, 0, 63, 0
3, 172830, Note_on_c, 0, 64, 70
3, 172938, Note_on_c, 0, 64, 0
3, 172960, Note_on_c, 0, 65, 71
3, 173066, Note_on_c, 0, 65, 0
3, 173100, Note_on_c, 0, 69, 54
3, 173181, Note_on_c, 0, 69, 0
3, 173209, Note_on_c, 0, 72, 53
3, 173259, Note_on_c, 0, 65, 43
3, 173271, Note_on_c, 0, 72, 0
3, 173277, Note_on_c, 0, 60, 40
3, 173289, Note_on_c, 0, 55, 27
3, 173348, Note_on_c, 0, 65, 0
3, 173352, Note_on_c, 0, 76, 49
3, 173420, Note_on_c, 0, 76, 0
3, 173442, Note_on_c, 0, 60, 0
3, 173467, Note_on_c, 0, 79, 76
3, 173473, Note_on_c, 0, 67, 71
3, 173607, Note_on_c, 0, 78, 59
3, 173615, Note_on_c, 0, 79, 0
3, 173620, Note_on_c, 0, 67, 0
3, 173646, Note_on_c, 0, 55, 0
3, 173679, Note_on_c, 0, 78, 0
3, 173806, Note_on_c, 0, 75, 25
3, 173836, Note_on_c, 0, 75, 0
3, 173876, Note_on_c, 0, 77, 63
3, 173986, Note_on_c, 0, 77, 0
3, 174134, Note_on_c, 0, 76, 71
3, 174163, Note_on_c, 0, 64, 47
3, 174175, Note_on_c, 0, 59, 33
3, 174204, Note_on_c, 0, 53, 26
3, 174257, Note_on_c, 0, 76, 0
3, 174290, Note_on_c, 0, 73, 37
3, 174333, Note_on_c, 0, 73, 0
3, 174395, Note_on_c, 0, 64, 0
3, 174417, Note_on_c, 0, 74, 46
3, 174471, Note_on_c, 0, 53, 0
3, 174476, Note_on_c, 0, 59, 0
3, 174498, Note_on_c, 0, 74, 0
3, 174607, Note_on_c, 0, 71, 58
3, 174688, Note_on_c, 0, 71, 0
3, 174854, Note_on_c, 0, 74, 24
3, 174871, Note_on_c, 0, 72, 17
3, 174900, Note_on_c, 0, 72, 0
3, 174914, Note_on_c, 0, 74, 0
3, 175078, Note_on_c, 0, 77, 73
3, 175086, Note_on_c, 0, 62, 52
3, 175090, Note_on_c, 0, 60, 49
3, 175098, Note_on_c, 0, 56, 38
3, 175107, Note_on_c, 0, 53, 29
3, 175156, Note_on_c, 0, 62, 0
3, 175175, Note_on_c, 0, 60, 0
3, 175186, Note_on_c, 0, 77, 0
3, 175192, Note_on_c, 0, 53, 0
3, 175234, Note_on_c, 0, 56, 0
3, 175279, Note_on_c, 0, 72, 40
3, 175514, Control_c, 0, 64, 127
3, 175522, Note_on_c, 0, 72, 0
3, 175546, Control_c, 0, 64, 0
3, 175546, Note_on_c, 0, 68, 48
3, 175581, Note_on_c, 0, 57, 45
3, 175606, Note_on_c, 0, 52, 32
3, 175618, Note_on_c, 0, 57, 0
3, 175677, Note_on_c, 0, 52, 0
3, 175696, Note_on_c, 0, 68, 0
3, 175737, Note_on_c, 0, 67, 43
3, 175906, Control_c, 0, 64, 127
3, 176007, Note_on_c, 0, 67, 0
3, 176026, Note_on_c, 0, 76, 65
3, 176028, Note_on_c, 0, 57, 58
3, 176058, Note_on_c, 0, 57, 0
3, 176115, Control_c, 0, 64, 0
3, 176149, Note_on_c, 0, 76, 0
3, 176220, Note_on_c, 0, 72, 33
3, 176300, Control_c, 0, 64, 127
3, 176487, Note_on_c, 0, 72, 0
3, 176520, Note_on_c, 0, 71, 49
3, 176525, Note_on_c, 0, 64, 57
3, 176557, Note_on_c, 0, 55, 24
3, 176558, Note_on_c, 0, 60, 29
3, 176561, Note_on_c, 0, 57, 29
3, 176629, Control_c, 0, 64, 0
3, 176679, Note_on_c, 0, 71, 0
3, 176759, Note_on_c, 0, 69, 44
3, 176958, Control_c, 0, 64, 127
3, 177002, Note_on_c, 0, 68, 38
3, 177014, Note_on_c, 0, 69, 0
3, 177070, Control_c, 0, 64, 0
3, 177088, Note_on_c, 0, 64, 0
3, 177101, Note_on_c, 0, 68, 0
3, 177142, Note_on_c, 0, 71, 72
3, 177176, Note_on_c, 0, 64, 15
3, 177229, Note_on_c, 0, 64, 0
3, 177258, Note_on_c, 0, 60, 0
3, 177339, Note_on_c, 0, 57, 0
3, 177359, Control_c, 0, 64, 127
3, 177383, Note_on_c, 0, 55, 0
3, 177472, Note_on_c, 0, 71, 0
3, 177475, Note_on_c, 0, 68, 42
3, 177535, Control_c, 0, 64, 0
3, 177549, Note_on_c, 0, 68, 0
3, 177625, Note_on_c, 0, 69, 57
3, 177671, Control_c, 0, 64, 127
3, 177884, Note_on_c, 0, 69, 0
3, 177938, Note_on_c, 0, 64, 52
3, 177950, Note_on_c, 0, 60, 25
3, 177954, Note_on_c, 0, 55, 32
3, 177977, Control_c, 0, 64, 0
3, 178081, Control_c, 0, 64, 127
3, 178119, Note_on_c, 0, 57, 1
3, 178222, Note_on_c, 0, 60, 0
3, 178320, Note_on_c, 0, 64, 0
3, 178382, Note_on_c, 0, 57, 0
3, 178389, Note_on_c, 0, 55, 0
3, 178558, Note_on_c, 0, 60, 9
3, 178559, Note_on_c, 0, 64, 49
3, 178568, Note_on_c, 0, 76, 47
3, 178570, Control_c, 0, 64, 0
3, 178572, Note_on_c, 0, 69, 60
3, 178589, Note_on_c, 0, 54, 36
3, 178772, Note_on_c, 0, 60, 0
3, 178844, Note_on_c, 0, 54, 0
3, 178867, Note_on_c, 0, 64, 0
3, 178872, Note_on_c, 0, 69, 0
3, 178884, Note_on_c, 0, 76, 0
3, 179032, Note_on_c, 0, 76, 46
3, 179036, Note_on_c, 0, 64, 40
3, 179049, Note_on_c, 0, 69, 44
3, 179050, Note_on_c, 0, 54, 35
3, 179058, Note_on_c, 0, 60, 19
3, 179083, Control_c, 0, 64, 127
3, 179098, Note_on_c, 0, 64, 0
3, 179189, Note_on_c, 0, 60, 0
3, 179207, Note_on_c, 0, 69, 0
3, 179233, Note_on_c, 0, 54, 0
3, 179306, Note_on_c, 0, 76, 0
3, 179383, Note_on_c, 0, 72, 44
3, 179386, Note_on_c, 0, 64, 47
3, 179390, Note_on_c, 0, 69, 41
3, 179390, Note_on_c, 0, 54, 40
3, 179398, Note_on_c, 0, 60, 36
3, 179412, Control_c, 0, 64, 0
3, 179463, Note_on_c, 0, 64, 0
3, 179501, Control_c, 0, 64, 127
3, 179503, Note_on_c, 0, 69, 0
3, 179504, Note_on_c, 0, 60, 0
3, 179530, Note_on_c, 0, 72, 0
3, 179539, Note_on_c, 0, 54, 0
3, 179975, Note_on_c, 0, 58, 81
3, 179976, Note_on_c, 0, 54, 87
3, 179977, Note_on_c, 0, 61, 81
3, 179983, Control_c, 0, 64, 0
3, 179985, Note_on_c, 0, 64, 88
3, 179986, Note_on_c, 0, 92, 83
3, 179988, Note_on_c, 0, 96, 89
3, 179991, Note_on_c, 0, 84, 85
3, 179999, Note_on_c, 0, 90, 60
3, 180025, Note_on_c, 0, 90, 0
3, 180143, Note_on_c, 0, 93, 75
3, 180146, Note_on_c, 0, 92, 0
3, 180162, Note_on_c, 0, 95, 24
3, 180199, Note_on_c, 0, 96, 0
3, 180211, Note_on_c, 0, 93, 0
3, 180212, Note_on_c, 0, 95, 0
3, 180218, Note_on_c, 0, 84, 0
3, 180254, Note_on_c, 0, 64, 0
3, 180279, Note_on_c, 0, 54, 0
3, 180295, Note_on_c, 0, 61, 0
3, 180298, Note_on_c, 0, 58, 0
3, 180321, Note_on_c, 0, 93, 81
3, 180346, Note_on_c, 0, 64, 74
3, 180350, Note_on_c, 0, 89, 64
3, 180352, Note_on_c, 0, 60, 64
3, 180356, Note_on_c, 0, 53, 64
3, 180357, Note_on_c, 0, 83, 48
3, 180360, Note_on_c, 0, 81, 60
3, 180361, Note_on_c, 0, 57, 70
3, 180362, Note_on_c, 0, 93, 52
3, 180380, Note_on_c, 0, 91, 24
3, 180415, Note_on_c, 0, 91, 0
3, 180441, Note_on_c, 0, 93, 0
3, 180527, Control_c, 0, 64, 127
3, 180535, Note_on_c, 0, 83, 0
3, 180841, Note_on_c, 0, 53, 0
3, 180848, Note_on_c, 0, 64, 0
3, 180852, Note_on_c, 0, 57, 0
3, 180857, Note_on_c, 0, 81, 0
3, 180863, Note_on_c, 0, 60, 0
3, 180866, Note_on_c, 0, 89, 0
3, 180885, Note_on_c, 0, 93, 0
3, 180969, Control_c, 0, 64, 0
3, 180991, Note_on_c, 0, 53, 36
3, 180993, Note_on_c, 0, 64, 37
3, 180997, Note_on_c, 0, 89, 41
3, 180999, Note_on_c, 0, 57, 44
3, 181001, Note_on_c, 0, 60, 37
3, 181003, Note_on_c, 0, 81, 37
3, 181005, Note_on_c, 0, 93, 32
3, 181108, Note_on_c, 0, 81, 0
3, 181152, Note_on_c, 0, 93, 0
3, 181159, Note_on_c, 0, 60, 0
3, 181165, Note_on_c, 0, 64, 0
3, 181166, Note_on_c, 0, 89, 0
3, 181170, Note_on_c, 0, 53, 0
3, 181184, Note_on_c, 0, 57, 0
3, 181322, Control_c, 0, 64, 127
3, 181327, Note_on_c, 0, 53, 34
3, 181332, Note_on_c, 0, 57, 45
3, 181333, Note_on_c, 0, 60, 44
3, 181346, Note_on_c, 0, 93, 59
3, 181350, Note_on_c, 0, 81, 51
3, 181351, Note_on_c, 0, 89, 53
3, 181364, Note_on_c, 0, 60, 0
3, 181382, Note_on_c, 0, 81, 0
3, 181398, Note_on_c, 0, 89, 0
3, 181401, Note_on_c, 0, 53, 0
3, 181407, Note_on_c, 0, 93, 0
3, 181408, Note_on_c, 0, 57, 0
3, 181450, Control_c, 0, 64, 0
3, 181504, Note_on_c, 0, 53, 49
3, 181514, Note_on_c, 0, 64, 53
3, 181515, Note_on_c, 0, 95, 59
3, 181517, Note_on_c, 0, 83, 49
3, 181522, Note_on_c, 0, 59, 52
3, 181546, Note_on_c, 0, 91, 28
3, 181607, Note_on_c, 0, 64, 0
3, 181615, Note_on_c, 0, 83, 0
3, 181620, Note_on_c, 0, 59, 0
3, 181642, Control_c, 0, 64, 127
3, 181644, Note_on_c, 0, 91, 0
3, 181676, Note_on_c, 0, 95, 0
3, 181690, Note_on_c, 0, 53, 0
3, 181815, Note_on_c, 0, 59, 66
3, 181816, Note_on_c, 0, 84, 68
3, 181817, Note_on_c, 0, 53, 61
3, 181818, Note_on_c, 0, 96, 71
3, 181819, Note_on_c, 0, 64, 67
3, 181855, Note_on_c, 0, 64, 0
3, 181875, Note_on_c, 0, 53, 0
3, 181876, Note_on_c, 0, 84, 0
3, 181889, Note_on_c, 0, 96, 0
3, 181890, Note_on_c, 0, 59, 0
3, 181918, Control_c, 0, 64, 0
3, 181954, Note_on_c, 0, 53, 68
3, 181958, Note_on_c, 0, 59, 70
3, 181964, Note_on_c, 0, 64, 80
3, 181969, Note_on_c, 0, 98, 84
3, 181975, Note_on_c, 0, 86, 76
3, 181983, Note_on_c, 0, 93, 77
3, 182062, Control_c, 0, 64, 127
3, 182127, Note_on_c, 0, 98, 0
3, 182143, Note_on_c, 0, 93, 0
3, 182170, Note_on_c, 0, 64, 0
3, 182177, Note_on_c, 0, 53, 0
3, 182192, Note_on_c, 0, 86, 0
3, 182209, Note_on_c, 0, 59, 0
3, 182299, Note_on_c, 0, 95, 65
3, 182300, Note_on_c, 0, 59, 64
3, 182308, Note_on_c, 0, 62, 70
3, 182316, Note_on_c, 0, 88, 51
3, 182317, Note_on_c, 0, 52, 59
3, 182320, Note_on_c, 0, 91, 54
3, 182326, Note_on_c, 0, 55, 55
3, 182327, Note_on_c, 0, 83, 42
3, 182354, Control_c, 0, 64, 0
3, 182372, Note_on_c, 0, 62, 0
3, 182383, Note_on_c, 0, 59, 0
3, 182387, Note_on_c, 0, 91, 0
3, 182410, Note_on_c, 0, 95, 0
3, 182413, Note_on_c, 0, 55, 0
3, 182419, Note_on_c, 0, 88, 0
3, 182432, Note_on_c, 0, 83, 0
3, 182454, Note_on_c, 0, 52, 0
3, 182561, Control_c, 0, 64, 127
3, 182568, Note_on_c, 0, 91, 31
3, 182573, Note_on_c, 0, 55, 69
3, 182580, Note_on_c, 0, 79, 47
3, 182581, Note_on_c, 0, 86, 43
3, 182583, Note_on_c, 0, 54, 57
3, 182654, Note_on_c, 0, 54, 0
3, 182671, Note_on_c, 0, 91, 0
3, 182724, Note_on_c, 0, 86, 0
3, 182789, Note_on_c, 0, 79, 0
3, 182834, Control_c, 0, 64, 0
3, 182886, Note_on_c, 0, 43, 64
3, 182887, Note_on_c, 0, 55, 0
3, 182930, Control_c, 0, 64, 127
3, 183205, Note_on_c, 0, 67, 55
3, 183218, Note_on_c, 0, 60, 56
3, 183226, Note_on_c, 0, 57, 57
3, 183230, Note_on_c, 0, 53, 60
3, 183238, Note_on_c, 0, 64, 33
3, 183243, Control_c, 0, 64, 0
3, 183395, Control_c, 0, 64, 127
3, 183600, Note_on_c, 0, 64, 0
3, 183625, Note_on_c, 0, 67, 0
3, 183674, Note_on_c, 0, 60, 0
3, 183681, Note_on_c, 0, 57, 0
3, 183714, Note_on_c, 0, 51, 43
3, 183758, Note_on_c, 0, 53, 0
3, 183797, Note_on_c, 0, 51, 0
3, 183839, Note_on_c, 0, 43, 0
3, 183868, Note_on_c, 0, 55, 125
3, 183885, Control_c, 0, 64, 0
3, 183996, Note_on_c, 0, 55, 0
3, 184030, Note_on_c, 0, 55, 51
3, 184259, Note_on_c, 0, 55, 0
3, 184361, Note_on_c, 0, 55, 85
3, 184461, Note_on_c, 0, 55, 0
3, 184513, Note_on_c, 0, 55, 68
3, 184682, Note_on_c, 0, 55, 0
3, 184831, Note_on_c, 0, 55, 87
3, 184919, Note_on_c, 0, 55, 0
3, 184980, Note_on_c, 0, 55, 62
3, 185142, Note_on_c, 0, 55, 0
3, 185200, Note_on_c, 0, 49, 33
3, 185203, Note_on_c, 0, 52, 30
3, 185247, Note_on_c, 0, 52, 0
3, 185249, Note_on_c, 0, 49, 0
3, 185303, Note_on_c, 0, 55, 88
3, 185376, Note_on_c, 0, 55, 0
3, 185435, Note_on_c, 0, 55, 55
3, 185676, Note_on_c, 0, 49, 42
3, 185711, Note_on_c, 0, 55, 0
3, 185734, Note_on_c, 0, 49, 0
3, 185767, Note_on_c, 0, 60, 89
3, 186052, Note_on_c, 0, 60, 0
3, 186159, Note_on_c, 0, 38, 50
3, 186196, Note_on_c, 0, 38, 0
3, 187052, Note_on_c, 0, 50, 30
3, 187103, Note_on_c, 0, 50, 0
3, 187181, Note_on_c, 0, 55, 108
3, 187247, Note_on_c, 0, 55, 0
3, 187309, Note_on_c, 0, 55, 69
3, 187534, Note_on_c, 0, 43, 51
3, 187543, Note_on_c, 0, 55, 0
3, 187567, Note_on_c, 0, 43, 0
3, 187667, Note_on_c, 0, 64, 95
3, 188010, Note_on_c, 0, 59, 60
3, 188019, Note_on_c, 0, 53, 49
3, 188038, Note_on_c, 0, 59, 0
3, 188082, Note_on_c, 0, 53, 0
3, 188466, Note_on_c, 0, 43, 44
3, 188497, Note_on_c, 0, 43, 0
3, 188585, Note_on_c, 0, 64, 0
3, 188623, Note_on_c, 0, 55, 72
3, 188855, Note_on_c, 0, 55, 0
3, 188946, Note_on_c, 0, 55, 59
3, 188949, Note_on_c, 0, 50, 54
3, 188999, Note_on_c, 0, 50, 0
3, 189049, Note_on_c, 0, 55, 0
3, 189138, Note_on_c, 0, 55, 54
3, 189285, Control_c, 0, 64, 127
3, 189369, Note_on_c, 0, 55, 0
3, 189434, Note_on_c, 0, 69, 69
3, 189574, Control_c, 0, 64, 0
3, 189575, Note_on_c, 0, 69, 0
3, 189650, Note_on_c, 0, 67, 33
3, 189892, Note_on_c, 0, 67, 0
3, 189896, Note_on_c, 0, 36, 42
3, 189897, Note_on_c, 0, 43, 44
3, 189911, Note_on_c, 0, 52, 31
3, 189926, Note_on_c, 0, 60, 48
3, 189930, Note_on_c, 0, 36, 0
3, 189954, Note_on_c, 0, 52, 0
3, 190015, Note_on_c, 0, 43, 0
3, 190060, Note_on_c, 0, 60, 0
3, 190127, Note_on_c, 0, 65, 84
3, 190330, Note_on_c, 0, 65, 0
3, 190417, Note_on_c, 0, 56, 45
3, 190418, Note_on_c, 0, 64, 54
3, 190451, Note_on_c, 0, 56, 0
3, 190538, Note_on_c, 0, 64, 0
3, 190610, Note_on_c, 0, 60, 32
3, 190816, Note_on_c, 0, 60, 0
3, 190873, Control_c, 0, 64, 127
3, 190878, Note_on_c, 0, 56, 51
3, 190993, Control_c, 0, 64, 0
3, 190999, Note_on_c, 0, 56, 0
3, 191090, Note_on_c, 0, 55, 32
3, 191227, Note_on_c, 0, 55, 0
3, 191242, Control_c, 0, 64, 127
3, 191335, Note_on_c, 0, 46, 57
3, 191355, Note_on_c, 0, 56, 48
3, 191402, Control_c, 0, 64, 0
3, 191405, Note_on_c, 0, 56, 0
3, 191579, Control_c, 0, 64, 127
3, 191773, Note_on_c, 0, 52, 30
3, 191852, Note_on_c, 0, 46, 0
3, 191888, Note_on_c, 0, 52, 0
3, 191940, Control_c, 0, 64, 0
3, 191955, Note_on_c, 0, 45, 45
3, 191957, Note_on_c, 0, 57, 40
3, 192272, Note_on_c, 0, 45, 0
3, 192279, Note_on_c, 0, 57, 0
3, 192286, Note_on_c, 0, 52, 37
3, 192338, Note_on_c, 0, 52, 0
3, 192434, Note_on_c, 0, 76, 87
3, 192555, Note_on_c, 0, 76, 0
3, 192562, Note_on_c, 0, 71, 66
3, 192625, Note_on_c, 0, 71, 0
3, 192690, Note_on_c, 0, 74, 73
3, 192826, Note_on_c, 0, 72, 58
3, 192853, Note_on_c, 0, 74, 0
3, 192857, Note_on_c, 0, 64, 38
3, 192872, Note_on_c, 0, 60, 37
3, 192882, Note_on_c, 0, 59, 34
3, 192889, Note_on_c, 0, 72, 0
3, 192907, Note_on_c, 0, 64, 0
3, 192941, Note_on_c, 0, 68, 52
3, 193026, Note_on_c, 0, 68, 0
3, 193066, Note_on_c, 0, 71, 64
3, 193124, Note_on_c, 0, 59, 0
3, 193130, Note_on_c, 0, 60, 0
3, 193192, Note_on_c, 0, 69, 51
3, 193199, Note_on_c, 0, 71, 0
3, 193273, Note_on_c, 0, 69, 0
3, 193325, Note_on_c, 0, 64, 46
3, 193400, Note_on_c, 0, 64, 0
3, 193464, Note_on_c, 0, 62, 49
3, 193579, Note_on_c, 0, 62, 0
3, 193796, Note_on_c, 0, 59, 58
3, 193810, Note_on_c, 0, 48, 32
3, 193836, Note_on_c, 0, 59, 0
3, 193850, Note_on_c, 0, 48, 0
3, 194239, Note_on_c, 0, 64, 54
3, 194246, Note_on_c, 0, 54, 40
3, 194249, Note_on_c, 0, 60, 45
3, 194627, Note_on_c, 0, 60, 0
3, 194668, Control_c, 0, 64, 127
3, 194759, Note_on_c, 0, 60, 29
3, 194823, Note_on_c, 0, 64, 0
3, 194834, Note_on_c, 0, 80, 50
3, 194844, Control_c, 0, 64, 0
3, 194864, Note_on_c, 0, 80, 0
3, 194923, Note_on_c, 0, 80, 54
3, 194925, Note_on_c, 0, 71, 83
3, 194926, Note_on_c, 0, 83, 83
3, 194934, Note_on_c, 0, 76, 66
3, 195058, Note_on_c, 0, 76, 0
3, 195073, Note_on_c, 0, 54, 0
3, 195091, Note_on_c, 0, 60, 0
3, 195173, Control_c, 0, 64, 127
3, 195174, Note_on_c, 0, 83, 0
3, 195207, Note_on_c, 0, 71, 0
3, 195288, Note_on_c, 0, 80, 0
3, 195358, Control_c, 0, 64, 0
3, 195390, Note_on_c, 0, 82, 60
3, 195399, Note_on_c, 0, 70, 46
3, 195415, Note_on_c, 0, 64, 24
3, 195419, Note_on_c, 0, 60, 24
3, 195422, Note_on_c, 0, 76, 33
3, 195422, Note_on_c, 0, 54, 18
3, 195455, Note_on_c, 0, 58, 21
3, 195564, Note_on_c, 0, 76, 0
3, 195580, Note_on_c, 0, 64, 0
3, 195598, Note_on_c, 0, 70, 0
3, 195603, Note_on_c, 0, 58, 0
3, 195611, Note_on_c, 0, 60, 0
3, 195616, Note_on_c, 0, 82, 0
3, 195632, Note_on_c, 0, 54, 0
3, 195880, Note_on_c, 0, 69, 47
3, 195881, Note_on_c, 0, 81, 43
3, 195886, Note_on_c, 0, 64, 29
3, 195889, Note_on_c, 0, 60, 27
3, 195890, Note_on_c, 0, 76, 35
3, 195892, Note_on_c, 0, 57, 35
3, 195893, Note_on_c, 0, 53, 24
3, 195923, Control_c, 0, 64, 127
3, 195954, Note_on_c, 0, 69, 0
3, 195958, Note_on_c, 0, 64, 0
3, 195976, Note_on_c, 0, 76, 0
3, 195986, Note_on_c, 0, 81, 0
3, 195994, Note_on_c, 0, 53, 0
3, 196004, Note_on_c, 0, 57, 0
3, 196011, Note_on_c, 0, 60, 0
3, 196218, Note_on_c, 0, 72, 44
3, 196221, Note_on_c, 0, 84, 46
3, 196226, Note_on_c, 0, 60, 37
3, 196230, Note_on_c, 0, 79, 44
3, 196240, Note_on_c, 0, 57, 26
3, 196247, Note_on_c, 0, 72, 0
3, 196256, Note_on_c, 0, 60, 0
3, 196258, Note_on_c, 0, 79, 0
3, 196259, Note_on_c, 0, 84, 0
3, 196273, Note_on_c, 0, 57, 0
3, 196319, Control_c, 0, 64, 0
3, 196346, Note_on_c, 0, 82, 48
3, 196347, Note_on_c, 0, 53, 58
3, 196348, Note_on_c, 0, 64, 65
3, 196349, Note_on_c, 0, 57, 54
3, 196351, Note_on_c, 0, 88, 83
3, 196351, Note_on_c, 0, 60, 61
3, 196358, Note_on_c, 0, 76, 73
3, 196362, Note_on_c, 0, 83, 66
3, 196374, Note_on_c, 0, 82, 0
3, 196433, Control_c, 0, 64, 127
3, 196512, Note_on_c, 0, 76, 0
3, 196522, Note_on_c, 0, 83, 0
3, 196530, Note_on_c, 0, 53, 0
3, 196535, Note_on_c, 0, 64, 0
3, 196538, Note_on_c, 0, 60, 0
3, 196553, Note_on_c, 0, 88, 0
3, 196554, Note_on_c, 0, 57, 0
3, 196686, Note_on_c, 0, 91, 77
3, 196687, Note_on_c, 0, 53, 66
3, 196690, Note_on_c, 0, 79, 70
3, 196693, Note_on_c, 0, 59, 68
3, 196695, Note_on_c, 0, 64, 74
3, 196703, Note_on_c, 0, 85, 72
3, 196770, Control_c, 0, 64, 0
3, 196787, Note_on_c, 0, 85, 0
3, 196816, Note_on_c, 0, 86, 28
3, 196850, Note_on_c, 0, 79, 0
3, 196872, Note_on_c, 0, 86, 0
3, 196874, Note_on_c, 0, 91, 0
3, 196887, Note_on_c, 0, 64, 0
3, 196890, Note_on_c, 0, 53, 0
3, 196930, Note_on_c, 0, 59, 0
3, 196938, Control_c, 0, 64, 127
3, 197030, Note_on_c, 0, 59, 58
3, 197034, Note_on_c, 0, 94, 67
3, 197036, Note_on_c, 0, 53, 62
3, 197038, Note_on_c, 0, 64, 59
3, 197049, Note_on_c, 0, 82, 68
3, 197121, Note_on_c, 0, 95, 30
3, 197148, Note_on_c, 0, 82, 0
3, 197190, Note_on_c, 0, 53, 0
3, 197191, Note_on_c, 0, 64, 0
3, 197198, Note_on_c, 0, 95, 0
3, 197211, Note_on_c, 0, 94, 0
3, 197250, Control_c, 0, 64, 0
3, 197268, Note_on_c, 0, 59, 0
3, 197327, Note_on_c, 0, 59, 25
3, 197330, Note_on_c, 0, 53, 47
3, 197347, Note_on_c, 0, 64, 44
3, 197351, Note_on_c, 0, 80, 47
3, 197358, Note_on_c, 0, 92, 48
3, 197387, Control_c, 0, 64, 127
3, 197472, Note_on_c, 0, 64, 0
3, 197496, Note_on_c, 0, 53, 0
3, 197530, Note_on_c, 0, 59, 0
3, 197553, Note_on_c, 0, 92, 0
3, 197578, Note_on_c, 0, 80, 0
3, 197629, Note_on_c, 0, 59, 46
3, 197640, Note_on_c, 0, 62, 61
3, 197650, Note_on_c, 0, 52, 44
3, 197651, Note_on_c, 0, 79, 47
3, 197652, Note_on_c, 0, 91, 44
3, 197654, Control_c, 0, 64, 0
3, 197663, Note_on_c, 0, 55, 46
3, 197664, Note_on_c, 0, 86, 42
3, 197761, Note_on_c, 0, 55, 0
3, 197763, Note_on_c, 0, 52, 0
3, 197764, Note_on_c, 0, 79, 0
3, 197783, Note_on_c, 0, 86, 0
3, 197790, Note_on_c, 0, 59, 0
3, 197791, Note_on_c, 0, 62, 0
3, 197799, Control_c, 0, 64, 127
3, 197804, Note_on_c, 0, 91, 0
3, 198087, Note_on_c, 0, 55, 60
3, 198087, Note_on_c, 0, 60, 59
3, 198090, Note_on_c, 0, 65, 69
3, 198091, Note_on_c, 0, 96, 80
3, 198095, Note_on_c, 0, 61, 57
3, 198098, Note_on_c, 0, 84, 66
3, 198103, Control_c, 0, 64, 0
3, 198240, Control_c, 0, 64, 127
3, 198243, Note_on_c, 0, 84, 0
3, 198279, Note_on_c, 0, 96, 0
3, 198301, Note_on_c, 0, 65, 0
3, 198304, Note_on_c, 0, 60, 0
3, 198306, Note_on_c, 0, 55, 0
3, 198353, Note_on_c, 0, 61, 0
3, 198418, Note_on_c, 0, 100, 69
3, 198428, Note_on_c, 0, 64, 66
3, 198430, Note_on_c, 0, 88, 66
3, 198433, Note_on_c, 0, 54, 64
3, 198434, Note_on_c, 0, 60, 63
3, 198526, Note_on_c, 0, 88, 0
3, 198559, Note_on_c, 0, 100, 0
3, 198583, Note_on_c, 0, 64, 0
3, 198588, Note_on_c, 0, 54, 0
3, 198623, Note_on_c, 0, 60, 0
3, 198657, Control_c, 0, 64, 0
3, 198712, Note_on_c, 0, 105, 80
3, 198720, Note_on_c, 0, 54, 79
3, 198721, Note_on_c, 0, 93, 66
3, 198722, Note_on_c, 0, 60, 58
3, 198723, Note_on_c, 0, 64, 64
3, 198731, Note_on_c, 0, 99, 56
3, 198777, Control_c, 0, 64, 127
3, 198848, Note_on_c, 0, 99, 0
3, 198860, Note_on_c, 0, 100, 33
3, 198880, Note_on_c, 0, 60, 0
3, 198910, Note_on_c, 0, 64, 0
3, 198920, Note_on_c, 0, 105, 0
3, 198928, Note_on_c, 0, 100, 0
3, 198937, Note_on_c, 0, 93, 0
3, 198957, Note_on_c, 0, 54, 0
3, 199045, Note_on_c, 0, 103, 66
3, 199050, Note_on_c, 0, 91, 62
3, 199063, Note_on_c, 0, 59, 68
3, 199069, Note_on_c, 0, 98, 64
3, 199071, Note_on_c, 0, 53, 65
3, 199073, Control_c, 0, 64, 0
3, 199143, Note_on_c, 0, 53, 0
3, 199158, Note_on_c, 0, 59, 0
3, 199170, Note_on_c, 0, 103, 0
3, 199175, Note_on_c, 0, 98, 0
3, 199201, Note_on_c, 0, 91, 0
3, 199234, Control_c, 0, 64, 127
3, 199250, Control_c, 0, 64, 0
3, 199497, Note_on_c, 0, 63, 71
3, 199505, Note_on_c, 0, 59, 55
3, 199513, Note_on_c, 0, 53, 50
3, 199519, Note_on_c, 0, 56, 51
3, 199536, Note_on_c, 0, 59, 0
3, 199581, Note_on_c, 0, 53, 0
3, 199626, Note_on_c, 0, 63, 0
3, 199635, Note_on_c, 0, 56, 0
3, 199672, Note_on_c, 0, 62, 64
3, 199682, Note_on_c, 0, 52, 56
3, 199709, Note_on_c, 0, 57, 45
3, 199894, Note_on_c, 0, 95, 68
3, 199959, Note_on_c, 0, 95, 0
3, 200042, Note_on_c, 0, 98, 90
3, 200150, Note_on_c, 0, 98, 0
3, 200215, Note_on_c, 0, 96, 76
3, 200312, Note_on_c, 0, 96, 0
3, 200322, Note_on_c, 0, 62, 0
3, 200383, Note_on_c, 0, 92, 40
3, 200471, Note_on_c, 0, 92, 0
3, 200479, Note_on_c, 0, 62, 1
3, 200516, Note_on_c, 0, 95, 82
3, 200582, Note_on_c, 0, 57, 0
3, 200596, Note_on_c, 0, 52, 0
3, 200626, Note_on_c, 0, 95, 0
3, 200695, Note_on_c, 0, 93, 62
3, 200753, Note_on_c, 0, 62, 0
3, 200802, Note_on_c, 0, 93, 0
3, 200866, Note_on_c, 0, 88, 40
3, 200898, Note_on_c, 0, 88, 0
3, 200994, Note_on_c, 0, 61, 47
3, 201008, Note_on_c, 0, 64, 40
3, 201010, Note_on_c, 0, 55, 41
3, 201013, Note_on_c, 0, 58, 39
3, 201487, Note_on_c, 0, 55, 0
3, 201546, Note_on_c, 0, 64, 0
3, 201599, Note_on_c, 0, 61, 0
3, 201600, Note_on_c, 0, 58, 0
3, 201640, Note_on_c, 0, 64, 36
3, 201649, Note_on_c, 0, 60, 41
3, 201667, Note_on_c, 0, 57, 32
3, 201671, Note_on_c, 0, 53, 35
3, 201818, Note_on_c, 0, 88, 54
3, 201850, Note_on_c, 0, 88, 0
3, 201925, Note_on_c, 0, 91, 71
3, 202001, Note_on_c, 0, 91, 0
3, 202046, Note_on_c, 0, 89, 68
3, 202123, Note_on_c, 0, 89, 0
3, 202160, Note_on_c, 0, 85, 55
3, 202215, Note_on_c, 0, 85, 0
3, 202276, Note_on_c, 0, 88, 75
3, 202370, Note_on_c, 0, 60, 0
3, 202381, Note_on_c, 0, 88, 0
3, 202399, Note_on_c, 0, 86, 38
3, 202407, Note_on_c, 0, 64, 0
3, 202489, Note_on_c, 0, 86, 0
3, 202522, Note_on_c, 0, 81, 45
3, 202553, Note_on_c, 0, 81, 0
3, 202582, Note_on_c, 0, 57, 0
3, 202631, Note_on_c, 0, 84, 76
3, 202714, Note_on_c, 0, 84, 0
3, 202761, Note_on_c, 0, 86, 43
3, 202810, Note_on_c, 0, 84, 34
3, 202828, Note_on_c, 0, 86, 0
3, 202893, Note_on_c, 0, 81, 38
3, 202898, Note_on_c, 0, 84, 0
3, 202932, Note_on_c, 0, 81, 0
3, 203031, Note_on_c, 0, 84, 69
3, 203091, Note_on_c, 0, 84, 0
3, 203146, Note_on_c, 0, 86, 68
3, 203212, Note_on_c, 0, 86, 0
3, 203214, Note_on_c, 0, 53, 0
3, 203288, Note_on_c, 0, 81, 51
3, 203319, Note_on_c, 0, 81, 0
3, 203419, Note_on_c, 0, 84, 70
3, 203480, Note_on_c, 0, 84, 0
3, 203554, Note_on_c, 0, 86, 59
3, 203583, Note_on_c, 0, 86, 0
3, 203825, Note_on_c, 0, 85, 94
3, 203851, Note_on_c, 0, 64, 72
3, 203853, Note_on_c, 0, 59, 60
3, 203869, Note_on_c, 0, 53, 46
3, 203937, Note_on_c, 0, 64, 0
3, 203960, Note_on_c, 0, 53, 0
3, 203985, Note_on_c, 0, 85, 0
3, 203992, Note_on_c, 0, 59, 0
3, 204039, Note_on_c, 0, 87, 44
3, 204087, Note_on_c, 0, 87, 0
3, 204098, Note_on_c, 0, 85, 43
3, 204151, Note_on_c, 0, 85, 0
3, 204157, Note_on_c, 0, 82, 39
3, 204190, Note_on_c, 0, 82, 0
3, 204258, Note_on_c, 0, 85, 75
3, 204357, Note_on_c, 0, 85, 0
3, 204447, Note_on_c, 0, 87, 74
3, 204485, Note_on_c, 0, 63, 28
3, 204516, Note_on_c, 0, 59, 19
3, 204518, Note_on_c, 0, 56, 21
3, 204533, Note_on_c, 0, 87, 0
3, 204551, Note_on_c, 0, 59, 0
3, 204557, Note_on_c, 0, 63, 0
3, 204563, Note_on_c, 0, 56, 0
3, 204594, Note_on_c, 0, 85, 57
3, 204666, Note_on_c, 0, 85, 0
3, 204764, Note_on_c, 0, 82, 44
3, 204791, Note_on_c, 0, 82, 0
3, 204926, Note_on_c, 0, 63, 59
3, 204931, Note_on_c, 0, 53, 60
3, 204942, Note_on_c, 0, 59, 61
3, 204951, Note_on_c, 0, 56, 43
3, 205132, Note_on_c, 0, 59, 0
3, 205177, Note_on_c, 0, 53, 0
3, 205208, Note_on_c, 0, 63, 0
3, 205240, Note_on_c, 0, 56, 0
3, 205301, Note_on_c, 0, 62, 59
3, 205303, Note_on_c, 0, 86, 101
3, 205310, Note_on_c, 0, 57, 54
3, 205314, Note_on_c, 0, 52, 31
3, 205508, Note_on_c, 0, 86, 0
3, 205565, Note_on_c, 0, 88, 44
3, 205620, Note_on_c, 0, 86, 31
3, 205621, Note_on_c, 0, 88, 0
3, 205694, Note_on_c, 0, 83, 39
3, 205698, Note_on_c, 0, 86, 0
3, 205779, Note_on_c, 0, 83, 0
3, 205850, Note_on_c, 0, 86, 62
3, 205940, Note_on_c, 0, 86, 0
3, 206005, Note_on_c, 0, 88, 65
3, 206007, Note_on_c, 0, 57, 0
3, 206009, Note_on_c, 0, 62, 0
3, 206040, Note_on_c, 0, 88, 0
3, 206162, Note_on_c, 0, 95, 75
3, 206205, Note_on_c, 0, 95, 0
3, 206324, Note_on_c, 0, 95, 76
3, 206339, Note_on_c, 0, 83, 55
3, 206400, Note_on_c, 0, 83, 0
3, 206401, Note_on_c, 0, 95, 0
3, 206456, Note_on_c, 0, 52, 0
3, 206495, Note_on_c, 0, 95, 74
3, 206503, Note_on_c, 0, 83, 62
3, 206567, Note_on_c, 0, 83, 0
3, 206578, Note_on_c, 0, 95, 0
3, 206674, Note_on_c, 0, 93, 61
3, 206680, Note_on_c, 0, 81, 53
3, 206722, Note_on_c, 0, 81, 0
3, 206742, Note_on_c, 0, 93, 0
3, 206811, Note_on_c, 0, 95, 75
3, 206818, Note_on_c, 0, 83, 55
3, 206880, Note_on_c, 0, 95, 0
3, 206881, Note_on_c, 0, 83, 0
3, 206966, Note_on_c, 0, 93, 64
3, 206975, Note_on_c, 0, 81, 47
3, 207070, Note_on_c, 0, 81, 0
3, 207080, Note_on_c, 0, 93, 0
3, 207236, Note_on_c, 0, 91, 60
3, 207246, Note_on_c, 0, 79, 57
3, 207258, Note_on_c, 0, 61, 36
3, 207259, Note_on_c, 0, 64, 35
3, 207296, Note_on_c, 0, 64, 0
3, 207310, Note_on_c, 0, 79, 0
3, 207313, Note_on_c, 0, 91, 0
3, 207324, Note_on_c, 0, 61, 0
3, 207535, Note_on_c, 0, 87, 46
3, 207549, Note_on_c, 0, 75, 28
3, 207608, Note_on_c, 0, 88, 67
3, 207609, Note_on_c, 0, 87, 0
3, 207611, Note_on_c, 0, 75, 0
3, 207636, Note_on_c, 0, 76, 24
3, 207655, Note_on_c, 0, 88, 0
3, 207679, Note_on_c, 0, 76, 0
3, 207707, Note_on_c, 0, 64, 24
3, 207721, Note_on_c, 0, 57, 29
3, 207727, Note_on_c, 0, 60, 29
3, 207735, Note_on_c, 0, 64, 0
3, 207767, Note_on_c, 0, 60, 0
3, 207823, Note_on_c, 0, 72, 59
3, 207823, Note_on_c, 0, 84, 55
3, 207830, Note_on_c, 0, 57, 0
3, 208070, Note_on_c, 0, 72, 0
3, 208090, Note_on_c, 0, 84, 0
3, 208151, Note_on_c, 0, 81, 54
3, 208161, Note_on_c, 0, 55, 33
3, 208166, Note_on_c, 0, 64, 24
3, 208169, Note_on_c, 0, 60, 35
3, 208170, Note_on_c, 0, 57, 31
3, 208380, Control_c, 0, 64, 127
3, 208426, Note_on_c, 0, 72, 2
3, 208855, Note_on_c, 0, 72, 0
3, 208911, Note_on_c, 0, 81, 0
3, 209069, Note_on_c, 0, 64, 0
3, 209070, Note_on_c, 0, 55, 0
3, 209103, Note_on_c, 0, 57, 0
3, 209120, Note_on_c, 0, 60, 0
3, 209667, Note_on_c, 0, 56, 25
3, 209765, Note_on_c, 0, 56, 0
3, 209787, Note_on_c, 0, 58, 28
3, 209811, Note_on_c, 0, 71, 65
3, 209815, Note_on_c, 0, 60, 76
3, 209818, Note_on_c, 0, 64, 71
3, 209821, Note_on_c, 0, 68, 53
3, 209823, Note_on_c, 0, 58, 0
3, 209823, Note_on_c, 0, 59, 70
3, 209856, Note_on_c, 0, 68, 0
3, 209865, Control_c, 0, 64, 0
3, 209867, Note_on_c, 0, 60, 0
3, 209885, Note_on_c, 0, 64, 0
3, 209912, Note_on_c, 0, 71, 0
3, 209928, Note_on_c, 0, 58, 55
3, 209951, Note_on_c, 0, 59, 0
3, 210035, Note_on_c, 0, 58, 0
3, 210071, Note_on_c, 0, 57, 29
3, 210109, Note_on_c, 0, 57, 0
3, 210115, Note_on_c, 0, 56, 51
3, 210145, Note_on_c, 0, 68, 42
3, 210147, Note_on_c, 0, 60, 36
3, 210153, Note_on_c, 0, 64, 40
3, 210231, Note_on_c, 0, 60, 0
3, 210264, Note_on_c, 0, 64, 0
3, 210284, Note_on_c, 0, 68, 0
3, 210289, Note_on_c, 0, 56, 0
3, 210313, Note_on_c, 0, 71, 54
3, 210326, Note_on_c, 0, 60, 32
3, 210328, Note_on_c, 0, 59, 44
3, 210338, Note_on_c, 0, 64, 29
3, 210377, Note_on_c, 0, 64, 0
3, 210378, Note_on_c, 0, 60, 0
3, 210404, Note_on_c, 0, 71, 0
3, 210435, Note_on_c, 0, 59, 0
3, 210465, Note_on_c, 0, 69, 53
3, 210584, Note_on_c, 0, 69, 0
3, 210629, Note_on_c, 0, 60, 44
3, 210633, Note_on_c, 0, 64, 60
3, 210656, Note_on_c, 0, 60, 0
3, 210679, Note_on_c, 0, 64, 0
3, 210955, Control_c, 0, 64, 127
3, 211257, Note_on_c, 0, 76, 69
3, 211265, Note_on_c, 0, 65, 80
3, 211268, Control_c, 0, 64, 0
3, 211274, Note_on_c, 0, 64, 76
3, 211278, Note_on_c, 0, 69, 60
3, 211309, Note_on_c, 0, 69, 0
3, 211320, Note_on_c, 0, 65, 0
3, 211353, Note_on_c, 0, 64, 0
3, 211367, Note_on_c, 0, 63, 49
3, 211370, Note_on_c, 0, 76, 0
3, 211396, Note_on_c, 0, 63, 0
3, 211417, Note_on_c, 0, 62, 48
3, 211479, Note_on_c, 0, 62, 0
3, 211495, Note_on_c, 0, 61, 51
3, 211532, Note_on_c, 0, 61, 0
3, 211557, Note_on_c, 0, 79, 74
3, 211558, Note_on_c, 0, 73, 67
3, 211562, Note_on_c, 0, 69, 72
3, 211578, Note_on_c, 0, 76, 40
3, 211578, Note_on_c, 0, 64, 72
3, 211614, Note_on_c, 0, 76, 0
3, 211657, Note_on_c, 0, 73, 0
3, 211658, Note_on_c, 0, 69, 0
3, 211664, Note_on_c, 0, 79, 0
3, 211673, Note_on_c, 0, 64, 0
3, 211892, Note_on_c, 0, 76, 71
3, 211902, Note_on_c, 0, 64, 71
3, 211915, Note_on_c, 0, 65, 44
3, 211985, Note_on_c, 0, 64, 0
3, 211991, Note_on_c, 0, 65, 0
3, 212035, Note_on_c, 0, 76, 0
3, 212074, Note_on_c, 0, 65, 48
3, 212079, Note_on_c, 0, 69, 48
3, 212081, Note_on_c, 0, 72, 52
3, 212088, Note_on_c, 0, 60, 24
3, 212105, Note_on_c, 0, 65, 0
3, 212107, Note_on_c, 0, 72, 0
3, 212111, Note_on_c, 0, 69, 0
3, 212115, Note_on_c, 0, 60, 0
3, 212193, Control_c, 0, 64, 127
3, 212275, Note_on_c, 0, 72, 60
3, 212288, Note_on_c, 0, 65, 66
3, 212290, Note_on_c, 0, 59, 38
3, 212290, Note_on_c, 0, 62, 45
3, 212294, Note_on_c, 0, 60, 36
3, 212298, Note_on_c, 0, 69, 47
3, 212298, Control_c, 0, 64, 0
3, 212320, Note_on_c, 0, 60, 0
3, 212321, Note_on_c, 0, 62, 0
3, 212329, Note_on_c, 0, 59, 0
3, 212329, Note_on_c, 0, 69, 0
3, 212338, Note_on_c, 0, 65, 0
3, 212364, Note_on_c, 0, 72, 0
3, 212514, Note_on_c, 0, 57, 44
3, 212543, Note_on_c, 0, 57, 0
3, 212712, Note_on_c, 0, 70, 75
3, 212717, Note_on_c, 0, 59, 51
3, 212719, Note_on_c, 0, 53, 39
3, 212725, Note_on_c, 0, 63, 55
3, 212752, Note_on_c, 0, 53, 0
3, 212756, Note_on_c, 0, 63, 0
3, 212791, Note_on_c, 0, 59, 0
3, 212832, Note_on_c, 0, 70, 0
3, 212969, Note_on_c, 0, 68, 57
3, 212972, Note_on_c, 0, 63, 63
3, 212977, Note_on_c, 0, 59, 61
3, 212981, Note_on_c, 0, 43, 44
3, 212996, Note_on_c, 0, 53, 45
3, 213033, Note_on_c, 0, 53, 0
3, 213035, Note_on_c, 0, 68, 0
3, 213043, Control_c, 0, 64, 127
3, 213056, Note_on_c, 0, 59, 0
3, 213057, Note_on_c, 0, 63, 0
3, 213059, Control_c, 0, 64, 0
3, 213171, Note_on_c, 0, 57, 45
3, 213177, Note_on_c, 0, 62, 44
3, 213186, Note_on_c, 0, 52, 39
3, 213190, Note_on_c, 0, 67, 45
3, 213265, Note_on_c, 0, 62, 0
3, 213273, Note_on_c, 0, 67, 0
3, 213274, Note_on_c, 0, 57, 0
3, 213372, Note_on_c, 0, 43, 0
3, 213395, Note_on_c, 0, 52, 0
3, 213460, Note_on_c, 0, 66, 43
3, 213463, Note_on_c, 0, 51, 51
3, 213465, Note_on_c, 0, 56, 44
3, 213473, Note_on_c, 0, 61, 38
3, 213526, Note_on_c, 0, 66, 0
3, 213552, Note_on_c, 0, 56, 0
3, 213580, Note_on_c, 0, 61, 0
3, 213604, Note_on_c, 0, 51, 0
3, 213618, Note_on_c, 0, 67, 54
3, 213629, Note_on_c, 0, 57, 49
3, 213631, Note_on_c, 0, 52, 47
3, 213636, Note_on_c, 0, 62, 46
3, 214143, Control_c, 0, 64, 127
3, 214315, Note_on_c, 0, 62, 0
3, 214355, Note_on_c, 0, 67, 0
3, 214434, Note_on_c, 0, 57, 0
3, 214505, Note_on_c, 0, 51, 33
3, 214590, Note_on_c, 0, 51, 0
3, 214616, Control_c, 0, 64, 0
3, 214617, Note_on_c, 0, 60, 68
3, 214690, Note_on_c, 0, 60, 0
3, 214749, Note_on_c, 0, 58, 56
3, 214850, Note_on_c, 0, 52, 0
3, 214871, Note_on_c, 0, 58, 0
3, 214871, Note_on_c, 0, 57, 44
3, 214940, Note_on_c, 0, 57, 0
3, 215012, Note_on_c, 0, 54, 61
3, 215034, Note_on_c, 0, 50, 1
3, 215072, Note_on_c, 0, 54, 0
3, 215118, Note_on_c, 0, 57, 62
3, 215224, Note_on_c, 0, 57, 0
3, 215255, Note_on_c, 0, 54, 36
3, 215316, Note_on_c, 0, 54, 0
3, 215327, Note_on_c, 0, 50, 0
3, 215350, Note_on_c, 0, 55, 60
3, 215449, Note_on_c, 0, 55, 0
3, 215474, Note_on_c, 0, 57, 43
3, 215571, Note_on_c, 0, 57, 0
3, 215602, Note_on_c, 0, 58, 34
3, 215680, Note_on_c, 0, 58, 0
3, 215721, Note_on_c, 0, 60, 50
3, 215802, Note_on_c, 0, 60, 0
3, 215829, Note_on_c, 0, 61, 55
3, 215899, Note_on_c, 0, 61, 0
3, 215957, Note_on_c, 0, 64, 62
3, 216047, Note_on_c, 0, 64, 0
3, 216061, Note_on_c, 0, 66, 54
3, 216191, Note_on_c, 0, 66, 0
3, 216196, Note_on_c, 0, 70, 61
3, 216255, Note_on_c, 0, 70, 0
3, 216315, Note_on_c, 0, 72, 65
3, 216378, Note_on_c, 0, 72, 0
3, 216420, Note_on_c, 0, 73, 62
3, 216460, Note_on_c, 0, 63, 42
3, 216478, Note_on_c, 0, 58, 35
3, 216483, Note_on_c, 0, 73, 0
3, 216489, Note_on_c, 0, 52, 41
3, 216535, Note_on_c, 0, 76, 48
3, 216623, Note_on_c, 0, 76, 0
3, 216639, Note_on_c, 0, 78, 55
3, 216744, Note_on_c, 0, 52, 0
3, 216755, Note_on_c, 0, 82, 64
3, 216783, Note_on_c, 0, 78, 0
3, 216792, Note_on_c, 0, 58, 0
3, 216805, Note_on_c, 0, 63, 0
3, 216832, Note_on_c, 0, 82, 0
3, 216881, Note_on_c, 0, 86, 80
3, 216923, Note_on_c, 0, 64, 36
3, 216935, Note_on_c, 0, 60, 38
3, 216938, Note_on_c, 0, 57, 48
3, 216943, Note_on_c, 0, 53, 31
3, 217004, Note_on_c, 0, 84, 55
3, 217042, Note_on_c, 0, 86, 0
3, 217099, Note_on_c, 0, 84, 0
3, 217140, Note_on_c, 0, 81, 66
3, 217217, Note_on_c, 0, 81, 0
3, 217271, Note_on_c, 0, 77, 22
3, 217285, Note_on_c, 0, 64, 0
3, 217358, Note_on_c, 0, 77, 0
3, 217386, Note_on_c, 0, 74, 30
3, 217432, Note_on_c, 0, 74, 0
3, 217503, Note_on_c, 0, 71, 46
3, 217592, Note_on_c, 0, 71, 0
3, 217623, Note_on_c, 0, 53, 0
3, 217643, Note_on_c, 0, 60, 0
3, 217699, Note_on_c, 0, 57, 0
3, 217843, Note_on_c, 0, 63, 74
3, 217863, Note_on_c, 0, 60, 59
3, 217866, Note_on_c, 0, 54, 52
3, 217867, Note_on_c, 0, 57, 60
3, 218126, Note_on_c, 0, 86, 88
3, 218215, Note_on_c, 0, 86, 0
3, 218258, Note_on_c, 0, 84, 74
3, 218272, Note_on_c, 0, 86, 28
3, 218305, Note_on_c, 0, 86, 0
3, 218339, Note_on_c, 0, 84, 0
3, 218391, Note_on_c, 0, 81, 62
3, 218476, Note_on_c, 0, 63, 0
3, 218479, Note_on_c, 0, 81, 0
3, 218512, Note_on_c, 0, 78, 52
3, 218518, Note_on_c, 0, 60, 0
3, 218591, Note_on_c, 0, 57, 0
3, 218607, Note_on_c, 0, 78, 0
3, 218615, Note_on_c, 0, 75, 35
3, 218621, Note_on_c, 0, 54, 0
3, 218641, Note_on_c, 0, 75, 0
3, 218765, Note_on_c, 0, 71, 43
3, 218834, Note_on_c, 0, 71, 0
3, 218880, Note_on_c, 0, 62, 35
3, 218884, Note_on_c, 0, 58, 42
3, 218890, Note_on_c, 0, 84, 79
3, 218921, Note_on_c, 0, 57, 24
3, 218968, Note_on_c, 0, 84, 0
3, 219018, Note_on_c, 0, 62, 0
3, 219023, Note_on_c, 0, 82, 68
3, 219037, Note_on_c, 0, 58, 0
3, 219143, Note_on_c, 0, 77, 50
3, 219156, Note_on_c, 0, 82, 0
3, 219219, Note_on_c, 0, 77, 0
3, 219258, Note_on_c, 0, 74, 36
3, 219337, Note_on_c, 0, 74, 0
3, 219346, Note_on_c, 0, 58, 29
3, 219510, Note_on_c, 0, 71, 49
3, 219536, Note_on_c, 0, 71, 0
3, 219593, Note_on_c, 0, 57, 0
3, 219629, Note_on_c, 0, 87, 87
3, 219656, Note_on_c, 0, 58, 0
3, 219727, Note_on_c, 0, 87, 0
3, 219762, Note_on_c, 0, 85, 64
3, 219831, Note_on_c, 0, 58, 40
3, 219848, Note_on_c, 0, 85, 0
3, 219928, Note_on_c, 0, 58, 0
3, 220036, Note_on_c, 0, 76, 62
3, 220104, Note_on_c, 0, 76, 0
3, 220142, Note_on_c, 0, 75, 59
3, 220255, Note_on_c, 0, 73, 59
3, 220262, Note_on_c, 0, 75, 0
3, 220297, Note_on_c, 0, 58, 31
3, 220298, Note_on_c, 0, 63, 38
3, 220320, Note_on_c, 0, 52, 32
3, 220359, Note_on_c, 0, 73, 0
3, 220364, Note_on_c, 0, 63, 0
3, 220371, Note_on_c, 0, 72, 44
3, 220422, Note_on_c, 0, 72, 0
3, 220446, Note_on_c, 0, 52, 0
3, 220497, Note_on_c, 0, 70, 52
3, 220510, Note_on_c, 0, 58, 0
3, 220590, Note_on_c, 0, 70, 0
3, 220595, Note_on_c, 0, 68, 36
3, 220702, Note_on_c, 0, 68, 0
3, 220744, Note_on_c, 0, 65, 43
3, 220770, Note_on_c, 0, 57, 35
3, 220775, Note_on_c, 0, 65, 0
3, 220786, Note_on_c, 0, 53, 24
3, 220823, Note_on_c, 0, 57, 0
3, 220823, Note_on_c, 0, 70, 77
3, 220838, Note_on_c, 0, 53, 0
3, 220938, Note_on_c, 0, 70, 0
3, 221062, Note_on_c, 0, 69, 74
3, 221193, Note_on_c, 0, 69, 0
3, 221196, Note_on_c, 0, 64, 69
3, 221234, Note_on_c, 0, 48, 28
3, 221250, Note_on_c, 0, 53, 29
3, 221266, Note_on_c, 0, 64, 0
3, 221298, Note_on_c, 0, 53, 0
3, 221299, Note_on_c, 0, 48, 0
3, 221317, Note_on_c, 0, 60, 43
3, 221384, Note_on_c, 0, 60, 0
3, 221451, Note_on_c, 0, 57, 36
3, 221466, Note_on_c, 0, 48, 32
3, 221512, Note_on_c, 0, 48, 0
3, 221519, Note_on_c, 0, 57, 0
3, 221570, Note_on_c, 0, 55, 29
3, 221620, Note_on_c, 0, 55, 0
3, 221671, Note_on_c, 0, 53, 40
3, 221699, Note_on_c, 0, 53, 0
3, 221706, Note_on_c, 0, 48, 42
3, 221756, Note_on_c, 0, 48, 0
3, 221770, Note_on_c, 0, 58, 69
3, 221887, Note_on_c, 0, 58, 0
3, 221912, Note_on_c, 0, 53, 54
3, 221952, Note_on_c, 0, 53, 0
3, 222022, Note_on_c, 0, 55, 62
3, 222087, Note_on_c, 0, 55, 0
3, 222106, Note_on_c, 0, 48, 24
3, 222142, Note_on_c, 0, 48, 0
3, 222167, Note_on_c, 0, 57, 55
3, 222247, Note_on_c, 0, 57, 0
3, 222305, Note_on_c, 0, 58, 30
3, 222353, Note_on_c, 0, 58, 0
3, 222419, Note_on_c, 0, 59, 22
3, 222469, Note_on_c, 0, 59, 0
3, 222510, Control_c, 0, 64, 127
3, 222530, Note_on_c, 0, 62, 41
3, 222592, Note_on_c, 0, 62, 0
3, 222594, Note_on_c, 0, 63, 68
3, 222631, Note_on_c, 0, 63, 0
3, 222664, Note_on_c, 0, 65, 73
3, 222711, Control_c, 0, 64, 0
3, 222725, Note_on_c, 0, 56, 34
3, 222744, Note_on_c, 0, 63, 35
3, 222751, Note_on_c, 0, 65, 0
3, 222754, Note_on_c, 0, 60, 32
3, 222766, Note_on_c, 0, 67, 54
3, 222799, Note_on_c, 0, 68, 58
3, 222835, Note_on_c, 0, 67, 0
3, 222882, Note_on_c, 0, 68, 0
3, 222884, Note_on_c, 0, 70, 48
3, 222911, Note_on_c, 0, 70, 0
3, 222955, Note_on_c, 0, 72, 28
3, 223027, Note_on_c, 0, 72, 0
3, 223039, Note_on_c, 0, 63, 0
3, 223044, Note_on_c, 0, 74, 44
3, 223090, Note_on_c, 0, 74, 0
3, 223093, Note_on_c, 0, 75, 55
3, 223146, Note_on_c, 0, 75, 0
3, 223158, Note_on_c, 0, 60, 0
3, 223166, Note_on_c, 0, 77, 55
3, 223234, Note_on_c, 0, 63, 39
3, 223239, Note_on_c, 0, 67, 36
3, 223264, Note_on_c, 0, 77, 0
3, 223268, Note_on_c, 0, 79, 52
3, 223300, Note_on_c, 0, 80, 46
3, 223328, Note_on_c, 0, 67, 0
3, 223382, Note_on_c, 0, 79, 0
3, 223395, Note_on_c, 0, 63, 0
3, 223407, Note_on_c, 0, 82, 67
3, 223412, Note_on_c, 0, 80, 0
3, 223498, Note_on_c, 0, 79, 30
3, 223513, Note_on_c, 0, 82, 0
3, 223528, Note_on_c, 0, 79, 0
3, 223551, Note_on_c, 0, 56, 0
3, 223693, Note_on_c, 0, 66, 62
3, 223705, Note_on_c, 0, 62, 57
3, 223706, Note_on_c, 0, 56, 46
3, 223918, Note_on_c, 0, 62, 0
3, 224039, Note_on_c, 0, 62, 27
3, 224094, Note_on_c, 0, 66, 0
3, 224160, Note_on_c, 0, 94, 86
3, 224264, Note_on_c, 0, 56, 0
3, 224287, Note_on_c, 0, 92, 67
3, 224319, Note_on_c, 0, 94, 0
3, 224414, Note_on_c, 0, 87, 59
3, 224417, Note_on_c, 0, 66, 46
3, 224430, Note_on_c, 0, 56, 36
3, 224467, Note_on_c, 0, 92, 0
3, 224518, Note_on_c, 0, 87, 0
3, 224528, Note_on_c, 0, 66, 0
3, 224561, Note_on_c, 0, 83, 33
3, 224598, Note_on_c, 0, 83, 0
3, 224627, Note_on_c, 0, 65, 57
3, 224637, Note_on_c, 0, 56, 0
3, 224648, Note_on_c, 0, 55, 54
3, 224658, Note_on_c, 0, 96, 76
3, 224660, Note_on_c, 0, 60, 20
3, 224671, Note_on_c, 0, 95, 46
3, 224704, Note_on_c, 0, 95, 0
3, 224737, Note_on_c, 0, 96, 0
3, 224820, Note_on_c, 0, 93, 62
3, 224926, Note_on_c, 0, 93, 0
3, 225028, Note_on_c, 0, 65, 0
3, 225060, Note_on_c, 0, 55, 0
3, 225066, Note_on_c, 0, 84, 34
3, 225095, Note_on_c, 0, 84, 0
3, 225104, Note_on_c, 0, 60, 0
3, 225127, Note_on_c, 0, 62, 0
3, 225159, Note_on_c, 0, 98, 70
3, 225202, Note_on_c, 0, 98, 0
3, 225380, Note_on_c, 0, 65, 57
3, 225383, Note_on_c, 0, 62, 43
3, 225398, Note_on_c, 0, 60, 36
3, 225411, Note_on_c, 0, 65, 0
3, 225425, Note_on_c, 0, 62, 0
3, 225426, Note_on_c, 0, 60, 0
3, 225675, Note_on_c, 0, 58, 39
3, 225679, Note_on_c, 0, 64, 51
3, 225686, Note_on_c, 0, 55, 36
3, 225687, Note_on_c, 0, 61, 42
3, 226416, Note_on_c, 0, 55, 0
3, 226478, Note_on_c, 0, 64, 0
3, 226479, Note_on_c, 0, 61, 0
3, 226490, Note_on_c, 0, 58, 0
3, 226570, Control_c, 0, 64, 127
3, 226578, Note_on_c, 0, 82, 75
3, 226583, Note_on_c, 0, 60, 60
3, 226586, Note_on_c, 0, 63, 57
3, 226587, Note_on_c, 0, 56, 61
3, 226588, Note_on_c, 0, 70, 68
3, 226589, Note_on_c, 0, 67, 66
3, 226608, Note_on_c, 0, 75, 45
3, 226741, Note_on_c, 0, 75, 0
3, 226792, Note_on_c, 0, 70, 0
3, 226793, Note_on_c, 0, 67, 0
3, 226796, Note_on_c, 0, 82, 0
3, 226811, Note_on_c, 0, 56, 0
3, 226818, Note_on_c, 0, 60, 0
3, 226827, Note_on_c, 0, 63, 0
3, 226906, Note_on_c, 0, 80, 25
3, 226921, Note_on_c, 0, 68, 35
3, 226935, Note_on_c, 0, 63, 30
3, 226943, Note_on_c, 0, 80, 0
3, 226947, Note_on_c, 0, 68, 0
3, 226970, Note_on_c, 0, 63, 0
3, 227013, Control_c, 0, 64, 0
3, 227031, Note_on_c, 0, 82, 75
3, 227032, Note_on_c, 0, 63, 64
3, 227039, Note_on_c, 0, 75, 65
3, 227040, Note_on_c, 0, 70, 53
3, 227041, Note_on_c, 0, 56, 51
3, 227050, Note_on_c, 0, 67, 51
3, 227054, Note_on_c, 0, 60, 62
3, 227141, Control_c, 0, 64, 127
3, 227194, Note_on_c, 0, 67, 0
3, 227274, Note_on_c, 0, 63, 0
3, 227281, Note_on_c, 0, 60, 0
3, 227346, Note_on_c, 0, 56, 0
3, 227367, Note_on_c, 0, 82, 0
3, 227374, Note_on_c, 0, 70, 0
3, 227385, Note_on_c, 0, 75, 0
3, 227478, Control_c, 0, 64, 0
3, 227497, Note_on_c, 0, 65, 64
3, 227500, Note_on_c, 0, 80, 46
3, 227507, Note_on_c, 0, 58, 36
3, 227510, Note_on_c, 0, 54, 40
3, 227519, Note_on_c, 0, 60, 52
3, 227520, Note_on_c, 0, 68, 34
3, 227522, Note_on_c, 0, 75, 40
3, 227591, Control_c, 0, 64, 127
3, 227685, Note_on_c, 0, 68, 0
3, 227687, Note_on_c, 0, 65, 0
3, 227692, Note_on_c, 0, 60, 0
3, 227694, Note_on_c, 0, 80, 0
3, 227707, Note_on_c, 0, 54, 0
3, 227711, Note_on_c, 0, 58, 0
3, 227729, Note_on_c, 0, 75, 0
3, 227810, Note_on_c, 0, 82, 69
3, 227818, Note_on_c, 0, 70, 57
3, 227834, Note_on_c, 0, 58, 39
3, 227834, Note_on_c, 0, 75, 48
3, 227848, Note_on_c, 0, 60, 38
3, 227855, Note_on_c, 0, 54, 23
3, 227879, Note_on_c, 0, 60, 0
3, 227883, Note_on_c, 0, 70, 0
3, 227893, Note_on_c, 0, 75, 0
3, 227894, Note_on_c, 0, 54, 0
3, 227895, Note_on_c, 0, 82, 0
3, 227920, Note_on_c, 0, 58, 0
3, 227935, Control_c, 0, 64, 0
3, 227966, Note_on_c, 0, 54, 35
3, 227969, Note_on_c, 0, 58, 18
3, 227972, Note_on_c, 0, 65, 32
3, 227991, Control_c, 0, 64, 127
3, 227993, Note_on_c, 0, 75, 40
3, 227994, Note_on_c, 0, 60, 38
3, 227995, Note_on_c, 0, 80, 37
3, 228002, Note_on_c, 0, 68, 33
3, 228046, Note_on_c, 0, 65, 0
3, 228059, Note_on_c, 0, 60, 0
3, 228085, Note_on_c, 0, 80, 0
3, 228097, Note_on_c, 0, 68, 0
3, 228101, Note_on_c, 0, 75, 0
3, 228147, Note_on_c, 0, 58, 0
3, 228203, Note_on_c, 0, 54, 0
3, 228324, Note_on_c, 0, 64, 60
3, 228325, Note_on_c, 0, 79, 50
3, 228327, Note_on_c, 0, 59, 57
3, 228334, Note_on_c, 0, 67, 48
3, 228335, Note_on_c, 0, 74, 38
3, 228337, Note_on_c, 0, 53, 38
3, 228369, Control_c, 0, 64, 0
3, 228482, Control_c, 0, 64, 127
3, 228591, Note_on_c, 0, 64, 0
3, 228596, Note_on_c, 0, 59, 0
3, 228603, Note_on_c, 0, 79, 0
3, 228616, Note_on_c, 0, 74, 0
3, 228647, Note_on_c, 0, 53, 0
3, 228694, Note_on_c, 0, 67, 0
3, 229287, Note_on_c, 0, 50, 46
3, 229301, Note_on_c, 0, 51, 57
3, 229358, Note_on_c, 0, 50, 0
3, 229358, Note_on_c, 0, 52, 64
3, 229386, Note_on_c, 0, 51, 0
3, 229399, Note_on_c, 0, 63, 77
3, 229399, Note_on_c, 0, 70, 78
3, 229405, Note_on_c, 0, 65, 73
3, 229406, Note_on_c, 0, 53, 73
3, 229412, Control_c, 0, 64, 0
3, 229417, Note_on_c, 0, 57, 55
3, 229418, Note_on_c, 0, 59, 66
3, 229450, Note_on_c, 0, 52, 0
3, 229518, Note_on_c, 0, 57, 0
3, 229694, Note_on_c, 0, 63, 0
3, 229729, Note_on_c, 0, 65, 0
3, 229740, Note_on_c, 0, 59, 0
3, 229743, Note_on_c, 0, 49, 33
3, 229750, Note_on_c, 0, 53, 0
3, 229767, Note_on_c, 0, 70, 0
3, 229790, Note_on_c, 0, 51, 42
3, 229862, Note_on_c, 0, 49, 0
3, 229869, Note_on_c, 0, 68, 57
3, 229871, Note_on_c, 0, 51, 0
3, 229880, Note_on_c, 0, 53, 56
3, 229882, Note_on_c, 0, 59, 54
3, 229886, Note_on_c, 0, 63, 44
3, 229890, Note_on_c, 0, 65, 50
3, 229950, Control_c, 0, 64, 127
3, 230175, Note_on_c, 0, 68, 0
3, 230190, Note_on_c, 0, 65, 0
3, 230221, Note_on_c, 0, 63, 0
3, 230232, Note_on_c, 0, 49, 33
3, 230234, Note_on_c, 0, 53, 0
3, 230235, Note_on_c, 0, 59, 0
3, 230297, Note_on_c, 0, 51, 31
3, 230342, Control_c, 0, 64, 0
3, 230371, Note_on_c, 0, 49, 0
3, 230379, Note_on_c, 0, 62, 52
3, 230383, Note_on_c, 0, 52, 52
3, 230384, Note_on_c, 0, 57, 51
3, 230387, Note_on_c, 0, 67, 47
3, 230391, Note_on_c, 0, 51, 0
3, 230604, Note_on_c, 0, 67, 0
3, 230623, Note_on_c, 0, 62, 0
3, 230631, Note_on_c, 0, 57, 0
3, 230720, Note_on_c, 0, 52, 0
3, 230751, Note_on_c, 0, 51, 44
3, 230876, Note_on_c, 0, 67, 46
3, 230877, Note_on_c, 0, 51, 0
3, 230878, Note_on_c, 0, 62, 57
3, 230885, Note_on_c, 0, 52, 53
3, 230888, Note_on_c, 0, 57, 50
3, 231050, Note_on_c, 0, 57, 0
3, 231060, Note_on_c, 0, 62, 0
3, 231066, Note_on_c, 0, 67, 0
3, 231075, Note_on_c, 0, 52, 0
3, 231221, Note_on_c, 0, 67, 64
3, 231224, Note_on_c, 0, 62, 69
3, 231227, Note_on_c, 0, 57, 66
3, 231228, Note_on_c, 0, 52, 65
3, 231233, Control_c, 0, 64, 127
3, 231315, Note_on_c, 0, 57, 0
3, 231322, Note_on_c, 0, 67, 0
3, 231351, Note_on_c, 0, 62, 0
3, 231351, Note_on_c, 0, 52, 0
3, 231393, Control_c, 0, 64, 0
3, 231457, Note_on_c, 0, 67, 36
3, 231458, Note_on_c, 0, 52, 42
3, 231468, Note_on_c, 0, 58, 29
3, 231479, Note_on_c, 0, 61, 40
3, 231486, Note_on_c, 0, 64, 36
3, 231610, Control_c, 0, 64, 127
3, 231655, Note_on_c, 0, 64, 0
3, 231682, Note_on_c, 0, 58, 0
3, 231699, Note_on_c, 0, 61, 0
3, 231713, Note_on_c, 0, 67, 0
3, 231756, Note_on_c, 0, 64, 49
3, 231758, Note_on_c, 0, 58, 56
3, 231765, Note_on_c, 0, 49, 57
3, 231767, Note_on_c, 0, 61, 50
3, 231778, Note_on_c, 0, 52, 0
3, 231786, Control_c, 0, 64, 0
3, 231877, Note_on_c, 0, 58, 0
3, 231887, Note_on_c, 0, 64, 0
3, 231895, Note_on_c, 0, 61, 0
3, 231970, Control_c, 0, 64, 127
3, 231986, Control_c, 0, 64, 0
3, 232059, Control_c, 0, 64, 127
3, 232179, Note_on_c, 0, 51, 54
3, 232206, Note_on_c, 0, 67, 66
3, 232212, Note_on_c, 0, 64, 60
3, 232213, Note_on_c, 0, 60, 73
3, 232214, Note_on_c, 0, 52, 76
3, 232215, Note_on_c, 0, 57, 75
3, 232235, Control_c, 0, 64, 0
3, 232244, Note_on_c, 0, 65, 30
3, 232252, Note_on_c, 0, 51, 0
3, 232263, Note_on_c, 0, 49, 0
3, 232420, Control_c, 0, 64, 127
3, 232428, Control_c, 0, 64, 0
3, 232486, Note_on_c, 0, 64, 0
3, 232491, Note_on_c, 0, 67, 0
3, 232492, Note_on_c, 0, 57, 0
3, 232498, Note_on_c, 0, 60, 0
3, 232529, Note_on_c, 0, 65, 0
3, 232572, Control_c, 0, 64, 127
3, 232673, Note_on_c, 0, 66, 60
3, 232682, Note_on_c, 0, 52, 0
3, 232687, Note_on_c, 0, 51, 62
3, 232690, Note_on_c, 0, 61, 64
3, 232699, Note_on_c, 0, 57, 54
3, 232707, Note_on_c, 0, 63, 37
3, 232765, Control_c, 0, 64, 0
3, 232772, Note_on_c, 0, 66, 0
3, 232773, Note_on_c, 0, 57, 0
3, 232810, Note_on_c, 0, 63, 0
3, 232811, Note_on_c, 0, 61, 0
3, 232835, Note_on_c, 0, 51, 0
3, 232864, Note_on_c, 0, 57, 31
3, 232867, Note_on_c, 0, 65, 46
3, 232884, Note_on_c, 0, 50, 42
3, 232891, Note_on_c, 0, 60, 37
3, 232899, Note_on_c, 0, 57, 0
3, 232917, Note_on_c, 0, 62, 26
3, 232974, Note_on_c, 0, 60, 0
3, 232989, Note_on_c, 0, 65, 0
3, 232991, Note_on_c, 0, 62, 0
3, 233147, Note_on_c, 0, 50, 0
3, 233177, Note_on_c, 0, 38, 68
3, 233247, Note_on_c, 0, 38, 0
3, 233656, Note_on_c, 0, 68, 85
3, 233784, Note_on_c, 0, 68, 0
3, 233824, Note_on_c, 0, 69, 59
3, 233907, Note_on_c, 0, 69, 0
3, 233967, Note_on_c, 0, 72, 59
3, 234038, Note_on_c, 0, 72, 0
3, 234098, Note_on_c, 0, 77, 68
3, 234174, Note_on_c, 0, 77, 0
3, 234250, Note_on_c, 0, 68, 85
3, 234252, Note_on_c, 0, 80, 73
3, 234255, Note_on_c, 0, 55, 58
3, 234258, Note_on_c, 0, 60, 55
3, 234258, Note_on_c, 0, 57, 55
3, 234263, Note_on_c, 0, 65, 66
3, 234397, Note_on_c, 0, 79, 17
3, 234477, Note_on_c, 0, 68, 0
3, 234487, Note_on_c, 0, 81, 6
3, 234489, Note_on_c, 0, 69, 31
3, 234525, Note_on_c, 0, 80, 0
3, 234561, Note_on_c, 0, 69, 0
3, 234578, Note_on_c, 0, 65, 0
3, 234588, Note_on_c, 0, 79, 0
3, 234592, Note_on_c, 0, 55, 0
3, 234602, Note_on_c, 0, 81, 0
3, 234607, Note_on_c, 0, 57, 0
3, 234613, Note_on_c, 0, 60, 0
3, 234734, Note_on_c, 0, 55, 54
3, 234738, Note_on_c, 0, 65, 66
3, 234740, Note_on_c, 0, 60, 60
3, 234742, Note_on_c, 0, 57, 56
3, 234743, Note_on_c, 0, 84, 80
3, 234744, Note_on_c, 0, 72, 82
3, 234746, Note_on_c, 0, 80, 69
3, 234755, Note_on_c, 0, 78, 50
3, 234842, Note_on_c, 0, 78, 0
3, 234978, Note_on_c, 0, 81, 44
3, 235025, Note_on_c, 0, 72, 0
3, 235039, Note_on_c, 0, 65, 0
3, 235054, Note_on_c, 0, 60, 0
3, 235058, Note_on_c, 0, 80, 0
3, 235059, Note_on_c, 0, 81, 0
3, 235063, Note_on_c, 0, 55, 0
3, 235066, Note_on_c, 0, 84, 0
3, 235082, Note_on_c, 0, 57, 0
3, 235223, Note_on_c, 0, 71, 75
3, 235224, Note_on_c, 0, 78, 67
3, 235226, Note_on_c, 0, 83, 70
3, 235231, Note_on_c, 0, 64, 49
3, 235232, Note_on_c, 0, 59, 42
3, 235249, Note_on_c, 0, 53, 33
3, 235421, Note_on_c, 0, 71, 0
3, 235442, Note_on_c, 0, 53, 0
3, 235444, Note_on_c, 0, 79, 29
3, 235448, Note_on_c, 0, 78, 0
3, 235465, Note_on_c, 0, 64, 0
3, 235490, Note_on_c, 0, 83, 0
3, 235499, Note_on_c, 0, 59, 0
3, 235506, Note_on_c, 0, 79, 0
3, 235669, Note_on_c, 0, 63, 57
3, 235677, Note_on_c, 0, 53, 43
3, 235683, Note_on_c, 0, 59, 45
3, 235691, Note_on_c, 0, 56, 38
3, 235905, Note_on_c, 0, 53, 0
3, 235946, Note_on_c, 0, 63, 0
3, 235978, Note_on_c, 0, 56, 0
3, 236025, Note_on_c, 0, 55, 40
3, 236026, Note_on_c, 0, 62, 54
3, 236077, Note_on_c, 0, 52, 15
3, 236648, Note_on_c, 0, 85, 79
3, 236656, Note_on_c, 0, 97, 50
3, 236675, Note_on_c, 0, 98, 67
3, 236714, Note_on_c, 0, 85, 0
3, 236736, Note_on_c, 0, 96, 24
3, 236743, Note_on_c, 0, 86, 38
3, 236744, Note_on_c, 0, 97, 0
3, 236754, Note_on_c, 0, 92, 1
3, 236787, Note_on_c, 0, 59, 0
3, 236797, Note_on_c, 0, 55, 0
3, 236805, Note_on_c, 0, 92, 0
3, 236838, Note_on_c, 0, 52, 0
3, 236884, Note_on_c, 0, 96, 0
3, 236887, Note_on_c, 0, 98, 0
3, 236888, Note_on_c, 0, 62, 0
3, 236902, Note_on_c, 0, 86, 0
3, 236978, Note_on_c, 0, 96, 69
3, 236997, Note_on_c, 0, 62, 48
3, 236998, Note_on_c, 0, 56, 48
3, 236999, Note_on_c, 0, 84, 68
3, 237000, Note_on_c, 0, 60, 60
3, 237006, Note_on_c, 0, 53, 52
3, 237218, Note_on_c, 0, 96, 0
3, 237239, Note_on_c, 0, 84, 0
3, 237530, Note_on_c, 0, 53, 0
3, 237543, Note_on_c, 0, 62, 0
3, 237570, Note_on_c, 0, 56, 0
3, 237610, Note_on_c, 0, 60, 0
3, 237614, Note_on_c, 0, 95, 90
3, 237759, Note_on_c, 0, 95, 0
3, 237780, Note_on_c, 0, 92, 48
3, 237819, Note_on_c, 0, 92, 0
3, 237903, Note_on_c, 0, 64, 60
3, 237904, Note_on_c, 0, 56, 46
3, 237914, Note_on_c, 0, 93, 91
3, 237926, Note_on_c, 0, 60, 48
3, 237956, Note_on_c, 0, 60, 0
3, 238009, Note_on_c, 0, 56, 0
3, 238010, Note_on_c, 0, 93, 0
3, 238031, Note_on_c, 0, 64, 0
3, 238060, Note_on_c, 0, 64, 18
3, 238068, Note_on_c, 0, 57, 58
3, 238073, Note_on_c, 0, 60, 22
3, 238106, Note_on_c, 0, 88, 55
3, 238273, Note_on_c, 0, 84, 70
3, 238288, Note_on_c, 0, 88, 0
3, 238363, Note_on_c, 0, 84, 0
3, 238521, Note_on_c, 0, 64, 0
3, 238575, Note_on_c, 0, 57, 0
3, 238591, Note_on_c, 0, 60, 0
3, 238873, Note_on_c, 0, 64, 59
3, 238881, Note_on_c, 0, 55, 48
3, 238883, Note_on_c, 0, 57, 45
3, 238885, Note_on_c, 0, 60, 55
3, 239366, Note_on_c, 0, 88, 94
3, 239367, Note_on_c, 0, 76, 90
3, 239432, Note_on_c, 0, 76, 0
3, 239481, Note_on_c, 0, 88, 0
3, 239527, Note_on_c, 0, 84, 70
3, 239531, Note_on_c, 0, 64, 0
3, 239594, Note_on_c, 0, 60, 0
3, 239639, Note_on_c, 0, 84, 0
3, 239644, Note_on_c, 0, 55, 0
3, 239650, Note_on_c, 0, 57, 0
3, 239687, Note_on_c, 0, 81, 62
3, 239815, Note_on_c, 0, 81, 0
3, 239840, Note_on_c, 0, 76, 63
3, 239890, Note_on_c, 0, 76, 0
3, 239992, Note_on_c, 0, 60, 29
3, 240022, Note_on_c, 0, 60, 0
3, 240069, Note_on_c, 0, 87, 91
3, 240070, Note_on_c, 0, 75, 86
3, 240197, Note_on_c, 0, 75, 0
3, 240223, Note_on_c, 0, 87, 0
3, 240239, Note_on_c, 0, 84, 60
3, 240311, Note_on_c, 0, 84, 0
3, 240394, Note_on_c, 0, 64, 57
3, 240403, Note_on_c, 0, 54, 42
3, 240404, Note_on_c, 0, 60, 44
3, 240434, Note_on_c, 0, 64, 0
3, 240437, Note_on_c, 0, 60, 0
3, 240479, Note_on_c, 0, 54, 0
3, 240802, Note_on_c, 0, 84, 95
3, 240803, Note_on_c, 0, 72, 99
3, 240823, Note_on_c, 0, 54, 64
3, 240824, Note_on_c, 0, 64, 61
3, 240837, Note_on_c, 0, 60, 44
3, 240850, Note_on_c, 0, 64, 0
3, 240890, Note_on_c, 0, 54, 0
3, 240911, Note_on_c, 0, 60, 0
3, 241077, Note_on_c, 0, 84, 0
3, 241081, Note_on_c, 0, 72, 0
3, 241134, Note_on_c, 0, 81, 64
3, 241231, Note_on_c, 0, 81, 0
3, 241289, Note_on_c, 0, 77, 47
3, 241383, Note_on_c, 0, 77, 0
3, 241419, Note_on_c, 0, 72, 57
3, 241443, Note_on_c, 0, 54, 35
3, 241445, Note_on_c, 0, 64, 28
3, 241452, Note_on_c, 0, 72, 0
3, 241458, Note_on_c, 0, 60, 27
3, 241522, Note_on_c, 0, 64, 0
3, 241583, Note_on_c, 0, 75, 77
3, 241593, Note_on_c, 0, 81, 64
3, 241661, Note_on_c, 0, 81, 0
3, 241682, Note_on_c, 0, 60, 0
3, 241727, Note_on_c, 0, 75, 0
3, 241730, Note_on_c, 0, 54, 0
3, 241871, Note_on_c, 0, 64, 65
3, 241875, Note_on_c, 0, 60, 56
3, 241879, Note_on_c, 0, 57, 57
3, 241894, Note_on_c, 0, 53, 33
3, 241924, Note_on_c, 0, 64, 0
3, 241955, Note_on_c, 0, 53, 0
3, 241956, Note_on_c, 0, 60, 0
3, 241992, Note_on_c, 0, 57, 0
3, 242087, Note_on_c, 0, 77, 76
3, 242088, Note_on_c, 0, 81, 82
3, 242176, Note_on_c, 0, 77, 0
3, 242186, Note_on_c, 0, 81, 0
3, 242306, Note_on_c, 0, 75, 78
3, 242312, Note_on_c, 0, 79, 69
3, 242338, Note_on_c, 0, 78, 34
3, 242365, Note_on_c, 0, 78, 0
3, 242420, Note_on_c, 0, 75, 0
3, 242424, Note_on_c, 0, 57, 20
3, 242452, Note_on_c, 0, 79, 0
3, 242468, Note_on_c, 0, 57, 0
3, 242477, Note_on_c, 0, 79, 35
3, 242488, Note_on_c, 0, 76, 66
3, 242635, Note_on_c, 0, 79, 0
3, 242646, Note_on_c, 0, 76, 0
3, 242743, Note_on_c, 0, 79, 48
3, 242759, Note_on_c, 0, 64, 67
3, 242762, Note_on_c, 0, 72, 68
3, 242768, Note_on_c, 0, 59, 53
3, 242784, Note_on_c, 0, 53, 42
3, 242856, Note_on_c, 0, 79, 0
3, 242858, Note_on_c, 0, 64, 0
3, 242889, Note_on_c, 0, 72, 0
3, 242948, Note_on_c, 0, 67, 40
3, 243007, Note_on_c, 0, 53, 0
3, 243071, Note_on_c, 0, 59, 0
3, 243114, Control_c, 0, 64, 127
3, 243167, Note_on_c, 0, 67, 0
3, 243224, Note_on_c, 0, 72, 60
3, 243234, Note_on_c, 0, 64, 65
3, 243241, Note_on_c, 0, 65, 64
3, 243249, Note_on_c, 0, 59, 44
3, 243271, Note_on_c, 0, 64, 0
3, 243282, Note_on_c, 0, 53, 29
3, 243330, Note_on_c, 0, 72, 0
3, 243330, Note_on_c, 0, 59, 0
3, 243363, Note_on_c, 0, 65, 0
3, 243391, Note_on_c, 0, 53, 0
3, 243394, Control_c, 0, 64, 0
3, 243412, Note_on_c, 0, 62, 35
3, 243427, Control_c, 0, 64, 127
3, 243539, Control_c, 0, 64, 0
3, 243571, Note_on_c, 0, 62, 0
3, 243651, Control_c, 0, 64, 127
3, 243707, Note_on_c, 0, 66, 63
3, 243719, Note_on_c, 0, 54, 60
3, 243722, Note_on_c, 0, 58, 60
3, 243735, Note_on_c, 0, 61, 45
3, 243805, Note_on_c, 0, 61, 0
3, 243813, Note_on_c, 0, 66, 0
3, 243813, Note_on_c, 0, 54, 0
3, 243846, Note_on_c, 0, 58, 0
3, 243868, Control_c, 0, 64, 0
3, 243870, Note_on_c, 0, 61, 31
3, 243882, Note_on_c, 0, 67, 51
3, 243896, Note_on_c, 0, 55, 60
3, 243921, Note_on_c, 0, 61, 0
3, 243946, Note_on_c, 0, 57, 16
3, 244125, Control_c, 0, 64, 127
3, 244193, Note_on_c, 0, 43, 63
3, 244255, Note_on_c, 0, 57, 0
3, 244273, Note_on_c, 0, 43, 0
3, 244285, Control_c, 0, 64, 0
3, 244348, Note_on_c, 0, 55, 0
3, 244353, Note_on_c, 0, 67, 0
3, 244367, Note_on_c, 0, 43, 44
3, 244374, Control_c, 0, 64, 127
3, 244698, Note_on_c, 0, 50, 48
3, 244770, Note_on_c, 0, 50, 0
3, 244839, Note_on_c, 0, 56, 60
3, 244849, Note_on_c, 0, 65, 58
3, 244850, Note_on_c, 0, 53, 55
3, 244863, Note_on_c, 0, 60, 51
3, 244871, Control_c, 0, 64, 0
3, 244898, Note_on_c, 0, 62, 20
3, 245050, Note_on_c, 0, 65, 0
3, 245069, Note_on_c, 0, 62, 0
3, 245073, Control_c, 0, 64, 127
3, 245129, Note_on_c, 0, 60, 0
3, 245147, Note_on_c, 0, 53, 0
3, 245161, Note_on_c, 0, 46, 35
3, 245162, Note_on_c, 0, 56, 0
3, 245212, Note_on_c, 0, 45, 16
3, 245213, Note_on_c, 0, 43, 0
3, 245264, Note_on_c, 0, 46, 0
3, 245268, Note_on_c, 0, 45, 0
3, 245288, Control_c, 0, 64, 0
3, 245301, Note_on_c, 0, 54, 59
3, 245305, Note_on_c, 0, 63, 50
3, 245306, Note_on_c, 0, 47, 51
3, 245320, Note_on_c, 0, 58, 52
3, 245481, Control_c, 0, 64, 127
3, 245632, Note_on_c, 0, 63, 0
3, 245655, Note_on_c, 0, 46, 31
3, 245658, Note_on_c, 0, 54, 0
3, 245659, Note_on_c, 0, 58, 0
3, 245714, Note_on_c, 0, 47, 0
3, 245762, Control_c, 0, 64, 0
3, 245769, Note_on_c, 0, 46, 0
3, 245795, Note_on_c, 0, 64, 42
3, 245797, Note_on_c, 0, 59, 40
3, 245802, Note_on_c, 0, 48, 40
3, 245915, Note_on_c, 0, 55, 9
3, 245922, Control_c, 0, 64, 127
3, 245991, Note_on_c, 0, 55, 0
3, 246086, Note_on_c, 0, 48, 0
3, 246095, Note_on_c, 0, 64, 0
3, 246097, Note_on_c, 0, 59, 0
3, 246553, Note_on_c, 0, 79, 66
3, 246664, Note_on_c, 0, 79, 0
3, 246677, Note_on_c, 0, 55, 49
3, 246728, Note_on_c, 0, 67, 49
3, 246735, Note_on_c, 0, 58, 39
3, 246770, Note_on_c, 0, 73, 52
3, 246791, Note_on_c, 0, 76, 51
3, 246799, Note_on_c, 0, 61, 27
3, 246801, Note_on_c, 0, 64, 64
3, 246808, Note_on_c, 0, 79, 61
3, 246812, Control_c, 0, 64, 0
3, 247029, Control_c, 0, 64, 127
3, 247271, Note_on_c, 0, 64, 0
3, 247304, Note_on_c, 0, 61, 0
3, 247304, Note_on_c, 0, 55, 0
3, 247310, Note_on_c, 0, 58, 0
3, 247370, Note_on_c, 0, 79, 0
3, 247479, Note_on_c, 0, 76, 0
3, 247484, Note_on_c, 0, 67, 0
3, 247491, Note_on_c, 0, 79, 66
3, 247569, Note_on_c, 0, 73, 0
3, 247614, Note_on_c, 0, 79, 0
3, 247643, Note_on_c, 0, 50, 28
3, 247656, Note_on_c, 0, 67, 53
3, 247669, Note_on_c, 0, 53, 27
3, 247686, Note_on_c, 0, 57, 42
3, 247703, Control_c, 0, 64, 0
3, 247704, Note_on_c, 0, 72, 46
3, 247713, Note_on_c, 0, 60, 56
3, 247728, Note_on_c, 0, 76, 42
3, 247735, Note_on_c, 0, 79, 66
3, 247855, Control_c, 0, 64, 127
3, 248099, Note_on_c, 0, 53, 0
3, 248122, Note_on_c, 0, 50, 0
3, 248133, Note_on_c, 0, 57, 0
3, 248169, Note_on_c, 0, 60, 0
3, 248174, Note_on_c, 0, 67, 0
3, 248233, Note_on_c, 0, 76, 0
3, 248257, Note_on_c, 0, 79, 0
3, 248262, Note_on_c, 0, 72, 0
3, 248450, Note_on_c, 0, 77, 47
3, 248472, Note_on_c, 0, 64, 46
3, 248473, Note_on_c, 0, 72, 47
3, 248478, Note_on_c, 0, 69, 36
3, 248481, Note_on_c, 0, 53, 25
3, 248484, Note_on_c, 0, 60, 38
3, 248488, Note_on_c, 0, 57, 35
3, 248515, Control_c, 0, 64, 0
3, 248661, Note_on_c, 0, 77, 0
3, 248675, Control_c, 0, 64, 127
3, 248748, Note_on_c, 0, 77, 46
3, 249047, Note_on_c, 0, 69, 0
3, 249062, Note_on_c, 0, 64, 0
3, 249080, Note_on_c, 0, 57, 0
3, 249084, Note_on_c, 0, 53, 0
3, 249098, Note_on_c, 0, 60, 0
3, 249120, Note_on_c, 0, 72, 0
3, 249197, Note_on_c, 0, 77, 0
3, 249905, Note_on_c, 0, 60, 74
3, 249907, Note_on_c, 0, 53, 73
3, 249910, Note_on_c, 0, 64, 81
3, 249911, Note_on_c, 0, 57, 73
3, 249916, Note_on_c, 0, 89, 90
3, 249919, Note_on_c, 0, 77, 89
3, 249922, Note_on_c, 0, 84, 84
3, 250015, Control_c, 0, 64, 0
3, 250040, Note_on_c, 0, 89, 0
3, 250050, Note_on_c, 0, 77, 0
3, 250058, Note_on_c, 0, 84, 0
3, 250071, Note_on_c, 0, 53, 0
3, 250074, Note_on_c, 0, 64, 0
3, 250082, Note_on_c, 0, 57, 0
3, 250098, Note_on_c, 0, 60, 0
3, 250132, Note_on_c, 0, 53, 31
3, 250134, Note_on_c, 0, 64, 61
3, 250135, Note_on_c, 0, 88, 61
3, 250139, Note_on_c, 0, 60, 24
3, 250148, Note_on_c, 0, 76, 40
3, 250151, Note_on_c, 0, 83, 44
3, 250154, Note_on_c, 0, 57, 60
3, 250225, Note_on_c, 0, 76, 0
3, 250241, Note_on_c, 0, 83, 0
3, 250244, Note_on_c, 0, 64, 0
3, 250248, Note_on_c, 0, 60, 0
3, 250249, Note_on_c, 0, 57, 0
3, 250252, Note_on_c, 0, 88, 0
3, 250255, Note_on_c, 0, 53, 0
3, 250415, Note_on_c, 0, 64, 69
3, 250416, Note_on_c, 0, 53, 59
3, 250419, Note_on_c, 0, 60, 55
3, 250420, Note_on_c, 0, 57, 61
3, 250421, Note_on_c, 0, 77, 68
3, 250422, Note_on_c, 0, 89, 74
3, 250423, Note_on_c, 0, 84, 69
3, 250448, Note_on_c, 0, 60, 0
3, 250450, Note_on_c, 0, 77, 0
3, 250458, Note_on_c, 0, 64, 0
3, 250478, Note_on_c, 0, 84, 0
3, 250496, Note_on_c, 0, 89, 0
3, 250498, Note_on_c, 0, 53, 0
3, 250501, Note_on_c, 0, 57, 0
3, 250699, Note_on_c, 0, 92, 70
3, 250702, Note_on_c, 0, 98, 66
3, 250711, Note_on_c, 0, 59, 68
3, 250711, Note_on_c, 0, 86, 57
3, 250712, Note_on_c, 0, 64, 78
3, 250714, Note_on_c, 0, 53, 70
3, 250771, Control_c, 0, 64, 127
3, 250822, Note_on_c, 0, 92, 0
3, 250833, Note_on_c, 0, 93, 58
3, 250863, Note_on_c, 0, 93, 0
3, 250870, Note_on_c, 0, 98, 0
3, 250881, Note_on_c, 0, 86, 0
3, 250903, Note_on_c, 0, 53, 0
3, 250910, Note_on_c, 0, 64, 0
3, 250937, Note_on_c, 0, 59, 0
3, 250980, Control_c, 0, 64, 0
3, 251302, Note_on_c, 0, 53, 54
3, 251306, Note_on_c, 0, 63, 69
3, 251314, Note_on_c, 0, 89, 64
3, 251320, Note_on_c, 0, 59, 52
3, 251321, Note_on_c, 0, 56, 37
3, 251322, Note_on_c, 0, 77, 49
3, 251323, Note_on_c, 0, 84, 52
3, 251349, Note_on_c, 0, 59, 0
3, 251365, Note_on_c, 0, 77, 0
3, 251388, Note_on_c, 0, 84, 0
3, 251390, Note_on_c, 0, 89, 0
3, 251394, Note_on_c, 0, 53, 0
3, 251408, Note_on_c, 0, 56, 0
3, 251419, Note_on_c, 0, 63, 0
3, 251607, Note_on_c, 0, 80, 50
3, 251607, Note_on_c, 0, 89, 58
3, 251609, Note_on_c, 0, 53, 49
3, 251613, Note_on_c, 0, 56, 42
3, 251619, Note_on_c, 0, 62, 50
3, 251621, Note_on_c, 0, 60, 52
3, 251622, Note_on_c, 0, 84, 50
3, 251656, Control_c, 0, 64, 127
3, 251761, Note_on_c, 0, 60, 0
3, 251794, Note_on_c, 0, 53, 0
3, 251794, Note_on_c, 0, 84, 0
3, 251805, Note_on_c, 0, 89, 0
3, 251822, Note_on_c, 0, 56, 0
3, 251835, Note_on_c, 0, 80, 0
3, 251839, Note_on_c, 0, 62, 0
3, 251969, Control_c, 0, 64, 0
3, 251983, Note_on_c, 0, 88, 52
3, 251986, Note_on_c, 0, 62, 44
3, 251987, Note_on_c, 0, 52, 47
3, 251988, Note_on_c, 0, 79, 36
3, 251997, Note_on_c, 0, 57, 50
3, 252001, Note_on_c, 0, 83, 42
3, 252138, Control_c, 0, 64, 127
3, 252210, Note_on_c, 0, 52, 0
3, 252219, Note_on_c, 0, 83, 0
3, 252220, Note_on_c, 0, 88, 0
3, 252223, Note_on_c, 0, 79, 0
3, 252231, Note_on_c, 0, 62, 0
3, 252239, Note_on_c, 0, 57, 0
3, 252330, Note_on_c, 0, 88, 51
3, 252334, Note_on_c, 0, 62, 44
3, 252342, Note_on_c, 0, 52, 47
3, 252343, Note_on_c, 0, 57, 44
3, 252345, Note_on_c, 0, 79, 32
3, 252351, Note_on_c, 0, 83, 41
3, 252362, Control_c, 0, 64, 0
3, 252538, Control_c, 0, 64, 127
3, 252768, Note_on_c, 0, 88, 0
3, 252846, Note_on_c, 0, 83, 0
3, 252865, Note_on_c, 0, 79, 0
3, 252941, Note_on_c, 0, 62, 0
3, 252966, Note_on_c, 0, 57, 0
3, 253078, Note_on_c, 0, 52, 0
3, 253292, Note_on_c, 0, 56, 48
3, 253300, Note_on_c, 0, 68, 43
3, 253305, Note_on_c, 0, 60, 38
3, 253327, Note_on_c, 0, 64, 32
3, 253383, Note_on_c, 0, 64, 0
3, 253395, Note_on_c, 0, 60, 0
3, 253433, Note_on_c, 0, 68, 0
3, 253466, Note_on_c, 0, 56, 0
3, 253470, Control_c, 0, 64, 0
3, 253480, Note_on_c, 0, 71, 45
3, 253486, Note_on_c, 0, 60, 40
3, 253487, Note_on_c, 0, 59, 53
3, 253494, Note_on_c, 0, 64, 50
3, 253494, Note_on_c, 0, 68, 30
3, 253751, Control_c, 0, 64, 127
3, 253761, Note_on_c, 0, 64, 0
3, 253767, Note_on_c, 0, 59, 0
3, 253767, Note_on_c, 0, 60, 0
3, 253781, Note_on_c, 0, 68, 0
3, 253807, Note_on_c, 0, 56, 35
3, 253834, Note_on_c, 0, 71, 0
3, 253847, Control_c, 0, 64, 0
3, 253942, Note_on_c, 0, 57, 57
3, 253951, Note_on_c, 0, 56, 0
3, 253964, Note_on_c, 0, 69, 37
3, 253965, Note_on_c, 0, 64, 36
3, 253966, Note_on_c, 0, 60, 35
3, 253975, Control_c, 0, 64, 127
3, 254023, Note_on_c, 0, 57, 0
3, 254030, Note_on_c, 0, 60, 0
3, 254051, Note_on_c, 0, 64, 0
3, 254090, Note_on_c, 0, 69, 0
3, 254424, Control_c, 0, 64, 0
3, 254741, Note_on_c, 0, 75, 55
3, 254746, Note_on_c, 0, 64, 51
3, 254749, Note_on_c, 0, 55, 48
3, 254758, Note_on_c, 0, 57, 39
3, 254764, Note_on_c, 0, 60, 34
3, 254778, Note_on_c, 0, 76, 59
3, 254790, Note_on_c, 0, 75, 0
3, 254795, Note_on_c, 0, 57, 0
3, 254796, Note_on_c, 0, 60, 0
3, 254799, Note_on_c, 0, 64, 0
3, 254814, Note_on_c, 0, 55, 0
3, 254860, Note_on_c, 0, 76, 0
3, 255042, Note_on_c, 0, 75, 60
3, 255058, Note_on_c, 0, 55, 37
3, 255060, Note_on_c, 0, 64, 39
3, 255073, Note_on_c, 0, 57, 36
3, 255074, Note_on_c, 0, 60, 36
3, 255086, Note_on_c, 0, 76, 49
3, 255129, Note_on_c, 0, 75, 0
3, 255178, Note_on_c, 0, 64, 0
3, 255185, Note_on_c, 0, 57, 0
3, 255186, Note_on_c, 0, 60, 0
3, 255194, Note_on_c, 0, 55, 0
3, 255195, Note_on_c, 0, 76, 0
3, 255370, Note_on_c, 0, 75, 58
3, 255384, Note_on_c, 0, 64, 45
3, 255390, Note_on_c, 0, 54, 50
3, 255407, Note_on_c, 0, 60, 24
3, 255421, Note_on_c, 0, 76, 46
3, 255498, Note_on_c, 0, 75, 0
3, 255509, Note_on_c, 0, 60, 0
3, 255511, Note_on_c, 0, 64, 0
3, 255517, Note_on_c, 0, 54, 0
3, 255542, Note_on_c, 0, 76, 0
3, 255705, Note_on_c, 0, 76, 43
3, 255708, Note_on_c, 0, 75, 34
3, 255712, Note_on_c, 0, 54, 37
3, 255713, Note_on_c, 0, 64, 36
3, 255723, Note_on_c, 0, 60, 32
3, 255782, Note_on_c, 0, 75, 0
3, 255803, Note_on_c, 0, 54, 0
3, 255804, Note_on_c, 0, 64, 0
3, 255811, Note_on_c, 0, 60, 0
3, 255856, Note_on_c, 0, 76, 0
3, 255988, Note_on_c, 0, 75, 46
3, 256003, Note_on_c, 0, 64, 35
3, 256012, Note_on_c, 0, 54, 35
3, 256022, Note_on_c, 0, 60, 30
3, 256023, Note_on_c, 0, 76, 53
3, 256068, Note_on_c, 0, 75, 0
3, 256105, Note_on_c, 0, 64, 0
3, 256119, Note_on_c, 0, 60, 0
3, 256120, Note_on_c, 0, 54, 0
3, 256143, Note_on_c, 0, 76, 0
3, 256278, Note_on_c, 0, 75, 40
3, 256298, Note_on_c, 0, 64, 37
3, 256304, Note_on_c, 0, 54, 33
3, 256313, Note_on_c, 0, 60, 36
3, 256335, Note_on_c, 0, 76, 49
3, 256375, Note_on_c, 0, 64, 0
3, 256381, Note_on_c, 0, 54, 0
3, 256391, Note_on_c, 0, 75, 0
3, 256402, Note_on_c, 0, 60, 0
3, 256450, Note_on_c, 0, 76, 0
3, 256450, Note_on_c, 0, 64, 49
3, 256451, Note_on_c, 0, 75, 59
3, 256458, Note_on_c, 0, 54, 42
3, 256474, Note_on_c, 0, 60, 34
3, 256563, Note_on_c, 0, 54, 0
3, 256566, Note_on_c, 0, 64, 0
3, 256577, Note_on_c, 0, 75, 0
3, 256586, Note_on_c, 0, 60, 0
3, 256617, Note_on_c, 0, 74, 51
3, 256625, Note_on_c, 0, 54, 46
3, 256631, Note_on_c, 0, 64, 48
3, 256647, Note_on_c, 0, 60, 35
3, 256727, Control_c, 0, 64, 127
3, 256989, Note_on_c, 0, 60, 0
3, 257101, Note_on_c, 0, 64, 0
3, 257147, Note_on_c, 0, 60, 30
3, 257166, Note_on_c, 0, 54, 0
3, 257167, Note_on_c, 0, 74, 0
3, 257265, Note_on_c, 0, 53, 49
3, 257267, Note_on_c, 0, 64, 50
3, 257280, Control_c, 0, 64, 0
3, 257282, Note_on_c, 0, 72, 55
3, 257288, Note_on_c, 0, 57, 53
3, 257293, Note_on_c, 0, 69, 55
3, 257416, Control_c, 0, 64, 127
3, 257491, Note_on_c, 0, 53, 0
3, 257503, Note_on_c, 0, 64, 0
3, 257517, Note_on_c, 0, 57, 0
3, 257526, Note_on_c, 0, 60, 0
3, 257546, Note_on_c, 0, 69, 0
3, 257577, Note_on_c, 0, 72, 0
3, 257597, Note_on_c, 0, 69, 38
3, 257602, Note_on_c, 0, 74, 68
3, 257607, Note_on_c, 0, 53, 35
3, 257608, Note_on_c, 0, 64, 40
3, 257609, Note_on_c, 0, 72, 24
3, 257610, Note_on_c, 0, 60, 60
3, 257611, Note_on_c, 0, 57, 40
3, 257649, Note_on_c, 0, 72, 0
3, 257662, Note_on_c, 0, 64, 0
3, 257682, Note_on_c, 0, 53, 0
3, 257703, Note_on_c, 0, 60, 0
3, 257706, Note_on_c, 0, 69, 0
3, 257722, Note_on_c, 0, 57, 0
3, 257735, Note_on_c, 0, 74, 0
3, 257750, Note_on_c, 0, 64, 47
3, 257754, Note_on_c, 0, 60, 20
3, 257756, Note_on_c, 0, 53, 31
3, 257763, Control_c, 0, 64, 0
3, 257764, Note_on_c, 0, 57, 15
3, 257769, Note_on_c, 0, 72, 44
3, 257775, Note_on_c, 0, 69, 35
3, 257908, Control_c, 0, 64, 127
3, 257910, Note_on_c, 0, 60, 0
3, 257992, Note_on_c, 0, 64, 0
3, 258010, Note_on_c, 0, 53, 0
3, 258011, Note_on_c, 0, 69, 0
3, 258034, Note_on_c, 0, 57, 0
3, 258041, Note_on_c, 0, 72, 0
3, 258197, Control_c, 0, 64, 0
3, 258218, Note_on_c, 0, 64, 46
3, 258226, Note_on_c, 0, 59, 46
3, 258229, Note_on_c, 0, 71, 40
3, 258231, Note_on_c, 0, 53, 35
3, 258238, Note_on_c, 0, 67, 35
3, 258293, Control_c, 0, 64, 127
3, 258491, Note_on_c, 0, 67, 0
3, 258508, Note_on_c, 0, 71, 0
3, 258746, Note_on_c, 0, 64, 0
3, 258786, Note_on_c, 0, 59, 0
3, 258823, Note_on_c, 0, 53, 0
3, 259018, Note_on_c, 0, 81, 75
3, 259101, Note_on_c, 0, 81, 0
3, 259191, Control_c, 0, 64, 0
3, 259219, Note_on_c, 0, 79, 57
3, 259220, Note_on_c, 0, 62, 44
3, 259227, Note_on_c, 0, 59, 31
3, 259228, Note_on_c, 0, 52, 36
3, 259231, Note_on_c, 0, 74, 36
3, 259233, Note_on_c, 0, 67, 32
3, 259238, Note_on_c, 0, 55, 44
3, 259266, Note_on_c, 0, 67, 0
3, 259271, Control_c, 0, 64, 127
3, 259286, Note_on_c, 0, 74, 0
3, 259290, Note_on_c, 0, 62, 0
3, 259295, Note_on_c, 0, 79, 0
3, 259328, Control_c, 0, 64, 0
3, 259345, Note_on_c, 0, 62, 26
3, 259375, Note_on_c, 0, 84, 81
3, 259392, Control_c, 0, 64, 127
3, 259485, Note_on_c, 0, 52, 0
3, 259487, Note_on_c, 0, 55, 0
3, 259497, Note_on_c, 0, 59, 0
3, 259544, Note_on_c, 0, 62, 0
3, 259626, Note_on_c, 0, 84, 0
3, 259682, Note_on_c, 0, 55, 49
3, 259697, Note_on_c, 0, 61, 56
3, 259698, Note_on_c, 0, 72, 36
3, 259704, Note_on_c, 0, 77, 34
3, 259705, Note_on_c, 0, 81, 58
3, 259706, Note_on_c, 0, 65, 60
3, 259708, Control_c, 0, 64, 0
3, 259795, Control_c, 0, 64, 127
3, 259919, Note_on_c, 0, 72, 0
3, 259935, Note_on_c, 0, 77, 0
3, 259956, Note_on_c, 0, 81, 0
3, 259963, Note_on_c, 0, 55, 0
3, 259978, Note_on_c, 0, 65, 0
3, 260039, Note_on_c, 0, 61, 0
3, 260180, Note_on_c, 0, 89, 71
3, 260185, Note_on_c, 0, 77, 55
3, 260188, Control_c, 0, 64, 0
3, 260190, Note_on_c, 0, 84, 58
3, 260191, Note_on_c, 0, 65, 71
3, 260191, Note_on_c, 0, 60, 60
3, 260209, Note_on_c, 0, 54, 61
3, 260292, Control_c, 0, 64, 127
3, 260358, Note_on_c, 0, 77, 0
3, 260378, Note_on_c, 0, 84, 0
3, 260396, Note_on_c, 0, 89, 0
3, 260441, Note_on_c, 0, 60, 0
3, 260466, Note_on_c, 0, 65, 0
3, 260567, Note_on_c, 0, 54, 0
3, 260671, Note_on_c, 0, 53, 62
3, 260671, Note_on_c, 0, 64, 69
3, 260672, Note_on_c, 0, 59, 66
3, 260679, Control_c, 0, 64, 0
3, 260689, Note_on_c, 0, 94, 67
3, 260694, Note_on_c, 0, 82, 72
3, 260798, Control_c, 0, 64, 127
3, 260906, Note_on_c, 0, 59, 0
3, 260943, Note_on_c, 0, 64, 0
3, 260946, Note_on_c, 0, 94, 0
3, 260974, Note_on_c, 0, 53, 0
3, 260978, Note_on_c, 0, 82, 0
3, 261159, Note_on_c, 0, 62, 53
3, 261170, Note_on_c, 0, 91, 42
3, 261172, Note_on_c, 0, 52, 42
3, 261175, Control_c, 0, 64, 0
3, 261179, Note_on_c, 0, 57, 53
3, 261184, Note_on_c, 0, 86, 46
3, 261194, Note_on_c, 0, 79, 24
3, 261423, Control_c, 0, 64, 127
3, 261597, Note_on_c, 0, 91, 0
3, 261621, Note_on_c, 0, 86, 0
3, 261639, Note_on_c, 0, 52, 0
3, 261642, Note_on_c, 0, 79, 0
3, 261651, Note_on_c, 0, 57, 0
3, 261681, Note_on_c, 0, 62, 0
3, 262082, Control_c, 0, 64, 0
3, 262083, Note_on_c, 0, 79, 83
3, 262087, Note_on_c, 0, 73, 79
3, 262088, Note_on_c, 0, 70, 80
3, 262090, Note_on_c, 0, 64, 87
3, 262210, Control_c, 0, 64, 127
3, 262614, Note_on_c, 0, 64, 0
3, 262783, Note_on_c, 0, 70, 0
3, 262801, Note_on_c, 0, 79, 0
3, 262813, Note_on_c, 0, 73, 0
3, 262878, Note_on_c, 0, 76, 40
3, 262908, Note_on_c, 0, 77, 27
3, 262978, Note_on_c, 0, 77, 0
3, 262994, Note_on_c, 0, 76, 0
3, 263045, Note_on_c, 0, 64, 66
3, 263058, Note_on_c, 0, 76, 49
3, 263058, Note_on_c, 0, 69, 64
3, 263060, Note_on_c, 0, 79, 53
3, 263068, Control_c, 0, 64, 0
3, 263082, Note_on_c, 0, 72, 46
3, 263237, Control_c, 0, 64, 127
3, 263410, Note_on_c, 0, 69, 0
3, 263415, Note_on_c, 0, 79, 0
3, 263419, Note_on_c, 0, 64, 0
3, 263423, Note_on_c, 0, 72, 0
3, 263425, Note_on_c, 0, 76, 0
3, 263510, Control_c, 0, 64, 0
3, 263522, Note_on_c, 0, 77, 53
3, 263534, Note_on_c, 0, 62, 39
3, 263546, Note_on_c, 0, 69, 30
3, 263551, Note_on_c, 0, 72, 40
3, 263630, Control_c, 0, 64, 127
3, 263743, Note_on_c, 0, 77, 0
3, 263751, Note_on_c, 0, 69, 0
3, 263764, Note_on_c, 0, 62, 0
3, 263764, Note_on_c, 0, 72, 0
3, 263848, Note_on_c, 0, 77, 39
3, 263857, Note_on_c, 0, 62, 36
3, 263858, Note_on_c, 0, 69, 36
3, 263858, Note_on_c, 0, 72, 42
3, 263887, Control_c, 0, 64, 0
3, 263983, Control_c, 0, 64, 127
3, 264242, Note_on_c, 0, 62, 0
3, 264266, Note_on_c, 0, 77, 0
3, 264318, Note_on_c, 0, 72, 0
3, 264394, Note_on_c, 0, 69, 0
3, 265294, Note_on_c, 0, 56, 80
3, 265295, Note_on_c, 0, 61, 74
3, 265299, Note_on_c, 0, 51, 67
3, 265300, Note_on_c, 0, 65, 82
3, 265387, Control_c, 0, 64, 0
3, 265478, Note_on_c, 0, 56, 0
3, 265505, Note_on_c, 0, 65, 0
3, 265519, Note_on_c, 0, 61, 0
3, 265548, Note_on_c, 0, 51, 0
3, 265581, Note_on_c, 0, 49, 40
3, 265595, Note_on_c, 0, 64, 31
3, 265749, Note_on_c, 0, 64, 0
3, 265797, Note_on_c, 0, 56, 58
3, 265799, Note_on_c, 0, 65, 67
3, 265810, Note_on_c, 0, 61, 55
3, 265815, Note_on_c, 0, 51, 56
3, 265820, Control_c, 0, 64, 127
3, 265845, Note_on_c, 0, 49, 0
3, 265854, Note_on_c, 0, 56, 0
3, 265881, Note_on_c, 0, 61, 0
3, 265890, Note_on_c, 0, 65, 0
3, 265897, Note_on_c, 0, 51, 0
3, 265957, Control_c, 0, 64, 0
3, 266101, Note_on_c, 0, 74, 66
3, 266115, Note_on_c, 0, 70, 60
3, 266128, Note_on_c, 0, 65, 41
3, 266129, Note_on_c, 0, 56, 43
3, 266158, Note_on_c, 0, 65, 0
3, 266166, Note_on_c, 0, 74, 0
3, 266170, Note_on_c, 0, 70, 0
3, 266170, Note_on_c, 0, 56, 0
3, 266237, Control_c, 0, 64, 127
3, 266390, Control_c, 0, 64, 0
3, 266438, Note_on_c, 0, 62, 31
3, 266439, Note_on_c, 0, 56, 45
3, 266463, Note_on_c, 0, 52, 42
3, 266498, Note_on_c, 0, 59, 18
3, 266581, Note_on_c, 0, 59, 0
3, 266635, Note_on_c, 0, 56, 0
3, 266655, Note_on_c, 0, 62, 0
3, 266680, Note_on_c, 0, 52, 0
3, 266751, Note_on_c, 0, 65, 66
3, 266759, Note_on_c, 0, 53, 46
3, 266760, Note_on_c, 0, 59, 58
3, 266762, Note_on_c, 0, 62, 56
3, 266770, Note_on_c, 0, 55, 31
3, 266887, Note_on_c, 0, 59, 0
3, 266896, Note_on_c, 0, 55, 0
3, 266907, Note_on_c, 0, 62, 0
3, 266930, Note_on_c, 0, 53, 0
3, 266959, Note_on_c, 0, 65, 0
3, 267009, Note_on_c, 0, 65, 37
3, 267017, Note_on_c, 0, 53, 46
3, 267028, Note_on_c, 0, 55, 38
3, 267034, Note_on_c, 0, 62, 19
3, 267035, Note_on_c, 0, 59, 40
3, 267126, Note_on_c, 0, 65, 0
3, 267138, Note_on_c, 0, 62, 0
3, 267166, Note_on_c, 0, 59, 0
3, 267184, Control_c, 0, 64, 127
3, 267202, Note_on_c, 0, 55, 0
3, 267221, Note_on_c, 0, 53, 0
3, 267320, Control_c, 0, 64, 0
3, 267357, Note_on_c, 0, 47, 52
3, 267362, Note_on_c, 0, 63, 32
3, 267370, Note_on_c, 0, 58, 40
3, 267497, Control_c, 0, 64, 127
3, 267594, Note_on_c, 0, 63, 0
3, 267604, Note_on_c, 0, 58, 0
3, 267611, Note_on_c, 0, 47, 0
3, 267665, Control_c, 0, 64, 0
3, 267677, Note_on_c, 0, 48, 43
3, 267678, Note_on_c, 0, 59, 51
3, 267681, Note_on_c, 0, 55, 47
3, 267682, Note_on_c, 0, 64, 50
3, 267707, Note_on_c, 0, 55, 0
3, 267719, Note_on_c, 0, 64, 0
3, 267720, Note_on_c, 0, 48, 0
3, 267729, Note_on_c, 0, 59, 0
3, 267770, Control_c, 0, 64, 127
3, 267866, Control_c, 0, 64, 0
3, 267903, Note_on_c, 0, 65, 60
3, 267909, Note_on_c, 0, 56, 39
3, 267915, Note_on_c, 0, 60, 56
3, 267930, Note_on_c, 0, 62, 36
3, 267965, Note_on_c, 0, 62, 0
3, 267978, Control_c, 0, 64, 127
3, 267996, Note_on_c, 0, 65, 0
3, 268042, Note_on_c, 0, 60, 0
3, 268075, Note_on_c, 0, 56, 0
3, 268152, Note_on_c, 0, 67, 71
3, 268163, Note_on_c, 0, 55, 57
3, 268166, Note_on_c, 0, 56, 51
3, 268169, Note_on_c, 0, 60, 68
3, 268221, Note_on_c, 0, 55, 0
3, 268269, Note_on_c, 0, 60, 0
3, 268270, Note_on_c, 0, 67, 0
3, 268294, Note_on_c, 0, 56, 0
3, 268307, Control_c, 0, 64, 0
3, 268330, Note_on_c, 0, 65, 53
3, 268364, Note_on_c, 0, 60, 38
3, 268437, Note_on_c, 0, 55, 5
3, 268507, Note_on_c, 0, 60, 0
3, 268524, Note_on_c, 0, 55, 0
3, 268550, Note_on_c, 0, 65, 0
3, 268604, Control_c, 0, 64, 127
3, 268633, Note_on_c, 0, 52, 39
3, 268708, Note_on_c, 0, 52, 0
3, 268791, Note_on_c, 0, 64, 60
3, 268796, Control_c, 0, 64, 0
3, 268807, Note_on_c, 0, 55, 33
3, 268817, Note_on_c, 0, 52, 40
3, 268841, Note_on_c, 0, 60, 36
3, 268985, Note_on_c, 0, 60, 0
3, 269009, Note_on_c, 0, 55, 0
3, 269029, Control_c, 0, 64, 127
3, 269098, Note_on_c, 0, 60, 54
3, 269104, Note_on_c, 0, 55, 41
3, 269124, Note_on_c, 0, 45, 47
3, 269126, Note_on_c, 0, 52, 0
3, 269130, Note_on_c, 0, 64, 0
3, 269162, Note_on_c, 0, 45, 0
3, 269164, Note_on_c, 0, 55, 0
3, 269178, Note_on_c, 0, 60, 0
3, 269778, Note_on_c, 0, 55, 40
3, 269783, Note_on_c, 0, 64, 35
3, 269794, Note_on_c, 0, 57, 41
3, 269801, Note_on_c, 0, 60, 41
3, 269807, Control_c, 0, 64, 0
3, 269978, Note_on_c, 0, 79, 44
3, 270052, Note_on_c, 0, 79, 0
3, 270074, Note_on_c, 0, 64, 0
3, 270089, Note_on_c, 0, 60, 0
3, 270139, Note_on_c, 0, 71, 43
3, 270143, Note_on_c, 0, 83, 45
3, 270167, Note_on_c, 0, 71, 0
3, 270180, Note_on_c, 0, 55, 0
3, 270184, Note_on_c, 0, 57, 0
3, 270196, Note_on_c, 0, 83, 0
3, 270442, Note_on_c, 0, 64, 50
3, 270447, Note_on_c, 0, 55, 47
3, 270450, Note_on_c, 0, 57, 44
3, 270451, Note_on_c, 0, 60, 45
3, 270454, Note_on_c, 0, 76, 56
3, 270457, Note_on_c, 0, 88, 55
3, 270498, Control_c, 0, 64, 127
3, 270559, Note_on_c, 0, 76, 0
3, 270610, Note_on_c, 0, 88, 0
3, 270612, Note_on_c, 0, 64, 0
3, 270614, Note_on_c, 0, 55, 0
3, 270623, Note_on_c, 0, 57, 0
3, 270642, Note_on_c, 0, 60, 0
3, 270698, Control_c, 0, 64, 0
3, 270747, Note_on_c, 0, 64, 56
3, 270751, Note_on_c, 0, 60, 45
3, 270762, Note_on_c, 0, 54, 40
3, 270762, Note_on_c, 0, 79, 40
3, 270763, Note_on_c, 0, 91, 51
3, 270787, Note_on_c, 0, 64, 0
3, 270790, Note_on_c, 0, 79, 0
3, 270791, Note_on_c, 0, 60, 0
3, 270809, Note_on_c, 0, 91, 0
3, 270818, Note_on_c, 0, 54, 0
3, 270952, Note_on_c, 0, 92, 25
3, 270962, Control_c, 0, 64, 127
3, 270980, Note_on_c, 0, 92, 0
3, 271034, Control_c, 0, 64, 0
3, 271053, Note_on_c, 0, 54, 55
3, 271060, Note_on_c, 0, 60, 43
3, 271061, Note_on_c, 0, 95, 54
3, 271063, Note_on_c, 0, 83, 47
3, 271063, Note_on_c, 0, 64, 44
3, 271074, Note_on_c, 0, 88, 35
3, 271115, Note_on_c, 0, 64, 0
3, 271119, Note_on_c, 0, 60, 0
3, 271127, Note_on_c, 0, 88, 0
3, 271130, Note_on_c, 0, 83, 0
3, 271143, Note_on_c, 0, 54, 0
3, 271180, Note_on_c, 0, 95, 0
3, 271180, Control_c, 0, 64, 127
3, 271350, Note_on_c, 0, 100, 67
3, 271353, Note_on_c, 0, 88, 64
3, 271354, Note_on_c, 0, 54, 48
3, 271362, Note_on_c, 0, 64, 42
3, 271371, Note_on_c, 0, 60, 35
3, 271429, Note_on_c, 0, 88, 0
3, 271468, Note_on_c, 0, 100, 0
3, 271483, Note_on_c, 0, 64, 0
3, 271505, Note_on_c, 0, 54, 0
3, 271512, Note_on_c, 0, 60, 0
3, 271660, Control_c, 0, 64, 0
3, 271696, Note_on_c, 0, 54, 56
3, 271698, Note_on_c, 0, 107, 83
3, 271701, Note_on_c, 0, 64, 50
3, 271707, Note_on_c, 0, 60, 47
3, 271715, Note_on_c, 0, 95, 34
3, 271741, Control_c, 0, 64, 127
3, 271842, Note_on_c, 0, 107, 0
3, 271874, Note_on_c, 0, 95, 0
3, 271900, Note_on_c, 0, 64, 0
3, 271906, Note_on_c, 0, 54, 0
3, 271945, Note_on_c, 0, 60, 0
3, 272007, Note_on_c, 0, 104, 53
3, 272017, Note_on_c, 0, 64, 51
3, 272018, Note_on_c, 0, 60, 33
3, 272022, Note_on_c, 0, 54, 59
3, 272077, Control_c, 0, 64, 0
3, 272182, Control_c, 0, 64, 127
3, 272348, Note_on_c, 0, 104, 0
3, 272415, Note_on_c, 0, 64, 0
3, 272466, Note_on_c, 0, 54, 0
3, 272498, Note_on_c, 0, 60, 0
3, 272647, Note_on_c, 0, 96, 45
3, 272650, Note_on_c, 0, 64, 44
3, 272650, Note_on_c, 0, 60, 44
3, 272653, Note_on_c, 0, 84, 46
3, 272655, Control_c, 0, 64, 0
3, 272658, Note_on_c, 0, 57, 46
3, 272661, Note_on_c, 0, 53, 33
3, 272751, Control_c, 0, 64, 127
3, 272813, Note_on_c, 0, 84, 0
3, 272820, Note_on_c, 0, 96, 0
3, 272863, Note_on_c, 0, 53, 0
3, 272867, Note_on_c, 0, 64, 0
3, 272875, Note_on_c, 0, 57, 0
3, 272887, Note_on_c, 0, 60, 0
3, 272964, Note_on_c, 0, 60, 66
3, 272967, Note_on_c, 0, 53, 54
3, 272967, Note_on_c, 0, 57, 60
3, 272968, Note_on_c, 0, 64, 69
3, 272969, Note_on_c, 0, 86, 74
3, 272970, Note_on_c, 0, 98, 80
3, 272972, Note_on_c, 0, 91, 71
3, 273054, Note_on_c, 0, 86, 0
3, 273055, Note_on_c, 0, 64, 0
3, 273056, Note_on_c, 0, 98, 0
3, 273058, Note_on_c, 0, 53, 0
3, 273085, Note_on_c, 0, 60, 0
3, 273086, Note_on_c, 0, 57, 0
3, 273091, Note_on_c, 0, 91, 0
3, 273122, Note_on_c, 0, 64, 65
3, 273125, Control_c, 0, 64, 0
3, 273126, Note_on_c, 0, 60, 32
3, 273131, Note_on_c, 0, 96, 69
3, 273133, Note_on_c, 0, 53, 56
3, 273135, Note_on_c, 0, 57, 57
3, 273139, Note_on_c, 0, 91, 43
3, 273142, Note_on_c, 0, 84, 40
3, 273221, Control_c, 0, 64, 127
3, 273264, Note_on_c, 0, 91, 0
3, 273285, Note_on_c, 0, 96, 0
3, 273338, Note_on_c, 0, 53, 0
3, 273343, Note_on_c, 0, 60, 0
3, 273346, Note_on_c, 0, 84, 0
3, 273351, Note_on_c, 0, 64, 0
3, 273375, Note_on_c, 0, 57, 0
3, 273442, Note_on_c, 0, 64, 76
3, 273442, Note_on_c, 0, 95, 76
3, 273444, Note_on_c, 0, 53, 75
3, 273445, Note_on_c, 0, 59, 79
3, 273455, Note_on_c, 0, 83, 65
3, 273494, Control_c, 0, 64, 0
3, 273614, Control_c, 0, 64, 127
3, 273711, Note_on_c, 0, 83, 0
3, 273737, Note_on_c, 0, 95, 0
3, 273738, Note_on_c, 0, 53, 0
3, 273747, Note_on_c, 0, 64, 0
3, 273767, Note_on_c, 0, 59, 0
3, 273932, Note_on_c, 0, 98, 72
3, 273932, Note_on_c, 0, 92, 72
3, 273933, Note_on_c, 0, 63, 91
3, 273935, Note_on_c, 0, 59, 79
3, 273938, Note_on_c, 0, 86, 63
3, 273939, Note_on_c, 0, 56, 65
3, 273940, Note_on_c, 0, 53, 82
3, 273941, Note_on_c, 0, 96, 71
3, 273948, Note_on_c, 0, 84, 43
3, 273967, Control_c, 0, 64, 0
3, 273968, Note_on_c, 0, 96, 0
3, 273971, Note_on_c, 0, 84, 0
3, 274111, Control_c, 0, 64, 127
3, 274134, Note_on_c, 0, 92, 0
3, 274140, Note_on_c, 0, 93, 39
3, 274312, Note_on_c, 0, 59, 0
3, 274404, Note_on_c, 0, 53, 0
3, 274434, Note_on_c, 0, 93, 0
3, 274435, Note_on_c, 0, 63, 0
3, 274441, Note_on_c, 0, 98, 0
3, 274506, Note_on_c, 0, 86, 0
3, 274526, Note_on_c, 0, 56, 0
3, 274566, Note_on_c, 0, 96, 72
3, 274575, Note_on_c, 0, 84, 46
3, 274582, Note_on_c, 0, 62, 58
3, 274586, Note_on_c, 0, 91, 59
3, 274598, Note_on_c, 0, 57, 42
3, 274608, Note_on_c, 0, 62, 0
3, 274610, Note_on_c, 0, 52, 38
3, 274613, Note_on_c, 0, 91, 0
3, 274625, Control_c, 0, 64, 0
3, 274627, Note_on_c, 0, 57, 0
3, 274638, Note_on_c, 0, 96, 0
3, 274642, Note_on_c, 0, 84, 0
3, 274674, Note_on_c, 0, 52, 0
3, 274905, Note_on_c, 0, 51, 85
3, 275047, Note_on_c, 0, 51, 0
3, 275074, Note_on_c, 0, 52, 64
3, 275430, Note_on_c, 0, 51, 37
3, 275457, Note_on_c, 0, 51, 0
3, 275520, Note_on_c, 0, 67, 52
3, 275522, Note_on_c, 0, 57, 61
3, 275524, Note_on_c, 0, 62, 58
3, 275684, Control_c, 0, 64, 127
3, 275807, Note_on_c, 0, 62, 0
3, 275811, Note_on_c, 0, 67, 0
3, 275819, Note_on_c, 0, 57, 0
3, 275890, Note_on_c, 0, 52, 0
3, 275926, Note_on_c, 0, 50, 41
3, 275965, Note_on_c, 0, 50, 0
3, 275992, Note_on_c, 0, 59, 103
3, 276002, Note_on_c, 0, 44, 74
3, 276003, Note_on_c, 0, 54, 82
3, 276005, Control_c, 0, 64, 0
3, 276238, Control_c, 0, 64, 127
3, 276378, Note_on_c, 0, 50, 39
3, 276379, Note_on_c, 0, 54, 0
3, 276439, Note_on_c, 0, 59, 0
3, 276446, Note_on_c, 0, 50, 0
3, 276450, Note_on_c, 0, 44, 0
3, 276463, Control_c, 0, 64, 0
3, 276492, Note_on_c, 0, 43, 54
3, 276504, Note_on_c, 0, 53, 44
3, 276511, Note_on_c, 0, 58, 40
3, 276630, Note_on_c, 0, 58, 0
3, 276738, Note_on_c, 0, 53, 0
3, 276760, Note_on_c, 0, 43, 0
3, 276812, Note_on_c, 0, 50, 24
3, 276814, Note_on_c, 0, 70, 64
3, 276839, Note_on_c, 0, 50, 0
3, 276918, Note_on_c, 0, 70, 0
3, 276983, Note_on_c, 0, 72, 53
3, 277401, Note_on_c, 0, 72, 0
3, 277426, Note_on_c, 0, 73, 61
3, 277530, Note_on_c, 0, 73, 0
3, 277544, Note_on_c, 0, 74, 31
3, 277666, Note_on_c, 0, 74, 0
3, 277746, Note_on_c, 0, 63, 40
3, 277750, Note_on_c, 0, 52, 44
3, 277752, Note_on_c, 0, 58, 44
3, 277938, Control_c, 0, 64, 127
3, 278193, Note_on_c, 0, 52, 0
3, 278265, Note_on_c, 0, 58, 0
3, 278290, Note_on_c, 0, 63, 0
3, 278377, Note_on_c, 0, 60, 32
3, 278383, Note_on_c, 0, 64, 39
3, 278392, Note_on_c, 0, 53, 32
3, 278395, Control_c, 0, 64, 0
3, 278399, Note_on_c, 0, 57, 46
3, 278554, Note_on_c, 0, 57, 0
3, 278569, Note_on_c, 0, 64, 0
3, 278631, Note_on_c, 0, 53, 0
3, 278644, Note_on_c, 0, 60, 0
3, 278721, Note_on_c, 0, 74, 61
3, 278723, Note_on_c, 0, 86, 67
3, 278724, Note_on_c, 0, 78, 53
3, 278736, Note_on_c, 0, 81, 48
3, 278772, Note_on_c, 0, 81, 0
3, 278781, Note_on_c, 0, 78, 0
3, 278786, Note_on_c, 0, 74, 0
3, 278798, Note_on_c, 0, 86, 0
3, 278894, Note_on_c, 0, 74, 38
3, 278909, Note_on_c, 0, 78, 25
3, 278911, Note_on_c, 0, 86, 37
3, 278933, Note_on_c, 0, 81, 30
3, 278967, Note_on_c, 0, 74, 0
3, 278969, Note_on_c, 0, 78, 0
3, 278969, Note_on_c, 0, 81, 0
3, 278978, Note_on_c, 0, 86, 0
3, 279194, Note_on_c, 0, 86, 64
3, 279195, Note_on_c, 0, 74, 48
3, 279204, Note_on_c, 0, 76, 53
3, 279210, Note_on_c, 0, 81, 46
3, 279237, Note_on_c, 0, 76, 0
3, 279246, Note_on_c, 0, 81, 0
3, 279254, Note_on_c, 0, 74, 0
3, 279271, Note_on_c, 0, 86, 0
3, 279363, Note_on_c, 0, 86, 56
3, 279369, Note_on_c, 0, 74, 42
3, 279386, Note_on_c, 0, 78, 36
3, 279391, Note_on_c, 0, 81, 34
3, 279487, Note_on_c, 0, 78, 0
3, 279488, Note_on_c, 0, 74, 0
3, 279492, Note_on_c, 0, 86, 0
3, 279505, Note_on_c, 0, 81, 0
3, 279567, Control_c, 0, 64, 127
3, 279672, Note_on_c, 0, 84, 55
3, 279676, Note_on_c, 0, 78, 47
3, 279679, Note_on_c, 0, 72, 54
3, 279691, Note_on_c, 0, 63, 54
3, 279701, Note_on_c, 0, 60, 41
3, 279708, Note_on_c, 0, 54, 35
3, 279717, Note_on_c, 0, 72, 0
3, 279736, Note_on_c, 0, 60, 0
3, 279743, Note_on_c, 0, 78, 0
3, 279749, Note_on_c, 0, 84, 0
3, 279766, Note_on_c, 0, 63, 0
3, 279769, Control_c, 0, 64, 0
3, 279810, Note_on_c, 0, 54, 0
3, 279866, Note_on_c, 0, 84, 32
3, 279866, Note_on_c, 0, 78, 31
3, 279887, Note_on_c, 0, 72, 24
3, 279925, Note_on_c, 0, 72, 0
3, 279960, Note_on_c, 0, 84, 0
3, 279961, Note_on_c, 0, 78, 0
3, 280154, Note_on_c, 0, 62, 56
3, 280154, Note_on_c, 0, 58, 48
3, 280156, Note_on_c, 0, 78, 56
3, 280159, Note_on_c, 0, 53, 41
3, 280162, Note_on_c, 0, 74, 58
3, 280164, Control_c, 0, 64, 127
3, 280165, Note_on_c, 0, 57, 49
3, 280173, Note_on_c, 0, 81, 51
3, 280197, Note_on_c, 0, 57, 0
3, 280199, Note_on_c, 0, 62, 0
3, 280203, Note_on_c, 0, 53, 0
3, 280204, Note_on_c, 0, 84, 67
3, 280229, Note_on_c, 0, 74, 0
3, 280230, Note_on_c, 0, 58, 0
3, 280237, Note_on_c, 0, 78, 0
3, 280251, Control_c, 0, 64, 0
3, 280256, Note_on_c, 0, 81, 0
3, 280320, Note_on_c, 0, 84, 37
3, 280324, Note_on_c, 0, 84, 0
3, 280373, Note_on_c, 0, 74, 30
3, 280385, Note_on_c, 0, 78, 26
3, 280398, Note_on_c, 0, 81, 37
3, 280440, Note_on_c, 0, 84, 0
3, 280489, Note_on_c, 0, 74, 0
3, 280526, Note_on_c, 0, 78, 0
3, 280530, Note_on_c, 0, 81, 0
3, 280555, Control_c, 0, 64, 127
3, 280661, Note_on_c, 0, 84, 59
3, 280674, Note_on_c, 0, 78, 36
3, 280740, Control_c, 0, 64, 0
3, 280751, Note_on_c, 0, 84, 0
3, 280753, Note_on_c, 0, 78, 0
3, 280839, Note_on_c, 0, 84, 40
3, 280849, Note_on_c, 0, 78, 28
3, 280855, Note_on_c, 0, 72, 36
3, 280891, Note_on_c, 0, 72, 0
3, 280927, Note_on_c, 0, 84, 0
3, 280938, Note_on_c, 0, 78, 0
3, 281077, Control_c, 0, 64, 127
3, 281156, Note_on_c, 0, 63, 62
3, 281164, Note_on_c, 0, 78, 62
3, 281165, Note_on_c, 0, 58, 47
3, 281171, Note_on_c, 0, 83, 55
3, 281175, Note_on_c, 0, 71, 48
3, 281185, Note_on_c, 0, 52, 33
3, 281217, Note_on_c, 0, 63, 0
3, 281222, Note_on_c, 0, 52, 0
3, 281224, Note_on_c, 0, 71, 0
3, 281230, Note_on_c, 0, 83, 0
3, 281276, Note_on_c, 0, 58, 0
3, 281281, Note_on_c, 0, 78, 0
3, 281318, Control_c, 0, 64, 0
3, 281383, Note_on_c, 0, 82, 59
3, 281386, Note_on_c, 0, 63, 44
3, 281388, Note_on_c, 0, 58, 36
3, 281399, Note_on_c, 0, 70, 31
3, 281409, Note_on_c, 0, 52, 33
3, 281420, Note_on_c, 0, 77, 29
3, 281479, Control_c, 0, 64, 127
3, 281500, Note_on_c, 0, 52, 0
3, 281511, Note_on_c, 0, 82, 0
3, 281514, Note_on_c, 0, 77, 0
3, 281522, Note_on_c, 0, 70, 0
3, 281532, Note_on_c, 0, 63, 0
3, 281559, Note_on_c, 0, 58, 0
3, 281634, Note_on_c, 0, 63, 47
3, 281642, Note_on_c, 0, 82, 60
3, 281647, Note_on_c, 0, 70, 55
3, 281650, Note_on_c, 0, 58, 40
3, 281655, Note_on_c, 0, 52, 42
3, 281665, Note_on_c, 0, 77, 47
3, 281691, Note_on_c, 0, 52, 0
3, 281706, Note_on_c, 0, 77, 0
3, 281714, Note_on_c, 0, 63, 0
3, 281716, Note_on_c, 0, 70, 0
3, 281731, Note_on_c, 0, 58, 0
3, 281748, Note_on_c, 0, 82, 0
3, 281791, Control_c, 0, 64, 0
3, 281811, Note_on_c, 0, 63, 52
3, 281819, Note_on_c, 0, 84, 55
3, 281820, Note_on_c, 0, 52, 54
3, 281822, Note_on_c, 0, 72, 56
3, 281826, Note_on_c, 0, 58, 37
3, 281834, Note_on_c, 0, 77, 33
3, 281879, Note_on_c, 0, 72, 0
3, 281882, Note_on_c, 0, 77, 0
3, 281894, Note_on_c, 0, 63, 0
3, 281901, Note_on_c, 0, 52, 0
3, 281903, Note_on_c, 0, 84, 0
3, 281922, Note_on_c, 0, 58, 0
3, 282040, Control_c, 0, 64, 127
3, 282103, Note_on_c, 0, 63, 46
3, 282109, Note_on_c, 0, 52, 37
3, 282115, Note_on_c, 0, 82, 60
3, 282118, Note_on_c, 0, 58, 39
3, 282122, Note_on_c, 0, 70, 60
3, 282135, Note_on_c, 0, 77, 44
3, 282146, Note_on_c, 0, 52, 0
3, 282170, Note_on_c, 0, 77, 0
3, 282184, Note_on_c, 0, 63, 0
3, 282191, Note_on_c, 0, 70, 0
3, 282194, Note_on_c, 0, 58, 0
3, 282202, Note_on_c, 0, 82, 0
3, 282256, Control_c, 0, 64, 0
3, 282312, Note_on_c, 0, 53, 34
3, 282320, Note_on_c, 0, 56, 19
3, 282335, Note_on_c, 0, 60, 24
3, 282372, Note_on_c, 0, 81, 30
3, 282374, Note_on_c, 0, 69, 35
3, 282386, Note_on_c, 0, 56, 0
3, 282407, Note_on_c, 0, 69, 0
3, 282407, Note_on_c, 0, 60, 0
3, 282415, Note_on_c, 0, 81, 0
3, 282457, Control_c, 0, 64, 127
3, 282607, Note_on_c, 0, 81, 68
3, 282610, Note_on_c, 0, 76, 60
3, 282616, Note_on_c, 0, 69, 62
3, 282632, Note_on_c, 0, 78, 29
3, 282634, Note_on_c, 0, 64, 43
3, 282635, Control_c, 0, 64, 0
3, 282641, Note_on_c, 0, 60, 36
3, 282670, Note_on_c, 0, 78, 0
3, 282764, Control_c, 0, 64, 127
3, 282887, Note_on_c, 0, 60, 0
3, 283015, Note_on_c, 0, 76, 0
3, 283039, Note_on_c, 0, 81, 0
3, 283056, Note_on_c, 0, 64, 0
3, 283106, Note_on_c, 0, 60, 31
3, 283111, Note_on_c, 0, 69, 0
3, 283158, Note_on_c, 0, 60, 0
3, 283205, Control_c, 0, 64, 0
3, 283227, Note_on_c, 0, 79, 66
3, 283232, Note_on_c, 0, 64, 74
3, 283235, Note_on_c, 0, 69, 66
3, 283246, Note_on_c, 0, 72, 68
3, 283350, Control_c, 0, 64, 127
3, 283450, Note_on_c, 0, 64, 0
3, 283455, Note_on_c, 0, 79, 0
3, 283486, Note_on_c, 0, 72, 0
3, 283487, Note_on_c, 0, 69, 0
3, 283551, Note_on_c, 0, 77, 60
3, 283560, Note_on_c, 0, 62, 55
3, 283568, Note_on_c, 0, 69, 44
3, 283625, Note_on_c, 0, 69, 0
3, 283628, Note_on_c, 0, 77, 0
3, 283669, Note_on_c, 0, 62, 0
3, 283703, Control_c, 0, 64, 0
3, 283723, Note_on_c, 0, 76, 41
3, 283739, Note_on_c, 0, 53, 0
3, 283743, Note_on_c, 0, 60, 38
3, 283783, Note_on_c, 0, 65, 13
3, 283823, Control_c, 0, 64, 127
3, 283863, Note_on_c, 0, 65, 0
3, 283942, Note_on_c, 0, 76, 0
3, 284016, Note_on_c, 0, 53, 27
3, 284019, Note_on_c, 0, 65, 28
3, 284032, Note_on_c, 0, 60, 0
3, 284051, Note_on_c, 0, 65, 0
3, 284054, Note_on_c, 0, 53, 0
3, 284168, Note_on_c, 0, 60, 36
3, 284176, Control_c, 0, 64, 0
3, 284177, Note_on_c, 0, 75, 51
3, 284183, Note_on_c, 0, 68, 53
3, 284183, Note_on_c, 0, 63, 53
3, 284191, Note_on_c, 0, 72, 41
3, 284202, Note_on_c, 0, 53, 31
3, 284210, Note_on_c, 0, 56, 25
3, 284377, Control_c, 0, 64, 127
3, 284593, Note_on_c, 0, 68, 0
3, 284601, Note_on_c, 0, 72, 0
3, 284602, Note_on_c, 0, 53, 0
3, 284616, Note_on_c, 0, 60, 0
3, 284639, Note_on_c, 0, 75, 0
3, 284641, Note_on_c, 0, 63, 0
3, 284654, Note_on_c, 0, 56, 0
3, 285111, Note_on_c, 0, 56, 52
3, 285119, Note_on_c, 0, 67, 57
3, 285120, Note_on_c, 0, 63, 52
3, 285122, Note_on_c, 0, 72, 74
3, 285127, Note_on_c, 0, 68, 74
3, 285129, Note_on_c, 0, 60, 47
3, 285146, Control_c, 0, 64, 0
3, 285199, Note_on_c, 0, 67, 0
3, 285206, Note_on_c, 0, 68, 0
3, 285242, Note_on_c, 0, 60, 0
3, 285246, Note_on_c, 0, 63, 0
3, 285258, Note_on_c, 0, 72, 0
3, 285276, Note_on_c, 0, 74, 61
3, 285278, Note_on_c, 0, 63, 28
3, 285279, Note_on_c, 0, 67, 50
3, 285279, Note_on_c, 0, 70, 51
3, 285294, Note_on_c, 0, 60, 22
3, 285298, Control_c, 0, 64, 127
3, 285459, Note_on_c, 0, 67, 0
3, 285514, Note_on_c, 0, 70, 0
3, 285519, Note_on_c, 0, 56, 0
3, 285533, Note_on_c, 0, 63, 0
3, 285547, Note_on_c, 0, 60, 0
3, 285553, Note_on_c, 0, 74, 0
3, 285603, Note_on_c, 0, 62, 62
3, 285606, Note_on_c, 0, 56, 38
3, 285607, Note_on_c, 0, 75, 63
3, 285608, Note_on_c, 0, 66, 58
3, 285611, Note_on_c, 0, 72, 64
3, 285613, Control_c, 0, 64, 0
3, 285724, Control_c, 0, 64, 127
3, 285962, Note_on_c, 0, 62, 0
3, 285983, Note_on_c, 0, 66, 0
3, 285999, Note_on_c, 0, 72, 0
3, 286066, Note_on_c, 0, 56, 0
3, 286076, Note_on_c, 0, 75, 0
3, 286414, Note_on_c, 0, 74, 62
3, 286423, Control_c, 0, 64, 0
3, 286426, Note_on_c, 0, 55, 53
3, 286428, Note_on_c, 0, 62, 48
3, 286429, Note_on_c, 0, 70, 59
3, 286430, Note_on_c, 0, 65, 60
3, 286437, Note_on_c, 0, 60, 38
3, 286585, Control_c, 0, 64, 127
3, 286602, Note_on_c, 0, 65, 0
3, 286614, Note_on_c, 0, 55, 0
3, 286634, Note_on_c, 0, 60, 0
3, 286638, Note_on_c, 0, 62, 0
3, 286663, Note_on_c, 0, 70, 0
3, 286670, Note_on_c, 0, 74, 0
3, 286715, Note_on_c, 0, 75, 61
3, 286726, Note_on_c, 0, 72, 65
3, 286730, Note_on_c, 0, 62, 44
3, 286735, Note_on_c, 0, 55, 58
3, 286737, Note_on_c, 0, 65, 64
3, 286739, Note_on_c, 0, 60, 46
3, 286827, Note_on_c, 0, 65, 0
3, 286860, Note_on_c, 0, 72, 0
3, 286870, Note_on_c, 0, 60, 0
3, 286878, Note_on_c, 0, 62, 0
3, 286967, Note_on_c, 0, 55, 0
3, 287050, Control_c, 0, 64, 0
3, 287057, Note_on_c, 0, 76, 62
3, 287058, Note_on_c, 0, 55, 39
3, 287061, Note_on_c, 0, 64, 57
3, 287065, Note_on_c, 0, 65, 54
3, 287067, Note_on_c, 0, 58, 42
3, 287069, Note_on_c, 0, 61, 52
3, 287071, Note_on_c, 0, 70, 50
3, 287146, Control_c, 0, 64, 127
3, 287147, Note_on_c, 0, 75, 0
3, 287179, Note_on_c, 0, 65, 0
3, 287180, Note_on_c, 0, 70, 0
3, 287245, Note_on_c, 0, 55, 0
3, 287246, Note_on_c, 0, 64, 0
3, 287266, Note_on_c, 0, 61, 0
3, 287278, Note_on_c, 0, 76, 0
3, 287285, Note_on_c, 0, 58, 0
3, 287377, Note_on_c, 0, 79, 57
3, 287380, Note_on_c, 0, 67, 58
3, 287381, Note_on_c, 0, 55, 58
3, 287384, Note_on_c, 0, 61, 55
3, 287385, Note_on_c, 0, 58, 48
3, 287386, Note_on_c, 0, 75, 53
3, 287387, Note_on_c, 0, 64, 57
3, 287429, Control_c, 0, 64, 0
3, 287455, Note_on_c, 0, 67, 0
3, 287467, Note_on_c, 0, 64, 0
3, 287470, Note_on_c, 0, 79, 0
3, 287474, Note_on_c, 0, 55, 0
3, 287491, Note_on_c, 0, 61, 0
3, 287495, Note_on_c, 0, 75, 0
3, 287502, Note_on_c, 0, 58, 0
3, 287547, Note_on_c, 0, 64, 69
3, 287547, Note_on_c, 0, 61, 64
3, 287550, Note_on_c, 0, 55, 74
3, 287554, Note_on_c, 0, 58, 71
3, 287555, Note_on_c, 0, 70, 73
3, 287558, Note_on_c, 0, 82, 78
3, 287615, Control_c, 0, 64, 127
3, 287719, Note_on_c, 0, 64, 0
3, 287763, Note_on_c, 0, 61, 0
3, 287774, Note_on_c, 0, 70, 0
3, 287784, Note_on_c, 0, 82, 0
3, 287838, Note_on_c, 0, 61, 49
3, 287846, Note_on_c, 0, 64, 54
3, 287856, Note_on_c, 0, 55, 0
3, 287888, Note_on_c, 0, 64, 0
3, 287907, Note_on_c, 0, 58, 0
3, 287908, Note_on_c, 0, 61, 0
3, 287994, Control_c, 0, 64, 0
3, 288000, Note_on_c, 0, 63, 67
3, 288002, Note_on_c, 0, 56, 68
3, 288005, Note_on_c, 0, 82, 69
3, 288007, Note_on_c, 0, 67, 67
3, 288010, Note_on_c, 0, 60, 66
3, 288012, Note_on_c, 0, 70, 70
3, 288020, Note_on_c, 0, 75, 62
3, 288024, Note_on_c, 0, 79, 54
3, 288129, Control_c, 0, 64, 127
3, 288223, Note_on_c, 0, 79, 0
3, 288256, Note_on_c, 0, 75, 0
3, 288259, Note_on_c, 0, 82, 0
3, 288272, Note_on_c, 0, 67, 0
3, 288297, Note_on_c, 0, 70, 0
3, 288349, Note_on_c, 0, 60, 0
3, 288354, Note_on_c, 0, 63, 0
3, 288356, Note_on_c, 0, 56, 0
3, 288465, Note_on_c, 0, 63, 31
3, 288471, Note_on_c, 0, 77, 38
3, 288472, Note_on_c, 0, 56, 46
3, 288483, Note_on_c, 0, 65, 39
3, 288493, Note_on_c, 0, 60, 38
3, 288498, Note_on_c, 0, 72, 28
3, 288542, Note_on_c, 0, 65, 0
3, 288570, Note_on_c, 0, 72, 0
3, 288573, Note_on_c, 0, 63, 0
3, 288575, Note_on_c, 0, 77, 0
3, 288578, Note_on_c, 0, 60, 0
3, 288629, Note_on_c, 0, 56, 0
3, 288791, Note_on_c, 0, 80, 69
3, 288794, Note_on_c, 0, 65, 72
3, 288794, Note_on_c, 0, 54, 60
3, 288798, Note_on_c, 0, 68, 62
3, 288799, Note_on_c, 0, 58, 51
3, 288803, Note_on_c, 0, 60, 58
3, 288808, Note_on_c, 0, 75, 57
3, 288837, Control_c, 0, 64, 0
3, 288982, Control_c, 0, 64, 127
3, 289162, Note_on_c, 0, 80, 0
3, 289175, Note_on_c, 0, 75, 0
3, 289208, Note_on_c, 0, 65, 0
3, 289212, Note_on_c, 0, 68, 0
3, 289234, Note_on_c, 0, 60, 0
3, 289276, Note_on_c, 0, 54, 0
3, 289295, Note_on_c, 0, 58, 0
3, 289410, Note_on_c, 0, 63, 47
3, 289415, Note_on_c, 0, 75, 36
3, 289417, Note_on_c, 0, 54, 50
3, 289426, Note_on_c, 0, 58, 27
3, 289475, Note_on_c, 0, 63, 0
3, 289503, Note_on_c, 0, 75, 0
3, 289542, Note_on_c, 0, 58, 0
3, 289586, Note_on_c, 0, 54, 0
3, 289742, Note_on_c, 0, 63, 72
3, 289744, Note_on_c, 0, 75, 62
3, 289745, Note_on_c, 0, 79, 62
3, 289746, Note_on_c, 0, 67, 69
3, 289747, Note_on_c, 0, 71, 62
3, 289749, Note_on_c, 0, 59, 66
3, 289750, Note_on_c, 0, 53, 66
3, 289767, Control_c, 0, 64, 0
3, 289769, Note_on_c, 0, 77, 38
3, 289798, Note_on_c, 0, 77, 0
3, 289817, Note_on_c, 0, 63, 0
3, 289818, Note_on_c, 0, 67, 0
3, 289839, Note_on_c, 0, 59, 0
3, 289848, Note_on_c, 0, 53, 0
3, 289858, Note_on_c, 0, 71, 0
3, 289881, Control_c, 0, 64, 127
3, 289890, Note_on_c, 0, 75, 0
3, 289913, Note_on_c, 0, 79, 0
3, 289918, Note_on_c, 0, 67, 33
3, 289995, Note_on_c, 0, 67, 0
3, 290017, Note_on_c, 0, 79, 29
3, 290047, Note_on_c, 0, 75, 25
3, 290074, Note_on_c, 0, 79, 0
3, 290075, Note_on_c, 0, 75, 0
3, 290133, Note_on_c, 0, 43, 68
3, 290145, Control_c, 0, 64, 0
3, 290353, Control_c, 0, 64, 127
3, 290719, Note_on_c, 0, 50, 34
3, 290821, Note_on_c, 0, 50, 0
3, 290875, Note_on_c, 0, 59, 43
3, 290882, Control_c, 0, 64, 0
3, 290884, Note_on_c, 0, 67, 29
3, 290885, Note_on_c, 0, 61, 38
3, 290895, Note_on_c, 0, 53, 41
3, 290896, Note_on_c, 0, 63, 33
3, 291035, Control_c, 0, 64, 127
3, 291043, Note_on_c, 0, 67, 0
3, 291114, Note_on_c, 0, 59, 0
3, 291194, Note_on_c, 0, 61, 0
3, 291210, Note_on_c, 0, 63, 0
3, 291245, Note_on_c, 0, 48, 36
3, 291248, Note_on_c, 0, 53, 0
3, 291316, Control_c, 0, 64, 0
3, 291319, Note_on_c, 0, 48, 0
3, 291335, Note_on_c, 0, 51, 39
3, 291350, Note_on_c, 0, 56, 46
3, 291350, Note_on_c, 0, 61, 51
3, 291351, Note_on_c, 0, 66, 47
3, 291471, Note_on_c, 0, 43, 0
3, 291516, Control_c, 0, 64, 127
3, 291602, Note_on_c, 0, 56, 0
3, 291606, Note_on_c, 0, 61, 0
3, 291610, Note_on_c, 0, 66, 0
3, 291677, Control_c, 0, 64, 0
3, 291682, Note_on_c, 0, 67, 44
3, 291696, Note_on_c, 0, 62, 40
3, 291698, Note_on_c, 0, 57, 42
3, 291705, Note_on_c, 0, 51, 0
3, 291706, Note_on_c, 0, 52, 48
3, 291815, Note_on_c, 0, 57, 0
3, 291822, Control_c, 0, 64, 127
3, 291885, Note_on_c, 0, 62, 0
3, 291916, Note_on_c, 0, 67, 0
3, 291970, Note_on_c, 0, 52, 0
3, 292335, Control_c, 0, 64, 0
3, 292357, Note_on_c, 0, 79, 45
3, 292383, Note_on_c, 0, 79, 0
3, 292633, Note_on_c, 0, 79, 63
3, 292701, Note_on_c, 0, 79, 0
3, 292820, Note_on_c, 0, 64, 26
3, 292822, Note_on_c, 0, 79, 36
3, 292825, Note_on_c, 0, 61, 33
3, 292832, Note_on_c, 0, 55, 29
3, 292833, Note_on_c, 0, 58, 34
3, 293054, Note_on_c, 0, 79, 0
3, 293129, Note_on_c, 0, 79, 42
3, 293170, Note_on_c, 0, 79, 0
3, 293253, Note_on_c, 0, 55, 0
3, 293282, Note_on_c, 0, 64, 0
3, 293615, Note_on_c, 0, 58, 0
3, 293623, Note_on_c, 0, 79, 63
3, 293638, Note_on_c, 0, 61, 0
3, 293683, Note_on_c, 0, 79, 0
3, 293775, Note_on_c, 0, 53, 27
3, 293775, Note_on_c, 0, 79, 47
3, 293778, Note_on_c, 0, 60, 39
3, 293778, Note_on_c, 0, 64, 29
3, 293785, Note_on_c, 0, 57, 39
3, 294046, Control_c, 0, 64, 127
3, 294135, Note_on_c, 0, 64, 0
3, 294145, Note_on_c, 0, 60, 0
3, 294154, Note_on_c, 0, 57, 0
3, 294215, Control_c, 0, 64, 0
3, 294216, Note_on_c, 0, 79, 0
3, 294250, Note_on_c, 0, 64, 32
3, 294270, Note_on_c, 0, 77, 35
3, 294279, Note_on_c, 0, 60, 26
3, 294280, Note_on_c, 0, 57, 24
3, 294343, Control_c, 0, 64, 127
3, 294410, Note_on_c, 0, 64, 0
3, 294431, Note_on_c, 0, 57, 0
3, 294444, Note_on_c, 0, 60, 0
3, 294451, Note_on_c, 0, 53, 0
3, 294502, Note_on_c, 0, 77, 0
3, 294585, Note_on_c, 0, 77, 44
3, 294593, Note_on_c, 0, 64, 31
3, 294604, Note_on_c, 0, 60, 34
3, 294608, Note_on_c, 0, 57, 31
3, 294625, Note_on_c, 0, 64, 0
3, 294635, Note_on_c, 0, 77, 0
3, 294639, Control_c, 0, 64, 0
3, 294640, Note_on_c, 0, 60, 0
3, 294650, Note_on_c, 0, 57, 0
3, 294824, Control_c, 0, 64, 127
3, 295050, Note_on_c, 0, 60, 55
3, 295052, Note_on_c, 0, 64, 56
3, 295059, Note_on_c, 0, 57, 41
3, 295064, Note_on_c, 0, 89, 68
3, 295071, Note_on_c, 0, 77, 49
3, 295071, Note_on_c, 0, 53, 22
3, 295082, Note_on_c, 0, 64, 0
3, 295095, Note_on_c, 0, 60, 0
3, 295098, Note_on_c, 0, 53, 0
3, 295101, Note_on_c, 0, 77, 0
3, 295102, Note_on_c, 0, 57, 0
3, 295127, Note_on_c, 0, 89, 0
3, 295206, Note_on_c, 0, 64, 101
3, 295207, Note_on_c, 0, 53, 85
3, 295208, Note_on_c, 0, 60, 85
3, 295209, Note_on_c, 0, 57, 85
3, 295218, Note_on_c, 0, 93, 99
3, 295218, Note_on_c, 0, 81, 90
3, 295220, Control_c, 0, 64, 0
3, 295235, Note_on_c, 0, 83, 54
3, 295262, Note_on_c, 0, 83, 0
3, 295371, Control_c, 0, 64, 127
3, 295423, Note_on_c, 0, 53, 0
3, 295442, Note_on_c, 0, 64, 0
3, 295446, Note_on_c, 0, 93, 0
3, 295453, Note_on_c, 0, 81, 0
3, 295457, Note_on_c, 0, 57, 0
3, 295463, Note_on_c, 0, 60, 0
3, 295541, Note_on_c, 0, 93, 74
3, 295542, Note_on_c, 0, 60, 54
3, 295547, Note_on_c, 0, 64, 53
3, 295550, Note_on_c, 0, 57, 45
3, 295550, Note_on_c, 0, 53, 53
3, 295567, Note_on_c, 0, 81, 39
3, 295578, Note_on_c, 0, 83, 36
3, 295587, Note_on_c, 0, 64, 0
3, 295591, Note_on_c, 0, 60, 0
3, 295601, Note_on_c, 0, 81, 0
3, 295606, Note_on_c, 0, 83, 0
3, 295608, Note_on_c, 0, 53, 0
3, 295622, Note_on_c, 0, 93, 0
3, 295629, Note_on_c, 0, 57, 0
3, 295708, Control_c, 0, 64, 0
3, 295711, Note_on_c, 0, 59, 62
3, 295712, Note_on_c, 0, 89, 53
3, 295714, Note_on_c, 0, 64, 64
3, 295718, Note_on_c, 0, 77, 50
3, 295719, Note_on_c, 0, 53, 36
3, 295723, Note_on_c, 0, 57, 35
3, 295853, Control_c, 0, 64, 127
3, 295938, Note_on_c, 0, 89, 0
3, 295954, Note_on_c, 0, 64, 0
3, 295955, Note_on_c, 0, 53, 0
3, 295961, Note_on_c, 0, 57, 0
3, 295965, Note_on_c, 0, 77, 0
3, 295975, Note_on_c, 0, 59, 0
3, 296040, Note_on_c, 0, 88, 40
3, 296041, Note_on_c, 0, 76, 48
3, 296057, Note_on_c, 0, 59, 41
3, 296081, Note_on_c, 0, 76, 0
3, 296098, Note_on_c, 0, 59, 0
3, 296103, Note_on_c, 0, 88, 0
3, 296174, Control_c, 0, 64, 0
3, 296175, Note_on_c, 0, 77, 55
3, 296176, Note_on_c, 0, 64, 55
3, 296178, Note_on_c, 0, 59, 65
3, 296179, Note_on_c, 0, 53, 58
3, 296186, Note_on_c, 0, 89, 66
3, 296187, Note_on_c, 0, 57, 55
3, 296310, Control_c, 0, 64, 127
3, 296311, Note_on_c, 0, 77, 0
3, 296353, Note_on_c, 0, 89, 0
3, 296455, Note_on_c, 0, 64, 0
3, 296456, Note_on_c, 0, 53, 0
3, 296464, Note_on_c, 0, 57, 0
3, 296484, Note_on_c, 0, 59, 0
3, 296639, Control_c, 0, 64, 0
3, 296650, Note_on_c, 0, 94, 62
3, 296650, Note_on_c, 0, 59, 68
3, 296651, Note_on_c, 0, 64, 77
3, 296653, Note_on_c, 0, 98, 67
3, 296657, Note_on_c, 0, 86, 62
3, 296658, Note_on_c, 0, 53, 61
3, 296662, Note_on_c, 0, 57, 60
3, 296794, Note_on_c, 0, 86, 0
3, 296823, Note_on_c, 0, 94, 0
3, 296842, Note_on_c, 0, 95, 44
3, 296849, Note_on_c, 0, 98, 0
3, 296874, Note_on_c, 0, 95, 0
3, 296905, Note_on_c, 0, 53, 0
3, 296912, Note_on_c, 0, 57, 0
3, 296917, Note_on_c, 0, 64, 0
3, 296953, Note_on_c, 0, 59, 0
3, 297411, Note_on_c, 0, 63, 71
3, 297418, Note_on_c, 0, 53, 50
3, 297428, Note_on_c, 0, 59, 50
3, 297429, Note_on_c, 0, 89, 68
3, 297430, Note_on_c, 0, 56, 39
3, 297435, Note_on_c, 0, 77, 53
3, 297442, Note_on_c, 0, 84, 48
3, 297461, Note_on_c, 0, 59, 0
3, 297474, Note_on_c, 0, 84, 0
3, 297495, Note_on_c, 0, 77, 0
3, 297505, Note_on_c, 0, 53, 0
3, 297508, Note_on_c, 0, 89, 0
3, 297521, Note_on_c, 0, 56, 0
3, 297523, Note_on_c, 0, 63, 0
3, 297594, Control_c, 0, 64, 127
3, 297626, Control_c, 0, 64, 0
3, 297737, Note_on_c, 0, 89, 72
3, 297742, Note_on_c, 0, 53, 51
3, 297743, Note_on_c, 0, 60, 54
3, 297745, Note_on_c, 0, 77, 55
3, 297746, Note_on_c, 0, 56, 49
3, 297747, Note_on_c, 0, 62, 49
3, 297748, Note_on_c, 0, 84, 60
3, 297780, Control_c, 0, 64, 127
3, 297870, Note_on_c, 0, 60, 0
3, 297892, Note_on_c, 0, 89, 0
3, 297909, Note_on_c, 0, 53, 0
3, 297914, Note_on_c, 0, 84, 0
3, 297915, Note_on_c, 0, 62, 0
3, 297924, Note_on_c, 0, 77, 0
3, 297930, Note_on_c, 0, 56, 0
3, 298021, Control_c, 0, 64, 0
3, 298049, Note_on_c, 0, 62, 48
3, 298061, Note_on_c, 0, 52, 50
3, 298063, Note_on_c, 0, 57, 58
3, 298069, Note_on_c, 0, 76, 34
3, 298070, Note_on_c, 0, 88, 38
3, 298086, Note_on_c, 0, 83, 33
3, 298173, Control_c, 0, 64, 127
3, 298252, Note_on_c, 0, 52, 0
3, 298267, Note_on_c, 0, 88, 0
3, 298268, Note_on_c, 0, 76, 0
3, 298276, Note_on_c, 0, 62, 0
3, 298280, Note_on_c, 0, 83, 0
3, 298295, Note_on_c, 0, 57, 0
3, 298390, Control_c, 0, 64, 0
3, 298393, Note_on_c, 0, 76, 40
3, 298399, Note_on_c, 0, 88, 51
3, 298399, Note_on_c, 0, 62, 49
3, 298402, Note_on_c, 0, 52, 60
3, 298403, Note_on_c, 0, 57, 53
3, 298410, Note_on_c, 0, 83, 44
3, 298519, Control_c, 0, 64, 127
3, 298612, Note_on_c, 0, 88, 0
3, 298701, Note_on_c, 0, 83, 0
3, 298802, Note_on_c, 0, 76, 0
3, 298857, Note_on_c, 0, 62, 0
3, 298893, Note_on_c, 0, 57, 0
3, 298990, Note_on_c, 0, 52, 0
3, 299540, Note_on_c, 0, 48, 58
3, 299547, Note_on_c, 0, 64, 60
3, 299553, Control_c, 0, 64, 0
3, 299564, Note_on_c, 0, 60, 51
3, 299565, Note_on_c, 0, 55, 50
3, 299566, Note_on_c, 0, 57, 55
3, 299641, Control_c, 0, 64, 127
3, 299668, Note_on_c, 0, 57, 0
3, 299674, Note_on_c, 0, 60, 0
3, 299696, Note_on_c, 0, 55, 0
3, 299703, Note_on_c, 0, 64, 0
3, 299809, Note_on_c, 0, 48, 0
3, 299879, Note_on_c, 0, 67, 48
3, 299891, Note_on_c, 0, 52, 71
3, 299957, Note_on_c, 0, 67, 0
3, 299975, Note_on_c, 0, 52, 0
3, 300074, Control_c, 0, 64, 0
3, 300120, Note_on_c, 0, 55, 68
3, 300180, Note_on_c, 0, 55, 0
3, 300251, Note_on_c, 0, 72, 25
3, 300311, Note_on_c, 0, 72, 0
3, 300323, Control_c, 0, 64, 127
3, 300365, Note_on_c, 0, 60, 71
3, 300449, Note_on_c, 0, 60, 0
3, 300480, Note_on_c, 0, 76, 76
3, 300516, Control_c, 0, 64, 0
3, 300527, Note_on_c, 0, 64, 73
3, 300530, Note_on_c, 0, 67, 71
3, 300531, Note_on_c, 0, 69, 70
3, 300692, Control_c, 0, 64, 127
3, 300792, Note_on_c, 0, 67, 0
3, 300799, Note_on_c, 0, 64, 0
3, 300801, Note_on_c, 0, 69, 0
3, 300840, Note_on_c, 0, 76, 0
3, 300941, Control_c, 0, 64, 0
3, 300960, Note_on_c, 0, 64, 79
3, 300970, Note_on_c, 0, 76, 80
3, 300991, Note_on_c, 0, 69, 62
3, 301104, Note_on_c, 0, 69, 0
3, 301110, Control_c, 0, 64, 127
3, 301140, Note_on_c, 0, 64, 0
3, 301202, Note_on_c, 0, 76, 0
3, 301294, Note_on_c, 0, 60, 48
3, 301321, Note_on_c, 0, 60, 0
3, 301423, Control_c, 0, 64, 0
3, 301454, Note_on_c, 0, 76, 70
3, 301458, Note_on_c, 0, 54, 71
3, 301462, Note_on_c, 0, 68, 57
3, 301464, Note_on_c, 0, 64, 68
3, 301473, Note_on_c, 0, 60, 49
3, 301474, Note_on_c, 0, 71, 47
3, 301607, Control_c, 0, 64, 127
3, 301760, Note_on_c, 0, 76, 0
3, 301775, Note_on_c, 0, 68, 0
3, 301791, Note_on_c, 0, 54, 0
3, 301792, Note_on_c, 0, 64, 0
3, 301828, Note_on_c, 0, 60, 0
3, 301829, Note_on_c, 0, 71, 0
3, 301888, Control_c, 0, 64, 0
3, 301933, Note_on_c, 0, 74, 31
3, 301936, Note_on_c, 0, 54, 47
3, 301949, Note_on_c, 0, 71, 22
3, 301951, Note_on_c, 0, 60, 39
3, 301957, Note_on_c, 0, 64, 27
3, 301961, Note_on_c, 0, 68, 32
3, 302040, Control_c, 0, 64, 127
3, 302103, Note_on_c, 0, 68, 0
3, 302106, Note_on_c, 0, 54, 0
3, 302117, Note_on_c, 0, 64, 0
3, 302134, Note_on_c, 0, 60, 0
3, 302145, Note_on_c, 0, 74, 0
3, 302158, Note_on_c, 0, 71, 0
3, 302248, Note_on_c, 0, 74, 44
3, 302255, Note_on_c, 0, 54, 53
3, 302257, Control_c, 0, 64, 0
3, 302258, Note_on_c, 0, 64, 56
3, 302264, Note_on_c, 0, 68, 48
3, 302266, Note_on_c, 0, 71, 30
3, 302266, Note_on_c, 0, 60, 47
3, 302401, Control_c, 0, 64, 127
3, 302917, Note_on_c, 0, 60, 0
3, 302938, Note_on_c, 0, 64, 0
3, 302955, Note_on_c, 0, 68, 0
3, 302981, Note_on_c, 0, 54, 0
3, 302999, Note_on_c, 0, 71, 0
3, 303027, Note_on_c, 0, 74, 0
3, 303388, Control_c, 0, 64, 0
3, 303415, Note_on_c, 0, 60, 32
3, 303423, Note_on_c, 0, 64, 33
3, 303431, Note_on_c, 0, 84, 52
3, 303432, Note_on_c, 0, 57, 41
3, 303434, Note_on_c, 0, 53, 22
3, 303441, Note_on_c, 0, 77, 42
3, 303444, Note_on_c, 0, 72, 37
3, 303454, Note_on_c, 0, 81, 40
3, 303537, Note_on_c, 0, 72, 0
3, 303547, Note_on_c, 0, 77, 0
3, 303559, Note_on_c, 0, 84, 0
3, 303562, Note_on_c, 0, 53, 0
3, 303562, Note_on_c, 0, 64, 0
3, 303577, Note_on_c, 0, 81, 0
3, 303578, Note_on_c, 0, 57, 0
3, 303586, Note_on_c, 0, 60, 0
3, 303733, Control_c, 0, 64, 127
3, 303757, Note_on_c, 0, 74, 51
3, 303758, Note_on_c, 0, 86, 56
3, 303761, Note_on_c, 0, 60, 39
3, 303762, Note_on_c, 0, 77, 46
3, 303766, Note_on_c, 0, 53, 29
3, 303767, Note_on_c, 0, 81, 47
3, 303767, Note_on_c, 0, 64, 31
3, 303771, Note_on_c, 0, 57, 37
3, 303804, Note_on_c, 0, 64, 0
3, 303820, Note_on_c, 0, 53, 0
3, 303826, Note_on_c, 0, 86, 0
3, 303835, Note_on_c, 0, 60, 0
3, 303836, Note_on_c, 0, 74, 0
3, 303847, Control_c, 0, 64, 0
3, 303850, Note_on_c, 0, 57, 0
3, 303864, Note_on_c, 0, 81, 0
3, 303874, Note_on_c, 0, 77, 0
3, 303930, Note_on_c, 0, 84, 36
3, 303959, Note_on_c, 0, 60, 25
3, 303959, Note_on_c, 0, 57, 30
3, 303965, Note_on_c, 0, 72, 31
3, 303969, Note_on_c, 0, 53, 18
3, 303995, Note_on_c, 0, 60, 0
3, 304009, Note_on_c, 0, 84, 0
3, 304018, Note_on_c, 0, 72, 0
3, 304027, Note_on_c, 0, 53, 0
3, 304042, Note_on_c, 0, 57, 0
3, 304042, Control_c, 0, 64, 127
3, 304230, Note_on_c, 0, 59, 52
3, 304234, Control_c, 0, 64, 0
3, 304239, Note_on_c, 0, 71, 31
3, 304241, Note_on_c, 0, 64, 36
3, 304243, Note_on_c, 0, 83, 32
3, 304244, Note_on_c, 0, 76, 34
3, 304247, Note_on_c, 0, 53, 20
3, 304261, Note_on_c, 0, 57, 40
3, 304262, Note_on_c, 0, 79, 32
3, 304343, Note_on_c, 0, 64, 0
3, 304345, Note_on_c, 0, 71, 0
3, 304365, Note_on_c, 0, 59, 0
3, 304372, Note_on_c, 0, 76, 0
3, 304373, Note_on_c, 0, 57, 0
3, 304382, Note_on_c, 0, 53, 0
3, 304386, Note_on_c, 0, 79, 0
3, 304416, Note_on_c, 0, 83, 0
3, 304697, Note_on_c, 0, 86, 50
3, 304707, Note_on_c, 0, 64, 50
3, 304709, Note_on_c, 0, 59, 35
3, 304711, Note_on_c, 0, 74, 29
3, 304714, Note_on_c, 0, 79, 35
3, 304718, Note_on_c, 0, 83, 37
3, 304719, Note_on_c, 0, 57, 36
3, 304734, Note_on_c, 0, 53, 24
3, 304868, Control_c, 0, 64, 127
3, 304982, Note_on_c, 0, 57, 0
3, 304996, Note_on_c, 0, 64, 0
3, 305034, Note_on_c, 0, 59, 0
3, 305035, Note_on_c, 0, 53, 0
3, 305129, Note_on_c, 0, 74, 0
3, 305138, Note_on_c, 0, 79, 0
3, 305143, Note_on_c, 0, 86, 0
3, 305158, Note_on_c, 0, 83, 0
3, 305310, Control_c, 0, 64, 0
3, 305322, Note_on_c, 0, 84, 38
3, 305327, Note_on_c, 0, 59, 30
3, 305328, Note_on_c, 0, 62, 45
3, 305337, Note_on_c, 0, 72, 32
3, 305339, Note_on_c, 0, 52, 35
3, 305340, Note_on_c, 0, 55, 44
3, 305615, Note_on_c, 0, 72, 0
3, 305639, Control_c, 0, 64, 127
3, 305662, Note_on_c, 0, 52, 0
3, 305681, Note_on_c, 0, 55, 0
3, 305687, Note_on_c, 0, 62, 0
3, 305695, Note_on_c, 0, 59, 0
3, 305718, Note_on_c, 0, 84, 0
3, 306280, Control_c, 0, 64, 0
3, 306281, Note_on_c, 0, 61, 79
3, 306282, Note_on_c, 0, 65, 90
3, 306283, Note_on_c, 0, 55, 88
3, 306284, Note_on_c, 0, 92, 83
3, 306286, Note_on_c, 0, 84, 85
3, 306290, Note_on_c, 0, 96, 88
3, 306445, Note_on_c, 0, 92, 0
3, 306461, Note_on_c, 0, 93, 33
3, 306498, Control_c, 0, 64, 127
3, 306727, Note_on_c, 0, 96, 0
3, 306741, Note_on_c, 0, 93, 0
3, 306777, Note_on_c, 0, 84, 0
3, 306828, Note_on_c, 0, 65, 0
3, 306836, Note_on_c, 0, 55, 0
3, 306969, Note_on_c, 0, 61, 0
3, 307186, Note_on_c, 0, 53, 34
3, 307194, Note_on_c, 0, 64, 36
3, 307197, Control_c, 0, 64, 0
3, 307203, Note_on_c, 0, 84, 52
3, 307207, Note_on_c, 0, 60, 34
3, 307215, Note_on_c, 0, 57, 39
3, 307219, Note_on_c, 0, 72, 36
3, 307357, Control_c, 0, 64, 127
3, 307377, Note_on_c, 0, 72, 0
3, 307410, Note_on_c, 0, 84, 0
3, 307448, Note_on_c, 0, 64, 0
3, 307513, Note_on_c, 0, 64, 47
3, 307519, Note_on_c, 0, 86, 51
3, 307542, Note_on_c, 0, 74, 18
3, 307608, Note_on_c, 0, 74, 0
3, 307632, Note_on_c, 0, 86, 0
3, 307694, Note_on_c, 0, 84, 38
3, 307758, Note_on_c, 0, 60, 0
3, 307811, Note_on_c, 0, 64, 0
3, 307814, Note_on_c, 0, 53, 0
3, 307858, Note_on_c, 0, 57, 0
3, 307938, Note_on_c, 0, 84, 0
3, 307992, Note_on_c, 0, 64, 36
3, 308004, Note_on_c, 0, 59, 46
3, 308009, Note_on_c, 0, 53, 22
3, 308025, Note_on_c, 0, 83, 36
3, 308055, Control_c, 0, 64, 0
3, 308191, Control_c, 0, 64, 127
3, 308679, Note_on_c, 0, 64, 0
3, 308707, Note_on_c, 0, 59, 0
3, 308741, Note_on_c, 0, 53, 0
3, 308815, Note_on_c, 0, 83, 0
3, 308990, Note_on_c, 0, 86, 54
3, 309077, Note_on_c, 0, 86, 0
3, 309146, Control_c, 0, 64, 0
3, 309154, Note_on_c, 0, 84, 45
3, 309845, Note_on_c, 0, 84, 0
3, 309852, Control_c, 0, 64, 127
3, 310085, Control_c, 0, 64, 0
3, 310189, Control_c, 0, 64, 127
3, 310511, Control_c, 0, 64, 0
3, 310567, Control_c, 0, 64, 127
3, 310920, Note_on_c, 0, 96, 92
3, 311039, Control_c, 0, 64, 0
3, 311040, Note_on_c, 0, 96, 0
3, 311049, Note_on_c, 0, 92, 40
3, 311186, Note_on_c, 0, 92, 0
3, 311207, Note_on_c, 0, 93, 33
3, 311264, Control_c, 0, 64, 127
3, 311276, Note_on_c, 0, 93, 0
3, 311349, Note_on_c, 0, 64, 32
3, 311357, Note_on_c, 0, 83, 49
3, 311360, Note_on_c, 0, 95, 67
3, 311366, Note_on_c, 0, 60, 28
3, 311378, Note_on_c, 0, 57, 24
3, 311391, Note_on_c, 0, 64, 0
3, 311399, Note_on_c, 0, 60, 0
3, 311412, Note_on_c, 0, 57, 0
3, 311415, Note_on_c, 0, 83, 0
3, 311440, Note_on_c, 0, 95, 0
3, 311481, Control_c, 0, 64, 0
3, 311495, Note_on_c, 0, 53, 45
3, 311499, Note_on_c, 0, 96, 79
3, 311500, Note_on_c, 0, 64, 45
3, 311506, Note_on_c, 0, 57, 32
3, 311507, Note_on_c, 0, 60, 40
3, 311508, Note_on_c, 0, 84, 59
3, 311561, Control_c, 0, 64, 127
3, 311611, Note_on_c, 0, 53, 0
3, 311631, Note_on_c, 0, 96, 0
3, 311654, Note_on_c, 0, 64, 0
3, 311671, Note_on_c, 0, 84, 0
3, 311672, Note_on_c, 0, 57, 0
3, 311677, Note_on_c, 0, 60, 0
3, 311834, Note_on_c, 0, 53, 27
3, 311866, Note_on_c, 0, 53, 0
3, 311970, Control_c, 0, 64, 0
3, 311992, Note_on_c, 0, 93, 43
3, 311996, Note_on_c, 0, 81, 43
3, 311997, Note_on_c, 0, 64, 54
3, 312003, Note_on_c, 0, 59, 53
3, 312012, Note_on_c, 0, 53, 29
3, 312090, Control_c, 0, 64, 127
3, 312106, Note_on_c, 0, 81, 0
3, 312132, Note_on_c, 0, 93, 0
3, 312191, Note_on_c, 0, 59, 0
3, 312210, Note_on_c, 0, 64, 0
3, 312218, Note_on_c, 0, 53, 0
3, 312360, Note_on_c, 0, 64, 51
3, 312360, Note_on_c, 0, 95, 57
3, 312362, Note_on_c, 0, 53, 37
3, 312363, Note_on_c, 0, 59, 54
3, 312366, Note_on_c, 0, 83, 47
3, 312379, Control_c, 0, 64, 0
3, 312475, Control_c, 0, 64, 127
3, 312480, Note_on_c, 0, 95, 0
3, 312546, Note_on_c, 0, 83, 0
3, 312559, Note_on_c, 0, 59, 0
3, 312570, Note_on_c, 0, 64, 0
3, 312629, Note_on_c, 0, 53, 0
3, 312957, Control_c, 0, 64, 0
3, 312964, Note_on_c, 0, 62, 57
3, 312967, Note_on_c, 0, 96, 66
3, 312970, Note_on_c, 0, 84, 55
3, 312974, Note_on_c, 0, 57, 56
3, 312990, Note_on_c, 0, 52, 32
3, 312991, Note_on_c, 0, 62, 0
3, 312995, Note_on_c, 0, 96, 0
3, 313001, Note_on_c, 0, 84, 0
3, 313002, Note_on_c, 0, 57, 0
3, 313048, Note_on_c, 0, 52, 0
3, 313447, Control_c, 0, 64, 127
3, 313735, Note_on_c, 0, 24, 60
3, 313751, Control_c, 0, 64, 0
3, 313800, Note_on_c, 0, 24, 0
3, 313807, Control_c, 0, 64, 127
3, 314164, Note_on_c, 0, 58, 51
3, 314371, Note_on_c, 0, 62, 38
3, 314383, Note_on_c, 0, 64, 33
3, 314415, Note_on_c, 0, 64, 0
3, 314437, Note_on_c, 0, 62, 0
3, 314512, Note_on_c, 0, 66, 44
3, 314580, Note_on_c, 0, 66, 0
3, 314642, Note_on_c, 0, 69, 64
3, 314753, Note_on_c, 0, 69, 0
3, 314778, Note_on_c, 0, 74, 54
3, 314902, Note_on_c, 0, 74, 0
3, 314908, Note_on_c, 0, 78, 60
3, 314962, Note_on_c, 0, 78, 0
3, 315056, Note_on_c, 0, 81, 64
3, 315162, Note_on_c, 0, 81, 0
3, 315190, Note_on_c, 0, 86, 57
3, 315320, Note_on_c, 0, 86, 0
3, 315324, Note_on_c, 0, 90, 47
3, 315385, Note_on_c, 0, 90, 0
3, 315490, Note_on_c, 0, 93, 57
3, 315607, Note_on_c, 0, 58, 0
3, 315646, Note_on_c, 0, 98, 62
3, 315817, Note_on_c, 0, 102, 53
3, 315938, Note_on_c, 0, 93, 0
3, 315998, Note_on_c, 0, 98, 0
3, 316003, Note_on_c, 0, 105, 46
3, 316099, Note_on_c, 0, 105, 0
3, 316100, Note_on_c, 0, 102, 0
3, 316213, Note_on_c, 0, 108, 80
3, 316268, Note_on_c, 0, 108, 0
3, 316639, Note_on_c, 0, 24, 45
3, 316946, Note_on_c, 0, 24, 0
3, 317498, Control_c, 0, 64, 0
3, 317498, End_track
4, 0, Start_track
4, 0, MIDI_port, 1
4, 0, Title_t, ""
4, 0, Program_c, 9, 0
4, 0, Control_c, 9, 7, 100
4, 3, Note_on_c, 9, 59, 79
4, 17, Note_on_c, 9, 36, 34
4, 76, Note_on_c, 9, 36, 0
4, 118, Note_on_c, 9, 59, 0
4, 806, Note_on_c, 9, 36, 66
4, 872, Note_on_c, 9, 36, 0
4, 967, Note_on_c, 9, 59, 80
4, 1083, Note_on_c, 9, 59, 0
4, 1824, Note_on_c, 9, 59, 72
4, 1941, Note_on_c, 9, 59, 0
4, 1985, Note_on_c, 9, 59, 62
4, 2102, Note_on_c, 9, 59, 0
4, 2890, Note_on_c, 9, 59, 76
4, 3005, Note_on_c, 9, 59, 0
4, 3678, Note_on_c, 9, 59, 72
4, 3793, Note_on_c, 9, 59, 0
4, 3840, Note_on_c, 9, 59, 68
4, 3955, Note_on_c, 9, 59, 0
4, 4646, Note_on_c, 9, 36, 45
4, 4743, Note_on_c, 9, 36, 0
4, 4819, Note_on_c, 9, 59, 83
4, 4897, Note_on_c, 9, 36, 34
4, 4935, Note_on_c, 9, 59, 0
4, 5019, Note_on_c, 9, 36, 0
4, 5146, Note_on_c, 9, 36, 69
4, 5231, Note_on_c, 9, 36, 0
4, 5614, Note_on_c, 9, 59, 71
4, 5729, Note_on_c, 9, 59, 0
4, 5772, Note_on_c, 9, 59, 66
4, 5887, Note_on_c, 9, 59, 0
4, 6770, Note_on_c, 9, 59, 76
4, 6885, Note_on_c, 9, 59, 0
4, 7251, Note_on_c, 9, 59, 58
4, 7366, Note_on_c, 9, 59, 0
4, 7545, Note_on_c, 9, 36, 65
4, 7546, Note_on_c, 9, 46, 44
4, 7609, Note_on_c, 9, 36, 0
4, 7661, Note_on_c, 9, 46, 0
4, 7703, Note_on_c, 9, 36, 52
4, 7828, Note_on_c, 9, 36, 0
4, 8644, Note_on_c, 9, 59, 79
4, 8760, Note_on_c, 9, 59, 0
4, 9454, Note_on_c, 9, 59, 66
4, 9570, Note_on_c, 9, 59, 0
4, 9615, Note_on_c, 9, 59, 71
4, 9731, Note_on_c, 9, 59, 0
4, 10122, Note_on_c, 9, 46, 23
4, 10150, Note_on_c, 9, 46, 0
4, 10400, Note_on_c, 9, 59, 68
4, 10415, Note_on_c, 9, 46, 83
4, 10467, Note_on_c, 9, 46, 0
4, 10516, Note_on_c, 9, 59, 0
4, 10553, Note_on_c, 9, 59, 68
4, 10668, Note_on_c, 9, 59, 0
4, 10732, Note_on_c, 9, 46, 74
4, 10769, Note_on_c, 9, 46, 0
4, 11049, Note_on_c, 9, 46, 74
4, 11066, Note_on_c, 9, 59, 83
4, 11100, Note_on_c, 9, 46, 0
4, 11183, Note_on_c, 9, 59, 0
4, 11360, Note_on_c, 9, 36, 53
4, 11427, Note_on_c, 9, 36, 0
4, 11542, Note_on_c, 9, 36, 73
4, 11559, Note_on_c, 9, 59, 80
4, 11676, Note_on_c, 9, 59, 0
4, 11723, Note_on_c, 9, 36, 0
4, 11841, Note_on_c, 9, 36, 89
4, 11966, Note_on_c, 9, 36, 0
4, 12353, Note_on_c, 9, 59, 68
4, 12470, Note_on_c, 9, 59, 0
4, 12520, Note_on_c, 9, 59, 75
4, 12638, Note_on_c, 9, 59, 0
4, 12984, Note_on_c, 9, 59, 67
4, 13096, Note_on_c, 9, 59, 0
4, 13288, Note_on_c, 9, 40, 101
4, 13404, Note_on_c, 9, 40, 0
4, 13963, Note_on_c, 9, 46, 60
4, 13969, Note_on_c, 9, 36, 75
4, 14080, Note_on_c, 9, 46, 0
4, 14086, Note_on_c, 9, 36, 0
4, 14738, Note_on_c, 9, 36, 37
4, 14786, Note_on_c, 9, 36, 0
4, 15061, Note_on_c, 9, 53, 59
4, 15089, Note_on_c, 9, 53, 0
4, 15199, Note_on_c, 9, 53, 73
4, 15208, Note_on_c, 9, 46, 37
4, 15212, Note_on_c, 9, 59, 78
4, 15251, Note_on_c, 9, 53, 0
4, 15324, Note_on_c, 9, 46, 0
4, 15327, Note_on_c, 9, 59, 0
4, 15675, Note_on_c, 9, 36, 32
4, 15716, Note_on_c, 9, 36, 0
4, 15842, Note_on_c, 9, 36, 49
4, 16038, Note_on_c, 9, 36, 0
4, 16173, Note_on_c, 9, 36, 70
4, 16263, Note_on_c, 9, 36, 0
4, 16353, Note_on_c, 9, 59, 68
4, 16468, Note_on_c, 9, 59, 0
4, 17166, Note_on_c, 9, 59, 72
4, 17281, Note_on_c, 9, 59, 0
4, 17336, Note_on_c, 9, 59, 66
4, 17448, Note_on_c, 9, 59, 0
4, 18075, Note_on_c, 9, 59, 68
4, 18190, Note_on_c, 9, 59, 0
4, 18233, Note_on_c, 9, 59, 74
4, 18345, Note_on_c, 9, 59, 0
4, 18683, Note_on_c, 9, 59, 57
4, 18800, Note_on_c, 9, 59, 0
4, 18993, Note_on_c, 9, 59, 88
4, 19043, Note_on_c, 9, 34, 39
4, 19082, Note_on_c, 9, 34, 0
4, 19110, Note_on_c, 9, 59, 0
4, 19195, Note_on_c, 9, 36, 60
4, 19237, Note_on_c, 9, 36, 0
4, 19518, Note_on_c, 9, 36, 31
4, 19557, Note_on_c, 9, 36, 0
4, 20156, Note_on_c, 9, 59, 72
4, 20270, Note_on_c, 9, 59, 0
4, 20990, Note_on_c, 9, 59, 76
4, 21105, Note_on_c, 9, 59, 0
4, 21456, Note_on_c, 9, 59, 76
4, 21571, Note_on_c, 9, 59, 0
4, 21639, Note_on_c, 9, 59, 72
4, 21754, Note_on_c, 9, 59, 0
4, 22435, Note_on_c, 9, 59, 79
4, 22452, Note_on_c, 9, 36, 52
4, 22509, Note_on_c, 9, 36, 0
4, 22548, Note_on_c, 9, 59, 0
4, 22794, Note_on_c, 9, 34, 60
4, 22844, Note_on_c, 9, 34, 0
4, 22907, Note_on_c, 9, 59, 79
4, 22911, Note_on_c, 9, 34, 64
4, 23024, Note_on_c, 9, 59, 0
4, 23040, Note_on_c, 9, 34, 0
4, 23066, Note_on_c, 9, 57, 74
4, 23077, Note_on_c, 9, 36, 71
4, 23120, Note_on_c, 9, 57, 0
4, 23182, Note_on_c, 9, 36, 0
4, 23869, Note_on_c, 9, 59, 72
4, 23982, Note_on_c, 9, 59, 0
4, 24051, Note_on_c, 9, 59, 68
4, 24167, Note_on_c, 9, 59, 0
4, 24830, Note_on_c, 9, 59, 72
4, 24851, Note_on_c, 9, 36, 31
4, 24913, Note_on_c, 9, 36, 0
4, 24947, Note_on_c, 9, 59, 0
4, 24992, Note_on_c, 9, 59, 66
4, 25003, Note_on_c, 9, 36, 42
4, 25108, Note_on_c, 9, 59, 0
4, 25229, Note_on_c, 9, 36, 0
4, 25484, Note_on_c, 9, 59, 81
4, 25601, Note_on_c, 9, 59, 0
4, 26216, Note_on_c, 9, 59, 66
4, 26331, Note_on_c, 9, 59, 0
4, 26368, Note_on_c, 9, 59, 72
4, 26483, Note_on_c, 9, 59, 0
4, 26715, Note_on_c, 9, 36, 47
4, 26801, Note_on_c, 9, 36, 0
4, 26879, Note_on_c, 9, 36, 58
4, 26907, Note_on_c, 9, 59, 79
4, 27022, Note_on_c, 9, 59, 0
4, 27102, Note_on_c, 9, 36, 0
4, 27695, Note_on_c, 9, 59, 79
4, 27810, Note_on_c, 9, 59, 0
4, 28182, Note_on_c, 9, 40, 16
4, 28297, Note_on_c, 9, 40, 0
4, 28629, Note_on_c, 9, 40, 108
4, 28744, Note_on_c, 9, 40, 0
4, 28998, Note_on_c, 9, 40, 50
4, 29027, Note_on_c, 9, 40, 0
4, 29076, Note_on_c, 9, 36, 94
4, 29082, Note_on_c, 9, 46, 61
4, 29191, Note_on_c, 9, 36, 0
4, 29197, Note_on_c, 9, 46, 0
4, 29267, Note_on_c, 9, 40, 64
4, 29310, Note_on_c, 9, 40, 0
4, 29437, Note_on_c, 9, 40, 42
4, 29471, Note_on_c, 9, 40, 0
4, 30068, Note_on_c, 9, 40, 34
4, 30105, Note_on_c, 9, 40, 0
4, 30231, Note_on_c, 9, 40, 57
4, 30260, Note_on_c, 9, 40, 0
4, 30398, Note_on_c, 9, 36, 48
4, 30458, Note_on_c, 9, 36, 0
4, 30530, Note_on_c, 9, 46, 48
4, 30543, Note_on_c, 9, 34, 70
4, 30645, Note_on_c, 9, 46, 0
4, 30679, Note_on_c, 9, 34, 0
4, 30726, Note_on_c, 9, 57, 47
4, 30728, Note_on_c, 9, 59, 79
4, 30763, Note_on_c, 9, 36, 62
4, 30764, Note_on_c, 9, 57, 0
4, 30844, Note_on_c, 9, 59, 0
4, 30875, Note_on_c, 9, 36, 0
4, 31724, Note_on_c, 9, 59, 61
4, 31839, Note_on_c, 9, 59, 0
4, 32192, Note_on_c, 9, 40, 40
4, 32226, Note_on_c, 9, 40, 0
4, 32475, Note_on_c, 9, 59, 65
4, 32486, Note_on_c, 9, 40, 60
4, 32513, Note_on_c, 9, 40, 0
4, 32590, Note_on_c, 9, 59, 0
4, 32648, Note_on_c, 9, 59, 65
4, 32764, Note_on_c, 9, 59, 0
4, 33619, Note_on_c, 9, 59, 79
4, 33735, Note_on_c, 9, 59, 0
4, 34410, Note_on_c, 9, 36, 46
4, 34416, Note_on_c, 9, 59, 57
4, 34492, Note_on_c, 9, 36, 0
4, 34531, Note_on_c, 9, 59, 0
4, 34581, Note_on_c, 9, 59, 66
4, 34696, Note_on_c, 9, 59, 0
4, 35333, Note_on_c, 9, 59, 68
4, 35404, Note_on_c, 9, 36, 34
4, 35445, Note_on_c, 9, 36, 0
4, 35448, Note_on_c, 9, 59, 0
4, 35496, Note_on_c, 9, 59, 75
4, 35613, Note_on_c, 9, 59, 0
4, 35969, Note_on_c, 9, 59, 55
4, 36085, Note_on_c, 9, 59, 0
4, 36278, Note_on_c, 9, 36, 53
4, 36289, Note_on_c, 9, 59, 84
4, 36321, Note_on_c, 9, 36, 0
4, 36404, Note_on_c, 9, 59, 0
4, 37003, Note_on_c, 9, 59, 68
4, 37118, Note_on_c, 9, 59, 0
4, 37747, Note_on_c, 9, 59, 79
4, 37759, Note_on_c, 9, 36, 47
4, 37796, Note_on_c, 9, 36, 0
4, 37862, Note_on_c, 9, 59, 0
4, 38116, Note_on_c, 9, 34, 57
4, 38186, Note_on_c, 9, 34, 0
4, 38256, Note_on_c, 9, 59, 66
4, 38284, Note_on_c, 9, 36, 32
4, 38319, Note_on_c, 9, 36, 0
4, 38373, Note_on_c, 9, 59, 0
4, 38417, Note_on_c, 9, 36, 44
4, 38436, Note_on_c, 9, 59, 65
4, 38500, Note_on_c, 9, 36, 0
4, 38553, Note_on_c, 9, 59, 0
4, 38722, Note_on_c, 9, 36, 45
4, 38806, Note_on_c, 9, 36, 0
4, 38870, Note_on_c, 9, 36, 64
4, 39081, Note_on_c, 9, 36, 0
4, 39214, Note_on_c, 9, 59, 66
4, 39329, Note_on_c, 9, 59, 0
4, 39385, Note_on_c, 9, 59, 62
4, 39502, Note_on_c, 9, 59, 0
4, 39849, Note_on_c, 9, 59, 65
4, 39964, Note_on_c, 9, 59, 0
4, 40175, Note_on_c, 9, 59, 81
4, 40287, Note_on_c, 9, 59, 0
4, 40835, Note_on_c, 9, 59, 68
4, 40951, Note_on_c, 9, 59, 0
4, 41109, Note_on_c, 9, 59, 79
4, 41221, Note_on_c, 9, 59, 0
4, 41579, Note_on_c, 9, 40, 51
4, 41611, Note_on_c, 9, 40, 0
4, 41760, Note_on_c, 9, 59, 61
4, 41803, Note_on_c, 9, 40, 57
4, 41852, Note_on_c, 9, 40, 0
4, 41875, Note_on_c, 9, 59, 0
4, 41925, Note_on_c, 9, 40, 66
4, 41953, Note_on_c, 9, 40, 0
4, 42067, Note_on_c, 9, 59, 93
4, 42070, Note_on_c, 9, 36, 41
4, 42120, Note_on_c, 9, 36, 0
4, 42183, Note_on_c, 9, 59, 0
4, 42295, Note_on_c, 9, 36, 40
4, 42306, Note_on_c, 9, 36, 48
4, 42336, Note_on_c, 9, 36, 0
4, 42399, Note_on_c, 9, 36, 0
4, 42524, Note_on_c, 9, 36, 80
4, 42682, Note_on_c, 9, 36, 0
4, 42734, Note_on_c, 9, 59, 83
4, 42754, Note_on_c, 9, 36, 59
4, 42849, Note_on_c, 9, 59, 0
4, 42925, Note_on_c, 9, 36, 0
4, 43171, Note_on_c, 9, 59, 63
4, 43287, Note_on_c, 9, 59, 0
4, 43537, Note_on_c, 9, 59, 79
4, 43653, Note_on_c, 9, 59, 0
4, 44003, Note_on_c, 9, 59, 87
4, 44118, Note_on_c, 9, 59, 0
4, 44709, Note_on_c, 9, 59, 68
4, 44824, Note_on_c, 9, 59, 0
4, 45016, Note_on_c, 9, 59, 87
4, 45132, Note_on_c, 9, 59, 0
4, 45473, Note_on_c, 9, 59, 81
4, 45588, Note_on_c, 9, 59, 0
4, 45624, Note_on_c, 9, 59, 83
4, 45740, Note_on_c, 9, 59, 0
4, 45931, Note_on_c, 9, 36, 64
4, 45994, Note_on_c, 9, 36, 0
4, 46115, Note_on_c, 9, 36, 31
4, 46155, Note_on_c, 9, 36, 0
4, 46379, Note_on_c, 9, 59, 75
4, 46492, Note_on_c, 9, 59, 0
4, 46543, Note_on_c, 9, 59, 62
4, 46660, Note_on_c, 9, 59, 0
4, 47104, Note_on_c, 9, 59, 75
4, 47219, Note_on_c, 9, 59, 0
4, 47532, Note_on_c, 9, 59, 54
4, 47649, Note_on_c, 9, 59, 0
4, 47858, Note_on_c, 9, 59, 91
4, 47973, Note_on_c, 9, 59, 0
4, 48810, Note_on_c, 9, 59, 71
4, 48927, Note_on_c, 9, 59, 0
4, 48984, Note_on_c, 9, 59, 68
4, 49099, Note_on_c, 9, 59, 0
4, 49119, Note_on_c, 9, 46, 45
4, 49149, Note_on_c, 9, 46, 0
4, 49439, Note_on_c, 9, 46, 49
4, 49473, Note_on_c, 9, 46, 0
4, 49585, Note_on_c, 9, 46, 50
4, 49617, Note_on_c, 9, 46, 0
4, 49736, Note_on_c, 9, 36, 53
4, 49774, Note_on_c, 9, 36, 0
4, 49907, Note_on_c, 9, 46, 37
4, 49918, Note_on_c, 9, 59, 76
4, 49939, Note_on_c, 9, 46, 0
4, 50032, Note_on_c, 9, 59, 0
4, 50072, Note_on_c, 9, 46, 58
4, 50103, Note_on_c, 9, 46, 0
4, 50231, Note_on_c, 9, 36, 38
4, 50277, Note_on_c, 9, 36, 0
4, 50736, Note_on_c, 9, 59, 66
4, 50853, Note_on_c, 9, 59, 0
4, 50904, Note_on_c, 9, 59, 63
4, 51020, Note_on_c, 9, 59, 0
4, 51687, Note_on_c, 9, 36, 75
4, 51688, Note_on_c, 9, 46, 65
4, 51802, Note_on_c, 9, 36, 0
4, 51806, Note_on_c, 9, 46, 0
4, 52833, Note_on_c, 9, 59, 74
4, 52950, Note_on_c, 9, 59, 0
4, 53142, Note_on_c, 9, 59, 72
4, 53257, Note_on_c, 9, 59, 0
4, 53297, Note_on_c, 9, 59, 78
4, 53412, Note_on_c, 9, 59, 0
4, 53804, Note_on_c, 9, 59, 88
4, 53921, Note_on_c, 9, 59, 0
4, 54531, Note_on_c, 9, 59, 83
4, 54559, Note_on_c, 9, 59, 0
4, 54566, Note_on_c, 9, 59, 66
4, 54678, Note_on_c, 9, 59, 0
4, 54739, Note_on_c, 9, 59, 76
4, 54855, Note_on_c, 9, 59, 0
4, 55549, Note_on_c, 9, 59, 66
4, 55664, Note_on_c, 9, 59, 0
4, 55704, Note_on_c, 9, 59, 79
4, 55819, Note_on_c, 9, 59, 0
4, 56196, Note_on_c, 9, 53, 53
4, 56224, Note_on_c, 9, 53, 0
4, 56483, Note_on_c, 9, 53, 68
4, 56510, Note_on_c, 9, 53, 0
4, 56672, Note_on_c, 9, 59, 80
4, 56784, Note_on_c, 9, 59, 0
4, 56988, Note_on_c, 9, 36, 35
4, 57031, Note_on_c, 9, 36, 0
4, 57164, Note_on_c, 9, 59, 54
4, 57280, Note_on_c, 9, 59, 0
4, 57459, Note_on_c, 9, 59, 87
4, 57575, Note_on_c, 9, 59, 0
4, 57961, Note_on_c, 9, 36, 38
4, 57997, Note_on_c, 9, 36, 0
4, 58123, Note_on_c, 9, 59, 89
4, 58124, Note_on_c, 9, 36, 47
4, 58167, Note_on_c, 9, 36, 0
4, 58238, Note_on_c, 9, 59, 0
4, 58430, Note_on_c, 9, 36, 63
4, 58498, Note_on_c, 9, 36, 0
4, 59082, Note_on_c, 9, 59, 74
4, 59197, Note_on_c, 9, 59, 0
4, 59383, Note_on_c, 9, 40, 107
4, 59395, Note_on_c, 9, 36, 49
4, 59427, Note_on_c, 9, 36, 0
4, 59498, Note_on_c, 9, 40, 0
4, 59551, Note_on_c, 9, 59, 91
4, 59645, Note_on_c, 9, 59, 0
4, 60077, Note_on_c, 9, 46, 75
4, 60192, Note_on_c, 9, 46, 0
4, 60811, Note_on_c, 9, 40, 26
4, 60926, Note_on_c, 9, 40, 0
4, 60962, Note_on_c, 9, 40, 119
4, 61078, Note_on_c, 9, 40, 0
4, 61440, Note_on_c, 9, 63, 0
4, 61440, Note_on_c, 9, 63, 0
4, 61440, Note_on_c, 9, 63, 0
4, 61440, Note_on_c, 9, 63, 0
4, 61440, Note_on_c, 9, 63, 0
4, 61440, Note_on_c, 9, 63, 0
4, 61440, Note_on_c, 9, 63, 0
4, 61440, Note_on_c, 9, 63, 0
4, 61440, Note_on_c, 9, 63, 0
4, 61440, Note_on_c, 9, 63, 0
4, 61440, Note_on_c, 9, 63, 0
4, 61440, Note_on_c, 9, 63, 0
4, 61440, Note_on_c, 9, 63, 0
4, 61440, Note_on_c, 9, 63, 0
4, 61440, Note_on_c, 9, 63, 0
4, 61440, Note_on_c, 9, 63, 0
4, 61440, Note_on_c, 9, 59, 58
4, 61440, Note_on_c, 9, 63, 0
4, 61440, Note_on_c, 9, 63, 0
4, 61440, Note_on_c, 9, 63, 0
4, 61440, Note_on_c, 9, 63, 0
4, 61440, Note_on_c, 9, 63, 0
4, 61440, Note_on_c, 9, 63, 0
4, 61440, Note_on_c, 9, 63, 0
4, 61440, Note_on_c, 9, 63, 0
4, 61440, Note_on_c, 9, 63, 0
4, 61440, Note_on_c, 9, 63, 0
4, 61440, Note_on_c, 9, 63, 0
4, 61440, Note_on_c, 9, 63, 0
4, 61440, Note_on_c, 9, 63, 0
4, 61440, Note_on_c, 9, 63, 0
4, 61440, Note_on_c, 9, 63, 0
4, 61440, Note_on_c, 9, 63, 0
4, 61500, Note_on_c, 9, 63, 0
4, 61500, Note_on_c, 9, 63, 0
4, 61500, Note_on_c, 9, 63, 0
4, 61500, Note_on_c, 9, 63, 0
4, 61500, Note_on_c, 9, 63, 0
4, 61500, Note_on_c, 9, 63, 0
4, 61500, Note_on_c, 9, 63, 0
4, 61500, Note_on_c, 9, 63, 0
4, 61500, Note_on_c, 9, 63, 0
4, 61500, Note_on_c, 9, 63, 0
4, 61500, Note_on_c, 9, 63, 0
4, 61500, Note_on_c, 9, 63, 0
4, 61500, Note_on_c, 9, 63, 0
4, 61500, Note_on_c, 9, 63, 0
4, 61500, Note_on_c, 9, 63, 0
4, 61500, Note_on_c, 9, 63, 0
4, 61500, Note_on_c, 9, 63, 0
4, 61500, Note_on_c, 9, 63, 0
4, 61500, Note_on_c, 9, 63, 0
4, 61500, Note_on_c, 9, 63, 0
4, 61500, Note_on_c, 9, 63, 0
4, 61500, Note_on_c, 9, 63, 0
4, 61500, Note_on_c, 9, 63, 0
4, 61500, Note_on_c, 9, 63, 0
4, 61500, Note_on_c, 9, 63, 0
4, 61500, Note_on_c, 9, 63, 0
4, 61500, Note_on_c, 9, 63, 0
4, 61500, Note_on_c, 9, 63, 0
4, 61500, Note_on_c, 9, 63, 0
4, 61500, Note_on_c, 9, 63, 0
4, 61500, Note_on_c, 9, 63, 0
4, 61500, Note_on_c, 9, 63, 0
4, 61555, Note_on_c, 9, 59, 0
4, 61878, Note_on_c, 9, 63, 43
4, 61896, Note_on_c, 9, 62, 33
4, 61920, Note_on_c, 9, 59, 54
4, 61970, Note_on_c, 9, 62, 0
4, 62020, Note_on_c, 9, 63, 0
4, 62035, Note_on_c, 9, 59, 0
4, 62218, Note_on_c, 9, 63, 42
4, 62228, Note_on_c, 9, 62, 24
4, 62268, Note_on_c, 9, 62, 0
4, 62304, Note_on_c, 9, 63, 0
4, 62400, Note_on_c, 9, 59, 57
4, 62515, Note_on_c, 9, 59, 0
4, 62873, Note_on_c, 9, 64, 64
4, 62880, Note_on_c, 9, 59, 66
4, 62910, Note_on_c, 9, 64, 0
4, 62995, Note_on_c, 9, 59, 0
4, 63181, Note_on_c, 9, 64, 125
4, 63327, Note_on_c, 9, 64, 0
4, 63360, Note_on_c, 9, 59, 62
4, 63475, Note_on_c, 9, 59, 0
4, 63840, Note_on_c, 9, 59, 62
4, 63865, Note_on_c, 9, 62, 33
4, 63893, Note_on_c, 9, 63, 27
4, 63911, Note_on_c, 9, 62, 0
4, 63951, Note_on_c, 9, 63, 0
4, 63955, Note_on_c, 9, 59, 0
4, 64173, Note_on_c, 9, 63, 77
4, 64177, Note_on_c, 9, 62, 77
4, 64232, Note_on_c, 9, 62, 0
4, 64271, Note_on_c, 9, 63, 0
4, 64320, Note_on_c, 9, 59, 63
4, 64435, Note_on_c, 9, 59, 0
4, 64800, Note_on_c, 9, 59, 62
4, 64842, Note_on_c, 9, 64, 48
4, 64917, Note_on_c, 9, 59, 0
4, 65030, Note_on_c, 9, 64, 0
4, 65140, Note_on_c, 9, 64, 80
4, 65242, Note_on_c, 9, 64, 0
4, 65280, Note_on_c, 9, 59, 62
4, 65397, Note_on_c, 9, 59, 0
4, 65760, Note_on_c, 9, 59, 65
4, 65812, Note_on_c, 9, 62, 26
4, 65812, Note_on_c, 9, 63, 40
4, 65851, Note_on_c, 9, 62, 0
4, 65873, Note_on_c, 9, 59, 0
4, 65885, Note_on_c, 9, 63, 0
4, 66111, Note_on_c, 9, 62, 30
4, 66116, Note_on_c, 9, 63, 38
4, 66153, Note_on_c, 9, 62, 0
4, 66168, Note_on_c, 9, 63, 0
4, 66240, Note_on_c, 9, 59, 65
4, 66355, Note_on_c, 9, 59, 0
4, 66427, Note_on_c, 9, 64, 50
4, 66483, Note_on_c, 9, 64, 0
4, 66579, Note_on_c, 9, 64, 55
4, 66669, Note_on_c, 9, 64, 0
4, 66720, Note_on_c, 9, 59, 61
4, 66742, Note_on_c, 9, 64, 81
4, 66835, Note_on_c, 9, 59, 0
4, 66857, Note_on_c, 9, 64, 0
4, 67044, Note_on_c, 9, 64, 115
4, 67200, Note_on_c, 9, 59, 62
4, 67205, Note_on_c, 9, 64, 0
4, 67315, Note_on_c, 9, 59, 0
4, 67680, Note_on_c, 9, 59, 65
4, 67686, Note_on_c, 9, 63, 35
4, 67788, Note_on_c, 9, 63, 0
4, 67795, Note_on_c, 9, 59, 0
4, 68003, Note_on_c, 9, 63, 29
4, 68018, Note_on_c, 9, 62, 25
4, 68054, Note_on_c, 9, 62, 0
4, 68070, Note_on_c, 9, 63, 0
4, 68160, Note_on_c, 9, 59, 65
4, 68276, Note_on_c, 9, 59, 0
4, 68505, Note_on_c, 9, 64, 42
4, 68546, Note_on_c, 9, 64, 0
4, 68640, Note_on_c, 9, 59, 61
4, 68676, Note_on_c, 9, 64, 68
4, 68755, Note_on_c, 9, 59, 0
4, 68779, Note_on_c, 9, 64, 0
4, 68996, Note_on_c, 9, 64, 105
4, 69061, Note_on_c, 9, 64, 0
4, 69120, Note_on_c, 9, 59, 65
4, 69232, Note_on_c, 9, 59, 0
4, 69600, Note_on_c, 9, 59, 61
4, 69712, Note_on_c, 9, 59, 0
4, 69937, Note_on_c, 9, 62, 108
4, 70006, Note_on_c, 9, 62, 0
4, 70080, Note_on_c, 9, 59, 63
4, 70121, Note_on_c, 9, 62, 76
4, 70195, Note_on_c, 9, 59, 0
4, 70240, Note_on_c, 9, 62, 0
4, 70368, Note_on_c, 9, 64, 37
4, 70410, Note_on_c, 9, 64, 0
4, 70560, Note_on_c, 9, 59, 72
4, 70581, Note_on_c, 9, 64, 34
4, 70621, Note_on_c, 9, 64, 0
4, 70676, Note_on_c, 9, 59, 0
4, 70897, Note_on_c, 9, 64, 101
4, 70994, Note_on_c, 9, 64, 0
4, 71040, Note_on_c, 9, 59, 61
4, 71155, Note_on_c, 9, 59, 0
4, 71520, Note_on_c, 9, 59, 61
4, 71636, Note_on_c, 9, 59, 0
4, 71862, Note_on_c, 9, 63, 40
4, 71872, Note_on_c, 9, 62, 31
4, 71902, Note_on_c, 9, 62, 0
4, 71945, Note_on_c, 9, 63, 0
4, 72000, Note_on_c, 9, 59, 68
4, 72116, Note_on_c, 9, 59, 0
4, 72480, Note_on_c, 9, 59, 65
4, 72521, Note_on_c, 9, 64, 38
4, 72596, Note_on_c, 9, 59, 0
4, 72627, Note_on_c, 9, 64, 0
4, 72818, Note_on_c, 9, 64, 118
4, 72881, Note_on_c, 9, 64, 0
4, 72960, Note_on_c, 9, 59, 68
4, 73075, Note_on_c, 9, 59, 0
4, 73440, Note_on_c, 9, 59, 58
4, 73468, Note_on_c, 9, 63, 63
4, 73470, Note_on_c, 9, 62, 29
4, 73500, Note_on_c, 9, 62, 0
4, 73538, Note_on_c, 9, 63, 0
4, 73555, Note_on_c, 9, 59, 0
4, 73789, Note_on_c, 9, 63, 86
4, 73798, Note_on_c, 9, 62, 74
4, 73826, Note_on_c, 9, 62, 0
4, 73904, Note_on_c, 9, 63, 0
4, 73920, Note_on_c, 9, 59, 68
4, 74037, Note_on_c, 9, 59, 0
4, 74400, Note_on_c, 9, 59, 68
4, 74450, Note_on_c, 9, 64, 68
4, 74516, Note_on_c, 9, 59, 0
4, 74610, Note_on_c, 9, 64, 0
4, 74744, Note_on_c, 9, 64, 108
4, 74848, Note_on_c, 9, 64, 0
4, 74880, Note_on_c, 9, 59, 68
4, 74996, Note_on_c, 9, 59, 0
4, 75360, Note_on_c, 9, 59, 62
4, 75367, Note_on_c, 9, 62, 24
4, 75380, Note_on_c, 9, 63, 23
4, 75438, Note_on_c, 9, 62, 0
4, 75477, Note_on_c, 9, 59, 0
4, 75486, Note_on_c, 9, 63, 0
4, 75726, Note_on_c, 9, 63, 33
4, 75735, Note_on_c, 9, 62, 26
4, 75771, Note_on_c, 9, 62, 0
4, 75781, Note_on_c, 9, 63, 0
4, 75840, Note_on_c, 9, 59, 61
4, 75957, Note_on_c, 9, 59, 0
4, 76320, Note_on_c, 9, 59, 68
4, 76345, Note_on_c, 9, 64, 123
4, 76364, Note_on_c, 9, 62, 50
4, 76392, Note_on_c, 9, 62, 0
4, 76434, Note_on_c, 9, 59, 0
4, 76489, Note_on_c, 9, 64, 0
4, 76655, Note_on_c, 9, 64, 125
4, 76661, Note_on_c, 9, 59, 101
4, 76667, Note_on_c, 9, 40, 99
4, 76778, Note_on_c, 9, 59, 0
4, 76784, Note_on_c, 9, 40, 0
4, 76816, Note_on_c, 9, 64, 0
4, 77280, Note_on_c, 9, 59, 63
4, 77330, Note_on_c, 9, 63, 33
4, 77335, Note_on_c, 9, 62, 29
4, 77397, Note_on_c, 9, 59, 0
4, 77426, Note_on_c, 9, 62, 0
4, 77432, Note_on_c, 9, 63, 0
4, 77632, Note_on_c, 9, 63, 40
4, 77644, Note_on_c, 9, 62, 39
4, 77704, Note_on_c, 9, 62, 0
4, 77718, Note_on_c, 9, 63, 0
4, 77760, Note_on_c, 9, 59, 66
4, 77877, Note_on_c, 9, 59, 0
4, 78240, Note_on_c, 9, 44, 35
4, 78240, Note_on_c, 9, 59, 75
4, 78242, Note_on_c, 9, 62, 24
4, 78254, Note_on_c, 9, 64, 40
4, 78277, Note_on_c, 9, 44, 0
4, 78327, Note_on_c, 9, 62, 0
4, 78357, Note_on_c, 9, 59, 0
4, 78378, Note_on_c, 9, 64, 0
4, 78550, Note_on_c, 9, 62, 81
4, 78564, Note_on_c, 9, 64, 85
4, 78632, Note_on_c, 9, 62, 0
4, 78711, Note_on_c, 9, 64, 0
4, 78720, Note_on_c, 9, 59, 66
4, 78837, Note_on_c, 9, 59, 0
4, 79186, Note_on_c, 9, 62, 31
4, 79200, Note_on_c, 9, 59, 72
4, 79200, Note_on_c, 9, 44, 35
4, 79218, Note_on_c, 9, 62, 0
4, 79239, Note_on_c, 9, 44, 0
4, 79316, Note_on_c, 9, 59, 0
4, 79497, Note_on_c, 9, 63, 47
4, 79618, Note_on_c, 9, 63, 0
4, 79680, Note_on_c, 9, 59, 68
4, 79797, Note_on_c, 9, 59, 0
4, 80160, Note_on_c, 9, 44, 35
4, 80160, Note_on_c, 9, 59, 76
4, 80184, Note_on_c, 9, 64, 40
4, 80195, Note_on_c, 9, 44, 0
4, 80223, Note_on_c, 9, 64, 0
4, 80277, Note_on_c, 9, 59, 0
4, 80469, Note_on_c, 9, 64, 127
4, 80630, Note_on_c, 9, 64, 0
4, 80640, Note_on_c, 9, 59, 68
4, 80754, Note_on_c, 9, 59, 0
4, 81120, Note_on_c, 9, 44, 35
4, 81120, Note_on_c, 9, 59, 76
4, 81158, Note_on_c, 9, 44, 0
4, 81235, Note_on_c, 9, 59, 0
4, 81304, Note_on_c, 9, 63, 60
4, 81361, Note_on_c, 9, 63, 0
4, 81447, Note_on_c, 9, 63, 77
4, 81544, Note_on_c, 9, 63, 0
4, 81585, Note_on_c, 9, 63, 82
4, 81600, Note_on_c, 9, 59, 74
4, 81635, Note_on_c, 9, 63, 0
4, 81715, Note_on_c, 9, 59, 0
4, 82066, Note_on_c, 9, 64, 36
4, 82080, Note_on_c, 9, 44, 35
4, 82080, Note_on_c, 9, 59, 75
4, 82120, Note_on_c, 9, 44, 0
4, 82164, Note_on_c, 9, 64, 0
4, 82192, Note_on_c, 9, 59, 0
4, 82369, Note_on_c, 9, 64, 105
4, 82487, Note_on_c, 9, 64, 0
4, 82560, Note_on_c, 9, 59, 75
4, 82675, Note_on_c, 9, 59, 0
4, 83040, Note_on_c, 9, 44, 35
4, 83040, Note_on_c, 9, 59, 72
4, 83077, Note_on_c, 9, 44, 0
4, 83155, Note_on_c, 9, 59, 0
4, 83382, Note_on_c, 9, 63, 70
4, 83430, Note_on_c, 9, 63, 0
4, 83520, Note_on_c, 9, 59, 72
4, 83632, Note_on_c, 9, 59, 0
4, 84000, Note_on_c, 9, 44, 35
4, 84000, Note_on_c, 9, 59, 71
4, 84037, Note_on_c, 9, 44, 0
4, 84115, Note_on_c, 9, 59, 0
4, 84168, Note_on_c, 9, 64, 64
4, 84209, Note_on_c, 9, 64, 0
4, 84298, Note_on_c, 9, 64, 80
4, 84426, Note_on_c, 9, 64, 0
4, 84480, Note_on_c, 9, 59, 65
4, 84595, Note_on_c, 9, 59, 0
4, 84942, Note_on_c, 9, 63, 49
4, 84960, Note_on_c, 9, 44, 35
4, 84960, Note_on_c, 9, 59, 71
4, 84988, Note_on_c, 9, 63, 0
4, 84996, Note_on_c, 9, 44, 0
4, 85075, Note_on_c, 9, 59, 0
4, 85259, Note_on_c, 9, 63, 77
4, 85375, Note_on_c, 9, 63, 0
4, 85440, Note_on_c, 9, 59, 68
4, 85555, Note_on_c, 9, 59, 0
4, 85920, Note_on_c, 9, 59, 79
4, 85920, Note_on_c, 9, 44, 35
4, 85940, Note_on_c, 9, 64, 64
4, 85957, Note_on_c, 9, 44, 0
4, 85972, Note_on_c, 9, 64, 0
4, 86035, Note_on_c, 9, 59, 0
4, 86246, Note_on_c, 9, 64, 127
4, 86314, Note_on_c, 9, 64, 0
4, 86400, Note_on_c, 9, 59, 75
4, 86516, Note_on_c, 9, 59, 0
4, 86880, Note_on_c, 9, 59, 76
4, 86880, Note_on_c, 9, 44, 35
4, 86888, Note_on_c, 9, 63, 54
4, 86917, Note_on_c, 9, 44, 0
4, 86997, Note_on_c, 9, 59, 0
4, 87063, Note_on_c, 9, 63, 0
4, 87211, Note_on_c, 9, 63, 58
4, 87282, Note_on_c, 9, 63, 0
4, 87360, Note_on_c, 9, 59, 76
4, 87476, Note_on_c, 9, 59, 0
4, 87840, Note_on_c, 9, 59, 78
4, 87840, Note_on_c, 9, 44, 35
4, 87880, Note_on_c, 9, 44, 0
4, 87957, Note_on_c, 9, 59, 0
4, 87978, Note_on_c, 9, 64, 72
4, 88011, Note_on_c, 9, 64, 0
4, 88136, Note_on_c, 9, 64, 80
4, 88221, Note_on_c, 9, 64, 0
4, 88320, Note_on_c, 9, 59, 76
4, 88434, Note_on_c, 9, 59, 0
4, 88790, Note_on_c, 9, 63, 52
4, 88800, Note_on_c, 9, 59, 79
4, 88800, Note_on_c, 9, 44, 35
4, 88839, Note_on_c, 9, 44, 0
4, 88917, Note_on_c, 9, 59, 0
4, 88979, Note_on_c, 9, 63, 0
4, 89110, Note_on_c, 9, 63, 69
4, 89180, Note_on_c, 9, 63, 0
4, 89280, Note_on_c, 9, 59, 75
4, 89397, Note_on_c, 9, 59, 0
4, 89759, Note_on_c, 9, 64, 55
4, 89760, Note_on_c, 9, 59, 80
4, 89760, Note_on_c, 9, 44, 35
4, 89795, Note_on_c, 9, 44, 0
4, 89877, Note_on_c, 9, 59, 0
4, 89950, Note_on_c, 9, 64, 0
4, 90084, Note_on_c, 9, 64, 60
4, 90142, Note_on_c, 9, 64, 0
4, 90240, Note_on_c, 9, 59, 72
4, 90358, Note_on_c, 9, 59, 0
4, 90554, Note_on_c, 9, 63, 37
4, 90592, Note_on_c, 9, 63, 0
4, 90720, Note_on_c, 9, 59, 81
4, 90720, Note_on_c, 9, 44, 35
4, 90744, Note_on_c, 9, 63, 74
4, 90757, Note_on_c, 9, 44, 0
4, 90835, Note_on_c, 9, 59, 0
4, 90863, Note_on_c, 9, 63, 0
4, 91031, Note_on_c, 9, 63, 98
4, 91160, Note_on_c, 9, 63, 0
4, 91200, Note_on_c, 9, 59, 97
4, 91216, Note_on_c, 9, 40, 101
4, 91317, Note_on_c, 9, 59, 0
4, 91330, Note_on_c, 9, 40, 0
4, 91680, Note_on_c, 9, 59, 79
4, 91702, Note_on_c, 9, 64, 42
4, 91796, Note_on_c, 9, 59, 0
4, 91825, Note_on_c, 9, 64, 0
4, 92000, Note_on_c, 9, 36, 81
4, 92015, Note_on_c, 9, 46, 71
4, 92018, Note_on_c, 9, 64, 123
4, 92115, Note_on_c, 9, 36, 0
4, 92127, Note_on_c, 9, 46, 0
4, 92163, Note_on_c, 9, 64, 0
4, 92620, Note_on_c, 9, 44, 35
4, 92642, Note_on_c, 9, 63, 35
4, 92660, Note_on_c, 9, 44, 0
4, 92660, Note_on_c, 9, 51, 52
4, 92673, Note_on_c, 9, 63, 0
4, 92772, Note_on_c, 9, 51, 0
4, 92955, Note_on_c, 9, 63, 88
4, 93035, Note_on_c, 9, 63, 0
4, 93150, Note_on_c, 9, 51, 58
4, 93265, Note_on_c, 9, 51, 0
4, 93606, Note_on_c, 9, 44, 35
4, 93609, Note_on_c, 9, 64, 72
4, 93624, Note_on_c, 9, 51, 61
4, 93642, Note_on_c, 9, 44, 0
4, 93691, Note_on_c, 9, 64, 0
4, 93740, Note_on_c, 9, 51, 0
4, 94108, Note_on_c, 9, 51, 50
4, 94224, Note_on_c, 9, 51, 0
4, 94425, Note_on_c, 9, 51, 55
4, 94528, Note_on_c, 9, 44, 35
4, 94540, Note_on_c, 9, 51, 0
4, 94556, Note_on_c, 9, 63, 61
4, 94561, Note_on_c, 9, 51, 63
4, 94565, Note_on_c, 9, 44, 0
4, 94677, Note_on_c, 9, 51, 0
4, 94724, Note_on_c, 9, 63, 0
4, 95067, Note_on_c, 9, 51, 65
4, 95182, Note_on_c, 9, 51, 0
4, 95520, Note_on_c, 9, 44, 35
4, 95536, Note_on_c, 9, 51, 65
4, 95557, Note_on_c, 9, 44, 0
4, 95651, Note_on_c, 9, 51, 0
4, 95721, Note_on_c, 9, 64, 70
4, 95761, Note_on_c, 9, 64, 0
4, 95857, Note_on_c, 9, 64, 81
4, 95877, Note_on_c, 9, 51, 54
4, 95960, Note_on_c, 9, 64, 0
4, 95992, Note_on_c, 9, 51, 0
4, 96016, Note_on_c, 9, 51, 65
4, 96131, Note_on_c, 9, 51, 0
4, 96481, Note_on_c, 9, 44, 35
4, 96499, Note_on_c, 9, 51, 68
4, 96516, Note_on_c, 9, 63, 53
4, 96523, Note_on_c, 9, 44, 0
4, 96612, Note_on_c, 9, 51, 0
4, 96691, Note_on_c, 9, 63, 0
4, 96796, Note_on_c, 9, 63, 69
4, 96850, Note_on_c, 9, 51, 58
4, 96876, Note_on_c, 9, 63, 0
4, 96965, Note_on_c, 9, 51, 0
4, 96999, Note_on_c, 9, 51, 57
4, 97114, Note_on_c, 9, 51, 0
4, 97443, Note_on_c, 9, 44, 35
4, 97456, Note_on_c, 9, 64, 53
4, 97464, Note_on_c, 9, 51, 74
4, 97480, Note_on_c, 9, 44, 0
4, 97561, Note_on_c, 9, 64, 0
4, 97580, Note_on_c, 9, 51, 0
4, 97746, Note_on_c, 9, 64, 103
4, 97812, Note_on_c, 9, 51, 67
4, 97854, Note_on_c, 9, 64, 0
4, 97927, Note_on_c, 9, 51, 0
4, 97958, Note_on_c, 9, 51, 65
4, 98073, Note_on_c, 9, 51, 0
4, 98392, Note_on_c, 9, 44, 35
4, 98414, Note_on_c, 9, 51, 78
4, 98428, Note_on_c, 9, 63, 56
4, 98429, Note_on_c, 9, 44, 0
4, 98460, Note_on_c, 9, 63, 0
4, 98529, Note_on_c, 9, 51, 0
4, 98725, Note_on_c, 9, 63, 98
4, 98761, Note_on_c, 9, 51, 61
4, 98803, Note_on_c, 9, 63, 0
4, 98873, Note_on_c, 9, 51, 0
4, 98910, Note_on_c, 9, 51, 63
4, 99025, Note_on_c, 9, 51, 0
4, 99338, Note_on_c, 9, 44, 35
4, 99364, Note_on_c, 9, 64, 115
4, 99376, Note_on_c, 9, 51, 80
4, 99379, Note_on_c, 9, 44, 0
4, 99491, Note_on_c, 9, 51, 0
4, 99569, Note_on_c, 9, 64, 0
4, 99701, Note_on_c, 9, 51, 61
4, 99816, Note_on_c, 9, 51, 0
4, 99844, Note_on_c, 9, 51, 70
4, 99959, Note_on_c, 9, 51, 0
4, 100312, Note_on_c, 9, 63, 65
4, 100321, Note_on_c, 9, 44, 35
4, 100325, Note_on_c, 9, 51, 81
4, 100362, Note_on_c, 9, 44, 0
4, 100381, Note_on_c, 9, 63, 0
4, 100441, Note_on_c, 9, 51, 0
4, 100648, Note_on_c, 9, 63, 99
4, 100659, Note_on_c, 9, 51, 65
4, 100671, Note_on_c, 9, 62, 75
4, 100705, Note_on_c, 9, 62, 0
4, 100715, Note_on_c, 9, 63, 0
4, 100775, Note_on_c, 9, 51, 0
4, 100805, Note_on_c, 9, 51, 65
4, 100825, Note_on_c, 9, 63, 81
4, 100920, Note_on_c, 9, 63, 0
4, 100922, Note_on_c, 9, 51, 0
4, 101285, Note_on_c, 9, 64, 57
4, 101296, Note_on_c, 9, 51, 78
4, 101301, Note_on_c, 9, 44, 35
4, 101330, Note_on_c, 9, 64, 0
4, 101338, Note_on_c, 9, 44, 0
4, 101412, Note_on_c, 9, 51, 0
4, 101594, Note_on_c, 9, 64, 96
4, 101646, Note_on_c, 9, 51, 67
4, 101667, Note_on_c, 9, 64, 0
4, 101761, Note_on_c, 9, 51, 0
4, 101785, Note_on_c, 9, 51, 67
4, 101900, Note_on_c, 9, 51, 0
4, 102254, Note_on_c, 9, 44, 35
4, 102266, Note_on_c, 9, 51, 81
4, 102294, Note_on_c, 9, 44, 0
4, 102380, Note_on_c, 9, 51, 0
4, 102588, Note_on_c, 9, 63, 58
4, 102592, Note_on_c, 9, 62, 51
4, 102607, Note_on_c, 9, 51, 65
4, 102641, Note_on_c, 9, 62, 0
4, 102697, Note_on_c, 9, 63, 0
4, 102722, Note_on_c, 9, 51, 0
4, 102753, Note_on_c, 9, 51, 61
4, 102870, Note_on_c, 9, 51, 0
4, 102900, Note_on_c, 9, 62, 57
4, 102905, Note_on_c, 9, 63, 74
4, 102936, Note_on_c, 9, 62, 0
4, 103042, Note_on_c, 9, 63, 0
4, 103200, Note_on_c, 9, 44, 35
4, 103220, Note_on_c, 9, 51, 79
4, 103227, Note_on_c, 9, 62, 66
4, 103233, Note_on_c, 9, 63, 74
4, 103237, Note_on_c, 9, 44, 0
4, 103270, Note_on_c, 9, 62, 0
4, 103335, Note_on_c, 9, 51, 0
4, 103377, Note_on_c, 9, 63, 0
4, 103518, Note_on_c, 9, 64, 84
4, 103557, Note_on_c, 9, 51, 58
4, 103638, Note_on_c, 9, 64, 0
4, 103673, Note_on_c, 9, 51, 0
4, 103712, Note_on_c, 9, 51, 61
4, 103828, Note_on_c, 9, 51, 0
4, 104151, Note_on_c, 9, 44, 35
4, 104171, Note_on_c, 9, 51, 81
4, 104189, Note_on_c, 9, 44, 0
4, 104288, Note_on_c, 9, 51, 0
4, 104489, Note_on_c, 9, 63, 71
4, 104515, Note_on_c, 9, 51, 68
4, 104576, Note_on_c, 9, 63, 0
4, 104629, Note_on_c, 9, 51, 0
4, 104667, Note_on_c, 9, 51, 55
4, 104672, Note_on_c, 9, 63, 57
4, 104784, Note_on_c, 9, 51, 0
4, 104863, Note_on_c, 9, 63, 0
4, 105098, Note_on_c, 9, 64, 74
4, 105100, Note_on_c, 9, 44, 35
4, 105125, Note_on_c, 9, 51, 81
4, 105140, Note_on_c, 9, 44, 0
4, 105240, Note_on_c, 9, 51, 0
4, 105291, Note_on_c, 9, 64, 0
4, 105415, Note_on_c, 9, 64, 80
4, 105450, Note_on_c, 9, 51, 63
4, 105487, Note_on_c, 9, 64, 0
4, 105566, Note_on_c, 9, 51, 0
4, 105596, Note_on_c, 9, 51, 58
4, 105712, Note_on_c, 9, 51, 0
4, 106071, Note_on_c, 9, 44, 35
4, 106077, Note_on_c, 9, 51, 79
4, 106095, Note_on_c, 9, 63, 70
4, 106108, Note_on_c, 9, 44, 0
4, 106192, Note_on_c, 9, 63, 0
4, 106192, Note_on_c, 9, 51, 0
4, 106417, Note_on_c, 9, 63, 97
4, 106418, Note_on_c, 9, 51, 66
4, 106530, Note_on_c, 9, 63, 0
4, 106533, Note_on_c, 9, 51, 0
4, 106564, Note_on_c, 9, 51, 59
4, 106679, Note_on_c, 9, 51, 0
4, 107038, Note_on_c, 9, 44, 35
4, 107045, Note_on_c, 9, 51, 78
4, 107059, Note_on_c, 9, 64, 71
4, 107079, Note_on_c, 9, 44, 0
4, 107160, Note_on_c, 9, 51, 0
4, 107242, Note_on_c, 9, 64, 0
4, 107372, Note_on_c, 9, 64, 78
4, 107374, Note_on_c, 9, 51, 68
4, 107455, Note_on_c, 9, 64, 0
4, 107489, Note_on_c, 9, 51, 0
4, 107528, Note_on_c, 9, 51, 61
4, 107644, Note_on_c, 9, 51, 0
4, 108000, Note_on_c, 9, 51, 78
4, 108003, Note_on_c, 9, 44, 35
4, 108042, Note_on_c, 9, 62, 36
4, 108043, Note_on_c, 9, 44, 0
4, 108077, Note_on_c, 9, 62, 0
4, 108115, Note_on_c, 9, 51, 0
4, 108329, Note_on_c, 9, 62, 118
4, 108332, Note_on_c, 9, 51, 58
4, 108402, Note_on_c, 9, 62, 0
4, 108447, Note_on_c, 9, 51, 0
4, 108481, Note_on_c, 9, 51, 61
4, 108596, Note_on_c, 9, 51, 0
4, 108961, Note_on_c, 9, 51, 78
4, 108968, Note_on_c, 9, 64, 33
4, 108968, Note_on_c, 9, 44, 35
4, 109008, Note_on_c, 9, 44, 0
4, 109077, Note_on_c, 9, 51, 0
4, 109179, Note_on_c, 9, 64, 0
4, 109281, Note_on_c, 9, 64, 108
4, 109306, Note_on_c, 9, 51, 70
4, 109391, Note_on_c, 9, 64, 0
4, 109421, Note_on_c, 9, 51, 0
4, 109455, Note_on_c, 9, 51, 63
4, 109570, Note_on_c, 9, 51, 0
4, 109911, Note_on_c, 9, 62, 22
4, 109914, Note_on_c, 9, 44, 35
4, 109926, Note_on_c, 9, 63, 33
4, 109929, Note_on_c, 9, 51, 80
4, 109951, Note_on_c, 9, 44, 0
4, 109967, Note_on_c, 9, 62, 0
4, 110008, Note_on_c, 9, 63, 0
4, 110044, Note_on_c, 9, 51, 0
4, 110234, Note_on_c, 9, 63, 94
4, 110238, Note_on_c, 9, 62, 88
4, 110282, Note_on_c, 9, 51, 65
4, 110284, Note_on_c, 9, 62, 0
4, 110398, Note_on_c, 9, 51, 0
4, 110438, Note_on_c, 9, 63, 0
4, 110440, Note_on_c, 9, 51, 59
4, 110556, Note_on_c, 9, 51, 0
4, 110878, Note_on_c, 9, 64, 43
4, 110891, Note_on_c, 9, 44, 35
4, 110906, Note_on_c, 9, 51, 81
4, 110931, Note_on_c, 9, 44, 0
4, 111022, Note_on_c, 9, 51, 0
4, 111065, Note_on_c, 9, 64, 0
4, 111199, Note_on_c, 9, 64, 115
4, 111256, Note_on_c, 9, 51, 67
4, 111291, Note_on_c, 9, 64, 0
4, 111372, Note_on_c, 9, 51, 0
4, 111408, Note_on_c, 9, 51, 61
4, 111523, Note_on_c, 9, 51, 0
4, 111852, Note_on_c, 9, 63, 56
4, 111867, Note_on_c, 9, 62, 46
4, 111883, Note_on_c, 9, 44, 35
4, 111889, Note_on_c, 9, 51, 83
4, 111895, Note_on_c, 9, 62, 0
4, 111923, Note_on_c, 9, 63, 0
4, 111923, Note_on_c, 9, 44, 0
4, 112005, Note_on_c, 9, 51, 0
4, 112236, Note_on_c, 9, 51, 68
4, 112352, Note_on_c, 9, 51, 0
4, 112376, Note_on_c, 9, 51, 61
4, 112491, Note_on_c, 9, 51, 0
4, 112670, Note_on_c, 9, 64, 20
4, 112741, Note_on_c, 9, 64, 0
4, 112823, Note_on_c, 9, 64, 50
4, 112835, Note_on_c, 9, 44, 35
4, 112857, Note_on_c, 9, 51, 85
4, 112872, Note_on_c, 9, 44, 0
4, 112907, Note_on_c, 9, 64, 0
4, 112972, Note_on_c, 9, 51, 0
4, 113146, Note_on_c, 9, 64, 125
4, 113192, Note_on_c, 9, 51, 65
4, 113299, Note_on_c, 9, 64, 0
4, 113304, Note_on_c, 9, 51, 0
4, 113338, Note_on_c, 9, 51, 61
4, 113453, Note_on_c, 9, 51, 0
4, 113762, Note_on_c, 9, 63, 36
4, 113774, Note_on_c, 9, 62, 32
4, 113794, Note_on_c, 9, 44, 35
4, 113805, Note_on_c, 9, 62, 0
4, 113818, Note_on_c, 9, 51, 87
4, 113830, Note_on_c, 9, 63, 0
4, 113831, Note_on_c, 9, 44, 0
4, 113934, Note_on_c, 9, 51, 0
4, 114092, Note_on_c, 9, 62, 44
4, 114094, Note_on_c, 9, 63, 47
4, 114126, Note_on_c, 9, 62, 0
4, 114147, Note_on_c, 9, 51, 65
4, 114163, Note_on_c, 9, 63, 0
4, 114263, Note_on_c, 9, 51, 0
4, 114302, Note_on_c, 9, 51, 57
4, 114417, Note_on_c, 9, 51, 0
4, 114752, Note_on_c, 9, 44, 35
4, 114780, Note_on_c, 9, 51, 78
4, 114792, Note_on_c, 9, 44, 0
4, 114885, Note_on_c, 9, 64, 73
4, 114895, Note_on_c, 9, 51, 0
4, 114944, Note_on_c, 9, 64, 0
4, 115034, Note_on_c, 9, 64, 88
4, 115096, Note_on_c, 9, 40, 107
4, 115105, Note_on_c, 9, 51, 93
4, 115111, Note_on_c, 9, 64, 0
4, 115208, Note_on_c, 9, 40, 0
4, 115221, Note_on_c, 9, 51, 0
4, 115689, Note_on_c, 9, 63, 38
4, 115690, Note_on_c, 9, 62, 42
4, 115704, Note_on_c, 9, 44, 35
4, 115729, Note_on_c, 9, 51, 79
4, 115742, Note_on_c, 9, 44, 0
4, 115800, Note_on_c, 9, 62, 0
4, 115810, Note_on_c, 9, 63, 0
4, 115841, Note_on_c, 9, 51, 0
4, 115996, Note_on_c, 9, 63, 52
4, 116049, Note_on_c, 9, 51, 61
4, 116066, Note_on_c, 9, 63, 0
4, 116164, Note_on_c, 9, 51, 0
4, 116204, Note_on_c, 9, 51, 58
4, 116313, Note_on_c, 9, 64, 29
4, 116319, Note_on_c, 9, 51, 0
4, 116416, Note_on_c, 9, 64, 0
4, 116496, Note_on_c, 9, 64, 40
4, 116568, Note_on_c, 9, 64, 0
4, 116663, Note_on_c, 9, 64, 57
4, 116682, Note_on_c, 9, 44, 35
4, 116684, Note_on_c, 9, 51, 79
4, 116698, Note_on_c, 9, 64, 0
4, 116718, Note_on_c, 9, 44, 0
4, 116801, Note_on_c, 9, 51, 0
4, 116819, Note_on_c, 9, 64, 68
4, 116847, Note_on_c, 9, 64, 0
4, 116975, Note_on_c, 9, 64, 94
4, 117048, Note_on_c, 9, 64, 0
4, 117162, Note_on_c, 9, 51, 68
4, 117279, Note_on_c, 9, 51, 0
4, 117491, Note_on_c, 9, 51, 75
4, 117595, Note_on_c, 9, 62, 40
4, 117598, Note_on_c, 9, 63, 36
4, 117605, Note_on_c, 9, 51, 0
4, 117605, Note_on_c, 9, 44, 35
4, 117631, Note_on_c, 9, 51, 70
4, 117643, Note_on_c, 9, 44, 0
4, 117666, Note_on_c, 9, 62, 0
4, 117722, Note_on_c, 9, 63, 0
4, 117747, Note_on_c, 9, 51, 0
4, 117898, Note_on_c, 9, 63, 60
4, 117913, Note_on_c, 9, 62, 47
4, 117947, Note_on_c, 9, 62, 0
4, 117977, Note_on_c, 9, 63, 0
4, 118151, Note_on_c, 9, 51, 83
4, 118266, Note_on_c, 9, 51, 0
4, 118560, Note_on_c, 9, 44, 35
4, 118583, Note_on_c, 9, 64, 40
4, 118588, Note_on_c, 9, 51, 75
4, 118599, Note_on_c, 9, 44, 0
4, 118634, Note_on_c, 9, 64, 0
4, 118703, Note_on_c, 9, 51, 0
4, 118881, Note_on_c, 9, 64, 113
4, 118904, Note_on_c, 9, 36, 65
4, 118906, Note_on_c, 9, 68, 48
4, 118912, Note_on_c, 9, 66, 34
4, 118927, Note_on_c, 9, 51, 91
4, 118934, Note_on_c, 9, 68, 0
4, 118940, Note_on_c, 9, 66, 0
4, 118956, Note_on_c, 9, 64, 0
4, 119019, Note_on_c, 9, 36, 0
4, 119044, Note_on_c, 9, 51, 0
4, 119552, Note_on_c, 9, 44, 35
4, 119555, Note_on_c, 9, 51, 74
4, 119587, Note_on_c, 9, 44, 0
4, 119667, Note_on_c, 9, 51, 0
4, 119907, Note_on_c, 9, 51, 66
4, 120021, Note_on_c, 9, 51, 0
4, 120071, Note_on_c, 9, 51, 61
4, 120188, Note_on_c, 9, 51, 0
4, 120526, Note_on_c, 9, 44, 35
4, 120534, Note_on_c, 9, 51, 74
4, 120561, Note_on_c, 9, 44, 0
4, 120650, Note_on_c, 9, 51, 0
4, 121004, Note_on_c, 9, 40, 101
4, 121119, Note_on_c, 9, 40, 0
4, 121325, Note_on_c, 9, 36, 84
4, 121325, Note_on_c, 9, 51, 92
4, 121437, Note_on_c, 9, 36, 0
4, 121441, Note_on_c, 9, 51, 0
4, 122880, Note_on_c, 9, 63, 0
4, 122880, Note_on_c, 9, 63, 0
4, 122880, Note_on_c, 9, 63, 0
4, 122880, Note_on_c, 9, 63, 0
4, 122880, Note_on_c, 9, 63, 0
4, 122880, Note_on_c, 9, 63, 0
4, 122880, Note_on_c, 9, 63, 0
4, 122880, Note_on_c, 9, 63, 0
4, 122880, Note_on_c, 9, 63, 0
4, 122880, Note_on_c, 9, 63, 0
4, 122880, Note_on_c, 9, 63, 0
4, 122880, Note_on_c, 9, 63, 0
4, 122880, Note_on_c, 9, 63, 0
4, 122880, Note_on_c, 9, 63, 0
4, 122880, Note_on_c, 9, 63, 0
4, 122880, Note_on_c, 9, 63, 0
4, 122880, Note_on_c, 9, 63, 0
4, 122880, Note_on_c, 9, 63, 0
4, 122880, Note_on_c, 9, 63, 0
4, 122880, Note_on_c, 9, 63, 0
4, 122880, Note_on_c, 9, 63, 0
4, 122880, Note_on_c, 9, 63, 0
4, 122880, Note_on_c, 9, 63, 0
4, 122880, Note_on_c, 9, 63, 0
4, 122880, Note_on_c, 9, 63, 0
4, 122880, Note_on_c, 9, 63, 0
4, 122880, Note_on_c, 9, 63, 0
4, 122880, Note_on_c, 9, 63, 0
4, 122880, Note_on_c, 9, 63, 0
4, 122880, Note_on_c, 9, 63, 0
4, 122880, Note_on_c, 9, 63, 0
4, 122880, Note_on_c, 9, 63, 0
4, 122918, Note_on_c, 9, 59, 72
4, 122940, Note_on_c, 9, 63, 0
4, 122940, Note_on_c, 9, 63, 0
4, 122940, Note_on_c, 9, 63, 0
4, 122940, Note_on_c, 9, 63, 0
4, 122940, Note_on_c, 9, 63, 0
4, 122940, Note_on_c, 9, 63, 0
4, 122940, Note_on_c, 9, 63, 0
4, 122940, Note_on_c, 9, 63, 0
4, 122940, Note_on_c, 9, 63, 0
4, 122940, Note_on_c, 9, 63, 0
4, 122940, Note_on_c, 9, 63, 0
4, 122940, Note_on_c, 9, 63, 0
4, 122940, Note_on_c, 9, 63, 0
4, 122940, Note_on_c, 9, 63, 0
4, 122940, Note_on_c, 9, 63, 0
4, 122940, Note_on_c, 9, 63, 0
4, 122940, Note_on_c, 9, 63, 0
4, 122940, Note_on_c, 9, 63, 0
4, 122940, Note_on_c, 9, 63, 0
4, 122940, Note_on_c, 9, 63, 0
4, 122940, Note_on_c, 9, 63, 0
4, 122940, Note_on_c, 9, 63, 0
4, 122940, Note_on_c, 9, 63, 0
4, 122940, Note_on_c, 9, 63, 0
4, 122940, Note_on_c, 9, 63, 0
4, 122940, Note_on_c, 9, 63, 0
4, 122940, Note_on_c, 9, 63, 0
4, 122940, Note_on_c, 9, 63, 0
4, 122940, Note_on_c, 9, 63, 0
4, 122940, Note_on_c, 9, 63, 0
4, 122940, Note_on_c, 9, 63, 0
4, 122940, Note_on_c, 9, 63, 0
4, 123033, Note_on_c, 9, 59, 0
4, 123318, Note_on_c, 9, 63, 43
4, 123336, Note_on_c, 9, 62, 33
4, 123383, Note_on_c, 9, 44, 35
4, 123408, Note_on_c, 9, 59, 66
4, 123410, Note_on_c, 9, 62, 0
4, 123423, Note_on_c, 9, 44, 0
4, 123460, Note_on_c, 9, 63, 0
4, 123523, Note_on_c, 9, 59, 0
4, 123658, Note_on_c, 9, 63, 42
4, 123668, Note_on_c, 9, 62, 24
4, 123708, Note_on_c, 9, 62, 0
4, 123744, Note_on_c, 9, 63, 0
4, 123888, Note_on_c, 9, 59, 65
4, 124001, Note_on_c, 9, 59, 0
4, 124313, Note_on_c, 9, 64, 64
4, 124336, Note_on_c, 9, 44, 35
4, 124350, Note_on_c, 9, 64, 0
4, 124360, Note_on_c, 9, 59, 68
4, 124375, Note_on_c, 9, 44, 0
4, 124475, Note_on_c, 9, 59, 0
4, 124621, Note_on_c, 9, 64, 125
4, 124767, Note_on_c, 9, 64, 0
4, 124844, Note_on_c, 9, 59, 71
4, 124959, Note_on_c, 9, 59, 0
4, 125305, Note_on_c, 9, 62, 33
4, 125306, Note_on_c, 9, 44, 35
4, 125326, Note_on_c, 9, 59, 76
4, 125333, Note_on_c, 9, 63, 27
4, 125347, Note_on_c, 9, 44, 0
4, 125351, Note_on_c, 9, 62, 0
4, 125391, Note_on_c, 9, 63, 0
4, 125440, Note_on_c, 9, 59, 0
4, 125613, Note_on_c, 9, 63, 77
4, 125617, Note_on_c, 9, 62, 77
4, 125672, Note_on_c, 9, 62, 0
4, 125711, Note_on_c, 9, 63, 0
4, 125793, Note_on_c, 9, 59, 68
4, 125908, Note_on_c, 9, 59, 0
4, 126240, Note_on_c, 9, 44, 35
4, 126249, Note_on_c, 9, 37, 81
4, 126252, Note_on_c, 9, 59, 84
4, 126280, Note_on_c, 9, 44, 0
4, 126282, Note_on_c, 9, 64, 48
4, 126364, Note_on_c, 9, 37, 0
4, 126368, Note_on_c, 9, 59, 0
4, 126470, Note_on_c, 9, 64, 0
4, 126580, Note_on_c, 9, 64, 80
4, 126593, Note_on_c, 9, 59, 68
4, 126682, Note_on_c, 9, 64, 0
4, 126709, Note_on_c, 9, 59, 0
4, 126755, Note_on_c, 9, 59, 78
4, 126870, Note_on_c, 9, 59, 0
4, 127226, Note_on_c, 9, 44, 35
4, 127235, Note_on_c, 9, 59, 79
4, 127252, Note_on_c, 9, 62, 26
4, 127252, Note_on_c, 9, 63, 40
4, 127266, Note_on_c, 9, 44, 0
4, 127291, Note_on_c, 9, 62, 0
4, 127325, Note_on_c, 9, 63, 0
4, 127351, Note_on_c, 9, 59, 0
4, 127551, Note_on_c, 9, 62, 30
4, 127556, Note_on_c, 9, 63, 38
4, 127593, Note_on_c, 9, 62, 0
4, 127608, Note_on_c, 9, 63, 0
4, 127713, Note_on_c, 9, 59, 75
4, 127825, Note_on_c, 9, 59, 0
4, 127867, Note_on_c, 9, 64, 50
4, 127923, Note_on_c, 9, 64, 0
4, 128019, Note_on_c, 9, 64, 55
4, 128109, Note_on_c, 9, 64, 0
4, 128166, Note_on_c, 9, 44, 35
4, 128181, Note_on_c, 9, 59, 79
4, 128182, Note_on_c, 9, 64, 81
4, 128203, Note_on_c, 9, 44, 0
4, 128297, Note_on_c, 9, 64, 0
4, 128298, Note_on_c, 9, 59, 0
4, 128484, Note_on_c, 9, 64, 115
4, 128488, Note_on_c, 9, 59, 68
4, 128606, Note_on_c, 9, 59, 0
4, 128645, Note_on_c, 9, 64, 0
4, 128653, Note_on_c, 9, 59, 66
4, 128770, Note_on_c, 9, 59, 0
4, 129126, Note_on_c, 9, 63, 35
4, 129128, Note_on_c, 9, 59, 84
4, 129131, Note_on_c, 9, 44, 35
4, 129168, Note_on_c, 9, 44, 0
4, 129228, Note_on_c, 9, 63, 0
4, 129244, Note_on_c, 9, 59, 0
4, 129443, Note_on_c, 9, 63, 29
4, 129458, Note_on_c, 9, 62, 25
4, 129494, Note_on_c, 9, 62, 0
4, 129510, Note_on_c, 9, 63, 0
4, 129601, Note_on_c, 9, 59, 68
4, 129716, Note_on_c, 9, 59, 0
4, 129945, Note_on_c, 9, 64, 42
4, 129986, Note_on_c, 9, 64, 0
4, 130066, Note_on_c, 9, 37, 80
4, 130069, Note_on_c, 9, 59, 85
4, 130072, Note_on_c, 9, 44, 35
4, 130111, Note_on_c, 9, 44, 0
4, 130116, Note_on_c, 9, 64, 68
4, 130181, Note_on_c, 9, 37, 0
4, 130184, Note_on_c, 9, 59, 0
4, 130219, Note_on_c, 9, 64, 0
4, 130415, Note_on_c, 9, 59, 75
4, 130436, Note_on_c, 9, 64, 105
4, 130501, Note_on_c, 9, 64, 0
4, 130531, Note_on_c, 9, 59, 0
4, 130565, Note_on_c, 9, 59, 72
4, 130680, Note_on_c, 9, 59, 0
4, 131031, Note_on_c, 9, 44, 35
4, 131043, Note_on_c, 9, 59, 79
4, 131069, Note_on_c, 9, 44, 0
4, 131159, Note_on_c, 9, 59, 0
4, 131363, Note_on_c, 9, 59, 66
4, 131377, Note_on_c, 9, 62, 108
4, 131446, Note_on_c, 9, 62, 0
4, 131478, Note_on_c, 9, 59, 0
4, 131514, Note_on_c, 9, 59, 68
4, 131561, Note_on_c, 9, 62, 76
4, 131630, Note_on_c, 9, 59, 0
4, 131680, Note_on_c, 9, 62, 0
4, 131808, Note_on_c, 9, 64, 37
4, 131850, Note_on_c, 9, 64, 0
4, 132001, Note_on_c, 9, 44, 35
4, 132008, Note_on_c, 9, 59, 83
4, 132021, Note_on_c, 9, 64, 34
4, 132037, Note_on_c, 9, 44, 0
4, 132061, Note_on_c, 9, 64, 0
4, 132123, Note_on_c, 9, 59, 0
4, 132337, Note_on_c, 9, 64, 101
4, 132434, Note_on_c, 9, 64, 0
4, 132497, Note_on_c, 9, 59, 75
4, 132610, Note_on_c, 9, 59, 0
4, 132835, Note_on_c, 9, 59, 68
4, 132951, Note_on_c, 9, 59, 0
4, 132972, Note_on_c, 9, 44, 35
4, 132979, Note_on_c, 9, 59, 75
4, 133011, Note_on_c, 9, 44, 0
4, 133094, Note_on_c, 9, 59, 0
4, 133302, Note_on_c, 9, 63, 40
4, 133312, Note_on_c, 9, 62, 31
4, 133342, Note_on_c, 9, 62, 0
4, 133385, Note_on_c, 9, 63, 0
4, 133478, Note_on_c, 9, 59, 68
4, 133593, Note_on_c, 9, 59, 0
4, 133912, Note_on_c, 9, 44, 35
4, 133925, Note_on_c, 9, 37, 65
4, 133929, Note_on_c, 9, 59, 84
4, 133954, Note_on_c, 9, 44, 0
4, 133961, Note_on_c, 9, 64, 38
4, 134040, Note_on_c, 9, 37, 0
4, 134043, Note_on_c, 9, 59, 0
4, 134067, Note_on_c, 9, 64, 0
4, 134258, Note_on_c, 9, 64, 118
4, 134278, Note_on_c, 9, 59, 68
4, 134321, Note_on_c, 9, 64, 0
4, 134393, Note_on_c, 9, 59, 0
4, 134427, Note_on_c, 9, 59, 68
4, 134542, Note_on_c, 9, 59, 0
4, 134901, Note_on_c, 9, 44, 35
4, 134908, Note_on_c, 9, 63, 63
4, 134910, Note_on_c, 9, 62, 29
4, 134914, Note_on_c, 9, 59, 81
4, 134940, Note_on_c, 9, 62, 0
4, 134942, Note_on_c, 9, 44, 0
4, 134978, Note_on_c, 9, 63, 0
4, 135029, Note_on_c, 9, 59, 0
4, 135218, Note_on_c, 9, 59, 71
4, 135229, Note_on_c, 9, 63, 86
4, 135238, Note_on_c, 9, 62, 74
4, 135266, Note_on_c, 9, 62, 0
4, 135330, Note_on_c, 9, 59, 0
4, 135344, Note_on_c, 9, 63, 0
4, 135373, Note_on_c, 9, 59, 72
4, 135488, Note_on_c, 9, 59, 0
4, 135863, Note_on_c, 9, 59, 87
4, 135869, Note_on_c, 9, 44, 35
4, 135890, Note_on_c, 9, 64, 68
4, 135906, Note_on_c, 9, 44, 0
4, 135978, Note_on_c, 9, 59, 0
4, 136050, Note_on_c, 9, 64, 0
4, 136184, Note_on_c, 9, 64, 108
4, 136288, Note_on_c, 9, 64, 0
4, 136356, Note_on_c, 9, 59, 83
4, 136471, Note_on_c, 9, 59, 0
4, 136807, Note_on_c, 9, 62, 24
4, 136820, Note_on_c, 9, 63, 23
4, 136840, Note_on_c, 9, 59, 83
4, 136849, Note_on_c, 9, 44, 35
4, 136878, Note_on_c, 9, 62, 0
4, 136888, Note_on_c, 9, 44, 0
4, 136926, Note_on_c, 9, 63, 0
4, 136955, Note_on_c, 9, 59, 0
4, 137166, Note_on_c, 9, 63, 33
4, 137175, Note_on_c, 9, 62, 26
4, 137211, Note_on_c, 9, 62, 0
4, 137221, Note_on_c, 9, 63, 0
4, 137312, Note_on_c, 9, 59, 87
4, 137424, Note_on_c, 9, 59, 0
4, 137761, Note_on_c, 9, 46, 47
4, 137765, Note_on_c, 9, 46, 0
4, 137768, Note_on_c, 9, 44, 35
4, 137771, Note_on_c, 9, 45, 57
4, 137785, Note_on_c, 9, 64, 123
4, 137804, Note_on_c, 9, 62, 50
4, 137806, Note_on_c, 9, 44, 0
4, 137832, Note_on_c, 9, 62, 0
4, 137886, Note_on_c, 9, 45, 0
4, 137929, Note_on_c, 9, 64, 0
4, 138087, Note_on_c, 9, 45, 81
4, 138095, Note_on_c, 9, 64, 125
4, 138096, Note_on_c, 9, 46, 70
4, 138202, Note_on_c, 9, 45, 0
4, 138209, Note_on_c, 9, 46, 0
4, 138256, Note_on_c, 9, 64, 0
4, 138744, Note_on_c, 9, 44, 35
4, 138757, Note_on_c, 9, 59, 75
4, 138770, Note_on_c, 9, 63, 33
4, 138775, Note_on_c, 9, 62, 29
4, 138785, Note_on_c, 9, 44, 0
4, 138866, Note_on_c, 9, 62, 0
4, 138872, Note_on_c, 9, 63, 0
4, 138872, Note_on_c, 9, 59, 0
4, 139072, Note_on_c, 9, 63, 40
4, 139084, Note_on_c, 9, 62, 39
4, 139144, Note_on_c, 9, 62, 0
4, 139158, Note_on_c, 9, 63, 0
4, 139235, Note_on_c, 9, 59, 79
4, 139350, Note_on_c, 9, 59, 0
4, 139682, Note_on_c, 9, 62, 24
4, 139691, Note_on_c, 9, 44, 35
4, 139694, Note_on_c, 9, 64, 40
4, 139706, Note_on_c, 9, 59, 81
4, 139728, Note_on_c, 9, 44, 0
4, 139767, Note_on_c, 9, 62, 0
4, 139818, Note_on_c, 9, 64, 0
4, 139822, Note_on_c, 9, 59, 0
4, 139990, Note_on_c, 9, 62, 81
4, 140004, Note_on_c, 9, 64, 85
4, 140035, Note_on_c, 9, 59, 71
4, 140072, Note_on_c, 9, 62, 0
4, 140150, Note_on_c, 9, 59, 0
4, 140151, Note_on_c, 9, 64, 0
4, 140181, Note_on_c, 9, 59, 68
4, 140296, Note_on_c, 9, 59, 0
4, 140626, Note_on_c, 9, 62, 31
4, 140658, Note_on_c, 9, 62, 0
4, 140664, Note_on_c, 9, 59, 89
4, 140674, Note_on_c, 9, 44, 35
4, 140711, Note_on_c, 9, 44, 0
4, 140780, Note_on_c, 9, 59, 0
4, 140937, Note_on_c, 9, 63, 47
4, 141058, Note_on_c, 9, 63, 0
4, 141139, Note_on_c, 9, 59, 75
4, 141256, Note_on_c, 9, 59, 0
4, 141611, Note_on_c, 9, 37, 94
4, 141620, Note_on_c, 9, 59, 91
4, 141623, Note_on_c, 9, 44, 35
4, 141624, Note_on_c, 9, 64, 40
4, 141663, Note_on_c, 9, 64, 0
4, 141663, Note_on_c, 9, 44, 0
4, 141728, Note_on_c, 9, 37, 0
4, 141736, Note_on_c, 9, 59, 0
4, 141909, Note_on_c, 9, 64, 127
4, 141964, Note_on_c, 9, 59, 66
4, 142070, Note_on_c, 9, 64, 0
4, 142080, Note_on_c, 9, 59, 0
4, 142113, Note_on_c, 9, 59, 68
4, 142228, Note_on_c, 9, 59, 0
4, 142581, Note_on_c, 9, 44, 35
4, 142594, Note_on_c, 9, 59, 79
4, 142622, Note_on_c, 9, 44, 0
4, 142707, Note_on_c, 9, 59, 0
4, 142744, Note_on_c, 9, 63, 60
4, 142801, Note_on_c, 9, 63, 0
4, 142887, Note_on_c, 9, 63, 77
4, 142913, Note_on_c, 9, 59, 68
4, 142984, Note_on_c, 9, 63, 0
4, 143025, Note_on_c, 9, 63, 82
4, 143030, Note_on_c, 9, 59, 0
4, 143059, Note_on_c, 9, 59, 68
4, 143075, Note_on_c, 9, 63, 0
4, 143176, Note_on_c, 9, 59, 0
4, 143506, Note_on_c, 9, 64, 36
4, 143520, Note_on_c, 9, 44, 35
4, 143546, Note_on_c, 9, 59, 85
4, 143555, Note_on_c, 9, 44, 0
4, 143604, Note_on_c, 9, 64, 0
4, 143663, Note_on_c, 9, 59, 0
4, 143809, Note_on_c, 9, 64, 105
4, 143875, Note_on_c, 9, 59, 71
4, 143927, Note_on_c, 9, 64, 0
4, 143992, Note_on_c, 9, 59, 0
4, 144033, Note_on_c, 9, 59, 68
4, 144147, Note_on_c, 9, 59, 0
4, 144481, Note_on_c, 9, 59, 81
4, 144485, Note_on_c, 9, 44, 35
4, 144523, Note_on_c, 9, 44, 0
4, 144597, Note_on_c, 9, 59, 0
4, 144804, Note_on_c, 9, 59, 68
4, 144822, Note_on_c, 9, 63, 70
4, 144870, Note_on_c, 9, 63, 0
4, 144919, Note_on_c, 9, 59, 0
4, 144960, Note_on_c, 9, 59, 75
4, 145075, Note_on_c, 9, 59, 0
4, 145431, Note_on_c, 9, 44, 35
4, 145443, Note_on_c, 9, 37, 84
4, 145443, Note_on_c, 9, 59, 91
4, 145468, Note_on_c, 9, 44, 0
4, 145555, Note_on_c, 9, 59, 0
4, 145559, Note_on_c, 9, 37, 0
4, 145608, Note_on_c, 9, 64, 64
4, 145649, Note_on_c, 9, 64, 0
4, 145738, Note_on_c, 9, 64, 80
4, 145798, Note_on_c, 9, 59, 67
4, 145866, Note_on_c, 9, 64, 0
4, 145914, Note_on_c, 9, 59, 0
4, 145948, Note_on_c, 9, 59, 63
4, 146064, Note_on_c, 9, 59, 0
4, 146382, Note_on_c, 9, 63, 49
4, 146420, Note_on_c, 9, 44, 35
4, 146428, Note_on_c, 9, 63, 0
4, 146429, Note_on_c, 9, 59, 79
4, 146455, Note_on_c, 9, 44, 0
4, 146542, Note_on_c, 9, 59, 0
4, 146699, Note_on_c, 9, 63, 77
4, 146758, Note_on_c, 9, 59, 65
4, 146815, Note_on_c, 9, 63, 0
4, 146873, Note_on_c, 9, 59, 0
4, 146916, Note_on_c, 9, 59, 62
4, 147031, Note_on_c, 9, 59, 0
4, 147357, Note_on_c, 9, 44, 35
4, 147379, Note_on_c, 9, 59, 88
4, 147380, Note_on_c, 9, 64, 64
4, 147394, Note_on_c, 9, 44, 0
4, 147412, Note_on_c, 9, 64, 0
4, 147494, Note_on_c, 9, 59, 0
4, 147686, Note_on_c, 9, 64, 127
4, 147692, Note_on_c, 9, 59, 71
4, 147754, Note_on_c, 9, 64, 0
4, 147807, Note_on_c, 9, 59, 0
4, 147847, Note_on_c, 9, 59, 65
4, 147962, Note_on_c, 9, 59, 0
4, 148328, Note_on_c, 9, 63, 54
4, 148331, Note_on_c, 9, 59, 80
4, 148337, Note_on_c, 9, 44, 35
4, 148374, Note_on_c, 9, 44, 0
4, 148446, Note_on_c, 9, 59, 0
4, 148503, Note_on_c, 9, 63, 0
4, 148651, Note_on_c, 9, 63, 58
4, 148654, Note_on_c, 9, 59, 68
4, 148722, Note_on_c, 9, 63, 0
4, 148769, Note_on_c, 9, 59, 0
4, 148800, Note_on_c, 9, 59, 65
4, 148915, Note_on_c, 9, 59, 0
4, 149265, Note_on_c, 9, 44, 35
4, 149274, Note_on_c, 9, 37, 77
4, 149277, Note_on_c, 9, 59, 87
4, 149304, Note_on_c, 9, 44, 0
4, 149389, Note_on_c, 9, 37, 0
4, 149392, Note_on_c, 9, 59, 0
4, 149418, Note_on_c, 9, 64, 72
4, 149451, Note_on_c, 9, 64, 0
4, 149576, Note_on_c, 9, 64, 80
4, 149606, Note_on_c, 9, 59, 68
4, 149661, Note_on_c, 9, 64, 0
4, 149718, Note_on_c, 9, 59, 0
4, 149764, Note_on_c, 9, 59, 71
4, 149879, Note_on_c, 9, 59, 0
4, 150230, Note_on_c, 9, 63, 52
4, 150238, Note_on_c, 9, 59, 91
4, 150241, Note_on_c, 9, 44, 35
4, 150282, Note_on_c, 9, 44, 0
4, 150353, Note_on_c, 9, 59, 0
4, 150419, Note_on_c, 9, 63, 0
4, 150550, Note_on_c, 9, 63, 69
4, 150620, Note_on_c, 9, 63, 0
4, 150713, Note_on_c, 9, 59, 54
4, 150828, Note_on_c, 9, 59, 0
4, 151191, Note_on_c, 9, 59, 84
4, 151199, Note_on_c, 9, 64, 55
4, 151203, Note_on_c, 9, 44, 35
4, 151243, Note_on_c, 9, 44, 0
4, 151303, Note_on_c, 9, 59, 0
4, 151390, Note_on_c, 9, 64, 0
4, 151498, Note_on_c, 9, 59, 71
4, 151524, Note_on_c, 9, 64, 60
4, 151582, Note_on_c, 9, 64, 0
4, 151615, Note_on_c, 9, 59, 0
4, 151659, Note_on_c, 9, 59, 66
4, 151776, Note_on_c, 9, 59, 0
4, 151994, Note_on_c, 9, 63, 37
4, 152032, Note_on_c, 9, 63, 0
4, 152119, Note_on_c, 9, 59, 84
4, 152137, Note_on_c, 9, 44, 35
4, 152174, Note_on_c, 9, 44, 0
4, 152184, Note_on_c, 9, 63, 74
4, 152235, Note_on_c, 9, 59, 0
4, 152303, Note_on_c, 9, 63, 0
4, 152460, Note_on_c, 9, 59, 65
4, 152471, Note_on_c, 9, 63, 98
4, 152576, Note_on_c, 9, 59, 0
4, 152600, Note_on_c, 9, 63, 0
4, 152615, Note_on_c, 9, 59, 71
4, 152732, Note_on_c, 9, 59, 0
4, 152952, Note_on_c, 9, 40, 67
4, 153070, Note_on_c, 9, 40, 0
4, 153111, Note_on_c, 9, 59, 58
4, 153123, Note_on_c, 9, 36, 40
4, 153142, Note_on_c, 9, 64, 42
4, 153224, Note_on_c, 9, 59, 0
4, 153240, Note_on_c, 9, 36, 0
4, 153265, Note_on_c, 9, 64, 0
4, 153408, Note_on_c, 9, 36, 102
4, 153421, Note_on_c, 9, 46, 70
4, 153458, Note_on_c, 9, 64, 123
4, 153523, Note_on_c, 9, 36, 0
4, 153538, Note_on_c, 9, 46, 0
4, 153603, Note_on_c, 9, 64, 0
4, 154080, Note_on_c, 9, 44, 35
4, 154080, Note_on_c, 9, 51, 49
4, 154082, Note_on_c, 9, 63, 35
4, 154113, Note_on_c, 9, 63, 0
4, 154118, Note_on_c, 9, 44, 0
4, 154197, Note_on_c, 9, 51, 0
4, 154395, Note_on_c, 9, 63, 88
4, 154475, Note_on_c, 9, 63, 0
4, 154560, Note_on_c, 9, 51, 57
4, 154675, Note_on_c, 9, 51, 0
4, 155040, Note_on_c, 9, 44, 35
4, 155040, Note_on_c, 9, 51, 61
4, 155049, Note_on_c, 9, 64, 72
4, 155075, Note_on_c, 9, 44, 0
4, 155131, Note_on_c, 9, 64, 0
4, 155155, Note_on_c, 9, 51, 0
4, 155520, Note_on_c, 9, 51, 57
4, 155520, Note_on_c, 9, 44, 35
4, 155558, Note_on_c, 9, 44, 0
4, 155632, Note_on_c, 9, 51, 0
4, 155996, Note_on_c, 9, 63, 61
4, 156000, Note_on_c, 9, 44, 35
4, 156000, Note_on_c, 9, 51, 63
4, 156037, Note_on_c, 9, 44, 0
4, 156116, Note_on_c, 9, 51, 0
4, 156164, Note_on_c, 9, 63, 0
4, 156480, Note_on_c, 9, 51, 65
4, 156480, Note_on_c, 9, 44, 35
4, 156518, Note_on_c, 9, 44, 0
4, 156597, Note_on_c, 9, 51, 0
4, 156960, Note_on_c, 9, 44, 35
4, 156960, Note_on_c, 9, 51, 68
4, 156995, Note_on_c, 9, 44, 0
4, 157077, Note_on_c, 9, 51, 0
4, 157161, Note_on_c, 9, 64, 70
4, 157201, Note_on_c, 9, 64, 0
4, 157297, Note_on_c, 9, 64, 81
4, 157400, Note_on_c, 9, 64, 0
4, 157440, Note_on_c, 9, 51, 68
4, 157440, Note_on_c, 9, 44, 35
4, 157477, Note_on_c, 9, 44, 0
4, 157556, Note_on_c, 9, 51, 0
4, 157920, Note_on_c, 9, 44, 35
4, 157920, Note_on_c, 9, 51, 68
4, 157956, Note_on_c, 9, 63, 53
4, 157961, Note_on_c, 9, 44, 0
4, 158036, Note_on_c, 9, 51, 0
4, 158131, Note_on_c, 9, 63, 0
4, 158236, Note_on_c, 9, 63, 69
4, 158316, Note_on_c, 9, 63, 0
4, 158400, Note_on_c, 9, 51, 68
4, 158400, Note_on_c, 9, 44, 35
4, 158437, Note_on_c, 9, 44, 0
4, 158516, Note_on_c, 9, 51, 0
4, 158880, Note_on_c, 9, 44, 35
4, 158880, Note_on_c, 9, 51, 65
4, 158896, Note_on_c, 9, 64, 53
4, 158919, Note_on_c, 9, 44, 0
4, 158995, Note_on_c, 9, 51, 0
4, 159001, Note_on_c, 9, 64, 0
4, 159186, Note_on_c, 9, 64, 103
4, 159294, Note_on_c, 9, 64, 0
4, 159360, Note_on_c, 9, 44, 35
4, 159360, Note_on_c, 9, 51, 68
4, 159403, Note_on_c, 9, 44, 0
4, 159475, Note_on_c, 9, 51, 0
4, 159840, Note_on_c, 9, 44, 35
4, 159840, Note_on_c, 9, 51, 65
4, 159868, Note_on_c, 9, 63, 56
4, 159880, Note_on_c, 9, 44, 0
4, 159900, Note_on_c, 9, 63, 0
4, 159955, Note_on_c, 9, 51, 0
4, 160165, Note_on_c, 9, 63, 98
4, 160243, Note_on_c, 9, 63, 0
4, 160320, Note_on_c, 9, 44, 35
4, 160320, Note_on_c, 9, 51, 76
4, 160360, Note_on_c, 9, 44, 0
4, 160435, Note_on_c, 9, 51, 0
4, 160800, Note_on_c, 9, 51, 78
4, 160800, Note_on_c, 9, 44, 35
4, 160804, Note_on_c, 9, 64, 115
4, 160837, Note_on_c, 9, 44, 0
4, 160915, Note_on_c, 9, 51, 0
4, 161009, Note_on_c, 9, 64, 0
4, 161280, Note_on_c, 9, 44, 35
4, 161280, Note_on_c, 9, 51, 75
4, 161320, Note_on_c, 9, 44, 0
4, 161395, Note_on_c, 9, 51, 0
4, 161752, Note_on_c, 9, 63, 65
4, 161760, Note_on_c, 9, 44, 35
4, 161760, Note_on_c, 9, 51, 78
4, 161800, Note_on_c, 9, 44, 0
4, 161821, Note_on_c, 9, 63, 0
4, 161872, Note_on_c, 9, 51, 0
4, 162088, Note_on_c, 9, 63, 99
4, 162111, Note_on_c, 9, 62, 75
4, 162145, Note_on_c, 9, 62, 0
4, 162155, Note_on_c, 9, 63, 0
4, 162240, Note_on_c, 9, 44, 35
4, 162240, Note_on_c, 9, 51, 78
4, 162265, Note_on_c, 9, 63, 81
4, 162280, Note_on_c, 9, 44, 0
4, 162355, Note_on_c, 9, 51, 0
4, 162360, Note_on_c, 9, 63, 0
4, 162720, Note_on_c, 9, 51, 79
4, 162720, Note_on_c, 9, 44, 35
4, 162725, Note_on_c, 9, 64, 57
4, 162760, Note_on_c, 9, 44, 0
4, 162770, Note_on_c, 9, 64, 0
4, 162836, Note_on_c, 9, 51, 0
4, 163034, Note_on_c, 9, 64, 96
4, 163107, Note_on_c, 9, 64, 0
4, 163200, Note_on_c, 9, 51, 79
4, 163200, Note_on_c, 9, 44, 35
4, 163237, Note_on_c, 9, 44, 0
4, 163312, Note_on_c, 9, 51, 0
4, 163680, Note_on_c, 9, 44, 35
4, 163680, Note_on_c, 9, 51, 79
4, 163717, Note_on_c, 9, 44, 0
4, 163795, Note_on_c, 9, 51, 0
4, 164028, Note_on_c, 9, 63, 58
4, 164032, Note_on_c, 9, 62, 51
4, 164081, Note_on_c, 9, 62, 0
4, 164137, Note_on_c, 9, 63, 0
4, 164160, Note_on_c, 9, 51, 81
4, 164160, Note_on_c, 9, 44, 35
4, 164200, Note_on_c, 9, 44, 0
4, 164275, Note_on_c, 9, 51, 0
4, 164340, Note_on_c, 9, 62, 57
4, 164345, Note_on_c, 9, 63, 74
4, 164376, Note_on_c, 9, 62, 0
4, 164482, Note_on_c, 9, 63, 0
4, 164640, Note_on_c, 9, 51, 81
4, 164640, Note_on_c, 9, 44, 35
4, 164667, Note_on_c, 9, 62, 66
4, 164673, Note_on_c, 9, 63, 74
4, 164680, Note_on_c, 9, 44, 0
4, 164710, Note_on_c, 9, 62, 0
4, 164752, Note_on_c, 9, 51, 0
4, 164817, Note_on_c, 9, 63, 0
4, 164958, Note_on_c, 9, 64, 84
4, 165078, Note_on_c, 9, 64, 0
4, 165120, Note_on_c, 9, 44, 35
4, 165120, Note_on_c, 9, 51, 81
4, 165157, Note_on_c, 9, 44, 0
4, 165232, Note_on_c, 9, 51, 0
4, 165600, Note_on_c, 9, 51, 85
4, 165600, Note_on_c, 9, 44, 35
4, 165640, Note_on_c, 9, 44, 0
4, 165712, Note_on_c, 9, 51, 0
4, 165929, Note_on_c, 9, 63, 71
4, 166016, Note_on_c, 9, 63, 0
4, 166080, Note_on_c, 9, 44, 35
4, 166080, Note_on_c, 9, 51, 83
4, 166112, Note_on_c, 9, 63, 57
4, 166120, Note_on_c, 9, 44, 0
4, 166195, Note_on_c, 9, 51, 0
4, 166303, Note_on_c, 9, 63, 0
4, 166538, Note_on_c, 9, 64, 74
4, 166560, Note_on_c, 9, 44, 35
4, 166560, Note_on_c, 9, 51, 83
4, 166599, Note_on_c, 9, 44, 0
4, 166672, Note_on_c, 9, 51, 0
4, 166731, Note_on_c, 9, 64, 0
4, 166855, Note_on_c, 9, 64, 80
4, 166927, Note_on_c, 9, 64, 0
4, 167040, Note_on_c, 9, 51, 85
4, 167040, Note_on_c, 9, 44, 35
4, 167078, Note_on_c, 9, 44, 0
4, 167155, Note_on_c, 9, 51, 0
4, 167520, Note_on_c, 9, 44, 35
4, 167520, Note_on_c, 9, 51, 81
4, 167535, Note_on_c, 9, 63, 70
4, 167557, Note_on_c, 9, 44, 0
4, 167632, Note_on_c, 9, 63, 0
4, 167636, Note_on_c, 9, 51, 0
4, 167857, Note_on_c, 9, 63, 97
4, 167970, Note_on_c, 9, 63, 0
4, 168000, Note_on_c, 9, 44, 35
4, 168000, Note_on_c, 9, 51, 91
4, 168038, Note_on_c, 9, 44, 0
4, 168116, Note_on_c, 9, 51, 0
4, 168480, Note_on_c, 9, 44, 35
4, 168480, Note_on_c, 9, 51, 81
4, 168499, Note_on_c, 9, 64, 71
4, 168516, Note_on_c, 9, 44, 0
4, 168593, Note_on_c, 9, 51, 0
4, 168682, Note_on_c, 9, 64, 0
4, 168812, Note_on_c, 9, 64, 78
4, 168823, Note_on_c, 9, 51, 94
4, 168826, Note_on_c, 9, 40, 114
4, 168895, Note_on_c, 9, 64, 0
4, 168939, Note_on_c, 9, 51, 0
4, 168942, Note_on_c, 9, 40, 0
4, 169440, Note_on_c, 9, 44, 35
4, 169474, Note_on_c, 9, 51, 78
4, 169480, Note_on_c, 9, 44, 0
4, 169482, Note_on_c, 9, 62, 36
4, 169517, Note_on_c, 9, 62, 0
4, 169591, Note_on_c, 9, 51, 0
4, 169769, Note_on_c, 9, 62, 118
4, 169842, Note_on_c, 9, 62, 0
4, 169920, Note_on_c, 9, 44, 35
4, 169955, Note_on_c, 9, 44, 0
4, 169955, Note_on_c, 9, 51, 83
4, 170071, Note_on_c, 9, 51, 0
4, 170400, Note_on_c, 9, 44, 35
4, 170408, Note_on_c, 9, 64, 33
4, 170432, Note_on_c, 9, 51, 83
4, 170437, Note_on_c, 9, 44, 0
4, 170549, Note_on_c, 9, 51, 0
4, 170619, Note_on_c, 9, 64, 0
4, 170721, Note_on_c, 9, 64, 108
4, 170831, Note_on_c, 9, 64, 0
4, 170880, Note_on_c, 9, 44, 35
4, 170893, Note_on_c, 9, 51, 85
4, 170917, Note_on_c, 9, 44, 0
4, 171008, Note_on_c, 9, 51, 0
4, 171235, Note_on_c, 9, 51, 75
4, 171351, Note_on_c, 9, 62, 22
4, 171352, Note_on_c, 9, 51, 0
4, 171360, Note_on_c, 9, 44, 35
4, 171366, Note_on_c, 9, 63, 33
4, 171371, Note_on_c, 9, 51, 78
4, 171400, Note_on_c, 9, 44, 0
4, 171407, Note_on_c, 9, 62, 0
4, 171448, Note_on_c, 9, 63, 0
4, 171486, Note_on_c, 9, 51, 0
4, 171674, Note_on_c, 9, 63, 94
4, 171678, Note_on_c, 9, 62, 88
4, 171724, Note_on_c, 9, 62, 0
4, 171840, Note_on_c, 9, 44, 35
4, 171845, Note_on_c, 9, 51, 81
4, 171876, Note_on_c, 9, 44, 0
4, 171878, Note_on_c, 9, 63, 0
4, 171960, Note_on_c, 9, 51, 0
4, 172317, Note_on_c, 9, 51, 79
4, 172318, Note_on_c, 9, 64, 43
4, 172320, Note_on_c, 9, 44, 35
4, 172357, Note_on_c, 9, 44, 0
4, 172432, Note_on_c, 9, 51, 0
4, 172505, Note_on_c, 9, 64, 0
4, 172639, Note_on_c, 9, 64, 115
4, 172658, Note_on_c, 9, 51, 74
4, 172731, Note_on_c, 9, 64, 0
4, 172770, Note_on_c, 9, 51, 0
4, 172792, Note_on_c, 9, 51, 70
4, 172800, Note_on_c, 9, 44, 35
4, 172839, Note_on_c, 9, 44, 0
4, 172907, Note_on_c, 9, 51, 0
4, 173272, Note_on_c, 9, 51, 89
4, 173280, Note_on_c, 9, 44, 35
4, 173292, Note_on_c, 9, 63, 56
4, 173307, Note_on_c, 9, 62, 46
4, 173317, Note_on_c, 9, 44, 0
4, 173335, Note_on_c, 9, 62, 0
4, 173363, Note_on_c, 9, 63, 0
4, 173388, Note_on_c, 9, 51, 0
4, 173635, Note_on_c, 9, 51, 76
4, 173747, Note_on_c, 9, 51, 0
4, 173760, Note_on_c, 9, 44, 35
4, 173775, Note_on_c, 9, 51, 74
4, 173797, Note_on_c, 9, 44, 0
4, 173890, Note_on_c, 9, 51, 0
4, 174110, Note_on_c, 9, 64, 20
4, 174181, Note_on_c, 9, 64, 0
4, 174240, Note_on_c, 9, 44, 35
4, 174249, Note_on_c, 9, 51, 91
4, 174263, Note_on_c, 9, 64, 50
4, 174277, Note_on_c, 9, 44, 0
4, 174347, Note_on_c, 9, 64, 0
4, 174364, Note_on_c, 9, 51, 0
4, 174586, Note_on_c, 9, 64, 125
4, 174597, Note_on_c, 9, 51, 74
4, 174712, Note_on_c, 9, 51, 0
4, 174720, Note_on_c, 9, 44, 35
4, 174739, Note_on_c, 9, 64, 0
4, 174739, Note_on_c, 9, 51, 75
4, 174757, Note_on_c, 9, 44, 0
4, 174851, Note_on_c, 9, 51, 0
4, 175200, Note_on_c, 9, 44, 35
4, 175202, Note_on_c, 9, 63, 36
4, 175214, Note_on_c, 9, 62, 32
4, 175220, Note_on_c, 9, 51, 91
4, 175236, Note_on_c, 9, 44, 0
4, 175245, Note_on_c, 9, 62, 0
4, 175270, Note_on_c, 9, 63, 0
4, 175332, Note_on_c, 9, 51, 0
4, 175532, Note_on_c, 9, 62, 44
4, 175534, Note_on_c, 9, 63, 47
4, 175555, Note_on_c, 9, 51, 66
4, 175566, Note_on_c, 9, 62, 0
4, 175603, Note_on_c, 9, 63, 0
4, 175670, Note_on_c, 9, 51, 0
4, 175680, Note_on_c, 9, 44, 35
4, 175701, Note_on_c, 9, 51, 67
4, 175718, Note_on_c, 9, 44, 0
4, 175816, Note_on_c, 9, 51, 0
4, 176160, Note_on_c, 9, 44, 35
4, 176194, Note_on_c, 9, 51, 81
4, 176197, Note_on_c, 9, 44, 0
4, 176309, Note_on_c, 9, 51, 0
4, 176325, Note_on_c, 9, 64, 73
4, 176384, Note_on_c, 9, 64, 0
4, 176474, Note_on_c, 9, 64, 88
4, 176492, Note_on_c, 9, 51, 93
4, 176501, Note_on_c, 9, 40, 98
4, 176551, Note_on_c, 9, 64, 0
4, 176607, Note_on_c, 9, 51, 0
4, 176616, Note_on_c, 9, 40, 0
4, 176640, Note_on_c, 9, 44, 35
4, 176676, Note_on_c, 9, 44, 0
4, 177120, Note_on_c, 9, 44, 35
4, 177129, Note_on_c, 9, 63, 38
4, 177130, Note_on_c, 9, 62, 42
4, 177140, Note_on_c, 9, 51, 87
4, 177156, Note_on_c, 9, 44, 0
4, 177240, Note_on_c, 9, 62, 0
4, 177250, Note_on_c, 9, 63, 0
4, 177252, Note_on_c, 9, 51, 0
4, 177436, Note_on_c, 9, 63, 52
4, 177487, Note_on_c, 9, 51, 76
4, 177506, Note_on_c, 9, 63, 0
4, 177600, Note_on_c, 9, 44, 35
4, 177602, Note_on_c, 9, 51, 0
4, 177636, Note_on_c, 9, 51, 68
4, 177637, Note_on_c, 9, 44, 0
4, 177748, Note_on_c, 9, 51, 0
4, 177753, Note_on_c, 9, 64, 29
4, 177856, Note_on_c, 9, 64, 0
4, 177936, Note_on_c, 9, 64, 40
4, 178008, Note_on_c, 9, 64, 0
4, 178080, Note_on_c, 9, 44, 35
4, 178103, Note_on_c, 9, 64, 57
4, 178116, Note_on_c, 9, 44, 0
4, 178120, Note_on_c, 9, 51, 92
4, 178138, Note_on_c, 9, 64, 0
4, 178235, Note_on_c, 9, 51, 0
4, 178259, Note_on_c, 9, 64, 68
4, 178287, Note_on_c, 9, 64, 0
4, 178415, Note_on_c, 9, 64, 94
4, 178488, Note_on_c, 9, 64, 0
4, 178560, Note_on_c, 9, 44, 35
4, 178598, Note_on_c, 9, 44, 0
4, 178598, Note_on_c, 9, 51, 70
4, 178713, Note_on_c, 9, 51, 0
4, 178929, Note_on_c, 9, 51, 81
4, 179035, Note_on_c, 9, 62, 40
4, 179038, Note_on_c, 9, 63, 36
4, 179040, Note_on_c, 9, 44, 35
4, 179045, Note_on_c, 9, 51, 0
4, 179063, Note_on_c, 9, 51, 74
4, 179080, Note_on_c, 9, 44, 0
4, 179106, Note_on_c, 9, 62, 0
4, 179162, Note_on_c, 9, 63, 0
4, 179178, Note_on_c, 9, 51, 0
4, 179338, Note_on_c, 9, 63, 60
4, 179353, Note_on_c, 9, 62, 47
4, 179387, Note_on_c, 9, 62, 0
4, 179417, Note_on_c, 9, 63, 0
4, 179520, Note_on_c, 9, 44, 35
4, 179557, Note_on_c, 9, 44, 0
4, 179571, Note_on_c, 9, 51, 91
4, 179687, Note_on_c, 9, 51, 0
4, 180000, Note_on_c, 9, 44, 35
4, 180023, Note_on_c, 9, 64, 40
4, 180040, Note_on_c, 9, 44, 0
4, 180046, Note_on_c, 9, 51, 71
4, 180074, Note_on_c, 9, 64, 0
4, 180161, Note_on_c, 9, 51, 0
4, 180321, Note_on_c, 9, 64, 113
4, 180346, Note_on_c, 9, 68, 48
4, 180352, Note_on_c, 9, 66, 34
4, 180369, Note_on_c, 9, 51, 92
4, 180372, Note_on_c, 9, 40, 104
4, 180374, Note_on_c, 9, 68, 0
4, 180380, Note_on_c, 9, 66, 0
4, 180396, Note_on_c, 9, 64, 0
4, 180484, Note_on_c, 9, 51, 0
4, 180487, Note_on_c, 9, 40, 0
4, 180960, Note_on_c, 9, 44, 35
4, 180989, Note_on_c, 9, 51, 85
4, 180997, Note_on_c, 9, 44, 0
4, 181103, Note_on_c, 9, 51, 0
4, 181336, Note_on_c, 9, 51, 68
4, 181440, Note_on_c, 9, 44, 35
4, 181452, Note_on_c, 9, 51, 0
4, 181476, Note_on_c, 9, 44, 0
4, 181491, Note_on_c, 9, 51, 61
4, 181607, Note_on_c, 9, 51, 0
4, 181777, Note_on_c, 9, 40, 12
4, 181894, Note_on_c, 9, 40, 0
4, 181918, Note_on_c, 9, 51, 87
4, 181920, Note_on_c, 9, 44, 35
4, 181957, Note_on_c, 9, 44, 0
4, 182033, Note_on_c, 9, 51, 0
4, 182296, Note_on_c, 9, 40, 113
4, 182411, Note_on_c, 9, 40, 0
4, 182786, Note_on_c, 9, 51, 94
4, 182789, Note_on_c, 9, 36, 70
4, 182902, Note_on_c, 9, 51, 0
4, 182904, Note_on_c, 9, 36, 0
4, 184320, Note_on_c, 9, 59, 87
4, 184436, Note_on_c, 9, 59, 0
4, 184800, Note_on_c, 9, 59, 79
4, 184800, Note_on_c, 9, 44, 35
4, 184836, Note_on_c, 9, 44, 0
4, 184913, Note_on_c, 9, 59, 0
4, 185280, Note_on_c, 9, 59, 74
4, 185397, Note_on_c, 9, 59, 0
4, 185760, Note_on_c, 9, 44, 35
4, 185760, Note_on_c, 9, 59, 91
4, 185760, Note_on_c, 9, 37, 87
4, 185796, Note_on_c, 9, 44, 0
4, 185874, Note_on_c, 9, 37, 0
4, 185877, Note_on_c, 9, 59, 0
4, 186240, Note_on_c, 9, 59, 76
4, 186358, Note_on_c, 9, 59, 0
4, 186720, Note_on_c, 9, 44, 35
4, 186720, Note_on_c, 9, 59, 83
4, 186756, Note_on_c, 9, 44, 0
4, 186833, Note_on_c, 9, 59, 0
4, 187200, Note_on_c, 9, 59, 76
4, 187317, Note_on_c, 9, 59, 0
4, 187680, Note_on_c, 9, 37, 84
4, 187680, Note_on_c, 9, 44, 35
4, 187680, Note_on_c, 9, 59, 93
4, 187719, Note_on_c, 9, 44, 0
4, 187795, Note_on_c, 9, 37, 0
4, 187797, Note_on_c, 9, 59, 0
4, 188160, Note_on_c, 9, 59, 79
4, 188275, Note_on_c, 9, 59, 0
4, 188640, Note_on_c, 9, 59, 87
4, 188640, Note_on_c, 9, 44, 35
4, 188677, Note_on_c, 9, 44, 0
4, 188755, Note_on_c, 9, 59, 0
4, 189120, Note_on_c, 9, 59, 79
4, 189236, Note_on_c, 9, 59, 0
4, 189600, Note_on_c, 9, 44, 35
4, 189600, Note_on_c, 9, 37, 87
4, 189600, Note_on_c, 9, 59, 89
4, 189641, Note_on_c, 9, 44, 0
4, 189712, Note_on_c, 9, 59, 0
4, 189715, Note_on_c, 9, 37, 0
4, 190080, Note_on_c, 9, 59, 80
4, 190195, Note_on_c, 9, 59, 0
4, 190560, Note_on_c, 9, 59, 87
4, 190560, Note_on_c, 9, 44, 35
4, 190600, Note_on_c, 9, 44, 0
4, 190675, Note_on_c, 9, 59, 0
4, 191040, Note_on_c, 9, 59, 76
4, 191155, Note_on_c, 9, 59, 0
4, 191520, Note_on_c, 9, 44, 35
4, 191520, Note_on_c, 9, 37, 90
4, 191520, Note_on_c, 9, 59, 93
4, 191556, Note_on_c, 9, 44, 0
4, 191633, Note_on_c, 9, 37, 0
4, 191635, Note_on_c, 9, 59, 0
4, 192000, Note_on_c, 9, 59, 84
4, 192116, Note_on_c, 9, 59, 0
4, 192480, Note_on_c, 9, 44, 35
4, 192480, Note_on_c, 9, 59, 83
4, 192519, Note_on_c, 9, 44, 0
4, 192595, Note_on_c, 9, 59, 0
4, 192960, Note_on_c, 9, 59, 75
4, 193072, Note_on_c, 9, 59, 0
4, 193440, Note_on_c, 9, 59, 88
4, 193440, Note_on_c, 9, 44, 35
4, 193440, Note_on_c, 9, 37, 90
4, 193477, Note_on_c, 9, 44, 0
4, 193552, Note_on_c, 9, 37, 0
4, 193555, Note_on_c, 9, 59, 0
4, 193920, Note_on_c, 9, 59, 83
4, 194035, Note_on_c, 9, 59, 0
4, 194400, Note_on_c, 9, 44, 35
4, 194400, Note_on_c, 9, 59, 91
4, 194440, Note_on_c, 9, 44, 0
4, 194516, Note_on_c, 9, 59, 0
4, 194880, Note_on_c, 9, 59, 79
4, 194995, Note_on_c, 9, 59, 0
4, 195360, Note_on_c, 9, 37, 87
4, 195360, Note_on_c, 9, 44, 35
4, 195360, Note_on_c, 9, 59, 87
4, 195400, Note_on_c, 9, 44, 0
4, 195475, Note_on_c, 9, 59, 0
4, 195475, Note_on_c, 9, 37, 0
4, 195840, Note_on_c, 9, 59, 79
4, 195955, Note_on_c, 9, 59, 0
4, 196320, Note_on_c, 9, 59, 83
4, 196320, Note_on_c, 9, 44, 35
4, 196360, Note_on_c, 9, 44, 0
4, 196436, Note_on_c, 9, 59, 0
4, 196800, Note_on_c, 9, 59, 79
4, 196915, Note_on_c, 9, 59, 0
4, 197280, Note_on_c, 9, 44, 35
4, 197280, Note_on_c, 9, 37, 89
4, 197280, Note_on_c, 9, 59, 91
4, 197319, Note_on_c, 9, 44, 0
4, 197395, Note_on_c, 9, 37, 0
4, 197396, Note_on_c, 9, 59, 0
4, 197680, Note_on_c, 9, 59, 79
4, 197795, Note_on_c, 9, 59, 0
4, 197816, Note_on_c, 9, 59, 76
4, 197931, Note_on_c, 9, 59, 0
4, 198240, Note_on_c, 9, 44, 35
4, 198240, Note_on_c, 9, 59, 93
4, 198277, Note_on_c, 9, 44, 0
4, 198355, Note_on_c, 9, 59, 0
4, 198720, Note_on_c, 9, 59, 87
4, 198835, Note_on_c, 9, 59, 0
4, 199200, Note_on_c, 9, 44, 35
4, 199200, Note_on_c, 9, 37, 87
4, 199200, Note_on_c, 9, 59, 84
4, 199243, Note_on_c, 9, 44, 0
4, 199312, Note_on_c, 9, 59, 0
4, 199315, Note_on_c, 9, 37, 0
4, 199559, Note_on_c, 9, 36, 76
4, 199575, Note_on_c, 9, 46, 68
4, 199676, Note_on_c, 9, 36, 0
4, 199690, Note_on_c, 9, 46, 0
4, 200160, Note_on_c, 9, 44, 35
4, 200200, Note_on_c, 9, 44, 0
4, 200232, Note_on_c, 9, 59, 89
4, 200348, Note_on_c, 9, 59, 0
4, 200704, Note_on_c, 9, 59, 91
4, 200819, Note_on_c, 9, 59, 0
4, 201120, Note_on_c, 9, 37, 87
4, 201120, Note_on_c, 9, 44, 35
4, 201158, Note_on_c, 9, 44, 0
4, 201166, Note_on_c, 9, 59, 91
4, 201237, Note_on_c, 9, 37, 0
4, 201283, Note_on_c, 9, 59, 0
4, 201659, Note_on_c, 9, 59, 84
4, 201776, Note_on_c, 9, 59, 0
4, 201985, Note_on_c, 9, 59, 72
4, 202080, Note_on_c, 9, 44, 35
4, 202101, Note_on_c, 9, 59, 0
4, 202117, Note_on_c, 9, 44, 0
4, 202119, Note_on_c, 9, 59, 83
4, 202235, Note_on_c, 9, 59, 0
4, 202611, Note_on_c, 9, 59, 83
4, 202728, Note_on_c, 9, 59, 0
4, 203040, Note_on_c, 9, 44, 35
4, 203040, Note_on_c, 9, 37, 90
4, 203069, Note_on_c, 9, 59, 94
4, 203076, Note_on_c, 9, 44, 0
4, 203155, Note_on_c, 9, 37, 0
4, 203184, Note_on_c, 9, 59, 0
4, 203547, Note_on_c, 9, 59, 92
4, 203662, Note_on_c, 9, 59, 0
4, 204000, Note_on_c, 9, 44, 35
4, 204037, Note_on_c, 9, 44, 0
4, 204040, Note_on_c, 9, 59, 96
4, 204152, Note_on_c, 9, 59, 0
4, 204512, Note_on_c, 9, 59, 88
4, 204627, Note_on_c, 9, 59, 0
4, 204960, Note_on_c, 9, 37, 87
4, 204960, Note_on_c, 9, 44, 35
4, 204989, Note_on_c, 9, 59, 97
4, 205000, Note_on_c, 9, 44, 0
4, 205072, Note_on_c, 9, 37, 0
4, 205104, Note_on_c, 9, 59, 0
4, 205461, Note_on_c, 9, 59, 93
4, 205576, Note_on_c, 9, 59, 0
4, 205802, Note_on_c, 9, 59, 79
4, 205917, Note_on_c, 9, 59, 0
4, 205920, Note_on_c, 9, 44, 35
4, 205944, Note_on_c, 9, 59, 81
4, 205957, Note_on_c, 9, 44, 0
4, 206060, Note_on_c, 9, 59, 0
4, 206428, Note_on_c, 9, 59, 97
4, 206544, Note_on_c, 9, 59, 0
4, 206880, Note_on_c, 9, 37, 90
4, 206880, Note_on_c, 9, 44, 35
4, 206900, Note_on_c, 9, 59, 93
4, 206920, Note_on_c, 9, 44, 0
4, 206992, Note_on_c, 9, 37, 0
4, 207015, Note_on_c, 9, 59, 0
4, 207253, Note_on_c, 9, 59, 76
4, 207368, Note_on_c, 9, 59, 0
4, 207393, Note_on_c, 9, 59, 83
4, 207508, Note_on_c, 9, 59, 0
4, 207840, Note_on_c, 9, 44, 35
4, 207880, Note_on_c, 9, 44, 0
4, 207880, Note_on_c, 9, 59, 92
4, 207995, Note_on_c, 9, 59, 0
4, 208221, Note_on_c, 9, 59, 74
4, 208336, Note_on_c, 9, 59, 0
4, 208358, Note_on_c, 9, 59, 79
4, 208473, Note_on_c, 9, 59, 0
4, 208800, Note_on_c, 9, 44, 35
4, 208800, Note_on_c, 9, 37, 90
4, 208826, Note_on_c, 9, 59, 93
4, 208839, Note_on_c, 9, 44, 0
4, 208912, Note_on_c, 9, 37, 0
4, 208942, Note_on_c, 9, 59, 0
4, 209164, Note_on_c, 9, 59, 74
4, 209280, Note_on_c, 9, 59, 0
4, 209304, Note_on_c, 9, 59, 75
4, 209419, Note_on_c, 9, 59, 0
4, 209760, Note_on_c, 9, 44, 35
4, 209794, Note_on_c, 9, 59, 92
4, 209797, Note_on_c, 9, 44, 0
4, 209909, Note_on_c, 9, 59, 0
4, 210138, Note_on_c, 9, 59, 74
4, 210253, Note_on_c, 9, 59, 0
4, 210287, Note_on_c, 9, 59, 79
4, 210402, Note_on_c, 9, 59, 0
4, 210720, Note_on_c, 9, 37, 96
4, 210720, Note_on_c, 9, 44, 35
4, 210752, Note_on_c, 9, 59, 98
4, 210761, Note_on_c, 9, 44, 0
4, 210836, Note_on_c, 9, 37, 0
4, 210867, Note_on_c, 9, 59, 0
4, 211093, Note_on_c, 9, 59, 76
4, 211208, Note_on_c, 9, 59, 0
4, 211236, Note_on_c, 9, 59, 78
4, 211351, Note_on_c, 9, 59, 0
4, 211680, Note_on_c, 9, 44, 35
4, 211714, Note_on_c, 9, 59, 92
4, 211717, Note_on_c, 9, 44, 0
4, 211831, Note_on_c, 9, 59, 0
4, 212049, Note_on_c, 9, 59, 76
4, 212164, Note_on_c, 9, 59, 0
4, 212198, Note_on_c, 9, 59, 76
4, 212314, Note_on_c, 9, 59, 0
4, 212640, Note_on_c, 9, 37, 96
4, 212640, Note_on_c, 9, 44, 35
4, 212676, Note_on_c, 9, 44, 0
4, 212688, Note_on_c, 9, 59, 97
4, 212756, Note_on_c, 9, 37, 0
4, 212803, Note_on_c, 9, 59, 0
4, 213010, Note_on_c, 9, 59, 75
4, 213124, Note_on_c, 9, 59, 0
4, 213156, Note_on_c, 9, 59, 81
4, 213273, Note_on_c, 9, 59, 0
4, 213634, Note_on_c, 9, 59, 105
4, 213751, Note_on_c, 9, 59, 0
4, 214127, Note_on_c, 9, 59, 81
4, 214243, Note_on_c, 9, 59, 0
4, 214431, Note_on_c, 9, 59, 87
4, 214440, Note_on_c, 9, 40, 74
4, 214548, Note_on_c, 9, 59, 0
4, 214557, Note_on_c, 9, 40, 0
4, 214909, Note_on_c, 9, 40, 113
4, 214913, Note_on_c, 9, 46, 73
4, 215025, Note_on_c, 9, 40, 0
4, 215029, Note_on_c, 9, 46, 0
4, 215520, Note_on_c, 9, 44, 35
4, 215555, Note_on_c, 9, 51, 65
4, 215558, Note_on_c, 9, 44, 0
4, 215671, Note_on_c, 9, 51, 0
4, 216000, Note_on_c, 9, 44, 35
4, 216017, Note_on_c, 9, 51, 79
4, 216037, Note_on_c, 9, 44, 0
4, 216133, Note_on_c, 9, 51, 0
4, 216480, Note_on_c, 9, 44, 35
4, 216499, Note_on_c, 9, 51, 80
4, 216521, Note_on_c, 9, 44, 0
4, 216614, Note_on_c, 9, 51, 0
4, 216960, Note_on_c, 9, 44, 35
4, 216988, Note_on_c, 9, 51, 71
4, 216997, Note_on_c, 9, 44, 0
4, 217100, Note_on_c, 9, 51, 0
4, 217314, Note_on_c, 9, 51, 75
4, 217323, Note_on_c, 9, 40, 8
4, 217429, Note_on_c, 9, 51, 0
4, 217438, Note_on_c, 9, 40, 0
4, 217440, Note_on_c, 9, 44, 35
4, 217457, Note_on_c, 9, 51, 70
4, 217477, Note_on_c, 9, 44, 0
4, 217572, Note_on_c, 9, 51, 0
4, 217920, Note_on_c, 9, 44, 35
4, 217937, Note_on_c, 9, 51, 81
4, 217944, Note_on_c, 9, 40, 39
4, 217960, Note_on_c, 9, 44, 0
4, 218053, Note_on_c, 9, 51, 0
4, 218059, Note_on_c, 9, 40, 0
4, 218288, Note_on_c, 9, 40, 8
4, 218400, Note_on_c, 9, 44, 35
4, 218403, Note_on_c, 9, 40, 0
4, 218409, Note_on_c, 9, 51, 83
4, 218440, Note_on_c, 9, 44, 0
4, 218524, Note_on_c, 9, 51, 0
4, 218738, Note_on_c, 9, 51, 93
4, 218738, Note_on_c, 9, 40, 107
4, 218850, Note_on_c, 9, 40, 0
4, 218853, Note_on_c, 9, 51, 0
4, 218880, Note_on_c, 9, 44, 35
4, 218917, Note_on_c, 9, 44, 0
4, 219210, Note_on_c, 9, 40, 8
4, 219325, Note_on_c, 9, 40, 0
4, 219360, Note_on_c, 9, 44, 35
4, 219374, Note_on_c, 9, 51, 92
4, 219400, Note_on_c, 9, 44, 0
4, 219489, Note_on_c, 9, 51, 0
4, 219721, Note_on_c, 9, 51, 65
4, 219836, Note_on_c, 9, 51, 0
4, 219840, Note_on_c, 9, 44, 35
4, 219873, Note_on_c, 9, 51, 66
4, 219880, Note_on_c, 9, 44, 0
4, 219988, Note_on_c, 9, 51, 0
4, 220226, Note_on_c, 9, 40, 8
4, 220320, Note_on_c, 9, 44, 35
4, 220341, Note_on_c, 9, 40, 0
4, 220348, Note_on_c, 9, 51, 93
4, 220358, Note_on_c, 9, 44, 0
4, 220463, Note_on_c, 9, 51, 0
4, 220658, Note_on_c, 9, 40, 8
4, 220773, Note_on_c, 9, 40, 0
4, 220800, Note_on_c, 9, 44, 35
4, 220823, Note_on_c, 9, 51, 74
4, 220840, Note_on_c, 9, 44, 0
4, 220938, Note_on_c, 9, 51, 0
4, 221127, Note_on_c, 9, 40, 35
4, 221160, Note_on_c, 9, 51, 79
4, 221239, Note_on_c, 9, 40, 0
4, 221272, Note_on_c, 9, 51, 0
4, 221280, Note_on_c, 9, 44, 35
4, 221297, Note_on_c, 9, 51, 78
4, 221320, Note_on_c, 9, 44, 0
4, 221412, Note_on_c, 9, 51, 0
4, 221760, Note_on_c, 9, 44, 35
4, 221775, Note_on_c, 9, 40, 99
4, 221787, Note_on_c, 9, 51, 85
4, 221797, Note_on_c, 9, 44, 0
4, 221890, Note_on_c, 9, 40, 0
4, 221902, Note_on_c, 9, 51, 0
4, 222125, Note_on_c, 9, 40, 8
4, 222240, Note_on_c, 9, 40, 0
4, 222240, Note_on_c, 9, 44, 35
4, 222243, Note_on_c, 9, 51, 81
4, 222278, Note_on_c, 9, 44, 0
4, 222360, Note_on_c, 9, 51, 0
4, 222575, Note_on_c, 9, 51, 96
4, 222587, Note_on_c, 9, 40, 101
4, 222690, Note_on_c, 9, 51, 0
4, 222702, Note_on_c, 9, 40, 0
4, 222720, Note_on_c, 9, 44, 35
4, 222758, Note_on_c, 9, 44, 0
4, 223083, Note_on_c, 9, 40, 8
4, 223198, Note_on_c, 9, 40, 0
4, 223200, Note_on_c, 9, 44, 35
4, 223240, Note_on_c, 9, 44, 0
4, 223242, Note_on_c, 9, 51, 93
4, 223357, Note_on_c, 9, 51, 0
4, 223598, Note_on_c, 9, 40, 72
4, 223610, Note_on_c, 9, 51, 81
4, 223680, Note_on_c, 9, 44, 35
4, 223713, Note_on_c, 9, 40, 0
4, 223718, Note_on_c, 9, 44, 0
4, 223728, Note_on_c, 9, 51, 0
4, 224060, Note_on_c, 9, 51, 83
4, 224069, Note_on_c, 9, 40, 98
4, 224160, Note_on_c, 9, 44, 35
4, 224176, Note_on_c, 9, 51, 0
4, 224184, Note_on_c, 9, 40, 0
4, 224199, Note_on_c, 9, 44, 0
4, 224206, Note_on_c, 9, 51, 75
4, 224321, Note_on_c, 9, 51, 0
4, 224529, Note_on_c, 9, 40, 8
4, 224640, Note_on_c, 9, 44, 35
4, 224644, Note_on_c, 9, 40, 0
4, 224680, Note_on_c, 9, 44, 0
4, 224693, Note_on_c, 9, 51, 87
4, 224808, Note_on_c, 9, 51, 0
4, 225022, Note_on_c, 9, 51, 78
4, 225037, Note_on_c, 9, 40, 67
4, 225120, Note_on_c, 9, 44, 35
4, 225137, Note_on_c, 9, 51, 0
4, 225152, Note_on_c, 9, 40, 0
4, 225158, Note_on_c, 9, 44, 0
4, 225162, Note_on_c, 9, 51, 75
4, 225277, Note_on_c, 9, 51, 0
4, 225600, Note_on_c, 9, 44, 35
4, 225638, Note_on_c, 9, 44, 0
4, 225648, Note_on_c, 9, 40, 107
4, 225664, Note_on_c, 9, 51, 98
4, 225762, Note_on_c, 9, 40, 0
4, 225779, Note_on_c, 9, 51, 0
4, 225965, Note_on_c, 9, 40, 8
4, 226080, Note_on_c, 9, 44, 35
4, 226081, Note_on_c, 9, 40, 0
4, 226108, Note_on_c, 9, 51, 81
4, 226117, Note_on_c, 9, 44, 0
4, 226224, Note_on_c, 9, 51, 0
4, 226416, Note_on_c, 9, 36, 88
4, 226418, Note_on_c, 9, 51, 97
4, 226531, Note_on_c, 9, 36, 0
4, 226535, Note_on_c, 9, 51, 0
4, 226900, Note_on_c, 9, 40, 31
4, 227015, Note_on_c, 9, 40, 0
4, 227040, Note_on_c, 9, 44, 35
4, 227049, Note_on_c, 9, 51, 92
4, 227077, Note_on_c, 9, 44, 0
4, 227161, Note_on_c, 9, 51, 0
4, 227356, Note_on_c, 9, 51, 70
4, 227363, Note_on_c, 9, 40, 59
4, 227472, Note_on_c, 9, 51, 0
4, 227478, Note_on_c, 9, 40, 0
4, 227514, Note_on_c, 9, 51, 70
4, 227520, Note_on_c, 9, 44, 35
4, 227557, Note_on_c, 9, 44, 0
4, 227627, Note_on_c, 9, 51, 0
4, 227852, Note_on_c, 9, 40, 21
4, 227969, Note_on_c, 9, 40, 0
4, 228000, Note_on_c, 9, 44, 35
4, 228003, Note_on_c, 9, 51, 89
4, 228041, Note_on_c, 9, 44, 0
4, 228113, Note_on_c, 9, 51, 0
4, 228312, Note_on_c, 9, 40, 114
4, 228321, Note_on_c, 9, 51, 91
4, 228427, Note_on_c, 9, 40, 0
4, 228436, Note_on_c, 9, 51, 0
4, 228480, Note_on_c, 9, 44, 35
4, 228520, Note_on_c, 9, 44, 0
4, 228826, Note_on_c, 9, 40, 21
4, 228942, Note_on_c, 9, 40, 0
4, 228960, Note_on_c, 9, 44, 35
4, 228994, Note_on_c, 9, 51, 88
4, 228996, Note_on_c, 9, 44, 0
4, 229112, Note_on_c, 9, 51, 0
4, 229298, Note_on_c, 9, 51, 97
4, 229304, Note_on_c, 9, 40, 108
4, 229410, Note_on_c, 9, 51, 0
4, 229419, Note_on_c, 9, 40, 0
4, 229440, Note_on_c, 9, 44, 35
4, 229477, Note_on_c, 9, 44, 0
4, 229791, Note_on_c, 9, 40, 54
4, 229906, Note_on_c, 9, 40, 0
4, 229920, Note_on_c, 9, 44, 35
4, 229955, Note_on_c, 9, 51, 91
4, 229957, Note_on_c, 9, 44, 0
4, 230071, Note_on_c, 9, 51, 0
4, 230263, Note_on_c, 9, 51, 88
4, 230287, Note_on_c, 9, 36, 102
4, 230378, Note_on_c, 9, 51, 0
4, 230402, Note_on_c, 9, 36, 0
4, 230743, Note_on_c, 9, 40, 8
4, 230858, Note_on_c, 9, 40, 0
4, 230880, Note_on_c, 9, 44, 35
4, 230911, Note_on_c, 9, 51, 84
4, 230917, Note_on_c, 9, 44, 0
4, 231026, Note_on_c, 9, 51, 0
4, 231218, Note_on_c, 9, 40, 109
4, 231227, Note_on_c, 9, 51, 87
4, 231333, Note_on_c, 9, 40, 0
4, 231339, Note_on_c, 9, 51, 0
4, 231717, Note_on_c, 9, 40, 16
4, 231832, Note_on_c, 9, 40, 0
4, 231840, Note_on_c, 9, 44, 35
4, 231877, Note_on_c, 9, 44, 0
4, 231903, Note_on_c, 9, 51, 84
4, 232018, Note_on_c, 9, 51, 0
4, 232186, Note_on_c, 9, 40, 82
4, 232301, Note_on_c, 9, 40, 0
4, 232359, Note_on_c, 9, 40, 117
4, 232474, Note_on_c, 9, 40, 0
4, 232685, Note_on_c, 9, 36, 58
4, 232800, Note_on_c, 9, 36, 0
4, 232840, Note_on_c, 9, 36, 102
4, 232849, Note_on_c, 9, 51, 97
4, 232958, Note_on_c, 9, 36, 0
4, 232961, Note_on_c, 9, 51, 0
4, 233330, Note_on_c, 9, 40, 118
4, 233445, Note_on_c, 9, 40, 0
4, 233783, Note_on_c, 9, 51, 74
4, 233786, Note_on_c, 9, 36, 68
4, 233898, Note_on_c, 9, 51, 0
4, 233902, Note_on_c, 9, 36, 0
4, 234056, Note_on_c, 9, 36, 102
4, 234081, Note_on_c, 9, 51, 87
4, 234173, Note_on_c, 9, 36, 0
4, 234196, Note_on_c, 9, 51, 0
4, 234565, Note_on_c, 9, 40, 31
4, 234680, Note_on_c, 9, 40, 0
4, 234714, Note_on_c, 9, 51, 79
4, 234720, Note_on_c, 9, 44, 35
4, 234757, Note_on_c, 9, 44, 0
4, 234831, Note_on_c, 9, 51, 0
4, 235036, Note_on_c, 9, 51, 75
4, 235052, Note_on_c, 9, 40, 106
4, 235150, Note_on_c, 9, 51, 0
4, 235167, Note_on_c, 9, 40, 0
4, 235198, Note_on_c, 9, 51, 70
4, 235315, Note_on_c, 9, 51, 0
4, 235688, Note_on_c, 9, 40, 81
4, 235691, Note_on_c, 9, 51, 88
4, 235804, Note_on_c, 9, 40, 0
4, 235808, Note_on_c, 9, 51, 0
4, 236007, Note_on_c, 9, 51, 93
4, 236007, Note_on_c, 9, 40, 104
4, 236121, Note_on_c, 9, 40, 0
4, 236124, Note_on_c, 9, 51, 0
4, 236479, Note_on_c, 9, 40, 35
4, 236595, Note_on_c, 9, 40, 0
4, 236634, Note_on_c, 9, 51, 87
4, 236640, Note_on_c, 9, 44, 35
4, 236680, Note_on_c, 9, 44, 0
4, 236748, Note_on_c, 9, 51, 0
4, 236984, Note_on_c, 9, 51, 70
4, 237101, Note_on_c, 9, 51, 0
4, 237158, Note_on_c, 9, 51, 59
4, 237273, Note_on_c, 9, 51, 0
4, 237431, Note_on_c, 9, 40, 84
4, 237548, Note_on_c, 9, 40, 0
4, 237611, Note_on_c, 9, 51, 81
4, 237728, Note_on_c, 9, 51, 0
4, 237911, Note_on_c, 9, 51, 92
4, 237916, Note_on_c, 9, 36, 102
4, 238026, Note_on_c, 9, 51, 0
4, 238032, Note_on_c, 9, 36, 0
4, 238397, Note_on_c, 9, 40, 39
4, 238512, Note_on_c, 9, 40, 0
4, 238552, Note_on_c, 9, 51, 81
4, 238560, Note_on_c, 9, 44, 35
4, 238598, Note_on_c, 9, 44, 0
4, 238668, Note_on_c, 9, 51, 0
4, 238878, Note_on_c, 9, 51, 76
4, 238993, Note_on_c, 9, 51, 0
4, 239024, Note_on_c, 9, 51, 68
4, 239139, Note_on_c, 9, 51, 0
4, 239385, Note_on_c, 9, 40, 8
4, 239502, Note_on_c, 9, 40, 0
4, 239520, Note_on_c, 9, 44, 35
4, 239523, Note_on_c, 9, 51, 84
4, 239560, Note_on_c, 9, 44, 0
4, 239639, Note_on_c, 9, 51, 0
4, 239843, Note_on_c, 9, 40, 8
4, 239958, Note_on_c, 9, 40, 0
4, 240010, Note_on_c, 9, 51, 87
4, 240125, Note_on_c, 9, 51, 0
4, 240332, Note_on_c, 9, 40, 35
4, 240342, Note_on_c, 9, 51, 70
4, 240445, Note_on_c, 9, 40, 0
4, 240457, Note_on_c, 9, 51, 0
4, 240480, Note_on_c, 9, 44, 35
4, 240485, Note_on_c, 9, 51, 74
4, 240517, Note_on_c, 9, 44, 0
4, 240597, Note_on_c, 9, 51, 0
4, 240984, Note_on_c, 9, 40, 95
4, 240990, Note_on_c, 9, 51, 93
4, 241099, Note_on_c, 9, 40, 0
4, 241105, Note_on_c, 9, 51, 0
4, 241326, Note_on_c, 9, 35, 39
4, 241371, Note_on_c, 9, 35, 0
4, 241440, Note_on_c, 9, 44, 35
4, 241456, Note_on_c, 9, 51, 81
4, 241477, Note_on_c, 9, 44, 0
4, 241571, Note_on_c, 9, 51, 0
4, 241766, Note_on_c, 9, 51, 94
4, 241768, Note_on_c, 9, 40, 104
4, 241881, Note_on_c, 9, 51, 0
4, 241884, Note_on_c, 9, 40, 0
4, 242274, Note_on_c, 9, 40, 26
4, 242389, Note_on_c, 9, 40, 0
4, 242400, Note_on_c, 9, 44, 35
4, 242429, Note_on_c, 9, 51, 93
4, 242438, Note_on_c, 9, 44, 0
4, 242544, Note_on_c, 9, 51, 0
4, 242734, Note_on_c, 9, 40, 8
4, 242849, Note_on_c, 9, 40, 0
4, 242916, Note_on_c, 9, 51, 85
4, 243031, Note_on_c, 9, 51, 0
4, 243223, Note_on_c, 9, 51, 75
4, 243233, Note_on_c, 9, 40, 74
4, 243338, Note_on_c, 9, 51, 0
4, 243348, Note_on_c, 9, 40, 0
4, 243376, Note_on_c, 9, 51, 68
4, 243491, Note_on_c, 9, 51, 0
4, 243709, Note_on_c, 9, 40, 116
4, 243824, Note_on_c, 9, 40, 0
4, 244232, Note_on_c, 9, 46, 78
4, 244234, Note_on_c, 9, 36, 102
4, 244347, Note_on_c, 9, 46, 0
4, 244350, Note_on_c, 9, 36, 0
4, 245635, Note_on_c, 9, 35, 49
4, 245716, Note_on_c, 9, 35, 0
4, 245748, Note_on_c, 9, 59, 79
4, 245818, Note_on_c, 9, 35, 30
4, 245863, Note_on_c, 9, 59, 0
4, 246041, Note_on_c, 9, 35, 0
4, 246549, Note_on_c, 9, 35, 40
4, 246595, Note_on_c, 9, 35, 0
4, 246817, Note_on_c, 9, 59, 80
4, 246933, Note_on_c, 9, 59, 0
4, 247584, Note_on_c, 9, 59, 72
4, 247701, Note_on_c, 9, 59, 0
4, 247745, Note_on_c, 9, 59, 62
4, 247862, Note_on_c, 9, 59, 0
4, 248491, Note_on_c, 9, 35, 30
4, 248529, Note_on_c, 9, 35, 0
4, 248650, Note_on_c, 9, 59, 76
4, 248765, Note_on_c, 9, 59, 0
4, 249415, Note_on_c, 9, 38, 57
4, 249438, Note_on_c, 9, 59, 72
4, 249462, Note_on_c, 9, 38, 0
4, 249553, Note_on_c, 9, 59, 0
4, 249579, Note_on_c, 9, 35, 30
4, 249600, Note_on_c, 9, 59, 68
4, 249689, Note_on_c, 9, 35, 0
4, 249715, Note_on_c, 9, 59, 0
4, 249885, Note_on_c, 9, 35, 43
4, 249955, Note_on_c, 9, 35, 0
4, 250579, Note_on_c, 9, 59, 83
4, 250695, Note_on_c, 9, 59, 0
4, 250918, Note_on_c, 9, 35, 24
4, 250977, Note_on_c, 9, 35, 0
4, 251234, Note_on_c, 9, 40, 51
4, 251272, Note_on_c, 9, 40, 0
4, 251374, Note_on_c, 9, 59, 71
4, 251387, Note_on_c, 9, 40, 36
4, 251438, Note_on_c, 9, 40, 0
4, 251489, Note_on_c, 9, 59, 0
4, 251532, Note_on_c, 9, 59, 66
4, 251647, Note_on_c, 9, 59, 0
4, 252279, Note_on_c, 9, 35, 30
4, 252322, Note_on_c, 9, 35, 0
4, 252530, Note_on_c, 9, 59, 76
4, 252645, Note_on_c, 9, 59, 0
4, 253011, Note_on_c, 9, 59, 58
4, 253126, Note_on_c, 9, 59, 0
4, 253288, Note_on_c, 9, 40, 43
4, 253306, Note_on_c, 9, 46, 44
4, 253328, Note_on_c, 9, 40, 0
4, 253415, Note_on_c, 9, 35, 32
4, 253421, Note_on_c, 9, 46, 0
4, 253479, Note_on_c, 9, 35, 0
4, 253754, Note_on_c, 9, 35, 50
4, 253822, Note_on_c, 9, 35, 0
4, 253953, Note_on_c, 9, 35, 36
4, 254139, Note_on_c, 9, 35, 0
4, 254242, Note_on_c, 9, 35, 57
4, 254347, Note_on_c, 9, 35, 0
4, 254404, Note_on_c, 9, 59, 79
4, 254520, Note_on_c, 9, 59, 0
4, 255214, Note_on_c, 9, 59, 66
4, 255330, Note_on_c, 9, 59, 0
4, 255375, Note_on_c, 9, 59, 71
4, 255491, Note_on_c, 9, 59, 0
4, 256160, Note_on_c, 9, 59, 68
4, 256276, Note_on_c, 9, 59, 0
4, 256313, Note_on_c, 9, 59, 68
4, 256330, Note_on_c, 9, 40, 26
4, 256374, Note_on_c, 9, 40, 0
4, 256428, Note_on_c, 9, 59, 0
4, 256450, Note_on_c, 9, 40, 17
4, 256509, Note_on_c, 9, 40, 0
4, 256657, Note_on_c, 9, 35, 37
4, 256721, Note_on_c, 9, 35, 0
4, 256826, Note_on_c, 9, 59, 83
4, 256834, Note_on_c, 9, 40, 44
4, 256883, Note_on_c, 9, 40, 0
4, 256943, Note_on_c, 9, 59, 0
4, 257106, Note_on_c, 9, 40, 58
4, 257145, Note_on_c, 9, 40, 0
4, 257319, Note_on_c, 9, 59, 80
4, 257329, Note_on_c, 9, 35, 22
4, 257411, Note_on_c, 9, 35, 0
4, 257436, Note_on_c, 9, 59, 0
4, 258113, Note_on_c, 9, 59, 68
4, 258119, Note_on_c, 9, 35, 29
4, 258160, Note_on_c, 9, 35, 0
4, 258230, Note_on_c, 9, 59, 0
4, 258280, Note_on_c, 9, 59, 75
4, 258398, Note_on_c, 9, 59, 0
4, 258744, Note_on_c, 9, 59, 67
4, 258856, Note_on_c, 9, 59, 0
4, 259048, Note_on_c, 9, 40, 101
4, 259164, Note_on_c, 9, 40, 0
4, 259436, Note_on_c, 9, 44, 59
4, 259500, Note_on_c, 9, 44, 0
4, 259707, Note_on_c, 9, 44, 60
4, 259729, Note_on_c, 9, 36, 75
4, 259824, Note_on_c, 9, 44, 0
4, 259846, Note_on_c, 9, 36, 0
4, 259911, Note_on_c, 9, 44, 48
4, 259945, Note_on_c, 9, 44, 0
4, 260436, Note_on_c, 9, 44, 49
4, 260471, Note_on_c, 9, 44, 0
4, 260924, Note_on_c, 9, 44, 55
4, 260952, Note_on_c, 9, 44, 37
4, 260958, Note_on_c, 9, 44, 0
4, 260972, Note_on_c, 9, 59, 78
4, 261068, Note_on_c, 9, 44, 0
4, 261087, Note_on_c, 9, 59, 0
4, 261149, Note_on_c, 9, 35, 25
4, 261205, Note_on_c, 9, 35, 0
4, 261435, Note_on_c, 9, 35, 46
4, 261483, Note_on_c, 9, 35, 0
4, 261609, Note_on_c, 9, 35, 62
4, 261825, Note_on_c, 9, 35, 0
4, 261922, Note_on_c, 9, 35, 54
4, 262016, Note_on_c, 9, 35, 0
4, 262113, Note_on_c, 9, 59, 68
4, 262228, Note_on_c, 9, 59, 0
4, 262926, Note_on_c, 9, 59, 72
4, 263041, Note_on_c, 9, 59, 0
4, 263096, Note_on_c, 9, 59, 66
4, 263208, Note_on_c, 9, 59, 0
4, 263835, Note_on_c, 9, 59, 68
4, 263950, Note_on_c, 9, 59, 0
4, 263993, Note_on_c, 9, 59, 74
4, 264007, Note_on_c, 9, 40, 47
4, 264052, Note_on_c, 9, 40, 0
4, 264105, Note_on_c, 9, 59, 0
4, 264137, Note_on_c, 9, 40, 51
4, 264173, Note_on_c, 9, 40, 0
4, 264443, Note_on_c, 9, 59, 57
4, 264560, Note_on_c, 9, 59, 0
4, 264753, Note_on_c, 9, 59, 88
4, 264828, Note_on_c, 9, 35, 38
4, 264870, Note_on_c, 9, 59, 0
4, 264874, Note_on_c, 9, 35, 0
4, 264976, Note_on_c, 9, 35, 47
4, 265110, Note_on_c, 9, 35, 0
4, 265916, Note_on_c, 9, 59, 72
4, 266030, Note_on_c, 9, 59, 0
4, 266460, Note_on_c, 9, 40, 45
4, 266498, Note_on_c, 9, 40, 0
4, 266690, Note_on_c, 9, 35, 43
4, 266739, Note_on_c, 9, 35, 0
4, 266750, Note_on_c, 9, 59, 76
4, 266865, Note_on_c, 9, 59, 0
4, 267216, Note_on_c, 9, 59, 76
4, 267331, Note_on_c, 9, 59, 0
4, 267399, Note_on_c, 9, 59, 72
4, 267514, Note_on_c, 9, 59, 0
4, 268175, Note_on_c, 9, 40, 39
4, 268195, Note_on_c, 9, 59, 79
4, 268218, Note_on_c, 9, 40, 0
4, 268308, Note_on_c, 9, 59, 0
4, 268630, Note_on_c, 9, 35, 42
4, 268667, Note_on_c, 9, 59, 79
4, 268744, Note_on_c, 9, 35, 0
4, 268784, Note_on_c, 9, 59, 0
4, 268805, Note_on_c, 9, 35, 36
4, 269031, Note_on_c, 9, 35, 0
4, 269608, Note_on_c, 9, 40, 31
4, 269629, Note_on_c, 9, 59, 72
4, 269650, Note_on_c, 9, 40, 0
4, 269742, Note_on_c, 9, 59, 0
4, 269771, Note_on_c, 9, 36, 31
4, 269811, Note_on_c, 9, 59, 68
4, 269836, Note_on_c, 9, 36, 0
4, 269927, Note_on_c, 9, 59, 0
4, 270082, Note_on_c, 9, 36, 83
4, 270220, Note_on_c, 9, 36, 0
4, 270590, Note_on_c, 9, 59, 72
4, 270707, Note_on_c, 9, 59, 0
4, 270752, Note_on_c, 9, 59, 66
4, 270868, Note_on_c, 9, 59, 0
4, 271244, Note_on_c, 9, 59, 81
4, 271361, Note_on_c, 9, 59, 0
4, 271976, Note_on_c, 9, 59, 66
4, 272020, Note_on_c, 9, 40, 20
4, 272054, Note_on_c, 9, 40, 0
4, 272091, Note_on_c, 9, 59, 0
4, 272128, Note_on_c, 9, 59, 72
4, 272243, Note_on_c, 9, 59, 0
4, 272362, Note_on_c, 9, 40, 50
4, 272407, Note_on_c, 9, 40, 0
4, 272488, Note_on_c, 9, 40, 45
4, 272547, Note_on_c, 9, 40, 0
4, 272654, Note_on_c, 9, 36, 45
4, 272667, Note_on_c, 9, 59, 79
4, 272701, Note_on_c, 9, 36, 0
4, 272782, Note_on_c, 9, 59, 0
4, 273455, Note_on_c, 9, 59, 79
4, 273570, Note_on_c, 9, 59, 0
4, 273910, Note_on_c, 9, 40, 62
4, 273942, Note_on_c, 9, 40, 16
4, 273944, Note_on_c, 9, 40, 0
4, 274057, Note_on_c, 9, 40, 0
4, 274064, Note_on_c, 9, 36, 37
4, 274117, Note_on_c, 9, 36, 0
4, 274389, Note_on_c, 9, 40, 108
4, 274390, Note_on_c, 9, 36, 57
4, 274430, Note_on_c, 9, 36, 0
4, 274504, Note_on_c, 9, 40, 0
4, 274836, Note_on_c, 9, 36, 94
4, 274842, Note_on_c, 9, 46, 61
4, 274951, Note_on_c, 9, 36, 0
4, 274957, Note_on_c, 9, 46, 0
4, 276290, Note_on_c, 9, 46, 48
4, 276324, Note_on_c, 9, 40, 54
4, 276359, Note_on_c, 9, 40, 0
4, 276405, Note_on_c, 9, 46, 0
4, 276475, Note_on_c, 9, 36, 35
4, 276488, Note_on_c, 9, 59, 79
4, 276517, Note_on_c, 9, 36, 0
4, 276604, Note_on_c, 9, 59, 0
4, 277484, Note_on_c, 9, 59, 61
4, 277599, Note_on_c, 9, 59, 0
4, 277761, Note_on_c, 9, 36, 59
4, 277795, Note_on_c, 9, 36, 0
4, 278235, Note_on_c, 9, 59, 65
4, 278350, Note_on_c, 9, 59, 0
4, 278408, Note_on_c, 9, 59, 65
4, 278524, Note_on_c, 9, 59, 0
4, 279379, Note_on_c, 9, 59, 79
4, 279495, Note_on_c, 9, 59, 0
4, 279536, Note_on_c, 9, 40, 37
4, 279592, Note_on_c, 9, 40, 0
4, 279732, Note_on_c, 9, 40, 50
4, 279773, Note_on_c, 9, 40, 0
4, 280176, Note_on_c, 9, 59, 57
4, 280291, Note_on_c, 9, 59, 0
4, 280341, Note_on_c, 9, 59, 66
4, 280456, Note_on_c, 9, 59, 0
4, 281086, Note_on_c, 9, 40, 48
4, 281093, Note_on_c, 9, 59, 68
4, 281124, Note_on_c, 9, 40, 0
4, 281208, Note_on_c, 9, 59, 0
4, 281256, Note_on_c, 9, 59, 75
4, 281258, Note_on_c, 9, 36, 24
4, 281304, Note_on_c, 9, 36, 0
4, 281373, Note_on_c, 9, 59, 0
4, 281578, Note_on_c, 9, 36, 40
4, 281627, Note_on_c, 9, 36, 0
4, 281729, Note_on_c, 9, 59, 55
4, 281845, Note_on_c, 9, 59, 0
4, 282049, Note_on_c, 9, 59, 84
4, 282164, Note_on_c, 9, 59, 0
4, 282515, Note_on_c, 9, 40, 37
4, 282560, Note_on_c, 9, 40, 0
4, 282763, Note_on_c, 9, 59, 68
4, 282878, Note_on_c, 9, 59, 0
4, 283008, Note_on_c, 9, 40, 35
4, 283056, Note_on_c, 9, 40, 0
4, 283507, Note_on_c, 9, 59, 79
4, 283509, Note_on_c, 9, 40, 50
4, 283552, Note_on_c, 9, 40, 0
4, 283622, Note_on_c, 9, 59, 0
4, 283995, Note_on_c, 9, 40, 44
4, 284016, Note_on_c, 9, 59, 66
4, 284038, Note_on_c, 9, 40, 0
4, 284133, Note_on_c, 9, 59, 0
4, 284196, Note_on_c, 9, 59, 65
4, 284201, Note_on_c, 9, 36, 36
4, 284249, Note_on_c, 9, 36, 0
4, 284313, Note_on_c, 9, 59, 0
4, 284475, Note_on_c, 9, 36, 38
4, 284525, Note_on_c, 9, 36, 0
4, 284974, Note_on_c, 9, 59, 66
4, 285089, Note_on_c, 9, 59, 0
4, 285145, Note_on_c, 9, 59, 62
4, 285262, Note_on_c, 9, 59, 0
4, 285609, Note_on_c, 9, 59, 65
4, 285724, Note_on_c, 9, 59, 0
4, 285935, Note_on_c, 9, 59, 81
4, 286047, Note_on_c, 9, 59, 0
4, 286595, Note_on_c, 9, 59, 68
4, 286711, Note_on_c, 9, 59, 0
4, 286869, Note_on_c, 9, 59, 79
4, 286981, Note_on_c, 9, 59, 0
4, 287520, Note_on_c, 9, 59, 61
4, 287635, Note_on_c, 9, 59, 0
4, 287827, Note_on_c, 9, 59, 93
4, 287943, Note_on_c, 9, 59, 0
4, 288494, Note_on_c, 9, 59, 83
4, 288609, Note_on_c, 9, 59, 0
4, 288931, Note_on_c, 9, 59, 63
4, 289047, Note_on_c, 9, 59, 0
4, 289297, Note_on_c, 9, 59, 79
4, 289413, Note_on_c, 9, 59, 0
4, 289763, Note_on_c, 9, 59, 87
4, 289878, Note_on_c, 9, 59, 0
4, 290167, Note_on_c, 9, 44, 46
4, 290216, Note_on_c, 9, 44, 0
4, 290469, Note_on_c, 9, 59, 68
4, 290584, Note_on_c, 9, 59, 0
4, 290658, Note_on_c, 9, 44, 25
4, 290702, Note_on_c, 9, 44, 0
4, 290776, Note_on_c, 9, 59, 87
4, 290892, Note_on_c, 9, 59, 0
4, 291120, Note_on_c, 9, 44, 26
4, 291160, Note_on_c, 9, 44, 0
4, 291233, Note_on_c, 9, 59, 81
4, 291348, Note_on_c, 9, 59, 0
4, 291384, Note_on_c, 9, 59, 83
4, 291500, Note_on_c, 9, 59, 0
4, 291704, Note_on_c, 9, 36, 64
4, 291738, Note_on_c, 9, 36, 0
4, 291859, Note_on_c, 9, 36, 60
4, 292070, Note_on_c, 9, 36, 0
4, 292139, Note_on_c, 9, 59, 75
4, 292252, Note_on_c, 9, 59, 0
4, 292303, Note_on_c, 9, 59, 62
4, 292420, Note_on_c, 9, 59, 0
4, 292864, Note_on_c, 9, 59, 75
4, 292979, Note_on_c, 9, 59, 0
4, 293275, Note_on_c, 9, 40, 46
4, 293292, Note_on_c, 9, 59, 54
4, 293328, Note_on_c, 9, 40, 0
4, 293409, Note_on_c, 9, 59, 0
4, 293445, Note_on_c, 9, 40, 58
4, 293490, Note_on_c, 9, 40, 0
4, 293618, Note_on_c, 9, 59, 91
4, 293638, Note_on_c, 9, 36, 33
4, 293702, Note_on_c, 9, 36, 0
4, 293733, Note_on_c, 9, 59, 0
4, 294570, Note_on_c, 9, 59, 71
4, 294687, Note_on_c, 9, 59, 0
4, 294744, Note_on_c, 9, 59, 68
4, 294859, Note_on_c, 9, 59, 0
4, 295027, Note_on_c, 9, 40, 58
4, 295073, Note_on_c, 9, 40, 0
4, 295225, Note_on_c, 9, 36, 24
4, 295291, Note_on_c, 9, 36, 0
4, 295521, Note_on_c, 9, 36, 47
4, 295576, Note_on_c, 9, 36, 0
4, 295678, Note_on_c, 9, 59, 76
4, 295708, Note_on_c, 9, 36, 35
4, 295781, Note_on_c, 9, 36, 0
4, 295792, Note_on_c, 9, 59, 0
4, 296490, Note_on_c, 9, 36, 56
4, 296496, Note_on_c, 9, 59, 66
4, 296528, Note_on_c, 9, 36, 0
4, 296613, Note_on_c, 9, 59, 0
4, 296664, Note_on_c, 9, 59, 63
4, 296780, Note_on_c, 9, 59, 0
4, 297447, Note_on_c, 9, 36, 75
4, 297448, Note_on_c, 9, 46, 65
4, 297562, Note_on_c, 9, 36, 0
4, 297566, Note_on_c, 9, 46, 0
4, 298408, Note_on_c, 9, 40, 29
4, 298453, Note_on_c, 9, 40, 0
4, 298593, Note_on_c, 9, 59, 74
4, 298710, Note_on_c, 9, 59, 0
4, 298858, Note_on_c, 9, 34, 53
4, 298902, Note_on_c, 9, 59, 72
4, 298941, Note_on_c, 9, 34, 0
4, 299017, Note_on_c, 9, 59, 0
4, 299057, Note_on_c, 9, 59, 78
4, 299172, Note_on_c, 9, 59, 0
4, 299564, Note_on_c, 9, 59, 88
4, 299681, Note_on_c, 9, 59, 0
4, 300326, Note_on_c, 9, 59, 66
4, 300438, Note_on_c, 9, 59, 0
4, 300499, Note_on_c, 9, 59, 76
4, 300615, Note_on_c, 9, 59, 0
4, 300834, Note_on_c, 9, 40, 51
4, 300875, Note_on_c, 9, 40, 0
4, 301013, Note_on_c, 9, 36, 17
4, 301107, Note_on_c, 9, 36, 0
4, 301273, Note_on_c, 9, 36, 56
4, 301309, Note_on_c, 9, 59, 66
4, 301331, Note_on_c, 9, 36, 0
4, 301424, Note_on_c, 9, 59, 0
4, 301464, Note_on_c, 9, 59, 79
4, 301467, Note_on_c, 9, 36, 46
4, 301526, Note_on_c, 9, 36, 0
4, 301579, Note_on_c, 9, 59, 0
4, 302233, Note_on_c, 9, 40, 43
4, 302272, Note_on_c, 9, 40, 0
4, 302398, Note_on_c, 9, 36, 27
4, 302432, Note_on_c, 9, 59, 80
4, 302437, Note_on_c, 9, 36, 0
4, 302544, Note_on_c, 9, 59, 0
4, 302698, Note_on_c, 9, 36, 51
4, 302758, Note_on_c, 9, 36, 0
4, 302924, Note_on_c, 9, 59, 54
4, 303040, Note_on_c, 9, 59, 0
4, 303219, Note_on_c, 9, 59, 87
4, 303230, Note_on_c, 9, 36, 60
4, 303264, Note_on_c, 9, 36, 0
4, 303335, Note_on_c, 9, 59, 0
4, 303883, Note_on_c, 9, 59, 89
4, 303998, Note_on_c, 9, 59, 0
4, 304204, Note_on_c, 9, 36, 58
4, 304240, Note_on_c, 9, 36, 0
4, 304376, Note_on_c, 9, 36, 40
4, 304445, Note_on_c, 9, 36, 0
4, 304842, Note_on_c, 9, 59, 74
4, 304957, Note_on_c, 9, 59, 0
4, 305143, Note_on_c, 9, 40, 107
4, 305172, Note_on_c, 9, 36, 55
4, 305206, Note_on_c, 9, 36, 0
4, 305258, Note_on_c, 9, 40, 0
4, 305617, Note_on_c, 9, 59, 96
4, 305628, Note_on_c, 9, 36, 68
4, 305728, Note_on_c, 9, 59, 0
4, 305739, Note_on_c, 9, 36, 0
4, 306071, Note_on_c, 9, 36, 54
4, 306105, Note_on_c, 9, 36, 0
4, 307066, Note_on_c, 9, 59, 71
4, 307178, Note_on_c, 9, 59, 0
4, 307210, Note_on_c, 9, 36, 31
4, 307213, Note_on_c, 9, 59, 72
4, 307272, Note_on_c, 9, 36, 0
4, 307324, Note_on_c, 9, 59, 0
4, 307536, Note_on_c, 9, 59, 36
4, 307575, Note_on_c, 9, 59, 0
4, 307660, Note_on_c, 9, 44, 35
4, 307696, Note_on_c, 9, 44, 0
4, 307992, Note_on_c, 9, 36, 47
4, 308035, Note_on_c, 9, 36, 0
4, 308456, Note_on_c, 9, 59, 50
4, 308490, Note_on_c, 9, 59, 0
4, 308974, Note_on_c, 9, 36, 51
4, 309009, Note_on_c, 9, 36, 0
4, 309124, Note_on_c, 9, 59, 53
4, 309309, Note_on_c, 9, 59, 0
4, 309438, Note_on_c, 9, 59, 34
4, 309482, Note_on_c, 9, 59, 0
4, 309910, Note_on_c, 9, 36, 30
4, 309953, Note_on_c, 9, 36, 0
4, 310377, Note_on_c, 9, 40, 63
4, 310428, Note_on_c, 9, 40, 0
4, 310832, Note_on_c, 9, 36, 69
4, 310909, Note_on_c, 9, 36, 0
4, 311033, Note_on_c, 9, 36, 26
4, 311067, Note_on_c, 9, 36, 0
4, 311848, Note_on_c, 9, 59, 37
4, 311893, Note_on_c, 9, 59, 0
4, 312009, Note_on_c, 9, 59, 49
4, 312101, Note_on_c, 9, 59, 0
4, 312306, Note_on_c, 9, 36, 42
4, 312348, Note_on_c, 9, 36, 0
4, 312348, End_track
0, 0, End_of_file
