0, 0, Header, 1, 2, 960
1, 0, Start_track
1, 0, Title_t, "Taking a Chance on Love - solo piano"
1, 0, Text_t, "Vernon Duke\012"
1, 0, Text_t, "dougmck@pipeline.com.au\012"
1, 0, Text_t, "Recorded after listening to Andre Previn's version on his 'Andre Previn Plays Vernon Duke' CD\012"
1, 0, Time_signature, 4, 2, 24, 8
1, 0, Key_signature, 0, "major"
1, 0, Tempo, 521739
1, 0, Marker_t, "Melody is simplified - over a G pedal tone in Bass"
1, 21040, Marker_t, "On Am7/ D7, LH plays a descending line from the 9th (B) down to the D"
1, 30807, Marker_t, "Last phrase of the A section played with no chord - unison 2 octaves apart"
1, 35050, Marker_t, "Descending Db scale (on Ebm7 chord)"
1, 39336, Marker_t, "On Dm7 - arpeggio, then chord tones  with diatonic neighbours"
1, 43680, Marker_t, "Finally a G Major triad arpeggio"
1, 48829, Marker_t, "Repeated 3 note figure (G,A,G) with the melody above as an escape tone "
1, 89136, Marker_t, "F Maj7 #5 (= A/F)"
1, 95920, Marker_t, "Bb used as a pedal tone under Fm7/Bb7/Ebmaj7"
1, 122650, Marker_t, "Abrupt modulation to Cminor (Eb Major)"
1, 132912, Marker_t, "Back to C Major"
1, 151658, Marker_t, "In tempo - Walking bass in Left hand"
1, 157222, Marker_t, "No pedal used over this"
1, 161376, Marker_t, "Begins very simply with lots of space - bass line in LH  - single note improvised melody in RH"
1, 195472, Marker_t, "A simple descending phrase over am7"
1, 199680, Marker_t, "Previous phrase is echoed over a new chord (D7 alt)"
1, 219088, Marker_t, "Beginning to use chords"
1, 230560, Marker_t, "The rhythm and intervals of a short melodic phrase  on E dim - is echoed in a new position over Ab7/G7"
1, 266784, Marker_t, "Sort of 'stop' time - because the melody begins each phrase  on beat 2, the root of the chord with neighbours can be plaayed on beat 1"
1, 327055, Marker_t, "Back to walking bass for bridge"
1, 358844, Marker_t, "Melody with pedal G in LH"
1, 358844, End_track
2, 0, Start_track
2, 0, Title_t, "MIDI 1"
2, 0, Control_c, 0, 7, 70
2, 0, Control_c, 0, 64, 127
2, 670, Note_on_c, 0, 79, 67
2, 691, Control_c, 0, 64, 0
2, 721, Note_on_c, 0, 76, 68
2, 753, Note_on_c, 0, 74, 62
2, 771, Note_on_c, 0, 67, 39
2, 789, Note_on_c, 0, 64, 28
2, 800, Note_on_c, 0, 71, 45
2, 831, Note_on_c, 0, 62, 20
2, 933, Control_c, 0, 64, 127
2, 1072, Note_on_c, 0, 67, 0
2, 1129, Note_on_c, 0, 79, 0
2, 1339, Note_on_c, 0, 79, 69
2, 1569, Note_on_c, 0, 79, 0
2, 1741, Note_on_c, 0, 76, 0
2, 1830, Note_on_c, 0, 79, 62
2, 1868, Note_on_c, 0, 55, 40
2, 1961, Note_on_c, 0, 62, 0
2, 1972, Note_on_c, 0, 74, 0
2, 1979, Note_on_c, 0, 64, 0
2, 2029, Note_on_c, 0, 79, 0
2, 2174, Note_on_c, 0, 71, 0
2, 2205, Note_on_c, 0, 79, 64
2, 2385, Note_on_c, 0, 79, 0
2, 2563, Note_on_c, 0, 79, 64
2, 2568, Control_c, 0, 64, 0
2, 2624, Note_on_c, 0, 64, 32
2, 2625, Note_on_c, 0, 73, 43
2, 2641, Note_on_c, 0, 61, 28
2, 2683, Note_on_c, 0, 70, 35
2, 2830, Note_on_c, 0, 79, 0
2, 2857, Control_c, 0, 64, 127
2, 2985, Note_on_c, 0, 79, 61
2, 3051, Note_on_c, 0, 55, 0
2, 3189, Note_on_c, 0, 79, 0
2, 3344, Note_on_c, 0, 70, 0
2, 3405, Note_on_c, 0, 79, 54
2, 3423, Note_on_c, 0, 55, 25
2, 3509, Note_on_c, 0, 64, 0
2, 3579, Note_on_c, 0, 79, 0
2, 3580, Note_on_c, 0, 61, 0
2, 3830, Note_on_c, 0, 73, 0
2, 3865, Note_on_c, 0, 79, 62
2, 4092, Note_on_c, 0, 79, 0
2, 4328, Note_on_c, 0, 79, 58
2, 4361, Note_on_c, 0, 57, 17
2, 4385, Note_on_c, 0, 60, 24
2, 4392, Note_on_c, 0, 65, 24
2, 4393, Note_on_c, 0, 72, 40
2, 4417, Note_on_c, 0, 69, 36
2, 4429, Control_c, 0, 64, 0
2, 4766, Control_c, 0, 64, 127
2, 4784, Note_on_c, 0, 79, 0
2, 4910, Note_on_c, 0, 55, 0
2, 4967, Note_on_c, 0, 77, 60
2, 5271, Note_on_c, 0, 77, 0
2, 5481, Note_on_c, 0, 57, 0
2, 5513, Note_on_c, 0, 77, 53
2, 5523, Note_on_c, 0, 55, 43
2, 5588, Note_on_c, 0, 65, 0
2, 5593, Note_on_c, 0, 60, 0
2, 5715, Note_on_c, 0, 55, 0
2, 5795, Note_on_c, 0, 77, 0
2, 6123, Note_on_c, 0, 77, 49
2, 6408, Note_on_c, 0, 77, 0
2, 6811, Note_on_c, 0, 77, 49
2, 6814, Note_on_c, 0, 31, 38
2, 6833, Note_on_c, 0, 43, 25
2, 7265, Note_on_c, 0, 69, 0
2, 7596, Note_on_c, 0, 72, 0
2, 7697, Note_on_c, 0, 31, 0
2, 7766, Note_on_c, 0, 43, 0
2, 8505, Note_on_c, 0, 67, 44
2, 8657, Note_on_c, 0, 69, 5
2, 8905, Note_on_c, 0, 77, 0
2, 9403, Note_on_c, 0, 77, 52
2, 9705, Note_on_c, 0, 69, 0
2, 9800, Note_on_c, 0, 77, 0
2, 9869, Note_on_c, 0, 67, 0
2, 10161, Note_on_c, 0, 77, 62
2, 10216, Note_on_c, 0, 67, 51
2, 10217, Note_on_c, 0, 74, 51
2, 10219, Note_on_c, 0, 72, 56
2, 10232, Note_on_c, 0, 68, 56
2, 10240, Control_c, 0, 64, 0
2, 10491, Note_on_c, 0, 77, 0
2, 10511, Control_c, 0, 64, 127
2, 10631, Note_on_c, 0, 77, 63
2, 10876, Note_on_c, 0, 77, 0
2, 10973, Note_on_c, 0, 74, 0
2, 11006, Note_on_c, 0, 68, 0
2, 11048, Note_on_c, 0, 77, 64
2, 11084, Note_on_c, 0, 55, 49
2, 11105, Control_c, 0, 64, 0
2, 11220, Note_on_c, 0, 67, 0
2, 11291, Note_on_c, 0, 77, 0
2, 11313, Control_c, 0, 64, 127
2, 11446, Note_on_c, 0, 77, 62
2, 11689, Note_on_c, 0, 72, 0
2, 11734, Note_on_c, 0, 77, 0
2, 11971, Note_on_c, 0, 77, 50
2, 11989, Control_c, 0, 64, 0
2, 11992, Note_on_c, 0, 65, 35
2, 12004, Note_on_c, 0, 68, 26
2, 12008, Note_on_c, 0, 71, 49
2, 12277, Control_c, 0, 64, 127
2, 12315, Note_on_c, 0, 77, 0
2, 12579, Note_on_c, 0, 77, 53
2, 12832, Note_on_c, 0, 55, 0
2, 12869, Note_on_c, 0, 77, 0
2, 13161, Note_on_c, 0, 77, 54
2, 13177, Note_on_c, 0, 55, 36
2, 13283, Note_on_c, 0, 65, 0
2, 13489, Note_on_c, 0, 77, 0
2, 13803, Note_on_c, 0, 77, 62
2, 14102, Note_on_c, 0, 68, 0
2, 14339, Note_on_c, 0, 71, 0
2, 14365, Note_on_c, 0, 77, 0
2, 14601, Note_on_c, 0, 77, 67
2, 14619, Control_c, 0, 64, 0
2, 14640, Note_on_c, 0, 71, 66
2, 14648, Note_on_c, 0, 74, 55
2, 14653, Note_on_c, 0, 68, 57
2, 14661, Note_on_c, 0, 64, 41
2, 14891, Control_c, 0, 64, 127
2, 15256, Note_on_c, 0, 77, 0
2, 15259, Note_on_c, 0, 74, 0
2, 15377, Note_on_c, 0, 76, 64
2, 15435, Note_on_c, 0, 64, 0
2, 15508, Note_on_c, 0, 55, 0
2, 15552, Note_on_c, 0, 71, 0
2, 15565, Note_on_c, 0, 76, 0
2, 15566, Note_on_c, 0, 68, 0
2, 16099, Note_on_c, 0, 76, 77
2, 16547, Note_on_c, 0, 76, 0
2, 16739, Note_on_c, 0, 76, 40
2, 16766, Note_on_c, 0, 71, 50
2, 16768, Note_on_c, 0, 64, 32
2, 16769, Note_on_c, 0, 68, 30
2, 16774, Note_on_c, 0, 48, 30
2, 16805, Control_c, 0, 64, 0
2, 16808, Note_on_c, 0, 74, 24
2, 17204, Control_c, 0, 64, 127
2, 17339, Note_on_c, 0, 64, 0
2, 17350, Note_on_c, 0, 68, 0
2, 17369, Note_on_c, 0, 71, 0
2, 17408, Note_on_c, 0, 74, 0
2, 17535, Note_on_c, 0, 56, 32
2, 18177, Note_on_c, 0, 48, 0
2, 18240, Note_on_c, 0, 56, 0
2, 18259, Note_on_c, 0, 59, 35
2, 18760, Note_on_c, 0, 59, 0
2, 18993, Note_on_c, 0, 62, 36
2, 19623, Note_on_c, 0, 62, 0
2, 19891, Note_on_c, 0, 68, 48
2, 19923, Note_on_c, 0, 76, 0
2, 20308, Note_on_c, 0, 68, 0
2, 20465, Note_on_c, 0, 69, 44
2, 20585, Note_on_c, 0, 69, 0
2, 20727, Note_on_c, 0, 71, 50
2, 20847, Note_on_c, 0, 71, 0
2, 21232, Note_on_c, 0, 71, 87
2, 21233, Note_on_c, 0, 76, 85
2, 21237, Note_on_c, 0, 72, 81
2, 21246, Note_on_c, 0, 59, 54
2, 21251, Note_on_c, 0, 64, 44
2, 21252, Note_on_c, 0, 60, 45
2, 21296, Control_c, 0, 64, 0
2, 21601, Note_on_c, 0, 76, 0
2, 21681, Control_c, 0, 64, 127
2, 21805, Note_on_c, 0, 76, 80
2, 21910, Note_on_c, 0, 71, 0
2, 22110, Note_on_c, 0, 72, 0
2, 22139, Note_on_c, 0, 76, 0
2, 22147, Note_on_c, 0, 59, 0
2, 22259, Note_on_c, 0, 76, 75
2, 22265, Note_on_c, 0, 57, 48
2, 22269, Note_on_c, 0, 69, 62
2, 22275, Note_on_c, 0, 72, 61
2, 22291, Control_c, 0, 64, 0
2, 22527, Note_on_c, 0, 76, 0
2, 22563, Control_c, 0, 64, 127
2, 22678, Note_on_c, 0, 76, 64
2, 22771, Note_on_c, 0, 69, 0
2, 22881, Note_on_c, 0, 76, 0
2, 22907, Note_on_c, 0, 57, 0
2, 23017, Note_on_c, 0, 72, 0
2, 23078, Note_on_c, 0, 56, 64
2, 23093, Control_c, 0, 64, 0
2, 23095, Note_on_c, 0, 72, 35
2, 23115, Note_on_c, 0, 76, 71
2, 23137, Note_on_c, 0, 68, 37
2, 23320, Note_on_c, 0, 76, 0
2, 23381, Control_c, 0, 64, 127
2, 23539, Note_on_c, 0, 76, 73
2, 23720, Note_on_c, 0, 56, 0
2, 23765, Note_on_c, 0, 72, 0
2, 23768, Note_on_c, 0, 68, 0
2, 23830, Note_on_c, 0, 76, 0
2, 23843, Note_on_c, 0, 64, 0
2, 23878, Note_on_c, 0, 60, 0
2, 23960, Control_c, 0, 64, 0
2, 23993, Note_on_c, 0, 55, 38
2, 23995, Note_on_c, 0, 76, 60
2, 24009, Note_on_c, 0, 64, 33
2, 24014, Note_on_c, 0, 60, 15
2, 24029, Note_on_c, 0, 72, 49
2, 24038, Note_on_c, 0, 67, 46
2, 24216, Control_c, 0, 64, 127
2, 24273, Note_on_c, 0, 76, 0
2, 24317, Note_on_c, 0, 64, 0
2, 24339, Note_on_c, 0, 60, 0
2, 24400, Note_on_c, 0, 72, 0
2, 24403, Note_on_c, 0, 55, 0
2, 24459, Note_on_c, 0, 76, 60
2, 24501, Note_on_c, 0, 67, 0
2, 24639, Note_on_c, 0, 76, 0
2, 24937, Control_c, 0, 64, 0
2, 24966, Note_on_c, 0, 76, 62
2, 24982, Note_on_c, 0, 60, 28
2, 24983, Note_on_c, 0, 72, 48
2, 24990, Note_on_c, 0, 66, 33
2, 24998, Note_on_c, 0, 54, 31
2, 25177, Control_c, 0, 64, 127
2, 25324, Note_on_c, 0, 76, 0
2, 25496, Note_on_c, 0, 76, 47
2, 25792, Note_on_c, 0, 72, 0
2, 25800, Note_on_c, 0, 76, 0
2, 25848, Note_on_c, 0, 66, 0
2, 25949, Note_on_c, 0, 60, 0
2, 26013, Control_c, 0, 64, 0
2, 26016, Note_on_c, 0, 54, 0
2, 26027, Note_on_c, 0, 74, 55
2, 26030, Note_on_c, 0, 52, 45
2, 26054, Note_on_c, 0, 66, 27
2, 26285, Control_c, 0, 64, 127
2, 26329, Note_on_c, 0, 60, 1
2, 26524, Control_c, 0, 64, 0
2, 26526, Note_on_c, 0, 52, 0
2, 26560, Note_on_c, 0, 74, 0
2, 26614, Note_on_c, 0, 51, 30
2, 26638, Note_on_c, 0, 66, 0
2, 26814, Control_c, 0, 64, 127
2, 26949, Note_on_c, 0, 60, 0
2, 27019, Note_on_c, 0, 51, 0
2, 27273, Note_on_c, 0, 74, 40
2, 27285, Note_on_c, 0, 60, 24
2, 27302, Note_on_c, 0, 50, 27
2, 27326, Control_c, 0, 64, 0
2, 27329, Note_on_c, 0, 66, 21
2, 27349, Note_on_c, 0, 64, 32
2, 27857, Control_c, 0, 64, 127
2, 28043, Note_on_c, 0, 57, 32
2, 28116, Note_on_c, 0, 64, 0
2, 28209, Note_on_c, 0, 60, 0
2, 28289, Note_on_c, 0, 66, 0
2, 28859, Note_on_c, 0, 64, 35
2, 28883, Note_on_c, 0, 66, 28
2, 28915, Note_on_c, 0, 60, 18
2, 29679, Note_on_c, 0, 64, 0
2, 29989, Note_on_c, 0, 60, 0
2, 30030, Note_on_c, 0, 57, 0
2, 30088, Note_on_c, 0, 66, 0
2, 30117, Note_on_c, 0, 50, 0
2, 30164, Note_on_c, 0, 74, 0
2, 31016, Note_on_c, 0, 72, 57
2, 31022, Note_on_c, 0, 48, 57
2, 31038, Control_c, 0, 64, 0
2, 31049, Control_c, 0, 64, 0
2, 31134, Note_on_c, 0, 72, 0
2, 31140, Note_on_c, 0, 48, 0
2, 31515, Note_on_c, 0, 74, 67
2, 31526, Note_on_c, 0, 50, 67
2, 31656, Note_on_c, 0, 74, 0
2, 31667, Note_on_c, 0, 50, 0
2, 31795, Note_on_c, 0, 48, 43
2, 31796, Note_on_c, 0, 72, 43
2, 31901, Note_on_c, 0, 48, 0
2, 31902, Note_on_c, 0, 72, 0
2, 31917, Note_on_c, 0, 74, 46
2, 31928, Note_on_c, 0, 50, 46
2, 32050, Note_on_c, 0, 74, 0
2, 32061, Note_on_c, 0, 50, 0
2, 32061, Note_on_c, 0, 72, 40
2, 32072, Note_on_c, 0, 48, 40
2, 32241, Note_on_c, 0, 72, 0
2, 32252, Note_on_c, 0, 48, 0
2, 32252, Note_on_c, 0, 69, 27
2, 32281, Note_on_c, 0, 45, 27
2, 32342, Note_on_c, 0, 69, 0
2, 32371, Note_on_c, 0, 45, 0
2, 32495, Note_on_c, 0, 71, 48
2, 32512, Note_on_c, 0, 47, 48
2, 33070, Control_c, 0, 64, 127
2, 33283, Note_on_c, 0, 71, 0
2, 33300, Note_on_c, 0, 47, 0
2, 33787, Note_on_c, 0, 81, 75
2, 34040, Note_on_c, 0, 81, 0
2, 34337, Control_c, 0, 64, 0
2, 34368, Note_on_c, 0, 79, 58
2, 34377, Note_on_c, 0, 67, 52
2, 34401, Note_on_c, 0, 74, 52
2, 34403, Note_on_c, 0, 52, 36
2, 34425, Note_on_c, 0, 62, 32
2, 34517, Note_on_c, 0, 67, 0
2, 34577, Control_c, 0, 64, 127
2, 34683, Note_on_c, 0, 74, 0
2, 34694, Note_on_c, 0, 62, 0
2, 34741, Note_on_c, 0, 79, 0
2, 34785, Note_on_c, 0, 52, 0
2, 35312, Note_on_c, 0, 94, 79
2, 35621, Note_on_c, 0, 92, 57
2, 35820, Note_on_c, 0, 94, 0
2, 35872, Note_on_c, 0, 90, 55
2, 35916, Note_on_c, 0, 92, 0
2, 36070, Note_on_c, 0, 90, 0
2, 36102, Note_on_c, 0, 89, 57
2, 36201, Note_on_c, 0, 89, 0
2, 36336, Note_on_c, 0, 87, 58
2, 36489, Note_on_c, 0, 39, 44
2, 36491, Note_on_c, 0, 85, 61
2, 36495, Note_on_c, 0, 87, 0
2, 36526, Note_on_c, 0, 54, 25
2, 36550, Control_c, 0, 64, 0
2, 36621, Note_on_c, 0, 85, 0
2, 36648, Note_on_c, 0, 84, 40
2, 36687, Note_on_c, 0, 84, 0
2, 36824, Control_c, 0, 64, 127
2, 36880, Note_on_c, 0, 82, 38
2, 37016, Note_on_c, 0, 80, 31
2, 37056, Note_on_c, 0, 39, 0
2, 37076, Note_on_c, 0, 82, 0
2, 37089, Note_on_c, 0, 78, 37
2, 37107, Note_on_c, 0, 80, 0
2, 37188, Note_on_c, 0, 78, 0
2, 37213, Note_on_c, 0, 54, 0
2, 37256, Note_on_c, 0, 77, 50
2, 37304, Note_on_c, 0, 77, 0
2, 37413, Note_on_c, 0, 75, 47
2, 37467, Note_on_c, 0, 75, 0
2, 37552, Note_on_c, 0, 73, 36
2, 37691, Note_on_c, 0, 73, 0
2, 37715, Note_on_c, 0, 65, 34
2, 37731, Note_on_c, 0, 72, 43
2, 37763, Note_on_c, 0, 61, 24
2, 37792, Note_on_c, 0, 65, 0
2, 37797, Note_on_c, 0, 54, 17
2, 37817, Note_on_c, 0, 72, 0
2, 37861, Note_on_c, 0, 61, 0
2, 37897, Note_on_c, 0, 70, 59
2, 37931, Note_on_c, 0, 54, 0
2, 38075, Note_on_c, 0, 69, 55
2, 38077, Note_on_c, 0, 70, 0
2, 38232, Note_on_c, 0, 68, 40
2, 38281, Note_on_c, 0, 69, 0
2, 38352, Note_on_c, 0, 68, 0
2, 38400, Note_on_c, 0, 67, 25
2, 38515, Note_on_c, 0, 67, 0
2, 38615, Note_on_c, 0, 66, 44
2, 38742, Note_on_c, 0, 66, 0
2, 38790, Note_on_c, 0, 65, 50
2, 38896, Note_on_c, 0, 60, 24
2, 38912, Note_on_c, 0, 57, 36
2, 38933, Note_on_c, 0, 65, 0
2, 38947, Note_on_c, 0, 50, 25
2, 38955, Note_on_c, 0, 64, 66
2, 38958, Control_c, 0, 64, 0
2, 39553, Note_on_c, 0, 64, 0
2, 39568, Note_on_c, 0, 65, 63
2, 39701, Note_on_c, 0, 65, 0
2, 39821, Note_on_c, 0, 69, 58
2, 39950, Note_on_c, 0, 69, 0
2, 40013, Note_on_c, 0, 72, 66
2, 40110, Note_on_c, 0, 72, 0
2, 40248, Note_on_c, 0, 76, 58
2, 40315, Note_on_c, 0, 76, 0
2, 40487, Note_on_c, 0, 79, 74
2, 40595, Note_on_c, 0, 79, 0
2, 40790, Note_on_c, 0, 77, 53
2, 40899, Note_on_c, 0, 77, 0
2, 41044, Note_on_c, 0, 73, 43
2, 41144, Note_on_c, 0, 73, 0
2, 41301, Note_on_c, 0, 76, 68
2, 41456, Note_on_c, 0, 76, 0
2, 41564, Note_on_c, 0, 73, 33
2, 41627, Note_on_c, 0, 73, 0
2, 41855, Note_on_c, 0, 74, 54
2, 42032, Note_on_c, 0, 74, 0
2, 42161, Note_on_c, 0, 69, 49
2, 42247, Note_on_c, 0, 69, 0
2, 42493, Note_on_c, 0, 72, 63
2, 42521, Note_on_c, 0, 60, 0
2, 42558, Note_on_c, 0, 57, 0
2, 42592, Note_on_c, 0, 50, 0
2, 42651, Note_on_c, 0, 72, 0
2, 42758, Note_on_c, 0, 74, 45
2, 42896, Note_on_c, 0, 74, 0
2, 42902, Note_on_c, 0, 72, 44
2, 43045, Note_on_c, 0, 72, 0
2, 43053, Note_on_c, 0, 69, 43
2, 43265, Note_on_c, 0, 69, 0
2, 43357, Note_on_c, 0, 70, 46
2, 43515, Note_on_c, 0, 70, 0
2, 43643, Note_on_c, 0, 71, 42
2, 43921, Note_on_c, 0, 71, 0
2, 44024, Note_on_c, 0, 74, 55
2, 44165, Note_on_c, 0, 74, 0
2, 44400, Note_on_c, 0, 79, 53
2, 44537, Note_on_c, 0, 79, 0
2, 44787, Note_on_c, 0, 83, 45
2, 45051, Note_on_c, 0, 83, 0
2, 45189, Note_on_c, 0, 86, 55
2, 45316, Note_on_c, 0, 86, 0
2, 45622, Note_on_c, 0, 91, 53
2, 45763, Note_on_c, 0, 91, 0
2, 46094, Note_on_c, 0, 95, 49
2, 46513, Note_on_c, 0, 95, 0
2, 46590, Note_on_c, 0, 98, 53
2, 46664, Note_on_c, 0, 31, 31
2, 47027, Note_on_c, 0, 98, 0
2, 47067, Note_on_c, 0, 31, 0
2, 49038, Note_on_c, 0, 55, 51
2, 49044, Note_on_c, 0, 91, 64
2, 49159, Note_on_c, 0, 91, 0
2, 49244, Note_on_c, 0, 55, 0
2, 49283, Note_on_c, 0, 79, 48
2, 49399, Note_on_c, 0, 79, 0
2, 49508, Note_on_c, 0, 81, 36
2, 49662, Note_on_c, 0, 81, 0
2, 49762, Note_on_c, 0, 79, 33
2, 49902, Note_on_c, 0, 60, 28
2, 49904, Note_on_c, 0, 64, 19
2, 49914, Note_on_c, 0, 79, 0
2, 49963, Note_on_c, 0, 91, 72
2, 49995, Note_on_c, 0, 67, 29
2, 50076, Note_on_c, 0, 91, 0
2, 50191, Note_on_c, 0, 79, 33
2, 50306, Note_on_c, 0, 79, 0
2, 50424, Note_on_c, 0, 81, 24
2, 50589, Note_on_c, 0, 81, 0
2, 50640, Note_on_c, 0, 79, 36
2, 50841, Note_on_c, 0, 79, 0
2, 50859, Note_on_c, 0, 60, 0
2, 50873, Note_on_c, 0, 55, 44
2, 50885, Note_on_c, 0, 91, 76
2, 50994, Note_on_c, 0, 64, 0
2, 51062, Note_on_c, 0, 91, 0
2, 51108, Note_on_c, 0, 79, 50
2, 51254, Note_on_c, 0, 79, 0
2, 51534, Note_on_c, 0, 79, 49
2, 51696, Note_on_c, 0, 79, 0
2, 51718, Note_on_c, 0, 67, 0
2, 51731, Note_on_c, 0, 91, 74
2, 51791, Note_on_c, 0, 61, 56
2, 51794, Note_on_c, 0, 64, 43
2, 51859, Note_on_c, 0, 91, 0
2, 51879, Note_on_c, 0, 55, 0
2, 51943, Note_on_c, 0, 79, 51
2, 52083, Note_on_c, 0, 79, 0
2, 52230, Note_on_c, 0, 81, 8
2, 52350, Note_on_c, 0, 81, 0
2, 52408, Note_on_c, 0, 79, 44
2, 52575, Note_on_c, 0, 79, 0
2, 52613, Note_on_c, 0, 91, 75
2, 52622, Note_on_c, 0, 61, 0
2, 52643, Note_on_c, 0, 64, 0
2, 52648, Note_on_c, 0, 55, 47
2, 52747, Note_on_c, 0, 91, 0
2, 52822, Note_on_c, 0, 79, 40
2, 52956, Note_on_c, 0, 79, 0
2, 53031, Note_on_c, 0, 81, 28
2, 53195, Note_on_c, 0, 81, 0
2, 53223, Note_on_c, 0, 79, 36
2, 53392, Note_on_c, 0, 79, 0
2, 53433, Note_on_c, 0, 89, 78
2, 53468, Note_on_c, 0, 55, 0
2, 53472, Note_on_c, 0, 62, 42
2, 53475, Note_on_c, 0, 65, 45
2, 53496, Note_on_c, 0, 60, 30
2, 53596, Note_on_c, 0, 89, 0
2, 53632, Note_on_c, 0, 79, 43
2, 53738, Note_on_c, 0, 65, 0
2, 53739, Note_on_c, 0, 60, 0
2, 53754, Note_on_c, 0, 62, 0
2, 53760, Note_on_c, 0, 79, 0
2, 53819, Note_on_c, 0, 81, 51
2, 54011, Note_on_c, 0, 81, 0
2, 54030, Note_on_c, 0, 79, 49
2, 54180, Note_on_c, 0, 79, 0
2, 54214, Note_on_c, 0, 89, 75
2, 54273, Note_on_c, 0, 55, 47
2, 54388, Note_on_c, 0, 89, 0
2, 54442, Note_on_c, 0, 79, 49
2, 54550, Note_on_c, 0, 79, 0
2, 54617, Note_on_c, 0, 81, 40
2, 54802, Note_on_c, 0, 81, 0
2, 54829, Note_on_c, 0, 79, 44
2, 54990, Note_on_c, 0, 79, 0
2, 55015, Note_on_c, 0, 65, 66
2, 55018, Note_on_c, 0, 62, 51
2, 55020, Note_on_c, 0, 60, 39
2, 55026, Note_on_c, 0, 89, 80
2, 55038, Note_on_c, 0, 55, 0
2, 55191, Note_on_c, 0, 89, 0
2, 55228, Note_on_c, 0, 79, 35
2, 55297, Note_on_c, 0, 79, 0
2, 55363, Note_on_c, 0, 81, 36
2, 55509, Note_on_c, 0, 81, 0
2, 55553, Note_on_c, 0, 79, 47
2, 55688, Note_on_c, 0, 79, 0
2, 55728, Note_on_c, 0, 60, 0
2, 55735, Note_on_c, 0, 89, 71
2, 55779, Note_on_c, 0, 65, 0
2, 55798, Note_on_c, 0, 55, 79
2, 55853, Note_on_c, 0, 62, 0
2, 55872, Note_on_c, 0, 89, 0
2, 55924, Note_on_c, 0, 79, 46
2, 56008, Note_on_c, 0, 79, 0
2, 56096, Note_on_c, 0, 81, 35
2, 56227, Note_on_c, 0, 81, 0
2, 56272, Note_on_c, 0, 79, 45
2, 56406, Note_on_c, 0, 79, 0
2, 56430, Note_on_c, 0, 55, 0
2, 56465, Note_on_c, 0, 89, 78
2, 56498, Note_on_c, 0, 65, 46
2, 56506, Note_on_c, 0, 59, 46
2, 56507, Note_on_c, 0, 62, 37
2, 56610, Note_on_c, 0, 65, 0
2, 56613, Note_on_c, 0, 89, 0
2, 56625, Note_on_c, 0, 62, 0
2, 56638, Note_on_c, 0, 59, 0
2, 56673, Note_on_c, 0, 79, 42
2, 56762, Note_on_c, 0, 79, 0
2, 56851, Note_on_c, 0, 81, 44
2, 56987, Note_on_c, 0, 81, 0
2, 57032, Note_on_c, 0, 79, 54
2, 57148, Note_on_c, 0, 79, 0
2, 57180, Note_on_c, 0, 55, 45
2, 57203, Note_on_c, 0, 89, 75
2, 57334, Note_on_c, 0, 89, 0
2, 57389, Note_on_c, 0, 79, 43
2, 57473, Note_on_c, 0, 79, 0
2, 57560, Note_on_c, 0, 81, 31
2, 57690, Note_on_c, 0, 81, 0
2, 57729, Note_on_c, 0, 79, 32
2, 57873, Note_on_c, 0, 79, 0
2, 57898, Note_on_c, 0, 59, 46
2, 57904, Note_on_c, 0, 65, 38
2, 57911, Note_on_c, 0, 55, 0
2, 57915, Note_on_c, 0, 62, 29
2, 57917, Note_on_c, 0, 89, 79
2, 58052, Note_on_c, 0, 89, 0
2, 58093, Note_on_c, 0, 62, 0
2, 58112, Note_on_c, 0, 79, 41
2, 58192, Note_on_c, 0, 79, 0
2, 58254, Note_on_c, 0, 81, 51
2, 58333, Note_on_c, 0, 59, 0
2, 58402, Note_on_c, 0, 81, 0
2, 58448, Note_on_c, 0, 79, 57
2, 58549, Note_on_c, 0, 65, 0
2, 58564, Note_on_c, 0, 79, 0
2, 58618, Note_on_c, 0, 55, 66
2, 58630, Note_on_c, 0, 89, 83
2, 58786, Note_on_c, 0, 89, 0
2, 58830, Note_on_c, 0, 79, 54
2, 58927, Note_on_c, 0, 79, 0
2, 58988, Note_on_c, 0, 81, 44
2, 59177, Note_on_c, 0, 81, 0
2, 59189, Note_on_c, 0, 79, 44
2, 59292, Note_on_c, 0, 79, 0
2, 59302, Note_on_c, 0, 55, 0
2, 59315, Note_on_c, 0, 56, 58
2, 59330, Note_on_c, 0, 60, 65
2, 59338, Note_on_c, 0, 65, 80
2, 59361, Note_on_c, 0, 88, 76
2, 59530, Note_on_c, 0, 88, 0
2, 59554, Note_on_c, 0, 79, 20
2, 59625, Note_on_c, 0, 79, 0
2, 59687, Note_on_c, 0, 81, 44
2, 59751, Note_on_c, 0, 60, 0
2, 59879, Note_on_c, 0, 81, 0
2, 59898, Note_on_c, 0, 79, 54
2, 59994, Note_on_c, 0, 79, 0
2, 60033, Note_on_c, 0, 65, 0
2, 60051, Note_on_c, 0, 88, 71
2, 60054, Note_on_c, 0, 56, 0
2, 60075, Note_on_c, 0, 55, 50
2, 60215, Note_on_c, 0, 88, 0
2, 60232, Note_on_c, 0, 79, 56
2, 60311, Note_on_c, 0, 79, 0
2, 60421, Note_on_c, 0, 81, 32
2, 60556, Note_on_c, 0, 81, 0
2, 60591, Note_on_c, 0, 79, 35
2, 60709, Note_on_c, 0, 79, 0
2, 60747, Note_on_c, 0, 60, 37
2, 60752, Note_on_c, 0, 64, 33
2, 60773, Note_on_c, 0, 88, 83
2, 60775, Note_on_c, 0, 55, 0
2, 60937, Note_on_c, 0, 79, 50
2, 60959, Note_on_c, 0, 88, 0
2, 61047, Note_on_c, 0, 79, 0
2, 61116, Note_on_c, 0, 81, 35
2, 61294, Note_on_c, 0, 81, 0
2, 61304, Note_on_c, 0, 79, 57
2, 61399, Note_on_c, 0, 79, 0
2, 61460, Note_on_c, 0, 57, 62
2, 61473, Note_on_c, 0, 88, 79
2, 61478, Note_on_c, 0, 60, 0
2, 61507, Note_on_c, 0, 64, 0
2, 61663, Note_on_c, 0, 88, 0
2, 61664, Note_on_c, 0, 79, 37
2, 61733, Note_on_c, 0, 79, 0
2, 61830, Note_on_c, 0, 81, 42
2, 62041, Note_on_c, 0, 81, 0
2, 62044, Note_on_c, 0, 79, 55
2, 62129, Note_on_c, 0, 79, 0
2, 62159, Note_on_c, 0, 57, 0
2, 62178, Note_on_c, 0, 60, 37
2, 62186, Note_on_c, 0, 64, 41
2, 62194, Note_on_c, 0, 88, 82
2, 62324, Note_on_c, 0, 64, 0
2, 62356, Note_on_c, 0, 79, 46
2, 62357, Note_on_c, 0, 60, 0
2, 62437, Note_on_c, 0, 79, 0
2, 62475, Note_on_c, 0, 88, 0
2, 62542, Note_on_c, 0, 81, 48
2, 62717, Note_on_c, 0, 81, 0
2, 62735, Note_on_c, 0, 79, 52
2, 62812, Note_on_c, 0, 79, 0
2, 62899, Note_on_c, 0, 88, 80
2, 62905, Note_on_c, 0, 57, 42
2, 63068, Note_on_c, 0, 79, 46
2, 63074, Note_on_c, 0, 88, 0
2, 63152, Note_on_c, 0, 79, 0
2, 63238, Note_on_c, 0, 81, 40
2, 63403, Note_on_c, 0, 81, 0
2, 63430, Note_on_c, 0, 79, 57
2, 63512, Note_on_c, 0, 79, 0
2, 63526, Note_on_c, 0, 57, 0
2, 63587, Note_on_c, 0, 88, 79
2, 63595, Note_on_c, 0, 55, 52
2, 63747, Note_on_c, 0, 79, 52
2, 63756, Note_on_c, 0, 88, 0
2, 63828, Note_on_c, 0, 79, 0
2, 63903, Note_on_c, 0, 81, 60
2, 64047, Note_on_c, 0, 81, 0
2, 64095, Note_on_c, 0, 79, 59
2, 64128, Note_on_c, 0, 55, 0
2, 64180, Note_on_c, 0, 79, 0
2, 64267, Note_on_c, 0, 88, 74
2, 64305, Note_on_c, 0, 54, 26
2, 64406, Note_on_c, 0, 88, 0
2, 64437, Note_on_c, 0, 78, 71
2, 64577, Note_on_c, 0, 78, 0
2, 64596, Note_on_c, 0, 80, 39
2, 64634, Note_on_c, 0, 80, 0
2, 64646, Note_on_c, 0, 79, 68
2, 64808, Note_on_c, 0, 79, 0
2, 64815, Note_on_c, 0, 78, 55
2, 64893, Note_on_c, 0, 78, 0
2, 64965, Note_on_c, 0, 60, 33
2, 64970, Note_on_c, 0, 88, 83
2, 64976, Note_on_c, 0, 62, 35
2, 64983, Note_on_c, 0, 54, 0
2, 65071, Note_on_c, 0, 88, 0
2, 65096, Note_on_c, 0, 62, 0
2, 65100, Note_on_c, 0, 60, 0
2, 65147, Note_on_c, 0, 78, 49
2, 65256, Note_on_c, 0, 78, 0
2, 65279, Note_on_c, 0, 79, 40
2, 65441, Note_on_c, 0, 79, 0
2, 65478, Note_on_c, 0, 78, 45
2, 65552, Note_on_c, 0, 78, 0
2, 65652, Note_on_c, 0, 86, 78
2, 65659, Note_on_c, 0, 54, 35
2, 65822, Note_on_c, 0, 86, 0
2, 65839, Note_on_c, 0, 78, 37
2, 65909, Note_on_c, 0, 78, 0
2, 65980, Note_on_c, 0, 79, 28
2, 66144, Note_on_c, 0, 79, 0
2, 66160, Note_on_c, 0, 78, 39
2, 66225, Note_on_c, 0, 78, 0
2, 66336, Note_on_c, 0, 86, 80
2, 66351, Note_on_c, 0, 62, 41
2, 66355, Note_on_c, 0, 60, 32
2, 66450, Note_on_c, 0, 60, 0
2, 66456, Note_on_c, 0, 62, 0
2, 66474, Note_on_c, 0, 86, 0
2, 66510, Note_on_c, 0, 78, 55
2, 66524, Note_on_c, 0, 54, 0
2, 66577, Note_on_c, 0, 78, 0
2, 66859, Note_on_c, 0, 78, 50
2, 66915, Note_on_c, 0, 78, 0
2, 67005, Note_on_c, 0, 53, 60
2, 67032, Note_on_c, 0, 84, 77
2, 67202, Note_on_c, 0, 53, 0
2, 67808, Note_on_c, 0, 62, 51
2, 67823, Note_on_c, 0, 57, 34
2, 67923, Note_on_c, 0, 57, 0
2, 67928, Note_on_c, 0, 62, 0
2, 68052, Note_on_c, 0, 84, 0
2, 68100, Note_on_c, 0, 86, 80
2, 68167, Note_on_c, 0, 86, 0
2, 68468, Note_on_c, 0, 84, 90
2, 68586, Note_on_c, 0, 84, 0
2, 68635, Note_on_c, 0, 43, 55
2, 68643, Note_on_c, 0, 83, 50
2, 68880, Note_on_c, 0, 43, 0
2, 69383, Note_on_c, 0, 64, 42
2, 69384, Note_on_c, 0, 59, 53
2, 69418, Note_on_c, 0, 53, 30
2, 69526, Note_on_c, 0, 53, 0
2, 69535, Note_on_c, 0, 59, 0
2, 69553, Note_on_c, 0, 64, 0
2, 70016, Note_on_c, 0, 83, 0
2, 70048, Note_on_c, 0, 86, 82
2, 70158, Note_on_c, 0, 86, 0
2, 70159, Note_on_c, 0, 48, 62
2, 70195, Note_on_c, 0, 84, 79
2, 70262, Note_on_c, 0, 84, 0
2, 70285, Note_on_c, 0, 48, 0
2, 70572, Note_on_c, 0, 84, 71
2, 70580, Note_on_c, 0, 55, 35
2, 70642, Note_on_c, 0, 55, 0
2, 70944, Note_on_c, 0, 64, 36
2, 70947, Note_on_c, 0, 96, 54
2, 71080, Note_on_c, 0, 64, 0
2, 71172, Note_on_c, 0, 84, 0
2, 71217, Note_on_c, 0, 96, 0
2, 71322, Note_on_c, 0, 74, 50
2, 71325, Note_on_c, 0, 79, 28
2, 71359, Note_on_c, 0, 74, 0
2, 71392, Note_on_c, 0, 79, 0
2, 71689, Note_on_c, 0, 91, 43
2, 71780, Note_on_c, 0, 91, 0
2, 72070, Note_on_c, 0, 98, 57
2, 72141, Note_on_c, 0, 98, 0
2, 72416, Note_on_c, 0, 103, 66
2, 72488, Note_on_c, 0, 103, 0
2, 74880, Control_c, 0, 64, 127
2, 75085, Control_c, 0, 64, 0
2, 75192, Note_on_c, 0, 70, 62
2, 75208, Note_on_c, 0, 55, 44
2, 75210, Note_on_c, 0, 60, 42
2, 75213, Note_on_c, 0, 65, 57
2, 75221, Note_on_c, 0, 62, 29
2, 75344, Control_c, 0, 64, 127
2, 75763, Note_on_c, 0, 70, 0
2, 75771, Note_on_c, 0, 60, 0
2, 75787, Note_on_c, 0, 62, 0
2, 75818, Note_on_c, 0, 65, 0
2, 75896, Note_on_c, 0, 72, 76
2, 75920, Note_on_c, 0, 57, 42
2, 75963, Note_on_c, 0, 55, 0
2, 76079, Note_on_c, 0, 57, 0
2, 76178, Note_on_c, 0, 72, 0
2, 76674, Control_c, 0, 64, 0
2, 76720, Note_on_c, 0, 74, 44
2, 76741, Note_on_c, 0, 66, 33
2, 76746, Note_on_c, 0, 62, 27
2, 76753, Note_on_c, 0, 48, 34
2, 76758, Note_on_c, 0, 58, 37
2, 76760, Note_on_c, 0, 69, 47
2, 77096, Control_c, 0, 64, 127
2, 77574, Note_on_c, 0, 55, 30
2, 77637, Note_on_c, 0, 74, 0
2, 77699, Note_on_c, 0, 62, 0
2, 77882, Note_on_c, 0, 66, 0
2, 77955, Note_on_c, 0, 69, 0
2, 78101, Note_on_c, 0, 62, 24
2, 78224, Note_on_c, 0, 62, 0
2, 78547, Note_on_c, 0, 58, 0
2, 78588, Note_on_c, 0, 55, 0
2, 78644, Note_on_c, 0, 48, 0
2, 78697, Note_on_c, 0, 72, 72
2, 78912, Note_on_c, 0, 72, 0
2, 78979, Note_on_c, 0, 70, 67
2, 79192, Note_on_c, 0, 70, 0
2, 79290, Control_c, 0, 64, 0
2, 79304, Note_on_c, 0, 41, 55
2, 79313, Note_on_c, 0, 74, 82
2, 79578, Control_c, 0, 64, 127
2, 79666, Note_on_c, 0, 48, 50
2, 79695, Note_on_c, 0, 41, 0
2, 79718, Note_on_c, 0, 74, 0
2, 79963, Note_on_c, 0, 48, 0
2, 80024, Note_on_c, 0, 57, 53
2, 80350, Note_on_c, 0, 60, 51
2, 80520, Note_on_c, 0, 60, 0
2, 80759, Note_on_c, 0, 57, 0
2, 80761, Note_on_c, 0, 63, 44
2, 80791, Control_c, 0, 64, 0
2, 80796, Note_on_c, 0, 66, 33
2, 80798, Note_on_c, 0, 54, 43
2, 81138, Note_on_c, 0, 63, 0
2, 81166, Control_c, 0, 64, 127
2, 81228, Note_on_c, 0, 54, 0
2, 81237, Note_on_c, 0, 74, 72
2, 81267, Note_on_c, 0, 64, 32
2, 81273, Note_on_c, 0, 63, 21
2, 81274, Note_on_c, 0, 62, 34
2, 81323, Note_on_c, 0, 64, 0
2, 81633, Note_on_c, 0, 74, 0
2, 81643, Note_on_c, 0, 63, 0
2, 81666, Note_on_c, 0, 66, 0
2, 81678, Note_on_c, 0, 62, 0
2, 81730, Control_c, 0, 64, 0
2, 81768, Note_on_c, 0, 63, 39
2, 81773, Note_on_c, 0, 72, 50
2, 81774, Note_on_c, 0, 66, 38
2, 81808, Note_on_c, 0, 60, 32
2, 81874, Control_c, 0, 64, 127
2, 82028, Note_on_c, 0, 60, 0
2, 82182, Note_on_c, 0, 63, 0
2, 82183, Note_on_c, 0, 72, 0
2, 82273, Note_on_c, 0, 66, 0
2, 82344, Note_on_c, 0, 44, 60
2, 82379, Control_c, 0, 64, 0
2, 82480, Control_c, 0, 64, 127
2, 82854, Note_on_c, 0, 44, 0
2, 82972, Control_c, 0, 64, 0
2, 83011, Note_on_c, 0, 58, 34
2, 83020, Note_on_c, 0, 65, 48
2, 83027, Note_on_c, 0, 43, 35
2, 83083, Note_on_c, 0, 53, 31
2, 83289, Control_c, 0, 64, 127
2, 83442, Note_on_c, 0, 58, 0
2, 83462, Note_on_c, 0, 53, 0
2, 83499, Note_on_c, 0, 43, 0
2, 83532, Note_on_c, 0, 65, 0
2, 83637, Note_on_c, 0, 72, 74
2, 83773, Note_on_c, 0, 57, 30
2, 84019, Note_on_c, 0, 57, 0
2, 84087, Note_on_c, 0, 72, 0
2, 84315, Note_on_c, 0, 57, 43
2, 84320, Note_on_c, 0, 72, 44
2, 84368, Note_on_c, 0, 65, 34
2, 84386, Note_on_c, 0, 62, 18
2, 84464, Note_on_c, 0, 57, 0
2, 84474, Note_on_c, 0, 72, 0
2, 84494, Note_on_c, 0, 65, 0
2, 84543, Note_on_c, 0, 62, 0
2, 85007, Control_c, 0, 64, 0
2, 85017, Note_on_c, 0, 58, 36
2, 85024, Note_on_c, 0, 67, 50
2, 85037, Note_on_c, 0, 48, 31
2, 85047, Note_on_c, 0, 64, 36
2, 85069, Note_on_c, 0, 55, 24
2, 85267, Control_c, 0, 64, 127
2, 85288, Note_on_c, 0, 58, 0
2, 85331, Note_on_c, 0, 67, 0
2, 85404, Note_on_c, 0, 64, 0
2, 85658, Note_on_c, 0, 55, 0
2, 85659, Note_on_c, 0, 48, 0
2, 86062, Note_on_c, 0, 48, 57
2, 86205, Note_on_c, 0, 48, 0
2, 87491, Note_on_c, 0, 82, 64
2, 87501, Note_on_c, 0, 73, 55
2, 87505, Note_on_c, 0, 70, 59
2, 87516, Note_on_c, 0, 64, 48
2, 87517, Note_on_c, 0, 78, 54
2, 87521, Control_c, 0, 64, 0
2, 87524, Note_on_c, 0, 58, 60
2, 87538, Note_on_c, 0, 80, 31
2, 87587, Note_on_c, 0, 80, 0
2, 87822, Control_c, 0, 64, 127
2, 88207, Note_on_c, 0, 82, 0
2, 88446, Note_on_c, 0, 78, 0
2, 88460, Note_on_c, 0, 82, 57
2, 88641, Note_on_c, 0, 64, 0
2, 88715, Note_on_c, 0, 73, 0
2, 88802, Note_on_c, 0, 70, 0
2, 88820, Note_on_c, 0, 82, 0
2, 88947, Note_on_c, 0, 58, 0
2, 89324, Control_c, 0, 64, 0
2, 89347, Note_on_c, 0, 81, 56
2, 89376, Note_on_c, 0, 73, 23
2, 89378, Note_on_c, 0, 69, 31
2, 89380, Note_on_c, 0, 53, 38
2, 89393, Note_on_c, 0, 76, 47
2, 89612, Control_c, 0, 64, 127
2, 89762, Note_on_c, 0, 81, 0
2, 89809, Note_on_c, 0, 76, 0
2, 89827, Note_on_c, 0, 61, 46
2, 89940, Note_on_c, 0, 69, 0
2, 89942, Note_on_c, 0, 73, 0
2, 90210, Note_on_c, 0, 64, 51
2, 90611, Note_on_c, 0, 76, 87
2, 90780, Note_on_c, 0, 64, 0
2, 90980, Note_on_c, 0, 76, 0
2, 91068, Note_on_c, 0, 65, 51
2, 91081, Note_on_c, 0, 62, 54
2, 91084, Note_on_c, 0, 69, 50
2, 91085, Note_on_c, 0, 61, 0
2, 91087, Note_on_c, 0, 74, 61
2, 91114, Control_c, 0, 64, 0
2, 91583, Note_on_c, 0, 61, 62
2, 91615, Note_on_c, 0, 62, 0
2, 91677, Control_c, 0, 64, 127
2, 91838, Note_on_c, 0, 65, 0
2, 91866, Note_on_c, 0, 69, 0
2, 92010, Control_c, 0, 64, 0
2, 92119, Note_on_c, 0, 74, 0
2, 92164, Note_on_c, 0, 60, 34
2, 92170, Note_on_c, 0, 69, 53
2, 92177, Note_on_c, 0, 72, 52
2, 92181, Note_on_c, 0, 65, 39
2, 92251, Note_on_c, 0, 61, 0
2, 92252, Note_on_c, 0, 53, 0
2, 92298, Control_c, 0, 64, 127
2, 92358, Note_on_c, 0, 69, 0
2, 92367, Note_on_c, 0, 72, 0
2, 92449, Note_on_c, 0, 65, 0
2, 92696, Note_on_c, 0, 60, 0
2, 92819, Note_on_c, 0, 60, 68
2, 92875, Note_on_c, 0, 53, 31
2, 92944, Note_on_c, 0, 53, 0
2, 93347, Note_on_c, 0, 60, 0
2, 93542, Note_on_c, 0, 60, 34
2, 93555, Note_on_c, 0, 56, 52
2, 93568, Control_c, 0, 64, 0
2, 93578, Note_on_c, 0, 51, 37
2, 93620, Note_on_c, 0, 41, 34
2, 93900, Control_c, 0, 64, 127
2, 94099, Note_on_c, 0, 56, 0
2, 94147, Note_on_c, 0, 60, 0
2, 94159, Note_on_c, 0, 41, 0
2, 94162, Note_on_c, 0, 48, 49
2, 94167, Note_on_c, 0, 51, 0
2, 94266, Note_on_c, 0, 48, 0
2, 94725, Note_on_c, 0, 68, 64
2, 94733, Note_on_c, 0, 58, 50
2, 94734, Note_on_c, 0, 60, 61
2, 94740, Note_on_c, 0, 63, 73
2, 94943, Note_on_c, 0, 68, 0
2, 95068, Note_on_c, 0, 60, 0
2, 95114, Note_on_c, 0, 70, 77
2, 95178, Note_on_c, 0, 58, 0
2, 95229, Note_on_c, 0, 63, 0
2, 95332, Note_on_c, 0, 70, 0
2, 96268, Control_c, 0, 64, 0
2, 96270, Note_on_c, 0, 72, 48
2, 96272, Note_on_c, 0, 67, 64
2, 96288, Note_on_c, 0, 46, 35
2, 96291, Note_on_c, 0, 62, 63
2, 96294, Note_on_c, 0, 56, 38
2, 96744, Control_c, 0, 64, 127
2, 96893, Note_on_c, 0, 46, 0
2, 97022, Note_on_c, 0, 46, 44
2, 97390, Note_on_c, 0, 67, 0
2, 97459, Note_on_c, 0, 56, 0
2, 97508, Note_on_c, 0, 62, 0
2, 97682, Note_on_c, 0, 72, 0
2, 97752, Note_on_c, 0, 62, 35
2, 97762, Note_on_c, 0, 70, 38
2, 97767, Note_on_c, 0, 67, 44
2, 97790, Note_on_c, 0, 56, 35
2, 97798, Control_c, 0, 64, 0
2, 98043, Control_c, 0, 64, 127
2, 98317, Note_on_c, 0, 46, 0
2, 98717, Note_on_c, 0, 68, 59
2, 98731, Note_on_c, 0, 46, 33
2, 99004, Note_on_c, 0, 67, 0
2, 99028, Note_on_c, 0, 62, 0
2, 99305, Note_on_c, 0, 46, 0
2, 99355, Note_on_c, 0, 56, 0
2, 99367, Note_on_c, 0, 68, 0
2, 99368, Note_on_c, 0, 70, 0
2, 99531, Control_c, 0, 64, 0
2, 99540, Note_on_c, 0, 72, 57
2, 99548, Note_on_c, 0, 63, 50
2, 99554, Note_on_c, 0, 46, 37
2, 99555, Note_on_c, 0, 67, 54
2, 99594, Note_on_c, 0, 55, 46
2, 99820, Control_c, 0, 64, 127
2, 100045, Note_on_c, 0, 46, 0
2, 100088, Note_on_c, 0, 72, 0
2, 100113, Note_on_c, 0, 67, 0
2, 100147, Note_on_c, 0, 46, 52
2, 100209, Note_on_c, 0, 63, 0
2, 100303, Note_on_c, 0, 55, 0
2, 100670, Note_on_c, 0, 67, 68
2, 100690, Note_on_c, 0, 58, 54
2, 100693, Note_on_c, 0, 63, 57
2, 100704, Note_on_c, 0, 55, 42
2, 101008, Note_on_c, 0, 46, 0
2, 101197, Note_on_c, 0, 46, 64
2, 101538, Note_on_c, 0, 58, 0
2, 101565, Note_on_c, 0, 63, 0
2, 101627, Note_on_c, 0, 67, 0
2, 101649, Note_on_c, 0, 55, 0
2, 101810, Note_on_c, 0, 67, 62
2, 101812, Note_on_c, 0, 64, 58
2, 101815, Note_on_c, 0, 61, 68
2, 101816, Note_on_c, 0, 58, 62
2, 101828, Control_c, 0, 64, 0
2, 101833, Note_on_c, 0, 55, 65
2, 102398, Note_on_c, 0, 46, 0
2, 102473, Note_on_c, 0, 46, 45
2, 102577, Control_c, 0, 64, 127
2, 102826, Note_on_c, 0, 64, 0
2, 102868, Note_on_c, 0, 61, 0
2, 102896, Note_on_c, 0, 58, 0
2, 103052, Note_on_c, 0, 55, 0
2, 103109, Note_on_c, 0, 67, 0
2, 103183, Note_on_c, 0, 61, 50
2, 103200, Note_on_c, 0, 64, 40
2, 103204, Note_on_c, 0, 58, 36
2, 103249, Note_on_c, 0, 55, 29
2, 103344, Note_on_c, 0, 58, 0
2, 103351, Note_on_c, 0, 64, 0
2, 103370, Note_on_c, 0, 61, 0
2, 103417, Note_on_c, 0, 55, 0
2, 103891, Note_on_c, 0, 70, 50
2, 103892, Note_on_c, 0, 61, 45
2, 103897, Note_on_c, 0, 64, 41
2, 103898, Note_on_c, 0, 55, 33
2, 104025, Note_on_c, 0, 61, 0
2, 104069, Note_on_c, 0, 64, 0
2, 104071, Note_on_c, 0, 55, 0
2, 104093, Note_on_c, 0, 46, 0
2, 104276, Note_on_c, 0, 70, 0
2, 104617, Note_on_c, 0, 41, 45
2, 104807, Note_on_c, 0, 48, 36
2, 104828, Note_on_c, 0, 56, 40
2, 104887, Control_c, 0, 64, 0
2, 104911, Note_on_c, 0, 63, 57
2, 104924, Note_on_c, 0, 55, 40
2, 105002, Note_on_c, 0, 70, 52
2, 105464, Control_c, 0, 64, 127
2, 105844, Note_on_c, 0, 55, 0
2, 106437, Note_on_c, 0, 53, 33
2, 106441, Note_on_c, 0, 56, 0
2, 106544, Note_on_c, 0, 63, 0
2, 107013, Note_on_c, 0, 41, 0
2, 107059, Note_on_c, 0, 48, 0
2, 107094, Note_on_c, 0, 65, 48
2, 107121, Note_on_c, 0, 53, 0
2, 107228, Note_on_c, 0, 70, 0
2, 107327, Note_on_c, 0, 65, 0
2, 107791, Note_on_c, 0, 68, 39
2, 107804, Note_on_c, 0, 64, 40
2, 107808, Note_on_c, 0, 60, 24
2, 107841, Note_on_c, 0, 44, 37
2, 107847, Note_on_c, 0, 54, 26
2, 107861, Control_c, 0, 64, 0
2, 108409, Control_c, 0, 64, 127
2, 108896, Note_on_c, 0, 60, 0
2, 109230, Note_on_c, 0, 64, 0
2, 109442, Note_on_c, 0, 63, 46
2, 110247, Note_on_c, 0, 63, 0
2, 110943, Note_on_c, 0, 54, 0
2, 111016, Note_on_c, 0, 68, 0
2, 111101, Note_on_c, 0, 44, 0
2, 111527, Note_on_c, 0, 67, 41
2, 111529, Note_on_c, 0, 59, 42
2, 111536, Note_on_c, 0, 64, 44
2, 111553, Note_on_c, 0, 53, 36
2, 111559, Note_on_c, 0, 43, 30
2, 111571, Control_c, 0, 64, 0
2, 111964, Note_on_c, 0, 63, 50
2, 111981, Note_on_c, 0, 64, 0
2, 112414, Note_on_c, 0, 63, 0
2, 112471, Note_on_c, 0, 62, 44
2, 112610, Control_c, 0, 64, 127
2, 112724, Note_on_c, 0, 53, 0
2, 112802, Note_on_c, 0, 43, 0
2, 113280, Note_on_c, 0, 59, 0
2, 113297, Note_on_c, 0, 31, 45
2, 113319, Note_on_c, 0, 62, 0
2, 113462, Note_on_c, 0, 31, 0
2, 113467, Note_on_c, 0, 67, 0
2, 114661, Control_c, 0, 64, 0
2, 114674, Note_on_c, 0, 79, 61
2, 114687, Note_on_c, 0, 72, 44
2, 114712, Note_on_c, 0, 68, 30
2, 114714, Note_on_c, 0, 74, 37
2, 114726, Note_on_c, 0, 67, 34
2, 114891, Control_c, 0, 64, 127
2, 115060, Note_on_c, 0, 68, 0
2, 115110, Note_on_c, 0, 74, 0
2, 115112, Note_on_c, 0, 72, 0
2, 115189, Note_on_c, 0, 67, 0
2, 115195, Note_on_c, 0, 79, 0
2, 115807, Note_on_c, 0, 91, 56
2, 115853, Note_on_c, 0, 86, 49
2, 115863, Note_on_c, 0, 80, 36
2, 115865, Note_on_c, 0, 84, 46
2, 115868, Note_on_c, 0, 79, 43
2, 116657, Note_on_c, 0, 79, 0
2, 116824, Note_on_c, 0, 91, 0
2, 116876, Note_on_c, 0, 84, 0
2, 116924, Note_on_c, 0, 86, 0
2, 116990, Note_on_c, 0, 80, 0
2, 117980, Control_c, 0, 64, 0
2, 118963, Control_c, 0, 64, 127
2, 119367, Control_c, 0, 64, 0
2, 119390, Note_on_c, 0, 67, 51
2, 119400, Note_on_c, 0, 62, 44
2, 119403, Note_on_c, 0, 57, 41
2, 119406, Note_on_c, 0, 59, 34
2, 119407, Note_on_c, 0, 52, 37
2, 119417, Note_on_c, 0, 43, 32
2, 119786, Control_c, 0, 64, 127
2, 119886, Note_on_c, 0, 67, 0
2, 120009, Note_on_c, 0, 67, 61
2, 120172, Note_on_c, 0, 57, 0
2, 120185, Note_on_c, 0, 59, 0
2, 120237, Note_on_c, 0, 52, 0
2, 120271, Note_on_c, 0, 62, 0
2, 120415, Note_on_c, 0, 67, 0
2, 120617, Note_on_c, 0, 67, 66
2, 120627, Note_on_c, 0, 61, 68
2, 120630, Note_on_c, 0, 58, 60
2, 120633, Note_on_c, 0, 43, 0
2, 120643, Note_on_c, 0, 55, 57
2, 120646, Note_on_c, 0, 64, 44
2, 120652, Control_c, 0, 64, 0
2, 121200, Control_c, 0, 64, 127
2, 121295, Note_on_c, 0, 43, 69
2, 121386, Note_on_c, 0, 55, 0
2, 121767, Note_on_c, 0, 64, 0
2, 121837, Note_on_c, 0, 58, 0
2, 121974, Note_on_c, 0, 67, 0
2, 122129, Note_on_c, 0, 61, 0
2, 122192, Note_on_c, 0, 43, 0
2, 122558, Control_c, 0, 64, 0
2, 122587, Note_on_c, 0, 67, 68
2, 122609, Note_on_c, 0, 60, 40
2, 122615, Note_on_c, 0, 41, 43
2, 122617, Note_on_c, 0, 63, 52
2, 122624, Note_on_c, 0, 56, 38
2, 122641, Note_on_c, 0, 51, 30
2, 122889, Control_c, 0, 64, 127
2, 122993, Note_on_c, 0, 67, 0
2, 123067, Note_on_c, 0, 51, 0
2, 123068, Note_on_c, 0, 63, 0
2, 123072, Note_on_c, 0, 56, 0
2, 123092, Note_on_c, 0, 60, 0
2, 123109, Note_on_c, 0, 48, 44
2, 123111, Note_on_c, 0, 41, 0
2, 123128, Note_on_c, 0, 65, 68
2, 123183, Note_on_c, 0, 48, 0
2, 123468, Note_on_c, 0, 65, 0
2, 123661, Note_on_c, 0, 65, 67
2, 123674, Note_on_c, 0, 63, 67
2, 123678, Note_on_c, 0, 58, 57
2, 123681, Note_on_c, 0, 60, 64
2, 123684, Control_c, 0, 64, 0
2, 123799, Control_c, 0, 64, 127
2, 124229, Note_on_c, 0, 53, 66
2, 124230, Note_on_c, 0, 58, 0
2, 124262, Note_on_c, 0, 60, 0
2, 124349, Note_on_c, 0, 63, 0
2, 124491, Note_on_c, 0, 65, 0
2, 124899, Note_on_c, 0, 65, 78
2, 124906, Note_on_c, 0, 46, 37
2, 124908, Note_on_c, 0, 60, 69
2, 124911, Control_c, 0, 64, 0
2, 124919, Note_on_c, 0, 56, 53
2, 124921, Note_on_c, 0, 62, 74
2, 124925, Note_on_c, 0, 53, 0
2, 125330, Control_c, 0, 64, 127
2, 126004, Note_on_c, 0, 65, 0
2, 126045, Note_on_c, 0, 64, 36
2, 126225, Note_on_c, 0, 60, 0
2, 126344, Note_on_c, 0, 64, 0
2, 126401, Note_on_c, 0, 65, 62
2, 126460, Note_on_c, 0, 62, 0
2, 126519, Note_on_c, 0, 65, 0
2, 126639, Note_on_c, 0, 46, 0
2, 126932, Control_c, 0, 64, 0
2, 126934, Note_on_c, 0, 74, 65
2, 126953, Note_on_c, 0, 46, 40
2, 126989, Note_on_c, 0, 56, 0
2, 127214, Note_on_c, 0, 74, 0
2, 127235, Control_c, 0, 64, 127
2, 127609, Note_on_c, 0, 65, 50
2, 127621, Note_on_c, 0, 56, 33
2, 127739, Note_on_c, 0, 56, 0
2, 127740, Note_on_c, 0, 65, 0
2, 127840, Note_on_c, 0, 46, 0
2, 128419, Control_c, 0, 64, 0
2, 128421, Note_on_c, 0, 65, 45
2, 128434, Note_on_c, 0, 62, 50
2, 128450, Note_on_c, 0, 39, 36
2, 128463, Note_on_c, 0, 54, 37
2, 128478, Note_on_c, 0, 47, 28
2, 128737, Control_c, 0, 64, 127
2, 129038, Note_on_c, 0, 65, 0
2, 129117, Note_on_c, 0, 54, 0
2, 129134, Note_on_c, 0, 62, 0
2, 129218, Note_on_c, 0, 47, 0
2, 129228, Control_c, 0, 64, 0
2, 129261, Note_on_c, 0, 63, 42
2, 129280, Note_on_c, 0, 55, 34
2, 129291, Note_on_c, 0, 48, 31
2, 129306, Note_on_c, 0, 60, 29
2, 129689, Control_c, 0, 64, 127
2, 130017, Note_on_c, 0, 63, 0
2, 130220, Note_on_c, 0, 63, 39
2, 130275, Note_on_c, 0, 55, 0
2, 130346, Note_on_c, 0, 60, 0
2, 130534, Note_on_c, 0, 63, 0
2, 131216, Note_on_c, 0, 67, 54
2, 131318, Note_on_c, 0, 39, 0
2, 131460, Note_on_c, 0, 48, 0
2, 131748, Note_on_c, 0, 79, 80
2, 132125, Note_on_c, 0, 67, 0
2, 132197, Note_on_c, 0, 75, 72
2, 132202, Note_on_c, 0, 79, 0
2, 132611, Note_on_c, 0, 75, 0
2, 132678, Control_c, 0, 64, 0
2, 132690, Note_on_c, 0, 76, 63
2, 132710, Note_on_c, 0, 45, 54
2, 132980, Control_c, 0, 64, 127
2, 133175, Note_on_c, 0, 45, 0
2, 133201, Note_on_c, 0, 55, 60
2, 133266, Note_on_c, 0, 55, 0
2, 133703, Note_on_c, 0, 81, 74
2, 133721, Note_on_c, 0, 60, 53
2, 133832, Note_on_c, 0, 76, 0
2, 134072, Note_on_c, 0, 81, 0
2, 134127, Note_on_c, 0, 57, 54
2, 134149, Note_on_c, 0, 84, 84
2, 134500, Note_on_c, 0, 57, 0
2, 134505, Note_on_c, 0, 84, 0
2, 134531, Note_on_c, 0, 60, 0
2, 134638, Note_on_c, 0, 88, 74
2, 134641, Control_c, 0, 64, 0
2, 134646, Note_on_c, 0, 55, 58
2, 134649, Note_on_c, 0, 60, 53
2, 134653, Note_on_c, 0, 84, 48
2, 134655, Note_on_c, 0, 64, 53
2, 134660, Note_on_c, 0, 76, 67
2, 134664, Note_on_c, 0, 81, 60
2, 134945, Control_c, 0, 64, 127
2, 135051, Note_on_c, 0, 88, 0
2, 135171, Note_on_c, 0, 84, 0
2, 135234, Note_on_c, 0, 88, 55
2, 135273, Note_on_c, 0, 84, 38
2, 135473, Note_on_c, 0, 84, 0
2, 135485, Note_on_c, 0, 81, 0
2, 135495, Note_on_c, 0, 76, 0
2, 135524, Note_on_c, 0, 88, 0
2, 135555, Note_on_c, 0, 64, 0
2, 135601, Note_on_c, 0, 60, 0
2, 135626, Note_on_c, 0, 55, 0
2, 135809, Note_on_c, 0, 88, 48
2, 135820, Note_on_c, 0, 55, 28
2, 135823, Note_on_c, 0, 64, 34
2, 135826, Note_on_c, 0, 60, 30
2, 135838, Note_on_c, 0, 76, 34
2, 135839, Note_on_c, 0, 84, 45
2, 135848, Note_on_c, 0, 81, 42
2, 136086, Note_on_c, 0, 84, 0
2, 136109, Note_on_c, 0, 55, 0
2, 136110, Note_on_c, 0, 76, 0
2, 136128, Note_on_c, 0, 81, 0
2, 136133, Note_on_c, 0, 64, 0
2, 136138, Note_on_c, 0, 88, 0
2, 136172, Note_on_c, 0, 60, 0
2, 136382, Note_on_c, 0, 55, 48
2, 136391, Note_on_c, 0, 88, 35
2, 136408, Note_on_c, 0, 81, 43
2, 136434, Note_on_c, 0, 84, 32
2, 136440, Note_on_c, 0, 64, 18
2, 136559, Note_on_c, 0, 81, 0
2, 136582, Note_on_c, 0, 84, 0
2, 136586, Note_on_c, 0, 64, 0
2, 136589, Note_on_c, 0, 55, 0
2, 136593, Note_on_c, 0, 88, 0
2, 136951, Control_c, 0, 64, 0
2, 137036, Note_on_c, 0, 80, 47
2, 137046, Note_on_c, 0, 88, 45
2, 137050, Note_on_c, 0, 64, 42
2, 137056, Note_on_c, 0, 60, 30
2, 137067, Note_on_c, 0, 84, 37
2, 137079, Note_on_c, 0, 76, 34
2, 137087, Note_on_c, 0, 54, 29
2, 137181, Note_on_c, 0, 80, 0
2, 137252, Note_on_c, 0, 81, 13
2, 137256, Control_c, 0, 64, 127
2, 137287, Note_on_c, 0, 64, 0
2, 137302, Note_on_c, 0, 60, 0
2, 137370, Control_c, 0, 64, 0
2, 137371, Note_on_c, 0, 76, 0
2, 137388, Note_on_c, 0, 54, 0
2, 137402, Note_on_c, 0, 88, 0
2, 137416, Note_on_c, 0, 84, 0
2, 137428, Note_on_c, 0, 81, 0
2, 137745, Control_c, 0, 64, 127
2, 137750, Note_on_c, 0, 38, 40
2, 137815, Note_on_c, 0, 38, 0
2, 138526, Note_on_c, 0, 86, 55
2, 138532, Note_on_c, 0, 78, 42
2, 138535, Note_on_c, 0, 74, 42
2, 138540, Control_c, 0, 64, 0
2, 138548, Note_on_c, 0, 81, 59
2, 138552, Note_on_c, 0, 55, 46
2, 138554, Note_on_c, 0, 61, 48
2, 138581, Note_on_c, 0, 66, 35
2, 138748, Note_on_c, 0, 74, 0
2, 138765, Note_on_c, 0, 78, 0
2, 138784, Note_on_c, 0, 81, 0
2, 138791, Note_on_c, 0, 86, 0
2, 138870, Note_on_c, 0, 55, 0
2, 138896, Note_on_c, 0, 66, 0
2, 139116, Note_on_c, 0, 61, 0
2, 139239, Note_on_c, 0, 86, 49
2, 139258, Note_on_c, 0, 81, 57
2, 139269, Note_on_c, 0, 74, 36
2, 139272, Note_on_c, 0, 78, 38
2, 139275, Note_on_c, 0, 64, 33
2, 139278, Note_on_c, 0, 60, 33
2, 139289, Note_on_c, 0, 54, 28
2, 139322, Control_c, 0, 64, 127
2, 140031, Note_on_c, 0, 64, 0
2, 140066, Note_on_c, 0, 60, 0
2, 140175, Note_on_c, 0, 54, 0
2, 141396, Note_on_c, 0, 86, 0
2, 141525, Note_on_c, 0, 74, 0
2, 141537, Note_on_c, 0, 81, 0
2, 141555, Note_on_c, 0, 78, 0
2, 142454, Note_on_c, 0, 72, 57
2, 142465, Note_on_c, 0, 57, 34
2, 142474, Note_on_c, 0, 69, 50
2, 142476, Note_on_c, 0, 65, 38
2, 142484, Control_c, 0, 64, 0
2, 142574, Note_on_c, 0, 65, 0
2, 142616, Note_on_c, 0, 69, 0
2, 142662, Note_on_c, 0, 57, 0
2, 142686, Note_on_c, 0, 72, 0
2, 143148, Control_c, 0, 64, 127
2, 143220, Control_c, 0, 64, 0
2, 143318, Note_on_c, 0, 74, 61
2, 143325, Note_on_c, 0, 69, 58
2, 143334, Note_on_c, 0, 65, 39
2, 143359, Note_on_c, 0, 59, 32
2, 143403, Note_on_c, 0, 65, 0
2, 143434, Note_on_c, 0, 59, 0
2, 143438, Note_on_c, 0, 69, 0
2, 143477, Note_on_c, 0, 74, 0
2, 143811, Note_on_c, 0, 72, 67
2, 143834, Note_on_c, 0, 65, 51
2, 143840, Note_on_c, 0, 57, 40
2, 143887, Note_on_c, 0, 65, 0
2, 143896, Note_on_c, 0, 57, 0
2, 143950, Note_on_c, 0, 72, 0
2, 144174, Control_c, 0, 64, 127
2, 144318, Control_c, 0, 64, 0
2, 144407, Note_on_c, 0, 71, 57
2, 144423, Note_on_c, 0, 43, 33
2, 144441, Note_on_c, 0, 67, 43
2, 144446, Note_on_c, 0, 53, 42
2, 144606, Note_on_c, 0, 67, 0
2, 144655, Note_on_c, 0, 43, 0
2, 144694, Note_on_c, 0, 71, 0
2, 144800, Note_on_c, 0, 53, 0
2, 145757, Note_on_c, 0, 74, 49
2, 145768, Note_on_c, 0, 68, 49
2, 145771, Note_on_c, 0, 71, 42
2, 145773, Note_on_c, 0, 65, 52
2, 145781, Note_on_c, 0, 64, 24
2, 145964, Control_c, 0, 64, 127
2, 146328, Note_on_c, 0, 64, 0
2, 146567, Note_on_c, 0, 65, 0
2, 146605, Note_on_c, 0, 71, 0
2, 146673, Note_on_c, 0, 74, 0
2, 146718, Note_on_c, 0, 68, 0
2, 147421, Control_c, 0, 64, 0
2, 147451, Note_on_c, 0, 72, 45
2, 147476, Note_on_c, 0, 67, 42
2, 147494, Note_on_c, 0, 69, 36
2, 147511, Note_on_c, 0, 62, 18
2, 147523, Note_on_c, 0, 55, 28
2, 147782, Control_c, 0, 64, 127
2, 147784, Note_on_c, 0, 62, 0
2, 147837, Note_on_c, 0, 67, 0
2, 147845, Note_on_c, 0, 69, 0
2, 147925, Note_on_c, 0, 72, 0
2, 148269, Note_on_c, 0, 43, 38
2, 148276, Note_on_c, 0, 91, 59
2, 148278, Note_on_c, 0, 93, 59
2, 148298, Note_on_c, 0, 79, 25
2, 148327, Note_on_c, 0, 93, 0
2, 148390, Note_on_c, 0, 55, 0
2, 148569, Note_on_c, 0, 79, 0
2, 148668, Note_on_c, 0, 91, 0
2, 149219, Note_on_c, 0, 103, 55
2, 149231, Note_on_c, 0, 91, 37
2, 149241, Note_on_c, 0, 55, 44
2, 149309, Note_on_c, 0, 55, 0
2, 149460, Note_on_c, 0, 43, 0
2, 150330, Note_on_c, 0, 31, 46
2, 150402, Note_on_c, 0, 91, 0
2, 150478, Note_on_c, 0, 103, 0
2, 150736, Note_on_c, 0, 31, 0
2, 151926, Control_c, 0, 64, 0
2, 152311, Note_on_c, 0, 67, 79
2, 152341, Note_on_c, 0, 36, 39
2, 152503, Note_on_c, 0, 67, 0
2, 153174, Note_on_c, 0, 36, 0
2, 153271, Note_on_c, 0, 45, 43
2, 154182, Note_on_c, 0, 45, 0
2, 154184, Note_on_c, 0, 43, 36
2, 155118, Note_on_c, 0, 37, 44
2, 155130, Note_on_c, 0, 43, 0
2, 155779, Note_on_c, 0, 43, 22
2, 155834, Note_on_c, 0, 37, 0
2, 155840, Note_on_c, 0, 67, 110
2, 155992, Note_on_c, 0, 43, 0
2, 156056, Note_on_c, 0, 38, 35
2, 156165, Note_on_c, 0, 67, 0
2, 156207, Note_on_c, 0, 65, 53
2, 156806, Note_on_c, 0, 60, 41
2, 156894, Note_on_c, 0, 65, 0
2, 157013, Note_on_c, 0, 60, 0
2, 157052, Note_on_c, 0, 38, 0
2, 157087, Note_on_c, 0, 45, 37
2, 157120, Note_on_c, 0, 57, 31
2, 157611, Note_on_c, 0, 45, 0
2, 157760, Note_on_c, 0, 45, 14
2, 157950, Note_on_c, 0, 45, 0
2, 158056, Note_on_c, 0, 52, 31
2, 158763, Note_on_c, 0, 52, 0
2, 158766, Note_on_c, 0, 49, 31
2, 158888, Note_on_c, 0, 49, 0
2, 159025, Note_on_c, 0, 51, 69
2, 159225, Note_on_c, 0, 51, 0
2, 159676, Note_on_c, 0, 49, 60
2, 159874, Note_on_c, 0, 49, 0
2, 159967, Note_on_c, 0, 50, 49
2, 159986, Note_on_c, 0, 57, 0
2, 160612, Note_on_c, 0, 60, 80
2, 160823, Note_on_c, 0, 60, 0
2, 160837, Note_on_c, 0, 50, 0
2, 160887, Note_on_c, 0, 45, 30
2, 160927, Note_on_c, 0, 57, 57
2, 161173, Note_on_c, 0, 45, 0
2, 161182, Note_on_c, 0, 57, 0
2, 161238, Note_on_c, 0, 58, 60
2, 161448, Note_on_c, 0, 58, 0
2, 161531, Note_on_c, 0, 59, 85
2, 161653, Note_on_c, 0, 43, 20
2, 162194, Note_on_c, 0, 56, 67
2, 162209, Note_on_c, 0, 59, 0
2, 162438, Note_on_c, 0, 56, 0
2, 162485, Note_on_c, 0, 55, 58
2, 162752, Note_on_c, 0, 55, 0
2, 162770, Note_on_c, 0, 31, 36
2, 162828, Note_on_c, 0, 53, 50
2, 162880, Note_on_c, 0, 43, 0
2, 163071, Note_on_c, 0, 53, 0
2, 163133, Note_on_c, 0, 50, 33
2, 163353, Note_on_c, 0, 50, 0
2, 163446, Note_on_c, 0, 51, 60
2, 163555, Note_on_c, 0, 31, 0
2, 163600, Note_on_c, 0, 35, 55
2, 163711, Note_on_c, 0, 51, 0
2, 163812, Note_on_c, 0, 35, 0
2, 163953, Note_on_c, 0, 36, 30
2, 164119, Note_on_c, 0, 55, 57
2, 164278, Note_on_c, 0, 55, 0
2, 164406, Note_on_c, 0, 59, 89
2, 164628, Note_on_c, 0, 59, 0
2, 164683, Note_on_c, 0, 36, 0
2, 164696, Note_on_c, 0, 40, 44
2, 164700, Note_on_c, 0, 62, 91
2, 165002, Note_on_c, 0, 60, 51
2, 165058, Note_on_c, 0, 62, 0
2, 165270, Note_on_c, 0, 60, 0
2, 165314, Note_on_c, 0, 56, 64
2, 165374, Note_on_c, 0, 39, 21
2, 165499, Note_on_c, 0, 39, 0
2, 165534, Note_on_c, 0, 40, 0
2, 165567, Note_on_c, 0, 41, 34
2, 165575, Note_on_c, 0, 56, 0
2, 165653, Note_on_c, 0, 55, 32
2, 165868, Note_on_c, 0, 55, 0
2, 165999, Note_on_c, 0, 53, 53
2, 166072, Note_on_c, 0, 53, 0
2, 166467, Note_on_c, 0, 41, 0
2, 166549, Note_on_c, 0, 43, 40
2, 167106, Note_on_c, 0, 43, 0
2, 167178, Note_on_c, 0, 44, 47
2, 167450, Note_on_c, 0, 44, 0
2, 167476, Note_on_c, 0, 45, 50
2, 168391, Note_on_c, 0, 40, 44
2, 168398, Note_on_c, 0, 45, 0
2, 169275, Note_on_c, 0, 40, 0
2, 169282, Note_on_c, 0, 33, 36
2, 169590, Note_on_c, 0, 59, 35
2, 169701, Note_on_c, 0, 59, 0
2, 169806, Note_on_c, 0, 60, 18
2, 169981, Note_on_c, 0, 64, 47
2, 169982, Note_on_c, 0, 60, 0
2, 170111, Note_on_c, 0, 64, 0
2, 170158, Note_on_c, 0, 67, 69
2, 170254, Note_on_c, 0, 67, 0
2, 170313, Note_on_c, 0, 40, 35
2, 170323, Note_on_c, 0, 33, 0
2, 170380, Note_on_c, 0, 71, 82
2, 170699, Note_on_c, 0, 71, 0
2, 170759, Note_on_c, 0, 74, 87
2, 170805, Note_on_c, 0, 37, 51
2, 170889, Note_on_c, 0, 40, 0
2, 171019, Note_on_c, 0, 73, 73
2, 171088, Note_on_c, 0, 74, 0
2, 171170, Note_on_c, 0, 37, 0
2, 171173, Note_on_c, 0, 73, 0
2, 171212, Note_on_c, 0, 38, 50
2, 171292, Note_on_c, 0, 72, 69
2, 171489, Note_on_c, 0, 72, 0
2, 171604, Note_on_c, 0, 71, 53
2, 171783, Note_on_c, 0, 71, 0
2, 171884, Note_on_c, 0, 69, 75
2, 172048, Note_on_c, 0, 69, 0
2, 172156, Note_on_c, 0, 50, 47
2, 172179, Note_on_c, 0, 68, 44
2, 172388, Note_on_c, 0, 68, 0
2, 172450, Note_on_c, 0, 38, 0
2, 172470, Note_on_c, 0, 71, 60
2, 172690, Note_on_c, 0, 71, 0
2, 172743, Note_on_c, 0, 66, 63
2, 172921, Note_on_c, 0, 66, 0
2, 173031, Note_on_c, 0, 45, 43
2, 173193, Note_on_c, 0, 50, 0
2, 173606, Note_on_c, 0, 45, 0
2, 173655, Note_on_c, 0, 38, 48
2, 173778, Note_on_c, 0, 38, 0
2, 173946, Note_on_c, 0, 66, 55
2, 173950, Note_on_c, 0, 58, 57
2, 173968, Note_on_c, 0, 61, 57
2, 173974, Note_on_c, 0, 51, 64
2, 174413, Note_on_c, 0, 58, 0
2, 174462, Note_on_c, 0, 66, 0
2, 174492, Note_on_c, 0, 61, 0
2, 174562, Note_on_c, 0, 51, 0
2, 174579, Note_on_c, 0, 65, 58
2, 174583, Note_on_c, 0, 57, 50
2, 174591, Note_on_c, 0, 60, 48
2, 174620, Note_on_c, 0, 50, 43
2, 175346, Note_on_c, 0, 65, 0
2, 175380, Note_on_c, 0, 60, 0
2, 175449, Note_on_c, 0, 57, 0
2, 175528, Note_on_c, 0, 45, 52
2, 175613, Note_on_c, 0, 50, 0
2, 175879, Note_on_c, 0, 53, 45
2, 175950, Note_on_c, 0, 53, 0
2, 176174, Note_on_c, 0, 57, 53
2, 176279, Note_on_c, 0, 57, 0
2, 176282, Note_on_c, 0, 45, 0
2, 176450, Note_on_c, 0, 42, 51
2, 176463, Note_on_c, 0, 60, 85
2, 176704, Note_on_c, 0, 60, 0
2, 176753, Note_on_c, 0, 42, 0
2, 176787, Note_on_c, 0, 43, 46
2, 176793, Note_on_c, 0, 59, 73
2, 177038, Note_on_c, 0, 59, 0
2, 177100, Note_on_c, 0, 60, 48
2, 177269, Note_on_c, 0, 60, 0
2, 177380, Note_on_c, 0, 62, 76
2, 177579, Note_on_c, 0, 62, 0
2, 177606, Note_on_c, 0, 43, 0
2, 177661, Note_on_c, 0, 41, 33
2, 177722, Note_on_c, 0, 55, 29
2, 177893, Note_on_c, 0, 55, 0
2, 178000, Note_on_c, 0, 57, 40
2, 178132, Note_on_c, 0, 57, 0
2, 178265, Note_on_c, 0, 39, 36
2, 178268, Note_on_c, 0, 41, 0
2, 178275, Note_on_c, 0, 59, 70
2, 178421, Note_on_c, 0, 59, 0
2, 178476, Note_on_c, 0, 39, 0
2, 178527, Note_on_c, 0, 40, 33
2, 178557, Note_on_c, 0, 55, 56
2, 179156, Note_on_c, 0, 40, 0
2, 179164, Note_on_c, 0, 33, 55
2, 179326, Note_on_c, 0, 55, 0
2, 180093, Note_on_c, 0, 33, 0
2, 180124, Note_on_c, 0, 40, 34
2, 180127, Note_on_c, 0, 38, 34
2, 180268, Note_on_c, 0, 40, 0
2, 180451, Note_on_c, 0, 53, 44
2, 180940, Note_on_c, 0, 53, 0
2, 181021, Note_on_c, 0, 31, 49
2, 181029, Note_on_c, 0, 38, 0
2, 181032, Note_on_c, 0, 57, 37
2, 181148, Note_on_c, 0, 57, 0
2, 181266, Note_on_c, 0, 31, 0
2, 181335, Note_on_c, 0, 59, 89
2, 181340, Note_on_c, 0, 35, 62
2, 181826, Note_on_c, 0, 59, 0
2, 181924, Note_on_c, 0, 62, 81
2, 181938, Note_on_c, 0, 34, 25
2, 181954, Note_on_c, 0, 61, 46
2, 182001, Note_on_c, 0, 61, 0
2, 182115, Note_on_c, 0, 34, 0
2, 182149, Note_on_c, 0, 62, 0
2, 182154, Note_on_c, 0, 35, 0
2, 182186, Note_on_c, 0, 36, 44
2, 182246, Note_on_c, 0, 59, 48
2, 182903, Note_on_c, 0, 36, 0
2, 182910, Note_on_c, 0, 34, 32
2, 182955, Note_on_c, 0, 59, 0
2, 183090, Note_on_c, 0, 34, 0
2, 183132, Note_on_c, 0, 36, 34
2, 183136, Note_on_c, 0, 59, 69
2, 183629, Note_on_c, 0, 59, 0
2, 183754, Note_on_c, 0, 55, 38
2, 183883, Note_on_c, 0, 55, 0
2, 184020, Note_on_c, 0, 58, 63
2, 184046, Note_on_c, 0, 37, 35
2, 184111, Note_on_c, 0, 36, 0
2, 184533, Note_on_c, 0, 58, 0
2, 184646, Note_on_c, 0, 58, 56
2, 184742, Note_on_c, 0, 37, 0
2, 184822, Note_on_c, 0, 58, 0
2, 184914, Note_on_c, 0, 37, 30
2, 184951, Note_on_c, 0, 55, 43
2, 185469, Note_on_c, 0, 55, 0
2, 185529, Note_on_c, 0, 34, 29
2, 185560, Note_on_c, 0, 57, 61
2, 185704, Note_on_c, 0, 37, 0
2, 185714, Note_on_c, 0, 38, 30
2, 185737, Note_on_c, 0, 34, 0
2, 186483, Note_on_c, 0, 37, 38
2, 186486, Note_on_c, 0, 38, 0
2, 186725, Note_on_c, 0, 37, 0
2, 186730, Note_on_c, 0, 40, 50
2, 187306, Note_on_c, 0, 40, 0
2, 187441, Note_on_c, 0, 38, 28
2, 187540, Note_on_c, 0, 38, 0
2, 187637, Note_on_c, 0, 41, 60
2, 188291, Note_on_c, 0, 38, 30
2, 188295, Note_on_c, 0, 41, 0
2, 188450, Note_on_c, 0, 38, 0
2, 188469, Note_on_c, 0, 57, 0
2, 188480, Note_on_c, 0, 42, 60
2, 189115, Note_on_c, 0, 38, 38
2, 189144, Note_on_c, 0, 42, 0
2, 189341, Note_on_c, 0, 38, 0
2, 189365, Note_on_c, 0, 43, 32
2, 189414, Note_on_c, 0, 58, 49
2, 189557, Note_on_c, 0, 59, 46
2, 189567, Note_on_c, 0, 58, 0
2, 189900, Note_on_c, 0, 59, 0
2, 190034, Note_on_c, 0, 67, 87
2, 190200, Note_on_c, 0, 31, 38
2, 190263, Note_on_c, 0, 67, 0
2, 190313, Note_on_c, 0, 43, 0
2, 190447, Note_on_c, 0, 65, 66
2, 190987, Note_on_c, 0, 56, 69
2, 191133, Note_on_c, 0, 43, 24
2, 191654, Note_on_c, 0, 43, 0
2, 191853, Note_on_c, 0, 38, 41
2, 191884, Note_on_c, 0, 31, 0
2, 192037, Note_on_c, 0, 38, 0
2, 192070, Note_on_c, 0, 56, 0
2, 192117, Note_on_c, 0, 65, 0
2, 192119, Note_on_c, 0, 35, 32
2, 192171, Note_on_c, 0, 55, 44
2, 192617, Note_on_c, 0, 55, 0
2, 192775, Note_on_c, 0, 53, 66
2, 192794, Note_on_c, 0, 34, 32
2, 192980, Note_on_c, 0, 53, 0
2, 193003, Note_on_c, 0, 35, 0
2, 193077, Note_on_c, 0, 36, 28
2, 193084, Note_on_c, 0, 34, 0
2, 193180, Note_on_c, 0, 52, 16
2, 193700, Note_on_c, 0, 52, 0
2, 193766, Note_on_c, 0, 55, 20
2, 193802, Note_on_c, 0, 36, 0
2, 193877, Note_on_c, 0, 55, 0
2, 193996, Note_on_c, 0, 60, 73
2, 194514, Note_on_c, 0, 60, 0
2, 194740, Note_on_c, 0, 44, 15
2, 195499, Note_on_c, 0, 59, 87
2, 195634, Note_on_c, 0, 42, 25
2, 195750, Note_on_c, 0, 59, 0
2, 195753, Note_on_c, 0, 42, 0
2, 195771, Note_on_c, 0, 44, 0
2, 195797, Note_on_c, 0, 45, 42
2, 195809, Note_on_c, 0, 62, 78
2, 196056, Note_on_c, 0, 62, 0
2, 196105, Note_on_c, 0, 59, 43
2, 196161, Note_on_c, 0, 45, 0
2, 196265, Note_on_c, 0, 59, 0
2, 196317, Note_on_c, 0, 44, 31
2, 196377, Note_on_c, 0, 60, 78
2, 196521, Note_on_c, 0, 44, 0
2, 196545, Note_on_c, 0, 45, 40
2, 196606, Note_on_c, 0, 60, 0
2, 196672, Note_on_c, 0, 57, 56
2, 196869, Note_on_c, 0, 57, 0
2, 196966, Note_on_c, 0, 52, 34
2, 197039, Note_on_c, 0, 45, 0
2, 197240, Note_on_c, 0, 48, 60
2, 197260, Note_on_c, 0, 40, 1
2, 197267, Note_on_c, 0, 52, 0
2, 197415, Note_on_c, 0, 48, 0
2, 197483, Note_on_c, 0, 40, 0
2, 197562, Note_on_c, 0, 33, 20
2, 198125, Note_on_c, 0, 37, 32
2, 198249, Note_on_c, 0, 33, 0
2, 198304, Note_on_c, 0, 37, 0
2, 198426, Note_on_c, 0, 40, 49
2, 198983, Note_on_c, 0, 36, 38
2, 199006, Note_on_c, 0, 40, 0
2, 199124, Note_on_c, 0, 36, 0
2, 199247, Note_on_c, 0, 37, 46
2, 199824, Note_on_c, 0, 37, 0
2, 199826, Note_on_c, 0, 77, 99
2, 199886, Note_on_c, 0, 38, 38
2, 200064, Note_on_c, 0, 77, 0
2, 200092, Note_on_c, 0, 75, 70
2, 200324, Note_on_c, 0, 75, 0
2, 200335, Note_on_c, 0, 72, 68
2, 200510, Note_on_c, 0, 72, 0
2, 200605, Note_on_c, 0, 66, 36
2, 200800, Note_on_c, 0, 66, 0
2, 200831, Note_on_c, 0, 65, 49
2, 201008, Note_on_c, 0, 65, 0
2, 201058, Note_on_c, 0, 50, 24
2, 201104, Note_on_c, 0, 63, 27
2, 201275, Note_on_c, 0, 63, 0
2, 201657, Note_on_c, 0, 50, 0
2, 201666, Note_on_c, 0, 38, 0
2, 201714, Note_on_c, 0, 45, 34
2, 201976, Note_on_c, 0, 52, 47
2, 202100, Note_on_c, 0, 45, 0
2, 202627, Note_on_c, 0, 46, 34
2, 202668, Note_on_c, 0, 52, 0
2, 202791, Note_on_c, 0, 46, 0
2, 202866, Note_on_c, 0, 51, 62
2, 203387, Note_on_c, 0, 51, 0
2, 203390, Note_on_c, 0, 46, 25
2, 203472, Note_on_c, 0, 65, 94
2, 203534, Note_on_c, 0, 50, 46
2, 203541, Note_on_c, 0, 46, 0
2, 204081, Note_on_c, 0, 60, 41
2, 204139, Note_on_c, 0, 65, 0
2, 204228, Note_on_c, 0, 60, 0
2, 204328, Note_on_c, 0, 57, 36
2, 204350, Note_on_c, 0, 50, 0
2, 204375, Note_on_c, 0, 45, 33
2, 204460, Note_on_c, 0, 57, 0
2, 204649, Note_on_c, 0, 53, 24
2, 204837, Note_on_c, 0, 53, 0
2, 205071, Note_on_c, 0, 45, 0
2, 205088, Note_on_c, 0, 42, 30
2, 205221, Note_on_c, 0, 53, 64
2, 205431, Note_on_c, 0, 42, 0
2, 205432, Note_on_c, 0, 53, 0
2, 205500, Note_on_c, 0, 43, 36
2, 205528, Note_on_c, 0, 54, 43
2, 205753, Note_on_c, 0, 54, 0
2, 205799, Note_on_c, 0, 55, 53
2, 205969, Note_on_c, 0, 55, 0
2, 206113, Note_on_c, 0, 56, 62
2, 206124, Note_on_c, 0, 31, 52
2, 206339, Note_on_c, 0, 56, 0
2, 206443, Note_on_c, 0, 57, 28
2, 206535, Note_on_c, 0, 57, 0
2, 206692, Note_on_c, 0, 58, 62
2, 206833, Note_on_c, 0, 58, 0
2, 206851, Note_on_c, 0, 43, 0
2, 206893, Note_on_c, 0, 31, 0
2, 206977, Note_on_c, 0, 38, 36
2, 206989, Note_on_c, 0, 59, 99
2, 207190, Note_on_c, 0, 59, 0
2, 207206, Note_on_c, 0, 38, 0
2, 207276, Note_on_c, 0, 36, 62
2, 207281, Note_on_c, 0, 62, 95
2, 207535, Note_on_c, 0, 62, 0
2, 207589, Note_on_c, 0, 59, 48
2, 207749, Note_on_c, 0, 59, 0
2, 207870, Note_on_c, 0, 60, 71
2, 208086, Note_on_c, 0, 60, 0
2, 208176, Note_on_c, 0, 55, 35
2, 208724, Note_on_c, 0, 55, 0
2, 208786, Note_on_c, 0, 52, 35
2, 208805, Note_on_c, 0, 43, 30
2, 208881, Note_on_c, 0, 52, 0
2, 208925, Note_on_c, 0, 43, 0
2, 209095, Note_on_c, 0, 48, 43
2, 209395, Note_on_c, 0, 57, 57
2, 209535, Note_on_c, 0, 57, 0
2, 209656, Note_on_c, 0, 60, 74
2, 209778, Note_on_c, 0, 43, 22
2, 209829, Note_on_c, 0, 48, 0
2, 209855, Note_on_c, 0, 60, 0
2, 209904, Note_on_c, 0, 57, 46
2, 209961, Note_on_c, 0, 43, 0
2, 210024, Note_on_c, 0, 57, 0
2, 210136, Note_on_c, 0, 58, 58
2, 210257, Note_on_c, 0, 58, 0
2, 210335, Note_on_c, 0, 36, 0
2, 210388, Note_on_c, 0, 62, 72
2, 210448, Note_on_c, 0, 42, 37
2, 210543, Note_on_c, 0, 62, 0
2, 210629, Note_on_c, 0, 65, 80
2, 210744, Note_on_c, 0, 42, 0
2, 210780, Note_on_c, 0, 43, 31
2, 210781, Note_on_c, 0, 65, 0
2, 210920, Note_on_c, 0, 69, 74
2, 211088, Note_on_c, 0, 69, 0
2, 211183, Note_on_c, 0, 72, 78
2, 211349, Note_on_c, 0, 72, 0
2, 211464, Note_on_c, 0, 70, 72
2, 211596, Note_on_c, 0, 43, 0
2, 211601, Note_on_c, 0, 46, 35
2, 211699, Note_on_c, 0, 70, 0
2, 211770, Note_on_c, 0, 66, 43
2, 212009, Note_on_c, 0, 66, 0
2, 212050, Note_on_c, 0, 69, 67
2, 212241, Note_on_c, 0, 69, 0
2, 212315, Note_on_c, 0, 67, 57
2, 212439, Note_on_c, 0, 46, 0
2, 212460, Note_on_c, 0, 48, 34
2, 212485, Note_on_c, 0, 67, 0
2, 212622, Note_on_c, 0, 64, 25
2, 212830, Note_on_c, 0, 64, 0
2, 212879, Note_on_c, 0, 63, 40
2, 213058, Note_on_c, 0, 63, 0
2, 213159, Note_on_c, 0, 61, 51
2, 213350, Note_on_c, 0, 61, 0
2, 213356, Note_on_c, 0, 52, 25
2, 213367, Note_on_c, 0, 48, 0
2, 213427, Note_on_c, 0, 60, 24
2, 213725, Note_on_c, 0, 52, 0
2, 213886, Note_on_c, 0, 60, 0
2, 213974, Note_on_c, 0, 58, 52
2, 214036, Note_on_c, 0, 50, 37
2, 214191, Note_on_c, 0, 58, 0
2, 214233, Note_on_c, 0, 50, 0
2, 214277, Note_on_c, 0, 57, 47
2, 214300, Note_on_c, 0, 48, 46
2, 214581, Note_on_c, 0, 57, 0
2, 214628, Note_on_c, 0, 58, 44
2, 214819, Note_on_c, 0, 58, 0
2, 214823, Note_on_c, 0, 59, 66
2, 214966, Note_on_c, 0, 59, 0
2, 214992, Note_on_c, 0, 60, 73
2, 215029, Note_on_c, 0, 48, 0
2, 215180, Note_on_c, 0, 48, 43
2, 215193, Note_on_c, 0, 57, 68
2, 215238, Note_on_c, 0, 60, 0
2, 215378, Note_on_c, 0, 48, 0
2, 215630, Note_on_c, 0, 57, 0
2, 215700, Note_on_c, 0, 56, 39
2, 215731, Note_on_c, 0, 50, 66
2, 215885, Note_on_c, 0, 56, 0
2, 216020, Note_on_c, 0, 42, 37
2, 216671, Note_on_c, 0, 48, 29
2, 216812, Note_on_c, 0, 48, 0
2, 216813, Note_on_c, 0, 50, 0
2, 216925, Note_on_c, 0, 51, 60
2, 217548, Note_on_c, 0, 48, 33
2, 217610, Note_on_c, 0, 42, 0
2, 217650, Note_on_c, 0, 51, 0
2, 217718, Note_on_c, 0, 48, 0
2, 217783, Note_on_c, 0, 43, 37
2, 217829, Note_on_c, 0, 53, 49
2, 218441, Note_on_c, 0, 60, 83
2, 218566, Note_on_c, 0, 53, 0
2, 218616, Note_on_c, 0, 50, 36
2, 218636, Note_on_c, 0, 60, 0
2, 218740, Note_on_c, 0, 57, 25
2, 218807, Note_on_c, 0, 50, 0
2, 218884, Note_on_c, 0, 57, 0
2, 218985, Note_on_c, 0, 58, 54
2, 219089, Note_on_c, 0, 58, 0
2, 219121, Note_on_c, 0, 46, 19
2, 219204, Note_on_c, 0, 43, 0
2, 219244, Note_on_c, 0, 62, 74
2, 219266, Note_on_c, 0, 46, 0
2, 219277, Note_on_c, 0, 48, 54
2, 219332, Note_on_c, 0, 48, 0
2, 219398, Note_on_c, 0, 62, 0
2, 219553, Note_on_c, 0, 65, 72
2, 219562, Note_on_c, 0, 62, 71
2, 219564, Note_on_c, 0, 72, 68
2, 219565, Note_on_c, 0, 58, 71
2, 219568, Note_on_c, 0, 69, 68
2, 220153, Note_on_c, 0, 69, 0
2, 220233, Note_on_c, 0, 58, 0
2, 220268, Note_on_c, 0, 62, 0
2, 220296, Note_on_c, 0, 65, 0
2, 220298, Note_on_c, 0, 72, 0
2, 220434, Note_on_c, 0, 70, 61
2, 220437, Note_on_c, 0, 65, 57
2, 220448, Note_on_c, 0, 62, 45
2, 220451, Note_on_c, 0, 48, 47
2, 221001, Note_on_c, 0, 62, 0
2, 221004, Note_on_c, 0, 65, 0
2, 221035, Note_on_c, 0, 70, 0
2, 221071, Note_on_c, 0, 48, 0
2, 221132, Note_on_c, 0, 55, 26
2, 221217, Note_on_c, 0, 55, 0
2, 221282, Note_on_c, 0, 69, 58
2, 221287, Note_on_c, 0, 57, 39
2, 221293, Note_on_c, 0, 64, 44
2, 221299, Note_on_c, 0, 60, 36
2, 221763, Note_on_c, 0, 57, 0
2, 221780, Note_on_c, 0, 69, 0
2, 221888, Note_on_c, 0, 64, 0
2, 221932, Note_on_c, 0, 60, 0
2, 222224, Note_on_c, 0, 41, 60
2, 222228, Note_on_c, 0, 58, 48
2, 222235, Note_on_c, 0, 50, 41
2, 222236, Note_on_c, 0, 65, 50
2, 222576, Note_on_c, 0, 65, 0
2, 222618, Note_on_c, 0, 58, 0
2, 222699, Note_on_c, 0, 50, 0
2, 222704, Note_on_c, 0, 41, 0
2, 222794, Note_on_c, 0, 65, 57
2, 222798, Note_on_c, 0, 57, 50
2, 222800, Note_on_c, 0, 41, 50
2, 222805, Note_on_c, 0, 60, 53
2, 222893, Note_on_c, 0, 48, 31
2, 223280, Note_on_c, 0, 41, 0
2, 223472, Note_on_c, 0, 48, 0
2, 223674, Note_on_c, 0, 48, 60
2, 223806, Note_on_c, 0, 48, 0
2, 223976, Note_on_c, 0, 45, 45
2, 224251, Note_on_c, 0, 65, 0
2, 224410, Note_on_c, 0, 60, 0
2, 224421, Note_on_c, 0, 57, 0
2, 224552, Note_on_c, 0, 44, 29
2, 224674, Note_on_c, 0, 45, 0
2, 224741, Note_on_c, 0, 44, 0
2, 224836, Note_on_c, 0, 46, 40
2, 224839, Note_on_c, 0, 56, 35
2, 224852, Note_on_c, 0, 67, 37
2, 224854, Note_on_c, 0, 60, 31
2, 224859, Note_on_c, 0, 63, 40
2, 225142, Note_on_c, 0, 67, 0
2, 225160, Note_on_c, 0, 63, 0
2, 225176, Note_on_c, 0, 60, 0
2, 225209, Note_on_c, 0, 56, 0
2, 225709, Note_on_c, 0, 34, 39
2, 226358, Note_on_c, 0, 63, 85
2, 226448, Note_on_c, 0, 41, 44
2, 226567, Note_on_c, 0, 63, 0
2, 226652, Note_on_c, 0, 34, 0
2, 226736, Note_on_c, 0, 46, 0
2, 226804, Note_on_c, 0, 62, 53
2, 226816, Note_on_c, 0, 59, 68
2, 227533, Note_on_c, 0, 34, 40
2, 227639, Note_on_c, 0, 41, 0
2, 227967, Note_on_c, 0, 59, 0
2, 228229, Note_on_c, 0, 41, 27
2, 228299, Note_on_c, 0, 41, 0
2, 228380, Note_on_c, 0, 62, 0
2, 228384, Note_on_c, 0, 34, 0
2, 228449, Note_on_c, 0, 58, 53
2, 228471, Note_on_c, 0, 39, 40
2, 229088, Note_on_c, 0, 55, 53
2, 229218, Note_on_c, 0, 39, 0
2, 229283, Note_on_c, 0, 43, 43
2, 229355, Note_on_c, 0, 58, 0
2, 229840, Note_on_c, 0, 43, 0
2, 229948, Note_on_c, 0, 39, 38
2, 230136, Note_on_c, 0, 39, 0
2, 230191, Note_on_c, 0, 40, 45
2, 230347, Note_on_c, 0, 55, 0
2, 230789, Note_on_c, 0, 48, 49
2, 230930, Note_on_c, 0, 48, 0
2, 231080, Note_on_c, 0, 49, 27
2, 231232, Note_on_c, 0, 49, 0
2, 231313, Note_on_c, 0, 51, 48
2, 231473, Note_on_c, 0, 51, 0
2, 231539, Note_on_c, 0, 52, 56
2, 231689, Note_on_c, 0, 52, 0
2, 231713, Note_on_c, 0, 40, 0
2, 231763, Note_on_c, 0, 53, 65
2, 231951, Note_on_c, 0, 53, 0
2, 232023, Note_on_c, 0, 55, 75
2, 232026, Note_on_c, 0, 41, 37
2, 232219, Note_on_c, 0, 55, 0
2, 232263, Note_on_c, 0, 56, 63
2, 232473, Note_on_c, 0, 56, 0
2, 232527, Note_on_c, 0, 53, 60
2, 232825, Note_on_c, 0, 51, 32
2, 233121, Note_on_c, 0, 41, 0
2, 233437, Note_on_c, 0, 51, 0
2, 233452, Note_on_c, 0, 41, 35
2, 233630, Note_on_c, 0, 41, 0
2, 233754, Note_on_c, 0, 44, 57
2, 234208, Note_on_c, 0, 53, 0
2, 234595, Note_on_c, 0, 54, 49
2, 234769, Note_on_c, 0, 54, 0
2, 234892, Note_on_c, 0, 55, 59
2, 234984, Note_on_c, 0, 55, 0
2, 235057, Note_on_c, 0, 44, 0
2, 235179, Note_on_c, 0, 44, 52
2, 235187, Note_on_c, 0, 56, 83
2, 235378, Note_on_c, 0, 56, 0
2, 235466, Note_on_c, 0, 44, 0
2, 235506, Note_on_c, 0, 58, 86
2, 235512, Note_on_c, 0, 43, 39
2, 235580, Note_on_c, 0, 53, 25
2, 235707, Note_on_c, 0, 58, 0
2, 235751, Note_on_c, 0, 59, 61
2, 235797, Note_on_c, 0, 53, 0
2, 235964, Note_on_c, 0, 59, 0
2, 236075, Note_on_c, 0, 56, 72
2, 236144, Note_on_c, 0, 53, 34
2, 236598, Note_on_c, 0, 53, 0
2, 236934, Note_on_c, 0, 53, 61
2, 237205, Note_on_c, 0, 56, 0
2, 237241, Note_on_c, 0, 55, 44
2, 237374, Note_on_c, 0, 55, 0
2, 237516, Note_on_c, 0, 56, 68
2, 237604, Note_on_c, 0, 43, 0
2, 237699, Note_on_c, 0, 56, 0
2, 237814, Note_on_c, 0, 58, 77
2, 237822, Note_on_c, 0, 43, 44
2, 237832, Note_on_c, 0, 56, 35
2, 237894, Note_on_c, 0, 56, 0
2, 237966, Note_on_c, 0, 53, 0
2, 238021, Note_on_c, 0, 58, 0
2, 238104, Note_on_c, 0, 59, 54
2, 238252, Note_on_c, 0, 59, 0
2, 238377, Note_on_c, 0, 62, 74
2, 238547, Note_on_c, 0, 62, 0
2, 238631, Note_on_c, 0, 43, 0
2, 238654, Note_on_c, 0, 63, 84
2, 238709, Note_on_c, 0, 48, 42
2, 238931, Note_on_c, 0, 63, 0
2, 238962, Note_on_c, 0, 64, 70
2, 239112, Note_on_c, 0, 64, 0
2, 239261, Note_on_c, 0, 59, 46
2, 239374, Note_on_c, 0, 59, 0
2, 239516, Note_on_c, 0, 56, 57
2, 239764, Note_on_c, 0, 56, 0
2, 239817, Note_on_c, 0, 36, 27
2, 239828, Note_on_c, 0, 52, 39
2, 240143, Note_on_c, 0, 52, 0
2, 240268, Note_on_c, 0, 48, 0
2, 240402, Note_on_c, 0, 36, 0
2, 240427, Note_on_c, 0, 43, 39
2, 240557, Note_on_c, 0, 43, 0
2, 240719, Note_on_c, 0, 49, 44
2, 241269, Note_on_c, 0, 55, 52
2, 241384, Note_on_c, 0, 49, 0
2, 241424, Note_on_c, 0, 55, 0
2, 241570, Note_on_c, 0, 49, 20
2, 241574, Note_on_c, 0, 58, 53
2, 241691, Note_on_c, 0, 58, 0
2, 241822, Note_on_c, 0, 61, 71
2, 241989, Note_on_c, 0, 61, 0
2, 242097, Note_on_c, 0, 64, 87
2, 242175, Note_on_c, 0, 44, 25
2, 242258, Note_on_c, 0, 49, 0
2, 242295, Note_on_c, 0, 64, 0
2, 242383, Note_on_c, 0, 50, 34
2, 242425, Note_on_c, 0, 67, 80
2, 242461, Note_on_c, 0, 44, 0
2, 243114, Note_on_c, 0, 67, 0
2, 243119, Note_on_c, 0, 50, 0
2, 243152, Note_on_c, 0, 46, 21
2, 243268, Note_on_c, 0, 50, 33
2, 243281, Note_on_c, 0, 65, 56
2, 243282, Note_on_c, 0, 46, 0
2, 243651, Note_on_c, 0, 65, 0
2, 243903, Note_on_c, 0, 50, 0
2, 243972, Note_on_c, 0, 45, 32
2, 244063, Note_on_c, 0, 45, 0
2, 244122, Note_on_c, 0, 53, 48
2, 244126, Note_on_c, 0, 48, 38
2, 244128, Note_on_c, 0, 64, 35
2, 244147, Note_on_c, 0, 60, 31
2, 244155, Note_on_c, 0, 57, 34
2, 244680, Note_on_c, 0, 48, 0
2, 244735, Note_on_c, 0, 42, 35
2, 244877, Note_on_c, 0, 42, 0
2, 244987, Note_on_c, 0, 45, 41
2, 245467, Note_on_c, 0, 45, 0
2, 245582, Note_on_c, 0, 42, 42
2, 245586, Note_on_c, 0, 53, 0
2, 245615, Note_on_c, 0, 57, 0
2, 245641, Note_on_c, 0, 60, 0
2, 245649, Note_on_c, 0, 64, 0
2, 245767, Note_on_c, 0, 42, 0
2, 245865, Note_on_c, 0, 43, 42
2, 246422, Note_on_c, 0, 31, 50
2, 246509, Note_on_c, 0, 43, 0
2, 246698, Note_on_c, 0, 31, 0
2, 246721, Note_on_c, 0, 65, 69
2, 246725, Note_on_c, 0, 57, 66
2, 246734, Note_on_c, 0, 60, 52
2, 246737, Note_on_c, 0, 62, 65
2, 246747, Note_on_c, 0, 43, 47
2, 246814, Note_on_c, 0, 43, 0
2, 246816, Note_on_c, 0, 57, 0
2, 246827, Note_on_c, 0, 60, 0
2, 246858, Note_on_c, 0, 62, 0
2, 246859, Note_on_c, 0, 65, 0
2, 247275, Note_on_c, 0, 65, 73
2, 247286, Note_on_c, 0, 57, 64
2, 247287, Note_on_c, 0, 60, 53
2, 247290, Note_on_c, 0, 62, 63
2, 247317, Note_on_c, 0, 53, 29
2, 247431, Note_on_c, 0, 57, 0
2, 247474, Note_on_c, 0, 65, 0
2, 247513, Note_on_c, 0, 60, 0
2, 247575, Note_on_c, 0, 62, 0
2, 247634, Note_on_c, 0, 53, 0
2, 247690, Note_on_c, 0, 60, 28
2, 247693, Note_on_c, 0, 56, 51
2, 247697, Note_on_c, 0, 65, 74
2, 247699, Note_on_c, 0, 43, 38
2, 247703, Note_on_c, 0, 62, 41
2, 248226, Note_on_c, 0, 60, 0
2, 248317, Note_on_c, 0, 62, 0
2, 248318, Note_on_c, 0, 56, 0
2, 248353, Note_on_c, 0, 65, 0
2, 248525, Note_on_c, 0, 53, 33
2, 248530, Note_on_c, 0, 56, 52
2, 248540, Note_on_c, 0, 65, 41
2, 248552, Note_on_c, 0, 60, 41
2, 248565, Note_on_c, 0, 62, 37
2, 248836, Note_on_c, 0, 53, 0
2, 249028, Note_on_c, 0, 56, 0
2, 249108, Note_on_c, 0, 65, 0
2, 249110, Note_on_c, 0, 60, 0
2, 249159, Note_on_c, 0, 62, 0
2, 249182, Note_on_c, 0, 50, 42
2, 249235, Note_on_c, 0, 43, 0
2, 249320, Note_on_c, 0, 50, 0
2, 249430, Note_on_c, 0, 53, 49
2, 249437, Note_on_c, 0, 56, 51
2, 249438, Note_on_c, 0, 65, 58
2, 249452, Note_on_c, 0, 60, 45
2, 249473, Note_on_c, 0, 62, 47
2, 249902, Note_on_c, 0, 65, 0
2, 249913, Note_on_c, 0, 62, 0
2, 249929, Note_on_c, 0, 60, 0
2, 250003, Note_on_c, 0, 56, 0
2, 250107, Note_on_c, 0, 53, 0
2, 250170, Note_on_c, 0, 51, 30
2, 250289, Note_on_c, 0, 63, 56
2, 250294, Note_on_c, 0, 54, 43
2, 250301, Note_on_c, 0, 58, 61
2, 250770, Note_on_c, 0, 54, 0
2, 250859, Note_on_c, 0, 51, 0
2, 250871, Note_on_c, 0, 55, 55
2, 250874, Note_on_c, 0, 58, 0
2, 250885, Note_on_c, 0, 59, 57
2, 250891, Note_on_c, 0, 52, 48
2, 250897, Note_on_c, 0, 64, 49
2, 251090, Note_on_c, 0, 52, 0
2, 251372, Note_on_c, 0, 48, 58
2, 251998, Note_on_c, 0, 48, 0
2, 252034, Note_on_c, 0, 63, 0
2, 252057, Note_on_c, 0, 59, 0
2, 252074, Note_on_c, 0, 55, 0
2, 252091, Note_on_c, 0, 46, 37
2, 252406, Note_on_c, 0, 64, 0
2, 252665, Note_on_c, 0, 64, 52
2, 252666, Note_on_c, 0, 46, 0
2, 252681, Note_on_c, 0, 55, 51
2, 252693, Note_on_c, 0, 60, 32
2, 252699, Note_on_c, 0, 45, 44
2, 252790, Note_on_c, 0, 55, 0
2, 252858, Note_on_c, 0, 64, 0
2, 252872, Note_on_c, 0, 60, 0
2, 253554, Note_on_c, 0, 52, 51
2, 253770, Note_on_c, 0, 33, 33
2, 253895, Note_on_c, 0, 45, 0
2, 254023, Note_on_c, 0, 52, 0
2, 254155, Note_on_c, 0, 57, 34
2, 254255, Note_on_c, 0, 57, 0
2, 254427, Note_on_c, 0, 60, 70
2, 254464, Note_on_c, 0, 33, 0
2, 254497, Note_on_c, 0, 40, 36
2, 254592, Note_on_c, 0, 60, 0
2, 254647, Note_on_c, 0, 40, 0
2, 254704, Note_on_c, 0, 60, 68
2, 254716, Note_on_c, 0, 64, 65
2, 254730, Note_on_c, 0, 57, 49
2, 254731, Note_on_c, 0, 52, 54
2, 254744, Note_on_c, 0, 45, 49
2, 254870, Note_on_c, 0, 57, 0
2, 254871, Note_on_c, 0, 52, 0
2, 254915, Note_on_c, 0, 60, 0
2, 254930, Note_on_c, 0, 64, 0
2, 255316, Note_on_c, 0, 45, 0
2, 255331, Note_on_c, 0, 37, 35
2, 255475, Note_on_c, 0, 37, 0
2, 255577, Note_on_c, 0, 39, 56
2, 256398, Note_on_c, 0, 39, 0
2, 256411, Note_on_c, 0, 38, 44
2, 256451, Note_on_c, 0, 75, 75
2, 256454, Note_on_c, 0, 68, 80
2, 256455, Note_on_c, 0, 63, 84
2, 256474, Note_on_c, 0, 72, 62
2, 256926, Note_on_c, 0, 75, 0
2, 256939, Note_on_c, 0, 63, 0
2, 256951, Note_on_c, 0, 68, 0
2, 256974, Note_on_c, 0, 72, 0
2, 257033, Note_on_c, 0, 72, 24
2, 257040, Note_on_c, 0, 64, 60
2, 257051, Note_on_c, 0, 76, 68
2, 257056, Note_on_c, 0, 69, 65
2, 257313, Note_on_c, 0, 64, 0
2, 257317, Note_on_c, 0, 76, 0
2, 257321, Note_on_c, 0, 69, 0
2, 257357, Note_on_c, 0, 50, 33
2, 257367, Note_on_c, 0, 72, 0
2, 257457, Note_on_c, 0, 76, 36
2, 257459, Note_on_c, 0, 64, 37
2, 257466, Note_on_c, 0, 69, 62
2, 257473, Note_on_c, 0, 72, 42
2, 257601, Note_on_c, 0, 69, 0
2, 257603, Note_on_c, 0, 76, 0
2, 257622, Note_on_c, 0, 72, 0
2, 257683, Note_on_c, 0, 64, 0
2, 257764, Note_on_c, 0, 50, 0
2, 257934, Note_on_c, 0, 45, 22
2, 257971, Note_on_c, 0, 74, 54
2, 257977, Note_on_c, 0, 66, 42
2, 257992, Note_on_c, 0, 69, 60
2, 257995, Note_on_c, 0, 62, 38
2, 258012, Note_on_c, 0, 45, 0
2, 258229, Note_on_c, 0, 45, 29
2, 258244, Note_on_c, 0, 66, 0
2, 258255, Note_on_c, 0, 69, 0
2, 258261, Note_on_c, 0, 74, 0
2, 258262, Note_on_c, 0, 62, 0
2, 258307, Note_on_c, 0, 45, 0
2, 258424, Note_on_c, 0, 74, 46
2, 258427, Note_on_c, 0, 66, 28
2, 258432, Note_on_c, 0, 69, 46
2, 258440, Note_on_c, 0, 62, 39
2, 258876, Note_on_c, 0, 38, 0
2, 258942, Note_on_c, 0, 45, 73
2, 259083, Note_on_c, 0, 45, 0
2, 259675, Note_on_c, 0, 51, 74
2, 259831, Note_on_c, 0, 51, 0
2, 259957, Note_on_c, 0, 74, 0
2, 259959, Note_on_c, 0, 62, 0
2, 259998, Note_on_c, 0, 69, 0
2, 260007, Note_on_c, 0, 66, 0
2, 260029, Note_on_c, 0, 46, 18
2, 260193, Note_on_c, 0, 46, 0
2, 260230, Note_on_c, 0, 72, 53
2, 260232, Note_on_c, 0, 60, 43
2, 260237, Note_on_c, 0, 69, 54
2, 260251, Note_on_c, 0, 50, 44
2, 260252, Note_on_c, 0, 65, 46
2, 261080, Note_on_c, 0, 60, 0
2, 261114, Note_on_c, 0, 72, 0
2, 261131, Note_on_c, 0, 45, 44
2, 261137, Note_on_c, 0, 50, 0
2, 261185, Note_on_c, 0, 65, 0
2, 261239, Note_on_c, 0, 69, 0
2, 261438, Note_on_c, 0, 74, 64
2, 261457, Note_on_c, 0, 65, 48
2, 261476, Note_on_c, 0, 69, 44
2, 261537, Note_on_c, 0, 69, 0
2, 261548, Note_on_c, 0, 65, 0
2, 261553, Note_on_c, 0, 74, 0
2, 261591, Note_on_c, 0, 45, 0
2, 261726, Note_on_c, 0, 42, 46
2, 261739, Note_on_c, 0, 72, 33
2, 261770, Note_on_c, 0, 71, 31
2, 261845, Note_on_c, 0, 71, 0
2, 261851, Note_on_c, 0, 72, 0
2, 261985, Note_on_c, 0, 42, 0
2, 262032, Note_on_c, 0, 71, 36
2, 262057, Note_on_c, 0, 59, 34
2, 262058, Note_on_c, 0, 43, 47
2, 262073, Note_on_c, 0, 64, 24
2, 262091, Note_on_c, 0, 67, 24
2, 262330, Note_on_c, 0, 59, 0
2, 262356, Note_on_c, 0, 64, 0
2, 262377, Note_on_c, 0, 67, 0
2, 262446, Note_on_c, 0, 71, 0
2, 262658, Note_on_c, 0, 31, 38
2, 262693, Note_on_c, 0, 43, 0
2, 262897, Note_on_c, 0, 31, 0
2, 262929, Note_on_c, 0, 74, 70
2, 262952, Note_on_c, 0, 43, 47
2, 262957, Note_on_c, 0, 67, 50
2, 262965, Note_on_c, 0, 62, 41
2, 263027, Note_on_c, 0, 62, 0
2, 263065, Note_on_c, 0, 43, 0
2, 263077, Note_on_c, 0, 67, 0
2, 263149, Note_on_c, 0, 74, 0
2, 263583, Note_on_c, 0, 72, 66
2, 263605, Note_on_c, 0, 64, 54
2, 263623, Note_on_c, 0, 67, 50
2, 263680, Note_on_c, 0, 67, 0
2, 263691, Note_on_c, 0, 64, 0
2, 263747, Note_on_c, 0, 72, 0
2, 264462, Note_on_c, 0, 54, 38
2, 264717, Note_on_c, 0, 54, 0
2, 264788, Note_on_c, 0, 55, 36
2, 264839, Note_on_c, 0, 55, 0
2, 265438, Note_on_c, 0, 31, 74
2, 265615, Note_on_c, 0, 31, 0
2, 266298, Note_on_c, 0, 31, 68
2, 266465, Note_on_c, 0, 31, 0
2, 267053, Note_on_c, 0, 58, 76
2, 267065, Note_on_c, 0, 34, 71
2, 267206, Note_on_c, 0, 58, 0
2, 267272, Note_on_c, 0, 34, 0
2, 267302, Note_on_c, 0, 59, 83
2, 267310, Note_on_c, 0, 35, 82
2, 267462, Note_on_c, 0, 59, 0
2, 267559, Note_on_c, 0, 35, 0
2, 267609, Note_on_c, 0, 60, 95
2, 267624, Note_on_c, 0, 36, 88
2, 267992, Note_on_c, 0, 36, 0
2, 268009, Note_on_c, 0, 60, 0
2, 269426, Note_on_c, 0, 71, 51
2, 269427, Note_on_c, 0, 64, 35
2, 269449, Note_on_c, 0, 79, 34
2, 269453, Note_on_c, 0, 76, 48
2, 269462, Note_on_c, 0, 74, 37
2, 269614, Note_on_c, 0, 74, 0
2, 269649, Note_on_c, 0, 64, 0
2, 269688, Note_on_c, 0, 76, 0
2, 269699, Note_on_c, 0, 79, 0
2, 269718, Note_on_c, 0, 71, 0
2, 270312, Note_on_c, 0, 73, 34
2, 270313, Note_on_c, 0, 79, 46
2, 270323, Note_on_c, 0, 64, 36
2, 270344, Note_on_c, 0, 70, 35
2, 270359, Note_on_c, 0, 76, 43
2, 270529, Note_on_c, 0, 64, 0
2, 270533, Note_on_c, 0, 76, 0
2, 270551, Note_on_c, 0, 70, 0
2, 270571, Note_on_c, 0, 79, 0
2, 270573, Note_on_c, 0, 73, 0
2, 271230, Note_on_c, 0, 79, 38
2, 271233, Note_on_c, 0, 69, 31
2, 271237, Note_on_c, 0, 64, 34
2, 271242, Note_on_c, 0, 72, 36
2, 271246, Note_on_c, 0, 76, 45
2, 271664, Note_on_c, 0, 76, 0
2, 271742, Control_c, 0, 64, 127
2, 271769, Note_on_c, 0, 69, 0
2, 271772, Note_on_c, 0, 79, 0
2, 271833, Note_on_c, 0, 72, 0
2, 272017, Control_c, 0, 64, 0
2, 272059, Note_on_c, 0, 64, 0
2, 272095, Note_on_c, 0, 77, 45
2, 272114, Note_on_c, 0, 62, 47
2, 272131, Note_on_c, 0, 72, 47
2, 272134, Note_on_c, 0, 69, 38
2, 272321, Control_c, 0, 64, 127
2, 272329, Note_on_c, 0, 72, 0
2, 272361, Note_on_c, 0, 77, 0
2, 272377, Note_on_c, 0, 69, 0
2, 272380, Note_on_c, 0, 62, 0
2, 272710, Note_on_c, 0, 77, 63
2, 272716, Note_on_c, 0, 62, 64
2, 272728, Note_on_c, 0, 72, 58
2, 272730, Note_on_c, 0, 69, 56
2, 272760, Note_on_c, 0, 77, 0
2, 272780, Note_on_c, 0, 72, 0
2, 272786, Note_on_c, 0, 69, 0
2, 272800, Note_on_c, 0, 62, 0
2, 273653, Note_on_c, 0, 29, 89
2, 273675, Note_on_c, 0, 53, 87
2, 273737, Note_on_c, 0, 58, 43
2, 273770, Control_c, 0, 64, 0
2, 273984, Note_on_c, 0, 58, 0
2, 273995, Note_on_c, 0, 53, 0
2, 274006, Note_on_c, 0, 29, 0
2, 274046, Note_on_c, 0, 30, 61
2, 274122, Note_on_c, 0, 54, 44
2, 274577, Note_on_c, 0, 54, 0
2, 274633, Note_on_c, 0, 30, 0
2, 274666, Note_on_c, 0, 31, 90
2, 274670, Note_on_c, 0, 55, 90
2, 275278, Control_c, 0, 64, 127
2, 275382, Note_on_c, 0, 55, 0
2, 275413, Note_on_c, 0, 31, 0
2, 275781, Control_c, 0, 64, 0
2, 275965, Note_on_c, 0, 65, 37
2, 275966, Note_on_c, 0, 57, 38
2, 275985, Note_on_c, 0, 60, 33
2, 275992, Note_on_c, 0, 53, 44
2, 275993, Note_on_c, 0, 62, 42
2, 276015, Note_on_c, 0, 52, 29
2, 276124, Note_on_c, 0, 52, 0
2, 276412, Note_on_c, 0, 65, 0
2, 276443, Note_on_c, 0, 57, 0
2, 276466, Note_on_c, 0, 60, 0
2, 276481, Note_on_c, 0, 62, 0
2, 276509, Note_on_c, 0, 53, 0
2, 276610, Note_on_c, 0, 65, 45
2, 276614, Note_on_c, 0, 60, 36
2, 276618, Note_on_c, 0, 57, 31
2, 276629, Note_on_c, 0, 62, 46
2, 276649, Note_on_c, 0, 53, 53
2, 277008, Note_on_c, 0, 65, 0
2, 277028, Note_on_c, 0, 60, 0
2, 277040, Note_on_c, 0, 57, 0
2, 277048, Note_on_c, 0, 62, 0
2, 277071, Note_on_c, 0, 53, 0
2, 277252, Note_on_c, 0, 60, 40
2, 277254, Note_on_c, 0, 57, 34
2, 277266, Note_on_c, 0, 53, 48
2, 277267, Note_on_c, 0, 62, 40
2, 277270, Note_on_c, 0, 65, 39
2, 277642, Note_on_c, 0, 57, 0
2, 277676, Note_on_c, 0, 60, 0
2, 277730, Note_on_c, 0, 53, 0
2, 277755, Note_on_c, 0, 65, 0
2, 277848, Note_on_c, 0, 62, 0
2, 277849, Note_on_c, 0, 52, 29
2, 277938, Note_on_c, 0, 62, 18
2, 277939, Note_on_c, 0, 65, 52
2, 277943, Note_on_c, 0, 52, 0
2, 277948, Note_on_c, 0, 53, 49
2, 277956, Note_on_c, 0, 56, 32
2, 277968, Note_on_c, 0, 59, 51
2, 278281, Note_on_c, 0, 59, 0
2, 278348, Note_on_c, 0, 65, 0
2, 278352, Note_on_c, 0, 56, 0
2, 278366, Note_on_c, 0, 62, 0
2, 278372, Note_on_c, 0, 53, 0
2, 278576, Note_on_c, 0, 65, 54
2, 278579, Note_on_c, 0, 56, 54
2, 278597, Note_on_c, 0, 62, 55
2, 278599, Note_on_c, 0, 53, 60
2, 278643, Note_on_c, 0, 59, 25
2, 278711, Note_on_c, 0, 59, 0
2, 278958, Note_on_c, 0, 65, 0
2, 278960, Note_on_c, 0, 56, 0
2, 278997, Note_on_c, 0, 53, 0
2, 279004, Note_on_c, 0, 62, 0
2, 279036, Note_on_c, 0, 52, 42
2, 279163, Note_on_c, 0, 65, 51
2, 279164, Note_on_c, 0, 62, 48
2, 279188, Note_on_c, 0, 60, 50
2, 279190, Note_on_c, 0, 56, 46
2, 279198, Note_on_c, 0, 53, 64
2, 279302, Note_on_c, 0, 52, 0
2, 279626, Note_on_c, 0, 62, 0
2, 279640, Control_c, 0, 64, 127
2, 279641, Note_on_c, 0, 60, 0
2, 279646, Note_on_c, 0, 65, 0
2, 279664, Note_on_c, 0, 53, 0
2, 279693, Note_on_c, 0, 56, 0
2, 279746, Control_c, 0, 64, 0
2, 279918, Note_on_c, 0, 64, 39
2, 279932, Note_on_c, 0, 52, 41
2, 279935, Note_on_c, 0, 55, 40
2, 279962, Note_on_c, 0, 59, 38
2, 279977, Note_on_c, 0, 60, 17
2, 280219, Control_c, 0, 64, 127
2, 280290, Note_on_c, 0, 59, 0
2, 280319, Note_on_c, 0, 60, 0
2, 280327, Note_on_c, 0, 64, 0
2, 280338, Note_on_c, 0, 55, 0
2, 280366, Note_on_c, 0, 52, 0
2, 280585, Note_on_c, 0, 52, 44
2, 280599, Control_c, 0, 64, 0
2, 280602, Note_on_c, 0, 64, 41
2, 280607, Note_on_c, 0, 60, 30
2, 280608, Note_on_c, 0, 59, 43
2, 280622, Note_on_c, 0, 55, 30
2, 280708, Note_on_c, 0, 52, 0
2, 280813, Control_c, 0, 64, 127
2, 280917, Note_on_c, 0, 55, 0
2, 280918, Note_on_c, 0, 60, 0
2, 280948, Note_on_c, 0, 59, 0
2, 280961, Note_on_c, 0, 64, 0
2, 281514, Note_on_c, 0, 31, 87
2, 281517, Note_on_c, 0, 55, 85
2, 281620, Control_c, 0, 64, 0
2, 281836, Note_on_c, 0, 55, 0
2, 281867, Note_on_c, 0, 31, 0
2, 281886, Note_on_c, 0, 32, 72
2, 281924, Note_on_c, 0, 56, 84
2, 281935, Note_on_c, 0, 31, 24
2, 281985, Note_on_c, 0, 31, 0
2, 282169, Control_c, 0, 64, 127
2, 282324, Note_on_c, 0, 30, 51
2, 282361, Note_on_c, 0, 56, 0
2, 282412, Note_on_c, 0, 32, 0
2, 282440, Note_on_c, 0, 30, 0
2, 282475, Control_c, 0, 64, 0
2, 282486, Note_on_c, 0, 33, 99
2, 282491, Note_on_c, 0, 57, 115
2, 283010, Note_on_c, 0, 33, 0
2, 283030, Note_on_c, 0, 57, 0
2, 284606, Note_on_c, 0, 64, 31
2, 284630, Note_on_c, 0, 60, 26
2, 284631, Note_on_c, 0, 57, 32
2, 284648, Note_on_c, 0, 55, 24
2, 284649, Note_on_c, 0, 48, 33
2, 284826, Note_on_c, 0, 48, 0
2, 284871, Note_on_c, 0, 57, 0
2, 284911, Note_on_c, 0, 55, 0
2, 284914, Note_on_c, 0, 64, 0
2, 284952, Note_on_c, 0, 60, 0
2, 285519, Note_on_c, 0, 50, 35
2, 285525, Note_on_c, 0, 64, 36
2, 285536, Note_on_c, 0, 54, 25
2, 285550, Note_on_c, 0, 56, 39
2, 285564, Note_on_c, 0, 60, 28
2, 285772, Note_on_c, 0, 50, 0
2, 285908, Note_on_c, 0, 60, 0
2, 285910, Note_on_c, 0, 54, 0
2, 285919, Note_on_c, 0, 56, 0
2, 285933, Note_on_c, 0, 64, 0
2, 286443, Note_on_c, 0, 64, 41
2, 286464, Note_on_c, 0, 57, 38
2, 286466, Note_on_c, 0, 60, 32
2, 286469, Note_on_c, 0, 38, 34
2, 286477, Note_on_c, 0, 54, 27
2, 286704, Note_on_c, 0, 38, 0
2, 286744, Note_on_c, 0, 57, 0
2, 286788, Note_on_c, 0, 54, 0
2, 286796, Note_on_c, 0, 60, 0
2, 286798, Note_on_c, 0, 64, 0
2, 287373, Note_on_c, 0, 50, 32
2, 287396, Note_on_c, 0, 54, 18
2, 287399, Note_on_c, 0, 62, 24
2, 287409, Note_on_c, 0, 57, 29
2, 287440, Note_on_c, 0, 60, 24
2, 287662, Note_on_c, 0, 57, 0
2, 287711, Note_on_c, 0, 60, 0
2, 287734, Note_on_c, 0, 50, 0
2, 287743, Note_on_c, 0, 54, 0
2, 287804, Note_on_c, 0, 62, 0
2, 288027, Note_on_c, 0, 54, 31
2, 288050, Note_on_c, 0, 50, 36
2, 288067, Note_on_c, 0, 62, 28
2, 288079, Note_on_c, 0, 57, 24
2, 288080, Note_on_c, 0, 60, 27
2, 288141, Note_on_c, 0, 57, 0
2, 288146, Note_on_c, 0, 50, 0
2, 288167, Note_on_c, 0, 54, 0
2, 288172, Note_on_c, 0, 60, 0
2, 288240, Note_on_c, 0, 62, 0
2, 288310, Control_c, 0, 64, 127
2, 288388, Control_c, 0, 64, 0
2, 288967, Note_on_c, 0, 40, 59
2, 288968, Note_on_c, 0, 77, 60
2, 288990, Note_on_c, 0, 65, 40
2, 289004, Note_on_c, 0, 28, 34
2, 289055, Note_on_c, 0, 72, 22
2, 289070, Note_on_c, 0, 28, 0
2, 289122, Note_on_c, 0, 72, 0
2, 289132, Note_on_c, 0, 40, 0
2, 289133, Note_on_c, 0, 65, 0
2, 289163, Note_on_c, 0, 77, 0
2, 289396, Note_on_c, 0, 78, 74
2, 289401, Note_on_c, 0, 30, 70
2, 289404, Note_on_c, 0, 66, 73
2, 289406, Note_on_c, 0, 42, 73
2, 289409, Note_on_c, 0, 73, 64
2, 289762, Note_on_c, 0, 66, 0
2, 289789, Note_on_c, 0, 73, 0
2, 289796, Note_on_c, 0, 30, 0
2, 289798, Note_on_c, 0, 78, 0
2, 289835, Note_on_c, 0, 42, 0
2, 290002, Note_on_c, 0, 43, 89
2, 290003, Note_on_c, 0, 31, 88
2, 290022, Note_on_c, 0, 79, 82
2, 290028, Note_on_c, 0, 74, 83
2, 290029, Note_on_c, 0, 67, 89
2, 290074, Note_on_c, 0, 77, 40
2, 290132, Note_on_c, 0, 77, 0
2, 290213, Note_on_c, 0, 79, 0
2, 290234, Note_on_c, 0, 31, 0
2, 290250, Note_on_c, 0, 67, 0
2, 290255, Note_on_c, 0, 74, 0
2, 290337, Note_on_c, 0, 43, 0
2, 290596, Control_c, 0, 64, 127
2, 290871, Control_c, 0, 64, 0
2, 291026, Note_on_c, 0, 66, 64
2, 291032, Note_on_c, 0, 70, 56
2, 291049, Note_on_c, 0, 60, 48
2, 291059, Note_on_c, 0, 72, 58
2, 291114, Note_on_c, 0, 64, 22
2, 291160, Control_c, 0, 64, 127
2, 291231, Note_on_c, 0, 64, 0
2, 291245, Note_on_c, 0, 66, 0
2, 291247, Note_on_c, 0, 70, 0
2, 291294, Note_on_c, 0, 72, 0
2, 291298, Control_c, 0, 64, 0
2, 291341, Note_on_c, 0, 60, 0
2, 291437, Note_on_c, 0, 62, 62
2, 291450, Note_on_c, 0, 74, 77
2, 291484, Note_on_c, 0, 65, 46
2, 291487, Note_on_c, 0, 69, 50
2, 291573, Note_on_c, 0, 69, 0
2, 291603, Note_on_c, 0, 62, 0
2, 291613, Note_on_c, 0, 65, 0
2, 291636, Note_on_c, 0, 74, 0
2, 292015, Note_on_c, 0, 60, 44
2, 292019, Note_on_c, 0, 72, 57
2, 292031, Note_on_c, 0, 67, 59
2, 292045, Note_on_c, 0, 64, 50
2, 292068, Note_on_c, 0, 69, 42
2, 292122, Note_on_c, 0, 64, 0
2, 292135, Note_on_c, 0, 69, 0
2, 292168, Note_on_c, 0, 67, 0
2, 292192, Note_on_c, 0, 60, 0
2, 292230, Note_on_c, 0, 72, 0
2, 292396, Note_on_c, 0, 59, 49
2, 292403, Note_on_c, 0, 71, 47
2, 292416, Note_on_c, 0, 67, 54
2, 292444, Note_on_c, 0, 62, 31
2, 292505, Note_on_c, 0, 62, 0
2, 292531, Control_c, 0, 64, 127
2, 292543, Note_on_c, 0, 67, 0
2, 292546, Note_on_c, 0, 59, 0
2, 292617, Note_on_c, 0, 71, 0
2, 292623, Control_c, 0, 64, 0
2, 292761, Control_c, 0, 64, 127
2, 292960, Control_c, 0, 64, 0
2, 293031, Note_on_c, 0, 59, 41
2, 293037, Note_on_c, 0, 81, 60
2, 293040, Note_on_c, 0, 69, 58
2, 293045, Note_on_c, 0, 74, 60
2, 293072, Note_on_c, 0, 64, 24
2, 293075, Note_on_c, 0, 53, 25
2, 293123, Note_on_c, 0, 69, 0
2, 293150, Note_on_c, 0, 64, 0
2, 293162, Note_on_c, 0, 74, 0
2, 293180, Note_on_c, 0, 81, 0
2, 293195, Note_on_c, 0, 59, 0
2, 293197, Note_on_c, 0, 53, 0
2, 293884, Note_on_c, 0, 73, 46
2, 293896, Note_on_c, 0, 79, 57
2, 293905, Note_on_c, 0, 67, 44
2, 293907, Note_on_c, 0, 62, 44
2, 293911, Note_on_c, 0, 52, 37
2, 293923, Note_on_c, 0, 58, 43
2, 293989, Note_on_c, 0, 73, 0
2, 293999, Note_on_c, 0, 67, 0
2, 294021, Note_on_c, 0, 74, 29
2, 294028, Note_on_c, 0, 62, 0
2, 294072, Note_on_c, 0, 52, 0
2, 294084, Note_on_c, 0, 79, 0
2, 294086, Note_on_c, 0, 58, 0
2, 294098, Note_on_c, 0, 74, 0
2, 294761, Note_on_c, 0, 61, 65
2, 294765, Note_on_c, 0, 70, 56
2, 294785, Note_on_c, 0, 55, 53
2, 294788, Note_on_c, 0, 65, 62
2, 294869, Note_on_c, 0, 61, 0
2, 294904, Note_on_c, 0, 55, 0
2, 294905, Note_on_c, 0, 65, 0
2, 294963, Note_on_c, 0, 70, 0
2, 295241, Note_on_c, 0, 50, 56
2, 295246, Note_on_c, 0, 69, 64
2, 295248, Note_on_c, 0, 65, 60
2, 295261, Note_on_c, 0, 60, 36
2, 295583, Note_on_c, 0, 69, 0
2, 295646, Note_on_c, 0, 65, 0
2, 295651, Note_on_c, 0, 60, 0
2, 295778, Control_c, 0, 64, 127
2, 295884, Control_c, 0, 64, 0
2, 295915, Note_on_c, 0, 50, 0
2, 296037, Note_on_c, 0, 68, 63
2, 296057, Note_on_c, 0, 59, 54
2, 296068, Note_on_c, 0, 43, 34
2, 296071, Note_on_c, 0, 64, 49
2, 296077, Note_on_c, 0, 53, 36
2, 296584, Control_c, 0, 64, 127
2, 296714, Note_on_c, 0, 53, 0
2, 296716, Note_on_c, 0, 59, 0
2, 296732, Note_on_c, 0, 64, 0
2, 296807, Note_on_c, 0, 68, 0
2, 296819, Note_on_c, 0, 43, 0
2, 297920, Note_on_c, 0, 35, 13
2, 297973, Control_c, 0, 64, 0
2, 298027, Note_on_c, 0, 35, 0
2, 298067, Note_on_c, 0, 48, 110
2, 298079, Note_on_c, 0, 36, 92
2, 298492, Note_on_c, 0, 48, 0
2, 298670, Note_on_c, 0, 24, 57
2, 299058, Note_on_c, 0, 24, 0
2, 299100, Note_on_c, 0, 36, 0
2, 300067, Note_on_c, 0, 79, 38
2, 300082, Note_on_c, 0, 74, 42
2, 300087, Note_on_c, 0, 64, 36
2, 300090, Note_on_c, 0, 69, 29
2, 300354, Note_on_c, 0, 74, 0
2, 300368, Note_on_c, 0, 69, 0
2, 300377, Note_on_c, 0, 64, 0
2, 300380, Note_on_c, 0, 79, 0
2, 300970, Note_on_c, 0, 79, 55
2, 300984, Note_on_c, 0, 73, 45
2, 301013, Note_on_c, 0, 70, 25
2, 301020, Note_on_c, 0, 64, 34
2, 301228, Note_on_c, 0, 64, 0
2, 301251, Note_on_c, 0, 79, 0
2, 301257, Note_on_c, 0, 70, 0
2, 301292, Note_on_c, 0, 73, 0
2, 301867, Note_on_c, 0, 79, 51
2, 301877, Note_on_c, 0, 69, 47
2, 301897, Note_on_c, 0, 64, 33
2, 301898, Note_on_c, 0, 72, 49
2, 302324, Note_on_c, 0, 69, 0
2, 302326, Note_on_c, 0, 79, 0
2, 302345, Note_on_c, 0, 72, 0
2, 302406, Control_c, 0, 64, 127
2, 302636, Control_c, 0, 64, 0
2, 302666, Note_on_c, 0, 64, 0
2, 302733, Note_on_c, 0, 78, 37
2, 302752, Note_on_c, 0, 73, 36
2, 302780, Note_on_c, 0, 63, 29
2, 303065, Note_on_c, 0, 78, 0
2, 303120, Note_on_c, 0, 73, 0
2, 303185, Control_c, 0, 64, 127
2, 303309, Note_on_c, 0, 63, 0
2, 303352, Control_c, 0, 64, 0
2, 303363, Note_on_c, 0, 62, 49
2, 303370, Note_on_c, 0, 77, 50
2, 303405, Note_on_c, 0, 72, 40
2, 303499, Note_on_c, 0, 62, 0
2, 303507, Note_on_c, 0, 77, 0
2, 303534, Control_c, 0, 64, 127
2, 303546, Note_on_c, 0, 72, 0
2, 304419, Control_c, 0, 64, 0
2, 304531, Note_on_c, 0, 32, 38
2, 304537, Note_on_c, 0, 58, 50
2, 304552, Note_on_c, 0, 63, 34
2, 304556, Note_on_c, 0, 44, 37
2, 304655, Note_on_c, 0, 54, 10
2, 304738, Control_c, 0, 64, 127
2, 305015, Note_on_c, 0, 54, 0
2, 305016, Note_on_c, 0, 32, 0
2, 305017, Note_on_c, 0, 44, 0
2, 305022, Note_on_c, 0, 63, 0
2, 305041, Note_on_c, 0, 58, 0
2, 305139, Note_on_c, 0, 64, 71
2, 305141, Note_on_c, 0, 43, 74
2, 305145, Note_on_c, 0, 31, 70
2, 305150, Control_c, 0, 64, 0
2, 305156, Note_on_c, 0, 57, 72
2, 305158, Note_on_c, 0, 53, 78
2, 305162, Note_on_c, 0, 60, 61
2, 305334, Note_on_c, 0, 53, 0
2, 305416, Note_on_c, 0, 60, 0
2, 305421, Note_on_c, 0, 57, 0
2, 305439, Note_on_c, 0, 31, 0
2, 305484, Note_on_c, 0, 64, 0
2, 305522, Note_on_c, 0, 43, 0
2, 306159, Note_on_c, 0, 52, 34
2, 306162, Note_on_c, 0, 65, 47
2, 306163, Note_on_c, 0, 57, 43
2, 306173, Note_on_c, 0, 60, 42
2, 306180, Note_on_c, 0, 62, 46
2, 306213, Note_on_c, 0, 53, 47
2, 306286, Note_on_c, 0, 52, 0
2, 306436, Note_on_c, 0, 60, 0
2, 306439, Note_on_c, 0, 65, 0
2, 306462, Note_on_c, 0, 57, 0
2, 306471, Note_on_c, 0, 62, 0
2, 306559, Note_on_c, 0, 53, 0
2, 306570, Note_on_c, 0, 52, 36
2, 307108, Note_on_c, 0, 57, 57
2, 307109, Note_on_c, 0, 60, 43
2, 307112, Note_on_c, 0, 53, 66
2, 307115, Note_on_c, 0, 52, 0
2, 307122, Note_on_c, 0, 65, 57
2, 307140, Note_on_c, 0, 62, 37
2, 307161, Note_on_c, 0, 57, 0
2, 307224, Note_on_c, 0, 62, 0
2, 307236, Note_on_c, 0, 60, 0
2, 307252, Note_on_c, 0, 53, 0
2, 307278, Note_on_c, 0, 65, 0
2, 307743, Note_on_c, 0, 65, 42
2, 307764, Note_on_c, 0, 74, 74
2, 307768, Note_on_c, 0, 64, 46
2, 307794, Note_on_c, 0, 69, 52
2, 307798, Note_on_c, 0, 71, 41
2, 307799, Note_on_c, 0, 72, 39
2, 307827, Note_on_c, 0, 64, 0
2, 307839, Note_on_c, 0, 65, 0
2, 307848, Note_on_c, 0, 69, 0
2, 307854, Note_on_c, 0, 71, 0
2, 307862, Note_on_c, 0, 72, 0
2, 307885, Note_on_c, 0, 74, 0
2, 308394, Note_on_c, 0, 56, 57
2, 308406, Note_on_c, 0, 52, 36
2, 308413, Note_on_c, 0, 65, 43
2, 308427, Note_on_c, 0, 62, 35
2, 308451, Note_on_c, 0, 53, 51
2, 308503, Note_on_c, 0, 52, 0
2, 308512, Note_on_c, 0, 56, 0
2, 308552, Note_on_c, 0, 53, 0
2, 308577, Note_on_c, 0, 65, 0
2, 308598, Note_on_c, 0, 62, 0
2, 309030, Note_on_c, 0, 52, 34
2, 309038, Note_on_c, 0, 65, 54
2, 309060, Note_on_c, 0, 53, 54
2, 309061, Note_on_c, 0, 60, 43
2, 309066, Note_on_c, 0, 56, 46
2, 309067, Note_on_c, 0, 62, 44
2, 309096, Note_on_c, 0, 52, 0
2, 309465, Note_on_c, 0, 60, 0
2, 309487, Note_on_c, 0, 62, 0
2, 309538, Note_on_c, 0, 65, 0
2, 309582, Note_on_c, 0, 56, 0
2, 309622, Note_on_c, 0, 53, 0
2, 309892, Note_on_c, 0, 64, 47
2, 309902, Note_on_c, 0, 55, 51
2, 309915, Note_on_c, 0, 59, 50
2, 309941, Note_on_c, 0, 52, 45
2, 310048, Note_on_c, 0, 55, 0
2, 310053, Note_on_c, 0, 64, 0
2, 310075, Note_on_c, 0, 59, 0
2, 310120, Note_on_c, 0, 52, 0
2, 310204, Note_on_c, 0, 51, 30
2, 310388, Note_on_c, 0, 51, 0
2, 310433, Note_on_c, 0, 64, 58
2, 310441, Note_on_c, 0, 55, 54
2, 310445, Note_on_c, 0, 59, 60
2, 310459, Note_on_c, 0, 52, 55
2, 310929, Note_on_c, 0, 52, 0
2, 311078, Control_c, 0, 64, 127
2, 311470, Note_on_c, 0, 55, 0
2, 311475, Note_on_c, 0, 59, 0
2, 311784, Note_on_c, 0, 64, 0
2, 311794, Note_on_c, 0, 43, 57
2, 311810, Note_on_c, 0, 55, 42
2, 311887, Note_on_c, 0, 43, 0
2, 311991, Control_c, 0, 64, 0
2, 312033, Note_on_c, 0, 55, 0
2, 312139, Note_on_c, 0, 44, 48
2, 312148, Note_on_c, 0, 32, 34
2, 312172, Note_on_c, 0, 56, 35
2, 312480, Control_c, 0, 64, 127
2, 312499, Note_on_c, 0, 32, 0
2, 312505, Note_on_c, 0, 56, 0
2, 312578, Note_on_c, 0, 44, 0
2, 312739, Control_c, 0, 64, 0
2, 312753, Note_on_c, 0, 45, 58
2, 312756, Note_on_c, 0, 57, 45
2, 312759, Note_on_c, 0, 33, 49
2, 312761, Note_on_c, 0, 55, 45
2, 312762, Note_on_c, 0, 52, 40
2, 312822, Note_on_c, 0, 52, 0
2, 312862, Note_on_c, 0, 55, 0
2, 312897, Note_on_c, 0, 57, 0
2, 312907, Note_on_c, 0, 33, 0
2, 312940, Note_on_c, 0, 45, 0
2, 314050, Control_c, 0, 64, 127
2, 314355, Control_c, 0, 64, 0
2, 314542, Note_on_c, 0, 87, 77
2, 314551, Note_on_c, 0, 75, 82
2, 314554, Note_on_c, 0, 64, 72
2, 314559, Note_on_c, 0, 55, 70
2, 314560, Note_on_c, 0, 82, 74
2, 314570, Note_on_c, 0, 60, 46
2, 314577, Note_on_c, 0, 57, 44
2, 314645, Note_on_c, 0, 75, 0
2, 314650, Note_on_c, 0, 88, 26
2, 314707, Note_on_c, 0, 83, 30
2, 314784, Note_on_c, 0, 83, 0
2, 314799, Note_on_c, 0, 88, 0
2, 314815, Note_on_c, 0, 82, 0
2, 314820, Note_on_c, 0, 55, 0
2, 314834, Note_on_c, 0, 64, 0
2, 314835, Note_on_c, 0, 87, 0
2, 314869, Note_on_c, 0, 57, 0
2, 314872, Note_on_c, 0, 60, 0
2, 314959, Note_on_c, 0, 88, 59
2, 314963, Note_on_c, 0, 55, 45
2, 314974, Note_on_c, 0, 64, 47
2, 314981, Note_on_c, 0, 60, 56
2, 314992, Note_on_c, 0, 76, 53
2, 314994, Note_on_c, 0, 57, 57
2, 315030, Note_on_c, 0, 86, 28
2, 315144, Note_on_c, 0, 86, 0
2, 315162, Note_on_c, 0, 88, 0
2, 315170, Note_on_c, 0, 55, 0
2, 315222, Note_on_c, 0, 76, 0
2, 315288, Note_on_c, 0, 57, 0
2, 315292, Note_on_c, 0, 64, 0
2, 315314, Note_on_c, 0, 60, 0
2, 315360, Control_c, 0, 64, 127
2, 315511, Control_c, 0, 64, 0
2, 315536, Note_on_c, 0, 84, 62
2, 315559, Note_on_c, 0, 64, 53
2, 315565, Note_on_c, 0, 72, 62
2, 315567, Note_on_c, 0, 60, 38
2, 315573, Note_on_c, 0, 57, 36
2, 315580, Note_on_c, 0, 55, 50
2, 315615, Note_on_c, 0, 81, 32
2, 315656, Note_on_c, 0, 55, 0
2, 315670, Note_on_c, 0, 84, 0
2, 315680, Note_on_c, 0, 81, 0
2, 315694, Note_on_c, 0, 64, 0
2, 315696, Note_on_c, 0, 72, 0
2, 315697, Note_on_c, 0, 60, 0
2, 315710, Note_on_c, 0, 57, 0
2, 315890, Note_on_c, 0, 64, 30
2, 315896, Note_on_c, 0, 57, 33
2, 315900, Note_on_c, 0, 55, 36
2, 315928, Note_on_c, 0, 60, 25
2, 316197, Note_on_c, 0, 64, 0
2, 316214, Note_on_c, 0, 55, 0
2, 316237, Note_on_c, 0, 57, 0
2, 316243, Note_on_c, 0, 60, 0
2, 316442, Control_c, 0, 64, 127
2, 316489, Note_on_c, 0, 55, 51
2, 316502, Note_on_c, 0, 72, 68
2, 316504, Note_on_c, 0, 64, 44
2, 316508, Note_on_c, 0, 84, 59
2, 316512, Note_on_c, 0, 60, 38
2, 316539, Note_on_c, 0, 57, 33
2, 316556, Note_on_c, 0, 55, 0
2, 316585, Note_on_c, 0, 64, 0
2, 316600, Note_on_c, 0, 57, 0
2, 316603, Note_on_c, 0, 72, 0
2, 316612, Note_on_c, 0, 84, 0
2, 316667, Note_on_c, 0, 60, 0
2, 316746, Control_c, 0, 64, 0
2, 316846, Note_on_c, 0, 64, 68
2, 316851, Note_on_c, 0, 87, 71
2, 316852, Note_on_c, 0, 60, 52
2, 316856, Note_on_c, 0, 75, 67
2, 316862, Note_on_c, 0, 54, 72
2, 317041, Note_on_c, 0, 88, 33
2, 317099, Note_on_c, 0, 87, 0
2, 317104, Note_on_c, 0, 81, 14
2, 317146, Note_on_c, 0, 76, 52
2, 317150, Note_on_c, 0, 75, 0
2, 317371, Control_c, 0, 64, 127
2, 317420, Note_on_c, 0, 88, 0
2, 317450, Note_on_c, 0, 76, 0
2, 317497, Note_on_c, 0, 64, 0
2, 317509, Control_c, 0, 64, 0
2, 317514, Note_on_c, 0, 54, 0
2, 317533, Note_on_c, 0, 60, 0
2, 317535, Note_on_c, 0, 81, 0
2, 317710, Note_on_c, 0, 87, 53
2, 317722, Note_on_c, 0, 64, 43
2, 317737, Note_on_c, 0, 54, 40
2, 317740, Note_on_c, 0, 75, 51
2, 317743, Note_on_c, 0, 60, 28
2, 317828, Control_c, 0, 64, 127
2, 317831, Note_on_c, 0, 60, 0
2, 317846, Note_on_c, 0, 64, 0
2, 317942, Note_on_c, 0, 54, 0
2, 318089, Note_on_c, 0, 87, 0
2, 318146, Note_on_c, 0, 75, 0
2, 318271, Control_c, 0, 64, 0
2, 318345, Note_on_c, 0, 60, 42
2, 318346, Note_on_c, 0, 86, 52
2, 318352, Note_on_c, 0, 50, 40
2, 318360, Note_on_c, 0, 54, 34
2, 318395, Note_on_c, 0, 81, 34
2, 318415, Note_on_c, 0, 74, 19
2, 318698, Control_c, 0, 64, 127
2, 318891, Note_on_c, 0, 86, 0
2, 318906, Note_on_c, 0, 81, 0
2, 318996, Note_on_c, 0, 74, 0
2, 319161, Note_on_c, 0, 60, 0
2, 319280, Note_on_c, 0, 50, 0
2, 319497, Note_on_c, 0, 54, 0
2, 319580, Control_c, 0, 64, 0
2, 319617, Note_on_c, 0, 73, 62
2, 319637, Note_on_c, 0, 63, 70
2, 319646, Note_on_c, 0, 58, 68
2, 319978, Control_c, 0, 64, 127
2, 320089, Note_on_c, 0, 73, 0
2, 320105, Note_on_c, 0, 63, 0
2, 320137, Note_on_c, 0, 58, 0
2, 320190, Control_c, 0, 64, 0
2, 320238, Note_on_c, 0, 72, 55
2, 320242, Note_on_c, 0, 57, 45
2, 320245, Note_on_c, 0, 65, 51
2, 320257, Note_on_c, 0, 62, 34
2, 320260, Note_on_c, 0, 69, 52
2, 320542, Control_c, 0, 64, 127
2, 320648, Control_c, 0, 64, 0
2, 320716, Note_on_c, 0, 62, 0
2, 320727, Note_on_c, 0, 72, 0
2, 320852, Note_on_c, 0, 65, 0
2, 320923, Control_c, 0, 64, 127
2, 320936, Note_on_c, 0, 69, 0
2, 320952, Note_on_c, 0, 57, 0
2, 321102, Note_on_c, 0, 59, 35
2, 321128, Note_on_c, 0, 65, 57
2, 321140, Note_on_c, 0, 74, 31
2, 321151, Note_on_c, 0, 69, 33
2, 321230, Note_on_c, 0, 74, 0
2, 321340, Note_on_c, 0, 69, 0
2, 321364, Control_c, 0, 64, 0
2, 321385, Note_on_c, 0, 65, 0
2, 321393, Note_on_c, 0, 59, 0
2, 321494, Note_on_c, 0, 57, 31
2, 321497, Note_on_c, 0, 65, 14
2, 321510, Note_on_c, 0, 62, 35
2, 321640, Note_on_c, 0, 65, 0
2, 321709, Note_on_c, 0, 62, 0
2, 321852, Control_c, 0, 64, 127
2, 321958, Control_c, 0, 64, 0
2, 322047, Note_on_c, 0, 71, 36
2, 322051, Note_on_c, 0, 68, 47
2, 322059, Note_on_c, 0, 65, 45
2, 322065, Note_on_c, 0, 62, 36
2, 322066, Note_on_c, 0, 56, 46
2, 322092, Note_on_c, 0, 57, 0
2, 322150, Note_on_c, 0, 62, 0
2, 322157, Note_on_c, 0, 65, 0
2, 322206, Note_on_c, 0, 56, 0
2, 322217, Note_on_c, 0, 71, 0
2, 322226, Note_on_c, 0, 68, 0
2, 322943, Note_on_c, 0, 68, 48
2, 322945, Note_on_c, 0, 74, 40
2, 322960, Note_on_c, 0, 59, 48
2, 322964, Note_on_c, 0, 71, 31
2, 323031, Note_on_c, 0, 71, 0
2, 323040, Note_on_c, 0, 59, 0
2, 323069, Note_on_c, 0, 74, 0
2, 323076, Note_on_c, 0, 68, 0
2, 323767, Note_on_c, 0, 72, 60
2, 323772, Note_on_c, 0, 62, 53
2, 323784, Note_on_c, 0, 57, 43
2, 323785, Note_on_c, 0, 67, 51
2, 323841, Note_on_c, 0, 57, 0
2, 323846, Note_on_c, 0, 67, 0
2, 323876, Note_on_c, 0, 62, 0
2, 323913, Note_on_c, 0, 72, 0
2, 324711, Note_on_c, 0, 45, 31
2, 324712, Note_on_c, 0, 43, 45
2, 324798, Note_on_c, 0, 45, 0
2, 324809, Note_on_c, 0, 43, 0
2, 325037, Note_on_c, 0, 35, 41
2, 325328, Note_on_c, 0, 35, 0
2, 326008, Note_on_c, 0, 36, 74
2, 326158, Note_on_c, 0, 36, 0
2, 326625, Note_on_c, 0, 24, 40
2, 327002, Note_on_c, 0, 24, 0
2, 327620, Note_on_c, 0, 42, 56
2, 327909, Note_on_c, 0, 42, 0
2, 327997, Note_on_c, 0, 43, 36
2, 328628, Note_on_c, 0, 62, 80
2, 328910, Note_on_c, 0, 43, 0
2, 328955, Note_on_c, 0, 38, 32
2, 329573, Note_on_c, 0, 34, 35
2, 329609, Note_on_c, 0, 38, 0
2, 329623, Note_on_c, 0, 58, 42
2, 329663, Note_on_c, 0, 62, 0
2, 329841, Note_on_c, 0, 34, 0
2, 329847, Note_on_c, 0, 58, 0
2, 329902, Note_on_c, 0, 36, 30
2, 329925, Note_on_c, 0, 60, 40
2, 330805, Note_on_c, 0, 36, 0
2, 330831, Note_on_c, 0, 60, 0
2, 330846, Note_on_c, 0, 52, 61
2, 330850, Note_on_c, 0, 28, 44
2, 331428, Note_on_c, 0, 52, 0
2, 331518, Note_on_c, 0, 55, 84
2, 331638, Note_on_c, 0, 28, 0
2, 331720, Note_on_c, 0, 29, 37
2, 331834, Note_on_c, 0, 55, 0
2, 331990, Note_on_c, 0, 53, 34
2, 332528, Note_on_c, 0, 53, 0
2, 332535, Note_on_c, 0, 52, 55
2, 332586, Note_on_c, 0, 52, 0
2, 332830, Note_on_c, 0, 41, 29
2, 332847, Note_on_c, 0, 40, 27
2, 332890, Note_on_c, 0, 41, 0
2, 332980, Note_on_c, 0, 40, 0
2, 333300, Note_on_c, 0, 29, 0
2, 333494, Note_on_c, 0, 36, 36
2, 333633, Note_on_c, 0, 36, 0
2, 333766, Note_on_c, 0, 39, 46
2, 334418, Note_on_c, 0, 60, 56
2, 334556, Note_on_c, 0, 60, 0
2, 334719, Note_on_c, 0, 63, 48
2, 334774, Note_on_c, 0, 63, 0
2, 334796, Note_on_c, 0, 39, 0
2, 335013, Note_on_c, 0, 66, 52
2, 335132, Note_on_c, 0, 66, 0
2, 335290, Note_on_c, 0, 42, 50
2, 335313, Note_on_c, 0, 69, 87
2, 335457, Note_on_c, 0, 69, 0
2, 335602, Note_on_c, 0, 42, 0
2, 335651, Note_on_c, 0, 58, 47
2, 335652, Note_on_c, 0, 43, 45
2, 335666, Note_on_c, 0, 67, 46
2, 335672, Note_on_c, 0, 62, 45
2, 336317, Control_c, 0, 64, 127
2, 336363, Control_c, 0, 64, 0
2, 336418, Note_on_c, 0, 43, 0
2, 336421, Note_on_c, 0, 58, 0
2, 336470, Note_on_c, 0, 62, 0
2, 336547, Note_on_c, 0, 67, 0
2, 336566, Note_on_c, 0, 48, 56
2, 336572, Note_on_c, 0, 58, 46
2, 336598, Note_on_c, 0, 65, 52
2, 336611, Note_on_c, 0, 62, 27
2, 336760, Control_c, 0, 64, 127
2, 337142, Note_on_c, 0, 65, 0
2, 337203, Note_on_c, 0, 58, 0
2, 337249, Note_on_c, 0, 62, 0
2, 337445, Control_c, 0, 64, 0
2, 337499, Note_on_c, 0, 58, 53
2, 337511, Note_on_c, 0, 36, 55
2, 337514, Note_on_c, 0, 64, 53
2, 337952, Note_on_c, 0, 48, 0
2, 337984, Note_on_c, 0, 64, 0
2, 337996, Note_on_c, 0, 58, 0
2, 338102, Control_c, 0, 64, 127
2, 338131, Note_on_c, 0, 65, 61
2, 338222, Note_on_c, 0, 43, 16
2, 338310, Note_on_c, 0, 65, 0
2, 338362, Note_on_c, 0, 43, 0
2, 338376, Control_c, 0, 64, 0
2, 338435, Note_on_c, 0, 58, 70
2, 338443, Note_on_c, 0, 67, 73
2, 338444, Note_on_c, 0, 64, 63
2, 338447, Note_on_c, 0, 48, 51
2, 338758, Control_c, 0, 64, 127
2, 338783, Note_on_c, 0, 67, 0
2, 338791, Note_on_c, 0, 64, 0
2, 338899, Note_on_c, 0, 58, 0
2, 339128, Note_on_c, 0, 48, 0
2, 339145, Note_on_c, 0, 43, 37
2, 339314, Note_on_c, 0, 43, 0
2, 339330, Note_on_c, 0, 36, 0
2, 339352, Control_c, 0, 64, 0
2, 339355, Note_on_c, 0, 64, 72
2, 339369, Note_on_c, 0, 57, 67
2, 339370, Note_on_c, 0, 55, 75
2, 339372, Note_on_c, 0, 60, 53
2, 339385, Note_on_c, 0, 48, 61
2, 340053, Control_c, 0, 64, 127
2, 340078, Note_on_c, 0, 60, 0
2, 340081, Note_on_c, 0, 55, 0
2, 340102, Note_on_c, 0, 57, 0
2, 340215, Note_on_c, 0, 64, 0
2, 340250, Control_c, 0, 64, 0
2, 340265, Note_on_c, 0, 36, 46
2, 340287, Note_on_c, 0, 60, 29
2, 340308, Note_on_c, 0, 55, 45
2, 340535, Note_on_c, 0, 48, 0
2, 340713, Note_on_c, 0, 55, 0
2, 340856, Note_on_c, 0, 60, 0
2, 340944, Note_on_c, 0, 62, 64
2, 340968, Note_on_c, 0, 57, 60
2, 340970, Note_on_c, 0, 55, 57
2, 341077, Note_on_c, 0, 48, 24
2, 341235, Note_on_c, 0, 36, 0
2, 341348, Control_c, 0, 64, 127
2, 341454, Control_c, 0, 64, 0
2, 341492, Note_on_c, 0, 57, 0
2, 341638, Control_c, 0, 64, 127
2, 341750, Note_on_c, 0, 62, 0
2, 341837, Note_on_c, 0, 55, 0
2, 341904, Note_on_c, 0, 36, 54
2, 341915, Note_on_c, 0, 48, 0
2, 341978, Note_on_c, 0, 36, 0
2, 342156, Control_c, 0, 64, 0
2, 342236, Note_on_c, 0, 34, 75
2, 342243, Note_on_c, 0, 46, 64
2, 342247, Note_on_c, 0, 67, 84
2, 342249, Note_on_c, 0, 60, 69
2, 342250, Note_on_c, 0, 56, 84
2, 342263, Note_on_c, 0, 63, 64
2, 342430, Control_c, 0, 64, 127
2, 342640, Note_on_c, 0, 67, 0
2, 342667, Note_on_c, 0, 34, 0
2, 342679, Note_on_c, 0, 60, 0
2, 342682, Note_on_c, 0, 56, 0
2, 342713, Note_on_c, 0, 46, 0
2, 342735, Note_on_c, 0, 63, 0
2, 342766, Control_c, 0, 64, 0
2, 342860, Note_on_c, 0, 67, 89
2, 342862, Note_on_c, 0, 46, 83
2, 342863, Note_on_c, 0, 34, 84
2, 342866, Note_on_c, 0, 60, 64
2, 342868, Note_on_c, 0, 56, 92
2, 342869, Note_on_c, 0, 63, 70
2, 343159, Note_on_c, 0, 56, 0
2, 343172, Note_on_c, 0, 60, 0
2, 343173, Note_on_c, 0, 67, 0
2, 343177, Note_on_c, 0, 34, 0
2, 343234, Note_on_c, 0, 63, 0
2, 343252, Note_on_c, 0, 46, 0
2, 343848, Note_on_c, 0, 63, 58
2, 343852, Note_on_c, 0, 70, 59
2, 343863, Note_on_c, 0, 60, 49
2, 343878, Note_on_c, 0, 67, 57
2, 343892, Note_on_c, 0, 58, 46
2, 344213, Control_c, 0, 64, 127
2, 344228, Control_c, 0, 64, 0
2, 344471, Control_c, 0, 64, 127
2, 344511, Note_on_c, 0, 67, 0
2, 344681, Note_on_c, 0, 70, 0
2, 344716, Note_on_c, 0, 58, 0
2, 344793, Note_on_c, 0, 60, 0
2, 344863, Note_on_c, 0, 63, 0
2, 345095, Control_c, 0, 64, 0
2, 345174, Note_on_c, 0, 59, 39
2, 345181, Note_on_c, 0, 67, 45
2, 345184, Note_on_c, 0, 56, 37
2, 345186, Note_on_c, 0, 46, 34
2, 345205, Note_on_c, 0, 62, 34
2, 345218, Note_on_c, 0, 64, 29
2, 345417, Control_c, 0, 64, 127
2, 345477, Control_c, 0, 64, 0
2, 345541, Note_on_c, 0, 46, 0
2, 345560, Note_on_c, 0, 59, 0
2, 345613, Note_on_c, 0, 64, 0
2, 345637, Note_on_c, 0, 62, 0
2, 345667, Note_on_c, 0, 67, 0
2, 345669, Note_on_c, 0, 56, 0
2, 345768, Control_c, 0, 64, 127
2, 345881, Note_on_c, 0, 46, 58
2, 346006, Note_on_c, 0, 46, 0
2, 346117, Control_c, 0, 64, 0
2, 346155, Note_on_c, 0, 72, 89
2, 346156, Note_on_c, 0, 66, 91
2, 346161, Note_on_c, 0, 62, 92
2, 346163, Note_on_c, 0, 56, 95
2, 346164, Note_on_c, 0, 46, 78
2, 346324, Note_on_c, 0, 66, 0
2, 346330, Note_on_c, 0, 67, 69
2, 346494, Note_on_c, 0, 67, 0
2, 346511, Note_on_c, 0, 62, 0
2, 346582, Note_on_c, 0, 72, 0
2, 346612, Note_on_c, 0, 46, 0
2, 346689, Note_on_c, 0, 56, 0
2, 346824, Note_on_c, 0, 70, 87
2, 346829, Note_on_c, 0, 46, 78
2, 346835, Note_on_c, 0, 55, 90
2, 346836, Note_on_c, 0, 60, 74
2, 346839, Note_on_c, 0, 65, 89
2, 346860, Note_on_c, 0, 68, 58
2, 346912, Note_on_c, 0, 68, 0
2, 347203, Note_on_c, 0, 65, 0
2, 347209, Note_on_c, 0, 46, 0
2, 347224, Note_on_c, 0, 70, 0
2, 347254, Note_on_c, 0, 60, 0
2, 347280, Note_on_c, 0, 55, 0
2, 348188, Note_on_c, 0, 46, 25
2, 348378, Control_c, 0, 64, 127
2, 348879, Control_c, 0, 64, 0
2, 348896, Note_on_c, 0, 64, 43
2, 348900, Note_on_c, 0, 55, 40
2, 348902, Note_on_c, 0, 58, 36
2, 348906, Note_on_c, 0, 52, 37
2, 348929, Note_on_c, 0, 61, 43
2, 349246, Control_c, 0, 64, 127
2, 349320, Note_on_c, 0, 46, 0
2, 349322, Note_on_c, 0, 55, 0
2, 349398, Note_on_c, 0, 58, 0
2, 349401, Note_on_c, 0, 61, 0
2, 349434, Note_on_c, 0, 64, 0
2, 349443, Control_c, 0, 64, 0
2, 349472, Note_on_c, 0, 52, 0
2, 349519, Control_c, 0, 64, 127
2, 349869, Note_on_c, 0, 70, 58
2, 349879, Note_on_c, 0, 60, 54
2, 349884, Note_on_c, 0, 63, 57
2, 349885, Note_on_c, 0, 55, 59
2, 349911, Note_on_c, 0, 67, 41
2, 349977, Control_c, 0, 64, 0
2, 350074, Note_on_c, 0, 67, 0
2, 350091, Note_on_c, 0, 60, 0
2, 350113, Note_on_c, 0, 70, 0
2, 350173, Note_on_c, 0, 63, 0
2, 350223, Note_on_c, 0, 55, 0
2, 350267, Note_on_c, 0, 60, 24
2, 350272, Note_on_c, 0, 69, 37
2, 350306, Note_on_c, 0, 53, 34
2, 350358, Control_c, 0, 64, 127
2, 350417, Note_on_c, 0, 60, 0
2, 350681, Note_on_c, 0, 69, 0
2, 350732, Note_on_c, 0, 53, 0
2, 350844, Control_c, 0, 64, 0
2, 350848, Note_on_c, 0, 58, 42
2, 350849, Note_on_c, 0, 60, 47
2, 350862, Note_on_c, 0, 70, 53
2, 350866, Note_on_c, 0, 65, 49
2, 351004, Note_on_c, 0, 58, 0
2, 351053, Note_on_c, 0, 60, 0
2, 351057, Note_on_c, 0, 70, 0
2, 351059, Note_on_c, 0, 65, 0
2, 351750, Note_on_c, 0, 65, 69
2, 351753, Note_on_c, 0, 54, 60
2, 351764, Note_on_c, 0, 58, 61
2, 351785, Note_on_c, 0, 44, 53
2, 351786, Note_on_c, 0, 60, 37
2, 352173, Note_on_c, 0, 60, 0
2, 352188, Note_on_c, 0, 65, 0
2, 352191, Note_on_c, 0, 58, 0
2, 352194, Note_on_c, 0, 54, 0
2, 352205, Note_on_c, 0, 44, 0
2, 352346, Note_on_c, 0, 65, 53
2, 352362, Note_on_c, 0, 58, 49
2, 352363, Note_on_c, 0, 54, 39
2, 352366, Note_on_c, 0, 44, 53
2, 352581, Control_c, 0, 64, 127
2, 352751, Note_on_c, 0, 58, 0
2, 352766, Note_on_c, 0, 54, 0
2, 352773, Note_on_c, 0, 65, 0
2, 352776, Note_on_c, 0, 44, 0
2, 352857, Control_c, 0, 64, 0
2, 353018, Note_on_c, 0, 65, 58
2, 353023, Note_on_c, 0, 58, 55
2, 353024, Note_on_c, 0, 54, 37
2, 353044, Note_on_c, 0, 44, 44
2, 353130, Control_c, 0, 64, 127
2, 353464, Note_on_c, 0, 44, 0
2, 353515, Note_on_c, 0, 58, 0
2, 353544, Note_on_c, 0, 54, 0
2, 353585, Note_on_c, 0, 65, 0
2, 353730, Note_on_c, 0, 54, 30
2, 353743, Note_on_c, 0, 44, 39
2, 353745, Note_on_c, 0, 58, 34
2, 353752, Note_on_c, 0, 63, 46
2, 353818, Control_c, 0, 64, 0
2, 353907, Control_c, 0, 64, 127
2, 354042, Note_on_c, 0, 54, 0
2, 354100, Note_on_c, 0, 44, 0
2, 354161, Note_on_c, 0, 63, 0
2, 354166, Note_on_c, 0, 58, 0
2, 354723, Note_on_c, 0, 55, 44
2, 354731, Control_c, 0, 64, 0
2, 354735, Note_on_c, 0, 56, 37
2, 354737, Note_on_c, 0, 60, 37
2, 354740, Note_on_c, 0, 62, 50
2, 354763, Note_on_c, 0, 43, 32
2, 355032, Note_on_c, 0, 43, 0
2, 355067, Control_c, 0, 64, 127
2, 355280, Note_on_c, 0, 55, 0
2, 355339, Note_on_c, 0, 56, 0
2, 355409, Note_on_c, 0, 60, 0
2, 355610, Note_on_c, 0, 62, 0
2, 355681, Note_on_c, 0, 31, 62
2, 355786, Note_on_c, 0, 31, 0
2, 356629, Note_on_c, 0, 91, 81
2, 356634, Note_on_c, 0, 55, 77
2, 356792, Note_on_c, 0, 55, 0
2, 356846, Note_on_c, 0, 91, 0
2, 356900, Note_on_c, 0, 79, 46
2, 356963, Note_on_c, 0, 79, 0
2, 357124, Control_c, 0, 64, 0
2, 357176, Note_on_c, 0, 91, 71
2, 357194, Note_on_c, 0, 55, 85
2, 357200, Note_on_c, 0, 79, 78
2, 357536, Control_c, 0, 64, 127
2, 357672, Control_c, 0, 64, 0
2, 357757, Note_on_c, 0, 43, 83
2, 358024, Control_c, 0, 64, 127
2, 358062, Note_on_c, 0, 91, 0
2, 358189, Note_on_c, 0, 79, 0
2, 358204, Note_on_c, 0, 43, 0
2, 358323, Note_on_c, 0, 55, 0
2, 359151, Control_c, 0, 64, 0
2, 359171, Note_on_c, 0, 79, 54
2, 359191, Note_on_c, 0, 67, 50
2, 359195, Note_on_c, 0, 74, 49
2, 359200, Note_on_c, 0, 76, 46
2, 359209, Note_on_c, 0, 71, 33
2, 359229, Note_on_c, 0, 64, 34
2, 359262, Note_on_c, 0, 62, 28
2, 359528, Note_on_c, 0, 67, 0
2, 359653, Control_c, 0, 64, 127
2, 359874, Note_on_c, 0, 55, 53
2, 360070, Note_on_c, 0, 55, 0
2, 360162, Note_on_c, 0, 74, 0
2, 360208, Note_on_c, 0, 79, 0
2, 360268, Note_on_c, 0, 55, 49
2, 360282, Note_on_c, 0, 76, 0
2, 360347, Note_on_c, 0, 71, 0
2, 360380, Note_on_c, 0, 62, 0
2, 360395, Note_on_c, 0, 64, 0
2, 360857, Control_c, 0, 64, 0
2, 360890, Note_on_c, 0, 64, 46
2, 360892, Note_on_c, 0, 79, 55
2, 360895, Note_on_c, 0, 73, 40
2, 360907, Note_on_c, 0, 70, 39
2, 360913, Note_on_c, 0, 76, 46
2, 361253, Control_c, 0, 64, 127
2, 361341, Note_on_c, 0, 55, 0
2, 361837, Note_on_c, 0, 55, 90
2, 362093, Note_on_c, 0, 55, 0
2, 362176, Note_on_c, 0, 64, 0
2, 362199, Note_on_c, 0, 76, 0
2, 362211, Note_on_c, 0, 70, 0
2, 362226, Note_on_c, 0, 55, 56
2, 362278, Note_on_c, 0, 79, 0
2, 362305, Note_on_c, 0, 73, 0
2, 362812, Note_on_c, 0, 62, 60
2, 362814, Note_on_c, 0, 79, 68
2, 362824, Control_c, 0, 64, 0
2, 362825, Note_on_c, 0, 67, 74
2, 362827, Note_on_c, 0, 64, 53
2, 362837, Note_on_c, 0, 77, 73
2, 362840, Note_on_c, 0, 69, 80
2, 362846, Note_on_c, 0, 78, 46
2, 362853, Note_on_c, 0, 72, 71
2, 362898, Note_on_c, 0, 78, 0
2, 363218, Control_c, 0, 64, 127
2, 363375, Note_on_c, 0, 67, 0
2, 363414, Note_on_c, 0, 55, 0
2, 363780, Note_on_c, 0, 55, 58
2, 363958, Note_on_c, 0, 55, 0
2, 364010, Control_c, 0, 64, 0
2, 364161, Note_on_c, 0, 62, 0
2, 364170, Note_on_c, 0, 55, 50
2, 364210, Control_c, 0, 64, 127
2, 364212, Note_on_c, 0, 64, 0
2, 364238, Note_on_c, 0, 69, 0
2, 364275, Note_on_c, 0, 72, 0
2, 364281, Note_on_c, 0, 79, 0
2, 364306, Note_on_c, 0, 77, 0
2, 364742, Note_on_c, 0, 77, 56
2, 364760, Note_on_c, 0, 72, 55
2, 364766, Note_on_c, 0, 69, 48
2, 364804, Control_c, 0, 64, 0
2, 364809, Note_on_c, 0, 65, 36
2, 364822, Note_on_c, 0, 60, 20
2, 364844, Note_on_c, 0, 62, 19
2, 364880, Note_on_c, 0, 69, 0
2, 364909, Note_on_c, 0, 65, 0
2, 364922, Note_on_c, 0, 72, 0
2, 364924, Note_on_c, 0, 62, 0
2, 364946, Note_on_c, 0, 77, 0
2, 364978, Note_on_c, 0, 60, 0
2, 365131, Note_on_c, 0, 77, 44
2, 365154, Note_on_c, 0, 62, 39
2, 365155, Note_on_c, 0, 69, 44
2, 365156, Note_on_c, 0, 65, 37
2, 365158, Note_on_c, 0, 72, 53
2, 365187, Note_on_c, 0, 60, 26
2, 365221, Note_on_c, 0, 65, 0
2, 365237, Note_on_c, 0, 62, 0
2, 365247, Control_c, 0, 64, 127
2, 365248, Note_on_c, 0, 60, 0
2, 365307, Control_c, 0, 64, 0
2, 365313, Note_on_c, 0, 55, 0
2, 365474, Control_c, 0, 64, 127
2, 365733, Note_on_c, 0, 55, 67
2, 365736, Note_on_c, 0, 43, 67
2, 365997, Note_on_c, 0, 43, 0
2, 366002, Note_on_c, 0, 55, 0
2, 366166, Note_on_c, 0, 55, 44
2, 366178, Note_on_c, 0, 43, 35
2, 366233, Note_on_c, 0, 69, 0
2, 366242, Note_on_c, 0, 43, 0
2, 366254, Note_on_c, 0, 72, 0
2, 366298, Note_on_c, 0, 55, 0
2, 366377, Note_on_c, 0, 77, 0
2, 366711, Note_on_c, 0, 67, 65
2, 366743, Note_on_c, 0, 77, 63
2, 366758, Note_on_c, 0, 72, 75
2, 366762, Note_on_c, 0, 74, 67
2, 366767, Note_on_c, 0, 69, 71
2, 366800, Control_c, 0, 64, 0
2, 366817, Note_on_c, 0, 71, 33
2, 366871, Note_on_c, 0, 71, 0
2, 367166, Control_c, 0, 64, 127
2, 367206, Note_on_c, 0, 67, 0
2, 367639, Note_on_c, 0, 55, 51
2, 367768, Note_on_c, 0, 55, 0
2, 368051, Note_on_c, 0, 55, 45
2, 368080, Note_on_c, 0, 69, 0
2, 368162, Note_on_c, 0, 72, 0
2, 368283, Note_on_c, 0, 74, 0
2, 368317, Note_on_c, 0, 77, 0
2, 368587, Note_on_c, 0, 77, 53
2, 368607, Note_on_c, 0, 71, 58
2, 368613, Note_on_c, 0, 68, 45
2, 368632, Note_on_c, 0, 74, 52
2, 368637, Note_on_c, 0, 65, 47
2, 368644, Control_c, 0, 64, 0
2, 368995, Control_c, 0, 64, 127
2, 369107, Note_on_c, 0, 55, 0
2, 369504, Note_on_c, 0, 55, 60
2, 369683, Note_on_c, 0, 55, 0
2, 369863, Note_on_c, 0, 65, 0
2, 369885, Note_on_c, 0, 68, 0
2, 369902, Note_on_c, 0, 71, 0
2, 369943, Note_on_c, 0, 55, 30
2, 370127, Note_on_c, 0, 77, 0
2, 370162, Note_on_c, 0, 74, 0
2, 370494, Note_on_c, 0, 77, 57
2, 370500, Note_on_c, 0, 68, 48
2, 370504, Control_c, 0, 64, 0
2, 370510, Note_on_c, 0, 72, 64
2, 370530, Note_on_c, 0, 64, 41
2, 370532, Note_on_c, 0, 74, 52
2, 370884, Control_c, 0, 64, 127
2, 371079, Note_on_c, 0, 55, 0
2, 371438, Note_on_c, 0, 55, 31
2, 371495, Note_on_c, 0, 74, 0
2, 371496, Note_on_c, 0, 72, 0
2, 371530, Note_on_c, 0, 68, 0
2, 371533, Note_on_c, 0, 64, 0
2, 371637, Note_on_c, 0, 55, 0
2, 371652, Note_on_c, 0, 77, 0
2, 371738, Control_c, 0, 64, 0
2, 371805, Note_on_c, 0, 67, 35
2, 371808, Note_on_c, 0, 72, 50
2, 371814, Note_on_c, 0, 76, 57
2, 371833, Note_on_c, 0, 55, 9
2, 371834, Note_on_c, 0, 60, 31
2, 372072, Control_c, 0, 64, 127
2, 372108, Note_on_c, 0, 60, 0
2, 372235, Note_on_c, 0, 55, 0
2, 372237, Note_on_c, 0, 67, 0
2, 372249, Note_on_c, 0, 72, 0
2, 372277, Note_on_c, 0, 76, 0
2, 372413, Note_on_c, 0, 67, 58
2, 372416, Note_on_c, 0, 76, 57
2, 372419, Note_on_c, 0, 60, 44
2, 372421, Note_on_c, 0, 72, 64
2, 372520, Note_on_c, 0, 60, 0
2, 373285, Note_on_c, 0, 72, 0
2, 373296, Note_on_c, 0, 43, 95
2, 373300, Note_on_c, 0, 31, 84
2, 373316, Note_on_c, 0, 33, 84
2, 373318, Note_on_c, 0, 76, 0
2, 373328, Note_on_c, 0, 67, 0
2, 373366, Note_on_c, 0, 33, 0
2, 373615, Note_on_c, 0, 31, 0
2, 373654, Note_on_c, 0, 43, 0
2, 373703, Control_c, 0, 64, 0
2, 373771, Note_on_c, 0, 56, 69
2, 373772, Note_on_c, 0, 32, 77
2, 373775, Note_on_c, 0, 44, 79
2, 373803, Note_on_c, 0, 55, 43
2, 373994, Control_c, 0, 64, 127
2, 374169, Note_on_c, 0, 55, 0
2, 374265, Note_on_c, 0, 56, 0
2, 374266, Note_on_c, 0, 32, 0
2, 374290, Note_on_c, 0, 44, 0
2, 374364, Note_on_c, 0, 57, 72
2, 374368, Note_on_c, 0, 45, 90
2, 374376, Note_on_c, 0, 33, 82
2, 374380, Note_on_c, 0, 55, 83
2, 374404, Control_c, 0, 64, 0
2, 374749, Note_on_c, 0, 55, 0
2, 374804, Note_on_c, 0, 33, 0
2, 374818, Note_on_c, 0, 57, 0
2, 374902, Note_on_c, 0, 45, 0
2, 375633, Note_on_c, 0, 64, 48
2, 375666, Note_on_c, 0, 52, 32
2, 375908, Note_on_c, 0, 52, 0
2, 375977, Note_on_c, 0, 64, 0
2, 376037, Note_on_c, 0, 69, 68
2, 376093, Note_on_c, 0, 57, 45
2, 376118, Control_c, 0, 64, 127
2, 376118, Control_c, 0, 64, 0
2, 376162, Note_on_c, 0, 69, 0
2, 376188, Note_on_c, 0, 57, 0
2, 376202, Control_c, 0, 64, 127
2, 376295, Note_on_c, 0, 72, 80
2, 376322, Note_on_c, 0, 60, 70
2, 376431, Note_on_c, 0, 60, 0
2, 376448, Note_on_c, 0, 72, 0
2, 376508, Control_c, 0, 64, 0
2, 376593, Note_on_c, 0, 72, 68
2, 376599, Note_on_c, 0, 76, 82
2, 376602, Note_on_c, 0, 64, 87
2, 376611, Note_on_c, 0, 69, 82
2, 376636, Note_on_c, 0, 62, 50
2, 376662, Note_on_c, 0, 65, 26
2, 376686, Note_on_c, 0, 62, 0
2, 376712, Note_on_c, 0, 65, 0
2, 377042, Control_c, 0, 64, 127
2, 377069, Note_on_c, 0, 64, 0
2, 377071, Note_on_c, 0, 69, 0
2, 377083, Note_on_c, 0, 76, 0
2, 377092, Note_on_c, 0, 72, 0
2, 377204, Note_on_c, 0, 64, 61
2, 377206, Note_on_c, 0, 69, 72
2, 377210, Control_c, 0, 64, 0
2, 377212, Note_on_c, 0, 76, 64
2, 377221, Note_on_c, 0, 72, 64
2, 377361, Control_c, 0, 64, 127
2, 377443, Note_on_c, 0, 64, 0
2, 377452, Control_c, 0, 64, 0
2, 377460, Note_on_c, 0, 72, 0
2, 377466, Note_on_c, 0, 69, 0
2, 377495, Note_on_c, 0, 76, 0
2, 377636, Control_c, 0, 64, 127
2, 378076, Control_c, 0, 64, 0
2, 378171, Note_on_c, 0, 76, 64
2, 378174, Note_on_c, 0, 68, 45
2, 378177, Note_on_c, 0, 50, 45
2, 378187, Note_on_c, 0, 66, 31
2, 378192, Note_on_c, 0, 60, 35
2, 378194, Note_on_c, 0, 75, 25
2, 378208, Note_on_c, 0, 72, 42
2, 378217, Note_on_c, 0, 54, 34
2, 378458, Control_c, 0, 64, 127
2, 378825, Control_c, 0, 64, 127
2, 378951, Note_on_c, 0, 76, 0
2, 378998, Note_on_c, 0, 75, 0
2, 379004, Note_on_c, 0, 60, 0
2, 379110, Note_on_c, 0, 68, 0
2, 379133, Note_on_c, 0, 66, 0
2, 379211, Note_on_c, 0, 50, 0
2, 379226, Note_on_c, 0, 72, 0
2, 379328, Control_c, 0, 64, 0
2, 379416, Control_c, 0, 64, 0
2, 379437, Note_on_c, 0, 75, 52
2, 379456, Note_on_c, 0, 61, 59
2, 379465, Note_on_c, 0, 66, 37
2, 379486, Note_on_c, 0, 68, 44
2, 379511, Note_on_c, 0, 72, 24
2, 379616, Control_c, 0, 64, 127
2, 379824, Note_on_c, 0, 61, 0
2, 379830, Note_on_c, 0, 72, 0
2, 379840, Note_on_c, 0, 75, 0
2, 379905, Note_on_c, 0, 68, 0
2, 379942, Note_on_c, 0, 66, 0
2, 380043, Control_c, 0, 64, 0
2, 380085, Note_on_c, 0, 50, 1
2, 380111, Note_on_c, 0, 74, 56
2, 380119, Note_on_c, 0, 66, 54
2, 380127, Note_on_c, 0, 68, 54
2, 380128, Note_on_c, 0, 60, 36
2, 380133, Note_on_c, 0, 54, 0
2, 380393, Control_c, 0, 64, 127
2, 380600, Note_on_c, 0, 50, 0
2, 380947, Note_on_c, 0, 50, 57
2, 381094, Note_on_c, 0, 60, 0
2, 381207, Note_on_c, 0, 68, 0
2, 381269, Note_on_c, 0, 74, 0
2, 381451, Note_on_c, 0, 66, 0
2, 381884, Note_on_c, 0, 54, 18
2, 381972, Note_on_c, 0, 50, 0
2, 382130, Control_c, 0, 64, 0
2, 382161, Note_on_c, 0, 72, 48
2, 382174, Note_on_c, 0, 57, 36
2, 382184, Note_on_c, 0, 54, 0
2, 382196, Note_on_c, 0, 62, 29
2, 382197, Note_on_c, 0, 65, 47
2, 382215, Note_on_c, 0, 69, 38
2, 382529, Note_on_c, 0, 72, 0
2, 382530, Note_on_c, 0, 62, 0
2, 382646, Note_on_c, 0, 65, 0
2, 382651, Control_c, 0, 64, 127
2, 382672, Note_on_c, 0, 57, 0
2, 382673, Note_on_c, 0, 69, 0
2, 382775, Note_on_c, 0, 74, 51
2, 382804, Note_on_c, 0, 65, 40
2, 382807, Note_on_c, 0, 59, 36
2, 382821, Note_on_c, 0, 69, 49
2, 382917, Note_on_c, 0, 74, 0
2, 382975, Note_on_c, 0, 65, 0
2, 383015, Note_on_c, 0, 59, 0
2, 383016, Note_on_c, 0, 69, 0
2, 383031, Control_c, 0, 64, 0
2, 383102, Note_on_c, 0, 72, 32
2, 383140, Note_on_c, 0, 57, 35
2, 383143, Note_on_c, 0, 65, 42
2, 383218, Note_on_c, 0, 62, 15
2, 383304, Control_c, 0, 64, 127
2, 383338, Note_on_c, 0, 72, 0
2, 383368, Note_on_c, 0, 65, 0
2, 383475, Note_on_c, 0, 62, 0
2, 383631, Note_on_c, 0, 57, 0
2, 383686, Control_c, 0, 64, 0
2, 383694, Note_on_c, 0, 71, 56
2, 383711, Note_on_c, 0, 62, 38
2, 383716, Note_on_c, 0, 65, 45
2, 383731, Note_on_c, 0, 55, 36
2, 383779, Note_on_c, 0, 65, 0
2, 383783, Note_on_c, 0, 62, 0
2, 383795, Note_on_c, 0, 55, 0
2, 383856, Note_on_c, 0, 71, 0
2, 383954, Control_c, 0, 64, 127
2, 384305, Control_c, 0, 64, 0
2, 384877, Control_c, 0, 64, 127
2, 385264, Control_c, 0, 64, 0
2, 385483, Note_on_c, 0, 58, 67
2, 385488, Note_on_c, 0, 62, 80
2, 385505, Note_on_c, 0, 57, 49
2, 385507, Note_on_c, 0, 86, 83
2, 385512, Note_on_c, 0, 52, 64
2, 385519, Note_on_c, 0, 74, 80
2, 385639, Note_on_c, 0, 62, 0
2, 385663, Note_on_c, 0, 57, 0
2, 385693, Note_on_c, 0, 74, 0
2, 385705, Note_on_c, 0, 52, 0
2, 385728, Control_c, 0, 64, 127
2, 385746, Note_on_c, 0, 58, 0
2, 385764, Control_c, 0, 64, 0
2, 385766, Note_on_c, 0, 86, 0
2, 386406, Note_on_c, 0, 57, 62
2, 386412, Note_on_c, 0, 62, 74
2, 386414, Note_on_c, 0, 88, 80
2, 386416, Note_on_c, 0, 58, 57
2, 386430, Note_on_c, 0, 76, 78
2, 386441, Note_on_c, 0, 52, 57
2, 386502, Note_on_c, 0, 52, 0
2, 386539, Note_on_c, 0, 88, 0
2, 386548, Note_on_c, 0, 62, 0
2, 386550, Note_on_c, 0, 57, 0
2, 386557, Note_on_c, 0, 76, 0
2, 386609, Note_on_c, 0, 58, 0
2, 386614, Control_c, 0, 64, 127
2, 386725, Control_c, 0, 64, 0
2, 386795, Note_on_c, 0, 86, 77
2, 386800, Note_on_c, 0, 58, 62
2, 386806, Note_on_c, 0, 57, 55
2, 386808, Note_on_c, 0, 62, 69
2, 386828, Note_on_c, 0, 74, 52
2, 386830, Note_on_c, 0, 52, 57
2, 386892, Note_on_c, 0, 52, 0
2, 386898, Note_on_c, 0, 74, 0
2, 386971, Note_on_c, 0, 86, 0
2, 386982, Note_on_c, 0, 57, 0
2, 387023, Note_on_c, 0, 62, 0
2, 387050, Note_on_c, 0, 58, 0
2, 387076, Control_c, 0, 64, 127
2, 387260, Control_c, 0, 64, 0
2, 387700, Note_on_c, 0, 85, 54
2, 387718, Note_on_c, 0, 65, 45
2, 387733, Note_on_c, 0, 73, 38
2, 387750, Note_on_c, 0, 60, 43
2, 387752, Note_on_c, 0, 61, 44
2, 387770, Note_on_c, 0, 55, 34
2, 387888, Control_c, 0, 64, 127
2, 387965, Note_on_c, 0, 85, 0
2, 387982, Note_on_c, 0, 55, 0
2, 388007, Note_on_c, 0, 61, 0
2, 388013, Note_on_c, 0, 73, 0
2, 388015, Note_on_c, 0, 65, 0
2, 388053, Note_on_c, 0, 60, 0
2, 388237, Control_c, 0, 64, 0
2, 388717, Note_on_c, 0, 81, 64
2, 388721, Note_on_c, 0, 64, 45
2, 388725, Note_on_c, 0, 61, 45
2, 388741, Note_on_c, 0, 55, 46
2, 388745, Note_on_c, 0, 58, 47
2, 388754, Control_c, 0, 64, 127
2, 388760, Note_on_c, 0, 69, 54
2, 388896, Note_on_c, 0, 64, 0
2, 388905, Note_on_c, 0, 81, 0
2, 388938, Note_on_c, 0, 61, 0
2, 388973, Note_on_c, 0, 55, 0
2, 388984, Note_on_c, 0, 58, 0
2, 389005, Note_on_c, 0, 69, 0
2, 389566, Control_c, 0, 64, 0
2, 389713, Note_on_c, 0, 57, 48
2, 389717, Note_on_c, 0, 72, 65
2, 389731, Note_on_c, 0, 62, 60
2, 389735, Note_on_c, 0, 69, 57
2, 389744, Note_on_c, 0, 65, 57
2, 389825, Control_c, 0, 64, 127
2, 390086, Note_on_c, 0, 62, 0
2, 390090, Note_on_c, 0, 72, 0
2, 390213, Note_on_c, 0, 57, 0
2, 390235, Note_on_c, 0, 69, 0
2, 390250, Note_on_c, 0, 65, 0
2, 390344, Note_on_c, 0, 59, 48
2, 390357, Note_on_c, 0, 74, 71
2, 390386, Note_on_c, 0, 65, 49
2, 390434, Control_c, 0, 64, 0
2, 390532, Note_on_c, 0, 74, 0
2, 390624, Note_on_c, 0, 59, 0
2, 390662, Note_on_c, 0, 65, 0
2, 390728, Note_on_c, 0, 72, 27
2, 390747, Note_on_c, 0, 57, 38
2, 390784, Control_c, 0, 64, 127
2, 390926, Note_on_c, 0, 72, 0
2, 391172, Control_c, 0, 64, 0
2, 391224, Note_on_c, 0, 57, 0
2, 391327, Note_on_c, 0, 55, 53
2, 391343, Note_on_c, 0, 71, 54
2, 391393, Note_on_c, 0, 55, 0
2, 391514, Note_on_c, 0, 71, 0
2, 391558, Control_c, 0, 64, 127
2, 392076, Control_c, 0, 64, 0
2, 392219, Note_on_c, 0, 74, 59
2, 392224, Note_on_c, 0, 53, 53
2, 392243, Note_on_c, 0, 43, 38
2, 392247, Note_on_c, 0, 68, 43
2, 392289, Note_on_c, 0, 53, 0
2, 392289, Note_on_c, 0, 71, 32
2, 392348, Note_on_c, 0, 43, 0
2, 392364, Note_on_c, 0, 68, 0
2, 392370, Note_on_c, 0, 71, 0
2, 392399, Note_on_c, 0, 74, 0
2, 392517, Control_c, 0, 64, 127
2, 393016, Control_c, 0, 64, 0
2, 393100, Note_on_c, 0, 72, 63
2, 393134, Note_on_c, 0, 67, 57
2, 393137, Note_on_c, 0, 36, 39
2, 393229, Note_on_c, 0, 67, 0
2, 393275, Note_on_c, 0, 36, 0
2, 393323, Note_on_c, 0, 72, 0
2, 393735, Control_c, 0, 64, 127
2, 394074, Note_on_c, 0, 30, 37
2, 394142, Control_c, 0, 64, 0
2, 394433, Note_on_c, 0, 30, 0
2, 394436, Note_on_c, 0, 31, 54
2, 394602, Control_c, 0, 64, 127
2, 394898, Control_c, 0, 64, 0
2, 395084, Note_on_c, 0, 31, 0
2, 395095, Note_on_c, 0, 24, 34
2, 395159, Note_on_c, 0, 108, 59
2, 398685, Note_on_c, 0, 108, 0
2, 399415, Note_on_c, 0, 24, 0
2, 399415, End_track
0, 0, End_of_file
