0, 0, Header, 1, 4, 120
1, 0, Start_track
1, 0, Title_t, "That Ole Devil Called Love"
1, 0, Text_t, "dougmck@pipeline.com.au\012"
1, 0, Time_signature, 4, 2, 24, 8
1, 0, Key_signature, -2, "major"
1, 0, Tempo, 722892
1, 0, Marker_t, "Intro last 4 bars - rubato"
1, 5164, Marker_t, "In Tempo"
1, 5164, End_track
2, 0, Start_track
2, 0, Title_t, "dougmck@pipeline.com.au"
2, 0, Control_c, 0, 64, 127
2, 36, Control_c, 0, 64, 0
2, 37, Note_on_c, 0, 74, 73
2, 38, Note_on_c, 0, 48, 28
2, 61, Control_c, 0, 64, 127
2, 112, Note_on_c, 0, 58, 26
2, 175, Note_on_c, 0, 74, 0
2, 183, Note_on_c, 0, 65, 35
2, 184, Note_on_c, 0, 62, 37
2, 271, Note_on_c, 0, 72, 50
2, 311, Note_on_c, 0, 48, 0
2, 324, Note_on_c, 0, 62, 0
2, 326, Note_on_c, 0, 70, 55
2, 331, Note_on_c, 0, 58, 0
2, 331, Note_on_c, 0, 72, 0
2, 333, Note_on_c, 0, 65, 0
2, 381, Note_on_c, 0, 70, 0
2, 416, Note_on_c, 0, 58, 36
2, 435, Note_on_c, 0, 64, 53
2, 441, Note_on_c, 0, 66, 46
2, 457, Note_on_c, 0, 69, 68
2, 471, Note_on_c, 0, 74, 61
2, 545, Note_on_c, 0, 64, 0
2, 555, Note_on_c, 0, 58, 0
2, 712, Note_on_c, 0, 24, 38
2, 730, Note_on_c, 0, 24, 0
2, 894, Note_on_c, 0, 66, 0
2, 907, Note_on_c, 0, 69, 0
2, 946, Note_on_c, 0, 74, 0
2, 1106, Note_on_c, 0, 53, 20
2, 1117, Note_on_c, 0, 53, 0
2, 1117, Note_on_c, 0, 65, 40
2, 1142, Note_on_c, 0, 65, 0
2, 1181, Note_on_c, 0, 67, 51
2, 1184, Note_on_c, 0, 55, 46
2, 1232, Note_on_c, 0, 55, 0
2, 1246, Note_on_c, 0, 67, 0
2, 1331, Note_on_c, 0, 74, 71
2, 1332, Note_on_c, 0, 68, 62
2, 1333, Note_on_c, 0, 30, 42
2, 1334, Control_c, 0, 64, 0
2, 1334, Note_on_c, 0, 42, 34
2, 1334, Note_on_c, 0, 64, 50
2, 1356, Control_c, 0, 64, 127
2, 1361, Note_on_c, 0, 30, 0
2, 1370, Note_on_c, 0, 42, 0
2, 1446, Note_on_c, 0, 58, 37
2, 1453, Note_on_c, 0, 64, 0
2, 1487, Note_on_c, 0, 68, 0
2, 1541, Note_on_c, 0, 68, 33
2, 1550, Note_on_c, 0, 64, 13
2, 1559, Note_on_c, 0, 74, 0
2, 1617, Note_on_c, 0, 72, 42
2, 1643, Note_on_c, 0, 68, 0
2, 1663, Note_on_c, 0, 72, 0
2, 1669, Note_on_c, 0, 64, 0
2, 1673, Note_on_c, 0, 70, 38
2, 1702, Note_on_c, 0, 58, 0
2, 1726, Note_on_c, 0, 70, 0
2, 1777, Note_on_c, 0, 74, 31
2, 1778, Note_on_c, 0, 66, 31
2, 1780, Note_on_c, 0, 69, 40
2, 1780, Note_on_c, 0, 63, 28
2, 1782, Control_c, 0, 64, 0
2, 1783, Note_on_c, 0, 53, 29
2, 1808, Control_c, 0, 64, 127
2, 1825, Note_on_c, 0, 63, 0
2, 1829, Note_on_c, 0, 53, 0
2, 1998, Note_on_c, 0, 74, 0
2, 2029, Note_on_c, 0, 69, 0
2, 2036, Note_on_c, 0, 66, 0
2, 2038, Note_on_c, 0, 29, 38
2, 2078, Note_on_c, 0, 29, 0
2, 2387, Note_on_c, 0, 65, 69
2, 2387, Note_on_c, 0, 77, 71
2, 2426, Note_on_c, 0, 65, 0
2, 2434, Note_on_c, 0, 77, 0
2, 2461, Note_on_c, 0, 67, 64
2, 2461, Note_on_c, 0, 79, 49
2, 2475, Note_on_c, 0, 67, 0
2, 2487, Note_on_c, 0, 79, 0
2, 2548, Note_on_c, 0, 82, 57
2, 2551, Note_on_c, 0, 75, 36
2, 2552, Note_on_c, 0, 48, 37
2, 2558, Control_c, 0, 64, 0
2, 2584, Control_c, 0, 64, 127
2, 2623, Note_on_c, 0, 48, 0
2, 2627, Note_on_c, 0, 55, 36
2, 2685, Note_on_c, 0, 75, 0
2, 2689, Note_on_c, 0, 55, 0
2, 2704, Note_on_c, 0, 75, 33
2, 2706, Note_on_c, 0, 70, 35
2, 2707, Note_on_c, 0, 62, 41
2, 2816, Note_on_c, 0, 63, 30
2, 2817, Note_on_c, 0, 62, 0
2, 2855, Note_on_c, 0, 82, 0
2, 2865, Note_on_c, 0, 63, 0
2, 2877, Note_on_c, 0, 70, 0
2, 2881, Note_on_c, 0, 75, 0
2, 2955, Note_on_c, 0, 79, 45
2, 2956, Note_on_c, 0, 74, 49
2, 2957, Note_on_c, 0, 53, 32
2, 2958, Note_on_c, 0, 63, 34
2, 2959, Note_on_c, 0, 69, 35
2, 2965, Control_c, 0, 64, 0
2, 2995, Control_c, 0, 64, 127
2, 3006, Note_on_c, 0, 74, 0
2, 3025, Note_on_c, 0, 73, 36
2, 3091, Note_on_c, 0, 73, 0
2, 3105, Note_on_c, 0, 72, 44
2, 3160, Note_on_c, 0, 72, 0
2, 3170, Note_on_c, 0, 79, 0
2, 3232, Note_on_c, 0, 63, 0
2, 3237, Note_on_c, 0, 53, 0
2, 3300, Note_on_c, 0, 70, 40
2, 3317, Note_on_c, 0, 69, 0
2, 3320, Note_on_c, 0, 70, 0
2, 3350, Note_on_c, 0, 74, 54
2, 3356, Note_on_c, 0, 47, 29
2, 3356, Note_on_c, 0, 66, 34
2, 3360, Note_on_c, 0, 57, 26
2, 3366, Control_c, 0, 64, 0
2, 3416, Control_c, 0, 64, 127
2, 3459, Note_on_c, 0, 54, 21
2, 3471, Note_on_c, 0, 57, 0
2, 3543, Note_on_c, 0, 66, 0
2, 3566, Note_on_c, 0, 66, 21
2, 3567, Note_on_c, 0, 62, 27
2, 3576, Note_on_c, 0, 74, 0
2, 3577, Note_on_c, 0, 57, 16
2, 3768, Note_on_c, 0, 69, 41
2, 3830, Note_on_c, 0, 57, 0
2, 3831, Note_on_c, 0, 47, 0
2, 3850, Note_on_c, 0, 62, 0
2, 3860, Note_on_c, 0, 69, 0
2, 3863, Note_on_c, 0, 54, 0
2, 3890, Note_on_c, 0, 66, 0
2, 4136, Note_on_c, 0, 70, 36
2, 4138, Note_on_c, 0, 65, 44
2, 4140, Note_on_c, 0, 60, 29
2, 4141, Note_on_c, 0, 62, 30
2, 4141, Note_on_c, 0, 46, 27
2, 4149, Control_c, 0, 64, 0
2, 4189, Control_c, 0, 64, 127
2, 4206, Note_on_c, 0, 70, 0
2, 4226, Note_on_c, 0, 70, 61
2, 4230, Note_on_c, 0, 53, 22
2, 4232, Note_on_c, 0, 62, 0
2, 4234, Note_on_c, 0, 60, 0
2, 4284, Note_on_c, 0, 46, 0
2, 4292, Note_on_c, 0, 65, 0
2, 4293, Note_on_c, 0, 70, 0
2, 4325, Note_on_c, 0, 53, 0
2, 4327, Note_on_c, 0, 70, 56
2, 4331, Note_on_c, 0, 61, 45
2, 4332, Note_on_c, 0, 65, 54
2, 4332, Note_on_c, 0, 51, 31
2, 4334, Note_on_c, 0, 57, 38
2, 4342, Control_c, 0, 64, 0
2, 4389, Control_c, 0, 64, 127
2, 4436, Note_on_c, 0, 70, 0
2, 4468, Note_on_c, 0, 70, 47
2, 4523, Note_on_c, 0, 57, 0
2, 4547, Note_on_c, 0, 65, 0
2, 4548, Note_on_c, 0, 61, 0
2, 4551, Note_on_c, 0, 51, 0
2, 4559, Note_on_c, 0, 70, 0
2, 4615, Note_on_c, 0, 69, 45
2, 4615, Note_on_c, 0, 65, 36
2, 4617, Note_on_c, 0, 50, 29
2, 4618, Note_on_c, 0, 60, 28
2, 4623, Control_c, 0, 64, 0
2, 4657, Control_c, 0, 64, 127
2, 4693, Note_on_c, 0, 69, 0
2, 4745, Note_on_c, 0, 69, 38
2, 4751, Note_on_c, 0, 50, 0
2, 4812, Note_on_c, 0, 69, 0
2, 4822, Note_on_c, 0, 60, 0
2, 4834, Note_on_c, 0, 65, 0
2, 4959, Note_on_c, 0, 65, 34
2, 4960, Note_on_c, 0, 68, 26
2, 4961, Note_on_c, 0, 43, 24
2, 4961, Note_on_c, 0, 59, 24
2, 4962, Note_on_c, 0, 31, 30
2, 4983, Control_c, 0, 64, 0
2, 5202, Note_on_c, 0, 74, 54
2, 5213, Note_on_c, 0, 74, 0
2, 5230, Note_on_c, 0, 59, 0
2, 5236, Note_on_c, 0, 68, 0
2, 5240, Note_on_c, 0, 75, 46
2, 5241, Note_on_c, 0, 65, 0
2, 5272, Note_on_c, 0, 43, 0
2, 5273, Note_on_c, 0, 75, 0
2, 5281, Note_on_c, 0, 77, 48
2, 5281, Note_on_c, 0, 48, 39
2, 5282, Control_c, 0, 64, 127
2, 5283, Note_on_c, 0, 31, 0
2, 5293, Note_on_c, 0, 58, 14
2, 5295, Note_on_c, 0, 48, 0
2, 5308, Note_on_c, 0, 58, 0
2, 5404, Note_on_c, 0, 70, 34
2, 5405, Note_on_c, 0, 67, 34
2, 5406, Note_on_c, 0, 58, 21
2, 5435, Note_on_c, 0, 58, 0
2, 5471, Note_on_c, 0, 67, 0
2, 5510, Note_on_c, 0, 70, 0
2, 5510, Note_on_c, 0, 77, 0
2, 5519, Note_on_c, 0, 71, 37
2, 5521, Note_on_c, 0, 65, 39
2, 5524, Note_on_c, 0, 47, 31
2, 5528, Note_on_c, 0, 56, 18
2, 5529, Control_c, 0, 64, 0
2, 5551, Note_on_c, 0, 47, 0
2, 5553, Control_c, 0, 64, 127
2, 5562, Note_on_c, 0, 56, 0
2, 5607, Note_on_c, 0, 65, 0
2, 5642, Note_on_c, 0, 62, 26
2, 5642, Note_on_c, 0, 56, 25
2, 5645, Note_on_c, 0, 59, 37
2, 5673, Note_on_c, 0, 71, 0
2, 5685, Note_on_c, 0, 62, 0
2, 5685, Note_on_c, 0, 59, 0
2, 5697, Note_on_c, 0, 56, 0
2, 5724, Note_on_c, 0, 77, 101
2, 5760, Note_on_c, 0, 77, 0
2, 5769, Control_c, 0, 64, 0
2, 5770, Note_on_c, 0, 48, 53
2, 5771, Note_on_c, 0, 70, 61
2, 5772, Note_on_c, 0, 77, 74
2, 5774, Note_on_c, 0, 58, 35
2, 5774, Note_on_c, 0, 67, 57
2, 5790, Note_on_c, 0, 48, 0
2, 5790, Control_c, 0, 64, 127
2, 5804, Note_on_c, 0, 58, 0
2, 5814, Note_on_c, 0, 67, 0
2, 5835, Note_on_c, 0, 77, 0
2, 5848, Note_on_c, 0, 65, 43
2, 5851, Note_on_c, 0, 70, 0
2, 5881, Control_c, 0, 64, 0
2, 5882, Note_on_c, 0, 58, 28
2, 5884, Note_on_c, 0, 63, 21
2, 5885, Note_on_c, 0, 62, 28
2, 5892, Note_on_c, 0, 62, 0
2, 5894, Control_c, 0, 64, 127
2, 5896, Note_on_c, 0, 63, 0
2, 5901, Note_on_c, 0, 58, 0
2, 5933, Note_on_c, 0, 67, 33
2, 5972, Note_on_c, 0, 65, 0
2, 5975, Note_on_c, 0, 67, 0
2, 6003, Note_on_c, 0, 62, 50
2, 6004, Note_on_c, 0, 66, 46
2, 6008, Note_on_c, 0, 51, 27
2, 6009, Note_on_c, 0, 57, 25
2, 6015, Control_c, 0, 64, 0
2, 6045, Control_c, 0, 64, 127
2, 6070, Note_on_c, 0, 57, 0
2, 6073, Note_on_c, 0, 62, 0
2, 6096, Note_on_c, 0, 66, 0
2, 6118, Note_on_c, 0, 61, 34
2, 6119, Note_on_c, 0, 57, 42
2, 6120, Note_on_c, 0, 65, 53
2, 6132, Control_c, 0, 64, 0
2, 6167, Control_c, 0, 64, 127
2, 6193, Note_on_c, 0, 57, 0
2, 6199, Note_on_c, 0, 65, 0
2, 6204, Note_on_c, 0, 61, 0
2, 6232, Note_on_c, 0, 51, 0
2, 6236, Control_c, 0, 64, 0
2, 6243, Note_on_c, 0, 60, 35
2, 6243, Note_on_c, 0, 65, 40
2, 6246, Note_on_c, 0, 50, 29
2, 6249, Note_on_c, 0, 57, 24
2, 6262, Control_c, 0, 64, 127
2, 6277, Note_on_c, 0, 50, 0
2, 6287, Note_on_c, 0, 57, 0
2, 6301, Note_on_c, 0, 60, 0
2, 6334, Note_on_c, 0, 65, 0
2, 6364, Note_on_c, 0, 57, 36
2, 6365, Note_on_c, 0, 60, 22
2, 6397, Note_on_c, 0, 60, 0
2, 6400, Note_on_c, 0, 69, 75
2, 6402, Note_on_c, 0, 57, 0
2, 6427, Note_on_c, 0, 69, 0
2, 6428, Note_on_c, 0, 70, 45
2, 6444, Note_on_c, 0, 69, 42
2, 6450, Note_on_c, 0, 70, 0
2, 6461, Note_on_c, 0, 69, 0
2, 6461, Note_on_c, 0, 68, 54
2, 6471, Note_on_c, 0, 68, 0
2, 6473, Control_c, 0, 64, 0
2, 6479, Note_on_c, 0, 57, 36
2, 6482, Note_on_c, 0, 69, 57
2, 6482, Note_on_c, 0, 49, 25
2, 6506, Control_c, 0, 64, 127
2, 6532, Note_on_c, 0, 69, 0
2, 6554, Note_on_c, 0, 57, 0
2, 6597, Note_on_c, 0, 57, 50
2, 6597, Note_on_c, 0, 81, 82
2, 6597, Note_on_c, 0, 73, 77
2, 6641, Note_on_c, 0, 49, 0
2, 6662, Note_on_c, 0, 49, 32
2, 6667, Note_on_c, 0, 73, 0
2, 6689, Note_on_c, 0, 57, 0
2, 6693, Note_on_c, 0, 81, 0
2, 6702, Note_on_c, 0, 49, 0
2, 6711, Control_c, 0, 64, 0
2, 6718, Note_on_c, 0, 81, 52
2, 6721, Note_on_c, 0, 74, 52
2, 6721, Note_on_c, 0, 69, 43
2, 6722, Note_on_c, 0, 48, 31
2, 6722, Note_on_c, 0, 57, 30
2, 6736, Control_c, 0, 64, 127
2, 6777, Note_on_c, 0, 81, 0
2, 6780, Note_on_c, 0, 74, 0
2, 6781, Note_on_c, 0, 48, 0
2, 6793, Note_on_c, 0, 57, 0
2, 6796, Note_on_c, 0, 69, 0
2, 6923, Note_on_c, 0, 60, 40
2, 6923, Note_on_c, 0, 54, 30
2, 6944, Note_on_c, 0, 54, 0
2, 6947, Note_on_c, 0, 60, 0
2, 6975, Note_on_c, 0, 71, 57
2, 6976, Note_on_c, 0, 68, 54
2, 6979, Note_on_c, 0, 64, 36
2, 6979, Control_c, 0, 64, 0
2, 6980, Note_on_c, 0, 59, 38
2, 6981, Note_on_c, 0, 53, 27
2, 7004, Control_c, 0, 64, 127
2, 7009, Note_on_c, 0, 64, 0
2, 7012, Note_on_c, 0, 59, 0
2, 7024, Note_on_c, 0, 53, 0
2, 7031, Note_on_c, 0, 68, 0
2, 7032, Note_on_c, 0, 71, 0
2, 7089, Note_on_c, 0, 63, 36
2, 7092, Note_on_c, 0, 53, 33
2, 7093, Note_on_c, 0, 59, 30
2, 7093, Note_on_c, 0, 43, 32
2, 7094, Control_c, 0, 64, 0
2, 7111, Control_c, 0, 64, 127
2, 7144, Note_on_c, 0, 43, 0
2, 7146, Note_on_c, 0, 59, 0
2, 7162, Note_on_c, 0, 53, 0
2, 7178, Note_on_c, 0, 63, 0
2, 7211, Note_on_c, 0, 58, 31
2, 7213, Note_on_c, 0, 62, 53
2, 7218, Control_c, 0, 64, 0
2, 7259, Control_c, 0, 64, 127
2, 7270, Note_on_c, 0, 48, 40
2, 7273, Note_on_c, 0, 58, 0
2, 7276, Note_on_c, 0, 62, 0
2, 7328, Note_on_c, 0, 74, 75
2, 7378, Note_on_c, 0, 74, 0
2, 7385, Note_on_c, 0, 72, 50
2, 7395, Note_on_c, 0, 48, 0
2, 7414, Note_on_c, 0, 70, 53
2, 7415, Note_on_c, 0, 72, 0
2, 7434, Note_on_c, 0, 70, 0
2, 7444, Note_on_c, 0, 74, 69
2, 7444, Note_on_c, 0, 68, 60
2, 7445, Note_on_c, 0, 64, 63
2, 7451, Control_c, 0, 64, 0
2, 7495, Note_on_c, 0, 58, 83
2, 7532, Note_on_c, 0, 68, 0
2, 7542, Note_on_c, 0, 64, 0
2, 7542, Control_c, 0, 64, 127
2, 7561, Note_on_c, 0, 68, 39
2, 7563, Note_on_c, 0, 64, 36
2, 7595, Note_on_c, 0, 58, 0
2, 7617, Note_on_c, 0, 64, 0
2, 7620, Note_on_c, 0, 58, 32
2, 7621, Note_on_c, 0, 68, 0
2, 7649, Note_on_c, 0, 74, 0
2, 7669, Note_on_c, 0, 58, 0
2, 7681, Note_on_c, 0, 74, 54
2, 7683, Note_on_c, 0, 54, 34
2, 7683, Note_on_c, 0, 66, 33
2, 7684, Note_on_c, 0, 64, 35
2, 7685, Control_c, 0, 64, 0
2, 7685, Note_on_c, 0, 70, 37
2, 7718, Control_c, 0, 64, 127
2, 7748, Note_on_c, 0, 64, 0
2, 7756, Note_on_c, 0, 66, 0
2, 7763, Note_on_c, 0, 70, 0
2, 7796, Note_on_c, 0, 74, 0
2, 7804, Note_on_c, 0, 60, 33
2, 7853, Note_on_c, 0, 54, 0
2, 7860, Note_on_c, 0, 60, 0
2, 7864, Note_on_c, 0, 72, 50
2, 7888, Note_on_c, 0, 70, 52
2, 7889, Note_on_c, 0, 72, 0
2, 7910, Note_on_c, 0, 70, 0
2, 7918, Note_on_c, 0, 51, 50
2, 7920, Note_on_c, 0, 74, 65
2, 7925, Control_c, 0, 64, 0
2, 7925, Note_on_c, 0, 69, 50
2, 7958, Control_c, 0, 64, 127
2, 7978, Note_on_c, 0, 69, 0
2, 7995, Note_on_c, 0, 74, 0
2, 8034, Note_on_c, 0, 66, 46
2, 8042, Note_on_c, 0, 63, 31
2, 8042, Note_on_c, 0, 60, 46
2, 8047, Control_c, 0, 64, 0
2, 8065, Control_c, 0, 64, 127
2, 8096, Note_on_c, 0, 63, 0
2, 8096, Note_on_c, 0, 51, 0
2, 8103, Note_on_c, 0, 72, 59
2, 8108, Note_on_c, 0, 51, 30
2, 8115, Note_on_c, 0, 66, 0
2, 8122, Note_on_c, 0, 60, 0
2, 8124, Note_on_c, 0, 72, 0
2, 8126, Note_on_c, 0, 51, 0
2, 8163, Control_c, 0, 64, 0
2, 8164, Note_on_c, 0, 79, 66
2, 8165, Note_on_c, 0, 50, 47
2, 8193, Control_c, 0, 64, 127
2, 8225, Note_on_c, 0, 57, 35
2, 8264, Note_on_c, 0, 79, 0
2, 8281, Note_on_c, 0, 65, 40
2, 8285, Note_on_c, 0, 72, 25
2, 8285, Note_on_c, 0, 62, 34
2, 8323, Note_on_c, 0, 65, 0
2, 8330, Note_on_c, 0, 50, 0
2, 8337, Note_on_c, 0, 57, 0
2, 8343, Note_on_c, 0, 79, 68
2, 8344, Note_on_c, 0, 62, 0
2, 8347, Note_on_c, 0, 72, 0
2, 8363, Note_on_c, 0, 79, 0
2, 8402, Note_on_c, 0, 81, 75
2, 8405, Note_on_c, 0, 76, 71
2, 8405, Note_on_c, 0, 73, 51
2, 8407, Control_c, 0, 64, 0
2, 8407, Note_on_c, 0, 70, 61
2, 8408, Note_on_c, 0, 69, 66
2, 8415, Note_on_c, 0, 79, 18
2, 8431, Control_c, 0, 64, 127
2, 8469, Note_on_c, 0, 79, 0
2, 8478, Note_on_c, 0, 81, 0
2, 8496, Note_on_c, 0, 70, 0
2, 8497, Note_on_c, 0, 73, 0
2, 8499, Note_on_c, 0, 76, 0
2, 8499, Note_on_c, 0, 69, 0
2, 8523, Note_on_c, 0, 82, 63
2, 8526, Note_on_c, 0, 70, 56
2, 8529, Control_c, 0, 64, 0
2, 8529, Note_on_c, 0, 67, 34
2, 8542, Note_on_c, 0, 67, 0
2, 8543, Control_c, 0, 64, 127
2, 8562, Note_on_c, 0, 82, 0
2, 8579, Note_on_c, 0, 70, 0
2, 8634, Control_c, 0, 64, 0
2, 8637, Note_on_c, 0, 79, 38
2, 8639, Note_on_c, 0, 75, 37
2, 8640, Note_on_c, 0, 48, 32
2, 8644, Note_on_c, 0, 58, 20
2, 8658, Control_c, 0, 64, 127
2, 8661, Note_on_c, 0, 48, 0
2, 8663, Note_on_c, 0, 67, 1
2, 8678, Note_on_c, 0, 58, 0
2, 8699, Note_on_c, 0, 67, 0
2, 8759, Note_on_c, 0, 75, 0
2, 8760, Note_on_c, 0, 67, 29
2, 8760, Note_on_c, 0, 63, 31
2, 8764, Note_on_c, 0, 62, 34
2, 8764, Note_on_c, 0, 58, 21
2, 8771, Note_on_c, 0, 79, 0
2, 8806, Note_on_c, 0, 67, 0
2, 8807, Note_on_c, 0, 62, 0
2, 8814, Note_on_c, 0, 63, 0
2, 8820, Note_on_c, 0, 58, 0
2, 8881, Note_on_c, 0, 77, 49
2, 8889, Control_c, 0, 64, 0
2, 8892, Note_on_c, 0, 62, 26
2, 8893, Note_on_c, 0, 56, 23
2, 8896, Note_on_c, 0, 53, 18
2, 8896, Note_on_c, 0, 59, 32
2, 8904, Note_on_c, 0, 77, 0
2, 8929, Note_on_c, 0, 76, 58
2, 8933, Note_on_c, 0, 62, 0
2, 8939, Note_on_c, 0, 75, 60
2, 8947, Note_on_c, 0, 76, 0
2, 8959, Note_on_c, 0, 59, 0
2, 8961, Note_on_c, 0, 74, 68
2, 8968, Note_on_c, 0, 75, 0
2, 8969, Control_c, 0, 64, 127
2, 8977, Note_on_c, 0, 74, 0
2, 8994, Note_on_c, 0, 74, 75
2, 8999, Control_c, 0, 64, 0
2, 9004, Note_on_c, 0, 62, 33
2, 9024, Note_on_c, 0, 73, 38
2, 9030, Control_c, 0, 64, 127
2, 9032, Note_on_c, 0, 74, 0
2, 9038, Note_on_c, 0, 72, 35
2, 9042, Note_on_c, 0, 62, 0
2, 9050, Note_on_c, 0, 73, 0
2, 9058, Note_on_c, 0, 71, 58
2, 9059, Note_on_c, 0, 72, 0
2, 9060, Note_on_c, 0, 56, 0
2, 9063, Note_on_c, 0, 53, 0
2, 9084, Note_on_c, 0, 71, 0
2, 9111, Control_c, 0, 64, 0
2, 9112, Note_on_c, 0, 48, 33
2, 9120, Note_on_c, 0, 77, 66
2, 9122, Note_on_c, 0, 58, 12
2, 9142, Control_c, 0, 64, 127
2, 9158, Note_on_c, 0, 48, 0
2, 9172, Note_on_c, 0, 58, 0
2, 9192, Note_on_c, 0, 65, 59
2, 9215, Note_on_c, 0, 65, 0
2, 9232, Control_c, 0, 64, 0
2, 9237, Note_on_c, 0, 63, 28
2, 9238, Note_on_c, 0, 65, 46
2, 9240, Note_on_c, 0, 58, 25
2, 9241, Note_on_c, 0, 62, 31
2, 9249, Control_c, 0, 64, 127
2, 9253, Note_on_c, 0, 77, 0
2, 9254, Note_on_c, 0, 62, 0
2, 9258, Note_on_c, 0, 63, 0
2, 9268, Note_on_c, 0, 58, 0
2, 9283, Note_on_c, 0, 65, 0
2, 9330, Note_on_c, 0, 77, 66
2, 9354, Note_on_c, 0, 56, 30
2, 9355, Note_on_c, 0, 47, 31
2, 9356, Control_c, 0, 64, 0
2, 9357, Note_on_c, 0, 59, 45
2, 9361, Note_on_c, 0, 53, 27
2, 9381, Control_c, 0, 64, 127
2, 9397, Note_on_c, 0, 47, 0
2, 9401, Note_on_c, 0, 56, 0
2, 9410, Note_on_c, 0, 53, 0
2, 9418, Note_on_c, 0, 59, 0
2, 9450, Note_on_c, 0, 77, 0
2, 9478, Note_on_c, 0, 56, 44
2, 9479, Note_on_c, 0, 59, 33
2, 9493, Note_on_c, 0, 59, 0
2, 9495, Control_c, 0, 64, 0
2, 9507, Note_on_c, 0, 56, 0
2, 9520, Note_on_c, 0, 65, 43
2, 9528, Note_on_c, 0, 65, 0
2, 9547, Control_c, 0, 64, 127
2, 9558, Note_on_c, 0, 74, 80
2, 9582, Note_on_c, 0, 74, 0
2, 9591, Control_c, 0, 64, 0
2, 9598, Note_on_c, 0, 48, 49
2, 9599, Note_on_c, 0, 77, 71
2, 9600, Note_on_c, 0, 58, 47
2, 9601, Note_on_c, 0, 70, 69
2, 9614, Note_on_c, 0, 48, 0
2, 9616, Control_c, 0, 64, 127
2, 9618, Note_on_c, 0, 77, 0
2, 9621, Note_on_c, 0, 70, 0
2, 9626, Note_on_c, 0, 58, 0
2, 9677, Note_on_c, 0, 65, 55
2, 9710, Note_on_c, 0, 65, 0
2, 9719, Control_c, 0, 64, 0
2, 9720, Note_on_c, 0, 65, 54
2, 9722, Note_on_c, 0, 63, 31
2, 9724, Note_on_c, 0, 67, 44
2, 9738, Note_on_c, 0, 65, 0
2, 9740, Control_c, 0, 64, 127
2, 9785, Note_on_c, 0, 63, 0
2, 9815, Note_on_c, 0, 67, 0
2, 9844, Note_on_c, 0, 66, 33
2, 9846, Note_on_c, 0, 51, 38
2, 9847, Note_on_c, 0, 69, 41
2, 9848, Control_c, 0, 64, 0
2, 9849, Note_on_c, 0, 62, 25
2, 9850, Note_on_c, 0, 57, 24
2, 9871, Note_on_c, 0, 57, 0
2, 9872, Control_c, 0, 64, 127
2, 9882, Note_on_c, 0, 51, 0
2, 9962, Note_on_c, 0, 29, 42
2, 9963, Note_on_c, 0, 41, 39
2, 9966, Note_on_c, 0, 62, 0
2, 9980, Note_on_c, 0, 29, 0
2, 9981, Note_on_c, 0, 41, 0
2, 10022, Control_c, 0, 64, 0
2, 10023, Note_on_c, 0, 66, 0
2, 10025, Note_on_c, 0, 69, 0
2, 10026, Note_on_c, 0, 27, 47
2, 10027, Control_c, 0, 64, 127
2, 10037, Note_on_c, 0, 27, 0
2, 10074, Control_c, 0, 64, 0
2, 10080, Note_on_c, 0, 26, 42
2, 10082, Note_on_c, 0, 38, 35
2, 10082, Note_on_c, 0, 65, 49
2, 10085, Note_on_c, 0, 60, 40
2, 10094, Note_on_c, 0, 26, 0
2, 10099, Control_c, 0, 64, 127
2, 10102, Note_on_c, 0, 38, 0
2, 10109, Note_on_c, 0, 65, 0
2, 10123, Note_on_c, 0, 60, 0
2, 10154, Note_on_c, 0, 64, 96
2, 10155, Note_on_c, 0, 69, 90
2, 10156, Note_on_c, 0, 65, 87
2, 10192, Note_on_c, 0, 64, 0
2, 10194, Note_on_c, 0, 69, 0
2, 10196, Note_on_c, 0, 65, 0
2, 10208, Control_c, 0, 64, 0
2, 10210, Note_on_c, 0, 69, 71
2, 10210, Note_on_c, 0, 65, 68
2, 10210, Note_on_c, 0, 64, 74
2, 10212, Note_on_c, 0, 57, 57
2, 10234, Control_c, 0, 64, 127
2, 10252, Note_on_c, 0, 57, 0
2, 10256, Note_on_c, 0, 64, 0
2, 10256, Note_on_c, 0, 69, 0
2, 10262, Note_on_c, 0, 65, 0
2, 10268, Note_on_c, 0, 67, 63
2, 10269, Note_on_c, 0, 64, 36
2, 10270, Note_on_c, 0, 65, 45
2, 10286, Note_on_c, 0, 64, 0
2, 10299, Note_on_c, 0, 65, 0
2, 10308, Note_on_c, 0, 67, 0
2, 10324, Note_on_c, 0, 64, 64
2, 10324, Control_c, 0, 64, 0
2, 10325, Note_on_c, 0, 69, 59
2, 10328, Note_on_c, 0, 49, 34
2, 10328, Note_on_c, 0, 57, 37
2, 10355, Control_c, 0, 64, 127
2, 10379, Note_on_c, 0, 64, 0
2, 10384, Note_on_c, 0, 57, 0
2, 10436, Note_on_c, 0, 69, 0
2, 10446, Note_on_c, 0, 61, 42
2, 10450, Control_c, 0, 64, 0
2, 10450, Note_on_c, 0, 57, 28
2, 10451, Note_on_c, 0, 64, 37
2, 10453, Control_c, 0, 64, 127
2, 10495, Note_on_c, 0, 49, 0
2, 10502, Note_on_c, 0, 64, 0
2, 10507, Note_on_c, 0, 67, 1
2, 10512, Note_on_c, 0, 49, 37
2, 10527, Note_on_c, 0, 57, 0
2, 10528, Note_on_c, 0, 61, 0
2, 10545, Note_on_c, 0, 49, 0
2, 10548, Note_on_c, 0, 67, 0
2, 10558, Control_c, 0, 64, 0
2, 10564, Note_on_c, 0, 57, 36
2, 10565, Note_on_c, 0, 48, 36
2, 10566, Note_on_c, 0, 69, 38
2, 10568, Note_on_c, 0, 60, 27
2, 10580, Control_c, 0, 64, 127
2, 10597, Note_on_c, 0, 57, 0
2, 10606, Note_on_c, 0, 48, 0
2, 10616, Note_on_c, 0, 69, 0
2, 10622, Note_on_c, 0, 60, 0
2, 10681, Note_on_c, 0, 54, 43
2, 10682, Note_on_c, 0, 44, 39
2, 10687, Control_c, 0, 64, 0
2, 10705, Control_c, 0, 64, 127
2, 10765, Note_on_c, 0, 54, 0
2, 10785, Note_on_c, 0, 44, 0
2, 10802, Note_on_c, 0, 71, 68
2, 10804, Note_on_c, 0, 59, 51
2, 10805, Note_on_c, 0, 43, 44
2, 10805, Control_c, 0, 64, 0
2, 10807, Note_on_c, 0, 53, 37
2, 10836, Control_c, 0, 64, 127
2, 10861, Note_on_c, 0, 59, 0
2, 10878, Note_on_c, 0, 71, 0
2, 10878, Note_on_c, 0, 53, 0
2, 10919, Note_on_c, 0, 53, 50
2, 10942, Note_on_c, 0, 43, 0
2, 10957, Note_on_c, 0, 53, 0
2, 10974, Note_on_c, 0, 66, 57
2, 10997, Note_on_c, 0, 66, 0
2, 11007, Note_on_c, 0, 67, 80
2, 11029, Note_on_c, 0, 67, 0
2, 11044, Note_on_c, 0, 74, 70
2, 11045, Control_c, 0, 64, 0
2, 11045, Note_on_c, 0, 58, 46
2, 11045, Note_on_c, 0, 48, 54
2, 11072, Control_c, 0, 64, 127
2, 11085, Note_on_c, 0, 74, 0
2, 11097, Note_on_c, 0, 58, 0
2, 11106, Note_on_c, 0, 62, 48
2, 11144, Note_on_c, 0, 62, 0
2, 11167, Note_on_c, 0, 62, 36
2, 11170, Note_on_c, 0, 60, 34
2, 11171, Note_on_c, 0, 65, 40
2, 11200, Note_on_c, 0, 62, 0
2, 11206, Note_on_c, 0, 60, 0
2, 11207, Note_on_c, 0, 72, 55
2, 11218, Note_on_c, 0, 65, 0
2, 11229, Note_on_c, 0, 48, 0
2, 11235, Note_on_c, 0, 72, 0
2, 11247, Note_on_c, 0, 70, 62
2, 11271, Note_on_c, 0, 70, 0
2, 11293, Note_on_c, 0, 74, 70
2, 11296, Note_on_c, 0, 62, 61
2, 11297, Note_on_c, 0, 48, 54
2, 11298, Note_on_c, 0, 66, 37
2, 11300, Control_c, 0, 64, 0
2, 11302, Note_on_c, 0, 58, 31
2, 11331, Control_c, 0, 64, 127
2, 11365, Note_on_c, 0, 58, 0
2, 11371, Note_on_c, 0, 66, 0
2, 11380, Note_on_c, 0, 62, 0
2, 11401, Note_on_c, 0, 67, 44
2, 11403, Note_on_c, 0, 62, 48
2, 11407, Note_on_c, 0, 58, 25
2, 11412, Control_c, 0, 64, 0
2, 11420, Control_c, 0, 64, 127
2, 11446, Note_on_c, 0, 48, 0
2, 11457, Note_on_c, 0, 62, 0
2, 11465, Note_on_c, 0, 67, 0
2, 11483, Note_on_c, 0, 58, 0
2, 11494, Note_on_c, 0, 74, 0
2, 11520, Note_on_c, 0, 54, 39
2, 11520, Note_on_c, 0, 74, 50
2, 11521, Note_on_c, 0, 68, 45
2, 11523, Note_on_c, 0, 64, 25
2, 11524, Control_c, 0, 64, 0
2, 11553, Control_c, 0, 64, 127
2, 11610, Note_on_c, 0, 64, 0
2, 11611, Note_on_c, 0, 68, 0
2, 11630, Note_on_c, 0, 74, 0
2, 11639, Note_on_c, 0, 63, 32
2, 11640, Note_on_c, 0, 72, 42
2, 11641, Note_on_c, 0, 64, 46
2, 11641, Note_on_c, 0, 68, 36
2, 11658, Note_on_c, 0, 63, 0
2, 11660, Note_on_c, 0, 64, 0
2, 11667, Note_on_c, 0, 68, 0
2, 11667, Note_on_c, 0, 72, 0
2, 11672, Note_on_c, 0, 54, 0
2, 11681, Note_on_c, 0, 70, 36
2, 11704, Note_on_c, 0, 70, 0
2, 11727, Note_on_c, 0, 63, 45
2, 11727, Note_on_c, 0, 74, 62
2, 11729, Control_c, 0, 64, 0
2, 11732, Note_on_c, 0, 69, 43
2, 11736, Note_on_c, 0, 53, 25
2, 11736, Note_on_c, 0, 60, 20
2, 11762, Control_c, 0, 64, 127
2, 11802, Note_on_c, 0, 60, 0
2, 11811, Note_on_c, 0, 53, 0
2, 11822, Note_on_c, 0, 74, 0
2, 11830, Note_on_c, 0, 69, 0
2, 11839, Note_on_c, 0, 63, 0
2, 11879, Note_on_c, 0, 51, 50
2, 11885, Note_on_c, 0, 60, 39
2, 11886, Control_c, 0, 64, 0
2, 11910, Control_c, 0, 64, 127
2, 11924, Note_on_c, 0, 65, 49
2, 11946, Note_on_c, 0, 60, 0
2, 11947, Note_on_c, 0, 65, 0
2, 11961, Note_on_c, 0, 67, 72
2, 11964, Note_on_c, 0, 51, 0
2, 11979, Note_on_c, 0, 67, 0
2, 12003, Note_on_c, 0, 72, 57
2, 12003, Note_on_c, 0, 50, 36
2, 12004, Note_on_c, 0, 65, 68
2, 12005, Note_on_c, 0, 62, 67
2, 12006, Control_c, 0, 64, 0
2, 12008, Note_on_c, 0, 57, 20
2, 12032, Note_on_c, 0, 72, 0
2, 12033, Note_on_c, 0, 65, 0
2, 12035, Note_on_c, 0, 62, 0
2, 12042, Note_on_c, 0, 57, 0
2, 12043, Note_on_c, 0, 70, 52
2, 12050, Control_c, 0, 64, 127
2, 12063, Note_on_c, 0, 70, 0
2, 12080, Note_on_c, 0, 72, 64
2, 12081, Note_on_c, 0, 62, 68
2, 12081, Note_on_c, 0, 65, 65
2, 12083, Control_c, 0, 64, 0
2, 12084, Note_on_c, 0, 57, 54
2, 12114, Control_c, 0, 64, 127
2, 12144, Note_on_c, 0, 50, 0
2, 12146, Note_on_c, 0, 65, 0
2, 12148, Note_on_c, 0, 57, 0
2, 12148, Note_on_c, 0, 62, 0
2, 12157, Note_on_c, 0, 72, 0
2, 12168, Note_on_c, 0, 70, 58
2, 12168, Note_on_c, 0, 65, 55
2, 12169, Note_on_c, 0, 62, 49
2, 12173, Note_on_c, 0, 50, 30
2, 12173, Note_on_c, 0, 57, 37
2, 12197, Note_on_c, 0, 50, 0
2, 12202, Note_on_c, 0, 70, 0
2, 12207, Note_on_c, 0, 62, 0
2, 12208, Note_on_c, 0, 65, 0
2, 12211, Note_on_c, 0, 57, 0
2, 12244, Control_c, 0, 64, 0
2, 12249, Note_on_c, 0, 70, 48
2, 12251, Note_on_c, 0, 62, 37
2, 12251, Note_on_c, 0, 67, 42
2, 12252, Note_on_c, 0, 65, 47
2, 12253, Note_on_c, 0, 51, 36
2, 12277, Control_c, 0, 64, 127
2, 12312, Note_on_c, 0, 65, 0
2, 12321, Note_on_c, 0, 67, 0
2, 12321, Note_on_c, 0, 62, 0
2, 12342, Note_on_c, 0, 51, 0
2, 12351, Note_on_c, 0, 70, 0
2, 12364, Note_on_c, 0, 67, 51
2, 12365, Note_on_c, 0, 62, 39
2, 12367, Note_on_c, 0, 51, 36
2, 12371, Note_on_c, 0, 65, 35
2, 12398, Note_on_c, 0, 51, 0
2, 12406, Note_on_c, 0, 67, 0
2, 12413, Note_on_c, 0, 65, 0
2, 12425, Note_on_c, 0, 62, 0
2, 12481, Note_on_c, 0, 65, 79
2, 12484, Note_on_c, 0, 60, 72
2, 12484, Note_on_c, 0, 50, 36
2, 12485, Note_on_c, 0, 69, 58
2, 12486, Control_c, 0, 64, 0
2, 12517, Control_c, 0, 64, 127
2, 12538, Note_on_c, 0, 50, 0
2, 12557, Note_on_c, 0, 60, 0
2, 12558, Note_on_c, 0, 69, 0
2, 12565, Note_on_c, 0, 65, 0
2, 12598, Note_on_c, 0, 68, 49
2, 12600, Note_on_c, 0, 63, 47
2, 12601, Note_on_c, 0, 59, 45
2, 12602, Note_on_c, 0, 53, 37
2, 12603, Note_on_c, 0, 43, 30
2, 12604, Control_c, 0, 64, 0
2, 12630, Note_on_c, 0, 43, 0
2, 12631, Control_c, 0, 64, 127
2, 12667, Note_on_c, 0, 53, 0
2, 12672, Note_on_c, 0, 59, 0
2, 12682, Note_on_c, 0, 63, 0
2, 12697, Note_on_c, 0, 68, 0
2, 12718, Control_c, 0, 64, 0
2, 12720, Note_on_c, 0, 68, 34
2, 12720, Note_on_c, 0, 59, 44
2, 12721, Note_on_c, 0, 64, 40
2, 12724, Note_on_c, 0, 49, 29
2, 12746, Control_c, 0, 64, 127
2, 12776, Note_on_c, 0, 59, 0
2, 12782, Note_on_c, 0, 64, 0
2, 12803, Note_on_c, 0, 68, 0
2, 12831, Note_on_c, 0, 68, 40
2, 12833, Control_c, 0, 64, 0
2, 12836, Note_on_c, 0, 42, 32
2, 12836, Note_on_c, 0, 58, 33
2, 12838, Note_on_c, 0, 63, 35
2, 12848, Note_on_c, 0, 49, 0
2, 12853, Control_c, 0, 64, 127
2, 12859, Note_on_c, 0, 42, 0
2, 12920, Note_on_c, 0, 63, 0
2, 12920, Note_on_c, 0, 49, 32
2, 12929, Note_on_c, 0, 58, 0
2, 12932, Note_on_c, 0, 68, 0
2, 12943, Control_c, 0, 64, 0
2, 12949, Note_on_c, 0, 49, 0
2, 12960, Control_c, 0, 64, 127
2, 12963, Note_on_c, 0, 48, 52
2, 12965, Note_on_c, 0, 67, 40
2, 12966, Note_on_c, 0, 63, 34
2, 12977, Note_on_c, 0, 48, 0
2, 12985, Note_on_c, 0, 63, 0
2, 12986, Note_on_c, 0, 67, 0
2, 13043, Note_on_c, 0, 72, 51
2, 13078, Control_c, 0, 64, 0
2, 13079, Note_on_c, 0, 67, 34
2, 13080, Note_on_c, 0, 62, 35
2, 13081, Note_on_c, 0, 63, 26
2, 13082, Note_on_c, 0, 58, 28
2, 13093, Control_c, 0, 64, 127
2, 13094, Note_on_c, 0, 67, 0
2, 13113, Note_on_c, 0, 62, 0
2, 13122, Note_on_c, 0, 58, 0
2, 13130, Note_on_c, 0, 63, 0
2, 13134, Note_on_c, 0, 74, 64
2, 13141, Note_on_c, 0, 72, 0
2, 13156, Note_on_c, 0, 74, 0
2, 13167, Note_on_c, 0, 75, 85
2, 13169, Note_on_c, 0, 74, 60
2, 13175, Note_on_c, 0, 74, 0
2, 13196, Note_on_c, 0, 75, 0
2, 13200, Control_c, 0, 64, 0
2, 13204, Note_on_c, 0, 77, 71
2, 13205, Note_on_c, 0, 67, 43
2, 13206, Note_on_c, 0, 63, 30
2, 13212, Note_on_c, 0, 57, 30
2, 13218, Note_on_c, 0, 67, 0
2, 13222, Note_on_c, 0, 57, 0
2, 13226, Control_c, 0, 64, 127
2, 13229, Note_on_c, 0, 63, 0
2, 13244, Note_on_c, 0, 72, 40
2, 13246, Note_on_c, 0, 77, 0
2, 13259, Note_on_c, 0, 72, 0
2, 13283, Note_on_c, 0, 77, 71
2, 13306, Note_on_c, 0, 77, 0
2, 13312, Control_c, 0, 64, 0
2, 13318, Note_on_c, 0, 53, 47
2, 13321, Note_on_c, 0, 63, 32
2, 13339, Control_c, 0, 64, 127
2, 13343, Note_on_c, 0, 53, 0
2, 13347, Note_on_c, 0, 63, 0
2, 13398, Note_on_c, 0, 51, 42
2, 13430, Note_on_c, 0, 51, 0
2, 13438, Control_c, 0, 64, 0
2, 13442, Note_on_c, 0, 50, 46
2, 13443, Note_on_c, 0, 79, 65
2, 13444, Note_on_c, 0, 67, 52
2, 13446, Note_on_c, 0, 72, 37
2, 13447, Note_on_c, 0, 57, 30
2, 13450, Note_on_c, 0, 60, 17
2, 13466, Control_c, 0, 64, 127
2, 13471, Note_on_c, 0, 67, 0
2, 13472, Note_on_c, 0, 72, 0
2, 13475, Note_on_c, 0, 79, 0
2, 13478, Note_on_c, 0, 57, 0
2, 13498, Note_on_c, 0, 60, 0
2, 13517, Note_on_c, 0, 50, 0
2, 13520, Note_on_c, 0, 79, 71
2, 13521, Note_on_c, 0, 72, 56
2, 13523, Note_on_c, 0, 67, 63
2, 13555, Control_c, 0, 64, 0
2, 13563, Note_on_c, 0, 60, 34
2, 13564, Note_on_c, 0, 57, 50
2, 13570, Control_c, 0, 64, 127
2, 13571, Note_on_c, 0, 60, 0
2, 13574, Note_on_c, 0, 57, 0
2, 13587, Note_on_c, 0, 67, 0
2, 13593, Note_on_c, 0, 72, 0
2, 13598, Note_on_c, 0, 79, 0
2, 13644, Note_on_c, 0, 50, 50
2, 13667, Note_on_c, 0, 50, 0
2, 13678, Control_c, 0, 64, 0
2, 13689, Note_on_c, 0, 43, 52
2, 13695, Note_on_c, 0, 43, 0
2, 13695, Control_c, 0, 64, 127
2, 13722, Note_on_c, 0, 80, 71
2, 13726, Note_on_c, 0, 71, 44
2, 13736, Note_on_c, 0, 71, 0
2, 13748, Note_on_c, 0, 80, 0
2, 13763, Note_on_c, 0, 75, 51
2, 13789, Note_on_c, 0, 75, 0
2, 13805, Note_on_c, 0, 80, 75
2, 13806, Note_on_c, 0, 74, 68
2, 13806, Note_on_c, 0, 62, 57
2, 13807, Control_c, 0, 64, 0
2, 13807, Note_on_c, 0, 71, 63
2, 13809, Note_on_c, 0, 56, 33
2, 13809, Note_on_c, 0, 53, 35
2, 13810, Note_on_c, 0, 59, 35
2, 13830, Control_c, 0, 64, 127
2, 13836, Note_on_c, 0, 74, 0
2, 13846, Note_on_c, 0, 71, 0
2, 13853, Note_on_c, 0, 80, 0
2, 13855, Note_on_c, 0, 59, 0
2, 13856, Note_on_c, 0, 62, 0
2, 13865, Note_on_c, 0, 56, 0
2, 13867, Note_on_c, 0, 53, 0
2, 13880, Note_on_c, 0, 78, 53
2, 13898, Note_on_c, 0, 78, 0
2, 13920, Control_c, 0, 64, 0
2, 13921, Note_on_c, 0, 48, 55
2, 13923, Note_on_c, 0, 79, 64
2, 13923, Note_on_c, 0, 75, 55
2, 13925, Note_on_c, 0, 58, 32
2, 13940, Note_on_c, 0, 48, 0
2, 13940, Control_c, 0, 64, 127
2, 13947, Note_on_c, 0, 79, 0
2, 13949, Note_on_c, 0, 75, 0
2, 13951, Note_on_c, 0, 58, 0
2, 14000, Note_on_c, 0, 82, 83
2, 14001, Note_on_c, 0, 75, 87
2, 14002, Note_on_c, 0, 70, 82
2, 14033, Note_on_c, 0, 82, 0
2, 14034, Note_on_c, 0, 75, 0
2, 14035, Note_on_c, 0, 70, 0
2, 14047, Control_c, 0, 64, 0
2, 14047, Note_on_c, 0, 58, 27
2, 14048, Note_on_c, 0, 63, 21
2, 14050, Note_on_c, 0, 62, 34
2, 14053, Note_on_c, 0, 79, 64
2, 14057, Note_on_c, 0, 69, 37
2, 14057, Note_on_c, 0, 67, 32
2, 14071, Control_c, 0, 64, 127
2, 14083, Note_on_c, 0, 69, 0
2, 14098, Note_on_c, 0, 62, 0
2, 14098, Note_on_c, 0, 67, 0
2, 14106, Note_on_c, 0, 79, 0
2, 14108, Note_on_c, 0, 63, 0
2, 14113, Note_on_c, 0, 58, 0
2, 14120, Note_on_c, 0, 75, 56
2, 14154, Note_on_c, 0, 75, 0
2, 14168, Note_on_c, 0, 74, 54
2, 14170, Note_on_c, 0, 57, 37
2, 14170, Note_on_c, 0, 63, 32
2, 14170, Control_c, 0, 64, 0
2, 14180, Note_on_c, 0, 69, 10
2, 14195, Control_c, 0, 64, 127
2, 14227, Note_on_c, 0, 69, 0
2, 14235, Note_on_c, 0, 74, 0
2, 14239, Note_on_c, 0, 63, 0
2, 14244, Note_on_c, 0, 77, 70
2, 14264, Note_on_c, 0, 77, 0
2, 14287, Note_on_c, 0, 63, 42
2, 14304, Note_on_c, 0, 63, 0
2, 14310, Note_on_c, 0, 57, 0
2, 14356, Note_on_c, 0, 57, 44
2, 14358, Note_on_c, 0, 66, 46
2, 14360, Note_on_c, 0, 69, 32
2, 14361, Note_on_c, 0, 63, 25
2, 14372, Note_on_c, 0, 57, 0
2, 14388, Note_on_c, 0, 63, 0
2, 14397, Note_on_c, 0, 69, 0
2, 14402, Note_on_c, 0, 66, 0
2, 14412, Note_on_c, 0, 65, 39
2, 14414, Control_c, 0, 64, 0
2, 14414, Note_on_c, 0, 46, 27
2, 14415, Note_on_c, 0, 62, 29
2, 14417, Note_on_c, 0, 57, 34
2, 14440, Control_c, 0, 64, 127
2, 14446, Note_on_c, 0, 65, 0
2, 14454, Note_on_c, 0, 57, 0
2, 14456, Note_on_c, 0, 62, 0
2, 14489, Note_on_c, 0, 67, 48
2, 14490, Note_on_c, 0, 55, 55
2, 14502, Control_c, 0, 64, 0
2, 14524, Control_c, 0, 64, 127
2, 14535, Note_on_c, 0, 55, 0
2, 14537, Note_on_c, 0, 67, 0
2, 14551, Note_on_c, 0, 46, 0
2, 14566, Control_c, 0, 64, 0
2, 14571, Note_on_c, 0, 67, 45
2, 14571, Note_on_c, 0, 46, 33
2, 14572, Note_on_c, 0, 60, 46
2, 14575, Note_on_c, 0, 62, 42
2, 14576, Note_on_c, 0, 55, 38
2, 14576, Note_on_c, 0, 57, 20
2, 14591, Note_on_c, 0, 60, 0
2, 14592, Note_on_c, 0, 57, 0
2, 14594, Note_on_c, 0, 62, 0
2, 14596, Note_on_c, 0, 67, 0
2, 14598, Control_c, 0, 64, 127
2, 14600, Note_on_c, 0, 55, 0
2, 14610, Note_on_c, 0, 53, 38
2, 14629, Note_on_c, 0, 53, 0
2, 14630, Control_c, 0, 64, 0
2, 14648, Note_on_c, 0, 67, 37
2, 14649, Note_on_c, 0, 57, 31
2, 14649, Note_on_c, 0, 60, 44
2, 14650, Note_on_c, 0, 55, 53
2, 14653, Note_on_c, 0, 62, 42
2, 14661, Note_on_c, 0, 46, 0
2, 14662, Control_c, 0, 64, 127
2, 14682, Note_on_c, 0, 57, 0
2, 14683, Note_on_c, 0, 60, 0
2, 14684, Note_on_c, 0, 62, 0
2, 14687, Note_on_c, 0, 55, 0
2, 14690, Note_on_c, 0, 53, 46
2, 14691, Note_on_c, 0, 67, 0
2, 14757, Control_c, 0, 64, 0
2, 14765, Note_on_c, 0, 60, 64
2, 14767, Note_on_c, 0, 57, 41
2, 14772, Control_c, 0, 64, 127
2, 14788, Note_on_c, 0, 57, 0
2, 14801, Note_on_c, 0, 60, 0
2, 14841, Note_on_c, 0, 46, 48
2, 14842, Note_on_c, 0, 53, 0
2, 14867, Note_on_c, 0, 46, 0
2, 14879, Control_c, 0, 64, 0
2, 14886, Note_on_c, 0, 86, 94
2, 14887, Note_on_c, 0, 74, 84
2, 14887, Note_on_c, 0, 45, 63
2, 14887, Note_on_c, 0, 81, 79
2, 14892, Note_on_c, 0, 55, 64
2, 14899, Control_c, 0, 64, 127
2, 14902, Note_on_c, 0, 45, 0
2, 14910, Note_on_c, 0, 55, 0
2, 15005, Note_on_c, 0, 63, 42
2, 15007, Control_c, 0, 64, 0
2, 15009, Note_on_c, 0, 55, 43
2, 15013, Note_on_c, 0, 60, 25
2, 15014, Note_on_c, 0, 57, 31
2, 15019, Control_c, 0, 64, 127
2, 15030, Note_on_c, 0, 86, 0
2, 15048, Note_on_c, 0, 60, 0
2, 15049, Note_on_c, 0, 85, 67
2, 15050, Note_on_c, 0, 57, 0
2, 15055, Note_on_c, 0, 55, 0
2, 15055, Note_on_c, 0, 63, 0
2, 15069, Note_on_c, 0, 74, 0
2, 15072, Note_on_c, 0, 81, 0
2, 15077, Note_on_c, 0, 85, 0
2, 15089, Note_on_c, 0, 86, 89
2, 15090, Note_on_c, 0, 81, 66
2, 15091, Note_on_c, 0, 74, 69
2, 15100, Note_on_c, 0, 74, 0
2, 15106, Note_on_c, 0, 85, 35
2, 15107, Note_on_c, 0, 86, 0
2, 15112, Note_on_c, 0, 85, 0
2, 15122, Note_on_c, 0, 81, 0
2, 15127, Control_c, 0, 64, 0
2, 15131, Note_on_c, 0, 75, 71
2, 15131, Note_on_c, 0, 81, 64
2, 15131, Note_on_c, 0, 87, 78
2, 15131, Note_on_c, 0, 54, 31
2, 15133, Note_on_c, 0, 50, 38
2, 15133, Note_on_c, 0, 60, 47
2, 15155, Control_c, 0, 64, 127
2, 15175, Note_on_c, 0, 50, 0
2, 15176, Note_on_c, 0, 75, 0
2, 15178, Note_on_c, 0, 81, 0
2, 15180, Note_on_c, 0, 87, 0
2, 15181, Note_on_c, 0, 54, 0
2, 15187, Note_on_c, 0, 60, 0
2, 15205, Note_on_c, 0, 84, 60
2, 15207, Note_on_c, 0, 72, 37
2, 15227, Note_on_c, 0, 72, 0
2, 15229, Note_on_c, 0, 84, 0
2, 15247, Note_on_c, 0, 54, 35
2, 15248, Note_on_c, 0, 60, 49
2, 15250, Note_on_c, 0, 74, 57
2, 15250, Note_on_c, 0, 79, 44
2, 15251, Control_c, 0, 64, 0
2, 15251, Note_on_c, 0, 86, 67
2, 15264, Note_on_c, 0, 60, 0
2, 15273, Control_c, 0, 64, 127
2, 15275, Note_on_c, 0, 54, 0
2, 15316, Note_on_c, 0, 79, 0
2, 15317, Note_on_c, 0, 74, 0
2, 15320, Note_on_c, 0, 86, 0
2, 15323, Note_on_c, 0, 50, 50
2, 15359, Note_on_c, 0, 50, 0
2, 15361, Control_c, 0, 64, 0
2, 15369, Note_on_c, 0, 43, 53
2, 15370, Note_on_c, 0, 88, 89
2, 15376, Note_on_c, 0, 43, 0
2, 15382, Control_c, 0, 64, 127
2, 15402, Note_on_c, 0, 88, 0
2, 15410, Note_on_c, 0, 85, 44
2, 15431, Note_on_c, 0, 85, 0
2, 15448, Note_on_c, 0, 86, 92
2, 15472, Control_c, 0, 64, 0
2, 15486, Note_on_c, 0, 86, 0
2, 15486, Note_on_c, 0, 62, 29
2, 15487, Control_c, 0, 64, 127
2, 15488, Note_on_c, 0, 55, 41
2, 15488, Note_on_c, 0, 58, 35
2, 15539, Note_on_c, 0, 93, 83
2, 15544, Note_on_c, 0, 55, 0
2, 15546, Note_on_c, 0, 92, 33
2, 15550, Note_on_c, 0, 62, 0
2, 15552, Note_on_c, 0, 92, 0
2, 15557, Note_on_c, 0, 58, 0
2, 15570, Note_on_c, 0, 93, 0
2, 15573, Note_on_c, 0, 90, 65
2, 15604, Note_on_c, 0, 90, 0
2, 15613, Note_on_c, 0, 62, 57
2, 15614, Note_on_c, 0, 91, 74
2, 15614, Control_c, 0, 64, 0
2, 15615, Note_on_c, 0, 58, 46
2, 15617, Note_on_c, 0, 55, 48
2, 15640, Control_c, 0, 64, 127
2, 15675, Note_on_c, 0, 55, 0
2, 15690, Note_on_c, 0, 54, 42
2, 15721, Note_on_c, 0, 54, 0
2, 15723, Note_on_c, 0, 91, 0
2, 15736, Note_on_c, 0, 91, 56
2, 15737, Control_c, 0, 64, 0
2, 15738, Note_on_c, 0, 53, 57
2, 15745, Note_on_c, 0, 86, 24
2, 15757, Control_c, 0, 64, 127
2, 15760, Note_on_c, 0, 86, 0
2, 15762, Note_on_c, 0, 91, 0
2, 15776, Note_on_c, 0, 58, 0
2, 15798, Note_on_c, 0, 62, 0
2, 15814, Note_on_c, 0, 58, 42
2, 15820, Note_on_c, 0, 58, 0
2, 15832, Note_on_c, 0, 53, 0
2, 15857, Note_on_c, 0, 69, 80
2, 15858, Note_on_c, 0, 48, 67
2, 15858, Note_on_c, 0, 62, 82
2, 15858, Note_on_c, 0, 58, 78
2, 15859, Note_on_c, 0, 57, 63
2, 15860, Note_on_c, 0, 65, 70
2, 15862, Control_c, 0, 64, 0
2, 15893, Control_c, 0, 64, 127
2, 15912, Note_on_c, 0, 69, 0
2, 15933, Note_on_c, 0, 69, 76
2, 15959, Note_on_c, 0, 57, 0
2, 15978, Note_on_c, 0, 69, 0
2, 15978, Note_on_c, 0, 57, 38
2, 16003, Note_on_c, 0, 65, 0
2, 16013, Note_on_c, 0, 69, 66
2, 16022, Note_on_c, 0, 48, 0
2, 16027, Note_on_c, 0, 69, 0
2, 16038, Note_on_c, 0, 58, 0
2, 16047, Note_on_c, 0, 48, 40
2, 16048, Note_on_c, 0, 69, 68
2, 16051, Note_on_c, 0, 57, 0
2, 16052, Note_on_c, 0, 62, 0
2, 16065, Note_on_c, 0, 48, 0
2, 16069, Note_on_c, 0, 69, 0
2, 16091, Note_on_c, 0, 69, 48
2, 16092, Note_on_c, 0, 61, 45
2, 16093, Control_c, 0, 64, 0
2, 16094, Note_on_c, 0, 64, 54
2, 16094, Note_on_c, 0, 48, 41
2, 16096, Note_on_c, 0, 58, 35
2, 16120, Control_c, 0, 64, 127
2, 16154, Note_on_c, 0, 58, 0
2, 16162, Note_on_c, 0, 64, 0
2, 16172, Note_on_c, 0, 61, 0
2, 16198, Note_on_c, 0, 69, 0
2, 16204, Note_on_c, 0, 61, 33
2, 16205, Note_on_c, 0, 58, 25
2, 16207, Note_on_c, 0, 64, 41
2, 16224, Note_on_c, 0, 58, 0
2, 16235, Note_on_c, 0, 48, 0
2, 16267, Note_on_c, 0, 64, 0
2, 16274, Note_on_c, 0, 48, 46
2, 16297, Note_on_c, 0, 61, 0
2, 16318, Control_c, 0, 64, 0
2, 16320, Note_on_c, 0, 58, 44
2, 16320, Note_on_c, 0, 67, 59
2, 16320, Note_on_c, 0, 63, 48
2, 16322, Note_on_c, 0, 55, 43
2, 16344, Control_c, 0, 64, 127
2, 16369, Note_on_c, 0, 67, 0
2, 16395, Note_on_c, 0, 67, 66
2, 16399, Note_on_c, 0, 55, 0
2, 16417, Note_on_c, 0, 67, 0
2, 16419, Note_on_c, 0, 48, 0
2, 16443, Note_on_c, 0, 67, 57
2, 16443, Note_on_c, 0, 55, 36
2, 16455, Note_on_c, 0, 55, 0
2, 16462, Note_on_c, 0, 63, 0
2, 16468, Note_on_c, 0, 67, 0
2, 16491, Note_on_c, 0, 58, 0
2, 16519, Note_on_c, 0, 62, 47
2, 16543, Note_on_c, 0, 62, 0
2, 16567, Note_on_c, 0, 59, 48
2, 16568, Note_on_c, 0, 53, 35
2, 16569, Control_c, 0, 64, 0
2, 16570, Note_on_c, 0, 63, 34
2, 16572, Note_on_c, 0, 31, 32
2, 16574, Note_on_c, 0, 43, 16
2, 16586, Note_on_c, 0, 31, 0
2, 16594, Control_c, 0, 64, 127
2, 16614, Note_on_c, 0, 43, 0
2, 16623, Note_on_c, 0, 53, 0
2, 16640, Note_on_c, 0, 59, 0
2, 16677, Note_on_c, 0, 63, 0
2, 16689, Note_on_c, 0, 56, 28
2, 16689, Note_on_c, 0, 62, 51
2, 16691, Note_on_c, 0, 47, 34
2, 16691, Note_on_c, 0, 59, 44
2, 16694, Control_c, 0, 64, 0
2, 16712, Control_c, 0, 64, 127
2, 16738, Note_on_c, 0, 59, 0
2, 16745, Note_on_c, 0, 56, 0
2, 16750, Note_on_c, 0, 62, 0
2, 16795, Control_c, 0, 64, 0
2, 16796, Note_on_c, 0, 47, 0
2, 16802, Note_on_c, 0, 65, 46
2, 16805, Note_on_c, 0, 48, 35
2, 16806, Note_on_c, 0, 58, 33
2, 16809, Note_on_c, 0, 55, 36
2, 16813, Control_c, 0, 64, 127
2, 16819, Note_on_c, 0, 55, 0
2, 16826, Note_on_c, 0, 58, 0
2, 16830, Note_on_c, 0, 65, 0
2, 16837, Note_on_c, 0, 48, 0
2, 16876, Note_on_c, 0, 77, 73
2, 16922, Note_on_c, 0, 77, 0
2, 16926, Note_on_c, 0, 74, 61
2, 16927, Note_on_c, 0, 67, 37
2, 16928, Control_c, 0, 64, 0
2, 16929, Note_on_c, 0, 63, 29
2, 16932, Note_on_c, 0, 62, 29
2, 16939, Note_on_c, 0, 67, 0
2, 16944, Note_on_c, 0, 62, 0
2, 16946, Control_c, 0, 64, 127
2, 16947, Note_on_c, 0, 63, 0
2, 16949, Note_on_c, 0, 74, 0
2, 16961, Note_on_c, 0, 75, 56
2, 16983, Note_on_c, 0, 75, 0
2, 16992, Note_on_c, 0, 76, 43
2, 17014, Note_on_c, 0, 76, 0
2, 17020, Note_on_c, 0, 77, 71
2, 17041, Control_c, 0, 64, 0
2, 17044, Note_on_c, 0, 62, 22
2, 17047, Note_on_c, 0, 53, 37
2, 17051, Note_on_c, 0, 59, 24
2, 17053, Note_on_c, 0, 77, 66
2, 17066, Control_c, 0, 64, 127
2, 17071, Note_on_c, 0, 59, 0
2, 17072, Note_on_c, 0, 62, 0
2, 17080, Note_on_c, 0, 53, 0
2, 17082, Note_on_c, 0, 77, 0
2, 17113, Note_on_c, 0, 77, 0
2, 17166, Control_c, 0, 64, 0
2, 17167, Note_on_c, 0, 56, 34
2, 17168, Note_on_c, 0, 47, 32
2, 17183, Control_c, 0, 64, 127
2, 17194, Note_on_c, 0, 47, 0
2, 17207, Note_on_c, 0, 56, 0
2, 17240, Note_on_c, 0, 65, 55
2, 17264, Note_on_c, 0, 65, 0
2, 17285, Control_c, 0, 64, 0
2, 17287, Note_on_c, 0, 67, 57
2, 17288, Note_on_c, 0, 48, 31
2, 17293, Note_on_c, 0, 58, 21
2, 17301, Control_c, 0, 64, 127
2, 17305, Note_on_c, 0, 48, 0
2, 17314, Note_on_c, 0, 67, 0
2, 17321, Note_on_c, 0, 58, 0
2, 17366, Note_on_c, 0, 89, 76
2, 17397, Control_c, 0, 64, 0
2, 17407, Note_on_c, 0, 62, 35
2, 17407, Note_on_c, 0, 58, 34
2, 17408, Note_on_c, 0, 67, 29
2, 17411, Note_on_c, 0, 63, 27
2, 17417, Control_c, 0, 64, 127
2, 17448, Note_on_c, 0, 89, 0
2, 17472, Note_on_c, 0, 67, 0
2, 17475, Note_on_c, 0, 62, 0
2, 17480, Note_on_c, 0, 63, 0
2, 17482, Note_on_c, 0, 81, 68
2, 17496, Note_on_c, 0, 58, 0
2, 17517, Control_c, 0, 64, 0
2, 17523, Note_on_c, 0, 67, 32
2, 17525, Note_on_c, 0, 63, 35
2, 17528, Note_on_c, 0, 57, 25
2, 17538, Note_on_c, 0, 67, 0
2, 17538, Control_c, 0, 64, 127
2, 17541, Note_on_c, 0, 57, 0
2, 17546, Note_on_c, 0, 63, 0
2, 17599, Note_on_c, 0, 77, 71
2, 17600, Note_on_c, 0, 81, 0
2, 17637, Control_c, 0, 64, 0
2, 17640, Note_on_c, 0, 41, 43
2, 17641, Note_on_c, 0, 53, 38
2, 17648, Note_on_c, 0, 41, 0
2, 17653, Control_c, 0, 64, 127
2, 17656, Note_on_c, 0, 53, 0
2, 17699, Note_on_c, 0, 77, 0
2, 17725, Note_on_c, 0, 74, 60
2, 17765, Control_c, 0, 64, 0
2, 17783, Control_c, 0, 64, 127
2, 17828, Note_on_c, 0, 74, 0
2, 17832, Note_on_c, 0, 69, 65
2, 17878, Note_on_c, 0, 69, 0
2, 17891, Note_on_c, 0, 69, 67
2, 17892, Note_on_c, 0, 77, 68
2, 17893, Note_on_c, 0, 81, 65
2, 17894, Control_c, 0, 64, 0
2, 17895, Note_on_c, 0, 50, 33
2, 17895, Note_on_c, 0, 60, 33
2, 17896, Note_on_c, 0, 57, 35
2, 17915, Control_c, 0, 64, 127
2, 17934, Note_on_c, 0, 81, 0
2, 17946, Note_on_c, 0, 60, 0
2, 17950, Note_on_c, 0, 57, 0
2, 17952, Note_on_c, 0, 69, 0
2, 17953, Note_on_c, 0, 77, 0
2, 17954, Note_on_c, 0, 50, 0
2, 17957, Note_on_c, 0, 81, 67
2, 17958, Note_on_c, 0, 69, 29
2, 17986, Note_on_c, 0, 81, 0
2, 17987, Note_on_c, 0, 69, 0
2, 17994, Control_c, 0, 64, 0
2, 18008, Note_on_c, 0, 49, 29
2, 18008, Note_on_c, 0, 81, 48
2, 18010, Note_on_c, 0, 69, 37
2, 18012, Note_on_c, 0, 57, 25
2, 18012, Note_on_c, 0, 76, 45
2, 18013, Note_on_c, 0, 73, 18
2, 18013, Control_c, 0, 64, 127
2, 18059, Note_on_c, 0, 81, 0
2, 18060, Note_on_c, 0, 57, 0
2, 18061, Note_on_c, 0, 76, 0
2, 18066, Note_on_c, 0, 73, 0
2, 18070, Note_on_c, 0, 69, 0
2, 18129, Note_on_c, 0, 57, 37
2, 18131, Note_on_c, 0, 64, 33
2, 18131, Note_on_c, 0, 61, 19
2, 18132, Note_on_c, 0, 65, 27
2, 18139, Note_on_c, 0, 65, 0
2, 18172, Note_on_c, 0, 61, 0
2, 18175, Note_on_c, 0, 49, 0
2, 18176, Note_on_c, 0, 64, 0
2, 18177, Note_on_c, 0, 57, 0
2, 18193, Note_on_c, 0, 49, 47
2, 18197, Note_on_c, 0, 57, 22
2, 18217, Note_on_c, 0, 57, 0
2, 18239, Note_on_c, 0, 49, 0
2, 18247, Control_c, 0, 64, 0
2, 18248, Note_on_c, 0, 57, 38
2, 18248, Note_on_c, 0, 48, 36
2, 18249, Note_on_c, 0, 69, 52
2, 18250, Note_on_c, 0, 62, 49
2, 18250, Note_on_c, 0, 65, 51
2, 18250, Note_on_c, 0, 60, 44
2, 18275, Control_c, 0, 64, 127
2, 18298, Note_on_c, 0, 60, 0
2, 18311, Note_on_c, 0, 57, 0
2, 18316, Note_on_c, 0, 65, 0
2, 18317, Note_on_c, 0, 62, 0
2, 18363, Note_on_c, 0, 57, 48
2, 18389, Note_on_c, 0, 69, 0
2, 18407, Note_on_c, 0, 57, 0
2, 18414, Note_on_c, 0, 48, 0
2, 18426, Note_on_c, 0, 69, 78
2, 18427, Note_on_c, 0, 65, 74
2, 18428, Note_on_c, 0, 60, 72
2, 18428, Note_on_c, 0, 57, 44
2, 18430, Note_on_c, 0, 48, 52
2, 18442, Note_on_c, 0, 57, 0
2, 18444, Note_on_c, 0, 60, 0
2, 18446, Note_on_c, 0, 65, 0
2, 18449, Note_on_c, 0, 48, 0
2, 18450, Note_on_c, 0, 69, 0
2, 18488, Control_c, 0, 64, 0
2, 18489, Note_on_c, 0, 43, 45
2, 18489, Note_on_c, 0, 65, 81
2, 18489, Note_on_c, 0, 71, 78
2, 18489, Note_on_c, 0, 53, 55
2, 18490, Note_on_c, 0, 59, 74
2, 18519, Control_c, 0, 64, 127
2, 18531, Note_on_c, 0, 53, 0
2, 18532, Note_on_c, 0, 65, 0
2, 18548, Note_on_c, 0, 63, 44
2, 18550, Note_on_c, 0, 54, 62
2, 18572, Note_on_c, 0, 71, 0
2, 18581, Note_on_c, 0, 54, 0
2, 18587, Note_on_c, 0, 59, 0
2, 18593, Note_on_c, 0, 63, 0
2, 18605, Control_c, 0, 64, 0
2, 18606, Note_on_c, 0, 59, 34
2, 18607, Note_on_c, 0, 62, 55
2, 18609, Note_on_c, 0, 53, 47
2, 18624, Note_on_c, 0, 43, 0
2, 18628, Control_c, 0, 64, 127
2, 18645, Note_on_c, 0, 62, 0
2, 18652, Note_on_c, 0, 59, 0
2, 18657, Note_on_c, 0, 53, 0
2, 18660, Note_on_c, 0, 43, 50
2, 18698, Note_on_c, 0, 43, 0
2, 18712, Note_on_c, 0, 62, 80
2, 18712, Note_on_c, 0, 58, 74
2, 18713, Note_on_c, 0, 53, 73
2, 18715, Note_on_c, 0, 48, 51
2, 18715, Control_c, 0, 64, 0
2, 18751, Control_c, 0, 64, 127
2, 18762, Note_on_c, 0, 62, 0
2, 18785, Note_on_c, 0, 62, 72
2, 18802, Note_on_c, 0, 62, 0
2, 18815, Note_on_c, 0, 58, 0
2, 18831, Note_on_c, 0, 53, 0
2, 18843, Note_on_c, 0, 60, 63
2, 18874, Note_on_c, 0, 48, 0
2, 18882, Note_on_c, 0, 60, 0
2, 18902, Note_on_c, 0, 58, 60
2, 18936, Note_on_c, 0, 58, 0
2, 18957, Note_on_c, 0, 30, 34
2, 18958, Note_on_c, 0, 58, 46
2, 18959, Note_on_c, 0, 62, 61
2, 18960, Control_c, 0, 64, 0
2, 18961, Note_on_c, 0, 52, 33
2, 18964, Note_on_c, 0, 42, 26
2, 19004, Control_c, 0, 64, 127
2, 19045, Note_on_c, 0, 30, 0
2, 19082, Note_on_c, 0, 30, 37
2, 19110, Note_on_c, 0, 30, 0
2, 19122, Note_on_c, 0, 42, 0
2, 19131, Note_on_c, 0, 52, 0
2, 19162, Note_on_c, 0, 58, 0
2, 19172, Note_on_c, 0, 62, 0
2, 19200, Note_on_c, 0, 52, 50
2, 19204, Note_on_c, 0, 62, 53
2, 19205, Control_c, 0, 64, 0
2, 19206, Note_on_c, 0, 58, 38
2, 19206, Note_on_c, 0, 42, 42
2, 19225, Control_c, 0, 64, 127
2, 19242, Note_on_c, 0, 58, 0
2, 19242, Note_on_c, 0, 62, 0
2, 19255, Note_on_c, 0, 42, 0
2, 19256, Note_on_c, 0, 52, 44
2, 19267, Note_on_c, 0, 52, 0
2, 19294, Note_on_c, 0, 58, 52
2, 19320, Note_on_c, 0, 52, 0
2, 19333, Note_on_c, 0, 74, 66
2, 19334, Note_on_c, 0, 68, 56
2, 19334, Note_on_c, 0, 60, 59
2, 19335, Note_on_c, 0, 64, 52
2, 19335, Note_on_c, 0, 70, 57
2, 19362, Note_on_c, 0, 70, 0
2, 19367, Note_on_c, 0, 64, 0
2, 19368, Note_on_c, 0, 74, 0
2, 19372, Note_on_c, 0, 72, 46
2, 19375, Note_on_c, 0, 60, 0
2, 19377, Note_on_c, 0, 68, 0
2, 19400, Note_on_c, 0, 72, 0
2, 19402, Note_on_c, 0, 70, 67
2, 19425, Note_on_c, 0, 58, 0
2, 19426, Note_on_c, 0, 70, 0
2, 19442, Note_on_c, 0, 72, 45
2, 19445, Control_c, 0, 64, 0
2, 19445, Note_on_c, 0, 63, 40
2, 19448, Note_on_c, 0, 69, 48
2, 19453, Note_on_c, 0, 53, 29
2, 19464, Note_on_c, 0, 60, 6
2, 19468, Control_c, 0, 64, 127
2, 19490, Note_on_c, 0, 63, 0
2, 19504, Note_on_c, 0, 69, 0
2, 19506, Note_on_c, 0, 72, 0
2, 19557, Note_on_c, 0, 63, 32
2, 19579, Note_on_c, 0, 63, 0
2, 19587, Note_on_c, 0, 60, 0
2, 19589, Note_on_c, 0, 53, 0
2, 19595, Note_on_c, 0, 77, 54
2, 19623, Note_on_c, 0, 77, 0
2, 19632, Note_on_c, 0, 79, 62
2, 19652, Note_on_c, 0, 79, 0
2, 19674, Control_c, 0, 64, 0
2, 19675, Note_on_c, 0, 48, 35
2, 19675, Note_on_c, 0, 82, 46
2, 19676, Note_on_c, 0, 70, 45
2, 19678, Note_on_c, 0, 75, 43
2, 19678, Note_on_c, 0, 58, 31
2, 19680, Note_on_c, 0, 79, 35
2, 19698, Control_c, 0, 64, 127
2, 19719, Note_on_c, 0, 79, 0
2, 19724, Note_on_c, 0, 82, 0
2, 19731, Note_on_c, 0, 75, 0
2, 19736, Note_on_c, 0, 70, 0
2, 19748, Note_on_c, 0, 48, 0
2, 19800, Note_on_c, 0, 48, 36
2, 19820, Note_on_c, 0, 58, 0
2, 19902, Note_on_c, 0, 48, 0
2, 19904, Note_on_c, 0, 51, 25
2, 19911, Note_on_c, 0, 54, 28
2, 19925, Note_on_c, 0, 61, 36
2, 19927, Note_on_c, 0, 68, 35
2, 19928, Note_on_c, 0, 63, 34
2, 19929, Note_on_c, 0, 57, 31
2, 19930, Note_on_c, 0, 51, 0
2, 19931, Note_on_c, 0, 56, 26
2, 19934, Control_c, 0, 64, 0
2, 19940, Note_on_c, 0, 54, 0
2, 19980, Control_c, 0, 64, 127
2, 19991, Note_on_c, 0, 57, 0
2, 19998, Note_on_c, 0, 63, 0
2, 19999, Note_on_c, 0, 61, 0
2, 20003, Note_on_c, 0, 56, 0
2, 20005, Note_on_c, 0, 68, 0
2, 20005, Note_on_c, 0, 54, 36
2, 20039, Note_on_c, 0, 54, 0
2, 20044, Control_c, 0, 64, 0
2, 20047, Note_on_c, 0, 63, 40
2, 20048, Note_on_c, 0, 56, 36
2, 20048, Note_on_c, 0, 68, 36
2, 20049, Note_on_c, 0, 61, 29
2, 20072, Control_c, 0, 64, 127
2, 20096, Note_on_c, 0, 56, 0
2, 20101, Note_on_c, 0, 68, 0
2, 20108, Note_on_c, 0, 63, 0
2, 20112, Note_on_c, 0, 61, 0
2, 20125, Note_on_c, 0, 65, 46
2, 20126, Note_on_c, 0, 57, 33
2, 20127, Note_on_c, 0, 62, 35
2, 20128, Note_on_c, 0, 46, 26
2, 20129, Note_on_c, 0, 53, 30
2, 20133, Control_c, 0, 64, 0
2, 20161, Control_c, 0, 64, 127
2, 20163, Note_on_c, 0, 57, 0
2, 20170, Note_on_c, 0, 65, 0
2, 20175, Note_on_c, 0, 62, 0
2, 20193, Note_on_c, 0, 46, 0
2, 20243, Control_c, 0, 64, 0
2, 20245, Note_on_c, 0, 65, 72
2, 20246, Note_on_c, 0, 53, 0
2, 20246, Note_on_c, 0, 72, 55
2, 20246, Note_on_c, 0, 57, 58
2, 20246, Note_on_c, 0, 51, 48
2, 20246, Note_on_c, 0, 61, 72
2, 20248, Note_on_c, 0, 69, 49
2, 20267, Note_on_c, 0, 69, 0
2, 20269, Control_c, 0, 64, 127
2, 20271, Note_on_c, 0, 72, 0
2, 20274, Note_on_c, 0, 65, 0
2, 20277, Note_on_c, 0, 61, 0
2, 20284, Note_on_c, 0, 57, 0
2, 20294, Note_on_c, 0, 51, 0
2, 20294, Control_c, 0, 64, 0
2, 20304, Note_on_c, 0, 50, 49
2, 20305, Note_on_c, 0, 69, 62
2, 20305, Note_on_c, 0, 65, 53
2, 20306, Note_on_c, 0, 60, 53
2, 20323, Control_c, 0, 64, 127
2, 20362, Note_on_c, 0, 50, 0
2, 20383, Note_on_c, 0, 65, 0
2, 20388, Note_on_c, 0, 60, 0
2, 20414, Note_on_c, 0, 65, 50
2, 20416, Note_on_c, 0, 60, 38
2, 20449, Note_on_c, 0, 69, 0
2, 20457, Note_on_c, 0, 65, 0
2, 20470, Note_on_c, 0, 60, 0
2, 20529, Control_c, 0, 64, 0
2, 20529, Note_on_c, 0, 68, 31
2, 20529, Note_on_c, 0, 64, 35
2, 20530, Note_on_c, 0, 43, 33
2, 20530, Note_on_c, 0, 59, 26
2, 20563, Note_on_c, 0, 59, 0
2, 20564, Note_on_c, 0, 64, 0
2, 20569, Note_on_c, 0, 68, 0
2, 20570, Note_on_c, 0, 43, 0
2, 20578, Note_on_c, 0, 74, 54
2, 20588, Note_on_c, 0, 74, 0
2, 20610, Note_on_c, 0, 75, 54
2, 20630, Note_on_c, 0, 75, 0
2, 20649, Note_on_c, 0, 48, 42
2, 20652, Note_on_c, 0, 77, 57
2, 20666, Control_c, 0, 64, 127
2, 20690, Note_on_c, 0, 48, 0
2, 20758, Note_on_c, 0, 70, 34
2, 20758, Note_on_c, 0, 65, 40
2, 20759, Note_on_c, 0, 62, 37
2, 20815, Note_on_c, 0, 62, 0
2, 20820, Note_on_c, 0, 65, 0
2, 20840, Note_on_c, 0, 70, 0
2, 20862, Note_on_c, 0, 77, 0
2, 20876, Note_on_c, 0, 68, 35
2, 20876, Note_on_c, 0, 71, 43
2, 20878, Control_c, 0, 64, 0
2, 20881, Note_on_c, 0, 59, 31
2, 20886, Note_on_c, 0, 62, 16
2, 20905, Control_c, 0, 64, 127
2, 20910, Note_on_c, 0, 62, 0
2, 20914, Note_on_c, 0, 59, 0
2, 20929, Note_on_c, 0, 68, 0
2, 20935, Note_on_c, 0, 71, 0
2, 20958, Note_on_c, 0, 77, 92
2, 20988, Note_on_c, 0, 77, 0
2, 21001, Note_on_c, 0, 77, 71
2, 21003, Note_on_c, 0, 71, 66
2, 21004, Note_on_c, 0, 65, 58
2, 21005, Note_on_c, 0, 56, 35
2, 21005, Control_c, 0, 64, 0
2, 21006, Note_on_c, 0, 47, 30
2, 21027, Note_on_c, 0, 65, 0
2, 21033, Control_c, 0, 64, 127
2, 21036, Note_on_c, 0, 71, 0
2, 21037, Note_on_c, 0, 77, 0
2, 21041, Note_on_c, 0, 76, 37
2, 21055, Note_on_c, 0, 47, 0
2, 21060, Note_on_c, 0, 76, 0
2, 21075, Note_on_c, 0, 56, 0
2, 21079, Note_on_c, 0, 77, 67
2, 21111, Control_c, 0, 64, 0
2, 21118, Note_on_c, 0, 48, 38
2, 21121, Note_on_c, 0, 58, 23
2, 21131, Control_c, 0, 64, 127
2, 21142, Note_on_c, 0, 48, 0
2, 21157, Note_on_c, 0, 58, 0
2, 21248, Note_on_c, 0, 77, 0
2, 21252, Note_on_c, 0, 67, 20
2, 21254, Note_on_c, 0, 62, 33
2, 21255, Note_on_c, 0, 63, 23
2, 21257, Note_on_c, 0, 58, 25
2, 21315, Note_on_c, 0, 62, 0
2, 21315, Note_on_c, 0, 67, 0
2, 21319, Note_on_c, 0, 63, 0
2, 21324, Note_on_c, 0, 77, 91
2, 21342, Note_on_c, 0, 58, 0
2, 21362, Note_on_c, 0, 77, 0
2, 21369, Control_c, 0, 64, 0
2, 21372, Note_on_c, 0, 63, 36
2, 21372, Note_on_c, 0, 79, 75
2, 21374, Note_on_c, 0, 67, 34
2, 21374, Note_on_c, 0, 57, 35
2, 21386, Control_c, 0, 64, 127
2, 21398, Note_on_c, 0, 67, 0
2, 21403, Note_on_c, 0, 63, 0
2, 21405, Note_on_c, 0, 57, 0
2, 21415, Note_on_c, 0, 79, 0
2, 21491, Note_on_c, 0, 69, 73
2, 21491, Note_on_c, 0, 57, 46
2, 21492, Note_on_c, 0, 61, 59
2, 21492, Note_on_c, 0, 65, 70
2, 21493, Control_c, 0, 64, 0
2, 21521, Control_c, 0, 64, 127
2, 21531, Note_on_c, 0, 69, 0
2, 21536, Note_on_c, 0, 70, 80
2, 21562, Note_on_c, 0, 57, 0
2, 21566, Note_on_c, 0, 65, 0
2, 21575, Note_on_c, 0, 61, 0
2, 21589, Note_on_c, 0, 70, 0
2, 21610, Note_on_c, 0, 65, 46
2, 21612, Control_c, 0, 64, 0
2, 21612, Note_on_c, 0, 60, 29
2, 21614, Note_on_c, 0, 57, 34
2, 21616, Note_on_c, 0, 50, 28
2, 21640, Control_c, 0, 64, 127
2, 21675, Note_on_c, 0, 60, 0
2, 21680, Note_on_c, 0, 65, 0
2, 21692, Note_on_c, 0, 57, 0
2, 21725, Note_on_c, 0, 60, 34
2, 21727, Note_on_c, 0, 57, 33
2, 21785, Note_on_c, 0, 60, 0
2, 21789, Note_on_c, 0, 57, 0
2, 21796, Note_on_c, 0, 50, 0
2, 21845, Note_on_c, 0, 69, 67
2, 21848, Note_on_c, 0, 49, 33
2, 21849, Note_on_c, 0, 64, 41
2, 21850, Note_on_c, 0, 57, 26
2, 21851, Control_c, 0, 64, 0
2, 21882, Control_c, 0, 64, 127
2, 21909, Note_on_c, 0, 64, 0
2, 21909, Note_on_c, 0, 61, 51
2, 21910, Note_on_c, 0, 57, 0
2, 21942, Note_on_c, 0, 61, 0
2, 21967, Note_on_c, 0, 69, 0
2, 21969, Note_on_c, 0, 61, 46
2, 21970, Note_on_c, 0, 57, 25
2, 22003, Note_on_c, 0, 49, 0
2, 22016, Note_on_c, 0, 61, 0
2, 22025, Note_on_c, 0, 49, 33
2, 22026, Note_on_c, 0, 69, 61
2, 22042, Note_on_c, 0, 57, 0
2, 22051, Note_on_c, 0, 69, 0
2, 22052, Note_on_c, 0, 49, 0
2, 22082, Control_c, 0, 64, 0
2, 22088, Note_on_c, 0, 69, 49
2, 22089, Note_on_c, 0, 65, 36
2, 22089, Note_on_c, 0, 48, 30
2, 22090, Note_on_c, 0, 57, 29
2, 22092, Note_on_c, 0, 60, 24
2, 22100, Control_c, 0, 64, 127
2, 22123, Note_on_c, 0, 60, 0
2, 22129, Note_on_c, 0, 48, 0
2, 22135, Note_on_c, 0, 57, 0
2, 22137, Note_on_c, 0, 65, 0
2, 22141, Note_on_c, 0, 69, 0
2, 22266, Note_on_c, 0, 65, 45
2, 22266, Note_on_c, 0, 94, 77
2, 22267, Note_on_c, 0, 87, 68
2, 22267, Note_on_c, 0, 80, 53
2, 22267, Note_on_c, 0, 54, 31
2, 22269, Note_on_c, 0, 60, 40
2, 22270, Control_c, 0, 64, 0
2, 22271, Note_on_c, 0, 58, 34
2, 22283, Control_c, 0, 64, 127
2, 22291, Note_on_c, 0, 60, 0
2, 22295, Note_on_c, 0, 65, 0
2, 22296, Note_on_c, 0, 94, 0
2, 22297, Note_on_c, 0, 80, 0
2, 22302, Note_on_c, 0, 87, 0
2, 22313, Note_on_c, 0, 54, 0
2, 22315, Note_on_c, 0, 58, 0
2, 22330, Note_on_c, 0, 93, 48
2, 22332, Note_on_c, 0, 53, 31
2, 22333, Note_on_c, 0, 86, 57
2, 22333, Note_on_c, 0, 79, 24
2, 22334, Control_c, 0, 64, 0
2, 22335, Note_on_c, 0, 59, 33
2, 22336, Note_on_c, 0, 64, 19
2, 22352, Note_on_c, 0, 81, 1
2, 22357, Control_c, 0, 64, 127
2, 22363, Note_on_c, 0, 64, 0
2, 22363, Note_on_c, 0, 59, 0
2, 22371, Note_on_c, 0, 53, 0
2, 22414, Note_on_c, 0, 79, 0
2, 22415, Note_on_c, 0, 93, 0
2, 22415, Note_on_c, 0, 81, 0
2, 22425, Note_on_c, 0, 86, 0
2, 22445, Note_on_c, 0, 92, 39
2, 22446, Control_c, 0, 64, 0
2, 22447, Note_on_c, 0, 53, 38
2, 22447, Note_on_c, 0, 43, 36
2, 22447, Note_on_c, 0, 80, 27
2, 22450, Note_on_c, 0, 86, 41
2, 22460, Note_on_c, 0, 43, 0
2, 22462, Control_c, 0, 64, 127
2, 22473, Note_on_c, 0, 53, 0
2, 22479, Note_on_c, 0, 86, 0
2, 22490, Note_on_c, 0, 80, 0
2, 22491, Note_on_c, 0, 92, 0
2, 22563, Note_on_c, 0, 91, 40
2, 22565, Control_c, 0, 64, 0
2, 22565, Note_on_c, 0, 79, 28
2, 22566, Note_on_c, 0, 77, 33
2, 22566, Note_on_c, 0, 86, 39
2, 22566, Note_on_c, 0, 58, 36
2, 22567, Note_on_c, 0, 62, 33
2, 22569, Note_on_c, 0, 57, 29
2, 22586, Control_c, 0, 64, 127
2, 22602, Note_on_c, 0, 86, 0
2, 22602, Note_on_c, 0, 91, 0
2, 22616, Note_on_c, 0, 79, 0
2, 22623, Note_on_c, 0, 77, 0
2, 22634, Note_on_c, 0, 62, 0
2, 22636, Note_on_c, 0, 58, 0
2, 22644, Note_on_c, 0, 57, 0
2, 22680, Note_on_c, 0, 62, 41
2, 22682, Note_on_c, 0, 58, 35
2, 22684, Note_on_c, 0, 57, 28
2, 22731, Note_on_c, 0, 57, 0
2, 22752, Note_on_c, 0, 72, 54
2, 22753, Note_on_c, 0, 62, 0
2, 22756, Note_on_c, 0, 58, 0
2, 22760, Note_on_c, 0, 74, 30
2, 22767, Note_on_c, 0, 74, 0
2, 22779, Note_on_c, 0, 70, 62
2, 22782, Note_on_c, 0, 72, 0
2, 22800, Note_on_c, 0, 70, 0
2, 22804, Control_c, 0, 64, 0
2, 22807, Note_on_c, 0, 74, 54
2, 22807, Note_on_c, 0, 58, 43
2, 22807, Note_on_c, 0, 64, 36
2, 22833, Control_c, 0, 64, 127
2, 22840, Note_on_c, 0, 64, 0
2, 22848, Note_on_c, 0, 58, 0
2, 22920, Note_on_c, 0, 66, 33
2, 22921, Note_on_c, 0, 62, 33
2, 22926, Note_on_c, 0, 58, 18
2, 22927, Control_c, 0, 64, 0
2, 22927, Note_on_c, 0, 48, 17
2, 22940, Control_c, 0, 64, 127
2, 22953, Note_on_c, 0, 48, 0
2, 22964, Note_on_c, 0, 62, 0
2, 22967, Note_on_c, 0, 74, 0
2, 22972, Note_on_c, 0, 58, 0
2, 22974, Note_on_c, 0, 66, 0
2, 22980, Note_on_c, 0, 74, 64
2, 23005, Note_on_c, 0, 74, 0
2, 23038, Note_on_c, 0, 74, 66
2, 23039, Note_on_c, 0, 68, 54
2, 23039, Note_on_c, 0, 54, 27
2, 23040, Note_on_c, 0, 64, 44
2, 23044, Control_c, 0, 64, 0
2, 23083, Control_c, 0, 64, 127
2, 23100, Note_on_c, 0, 58, 55
2, 23124, Note_on_c, 0, 64, 0
2, 23127, Note_on_c, 0, 68, 0
2, 23155, Note_on_c, 0, 74, 0
2, 23158, Note_on_c, 0, 68, 48
2, 23161, Note_on_c, 0, 64, 50
2, 23206, Note_on_c, 0, 72, 66
2, 23212, Note_on_c, 0, 68, 0
2, 23219, Note_on_c, 0, 64, 0
2, 23239, Note_on_c, 0, 72, 0
2, 23239, Note_on_c, 0, 70, 67
2, 23251, Note_on_c, 0, 54, 0
2, 23263, Note_on_c, 0, 58, 0
2, 23266, Note_on_c, 0, 70, 0
2, 23279, Note_on_c, 0, 74, 49
2, 23281, Note_on_c, 0, 66, 60
2, 23281, Note_on_c, 0, 63, 46
2, 23282, Note_on_c, 0, 53, 31
2, 23282, Control_c, 0, 64, 0
2, 23285, Note_on_c, 0, 60, 40
2, 23310, Control_c, 0, 64, 127
2, 23327, Note_on_c, 0, 60, 0
2, 23328, Note_on_c, 0, 53, 0
2, 23348, Note_on_c, 0, 63, 0
2, 23359, Note_on_c, 0, 66, 0
2, 23379, Note_on_c, 0, 74, 0
2, 23400, Note_on_c, 0, 69, 52
2, 23400, Note_on_c, 0, 63, 33
2, 23401, Note_on_c, 0, 51, 33
2, 23402, Note_on_c, 0, 57, 26
2, 23402, Control_c, 0, 64, 0
2, 23402, Note_on_c, 0, 66, 30
2, 23427, Control_c, 0, 64, 127
2, 23447, Note_on_c, 0, 57, 0
2, 23448, Note_on_c, 0, 69, 0
2, 23453, Note_on_c, 0, 63, 0
2, 23460, Note_on_c, 0, 51, 0
2, 23464, Note_on_c, 0, 66, 0
2, 23516, Note_on_c, 0, 50, 1
2, 23521, Note_on_c, 0, 57, 33
2, 23522, Note_on_c, 0, 67, 48
2, 23522, Control_c, 0, 64, 0
2, 23523, Note_on_c, 0, 53, 29
2, 23523, Note_on_c, 0, 60, 30
2, 23524, Note_on_c, 0, 55, 44
2, 23525, Note_on_c, 0, 64, 38
2, 23532, Note_on_c, 0, 55, 0
2, 23535, Note_on_c, 0, 60, 0
2, 23536, Note_on_c, 0, 64, 0
2, 23540, Note_on_c, 0, 57, 0
2, 23541, Note_on_c, 0, 67, 0
2, 23544, Note_on_c, 0, 53, 0
2, 23549, Note_on_c, 0, 50, 0
2, 23584, Note_on_c, 0, 67, 39
2, 23586, Note_on_c, 0, 50, 30
2, 23586, Note_on_c, 0, 60, 28
2, 23587, Note_on_c, 0, 57, 26
2, 23587, Note_on_c, 0, 64, 39
2, 23588, Note_on_c, 0, 53, 26
2, 23591, Note_on_c, 0, 55, 32
2, 23597, Note_on_c, 0, 55, 0
2, 23600, Note_on_c, 0, 60, 0
2, 23601, Note_on_c, 0, 64, 0
2, 23602, Note_on_c, 0, 57, 0
2, 23604, Note_on_c, 0, 53, 0
2, 23605, Note_on_c, 0, 67, 0
2, 23607, Note_on_c, 0, 50, 0
2, 23647, Note_on_c, 0, 67, 35
2, 23649, Note_on_c, 0, 50, 25
2, 23649, Note_on_c, 0, 64, 35
2, 23649, Note_on_c, 0, 57, 22
2, 23650, Note_on_c, 0, 60, 26
2, 23651, Note_on_c, 0, 55, 41
2, 23651, Note_on_c, 0, 53, 30
2, 23668, Control_c, 0, 64, 127
2, 23707, Note_on_c, 0, 60, 0
2, 23708, Note_on_c, 0, 55, 0
2, 23710, Note_on_c, 0, 50, 0
2, 23712, Note_on_c, 0, 57, 0
2, 23712, Note_on_c, 0, 64, 0
2, 23714, Note_on_c, 0, 53, 0
2, 23715, Note_on_c, 0, 67, 0
2, 23763, Note_on_c, 0, 79, 76
2, 23764, Note_on_c, 0, 64, 70
2, 23765, Note_on_c, 0, 73, 71
2, 23766, Note_on_c, 0, 70, 79
2, 23773, Control_c, 0, 64, 0
2, 23792, Control_c, 0, 64, 127
2, 23807, Note_on_c, 0, 79, 0
2, 23812, Note_on_c, 0, 64, 0
2, 23818, Note_on_c, 0, 70, 0
2, 23821, Note_on_c, 0, 73, 0
2, 23824, Note_on_c, 0, 79, 76
2, 23828, Note_on_c, 0, 70, 48
2, 23828, Note_on_c, 0, 64, 53
2, 23831, Note_on_c, 0, 73, 23
2, 23838, Note_on_c, 0, 73, 0
2, 23842, Note_on_c, 0, 79, 0
2, 23846, Note_on_c, 0, 70, 0
2, 23877, Note_on_c, 0, 64, 0
2, 23883, Control_c, 0, 64, 0
2, 23883, Note_on_c, 0, 76, 65
2, 23885, Note_on_c, 0, 70, 49
2, 23886, Note_on_c, 0, 61, 39
2, 23887, Note_on_c, 0, 67, 34
2, 23898, Control_c, 0, 64, 127
2, 23925, Note_on_c, 0, 61, 0
2, 23930, Note_on_c, 0, 76, 0
2, 23932, Note_on_c, 0, 67, 0
2, 23940, Note_on_c, 0, 70, 0
2, 23996, Note_on_c, 0, 48, 39
2, 23996, Note_on_c, 0, 74, 70
2, 24000, Control_c, 0, 64, 0
2, 24000, Note_on_c, 0, 67, 48
2, 24001, Note_on_c, 0, 63, 29
2, 24002, Note_on_c, 0, 58, 32
2, 24022, Control_c, 0, 64, 127
2, 24040, Note_on_c, 0, 74, 0
2, 24052, Note_on_c, 0, 63, 0
2, 24059, Note_on_c, 0, 74, 67
2, 24066, Note_on_c, 0, 58, 0
2, 24075, Note_on_c, 0, 67, 0
2, 24100, Note_on_c, 0, 74, 0
2, 24118, Note_on_c, 0, 72, 37
2, 24120, Note_on_c, 0, 67, 42
2, 24120, Note_on_c, 0, 63, 25
2, 24120, Control_c, 0, 64, 0
2, 24122, Note_on_c, 0, 58, 25
2, 24129, Control_c, 0, 64, 127
2, 24148, Note_on_c, 0, 48, 0
2, 24151, Note_on_c, 0, 58, 0
2, 24168, Note_on_c, 0, 72, 0
2, 24170, Note_on_c, 0, 67, 0
2, 24175, Note_on_c, 0, 48, 42
2, 24189, Note_on_c, 0, 63, 0
2, 24191, Note_on_c, 0, 48, 0
2, 24241, Note_on_c, 0, 62, 62
2, 24241, Note_on_c, 0, 59, 62
2, 24241, Note_on_c, 0, 43, 32
2, 24243, Note_on_c, 0, 53, 38
2, 24243, Control_c, 0, 64, 0
2, 24292, Control_c, 0, 64, 127
2, 24298, Note_on_c, 0, 59, 0
2, 24300, Note_on_c, 0, 68, 71
2, 24302, Note_on_c, 0, 53, 0
2, 24335, Note_on_c, 0, 62, 0
2, 24345, Note_on_c, 0, 68, 0
2, 24357, Control_c, 0, 64, 0
2, 24357, Note_on_c, 0, 53, 41
2, 24357, Note_on_c, 0, 62, 56
2, 24358, Note_on_c, 0, 67, 64
2, 24359, Note_on_c, 0, 59, 54
2, 24378, Control_c, 0, 64, 127
2, 24384, Note_on_c, 0, 43, 0
2, 24418, Note_on_c, 0, 43, 51
2, 24419, Note_on_c, 0, 67, 0
2, 24423, Note_on_c, 0, 53, 0
2, 24425, Note_on_c, 0, 62, 0
2, 24430, Note_on_c, 0, 59, 0
2, 24433, Note_on_c, 0, 43, 0
2, 24477, Control_c, 0, 64, 0
2, 24480, Note_on_c, 0, 65, 73
2, 24480, Note_on_c, 0, 58, 74
2, 24481, Note_on_c, 0, 36, 54
2, 24483, Note_on_c, 0, 48, 49
2, 24483, Note_on_c, 0, 55, 72
2, 24486, Note_on_c, 0, 62, 33
2, 24498, Note_on_c, 0, 36, 0
2, 24498, Control_c, 0, 64, 127
2, 24512, Note_on_c, 0, 48, 0
2, 24523, Note_on_c, 0, 65, 0
2, 24524, Note_on_c, 0, 55, 0
2, 24527, Note_on_c, 0, 62, 0
2, 24534, Note_on_c, 0, 58, 0
2, 24542, Note_on_c, 0, 65, 73
2, 24547, Note_on_c, 0, 58, 28
2, 24554, Note_on_c, 0, 58, 0
2, 24581, Note_on_c, 0, 65, 0
2, 24598, Note_on_c, 0, 63, 79
2, 24599, Note_on_c, 0, 58, 75
2, 24600, Note_on_c, 0, 55, 70
2, 24602, Note_on_c, 0, 48, 32
2, 24604, Control_c, 0, 64, 0
2, 24617, Control_c, 0, 64, 127
2, 24635, Note_on_c, 0, 48, 0
2, 24661, Note_on_c, 0, 55, 0
2, 24690, Note_on_c, 0, 58, 0
2, 24707, Note_on_c, 0, 63, 0
2, 24716, Control_c, 0, 64, 0
2, 24718, Note_on_c, 0, 62, 66
2, 24718, Note_on_c, 0, 56, 32
2, 24720, Note_on_c, 0, 59, 53
2, 24721, Note_on_c, 0, 53, 29
2, 24721, Note_on_c, 0, 47, 39
2, 24758, Control_c, 0, 64, 127
2, 24786, Note_on_c, 0, 59, 0
2, 24792, Note_on_c, 0, 53, 0
2, 24804, Note_on_c, 0, 56, 0
2, 24832, Note_on_c, 0, 62, 0
2, 24842, Note_on_c, 0, 53, 34
2, 24843, Note_on_c, 0, 59, 41
2, 24874, Note_on_c, 0, 59, 0
2, 24879, Note_on_c, 0, 47, 0
2, 24882, Note_on_c, 0, 62, 76
2, 24889, Note_on_c, 0, 53, 0
2, 24921, Note_on_c, 0, 63, 63
2, 24930, Note_on_c, 0, 62, 0
2, 24937, Note_on_c, 0, 64, 70
2, 24938, Note_on_c, 0, 63, 0
2, 24949, Note_on_c, 0, 64, 0
2, 24956, Note_on_c, 0, 65, 80
2, 24961, Note_on_c, 0, 48, 36
2, 24962, Control_c, 0, 64, 0
2, 24962, Note_on_c, 0, 58, 43
2, 24988, Control_c, 0, 64, 127
2, 24993, Note_on_c, 0, 58, 0
2, 25080, Note_on_c, 0, 58, 36
2, 25082, Note_on_c, 0, 65, 0
2, 25115, Note_on_c, 0, 48, 0
2, 25121, Note_on_c, 0, 58, 0
2, 25143, Note_on_c, 0, 65, 47
2, 25184, Note_on_c, 0, 65, 0
2, 25197, Note_on_c, 0, 51, 37
2, 25200, Note_on_c, 0, 57, 30
2, 25201, Note_on_c, 0, 67, 40
2, 25202, Control_c, 0, 64, 0
2, 25203, Note_on_c, 0, 60, 19
2, 25228, Control_c, 0, 64, 127
2, 25251, Note_on_c, 0, 51, 0
2, 25253, Note_on_c, 0, 60, 0
2, 25257, Note_on_c, 0, 57, 0
2, 25269, Note_on_c, 0, 67, 0
2, 25361, Note_on_c, 0, 77, 69
2, 25363, Note_on_c, 0, 65, 51
2, 25364, Note_on_c, 0, 72, 46
2, 25364, Note_on_c, 0, 61, 33
2, 25365, Note_on_c, 0, 55, 39
2, 25368, Control_c, 0, 64, 0
2, 25373, Control_c, 0, 64, 127
2, 25381, Note_on_c, 0, 77, 0
2, 25387, Note_on_c, 0, 65, 0
2, 25391, Note_on_c, 0, 61, 0
2, 25391, Note_on_c, 0, 55, 0
2, 25399, Note_on_c, 0, 79, 71
2, 25407, Note_on_c, 0, 72, 0
2, 25417, Note_on_c, 0, 79, 0
2, 25440, Note_on_c, 0, 77, 52
2, 25441, Note_on_c, 0, 81, 61
2, 25443, Note_on_c, 0, 50, 29
2, 25444, Control_c, 0, 64, 0
2, 25444, Note_on_c, 0, 60, 28
2, 25445, Note_on_c, 0, 69, 27
2, 25474, Control_c, 0, 64, 127
2, 25508, Note_on_c, 0, 60, 0
2, 25511, Note_on_c, 0, 57, 42
2, 25552, Note_on_c, 0, 69, 0
2, 25580, Note_on_c, 0, 77, 0
2, 25586, Note_on_c, 0, 69, 14
2, 25602, Note_on_c, 0, 81, 0
2, 25615, Note_on_c, 0, 69, 0
2, 25627, Note_on_c, 0, 81, 73
2, 25630, Note_on_c, 0, 50, 0
2, 25656, Note_on_c, 0, 81, 0
2, 25680, Note_on_c, 0, 57, 0
2, 25683, Note_on_c, 0, 81, 64
2, 25683, Note_on_c, 0, 73, 47
2, 25688, Note_on_c, 0, 61, 32
2, 25688, Control_c, 0, 64, 0
2, 25714, Control_c, 0, 64, 127
2, 25723, Note_on_c, 0, 61, 0
2, 25747, Note_on_c, 0, 64, 59
2, 25790, Note_on_c, 0, 73, 0
2, 25810, Note_on_c, 0, 73, 28
2, 25810, Note_on_c, 0, 69, 53
2, 25852, Note_on_c, 0, 81, 0
2, 25864, Note_on_c, 0, 69, 0
2, 25865, Note_on_c, 0, 64, 0
2, 25867, Note_on_c, 0, 61, 51
2, 25882, Note_on_c, 0, 73, 0
2, 25896, Note_on_c, 0, 61, 0
2, 25923, Note_on_c, 0, 65, 58
2, 25925, Note_on_c, 0, 72, 36
2, 25931, Control_c, 0, 64, 0
2, 25942, Note_on_c, 0, 60, 19
2, 25947, Control_c, 0, 64, 127
2, 25984, Note_on_c, 0, 72, 0
2, 25984, Control_c, 0, 64, 0
2, 25985, Note_on_c, 0, 50, 42
2, 25994, Control_c, 0, 64, 127
2, 25998, Note_on_c, 0, 65, 0
2, 26007, Note_on_c, 0, 60, 0
2, 26011, Note_on_c, 0, 50, 0
2, 26045, Note_on_c, 0, 44, 38
2, 26046, Note_on_c, 0, 54, 31
2, 26048, Note_on_c, 0, 60, 46
2, 26048, Note_on_c, 0, 65, 47
2, 26054, Control_c, 0, 64, 0
2, 26072, Control_c, 0, 64, 127
2, 26084, Note_on_c, 0, 44, 0
2, 26105, Note_on_c, 0, 44, 35
2, 26107, Note_on_c, 0, 65, 0
2, 26124, Note_on_c, 0, 60, 0
2, 26132, Note_on_c, 0, 54, 0
2, 26146, Note_on_c, 0, 44, 0
2, 26165, Control_c, 0, 64, 0
2, 26165, Note_on_c, 0, 63, 37
2, 26167, Note_on_c, 0, 43, 37
2, 26168, Note_on_c, 0, 59, 30
2, 26170, Note_on_c, 0, 53, 27
2, 26189, Control_c, 0, 64, 127
2, 26204, Note_on_c, 0, 43, 0
2, 26226, Note_on_c, 0, 43, 30
2, 26229, Note_on_c, 0, 63, 0
2, 26237, Note_on_c, 0, 53, 0
2, 26240, Note_on_c, 0, 59, 0
2, 26282, Note_on_c, 0, 62, 54
2, 26283, Note_on_c, 0, 56, 27
2, 26283, Note_on_c, 0, 53, 36
2, 26285, Note_on_c, 0, 59, 46
2, 26289, Control_c, 0, 64, 0
2, 26309, Control_c, 0, 64, 127
2, 26311, Note_on_c, 0, 43, 0
2, 26338, Note_on_c, 0, 59, 0
2, 26338, Note_on_c, 0, 56, 0
2, 26339, Note_on_c, 0, 43, 38
2, 26342, Note_on_c, 0, 53, 0
2, 26347, Note_on_c, 0, 62, 0
2, 26366, Note_on_c, 0, 43, 0
2, 26391, Control_c, 0, 64, 0
2, 26396, Note_on_c, 0, 74, 80
2, 26398, Note_on_c, 0, 48, 54
2, 26412, Control_c, 0, 64, 127
2, 26419, Note_on_c, 0, 48, 0
2, 26456, Note_on_c, 0, 48, 45
2, 26501, Note_on_c, 0, 74, 0
2, 26516, Note_on_c, 0, 62, 38
2, 26518, Note_on_c, 0, 65, 46
2, 26520, Note_on_c, 0, 58, 23
2, 26539, Note_on_c, 0, 62, 0
2, 26549, Note_on_c, 0, 65, 0
2, 26567, Note_on_c, 0, 72, 64
2, 26582, Note_on_c, 0, 48, 0
2, 26583, Note_on_c, 0, 58, 0
2, 26596, Note_on_c, 0, 72, 0
2, 26596, Note_on_c, 0, 70, 52
2, 26614, Note_on_c, 0, 70, 0
2, 26635, Note_on_c, 0, 74, 44
2, 26638, Control_c, 0, 64, 0
2, 26639, Note_on_c, 0, 69, 52
2, 26639, Note_on_c, 0, 64, 26
2, 26640, Note_on_c, 0, 48, 24
2, 26644, Note_on_c, 0, 58, 17
2, 26666, Control_c, 0, 64, 127
2, 26702, Note_on_c, 0, 69, 0
2, 26713, Note_on_c, 0, 68, 46
2, 26723, Note_on_c, 0, 58, 0
2, 26753, Note_on_c, 0, 68, 0
2, 26764, Note_on_c, 0, 67, 60
2, 26766, Note_on_c, 0, 58, 29
2, 26767, Control_c, 0, 64, 0
2, 26776, Control_c, 0, 64, 127
2, 26786, Note_on_c, 0, 48, 0
2, 26818, Note_on_c, 0, 48, 49
2, 26819, Note_on_c, 0, 58, 0
2, 26820, Note_on_c, 0, 67, 0
2, 26821, Note_on_c, 0, 64, 0
2, 26832, Note_on_c, 0, 48, 0
2, 26860, Note_on_c, 0, 74, 0
2, 26878, Note_on_c, 0, 74, 63
2, 26879, Note_on_c, 0, 68, 79
2, 26880, Note_on_c, 0, 64, 73
2, 26881, Note_on_c, 0, 54, 57
2, 26887, Control_c, 0, 64, 0
2, 26923, Control_c, 0, 64, 127
2, 26930, Note_on_c, 0, 54, 0
2, 26947, Note_on_c, 0, 54, 51
2, 26984, Note_on_c, 0, 64, 0
2, 26987, Note_on_c, 0, 68, 0
2, 26999, Note_on_c, 0, 74, 0
2, 27005, Note_on_c, 0, 72, 43
2, 27006, Note_on_c, 0, 68, 38
2, 27007, Note_on_c, 0, 64, 42
2, 27047, Note_on_c, 0, 54, 0
2, 27056, Note_on_c, 0, 72, 0
2, 27062, Note_on_c, 0, 64, 0
2, 27062, Note_on_c, 0, 70, 50
2, 27062, Note_on_c, 0, 54, 38
2, 27082, Note_on_c, 0, 68, 0
2, 27085, Note_on_c, 0, 70, 0
2, 27093, Note_on_c, 0, 54, 0
2, 27124, Note_on_c, 0, 74, 61
2, 27128, Note_on_c, 0, 63, 23
2, 27129, Note_on_c, 0, 66, 23
2, 27129, Note_on_c, 0, 53, 24
2, 27129, Note_on_c, 0, 69, 34
2, 27131, Control_c, 0, 64, 0
2, 27131, Note_on_c, 0, 60, 32
2, 27154, Control_c, 0, 64, 127
2, 27184, Note_on_c, 0, 60, 0
2, 27186, Note_on_c, 0, 53, 0
2, 27198, Note_on_c, 0, 69, 0
2, 27205, Note_on_c, 0, 63, 0
2, 27214, Note_on_c, 0, 74, 0
2, 27218, Note_on_c, 0, 66, 0
2, 27280, Note_on_c, 0, 65, 45
2, 27301, Note_on_c, 0, 65, 0
2, 27314, Note_on_c, 0, 67, 56
2, 27320, Note_on_c, 0, 67, 0
2, 27356, Control_c, 0, 64, 0
2, 27358, Note_on_c, 0, 72, 62
2, 27358, Note_on_c, 0, 62, 69
2, 27359, Note_on_c, 0, 65, 66
2, 27360, Note_on_c, 0, 69, 66
2, 27360, Note_on_c, 0, 57, 35
2, 27386, Control_c, 0, 64, 127
2, 27400, Note_on_c, 0, 57, 0
2, 27405, Note_on_c, 0, 65, 0
2, 27407, Note_on_c, 0, 62, 0
2, 27408, Note_on_c, 0, 72, 0
2, 27408, Note_on_c, 0, 69, 0
2, 27421, Control_c, 0, 64, 0
2, 27424, Note_on_c, 0, 62, 40
2, 27424, Note_on_c, 0, 70, 37
2, 27426, Note_on_c, 0, 46, 17
2, 27428, Note_on_c, 0, 65, 33
2, 27429, Note_on_c, 0, 55, 34
2, 27438, Note_on_c, 0, 65, 0
2, 27438, Note_on_c, 0, 62, 0
2, 27440, Note_on_c, 0, 55, 0
2, 27441, Note_on_c, 0, 46, 0
2, 27446, Note_on_c, 0, 70, 0
2, 27483, Note_on_c, 0, 70, 50
2, 27486, Note_on_c, 0, 55, 42
2, 27487, Note_on_c, 0, 46, 25
2, 27488, Note_on_c, 0, 62, 24
2, 27492, Control_c, 0, 64, 127
2, 27547, Note_on_c, 0, 55, 0
2, 27551, Note_on_c, 0, 62, 0
2, 27552, Note_on_c, 0, 46, 0
2, 27576, Note_on_c, 0, 70, 0
2, 27596, Control_c, 0, 64, 0
2, 27598, Note_on_c, 0, 70, 42
2, 27599, Note_on_c, 0, 51, 44
2, 27600, Note_on_c, 0, 67, 30
2, 27600, Note_on_c, 0, 62, 27
2, 27619, Control_c, 0, 64, 127
2, 27645, Note_on_c, 0, 62, 0
2, 27652, Note_on_c, 0, 67, 0
2, 27656, Note_on_c, 0, 70, 0
2, 27663, Note_on_c, 0, 51, 0
2, 27671, Note_on_c, 0, 51, 31
2, 27674, Note_on_c, 0, 59, 15
2, 27722, Note_on_c, 0, 74, 71
2, 27723, Note_on_c, 0, 67, 58
2, 27723, Note_on_c, 0, 71, 64
2, 27725, Note_on_c, 0, 62, 58
2, 27750, Note_on_c, 0, 62, 0
2, 27763, Note_on_c, 0, 67, 0
2, 27772, Note_on_c, 0, 74, 0
2, 27776, Note_on_c, 0, 59, 0
2, 27783, Note_on_c, 0, 79, 70
2, 27783, Note_on_c, 0, 60, 61
2, 27812, Note_on_c, 0, 79, 0
2, 27819, Note_on_c, 0, 71, 0
2, 27835, Note_on_c, 0, 51, 0
2, 27840, Note_on_c, 0, 50, 53
2, 27841, Note_on_c, 0, 77, 54
2, 27841, Control_c, 0, 64, 0
2, 27842, Note_on_c, 0, 72, 46
2, 27843, Note_on_c, 0, 65, 51
2, 27870, Control_c, 0, 64, 127
2, 27900, Note_on_c, 0, 77, 0
2, 27901, Note_on_c, 0, 57, 58
2, 27903, Note_on_c, 0, 72, 0
2, 27905, Note_on_c, 0, 60, 0
2, 27919, Note_on_c, 0, 65, 0
2, 27959, Note_on_c, 0, 71, 76
2, 27961, Note_on_c, 0, 59, 46
2, 27962, Note_on_c, 0, 65, 71
2, 27969, Note_on_c, 0, 57, 0
2, 27983, Note_on_c, 0, 50, 0
2, 28017, Note_on_c, 0, 74, 73
2, 28018, Note_on_c, 0, 50, 58
2, 28019, Note_on_c, 0, 71, 0
2, 28037, Note_on_c, 0, 74, 0
2, 28038, Note_on_c, 0, 50, 0
2, 28041, Note_on_c, 0, 65, 0
2, 28074, Note_on_c, 0, 59, 0
2, 28078, Control_c, 0, 64, 0
2, 28079, Note_on_c, 0, 49, 39
2, 28079, Note_on_c, 0, 75, 46
2, 28081, Note_on_c, 0, 68, 36
2, 28082, Note_on_c, 0, 64, 26
2, 28106, Control_c, 0, 64, 127
2, 28136, Note_on_c, 0, 59, 30
2, 28145, Note_on_c, 0, 59, 0
2, 28153, Note_on_c, 0, 68, 0
2, 28171, Note_on_c, 0, 64, 0
2, 28176, Note_on_c, 0, 49, 0
2, 28182, Note_on_c, 0, 75, 0
2, 28196, Note_on_c, 0, 75, 36
2, 28199, Note_on_c, 0, 64, 42
2, 28200, Note_on_c, 0, 54, 46
2, 28202, Control_c, 0, 64, 0
2, 28231, Control_c, 0, 64, 127
2, 28250, Note_on_c, 0, 54, 0
2, 28286, Note_on_c, 0, 75, 0
2, 28292, Note_on_c, 0, 64, 0
2, 28322, Note_on_c, 0, 63, 53
2, 28323, Note_on_c, 0, 72, 47
2, 28326, Note_on_c, 0, 67, 49
2, 28328, Control_c, 0, 64, 0
2, 28379, Note_on_c, 0, 48, 50
2, 28381, Control_c, 0, 64, 127
2, 28384, Note_on_c, 0, 48, 0
2, 28399, Note_on_c, 0, 63, 0
2, 28420, Note_on_c, 0, 67, 0
2, 28432, Note_on_c, 0, 72, 0
2, 28441, Note_on_c, 0, 63, 44
2, 28444, Note_on_c, 0, 60, 49
2, 28484, Note_on_c, 0, 63, 0
2, 28493, Note_on_c, 0, 60, 0
2, 28496, Note_on_c, 0, 74, 74
2, 28514, Note_on_c, 0, 74, 0
2, 28523, Note_on_c, 0, 75, 70
2, 28544, Note_on_c, 0, 75, 0
2, 28558, Note_on_c, 0, 63, 33
2, 28559, Control_c, 0, 64, 0
2, 28559, Note_on_c, 0, 77, 71
2, 28560, Note_on_c, 0, 57, 32
2, 28562, Note_on_c, 0, 65, 24
2, 28584, Control_c, 0, 64, 127
2, 28592, Note_on_c, 0, 77, 0
2, 28592, Note_on_c, 0, 72, 34
2, 28602, Note_on_c, 0, 65, 0
2, 28611, Note_on_c, 0, 72, 0
2, 28623, Note_on_c, 0, 77, 64
2, 28635, Note_on_c, 0, 63, 0
2, 28654, Note_on_c, 0, 57, 0
2, 28685, Control_c, 0, 64, 0
2, 28696, Control_c, 0, 64, 127
2, 28732, Note_on_c, 0, 51, 55
2, 28735, Note_on_c, 0, 61, 32
2, 28753, Note_on_c, 0, 61, 0
2, 28756, Note_on_c, 0, 77, 0
2, 28772, Note_on_c, 0, 51, 0
2, 28791, Control_c, 0, 64, 0
2, 28793, Note_on_c, 0, 65, 58
2, 28793, Note_on_c, 0, 69, 67
2, 28794, Note_on_c, 0, 57, 46
2, 28795, Note_on_c, 0, 50, 39
2, 28795, Note_on_c, 0, 60, 40
2, 28810, Control_c, 0, 64, 127
2, 28813, Note_on_c, 0, 69, 0
2, 28819, Note_on_c, 0, 65, 0
2, 28853, Note_on_c, 0, 60, 0
2, 28854, Note_on_c, 0, 79, 87
2, 28862, Note_on_c, 0, 57, 0
2, 28885, Note_on_c, 0, 79, 0
2, 28911, Note_on_c, 0, 79, 77
2, 28913, Note_on_c, 0, 60, 45
2, 28915, Note_on_c, 0, 57, 33
2, 28919, Note_on_c, 0, 78, 23
2, 28938, Note_on_c, 0, 78, 0
2, 28941, Note_on_c, 0, 50, 0
2, 28943, Note_on_c, 0, 57, 0
2, 28948, Note_on_c, 0, 60, 0
2, 28963, Note_on_c, 0, 79, 0
2, 28968, Note_on_c, 0, 74, 72
2, 28979, Note_on_c, 0, 74, 0
2, 29013, Note_on_c, 0, 51, 47
2, 29018, Note_on_c, 0, 52, 57
2, 29027, Note_on_c, 0, 51, 0
2, 29027, Note_on_c, 0, 68, 74
2, 29028, Note_on_c, 0, 53, 65
2, 29029, Note_on_c, 0, 62, 73
2, 29029, Note_on_c, 0, 65, 69
2, 29029, Note_on_c, 0, 59, 73
2, 29030, Control_c, 0, 64, 0
2, 29032, Note_on_c, 0, 52, 0
2, 29056, Control_c, 0, 64, 127
2, 29091, Note_on_c, 0, 50, 65
2, 29098, Note_on_c, 0, 53, 0
2, 29099, Note_on_c, 0, 65, 0
2, 29099, Note_on_c, 0, 62, 0
2, 29101, Note_on_c, 0, 68, 0
2, 29112, Note_on_c, 0, 59, 0
2, 29146, Note_on_c, 0, 50, 0
2, 29148, Control_c, 0, 64, 0
2, 29149, Note_on_c, 0, 62, 57
2, 29149, Note_on_c, 0, 56, 39
2, 29150, Note_on_c, 0, 59, 55
2, 29151, Note_on_c, 0, 47, 41
2, 29177, Control_c, 0, 64, 127
2, 29207, Note_on_c, 0, 47, 0
2, 29212, Note_on_c, 0, 43, 49
2, 29213, Note_on_c, 0, 56, 0
2, 29214, Note_on_c, 0, 59, 0
2, 29216, Note_on_c, 0, 62, 0
2, 29261, Note_on_c, 0, 43, 0
2, 29269, Control_c, 0, 64, 0
2, 29273, Note_on_c, 0, 67, 53
2, 29273, Note_on_c, 0, 58, 51
2, 29275, Note_on_c, 0, 63, 45
2, 29277, Note_on_c, 0, 48, 31
2, 29280, Note_on_c, 0, 67, 0
2, 29282, Control_c, 0, 64, 127
2, 29283, Note_on_c, 0, 48, 0
2, 29286, Note_on_c, 0, 58, 0
2, 29289, Note_on_c, 0, 63, 0
2, 29330, Control_c, 0, 64, 0
2, 29331, Note_on_c, 0, 70, 60
2, 29332, Note_on_c, 0, 63, 64
2, 29334, Note_on_c, 0, 55, 58
2, 29336, Note_on_c, 0, 60, 53
2, 29339, Note_on_c, 0, 55, 0
2, 29341, Note_on_c, 0, 60, 0
2, 29342, Note_on_c, 0, 70, 0
2, 29344, Note_on_c, 0, 63, 0
2, 29388, Control_c, 0, 64, 127
2, 29391, Note_on_c, 0, 67, 53
2, 29392, Note_on_c, 0, 63, 37
2, 29392, Note_on_c, 0, 58, 29
2, 29393, Note_on_c, 0, 51, 33
2, 29433, Note_on_c, 0, 51, 0
2, 29449, Note_on_c, 0, 58, 0
2, 29451, Note_on_c, 0, 63, 0
2, 29473, Note_on_c, 0, 67, 0
2, 29509, Control_c, 0, 64, 0
2, 29514, Note_on_c, 0, 41, 51
2, 29516, Control_c, 0, 64, 127
2, 29523, Note_on_c, 0, 41, 0
2, 29574, Note_on_c, 0, 74, 76
2, 29575, Note_on_c, 0, 66, 73
2, 29575, Note_on_c, 0, 69, 71
2, 29576, Note_on_c, 0, 62, 75
2, 29577, Note_on_c, 0, 51, 62
2, 29578, Control_c, 0, 64, 0
2, 29579, Note_on_c, 0, 57, 64
2, 29591, Note_on_c, 0, 57, 0
2, 29592, Note_on_c, 0, 69, 0
2, 29595, Note_on_c, 0, 62, 0
2, 29595, Note_on_c, 0, 66, 0
2, 29596, Note_on_c, 0, 51, 0
2, 29600, Note_on_c, 0, 74, 0
2, 29636, Note_on_c, 0, 62, 44
2, 29637, Note_on_c, 0, 66, 38
2, 29638, Note_on_c, 0, 69, 53
2, 29639, Note_on_c, 0, 51, 42
2, 29640, Note_on_c, 0, 57, 44
2, 29643, Control_c, 0, 64, 127
2, 29679, Note_on_c, 0, 51, 0
2, 29697, Note_on_c, 0, 51, 40
2, 29709, Note_on_c, 0, 57, 0
2, 29733, Note_on_c, 0, 62, 0
2, 29743, Note_on_c, 0, 69, 0
2, 29745, Note_on_c, 0, 51, 0
2, 29746, Note_on_c, 0, 66, 0
2, 29755, Control_c, 0, 64, 0
2, 29760, Note_on_c, 0, 46, 45
2, 29761, Note_on_c, 0, 65, 49
2, 29762, Note_on_c, 0, 62, 31
2, 29766, Note_on_c, 0, 57, 31
2, 29772, Control_c, 0, 64, 127
2, 29775, Note_on_c, 0, 62, 0
2, 29778, Note_on_c, 0, 65, 0
2, 29801, Note_on_c, 0, 46, 0
2, 29815, Note_on_c, 0, 57, 0
2, 29884, Note_on_c, 0, 74, 84
2, 29884, Note_on_c, 0, 81, 77
2, 29886, Note_on_c, 0, 46, 48
2, 29886, Control_c, 0, 64, 0
2, 29887, Note_on_c, 0, 54, 42
2, 29911, Control_c, 0, 64, 127
2, 29934, Note_on_c, 0, 74, 0
2, 29935, Note_on_c, 0, 81, 0
2, 29938, Note_on_c, 0, 78, 43
2, 29943, Note_on_c, 0, 69, 42
2, 29997, Note_on_c, 0, 69, 0
2, 30004, Note_on_c, 0, 78, 0
2, 30022, Note_on_c, 0, 46, 0
2, 30053, Note_on_c, 0, 54, 0
2, 30063, Note_on_c, 0, 46, 29
2, 30064, Note_on_c, 0, 74, 57
2, 30065, Note_on_c, 0, 81, 61
2, 30066, Note_on_c, 0, 69, 53
2, 30067, Note_on_c, 0, 55, 48
2, 30068, Control_c, 0, 64, 0
2, 30095, Control_c, 0, 64, 127
2, 30119, Note_on_c, 0, 81, 0
2, 30123, Note_on_c, 0, 79, 67
2, 30146, Note_on_c, 0, 74, 0
2, 30148, Note_on_c, 0, 46, 0
2, 30180, Note_on_c, 0, 74, 54
2, 30181, Note_on_c, 0, 79, 0
2, 30182, Note_on_c, 0, 46, 33
2, 30194, Note_on_c, 0, 55, 0
2, 30198, Note_on_c, 0, 46, 0
2, 30220, Note_on_c, 0, 69, 0
2, 30224, Note_on_c, 0, 74, 0
2, 30234, Control_c, 0, 64, 0
2, 30238, Note_on_c, 0, 45, 47
2, 30239, Note_on_c, 0, 74, 46
2, 30242, Note_on_c, 0, 55, 50
2, 30249, Note_on_c, 0, 45, 0
2, 30254, Control_c, 0, 64, 127
2, 30255, Note_on_c, 0, 55, 0
2, 30303, Note_on_c, 0, 63, 64
2, 30304, Note_on_c, 0, 55, 62
2, 30305, Note_on_c, 0, 60, 64
2, 30306, Note_on_c, 0, 57, 65
2, 30356, Note_on_c, 0, 74, 0
2, 30363, Note_on_c, 0, 73, 67
2, 30386, Note_on_c, 0, 73, 0
2, 30392, Note_on_c, 0, 74, 68
2, 30395, Note_on_c, 0, 55, 0
2, 30396, Note_on_c, 0, 57, 0
2, 30396, Note_on_c, 0, 63, 0
2, 30398, Note_on_c, 0, 60, 0
2, 30415, Note_on_c, 0, 74, 0
2, 30418, Note_on_c, 0, 73, 28
2, 30439, Note_on_c, 0, 73, 0
2, 30449, Note_on_c, 0, 74, 70
2, 30470, Note_on_c, 0, 74, 0
2, 30478, Control_c, 0, 64, 0
2, 30480, Note_on_c, 0, 54, 25
2, 30480, Note_on_c, 0, 60, 31
2, 30482, Note_on_c, 0, 75, 62
2, 30483, Note_on_c, 0, 50, 24
2, 30506, Control_c, 0, 64, 127
2, 30527, Note_on_c, 0, 50, 0
2, 30534, Note_on_c, 0, 75, 0
2, 30534, Note_on_c, 0, 54, 0
2, 30536, Note_on_c, 0, 60, 0
2, 30537, Note_on_c, 0, 72, 34
2, 30591, Note_on_c, 0, 72, 0
2, 30595, Note_on_c, 0, 74, 51
2, 30597, Note_on_c, 0, 54, 28
2, 30598, Control_c, 0, 64, 0
2, 30598, Note_on_c, 0, 60, 27
2, 30599, Note_on_c, 0, 62, 24
2, 30610, Control_c, 0, 64, 127
2, 30634, Note_on_c, 0, 60, 0
2, 30653, Note_on_c, 0, 74, 0
2, 30654, Note_on_c, 0, 54, 0
2, 30655, Note_on_c, 0, 69, 58
2, 30670, Note_on_c, 0, 62, 0
2, 30710, Note_on_c, 0, 55, 51
2, 30712, Note_on_c, 0, 62, 38
2, 30715, Control_c, 0, 64, 0
2, 30715, Note_on_c, 0, 58, 29
2, 30738, Control_c, 0, 64, 127
2, 30774, Note_on_c, 0, 76, 90
2, 30783, Note_on_c, 0, 69, 0
2, 30800, Note_on_c, 0, 62, 0
2, 30805, Note_on_c, 0, 55, 0
2, 30834, Note_on_c, 0, 76, 0
2, 30835, Note_on_c, 0, 73, 50
2, 30835, Note_on_c, 0, 54, 37
2, 30837, Note_on_c, 0, 62, 40
2, 30841, Control_c, 0, 64, 0
2, 30868, Control_c, 0, 64, 127
2, 30896, Note_on_c, 0, 74, 78
2, 30898, Note_on_c, 0, 54, 0
2, 30905, Note_on_c, 0, 73, 0
2, 30912, Note_on_c, 0, 74, 0
2, 30912, Note_on_c, 0, 62, 0
2, 30923, Note_on_c, 0, 58, 0
2, 30956, Note_on_c, 0, 81, 75
2, 30958, Control_c, 0, 64, 0
2, 30958, Note_on_c, 0, 62, 54
2, 30958, Note_on_c, 0, 58, 40
2, 30959, Note_on_c, 0, 53, 44
2, 30985, Control_c, 0, 64, 127
2, 31014, Note_on_c, 0, 81, 0
2, 31017, Note_on_c, 0, 78, 61
2, 31023, Note_on_c, 0, 62, 0
2, 31043, Note_on_c, 0, 58, 0
2, 31069, Note_on_c, 0, 78, 0
2, 31078, Note_on_c, 0, 62, 48
2, 31079, Note_on_c, 0, 79, 60
2, 31080, Note_on_c, 0, 58, 31
2, 31082, Control_c, 0, 64, 0
2, 31098, Control_c, 0, 64, 127
2, 31107, Note_on_c, 0, 53, 0
2, 31123, Note_on_c, 0, 79, 0
2, 31140, Note_on_c, 0, 53, 47
2, 31155, Note_on_c, 0, 62, 0
2, 31156, Note_on_c, 0, 53, 0
2, 31159, Note_on_c, 0, 58, 0
2, 31262, Note_on_c, 0, 81, 55
2, 31262, Note_on_c, 0, 74, 51
2, 31263, Note_on_c, 0, 69, 43
2, 31264, Control_c, 0, 64, 0
2, 31264, Note_on_c, 0, 77, 47
2, 31264, Note_on_c, 0, 62, 31
2, 31264, Note_on_c, 0, 52, 27
2, 31264, Note_on_c, 0, 58, 33
2, 31265, Note_on_c, 0, 57, 34
2, 31281, Control_c, 0, 64, 127
2, 31299, Note_on_c, 0, 52, 0
2, 31302, Note_on_c, 0, 69, 0
2, 31303, Note_on_c, 0, 57, 0
2, 31303, Note_on_c, 0, 62, 0
2, 31304, Note_on_c, 0, 81, 0
2, 31305, Note_on_c, 0, 74, 0
2, 31307, Note_on_c, 0, 77, 0
2, 31307, Note_on_c, 0, 58, 0
2, 31323, Note_on_c, 0, 81, 65
2, 31325, Note_on_c, 0, 52, 53
2, 31325, Note_on_c, 0, 62, 57
2, 31325, Note_on_c, 0, 69, 59
2, 31326, Note_on_c, 0, 57, 57
2, 31326, Note_on_c, 0, 58, 45
2, 31326, Note_on_c, 0, 77, 51
2, 31326, Note_on_c, 0, 74, 68
2, 31356, Note_on_c, 0, 69, 0
2, 31356, Note_on_c, 0, 52, 0
2, 31357, Note_on_c, 0, 74, 0
2, 31359, Note_on_c, 0, 57, 0
2, 31359, Note_on_c, 0, 62, 0
2, 31361, Note_on_c, 0, 77, 0
2, 31363, Note_on_c, 0, 58, 0
2, 31363, Note_on_c, 0, 81, 0
2, 31381, Note_on_c, 0, 52, 54
2, 31382, Note_on_c, 0, 62, 59
2, 31382, Note_on_c, 0, 58, 59
2, 31383, Note_on_c, 0, 81, 66
2, 31383, Note_on_c, 0, 74, 72
2, 31384, Note_on_c, 0, 57, 53
2, 31384, Note_on_c, 0, 77, 56
2, 31385, Note_on_c, 0, 69, 69
2, 31390, Note_on_c, 0, 57, 0
2, 31400, Note_on_c, 0, 52, 0
2, 31403, Note_on_c, 0, 74, 0
2, 31403, Note_on_c, 0, 62, 0
2, 31408, Note_on_c, 0, 77, 0
2, 31408, Note_on_c, 0, 58, 0
2, 31412, Note_on_c, 0, 69, 0
2, 31418, Note_on_c, 0, 81, 0
2, 31441, Note_on_c, 0, 81, 73
2, 31442, Note_on_c, 0, 73, 59
2, 31443, Note_on_c, 0, 76, 68
2, 31444, Control_c, 0, 64, 0
2, 31444, Note_on_c, 0, 69, 78
2, 31444, Note_on_c, 0, 58, 71
2, 31446, Note_on_c, 0, 64, 59
2, 31447, Note_on_c, 0, 79, 42
2, 31454, Note_on_c, 0, 79, 0
2, 31478, Control_c, 0, 64, 127
2, 31491, Note_on_c, 0, 81, 0
2, 31509, Note_on_c, 0, 81, 61
2, 31514, Note_on_c, 0, 79, 31
2, 31522, Note_on_c, 0, 64, 0
2, 31545, Note_on_c, 0, 81, 0
2, 31547, Note_on_c, 0, 79, 0
2, 31551, Note_on_c, 0, 73, 0
2, 31554, Note_on_c, 0, 76, 0
2, 31566, Note_on_c, 0, 81, 57
2, 31567, Note_on_c, 0, 69, 0
2, 31568, Note_on_c, 0, 64, 38
2, 31569, Note_on_c, 0, 73, 19
2, 31570, Note_on_c, 0, 76, 31
2, 31615, Note_on_c, 0, 64, 0
2, 31636, Note_on_c, 0, 73, 0
2, 31671, Note_on_c, 0, 76, 0
2, 31674, Note_on_c, 0, 81, 0
2, 31675, Note_on_c, 0, 58, 0
2, 31716, Note_on_c, 0, 72, 42
2, 31731, Note_on_c, 0, 72, 0
2, 31748, Note_on_c, 0, 79, 75
2, 31772, Note_on_c, 0, 79, 0
2, 31798, Note_on_c, 0, 79, 60
2, 31799, Control_c, 0, 64, 0
2, 31799, Note_on_c, 0, 75, 52
2, 31799, Note_on_c, 0, 63, 35
2, 31800, Note_on_c, 0, 70, 48
2, 31800, Note_on_c, 0, 53, 30
2, 31801, Note_on_c, 0, 58, 38
2, 31823, Control_c, 0, 64, 127
2, 31829, Note_on_c, 0, 79, 0
2, 31854, Note_on_c, 0, 79, 61
2, 31860, Note_on_c, 0, 53, 0
2, 31865, Note_on_c, 0, 75, 0
2, 31866, Note_on_c, 0, 63, 0
2, 31873, Note_on_c, 0, 79, 0
2, 31877, Note_on_c, 0, 58, 0
2, 31878, Note_on_c, 0, 70, 0
2, 31888, Note_on_c, 0, 74, 50
2, 31904, Note_on_c, 0, 74, 0
2, 31922, Note_on_c, 0, 75, 55
2, 31922, Note_on_c, 0, 71, 38
2, 31924, Note_on_c, 0, 65, 51
2, 31928, Note_on_c, 0, 62, 35
2, 31931, Note_on_c, 0, 55, 36
2, 31932, Control_c, 0, 64, 0
2, 31955, Control_c, 0, 64, 127
2, 31977, Note_on_c, 0, 62, 0
2, 31987, Note_on_c, 0, 55, 0
2, 31992, Note_on_c, 0, 71, 0
2, 32011, Note_on_c, 0, 75, 0
2, 32019, Note_on_c, 0, 65, 0
2, 32045, Note_on_c, 0, 68, 34
2, 32045, Note_on_c, 0, 56, 35
2, 32047, Note_on_c, 0, 65, 32
2, 32050, Note_on_c, 0, 62, 24
2, 32080, Note_on_c, 0, 65, 0
2, 32087, Note_on_c, 0, 71, 62
2, 32088, Note_on_c, 0, 62, 0
2, 32100, Note_on_c, 0, 68, 0
2, 32100, Note_on_c, 0, 56, 0
2, 32113, Note_on_c, 0, 71, 0
2, 32120, Note_on_c, 0, 74, 74
2, 32139, Note_on_c, 0, 74, 0
2, 32147, Note_on_c, 0, 75, 71
2, 32168, Control_c, 0, 64, 0
2, 32171, Note_on_c, 0, 75, 0
2, 32172, Note_on_c, 0, 48, 42
2, 32173, Note_on_c, 0, 77, 71
2, 32178, Note_on_c, 0, 58, 25
2, 32196, Note_on_c, 0, 77, 0
2, 32199, Control_c, 0, 64, 127
2, 32201, Note_on_c, 0, 77, 72
2, 32208, Note_on_c, 0, 48, 0
2, 32220, Note_on_c, 0, 58, 0
2, 32226, Note_on_c, 0, 77, 0
2, 32236, Note_on_c, 0, 77, 72
2, 32257, Note_on_c, 0, 77, 0
2, 32267, Note_on_c, 0, 77, 74
2, 32287, Note_on_c, 0, 77, 0
2, 32291, Note_on_c, 0, 67, 30
2, 32292, Note_on_c, 0, 63, 27
2, 32295, Note_on_c, 0, 62, 29
2, 32295, Note_on_c, 0, 58, 21
2, 32298, Note_on_c, 0, 77, 60
2, 32317, Note_on_c, 0, 77, 0
2, 32323, Note_on_c, 0, 67, 0
2, 32329, Note_on_c, 0, 62, 0
2, 32329, Note_on_c, 0, 77, 46
2, 32335, Note_on_c, 0, 63, 0
2, 32343, Note_on_c, 0, 58, 0
2, 32346, Note_on_c, 0, 77, 0
2, 32357, Note_on_c, 0, 77, 57
2, 32372, Note_on_c, 0, 77, 0
2, 32382, Note_on_c, 0, 77, 59
2, 32398, Note_on_c, 0, 77, 0
2, 32405, Control_c, 0, 64, 0
2, 32409, Note_on_c, 0, 47, 55
2, 32409, Note_on_c, 0, 77, 58
2, 32410, Note_on_c, 0, 56, 34
2, 32431, Control_c, 0, 64, 127
2, 32437, Note_on_c, 0, 47, 0
2, 32444, Note_on_c, 0, 56, 0
2, 32517, Note_on_c, 0, 56, 25
2, 32518, Note_on_c, 0, 71, 34
2, 32518, Note_on_c, 0, 62, 32
2, 32519, Note_on_c, 0, 65, 40
2, 32523, Note_on_c, 0, 59, 28
2, 32541, Note_on_c, 0, 77, 0
2, 32543, Note_on_c, 0, 62, 0
2, 32546, Note_on_c, 0, 59, 0
2, 32562, Note_on_c, 0, 56, 0
2, 32579, Note_on_c, 0, 65, 0
2, 32586, Note_on_c, 0, 71, 0
2, 32588, Note_on_c, 0, 77, 71
2, 32613, Note_on_c, 0, 77, 0
2, 32635, Control_c, 0, 64, 0
2, 32637, Note_on_c, 0, 48, 34
2, 32638, Note_on_c, 0, 77, 54
2, 32640, Note_on_c, 0, 70, 42
2, 32641, Note_on_c, 0, 58, 28
2, 32641, Note_on_c, 0, 67, 30
2, 32655, Control_c, 0, 64, 127
2, 32659, Note_on_c, 0, 67, 0
2, 32674, Note_on_c, 0, 77, 0
2, 32695, Note_on_c, 0, 58, 0
2, 32709, Note_on_c, 0, 70, 0
2, 32716, Note_on_c, 0, 65, 35
2, 32740, Note_on_c, 0, 65, 0
2, 32758, Control_c, 0, 64, 0
2, 32761, Note_on_c, 0, 58, 25
2, 32763, Note_on_c, 0, 67, 42
2, 32763, Note_on_c, 0, 65, 40
2, 32769, Control_c, 0, 64, 127
2, 32782, Note_on_c, 0, 58, 0
2, 32788, Note_on_c, 0, 48, 0
2, 32803, Note_on_c, 0, 67, 0
2, 32808, Note_on_c, 0, 65, 0
2, 32833, Note_on_c, 0, 41, 47
2, 32841, Note_on_c, 0, 41, 0
2, 32880, Note_on_c, 0, 57, 50
2, 32882, Note_on_c, 0, 61, 34
2, 32883, Note_on_c, 0, 63, 37
2, 32884, Note_on_c, 0, 65, 33
2, 32885, Note_on_c, 0, 51, 25
2, 32890, Control_c, 0, 64, 0
2, 32919, Control_c, 0, 64, 127
2, 32937, Note_on_c, 0, 57, 0
2, 32939, Note_on_c, 0, 51, 0
2, 32942, Note_on_c, 0, 65, 0
2, 32944, Note_on_c, 0, 61, 0
2, 32945, Note_on_c, 0, 63, 0
2, 33000, Note_on_c, 0, 51, 42
2, 33003, Note_on_c, 0, 61, 21
2, 33006, Note_on_c, 0, 63, 27
2, 33006, Control_c, 0, 64, 0
2, 33007, Note_on_c, 0, 57, 27
2, 33033, Control_c, 0, 64, 127
2, 33055, Note_on_c, 0, 57, 0
2, 33060, Note_on_c, 0, 63, 0
2, 33063, Note_on_c, 0, 61, 0
2, 33074, Note_on_c, 0, 51, 0
2, 33123, Note_on_c, 0, 65, 38
2, 33123, Note_on_c, 0, 50, 34
2, 33124, Note_on_c, 0, 60, 35
2, 33124, Control_c, 0, 64, 0
2, 33126, Note_on_c, 0, 55, 36
2, 33150, Control_c, 0, 64, 127
2, 33176, Note_on_c, 0, 65, 0
2, 33185, Note_on_c, 0, 55, 0
2, 33207, Note_on_c, 0, 60, 0
2, 33240, Note_on_c, 0, 55, 37
2, 33279, Note_on_c, 0, 50, 0
2, 33283, Note_on_c, 0, 65, 62
2, 33293, Note_on_c, 0, 55, 0
2, 33309, Note_on_c, 0, 65, 0
2, 33312, Note_on_c, 0, 67, 76
2, 33341, Note_on_c, 0, 67, 0
2, 33352, Note_on_c, 0, 69, 74
2, 33353, Note_on_c, 0, 64, 68
2, 33356, Note_on_c, 0, 49, 32
2, 33357, Note_on_c, 0, 57, 33
2, 33358, Control_c, 0, 64, 0
2, 33391, Control_c, 0, 64, 127
2, 33424, Note_on_c, 0, 57, 0
2, 33425, Note_on_c, 0, 64, 0
2, 33476, Note_on_c, 0, 61, 31
2, 33477, Note_on_c, 0, 64, 40
2, 33481, Note_on_c, 0, 57, 22
2, 33494, Note_on_c, 0, 69, 0
2, 33501, Note_on_c, 0, 61, 0
2, 33508, Note_on_c, 0, 64, 0
2, 33512, Note_on_c, 0, 65, 64
2, 33527, Note_on_c, 0, 49, 0
2, 33534, Note_on_c, 0, 57, 0
2, 33542, Note_on_c, 0, 65, 0
2, 33547, Note_on_c, 0, 67, 75
2, 33548, Note_on_c, 0, 65, 28
2, 33549, Note_on_c, 0, 49, 42
2, 33555, Note_on_c, 0, 57, 20
2, 33556, Note_on_c, 0, 65, 0
2, 33570, Note_on_c, 0, 57, 0
2, 33576, Note_on_c, 0, 67, 0
2, 33584, Note_on_c, 0, 49, 0
2, 33589, Note_on_c, 0, 69, 74
2, 33590, Note_on_c, 0, 64, 74
2, 33592, Note_on_c, 0, 48, 37
2, 33593, Note_on_c, 0, 57, 36
2, 33598, Control_c, 0, 64, 0
2, 33630, Control_c, 0, 64, 127
2, 33663, Note_on_c, 0, 57, 0
2, 33670, Note_on_c, 0, 48, 0
2, 33679, Note_on_c, 0, 64, 0
2, 33681, Note_on_c, 0, 69, 0
2, 33776, Note_on_c, 0, 69, 58
2, 33777, Control_c, 0, 64, 0
2, 33778, Note_on_c, 0, 54, 25
2, 33779, Note_on_c, 0, 44, 29
2, 33780, Note_on_c, 0, 60, 30
2, 33781, Note_on_c, 0, 64, 41
2, 33793, Control_c, 0, 64, 127
2, 33802, Note_on_c, 0, 64, 0
2, 33802, Note_on_c, 0, 60, 0
2, 33815, Note_on_c, 0, 54, 0
2, 33817, Note_on_c, 0, 69, 0
2, 33827, Note_on_c, 0, 44, 0
2, 33843, Note_on_c, 0, 71, 45
2, 33846, Note_on_c, 0, 59, 33
2, 33847, Note_on_c, 0, 64, 42
2, 33847, Note_on_c, 0, 43, 30
2, 33847, Note_on_c, 0, 53, 30
2, 33849, Control_c, 0, 64, 0
2, 33883, Control_c, 0, 64, 127
2, 33910, Note_on_c, 0, 64, 0
2, 33924, Note_on_c, 0, 53, 0
2, 33934, Note_on_c, 0, 59, 0
2, 33960, Note_on_c, 0, 59, 42
2, 33962, Note_on_c, 0, 63, 33
2, 33964, Note_on_c, 0, 53, 26
2, 33986, Note_on_c, 0, 71, 0
2, 34001, Note_on_c, 0, 43, 0
2, 34012, Note_on_c, 0, 53, 0
2, 34020, Note_on_c, 0, 59, 0
2, 34054, Note_on_c, 0, 63, 0
2, 34077, Control_c, 0, 64, 0
2, 34080, Note_on_c, 0, 48, 27
2, 34082, Note_on_c, 0, 62, 48
2, 34082, Note_on_c, 0, 58, 26
2, 34084, Note_on_c, 0, 55, 29
2, 34095, Control_c, 0, 64, 127
2, 34106, Note_on_c, 0, 62, 0
2, 34107, Note_on_c, 0, 58, 0
2, 34119, Note_on_c, 0, 48, 0
2, 34121, Note_on_c, 0, 55, 0
2, 34146, Note_on_c, 0, 74, 71
2, 34154, Note_on_c, 0, 73, 23
2, 34159, Note_on_c, 0, 73, 0
2, 34177, Note_on_c, 0, 74, 0
2, 34203, Note_on_c, 0, 74, 65
2, 34205, Note_on_c, 0, 58, 27
2, 34206, Note_on_c, 0, 65, 40
2, 34242, Note_on_c, 0, 58, 0
2, 34249, Note_on_c, 0, 65, 0
2, 34254, Note_on_c, 0, 74, 0
2, 34258, Note_on_c, 0, 72, 40
2, 34283, Note_on_c, 0, 70, 46
2, 34285, Note_on_c, 0, 72, 0
2, 34302, Note_on_c, 0, 70, 0
2, 34313, Note_on_c, 0, 74, 48
2, 34316, Note_on_c, 0, 68, 36
2, 34319, Control_c, 0, 64, 0
2, 34319, Note_on_c, 0, 58, 33
2, 34324, Note_on_c, 0, 64, 13
2, 34346, Control_c, 0, 64, 127
2, 34367, Note_on_c, 0, 64, 0
2, 34395, Note_on_c, 0, 68, 0
2, 34397, Note_on_c, 0, 58, 0
2, 34430, Note_on_c, 0, 74, 0
2, 34432, Note_on_c, 0, 68, 42
2, 34438, Note_on_c, 0, 64, 24
2, 34440, Note_on_c, 0, 58, 25
2, 34470, Note_on_c, 0, 64, 0
2, 34483, Note_on_c, 0, 68, 0
2, 34485, Note_on_c, 0, 74, 65
2, 34501, Note_on_c, 0, 58, 0
2, 34508, Note_on_c, 0, 74, 0
2, 34557, Note_on_c, 0, 74, 51
2, 34557, Note_on_c, 0, 68, 43
2, 34558, Note_on_c, 0, 54, 30
2, 34558, Note_on_c, 0, 64, 37
2, 34561, Note_on_c, 0, 60, 28
2, 34563, Control_c, 0, 64, 0
2, 34593, Control_c, 0, 64, 127
2, 34604, Note_on_c, 0, 60, 0
2, 34615, Note_on_c, 0, 54, 0
2, 34626, Note_on_c, 0, 64, 0
2, 34627, Note_on_c, 0, 54, 51
2, 34635, Note_on_c, 0, 68, 0
2, 34686, Note_on_c, 0, 68, 34
2, 34689, Note_on_c, 0, 64, 33
2, 34692, Note_on_c, 0, 60, 24
2, 34723, Note_on_c, 0, 64, 0
2, 34724, Note_on_c, 0, 74, 0
2, 34728, Note_on_c, 0, 72, 46
2, 34741, Note_on_c, 0, 68, 0
2, 34755, Note_on_c, 0, 54, 0
2, 34756, Note_on_c, 0, 72, 0
2, 34759, Note_on_c, 0, 60, 0
2, 34762, Note_on_c, 0, 70, 49
2, 34783, Note_on_c, 0, 70, 0
2, 34807, Note_on_c, 0, 74, 53
2, 34807, Note_on_c, 0, 66, 33
2, 34808, Note_on_c, 0, 63, 30
2, 34810, Control_c, 0, 64, 0
2, 34810, Note_on_c, 0, 69, 41
2, 34811, Note_on_c, 0, 60, 29
2, 34813, Note_on_c, 0, 53, 24
2, 34833, Control_c, 0, 64, 127
2, 34860, Note_on_c, 0, 69, 0
2, 34861, Note_on_c, 0, 63, 0
2, 34865, Note_on_c, 0, 66, 0
2, 34869, Note_on_c, 0, 74, 0
2, 34874, Note_on_c, 0, 60, 0
2, 34924, Note_on_c, 0, 77, 65
2, 34927, Note_on_c, 0, 65, 49
2, 34948, Note_on_c, 0, 77, 0
2, 34950, Note_on_c, 0, 65, 0
2, 34971, Note_on_c, 0, 53, 0
2, 34980, Note_on_c, 0, 79, 64
2, 34982, Note_on_c, 0, 67, 56
2, 34989, Note_on_c, 0, 67, 0
2, 34995, Note_on_c, 0, 79, 0
2, 35037, Note_on_c, 0, 82, 64
2, 35041, Control_c, 0, 64, 0
2, 35041, Note_on_c, 0, 48, 43
2, 35042, Note_on_c, 0, 79, 55
2, 35043, Note_on_c, 0, 58, 32
2, 35044, Note_on_c, 0, 75, 51
2, 35046, Note_on_c, 0, 70, 39
2, 35065, Control_c, 0, 64, 127
2, 35099, Note_on_c, 0, 58, 0
2, 35103, Note_on_c, 0, 55, 56
2, 35126, Note_on_c, 0, 70, 0
2, 35162, Note_on_c, 0, 55, 0
2, 35163, Note_on_c, 0, 70, 37
2, 35163, Note_on_c, 0, 58, 34
2, 35165, Note_on_c, 0, 48, 0
2, 35176, Note_on_c, 0, 82, 0
2, 35182, Note_on_c, 0, 79, 0
2, 35185, Note_on_c, 0, 58, 0
2, 35189, Note_on_c, 0, 70, 0
2, 35204, Note_on_c, 0, 75, 0
2, 35281, Note_on_c, 0, 79, 74
2, 35281, Note_on_c, 0, 73, 65
2, 35282, Note_on_c, 0, 69, 79
2, 35284, Note_on_c, 0, 67, 48
2, 35285, Control_c, 0, 64, 0
2, 35305, Control_c, 0, 64, 127
2, 35313, Note_on_c, 0, 79, 0
2, 35314, Note_on_c, 0, 73, 0
2, 35318, Note_on_c, 0, 67, 0
2, 35340, Note_on_c, 0, 69, 0
2, 35350, Note_on_c, 0, 70, 53
2, 35365, Note_on_c, 0, 70, 0
2, 35414, Note_on_c, 0, 74, 66
2, 35415, Note_on_c, 0, 66, 42
2, 35415, Note_on_c, 0, 63, 34
2, 35417, Note_on_c, 0, 69, 51
2, 35418, Note_on_c, 0, 57, 46
2, 35419, Control_c, 0, 64, 0
2, 35439, Control_c, 0, 64, 127
2, 35459, Note_on_c, 0, 74, 0
2, 35467, Note_on_c, 0, 63, 0
2, 35471, Note_on_c, 0, 69, 0
2, 35473, Note_on_c, 0, 47, 28
2, 35482, Note_on_c, 0, 47, 0
2, 35485, Note_on_c, 0, 57, 0
2, 35492, Note_on_c, 0, 66, 0
2, 35527, Note_on_c, 0, 70, 45
2, 35531, Note_on_c, 0, 62, 35
2, 35532, Control_c, 0, 64, 0
2, 35533, Note_on_c, 0, 65, 36
2, 35533, Note_on_c, 0, 57, 36
2, 35533, Note_on_c, 0, 46, 26
2, 35555, Control_c, 0, 64, 127
2, 35574, Note_on_c, 0, 57, 0
2, 35586, Note_on_c, 0, 62, 0
2, 35607, Note_on_c, 0, 65, 0
2, 35619, Note_on_c, 0, 46, 0
2, 35642, Note_on_c, 0, 61, 37
2, 35645, Note_on_c, 0, 51, 30
2, 35645, Note_on_c, 0, 65, 47
2, 35645, Note_on_c, 0, 57, 33
2, 35647, Control_c, 0, 64, 0
2, 35667, Control_c, 0, 64, 127
2, 35689, Note_on_c, 0, 65, 0
2, 35690, Note_on_c, 0, 57, 0
2, 35692, Note_on_c, 0, 61, 0
2, 35707, Note_on_c, 0, 51, 0
2, 35712, Note_on_c, 0, 70, 0
2, 35760, Note_on_c, 0, 60, 35
2, 35760, Note_on_c, 0, 65, 43
2, 35761, Control_c, 0, 64, 0
2, 35763, Note_on_c, 0, 50, 29
2, 35764, Note_on_c, 0, 55, 34
2, 35779, Control_c, 0, 64, 127
2, 35799, Note_on_c, 0, 55, 0
2, 35804, Note_on_c, 0, 50, 0
2, 35822, Note_on_c, 0, 65, 0
2, 35826, Note_on_c, 0, 60, 0
2, 35879, Note_on_c, 0, 63, 34
2, 35881, Note_on_c, 0, 43, 29
2, 35883, Control_c, 0, 64, 0
2, 35883, Note_on_c, 0, 59, 26
2, 35895, Control_c, 0, 64, 127
2, 35896, Note_on_c, 0, 53, 6
2, 35915, Note_on_c, 0, 43, 0
2, 35927, Note_on_c, 0, 53, 0
2, 35942, Note_on_c, 0, 59, 0
2, 35954, Note_on_c, 0, 63, 0
2, 35965, Note_on_c, 0, 65, 58
2, 36000, Note_on_c, 0, 65, 0
2, 36004, Control_c, 0, 64, 0
2, 36004, Note_on_c, 0, 62, 35
2, 36007, Note_on_c, 0, 48, 16
2, 36008, Note_on_c, 0, 55, 34
2, 36009, Note_on_c, 0, 58, 23
2, 36036, Control_c, 0, 64, 127
2, 36067, Note_on_c, 0, 58, 0
2, 36071, Note_on_c, 0, 62, 0
2, 36077, Note_on_c, 0, 55, 0
2, 36077, Note_on_c, 0, 63, 71
2, 36108, Note_on_c, 0, 63, 0
2, 36119, Control_c, 0, 64, 0
2, 36120, Note_on_c, 0, 58, 39
2, 36120, Note_on_c, 0, 65, 81
2, 36122, Note_on_c, 0, 55, 40
2, 36140, Control_c, 0, 64, 127
2, 36144, Note_on_c, 0, 55, 0
2, 36150, Note_on_c, 0, 58, 0
2, 36157, Note_on_c, 0, 48, 0
2, 36196, Note_on_c, 0, 62, 54
2, 36240, Note_on_c, 0, 47, 29
2, 36241, Note_on_c, 0, 59, 42
2, 36242, Control_c, 0, 64, 0
2, 36243, Note_on_c, 0, 53, 24
2, 36274, Control_c, 0, 64, 127
2, 36304, Note_on_c, 0, 53, 0
2, 36304, Note_on_c, 0, 62, 0
2, 36325, Note_on_c, 0, 59, 0
2, 36352, Note_on_c, 0, 47, 0
2, 36361, Note_on_c, 0, 65, 0
2, 36367, Note_on_c, 0, 47, 28
2, 36368, Note_on_c, 0, 62, 46
2, 36370, Note_on_c, 0, 59, 36
2, 36382, Note_on_c, 0, 47, 0
2, 36417, Note_on_c, 0, 59, 0
2, 36433, Note_on_c, 0, 62, 0
2, 36442, Note_on_c, 0, 65, 74
2, 36472, Note_on_c, 0, 65, 0
2, 36487, Note_on_c, 0, 48, 41
2, 36487, Note_on_c, 0, 55, 49
2, 36488, Control_c, 0, 64, 0
2, 36489, Note_on_c, 0, 65, 62
2, 36491, Note_on_c, 0, 62, 58
2, 36509, Control_c, 0, 64, 127
2, 36516, Note_on_c, 0, 55, 0
2, 36518, Note_on_c, 0, 62, 0
2, 36533, Note_on_c, 0, 65, 0
2, 36551, Note_on_c, 0, 48, 0
2, 36604, Note_on_c, 0, 53, 61
2, 36663, Note_on_c, 0, 53, 0
2, 36678, Note_on_c, 0, 29, 47
2, 36683, Note_on_c, 0, 29, 0
2, 36781, Note_on_c, 0, 54, 53
2, 36782, Note_on_c, 0, 57, 62
2, 36784, Note_on_c, 0, 51, 25
2, 36786, Control_c, 0, 64, 0
2, 36804, Control_c, 0, 64, 127
2, 36834, Note_on_c, 0, 51, 0
2, 36834, Note_on_c, 0, 54, 0
2, 36835, Note_on_c, 0, 57, 0
2, 36879, Note_on_c, 0, 66, 70
2, 36881, Note_on_c, 0, 61, 71
2, 36881, Note_on_c, 0, 58, 55
2, 36883, Note_on_c, 0, 51, 52
2, 36897, Note_on_c, 0, 58, 0
2, 36902, Note_on_c, 0, 61, 0
2, 36903, Note_on_c, 0, 66, 0
2, 36909, Note_on_c, 0, 51, 0
2, 36918, Note_on_c, 0, 49, 25
2, 36922, Control_c, 0, 64, 0
2, 36945, Note_on_c, 0, 49, 0
2, 36949, Note_on_c, 0, 50, 59
2, 36950, Control_c, 0, 64, 127
2, 36950, Note_on_c, 0, 65, 51
2, 36952, Note_on_c, 0, 60, 53
2, 36954, Note_on_c, 0, 57, 38
2, 36960, Note_on_c, 0, 57, 0
2, 36963, Note_on_c, 0, 50, 0
2, 36964, Note_on_c, 0, 65, 0
2, 36965, Note_on_c, 0, 60, 0
2, 36987, Control_c, 0, 64, 0
2, 36992, Note_on_c, 0, 60, 60
2, 36993, Note_on_c, 0, 62, 57
2, 36994, Note_on_c, 0, 69, 52
2, 36994, Note_on_c, 0, 53, 53
2, 36995, Note_on_c, 0, 65, 48
2, 36996, Control_c, 0, 64, 127
2, 37004, Note_on_c, 0, 60, 0
2, 37006, Note_on_c, 0, 62, 0
2, 37008, Note_on_c, 0, 65, 0
2, 37010, Note_on_c, 0, 69, 0
2, 37023, Control_c, 0, 64, 0
2, 37028, Note_on_c, 0, 53, 0
2, 37029, Note_on_c, 0, 72, 57
2, 37031, Note_on_c, 0, 62, 62
2, 37031, Note_on_c, 0, 65, 56
2, 37032, Note_on_c, 0, 69, 48
2, 37032, Note_on_c, 0, 57, 58
2, 37039, Control_c, 0, 64, 127
2, 37044, Note_on_c, 0, 65, 0
2, 37044, Note_on_c, 0, 62, 0
2, 37047, Note_on_c, 0, 69, 0
2, 37050, Note_on_c, 0, 72, 0
2, 37055, Note_on_c, 0, 57, 0
2, 37070, Control_c, 0, 64, 0
2, 37071, Note_on_c, 0, 76, 60
2, 37071, Note_on_c, 0, 65, 60
2, 37072, Note_on_c, 0, 69, 57
2, 37073, Note_on_c, 0, 72, 36
2, 37076, Note_on_c, 0, 60, 31
2, 37077, Note_on_c, 0, 61, 23
2, 37084, Control_c, 0, 64, 127
2, 37089, Note_on_c, 0, 61, 0
2, 37090, Note_on_c, 0, 65, 0
2, 37091, Note_on_c, 0, 69, 0
2, 37095, Note_on_c, 0, 72, 0
2, 37098, Note_on_c, 0, 76, 0
2, 37111, Note_on_c, 0, 69, 67
2, 37112, Note_on_c, 0, 79, 47
2, 37114, Note_on_c, 0, 72, 36
2, 37115, Note_on_c, 0, 77, 44
2, 37115, Note_on_c, 0, 64, 45
2, 37126, Note_on_c, 0, 72, 0
2, 37128, Note_on_c, 0, 79, 0
2, 37128, Note_on_c, 0, 69, 0
2, 37132, Note_on_c, 0, 77, 0
2, 37139, Note_on_c, 0, 60, 0
2, 37148, Note_on_c, 0, 64, 0
2, 37189, Note_on_c, 0, 81, 60
2, 37190, Note_on_c, 0, 73, 29
2, 37190, Note_on_c, 0, 61, 48
2, 37190, Note_on_c, 0, 76, 50
2, 37192, Note_on_c, 0, 69, 49
2, 37194, Control_c, 0, 64, 0
2, 37196, Note_on_c, 0, 64, 38
2, 37216, Control_c, 0, 64, 127
2, 37264, Note_on_c, 0, 64, 0
2, 37276, Note_on_c, 0, 76, 0
2, 37279, Note_on_c, 0, 61, 0
2, 37279, Note_on_c, 0, 73, 0
2, 37281, Note_on_c, 0, 69, 0
2, 37297, Note_on_c, 0, 81, 0
2, 37313, Note_on_c, 0, 73, 23
2, 37315, Note_on_c, 0, 61, 36
2, 37315, Note_on_c, 0, 69, 32
2, 37315, Note_on_c, 0, 76, 40
2, 37317, Note_on_c, 0, 64, 29
2, 37370, Note_on_c, 0, 69, 0
2, 37370, Note_on_c, 0, 73, 0
2, 37375, Note_on_c, 0, 76, 0
2, 37386, Note_on_c, 0, 81, 69
2, 37393, Note_on_c, 0, 64, 0
2, 37404, Note_on_c, 0, 61, 0
2, 37412, Note_on_c, 0, 81, 0
2, 37441, Note_on_c, 0, 81, 62
2, 37442, Note_on_c, 0, 64, 34
2, 37442, Note_on_c, 0, 74, 52
2, 37443, Control_c, 0, 64, 0
2, 37444, Note_on_c, 0, 60, 35
2, 37446, Note_on_c, 0, 69, 27
2, 37458, Control_c, 0, 64, 127
2, 37480, Note_on_c, 0, 64, 0
2, 37483, Note_on_c, 0, 60, 0
2, 37493, Note_on_c, 0, 81, 0
2, 37495, Note_on_c, 0, 74, 0
2, 37503, Note_on_c, 0, 69, 0
2, 37557, Note_on_c, 0, 54, 35
2, 37558, Note_on_c, 0, 65, 38
2, 37560, Note_on_c, 0, 69, 43
2, 37561, Note_on_c, 0, 60, 26
2, 37565, Control_c, 0, 64, 0
2, 37582, Control_c, 0, 64, 127
2, 37607, Note_on_c, 0, 60, 0
2, 37616, Note_on_c, 0, 65, 0
2, 37623, Note_on_c, 0, 69, 0
2, 37624, Note_on_c, 0, 54, 0
2, 37677, Control_c, 0, 64, 0
2, 37678, Note_on_c, 0, 71, 50
2, 37681, Note_on_c, 0, 68, 31
2, 37682, Note_on_c, 0, 53, 31
2, 37683, Note_on_c, 0, 59, 28
2, 37683, Note_on_c, 0, 65, 33
2, 37698, Control_c, 0, 64, 127
2, 37701, Note_on_c, 0, 59, 0
2, 37708, Note_on_c, 0, 53, 0
2, 37748, Note_on_c, 0, 65, 0
2, 37771, Note_on_c, 0, 71, 0
2, 37793, Note_on_c, 0, 68, 0
2, 37800, Note_on_c, 0, 43, 43
2, 37815, Note_on_c, 0, 43, 0
2, 37844, Note_on_c, 0, 66, 57
2, 37867, Note_on_c, 0, 66, 0
2, 37879, Note_on_c, 0, 67, 65
2, 37906, Note_on_c, 0, 67, 0
2, 37924, Note_on_c, 0, 74, 89
2, 37925, Control_c, 0, 64, 0
2, 37957, Note_on_c, 0, 48, 41
2, 37959, Control_c, 0, 64, 127
2, 37993, Note_on_c, 0, 72, 1
2, 38000, Note_on_c, 0, 58, 42
2, 38029, Note_on_c, 0, 74, 0
2, 38042, Note_on_c, 0, 72, 0
2, 38042, Note_on_c, 0, 62, 46
2, 38073, Note_on_c, 0, 62, 0
2, 38079, Note_on_c, 0, 65, 60
2, 38099, Note_on_c, 0, 48, 0
2, 38100, Note_on_c, 0, 65, 0
2, 38109, Note_on_c, 0, 58, 0
2, 38114, Note_on_c, 0, 70, 73
2, 38130, Note_on_c, 0, 70, 0
2, 38161, Note_on_c, 0, 66, 60
2, 38162, Note_on_c, 0, 74, 66
2, 38163, Note_on_c, 0, 58, 44
2, 38163, Note_on_c, 0, 64, 33
2, 38168, Control_c, 0, 64, 0
2, 38195, Control_c, 0, 64, 127
2, 38217, Note_on_c, 0, 64, 0
2, 38239, Note_on_c, 0, 66, 0
2, 38249, Note_on_c, 0, 58, 0
2, 38277, Note_on_c, 0, 74, 0
2, 38279, Note_on_c, 0, 66, 35
2, 38282, Note_on_c, 0, 62, 34
2, 38285, Note_on_c, 0, 58, 25
2, 38313, Note_on_c, 0, 62, 0
2, 38336, Note_on_c, 0, 66, 0
2, 38365, Note_on_c, 0, 58, 0
2, 38397, Control_c, 0, 64, 0
2, 38398, Note_on_c, 0, 68, 38
2, 38400, Note_on_c, 0, 64, 39
2, 38401, Note_on_c, 0, 54, 32
2, 38412, Note_on_c, 0, 64, 0
2, 38413, Control_c, 0, 64, 127
2, 38425, Note_on_c, 0, 68, 0
2, 38469, Note_on_c, 0, 86, 87
2, 38500, Note_on_c, 0, 86, 0
2, 38525, Note_on_c, 0, 86, 79
2, 38526, Note_on_c, 0, 64, 36
2, 38526, Note_on_c, 0, 80, 57
2, 38528, Note_on_c, 0, 76, 49
2, 38576, Note_on_c, 0, 64, 0
2, 38577, Note_on_c, 0, 84, 66
2, 38578, Note_on_c, 0, 80, 0
2, 38581, Note_on_c, 0, 76, 0
2, 38584, Note_on_c, 0, 86, 0
2, 38600, Note_on_c, 0, 84, 0
2, 38601, Note_on_c, 0, 54, 0
2, 38609, Note_on_c, 0, 82, 36
2, 38626, Note_on_c, 0, 82, 0
2, 38642, Note_on_c, 0, 81, 54
2, 38642, Control_c, 0, 64, 0
2, 38643, Note_on_c, 0, 86, 53
2, 38644, Note_on_c, 0, 74, 35
2, 38644, Note_on_c, 0, 63, 25
2, 38645, Note_on_c, 0, 53, 33
2, 38661, Control_c, 0, 64, 127
2, 38693, Note_on_c, 0, 63, 0
2, 38696, Note_on_c, 0, 53, 0
2, 38699, Note_on_c, 0, 81, 0
2, 38699, Note_on_c, 0, 86, 0
2, 38705, Note_on_c, 0, 74, 0
2, 38755, Note_on_c, 0, 61, 37
2, 38755, Note_on_c, 0, 51, 44
2, 38759, Control_c, 0, 64, 0
2, 38771, Control_c, 0, 64, 127
2, 38801, Note_on_c, 0, 77, 61
2, 38819, Note_on_c, 0, 61, 0
2, 38821, Note_on_c, 0, 77, 0
2, 38837, Note_on_c, 0, 51, 0
2, 38844, Note_on_c, 0, 88, 84
2, 38844, Note_on_c, 0, 91, 78
2, 38872, Control_c, 0, 64, 0
2, 38878, Note_on_c, 0, 50, 30
2, 38882, Note_on_c, 0, 57, 32
2, 38891, Control_c, 0, 64, 127
2, 38897, Note_on_c, 0, 60, 1
2, 38912, Note_on_c, 0, 88, 0
2, 38915, Note_on_c, 0, 50, 0
2, 38916, Note_on_c, 0, 91, 0
2, 38916, Note_on_c, 0, 57, 0
2, 38916, Note_on_c, 0, 89, 48
2, 38919, Note_on_c, 0, 86, 64
2, 38926, Note_on_c, 0, 60, 0
2, 38943, Note_on_c, 0, 86, 0
2, 38949, Note_on_c, 0, 89, 0
2, 38997, Note_on_c, 0, 77, 28
2, 38997, Note_on_c, 0, 81, 32
2, 39000, Note_on_c, 0, 57, 26
2, 39001, Note_on_c, 0, 60, 29
2, 39003, Note_on_c, 0, 64, 11
2, 39023, Note_on_c, 0, 60, 0
2, 39025, Note_on_c, 0, 64, 0
2, 39030, Note_on_c, 0, 57, 0
2, 39062, Note_on_c, 0, 81, 0
2, 39064, Note_on_c, 0, 77, 0
2, 39122, Control_c, 0, 64, 0
2, 39125, Note_on_c, 0, 49, 33
2, 39125, Note_on_c, 0, 58, 20
2, 39135, Control_c, 0, 64, 127
2, 39160, Note_on_c, 0, 49, 0
2, 39164, Note_on_c, 0, 58, 0
2, 39243, Note_on_c, 0, 64, 32
2, 39244, Note_on_c, 0, 58, 33
2, 39244, Note_on_c, 0, 61, 23
2, 39273, Note_on_c, 0, 64, 0
2, 39281, Note_on_c, 0, 61, 0
2, 39288, Note_on_c, 0, 58, 0
2, 39316, Note_on_c, 0, 94, 86
2, 39317, Note_on_c, 0, 82, 81
2, 39342, Note_on_c, 0, 94, 0
2, 39348, Note_on_c, 0, 82, 0
2, 39365, Note_on_c, 0, 48, 38
2, 39365, Note_on_c, 0, 91, 69
2, 39365, Note_on_c, 0, 86, 66
2, 39366, Note_on_c, 0, 79, 55
2, 39367, Control_c, 0, 64, 0
2, 39368, Note_on_c, 0, 58, 25
2, 39384, Control_c, 0, 64, 127
2, 39396, Note_on_c, 0, 48, 0
2, 39409, Note_on_c, 0, 86, 0
2, 39410, Note_on_c, 0, 58, 0
2, 39411, Note_on_c, 0, 91, 0
2, 39427, Note_on_c, 0, 79, 0
2, 39444, Note_on_c, 0, 89, 73
2, 39446, Note_on_c, 0, 77, 59
2, 39447, Note_on_c, 0, 84, 65
2, 39481, Control_c, 0, 64, 0
2, 39482, Note_on_c, 0, 67, 34
2, 39484, Note_on_c, 0, 58, 26
2, 39485, Note_on_c, 0, 62, 35
2, 39486, Control_c, 0, 64, 127
2, 39486, Note_on_c, 0, 63, 30
2, 39488, Note_on_c, 0, 89, 0
2, 39493, Note_on_c, 0, 84, 0
2, 39504, Note_on_c, 0, 77, 0
2, 39518, Note_on_c, 0, 67, 0
2, 39521, Note_on_c, 0, 62, 0
2, 39526, Note_on_c, 0, 63, 0
2, 39528, Note_on_c, 0, 87, 46
2, 39529, Note_on_c, 0, 75, 40
2, 39531, Note_on_c, 0, 82, 42
2, 39534, Note_on_c, 0, 58, 0
2, 39564, Note_on_c, 0, 87, 0
2, 39564, Note_on_c, 0, 82, 0
2, 39567, Note_on_c, 0, 75, 0
2, 39600, Control_c, 0, 64, 0
2, 39603, Note_on_c, 0, 86, 59
2, 39603, Note_on_c, 0, 53, 32
2, 39604, Note_on_c, 0, 74, 45
2, 39604, Note_on_c, 0, 59, 28
2, 39606, Note_on_c, 0, 62, 18
2, 39613, Control_c, 0, 64, 127
2, 39624, Note_on_c, 0, 86, 0
2, 39631, Note_on_c, 0, 74, 0
2, 39644, Note_on_c, 0, 83, 71
2, 39665, Note_on_c, 0, 83, 0
2, 39665, Note_on_c, 0, 62, 0
2, 39670, Note_on_c, 0, 59, 0
2, 39673, Note_on_c, 0, 80, 65
2, 39698, Note_on_c, 0, 80, 0
2, 39706, Note_on_c, 0, 77, 64
2, 39721, Note_on_c, 0, 62, 22
2, 39722, Note_on_c, 0, 77, 0
2, 39722, Control_c, 0, 64, 0
2, 39723, Note_on_c, 0, 59, 34
2, 39737, Note_on_c, 0, 74, 50
2, 39744, Control_c, 0, 64, 127
2, 39745, Note_on_c, 0, 62, 0
2, 39749, Note_on_c, 0, 59, 0
2, 39759, Note_on_c, 0, 74, 0
2, 39762, Note_on_c, 0, 53, 0
2, 39764, Note_on_c, 0, 71, 48
2, 39781, Note_on_c, 0, 71, 0
2, 39795, Note_on_c, 0, 68, 20
2, 39815, Note_on_c, 0, 68, 0
2, 39821, Note_on_c, 0, 74, 72
2, 39839, Control_c, 0, 64, 0
2, 39843, Note_on_c, 0, 48, 27
2, 39846, Note_on_c, 0, 72, 50
2, 39854, Note_on_c, 0, 74, 0
2, 39868, Note_on_c, 0, 72, 0
2, 39878, Note_on_c, 0, 67, 58
2, 39893, Note_on_c, 0, 67, 0
2, 39904, Note_on_c, 0, 65, 32
2, 39919, Note_on_c, 0, 55, 24
2, 39920, Note_on_c, 0, 65, 0
2, 39922, Control_c, 0, 64, 127
2, 39935, Note_on_c, 0, 63, 37
2, 39942, Note_on_c, 0, 48, 0
2, 39948, Note_on_c, 0, 55, 0
2, 39958, Note_on_c, 0, 48, 8
2, 39960, Note_on_c, 0, 63, 0
2, 39961, Note_on_c, 0, 58, 34
2, 39962, Note_on_c, 0, 62, 62
2, 39965, Control_c, 0, 64, 0
2, 39989, Note_on_c, 0, 62, 0
2, 39997, Control_c, 0, 64, 127
2, 39997, Note_on_c, 0, 65, 50
2, 40011, Note_on_c, 0, 58, 0
2, 40015, Control_c, 0, 64, 0
2, 40018, Note_on_c, 0, 48, 0
2, 40020, Note_on_c, 0, 65, 0
2, 40021, Control_c, 0, 64, 127
2, 40022, Note_on_c, 0, 63, 47
2, 40061, Note_on_c, 0, 59, 20
2, 40067, Note_on_c, 0, 63, 0
2, 40069, Note_on_c, 0, 59, 0
2, 40082, Control_c, 0, 64, 0
2, 40086, Note_on_c, 0, 47, 26
2, 40087, Note_on_c, 0, 62, 55
2, 40098, Note_on_c, 0, 55, 11
2, 40111, Control_c, 0, 64, 127
2, 40114, Note_on_c, 0, 55, 0
2, 40124, Note_on_c, 0, 56, 46
2, 40152, Note_on_c, 0, 56, 0
2, 40156, Note_on_c, 0, 62, 0
2, 40161, Note_on_c, 0, 59, 66
2, 40189, Note_on_c, 0, 59, 0
2, 40203, Note_on_c, 0, 56, 56
2, 40203, Control_c, 0, 64, 0
2, 40204, Note_on_c, 0, 62, 71
2, 40205, Note_on_c, 0, 53, 33
2, 40206, Note_on_c, 0, 59, 46
2, 40226, Control_c, 0, 64, 127
2, 40228, Note_on_c, 0, 53, 0
2, 40229, Note_on_c, 0, 56, 0
2, 40232, Note_on_c, 0, 59, 0
2, 40233, Note_on_c, 0, 62, 0
2, 40236, Note_on_c, 0, 47, 0
2, 40241, Note_on_c, 0, 63, 52
2, 40261, Control_c, 0, 64, 0
2, 40263, Note_on_c, 0, 63, 0
2, 40277, Control_c, 0, 64, 127
2, 40278, Note_on_c, 0, 47, 29
2, 40281, Note_on_c, 0, 64, 54
2, 40306, Note_on_c, 0, 64, 0
2, 40314, Control_c, 0, 64, 0
2, 40320, Note_on_c, 0, 47, 0
2, 40323, Note_on_c, 0, 65, 49
2, 40323, Note_on_c, 0, 62, 46
2, 40323, Note_on_c, 0, 58, 33
2, 40324, Note_on_c, 0, 48, 43
2, 40325, Note_on_c, 0, 55, 38
2, 40346, Control_c, 0, 64, 127
2, 40387, Note_on_c, 0, 55, 0
2, 40394, Note_on_c, 0, 62, 0
2, 40399, Note_on_c, 0, 58, 0
2, 40421, Note_on_c, 0, 65, 0
2, 40443, Note_on_c, 0, 62, 41
2, 40443, Note_on_c, 0, 58, 29
2, 40443, Note_on_c, 0, 36, 32
2, 40444, Note_on_c, 0, 55, 33
2, 40453, Note_on_c, 0, 36, 0
2, 40469, Note_on_c, 0, 48, 0
2, 40485, Note_on_c, 0, 55, 0
2, 40523, Note_on_c, 0, 58, 0
2, 40523, Note_on_c, 0, 62, 0
2, 40558, Note_on_c, 0, 41, 61
2, 40558, Control_c, 0, 64, 0
2, 40560, Note_on_c, 0, 48, 51
2, 40561, Note_on_c, 0, 57, 85
2, 40561, Note_on_c, 0, 65, 78
2, 40590, Note_on_c, 0, 65, 0
2, 40597, Note_on_c, 0, 57, 0
2, 40600, Note_on_c, 0, 65, 37
2, 40600, Note_on_c, 0, 58, 77
2, 40601, Note_on_c, 0, 49, 60
2, 40604, Note_on_c, 0, 48, 0
2, 40631, Control_c, 0, 64, 127
2, 40655, Note_on_c, 0, 49, 0
2, 40659, Note_on_c, 0, 58, 0
2, 40662, Note_on_c, 0, 65, 0
2, 40676, Note_on_c, 0, 65, 53
2, 40677, Control_c, 0, 64, 0
2, 40679, Note_on_c, 0, 59, 68
2, 40679, Note_on_c, 0, 50, 54
2, 40686, Note_on_c, 0, 41, 0
2, 40693, Control_c, 0, 64, 127
2, 40715, Note_on_c, 0, 59, 0
2, 40723, Note_on_c, 0, 60, 71
2, 40723, Control_c, 0, 64, 0
2, 40725, Note_on_c, 0, 51, 50
2, 40727, Note_on_c, 0, 50, 0
2, 40736, Control_c, 0, 64, 127
2, 40775, Note_on_c, 0, 60, 0
2, 40782, Note_on_c, 0, 65, 0
2, 40786, Note_on_c, 0, 51, 0
2, 40797, Note_on_c, 0, 62, 58
2, 40799, Note_on_c, 0, 50, 55
2, 40800, Control_c, 0, 64, 0
2, 40800, Note_on_c, 0, 57, 63
2, 40826, Control_c, 0, 64, 127
2, 40836, Note_on_c, 0, 57, 0
2, 40841, Note_on_c, 0, 62, 0
2, 40860, Note_on_c, 0, 50, 0
2, 40868, Note_on_c, 0, 62, 74
2, 40868, Note_on_c, 0, 65, 72
2, 40869, Note_on_c, 0, 60, 66
2, 40871, Note_on_c, 0, 57, 51
2, 40880, Note_on_c, 0, 60, 0
2, 40885, Note_on_c, 0, 62, 0
2, 40888, Note_on_c, 0, 65, 0
2, 40888, Note_on_c, 0, 57, 0
2, 40926, Note_on_c, 0, 69, 72
2, 40926, Note_on_c, 0, 65, 71
2, 40927, Note_on_c, 0, 62, 72
2, 40957, Note_on_c, 0, 65, 0
2, 40961, Note_on_c, 0, 62, 0
2, 40965, Note_on_c, 0, 69, 0
2, 40980, Note_on_c, 0, 72, 68
2, 40982, Note_on_c, 0, 65, 54
2, 40987, Note_on_c, 0, 65, 0
2, 40997, Note_on_c, 0, 72, 0
2, 41037, Control_c, 0, 64, 0
2, 41037, Note_on_c, 0, 61, 49
2, 41039, Note_on_c, 0, 73, 38
2, 41040, Note_on_c, 0, 69, 55
2, 41041, Note_on_c, 0, 65, 43
2, 41053, Control_c, 0, 64, 127
2, 41079, Note_on_c, 0, 65, 0
2, 41081, Note_on_c, 0, 69, 0
2, 41089, Note_on_c, 0, 73, 0
2, 41101, Note_on_c, 0, 65, 50
2, 41101, Note_on_c, 0, 73, 25
2, 41101, Note_on_c, 0, 76, 48
2, 41102, Note_on_c, 0, 69, 53
2, 41103, Note_on_c, 0, 64, 28
2, 41137, Note_on_c, 0, 65, 0
2, 41138, Note_on_c, 0, 69, 0
2, 41138, Note_on_c, 0, 64, 0
2, 41143, Note_on_c, 0, 76, 0
2, 41160, Note_on_c, 0, 76, 44
2, 41161, Control_c, 0, 64, 0
2, 41161, Note_on_c, 0, 64, 35
2, 41161, Note_on_c, 0, 65, 43
2, 41162, Note_on_c, 0, 69, 53
2, 41173, Control_c, 0, 64, 127
2, 41174, Note_on_c, 0, 61, 0
2, 41179, Note_on_c, 0, 64, 0
2, 41195, Note_on_c, 0, 65, 0
2, 41203, Note_on_c, 0, 69, 0
2, 41210, Note_on_c, 0, 76, 0
2, 41217, Note_on_c, 0, 65, 36
2, 41218, Note_on_c, 0, 62, 37
2, 41219, Note_on_c, 0, 74, 51
2, 41225, Note_on_c, 0, 65, 0
2, 41230, Note_on_c, 0, 73, 0
2, 41230, Note_on_c, 0, 62, 0
2, 41232, Note_on_c, 0, 74, 0
2, 41281, Note_on_c, 0, 50, 33
2, 41281, Note_on_c, 0, 72, 43
2, 41281, Note_on_c, 0, 77, 59
2, 41282, Note_on_c, 0, 65, 48
2, 41284, Control_c, 0, 64, 0
2, 41289, Note_on_c, 0, 59, 19
2, 41314, Control_c, 0, 64, 127
2, 41318, Note_on_c, 0, 50, 0
2, 41347, Note_on_c, 0, 72, 0
2, 41350, Note_on_c, 0, 77, 0
2, 41351, Note_on_c, 0, 59, 0
2, 41354, Note_on_c, 0, 65, 0
2, 41404, Note_on_c, 0, 65, 44
2, 41405, Note_on_c, 0, 60, 30
2, 41407, Note_on_c, 0, 54, 20
2, 41407, Note_on_c, 0, 44, 25
2, 41412, Control_c, 0, 64, 0
2, 41432, Control_c, 0, 64, 127
2, 41461, Note_on_c, 0, 54, 0
2, 41469, Note_on_c, 0, 44, 0
2, 41469, Note_on_c, 0, 65, 0
2, 41475, Note_on_c, 0, 60, 0
2, 41524, Note_on_c, 0, 59, 35
2, 41525, Note_on_c, 0, 43, 29
2, 41525, Note_on_c, 0, 64, 36
2, 41529, Note_on_c, 0, 53, 15
2, 41531, Control_c, 0, 64, 0
2, 41551, Control_c, 0, 64, 127
2, 41569, Note_on_c, 0, 64, 0
2, 41584, Note_on_c, 0, 63, 56
2, 41603, Note_on_c, 0, 53, 0
2, 41622, Note_on_c, 0, 59, 0
2, 41625, Note_on_c, 0, 63, 0
2, 41642, Note_on_c, 0, 63, 36
2, 41644, Note_on_c, 0, 53, 32
2, 41645, Note_on_c, 0, 59, 36
2, 41648, Control_c, 0, 64, 0
2, 41652, Control_c, 0, 64, 127
2, 41694, Note_on_c, 0, 63, 0
2, 41703, Note_on_c, 0, 62, 54
2, 41710, Note_on_c, 0, 43, 0
2, 41715, Note_on_c, 0, 62, 0
2, 41716, Note_on_c, 0, 53, 0
2, 41716, Note_on_c, 0, 59, 0
2, 41759, Control_c, 0, 64, 0
2, 41760, Note_on_c, 0, 62, 49
2, 41760, Note_on_c, 0, 53, 44
2, 41761, Note_on_c, 0, 48, 34
2, 41762, Note_on_c, 0, 58, 37
2, 41773, Control_c, 0, 64, 127
2, 41778, Note_on_c, 0, 53, 0
2, 41782, Note_on_c, 0, 58, 0
2, 41783, Note_on_c, 0, 62, 0
2, 41825, Note_on_c, 0, 74, 87
2, 41865, Note_on_c, 0, 74, 0
2, 41882, Note_on_c, 0, 74, 56
2, 41883, Note_on_c, 0, 70, 55
2, 41885, Note_on_c, 0, 65, 70
2, 41885, Note_on_c, 0, 60, 51
2, 41887, Control_c, 0, 64, 0
2, 41895, Control_c, 0, 64, 127
2, 41916, Note_on_c, 0, 48, 0
2, 41928, Note_on_c, 0, 74, 0
2, 41938, Note_on_c, 0, 65, 0
2, 41940, Note_on_c, 0, 48, 56
2, 41942, Note_on_c, 0, 70, 0
2, 41953, Note_on_c, 0, 48, 0
2, 41955, Note_on_c, 0, 60, 0
2, 42002, Note_on_c, 0, 66, 84
2, 42003, Note_on_c, 0, 74, 75
2, 42003, Note_on_c, 0, 58, 80
2, 42003, Note_on_c, 0, 62, 94
2, 42004, Note_on_c, 0, 69, 81
2, 42007, Control_c, 0, 64, 0
2, 42007, Note_on_c, 0, 72, 29
2, 42038, Control_c, 0, 64, 127
2, 42108, Note_on_c, 0, 72, 0
2, 42110, Note_on_c, 0, 62, 0
2, 42113, Note_on_c, 0, 58, 0
2, 42115, Note_on_c, 0, 74, 0
2, 42118, Note_on_c, 0, 66, 0
2, 42118, Note_on_c, 0, 69, 0
2, 42127, Note_on_c, 0, 74, 50
2, 42128, Note_on_c, 0, 66, 32
2, 42130, Note_on_c, 0, 62, 40
2, 42130, Note_on_c, 0, 58, 38
2, 42132, Note_on_c, 0, 69, 34
2, 42169, Note_on_c, 0, 62, 0
2, 42179, Note_on_c, 0, 69, 0
2, 42188, Note_on_c, 0, 66, 0
2, 42204, Note_on_c, 0, 58, 0
2, 42223, Note_on_c, 0, 74, 0
2, 42246, Note_on_c, 0, 68, 39
2, 42247, Note_on_c, 0, 74, 45
2, 42248, Note_on_c, 0, 54, 34
2, 42249, Note_on_c, 0, 64, 37
2, 42251, Control_c, 0, 64, 0
2, 42253, Note_on_c, 0, 60, 27
2, 42279, Control_c, 0, 64, 127
2, 42307, Note_on_c, 0, 60, 0
2, 42327, Note_on_c, 0, 68, 0
2, 42328, Note_on_c, 0, 64, 0
2, 42329, Note_on_c, 0, 74, 0
2, 42358, Note_on_c, 0, 68, 34
2, 42359, Note_on_c, 0, 60, 32
2, 42360, Note_on_c, 0, 64, 25
2, 42360, Note_on_c, 0, 74, 30
2, 42383, Note_on_c, 0, 64, 0
2, 42402, Note_on_c, 0, 54, 0
2, 42420, Note_on_c, 0, 60, 0
2, 42435, Note_on_c, 0, 68, 0
2, 42435, Note_on_c, 0, 74, 0
2, 42475, Control_c, 0, 64, 0
2, 42478, Note_on_c, 0, 63, 28
2, 42479, Note_on_c, 0, 69, 46
2, 42479, Note_on_c, 0, 74, 40
2, 42480, Note_on_c, 0, 65, 26
2, 42480, Note_on_c, 0, 58, 27
2, 42483, Note_on_c, 0, 53, 20
2, 42492, Control_c, 0, 64, 127
2, 42511, Note_on_c, 0, 65, 0
2, 42534, Note_on_c, 0, 69, 0
2, 42544, Note_on_c, 0, 63, 0
2, 42554, Note_on_c, 0, 74, 0
2, 42597, Note_on_c, 0, 65, 64
2, 42599, Note_on_c, 0, 63, 29
2, 42613, Note_on_c, 0, 63, 0
2, 42613, Note_on_c, 0, 65, 0
2, 42632, Note_on_c, 0, 67, 56
2, 42637, Note_on_c, 0, 53, 0
2, 42642, Note_on_c, 0, 58, 0
2, 42656, Note_on_c, 0, 67, 0
2, 42780, Note_on_c, 0, 72, 61
2, 42780, Note_on_c, 0, 69, 66
2, 42781, Note_on_c, 0, 54, 49
2, 42781, Note_on_c, 0, 46, 42
2, 42781, Note_on_c, 0, 66, 53
2, 42782, Note_on_c, 0, 62, 62
2, 42784, Control_c, 0, 64, 0
2, 42807, Control_c, 0, 64, 127
2, 42821, Note_on_c, 0, 69, 0
2, 42822, Note_on_c, 0, 62, 0
2, 42827, Note_on_c, 0, 72, 0
2, 42835, Note_on_c, 0, 66, 0
2, 42845, Note_on_c, 0, 54, 0
2, 42845, Control_c, 0, 64, 0
2, 42845, Note_on_c, 0, 70, 50
2, 42847, Note_on_c, 0, 62, 36
2, 42848, Note_on_c, 0, 55, 51
2, 42850, Note_on_c, 0, 65, 37
2, 42869, Control_c, 0, 64, 127
2, 42894, Note_on_c, 0, 70, 0
2, 42908, Note_on_c, 0, 55, 0
2, 42909, Note_on_c, 0, 70, 59
2, 42916, Note_on_c, 0, 46, 0
2, 42916, Note_on_c, 0, 62, 0
2, 42917, Note_on_c, 0, 65, 0
2, 42928, Note_on_c, 0, 70, 0
2, 42967, Note_on_c, 0, 39, 51
2, 42975, Control_c, 0, 64, 0
2, 42992, Control_c, 0, 64, 127
2, 43028, Note_on_c, 0, 47, 44
2, 43030, Note_on_c, 0, 55, 51
2, 43031, Note_on_c, 0, 67, 50
2, 43031, Note_on_c, 0, 62, 59
2, 43031, Note_on_c, 0, 59, 57
2, 43031, Control_c, 0, 64, 0
2, 43053, Control_c, 0, 64, 127
2, 43085, Note_on_c, 0, 47, 0
2, 43092, Control_c, 0, 64, 0
2, 43094, Note_on_c, 0, 50, 84
2, 43113, Control_c, 0, 64, 127
2, 43141, Note_on_c, 0, 50, 0
2, 43145, Note_on_c, 0, 59, 0
2, 43156, Note_on_c, 0, 48, 69
2, 43157, Control_c, 0, 64, 0
2, 43158, Control_c, 0, 64, 127
2, 43160, Note_on_c, 0, 67, 0
2, 43160, Note_on_c, 0, 62, 0
2, 43163, Note_on_c, 0, 55, 0
2, 43192, Note_on_c, 0, 39, 0
2, 43209, Control_c, 0, 64, 0
2, 43211, Note_on_c, 0, 48, 0
2, 43212, Note_on_c, 0, 38, 62
2, 43214, Note_on_c, 0, 60, 79
2, 43215, Note_on_c, 0, 53, 68
2, 43215, Note_on_c, 0, 57, 69
2, 43236, Control_c, 0, 64, 127
2, 43273, Note_on_c, 0, 45, 58
2, 43276, Note_on_c, 0, 38, 0
2, 43286, Note_on_c, 0, 45, 0
2, 43305, Note_on_c, 0, 60, 0
2, 43310, Note_on_c, 0, 57, 0
2, 43312, Note_on_c, 0, 53, 0
2, 43328, Note_on_c, 0, 56, 48
2, 43328, Note_on_c, 0, 53, 62
2, 43328, Note_on_c, 0, 59, 66
2, 43329, Note_on_c, 0, 50, 63
2, 43336, Control_c, 0, 64, 0
2, 43360, Control_c, 0, 64, 127
2, 43385, Note_on_c, 0, 43, 55
2, 43391, Note_on_c, 0, 50, 0
2, 43393, Note_on_c, 0, 53, 0
2, 43402, Note_on_c, 0, 59, 0
2, 43405, Note_on_c, 0, 56, 0
2, 43432, Note_on_c, 0, 43, 0
2, 43445, Note_on_c, 0, 59, 54
2, 43445, Control_c, 0, 64, 0
2, 43446, Note_on_c, 0, 52, 51
2, 43446, Note_on_c, 0, 56, 43
2, 43447, Note_on_c, 0, 49, 45
2, 43467, Control_c, 0, 64, 127
2, 43513, Note_on_c, 0, 49, 0
2, 43520, Note_on_c, 0, 56, 0
2, 43521, Note_on_c, 0, 59, 0
2, 43524, Note_on_c, 0, 52, 0
2, 43567, Note_on_c, 0, 42, 28
2, 43568, Control_c, 0, 64, 0
2, 43590, Control_c, 0, 64, 127
2, 43605, Note_on_c, 0, 42, 0
2, 43628, Note_on_c, 0, 25, 39
2, 43654, Note_on_c, 0, 25, 0
2, 43678, Control_c, 0, 64, 0
2, 43682, Note_on_c, 0, 24, 52
2, 43684, Note_on_c, 0, 51, 35
2, 43686, Note_on_c, 0, 36, 35
2, 43690, Note_on_c, 0, 63, 15
2, 43691, Note_on_c, 0, 58, 26
2, 43695, Note_on_c, 0, 36, 0
2, 43697, Note_on_c, 0, 24, 0
2, 43698, Note_on_c, 0, 51, 0
2, 43698, Control_c, 0, 64, 127
2, 43700, Note_on_c, 0, 58, 0
2, 43708, Note_on_c, 0, 63, 0
2, 43807, Note_on_c, 0, 72, 64
2, 43807, Note_on_c, 0, 67, 50
2, 43807, Note_on_c, 0, 62, 51
2, 43809, Note_on_c, 0, 58, 23
2, 43809, Note_on_c, 0, 63, 31
2, 43811, Control_c, 0, 64, 0
2, 43812, Note_on_c, 0, 67, 0
2, 43816, Note_on_c, 0, 63, 0
2, 43817, Note_on_c, 0, 58, 0
2, 43819, Note_on_c, 0, 62, 0
2, 43833, Control_c, 0, 64, 127
2, 43867, Note_on_c, 0, 74, 60
2, 43875, Note_on_c, 0, 72, 0
2, 43888, Note_on_c, 0, 75, 52
2, 43895, Note_on_c, 0, 74, 0
2, 43900, Note_on_c, 0, 76, 74
2, 43901, Note_on_c, 0, 75, 0
2, 43913, Note_on_c, 0, 76, 0
2, 43919, Note_on_c, 0, 77, 85
2, 43919, Control_c, 0, 64, 0
2, 43922, Note_on_c, 0, 67, 60
2, 43923, Note_on_c, 0, 63, 48
2, 43926, Note_on_c, 0, 57, 40
2, 43944, Control_c, 0, 64, 127
2, 43963, Note_on_c, 0, 67, 0
2, 43973, Note_on_c, 0, 63, 0
2, 43974, Note_on_c, 0, 57, 0
2, 43979, Note_on_c, 0, 72, 57
2, 43992, Note_on_c, 0, 77, 0
2, 44001, Note_on_c, 0, 72, 0
2, 44038, Note_on_c, 0, 77, 64
2, 44039, Note_on_c, 0, 72, 55
2, 44040, Note_on_c, 0, 65, 58
2, 44042, Control_c, 0, 64, 0
2, 44082, Control_c, 0, 64, 127
2, 44094, Note_on_c, 0, 51, 45
2, 44097, Note_on_c, 0, 65, 0
2, 44102, Note_on_c, 0, 77, 0
2, 44103, Note_on_c, 0, 72, 0
2, 44120, Note_on_c, 0, 51, 0
2, 44157, Control_c, 0, 64, 0
2, 44159, Note_on_c, 0, 79, 51
2, 44162, Note_on_c, 0, 72, 33
2, 44162, Note_on_c, 0, 65, 36
2, 44162, Note_on_c, 0, 50, 25
2, 44163, Note_on_c, 0, 57, 34
2, 44163, Note_on_c, 0, 60, 32
2, 44184, Control_c, 0, 64, 127
2, 44210, Note_on_c, 0, 65, 0
2, 44221, Note_on_c, 0, 57, 0
2, 44223, Note_on_c, 0, 60, 0
2, 44226, Note_on_c, 0, 72, 0
2, 44254, Note_on_c, 0, 79, 0
2, 44279, Note_on_c, 0, 57, 37
2, 44282, Note_on_c, 0, 60, 22
2, 44325, Note_on_c, 0, 57, 0
2, 44325, Note_on_c, 0, 50, 0
2, 44331, Note_on_c, 0, 60, 0
2, 44339, Note_on_c, 0, 80, 83
2, 44365, Note_on_c, 0, 80, 0
2, 44374, Note_on_c, 0, 88, 87
2, 44397, Note_on_c, 0, 88, 0
2, 44403, Control_c, 0, 64, 0
2, 44406, Note_on_c, 0, 86, 76
2, 44406, Note_on_c, 0, 64, 29
2, 44408, Note_on_c, 0, 53, 24
2, 44408, Note_on_c, 0, 59, 41
2, 44425, Control_c, 0, 64, 127
2, 44448, Note_on_c, 0, 86, 0
2, 44454, Note_on_c, 0, 80, 56
2, 44474, Note_on_c, 0, 64, 0
2, 44481, Note_on_c, 0, 59, 0
2, 44484, Note_on_c, 0, 80, 0
2, 44521, Note_on_c, 0, 62, 38
2, 44525, Note_on_c, 0, 59, 30
2, 44560, Note_on_c, 0, 74, 80
2, 44564, Note_on_c, 0, 62, 0
2, 44567, Note_on_c, 0, 59, 0
2, 44580, Note_on_c, 0, 53, 0
2, 44584, Note_on_c, 0, 74, 0
2, 44588, Note_on_c, 0, 77, 74
2, 44607, Note_on_c, 0, 77, 0
2, 44616, Note_on_c, 0, 75, 70
2, 44636, Note_on_c, 0, 75, 0
2, 44639, Note_on_c, 0, 67, 49
2, 44647, Note_on_c, 0, 48, 28
2, 44648, Note_on_c, 0, 58, 17
2, 44653, Control_c, 0, 64, 0
2, 44659, Note_on_c, 0, 67, 0
2, 44665, Note_on_c, 0, 74, 60
2, 44682, Note_on_c, 0, 74, 0
2, 44688, Note_on_c, 0, 72, 41
2, 44700, Note_on_c, 0, 58, 0
2, 44710, Note_on_c, 0, 72, 0
2, 44712, Note_on_c, 0, 67, 54
2, 44728, Note_on_c, 0, 67, 0
2, 44734, Note_on_c, 0, 65, 53
2, 44744, Control_c, 0, 64, 127
2, 44748, Note_on_c, 0, 65, 0
2, 44755, Note_on_c, 0, 63, 36
2, 44761, Control_c, 0, 64, 0
2, 44771, Note_on_c, 0, 63, 0
2, 44784, Note_on_c, 0, 62, 28
2, 44795, Note_on_c, 0, 62, 0
2, 44801, Note_on_c, 0, 65, 53
2, 44819, Note_on_c, 0, 65, 0
2, 44821, Note_on_c, 0, 48, 0
2, 44824, Note_on_c, 0, 62, 32
2, 44836, Note_on_c, 0, 62, 0
2, 44844, Note_on_c, 0, 63, 44
2, 44858, Control_c, 0, 64, 127
2, 44866, Note_on_c, 0, 63, 0
2, 44889, Note_on_c, 0, 55, 5
2, 44891, Control_c, 0, 64, 0
2, 44894, Note_on_c, 0, 51, 18
2, 44895, Note_on_c, 0, 41, 20
2, 44926, Control_c, 0, 64, 127
2, 44933, Note_on_c, 0, 41, 0
2, 44960, Note_on_c, 0, 51, 0
2, 44961, Note_on_c, 0, 55, 0
2, 44996, Note_on_c, 0, 51, 27
2, 44998, Note_on_c, 0, 57, 44
2, 45000, Note_on_c, 0, 47, 31
2, 45004, Control_c, 0, 64, 0
2, 45019, Control_c, 0, 64, 127
2, 45033, Note_on_c, 0, 47, 0
2, 45046, Note_on_c, 0, 57, 0
2, 45046, Note_on_c, 0, 51, 0
2, 45119, Control_c, 0, 64, 0
2, 45119, Note_on_c, 0, 62, 43
2, 45120, Note_on_c, 0, 46, 29
2, 45120, Note_on_c, 0, 58, 28
2, 45122, Note_on_c, 0, 53, 29
2, 45122, Note_on_c, 0, 57, 24
2, 45138, Control_c, 0, 64, 127
2, 45152, Note_on_c, 0, 58, 0
2, 45153, Note_on_c, 0, 62, 0
2, 45166, Note_on_c, 0, 57, 0
2, 45181, Note_on_c, 0, 53, 0
2, 45181, Note_on_c, 0, 54, 52
2, 45181, Note_on_c, 0, 57, 51
2, 45181, Note_on_c, 0, 66, 39
2, 45183, Note_on_c, 0, 62, 54
2, 45203, Note_on_c, 0, 57, 0
2, 45208, Note_on_c, 0, 62, 0
2, 45222, Note_on_c, 0, 66, 0
2, 45227, Note_on_c, 0, 54, 0
2, 45236, Note_on_c, 0, 66, 50
2, 45237, Note_on_c, 0, 57, 58
2, 45238, Note_on_c, 0, 69, 60
2, 45238, Note_on_c, 0, 62, 68
2, 45242, Control_c, 0, 64, 0
2, 45266, Control_c, 0, 64, 127
2, 45270, Note_on_c, 0, 57, 0
2, 45280, Note_on_c, 0, 66, 0
2, 45281, Note_on_c, 0, 62, 0
2, 45285, Note_on_c, 0, 69, 0
2, 45300, Note_on_c, 0, 67, 58
2, 45300, Note_on_c, 0, 62, 66
2, 45301, Control_c, 0, 64, 0
2, 45302, Note_on_c, 0, 55, 55
2, 45304, Note_on_c, 0, 60, 54
2, 45312, Note_on_c, 0, 60, 0
2, 45314, Control_c, 0, 64, 127
2, 45317, Note_on_c, 0, 62, 0
2, 45320, Note_on_c, 0, 55, 0
2, 45321, Note_on_c, 0, 67, 0
2, 45357, Control_c, 0, 64, 0
2, 45360, Note_on_c, 0, 72, 66
2, 45362, Note_on_c, 0, 66, 67
2, 45363, Note_on_c, 0, 69, 62
2, 45363, Note_on_c, 0, 62, 71
2, 45363, Note_on_c, 0, 57, 60
2, 45376, Control_c, 0, 64, 127
2, 45408, Note_on_c, 0, 57, 0
2, 45431, Note_on_c, 0, 69, 0
2, 45440, Note_on_c, 0, 62, 0
2, 45442, Note_on_c, 0, 66, 0
2, 45461, Note_on_c, 0, 72, 0
2, 45484, Note_on_c, 0, 70, 48
2, 45487, Note_on_c, 0, 62, 34
2, 45488, Note_on_c, 0, 65, 46
2, 45490, Note_on_c, 0, 55, 41
2, 45496, Control_c, 0, 64, 0
2, 45506, Control_c, 0, 64, 127
2, 45507, Note_on_c, 0, 46, 0
2, 45521, Note_on_c, 0, 65, 0
2, 45525, Note_on_c, 0, 62, 0
2, 45548, Note_on_c, 0, 70, 0
2, 45548, Note_on_c, 0, 46, 49
2, 45555, Note_on_c, 0, 55, 0
2, 45561, Note_on_c, 0, 46, 0
2, 45606, Note_on_c, 0, 74, 63
2, 45609, Note_on_c, 0, 67, 55
2, 45609, Note_on_c, 0, 63, 44
2, 45610, Control_c, 0, 64, 0
2, 45613, Note_on_c, 0, 62, 50
2, 45664, Control_c, 0, 64, 127
2, 45664, Note_on_c, 0, 50, 31
2, 45685, Note_on_c, 0, 62, 0
2, 45687, Note_on_c, 0, 67, 0
2, 45699, Note_on_c, 0, 63, 0
2, 45700, Note_on_c, 0, 74, 0
2, 45724, Note_on_c, 0, 73, 42
2, 45725, Note_on_c, 0, 63, 48
2, 45727, Note_on_c, 0, 62, 50
2, 45729, Note_on_c, 0, 67, 48
2, 45755, Note_on_c, 0, 50, 0
2, 45765, Note_on_c, 0, 73, 0
2, 45773, Note_on_c, 0, 63, 0
2, 45779, Note_on_c, 0, 67, 0
2, 45782, Note_on_c, 0, 50, 44
2, 45782, Note_on_c, 0, 74, 62
2, 45786, Note_on_c, 0, 62, 0
2, 45803, Note_on_c, 0, 74, 0
2, 45840, Note_on_c, 0, 74, 60
2, 45843, Control_c, 0, 64, 0
2, 45843, Note_on_c, 0, 66, 37
2, 45844, Note_on_c, 0, 60, 32
2, 45844, Note_on_c, 0, 63, 33
2, 45845, Note_on_c, 0, 69, 42
2, 45872, Control_c, 0, 64, 127
2, 45874, Note_on_c, 0, 50, 0
2, 45901, Note_on_c, 0, 50, 39
2, 45906, Note_on_c, 0, 60, 0
2, 45913, Note_on_c, 0, 69, 0
2, 45919, Note_on_c, 0, 63, 0
2, 45928, Note_on_c, 0, 66, 0
2, 45942, Note_on_c, 0, 74, 0
2, 45963, Note_on_c, 0, 66, 38
2, 45964, Note_on_c, 0, 63, 31
2, 45964, Note_on_c, 0, 62, 36
2, 45967, Note_on_c, 0, 72, 40
2, 45998, Note_on_c, 0, 50, 0
2, 46009, Note_on_c, 0, 62, 0
2, 46012, Note_on_c, 0, 72, 0
2, 46021, Note_on_c, 0, 74, 60
2, 46022, Note_on_c, 0, 50, 40
2, 46028, Note_on_c, 0, 50, 0
2, 46031, Note_on_c, 0, 63, 0
2, 46037, Note_on_c, 0, 66, 0
2, 46041, Note_on_c, 0, 74, 0
2, 46080, Note_on_c, 0, 70, 32
2, 46081, Note_on_c, 0, 76, 43
2, 46084, Note_on_c, 0, 67, 26
2, 46085, Note_on_c, 0, 55, 40
2, 46087, Control_c, 0, 64, 0
2, 46111, Control_c, 0, 64, 127
2, 46137, Note_on_c, 0, 62, 41
2, 46158, Note_on_c, 0, 67, 0
2, 46166, Note_on_c, 0, 70, 0
2, 46176, Note_on_c, 0, 55, 0
2, 46177, Note_on_c, 0, 62, 0
2, 46187, Note_on_c, 0, 76, 0
2, 46190, Note_on_c, 0, 55, 19
2, 46197, Note_on_c, 0, 70, 36
2, 46197, Note_on_c, 0, 73, 35
2, 46197, Note_on_c, 0, 67, 48
2, 46198, Note_on_c, 0, 63, 39
2, 46229, Note_on_c, 0, 63, 0
2, 46251, Note_on_c, 0, 73, 0
2, 46255, Note_on_c, 0, 74, 66
2, 46256, Note_on_c, 0, 62, 47
2, 46263, Note_on_c, 0, 67, 0
2, 46269, Note_on_c, 0, 55, 0
2, 46269, Note_on_c, 0, 70, 0
2, 46270, Note_on_c, 0, 74, 0
2, 46273, Note_on_c, 0, 62, 0
2, 46315, Note_on_c, 0, 62, 63
2, 46316, Note_on_c, 0, 74, 73
2, 46316, Note_on_c, 0, 81, 74
2, 46317, Note_on_c, 0, 54, 43
2, 46318, Note_on_c, 0, 69, 58
2, 46324, Control_c, 0, 64, 0
2, 46348, Control_c, 0, 64, 127
2, 46370, Note_on_c, 0, 54, 0
2, 46376, Note_on_c, 0, 54, 34
2, 46400, Note_on_c, 0, 69, 0
2, 46407, Note_on_c, 0, 74, 0
2, 46421, Note_on_c, 0, 62, 0
2, 46422, Note_on_c, 0, 81, 0
2, 46423, Note_on_c, 0, 54, 0
2, 46437, Note_on_c, 0, 53, 36
2, 46439, Note_on_c, 0, 69, 49
2, 46440, Note_on_c, 0, 79, 53
2, 46440, Note_on_c, 0, 74, 51
2, 46441, Note_on_c, 0, 62, 48
2, 46449, Control_c, 0, 64, 0
2, 46461, Control_c, 0, 64, 127
2, 46500, Note_on_c, 0, 69, 0
2, 46506, Note_on_c, 0, 58, 29
2, 46512, Note_on_c, 0, 74, 0
2, 46513, Note_on_c, 0, 62, 0
2, 46515, Note_on_c, 0, 53, 0
2, 46519, Note_on_c, 0, 58, 0
2, 46521, Note_on_c, 0, 79, 0
2, 46562, Note_on_c, 0, 81, 58
2, 46563, Control_c, 0, 64, 0
2, 46565, Note_on_c, 0, 74, 57
2, 46567, Note_on_c, 0, 58, 25
2, 46568, Note_on_c, 0, 48, 34
2, 46569, Note_on_c, 0, 69, 53
2, 46583, Control_c, 0, 64, 127
2, 46595, Note_on_c, 0, 58, 0
2, 46600, Note_on_c, 0, 81, 0
2, 46603, Note_on_c, 0, 74, 0
2, 46611, Note_on_c, 0, 69, 0
2, 46629, Note_on_c, 0, 55, 31
2, 46682, Note_on_c, 0, 55, 0
2, 46685, Note_on_c, 0, 69, 74
2, 46688, Note_on_c, 0, 62, 61
2, 46689, Note_on_c, 0, 58, 47
2, 46691, Note_on_c, 0, 65, 45
2, 46693, Note_on_c, 0, 57, 44
2, 46694, Note_on_c, 0, 48, 0
2, 46717, Note_on_c, 0, 69, 0
2, 46728, Note_on_c, 0, 58, 0
2, 46729, Note_on_c, 0, 65, 0
2, 46737, Note_on_c, 0, 69, 74
2, 46746, Note_on_c, 0, 57, 0
2, 46760, Note_on_c, 0, 69, 0
2, 46763, Note_on_c, 0, 62, 0
2, 46771, Note_on_c, 0, 67, 56
2, 46796, Note_on_c, 0, 67, 0
2, 46809, Note_on_c, 0, 48, 57
2, 46809, Note_on_c, 0, 69, 66
2, 46810, Note_on_c, 0, 66, 56
2, 46811, Note_on_c, 0, 62, 66
2, 46814, Control_c, 0, 64, 0
2, 46853, Control_c, 0, 64, 127
2, 46869, Note_on_c, 0, 58, 67
2, 46906, Note_on_c, 0, 62, 0
2, 46914, Note_on_c, 0, 66, 0
2, 46915, Note_on_c, 0, 69, 0
2, 46928, Note_on_c, 0, 69, 47
2, 46929, Note_on_c, 0, 66, 33
2, 46931, Note_on_c, 0, 62, 51
2, 46944, Note_on_c, 0, 48, 0
2, 46987, Note_on_c, 0, 58, 0
2, 46988, Note_on_c, 0, 48, 36
2, 46991, Note_on_c, 0, 62, 0
2, 47009, Note_on_c, 0, 69, 0
2, 47023, Note_on_c, 0, 66, 0
2, 47048, Note_on_c, 0, 67, 58
2, 47050, Note_on_c, 0, 58, 34
2, 47050, Note_on_c, 0, 63, 48
2, 47050, Control_c, 0, 64, 0
2, 47053, Note_on_c, 0, 55, 42
2, 47077, Control_c, 0, 64, 127
2, 47091, Note_on_c, 0, 67, 0
2, 47108, Note_on_c, 0, 67, 55
2, 47140, Note_on_c, 0, 67, 0
2, 47170, Note_on_c, 0, 67, 40
2, 47177, Note_on_c, 0, 55, 0
2, 47177, Note_on_c, 0, 63, 0
2, 47187, Note_on_c, 0, 48, 0
2, 47188, Note_on_c, 0, 67, 0
2, 47206, Note_on_c, 0, 58, 0
2, 47223, Note_on_c, 0, 62, 44
2, 47233, Note_on_c, 0, 62, 0
2, 47284, Note_on_c, 0, 63, 37
2, 47284, Note_on_c, 0, 43, 38
2, 47287, Note_on_c, 0, 56, 20
2, 47287, Note_on_c, 0, 59, 43
2, 47288, Note_on_c, 0, 50, 19
2, 47290, Control_c, 0, 64, 0
2, 47317, Control_c, 0, 64, 127
2, 47335, Note_on_c, 0, 43, 0
2, 47361, Note_on_c, 0, 56, 0
2, 47371, Note_on_c, 0, 59, 0
2, 47388, Note_on_c, 0, 63, 0
2, 47405, Note_on_c, 0, 56, 20
2, 47406, Note_on_c, 0, 62, 36
2, 47406, Note_on_c, 0, 53, 34
2, 47407, Note_on_c, 0, 59, 36
2, 47408, Note_on_c, 0, 50, 0
2, 47409, Control_c, 0, 64, 0
2, 47420, Note_on_c, 0, 53, 0
2, 47424, Control_c, 0, 64, 127
2, 47458, Note_on_c, 0, 56, 0
2, 47460, Note_on_c, 0, 59, 0
2, 47470, Note_on_c, 0, 62, 0
2, 47520, Note_on_c, 0, 65, 38
2, 47522, Note_on_c, 0, 58, 39
2, 47524, Note_on_c, 0, 48, 26
2, 47526, Control_c, 0, 64, 0
2, 47527, Note_on_c, 0, 55, 31
2, 47527, Note_on_c, 0, 36, 29
2, 47539, Control_c, 0, 64, 127
2, 47540, Note_on_c, 0, 55, 0
2, 47542, Note_on_c, 0, 36, 0
2, 47554, Note_on_c, 0, 48, 0
2, 47556, Note_on_c, 0, 58, 0
2, 47561, Note_on_c, 0, 65, 0
2, 47641, Note_on_c, 0, 67, 34
2, 47643, Note_on_c, 0, 63, 28
2, 47644, Note_on_c, 0, 58, 27
2, 47646, Note_on_c, 0, 62, 37
2, 47679, Note_on_c, 0, 67, 0
2, 47688, Note_on_c, 0, 62, 0
2, 47690, Note_on_c, 0, 63, 0
2, 47697, Note_on_c, 0, 58, 0
2, 47701, Note_on_c, 0, 77, 74
2, 47723, Note_on_c, 0, 77, 0
2, 47725, Note_on_c, 0, 76, 63
2, 47743, Note_on_c, 0, 76, 0
2, 47752, Control_c, 0, 64, 0
2, 47755, Note_on_c, 0, 47, 36
2, 47755, Note_on_c, 0, 77, 68
2, 47755, Note_on_c, 0, 56, 27
2, 47775, Control_c, 0, 64, 127
2, 47783, Note_on_c, 0, 47, 0
2, 47792, Note_on_c, 0, 56, 0
2, 47873, Note_on_c, 0, 71, 46
2, 47874, Note_on_c, 0, 77, 0
2, 47876, Note_on_c, 0, 62, 24
2, 47877, Note_on_c, 0, 65, 34
2, 47878, Note_on_c, 0, 56, 18
2, 47879, Note_on_c, 0, 59, 32
2, 47896, Note_on_c, 0, 65, 0
2, 47907, Note_on_c, 0, 77, 62
2, 47914, Note_on_c, 0, 62, 0
2, 47915, Note_on_c, 0, 59, 0
2, 47918, Note_on_c, 0, 71, 0
2, 47924, Note_on_c, 0, 56, 0
2, 47943, Note_on_c, 0, 77, 0
2, 47958, Note_on_c, 0, 77, 66
2, 47963, Note_on_c, 0, 76, 30
2, 47968, Note_on_c, 0, 76, 0
2, 47983, Note_on_c, 0, 77, 0
2, 47990, Note_on_c, 0, 48, 46
2, 47994, Note_on_c, 0, 58, 20
2, 47997, Control_c, 0, 64, 0
2, 48011, Note_on_c, 0, 77, 71
2, 48013, Control_c, 0, 64, 127
2, 48020, Note_on_c, 0, 48, 0
2, 48034, Note_on_c, 0, 58, 0
2, 48106, Note_on_c, 0, 77, 0
2, 48106, Note_on_c, 0, 67, 34
2, 48112, Note_on_c, 0, 63, 25
2, 48114, Note_on_c, 0, 58, 18
2, 48114, Note_on_c, 0, 62, 30
2, 48124, Note_on_c, 0, 67, 0
2, 48128, Note_on_c, 0, 62, 0
2, 48132, Note_on_c, 0, 63, 0
2, 48143, Note_on_c, 0, 58, 0
2, 48176, Note_on_c, 0, 65, 54
2, 48196, Note_on_c, 0, 65, 0
2, 48233, Note_on_c, 0, 62, 47
2, 48235, Note_on_c, 0, 66, 32
2, 48236, Note_on_c, 0, 51, 31
2, 48238, Note_on_c, 0, 57, 34
2, 48247, Control_c, 0, 64, 0
2, 48280, Control_c, 0, 64, 127
2, 48324, Note_on_c, 0, 57, 0
2, 48337, Note_on_c, 0, 62, 0
2, 48341, Note_on_c, 0, 51, 0
2, 48352, Note_on_c, 0, 66, 0
2, 48359, Note_on_c, 0, 65, 32
2, 48359, Note_on_c, 0, 51, 28
2, 48360, Note_on_c, 0, 57, 40
2, 48360, Note_on_c, 0, 62, 30
2, 48401, Note_on_c, 0, 57, 0
2, 48420, Note_on_c, 0, 62, 0
2, 48424, Note_on_c, 0, 51, 55
2, 48441, Note_on_c, 0, 51, 0
2, 48445, Note_on_c, 0, 65, 0
2, 48449, Note_on_c, 0, 51, 0
2, 48482, Note_on_c, 0, 50, 39
2, 48484, Note_on_c, 0, 65, 46
2, 48484, Note_on_c, 0, 60, 44
2, 48487, Control_c, 0, 64, 0
2, 48514, Control_c, 0, 64, 127
2, 48534, Note_on_c, 0, 60, 0
2, 48545, Note_on_c, 0, 50, 0
2, 48546, Note_on_c, 0, 57, 57
2, 48548, Note_on_c, 0, 65, 0
2, 48563, Note_on_c, 0, 57, 0
2, 48604, Note_on_c, 0, 69, 68
2, 48604, Note_on_c, 0, 65, 64
2, 48606, Note_on_c, 0, 60, 50
2, 48621, Note_on_c, 0, 69, 0
2, 48644, Note_on_c, 0, 65, 0
2, 48655, Note_on_c, 0, 60, 0
2, 48659, Note_on_c, 0, 79, 84
2, 48686, Note_on_c, 0, 79, 0
2, 48718, Note_on_c, 0, 49, 39
2, 48718, Note_on_c, 0, 81, 62
2, 48721, Note_on_c, 0, 57, 42
2, 48722, Control_c, 0, 64, 0
2, 48745, Control_c, 0, 64, 127
2, 48759, Note_on_c, 0, 49, 0
2, 48764, Note_on_c, 0, 57, 0
2, 48780, Note_on_c, 0, 61, 46
2, 48834, Note_on_c, 0, 81, 0
2, 48838, Note_on_c, 0, 73, 27
2, 48838, Note_on_c, 0, 69, 43
2, 48842, Note_on_c, 0, 64, 34
2, 48855, Note_on_c, 0, 61, 0
2, 48858, Note_on_c, 0, 64, 0
2, 48893, Note_on_c, 0, 69, 0
2, 48898, Note_on_c, 0, 81, 55
2, 48901, Note_on_c, 0, 73, 0
2, 48930, Note_on_c, 0, 81, 0
2, 48956, Note_on_c, 0, 48, 36
2, 48958, Note_on_c, 0, 81, 46
2, 48962, Note_on_c, 0, 69, 32
2, 48963, Note_on_c, 0, 57, 36
2, 48963, Control_c, 0, 64, 0
2, 48978, Control_c, 0, 64, 127
2, 49003, Note_on_c, 0, 48, 0
2, 49005, Note_on_c, 0, 81, 0
2, 49011, Note_on_c, 0, 57, 0
2, 49020, Note_on_c, 0, 69, 0
2, 49147, Note_on_c, 0, 54, 29
2, 49148, Note_on_c, 0, 69, 36
2, 49150, Control_c, 0, 64, 0
2, 49150, Note_on_c, 0, 65, 17
2, 49152, Note_on_c, 0, 60, 30
2, 49155, Control_c, 0, 64, 127
2, 49175, Note_on_c, 0, 65, 0
2, 49176, Note_on_c, 0, 60, 0
2, 49196, Note_on_c, 0, 54, 0
2, 49208, Note_on_c, 0, 70, 57
2, 49210, Note_on_c, 0, 69, 0
2, 49212, Note_on_c, 0, 64, 33
2, 49215, Note_on_c, 0, 59, 45
2, 49216, Note_on_c, 0, 53, 25
2, 49217, Control_c, 0, 64, 0
2, 49219, Note_on_c, 0, 70, 0
2, 49221, Note_on_c, 0, 71, 52
2, 49251, Control_c, 0, 64, 127
2, 49266, Note_on_c, 0, 76, 80
2, 49314, Note_on_c, 0, 64, 0
2, 49318, Note_on_c, 0, 76, 0
2, 49326, Note_on_c, 0, 71, 0
2, 49378, Note_on_c, 0, 75, 69
2, 49382, Note_on_c, 0, 59, 0
2, 49397, Note_on_c, 0, 53, 0
2, 49401, Note_on_c, 0, 75, 0
2, 49410, Note_on_c, 0, 74, 64
2, 49435, Note_on_c, 0, 74, 0
2, 49446, Note_on_c, 0, 74, 60
2, 49447, Note_on_c, 0, 48, 33
2, 49450, Control_c, 0, 64, 0
2, 49450, Note_on_c, 0, 58, 28
2, 49475, Control_c, 0, 64, 127
2, 49499, Note_on_c, 0, 58, 0
2, 49504, Note_on_c, 0, 62, 33
2, 49509, Note_on_c, 0, 74, 0
2, 49543, Note_on_c, 0, 62, 0
2, 49567, Note_on_c, 0, 72, 22
2, 49569, Note_on_c, 0, 65, 30
2, 49569, Note_on_c, 0, 58, 23
2, 49570, Note_on_c, 0, 62, 29
2, 49614, Note_on_c, 0, 72, 0
2, 49619, Note_on_c, 0, 62, 0
2, 49622, Note_on_c, 0, 65, 0
2, 49627, Note_on_c, 0, 70, 52
2, 49628, Note_on_c, 0, 48, 0
2, 49634, Note_on_c, 0, 58, 0
2, 49649, Note_on_c, 0, 70, 0
2, 49684, Control_c, 0, 64, 0
2, 49684, Note_on_c, 0, 74, 57
2, 49685, Note_on_c, 0, 62, 47
2, 49685, Note_on_c, 0, 66, 36
2, 49688, Note_on_c, 0, 69, 44
2, 49689, Note_on_c, 0, 58, 34
2, 49714, Control_c, 0, 64, 127
2, 49733, Note_on_c, 0, 58, 0
2, 49754, Note_on_c, 0, 58, 52
2, 49767, Note_on_c, 0, 62, 0
2, 49767, Note_on_c, 0, 69, 0
2, 49772, Note_on_c, 0, 66, 0
2, 49806, Note_on_c, 0, 74, 0
2, 49867, Note_on_c, 0, 58, 0
2, 49870, Note_on_c, 0, 70, 68
2, 49890, Note_on_c, 0, 70, 0
2, 49897, Note_on_c, 0, 72, 55
2, 49915, Note_on_c, 0, 72, 0
2, 49932, Note_on_c, 0, 74, 71
2, 49933, Note_on_c, 0, 54, 43
2, 49934, Note_on_c, 0, 64, 70
2, 49936, Note_on_c, 0, 60, 38
2, 49937, Control_c, 0, 64, 0
2, 49951, Note_on_c, 0, 68, 18
2, 49971, Control_c, 0, 64, 127
2, 49994, Note_on_c, 0, 60, 0
2, 50012, Note_on_c, 0, 68, 0
2, 50016, Note_on_c, 0, 64, 0
2, 50030, Note_on_c, 0, 74, 0
2, 50045, Note_on_c, 0, 68, 43
2, 50045, Note_on_c, 0, 72, 41
2, 50045, Note_on_c, 0, 64, 43
2, 50047, Note_on_c, 0, 60, 35
2, 50092, Note_on_c, 0, 60, 0
2, 50095, Note_on_c, 0, 72, 0
2, 50096, Note_on_c, 0, 64, 0
2, 50102, Note_on_c, 0, 54, 0
2, 50105, Note_on_c, 0, 70, 60
2, 50114, Note_on_c, 0, 68, 0
2, 50127, Note_on_c, 0, 70, 0
2, 50165, Note_on_c, 0, 74, 54
2, 50168, Note_on_c, 0, 51, 37
2, 50168, Note_on_c, 0, 66, 30
2, 50169, Control_c, 0, 64, 0
2, 50169, Note_on_c, 0, 63, 21
2, 50170, Note_on_c, 0, 69, 36
2, 50171, Note_on_c, 0, 57, 39
2, 50184, Control_c, 0, 64, 127
2, 50204, Note_on_c, 0, 63, 0
2, 50205, Note_on_c, 0, 69, 0
2, 50210, Note_on_c, 0, 74, 0
2, 50214, Note_on_c, 0, 66, 0
2, 50217, Note_on_c, 0, 51, 0
2, 50229, Note_on_c, 0, 51, 48
2, 50243, Note_on_c, 0, 57, 0
2, 50287, Note_on_c, 0, 77, 74
2, 50287, Note_on_c, 0, 65, 75
2, 50290, Note_on_c, 0, 57, 42
2, 50304, Note_on_c, 0, 65, 0
2, 50311, Note_on_c, 0, 77, 0
2, 50313, Note_on_c, 0, 51, 0
2, 50313, Note_on_c, 0, 57, 0
2, 50347, Note_on_c, 0, 79, 73
2, 50348, Note_on_c, 0, 67, 74
2, 50357, Note_on_c, 0, 67, 0
2, 50361, Note_on_c, 0, 79, 0
2, 50406, Control_c, 0, 64, 0
2, 50407, Note_on_c, 0, 82, 76
2, 50409, Note_on_c, 0, 48, 45
2, 50411, Note_on_c, 0, 79, 60
2, 50412, Note_on_c, 0, 75, 67
2, 50412, Note_on_c, 0, 58, 36
2, 50413, Note_on_c, 0, 70, 65
2, 50414, Note_on_c, 0, 55, 38
2, 50429, Control_c, 0, 64, 127
2, 50431, Note_on_c, 0, 48, 0
2, 50433, Note_on_c, 0, 55, 0
2, 50446, Note_on_c, 0, 58, 0
2, 50524, Note_on_c, 0, 67, 27
2, 50525, Note_on_c, 0, 58, 27
2, 50526, Note_on_c, 0, 62, 34
2, 50528, Note_on_c, 0, 63, 28
2, 50548, Note_on_c, 0, 79, 0
2, 50550, Note_on_c, 0, 67, 0
2, 50552, Note_on_c, 0, 63, 0
2, 50555, Note_on_c, 0, 62, 0
2, 50557, Note_on_c, 0, 82, 0
2, 50562, Note_on_c, 0, 75, 0
2, 50564, Note_on_c, 0, 70, 0
2, 50571, Note_on_c, 0, 58, 0
2, 50645, Note_on_c, 0, 68, 71
2, 50647, Note_on_c, 0, 61, 61
2, 50648, Note_on_c, 0, 57, 69
2, 50648, Note_on_c, 0, 63, 53
2, 50649, Note_on_c, 0, 56, 59
2, 50655, Control_c, 0, 64, 0
2, 50689, Control_c, 0, 64, 127
2, 50712, Note_on_c, 0, 57, 0
2, 50714, Note_on_c, 0, 68, 0
2, 50715, Note_on_c, 0, 66, 65
2, 50717, Note_on_c, 0, 56, 0
2, 50717, Note_on_c, 0, 54, 43
2, 50739, Note_on_c, 0, 63, 0
2, 50745, Note_on_c, 0, 61, 0
2, 50757, Note_on_c, 0, 66, 0
2, 50781, Note_on_c, 0, 68, 60
2, 50782, Note_on_c, 0, 61, 52
2, 50782, Note_on_c, 0, 63, 54
2, 50782, Note_on_c, 0, 57, 57
2, 50785, Note_on_c, 0, 54, 0
2, 50785, Note_on_c, 0, 56, 42
2, 50789, Control_c, 0, 64, 0
2, 50796, Control_c, 0, 64, 127
2, 50831, Note_on_c, 0, 56, 0
2, 50850, Note_on_c, 0, 68, 0
2, 50857, Note_on_c, 0, 66, 60
2, 50905, Note_on_c, 0, 57, 0
2, 50917, Note_on_c, 0, 66, 0
2, 50926, Note_on_c, 0, 61, 0
2, 50933, Note_on_c, 0, 63, 0
2, 50961, Control_c, 0, 64, 0
2, 50967, Note_on_c, 0, 65, 61
2, 50968, Note_on_c, 0, 57, 52
2, 50968, Note_on_c, 0, 62, 56
2, 50971, Note_on_c, 0, 22, 46
2, 50971, Note_on_c, 0, 34, 37
2, 50984, Control_c, 0, 64, 127
2, 50989, Note_on_c, 0, 57, 0
2, 50994, Note_on_c, 0, 22, 0
2, 50999, Note_on_c, 0, 34, 0
2, 51001, Note_on_c, 0, 62, 0
2, 51003, Note_on_c, 0, 65, 0
2, 51064, Note_on_c, 0, 69, 58
2, 51064, Note_on_c, 0, 81, 32
2, 51066, Note_on_c, 0, 57, 48
2, 51075, Note_on_c, 0, 69, 0
2, 51083, Note_on_c, 0, 81, 0
2, 51144, Note_on_c, 0, 57, 0
2, 51144, Note_on_c, 0, 86, 68
2, 51145, Note_on_c, 0, 74, 47
2, 51147, Note_on_c, 0, 62, 48
2, 51157, Note_on_c, 0, 74, 0
2, 51163, Note_on_c, 0, 86, 0
2, 51208, Note_on_c, 0, 62, 0
2, 51225, Note_on_c, 0, 93, 59
2, 51225, Note_on_c, 0, 69, 37
2, 51226, Note_on_c, 0, 81, 44
2, 51240, Note_on_c, 0, 81, 0
2, 51247, Note_on_c, 0, 93, 0
2, 51305, Note_on_c, 0, 69, 0
2, 51312, Note_on_c, 0, 98, 53
2, 51312, Note_on_c, 0, 74, 47
2, 51313, Note_on_c, 0, 86, 53
2, 51323, Note_on_c, 0, 86, 0
2, 51331, Note_on_c, 0, 98, 0
2, 51391, Note_on_c, 0, 74, 0
2, 51401, Note_on_c, 0, 81, 39
2, 51401, Note_on_c, 0, 93, 40
2, 51402, Note_on_c, 0, 105, 36
2, 51417, Note_on_c, 0, 93, 0
2, 51425, Note_on_c, 0, 105, 0
2, 51505, Note_on_c, 0, 98, 46
2, 51507, Note_on_c, 0, 86, 49
2, 51555, Note_on_c, 0, 81, 0
2, 51627, Note_on_c, 0, 86, 0
2, 51627, Note_on_c, 0, 103, 36
2, 51632, Note_on_c, 0, 91, 13
2, 51663, Note_on_c, 0, 91, 0
2, 51677, Note_on_c, 0, 98, 0
2, 51678, Note_on_c, 0, 103, 0
2, 51746, Note_on_c, 0, 105, 41
2, 51749, Note_on_c, 0, 96, 32
2, 51760, Note_on_c, 0, 96, 0
2, 51761, Note_on_c, 0, 105, 0
2, 51910, Control_c, 0, 64, 0
2, 51910, End_track
3, 0, Start_track
3, 0, Title_t, "Solo piano played in real time"
3, 0, End_track
4, 0, Start_track
4, 0, Title_t, ""
4, 0, End_track
0, 0, End_of_file
