0, 0, Header, 1, 4, 120
1, 0, Start_track
1, 0, Title_t, "The End of a Love Affair"
1, 0, Text_t, "Doug McKenzie\012"
1, 0, Text_t, "The End of a Love Affair by Edward C Redding\012"
1, 0, Text_t, "dougmck@pipeline.com.au\012"
1, 0, Time_signature, 4, 2, 24, 8
1, 0, Key_signature, -3, "major"
1, 0, Tempo, 428571
1, 0, End_track
2, 0, Start_track
2, 0, End_track
3, 0, Start_track
3, 0, Title_t, "Played in Real Time"
3, 0, Program_c, 0, 0
3, 127, Note_on_c, 0, 87, 64
3, 199, Control_c, 0, 64, 127
3, 252, Note_on_c, 0, 89, 74
3, 259, Note_on_c, 0, 87, 0
3, 381, Note_on_c, 0, 89, 0
3, 389, Control_c, 0, 64, 0
3, 392, Note_on_c, 0, 91, 76
3, 393, Note_on_c, 0, 53, 38
3, 418, Control_c, 0, 64, 127
3, 461, Note_on_c, 0, 91, 0
3, 494, Note_on_c, 0, 60, 38
3, 497, Note_on_c, 0, 53, 0
3, 557, Note_on_c, 0, 67, 50
3, 599, Note_on_c, 0, 68, 43
3, 628, Note_on_c, 0, 68, 0
3, 629, Note_on_c, 0, 70, 68
3, 645, Note_on_c, 0, 70, 0
3, 656, Note_on_c, 0, 72, 70
3, 685, Note_on_c, 0, 74, 65
3, 687, Note_on_c, 0, 72, 0
3, 711, Note_on_c, 0, 75, 92
3, 711, Note_on_c, 0, 74, 0
3, 728, Note_on_c, 0, 75, 0
3, 737, Note_on_c, 0, 77, 74
3, 763, Note_on_c, 0, 79, 68
3, 768, Note_on_c, 0, 77, 0
3, 783, Note_on_c, 0, 80, 65
3, 787, Note_on_c, 0, 79, 0
3, 790, Note_on_c, 0, 60, 0
3, 798, Note_on_c, 0, 80, 0
3, 799, Note_on_c, 0, 82, 68
3, 807, Note_on_c, 0, 82, 0
3, 811, Note_on_c, 0, 67, 0
3, 823, Note_on_c, 0, 84, 58
3, 842, Note_on_c, 0, 84, 0
3, 847, Note_on_c, 0, 86, 57
3, 874, Note_on_c, 0, 86, 0
3, 875, Note_on_c, 0, 87, 43
3, 899, Note_on_c, 0, 87, 0
3, 903, Note_on_c, 0, 88, 59
3, 912, Note_on_c, 0, 88, 0
3, 919, Note_on_c, 0, 89, 65
3, 943, Control_c, 0, 64, 0
3, 952, Note_on_c, 0, 56, 35
3, 952, Note_on_c, 0, 62, 52
3, 953, Note_on_c, 0, 67, 32
3, 955, Note_on_c, 0, 89, 0
3, 958, Note_on_c, 0, 86, 53
3, 1013, Control_c, 0, 64, 127
3, 1143, Note_on_c, 0, 86, 0
3, 1194, Note_on_c, 0, 67, 0
3, 1255, Note_on_c, 0, 62, 0
3, 1265, Note_on_c, 0, 103, 65
3, 1267, Note_on_c, 0, 67, 47
3, 1268, Note_on_c, 0, 91, 50
3, 1362, Note_on_c, 0, 103, 0
3, 1374, Note_on_c, 0, 91, 0
3, 1375, Note_on_c, 0, 67, 0
3, 1415, Note_on_c, 0, 101, 59
3, 1416, Note_on_c, 0, 89, 52
3, 1421, Note_on_c, 0, 65, 39
3, 1472, Note_on_c, 0, 101, 0
3, 1495, Note_on_c, 0, 89, 0
3, 1537, Note_on_c, 0, 65, 0
3, 1587, Note_on_c, 0, 99, 46
3, 1588, Note_on_c, 0, 87, 44
3, 1648, Note_on_c, 0, 99, 0
3, 1661, Note_on_c, 0, 87, 0
3, 1666, Note_on_c, 0, 56, 0
3, 1787, Control_c, 0, 64, 0
3, 1788, Note_on_c, 0, 98, 64
3, 1791, Note_on_c, 0, 51, 40
3, 1793, Note_on_c, 0, 91, 41
3, 1799, Note_on_c, 0, 86, 41
3, 1835, Control_c, 0, 64, 127
3, 1849, Note_on_c, 0, 98, 0
3, 1866, Note_on_c, 0, 91, 0
3, 1880, Note_on_c, 0, 86, 0
3, 1907, Note_on_c, 0, 59, 39
3, 2005, Note_on_c, 0, 62, 38
3, 2009, Note_on_c, 0, 51, 0
3, 2017, Note_on_c, 0, 59, 0
3, 2064, Note_on_c, 0, 63, 63
3, 2096, Note_on_c, 0, 63, 0
3, 2116, Note_on_c, 0, 67, 69
3, 2149, Note_on_c, 0, 67, 0
3, 2173, Note_on_c, 0, 71, 91
3, 2219, Note_on_c, 0, 71, 0
3, 2232, Note_on_c, 0, 74, 104
3, 2290, Note_on_c, 0, 62, 0
3, 2293, Note_on_c, 0, 74, 0
3, 2295, Note_on_c, 0, 71, 83
3, 2353, Note_on_c, 0, 71, 0
3, 2359, Note_on_c, 0, 72, 86
3, 2417, Note_on_c, 0, 72, 0
3, 2427, Note_on_c, 0, 74, 88
3, 2476, Note_on_c, 0, 74, 0
3, 2493, Note_on_c, 0, 75, 80
3, 2522, Note_on_c, 0, 75, 0
3, 2558, Note_on_c, 0, 79, 55
3, 2609, Note_on_c, 0, 79, 0
3, 2631, Note_on_c, 0, 83, 51
3, 2686, Note_on_c, 0, 83, 0
3, 2703, Note_on_c, 0, 86, 61
3, 2753, Note_on_c, 0, 86, 0
3, 2789, Note_on_c, 0, 51, 29
3, 2794, Note_on_c, 0, 86, 61
3, 2805, Control_c, 0, 64, 0
3, 2807, Note_on_c, 0, 59, 17
3, 2843, Control_c, 0, 64, 127
3, 2884, Note_on_c, 0, 83, 35
3, 2896, Note_on_c, 0, 86, 0
3, 2977, Note_on_c, 0, 83, 0
3, 2981, Note_on_c, 0, 59, 0
3, 2987, Note_on_c, 0, 84, 59
3, 2992, Control_c, 0, 64, 0
3, 2997, Note_on_c, 0, 60, 22
3, 3046, Control_c, 0, 64, 127
3, 3130, Note_on_c, 0, 84, 0
3, 3234, Note_on_c, 0, 96, 75
3, 3245, Note_on_c, 0, 87, 58
3, 3339, Note_on_c, 0, 96, 0
3, 3377, Note_on_c, 0, 87, 0
3, 3602, Note_on_c, 0, 94, 57
3, 3610, Note_on_c, 0, 86, 58
3, 3690, Note_on_c, 0, 60, 0
3, 3691, Note_on_c, 0, 86, 0
3, 3703, Note_on_c, 0, 94, 0
3, 3706, Note_on_c, 0, 51, 0
3, 3880, Control_c, 0, 64, 0
3, 3886, Note_on_c, 0, 90, 37
3, 3886, Note_on_c, 0, 101, 41
3, 3888, Note_on_c, 0, 39, 38
3, 3889, Note_on_c, 0, 94, 46
3, 3890, Note_on_c, 0, 54, 23
3, 3933, Control_c, 0, 64, 127
3, 3950, Note_on_c, 0, 101, 0
3, 3959, Note_on_c, 0, 94, 0
3, 3975, Note_on_c, 0, 90, 0
3, 3996, Note_on_c, 0, 54, 0
3, 4009, Note_on_c, 0, 46, 44
3, 4011, Note_on_c, 0, 39, 0
3, 4090, Note_on_c, 0, 54, 51
3, 4098, Note_on_c, 0, 46, 0
3, 4126, Note_on_c, 0, 54, 0
3, 4177, Note_on_c, 0, 58, 65
3, 4259, Note_on_c, 0, 60, 43
3, 4315, Note_on_c, 0, 61, 69
3, 4356, Note_on_c, 0, 61, 0
3, 4361, Note_on_c, 0, 63, 69
3, 4391, Note_on_c, 0, 63, 0
3, 4402, Note_on_c, 0, 65, 79
3, 4415, Note_on_c, 0, 60, 0
3, 4434, Note_on_c, 0, 58, 0
3, 4438, Note_on_c, 0, 65, 0
3, 4446, Note_on_c, 0, 66, 67
3, 4479, Note_on_c, 0, 66, 0
3, 4489, Note_on_c, 0, 68, 65
3, 4512, Note_on_c, 0, 68, 0
3, 4529, Note_on_c, 0, 69, 71
3, 4560, Note_on_c, 0, 69, 0
3, 4570, Note_on_c, 0, 72, 52
3, 4595, Note_on_c, 0, 72, 0
3, 4617, Note_on_c, 0, 75, 73
3, 4650, Control_c, 0, 64, 0
3, 4654, Note_on_c, 0, 75, 0
3, 4661, Note_on_c, 0, 78, 59
3, 4665, Note_on_c, 0, 54, 40
3, 4671, Note_on_c, 0, 44, 35
3, 4681, Note_on_c, 0, 78, 0
3, 4688, Control_c, 0, 64, 127
3, 4719, Note_on_c, 0, 81, 58
3, 4748, Note_on_c, 0, 81, 0
3, 4764, Note_on_c, 0, 84, 74
3, 4767, Note_on_c, 0, 44, 0
3, 4779, Note_on_c, 0, 54, 0
3, 4796, Note_on_c, 0, 84, 0
3, 4809, Note_on_c, 0, 87, 86
3, 4843, Note_on_c, 0, 87, 0
3, 4850, Note_on_c, 0, 90, 77
3, 4891, Note_on_c, 0, 87, 74
3, 4914, Note_on_c, 0, 90, 0
3, 4923, Note_on_c, 0, 84, 65
3, 4924, Note_on_c, 0, 87, 0
3, 4940, Note_on_c, 0, 84, 0
3, 4952, Note_on_c, 0, 81, 49
3, 4979, Note_on_c, 0, 81, 0
3, 4989, Note_on_c, 0, 80, 27
3, 5012, Note_on_c, 0, 80, 0
3, 5017, Note_on_c, 0, 79, 52
3, 5033, Note_on_c, 0, 79, 0
3, 5041, Note_on_c, 0, 78, 45
3, 5055, Note_on_c, 0, 78, 0
3, 5064, Note_on_c, 0, 77, 40
3, 5087, Note_on_c, 0, 77, 0
3, 5101, Note_on_c, 0, 76, 41
3, 5114, Note_on_c, 0, 76, 0
3, 5123, Note_on_c, 0, 75, 58
3, 5146, Note_on_c, 0, 75, 0
3, 5153, Note_on_c, 0, 78, 58
3, 5174, Control_c, 0, 64, 0
3, 5209, Note_on_c, 0, 75, 77
3, 5216, Note_on_c, 0, 54, 29
3, 5232, Note_on_c, 0, 63, 13
3, 5232, Note_on_c, 0, 59, 28
3, 5273, Note_on_c, 0, 59, 0
3, 5368, Note_on_c, 0, 60, 37
3, 5371, Note_on_c, 0, 72, 38
3, 5410, Control_c, 0, 64, 127
3, 5419, Note_on_c, 0, 78, 0
3, 5661, Note_on_c, 0, 75, 0
3, 5774, Note_on_c, 0, 75, 71
3, 5826, Note_on_c, 0, 72, 0
3, 5853, Note_on_c, 0, 63, 0
3, 5862, Note_on_c, 0, 60, 0
3, 5882, Note_on_c, 0, 73, 39
3, 5901, Note_on_c, 0, 54, 0
3, 5970, Note_on_c, 0, 75, 0
3, 6010, Note_on_c, 0, 73, 0
3, 6124, Control_c, 0, 64, 0
3, 6130, Note_on_c, 0, 72, 35
3, 6131, Note_on_c, 0, 65, 53
3, 6139, Note_on_c, 0, 60, 35
3, 6142, Note_on_c, 0, 49, 40
3, 6221, Control_c, 0, 64, 127
3, 6294, Note_on_c, 0, 57, 50
3, 6421, Note_on_c, 0, 57, 0
3, 6423, Control_c, 0, 64, 0
3, 6429, Note_on_c, 0, 58, 55
3, 6466, Control_c, 0, 64, 127
3, 6486, Note_on_c, 0, 60, 0
3, 6508, Note_on_c, 0, 72, 0
3, 6522, Note_on_c, 0, 60, 64
3, 6523, Note_on_c, 0, 65, 0
3, 6605, Note_on_c, 0, 61, 85
3, 6618, Note_on_c, 0, 60, 0
3, 6679, Note_on_c, 0, 63, 85
3, 6698, Note_on_c, 0, 61, 0
3, 6751, Note_on_c, 0, 63, 0
3, 6761, Note_on_c, 0, 65, 64
3, 6846, Note_on_c, 0, 67, 76
3, 6848, Note_on_c, 0, 65, 0
3, 6984, Note_on_c, 0, 68, 69
3, 6991, Note_on_c, 0, 67, 0
3, 7072, Note_on_c, 0, 70, 82
3, 7077, Note_on_c, 0, 68, 0
3, 7141, Note_on_c, 0, 70, 0
3, 7152, Note_on_c, 0, 72, 74
3, 7228, Note_on_c, 0, 73, 70
3, 7249, Note_on_c, 0, 72, 0
3, 7311, Note_on_c, 0, 73, 0
3, 7316, Note_on_c, 0, 75, 75
3, 7402, Note_on_c, 0, 73, 53
3, 7502, Note_on_c, 0, 72, 45
3, 7509, Note_on_c, 0, 73, 0
3, 7611, Note_on_c, 0, 72, 0
3, 7611, Note_on_c, 0, 70, 53
3, 7651, Note_on_c, 0, 49, 0
3, 7672, Note_on_c, 0, 75, 0
3, 7674, Note_on_c, 0, 58, 0
3, 7709, Note_on_c, 0, 70, 0
3, 7716, Note_on_c, 0, 76, 62
3, 7719, Note_on_c, 0, 49, 29
3, 7719, Control_c, 0, 64, 0
3, 7795, Note_on_c, 0, 56, 35
3, 7815, Control_c, 0, 64, 127
3, 7868, Note_on_c, 0, 59, 43
3, 7932, Note_on_c, 0, 64, 40
3, 7979, Note_on_c, 0, 76, 0
3, 8006, Note_on_c, 0, 68, 29
3, 8010, Note_on_c, 0, 59, 0
3, 8018, Note_on_c, 0, 56, 0
3, 8038, Note_on_c, 0, 49, 0
3, 8076, Note_on_c, 0, 76, 61
3, 8122, Note_on_c, 0, 76, 0
3, 8150, Note_on_c, 0, 64, 0
3, 8157, Control_c, 0, 64, 0
3, 8161, Note_on_c, 0, 30, 37
3, 8161, Note_on_c, 0, 68, 0
3, 8162, Note_on_c, 0, 76, 58
3, 8200, Control_c, 0, 64, 127
3, 8205, Note_on_c, 0, 30, 0
3, 8345, Note_on_c, 0, 52, 41
3, 8346, Note_on_c, 0, 58, 40
3, 8351, Note_on_c, 0, 63, 21
3, 8711, Note_on_c, 0, 76, 0
3, 8737, Note_on_c, 0, 63, 0
3, 8769, Note_on_c, 0, 58, 0
3, 8786, Note_on_c, 0, 52, 0
3, 8790, Note_on_c, 0, 78, 74
3, 8840, Note_on_c, 0, 78, 0
3, 8844, Note_on_c, 0, 80, 85
3, 8884, Note_on_c, 0, 80, 0
3, 9097, Note_on_c, 0, 75, 68
3, 9101, Note_on_c, 0, 71, 70
3, 9102, Note_on_c, 0, 68, 53
3, 9102, Control_c, 0, 64, 0
3, 9104, Note_on_c, 0, 63, 58
3, 9106, Note_on_c, 0, 64, 47
3, 9171, Note_on_c, 0, 75, 0
3, 9182, Control_c, 0, 64, 127
3, 9189, Note_on_c, 0, 75, 59
3, 9239, Note_on_c, 0, 75, 0
3, 9273, Note_on_c, 0, 75, 69
3, 9316, Note_on_c, 0, 71, 0
3, 9332, Note_on_c, 0, 64, 0
3, 9334, Note_on_c, 0, 75, 0
3, 9348, Note_on_c, 0, 73, 37
3, 9369, Note_on_c, 0, 68, 0
3, 9405, Note_on_c, 0, 73, 0
3, 9441, Note_on_c, 0, 75, 59
3, 9441, Control_c, 0, 64, 0
3, 9443, Note_on_c, 0, 63, 0
3, 9444, Note_on_c, 0, 70, 55
3, 9445, Note_on_c, 0, 68, 39
3, 9447, Note_on_c, 0, 64, 44
3, 9447, Note_on_c, 0, 61, 47
3, 9540, Control_c, 0, 64, 127
3, 9605, Note_on_c, 0, 73, 61
3, 9617, Note_on_c, 0, 75, 0
3, 9676, Note_on_c, 0, 73, 0
3, 9688, Note_on_c, 0, 70, 0
3, 9695, Note_on_c, 0, 73, 57
3, 9745, Note_on_c, 0, 73, 0
3, 9749, Note_on_c, 0, 61, 0
3, 9782, Note_on_c, 0, 68, 0
3, 9785, Note_on_c, 0, 64, 0
3, 9788, Note_on_c, 0, 71, 74
3, 9841, Note_on_c, 0, 71, 0
3, 10194, Control_c, 0, 64, 0
3, 10200, Note_on_c, 0, 70, 59
3, 10203, Note_on_c, 0, 67, 68
3, 10203, Note_on_c, 0, 63, 56
3, 10205, Note_on_c, 0, 47, 40
3, 10208, Note_on_c, 0, 58, 38
3, 10306, Control_c, 0, 64, 127
3, 10366, Note_on_c, 0, 54, 37
3, 10456, Note_on_c, 0, 67, 0
3, 10566, Note_on_c, 0, 63, 0
3, 10604, Note_on_c, 0, 58, 0
3, 10815, Note_on_c, 0, 70, 0
3, 10817, Note_on_c, 0, 63, 41
3, 10819, Note_on_c, 0, 59, 44
3, 11003, Note_on_c, 0, 68, 62
3, 11009, Note_on_c, 0, 59, 0
3, 11074, Note_on_c, 0, 47, 0
3, 11094, Note_on_c, 0, 63, 0
3, 11124, Note_on_c, 0, 54, 0
3, 11189, Note_on_c, 0, 68, 0
3, 11287, Control_c, 0, 64, 0
3, 11297, Note_on_c, 0, 70, 67
3, 11301, Note_on_c, 0, 46, 46
3, 11318, Control_c, 0, 64, 127
3, 11326, Note_on_c, 0, 46, 0
3, 11387, Note_on_c, 0, 70, 0
3, 11387, Note_on_c, 0, 56, 37
3, 11416, Note_on_c, 0, 58, 70
3, 11423, Note_on_c, 0, 56, 0
3, 11434, Note_on_c, 0, 58, 0
3, 11458, Note_on_c, 0, 62, 79
3, 11478, Note_on_c, 0, 64, 43
3, 11494, Note_on_c, 0, 64, 0
3, 11498, Note_on_c, 0, 67, 56
3, 11499, Note_on_c, 0, 62, 0
3, 11502, Note_on_c, 0, 65, 65
3, 11511, Note_on_c, 0, 65, 0
3, 11517, Note_on_c, 0, 67, 0
3, 11526, Note_on_c, 0, 69, 49
3, 11535, Note_on_c, 0, 69, 0
3, 11537, Control_c, 0, 64, 0
3, 11538, Note_on_c, 0, 71, 68
3, 11558, Note_on_c, 0, 71, 0
3, 11559, Note_on_c, 0, 74, 44
3, 11571, Note_on_c, 0, 76, 47
3, 11580, Note_on_c, 0, 74, 0
3, 11587, Note_on_c, 0, 79, 65
3, 11588, Note_on_c, 0, 76, 0
3, 11595, Note_on_c, 0, 79, 0
3, 11599, Note_on_c, 0, 80, 68
3, 11607, Note_on_c, 0, 80, 0
3, 11617, Note_on_c, 0, 83, 61
3, 11639, Note_on_c, 0, 86, 69
3, 11641, Note_on_c, 0, 83, 0
3, 11649, Note_on_c, 0, 88, 57
3, 11660, Note_on_c, 0, 86, 0
3, 11663, Note_on_c, 0, 88, 0
3, 11665, Note_on_c, 0, 91, 56
3, 11672, Note_on_c, 0, 91, 0
3, 11689, Note_on_c, 0, 94, 55
3, 11699, Note_on_c, 0, 95, 50
3, 11707, Note_on_c, 0, 94, 0
3, 11719, Note_on_c, 0, 98, 43
3, 11729, Note_on_c, 0, 100, 74
3, 11734, Note_on_c, 0, 95, 0
3, 11747, Note_on_c, 0, 98, 0
3, 11754, Note_on_c, 0, 103, 73
3, 11755, Note_on_c, 0, 100, 0
3, 11773, Note_on_c, 0, 103, 0
3, 12007, Note_on_c, 0, 70, 80
3, 12086, Note_on_c, 0, 70, 0
3, 12091, Note_on_c, 0, 72, 49
3, 12111, Note_on_c, 0, 70, 61
3, 12113, Note_on_c, 0, 72, 0
3, 12147, Note_on_c, 0, 69, 52
3, 12149, Note_on_c, 0, 70, 0
3, 12196, Control_c, 0, 64, 127
3, 12226, Note_on_c, 0, 70, 71
3, 12237, Note_on_c, 0, 69, 0
3, 12295, Note_on_c, 0, 70, 0
3, 12317, Note_on_c, 0, 79, 74
3, 12476, Note_on_c, 0, 74, 68
3, 12529, Note_on_c, 0, 79, 0
3, 12598, Note_on_c, 0, 70, 58
3, 12602, Control_c, 0, 64, 0
3, 12603, Note_on_c, 0, 51, 34
3, 12611, Note_on_c, 0, 74, 0
3, 12648, Control_c, 0, 64, 127
3, 12690, Note_on_c, 0, 70, 0
3, 12696, Note_on_c, 0, 59, 29
3, 12783, Note_on_c, 0, 74, 44
3, 12787, Note_on_c, 0, 62, 38
3, 12871, Note_on_c, 0, 82, 77
3, 12879, Note_on_c, 0, 62, 0
3, 12938, Note_on_c, 0, 82, 0
3, 12953, Note_on_c, 0, 74, 0
3, 12970, Note_on_c, 0, 59, 0
3, 12970, Note_on_c, 0, 85, 74
3, 12977, Note_on_c, 0, 86, 97
3, 12978, Note_on_c, 0, 85, 0
3, 12978, Note_on_c, 0, 60, 55
3, 12979, Note_on_c, 0, 75, 68
3, 12980, Control_c, 0, 64, 0
3, 13026, Control_c, 0, 64, 127
3, 13028, Note_on_c, 0, 51, 0
3, 13057, Control_c, 0, 64, 0
3, 13071, Note_on_c, 0, 60, 0
3, 13086, Note_on_c, 0, 48, 68
3, 13086, Control_c, 0, 64, 127
3, 13115, Note_on_c, 0, 75, 0
3, 13128, Note_on_c, 0, 86, 0
3, 13198, Note_on_c, 0, 75, 69
3, 13201, Note_on_c, 0, 72, 46
3, 13202, Note_on_c, 0, 48, 0
3, 13205, Note_on_c, 0, 58, 43
3, 13221, Note_on_c, 0, 58, 0
3, 13314, Note_on_c, 0, 72, 0
3, 13411, Note_on_c, 0, 75, 0
3, 13413, Note_on_c, 0, 77, 80
3, 13494, Note_on_c, 0, 79, 97
3, 13506, Note_on_c, 0, 77, 0
3, 13554, Note_on_c, 0, 79, 0
3, 13566, Note_on_c, 0, 82, 82
3, 13648, Note_on_c, 0, 79, 74
3, 13734, Note_on_c, 0, 79, 0
3, 13749, Note_on_c, 0, 77, 41
3, 13755, Note_on_c, 0, 60, 45
3, 13759, Control_c, 0, 64, 0
3, 13759, Note_on_c, 0, 63, 41
3, 13762, Note_on_c, 0, 68, 16
3, 13782, Note_on_c, 0, 82, 0
3, 13815, Control_c, 0, 64, 127
3, 13847, Note_on_c, 0, 77, 0
3, 13848, Note_on_c, 0, 79, 63
3, 13854, Note_on_c, 0, 58, 31
3, 13865, Note_on_c, 0, 68, 0
3, 13866, Note_on_c, 0, 63, 0
3, 13873, Note_on_c, 0, 60, 0
3, 13881, Note_on_c, 0, 58, 0
3, 13964, Note_on_c, 0, 72, 38
3, 13976, Note_on_c, 0, 53, 28
3, 13983, Note_on_c, 0, 63, 10
3, 14004, Note_on_c, 0, 79, 0
3, 14086, Note_on_c, 0, 63, 0
3, 14087, Note_on_c, 0, 79, 76
3, 14091, Note_on_c, 0, 60, 32
3, 14108, Note_on_c, 0, 60, 0
3, 14132, Note_on_c, 0, 53, 0
3, 14185, Note_on_c, 0, 72, 0
3, 14187, Note_on_c, 0, 79, 0
3, 14222, Control_c, 0, 64, 0
3, 14229, Note_on_c, 0, 79, 67
3, 14234, Note_on_c, 0, 46, 43
3, 14265, Control_c, 0, 64, 127
3, 14284, Note_on_c, 0, 46, 0
3, 14370, Note_on_c, 0, 79, 0
3, 14394, Note_on_c, 0, 79, 40
3, 14406, Note_on_c, 0, 56, 35
3, 14411, Note_on_c, 0, 70, 34
3, 14422, Note_on_c, 0, 62, 17
3, 14424, Note_on_c, 0, 65, 34
3, 14512, Note_on_c, 0, 79, 0
3, 14523, Note_on_c, 0, 65, 0
3, 14530, Note_on_c, 0, 62, 0
3, 14553, Note_on_c, 0, 70, 0
3, 14674, Note_on_c, 0, 77, 76
3, 14676, Control_c, 0, 64, 0
3, 14681, Note_on_c, 0, 71, 81
3, 14685, Note_on_c, 0, 62, 62
3, 14687, Note_on_c, 0, 68, 53
3, 14736, Control_c, 0, 64, 127
3, 14962, Note_on_c, 0, 68, 0
3, 14965, Note_on_c, 0, 71, 0
3, 14989, Note_on_c, 0, 62, 0
3, 14991, Note_on_c, 0, 77, 0
3, 15003, Control_c, 0, 64, 0
3, 15005, Note_on_c, 0, 59, 47
3, 15006, Note_on_c, 0, 75, 57
3, 15009, Note_on_c, 0, 56, 0
3, 15009, Note_on_c, 0, 68, 35
3, 15010, Note_on_c, 0, 71, 50
3, 15041, Control_c, 0, 64, 127
3, 15047, Note_on_c, 0, 59, 0
3, 15084, Note_on_c, 0, 71, 0
3, 15098, Note_on_c, 0, 68, 0
3, 15113, Note_on_c, 0, 75, 0
3, 15132, Note_on_c, 0, 67, 43
3, 15132, Note_on_c, 0, 74, 70
3, 15133, Control_c, 0, 64, 0
3, 15135, Note_on_c, 0, 51, 45
3, 15135, Note_on_c, 0, 70, 34
3, 15243, Note_on_c, 0, 59, 50
3, 15270, Control_c, 0, 64, 127
3, 15329, Note_on_c, 0, 67, 0
3, 15337, Note_on_c, 0, 70, 0
3, 15347, Note_on_c, 0, 59, 0
3, 15366, Control_c, 0, 64, 0
3, 15370, Note_on_c, 0, 67, 63
3, 15372, Note_on_c, 0, 62, 63
3, 15429, Control_c, 0, 64, 127
3, 15478, Note_on_c, 0, 62, 0
3, 15506, Control_c, 0, 64, 0
3, 15508, Note_on_c, 0, 60, 65
3, 15652, Note_on_c, 0, 74, 0
3, 15775, Note_on_c, 0, 51, 0
3, 15803, Note_on_c, 0, 51, 45
3, 15848, Note_on_c, 0, 67, 0
3, 15861, Control_c, 0, 64, 127
3, 15866, Note_on_c, 0, 60, 0
3, 15923, Note_on_c, 0, 62, 71
3, 15975, Note_on_c, 0, 51, 0
3, 15994, Note_on_c, 0, 63, 35
3, 15999, Note_on_c, 0, 62, 0
3, 16040, Note_on_c, 0, 63, 0
3, 16046, Note_on_c, 0, 64, 41
3, 16090, Note_on_c, 0, 65, 46
3, 16090, Note_on_c, 0, 64, 0
3, 16128, Note_on_c, 0, 65, 0
3, 16200, Note_on_c, 0, 66, 51
3, 16227, Note_on_c, 0, 66, 0
3, 16230, Note_on_c, 0, 67, 55
3, 16255, Note_on_c, 0, 67, 0
3, 16260, Note_on_c, 0, 68, 58
3, 16280, Note_on_c, 0, 68, 0
3, 16290, Note_on_c, 0, 69, 63
3, 16320, Note_on_c, 0, 70, 73
3, 16334, Note_on_c, 0, 69, 0
3, 16350, Note_on_c, 0, 70, 0
3, 16355, Note_on_c, 0, 71, 76
3, 16378, Note_on_c, 0, 71, 0
3, 16383, Note_on_c, 0, 72, 80
3, 16402, Note_on_c, 0, 72, 0
3, 16406, Note_on_c, 0, 73, 82
3, 16443, Note_on_c, 0, 73, 0
3, 16443, Note_on_c, 0, 74, 86
3, 16452, Control_c, 0, 64, 0
3, 16474, Note_on_c, 0, 75, 91
3, 16475, Note_on_c, 0, 74, 0
3, 16481, Control_c, 0, 64, 127
3, 16491, Note_on_c, 0, 75, 0
3, 16493, Note_on_c, 0, 76, 93
3, 16519, Note_on_c, 0, 76, 0
3, 16527, Note_on_c, 0, 39, 45
3, 16531, Note_on_c, 0, 54, 29
3, 16541, Note_on_c, 0, 77, 95
3, 16545, Control_c, 0, 64, 0
3, 16549, Control_c, 0, 64, 127
3, 16631, Note_on_c, 0, 39, 0
3, 16635, Note_on_c, 0, 54, 0
3, 16738, Note_on_c, 0, 77, 0
3, 16748, Note_on_c, 0, 66, 40
3, 16748, Note_on_c, 0, 54, 17
3, 16749, Note_on_c, 0, 70, 40
3, 16750, Note_on_c, 0, 61, 39
3, 16750, Note_on_c, 0, 58, 35
3, 16760, Note_on_c, 0, 65, 16
3, 16841, Note_on_c, 0, 70, 0
3, 16856, Note_on_c, 0, 66, 0
3, 16864, Note_on_c, 0, 70, 65
3, 16924, Note_on_c, 0, 65, 0
3, 16954, Note_on_c, 0, 58, 0
3, 16955, Note_on_c, 0, 70, 0
3, 16955, Note_on_c, 0, 61, 0
3, 16965, Note_on_c, 0, 77, 86
3, 16975, Note_on_c, 0, 54, 0
3, 17065, Note_on_c, 0, 77, 0
3, 17080, Control_c, 0, 64, 0
3, 17091, Note_on_c, 0, 77, 77
3, 17093, Note_on_c, 0, 32, 50
3, 17093, Note_on_c, 0, 69, 76
3, 17094, Note_on_c, 0, 44, 32
3, 17096, Note_on_c, 0, 74, 59
3, 17103, Note_on_c, 0, 66, 34
3, 17118, Control_c, 0, 64, 127
3, 17130, Note_on_c, 0, 32, 0
3, 17135, Note_on_c, 0, 69, 0
3, 17142, Note_on_c, 0, 44, 0
3, 17146, Note_on_c, 0, 74, 0
3, 17149, Note_on_c, 0, 66, 0
3, 17165, Note_on_c, 0, 77, 0
3, 17240, Note_on_c, 0, 81, 74
3, 17243, Note_on_c, 0, 78, 57
3, 17244, Note_on_c, 0, 74, 68
3, 17250, Note_on_c, 0, 69, 43
3, 17251, Note_on_c, 0, 54, 31
3, 17300, Note_on_c, 0, 69, 0
3, 17312, Note_on_c, 0, 81, 0
3, 17327, Note_on_c, 0, 74, 0
3, 17356, Note_on_c, 0, 78, 0
3, 17395, Note_on_c, 0, 71, 64
3, 17398, Note_on_c, 0, 80, 43
3, 17398, Note_on_c, 0, 76, 58
3, 17400, Note_on_c, 0, 59, 39
3, 17402, Note_on_c, 0, 64, 19
3, 17459, Note_on_c, 0, 76, 0
3, 17463, Note_on_c, 0, 80, 0
3, 17495, Note_on_c, 0, 71, 0
3, 17504, Note_on_c, 0, 59, 0
3, 17505, Note_on_c, 0, 64, 0
3, 17571, Note_on_c, 0, 76, 64
3, 17576, Note_on_c, 0, 71, 53
3, 17576, Note_on_c, 0, 68, 37
3, 17580, Note_on_c, 0, 59, 23
3, 17626, Note_on_c, 0, 59, 0
3, 17649, Note_on_c, 0, 76, 0
3, 17665, Note_on_c, 0, 54, 0
3, 17681, Note_on_c, 0, 71, 0
3, 17722, Note_on_c, 0, 68, 0
3, 17792, Control_c, 0, 64, 0
3, 17799, Note_on_c, 0, 69, 56
3, 17799, Note_on_c, 0, 72, 43
3, 17799, Note_on_c, 0, 65, 46
3, 17803, Note_on_c, 0, 49, 40
3, 17804, Note_on_c, 0, 60, 40
3, 17813, Note_on_c, 0, 57, 19
3, 17837, Control_c, 0, 64, 127
3, 18000, Note_on_c, 0, 57, 0
3, 18014, Note_on_c, 0, 58, 44
3, 18110, Note_on_c, 0, 60, 0
3, 18111, Note_on_c, 0, 65, 0
3, 18132, Note_on_c, 0, 69, 0
3, 18143, Control_c, 0, 64, 0
3, 18157, Control_c, 0, 64, 127
3, 18158, Note_on_c, 0, 65, 61
3, 18177, Note_on_c, 0, 72, 0
3, 18400, Note_on_c, 0, 66, 91
3, 18412, Note_on_c, 0, 65, 0
3, 18492, Note_on_c, 0, 66, 0
3, 18502, Note_on_c, 0, 66, 88
3, 18562, Note_on_c, 0, 66, 0
3, 18570, Note_on_c, 0, 68, 99
3, 18621, Note_on_c, 0, 58, 0
3, 18638, Note_on_c, 0, 68, 0
3, 18685, Note_on_c, 0, 68, 99
3, 18759, Note_on_c, 0, 68, 0
3, 18776, Note_on_c, 0, 68, 85
3, 18843, Note_on_c, 0, 68, 0
3, 18867, Note_on_c, 0, 70, 77
3, 18882, Note_on_c, 0, 49, 0
3, 18963, Note_on_c, 0, 70, 0
3, 18990, Note_on_c, 0, 75, 65
3, 18996, Note_on_c, 0, 68, 46
3, 18997, Control_c, 0, 64, 0
3, 19001, Note_on_c, 0, 49, 37
3, 19002, Note_on_c, 0, 64, 29
3, 19003, Note_on_c, 0, 71, 52
3, 19009, Note_on_c, 0, 59, 37
3, 19070, Note_on_c, 0, 49, 0
3, 19116, Note_on_c, 0, 58, 50
3, 19121, Note_on_c, 0, 59, 0
3, 19129, Control_c, 0, 64, 127
3, 19189, Control_c, 0, 64, 0
3, 19212, Note_on_c, 0, 58, 0
3, 19214, Note_on_c, 0, 59, 56
3, 19239, Control_c, 0, 64, 127
3, 19280, Note_on_c, 0, 75, 0
3, 19295, Note_on_c, 0, 59, 0
3, 19303, Note_on_c, 0, 75, 61
3, 19304, Note_on_c, 0, 64, 0
3, 19316, Note_on_c, 0, 71, 0
3, 19356, Note_on_c, 0, 68, 0
3, 19375, Note_on_c, 0, 75, 0
3, 19407, Note_on_c, 0, 42, 38
3, 19408, Note_on_c, 0, 75, 55
3, 19409, Note_on_c, 0, 30, 37
3, 19410, Control_c, 0, 64, 0
3, 19414, Note_on_c, 0, 70, 44
3, 19419, Note_on_c, 0, 68, 33
3, 19419, Note_on_c, 0, 64, 26
3, 19443, Note_on_c, 0, 30, 0
3, 19446, Control_c, 0, 64, 127
3, 19455, Note_on_c, 0, 42, 0
3, 19546, Note_on_c, 0, 63, 37
3, 19628, Note_on_c, 0, 64, 0
3, 19659, Note_on_c, 0, 68, 0
3, 19662, Note_on_c, 0, 70, 0
3, 19668, Note_on_c, 0, 75, 0
3, 19680, Note_on_c, 0, 63, 0
3, 19747, Control_c, 0, 64, 0
3, 19758, Note_on_c, 0, 78, 56
3, 19759, Note_on_c, 0, 54, 41
3, 19764, Note_on_c, 0, 66, 43
3, 19817, Control_c, 0, 64, 127
3, 19835, Note_on_c, 0, 66, 0
3, 19842, Note_on_c, 0, 78, 0
3, 19873, Note_on_c, 0, 80, 59
3, 19875, Note_on_c, 0, 54, 0
3, 19877, Note_on_c, 0, 68, 32
3, 19879, Note_on_c, 0, 56, 31
3, 19907, Note_on_c, 0, 80, 0
3, 19921, Note_on_c, 0, 68, 0
3, 19984, Note_on_c, 0, 56, 0
3, 19999, Note_on_c, 0, 75, 61
3, 20005, Control_c, 0, 64, 0
3, 20005, Note_on_c, 0, 68, 50
3, 20008, Note_on_c, 0, 64, 53
3, 20074, Note_on_c, 0, 63, 38
3, 20135, Note_on_c, 0, 63, 0
3, 20141, Note_on_c, 0, 64, 0
3, 20146, Note_on_c, 0, 61, 55
3, 20156, Note_on_c, 0, 68, 0
3, 20221, Note_on_c, 0, 68, 45
3, 20222, Note_on_c, 0, 64, 53
3, 20244, Note_on_c, 0, 64, 0
3, 20266, Note_on_c, 0, 68, 0
3, 20290, Note_on_c, 0, 59, 74
3, 20292, Note_on_c, 0, 61, 0
3, 20362, Note_on_c, 0, 64, 46
3, 20365, Note_on_c, 0, 68, 29
3, 20380, Note_on_c, 0, 64, 0
3, 20386, Note_on_c, 0, 68, 0
3, 20437, Note_on_c, 0, 59, 0
3, 20438, Note_on_c, 0, 58, 57
3, 20439, Note_on_c, 0, 68, 37
3, 20441, Note_on_c, 0, 64, 44
3, 20456, Note_on_c, 0, 64, 0
3, 20463, Note_on_c, 0, 68, 0
3, 20511, Note_on_c, 0, 64, 49
3, 20512, Note_on_c, 0, 68, 40
3, 20530, Note_on_c, 0, 64, 0
3, 20534, Note_on_c, 0, 68, 0
3, 20585, Note_on_c, 0, 54, 47
3, 20588, Note_on_c, 0, 64, 46
3, 20588, Note_on_c, 0, 68, 40
3, 20591, Note_on_c, 0, 58, 0
3, 20601, Control_c, 0, 64, 127
3, 20604, Note_on_c, 0, 64, 0
3, 20606, Control_c, 0, 64, 0
3, 20609, Note_on_c, 0, 68, 0
3, 20616, Note_on_c, 0, 54, 0
3, 20670, Note_on_c, 0, 68, 39
3, 20671, Note_on_c, 0, 64, 43
3, 20687, Note_on_c, 0, 64, 0
3, 20691, Note_on_c, 0, 68, 0
3, 20769, Note_on_c, 0, 64, 35
3, 20770, Note_on_c, 0, 42, 35
3, 20771, Note_on_c, 0, 68, 33
3, 20775, Note_on_c, 0, 30, 29
3, 20789, Control_c, 0, 64, 127
3, 20868, Note_on_c, 0, 30, 0
3, 20870, Note_on_c, 0, 64, 0
3, 20884, Note_on_c, 0, 42, 0
3, 20901, Note_on_c, 0, 68, 0
3, 20929, Note_on_c, 0, 75, 0
3, 21242, Note_on_c, 0, 97, 61
3, 21245, Note_on_c, 0, 61, 43
3, 21250, Control_c, 0, 64, 0
3, 21303, Control_c, 0, 64, 127
3, 21384, Note_on_c, 0, 97, 0
3, 21395, Note_on_c, 0, 61, 0
3, 21401, Note_on_c, 0, 59, 45
3, 21402, Note_on_c, 0, 95, 43
3, 21407, Control_c, 0, 64, 0
3, 21431, Control_c, 0, 64, 127
3, 21498, Note_on_c, 0, 59, 0
3, 21682, Note_on_c, 0, 95, 0
3, 21876, Note_on_c, 0, 94, 64
3, 21881, Control_c, 0, 64, 0
3, 21884, Note_on_c, 0, 91, 55
3, 21889, Note_on_c, 0, 47, 34
3, 21889, Note_on_c, 0, 87, 51
3, 21893, Note_on_c, 0, 82, 39
3, 21929, Control_c, 0, 64, 127
3, 21963, Note_on_c, 0, 91, 0
3, 21973, Note_on_c, 0, 94, 0
3, 21984, Note_on_c, 0, 87, 0
3, 21990, Note_on_c, 0, 82, 0
3, 22008, Note_on_c, 0, 54, 39
3, 22118, Note_on_c, 0, 70, 50
3, 22122, Note_on_c, 0, 66, 61
3, 22123, Note_on_c, 0, 63, 46
3, 22126, Note_on_c, 0, 58, 41
3, 22267, Note_on_c, 0, 58, 0
3, 22282, Note_on_c, 0, 58, 63
3, 22377, Note_on_c, 0, 58, 0
3, 22404, Note_on_c, 0, 66, 0
3, 22409, Note_on_c, 0, 63, 0
3, 22410, Note_on_c, 0, 70, 0
3, 22423, Note_on_c, 0, 63, 61
3, 22435, Note_on_c, 0, 68, 25
3, 22452, Note_on_c, 0, 56, 7
3, 22474, Note_on_c, 0, 47, 0
3, 22529, Note_on_c, 0, 47, 55
3, 22531, Note_on_c, 0, 70, 82
3, 22553, Note_on_c, 0, 54, 0
3, 22568, Note_on_c, 0, 47, 0
3, 22617, Note_on_c, 0, 63, 0
3, 22626, Note_on_c, 0, 70, 0
3, 22628, Note_on_c, 0, 68, 0
3, 22631, Note_on_c, 0, 56, 0
3, 22637, Control_c, 0, 64, 0
3, 22643, Note_on_c, 0, 70, 70
3, 22645, Note_on_c, 0, 62, 64
3, 22645, Note_on_c, 0, 46, 56
3, 22646, Note_on_c, 0, 65, 65
3, 22719, Control_c, 0, 64, 127
3, 22739, Note_on_c, 0, 56, 55
3, 22806, Note_on_c, 0, 46, 0
3, 22829, Note_on_c, 0, 46, 52
3, 22888, Note_on_c, 0, 70, 0
3, 22904, Note_on_c, 0, 46, 0
3, 22914, Note_on_c, 0, 62, 0
3, 22923, Note_on_c, 0, 70, 62
3, 22924, Note_on_c, 0, 56, 0
3, 22934, Note_on_c, 0, 65, 0
3, 22981, Note_on_c, 0, 70, 0
3, 23014, Control_c, 0, 64, 0
3, 23022, Note_on_c, 0, 70, 68
3, 23028, Note_on_c, 0, 51, 37
3, 23076, Control_c, 0, 64, 127
3, 23113, Note_on_c, 0, 59, 23
3, 23114, Note_on_c, 0, 70, 0
3, 23196, Note_on_c, 0, 59, 0
3, 23199, Note_on_c, 0, 77, 65
3, 23211, Note_on_c, 0, 62, 37
3, 23285, Note_on_c, 0, 62, 0
3, 23295, Note_on_c, 0, 77, 0
3, 23295, Note_on_c, 0, 74, 56
3, 23297, Note_on_c, 0, 59, 33
3, 23384, Note_on_c, 0, 74, 0
3, 23396, Note_on_c, 0, 59, 0
3, 23399, Control_c, 0, 64, 0
3, 23404, Note_on_c, 0, 75, 52
3, 23412, Note_on_c, 0, 60, 35
3, 23464, Control_c, 0, 64, 127
3, 23486, Note_on_c, 0, 51, 0
3, 23520, Note_on_c, 0, 51, 37
3, 23545, Note_on_c, 0, 75, 0
3, 23574, Note_on_c, 0, 60, 0
3, 23683, Note_on_c, 0, 84, 74
3, 23685, Control_c, 0, 64, 0
3, 23688, Note_on_c, 0, 75, 53
3, 23696, Note_on_c, 0, 60, 28
3, 23716, Control_c, 0, 64, 127
3, 23755, Note_on_c, 0, 84, 0
3, 23788, Note_on_c, 0, 75, 0
3, 23851, Note_on_c, 0, 51, 0
3, 23873, Note_on_c, 0, 86, 74
3, 23876, Note_on_c, 0, 51, 37
3, 23883, Note_on_c, 0, 77, 35
3, 23920, Note_on_c, 0, 60, 0
3, 23928, Note_on_c, 0, 86, 0
3, 23936, Note_on_c, 0, 51, 0
3, 23948, Note_on_c, 0, 77, 0
3, 24003, Control_c, 0, 64, 0
3, 24017, Note_on_c, 0, 87, 73
3, 24018, Note_on_c, 0, 58, 43
3, 24021, Note_on_c, 0, 48, 43
3, 24023, Note_on_c, 0, 75, 29
3, 24024, Note_on_c, 0, 79, 41
3, 24041, Control_c, 0, 64, 127
3, 24051, Note_on_c, 0, 48, 0
3, 24073, Note_on_c, 0, 58, 0
3, 24124, Note_on_c, 0, 79, 0
3, 24132, Note_on_c, 0, 87, 0
3, 24149, Note_on_c, 0, 58, 29
3, 24149, Note_on_c, 0, 67, 35
3, 24152, Note_on_c, 0, 62, 46
3, 24152, Note_on_c, 0, 63, 40
3, 24162, Note_on_c, 0, 75, 0
3, 24284, Note_on_c, 0, 72, 56
3, 24299, Note_on_c, 0, 62, 0
3, 24305, Note_on_c, 0, 67, 0
3, 24305, Note_on_c, 0, 72, 0
3, 24322, Note_on_c, 0, 58, 0
3, 24324, Note_on_c, 0, 63, 0
3, 24331, Note_on_c, 0, 75, 100
3, 24365, Note_on_c, 0, 75, 0
3, 24385, Control_c, 0, 64, 0
3, 24390, Note_on_c, 0, 79, 95
3, 24391, Note_on_c, 0, 74, 107
3, 24394, Note_on_c, 0, 57, 59
3, 24396, Note_on_c, 0, 67, 51
3, 24401, Note_on_c, 0, 63, 31
3, 24480, Note_on_c, 0, 72, 56
3, 24483, Note_on_c, 0, 74, 0
3, 24486, Control_c, 0, 64, 127
3, 24496, Control_c, 0, 64, 0
3, 24513, Control_c, 0, 64, 127
3, 24608, Note_on_c, 0, 79, 0
3, 24727, Note_on_c, 0, 67, 0
3, 24749, Note_on_c, 0, 75, 68
3, 24752, Note_on_c, 0, 57, 0
3, 24753, Note_on_c, 0, 63, 0
3, 24770, Note_on_c, 0, 72, 0
3, 24795, Note_on_c, 0, 72, 40
3, 24810, Note_on_c, 0, 75, 0
3, 24857, Note_on_c, 0, 72, 0
3, 24857, Control_c, 0, 64, 0
3, 24861, Note_on_c, 0, 75, 74
3, 24864, Note_on_c, 0, 48, 51
3, 24903, Control_c, 0, 64, 127
3, 24992, Note_on_c, 0, 67, 55
3, 24997, Note_on_c, 0, 58, 35
3, 25000, Note_on_c, 0, 63, 29
3, 25010, Note_on_c, 0, 75, 0
3, 25090, Note_on_c, 0, 48, 0
3, 25095, Note_on_c, 0, 58, 0
3, 25275, Control_c, 0, 64, 0
3, 25294, Note_on_c, 0, 29, 46
3, 25304, Control_c, 0, 64, 127
3, 25310, Note_on_c, 0, 29, 0
3, 25341, Note_on_c, 0, 67, 0
3, 25359, Note_on_c, 0, 63, 0
3, 25445, Note_on_c, 0, 66, 46
3, 25448, Note_on_c, 0, 51, 38
3, 25448, Note_on_c, 0, 62, 49
3, 25453, Note_on_c, 0, 57, 43
3, 25512, Note_on_c, 0, 62, 0
3, 25546, Note_on_c, 0, 66, 0
3, 25640, Note_on_c, 0, 72, 52
3, 25652, Note_on_c, 0, 57, 0
3, 25683, Note_on_c, 0, 72, 0
3, 25688, Note_on_c, 0, 51, 0
3, 25694, Note_on_c, 0, 74, 91
3, 25704, Note_on_c, 0, 72, 37
3, 25726, Note_on_c, 0, 74, 0
3, 25728, Note_on_c, 0, 72, 0
3, 25759, Control_c, 0, 64, 0
3, 25764, Note_on_c, 0, 48, 56
3, 25764, Note_on_c, 0, 67, 81
3, 25765, Note_on_c, 0, 75, 80
3, 25767, Note_on_c, 0, 58, 38
3, 25770, Note_on_c, 0, 63, 37
3, 25809, Control_c, 0, 64, 127
3, 25815, Note_on_c, 0, 48, 0
3, 25822, Note_on_c, 0, 58, 0
3, 25844, Note_on_c, 0, 59, 53
3, 25893, Note_on_c, 0, 59, 0
3, 25905, Note_on_c, 0, 60, 86
3, 25921, Control_c, 0, 64, 0
3, 25931, Note_on_c, 0, 67, 0
3, 25940, Note_on_c, 0, 63, 0
3, 25973, Control_c, 0, 64, 127
3, 26044, Note_on_c, 0, 63, 47
3, 26082, Note_on_c, 0, 75, 0
3, 26083, Note_on_c, 0, 63, 0
3, 26102, Note_on_c, 0, 67, 51
3, 26125, Note_on_c, 0, 67, 0
3, 26138, Note_on_c, 0, 60, 0
3, 26169, Note_on_c, 0, 73, 45
3, 26175, Control_c, 0, 64, 0
3, 26177, Note_on_c, 0, 58, 44
3, 26177, Note_on_c, 0, 63, 44
3, 26179, Note_on_c, 0, 73, 0
3, 26180, Note_on_c, 0, 79, 43
3, 26182, Note_on_c, 0, 74, 61
3, 26182, Note_on_c, 0, 53, 26
3, 26184, Note_on_c, 0, 69, 33
3, 26252, Control_c, 0, 64, 127
3, 26309, Note_on_c, 0, 74, 0
3, 26330, Note_on_c, 0, 58, 0
3, 26338, Note_on_c, 0, 63, 0
3, 26355, Note_on_c, 0, 69, 0
3, 26402, Note_on_c, 0, 79, 0
3, 26403, Note_on_c, 0, 69, 38
3, 26404, Note_on_c, 0, 72, 37
3, 26407, Note_on_c, 0, 60, 40
3, 26408, Note_on_c, 0, 63, 17
3, 26475, Note_on_c, 0, 69, 0
3, 26479, Note_on_c, 0, 75, 89
3, 26491, Note_on_c, 0, 72, 0
3, 26518, Note_on_c, 0, 63, 0
3, 26523, Note_on_c, 0, 60, 0
3, 26523, Note_on_c, 0, 53, 0
3, 26540, Note_on_c, 0, 72, 55
3, 26559, Note_on_c, 0, 75, 0
3, 26608, Note_on_c, 0, 72, 0
3, 26611, Control_c, 0, 64, 0
3, 26613, Note_on_c, 0, 75, 76
3, 26617, Note_on_c, 0, 48, 44
3, 26624, Note_on_c, 0, 58, 21
3, 26646, Control_c, 0, 64, 127
3, 26666, Note_on_c, 0, 48, 0
3, 26693, Note_on_c, 0, 58, 0
3, 26834, Note_on_c, 0, 67, 43
3, 26835, Note_on_c, 0, 63, 39
3, 26929, Note_on_c, 0, 67, 0
3, 26972, Note_on_c, 0, 63, 0
3, 27053, Control_c, 0, 64, 0
3, 27060, Note_on_c, 0, 65, 31
3, 27064, Note_on_c, 0, 57, 40
3, 27066, Note_on_c, 0, 63, 21
3, 27089, Control_c, 0, 64, 127
3, 27116, Note_on_c, 0, 75, 0
3, 27177, Note_on_c, 0, 65, 0
3, 27193, Note_on_c, 0, 86, 82
3, 27213, Note_on_c, 0, 74, 65
3, 27220, Note_on_c, 0, 63, 0
3, 27287, Note_on_c, 0, 63, 35
3, 27290, Note_on_c, 0, 65, 34
3, 27294, Note_on_c, 0, 86, 0
3, 27297, Note_on_c, 0, 74, 0
3, 27354, Note_on_c, 0, 87, 80
3, 27364, Note_on_c, 0, 75, 61
3, 27371, Note_on_c, 0, 65, 0
3, 27388, Note_on_c, 0, 57, 0
3, 27406, Note_on_c, 0, 63, 0
3, 27430, Note_on_c, 0, 75, 0
3, 27440, Note_on_c, 0, 87, 0
3, 27651, Note_on_c, 0, 89, 74
3, 27652, Control_c, 0, 64, 0
3, 27652, Note_on_c, 0, 65, 61
3, 27653, Note_on_c, 0, 77, 58
3, 27657, Note_on_c, 0, 62, 59
3, 27657, Note_on_c, 0, 60, 51
3, 27683, Control_c, 0, 64, 127
3, 27712, Note_on_c, 0, 65, 0
3, 27741, Note_on_c, 0, 77, 0
3, 27747, Note_on_c, 0, 89, 0
3, 27754, Note_on_c, 0, 53, 63
3, 27756, Note_on_c, 0, 86, 92
3, 27801, Note_on_c, 0, 60, 0
3, 27820, Note_on_c, 0, 62, 0
3, 27830, Note_on_c, 0, 86, 0
3, 27860, Note_on_c, 0, 87, 99
3, 27897, Note_on_c, 0, 87, 0
3, 27960, Note_on_c, 0, 93, 79
3, 27967, Control_c, 0, 64, 0
3, 27969, Note_on_c, 0, 86, 88
3, 27971, Note_on_c, 0, 62, 47
3, 27974, Note_on_c, 0, 60, 28
3, 27975, Note_on_c, 0, 81, 69
3, 27977, Note_on_c, 0, 65, 44
3, 28003, Control_c, 0, 64, 127
3, 28051, Note_on_c, 0, 65, 0
3, 28074, Note_on_c, 0, 53, 0
3, 28096, Note_on_c, 0, 53, 56
3, 28146, Note_on_c, 0, 93, 0
3, 28150, Note_on_c, 0, 86, 0
3, 28190, Note_on_c, 0, 81, 0
3, 28209, Note_on_c, 0, 91, 85
3, 28287, Note_on_c, 0, 53, 0
3, 28302, Note_on_c, 0, 91, 0
3, 28313, Note_on_c, 0, 89, 71
3, 28315, Note_on_c, 0, 53, 43
3, 28349, Note_on_c, 0, 53, 0
3, 28370, Note_on_c, 0, 60, 0
3, 28410, Note_on_c, 0, 89, 0
3, 28426, Note_on_c, 0, 55, 49
3, 28427, Note_on_c, 0, 91, 64
3, 28429, Control_c, 0, 64, 0
3, 28431, Note_on_c, 0, 86, 68
3, 28431, Note_on_c, 0, 79, 45
3, 28432, Note_on_c, 0, 65, 47
3, 28443, Note_on_c, 0, 58, 37
3, 28467, Control_c, 0, 64, 127
3, 28495, Note_on_c, 0, 62, 0
3, 28545, Note_on_c, 0, 62, 45
3, 28560, Note_on_c, 0, 79, 0
3, 28562, Note_on_c, 0, 65, 0
3, 28571, Note_on_c, 0, 91, 0
3, 28586, Note_on_c, 0, 86, 0
3, 28664, Note_on_c, 0, 93, 67
3, 28665, Note_on_c, 0, 65, 49
3, 28667, Note_on_c, 0, 86, 63
3, 28670, Note_on_c, 0, 81, 45
3, 28691, Note_on_c, 0, 65, 0
3, 28699, Note_on_c, 0, 81, 0
3, 28700, Note_on_c, 0, 62, 0
3, 28703, Note_on_c, 0, 55, 0
3, 28703, Note_on_c, 0, 93, 0
3, 28714, Note_on_c, 0, 86, 0
3, 28721, Note_on_c, 0, 58, 0
3, 28774, Note_on_c, 0, 94, 47
3, 28774, Note_on_c, 0, 82, 40
3, 28808, Note_on_c, 0, 82, 0
3, 28811, Note_on_c, 0, 94, 0
3, 28901, Control_c, 0, 64, 0
3, 28902, Note_on_c, 0, 96, 50
3, 28907, Note_on_c, 0, 24, 39
3, 28911, Note_on_c, 0, 36, 26
3, 28912, Note_on_c, 0, 84, 23
3, 28947, Control_c, 0, 64, 127
3, 28986, Note_on_c, 0, 36, 0
3, 28988, Note_on_c, 0, 84, 0
3, 28996, Note_on_c, 0, 24, 0
3, 28998, Note_on_c, 0, 96, 0
3, 29295, Note_on_c, 0, 96, 49
3, 29334, Note_on_c, 0, 96, 0
3, 29398, Control_c, 0, 64, 0
3, 29407, Note_on_c, 0, 54, 38
3, 29408, Note_on_c, 0, 96, 51
3, 29432, Control_c, 0, 64, 127
3, 29455, Note_on_c, 0, 96, 0
3, 29511, Note_on_c, 0, 58, 29
3, 29564, Note_on_c, 0, 60, 50
3, 29574, Note_on_c, 0, 58, 0
3, 29599, Note_on_c, 0, 63, 47
3, 29641, Note_on_c, 0, 67, 35
3, 29665, Note_on_c, 0, 67, 0
3, 29667, Note_on_c, 0, 69, 37
3, 29685, Note_on_c, 0, 69, 0
3, 29693, Note_on_c, 0, 70, 40
3, 29709, Note_on_c, 0, 70, 0
3, 29722, Note_on_c, 0, 72, 43
3, 29742, Note_on_c, 0, 72, 0
3, 29744, Note_on_c, 0, 73, 45
3, 29766, Note_on_c, 0, 73, 0
3, 29775, Note_on_c, 0, 75, 48
3, 29788, Note_on_c, 0, 75, 0
3, 29794, Note_on_c, 0, 77, 50
3, 29816, Note_on_c, 0, 77, 0
3, 29824, Note_on_c, 0, 79, 53
3, 29845, Note_on_c, 0, 79, 0
3, 29853, Note_on_c, 0, 81, 56
3, 29874, Note_on_c, 0, 81, 0
3, 29874, Note_on_c, 0, 63, 0
3, 29884, Note_on_c, 0, 82, 59
3, 29899, Note_on_c, 0, 82, 0
3, 29910, Note_on_c, 0, 54, 0
3, 29916, Note_on_c, 0, 84, 62
3, 29931, Note_on_c, 0, 84, 0
3, 29946, Note_on_c, 0, 86, 65
3, 29968, Note_on_c, 0, 86, 0
3, 29980, Note_on_c, 0, 87, 69
3, 29980, Note_on_c, 0, 60, 0
3, 30004, Note_on_c, 0, 87, 0
3, 30004, Control_c, 0, 64, 0
3, 30023, Note_on_c, 0, 89, 73
3, 30054, Control_c, 0, 64, 127
3, 30085, Note_on_c, 0, 89, 0
3, 30095, Note_on_c, 0, 91, 80
3, 30138, Note_on_c, 0, 91, 0
3, 30152, Note_on_c, 0, 92, 97
3, 30183, Note_on_c, 0, 92, 0
3, 30203, Note_on_c, 0, 94, 97
3, 30254, Note_on_c, 0, 94, 0
3, 30257, Control_c, 0, 64, 0
3, 30266, Note_on_c, 0, 96, 80
3, 30296, Control_c, 0, 64, 127
3, 30323, Note_on_c, 0, 96, 0
3, 30494, Note_on_c, 0, 70, 56
3, 30497, Note_on_c, 0, 67, 53
3, 30500, Note_on_c, 0, 63, 35
3, 30502, Note_on_c, 0, 60, 44
3, 30508, Note_on_c, 0, 56, 25
3, 30608, Note_on_c, 0, 67, 0
3, 30623, Note_on_c, 0, 70, 0
3, 30630, Note_on_c, 0, 56, 0
3, 30637, Note_on_c, 0, 60, 0
3, 30679, Note_on_c, 0, 63, 0
3, 30733, Note_on_c, 0, 67, 58
3, 30738, Control_c, 0, 64, 0
3, 30740, Note_on_c, 0, 64, 43
3, 30741, Note_on_c, 0, 59, 28
3, 30742, Note_on_c, 0, 56, 23
3, 30742, Note_on_c, 0, 62, 37
3, 30743, Note_on_c, 0, 46, 33
3, 30798, Control_c, 0, 64, 127
3, 30860, Note_on_c, 0, 59, 0
3, 30886, Note_on_c, 0, 62, 0
3, 30886, Note_on_c, 0, 64, 0
3, 30887, Note_on_c, 0, 67, 0
3, 30928, Note_on_c, 0, 56, 0
3, 30974, Note_on_c, 0, 46, 0
3, 31086, Note_on_c, 0, 99, 52
3, 31088, Note_on_c, 0, 87, 37
3, 31112, Note_on_c, 0, 87, 0
3, 31115, Note_on_c, 0, 99, 0
3, 31138, Note_on_c, 0, 89, 55
3, 31143, Note_on_c, 0, 101, 41
3, 31173, Note_on_c, 0, 89, 0
3, 31174, Note_on_c, 0, 101, 0
3, 31213, Note_on_c, 0, 103, 73
3, 31214, Note_on_c, 0, 91, 40
3, 31218, Control_c, 0, 64, 0
3, 31223, Note_on_c, 0, 96, 26
3, 31228, Note_on_c, 0, 63, 27
3, 31228, Note_on_c, 0, 68, 27
3, 31239, Note_on_c, 0, 60, 26
3, 31258, Control_c, 0, 64, 127
3, 31280, Note_on_c, 0, 68, 0
3, 31286, Note_on_c, 0, 60, 0
3, 31293, Note_on_c, 0, 63, 0
3, 31331, Note_on_c, 0, 96, 0
3, 31336, Note_on_c, 0, 103, 0
3, 31358, Note_on_c, 0, 91, 0
3, 31367, Note_on_c, 0, 103, 57
3, 31372, Note_on_c, 0, 34, 61
3, 31414, Note_on_c, 0, 103, 0
3, 31415, Note_on_c, 0, 34, 0
3, 31464, Note_on_c, 0, 103, 44
3, 31563, Note_on_c, 0, 103, 0
3, 31614, Note_on_c, 0, 103, 50
3, 31667, Note_on_c, 0, 103, 0
3, 31698, Control_c, 0, 64, 0
3, 31707, Note_on_c, 0, 103, 70
3, 31711, Note_on_c, 0, 67, 38
3, 31715, Note_on_c, 0, 62, 47
3, 31715, Note_on_c, 0, 56, 25
3, 31716, Note_on_c, 0, 91, 22
3, 31737, Control_c, 0, 64, 127
3, 31753, Note_on_c, 0, 67, 0
3, 31758, Note_on_c, 0, 62, 0
3, 31772, Note_on_c, 0, 56, 0
3, 31830, Note_on_c, 0, 103, 0
3, 31868, Note_on_c, 0, 103, 74
3, 31933, Note_on_c, 0, 103, 0
3, 31953, Note_on_c, 0, 34, 68
3, 31955, Note_on_c, 0, 103, 69
3, 31977, Note_on_c, 0, 34, 0
3, 32057, Note_on_c, 0, 103, 0
3, 32111, Note_on_c, 0, 91, 0
3, 32124, Note_on_c, 0, 103, 61
3, 32132, Note_on_c, 0, 103, 0
3, 32211, Control_c, 0, 64, 0
3, 32211, Note_on_c, 0, 98, 70
3, 32214, Note_on_c, 0, 65, 52
3, 32216, Note_on_c, 0, 62, 46
3, 32216, Note_on_c, 0, 86, 53
3, 32217, Note_on_c, 0, 91, 52
3, 32220, Note_on_c, 0, 60, 34
3, 32245, Control_c, 0, 64, 127
3, 32285, Note_on_c, 0, 65, 0
3, 32291, Note_on_c, 0, 62, 0
3, 32294, Note_on_c, 0, 60, 0
3, 32337, Note_on_c, 0, 98, 0
3, 32372, Note_on_c, 0, 98, 50
3, 32423, Note_on_c, 0, 98, 0
3, 32454, Note_on_c, 0, 34, 44
3, 32454, Note_on_c, 0, 98, 41
3, 32482, Note_on_c, 0, 34, 0
3, 32572, Note_on_c, 0, 98, 0
3, 32603, Note_on_c, 0, 98, 55
3, 32605, Note_on_c, 0, 86, 0
3, 32658, Note_on_c, 0, 91, 0
3, 32663, Note_on_c, 0, 98, 0
3, 32702, Note_on_c, 0, 98, 49
3, 32704, Note_on_c, 0, 62, 39
3, 32707, Note_on_c, 0, 65, 32
3, 32707, Note_on_c, 0, 91, 39
3, 32708, Note_on_c, 0, 60, 38
3, 32709, Note_on_c, 0, 86, 38
3, 32738, Note_on_c, 0, 65, 0
3, 32740, Note_on_c, 0, 62, 0
3, 32747, Note_on_c, 0, 60, 0
3, 32809, Note_on_c, 0, 98, 0
3, 32854, Note_on_c, 0, 98, 63
3, 32890, Note_on_c, 0, 86, 0
3, 32913, Note_on_c, 0, 91, 0
3, 32915, Note_on_c, 0, 98, 0
3, 32943, Note_on_c, 0, 34, 43
3, 32943, Note_on_c, 0, 98, 45
3, 32946, Note_on_c, 0, 46, 32
3, 32951, Note_on_c, 0, 91, 33
3, 32952, Note_on_c, 0, 86, 33
3, 32964, Note_on_c, 0, 34, 0
3, 32968, Note_on_c, 0, 46, 0
3, 33032, Note_on_c, 0, 86, 0
3, 33034, Note_on_c, 0, 98, 0
3, 33043, Note_on_c, 0, 91, 0
3, 33103, Note_on_c, 0, 86, 44
3, 33103, Note_on_c, 0, 98, 47
3, 33107, Note_on_c, 0, 91, 29
3, 33114, Note_on_c, 0, 86, 0
3, 33117, Note_on_c, 0, 91, 0
3, 33128, Note_on_c, 0, 98, 0
3, 33160, Note_on_c, 0, 101, 41
3, 33173, Note_on_c, 0, 101, 0
3, 33225, Note_on_c, 0, 32, 76
3, 33226, Note_on_c, 0, 44, 62
3, 33229, Control_c, 0, 64, 0
3, 33235, Note_on_c, 0, 101, 38
3, 33256, Note_on_c, 0, 101, 0
3, 33269, Control_c, 0, 64, 127
3, 33289, Note_on_c, 0, 32, 0
3, 33299, Note_on_c, 0, 44, 0
3, 33383, Note_on_c, 0, 101, 74
3, 33384, Note_on_c, 0, 94, 61
3, 33432, Note_on_c, 0, 94, 0
3, 33438, Note_on_c, 0, 101, 0
3, 33475, Note_on_c, 0, 101, 69
3, 33475, Note_on_c, 0, 58, 59
3, 33477, Note_on_c, 0, 65, 58
3, 33477, Note_on_c, 0, 61, 55
3, 33479, Note_on_c, 0, 90, 47
3, 33479, Note_on_c, 0, 94, 61
3, 33479, Note_on_c, 0, 54, 44
3, 33577, Note_on_c, 0, 101, 0
3, 33579, Note_on_c, 0, 94, 0
3, 33589, Note_on_c, 0, 90, 0
3, 33635, Note_on_c, 0, 101, 74
3, 33637, Note_on_c, 0, 90, 63
3, 33638, Note_on_c, 0, 94, 59
3, 33642, Note_on_c, 0, 65, 0
3, 33671, Note_on_c, 0, 54, 0
3, 33673, Note_on_c, 0, 101, 0
3, 33683, Note_on_c, 0, 94, 0
3, 33684, Note_on_c, 0, 61, 0
3, 33692, Note_on_c, 0, 90, 0
3, 33719, Note_on_c, 0, 58, 0
3, 33724, Control_c, 0, 64, 0
3, 33734, Note_on_c, 0, 54, 41
3, 33736, Note_on_c, 0, 90, 65
3, 33736, Note_on_c, 0, 101, 70
3, 33736, Note_on_c, 0, 93, 69
3, 33739, Note_on_c, 0, 64, 49
3, 33740, Note_on_c, 0, 60, 47
3, 33772, Control_c, 0, 64, 127
3, 33818, Note_on_c, 0, 64, 0
3, 33820, Note_on_c, 0, 60, 0
3, 33838, Note_on_c, 0, 54, 0
3, 33872, Note_on_c, 0, 101, 0
3, 33905, Note_on_c, 0, 101, 59
3, 33993, Note_on_c, 0, 32, 63
3, 34118, Note_on_c, 0, 90, 0
3, 34120, Note_on_c, 0, 93, 0
3, 34122, Note_on_c, 0, 101, 0
3, 34174, Note_on_c, 0, 101, 40
3, 34180, Note_on_c, 0, 90, 25
3, 34205, Note_on_c, 0, 101, 0
3, 34210, Note_on_c, 0, 32, 0
3, 34231, Note_on_c, 0, 90, 0
3, 34283, Note_on_c, 0, 89, 57
3, 34284, Note_on_c, 0, 37, 59
3, 34285, Control_c, 0, 64, 0
3, 34286, Note_on_c, 0, 92, 62
3, 34289, Note_on_c, 0, 96, 59
3, 34323, Control_c, 0, 64, 127
3, 34355, Note_on_c, 0, 96, 0
3, 34363, Note_on_c, 0, 92, 0
3, 34368, Note_on_c, 0, 37, 0
3, 34372, Note_on_c, 0, 89, 0
3, 34530, Note_on_c, 0, 72, 34
3, 34532, Note_on_c, 0, 63, 32
3, 34532, Note_on_c, 0, 65, 49
3, 34533, Note_on_c, 0, 68, 39
3, 34535, Note_on_c, 0, 60, 40
3, 34539, Note_on_c, 0, 56, 31
3, 34585, Note_on_c, 0, 63, 0
3, 34600, Note_on_c, 0, 53, 1
3, 34600, Note_on_c, 0, 60, 0
3, 34681, Note_on_c, 0, 56, 0
3, 34682, Note_on_c, 0, 65, 0
3, 34691, Note_on_c, 0, 68, 0
3, 34797, Note_on_c, 0, 68, 38
3, 34797, Note_on_c, 0, 65, 51
3, 34798, Note_on_c, 0, 56, 33
3, 34801, Note_on_c, 0, 60, 31
3, 34807, Control_c, 0, 64, 0
3, 34846, Control_c, 0, 64, 127
3, 34928, Note_on_c, 0, 60, 0
3, 34977, Note_on_c, 0, 65, 0
3, 34983, Note_on_c, 0, 68, 0
3, 35052, Note_on_c, 0, 72, 0
3, 35061, Note_on_c, 0, 53, 0
3, 35068, Note_on_c, 0, 68, 25
3, 35070, Note_on_c, 0, 65, 45
3, 35072, Note_on_c, 0, 60, 37
3, 35085, Note_on_c, 0, 56, 0
3, 35117, Note_on_c, 0, 60, 0
3, 35168, Note_on_c, 0, 60, 74
3, 35234, Note_on_c, 0, 65, 0
3, 35243, Note_on_c, 0, 60, 0
3, 35245, Note_on_c, 0, 61, 85
3, 35248, Note_on_c, 0, 68, 0
3, 35324, Note_on_c, 0, 75, 77
3, 35326, Note_on_c, 0, 71, 73
3, 35327, Note_on_c, 0, 68, 56
3, 35327, Note_on_c, 0, 64, 75
3, 35329, Note_on_c, 0, 63, 82
3, 35332, Control_c, 0, 64, 0
3, 35332, Note_on_c, 0, 61, 0
3, 35408, Note_on_c, 0, 63, 0
3, 35428, Note_on_c, 0, 63, 74
3, 35430, Control_c, 0, 64, 127
3, 35471, Note_on_c, 0, 64, 0
3, 35496, Note_on_c, 0, 68, 0
3, 35497, Note_on_c, 0, 71, 0
3, 35553, Note_on_c, 0, 75, 0
3, 35588, Note_on_c, 0, 75, 56
3, 35593, Note_on_c, 0, 71, 59
3, 35595, Note_on_c, 0, 68, 41
3, 35597, Note_on_c, 0, 64, 46
3, 35683, Note_on_c, 0, 61, 80
3, 35735, Note_on_c, 0, 61, 0
3, 35760, Note_on_c, 0, 64, 0
3, 35763, Note_on_c, 0, 61, 69
3, 35768, Note_on_c, 0, 71, 0
3, 35775, Note_on_c, 0, 68, 0
3, 35777, Note_on_c, 0, 63, 0
3, 35809, Note_on_c, 0, 75, 0
3, 35838, Note_on_c, 0, 75, 55
3, 35841, Control_c, 0, 64, 0
3, 35842, Note_on_c, 0, 70, 53
3, 35844, Note_on_c, 0, 64, 51
3, 35845, Note_on_c, 0, 68, 47
3, 35847, Note_on_c, 0, 63, 64
3, 35855, Note_on_c, 0, 61, 0
3, 35894, Control_c, 0, 64, 127
3, 35921, Note_on_c, 0, 63, 0
3, 35938, Note_on_c, 0, 63, 68
3, 36022, Note_on_c, 0, 63, 0
3, 36124, Note_on_c, 0, 37, 58
3, 36141, Note_on_c, 0, 37, 0
3, 36422, Note_on_c, 0, 64, 0
3, 36516, Note_on_c, 0, 55, 64
3, 36537, Note_on_c, 0, 55, 0
3, 36582, Note_on_c, 0, 56, 82
3, 36612, Note_on_c, 0, 70, 0
3, 36646, Note_on_c, 0, 75, 0
3, 36647, Note_on_c, 0, 68, 0
3, 36656, Note_on_c, 0, 56, 0
3, 36668, Note_on_c, 0, 75, 68
3, 36670, Note_on_c, 0, 63, 88
3, 36674, Note_on_c, 0, 68, 51
3, 36674, Note_on_c, 0, 64, 65
3, 36675, Control_c, 0, 64, 0
3, 36685, Note_on_c, 0, 72, 17
3, 36700, Note_on_c, 0, 72, 0
3, 36714, Note_on_c, 0, 64, 0
3, 36744, Control_c, 0, 64, 127
3, 36772, Note_on_c, 0, 68, 0
3, 36786, Note_on_c, 0, 63, 0
3, 36818, Note_on_c, 0, 75, 0
3, 36850, Note_on_c, 0, 75, 59
3, 36857, Note_on_c, 0, 63, 68
3, 36857, Note_on_c, 0, 68, 46
3, 36861, Note_on_c, 0, 64, 41
3, 36875, Note_on_c, 0, 64, 0
3, 36924, Note_on_c, 0, 68, 0
3, 36929, Note_on_c, 0, 63, 0
3, 36930, Note_on_c, 0, 75, 0
3, 37063, Note_on_c, 0, 75, 65
3, 37067, Note_on_c, 0, 71, 64
3, 37067, Note_on_c, 0, 68, 53
3, 37069, Note_on_c, 0, 64, 55
3, 37070, Note_on_c, 0, 63, 57
3, 37113, Note_on_c, 0, 71, 0
3, 37117, Note_on_c, 0, 64, 0
3, 37123, Note_on_c, 0, 68, 0
3, 37132, Note_on_c, 0, 63, 0
3, 37141, Note_on_c, 0, 75, 0
3, 37154, Control_c, 0, 64, 0
3, 37163, Note_on_c, 0, 75, 57
3, 37165, Note_on_c, 0, 70, 70
3, 37168, Note_on_c, 0, 68, 55
3, 37169, Note_on_c, 0, 63, 65
3, 37169, Note_on_c, 0, 64, 61
3, 37198, Control_c, 0, 64, 127
3, 37284, Note_on_c, 0, 63, 0
3, 37333, Note_on_c, 0, 64, 0
3, 37353, Note_on_c, 0, 70, 0
3, 37356, Note_on_c, 0, 68, 0
3, 37400, Note_on_c, 0, 75, 0
3, 37426, Note_on_c, 0, 73, 39
3, 37429, Note_on_c, 0, 64, 47
3, 37431, Note_on_c, 0, 68, 40
3, 37433, Note_on_c, 0, 61, 44
3, 37433, Note_on_c, 0, 70, 41
3, 37470, Note_on_c, 0, 61, 0
3, 37558, Note_on_c, 0, 73, 0
3, 37562, Note_on_c, 0, 68, 0
3, 37563, Note_on_c, 0, 70, 0
3, 37576, Note_on_c, 0, 64, 0
3, 37688, Control_c, 0, 64, 0
3, 37692, Note_on_c, 0, 70, 44
3, 37697, Note_on_c, 0, 66, 34
3, 37699, Note_on_c, 0, 54, 27
3, 37699, Note_on_c, 0, 63, 34
3, 37700, Note_on_c, 0, 47, 41
3, 37701, Note_on_c, 0, 59, 28
3, 37744, Control_c, 0, 64, 127
3, 37826, Note_on_c, 0, 59, 0
3, 37857, Note_on_c, 0, 66, 0
3, 37886, Note_on_c, 0, 63, 0
3, 37964, Note_on_c, 0, 66, 41
3, 37966, Note_on_c, 0, 59, 56
3, 37969, Note_on_c, 0, 63, 38
3, 37973, Note_on_c, 0, 58, 31
3, 38115, Note_on_c, 0, 59, 0
3, 38118, Note_on_c, 0, 58, 0
3, 38137, Note_on_c, 0, 47, 0
3, 38167, Note_on_c, 0, 70, 0
3, 38177, Note_on_c, 0, 66, 0
3, 38177, Note_on_c, 0, 63, 0
3, 38229, Note_on_c, 0, 54, 0
3, 38241, Control_c, 0, 64, 0
3, 38247, Note_on_c, 0, 62, 68
3, 38247, Note_on_c, 0, 70, 62
3, 38247, Note_on_c, 0, 46, 46
3, 38249, Note_on_c, 0, 59, 57
3, 38249, Note_on_c, 0, 65, 61
3, 38255, Note_on_c, 0, 56, 29
3, 38307, Control_c, 0, 64, 127
3, 38391, Note_on_c, 0, 59, 0
3, 38391, Note_on_c, 0, 56, 0
3, 38428, Note_on_c, 0, 65, 0
3, 38430, Note_on_c, 0, 62, 0
3, 38525, Note_on_c, 0, 62, 56
3, 38528, Note_on_c, 0, 65, 43
3, 38531, Note_on_c, 0, 59, 33
3, 38532, Note_on_c, 0, 56, 25
3, 38623, Note_on_c, 0, 70, 0
3, 38627, Note_on_c, 0, 59, 0
3, 38644, Note_on_c, 0, 65, 0
3, 38651, Note_on_c, 0, 62, 0
3, 38656, Note_on_c, 0, 70, 89
3, 38691, Note_on_c, 0, 46, 0
3, 38717, Note_on_c, 0, 56, 0
3, 38763, Note_on_c, 0, 70, 0
3, 38790, Control_c, 0, 64, 0
3, 38797, Note_on_c, 0, 70, 73
3, 38799, Note_on_c, 0, 56, 43
3, 38800, Note_on_c, 0, 65, 76
3, 38800, Note_on_c, 0, 61, 65
3, 38802, Note_on_c, 0, 46, 39
3, 38831, Control_c, 0, 64, 127
3, 38874, Note_on_c, 0, 61, 0
3, 38882, Note_on_c, 0, 46, 0
3, 38890, Note_on_c, 0, 56, 0
3, 38908, Note_on_c, 0, 65, 0
3, 39060, Note_on_c, 0, 65, 49
3, 39063, Note_on_c, 0, 61, 43
3, 39064, Note_on_c, 0, 70, 0
3, 39065, Note_on_c, 0, 60, 39
3, 39271, Note_on_c, 0, 72, 79
3, 39279, Note_on_c, 0, 65, 0
3, 39280, Note_on_c, 0, 60, 0
3, 39327, Note_on_c, 0, 61, 0
3, 39338, Note_on_c, 0, 72, 0
3, 39348, Note_on_c, 0, 73, 74
3, 39351, Note_on_c, 0, 61, 43
3, 39354, Note_on_c, 0, 65, 63
3, 39358, Control_c, 0, 64, 0
3, 39359, Note_on_c, 0, 55, 52
3, 39426, Note_on_c, 0, 75, 86
3, 39431, Control_c, 0, 64, 127
3, 39439, Note_on_c, 0, 73, 0
3, 39460, Note_on_c, 0, 75, 0
3, 39480, Note_on_c, 0, 77, 77
3, 39495, Note_on_c, 0, 65, 0
3, 39523, Note_on_c, 0, 61, 0
3, 39525, Note_on_c, 0, 79, 76
3, 39530, Note_on_c, 0, 77, 0
3, 39554, Note_on_c, 0, 79, 0
3, 39568, Note_on_c, 0, 80, 83
3, 39595, Note_on_c, 0, 80, 0
3, 39607, Note_on_c, 0, 82, 71
3, 39620, Note_on_c, 0, 61, 40
3, 39620, Note_on_c, 0, 64, 56
3, 39622, Control_c, 0, 64, 0
3, 39646, Note_on_c, 0, 82, 0
3, 39653, Note_on_c, 0, 81, 74
3, 39700, Control_c, 0, 64, 127
3, 39707, Note_on_c, 0, 81, 0
3, 39708, Note_on_c, 0, 82, 74
3, 39737, Note_on_c, 0, 82, 0
3, 39747, Note_on_c, 0, 84, 61
3, 39770, Note_on_c, 0, 64, 0
3, 39780, Note_on_c, 0, 61, 0
3, 39780, Note_on_c, 0, 85, 77
3, 39781, Note_on_c, 0, 84, 0
3, 39789, Note_on_c, 0, 55, 0
3, 39810, Note_on_c, 0, 85, 0
3, 39821, Note_on_c, 0, 87, 58
3, 39841, Note_on_c, 0, 87, 0
3, 39846, Note_on_c, 0, 88, 59
3, 39872, Note_on_c, 0, 88, 0
3, 39878, Note_on_c, 0, 89, 69
3, 39904, Note_on_c, 0, 89, 0
3, 39910, Note_on_c, 0, 90, 76
3, 39933, Control_c, 0, 64, 0
3, 39949, Note_on_c, 0, 44, 46
3, 39951, Note_on_c, 0, 90, 0
3, 39951, Note_on_c, 0, 91, 79
3, 39954, Note_on_c, 0, 55, 37
3, 39983, Control_c, 0, 64, 127
3, 40022, Note_on_c, 0, 91, 0
3, 40043, Note_on_c, 0, 44, 0
3, 40047, Note_on_c, 0, 91, 75
3, 40053, Note_on_c, 0, 55, 0
3, 40074, Note_on_c, 0, 91, 0
3, 40116, Note_on_c, 0, 91, 79
3, 40151, Note_on_c, 0, 91, 0
3, 40174, Note_on_c, 0, 91, 74
3, 40207, Note_on_c, 0, 91, 0
3, 40230, Note_on_c, 0, 63, 40
3, 40232, Note_on_c, 0, 60, 43
3, 40234, Note_on_c, 0, 91, 76
3, 40237, Note_on_c, 0, 56, 27
3, 40244, Note_on_c, 0, 84, 43
3, 40245, Note_on_c, 0, 79, 37
3, 40290, Note_on_c, 0, 91, 0
3, 40303, Note_on_c, 0, 63, 0
3, 40307, Note_on_c, 0, 60, 0
3, 40308, Note_on_c, 0, 84, 0
3, 40310, Note_on_c, 0, 79, 0
3, 40331, Note_on_c, 0, 89, 29
3, 40340, Note_on_c, 0, 56, 0
3, 40340, Note_on_c, 0, 89, 0
3, 40396, Note_on_c, 0, 89, 74
3, 40402, Note_on_c, 0, 80, 62
3, 40429, Note_on_c, 0, 80, 0
3, 40439, Note_on_c, 0, 89, 0
3, 40511, Note_on_c, 0, 91, 68
3, 40511, Note_on_c, 0, 51, 50
3, 40512, Note_on_c, 0, 84, 58
3, 40513, Control_c, 0, 64, 0
3, 40516, Note_on_c, 0, 44, 46
3, 40554, Control_c, 0, 64, 127
3, 40595, Note_on_c, 0, 51, 0
3, 40600, Note_on_c, 0, 44, 0
3, 40660, Note_on_c, 0, 91, 0
3, 40685, Note_on_c, 0, 84, 0
3, 40774, Note_on_c, 0, 56, 37
3, 40774, Note_on_c, 0, 63, 25
3, 40776, Note_on_c, 0, 60, 43
3, 40910, Note_on_c, 0, 89, 83
3, 40940, Note_on_c, 0, 60, 0
3, 40973, Note_on_c, 0, 63, 0
3, 40987, Note_on_c, 0, 89, 0
3, 40997, Note_on_c, 0, 56, 0
3, 40998, Note_on_c, 0, 90, 53
3, 41034, Note_on_c, 0, 90, 0
3, 41037, Note_on_c, 0, 91, 69
3, 41061, Note_on_c, 0, 91, 0
3, 41076, Control_c, 0, 64, 0
3, 41076, Note_on_c, 0, 92, 95
3, 41085, Note_on_c, 0, 63, 29
3, 41086, Note_on_c, 0, 59, 50
3, 41090, Note_on_c, 0, 56, 29
3, 41090, Note_on_c, 0, 53, 40
3, 41137, Control_c, 0, 64, 127
3, 41233, Note_on_c, 0, 53, 0
3, 41233, Note_on_c, 0, 59, 0
3, 41233, Note_on_c, 0, 63, 0
3, 41241, Note_on_c, 0, 92, 0
3, 41245, Note_on_c, 0, 56, 0
3, 41358, Note_on_c, 0, 37, 46
3, 41365, Note_on_c, 0, 44, 33
3, 41397, Note_on_c, 0, 37, 0
3, 41414, Note_on_c, 0, 44, 0
3, 41509, Note_on_c, 0, 59, 51
3, 41510, Note_on_c, 0, 65, 55
3, 41511, Note_on_c, 0, 53, 37
3, 41513, Note_on_c, 0, 63, 32
3, 41608, Note_on_c, 0, 59, 0
3, 41615, Note_on_c, 0, 63, 0
3, 41629, Note_on_c, 0, 65, 0
3, 41636, Note_on_c, 0, 67, 71
3, 41638, Note_on_c, 0, 59, 69
3, 41638, Note_on_c, 0, 63, 50
3, 41639, Note_on_c, 0, 55, 67
3, 41646, Control_c, 0, 64, 0
3, 41690, Control_c, 0, 64, 127
3, 41735, Note_on_c, 0, 59, 0
3, 41743, Note_on_c, 0, 63, 0
3, 41750, Note_on_c, 0, 53, 0
3, 41754, Note_on_c, 0, 67, 0
3, 41757, Note_on_c, 0, 55, 0
3, 41763, Note_on_c, 0, 56, 80
3, 41764, Control_c, 0, 64, 0
3, 41765, Note_on_c, 0, 68, 71
3, 41767, Note_on_c, 0, 59, 79
3, 41767, Note_on_c, 0, 63, 71
3, 41769, Note_on_c, 0, 65, 65
3, 41803, Control_c, 0, 64, 127
3, 41853, Note_on_c, 0, 59, 0
3, 41861, Note_on_c, 0, 68, 0
3, 41868, Note_on_c, 0, 63, 0
3, 41875, Note_on_c, 0, 65, 0
3, 41892, Control_c, 0, 64, 0
3, 41893, Note_on_c, 0, 63, 74
3, 41895, Note_on_c, 0, 70, 92
3, 41896, Note_on_c, 0, 65, 74
3, 41896, Note_on_c, 0, 59, 89
3, 41897, Note_on_c, 0, 58, 88
3, 41906, Note_on_c, 0, 56, 0
3, 41947, Control_c, 0, 64, 127
3, 41982, Note_on_c, 0, 59, 0
3, 41984, Note_on_c, 0, 65, 0
3, 41993, Note_on_c, 0, 63, 0
3, 42004, Note_on_c, 0, 58, 0
3, 42004, Note_on_c, 0, 70, 0
3, 42022, Note_on_c, 0, 68, 69
3, 42023, Note_on_c, 0, 63, 67
3, 42025, Note_on_c, 0, 56, 52
3, 42026, Note_on_c, 0, 59, 70
3, 42048, Note_on_c, 0, 56, 0
3, 42070, Note_on_c, 0, 68, 0
3, 42076, Note_on_c, 0, 63, 0
3, 42086, Note_on_c, 0, 59, 0
3, 42152, Note_on_c, 0, 67, 62
3, 42155, Note_on_c, 0, 58, 67
3, 42156, Control_c, 0, 64, 0
3, 42157, Note_on_c, 0, 39, 50
3, 42158, Note_on_c, 0, 62, 74
3, 42162, Note_on_c, 0, 46, 27
3, 42162, Note_on_c, 0, 55, 33
3, 42245, Control_c, 0, 64, 127
3, 42278, Note_on_c, 0, 46, 0
3, 42287, Note_on_c, 0, 47, 47
3, 42358, Note_on_c, 0, 62, 0
3, 42362, Note_on_c, 0, 55, 0
3, 42381, Note_on_c, 0, 58, 0
3, 42397, Note_on_c, 0, 67, 0
3, 42398, Control_c, 0, 64, 0
3, 42409, Note_on_c, 0, 47, 0
3, 42417, Note_on_c, 0, 62, 63
3, 42420, Note_on_c, 0, 48, 56
3, 42422, Note_on_c, 0, 58, 45
3, 42424, Note_on_c, 0, 55, 51
3, 42443, Control_c, 0, 64, 127
3, 42448, Note_on_c, 0, 55, 0
3, 42469, Note_on_c, 0, 58, 0
3, 42470, Note_on_c, 0, 62, 0
3, 42507, Note_on_c, 0, 39, 0
3, 42515, Note_on_c, 0, 48, 0
3, 42562, Note_on_c, 0, 74, 93
3, 42563, Note_on_c, 0, 67, 95
3, 42566, Note_on_c, 0, 51, 46
3, 42586, Note_on_c, 0, 60, 43
3, 42597, Note_on_c, 0, 60, 0
3, 42613, Note_on_c, 0, 74, 0
3, 42613, Note_on_c, 0, 67, 0
3, 42616, Note_on_c, 0, 72, 52
3, 42624, Note_on_c, 0, 59, 45
3, 42667, Note_on_c, 0, 59, 0
3, 42668, Note_on_c, 0, 72, 0
3, 42671, Control_c, 0, 64, 0
3, 42681, Note_on_c, 0, 67, 82
3, 42681, Note_on_c, 0, 74, 86
3, 42681, Note_on_c, 0, 63, 71
3, 42687, Note_on_c, 0, 60, 58
3, 42729, Control_c, 0, 64, 127
3, 42854, Note_on_c, 0, 60, 0
3, 42883, Note_on_c, 0, 63, 0
3, 42890, Note_on_c, 0, 67, 0
3, 42894, Note_on_c, 0, 74, 0
3, 42958, Note_on_c, 0, 60, 37
3, 43031, Note_on_c, 0, 60, 0
3, 43045, Note_on_c, 0, 51, 0
3, 43047, Note_on_c, 0, 74, 71
3, 43100, Note_on_c, 0, 74, 0
3, 43122, Note_on_c, 0, 72, 44
3, 43146, Note_on_c, 0, 72, 0
3, 43225, Note_on_c, 0, 39, 32
3, 43226, Note_on_c, 0, 78, 47
3, 43227, Note_on_c, 0, 54, 32
3, 43228, Control_c, 0, 64, 0
3, 43233, Note_on_c, 0, 66, 52
3, 43274, Control_c, 0, 64, 127
3, 43309, Note_on_c, 0, 39, 0
3, 43343, Note_on_c, 0, 54, 0
3, 43398, Note_on_c, 0, 66, 0
3, 43498, Note_on_c, 0, 66, 47
3, 43502, Note_on_c, 0, 69, 62
3, 43505, Note_on_c, 0, 65, 56
3, 43508, Note_on_c, 0, 72, 20
3, 43509, Control_c, 0, 64, 0
3, 43556, Control_c, 0, 64, 127
3, 43629, Note_on_c, 0, 72, 0
3, 43630, Note_on_c, 0, 65, 0
3, 43630, Note_on_c, 0, 63, 61
3, 43667, Note_on_c, 0, 69, 0
3, 43680, Note_on_c, 0, 66, 0
3, 43751, Note_on_c, 0, 63, 0
3, 43756, Note_on_c, 0, 66, 40
3, 43758, Note_on_c, 0, 69, 49
3, 43802, Note_on_c, 0, 78, 0
3, 43891, Note_on_c, 0, 60, 51
3, 43896, Note_on_c, 0, 69, 0
3, 43923, Note_on_c, 0, 60, 0
3, 43935, Note_on_c, 0, 66, 0
3, 44018, Note_on_c, 0, 63, 52
3, 44018, Note_on_c, 0, 66, 53
3, 44020, Note_on_c, 0, 54, 34
3, 44021, Note_on_c, 0, 57, 43
3, 44093, Note_on_c, 0, 66, 0
3, 44111, Note_on_c, 0, 63, 0
3, 44162, Note_on_c, 0, 57, 0
3, 44164, Note_on_c, 0, 63, 93
3, 44178, Note_on_c, 0, 54, 0
3, 44221, Note_on_c, 0, 63, 0
3, 44231, Note_on_c, 0, 62, 94
3, 44303, Note_on_c, 0, 62, 0
3, 44306, Note_on_c, 0, 60, 95
3, 44308, Note_on_c, 0, 51, 39
3, 44310, Note_on_c, 0, 41, 64
3, 44318, Control_c, 0, 64, 0
3, 44381, Control_c, 0, 64, 127
3, 44406, Note_on_c, 0, 60, 0
3, 44432, Note_on_c, 0, 60, 80
3, 44458, Note_on_c, 0, 51, 0
3, 44602, Note_on_c, 0, 60, 0
3, 44604, Note_on_c, 0, 51, 13
3, 44669, Note_on_c, 0, 41, 0
3, 44672, Note_on_c, 0, 60, 68
3, 44695, Note_on_c, 0, 51, 0
3, 44729, Note_on_c, 0, 60, 0
3, 44737, Note_on_c, 0, 58, 43
3, 44773, Note_on_c, 0, 58, 0
3, 44818, Control_c, 0, 64, 0
3, 44819, Note_on_c, 0, 60, 53
3, 44822, Note_on_c, 0, 56, 37
3, 44823, Note_on_c, 0, 46, 43
3, 44854, Control_c, 0, 64, 127
3, 44921, Note_on_c, 0, 60, 0
3, 44929, Note_on_c, 0, 46, 0
3, 44938, Note_on_c, 0, 56, 0
3, 45099, Note_on_c, 0, 67, 50
3, 45102, Note_on_c, 0, 63, 39
3, 45104, Note_on_c, 0, 84, 85
3, 45111, Note_on_c, 0, 60, 41
3, 45111, Note_on_c, 0, 72, 55
3, 45171, Note_on_c, 0, 84, 0
3, 45184, Note_on_c, 0, 67, 0
3, 45189, Note_on_c, 0, 72, 0
3, 45235, Note_on_c, 0, 63, 0
3, 45241, Note_on_c, 0, 82, 68
3, 45243, Note_on_c, 0, 60, 0
3, 45246, Note_on_c, 0, 70, 56
3, 45287, Note_on_c, 0, 70, 0
3, 45291, Note_on_c, 0, 82, 0
3, 45383, Note_on_c, 0, 84, 91
3, 45385, Note_on_c, 0, 63, 67
3, 45386, Control_c, 0, 64, 0
3, 45387, Note_on_c, 0, 56, 46
3, 45387, Note_on_c, 0, 53, 51
3, 45396, Note_on_c, 0, 72, 61
3, 45425, Control_c, 0, 64, 127
3, 45459, Note_on_c, 0, 63, 0
3, 45480, Note_on_c, 0, 53, 0
3, 45525, Note_on_c, 0, 60, 52
3, 45537, Note_on_c, 0, 72, 0
3, 45540, Note_on_c, 0, 56, 0
3, 45542, Note_on_c, 0, 84, 0
3, 45661, Note_on_c, 0, 87, 68
3, 45661, Note_on_c, 0, 75, 59
3, 45667, Note_on_c, 0, 63, 29
3, 45682, Note_on_c, 0, 60, 0
3, 45685, Note_on_c, 0, 75, 0
3, 45696, Note_on_c, 0, 87, 0
3, 45783, Note_on_c, 0, 63, 0
3, 45805, Note_on_c, 0, 92, 63
3, 45808, Note_on_c, 0, 80, 40
3, 45832, Note_on_c, 0, 80, 0
3, 45842, Note_on_c, 0, 92, 0
3, 45973, Control_c, 0, 64, 0
3, 45977, Note_on_c, 0, 96, 65
3, 45978, Note_on_c, 0, 34, 51
3, 46012, Control_c, 0, 64, 127
3, 46043, Note_on_c, 0, 34, 0
3, 46045, Note_on_c, 0, 96, 0
3, 46167, Note_on_c, 0, 68, 55
3, 46230, Note_on_c, 0, 70, 68
3, 46280, Note_on_c, 0, 68, 0
3, 46283, Note_on_c, 0, 70, 0
3, 46287, Note_on_c, 0, 71, 69
3, 46332, Note_on_c, 0, 74, 69
3, 46339, Note_on_c, 0, 71, 0
3, 46376, Note_on_c, 0, 76, 63
3, 46378, Note_on_c, 0, 74, 0
3, 46415, Note_on_c, 0, 79, 59
3, 46416, Note_on_c, 0, 76, 0
3, 46427, Note_on_c, 0, 79, 0
3, 46434, Note_on_c, 0, 80, 40
3, 46466, Note_on_c, 0, 80, 0
3, 46466, Note_on_c, 0, 82, 40
3, 46478, Note_on_c, 0, 82, 0
3, 46480, Note_on_c, 0, 83, 50
3, 46504, Note_on_c, 0, 86, 73
3, 46507, Note_on_c, 0, 83, 0
3, 46521, Note_on_c, 0, 88, 50
3, 46533, Note_on_c, 0, 86, 0
3, 46538, Note_on_c, 0, 91, 64
3, 46543, Note_on_c, 0, 88, 0
3, 46553, Note_on_c, 0, 91, 0
3, 46555, Note_on_c, 0, 92, 67
3, 46568, Note_on_c, 0, 94, 40
3, 46579, Note_on_c, 0, 92, 0
3, 46583, Note_on_c, 0, 94, 0
3, 46589, Note_on_c, 0, 95, 26
3, 46608, Note_on_c, 0, 98, 49
3, 46627, Note_on_c, 0, 95, 0
3, 46630, Note_on_c, 0, 100, 64
3, 46645, Note_on_c, 0, 100, 0
3, 46646, Note_on_c, 0, 98, 0
3, 46652, Note_on_c, 0, 103, 101
3, 46682, Note_on_c, 0, 103, 0
3, 47053, Note_on_c, 0, 74, 113
3, 47057, Note_on_c, 0, 50, 67
3, 47310, Note_on_c, 0, 50, 0
3, 47622, Note_on_c, 0, 74, 0
3, 47897, Control_c, 0, 64, 0
3, 47898, Note_on_c, 0, 77, 61
3, 47900, Note_on_c, 0, 51, 40
3, 47902, Note_on_c, 0, 74, 55
3, 47903, Note_on_c, 0, 69, 56
3, 47906, Note_on_c, 0, 59, 41
3, 47907, Note_on_c, 0, 66, 31
3, 47961, Control_c, 0, 64, 127
3, 48008, Note_on_c, 0, 77, 0
3, 48035, Note_on_c, 0, 77, 68
3, 48099, Note_on_c, 0, 69, 0
3, 48110, Note_on_c, 0, 74, 0
3, 48126, Note_on_c, 0, 77, 0
3, 48126, Note_on_c, 0, 66, 0
3, 48172, Note_on_c, 0, 59, 0
3, 48186, Control_c, 0, 64, 0
3, 48187, Note_on_c, 0, 77, 52
3, 48190, Note_on_c, 0, 70, 41
3, 48196, Note_on_c, 0, 67, 46
3, 48205, Note_on_c, 0, 60, 17
3, 48244, Control_c, 0, 64, 127
3, 48471, Note_on_c, 0, 75, 61
3, 48473, Note_on_c, 0, 77, 0
3, 48530, Note_on_c, 0, 67, 0
3, 48539, Note_on_c, 0, 60, 0
3, 48539, Note_on_c, 0, 51, 0
3, 48578, Note_on_c, 0, 75, 0
3, 48580, Note_on_c, 0, 70, 0
3, 48656, Control_c, 0, 64, 0
3, 48667, Note_on_c, 0, 77, 55
3, 48670, Note_on_c, 0, 51, 41
3, 48675, Note_on_c, 0, 74, 64
3, 48676, Note_on_c, 0, 69, 50
3, 48680, Note_on_c, 0, 75, 29
3, 48686, Note_on_c, 0, 59, 16
3, 48706, Note_on_c, 0, 66, 2
3, 48749, Control_c, 0, 64, 127
3, 48796, Note_on_c, 0, 75, 0
3, 48814, Note_on_c, 0, 77, 0
3, 48838, Note_on_c, 0, 77, 49
3, 48874, Note_on_c, 0, 69, 0
3, 48892, Note_on_c, 0, 74, 0
3, 48904, Note_on_c, 0, 66, 0
3, 48906, Note_on_c, 0, 77, 0
3, 48994, Note_on_c, 0, 59, 0
3, 49013, Note_on_c, 0, 77, 47
3, 49016, Note_on_c, 0, 70, 44
3, 49016, Control_c, 0, 64, 0
3, 49018, Note_on_c, 0, 67, 41
3, 49019, Note_on_c, 0, 60, 37
3, 49091, Control_c, 0, 64, 127
3, 49247, Note_on_c, 0, 77, 0
3, 49270, Note_on_c, 0, 75, 46
3, 49289, Note_on_c, 0, 60, 0
3, 49298, Note_on_c, 0, 51, 0
3, 49333, Note_on_c, 0, 67, 0
3, 49496, Note_on_c, 0, 70, 0
3, 49545, Note_on_c, 0, 75, 0
3, 49787, Note_on_c, 0, 77, 52
3, 49793, Note_on_c, 0, 70, 38
3, 49793, Note_on_c, 0, 39, 39
3, 49797, Control_c, 0, 64, 0
3, 49797, Note_on_c, 0, 65, 44
3, 49797, Note_on_c, 0, 67, 43
3, 49885, Control_c, 0, 64, 127
3, 49896, Note_on_c, 0, 39, 0
3, 49910, Note_on_c, 0, 46, 38
3, 49980, Note_on_c, 0, 46, 0
3, 49996, Note_on_c, 0, 57, 52
3, 50070, Note_on_c, 0, 67, 0
3, 50070, Note_on_c, 0, 58, 53
3, 50071, Note_on_c, 0, 65, 0
3, 50076, Note_on_c, 0, 57, 0
3, 50096, Note_on_c, 0, 77, 0
3, 50098, Note_on_c, 0, 70, 0
3, 50146, Note_on_c, 0, 62, 65
3, 50227, Note_on_c, 0, 69, 28
3, 50291, Note_on_c, 0, 70, 50
3, 50330, Note_on_c, 0, 70, 0
3, 50354, Note_on_c, 0, 74, 52
3, 50392, Note_on_c, 0, 74, 0
3, 50480, Note_on_c, 0, 81, 52
3, 50531, Note_on_c, 0, 81, 0
3, 50543, Note_on_c, 0, 82, 44
3, 50599, Note_on_c, 0, 82, 0
3, 50608, Note_on_c, 0, 86, 63
3, 50655, Note_on_c, 0, 86, 0
3, 50672, Note_on_c, 0, 84, 44
3, 50728, Note_on_c, 0, 84, 0
3, 50742, Note_on_c, 0, 93, 63
3, 50817, Note_on_c, 0, 93, 0
3, 50822, Note_on_c, 0, 91, 47
3, 50894, Note_on_c, 0, 91, 0
3, 50902, Note_on_c, 0, 98, 63
3, 50973, Note_on_c, 0, 98, 0
3, 50976, Note_on_c, 0, 93, 45
3, 51027, Note_on_c, 0, 93, 0
3, 51029, Note_on_c, 0, 94, 70
3, 51049, Note_on_c, 0, 94, 0
3, 51087, Note_on_c, 0, 98, 41
3, 51120, Note_on_c, 0, 98, 0
3, 51133, Note_on_c, 0, 101, 64
3, 51134, Note_on_c, 0, 69, 0
3, 51153, Note_on_c, 0, 62, 0
3, 51166, Note_on_c, 0, 58, 0
3, 51181, Note_on_c, 0, 105, 77
3, 51183, Note_on_c, 0, 101, 0
3, 51213, Note_on_c, 0, 105, 0
3, 51236, Note_on_c, 0, 106, 67
3, 51283, Note_on_c, 0, 106, 0
3, 51288, Note_on_c, 0, 108, 67
3, 51357, Note_on_c, 0, 27, 62
3, 51358, Note_on_c, 0, 108, 0
3, 51386, Note_on_c, 0, 27, 0
3, 52330, Control_c, 0, 64, 0
3, 52330, End_track
4, 0, Start_track
4, 0, Title_t, "Played in Real Time"
4, 0, End_track
0, 0, End_of_file
