0, 0, Header, 0, 1, 120
1, 0, Start_track
1, 0, Title_t, "The Folks Who Live On the Hill"
1, 0, Text_t, "dougmck@pipeline.com.au\012"
1, 0, System_exclusive, 5, 126, 127, 9, 1, 247
1, 1, System_exclusive, 8, 67, 115, 1, 17, 15, 89, 3, 247
1, 1, Time_signature, 4, 2, 24, 8
1, 1, Key_signature, 0, "major"
1, 1, Tempo, 500000
1, 481, Marker_t, "dougmck@pipeline.com.au"
1, 481, Note_on_c, 0, 36, 50
1, 482, Control_c, 0, 64, 127
1, 482, Note_on_c, 0, 43, 38
1, 543, Note_on_c, 0, 36, 0
1, 548, Note_on_c, 0, 43, 0
1, 719, Note_on_c, 0, 62, 40
1, 722, Note_on_c, 0, 57, 43
1, 726, Note_on_c, 0, 52, 36
1, 727, Control_c, 0, 64, 0
1, 751, Control_c, 0, 64, 127
1, 814, Note_on_c, 0, 52, 0
1, 818, Note_on_c, 0, 57, 0
1, 826, Note_on_c, 0, 62, 0
1, 898, Note_on_c, 0, 63, 39
1, 901, Note_on_c, 0, 53, 40
1, 902, Note_on_c, 0, 58, 40
1, 903, Control_c, 0, 64, 0
1, 933, Control_c, 0, 64, 127
1, 992, Note_on_c, 0, 53, 0
1, 998, Note_on_c, 0, 63, 0
1, 1000, Note_on_c, 0, 58, 0
1, 1004, Note_on_c, 0, 82, 64
1, 1046, Note_on_c, 0, 82, 0
1, 1058, Note_on_c, 0, 87, 69
1, 1109, Note_on_c, 0, 87, 0
1, 1122, Note_on_c, 0, 84, 58
1, 1152, Note_on_c, 0, 84, 0
1, 1178, Note_on_c, 0, 96, 75
1, 1228, Note_on_c, 0, 96, 0
1, 1241, Note_on_c, 0, 89, 43
1, 1279, Note_on_c, 0, 89, 0
1, 1299, Note_on_c, 0, 94, 51
1, 1307, Note_on_c, 0, 94, 0
1, 1363, Note_on_c, 0, 104, 59
1, 1378, Note_on_c, 0, 104, 0
1, 1412, Note_on_c, 0, 43, 22
1, 1413, Control_c, 0, 64, 0
1, 1416, Note_on_c, 0, 36, 26
1, 1419, Note_on_c, 0, 52, 33
1, 1463, Control_c, 0, 64, 127
1, 1498, Note_on_c, 0, 36, 0
1, 1503, Note_on_c, 0, 43, 0
1, 1517, Note_on_c, 0, 52, 0
1, 1788, Control_c, 0, 64, 0
1, 1793, Note_on_c, 0, 57, 44
1, 1793, Note_on_c, 0, 62, 34
1, 1796, Note_on_c, 0, 52, 29
1, 1806, Note_on_c, 0, 62, 0
1, 1806, Note_on_c, 0, 57, 0
1, 1808, Note_on_c, 0, 52, 0
1, 1908, Control_c, 0, 64, 127
1, 1916, Note_on_c, 0, 63, 36
1, 1917, Note_on_c, 0, 58, 36
1, 1921, Note_on_c, 0, 53, 32
1, 1997, Note_on_c, 0, 84, 69
1, 2072, Note_on_c, 0, 84, 0
1, 2084, Note_on_c, 0, 72, 50
1, 2093, Note_on_c, 0, 63, 0
1, 2107, Note_on_c, 0, 53, 0
1, 2116, Note_on_c, 0, 72, 0
1, 2122, Note_on_c, 0, 58, 0
1, 2158, Note_on_c, 0, 72, 51
1, 2203, Note_on_c, 0, 72, 0
1, 2238, Note_on_c, 0, 71, 46
1, 2314, Note_on_c, 0, 71, 0
1, 2397, Note_on_c, 0, 76, 48
1, 2399, Note_on_c, 0, 64, 50
1, 2404, Note_on_c, 0, 36, 40
1, 2408, Control_c, 0, 64, 0
1, 2444, Control_c, 0, 64, 127
1, 2479, Note_on_c, 0, 36, 0
1, 2549, Note_on_c, 0, 64, 0
1, 2633, Note_on_c, 0, 62, 37
1, 2637, Note_on_c, 0, 52, 30
1, 2641, Note_on_c, 0, 57, 34
1, 2777, Note_on_c, 0, 57, 0
1, 2780, Note_on_c, 0, 62, 0
1, 2792, Note_on_c, 0, 52, 0
1, 2794, Note_on_c, 0, 76, 0
1, 2953, Note_on_c, 0, 52, 57
1, 2954, Note_on_c, 0, 58, 49
1, 2956, Note_on_c, 0, 60, 50
1, 2962, Note_on_c, 0, 42, 36
1, 2977, Control_c, 0, 64, 0
1, 3022, Control_c, 0, 64, 127
1, 3066, Note_on_c, 0, 58, 0
1, 3082, Note_on_c, 0, 58, 74
1, 3128, Note_on_c, 0, 52, 0
1, 3130, Note_on_c, 0, 58, 0
1, 3147, Note_on_c, 0, 60, 0
1, 3152, Note_on_c, 0, 58, 64
1, 3165, Note_on_c, 0, 42, 0
1, 3193, Marker_t, "The Folks Who Live on The Hill  "
1, 3217, Note_on_c, 0, 58, 0
1, 3237, Note_on_c, 0, 57, 60
1, 3241, Note_on_c, 0, 52, 46
1, 3243, Control_c, 0, 64, 0
1, 3244, Note_on_c, 0, 41, 48
1, 3283, Note_on_c, 0, 52, 0
1, 3292, Control_c, 0, 64, 127
1, 3318, Note_on_c, 0, 57, 0
1, 3329, Note_on_c, 0, 48, 50
1, 3418, Note_on_c, 0, 65, 79
1, 3421, Note_on_c, 0, 60, 84
1, 3422, Note_on_c, 0, 48, 0
1, 3423, Note_on_c, 0, 55, 80
1, 3427, Note_on_c, 0, 50, 64
1, 3431, Control_c, 0, 64, 0
1, 3454, Note_on_c, 0, 41, 0
1, 3462, Control_c, 0, 64, 127
1, 3479, Note_on_c, 0, 65, 0
1, 3513, Note_on_c, 0, 55, 0
1, 3517, Note_on_c, 0, 60, 0
1, 3526, Note_on_c, 0, 60, 32
1, 3527, Note_on_c, 0, 67, 77
1, 3528, Control_c, 0, 64, 0
1, 3528, Note_on_c, 0, 52, 66
1, 3532, Note_on_c, 0, 50, 0
1, 3558, Note_on_c, 0, 60, 0
1, 3563, Control_c, 0, 64, 127
1, 3570, Note_on_c, 0, 67, 0
1, 3624, Note_on_c, 0, 65, 64
1, 3624, Note_on_c, 0, 69, 71
1, 3626, Note_on_c, 0, 60, 62
1, 3627, Control_c, 0, 64, 0
1, 3628, Note_on_c, 0, 62, 66
1, 3632, Note_on_c, 0, 53, 44
1, 3635, Note_on_c, 0, 52, 0
1, 3672, Control_c, 0, 64, 127
1, 3687, Note_on_c, 0, 60, 0
1, 3689, Note_on_c, 0, 62, 0
1, 3694, Note_on_c, 0, 69, 0
1, 3695, Note_on_c, 0, 65, 0
1, 3703, Note_on_c, 0, 53, 0
1, 3759, Note_on_c, 0, 54, 30
1, 3767, Note_on_c, 0, 53, 46
1, 3782, Note_on_c, 0, 65, 80
1, 3782, Note_on_c, 0, 55, 80
1, 3783, Note_on_c, 0, 53, 0
1, 3783, Note_on_c, 0, 60, 79
1, 3783, Note_on_c, 0, 72, 80
1, 3783, Note_on_c, 0, 69, 77
1, 3789, Control_c, 0, 64, 0
1, 3791, Note_on_c, 0, 54, 0
1, 3883, Control_c, 0, 64, 127
1, 3892, Note_on_c, 0, 43, 61
1, 3938, Note_on_c, 0, 55, 0
1, 3960, Note_on_c, 0, 60, 0
1, 3960, Note_on_c, 0, 69, 0
1, 3969, Note_on_c, 0, 65, 0
1, 4036, Note_on_c, 0, 62, 74
1, 4037, Note_on_c, 0, 67, 68
1, 4042, Note_on_c, 0, 53, 48
1, 4070, Note_on_c, 0, 43, 0
1, 4084, Note_on_c, 0, 53, 0
1, 4108, Note_on_c, 0, 62, 0
1, 4111, Note_on_c, 0, 72, 0
1, 4125, Note_on_c, 0, 67, 0
1, 4174, Note_on_c, 0, 41, 41
1, 4177, Note_on_c, 0, 74, 85
1, 4177, Note_on_c, 0, 67, 88
1, 4181, Note_on_c, 0, 57, 68
1, 4187, Control_c, 0, 64, 0
1, 4227, Control_c, 0, 64, 127
1, 4238, Note_on_c, 0, 57, 0
1, 4245, Note_on_c, 0, 41, 0
1, 4279, Note_on_c, 0, 67, 0
1, 4282, Note_on_c, 0, 74, 0
1, 4344, Note_on_c, 0, 40, 50
1, 4346, Note_on_c, 0, 62, 49
1, 4346, Note_on_c, 0, 67, 51
1, 4349, Note_on_c, 0, 71, 42
1, 4352, Note_on_c, 0, 55, 53
1, 4354, Control_c, 0, 64, 0
1, 4413, Control_c, 0, 64, 127
1, 4477, Note_on_c, 0, 62, 0
1, 4510, Note_on_c, 0, 71, 0
1, 4516, Note_on_c, 0, 67, 0
1, 4544, Note_on_c, 0, 74, 95
1, 4560, Note_on_c, 0, 40, 0
1, 4580, Note_on_c, 0, 74, 0
1, 4597, Note_on_c, 0, 55, 0
1, 4623, Note_on_c, 0, 74, 95
1, 4673, Note_on_c, 0, 74, 0
1, 4693, Note_on_c, 0, 69, 74
1, 4719, Note_on_c, 0, 69, 0
1, 4777, Note_on_c, 0, 72, 62
1, 4781, Note_on_c, 0, 66, 52
1, 4781, Note_on_c, 0, 63, 44
1, 4782, Note_on_c, 0, 69, 51
1, 4786, Control_c, 0, 64, 0
1, 4787, Note_on_c, 0, 57, 43
1, 4846, Control_c, 0, 64, 127
1, 4892, Note_on_c, 0, 69, 0
1, 4897, Note_on_c, 0, 63, 0
1, 4898, Note_on_c, 0, 72, 0
1, 4898, Note_on_c, 0, 66, 0
1, 4983, Note_on_c, 0, 63, 47
1, 4985, Note_on_c, 0, 57, 0
1, 4991, Note_on_c, 0, 60, 34
1, 5001, Note_on_c, 0, 54, 25
1, 5053, Note_on_c, 0, 54, 0
1, 5073, Note_on_c, 0, 60, 0
1, 5100, Note_on_c, 0, 63, 0
1, 5201, Note_on_c, 0, 67, 57
1, 5203, Note_on_c, 0, 62, 37
1, 5203, Note_on_c, 0, 71, 38
1, 5208, Note_on_c, 0, 59, 34
1, 5209, Control_c, 0, 64, 0
1, 5214, Note_on_c, 0, 50, 24
1, 5262, Control_c, 0, 64, 127
1, 5441, Note_on_c, 0, 65, 65
1, 5491, Note_on_c, 0, 59, 0
1, 5493, Note_on_c, 0, 62, 0
1, 5496, Note_on_c, 0, 71, 0
1, 5501, Note_on_c, 0, 50, 0
1, 5513, Note_on_c, 0, 65, 0
1, 5529, Note_on_c, 0, 67, 0
1, 5559, Note_on_c, 0, 69, 52
1, 5561, Note_on_c, 0, 64, 40
1, 5563, Note_on_c, 0, 60, 36
1, 5566, Note_on_c, 0, 57, 35
1, 5574, Control_c, 0, 64, 0
1, 5581, Note_on_c, 0, 48, 37
1, 5618, Control_c, 0, 64, 127
1, 5676, Note_on_c, 0, 60, 0
1, 5689, Note_on_c, 0, 55, 22
1, 5691, Note_on_c, 0, 64, 0
1, 5742, Note_on_c, 0, 57, 0
1, 5742, Note_on_c, 0, 69, 0
1, 5750, Note_on_c, 0, 55, 0
1, 5767, Note_on_c, 0, 48, 0
1, 5833, Note_on_c, 0, 67, 45
1, 5837, Note_on_c, 0, 47, 38
1, 5838, Note_on_c, 0, 55, 45
1, 5839, Note_on_c, 0, 62, 48
1, 5839, Note_on_c, 0, 59, 36
1, 5849, Control_c, 0, 64, 0
1, 5884, Note_on_c, 0, 67, 0
1, 5888, Control_c, 0, 64, 127
1, 5917, Note_on_c, 0, 69, 80
1, 5967, Note_on_c, 0, 69, 0
1, 5970, Note_on_c, 0, 59, 0
1, 5981, Note_on_c, 0, 62, 0
1, 5984, Note_on_c, 0, 67, 74
1, 5989, Note_on_c, 0, 55, 0
1, 5999, Note_on_c, 0, 47, 0
1, 6002, Note_on_c, 0, 67, 0
1, 6068, Note_on_c, 0, 72, 58
1, 6071, Note_on_c, 0, 67, 64
1, 6071, Note_on_c, 0, 55, 46
1, 6072, Note_on_c, 0, 45, 46
1, 6072, Note_on_c, 0, 60, 51
1, 6078, Control_c, 0, 64, 0
1, 6123, Control_c, 0, 64, 127
1, 6146, Note_on_c, 0, 72, 0
1, 6182, Note_on_c, 0, 72, 69
1, 6254, Note_on_c, 0, 72, 0
1, 6287, Note_on_c, 0, 55, 0
1, 6292, Note_on_c, 0, 72, 54
1, 6308, Note_on_c, 0, 45, 0
1, 6309, Note_on_c, 0, 67, 0
1, 6309, Note_on_c, 0, 72, 0
1, 6323, Note_on_c, 0, 60, 0
1, 6411, Note_on_c, 0, 64, 53
1, 6412, Note_on_c, 0, 55, 36
1, 6413, Note_on_c, 0, 43, 36
1, 6416, Note_on_c, 0, 59, 44
1, 6417, Note_on_c, 0, 52, 30
1, 6429, Control_c, 0, 64, 0
1, 6479, Control_c, 0, 64, 127
1, 6536, Note_on_c, 0, 64, 0
1, 6538, Note_on_c, 0, 65, 79
1, 6598, Note_on_c, 0, 65, 0
1, 6617, Note_on_c, 0, 64, 73
1, 6629, Note_on_c, 0, 43, 0
1, 6632, Note_on_c, 0, 59, 0
1, 6635, Note_on_c, 0, 55, 0
1, 6638, Note_on_c, 0, 52, 0
1, 6652, Note_on_c, 0, 64, 0
1, 6716, Note_on_c, 0, 41, 45
1, 6733, Note_on_c, 0, 69, 81
1, 6733, Note_on_c, 0, 64, 80
1, 6744, Control_c, 0, 64, 0
1, 6783, Control_c, 0, 64, 127
1, 6809, Note_on_c, 0, 64, 0
1, 6811, Note_on_c, 0, 69, 0
1, 6813, Note_on_c, 0, 57, 66
1, 6902, Note_on_c, 0, 65, 69
1, 6919, Note_on_c, 0, 57, 0
1, 6923, Note_on_c, 0, 41, 0
1, 6963, Note_on_c, 0, 65, 0
1, 6984, Note_on_c, 0, 81, 70
1, 7009, Note_on_c, 0, 81, 0
1, 7083, Note_on_c, 0, 76, 68
1, 7087, Note_on_c, 0, 64, 54
1, 7089, Note_on_c, 0, 40, 50
1, 7101, Control_c, 0, 64, 0
1, 7156, Control_c, 0, 64, 127
1, 7179, Note_on_c, 0, 47, 62
1, 7209, Note_on_c, 0, 64, 0
1, 7235, Note_on_c, 0, 47, 0
1, 7245, Note_on_c, 0, 76, 0
1, 7274, Note_on_c, 0, 55, 64
1, 7274, Note_on_c, 0, 67, 66
1, 7276, Note_on_c, 0, 64, 56
1, 7287, Note_on_c, 0, 40, 0
1, 7325, Note_on_c, 0, 55, 0
1, 7327, Note_on_c, 0, 64, 0
1, 7342, Note_on_c, 0, 67, 0
1, 7349, Note_on_c, 0, 74, 82
1, 7382, Note_on_c, 0, 74, 0
1, 7442, Note_on_c, 0, 70, 62
1, 7442, Note_on_c, 0, 65, 63
1, 7444, Note_on_c, 0, 62, 64
1, 7448, Note_on_c, 0, 58, 39
1, 7471, Control_c, 0, 64, 0
1, 7544, Note_on_c, 0, 55, 56
1, 7550, Note_on_c, 0, 58, 0
1, 7559, Control_c, 0, 64, 127
1, 7561, Note_on_c, 0, 62, 0
1, 7562, Note_on_c, 0, 70, 0
1, 7584, Note_on_c, 0, 65, 0
1, 7654, Note_on_c, 0, 67, 51
1, 7655, Note_on_c, 0, 55, 0
1, 7658, Note_on_c, 0, 58, 35
1, 7662, Note_on_c, 0, 62, 50
1, 7662, Note_on_c, 0, 57, 42
1, 7662, Note_on_c, 0, 65, 55
1, 7668, Control_c, 0, 64, 0
1, 7713, Control_c, 0, 64, 127
1, 7743, Note_on_c, 0, 62, 0
1, 7744, Note_on_c, 0, 65, 0
1, 7752, Note_on_c, 0, 57, 0
1, 7759, Note_on_c, 0, 58, 0
1, 7779, Note_on_c, 0, 67, 0
1, 7798, Note_on_c, 0, 58, 37
1, 7802, Note_on_c, 0, 64, 50
1, 7803, Note_on_c, 0, 48, 37
1, 7803, Note_on_c, 0, 61, 48
1, 7808, Note_on_c, 0, 55, 24
1, 7809, Control_c, 0, 64, 0
1, 7851, Control_c, 0, 64, 127
1, 7855, Note_on_c, 0, 55, 0
1, 7864, Note_on_c, 0, 48, 0
1, 7874, Note_on_c, 0, 64, 0
1, 7878, Note_on_c, 0, 58, 0
1, 7893, Note_on_c, 0, 61, 0
1, 7959, Note_on_c, 0, 57, 34
1, 7961, Note_on_c, 0, 60, 50
1, 7964, Note_on_c, 0, 41, 32
1, 7967, Note_on_c, 0, 48, 29
1, 7971, Control_c, 0, 64, 0
1, 8027, Control_c, 0, 64, 127
1, 8080, Note_on_c, 0, 57, 0
1, 8086, Note_on_c, 0, 60, 0
1, 8139, Note_on_c, 0, 65, 69
1, 8143, Note_on_c, 0, 60, 70
1, 8143, Note_on_c, 0, 55, 66
1, 8145, Note_on_c, 0, 48, 0
1, 8147, Note_on_c, 0, 50, 51
1, 8149, Control_c, 0, 64, 0
1, 8156, Note_on_c, 0, 41, 0
1, 8181, Control_c, 0, 64, 127
1, 8209, Note_on_c, 0, 65, 0
1, 8210, Note_on_c, 0, 55, 0
1, 8218, Note_on_c, 0, 60, 0
1, 8252, Note_on_c, 0, 67, 71
1, 8256, Control_c, 0, 64, 0
1, 8256, Note_on_c, 0, 62, 75
1, 8257, Note_on_c, 0, 52, 63
1, 8259, Note_on_c, 0, 50, 0
1, 8288, Control_c, 0, 64, 127
1, 8294, Note_on_c, 0, 67, 0
1, 8307, Note_on_c, 0, 62, 0
1, 8342, Control_c, 0, 64, 0
1, 8344, Note_on_c, 0, 65, 68
1, 8344, Note_on_c, 0, 69, 72
1, 8346, Note_on_c, 0, 60, 69
1, 8346, Note_on_c, 0, 62, 70
1, 8351, Note_on_c, 0, 53, 60
1, 8353, Note_on_c, 0, 52, 0
1, 8381, Control_c, 0, 64, 127
1, 8397, Note_on_c, 0, 62, 0
1, 8400, Note_on_c, 0, 65, 0
1, 8401, Note_on_c, 0, 60, 0
1, 8402, Note_on_c, 0, 69, 0
1, 8428, Note_on_c, 0, 53, 0
1, 8434, Note_on_c, 0, 54, 32
1, 8441, Note_on_c, 0, 52, 33
1, 8442, Note_on_c, 0, 54, 0
1, 8452, Note_on_c, 0, 52, 0
1, 8452, Note_on_c, 0, 54, 31
1, 8456, Note_on_c, 0, 71, 57
1, 8458, Note_on_c, 0, 63, 63
1, 8459, Note_on_c, 0, 67, 62
1, 8459, Note_on_c, 0, 59, 68
1, 8462, Note_on_c, 0, 55, 71
1, 8472, Control_c, 0, 64, 0
1, 8474, Note_on_c, 0, 54, 0
1, 8551, Control_c, 0, 64, 127
1, 8571, Note_on_c, 0, 43, 50
1, 8572, Note_on_c, 0, 55, 0
1, 8597, Note_on_c, 0, 71, 0
1, 8605, Note_on_c, 0, 67, 0
1, 8622, Note_on_c, 0, 59, 0
1, 8636, Note_on_c, 0, 63, 0
1, 8706, Note_on_c, 0, 69, 51
1, 8709, Note_on_c, 0, 63, 46
1, 8711, Note_on_c, 0, 59, 36
1, 8718, Note_on_c, 0, 53, 30
1, 8751, Note_on_c, 0, 43, 0
1, 8753, Note_on_c, 0, 53, 0
1, 8756, Note_on_c, 0, 59, 0
1, 8769, Note_on_c, 0, 69, 0
1, 8770, Note_on_c, 0, 63, 0
1, 8859, Note_on_c, 0, 74, 85
1, 8862, Note_on_c, 0, 67, 88
1, 8862, Note_on_c, 0, 41, 35
1, 8866, Note_on_c, 0, 57, 53
1, 8873, Control_c, 0, 64, 0
1, 8907, Control_c, 0, 64, 127
1, 8914, Note_on_c, 0, 57, 0
1, 8917, Note_on_c, 0, 41, 0
1, 8924, Note_on_c, 0, 74, 0
1, 8932, Note_on_c, 0, 67, 0
1, 9026, Note_on_c, 0, 67, 52
1, 9027, Note_on_c, 0, 40, 49
1, 9028, Note_on_c, 0, 62, 51
1, 9039, Note_on_c, 0, 55, 46
1, 9039, Control_c, 0, 64, 0
1, 9073, Control_c, 0, 64, 127
1, 9075, Note_on_c, 0, 62, 0
1, 9081, Note_on_c, 0, 67, 0
1, 9127, Note_on_c, 0, 40, 0
1, 9136, Note_on_c, 0, 79, 68
1, 9150, Note_on_c, 0, 55, 0
1, 9209, Note_on_c, 0, 79, 0
1, 9228, Note_on_c, 0, 62, 48
1, 9229, Note_on_c, 0, 67, 57
1, 9279, Note_on_c, 0, 67, 0
1, 9317, Note_on_c, 0, 74, 71
1, 9328, Note_on_c, 0, 62, 0
1, 9369, Note_on_c, 0, 74, 0
1, 9416, Note_on_c, 0, 65, 35
1, 9417, Note_on_c, 0, 55, 32
1, 9418, Note_on_c, 0, 75, 45
1, 9419, Note_on_c, 0, 61, 33
1, 9421, Note_on_c, 0, 72, 31
1, 9422, Control_c, 0, 64, 0
1, 9458, Control_c, 0, 64, 127
1, 9468, Note_on_c, 0, 65, 0
1, 9479, Note_on_c, 0, 61, 0
1, 9483, Note_on_c, 0, 55, 0
1, 9501, Note_on_c, 0, 72, 0
1, 9523, Note_on_c, 0, 76, 63
1, 9525, Note_on_c, 0, 75, 0
1, 9533, Note_on_c, 0, 76, 0
1, 9644, Note_on_c, 0, 84, 64
1, 9651, Note_on_c, 0, 77, 57
1, 9652, Note_on_c, 0, 55, 42
1, 9653, Note_on_c, 0, 45, 42
1, 9653, Note_on_c, 0, 78, 27
1, 9661, Note_on_c, 0, 78, 0
1, 9765, Note_on_c, 0, 84, 0
1, 9765, Note_on_c, 0, 45, 0
1, 9787, Note_on_c, 0, 55, 0
1, 9791, Note_on_c, 0, 82, 52
1, 9798, Note_on_c, 0, 77, 0
1, 9841, Note_on_c, 0, 82, 0
1, 9934, Note_on_c, 0, 81, 45
1, 9937, Note_on_c, 0, 57, 27
1, 9937, Note_on_c, 0, 60, 25
1, 9941, Note_on_c, 0, 72, 20
1, 9941, Note_on_c, 0, 77, 35
1, 9942, Note_on_c, 0, 50, 35
1, 9953, Control_c, 0, 64, 0
1, 9984, Control_c, 0, 64, 127
1, 10086, Note_on_c, 0, 77, 0
1, 10086, Note_on_c, 0, 81, 0
1, 10107, Note_on_c, 0, 72, 0
1, 10241, Note_on_c, 0, 77, 64
1, 10242, Note_on_c, 0, 65, 53
1, 10264, Note_on_c, 0, 65, 0
1, 10271, Note_on_c, 0, 77, 0
1, 10316, Note_on_c, 0, 79, 55
1, 10317, Note_on_c, 0, 67, 58
1, 10344, Note_on_c, 0, 60, 0
1, 10347, Note_on_c, 0, 67, 0
1, 10349, Note_on_c, 0, 79, 0
1, 10350, Note_on_c, 0, 57, 0
1, 10359, Note_on_c, 0, 50, 0
1, 10448, Note_on_c, 0, 81, 45
1, 10451, Note_on_c, 0, 69, 57
1, 10458, Note_on_c, 0, 81, 0
1, 10467, Note_on_c, 0, 69, 0
1, 10519, Control_c, 0, 64, 0
1, 10522, Note_on_c, 0, 65, 54
1, 10523, Note_on_c, 0, 74, 60
1, 10532, Note_on_c, 0, 43, 40
1, 10548, Note_on_c, 0, 43, 0
1, 10551, Control_c, 0, 64, 127
1, 10590, Note_on_c, 0, 65, 0
1, 10611, Note_on_c, 0, 74, 0
1, 10654, Note_on_c, 0, 64, 36
1, 10661, Note_on_c, 0, 59, 42
1, 10666, Note_on_c, 0, 53, 25
1, 10724, Note_on_c, 0, 64, 0
1, 10732, Note_on_c, 0, 59, 0
1, 10747, Note_on_c, 0, 53, 0
1, 10846, Note_on_c, 0, 71, 27
1, 10872, Note_on_c, 0, 71, 0
1, 10892, Note_on_c, 0, 72, 67
1, 10922, Note_on_c, 0, 72, 0
1, 10952, Control_c, 0, 64, 0
1, 10954, Note_on_c, 0, 36, 37
1, 10956, Note_on_c, 0, 72, 51
1, 10959, Note_on_c, 0, 52, 35
1, 10976, Note_on_c, 0, 36, 0
1, 10981, Control_c, 0, 64, 127
1, 11000, Note_on_c, 0, 52, 0
1, 11177, Note_on_c, 0, 62, 40
1, 11183, Note_on_c, 0, 57, 36
1, 11186, Note_on_c, 0, 52, 31
1, 11261, Note_on_c, 0, 57, 0
1, 11264, Note_on_c, 0, 52, 0
1, 11272, Note_on_c, 0, 62, 0
1, 11313, Note_on_c, 0, 72, 0
1, 11391, Note_on_c, 0, 63, 39
1, 11394, Note_on_c, 0, 58, 35
1, 11397, Note_on_c, 0, 53, 34
1, 11462, Note_on_c, 0, 82, 37
1, 11499, Note_on_c, 0, 82, 0
1, 11507, Note_on_c, 0, 87, 68
1, 11523, Note_on_c, 0, 87, 0
1, 11548, Note_on_c, 0, 84, 67
1, 11568, Note_on_c, 0, 84, 0
1, 11593, Note_on_c, 0, 63, 0
1, 11597, Note_on_c, 0, 89, 73
1, 11604, Note_on_c, 0, 53, 0
1, 11611, Note_on_c, 0, 58, 0
1, 11633, Note_on_c, 0, 89, 0
1, 11639, Note_on_c, 0, 94, 67
1, 11655, Note_on_c, 0, 94, 0
1, 11686, Note_on_c, 0, 42, 25
1, 11686, Note_on_c, 0, 96, 71
1, 11696, Note_on_c, 0, 42, 0
1, 11717, Note_on_c, 0, 96, 0
1, 11738, Note_on_c, 0, 106, 69
1, 11776, Note_on_c, 0, 106, 0
1, 11789, Note_on_c, 0, 36, 55
1, 11789, Control_c, 0, 64, 0
1, 11792, Note_on_c, 0, 105, 62
1, 11794, Note_on_c, 0, 52, 51
1, 11831, Control_c, 0, 64, 127
1, 11845, Note_on_c, 0, 36, 0
1, 11874, Note_on_c, 0, 52, 0
1, 11874, Note_on_c, 0, 105, 0
1, 11876, Note_on_c, 0, 103, 55
1, 12002, Note_on_c, 0, 62, 38
1, 12003, Control_c, 0, 64, 0
1, 12004, Note_on_c, 0, 52, 36
1, 12006, Note_on_c, 0, 96, 49
1, 12008, Note_on_c, 0, 103, 0
1, 12009, Note_on_c, 0, 57, 36
1, 12029, Control_c, 0, 64, 127
1, 12109, Note_on_c, 0, 96, 0
1, 12112, Note_on_c, 0, 57, 0
1, 12114, Note_on_c, 0, 52, 0
1, 12132, Note_on_c, 0, 62, 0
1, 12216, Note_on_c, 0, 94, 50
1, 12217, Note_on_c, 0, 89, 54
1, 12218, Note_on_c, 0, 63, 39
1, 12219, Control_c, 0, 64, 0
1, 12224, Note_on_c, 0, 58, 34
1, 12249, Control_c, 0, 64, 127
1, 12283, Note_on_c, 0, 94, 0
1, 12288, Note_on_c, 0, 89, 0
1, 12299, Note_on_c, 0, 63, 0
1, 12306, Note_on_c, 0, 58, 0
1, 12427, Note_on_c, 0, 43, 43
1, 12439, Control_c, 0, 64, 0
1, 12448, Control_c, 0, 64, 127
1, 12478, Note_on_c, 0, 43, 0
1, 12639, Note_on_c, 0, 36, 47
1, 12643, Control_c, 0, 64, 0
1, 12672, Control_c, 0, 64, 127
1, 12689, Note_on_c, 0, 36, 0
1, 12849, Note_on_c, 0, 64, 49
1, 12858, Note_on_c, 0, 59, 38
1, 12859, Note_on_c, 0, 60, 32
1, 12901, Note_on_c, 0, 64, 0
1, 12917, Note_on_c, 0, 60, 0
1, 12921, Note_on_c, 0, 59, 0
1, 12991, Note_on_c, 0, 76, 90
1, 13023, Note_on_c, 0, 76, 0
1, 13051, Note_on_c, 0, 58, 25
1, 13058, Note_on_c, 0, 58, 0
1, 13063, Note_on_c, 0, 60, 71
1, 13066, Note_on_c, 0, 76, 74
1, 13067, Note_on_c, 0, 64, 72
1, 13067, Note_on_c, 0, 70, 64
1, 13068, Note_on_c, 0, 72, 65
1, 13074, Control_c, 0, 64, 0
1, 13113, Note_on_c, 0, 60, 0
1, 13113, Note_on_c, 0, 59, 61
1, 13139, Note_on_c, 0, 58, 54
1, 13140, Note_on_c, 0, 59, 0
1, 13159, Note_on_c, 0, 58, 0
1, 13169, Note_on_c, 0, 57, 50
1, 13198, Note_on_c, 0, 56, 43
1, 13207, Control_c, 0, 64, 127
1, 13208, Note_on_c, 0, 56, 0
1, 13209, Note_on_c, 0, 57, 0
1, 13214, Note_on_c, 0, 55, 57
1, 13241, Control_c, 0, 64, 0
1, 13247, Note_on_c, 0, 55, 0
1, 13258, Note_on_c, 0, 54, 64
1, 13288, Note_on_c, 0, 64, 0
1, 13314, Control_c, 0, 64, 127
1, 13332, Note_on_c, 0, 60, 60
1, 13336, Note_on_c, 0, 76, 0
1, 13343, Note_on_c, 0, 70, 0
1, 13344, Note_on_c, 0, 72, 0
1, 13387, Note_on_c, 0, 64, 70
1, 13390, Note_on_c, 0, 60, 0
1, 13399, Note_on_c, 0, 54, 0
1, 13415, Note_on_c, 0, 64, 0
1, 13433, Note_on_c, 0, 70, 58
1, 13474, Note_on_c, 0, 76, 65
1, 13494, Note_on_c, 0, 70, 0
1, 13510, Note_on_c, 0, 76, 0
1, 13526, Note_on_c, 0, 41, 37
1, 13532, Note_on_c, 0, 64, 38
1, 13532, Note_on_c, 0, 72, 49
1, 13534, Note_on_c, 0, 69, 50
1, 13536, Control_c, 0, 64, 0
1, 13537, Note_on_c, 0, 57, 32
1, 13589, Control_c, 0, 64, 127
1, 13598, Note_on_c, 0, 41, 0
1, 13608, Note_on_c, 0, 57, 0
1, 13611, Note_on_c, 0, 69, 0
1, 13613, Note_on_c, 0, 72, 0
1, 13627, Note_on_c, 0, 64, 0
1, 13741, Note_on_c, 0, 65, 58
1, 13744, Note_on_c, 0, 55, 51
1, 13746, Note_on_c, 0, 60, 59
1, 13748, Control_c, 0, 64, 0
1, 13753, Note_on_c, 0, 50, 40
1, 13782, Control_c, 0, 64, 127
1, 13784, Note_on_c, 0, 65, 0
1, 13829, Note_on_c, 0, 50, 0
1, 13831, Note_on_c, 0, 67, 72
1, 13832, Note_on_c, 0, 52, 64
1, 13840, Note_on_c, 0, 55, 0
1, 13847, Note_on_c, 0, 60, 0
1, 13861, Note_on_c, 0, 67, 0
1, 13880, Note_on_c, 0, 52, 0
1, 13901, Note_on_c, 0, 69, 79
1, 13903, Note_on_c, 0, 62, 70
1, 13904, Note_on_c, 0, 53, 68
1, 13916, Note_on_c, 0, 65, 30
1, 13924, Note_on_c, 0, 65, 0
1, 13930, Note_on_c, 0, 62, 0
1, 13934, Note_on_c, 0, 69, 0
1, 13946, Note_on_c, 0, 53, 0
1, 13967, Control_c, 0, 64, 0
1, 14041, Note_on_c, 0, 72, 72
1, 14042, Note_on_c, 0, 69, 64
1, 14042, Note_on_c, 0, 60, 60
1, 14042, Note_on_c, 0, 65, 67
1, 14043, Note_on_c, 0, 55, 64
1, 14094, Control_c, 0, 64, 127
1, 14099, Note_on_c, 0, 55, 0
1, 14099, Note_on_c, 0, 72, 0
1, 14099, Note_on_c, 0, 69, 0
1, 14100, Note_on_c, 0, 60, 0
1, 14104, Note_on_c, 0, 65, 0
1, 14111, Note_on_c, 0, 43, 51
1, 14176, Control_c, 0, 64, 0
1, 14179, Note_on_c, 0, 67, 58
1, 14181, Note_on_c, 0, 63, 47
1, 14182, Note_on_c, 0, 59, 49
1, 14184, Note_on_c, 0, 53, 36
1, 14206, Note_on_c, 0, 43, 0
1, 14251, Note_on_c, 0, 43, 36
1, 14251, Note_on_c, 0, 41, 37
1, 14277, Control_c, 0, 64, 127
1, 14278, Note_on_c, 0, 43, 0
1, 14302, Note_on_c, 0, 59, 0
1, 14307, Note_on_c, 0, 67, 0
1, 14311, Note_on_c, 0, 63, 0
1, 14336, Note_on_c, 0, 41, 0
1, 14349, Note_on_c, 0, 53, 0
1, 14397, Note_on_c, 0, 40, 48
1, 14401, Note_on_c, 0, 74, 57
1, 14402, Note_on_c, 0, 62, 47
1, 14402, Note_on_c, 0, 67, 48
1, 14403, Control_c, 0, 64, 0
1, 14457, Note_on_c, 0, 40, 0
1, 14458, Control_c, 0, 64, 127
1, 14463, Note_on_c, 0, 55, 1
1, 14478, Note_on_c, 0, 55, 0
1, 14508, Note_on_c, 0, 67, 0
1, 14515, Note_on_c, 0, 62, 0
1, 14617, Note_on_c, 0, 67, 48
1, 14618, Note_on_c, 0, 74, 0
1, 14618, Note_on_c, 0, 62, 33
1, 14621, Note_on_c, 0, 59, 29
1, 14623, Note_on_c, 0, 52, 24
1, 14624, Note_on_c, 0, 55, 36
1, 14647, Note_on_c, 0, 59, 0
1, 14652, Note_on_c, 0, 55, 0
1, 14666, Note_on_c, 0, 52, 0
1, 14731, Note_on_c, 0, 62, 0
1, 14733, Note_on_c, 0, 67, 0
1, 14758, Note_on_c, 0, 72, 59
1, 14790, Note_on_c, 0, 72, 0
1, 14833, Note_on_c, 0, 39, 44
1, 14836, Note_on_c, 0, 63, 36
1, 14837, Note_on_c, 0, 72, 29
1, 14838, Control_c, 0, 64, 0
1, 14839, Note_on_c, 0, 66, 37
1, 14842, Note_on_c, 0, 54, 30
1, 14844, Note_on_c, 0, 69, 38
1, 14872, Control_c, 0, 64, 127
1, 14900, Note_on_c, 0, 39, 0
1, 14924, Note_on_c, 0, 54, 0
1, 14952, Note_on_c, 0, 63, 0
1, 14979, Note_on_c, 0, 66, 0
1, 14981, Note_on_c, 0, 69, 0
1, 15057, Note_on_c, 0, 66, 44
1, 15057, Note_on_c, 0, 63, 38
1, 15061, Note_on_c, 0, 60, 31
1, 15062, Note_on_c, 0, 54, 29
1, 15099, Note_on_c, 0, 60, 0
1, 15115, Note_on_c, 0, 54, 0
1, 15128, Note_on_c, 0, 63, 0
1, 15135, Note_on_c, 0, 72, 0
1, 15178, Note_on_c, 0, 66, 0
1, 15273, Note_on_c, 0, 62, 43
1, 15274, Note_on_c, 0, 71, 43
1, 15276, Note_on_c, 0, 67, 50
1, 15277, Note_on_c, 0, 59, 37
1, 15279, Note_on_c, 0, 50, 34
1, 15281, Control_c, 0, 64, 0
1, 15324, Control_c, 0, 64, 127
1, 15362, Note_on_c, 0, 59, 0
1, 15403, Note_on_c, 0, 62, 0
1, 15423, Note_on_c, 0, 67, 0
1, 15489, Note_on_c, 0, 62, 44
1, 15491, Note_on_c, 0, 65, 51
1, 15492, Note_on_c, 0, 59, 37
1, 15573, Note_on_c, 0, 59, 0
1, 15575, Note_on_c, 0, 62, 0
1, 15579, Note_on_c, 0, 71, 0
1, 15589, Note_on_c, 0, 65, 0
1, 15591, Note_on_c, 0, 50, 0
1, 15709, Note_on_c, 0, 69, 44
1, 15711, Note_on_c, 0, 64, 53
1, 15711, Note_on_c, 0, 60, 36
1, 15713, Note_on_c, 0, 59, 36
1, 15718, Note_on_c, 0, 48, 36
1, 15721, Control_c, 0, 64, 0
1, 15722, Note_on_c, 0, 57, 22
1, 15772, Control_c, 0, 64, 127
1, 15795, Note_on_c, 0, 57, 0
1, 15801, Note_on_c, 0, 59, 0
1, 15811, Note_on_c, 0, 60, 0
1, 15818, Note_on_c, 0, 64, 0
1, 15927, Note_on_c, 0, 59, 34
1, 15929, Note_on_c, 0, 60, 32
1, 15931, Note_on_c, 0, 64, 39
1, 15932, Note_on_c, 0, 57, 33
1, 16009, Note_on_c, 0, 60, 0
1, 16015, Note_on_c, 0, 59, 0
1, 16018, Note_on_c, 0, 64, 0
1, 16024, Note_on_c, 0, 57, 0
1, 16036, Note_on_c, 0, 69, 0
1, 16043, Note_on_c, 0, 48, 0
1, 16151, Note_on_c, 0, 67, 76
1, 16153, Note_on_c, 0, 62, 68
1, 16154, Note_on_c, 0, 59, 60
1, 16157, Control_c, 0, 64, 0
1, 16158, Note_on_c, 0, 47, 45
1, 16159, Note_on_c, 0, 55, 42
1, 16199, Control_c, 0, 64, 127
1, 16250, Note_on_c, 0, 55, 0
1, 16292, Note_on_c, 0, 59, 0
1, 16309, Note_on_c, 0, 62, 0
1, 16328, Note_on_c, 0, 67, 0
1, 16371, Note_on_c, 0, 69, 82
1, 16372, Note_on_c, 0, 62, 85
1, 16374, Note_on_c, 0, 57, 62
1, 16374, Note_on_c, 0, 59, 73
1, 16383, Control_c, 0, 64, 0
1, 16426, Control_c, 0, 64, 127
1, 16431, Note_on_c, 0, 57, 0
1, 16451, Note_on_c, 0, 59, 0
1, 16471, Note_on_c, 0, 69, 0
1, 16477, Note_on_c, 0, 59, 58
1, 16477, Note_on_c, 0, 55, 58
1, 16478, Note_on_c, 0, 67, 69
1, 16495, Note_on_c, 0, 62, 0
1, 16500, Note_on_c, 0, 59, 0
1, 16506, Note_on_c, 0, 67, 0
1, 16525, Note_on_c, 0, 47, 0
1, 16530, Note_on_c, 0, 55, 0
1, 16593, Note_on_c, 0, 67, 61
1, 16593, Note_on_c, 0, 72, 57
1, 16594, Note_on_c, 0, 60, 48
1, 16597, Control_c, 0, 64, 0
1, 16597, Note_on_c, 0, 55, 41
1, 16598, Note_on_c, 0, 45, 47
1, 16646, Control_c, 0, 64, 127
1, 16674, Note_on_c, 0, 55, 0
1, 16726, Note_on_c, 0, 67, 0
1, 16745, Note_on_c, 0, 45, 0
1, 16751, Note_on_c, 0, 60, 0
1, 16819, Note_on_c, 0, 65, 65
1, 16821, Note_on_c, 0, 60, 49
1, 16843, Note_on_c, 0, 72, 0
1, 16924, Note_on_c, 0, 65, 0
1, 16952, Note_on_c, 0, 60, 0
1, 17038, Note_on_c, 0, 55, 42
1, 17041, Note_on_c, 0, 59, 45
1, 17042, Note_on_c, 0, 64, 50
1, 17042, Note_on_c, 0, 50, 44
1, 17043, Note_on_c, 0, 43, 36
1, 17057, Control_c, 0, 64, 0
1, 17109, Control_c, 0, 64, 127
1, 17205, Note_on_c, 0, 55, 0
1, 17211, Note_on_c, 0, 59, 0
1, 17218, Note_on_c, 0, 64, 0
1, 17259, Note_on_c, 0, 65, 59
1, 17261, Note_on_c, 0, 52, 53
1, 17261, Note_on_c, 0, 59, 60
1, 17262, Note_on_c, 0, 55, 47
1, 17263, Note_on_c, 0, 62, 62
1, 17265, Note_on_c, 0, 50, 0
1, 17271, Control_c, 0, 64, 0
1, 17307, Control_c, 0, 64, 127
1, 17321, Note_on_c, 0, 43, 0
1, 17343, Note_on_c, 0, 55, 0
1, 17347, Note_on_c, 0, 65, 0
1, 17355, Note_on_c, 0, 62, 0
1, 17362, Note_on_c, 0, 55, 28
1, 17362, Note_on_c, 0, 43, 44
1, 17364, Note_on_c, 0, 64, 64
1, 17371, Note_on_c, 0, 59, 0
1, 17373, Note_on_c, 0, 55, 0
1, 17386, Note_on_c, 0, 64, 0
1, 17402, Note_on_c, 0, 43, 0
1, 17403, Note_on_c, 0, 52, 0
1, 17472, Note_on_c, 0, 64, 66
1, 17473, Note_on_c, 0, 69, 66
1, 17473, Note_on_c, 0, 57, 58
1, 17477, Note_on_c, 0, 52, 58
1, 17479, Note_on_c, 0, 41, 31
1, 17481, Control_c, 0, 64, 0
1, 17521, Control_c, 0, 64, 127
1, 17535, Note_on_c, 0, 64, 0
1, 17540, Note_on_c, 0, 52, 0
1, 17576, Note_on_c, 0, 63, 39
1, 17581, Note_on_c, 0, 51, 25
1, 17636, Note_on_c, 0, 51, 0
1, 17656, Note_on_c, 0, 63, 0
1, 17663, Note_on_c, 0, 57, 0
1, 17681, Note_on_c, 0, 69, 0
1, 17684, Note_on_c, 0, 57, 34
1, 17687, Note_on_c, 0, 50, 41
1, 17688, Note_on_c, 0, 62, 58
1, 17692, Control_c, 0, 64, 0
1, 17726, Control_c, 0, 64, 127
1, 17730, Note_on_c, 0, 41, 0
1, 17791, Note_on_c, 0, 41, 40
1, 17793, Note_on_c, 0, 69, 47
1, 17810, Note_on_c, 0, 62, 0
1, 17822, Note_on_c, 0, 57, 0
1, 17824, Note_on_c, 0, 41, 0
1, 17837, Note_on_c, 0, 50, 0
1, 17875, Note_on_c, 0, 69, 0
1, 17903, Note_on_c, 0, 64, 25
1, 17904, Note_on_c, 0, 55, 48
1, 17906, Control_c, 0, 64, 0
1, 17909, Note_on_c, 0, 59, 39
1, 17911, Note_on_c, 0, 40, 46
1, 17911, Note_on_c, 0, 62, 41
1, 17947, Control_c, 0, 64, 127
1, 17950, Note_on_c, 0, 55, 0
1, 17986, Note_on_c, 0, 59, 0
1, 17998, Note_on_c, 0, 62, 0
1, 18005, Note_on_c, 0, 64, 0
1, 18009, Note_on_c, 0, 52, 57
1, 18122, Note_on_c, 0, 40, 0
1, 18127, Note_on_c, 0, 67, 64
1, 18131, Note_on_c, 0, 52, 0
1, 18144, Note_on_c, 0, 67, 0
1, 18171, Note_on_c, 0, 69, 81
1, 18189, Control_c, 0, 64, 0
1, 18203, Note_on_c, 0, 69, 0
1, 18218, Note_on_c, 0, 70, 71
1, 18240, Note_on_c, 0, 70, 0
1, 18267, Control_c, 0, 64, 127
1, 18268, Note_on_c, 0, 74, 63
1, 18274, Note_on_c, 0, 76, 43
1, 18284, Note_on_c, 0, 76, 0
1, 18309, Note_on_c, 0, 74, 0
1, 18322, Control_c, 0, 64, 0
1, 18324, Note_on_c, 0, 62, 40
1, 18324, Note_on_c, 0, 84, 75
1, 18326, Note_on_c, 0, 58, 38
1, 18333, Note_on_c, 0, 57, 25
1, 18340, Note_on_c, 0, 62, 0
1, 18345, Note_on_c, 0, 57, 0
1, 18353, Note_on_c, 0, 58, 0
1, 18357, Note_on_c, 0, 84, 0
1, 18382, Note_on_c, 0, 82, 58
1, 18422, Note_on_c, 0, 82, 0
1, 18434, Note_on_c, 0, 78, 37
1, 18436, Control_c, 0, 64, 127
1, 18475, Note_on_c, 0, 78, 0
1, 18484, Note_on_c, 0, 81, 62
1, 18526, Note_on_c, 0, 81, 0
1, 18541, Note_on_c, 0, 79, 59
1, 18542, Control_c, 0, 64, 0
1, 18542, Note_on_c, 0, 36, 32
1, 18547, Note_on_c, 0, 52, 36
1, 18578, Note_on_c, 0, 36, 0
1, 18578, Control_c, 0, 64, 127
1, 18585, Note_on_c, 0, 52, 0
1, 18589, Note_on_c, 0, 79, 0
1, 18601, Note_on_c, 0, 76, 41
1, 18641, Note_on_c, 0, 76, 0
1, 18659, Note_on_c, 0, 75, 36
1, 18686, Note_on_c, 0, 75, 0
1, 18714, Note_on_c, 0, 73, 35
1, 18754, Note_on_c, 0, 73, 0
1, 18761, Note_on_c, 0, 41, 35
1, 18766, Control_c, 0, 64, 0
1, 18768, Note_on_c, 0, 74, 49
1, 18769, Note_on_c, 0, 57, 34
1, 18808, Control_c, 0, 64, 127
1, 18823, Note_on_c, 0, 74, 0
1, 18824, Note_on_c, 0, 41, 0
1, 18833, Note_on_c, 0, 69, 42
1, 18847, Note_on_c, 0, 57, 0
1, 18865, Note_on_c, 0, 69, 0
1, 18886, Note_on_c, 0, 72, 44
1, 18959, Note_on_c, 0, 64, 40
1, 18966, Note_on_c, 0, 72, 0
1, 18967, Note_on_c, 0, 60, 33
1, 18971, Note_on_c, 0, 53, 26
1, 18972, Note_on_c, 0, 57, 34
1, 18984, Note_on_c, 0, 64, 0
1, 18992, Note_on_c, 0, 60, 0
1, 18993, Note_on_c, 0, 57, 0
1, 19009, Note_on_c, 0, 53, 0
1, 19079, Note_on_c, 0, 65, 67
1, 19084, Note_on_c, 0, 60, 71
1, 19086, Note_on_c, 0, 55, 66
1, 19094, Note_on_c, 0, 50, 33
1, 19109, Note_on_c, 0, 65, 0
1, 19133, Note_on_c, 0, 55, 0
1, 19141, Control_c, 0, 64, 0
1, 19142, Note_on_c, 0, 60, 0
1, 19161, Note_on_c, 0, 67, 64
1, 19161, Note_on_c, 0, 60, 41
1, 19163, Note_on_c, 0, 55, 43
1, 19165, Note_on_c, 0, 50, 0
1, 19169, Note_on_c, 0, 52, 66
1, 19188, Control_c, 0, 64, 127
1, 19193, Note_on_c, 0, 55, 0
1, 19197, Note_on_c, 0, 60, 0
1, 19198, Note_on_c, 0, 67, 0
1, 19222, Control_c, 0, 64, 0
1, 19237, Note_on_c, 0, 69, 72
1, 19238, Note_on_c, 0, 62, 57
1, 19239, Note_on_c, 0, 53, 67
1, 19242, Note_on_c, 0, 59, 45
1, 19244, Note_on_c, 0, 65, 43
1, 19249, Note_on_c, 0, 52, 0
1, 19273, Control_c, 0, 64, 127
1, 19300, Note_on_c, 0, 62, 0
1, 19301, Note_on_c, 0, 65, 0
1, 19302, Note_on_c, 0, 59, 0
1, 19307, Note_on_c, 0, 69, 0
1, 19326, Note_on_c, 0, 53, 0
1, 19377, Control_c, 0, 64, 0
1, 19379, Note_on_c, 0, 63, 49
1, 19381, Note_on_c, 0, 71, 55
1, 19382, Note_on_c, 0, 59, 54
1, 19383, Note_on_c, 0, 53, 57
1, 19386, Note_on_c, 0, 67, 55
1, 19444, Note_on_c, 0, 67, 0
1, 19444, Note_on_c, 0, 59, 0
1, 19446, Note_on_c, 0, 71, 0
1, 19452, Note_on_c, 0, 59, 22
1, 19456, Note_on_c, 0, 43, 58
1, 19457, Note_on_c, 0, 69, 63
1, 19479, Note_on_c, 0, 43, 0
1, 19485, Note_on_c, 0, 53, 0
1, 19488, Note_on_c, 0, 59, 0
1, 19494, Note_on_c, 0, 63, 0
1, 19497, Note_on_c, 0, 69, 0
1, 19499, Control_c, 0, 64, 127
1, 19517, Note_on_c, 0, 41, 53
1, 19519, Note_on_c, 0, 71, 57
1, 19546, Note_on_c, 0, 71, 0
1, 19548, Note_on_c, 0, 41, 0
1, 19593, Control_c, 0, 64, 0
1, 19597, Note_on_c, 0, 67, 46
1, 19598, Note_on_c, 0, 40, 51
1, 19602, Note_on_c, 0, 62, 55
1, 19604, Note_on_c, 0, 63, 29
1, 19647, Note_on_c, 0, 63, 0
1, 19672, Note_on_c, 0, 55, 69
1, 19692, Control_c, 0, 64, 127
1, 19765, Note_on_c, 0, 62, 0
1, 19770, Note_on_c, 0, 40, 0
1, 19776, Note_on_c, 0, 68, 15
1, 19777, Note_on_c, 0, 67, 0
1, 19792, Note_on_c, 0, 55, 0
1, 19813, Note_on_c, 0, 68, 0
1, 19828, Note_on_c, 0, 59, 62
1, 19836, Note_on_c, 0, 59, 0
1, 19938, Note_on_c, 0, 73, 71
1, 19979, Note_on_c, 0, 73, 0
1, 19986, Note_on_c, 0, 72, 66
1, 20031, Note_on_c, 0, 72, 0
1, 20038, Control_c, 0, 64, 0
1, 20044, Note_on_c, 0, 45, 58
1, 20046, Note_on_c, 0, 84, 83
1, 20077, Control_c, 0, 64, 127
1, 20109, Note_on_c, 0, 84, 0
1, 20114, Note_on_c, 0, 45, 0
1, 20121, Note_on_c, 0, 82, 64
1, 20228, Note_on_c, 0, 82, 0
1, 20262, Note_on_c, 0, 73, 48
1, 20266, Note_on_c, 0, 81, 58
1, 20267, Note_on_c, 0, 65, 35
1, 20268, Note_on_c, 0, 55, 32
1, 20268, Note_on_c, 0, 61, 34
1, 20348, Note_on_c, 0, 65, 0
1, 20358, Note_on_c, 0, 73, 0
1, 20362, Note_on_c, 0, 81, 0
1, 20363, Note_on_c, 0, 61, 0
1, 20369, Note_on_c, 0, 55, 0
1, 20412, Note_on_c, 0, 79, 55
1, 20425, Note_on_c, 0, 79, 0
1, 20486, Note_on_c, 0, 79, 53
1, 20493, Note_on_c, 0, 72, 45
1, 20493, Control_c, 0, 64, 0
1, 20496, Note_on_c, 0, 60, 22
1, 20497, Note_on_c, 0, 50, 27
1, 20503, Note_on_c, 0, 57, 20
1, 20529, Control_c, 0, 64, 127
1, 20553, Note_on_c, 0, 57, 0
1, 20555, Note_on_c, 0, 50, 0
1, 20572, Note_on_c, 0, 60, 0
1, 20583, Note_on_c, 0, 79, 0
1, 20589, Note_on_c, 0, 72, 0
1, 20634, Note_on_c, 0, 77, 79
1, 20701, Note_on_c, 0, 60, 44
1, 20704, Note_on_c, 0, 57, 39
1, 20749, Note_on_c, 0, 77, 0
1, 20766, Note_on_c, 0, 79, 54
1, 20788, Note_on_c, 0, 79, 0
1, 20791, Note_on_c, 0, 60, 0
1, 20811, Note_on_c, 0, 57, 0
1, 20828, Note_on_c, 0, 81, 62
1, 20838, Note_on_c, 0, 81, 0
1, 20904, Note_on_c, 0, 74, 56
1, 20906, Note_on_c, 0, 65, 48
1, 20908, Note_on_c, 0, 68, 35
1, 20909, Control_c, 0, 64, 0
1, 20909, Note_on_c, 0, 71, 44
1, 20913, Note_on_c, 0, 64, 35
1, 20967, Control_c, 0, 64, 127
1, 20982, Note_on_c, 0, 55, 47
1, 21015, Note_on_c, 0, 64, 0
1, 21027, Note_on_c, 0, 55, 0
1, 21029, Note_on_c, 0, 74, 0
1, 21034, Note_on_c, 0, 65, 0
1, 21038, Note_on_c, 0, 68, 0
1, 21041, Note_on_c, 0, 71, 0
1, 21127, Note_on_c, 0, 72, 58
1, 21129, Note_on_c, 0, 68, 36
1, 21131, Control_c, 0, 64, 0
1, 21132, Note_on_c, 0, 59, 29
1, 21133, Note_on_c, 0, 65, 34
1, 21138, Note_on_c, 0, 53, 28
1, 21169, Control_c, 0, 64, 127
1, 21224, Note_on_c, 0, 59, 0
1, 21236, Note_on_c, 0, 65, 0
1, 21240, Note_on_c, 0, 72, 0
1, 21241, Note_on_c, 0, 53, 0
1, 21267, Note_on_c, 0, 74, 52
1, 21287, Note_on_c, 0, 68, 0
1, 21289, Note_on_c, 0, 74, 0
1, 21348, Control_c, 0, 64, 0
1, 21349, Note_on_c, 0, 62, 38
1, 21352, Note_on_c, 0, 72, 34
1, 21352, Note_on_c, 0, 67, 38
1, 21356, Note_on_c, 0, 48, 32
1, 21386, Control_c, 0, 64, 127
1, 21454, Note_on_c, 0, 67, 0
1, 21457, Note_on_c, 0, 55, 50
1, 21462, Note_on_c, 0, 72, 0
1, 21464, Note_on_c, 0, 62, 0
1, 21573, Note_on_c, 0, 64, 49
1, 21576, Note_on_c, 0, 62, 48
1, 21578, Note_on_c, 0, 59, 28
1, 21645, Note_on_c, 0, 59, 0
1, 21692, Note_on_c, 0, 59, 47
1, 21745, Note_on_c, 0, 59, 0
1, 21754, Note_on_c, 0, 62, 0
1, 21765, Note_on_c, 0, 64, 0
1, 21807, Note_on_c, 0, 62, 51
1, 21807, Note_on_c, 0, 64, 53
1, 21809, Note_on_c, 0, 59, 36
1, 21810, Note_on_c, 0, 55, 0
1, 21925, Note_on_c, 0, 62, 0
1, 21926, Note_on_c, 0, 59, 0
1, 21927, Note_on_c, 0, 64, 0
1, 21946, Note_on_c, 0, 48, 0
1, 22182, Note_on_c, 0, 63, 64
1, 22267, Note_on_c, 0, 63, 0
1, 22292, Note_on_c, 0, 64, 45
1, 22296, Note_on_c, 0, 57, 47
1, 22296, Note_on_c, 0, 42, 37
1, 22314, Control_c, 0, 64, 0
1, 22353, Control_c, 0, 64, 127
1, 22378, Note_on_c, 0, 57, 0
1, 22388, Note_on_c, 0, 64, 0
1, 22407, Note_on_c, 0, 52, 46
1, 22414, Note_on_c, 0, 42, 0
1, 22428, Note_on_c, 0, 52, 0
1, 22526, Note_on_c, 0, 69, 62
1, 22528, Note_on_c, 0, 60, 36
1, 22548, Note_on_c, 0, 60, 0
1, 22619, Note_on_c, 0, 69, 0
1, 22629, Note_on_c, 0, 72, 58
1, 22652, Note_on_c, 0, 72, 0
1, 22738, Note_on_c, 0, 71, 41
1, 22739, Note_on_c, 0, 66, 38
1, 22743, Note_on_c, 0, 63, 36
1, 22743, Note_on_c, 0, 47, 32
1, 22744, Note_on_c, 0, 59, 25
1, 22746, Note_on_c, 0, 57, 32
1, 22759, Control_c, 0, 64, 0
1, 22798, Control_c, 0, 64, 127
1, 22834, Note_on_c, 0, 57, 0
1, 22875, Note_on_c, 0, 59, 0
1, 22881, Note_on_c, 0, 63, 0
1, 22884, Note_on_c, 0, 66, 0
1, 22968, Note_on_c, 0, 63, 37
1, 22969, Note_on_c, 0, 66, 36
1, 22972, Note_on_c, 0, 59, 30
1, 22972, Note_on_c, 0, 57, 29
1, 22996, Note_on_c, 0, 47, 0
1, 23000, Note_on_c, 0, 57, 0
1, 23048, Note_on_c, 0, 59, 0
1, 23091, Note_on_c, 0, 63, 0
1, 23097, Note_on_c, 0, 66, 0
1, 23206, Note_on_c, 0, 67, 50
1, 23208, Note_on_c, 0, 62, 31
1, 23217, Note_on_c, 0, 40, 31
1, 23219, Control_c, 0, 64, 0
1, 23263, Control_c, 0, 64, 127
1, 23326, Note_on_c, 0, 62, 0
1, 23329, Note_on_c, 0, 67, 0
1, 23431, Note_on_c, 0, 71, 0
1, 23439, Note_on_c, 0, 67, 38
1, 23443, Note_on_c, 0, 62, 32
1, 23444, Note_on_c, 0, 40, 0
1, 23454, Note_on_c, 0, 55, 24
1, 23475, Note_on_c, 0, 55, 0
1, 23491, Note_on_c, 0, 62, 0
1, 23515, Note_on_c, 0, 67, 0
1, 23678, Note_on_c, 0, 62, 30
1, 23681, Note_on_c, 0, 59, 20
1, 23683, Note_on_c, 0, 52, 35
1, 23684, Note_on_c, 0, 55, 30
1, 23758, Note_on_c, 0, 62, 0
1, 23765, Note_on_c, 0, 52, 0
1, 23818, Note_on_c, 0, 71, 101
1, 23853, Note_on_c, 0, 71, 0
1, 23911, Note_on_c, 0, 64, 49
1, 23913, Note_on_c, 0, 72, 99
1, 23924, Control_c, 0, 64, 0
1, 23929, Control_c, 0, 64, 127
1, 23952, Note_on_c, 0, 55, 0
1, 23968, Note_on_c, 0, 64, 0
1, 24004, Note_on_c, 0, 59, 0
1, 24029, Note_on_c, 0, 72, 0
1, 24052, Note_on_c, 0, 71, 62
1, 24127, Note_on_c, 0, 71, 0
1, 24139, Note_on_c, 0, 66, 49
1, 24139, Note_on_c, 0, 42, 39
1, 24142, Note_on_c, 0, 64, 38
1, 24146, Control_c, 0, 64, 0
1, 24179, Control_c, 0, 64, 127
1, 24182, Note_on_c, 0, 42, 0
1, 24230, Note_on_c, 0, 64, 0
1, 24274, Note_on_c, 0, 66, 0
1, 24362, Note_on_c, 0, 64, 30
1, 24363, Note_on_c, 0, 60, 43
1, 24389, Note_on_c, 0, 64, 0
1, 24413, Note_on_c, 0, 60, 0
1, 24428, Note_on_c, 0, 71, 77
1, 24459, Note_on_c, 0, 71, 0
1, 24491, Note_on_c, 0, 72, 64
1, 24508, Note_on_c, 0, 72, 0
1, 24541, Note_on_c, 0, 71, 69
1, 24601, Note_on_c, 0, 71, 0
1, 24603, Note_on_c, 0, 57, 40
1, 24606, Note_on_c, 0, 47, 40
1, 24609, Control_c, 0, 64, 0
1, 24609, Note_on_c, 0, 54, 35
1, 24656, Control_c, 0, 64, 127
1, 24708, Note_on_c, 0, 57, 0
1, 24744, Note_on_c, 0, 59, 37
1, 24786, Note_on_c, 0, 59, 0
1, 24811, Note_on_c, 0, 54, 0
1, 24836, Note_on_c, 0, 57, 25
1, 24839, Note_on_c, 0, 51, 32
1, 24886, Note_on_c, 0, 47, 0
1, 24887, Note_on_c, 0, 51, 0
1, 24889, Note_on_c, 0, 66, 58
1, 24902, Note_on_c, 0, 57, 0
1, 24925, Note_on_c, 0, 66, 0
1, 24943, Note_on_c, 0, 67, 66
1, 24981, Note_on_c, 0, 67, 0
1, 25002, Note_on_c, 0, 66, 38
1, 25029, Note_on_c, 0, 66, 0
1, 25056, Note_on_c, 0, 59, 30
1, 25056, Control_c, 0, 64, 0
1, 25057, Note_on_c, 0, 67, 53
1, 25058, Note_on_c, 0, 52, 49
1, 25103, Control_c, 0, 64, 127
1, 25188, Note_on_c, 0, 59, 0
1, 25279, Note_on_c, 0, 59, 24
1, 25279, Note_on_c, 0, 64, 48
1, 25330, Note_on_c, 0, 64, 0
1, 25337, Note_on_c, 0, 67, 0
1, 25394, Note_on_c, 0, 64, 60
1, 25455, Note_on_c, 0, 64, 0
1, 25503, Note_on_c, 0, 79, 68
1, 25509, Note_on_c, 0, 75, 51
1, 25509, Note_on_c, 0, 63, 62
1, 25512, Note_on_c, 0, 71, 56
1, 25514, Control_c, 0, 64, 0
1, 25516, Note_on_c, 0, 67, 49
1, 25551, Control_c, 0, 64, 127
1, 25632, Note_on_c, 0, 67, 0
1, 25633, Note_on_c, 0, 71, 0
1, 25654, Note_on_c, 0, 75, 0
1, 25656, Note_on_c, 0, 79, 0
1, 25660, Note_on_c, 0, 63, 0
1, 25687, Note_on_c, 0, 59, 0
1, 25738, Note_on_c, 0, 63, 54
1, 25741, Note_on_c, 0, 59, 46
1, 25797, Note_on_c, 0, 79, 61
1, 25798, Note_on_c, 0, 67, 67
1, 25816, Note_on_c, 0, 67, 0
1, 25817, Note_on_c, 0, 79, 0
1, 25828, Note_on_c, 0, 52, 0
1, 25849, Note_on_c, 0, 81, 82
1, 25853, Note_on_c, 0, 69, 68
1, 25869, Note_on_c, 0, 69, 0
1, 25872, Note_on_c, 0, 81, 0
1, 25898, Note_on_c, 0, 52, 56
1, 25901, Note_on_c, 0, 79, 62
1, 25902, Note_on_c, 0, 67, 60
1, 25909, Note_on_c, 0, 67, 0
1, 25911, Note_on_c, 0, 79, 0
1, 25921, Note_on_c, 0, 63, 0
1, 25921, Note_on_c, 0, 59, 0
1, 25933, Note_on_c, 0, 52, 0
1, 25957, Note_on_c, 0, 82, 64
1, 25958, Note_on_c, 0, 70, 67
1, 25961, Note_on_c, 0, 75, 51
1, 25962, Control_c, 0, 64, 0
1, 25964, Note_on_c, 0, 59, 34
1, 25966, Note_on_c, 0, 62, 54
1, 25967, Note_on_c, 0, 52, 36
1, 25968, Note_on_c, 0, 75, 0
1, 25971, Note_on_c, 0, 55, 47
1, 25991, Note_on_c, 0, 83, 68
1, 25992, Note_on_c, 0, 82, 0
1, 25996, Note_on_c, 0, 70, 0
1, 25999, Note_on_c, 0, 71, 53
1, 26037, Control_c, 0, 64, 127
1, 26044, Note_on_c, 0, 83, 0
1, 26051, Note_on_c, 0, 71, 0
1, 26109, Note_on_c, 0, 79, 37
1, 26109, Note_on_c, 0, 67, 40
1, 26111, Note_on_c, 0, 62, 0
1, 26113, Note_on_c, 0, 77, 36
1, 26123, Note_on_c, 0, 77, 0
1, 26126, Note_on_c, 0, 55, 0
1, 26132, Note_on_c, 0, 59, 0
1, 26179, Note_on_c, 0, 79, 0
1, 26194, Note_on_c, 0, 67, 0
1, 26197, Note_on_c, 0, 62, 46
1, 26202, Note_on_c, 0, 55, 41
1, 26202, Note_on_c, 0, 59, 29
1, 26262, Note_on_c, 0, 59, 0
1, 26262, Note_on_c, 0, 55, 0
1, 26267, Note_on_c, 0, 81, 74
1, 26278, Note_on_c, 0, 52, 0
1, 26310, Note_on_c, 0, 81, 0
1, 26310, Note_on_c, 0, 62, 0
1, 26336, Note_on_c, 0, 79, 67
1, 26354, Note_on_c, 0, 79, 0
1, 26404, Note_on_c, 0, 55, 37
1, 26406, Note_on_c, 0, 79, 55
1, 26407, Note_on_c, 0, 60, 44
1, 26417, Note_on_c, 0, 80, 46
1, 26419, Note_on_c, 0, 61, 36
1, 26422, Note_on_c, 0, 65, 65
1, 26424, Note_on_c, 0, 81, 51
1, 26427, Note_on_c, 0, 79, 0
1, 26436, Control_c, 0, 64, 0
1, 26438, Note_on_c, 0, 82, 79
1, 26441, Note_on_c, 0, 81, 0
1, 26448, Note_on_c, 0, 80, 0
1, 26501, Control_c, 0, 64, 127
1, 26580, Note_on_c, 0, 82, 0
1, 26581, Note_on_c, 0, 79, 45
1, 26583, Note_on_c, 0, 65, 0
1, 26592, Note_on_c, 0, 60, 0
1, 26594, Note_on_c, 0, 61, 0
1, 26596, Note_on_c, 0, 55, 0
1, 26649, Note_on_c, 0, 79, 0
1, 26659, Note_on_c, 0, 81, 53
1, 26662, Note_on_c, 0, 60, 36
1, 26663, Note_on_c, 0, 64, 37
1, 26667, Note_on_c, 0, 54, 32
1, 26667, Control_c, 0, 64, 0
1, 26708, Control_c, 0, 64, 127
1, 26782, Note_on_c, 0, 81, 0
1, 26787, Note_on_c, 0, 60, 0
1, 26790, Note_on_c, 0, 64, 0
1, 26803, Note_on_c, 0, 54, 0
1, 26896, Control_c, 0, 64, 0
1, 26897, Note_on_c, 0, 79, 38
1, 26901, Note_on_c, 0, 64, 30
1, 26901, Note_on_c, 0, 59, 35
1, 26904, Note_on_c, 0, 74, 31
1, 26906, Note_on_c, 0, 53, 30
1, 26906, Note_on_c, 0, 67, 17
1, 26927, Control_c, 0, 64, 127
1, 26937, Note_on_c, 0, 64, 0
1, 26941, Note_on_c, 0, 59, 0
1, 26952, Note_on_c, 0, 53, 0
1, 27024, Note_on_c, 0, 79, 0
1, 27029, Note_on_c, 0, 74, 0
1, 27051, Note_on_c, 0, 67, 0
1, 27132, Note_on_c, 0, 31, 50
1, 27145, Note_on_c, 0, 31, 0
1, 27364, Note_on_c, 0, 54, 26
1, 27376, Note_on_c, 0, 54, 0
1, 27379, Note_on_c, 0, 67, 58
1, 27379, Note_on_c, 0, 58, 44
1, 27382, Note_on_c, 0, 64, 59
1, 27384, Note_on_c, 0, 61, 46
1, 27384, Note_on_c, 0, 55, 49
1, 27401, Control_c, 0, 64, 0
1, 27458, Control_c, 0, 64, 127
1, 27562, Note_on_c, 0, 58, 0
1, 27569, Note_on_c, 0, 61, 0
1, 27618, Note_on_c, 0, 43, 51
1, 27639, Note_on_c, 0, 61, 11
1, 27642, Control_c, 0, 64, 0
1, 27663, Control_c, 0, 64, 127
1, 27704, Note_on_c, 0, 64, 0
1, 27721, Note_on_c, 0, 55, 0
1, 27756, Note_on_c, 0, 43, 0
1, 27762, Note_on_c, 0, 61, 0
1, 27799, Note_on_c, 0, 67, 0
1, 27859, Note_on_c, 0, 67, 68
1, 27863, Note_on_c, 0, 64, 66
1, 27864, Note_on_c, 0, 60, 64
1, 27867, Note_on_c, 0, 53, 36
1, 27868, Note_on_c, 0, 57, 51
1, 27871, Note_on_c, 0, 55, 50
1, 27879, Control_c, 0, 64, 0
1, 27926, Control_c, 0, 64, 127
1, 27939, Note_on_c, 0, 57, 0
1, 27988, Note_on_c, 0, 55, 0
1, 28002, Note_on_c, 0, 53, 0
1, 28091, Note_on_c, 0, 67, 0
1, 28106, Note_on_c, 0, 64, 0
1, 28106, Note_on_c, 0, 43, 58
1, 28156, Note_on_c, 0, 60, 0
1, 28187, Note_on_c, 0, 69, 85
1, 28233, Note_on_c, 0, 69, 0
1, 28253, Note_on_c, 0, 67, 78
1, 28316, Note_on_c, 0, 67, 0
1, 28332, Note_on_c, 0, 63, 60
1, 28332, Note_on_c, 0, 69, 55
1, 28336, Note_on_c, 0, 59, 40
1, 28339, Note_on_c, 0, 53, 43
1, 28342, Control_c, 0, 64, 0
1, 28352, Note_on_c, 0, 63, 0
1, 28354, Note_on_c, 0, 64, 53
1, 28412, Control_c, 0, 64, 127
1, 28448, Note_on_c, 0, 43, 0
1, 28487, Note_on_c, 0, 43, 44
1, 28500, Note_on_c, 0, 64, 0
1, 28512, Note_on_c, 0, 59, 0
1, 28515, Note_on_c, 0, 53, 0
1, 28552, Note_on_c, 0, 69, 0
1, 28576, Note_on_c, 0, 67, 58
1, 28577, Note_on_c, 0, 59, 37
1, 28578, Note_on_c, 0, 63, 42
1, 28582, Control_c, 0, 64, 0
1, 28584, Note_on_c, 0, 53, 26
1, 28626, Control_c, 0, 64, 127
1, 28645, Note_on_c, 0, 53, 0
1, 28660, Note_on_c, 0, 43, 0
1, 28705, Note_on_c, 0, 59, 0
1, 28713, Note_on_c, 0, 67, 0
1, 28731, Note_on_c, 0, 69, 61
1, 28753, Note_on_c, 0, 63, 0
1, 28768, Note_on_c, 0, 69, 0
1, 28813, Control_c, 0, 64, 0
1, 28814, Note_on_c, 0, 67, 57
1, 28814, Note_on_c, 0, 36, 33
1, 28821, Note_on_c, 0, 57, 24
1, 28822, Note_on_c, 0, 62, 44
1, 28847, Control_c, 0, 64, 127
1, 28864, Note_on_c, 0, 36, 0
1, 28901, Note_on_c, 0, 67, 0
1, 28915, Note_on_c, 0, 62, 0
1, 28928, Note_on_c, 0, 57, 0
1, 29046, Note_on_c, 0, 55, 54
1, 29047, Note_on_c, 0, 64, 57
1, 29048, Note_on_c, 0, 59, 50
1, 29049, Note_on_c, 0, 62, 35
1, 29051, Note_on_c, 0, 52, 70
1, 29066, Control_c, 0, 64, 0
1, 29081, Note_on_c, 0, 52, 0
1, 29088, Note_on_c, 0, 51, 52
1, 29108, Note_on_c, 0, 51, 0
1, 29119, Note_on_c, 0, 50, 48
1, 29134, Note_on_c, 0, 50, 0
1, 29143, Note_on_c, 0, 49, 44
1, 29163, Note_on_c, 0, 49, 0
1, 29171, Note_on_c, 0, 48, 62
1, 29192, Note_on_c, 0, 48, 0
1, 29201, Note_on_c, 0, 47, 51
1, 29219, Note_on_c, 0, 47, 0
1, 29224, Note_on_c, 0, 46, 44
1, 29235, Note_on_c, 0, 46, 0
1, 29252, Note_on_c, 0, 45, 29
1, 29273, Note_on_c, 0, 44, 36
1, 29278, Note_on_c, 0, 45, 0
1, 29281, Note_on_c, 0, 44, 0
1, 29288, Note_on_c, 0, 43, 54
1, 29304, Note_on_c, 0, 43, 0
1, 29316, Note_on_c, 0, 42, 68
1, 29318, Note_on_c, 0, 55, 0
1, 29331, Note_on_c, 0, 59, 0
1, 29375, Note_on_c, 0, 62, 0
1, 29378, Note_on_c, 0, 52, 67
1, 29387, Note_on_c, 0, 64, 0
1, 29405, Note_on_c, 0, 52, 0
1, 29409, Control_c, 0, 64, 127
1, 29428, Note_on_c, 0, 58, 53
1, 29450, Note_on_c, 0, 58, 0
1, 29472, Note_on_c, 0, 60, 60
1, 29491, Note_on_c, 0, 42, 0
1, 29495, Note_on_c, 0, 60, 0
1, 29507, Note_on_c, 0, 65, 72
1, 29532, Note_on_c, 0, 65, 0
1, 29537, Note_on_c, 0, 70, 64
1, 29550, Note_on_c, 0, 70, 0
1, 29569, Note_on_c, 0, 72, 72
1, 29590, Note_on_c, 0, 72, 0
1, 29596, Note_on_c, 0, 77, 68
1, 29616, Note_on_c, 0, 77, 0
1, 29618, Note_on_c, 0, 82, 58
1, 29626, Note_on_c, 0, 82, 0
1, 29647, Note_on_c, 0, 84, 76
1, 29670, Note_on_c, 0, 84, 0
1, 29677, Note_on_c, 0, 89, 45
1, 29697, Note_on_c, 0, 94, 56
1, 29704, Note_on_c, 0, 89, 0
1, 29723, Note_on_c, 0, 94, 0
1, 29733, Note_on_c, 0, 96, 81
1, 29769, Note_on_c, 0, 96, 0
1, 29769, Note_on_c, 0, 41, 39
1, 29772, Note_on_c, 0, 48, 40
1, 29777, Note_on_c, 0, 93, 53
1, 29778, Control_c, 0, 64, 0
1, 29823, Control_c, 0, 64, 127
1, 29840, Note_on_c, 0, 41, 0
1, 29842, Note_on_c, 0, 48, 0
1, 29864, Note_on_c, 0, 93, 0
1, 30013, Note_on_c, 0, 64, 37
1, 30017, Note_on_c, 0, 60, 35
1, 30021, Note_on_c, 0, 57, 36
1, 30023, Note_on_c, 0, 53, 29
1, 30046, Note_on_c, 0, 64, 0
1, 30077, Note_on_c, 0, 65, 44
1, 30078, Note_on_c, 0, 77, 54
1, 30081, Note_on_c, 0, 79, 28
1, 30089, Note_on_c, 0, 79, 0
1, 30095, Note_on_c, 0, 65, 0
1, 30098, Note_on_c, 0, 77, 0
1, 30105, Note_on_c, 0, 60, 0
1, 30107, Note_on_c, 0, 57, 0
1, 30130, Note_on_c, 0, 53, 0
1, 30132, Note_on_c, 0, 79, 80
1, 30134, Note_on_c, 0, 67, 74
1, 30151, Note_on_c, 0, 67, 0
1, 30155, Note_on_c, 0, 79, 0
1, 30188, Note_on_c, 0, 81, 84
1, 30191, Note_on_c, 0, 69, 81
1, 30207, Note_on_c, 0, 69, 0
1, 30211, Note_on_c, 0, 81, 0
1, 30252, Note_on_c, 0, 72, 77
1, 30253, Note_on_c, 0, 57, 61
1, 30253, Note_on_c, 0, 84, 84
1, 30254, Note_on_c, 0, 77, 66
1, 30254, Note_on_c, 0, 81, 66
1, 30256, Control_c, 0, 64, 0
1, 30257, Note_on_c, 0, 65, 54
1, 30258, Note_on_c, 0, 60, 54
1, 30322, Control_c, 0, 64, 127
1, 30328, Note_on_c, 0, 55, 65
1, 30395, Note_on_c, 0, 65, 0
1, 30398, Note_on_c, 0, 60, 0
1, 30405, Note_on_c, 0, 57, 0
1, 30406, Note_on_c, 0, 55, 0
1, 30447, Note_on_c, 0, 72, 0
1, 30454, Note_on_c, 0, 77, 0
1, 30464, Note_on_c, 0, 81, 0
1, 30469, Note_on_c, 0, 84, 0
1, 30493, Note_on_c, 0, 86, 82
1, 30494, Note_on_c, 0, 79, 80
1, 30497, Note_on_c, 0, 74, 80
1, 30499, Note_on_c, 0, 64, 65
1, 30501, Note_on_c, 0, 59, 62
1, 30503, Note_on_c, 0, 53, 49
1, 30504, Control_c, 0, 64, 0
1, 30551, Control_c, 0, 64, 127
1, 30629, Note_on_c, 0, 86, 0
1, 30635, Note_on_c, 0, 79, 0
1, 30639, Note_on_c, 0, 74, 0
1, 30645, Note_on_c, 0, 53, 0
1, 30647, Note_on_c, 0, 64, 0
1, 30686, Note_on_c, 0, 59, 0
1, 30746, Note_on_c, 0, 79, 60
1, 30751, Note_on_c, 0, 62, 51
1, 30752, Note_on_c, 0, 67, 58
1, 30753, Note_on_c, 0, 74, 68
1, 30754, Note_on_c, 0, 59, 32
1, 30756, Note_on_c, 0, 52, 39
1, 30757, Control_c, 0, 64, 0
1, 30758, Note_on_c, 0, 55, 42
1, 30812, Control_c, 0, 64, 127
1, 30834, Note_on_c, 0, 55, 0
1, 30836, Note_on_c, 0, 52, 0
1, 30841, Note_on_c, 0, 59, 0
1, 30854, Note_on_c, 0, 62, 0
1, 30918, Note_on_c, 0, 67, 0
1, 30920, Note_on_c, 0, 74, 0
1, 30982, Note_on_c, 0, 79, 0
1, 31001, Note_on_c, 0, 67, 39
1, 31003, Note_on_c, 0, 74, 47
1, 31004, Note_on_c, 0, 62, 32
1, 31006, Note_on_c, 0, 59, 43
1, 31026, Note_on_c, 0, 67, 0
1, 31040, Note_on_c, 0, 74, 0
1, 31041, Note_on_c, 0, 62, 0
1, 31053, Note_on_c, 0, 59, 0
1, 31151, Note_on_c, 0, 86, 99
1, 31187, Note_on_c, 0, 86, 0
1, 31239, Note_on_c, 0, 84, 73
1, 31243, Note_on_c, 0, 39, 52
1, 31244, Note_on_c, 0, 81, 55
1, 31246, Note_on_c, 0, 54, 40
1, 31246, Note_on_c, 0, 72, 44
1, 31248, Note_on_c, 0, 78, 32
1, 31251, Control_c, 0, 64, 0
1, 31296, Control_c, 0, 64, 127
1, 31331, Note_on_c, 0, 39, 0
1, 31356, Note_on_c, 0, 54, 0
1, 31388, Note_on_c, 0, 72, 0
1, 31405, Note_on_c, 0, 78, 0
1, 31409, Note_on_c, 0, 81, 0
1, 31484, Note_on_c, 0, 78, 35
1, 31486, Note_on_c, 0, 63, 33
1, 31486, Note_on_c, 0, 72, 44
1, 31492, Note_on_c, 0, 54, 33
1, 31497, Note_on_c, 0, 60, 31
1, 31555, Note_on_c, 0, 60, 0
1, 31557, Note_on_c, 0, 63, 0
1, 31570, Note_on_c, 0, 54, 0
1, 31581, Note_on_c, 0, 84, 0
1, 31593, Note_on_c, 0, 72, 0
1, 31600, Note_on_c, 0, 78, 0
1, 31718, Note_on_c, 0, 83, 64
1, 31724, Note_on_c, 0, 74, 51
1, 31724, Note_on_c, 0, 79, 42
1, 31728, Note_on_c, 0, 71, 35
1, 31731, Note_on_c, 0, 59, 40
1, 31736, Note_on_c, 0, 50, 33
1, 31737, Control_c, 0, 64, 0
1, 31772, Control_c, 0, 64, 127
1, 31794, Note_on_c, 0, 50, 0
1, 31802, Note_on_c, 0, 59, 0
1, 31843, Note_on_c, 0, 83, 0
1, 31849, Note_on_c, 0, 74, 0
1, 31853, Note_on_c, 0, 71, 0
1, 31875, Note_on_c, 0, 79, 0
1, 31952, Note_on_c, 0, 74, 43
1, 31952, Note_on_c, 0, 62, 37
1, 31953, Note_on_c, 0, 71, 36
1, 31965, Note_on_c, 0, 74, 0
1, 31970, Note_on_c, 0, 71, 0
1, 31978, Note_on_c, 0, 62, 0
1, 32107, Note_on_c, 0, 65, 54
1, 32142, Note_on_c, 0, 65, 0
1, 32187, Note_on_c, 0, 60, 38
1, 32189, Note_on_c, 0, 69, 51
1, 32189, Note_on_c, 0, 64, 58
1, 32192, Note_on_c, 0, 57, 34
1, 32193, Note_on_c, 0, 48, 34
1, 32201, Control_c, 0, 64, 0
1, 32251, Control_c, 0, 64, 127
1, 32302, Note_on_c, 0, 64, 0
1, 32305, Note_on_c, 0, 57, 0
1, 32305, Note_on_c, 0, 60, 0
1, 32428, Note_on_c, 0, 60, 36
1, 32428, Note_on_c, 0, 64, 46
1, 32434, Note_on_c, 0, 57, 24
1, 32526, Note_on_c, 0, 64, 0
1, 32526, Note_on_c, 0, 69, 0
1, 32527, Note_on_c, 0, 57, 0
1, 32528, Note_on_c, 0, 60, 0
1, 32549, Note_on_c, 0, 48, 0
1, 32658, Note_on_c, 0, 67, 46
1, 32663, Note_on_c, 0, 59, 40
1, 32664, Note_on_c, 0, 62, 45
1, 32668, Note_on_c, 0, 47, 32
1, 32671, Note_on_c, 0, 55, 19
1, 32706, Note_on_c, 0, 59, 0
1, 32718, Note_on_c, 0, 67, 0
1, 32719, Note_on_c, 0, 62, 0
1, 32783, Note_on_c, 0, 67, 70
1, 32786, Note_on_c, 0, 62, 59
1, 32786, Note_on_c, 0, 59, 61
1, 32786, Note_on_c, 0, 64, 61
1, 32787, Note_on_c, 0, 55, 0
1, 32790, Note_on_c, 0, 52, 50
1, 32864, Note_on_c, 0, 67, 0
1, 32874, Note_on_c, 0, 52, 0
1, 32884, Note_on_c, 0, 59, 0
1, 32885, Note_on_c, 0, 64, 0
1, 32886, Note_on_c, 0, 62, 0
1, 32903, Note_on_c, 0, 64, 44
1, 32904, Note_on_c, 0, 62, 54
1, 32905, Note_on_c, 0, 69, 79
1, 32906, Note_on_c, 0, 53, 57
1, 32906, Note_on_c, 0, 59, 53
1, 32993, Note_on_c, 0, 59, 0
1, 32998, Note_on_c, 0, 62, 0
1, 33001, Note_on_c, 0, 69, 0
1, 33004, Note_on_c, 0, 64, 0
1, 33012, Note_on_c, 0, 53, 0
1, 33015, Note_on_c, 0, 59, 50
1, 33016, Note_on_c, 0, 67, 64
1, 33018, Note_on_c, 0, 64, 44
1, 33018, Note_on_c, 0, 52, 58
1, 33019, Note_on_c, 0, 62, 53
1, 33048, Control_c, 0, 64, 127
1, 33052, Note_on_c, 0, 59, 0
1, 33061, Note_on_c, 0, 62, 0
1, 33063, Note_on_c, 0, 64, 0
1, 33069, Note_on_c, 0, 67, 0
1, 33078, Note_on_c, 0, 52, 0
1, 33093, Note_on_c, 0, 47, 0
1, 33137, Control_c, 0, 64, 0
1, 33145, Note_on_c, 0, 72, 80
1, 33146, Note_on_c, 0, 67, 84
1, 33147, Note_on_c, 0, 69, 83
1, 33147, Note_on_c, 0, 57, 83
1, 33148, Note_on_c, 0, 64, 84
1, 33284, Control_c, 0, 64, 127
1, 33337, Note_on_c, 0, 64, 0
1, 33340, Note_on_c, 0, 69, 0
1, 33341, Note_on_c, 0, 67, 0
1, 33343, Note_on_c, 0, 72, 0
1, 33345, Note_on_c, 0, 57, 0
1, 33387, Control_c, 0, 64, 0
1, 33389, Note_on_c, 0, 72, 54
1, 33392, Note_on_c, 0, 69, 48
1, 33392, Note_on_c, 0, 67, 46
1, 33392, Note_on_c, 0, 64, 50
1, 33397, Note_on_c, 0, 57, 51
1, 33411, Control_c, 0, 64, 127
1, 33542, Note_on_c, 0, 64, 0
1, 33543, Note_on_c, 0, 67, 0
1, 33548, Note_on_c, 0, 57, 0
1, 33548, Note_on_c, 0, 69, 0
1, 33549, Note_on_c, 0, 72, 0
1, 33623, Control_c, 0, 64, 0
1, 33694, Control_c, 0, 64, 127
1, 33712, Control_c, 0, 64, 0
1, 33726, Note_on_c, 0, 43, 69
1, 33757, Control_c, 0, 64, 127
1, 33866, Note_on_c, 0, 55, 69
1, 33867, Note_on_c, 0, 64, 66
1, 33868, Note_on_c, 0, 59, 63
1, 33872, Note_on_c, 0, 62, 64
1, 33952, Note_on_c, 0, 65, 81
1, 33962, Note_on_c, 0, 62, 0
1, 33970, Note_on_c, 0, 64, 0
1, 33998, Note_on_c, 0, 55, 0
1, 34000, Note_on_c, 0, 65, 0
1, 34011, Note_on_c, 0, 59, 0
1, 34011, Note_on_c, 0, 43, 0
1, 34013, Note_on_c, 0, 64, 70
1, 34036, Note_on_c, 0, 64, 0
1, 34097, Note_on_c, 0, 64, 62
1, 34097, Note_on_c, 0, 69, 68
1, 34098, Note_on_c, 0, 57, 54
1, 34099, Note_on_c, 0, 48, 40
1, 34101, Note_on_c, 0, 41, 43
1, 34102, Control_c, 0, 64, 0
1, 34157, Control_c, 0, 64, 127
1, 34194, Note_on_c, 0, 57, 0
1, 34224, Note_on_c, 0, 64, 0
1, 34225, Note_on_c, 0, 48, 0
1, 34329, Note_on_c, 0, 48, 33
1, 34331, Note_on_c, 0, 57, 32
1, 34374, Note_on_c, 0, 48, 0
1, 34378, Note_on_c, 0, 57, 0
1, 34391, Note_on_c, 0, 41, 0
1, 34399, Note_on_c, 0, 69, 0
1, 34401, Note_on_c, 0, 64, 51
1, 34462, Note_on_c, 0, 64, 0
1, 34463, Note_on_c, 0, 69, 56
1, 34521, Note_on_c, 0, 69, 0
1, 34551, Note_on_c, 0, 64, 42
1, 34552, Note_on_c, 0, 40, 46
1, 34553, Note_on_c, 0, 59, 33
1, 34554, Note_on_c, 0, 62, 45
1, 34558, Note_on_c, 0, 55, 39
1, 34561, Control_c, 0, 64, 0
1, 34601, Note_on_c, 0, 59, 0
1, 34602, Control_c, 0, 64, 127
1, 34614, Note_on_c, 0, 62, 0
1, 34616, Note_on_c, 0, 64, 0
1, 34627, Note_on_c, 0, 40, 0
1, 34653, Note_on_c, 0, 55, 0
1, 34794, Note_on_c, 0, 59, 29
1, 34794, Note_on_c, 0, 62, 30
1, 34802, Note_on_c, 0, 55, 30
1, 34804, Note_on_c, 0, 52, 24
1, 34828, Control_c, 0, 64, 0
1, 34834, Note_on_c, 0, 67, 40
1, 34842, Note_on_c, 0, 55, 0
1, 34845, Note_on_c, 0, 52, 0
1, 34847, Note_on_c, 0, 59, 0
1, 34850, Note_on_c, 0, 67, 0
1, 34859, Note_on_c, 0, 62, 0
1, 34861, Note_on_c, 0, 69, 60
1, 34884, Note_on_c, 0, 69, 0
1, 34891, Note_on_c, 0, 70, 54
1, 34898, Note_on_c, 0, 70, 0
1, 34917, Note_on_c, 0, 72, 42
1, 34919, Note_on_c, 0, 74, 36
1, 34927, Note_on_c, 0, 72, 0
1, 34930, Note_on_c, 0, 74, 0
1, 34972, Note_on_c, 0, 81, 63
1, 34990, Note_on_c, 0, 81, 0
1, 35008, Note_on_c, 0, 84, 89
1, 35022, Note_on_c, 0, 62, 40
1, 35024, Note_on_c, 0, 58, 33
1, 35034, Note_on_c, 0, 84, 0
1, 35034, Note_on_c, 0, 57, 20
1, 35035, Note_on_c, 0, 62, 0
1, 35042, Note_on_c, 0, 57, 0
1, 35046, Note_on_c, 0, 82, 62
1, 35049, Note_on_c, 0, 58, 0
1, 35076, Note_on_c, 0, 82, 0
1, 35081, Note_on_c, 0, 79, 51
1, 35101, Note_on_c, 0, 79, 0
1, 35106, Note_on_c, 0, 81, 61
1, 35127, Note_on_c, 0, 81, 0
1, 35132, Note_on_c, 0, 82, 54
1, 35139, Note_on_c, 0, 82, 0
1, 35152, Note_on_c, 0, 84, 56
1, 35170, Note_on_c, 0, 84, 0
1, 35173, Note_on_c, 0, 85, 62
1, 35193, Note_on_c, 0, 85, 0
1, 35204, Note_on_c, 0, 87, 35
1, 35211, Note_on_c, 0, 87, 0
1, 35214, Note_on_c, 0, 88, 44
1, 35236, Note_on_c, 0, 36, 47
1, 35237, Note_on_c, 0, 88, 0
1, 35239, Note_on_c, 0, 43, 30
1, 35243, Note_on_c, 0, 52, 45
1, 35244, Note_on_c, 0, 90, 57
1, 35251, Note_on_c, 0, 90, 0
1, 35271, Note_on_c, 0, 91, 51
1, 35287, Note_on_c, 0, 43, 0
1, 35289, Note_on_c, 0, 36, 0
1, 35292, Control_c, 0, 64, 127
1, 35293, Note_on_c, 0, 93, 54
1, 35294, Note_on_c, 0, 91, 0
1, 35301, Note_on_c, 0, 52, 0
1, 35314, Note_on_c, 0, 93, 0
1, 35317, Note_on_c, 0, 94, 58
1, 35324, Note_on_c, 0, 94, 0
1, 35343, Note_on_c, 0, 96, 52
1, 35353, Note_on_c, 0, 96, 0
1, 35354, Note_on_c, 0, 97, 55
1, 35380, Note_on_c, 0, 97, 0
1, 35381, Note_on_c, 0, 99, 55
1, 35399, Note_on_c, 0, 99, 0
1, 35401, Note_on_c, 0, 100, 60
1, 35426, Note_on_c, 0, 100, 0
1, 35431, Note_on_c, 0, 103, 71
1, 35462, Note_on_c, 0, 103, 0
1, 35471, Note_on_c, 0, 41, 44
1, 35473, Note_on_c, 0, 101, 66
1, 35473, Note_on_c, 0, 48, 33
1, 35473, Control_c, 0, 64, 0
1, 35474, Note_on_c, 0, 57, 36
1, 35507, Control_c, 0, 64, 127
1, 35537, Note_on_c, 0, 41, 0
1, 35538, Note_on_c, 0, 101, 0
1, 35544, Note_on_c, 0, 48, 0
1, 35570, Note_on_c, 0, 57, 0
1, 35704, Note_on_c, 0, 77, 74
1, 35706, Note_on_c, 0, 72, 71
1, 35707, Note_on_c, 0, 67, 64
1, 35709, Note_on_c, 0, 62, 58
1, 35711, Control_c, 0, 64, 0
1, 35754, Control_c, 0, 64, 127
1, 35772, Note_on_c, 0, 77, 0
1, 35794, Note_on_c, 0, 67, 0
1, 35807, Note_on_c, 0, 72, 0
1, 35810, Note_on_c, 0, 62, 0
1, 35817, Note_on_c, 0, 79, 79
1, 35818, Note_on_c, 0, 60, 53
1, 35819, Note_on_c, 0, 72, 42
1, 35854, Note_on_c, 0, 72, 0
1, 35858, Note_on_c, 0, 79, 0
1, 35882, Note_on_c, 0, 81, 78
1, 35886, Note_on_c, 0, 60, 0
1, 35909, Note_on_c, 0, 81, 0
1, 35947, Note_on_c, 0, 79, 48
1, 35949, Note_on_c, 0, 75, 44
1, 35949, Note_on_c, 0, 83, 68
1, 35951, Note_on_c, 0, 64, 48
1, 35952, Control_c, 0, 64, 0
1, 35952, Note_on_c, 0, 71, 48
1, 35954, Note_on_c, 0, 59, 42
1, 35959, Note_on_c, 0, 53, 29
1, 35988, Control_c, 0, 64, 127
1, 35998, Note_on_c, 0, 64, 0
1, 36002, Note_on_c, 0, 59, 0
1, 36015, Note_on_c, 0, 53, 0
1, 36133, Note_on_c, 0, 71, 0
1, 36182, Note_on_c, 0, 75, 0
1, 36189, Note_on_c, 0, 43, 46
1, 36219, Note_on_c, 0, 43, 0
1, 36249, Note_on_c, 0, 79, 0
1, 36255, Note_on_c, 0, 83, 0
1, 36271, Note_on_c, 0, 81, 55
1, 36326, Note_on_c, 0, 81, 0
1, 36347, Note_on_c, 0, 83, 60
1, 36369, Note_on_c, 0, 83, 0
1, 36578, Note_on_c, 0, 79, 78
1, 36650, Note_on_c, 0, 79, 0
1, 36657, Note_on_c, 0, 40, 59
1, 36716, Note_on_c, 0, 52, 65
1, 36762, Note_on_c, 0, 40, 0
1, 36776, Note_on_c, 0, 62, 77
1, 36777, Note_on_c, 0, 52, 0
1, 36808, Note_on_c, 0, 62, 0
1, 36829, Note_on_c, 0, 64, 81
1, 36852, Note_on_c, 0, 64, 0
1, 36898, Note_on_c, 0, 61, 68
1, 36899, Note_on_c, 0, 63, 67
1, 36903, Note_on_c, 0, 55, 50
1, 36904, Note_on_c, 0, 45, 49
1, 36912, Control_c, 0, 64, 0
1, 36959, Control_c, 0, 64, 127
1, 37021, Note_on_c, 0, 55, 0
1, 37060, Note_on_c, 0, 63, 0
1, 37069, Note_on_c, 0, 61, 0
1, 37146, Note_on_c, 0, 58, 52
1, 37147, Note_on_c, 0, 64, 64
1, 37148, Note_on_c, 0, 61, 52
1, 37151, Note_on_c, 0, 55, 47
1, 37214, Note_on_c, 0, 45, 0
1, 37217, Note_on_c, 0, 55, 0
1, 37231, Note_on_c, 0, 52, 95
1, 37331, Note_on_c, 0, 58, 0
1, 37333, Note_on_c, 0, 64, 0
1, 37341, Note_on_c, 0, 61, 0
1, 37368, Note_on_c, 0, 52, 0
1, 37391, Note_on_c, 0, 65, 85
1, 37392, Note_on_c, 0, 60, 90
1, 37393, Note_on_c, 0, 50, 87
1, 37393, Note_on_c, 0, 57, 82
1, 37402, Control_c, 0, 64, 0
1, 37443, Control_c, 0, 64, 127
1, 37538, Note_on_c, 0, 57, 0
1, 37547, Note_on_c, 0, 60, 0
1, 37548, Note_on_c, 0, 65, 0
1, 37627, Note_on_c, 0, 67, 81
1, 37628, Note_on_c, 0, 62, 84
1, 37631, Note_on_c, 0, 52, 80
1, 37631, Note_on_c, 0, 60, 81
1, 37632, Control_c, 0, 64, 0
1, 37640, Note_on_c, 0, 50, 0
1, 37664, Control_c, 0, 64, 127
1, 37669, Note_on_c, 0, 67, 0
1, 37686, Note_on_c, 0, 62, 0
1, 37689, Note_on_c, 0, 60, 0
1, 37742, Note_on_c, 0, 69, 78
1, 37743, Note_on_c, 0, 65, 74
1, 37744, Note_on_c, 0, 62, 80
1, 37746, Note_on_c, 0, 53, 70
1, 37751, Note_on_c, 0, 52, 0
1, 37772, Note_on_c, 0, 62, 0
1, 37774, Note_on_c, 0, 53, 0
1, 37778, Note_on_c, 0, 65, 0
1, 37779, Note_on_c, 0, 69, 0
1, 37864, Note_on_c, 0, 74, 84
1, 37866, Note_on_c, 0, 71, 80
1, 37866, Note_on_c, 0, 65, 85
1, 37872, Control_c, 0, 64, 0
1, 37923, Control_c, 0, 64, 127
1, 37982, Note_on_c, 0, 43, 60
1, 38005, Note_on_c, 0, 43, 0
1, 38038, Note_on_c, 0, 65, 0
1, 38064, Note_on_c, 0, 74, 0
1, 38078, Note_on_c, 0, 71, 0
1, 38118, Note_on_c, 0, 41, 54
1, 38119, Note_on_c, 0, 72, 83
1, 38121, Note_on_c, 0, 67, 92
1, 38122, Note_on_c, 0, 57, 67
1, 38132, Control_c, 0, 64, 0
1, 38173, Control_c, 0, 64, 127
1, 38215, Note_on_c, 0, 41, 0
1, 38219, Note_on_c, 0, 57, 0
1, 38232, Note_on_c, 0, 72, 0
1, 38246, Note_on_c, 0, 74, 76
1, 38247, Note_on_c, 0, 72, 47
1, 38252, Note_on_c, 0, 67, 0
1, 38270, Note_on_c, 0, 72, 0
1, 38276, Note_on_c, 0, 74, 0
1, 38478, Note_on_c, 0, 40, 73
1, 38494, Note_on_c, 0, 40, 0
1, 38601, Note_on_c, 0, 76, 88
1, 38602, Note_on_c, 0, 72, 92
1, 38603, Note_on_c, 0, 67, 94
1, 38606, Note_on_c, 0, 62, 65
1, 38608, Note_on_c, 0, 74, 50
1, 38616, Note_on_c, 0, 74, 0
1, 38701, Note_on_c, 0, 67, 0
1, 38717, Note_on_c, 0, 62, 0
1, 38719, Note_on_c, 0, 71, 78
1, 38737, Note_on_c, 0, 72, 0
1, 38786, Note_on_c, 0, 71, 0
1, 38808, Note_on_c, 0, 76, 0
1, 38851, Note_on_c, 0, 70, 72
1, 38854, Note_on_c, 0, 55, 58
1, 38854, Note_on_c, 0, 76, 72
1, 38856, Note_on_c, 0, 61, 40
1, 38856, Note_on_c, 0, 65, 53
1, 38861, Control_c, 0, 64, 0
1, 38904, Control_c, 0, 64, 127
1, 38960, Note_on_c, 0, 76, 0
1, 38989, Note_on_c, 0, 76, 51
1, 39012, Note_on_c, 0, 65, 0
1, 39043, Note_on_c, 0, 61, 0
1, 39096, Note_on_c, 0, 76, 0
1, 39098, Note_on_c, 0, 70, 0
1, 39122, Note_on_c, 0, 76, 38
1, 39124, Note_on_c, 0, 69, 55
1, 39127, Note_on_c, 0, 64, 39
1, 39129, Note_on_c, 0, 61, 29
1, 39184, Note_on_c, 0, 55, 0
1, 39254, Note_on_c, 0, 55, 53
1, 39263, Note_on_c, 0, 64, 0
1, 39275, Note_on_c, 0, 55, 0
1, 39276, Note_on_c, 0, 61, 0
1, 39287, Note_on_c, 0, 69, 0
1, 39300, Note_on_c, 0, 76, 0
1, 39421, Note_on_c, 0, 69, 58
1, 39421, Note_on_c, 0, 64, 48
1, 39422, Note_on_c, 0, 65, 55
1, 39423, Note_on_c, 0, 38, 46
1, 39426, Control_c, 0, 64, 0
1, 39469, Control_c, 0, 64, 127
1, 39586, Note_on_c, 0, 38, 0
1, 39616, Note_on_c, 0, 64, 0
1, 39637, Note_on_c, 0, 65, 0
1, 39648, Note_on_c, 0, 69, 0
1, 39789, Note_on_c, 0, 72, 75
1, 39791, Note_on_c, 0, 69, 77
1, 39792, Note_on_c, 0, 65, 78
1, 39792, Note_on_c, 0, 62, 82
1, 39796, Note_on_c, 0, 57, 63
1, 39802, Control_c, 0, 64, 0
1, 39838, Control_c, 0, 64, 127
1, 39884, Note_on_c, 0, 72, 0
1, 39892, Note_on_c, 0, 62, 0
1, 39903, Note_on_c, 0, 65, 0
1, 39909, Note_on_c, 0, 69, 0
1, 39937, Note_on_c, 0, 74, 76
1, 39938, Note_on_c, 0, 65, 72
1, 39938, Note_on_c, 0, 69, 51
1, 39939, Note_on_c, 0, 59, 55
1, 39941, Note_on_c, 0, 57, 0
1, 39946, Control_c, 0, 64, 0
1, 39982, Control_c, 0, 64, 127
1, 40011, Note_on_c, 0, 65, 0
1, 40020, Note_on_c, 0, 69, 0
1, 40027, Note_on_c, 0, 74, 0
1, 40099, Note_on_c, 0, 59, 0
1, 40101, Note_on_c, 0, 76, 58
1, 40103, Note_on_c, 0, 65, 42
1, 40106, Note_on_c, 0, 60, 42
1, 40106, Note_on_c, 0, 69, 49
1, 40107, Note_on_c, 0, 72, 47
1, 40152, Note_on_c, 0, 60, 0
1, 40177, Note_on_c, 0, 76, 0
1, 40186, Note_on_c, 0, 65, 0
1, 40188, Note_on_c, 0, 72, 0
1, 40188, Note_on_c, 0, 69, 0
1, 40308, Note_on_c, 0, 31, 62
1, 40309, Control_c, 0, 64, 0
1, 40330, Note_on_c, 0, 31, 0
1, 40336, Control_c, 0, 64, 127
1, 40479, Note_on_c, 0, 53, 50
1, 40514, Note_on_c, 0, 65, 65
1, 40517, Note_on_c, 0, 59, 30
1, 40523, Note_on_c, 0, 68, 57
1, 40536, Note_on_c, 0, 71, 49
1, 40554, Note_on_c, 0, 74, 64
1, 40664, Note_on_c, 0, 74, 0
1, 40748, Note_on_c, 0, 74, 53
1, 41121, Note_on_c, 0, 74, 0
1, 41126, Note_on_c, 0, 72, 62
1, 41249, Note_on_c, 0, 59, 0
1, 41272, Note_on_c, 0, 74, 53
1, 41284, Note_on_c, 0, 53, 0
1, 41381, Note_on_c, 0, 65, 0
1, 41391, Note_on_c, 0, 68, 0
1, 41392, Note_on_c, 0, 74, 0
1, 41404, Note_on_c, 0, 72, 0
1, 41423, Note_on_c, 0, 71, 0
1, 41569, Control_c, 0, 64, 0
1, 41573, Note_on_c, 0, 36, 60
1, 41597, Control_c, 0, 64, 127
1, 41635, Note_on_c, 0, 36, 0
1, 41832, Note_on_c, 0, 62, 40
1, 41836, Note_on_c, 0, 57, 43
1, 41838, Note_on_c, 0, 52, 41
1, 41933, Note_on_c, 0, 52, 0
1, 41936, Note_on_c, 0, 57, 0
1, 41937, Note_on_c, 0, 62, 0
1, 42018, Note_on_c, 0, 63, 48
1, 42022, Note_on_c, 0, 58, 42
1, 42026, Note_on_c, 0, 53, 31
1, 42029, Control_c, 0, 64, 0
1, 42058, Control_c, 0, 64, 127
1, 42107, Note_on_c, 0, 72, 50
1, 42122, Note_on_c, 0, 72, 0
1, 42148, Note_on_c, 0, 77, 60
1, 42152, Control_c, 0, 64, 0
1, 42175, Note_on_c, 0, 77, 0
1, 42184, Note_on_c, 0, 82, 60
1, 42199, Note_on_c, 0, 82, 0
1, 42226, Note_on_c, 0, 63, 0
1, 42226, Note_on_c, 0, 84, 68
1, 42237, Note_on_c, 0, 58, 0
1, 42239, Note_on_c, 0, 53, 0
1, 42244, Note_on_c, 0, 84, 0
1, 42268, Note_on_c, 0, 89, 72
1, 42296, Note_on_c, 0, 89, 0
1, 42309, Note_on_c, 0, 94, 69
1, 42323, Control_c, 0, 64, 127
1, 42362, Note_on_c, 0, 94, 0
1, 42387, Note_on_c, 0, 96, 70
1, 42403, Note_on_c, 0, 96, 0
1, 42441, Note_on_c, 0, 101, 60
1, 42494, Note_on_c, 0, 101, 0
1, 42511, Note_on_c, 0, 108, 56
1, 42554, Note_on_c, 0, 108, 0
1, 42558, Control_c, 0, 64, 0
1, 42558, Note_on_c, 0, 43, 24
1, 42564, Note_on_c, 0, 36, 49
1, 42566, Note_on_c, 0, 105, 54
1, 42566, Note_on_c, 0, 52, 50
1, 42591, Control_c, 0, 64, 127
1, 42635, Note_on_c, 0, 36, 0
1, 42645, Note_on_c, 0, 43, 0
1, 42667, Note_on_c, 0, 52, 0
1, 42673, Note_on_c, 0, 105, 0
1, 42776, Note_on_c, 0, 103, 55
1, 42817, Note_on_c, 0, 103, 0
1, 42823, Note_on_c, 0, 52, 37
1, 42824, Note_on_c, 0, 57, 38
1, 42826, Note_on_c, 0, 62, 22
1, 42838, Note_on_c, 0, 96, 20
1, 42894, Note_on_c, 0, 96, 0
1, 42916, Note_on_c, 0, 96, 55
1, 42932, Note_on_c, 0, 96, 0
1, 42948, Note_on_c, 0, 52, 0
1, 42949, Note_on_c, 0, 57, 0
1, 42964, Note_on_c, 0, 62, 0
1, 43021, Note_on_c, 0, 94, 64
1, 43022, Note_on_c, 0, 63, 36
1, 43023, Note_on_c, 0, 58, 43
1, 43024, Note_on_c, 0, 53, 33
1, 43037, Control_c, 0, 64, 0
1, 43064, Control_c, 0, 64, 127
1, 43089, Note_on_c, 0, 94, 0
1, 43092, Note_on_c, 0, 99, 53
1, 43117, Note_on_c, 0, 94, 49
1, 43123, Note_on_c, 0, 99, 0
1, 43137, Note_on_c, 0, 94, 0
1, 43141, Control_c, 0, 64, 0
1, 43146, Note_on_c, 0, 89, 53
1, 43157, Note_on_c, 0, 89, 0
1, 43181, Note_on_c, 0, 87, 60
1, 43201, Note_on_c, 0, 87, 0
1, 43222, Note_on_c, 0, 89, 66
1, 43238, Note_on_c, 0, 89, 0
1, 43298, Note_on_c, 0, 82, 67
1, 43314, Note_on_c, 0, 82, 0
1, 43344, Note_on_c, 0, 77, 56
1, 43364, Note_on_c, 0, 77, 0
1, 43429, Note_on_c, 0, 75, 59
1, 43471, Control_c, 0, 64, 127
1, 43489, Note_on_c, 0, 63, 0
1, 43497, Note_on_c, 0, 53, 0
1, 43499, Note_on_c, 0, 58, 0
1, 43534, Note_on_c, 0, 70, 52
1, 43535, Note_on_c, 0, 75, 0
1, 43571, Note_on_c, 0, 70, 0
1, 43571, Note_on_c, 0, 67, 46
1, 43597, Note_on_c, 0, 67, 0
1, 43629, Note_on_c, 0, 36, 48
1, 43631, Note_on_c, 0, 43, 33
1, 43632, Note_on_c, 0, 69, 40
1, 43638, Note_on_c, 0, 67, 49
1, 43639, Control_c, 0, 64, 0
1, 43671, Control_c, 0, 64, 127
1, 43753, Note_on_c, 0, 69, 0
1, 43759, Note_on_c, 0, 67, 0
1, 43856, Note_on_c, 0, 62, 53
1, 43859, Note_on_c, 0, 57, 36
1, 43867, Note_on_c, 0, 52, 33
1, 44036, Note_on_c, 0, 62, 0
1, 44039, Note_on_c, 0, 52, 0
1, 44049, Note_on_c, 0, 36, 0
1, 44052, Note_on_c, 0, 57, 0
1, 44063, Note_on_c, 0, 43, 0
1, 44188, Note_on_c, 0, 44, 32
1, 44191, Note_on_c, 0, 53, 37
1, 44191, Note_on_c, 0, 58, 38
1, 44193, Note_on_c, 0, 37, 34
1, 44204, Control_c, 0, 64, 0
1, 44246, Control_c, 0, 64, 127
1, 44343, Note_on_c, 0, 53, 0
1, 44353, Note_on_c, 0, 58, 0
1, 44419, Note_on_c, 0, 63, 37
1, 44426, Note_on_c, 0, 58, 32
1, 44428, Note_on_c, 0, 53, 27
1, 44429, Note_on_c, 0, 49, 20
1, 44540, Note_on_c, 0, 49, 0
1, 44553, Note_on_c, 0, 44, 0
1, 44556, Note_on_c, 0, 37, 0
1, 44574, Note_on_c, 0, 53, 0
1, 44614, Note_on_c, 0, 58, 0
1, 44615, Note_on_c, 0, 63, 0
1, 44771, Note_on_c, 0, 59, 36
1, 44772, Note_on_c, 0, 57, 24
1, 44774, Note_on_c, 0, 43, 27
1, 44779, Note_on_c, 0, 52, 47
1, 44787, Note_on_c, 0, 36, 10
1, 44803, Control_c, 0, 64, 0
1, 44854, Control_c, 0, 64, 127
1, 44894, Note_on_c, 0, 57, 0
1, 44912, Note_on_c, 0, 59, 0
1, 45073, Note_on_c, 0, 86, 37
1, 45076, Note_on_c, 0, 74, 31
1, 45088, Note_on_c, 0, 86, 0
1, 45089, Note_on_c, 0, 74, 0
1, 45206, Note_on_c, 0, 95, 22
1, 45227, Note_on_c, 0, 95, 0
1, 45317, Note_on_c, 0, 100, 36
1, 45317, Note_on_c, 0, 88, 34
1, 45334, Note_on_c, 0, 88, 0
1, 45345, Note_on_c, 0, 100, 0
1, 45447, Note_on_c, 0, 107, 22
1, 45447, Note_on_c, 0, 95, 27
1, 45565, Note_on_c, 0, 107, 0
1, 45570, Note_on_c, 0, 95, 0
1, 45637, Note_on_c, 0, 52, 0
1, 45640, Note_on_c, 0, 43, 0
1, 45650, Note_on_c, 0, 36, 0
1, 45778, Control_c, 0, 64, 0
1, 45778, End_track
0, 0, End_of_file
