0, 0, Header, 1, 4, 120
1, 0, Start_track
1, 0, Title_t, "The Masquerade Is Over"
1, 0, Text_t, "Dougmck@pipeline.com.au"
1, 0, Text_t, "Keith Jarrett plays this on his 'Standards'  Vol 1 album\012"
1, 0, Time_signature, 4, 2, 24, 8
1, 0, Key_signature, -3, "major"
1, 0, Tempo, 315789
1, 26880, Marker_t, "Bass walks"
1, 26880, End_track
2, 0, Start_track
2, 0, MIDI_port, 1
2, 0, Title_t, "Acoustic or Rhodes piano"
2, 18, Note_on_c, 0, 55, 52
2, 18, Note_on_c, 0, 74, 58
2, 21, Note_on_c, 0, 65, 40
2, 21, Note_on_c, 0, 79, 55
2, 22, Note_on_c, 0, 67, 57
2, 23, Note_on_c, 0, 62, 36
2, 25, Note_on_c, 0, 60, 44
2, 46, Control_c, 0, 64, 127
2, 214, Note_on_c, 0, 67, 0
2, 224, Note_on_c, 0, 79, 0
2, 229, Note_on_c, 0, 74, 0
2, 308, Note_on_c, 0, 65, 0
2, 319, Note_on_c, 0, 62, 0
2, 325, Note_on_c, 0, 60, 0
2, 330, Note_on_c, 0, 55, 0
2, 451, Note_on_c, 0, 79, 89
2, 490, Note_on_c, 0, 79, 0
2, 499, Note_on_c, 0, 77, 50
2, 522, Note_on_c, 0, 56, 47
2, 522, Note_on_c, 0, 60, 52
2, 525, Note_on_c, 0, 50, 37
2, 528, Control_c, 0, 64, 0
2, 552, Note_on_c, 0, 79, 76
2, 563, Note_on_c, 0, 77, 0
2, 629, Note_on_c, 0, 50, 0
2, 636, Note_on_c, 0, 56, 0
2, 640, Control_c, 0, 64, 127
2, 648, Note_on_c, 0, 60, 0
2, 739, Note_on_c, 0, 63, 46
2, 741, Note_on_c, 0, 53, 44
2, 742, Control_c, 0, 64, 0
2, 743, Note_on_c, 0, 59, 55
2, 768, Note_on_c, 0, 79, 0
2, 877, Note_on_c, 0, 53, 0
2, 886, Note_on_c, 0, 59, 0
2, 908, Note_on_c, 0, 63, 0
2, 908, Note_on_c, 0, 82, 78
2, 957, Note_on_c, 0, 82, 0
2, 958, Note_on_c, 0, 80, 58
2, 978, Note_on_c, 0, 63, 44
2, 978, Note_on_c, 0, 67, 46
2, 979, Note_on_c, 0, 62, 51
2, 984, Note_on_c, 0, 80, 0
2, 984, Note_on_c, 0, 58, 33
2, 1011, Note_on_c, 0, 79, 7
2, 1044, Note_on_c, 0, 79, 0
2, 1091, Note_on_c, 0, 79, 68
2, 1122, Note_on_c, 0, 79, 0
2, 1199, Note_on_c, 0, 79, 66
2, 1218, Note_on_c, 0, 67, 0
2, 1226, Note_on_c, 0, 62, 0
2, 1235, Note_on_c, 0, 63, 0
2, 1264, Note_on_c, 0, 79, 0
2, 1272, Note_on_c, 0, 78, 49
2, 1289, Note_on_c, 0, 63, 23
2, 1315, Note_on_c, 0, 78, 0
2, 1317, Note_on_c, 0, 63, 0
2, 1330, Note_on_c, 0, 77, 35
2, 1332, Note_on_c, 0, 58, 0
2, 1396, Note_on_c, 0, 77, 0
2, 1430, Note_on_c, 0, 61, 35
2, 1435, Note_on_c, 0, 65, 26
2, 1436, Note_on_c, 0, 56, 20
2, 1438, Note_on_c, 0, 60, 33
2, 1524, Note_on_c, 0, 60, 0
2, 1533, Note_on_c, 0, 65, 0
2, 1559, Note_on_c, 0, 61, 0
2, 1587, Note_on_c, 0, 56, 0
2, 1628, Note_on_c, 0, 61, 28
2, 1633, Note_on_c, 0, 55, 40
2, 1635, Note_on_c, 0, 64, 22
2, 1768, Note_on_c, 0, 64, 0
2, 1780, Note_on_c, 0, 61, 0
2, 1806, Note_on_c, 0, 55, 0
2, 1806, Note_on_c, 0, 74, 74
2, 1860, Note_on_c, 0, 74, 0
2, 1877, Note_on_c, 0, 75, 81
2, 1919, Note_on_c, 0, 75, 0
2, 1922, Control_c, 0, 64, 127
2, 1929, Note_on_c, 0, 63, 39
2, 1936, Note_on_c, 0, 60, 47
2, 1942, Note_on_c, 0, 58, 35
2, 1943, Note_on_c, 0, 77, 68
2, 1948, Note_on_c, 0, 53, 36
2, 1960, Note_on_c, 0, 63, 0
2, 1978, Note_on_c, 0, 77, 0
2, 1998, Note_on_c, 0, 53, 0
2, 2034, Note_on_c, 0, 60, 0
2, 2040, Note_on_c, 0, 84, 92
2, 2040, Control_c, 0, 64, 0
2, 2041, Note_on_c, 0, 72, 81
2, 2053, Note_on_c, 0, 58, 0
2, 2090, Note_on_c, 0, 72, 0
2, 2092, Note_on_c, 0, 84, 0
2, 2123, Note_on_c, 0, 84, 75
2, 2126, Note_on_c, 0, 72, 65
2, 2132, Note_on_c, 0, 63, 57
2, 2132, Note_on_c, 0, 60, 56
2, 2133, Note_on_c, 0, 53, 43
2, 2134, Note_on_c, 0, 58, 42
2, 2172, Note_on_c, 0, 72, 0
2, 2173, Note_on_c, 0, 84, 0
2, 2211, Note_on_c, 0, 84, 77
2, 2214, Note_on_c, 0, 72, 68
2, 2223, Control_c, 0, 64, 127
2, 2234, Note_on_c, 0, 63, 0
2, 2251, Note_on_c, 0, 84, 0
2, 2251, Note_on_c, 0, 72, 0
2, 2254, Note_on_c, 0, 60, 0
2, 2277, Note_on_c, 0, 58, 0
2, 2298, Note_on_c, 0, 84, 71
2, 2303, Note_on_c, 0, 72, 66
2, 2326, Note_on_c, 0, 53, 0
2, 2338, Note_on_c, 0, 72, 0
2, 2338, Note_on_c, 0, 84, 0
2, 2379, Note_on_c, 0, 85, 77
2, 2381, Note_on_c, 0, 73, 59
2, 2389, Note_on_c, 0, 62, 49
2, 2391, Note_on_c, 0, 58, 39
2, 2395, Control_c, 0, 64, 0
2, 2396, Note_on_c, 0, 53, 25
2, 2396, Note_on_c, 0, 55, 41
2, 2428, Note_on_c, 0, 85, 0
2, 2437, Note_on_c, 0, 73, 0
2, 2466, Note_on_c, 0, 72, 45
2, 2467, Note_on_c, 0, 84, 63
2, 2506, Note_on_c, 0, 84, 0
2, 2526, Note_on_c, 0, 72, 0
2, 2533, Note_on_c, 0, 62, 0
2, 2540, Note_on_c, 0, 55, 0
2, 2541, Note_on_c, 0, 53, 0
2, 2541, Note_on_c, 0, 58, 0
2, 2555, Note_on_c, 0, 82, 45
2, 2558, Note_on_c, 0, 70, 54
2, 2601, Note_on_c, 0, 82, 0
2, 2603, Note_on_c, 0, 70, 0
2, 2606, Control_c, 0, 64, 127
2, 2638, Note_on_c, 0, 80, 36
2, 2642, Note_on_c, 0, 68, 35
2, 2644, Control_c, 0, 64, 0
2, 2646, Note_on_c, 0, 58, 29
2, 2648, Note_on_c, 0, 62, 35
2, 2652, Note_on_c, 0, 52, 34
2, 2702, Note_on_c, 0, 80, 0
2, 2712, Note_on_c, 0, 68, 0
2, 2716, Note_on_c, 0, 62, 0
2, 2741, Note_on_c, 0, 62, 25
2, 2742, Note_on_c, 0, 79, 57
2, 2743, Control_c, 0, 64, 127
2, 2747, Note_on_c, 0, 67, 47
2, 2765, Note_on_c, 0, 52, 0
2, 2783, Note_on_c, 0, 58, 0
2, 2783, Note_on_c, 0, 62, 0
2, 2812, Note_on_c, 0, 67, 0
2, 2833, Note_on_c, 0, 79, 0
2, 2897, Note_on_c, 0, 69, 48
2, 2898, Note_on_c, 0, 63, 39
2, 2898, Note_on_c, 0, 53, 40
2, 2899, Note_on_c, 0, 81, 42
2, 2902, Note_on_c, 0, 60, 41
2, 2903, Note_on_c, 0, 74, 32
2, 2904, Control_c, 0, 64, 0
2, 2964, Note_on_c, 0, 53, 0
2, 2971, Note_on_c, 0, 60, 0
2, 2978, Control_c, 0, 64, 127
2, 2995, Note_on_c, 0, 63, 0
2, 3041, Note_on_c, 0, 69, 0
2, 3055, Note_on_c, 0, 74, 0
2, 3091, Note_on_c, 0, 67, 48
2, 3094, Note_on_c, 0, 63, 47
2, 3095, Note_on_c, 0, 57, 49
2, 3184, Note_on_c, 0, 81, 0
2, 3197, Note_on_c, 0, 57, 0
2, 3204, Note_on_c, 0, 67, 0
2, 3249, Note_on_c, 0, 63, 0
2, 3367, Control_c, 0, 64, 0
2, 3370, Note_on_c, 0, 56, 77
2, 3370, Note_on_c, 0, 63, 75
2, 3371, Note_on_c, 0, 80, 85
2, 3371, Note_on_c, 0, 67, 88
2, 3372, Note_on_c, 0, 68, 94
2, 3372, Note_on_c, 0, 75, 85
2, 3374, Note_on_c, 0, 60, 74
2, 3393, Control_c, 0, 64, 127
2, 3407, Note_on_c, 0, 68, 0
2, 3416, Note_on_c, 0, 67, 0
2, 3420, Note_on_c, 0, 80, 0
2, 3426, Note_on_c, 0, 56, 0
2, 3426, Note_on_c, 0, 60, 0
2, 3427, Note_on_c, 0, 75, 0
2, 3450, Note_on_c, 0, 56, 32
2, 3451, Note_on_c, 0, 67, 55
2, 3451, Note_on_c, 0, 70, 78
2, 3451, Note_on_c, 0, 82, 77
2, 3453, Note_on_c, 0, 75, 47
2, 3461, Note_on_c, 0, 60, 31
2, 3465, Note_on_c, 0, 75, 0
2, 3465, Note_on_c, 0, 67, 0
2, 3474, Note_on_c, 0, 60, 0
2, 3475, Note_on_c, 0, 70, 0
2, 3479, Note_on_c, 0, 82, 0
2, 3480, Note_on_c, 0, 56, 0
2, 3490, Note_on_c, 0, 63, 0
2, 3499, Note_on_c, 0, 56, 48
2, 3500, Note_on_c, 0, 63, 29
2, 3500, Note_on_c, 0, 67, 68
2, 3502, Control_c, 0, 64, 0
2, 3503, Note_on_c, 0, 72, 74
2, 3504, Note_on_c, 0, 84, 84
2, 3506, Note_on_c, 0, 60, 58
2, 3519, Control_c, 0, 64, 127
2, 3537, Note_on_c, 0, 72, 0
2, 3546, Note_on_c, 0, 67, 0
2, 3547, Note_on_c, 0, 84, 0
2, 3554, Note_on_c, 0, 56, 0
2, 3570, Note_on_c, 0, 63, 0
2, 3571, Note_on_c, 0, 60, 0
2, 3571, Control_c, 0, 64, 0
2, 3582, Note_on_c, 0, 74, 72
2, 3586, Note_on_c, 0, 66, 71
2, 3586, Note_on_c, 0, 82, 47
2, 3586, Note_on_c, 0, 86, 77
2, 3587, Note_on_c, 0, 79, 55
2, 3590, Note_on_c, 0, 60, 34
2, 3590, Note_on_c, 0, 56, 36
2, 3591, Note_on_c, 0, 62, 68
2, 3608, Note_on_c, 0, 74, 0
2, 3611, Note_on_c, 0, 66, 0
2, 3617, Note_on_c, 0, 79, 0
2, 3621, Note_on_c, 0, 82, 0
2, 3626, Note_on_c, 0, 86, 0
2, 3626, Note_on_c, 0, 60, 0
2, 3628, Note_on_c, 0, 56, 0
2, 3637, Note_on_c, 0, 62, 0
2, 3699, Note_on_c, 0, 75, 75
2, 3700, Note_on_c, 0, 87, 73
2, 3705, Note_on_c, 0, 66, 68
2, 3708, Note_on_c, 0, 62, 55
2, 3710, Note_on_c, 0, 56, 44
2, 3723, Note_on_c, 0, 62, 0
2, 3724, Note_on_c, 0, 75, 0
2, 3729, Note_on_c, 0, 66, 0
2, 3731, Note_on_c, 0, 87, 0
2, 3741, Note_on_c, 0, 56, 0
2, 3747, Control_c, 0, 64, 127
2, 3802, Note_on_c, 0, 56, 57
2, 3804, Note_on_c, 0, 66, 57
2, 3805, Note_on_c, 0, 89, 68
2, 3810, Note_on_c, 0, 62, 52
2, 3810, Note_on_c, 0, 77, 60
2, 3830, Note_on_c, 0, 89, 0
2, 3833, Note_on_c, 0, 66, 0
2, 3837, Note_on_c, 0, 77, 0
2, 3847, Note_on_c, 0, 62, 0
2, 3848, Note_on_c, 0, 56, 0
2, 3873, Note_on_c, 0, 62, 26
2, 3874, Note_on_c, 0, 65, 58
2, 3882, Note_on_c, 0, 55, 49
2, 3884, Note_on_c, 0, 70, 62
2, 3884, Note_on_c, 0, 60, 33
2, 3888, Control_c, 0, 64, 0
2, 3897, Note_on_c, 0, 82, 14
2, 3958, Control_c, 0, 64, 127
2, 3979, Note_on_c, 0, 60, 0
2, 3980, Note_on_c, 0, 82, 0
2, 3985, Note_on_c, 0, 65, 0
2, 3988, Note_on_c, 0, 55, 0
2, 3991, Note_on_c, 0, 70, 0
2, 3997, Note_on_c, 0, 62, 0
2, 4028, Control_c, 0, 64, 0
2, 4051, Note_on_c, 0, 82, 51
2, 4055, Note_on_c, 0, 70, 45
2, 4059, Note_on_c, 0, 65, 50
2, 4061, Note_on_c, 0, 62, 36
2, 4069, Note_on_c, 0, 60, 44
2, 4069, Note_on_c, 0, 55, 32
2, 4080, Control_c, 0, 64, 127
2, 4159, Note_on_c, 0, 55, 0
2, 4170, Note_on_c, 0, 62, 0
2, 4172, Note_on_c, 0, 60, 0
2, 4185, Note_on_c, 0, 65, 0
2, 4191, Note_on_c, 0, 70, 0
2, 4218, Note_on_c, 0, 82, 0
2, 4322, Note_on_c, 0, 56, 79
2, 4323, Note_on_c, 0, 61, 77
2, 4326, Note_on_c, 0, 65, 88
2, 4326, Note_on_c, 0, 87, 94
2, 4327, Note_on_c, 0, 75, 102
2, 4327, Note_on_c, 0, 60, 84
2, 4328, Note_on_c, 0, 82, 86
2, 4328, Control_c, 0, 64, 0
2, 4335, Note_on_c, 0, 85, 44
2, 4347, Note_on_c, 0, 85, 0
2, 4376, Note_on_c, 0, 75, 0
2, 4379, Note_on_c, 0, 65, 0
2, 4382, Note_on_c, 0, 87, 0
2, 4382, Note_on_c, 0, 82, 0
2, 4403, Note_on_c, 0, 65, 71
2, 4407, Note_on_c, 0, 89, 80
2, 4410, Note_on_c, 0, 77, 68
2, 4411, Note_on_c, 0, 84, 67
2, 4423, Note_on_c, 0, 84, 0
2, 4426, Note_on_c, 0, 77, 0
2, 4429, Note_on_c, 0, 65, 0
2, 4431, Note_on_c, 0, 60, 0
2, 4432, Note_on_c, 0, 89, 0
2, 4439, Note_on_c, 0, 61, 0
2, 4440, Note_on_c, 0, 56, 0
2, 4451, Note_on_c, 0, 85, 72
2, 4451, Note_on_c, 0, 56, 32
2, 4454, Note_on_c, 0, 91, 80
2, 4456, Note_on_c, 0, 79, 64
2, 4458, Note_on_c, 0, 65, 57
2, 4459, Note_on_c, 0, 61, 60
2, 4462, Note_on_c, 0, 60, 66
2, 4477, Note_on_c, 0, 85, 0
2, 4491, Control_c, 0, 64, 127
2, 4496, Note_on_c, 0, 79, 0
2, 4500, Note_on_c, 0, 91, 0
2, 4509, Note_on_c, 0, 65, 0
2, 4511, Note_on_c, 0, 60, 0
2, 4527, Note_on_c, 0, 61, 0
2, 4528, Note_on_c, 0, 56, 0
2, 4536, Control_c, 0, 64, 0
2, 4641, Note_on_c, 0, 61, 62
2, 4644, Note_on_c, 0, 92, 64
2, 4645, Note_on_c, 0, 64, 60
2, 4645, Note_on_c, 0, 80, 59
2, 4648, Note_on_c, 0, 55, 55
2, 4650, Note_on_c, 0, 87, 58
2, 4660, Note_on_c, 0, 64, 0
2, 4666, Note_on_c, 0, 55, 0
2, 4666, Note_on_c, 0, 80, 0
2, 4672, Note_on_c, 0, 92, 0
2, 4673, Note_on_c, 0, 61, 0
2, 4673, Note_on_c, 0, 87, 0
2, 4678, Control_c, 0, 64, 127
2, 4736, Note_on_c, 0, 61, 56
2, 4740, Note_on_c, 0, 94, 71
2, 4742, Note_on_c, 0, 64, 28
2, 4745, Note_on_c, 0, 82, 52
2, 4755, Note_on_c, 0, 64, 0
2, 4766, Note_on_c, 0, 94, 0
2, 4769, Note_on_c, 0, 61, 0
2, 4770, Note_on_c, 0, 82, 0
2, 4814, Control_c, 0, 64, 0
2, 4817, Note_on_c, 0, 91, 63
2, 4818, Note_on_c, 0, 63, 57
2, 4818, Note_on_c, 0, 60, 64
2, 4820, Note_on_c, 0, 79, 55
2, 4822, Note_on_c, 0, 58, 38
2, 4825, Note_on_c, 0, 53, 49
2, 4882, Control_c, 0, 64, 127
2, 4901, Note_on_c, 0, 91, 0
2, 4927, Note_on_c, 0, 79, 0
2, 4928, Note_on_c, 0, 63, 0
2, 4934, Note_on_c, 0, 53, 0
2, 4953, Note_on_c, 0, 58, 0
2, 4957, Note_on_c, 0, 60, 0
2, 5008, Control_c, 0, 64, 0
2, 5009, Note_on_c, 0, 87, 51
2, 5012, Note_on_c, 0, 75, 37
2, 5016, Note_on_c, 0, 63, 42
2, 5021, Note_on_c, 0, 53, 39
2, 5021, Note_on_c, 0, 60, 48
2, 5028, Note_on_c, 0, 58, 35
2, 5065, Control_c, 0, 64, 127
2, 5128, Note_on_c, 0, 60, 0
2, 5130, Note_on_c, 0, 87, 0
2, 5132, Note_on_c, 0, 58, 0
2, 5142, Note_on_c, 0, 75, 0
2, 5158, Note_on_c, 0, 63, 0
2, 5196, Note_on_c, 0, 53, 0
2, 5272, Note_on_c, 0, 63, 36
2, 5281, Note_on_c, 0, 53, 36
2, 5283, Note_on_c, 0, 59, 48
2, 5284, Note_on_c, 0, 56, 34
2, 5306, Control_c, 0, 64, 0
2, 5427, Note_on_c, 0, 59, 0
2, 5484, Note_on_c, 0, 59, 40
2, 5499, Note_on_c, 0, 63, 0
2, 5525, Note_on_c, 0, 75, 95
2, 5596, Note_on_c, 0, 77, 71
2, 5607, Note_on_c, 0, 75, 0
2, 5619, Note_on_c, 0, 59, 0
2, 5638, Note_on_c, 0, 77, 0
2, 5649, Note_on_c, 0, 79, 78
2, 5651, Note_on_c, 0, 56, 0
2, 5679, Note_on_c, 0, 53, 0
2, 5715, Note_on_c, 0, 79, 0
2, 5721, Note_on_c, 0, 74, 68
2, 5728, Note_on_c, 0, 62, 54
2, 5728, Note_on_c, 0, 58, 47
2, 5741, Note_on_c, 0, 62, 0
2, 5752, Note_on_c, 0, 58, 0
2, 5762, Note_on_c, 0, 74, 0
2, 5796, Note_on_c, 0, 70, 33
2, 5854, Note_on_c, 0, 70, 0
2, 5893, Note_on_c, 0, 70, 38
2, 5934, Note_on_c, 0, 70, 0
2, 6014, Note_on_c, 0, 70, 34
2, 6067, Note_on_c, 0, 70, 0
2, 6098, Note_on_c, 0, 62, 29
2, 6113, Note_on_c, 0, 62, 0
2, 6254, Note_on_c, 0, 52, 35
2, 6255, Note_on_c, 0, 63, 27
2, 6258, Note_on_c, 0, 58, 32
2, 6302, Note_on_c, 0, 52, 0
2, 6315, Note_on_c, 0, 58, 0
2, 6321, Note_on_c, 0, 63, 0
2, 6429, Note_on_c, 0, 63, 57
2, 6437, Note_on_c, 0, 58, 37
2, 6442, Note_on_c, 0, 52, 28
2, 6449, Note_on_c, 0, 63, 0
2, 6456, Note_on_c, 0, 52, 0
2, 6476, Note_on_c, 0, 58, 0
2, 6486, Note_on_c, 0, 67, 68
2, 6521, Note_on_c, 0, 67, 0
2, 6555, Note_on_c, 0, 68, 75
2, 6587, Note_on_c, 0, 68, 0
2, 6609, Note_on_c, 0, 70, 88
2, 6655, Note_on_c, 0, 70, 0
2, 6674, Note_on_c, 0, 72, 78
2, 6706, Note_on_c, 0, 63, 38
2, 6712, Note_on_c, 0, 60, 39
2, 6720, Note_on_c, 0, 72, 0
2, 6726, Note_on_c, 0, 56, 27
2, 6732, Note_on_c, 0, 63, 0
2, 6738, Note_on_c, 0, 70, 54
2, 6752, Note_on_c, 0, 60, 0
2, 6805, Note_on_c, 0, 70, 0
2, 6821, Note_on_c, 0, 56, 0
2, 6844, Note_on_c, 0, 70, 50
2, 6907, Note_on_c, 0, 70, 0
2, 6922, Note_on_c, 0, 68, 37
2, 6948, Note_on_c, 0, 63, 18
2, 6948, Note_on_c, 0, 60, 36
2, 6955, Note_on_c, 0, 56, 28
2, 6956, Note_on_c, 0, 53, 14
2, 6967, Note_on_c, 0, 68, 0
2, 6979, Note_on_c, 0, 70, 57
2, 7014, Note_on_c, 0, 63, 0
2, 7038, Note_on_c, 0, 60, 0
2, 7043, Note_on_c, 0, 70, 0
2, 7056, Note_on_c, 0, 53, 0
2, 7057, Note_on_c, 0, 56, 0
2, 7062, Note_on_c, 0, 68, 35
2, 7068, Control_c, 0, 64, 127
2, 7109, Note_on_c, 0, 68, 0
2, 7149, Control_c, 0, 64, 0
2, 7154, Note_on_c, 0, 46, 31
2, 7154, Note_on_c, 0, 56, 29
2, 7157, Note_on_c, 0, 62, 48
2, 7157, Note_on_c, 0, 67, 49
2, 7275, Note_on_c, 0, 62, 0
2, 7287, Note_on_c, 0, 56, 0
2, 7291, Note_on_c, 0, 67, 0
2, 7320, Note_on_c, 0, 56, 34
2, 7323, Note_on_c, 0, 66, 46
2, 7326, Note_on_c, 0, 62, 40
2, 7336, Control_c, 0, 64, 127
2, 7378, Control_c, 0, 64, 0
2, 7384, Note_on_c, 0, 62, 0
2, 7397, Note_on_c, 0, 66, 0
2, 7413, Note_on_c, 0, 62, 28
2, 7418, Note_on_c, 0, 65, 44
2, 7423, Control_c, 0, 64, 127
2, 7455, Note_on_c, 0, 56, 0
2, 7455, Note_on_c, 0, 46, 0
2, 7524, Note_on_c, 0, 46, 36
2, 7525, Note_on_c, 0, 56, 31
2, 7529, Note_on_c, 0, 65, 0
2, 7557, Note_on_c, 0, 62, 0
2, 7560, Note_on_c, 0, 56, 0
2, 7693, Note_on_c, 0, 46, 0
2, 7702, Note_on_c, 0, 58, 70
2, 7703, Note_on_c, 0, 67, 79
2, 7706, Note_on_c, 0, 62, 73
2, 7716, Note_on_c, 0, 53, 44
2, 7721, Control_c, 0, 64, 0
2, 7805, Control_c, 0, 64, 127
2, 7897, Note_on_c, 0, 67, 0
2, 7897, Note_on_c, 0, 58, 0
2, 7904, Note_on_c, 0, 62, 0
2, 7920, Note_on_c, 0, 53, 0
2, 7933, Note_on_c, 0, 51, 36
2, 7939, Note_on_c, 0, 66, 51
2, 7942, Note_on_c, 0, 58, 36
2, 7945, Note_on_c, 0, 62, 57
2, 7980, Note_on_c, 0, 58, 0
2, 7995, Control_c, 0, 64, 0
2, 7998, Note_on_c, 0, 66, 0
2, 8019, Note_on_c, 0, 67, 56
2, 8026, Note_on_c, 0, 62, 0
2, 8026, Note_on_c, 0, 58, 31
2, 8027, Note_on_c, 0, 53, 43
2, 8029, Note_on_c, 0, 51, 0
2, 8052, Control_c, 0, 64, 127
2, 8065, Note_on_c, 0, 67, 0
2, 8070, Note_on_c, 0, 53, 0
2, 8076, Note_on_c, 0, 58, 0
2, 8094, Control_c, 0, 64, 0
2, 8127, Note_on_c, 0, 56, 55
2, 8127, Note_on_c, 0, 65, 58
2, 8131, Note_on_c, 0, 50, 47
2, 8136, Note_on_c, 0, 62, 49
2, 8137, Note_on_c, 0, 60, 46
2, 8181, Control_c, 0, 64, 127
2, 8258, Note_on_c, 0, 60, 0
2, 8259, Note_on_c, 0, 50, 0
2, 8262, Note_on_c, 0, 56, 0
2, 8267, Note_on_c, 0, 62, 0
2, 8275, Note_on_c, 0, 65, 0
2, 8364, Note_on_c, 0, 43, 60
2, 8371, Control_c, 0, 64, 0
2, 8379, Note_on_c, 0, 43, 0
2, 8406, Control_c, 0, 64, 127
2, 8478, Note_on_c, 0, 53, 48
2, 8479, Note_on_c, 0, 70, 86
2, 8486, Note_on_c, 0, 63, 62
2, 8488, Note_on_c, 0, 59, 61
2, 8490, Control_c, 0, 64, 0
2, 8493, Note_on_c, 0, 56, 36
2, 8523, Note_on_c, 0, 63, 0
2, 8529, Note_on_c, 0, 59, 0
2, 8530, Note_on_c, 0, 70, 0
2, 8544, Note_on_c, 0, 53, 0
2, 8562, Note_on_c, 0, 56, 0
2, 8581, Note_on_c, 0, 68, 79
2, 8589, Control_c, 0, 64, 127
2, 8624, Control_c, 0, 64, 0
2, 8636, Note_on_c, 0, 68, 0
2, 8646, Note_on_c, 0, 51, 49
2, 8653, Note_on_c, 0, 67, 70
2, 8655, Note_on_c, 0, 62, 29
2, 8664, Note_on_c, 0, 57, 40
2, 8740, Note_on_c, 0, 67, 0
2, 8773, Note_on_c, 0, 57, 0
2, 8778, Note_on_c, 0, 66, 38
2, 8797, Note_on_c, 0, 51, 0
2, 8829, Note_on_c, 0, 62, 0
2, 8833, Note_on_c, 0, 66, 0
2, 8848, Note_on_c, 0, 67, 62
2, 8931, Note_on_c, 0, 67, 0
2, 8966, Note_on_c, 0, 51, 35
2, 8967, Note_on_c, 0, 62, 50
2, 8968, Note_on_c, 0, 65, 44
2, 8982, Note_on_c, 0, 51, 0
2, 8993, Note_on_c, 0, 62, 0
2, 9018, Control_c, 0, 64, 127
2, 9119, Note_on_c, 0, 61, 47
2, 9129, Note_on_c, 0, 60, 38
2, 9133, Note_on_c, 0, 56, 25
2, 9144, Control_c, 0, 64, 0
2, 9217, Note_on_c, 0, 64, 68
2, 9224, Note_on_c, 0, 65, 0
2, 9240, Note_on_c, 0, 60, 0
2, 9249, Note_on_c, 0, 64, 0
2, 9300, Note_on_c, 0, 65, 83
2, 9318, Note_on_c, 0, 61, 0
2, 9319, Control_c, 0, 64, 127
2, 9341, Note_on_c, 0, 56, 0
2, 9364, Note_on_c, 0, 65, 0
2, 9380, Note_on_c, 0, 64, 71
2, 9389, Note_on_c, 0, 55, 55
2, 9396, Control_c, 0, 64, 0
2, 9471, Note_on_c, 0, 55, 0
2, 9484, Note_on_c, 0, 64, 0
2, 9492, Note_on_c, 0, 63, 50
2, 9506, Control_c, 0, 64, 127
2, 9542, Note_on_c, 0, 63, 0
2, 9573, Note_on_c, 0, 63, 58
2, 9593, Control_c, 0, 64, 0
2, 9603, Note_on_c, 0, 63, 0
2, 9633, Note_on_c, 0, 44, 33
2, 9648, Note_on_c, 0, 55, 24
2, 9755, Note_on_c, 0, 55, 0
2, 9801, Note_on_c, 0, 44, 0
2, 9804, Control_c, 0, 64, 127
2, 9827, Note_on_c, 0, 44, 35
2, 9828, Note_on_c, 0, 53, 46
2, 9884, Note_on_c, 0, 44, 0
2, 9895, Note_on_c, 0, 53, 0
2, 10088, Control_c, 0, 64, 0
2, 10089, Note_on_c, 0, 55, 33
2, 10151, Note_on_c, 0, 61, 44
2, 10168, Note_on_c, 0, 55, 0
2, 10183, Note_on_c, 0, 61, 0
2, 10209, Note_on_c, 0, 65, 60
2, 10248, Note_on_c, 0, 65, 0
2, 10271, Note_on_c, 0, 70, 77
2, 10302, Note_on_c, 0, 70, 0
2, 10308, Note_on_c, 0, 63, 46
2, 10313, Note_on_c, 0, 52, 43
2, 10313, Note_on_c, 0, 58, 35
2, 10325, Note_on_c, 0, 72, 67
2, 10343, Note_on_c, 0, 71, 19
2, 10355, Note_on_c, 0, 71, 0
2, 10363, Note_on_c, 0, 72, 0
2, 10371, Note_on_c, 0, 52, 0
2, 10375, Note_on_c, 0, 63, 0
2, 10388, Note_on_c, 0, 73, 71
2, 10396, Note_on_c, 0, 58, 0
2, 10428, Note_on_c, 0, 73, 0
2, 10442, Note_on_c, 0, 75, 69
2, 10483, Note_on_c, 0, 75, 0
2, 10504, Note_on_c, 0, 76, 72
2, 10539, Note_on_c, 0, 67, 34
2, 10547, Note_on_c, 0, 63, 26
2, 10548, Note_on_c, 0, 76, 0
2, 10548, Note_on_c, 0, 57, 33
2, 10572, Note_on_c, 0, 77, 51
2, 10615, Note_on_c, 0, 77, 0
2, 10628, Note_on_c, 0, 78, 56
2, 10640, Note_on_c, 0, 57, 0
2, 10641, Note_on_c, 0, 67, 0
2, 10660, Note_on_c, 0, 78, 0
2, 10672, Note_on_c, 0, 63, 0
2, 10682, Note_on_c, 0, 79, 56
2, 10717, Note_on_c, 0, 79, 0
2, 10742, Note_on_c, 0, 80, 59
2, 10781, Note_on_c, 0, 67, 42
2, 10789, Note_on_c, 0, 80, 0
2, 10792, Note_on_c, 0, 62, 25
2, 10796, Note_on_c, 0, 63, 31
2, 10800, Note_on_c, 0, 57, 36
2, 10800, Note_on_c, 0, 81, 50
2, 10840, Note_on_c, 0, 67, 0
2, 10855, Note_on_c, 0, 81, 0
2, 10885, Note_on_c, 0, 69, 43
2, 10910, Note_on_c, 0, 62, 0
2, 10930, Note_on_c, 0, 57, 0
2, 10937, Note_on_c, 0, 63, 0
2, 10941, Note_on_c, 0, 69, 0
2, 10976, Control_c, 0, 64, 127
2, 11000, Note_on_c, 0, 67, 53
2, 11002, Note_on_c, 0, 63, 35
2, 11002, Note_on_c, 0, 80, 47
2, 11007, Note_on_c, 0, 68, 33
2, 11012, Note_on_c, 0, 56, 29
2, 11015, Note_on_c, 0, 60, 36
2, 11054, Note_on_c, 0, 68, 0
2, 11062, Note_on_c, 0, 80, 0
2, 11068, Note_on_c, 0, 67, 0
2, 11071, Note_on_c, 0, 60, 0
2, 11076, Note_on_c, 0, 56, 0
2, 11085, Note_on_c, 0, 63, 0
2, 11119, Note_on_c, 0, 82, 71
2, 11120, Note_on_c, 0, 56, 55
2, 11121, Note_on_c, 0, 67, 64
2, 11121, Note_on_c, 0, 70, 67
2, 11123, Note_on_c, 0, 63, 42
2, 11125, Note_on_c, 0, 60, 60
2, 11166, Note_on_c, 0, 67, 0
2, 11168, Note_on_c, 0, 70, 0
2, 11174, Note_on_c, 0, 60, 0
2, 11175, Note_on_c, 0, 82, 0
2, 11176, Note_on_c, 0, 56, 0
2, 11186, Note_on_c, 0, 63, 0
2, 11230, Note_on_c, 0, 63, 61
2, 11232, Note_on_c, 0, 84, 80
2, 11234, Note_on_c, 0, 56, 51
2, 11235, Note_on_c, 0, 72, 74
2, 11235, Note_on_c, 0, 67, 53
2, 11239, Note_on_c, 0, 60, 54
2, 11248, Note_on_c, 0, 67, 0
2, 11263, Note_on_c, 0, 72, 0
2, 11265, Note_on_c, 0, 84, 0
2, 11271, Note_on_c, 0, 56, 0
2, 11282, Note_on_c, 0, 60, 0
2, 11284, Note_on_c, 0, 63, 0
2, 11302, Note_on_c, 0, 56, 44
2, 11306, Note_on_c, 0, 66, 68
2, 11307, Note_on_c, 0, 74, 72
2, 11307, Note_on_c, 0, 82, 55
2, 11308, Note_on_c, 0, 79, 60
2, 11309, Control_c, 0, 64, 0
2, 11310, Note_on_c, 0, 86, 79
2, 11310, Note_on_c, 0, 62, 66
2, 11313, Note_on_c, 0, 60, 38
2, 11330, Control_c, 0, 64, 127
2, 11345, Note_on_c, 0, 74, 0
2, 11347, Note_on_c, 0, 86, 0
2, 11356, Note_on_c, 0, 60, 0
2, 11361, Note_on_c, 0, 66, 0
2, 11365, Note_on_c, 0, 56, 0
2, 11371, Note_on_c, 0, 79, 0
2, 11374, Note_on_c, 0, 82, 0
2, 11386, Note_on_c, 0, 62, 0
2, 11400, Note_on_c, 0, 75, 69
2, 11401, Note_on_c, 0, 87, 72
2, 11401, Note_on_c, 0, 66, 64
2, 11404, Note_on_c, 0, 62, 24
2, 11406, Note_on_c, 0, 56, 45
2, 11429, Note_on_c, 0, 75, 0
2, 11435, Note_on_c, 0, 87, 0
2, 11437, Note_on_c, 0, 66, 0
2, 11445, Note_on_c, 0, 56, 0
2, 11462, Note_on_c, 0, 62, 0
2, 11484, Note_on_c, 0, 66, 59
2, 11485, Note_on_c, 0, 56, 52
2, 11491, Note_on_c, 0, 76, 70
2, 11491, Note_on_c, 0, 62, 22
2, 11496, Note_on_c, 0, 89, 58
2, 11497, Note_on_c, 0, 88, 36
2, 11503, Note_on_c, 0, 77, 31
2, 11505, Note_on_c, 0, 87, 34
2, 11508, Note_on_c, 0, 89, 0
2, 11513, Note_on_c, 0, 88, 0
2, 11515, Note_on_c, 0, 77, 0
2, 11528, Note_on_c, 0, 76, 0
2, 11529, Note_on_c, 0, 66, 0
2, 11538, Note_on_c, 0, 87, 0
2, 11544, Note_on_c, 0, 62, 0
2, 11547, Note_on_c, 0, 56, 0
2, 11568, Note_on_c, 0, 62, 24
2, 11570, Note_on_c, 0, 65, 57
2, 11575, Note_on_c, 0, 60, 47
2, 11578, Note_on_c, 0, 55, 48
2, 11590, Control_c, 0, 64, 0
2, 11677, Control_c, 0, 64, 127
2, 11700, Note_on_c, 0, 60, 0
2, 11704, Note_on_c, 0, 55, 0
2, 11704, Note_on_c, 0, 65, 0
2, 11715, Note_on_c, 0, 62, 0
2, 11724, Control_c, 0, 64, 0
2, 11763, Note_on_c, 0, 65, 48
2, 11764, Note_on_c, 0, 62, 44
2, 11765, Note_on_c, 0, 55, 44
2, 11767, Note_on_c, 0, 60, 47
2, 11773, Control_c, 0, 64, 127
2, 11866, Note_on_c, 0, 62, 0
2, 11869, Note_on_c, 0, 65, 0
2, 11880, Note_on_c, 0, 60, 0
2, 11899, Note_on_c, 0, 55, 0
2, 12071, Control_c, 0, 64, 0
2, 12072, Note_on_c, 0, 56, 74
2, 12073, Note_on_c, 0, 61, 70
2, 12074, Note_on_c, 0, 65, 82
2, 12075, Note_on_c, 0, 60, 77
2, 12076, Note_on_c, 0, 87, 82
2, 12076, Note_on_c, 0, 75, 91
2, 12079, Note_on_c, 0, 82, 77
2, 12128, Note_on_c, 0, 75, 0
2, 12129, Note_on_c, 0, 65, 0
2, 12134, Note_on_c, 0, 82, 0
2, 12135, Note_on_c, 0, 87, 0
2, 12135, Note_on_c, 0, 56, 0
2, 12141, Control_c, 0, 64, 127
2, 12142, Note_on_c, 0, 60, 0
2, 12150, Note_on_c, 0, 61, 0
2, 12168, Note_on_c, 0, 61, 58
2, 12168, Note_on_c, 0, 89, 80
2, 12168, Note_on_c, 0, 56, 56
2, 12169, Note_on_c, 0, 65, 69
2, 12171, Note_on_c, 0, 77, 79
2, 12175, Note_on_c, 0, 60, 44
2, 12191, Note_on_c, 0, 60, 0
2, 12202, Note_on_c, 0, 89, 0
2, 12209, Note_on_c, 0, 77, 0
2, 12215, Note_on_c, 0, 65, 0
2, 12238, Note_on_c, 0, 61, 0
2, 12243, Note_on_c, 0, 56, 0
2, 12265, Note_on_c, 0, 61, 52
2, 12266, Note_on_c, 0, 76, 76
2, 12266, Note_on_c, 0, 88, 77
2, 12268, Note_on_c, 0, 64, 65
2, 12270, Note_on_c, 0, 55, 71
2, 12275, Control_c, 0, 64, 0
2, 12324, Note_on_c, 0, 88, 0
2, 12343, Note_on_c, 0, 76, 0
2, 12348, Note_on_c, 0, 64, 0
2, 12353, Note_on_c, 0, 55, 0
2, 12355, Control_c, 0, 64, 127
2, 12362, Note_on_c, 0, 61, 0
2, 12379, Note_on_c, 0, 85, 48
2, 12384, Note_on_c, 0, 73, 38
2, 12385, Note_on_c, 0, 55, 53
2, 12389, Note_on_c, 0, 61, 39
2, 12394, Note_on_c, 0, 64, 32
2, 12411, Note_on_c, 0, 64, 0
2, 12418, Note_on_c, 0, 55, 0
2, 12441, Note_on_c, 0, 85, 0
2, 12444, Note_on_c, 0, 61, 0
2, 12448, Note_on_c, 0, 73, 0
2, 12489, Note_on_c, 0, 60, 56
2, 12490, Note_on_c, 0, 63, 51
2, 12494, Note_on_c, 0, 84, 55
2, 12497, Note_on_c, 0, 53, 38
2, 12498, Note_on_c, 0, 58, 29
2, 12499, Note_on_c, 0, 72, 42
2, 12499, Control_c, 0, 64, 0
2, 12563, Note_on_c, 0, 84, 0
2, 12576, Control_c, 0, 64, 127
2, 12589, Note_on_c, 0, 63, 0
2, 12594, Note_on_c, 0, 53, 0
2, 12607, Note_on_c, 0, 72, 0
2, 12616, Note_on_c, 0, 60, 0
2, 12618, Note_on_c, 0, 58, 0
2, 12660, Control_c, 0, 64, 0
2, 12677, Note_on_c, 0, 63, 43
2, 12677, Note_on_c, 0, 82, 38
2, 12680, Note_on_c, 0, 70, 59
2, 12683, Note_on_c, 0, 53, 35
2, 12689, Note_on_c, 0, 58, 33
2, 12690, Note_on_c, 0, 60, 35
2, 12691, Note_on_c, 0, 75, 35
2, 12703, Control_c, 0, 64, 127
2, 12756, Note_on_c, 0, 60, 0
2, 12764, Note_on_c, 0, 63, 0
2, 12770, Note_on_c, 0, 82, 0
2, 12772, Note_on_c, 0, 58, 0
2, 12787, Note_on_c, 0, 75, 0
2, 12789, Note_on_c, 0, 70, 0
2, 12794, Note_on_c, 0, 53, 0
2, 12852, Note_on_c, 0, 56, 35
2, 12854, Note_on_c, 0, 63, 38
2, 12854, Note_on_c, 0, 80, 48
2, 12857, Note_on_c, 0, 68, 46
2, 12859, Note_on_c, 0, 59, 46
2, 12861, Note_on_c, 0, 75, 44
2, 12864, Control_c, 0, 64, 0
2, 12945, Control_c, 0, 64, 127
2, 12985, Note_on_c, 0, 59, 0
2, 12985, Note_on_c, 0, 63, 0
2, 12987, Note_on_c, 0, 56, 0
2, 12996, Note_on_c, 0, 68, 0
2, 13024, Note_on_c, 0, 63, 45
2, 13034, Note_on_c, 0, 59, 35
2, 13035, Note_on_c, 0, 56, 29
2, 13036, Note_on_c, 0, 75, 0
2, 13055, Note_on_c, 0, 80, 0
2, 13103, Note_on_c, 0, 59, 0
2, 13110, Control_c, 0, 64, 0
2, 13153, Note_on_c, 0, 53, 1
2, 13154, Note_on_c, 0, 63, 0
2, 13155, Note_on_c, 0, 59, 31
2, 13196, Note_on_c, 0, 75, 74
2, 13221, Note_on_c, 0, 59, 0
2, 13242, Note_on_c, 0, 75, 0
2, 13265, Note_on_c, 0, 77, 39
2, 13283, Note_on_c, 0, 75, 49
2, 13300, Note_on_c, 0, 77, 0
2, 13311, Note_on_c, 0, 56, 0
2, 13336, Note_on_c, 0, 74, 39
2, 13354, Note_on_c, 0, 75, 0
2, 13385, Note_on_c, 0, 53, 0
2, 13403, Note_on_c, 0, 74, 0
2, 13405, Note_on_c, 0, 75, 74
2, 13433, Note_on_c, 0, 75, 0
2, 13449, Note_on_c, 0, 62, 52
2, 13458, Note_on_c, 0, 58, 36
2, 13462, Note_on_c, 0, 82, 81
2, 13463, Note_on_c, 0, 62, 0
2, 13486, Note_on_c, 0, 58, 0
2, 13527, Note_on_c, 0, 82, 0
2, 13568, Note_on_c, 0, 73, 33
2, 13638, Note_on_c, 0, 73, 0
2, 13653, Note_on_c, 0, 72, 37
2, 13662, Note_on_c, 0, 63, 31
2, 13667, Note_on_c, 0, 58, 30
2, 13668, Note_on_c, 0, 52, 33
2, 13776, Note_on_c, 0, 52, 0
2, 13787, Note_on_c, 0, 58, 0
2, 13807, Note_on_c, 0, 63, 0
2, 13881, Note_on_c, 0, 67, 60
2, 13884, Note_on_c, 0, 63, 46
2, 13887, Note_on_c, 0, 56, 32
2, 13894, Note_on_c, 0, 60, 48
2, 13948, Note_on_c, 0, 72, 0
2, 14021, Note_on_c, 0, 82, 90
2, 14027, Note_on_c, 0, 67, 0
2, 14069, Note_on_c, 0, 63, 0
2, 14070, Note_on_c, 0, 82, 0
2, 14071, Note_on_c, 0, 56, 0
2, 14084, Note_on_c, 0, 60, 0
2, 14113, Note_on_c, 0, 79, 80
2, 14162, Note_on_c, 0, 79, 0
2, 14186, Note_on_c, 0, 66, 39
2, 14188, Note_on_c, 0, 75, 68
2, 14189, Note_on_c, 0, 62, 39
2, 14190, Note_on_c, 0, 56, 35
2, 14248, Note_on_c, 0, 62, 0
2, 14288, Note_on_c, 0, 71, 51
2, 14291, Note_on_c, 0, 62, 13
2, 14294, Note_on_c, 0, 75, 0
2, 14311, Note_on_c, 0, 66, 0
2, 14338, Note_on_c, 0, 71, 0
2, 14342, Note_on_c, 0, 62, 0
2, 14348, Note_on_c, 0, 56, 0
2, 14372, Note_on_c, 0, 74, 77
2, 14373, Note_on_c, 0, 62, 28
2, 14375, Note_on_c, 0, 65, 54
2, 14387, Note_on_c, 0, 55, 32
2, 14387, Note_on_c, 0, 60, 32
2, 14408, Note_on_c, 0, 74, 0
2, 14484, Note_on_c, 0, 77, 95
2, 14532, Note_on_c, 0, 77, 0
2, 14547, Note_on_c, 0, 75, 70
2, 14552, Note_on_c, 0, 65, 0
2, 14560, Note_on_c, 0, 60, 0
2, 14564, Note_on_c, 0, 62, 0
2, 14646, Note_on_c, 0, 67, 60
2, 14655, Note_on_c, 0, 55, 0
2, 14763, Note_on_c, 0, 63, 35
2, 14773, Note_on_c, 0, 59, 34
2, 14788, Note_on_c, 0, 59, 0
2, 14798, Note_on_c, 0, 63, 0
2, 14861, Note_on_c, 0, 67, 0
2, 14880, Note_on_c, 0, 65, 41
2, 14881, Note_on_c, 0, 62, 41
2, 14884, Note_on_c, 0, 55, 41
2, 14888, Note_on_c, 0, 60, 49
2, 14988, Note_on_c, 0, 62, 0
2, 14991, Note_on_c, 0, 60, 0
2, 14991, Note_on_c, 0, 65, 0
2, 15006, Note_on_c, 0, 55, 0
2, 15012, Control_c, 0, 64, 127
2, 15071, Note_on_c, 0, 75, 0
2, 15082, Note_on_c, 0, 63, 59
2, 15085, Note_on_c, 0, 52, 50
2, 15086, Control_c, 0, 64, 0
2, 15087, Note_on_c, 0, 58, 53
2, 15124, Control_c, 0, 64, 127
2, 15208, Note_on_c, 0, 52, 0
2, 15226, Note_on_c, 0, 63, 0
2, 15231, Note_on_c, 0, 58, 0
2, 15315, Note_on_c, 0, 63, 70
2, 15316, Note_on_c, 0, 53, 60
2, 15316, Note_on_c, 0, 60, 72
2, 15323, Note_on_c, 0, 56, 45
2, 15335, Note_on_c, 0, 63, 0
2, 15360, Note_on_c, 0, 65, 101
2, 15373, Note_on_c, 0, 60, 0
2, 15373, Control_c, 0, 64, 0
2, 15407, Note_on_c, 0, 56, 0
2, 15429, Note_on_c, 0, 65, 0
2, 15483, Note_on_c, 0, 65, 79
2, 15493, Note_on_c, 0, 53, 0
2, 15528, Note_on_c, 0, 65, 0
2, 15549, Note_on_c, 0, 67, 74
2, 15587, Note_on_c, 0, 67, 0
2, 15613, Note_on_c, 0, 68, 69
2, 15664, Note_on_c, 0, 68, 0
2, 15680, Note_on_c, 0, 67, 65
2, 15717, Note_on_c, 0, 67, 0
2, 15741, Note_on_c, 0, 65, 34
2, 15800, Note_on_c, 0, 65, 0
2, 15855, Note_on_c, 0, 65, 24
2, 15855, Note_on_c, 0, 67, 61
2, 15859, Note_on_c, 0, 62, 34
2, 15861, Note_on_c, 0, 58, 30
2, 15868, Note_on_c, 0, 55, 14
2, 15876, Note_on_c, 0, 65, 0
2, 15898, Note_on_c, 0, 62, 0
2, 15912, Note_on_c, 0, 55, 0
2, 15914, Note_on_c, 0, 67, 0
2, 15918, Note_on_c, 0, 58, 0
2, 15973, Note_on_c, 0, 67, 65
2, 16016, Note_on_c, 0, 67, 0
2, 16043, Note_on_c, 0, 68, 77
2, 16046, Note_on_c, 0, 63, 59
2, 16048, Note_on_c, 0, 58, 56
2, 16051, Note_on_c, 0, 52, 48
2, 16065, Note_on_c, 0, 52, 0
2, 16071, Note_on_c, 0, 63, 0
2, 16085, Note_on_c, 0, 68, 0
2, 16100, Note_on_c, 0, 58, 0
2, 16107, Note_on_c, 0, 70, 82
2, 16163, Note_on_c, 0, 60, 22
2, 16171, Note_on_c, 0, 68, 69
2, 16178, Note_on_c, 0, 60, 0
2, 16188, Note_on_c, 0, 70, 0
2, 16223, Note_on_c, 0, 68, 0
2, 16240, Note_on_c, 0, 67, 47
2, 16293, Note_on_c, 0, 63, 47
2, 16295, Note_on_c, 0, 67, 0
2, 16297, Note_on_c, 0, 60, 53
2, 16303, Note_on_c, 0, 65, 80
2, 16307, Note_on_c, 0, 56, 31
2, 16308, Note_on_c, 0, 63, 0
2, 16312, Note_on_c, 0, 60, 0
2, 16362, Note_on_c, 0, 65, 0
2, 16369, Note_on_c, 0, 56, 0
2, 16416, Note_on_c, 0, 67, 84
2, 16447, Note_on_c, 0, 67, 0
2, 16473, Note_on_c, 0, 68, 72
2, 16524, Note_on_c, 0, 68, 0
2, 16538, Note_on_c, 0, 70, 79
2, 16575, Note_on_c, 0, 70, 0
2, 16579, Note_on_c, 0, 66, 34
2, 16584, Note_on_c, 0, 56, 31
2, 16587, Note_on_c, 0, 62, 30
2, 16596, Note_on_c, 0, 72, 58
2, 16612, Note_on_c, 0, 60, 17
2, 16636, Note_on_c, 0, 60, 0
2, 16639, Note_on_c, 0, 62, 0
2, 16660, Note_on_c, 0, 72, 0
2, 16677, Note_on_c, 0, 66, 0
2, 16684, Note_on_c, 0, 62, 11
2, 16687, Note_on_c, 0, 73, 48
2, 16734, Note_on_c, 0, 73, 0
2, 16736, Note_on_c, 0, 56, 0
2, 16742, Note_on_c, 0, 62, 0
2, 16763, Note_on_c, 0, 74, 75
2, 16793, Note_on_c, 0, 62, 27
2, 16793, Note_on_c, 0, 65, 35
2, 16796, Note_on_c, 0, 74, 0
2, 16800, Note_on_c, 0, 60, 35
2, 16806, Note_on_c, 0, 55, 31
2, 16815, Note_on_c, 0, 77, 78
2, 16866, Note_on_c, 0, 77, 0
2, 16891, Note_on_c, 0, 65, 0
2, 16891, Note_on_c, 0, 74, 52
2, 16912, Note_on_c, 0, 74, 0
2, 16920, Note_on_c, 0, 60, 0
2, 16933, Note_on_c, 0, 62, 0
2, 16934, Note_on_c, 0, 75, 67
2, 16950, Note_on_c, 0, 55, 0
2, 16997, Note_on_c, 0, 75, 0
2, 17000, Note_on_c, 0, 70, 58
2, 17016, Note_on_c, 0, 62, 28
2, 17026, Note_on_c, 0, 60, 24
2, 17033, Note_on_c, 0, 55, 17
2, 17045, Note_on_c, 0, 70, 0
2, 17059, Control_c, 0, 64, 127
2, 17092, Note_on_c, 0, 67, 16
2, 17105, Note_on_c, 0, 62, 0
2, 17107, Note_on_c, 0, 67, 0
2, 17123, Note_on_c, 0, 60, 0
2, 17141, Note_on_c, 0, 67, 62
2, 17167, Note_on_c, 0, 55, 0
2, 17175, Note_on_c, 0, 67, 0
2, 17227, Control_c, 0, 64, 0
2, 17227, Note_on_c, 0, 57, 54
2, 17232, Note_on_c, 0, 69, 76
2, 17234, Note_on_c, 0, 60, 55
2, 17236, Note_on_c, 0, 64, 49
2, 17295, Note_on_c, 0, 69, 0
2, 17347, Note_on_c, 0, 71, 80
2, 17380, Note_on_c, 0, 71, 0
2, 17401, Note_on_c, 0, 72, 89
2, 17409, Note_on_c, 0, 71, 55
2, 17418, Note_on_c, 0, 64, 0
2, 17420, Note_on_c, 0, 71, 0
2, 17432, Note_on_c, 0, 57, 0
2, 17460, Note_on_c, 0, 72, 0
2, 17469, Note_on_c, 0, 60, 0
2, 17479, Note_on_c, 0, 72, 81
2, 17495, Note_on_c, 0, 60, 24
2, 17501, Note_on_c, 0, 64, 44
2, 17501, Note_on_c, 0, 54, 44
2, 17562, Note_on_c, 0, 72, 0
2, 17586, Note_on_c, 0, 71, 60
2, 17595, Note_on_c, 0, 64, 0
2, 17604, Note_on_c, 0, 60, 0
2, 17636, Note_on_c, 0, 71, 0
2, 17648, Note_on_c, 0, 69, 33
2, 17663, Note_on_c, 0, 54, 0
2, 17672, Control_c, 0, 64, 127
2, 17703, Note_on_c, 0, 69, 0
2, 17736, Control_c, 0, 64, 0
2, 17746, Note_on_c, 0, 55, 22
2, 17761, Note_on_c, 0, 55, 0
2, 17813, Note_on_c, 0, 67, 69
2, 17841, Note_on_c, 0, 67, 0
2, 17924, Note_on_c, 0, 69, 101
2, 17956, Note_on_c, 0, 58, 36
2, 17962, Note_on_c, 0, 62, 20
2, 17970, Note_on_c, 0, 69, 0
2, 17973, Note_on_c, 0, 62, 0
2, 17973, Note_on_c, 0, 55, 19
2, 17986, Note_on_c, 0, 58, 0
2, 17997, Note_on_c, 0, 55, 0
2, 18003, Note_on_c, 0, 70, 83
2, 18054, Note_on_c, 0, 70, 0
2, 18078, Note_on_c, 0, 69, 76
2, 18081, Note_on_c, 0, 62, 40
2, 18081, Note_on_c, 0, 58, 37
2, 18099, Note_on_c, 0, 62, 0
2, 18111, Control_c, 0, 64, 127
2, 18114, Note_on_c, 0, 58, 0
2, 18116, Note_on_c, 0, 69, 0
2, 18130, Note_on_c, 0, 67, 58
2, 18154, Note_on_c, 0, 67, 0
2, 18247, Note_on_c, 0, 77, 66
2, 18248, Note_on_c, 0, 63, 33
2, 18248, Note_on_c, 0, 70, 63
2, 18249, Control_c, 0, 64, 0
2, 18253, Note_on_c, 0, 58, 34
2, 18254, Note_on_c, 0, 67, 58
2, 18256, Note_on_c, 0, 62, 49
2, 18336, Control_c, 0, 64, 127
2, 18340, Note_on_c, 0, 67, 0
2, 18352, Note_on_c, 0, 70, 0
2, 18361, Note_on_c, 0, 62, 0
2, 18363, Note_on_c, 0, 77, 0
2, 18423, Note_on_c, 0, 58, 0
2, 18434, Note_on_c, 0, 63, 0
2, 18484, Control_c, 0, 64, 0
2, 18489, Note_on_c, 0, 57, 55
2, 18491, Note_on_c, 0, 63, 42
2, 18492, Note_on_c, 0, 78, 37
2, 18493, Note_on_c, 0, 74, 53
2, 18493, Note_on_c, 0, 81, 58
2, 18495, Note_on_c, 0, 67, 42
2, 18496, Note_on_c, 0, 69, 42
2, 18547, Control_c, 0, 64, 127
2, 18586, Note_on_c, 0, 69, 0
2, 18592, Note_on_c, 0, 74, 0
2, 18595, Note_on_c, 0, 81, 0
2, 18599, Note_on_c, 0, 67, 0
2, 18605, Note_on_c, 0, 57, 0
2, 18611, Note_on_c, 0, 78, 0
2, 18655, Note_on_c, 0, 63, 0
2, 18715, Control_c, 0, 64, 0
2, 18716, Note_on_c, 0, 63, 39
2, 18718, Note_on_c, 0, 67, 51
2, 18719, Control_c, 0, 64, 127
2, 18720, Note_on_c, 0, 82, 60
2, 18721, Note_on_c, 0, 75, 55
2, 18722, Note_on_c, 0, 56, 34
2, 18726, Note_on_c, 0, 60, 49
2, 18727, Note_on_c, 0, 70, 35
2, 18783, Note_on_c, 0, 75, 0
2, 18784, Note_on_c, 0, 70, 0
2, 18794, Note_on_c, 0, 82, 0
2, 18817, Note_on_c, 0, 67, 0
2, 18843, Note_on_c, 0, 56, 0
2, 18846, Note_on_c, 0, 60, 0
2, 18852, Note_on_c, 0, 63, 0
2, 18909, Control_c, 0, 64, 0
2, 18909, Note_on_c, 0, 66, 62
2, 18911, Note_on_c, 0, 86, 74
2, 18912, Note_on_c, 0, 79, 58
2, 18912, Note_on_c, 0, 74, 62
2, 18913, Note_on_c, 0, 56, 37
2, 18916, Note_on_c, 0, 62, 47
2, 18925, Note_on_c, 0, 60, 30
2, 18937, Control_c, 0, 64, 127
2, 18938, Note_on_c, 0, 74, 0
2, 18940, Note_on_c, 0, 60, 0
2, 18942, Note_on_c, 0, 79, 0
2, 18943, Note_on_c, 0, 66, 0
2, 18950, Note_on_c, 0, 62, 0
2, 18955, Note_on_c, 0, 86, 0
2, 18961, Note_on_c, 0, 56, 0
2, 19017, Control_c, 0, 64, 0
2, 19023, Note_on_c, 0, 89, 75
2, 19023, Note_on_c, 0, 66, 61
2, 19024, Note_on_c, 0, 56, 55
2, 19024, Note_on_c, 0, 77, 70
2, 19029, Note_on_c, 0, 62, 54
2, 19039, Control_c, 0, 64, 127
2, 19061, Note_on_c, 0, 77, 0
2, 19063, Note_on_c, 0, 89, 0
2, 19065, Note_on_c, 0, 66, 0
2, 19071, Note_on_c, 0, 56, 0
2, 19085, Note_on_c, 0, 62, 0
2, 19120, Note_on_c, 0, 66, 64
2, 19121, Note_on_c, 0, 56, 58
2, 19123, Note_on_c, 0, 90, 68
2, 19124, Note_on_c, 0, 78, 71
2, 19126, Note_on_c, 0, 62, 49
2, 19127, Note_on_c, 0, 85, 65
2, 19161, Note_on_c, 0, 66, 0
2, 19165, Note_on_c, 0, 78, 0
2, 19166, Note_on_c, 0, 85, 0
2, 19172, Note_on_c, 0, 90, 0
2, 19173, Note_on_c, 0, 56, 0
2, 19175, Note_on_c, 0, 62, 0
2, 19203, Note_on_c, 0, 62, 43
2, 19208, Note_on_c, 0, 91, 68
2, 19209, Note_on_c, 0, 65, 58
2, 19212, Note_on_c, 0, 86, 66
2, 19213, Note_on_c, 0, 79, 51
2, 19214, Note_on_c, 0, 55, 59
2, 19215, Control_c, 0, 64, 0
2, 19218, Note_on_c, 0, 60, 34
2, 19295, Control_c, 0, 64, 127
2, 19336, Note_on_c, 0, 60, 0
2, 19358, Note_on_c, 0, 65, 0
2, 19362, Note_on_c, 0, 62, 0
2, 19362, Note_on_c, 0, 55, 0
2, 19379, Note_on_c, 0, 91, 0
2, 19382, Note_on_c, 0, 86, 0
2, 19385, Note_on_c, 0, 79, 0
2, 19524, Note_on_c, 0, 91, 80
2, 19525, Note_on_c, 0, 62, 71
2, 19527, Note_on_c, 0, 85, 83
2, 19527, Note_on_c, 0, 65, 71
2, 19528, Note_on_c, 0, 79, 80
2, 19531, Note_on_c, 0, 60, 51
2, 19531, Note_on_c, 0, 55, 62
2, 19534, Control_c, 0, 64, 0
2, 19569, Note_on_c, 0, 65, 0
2, 19570, Note_on_c, 0, 85, 0
2, 19573, Note_on_c, 0, 86, 67
2, 19578, Note_on_c, 0, 79, 0
2, 19581, Note_on_c, 0, 55, 0
2, 19582, Control_c, 0, 64, 127
2, 19586, Note_on_c, 0, 86, 0
2, 19588, Note_on_c, 0, 91, 0
2, 19596, Note_on_c, 0, 62, 0
2, 19597, Note_on_c, 0, 60, 0
2, 19629, Note_on_c, 0, 91, 70
2, 19631, Note_on_c, 0, 79, 74
2, 19635, Note_on_c, 0, 86, 82
2, 19673, Note_on_c, 0, 91, 0
2, 19674, Note_on_c, 0, 79, 0
2, 19676, Note_on_c, 0, 86, 0
2, 19711, Note_on_c, 0, 50, 55
2, 19715, Note_on_c, 0, 60, 66
2, 19716, Note_on_c, 0, 56, 57
2, 19717, Note_on_c, 0, 89, 80
2, 19720, Control_c, 0, 64, 0
2, 19721, Note_on_c, 0, 77, 76
2, 19722, Note_on_c, 0, 84, 81
2, 19786, Control_c, 0, 64, 127
2, 19807, Note_on_c, 0, 89, 0
2, 19810, Note_on_c, 0, 50, 0
2, 19813, Note_on_c, 0, 56, 0
2, 19821, Note_on_c, 0, 60, 0
2, 19822, Note_on_c, 0, 77, 0
2, 19824, Note_on_c, 0, 84, 0
2, 19896, Note_on_c, 0, 87, 71
2, 19897, Note_on_c, 0, 75, 74
2, 19907, Note_on_c, 0, 82, 42
2, 19919, Note_on_c, 0, 82, 0
2, 19933, Note_on_c, 0, 75, 0
2, 19933, Note_on_c, 0, 87, 0
2, 19966, Control_c, 0, 64, 0
2, 19966, Note_on_c, 0, 53, 43
2, 19968, Note_on_c, 0, 63, 38
2, 19968, Note_on_c, 0, 59, 47
2, 19973, Note_on_c, 0, 86, 66
2, 19973, Note_on_c, 0, 56, 34
2, 19976, Note_on_c, 0, 74, 50
2, 20046, Control_c, 0, 64, 127
2, 20050, Note_on_c, 0, 53, 0
2, 20055, Note_on_c, 0, 59, 0
2, 20062, Note_on_c, 0, 56, 0
2, 20065, Note_on_c, 0, 63, 0
2, 20127, Note_on_c, 0, 74, 0
2, 20138, Note_on_c, 0, 86, 0
2, 20148, Note_on_c, 0, 84, 60
2, 20192, Note_on_c, 0, 84, 0
2, 20204, Note_on_c, 0, 67, 41
2, 20206, Note_on_c, 0, 63, 29
2, 20207, Note_on_c, 0, 62, 43
2, 20211, Control_c, 0, 64, 0
2, 20213, Note_on_c, 0, 79, 51
2, 20214, Note_on_c, 0, 58, 30
2, 20292, Control_c, 0, 64, 127
2, 20311, Note_on_c, 0, 62, 0
2, 20321, Note_on_c, 0, 63, 0
2, 20322, Note_on_c, 0, 67, 0
2, 20341, Note_on_c, 0, 58, 0
2, 20432, Note_on_c, 0, 67, 49
2, 20435, Note_on_c, 0, 63, 44
2, 20436, Control_c, 0, 64, 0
2, 20436, Note_on_c, 0, 57, 44
2, 20520, Control_c, 0, 64, 127
2, 20542, Note_on_c, 0, 67, 0
2, 20545, Note_on_c, 0, 57, 0
2, 20554, Note_on_c, 0, 63, 0
2, 20621, Note_on_c, 0, 65, 53
2, 20624, Note_on_c, 0, 56, 33
2, 20626, Note_on_c, 0, 60, 45
2, 20629, Note_on_c, 0, 61, 35
2, 20654, Control_c, 0, 64, 0
2, 20710, Note_on_c, 0, 79, 0
2, 20739, Note_on_c, 0, 77, 89
2, 20805, Note_on_c, 0, 77, 0
2, 20814, Note_on_c, 0, 60, 0
2, 20840, Note_on_c, 0, 74, 88
2, 20842, Note_on_c, 0, 65, 0
2, 20871, Note_on_c, 0, 74, 0
2, 20876, Note_on_c, 0, 56, 0
2, 20878, Note_on_c, 0, 61, 0
2, 20902, Note_on_c, 0, 61, 26
2, 20904, Note_on_c, 0, 64, 41
2, 20904, Note_on_c, 0, 75, 83
2, 20907, Note_on_c, 0, 55, 48
2, 20951, Note_on_c, 0, 75, 0
2, 20967, Note_on_c, 0, 76, 75
2, 21009, Note_on_c, 0, 64, 0
2, 21011, Note_on_c, 0, 55, 0
2, 21015, Note_on_c, 0, 76, 0
2, 21032, Note_on_c, 0, 73, 44
2, 21044, Note_on_c, 0, 61, 0
2, 21084, Note_on_c, 0, 73, 0
2, 21091, Note_on_c, 0, 72, 62
2, 21118, Note_on_c, 0, 63, 39
2, 21126, Note_on_c, 0, 72, 0
2, 21131, Note_on_c, 0, 60, 24
2, 21142, Note_on_c, 0, 70, 29
2, 21143, Note_on_c, 0, 53, 13
2, 21146, Note_on_c, 0, 58, 23
2, 21189, Note_on_c, 0, 63, 0
2, 21205, Note_on_c, 0, 70, 0
2, 21248, Note_on_c, 0, 70, 60
2, 21267, Note_on_c, 0, 53, 0
2, 21269, Note_on_c, 0, 58, 0
2, 21286, Note_on_c, 0, 60, 0
2, 21298, Note_on_c, 0, 70, 0
2, 21324, Note_on_c, 0, 63, 29
2, 21337, Note_on_c, 0, 60, 17
2, 21339, Note_on_c, 0, 63, 0
2, 21369, Note_on_c, 0, 70, 62
2, 21373, Note_on_c, 0, 60, 0
2, 21420, Note_on_c, 0, 70, 0
2, 21440, Note_on_c, 0, 67, 50
2, 21476, Note_on_c, 0, 67, 0
2, 21492, Note_on_c, 0, 65, 40
2, 21559, Note_on_c, 0, 62, 29
2, 21564, Note_on_c, 0, 65, 0
2, 21564, Note_on_c, 0, 58, 30
2, 21576, Note_on_c, 0, 62, 0
2, 21580, Note_on_c, 0, 70, 74
2, 21592, Note_on_c, 0, 58, 0
2, 21640, Note_on_c, 0, 70, 0
2, 21700, Note_on_c, 0, 61, 53
2, 21737, Note_on_c, 0, 61, 0
2, 21783, Note_on_c, 0, 48, 45
2, 21791, Note_on_c, 0, 60, 33
2, 21820, Note_on_c, 0, 48, 0
2, 21833, Note_on_c, 0, 60, 0
2, 21850, Note_on_c, 0, 67, 67
2, 21899, Note_on_c, 0, 67, 0
2, 21940, Note_on_c, 0, 58, 43
2, 21996, Note_on_c, 0, 58, 0
2, 22038, Note_on_c, 0, 41, 55
2, 22040, Note_on_c, 0, 51, 35
2, 22046, Note_on_c, 0, 57, 37
2, 22056, Note_on_c, 0, 41, 0
2, 22057, Note_on_c, 0, 51, 0
2, 22077, Note_on_c, 0, 57, 0
2, 22176, Note_on_c, 0, 57, 64
2, 22176, Note_on_c, 0, 69, 71
2, 22178, Note_on_c, 0, 62, 68
2, 22183, Note_on_c, 0, 66, 28
2, 22303, Note_on_c, 0, 53, 25
2, 22324, Note_on_c, 0, 53, 0
2, 22386, Note_on_c, 0, 57, 0
2, 22392, Note_on_c, 0, 53, 24
2, 22395, Note_on_c, 0, 66, 0
2, 22410, Note_on_c, 0, 62, 0
2, 22414, Note_on_c, 0, 53, 0
2, 22425, Note_on_c, 0, 69, 0
2, 22443, Note_on_c, 0, 57, 45
2, 22454, Note_on_c, 0, 66, 19
2, 22479, Note_on_c, 0, 57, 0
2, 22509, Note_on_c, 0, 66, 0
2, 22535, Note_on_c, 0, 68, 36
2, 22537, Note_on_c, 0, 60, 50
2, 22537, Note_on_c, 0, 56, 40
2, 22540, Note_on_c, 0, 65, 43
2, 22542, Note_on_c, 0, 63, 36
2, 22559, Note_on_c, 0, 60, 0
2, 22564, Note_on_c, 0, 56, 0
2, 22568, Note_on_c, 0, 63, 0
2, 22572, Note_on_c, 0, 65, 0
2, 22581, Note_on_c, 0, 68, 0
2, 22648, Note_on_c, 0, 70, 72
2, 22650, Note_on_c, 0, 63, 64
2, 22654, Note_on_c, 0, 60, 68
2, 22654, Note_on_c, 0, 58, 56
2, 22657, Note_on_c, 0, 65, 46
2, 22671, Note_on_c, 0, 65, 0
2, 22675, Note_on_c, 0, 60, 0
2, 22675, Note_on_c, 0, 58, 0
2, 22680, Note_on_c, 0, 63, 0
2, 22684, Note_on_c, 0, 70, 0
2, 22763, Note_on_c, 0, 46, 51
2, 22794, Note_on_c, 0, 46, 0
2, 22818, Note_on_c, 0, 56, 75
2, 22818, Note_on_c, 0, 67, 65
2, 22820, Note_on_c, 0, 59, 71
2, 22821, Note_on_c, 0, 62, 69
2, 22823, Note_on_c, 0, 64, 64
2, 22918, Note_on_c, 0, 59, 0
2, 22929, Note_on_c, 0, 62, 0
2, 22932, Note_on_c, 0, 64, 0
2, 22937, Note_on_c, 0, 46, 52
2, 22943, Note_on_c, 0, 67, 0
2, 22953, Note_on_c, 0, 56, 0
2, 22967, Control_c, 0, 64, 127
2, 23001, Note_on_c, 0, 46, 0
2, 23001, Control_c, 0, 64, 0
2, 23009, Note_on_c, 0, 70, 84
2, 23011, Note_on_c, 0, 65, 82
2, 23012, Note_on_c, 0, 60, 87
2, 23012, Note_on_c, 0, 55, 90
2, 23174, Control_c, 0, 64, 127
2, 23344, Note_on_c, 0, 60, 0
2, 23352, Note_on_c, 0, 55, 0
2, 23354, Note_on_c, 0, 65, 0
2, 23391, Note_on_c, 0, 70, 0
2, 23521, Control_c, 0, 64, 0
2, 23523, Note_on_c, 0, 61, 74
2, 23523, Note_on_c, 0, 56, 75
2, 23524, Note_on_c, 0, 65, 88
2, 23525, Note_on_c, 0, 87, 86
2, 23525, Note_on_c, 0, 60, 79
2, 23526, Note_on_c, 0, 75, 90
2, 23527, Note_on_c, 0, 82, 78
2, 23564, Control_c, 0, 64, 127
2, 23581, Note_on_c, 0, 65, 0
2, 23584, Note_on_c, 0, 87, 0
2, 23585, Note_on_c, 0, 75, 0
2, 23588, Note_on_c, 0, 60, 0
2, 23588, Note_on_c, 0, 56, 0
2, 23590, Note_on_c, 0, 82, 0
2, 23605, Note_on_c, 0, 56, 36
2, 23607, Note_on_c, 0, 65, 66
2, 23610, Note_on_c, 0, 89, 79
2, 23613, Note_on_c, 0, 77, 69
2, 23614, Note_on_c, 0, 60, 51
2, 23627, Note_on_c, 0, 60, 0
2, 23627, Note_on_c, 0, 77, 0
2, 23634, Note_on_c, 0, 89, 0
2, 23638, Note_on_c, 0, 65, 0
2, 23638, Control_c, 0, 64, 0
2, 23652, Control_c, 0, 64, 127
2, 23655, Note_on_c, 0, 65, 49
2, 23657, Note_on_c, 0, 75, 62
2, 23658, Note_on_c, 0, 87, 40
2, 23666, Note_on_c, 0, 60, 26
2, 23699, Note_on_c, 0, 60, 0
2, 23720, Note_on_c, 0, 65, 0
2, 23727, Note_on_c, 0, 75, 0
2, 23733, Note_on_c, 0, 87, 0
2, 23741, Note_on_c, 0, 61, 0
2, 23750, Note_on_c, 0, 56, 0
2, 23767, Note_on_c, 0, 64, 55
2, 23768, Control_c, 0, 64, 0
2, 23769, Note_on_c, 0, 61, 48
2, 23770, Note_on_c, 0, 55, 57
2, 23771, Note_on_c, 0, 88, 35
2, 23776, Note_on_c, 0, 76, 40
2, 23782, Note_on_c, 0, 81, 36
2, 23852, Control_c, 0, 64, 127
2, 23881, Note_on_c, 0, 81, 0
2, 23886, Note_on_c, 0, 88, 0
2, 23894, Note_on_c, 0, 55, 0
2, 23894, Note_on_c, 0, 64, 0
2, 23909, Note_on_c, 0, 76, 0
2, 23915, Note_on_c, 0, 61, 0
2, 24010, Note_on_c, 0, 63, 42
2, 24011, Note_on_c, 0, 60, 50
2, 24014, Control_c, 0, 64, 0
2, 24014, Note_on_c, 0, 79, 39
2, 24016, Note_on_c, 0, 84, 51
2, 24018, Note_on_c, 0, 58, 36
2, 24021, Note_on_c, 0, 53, 31
2, 24024, Note_on_c, 0, 72, 27
2, 24077, Note_on_c, 0, 84, 0
2, 24080, Control_c, 0, 64, 127
2, 24086, Note_on_c, 0, 79, 0
2, 24098, Note_on_c, 0, 63, 0
2, 24101, Note_on_c, 0, 53, 0
2, 24110, Note_on_c, 0, 72, 0
2, 24129, Note_on_c, 0, 60, 0
2, 24136, Note_on_c, 0, 58, 0
2, 24206, Note_on_c, 0, 77, 45
2, 24206, Note_on_c, 0, 65, 45
2, 24208, Note_on_c, 0, 72, 34
2, 24210, Note_on_c, 0, 63, 40
2, 24213, Control_c, 0, 64, 0
2, 24215, Note_on_c, 0, 53, 33
2, 24215, Note_on_c, 0, 60, 41
2, 24218, Note_on_c, 0, 58, 34
2, 24270, Control_c, 0, 64, 127
2, 24322, Note_on_c, 0, 65, 0
2, 24324, Note_on_c, 0, 60, 0
2, 24326, Note_on_c, 0, 72, 0
2, 24330, Note_on_c, 0, 58, 0
2, 24339, Note_on_c, 0, 63, 0
2, 24345, Note_on_c, 0, 53, 0
2, 24376, Note_on_c, 0, 77, 0
2, 24473, Note_on_c, 0, 63, 48
2, 24481, Note_on_c, 0, 59, 48
2, 24484, Note_on_c, 0, 56, 36
2, 24484, Note_on_c, 0, 53, 28
2, 24508, Control_c, 0, 64, 0
2, 24613, Note_on_c, 0, 94, 87
2, 24625, Note_on_c, 0, 63, 0
2, 24666, Note_on_c, 0, 59, 0
2, 24670, Note_on_c, 0, 94, 0
2, 24679, Note_on_c, 0, 63, 33
2, 24683, Note_on_c, 0, 59, 19
2, 24693, Note_on_c, 0, 63, 0
2, 24694, Note_on_c, 0, 92, 53
2, 24713, Note_on_c, 0, 92, 0
2, 24743, Note_on_c, 0, 94, 74
2, 24751, Note_on_c, 0, 59, 0
2, 24769, Note_on_c, 0, 56, 0
2, 24807, Note_on_c, 0, 63, 37
2, 24808, Note_on_c, 0, 92, 68
2, 24814, Note_on_c, 0, 59, 24
2, 24819, Note_on_c, 0, 56, 15
2, 24826, Note_on_c, 0, 94, 0
2, 24832, Note_on_c, 0, 63, 0
2, 24842, Note_on_c, 0, 59, 0
2, 24866, Note_on_c, 0, 87, 42
2, 24869, Note_on_c, 0, 92, 0
2, 24896, Note_on_c, 0, 56, 0
2, 24935, Note_on_c, 0, 87, 0
2, 24935, Note_on_c, 0, 83, 24
2, 24950, Note_on_c, 0, 58, 39
2, 24952, Note_on_c, 0, 62, 29
2, 24963, Note_on_c, 0, 83, 0
2, 25007, Note_on_c, 0, 91, 13
2, 25023, Note_on_c, 0, 55, 14
2, 25029, Note_on_c, 0, 91, 0
2, 25090, Note_on_c, 0, 55, 0
2, 25091, Note_on_c, 0, 58, 0
2, 25094, Note_on_c, 0, 62, 0
2, 25099, Note_on_c, 0, 53, 0
2, 25161, Note_on_c, 0, 62, 57
2, 25173, Note_on_c, 0, 62, 0
2, 25193, Note_on_c, 0, 96, 68
2, 25202, Note_on_c, 0, 84, 32
2, 25215, Note_on_c, 0, 84, 0
2, 25220, Note_on_c, 0, 96, 0
2, 25286, Note_on_c, 0, 96, 64
2, 25291, Note_on_c, 0, 62, 33
2, 25291, Note_on_c, 0, 52, 40
2, 25291, Note_on_c, 0, 58, 31
2, 25292, Note_on_c, 0, 84, 44
2, 25304, Note_on_c, 0, 52, 0
2, 25305, Note_on_c, 0, 84, 0
2, 25310, Note_on_c, 0, 62, 0
2, 25311, Note_on_c, 0, 96, 0
2, 25323, Note_on_c, 0, 58, 0
2, 25396, Note_on_c, 0, 96, 48
2, 25406, Note_on_c, 0, 84, 35
2, 25418, Note_on_c, 0, 84, 0
2, 25422, Note_on_c, 0, 96, 0
2, 25468, Note_on_c, 0, 63, 48
2, 25469, Note_on_c, 0, 56, 51
2, 25470, Note_on_c, 0, 67, 55
2, 25474, Note_on_c, 0, 60, 64
2, 25487, Note_on_c, 0, 99, 79
2, 25489, Note_on_c, 0, 87, 69
2, 25547, Note_on_c, 0, 99, 0
2, 25550, Note_on_c, 0, 87, 0
2, 25554, Note_on_c, 0, 67, 0
2, 25558, Note_on_c, 0, 60, 0
2, 25565, Note_on_c, 0, 63, 0
2, 25584, Note_on_c, 0, 63, 37
2, 25585, Note_on_c, 0, 99, 65
2, 25585, Note_on_c, 0, 67, 56
2, 25587, Note_on_c, 0, 87, 61
2, 25592, Note_on_c, 0, 60, 45
2, 25610, Note_on_c, 0, 67, 0
2, 25617, Note_on_c, 0, 99, 0
2, 25618, Note_on_c, 0, 87, 0
2, 25633, Note_on_c, 0, 56, 0
2, 25641, Note_on_c, 0, 60, 0
2, 25652, Note_on_c, 0, 63, 0
2, 25672, Note_on_c, 0, 66, 62
2, 25673, Note_on_c, 0, 96, 70
2, 25673, Note_on_c, 0, 84, 68
2, 25676, Note_on_c, 0, 56, 42
2, 25678, Note_on_c, 0, 62, 56
2, 25680, Note_on_c, 0, 60, 47
2, 25733, Control_c, 0, 64, 127
2, 25759, Note_on_c, 0, 96, 0
2, 25762, Note_on_c, 0, 66, 0
2, 25762, Note_on_c, 0, 60, 0
2, 25773, Note_on_c, 0, 56, 0
2, 25778, Note_on_c, 0, 84, 0
2, 25779, Note_on_c, 0, 62, 0
2, 25809, Note_on_c, 0, 66, 52
2, 25813, Note_on_c, 0, 56, 36
2, 25841, Note_on_c, 0, 66, 0
2, 25866, Note_on_c, 0, 56, 0
2, 25898, Note_on_c, 0, 79, 65
2, 25900, Note_on_c, 0, 91, 50
2, 25902, Note_on_c, 0, 65, 65
2, 25902, Note_on_c, 0, 62, 57
2, 25908, Note_on_c, 0, 60, 58
2, 25917, Note_on_c, 0, 55, 43
2, 25926, Control_c, 0, 64, 0
2, 26011, Control_c, 0, 64, 127
2, 26046, Note_on_c, 0, 91, 0
2, 26068, Note_on_c, 0, 79, 0
2, 26097, Note_on_c, 0, 65, 0
2, 26108, Note_on_c, 0, 62, 0
2, 26115, Note_on_c, 0, 60, 0
2, 26146, Note_on_c, 0, 55, 0
2, 26241, Note_on_c, 0, 70, 62
2, 26247, Note_on_c, 0, 65, 71
2, 26247, Note_on_c, 0, 55, 47
2, 26249, Note_on_c, 0, 60, 51
2, 26261, Note_on_c, 0, 60, 0
2, 26269, Note_on_c, 0, 55, 0
2, 26271, Control_c, 0, 64, 0
2, 26273, Note_on_c, 0, 65, 0
2, 26276, Note_on_c, 0, 70, 0
2, 26416, Note_on_c, 0, 62, 54
2, 26417, Note_on_c, 0, 56, 37
2, 26418, Note_on_c, 0, 67, 54
2, 26422, Note_on_c, 0, 65, 56
2, 26488, Control_c, 0, 64, 127
2, 26633, Note_on_c, 0, 65, 0
2, 26637, Note_on_c, 0, 67, 0
2, 26641, Note_on_c, 0, 62, 0
2, 26648, Note_on_c, 0, 46, 40
2, 26660, Control_c, 0, 64, 0
2, 26768, Note_on_c, 0, 56, 0
2, 26772, Note_on_c, 0, 46, 0
2, 26775, Note_on_c, 0, 62, 30
2, 26777, Note_on_c, 0, 55, 32
2, 26777, Note_on_c, 0, 65, 27
2, 26778, Note_on_c, 0, 60, 36
2, 27142, Note_on_c, 0, 65, 0
2, 27146, Note_on_c, 0, 79, 95
2, 27149, Note_on_c, 0, 55, 0
2, 27153, Note_on_c, 0, 60, 0
2, 27154, Note_on_c, 0, 62, 0
2, 27485, Note_on_c, 0, 53, 51
2, 27487, Note_on_c, 0, 63, 39
2, 27489, Note_on_c, 0, 59, 49
2, 27497, Note_on_c, 0, 63, 0
2, 27498, Note_on_c, 0, 53, 0
2, 27501, Note_on_c, 0, 59, 0
2, 27521, Note_on_c, 0, 79, 0
2, 27609, Note_on_c, 0, 77, 103
2, 27687, Note_on_c, 0, 74, 66
2, 27689, Note_on_c, 0, 77, 0
2, 27729, Note_on_c, 0, 74, 0
2, 27739, Note_on_c, 0, 75, 63
2, 27790, Note_on_c, 0, 75, 0
2, 27805, Note_on_c, 0, 77, 75
2, 27825, Note_on_c, 0, 63, 33
2, 27827, Note_on_c, 0, 67, 40
2, 27839, Note_on_c, 0, 67, 0
2, 27850, Note_on_c, 0, 77, 0
2, 27853, Note_on_c, 0, 63, 0
2, 27861, Note_on_c, 0, 75, 48
2, 27928, Note_on_c, 0, 75, 0
2, 27933, Note_on_c, 0, 67, 57
2, 27965, Note_on_c, 0, 67, 0
2, 28057, Note_on_c, 0, 67, 45
2, 28057, Note_on_c, 0, 63, 46
2, 28068, Note_on_c, 0, 67, 0
2, 28082, Note_on_c, 0, 63, 0
2, 28089, Note_on_c, 0, 74, 92
2, 28176, Note_on_c, 0, 74, 0
2, 28205, Note_on_c, 0, 73, 59
2, 28210, Note_on_c, 0, 75, 39
2, 28222, Note_on_c, 0, 75, 0
2, 28277, Note_on_c, 0, 73, 0
2, 28327, Note_on_c, 0, 65, 40
2, 28329, Note_on_c, 0, 56, 29
2, 28330, Note_on_c, 0, 61, 30
2, 28331, Note_on_c, 0, 72, 61
2, 28336, Note_on_c, 0, 60, 31
2, 28353, Note_on_c, 0, 60, 0
2, 28355, Note_on_c, 0, 65, 0
2, 28402, Note_on_c, 0, 72, 0
2, 28410, Note_on_c, 0, 56, 0
2, 28425, Note_on_c, 0, 69, 30
2, 28428, Note_on_c, 0, 61, 0
2, 28453, Note_on_c, 0, 69, 0
2, 28457, Note_on_c, 0, 70, 59
2, 28528, Note_on_c, 0, 70, 0
2, 28536, Note_on_c, 0, 72, 70
2, 28537, Note_on_c, 0, 61, 88
2, 28539, Note_on_c, 0, 55, 92
2, 28539, Note_on_c, 0, 64, 90
2, 28561, Note_on_c, 0, 64, 0
2, 28561, Note_on_c, 0, 55, 0
2, 28574, Note_on_c, 0, 61, 0
2, 28587, Note_on_c, 0, 72, 0
2, 28606, Note_on_c, 0, 73, 50
2, 28664, Note_on_c, 0, 73, 0
2, 28670, Note_on_c, 0, 75, 78
2, 28710, Note_on_c, 0, 75, 0
2, 28728, Note_on_c, 0, 76, 35
2, 28768, Note_on_c, 0, 76, 0
2, 28774, Note_on_c, 0, 51, 85
2, 28775, Note_on_c, 0, 44, 87
2, 28775, Note_on_c, 0, 55, 89
2, 28778, Note_on_c, 0, 79, 75
2, 28780, Note_on_c, 0, 53, 75
2, 28790, Note_on_c, 0, 53, 0
2, 28795, Note_on_c, 0, 55, 0
2, 28799, Note_on_c, 0, 51, 0
2, 28803, Note_on_c, 0, 44, 0
2, 28812, Note_on_c, 0, 79, 0
2, 28839, Note_on_c, 0, 82, 54
2, 28886, Note_on_c, 0, 82, 0
2, 28898, Note_on_c, 0, 84, 75
2, 28899, Note_on_c, 0, 72, 53
2, 28925, Note_on_c, 0, 72, 0
2, 28938, Note_on_c, 0, 72, 40
2, 28984, Note_on_c, 0, 84, 0
2, 28995, Note_on_c, 0, 72, 0
2, 29011, Note_on_c, 0, 84, 53
2, 29015, Note_on_c, 0, 72, 58
2, 29019, Note_on_c, 0, 63, 64
2, 29020, Note_on_c, 0, 60, 70
2, 29026, Note_on_c, 0, 58, 47
2, 29029, Note_on_c, 0, 63, 0
2, 29034, Note_on_c, 0, 84, 0
2, 29040, Note_on_c, 0, 72, 0
2, 29041, Note_on_c, 0, 60, 0
2, 29055, Note_on_c, 0, 58, 0
2, 29058, Note_on_c, 0, 84, 56
2, 29065, Note_on_c, 0, 72, 42
2, 29126, Note_on_c, 0, 84, 0
2, 29147, Note_on_c, 0, 72, 0
2, 29166, Note_on_c, 0, 72, 68
2, 29166, Note_on_c, 0, 84, 79
2, 29243, Note_on_c, 0, 84, 0
2, 29246, Note_on_c, 0, 58, 85
2, 29247, Note_on_c, 0, 72, 0
2, 29248, Note_on_c, 0, 62, 103
2, 29248, Note_on_c, 0, 55, 80
2, 29249, Note_on_c, 0, 53, 79
2, 29252, Note_on_c, 0, 59, 77
2, 29253, Note_on_c, 0, 56, 46
2, 29259, Note_on_c, 0, 53, 0
2, 29263, Note_on_c, 0, 59, 0
2, 29263, Note_on_c, 0, 56, 0
2, 29270, Note_on_c, 0, 62, 0
2, 29270, Note_on_c, 0, 55, 0
2, 29285, Note_on_c, 0, 58, 0
2, 29288, Note_on_c, 0, 84, 80
2, 29289, Note_on_c, 0, 72, 60
2, 29291, Note_on_c, 0, 77, 60
2, 29367, Note_on_c, 0, 84, 0
2, 29376, Note_on_c, 0, 72, 0
2, 29379, Note_on_c, 0, 77, 0
2, 29401, Note_on_c, 0, 72, 49
2, 29401, Note_on_c, 0, 84, 69
2, 29403, Note_on_c, 0, 77, 55
2, 29456, Note_on_c, 0, 77, 0
2, 29465, Note_on_c, 0, 84, 0
2, 29468, Note_on_c, 0, 83, 25
2, 29477, Note_on_c, 0, 72, 0
2, 29481, Note_on_c, 0, 83, 0
2, 29482, Note_on_c, 0, 63, 90
2, 29483, Note_on_c, 0, 58, 80
2, 29484, Note_on_c, 0, 52, 87
2, 29506, Note_on_c, 0, 63, 0
2, 29516, Note_on_c, 0, 52, 0
2, 29525, Note_on_c, 0, 85, 73
2, 29528, Note_on_c, 0, 73, 55
2, 29529, Note_on_c, 0, 58, 0
2, 29530, Note_on_c, 0, 80, 62
2, 29577, Note_on_c, 0, 73, 0
2, 29577, Note_on_c, 0, 85, 0
2, 29593, Note_on_c, 0, 80, 0
2, 29605, Note_on_c, 0, 75, 65
2, 29605, Note_on_c, 0, 87, 77
2, 29611, Note_on_c, 0, 80, 46
2, 29623, Note_on_c, 0, 75, 0
2, 29630, Note_on_c, 0, 87, 0
2, 29636, Note_on_c, 0, 80, 0
2, 29651, Note_on_c, 0, 85, 33
2, 29652, Note_on_c, 0, 73, 34
2, 29670, Note_on_c, 0, 80, 18
2, 29686, Note_on_c, 0, 85, 0
2, 29693, Note_on_c, 0, 73, 0
2, 29719, Note_on_c, 0, 85, 63
2, 29722, Note_on_c, 0, 73, 51
2, 29733, Note_on_c, 0, 63, 57
2, 29735, Note_on_c, 0, 65, 54
2, 29745, Note_on_c, 0, 65, 0
2, 29746, Note_on_c, 0, 57, 24
2, 29754, Note_on_c, 0, 63, 0
2, 29755, Note_on_c, 0, 73, 0
2, 29755, Note_on_c, 0, 85, 0
2, 29756, Note_on_c, 0, 57, 0
2, 29761, Note_on_c, 0, 80, 0
2, 29776, Note_on_c, 0, 72, 29
2, 29782, Note_on_c, 0, 84, 25
2, 29803, Note_on_c, 0, 84, 0
2, 29823, Note_on_c, 0, 72, 0
2, 29845, Note_on_c, 0, 72, 57
2, 29846, Note_on_c, 0, 84, 64
2, 29860, Note_on_c, 0, 83, 24
2, 29863, Note_on_c, 0, 72, 0
2, 29865, Note_on_c, 0, 84, 0
2, 29871, Note_on_c, 0, 83, 0
2, 29890, Note_on_c, 0, 70, 51
2, 29891, Note_on_c, 0, 82, 21
2, 29936, Note_on_c, 0, 82, 0
2, 29940, Note_on_c, 0, 70, 0
2, 29965, Note_on_c, 0, 70, 60
2, 29966, Note_on_c, 0, 82, 52
2, 29973, Note_on_c, 0, 63, 35
2, 29974, Note_on_c, 0, 65, 44
2, 29985, Note_on_c, 0, 65, 0
2, 29988, Note_on_c, 0, 70, 0
2, 29993, Note_on_c, 0, 82, 0
2, 30001, Note_on_c, 0, 63, 0
2, 30017, Note_on_c, 0, 80, 21
2, 30018, Note_on_c, 0, 68, 34
2, 30064, Note_on_c, 0, 68, 0
2, 30070, Note_on_c, 0, 69, 47
2, 30073, Note_on_c, 0, 80, 0
2, 30096, Note_on_c, 0, 69, 0
2, 30109, Note_on_c, 0, 63, 25
2, 30110, Note_on_c, 0, 57, 25
2, 30121, Note_on_c, 0, 57, 0
2, 30126, Note_on_c, 0, 63, 0
2, 30204, Note_on_c, 0, 67, 64
2, 30205, Note_on_c, 0, 63, 51
2, 30206, Note_on_c, 0, 56, 46
2, 30209, Note_on_c, 0, 60, 58
2, 30298, Note_on_c, 0, 63, 0
2, 30329, Note_on_c, 0, 63, 25
2, 30344, Note_on_c, 0, 67, 0
2, 30361, Note_on_c, 0, 56, 0
2, 30368, Note_on_c, 0, 80, 84
2, 30374, Note_on_c, 0, 82, 56
2, 30377, Note_on_c, 0, 63, 0
2, 30385, Note_on_c, 0, 82, 0
2, 30433, Note_on_c, 0, 60, 0
2, 30444, Note_on_c, 0, 80, 0
2, 30450, Note_on_c, 0, 77, 44
2, 30474, Note_on_c, 0, 77, 0
2, 30479, Note_on_c, 0, 62, 24
2, 30482, Note_on_c, 0, 66, 45
2, 30487, Note_on_c, 0, 56, 36
2, 30492, Note_on_c, 0, 79, 36
2, 30541, Note_on_c, 0, 62, 0
2, 30556, Note_on_c, 0, 79, 0
2, 30566, Note_on_c, 0, 80, 67
2, 30582, Note_on_c, 0, 62, 20
2, 30587, Note_on_c, 0, 66, 0
2, 30602, Note_on_c, 0, 80, 0
2, 30623, Note_on_c, 0, 82, 56
2, 30647, Note_on_c, 0, 56, 0
2, 30662, Note_on_c, 0, 62, 0
2, 30669, Note_on_c, 0, 82, 0
2, 30684, Note_on_c, 0, 62, 36
2, 30686, Note_on_c, 0, 84, 72
2, 30689, Note_on_c, 0, 65, 50
2, 30701, Note_on_c, 0, 55, 32
2, 30733, Note_on_c, 0, 65, 0
2, 30736, Note_on_c, 0, 84, 0
2, 30751, Note_on_c, 0, 62, 0
2, 30760, Note_on_c, 0, 85, 55
2, 30795, Note_on_c, 0, 85, 0
2, 30816, Note_on_c, 0, 86, 91
2, 30824, Note_on_c, 0, 62, 31
2, 30846, Note_on_c, 0, 86, 0
2, 30855, Note_on_c, 0, 55, 0
2, 30857, Note_on_c, 0, 62, 0
2, 30866, Note_on_c, 0, 89, 87
2, 30933, Note_on_c, 0, 62, 34
2, 30934, Note_on_c, 0, 89, 0
2, 30935, Note_on_c, 0, 86, 64
2, 30959, Note_on_c, 0, 86, 0
2, 30963, Note_on_c, 0, 62, 0
2, 30987, Note_on_c, 0, 87, 71
2, 31040, Note_on_c, 0, 87, 0
2, 31054, Note_on_c, 0, 62, 40
2, 31059, Note_on_c, 0, 60, 39
2, 31061, Note_on_c, 0, 65, 28
2, 31066, Note_on_c, 0, 76, 36
2, 31073, Note_on_c, 0, 65, 0
2, 31073, Note_on_c, 0, 62, 0
2, 31077, Note_on_c, 0, 60, 0
2, 31089, Note_on_c, 0, 76, 0
2, 31170, Note_on_c, 0, 61, 48
2, 31172, Note_on_c, 0, 56, 35
2, 31173, Note_on_c, 0, 65, 51
2, 31178, Note_on_c, 0, 60, 48
2, 31259, Note_on_c, 0, 61, 0
2, 31272, Note_on_c, 0, 61, 30
2, 31289, Note_on_c, 0, 84, 83
2, 31294, Note_on_c, 0, 60, 0
2, 31298, Note_on_c, 0, 65, 0
2, 31310, Note_on_c, 0, 84, 0
2, 31323, Note_on_c, 0, 61, 0
2, 31323, Note_on_c, 0, 56, 0
2, 31325, Note_on_c, 0, 85, 51
2, 31341, Note_on_c, 0, 84, 51
2, 31354, Note_on_c, 0, 85, 0
2, 31370, Note_on_c, 0, 84, 0
2, 31376, Note_on_c, 0, 81, 43
2, 31401, Note_on_c, 0, 81, 0
2, 31404, Note_on_c, 0, 82, 59
2, 31419, Note_on_c, 0, 61, 17
2, 31426, Note_on_c, 0, 82, 0
2, 31439, Note_on_c, 0, 61, 0
2, 31444, Note_on_c, 0, 84, 50
2, 31471, Note_on_c, 0, 84, 0
2, 31471, Note_on_c, 0, 85, 60
2, 31500, Note_on_c, 0, 85, 0
2, 31511, Note_on_c, 0, 87, 64
2, 31534, Note_on_c, 0, 87, 0
2, 31540, Note_on_c, 0, 88, 69
2, 31542, Note_on_c, 0, 61, 51
2, 31548, Note_on_c, 0, 55, 46
2, 31549, Note_on_c, 0, 64, 33
2, 31563, Note_on_c, 0, 64, 0
2, 31570, Note_on_c, 0, 88, 0
2, 31573, Note_on_c, 0, 55, 0
2, 31587, Note_on_c, 0, 61, 0
2, 31592, Note_on_c, 0, 90, 30
2, 31626, Note_on_c, 0, 90, 0
2, 31633, Note_on_c, 0, 91, 46
2, 31666, Note_on_c, 0, 92, 73
2, 31671, Note_on_c, 0, 91, 0
2, 31681, Note_on_c, 0, 93, 71
2, 31683, Note_on_c, 0, 92, 0
2, 31700, Note_on_c, 0, 93, 0
2, 31709, Note_on_c, 0, 63, 42
2, 31709, Note_on_c, 0, 58, 48
2, 31712, Note_on_c, 0, 94, 74
2, 31726, Note_on_c, 0, 53, 28
2, 31785, Note_on_c, 0, 94, 0
2, 31809, Note_on_c, 0, 63, 0
2, 31815, Note_on_c, 0, 53, 0
2, 31828, Note_on_c, 0, 91, 64
2, 31862, Note_on_c, 0, 58, 0
2, 31889, Note_on_c, 0, 91, 0
2, 31899, Note_on_c, 0, 87, 67
2, 31932, Note_on_c, 0, 87, 0
2, 31950, Note_on_c, 0, 84, 32
2, 32013, Note_on_c, 0, 84, 0
2, 32015, Note_on_c, 0, 96, 71
2, 32020, Note_on_c, 0, 63, 53
2, 32023, Note_on_c, 0, 60, 49
2, 32029, Note_on_c, 0, 58, 35
2, 32038, Note_on_c, 0, 96, 0
2, 32045, Note_on_c, 0, 60, 0
2, 32046, Note_on_c, 0, 63, 0
2, 32063, Note_on_c, 0, 58, 0
2, 32170, Note_on_c, 0, 63, 57
2, 32173, Note_on_c, 0, 94, 67
2, 32176, Note_on_c, 0, 82, 45
2, 32176, Note_on_c, 0, 56, 39
2, 32176, Note_on_c, 0, 59, 50
2, 32177, Note_on_c, 0, 87, 56
2, 32178, Note_on_c, 0, 53, 36
2, 32247, Note_on_c, 0, 87, 0
2, 32251, Note_on_c, 0, 94, 0
2, 32256, Note_on_c, 0, 82, 0
2, 32274, Note_on_c, 0, 63, 0
2, 32288, Note_on_c, 0, 93, 71
2, 32291, Note_on_c, 0, 87, 59
2, 32292, Note_on_c, 0, 81, 48
2, 32313, Note_on_c, 0, 59, 0
2, 32339, Note_on_c, 0, 93, 0
2, 32347, Note_on_c, 0, 56, 0
2, 32356, Note_on_c, 0, 81, 0
2, 32372, Note_on_c, 0, 87, 0
2, 32382, Note_on_c, 0, 59, 31
2, 32406, Note_on_c, 0, 92, 51
2, 32410, Note_on_c, 0, 53, 0
2, 32410, Note_on_c, 0, 87, 46
2, 32412, Note_on_c, 0, 59, 0
2, 32415, Note_on_c, 0, 80, 26
2, 32444, Note_on_c, 0, 92, 0
2, 32454, Note_on_c, 0, 80, 0
2, 32454, Note_on_c, 0, 87, 0
2, 32490, Note_on_c, 0, 63, 39
2, 32493, Note_on_c, 0, 53, 40
2, 32496, Note_on_c, 0, 56, 31
2, 32531, Note_on_c, 0, 63, 0
2, 32535, Note_on_c, 0, 56, 0
2, 32568, Note_on_c, 0, 53, 0
2, 32610, Note_on_c, 0, 58, 56
2, 32612, Note_on_c, 0, 62, 65
2, 32614, Note_on_c, 0, 55, 55
2, 32622, Note_on_c, 0, 62, 0
2, 32625, Note_on_c, 0, 55, 0
2, 32636, Note_on_c, 0, 58, 0
2, 32735, Note_on_c, 0, 82, 83
2, 32736, Note_on_c, 0, 70, 90
2, 32736, Note_on_c, 0, 77, 81
2, 32752, Note_on_c, 0, 70, 0
2, 32763, Note_on_c, 0, 82, 0
2, 32766, Note_on_c, 0, 77, 0
2, 32850, Note_on_c, 0, 70, 83
2, 32851, Note_on_c, 0, 82, 71
2, 32853, Note_on_c, 0, 77, 64
2, 32865, Note_on_c, 0, 55, 34
2, 32870, Note_on_c, 0, 70, 0
2, 32873, Note_on_c, 0, 82, 0
2, 32877, Note_on_c, 0, 77, 0
2, 32879, Note_on_c, 0, 55, 0
2, 32906, Note_on_c, 0, 55, 34
2, 32906, Note_on_c, 0, 62, 49
2, 32911, Note_on_c, 0, 58, 40
2, 32917, Note_on_c, 0, 70, 52
2, 32918, Note_on_c, 0, 82, 44
2, 32920, Note_on_c, 0, 77, 54
2, 32958, Note_on_c, 0, 58, 0
2, 32965, Note_on_c, 0, 62, 0
2, 32967, Note_on_c, 0, 70, 0
2, 32968, Note_on_c, 0, 82, 0
2, 32973, Note_on_c, 0, 77, 0
2, 33017, Note_on_c, 0, 82, 61
2, 33017, Note_on_c, 0, 70, 64
2, 33019, Note_on_c, 0, 58, 36
2, 33021, Note_on_c, 0, 77, 57
2, 33030, Note_on_c, 0, 55, 0
2, 33042, Note_on_c, 0, 70, 0
2, 33048, Note_on_c, 0, 58, 0
2, 33049, Note_on_c, 0, 82, 0
2, 33054, Note_on_c, 0, 77, 0
2, 33090, Note_on_c, 0, 82, 55
2, 33090, Note_on_c, 0, 58, 51
2, 33092, Note_on_c, 0, 70, 43
2, 33098, Note_on_c, 0, 77, 33
2, 33103, Note_on_c, 0, 70, 0
2, 33114, Note_on_c, 0, 77, 0
2, 33116, Note_on_c, 0, 58, 0
2, 33118, Note_on_c, 0, 82, 0
2, 33143, Note_on_c, 0, 63, 59
2, 33144, Note_on_c, 0, 58, 57
2, 33145, Note_on_c, 0, 52, 64
2, 33146, Note_on_c, 0, 85, 75
2, 33147, Note_on_c, 0, 73, 53
2, 33147, Note_on_c, 0, 80, 61
2, 33191, Note_on_c, 0, 73, 0
2, 33193, Note_on_c, 0, 85, 0
2, 33199, Note_on_c, 0, 52, 0
2, 33202, Note_on_c, 0, 80, 0
2, 33204, Note_on_c, 0, 63, 0
2, 33211, Note_on_c, 0, 58, 0
2, 33227, Note_on_c, 0, 87, 60
2, 33228, Note_on_c, 0, 75, 43
2, 33229, Note_on_c, 0, 52, 40
2, 33229, Note_on_c, 0, 82, 48
2, 33232, Note_on_c, 0, 63, 29
2, 33232, Note_on_c, 0, 58, 34
2, 33242, Note_on_c, 0, 87, 0
2, 33250, Note_on_c, 0, 75, 0
2, 33252, Note_on_c, 0, 63, 0
2, 33253, Note_on_c, 0, 82, 0
2, 33259, Note_on_c, 0, 52, 0
2, 33267, Note_on_c, 0, 58, 0
2, 33333, Note_on_c, 0, 63, 56
2, 33336, Note_on_c, 0, 84, 61
2, 33337, Note_on_c, 0, 52, 46
2, 33338, Note_on_c, 0, 58, 43
2, 33339, Note_on_c, 0, 79, 53
2, 33360, Note_on_c, 0, 72, 7
2, 33503, Note_on_c, 0, 84, 0
2, 33507, Note_on_c, 0, 79, 0
2, 33528, Note_on_c, 0, 52, 0
2, 33534, Note_on_c, 0, 72, 0
2, 33536, Note_on_c, 0, 58, 0
2, 33546, Note_on_c, 0, 63, 0
2, 33614, Note_on_c, 0, 63, 74
2, 33614, Note_on_c, 0, 67, 85
2, 33615, Note_on_c, 0, 56, 75
2, 33615, Note_on_c, 0, 82, 84
2, 33616, Note_on_c, 0, 75, 87
2, 33616, Note_on_c, 0, 70, 97
2, 33617, Note_on_c, 0, 60, 74
2, 33617, Note_on_c, 0, 79, 73
2, 33656, Note_on_c, 0, 70, 0
2, 33660, Note_on_c, 0, 67, 0
2, 33666, Note_on_c, 0, 79, 0
2, 33667, Note_on_c, 0, 82, 0
2, 33674, Note_on_c, 0, 75, 0
2, 33674, Note_on_c, 0, 60, 0
2, 33675, Note_on_c, 0, 56, 0
2, 33677, Note_on_c, 0, 63, 0
2, 33688, Note_on_c, 0, 56, 25
2, 33689, Note_on_c, 0, 82, 52
2, 33690, Note_on_c, 0, 67, 61
2, 33691, Note_on_c, 0, 63, 40
2, 33692, Note_on_c, 0, 75, 62
2, 33693, Note_on_c, 0, 70, 56
2, 33698, Note_on_c, 0, 60, 49
2, 33698, Note_on_c, 0, 79, 33
2, 33719, Note_on_c, 0, 67, 0
2, 33720, Note_on_c, 0, 70, 0
2, 33727, Note_on_c, 0, 75, 0
2, 33729, Note_on_c, 0, 79, 0
2, 33738, Note_on_c, 0, 67, 45
2, 33742, Note_on_c, 0, 70, 43
2, 33744, Note_on_c, 0, 75, 39
2, 33752, Note_on_c, 0, 79, 34
2, 33779, Note_on_c, 0, 70, 0
2, 33787, Note_on_c, 0, 82, 0
2, 33787, Note_on_c, 0, 67, 0
2, 33789, Note_on_c, 0, 79, 0
2, 33789, Note_on_c, 0, 75, 0
2, 33790, Note_on_c, 0, 60, 0
2, 33794, Note_on_c, 0, 56, 0
2, 33798, Note_on_c, 0, 63, 0
2, 33811, Note_on_c, 0, 82, 52
2, 33813, Note_on_c, 0, 67, 55
2, 33816, Note_on_c, 0, 75, 50
2, 33816, Note_on_c, 0, 63, 51
2, 33817, Note_on_c, 0, 70, 54
2, 33817, Note_on_c, 0, 56, 46
2, 33818, Note_on_c, 0, 79, 41
2, 33821, Note_on_c, 0, 60, 50
2, 33839, Note_on_c, 0, 67, 0
2, 33845, Note_on_c, 0, 70, 0
2, 33849, Note_on_c, 0, 60, 0
2, 33850, Note_on_c, 0, 82, 0
2, 33851, Note_on_c, 0, 56, 0
2, 33853, Note_on_c, 0, 75, 0
2, 33856, Note_on_c, 0, 79, 0
2, 33859, Note_on_c, 0, 63, 0
2, 33870, Note_on_c, 0, 82, 42
2, 33873, Note_on_c, 0, 63, 25
2, 33873, Note_on_c, 0, 67, 47
2, 33875, Note_on_c, 0, 75, 47
2, 33876, Note_on_c, 0, 56, 26
2, 33876, Note_on_c, 0, 70, 38
2, 33884, Note_on_c, 0, 60, 43
2, 33897, Note_on_c, 0, 70, 0
2, 33902, Note_on_c, 0, 67, 0
2, 33903, Note_on_c, 0, 75, 0
2, 33918, Note_on_c, 0, 82, 0
2, 33930, Note_on_c, 0, 56, 0
2, 33932, Note_on_c, 0, 63, 0
2, 33937, Note_on_c, 0, 60, 0
2, 33989, Note_on_c, 0, 85, 84
2, 33990, Note_on_c, 0, 66, 82
2, 33990, Note_on_c, 0, 73, 71
2, 33992, Note_on_c, 0, 56, 71
2, 33993, Note_on_c, 0, 78, 62
2, 33994, Note_on_c, 0, 82, 61
2, 33994, Note_on_c, 0, 62, 78
2, 34037, Note_on_c, 0, 73, 0
2, 34038, Note_on_c, 0, 78, 0
2, 34038, Note_on_c, 0, 85, 0
2, 34040, Note_on_c, 0, 56, 0
2, 34042, Note_on_c, 0, 66, 0
2, 34044, Note_on_c, 0, 82, 0
2, 34052, Note_on_c, 0, 62, 0
2, 34065, Note_on_c, 0, 66, 64
2, 34066, Note_on_c, 0, 85, 69
2, 34068, Note_on_c, 0, 73, 57
2, 34070, Note_on_c, 0, 56, 58
2, 34071, Note_on_c, 0, 62, 57
2, 34072, Note_on_c, 0, 78, 64
2, 34073, Note_on_c, 0, 82, 45
2, 34097, Note_on_c, 0, 85, 0
2, 34098, Note_on_c, 0, 66, 0
2, 34098, Note_on_c, 0, 78, 0
2, 34100, Note_on_c, 0, 73, 0
2, 34106, Note_on_c, 0, 56, 0
2, 34107, Note_on_c, 0, 82, 0
2, 34112, Note_on_c, 0, 62, 0
2, 34120, Note_on_c, 0, 66, 62
2, 34120, Note_on_c, 0, 85, 63
2, 34120, Note_on_c, 0, 56, 33
2, 34121, Note_on_c, 0, 73, 39
2, 34121, Note_on_c, 0, 62, 24
2, 34124, Note_on_c, 0, 78, 44
2, 34126, Note_on_c, 0, 82, 52
2, 34157, Note_on_c, 0, 78, 0
2, 34160, Note_on_c, 0, 66, 0
2, 34161, Note_on_c, 0, 73, 0
2, 34165, Note_on_c, 0, 82, 0
2, 34166, Note_on_c, 0, 85, 0
2, 34169, Note_on_c, 0, 62, 0
2, 34172, Note_on_c, 0, 56, 0
2, 34182, Note_on_c, 0, 85, 48
2, 34183, Note_on_c, 0, 73, 37
2, 34186, Note_on_c, 0, 66, 60
2, 34186, Note_on_c, 0, 56, 31
2, 34187, Note_on_c, 0, 62, 45
2, 34191, Note_on_c, 0, 78, 48
2, 34202, Note_on_c, 0, 85, 0
2, 34206, Note_on_c, 0, 73, 0
2, 34208, Note_on_c, 0, 66, 0
2, 34211, Note_on_c, 0, 78, 0
2, 34223, Note_on_c, 0, 62, 0
2, 34233, Note_on_c, 0, 80, 47
2, 34235, Note_on_c, 0, 62, 18
2, 34237, Note_on_c, 0, 68, 58
2, 34300, Note_on_c, 0, 68, 0
2, 34309, Note_on_c, 0, 80, 0
2, 34311, Note_on_c, 0, 56, 0
2, 34326, Note_on_c, 0, 62, 0
2, 34401, Note_on_c, 0, 56, 62
2, 34401, Note_on_c, 0, 66, 59
2, 34403, Note_on_c, 0, 62, 56
2, 34526, Note_on_c, 0, 66, 0
2, 34535, Note_on_c, 0, 56, 0
2, 34560, Note_on_c, 0, 65, 49
2, 34569, Note_on_c, 0, 81, 79
2, 34569, Note_on_c, 0, 60, 38
2, 34574, Note_on_c, 0, 55, 44
2, 34646, Note_on_c, 0, 78, 40
2, 34647, Note_on_c, 0, 81, 0
2, 34672, Note_on_c, 0, 65, 0
2, 34676, Note_on_c, 0, 78, 0
2, 34693, Note_on_c, 0, 79, 60
2, 34708, Note_on_c, 0, 62, 0
2, 34710, Note_on_c, 0, 60, 0
2, 34755, Note_on_c, 0, 79, 0
2, 34761, Note_on_c, 0, 74, 61
2, 34766, Note_on_c, 0, 62, 24
2, 34793, Note_on_c, 0, 74, 0
2, 34804, Note_on_c, 0, 62, 0
2, 34818, Note_on_c, 0, 70, 37
2, 34862, Note_on_c, 0, 55, 0
2, 34883, Note_on_c, 0, 62, 29
2, 34894, Note_on_c, 0, 70, 0
2, 34903, Note_on_c, 0, 62, 0
2, 34926, Note_on_c, 0, 70, 60
2, 35039, Note_on_c, 0, 56, 39
2, 35040, Note_on_c, 0, 60, 49
2, 35046, Note_on_c, 0, 50, 30
2, 35051, Note_on_c, 0, 60, 0
2, 35058, Note_on_c, 0, 56, 0
2, 35059, Note_on_c, 0, 50, 0
2, 35139, Note_on_c, 0, 70, 0
2, 35167, Note_on_c, 0, 68, 77
2, 35215, Note_on_c, 0, 68, 0
2, 35230, Note_on_c, 0, 70, 42
2, 35249, Note_on_c, 0, 68, 56
2, 35258, Note_on_c, 0, 59, 32
2, 35262, Note_on_c, 0, 53, 24
2, 35274, Note_on_c, 0, 70, 0
2, 35275, Note_on_c, 0, 59, 0
2, 35286, Note_on_c, 0, 53, 0
2, 35290, Note_on_c, 0, 68, 0
2, 35290, Note_on_c, 0, 67, 30
2, 35339, Note_on_c, 0, 67, 0
2, 35359, Note_on_c, 0, 65, 71
2, 35396, Note_on_c, 0, 65, 0
2, 35410, Note_on_c, 0, 63, 37
2, 35474, Note_on_c, 0, 63, 0
2, 35485, Note_on_c, 0, 62, 38
2, 35523, Note_on_c, 0, 65, 74
2, 35530, Note_on_c, 0, 62, 0
2, 35597, Note_on_c, 0, 55, 19
2, 35605, Note_on_c, 0, 65, 0
2, 35609, Note_on_c, 0, 55, 0
2, 35723, Note_on_c, 0, 53, 45
2, 35812, Note_on_c, 0, 41, 62
2, 35829, Note_on_c, 0, 41, 0
2, 35869, Note_on_c, 0, 53, 0
2, 35878, Note_on_c, 0, 60, 80
2, 35965, Note_on_c, 0, 57, 71
2, 35991, Note_on_c, 0, 46, 55
2, 35992, Note_on_c, 0, 60, 0
2, 36029, Note_on_c, 0, 46, 0
2, 36061, Note_on_c, 0, 58, 74
2, 36070, Note_on_c, 0, 57, 0
2, 36123, Note_on_c, 0, 52, 30
2, 36136, Note_on_c, 0, 58, 0
2, 36139, Note_on_c, 0, 52, 0
2, 36147, Note_on_c, 0, 61, 61
2, 36223, Note_on_c, 0, 63, 63
2, 36230, Note_on_c, 0, 45, 51
2, 36241, Note_on_c, 0, 61, 0
2, 36244, Note_on_c, 0, 45, 0
2, 36280, Note_on_c, 0, 63, 0
2, 36298, Note_on_c, 0, 64, 57
2, 36355, Note_on_c, 0, 64, 0
2, 36377, Note_on_c, 0, 67, 63
2, 36448, Note_on_c, 0, 67, 0
2, 36455, Note_on_c, 0, 72, 59
2, 36462, Note_on_c, 0, 44, 45
2, 36490, Note_on_c, 0, 44, 0
2, 36498, Note_on_c, 0, 72, 0
2, 36527, Note_on_c, 0, 67, 56
2, 36598, Note_on_c, 0, 67, 0
2, 36606, Note_on_c, 0, 64, 68
2, 36619, Note_on_c, 0, 52, 28
2, 36623, Note_on_c, 0, 55, 34
2, 36624, Note_on_c, 0, 60, 13
2, 36632, Note_on_c, 0, 44, 28
2, 36678, Note_on_c, 0, 55, 0
2, 36681, Note_on_c, 0, 44, 0
2, 36688, Note_on_c, 0, 64, 0
2, 36691, Note_on_c, 0, 52, 0
2, 36692, Note_on_c, 0, 60, 0
2, 36733, Note_on_c, 0, 44, 38
2, 36733, Note_on_c, 0, 64, 50
2, 36734, Note_on_c, 0, 60, 47
2, 36735, Note_on_c, 0, 52, 36
2, 36742, Note_on_c, 0, 55, 36
2, 36794, Note_on_c, 0, 55, 0
2, 36803, Note_on_c, 0, 60, 0
2, 36820, Note_on_c, 0, 64, 0
2, 36822, Note_on_c, 0, 52, 0
2, 36849, Note_on_c, 0, 65, 49
2, 36853, Note_on_c, 0, 53, 36
2, 36855, Note_on_c, 0, 60, 29
2, 36912, Note_on_c, 0, 60, 0
2, 36933, Note_on_c, 0, 53, 0
2, 36933, Note_on_c, 0, 65, 0
2, 36941, Note_on_c, 0, 44, 0
2, 36970, Note_on_c, 0, 43, 43
2, 37003, Note_on_c, 0, 43, 0
2, 37167, Note_on_c, 0, 58, 40
2, 37170, Note_on_c, 0, 52, 34
2, 37180, Note_on_c, 0, 58, 0
2, 37183, Note_on_c, 0, 52, 0
2, 37204, Note_on_c, 0, 72, 44
2, 37205, Note_on_c, 0, 68, 39
2, 37209, Note_on_c, 0, 66, 33
2, 37211, Note_on_c, 0, 64, 36
2, 37225, Note_on_c, 0, 64, 0
2, 37231, Note_on_c, 0, 66, 0
2, 37233, Note_on_c, 0, 72, 0
2, 37239, Note_on_c, 0, 68, 0
2, 37284, Note_on_c, 0, 73, 57
2, 37287, Note_on_c, 0, 64, 57
2, 37288, Note_on_c, 0, 66, 47
2, 37291, Note_on_c, 0, 60, 52
2, 37291, Note_on_c, 0, 58, 37
2, 37298, Note_on_c, 0, 66, 0
2, 37298, Note_on_c, 0, 64, 0
2, 37301, Note_on_c, 0, 60, 0
2, 37312, Note_on_c, 0, 58, 0
2, 37312, Note_on_c, 0, 73, 0
2, 37411, Note_on_c, 0, 57, 57
2, 37415, Note_on_c, 0, 63, 23
2, 37422, Note_on_c, 0, 57, 0
2, 37426, Note_on_c, 0, 63, 0
2, 37528, Note_on_c, 0, 78, 67
2, 37529, Note_on_c, 0, 63, 72
2, 37529, Note_on_c, 0, 74, 77
2, 37530, Note_on_c, 0, 81, 77
2, 37530, Note_on_c, 0, 57, 80
2, 37530, Note_on_c, 0, 69, 80
2, 37531, Note_on_c, 0, 65, 81
2, 37551, Note_on_c, 0, 69, 0
2, 37559, Note_on_c, 0, 74, 0
2, 37561, Note_on_c, 0, 78, 0
2, 37566, Note_on_c, 0, 81, 0
2, 37569, Note_on_c, 0, 65, 0
2, 37585, Note_on_c, 0, 81, 33
2, 37585, Note_on_c, 0, 65, 43
2, 37587, Note_on_c, 0, 69, 36
2, 37588, Note_on_c, 0, 74, 49
2, 37589, Note_on_c, 0, 78, 31
2, 37635, Note_on_c, 0, 74, 0
2, 37636, Note_on_c, 0, 69, 0
2, 37637, Note_on_c, 0, 65, 0
2, 37640, Note_on_c, 0, 57, 0
2, 37643, Note_on_c, 0, 78, 0
2, 37652, Note_on_c, 0, 63, 0
2, 37660, Note_on_c, 0, 69, 51
2, 37660, Note_on_c, 0, 57, 54
2, 37661, Note_on_c, 0, 74, 64
2, 37661, Note_on_c, 0, 78, 31
2, 37662, Note_on_c, 0, 65, 62
2, 37664, Note_on_c, 0, 63, 36
2, 37684, Note_on_c, 0, 69, 0
2, 37687, Note_on_c, 0, 65, 0
2, 37688, Note_on_c, 0, 74, 0
2, 37709, Note_on_c, 0, 65, 43
2, 37711, Note_on_c, 0, 69, 34
2, 37712, Note_on_c, 0, 74, 49
2, 37768, Note_on_c, 0, 65, 0
2, 37769, Note_on_c, 0, 74, 0
2, 37772, Note_on_c, 0, 69, 0
2, 37775, Note_on_c, 0, 78, 0
2, 37780, Note_on_c, 0, 81, 0
2, 37780, Note_on_c, 0, 63, 0
2, 37782, Note_on_c, 0, 57, 0
2, 37887, Note_on_c, 0, 82, 67
2, 37889, Note_on_c, 0, 70, 70
2, 37890, Note_on_c, 0, 75, 69
2, 37892, Note_on_c, 0, 63, 67
2, 37893, Note_on_c, 0, 56, 69
2, 37895, Note_on_c, 0, 67, 78
2, 37897, Note_on_c, 0, 60, 71
2, 37899, Note_on_c, 0, 78, 27
2, 37917, Note_on_c, 0, 78, 0
2, 37918, Note_on_c, 0, 67, 0
2, 37925, Note_on_c, 0, 70, 0
2, 37929, Note_on_c, 0, 75, 0
2, 37930, Note_on_c, 0, 82, 0
2, 37940, Note_on_c, 0, 60, 0
2, 37950, Note_on_c, 0, 67, 54
2, 37951, Note_on_c, 0, 82, 50
2, 37951, Note_on_c, 0, 60, 24
2, 37954, Note_on_c, 0, 70, 34
2, 37955, Note_on_c, 0, 75, 38
2, 37964, Note_on_c, 0, 78, 30
2, 37979, Note_on_c, 0, 67, 0
2, 37986, Note_on_c, 0, 78, 0
2, 37988, Note_on_c, 0, 70, 0
2, 37990, Note_on_c, 0, 82, 0
2, 37992, Note_on_c, 0, 60, 0
2, 37992, Note_on_c, 0, 75, 0
2, 37995, Note_on_c, 0, 63, 0
2, 38005, Note_on_c, 0, 56, 0
2, 38015, Note_on_c, 0, 56, 25
2, 38018, Note_on_c, 0, 67, 62
2, 38018, Note_on_c, 0, 82, 57
2, 38019, Note_on_c, 0, 63, 62
2, 38019, Note_on_c, 0, 70, 62
2, 38020, Note_on_c, 0, 75, 52
2, 38021, Note_on_c, 0, 60, 50
2, 38025, Note_on_c, 0, 78, 40
2, 38041, Note_on_c, 0, 67, 0
2, 38044, Note_on_c, 0, 82, 0
2, 38045, Note_on_c, 0, 78, 0
2, 38045, Note_on_c, 0, 70, 0
2, 38047, Note_on_c, 0, 75, 0
2, 38052, Note_on_c, 0, 60, 0
2, 38065, Note_on_c, 0, 82, 31
2, 38066, Note_on_c, 0, 67, 57
2, 38070, Note_on_c, 0, 75, 38
2, 38071, Note_on_c, 0, 70, 34
2, 38076, Note_on_c, 0, 60, 17
2, 38107, Note_on_c, 0, 67, 0
2, 38109, Note_on_c, 0, 75, 0
2, 38112, Note_on_c, 0, 70, 0
2, 38123, Note_on_c, 0, 82, 0
2, 38123, Note_on_c, 0, 56, 0
2, 38126, Note_on_c, 0, 63, 0
2, 38132, Note_on_c, 0, 60, 0
2, 38175, Note_on_c, 0, 66, 71
2, 38177, Note_on_c, 0, 71, 68
2, 38177, Note_on_c, 0, 75, 55
2, 38177, Note_on_c, 0, 83, 49
2, 38179, Note_on_c, 0, 56, 49
2, 38180, Note_on_c, 0, 78, 43
2, 38180, Note_on_c, 0, 62, 63
2, 38182, Note_on_c, 0, 60, 55
2, 38188, Note_on_c, 0, 81, 30
2, 38201, Note_on_c, 0, 81, 0
2, 38220, Note_on_c, 0, 71, 0
2, 38222, Note_on_c, 0, 75, 0
2, 38224, Note_on_c, 0, 56, 0
2, 38225, Note_on_c, 0, 66, 0
2, 38225, Note_on_c, 0, 78, 0
2, 38226, Note_on_c, 0, 60, 0
2, 38227, Note_on_c, 0, 83, 0
2, 38236, Note_on_c, 0, 62, 0
2, 38251, Note_on_c, 0, 66, 65
2, 38252, Note_on_c, 0, 83, 60
2, 38253, Note_on_c, 0, 71, 57
2, 38254, Note_on_c, 0, 75, 52
2, 38256, Note_on_c, 0, 78, 39
2, 38257, Note_on_c, 0, 62, 44
2, 38258, Note_on_c, 0, 56, 49
2, 38279, Note_on_c, 0, 75, 0
2, 38279, Note_on_c, 0, 71, 0
2, 38283, Note_on_c, 0, 78, 0
2, 38284, Note_on_c, 0, 66, 0
2, 38285, Note_on_c, 0, 83, 0
2, 38289, Note_on_c, 0, 56, 0
2, 38301, Note_on_c, 0, 66, 35
2, 38302, Note_on_c, 0, 83, 36
2, 38304, Note_on_c, 0, 56, 25
2, 38306, Note_on_c, 0, 71, 57
2, 38306, Note_on_c, 0, 78, 37
2, 38306, Note_on_c, 0, 75, 48
2, 38341, Note_on_c, 0, 71, 0
2, 38342, Note_on_c, 0, 75, 0
2, 38343, Note_on_c, 0, 83, 0
2, 38344, Note_on_c, 0, 78, 0
2, 38348, Note_on_c, 0, 66, 0
2, 38360, Note_on_c, 0, 56, 0
2, 38375, Note_on_c, 0, 62, 0
2, 38403, Control_c, 0, 64, 127
2, 38408, Note_on_c, 0, 62, 60
2, 38410, Note_on_c, 0, 65, 65
2, 38412, Note_on_c, 0, 75, 64
2, 38414, Note_on_c, 0, 83, 58
2, 38414, Note_on_c, 0, 78, 45
2, 38415, Note_on_c, 0, 71, 65
2, 38415, Note_on_c, 0, 60, 37
2, 38418, Note_on_c, 0, 55, 49
2, 38459, Note_on_c, 0, 71, 0
2, 38463, Note_on_c, 0, 75, 0
2, 38464, Note_on_c, 0, 55, 0
2, 38465, Note_on_c, 0, 83, 0
2, 38467, Note_on_c, 0, 78, 0
2, 38467, Note_on_c, 0, 65, 0
2, 38469, Note_on_c, 0, 60, 0
2, 38475, Note_on_c, 0, 62, 0
2, 38490, Note_on_c, 0, 84, 72
2, 38490, Note_on_c, 0, 72, 49
2, 38492, Note_on_c, 0, 65, 66
2, 38496, Note_on_c, 0, 79, 53
2, 38496, Note_on_c, 0, 62, 64
2, 38498, Control_c, 0, 64, 0
2, 38499, Note_on_c, 0, 60, 47
2, 38501, Note_on_c, 0, 55, 42
2, 38508, Note_on_c, 0, 79, 0
2, 38513, Note_on_c, 0, 72, 0
2, 38514, Note_on_c, 0, 60, 0
2, 38515, Note_on_c, 0, 84, 0
2, 38517, Note_on_c, 0, 55, 0
2, 38531, Note_on_c, 0, 55, 20
2, 38536, Note_on_c, 0, 60, 14
2, 38543, Note_on_c, 0, 84, 50
2, 38543, Note_on_c, 0, 79, 41
2, 38548, Note_on_c, 0, 72, 17
2, 38596, Note_on_c, 0, 84, 0
2, 38597, Note_on_c, 0, 60, 0
2, 38600, Note_on_c, 0, 55, 0
2, 38601, Note_on_c, 0, 79, 0
2, 38604, Note_on_c, 0, 65, 0
2, 38606, Note_on_c, 0, 72, 0
2, 38608, Note_on_c, 0, 62, 0
2, 38638, Control_c, 0, 64, 127
2, 38652, Note_on_c, 0, 62, 53
2, 38652, Note_on_c, 0, 65, 58
2, 38653, Note_on_c, 0, 84, 62
2, 38654, Note_on_c, 0, 60, 59
2, 38654, Note_on_c, 0, 55, 51
2, 38656, Note_on_c, 0, 79, 59
2, 38659, Note_on_c, 0, 72, 33
2, 38695, Note_on_c, 0, 65, 0
2, 38697, Note_on_c, 0, 72, 0
2, 38698, Note_on_c, 0, 55, 0
2, 38700, Note_on_c, 0, 60, 0
2, 38702, Note_on_c, 0, 62, 0
2, 38703, Note_on_c, 0, 84, 0
2, 38704, Note_on_c, 0, 79, 0
2, 38711, Control_c, 0, 64, 0
2, 38764, Note_on_c, 0, 85, 77
2, 38765, Note_on_c, 0, 73, 64
2, 38765, Note_on_c, 0, 56, 74
2, 38765, Note_on_c, 0, 80, 69
2, 38766, Note_on_c, 0, 65, 82
2, 38766, Note_on_c, 0, 60, 79
2, 38769, Note_on_c, 0, 61, 57
2, 38776, Control_c, 0, 64, 127
2, 38818, Control_c, 0, 64, 0
2, 38820, Note_on_c, 0, 65, 0
2, 38821, Note_on_c, 0, 85, 0
2, 38824, Note_on_c, 0, 73, 0
2, 38830, Note_on_c, 0, 80, 0
2, 38830, Note_on_c, 0, 56, 0
2, 38834, Note_on_c, 0, 60, 0
2, 38835, Note_on_c, 0, 61, 0
2, 38847, Note_on_c, 0, 85, 53
2, 38850, Note_on_c, 0, 80, 49
2, 38851, Note_on_c, 0, 56, 50
2, 38851, Note_on_c, 0, 73, 33
2, 38854, Note_on_c, 0, 65, 60
2, 38855, Note_on_c, 0, 61, 54
2, 38858, Note_on_c, 0, 60, 51
2, 38866, Control_c, 0, 64, 127
2, 38898, Note_on_c, 0, 65, 0
2, 38903, Note_on_c, 0, 73, 0
2, 38906, Note_on_c, 0, 80, 0
2, 38908, Note_on_c, 0, 85, 0
2, 38908, Note_on_c, 0, 60, 0
2, 38912, Note_on_c, 0, 56, 0
2, 38916, Note_on_c, 0, 61, 0
2, 38957, Note_on_c, 0, 60, 64
2, 38960, Note_on_c, 0, 65, 68
2, 38960, Note_on_c, 0, 80, 62
2, 38960, Note_on_c, 0, 74, 74
2, 38961, Note_on_c, 0, 56, 52
2, 38962, Note_on_c, 0, 61, 52
2, 38962, Note_on_c, 0, 86, 73
2, 38965, Control_c, 0, 64, 0
2, 38968, Note_on_c, 0, 82, 37
2, 38979, Note_on_c, 0, 82, 0
2, 38987, Note_on_c, 0, 65, 0
2, 38990, Note_on_c, 0, 86, 0
2, 38993, Note_on_c, 0, 74, 0
2, 38995, Note_on_c, 0, 80, 0
2, 39005, Note_on_c, 0, 60, 0
2, 39005, Note_on_c, 0, 56, 0
2, 39015, Note_on_c, 0, 56, 21
2, 39016, Note_on_c, 0, 65, 54
2, 39018, Note_on_c, 0, 74, 47
2, 39019, Note_on_c, 0, 86, 60
2, 39021, Note_on_c, 0, 80, 36
2, 39022, Control_c, 0, 64, 127
2, 39023, Note_on_c, 0, 60, 18
2, 39026, Note_on_c, 0, 82, 37
2, 39043, Note_on_c, 0, 60, 0
2, 39065, Note_on_c, 0, 86, 0
2, 39071, Note_on_c, 0, 65, 0
2, 39074, Note_on_c, 0, 74, 0
2, 39079, Note_on_c, 0, 80, 0
2, 39088, Note_on_c, 0, 82, 0
2, 39089, Note_on_c, 0, 61, 0
2, 39092, Control_c, 0, 64, 0
2, 39098, Note_on_c, 0, 56, 0
2, 39125, Note_on_c, 0, 61, 39
2, 39126, Note_on_c, 0, 55, 62
2, 39128, Note_on_c, 0, 64, 48
2, 39128, Note_on_c, 0, 75, 53
2, 39129, Note_on_c, 0, 87, 53
2, 39129, Note_on_c, 0, 82, 42
2, 39138, Control_c, 0, 64, 127
2, 39175, Control_c, 0, 64, 0
2, 39259, Note_on_c, 0, 55, 0
2, 39271, Note_on_c, 0, 64, 0
2, 39303, Note_on_c, 0, 61, 0
2, 39369, Note_on_c, 0, 63, 55
2, 39371, Note_on_c, 0, 60, 46
2, 39374, Note_on_c, 0, 53, 36
2, 39376, Note_on_c, 0, 58, 39
2, 39429, Note_on_c, 0, 63, 0
2, 39430, Note_on_c, 0, 53, 0
2, 39432, Note_on_c, 0, 60, 0
2, 39432, Note_on_c, 0, 75, 0
2, 39437, Note_on_c, 0, 87, 0
2, 39439, Note_on_c, 0, 82, 0
2, 39447, Note_on_c, 0, 58, 0
2, 39564, Note_on_c, 0, 63, 47
2, 39573, Note_on_c, 0, 60, 44
2, 39574, Note_on_c, 0, 63, 0
2, 39578, Note_on_c, 0, 58, 34
2, 39601, Note_on_c, 0, 75, 65
2, 39601, Note_on_c, 0, 87, 70
2, 39603, Note_on_c, 0, 82, 58
2, 39604, Note_on_c, 0, 60, 0
2, 39629, Note_on_c, 0, 58, 0
2, 39660, Note_on_c, 0, 87, 0
2, 39663, Note_on_c, 0, 75, 0
2, 39671, Note_on_c, 0, 82, 0
2, 39685, Note_on_c, 0, 89, 63
2, 39685, Note_on_c, 0, 77, 58
2, 39713, Note_on_c, 0, 77, 0
2, 39719, Note_on_c, 0, 89, 0
2, 39805, Note_on_c, 0, 94, 87
2, 39806, Note_on_c, 0, 63, 77
2, 39806, Note_on_c, 0, 87, 83
2, 39807, Note_on_c, 0, 59, 74
2, 39807, Note_on_c, 0, 82, 74
2, 39809, Note_on_c, 0, 53, 64
2, 39809, Note_on_c, 0, 56, 51
2, 39818, Note_on_c, 0, 53, 0
2, 39820, Note_on_c, 0, 63, 0
2, 39832, Note_on_c, 0, 59, 0
2, 39848, Note_on_c, 0, 56, 0
2, 39893, Note_on_c, 0, 94, 0
2, 39899, Note_on_c, 0, 82, 0
2, 39901, Note_on_c, 0, 87, 0
2, 39928, Note_on_c, 0, 82, 53
2, 39928, Note_on_c, 0, 94, 64
2, 39955, Note_on_c, 0, 94, 0
2, 39956, Note_on_c, 0, 82, 0
2, 39976, Note_on_c, 0, 80, 32
2, 39976, Note_on_c, 0, 92, 33
2, 39985, Note_on_c, 0, 87, 11
2, 40023, Note_on_c, 0, 92, 0
2, 40026, Note_on_c, 0, 87, 0
2, 40026, Note_on_c, 0, 80, 0
2, 40047, Note_on_c, 0, 92, 63
2, 40050, Note_on_c, 0, 80, 56
2, 40054, Note_on_c, 0, 87, 49
2, 40057, Note_on_c, 0, 63, 69
2, 40059, Note_on_c, 0, 59, 62
2, 40062, Note_on_c, 0, 53, 43
2, 40067, Note_on_c, 0, 56, 29
2, 40069, Note_on_c, 0, 63, 0
2, 40073, Note_on_c, 0, 53, 0
2, 40074, Note_on_c, 0, 80, 0
2, 40075, Note_on_c, 0, 92, 0
2, 40086, Note_on_c, 0, 87, 0
2, 40088, Note_on_c, 0, 59, 0
2, 40102, Note_on_c, 0, 90, 29
2, 40107, Note_on_c, 0, 56, 0
2, 40112, Note_on_c, 0, 78, 30
2, 40130, Note_on_c, 0, 86, 32
2, 40142, Note_on_c, 0, 91, 30
2, 40152, Note_on_c, 0, 78, 0
2, 40160, Note_on_c, 0, 79, 35
2, 40166, Note_on_c, 0, 91, 0
2, 40172, Note_on_c, 0, 79, 0
2, 40186, Note_on_c, 0, 86, 0
2, 40186, Note_on_c, 0, 59, 39
2, 40186, Note_on_c, 0, 56, 26
2, 40189, Note_on_c, 0, 90, 0
2, 40201, Note_on_c, 0, 59, 0
2, 40201, Note_on_c, 0, 90, 50
2, 40204, Note_on_c, 0, 78, 50
2, 40211, Note_on_c, 0, 85, 58
2, 40216, Note_on_c, 0, 56, 0
2, 40290, Note_on_c, 0, 58, 54
2, 40292, Note_on_c, 0, 85, 0
2, 40297, Note_on_c, 0, 90, 0
2, 40297, Note_on_c, 0, 55, 34
2, 40302, Note_on_c, 0, 78, 0
2, 40312, Note_on_c, 0, 55, 0
2, 40314, Note_on_c, 0, 58, 0
2, 40331, Note_on_c, 0, 89, 62
2, 40334, Note_on_c, 0, 77, 50
2, 40404, Note_on_c, 0, 77, 0
2, 40405, Note_on_c, 0, 89, 0
2, 40445, Note_on_c, 0, 86, 70
2, 40521, Note_on_c, 0, 86, 0
2, 40530, Note_on_c, 0, 63, 64
2, 40534, Note_on_c, 0, 52, 52
2, 40535, Note_on_c, 0, 58, 52
2, 40541, Note_on_c, 0, 63, 0
2, 40544, Note_on_c, 0, 52, 0
2, 40570, Note_on_c, 0, 88, 87
2, 40572, Note_on_c, 0, 58, 0
2, 40572, Note_on_c, 0, 76, 78
2, 40654, Note_on_c, 0, 88, 0
2, 40661, Note_on_c, 0, 76, 0
2, 40688, Note_on_c, 0, 84, 68
2, 40750, Note_on_c, 0, 85, 25
2, 40757, Note_on_c, 0, 84, 0
2, 40772, Note_on_c, 0, 85, 0
2, 40776, Note_on_c, 0, 67, 60
2, 40780, Note_on_c, 0, 63, 36
2, 40786, Note_on_c, 0, 67, 0
2, 40791, Note_on_c, 0, 60, 35
2, 40803, Note_on_c, 0, 70, 70
2, 40804, Note_on_c, 0, 82, 69
2, 40809, Note_on_c, 0, 63, 0
2, 40811, Note_on_c, 0, 83, 63
2, 40822, Note_on_c, 0, 83, 0
2, 40825, Note_on_c, 0, 60, 0
2, 40882, Note_on_c, 0, 82, 0
2, 40885, Note_on_c, 0, 70, 0
2, 40903, Note_on_c, 0, 60, 25
2, 40922, Note_on_c, 0, 60, 0
2, 40929, Note_on_c, 0, 80, 42
2, 40935, Note_on_c, 0, 68, 46
2, 41003, Note_on_c, 0, 68, 0
2, 41004, Note_on_c, 0, 80, 0
2, 41043, Note_on_c, 0, 79, 52
2, 41043, Note_on_c, 0, 73, 34
2, 41046, Note_on_c, 0, 66, 56
2, 41047, Note_on_c, 0, 67, 37
2, 41051, Note_on_c, 0, 56, 37
2, 41053, Note_on_c, 0, 62, 35
2, 41100, Note_on_c, 0, 62, 0
2, 41105, Note_on_c, 0, 67, 0
2, 41121, Note_on_c, 0, 74, 34
2, 41140, Note_on_c, 0, 73, 0
2, 41141, Note_on_c, 0, 79, 0
2, 41146, Note_on_c, 0, 74, 0
2, 41151, Note_on_c, 0, 62, 27
2, 41165, Note_on_c, 0, 66, 0
2, 41178, Note_on_c, 0, 67, 50
2, 41212, Note_on_c, 0, 67, 0
2, 41229, Note_on_c, 0, 56, 0
2, 41237, Note_on_c, 0, 62, 0
2, 41250, Note_on_c, 0, 62, 24
2, 41251, Note_on_c, 0, 65, 65
2, 41255, Note_on_c, 0, 73, 74
2, 41256, Note_on_c, 0, 55, 48
2, 41259, Note_on_c, 0, 60, 55
2, 41264, Note_on_c, 0, 74, 91
2, 41278, Note_on_c, 0, 73, 0
2, 41333, Note_on_c, 0, 62, 0
2, 41358, Note_on_c, 0, 62, 18
2, 41359, Note_on_c, 0, 74, 0
2, 41373, Note_on_c, 0, 77, 74
2, 41394, Note_on_c, 0, 65, 0
2, 41402, Note_on_c, 0, 60, 0
2, 41404, Note_on_c, 0, 62, 0
2, 41422, Note_on_c, 0, 74, 45
2, 41423, Note_on_c, 0, 55, 0
2, 41449, Note_on_c, 0, 77, 0
2, 41490, Note_on_c, 0, 74, 0
2, 41529, Note_on_c, 0, 63, 38
2, 41529, Note_on_c, 0, 75, 55
2, 41533, Note_on_c, 0, 59, 47
2, 41534, Note_on_c, 0, 56, 33
2, 41537, Note_on_c, 0, 53, 24
2, 41636, Note_on_c, 0, 53, 0
2, 41640, Note_on_c, 0, 59, 0
2, 41648, Note_on_c, 0, 56, 0
2, 41658, Note_on_c, 0, 63, 0
2, 41763, Note_on_c, 0, 75, 0
2, 41768, Note_on_c, 0, 65, 47
2, 41771, Note_on_c, 0, 62, 37
2, 41774, Note_on_c, 0, 60, 38
2, 41778, Note_on_c, 0, 55, 34
2, 41838, Note_on_c, 0, 65, 0
2, 41839, Note_on_c, 0, 72, 35
2, 41853, Note_on_c, 0, 62, 0
2, 41858, Note_on_c, 0, 60, 0
2, 41863, Note_on_c, 0, 72, 0
2, 41875, Note_on_c, 0, 55, 0
2, 41879, Note_on_c, 0, 73, 25
2, 41901, Note_on_c, 0, 73, 0
2, 41906, Note_on_c, 0, 75, 35
2, 41941, Note_on_c, 0, 75, 0
2, 41949, Note_on_c, 0, 76, 71
2, 41980, Note_on_c, 0, 76, 0
2, 41990, Note_on_c, 0, 78, 64
2, 42007, Note_on_c, 0, 58, 36
2, 42008, Note_on_c, 0, 63, 36
2, 42016, Note_on_c, 0, 78, 0
2, 42025, Note_on_c, 0, 63, 0
2, 42033, Note_on_c, 0, 79, 62
2, 42039, Note_on_c, 0, 58, 0
2, 42064, Note_on_c, 0, 79, 0
2, 42095, Note_on_c, 0, 80, 71
2, 42110, Note_on_c, 0, 63, 51
2, 42115, Note_on_c, 0, 58, 49
2, 42120, Note_on_c, 0, 52, 30
2, 42126, Note_on_c, 0, 80, 0
2, 42135, Note_on_c, 0, 63, 0
2, 42135, Note_on_c, 0, 52, 0
2, 42149, Note_on_c, 0, 82, 61
2, 42150, Note_on_c, 0, 58, 0
2, 42183, Note_on_c, 0, 82, 0
2, 42214, Note_on_c, 0, 83, 73
2, 42234, Note_on_c, 0, 63, 38
2, 42243, Note_on_c, 0, 83, 0
2, 42245, Note_on_c, 0, 63, 0
2, 42275, Note_on_c, 0, 84, 76
2, 42299, Note_on_c, 0, 84, 0
2, 42335, Note_on_c, 0, 87, 79
2, 42338, Note_on_c, 0, 63, 47
2, 42340, Note_on_c, 0, 67, 54
2, 42349, Note_on_c, 0, 60, 31
2, 42351, Note_on_c, 0, 67, 0
2, 42362, Note_on_c, 0, 87, 0
2, 42363, Note_on_c, 0, 60, 0
2, 42376, Note_on_c, 0, 63, 0
2, 42394, Note_on_c, 0, 89, 68
2, 42426, Note_on_c, 0, 89, 0
2, 42460, Note_on_c, 0, 91, 73
2, 42463, Note_on_c, 0, 67, 47
2, 42466, Note_on_c, 0, 63, 34
2, 42467, Note_on_c, 0, 79, 57
2, 42475, Note_on_c, 0, 67, 0
2, 42477, Note_on_c, 0, 79, 0
2, 42481, Note_on_c, 0, 91, 0
2, 42489, Note_on_c, 0, 63, 0
2, 42519, Note_on_c, 0, 78, 57
2, 42520, Note_on_c, 0, 90, 63
2, 42520, Note_on_c, 0, 66, 63
2, 42523, Note_on_c, 0, 56, 43
2, 42526, Note_on_c, 0, 62, 50
2, 42536, Note_on_c, 0, 60, 24
2, 42556, Note_on_c, 0, 78, 0
2, 42557, Note_on_c, 0, 77, 52
2, 42559, Note_on_c, 0, 90, 0
2, 42560, Note_on_c, 0, 89, 63
2, 42563, Note_on_c, 0, 60, 0
2, 42584, Note_on_c, 0, 62, 0
2, 42588, Note_on_c, 0, 66, 0
2, 42593, Note_on_c, 0, 89, 0
2, 42599, Note_on_c, 0, 77, 0
2, 42600, Note_on_c, 0, 56, 0
2, 42621, Note_on_c, 0, 66, 51
2, 42627, Note_on_c, 0, 56, 44
2, 42629, Note_on_c, 0, 87, 45
2, 42629, Note_on_c, 0, 75, 65
2, 42635, Note_on_c, 0, 62, 22
2, 42682, Note_on_c, 0, 66, 0
2, 42691, Note_on_c, 0, 87, 0
2, 42695, Note_on_c, 0, 75, 0
2, 42713, Note_on_c, 0, 56, 0
2, 42730, Note_on_c, 0, 85, 48
2, 42734, Note_on_c, 0, 65, 49
2, 42736, Note_on_c, 0, 73, 38
2, 42742, Note_on_c, 0, 58, 42
2, 42744, Note_on_c, 0, 55, 32
2, 42755, Note_on_c, 0, 86, 62
2, 42759, Note_on_c, 0, 85, 0
2, 42770, Note_on_c, 0, 73, 0
2, 42774, Note_on_c, 0, 74, 51
2, 42804, Note_on_c, 0, 74, 0
2, 42808, Note_on_c, 0, 86, 0
2, 42827, Note_on_c, 0, 65, 0
2, 42832, Note_on_c, 0, 62, 0
2, 42850, Note_on_c, 0, 55, 0
2, 42851, Note_on_c, 0, 58, 0
2, 42927, Note_on_c, 0, 63, 62
2, 42929, Note_on_c, 0, 58, 59
2, 42931, Note_on_c, 0, 52, 40
2, 42960, Note_on_c, 0, 63, 0
2, 42967, Note_on_c, 0, 52, 0
2, 42972, Note_on_c, 0, 58, 0
2, 43046, Note_on_c, 0, 84, 85
2, 43050, Note_on_c, 0, 72, 78
2, 43072, Note_on_c, 0, 72, 0
2, 43078, Note_on_c, 0, 84, 0
2, 43103, Note_on_c, 0, 82, 55
2, 43149, Note_on_c, 0, 82, 0
2, 43169, Note_on_c, 0, 82, 67
2, 43170, Note_on_c, 0, 63, 49
2, 43171, Note_on_c, 0, 67, 60
2, 43174, Note_on_c, 0, 56, 34
2, 43178, Note_on_c, 0, 60, 50
2, 43183, Note_on_c, 0, 67, 0
2, 43192, Note_on_c, 0, 56, 0
2, 43215, Note_on_c, 0, 63, 0
2, 43216, Note_on_c, 0, 82, 0
2, 43222, Note_on_c, 0, 60, 0
2, 43224, Note_on_c, 0, 80, 54
2, 43267, Note_on_c, 0, 80, 0
2, 43292, Note_on_c, 0, 80, 60
2, 43327, Note_on_c, 0, 80, 0
2, 43346, Note_on_c, 0, 79, 50
2, 43380, Note_on_c, 0, 79, 0
2, 43410, Note_on_c, 0, 79, 65
2, 43415, Note_on_c, 0, 66, 63
2, 43416, Note_on_c, 0, 56, 47
2, 43418, Note_on_c, 0, 62, 56
2, 43425, Note_on_c, 0, 60, 38
2, 43437, Note_on_c, 0, 66, 0
2, 43440, Note_on_c, 0, 60, 0
2, 43441, Note_on_c, 0, 62, 0
2, 43447, Note_on_c, 0, 79, 0
2, 43461, Note_on_c, 0, 56, 0
2, 43466, Note_on_c, 0, 77, 58
2, 43529, Note_on_c, 0, 77, 0
2, 43532, Note_on_c, 0, 62, 28
2, 43559, Note_on_c, 0, 62, 0
2, 43567, Note_on_c, 0, 75, 72
2, 43624, Note_on_c, 0, 75, 0
2, 43649, Note_on_c, 0, 74, 91
2, 43653, Note_on_c, 0, 62, 53
2, 43654, Note_on_c, 0, 65, 55
2, 43660, Note_on_c, 0, 60, 44
2, 43666, Note_on_c, 0, 65, 0
2, 43673, Note_on_c, 0, 60, 0
2, 43689, Note_on_c, 0, 62, 0
2, 43728, Note_on_c, 0, 74, 0
2, 43728, Note_on_c, 0, 75, 50
2, 43769, Note_on_c, 0, 75, 0
2, 43784, Note_on_c, 0, 77, 66
2, 43790, Note_on_c, 0, 62, 31
2, 43799, Note_on_c, 0, 60, 24
2, 43816, Note_on_c, 0, 77, 0
2, 43818, Note_on_c, 0, 60, 0
2, 43824, Note_on_c, 0, 62, 0
2, 43827, Note_on_c, 0, 70, 58
2, 43886, Note_on_c, 0, 70, 0
2, 43910, Note_on_c, 0, 62, 40
2, 43926, Note_on_c, 0, 62, 0
2, 43934, Note_on_c, 0, 70, 73
2, 44017, Note_on_c, 0, 64, 45
2, 44018, Note_on_c, 0, 57, 51
2, 44021, Note_on_c, 0, 60, 38
2, 44023, Note_on_c, 0, 55, 31
2, 44028, Note_on_c, 0, 64, 0
2, 44031, Note_on_c, 0, 70, 0
2, 44032, Note_on_c, 0, 60, 0
2, 44033, Note_on_c, 0, 55, 0
2, 44041, Note_on_c, 0, 57, 0
2, 44052, Note_on_c, 0, 67, 66
2, 44144, Note_on_c, 0, 69, 82
2, 44150, Note_on_c, 0, 67, 0
2, 44201, Note_on_c, 0, 69, 0
2, 44230, Note_on_c, 0, 70, 81
2, 44275, Note_on_c, 0, 70, 0
2, 44279, Note_on_c, 0, 64, 49
2, 44288, Note_on_c, 0, 60, 34
2, 44290, Note_on_c, 0, 64, 0
2, 44299, Note_on_c, 0, 57, 24
2, 44302, Note_on_c, 0, 60, 0
2, 44302, Note_on_c, 0, 66, 69
2, 44317, Note_on_c, 0, 57, 0
2, 44365, Note_on_c, 0, 66, 0
2, 44385, Note_on_c, 0, 66, 77
2, 44460, Note_on_c, 0, 66, 0
2, 44468, Note_on_c, 0, 65, 71
2, 44515, Note_on_c, 0, 65, 0
2, 44518, Note_on_c, 0, 54, 49
2, 44520, Note_on_c, 0, 60, 48
2, 44523, Note_on_c, 0, 50, 35
2, 44531, Note_on_c, 0, 60, 0
2, 44539, Note_on_c, 0, 50, 0
2, 44552, Note_on_c, 0, 63, 54
2, 44560, Note_on_c, 0, 54, 0
2, 44615, Note_on_c, 0, 63, 0
2, 44628, Note_on_c, 0, 62, 74
2, 44644, Note_on_c, 0, 49, 27
2, 44658, Note_on_c, 0, 49, 0
2, 44670, Note_on_c, 0, 62, 0
2, 44692, Note_on_c, 0, 60, 51
2, 44748, Note_on_c, 0, 50, 42
2, 44758, Note_on_c, 0, 60, 0
2, 44769, Note_on_c, 0, 50, 0
2, 44777, Note_on_c, 0, 58, 60
2, 44826, Note_on_c, 0, 58, 0
2, 44856, Note_on_c, 0, 50, 35
2, 44863, Note_on_c, 0, 57, 40
2, 44870, Note_on_c, 0, 50, 0
2, 44887, Note_on_c, 0, 57, 0
2, 44904, Note_on_c, 0, 60, 68
2, 44969, Note_on_c, 0, 60, 0
2, 44977, Note_on_c, 0, 48, 39
2, 44978, Note_on_c, 0, 54, 51
2, 44991, Note_on_c, 0, 48, 0
2, 45034, Note_on_c, 0, 54, 0
2, 45214, Note_on_c, 0, 36, 48
2, 45229, Note_on_c, 0, 36, 0
2, 45259, Note_on_c, 0, 53, 52
2, 45313, Note_on_c, 0, 53, 0
2, 45336, Note_on_c, 0, 58, 62
2, 45375, Note_on_c, 0, 63, 72
2, 45401, Note_on_c, 0, 58, 0
2, 45446, Note_on_c, 0, 63, 0
2, 45446, Note_on_c, 0, 48, 47
2, 45459, Note_on_c, 0, 48, 0
2, 45462, Note_on_c, 0, 57, 45
2, 45476, Note_on_c, 0, 57, 0
2, 45499, Note_on_c, 0, 60, 42
2, 45550, Note_on_c, 0, 60, 0
2, 45571, Note_on_c, 0, 65, 74
2, 45577, Note_on_c, 0, 53, 51
2, 45591, Note_on_c, 0, 53, 0
2, 45599, Note_on_c, 0, 65, 0
2, 45631, Note_on_c, 0, 54, 25
2, 45661, Note_on_c, 0, 54, 0
2, 45726, Note_on_c, 0, 54, 63
2, 45794, Note_on_c, 0, 54, 0
2, 45802, Note_on_c, 0, 59, 64
2, 45804, Note_on_c, 0, 46, 38
2, 45833, Note_on_c, 0, 59, 0
2, 45836, Note_on_c, 0, 46, 0
2, 45848, Note_on_c, 0, 64, 68
2, 45902, Note_on_c, 0, 64, 0
2, 45929, Note_on_c, 0, 56, 44
2, 45932, Note_on_c, 0, 52, 33
2, 45945, Note_on_c, 0, 52, 0
2, 45971, Note_on_c, 0, 61, 45
2, 46033, Note_on_c, 0, 56, 0
2, 46042, Note_on_c, 0, 66, 71
2, 46052, Note_on_c, 0, 56, 25
2, 46066, Note_on_c, 0, 56, 0
2, 46072, Note_on_c, 0, 61, 0
2, 46075, Note_on_c, 0, 66, 0
2, 46095, Note_on_c, 0, 65, 47
2, 46140, Note_on_c, 0, 65, 0
2, 46164, Note_on_c, 0, 62, 73
2, 46166, Note_on_c, 0, 46, 42
2, 46171, Note_on_c, 0, 39, 26
2, 46189, Note_on_c, 0, 39, 0
2, 46199, Note_on_c, 0, 62, 0
2, 46208, Note_on_c, 0, 46, 0
2, 46223, Note_on_c, 0, 58, 21
2, 46266, Note_on_c, 0, 58, 0
2, 46281, Note_on_c, 0, 55, 57
2, 46290, Note_on_c, 0, 46, 33
2, 46307, Note_on_c, 0, 55, 0
2, 46314, Note_on_c, 0, 46, 0
2, 46323, Note_on_c, 0, 53, 64
2, 46407, Note_on_c, 0, 46, 21
2, 46416, Note_on_c, 0, 53, 0
2, 46418, Note_on_c, 0, 46, 0
2, 46441, Note_on_c, 0, 53, 73
2, 46520, Note_on_c, 0, 38, 72
2, 46547, Note_on_c, 0, 38, 0
2, 46641, Note_on_c, 0, 43, 48
2, 46644, Note_on_c, 0, 53, 0
2, 46676, Note_on_c, 0, 56, 80
2, 46679, Note_on_c, 0, 43, 0
2, 46752, Note_on_c, 0, 56, 0
2, 46759, Note_on_c, 0, 50, 26
2, 46761, Note_on_c, 0, 54, 60
2, 46776, Note_on_c, 0, 50, 0
2, 46797, Note_on_c, 0, 54, 0
2, 46815, Note_on_c, 0, 55, 53
2, 46856, Note_on_c, 0, 55, 0
2, 46878, Note_on_c, 0, 43, 55
2, 46880, Note_on_c, 0, 58, 75
2, 46881, Note_on_c, 0, 53, 59
2, 46891, Note_on_c, 0, 53, 0
2, 46891, Note_on_c, 0, 43, 0
2, 46922, Note_on_c, 0, 58, 0
2, 46936, Note_on_c, 0, 59, 62
2, 46962, Note_on_c, 0, 54, 21
2, 46980, Note_on_c, 0, 54, 0
2, 46987, Note_on_c, 0, 59, 0
2, 47001, Note_on_c, 0, 62, 83
2, 47015, Note_on_c, 0, 48, 43
2, 47029, Note_on_c, 0, 48, 0
2, 47041, Note_on_c, 0, 62, 0
2, 47055, Note_on_c, 0, 59, 53
2, 47105, Note_on_c, 0, 59, 0
2, 47123, Note_on_c, 0, 55, 50
2, 47123, Note_on_c, 0, 60, 62
2, 47137, Note_on_c, 0, 55, 0
2, 47154, Note_on_c, 0, 60, 0
2, 47174, Note_on_c, 0, 62, 59
2, 47223, Note_on_c, 0, 62, 0
2, 47238, Note_on_c, 0, 63, 62
2, 47252, Note_on_c, 0, 51, 46
2, 47252, Note_on_c, 0, 62, 62
2, 47259, Note_on_c, 0, 57, 51
2, 47265, Note_on_c, 0, 62, 0
2, 47268, Note_on_c, 0, 63, 0
2, 47280, Note_on_c, 0, 51, 0
2, 47286, Note_on_c, 0, 57, 0
2, 47295, Note_on_c, 0, 65, 58
2, 47354, Note_on_c, 0, 65, 0
2, 47477, Note_on_c, 0, 65, 59
2, 47481, Note_on_c, 0, 60, 51
2, 47482, Note_on_c, 0, 61, 34
2, 47483, Note_on_c, 0, 56, 32
2, 47524, Note_on_c, 0, 65, 34
2, 47525, Note_on_c, 0, 61, 36
2, 47526, Note_on_c, 0, 60, 46
2, 47533, Note_on_c, 0, 56, 29
2, 47558, Note_on_c, 0, 56, 0
2, 47558, Note_on_c, 0, 61, 0
2, 47558, Note_on_c, 0, 65, 0
2, 47558, Note_on_c, 0, 60, 0
2, 47611, Note_on_c, 0, 69, 58
2, 47629, Note_on_c, 0, 69, 0
2, 47636, Note_on_c, 0, 60, 0
2, 47646, Note_on_c, 0, 61, 0
2, 47646, Note_on_c, 0, 72, 76
2, 47647, Note_on_c, 0, 65, 0
2, 47683, Note_on_c, 0, 56, 0
2, 47713, Note_on_c, 0, 72, 0
2, 47725, Note_on_c, 0, 69, 60
2, 47730, Note_on_c, 0, 61, 50
2, 47733, Note_on_c, 0, 55, 54
2, 47734, Note_on_c, 0, 64, 36
2, 47746, Note_on_c, 0, 64, 0
2, 47747, Note_on_c, 0, 55, 0
2, 47749, Note_on_c, 0, 69, 0
2, 47753, Note_on_c, 0, 61, 0
2, 47769, Note_on_c, 0, 70, 53
2, 47836, Note_on_c, 0, 70, 0
2, 47843, Note_on_c, 0, 72, 73
2, 47878, Note_on_c, 0, 72, 0
2, 47895, Note_on_c, 0, 73, 51
2, 47967, Note_on_c, 0, 75, 69
2, 47968, Note_on_c, 0, 60, 78
2, 47969, Note_on_c, 0, 63, 70
2, 47972, Note_on_c, 0, 53, 53
2, 47973, Note_on_c, 0, 58, 56
2, 47979, Note_on_c, 0, 63, 0
2, 47983, Note_on_c, 0, 73, 0
2, 47984, Note_on_c, 0, 53, 0
2, 47996, Note_on_c, 0, 75, 0
2, 48016, Note_on_c, 0, 60, 0
2, 48017, Note_on_c, 0, 58, 0
2, 48039, Note_on_c, 0, 79, 70
2, 48078, Note_on_c, 0, 79, 0
2, 48099, Note_on_c, 0, 84, 96
2, 48129, Note_on_c, 0, 84, 0
2, 48153, Note_on_c, 0, 84, 83
2, 48190, Note_on_c, 0, 84, 0
2, 48213, Note_on_c, 0, 84, 79
2, 48222, Note_on_c, 0, 63, 62
2, 48222, Note_on_c, 0, 60, 66
2, 48229, Note_on_c, 0, 58, 40
2, 48231, Note_on_c, 0, 63, 0
2, 48244, Note_on_c, 0, 84, 0
2, 48249, Note_on_c, 0, 60, 0
2, 48270, Note_on_c, 0, 75, 63
2, 48276, Note_on_c, 0, 58, 0
2, 48322, Note_on_c, 0, 75, 0
2, 48332, Note_on_c, 0, 79, 66
2, 48364, Note_on_c, 0, 79, 0
2, 48379, Note_on_c, 0, 79, 81
2, 48421, Note_on_c, 0, 79, 0
2, 48441, Note_on_c, 0, 79, 63
2, 48452, Note_on_c, 0, 62, 73
2, 48453, Note_on_c, 0, 55, 73
2, 48453, Note_on_c, 0, 58, 64
2, 48460, Note_on_c, 0, 53, 39
2, 48467, Note_on_c, 0, 62, 0
2, 48472, Note_on_c, 0, 53, 0
2, 48474, Note_on_c, 0, 79, 0
2, 48480, Note_on_c, 0, 55, 0
2, 48481, Note_on_c, 0, 58, 0
2, 48502, Note_on_c, 0, 70, 67
2, 48541, Note_on_c, 0, 70, 0
2, 48568, Note_on_c, 0, 73, 59
2, 48596, Note_on_c, 0, 73, 0
2, 48609, Note_on_c, 0, 73, 59
2, 48646, Note_on_c, 0, 73, 0
2, 48672, Note_on_c, 0, 73, 49
2, 48678, Note_on_c, 0, 51, 57
2, 48685, Note_on_c, 0, 58, 62
2, 48705, Note_on_c, 0, 51, 0
2, 48723, Note_on_c, 0, 58, 0
2, 48732, Note_on_c, 0, 64, 45
2, 48734, Note_on_c, 0, 73, 0
2, 48735, Note_on_c, 0, 65, 36
2, 48747, Note_on_c, 0, 65, 0
2, 48810, Note_on_c, 0, 52, 49
2, 48812, Note_on_c, 0, 64, 0
2, 48812, Note_on_c, 0, 58, 35
2, 48817, Note_on_c, 0, 72, 70
2, 48822, Note_on_c, 0, 58, 0
2, 48822, Note_on_c, 0, 52, 0
2, 48849, Note_on_c, 0, 72, 0
2, 48861, Note_on_c, 0, 72, 71
2, 48928, Note_on_c, 0, 72, 0
2, 48937, Note_on_c, 0, 53, 58
2, 48938, Note_on_c, 0, 60, 56
2, 48942, Note_on_c, 0, 56, 31
2, 48951, Note_on_c, 0, 60, 0
2, 48954, Note_on_c, 0, 56, 0
2, 48965, Note_on_c, 0, 53, 0
2, 48985, Note_on_c, 0, 63, 49
2, 49038, Note_on_c, 0, 63, 0
2, 49050, Note_on_c, 0, 69, 80
2, 49057, Note_on_c, 0, 62, 87
2, 49102, Note_on_c, 0, 69, 0
2, 49103, Note_on_c, 0, 66, 59
2, 49171, Note_on_c, 0, 51, 49
2, 49181, Note_on_c, 0, 62, 0
2, 49188, Note_on_c, 0, 66, 0
2, 49201, Note_on_c, 0, 51, 0
2, 49212, Note_on_c, 0, 57, 49
2, 49214, Note_on_c, 0, 66, 40
2, 49215, Note_on_c, 0, 62, 47
2, 49278, Note_on_c, 0, 57, 0
2, 49290, Note_on_c, 0, 62, 0
2, 49290, Note_on_c, 0, 51, 70
2, 49300, Note_on_c, 0, 66, 0
2, 49321, Note_on_c, 0, 51, 0
2, 49412, Note_on_c, 0, 78, 83
2, 49412, Note_on_c, 0, 83, 87
2, 49413, Note_on_c, 0, 56, 63
2, 49414, Note_on_c, 0, 71, 95
2, 49415, Note_on_c, 0, 62, 80
2, 49418, Note_on_c, 0, 66, 77
2, 49422, Note_on_c, 0, 76, 34
2, 49423, Note_on_c, 0, 81, 30
2, 49433, Note_on_c, 0, 76, 0
2, 49439, Note_on_c, 0, 81, 0
2, 49478, Note_on_c, 0, 79, 48
2, 49495, Note_on_c, 0, 78, 0
2, 49531, Note_on_c, 0, 83, 0
2, 49545, Note_on_c, 0, 71, 0
2, 49548, Note_on_c, 0, 56, 0
2, 49549, Note_on_c, 0, 66, 0
2, 49560, Note_on_c, 0, 79, 0
2, 49570, Note_on_c, 0, 66, 68
2, 49570, Note_on_c, 0, 82, 71
2, 49573, Note_on_c, 0, 56, 52
2, 49575, Note_on_c, 0, 70, 62
2, 49662, Note_on_c, 0, 82, 0
2, 49664, Note_on_c, 0, 66, 0
2, 49666, Note_on_c, 0, 56, 0
2, 49671, Note_on_c, 0, 70, 0
2, 49691, Note_on_c, 0, 66, 40
2, 49692, Note_on_c, 0, 56, 39
2, 49697, Note_on_c, 0, 80, 34
2, 49701, Note_on_c, 0, 68, 31
2, 49706, Note_on_c, 0, 75, 36
2, 49748, Note_on_c, 0, 62, 0
2, 49756, Note_on_c, 0, 80, 0
2, 49759, Note_on_c, 0, 68, 0
2, 49759, Note_on_c, 0, 66, 0
2, 49761, Note_on_c, 0, 75, 0
2, 49761, Note_on_c, 0, 56, 0
2, 49768, Note_on_c, 0, 62, 39
2, 49774, Note_on_c, 0, 56, 23
2, 49776, Note_on_c, 0, 69, 66
2, 49777, Note_on_c, 0, 81, 52
2, 49785, Note_on_c, 0, 75, 23
2, 49790, Note_on_c, 0, 81, 0
2, 49796, Note_on_c, 0, 56, 0
2, 49798, Note_on_c, 0, 69, 0
2, 49808, Note_on_c, 0, 75, 0
2, 49815, Note_on_c, 0, 66, 61
2, 49816, Note_on_c, 0, 56, 55
2, 49820, Note_on_c, 0, 70, 47
2, 49827, Control_c, 0, 64, 127
2, 49828, Note_on_c, 0, 82, 47
2, 49859, Note_on_c, 0, 82, 0
2, 49860, Note_on_c, 0, 70, 0
2, 49869, Note_on_c, 0, 66, 0
2, 49876, Note_on_c, 0, 56, 0
2, 49882, Note_on_c, 0, 62, 0
2, 49893, Control_c, 0, 64, 0
2, 49898, Note_on_c, 0, 84, 79
2, 49899, Note_on_c, 0, 65, 63
2, 49899, Note_on_c, 0, 62, 24
2, 49900, Note_on_c, 0, 72, 47
2, 49906, Note_on_c, 0, 60, 47
2, 49910, Note_on_c, 0, 55, 43
2, 49923, Note_on_c, 0, 72, 0
2, 49924, Note_on_c, 0, 65, 0
2, 49925, Note_on_c, 0, 84, 0
2, 49938, Note_on_c, 0, 60, 0
2, 49949, Note_on_c, 0, 65, 49
2, 49952, Note_on_c, 0, 60, 29
2, 49953, Note_on_c, 0, 70, 46
2, 49956, Note_on_c, 0, 82, 42
2, 50020, Note_on_c, 0, 65, 0
2, 50021, Note_on_c, 0, 82, 0
2, 50023, Note_on_c, 0, 60, 0
2, 50024, Note_on_c, 0, 55, 0
2, 50031, Note_on_c, 0, 70, 0
2, 50033, Note_on_c, 0, 62, 0
2, 50053, Note_on_c, 0, 65, 35
2, 50054, Note_on_c, 0, 81, 54
2, 50055, Note_on_c, 0, 69, 58
2, 50055, Note_on_c, 0, 55, 49
2, 50057, Note_on_c, 0, 62, 33
2, 50060, Note_on_c, 0, 60, 45
2, 50094, Note_on_c, 0, 81, 0
2, 50109, Note_on_c, 0, 69, 0
2, 50113, Note_on_c, 0, 65, 0
2, 50117, Note_on_c, 0, 60, 0
2, 50121, Note_on_c, 0, 55, 0
2, 50122, Note_on_c, 0, 62, 0
2, 50135, Note_on_c, 0, 82, 67
2, 50136, Note_on_c, 0, 70, 51
2, 50137, Note_on_c, 0, 65, 59
2, 50142, Note_on_c, 0, 55, 18
2, 50143, Note_on_c, 0, 62, 38
2, 50148, Note_on_c, 0, 70, 0
2, 50149, Note_on_c, 0, 60, 34
2, 50151, Note_on_c, 0, 65, 0
2, 50157, Note_on_c, 0, 62, 0
2, 50159, Note_on_c, 0, 82, 0
2, 50161, Note_on_c, 0, 60, 0
2, 50169, Note_on_c, 0, 55, 0
2, 50295, Note_on_c, 0, 56, 81
2, 50295, Note_on_c, 0, 87, 91
2, 50296, Note_on_c, 0, 61, 77
2, 50296, Note_on_c, 0, 75, 95
2, 50297, Note_on_c, 0, 65, 88
2, 50297, Note_on_c, 0, 82, 85
2, 50297, Note_on_c, 0, 60, 79
2, 50388, Control_c, 0, 64, 127
2, 50390, Note_on_c, 0, 65, 0
2, 50392, Note_on_c, 0, 56, 0
2, 50394, Note_on_c, 0, 87, 0
2, 50395, Note_on_c, 0, 75, 0
2, 50397, Note_on_c, 0, 61, 0
2, 50398, Note_on_c, 0, 82, 0
2, 50398, Note_on_c, 0, 60, 0
2, 50416, Note_on_c, 0, 65, 57
2, 50418, Note_on_c, 0, 86, 66
2, 50418, Note_on_c, 0, 74, 62
2, 50418, Note_on_c, 0, 56, 37
2, 50419, Note_on_c, 0, 61, 56
2, 50423, Note_on_c, 0, 60, 55
2, 50449, Note_on_c, 0, 86, 0
2, 50467, Note_on_c, 0, 65, 0
2, 50467, Note_on_c, 0, 74, 0
2, 50475, Note_on_c, 0, 60, 0
2, 50481, Note_on_c, 0, 56, 0
2, 50485, Note_on_c, 0, 61, 0
2, 50497, Note_on_c, 0, 65, 64
2, 50498, Note_on_c, 0, 75, 72
2, 50498, Note_on_c, 0, 87, 69
2, 50502, Note_on_c, 0, 56, 51
2, 50502, Note_on_c, 0, 82, 53
2, 50503, Note_on_c, 0, 61, 31
2, 50512, Control_c, 0, 64, 0
2, 50513, Note_on_c, 0, 82, 0
2, 50516, Note_on_c, 0, 75, 0
2, 50517, Note_on_c, 0, 65, 0
2, 50522, Note_on_c, 0, 56, 0
2, 50522, Note_on_c, 0, 87, 0
2, 50526, Note_on_c, 0, 61, 0
2, 50536, Control_c, 0, 64, 127
2, 50634, Control_c, 0, 64, 0
2, 50650, Note_on_c, 0, 60, 60
2, 50651, Note_on_c, 0, 94, 88
2, 50652, Note_on_c, 0, 82, 83
2, 50652, Note_on_c, 0, 87, 83
2, 50654, Note_on_c, 0, 53, 68
2, 50654, Note_on_c, 0, 58, 53
2, 50655, Note_on_c, 0, 63, 83
2, 50686, Control_c, 0, 64, 127
2, 50726, Note_on_c, 0, 94, 0
2, 50729, Note_on_c, 0, 82, 0
2, 50735, Note_on_c, 0, 53, 0
2, 50735, Note_on_c, 0, 87, 0
2, 50737, Note_on_c, 0, 63, 0
2, 50750, Note_on_c, 0, 60, 0
2, 50753, Note_on_c, 0, 58, 0
2, 50761, Control_c, 0, 64, 0
2, 50775, Note_on_c, 0, 60, 57
2, 50776, Note_on_c, 0, 63, 60
2, 50777, Note_on_c, 0, 53, 61
2, 50779, Control_c, 0, 64, 127
2, 50780, Note_on_c, 0, 79, 65
2, 50781, Note_on_c, 0, 58, 40
2, 50781, Note_on_c, 0, 91, 60
2, 50788, Note_on_c, 0, 90, 36
2, 50808, Note_on_c, 0, 91, 0
2, 50823, Note_on_c, 0, 53, 0
2, 50823, Note_on_c, 0, 79, 0
2, 50827, Note_on_c, 0, 63, 0
2, 50835, Note_on_c, 0, 90, 0
2, 50836, Note_on_c, 0, 60, 0
2, 50840, Note_on_c, 0, 58, 0
2, 50851, Control_c, 0, 64, 0
2, 50859, Note_on_c, 0, 80, 62
2, 50859, Note_on_c, 0, 92, 69
2, 50862, Note_on_c, 0, 87, 64
2, 50862, Note_on_c, 0, 60, 62
2, 50864, Note_on_c, 0, 63, 39
2, 50864, Note_on_c, 0, 53, 36
2, 50869, Note_on_c, 0, 80, 0
2, 50871, Note_on_c, 0, 58, 29
2, 50873, Note_on_c, 0, 87, 0
2, 50874, Note_on_c, 0, 60, 0
2, 50875, Note_on_c, 0, 63, 0
2, 50881, Note_on_c, 0, 92, 0
2, 50884, Note_on_c, 0, 58, 0
2, 50892, Note_on_c, 0, 53, 0
2, 50972, Note_on_c, 0, 94, 69
2, 50973, Note_on_c, 0, 63, 71
2, 50973, Note_on_c, 0, 82, 57
2, 50974, Note_on_c, 0, 87, 64
2, 50975, Note_on_c, 0, 59, 64
2, 50976, Note_on_c, 0, 53, 50
2, 50979, Note_on_c, 0, 56, 43
2, 50985, Note_on_c, 0, 63, 0
2, 50986, Note_on_c, 0, 59, 0
2, 50988, Note_on_c, 0, 53, 0
2, 50990, Note_on_c, 0, 82, 0
2, 50991, Note_on_c, 0, 87, 0
2, 50993, Note_on_c, 0, 56, 0
2, 51000, Note_on_c, 0, 94, 0
2, 51092, Note_on_c, 0, 63, 59
2, 51092, Note_on_c, 0, 95, 67
2, 51093, Note_on_c, 0, 59, 66
2, 51093, Note_on_c, 0, 83, 68
2, 51097, Note_on_c, 0, 56, 39
2, 51102, Note_on_c, 0, 63, 0
2, 51104, Note_on_c, 0, 83, 0
2, 51105, Note_on_c, 0, 59, 0
2, 51114, Note_on_c, 0, 95, 0
2, 51120, Note_on_c, 0, 56, 0
2, 51212, Note_on_c, 0, 63, 69
2, 51213, Note_on_c, 0, 96, 73
2, 51214, Note_on_c, 0, 84, 74
2, 51215, Note_on_c, 0, 59, 61
2, 51216, Note_on_c, 0, 53, 50
2, 51220, Note_on_c, 0, 56, 35
2, 51226, Note_on_c, 0, 59, 0
2, 51226, Note_on_c, 0, 84, 0
2, 51228, Note_on_c, 0, 53, 0
2, 51230, Note_on_c, 0, 63, 0
2, 51233, Note_on_c, 0, 56, 0
2, 51234, Note_on_c, 0, 96, 0
2, 51326, Note_on_c, 0, 97, 74
2, 51326, Note_on_c, 0, 85, 76
2, 51328, Note_on_c, 0, 63, 77
2, 51328, Note_on_c, 0, 92, 70
2, 51328, Note_on_c, 0, 56, 55
2, 51329, Note_on_c, 0, 59, 69
2, 51331, Note_on_c, 0, 53, 60
2, 51451, Note_on_c, 0, 53, 0
2, 51453, Note_on_c, 0, 85, 0
2, 51458, Note_on_c, 0, 92, 0
2, 51459, Note_on_c, 0, 97, 0
2, 51461, Note_on_c, 0, 56, 0
2, 51462, Note_on_c, 0, 63, 0
2, 51463, Note_on_c, 0, 59, 0
2, 51484, Note_on_c, 0, 63, 45
2, 51486, Note_on_c, 0, 87, 52
2, 51487, Note_on_c, 0, 99, 69
2, 51489, Note_on_c, 0, 53, 52
2, 51490, Note_on_c, 0, 56, 39
2, 51492, Note_on_c, 0, 59, 60
2, 51492, Note_on_c, 0, 94, 55
2, 51554, Note_on_c, 0, 94, 0
2, 51555, Note_on_c, 0, 99, 0
2, 51569, Note_on_c, 0, 53, 0
2, 51571, Note_on_c, 0, 56, 0
2, 51571, Note_on_c, 0, 59, 0
2, 51574, Note_on_c, 0, 63, 0
2, 51574, Note_on_c, 0, 87, 0
2, 51606, Note_on_c, 0, 97, 56
2, 51607, Note_on_c, 0, 63, 40
2, 51608, Note_on_c, 0, 85, 54
2, 51613, Note_on_c, 0, 56, 37
2, 51613, Note_on_c, 0, 92, 51
2, 51618, Note_on_c, 0, 59, 36
2, 51661, Note_on_c, 0, 63, 0
2, 51666, Note_on_c, 0, 59, 0
2, 51667, Note_on_c, 0, 92, 0
2, 51679, Note_on_c, 0, 97, 0
2, 51686, Note_on_c, 0, 63, 37
2, 51687, Note_on_c, 0, 85, 0
2, 51702, Note_on_c, 0, 63, 0
2, 51711, Note_on_c, 0, 53, 1
2, 51728, Note_on_c, 0, 96, 64
2, 51738, Note_on_c, 0, 84, 22
2, 51781, Note_on_c, 0, 56, 0
2, 51782, Note_on_c, 0, 84, 0
2, 51783, Note_on_c, 0, 53, 0
2, 51785, Note_on_c, 0, 96, 0
2, 51804, Note_on_c, 0, 62, 54
2, 51805, Note_on_c, 0, 58, 50
2, 51808, Note_on_c, 0, 94, 71
2, 51817, Note_on_c, 0, 62, 0
2, 51831, Note_on_c, 0, 58, 0
2, 51867, Note_on_c, 0, 94, 0
2, 51884, Note_on_c, 0, 90, 40
2, 51935, Note_on_c, 0, 62, 27
2, 51941, Note_on_c, 0, 90, 0
2, 51949, Note_on_c, 0, 62, 0
2, 51957, Note_on_c, 0, 55, 16
2, 51973, Note_on_c, 0, 55, 0
2, 51974, Note_on_c, 0, 93, 76
2, 52028, Note_on_c, 0, 93, 0
2, 52048, Note_on_c, 0, 91, 66
2, 52057, Note_on_c, 0, 60, 45
2, 52059, Note_on_c, 0, 58, 28
2, 52061, Note_on_c, 0, 52, 37
2, 52071, Note_on_c, 0, 60, 0
2, 52076, Note_on_c, 0, 52, 0
2, 52082, Note_on_c, 0, 58, 0
2, 52100, Note_on_c, 0, 91, 0
2, 52123, Note_on_c, 0, 88, 51
2, 52172, Note_on_c, 0, 88, 0
2, 52283, Note_on_c, 0, 67, 70
2, 52283, Note_on_c, 0, 63, 56
2, 52286, Note_on_c, 0, 56, 39
2, 52290, Note_on_c, 0, 60, 49
2, 52303, Note_on_c, 0, 60, 0
2, 52303, Note_on_c, 0, 67, 0
2, 52306, Note_on_c, 0, 56, 0
2, 52314, Note_on_c, 0, 63, 0
2, 52405, Note_on_c, 0, 87, 83
2, 52424, Note_on_c, 0, 63, 31
2, 52439, Note_on_c, 0, 87, 0
2, 52440, Note_on_c, 0, 63, 0
2, 52460, Note_on_c, 0, 84, 51
2, 52502, Note_on_c, 0, 84, 0
2, 52525, Note_on_c, 0, 66, 64
2, 52528, Note_on_c, 0, 62, 58
2, 52528, Note_on_c, 0, 56, 51
2, 52529, Note_on_c, 0, 80, 59
2, 52542, Note_on_c, 0, 62, 0
2, 52548, Note_on_c, 0, 66, 0
2, 52562, Note_on_c, 0, 80, 0
2, 52569, Note_on_c, 0, 56, 0
2, 52593, Note_on_c, 0, 75, 36
2, 52610, Note_on_c, 0, 75, 0
2, 52647, Note_on_c, 0, 66, 64
2, 52649, Note_on_c, 0, 56, 52
2, 52653, Note_on_c, 0, 62, 47
2, 52664, Note_on_c, 0, 62, 0
2, 52664, Note_on_c, 0, 66, 0
2, 52689, Note_on_c, 0, 56, 0
2, 52764, Note_on_c, 0, 85, 90
2, 52768, Note_on_c, 0, 66, 69
2, 52771, Note_on_c, 0, 62, 64
2, 52781, Note_on_c, 0, 66, 0
2, 52782, Note_on_c, 0, 62, 0
2, 52798, Note_on_c, 0, 85, 0
2, 52821, Note_on_c, 0, 82, 51
2, 52861, Note_on_c, 0, 82, 0
2, 52887, Note_on_c, 0, 78, 57
2, 52889, Note_on_c, 0, 66, 54
2, 52892, Note_on_c, 0, 62, 51
2, 52893, Note_on_c, 0, 56, 38
2, 52908, Note_on_c, 0, 62, 0
2, 52910, Note_on_c, 0, 66, 0
2, 52926, Note_on_c, 0, 78, 0
2, 52926, Note_on_c, 0, 56, 0
2, 52938, Note_on_c, 0, 73, 32
2, 52993, Note_on_c, 0, 73, 0
2, 52998, Note_on_c, 0, 66, 62
2, 53004, Note_on_c, 0, 62, 48
2, 53005, Note_on_c, 0, 56, 33
2, 53016, Note_on_c, 0, 62, 0
2, 53017, Note_on_c, 0, 66, 0
2, 53039, Note_on_c, 0, 56, 0
2, 53124, Note_on_c, 0, 84, 90
2, 53129, Note_on_c, 0, 66, 58
2, 53129, Note_on_c, 0, 62, 55
2, 53132, Note_on_c, 0, 56, 42
2, 53139, Note_on_c, 0, 66, 0
2, 53141, Note_on_c, 0, 62, 0
2, 53143, Note_on_c, 0, 56, 0
2, 53154, Note_on_c, 0, 84, 0
2, 53184, Note_on_c, 0, 81, 46
2, 53224, Note_on_c, 0, 81, 0
2, 53243, Note_on_c, 0, 79, 66
2, 53244, Note_on_c, 0, 66, 52
2, 53250, Note_on_c, 0, 62, 39
2, 53253, Note_on_c, 0, 56, 26
2, 53272, Note_on_c, 0, 66, 0
2, 53281, Note_on_c, 0, 79, 0
2, 53281, Note_on_c, 0, 56, 0
2, 53299, Note_on_c, 0, 62, 0
2, 53302, Note_on_c, 0, 74, 44
2, 53355, Note_on_c, 0, 74, 0
2, 53358, Note_on_c, 0, 66, 48
2, 53361, Note_on_c, 0, 62, 35
2, 53365, Note_on_c, 0, 56, 28
2, 53369, Note_on_c, 0, 66, 0
2, 53385, Note_on_c, 0, 62, 0
2, 53388, Note_on_c, 0, 56, 0
2, 53484, Note_on_c, 0, 66, 81
2, 53484, Note_on_c, 0, 56, 70
2, 53485, Note_on_c, 0, 62, 75
2, 53594, Note_on_c, 0, 62, 0
2, 53615, Note_on_c, 0, 62, 37
2, 53629, Note_on_c, 0, 66, 0
2, 53650, Note_on_c, 0, 79, 56
2, 53673, Note_on_c, 0, 79, 0
2, 53681, Note_on_c, 0, 56, 0
2, 53690, Note_on_c, 0, 80, 59
2, 53716, Note_on_c, 0, 80, 0
2, 53719, Note_on_c, 0, 62, 0
2, 53728, Note_on_c, 0, 82, 69
2, 53736, Note_on_c, 0, 62, 36
2, 53738, Note_on_c, 0, 65, 60
2, 53746, Note_on_c, 0, 60, 40
2, 53749, Note_on_c, 0, 65, 0
2, 53760, Note_on_c, 0, 60, 0
2, 53761, Note_on_c, 0, 82, 0
2, 53768, Note_on_c, 0, 74, 58
2, 53785, Note_on_c, 0, 62, 0
2, 53803, Note_on_c, 0, 75, 47
2, 53808, Note_on_c, 0, 74, 0
2, 53839, Note_on_c, 0, 75, 0
2, 53847, Note_on_c, 0, 77, 47
2, 53857, Note_on_c, 0, 65, 47
2, 53862, Note_on_c, 0, 62, 36
2, 53869, Note_on_c, 0, 65, 0
2, 53875, Note_on_c, 0, 77, 0
2, 53892, Note_on_c, 0, 62, 0
2, 54087, Note_on_c, 0, 62, 61
2, 54088, Note_on_c, 0, 65, 48
2, 54093, Note_on_c, 0, 60, 43
2, 54100, Note_on_c, 0, 65, 0
2, 54103, Note_on_c, 0, 62, 0
2, 54106, Note_on_c, 0, 60, 0
2, 54128, Note_on_c, 0, 67, 50
2, 54142, Note_on_c, 0, 67, 0
2, 54168, Note_on_c, 0, 68, 67
2, 54192, Note_on_c, 0, 68, 0
2, 54202, Note_on_c, 0, 70, 80
2, 54221, Note_on_c, 0, 56, 57
2, 54223, Note_on_c, 0, 60, 58
2, 54233, Note_on_c, 0, 60, 0
2, 54234, Note_on_c, 0, 50, 20
2, 54238, Note_on_c, 0, 70, 0
2, 54244, Note_on_c, 0, 50, 0
2, 54249, Note_on_c, 0, 56, 0
2, 54250, Note_on_c, 0, 67, 77
2, 54299, Note_on_c, 0, 67, 0
2, 54322, Note_on_c, 0, 68, 23
2, 54328, Note_on_c, 0, 67, 71
2, 54346, Note_on_c, 0, 68, 0
2, 54373, Note_on_c, 0, 67, 0
2, 54378, Note_on_c, 0, 65, 49
2, 54430, Note_on_c, 0, 65, 0
2, 54445, Note_on_c, 0, 63, 57
2, 54453, Note_on_c, 0, 51, 28
2, 54455, Note_on_c, 0, 43, 43
2, 54456, Note_on_c, 0, 53, 51
2, 54462, Note_on_c, 0, 51, 0
2, 54468, Note_on_c, 0, 53, 0
2, 54476, Note_on_c, 0, 43, 0
2, 54485, Note_on_c, 0, 63, 0
2, 54497, Note_on_c, 0, 62, 52
2, 54552, Note_on_c, 0, 62, 0
2, 54562, Note_on_c, 0, 65, 76
2, 54603, Note_on_c, 0, 65, 0
2, 54610, Note_on_c, 0, 62, 60
2, 54662, Note_on_c, 0, 62, 0
2, 54678, Note_on_c, 0, 63, 70
2, 54685, Note_on_c, 0, 55, 50
2, 54689, Note_on_c, 0, 48, 42
2, 54696, Note_on_c, 0, 55, 0
2, 54714, Note_on_c, 0, 48, 0
2, 54721, Note_on_c, 0, 55, 48
2, 54812, Note_on_c, 0, 55, 0
2, 54840, Note_on_c, 0, 55, 66
2, 54923, Note_on_c, 0, 55, 0
2, 54937, Note_on_c, 0, 63, 0
2, 54967, Note_on_c, 0, 55, 61
2, 55031, Note_on_c, 0, 55, 0
2, 55048, Note_on_c, 0, 55, 62
2, 55059, Note_on_c, 0, 55, 0
2, 55168, Note_on_c, 0, 56, 48
2, 55169, Note_on_c, 0, 72, 60
2, 55170, Note_on_c, 0, 80, 50
2, 55170, Note_on_c, 0, 61, 52
2, 55171, Note_on_c, 0, 60, 58
2, 55171, Note_on_c, 0, 84, 63
2, 55171, Note_on_c, 0, 65, 58
2, 55180, Note_on_c, 0, 84, 0
2, 55182, Note_on_c, 0, 60, 0
2, 55182, Note_on_c, 0, 65, 0
2, 55185, Note_on_c, 0, 80, 0
2, 55186, Note_on_c, 0, 72, 0
2, 55195, Note_on_c, 0, 61, 0
2, 55198, Note_on_c, 0, 56, 0
2, 55288, Note_on_c, 0, 61, 55
2, 55289, Note_on_c, 0, 65, 69
2, 55290, Note_on_c, 0, 56, 49
2, 55291, Note_on_c, 0, 73, 55
2, 55295, Note_on_c, 0, 80, 49
2, 55296, Note_on_c, 0, 85, 50
2, 55303, Note_on_c, 0, 73, 0
2, 55305, Note_on_c, 0, 65, 0
2, 55305, Note_on_c, 0, 85, 0
2, 55306, Note_on_c, 0, 80, 0
2, 55309, Note_on_c, 0, 56, 0
2, 55317, Note_on_c, 0, 61, 0
2, 55332, Note_on_c, 0, 56, 58
2, 55333, Note_on_c, 0, 65, 62
2, 55334, Note_on_c, 0, 75, 59
2, 55336, Note_on_c, 0, 61, 55
2, 55336, Note_on_c, 0, 87, 74
2, 55338, Note_on_c, 0, 82, 57
2, 55389, Note_on_c, 0, 82, 0
2, 55410, Note_on_c, 0, 65, 0
2, 55420, Note_on_c, 0, 75, 0
2, 55422, Note_on_c, 0, 87, 0
2, 55423, Note_on_c, 0, 61, 0
2, 55432, Note_on_c, 0, 56, 0
2, 55448, Note_on_c, 0, 61, 46
2, 55448, Note_on_c, 0, 76, 50
2, 55449, Note_on_c, 0, 88, 47
2, 55452, Note_on_c, 0, 64, 58
2, 55453, Note_on_c, 0, 55, 59
2, 55454, Note_on_c, 0, 81, 43
2, 55458, Note_on_c, 0, 85, 30
2, 55464, Note_on_c, 0, 86, 31
2, 55476, Note_on_c, 0, 86, 0
2, 55479, Note_on_c, 0, 76, 0
2, 55482, Note_on_c, 0, 88, 0
2, 55482, Note_on_c, 0, 85, 0
2, 55483, Note_on_c, 0, 64, 0
2, 55483, Note_on_c, 0, 81, 0
2, 55487, Note_on_c, 0, 55, 0
2, 55499, Note_on_c, 0, 61, 0
2, 55530, Note_on_c, 0, 77, 64
2, 55532, Note_on_c, 0, 89, 66
2, 55534, Note_on_c, 0, 61, 57
2, 55536, Note_on_c, 0, 64, 63
2, 55536, Note_on_c, 0, 55, 65
2, 55542, Note_on_c, 0, 89, 0
2, 55543, Note_on_c, 0, 77, 0
2, 55545, Note_on_c, 0, 64, 0
2, 55546, Note_on_c, 0, 55, 0
2, 55554, Note_on_c, 0, 61, 0
2, 55577, Note_on_c, 0, 55, 67
2, 55579, Note_on_c, 0, 61, 48
2, 55581, Note_on_c, 0, 64, 62
2, 55590, Note_on_c, 0, 78, 62
2, 55590, Note_on_c, 0, 90, 57
2, 55608, Note_on_c, 0, 64, 0
2, 55614, Note_on_c, 0, 55, 0
2, 55637, Note_on_c, 0, 61, 0
2, 55638, Note_on_c, 0, 78, 0
2, 55641, Note_on_c, 0, 90, 0
2, 55660, Note_on_c, 0, 91, 68
2, 55661, Note_on_c, 0, 79, 67
2, 55664, Note_on_c, 0, 63, 67
2, 55665, Note_on_c, 0, 60, 66
2, 55665, Note_on_c, 0, 58, 48
2, 55671, Note_on_c, 0, 89, 29
2, 55671, Note_on_c, 0, 53, 49
2, 55684, Note_on_c, 0, 89, 0
2, 55789, Note_on_c, 0, 63, 0
2, 55849, Note_on_c, 0, 58, 0
2, 55849, Note_on_c, 0, 60, 0
2, 55853, Note_on_c, 0, 53, 0
2, 55868, Note_on_c, 0, 79, 0
2, 55885, Note_on_c, 0, 63, 62
2, 55887, Note_on_c, 0, 60, 55
2, 55891, Note_on_c, 0, 53, 36
2, 55895, Note_on_c, 0, 58, 39
2, 55903, Note_on_c, 0, 91, 0
2, 56019, Note_on_c, 0, 63, 0
2, 56044, Note_on_c, 0, 60, 0
2, 56051, Note_on_c, 0, 96, 90
2, 56062, Note_on_c, 0, 58, 0
2, 56093, Note_on_c, 0, 53, 0
2, 56113, Note_on_c, 0, 96, 0
2, 56129, Note_on_c, 0, 62, 64
2, 56131, Note_on_c, 0, 58, 44
2, 56134, Note_on_c, 0, 94, 77
2, 56139, Note_on_c, 0, 62, 0
2, 56139, Note_on_c, 0, 55, 30
2, 56148, Note_on_c, 0, 58, 0
2, 56154, Note_on_c, 0, 55, 0
2, 56201, Note_on_c, 0, 85, 63
2, 56234, Note_on_c, 0, 94, 0
2, 56238, Note_on_c, 0, 85, 0
2, 56266, Note_on_c, 0, 84, 59
2, 56292, Note_on_c, 0, 84, 0
2, 56366, Note_on_c, 0, 58, 68
2, 56367, Note_on_c, 0, 63, 77
2, 56370, Note_on_c, 0, 52, 68
2, 56488, Note_on_c, 0, 99, 87
2, 56513, Note_on_c, 0, 52, 0
2, 56523, Note_on_c, 0, 63, 0
2, 56526, Note_on_c, 0, 99, 0
2, 56532, Note_on_c, 0, 58, 0
2, 56549, Note_on_c, 0, 97, 63
2, 56589, Note_on_c, 0, 97, 0
2, 56614, Note_on_c, 0, 96, 68
2, 56618, Note_on_c, 0, 57, 57
2, 56621, Note_on_c, 0, 63, 39
2, 56622, Note_on_c, 0, 67, 46
2, 56658, Note_on_c, 0, 96, 0
2, 56688, Note_on_c, 0, 93, 67
2, 56724, Note_on_c, 0, 93, 0
2, 56750, Note_on_c, 0, 67, 0
2, 56774, Note_on_c, 0, 93, 84
2, 56785, Note_on_c, 0, 63, 0
2, 56790, Note_on_c, 0, 57, 0
2, 56825, Note_on_c, 0, 93, 0
2, 56850, Note_on_c, 0, 93, 79
2, 56854, Note_on_c, 0, 63, 43
2, 56856, Note_on_c, 0, 67, 36
2, 56859, Note_on_c, 0, 57, 46
2, 56888, Note_on_c, 0, 93, 0
2, 56908, Note_on_c, 0, 67, 0
2, 56913, Note_on_c, 0, 93, 68
2, 56944, Note_on_c, 0, 63, 0
2, 56952, Note_on_c, 0, 93, 0
2, 56953, Note_on_c, 0, 57, 0
2, 56971, Note_on_c, 0, 57, 14
2, 56973, Note_on_c, 0, 63, 50
2, 56977, Note_on_c, 0, 67, 42
2, 56977, Note_on_c, 0, 94, 69
2, 56992, Note_on_c, 0, 67, 0
2, 57000, Note_on_c, 0, 57, 0
2, 57008, Note_on_c, 0, 94, 0
2, 57026, Note_on_c, 0, 96, 71
2, 57050, Note_on_c, 0, 63, 0
2, 57072, Note_on_c, 0, 96, 0
2, 57090, Note_on_c, 0, 63, 55
2, 57093, Note_on_c, 0, 67, 66
2, 57094, Note_on_c, 0, 91, 78
2, 57096, Note_on_c, 0, 56, 46
2, 57097, Note_on_c, 0, 60, 57
2, 57185, Note_on_c, 0, 63, 0
2, 57204, Note_on_c, 0, 63, 27
2, 57211, Note_on_c, 0, 91, 0
2, 57219, Note_on_c, 0, 56, 0
2, 57226, Note_on_c, 0, 67, 0
2, 57248, Note_on_c, 0, 91, 76
2, 57264, Note_on_c, 0, 63, 0
2, 57296, Note_on_c, 0, 60, 0
2, 57301, Note_on_c, 0, 91, 0
2, 57324, Note_on_c, 0, 92, 80
2, 57325, Note_on_c, 0, 66, 60
2, 57326, Note_on_c, 0, 56, 53
2, 57327, Note_on_c, 0, 62, 61
2, 57349, Note_on_c, 0, 66, 0
2, 57358, Note_on_c, 0, 92, 0
2, 57376, Note_on_c, 0, 56, 0
2, 57376, Note_on_c, 0, 94, 67
2, 57411, Note_on_c, 0, 62, 0
2, 57414, Note_on_c, 0, 94, 0
2, 57438, Note_on_c, 0, 91, 66
2, 57440, Note_on_c, 0, 56, 57
2, 57441, Note_on_c, 0, 62, 36
2, 57443, Note_on_c, 0, 66, 57
2, 57470, Note_on_c, 0, 91, 0
2, 57498, Note_on_c, 0, 87, 29
2, 57511, Note_on_c, 0, 66, 0
2, 57564, Note_on_c, 0, 87, 0
2, 57565, Note_on_c, 0, 86, 67
2, 57571, Note_on_c, 0, 56, 0
2, 57576, Note_on_c, 0, 65, 36
2, 57586, Note_on_c, 0, 60, 32
2, 57588, Note_on_c, 0, 86, 0
2, 57594, Note_on_c, 0, 55, 30
2, 57610, Note_on_c, 0, 89, 74
2, 57619, Note_on_c, 0, 88, 27
2, 57629, Note_on_c, 0, 88, 0
2, 57633, Note_on_c, 0, 62, 0
2, 57640, Note_on_c, 0, 60, 0
2, 57680, Note_on_c, 0, 89, 0
2, 57685, Note_on_c, 0, 65, 0
2, 57685, Note_on_c, 0, 62, 33
2, 57686, Note_on_c, 0, 86, 48
2, 57703, Note_on_c, 0, 86, 0
2, 57727, Note_on_c, 0, 55, 0
2, 57729, Note_on_c, 0, 62, 0
2, 57729, Note_on_c, 0, 87, 71
2, 57799, Note_on_c, 0, 87, 0
2, 57806, Note_on_c, 0, 79, 56
2, 57810, Note_on_c, 0, 65, 34
2, 57814, Note_on_c, 0, 62, 33
2, 57823, Note_on_c, 0, 65, 0
2, 57852, Note_on_c, 0, 62, 0
2, 57862, Note_on_c, 0, 79, 0
2, 57885, Note_on_c, 0, 79, 66
2, 57943, Note_on_c, 0, 62, 28
2, 57947, Note_on_c, 0, 79, 0
2, 57953, Note_on_c, 0, 60, 27
2, 57964, Note_on_c, 0, 62, 0
2, 57970, Note_on_c, 0, 80, 73
2, 57975, Note_on_c, 0, 60, 0
2, 58034, Note_on_c, 0, 80, 0
2, 58050, Note_on_c, 0, 65, 66
2, 58050, Note_on_c, 0, 82, 68
2, 58051, Note_on_c, 0, 61, 47
2, 58051, Note_on_c, 0, 56, 46
2, 58052, Note_on_c, 0, 60, 56
2, 58113, Note_on_c, 0, 82, 0
2, 58125, Note_on_c, 0, 65, 0
2, 58131, Note_on_c, 0, 61, 0
2, 58132, Note_on_c, 0, 82, 62
2, 58140, Note_on_c, 0, 60, 0
2, 58177, Note_on_c, 0, 56, 0
2, 58196, Note_on_c, 0, 56, 25
2, 58199, Note_on_c, 0, 82, 0
2, 58209, Note_on_c, 0, 65, 33
2, 58213, Note_on_c, 0, 61, 35
2, 58217, Note_on_c, 0, 84, 76
2, 58217, Note_on_c, 0, 72, 57
2, 58231, Note_on_c, 0, 65, 0
2, 58236, Note_on_c, 0, 83, 22
2, 58258, Note_on_c, 0, 84, 0
2, 58263, Note_on_c, 0, 83, 0
2, 58263, Note_on_c, 0, 61, 0
2, 58268, Note_on_c, 0, 72, 0
2, 58275, Note_on_c, 0, 56, 0
2, 58297, Note_on_c, 0, 85, 71
2, 58298, Note_on_c, 0, 73, 55
2, 58299, Note_on_c, 0, 55, 67
2, 58299, Note_on_c, 0, 61, 43
2, 58300, Note_on_c, 0, 64, 55
2, 58332, Control_c, 0, 64, 127
2, 58344, Note_on_c, 0, 85, 0
2, 58353, Note_on_c, 0, 64, 0
2, 58357, Note_on_c, 0, 73, 0
2, 58363, Note_on_c, 0, 61, 0
2, 58386, Note_on_c, 0, 61, 55
2, 58388, Note_on_c, 0, 64, 48
2, 58389, Note_on_c, 0, 85, 64
2, 58390, Note_on_c, 0, 73, 25
2, 58393, Note_on_c, 0, 75, 33
2, 58413, Note_on_c, 0, 64, 0
2, 58421, Note_on_c, 0, 85, 0
2, 58424, Note_on_c, 0, 75, 0
2, 58428, Note_on_c, 0, 73, 0
2, 58430, Note_on_c, 0, 55, 0
2, 58443, Note_on_c, 0, 61, 0
2, 58444, Control_c, 0, 64, 0
2, 58465, Control_c, 0, 64, 127
2, 58466, Note_on_c, 0, 61, 48
2, 58467, Note_on_c, 0, 55, 60
2, 58470, Note_on_c, 0, 87, 74
2, 58470, Note_on_c, 0, 75, 71
2, 58474, Note_on_c, 0, 64, 36
2, 58485, Note_on_c, 0, 64, 0
2, 58491, Note_on_c, 0, 55, 0
2, 58515, Note_on_c, 0, 61, 0
2, 58522, Note_on_c, 0, 87, 0
2, 58523, Note_on_c, 0, 75, 0
2, 58525, Control_c, 0, 64, 0
2, 58550, Note_on_c, 0, 60, 58
2, 58551, Note_on_c, 0, 63, 53
2, 58551, Note_on_c, 0, 76, 64
2, 58551, Note_on_c, 0, 88, 60
2, 58553, Note_on_c, 0, 58, 32
2, 58558, Note_on_c, 0, 53, 26
2, 58582, Note_on_c, 0, 88, 0
2, 58584, Note_on_c, 0, 63, 0
2, 58591, Note_on_c, 0, 53, 0
2, 58595, Note_on_c, 0, 76, 0
2, 58596, Note_on_c, 0, 60, 0
2, 58605, Note_on_c, 0, 58, 0
2, 58624, Note_on_c, 0, 76, 61
2, 58626, Note_on_c, 0, 88, 64
2, 58627, Note_on_c, 0, 63, 40
2, 58629, Note_on_c, 0, 60, 37
2, 58629, Note_on_c, 0, 58, 32
2, 58630, Note_on_c, 0, 53, 35
2, 58659, Note_on_c, 0, 76, 0
2, 58660, Note_on_c, 0, 63, 0
2, 58662, Note_on_c, 0, 88, 0
2, 58668, Note_on_c, 0, 53, 0
2, 58673, Note_on_c, 0, 60, 0
2, 58683, Note_on_c, 0, 58, 0
2, 58705, Note_on_c, 0, 89, 70
2, 58705, Note_on_c, 0, 63, 39
2, 58706, Note_on_c, 0, 77, 65
2, 58707, Note_on_c, 0, 60, 42
2, 58707, Note_on_c, 0, 53, 36
2, 58708, Note_on_c, 0, 58, 33
2, 58746, Note_on_c, 0, 89, 0
2, 58748, Note_on_c, 0, 53, 0
2, 58750, Note_on_c, 0, 63, 0
2, 58758, Note_on_c, 0, 60, 0
2, 58761, Note_on_c, 0, 77, 0
2, 58765, Note_on_c, 0, 58, 0
2, 58786, Note_on_c, 0, 79, 64
2, 58787, Note_on_c, 0, 91, 62
2, 58790, Note_on_c, 0, 60, 43
2, 58790, Note_on_c, 0, 63, 37
2, 58792, Note_on_c, 0, 58, 35
2, 58796, Note_on_c, 0, 53, 36
2, 58812, Note_on_c, 0, 63, 0
2, 58816, Note_on_c, 0, 53, 0
2, 58818, Note_on_c, 0, 91, 0
2, 58821, Note_on_c, 0, 79, 0
2, 58825, Note_on_c, 0, 60, 0
2, 58836, Note_on_c, 0, 58, 0
2, 58896, Note_on_c, 0, 63, 56
2, 58896, Note_on_c, 0, 60, 60
2, 58902, Note_on_c, 0, 53, 31
2, 58906, Note_on_c, 0, 58, 31
2, 58911, Note_on_c, 0, 60, 0
2, 58915, Note_on_c, 0, 63, 0
2, 58922, Note_on_c, 0, 58, 0
2, 58938, Note_on_c, 0, 53, 0
2, 59005, Note_on_c, 0, 63, 70
2, 59007, Note_on_c, 0, 59, 69
2, 59008, Note_on_c, 0, 56, 57
2, 59010, Note_on_c, 0, 53, 51
2, 59101, Note_on_c, 0, 59, 0
2, 59127, Note_on_c, 0, 94, 83
2, 59128, Note_on_c, 0, 63, 0
2, 59129, Note_on_c, 0, 59, 47
2, 59163, Note_on_c, 0, 94, 0
2, 59187, Note_on_c, 0, 92, 50
2, 59193, Note_on_c, 0, 53, 0
2, 59221, Note_on_c, 0, 56, 0
2, 59222, Note_on_c, 0, 59, 0
2, 59228, Note_on_c, 0, 92, 0
2, 59243, Note_on_c, 0, 63, 57
2, 59248, Note_on_c, 0, 87, 76
2, 59249, Note_on_c, 0, 59, 36
2, 59252, Note_on_c, 0, 56, 25
2, 59257, Note_on_c, 0, 53, 18
2, 59268, Note_on_c, 0, 63, 0
2, 59281, Note_on_c, 0, 87, 0
2, 59284, Note_on_c, 0, 53, 0
2, 59305, Note_on_c, 0, 83, 33
2, 59314, Note_on_c, 0, 59, 0
2, 59319, Note_on_c, 0, 56, 0
2, 59338, Note_on_c, 0, 83, 0
2, 59366, Note_on_c, 0, 83, 55
2, 59371, Note_on_c, 0, 53, 47
2, 59371, Note_on_c, 0, 63, 39
2, 59373, Note_on_c, 0, 56, 39
2, 59375, Note_on_c, 0, 59, 45
2, 59391, Note_on_c, 0, 59, 0
2, 59394, Note_on_c, 0, 63, 0
2, 59402, Note_on_c, 0, 83, 0
2, 59439, Note_on_c, 0, 56, 0
2, 59487, Note_on_c, 0, 58, 38
2, 59500, Note_on_c, 0, 77, 24
2, 59515, Note_on_c, 0, 77, 0
2, 59537, Note_on_c, 0, 58, 0
2, 59547, Note_on_c, 0, 81, 37
2, 59549, Note_on_c, 0, 83, 34
2, 59579, Note_on_c, 0, 83, 0
2, 59588, Note_on_c, 0, 53, 0
2, 59613, Note_on_c, 0, 58, 34
2, 59613, Note_on_c, 0, 62, 30
2, 59626, Note_on_c, 0, 62, 0
2, 59645, Note_on_c, 0, 58, 0
2, 59736, Note_on_c, 0, 81, 0
2, 59746, Note_on_c, 0, 84, 72
2, 59747, Note_on_c, 0, 58, 42
2, 59752, Note_on_c, 0, 62, 26
2, 59763, Note_on_c, 0, 62, 0
2, 59777, Note_on_c, 0, 58, 0
2, 59789, Note_on_c, 0, 84, 0
2, 59813, Note_on_c, 0, 82, 63
2, 59862, Note_on_c, 0, 82, 0
2, 59870, Note_on_c, 0, 58, 32
2, 59894, Note_on_c, 0, 58, 0
2, 59979, Note_on_c, 0, 78, 70
2, 59988, Note_on_c, 0, 58, 52
2, 60004, Note_on_c, 0, 58, 0
2, 60009, Note_on_c, 0, 78, 0
2, 60028, Note_on_c, 0, 79, 62
2, 60075, Note_on_c, 0, 79, 0
2, 60093, Note_on_c, 0, 76, 66
2, 60104, Note_on_c, 0, 58, 26
2, 60124, Note_on_c, 0, 58, 0
2, 60128, Note_on_c, 0, 76, 0
2, 60139, Note_on_c, 0, 73, 34
2, 60209, Note_on_c, 0, 73, 0
2, 60252, Note_on_c, 0, 72, 36
2, 60324, Note_on_c, 0, 72, 0
2, 60324, Note_on_c, 0, 52, 33
2, 60326, Note_on_c, 0, 58, 32
2, 60339, Note_on_c, 0, 60, 24
2, 60377, Note_on_c, 0, 52, 0
2, 60383, Note_on_c, 0, 58, 0
2, 60391, Note_on_c, 0, 60, 0
2, 60479, Note_on_c, 0, 63, 40
2, 60480, Note_on_c, 0, 60, 45
2, 60482, Note_on_c, 0, 56, 40
2, 60485, Note_on_c, 0, 53, 19
2, 60583, Note_on_c, 0, 63, 0
2, 60603, Note_on_c, 0, 60, 0
2, 60607, Note_on_c, 0, 56, 0
2, 60618, Note_on_c, 0, 53, 0
2, 60682, Note_on_c, 0, 63, 49
2, 60684, Note_on_c, 0, 60, 56
2, 60694, Note_on_c, 0, 63, 0
2, 60694, Note_on_c, 0, 56, 31
2, 60729, Note_on_c, 0, 94, 92
2, 60731, Note_on_c, 0, 53, 1
2, 60733, Note_on_c, 0, 60, 0
2, 60783, Note_on_c, 0, 60, 15
2, 60788, Note_on_c, 0, 94, 0
2, 60802, Note_on_c, 0, 91, 43
2, 60810, Note_on_c, 0, 53, 0
2, 60816, Note_on_c, 0, 60, 0
2, 60828, Note_on_c, 0, 91, 0
2, 60834, Note_on_c, 0, 56, 0
2, 60853, Note_on_c, 0, 92, 74
2, 60916, Note_on_c, 0, 89, 64
2, 60927, Note_on_c, 0, 62, 29
2, 60929, Note_on_c, 0, 92, 0
2, 60958, Note_on_c, 0, 89, 0
2, 60966, Note_on_c, 0, 62, 0
2, 60976, Note_on_c, 0, 86, 45
2, 61023, Note_on_c, 0, 86, 0
2, 61041, Note_on_c, 0, 66, 38
2, 61045, Note_on_c, 0, 62, 30
2, 61054, Note_on_c, 0, 66, 0
2, 61084, Note_on_c, 0, 62, 0
2, 61093, Note_on_c, 0, 89, 81
2, 61152, Note_on_c, 0, 89, 0
2, 61158, Note_on_c, 0, 62, 37
2, 61168, Note_on_c, 0, 86, 54
2, 61180, Note_on_c, 0, 86, 0
2, 61189, Note_on_c, 0, 62, 0
2, 61215, Note_on_c, 0, 87, 78
2, 61261, Note_on_c, 0, 87, 0
2, 61276, Note_on_c, 0, 83, 64
2, 61278, Note_on_c, 0, 66, 59
2, 61278, Note_on_c, 0, 56, 59
2, 61279, Note_on_c, 0, 62, 50
2, 61310, Note_on_c, 0, 83, 0
2, 61333, Note_on_c, 0, 80, 48
2, 61381, Note_on_c, 0, 66, 0
2, 61384, Note_on_c, 0, 80, 0
2, 61411, Note_on_c, 0, 65, 47
2, 61413, Note_on_c, 0, 79, 48
2, 61417, Note_on_c, 0, 56, 0
2, 61427, Note_on_c, 0, 60, 20
2, 61436, Note_on_c, 0, 79, 0
2, 61441, Note_on_c, 0, 65, 0
2, 61457, Note_on_c, 0, 55, 6
2, 61470, Note_on_c, 0, 82, 72
2, 61476, Note_on_c, 0, 60, 0
2, 61477, Note_on_c, 0, 62, 0
2, 61525, Note_on_c, 0, 82, 0
2, 61526, Note_on_c, 0, 55, 0
2, 61529, Note_on_c, 0, 62, 22
2, 61539, Note_on_c, 0, 79, 40
2, 61557, Note_on_c, 0, 79, 0
2, 61586, Note_on_c, 0, 62, 0
2, 61588, Note_on_c, 0, 80, 67
2, 61637, Note_on_c, 0, 80, 0
2, 61649, Note_on_c, 0, 62, 37
2, 61651, Note_on_c, 0, 65, 24
2, 61661, Note_on_c, 0, 65, 0
2, 61687, Note_on_c, 0, 62, 0
2, 61702, Note_on_c, 0, 79, 62
2, 61745, Note_on_c, 0, 79, 0
2, 61763, Note_on_c, 0, 77, 71
2, 61772, Note_on_c, 0, 65, 56
2, 61772, Note_on_c, 0, 62, 60
2, 61782, Note_on_c, 0, 60, 36
2, 61783, Note_on_c, 0, 65, 0
2, 61795, Note_on_c, 0, 60, 0
2, 61801, Note_on_c, 0, 62, 0
2, 61802, Note_on_c, 0, 77, 0
2, 61810, Note_on_c, 0, 74, 35
2, 61869, Note_on_c, 0, 74, 0
2, 61883, Note_on_c, 0, 70, 55
2, 61885, Note_on_c, 0, 56, 51
2, 61887, Note_on_c, 0, 50, 49
2, 61888, Note_on_c, 0, 60, 60
2, 61900, Note_on_c, 0, 60, 0
2, 61916, Note_on_c, 0, 50, 0
2, 61917, Note_on_c, 0, 70, 0
2, 61926, Note_on_c, 0, 56, 0
2, 61947, Note_on_c, 0, 69, 53
2, 62016, Note_on_c, 0, 69, 0
2, 62050, Note_on_c, 0, 69, 60
2, 62125, Note_on_c, 0, 68, 68
2, 62131, Note_on_c, 0, 69, 0
2, 62133, Note_on_c, 0, 59, 44
2, 62148, Note_on_c, 0, 59, 0
2, 62178, Note_on_c, 0, 68, 0
2, 62204, Note_on_c, 0, 68, 51
2, 62251, Note_on_c, 0, 59, 47
2, 62270, Note_on_c, 0, 68, 0
2, 62273, Note_on_c, 0, 59, 0
2, 62285, Note_on_c, 0, 67, 68
2, 62343, Note_on_c, 0, 67, 0
2, 62364, Note_on_c, 0, 67, 73
2, 62375, Note_on_c, 0, 51, 42
2, 62376, Note_on_c, 0, 62, 44
2, 62379, Note_on_c, 0, 57, 48
2, 62387, Note_on_c, 0, 62, 0
2, 62395, Note_on_c, 0, 51, 0
2, 62399, Note_on_c, 0, 57, 0
2, 62418, Note_on_c, 0, 67, 0
2, 62440, Note_on_c, 0, 65, 66
2, 62491, Note_on_c, 0, 65, 0
2, 62504, Note_on_c, 0, 55, 40
2, 62517, Note_on_c, 0, 55, 0
2, 62527, Note_on_c, 0, 65, 66
2, 62543, Note_on_c, 0, 67, 29
2, 62555, Note_on_c, 0, 67, 0
2, 62587, Note_on_c, 0, 65, 0
2, 62607, Note_on_c, 0, 65, 68
2, 62609, Note_on_c, 0, 63, 63
2, 62609, Note_on_c, 0, 55, 53
2, 62616, Note_on_c, 0, 48, 24
2, 62627, Note_on_c, 0, 48, 0
2, 62627, Note_on_c, 0, 55, 0
2, 62655, Note_on_c, 0, 63, 0
2, 62658, Note_on_c, 0, 65, 0
2, 62691, Note_on_c, 0, 63, 64
2, 62691, Note_on_c, 0, 65, 62
2, 62732, Note_on_c, 0, 55, 49
2, 62743, Note_on_c, 0, 55, 0
2, 62745, Note_on_c, 0, 65, 0
2, 62750, Note_on_c, 0, 63, 0
2, 62771, Note_on_c, 0, 65, 63
2, 62773, Note_on_c, 0, 62, 70
2, 62822, Note_on_c, 0, 62, 0
2, 62823, Note_on_c, 0, 65, 0
2, 62852, Note_on_c, 0, 65, 63
2, 62853, Note_on_c, 0, 62, 72
2, 62862, Note_on_c, 0, 41, 54
2, 62875, Note_on_c, 0, 41, 0
2, 62881, Note_on_c, 0, 62, 0
2, 62898, Note_on_c, 0, 65, 0
2, 62924, Note_on_c, 0, 65, 55
2, 62926, Note_on_c, 0, 61, 70
2, 62976, Note_on_c, 0, 65, 0
2, 62982, Note_on_c, 0, 61, 0
2, 62989, Note_on_c, 0, 46, 35
2, 62997, Note_on_c, 0, 53, 30
2, 63011, Note_on_c, 0, 53, 0
2, 63014, Note_on_c, 0, 65, 69
2, 63015, Note_on_c, 0, 61, 64
2, 63022, Note_on_c, 0, 46, 0
2, 63068, Note_on_c, 0, 65, 0
2, 63073, Note_on_c, 0, 61, 0
2, 63086, Note_on_c, 0, 65, 31
2, 63091, Note_on_c, 0, 61, 49
2, 63093, Note_on_c, 0, 59, 35
2, 63098, Note_on_c, 0, 60, 32
2, 63108, Note_on_c, 0, 59, 0
2, 63111, Note_on_c, 0, 60, 0
2, 63137, Note_on_c, 0, 61, 0
2, 63142, Note_on_c, 0, 65, 0
2, 63166, Note_on_c, 0, 60, 71
2, 63166, Note_on_c, 0, 61, 59
2, 63169, Note_on_c, 0, 65, 55
2, 63202, Note_on_c, 0, 60, 0
2, 63217, Note_on_c, 0, 45, 24
2, 63221, Note_on_c, 0, 65, 0
2, 63228, Note_on_c, 0, 61, 0
2, 63234, Note_on_c, 0, 45, 0
2, 63249, Note_on_c, 0, 59, 65
2, 63253, Note_on_c, 0, 61, 55
2, 63254, Note_on_c, 0, 65, 46
2, 63284, Note_on_c, 0, 61, 0
2, 63289, Note_on_c, 0, 59, 0
2, 63298, Note_on_c, 0, 65, 0
2, 63328, Note_on_c, 0, 61, 57
2, 63328, Note_on_c, 0, 59, 71
2, 63329, Note_on_c, 0, 65, 64
2, 63363, Note_on_c, 0, 59, 0
2, 63374, Note_on_c, 0, 65, 0
2, 63377, Note_on_c, 0, 61, 0
2, 63405, Note_on_c, 0, 63, 42
2, 63407, Note_on_c, 0, 55, 57
2, 63409, Note_on_c, 0, 51, 37
2, 63411, Note_on_c, 0, 44, 26
2, 63418, Note_on_c, 0, 60, 44
2, 63439, Note_on_c, 0, 55, 0
2, 63441, Note_on_c, 0, 60, 0
2, 63453, Note_on_c, 0, 51, 0
2, 63456, Note_on_c, 0, 44, 0
2, 63457, Note_on_c, 0, 63, 0
2, 63497, Note_on_c, 0, 51, 44
2, 63499, Note_on_c, 0, 44, 37
2, 63499, Note_on_c, 0, 55, 57
2, 63500, Note_on_c, 0, 63, 37
2, 63504, Note_on_c, 0, 60, 53
2, 63534, Note_on_c, 0, 55, 0
2, 63556, Note_on_c, 0, 60, 0
2, 63568, Note_on_c, 0, 63, 0
2, 63583, Note_on_c, 0, 67, 70
2, 63584, Note_on_c, 0, 60, 67
2, 63585, Note_on_c, 0, 56, 70
2, 63586, Note_on_c, 0, 55, 58
2, 63590, Note_on_c, 0, 63, 35
2, 63601, Note_on_c, 0, 51, 0
2, 63677, Note_on_c, 0, 44, 0
2, 63686, Control_c, 0, 64, 127
2, 63738, Note_on_c, 0, 60, 0
2, 63741, Note_on_c, 0, 56, 0
2, 63750, Note_on_c, 0, 67, 0
2, 63757, Note_on_c, 0, 63, 0
2, 63777, Note_on_c, 0, 55, 0
2, 63843, Control_c, 0, 64, 0
2, 63849, Note_on_c, 0, 61, 74
2, 63849, Note_on_c, 0, 65, 80
2, 63850, Note_on_c, 0, 70, 81
2, 63853, Note_on_c, 0, 55, 82
2, 63900, Control_c, 0, 64, 127
2, 63935, Note_on_c, 0, 70, 0
2, 63952, Note_on_c, 0, 61, 0
2, 63957, Control_c, 0, 64, 0
2, 63958, Note_on_c, 0, 65, 0
2, 63959, Note_on_c, 0, 55, 0
2, 63969, Note_on_c, 0, 72, 64
2, 63969, Note_on_c, 0, 57, 71
2, 63971, Note_on_c, 0, 65, 42
2, 63972, Note_on_c, 0, 61, 55
2, 63991, Control_c, 0, 64, 127
2, 64007, Note_on_c, 0, 65, 0
2, 64018, Note_on_c, 0, 61, 0
2, 64030, Note_on_c, 0, 72, 0
2, 64057, Control_c, 0, 64, 0
2, 64069, Note_on_c, 0, 57, 0
2, 64087, Note_on_c, 0, 73, 61
2, 64087, Note_on_c, 0, 68, 65
2, 64089, Note_on_c, 0, 58, 60
2, 64090, Note_on_c, 0, 70, 59
2, 64092, Note_on_c, 0, 64, 61
2, 64093, Note_on_c, 0, 62, 59
2, 64103, Note_on_c, 0, 62, 0
2, 64146, Note_on_c, 0, 73, 0
2, 64149, Note_on_c, 0, 64, 0
2, 64156, Note_on_c, 0, 70, 0
2, 64158, Note_on_c, 0, 68, 0
2, 64168, Note_on_c, 0, 58, 0
2, 64171, Note_on_c, 0, 61, 62
2, 64174, Note_on_c, 0, 75, 62
2, 64175, Note_on_c, 0, 64, 64
2, 64176, Note_on_c, 0, 68, 64
2, 64197, Note_on_c, 0, 64, 0
2, 64197, Note_on_c, 0, 61, 0
2, 64203, Note_on_c, 0, 58, 32
2, 64206, Note_on_c, 0, 75, 0
2, 64208, Note_on_c, 0, 68, 0
2, 64280, Note_on_c, 0, 56, 39
2, 64281, Note_on_c, 0, 58, 0
2, 64312, Note_on_c, 0, 56, 0
2, 64352, Note_on_c, 0, 43, 61
2, 64363, Note_on_c, 0, 43, 0
2, 64410, Note_on_c, 0, 66, 57
2, 64411, Note_on_c, 0, 69, 74
2, 64413, Note_on_c, 0, 62, 80
2, 64418, Note_on_c, 0, 57, 82
2, 64420, Note_on_c, 0, 67, 56
2, 64420, Note_on_c, 0, 51, 65
2, 64430, Note_on_c, 0, 67, 0
2, 64541, Note_on_c, 0, 57, 0
2, 64548, Note_on_c, 0, 62, 0
2, 64551, Note_on_c, 0, 66, 0
2, 64567, Note_on_c, 0, 69, 0
2, 64568, Note_on_c, 0, 66, 35
2, 64572, Note_on_c, 0, 62, 57
2, 64620, Note_on_c, 0, 62, 0
2, 64624, Note_on_c, 0, 66, 0
2, 64646, Note_on_c, 0, 62, 54
2, 64647, Note_on_c, 0, 66, 42
2, 64648, Note_on_c, 0, 69, 62
2, 64650, Note_on_c, 0, 57, 63
2, 64656, Note_on_c, 0, 62, 0
2, 64663, Note_on_c, 0, 57, 0
2, 64666, Note_on_c, 0, 66, 0
2, 64672, Note_on_c, 0, 69, 0
2, 64677, Control_c, 0, 64, 127
2, 64680, Note_on_c, 0, 51, 0
2, 64790, Control_c, 0, 64, 0
2, 64807, Note_on_c, 0, 56, 56
2, 64810, Note_on_c, 0, 75, 68
2, 64810, Note_on_c, 0, 82, 65
2, 64811, Note_on_c, 0, 62, 52
2, 64811, Note_on_c, 0, 70, 68
2, 64823, Control_c, 0, 64, 127
2, 64846, Note_on_c, 0, 56, 0
2, 64851, Note_on_c, 0, 62, 0
2, 64852, Note_on_c, 0, 75, 0
2, 64853, Note_on_c, 0, 70, 0
2, 64862, Note_on_c, 0, 82, 0
2, 64875, Control_c, 0, 64, 0
2, 64927, Note_on_c, 0, 56, 76
2, 64927, Note_on_c, 0, 73, 71
2, 64928, Note_on_c, 0, 85, 80
2, 64928, Note_on_c, 0, 66, 78
2, 64929, Note_on_c, 0, 78, 69
2, 64929, Note_on_c, 0, 62, 77
2, 64932, Note_on_c, 0, 82, 44
2, 64991, Note_on_c, 0, 78, 0
2, 64993, Note_on_c, 0, 73, 0
2, 64994, Note_on_c, 0, 82, 0
2, 64998, Note_on_c, 0, 66, 0
2, 64998, Note_on_c, 0, 56, 0
2, 65004, Note_on_c, 0, 85, 0
2, 65007, Note_on_c, 0, 62, 0
2, 65133, Note_on_c, 0, 85, 74
2, 65133, Note_on_c, 0, 73, 68
2, 65135, Note_on_c, 0, 66, 81
2, 65136, Note_on_c, 0, 56, 75
2, 65137, Note_on_c, 0, 79, 60
2, 65138, Note_on_c, 0, 82, 46
2, 65140, Note_on_c, 0, 62, 62
2, 65150, Note_on_c, 0, 62, 0
2, 65181, Note_on_c, 0, 62, 12
2, 65199, Note_on_c, 0, 62, 0
2, 65201, Note_on_c, 0, 73, 0
2, 65204, Note_on_c, 0, 85, 0
2, 65206, Note_on_c, 0, 86, 15
2, 65209, Note_on_c, 0, 74, 29
2, 65227, Note_on_c, 0, 86, 0
2, 65253, Note_on_c, 0, 74, 0
2, 65261, Note_on_c, 0, 62, 40
2, 65264, Note_on_c, 0, 66, 0
2, 65268, Note_on_c, 0, 79, 0
2, 65271, Note_on_c, 0, 56, 0
2, 65271, Note_on_c, 0, 82, 0
2, 65295, Note_on_c, 0, 65, 64
2, 65300, Note_on_c, 0, 82, 44
2, 65302, Note_on_c, 0, 60, 37
2, 65303, Note_on_c, 0, 55, 49
2, 65307, Note_on_c, 0, 70, 48
2, 65370, Note_on_c, 0, 82, 0
2, 65374, Note_on_c, 0, 70, 0
2, 65397, Note_on_c, 0, 55, 0
2, 65398, Note_on_c, 0, 65, 0
2, 65419, Note_on_c, 0, 60, 0
2, 65427, Note_on_c, 0, 62, 0
2, 65492, Note_on_c, 0, 62, 71
2, 65512, Note_on_c, 0, 62, 0
2, 65527, Note_on_c, 0, 85, 71
2, 65527, Note_on_c, 0, 62, 41
2, 65527, Note_on_c, 0, 73, 74
2, 65530, Note_on_c, 0, 82, 51
2, 65532, Note_on_c, 0, 55, 77
2, 65533, Note_on_c, 0, 65, 80
2, 65533, Note_on_c, 0, 60, 62
2, 65535, Note_on_c, 0, 79, 47
2, 65592, Note_on_c, 0, 86, 4
2, 65602, Note_on_c, 0, 74, 62
2, 65604, Note_on_c, 0, 86, 0
2, 65605, Note_on_c, 0, 73, 0
2, 65616, Note_on_c, 0, 60, 0
2, 65621, Note_on_c, 0, 62, 0
2, 65623, Note_on_c, 0, 85, 0
2, 65623, Note_on_c, 0, 65, 0
2, 65628, Note_on_c, 0, 74, 0
2, 65633, Note_on_c, 0, 55, 0
2, 65635, Note_on_c, 0, 79, 0
2, 65639, Note_on_c, 0, 82, 0
2, 65656, Note_on_c, 0, 65, 57
2, 65658, Note_on_c, 0, 55, 55
2, 65662, Note_on_c, 0, 60, 57
2, 65664, Note_on_c, 0, 82, 32
2, 65665, Note_on_c, 0, 70, 57
2, 65707, Note_on_c, 0, 70, 0
2, 65707, Note_on_c, 0, 55, 0
2, 65712, Note_on_c, 0, 65, 0
2, 65722, Note_on_c, 0, 60, 0
2, 65730, Note_on_c, 0, 82, 0
2, 65841, Note_on_c, 0, 56, 77
2, 65842, Note_on_c, 0, 61, 71
2, 65842, Note_on_c, 0, 65, 87
2, 65842, Note_on_c, 0, 60, 78
2, 65845, Note_on_c, 0, 87, 87
2, 65845, Note_on_c, 0, 75, 90
2, 65845, Note_on_c, 0, 82, 83
2, 65946, Note_on_c, 0, 87, 0
2, 65949, Note_on_c, 0, 82, 0
2, 65955, Note_on_c, 0, 75, 0
2, 65967, Note_on_c, 0, 60, 0
2, 65971, Note_on_c, 0, 65, 0
2, 65990, Note_on_c, 0, 56, 0
2, 65996, Note_on_c, 0, 61, 0
2, 66008, Note_on_c, 0, 55, 55
2, 66010, Note_on_c, 0, 61, 36
2, 66010, Note_on_c, 0, 64, 58
2, 66011, Note_on_c, 0, 69, 72
2, 66016, Note_on_c, 0, 81, 52
2, 66019, Note_on_c, 0, 75, 28
2, 66037, Note_on_c, 0, 75, 0
2, 66070, Note_on_c, 0, 69, 0
2, 66085, Note_on_c, 0, 64, 0
2, 66088, Note_on_c, 0, 61, 0
2, 66096, Note_on_c, 0, 55, 0
2, 66099, Note_on_c, 0, 81, 0
2, 66209, Note_on_c, 0, 87, 75
2, 66210, Note_on_c, 0, 60, 78
2, 66210, Note_on_c, 0, 58, 71
2, 66210, Note_on_c, 0, 82, 83
2, 66211, Note_on_c, 0, 53, 73
2, 66211, Note_on_c, 0, 63, 76
2, 66216, Note_on_c, 0, 88, 65
2, 66227, Note_on_c, 0, 88, 0
2, 66292, Note_on_c, 0, 87, 0
2, 66302, Note_on_c, 0, 82, 0
2, 66325, Note_on_c, 0, 53, 0
2, 66330, Note_on_c, 0, 63, 0
2, 66338, Note_on_c, 0, 60, 0
2, 66340, Note_on_c, 0, 58, 0
2, 66368, Note_on_c, 0, 80, 32
2, 66368, Note_on_c, 0, 63, 52
2, 66370, Note_on_c, 0, 53, 51
2, 66372, Note_on_c, 0, 60, 53
2, 66373, Note_on_c, 0, 68, 48
2, 66374, Note_on_c, 0, 58, 25
2, 66428, Note_on_c, 0, 80, 0
2, 66429, Note_on_c, 0, 68, 0
2, 66432, Note_on_c, 0, 60, 0
2, 66438, Note_on_c, 0, 53, 0
2, 66452, Note_on_c, 0, 63, 0
2, 66454, Note_on_c, 0, 80, 44
2, 66455, Note_on_c, 0, 68, 37
2, 66466, Note_on_c, 0, 68, 0
2, 66483, Note_on_c, 0, 80, 0
2, 66495, Note_on_c, 0, 58, 0
2, 66569, Note_on_c, 0, 63, 62
2, 66569, Note_on_c, 0, 60, 64
2, 66575, Note_on_c, 0, 58, 42
2, 66576, Note_on_c, 0, 53, 33
2, 66589, Note_on_c, 0, 63, 0
2, 66592, Note_on_c, 0, 60, 0
2, 66597, Note_on_c, 0, 58, 0
2, 66614, Note_on_c, 0, 53, 0
2, 66688, Note_on_c, 0, 63, 65
2, 66695, Note_on_c, 0, 59, 64
2, 66695, Note_on_c, 0, 56, 46
2, 66695, Note_on_c, 0, 53, 42
2, 66720, Note_on_c, 0, 106, 70
2, 66767, Note_on_c, 0, 59, 0
2, 66790, Note_on_c, 0, 106, 0
2, 66793, Note_on_c, 0, 63, 0
2, 66800, Note_on_c, 0, 53, 0
2, 66816, Note_on_c, 0, 59, 27
2, 66852, Note_on_c, 0, 104, 75
2, 66858, Note_on_c, 0, 59, 0
2, 66860, Note_on_c, 0, 56, 0
2, 66903, Note_on_c, 0, 104, 0
2, 66927, Note_on_c, 0, 59, 44
2, 66928, Note_on_c, 0, 99, 72
2, 66936, Note_on_c, 0, 104, 23
2, 66936, Note_on_c, 0, 56, 25
2, 66951, Note_on_c, 0, 104, 0
2, 66962, Note_on_c, 0, 59, 0
2, 66975, Note_on_c, 0, 56, 0
2, 66981, Note_on_c, 0, 99, 0
2, 66996, Note_on_c, 0, 95, 31
2, 67040, Note_on_c, 0, 95, 0
2, 67053, Note_on_c, 0, 94, 60
2, 67054, Note_on_c, 0, 63, 42
2, 67063, Note_on_c, 0, 59, 29
2, 67078, Note_on_c, 0, 59, 0
2, 67078, Note_on_c, 0, 63, 0
2, 67100, Note_on_c, 0, 94, 0
2, 67123, Note_on_c, 0, 92, 37
2, 67147, Note_on_c, 0, 92, 0
2, 67177, Note_on_c, 0, 91, 69
2, 67205, Note_on_c, 0, 91, 0
2, 67233, Note_on_c, 0, 89, 59
2, 67286, Note_on_c, 0, 89, 0
2, 67302, Note_on_c, 0, 91, 43
2, 67304, Note_on_c, 0, 58, 23
2, 67315, Note_on_c, 0, 89, 43
2, 67324, Note_on_c, 0, 91, 0
2, 67326, Note_on_c, 0, 58, 0
2, 67344, Note_on_c, 0, 89, 0
2, 67350, Note_on_c, 0, 86, 45
2, 67393, Note_on_c, 0, 86, 0
2, 67413, Note_on_c, 0, 87, 61
2, 67427, Note_on_c, 0, 62, 29
2, 67438, Note_on_c, 0, 62, 0
2, 67447, Note_on_c, 0, 87, 0
2, 67468, Note_on_c, 0, 88, 36
2, 67507, Note_on_c, 0, 88, 0
2, 67528, Note_on_c, 0, 62, 61
2, 67530, Note_on_c, 0, 91, 75
2, 67532, Note_on_c, 0, 58, 30
2, 67539, Note_on_c, 0, 62, 0
2, 67544, Note_on_c, 0, 58, 0
2, 67554, Note_on_c, 0, 91, 0
2, 67579, Note_on_c, 0, 96, 99
2, 67627, Note_on_c, 0, 96, 0
2, 67644, Note_on_c, 0, 67, 70
2, 67646, Note_on_c, 0, 56, 52
2, 67647, Note_on_c, 0, 63, 55
2, 67647, Note_on_c, 0, 94, 83
2, 67651, Note_on_c, 0, 60, 63
2, 67692, Note_on_c, 0, 94, 0
2, 67715, Note_on_c, 0, 92, 77
2, 67730, Note_on_c, 0, 67, 0
2, 67739, Note_on_c, 0, 63, 0
2, 67746, Note_on_c, 0, 60, 0
2, 67752, Note_on_c, 0, 92, 0
2, 67774, Note_on_c, 0, 91, 76
2, 67774, Note_on_c, 0, 63, 30
2, 67775, Note_on_c, 0, 67, 42
2, 67806, Note_on_c, 0, 67, 0
2, 67813, Note_on_c, 0, 91, 0
2, 67831, Note_on_c, 0, 89, 62
2, 67833, Note_on_c, 0, 63, 0
2, 67834, Note_on_c, 0, 56, 0
2, 67864, Note_on_c, 0, 89, 0
2, 67891, Note_on_c, 0, 87, 71
2, 67895, Note_on_c, 0, 66, 59
2, 67897, Note_on_c, 0, 62, 56
2, 67920, Note_on_c, 0, 56, 13
2, 67942, Note_on_c, 0, 66, 0
2, 67951, Note_on_c, 0, 87, 0
2, 67953, Note_on_c, 0, 86, 61
2, 67960, Note_on_c, 0, 56, 0
2, 67986, Note_on_c, 0, 86, 0
2, 68007, Note_on_c, 0, 66, 56
2, 68013, Note_on_c, 0, 87, 67
2, 68013, Note_on_c, 0, 56, 42
2, 68044, Note_on_c, 0, 87, 0
2, 68056, Note_on_c, 0, 89, 66
2, 68098, Note_on_c, 0, 66, 0
2, 68102, Note_on_c, 0, 89, 0
2, 68113, Note_on_c, 0, 62, 0
2, 68122, Note_on_c, 0, 56, 0
2, 68126, Note_on_c, 0, 62, 19
2, 68127, Note_on_c, 0, 86, 78
2, 68131, Note_on_c, 0, 65, 38
2, 68138, Note_on_c, 0, 60, 34
2, 68148, Note_on_c, 0, 55, 27
2, 68155, Note_on_c, 0, 86, 0
2, 68189, Note_on_c, 0, 82, 25
2, 68200, Note_on_c, 0, 62, 0
2, 68208, Note_on_c, 0, 65, 0
2, 68212, Note_on_c, 0, 60, 0
2, 68232, Note_on_c, 0, 82, 0
2, 68246, Note_on_c, 0, 84, 76
2, 68249, Note_on_c, 0, 62, 32
2, 68271, Note_on_c, 0, 84, 0
2, 68280, Note_on_c, 0, 62, 0
2, 68281, Note_on_c, 0, 55, 0
2, 68294, Note_on_c, 0, 86, 82
2, 68325, Note_on_c, 0, 86, 0
2, 68356, Note_on_c, 0, 62, 53
2, 68363, Note_on_c, 0, 82, 60
2, 68374, Note_on_c, 0, 62, 0
2, 68397, Note_on_c, 0, 82, 0
2, 68418, Note_on_c, 0, 79, 60
2, 68475, Note_on_c, 0, 79, 0
2, 68487, Note_on_c, 0, 63, 51
2, 68494, Note_on_c, 0, 53, 40
2, 68495, Note_on_c, 0, 59, 42
2, 68499, Note_on_c, 0, 56, 30
2, 68507, Note_on_c, 0, 53, 0
2, 68511, Note_on_c, 0, 63, 0
2, 68514, Note_on_c, 0, 59, 0
2, 68517, Note_on_c, 0, 56, 0
2, 68529, Note_on_c, 0, 79, 76
2, 68588, Note_on_c, 0, 79, 0
2, 68599, Note_on_c, 0, 62, 56
2, 68601, Note_on_c, 0, 65, 60
2, 68605, Note_on_c, 0, 60, 56
2, 68605, Note_on_c, 0, 80, 72
2, 68612, Note_on_c, 0, 55, 38
2, 68655, Note_on_c, 0, 80, 0
2, 68671, Note_on_c, 0, 62, 0
2, 68677, Note_on_c, 0, 60, 0
2, 68677, Note_on_c, 0, 82, 71
2, 68682, Note_on_c, 0, 65, 0
2, 68711, Note_on_c, 0, 65, 37
2, 68717, Note_on_c, 0, 62, 47
2, 68724, Note_on_c, 0, 65, 0
2, 68725, Note_on_c, 0, 82, 0
2, 68727, Note_on_c, 0, 60, 30
2, 68743, Note_on_c, 0, 60, 0
2, 68745, Note_on_c, 0, 62, 0
2, 68756, Note_on_c, 0, 55, 0
2, 68760, Note_on_c, 0, 82, 71
2, 68815, Note_on_c, 0, 82, 0
2, 68843, Note_on_c, 0, 63, 71
2, 68844, Note_on_c, 0, 58, 67
2, 68847, Note_on_c, 0, 52, 71
2, 68849, Note_on_c, 0, 84, 92
2, 68941, Note_on_c, 0, 84, 0
2, 68966, Note_on_c, 0, 82, 74
2, 68978, Note_on_c, 0, 52, 0
2, 68985, Note_on_c, 0, 63, 0
2, 69000, Note_on_c, 0, 58, 0
2, 69004, Note_on_c, 0, 82, 0
2, 69022, Note_on_c, 0, 80, 45
2, 69084, Note_on_c, 0, 80, 0
2, 69088, Note_on_c, 0, 76, 64
2, 69090, Note_on_c, 0, 67, 60
2, 69093, Note_on_c, 0, 63, 45
2, 69093, Note_on_c, 0, 56, 33
2, 69100, Note_on_c, 0, 60, 45
2, 69136, Note_on_c, 0, 76, 0
2, 69147, Note_on_c, 0, 75, 49
2, 69150, Note_on_c, 0, 67, 0
2, 69162, Note_on_c, 0, 63, 0
2, 69210, Note_on_c, 0, 63, 31
2, 69212, Note_on_c, 0, 75, 0
2, 69217, Note_on_c, 0, 67, 19
2, 69229, Note_on_c, 0, 67, 0
2, 69249, Note_on_c, 0, 75, 67
2, 69271, Note_on_c, 0, 56, 0
2, 69276, Note_on_c, 0, 63, 0
2, 69319, Note_on_c, 0, 60, 0
2, 69320, Note_on_c, 0, 75, 0
2, 69340, Note_on_c, 0, 74, 51
2, 69348, Note_on_c, 0, 66, 35
2, 69348, Note_on_c, 0, 62, 51
2, 69354, Note_on_c, 0, 56, 26
2, 69377, Note_on_c, 0, 66, 0
2, 69396, Note_on_c, 0, 74, 0
2, 69411, Note_on_c, 0, 62, 0
2, 69414, Note_on_c, 0, 72, 47
2, 69457, Note_on_c, 0, 66, 48
2, 69458, Note_on_c, 0, 72, 0
2, 69463, Note_on_c, 0, 62, 20
2, 69490, Note_on_c, 0, 72, 48
2, 69493, Note_on_c, 0, 66, 0
2, 69547, Note_on_c, 0, 56, 0
2, 69548, Note_on_c, 0, 72, 0
2, 69562, Note_on_c, 0, 70, 63
2, 69571, Note_on_c, 0, 65, 50
2, 69585, Note_on_c, 0, 55, 26
2, 69585, Note_on_c, 0, 60, 24
2, 69606, Note_on_c, 0, 70, 0
2, 69633, Note_on_c, 0, 69, 44
2, 69659, Note_on_c, 0, 62, 0
2, 69693, Note_on_c, 0, 62, 29
2, 69705, Note_on_c, 0, 65, 0
2, 69709, Note_on_c, 0, 69, 0
2, 69717, Note_on_c, 0, 60, 0
2, 69718, Note_on_c, 0, 62, 0
2, 69731, Note_on_c, 0, 55, 0
2, 69731, Note_on_c, 0, 70, 56
2, 69809, Note_on_c, 0, 64, 60
2, 69816, Note_on_c, 0, 70, 0
2, 69816, Note_on_c, 0, 58, 31
2, 69819, Note_on_c, 0, 52, 38
2, 69962, Control_c, 0, 64, 127
2, 69963, Note_on_c, 0, 58, 0
2, 69978, Note_on_c, 0, 52, 0
2, 69981, Note_on_c, 0, 64, 0
2, 70047, Note_on_c, 0, 51, 19
2, 70077, Note_on_c, 0, 51, 0
2, 70083, Control_c, 0, 64, 0
2, 70083, Note_on_c, 0, 53, 61
2, 70085, Note_on_c, 0, 56, 62
2, 70086, Note_on_c, 0, 65, 62
2, 70090, Note_on_c, 0, 60, 65
2, 70099, Note_on_c, 0, 63, 25
2, 70136, Control_c, 0, 64, 127
2, 70150, Note_on_c, 0, 65, 0
2, 70155, Note_on_c, 0, 60, 0
2, 70155, Note_on_c, 0, 56, 0
2, 70163, Note_on_c, 0, 53, 0
2, 70170, Note_on_c, 0, 55, 61
2, 70172, Note_on_c, 0, 67, 59
2, 70183, Note_on_c, 0, 65, 38
2, 70187, Note_on_c, 0, 63, 0
2, 70188, Note_on_c, 0, 67, 0
2, 70195, Note_on_c, 0, 65, 0
2, 70200, Note_on_c, 0, 55, 0
2, 70203, Control_c, 0, 64, 0
2, 70214, Note_on_c, 0, 56, 58
2, 70217, Note_on_c, 0, 68, 64
2, 70224, Note_on_c, 0, 60, 51
2, 70227, Note_on_c, 0, 66, 26
2, 70236, Control_c, 0, 64, 127
2, 70252, Note_on_c, 0, 60, 0
2, 70260, Note_on_c, 0, 68, 0
2, 70267, Note_on_c, 0, 66, 0
2, 70278, Note_on_c, 0, 56, 0
2, 70296, Control_c, 0, 64, 0
2, 70297, Note_on_c, 0, 70, 75
2, 70298, Note_on_c, 0, 56, 72
2, 70300, Note_on_c, 0, 62, 66
2, 70303, Note_on_c, 0, 63, 45
2, 70326, Note_on_c, 0, 62, 0
2, 70329, Note_on_c, 0, 70, 0
2, 70331, Note_on_c, 0, 56, 0
2, 70342, Note_on_c, 0, 63, 0
2, 70367, Note_on_c, 0, 46, 54
2, 70369, Note_on_c, 0, 56, 46
2, 70371, Note_on_c, 0, 62, 57
2, 70374, Note_on_c, 0, 59, 48
2, 70374, Note_on_c, 0, 68, 39
2, 70419, Note_on_c, 0, 56, 0
2, 70427, Note_on_c, 0, 46, 0
2, 70427, Note_on_c, 0, 68, 0
2, 70437, Note_on_c, 0, 59, 0
2, 70440, Note_on_c, 0, 62, 0
2, 70458, Note_on_c, 0, 46, 39
2, 70458, Note_on_c, 0, 56, 46
2, 70459, Note_on_c, 0, 59, 35
2, 70470, Note_on_c, 0, 62, 17
2, 70480, Note_on_c, 0, 59, 0
2, 70489, Note_on_c, 0, 62, 0
2, 70492, Control_c, 0, 64, 127
2, 70499, Note_on_c, 0, 56, 0
2, 70533, Note_on_c, 0, 70, 69
2, 70535, Note_on_c, 0, 65, 71
2, 70536, Note_on_c, 0, 60, 65
2, 70537, Control_c, 0, 64, 0
2, 70545, Note_on_c, 0, 55, 64
2, 70572, Note_on_c, 0, 46, 0
2, 70657, Note_on_c, 0, 65, 0
2, 70659, Note_on_c, 0, 70, 0
2, 70668, Note_on_c, 0, 60, 0
2, 70692, Note_on_c, 0, 54, 48
2, 70693, Note_on_c, 0, 69, 47
2, 70693, Note_on_c, 0, 59, 38
2, 70696, Note_on_c, 0, 55, 0
2, 70698, Note_on_c, 0, 64, 53
2, 70714, Note_on_c, 0, 69, 0
2, 70725, Note_on_c, 0, 59, 0
2, 70744, Note_on_c, 0, 64, 0
2, 70770, Note_on_c, 0, 65, 76
2, 70772, Note_on_c, 0, 70, 68
2, 70773, Note_on_c, 0, 60, 60
2, 70777, Note_on_c, 0, 55, 66
2, 70788, Note_on_c, 0, 54, 0
2, 70847, Control_c, 0, 64, 127
2, 70867, Note_on_c, 0, 60, 0
2, 70882, Note_on_c, 0, 55, 0
2, 70883, Note_on_c, 0, 65, 0
2, 70894, Note_on_c, 0, 70, 0
2, 71037, Control_c, 0, 64, 0
2, 71044, Note_on_c, 0, 57, 68
2, 71044, Note_on_c, 0, 55, 74
2, 71044, Note_on_c, 0, 64, 75
2, 71045, Note_on_c, 0, 60, 69
2, 71047, Note_on_c, 0, 81, 85
2, 71048, Note_on_c, 0, 69, 89
2, 71068, Note_on_c, 0, 64, 0
2, 71072, Note_on_c, 0, 69, 0
2, 71073, Note_on_c, 0, 60, 0
2, 71076, Note_on_c, 0, 55, 0
2, 71079, Note_on_c, 0, 81, 0
2, 71082, Note_on_c, 0, 57, 0
2, 71252, Note_on_c, 0, 82, 60
2, 71253, Note_on_c, 0, 70, 59
2, 71253, Note_on_c, 0, 54, 48
2, 71254, Note_on_c, 0, 64, 57
2, 71264, Note_on_c, 0, 54, 0
2, 71266, Note_on_c, 0, 64, 0
2, 71273, Note_on_c, 0, 82, 0
2, 71275, Note_on_c, 0, 70, 0
2, 71298, Note_on_c, 0, 54, 46
2, 71301, Note_on_c, 0, 72, 51
2, 71302, Note_on_c, 0, 64, 41
2, 71305, Note_on_c, 0, 84, 58
2, 71305, Note_on_c, 0, 60, 44
2, 71344, Note_on_c, 0, 64, 0
2, 71344, Note_on_c, 0, 72, 0
2, 71347, Note_on_c, 0, 60, 0
2, 71349, Note_on_c, 0, 84, 0
2, 71355, Note_on_c, 0, 54, 0
2, 71492, Note_on_c, 0, 54, 49
2, 71494, Note_on_c, 0, 64, 38
2, 71495, Note_on_c, 0, 60, 36
2, 71496, Note_on_c, 0, 58, 34
2, 71497, Note_on_c, 0, 89, 74
2, 71499, Note_on_c, 0, 77, 67
2, 71506, Note_on_c, 0, 60, 0
2, 71507, Note_on_c, 0, 64, 0
2, 71512, Note_on_c, 0, 58, 0
2, 71520, Note_on_c, 0, 54, 0
2, 71520, Note_on_c, 0, 77, 0
2, 71521, Note_on_c, 0, 89, 0
2, 71545, Note_on_c, 0, 62, 55
2, 71550, Note_on_c, 0, 57, 40
2, 71553, Note_on_c, 0, 58, 33
2, 71554, Note_on_c, 0, 86, 53
2, 71555, Note_on_c, 0, 74, 48
2, 71556, Note_on_c, 0, 53, 26
2, 71574, Note_on_c, 0, 62, 0
2, 71577, Note_on_c, 0, 57, 0
2, 71584, Note_on_c, 0, 74, 0
2, 71586, Note_on_c, 0, 58, 0
2, 71587, Note_on_c, 0, 53, 0
2, 71593, Note_on_c, 0, 86, 0
2, 71724, Note_on_c, 0, 58, 50
2, 71729, Note_on_c, 0, 93, 74
2, 71730, Note_on_c, 0, 62, 33
2, 71732, Note_on_c, 0, 81, 64
2, 71741, Note_on_c, 0, 62, 0
2, 71749, Note_on_c, 0, 81, 0
2, 71749, Note_on_c, 0, 58, 0
2, 71752, Note_on_c, 0, 93, 0
2, 71772, Note_on_c, 0, 62, 53
2, 71779, Note_on_c, 0, 58, 33
2, 71783, Note_on_c, 0, 91, 52
2, 71784, Note_on_c, 0, 52, 34
2, 71784, Note_on_c, 0, 79, 44
2, 71796, Note_on_c, 0, 52, 0
2, 71798, Note_on_c, 0, 79, 0
2, 71803, Note_on_c, 0, 62, 0
2, 71805, Note_on_c, 0, 58, 0
2, 71814, Note_on_c, 0, 91, 0
2, 71961, Note_on_c, 0, 62, 71
2, 71967, Note_on_c, 0, 96, 73
2, 71967, Note_on_c, 0, 84, 64
2, 71972, Note_on_c, 0, 62, 0
2, 71980, Note_on_c, 0, 84, 0
2, 71989, Note_on_c, 0, 96, 0
2, 72011, Note_on_c, 0, 67, 80
2, 72016, Note_on_c, 0, 63, 44
2, 72016, Note_on_c, 0, 62, 60
2, 72020, Note_on_c, 0, 89, 67
2, 72021, Note_on_c, 0, 101, 67
2, 72021, Note_on_c, 0, 58, 36
2, 72030, Note_on_c, 0, 89, 0
2, 72031, Note_on_c, 0, 101, 0
2, 72039, Note_on_c, 0, 67, 0
2, 72039, Note_on_c, 0, 58, 0
2, 72048, Note_on_c, 0, 62, 0
2, 72049, Note_on_c, 0, 63, 0
2, 72104, Note_on_c, 0, 67, 76
2, 72105, Note_on_c, 0, 101, 68
2, 72106, Note_on_c, 0, 62, 62
2, 72108, Note_on_c, 0, 89, 55
2, 72108, Note_on_c, 0, 63, 33
2, 72113, Note_on_c, 0, 67, 0
2, 72116, Note_on_c, 0, 101, 0
2, 72117, Note_on_c, 0, 62, 0
2, 72120, Note_on_c, 0, 89, 0
2, 72120, Note_on_c, 0, 63, 0
2, 72194, Note_on_c, 0, 86, 76
2, 72195, Note_on_c, 0, 98, 62
2, 72196, Note_on_c, 0, 67, 71
2, 72199, Note_on_c, 0, 63, 43
2, 72201, Note_on_c, 0, 62, 45
2, 72210, Note_on_c, 0, 86, 0
2, 72212, Note_on_c, 0, 98, 0
2, 72213, Note_on_c, 0, 62, 0
2, 72215, Note_on_c, 0, 67, 0
2, 72218, Note_on_c, 0, 63, 0
2, 72265, Note_on_c, 0, 63, 35
2, 72266, Note_on_c, 0, 67, 60
2, 72271, Note_on_c, 0, 62, 51
2, 72271, Note_on_c, 0, 98, 67
2, 72272, Note_on_c, 0, 58, 40
2, 72273, Note_on_c, 0, 86, 68
2, 72317, Note_on_c, 0, 67, 0
2, 72318, Note_on_c, 0, 58, 0
2, 72322, Note_on_c, 0, 62, 0
2, 72326, Note_on_c, 0, 98, 0
2, 72328, Note_on_c, 0, 63, 0
2, 72331, Note_on_c, 0, 86, 0
2, 72363, Note_on_c, 0, 67, 60
2, 72363, Note_on_c, 0, 63, 42
2, 72364, Note_on_c, 0, 96, 62
2, 72368, Note_on_c, 0, 84, 50
2, 72369, Note_on_c, 0, 58, 30
2, 72374, Note_on_c, 0, 67, 0
2, 72384, Note_on_c, 0, 84, 0
2, 72386, Note_on_c, 0, 63, 0
2, 72387, Note_on_c, 0, 58, 0
2, 72388, Note_on_c, 0, 96, 0
2, 72452, Note_on_c, 0, 67, 77
2, 72453, Note_on_c, 0, 94, 78
2, 72454, Note_on_c, 0, 63, 57
2, 72455, Note_on_c, 0, 82, 67
2, 72456, Note_on_c, 0, 60, 65
2, 72459, Note_on_c, 0, 56, 44
2, 72478, Note_on_c, 0, 82, 0
2, 72487, Note_on_c, 0, 94, 0
2, 72487, Note_on_c, 0, 67, 0
2, 72488, Note_on_c, 0, 56, 0
2, 72489, Note_on_c, 0, 60, 0
2, 72496, Note_on_c, 0, 63, 0
2, 72531, Note_on_c, 0, 94, 71
2, 72531, Note_on_c, 0, 67, 68
2, 72531, Note_on_c, 0, 63, 50
2, 72535, Note_on_c, 0, 82, 63
2, 72535, Note_on_c, 0, 60, 55
2, 72537, Note_on_c, 0, 56, 37
2, 72574, Note_on_c, 0, 67, 0
2, 72577, Note_on_c, 0, 94, 0
2, 72578, Note_on_c, 0, 60, 0
2, 72579, Note_on_c, 0, 56, 0
2, 72588, Note_on_c, 0, 82, 0
2, 72588, Note_on_c, 0, 63, 0
2, 72611, Note_on_c, 0, 92, 52
2, 72613, Note_on_c, 0, 63, 47
2, 72614, Note_on_c, 0, 67, 53
2, 72617, Note_on_c, 0, 80, 34
2, 72627, Note_on_c, 0, 67, 0
2, 72628, Note_on_c, 0, 60, 29
2, 72645, Note_on_c, 0, 80, 0
2, 72646, Note_on_c, 0, 60, 0
2, 72649, Note_on_c, 0, 63, 0
2, 72649, Note_on_c, 0, 92, 0
2, 72693, Note_on_c, 0, 66, 75
2, 72695, Note_on_c, 0, 91, 67
2, 72696, Note_on_c, 0, 79, 61
2, 72697, Note_on_c, 0, 62, 69
2, 72699, Note_on_c, 0, 56, 46
2, 72702, Note_on_c, 0, 86, 44
2, 72715, Note_on_c, 0, 86, 0
2, 72721, Note_on_c, 0, 79, 0
2, 72724, Note_on_c, 0, 91, 0
2, 72726, Note_on_c, 0, 66, 0
2, 72730, Note_on_c, 0, 56, 0
2, 72739, Note_on_c, 0, 62, 0
2, 72768, Note_on_c, 0, 66, 64
2, 72768, Note_on_c, 0, 91, 60
2, 72771, Note_on_c, 0, 56, 50
2, 72771, Note_on_c, 0, 79, 54
2, 72773, Note_on_c, 0, 62, 58
2, 72773, Note_on_c, 0, 86, 62
2, 72803, Note_on_c, 0, 91, 0
2, 72807, Note_on_c, 0, 79, 0
2, 72811, Note_on_c, 0, 66, 0
2, 72811, Note_on_c, 0, 56, 0
2, 72815, Note_on_c, 0, 86, 0
2, 72839, Note_on_c, 0, 62, 0
2, 72849, Note_on_c, 0, 66, 61
2, 72849, Note_on_c, 0, 56, 57
2, 72852, Note_on_c, 0, 90, 54
2, 72853, Note_on_c, 0, 62, 18
2, 72854, Note_on_c, 0, 78, 49
2, 72857, Note_on_c, 0, 85, 58
2, 72897, Note_on_c, 0, 66, 0
2, 72899, Note_on_c, 0, 90, 0
2, 72900, Note_on_c, 0, 85, 0
2, 72901, Note_on_c, 0, 56, 0
2, 72904, Note_on_c, 0, 78, 0
2, 72911, Note_on_c, 0, 62, 0
2, 72931, Note_on_c, 0, 89, 51
2, 72933, Note_on_c, 0, 62, 30
2, 72933, Note_on_c, 0, 65, 63
2, 72937, Note_on_c, 0, 77, 47
2, 72938, Note_on_c, 0, 60, 53
2, 72939, Note_on_c, 0, 84, 59
2, 72941, Note_on_c, 0, 55, 48
2, 73091, Control_c, 0, 64, 127
2, 73166, Note_on_c, 0, 89, 0
2, 73171, Note_on_c, 0, 65, 0
2, 73175, Note_on_c, 0, 60, 0
2, 73178, Note_on_c, 0, 55, 0
2, 73182, Note_on_c, 0, 77, 0
2, 73183, Note_on_c, 0, 84, 0
2, 73185, Note_on_c, 0, 62, 0
2, 73210, Note_on_c, 0, 87, 78
2, 73214, Note_on_c, 0, 65, 55
2, 73218, Note_on_c, 0, 62, 45
2, 73218, Note_on_c, 0, 55, 30
2, 73221, Note_on_c, 0, 60, 49
2, 73221, Control_c, 0, 64, 0
2, 73305, Note_on_c, 0, 65, 0
2, 73311, Note_on_c, 0, 62, 0
2, 73314, Note_on_c, 0, 60, 0
2, 73328, Note_on_c, 0, 55, 0
2, 73400, Note_on_c, 0, 87, 0
2, 73412, Note_on_c, 0, 86, 92
2, 73416, Note_on_c, 0, 50, 66
2, 73419, Note_on_c, 0, 56, 67
2, 73420, Note_on_c, 0, 60, 71
2, 73449, Note_on_c, 0, 60, 0
2, 73474, Note_on_c, 0, 60, 13
2, 73559, Note_on_c, 0, 50, 0
2, 73562, Note_on_c, 0, 86, 0
2, 73582, Note_on_c, 0, 56, 0
2, 73583, Note_on_c, 0, 84, 95
2, 73608, Note_on_c, 0, 60, 0
2, 73662, Note_on_c, 0, 53, 65
2, 73662, Note_on_c, 0, 59, 70
2, 73704, Note_on_c, 0, 59, 0
2, 73707, Note_on_c, 0, 53, 0
2, 73772, Note_on_c, 0, 84, 0
2, 73782, Note_on_c, 0, 83, 85
2, 73904, Note_on_c, 0, 67, 80
2, 73905, Note_on_c, 0, 63, 57
2, 73907, Note_on_c, 0, 62, 64
2, 73917, Note_on_c, 0, 62, 0
2, 73926, Note_on_c, 0, 67, 0
2, 73934, Note_on_c, 0, 63, 0
2, 73938, Note_on_c, 0, 83, 0
2, 73948, Note_on_c, 0, 82, 81
2, 74031, Note_on_c, 0, 62, 38
2, 74038, Note_on_c, 0, 64, 25
2, 74048, Note_on_c, 0, 64, 0
2, 74052, Note_on_c, 0, 62, 0
2, 74059, Note_on_c, 0, 82, 0
2, 74070, Note_on_c, 0, 81, 89
2, 74142, Note_on_c, 0, 67, 71
2, 74146, Note_on_c, 0, 63, 45
2, 74152, Note_on_c, 0, 67, 0
2, 74159, Note_on_c, 0, 63, 0
2, 74287, Note_on_c, 0, 80, 71
2, 74352, Note_on_c, 0, 80, 0
2, 74354, Note_on_c, 0, 81, 0
2, 74490, Note_on_c, 0, 79, 95
2, 74493, Note_on_c, 0, 65, 78
2, 74493, Note_on_c, 0, 56, 67
2, 74494, Note_on_c, 0, 60, 71
2, 74494, Note_on_c, 0, 61, 53
2, 74543, Note_on_c, 0, 65, 0
2, 74545, Note_on_c, 0, 79, 0
2, 74561, Note_on_c, 0, 78, 55
2, 74563, Note_on_c, 0, 65, 33
2, 74629, Note_on_c, 0, 65, 0
2, 74632, Note_on_c, 0, 60, 0
2, 74635, Note_on_c, 0, 61, 0
2, 74637, Note_on_c, 0, 78, 0
2, 74667, Note_on_c, 0, 77, 73
2, 74709, Note_on_c, 0, 56, 0
2, 74724, Note_on_c, 0, 77, 0
2, 74740, Note_on_c, 0, 61, 59
2, 74743, Note_on_c, 0, 76, 73
2, 74744, Note_on_c, 0, 64, 57
2, 74745, Note_on_c, 0, 55, 59
2, 74782, Note_on_c, 0, 76, 0
2, 74799, Note_on_c, 0, 64, 0
2, 74808, Note_on_c, 0, 55, 0
2, 74835, Note_on_c, 0, 61, 0
2, 74843, Note_on_c, 0, 75, 82
2, 74867, Note_on_c, 0, 63, 58
2, 74871, Note_on_c, 0, 60, 58
2, 74872, Note_on_c, 0, 58, 40
2, 74890, Note_on_c, 0, 63, 0
2, 74899, Note_on_c, 0, 75, 0
2, 74927, Note_on_c, 0, 72, 53
2, 74934, Note_on_c, 0, 53, 11
2, 74973, Note_on_c, 0, 72, 0
2, 74995, Note_on_c, 0, 53, 0
2, 75004, Note_on_c, 0, 60, 0
2, 75006, Note_on_c, 0, 58, 0
2, 75008, Note_on_c, 0, 72, 50
2, 75055, Note_on_c, 0, 72, 0
2, 75078, Note_on_c, 0, 60, 43
2, 75082, Note_on_c, 0, 70, 48
2, 75084, Note_on_c, 0, 58, 33
2, 75110, Note_on_c, 0, 60, 0
2, 75116, Note_on_c, 0, 70, 0
2, 75142, Note_on_c, 0, 67, 47
2, 75145, Note_on_c, 0, 58, 0
2, 75196, Note_on_c, 0, 67, 0
2, 75203, Note_on_c, 0, 58, 35
2, 75213, Note_on_c, 0, 53, 33
2, 75224, Note_on_c, 0, 67, 64
2, 75238, Note_on_c, 0, 58, 0
2, 75248, Note_on_c, 0, 53, 0
2, 75258, Note_on_c, 0, 67, 0
2, 75330, Note_on_c, 0, 70, 64
2, 75332, Note_on_c, 0, 60, 68
2, 75333, Note_on_c, 0, 65, 67
2, 75335, Note_on_c, 0, 55, 63
2, 75459, Note_on_c, 0, 60, 0
2, 75462, Note_on_c, 0, 70, 0
2, 75473, Note_on_c, 0, 55, 0
2, 75475, Note_on_c, 0, 57, 54
2, 75483, Note_on_c, 0, 72, 56
2, 75510, Note_on_c, 0, 70, 12
2, 75528, Note_on_c, 0, 65, 0
2, 75543, Note_on_c, 0, 72, 0
2, 75571, Note_on_c, 0, 57, 0
2, 75577, Note_on_c, 0, 70, 0
2, 75599, Note_on_c, 0, 70, 56
2, 75601, Note_on_c, 0, 58, 60
2, 75602, Note_on_c, 0, 73, 43
2, 75603, Note_on_c, 0, 68, 49
2, 75609, Note_on_c, 0, 62, 29
2, 75612, Note_on_c, 0, 64, 30
2, 75658, Note_on_c, 0, 62, 0
2, 75663, Note_on_c, 0, 64, 0
2, 75667, Note_on_c, 0, 73, 0
2, 75676, Note_on_c, 0, 68, 0
2, 75678, Note_on_c, 0, 70, 0
2, 75681, Note_on_c, 0, 58, 0
2, 75689, Note_on_c, 0, 75, 63
2, 75690, Note_on_c, 0, 68, 34
2, 75690, Note_on_c, 0, 64, 49
2, 75691, Note_on_c, 0, 63, 60
2, 75714, Note_on_c, 0, 63, 0
2, 75717, Note_on_c, 0, 64, 0
2, 75729, Note_on_c, 0, 68, 0
2, 75729, Note_on_c, 0, 75, 0
2, 75734, Note_on_c, 0, 58, 43
2, 75813, Note_on_c, 0, 58, 0
2, 75814, Note_on_c, 0, 56, 34
2, 75841, Note_on_c, 0, 56, 0
2, 75847, Note_on_c, 0, 66, 43
2, 75849, Note_on_c, 0, 62, 50
2, 75850, Note_on_c, 0, 69, 51
2, 75851, Note_on_c, 0, 72, 36
2, 75852, Note_on_c, 0, 57, 53
2, 75884, Note_on_c, 0, 57, 0
2, 75896, Note_on_c, 0, 69, 0
2, 75904, Note_on_c, 0, 72, 0
2, 75916, Note_on_c, 0, 66, 0
2, 75928, Note_on_c, 0, 62, 0
2, 75935, Note_on_c, 0, 41, 67
2, 75952, Note_on_c, 0, 41, 0
2, 76044, Note_on_c, 0, 51, 62
2, 76045, Note_on_c, 0, 66, 62
2, 76047, Note_on_c, 0, 69, 71
2, 76047, Note_on_c, 0, 62, 78
2, 76048, Note_on_c, 0, 57, 66
2, 76089, Note_on_c, 0, 51, 0
2, 76152, Note_on_c, 0, 57, 0
2, 76161, Note_on_c, 0, 41, 76
2, 76182, Note_on_c, 0, 69, 0
2, 76188, Note_on_c, 0, 62, 0
2, 76188, Note_on_c, 0, 41, 0
2, 76201, Note_on_c, 0, 57, 57
2, 76209, Control_c, 0, 64, 127
2, 76219, Note_on_c, 0, 57, 0
2, 76254, Note_on_c, 0, 66, 0
2, 76285, Note_on_c, 0, 68, 77
2, 76286, Note_on_c, 0, 63, 80
2, 76287, Note_on_c, 0, 65, 79
2, 76288, Note_on_c, 0, 60, 84
2, 76290, Note_on_c, 0, 56, 83
2, 76298, Control_c, 0, 64, 0
2, 76407, Note_on_c, 0, 46, 78
2, 76421, Note_on_c, 0, 56, 0
2, 76437, Control_c, 0, 64, 127
2, 76494, Note_on_c, 0, 68, 0
2, 76535, Note_on_c, 0, 65, 0
2, 76538, Note_on_c, 0, 53, 43
2, 76543, Note_on_c, 0, 60, 0
2, 76556, Note_on_c, 0, 63, 0
2, 76570, Control_c, 0, 64, 0
2, 76576, Note_on_c, 0, 67, 62
2, 76576, Note_on_c, 0, 56, 55
2, 76576, Note_on_c, 0, 59, 63
2, 76578, Note_on_c, 0, 64, 60
2, 76578, Note_on_c, 0, 62, 58
2, 76582, Note_on_c, 0, 53, 0
2, 76634, Note_on_c, 0, 59, 0
2, 76637, Note_on_c, 0, 64, 0
2, 76638, Note_on_c, 0, 62, 0
2, 76650, Note_on_c, 0, 67, 0
2, 76654, Note_on_c, 0, 56, 0
2, 76666, Note_on_c, 0, 53, 44
2, 76683, Note_on_c, 0, 53, 0
2, 76692, Note_on_c, 0, 72, 72
2, 76692, Note_on_c, 0, 67, 82
2, 76694, Note_on_c, 0, 62, 85
2, 76697, Note_on_c, 0, 56, 69
2, 76760, Note_on_c, 0, 67, 0
2, 76778, Note_on_c, 0, 62, 0
2, 76778, Note_on_c, 0, 72, 0
2, 76785, Note_on_c, 0, 56, 0
2, 76812, Note_on_c, 0, 70, 73
2, 76814, Note_on_c, 0, 65, 79
2, 76815, Note_on_c, 0, 60, 75
2, 76816, Note_on_c, 0, 55, 71
2, 76829, Note_on_c, 0, 46, 0
2, 76935, Control_c, 0, 64, 127
2, 77133, Note_on_c, 0, 60, 0
2, 77143, Note_on_c, 0, 55, 0
2, 77158, Note_on_c, 0, 65, 0
2, 77172, Note_on_c, 0, 70, 0
2, 77249, Note_on_c, 0, 88, 83
2, 77251, Note_on_c, 0, 76, 74
2, 77252, Note_on_c, 0, 56, 64
2, 77254, Note_on_c, 0, 83, 66
2, 77256, Note_on_c, 0, 65, 62
2, 77256, Note_on_c, 0, 77, 64
2, 77258, Note_on_c, 0, 61, 40
2, 77259, Note_on_c, 0, 60, 61
2, 77259, Note_on_c, 0, 85, 32
2, 77266, Note_on_c, 0, 77, 0
2, 77269, Note_on_c, 0, 85, 0
2, 77269, Note_on_c, 0, 65, 0
2, 77273, Note_on_c, 0, 60, 0
2, 77277, Note_on_c, 0, 76, 0
2, 77277, Control_c, 0, 64, 0
2, 77281, Note_on_c, 0, 88, 0
2, 77283, Note_on_c, 0, 83, 0
2, 77284, Note_on_c, 0, 56, 0
2, 77304, Note_on_c, 0, 61, 0
2, 77327, Note_on_c, 0, 61, 51
2, 77329, Note_on_c, 0, 87, 74
2, 77329, Note_on_c, 0, 56, 57
2, 77329, Note_on_c, 0, 75, 77
2, 77330, Note_on_c, 0, 65, 66
2, 77332, Note_on_c, 0, 60, 62
2, 77476, Note_on_c, 0, 60, 0
2, 77480, Note_on_c, 0, 87, 0
2, 77485, Note_on_c, 0, 75, 0
2, 77488, Note_on_c, 0, 65, 0
2, 77510, Note_on_c, 0, 56, 0
2, 77512, Note_on_c, 0, 61, 0
2, 77528, Note_on_c, 0, 61, 32
2, 77528, Note_on_c, 0, 85, 46
2, 77529, Note_on_c, 0, 73, 39
2, 77532, Note_on_c, 0, 80, 53
2, 77532, Note_on_c, 0, 64, 50
2, 77532, Note_on_c, 0, 55, 55
2, 77635, Control_c, 0, 64, 127
2, 77636, Note_on_c, 0, 55, 0
2, 77637, Note_on_c, 0, 64, 0
2, 77663, Note_on_c, 0, 61, 0
2, 77666, Note_on_c, 0, 73, 0
2, 77672, Note_on_c, 0, 85, 0
2, 77674, Note_on_c, 0, 80, 0
2, 77727, Note_on_c, 0, 63, 60
2, 77729, Note_on_c, 0, 79, 55
2, 77730, Note_on_c, 0, 84, 59
2, 77730, Note_on_c, 0, 58, 48
2, 77732, Control_c, 0, 64, 0
2, 77732, Note_on_c, 0, 72, 36
2, 77733, Note_on_c, 0, 60, 54
2, 77740, Note_on_c, 0, 53, 25
2, 77777, Control_c, 0, 64, 127
2, 77784, Note_on_c, 0, 84, 0
2, 77791, Note_on_c, 0, 79, 0
2, 77814, Note_on_c, 0, 60, 0
2, 77816, Note_on_c, 0, 63, 0
2, 77818, Note_on_c, 0, 72, 0
2, 77835, Note_on_c, 0, 58, 0
2, 77844, Note_on_c, 0, 53, 0
2, 77969, Note_on_c, 0, 56, 54
2, 77999, Note_on_c, 0, 56, 0
2, 78001, Note_on_c, 0, 57, 53
2, 78003, Control_c, 0, 64, 0
2, 78004, Note_on_c, 0, 70, 72
2, 78007, Note_on_c, 0, 63, 73
2, 78008, Note_on_c, 0, 58, 72
2, 78010, Note_on_c, 0, 67, 69
2, 78010, Note_on_c, 0, 60, 74
2, 78011, Note_on_c, 0, 57, 0
2, 78181, Note_on_c, 0, 67, 0
2, 78192, Note_on_c, 0, 60, 0
2, 78201, Note_on_c, 0, 63, 0
2, 78204, Note_on_c, 0, 70, 0
2, 78216, Note_on_c, 0, 58, 0
2, 78217, Note_on_c, 0, 68, 47
2, 78219, Note_on_c, 0, 56, 35
2, 78250, Note_on_c, 0, 68, 0
2, 78257, Note_on_c, 0, 56, 0
2, 78273, Note_on_c, 0, 63, 55
2, 78274, Note_on_c, 0, 70, 67
2, 78277, Note_on_c, 0, 59, 64
2, 78278, Note_on_c, 0, 67, 56
2, 78278, Note_on_c, 0, 58, 56
2, 78337, Note_on_c, 0, 67, 0
2, 78337, Note_on_c, 0, 59, 0
2, 78347, Note_on_c, 0, 70, 0
2, 78352, Note_on_c, 0, 63, 0
2, 78361, Note_on_c, 0, 58, 0
2, 78372, Control_c, 0, 64, 127
2, 78373, Note_on_c, 0, 68, 52
2, 78377, Note_on_c, 0, 56, 39
2, 78432, Note_on_c, 0, 68, 0
2, 78444, Note_on_c, 0, 56, 0
2, 78448, Control_c, 0, 64, 0
2, 78453, Note_on_c, 0, 67, 63
2, 78454, Note_on_c, 0, 59, 60
2, 78456, Note_on_c, 0, 63, 45
2, 78457, Note_on_c, 0, 55, 50
2, 78510, Note_on_c, 0, 59, 0
2, 78523, Note_on_c, 0, 63, 0
2, 78537, Note_on_c, 0, 67, 0
2, 78566, Note_on_c, 0, 55, 0
2, 78567, Note_on_c, 0, 63, 64
2, 78568, Note_on_c, 0, 56, 56
2, 78571, Note_on_c, 0, 68, 59
2, 78574, Note_on_c, 0, 59, 56
2, 78584, Note_on_c, 0, 59, 0
2, 78610, Note_on_c, 0, 68, 0
2, 78610, Control_c, 0, 64, 127
2, 78613, Note_on_c, 0, 63, 0
2, 78670, Note_on_c, 0, 56, 0
2, 78684, Note_on_c, 0, 54, 21
2, 78719, Note_on_c, 0, 54, 0
2, 78727, Control_c, 0, 64, 0
2, 78731, Note_on_c, 0, 60, 69
2, 78732, Note_on_c, 0, 72, 60
2, 78735, Note_on_c, 0, 65, 78
2, 78845, Control_c, 0, 64, 127
2, 78898, Note_on_c, 0, 65, 0
2, 78898, Note_on_c, 0, 60, 0
2, 78943, Note_on_c, 0, 72, 0
2, 78968, Control_c, 0, 64, 0
2, 78970, Note_on_c, 0, 70, 52
2, 78971, Note_on_c, 0, 64, 59
2, 78973, Note_on_c, 0, 48, 54
2, 78975, Note_on_c, 0, 67, 59
2, 78975, Note_on_c, 0, 58, 50
2, 79071, Control_c, 0, 64, 127
2, 79076, Note_on_c, 0, 48, 0
2, 79081, Note_on_c, 0, 58, 0
2, 79089, Note_on_c, 0, 67, 0
2, 79100, Note_on_c, 0, 70, 0
2, 79104, Note_on_c, 0, 64, 0
2, 79202, Control_c, 0, 64, 0
2, 79210, Note_on_c, 0, 41, 38
2, 79212, Note_on_c, 0, 63, 46
2, 79221, Note_on_c, 0, 60, 44
2, 79263, Control_c, 0, 64, 127
2, 79264, Note_on_c, 0, 41, 0
2, 79275, Note_on_c, 0, 60, 0
2, 79291, Note_on_c, 0, 63, 0
2, 79407, Note_on_c, 0, 68, 57
2, 79410, Note_on_c, 0, 80, 57
2, 79413, Control_c, 0, 64, 0
2, 79414, Note_on_c, 0, 56, 43
2, 79414, Note_on_c, 0, 62, 64
2, 79421, Note_on_c, 0, 68, 0
2, 79429, Note_on_c, 0, 56, 0
2, 79430, Note_on_c, 0, 80, 0
2, 79430, Note_on_c, 0, 62, 0
2, 79473, Note_on_c, 0, 72, 51
2, 79473, Note_on_c, 0, 56, 48
2, 79474, Note_on_c, 0, 66, 46
2, 79474, Note_on_c, 0, 84, 74
2, 79477, Note_on_c, 0, 62, 41
2, 79492, Note_on_c, 0, 62, 0
2, 79492, Note_on_c, 0, 66, 0
2, 79494, Note_on_c, 0, 72, 0
2, 79495, Note_on_c, 0, 84, 0
2, 79498, Note_on_c, 0, 56, 0
2, 79558, Note_on_c, 0, 84, 66
2, 79561, Note_on_c, 0, 66, 56
2, 79561, Note_on_c, 0, 56, 56
2, 79563, Note_on_c, 0, 72, 34
2, 79567, Note_on_c, 0, 62, 43
2, 79644, Note_on_c, 0, 84, 0
2, 79646, Note_on_c, 0, 72, 0
2, 79654, Note_on_c, 0, 66, 0
2, 79665, Note_on_c, 0, 56, 0
2, 79670, Note_on_c, 0, 62, 0
2, 79692, Note_on_c, 0, 62, 27
2, 79693, Note_on_c, 0, 65, 50
2, 79696, Note_on_c, 0, 82, 50
2, 79701, Note_on_c, 0, 70, 45
2, 79702, Note_on_c, 0, 60, 36
2, 79704, Note_on_c, 0, 55, 44
2, 79813, Control_c, 0, 64, 127
2, 79823, Note_on_c, 0, 70, 0
2, 79841, Note_on_c, 0, 65, 0
2, 79842, Note_on_c, 0, 82, 0
2, 79843, Note_on_c, 0, 55, 0
2, 79843, Note_on_c, 0, 60, 0
2, 79851, Note_on_c, 0, 62, 0
2, 79896, Note_on_c, 0, 87, 77
2, 79899, Note_on_c, 0, 75, 77
2, 79902, Note_on_c, 0, 62, 77
2, 79902, Note_on_c, 0, 65, 78
2, 79905, Note_on_c, 0, 60, 66
2, 79905, Note_on_c, 0, 55, 67
2, 79913, Control_c, 0, 64, 0
2, 79943, Control_c, 0, 64, 127
2, 80038, Note_on_c, 0, 75, 0
2, 80047, Note_on_c, 0, 62, 0
2, 80047, Note_on_c, 0, 60, 0
2, 80047, Note_on_c, 0, 55, 0
2, 80052, Note_on_c, 0, 87, 0
2, 80052, Note_on_c, 0, 65, 0
2, 80135, Note_on_c, 0, 91, 71
2, 80137, Note_on_c, 0, 79, 66
2, 80141, Note_on_c, 0, 63, 59
2, 80141, Note_on_c, 0, 67, 73
2, 80143, Note_on_c, 0, 56, 55
2, 80145, Control_c, 0, 64, 0
2, 80145, Note_on_c, 0, 60, 58
2, 80208, Control_c, 0, 64, 127
2, 80259, Note_on_c, 0, 79, 0
2, 80266, Note_on_c, 0, 91, 0
2, 80271, Note_on_c, 0, 67, 0
2, 80289, Note_on_c, 0, 63, 0
2, 80290, Note_on_c, 0, 60, 0
2, 80293, Note_on_c, 0, 56, 0
2, 80372, Note_on_c, 0, 66, 61
2, 80373, Note_on_c, 0, 96, 69
2, 80373, Control_c, 0, 64, 0
2, 80376, Note_on_c, 0, 56, 45
2, 80376, Note_on_c, 0, 84, 53
2, 80378, Note_on_c, 0, 62, 55
2, 80382, Note_on_c, 0, 60, 46
2, 80512, Note_on_c, 0, 84, 0
2, 80513, Note_on_c, 0, 96, 0
2, 80539, Note_on_c, 0, 60, 0
2, 80545, Note_on_c, 0, 62, 0
2, 80546, Note_on_c, 0, 66, 0
2, 80553, Note_on_c, 0, 56, 0
2, 80601, Note_on_c, 0, 70, 32
2, 80636, Note_on_c, 0, 70, 0
2, 80660, Note_on_c, 0, 65, 29
2, 80661, Note_on_c, 0, 60, 29
2, 80662, Note_on_c, 0, 79, 57
2, 80664, Note_on_c, 0, 62, 32
2, 80667, Note_on_c, 0, 55, 36
2, 80745, Control_c, 0, 64, 127
2, 80885, Note_on_c, 0, 79, 0
2, 80939, Note_on_c, 0, 65, 0
2, 80942, Note_on_c, 0, 62, 0
2, 80946, Note_on_c, 0, 60, 0
2, 80952, Note_on_c, 0, 55, 0
2, 80973, Note_on_c, 0, 78, 77
2, 81009, Note_on_c, 0, 78, 0
2, 81032, Note_on_c, 0, 79, 94
2, 81095, Note_on_c, 0, 79, 0
2, 81101, Control_c, 0, 64, 0
2, 81128, Note_on_c, 0, 55, 53
2, 81131, Note_on_c, 0, 65, 40
2, 81132, Note_on_c, 0, 79, 80
2, 81136, Note_on_c, 0, 60, 43
2, 81211, Note_on_c, 0, 56, 1
2, 81218, Control_c, 0, 64, 127
2, 81234, Note_on_c, 0, 60, 0
2, 81240, Note_on_c, 0, 65, 0
2, 81255, Note_on_c, 0, 55, 0
2, 81261, Note_on_c, 0, 56, 0
2, 81323, Control_c, 0, 64, 0
2, 81327, Note_on_c, 0, 64, 35
2, 81329, Note_on_c, 0, 53, 37
2, 81330, Note_on_c, 0, 59, 44
2, 81336, Note_on_c, 0, 79, 0
2, 81454, Note_on_c, 0, 82, 82
2, 81456, Control_c, 0, 64, 127
2, 81478, Note_on_c, 0, 53, 0
2, 81479, Note_on_c, 0, 59, 0
2, 81494, Note_on_c, 0, 82, 0
2, 81496, Note_on_c, 0, 64, 0
2, 81542, Note_on_c, 0, 82, 81
2, 81543, Note_on_c, 0, 80, 79
2, 81590, Note_on_c, 0, 82, 0
2, 81595, Note_on_c, 0, 80, 0
2, 81627, Note_on_c, 0, 82, 67
2, 81629, Control_c, 0, 64, 0
2, 81629, Note_on_c, 0, 79, 72
2, 81630, Note_on_c, 0, 63, 35
2, 81631, Note_on_c, 0, 67, 44
2, 81636, Note_on_c, 0, 62, 54
2, 81639, Note_on_c, 0, 58, 28
2, 81747, Control_c, 0, 64, 127
2, 81800, Note_on_c, 0, 79, 0
2, 81826, Note_on_c, 0, 78, 56
2, 81868, Note_on_c, 0, 67, 0
2, 81870, Note_on_c, 0, 78, 0
2, 81871, Note_on_c, 0, 62, 0
2, 81871, Note_on_c, 0, 63, 0
2, 81879, Control_c, 0, 64, 0
2, 81886, Note_on_c, 0, 77, 56
2, 81916, Note_on_c, 0, 58, 0
2, 81988, Control_c, 0, 64, 127
2, 82012, Control_c, 0, 64, 0
2, 82025, Control_c, 0, 64, 127
2, 82061, Note_on_c, 0, 77, 0
2, 82081, Note_on_c, 0, 76, 12
2, 82107, Control_c, 0, 64, 0
2, 82110, Note_on_c, 0, 82, 0
2, 82118, Note_on_c, 0, 76, 0
2, 82126, Note_on_c, 0, 65, 43
2, 82129, Note_on_c, 0, 77, 53
2, 82133, Note_on_c, 0, 61, 23
2, 82138, Note_on_c, 0, 60, 31
2, 82139, Note_on_c, 0, 56, 33
2, 82229, Control_c, 0, 64, 127
2, 82243, Note_on_c, 0, 60, 0
2, 82252, Note_on_c, 0, 65, 0
2, 82262, Note_on_c, 0, 61, 0
2, 82285, Note_on_c, 0, 56, 0
2, 82317, Control_c, 0, 64, 0
2, 82329, Note_on_c, 0, 61, 34
2, 82333, Note_on_c, 0, 64, 32
2, 82339, Note_on_c, 0, 55, 25
2, 82429, Control_c, 0, 64, 127
2, 82443, Note_on_c, 0, 55, 0
2, 82445, Note_on_c, 0, 64, 0
2, 82461, Note_on_c, 0, 61, 0
2, 82537, Note_on_c, 0, 77, 0
2, 82553, Note_on_c, 0, 63, 34
2, 82558, Note_on_c, 0, 60, 37
2, 82560, Note_on_c, 0, 58, 32
2, 82564, Control_c, 0, 64, 0
2, 82686, Control_c, 0, 64, 127
2, 82805, Note_on_c, 0, 84, 90
2, 82807, Note_on_c, 0, 72, 89
2, 82850, Note_on_c, 0, 84, 0
2, 82854, Note_on_c, 0, 72, 0
2, 82900, Note_on_c, 0, 73, 62
2, 82902, Note_on_c, 0, 85, 81
2, 82916, Note_on_c, 0, 63, 0
2, 82916, Note_on_c, 0, 60, 0
2, 82933, Note_on_c, 0, 58, 0
2, 82937, Note_on_c, 0, 73, 0
2, 82939, Note_on_c, 0, 85, 0
2, 82978, Note_on_c, 0, 75, 69
2, 82979, Note_on_c, 0, 87, 77
2, 83005, Note_on_c, 0, 87, 0
2, 83006, Note_on_c, 0, 75, 0
2, 83052, Note_on_c, 0, 84, 62
2, 83053, Note_on_c, 0, 72, 52
2, 83058, Note_on_c, 0, 62, 43
2, 83059, Control_c, 0, 64, 0
2, 83059, Note_on_c, 0, 55, 38
2, 83060, Note_on_c, 0, 53, 29
2, 83063, Note_on_c, 0, 58, 33
2, 83146, Control_c, 0, 64, 127
2, 83194, Note_on_c, 0, 62, 0
2, 83203, Note_on_c, 0, 53, 0
2, 83203, Note_on_c, 0, 84, 0
2, 83204, Note_on_c, 0, 55, 0
2, 83219, Note_on_c, 0, 72, 0
2, 83221, Note_on_c, 0, 58, 0
2, 83282, Control_c, 0, 64, 0
2, 83288, Note_on_c, 0, 82, 39
2, 83293, Note_on_c, 0, 70, 33
2, 83294, Note_on_c, 0, 60, 34
2, 83297, Note_on_c, 0, 58, 28
2, 83302, Note_on_c, 0, 52, 36
2, 83387, Control_c, 0, 64, 127
2, 83412, Note_on_c, 0, 52, 0
2, 83420, Note_on_c, 0, 58, 0
2, 83427, Note_on_c, 0, 60, 0
2, 83441, Note_on_c, 0, 82, 0
2, 83444, Note_on_c, 0, 70, 0
2, 83543, Note_on_c, 0, 74, 87
2, 83543, Note_on_c, 0, 81, 80
2, 83544, Note_on_c, 0, 78, 59
2, 83547, Control_c, 0, 64, 0
2, 83547, Note_on_c, 0, 57, 64
2, 83548, Note_on_c, 0, 63, 67
2, 83549, Note_on_c, 0, 67, 68
2, 83591, Note_on_c, 0, 74, 0
2, 83597, Note_on_c, 0, 81, 0
2, 83615, Note_on_c, 0, 69, 50
2, 83621, Note_on_c, 0, 67, 0
2, 83624, Note_on_c, 0, 57, 0
2, 83637, Note_on_c, 0, 63, 0
2, 83639, Note_on_c, 0, 69, 0
2, 83655, Note_on_c, 0, 78, 0
2, 83672, Note_on_c, 0, 74, 48
2, 83673, Note_on_c, 0, 67, 46
2, 83673, Note_on_c, 0, 63, 35
2, 83677, Note_on_c, 0, 81, 50
2, 83679, Note_on_c, 0, 57, 43
2, 83718, Note_on_c, 0, 74, 0
2, 83725, Note_on_c, 0, 81, 0
2, 83733, Note_on_c, 0, 57, 0
2, 83735, Note_on_c, 0, 63, 0
2, 83739, Note_on_c, 0, 67, 0
2, 83995, Control_c, 0, 64, 127
2, 84072, Control_c, 0, 64, 0
2, 84083, Note_on_c, 0, 63, 55
2, 84083, Note_on_c, 0, 67, 66
2, 84085, Note_on_c, 0, 56, 46
2, 84086, Note_on_c, 0, 82, 74
2, 84086, Note_on_c, 0, 75, 74
2, 84086, Note_on_c, 0, 70, 76
2, 84089, Note_on_c, 0, 60, 58
2, 84104, Note_on_c, 0, 70, 0
2, 84108, Note_on_c, 0, 67, 0
2, 84115, Note_on_c, 0, 75, 0
2, 84115, Note_on_c, 0, 60, 0
2, 84118, Note_on_c, 0, 56, 0
2, 84118, Note_on_c, 0, 82, 0
2, 84120, Note_on_c, 0, 63, 0
2, 84176, Note_on_c, 0, 85, 88
2, 84177, Note_on_c, 0, 73, 82
2, 84181, Note_on_c, 0, 63, 73
2, 84181, Note_on_c, 0, 56, 64
2, 84182, Note_on_c, 0, 78, 60
2, 84182, Note_on_c, 0, 67, 79
2, 84185, Note_on_c, 0, 60, 64
2, 84192, Note_on_c, 0, 78, 0
2, 84206, Note_on_c, 0, 67, 0
2, 84214, Control_c, 0, 64, 127
2, 84215, Note_on_c, 0, 73, 0
2, 84218, Note_on_c, 0, 56, 0
2, 84218, Note_on_c, 0, 85, 0
2, 84230, Control_c, 0, 64, 0
2, 84231, Note_on_c, 0, 60, 0
2, 84237, Note_on_c, 0, 63, 0
2, 84255, Note_on_c, 0, 85, 59
2, 84257, Note_on_c, 0, 73, 57
2, 84263, Note_on_c, 0, 82, 38
2, 84264, Note_on_c, 0, 79, 53
2, 84265, Note_on_c, 0, 56, 64
2, 84265, Note_on_c, 0, 66, 73
2, 84266, Note_on_c, 0, 62, 73
2, 84288, Note_on_c, 0, 86, 34
2, 84298, Note_on_c, 0, 73, 0
2, 84298, Note_on_c, 0, 74, 69
2, 84300, Note_on_c, 0, 85, 0
2, 84325, Note_on_c, 0, 74, 0
2, 84326, Note_on_c, 0, 79, 0
2, 84333, Note_on_c, 0, 86, 0
2, 84339, Note_on_c, 0, 56, 0
2, 84340, Note_on_c, 0, 66, 0
2, 84341, Note_on_c, 0, 82, 0
2, 84356, Note_on_c, 0, 62, 0
2, 84380, Note_on_c, 0, 89, 78
2, 84381, Note_on_c, 0, 56, 59
2, 84381, Note_on_c, 0, 66, 62
2, 84382, Note_on_c, 0, 77, 68
2, 84385, Note_on_c, 0, 62, 47
2, 84406, Control_c, 0, 64, 127
2, 84443, Note_on_c, 0, 89, 0
2, 84462, Note_on_c, 0, 77, 0
2, 84469, Note_on_c, 0, 66, 0
2, 84472, Note_on_c, 0, 56, 0
2, 84474, Note_on_c, 0, 62, 0
2, 84498, Control_c, 0, 64, 0
2, 84501, Note_on_c, 0, 65, 58
2, 84503, Note_on_c, 0, 62, 34
2, 84506, Note_on_c, 0, 70, 65
2, 84510, Note_on_c, 0, 60, 40
2, 84511, Note_on_c, 0, 55, 44
2, 84517, Note_on_c, 0, 82, 15
2, 84610, Control_c, 0, 64, 127
2, 84640, Note_on_c, 0, 60, 0
2, 84641, Note_on_c, 0, 65, 0
2, 84642, Note_on_c, 0, 55, 0
2, 84648, Note_on_c, 0, 70, 0
2, 84649, Note_on_c, 0, 82, 0
2, 84652, Note_on_c, 0, 62, 0
2, 84685, Note_on_c, 0, 82, 34
2, 84687, Control_c, 0, 64, 0
2, 84690, Note_on_c, 0, 70, 38
2, 84694, Note_on_c, 0, 62, 40
2, 84694, Note_on_c, 0, 65, 42
2, 84700, Note_on_c, 0, 60, 42
2, 84701, Note_on_c, 0, 55, 33
2, 84736, Control_c, 0, 64, 127
2, 84804, Note_on_c, 0, 70, 0
2, 84807, Note_on_c, 0, 62, 0
2, 84811, Note_on_c, 0, 65, 0
2, 84822, Note_on_c, 0, 60, 0
2, 84823, Note_on_c, 0, 55, 0
2, 84827, Note_on_c, 0, 82, 0
2, 84914, Note_on_c, 0, 75, 92
2, 84915, Note_on_c, 0, 87, 86
2, 84916, Note_on_c, 0, 56, 69
2, 84916, Note_on_c, 0, 61, 68
2, 84916, Note_on_c, 0, 82, 78
2, 84917, Note_on_c, 0, 65, 80
2, 84917, Note_on_c, 0, 60, 72
2, 84918, Control_c, 0, 64, 0
2, 84945, Control_c, 0, 64, 127
2, 84946, Note_on_c, 0, 75, 0
2, 84953, Note_on_c, 0, 82, 0
2, 84955, Note_on_c, 0, 65, 0
2, 84958, Note_on_c, 0, 87, 0
2, 84959, Note_on_c, 0, 56, 0
2, 84965, Note_on_c, 0, 60, 0
2, 84968, Note_on_c, 0, 61, 0
2, 84976, Control_c, 0, 64, 0
2, 84991, Note_on_c, 0, 87, 84
2, 84991, Note_on_c, 0, 61, 60
2, 84994, Note_on_c, 0, 65, 79
2, 84995, Note_on_c, 0, 56, 69
2, 84996, Note_on_c, 0, 93, 83
2, 84996, Note_on_c, 0, 81, 80
2, 84999, Note_on_c, 0, 60, 50
2, 84999, Note_on_c, 0, 88, 78
2, 85001, Note_on_c, 0, 87, 0
2, 85001, Note_on_c, 0, 90, 33
2, 85002, Note_on_c, 0, 91, 36
2, 85012, Note_on_c, 0, 90, 0
2, 85013, Control_c, 0, 64, 127
2, 85015, Note_on_c, 0, 91, 0
2, 85073, Note_on_c, 0, 81, 0
2, 85079, Note_on_c, 0, 88, 0
2, 85081, Note_on_c, 0, 93, 0
2, 85091, Note_on_c, 0, 60, 0
2, 85103, Note_on_c, 0, 65, 0
2, 85132, Note_on_c, 0, 61, 0
2, 85140, Note_on_c, 0, 56, 0
2, 85171, Note_on_c, 0, 100, 70
2, 85174, Control_c, 0, 64, 0
2, 85174, Note_on_c, 0, 61, 61
2, 85175, Note_on_c, 0, 88, 60
2, 85175, Note_on_c, 0, 95, 66
2, 85178, Note_on_c, 0, 64, 62
2, 85179, Note_on_c, 0, 55, 66
2, 85235, Control_c, 0, 64, 127
2, 85301, Note_on_c, 0, 55, 0
2, 85308, Note_on_c, 0, 64, 0
2, 85327, Note_on_c, 0, 100, 0
2, 85328, Note_on_c, 0, 95, 0
2, 85334, Note_on_c, 0, 61, 0
2, 85342, Note_on_c, 0, 88, 0
2, 85433, Control_c, 0, 64, 0
2, 85440, Note_on_c, 0, 63, 38
2, 85442, Note_on_c, 0, 60, 47
2, 85443, Note_on_c, 0, 99, 57
2, 85444, Note_on_c, 0, 87, 44
2, 85448, Note_on_c, 0, 94, 48
2, 85448, Note_on_c, 0, 58, 33
2, 85449, Note_on_c, 0, 53, 35
2, 85510, Control_c, 0, 64, 127
2, 85514, Note_on_c, 0, 99, 0
2, 85521, Note_on_c, 0, 94, 0
2, 85522, Note_on_c, 0, 53, 0
2, 85529, Note_on_c, 0, 87, 0
2, 85542, Note_on_c, 0, 60, 0
2, 85543, Note_on_c, 0, 63, 0
2, 85546, Note_on_c, 0, 58, 0
2, 85636, Note_on_c, 0, 92, 49
2, 85639, Note_on_c, 0, 80, 33
2, 85640, Note_on_c, 0, 63, 34
2, 85643, Control_c, 0, 64, 0
2, 85643, Note_on_c, 0, 53, 42
2, 85647, Note_on_c, 0, 58, 36
2, 85649, Note_on_c, 0, 87, 34
2, 85650, Note_on_c, 0, 60, 45
2, 85698, Control_c, 0, 64, 127
2, 85763, Note_on_c, 0, 60, 0
2, 85775, Note_on_c, 0, 58, 0
2, 85789, Note_on_c, 0, 53, 0
2, 85795, Note_on_c, 0, 63, 0
2, 85801, Note_on_c, 0, 80, 0
2, 85829, Note_on_c, 0, 87, 0
2, 85834, Note_on_c, 0, 92, 0
2, 85916, Note_on_c, 0, 63, 37
2, 85924, Note_on_c, 0, 56, 33
2, 85928, Note_on_c, 0, 59, 46
2, 85929, Note_on_c, 0, 53, 30
2, 85949, Control_c, 0, 64, 0
2, 86012, Note_on_c, 0, 94, 87
2, 86194, Note_on_c, 0, 92, 43
2, 86220, Note_on_c, 0, 92, 0
2, 86229, Note_on_c, 0, 94, 0
2, 86272, Note_on_c, 0, 87, 64
2, 86280, Note_on_c, 0, 59, 0
2, 86280, Note_on_c, 0, 53, 0
2, 86293, Note_on_c, 0, 56, 0
2, 86294, Note_on_c, 0, 63, 0
2, 86306, Note_on_c, 0, 87, 0
2, 86325, Note_on_c, 0, 83, 36
2, 86399, Note_on_c, 0, 83, 0
2, 86414, Note_on_c, 0, 53, 27
2, 86417, Note_on_c, 0, 62, 32
2, 86421, Note_on_c, 0, 58, 30
2, 86423, Note_on_c, 0, 89, 66
2, 86429, Note_on_c, 0, 55, 31
2, 86456, Note_on_c, 0, 89, 0
2, 86474, Note_on_c, 0, 55, 0
2, 86480, Note_on_c, 0, 53, 0
2, 86483, Note_on_c, 0, 62, 0
2, 86485, Note_on_c, 0, 58, 0
2, 86531, Note_on_c, 0, 77, 38
2, 86610, Note_on_c, 0, 77, 0
2, 86718, Note_on_c, 0, 62, 43
2, 86728, Note_on_c, 0, 58, 19
2, 86731, Note_on_c, 0, 62, 0
2, 86741, Note_on_c, 0, 58, 0
2, 86831, Note_on_c, 0, 84, 81
2, 86864, Note_on_c, 0, 84, 0
2, 86944, Note_on_c, 0, 63, 49
2, 86948, Note_on_c, 0, 58, 40
2, 86950, Note_on_c, 0, 52, 36
2, 86953, Note_on_c, 0, 72, 44
2, 86980, Note_on_c, 0, 52, 0
2, 86980, Note_on_c, 0, 63, 0
2, 86985, Note_on_c, 0, 58, 0
2, 86988, Note_on_c, 0, 72, 0
2, 87120, Note_on_c, 0, 63, 46
2, 87123, Note_on_c, 0, 52, 36
2, 87124, Note_on_c, 0, 58, 42
2, 87184, Note_on_c, 0, 63, 0
2, 87189, Note_on_c, 0, 58, 0
2, 87192, Note_on_c, 0, 52, 0
2, 87237, Control_c, 0, 64, 127
2, 87336, Control_c, 0, 64, 0
2, 87360, Note_on_c, 0, 70, 90
2, 87362, Note_on_c, 0, 58, 85
2, 87362, Note_on_c, 0, 63, 84
2, 87363, Note_on_c, 0, 60, 94
2, 87366, Note_on_c, 0, 67, 68
2, 87425, Note_on_c, 0, 60, 0
2, 87432, Note_on_c, 0, 63, 0
2, 87432, Note_on_c, 0, 70, 0
2, 87433, Note_on_c, 0, 67, 0
2, 87440, Note_on_c, 0, 58, 0
2, 87457, Note_on_c, 0, 56, 57
2, 87482, Note_on_c, 0, 70, 77
2, 87485, Note_on_c, 0, 63, 71
2, 87487, Note_on_c, 0, 60, 81
2, 87489, Note_on_c, 0, 67, 65
2, 87492, Note_on_c, 0, 56, 0
2, 87493, Note_on_c, 0, 58, 76
2, 87574, Note_on_c, 0, 60, 0
2, 87575, Note_on_c, 0, 67, 0
2, 87581, Note_on_c, 0, 70, 0
2, 87583, Note_on_c, 0, 63, 0
2, 87607, Note_on_c, 0, 58, 0
2, 87612, Note_on_c, 0, 68, 50
2, 87614, Note_on_c, 0, 60, 49
2, 87615, Note_on_c, 0, 56, 52
2, 87617, Note_on_c, 0, 63, 34
2, 87666, Note_on_c, 0, 60, 0
2, 87675, Note_on_c, 0, 68, 0
2, 87679, Note_on_c, 0, 63, 0
2, 87691, Note_on_c, 0, 56, 0
2, 87716, Note_on_c, 0, 56, 39
2, 87735, Note_on_c, 0, 63, 55
2, 87743, Note_on_c, 0, 60, 49
2, 87786, Note_on_c, 0, 56, 0
2, 87808, Note_on_c, 0, 60, 0
2, 87826, Note_on_c, 0, 63, 0
2, 87847, Note_on_c, 0, 59, 44
2, 87849, Note_on_c, 0, 56, 37
2, 87850, Note_on_c, 0, 62, 53
2, 87851, Note_on_c, 0, 67, 33
2, 87867, Note_on_c, 0, 64, 33
2, 87903, Note_on_c, 0, 62, 0
2, 87911, Note_on_c, 0, 67, 0
2, 87911, Note_on_c, 0, 64, 0
2, 87915, Note_on_c, 0, 59, 0
2, 87920, Note_on_c, 0, 56, 0
2, 87935, Note_on_c, 0, 46, 44
2, 87973, Note_on_c, 0, 59, 48
2, 87974, Note_on_c, 0, 67, 51
2, 87975, Note_on_c, 0, 62, 49
2, 87975, Note_on_c, 0, 56, 44
2, 87978, Note_on_c, 0, 64, 44
2, 88032, Note_on_c, 0, 67, 0
2, 88033, Note_on_c, 0, 64, 0
2, 88046, Note_on_c, 0, 62, 0
2, 88063, Note_on_c, 0, 56, 0
2, 88072, Note_on_c, 0, 59, 0
2, 88166, Note_on_c, 0, 58, 45
2, 88167, Note_on_c, 0, 65, 50
2, 88169, Note_on_c, 0, 62, 56
2, 88170, Note_on_c, 0, 53, 57
2, 88199, Note_on_c, 0, 53, 0
2, 88205, Note_on_c, 0, 46, 0
2, 88210, Control_c, 0, 64, 127
2, 88240, Note_on_c, 0, 65, 0
2, 88242, Note_on_c, 0, 58, 0
2, 88248, Note_on_c, 0, 62, 0
2, 88312, Control_c, 0, 64, 0
2, 88320, Note_on_c, 0, 62, 53
2, 88320, Note_on_c, 0, 39, 38
2, 88321, Note_on_c, 0, 67, 47
2, 88322, Note_on_c, 0, 55, 41
2, 88323, Note_on_c, 0, 46, 37
2, 88389, Control_c, 0, 64, 127
2, 88394, Note_on_c, 0, 39, 0
2, 88424, Note_on_c, 0, 55, 0
2, 88493, Note_on_c, 0, 62, 0
2, 88514, Note_on_c, 0, 67, 0
2, 88567, Note_on_c, 0, 55, 42
2, 88596, Note_on_c, 0, 46, 0
2, 88598, Note_on_c, 0, 55, 0
2, 88754, Note_on_c, 0, 78, 75
2, 88756, Note_on_c, 0, 66, 84
2, 88758, Note_on_c, 0, 73, 60
2, 88798, Note_on_c, 0, 66, 0
2, 88803, Note_on_c, 0, 73, 0
2, 88805, Note_on_c, 0, 78, 0
2, 88822, Control_c, 0, 64, 0
2, 88827, Note_on_c, 0, 50, 49
2, 88828, Note_on_c, 0, 56, 45
2, 88828, Note_on_c, 0, 79, 64
2, 88829, Note_on_c, 0, 67, 69
2, 88830, Note_on_c, 0, 60, 48
2, 88896, Control_c, 0, 64, 127
2, 88920, Note_on_c, 0, 50, 0
2, 88928, Note_on_c, 0, 56, 0
2, 88936, Note_on_c, 0, 67, 0
2, 88938, Note_on_c, 0, 79, 0
2, 88949, Note_on_c, 0, 60, 0
2, 89000, Note_on_c, 0, 53, 59
2, 89001, Note_on_c, 0, 64, 61
2, 89002, Note_on_c, 0, 59, 63
2, 89004, Note_on_c, 0, 80, 67
2, 89005, Control_c, 0, 64, 0
2, 89005, Note_on_c, 0, 68, 72
2, 89035, Note_on_c, 0, 68, 0
2, 89041, Note_on_c, 0, 64, 0
2, 89045, Note_on_c, 0, 53, 0
2, 89046, Note_on_c, 0, 80, 0
2, 89053, Note_on_c, 0, 59, 0
2, 89080, Note_on_c, 0, 53, 68
2, 89081, Note_on_c, 0, 59, 60
2, 89082, Note_on_c, 0, 82, 77
2, 89082, Note_on_c, 0, 64, 69
2, 89083, Note_on_c, 0, 70, 83
2, 89106, Control_c, 0, 64, 127
2, 89125, Note_on_c, 0, 64, 0
2, 89125, Note_on_c, 0, 82, 0
2, 89125, Note_on_c, 0, 53, 0
2, 89127, Note_on_c, 0, 70, 0
2, 89137, Note_on_c, 0, 59, 0
2, 89155, Control_c, 0, 64, 0
2, 89166, Note_on_c, 0, 82, 60
2, 89167, Note_on_c, 0, 70, 76
2, 89170, Note_on_c, 0, 59, 58
2, 89171, Note_on_c, 0, 53, 68
2, 89171, Note_on_c, 0, 64, 67
2, 89195, Note_on_c, 0, 70, 0
2, 89195, Note_on_c, 0, 83, 36
2, 89197, Note_on_c, 0, 53, 0
2, 89199, Note_on_c, 0, 71, 61
2, 89201, Note_on_c, 0, 59, 0
2, 89209, Note_on_c, 0, 82, 0
2, 89210, Note_on_c, 0, 71, 0
2, 89219, Note_on_c, 0, 64, 0
2, 89222, Note_on_c, 0, 83, 0
2, 89226, Control_c, 0, 64, 127
2, 89245, Control_c, 0, 64, 0
2, 89262, Note_on_c, 0, 67, 64
2, 89263, Note_on_c, 0, 74, 78
2, 89263, Note_on_c, 0, 86, 84
2, 89266, Note_on_c, 0, 62, 47
2, 89268, Note_on_c, 0, 63, 35
2, 89268, Note_on_c, 0, 58, 42
2, 89269, Note_on_c, 0, 85, 52
2, 89279, Note_on_c, 0, 85, 0
2, 89295, Note_on_c, 0, 86, 0
2, 89297, Note_on_c, 0, 74, 0
2, 89304, Note_on_c, 0, 67, 0
2, 89308, Note_on_c, 0, 58, 0
2, 89309, Note_on_c, 0, 63, 0
2, 89310, Note_on_c, 0, 62, 0
2, 89347, Note_on_c, 0, 86, 73
2, 89348, Note_on_c, 0, 74, 65
2, 89348, Note_on_c, 0, 67, 50
2, 89350, Note_on_c, 0, 63, 35
2, 89351, Note_on_c, 0, 58, 31
2, 89352, Note_on_c, 0, 62, 29
2, 89374, Control_c, 0, 64, 127
2, 89389, Note_on_c, 0, 86, 0
2, 89401, Note_on_c, 0, 74, 0
2, 89401, Note_on_c, 0, 67, 0
2, 89404, Note_on_c, 0, 63, 0
2, 89406, Note_on_c, 0, 62, 0
2, 89414, Note_on_c, 0, 58, 0
2, 89430, Note_on_c, 0, 84, 53
2, 89431, Note_on_c, 0, 58, 14
2, 89431, Note_on_c, 0, 67, 44
2, 89434, Note_on_c, 0, 63, 26
2, 89435, Note_on_c, 0, 72, 30
2, 89436, Note_on_c, 0, 62, 28
2, 89456, Note_on_c, 0, 72, 0
2, 89459, Note_on_c, 0, 67, 0
2, 89461, Note_on_c, 0, 84, 0
2, 89464, Note_on_c, 0, 62, 0
2, 89466, Note_on_c, 0, 63, 0
2, 89474, Note_on_c, 0, 58, 0
2, 89497, Control_c, 0, 64, 0
2, 89506, Note_on_c, 0, 86, 70
2, 89506, Note_on_c, 0, 74, 61
2, 89511, Note_on_c, 0, 67, 37
2, 89514, Note_on_c, 0, 58, 31
2, 89514, Note_on_c, 0, 63, 33
2, 89516, Note_on_c, 0, 62, 37
2, 89536, Note_on_c, 0, 74, 0
2, 89540, Note_on_c, 0, 67, 0
2, 89541, Note_on_c, 0, 62, 0
2, 89545, Note_on_c, 0, 86, 0
2, 89546, Control_c, 0, 64, 127
2, 89550, Note_on_c, 0, 63, 0
2, 89568, Note_on_c, 0, 58, 0
2, 89605, Control_c, 0, 64, 0
2, 89613, Note_on_c, 0, 89, 66
2, 89617, Note_on_c, 0, 77, 54
2, 89620, Note_on_c, 0, 67, 58
2, 89622, Note_on_c, 0, 63, 36
2, 89624, Note_on_c, 0, 57, 40
2, 89632, Note_on_c, 0, 67, 0
2, 89637, Note_on_c, 0, 89, 0
2, 89637, Note_on_c, 0, 77, 0
2, 89639, Note_on_c, 0, 57, 0
2, 89642, Note_on_c, 0, 63, 0
2, 89768, Note_on_c, 0, 85, 64
2, 89768, Note_on_c, 0, 65, 58
2, 89771, Note_on_c, 0, 73, 37
2, 89772, Note_on_c, 0, 56, 38
2, 89774, Note_on_c, 0, 60, 47
2, 89776, Note_on_c, 0, 61, 33
2, 89784, Control_c, 0, 64, 127
2, 89851, Note_on_c, 0, 85, 0
2, 89852, Note_on_c, 0, 73, 0
2, 89864, Note_on_c, 0, 65, 0
2, 89871, Note_on_c, 0, 60, 0
2, 89888, Note_on_c, 0, 65, 35
2, 89915, Note_on_c, 0, 65, 0
2, 89923, Note_on_c, 0, 56, 0
2, 89927, Note_on_c, 0, 61, 0
2, 89945, Control_c, 0, 64, 0
2, 89955, Note_on_c, 0, 85, 67
2, 89959, Note_on_c, 0, 73, 33
2, 89961, Note_on_c, 0, 65, 49
2, 89970, Note_on_c, 0, 61, 31
2, 89972, Note_on_c, 0, 56, 25
2, 89977, Note_on_c, 0, 65, 0
2, 89978, Note_on_c, 0, 73, 0
2, 89984, Note_on_c, 0, 61, 0
2, 89986, Note_on_c, 0, 85, 0
2, 89999, Note_on_c, 0, 56, 0
2, 90003, Control_c, 0, 64, 127
2, 90047, Control_c, 0, 64, 0
2, 90072, Note_on_c, 0, 88, 61
2, 90075, Note_on_c, 0, 61, 49
2, 90075, Note_on_c, 0, 76, 53
2, 90077, Note_on_c, 0, 64, 53
2, 90079, Note_on_c, 0, 55, 51
2, 90089, Note_on_c, 0, 64, 0
2, 90094, Note_on_c, 0, 55, 0
2, 90095, Note_on_c, 0, 76, 0
2, 90098, Note_on_c, 0, 61, 0
2, 90100, Note_on_c, 0, 88, 0
2, 90155, Control_c, 0, 64, 127
2, 90203, Control_c, 0, 64, 0
2, 90235, Note_on_c, 0, 87, 62
2, 90236, Note_on_c, 0, 75, 51
2, 90238, Note_on_c, 0, 63, 35
2, 90242, Note_on_c, 0, 53, 36
2, 90242, Note_on_c, 0, 60, 49
2, 90243, Note_on_c, 0, 58, 33
2, 90291, Control_c, 0, 64, 127
2, 90330, Note_on_c, 0, 53, 0
2, 90334, Note_on_c, 0, 87, 0
2, 90340, Note_on_c, 0, 60, 0
2, 90342, Note_on_c, 0, 63, 0
2, 90350, Note_on_c, 0, 75, 0
2, 90359, Note_on_c, 0, 58, 0
2, 90433, Control_c, 0, 64, 0
2, 90440, Note_on_c, 0, 84, 49
2, 90443, Note_on_c, 0, 63, 46
2, 90443, Note_on_c, 0, 72, 33
2, 90450, Note_on_c, 0, 58, 35
2, 90451, Note_on_c, 0, 53, 30
2, 90451, Note_on_c, 0, 60, 44
2, 90470, Control_c, 0, 64, 127
2, 90553, Note_on_c, 0, 60, 0
2, 90559, Note_on_c, 0, 53, 0
2, 90562, Note_on_c, 0, 63, 0
2, 90569, Note_on_c, 0, 58, 0
2, 90572, Note_on_c, 0, 72, 0
2, 90587, Note_on_c, 0, 84, 0
2, 90723, Control_c, 0, 64, 0
2, 90732, Note_on_c, 0, 62, 80
2, 90733, Note_on_c, 0, 53, 63
2, 90733, Note_on_c, 0, 55, 68
2, 90733, Note_on_c, 0, 58, 64
2, 90735, Note_on_c, 0, 82, 83
2, 90736, Note_on_c, 0, 70, 90
2, 90772, Control_c, 0, 64, 127
2, 90784, Note_on_c, 0, 62, 0
2, 90786, Note_on_c, 0, 70, 0
2, 90787, Note_on_c, 0, 53, 0
2, 90792, Note_on_c, 0, 82, 0
2, 90792, Note_on_c, 0, 55, 0
2, 90800, Note_on_c, 0, 58, 0
2, 90818, Note_on_c, 0, 58, 35
2, 90819, Note_on_c, 0, 62, 60
2, 90820, Note_on_c, 0, 55, 58
2, 90820, Note_on_c, 0, 72, 68
2, 90821, Note_on_c, 0, 84, 74
2, 90822, Note_on_c, 0, 53, 50
2, 90830, Note_on_c, 0, 62, 0
2, 90832, Note_on_c, 0, 84, 0
2, 90833, Note_on_c, 0, 53, 0
2, 90835, Note_on_c, 0, 55, 0
2, 90837, Note_on_c, 0, 72, 0
2, 90843, Note_on_c, 0, 58, 0
2, 90847, Control_c, 0, 64, 0
2, 90860, Note_on_c, 0, 73, 51
2, 90861, Note_on_c, 0, 62, 71
2, 90862, Note_on_c, 0, 58, 61
2, 90863, Note_on_c, 0, 85, 86
2, 90863, Note_on_c, 0, 53, 64
2, 90866, Note_on_c, 0, 55, 64
2, 90875, Control_c, 0, 64, 127
2, 90888, Note_on_c, 0, 62, 0
2, 90895, Note_on_c, 0, 53, 0
2, 90895, Note_on_c, 0, 55, 0
2, 90909, Note_on_c, 0, 73, 0
2, 90911, Note_on_c, 0, 85, 0
2, 90920, Note_on_c, 0, 58, 0
2, 90939, Control_c, 0, 64, 0
2, 90942, Note_on_c, 0, 58, 63
2, 90944, Note_on_c, 0, 63, 78
2, 90945, Note_on_c, 0, 87, 86
2, 90945, Note_on_c, 0, 75, 84
2, 90946, Note_on_c, 0, 52, 75
2, 90955, Note_on_c, 0, 85, 39
2, 90966, Note_on_c, 0, 85, 0
2, 90994, Note_on_c, 0, 63, 0
2, 90999, Note_on_c, 0, 87, 0
2, 91002, Note_on_c, 0, 52, 0
2, 91008, Note_on_c, 0, 58, 0
2, 91015, Note_on_c, 0, 75, 0
2, 91016, Control_c, 0, 64, 127
2, 91053, Control_c, 0, 64, 0
2, 91055, Note_on_c, 0, 85, 58
2, 91057, Note_on_c, 0, 73, 52
2, 91058, Note_on_c, 0, 63, 69
2, 91061, Note_on_c, 0, 58, 57
2, 91063, Note_on_c, 0, 52, 58
2, 91074, Note_on_c, 0, 52, 0
2, 91077, Note_on_c, 0, 63, 0
2, 91087, Note_on_c, 0, 73, 0
2, 91088, Note_on_c, 0, 85, 0
2, 91089, Note_on_c, 0, 58, 0
2, 91101, Note_on_c, 0, 52, 31
2, 91105, Note_on_c, 0, 63, 42
2, 91108, Note_on_c, 0, 58, 25
2, 91109, Note_on_c, 0, 72, 45
2, 91111, Note_on_c, 0, 84, 40
2, 91125, Note_on_c, 0, 84, 0
2, 91126, Note_on_c, 0, 63, 0
2, 91128, Control_c, 0, 64, 127
2, 91134, Note_on_c, 0, 72, 0
2, 91171, Note_on_c, 0, 63, 30
2, 91172, Note_on_c, 0, 82, 49
2, 91172, Note_on_c, 0, 70, 61
2, 91173, Note_on_c, 0, 52, 0
2, 91186, Note_on_c, 0, 63, 0
2, 91190, Note_on_c, 0, 58, 0
2, 91197, Note_on_c, 0, 70, 0
2, 91198, Note_on_c, 0, 82, 0
2, 91211, Control_c, 0, 64, 0
2, 91222, Note_on_c, 0, 60, 37
2, 91224, Note_on_c, 0, 81, 61
2, 91228, Note_on_c, 0, 57, 39
2, 91228, Note_on_c, 0, 69, 50
2, 91230, Note_on_c, 0, 63, 25
2, 91232, Note_on_c, 0, 53, 24
2, 91267, Note_on_c, 0, 63, 0
2, 91270, Note_on_c, 0, 81, 0
2, 91271, Note_on_c, 0, 69, 0
2, 91283, Note_on_c, 0, 53, 0
2, 91286, Note_on_c, 0, 60, 0
2, 91288, Note_on_c, 0, 57, 0
2, 91322, Note_on_c, 0, 63, 38
2, 91324, Note_on_c, 0, 70, 50
2, 91324, Note_on_c, 0, 82, 55
2, 91331, Note_on_c, 0, 57, 37
2, 91341, Control_c, 0, 64, 127
2, 91342, Note_on_c, 0, 63, 0
2, 91355, Note_on_c, 0, 57, 0
2, 91361, Note_on_c, 0, 70, 0
2, 91364, Note_on_c, 0, 82, 0
2, 91369, Control_c, 0, 64, 0
2, 91396, Note_on_c, 0, 84, 64
2, 91398, Note_on_c, 0, 72, 34
2, 91406, Note_on_c, 0, 63, 33
2, 91408, Note_on_c, 0, 60, 46
2, 91416, Note_on_c, 0, 57, 40
2, 91417, Note_on_c, 0, 53, 18
2, 91427, Control_c, 0, 64, 127
2, 91492, Note_on_c, 0, 53, 0
2, 91492, Note_on_c, 0, 84, 0
2, 91499, Note_on_c, 0, 57, 0
2, 91500, Note_on_c, 0, 60, 0
2, 91512, Note_on_c, 0, 63, 0
2, 91528, Note_on_c, 0, 72, 0
2, 91653, Control_c, 0, 64, 0
2, 91663, Note_on_c, 0, 80, 51
2, 91664, Note_on_c, 0, 68, 46
2, 91665, Note_on_c, 0, 63, 28
2, 91666, Note_on_c, 0, 67, 33
2, 91668, Note_on_c, 0, 56, 31
2, 91671, Note_on_c, 0, 60, 47
2, 91700, Control_c, 0, 64, 127
2, 91708, Note_on_c, 0, 67, 0
2, 91715, Note_on_c, 0, 68, 0
2, 91716, Note_on_c, 0, 60, 0
2, 91722, Note_on_c, 0, 56, 0
2, 91723, Note_on_c, 0, 63, 0
2, 91723, Note_on_c, 0, 80, 0
2, 91746, Control_c, 0, 64, 0
2, 91785, Note_on_c, 0, 63, 40
2, 91788, Note_on_c, 0, 67, 49
2, 91789, Note_on_c, 0, 82, 58
2, 91791, Note_on_c, 0, 56, 35
2, 91791, Note_on_c, 0, 70, 45
2, 91799, Control_c, 0, 64, 127
2, 91802, Note_on_c, 0, 60, 27
2, 91808, Note_on_c, 0, 67, 0
2, 91823, Note_on_c, 0, 70, 0
2, 91824, Note_on_c, 0, 56, 0
2, 91829, Note_on_c, 0, 82, 0
2, 91837, Note_on_c, 0, 63, 0
2, 91842, Note_on_c, 0, 60, 0
2, 91857, Control_c, 0, 64, 0
2, 91869, Note_on_c, 0, 84, 71
2, 91870, Note_on_c, 0, 72, 59
2, 91873, Note_on_c, 0, 66, 65
2, 91874, Note_on_c, 0, 56, 49
2, 91876, Note_on_c, 0, 60, 56
2, 91878, Note_on_c, 0, 62, 60
2, 91901, Note_on_c, 0, 66, 0
2, 91904, Note_on_c, 0, 72, 0
2, 91908, Note_on_c, 0, 84, 0
2, 91911, Note_on_c, 0, 56, 0
2, 91915, Note_on_c, 0, 62, 0
2, 91915, Note_on_c, 0, 60, 0
2, 91923, Control_c, 0, 64, 127
2, 91943, Note_on_c, 0, 74, 74
2, 91944, Note_on_c, 0, 86, 80
2, 91945, Note_on_c, 0, 66, 67
2, 91948, Note_on_c, 0, 56, 56
2, 91950, Note_on_c, 0, 62, 64
2, 91951, Note_on_c, 0, 79, 37
2, 91954, Note_on_c, 0, 60, 46
2, 91966, Note_on_c, 0, 79, 0
2, 91974, Note_on_c, 0, 60, 0
2, 91980, Note_on_c, 0, 74, 0
2, 91985, Note_on_c, 0, 56, 0
2, 91986, Note_on_c, 0, 66, 0
2, 91987, Note_on_c, 0, 86, 0
2, 92007, Note_on_c, 0, 62, 0
2, 92035, Note_on_c, 0, 89, 79
2, 92038, Note_on_c, 0, 77, 69
2, 92039, Note_on_c, 0, 66, 71
2, 92041, Note_on_c, 0, 56, 62
2, 92043, Note_on_c, 0, 62, 60
2, 92046, Note_on_c, 0, 79, 39
2, 92059, Note_on_c, 0, 79, 0
2, 92069, Note_on_c, 0, 89, 0
2, 92070, Note_on_c, 0, 77, 0
2, 92091, Note_on_c, 0, 66, 0
2, 92096, Note_on_c, 0, 62, 0
2, 92101, Note_on_c, 0, 56, 0
2, 92129, Note_on_c, 0, 86, 64
2, 92129, Note_on_c, 0, 74, 67
2, 92133, Control_c, 0, 64, 0
2, 92133, Note_on_c, 0, 65, 64
2, 92136, Note_on_c, 0, 62, 49
2, 92136, Note_on_c, 0, 82, 29
2, 92139, Note_on_c, 0, 60, 44
2, 92143, Note_on_c, 0, 55, 54
2, 92200, Control_c, 0, 64, 127
2, 92264, Note_on_c, 0, 86, 0
2, 92273, Note_on_c, 0, 82, 0
2, 92277, Note_on_c, 0, 55, 0
2, 92287, Note_on_c, 0, 60, 0
2, 92290, Note_on_c, 0, 65, 0
2, 92295, Note_on_c, 0, 74, 0
2, 92308, Note_on_c, 0, 62, 0
2, 92363, Note_on_c, 0, 82, 52
2, 92367, Note_on_c, 0, 70, 53
2, 92370, Control_c, 0, 64, 0
2, 92370, Note_on_c, 0, 65, 48
2, 92373, Note_on_c, 0, 77, 49
2, 92374, Note_on_c, 0, 62, 47
2, 92375, Note_on_c, 0, 55, 41
2, 92376, Note_on_c, 0, 60, 49
2, 92417, Control_c, 0, 64, 127
2, 92503, Note_on_c, 0, 70, 0
2, 92506, Note_on_c, 0, 62, 0
2, 92511, Note_on_c, 0, 65, 0
2, 92518, Note_on_c, 0, 60, 0
2, 92519, Note_on_c, 0, 55, 0
2, 92524, Note_on_c, 0, 77, 0
2, 92533, Note_on_c, 0, 82, 0
2, 92636, Control_c, 0, 64, 0
2, 92639, Note_on_c, 0, 87, 61
2, 92641, Note_on_c, 0, 75, 45
2, 92641, Note_on_c, 0, 65, 50
2, 92642, Note_on_c, 0, 82, 46
2, 92642, Note_on_c, 0, 61, 45
2, 92643, Note_on_c, 0, 56, 32
2, 92644, Note_on_c, 0, 60, 33
2, 92734, Control_c, 0, 64, 127
2, 92771, Note_on_c, 0, 60, 0
2, 92783, Note_on_c, 0, 65, 0
2, 92785, Note_on_c, 0, 61, 0
2, 92789, Note_on_c, 0, 75, 0
2, 92808, Note_on_c, 0, 82, 0
2, 92821, Note_on_c, 0, 56, 0
2, 92824, Note_on_c, 0, 87, 0
2, 92883, Note_on_c, 0, 61, 42
2, 92884, Note_on_c, 0, 64, 37
2, 92885, Note_on_c, 0, 55, 45
2, 92983, Note_on_c, 0, 64, 0
2, 92990, Note_on_c, 0, 55, 0
2, 93004, Note_on_c, 0, 61, 0
2, 93070, Note_on_c, 0, 96, 101
2, 93112, Note_on_c, 0, 96, 0
2, 93142, Note_on_c, 0, 63, 45
2, 93145, Note_on_c, 0, 53, 44
2, 93147, Note_on_c, 0, 60, 49
2, 93147, Note_on_c, 0, 58, 47
2, 93151, Note_on_c, 0, 96, 95
2, 93161, Control_c, 0, 64, 0
2, 93257, Control_c, 0, 64, 127
2, 93284, Note_on_c, 0, 53, 0
2, 93291, Note_on_c, 0, 63, 0
2, 93292, Note_on_c, 0, 96, 0
2, 93293, Note_on_c, 0, 60, 0
2, 93296, Note_on_c, 0, 58, 0
2, 93314, Note_on_c, 0, 94, 81
2, 93316, Note_on_c, 0, 63, 45
2, 93321, Note_on_c, 0, 58, 32
2, 93323, Note_on_c, 0, 53, 47
2, 93323, Note_on_c, 0, 60, 51
2, 93325, Control_c, 0, 64, 0
2, 93368, Note_on_c, 0, 94, 0
2, 93392, Note_on_c, 0, 94, 63
2, 93405, Control_c, 0, 64, 127
2, 93481, Note_on_c, 0, 60, 0
2, 93488, Note_on_c, 0, 58, 0
2, 93511, Note_on_c, 0, 63, 0
2, 93514, Note_on_c, 0, 53, 0
2, 93527, Note_on_c, 0, 94, 0
2, 93546, Note_on_c, 0, 92, 67
2, 93583, Note_on_c, 0, 92, 0
2, 93593, Note_on_c, 0, 63, 33
2, 93596, Control_c, 0, 64, 0
2, 93600, Note_on_c, 0, 56, 35
2, 93604, Note_on_c, 0, 59, 49
2, 93605, Note_on_c, 0, 92, 58
2, 93607, Note_on_c, 0, 53, 37
2, 93695, Control_c, 0, 64, 127
2, 93726, Note_on_c, 0, 59, 0
2, 93730, Note_on_c, 0, 56, 0
2, 93732, Note_on_c, 0, 53, 0
2, 93741, Note_on_c, 0, 63, 0
2, 93785, Note_on_c, 0, 63, 43
2, 93796, Note_on_c, 0, 56, 34
2, 93796, Note_on_c, 0, 59, 50
2, 93798, Note_on_c, 0, 53, 31
2, 93840, Note_on_c, 0, 92, 0
2, 93906, Note_on_c, 0, 87, 60
2, 93915, Note_on_c, 0, 59, 0
2, 93915, Note_on_c, 0, 53, 0
2, 93923, Note_on_c, 0, 63, 0
2, 93936, Note_on_c, 0, 56, 0
2, 93943, Note_on_c, 0, 87, 0
2, 93960, Note_on_c, 0, 89, 56
2, 94000, Note_on_c, 0, 89, 0
2, 94059, Control_c, 0, 64, 0
2, 94066, Note_on_c, 0, 94, 68
2, 94067, Note_on_c, 0, 62, 69
2, 94070, Note_on_c, 0, 82, 43
2, 94071, Note_on_c, 0, 58, 47
2, 94074, Note_on_c, 0, 53, 31
2, 94075, Note_on_c, 0, 55, 40
2, 94088, Note_on_c, 0, 55, 0
2, 94088, Note_on_c, 0, 53, 0
2, 94091, Note_on_c, 0, 82, 0
2, 94091, Note_on_c, 0, 62, 0
2, 94093, Note_on_c, 0, 94, 0
2, 94097, Note_on_c, 0, 58, 0
2, 94186, Control_c, 0, 64, 127
2, 94266, Control_c, 0, 64, 0
2, 94268, Note_on_c, 0, 63, 76
2, 94269, Note_on_c, 0, 52, 74
2, 94270, Note_on_c, 0, 58, 61
2, 94274, Note_on_c, 0, 96, 76
2, 94276, Note_on_c, 0, 84, 74
2, 94310, Control_c, 0, 64, 127
2, 94409, Note_on_c, 0, 96, 0
2, 94417, Note_on_c, 0, 52, 0
2, 94431, Note_on_c, 0, 63, 0
2, 94431, Note_on_c, 0, 84, 0
2, 94432, Note_on_c, 0, 58, 0
2, 94569, Control_c, 0, 64, 0
2, 94569, Note_on_c, 0, 63, 47
2, 94570, Note_on_c, 0, 92, 67
2, 94570, Note_on_c, 0, 67, 60
2, 94571, Note_on_c, 0, 80, 48
2, 94573, Note_on_c, 0, 56, 42
2, 94574, Note_on_c, 0, 60, 52
2, 94585, Note_on_c, 0, 67, 0
2, 94594, Note_on_c, 0, 80, 0
2, 94596, Note_on_c, 0, 92, 0
2, 94598, Note_on_c, 0, 63, 0
2, 94601, Note_on_c, 0, 60, 0
2, 94605, Note_on_c, 0, 56, 0
2, 94683, Control_c, 0, 64, 127
2, 94752, Control_c, 0, 64, 0
2, 94757, Note_on_c, 0, 66, 87
2, 94758, Note_on_c, 0, 56, 84
2, 94758, Note_on_c, 0, 94, 94
2, 94758, Note_on_c, 0, 82, 91
2, 94760, Note_on_c, 0, 62, 81
2, 94767, Note_on_c, 0, 89, 47
2, 94771, Note_on_c, 0, 92, 25
2, 94779, Note_on_c, 0, 89, 0
2, 94781, Note_on_c, 0, 92, 0
2, 94816, Control_c, 0, 64, 127
2, 94848, Note_on_c, 0, 94, 0
2, 94857, Note_on_c, 0, 82, 0
2, 94859, Note_on_c, 0, 62, 0
2, 94889, Note_on_c, 0, 66, 0
2, 94900, Note_on_c, 0, 56, 0
2, 94918, Control_c, 0, 64, 0
2, 94923, Note_on_c, 0, 56, 62
2, 94924, Note_on_c, 0, 89, 64
2, 94925, Note_on_c, 0, 66, 59
2, 94927, Note_on_c, 0, 77, 63
2, 94932, Note_on_c, 0, 62, 47
2, 94942, Note_on_c, 0, 84, 34
2, 94955, Control_c, 0, 64, 127
2, 94956, Note_on_c, 0, 84, 0
2, 94971, Note_on_c, 0, 89, 0
2, 94988, Note_on_c, 0, 66, 0
2, 94995, Note_on_c, 0, 62, 0
2, 94995, Note_on_c, 0, 77, 0
2, 95004, Note_on_c, 0, 56, 0
2, 95033, Control_c, 0, 64, 0
2, 95042, Note_on_c, 0, 86, 69
2, 95042, Note_on_c, 0, 74, 64
2, 95044, Note_on_c, 0, 62, 46
2, 95044, Note_on_c, 0, 65, 64
2, 95049, Note_on_c, 0, 60, 49
2, 95051, Note_on_c, 0, 55, 58
2, 95131, Control_c, 0, 64, 127
2, 95190, Note_on_c, 0, 65, 0
2, 95191, Note_on_c, 0, 62, 0
2, 95191, Note_on_c, 0, 86, 0
2, 95192, Note_on_c, 0, 60, 0
2, 95199, Note_on_c, 0, 74, 0
2, 95209, Note_on_c, 0, 55, 0
2, 95278, Note_on_c, 0, 85, 59
2, 95278, Note_on_c, 0, 63, 62
2, 95279, Note_on_c, 0, 73, 34
2, 95279, Control_c, 0, 64, 0
2, 95282, Note_on_c, 0, 56, 36
2, 95284, Note_on_c, 0, 59, 55
2, 95285, Note_on_c, 0, 53, 37
2, 95369, Control_c, 0, 64, 127
2, 95384, Note_on_c, 0, 53, 0
2, 95386, Note_on_c, 0, 59, 0
2, 95397, Note_on_c, 0, 56, 0
2, 95404, Note_on_c, 0, 63, 0
2, 95447, Note_on_c, 0, 73, 0
2, 95452, Note_on_c, 0, 85, 0
2, 95483, Note_on_c, 0, 86, 65
2, 95487, Control_c, 0, 64, 0
2, 95487, Note_on_c, 0, 65, 44
2, 95488, Note_on_c, 0, 74, 47
2, 95489, Note_on_c, 0, 62, 45
2, 95493, Note_on_c, 0, 60, 42
2, 95499, Note_on_c, 0, 55, 32
2, 95566, Control_c, 0, 64, 127
2, 95593, Note_on_c, 0, 62, 0
2, 95593, Note_on_c, 0, 65, 0
2, 95597, Note_on_c, 0, 60, 0
2, 95610, Note_on_c, 0, 55, 0
2, 95617, Note_on_c, 0, 86, 0
2, 95661, Note_on_c, 0, 74, 0
2, 95709, Note_on_c, 0, 58, 67
2, 95709, Note_on_c, 0, 62, 78
2, 95713, Note_on_c, 0, 52, 64
2, 95715, Note_on_c, 0, 87, 74
2, 95715, Note_on_c, 0, 75, 77
2, 95721, Control_c, 0, 64, 0
2, 95777, Note_on_c, 0, 75, 0
2, 95777, Note_on_c, 0, 87, 0
2, 95843, Note_on_c, 0, 88, 78
2, 95843, Note_on_c, 0, 76, 74
2, 95863, Note_on_c, 0, 76, 0
2, 95864, Note_on_c, 0, 52, 0
2, 95864, Note_on_c, 0, 88, 0
2, 95877, Note_on_c, 0, 58, 0
2, 95886, Note_on_c, 0, 62, 0
2, 95896, Note_on_c, 0, 89, 77
2, 95897, Note_on_c, 0, 77, 63
2, 95920, Note_on_c, 0, 89, 0
2, 95923, Note_on_c, 0, 77, 0
2, 95963, Note_on_c, 0, 78, 50
2, 95963, Note_on_c, 0, 90, 56
2, 95994, Note_on_c, 0, 90, 0
2, 95999, Note_on_c, 0, 78, 0
2, 96013, Note_on_c, 0, 67, 49
2, 96016, Note_on_c, 0, 91, 55
2, 96016, Note_on_c, 0, 63, 36
2, 96018, Note_on_c, 0, 79, 45
2, 96020, Note_on_c, 0, 56, 29
2, 96026, Note_on_c, 0, 60, 45
2, 96054, Note_on_c, 0, 79, 0
2, 96072, Note_on_c, 0, 91, 0
2, 96114, Control_c, 0, 64, 127
2, 96184, Note_on_c, 0, 67, 0
2, 96206, Note_on_c, 0, 89, 78
2, 96214, Note_on_c, 0, 56, 0
2, 96222, Note_on_c, 0, 63, 0
2, 96227, Control_c, 0, 64, 0
2, 96231, Note_on_c, 0, 60, 0
2, 96235, Note_on_c, 0, 89, 0
2, 96253, Note_on_c, 0, 66, 53
2, 96257, Note_on_c, 0, 91, 81
2, 96257, Note_on_c, 0, 62, 50
2, 96264, Note_on_c, 0, 56, 23
2, 96310, Note_on_c, 0, 91, 0
2, 96331, Note_on_c, 0, 92, 71
2, 96367, Note_on_c, 0, 92, 0
2, 96380, Note_on_c, 0, 66, 0
2, 96383, Note_on_c, 0, 91, 34
2, 96389, Control_c, 0, 64, 127
2, 96404, Note_on_c, 0, 62, 0
2, 96443, Note_on_c, 0, 91, 0
2, 96445, Note_on_c, 0, 56, 0
2, 96466, Note_on_c, 0, 92, 47
2, 96484, Control_c, 0, 64, 0
2, 96490, Note_on_c, 0, 92, 0
2, 96502, Note_on_c, 0, 65, 44
2, 96506, Note_on_c, 0, 62, 45
2, 96507, Note_on_c, 0, 60, 44
2, 96510, Note_on_c, 0, 94, 70
2, 96511, Note_on_c, 0, 55, 45
2, 96549, Note_on_c, 0, 94, 0
2, 96562, Note_on_c, 0, 60, 0
2, 96562, Note_on_c, 0, 62, 0
2, 96563, Note_on_c, 0, 65, 0
2, 96563, Note_on_c, 0, 55, 0
2, 96620, Note_on_c, 0, 94, 60
2, 96661, Note_on_c, 0, 94, 0
2, 96704, Note_on_c, 0, 63, 49
2, 96707, Note_on_c, 0, 58, 47
2, 96709, Note_on_c, 0, 52, 40
2, 96743, Note_on_c, 0, 52, 0
2, 96747, Control_c, 0, 64, 127
2, 96750, Note_on_c, 0, 63, 0
2, 96757, Note_on_c, 0, 58, 0
2, 96799, Control_c, 0, 64, 0
2, 96944, Control_c, 0, 64, 127
2, 96944, Note_on_c, 0, 75, 68
2, 96944, Note_on_c, 0, 87, 65
2, 96944, Note_on_c, 0, 63, 54
2, 96944, Note_on_c, 0, 67, 53
2, 96944, Note_on_c, 0, 60, 50
2, 96947, Note_on_c, 0, 63, 0
2, 96947, Note_on_c, 0, 87, 0
2, 96957, Control_c, 0, 64, 0
2, 96973, Note_on_c, 0, 63, 47
2, 96976, Note_on_c, 0, 89, 71
2, 96978, Note_on_c, 0, 77, 41
2, 96979, Note_on_c, 0, 67, 0
2, 96979, Note_on_c, 0, 67, 40
2, 96985, Note_on_c, 0, 60, 0
2, 96985, Note_on_c, 0, 60, 31
2, 96991, Note_on_c, 0, 67, 0
2, 96994, Note_on_c, 0, 89, 0
2, 96997, Note_on_c, 0, 60, 0
2, 96999, Note_on_c, 0, 77, 0
2, 97000, Note_on_c, 0, 63, 0
2, 97054, Note_on_c, 0, 89, 59
2, 97057, Note_on_c, 0, 63, 56
2, 97058, Note_on_c, 0, 67, 67
2, 97062, Note_on_c, 0, 77, 26
2, 97065, Note_on_c, 0, 60, 39
2, 97070, Note_on_c, 0, 67, 0
2, 97071, Note_on_c, 0, 89, 0
2, 97074, Note_on_c, 0, 77, 0
2, 97078, Note_on_c, 0, 60, 0
2, 97095, Note_on_c, 0, 67, 58
2, 97097, Note_on_c, 0, 79, 51
2, 97101, Note_on_c, 0, 91, 59
2, 97104, Note_on_c, 0, 60, 31
2, 97107, Note_on_c, 0, 90, 30
2, 97112, Note_on_c, 0, 79, 0
2, 97113, Note_on_c, 0, 67, 0
2, 97117, Note_on_c, 0, 91, 0
2, 97117, Note_on_c, 0, 90, 0
2, 97124, Note_on_c, 0, 60, 0
2, 97127, Note_on_c, 0, 63, 0
2, 97211, Control_c, 0, 64, 127
2, 97212, Note_on_c, 0, 66, 50
2, 97217, Note_on_c, 0, 92, 68
2, 97218, Note_on_c, 0, 80, 51
2, 97220, Note_on_c, 0, 56, 29
2, 97220, Note_on_c, 0, 62, 40
2, 97221, Note_on_c, 0, 87, 47
2, 97224, Note_on_c, 0, 60, 36
2, 97274, Note_on_c, 0, 60, 0
2, 97282, Note_on_c, 0, 56, 0
2, 97285, Note_on_c, 0, 66, 0
2, 97295, Note_on_c, 0, 92, 0
2, 97297, Note_on_c, 0, 62, 0
2, 97298, Note_on_c, 0, 87, 0
2, 97300, Note_on_c, 0, 80, 0
2, 97325, Note_on_c, 0, 66, 49
2, 97329, Note_on_c, 0, 79, 52
2, 97329, Note_on_c, 0, 91, 45
2, 97329, Note_on_c, 0, 56, 32
2, 97337, Note_on_c, 0, 62, 29
2, 97343, Note_on_c, 0, 79, 0
2, 97354, Note_on_c, 0, 91, 0
2, 97365, Note_on_c, 0, 62, 0
2, 97366, Note_on_c, 0, 66, 0
2, 97377, Note_on_c, 0, 56, 0
2, 97406, Note_on_c, 0, 82, 74
2, 97409, Note_on_c, 0, 94, 84
2, 97411, Note_on_c, 0, 62, 66
2, 97412, Control_c, 0, 64, 0
2, 97412, Note_on_c, 0, 65, 74
2, 97414, Note_on_c, 0, 60, 62
2, 97417, Note_on_c, 0, 55, 66
2, 97420, Note_on_c, 0, 89, 34
2, 97451, Note_on_c, 0, 89, 0
2, 97501, Control_c, 0, 64, 127
2, 97560, Note_on_c, 0, 94, 0
2, 97576, Note_on_c, 0, 82, 0
2, 97627, Note_on_c, 0, 65, 0
2, 97640, Note_on_c, 0, 62, 0
2, 97641, Note_on_c, 0, 60, 0
2, 97663, Note_on_c, 0, 55, 0
2, 97884, Control_c, 0, 64, 0
2, 97887, Note_on_c, 0, 69, 81
2, 97889, Note_on_c, 0, 64, 82
2, 97890, Note_on_c, 0, 60, 88
2, 97945, Control_c, 0, 64, 127
2, 98020, Note_on_c, 0, 69, 0
2, 98072, Note_on_c, 0, 60, 0
2, 98080, Note_on_c, 0, 64, 0
2, 98117, Note_on_c, 0, 71, 64
2, 98152, Note_on_c, 0, 71, 0
2, 98183, Control_c, 0, 64, 0
2, 98186, Note_on_c, 0, 72, 61
2, 98189, Note_on_c, 0, 60, 58
2, 98195, Note_on_c, 0, 65, 47
2, 98213, Note_on_c, 0, 65, 0
2, 98280, Control_c, 0, 64, 127
2, 98287, Note_on_c, 0, 50, 45
2, 98295, Note_on_c, 0, 72, 0
2, 98304, Note_on_c, 0, 60, 0
2, 98381, Note_on_c, 0, 50, 0
2, 98418, Note_on_c, 0, 74, 64
2, 98421, Note_on_c, 0, 65, 68
2, 98421, Control_c, 0, 64, 0
2, 98422, Note_on_c, 0, 70, 57
2, 98514, Control_c, 0, 64, 127
2, 98545, Note_on_c, 0, 65, 0
2, 98551, Note_on_c, 0, 70, 0
2, 98575, Note_on_c, 0, 74, 0
2, 98612, Note_on_c, 0, 64, 57
2, 98614, Control_c, 0, 64, 0
2, 98615, Note_on_c, 0, 74, 48
2, 98617, Note_on_c, 0, 68, 46
2, 98622, Note_on_c, 0, 70, 33
2, 98622, Note_on_c, 0, 58, 40
2, 98629, Note_on_c, 0, 52, 33
2, 98684, Control_c, 0, 64, 127
2, 98705, Note_on_c, 0, 52, 0
2, 98723, Note_on_c, 0, 64, 0
2, 98725, Note_on_c, 0, 58, 0
2, 98736, Note_on_c, 0, 68, 0
2, 98749, Note_on_c, 0, 70, 0
2, 98755, Note_on_c, 0, 74, 0
2, 98879, Control_c, 0, 64, 0
2, 98882, Note_on_c, 0, 58, 78
2, 98882, Note_on_c, 0, 67, 87
2, 98883, Note_on_c, 0, 63, 68
2, 98884, Note_on_c, 0, 62, 81
2, 98884, Note_on_c, 0, 85, 88
2, 98885, Note_on_c, 0, 77, 92
2, 98885, Note_on_c, 0, 89, 85
2, 98963, Note_on_c, 0, 86, 36
2, 98975, Control_c, 0, 64, 127
2, 98979, Note_on_c, 0, 86, 0
2, 98981, Note_on_c, 0, 85, 0
2, 98987, Note_on_c, 0, 89, 0
2, 98998, Note_on_c, 0, 77, 0
2, 99015, Note_on_c, 0, 67, 0
2, 99018, Note_on_c, 0, 62, 0
2, 99021, Note_on_c, 0, 58, 0
2, 99028, Note_on_c, 0, 63, 0
2, 99080, Note_on_c, 0, 86, 77
2, 99082, Note_on_c, 0, 74, 58
2, 99088, Note_on_c, 0, 67, 65
2, 99088, Note_on_c, 0, 63, 49
2, 99089, Note_on_c, 0, 62, 62
2, 99090, Note_on_c, 0, 80, 32
2, 99093, Note_on_c, 0, 58, 35
2, 99099, Note_on_c, 0, 80, 0
2, 99099, Control_c, 0, 64, 0
2, 99154, Control_c, 0, 64, 127
2, 99200, Note_on_c, 0, 62, 0
2, 99210, Note_on_c, 0, 67, 0
2, 99229, Note_on_c, 0, 86, 0
2, 99236, Note_on_c, 0, 63, 0
2, 99244, Note_on_c, 0, 58, 0
2, 99246, Note_on_c, 0, 74, 0
2, 99364, Control_c, 0, 64, 0
2, 99367, Note_on_c, 0, 80, 37
2, 99368, Note_on_c, 0, 67, 55
2, 99369, Note_on_c, 0, 72, 44
2, 99369, Note_on_c, 0, 84, 60
2, 99371, Note_on_c, 0, 63, 34
2, 99371, Note_on_c, 0, 56, 35
2, 99372, Note_on_c, 0, 77, 47
2, 99375, Note_on_c, 0, 60, 51
2, 99457, Control_c, 0, 64, 127
2, 99470, Note_on_c, 0, 84, 0
2, 99481, Note_on_c, 0, 67, 0
2, 99501, Note_on_c, 0, 72, 0
2, 99502, Note_on_c, 0, 56, 0
2, 99508, Note_on_c, 0, 77, 0
2, 99509, Note_on_c, 0, 80, 0
2, 99513, Note_on_c, 0, 63, 0
2, 99513, Note_on_c, 0, 60, 0
2, 99571, Control_c, 0, 64, 0
2, 99572, Note_on_c, 0, 82, 43
2, 99574, Note_on_c, 0, 66, 49
2, 99574, Note_on_c, 0, 70, 39
2, 99578, Note_on_c, 0, 77, 34
2, 99580, Note_on_c, 0, 62, 44
2, 99582, Note_on_c, 0, 60, 42
2, 99585, Note_on_c, 0, 56, 25
2, 99626, Control_c, 0, 64, 127
2, 99696, Note_on_c, 0, 70, 0
2, 99711, Note_on_c, 0, 77, 0
2, 99716, Note_on_c, 0, 60, 0
2, 99724, Note_on_c, 0, 66, 0
2, 99729, Note_on_c, 0, 62, 0
2, 99747, Note_on_c, 0, 82, 0
2, 99789, Note_on_c, 0, 56, 0
2, 99798, Note_on_c, 0, 78, 61
2, 99839, Note_on_c, 0, 78, 0
2, 99849, Control_c, 0, 64, 0
2, 99855, Note_on_c, 0, 60, 35
2, 99855, Note_on_c, 0, 65, 34
2, 99858, Note_on_c, 0, 62, 34
2, 99858, Note_on_c, 0, 55, 35
2, 99859, Note_on_c, 0, 79, 51
2, 99964, Control_c, 0, 64, 127
2, 99966, Note_on_c, 0, 79, 0
2, 100065, Control_c, 0, 64, 0
2, 100084, Note_on_c, 0, 79, 91
2, 100152, Control_c, 0, 64, 127
2, 100155, Note_on_c, 0, 65, 0
2, 100162, Note_on_c, 0, 79, 0
2, 100162, Control_c, 0, 64, 0
2, 100163, Note_on_c, 0, 78, 49
2, 100165, Note_on_c, 0, 62, 0
2, 100165, Note_on_c, 0, 60, 0
2, 100183, Note_on_c, 0, 55, 0
2, 100187, Note_on_c, 0, 78, 0
2, 100208, Note_on_c, 0, 79, 55
2, 100266, Note_on_c, 0, 79, 0
2, 100280, Note_on_c, 0, 56, 51
2, 100282, Note_on_c, 0, 60, 58
2, 100282, Note_on_c, 0, 79, 36
2, 100283, Note_on_c, 0, 50, 43
2, 100298, Note_on_c, 0, 50, 0
2, 100299, Note_on_c, 0, 60, 0
2, 100305, Note_on_c, 0, 56, 0
2, 100501, Note_on_c, 0, 79, 0
2, 100518, Note_on_c, 0, 78, 62
2, 100521, Note_on_c, 0, 64, 68
2, 100521, Note_on_c, 0, 59, 59
2, 100529, Note_on_c, 0, 53, 34
2, 100533, Note_on_c, 0, 64, 0
2, 100546, Note_on_c, 0, 53, 0
2, 100548, Note_on_c, 0, 78, 0
2, 100551, Note_on_c, 0, 59, 0
2, 100571, Note_on_c, 0, 79, 53
2, 100624, Note_on_c, 0, 79, 0
2, 100641, Note_on_c, 0, 82, 76
2, 100679, Note_on_c, 0, 82, 0
2, 100694, Note_on_c, 0, 80, 62
2, 100733, Note_on_c, 0, 80, 0
2, 100807, Note_on_c, 0, 67, 49
2, 100808, Note_on_c, 0, 79, 70
2, 100811, Note_on_c, 0, 62, 50
2, 100811, Note_on_c, 0, 63, 31
2, 100817, Note_on_c, 0, 58, 30
2, 100841, Note_on_c, 0, 67, 0
2, 100851, Note_on_c, 0, 79, 0
2, 100859, Note_on_c, 0, 62, 0
2, 100860, Note_on_c, 0, 63, 0
2, 100872, Note_on_c, 0, 58, 0
2, 100936, Note_on_c, 0, 78, 70
2, 100981, Note_on_c, 0, 78, 0
2, 101050, Note_on_c, 0, 65, 34
2, 101051, Note_on_c, 0, 77, 53
2, 101053, Note_on_c, 0, 63, 32
2, 101056, Note_on_c, 0, 57, 36
2, 101087, Note_on_c, 0, 65, 0
2, 101092, Note_on_c, 0, 77, 0
2, 101098, Note_on_c, 0, 57, 0
2, 101099, Note_on_c, 0, 63, 0
2, 101163, Note_on_c, 0, 75, 0
2, 101163, Note_on_c, 0, 75, 57
2, 101212, Note_on_c, 0, 75, 0
2, 101276, Note_on_c, 0, 73, 37
2, 101277, Note_on_c, 0, 65, 27
2, 101282, Note_on_c, 0, 56, 25
2, 101282, Note_on_c, 0, 61, 31
2, 101291, Note_on_c, 0, 60, 24
2, 101313, Control_c, 0, 64, 127
2, 101327, Note_on_c, 0, 73, 0
2, 101341, Control_c, 0, 64, 0
2, 101342, Note_on_c, 0, 60, 0
2, 101345, Note_on_c, 0, 65, 0
2, 101378, Note_on_c, 0, 61, 0
2, 101402, Note_on_c, 0, 69, 46
2, 101409, Control_c, 0, 64, 127
2, 101421, Note_on_c, 0, 56, 0
2, 101433, Note_on_c, 0, 69, 0
2, 101474, Control_c, 0, 64, 0
2, 101511, Note_on_c, 0, 61, 32
2, 101515, Note_on_c, 0, 64, 30
2, 101515, Note_on_c, 0, 55, 36
2, 101536, Control_c, 0, 64, 127
2, 101544, Note_on_c, 0, 64, 0
2, 101560, Note_on_c, 0, 55, 0
2, 101569, Note_on_c, 0, 61, 0
2, 101622, Control_c, 0, 64, 0
2, 101635, Note_on_c, 0, 74, 46
2, 101636, Note_on_c, 0, 62, 37
2, 101665, Note_on_c, 0, 74, 0
2, 101668, Note_on_c, 0, 62, 0
2, 101715, Note_on_c, 0, 63, 63
2, 101716, Note_on_c, 0, 75, 57
2, 101736, Note_on_c, 0, 63, 0
2, 101751, Note_on_c, 0, 75, 0
2, 101835, Control_c, 0, 64, 127
2, 101894, Control_c, 0, 64, 0
2, 101987, Note_on_c, 0, 54, 43
2, 102001, Note_on_c, 0, 72, 70
2, 102002, Note_on_c, 0, 55, 72
2, 102003, Note_on_c, 0, 67, 80
2, 102005, Note_on_c, 0, 60, 87
2, 102015, Note_on_c, 0, 54, 0
2, 102055, Note_on_c, 0, 60, 0
2, 102058, Note_on_c, 0, 72, 0
2, 102063, Note_on_c, 0, 67, 0
2, 102068, Note_on_c, 0, 55, 0
2, 102120, Note_on_c, 0, 72, 66
2, 102120, Note_on_c, 0, 67, 81
2, 102123, Note_on_c, 0, 60, 81
2, 102123, Note_on_c, 0, 55, 64
2, 102171, Note_on_c, 0, 67, 0
2, 102174, Note_on_c, 0, 72, 0
2, 102182, Note_on_c, 0, 60, 0
2, 102189, Note_on_c, 0, 55, 0
2, 102208, Note_on_c, 0, 54, 32
2, 102243, Note_on_c, 0, 61, 77
2, 102244, Note_on_c, 0, 70, 68
2, 102245, Note_on_c, 0, 65, 76
2, 102247, Note_on_c, 0, 54, 0
2, 102247, Note_on_c, 0, 55, 64
2, 102346, Control_c, 0, 64, 127
2, 102373, Note_on_c, 0, 55, 0
2, 102379, Note_on_c, 0, 65, 0
2, 102397, Note_on_c, 0, 61, 0
2, 102433, Note_on_c, 0, 70, 0
2, 102436, Control_c, 0, 64, 0
2, 102441, Note_on_c, 0, 61, 52
2, 102442, Note_on_c, 0, 48, 53
2, 102443, Note_on_c, 0, 64, 64
2, 102445, Note_on_c, 0, 58, 51
2, 102517, Note_on_c, 0, 61, 0
2, 102521, Note_on_c, 0, 64, 0
2, 102538, Note_on_c, 0, 72, 67
2, 102568, Control_c, 0, 64, 127
2, 102582, Note_on_c, 0, 48, 0
2, 102594, Note_on_c, 0, 72, 0
2, 102610, Note_on_c, 0, 58, 0
2, 102618, Note_on_c, 0, 70, 75
2, 102682, Note_on_c, 0, 70, 0
2, 102714, Control_c, 0, 64, 0
2, 102727, Note_on_c, 0, 53, 42
2, 102727, Note_on_c, 0, 69, 70
2, 102727, Note_on_c, 0, 66, 64
2, 102732, Note_on_c, 0, 60, 46
2, 102824, Control_c, 0, 64, 127
2, 102844, Note_on_c, 0, 60, 0
2, 102897, Note_on_c, 0, 66, 0
2, 102945, Control_c, 0, 64, 0
2, 102954, Note_on_c, 0, 69, 0
2, 102964, Note_on_c, 0, 65, 54
2, 102964, Note_on_c, 0, 62, 48
2, 102971, Note_on_c, 0, 57, 27
2, 103025, Control_c, 0, 64, 127
2, 103037, Note_on_c, 0, 57, 0
2, 103053, Note_on_c, 0, 53, 0
2, 103057, Note_on_c, 0, 65, 0
2, 103073, Note_on_c, 0, 62, 0
2, 103152, Note_on_c, 0, 68, 48
2, 103156, Note_on_c, 0, 63, 40
2, 103158, Control_c, 0, 64, 0
2, 103160, Note_on_c, 0, 60, 42
2, 103160, Note_on_c, 0, 56, 45
2, 103275, Note_on_c, 0, 46, 71
2, 103294, Note_on_c, 0, 56, 0
2, 103367, Note_on_c, 0, 60, 0
2, 103384, Note_on_c, 0, 68, 0
2, 103387, Control_c, 0, 64, 127
2, 103400, Note_on_c, 0, 63, 0
2, 103408, Control_c, 0, 64, 0
2, 103447, Note_on_c, 0, 67, 51
2, 103447, Note_on_c, 0, 56, 47
2, 103447, Note_on_c, 0, 59, 57
2, 103451, Note_on_c, 0, 62, 48
2, 103452, Note_on_c, 0, 64, 46
2, 103468, Note_on_c, 0, 64, 0
2, 103473, Note_on_c, 0, 59, 0
2, 103474, Note_on_c, 0, 62, 0
2, 103476, Note_on_c, 0, 56, 0
2, 103489, Note_on_c, 0, 67, 0
2, 103505, Note_on_c, 0, 46, 0
2, 103560, Note_on_c, 0, 68, 58
2, 103563, Note_on_c, 0, 62, 65
2, 103566, Note_on_c, 0, 56, 62
2, 103566, Note_on_c, 0, 59, 57
2, 103573, Note_on_c, 0, 46, 28
2, 103585, Note_on_c, 0, 59, 0
2, 103592, Note_on_c, 0, 62, 0
2, 103607, Note_on_c, 0, 68, 0
2, 103610, Note_on_c, 0, 46, 0
2, 103633, Note_on_c, 0, 56, 0
2, 103655, Control_c, 0, 64, 127
2, 103662, Control_c, 0, 64, 0
2, 103689, Note_on_c, 0, 70, 73
2, 103691, Note_on_c, 0, 65, 78
2, 103693, Note_on_c, 0, 55, 70
2, 103694, Note_on_c, 0, 60, 74
2, 103782, Control_c, 0, 64, 127
2, 103801, Note_on_c, 0, 60, 0
2, 103817, Note_on_c, 0, 65, 0
2, 103844, Note_on_c, 0, 70, 0
2, 103904, Note_on_c, 0, 54, 19
2, 103923, Note_on_c, 0, 67, 123
2, 103927, Control_c, 0, 64, 0
2, 103931, Note_on_c, 0, 55, 0
2, 103933, Control_c, 0, 64, 127
2, 103949, Note_on_c, 0, 54, 0
2, 104002, Control_c, 0, 64, 0
2, 104009, Note_on_c, 0, 67, 0
2, 104017, Note_on_c, 0, 65, 84
2, 104039, Control_c, 0, 64, 127
2, 104080, Note_on_c, 0, 65, 0
2, 104093, Note_on_c, 0, 63, 72
2, 104116, Note_on_c, 0, 63, 0
2, 104174, Control_c, 0, 64, 0
2, 104177, Note_on_c, 0, 87, 86
2, 104178, Note_on_c, 0, 75, 92
2, 104179, Note_on_c, 0, 56, 75
2, 104180, Note_on_c, 0, 60, 79
2, 104181, Note_on_c, 0, 65, 87
2, 104182, Note_on_c, 0, 61, 62
2, 104264, Control_c, 0, 64, 127
2, 104315, Note_on_c, 0, 60, 0
2, 104334, Note_on_c, 0, 65, 0
2, 104345, Note_on_c, 0, 61, 0
2, 104387, Note_on_c, 0, 56, 0
2, 104406, Control_c, 0, 64, 0
2, 104413, Note_on_c, 0, 61, 46
2, 104413, Note_on_c, 0, 64, 48
2, 104416, Note_on_c, 0, 55, 54
2, 104431, Control_c, 0, 64, 127
2, 104516, Note_on_c, 0, 64, 0
2, 104519, Note_on_c, 0, 55, 0
2, 104536, Note_on_c, 0, 61, 0
2, 104539, Note_on_c, 0, 75, 0
2, 104540, Note_on_c, 0, 87, 0
2, 104586, Note_on_c, 0, 87, 53
2, 104591, Note_on_c, 0, 75, 46
2, 104620, Note_on_c, 0, 75, 0
2, 104620, Note_on_c, 0, 87, 0
2, 104644, Control_c, 0, 64, 0
2, 104652, Note_on_c, 0, 53, 39
2, 104653, Note_on_c, 0, 63, 29
2, 104656, Note_on_c, 0, 58, 35
2, 104657, Note_on_c, 0, 87, 59
2, 104660, Note_on_c, 0, 60, 38
2, 104660, Note_on_c, 0, 75, 45
2, 104700, Control_c, 0, 64, 127
2, 104716, Note_on_c, 0, 87, 0
2, 104733, Note_on_c, 0, 75, 0
2, 104748, Note_on_c, 0, 53, 0
2, 104756, Note_on_c, 0, 60, 0
2, 104768, Note_on_c, 0, 63, 0
2, 104775, Note_on_c, 0, 58, 0
2, 104834, Note_on_c, 0, 77, 50
2, 104837, Note_on_c, 0, 63, 31
2, 104839, Note_on_c, 0, 65, 47
2, 104841, Control_c, 0, 64, 0
2, 104843, Note_on_c, 0, 53, 38
2, 104843, Note_on_c, 0, 58, 36
2, 104850, Note_on_c, 0, 60, 37
2, 104897, Control_c, 0, 64, 127
2, 104961, Note_on_c, 0, 60, 0
2, 104969, Note_on_c, 0, 58, 0
2, 104980, Note_on_c, 0, 63, 0
2, 104982, Note_on_c, 0, 53, 0
2, 104996, Note_on_c, 0, 65, 0
2, 105067, Note_on_c, 0, 77, 0
2, 105107, Note_on_c, 0, 63, 36
2, 105112, Note_on_c, 0, 56, 37
2, 105113, Note_on_c, 0, 59, 51
2, 105118, Note_on_c, 0, 53, 27
2, 105138, Control_c, 0, 64, 0
2, 105283, Control_c, 0, 64, 127
2, 105290, Note_on_c, 0, 59, 0
2, 105319, Note_on_c, 0, 59, 19
2, 105330, Control_c, 0, 64, 0
2, 105370, Note_on_c, 0, 77, 90
2, 105413, Control_c, 0, 64, 127
2, 105428, Note_on_c, 0, 77, 0
2, 105441, Control_c, 0, 64, 0
2, 105460, Note_on_c, 0, 79, 90
2, 105477, Control_c, 0, 64, 127
2, 105492, Note_on_c, 0, 63, 0
2, 105495, Note_on_c, 0, 59, 0
2, 105520, Note_on_c, 0, 56, 0
2, 105524, Note_on_c, 0, 79, 0
2, 105539, Note_on_c, 0, 80, 56
2, 105560, Note_on_c, 0, 53, 0
2, 105590, Note_on_c, 0, 80, 0
2, 105605, Control_c, 0, 64, 0
2, 105616, Note_on_c, 0, 53, 49
2, 105619, Note_on_c, 0, 82, 62
2, 105619, Note_on_c, 0, 62, 41
2, 105621, Note_on_c, 0, 55, 40
2, 105623, Note_on_c, 0, 58, 39
2, 105728, Control_c, 0, 64, 127
2, 105778, Note_on_c, 0, 55, 0
2, 105778, Note_on_c, 0, 62, 0
2, 105786, Note_on_c, 0, 53, 0
2, 105807, Note_on_c, 0, 58, 0
2, 105851, Control_c, 0, 64, 0
2, 105857, Note_on_c, 0, 62, 53
2, 105858, Note_on_c, 0, 58, 35
2, 105859, Note_on_c, 0, 52, 41
2, 105907, Control_c, 0, 64, 127
2, 105946, Note_on_c, 0, 52, 0
2, 105964, Note_on_c, 0, 58, 0
2, 105969, Note_on_c, 0, 62, 0
2, 106074, Control_c, 0, 64, 0
2, 106158, Note_on_c, 0, 82, 0
2, 106273, Note_on_c, 0, 63, 51
2, 106328, Note_on_c, 0, 63, 0
2, 106345, Note_on_c, 0, 65, 55
2, 106414, Note_on_c, 0, 65, 0
2, 106422, Note_on_c, 0, 63, 43
2, 106438, Control_c, 0, 64, 127
2, 106515, Note_on_c, 0, 63, 0
2, 106528, Note_on_c, 0, 72, 66
2, 106547, Control_c, 0, 64, 0
2, 106638, Note_on_c, 0, 63, 59
2, 106643, Note_on_c, 0, 68, 45
2, 106661, Note_on_c, 0, 63, 0
2, 106683, Note_on_c, 0, 68, 0
2, 106811, Note_on_c, 0, 46, 33
2, 106813, Note_on_c, 0, 63, 21
2, 106813, Note_on_c, 0, 68, 35
2, 106820, Control_c, 0, 64, 127
2, 106822, Note_on_c, 0, 56, 25
2, 106896, Note_on_c, 0, 68, 0
2, 106905, Note_on_c, 0, 63, 0
2, 106922, Note_on_c, 0, 46, 0
2, 106930, Note_on_c, 0, 56, 0
2, 106944, Note_on_c, 0, 72, 0
2, 107006, Note_on_c, 0, 68, 33
2, 107012, Note_on_c, 0, 63, 37
2, 107014, Note_on_c, 0, 60, 37
2, 107015, Note_on_c, 0, 56, 29
2, 107018, Note_on_c, 0, 46, 25
2, 107123, Note_on_c, 0, 60, 0
2, 107137, Note_on_c, 0, 63, 0
2, 107204, Note_on_c, 0, 68, 0
2, 107288, Note_on_c, 0, 63, 61
2, 107361, Note_on_c, 0, 63, 0
2, 107379, Note_on_c, 0, 65, 71
2, 107443, Note_on_c, 0, 65, 0
2, 107453, Note_on_c, 0, 63, 67
2, 107476, Note_on_c, 0, 63, 0
2, 107495, Note_on_c, 0, 46, 0
2, 107511, Note_on_c, 0, 56, 0
2, 107541, Note_on_c, 0, 66, 83
2, 107542, Note_on_c, 0, 74, 80
2, 107546, Control_c, 0, 64, 0
2, 107547, Note_on_c, 0, 46, 61
2, 107616, Control_c, 0, 64, 127
2, 107637, Note_on_c, 0, 54, 44
2, 107686, Note_on_c, 0, 66, 0
2, 107753, Note_on_c, 0, 66, 55
2, 107757, Note_on_c, 0, 57, 55
2, 107758, Note_on_c, 0, 62, 64
2, 107892, Note_on_c, 0, 46, 0
2, 107904, Note_on_c, 0, 62, 0
2, 107918, Note_on_c, 0, 46, 33
2, 107921, Note_on_c, 0, 66, 0
2, 107924, Note_on_c, 0, 54, 0
2, 107946, Note_on_c, 0, 57, 0
2, 108001, Note_on_c, 0, 66, 42
2, 108002, Note_on_c, 0, 54, 26
2, 108006, Note_on_c, 0, 62, 46
2, 108015, Note_on_c, 0, 57, 31
2, 108168, Note_on_c, 0, 62, 0
2, 108207, Note_on_c, 0, 46, 0
2, 108210, Note_on_c, 0, 74, 0
2, 108214, Note_on_c, 0, 66, 0
2, 108305, Note_on_c, 0, 46, 18
2, 108308, Note_on_c, 0, 63, 77
2, 108386, Note_on_c, 0, 63, 0
2, 108402, Note_on_c, 0, 65, 71
2, 108482, Note_on_c, 0, 46, 0
2, 108491, Note_on_c, 0, 63, 61
2, 108495, Note_on_c, 0, 65, 0
2, 108508, Note_on_c, 0, 57, 0
2, 108527, Note_on_c, 0, 63, 0
2, 108533, Note_on_c, 0, 54, 0
2, 108627, Note_on_c, 0, 75, 79
2, 108631, Note_on_c, 0, 70, 80
2, 108631, Note_on_c, 0, 65, 87
2, 108633, Note_on_c, 0, 60, 66
2, 108643, Control_c, 0, 64, 0
2, 108696, Control_c, 0, 64, 127
2, 108730, Note_on_c, 0, 65, 0
2, 108744, Note_on_c, 0, 60, 0
2, 108748, Note_on_c, 0, 70, 0
2, 108761, Note_on_c, 0, 75, 0
2, 108789, Note_on_c, 0, 77, 73
2, 108790, Note_on_c, 0, 62, 66
2, 108792, Note_on_c, 0, 67, 68
2, 108792, Note_on_c, 0, 72, 58
2, 108805, Control_c, 0, 64, 0
2, 108842, Control_c, 0, 64, 127
2, 108857, Note_on_c, 0, 77, 0
2, 108864, Note_on_c, 0, 72, 0
2, 108887, Note_on_c, 0, 67, 0
2, 108938, Note_on_c, 0, 62, 0
2, 108946, Note_on_c, 0, 75, 59
2, 108949, Note_on_c, 0, 70, 64
2, 108950, Note_on_c, 0, 65, 62
2, 108955, Note_on_c, 0, 58, 48
2, 108964, Control_c, 0, 64, 0
2, 109013, Control_c, 0, 64, 127
2, 109023, Note_on_c, 0, 75, 0
2, 109061, Note_on_c, 0, 70, 0
2, 109087, Note_on_c, 0, 65, 0
2, 109139, Note_on_c, 0, 58, 0
2, 109141, Note_on_c, 0, 72, 42
2, 109145, Note_on_c, 0, 67, 57
2, 109146, Note_on_c, 0, 62, 38
2, 109147, Note_on_c, 0, 56, 36
2, 109153, Control_c, 0, 64, 0
2, 109192, Control_c, 0, 64, 127
2, 109207, Note_on_c, 0, 67, 0
2, 109220, Note_on_c, 0, 72, 0
2, 109251, Note_on_c, 0, 62, 0
2, 109298, Note_on_c, 0, 56, 0
2, 109302, Note_on_c, 0, 70, 44
2, 109303, Note_on_c, 0, 60, 49
2, 109304, Note_on_c, 0, 65, 57
2, 109308, Note_on_c, 0, 55, 49
2, 109314, Control_c, 0, 64, 0
2, 109368, Control_c, 0, 64, 127
2, 109386, Note_on_c, 0, 70, 0
2, 109400, Note_on_c, 0, 65, 0
2, 109414, Note_on_c, 0, 60, 0
2, 109603, Note_on_c, 0, 55, 0
2, 109661, Note_on_c, 0, 65, 58
2, 109664, Note_on_c, 0, 50, 37
2, 109667, Note_on_c, 0, 55, 35
2, 109667, Note_on_c, 0, 58, 42
2, 109668, Note_on_c, 0, 62, 48
2, 109674, Control_c, 0, 64, 0
2, 109753, Control_c, 0, 64, 127
2, 109777, Note_on_c, 0, 55, 0
2, 109793, Note_on_c, 0, 62, 0
2, 109796, Note_on_c, 0, 58, 0
2, 109806, Note_on_c, 0, 65, 0
2, 109842, Note_on_c, 0, 50, 0
2, 109862, Note_on_c, 0, 63, 43
2, 109863, Note_on_c, 0, 55, 36
2, 109866, Note_on_c, 0, 58, 39
2, 109869, Note_on_c, 0, 46, 28
2, 109881, Control_c, 0, 64, 0
2, 109936, Control_c, 0, 64, 127
2, 110022, Note_on_c, 0, 55, 0
2, 110042, Note_on_c, 0, 58, 0
2, 110058, Note_on_c, 0, 46, 0
2, 110060, Note_on_c, 0, 63, 0
2, 110191, Note_on_c, 0, 53, 44
2, 110192, Note_on_c, 0, 62, 56
2, 110197, Note_on_c, 0, 56, 39
2, 110200, Note_on_c, 0, 44, 30
2, 110219, Control_c, 0, 64, 0
2, 110275, Control_c, 0, 64, 127
2, 110315, Note_on_c, 0, 53, 0
2, 110316, Note_on_c, 0, 56, 0
2, 110324, Note_on_c, 0, 44, 0
2, 110346, Note_on_c, 0, 62, 0
2, 110522, Control_c, 0, 64, 0
2, 110527, Note_on_c, 0, 65, 35
2, 110528, Note_on_c, 0, 54, 37
2, 110529, Note_on_c, 0, 57, 54
2, 110531, Note_on_c, 0, 39, 31
2, 110533, Note_on_c, 0, 27, 32
2, 110535, Note_on_c, 0, 62, 33
2, 110603, Control_c, 0, 64, 127
2, 110637, Note_on_c, 0, 27, 0
2, 110656, Note_on_c, 0, 57, 0
2, 110667, Note_on_c, 0, 39, 0
2, 110667, Note_on_c, 0, 62, 0
2, 110673, Note_on_c, 0, 54, 0
2, 110686, Note_on_c, 0, 65, 0
2, 110776, Note_on_c, 0, 69, 46
2, 110892, Note_on_c, 0, 69, 0
2, 110927, Note_on_c, 0, 69, 36
2, 110970, Note_on_c, 0, 69, 0
2, 111025, Note_on_c, 0, 74, 58
2, 111068, Note_on_c, 0, 74, 0
2, 111102, Note_on_c, 0, 74, 33
2, 111123, Note_on_c, 0, 74, 0
2, 111168, Note_on_c, 0, 81, 72
2, 111212, Note_on_c, 0, 81, 0
2, 111239, Note_on_c, 0, 81, 60
2, 111268, Note_on_c, 0, 81, 0
2, 111309, Note_on_c, 0, 86, 62
2, 111317, Note_on_c, 0, 84, 33
2, 111327, Note_on_c, 0, 84, 0
2, 111341, Note_on_c, 0, 86, 0
2, 111386, Note_on_c, 0, 86, 41
2, 111388, Note_on_c, 0, 88, 36
2, 111407, Note_on_c, 0, 86, 0
2, 111410, Note_on_c, 0, 88, 0
2, 111458, Note_on_c, 0, 93, 66
2, 111500, Note_on_c, 0, 93, 0
2, 111538, Note_on_c, 0, 93, 49
2, 111572, Note_on_c, 0, 93, 0
2, 111609, Note_on_c, 0, 98, 60
2, 111657, Note_on_c, 0, 98, 0
2, 111690, Note_on_c, 0, 98, 53
2, 111717, Note_on_c, 0, 98, 0
2, 111773, Note_on_c, 0, 105, 53
2, 111830, Note_on_c, 0, 105, 0
2, 111864, Note_on_c, 0, 105, 65
2, 111937, Note_on_c, 0, 105, 0
2, 112005, Note_on_c, 0, 105, 52
2, 112070, Note_on_c, 0, 105, 0
2, 112246, Note_on_c, 0, 105, 44
2, 112256, Note_on_c, 0, 27, 31
2, 112256, Note_on_c, 0, 39, 21
2, 112387, Note_on_c, 0, 105, 0
2, 112400, Note_on_c, 0, 27, 0
2, 112404, Note_on_c, 0, 39, 0
2, 112878, Control_c, 0, 64, 0
2, 112878, End_track
3, 0, Start_track
3, 0, MIDI_port, 0
3, 0, Title_t, "Acoustic or Fretless bass"
3, 0, Program_c, 1, 32
3, 1, Note_on_c, 1, 39, 57
3, 440, Note_on_c, 1, 46, 64
3, 471, Note_on_c, 1, 46, 0
3, 480, Note_on_c, 1, 50, 92
3, 485, Note_on_c, 1, 39, 0
3, 673, Note_on_c, 1, 50, 0
3, 687, Note_on_c, 1, 44, 63
3, 730, Note_on_c, 1, 44, 0
3, 742, Note_on_c, 1, 43, 55
3, 893, Note_on_c, 1, 43, 0
3, 935, Note_on_c, 1, 50, 70
3, 964, Note_on_c, 1, 50, 0
3, 991, Note_on_c, 1, 48, 63
3, 1204, Note_on_c, 1, 48, 0
3, 1222, Note_on_c, 1, 55, 83
3, 1272, Note_on_c, 1, 55, 0
3, 1288, Note_on_c, 1, 54, 73
3, 1326, Note_on_c, 1, 54, 0
3, 1339, Note_on_c, 1, 53, 58
3, 1553, Note_on_c, 1, 53, 0
3, 1565, Note_on_c, 1, 51, 69
3, 1742, Note_on_c, 1, 50, 53
3, 1745, Note_on_c, 1, 51, 0
3, 1779, Note_on_c, 1, 50, 0
3, 1796, Note_on_c, 1, 51, 61
3, 1908, Note_on_c, 1, 48, 62
3, 1919, Note_on_c, 1, 51, 0
3, 2032, Note_on_c, 1, 48, 0
3, 2040, Note_on_c, 1, 44, 57
3, 2282, Note_on_c, 1, 60, 105
3, 2348, Note_on_c, 1, 44, 0
3, 2518, Note_on_c, 1, 53, 52
3, 2609, Note_on_c, 1, 60, 0
3, 2637, Note_on_c, 1, 53, 0
3, 2647, Note_on_c, 1, 55, 60
3, 2766, Note_on_c, 1, 49, 44
3, 2900, Note_on_c, 1, 55, 0
3, 2937, Note_on_c, 1, 49, 0
3, 3092, Note_on_c, 1, 53, 73
3, 3136, Note_on_c, 1, 53, 0
3, 3152, Note_on_c, 1, 48, 61
3, 3334, Note_on_c, 1, 48, 0
3, 3334, Note_on_c, 1, 41, 54
3, 3365, Note_on_c, 1, 41, 0
3, 3379, Note_on_c, 1, 46, 64
3, 3558, Note_on_c, 1, 41, 32
3, 3580, Note_on_c, 1, 41, 0
3, 3599, Note_on_c, 1, 46, 0
3, 3606, Note_on_c, 1, 34, 52
3, 3844, Note_on_c, 1, 39, 55
3, 3849, Note_on_c, 1, 34, 0
3, 4162, Note_on_c, 1, 39, 0
3, 4164, Note_on_c, 1, 36, 31
3, 4199, Note_on_c, 1, 36, 0
3, 4215, Note_on_c, 1, 35, 68
3, 4309, Note_on_c, 1, 35, 0
3, 4321, Note_on_c, 1, 34, 74
3, 4544, Note_on_c, 1, 34, 0
3, 4559, Note_on_c, 1, 33, 81
3, 4794, Note_on_c, 1, 33, 0
3, 4795, Note_on_c, 1, 32, 76
3, 4994, Note_on_c, 1, 39, 69
3, 5004, Note_on_c, 1, 32, 0
3, 5050, Note_on_c, 1, 48, 108
3, 5077, Note_on_c, 1, 39, 0
3, 5353, Note_on_c, 1, 48, 0
3, 5358, Note_on_c, 1, 37, 56
3, 5442, Note_on_c, 1, 44, 50
3, 5451, Note_on_c, 1, 37, 0
3, 5504, Note_on_c, 1, 44, 0
3, 5511, Note_on_c, 1, 53, 87
3, 5583, Note_on_c, 1, 53, 0
3, 5605, Note_on_c, 1, 56, 75
3, 5657, Note_on_c, 1, 56, 0
3, 5684, Note_on_c, 1, 58, 68
3, 5728, Note_on_c, 1, 58, 0
3, 5760, Note_on_c, 1, 55, 50
3, 5844, Note_on_c, 1, 55, 0
3, 5865, Note_on_c, 1, 50, 38
3, 5918, Note_on_c, 1, 50, 0
3, 5947, Note_on_c, 1, 53, 57
3, 6165, Note_on_c, 1, 53, 0
3, 6189, Note_on_c, 1, 51, 49
3, 6224, Note_on_c, 1, 51, 0
3, 6240, Note_on_c, 1, 52, 54
3, 6305, Note_on_c, 1, 52, 0
3, 6317, Note_on_c, 1, 49, 49
3, 6357, Note_on_c, 1, 49, 0
3, 6363, Note_on_c, 1, 48, 55
3, 6778, Note_on_c, 1, 48, 0
3, 6960, Note_on_c, 1, 41, 57
3, 7030, Note_on_c, 1, 43, 40
3, 7036, Note_on_c, 1, 41, 0
3, 7080, Note_on_c, 1, 44, 47
3, 7084, Note_on_c, 1, 43, 0
3, 7157, Note_on_c, 1, 46, 59
3, 7167, Note_on_c, 1, 44, 0
3, 7205, Note_on_c, 1, 46, 0
3, 7221, Note_on_c, 1, 48, 57
3, 7293, Note_on_c, 1, 48, 0
3, 7319, Note_on_c, 1, 48, 58
3, 7391, Note_on_c, 1, 48, 0
3, 7395, Note_on_c, 1, 50, 63
3, 7621, Note_on_c, 1, 50, 0
3, 7629, Note_on_c, 1, 53, 68
3, 7679, Note_on_c, 1, 53, 0
3, 7696, Note_on_c, 1, 51, 46
3, 7895, Note_on_c, 1, 46, 27
3, 7896, Note_on_c, 1, 51, 0
3, 7934, Note_on_c, 1, 46, 0
3, 7940, Note_on_c, 1, 39, 47
3, 8156, Note_on_c, 1, 39, 0
3, 8180, Note_on_c, 1, 38, 38
3, 8356, Note_on_c, 1, 38, 0
3, 8359, Note_on_c, 1, 43, 55
3, 8609, Note_on_c, 1, 53, 80
3, 8614, Note_on_c, 1, 43, 0
3, 8657, Note_on_c, 1, 53, 0
3, 8667, Note_on_c, 1, 51, 67
3, 9079, Note_on_c, 1, 48, 51
3, 9092, Note_on_c, 1, 51, 0
3, 9095, Note_on_c, 1, 48, 0
3, 9133, Note_on_c, 1, 46, 57
3, 9359, Note_on_c, 1, 46, 0
3, 9360, Note_on_c, 1, 39, 43
3, 9466, Note_on_c, 1, 39, 0
3, 9479, Note_on_c, 1, 43, 65
3, 9573, Note_on_c, 1, 43, 0
3, 9597, Note_on_c, 1, 44, 56
3, 9845, Note_on_c, 1, 60, 69
3, 9949, Note_on_c, 1, 44, 0
3, 10084, Note_on_c, 1, 60, 0
3, 10093, Note_on_c, 1, 55, 49
3, 10312, Note_on_c, 1, 55, 0
3, 10318, Note_on_c, 1, 52, 47
3, 10597, Note_on_c, 1, 52, 0
3, 10627, Note_on_c, 1, 41, 54
3, 10665, Note_on_c, 1, 41, 0
3, 10675, Note_on_c, 1, 43, 40
3, 10728, Note_on_c, 1, 43, 0
3, 10745, Note_on_c, 1, 45, 54
3, 10785, Note_on_c, 1, 45, 0
3, 10809, Note_on_c, 1, 46, 31
3, 10859, Note_on_c, 1, 46, 0
3, 11105, Note_on_c, 1, 46, 46
3, 11294, Note_on_c, 1, 58, 80
3, 11412, Note_on_c, 1, 46, 0
3, 11488, Note_on_c, 1, 46, 80
3, 11505, Note_on_c, 1, 58, 0
3, 11852, Note_on_c, 1, 58, 74
3, 11923, Note_on_c, 1, 46, 0
3, 12091, Note_on_c, 1, 45, 94
3, 12105, Note_on_c, 1, 58, 0
3, 12347, Note_on_c, 1, 57, 76
3, 12354, Note_on_c, 1, 45, 0
3, 12428, Note_on_c, 1, 57, 0
3, 12433, Note_on_c, 1, 56, 56
3, 12714, Note_on_c, 1, 44, 64
3, 12716, Note_on_c, 1, 56, 0
3, 12910, Note_on_c, 1, 44, 0
3, 12918, Note_on_c, 1, 37, 51
3, 13146, Note_on_c, 1, 44, 26
3, 13164, Note_on_c, 1, 44, 0
3, 13195, Note_on_c, 1, 53, 76
3, 13231, Note_on_c, 1, 53, 0
3, 13313, Note_on_c, 1, 51, 50
3, 13357, Note_on_c, 1, 51, 0
3, 13432, Note_on_c, 1, 37, 0
3, 13436, Note_on_c, 1, 55, 60
3, 13621, Note_on_c, 1, 55, 0
3, 13636, Note_on_c, 1, 49, 58
3, 13687, Note_on_c, 1, 49, 0
3, 13697, Note_on_c, 1, 48, 46
3, 13881, Note_on_c, 1, 43, 46
3, 13894, Note_on_c, 1, 43, 0
3, 13911, Note_on_c, 1, 48, 0
3, 13933, Note_on_c, 1, 41, 51
3, 14109, Note_on_c, 1, 41, 0
3, 14115, Note_on_c, 1, 46, 58
3, 14352, Note_on_c, 1, 41, 50
3, 14356, Note_on_c, 1, 46, 0
3, 14391, Note_on_c, 1, 41, 0
3, 14407, Note_on_c, 1, 39, 47
3, 14643, Note_on_c, 1, 37, 47
3, 14649, Note_on_c, 1, 39, 0
3, 14876, Note_on_c, 1, 37, 0
3, 14884, Note_on_c, 1, 39, 54
3, 15125, Note_on_c, 1, 36, 69
3, 15126, Note_on_c, 1, 39, 0
3, 15356, Note_on_c, 1, 36, 0
3, 15362, Note_on_c, 1, 41, 57
3, 15560, Note_on_c, 1, 48, 82
3, 15571, Note_on_c, 1, 41, 0
3, 15598, Note_on_c, 1, 48, 0
3, 15612, Note_on_c, 1, 46, 72
3, 15852, Note_on_c, 1, 41, 44
3, 15882, Note_on_c, 1, 46, 0
3, 16064, Note_on_c, 1, 41, 0
3, 16088, Note_on_c, 1, 36, 50
3, 16321, Note_on_c, 1, 36, 0
3, 16326, Note_on_c, 1, 41, 45
3, 16569, Note_on_c, 1, 58, 73
3, 16594, Note_on_c, 1, 41, 0
3, 16929, Note_on_c, 1, 46, 55
3, 16961, Note_on_c, 1, 58, 0
3, 17116, Note_on_c, 1, 60, 80
3, 17153, Note_on_c, 1, 60, 0
3, 17161, Note_on_c, 1, 46, 0
3, 17168, Note_on_c, 1, 58, 59
3, 17250, Note_on_c, 1, 46, 30
3, 17259, Note_on_c, 1, 58, 0
3, 17271, Note_on_c, 1, 46, 0
3, 17280, Note_on_c, 1, 57, 64
3, 17462, Note_on_c, 1, 49, 40
3, 17483, Note_on_c, 1, 57, 0
3, 17497, Note_on_c, 1, 49, 0
3, 17508, Note_on_c, 1, 50, 44
3, 17698, Note_on_c, 1, 50, 0
3, 17702, Note_on_c, 1, 45, 31
3, 17720, Note_on_c, 1, 45, 0
3, 17746, Note_on_c, 1, 43, 46
3, 17989, Note_on_c, 1, 62, 77
3, 18001, Note_on_c, 1, 43, 0
3, 18013, Note_on_c, 1, 62, 0
3, 18107, Note_on_c, 1, 60, 74
3, 18609, Note_on_c, 1, 53, 60
3, 18649, Note_on_c, 1, 60, 0
3, 18807, Note_on_c, 1, 53, 0
3, 18808, Note_on_c, 1, 46, 60
3, 18968, Note_on_c, 1, 58, 79
3, 18970, Note_on_c, 1, 46, 0
3, 19076, Note_on_c, 1, 58, 0
3, 19081, Note_on_c, 1, 50, 58
3, 19172, Note_on_c, 1, 50, 0
3, 19199, Note_on_c, 1, 51, 56
3, 19256, Note_on_c, 1, 51, 0
3, 19279, Note_on_c, 1, 53, 52
3, 19309, Note_on_c, 1, 53, 0
3, 19333, Note_on_c, 1, 55, 66
3, 19750, Note_on_c, 1, 55, 0
3, 19800, Note_on_c, 1, 50, 40
3, 19879, Note_on_c, 1, 50, 0
3, 19932, Note_on_c, 1, 43, 71
3, 20131, Note_on_c, 1, 47, 56
3, 20135, Note_on_c, 1, 43, 0
3, 20151, Note_on_c, 1, 47, 0
3, 20186, Note_on_c, 1, 48, 64
3, 20409, Note_on_c, 1, 48, 0
3, 20420, Note_on_c, 1, 41, 52
3, 20655, Note_on_c, 1, 41, 0
3, 20656, Note_on_c, 1, 46, 57
3, 20849, Note_on_c, 1, 39, 68
3, 20854, Note_on_c, 1, 46, 0
3, 21082, Note_on_c, 1, 44, 75
3, 21088, Note_on_c, 1, 39, 0
3, 21351, Note_on_c, 1, 44, 0
3, 21355, Note_on_c, 1, 32, 56
3, 21595, Note_on_c, 1, 32, 0
3, 21598, Note_on_c, 1, 43, 58
3, 21954, Note_on_c, 1, 43, 0
3, 21955, Note_on_c, 1, 36, 66
3, 22189, Note_on_c, 1, 36, 0
3, 22195, Note_on_c, 1, 41, 72
3, 22702, Note_on_c, 1, 41, 0
3, 22756, Note_on_c, 1, 41, 57
3, 22775, Note_on_c, 1, 41, 0
3, 22810, Note_on_c, 1, 46, 61
3, 22849, Note_on_c, 1, 46, 0
3, 22877, Note_on_c, 1, 48, 68
3, 22909, Note_on_c, 1, 48, 0
3, 22929, Note_on_c, 1, 50, 75
3, 22970, Note_on_c, 1, 50, 0
3, 22999, Note_on_c, 1, 53, 88
3, 23037, Note_on_c, 1, 53, 0
3, 23060, Note_on_c, 1, 51, 65
3, 23142, Note_on_c, 1, 51, 0
3, 23170, Note_on_c, 1, 51, 70
3, 23502, Note_on_c, 1, 51, 0
3, 23521, Note_on_c, 1, 46, 54
3, 23712, Note_on_c, 1, 45, 66
3, 23714, Note_on_c, 1, 46, 0
3, 23957, Note_on_c, 1, 44, 67
3, 23960, Note_on_c, 1, 45, 0
3, 24193, Note_on_c, 1, 51, 40
3, 24224, Note_on_c, 1, 51, 0
3, 24249, Note_on_c, 1, 58, 77
3, 24302, Note_on_c, 1, 58, 0
3, 24317, Note_on_c, 1, 56, 72
3, 24359, Note_on_c, 1, 56, 0
3, 24366, Note_on_c, 1, 44, 0
3, 24370, Note_on_c, 1, 55, 59
3, 24445, Note_on_c, 1, 54, 64
3, 24457, Note_on_c, 1, 55, 0
3, 24480, Note_on_c, 1, 54, 0
3, 24503, Note_on_c, 1, 53, 59
3, 24581, Note_on_c, 1, 53, 0
3, 24606, Note_on_c, 1, 53, 64
3, 24910, Note_on_c, 1, 53, 0
3, 24959, Note_on_c, 1, 43, 47
3, 25082, Note_on_c, 1, 58, 83
3, 25115, Note_on_c, 1, 43, 0
3, 25150, Note_on_c, 1, 58, 0
3, 25163, Note_on_c, 1, 57, 34
3, 25184, Note_on_c, 1, 57, 0
3, 25207, Note_on_c, 1, 58, 72
3, 25263, Note_on_c, 1, 58, 0
3, 25267, Note_on_c, 1, 57, 65
3, 25315, Note_on_c, 1, 57, 0
3, 25335, Note_on_c, 1, 55, 37
3, 25390, Note_on_c, 1, 55, 0
3, 25393, Note_on_c, 1, 53, 67
3, 25436, Note_on_c, 1, 53, 0
3, 25454, Note_on_c, 1, 52, 43
3, 25522, Note_on_c, 1, 52, 0
3, 25559, Note_on_c, 1, 52, 46
3, 25616, Note_on_c, 1, 52, 0
3, 25687, Note_on_c, 1, 53, 62
3, 25781, Note_on_c, 1, 53, 0
3, 25783, Note_on_c, 1, 46, 75
3, 26058, Note_on_c, 1, 58, 74
3, 26126, Note_on_c, 1, 58, 0
3, 26141, Note_on_c, 1, 58, 83
3, 26206, Note_on_c, 1, 46, 0
3, 26255, Note_on_c, 1, 60, 82
3, 26256, Note_on_c, 1, 58, 0
3, 26293, Note_on_c, 1, 60, 0
3, 26301, Note_on_c, 1, 58, 68
3, 26604, Note_on_c, 1, 58, 0
3, 26607, Note_on_c, 1, 46, 70
3, 26754, Note_on_c, 1, 46, 0
3, 26773, Note_on_c, 1, 46, 72
3, 26832, Note_on_c, 1, 46, 0
3, 26897, Note_on_c, 1, 39, 73
3, 27026, Note_on_c, 1, 46, 56
3, 27041, Note_on_c, 1, 39, 0
3, 27140, Note_on_c, 1, 55, 65
3, 27141, Note_on_c, 1, 46, 0
3, 27230, Note_on_c, 1, 55, 0
3, 27247, Note_on_c, 1, 54, 49
3, 27351, Note_on_c, 1, 54, 0
3, 27361, Note_on_c, 1, 53, 52
3, 27481, Note_on_c, 1, 53, 0
3, 27481, Note_on_c, 1, 44, 43
3, 27590, Note_on_c, 1, 44, 0
3, 27596, Note_on_c, 1, 43, 40
3, 27688, Note_on_c, 1, 42, 60
3, 27708, Note_on_c, 1, 43, 0
3, 27722, Note_on_c, 1, 42, 0
3, 27728, Note_on_c, 1, 50, 110
3, 27808, Note_on_c, 1, 49, 85
3, 27812, Note_on_c, 1, 50, 0
3, 27835, Note_on_c, 1, 49, 0
3, 27845, Note_on_c, 1, 48, 53
3, 27928, Note_on_c, 1, 43, 79
3, 27932, Note_on_c, 1, 48, 0
3, 27961, Note_on_c, 1, 42, 69
3, 27968, Note_on_c, 1, 43, 0
3, 28080, Note_on_c, 1, 42, 0
3, 28085, Note_on_c, 1, 41, 49
3, 28204, Note_on_c, 1, 33, 64
3, 28207, Note_on_c, 1, 41, 0
3, 28320, Note_on_c, 1, 33, 0
3, 28323, Note_on_c, 1, 34, 60
3, 28438, Note_on_c, 1, 41, 74
3, 28450, Note_on_c, 1, 34, 0
3, 28526, Note_on_c, 1, 34, 35
3, 28544, Note_on_c, 1, 34, 0
3, 28546, Note_on_c, 1, 41, 0
3, 28565, Note_on_c, 1, 39, 57
3, 28645, Note_on_c, 1, 33, 82
3, 28660, Note_on_c, 1, 39, 0
3, 28796, Note_on_c, 1, 33, 0
3, 28814, Note_on_c, 1, 32, 49
3, 28888, Note_on_c, 1, 32, 0
3, 28926, Note_on_c, 1, 39, 40
3, 29044, Note_on_c, 1, 48, 70
3, 29053, Note_on_c, 1, 39, 0
3, 29157, Note_on_c, 1, 48, 0
3, 29160, Note_on_c, 1, 42, 38
3, 29278, Note_on_c, 1, 42, 0
3, 29286, Note_on_c, 1, 43, 45
3, 29372, Note_on_c, 1, 39, 40
3, 29397, Note_on_c, 1, 43, 0
3, 29408, Note_on_c, 1, 49, 83
3, 29416, Note_on_c, 1, 39, 0
3, 29518, Note_on_c, 1, 49, 0
3, 29527, Note_on_c, 1, 48, 53
3, 29636, Note_on_c, 1, 40, 57
3, 29644, Note_on_c, 1, 48, 0
3, 29762, Note_on_c, 1, 40, 0
3, 29765, Note_on_c, 1, 41, 54
3, 29868, Note_on_c, 1, 39, 25
3, 29881, Note_on_c, 1, 39, 0
3, 29893, Note_on_c, 1, 55, 61
3, 29895, Note_on_c, 1, 53, 65
3, 29962, Note_on_c, 1, 41, 0
3, 29976, Note_on_c, 1, 55, 0
3, 29989, Note_on_c, 1, 53, 0
3, 30008, Note_on_c, 1, 53, 71
3, 30108, Note_on_c, 1, 41, 34
3, 30113, Note_on_c, 1, 53, 0
3, 30121, Note_on_c, 1, 41, 0
3, 30129, Note_on_c, 1, 51, 55
3, 30219, Note_on_c, 1, 41, 28
3, 30229, Note_on_c, 1, 51, 0
3, 30236, Note_on_c, 1, 41, 0
3, 30247, Note_on_c, 1, 51, 73
3, 30362, Note_on_c, 1, 51, 0
3, 30368, Note_on_c, 1, 50, 45
3, 30450, Note_on_c, 1, 50, 0
3, 30458, Note_on_c, 1, 41, 35
3, 30474, Note_on_c, 1, 41, 0
3, 30480, Note_on_c, 1, 50, 50
3, 30568, Note_on_c, 1, 41, 34
3, 30583, Note_on_c, 1, 41, 0
3, 30591, Note_on_c, 1, 50, 0
3, 30604, Note_on_c, 1, 48, 36
3, 30712, Note_on_c, 1, 48, 0
3, 30728, Note_on_c, 1, 51, 59
3, 30836, Note_on_c, 1, 51, 0
3, 30847, Note_on_c, 1, 46, 39
3, 30956, Note_on_c, 1, 46, 0
3, 30968, Note_on_c, 1, 43, 44
3, 31075, Note_on_c, 1, 43, 0
3, 31082, Note_on_c, 1, 39, 47
3, 31212, Note_on_c, 1, 39, 0
3, 31218, Note_on_c, 1, 34, 40
3, 31296, Note_on_c, 1, 39, 47
3, 31308, Note_on_c, 1, 34, 0
3, 31328, Note_on_c, 1, 39, 0
3, 31328, Note_on_c, 1, 46, 72
3, 31443, Note_on_c, 1, 43, 38
3, 31461, Note_on_c, 1, 46, 0
3, 31543, Note_on_c, 1, 43, 0
3, 31560, Note_on_c, 1, 33, 47
3, 31666, Note_on_c, 1, 33, 0
3, 31678, Note_on_c, 1, 32, 59
3, 31801, Note_on_c, 1, 39, 62
3, 31869, Note_on_c, 1, 32, 0
3, 31928, Note_on_c, 1, 48, 110
3, 31935, Note_on_c, 1, 39, 0
3, 32118, Note_on_c, 1, 39, 50
3, 32148, Note_on_c, 1, 48, 0
3, 32154, Note_on_c, 1, 39, 0
3, 32166, Note_on_c, 1, 49, 71
3, 32287, Note_on_c, 1, 41, 51
3, 32294, Note_on_c, 1, 49, 0
3, 32409, Note_on_c, 1, 41, 0
3, 32416, Note_on_c, 1, 37, 37
3, 32519, Note_on_c, 1, 37, 0
3, 32527, Note_on_c, 1, 42, 52
3, 32639, Note_on_c, 1, 42, 0
3, 32654, Note_on_c, 1, 43, 36
3, 32767, Note_on_c, 1, 43, 0
3, 32773, Note_on_c, 1, 37, 55
3, 32885, Note_on_c, 1, 37, 0
3, 32893, Note_on_c, 1, 36, 54
3, 33011, Note_on_c, 1, 51, 69
3, 33027, Note_on_c, 1, 36, 0
3, 33133, Note_on_c, 1, 48, 49
3, 33134, Note_on_c, 1, 51, 0
3, 33242, Note_on_c, 1, 48, 0
3, 33248, Note_on_c, 1, 43, 54
3, 33359, Note_on_c, 1, 43, 0
3, 33369, Note_on_c, 1, 40, 48
3, 33480, Note_on_c, 1, 40, 0
3, 33484, Note_on_c, 1, 43, 66
3, 33533, Note_on_c, 1, 43, 0
3, 33566, Note_on_c, 1, 42, 62
3, 33596, Note_on_c, 1, 42, 0
3, 33609, Note_on_c, 1, 41, 51
3, 33679, Note_on_c, 1, 41, 0
3, 33688, Note_on_c, 1, 36, 57
3, 33705, Note_on_c, 1, 36, 0
3, 33729, Note_on_c, 1, 33, 46
3, 33842, Note_on_c, 1, 33, 0
3, 33850, Note_on_c, 1, 36, 53
3, 33958, Note_on_c, 1, 36, 0
3, 33971, Note_on_c, 1, 35, 62
3, 34075, Note_on_c, 1, 35, 0
3, 34091, Note_on_c, 1, 34, 48
3, 34206, Note_on_c, 1, 50, 73
3, 34221, Note_on_c, 1, 34, 0
3, 34322, Note_on_c, 1, 50, 0
3, 34328, Note_on_c, 1, 46, 40
3, 34442, Note_on_c, 1, 38, 48
3, 34449, Note_on_c, 1, 46, 0
3, 34535, Note_on_c, 1, 38, 0
3, 34565, Note_on_c, 1, 39, 58
3, 34686, Note_on_c, 1, 53, 81
3, 34698, Note_on_c, 1, 39, 0
3, 34795, Note_on_c, 1, 53, 0
3, 34802, Note_on_c, 1, 51, 51
3, 34917, Note_on_c, 1, 51, 0
3, 34928, Note_on_c, 1, 49, 52
3, 35035, Note_on_c, 1, 49, 0
3, 35047, Note_on_c, 1, 50, 53
3, 35160, Note_on_c, 1, 50, 0
3, 35168, Note_on_c, 1, 44, 86
3, 35277, Note_on_c, 1, 44, 0
3, 35294, Note_on_c, 1, 43, 34
3, 35409, Note_on_c, 1, 43, 0
3, 35409, Note_on_c, 1, 35, 68
3, 35517, Note_on_c, 1, 35, 0
3, 35537, Note_on_c, 1, 36, 52
3, 35649, Note_on_c, 1, 36, 0
3, 35653, Note_on_c, 1, 38, 54
3, 35770, Note_on_c, 1, 39, 47
3, 35788, Note_on_c, 1, 38, 0
3, 35880, Note_on_c, 1, 39, 0
3, 35922, Note_on_c, 1, 35, 38
3, 35959, Note_on_c, 1, 35, 0
3, 35994, Note_on_c, 1, 44, 57
3, 36088, Note_on_c, 1, 39, 28
3, 36100, Note_on_c, 1, 39, 0
3, 36110, Note_on_c, 1, 44, 0
3, 36125, Note_on_c, 1, 46, 51
3, 36188, Note_on_c, 1, 39, 25
3, 36202, Note_on_c, 1, 39, 0
3, 36230, Note_on_c, 1, 46, 0
3, 36245, Note_on_c, 1, 51, 61
3, 36336, Note_on_c, 1, 38, 42
3, 36351, Note_on_c, 1, 38, 0
3, 36354, Note_on_c, 1, 51, 0
3, 36366, Note_on_c, 1, 43, 44
3, 36474, Note_on_c, 1, 43, 0
3, 36486, Note_on_c, 1, 44, 51
3, 36569, Note_on_c, 1, 39, 56
3, 36572, Note_on_c, 1, 44, 0
3, 36601, Note_on_c, 1, 39, 0
3, 36607, Note_on_c, 1, 32, 37
3, 36701, Note_on_c, 1, 39, 36
3, 36704, Note_on_c, 1, 32, 0
3, 36732, Note_on_c, 1, 39, 0
3, 36736, Note_on_c, 1, 52, 58
3, 36809, Note_on_c, 1, 52, 0
3, 36848, Note_on_c, 1, 42, 64
3, 36963, Note_on_c, 1, 42, 0
3, 36970, Note_on_c, 1, 43, 49
3, 37055, Note_on_c, 1, 39, 38
3, 37073, Note_on_c, 1, 43, 0
3, 37080, Note_on_c, 1, 49, 61
3, 37091, Note_on_c, 1, 39, 0
3, 37195, Note_on_c, 1, 49, 0
3, 37205, Note_on_c, 1, 48, 53
3, 37318, Note_on_c, 1, 48, 0
3, 37326, Note_on_c, 1, 36, 54
3, 37434, Note_on_c, 1, 36, 0
3, 37449, Note_on_c, 1, 41, 58
3, 37563, Note_on_c, 1, 29, 74
3, 37569, Note_on_c, 1, 41, 0
3, 37673, Note_on_c, 1, 29, 0
3, 37683, Note_on_c, 1, 33, 62
3, 37793, Note_on_c, 1, 33, 0
3, 37803, Note_on_c, 1, 36, 74
3, 37869, Note_on_c, 1, 36, 0
3, 37886, Note_on_c, 1, 35, 68
3, 37911, Note_on_c, 1, 35, 0
3, 37932, Note_on_c, 1, 34, 62
3, 38043, Note_on_c, 1, 46, 63
3, 38061, Note_on_c, 1, 34, 0
3, 38109, Note_on_c, 1, 34, 25
3, 38145, Note_on_c, 1, 46, 0
3, 38168, Note_on_c, 1, 46, 62
3, 38170, Note_on_c, 1, 34, 0
3, 38280, Note_on_c, 1, 34, 65
3, 38296, Note_on_c, 1, 46, 0
3, 38364, Note_on_c, 1, 39, 57
3, 38405, Note_on_c, 1, 46, 80
3, 38407, Note_on_c, 1, 39, 0
3, 38411, Note_on_c, 1, 34, 0
3, 38497, Note_on_c, 1, 39, 29
3, 38512, Note_on_c, 1, 46, 0
3, 38514, Note_on_c, 1, 39, 0
3, 38531, Note_on_c, 1, 46, 87
3, 38647, Note_on_c, 1, 34, 78
3, 38667, Note_on_c, 1, 46, 0
3, 38763, Note_on_c, 1, 46, 90
3, 38801, Note_on_c, 1, 34, 0
3, 38846, Note_on_c, 1, 34, 32
3, 38865, Note_on_c, 1, 46, 0
3, 38882, Note_on_c, 1, 34, 0
3, 38887, Note_on_c, 1, 46, 77
3, 39001, Note_on_c, 1, 33, 83
3, 39013, Note_on_c, 1, 46, 0
3, 39120, Note_on_c, 1, 45, 62
3, 39150, Note_on_c, 1, 33, 0
3, 39221, Note_on_c, 1, 45, 0
3, 39243, Note_on_c, 1, 45, 74
3, 39356, Note_on_c, 1, 45, 0
3, 39363, Note_on_c, 1, 32, 62
3, 39484, Note_on_c, 1, 32, 0
3, 39488, Note_on_c, 1, 44, 51
3, 39579, Note_on_c, 1, 39, 38
3, 39592, Note_on_c, 1, 44, 0
3, 39598, Note_on_c, 1, 39, 0
3, 39608, Note_on_c, 1, 48, 58
3, 39703, Note_on_c, 1, 48, 0
3, 39728, Note_on_c, 1, 44, 56
3, 39808, Note_on_c, 1, 39, 42
3, 39827, Note_on_c, 1, 44, 0
3, 39835, Note_on_c, 1, 39, 0
3, 39856, Note_on_c, 1, 49, 60
3, 39917, Note_on_c, 1, 39, 27
3, 39936, Note_on_c, 1, 39, 0
3, 39977, Note_on_c, 1, 41, 28
3, 40057, Note_on_c, 1, 41, 0
3, 40086, Note_on_c, 1, 42, 61
3, 40192, Note_on_c, 1, 42, 0
3, 40210, Note_on_c, 1, 42, 71
3, 40218, Note_on_c, 1, 49, 0
3, 40313, Note_on_c, 1, 42, 0
3, 40325, Note_on_c, 1, 43, 49
3, 40430, Note_on_c, 1, 43, 0
3, 40444, Note_on_c, 1, 37, 57
3, 40552, Note_on_c, 1, 37, 0
3, 40570, Note_on_c, 1, 36, 42
3, 40649, Note_on_c, 1, 34, 52
3, 40657, Note_on_c, 1, 36, 0
3, 40681, Note_on_c, 1, 34, 0
3, 40681, Note_on_c, 1, 42, 83
3, 40805, Note_on_c, 1, 42, 0
3, 40805, Note_on_c, 1, 41, 55
3, 40866, Note_on_c, 1, 41, 0
3, 40890, Note_on_c, 1, 36, 55
3, 40905, Note_on_c, 1, 36, 0
3, 40921, Note_on_c, 1, 35, 59
3, 41039, Note_on_c, 1, 35, 0
3, 41042, Note_on_c, 1, 34, 54
3, 41159, Note_on_c, 1, 34, 0
3, 41159, Note_on_c, 1, 46, 50
3, 41250, Note_on_c, 1, 39, 23
3, 41261, Note_on_c, 1, 39, 0
3, 41264, Note_on_c, 1, 46, 0
3, 41289, Note_on_c, 1, 51, 57
3, 41386, Note_on_c, 1, 51, 0
3, 41408, Note_on_c, 1, 51, 57
3, 41517, Note_on_c, 1, 51, 0
3, 41538, Note_on_c, 1, 49, 46
3, 41629, Note_on_c, 1, 49, 0
3, 41658, Note_on_c, 1, 49, 53
3, 41763, Note_on_c, 1, 49, 0
3, 41774, Note_on_c, 1, 51, 53
3, 41888, Note_on_c, 1, 46, 63
3, 41895, Note_on_c, 1, 47, 72
3, 41905, Note_on_c, 1, 51, 0
3, 41987, Note_on_c, 1, 47, 0
3, 41994, Note_on_c, 1, 46, 0
3, 42008, Note_on_c, 1, 48, 58
3, 42119, Note_on_c, 1, 40, 60
3, 42120, Note_on_c, 1, 48, 0
3, 42225, Note_on_c, 1, 40, 0
3, 42242, Note_on_c, 1, 41, 44
3, 42353, Note_on_c, 1, 41, 0
3, 42357, Note_on_c, 1, 33, 66
3, 42481, Note_on_c, 1, 33, 0
3, 42490, Note_on_c, 1, 34, 57
3, 42576, Note_on_c, 1, 34, 0
3, 42602, Note_on_c, 1, 42, 79
3, 42710, Note_on_c, 1, 42, 0
3, 42725, Note_on_c, 1, 43, 58
3, 42834, Note_on_c, 1, 43, 0
3, 42843, Note_on_c, 1, 35, 68
3, 42960, Note_on_c, 1, 35, 0
3, 42964, Note_on_c, 1, 36, 61
3, 43028, Note_on_c, 1, 36, 0
3, 43053, Note_on_c, 1, 34, 31
3, 43053, Note_on_c, 1, 36, 55
3, 43064, Note_on_c, 1, 34, 0
3, 43079, Note_on_c, 1, 36, 0
3, 43088, Note_on_c, 1, 42, 74
3, 43208, Note_on_c, 1, 41, 54
3, 43209, Note_on_c, 1, 42, 0
3, 43274, Note_on_c, 1, 41, 0
3, 43289, Note_on_c, 1, 36, 64
3, 43316, Note_on_c, 1, 36, 0
3, 43327, Note_on_c, 1, 33, 51
3, 43446, Note_on_c, 1, 33, 0
3, 43447, Note_on_c, 1, 34, 56
3, 43510, Note_on_c, 1, 34, 0
3, 43530, Note_on_c, 1, 34, 57
3, 43552, Note_on_c, 1, 34, 0
3, 43564, Note_on_c, 1, 46, 60
3, 43687, Note_on_c, 1, 46, 0
3, 43687, Note_on_c, 1, 43, 46
3, 43767, Note_on_c, 1, 39, 37
3, 43777, Note_on_c, 1, 39, 0
3, 43777, Note_on_c, 1, 43, 0
3, 43806, Note_on_c, 1, 46, 61
3, 43884, Note_on_c, 1, 39, 34
3, 43908, Note_on_c, 1, 46, 0
3, 43909, Note_on_c, 1, 39, 0
3, 43929, Note_on_c, 1, 46, 59
3, 44030, Note_on_c, 1, 46, 0
3, 44048, Note_on_c, 1, 46, 67
3, 44145, Note_on_c, 1, 46, 0
3, 44168, Note_on_c, 1, 50, 74
3, 44286, Note_on_c, 1, 38, 66
3, 44300, Note_on_c, 1, 50, 0
3, 44410, Note_on_c, 1, 50, 82
3, 44515, Note_on_c, 1, 50, 0
3, 44535, Note_on_c, 1, 50, 77
3, 44543, Note_on_c, 1, 38, 0
3, 44654, Note_on_c, 1, 43, 66
3, 44672, Note_on_c, 1, 50, 0
3, 44772, Note_on_c, 1, 49, 71
3, 44785, Note_on_c, 1, 43, 0
3, 44885, Note_on_c, 1, 49, 0
3, 44896, Note_on_c, 1, 48, 57
3, 45012, Note_on_c, 1, 36, 63
3, 45025, Note_on_c, 1, 36, 0
3, 45100, Note_on_c, 1, 48, 0
3, 45128, Note_on_c, 1, 48, 76
3, 45248, Note_on_c, 1, 42, 53
3, 45251, Note_on_c, 1, 48, 0
3, 45349, Note_on_c, 1, 42, 0
3, 45368, Note_on_c, 1, 41, 51
3, 45472, Note_on_c, 1, 41, 0
3, 45487, Note_on_c, 1, 29, 55
3, 45606, Note_on_c, 1, 41, 60
3, 45680, Note_on_c, 1, 29, 0
3, 45705, Note_on_c, 1, 41, 0
3, 45727, Note_on_c, 1, 46, 83
3, 45847, Note_on_c, 1, 38, 53
3, 45925, Note_on_c, 1, 38, 0
3, 45946, Note_on_c, 1, 46, 0
3, 45958, Note_on_c, 1, 38, 47
3, 46067, Note_on_c, 1, 38, 0
3, 46077, Note_on_c, 1, 39, 48
3, 46206, Note_on_c, 1, 42, 53
3, 46215, Note_on_c, 1, 39, 0
3, 46313, Note_on_c, 1, 42, 0
3, 46323, Note_on_c, 1, 46, 60
3, 46421, Note_on_c, 1, 46, 0
3, 46428, Note_on_c, 1, 38, 75
3, 46569, Note_on_c, 1, 50, 85
3, 46574, Note_on_c, 1, 38, 0
3, 46662, Note_on_c, 1, 50, 0
3, 46663, Note_on_c, 1, 38, 30
3, 46678, Note_on_c, 1, 38, 0
3, 46685, Note_on_c, 1, 44, 53
3, 46765, Note_on_c, 1, 44, 0
3, 46768, Note_on_c, 1, 43, 61
3, 46848, Note_on_c, 1, 43, 0
3, 46879, Note_on_c, 1, 38, 64
3, 46905, Note_on_c, 1, 38, 0
3, 46922, Note_on_c, 1, 35, 50
3, 47029, Note_on_c, 1, 35, 0
3, 47042, Note_on_c, 1, 36, 48
3, 47128, Note_on_c, 1, 34, 37
3, 47145, Note_on_c, 1, 36, 0
3, 47153, Note_on_c, 1, 41, 42
3, 47161, Note_on_c, 1, 34, 0
3, 47259, Note_on_c, 1, 41, 0
3, 47278, Note_on_c, 1, 44, 47
3, 47340, Note_on_c, 1, 44, 0
3, 47368, Note_on_c, 1, 34, 70
3, 47525, Note_on_c, 1, 46, 51
3, 47554, Note_on_c, 1, 34, 0
3, 47592, Note_on_c, 1, 34, 44
3, 47609, Note_on_c, 1, 46, 0
3, 47634, Note_on_c, 1, 34, 0
3, 47640, Note_on_c, 1, 46, 59
3, 47724, Note_on_c, 1, 39, 25
3, 47735, Note_on_c, 1, 39, 0
3, 47739, Note_on_c, 1, 46, 0
3, 47755, Note_on_c, 1, 51, 64
3, 47885, Note_on_c, 1, 43, 53
3, 47897, Note_on_c, 1, 51, 0
3, 47993, Note_on_c, 1, 43, 0
3, 48001, Note_on_c, 1, 44, 53
3, 48102, Note_on_c, 1, 44, 0
3, 48124, Note_on_c, 1, 44, 62
3, 48223, Note_on_c, 1, 44, 0
3, 48241, Note_on_c, 1, 39, 37
3, 48350, Note_on_c, 1, 39, 0
3, 48360, Note_on_c, 1, 42, 62
3, 48466, Note_on_c, 1, 42, 0
3, 48480, Note_on_c, 1, 43, 51
3, 48589, Note_on_c, 1, 43, 0
3, 48602, Note_on_c, 1, 37, 60
3, 48713, Note_on_c, 1, 37, 0
3, 48727, Note_on_c, 1, 36, 38
3, 48813, Note_on_c, 1, 34, 46
3, 48820, Note_on_c, 1, 36, 0
3, 48837, Note_on_c, 1, 34, 0
3, 48842, Note_on_c, 1, 42, 67
3, 48957, Note_on_c, 1, 42, 0
3, 48965, Note_on_c, 1, 41, 49
3, 49059, Note_on_c, 1, 36, 29
3, 49063, Note_on_c, 1, 41, 0
3, 49072, Note_on_c, 1, 36, 0
3, 49080, Note_on_c, 1, 53, 60
3, 49189, Note_on_c, 1, 53, 0
3, 49193, Note_on_c, 1, 48, 48
3, 49311, Note_on_c, 1, 48, 0
3, 49319, Note_on_c, 1, 47, 46
3, 49431, Note_on_c, 1, 47, 0
3, 49446, Note_on_c, 1, 46, 42
3, 49557, Note_on_c, 1, 46, 0
3, 49560, Note_on_c, 1, 34, 47
3, 49671, Note_on_c, 1, 34, 0
3, 49680, Note_on_c, 1, 41, 61
3, 49783, Note_on_c, 1, 41, 0
3, 49800, Note_on_c, 1, 40, 74
3, 49911, Note_on_c, 1, 40, 0
3, 49927, Note_on_c, 1, 39, 56
3, 50026, Note_on_c, 1, 39, 0
3, 50047, Note_on_c, 1, 39, 71
3, 50166, Note_on_c, 1, 46, 53
3, 50183, Note_on_c, 1, 39, 0
3, 50266, Note_on_c, 1, 39, 34
3, 50270, Note_on_c, 1, 46, 0
3, 50291, Note_on_c, 1, 46, 62
3, 50304, Note_on_c, 1, 39, 0
3, 50394, Note_on_c, 1, 46, 0
3, 50497, Note_on_c, 1, 39, 38
3, 50526, Note_on_c, 1, 39, 0
3, 50528, Note_on_c, 1, 44, 55
3, 50612, Note_on_c, 1, 39, 25
3, 50633, Note_on_c, 1, 39, 0
3, 50647, Note_on_c, 1, 44, 0
3, 50647, Note_on_c, 1, 46, 60
3, 50729, Note_on_c, 1, 39, 45
3, 50744, Note_on_c, 1, 46, 0
3, 50756, Note_on_c, 1, 39, 0
3, 50766, Note_on_c, 1, 43, 50
3, 50872, Note_on_c, 1, 43, 0
3, 50885, Note_on_c, 1, 44, 51
3, 51002, Note_on_c, 1, 39, 47
3, 51005, Note_on_c, 1, 44, 0
3, 51125, Note_on_c, 1, 39, 0
3, 51126, Note_on_c, 1, 32, 49
3, 51218, Note_on_c, 1, 39, 38
3, 51234, Note_on_c, 1, 32, 0
3, 51242, Note_on_c, 1, 50, 73
3, 51256, Note_on_c, 1, 39, 0
3, 51348, Note_on_c, 1, 50, 0
3, 51365, Note_on_c, 1, 49, 50
3, 51483, Note_on_c, 1, 44, 60
3, 51486, Note_on_c, 1, 49, 0
3, 51596, Note_on_c, 1, 44, 0
3, 51607, Note_on_c, 1, 37, 47
3, 51710, Note_on_c, 1, 37, 0
3, 51723, Note_on_c, 1, 42, 75
3, 51827, Note_on_c, 1, 42, 0
3, 51843, Note_on_c, 1, 43, 68
3, 51947, Note_on_c, 1, 43, 0
3, 51959, Note_on_c, 1, 37, 72
3, 52065, Note_on_c, 1, 37, 0
3, 52080, Note_on_c, 1, 36, 56
3, 52201, Note_on_c, 1, 42, 82
3, 52207, Note_on_c, 1, 36, 0
3, 52306, Note_on_c, 1, 42, 0
3, 52323, Note_on_c, 1, 41, 64
3, 52436, Note_on_c, 1, 34, 73
3, 52446, Note_on_c, 1, 41, 0
3, 52564, Note_on_c, 1, 46, 67
3, 52663, Note_on_c, 1, 46, 0
3, 52679, Note_on_c, 1, 46, 79
3, 52709, Note_on_c, 1, 34, 0
3, 52803, Note_on_c, 1, 34, 77
3, 52846, Note_on_c, 1, 46, 0
3, 52922, Note_on_c, 1, 46, 87
3, 53020, Note_on_c, 1, 46, 0
3, 53045, Note_on_c, 1, 46, 87
3, 53084, Note_on_c, 1, 34, 0
3, 53162, Note_on_c, 1, 34, 85
3, 53176, Note_on_c, 1, 46, 0
3, 53280, Note_on_c, 1, 46, 91
3, 53297, Note_on_c, 1, 34, 0
3, 53380, Note_on_c, 1, 46, 0
3, 53400, Note_on_c, 1, 46, 85
3, 53511, Note_on_c, 1, 46, 0
3, 53520, Note_on_c, 1, 37, 68
3, 53545, Note_on_c, 1, 37, 0
3, 53602, Note_on_c, 1, 37, 50
3, 53633, Note_on_c, 1, 37, 0
3, 53638, Note_on_c, 1, 38, 60
3, 53756, Note_on_c, 1, 38, 0
3, 53766, Note_on_c, 1, 39, 50
3, 53884, Note_on_c, 1, 39, 0
3, 53885, Note_on_c, 1, 41, 51
3, 53997, Note_on_c, 1, 41, 0
3, 54004, Note_on_c, 1, 42, 50
3, 54120, Note_on_c, 1, 42, 0
3, 54122, Note_on_c, 1, 43, 60
3, 54232, Note_on_c, 1, 43, 0
3, 54244, Note_on_c, 1, 44, 69
3, 54359, Note_on_c, 1, 44, 0
3, 54359, Note_on_c, 1, 46, 62
3, 54485, Note_on_c, 1, 46, 0
3, 54485, Note_on_c, 1, 47, 67
3, 54590, Note_on_c, 1, 47, 0
3, 54605, Note_on_c, 1, 43, 48
3, 54681, Note_on_c, 1, 39, 39
3, 54693, Note_on_c, 1, 43, 0
3, 54707, Note_on_c, 1, 39, 0
3, 54721, Note_on_c, 1, 48, 68
3, 54822, Note_on_c, 1, 48, 0
3, 54838, Note_on_c, 1, 42, 56
3, 54947, Note_on_c, 1, 42, 0
3, 54965, Note_on_c, 1, 41, 48
3, 55074, Note_on_c, 1, 41, 0
3, 55076, Note_on_c, 1, 33, 57
3, 55200, Note_on_c, 1, 33, 0
3, 55202, Note_on_c, 1, 34, 56
3, 55325, Note_on_c, 1, 38, 53
3, 55332, Note_on_c, 1, 34, 0
3, 55406, Note_on_c, 1, 38, 0
3, 55407, Note_on_c, 1, 34, 33
3, 55418, Note_on_c, 1, 34, 0
3, 55439, Note_on_c, 1, 39, 56
3, 55562, Note_on_c, 1, 39, 0
3, 55563, Note_on_c, 1, 33, 58
3, 55677, Note_on_c, 1, 33, 0
3, 55683, Note_on_c, 1, 32, 60
3, 55806, Note_on_c, 1, 39, 81
3, 55808, Note_on_c, 1, 32, 0
3, 55900, Note_on_c, 1, 32, 45
3, 55913, Note_on_c, 1, 39, 0
3, 55928, Note_on_c, 1, 32, 0
3, 55933, Note_on_c, 1, 48, 74
3, 56036, Note_on_c, 1, 48, 0
3, 56049, Note_on_c, 1, 42, 73
3, 56157, Note_on_c, 1, 42, 0
3, 56174, Note_on_c, 1, 43, 66
3, 56289, Note_on_c, 1, 43, 0
3, 56294, Note_on_c, 1, 37, 88
3, 56409, Note_on_c, 1, 37, 0
3, 56414, Note_on_c, 1, 36, 70
3, 56530, Note_on_c, 1, 48, 90
3, 56531, Note_on_c, 1, 36, 0
3, 56633, Note_on_c, 1, 48, 0
3, 56654, Note_on_c, 1, 41, 41
3, 56662, Note_on_c, 1, 43, 30
3, 56705, Note_on_c, 1, 43, 0
3, 56740, Note_on_c, 1, 41, 0
3, 56766, Note_on_c, 1, 41, 59
3, 56875, Note_on_c, 1, 41, 0
3, 56890, Note_on_c, 1, 36, 63
3, 56989, Note_on_c, 1, 36, 0
3, 56999, Note_on_c, 1, 35, 68
3, 57110, Note_on_c, 1, 35, 0
3, 57123, Note_on_c, 1, 34, 63
3, 57220, Note_on_c, 1, 34, 0
3, 57244, Note_on_c, 1, 34, 76
3, 57360, Note_on_c, 1, 46, 88
3, 57367, Note_on_c, 1, 34, 0
3, 57480, Note_on_c, 1, 38, 68
3, 57483, Note_on_c, 1, 46, 0
3, 57596, Note_on_c, 1, 38, 0
3, 57602, Note_on_c, 1, 39, 69
3, 57699, Note_on_c, 1, 39, 0
3, 57716, Note_on_c, 1, 39, 80
3, 57840, Note_on_c, 1, 53, 95
3, 57859, Note_on_c, 1, 39, 0
3, 57930, Note_on_c, 1, 39, 49
3, 57948, Note_on_c, 1, 53, 0
3, 57953, Note_on_c, 1, 39, 0
3, 57965, Note_on_c, 1, 51, 76
3, 58096, Note_on_c, 1, 46, 44
3, 58099, Note_on_c, 1, 51, 0
3, 58117, Note_on_c, 1, 46, 0
3, 58175, Note_on_c, 1, 42, 27
3, 58186, Note_on_c, 1, 42, 0
3, 58196, Note_on_c, 1, 46, 54
3, 58312, Note_on_c, 1, 46, 0
3, 58322, Note_on_c, 1, 45, 60
3, 58412, Note_on_c, 1, 45, 0
3, 58414, Note_on_c, 1, 39, 25
3, 58427, Note_on_c, 1, 39, 0
3, 58439, Note_on_c, 1, 45, 70
3, 58544, Note_on_c, 1, 45, 0
3, 58557, Note_on_c, 1, 44, 48
3, 58680, Note_on_c, 1, 39, 57
3, 58682, Note_on_c, 1, 44, 0
3, 58807, Note_on_c, 1, 32, 52
3, 58808, Note_on_c, 1, 39, 0
3, 58918, Note_on_c, 1, 32, 0
3, 58922, Note_on_c, 1, 38, 63
3, 59012, Note_on_c, 1, 38, 0
3, 59048, Note_on_c, 1, 37, 62
3, 59143, Note_on_c, 1, 37, 0
3, 59165, Note_on_c, 1, 37, 55
3, 59287, Note_on_c, 1, 37, 0
3, 59287, Note_on_c, 1, 32, 59
3, 59395, Note_on_c, 1, 32, 0
3, 59412, Note_on_c, 1, 32, 71
3, 59518, Note_on_c, 1, 32, 0
3, 59529, Note_on_c, 1, 31, 59
3, 59656, Note_on_c, 1, 37, 68
3, 59690, Note_on_c, 1, 31, 0
3, 59757, Note_on_c, 1, 37, 0
3, 59773, Note_on_c, 1, 34, 52
3, 59879, Note_on_c, 1, 34, 0
3, 59891, Note_on_c, 1, 35, 60
3, 60001, Note_on_c, 1, 35, 0
3, 60007, Note_on_c, 1, 36, 52
3, 60094, Note_on_c, 1, 34, 44
3, 60102, Note_on_c, 1, 36, 0
3, 60123, Note_on_c, 1, 38, 47
3, 60128, Note_on_c, 1, 34, 0
3, 60232, Note_on_c, 1, 38, 0
3, 60240, Note_on_c, 1, 39, 52
3, 60358, Note_on_c, 1, 40, 57
3, 60359, Note_on_c, 1, 39, 0
3, 60468, Note_on_c, 1, 40, 0
3, 60490, Note_on_c, 1, 41, 70
3, 60594, Note_on_c, 1, 41, 0
3, 60606, Note_on_c, 1, 43, 66
3, 60709, Note_on_c, 1, 43, 0
3, 60733, Note_on_c, 1, 44, 62
3, 60850, Note_on_c, 1, 44, 0
3, 60851, Note_on_c, 1, 46, 53
3, 60962, Note_on_c, 1, 46, 0
3, 60969, Note_on_c, 1, 47, 42
3, 61050, Note_on_c, 1, 40, 39
3, 61066, Note_on_c, 1, 40, 0
3, 61076, Note_on_c, 1, 47, 0
3, 61087, Note_on_c, 1, 52, 62
3, 61169, Note_on_c, 1, 40, 22
3, 61184, Note_on_c, 1, 40, 0
3, 61198, Note_on_c, 1, 52, 0
3, 61204, Note_on_c, 1, 44, 45
3, 61277, Note_on_c, 1, 40, 26
3, 61307, Note_on_c, 1, 40, 0
3, 61308, Note_on_c, 1, 44, 0
3, 61326, Note_on_c, 1, 46, 53
3, 61443, Note_on_c, 1, 46, 0
3, 61443, Note_on_c, 1, 39, 50
3, 61576, Note_on_c, 1, 39, 0
3, 61576, Note_on_c, 1, 43, 14
3, 61625, Note_on_c, 1, 39, 40
3, 61662, Note_on_c, 1, 43, 0
3, 61666, Note_on_c, 1, 39, 0
3, 61678, Note_on_c, 1, 55, 61
3, 61769, Note_on_c, 1, 55, 0
3, 61772, Note_on_c, 1, 39, 29
3, 61789, Note_on_c, 1, 39, 0
3, 61797, Note_on_c, 1, 54, 55
3, 61887, Note_on_c, 1, 42, 30
3, 61905, Note_on_c, 1, 42, 0
3, 61914, Note_on_c, 1, 54, 0
3, 61928, Note_on_c, 1, 50, 62
3, 62025, Note_on_c, 1, 50, 0
3, 62045, Note_on_c, 1, 44, 51
3, 62156, Note_on_c, 1, 44, 0
3, 62162, Note_on_c, 1, 43, 44
3, 62264, Note_on_c, 1, 42, 21
3, 62283, Note_on_c, 1, 42, 0
3, 62285, Note_on_c, 1, 43, 0
3, 62285, Note_on_c, 1, 53, 91
3, 62381, Note_on_c, 1, 53, 0
3, 62404, Note_on_c, 1, 51, 70
3, 62494, Note_on_c, 1, 47, 29
3, 62508, Note_on_c, 1, 51, 0
3, 62509, Note_on_c, 1, 47, 0
3, 62525, Note_on_c, 1, 50, 62
3, 62622, Note_on_c, 1, 50, 0
3, 62645, Note_on_c, 1, 48, 54
3, 62743, Note_on_c, 1, 48, 0
3, 62755, Note_on_c, 1, 41, 55
3, 62871, Note_on_c, 1, 41, 0
3, 62879, Note_on_c, 1, 46, 69
3, 62990, Note_on_c, 1, 46, 0
3, 62999, Note_on_c, 1, 38, 51
3, 63109, Note_on_c, 1, 38, 0
3, 63123, Note_on_c, 1, 39, 72
3, 63170, Note_on_c, 1, 39, 0
3, 63201, Note_on_c, 1, 39, 57
3, 63227, Note_on_c, 1, 39, 0
3, 63243, Note_on_c, 1, 43, 64
3, 63342, Note_on_c, 1, 43, 0
3, 63363, Note_on_c, 1, 44, 56
3, 63413, Note_on_c, 1, 44, 0
3, 63440, Note_on_c, 1, 44, 57
3, 63472, Note_on_c, 1, 44, 0
3, 63481, Note_on_c, 1, 32, 59
3, 63593, Note_on_c, 1, 32, 0
3, 63607, Note_on_c, 1, 44, 59
3, 63707, Note_on_c, 1, 44, 0
3, 63720, Note_on_c, 1, 42, 75
3, 63818, Note_on_c, 1, 42, 0
3, 63843, Note_on_c, 1, 43, 62
3, 63941, Note_on_c, 1, 43, 0
3, 63960, Note_on_c, 1, 37, 60
3, 64067, Note_on_c, 1, 37, 0
3, 64080, Note_on_c, 1, 36, 48
3, 64190, Note_on_c, 1, 36, 0
3, 64198, Note_on_c, 1, 40, 56
3, 64308, Note_on_c, 1, 40, 0
3, 64321, Note_on_c, 1, 41, 60
3, 64385, Note_on_c, 1, 41, 0
3, 64404, Note_on_c, 1, 37, 53
3, 64428, Note_on_c, 1, 37, 0
3, 64444, Note_on_c, 1, 38, 47
3, 64557, Note_on_c, 1, 38, 0
3, 64565, Note_on_c, 1, 36, 59
3, 64670, Note_on_c, 1, 36, 0
3, 64687, Note_on_c, 1, 33, 48
3, 64793, Note_on_c, 1, 33, 0
3, 64811, Note_on_c, 1, 34, 59
3, 64872, Note_on_c, 1, 34, 0
3, 64892, Note_on_c, 1, 34, 57
3, 64927, Note_on_c, 1, 46, 79
3, 64937, Note_on_c, 1, 34, 0
3, 65046, Note_on_c, 1, 44, 51
3, 65066, Note_on_c, 1, 46, 0
3, 65146, Note_on_c, 1, 44, 0
3, 65160, Note_on_c, 1, 38, 61
3, 65257, Note_on_c, 1, 38, 0
3, 65282, Note_on_c, 1, 39, 64
3, 65405, Note_on_c, 1, 53, 85
3, 65416, Note_on_c, 1, 39, 0
3, 65530, Note_on_c, 1, 53, 0
3, 65533, Note_on_c, 1, 51, 42
3, 65650, Note_on_c, 1, 50, 53
3, 65671, Note_on_c, 1, 51, 0
3, 65727, Note_on_c, 1, 50, 0
3, 65768, Note_on_c, 1, 46, 39
3, 65861, Note_on_c, 1, 44, 25
3, 65886, Note_on_c, 1, 46, 0
3, 65886, Note_on_c, 1, 51, 71
3, 65899, Note_on_c, 1, 44, 0
3, 66006, Note_on_c, 1, 39, 42
3, 66102, Note_on_c, 1, 39, 0
3, 66125, Note_on_c, 1, 39, 50
3, 66134, Note_on_c, 1, 51, 0
3, 66248, Note_on_c, 1, 44, 49
3, 66251, Note_on_c, 1, 39, 0
3, 66357, Note_on_c, 1, 44, 0
3, 66373, Note_on_c, 1, 44, 64
3, 66472, Note_on_c, 1, 44, 0
3, 66511, Note_on_c, 1, 38, 39
3, 66560, Note_on_c, 1, 38, 0
3, 66605, Note_on_c, 1, 38, 61
3, 66688, Note_on_c, 1, 38, 0
3, 66737, Note_on_c, 1, 37, 47
3, 66805, Note_on_c, 1, 37, 0
3, 66846, Note_on_c, 1, 37, 50
3, 66961, Note_on_c, 1, 37, 0
3, 66965, Note_on_c, 1, 44, 57
3, 67084, Note_on_c, 1, 42, 51
3, 67100, Note_on_c, 1, 44, 0
3, 67192, Note_on_c, 1, 42, 0
3, 67200, Note_on_c, 1, 43, 55
3, 67287, Note_on_c, 1, 43, 0
3, 67321, Note_on_c, 1, 43, 47
3, 67434, Note_on_c, 1, 43, 0
3, 67441, Note_on_c, 1, 36, 52
3, 67533, Note_on_c, 1, 36, 0
3, 67562, Note_on_c, 1, 41, 80
3, 67670, Note_on_c, 1, 41, 0
3, 67689, Note_on_c, 1, 41, 77
3, 67799, Note_on_c, 1, 41, 0
3, 67803, Note_on_c, 1, 34, 74
3, 67925, Note_on_c, 1, 46, 61
3, 68032, Note_on_c, 1, 46, 0
3, 68047, Note_on_c, 1, 46, 61
3, 68052, Note_on_c, 1, 34, 0
3, 68164, Note_on_c, 1, 39, 71
3, 68171, Note_on_c, 1, 46, 0
3, 68272, Note_on_c, 1, 39, 0
3, 68291, Note_on_c, 1, 39, 72
3, 68480, Note_on_c, 1, 53, 60
3, 68486, Note_on_c, 1, 37, 55
3, 68492, Note_on_c, 1, 39, 0
3, 68538, Note_on_c, 1, 53, 0
3, 68547, Note_on_c, 1, 37, 0
3, 68559, Note_on_c, 1, 54, 56
3, 68562, Note_on_c, 1, 38, 51
3, 68637, Note_on_c, 1, 54, 0
3, 68650, Note_on_c, 1, 55, 58
3, 68659, Note_on_c, 1, 38, 0
3, 68659, Note_on_c, 1, 39, 60
3, 68887, Note_on_c, 1, 39, 0
3, 68887, Note_on_c, 1, 55, 0
3, 68889, Note_on_c, 1, 48, 85
3, 69064, Note_on_c, 1, 48, 0
3, 69075, Note_on_c, 1, 43, 50
3, 69105, Note_on_c, 1, 43, 0
3, 69128, Note_on_c, 1, 41, 64
3, 69319, Note_on_c, 1, 41, 0
3, 69320, Note_on_c, 1, 33, 37
3, 69336, Note_on_c, 1, 33, 0
3, 69360, Note_on_c, 1, 34, 54
3, 69485, Note_on_c, 1, 42, 77
3, 69504, Note_on_c, 1, 34, 0
3, 69588, Note_on_c, 1, 42, 0
3, 69605, Note_on_c, 1, 43, 57
3, 69708, Note_on_c, 1, 43, 0
3, 69724, Note_on_c, 1, 37, 56
3, 69835, Note_on_c, 1, 37, 0
3, 69841, Note_on_c, 1, 36, 52
3, 69929, Note_on_c, 1, 34, 46
3, 69944, Note_on_c, 1, 36, 0
3, 69960, Note_on_c, 1, 42, 69
3, 69966, Note_on_c, 1, 34, 0
3, 70081, Note_on_c, 1, 42, 0
3, 70085, Note_on_c, 1, 41, 60
3, 70153, Note_on_c, 1, 41, 0
3, 70170, Note_on_c, 1, 36, 56
3, 70190, Note_on_c, 1, 36, 0
3, 70207, Note_on_c, 1, 33, 53
3, 70317, Note_on_c, 1, 33, 0
3, 70326, Note_on_c, 1, 36, 65
3, 70434, Note_on_c, 1, 36, 0
3, 70448, Note_on_c, 1, 34, 77
3, 70684, Note_on_c, 1, 39, 81
3, 70687, Note_on_c, 1, 34, 0
3, 70883, Note_on_c, 1, 34, 51
3, 70907, Note_on_c, 1, 39, 0
3, 70922, Note_on_c, 1, 51, 77
3, 70930, Note_on_c, 1, 34, 0
3, 71028, Note_on_c, 1, 51, 0
3, 71061, Note_on_c, 1, 45, 35
3, 71075, Note_on_c, 1, 45, 0
3, 71136, Note_on_c, 1, 45, 75
3, 71280, Note_on_c, 1, 45, 0
3, 71286, Note_on_c, 1, 50, 81
3, 71381, Note_on_c, 1, 50, 0
3, 71404, Note_on_c, 1, 38, 41
3, 71516, Note_on_c, 1, 38, 0
3, 71526, Note_on_c, 1, 43, 53
3, 71624, Note_on_c, 1, 43, 0
3, 71641, Note_on_c, 1, 37, 45
3, 71744, Note_on_c, 1, 37, 0
3, 71765, Note_on_c, 1, 36, 33
3, 71866, Note_on_c, 1, 36, 0
3, 71879, Note_on_c, 1, 40, 45
3, 71982, Note_on_c, 1, 40, 0
3, 71995, Note_on_c, 1, 41, 62
3, 72094, Note_on_c, 1, 41, 0
3, 72110, Note_on_c, 1, 41, 49
3, 72241, Note_on_c, 1, 53, 90
3, 72260, Note_on_c, 1, 41, 0
3, 72441, Note_on_c, 1, 41, 38
3, 72472, Note_on_c, 1, 41, 0
3, 72472, Note_on_c, 1, 53, 0
3, 72487, Note_on_c, 1, 34, 49
3, 72590, Note_on_c, 1, 34, 0
3, 72597, Note_on_c, 1, 58, 77
3, 72691, Note_on_c, 1, 42, 30
3, 72712, Note_on_c, 1, 58, 0
3, 72715, Note_on_c, 1, 42, 0
3, 72725, Note_on_c, 1, 56, 59
3, 72809, Note_on_c, 1, 56, 0
3, 72835, Note_on_c, 1, 54, 49
3, 72949, Note_on_c, 1, 54, 0
3, 72969, Note_on_c, 1, 55, 54
3, 73076, Note_on_c, 1, 55, 0
3, 73085, Note_on_c, 1, 50, 58
3, 73181, Note_on_c, 1, 50, 0
3, 73202, Note_on_c, 1, 51, 69
3, 73316, Note_on_c, 1, 51, 0
3, 73329, Note_on_c, 1, 49, 77
3, 73442, Note_on_c, 1, 49, 0
3, 73449, Note_on_c, 1, 50, 67
3, 73555, Note_on_c, 1, 50, 0
3, 73566, Note_on_c, 1, 44, 79
3, 73678, Note_on_c, 1, 44, 0
3, 73688, Note_on_c, 1, 43, 58
3, 73793, Note_on_c, 1, 43, 0
3, 73804, Note_on_c, 1, 38, 74
3, 73915, Note_on_c, 1, 38, 0
3, 73932, Note_on_c, 1, 36, 58
3, 74017, Note_on_c, 1, 38, 54
3, 74028, Note_on_c, 1, 38, 0
3, 74035, Note_on_c, 1, 36, 0
3, 74046, Note_on_c, 1, 48, 58
3, 74153, Note_on_c, 1, 48, 0
3, 74170, Note_on_c, 1, 41, 47
3, 74286, Note_on_c, 1, 41, 0
3, 74289, Note_on_c, 1, 33, 54
3, 74401, Note_on_c, 1, 33, 0
3, 74410, Note_on_c, 1, 34, 62
3, 74522, Note_on_c, 1, 34, 0
3, 74524, Note_on_c, 1, 38, 53
3, 74638, Note_on_c, 1, 38, 0
3, 74643, Note_on_c, 1, 39, 60
3, 74741, Note_on_c, 1, 39, 0
3, 74762, Note_on_c, 1, 39, 68
3, 74876, Note_on_c, 1, 39, 0
3, 74892, Note_on_c, 1, 32, 52
3, 75011, Note_on_c, 1, 39, 67
3, 75013, Note_on_c, 1, 32, 0
3, 75127, Note_on_c, 1, 48, 87
3, 75128, Note_on_c, 1, 39, 0
3, 75247, Note_on_c, 1, 48, 0
3, 75249, Note_on_c, 1, 42, 64
3, 75368, Note_on_c, 1, 42, 0
3, 75372, Note_on_c, 1, 43, 67
3, 75484, Note_on_c, 1, 43, 0
3, 75490, Note_on_c, 1, 49, 92
3, 75598, Note_on_c, 1, 49, 0
3, 75676, Note_on_c, 1, 48, 80
3, 75698, Note_on_c, 1, 48, 0
3, 75722, Note_on_c, 1, 43, 60
3, 75801, Note_on_c, 1, 43, 0
3, 75837, Note_on_c, 1, 41, 62
3, 75946, Note_on_c, 1, 41, 0
3, 75957, Note_on_c, 1, 36, 51
3, 76063, Note_on_c, 1, 36, 0
3, 76081, Note_on_c, 1, 33, 51
3, 76181, Note_on_c, 1, 33, 0
3, 76195, Note_on_c, 1, 33, 45
3, 76303, Note_on_c, 1, 33, 0
3, 76325, Note_on_c, 1, 34, 53
3, 76446, Note_on_c, 1, 46, 70
3, 76547, Note_on_c, 1, 46, 0
3, 76559, Note_on_c, 1, 34, 0
3, 76567, Note_on_c, 1, 46, 57
3, 76636, Note_on_c, 1, 38, 80
3, 76663, Note_on_c, 1, 46, 0
3, 76778, Note_on_c, 1, 38, 0
3, 76805, Note_on_c, 1, 39, 69
3, 76928, Note_on_c, 1, 39, 0
3, 76928, Note_on_c, 1, 41, 66
3, 77010, Note_on_c, 1, 41, 0
3, 77042, Note_on_c, 1, 43, 57
3, 77157, Note_on_c, 1, 43, 0
3, 77164, Note_on_c, 1, 39, 60
3, 77256, Note_on_c, 1, 41, 31
3, 77271, Note_on_c, 1, 41, 0
3, 77284, Note_on_c, 1, 39, 0
3, 77284, Note_on_c, 1, 46, 69
3, 77401, Note_on_c, 1, 46, 0
3, 77401, Note_on_c, 1, 38, 61
3, 77514, Note_on_c, 1, 38, 0
3, 77527, Note_on_c, 1, 39, 56
3, 77638, Note_on_c, 1, 39, 0
3, 77651, Note_on_c, 1, 33, 76
3, 77737, Note_on_c, 1, 33, 0
3, 77761, Note_on_c, 1, 32, 71
3, 77861, Note_on_c, 1, 32, 0
3, 77885, Note_on_c, 1, 32, 56
3, 78001, Note_on_c, 1, 32, 0
3, 78008, Note_on_c, 1, 39, 64
3, 78104, Note_on_c, 1, 39, 0
3, 78125, Note_on_c, 1, 39, 69
3, 78224, Note_on_c, 1, 39, 0
3, 78243, Note_on_c, 1, 37, 65
3, 78356, Note_on_c, 1, 53, 96
3, 78366, Note_on_c, 1, 37, 0
3, 78489, Note_on_c, 1, 41, 74
3, 78493, Note_on_c, 1, 53, 0
3, 78584, Note_on_c, 1, 41, 0
3, 78600, Note_on_c, 1, 42, 69
3, 78702, Note_on_c, 1, 42, 0
3, 78719, Note_on_c, 1, 43, 60
3, 78826, Note_on_c, 1, 43, 0
3, 78841, Note_on_c, 1, 37, 61
3, 78955, Note_on_c, 1, 37, 0
3, 78967, Note_on_c, 1, 36, 55
3, 79084, Note_on_c, 1, 36, 0
3, 79092, Note_on_c, 1, 30, 68
3, 79208, Note_on_c, 1, 30, 0
3, 79218, Note_on_c, 1, 29, 51
3, 79318, Note_on_c, 1, 29, 0
3, 79330, Note_on_c, 1, 36, 79
3, 79438, Note_on_c, 1, 36, 0
3, 79455, Note_on_c, 1, 34, 51
3, 79536, Note_on_c, 1, 38, 53
3, 79547, Note_on_c, 1, 38, 0
3, 79560, Note_on_c, 1, 34, 0
3, 79571, Note_on_c, 1, 46, 74
3, 80044, Note_on_c, 1, 34, 82
3, 80055, Note_on_c, 1, 46, 0
3, 80394, Note_on_c, 1, 34, 0
3, 80407, Note_on_c, 1, 46, 33
3, 80446, Note_on_c, 1, 46, 0
3, 80516, Note_on_c, 1, 46, 55
3, 80581, Note_on_c, 1, 46, 0
3, 80641, Note_on_c, 1, 39, 56
3, 80687, Note_on_c, 1, 39, 0
3, 80764, Note_on_c, 1, 39, 56
3, 81124, Note_on_c, 1, 39, 0
3, 81127, Note_on_c, 1, 38, 56
3, 81379, Note_on_c, 1, 43, 58
3, 81404, Note_on_c, 1, 38, 0
3, 81598, Note_on_c, 1, 43, 0
3, 81608, Note_on_c, 1, 48, 59
3, 81850, Note_on_c, 1, 48, 0
3, 81852, Note_on_c, 1, 41, 58
3, 82238, Note_on_c, 1, 46, 78
3, 82247, Note_on_c, 1, 41, 0
3, 82444, Note_on_c, 1, 46, 0
3, 82449, Note_on_c, 1, 39, 55
3, 82565, Note_on_c, 1, 39, 0
3, 82565, Note_on_c, 1, 32, 56
3, 82660, Note_on_c, 1, 32, 0
3, 82690, Note_on_c, 1, 32, 59
3, 83042, Note_on_c, 1, 43, 54
3, 83044, Note_on_c, 1, 32, 0
3, 83268, Note_on_c, 1, 43, 0
3, 83285, Note_on_c, 1, 48, 55
3, 83526, Note_on_c, 1, 48, 0
3, 83530, Note_on_c, 1, 41, 58
3, 83552, Note_on_c, 1, 41, 0
3, 83596, Note_on_c, 1, 43, 39
3, 83631, Note_on_c, 1, 43, 0
3, 83646, Note_on_c, 1, 45, 51
3, 83892, Note_on_c, 1, 41, 51
3, 83895, Note_on_c, 1, 45, 0
3, 84000, Note_on_c, 1, 41, 0
3, 84010, Note_on_c, 1, 29, 45
3, 84065, Note_on_c, 1, 29, 0
3, 84086, Note_on_c, 1, 31, 55
3, 84123, Note_on_c, 1, 31, 0
3, 84127, Note_on_c, 1, 32, 75
3, 84249, Note_on_c, 1, 34, 74
3, 84251, Note_on_c, 1, 32, 0
3, 84491, Note_on_c, 1, 34, 0
3, 84492, Note_on_c, 1, 39, 79
3, 84594, Note_on_c, 1, 39, 0
3, 84615, Note_on_c, 1, 39, 74
3, 84960, Note_on_c, 1, 46, 86
3, 84976, Note_on_c, 1, 39, 0
3, 85197, Note_on_c, 1, 46, 0
3, 85203, Note_on_c, 1, 33, 81
3, 85431, Note_on_c, 1, 33, 0
3, 85442, Note_on_c, 1, 32, 70
3, 85512, Note_on_c, 1, 32, 0
3, 85559, Note_on_c, 1, 32, 75
3, 85798, Note_on_c, 1, 39, 72
3, 85817, Note_on_c, 1, 32, 0
3, 85906, Note_on_c, 1, 39, 0
3, 85924, Note_on_c, 1, 37, 60
3, 86045, Note_on_c, 1, 53, 73
3, 86374, Note_on_c, 1, 53, 0
3, 86404, Note_on_c, 1, 37, 0
3, 86410, Note_on_c, 1, 43, 62
3, 86716, Note_on_c, 1, 45, 55
3, 86740, Note_on_c, 1, 45, 0
3, 86745, Note_on_c, 1, 43, 0
3, 86764, Note_on_c, 1, 46, 38
3, 86822, Note_on_c, 1, 46, 0
3, 86835, Note_on_c, 1, 49, 72
3, 86875, Note_on_c, 1, 49, 0
3, 86888, Note_on_c, 1, 48, 74
3, 87064, Note_on_c, 1, 46, 51
3, 87066, Note_on_c, 1, 48, 0
3, 87121, Note_on_c, 1, 46, 0
3, 87139, Note_on_c, 1, 44, 54
3, 87291, Note_on_c, 1, 44, 0
3, 87303, Note_on_c, 1, 43, 57
3, 87348, Note_on_c, 1, 43, 0
3, 87366, Note_on_c, 1, 44, 56
3, 87441, Note_on_c, 1, 43, 59
3, 87459, Note_on_c, 1, 44, 0
3, 87476, Note_on_c, 1, 43, 0
3, 87490, Note_on_c, 1, 41, 55
3, 87715, Note_on_c, 1, 41, 0
3, 87723, Note_on_c, 1, 34, 67
3, 87968, Note_on_c, 1, 34, 0
3, 87970, Note_on_c, 1, 38, 82
3, 88197, Note_on_c, 1, 38, 0
3, 88202, Note_on_c, 1, 41, 66
3, 88262, Note_on_c, 1, 41, 0
3, 88284, Note_on_c, 1, 38, 49
3, 88328, Note_on_c, 1, 38, 0
3, 88332, Note_on_c, 1, 39, 64
3, 88451, Note_on_c, 1, 41, 60
3, 88454, Note_on_c, 1, 39, 0
3, 88567, Note_on_c, 1, 41, 0
3, 88571, Note_on_c, 1, 43, 67
3, 88807, Note_on_c, 1, 38, 80
3, 88808, Note_on_c, 1, 43, 0
3, 89045, Note_on_c, 1, 38, 0
3, 89050, Note_on_c, 1, 43, 71
3, 89274, Note_on_c, 1, 43, 0
3, 89288, Note_on_c, 1, 36, 67
3, 89522, Note_on_c, 1, 36, 0
3, 89528, Note_on_c, 1, 41, 69
3, 89779, Note_on_c, 1, 41, 0
3, 89888, Note_on_c, 1, 34, 67
3, 90118, Note_on_c, 1, 51, 49
3, 90182, Note_on_c, 1, 34, 0
3, 90358, Note_on_c, 1, 44, 56
3, 90371, Note_on_c, 1, 51, 0
3, 90598, Note_on_c, 1, 55, 81
3, 90622, Note_on_c, 1, 44, 0
3, 90717, Note_on_c, 1, 55, 0
3, 90724, Note_on_c, 1, 43, 71
3, 90966, Note_on_c, 1, 43, 0
3, 90971, Note_on_c, 1, 48, 96
3, 91090, Note_on_c, 1, 48, 0
3, 91092, Note_on_c, 1, 36, 79
3, 91211, Note_on_c, 1, 36, 0
3, 91216, Note_on_c, 1, 41, 83
3, 91311, Note_on_c, 1, 41, 0
3, 91332, Note_on_c, 1, 41, 78
3, 91562, Note_on_c, 1, 34, 70
3, 91564, Note_on_c, 1, 41, 0
3, 91653, Note_on_c, 1, 34, 0
3, 91681, Note_on_c, 1, 34, 68
3, 91915, Note_on_c, 1, 46, 77
3, 91932, Note_on_c, 1, 34, 0
3, 92280, Note_on_c, 1, 34, 73
3, 92289, Note_on_c, 1, 46, 0
3, 92526, Note_on_c, 1, 46, 69
3, 92679, Note_on_c, 1, 34, 0
3, 92735, Note_on_c, 1, 46, 0
3, 92768, Note_on_c, 1, 46, 76
3, 92993, Note_on_c, 1, 46, 0
3, 93008, Note_on_c, 1, 45, 67
3, 93121, Note_on_c, 1, 45, 0
3, 93129, Note_on_c, 1, 44, 61
3, 93322, Note_on_c, 1, 55, 74
3, 93359, Note_on_c, 1, 44, 0
3, 93361, Note_on_c, 1, 55, 0
3, 93376, Note_on_c, 1, 51, 53
3, 93562, Note_on_c, 1, 50, 71
3, 93599, Note_on_c, 1, 50, 0
3, 93602, Note_on_c, 1, 51, 0
3, 93623, Note_on_c, 1, 49, 44
3, 93794, Note_on_c, 1, 44, 39
3, 93828, Note_on_c, 1, 44, 0
3, 93833, Note_on_c, 1, 49, 0
3, 93843, Note_on_c, 1, 37, 51
3, 94034, Note_on_c, 1, 37, 0
3, 94097, Note_on_c, 1, 43, 58
3, 94200, Note_on_c, 1, 43, 0
3, 94204, Note_on_c, 1, 36, 71
3, 94560, Note_on_c, 1, 36, 0
3, 94568, Note_on_c, 1, 41, 72
3, 94683, Note_on_c, 1, 41, 0
3, 94689, Note_on_c, 1, 46, 83
3, 94801, Note_on_c, 1, 34, 62
3, 94809, Note_on_c, 1, 46, 0
3, 94901, Note_on_c, 1, 34, 0
3, 94919, Note_on_c, 1, 34, 64
3, 95165, Note_on_c, 1, 34, 0
3, 95165, Note_on_c, 1, 39, 75
3, 95393, Note_on_c, 1, 39, 0
3, 95400, Note_on_c, 1, 37, 70
3, 95629, Note_on_c, 1, 37, 0
3, 95644, Note_on_c, 1, 39, 80
3, 95819, Note_on_c, 1, 39, 0
3, 95841, Note_on_c, 1, 48, 82
3, 95860, Note_on_c, 1, 48, 0
3, 95883, Note_on_c, 1, 40, 70
3, 96007, Note_on_c, 1, 40, 0
3, 96012, Note_on_c, 1, 41, 57
3, 96125, Note_on_c, 1, 41, 0
3, 96132, Note_on_c, 1, 43, 46
3, 96216, Note_on_c, 1, 43, 0
3, 96251, Note_on_c, 1, 44, 47
3, 96353, Note_on_c, 1, 44, 0
3, 96364, Note_on_c, 1, 45, 31
3, 96455, Note_on_c, 1, 45, 0
3, 96564, Note_on_c, 1, 39, 50
3, 96574, Note_on_c, 1, 39, 0
3, 96603, Note_on_c, 1, 46, 57
3, 96716, Note_on_c, 1, 46, 0
3, 96733, Note_on_c, 1, 48, 60
3, 96838, Note_on_c, 1, 48, 0
3, 96851, Note_on_c, 1, 36, 59
3, 96963, Note_on_c, 1, 36, 0
3, 96970, Note_on_c, 1, 41, 58
3, 97085, Note_on_c, 1, 29, 64
3, 97088, Note_on_c, 1, 41, 0
3, 97205, Note_on_c, 1, 29, 0
3, 97213, Note_on_c, 1, 34, 80
3, 97436, Note_on_c, 1, 34, 0
3, 97449, Note_on_c, 1, 39, 74
3, 97672, Note_on_c, 1, 55, 81
3, 97789, Note_on_c, 1, 39, 0
3, 97871, Note_on_c, 1, 39, 60
3, 97894, Note_on_c, 1, 55, 0
3, 97902, Note_on_c, 1, 39, 0
3, 97915, Note_on_c, 1, 45, 56
3, 97978, Note_on_c, 1, 45, 0
3, 98006, Note_on_c, 1, 38, 29
3, 98018, Note_on_c, 1, 38, 0
3, 98037, Note_on_c, 1, 51, 69
3, 98147, Note_on_c, 1, 51, 0
3, 98165, Note_on_c, 1, 50, 59
3, 98252, Note_on_c, 1, 50, 0
3, 98284, Note_on_c, 1, 42, 68
3, 98397, Note_on_c, 1, 42, 0
3, 98407, Note_on_c, 1, 43, 58
3, 98504, Note_on_c, 1, 43, 0
3, 98526, Note_on_c, 1, 37, 64
3, 98630, Note_on_c, 1, 37, 0
3, 98643, Note_on_c, 1, 36, 63
3, 99003, Note_on_c, 1, 36, 0
3, 99010, Note_on_c, 1, 48, 94
3, 99136, Note_on_c, 1, 48, 0
3, 99141, Note_on_c, 1, 41, 88
3, 99366, Note_on_c, 1, 41, 0
3, 99371, Note_on_c, 1, 34, 82
3, 99565, Note_on_c, 1, 46, 81
3, 99587, Note_on_c, 1, 34, 0
3, 99678, Note_on_c, 1, 37, 59
3, 99687, Note_on_c, 1, 46, 0
3, 99713, Note_on_c, 1, 37, 0
3, 99730, Note_on_c, 1, 38, 60
3, 99827, Note_on_c, 1, 38, 0
3, 99840, Note_on_c, 1, 39, 60
3, 100307, Note_on_c, 1, 39, 0
3, 100324, Note_on_c, 1, 38, 49
3, 100400, Note_on_c, 1, 44, 64
3, 100413, Note_on_c, 1, 38, 0
3, 100435, Note_on_c, 1, 44, 0
3, 100447, Note_on_c, 1, 43, 55
3, 100630, Note_on_c, 1, 43, 0
3, 100632, Note_on_c, 1, 38, 58
3, 100651, Note_on_c, 1, 38, 0
3, 100679, Note_on_c, 1, 35, 62
3, 100885, Note_on_c, 1, 35, 0
3, 100891, Note_on_c, 1, 36, 74
3, 101035, Note_on_c, 1, 36, 0
3, 101044, Note_on_c, 1, 43, 69
3, 101067, Note_on_c, 1, 43, 0
3, 101123, Note_on_c, 1, 42, 68
3, 101157, Note_on_c, 1, 42, 0
3, 101174, Note_on_c, 1, 41, 44
3, 101240, Note_on_c, 1, 41, 0
3, 101249, Note_on_c, 1, 36, 51
3, 101261, Note_on_c, 1, 36, 0
3, 101298, Note_on_c, 1, 34, 53
3, 101514, Note_on_c, 1, 34, 0
3, 101527, Note_on_c, 1, 39, 50
3, 101554, Note_on_c, 1, 39, 0
3, 101598, Note_on_c, 1, 39, 55
3, 101623, Note_on_c, 1, 39, 0
3, 101643, Note_on_c, 1, 33, 56
3, 101753, Note_on_c, 1, 33, 0
3, 101760, Note_on_c, 1, 32, 65
3, 101984, Note_on_c, 1, 32, 0
3, 102015, Note_on_c, 1, 39, 55
3, 102047, Note_on_c, 1, 39, 0
3, 102087, Note_on_c, 1, 39, 59
3, 102111, Note_on_c, 1, 39, 0
3, 102126, Note_on_c, 1, 48, 54
3, 102221, Note_on_c, 1, 48, 0
3, 102248, Note_on_c, 1, 43, 52
3, 102294, Note_on_c, 1, 43, 0
3, 102328, Note_on_c, 1, 43, 42
3, 102348, Note_on_c, 1, 43, 0
3, 102366, Note_on_c, 1, 49, 82
3, 102473, Note_on_c, 1, 49, 0
3, 102483, Note_on_c, 1, 48, 65
3, 102584, Note_on_c, 1, 48, 0
3, 102598, Note_on_c, 1, 43, 58
3, 102685, Note_on_c, 1, 43, 0
3, 102693, Note_on_c, 1, 39, 20
3, 102707, Note_on_c, 1, 39, 0
3, 102712, Note_on_c, 1, 41, 64
3, 102814, Note_on_c, 1, 29, 54
3, 102817, Note_on_c, 1, 41, 0
3, 102937, Note_on_c, 1, 29, 0
3, 102969, Note_on_c, 1, 29, 64
3, 103184, Note_on_c, 1, 29, 0
3, 103203, Note_on_c, 1, 34, 62
3, 103294, Note_on_c, 1, 34, 0
3, 103322, Note_on_c, 1, 34, 74
3, 103558, Note_on_c, 1, 46, 76
3, 103561, Note_on_c, 1, 34, 0
3, 103675, Note_on_c, 1, 46, 0
3, 103684, Note_on_c, 1, 39, 74
3, 103902, Note_on_c, 1, 39, 0
3, 103927, Note_on_c, 1, 39, 53
3, 104161, Note_on_c, 1, 46, 69
3, 104179, Note_on_c, 1, 39, 0
3, 104411, Note_on_c, 1, 46, 0
3, 104412, Note_on_c, 1, 39, 60
3, 104644, Note_on_c, 1, 44, 70
3, 104650, Note_on_c, 1, 39, 0
3, 104886, Note_on_c, 1, 32, 67
3, 104939, Note_on_c, 1, 44, 0
3, 105107, Note_on_c, 1, 32, 0
3, 105116, Note_on_c, 1, 37, 73
3, 105427, Note_on_c, 1, 44, 48
3, 105433, Note_on_c, 1, 37, 0
3, 105467, Note_on_c, 1, 44, 0
3, 105483, Note_on_c, 1, 42, 49
3, 105603, Note_on_c, 1, 42, 0
3, 105607, Note_on_c, 1, 43, 58
3, 105840, Note_on_c, 1, 43, 0
3, 105842, Note_on_c, 1, 37, 54
3, 106072, Note_on_c, 1, 37, 0
3, 106079, Note_on_c, 1, 36, 60
3, 106190, Note_on_c, 1, 46, 59
3, 106221, Note_on_c, 1, 46, 0
3, 106286, Note_on_c, 1, 36, 0
3, 106314, Note_on_c, 1, 36, 56
3, 106336, Note_on_c, 1, 46, 69
3, 106340, Note_on_c, 1, 36, 0
3, 106456, Note_on_c, 1, 34, 44
3, 106499, Note_on_c, 1, 46, 0
3, 106668, Note_on_c, 1, 46, 48
3, 106687, Note_on_c, 1, 34, 0
3, 106694, Note_on_c, 1, 46, 0
3, 106806, Note_on_c, 1, 46, 59
3, 107043, Note_on_c, 1, 46, 0
3, 107044, Note_on_c, 1, 34, 48
3, 107496, Note_on_c, 1, 46, 65
3, 107501, Note_on_c, 1, 34, 0
3, 107520, Note_on_c, 1, 46, 0
3, 107638, Note_on_c, 1, 46, 78
3, 107971, Note_on_c, 1, 46, 0
3, 107989, Note_on_c, 1, 34, 62
3, 108642, Note_on_c, 1, 39, 71
3, 108648, Note_on_c, 1, 34, 0
3, 112316, Note_on_c, 1, 39, 0
3, 112316, End_track
4, 0, Start_track
4, 0, MIDI_port, 0
4, 0, Title_t, "Jazz Kit"
4, 0, Program_c, 9, 32
4, 0, Note_on_c, 9, 47, 1
4, 10, Note_on_c, 9, 59, 73
4, 15, Note_on_c, 9, 47, 0
4, 25, Note_on_c, 9, 59, 0
4, 135, Note_on_c, 9, 44, 26
4, 175, Note_on_c, 9, 44, 0
4, 207, Note_on_c, 9, 59, 95
4, 231, Note_on_c, 9, 59, 0
4, 248, Note_on_c, 9, 44, 23
4, 326, Note_on_c, 9, 44, 0
4, 387, Note_on_c, 9, 59, 94
4, 415, Note_on_c, 9, 59, 0
4, 616, Note_on_c, 9, 44, 20
4, 672, Note_on_c, 9, 44, 0
4, 689, Note_on_c, 9, 59, 66
4, 702, Note_on_c, 9, 59, 0
4, 736, Note_on_c, 9, 59, 80
4, 792, Note_on_c, 9, 59, 0
4, 812, Note_on_c, 9, 59, 84
4, 840, Note_on_c, 9, 59, 0
4, 847, Note_on_c, 9, 44, 22
4, 910, Note_on_c, 9, 44, 0
4, 943, Note_on_c, 9, 59, 127
4, 968, Note_on_c, 9, 59, 0
4, 980, Note_on_c, 9, 38, 29
4, 993, Note_on_c, 9, 38, 0
4, 1099, Note_on_c, 9, 44, 17
4, 1111, Note_on_c, 9, 59, 54
4, 1133, Note_on_c, 9, 59, 0
4, 1143, Note_on_c, 9, 44, 0
4, 1178, Note_on_c, 9, 59, 91
4, 1214, Note_on_c, 9, 44, 16
4, 1217, Note_on_c, 9, 38, 21
4, 1225, Note_on_c, 9, 59, 0
4, 1231, Note_on_c, 9, 38, 0
4, 1267, Note_on_c, 9, 44, 0
4, 1306, Note_on_c, 9, 59, 46
4, 1319, Note_on_c, 9, 59, 0
4, 1326, Note_on_c, 9, 44, 24
4, 1345, Note_on_c, 9, 59, 66
4, 1396, Note_on_c, 9, 44, 0
4, 1404, Note_on_c, 9, 59, 0
4, 1621, Note_on_c, 9, 44, 15
4, 1635, Note_on_c, 9, 59, 59
4, 1639, Note_on_c, 9, 44, 0
4, 1640, Note_on_c, 9, 38, 24
4, 1649, Note_on_c, 9, 59, 0
4, 1657, Note_on_c, 9, 38, 0
4, 1666, Note_on_c, 9, 44, 18
4, 1690, Note_on_c, 9, 59, 61
4, 1696, Note_on_c, 9, 38, 21
4, 1720, Note_on_c, 9, 59, 0
4, 1726, Note_on_c, 9, 38, 0
4, 1729, Note_on_c, 9, 44, 0
4, 1751, Note_on_c, 9, 37, 48
4, 1758, Note_on_c, 9, 38, 29
4, 1777, Note_on_c, 9, 38, 0
4, 1791, Note_on_c, 9, 37, 0
4, 1873, Note_on_c, 9, 44, 20
4, 1898, Note_on_c, 9, 44, 0
4, 1922, Note_on_c, 9, 44, 13
4, 1998, Note_on_c, 9, 44, 0
4, 2009, Note_on_c, 9, 59, 64
4, 2025, Note_on_c, 9, 59, 0
4, 2123, Note_on_c, 9, 59, 90
4, 2175, Note_on_c, 9, 59, 0
4, 2237, Note_on_c, 9, 38, 28
4, 2239, Note_on_c, 9, 59, 95
4, 2262, Note_on_c, 9, 38, 0
4, 2284, Note_on_c, 9, 44, 20
4, 2298, Note_on_c, 9, 59, 0
4, 2342, Note_on_c, 9, 44, 0
4, 2359, Note_on_c, 9, 36, 44
4, 2365, Note_on_c, 9, 59, 48
4, 2379, Note_on_c, 9, 59, 0
4, 2415, Note_on_c, 9, 59, 84
4, 2430, Note_on_c, 9, 36, 0
4, 2475, Note_on_c, 9, 59, 0
4, 2594, Note_on_c, 9, 38, 22
4, 2599, Note_on_c, 9, 53, 64
4, 2610, Note_on_c, 9, 59, 55
4, 2613, Note_on_c, 9, 38, 0
4, 2625, Note_on_c, 9, 59, 0
4, 2626, Note_on_c, 9, 53, 0
4, 2728, Note_on_c, 9, 59, 58
4, 2735, Note_on_c, 9, 36, 26
4, 2743, Note_on_c, 9, 59, 0
4, 2775, Note_on_c, 9, 36, 0
4, 2787, Note_on_c, 9, 59, 73
4, 2797, Note_on_c, 9, 53, 72
4, 2825, Note_on_c, 9, 59, 0
4, 2841, Note_on_c, 9, 53, 0
4, 2903, Note_on_c, 9, 59, 41
4, 2938, Note_on_c, 9, 59, 0
4, 2982, Note_on_c, 9, 59, 74
4, 2982, Note_on_c, 9, 53, 67
4, 3016, Note_on_c, 9, 53, 0
4, 3024, Note_on_c, 9, 59, 0
4, 3095, Note_on_c, 9, 59, 36
4, 3112, Note_on_c, 9, 59, 0
4, 3155, Note_on_c, 9, 53, 60
4, 3156, Note_on_c, 9, 59, 73
4, 3188, Note_on_c, 9, 53, 0
4, 3206, Note_on_c, 9, 44, 23
4, 3216, Note_on_c, 9, 59, 0
4, 3235, Note_on_c, 9, 44, 0
4, 3290, Note_on_c, 9, 44, 19
4, 3338, Note_on_c, 9, 44, 0
4, 3378, Note_on_c, 9, 44, 19
4, 3381, Note_on_c, 9, 38, 46
4, 3411, Note_on_c, 9, 38, 0
4, 3436, Note_on_c, 9, 44, 0
4, 3442, Note_on_c, 9, 59, 51
4, 3455, Note_on_c, 9, 59, 0
4, 3460, Note_on_c, 9, 38, 44
4, 3488, Note_on_c, 9, 38, 0
4, 3493, Note_on_c, 9, 59, 65
4, 3523, Note_on_c, 9, 36, 24
4, 3527, Note_on_c, 9, 59, 0
4, 3547, Note_on_c, 9, 36, 0
4, 3565, Note_on_c, 9, 59, 95
4, 3643, Note_on_c, 9, 59, 0
4, 3684, Note_on_c, 9, 59, 55
4, 3692, Note_on_c, 9, 38, 44
4, 3698, Note_on_c, 9, 59, 0
4, 3713, Note_on_c, 9, 38, 0
4, 3734, Note_on_c, 9, 44, 23
4, 3740, Note_on_c, 9, 59, 64
4, 3759, Note_on_c, 9, 59, 0
4, 3775, Note_on_c, 9, 44, 0
4, 3814, Note_on_c, 9, 36, 40
4, 3815, Note_on_c, 9, 59, 105
4, 3840, Note_on_c, 9, 36, 0
4, 3864, Note_on_c, 9, 36, 46
4, 3890, Note_on_c, 9, 59, 0
4, 3920, Note_on_c, 9, 36, 0
4, 3939, Note_on_c, 9, 36, 35
4, 3939, Note_on_c, 9, 59, 48
4, 3953, Note_on_c, 9, 59, 0
4, 3978, Note_on_c, 9, 36, 0
4, 3983, Note_on_c, 9, 59, 75
4, 4006, Note_on_c, 9, 59, 0
4, 4047, Note_on_c, 9, 53, 78
4, 4094, Note_on_c, 9, 36, 36
4, 4101, Note_on_c, 9, 53, 0
4, 4128, Note_on_c, 9, 36, 0
4, 4167, Note_on_c, 9, 53, 50
4, 4169, Note_on_c, 9, 44, 22
4, 4192, Note_on_c, 9, 44, 0
4, 4204, Note_on_c, 9, 53, 0
4, 4276, Note_on_c, 9, 44, 28
4, 4284, Note_on_c, 9, 53, 62
4, 4296, Note_on_c, 9, 53, 0
4, 4308, Note_on_c, 9, 44, 0
4, 4336, Note_on_c, 9, 59, 55
4, 4354, Note_on_c, 9, 46, 20
4, 4374, Note_on_c, 9, 59, 0
4, 4417, Note_on_c, 9, 46, 0
4, 4446, Note_on_c, 9, 59, 45
4, 4460, Note_on_c, 9, 59, 0
4, 4518, Note_on_c, 9, 59, 80
4, 4545, Note_on_c, 9, 59, 0
4, 4750, Note_on_c, 9, 59, 53
4, 4756, Note_on_c, 9, 44, 22
4, 4766, Note_on_c, 9, 59, 0
4, 4772, Note_on_c, 9, 44, 0
4, 4806, Note_on_c, 9, 59, 72
4, 4807, Note_on_c, 9, 44, 25
4, 4845, Note_on_c, 9, 59, 0
4, 4900, Note_on_c, 9, 44, 0
4, 4938, Note_on_c, 9, 46, 20
4, 4987, Note_on_c, 9, 38, 30
4, 4990, Note_on_c, 9, 46, 0
4, 5002, Note_on_c, 9, 38, 0
4, 5002, Note_on_c, 9, 59, 49
4, 5018, Note_on_c, 9, 59, 0
4, 5047, Note_on_c, 9, 38, 21
4, 5049, Note_on_c, 9, 59, 62
4, 5072, Note_on_c, 9, 38, 0
4, 5081, Note_on_c, 9, 59, 0
4, 5127, Note_on_c, 9, 38, 22
4, 5142, Note_on_c, 9, 38, 0
4, 5238, Note_on_c, 9, 59, 87
4, 5260, Note_on_c, 9, 59, 0
4, 5288, Note_on_c, 9, 59, 87
4, 5343, Note_on_c, 9, 59, 0
4, 5362, Note_on_c, 9, 59, 83
4, 5399, Note_on_c, 9, 59, 0
4, 5481, Note_on_c, 9, 59, 118
4, 5534, Note_on_c, 9, 59, 0
4, 5605, Note_on_c, 9, 38, 53
4, 5607, Note_on_c, 9, 59, 113
4, 5628, Note_on_c, 9, 38, 0
4, 5648, Note_on_c, 9, 44, 30
4, 5648, Note_on_c, 9, 38, 49
4, 5672, Note_on_c, 9, 59, 0
4, 5684, Note_on_c, 9, 38, 0
4, 5694, Note_on_c, 9, 44, 0
4, 5715, Note_on_c, 9, 59, 71
4, 5744, Note_on_c, 9, 59, 0
4, 5765, Note_on_c, 9, 59, 83
4, 5828, Note_on_c, 9, 59, 0
4, 5888, Note_on_c, 9, 44, 23
4, 5940, Note_on_c, 9, 44, 0
4, 5965, Note_on_c, 9, 59, 72
4, 5977, Note_on_c, 9, 59, 0
4, 6020, Note_on_c, 9, 59, 57
4, 6034, Note_on_c, 9, 59, 0
4, 6073, Note_on_c, 9, 38, 24
4, 6085, Note_on_c, 9, 53, 68
4, 6087, Note_on_c, 9, 59, 71
4, 6088, Note_on_c, 9, 38, 0
4, 6104, Note_on_c, 9, 59, 0
4, 6125, Note_on_c, 9, 38, 18
4, 6134, Note_on_c, 9, 59, 58
4, 6168, Note_on_c, 9, 59, 0
4, 6168, Note_on_c, 9, 38, 0
4, 6195, Note_on_c, 9, 53, 0
4, 6199, Note_on_c, 9, 38, 53
4, 6252, Note_on_c, 9, 53, 53
4, 6252, Note_on_c, 9, 59, 75
4, 6256, Note_on_c, 9, 38, 0
4, 6302, Note_on_c, 9, 59, 0
4, 6321, Note_on_c, 9, 53, 0
4, 6321, Note_on_c, 9, 38, 31
4, 6333, Note_on_c, 9, 38, 0
4, 6372, Note_on_c, 9, 46, 36
4, 6406, Note_on_c, 9, 46, 0
4, 6566, Note_on_c, 9, 38, 22
4, 6580, Note_on_c, 9, 59, 65
4, 6583, Note_on_c, 9, 38, 0
4, 6594, Note_on_c, 9, 59, 0
4, 6603, Note_on_c, 9, 44, 22
4, 6651, Note_on_c, 9, 44, 0
4, 6681, Note_on_c, 9, 38, 36
4, 6687, Note_on_c, 9, 59, 79
4, 6710, Note_on_c, 9, 59, 0
4, 6716, Note_on_c, 9, 38, 0
4, 6743, Note_on_c, 9, 59, 84
4, 6798, Note_on_c, 9, 38, 32
4, 6799, Note_on_c, 9, 59, 0
4, 6838, Note_on_c, 9, 44, 29
4, 6839, Note_on_c, 9, 38, 0
4, 6861, Note_on_c, 9, 57, 30
4, 6867, Note_on_c, 9, 36, 20
4, 6875, Note_on_c, 9, 57, 0
4, 6889, Note_on_c, 9, 36, 0
4, 6899, Note_on_c, 9, 44, 0
4, 6915, Note_on_c, 9, 59, 80
4, 6945, Note_on_c, 9, 59, 0
4, 7035, Note_on_c, 9, 59, 68
4, 7058, Note_on_c, 9, 59, 0
4, 7088, Note_on_c, 9, 59, 76
4, 7122, Note_on_c, 9, 59, 0
4, 7272, Note_on_c, 9, 53, 58
4, 7278, Note_on_c, 9, 38, 31
4, 7286, Note_on_c, 9, 53, 0
4, 7294, Note_on_c, 9, 38, 0
4, 7325, Note_on_c, 9, 44, 29
4, 7363, Note_on_c, 9, 44, 0
4, 7390, Note_on_c, 9, 53, 72
4, 7395, Note_on_c, 9, 38, 26
4, 7413, Note_on_c, 9, 38, 0
4, 7418, Note_on_c, 9, 53, 0
4, 7441, Note_on_c, 9, 44, 32
4, 7498, Note_on_c, 9, 44, 0
4, 7517, Note_on_c, 9, 38, 32
4, 7519, Note_on_c, 9, 53, 70
4, 7535, Note_on_c, 9, 38, 0
4, 7542, Note_on_c, 9, 53, 0
4, 7637, Note_on_c, 9, 38, 35
4, 7650, Note_on_c, 9, 53, 68
4, 7651, Note_on_c, 9, 38, 0
4, 7661, Note_on_c, 9, 53, 0
4, 7686, Note_on_c, 9, 44, 23
4, 7688, Note_on_c, 9, 57, 46
4, 7690, Note_on_c, 9, 36, 37
4, 7692, Note_on_c, 9, 38, 33
4, 7700, Note_on_c, 9, 59, 63
4, 7710, Note_on_c, 9, 38, 0
4, 7724, Note_on_c, 9, 57, 0
4, 7738, Note_on_c, 9, 44, 0
4, 7758, Note_on_c, 9, 59, 0
4, 7775, Note_on_c, 9, 36, 0
4, 7803, Note_on_c, 9, 44, 26
4, 7818, Note_on_c, 9, 59, 76
4, 7845, Note_on_c, 9, 59, 0
4, 7872, Note_on_c, 9, 44, 0
4, 7934, Note_on_c, 9, 59, 108
4, 8007, Note_on_c, 9, 38, 27
4, 8024, Note_on_c, 9, 38, 0
4, 8045, Note_on_c, 9, 59, 0
4, 8047, Note_on_c, 9, 44, 26
4, 8053, Note_on_c, 9, 36, 35
4, 8098, Note_on_c, 9, 36, 0
4, 8112, Note_on_c, 9, 44, 0
4, 8128, Note_on_c, 9, 36, 40
4, 8178, Note_on_c, 9, 36, 0
4, 8234, Note_on_c, 9, 59, 68
4, 8258, Note_on_c, 9, 59, 0
4, 8285, Note_on_c, 9, 44, 30
4, 8295, Note_on_c, 9, 59, 31
4, 8313, Note_on_c, 9, 59, 0
4, 8347, Note_on_c, 9, 44, 0
4, 8363, Note_on_c, 9, 59, 92
4, 8413, Note_on_c, 9, 44, 26
4, 8421, Note_on_c, 9, 59, 0
4, 8464, Note_on_c, 9, 44, 0
4, 8529, Note_on_c, 9, 46, 24
4, 8581, Note_on_c, 9, 46, 0
4, 8603, Note_on_c, 9, 59, 55
4, 8619, Note_on_c, 9, 59, 0
4, 8654, Note_on_c, 9, 59, 70
4, 8722, Note_on_c, 9, 59, 0
4, 8763, Note_on_c, 9, 38, 26
4, 8826, Note_on_c, 9, 38, 0
4, 8855, Note_on_c, 9, 59, 60
4, 8869, Note_on_c, 9, 59, 0
4, 8903, Note_on_c, 9, 59, 62
4, 8968, Note_on_c, 9, 59, 0
4, 8995, Note_on_c, 9, 44, 30
4, 9041, Note_on_c, 9, 44, 0
4, 9092, Note_on_c, 9, 59, 61
4, 9107, Note_on_c, 9, 59, 0
4, 9139, Note_on_c, 9, 59, 57
4, 9205, Note_on_c, 9, 59, 0
4, 9245, Note_on_c, 9, 44, 26
4, 9249, Note_on_c, 9, 37, 40
4, 9289, Note_on_c, 9, 44, 0
4, 9326, Note_on_c, 9, 37, 0
4, 9332, Note_on_c, 9, 59, 54
4, 9346, Note_on_c, 9, 59, 0
4, 9450, Note_on_c, 9, 59, 96
4, 9479, Note_on_c, 9, 37, 30
4, 9482, Note_on_c, 9, 46, 30
4, 9513, Note_on_c, 9, 46, 0
4, 9545, Note_on_c, 9, 59, 0
4, 9552, Note_on_c, 9, 37, 0
4, 9569, Note_on_c, 9, 59, 59
4, 9583, Note_on_c, 9, 59, 0
4, 9630, Note_on_c, 9, 59, 103
4, 9702, Note_on_c, 9, 59, 0
4, 9809, Note_on_c, 9, 59, 95
4, 9872, Note_on_c, 9, 59, 0
4, 9942, Note_on_c, 9, 59, 54
4, 9954, Note_on_c, 9, 59, 0
4, 9985, Note_on_c, 9, 59, 95
4, 10046, Note_on_c, 9, 59, 0
4, 10096, Note_on_c, 9, 59, 90
4, 10147, Note_on_c, 9, 59, 0
4, 10205, Note_on_c, 9, 44, 30
4, 10208, Note_on_c, 9, 59, 99
4, 10245, Note_on_c, 9, 44, 0
4, 10257, Note_on_c, 9, 59, 0
4, 10284, Note_on_c, 9, 38, 16
4, 10296, Note_on_c, 9, 38, 0
4, 10332, Note_on_c, 9, 59, 103
4, 10378, Note_on_c, 9, 59, 0
4, 10389, Note_on_c, 9, 38, 36
4, 10401, Note_on_c, 9, 38, 0
4, 10404, Note_on_c, 9, 59, 76
4, 10437, Note_on_c, 9, 59, 0
4, 10437, Note_on_c, 9, 44, 25
4, 10439, Note_on_c, 9, 38, 19
4, 10462, Note_on_c, 9, 38, 0
4, 10487, Note_on_c, 9, 44, 0
4, 10515, Note_on_c, 9, 36, 22
4, 10532, Note_on_c, 9, 36, 0
4, 10688, Note_on_c, 9, 59, 89
4, 10810, Note_on_c, 9, 59, 0
4, 10860, Note_on_c, 9, 59, 64
4, 10888, Note_on_c, 9, 59, 0
4, 10918, Note_on_c, 9, 44, 38
4, 10919, Note_on_c, 9, 59, 62
4, 10963, Note_on_c, 9, 59, 0
4, 10985, Note_on_c, 9, 44, 0
4, 10994, Note_on_c, 9, 59, 84
4, 11094, Note_on_c, 9, 59, 0
4, 11159, Note_on_c, 9, 38, 20
4, 11163, Note_on_c, 9, 44, 36
4, 11189, Note_on_c, 9, 38, 0
4, 11226, Note_on_c, 9, 59, 58
4, 11227, Note_on_c, 9, 44, 0
4, 11242, Note_on_c, 9, 59, 0
4, 11281, Note_on_c, 9, 59, 64
4, 11287, Note_on_c, 9, 38, 30
4, 11315, Note_on_c, 9, 38, 0
4, 11315, Note_on_c, 9, 59, 0
4, 11362, Note_on_c, 9, 38, 40
4, 11392, Note_on_c, 9, 38, 0
4, 11413, Note_on_c, 9, 51, 52
4, 11414, Note_on_c, 9, 53, 61
4, 11415, Note_on_c, 9, 38, 30
4, 11440, Note_on_c, 9, 38, 0
4, 11470, Note_on_c, 9, 53, 0
4, 11476, Note_on_c, 9, 51, 0
4, 11491, Note_on_c, 9, 38, 58
4, 11577, Note_on_c, 9, 38, 0
4, 11655, Note_on_c, 9, 44, 34
4, 11694, Note_on_c, 9, 44, 0
4, 11721, Note_on_c, 9, 59, 39
4, 11738, Note_on_c, 9, 59, 0
4, 11784, Note_on_c, 9, 59, 66
4, 11816, Note_on_c, 9, 59, 0
4, 11848, Note_on_c, 9, 38, 37
4, 11853, Note_on_c, 9, 59, 92
4, 11873, Note_on_c, 9, 38, 0
4, 11885, Note_on_c, 9, 44, 33
4, 11915, Note_on_c, 9, 38, 20
4, 11923, Note_on_c, 9, 59, 0
4, 11931, Note_on_c, 9, 44, 0
4, 11942, Note_on_c, 9, 38, 0
4, 11973, Note_on_c, 9, 57, 51
4, 11975, Note_on_c, 9, 36, 45
4, 11986, Note_on_c, 9, 57, 0
4, 12003, Note_on_c, 9, 36, 0
4, 12090, Note_on_c, 9, 59, 60
4, 12103, Note_on_c, 9, 59, 0
4, 12124, Note_on_c, 9, 44, 32
4, 12147, Note_on_c, 9, 59, 51
4, 12160, Note_on_c, 9, 59, 0
4, 12167, Note_on_c, 9, 44, 0
4, 12210, Note_on_c, 9, 59, 96
4, 12289, Note_on_c, 9, 59, 0
4, 12363, Note_on_c, 9, 44, 21
4, 12377, Note_on_c, 9, 44, 0
4, 12382, Note_on_c, 9, 46, 24
4, 12394, Note_on_c, 9, 46, 0
4, 12440, Note_on_c, 9, 59, 84
4, 12498, Note_on_c, 9, 59, 0
4, 12569, Note_on_c, 9, 59, 53
4, 12584, Note_on_c, 9, 59, 0
4, 12604, Note_on_c, 9, 44, 25
4, 12623, Note_on_c, 9, 59, 81
4, 12636, Note_on_c, 9, 44, 0
4, 12685, Note_on_c, 9, 59, 0
4, 12796, Note_on_c, 9, 38, 38
4, 12818, Note_on_c, 9, 38, 0
4, 13041, Note_on_c, 9, 59, 71
4, 13053, Note_on_c, 9, 59, 0
4, 13087, Note_on_c, 9, 44, 32
4, 13130, Note_on_c, 9, 44, 0
4, 13155, Note_on_c, 9, 59, 91
4, 13187, Note_on_c, 9, 59, 0
4, 13281, Note_on_c, 9, 59, 82
4, 13307, Note_on_c, 9, 59, 0
4, 13310, Note_on_c, 9, 44, 25
4, 13356, Note_on_c, 9, 44, 0
4, 13395, Note_on_c, 9, 59, 64
4, 13407, Note_on_c, 9, 59, 0
4, 13450, Note_on_c, 9, 59, 78
4, 13496, Note_on_c, 9, 59, 0
4, 13563, Note_on_c, 9, 44, 22
4, 13563, Note_on_c, 9, 59, 50
4, 13576, Note_on_c, 9, 59, 0
4, 13614, Note_on_c, 9, 44, 0
4, 13639, Note_on_c, 9, 59, 68
4, 13654, Note_on_c, 9, 59, 0
4, 13687, Note_on_c, 9, 44, 25
4, 13755, Note_on_c, 9, 44, 0
4, 13760, Note_on_c, 9, 38, 28
4, 13771, Note_on_c, 9, 59, 64
4, 13776, Note_on_c, 9, 38, 0
4, 13783, Note_on_c, 9, 59, 0
4, 13821, Note_on_c, 9, 38, 20
4, 13823, Note_on_c, 9, 59, 84
4, 13838, Note_on_c, 9, 38, 0
4, 13878, Note_on_c, 9, 59, 0
4, 13935, Note_on_c, 9, 44, 26
4, 13974, Note_on_c, 9, 44, 0
4, 14052, Note_on_c, 9, 44, 28
4, 14111, Note_on_c, 9, 44, 0
4, 14129, Note_on_c, 9, 59, 53
4, 14142, Note_on_c, 9, 59, 0
4, 14179, Note_on_c, 9, 59, 71
4, 14234, Note_on_c, 9, 38, 25
4, 14236, Note_on_c, 9, 59, 0
4, 14248, Note_on_c, 9, 38, 0
4, 14289, Note_on_c, 9, 38, 27
4, 14294, Note_on_c, 9, 44, 28
4, 14328, Note_on_c, 9, 38, 0
4, 14336, Note_on_c, 9, 44, 0
4, 14410, Note_on_c, 9, 38, 23
4, 14413, Note_on_c, 9, 44, 28
4, 14458, Note_on_c, 9, 44, 0
4, 14460, Note_on_c, 9, 38, 0
4, 14482, Note_on_c, 9, 38, 25
4, 14501, Note_on_c, 9, 38, 0
4, 14516, Note_on_c, 9, 59, 66
4, 14528, Note_on_c, 9, 59, 0
4, 14612, Note_on_c, 9, 59, 56
4, 14625, Note_on_c, 9, 59, 0
4, 14650, Note_on_c, 9, 44, 30
4, 14666, Note_on_c, 9, 59, 80
4, 14678, Note_on_c, 9, 44, 0
4, 14724, Note_on_c, 9, 59, 0
4, 14727, Note_on_c, 9, 38, 36
4, 14740, Note_on_c, 9, 38, 0
4, 14766, Note_on_c, 9, 44, 30
4, 14778, Note_on_c, 9, 38, 17
4, 14793, Note_on_c, 9, 38, 0
4, 14812, Note_on_c, 9, 44, 0
4, 14968, Note_on_c, 9, 59, 53
4, 14971, Note_on_c, 9, 38, 32
4, 14980, Note_on_c, 9, 59, 0
4, 14985, Note_on_c, 9, 38, 0
4, 15009, Note_on_c, 9, 44, 31
4, 15040, Note_on_c, 9, 44, 0
4, 15084, Note_on_c, 9, 38, 59
4, 15085, Note_on_c, 9, 59, 76
4, 15099, Note_on_c, 9, 59, 0
4, 15115, Note_on_c, 9, 38, 0
4, 15126, Note_on_c, 9, 44, 31
4, 15137, Note_on_c, 9, 59, 67
4, 15156, Note_on_c, 9, 44, 0
4, 15209, Note_on_c, 9, 38, 68
4, 15212, Note_on_c, 9, 59, 0
4, 15250, Note_on_c, 9, 38, 0
4, 15334, Note_on_c, 9, 53, 34
4, 15335, Note_on_c, 9, 38, 59
4, 15345, Note_on_c, 9, 59, 84
4, 15348, Note_on_c, 9, 53, 0
4, 15353, Note_on_c, 9, 38, 0
4, 15367, Note_on_c, 9, 59, 0
4, 15374, Note_on_c, 9, 46, 25
4, 15381, Note_on_c, 9, 38, 59
4, 15382, Note_on_c, 9, 57, 76
4, 15383, Note_on_c, 9, 36, 63
4, 15387, Note_on_c, 9, 59, 89
4, 15401, Note_on_c, 9, 46, 0
4, 15436, Note_on_c, 9, 57, 0
4, 15470, Note_on_c, 9, 36, 0
4, 15490, Note_on_c, 9, 38, 0
4, 15554, Note_on_c, 9, 59, 0
4, 15576, Note_on_c, 9, 59, 68
4, 15592, Note_on_c, 9, 59, 0
4, 15622, Note_on_c, 9, 59, 88
4, 15716, Note_on_c, 9, 59, 0
4, 15723, Note_on_c, 9, 46, 32
4, 15755, Note_on_c, 9, 46, 0
4, 15806, Note_on_c, 9, 59, 66
4, 15824, Note_on_c, 9, 59, 0
4, 15853, Note_on_c, 9, 59, 80
4, 15940, Note_on_c, 9, 59, 0
4, 16033, Note_on_c, 9, 38, 26
4, 16049, Note_on_c, 9, 59, 36
4, 16055, Note_on_c, 9, 38, 0
4, 16076, Note_on_c, 9, 59, 0
4, 16088, Note_on_c, 9, 38, 21
4, 16099, Note_on_c, 9, 59, 71
4, 16131, Note_on_c, 9, 38, 0
4, 16156, Note_on_c, 9, 59, 0
4, 16158, Note_on_c, 9, 38, 31
4, 16170, Note_on_c, 9, 38, 0
4, 16211, Note_on_c, 9, 44, 31
4, 16253, Note_on_c, 9, 44, 0
4, 16287, Note_on_c, 9, 59, 56
4, 16301, Note_on_c, 9, 59, 0
4, 16339, Note_on_c, 9, 59, 64
4, 16377, Note_on_c, 9, 59, 0
4, 16417, Note_on_c, 9, 53, 48
4, 16437, Note_on_c, 9, 53, 0
4, 16459, Note_on_c, 9, 44, 25
4, 16483, Note_on_c, 9, 44, 0
4, 16649, Note_on_c, 9, 59, 60
4, 16662, Note_on_c, 9, 59, 0
4, 16691, Note_on_c, 9, 44, 22
4, 16725, Note_on_c, 9, 44, 0
4, 16769, Note_on_c, 9, 38, 54
4, 16781, Note_on_c, 9, 38, 0
4, 16824, Note_on_c, 9, 59, 48
4, 16871, Note_on_c, 9, 59, 0
4, 16883, Note_on_c, 9, 44, 35
4, 16911, Note_on_c, 9, 44, 0
4, 16935, Note_on_c, 9, 44, 38
4, 16972, Note_on_c, 9, 44, 0
4, 17016, Note_on_c, 9, 59, 56
4, 17031, Note_on_c, 9, 59, 0
4, 17046, Note_on_c, 9, 38, 23
4, 17074, Note_on_c, 9, 38, 0
4, 17118, Note_on_c, 9, 59, 73
4, 17136, Note_on_c, 9, 59, 0
4, 17161, Note_on_c, 9, 44, 36
4, 17161, Note_on_c, 9, 38, 54
4, 17198, Note_on_c, 9, 44, 0
4, 17208, Note_on_c, 9, 38, 0
4, 17238, Note_on_c, 9, 59, 76
4, 17261, Note_on_c, 9, 59, 0
4, 17281, Note_on_c, 9, 38, 33
4, 17285, Note_on_c, 9, 59, 75
4, 17313, Note_on_c, 9, 59, 0
4, 17330, Note_on_c, 9, 38, 0
4, 17352, Note_on_c, 9, 40, 59
4, 17354, Note_on_c, 9, 44, 28
4, 17359, Note_on_c, 9, 38, 31
4, 17372, Note_on_c, 9, 38, 0
4, 17376, Note_on_c, 9, 40, 0
4, 17383, Note_on_c, 9, 44, 0
4, 17403, Note_on_c, 9, 59, 60
4, 17408, Note_on_c, 9, 44, 29
4, 17423, Note_on_c, 9, 59, 0
4, 17440, Note_on_c, 9, 44, 0
4, 17494, Note_on_c, 9, 40, 47
4, 17509, Note_on_c, 9, 40, 0
4, 17521, Note_on_c, 9, 44, 25
4, 17529, Note_on_c, 9, 59, 77
4, 17548, Note_on_c, 9, 44, 0
4, 17589, Note_on_c, 9, 59, 0
4, 17593, Note_on_c, 9, 44, 40
4, 17623, Note_on_c, 9, 44, 0
4, 17705, Note_on_c, 9, 59, 60
4, 17719, Note_on_c, 9, 44, 26
4, 17720, Note_on_c, 9, 59, 0
4, 17745, Note_on_c, 9, 44, 0
4, 17774, Note_on_c, 9, 44, 26
4, 17814, Note_on_c, 9, 44, 0
4, 17835, Note_on_c, 9, 59, 69
4, 17852, Note_on_c, 9, 59, 0
4, 17885, Note_on_c, 9, 59, 71
4, 17946, Note_on_c, 9, 59, 0
4, 17959, Note_on_c, 9, 44, 21
4, 17987, Note_on_c, 9, 44, 0
4, 18073, Note_on_c, 9, 44, 29
4, 18099, Note_on_c, 9, 44, 0
4, 18127, Note_on_c, 9, 44, 31
4, 18175, Note_on_c, 9, 44, 0
4, 18319, Note_on_c, 9, 59, 65
4, 18334, Note_on_c, 9, 59, 0
4, 18370, Note_on_c, 9, 59, 72
4, 18402, Note_on_c, 9, 59, 0
4, 18445, Note_on_c, 9, 59, 96
4, 18447, Note_on_c, 9, 44, 21
4, 18451, Note_on_c, 9, 38, 36
4, 18462, Note_on_c, 9, 38, 0
4, 18463, Note_on_c, 9, 44, 0
4, 18498, Note_on_c, 9, 44, 26
4, 18538, Note_on_c, 9, 59, 0
4, 18543, Note_on_c, 9, 44, 0
4, 18570, Note_on_c, 9, 44, 31
4, 18572, Note_on_c, 9, 38, 62
4, 18584, Note_on_c, 9, 39, 17
4, 18594, Note_on_c, 9, 44, 0
4, 18595, Note_on_c, 9, 39, 0
4, 18598, Note_on_c, 9, 59, 57
4, 18601, Note_on_c, 9, 38, 0
4, 18610, Note_on_c, 9, 59, 0
4, 18678, Note_on_c, 9, 59, 96
4, 18689, Note_on_c, 9, 38, 61
4, 18718, Note_on_c, 9, 38, 0
4, 18742, Note_on_c, 9, 38, 43
4, 18748, Note_on_c, 9, 59, 0
4, 18780, Note_on_c, 9, 38, 0
4, 18804, Note_on_c, 9, 44, 14
4, 18809, Note_on_c, 9, 59, 50
4, 18815, Note_on_c, 9, 44, 0
4, 18823, Note_on_c, 9, 59, 0
4, 18848, Note_on_c, 9, 44, 23
4, 18858, Note_on_c, 9, 59, 99
4, 18888, Note_on_c, 9, 44, 0
4, 18919, Note_on_c, 9, 44, 26
4, 18919, Note_on_c, 9, 38, 32
4, 18928, Note_on_c, 9, 59, 0
4, 18930, Note_on_c, 9, 38, 0
4, 18956, Note_on_c, 9, 44, 0
4, 18973, Note_on_c, 9, 59, 61
4, 18985, Note_on_c, 9, 59, 0
4, 19032, Note_on_c, 9, 38, 32
4, 19040, Note_on_c, 9, 44, 35
4, 19044, Note_on_c, 9, 59, 103
4, 19045, Note_on_c, 9, 38, 0
4, 19079, Note_on_c, 9, 44, 0
4, 19089, Note_on_c, 9, 38, 46
4, 19103, Note_on_c, 9, 59, 0
4, 19122, Note_on_c, 9, 38, 0
4, 19149, Note_on_c, 9, 44, 29
4, 19154, Note_on_c, 9, 59, 61
4, 19162, Note_on_c, 9, 38, 61
4, 19166, Note_on_c, 9, 59, 0
4, 19180, Note_on_c, 9, 44, 0
4, 19213, Note_on_c, 9, 59, 105
4, 19214, Note_on_c, 9, 38, 0
4, 19274, Note_on_c, 9, 59, 0
4, 19327, Note_on_c, 9, 44, 23
4, 19328, Note_on_c, 9, 59, 60
4, 19341, Note_on_c, 9, 59, 0
4, 19362, Note_on_c, 9, 44, 0
4, 19408, Note_on_c, 9, 59, 103
4, 19451, Note_on_c, 9, 44, 19
4, 19471, Note_on_c, 9, 59, 0
4, 19497, Note_on_c, 9, 44, 0
4, 19527, Note_on_c, 9, 59, 59
4, 19539, Note_on_c, 9, 59, 0
4, 19583, Note_on_c, 9, 59, 95
4, 19644, Note_on_c, 9, 59, 0
4, 19758, Note_on_c, 9, 40, 36
4, 19769, Note_on_c, 9, 40, 0
4, 19814, Note_on_c, 9, 44, 24
4, 19817, Note_on_c, 9, 38, 12
4, 19834, Note_on_c, 9, 38, 0
4, 19852, Note_on_c, 9, 44, 0
4, 19885, Note_on_c, 9, 38, 40
4, 19897, Note_on_c, 9, 59, 62
4, 19914, Note_on_c, 9, 59, 0
4, 19922, Note_on_c, 9, 38, 0
4, 19951, Note_on_c, 9, 59, 81
4, 19995, Note_on_c, 9, 59, 0
4, 20011, Note_on_c, 9, 44, 28
4, 20014, Note_on_c, 9, 38, 41
4, 20027, Note_on_c, 9, 44, 0
4, 20048, Note_on_c, 9, 38, 0
4, 20059, Note_on_c, 9, 44, 25
4, 20078, Note_on_c, 9, 44, 0
4, 20134, Note_on_c, 9, 38, 39
4, 20136, Note_on_c, 9, 44, 26
4, 20142, Note_on_c, 9, 59, 60
4, 20156, Note_on_c, 9, 59, 0
4, 20163, Note_on_c, 9, 38, 0
4, 20174, Note_on_c, 9, 44, 0
4, 20189, Note_on_c, 9, 38, 36
4, 20193, Note_on_c, 9, 59, 64
4, 20225, Note_on_c, 9, 59, 0
4, 20229, Note_on_c, 9, 38, 0
4, 20267, Note_on_c, 9, 44, 24
4, 20274, Note_on_c, 9, 59, 57
4, 20288, Note_on_c, 9, 59, 0
4, 20298, Note_on_c, 9, 44, 0
4, 20384, Note_on_c, 9, 44, 34
4, 20416, Note_on_c, 9, 44, 0
4, 20446, Note_on_c, 9, 59, 71
4, 20449, Note_on_c, 9, 53, 41
4, 20452, Note_on_c, 9, 44, 17
4, 20472, Note_on_c, 9, 59, 0
4, 20490, Note_on_c, 9, 53, 0
4, 20491, Note_on_c, 9, 44, 0
4, 20610, Note_on_c, 9, 59, 48
4, 20625, Note_on_c, 9, 59, 0
4, 20665, Note_on_c, 9, 53, 52
4, 20667, Note_on_c, 9, 59, 68
4, 20694, Note_on_c, 9, 53, 0
4, 20701, Note_on_c, 9, 59, 0
4, 20754, Note_on_c, 9, 44, 28
4, 20781, Note_on_c, 9, 59, 47
4, 20786, Note_on_c, 9, 44, 0
4, 20795, Note_on_c, 9, 59, 0
4, 20855, Note_on_c, 9, 53, 43
4, 20855, Note_on_c, 9, 59, 80
4, 20874, Note_on_c, 9, 53, 0
4, 20884, Note_on_c, 9, 59, 0
4, 20963, Note_on_c, 9, 38, 25
4, 20969, Note_on_c, 9, 59, 57
4, 20979, Note_on_c, 9, 38, 0
4, 20982, Note_on_c, 9, 59, 0
4, 21006, Note_on_c, 9, 40, 30
4, 21022, Note_on_c, 9, 53, 30
4, 21022, Note_on_c, 9, 59, 74
4, 21023, Note_on_c, 9, 40, 0
4, 21068, Note_on_c, 9, 59, 0
4, 21075, Note_on_c, 9, 53, 0
4, 21078, Note_on_c, 9, 40, 54
4, 21098, Note_on_c, 9, 40, 0
4, 21116, Note_on_c, 9, 36, 39
4, 21144, Note_on_c, 9, 59, 74
4, 21144, Note_on_c, 9, 53, 50
4, 21162, Note_on_c, 9, 36, 0
4, 21168, Note_on_c, 9, 53, 0
4, 21174, Note_on_c, 9, 59, 0
4, 21240, Note_on_c, 9, 44, 25
4, 21282, Note_on_c, 9, 44, 0
4, 21445, Note_on_c, 9, 59, 58
4, 21458, Note_on_c, 9, 59, 0
4, 21480, Note_on_c, 9, 44, 28
4, 21526, Note_on_c, 9, 44, 0
4, 21552, Note_on_c, 9, 38, 25
4, 21560, Note_on_c, 9, 51, 56
4, 21560, Note_on_c, 9, 59, 78
4, 21564, Note_on_c, 9, 53, 53
4, 21567, Note_on_c, 9, 38, 0
4, 21584, Note_on_c, 9, 53, 0
4, 21586, Note_on_c, 9, 59, 0
4, 21599, Note_on_c, 9, 51, 0
4, 21607, Note_on_c, 9, 38, 36
4, 21666, Note_on_c, 9, 38, 0
4, 21685, Note_on_c, 9, 38, 59
4, 21733, Note_on_c, 9, 38, 0
4, 21799, Note_on_c, 9, 38, 65
4, 21870, Note_on_c, 9, 38, 0
4, 21916, Note_on_c, 9, 38, 61
4, 21921, Note_on_c, 9, 59, 81
4, 21947, Note_on_c, 9, 59, 0
4, 21959, Note_on_c, 9, 44, 34
4, 21977, Note_on_c, 9, 38, 0
4, 21994, Note_on_c, 9, 44, 0
4, 22034, Note_on_c, 9, 38, 42
4, 22039, Note_on_c, 9, 59, 81
4, 22048, Note_on_c, 9, 38, 0
4, 22059, Note_on_c, 9, 59, 0
4, 22090, Note_on_c, 9, 44, 22
4, 22090, Note_on_c, 9, 38, 27
4, 22102, Note_on_c, 9, 59, 88
4, 22106, Note_on_c, 9, 38, 0
4, 22117, Note_on_c, 9, 44, 0
4, 22142, Note_on_c, 9, 59, 0
4, 22203, Note_on_c, 9, 44, 40
4, 22239, Note_on_c, 9, 44, 0
4, 22288, Note_on_c, 9, 59, 82
4, 22290, Note_on_c, 9, 53, 60
4, 22293, Note_on_c, 9, 51, 43
4, 22314, Note_on_c, 9, 59, 0
4, 22318, Note_on_c, 9, 53, 0
4, 22324, Note_on_c, 9, 51, 0
4, 22402, Note_on_c, 9, 59, 61
4, 22418, Note_on_c, 9, 59, 0
4, 22470, Note_on_c, 9, 59, 84
4, 22472, Note_on_c, 9, 51, 57
4, 22475, Note_on_c, 9, 53, 56
4, 22501, Note_on_c, 9, 53, 0
4, 22517, Note_on_c, 9, 51, 0
4, 22519, Note_on_c, 9, 59, 0
4, 22693, Note_on_c, 9, 44, 50
4, 22727, Note_on_c, 9, 44, 0
4, 22752, Note_on_c, 9, 59, 64
4, 22766, Note_on_c, 9, 59, 0
4, 22811, Note_on_c, 9, 59, 72
4, 22813, Note_on_c, 9, 44, 14
4, 22842, Note_on_c, 9, 59, 0
4, 22847, Note_on_c, 9, 44, 0
4, 22883, Note_on_c, 9, 59, 70
4, 22886, Note_on_c, 9, 38, 31
4, 22901, Note_on_c, 9, 38, 0
4, 22905, Note_on_c, 9, 59, 0
4, 22927, Note_on_c, 9, 59, 74
4, 22931, Note_on_c, 9, 44, 31
4, 22956, Note_on_c, 9, 59, 0
4, 22974, Note_on_c, 9, 44, 0
4, 23008, Note_on_c, 9, 38, 39
4, 23019, Note_on_c, 9, 38, 0
4, 23048, Note_on_c, 9, 59, 103
4, 23059, Note_on_c, 9, 38, 44
4, 23059, Note_on_c, 9, 57, 42
4, 23081, Note_on_c, 9, 59, 0
4, 23103, Note_on_c, 9, 57, 0
4, 23151, Note_on_c, 9, 38, 0
4, 23172, Note_on_c, 9, 44, 31
4, 23178, Note_on_c, 9, 59, 76
4, 23191, Note_on_c, 9, 44, 0
4, 23203, Note_on_c, 9, 59, 0
4, 23257, Note_on_c, 9, 59, 82
4, 23285, Note_on_c, 9, 44, 19
4, 23289, Note_on_c, 9, 59, 0
4, 23321, Note_on_c, 9, 44, 0
4, 23365, Note_on_c, 9, 38, 40
4, 23368, Note_on_c, 9, 59, 71
4, 23379, Note_on_c, 9, 38, 0
4, 23386, Note_on_c, 9, 59, 0
4, 23403, Note_on_c, 9, 44, 29
4, 23419, Note_on_c, 9, 59, 77
4, 23420, Note_on_c, 9, 57, 40
4, 23423, Note_on_c, 9, 36, 42
4, 23452, Note_on_c, 9, 44, 0
4, 23464, Note_on_c, 9, 59, 0
4, 23518, Note_on_c, 9, 57, 0
4, 23538, Note_on_c, 9, 44, 29
4, 23555, Note_on_c, 9, 44, 0
4, 23569, Note_on_c, 9, 36, 0
4, 23600, Note_on_c, 9, 59, 64
4, 23613, Note_on_c, 9, 59, 0
4, 23655, Note_on_c, 9, 44, 23
4, 23690, Note_on_c, 9, 44, 0
4, 23730, Note_on_c, 9, 59, 79
4, 23751, Note_on_c, 9, 59, 0
4, 23766, Note_on_c, 9, 44, 27
4, 23784, Note_on_c, 9, 59, 78
4, 23803, Note_on_c, 9, 44, 0
4, 23824, Note_on_c, 9, 59, 0
4, 23967, Note_on_c, 9, 59, 90
4, 23990, Note_on_c, 9, 59, 0
4, 24090, Note_on_c, 9, 59, 91
4, 24113, Note_on_c, 9, 59, 0
4, 24204, Note_on_c, 9, 38, 31
4, 24211, Note_on_c, 9, 59, 52
4, 24216, Note_on_c, 9, 38, 0
4, 24224, Note_on_c, 9, 59, 0
4, 24251, Note_on_c, 9, 38, 25
4, 24252, Note_on_c, 9, 44, 40
4, 24255, Note_on_c, 9, 59, 81
4, 24265, Note_on_c, 9, 44, 0
4, 24300, Note_on_c, 9, 59, 0
4, 24311, Note_on_c, 9, 38, 0
4, 24367, Note_on_c, 9, 44, 31
4, 24403, Note_on_c, 9, 44, 0
4, 24449, Note_on_c, 9, 59, 52
4, 24463, Note_on_c, 9, 59, 0
4, 24491, Note_on_c, 9, 59, 78
4, 24525, Note_on_c, 9, 59, 0
4, 24565, Note_on_c, 9, 59, 78
4, 24566, Note_on_c, 9, 38, 36
4, 24577, Note_on_c, 9, 38, 0
4, 24589, Note_on_c, 9, 59, 0
4, 24674, Note_on_c, 9, 44, 40
4, 24687, Note_on_c, 9, 44, 0
4, 24691, Note_on_c, 9, 59, 96
4, 24721, Note_on_c, 9, 59, 0
4, 24727, Note_on_c, 9, 44, 36
4, 24734, Note_on_c, 9, 38, 43
4, 24741, Note_on_c, 9, 44, 0
4, 24753, Note_on_c, 9, 38, 0
4, 24808, Note_on_c, 9, 59, 92
4, 24822, Note_on_c, 9, 44, 30
4, 24839, Note_on_c, 9, 59, 0
4, 24852, Note_on_c, 9, 44, 0
4, 24918, Note_on_c, 9, 38, 39
4, 24919, Note_on_c, 9, 59, 74
4, 24931, Note_on_c, 9, 38, 0
4, 24938, Note_on_c, 9, 59, 0
4, 24970, Note_on_c, 9, 59, 83
4, 25027, Note_on_c, 9, 59, 0
4, 25088, Note_on_c, 9, 44, 43
4, 25090, Note_on_c, 9, 38, 46
4, 25113, Note_on_c, 9, 44, 0
4, 25117, Note_on_c, 9, 38, 0
4, 25167, Note_on_c, 9, 59, 57
4, 25179, Note_on_c, 9, 59, 0
4, 25212, Note_on_c, 9, 59, 80
4, 25276, Note_on_c, 9, 59, 0
4, 25281, Note_on_c, 9, 38, 48
4, 25307, Note_on_c, 9, 38, 0
4, 25320, Note_on_c, 9, 44, 34
4, 25350, Note_on_c, 9, 44, 0
4, 25390, Note_on_c, 9, 59, 61
4, 25403, Note_on_c, 9, 59, 0
4, 25437, Note_on_c, 9, 59, 80
4, 25452, Note_on_c, 9, 38, 57
4, 25477, Note_on_c, 9, 38, 0
4, 25493, Note_on_c, 9, 59, 0
4, 25559, Note_on_c, 9, 44, 42
4, 25598, Note_on_c, 9, 44, 0
4, 25635, Note_on_c, 9, 59, 59
4, 25640, Note_on_c, 9, 38, 62
4, 25648, Note_on_c, 9, 59, 0
4, 25671, Note_on_c, 9, 38, 0
4, 25685, Note_on_c, 9, 59, 88
4, 25770, Note_on_c, 9, 59, 0
4, 25815, Note_on_c, 9, 44, 42
4, 25817, Note_on_c, 9, 38, 59
4, 25850, Note_on_c, 9, 44, 0
4, 25858, Note_on_c, 9, 38, 0
4, 25889, Note_on_c, 9, 59, 64
4, 25904, Note_on_c, 9, 59, 0
4, 25938, Note_on_c, 9, 59, 72
4, 25968, Note_on_c, 9, 59, 0
4, 26017, Note_on_c, 9, 51, 74
4, 26020, Note_on_c, 9, 53, 69
4, 26048, Note_on_c, 9, 53, 0
4, 26055, Note_on_c, 9, 51, 0
4, 26061, Note_on_c, 9, 46, 29
4, 26089, Note_on_c, 9, 46, 0
4, 26115, Note_on_c, 9, 38, 49
4, 26139, Note_on_c, 9, 38, 0
4, 26252, Note_on_c, 9, 51, 65
4, 26253, Note_on_c, 9, 53, 72
4, 26280, Note_on_c, 9, 53, 0
4, 26286, Note_on_c, 9, 51, 0
4, 26288, Note_on_c, 9, 38, 55
4, 26293, Note_on_c, 9, 46, 38
4, 26321, Note_on_c, 9, 38, 0
4, 26323, Note_on_c, 9, 46, 0
4, 26425, Note_on_c, 9, 51, 70
4, 26426, Note_on_c, 9, 53, 78
4, 26451, Note_on_c, 9, 53, 0
4, 26457, Note_on_c, 9, 51, 0
4, 26480, Note_on_c, 9, 38, 52
4, 26505, Note_on_c, 9, 38, 0
4, 26529, Note_on_c, 9, 46, 48
4, 26566, Note_on_c, 9, 46, 0
4, 26607, Note_on_c, 9, 38, 46
4, 26609, Note_on_c, 9, 51, 77
4, 26612, Note_on_c, 9, 53, 76
4, 26627, Note_on_c, 9, 38, 0
4, 26638, Note_on_c, 9, 53, 0
4, 26640, Note_on_c, 9, 51, 0
4, 26730, Note_on_c, 9, 51, 75
4, 26731, Note_on_c, 9, 53, 75
4, 26732, Note_on_c, 9, 38, 49
4, 26744, Note_on_c, 9, 53, 0
4, 26753, Note_on_c, 9, 51, 0
4, 26757, Note_on_c, 9, 38, 0
4, 26760, Note_on_c, 9, 46, 56
4, 26778, Note_on_c, 9, 59, 95
4, 26801, Note_on_c, 9, 46, 0
4, 26835, Note_on_c, 9, 59, 0
4, 26848, Note_on_c, 9, 38, 33
4, 26859, Note_on_c, 9, 38, 0
4, 26890, Note_on_c, 9, 59, 96
4, 26895, Note_on_c, 9, 57, 61
4, 26895, Note_on_c, 9, 38, 55
4, 26917, Note_on_c, 9, 57, 0
4, 26928, Note_on_c, 9, 38, 0
4, 26938, Note_on_c, 9, 59, 0
4, 27014, Note_on_c, 9, 59, 71
4, 27016, Note_on_c, 9, 44, 41
4, 27034, Note_on_c, 9, 59, 0
4, 27067, Note_on_c, 9, 44, 0
4, 27135, Note_on_c, 9, 59, 37
4, 27150, Note_on_c, 9, 59, 0
4, 27249, Note_on_c, 9, 59, 92
4, 27251, Note_on_c, 9, 44, 24
4, 27292, Note_on_c, 9, 59, 0
4, 27303, Note_on_c, 9, 44, 0
4, 27329, Note_on_c, 9, 59, 71
4, 27350, Note_on_c, 9, 59, 0
4, 27369, Note_on_c, 9, 59, 87
4, 27449, Note_on_c, 9, 59, 0
4, 27483, Note_on_c, 9, 44, 28
4, 27524, Note_on_c, 9, 44, 0
4, 27565, Note_on_c, 9, 59, 66
4, 27580, Note_on_c, 9, 59, 0
4, 27606, Note_on_c, 9, 59, 88
4, 27680, Note_on_c, 9, 59, 0
4, 27724, Note_on_c, 9, 59, 110
4, 27800, Note_on_c, 9, 59, 0
4, 27839, Note_on_c, 9, 59, 76
4, 27910, Note_on_c, 9, 59, 0
4, 27930, Note_on_c, 9, 59, 64
4, 27943, Note_on_c, 9, 59, 0
4, 27956, Note_on_c, 9, 44, 36
4, 27962, Note_on_c, 9, 59, 89
4, 28014, Note_on_c, 9, 44, 0
4, 28050, Note_on_c, 9, 59, 0
4, 28080, Note_on_c, 9, 59, 85
4, 28168, Note_on_c, 9, 59, 0
4, 28200, Note_on_c, 9, 44, 54
4, 28202, Note_on_c, 9, 59, 89
4, 28286, Note_on_c, 9, 44, 0
4, 28290, Note_on_c, 9, 59, 0
4, 28321, Note_on_c, 9, 59, 81
4, 28328, Note_on_c, 9, 38, 72
4, 28367, Note_on_c, 9, 38, 0
4, 28390, Note_on_c, 9, 59, 0
4, 28418, Note_on_c, 9, 59, 64
4, 28428, Note_on_c, 9, 59, 0
4, 28442, Note_on_c, 9, 44, 46
4, 28443, Note_on_c, 9, 38, 82
4, 28445, Note_on_c, 9, 59, 88
4, 28490, Note_on_c, 9, 38, 0
4, 28504, Note_on_c, 9, 44, 0
4, 28533, Note_on_c, 9, 59, 0
4, 28558, Note_on_c, 9, 59, 82
4, 28562, Note_on_c, 9, 38, 70
4, 28587, Note_on_c, 9, 38, 0
4, 28637, Note_on_c, 9, 36, 52
4, 28644, Note_on_c, 9, 59, 0
4, 28660, Note_on_c, 9, 59, 62
4, 28671, Note_on_c, 9, 59, 0
4, 28681, Note_on_c, 9, 44, 44
4, 28690, Note_on_c, 9, 59, 80
4, 28723, Note_on_c, 9, 36, 0
4, 28742, Note_on_c, 9, 44, 0
4, 28785, Note_on_c, 9, 59, 0
4, 28812, Note_on_c, 9, 59, 81
4, 28814, Note_on_c, 9, 57, 69
4, 28816, Note_on_c, 9, 36, 54
4, 28883, Note_on_c, 9, 57, 0
4, 28904, Note_on_c, 9, 59, 0
4, 28926, Note_on_c, 9, 44, 26
4, 28932, Note_on_c, 9, 59, 78
4, 28967, Note_on_c, 9, 44, 0
4, 29020, Note_on_c, 9, 59, 0
4, 29052, Note_on_c, 9, 59, 77
4, 29100, Note_on_c, 9, 36, 0
4, 29127, Note_on_c, 9, 38, 51
4, 29135, Note_on_c, 9, 59, 0
4, 29160, Note_on_c, 9, 46, 34
4, 29161, Note_on_c, 9, 38, 0
4, 29171, Note_on_c, 9, 59, 80
4, 29172, Note_on_c, 9, 36, 58
4, 29206, Note_on_c, 9, 46, 0
4, 29235, Note_on_c, 9, 59, 0
4, 29248, Note_on_c, 9, 36, 0
4, 29259, Note_on_c, 9, 59, 67
4, 29268, Note_on_c, 9, 59, 0
4, 29286, Note_on_c, 9, 59, 82
4, 29377, Note_on_c, 9, 59, 0
4, 29400, Note_on_c, 9, 44, 36
4, 29406, Note_on_c, 9, 59, 87
4, 29447, Note_on_c, 9, 44, 0
4, 29474, Note_on_c, 9, 59, 0
4, 29494, Note_on_c, 9, 59, 74
4, 29517, Note_on_c, 9, 59, 0
4, 29531, Note_on_c, 9, 59, 89
4, 29614, Note_on_c, 9, 59, 0
4, 29642, Note_on_c, 9, 59, 89
4, 29643, Note_on_c, 9, 44, 54
4, 29709, Note_on_c, 9, 44, 0
4, 29730, Note_on_c, 9, 59, 0
4, 29793, Note_on_c, 9, 59, 41
4, 29806, Note_on_c, 9, 59, 0
4, 29848, Note_on_c, 9, 59, 74
4, 29869, Note_on_c, 9, 59, 0
4, 29879, Note_on_c, 9, 44, 34
4, 29883, Note_on_c, 9, 59, 87
4, 29947, Note_on_c, 9, 44, 0
4, 29949, Note_on_c, 9, 59, 0
4, 29955, Note_on_c, 9, 53, 90
4, 30128, Note_on_c, 9, 59, 85
4, 30130, Note_on_c, 9, 44, 54
4, 30197, Note_on_c, 9, 38, 22
4, 30198, Note_on_c, 9, 44, 0
4, 30201, Note_on_c, 9, 59, 0
4, 30223, Note_on_c, 9, 38, 0
4, 30239, Note_on_c, 9, 53, 0
4, 30242, Note_on_c, 9, 59, 80
4, 30256, Note_on_c, 9, 38, 14
4, 30294, Note_on_c, 9, 38, 0
4, 30313, Note_on_c, 9, 59, 0
4, 30358, Note_on_c, 9, 59, 75
4, 30361, Note_on_c, 9, 44, 25
4, 30430, Note_on_c, 9, 44, 0
4, 30430, Note_on_c, 9, 59, 0
4, 30485, Note_on_c, 9, 59, 76
4, 30566, Note_on_c, 9, 59, 0
4, 30601, Note_on_c, 9, 59, 61
4, 30607, Note_on_c, 9, 44, 24
4, 30645, Note_on_c, 9, 38, 20
4, 30647, Note_on_c, 9, 59, 0
4, 30658, Note_on_c, 9, 38, 0
4, 30669, Note_on_c, 9, 44, 0
4, 30672, Note_on_c, 9, 38, 22
4, 30686, Note_on_c, 9, 59, 96
4, 30689, Note_on_c, 9, 38, 0
4, 30710, Note_on_c, 9, 38, 26
4, 30722, Note_on_c, 9, 38, 0
4, 30792, Note_on_c, 9, 59, 0
4, 30848, Note_on_c, 9, 59, 94
4, 30848, Note_on_c, 9, 44, 32
4, 30903, Note_on_c, 9, 44, 0
4, 30938, Note_on_c, 9, 59, 0
4, 30938, Note_on_c, 9, 36, 16
4, 30961, Note_on_c, 9, 36, 0
4, 30970, Note_on_c, 9, 59, 58
4, 31022, Note_on_c, 9, 59, 0
4, 31054, Note_on_c, 9, 59, 101
4, 31083, Note_on_c, 9, 44, 37
4, 31153, Note_on_c, 9, 44, 0
4, 31153, Note_on_c, 9, 59, 0
4, 31162, Note_on_c, 9, 38, 6
4, 31177, Note_on_c, 9, 59, 48
4, 31189, Note_on_c, 9, 59, 0
4, 31193, Note_on_c, 9, 38, 0
4, 31204, Note_on_c, 9, 44, 34
4, 31211, Note_on_c, 9, 59, 83
4, 31211, Note_on_c, 9, 36, 40
4, 31248, Note_on_c, 9, 36, 0
4, 31275, Note_on_c, 9, 44, 0
4, 31290, Note_on_c, 9, 59, 0
4, 31329, Note_on_c, 9, 59, 96
4, 31377, Note_on_c, 9, 38, 20
4, 31398, Note_on_c, 9, 59, 0
4, 31407, Note_on_c, 9, 38, 0
4, 31415, Note_on_c, 9, 38, 34
4, 31418, Note_on_c, 9, 59, 68
4, 31426, Note_on_c, 9, 38, 0
4, 31428, Note_on_c, 9, 59, 0
4, 31447, Note_on_c, 9, 59, 90
4, 31455, Note_on_c, 9, 36, 45
4, 31498, Note_on_c, 9, 36, 0
4, 31515, Note_on_c, 9, 59, 0
4, 31560, Note_on_c, 9, 59, 99
4, 31560, Note_on_c, 9, 44, 42
4, 31621, Note_on_c, 9, 44, 0
4, 31631, Note_on_c, 9, 59, 0
4, 31673, Note_on_c, 9, 59, 94
4, 31749, Note_on_c, 9, 59, 0
4, 31772, Note_on_c, 9, 59, 57
4, 31782, Note_on_c, 9, 59, 0
4, 31805, Note_on_c, 9, 59, 82
4, 31808, Note_on_c, 9, 44, 41
4, 31877, Note_on_c, 9, 44, 0
4, 31887, Note_on_c, 9, 59, 0
4, 31929, Note_on_c, 9, 59, 90
4, 31992, Note_on_c, 9, 59, 0
4, 32047, Note_on_c, 9, 59, 88
4, 32047, Note_on_c, 9, 44, 47
4, 32098, Note_on_c, 9, 59, 0
4, 32120, Note_on_c, 9, 44, 0
4, 32138, Note_on_c, 9, 59, 64
4, 32149, Note_on_c, 9, 59, 0
4, 32165, Note_on_c, 9, 44, 44
4, 32171, Note_on_c, 9, 59, 89
4, 32239, Note_on_c, 9, 44, 0
4, 32247, Note_on_c, 9, 59, 0
4, 32285, Note_on_c, 9, 59, 89
4, 32343, Note_on_c, 9, 59, 0
4, 32374, Note_on_c, 9, 59, 62
4, 32386, Note_on_c, 9, 59, 0
4, 32398, Note_on_c, 9, 44, 40
4, 32408, Note_on_c, 9, 59, 83
4, 32418, Note_on_c, 9, 38, 20
4, 32438, Note_on_c, 9, 38, 0
4, 32467, Note_on_c, 9, 44, 0
4, 32491, Note_on_c, 9, 59, 0
4, 32520, Note_on_c, 9, 59, 90
4, 32520, Note_on_c, 9, 44, 41
4, 32545, Note_on_c, 9, 38, 31
4, 32556, Note_on_c, 9, 38, 0
4, 32592, Note_on_c, 9, 38, 38
4, 32596, Note_on_c, 9, 59, 0
4, 32601, Note_on_c, 9, 44, 0
4, 32602, Note_on_c, 9, 38, 0
4, 32645, Note_on_c, 9, 59, 92
4, 32670, Note_on_c, 9, 38, 36
4, 32682, Note_on_c, 9, 38, 0
4, 32706, Note_on_c, 9, 59, 0
4, 32731, Note_on_c, 9, 59, 60
4, 32743, Note_on_c, 9, 38, 40
4, 32745, Note_on_c, 9, 59, 0
4, 32753, Note_on_c, 9, 38, 0
4, 32762, Note_on_c, 9, 44, 43
4, 32765, Note_on_c, 9, 59, 91
4, 32830, Note_on_c, 9, 44, 0
4, 32846, Note_on_c, 9, 59, 0
4, 32856, Note_on_c, 9, 36, 44
4, 32884, Note_on_c, 9, 59, 92
4, 32885, Note_on_c, 9, 36, 0
4, 32905, Note_on_c, 9, 36, 36
4, 32954, Note_on_c, 9, 36, 0
4, 32961, Note_on_c, 9, 59, 0
4, 33003, Note_on_c, 9, 44, 39
4, 33005, Note_on_c, 9, 59, 89
4, 33066, Note_on_c, 9, 59, 0
4, 33073, Note_on_c, 9, 44, 0
4, 33095, Note_on_c, 9, 59, 57
4, 33108, Note_on_c, 9, 59, 0
4, 33127, Note_on_c, 9, 59, 88
4, 33209, Note_on_c, 9, 59, 0
4, 33244, Note_on_c, 9, 59, 87
4, 33246, Note_on_c, 9, 44, 41
4, 33305, Note_on_c, 9, 59, 0
4, 33306, Note_on_c, 9, 44, 0
4, 33343, Note_on_c, 9, 38, 30
4, 33366, Note_on_c, 9, 59, 81
4, 33368, Note_on_c, 9, 38, 0
4, 33426, Note_on_c, 9, 59, 0
4, 33455, Note_on_c, 9, 59, 74
4, 33455, Note_on_c, 9, 38, 40
4, 33478, Note_on_c, 9, 59, 0
4, 33490, Note_on_c, 9, 59, 89
4, 33496, Note_on_c, 9, 38, 0
4, 33496, Note_on_c, 9, 44, 47
4, 33544, Note_on_c, 9, 44, 0
4, 33569, Note_on_c, 9, 38, 41
4, 33578, Note_on_c, 9, 59, 0
4, 33599, Note_on_c, 9, 59, 82
4, 33603, Note_on_c, 9, 38, 0
4, 33622, Note_on_c, 9, 38, 31
4, 33674, Note_on_c, 9, 59, 0
4, 33687, Note_on_c, 9, 38, 0
4, 33694, Note_on_c, 9, 59, 55
4, 33706, Note_on_c, 9, 59, 0
4, 33727, Note_on_c, 9, 59, 84
4, 33728, Note_on_c, 9, 44, 41
4, 33795, Note_on_c, 9, 44, 0
4, 33812, Note_on_c, 9, 59, 0
4, 33845, Note_on_c, 9, 44, 42
4, 33846, Note_on_c, 9, 59, 87
4, 33913, Note_on_c, 9, 59, 0
4, 33921, Note_on_c, 9, 44, 0
4, 33936, Note_on_c, 9, 59, 64
4, 33946, Note_on_c, 9, 59, 0
4, 33965, Note_on_c, 9, 59, 83
4, 34023, Note_on_c, 9, 59, 0
4, 34039, Note_on_c, 9, 59, 91
4, 34089, Note_on_c, 9, 44, 45
4, 34138, Note_on_c, 9, 59, 0
4, 34142, Note_on_c, 9, 44, 0
4, 34165, Note_on_c, 9, 59, 57
4, 34183, Note_on_c, 9, 59, 0
4, 34206, Note_on_c, 9, 59, 87
4, 34209, Note_on_c, 9, 44, 47
4, 34273, Note_on_c, 9, 44, 0
4, 34295, Note_on_c, 9, 59, 0
4, 34328, Note_on_c, 9, 59, 61
4, 34377, Note_on_c, 9, 59, 0
4, 34407, Note_on_c, 9, 59, 74
4, 34428, Note_on_c, 9, 59, 0
4, 34444, Note_on_c, 9, 44, 42
4, 34446, Note_on_c, 9, 59, 95
4, 34456, Note_on_c, 9, 38, 33
4, 34467, Note_on_c, 9, 38, 0
4, 34496, Note_on_c, 9, 59, 0
4, 34499, Note_on_c, 9, 44, 0
4, 34522, Note_on_c, 9, 59, 84
4, 34524, Note_on_c, 9, 38, 58
4, 34544, Note_on_c, 9, 59, 0
4, 34547, Note_on_c, 9, 38, 0
4, 34562, Note_on_c, 9, 59, 94
4, 34566, Note_on_c, 9, 44, 45
4, 34642, Note_on_c, 9, 44, 0
4, 34657, Note_on_c, 9, 59, 0
4, 34680, Note_on_c, 9, 59, 62
4, 34715, Note_on_c, 9, 59, 0
4, 34758, Note_on_c, 9, 59, 60
4, 34777, Note_on_c, 9, 59, 0
4, 34797, Note_on_c, 9, 59, 89
4, 34871, Note_on_c, 9, 59, 0
4, 35005, Note_on_c, 9, 59, 87
4, 35031, Note_on_c, 9, 59, 0
4, 35053, Note_on_c, 9, 59, 70
4, 35122, Note_on_c, 9, 59, 0
4, 35155, Note_on_c, 9, 44, 35
4, 35162, Note_on_c, 9, 59, 77
4, 35206, Note_on_c, 9, 44, 0
4, 35215, Note_on_c, 9, 59, 0
4, 35247, Note_on_c, 9, 59, 56
4, 35260, Note_on_c, 9, 59, 0
4, 35284, Note_on_c, 9, 59, 76
4, 35355, Note_on_c, 9, 59, 0
4, 35400, Note_on_c, 9, 59, 84
4, 35404, Note_on_c, 9, 46, 28
4, 35406, Note_on_c, 9, 38, 20
4, 35420, Note_on_c, 9, 38, 0
4, 35445, Note_on_c, 9, 46, 0
4, 35455, Note_on_c, 9, 59, 0
4, 35482, Note_on_c, 9, 59, 51
4, 35487, Note_on_c, 9, 38, 30
4, 35498, Note_on_c, 9, 59, 0
4, 35500, Note_on_c, 9, 38, 0
4, 35524, Note_on_c, 9, 59, 67
4, 35586, Note_on_c, 9, 59, 0
4, 35597, Note_on_c, 9, 53, 76
4, 35644, Note_on_c, 9, 44, 30
4, 35707, Note_on_c, 9, 44, 0
4, 35768, Note_on_c, 9, 59, 69
4, 35775, Note_on_c, 9, 53, 0
4, 35836, Note_on_c, 9, 59, 0
4, 35863, Note_on_c, 9, 59, 51
4, 35880, Note_on_c, 9, 44, 35
4, 35896, Note_on_c, 9, 59, 0
4, 35935, Note_on_c, 9, 44, 0
4, 35957, Note_on_c, 9, 59, 76
4, 35987, Note_on_c, 9, 59, 0
4, 36007, Note_on_c, 9, 59, 59
4, 36074, Note_on_c, 9, 59, 0
4, 36117, Note_on_c, 9, 59, 73
4, 36117, Note_on_c, 9, 44, 51
4, 36163, Note_on_c, 9, 44, 0
4, 36170, Note_on_c, 9, 59, 0
4, 36178, Note_on_c, 9, 38, 34
4, 36190, Note_on_c, 9, 38, 0
4, 36196, Note_on_c, 9, 59, 60
4, 36221, Note_on_c, 9, 59, 0
4, 36231, Note_on_c, 9, 38, 27
4, 36244, Note_on_c, 9, 59, 66
4, 36262, Note_on_c, 9, 38, 0
4, 36288, Note_on_c, 9, 59, 0
4, 36348, Note_on_c, 9, 59, 83
4, 36349, Note_on_c, 9, 44, 46
4, 36387, Note_on_c, 9, 44, 0
4, 36393, Note_on_c, 9, 59, 0
4, 36423, Note_on_c, 9, 38, 29
4, 36430, Note_on_c, 9, 59, 81
4, 36435, Note_on_c, 9, 38, 0
4, 36467, Note_on_c, 9, 59, 0
4, 36468, Note_on_c, 9, 38, 26
4, 36501, Note_on_c, 9, 38, 0
4, 36519, Note_on_c, 9, 59, 82
4, 36556, Note_on_c, 9, 59, 0
4, 36556, Note_on_c, 9, 36, 31
4, 36590, Note_on_c, 9, 36, 0
4, 36600, Note_on_c, 9, 44, 28
4, 36604, Note_on_c, 9, 59, 67
4, 36636, Note_on_c, 9, 44, 0
4, 36642, Note_on_c, 9, 59, 0
4, 36689, Note_on_c, 9, 59, 82
4, 36689, Note_on_c, 9, 44, 37
4, 36725, Note_on_c, 9, 44, 0
4, 36745, Note_on_c, 9, 59, 0
4, 36764, Note_on_c, 9, 59, 68
4, 36780, Note_on_c, 9, 44, 37
4, 36794, Note_on_c, 9, 59, 0
4, 36822, Note_on_c, 9, 44, 0
4, 36860, Note_on_c, 9, 59, 83
4, 36867, Note_on_c, 9, 44, 36
4, 36906, Note_on_c, 9, 44, 0
4, 36906, Note_on_c, 9, 59, 0
4, 36913, Note_on_c, 9, 38, 30
4, 36923, Note_on_c, 9, 38, 0
4, 36937, Note_on_c, 9, 59, 80
4, 36942, Note_on_c, 9, 44, 39
4, 36963, Note_on_c, 9, 36, 22
4, 36982, Note_on_c, 9, 36, 0
4, 36983, Note_on_c, 9, 44, 0
4, 37031, Note_on_c, 9, 38, 26
4, 37035, Note_on_c, 9, 59, 0
4, 37044, Note_on_c, 9, 38, 0
4, 37052, Note_on_c, 9, 59, 57
4, 37064, Note_on_c, 9, 59, 0
4, 37082, Note_on_c, 9, 44, 37
4, 37091, Note_on_c, 9, 59, 72
4, 37136, Note_on_c, 9, 44, 0
4, 37162, Note_on_c, 9, 59, 0
4, 37199, Note_on_c, 9, 59, 78
4, 37252, Note_on_c, 9, 59, 0
4, 37317, Note_on_c, 9, 59, 80
4, 37324, Note_on_c, 9, 44, 34
4, 37368, Note_on_c, 9, 59, 0
4, 37371, Note_on_c, 9, 44, 0
4, 37399, Note_on_c, 9, 59, 56
4, 37417, Note_on_c, 9, 59, 0
4, 37439, Note_on_c, 9, 59, 81
4, 37506, Note_on_c, 9, 59, 0
4, 37557, Note_on_c, 9, 59, 83
4, 37559, Note_on_c, 9, 44, 34
4, 37613, Note_on_c, 9, 59, 0
4, 37618, Note_on_c, 9, 44, 0
4, 37645, Note_on_c, 9, 59, 54
4, 37666, Note_on_c, 9, 59, 0
4, 37686, Note_on_c, 9, 59, 80
4, 37774, Note_on_c, 9, 38, 13
4, 37781, Note_on_c, 9, 59, 0
4, 37784, Note_on_c, 9, 38, 0
4, 37801, Note_on_c, 9, 44, 35
4, 37812, Note_on_c, 9, 59, 78
4, 37816, Note_on_c, 9, 37, 46
4, 37852, Note_on_c, 9, 37, 0
4, 37860, Note_on_c, 9, 44, 0
4, 37871, Note_on_c, 9, 59, 0
4, 37895, Note_on_c, 9, 59, 58
4, 37914, Note_on_c, 9, 59, 0
4, 37932, Note_on_c, 9, 59, 76
4, 38014, Note_on_c, 9, 59, 0
4, 38037, Note_on_c, 9, 37, 47
4, 38045, Note_on_c, 9, 44, 41
4, 38051, Note_on_c, 9, 59, 85
4, 38083, Note_on_c, 9, 37, 0
4, 38097, Note_on_c, 9, 44, 0
4, 38122, Note_on_c, 9, 59, 0
4, 38169, Note_on_c, 9, 59, 79
4, 38228, Note_on_c, 9, 59, 0
4, 38254, Note_on_c, 9, 59, 58
4, 38274, Note_on_c, 9, 59, 0
4, 38289, Note_on_c, 9, 44, 48
4, 38290, Note_on_c, 9, 59, 82
4, 38293, Note_on_c, 9, 37, 42
4, 38329, Note_on_c, 9, 44, 0
4, 38339, Note_on_c, 9, 37, 0
4, 38347, Note_on_c, 9, 59, 0
4, 38372, Note_on_c, 9, 59, 80
4, 38424, Note_on_c, 9, 59, 0
4, 38443, Note_on_c, 9, 59, 76
4, 38498, Note_on_c, 9, 59, 0
4, 38521, Note_on_c, 9, 37, 41
4, 38525, Note_on_c, 9, 44, 46
4, 38534, Note_on_c, 9, 59, 82
4, 38569, Note_on_c, 9, 37, 0
4, 38583, Note_on_c, 9, 59, 0
4, 38588, Note_on_c, 9, 44, 0
4, 38608, Note_on_c, 9, 59, 65
4, 38631, Note_on_c, 9, 59, 0
4, 38689, Note_on_c, 9, 59, 85
4, 38724, Note_on_c, 9, 59, 0
4, 38764, Note_on_c, 9, 44, 43
4, 38766, Note_on_c, 9, 37, 46
4, 38781, Note_on_c, 9, 59, 91
4, 38823, Note_on_c, 9, 44, 0
4, 38825, Note_on_c, 9, 59, 0
4, 38828, Note_on_c, 9, 37, 0
4, 38860, Note_on_c, 9, 59, 89
4, 38944, Note_on_c, 9, 59, 0
4, 38962, Note_on_c, 9, 59, 69
4, 38974, Note_on_c, 9, 59, 0
4, 38997, Note_on_c, 9, 44, 44
4, 39004, Note_on_c, 9, 37, 54
4, 39005, Note_on_c, 9, 59, 87
4, 39043, Note_on_c, 9, 44, 0
4, 39060, Note_on_c, 9, 37, 0
4, 39080, Note_on_c, 9, 59, 0
4, 39115, Note_on_c, 9, 59, 87
4, 39170, Note_on_c, 9, 59, 0
4, 39216, Note_on_c, 9, 59, 80
4, 39233, Note_on_c, 9, 59, 0
4, 39236, Note_on_c, 9, 44, 44
4, 39237, Note_on_c, 9, 38, 60
4, 39290, Note_on_c, 9, 44, 0
4, 39305, Note_on_c, 9, 38, 0
4, 39324, Note_on_c, 9, 59, 108
4, 39334, Note_on_c, 9, 57, 84
4, 39442, Note_on_c, 9, 59, 0
4, 39449, Note_on_c, 9, 57, 0
4, 39483, Note_on_c, 9, 59, 59
4, 39489, Note_on_c, 9, 44, 49
4, 39536, Note_on_c, 9, 44, 0
4, 39544, Note_on_c, 9, 59, 0
4, 39569, Note_on_c, 9, 59, 66
4, 39589, Note_on_c, 9, 59, 0
4, 39613, Note_on_c, 9, 59, 70
4, 39664, Note_on_c, 9, 59, 0
4, 39685, Note_on_c, 9, 59, 85
4, 39692, Note_on_c, 9, 57, 85
4, 39725, Note_on_c, 9, 44, 51
4, 39768, Note_on_c, 9, 57, 0
4, 39783, Note_on_c, 9, 44, 0
4, 39796, Note_on_c, 9, 59, 0
4, 39837, Note_on_c, 9, 59, 55
4, 39892, Note_on_c, 9, 59, 0
4, 39960, Note_on_c, 9, 59, 68
4, 39963, Note_on_c, 9, 44, 51
4, 40020, Note_on_c, 9, 59, 0
4, 40030, Note_on_c, 9, 44, 0
4, 40045, Note_on_c, 9, 59, 54
4, 40062, Note_on_c, 9, 59, 0
4, 40082, Note_on_c, 9, 59, 67
4, 40162, Note_on_c, 9, 59, 0
4, 40196, Note_on_c, 9, 59, 81
4, 40204, Note_on_c, 9, 44, 50
4, 40259, Note_on_c, 9, 59, 0
4, 40282, Note_on_c, 9, 44, 0
4, 40283, Note_on_c, 9, 59, 51
4, 40302, Note_on_c, 9, 59, 0
4, 40323, Note_on_c, 9, 59, 74
4, 40402, Note_on_c, 9, 59, 0
4, 40442, Note_on_c, 9, 59, 73
4, 40445, Note_on_c, 9, 44, 48
4, 40498, Note_on_c, 9, 44, 0
4, 40512, Note_on_c, 9, 59, 0
4, 40532, Note_on_c, 9, 59, 56
4, 40543, Note_on_c, 9, 59, 0
4, 40567, Note_on_c, 9, 59, 68
4, 40570, Note_on_c, 9, 38, 24
4, 40588, Note_on_c, 9, 38, 0
4, 40638, Note_on_c, 9, 59, 0
4, 40647, Note_on_c, 9, 38, 26
4, 40676, Note_on_c, 9, 38, 0
4, 40681, Note_on_c, 9, 59, 92
4, 40685, Note_on_c, 9, 44, 39
4, 40752, Note_on_c, 9, 44, 0
4, 40779, Note_on_c, 9, 59, 0
4, 40802, Note_on_c, 9, 44, 41
4, 40804, Note_on_c, 9, 59, 64
4, 40812, Note_on_c, 9, 38, 22
4, 40826, Note_on_c, 9, 59, 0
4, 40841, Note_on_c, 9, 38, 0
4, 40879, Note_on_c, 9, 44, 0
4, 40880, Note_on_c, 9, 59, 90
4, 40990, Note_on_c, 9, 59, 0
4, 41014, Note_on_c, 9, 59, 52
4, 41026, Note_on_c, 9, 59, 0
4, 41045, Note_on_c, 9, 44, 40
4, 41059, Note_on_c, 9, 59, 91
4, 41108, Note_on_c, 9, 44, 0
4, 41143, Note_on_c, 9, 59, 0
4, 41165, Note_on_c, 9, 44, 45
4, 41173, Note_on_c, 9, 59, 43
4, 41198, Note_on_c, 9, 59, 0
4, 41245, Note_on_c, 9, 44, 0
4, 41250, Note_on_c, 9, 59, 90
4, 41251, Note_on_c, 9, 38, 23
4, 41269, Note_on_c, 9, 38, 0
4, 41351, Note_on_c, 9, 59, 0
4, 41374, Note_on_c, 9, 38, 33
4, 41379, Note_on_c, 9, 59, 38
4, 41392, Note_on_c, 9, 59, 0
4, 41399, Note_on_c, 9, 38, 0
4, 41403, Note_on_c, 9, 44, 47
4, 41415, Note_on_c, 9, 59, 79
4, 41473, Note_on_c, 9, 44, 0
4, 41483, Note_on_c, 9, 59, 0
4, 41503, Note_on_c, 9, 37, 26
4, 41530, Note_on_c, 9, 59, 84
4, 41531, Note_on_c, 9, 37, 0
4, 41554, Note_on_c, 9, 38, 21
4, 41602, Note_on_c, 9, 59, 0
4, 41611, Note_on_c, 9, 38, 0
4, 41647, Note_on_c, 9, 44, 44
4, 41649, Note_on_c, 9, 59, 78
4, 41654, Note_on_c, 9, 53, 62
4, 41709, Note_on_c, 9, 59, 0
4, 41725, Note_on_c, 9, 44, 0
4, 41737, Note_on_c, 9, 59, 57
4, 41776, Note_on_c, 9, 53, 0
4, 41791, Note_on_c, 9, 59, 0
4, 41845, Note_on_c, 9, 38, 35
4, 41848, Note_on_c, 9, 59, 80
4, 41854, Note_on_c, 9, 53, 71
4, 41859, Note_on_c, 9, 38, 0
4, 41883, Note_on_c, 9, 59, 0
4, 41890, Note_on_c, 9, 44, 51
4, 41906, Note_on_c, 9, 59, 54
4, 41951, Note_on_c, 9, 44, 0
4, 41963, Note_on_c, 9, 38, 51
4, 41970, Note_on_c, 9, 59, 0
4, 41977, Note_on_c, 9, 53, 0
4, 41988, Note_on_c, 9, 38, 0
4, 42014, Note_on_c, 9, 59, 84
4, 42015, Note_on_c, 9, 53, 65
4, 42021, Note_on_c, 9, 40, 43
4, 42056, Note_on_c, 9, 40, 0
4, 42071, Note_on_c, 9, 59, 0
4, 42124, Note_on_c, 9, 44, 48
4, 42126, Note_on_c, 9, 53, 0
4, 42136, Note_on_c, 9, 59, 56
4, 42175, Note_on_c, 9, 59, 0
4, 42180, Note_on_c, 9, 44, 0
4, 42208, Note_on_c, 9, 40, 38
4, 42212, Note_on_c, 9, 51, 81
4, 42213, Note_on_c, 9, 53, 77
4, 42219, Note_on_c, 9, 40, 0
4, 42242, Note_on_c, 9, 53, 0
4, 42255, Note_on_c, 9, 51, 0
4, 42258, Note_on_c, 9, 36, 47
4, 42259, Note_on_c, 9, 40, 41
4, 42259, Note_on_c, 9, 57, 56
4, 42282, Note_on_c, 9, 40, 0
4, 42289, Note_on_c, 9, 57, 0
4, 42338, Note_on_c, 9, 36, 0
4, 42368, Note_on_c, 9, 44, 40
4, 42369, Note_on_c, 9, 51, 74
4, 42418, Note_on_c, 9, 44, 0
4, 42439, Note_on_c, 9, 51, 0
4, 42491, Note_on_c, 9, 51, 93
4, 42553, Note_on_c, 9, 51, 0
4, 42564, Note_on_c, 9, 38, 40
4, 42575, Note_on_c, 9, 38, 0
4, 42608, Note_on_c, 9, 51, 97
4, 42614, Note_on_c, 9, 44, 48
4, 42617, Note_on_c, 9, 36, 54
4, 42618, Note_on_c, 9, 57, 53
4, 42670, Note_on_c, 9, 57, 0
4, 42671, Note_on_c, 9, 44, 0
4, 42691, Note_on_c, 9, 51, 0
4, 42706, Note_on_c, 9, 36, 0
4, 42723, Note_on_c, 9, 51, 64
4, 42791, Note_on_c, 9, 51, 0
4, 42842, Note_on_c, 9, 51, 83
4, 42852, Note_on_c, 9, 44, 42
4, 42895, Note_on_c, 9, 51, 0
4, 42912, Note_on_c, 9, 44, 0
4, 42942, Note_on_c, 9, 51, 59
4, 42946, Note_on_c, 9, 51, 0
4, 42968, Note_on_c, 9, 51, 69
4, 43049, Note_on_c, 9, 51, 0
4, 43081, Note_on_c, 9, 44, 44
4, 43090, Note_on_c, 9, 51, 83
4, 43143, Note_on_c, 9, 51, 0
4, 43151, Note_on_c, 9, 44, 0
4, 43182, Note_on_c, 9, 51, 51
4, 43197, Note_on_c, 9, 51, 0
4, 43213, Note_on_c, 9, 51, 75
4, 43268, Note_on_c, 9, 51, 0
4, 43317, Note_on_c, 9, 44, 36
4, 43320, Note_on_c, 9, 51, 83
4, 43382, Note_on_c, 9, 44, 0
4, 43387, Note_on_c, 9, 51, 0
4, 43406, Note_on_c, 9, 36, 27
4, 43411, Note_on_c, 9, 51, 50
4, 43424, Note_on_c, 9, 36, 0
4, 43431, Note_on_c, 9, 51, 0
4, 43445, Note_on_c, 9, 51, 79
4, 43446, Note_on_c, 9, 44, 43
4, 43505, Note_on_c, 9, 51, 0
4, 43523, Note_on_c, 9, 44, 0
4, 43558, Note_on_c, 9, 51, 85
4, 43576, Note_on_c, 9, 36, 25
4, 43617, Note_on_c, 9, 36, 0
4, 43631, Note_on_c, 9, 51, 0
4, 43681, Note_on_c, 9, 51, 81
4, 43747, Note_on_c, 9, 51, 0
4, 43799, Note_on_c, 9, 44, 41
4, 43805, Note_on_c, 9, 51, 83
4, 43869, Note_on_c, 9, 44, 0
4, 43875, Note_on_c, 9, 51, 0
4, 43923, Note_on_c, 9, 51, 78
4, 43996, Note_on_c, 9, 51, 0
4, 44043, Note_on_c, 9, 44, 45
4, 44046, Note_on_c, 9, 51, 81
4, 44089, Note_on_c, 9, 51, 0
4, 44099, Note_on_c, 9, 44, 0
4, 44135, Note_on_c, 9, 51, 62
4, 44156, Note_on_c, 9, 51, 0
4, 44167, Note_on_c, 9, 51, 55
4, 44223, Note_on_c, 9, 51, 0
4, 44280, Note_on_c, 9, 51, 81
4, 44280, Note_on_c, 9, 44, 41
4, 44331, Note_on_c, 9, 51, 0
4, 44332, Note_on_c, 9, 44, 0
4, 44369, Note_on_c, 9, 38, 24
4, 44373, Note_on_c, 9, 51, 55
4, 44384, Note_on_c, 9, 51, 0
4, 44386, Note_on_c, 9, 38, 0
4, 44402, Note_on_c, 9, 38, 23
4, 44403, Note_on_c, 9, 51, 62
4, 44416, Note_on_c, 9, 38, 0
4, 44474, Note_on_c, 9, 51, 0
4, 44484, Note_on_c, 9, 36, 28
4, 44508, Note_on_c, 9, 36, 0
4, 44519, Note_on_c, 9, 44, 42
4, 44523, Note_on_c, 9, 51, 79
4, 44570, Note_on_c, 9, 44, 0
4, 44575, Note_on_c, 9, 51, 0
4, 44610, Note_on_c, 9, 51, 45
4, 44622, Note_on_c, 9, 51, 0
4, 44645, Note_on_c, 9, 51, 61
4, 44711, Note_on_c, 9, 51, 0
4, 44763, Note_on_c, 9, 51, 83
4, 44771, Note_on_c, 9, 44, 37
4, 44804, Note_on_c, 9, 44, 0
4, 44836, Note_on_c, 9, 51, 0
4, 44885, Note_on_c, 9, 51, 79
4, 44890, Note_on_c, 9, 46, 36
4, 44922, Note_on_c, 9, 46, 0
4, 44939, Note_on_c, 9, 51, 0
4, 44978, Note_on_c, 9, 51, 59
4, 44987, Note_on_c, 9, 51, 0
4, 45011, Note_on_c, 9, 51, 70
4, 45022, Note_on_c, 9, 38, 24
4, 45050, Note_on_c, 9, 38, 0
4, 45059, Note_on_c, 9, 51, 0
4, 45098, Note_on_c, 9, 38, 29
4, 45100, Note_on_c, 9, 51, 83
4, 45110, Note_on_c, 9, 38, 0
4, 45154, Note_on_c, 9, 51, 0
4, 45218, Note_on_c, 9, 36, 29
4, 45224, Note_on_c, 9, 51, 68
4, 45233, Note_on_c, 9, 36, 0
4, 45240, Note_on_c, 9, 44, 36
4, 45247, Note_on_c, 9, 51, 0
4, 45265, Note_on_c, 9, 51, 72
4, 45287, Note_on_c, 9, 44, 0
4, 45310, Note_on_c, 9, 51, 0
4, 45337, Note_on_c, 9, 51, 71
4, 45363, Note_on_c, 9, 44, 39
4, 45386, Note_on_c, 9, 51, 0
4, 45424, Note_on_c, 9, 44, 0
4, 45447, Note_on_c, 9, 51, 75
4, 45449, Note_on_c, 9, 53, 68
4, 45451, Note_on_c, 9, 38, 29
4, 45467, Note_on_c, 9, 38, 0
4, 45503, Note_on_c, 9, 38, 20
4, 45528, Note_on_c, 9, 38, 0
4, 45536, Note_on_c, 9, 51, 0
4, 45538, Note_on_c, 9, 53, 0
4, 45569, Note_on_c, 9, 51, 55
4, 45588, Note_on_c, 9, 51, 0
4, 45616, Note_on_c, 9, 51, 68
4, 45619, Note_on_c, 9, 53, 77
4, 45681, Note_on_c, 9, 38, 29
4, 45692, Note_on_c, 9, 53, 0
4, 45703, Note_on_c, 9, 51, 0
4, 45711, Note_on_c, 9, 38, 0
4, 45722, Note_on_c, 9, 44, 30
4, 45727, Note_on_c, 9, 51, 49
4, 45733, Note_on_c, 9, 38, 21
4, 45748, Note_on_c, 9, 51, 0
4, 45773, Note_on_c, 9, 38, 0
4, 45774, Note_on_c, 9, 44, 0
4, 45803, Note_on_c, 9, 51, 83
4, 45806, Note_on_c, 9, 53, 81
4, 45814, Note_on_c, 9, 36, 16
4, 45828, Note_on_c, 9, 36, 0
4, 45845, Note_on_c, 9, 44, 42
4, 45866, Note_on_c, 9, 53, 0
4, 45876, Note_on_c, 9, 51, 0
4, 45906, Note_on_c, 9, 44, 0
4, 45914, Note_on_c, 9, 38, 40
4, 45920, Note_on_c, 9, 51, 69
4, 45941, Note_on_c, 9, 51, 0
4, 45941, Note_on_c, 9, 38, 0
4, 45964, Note_on_c, 9, 51, 60
4, 45969, Note_on_c, 9, 38, 31
4, 45977, Note_on_c, 9, 53, 59
4, 45987, Note_on_c, 9, 53, 0
4, 45998, Note_on_c, 9, 51, 0
4, 46002, Note_on_c, 9, 38, 0
4, 46042, Note_on_c, 9, 59, 99
4, 46042, Note_on_c, 9, 36, 24
4, 46045, Note_on_c, 9, 51, 88
4, 46046, Note_on_c, 9, 53, 80
4, 46059, Note_on_c, 9, 36, 0
4, 46160, Note_on_c, 9, 38, 40
4, 46172, Note_on_c, 9, 53, 0
4, 46173, Note_on_c, 9, 59, 0
4, 46179, Note_on_c, 9, 51, 0
4, 46181, Note_on_c, 9, 38, 0
4, 46202, Note_on_c, 9, 44, 40
4, 46208, Note_on_c, 9, 38, 40
4, 46244, Note_on_c, 9, 38, 0
4, 46265, Note_on_c, 9, 44, 0
4, 46284, Note_on_c, 9, 36, 27
4, 46290, Note_on_c, 9, 51, 75
4, 46298, Note_on_c, 9, 36, 0
4, 46314, Note_on_c, 9, 51, 0
4, 46339, Note_on_c, 9, 38, 21
4, 46346, Note_on_c, 9, 51, 46
4, 46356, Note_on_c, 9, 51, 0
4, 46359, Note_on_c, 9, 38, 0
4, 46398, Note_on_c, 9, 51, 76
4, 46415, Note_on_c, 9, 38, 28
4, 46426, Note_on_c, 9, 38, 0
4, 46427, Note_on_c, 9, 51, 0
4, 46441, Note_on_c, 9, 53, 60
4, 46443, Note_on_c, 9, 57, 87
4, 46443, Note_on_c, 9, 44, 48
4, 46446, Note_on_c, 9, 51, 65
4, 46446, Note_on_c, 9, 59, 74
4, 46490, Note_on_c, 9, 57, 0
4, 46497, Note_on_c, 9, 59, 0
4, 46508, Note_on_c, 9, 44, 0
4, 46529, Note_on_c, 9, 53, 0
4, 46531, Note_on_c, 9, 36, 18
4, 46541, Note_on_c, 9, 36, 0
4, 46543, Note_on_c, 9, 51, 0
4, 46639, Note_on_c, 9, 51, 48
4, 46650, Note_on_c, 9, 51, 0
4, 46677, Note_on_c, 9, 44, 42
4, 46685, Note_on_c, 9, 59, 32
4, 46703, Note_on_c, 9, 59, 0
4, 46733, Note_on_c, 9, 44, 0
4, 46756, Note_on_c, 9, 59, 90
4, 46761, Note_on_c, 9, 38, 44
4, 46787, Note_on_c, 9, 38, 0
4, 46814, Note_on_c, 9, 38, 40
4, 46854, Note_on_c, 9, 38, 0
4, 46882, Note_on_c, 9, 59, 0
4, 46886, Note_on_c, 9, 36, 23
4, 46905, Note_on_c, 9, 36, 0
4, 46921, Note_on_c, 9, 44, 48
4, 46978, Note_on_c, 9, 44, 0
4, 46993, Note_on_c, 9, 38, 32
4, 47001, Note_on_c, 9, 51, 69
4, 47004, Note_on_c, 9, 38, 0
4, 47030, Note_on_c, 9, 51, 0
4, 47042, Note_on_c, 9, 51, 60
4, 47126, Note_on_c, 9, 51, 0
4, 47156, Note_on_c, 9, 44, 48
4, 47161, Note_on_c, 9, 51, 64
4, 47203, Note_on_c, 9, 51, 0
4, 47212, Note_on_c, 9, 44, 0
4, 47245, Note_on_c, 9, 51, 77
4, 47269, Note_on_c, 9, 51, 0
4, 47284, Note_on_c, 9, 51, 59
4, 47369, Note_on_c, 9, 51, 0
4, 47398, Note_on_c, 9, 44, 50
4, 47399, Note_on_c, 9, 51, 69
4, 47455, Note_on_c, 9, 44, 0
4, 47461, Note_on_c, 9, 51, 0
4, 47486, Note_on_c, 9, 51, 48
4, 47507, Note_on_c, 9, 51, 0
4, 47524, Note_on_c, 9, 51, 74
4, 47591, Note_on_c, 9, 51, 0
4, 47598, Note_on_c, 9, 38, 28
4, 47611, Note_on_c, 9, 38, 0
4, 47634, Note_on_c, 9, 44, 48
4, 47641, Note_on_c, 9, 51, 83
4, 47650, Note_on_c, 9, 38, 24
4, 47682, Note_on_c, 9, 38, 0
4, 47696, Note_on_c, 9, 44, 0
4, 47699, Note_on_c, 9, 51, 0
4, 47724, Note_on_c, 9, 36, 36
4, 47729, Note_on_c, 9, 51, 46
4, 47746, Note_on_c, 9, 51, 0
4, 47752, Note_on_c, 9, 36, 0
4, 47763, Note_on_c, 9, 51, 72
4, 47840, Note_on_c, 9, 51, 0
4, 47840, Note_on_c, 9, 38, 40
4, 47869, Note_on_c, 9, 38, 0
4, 47879, Note_on_c, 9, 51, 82
4, 47883, Note_on_c, 9, 44, 50
4, 47932, Note_on_c, 9, 51, 0
4, 47960, Note_on_c, 9, 44, 0
4, 47961, Note_on_c, 9, 51, 53
4, 47968, Note_on_c, 9, 36, 31
4, 47981, Note_on_c, 9, 36, 0
4, 47983, Note_on_c, 9, 51, 0
4, 47999, Note_on_c, 9, 51, 76
4, 48089, Note_on_c, 9, 51, 0
4, 48119, Note_on_c, 9, 51, 68
4, 48122, Note_on_c, 9, 44, 46
4, 48132, Note_on_c, 9, 36, 29
4, 48173, Note_on_c, 9, 51, 0
4, 48175, Note_on_c, 9, 36, 0
4, 48186, Note_on_c, 9, 44, 0
4, 48203, Note_on_c, 9, 51, 44
4, 48221, Note_on_c, 9, 51, 0
4, 48241, Note_on_c, 9, 51, 68
4, 48323, Note_on_c, 9, 51, 0
4, 48361, Note_on_c, 9, 51, 79
4, 48370, Note_on_c, 9, 44, 42
4, 48425, Note_on_c, 9, 51, 0
4, 48437, Note_on_c, 9, 44, 0
4, 48485, Note_on_c, 9, 51, 76
4, 48544, Note_on_c, 9, 51, 0
4, 48573, Note_on_c, 9, 51, 49
4, 48594, Note_on_c, 9, 51, 0
4, 48602, Note_on_c, 9, 51, 44
4, 48605, Note_on_c, 9, 44, 45
4, 48630, Note_on_c, 9, 51, 0
4, 48674, Note_on_c, 9, 44, 0
4, 48690, Note_on_c, 9, 51, 92
4, 48786, Note_on_c, 9, 51, 0
4, 48795, Note_on_c, 9, 38, 40
4, 48821, Note_on_c, 9, 38, 0
4, 48848, Note_on_c, 9, 38, 24
4, 48863, Note_on_c, 9, 51, 87
4, 48866, Note_on_c, 9, 38, 0
4, 48908, Note_on_c, 9, 51, 0
4, 48928, Note_on_c, 9, 38, 44
4, 48949, Note_on_c, 9, 38, 0
4, 48970, Note_on_c, 9, 51, 79
4, 49031, Note_on_c, 9, 51, 0
4, 49045, Note_on_c, 9, 38, 40
4, 49068, Note_on_c, 9, 51, 83
4, 49075, Note_on_c, 9, 38, 0
4, 49081, Note_on_c, 9, 44, 46
4, 49096, Note_on_c, 9, 51, 0
4, 49104, Note_on_c, 9, 38, 32
4, 49141, Note_on_c, 9, 44, 0
4, 49147, Note_on_c, 9, 38, 0
4, 49174, Note_on_c, 9, 51, 84
4, 49179, Note_on_c, 9, 38, 35
4, 49191, Note_on_c, 9, 38, 0
4, 49198, Note_on_c, 9, 51, 0
4, 49215, Note_on_c, 9, 51, 77
4, 49274, Note_on_c, 9, 51, 0
4, 49287, Note_on_c, 9, 38, 36
4, 49304, Note_on_c, 9, 38, 0
4, 49324, Note_on_c, 9, 51, 73
4, 49327, Note_on_c, 9, 44, 41
4, 49338, Note_on_c, 9, 38, 29
4, 49370, Note_on_c, 9, 51, 0
4, 49372, Note_on_c, 9, 44, 0
4, 49376, Note_on_c, 9, 38, 0
4, 49404, Note_on_c, 9, 51, 76
4, 49408, Note_on_c, 9, 38, 30
4, 49427, Note_on_c, 9, 38, 0
4, 49507, Note_on_c, 9, 51, 0
4, 49513, Note_on_c, 9, 59, 90
4, 49547, Note_on_c, 9, 59, 0
4, 49555, Note_on_c, 9, 51, 53
4, 49564, Note_on_c, 9, 46, 34
4, 49607, Note_on_c, 9, 46, 0
4, 49613, Note_on_c, 9, 51, 0
4, 49634, Note_on_c, 9, 51, 60
4, 49640, Note_on_c, 9, 38, 20
4, 49654, Note_on_c, 9, 38, 0
4, 49685, Note_on_c, 9, 59, 80
4, 49690, Note_on_c, 9, 53, 65
4, 49744, Note_on_c, 9, 59, 0
4, 49759, Note_on_c, 9, 53, 0
4, 49765, Note_on_c, 9, 51, 0
4, 49772, Note_on_c, 9, 36, 23
4, 49784, Note_on_c, 9, 36, 0
4, 49797, Note_on_c, 9, 46, 34
4, 49807, Note_on_c, 9, 51, 57
4, 49837, Note_on_c, 9, 46, 0
4, 49839, Note_on_c, 9, 51, 0
4, 49882, Note_on_c, 9, 51, 81
4, 49884, Note_on_c, 9, 53, 81
4, 49888, Note_on_c, 9, 36, 45
4, 49914, Note_on_c, 9, 36, 0
4, 49939, Note_on_c, 9, 36, 27
4, 49947, Note_on_c, 9, 53, 0
4, 49960, Note_on_c, 9, 51, 0
4, 49975, Note_on_c, 9, 36, 0
4, 50040, Note_on_c, 9, 44, 46
4, 50047, Note_on_c, 9, 51, 77
4, 50093, Note_on_c, 9, 44, 0
4, 50125, Note_on_c, 9, 51, 0
4, 50170, Note_on_c, 9, 51, 62
4, 50248, Note_on_c, 9, 51, 0
4, 50250, Note_on_c, 9, 38, 34
4, 50284, Note_on_c, 9, 38, 0
4, 50285, Note_on_c, 9, 51, 73
4, 50288, Note_on_c, 9, 44, 44
4, 50343, Note_on_c, 9, 44, 0
4, 50344, Note_on_c, 9, 51, 0
4, 50374, Note_on_c, 9, 51, 62
4, 50400, Note_on_c, 9, 51, 0
4, 50412, Note_on_c, 9, 51, 59
4, 50491, Note_on_c, 9, 51, 0
4, 50522, Note_on_c, 9, 44, 40
4, 50526, Note_on_c, 9, 51, 72
4, 50575, Note_on_c, 9, 44, 0
4, 50583, Note_on_c, 9, 51, 0
4, 50617, Note_on_c, 9, 51, 47
4, 50631, Note_on_c, 9, 51, 0
4, 50649, Note_on_c, 9, 51, 74
4, 50651, Note_on_c, 9, 44, 40
4, 50717, Note_on_c, 9, 44, 0
4, 50740, Note_on_c, 9, 51, 0
4, 50753, Note_on_c, 9, 37, 37
4, 50764, Note_on_c, 9, 51, 64
4, 50787, Note_on_c, 9, 37, 0
4, 50843, Note_on_c, 9, 51, 0
4, 50877, Note_on_c, 9, 51, 72
4, 50960, Note_on_c, 9, 51, 0
4, 50999, Note_on_c, 9, 51, 77
4, 51000, Note_on_c, 9, 37, 30
4, 51010, Note_on_c, 9, 44, 41
4, 51050, Note_on_c, 9, 37, 0
4, 51058, Note_on_c, 9, 44, 0
4, 51078, Note_on_c, 9, 51, 0
4, 51118, Note_on_c, 9, 51, 74
4, 51184, Note_on_c, 9, 51, 0
4, 51210, Note_on_c, 9, 51, 47
4, 51223, Note_on_c, 9, 51, 0
4, 51237, Note_on_c, 9, 37, 28
4, 51241, Note_on_c, 9, 51, 76
4, 51242, Note_on_c, 9, 44, 42
4, 51272, Note_on_c, 9, 37, 0
4, 51303, Note_on_c, 9, 44, 0
4, 51333, Note_on_c, 9, 51, 0
4, 51362, Note_on_c, 9, 51, 58
4, 51435, Note_on_c, 9, 51, 0
4, 51478, Note_on_c, 9, 51, 71
4, 51489, Note_on_c, 9, 44, 48
4, 51539, Note_on_c, 9, 51, 0
4, 51547, Note_on_c, 9, 44, 0
4, 51574, Note_on_c, 9, 51, 47
4, 51593, Note_on_c, 9, 51, 0
4, 51603, Note_on_c, 9, 38, 46
4, 51608, Note_on_c, 9, 51, 75
4, 51614, Note_on_c, 9, 38, 0
4, 51687, Note_on_c, 9, 51, 0
4, 51717, Note_on_c, 9, 51, 65
4, 51720, Note_on_c, 9, 44, 49
4, 51728, Note_on_c, 9, 38, 49
4, 51764, Note_on_c, 9, 38, 0
4, 51768, Note_on_c, 9, 51, 0
4, 51781, Note_on_c, 9, 44, 0
4, 51807, Note_on_c, 9, 51, 64
4, 51828, Note_on_c, 9, 51, 0
4, 51846, Note_on_c, 9, 51, 74
4, 51855, Note_on_c, 9, 38, 52
4, 51898, Note_on_c, 9, 38, 0
4, 51918, Note_on_c, 9, 51, 0
4, 51932, Note_on_c, 9, 36, 36
4, 51947, Note_on_c, 9, 36, 0
4, 51959, Note_on_c, 9, 51, 78
4, 51962, Note_on_c, 9, 44, 45
4, 52014, Note_on_c, 9, 44, 0
4, 52032, Note_on_c, 9, 51, 0
4, 52084, Note_on_c, 9, 51, 78
4, 52097, Note_on_c, 9, 36, 41
4, 52134, Note_on_c, 9, 36, 0
4, 52145, Note_on_c, 9, 51, 0
4, 52174, Note_on_c, 9, 51, 59
4, 52199, Note_on_c, 9, 51, 0
4, 52206, Note_on_c, 9, 44, 46
4, 52259, Note_on_c, 9, 44, 0
4, 52286, Note_on_c, 9, 51, 91
4, 52370, Note_on_c, 9, 51, 0
4, 52399, Note_on_c, 9, 38, 37
4, 52412, Note_on_c, 9, 51, 48
4, 52424, Note_on_c, 9, 51, 0
4, 52438, Note_on_c, 9, 38, 0
4, 52446, Note_on_c, 9, 44, 40
4, 52454, Note_on_c, 9, 51, 77
4, 52496, Note_on_c, 9, 44, 0
4, 52534, Note_on_c, 9, 51, 0
4, 52566, Note_on_c, 9, 51, 35
4, 52570, Note_on_c, 9, 36, 29
4, 52578, Note_on_c, 9, 51, 0
4, 52598, Note_on_c, 9, 36, 0
4, 52641, Note_on_c, 9, 51, 87
4, 52685, Note_on_c, 9, 44, 42
4, 52716, Note_on_c, 9, 51, 0
4, 52747, Note_on_c, 9, 44, 0
4, 52759, Note_on_c, 9, 38, 35
4, 52773, Note_on_c, 9, 51, 51
4, 52785, Note_on_c, 9, 51, 0
4, 52785, Note_on_c, 9, 38, 0
4, 52819, Note_on_c, 9, 51, 85
4, 52887, Note_on_c, 9, 38, 52
4, 52893, Note_on_c, 9, 51, 0
4, 52920, Note_on_c, 9, 38, 0
4, 52928, Note_on_c, 9, 51, 64
4, 52961, Note_on_c, 9, 51, 0
4, 53001, Note_on_c, 9, 51, 85
4, 53015, Note_on_c, 9, 38, 58
4, 53050, Note_on_c, 9, 38, 0
4, 53060, Note_on_c, 9, 51, 0
4, 53125, Note_on_c, 9, 51, 60
4, 53137, Note_on_c, 9, 38, 60
4, 53138, Note_on_c, 9, 51, 0
4, 53160, Note_on_c, 9, 51, 76
4, 53163, Note_on_c, 9, 44, 46
4, 53176, Note_on_c, 9, 38, 0
4, 53228, Note_on_c, 9, 44, 0
4, 53241, Note_on_c, 9, 51, 0
4, 53281, Note_on_c, 9, 51, 77
4, 53284, Note_on_c, 9, 44, 48
4, 53346, Note_on_c, 9, 51, 0
4, 53364, Note_on_c, 9, 44, 0
4, 53367, Note_on_c, 9, 38, 56
4, 53398, Note_on_c, 9, 51, 78
4, 53406, Note_on_c, 9, 38, 0
4, 53480, Note_on_c, 9, 51, 0
4, 53491, Note_on_c, 9, 38, 61
4, 53520, Note_on_c, 9, 38, 0
4, 53522, Note_on_c, 9, 51, 64
4, 53523, Note_on_c, 9, 44, 49
4, 53567, Note_on_c, 9, 44, 0
4, 53575, Note_on_c, 9, 51, 0
4, 53601, Note_on_c, 9, 51, 57
4, 53610, Note_on_c, 9, 38, 58
4, 53631, Note_on_c, 9, 51, 0
4, 53638, Note_on_c, 9, 38, 0
4, 53642, Note_on_c, 9, 44, 48
4, 53646, Note_on_c, 9, 51, 71
4, 53677, Note_on_c, 9, 44, 0
4, 53682, Note_on_c, 9, 51, 0
4, 53731, Note_on_c, 9, 38, 50
4, 53732, Note_on_c, 9, 51, 79
4, 53749, Note_on_c, 9, 38, 0
4, 53759, Note_on_c, 9, 51, 0
4, 53775, Note_on_c, 9, 51, 82
4, 53778, Note_on_c, 9, 38, 59
4, 53779, Note_on_c, 9, 57, 58
4, 53781, Note_on_c, 9, 37, 50
4, 53828, Note_on_c, 9, 51, 0
4, 53843, Note_on_c, 9, 57, 0
4, 53879, Note_on_c, 9, 44, 46
4, 53920, Note_on_c, 9, 44, 0
4, 53985, Note_on_c, 9, 59, 65
4, 53994, Note_on_c, 9, 59, 0
4, 54012, Note_on_c, 9, 37, 0
4, 54020, Note_on_c, 9, 59, 68
4, 54045, Note_on_c, 9, 59, 0
4, 54085, Note_on_c, 9, 38, 0
4, 54120, Note_on_c, 9, 44, 43
4, 54184, Note_on_c, 9, 44, 0
4, 54210, Note_on_c, 9, 59, 37
4, 54223, Note_on_c, 9, 59, 0
4, 54245, Note_on_c, 9, 59, 66
4, 54305, Note_on_c, 9, 59, 0
4, 54357, Note_on_c, 9, 44, 48
4, 54368, Note_on_c, 9, 59, 101
4, 54420, Note_on_c, 9, 44, 0
4, 54442, Note_on_c, 9, 38, 28
4, 54455, Note_on_c, 9, 38, 0
4, 54459, Note_on_c, 9, 59, 0
4, 54492, Note_on_c, 9, 38, 24
4, 54495, Note_on_c, 9, 59, 62
4, 54523, Note_on_c, 9, 38, 0
4, 54542, Note_on_c, 9, 59, 0
4, 54568, Note_on_c, 9, 59, 60
4, 54593, Note_on_c, 9, 59, 0
4, 54606, Note_on_c, 9, 44, 40
4, 54612, Note_on_c, 9, 59, 78
4, 54655, Note_on_c, 9, 44, 0
4, 54665, Note_on_c, 9, 59, 0
4, 54690, Note_on_c, 9, 59, 84
4, 54807, Note_on_c, 9, 59, 0
4, 54846, Note_on_c, 9, 59, 66
4, 54912, Note_on_c, 9, 59, 0
4, 54966, Note_on_c, 9, 59, 71
4, 55030, Note_on_c, 9, 59, 0
4, 55053, Note_on_c, 9, 59, 37
4, 55067, Note_on_c, 9, 59, 0
4, 55077, Note_on_c, 9, 44, 39
4, 55088, Note_on_c, 9, 59, 68
4, 55133, Note_on_c, 9, 44, 0
4, 55141, Note_on_c, 9, 59, 0
4, 55170, Note_on_c, 9, 38, 22
4, 55189, Note_on_c, 9, 38, 0
4, 55205, Note_on_c, 9, 59, 80
4, 55302, Note_on_c, 9, 59, 0
4, 55323, Note_on_c, 9, 44, 46
4, 55325, Note_on_c, 9, 59, 74
4, 55374, Note_on_c, 9, 59, 0
4, 55379, Note_on_c, 9, 44, 0
4, 55400, Note_on_c, 9, 38, 21
4, 55418, Note_on_c, 9, 59, 74
4, 55428, Note_on_c, 9, 59, 0
4, 55432, Note_on_c, 9, 38, 0
4, 55448, Note_on_c, 9, 59, 89
4, 55534, Note_on_c, 9, 59, 0
4, 55567, Note_on_c, 9, 44, 46
4, 55627, Note_on_c, 9, 44, 0
4, 55635, Note_on_c, 9, 38, 16
4, 55646, Note_on_c, 9, 38, 0
4, 55668, Note_on_c, 9, 59, 89
4, 55686, Note_on_c, 9, 59, 0
4, 55706, Note_on_c, 9, 59, 85
4, 55767, Note_on_c, 9, 59, 0
4, 55808, Note_on_c, 9, 44, 45
4, 55817, Note_on_c, 9, 59, 110
4, 55863, Note_on_c, 9, 44, 0
4, 55877, Note_on_c, 9, 38, 30
4, 55889, Note_on_c, 9, 38, 0
4, 55895, Note_on_c, 9, 59, 0
4, 55939, Note_on_c, 9, 59, 92
4, 55995, Note_on_c, 9, 59, 0
4, 56019, Note_on_c, 9, 59, 66
4, 56037, Note_on_c, 9, 59, 0
4, 56045, Note_on_c, 9, 44, 45
4, 56054, Note_on_c, 9, 38, 29
4, 56055, Note_on_c, 9, 59, 83
4, 56071, Note_on_c, 9, 38, 0
4, 56093, Note_on_c, 9, 44, 0
4, 56101, Note_on_c, 9, 59, 0
4, 56138, Note_on_c, 9, 59, 108
4, 56238, Note_on_c, 9, 59, 0
4, 56257, Note_on_c, 9, 59, 68
4, 56268, Note_on_c, 9, 59, 0
4, 56284, Note_on_c, 9, 44, 45
4, 56294, Note_on_c, 9, 59, 91
4, 56332, Note_on_c, 9, 44, 0
4, 56377, Note_on_c, 9, 59, 0
4, 56412, Note_on_c, 9, 59, 95
4, 56479, Note_on_c, 9, 38, 43
4, 56484, Note_on_c, 9, 59, 0
4, 56504, Note_on_c, 9, 59, 55
4, 56505, Note_on_c, 9, 38, 0
4, 56515, Note_on_c, 9, 59, 0
4, 56528, Note_on_c, 9, 44, 46
4, 56534, Note_on_c, 9, 59, 84
4, 56567, Note_on_c, 9, 38, 46
4, 56582, Note_on_c, 9, 44, 0
4, 56601, Note_on_c, 9, 38, 0
4, 56616, Note_on_c, 9, 59, 0
4, 56650, Note_on_c, 9, 59, 94
4, 56661, Note_on_c, 9, 38, 47
4, 56707, Note_on_c, 9, 38, 0
4, 56726, Note_on_c, 9, 59, 0
4, 56743, Note_on_c, 9, 36, 34
4, 56763, Note_on_c, 9, 44, 42
4, 56773, Note_on_c, 9, 36, 0
4, 56777, Note_on_c, 9, 59, 95
4, 56829, Note_on_c, 9, 59, 0
4, 56829, Note_on_c, 9, 44, 0
4, 56856, Note_on_c, 9, 36, 36
4, 56865, Note_on_c, 9, 59, 77
4, 56879, Note_on_c, 9, 59, 0
4, 56885, Note_on_c, 9, 36, 0
4, 56897, Note_on_c, 9, 59, 78
4, 56976, Note_on_c, 9, 59, 0
4, 57003, Note_on_c, 9, 44, 52
4, 57013, Note_on_c, 9, 59, 95
4, 57065, Note_on_c, 9, 44, 0
4, 57070, Note_on_c, 9, 59, 0
4, 57107, Note_on_c, 9, 59, 70
4, 57118, Note_on_c, 9, 59, 0
4, 57137, Note_on_c, 9, 59, 81
4, 57203, Note_on_c, 9, 38, 28
4, 57217, Note_on_c, 9, 38, 0
4, 57227, Note_on_c, 9, 59, 0
4, 57249, Note_on_c, 9, 44, 50
4, 57254, Note_on_c, 9, 59, 89
4, 57294, Note_on_c, 9, 38, 30
4, 57303, Note_on_c, 9, 44, 0
4, 57315, Note_on_c, 9, 59, 0
4, 57327, Note_on_c, 9, 38, 0
4, 57343, Note_on_c, 9, 59, 73
4, 57356, Note_on_c, 9, 59, 0
4, 57375, Note_on_c, 9, 59, 88
4, 57387, Note_on_c, 9, 38, 33
4, 57416, Note_on_c, 9, 38, 0
4, 57459, Note_on_c, 9, 59, 0
4, 57475, Note_on_c, 9, 38, 33
4, 57476, Note_on_c, 9, 44, 46
4, 57492, Note_on_c, 9, 59, 94
4, 57500, Note_on_c, 9, 38, 0
4, 57527, Note_on_c, 9, 44, 0
4, 57543, Note_on_c, 9, 59, 0
4, 57554, Note_on_c, 9, 38, 41
4, 57579, Note_on_c, 9, 59, 75
4, 57585, Note_on_c, 9, 38, 0
4, 57589, Note_on_c, 9, 59, 0
4, 57615, Note_on_c, 9, 59, 80
4, 57620, Note_on_c, 9, 57, 37
4, 57620, Note_on_c, 9, 38, 30
4, 57626, Note_on_c, 9, 36, 32
4, 57642, Note_on_c, 9, 36, 0
4, 57657, Note_on_c, 9, 57, 0
4, 57680, Note_on_c, 9, 59, 0
4, 57686, Note_on_c, 9, 38, 0
4, 57724, Note_on_c, 9, 44, 42
4, 57729, Note_on_c, 9, 59, 90
4, 57780, Note_on_c, 9, 44, 0
4, 57798, Note_on_c, 9, 59, 0
4, 57847, Note_on_c, 9, 59, 91
4, 57927, Note_on_c, 9, 59, 0
4, 57966, Note_on_c, 9, 44, 42
4, 57969, Note_on_c, 9, 59, 91
4, 58005, Note_on_c, 9, 44, 0
4, 58016, Note_on_c, 9, 59, 0
4, 58062, Note_on_c, 9, 59, 72
4, 58072, Note_on_c, 9, 59, 0
4, 58089, Note_on_c, 9, 59, 83
4, 58163, Note_on_c, 9, 38, 38
4, 58167, Note_on_c, 9, 59, 0
4, 58198, Note_on_c, 9, 38, 0
4, 58202, Note_on_c, 9, 44, 44
4, 58207, Note_on_c, 9, 59, 91
4, 58242, Note_on_c, 9, 44, 0
4, 58296, Note_on_c, 9, 59, 0
4, 58323, Note_on_c, 9, 38, 22
4, 58328, Note_on_c, 9, 59, 91
4, 58365, Note_on_c, 9, 38, 0
4, 58421, Note_on_c, 9, 59, 0
4, 58437, Note_on_c, 9, 46, 38
4, 58463, Note_on_c, 9, 59, 77
4, 58473, Note_on_c, 9, 59, 0
4, 58474, Note_on_c, 9, 46, 0
4, 58489, Note_on_c, 9, 59, 90
4, 58525, Note_on_c, 9, 38, 38
4, 58531, Note_on_c, 9, 59, 0
4, 58552, Note_on_c, 9, 38, 0
4, 58578, Note_on_c, 9, 59, 96
4, 58663, Note_on_c, 9, 59, 0
4, 58681, Note_on_c, 9, 44, 40
4, 58692, Note_on_c, 9, 59, 83
4, 58698, Note_on_c, 9, 38, 40
4, 58726, Note_on_c, 9, 44, 0
4, 58736, Note_on_c, 9, 38, 0
4, 58736, Note_on_c, 9, 59, 0
4, 58784, Note_on_c, 9, 59, 96
4, 58819, Note_on_c, 9, 59, 0
4, 58865, Note_on_c, 9, 59, 75
4, 58875, Note_on_c, 9, 59, 0
4, 58894, Note_on_c, 9, 38, 42
4, 58895, Note_on_c, 9, 59, 74
4, 58914, Note_on_c, 9, 59, 0
4, 58922, Note_on_c, 9, 38, 0
4, 58926, Note_on_c, 9, 44, 41
4, 58964, Note_on_c, 9, 59, 103
4, 58975, Note_on_c, 9, 44, 0
4, 59022, Note_on_c, 9, 59, 0
4, 59054, Note_on_c, 9, 59, 90
4, 59056, Note_on_c, 9, 38, 45
4, 59083, Note_on_c, 9, 38, 0
4, 59089, Note_on_c, 9, 59, 0
4, 59133, Note_on_c, 9, 59, 94
4, 59161, Note_on_c, 9, 44, 42
4, 59167, Note_on_c, 9, 59, 0
4, 59212, Note_on_c, 9, 44, 0
4, 59242, Note_on_c, 9, 38, 52
4, 59246, Note_on_c, 9, 59, 68
4, 59256, Note_on_c, 9, 59, 0
4, 59272, Note_on_c, 9, 38, 0
4, 59286, Note_on_c, 9, 59, 79
4, 59346, Note_on_c, 9, 59, 0
4, 59398, Note_on_c, 9, 44, 50
4, 59405, Note_on_c, 9, 59, 92
4, 59411, Note_on_c, 9, 38, 53
4, 59445, Note_on_c, 9, 59, 0
4, 59446, Note_on_c, 9, 38, 0
4, 59467, Note_on_c, 9, 44, 0
4, 59497, Note_on_c, 9, 59, 72
4, 59507, Note_on_c, 9, 59, 0
4, 59529, Note_on_c, 9, 59, 65
4, 59551, Note_on_c, 9, 59, 0
4, 59607, Note_on_c, 9, 38, 56
4, 59611, Note_on_c, 9, 59, 95
4, 59629, Note_on_c, 9, 59, 0
4, 59635, Note_on_c, 9, 38, 0
4, 59647, Note_on_c, 9, 59, 84
4, 59649, Note_on_c, 9, 44, 55
4, 59716, Note_on_c, 9, 44, 0
4, 59716, Note_on_c, 9, 59, 0
4, 59777, Note_on_c, 9, 59, 99
4, 59777, Note_on_c, 9, 38, 56
4, 59807, Note_on_c, 9, 38, 0
4, 59841, Note_on_c, 9, 59, 0
4, 59884, Note_on_c, 9, 44, 55
4, 59899, Note_on_c, 9, 59, 61
4, 59909, Note_on_c, 9, 59, 0
4, 59956, Note_on_c, 9, 44, 0
4, 59973, Note_on_c, 9, 59, 103
4, 59975, Note_on_c, 9, 38, 55
4, 59994, Note_on_c, 9, 59, 0
4, 59999, Note_on_c, 9, 38, 0
4, 60102, Note_on_c, 9, 59, 80
4, 60123, Note_on_c, 9, 59, 0
4, 60123, Note_on_c, 9, 44, 50
4, 60135, Note_on_c, 9, 38, 54
4, 60162, Note_on_c, 9, 38, 0
4, 60189, Note_on_c, 9, 44, 0
4, 60220, Note_on_c, 9, 59, 74
4, 60240, Note_on_c, 9, 59, 0
4, 60259, Note_on_c, 9, 59, 83
4, 60323, Note_on_c, 9, 59, 0
4, 60331, Note_on_c, 9, 59, 48
4, 60352, Note_on_c, 9, 59, 0
4, 60359, Note_on_c, 9, 44, 41
4, 60370, Note_on_c, 9, 59, 89
4, 60410, Note_on_c, 9, 59, 0
4, 60421, Note_on_c, 9, 44, 0
4, 60484, Note_on_c, 9, 59, 92
4, 60542, Note_on_c, 9, 59, 0
4, 60578, Note_on_c, 9, 59, 50
4, 60591, Note_on_c, 9, 59, 0
4, 60598, Note_on_c, 9, 44, 51
4, 60617, Note_on_c, 9, 59, 68
4, 60639, Note_on_c, 9, 59, 0
4, 60662, Note_on_c, 9, 44, 0
4, 60702, Note_on_c, 9, 59, 88
4, 60723, Note_on_c, 9, 59, 0
4, 60741, Note_on_c, 9, 59, 77
4, 60768, Note_on_c, 9, 59, 0
4, 60825, Note_on_c, 9, 59, 90
4, 60843, Note_on_c, 9, 59, 0
4, 61041, Note_on_c, 9, 38, 46
4, 61043, Note_on_c, 9, 59, 72
4, 61060, Note_on_c, 9, 59, 0
4, 61074, Note_on_c, 9, 38, 0
4, 61075, Note_on_c, 9, 44, 47
4, 61082, Note_on_c, 9, 59, 84
4, 61143, Note_on_c, 9, 59, 0
4, 61148, Note_on_c, 9, 44, 0
4, 61164, Note_on_c, 9, 38, 52
4, 61198, Note_on_c, 9, 38, 0
4, 61201, Note_on_c, 9, 59, 99
4, 61264, Note_on_c, 9, 59, 0
4, 61283, Note_on_c, 9, 59, 60
4, 61287, Note_on_c, 9, 38, 54
4, 61296, Note_on_c, 9, 59, 0
4, 61316, Note_on_c, 9, 38, 0
4, 61317, Note_on_c, 9, 44, 44
4, 61323, Note_on_c, 9, 59, 71
4, 61352, Note_on_c, 9, 59, 0
4, 61379, Note_on_c, 9, 44, 0
4, 61398, Note_on_c, 9, 38, 36
4, 61401, Note_on_c, 9, 59, 85
4, 61404, Note_on_c, 9, 53, 78
4, 61423, Note_on_c, 9, 38, 0
4, 61443, Note_on_c, 9, 38, 27
4, 61445, Note_on_c, 9, 57, 44
4, 61450, Note_on_c, 9, 36, 42
4, 61483, Note_on_c, 9, 57, 0
4, 61509, Note_on_c, 9, 53, 0
4, 61510, Note_on_c, 9, 59, 0
4, 61511, Note_on_c, 9, 36, 0
4, 61535, Note_on_c, 9, 38, 0
4, 61563, Note_on_c, 9, 59, 53
4, 61563, Note_on_c, 9, 44, 48
4, 61598, Note_on_c, 9, 59, 0
4, 61644, Note_on_c, 9, 44, 0
4, 61646, Note_on_c, 9, 53, 79
4, 61647, Note_on_c, 9, 59, 80
4, 61653, Note_on_c, 9, 61, 40
4, 61663, Note_on_c, 9, 61, 0
4, 61720, Note_on_c, 9, 59, 0
4, 61725, Note_on_c, 9, 53, 0
4, 61772, Note_on_c, 9, 59, 54
4, 61783, Note_on_c, 9, 59, 0
4, 61804, Note_on_c, 9, 44, 40
4, 61816, Note_on_c, 9, 59, 87
4, 61863, Note_on_c, 9, 44, 0
4, 61908, Note_on_c, 9, 59, 0
4, 61932, Note_on_c, 9, 59, 60
4, 61992, Note_on_c, 9, 59, 0
4, 62025, Note_on_c, 9, 59, 46
4, 62040, Note_on_c, 9, 44, 42
4, 62045, Note_on_c, 9, 59, 0
4, 62096, Note_on_c, 9, 44, 0
4, 62128, Note_on_c, 9, 59, 80
4, 62155, Note_on_c, 9, 44, 40
4, 62157, Note_on_c, 9, 59, 0
4, 62178, Note_on_c, 9, 59, 71
4, 62224, Note_on_c, 9, 44, 0
4, 62242, Note_on_c, 9, 38, 29
4, 62249, Note_on_c, 9, 59, 0
4, 62258, Note_on_c, 9, 38, 0
4, 62292, Note_on_c, 9, 59, 80
4, 62302, Note_on_c, 9, 38, 20
4, 62337, Note_on_c, 9, 38, 0
4, 62342, Note_on_c, 9, 59, 0
4, 62365, Note_on_c, 9, 59, 55
4, 62373, Note_on_c, 9, 38, 26
4, 62389, Note_on_c, 9, 38, 0
4, 62392, Note_on_c, 9, 59, 0
4, 62411, Note_on_c, 9, 59, 77
4, 62488, Note_on_c, 9, 59, 0
4, 62525, Note_on_c, 9, 44, 40
4, 62528, Note_on_c, 9, 59, 76
4, 62592, Note_on_c, 9, 59, 0
4, 62599, Note_on_c, 9, 44, 0
4, 62612, Note_on_c, 9, 59, 57
4, 62627, Note_on_c, 9, 59, 0
4, 62651, Note_on_c, 9, 59, 70
4, 62732, Note_on_c, 9, 59, 0
4, 62764, Note_on_c, 9, 44, 40
4, 62770, Note_on_c, 9, 59, 80
4, 62828, Note_on_c, 9, 44, 0
4, 62837, Note_on_c, 9, 59, 0
4, 62855, Note_on_c, 9, 59, 61
4, 62872, Note_on_c, 9, 59, 0
4, 62891, Note_on_c, 9, 59, 75
4, 62973, Note_on_c, 9, 59, 0
4, 62996, Note_on_c, 9, 44, 42
4, 63008, Note_on_c, 9, 38, 36
4, 63012, Note_on_c, 9, 59, 80
4, 63039, Note_on_c, 9, 38, 0
4, 63054, Note_on_c, 9, 59, 0
4, 63055, Note_on_c, 9, 44, 0
4, 63086, Note_on_c, 9, 59, 71
4, 63116, Note_on_c, 9, 44, 39
4, 63122, Note_on_c, 9, 59, 0
4, 63171, Note_on_c, 9, 59, 80
4, 63185, Note_on_c, 9, 44, 0
4, 63215, Note_on_c, 9, 59, 0
4, 63261, Note_on_c, 9, 59, 77
4, 63293, Note_on_c, 9, 59, 0
4, 63337, Note_on_c, 9, 59, 84
4, 63370, Note_on_c, 9, 59, 0
4, 63412, Note_on_c, 9, 59, 78
4, 63424, Note_on_c, 9, 38, 26
4, 63438, Note_on_c, 9, 38, 0
4, 63453, Note_on_c, 9, 59, 0
4, 63485, Note_on_c, 9, 44, 44
4, 63490, Note_on_c, 9, 59, 74
4, 63507, Note_on_c, 9, 38, 35
4, 63522, Note_on_c, 9, 59, 0
4, 63527, Note_on_c, 9, 38, 0
4, 63535, Note_on_c, 9, 44, 0
4, 63571, Note_on_c, 9, 59, 83
4, 63582, Note_on_c, 9, 38, 29
4, 63598, Note_on_c, 9, 44, 46
4, 63608, Note_on_c, 9, 38, 0
4, 63608, Note_on_c, 9, 59, 0
4, 63653, Note_on_c, 9, 59, 88
4, 63654, Note_on_c, 9, 38, 33
4, 63659, Note_on_c, 9, 44, 0
4, 63669, Note_on_c, 9, 38, 0
4, 63699, Note_on_c, 9, 59, 0
4, 63742, Note_on_c, 9, 59, 82
4, 63743, Note_on_c, 9, 38, 25
4, 63756, Note_on_c, 9, 38, 0
4, 63787, Note_on_c, 9, 59, 0
4, 63817, Note_on_c, 9, 38, 29
4, 63819, Note_on_c, 9, 59, 75
4, 63830, Note_on_c, 9, 38, 0
4, 63845, Note_on_c, 9, 44, 38
4, 63851, Note_on_c, 9, 59, 0
4, 63886, Note_on_c, 9, 59, 80
4, 63894, Note_on_c, 9, 44, 0
4, 63923, Note_on_c, 9, 59, 0
4, 63923, Note_on_c, 9, 38, 38
4, 63940, Note_on_c, 9, 38, 0
4, 63969, Note_on_c, 9, 59, 82
4, 64011, Note_on_c, 9, 59, 0
4, 64040, Note_on_c, 9, 38, 42
4, 64046, Note_on_c, 9, 59, 74
4, 64063, Note_on_c, 9, 38, 0
4, 64068, Note_on_c, 9, 59, 0
4, 64089, Note_on_c, 9, 59, 77
4, 64093, Note_on_c, 9, 38, 33
4, 64146, Note_on_c, 9, 38, 0
4, 64167, Note_on_c, 9, 36, 32
4, 64173, Note_on_c, 9, 59, 0
4, 64199, Note_on_c, 9, 44, 44
4, 64202, Note_on_c, 9, 36, 0
4, 64204, Note_on_c, 9, 59, 85
4, 64262, Note_on_c, 9, 59, 0
4, 64265, Note_on_c, 9, 44, 0
4, 64286, Note_on_c, 9, 38, 40
4, 64293, Note_on_c, 9, 59, 67
4, 64317, Note_on_c, 9, 59, 0
4, 64318, Note_on_c, 9, 38, 0
4, 64331, Note_on_c, 9, 59, 81
4, 64403, Note_on_c, 9, 38, 45
4, 64416, Note_on_c, 9, 59, 0
4, 64432, Note_on_c, 9, 38, 0
4, 64446, Note_on_c, 9, 44, 55
4, 64448, Note_on_c, 9, 59, 89
4, 64512, Note_on_c, 9, 44, 0
4, 64513, Note_on_c, 9, 59, 0
4, 64527, Note_on_c, 9, 38, 36
4, 64535, Note_on_c, 9, 59, 66
4, 64547, Note_on_c, 9, 59, 0
4, 64552, Note_on_c, 9, 38, 0
4, 64571, Note_on_c, 9, 57, 38
4, 64574, Note_on_c, 9, 59, 80
4, 64579, Note_on_c, 9, 36, 38
4, 64608, Note_on_c, 9, 36, 0
4, 64608, Note_on_c, 9, 57, 0
4, 64658, Note_on_c, 9, 59, 0
4, 64687, Note_on_c, 9, 44, 51
4, 64690, Note_on_c, 9, 59, 92
4, 64742, Note_on_c, 9, 59, 0
4, 64749, Note_on_c, 9, 44, 0
4, 64776, Note_on_c, 9, 59, 61
4, 64798, Note_on_c, 9, 59, 0
4, 64813, Note_on_c, 9, 59, 78
4, 64896, Note_on_c, 9, 59, 0
4, 64927, Note_on_c, 9, 44, 50
4, 64932, Note_on_c, 9, 59, 90
4, 64990, Note_on_c, 9, 59, 0
4, 64990, Note_on_c, 9, 44, 0
4, 65005, Note_on_c, 9, 38, 35
4, 65014, Note_on_c, 9, 59, 59
4, 65020, Note_on_c, 9, 38, 0
4, 65037, Note_on_c, 9, 59, 0
4, 65054, Note_on_c, 9, 59, 74
4, 65056, Note_on_c, 9, 38, 19
4, 65092, Note_on_c, 9, 38, 0
4, 65132, Note_on_c, 9, 38, 36
4, 65137, Note_on_c, 9, 59, 0
4, 65162, Note_on_c, 9, 44, 49
4, 65163, Note_on_c, 9, 38, 0
4, 65171, Note_on_c, 9, 59, 91
4, 65224, Note_on_c, 9, 44, 0
4, 65239, Note_on_c, 9, 59, 0
4, 65261, Note_on_c, 9, 59, 64
4, 65284, Note_on_c, 9, 59, 0
4, 65295, Note_on_c, 9, 59, 68
4, 65296, Note_on_c, 9, 38, 34
4, 65328, Note_on_c, 9, 38, 0
4, 65381, Note_on_c, 9, 59, 0
4, 65410, Note_on_c, 9, 44, 50
4, 65416, Note_on_c, 9, 59, 90
4, 65468, Note_on_c, 9, 44, 0
4, 65487, Note_on_c, 9, 59, 0
4, 65504, Note_on_c, 9, 59, 61
4, 65518, Note_on_c, 9, 59, 0
4, 65535, Note_on_c, 9, 59, 77
4, 65614, Note_on_c, 9, 59, 0
4, 65646, Note_on_c, 9, 44, 49
4, 65651, Note_on_c, 9, 59, 90
4, 65705, Note_on_c, 9, 44, 0
4, 65729, Note_on_c, 9, 59, 0
4, 65772, Note_on_c, 9, 59, 84
4, 65850, Note_on_c, 9, 59, 0
4, 65888, Note_on_c, 9, 44, 51
4, 65891, Note_on_c, 9, 59, 90
4, 65954, Note_on_c, 9, 59, 0
4, 65954, Note_on_c, 9, 44, 0
4, 65955, Note_on_c, 9, 38, 34
4, 65969, Note_on_c, 9, 38, 0
4, 65975, Note_on_c, 9, 59, 69
4, 65998, Note_on_c, 9, 59, 0
4, 66010, Note_on_c, 9, 59, 78
4, 66028, Note_on_c, 9, 38, 42
4, 66081, Note_on_c, 9, 38, 0
4, 66099, Note_on_c, 9, 59, 0
4, 66126, Note_on_c, 9, 44, 50
4, 66133, Note_on_c, 9, 59, 92
4, 66193, Note_on_c, 9, 44, 0
4, 66195, Note_on_c, 9, 59, 0
4, 66199, Note_on_c, 9, 38, 40
4, 66221, Note_on_c, 9, 59, 60
4, 66236, Note_on_c, 9, 59, 0
4, 66243, Note_on_c, 9, 38, 0
4, 66254, Note_on_c, 9, 59, 83
4, 66296, Note_on_c, 9, 38, 46
4, 66338, Note_on_c, 9, 59, 0
4, 66354, Note_on_c, 9, 38, 0
4, 66360, Note_on_c, 9, 44, 50
4, 66367, Note_on_c, 9, 59, 88
4, 66426, Note_on_c, 9, 44, 0
4, 66445, Note_on_c, 9, 59, 0
4, 66456, Note_on_c, 9, 59, 65
4, 66478, Note_on_c, 9, 59, 0
4, 66492, Note_on_c, 9, 59, 82
4, 66567, Note_on_c, 9, 38, 49
4, 66575, Note_on_c, 9, 59, 0
4, 66603, Note_on_c, 9, 44, 50
4, 66606, Note_on_c, 9, 59, 90
4, 66665, Note_on_c, 9, 44, 0
4, 66671, Note_on_c, 9, 38, 0
4, 66690, Note_on_c, 9, 59, 0
4, 66730, Note_on_c, 9, 59, 88
4, 66739, Note_on_c, 9, 38, 55
4, 66802, Note_on_c, 9, 59, 0
4, 66805, Note_on_c, 9, 38, 0
4, 66817, Note_on_c, 9, 59, 63
4, 66836, Note_on_c, 9, 59, 0
4, 66839, Note_on_c, 9, 44, 50
4, 66854, Note_on_c, 9, 59, 83
4, 66902, Note_on_c, 9, 44, 0
4, 66930, Note_on_c, 9, 38, 47
4, 66932, Note_on_c, 9, 59, 0
4, 66964, Note_on_c, 9, 59, 88
4, 66983, Note_on_c, 9, 38, 0
4, 67030, Note_on_c, 9, 59, 0
4, 67079, Note_on_c, 9, 44, 48
4, 67082, Note_on_c, 9, 59, 87
4, 67099, Note_on_c, 9, 38, 52
4, 67143, Note_on_c, 9, 44, 0
4, 67144, Note_on_c, 9, 59, 0
4, 67166, Note_on_c, 9, 59, 69
4, 67179, Note_on_c, 9, 38, 0
4, 67191, Note_on_c, 9, 59, 0
4, 67208, Note_on_c, 9, 59, 85
4, 67281, Note_on_c, 9, 38, 40
4, 67287, Note_on_c, 9, 59, 0
4, 67311, Note_on_c, 9, 38, 0
4, 67322, Note_on_c, 9, 59, 89
4, 67324, Note_on_c, 9, 44, 46
4, 67390, Note_on_c, 9, 44, 0
4, 67395, Note_on_c, 9, 59, 0
4, 67412, Note_on_c, 9, 59, 59
4, 67425, Note_on_c, 9, 59, 0
4, 67451, Note_on_c, 9, 59, 73
4, 67514, Note_on_c, 9, 59, 0
4, 67528, Note_on_c, 9, 38, 36
4, 67559, Note_on_c, 9, 38, 0
4, 67563, Note_on_c, 9, 44, 46
4, 67568, Note_on_c, 9, 59, 92
4, 67625, Note_on_c, 9, 44, 0
4, 67663, Note_on_c, 9, 59, 0
4, 67692, Note_on_c, 9, 59, 48
4, 67701, Note_on_c, 9, 36, 16
4, 67711, Note_on_c, 9, 59, 0
4, 67712, Note_on_c, 9, 36, 0
4, 67770, Note_on_c, 9, 59, 95
4, 67807, Note_on_c, 9, 44, 48
4, 67867, Note_on_c, 9, 44, 0
4, 67877, Note_on_c, 9, 59, 0
4, 67900, Note_on_c, 9, 59, 55
4, 67910, Note_on_c, 9, 59, 0
4, 67943, Note_on_c, 9, 59, 95
4, 68007, Note_on_c, 9, 38, 34
4, 68020, Note_on_c, 9, 59, 0
4, 68024, Note_on_c, 9, 38, 0
4, 68043, Note_on_c, 9, 44, 48
4, 68058, Note_on_c, 9, 59, 38
4, 68084, Note_on_c, 9, 59, 0
4, 68095, Note_on_c, 9, 44, 0
4, 68132, Note_on_c, 9, 59, 96
4, 68163, Note_on_c, 9, 38, 29
4, 68200, Note_on_c, 9, 38, 0
4, 68237, Note_on_c, 9, 59, 0
4, 68258, Note_on_c, 9, 59, 26
4, 68268, Note_on_c, 9, 59, 0
4, 68277, Note_on_c, 9, 44, 48
4, 68288, Note_on_c, 9, 59, 87
4, 68335, Note_on_c, 9, 44, 0
4, 68357, Note_on_c, 9, 38, 30
4, 68377, Note_on_c, 9, 59, 0
4, 68381, Note_on_c, 9, 38, 0
4, 68404, Note_on_c, 9, 59, 80
4, 68405, Note_on_c, 9, 38, 21
4, 68439, Note_on_c, 9, 38, 0
4, 68480, Note_on_c, 9, 59, 0
4, 68519, Note_on_c, 9, 44, 46
4, 68526, Note_on_c, 9, 59, 87
4, 68577, Note_on_c, 9, 59, 0
4, 68579, Note_on_c, 9, 44, 0
4, 68600, Note_on_c, 9, 38, 37
4, 68609, Note_on_c, 9, 59, 60
4, 68623, Note_on_c, 9, 59, 0
4, 68627, Note_on_c, 9, 38, 0
4, 68646, Note_on_c, 9, 59, 79
4, 68716, Note_on_c, 9, 59, 0
4, 68723, Note_on_c, 9, 38, 40
4, 68748, Note_on_c, 9, 38, 0
4, 68761, Note_on_c, 9, 44, 45
4, 68763, Note_on_c, 9, 59, 80
4, 68816, Note_on_c, 9, 44, 0
4, 68837, Note_on_c, 9, 59, 0
4, 68843, Note_on_c, 9, 38, 44
4, 68860, Note_on_c, 9, 59, 59
4, 68869, Note_on_c, 9, 38, 0
4, 68872, Note_on_c, 9, 59, 0
4, 68893, Note_on_c, 9, 59, 80
4, 68932, Note_on_c, 9, 59, 0
4, 68967, Note_on_c, 9, 38, 46
4, 68979, Note_on_c, 9, 53, 89
4, 68981, Note_on_c, 9, 51, 59
4, 68986, Note_on_c, 9, 50, 77
4, 68994, Note_on_c, 9, 38, 0
4, 69000, Note_on_c, 9, 44, 49
4, 69019, Note_on_c, 9, 50, 0
4, 69051, Note_on_c, 9, 44, 0
4, 69094, Note_on_c, 9, 38, 39
4, 69104, Note_on_c, 9, 53, 0
4, 69105, Note_on_c, 9, 38, 0
4, 69110, Note_on_c, 9, 51, 0
4, 69128, Note_on_c, 9, 51, 85
4, 69137, Note_on_c, 9, 57, 48
4, 69139, Note_on_c, 9, 38, 40
4, 69213, Note_on_c, 9, 51, 0
4, 69248, Note_on_c, 9, 51, 74
4, 69249, Note_on_c, 9, 44, 44
4, 69292, Note_on_c, 9, 44, 0
4, 69331, Note_on_c, 9, 51, 0
4, 69370, Note_on_c, 9, 51, 75
4, 69438, Note_on_c, 9, 51, 0
4, 69475, Note_on_c, 9, 46, 31
4, 69488, Note_on_c, 9, 51, 79
4, 69502, Note_on_c, 9, 38, 0
4, 69503, Note_on_c, 9, 57, 0
4, 69503, Note_on_c, 9, 46, 0
4, 69551, Note_on_c, 9, 51, 0
4, 69602, Note_on_c, 9, 51, 78
4, 69677, Note_on_c, 9, 51, 0
4, 69728, Note_on_c, 9, 51, 81
4, 69730, Note_on_c, 9, 44, 38
4, 69765, Note_on_c, 9, 44, 0
4, 69794, Note_on_c, 9, 51, 0
4, 69844, Note_on_c, 9, 51, 79
4, 69911, Note_on_c, 9, 51, 0
4, 69925, Note_on_c, 9, 38, 31
4, 69940, Note_on_c, 9, 38, 0
4, 69964, Note_on_c, 9, 51, 83
4, 69969, Note_on_c, 9, 38, 29
4, 69971, Note_on_c, 9, 46, 34
4, 70001, Note_on_c, 9, 46, 0
4, 70016, Note_on_c, 9, 51, 0
4, 70022, Note_on_c, 9, 38, 0
4, 70049, Note_on_c, 9, 38, 41
4, 70056, Note_on_c, 9, 51, 74
4, 70076, Note_on_c, 9, 51, 0
4, 70082, Note_on_c, 9, 38, 0
4, 70089, Note_on_c, 9, 51, 74
4, 70173, Note_on_c, 9, 51, 0
4, 70174, Note_on_c, 9, 36, 17
4, 70186, Note_on_c, 9, 36, 0
4, 70204, Note_on_c, 9, 44, 33
4, 70208, Note_on_c, 9, 51, 83
4, 70245, Note_on_c, 9, 44, 0
4, 70259, Note_on_c, 9, 51, 0
4, 70298, Note_on_c, 9, 51, 58
4, 70312, Note_on_c, 9, 51, 0
4, 70331, Note_on_c, 9, 51, 74
4, 70414, Note_on_c, 9, 51, 0
4, 70445, Note_on_c, 9, 44, 44
4, 70452, Note_on_c, 9, 51, 80
4, 70492, Note_on_c, 9, 44, 0
4, 70518, Note_on_c, 9, 51, 0
4, 70542, Note_on_c, 9, 51, 50
4, 70563, Note_on_c, 9, 51, 0
4, 70579, Note_on_c, 9, 51, 77
4, 70645, Note_on_c, 9, 38, 31
4, 70666, Note_on_c, 9, 38, 0
4, 70669, Note_on_c, 9, 51, 0
4, 70691, Note_on_c, 9, 44, 51
4, 70701, Note_on_c, 9, 51, 70
4, 70742, Note_on_c, 9, 44, 0
4, 70760, Note_on_c, 9, 51, 0
4, 70784, Note_on_c, 9, 51, 51
4, 70805, Note_on_c, 9, 51, 0
4, 70820, Note_on_c, 9, 38, 32
4, 70822, Note_on_c, 9, 51, 70
4, 70844, Note_on_c, 9, 38, 0
4, 70887, Note_on_c, 9, 51, 0
4, 70922, Note_on_c, 9, 44, 25
4, 70931, Note_on_c, 9, 51, 75
4, 70974, Note_on_c, 9, 44, 0
4, 70983, Note_on_c, 9, 51, 0
4, 71010, Note_on_c, 9, 38, 26
4, 71018, Note_on_c, 9, 51, 46
4, 71025, Note_on_c, 9, 38, 0
4, 71033, Note_on_c, 9, 51, 0
4, 71051, Note_on_c, 9, 51, 71
4, 71122, Note_on_c, 9, 51, 0
4, 71166, Note_on_c, 9, 51, 78
4, 71168, Note_on_c, 9, 44, 42
4, 71209, Note_on_c, 9, 44, 0
4, 71220, Note_on_c, 9, 51, 0
4, 71255, Note_on_c, 9, 51, 52
4, 71271, Note_on_c, 9, 51, 0
4, 71288, Note_on_c, 9, 51, 72
4, 71290, Note_on_c, 9, 44, 32
4, 71346, Note_on_c, 9, 44, 0
4, 71369, Note_on_c, 9, 51, 0
4, 71376, Note_on_c, 9, 38, 34
4, 71390, Note_on_c, 9, 38, 0
4, 71410, Note_on_c, 9, 51, 83
4, 71469, Note_on_c, 9, 51, 0
4, 71498, Note_on_c, 9, 38, 38
4, 71503, Note_on_c, 9, 51, 54
4, 71522, Note_on_c, 9, 51, 0
4, 71528, Note_on_c, 9, 38, 0
4, 71538, Note_on_c, 9, 51, 75
4, 71606, Note_on_c, 9, 51, 0
4, 71647, Note_on_c, 9, 44, 42
4, 71653, Note_on_c, 9, 51, 78
4, 71704, Note_on_c, 9, 44, 0
4, 71714, Note_on_c, 9, 51, 0
4, 71730, Note_on_c, 9, 38, 28
4, 71739, Note_on_c, 9, 51, 52
4, 71746, Note_on_c, 9, 38, 0
4, 71759, Note_on_c, 9, 51, 0
4, 71775, Note_on_c, 9, 51, 76
4, 71780, Note_on_c, 9, 38, 33
4, 71816, Note_on_c, 9, 38, 0
4, 71835, Note_on_c, 9, 51, 0
4, 71880, Note_on_c, 9, 44, 40
4, 71893, Note_on_c, 9, 51, 83
4, 71940, Note_on_c, 9, 44, 0
4, 71945, Note_on_c, 9, 51, 0
4, 71959, Note_on_c, 9, 38, 42
4, 71979, Note_on_c, 9, 51, 52
4, 71980, Note_on_c, 9, 38, 0
4, 71990, Note_on_c, 9, 51, 0
4, 72008, Note_on_c, 9, 38, 41
4, 72010, Note_on_c, 9, 51, 70
4, 72012, Note_on_c, 9, 44, 43
4, 72046, Note_on_c, 9, 38, 0
4, 72059, Note_on_c, 9, 51, 0
4, 72081, Note_on_c, 9, 44, 0
4, 72202, Note_on_c, 9, 38, 60
4, 72216, Note_on_c, 9, 51, 83
4, 72224, Note_on_c, 9, 38, 0
4, 72239, Note_on_c, 9, 51, 0
4, 72248, Note_on_c, 9, 38, 44
4, 72257, Note_on_c, 9, 51, 71
4, 72308, Note_on_c, 9, 38, 0
4, 72311, Note_on_c, 9, 51, 0
4, 72362, Note_on_c, 9, 51, 74
4, 72363, Note_on_c, 9, 44, 46
4, 72382, Note_on_c, 9, 51, 0
4, 72414, Note_on_c, 9, 44, 0
4, 72445, Note_on_c, 9, 38, 24
4, 72447, Note_on_c, 9, 51, 85
4, 72460, Note_on_c, 9, 38, 0
4, 72473, Note_on_c, 9, 51, 0
4, 72476, Note_on_c, 9, 44, 46
4, 72490, Note_on_c, 9, 51, 63
4, 72545, Note_on_c, 9, 51, 0
4, 72549, Note_on_c, 9, 44, 0
4, 72568, Note_on_c, 9, 38, 34
4, 72571, Note_on_c, 9, 51, 60
4, 72575, Note_on_c, 9, 53, 76
4, 72584, Note_on_c, 9, 38, 0
4, 72667, Note_on_c, 9, 51, 0
4, 72675, Note_on_c, 9, 53, 0
4, 72675, Note_on_c, 9, 38, 51
4, 72689, Note_on_c, 9, 51, 52
4, 72703, Note_on_c, 9, 38, 0
4, 72711, Note_on_c, 9, 51, 0
4, 72718, Note_on_c, 9, 44, 51
4, 72735, Note_on_c, 9, 51, 64
4, 72741, Note_on_c, 9, 53, 77
4, 72768, Note_on_c, 9, 44, 0
4, 72782, Note_on_c, 9, 53, 0
4, 72782, Note_on_c, 9, 51, 0
4, 72799, Note_on_c, 9, 38, 59
4, 72833, Note_on_c, 9, 38, 0
4, 72841, Note_on_c, 9, 44, 53
4, 72903, Note_on_c, 9, 44, 0
4, 72922, Note_on_c, 9, 38, 47
4, 72923, Note_on_c, 9, 53, 68
4, 72933, Note_on_c, 9, 38, 0
4, 72952, Note_on_c, 9, 53, 0
4, 72970, Note_on_c, 9, 53, 62
4, 72970, Note_on_c, 9, 38, 51
4, 72974, Note_on_c, 9, 36, 46
4, 72974, Note_on_c, 9, 57, 56
4, 73049, Note_on_c, 9, 53, 0
4, 73088, Note_on_c, 9, 51, 70
4, 73093, Note_on_c, 9, 44, 42
4, 73155, Note_on_c, 9, 44, 0
4, 73171, Note_on_c, 9, 51, 0
4, 73206, Note_on_c, 9, 51, 50
4, 73228, Note_on_c, 9, 36, 0
4, 73268, Note_on_c, 9, 51, 0
4, 73310, Note_on_c, 9, 57, 0
4, 73313, Note_on_c, 9, 38, 0
4, 73324, Note_on_c, 9, 51, 83
4, 73326, Note_on_c, 9, 44, 40
4, 73370, Note_on_c, 9, 51, 0
4, 73379, Note_on_c, 9, 44, 0
4, 73404, Note_on_c, 9, 36, 36
4, 73410, Note_on_c, 9, 51, 70
4, 73423, Note_on_c, 9, 36, 0
4, 73432, Note_on_c, 9, 51, 0
4, 73445, Note_on_c, 9, 51, 69
4, 73515, Note_on_c, 9, 51, 0
4, 73567, Note_on_c, 9, 51, 88
4, 73568, Note_on_c, 9, 44, 46
4, 73578, Note_on_c, 9, 36, 31
4, 73622, Note_on_c, 9, 36, 0
4, 73624, Note_on_c, 9, 51, 0
4, 73627, Note_on_c, 9, 44, 0
4, 73653, Note_on_c, 9, 51, 51
4, 73671, Note_on_c, 9, 51, 0
4, 73685, Note_on_c, 9, 51, 71
4, 73751, Note_on_c, 9, 51, 0
4, 73803, Note_on_c, 9, 44, 42
4, 73805, Note_on_c, 9, 51, 80
4, 73865, Note_on_c, 9, 44, 0
4, 73883, Note_on_c, 9, 51, 0
4, 73895, Note_on_c, 9, 38, 27
4, 73926, Note_on_c, 9, 51, 76
4, 73928, Note_on_c, 9, 38, 0
4, 73955, Note_on_c, 9, 38, 30
4, 73986, Note_on_c, 9, 51, 0
4, 74014, Note_on_c, 9, 38, 0
4, 74014, Note_on_c, 9, 51, 57
4, 74015, Note_on_c, 9, 53, 68
4, 74053, Note_on_c, 9, 44, 38
4, 74111, Note_on_c, 9, 51, 0
4, 74120, Note_on_c, 9, 44, 0
4, 74120, Note_on_c, 9, 53, 0
4, 74126, Note_on_c, 9, 38, 42
4, 74136, Note_on_c, 9, 51, 46
4, 74153, Note_on_c, 9, 38, 0
4, 74160, Note_on_c, 9, 51, 0
4, 74182, Note_on_c, 9, 51, 57
4, 74184, Note_on_c, 9, 53, 74
4, 74269, Note_on_c, 9, 51, 0
4, 74273, Note_on_c, 9, 53, 0
4, 74294, Note_on_c, 9, 44, 41
4, 74294, Note_on_c, 9, 51, 49
4, 74301, Note_on_c, 9, 38, 40
4, 74341, Note_on_c, 9, 51, 0
4, 74363, Note_on_c, 9, 38, 0
4, 74363, Note_on_c, 9, 44, 0
4, 74371, Note_on_c, 9, 51, 77
4, 74459, Note_on_c, 9, 51, 0
4, 74487, Note_on_c, 9, 51, 44
4, 74496, Note_on_c, 9, 38, 40
4, 74508, Note_on_c, 9, 51, 0
4, 74528, Note_on_c, 9, 44, 42
4, 74530, Note_on_c, 9, 51, 74
4, 74531, Note_on_c, 9, 38, 0
4, 74601, Note_on_c, 9, 44, 0
4, 74622, Note_on_c, 9, 51, 0
4, 74654, Note_on_c, 9, 51, 69
4, 74666, Note_on_c, 9, 38, 36
4, 74712, Note_on_c, 9, 38, 0
4, 74732, Note_on_c, 9, 51, 0
4, 74770, Note_on_c, 9, 44, 42
4, 74772, Note_on_c, 9, 51, 79
4, 74825, Note_on_c, 9, 51, 0
4, 74832, Note_on_c, 9, 44, 0
4, 74859, Note_on_c, 9, 51, 61
4, 74880, Note_on_c, 9, 51, 0
4, 74893, Note_on_c, 9, 51, 70
4, 74976, Note_on_c, 9, 51, 0
4, 75009, Note_on_c, 9, 51, 76
4, 75012, Note_on_c, 9, 44, 42
4, 75066, Note_on_c, 9, 51, 0
4, 75083, Note_on_c, 9, 44, 0
4, 75095, Note_on_c, 9, 51, 56
4, 75116, Note_on_c, 9, 51, 0
4, 75132, Note_on_c, 9, 51, 75
4, 75217, Note_on_c, 9, 51, 0
4, 75247, Note_on_c, 9, 44, 40
4, 75247, Note_on_c, 9, 51, 74
4, 75296, Note_on_c, 9, 51, 0
4, 75312, Note_on_c, 9, 44, 0
4, 75327, Note_on_c, 9, 38, 25
4, 75330, Note_on_c, 9, 51, 67
4, 75350, Note_on_c, 9, 51, 0
4, 75351, Note_on_c, 9, 38, 0
4, 75366, Note_on_c, 9, 51, 75
4, 75447, Note_on_c, 9, 51, 0
4, 75447, Note_on_c, 9, 38, 39
4, 75475, Note_on_c, 9, 38, 0
4, 75484, Note_on_c, 9, 44, 39
4, 75484, Note_on_c, 9, 51, 84
4, 75535, Note_on_c, 9, 44, 0
4, 75561, Note_on_c, 9, 51, 0
4, 75564, Note_on_c, 9, 38, 31
4, 75591, Note_on_c, 9, 38, 0
4, 75603, Note_on_c, 9, 51, 80
4, 75618, Note_on_c, 9, 36, 20
4, 75657, Note_on_c, 9, 36, 0
4, 75675, Note_on_c, 9, 51, 0
4, 75724, Note_on_c, 9, 51, 86
4, 75725, Note_on_c, 9, 44, 40
4, 75772, Note_on_c, 9, 51, 0
4, 75781, Note_on_c, 9, 44, 0
4, 75812, Note_on_c, 9, 51, 73
4, 75833, Note_on_c, 9, 51, 0
4, 75847, Note_on_c, 9, 51, 71
4, 75923, Note_on_c, 9, 51, 0
4, 75963, Note_on_c, 9, 51, 81
4, 75967, Note_on_c, 9, 44, 46
4, 76014, Note_on_c, 9, 51, 0
4, 76018, Note_on_c, 9, 44, 0
4, 76041, Note_on_c, 9, 38, 31
4, 76050, Note_on_c, 9, 51, 59
4, 76062, Note_on_c, 9, 38, 0
4, 76070, Note_on_c, 9, 51, 0
4, 76084, Note_on_c, 9, 51, 74
4, 76101, Note_on_c, 9, 38, 12
4, 76133, Note_on_c, 9, 38, 0
4, 76181, Note_on_c, 9, 51, 0
4, 76181, Note_on_c, 9, 38, 20
4, 76198, Note_on_c, 9, 38, 0
4, 76204, Note_on_c, 9, 44, 49
4, 76212, Note_on_c, 9, 51, 79
4, 76256, Note_on_c, 9, 44, 0
4, 76265, Note_on_c, 9, 51, 0
4, 76284, Note_on_c, 9, 38, 25
4, 76293, Note_on_c, 9, 51, 55
4, 76314, Note_on_c, 9, 38, 0
4, 76315, Note_on_c, 9, 51, 0
4, 76327, Note_on_c, 9, 51, 71
4, 76405, Note_on_c, 9, 38, 41
4, 76412, Note_on_c, 9, 51, 0
4, 76431, Note_on_c, 9, 38, 0
4, 76441, Note_on_c, 9, 44, 50
4, 76445, Note_on_c, 9, 51, 78
4, 76505, Note_on_c, 9, 44, 0
4, 76519, Note_on_c, 9, 38, 46
4, 76529, Note_on_c, 9, 51, 0
4, 76550, Note_on_c, 9, 38, 0
4, 76564, Note_on_c, 9, 51, 73
4, 76633, Note_on_c, 9, 51, 0
4, 76643, Note_on_c, 9, 38, 50
4, 76649, Note_on_c, 9, 51, 71
4, 76650, Note_on_c, 9, 53, 71
4, 76673, Note_on_c, 9, 38, 0
4, 76690, Note_on_c, 9, 44, 51
4, 76746, Note_on_c, 9, 44, 0
4, 76761, Note_on_c, 9, 51, 0
4, 76768, Note_on_c, 9, 38, 38
4, 76770, Note_on_c, 9, 53, 0
4, 76781, Note_on_c, 9, 51, 56
4, 76786, Note_on_c, 9, 38, 0
4, 76805, Note_on_c, 9, 51, 0
4, 76818, Note_on_c, 9, 38, 34
4, 76819, Note_on_c, 9, 36, 40
4, 76821, Note_on_c, 9, 51, 76
4, 76821, Note_on_c, 9, 57, 49
4, 76824, Note_on_c, 9, 53, 80
4, 76906, Note_on_c, 9, 51, 0
4, 76910, Note_on_c, 9, 53, 0
4, 76927, Note_on_c, 9, 44, 46
4, 76935, Note_on_c, 9, 51, 45
4, 76983, Note_on_c, 9, 51, 0
4, 76987, Note_on_c, 9, 44, 0
4, 77013, Note_on_c, 9, 51, 76
4, 77116, Note_on_c, 9, 51, 0
4, 77142, Note_on_c, 9, 51, 52
4, 77158, Note_on_c, 9, 44, 49
4, 77163, Note_on_c, 9, 51, 0
4, 77180, Note_on_c, 9, 51, 75
4, 77217, Note_on_c, 9, 44, 0
4, 77249, Note_on_c, 9, 38, 0
4, 77255, Note_on_c, 9, 57, 0
4, 77261, Note_on_c, 9, 36, 0
4, 77270, Note_on_c, 9, 51, 0
4, 77295, Note_on_c, 9, 51, 64
4, 77361, Note_on_c, 9, 51, 0
4, 77409, Note_on_c, 9, 44, 45
4, 77412, Note_on_c, 9, 51, 77
4, 77464, Note_on_c, 9, 44, 0
4, 77466, Note_on_c, 9, 51, 0
4, 77493, Note_on_c, 9, 51, 58
4, 77514, Note_on_c, 9, 51, 0
4, 77529, Note_on_c, 9, 51, 77
4, 77606, Note_on_c, 9, 51, 0
4, 77642, Note_on_c, 9, 44, 44
4, 77648, Note_on_c, 9, 51, 78
4, 77703, Note_on_c, 9, 51, 0
4, 77704, Note_on_c, 9, 44, 0
4, 77741, Note_on_c, 9, 51, 60
4, 77763, Note_on_c, 9, 51, 0
4, 77774, Note_on_c, 9, 51, 67
4, 77841, Note_on_c, 9, 51, 0
4, 77884, Note_on_c, 9, 44, 45
4, 77885, Note_on_c, 9, 51, 82
4, 77932, Note_on_c, 9, 44, 0
4, 77964, Note_on_c, 9, 51, 0
4, 78007, Note_on_c, 9, 51, 76
4, 78066, Note_on_c, 9, 51, 0
4, 78123, Note_on_c, 9, 44, 47
4, 78127, Note_on_c, 9, 51, 83
4, 78170, Note_on_c, 9, 44, 0
4, 78189, Note_on_c, 9, 51, 0
4, 78214, Note_on_c, 9, 51, 53
4, 78234, Note_on_c, 9, 51, 0
4, 78249, Note_on_c, 9, 51, 76
4, 78299, Note_on_c, 9, 51, 0
4, 78364, Note_on_c, 9, 44, 42
4, 78367, Note_on_c, 9, 51, 84
4, 78413, Note_on_c, 9, 44, 0
4, 78431, Note_on_c, 9, 51, 0
4, 78448, Note_on_c, 9, 38, 41
4, 78489, Note_on_c, 9, 51, 83
4, 78491, Note_on_c, 9, 38, 0
4, 78546, Note_on_c, 9, 51, 0
4, 78571, Note_on_c, 9, 38, 42
4, 78580, Note_on_c, 9, 51, 62
4, 78600, Note_on_c, 9, 51, 0
4, 78607, Note_on_c, 9, 44, 43
4, 78610, Note_on_c, 9, 38, 0
4, 78612, Note_on_c, 9, 51, 73
4, 78656, Note_on_c, 9, 44, 0
4, 78660, Note_on_c, 9, 51, 0
4, 78693, Note_on_c, 9, 38, 34
4, 78721, Note_on_c, 9, 38, 0
4, 78730, Note_on_c, 9, 51, 86
4, 78797, Note_on_c, 9, 51, 0
4, 78844, Note_on_c, 9, 44, 39
4, 78846, Note_on_c, 9, 51, 75
4, 78893, Note_on_c, 9, 51, 0
4, 78897, Note_on_c, 9, 44, 0
4, 78929, Note_on_c, 9, 51, 60
4, 78949, Note_on_c, 9, 51, 0
4, 78968, Note_on_c, 9, 51, 68
4, 79014, Note_on_c, 9, 51, 0
4, 79046, Note_on_c, 9, 51, 73
4, 79048, Note_on_c, 9, 53, 72
4, 79086, Note_on_c, 9, 44, 46
4, 79137, Note_on_c, 9, 44, 0
4, 79147, Note_on_c, 9, 51, 0
4, 79157, Note_on_c, 9, 53, 0
4, 79173, Note_on_c, 9, 51, 36
4, 79193, Note_on_c, 9, 51, 0
4, 79214, Note_on_c, 9, 51, 55
4, 79216, Note_on_c, 9, 53, 74
4, 79220, Note_on_c, 9, 38, 25
4, 79254, Note_on_c, 9, 38, 0
4, 79286, Note_on_c, 9, 53, 0
4, 79293, Note_on_c, 9, 51, 0
4, 79327, Note_on_c, 9, 44, 46
4, 79335, Note_on_c, 9, 51, 58
4, 79358, Note_on_c, 9, 51, 0
4, 79382, Note_on_c, 9, 44, 0
4, 79410, Note_on_c, 9, 51, 86
4, 79419, Note_on_c, 9, 38, 25
4, 79450, Note_on_c, 9, 38, 0
4, 79491, Note_on_c, 9, 51, 0
4, 79535, Note_on_c, 9, 51, 53
4, 79549, Note_on_c, 9, 51, 0
4, 79567, Note_on_c, 9, 44, 57
4, 79567, Note_on_c, 9, 38, 44
4, 79578, Note_on_c, 9, 51, 85
4, 79630, Note_on_c, 9, 44, 0
4, 79638, Note_on_c, 9, 38, 0
4, 79653, Note_on_c, 9, 51, 0
4, 79760, Note_on_c, 9, 51, 91
4, 79808, Note_on_c, 9, 44, 55
4, 79830, Note_on_c, 9, 51, 0
4, 79883, Note_on_c, 9, 44, 0
4, 79937, Note_on_c, 9, 51, 90
4, 80004, Note_on_c, 9, 51, 0
4, 80027, Note_on_c, 9, 38, 20
4, 80044, Note_on_c, 9, 44, 54
4, 80052, Note_on_c, 9, 51, 62
4, 80061, Note_on_c, 9, 38, 0
4, 80069, Note_on_c, 9, 51, 0
4, 80115, Note_on_c, 9, 44, 0
4, 80128, Note_on_c, 9, 51, 97
4, 80157, Note_on_c, 9, 51, 0
4, 80246, Note_on_c, 9, 51, 94
4, 80277, Note_on_c, 9, 51, 0
4, 80284, Note_on_c, 9, 44, 52
4, 80342, Note_on_c, 9, 44, 0
4, 80368, Note_on_c, 9, 51, 83
4, 80369, Note_on_c, 9, 38, 55
4, 80385, Note_on_c, 9, 51, 0
4, 80403, Note_on_c, 9, 38, 0
4, 80403, Note_on_c, 9, 51, 79
4, 80442, Note_on_c, 9, 51, 0
4, 80487, Note_on_c, 9, 38, 55
4, 80518, Note_on_c, 9, 44, 52
4, 80522, Note_on_c, 9, 51, 97
4, 80542, Note_on_c, 9, 38, 0
4, 80558, Note_on_c, 9, 51, 0
4, 80572, Note_on_c, 9, 44, 0
4, 80609, Note_on_c, 9, 38, 41
4, 80634, Note_on_c, 9, 38, 0
4, 80640, Note_on_c, 9, 47, 1
4, 80642, Note_on_c, 9, 51, 97
4, 80648, Note_on_c, 9, 36, 59
4, 80651, Note_on_c, 9, 57, 74
4, 80655, Note_on_c, 9, 47, 0
4, 80665, Note_on_c, 9, 51, 0
4, 80764, Note_on_c, 9, 59, 50
4, 80775, Note_on_c, 9, 44, 26
4, 80789, Note_on_c, 9, 59, 0
4, 80815, Note_on_c, 9, 44, 0
4, 80885, Note_on_c, 9, 59, 58
4, 80888, Note_on_c, 9, 44, 23
4, 80911, Note_on_c, 9, 59, 0
4, 80966, Note_on_c, 9, 44, 0
4, 81032, Note_on_c, 9, 57, 0
4, 81053, Note_on_c, 9, 36, 0
4, 81086, Note_on_c, 9, 59, 42
4, 81101, Note_on_c, 9, 59, 0
4, 81129, Note_on_c, 9, 59, 52
4, 81174, Note_on_c, 9, 59, 0
4, 81203, Note_on_c, 9, 59, 45
4, 81225, Note_on_c, 9, 59, 0
4, 81256, Note_on_c, 9, 44, 20
4, 81312, Note_on_c, 9, 44, 0
4, 81371, Note_on_c, 9, 59, 56
4, 81393, Note_on_c, 9, 59, 0
4, 81487, Note_on_c, 9, 44, 22
4, 81550, Note_on_c, 9, 44, 0
4, 81571, Note_on_c, 9, 38, 27
4, 81591, Note_on_c, 9, 38, 0
4, 81622, Note_on_c, 9, 38, 36
4, 81664, Note_on_c, 9, 38, 0
4, 81685, Note_on_c, 9, 59, 58
4, 81702, Note_on_c, 9, 36, 27
4, 81703, Note_on_c, 9, 59, 0
4, 81732, Note_on_c, 9, 36, 0
4, 81739, Note_on_c, 9, 44, 17
4, 81783, Note_on_c, 9, 44, 0
4, 81854, Note_on_c, 9, 44, 16
4, 81864, Note_on_c, 9, 59, 58
4, 81886, Note_on_c, 9, 59, 0
4, 81907, Note_on_c, 9, 44, 0
4, 81966, Note_on_c, 9, 44, 24
4, 82036, Note_on_c, 9, 44, 0
4, 82057, Note_on_c, 9, 38, 31
4, 82058, Note_on_c, 9, 53, 44
4, 82059, Note_on_c, 9, 59, 46
4, 82071, Note_on_c, 9, 59, 0
4, 82071, Note_on_c, 9, 38, 0
4, 82080, Note_on_c, 9, 53, 0
4, 82173, Note_on_c, 9, 38, 37
4, 82185, Note_on_c, 9, 38, 0
4, 82261, Note_on_c, 9, 44, 15
4, 82279, Note_on_c, 9, 44, 0
4, 82286, Note_on_c, 9, 59, 42
4, 82296, Note_on_c, 9, 59, 0
4, 82302, Note_on_c, 9, 38, 35
4, 82306, Note_on_c, 9, 44, 18
4, 82314, Note_on_c, 9, 38, 0
4, 82335, Note_on_c, 9, 59, 45
4, 82349, Note_on_c, 9, 38, 29
4, 82353, Note_on_c, 9, 59, 0
4, 82369, Note_on_c, 9, 44, 0
4, 82380, Note_on_c, 9, 38, 0
4, 82513, Note_on_c, 9, 44, 20
4, 82522, Note_on_c, 9, 59, 28
4, 82537, Note_on_c, 9, 59, 0
4, 82538, Note_on_c, 9, 44, 0
4, 82562, Note_on_c, 9, 44, 13
4, 82565, Note_on_c, 9, 59, 44
4, 82589, Note_on_c, 9, 59, 0
4, 82638, Note_on_c, 9, 44, 0
4, 82760, Note_on_c, 9, 59, 38
4, 82774, Note_on_c, 9, 59, 0
4, 82805, Note_on_c, 9, 59, 34
4, 82834, Note_on_c, 9, 59, 0
4, 82876, Note_on_c, 9, 59, 53
4, 82898, Note_on_c, 9, 59, 0
4, 82923, Note_on_c, 9, 59, 55
4, 82924, Note_on_c, 9, 44, 20
4, 82952, Note_on_c, 9, 59, 0
4, 82982, Note_on_c, 9, 44, 0
4, 83050, Note_on_c, 9, 59, 72
4, 83143, Note_on_c, 9, 59, 0
4, 83171, Note_on_c, 9, 59, 32
4, 83196, Note_on_c, 9, 59, 0
4, 83250, Note_on_c, 9, 59, 69
4, 83359, Note_on_c, 9, 59, 0
4, 83483, Note_on_c, 9, 59, 45
4, 83500, Note_on_c, 9, 59, 0
4, 83534, Note_on_c, 9, 59, 48
4, 83557, Note_on_c, 9, 59, 0
4, 83612, Note_on_c, 9, 59, 62
4, 83616, Note_on_c, 9, 51, 46
4, 83616, Note_on_c, 9, 53, 50
4, 83690, Note_on_c, 9, 53, 0
4, 83691, Note_on_c, 9, 59, 0
4, 83697, Note_on_c, 9, 51, 0
4, 83731, Note_on_c, 9, 38, 31
4, 83744, Note_on_c, 9, 38, 0
4, 83785, Note_on_c, 9, 59, 58
4, 83786, Note_on_c, 9, 51, 50
4, 83789, Note_on_c, 9, 53, 50
4, 83845, Note_on_c, 9, 38, 40
4, 83846, Note_on_c, 9, 44, 23
4, 83856, Note_on_c, 9, 53, 0
4, 83858, Note_on_c, 9, 59, 0
4, 83859, Note_on_c, 9, 38, 0
4, 83863, Note_on_c, 9, 51, 0
4, 83875, Note_on_c, 9, 44, 0
4, 83930, Note_on_c, 9, 44, 19
4, 83975, Note_on_c, 9, 38, 37
4, 83978, Note_on_c, 9, 44, 0
4, 83987, Note_on_c, 9, 38, 0
4, 84018, Note_on_c, 9, 44, 19
4, 84035, Note_on_c, 9, 36, 27
4, 84055, Note_on_c, 9, 36, 0
4, 84076, Note_on_c, 9, 44, 0
4, 84079, Note_on_c, 9, 59, 40
4, 84093, Note_on_c, 9, 59, 0
4, 84121, Note_on_c, 9, 59, 44
4, 84142, Note_on_c, 9, 59, 0
4, 84189, Note_on_c, 9, 51, 42
4, 84194, Note_on_c, 9, 53, 44
4, 84195, Note_on_c, 9, 59, 59
4, 84230, Note_on_c, 9, 59, 0
4, 84232, Note_on_c, 9, 53, 0
4, 84238, Note_on_c, 9, 51, 0
4, 84321, Note_on_c, 9, 59, 45
4, 84343, Note_on_c, 9, 59, 0
4, 84374, Note_on_c, 9, 44, 23
4, 84374, Note_on_c, 9, 51, 50
4, 84375, Note_on_c, 9, 59, 58
4, 84377, Note_on_c, 9, 53, 48
4, 84415, Note_on_c, 9, 44, 0
4, 84443, Note_on_c, 9, 59, 0
4, 84447, Note_on_c, 9, 53, 0
4, 84448, Note_on_c, 9, 51, 0
4, 84677, Note_on_c, 9, 59, 43
4, 84693, Note_on_c, 9, 59, 0
4, 84731, Note_on_c, 9, 59, 40
4, 84753, Note_on_c, 9, 59, 0
4, 84800, Note_on_c, 9, 59, 40
4, 84809, Note_on_c, 9, 44, 22
4, 84817, Note_on_c, 9, 59, 0
4, 84832, Note_on_c, 9, 44, 0
4, 84859, Note_on_c, 9, 59, 42
4, 84874, Note_on_c, 9, 59, 0
4, 84915, Note_on_c, 9, 59, 54
4, 84916, Note_on_c, 9, 44, 28
4, 84935, Note_on_c, 9, 59, 0
4, 84948, Note_on_c, 9, 44, 0
4, 84976, Note_on_c, 9, 59, 75
4, 84994, Note_on_c, 9, 46, 20
4, 85037, Note_on_c, 9, 59, 0
4, 85057, Note_on_c, 9, 46, 0
4, 85092, Note_on_c, 9, 51, 42
4, 85092, Note_on_c, 9, 59, 58
4, 85094, Note_on_c, 9, 53, 44
4, 85158, Note_on_c, 9, 38, 39
4, 85168, Note_on_c, 9, 53, 0
4, 85169, Note_on_c, 9, 38, 0
4, 85170, Note_on_c, 9, 59, 0
4, 85180, Note_on_c, 9, 51, 0
4, 85283, Note_on_c, 9, 38, 42
4, 85285, Note_on_c, 9, 51, 35
4, 85285, Note_on_c, 9, 59, 50
4, 85289, Note_on_c, 9, 53, 36
4, 85296, Note_on_c, 9, 38, 0
4, 85331, Note_on_c, 9, 53, 0
4, 85332, Note_on_c, 9, 59, 0
4, 85346, Note_on_c, 9, 51, 0
4, 85396, Note_on_c, 9, 44, 22
4, 85400, Note_on_c, 9, 38, 40
4, 85403, Note_on_c, 9, 59, 44
4, 85412, Note_on_c, 9, 44, 0
4, 85426, Note_on_c, 9, 59, 0
4, 85429, Note_on_c, 9, 38, 0
4, 85447, Note_on_c, 9, 44, 25
4, 85460, Note_on_c, 9, 51, 42
4, 85462, Note_on_c, 9, 59, 54
4, 85463, Note_on_c, 9, 53, 44
4, 85470, Note_on_c, 9, 36, 21
4, 85486, Note_on_c, 9, 36, 0
4, 85527, Note_on_c, 9, 53, 0
4, 85528, Note_on_c, 9, 59, 0
4, 85539, Note_on_c, 9, 51, 0
4, 85540, Note_on_c, 9, 44, 0
4, 85578, Note_on_c, 9, 46, 20
4, 85630, Note_on_c, 9, 46, 0
4, 85761, Note_on_c, 9, 59, 36
4, 85784, Note_on_c, 9, 59, 0
4, 85815, Note_on_c, 9, 59, 38
4, 85831, Note_on_c, 9, 59, 0
4, 85879, Note_on_c, 9, 59, 53
4, 85900, Note_on_c, 9, 59, 0
4, 85931, Note_on_c, 9, 59, 67
4, 85964, Note_on_c, 9, 59, 0
4, 86050, Note_on_c, 9, 59, 70
4, 86051, Note_on_c, 9, 51, 51
4, 86055, Note_on_c, 9, 53, 48
4, 86075, Note_on_c, 9, 59, 0
4, 86078, Note_on_c, 9, 53, 0
4, 86094, Note_on_c, 9, 51, 0
4, 86171, Note_on_c, 9, 59, 62
4, 86171, Note_on_c, 9, 51, 52
4, 86175, Note_on_c, 9, 53, 50
4, 86203, Note_on_c, 9, 59, 0
4, 86205, Note_on_c, 9, 53, 0
4, 86217, Note_on_c, 9, 51, 0
4, 86238, Note_on_c, 9, 51, 44
4, 86240, Note_on_c, 9, 59, 56
4, 86242, Note_on_c, 9, 53, 48
4, 86268, Note_on_c, 9, 59, 0
4, 86269, Note_on_c, 9, 53, 0
4, 86284, Note_on_c, 9, 51, 0
4, 86288, Note_on_c, 9, 44, 30
4, 86291, Note_on_c, 9, 37, 34
4, 86334, Note_on_c, 9, 44, 0
4, 86341, Note_on_c, 9, 37, 0
4, 86393, Note_on_c, 9, 51, 56
4, 86395, Note_on_c, 9, 59, 63
4, 86395, Note_on_c, 9, 53, 56
4, 86411, Note_on_c, 9, 37, 31
4, 86423, Note_on_c, 9, 59, 0
4, 86428, Note_on_c, 9, 53, 0
4, 86441, Note_on_c, 9, 51, 0
4, 86465, Note_on_c, 9, 37, 0
4, 86525, Note_on_c, 9, 38, 31
4, 86528, Note_on_c, 9, 44, 23
4, 86554, Note_on_c, 9, 38, 0
4, 86580, Note_on_c, 9, 44, 0
4, 86648, Note_on_c, 9, 38, 28
4, 86712, Note_on_c, 9, 38, 0
4, 86756, Note_on_c, 9, 59, 36
4, 86773, Note_on_c, 9, 59, 0
4, 86886, Note_on_c, 9, 59, 42
4, 86901, Note_on_c, 9, 59, 0
4, 87012, Note_on_c, 9, 46, 36
4, 87046, Note_on_c, 9, 46, 0
4, 87077, Note_on_c, 9, 59, 40
4, 87102, Note_on_c, 9, 59, 0
4, 87123, Note_on_c, 9, 38, 24
4, 87128, Note_on_c, 9, 59, 44
4, 87144, Note_on_c, 9, 38, 0
4, 87164, Note_on_c, 9, 59, 0
4, 87196, Note_on_c, 9, 38, 44
4, 87232, Note_on_c, 9, 38, 0
4, 87243, Note_on_c, 9, 44, 22
4, 87247, Note_on_c, 9, 59, 53
4, 87249, Note_on_c, 9, 38, 42
4, 87288, Note_on_c, 9, 38, 0
4, 87291, Note_on_c, 9, 44, 0
4, 87303, Note_on_c, 9, 59, 0
4, 87319, Note_on_c, 9, 38, 51
4, 87353, Note_on_c, 9, 38, 0
4, 87374, Note_on_c, 9, 38, 54
4, 87425, Note_on_c, 9, 38, 0
4, 87448, Note_on_c, 9, 59, 46
4, 87472, Note_on_c, 9, 59, 0
4, 87478, Note_on_c, 9, 44, 29
4, 87490, Note_on_c, 9, 59, 55
4, 87495, Note_on_c, 9, 36, 16
4, 87525, Note_on_c, 9, 59, 0
4, 87532, Note_on_c, 9, 36, 0
4, 87539, Note_on_c, 9, 44, 0
4, 87605, Note_on_c, 9, 59, 64
4, 87652, Note_on_c, 9, 59, 0
4, 87843, Note_on_c, 9, 59, 42
4, 87863, Note_on_c, 9, 59, 0
4, 87965, Note_on_c, 9, 44, 29
4, 87965, Note_on_c, 9, 59, 60
4, 87987, Note_on_c, 9, 59, 0
4, 88003, Note_on_c, 9, 44, 0
4, 88048, Note_on_c, 9, 38, 23
4, 88071, Note_on_c, 9, 38, 0
4, 88081, Note_on_c, 9, 44, 32
4, 88093, Note_on_c, 9, 59, 54
4, 88117, Note_on_c, 9, 59, 0
4, 88138, Note_on_c, 9, 44, 0
4, 88158, Note_on_c, 9, 59, 48
4, 88175, Note_on_c, 9, 38, 29
4, 88181, Note_on_c, 9, 59, 0
4, 88202, Note_on_c, 9, 38, 0
4, 88214, Note_on_c, 9, 59, 41
4, 88237, Note_on_c, 9, 59, 0
4, 88301, Note_on_c, 9, 38, 24
4, 88316, Note_on_c, 9, 38, 0
4, 88326, Note_on_c, 9, 44, 23
4, 88331, Note_on_c, 9, 57, 49
4, 88332, Note_on_c, 9, 59, 49
4, 88345, Note_on_c, 9, 57, 0
4, 88348, Note_on_c, 9, 59, 0
4, 88351, Note_on_c, 9, 38, 25
4, 88378, Note_on_c, 9, 44, 0
4, 88423, Note_on_c, 9, 38, 0
4, 88443, Note_on_c, 9, 44, 26
4, 88512, Note_on_c, 9, 44, 0
4, 88625, Note_on_c, 9, 59, 38
4, 88637, Note_on_c, 9, 38, 38
4, 88639, Note_on_c, 9, 59, 0
4, 88667, Note_on_c, 9, 38, 0
4, 88678, Note_on_c, 9, 59, 56
4, 88687, Note_on_c, 9, 44, 26
4, 88700, Note_on_c, 9, 38, 24
4, 88725, Note_on_c, 9, 59, 0
4, 88744, Note_on_c, 9, 38, 0
4, 88752, Note_on_c, 9, 44, 0
4, 88777, Note_on_c, 9, 38, 27
4, 88814, Note_on_c, 9, 38, 0
4, 88914, Note_on_c, 9, 59, 52
4, 88925, Note_on_c, 9, 44, 30
4, 88936, Note_on_c, 9, 59, 0
4, 88987, Note_on_c, 9, 44, 0
4, 89016, Note_on_c, 9, 59, 62
4, 89040, Note_on_c, 9, 59, 0
4, 89053, Note_on_c, 9, 44, 26
4, 89104, Note_on_c, 9, 44, 0
4, 89125, Note_on_c, 9, 40, 36
4, 89127, Note_on_c, 9, 59, 61
4, 89155, Note_on_c, 9, 59, 0
4, 89155, Note_on_c, 9, 40, 0
4, 89169, Note_on_c, 9, 46, 24
4, 89171, Note_on_c, 9, 38, 19
4, 89221, Note_on_c, 9, 46, 0
4, 89236, Note_on_c, 9, 38, 0
4, 89240, Note_on_c, 9, 59, 49
4, 89266, Note_on_c, 9, 59, 0
4, 89290, Note_on_c, 9, 59, 58
4, 89346, Note_on_c, 9, 59, 0
4, 89605, Note_on_c, 9, 59, 41
4, 89609, Note_on_c, 9, 53, 34
4, 89624, Note_on_c, 9, 59, 0
4, 89635, Note_on_c, 9, 44, 30
4, 89637, Note_on_c, 9, 53, 0
4, 89681, Note_on_c, 9, 44, 0
4, 89691, Note_on_c, 9, 59, 49
4, 89695, Note_on_c, 9, 53, 42
4, 89714, Note_on_c, 9, 38, 26
4, 89726, Note_on_c, 9, 59, 0
4, 89730, Note_on_c, 9, 38, 0
4, 89734, Note_on_c, 9, 53, 0
4, 89747, Note_on_c, 9, 38, 21
4, 89768, Note_on_c, 9, 38, 0
4, 89781, Note_on_c, 9, 53, 45
4, 89783, Note_on_c, 9, 59, 51
4, 89831, Note_on_c, 9, 53, 0
4, 89832, Note_on_c, 9, 59, 0
4, 89859, Note_on_c, 9, 59, 38
4, 89883, Note_on_c, 9, 59, 0
4, 89885, Note_on_c, 9, 44, 26
4, 89929, Note_on_c, 9, 44, 0
4, 89955, Note_on_c, 9, 59, 42
4, 89956, Note_on_c, 9, 53, 40
4, 89968, Note_on_c, 9, 59, 0
4, 89975, Note_on_c, 9, 53, 0
4, 90026, Note_on_c, 9, 59, 58
4, 90028, Note_on_c, 9, 53, 50
4, 90078, Note_on_c, 9, 53, 0
4, 90080, Note_on_c, 9, 59, 0
4, 90098, Note_on_c, 9, 38, 14
4, 90109, Note_on_c, 9, 59, 40
4, 90117, Note_on_c, 9, 38, 0
4, 90122, Note_on_c, 9, 46, 30
4, 90125, Note_on_c, 9, 59, 0
4, 90153, Note_on_c, 9, 46, 0
4, 90189, Note_on_c, 9, 59, 52
4, 90194, Note_on_c, 9, 53, 45
4, 90195, Note_on_c, 9, 38, 13
4, 90212, Note_on_c, 9, 38, 0
4, 90213, Note_on_c, 9, 59, 0
4, 90219, Note_on_c, 9, 53, 0
4, 90225, Note_on_c, 9, 38, 24
4, 90241, Note_on_c, 9, 38, 0
4, 90248, Note_on_c, 9, 53, 52
4, 90249, Note_on_c, 9, 59, 56
4, 90302, Note_on_c, 9, 59, 0
4, 90312, Note_on_c, 9, 53, 0
4, 90360, Note_on_c, 9, 53, 49
4, 90360, Note_on_c, 9, 59, 50
4, 90419, Note_on_c, 9, 59, 0
4, 90437, Note_on_c, 9, 53, 0
4, 90560, Note_on_c, 9, 36, 33
4, 90575, Note_on_c, 9, 36, 0
4, 90633, Note_on_c, 9, 36, 8
4, 90662, Note_on_c, 9, 36, 0
4, 90845, Note_on_c, 9, 44, 30
4, 90854, Note_on_c, 9, 59, 42
4, 90866, Note_on_c, 9, 59, 0
4, 90885, Note_on_c, 9, 44, 0
4, 90922, Note_on_c, 9, 38, 16
4, 90926, Note_on_c, 9, 59, 56
4, 90942, Note_on_c, 9, 38, 0
4, 90948, Note_on_c, 9, 59, 0
4, 90977, Note_on_c, 9, 38, 24
4, 90986, Note_on_c, 9, 59, 62
4, 91018, Note_on_c, 9, 38, 0
4, 91047, Note_on_c, 9, 59, 0
4, 91049, Note_on_c, 9, 38, 31
4, 91077, Note_on_c, 9, 44, 25
4, 91080, Note_on_c, 9, 38, 0
4, 91127, Note_on_c, 9, 44, 0
4, 91172, Note_on_c, 9, 59, 38
4, 91197, Note_on_c, 9, 59, 0
4, 91221, Note_on_c, 9, 38, 34
4, 91229, Note_on_c, 9, 59, 38
4, 91241, Note_on_c, 9, 59, 0
4, 91260, Note_on_c, 9, 38, 0
4, 91287, Note_on_c, 9, 59, 48
4, 91317, Note_on_c, 9, 59, 0
4, 91346, Note_on_c, 9, 59, 66
4, 91408, Note_on_c, 9, 40, 16
4, 91409, Note_on_c, 9, 59, 0
4, 91424, Note_on_c, 9, 40, 0
4, 91511, Note_on_c, 9, 40, 35
4, 91520, Note_on_c, 9, 59, 41
4, 91532, Note_on_c, 9, 40, 0
4, 91543, Note_on_c, 9, 59, 0
4, 91558, Note_on_c, 9, 44, 38
4, 91625, Note_on_c, 9, 44, 0
4, 91632, Note_on_c, 9, 59, 44
4, 91643, Note_on_c, 9, 38, 23
4, 91649, Note_on_c, 9, 59, 0
4, 91660, Note_on_c, 9, 38, 0
4, 91696, Note_on_c, 9, 59, 64
4, 91700, Note_on_c, 9, 38, 19
4, 91733, Note_on_c, 9, 38, 0
4, 91768, Note_on_c, 9, 59, 0
4, 91803, Note_on_c, 9, 44, 36
4, 91812, Note_on_c, 9, 59, 42
4, 91836, Note_on_c, 9, 59, 0
4, 91867, Note_on_c, 9, 44, 0
4, 91878, Note_on_c, 9, 38, 25
4, 91880, Note_on_c, 9, 59, 52
4, 91895, Note_on_c, 9, 38, 0
4, 91905, Note_on_c, 9, 59, 0
4, 91939, Note_on_c, 9, 38, 18
4, 91966, Note_on_c, 9, 38, 0
4, 91978, Note_on_c, 9, 51, 41
4, 91980, Note_on_c, 9, 59, 50
4, 91982, Note_on_c, 9, 53, 40
4, 92004, Note_on_c, 9, 59, 0
4, 92007, Note_on_c, 9, 53, 0
4, 92014, Note_on_c, 9, 51, 0
4, 92031, Note_on_c, 9, 59, 46
4, 92034, Note_on_c, 9, 51, 32
4, 92035, Note_on_c, 9, 53, 42
4, 92043, Note_on_c, 9, 44, 31
4, 92094, Note_on_c, 9, 44, 0
4, 92096, Note_on_c, 9, 59, 0
4, 92108, Note_on_c, 9, 53, 0
4, 92121, Note_on_c, 9, 51, 0
4, 92167, Note_on_c, 9, 59, 55
4, 92167, Note_on_c, 9, 51, 41
4, 92168, Note_on_c, 9, 53, 44
4, 92203, Note_on_c, 9, 53, 0
4, 92208, Note_on_c, 9, 59, 0
4, 92222, Note_on_c, 9, 51, 0
4, 92295, Note_on_c, 9, 44, 34
4, 92334, Note_on_c, 9, 44, 0
4, 92348, Note_on_c, 9, 59, 35
4, 92362, Note_on_c, 9, 59, 0
4, 92363, Note_on_c, 9, 38, 21
4, 92382, Note_on_c, 9, 38, 0
4, 92400, Note_on_c, 9, 59, 43
4, 92416, Note_on_c, 9, 38, 31
4, 92431, Note_on_c, 9, 59, 0
4, 92475, Note_on_c, 9, 59, 48
4, 92484, Note_on_c, 9, 38, 0
4, 92505, Note_on_c, 9, 59, 0
4, 92525, Note_on_c, 9, 44, 33
4, 92571, Note_on_c, 9, 44, 0
4, 92589, Note_on_c, 9, 38, 31
4, 92615, Note_on_c, 9, 38, 0
4, 92644, Note_on_c, 9, 38, 28
4, 92648, Note_on_c, 9, 59, 58
4, 92679, Note_on_c, 9, 59, 0
4, 92692, Note_on_c, 9, 38, 0
4, 92764, Note_on_c, 9, 44, 32
4, 92807, Note_on_c, 9, 44, 0
4, 92827, Note_on_c, 9, 38, 31
4, 92855, Note_on_c, 9, 38, 0
4, 92883, Note_on_c, 9, 38, 33
4, 92883, Note_on_c, 9, 59, 48
4, 92901, Note_on_c, 9, 59, 0
4, 92920, Note_on_c, 9, 38, 0
4, 92966, Note_on_c, 9, 59, 59
4, 92987, Note_on_c, 9, 59, 0
4, 93003, Note_on_c, 9, 44, 21
4, 93017, Note_on_c, 9, 44, 0
4, 93022, Note_on_c, 9, 46, 24
4, 93034, Note_on_c, 9, 46, 0
4, 93130, Note_on_c, 9, 59, 64
4, 93155, Note_on_c, 9, 59, 0
4, 93244, Note_on_c, 9, 44, 25
4, 93276, Note_on_c, 9, 44, 0
4, 93441, Note_on_c, 9, 59, 38
4, 93443, Note_on_c, 9, 38, 27
4, 93455, Note_on_c, 9, 38, 0
4, 93456, Note_on_c, 9, 59, 0
4, 93494, Note_on_c, 9, 38, 27
4, 93498, Note_on_c, 9, 59, 35
4, 93510, Note_on_c, 9, 59, 0
4, 93511, Note_on_c, 9, 38, 0
4, 93564, Note_on_c, 9, 59, 55
4, 93565, Note_on_c, 9, 38, 55
4, 93565, Note_on_c, 9, 51, 34
4, 93567, Note_on_c, 9, 53, 36
4, 93607, Note_on_c, 9, 53, 0
4, 93607, Note_on_c, 9, 59, 0
4, 93624, Note_on_c, 9, 51, 0
4, 93642, Note_on_c, 9, 38, 0
4, 93727, Note_on_c, 9, 44, 32
4, 93743, Note_on_c, 9, 51, 37
4, 93744, Note_on_c, 9, 59, 56
4, 93746, Note_on_c, 9, 53, 40
4, 93770, Note_on_c, 9, 44, 0
4, 93795, Note_on_c, 9, 59, 0
4, 93805, Note_on_c, 9, 38, 31
4, 93809, Note_on_c, 9, 53, 0
4, 93820, Note_on_c, 9, 51, 0
4, 93827, Note_on_c, 9, 38, 0
4, 93925, Note_on_c, 9, 38, 37
4, 93948, Note_on_c, 9, 38, 0
4, 93950, Note_on_c, 9, 44, 25
4, 93996, Note_on_c, 9, 44, 0
4, 94044, Note_on_c, 9, 38, 29
4, 94062, Note_on_c, 9, 38, 0
4, 94093, Note_on_c, 9, 38, 29
4, 94124, Note_on_c, 9, 38, 0
4, 94203, Note_on_c, 9, 44, 22
4, 94254, Note_on_c, 9, 44, 0
4, 94288, Note_on_c, 9, 59, 40
4, 94295, Note_on_c, 9, 51, 26
4, 94302, Note_on_c, 9, 59, 0
4, 94317, Note_on_c, 9, 51, 0
4, 94327, Note_on_c, 9, 44, 25
4, 94379, Note_on_c, 9, 51, 36
4, 94381, Note_on_c, 9, 59, 46
4, 94394, Note_on_c, 9, 59, 0
4, 94395, Note_on_c, 9, 44, 0
4, 94410, Note_on_c, 9, 51, 0
4, 94449, Note_on_c, 9, 38, 27
4, 94469, Note_on_c, 9, 51, 40
4, 94473, Note_on_c, 9, 59, 45
4, 94486, Note_on_c, 9, 59, 0
4, 94494, Note_on_c, 9, 51, 0
4, 94505, Note_on_c, 9, 38, 0
4, 94531, Note_on_c, 9, 38, 43
4, 94548, Note_on_c, 9, 51, 42
4, 94551, Note_on_c, 9, 59, 49
4, 94570, Note_on_c, 9, 59, 0
4, 94572, Note_on_c, 9, 38, 0
4, 94575, Note_on_c, 9, 44, 26
4, 94579, Note_on_c, 9, 51, 0
4, 94614, Note_on_c, 9, 44, 0
4, 94685, Note_on_c, 9, 59, 44
4, 94692, Note_on_c, 9, 44, 28
4, 94701, Note_on_c, 9, 59, 0
4, 94751, Note_on_c, 9, 44, 0
4, 94759, Note_on_c, 9, 59, 53
4, 94785, Note_on_c, 9, 59, 0
4, 94875, Note_on_c, 9, 38, 40
4, 94900, Note_on_c, 9, 38, 0
4, 94931, Note_on_c, 9, 38, 25
4, 94934, Note_on_c, 9, 44, 28
4, 94971, Note_on_c, 9, 38, 0
4, 94976, Note_on_c, 9, 44, 0
4, 94997, Note_on_c, 9, 59, 50
4, 94999, Note_on_c, 9, 51, 36
4, 95006, Note_on_c, 9, 38, 48
4, 95022, Note_on_c, 9, 59, 0
4, 95030, Note_on_c, 9, 51, 0
4, 95048, Note_on_c, 9, 38, 0
4, 95053, Note_on_c, 9, 44, 28
4, 95068, Note_on_c, 9, 59, 50
4, 95068, Note_on_c, 9, 51, 51
4, 95095, Note_on_c, 9, 59, 0
4, 95098, Note_on_c, 9, 44, 0
4, 95111, Note_on_c, 9, 51, 0
4, 95142, Note_on_c, 9, 51, 38
4, 95144, Note_on_c, 9, 59, 48
4, 95168, Note_on_c, 9, 59, 0
4, 95175, Note_on_c, 9, 51, 0
4, 95231, Note_on_c, 9, 59, 47
4, 95231, Note_on_c, 9, 51, 42
4, 95243, Note_on_c, 9, 38, 23
4, 95259, Note_on_c, 9, 59, 0
4, 95264, Note_on_c, 9, 38, 0
4, 95267, Note_on_c, 9, 51, 0
4, 95290, Note_on_c, 9, 44, 30
4, 95318, Note_on_c, 9, 44, 0
4, 95406, Note_on_c, 9, 44, 30
4, 95452, Note_on_c, 9, 44, 0
4, 95464, Note_on_c, 9, 59, 46
4, 95466, Note_on_c, 9, 51, 33
4, 95472, Note_on_c, 9, 53, 34
4, 95480, Note_on_c, 9, 38, 26
4, 95486, Note_on_c, 9, 53, 0
4, 95489, Note_on_c, 9, 59, 0
4, 95502, Note_on_c, 9, 51, 0
4, 95505, Note_on_c, 9, 38, 0
4, 95528, Note_on_c, 9, 59, 47
4, 95530, Note_on_c, 9, 51, 32
4, 95537, Note_on_c, 9, 53, 39
4, 95562, Note_on_c, 9, 59, 0
4, 95572, Note_on_c, 9, 53, 0
4, 95582, Note_on_c, 9, 51, 0
4, 95649, Note_on_c, 9, 44, 31
4, 95680, Note_on_c, 9, 44, 0
4, 95719, Note_on_c, 9, 38, 40
4, 95724, Note_on_c, 9, 59, 48
4, 95724, Note_on_c, 9, 51, 42
4, 95728, Note_on_c, 9, 53, 36
4, 95743, Note_on_c, 9, 38, 0
4, 95744, Note_on_c, 9, 59, 0
4, 95745, Note_on_c, 9, 53, 0
4, 95766, Note_on_c, 9, 44, 31
4, 95771, Note_on_c, 9, 51, 0
4, 95776, Note_on_c, 9, 38, 23
4, 95777, Note_on_c, 9, 59, 42
4, 95796, Note_on_c, 9, 44, 0
4, 95803, Note_on_c, 9, 38, 0
4, 95811, Note_on_c, 9, 59, 0
4, 95892, Note_on_c, 9, 38, 25
4, 95909, Note_on_c, 9, 38, 0
4, 95966, Note_on_c, 9, 51, 38
4, 95967, Note_on_c, 9, 53, 43
4, 95978, Note_on_c, 9, 53, 0
4, 95990, Note_on_c, 9, 51, 0
4, 96010, Note_on_c, 9, 57, 53
4, 96010, Note_on_c, 9, 59, 50
4, 96011, Note_on_c, 9, 38, 43
4, 96014, Note_on_c, 9, 46, 25
4, 96041, Note_on_c, 9, 46, 0
4, 96060, Note_on_c, 9, 59, 0
4, 96126, Note_on_c, 9, 59, 52
4, 96182, Note_on_c, 9, 59, 0
4, 96257, Note_on_c, 9, 59, 60
4, 96310, Note_on_c, 9, 57, 0
4, 96327, Note_on_c, 9, 38, 0
4, 96341, Note_on_c, 9, 59, 0
4, 96363, Note_on_c, 9, 46, 32
4, 96395, Note_on_c, 9, 46, 0
4, 96448, Note_on_c, 9, 59, 43
4, 96466, Note_on_c, 9, 59, 0
4, 96494, Note_on_c, 9, 59, 52
4, 96559, Note_on_c, 9, 59, 0
4, 96689, Note_on_c, 9, 59, 46
4, 96704, Note_on_c, 9, 59, 0
4, 96732, Note_on_c, 9, 59, 53
4, 96793, Note_on_c, 9, 59, 0
4, 96845, Note_on_c, 9, 38, 29
4, 96851, Note_on_c, 9, 44, 31
4, 96871, Note_on_c, 9, 38, 0
4, 96893, Note_on_c, 9, 44, 0
4, 96929, Note_on_c, 9, 59, 40
4, 96943, Note_on_c, 9, 59, 0
4, 96968, Note_on_c, 9, 38, 38
4, 96972, Note_on_c, 9, 59, 53
4, 97019, Note_on_c, 9, 59, 0
4, 97020, Note_on_c, 9, 38, 0
4, 97095, Note_on_c, 9, 59, 59
4, 97099, Note_on_c, 9, 44, 25
4, 97123, Note_on_c, 9, 44, 0
4, 97142, Note_on_c, 9, 59, 0
4, 97216, Note_on_c, 9, 59, 50
4, 97268, Note_on_c, 9, 59, 0
4, 97294, Note_on_c, 9, 53, 53
4, 97319, Note_on_c, 9, 53, 0
4, 97331, Note_on_c, 9, 44, 22
4, 97342, Note_on_c, 9, 59, 42
4, 97365, Note_on_c, 9, 44, 0
4, 97390, Note_on_c, 9, 59, 0
4, 97409, Note_on_c, 9, 38, 29
4, 97417, Note_on_c, 9, 59, 46
4, 97429, Note_on_c, 9, 38, 0
4, 97454, Note_on_c, 9, 38, 25
4, 97465, Note_on_c, 9, 59, 0
4, 97497, Note_on_c, 9, 38, 0
4, 97523, Note_on_c, 9, 44, 35
4, 97551, Note_on_c, 9, 44, 0
4, 97575, Note_on_c, 9, 44, 38
4, 97612, Note_on_c, 9, 44, 0
4, 97635, Note_on_c, 9, 38, 36
4, 97641, Note_on_c, 9, 53, 43
4, 97658, Note_on_c, 9, 38, 0
4, 97668, Note_on_c, 9, 53, 0
4, 97684, Note_on_c, 9, 38, 26
4, 97689, Note_on_c, 9, 59, 46
4, 97728, Note_on_c, 9, 38, 0
4, 97757, Note_on_c, 9, 59, 0
4, 97767, Note_on_c, 9, 53, 52
4, 97798, Note_on_c, 9, 53, 0
4, 97801, Note_on_c, 9, 44, 36
4, 97813, Note_on_c, 9, 59, 46
4, 97838, Note_on_c, 9, 44, 0
4, 97867, Note_on_c, 9, 38, 24
4, 97871, Note_on_c, 9, 59, 0
4, 97880, Note_on_c, 9, 38, 0
4, 97884, Note_on_c, 9, 53, 54
4, 97905, Note_on_c, 9, 38, 32
4, 97908, Note_on_c, 9, 53, 0
4, 97929, Note_on_c, 9, 59, 48
4, 97955, Note_on_c, 9, 38, 0
4, 97994, Note_on_c, 9, 59, 0
4, 97994, Note_on_c, 9, 44, 28
4, 98023, Note_on_c, 9, 44, 0
4, 98048, Note_on_c, 9, 44, 29
4, 98054, Note_on_c, 9, 59, 44
4, 98080, Note_on_c, 9, 44, 0
4, 98096, Note_on_c, 9, 59, 0
4, 98122, Note_on_c, 9, 38, 25
4, 98138, Note_on_c, 9, 38, 0
4, 98161, Note_on_c, 9, 44, 25
4, 98165, Note_on_c, 9, 59, 55
4, 98168, Note_on_c, 9, 38, 27
4, 98188, Note_on_c, 9, 44, 0
4, 98203, Note_on_c, 9, 59, 0
4, 98210, Note_on_c, 9, 38, 0
4, 98233, Note_on_c, 9, 44, 40
4, 98263, Note_on_c, 9, 44, 0
4, 98349, Note_on_c, 9, 38, 29
4, 98358, Note_on_c, 9, 59, 37
4, 98359, Note_on_c, 9, 44, 26
4, 98367, Note_on_c, 9, 38, 0
4, 98380, Note_on_c, 9, 59, 0
4, 98385, Note_on_c, 9, 44, 0
4, 98396, Note_on_c, 9, 38, 27
4, 98404, Note_on_c, 9, 59, 53
4, 98414, Note_on_c, 9, 44, 26
4, 98430, Note_on_c, 9, 38, 0
4, 98440, Note_on_c, 9, 59, 0
4, 98454, Note_on_c, 9, 44, 0
4, 98474, Note_on_c, 9, 38, 29
4, 98495, Note_on_c, 9, 38, 0
4, 98594, Note_on_c, 9, 59, 43
4, 98599, Note_on_c, 9, 44, 21
4, 98613, Note_on_c, 9, 59, 0
4, 98627, Note_on_c, 9, 44, 0
4, 98650, Note_on_c, 9, 38, 34
4, 98652, Note_on_c, 9, 59, 51
4, 98677, Note_on_c, 9, 38, 0
4, 98696, Note_on_c, 9, 59, 0
4, 98713, Note_on_c, 9, 44, 29
4, 98739, Note_on_c, 9, 44, 0
4, 98767, Note_on_c, 9, 44, 31
4, 98815, Note_on_c, 9, 44, 0
4, 98841, Note_on_c, 9, 59, 39
4, 98860, Note_on_c, 9, 59, 0
4, 98889, Note_on_c, 9, 59, 49
4, 98936, Note_on_c, 9, 59, 0
4, 98999, Note_on_c, 9, 53, 46
4, 99063, Note_on_c, 9, 53, 0
4, 99073, Note_on_c, 9, 38, 32
4, 99087, Note_on_c, 9, 44, 21
4, 99090, Note_on_c, 9, 38, 0
4, 99103, Note_on_c, 9, 44, 0
4, 99130, Note_on_c, 9, 38, 23
4, 99138, Note_on_c, 9, 44, 26
4, 99175, Note_on_c, 9, 38, 0
4, 99183, Note_on_c, 9, 44, 0
4, 99205, Note_on_c, 9, 36, 31
4, 99210, Note_on_c, 9, 44, 31
4, 99234, Note_on_c, 9, 44, 0
4, 99241, Note_on_c, 9, 36, 0
4, 99258, Note_on_c, 9, 59, 48
4, 99269, Note_on_c, 9, 59, 0
4, 99444, Note_on_c, 9, 44, 14
4, 99455, Note_on_c, 9, 44, 0
4, 99484, Note_on_c, 9, 59, 50
4, 99488, Note_on_c, 9, 44, 23
4, 99489, Note_on_c, 9, 53, 44
4, 99501, Note_on_c, 9, 38, 27
4, 99528, Note_on_c, 9, 38, 0
4, 99528, Note_on_c, 9, 44, 0
4, 99539, Note_on_c, 9, 59, 0
4, 99554, Note_on_c, 9, 53, 0
4, 99559, Note_on_c, 9, 44, 26
4, 99564, Note_on_c, 9, 38, 36
4, 99596, Note_on_c, 9, 38, 0
4, 99596, Note_on_c, 9, 44, 0
4, 99680, Note_on_c, 9, 44, 35
4, 99684, Note_on_c, 9, 36, 38
4, 99702, Note_on_c, 9, 36, 0
4, 99719, Note_on_c, 9, 44, 0
4, 99729, Note_on_c, 9, 59, 47
4, 99733, Note_on_c, 9, 53, 38
4, 99762, Note_on_c, 9, 59, 0
4, 99770, Note_on_c, 9, 53, 0
4, 99789, Note_on_c, 9, 44, 29
4, 99796, Note_on_c, 9, 38, 38
4, 99820, Note_on_c, 9, 44, 0
4, 99823, Note_on_c, 9, 38, 0
4, 99845, Note_on_c, 9, 38, 39
4, 99883, Note_on_c, 9, 38, 0
4, 99913, Note_on_c, 9, 59, 34
4, 99928, Note_on_c, 9, 36, 28
4, 99929, Note_on_c, 9, 59, 0
4, 99957, Note_on_c, 9, 36, 0
4, 99961, Note_on_c, 9, 59, 38
4, 99967, Note_on_c, 9, 44, 23
4, 100002, Note_on_c, 9, 44, 0
4, 100006, Note_on_c, 9, 59, 0
4, 100083, Note_on_c, 9, 59, 59
4, 100088, Note_on_c, 9, 36, 31
4, 100091, Note_on_c, 9, 44, 19
4, 100127, Note_on_c, 9, 36, 0
4, 100136, Note_on_c, 9, 59, 0
4, 100137, Note_on_c, 9, 44, 0
4, 100204, Note_on_c, 9, 59, 56
4, 100263, Note_on_c, 9, 59, 0
4, 100454, Note_on_c, 9, 44, 24
4, 100492, Note_on_c, 9, 44, 0
4, 100519, Note_on_c, 9, 59, 44
4, 100524, Note_on_c, 9, 38, 26
4, 100540, Note_on_c, 9, 38, 0
4, 100545, Note_on_c, 9, 59, 0
4, 100572, Note_on_c, 9, 59, 44
4, 100597, Note_on_c, 9, 38, 33
4, 100629, Note_on_c, 9, 38, 0
4, 100632, Note_on_c, 9, 59, 0
4, 100651, Note_on_c, 9, 44, 28
4, 100667, Note_on_c, 9, 44, 0
4, 100690, Note_on_c, 9, 38, 34
4, 100699, Note_on_c, 9, 44, 25
4, 100718, Note_on_c, 9, 44, 0
4, 100732, Note_on_c, 9, 38, 0
4, 100751, Note_on_c, 9, 59, 37
4, 100764, Note_on_c, 9, 59, 0
4, 100773, Note_on_c, 9, 36, 25
4, 100776, Note_on_c, 9, 44, 26
4, 100792, Note_on_c, 9, 36, 0
4, 100804, Note_on_c, 9, 59, 37
4, 100814, Note_on_c, 9, 44, 0
4, 100820, Note_on_c, 9, 59, 0
4, 100835, Note_on_c, 9, 36, 24
4, 100880, Note_on_c, 9, 53, 48
4, 100882, Note_on_c, 9, 36, 0
4, 100907, Note_on_c, 9, 44, 24
4, 100926, Note_on_c, 9, 53, 0
4, 100938, Note_on_c, 9, 44, 0
4, 101024, Note_on_c, 9, 44, 34
4, 101056, Note_on_c, 9, 44, 0
4, 101061, Note_on_c, 9, 53, 48
4, 101092, Note_on_c, 9, 44, 17
4, 101109, Note_on_c, 9, 53, 0
4, 101131, Note_on_c, 9, 44, 0
4, 101176, Note_on_c, 9, 59, 26
4, 101195, Note_on_c, 9, 59, 0
4, 101248, Note_on_c, 9, 59, 48
4, 101282, Note_on_c, 9, 59, 0
4, 101358, Note_on_c, 9, 53, 44
4, 101389, Note_on_c, 9, 53, 0
4, 101394, Note_on_c, 9, 44, 28
4, 101426, Note_on_c, 9, 44, 0
4, 101473, Note_on_c, 9, 38, 25
4, 101505, Note_on_c, 9, 38, 0
4, 101711, Note_on_c, 9, 51, 46
4, 101732, Note_on_c, 9, 36, 26
4, 101740, Note_on_c, 9, 51, 0
4, 101749, Note_on_c, 9, 36, 0
4, 101765, Note_on_c, 9, 51, 28
4, 101812, Note_on_c, 9, 51, 0
4, 101841, Note_on_c, 9, 38, 27
4, 101864, Note_on_c, 9, 38, 0
4, 101880, Note_on_c, 9, 44, 25
4, 101922, Note_on_c, 9, 44, 0
4, 101955, Note_on_c, 9, 51, 25
4, 101968, Note_on_c, 9, 51, 0
4, 102006, Note_on_c, 9, 38, 31
4, 102006, Note_on_c, 9, 51, 34
4, 102008, Note_on_c, 9, 59, 40
4, 102048, Note_on_c, 9, 59, 0
4, 102053, Note_on_c, 9, 51, 0
4, 102076, Note_on_c, 9, 38, 0
4, 102120, Note_on_c, 9, 44, 28
4, 102126, Note_on_c, 9, 51, 38
4, 102128, Note_on_c, 9, 36, 16
4, 102128, Note_on_c, 9, 59, 44
4, 102144, Note_on_c, 9, 36, 0
4, 102166, Note_on_c, 9, 44, 0
4, 102172, Note_on_c, 9, 59, 0
4, 102188, Note_on_c, 9, 51, 0
4, 102206, Note_on_c, 9, 36, 23
4, 102226, Note_on_c, 9, 36, 0
4, 102251, Note_on_c, 9, 51, 40
4, 102254, Note_on_c, 9, 59, 46
4, 102298, Note_on_c, 9, 59, 0
4, 102306, Note_on_c, 9, 51, 0
4, 102369, Note_on_c, 9, 51, 38
4, 102369, Note_on_c, 9, 59, 44
4, 102417, Note_on_c, 9, 59, 0
4, 102431, Note_on_c, 9, 51, 0
4, 102565, Note_on_c, 9, 38, 36
4, 102584, Note_on_c, 9, 38, 0
4, 102599, Note_on_c, 9, 44, 34
4, 102617, Note_on_c, 9, 38, 23
4, 102634, Note_on_c, 9, 44, 0
4, 102650, Note_on_c, 9, 38, 0
4, 102660, Note_on_c, 9, 59, 36
4, 102675, Note_on_c, 9, 59, 0
4, 102681, Note_on_c, 9, 38, 34
4, 102716, Note_on_c, 9, 38, 0
4, 102721, Note_on_c, 9, 51, 40
4, 102721, Note_on_c, 9, 59, 49
4, 102730, Note_on_c, 9, 44, 22
4, 102757, Note_on_c, 9, 44, 0
4, 102778, Note_on_c, 9, 59, 0
4, 102800, Note_on_c, 9, 51, 0
4, 102808, Note_on_c, 9, 36, 21
4, 102826, Note_on_c, 9, 36, 0
4, 102843, Note_on_c, 9, 44, 40
4, 102855, Note_on_c, 9, 59, 34
4, 102879, Note_on_c, 9, 44, 0
4, 102883, Note_on_c, 9, 59, 0
4, 102920, Note_on_c, 9, 59, 55
4, 102921, Note_on_c, 9, 51, 41
4, 102971, Note_on_c, 9, 59, 0
4, 102982, Note_on_c, 9, 51, 0
4, 103037, Note_on_c, 9, 59, 38
4, 103064, Note_on_c, 9, 59, 0
4, 103103, Note_on_c, 9, 59, 54
4, 103103, Note_on_c, 9, 51, 48
4, 103166, Note_on_c, 9, 59, 0
4, 103191, Note_on_c, 9, 51, 0
4, 103333, Note_on_c, 9, 44, 50
4, 103367, Note_on_c, 9, 44, 0
4, 103397, Note_on_c, 9, 59, 42
4, 103419, Note_on_c, 9, 59, 0
4, 103453, Note_on_c, 9, 44, 14
4, 103459, Note_on_c, 9, 59, 52
4, 103461, Note_on_c, 9, 51, 39
4, 103487, Note_on_c, 9, 44, 0
4, 103501, Note_on_c, 9, 59, 0
4, 103511, Note_on_c, 9, 51, 0
4, 103571, Note_on_c, 9, 44, 31
4, 103571, Note_on_c, 9, 51, 50
4, 103571, Note_on_c, 9, 59, 57
4, 103614, Note_on_c, 9, 44, 0
4, 103624, Note_on_c, 9, 59, 0
4, 103630, Note_on_c, 9, 51, 0
4, 103690, Note_on_c, 9, 59, 59
4, 103691, Note_on_c, 9, 51, 52
4, 103749, Note_on_c, 9, 59, 0
4, 103753, Note_on_c, 9, 51, 0
4, 103771, Note_on_c, 9, 38, 21
4, 103793, Note_on_c, 9, 38, 0
4, 103812, Note_on_c, 9, 44, 31
4, 103831, Note_on_c, 9, 44, 0
4, 103841, Note_on_c, 9, 59, 40
4, 103866, Note_on_c, 9, 59, 0
4, 103925, Note_on_c, 9, 44, 19
4, 103936, Note_on_c, 9, 38, 25
4, 103961, Note_on_c, 9, 44, 0
4, 103968, Note_on_c, 9, 38, 0
4, 104043, Note_on_c, 9, 44, 29
4, 104092, Note_on_c, 9, 44, 0
4, 104122, Note_on_c, 9, 51, 40
4, 104123, Note_on_c, 9, 59, 37
4, 104140, Note_on_c, 9, 59, 0
4, 104156, Note_on_c, 9, 51, 0
4, 104178, Note_on_c, 9, 44, 29
4, 104181, Note_on_c, 9, 51, 38
4, 104182, Note_on_c, 9, 59, 51
4, 104195, Note_on_c, 9, 44, 0
4, 104242, Note_on_c, 9, 59, 0
4, 104261, Note_on_c, 9, 51, 0
4, 104295, Note_on_c, 9, 44, 23
4, 104330, Note_on_c, 9, 44, 0
4, 104354, Note_on_c, 9, 59, 37
4, 104361, Note_on_c, 9, 51, 27
4, 104372, Note_on_c, 9, 51, 0
4, 104375, Note_on_c, 9, 59, 0
4, 104406, Note_on_c, 9, 44, 27
4, 104416, Note_on_c, 9, 51, 47
4, 104421, Note_on_c, 9, 59, 49
4, 104443, Note_on_c, 9, 44, 0
4, 104490, Note_on_c, 9, 59, 0
4, 104502, Note_on_c, 9, 51, 0
4, 104517, Note_on_c, 9, 38, 4
4, 104535, Note_on_c, 9, 38, 0
4, 104548, Note_on_c, 9, 38, 16
4, 104631, Note_on_c, 9, 38, 0
4, 104776, Note_on_c, 9, 59, 24
4, 104789, Note_on_c, 9, 59, 0
4, 104808, Note_on_c, 9, 38, 26
4, 104821, Note_on_c, 9, 38, 0
4, 104844, Note_on_c, 9, 59, 44
4, 104845, Note_on_c, 9, 38, 22
4, 104846, Note_on_c, 9, 51, 25
4, 104858, Note_on_c, 9, 59, 0
4, 104861, Note_on_c, 9, 38, 0
4, 104862, Note_on_c, 9, 51, 0
4, 104880, Note_on_c, 9, 38, 17
4, 104892, Note_on_c, 9, 44, 40
4, 104894, Note_on_c, 9, 38, 0
4, 104905, Note_on_c, 9, 44, 0
4, 104909, Note_on_c, 9, 51, 46
4, 104912, Note_on_c, 9, 59, 56
4, 104970, Note_on_c, 9, 59, 0
4, 104983, Note_on_c, 9, 51, 0
4, 105007, Note_on_c, 9, 44, 31
4, 105014, Note_on_c, 9, 59, 34
4, 105031, Note_on_c, 9, 59, 0
4, 105043, Note_on_c, 9, 44, 0
4, 105079, Note_on_c, 9, 59, 51
4, 105080, Note_on_c, 9, 51, 45
4, 105123, Note_on_c, 9, 59, 0
4, 105135, Note_on_c, 9, 51, 0
4, 105198, Note_on_c, 9, 59, 33
4, 105200, Note_on_c, 9, 38, 28
4, 105216, Note_on_c, 9, 38, 0
4, 105216, Note_on_c, 9, 59, 0
4, 105260, Note_on_c, 9, 38, 12
4, 105263, Note_on_c, 9, 59, 52
4, 105263, Note_on_c, 9, 51, 46
4, 105278, Note_on_c, 9, 38, 0
4, 105314, Note_on_c, 9, 44, 40
4, 105317, Note_on_c, 9, 59, 0
4, 105323, Note_on_c, 9, 51, 0
4, 105326, Note_on_c, 9, 38, 27
4, 105327, Note_on_c, 9, 44, 0
4, 105337, Note_on_c, 9, 38, 0
4, 105367, Note_on_c, 9, 44, 36
4, 105381, Note_on_c, 9, 44, 0
4, 105389, Note_on_c, 9, 59, 29
4, 105405, Note_on_c, 9, 59, 0
4, 105441, Note_on_c, 9, 38, 29
4, 105452, Note_on_c, 9, 59, 47
4, 105453, Note_on_c, 9, 51, 45
4, 105456, Note_on_c, 9, 38, 0
4, 105462, Note_on_c, 9, 44, 30
4, 105473, Note_on_c, 9, 59, 0
4, 105485, Note_on_c, 9, 51, 0
4, 105492, Note_on_c, 9, 44, 0
4, 105497, Note_on_c, 9, 38, 12
4, 105515, Note_on_c, 9, 38, 0
4, 105559, Note_on_c, 9, 59, 34
4, 105576, Note_on_c, 9, 59, 0
4, 105620, Note_on_c, 9, 51, 42
4, 105621, Note_on_c, 9, 59, 51
4, 105662, Note_on_c, 9, 59, 0
4, 105669, Note_on_c, 9, 51, 0
4, 105685, Note_on_c, 9, 38, 23
4, 105707, Note_on_c, 9, 38, 0
4, 105728, Note_on_c, 9, 44, 43
4, 105732, Note_on_c, 9, 38, 16
4, 105753, Note_on_c, 9, 44, 0
4, 105785, Note_on_c, 9, 38, 0
4, 105806, Note_on_c, 9, 51, 35
4, 105809, Note_on_c, 9, 59, 26
4, 105813, Note_on_c, 9, 38, 30
4, 105825, Note_on_c, 9, 59, 0
4, 105826, Note_on_c, 9, 38, 0
4, 105833, Note_on_c, 9, 51, 0
4, 105864, Note_on_c, 9, 51, 31
4, 105865, Note_on_c, 9, 59, 38
4, 105906, Note_on_c, 9, 59, 0
4, 105915, Note_on_c, 9, 51, 0
4, 105925, Note_on_c, 9, 36, 29
4, 105938, Note_on_c, 9, 36, 0
4, 105960, Note_on_c, 9, 44, 34
4, 105973, Note_on_c, 9, 51, 40
4, 105974, Note_on_c, 9, 59, 42
4, 105990, Note_on_c, 9, 44, 0
4, 106025, Note_on_c, 9, 59, 0
4, 106035, Note_on_c, 9, 51, 0
4, 106190, Note_on_c, 9, 59, 53
4, 106207, Note_on_c, 9, 59, 0
4, 106280, Note_on_c, 9, 36, 26
4, 106294, Note_on_c, 9, 36, 0
4, 106320, Note_on_c, 9, 38, 25
4, 106326, Note_on_c, 9, 59, 47
4, 106338, Note_on_c, 9, 59, 0
4, 106360, Note_on_c, 9, 38, 0
4, 106393, Note_on_c, 9, 38, 27
4, 106418, Note_on_c, 9, 38, 0
4, 106445, Note_on_c, 9, 59, 30
4, 106452, Note_on_c, 9, 53, 23
4, 106468, Note_on_c, 9, 53, 0
4, 106474, Note_on_c, 9, 59, 0
4, 106515, Note_on_c, 9, 59, 44
4, 106517, Note_on_c, 9, 59, 41
4, 106517, Note_on_c, 9, 53, 42
4, 106531, Note_on_c, 9, 59, 0
4, 106557, Note_on_c, 9, 59, 0
4, 106572, Note_on_c, 9, 53, 0
4, 106641, Note_on_c, 9, 59, 49
4, 106652, Note_on_c, 9, 59, 0
4, 106708, Note_on_c, 9, 59, 48
4, 106710, Note_on_c, 9, 53, 43
4, 106758, Note_on_c, 9, 59, 41
4, 106758, Note_on_c, 9, 36, 34
4, 106762, Note_on_c, 9, 59, 0
4, 106767, Note_on_c, 9, 53, 0
4, 106770, Note_on_c, 9, 59, 0
4, 106771, Note_on_c, 9, 36, 0
4, 106799, Note_on_c, 9, 59, 47
4, 106802, Note_on_c, 9, 38, 29
4, 106832, Note_on_c, 9, 38, 0
4, 106849, Note_on_c, 9, 59, 0
4, 106879, Note_on_c, 9, 38, 29
4, 106896, Note_on_c, 9, 38, 0
4, 106986, Note_on_c, 9, 59, 51
4, 106998, Note_on_c, 9, 59, 0
4, 107050, Note_on_c, 9, 38, 35
4, 107095, Note_on_c, 9, 38, 0
4, 107121, Note_on_c, 9, 38, 34
4, 107122, Note_on_c, 9, 59, 29
4, 107133, Note_on_c, 9, 59, 0
4, 107137, Note_on_c, 9, 38, 0
4, 107165, Note_on_c, 9, 59, 48
4, 107203, Note_on_c, 9, 59, 0
4, 107479, Note_on_c, 9, 59, 33
4, 107479, Note_on_c, 9, 36, 22
4, 107496, Note_on_c, 9, 36, 0
4, 107496, Note_on_c, 9, 59, 0
4, 107519, Note_on_c, 9, 59, 64
4, 107581, Note_on_c, 9, 59, 0
4, 107605, Note_on_c, 9, 36, 29
4, 107621, Note_on_c, 9, 36, 0
4, 107735, Note_on_c, 9, 36, 34
4, 107747, Note_on_c, 9, 36, 0
4, 107782, Note_on_c, 9, 59, 67
4, 107785, Note_on_c, 9, 38, 32
4, 107831, Note_on_c, 9, 38, 0
4, 107845, Note_on_c, 9, 59, 0
4, 107857, Note_on_c, 9, 38, 33
4, 107872, Note_on_c, 9, 38, 0
4, 107881, Note_on_c, 9, 44, 40
4, 107918, Note_on_c, 9, 44, 0
4, 107973, Note_on_c, 9, 36, 23
4, 107987, Note_on_c, 9, 36, 0
4, 107987, Note_on_c, 9, 59, 66
4, 108003, Note_on_c, 9, 59, 0
4, 108015, Note_on_c, 9, 38, 31
4, 108034, Note_on_c, 9, 59, 73
4, 108065, Note_on_c, 9, 38, 0
4, 108091, Note_on_c, 9, 38, 40
4, 108111, Note_on_c, 9, 38, 0
4, 108119, Note_on_c, 9, 59, 0
4, 108122, Note_on_c, 9, 44, 42
4, 108159, Note_on_c, 9, 44, 0
4, 108247, Note_on_c, 9, 44, 51
4, 108290, Note_on_c, 9, 59, 101
4, 108294, Note_on_c, 9, 44, 0
4, 108343, Note_on_c, 9, 59, 0
4, 108380, Note_on_c, 9, 59, 84
4, 108409, Note_on_c, 9, 59, 0
4, 108494, Note_on_c, 9, 59, 89
4, 108527, Note_on_c, 9, 59, 0
4, 108606, Note_on_c, 9, 59, 115
4, 108607, Note_on_c, 9, 38, 40
4, 109395, Note_on_c, 9, 38, 0
4, 109899, Note_on_c, 9, 59, 0
4, 112287, Note_on_c, 9, 38, 58
4, 112307, Note_on_c, 9, 38, 0
4, 112352, Note_on_c, 9, 38, 51
4, 112382, Note_on_c, 9, 38, 0
4, 112440, Note_on_c, 9, 36, 65
4, 112441, Note_on_c, 9, 57, 71
4, 112713, Note_on_c, 9, 57, 0
4, 112982, Note_on_c, 9, 36, 0
4, 112982, End_track
0, 0, End_of_file
