0, 0, Header, 1, 4, 960
1, 0, Start_track
1, 0, Title_t, "The Way You Look Tonight"
1, 0, Text_t, "dougmck@pipeline.com.au\012"
1, 0, Time_signature, 4, 2, 24, 8
1, 0, Key_signature, -1, "major"
1, 0, Tempo, 705882
1, 7663, Marker_t, "A1"
1, 7663, End_track
2, 0, Start_track
2, 0, Title_t, "Piano"
2, 0, Program_c, 0, 0
2, 0, Control_c, 0, 7, 94
2, 3840, Control_c, 0, 64, 127
2, 3840, Control_c, 0, 64, 0
2, 3840, Control_c, 0, 64, 127
2, 3840, Control_c, 0, 64, 0
2, 3840, Control_c, 0, 64, 127
2, 3847, Control_c, 0, 64, 0
2, 3880, Note_on_c, 0, 72, 58
2, 3886, Note_on_c, 0, 67, 60
2, 3892, Note_on_c, 0, 62, 62
2, 3902, Note_on_c, 0, 57, 52
2, 4352, Control_c, 0, 64, 127
2, 5026, Note_on_c, 0, 62, 0
2, 5148, Note_on_c, 0, 57, 0
2, 5323, Note_on_c, 0, 67, 0
2, 5349, Note_on_c, 0, 72, 0
2, 5792, Note_on_c, 0, 77, 43
2, 5802, Note_on_c, 0, 65, 36
2, 5803, Note_on_c, 0, 72, 46
2, 5813, Note_on_c, 0, 57, 34
2, 5819, Note_on_c, 0, 60, 32
2, 5823, Control_c, 0, 64, 0
2, 5849, Note_on_c, 0, 50, 34
2, 6115, Control_c, 0, 64, 127
2, 6475, Note_on_c, 0, 65, 0
2, 6754, Note_on_c, 0, 72, 0
2, 6802, Note_on_c, 0, 77, 0
2, 6820, Note_on_c, 0, 50, 0
2, 6854, Note_on_c, 0, 57, 0
2, 6898, Note_on_c, 0, 60, 0
2, 7716, Note_on_c, 0, 57, 70
2, 7719, Note_on_c, 0, 62, 75
2, 7725, Note_on_c, 0, 58, 61
2, 7729, Note_on_c, 0, 91, 79
2, 7732, Control_c, 0, 64, 0
2, 7737, Note_on_c, 0, 79, 66
2, 7739, Note_on_c, 0, 86, 68
2, 7768, Note_on_c, 0, 62, 0
2, 7775, Note_on_c, 0, 57, 0
2, 7776, Note_on_c, 0, 86, 0
2, 7782, Note_on_c, 0, 79, 0
2, 7805, Note_on_c, 0, 58, 0
2, 7815, Note_on_c, 0, 91, 0
2, 8090, Control_c, 0, 64, 127
2, 8363, Note_on_c, 0, 62, 62
2, 8365, Note_on_c, 0, 57, 52
2, 8366, Note_on_c, 0, 93, 78
2, 8375, Note_on_c, 0, 58, 51
2, 8376, Note_on_c, 0, 81, 61
2, 8382, Note_on_c, 0, 88, 60
2, 8386, Note_on_c, 0, 53, 42
2, 8553, Note_on_c, 0, 81, 0
2, 8562, Note_on_c, 0, 93, 0
2, 8620, Note_on_c, 0, 58, 0
2, 8623, Note_on_c, 0, 53, 0
2, 8625, Note_on_c, 0, 62, 0
2, 8635, Note_on_c, 0, 57, 0
2, 8641, Note_on_c, 0, 88, 0
2, 8720, Control_c, 0, 64, 0
2, 8724, Note_on_c, 0, 94, 64
2, 8726, Note_on_c, 0, 88, 46
2, 8731, Note_on_c, 0, 62, 44
2, 8733, Note_on_c, 0, 82, 51
2, 8738, Note_on_c, 0, 53, 43
2, 8739, Note_on_c, 0, 58, 49
2, 8754, Note_on_c, 0, 57, 47
2, 8896, Note_on_c, 0, 88, 0
2, 8902, Note_on_c, 0, 62, 0
2, 8931, Note_on_c, 0, 58, 0
2, 8937, Note_on_c, 0, 94, 0
2, 8938, Note_on_c, 0, 82, 0
2, 8991, Note_on_c, 0, 62, 35
2, 9011, Note_on_c, 0, 58, 27
2, 9020, Note_on_c, 0, 93, 56
2, 9028, Note_on_c, 0, 81, 36
2, 9044, Note_on_c, 0, 88, 28
2, 9102, Note_on_c, 0, 88, 0
2, 9113, Note_on_c, 0, 93, 0
2, 9124, Note_on_c, 0, 81, 0
2, 9125, Note_on_c, 0, 62, 0
2, 9159, Note_on_c, 0, 58, 0
2, 9161, Note_on_c, 0, 57, 0
2, 9176, Note_on_c, 0, 53, 0
2, 9337, Note_on_c, 0, 62, 54
2, 9343, Note_on_c, 0, 91, 61
2, 9345, Note_on_c, 0, 52, 46
2, 9348, Note_on_c, 0, 79, 45
2, 9353, Note_on_c, 0, 58, 46
2, 9364, Note_on_c, 0, 86, 44
2, 9693, Note_on_c, 0, 91, 0
2, 9707, Control_c, 0, 64, 127
2, 9734, Note_on_c, 0, 86, 0
2, 9781, Note_on_c, 0, 79, 0
2, 9840, Note_on_c, 0, 62, 0
2, 9896, Note_on_c, 0, 58, 0
2, 9919, Note_on_c, 0, 52, 0
2, 11184, Note_on_c, 0, 73, 77
2, 11190, Note_on_c, 0, 68, 81
2, 11195, Note_on_c, 0, 64, 87
2, 11199, Note_on_c, 0, 70, 72
2, 11216, Note_on_c, 0, 65, 66
2, 11253, Note_on_c, 0, 65, 0
2, 11455, Note_on_c, 0, 64, 0
2, 11468, Note_on_c, 0, 73, 0
2, 11507, Note_on_c, 0, 68, 0
2, 11509, Note_on_c, 0, 70, 0
2, 11526, Control_c, 0, 64, 0
2, 11556, Note_on_c, 0, 72, 66
2, 11559, Note_on_c, 0, 67, 70
2, 11568, Note_on_c, 0, 57, 51
2, 11574, Note_on_c, 0, 62, 59
2, 11762, Control_c, 0, 64, 127
2, 12557, Note_on_c, 0, 62, 0
2, 12599, Note_on_c, 0, 57, 0
2, 12670, Note_on_c, 0, 72, 0
2, 12721, Note_on_c, 0, 67, 0
2, 12812, Note_on_c, 0, 70, 71
2, 12906, Control_c, 0, 64, 0
2, 12946, Note_on_c, 0, 70, 0
2, 13003, Note_on_c, 0, 61, 52
2, 13006, Note_on_c, 0, 60, 53
2, 13009, Note_on_c, 0, 65, 55
2, 13023, Note_on_c, 0, 55, 50
2, 13024, Note_on_c, 0, 72, 88
2, 13054, Note_on_c, 0, 58, 33
2, 13151, Note_on_c, 0, 72, 0
2, 13193, Note_on_c, 0, 60, 0
2, 13198, Control_c, 0, 64, 127
2, 13230, Note_on_c, 0, 70, 65
2, 13257, Note_on_c, 0, 55, 0
2, 13281, Note_on_c, 0, 65, 0
2, 13304, Note_on_c, 0, 58, 0
2, 13355, Control_c, 0, 64, 0
2, 13370, Note_on_c, 0, 61, 0
2, 13388, Note_on_c, 0, 70, 0
2, 13435, Note_on_c, 0, 64, 49
2, 13443, Note_on_c, 0, 60, 33
2, 13452, Note_on_c, 0, 54, 32
2, 13454, Note_on_c, 0, 69, 57
2, 13626, Control_c, 0, 64, 127
2, 13938, Note_on_c, 0, 69, 0
2, 13991, Note_on_c, 0, 64, 0
2, 14091, Note_on_c, 0, 60, 0
2, 14369, Note_on_c, 0, 81, 55
2, 14392, Note_on_c, 0, 77, 48
2, 14400, Control_c, 0, 64, 0
2, 14405, Note_on_c, 0, 74, 50
2, 14413, Note_on_c, 0, 64, 42
2, 14417, Note_on_c, 0, 60, 34
2, 14442, Note_on_c, 0, 69, 33
2, 14581, Control_c, 0, 64, 127
2, 14733, Note_on_c, 0, 69, 0
2, 14815, Note_on_c, 0, 60, 0
2, 14826, Note_on_c, 0, 74, 0
2, 14852, Note_on_c, 0, 77, 0
2, 14863, Note_on_c, 0, 54, 0
2, 14868, Note_on_c, 0, 64, 0
2, 14873, Note_on_c, 0, 81, 0
2, 15400, Control_c, 0, 64, 0
2, 15711, Note_on_c, 0, 82, 64
2, 15722, Note_on_c, 0, 70, 64
2, 15740, Note_on_c, 0, 62, 64
2, 15741, Note_on_c, 0, 58, 56
2, 15747, Note_on_c, 0, 53, 50
2, 15752, Note_on_c, 0, 57, 55
2, 15871, Control_c, 0, 64, 127
2, 15939, Note_on_c, 0, 70, 0
2, 15948, Note_on_c, 0, 62, 0
2, 15949, Note_on_c, 0, 53, 0
2, 15957, Note_on_c, 0, 82, 0
2, 15964, Note_on_c, 0, 57, 0
2, 15972, Note_on_c, 0, 58, 0
2, 16023, Note_on_c, 0, 84, 71
2, 16027, Note_on_c, 0, 72, 68
2, 16031, Note_on_c, 0, 62, 68
2, 16033, Note_on_c, 0, 53, 61
2, 16040, Note_on_c, 0, 58, 71
2, 16042, Note_on_c, 0, 83, 54
2, 16046, Note_on_c, 0, 57, 68
2, 16092, Note_on_c, 0, 83, 0
2, 16169, Note_on_c, 0, 72, 0
2, 16186, Note_on_c, 0, 84, 0
2, 16215, Note_on_c, 0, 53, 0
2, 16231, Note_on_c, 0, 62, 0
2, 16262, Note_on_c, 0, 58, 0
2, 16273, Note_on_c, 0, 57, 0
2, 16350, Note_on_c, 0, 86, 83
2, 16354, Control_c, 0, 64, 0
2, 16355, Note_on_c, 0, 74, 90
2, 16359, Note_on_c, 0, 58, 61
2, 16360, Note_on_c, 0, 82, 65
2, 16362, Note_on_c, 0, 53, 68
2, 16363, Note_on_c, 0, 62, 73
2, 16364, Note_on_c, 0, 57, 65
2, 16366, Note_on_c, 0, 79, 65
2, 16578, Note_on_c, 0, 74, 0
2, 16579, Note_on_c, 0, 79, 0
2, 16586, Note_on_c, 0, 86, 0
2, 16592, Note_on_c, 0, 53, 0
2, 16593, Note_on_c, 0, 62, 0
2, 16597, Note_on_c, 0, 58, 0
2, 16605, Note_on_c, 0, 82, 0
2, 16647, Note_on_c, 0, 62, 37
2, 16656, Note_on_c, 0, 53, 24
2, 16671, Note_on_c, 0, 58, 56
2, 16675, Note_on_c, 0, 86, 63
2, 16680, Note_on_c, 0, 74, 50
2, 16690, Note_on_c, 0, 82, 49
2, 16694, Control_c, 0, 64, 127
2, 16712, Note_on_c, 0, 79, 45
2, 16774, Note_on_c, 0, 79, 0
2, 16818, Note_on_c, 0, 62, 0
2, 16820, Note_on_c, 0, 86, 0
2, 16840, Note_on_c, 0, 74, 0
2, 16845, Note_on_c, 0, 58, 0
2, 16845, Note_on_c, 0, 82, 0
2, 16875, Control_c, 0, 64, 0
2, 16895, Note_on_c, 0, 57, 0
2, 16896, Note_on_c, 0, 53, 0
2, 16984, Note_on_c, 0, 53, 41
2, 16992, Note_on_c, 0, 84, 66
2, 16993, Note_on_c, 0, 62, 56
2, 16998, Note_on_c, 0, 58, 60
2, 17010, Note_on_c, 0, 79, 53
2, 17012, Note_on_c, 0, 57, 46
2, 17015, Note_on_c, 0, 72, 48
2, 17065, Control_c, 0, 64, 127
2, 17066, Note_on_c, 0, 57, 0
2, 17067, Note_on_c, 0, 79, 0
2, 17106, Note_on_c, 0, 72, 0
2, 17110, Note_on_c, 0, 84, 0
2, 17125, Note_on_c, 0, 62, 0
2, 17154, Note_on_c, 0, 53, 0
2, 17179, Note_on_c, 0, 58, 0
2, 17257, Control_c, 0, 64, 0
2, 17323, Note_on_c, 0, 58, 44
2, 17332, Note_on_c, 0, 62, 51
2, 17333, Note_on_c, 0, 82, 59
2, 17337, Note_on_c, 0, 52, 48
2, 17342, Note_on_c, 0, 70, 48
2, 17370, Note_on_c, 0, 77, 34
2, 17469, Note_on_c, 0, 77, 0
2, 17479, Note_on_c, 0, 70, 0
2, 17540, Note_on_c, 0, 82, 0
2, 17548, Control_c, 0, 64, 127
2, 17553, Note_on_c, 0, 62, 0
2, 17580, Note_on_c, 0, 58, 0
2, 17584, Note_on_c, 0, 52, 0
2, 17655, Note_on_c, 0, 82, 44
2, 17664, Note_on_c, 0, 52, 24
2, 17666, Note_on_c, 0, 62, 44
2, 17667, Note_on_c, 0, 58, 27
2, 17681, Note_on_c, 0, 70, 29
2, 17748, Note_on_c, 0, 70, 0
2, 17775, Note_on_c, 0, 62, 0
2, 17800, Note_on_c, 0, 52, 0
2, 17815, Note_on_c, 0, 58, 0
2, 17822, Note_on_c, 0, 82, 0
2, 17980, Note_on_c, 0, 80, 72
2, 17985, Note_on_c, 0, 52, 77
2, 17989, Note_on_c, 0, 62, 79
2, 17990, Note_on_c, 0, 58, 76
2, 17991, Note_on_c, 0, 84, 85
2, 17995, Note_on_c, 0, 72, 78
2, 18011, Note_on_c, 0, 79, 73
2, 18019, Note_on_c, 0, 80, 0
2, 18195, Note_on_c, 0, 72, 0
2, 18201, Note_on_c, 0, 84, 0
2, 18212, Note_on_c, 0, 52, 0
2, 18231, Note_on_c, 0, 79, 0
2, 18239, Note_on_c, 0, 62, 0
2, 18254, Note_on_c, 0, 58, 0
2, 18311, Note_on_c, 0, 86, 80
2, 18315, Note_on_c, 0, 74, 74
2, 18317, Note_on_c, 0, 79, 50
2, 18318, Note_on_c, 0, 52, 60
2, 18319, Note_on_c, 0, 58, 69
2, 18320, Note_on_c, 0, 62, 77
2, 18334, Control_c, 0, 64, 0
2, 18343, Note_on_c, 0, 82, 37
2, 18392, Note_on_c, 0, 82, 0
2, 18470, Control_c, 0, 64, 127
2, 18516, Note_on_c, 0, 74, 0
2, 18521, Note_on_c, 0, 86, 0
2, 18542, Note_on_c, 0, 79, 0
2, 18622, Note_on_c, 0, 86, 60
2, 18632, Note_on_c, 0, 74, 39
2, 18645, Note_on_c, 0, 79, 34
2, 18673, Note_on_c, 0, 82, 23
2, 18704, Note_on_c, 0, 79, 0
2, 18719, Note_on_c, 0, 82, 0
2, 18728, Note_on_c, 0, 74, 0
2, 18752, Note_on_c, 0, 62, 0
2, 18774, Note_on_c, 0, 86, 0
2, 18776, Note_on_c, 0, 52, 0
2, 18804, Note_on_c, 0, 58, 0
2, 18907, Note_on_c, 0, 58, 50
2, 18936, Note_on_c, 0, 62, 35
2, 18940, Note_on_c, 0, 88, 66
2, 18942, Note_on_c, 0, 76, 59
2, 18983, Note_on_c, 0, 62, 0
2, 19033, Note_on_c, 0, 76, 0
2, 19047, Note_on_c, 0, 58, 0
2, 19071, Note_on_c, 0, 88, 0
2, 19277, Control_c, 0, 64, 0
2, 19278, Note_on_c, 0, 58, 69
2, 19279, Note_on_c, 0, 82, 72
2, 19281, Note_on_c, 0, 89, 74
2, 19283, Note_on_c, 0, 63, 69
2, 19289, Note_on_c, 0, 77, 74
2, 19291, Note_on_c, 0, 53, 57
2, 19314, Note_on_c, 0, 88, 36
2, 19316, Note_on_c, 0, 60, 29
2, 19360, Note_on_c, 0, 60, 0
2, 19361, Note_on_c, 0, 88, 0
2, 19456, Control_c, 0, 64, 127
2, 19538, Note_on_c, 0, 89, 0
2, 19582, Note_on_c, 0, 82, 0
2, 19612, Note_on_c, 0, 77, 0
2, 19810, Note_on_c, 0, 67, 47
2, 19815, Note_on_c, 0, 60, 31
2, 19916, Note_on_c, 0, 69, 45
2, 19919, Note_on_c, 0, 67, 0
2, 20024, Note_on_c, 0, 70, 49
2, 20033, Note_on_c, 0, 69, 0
2, 20062, Note_on_c, 0, 70, 0
2, 20092, Note_on_c, 0, 72, 54
2, 20210, Note_on_c, 0, 72, 0
2, 20217, Note_on_c, 0, 74, 43
2, 20232, Control_c, 0, 64, 0
2, 20275, Note_on_c, 0, 75, 65
2, 20295, Note_on_c, 0, 63, 0
2, 20316, Note_on_c, 0, 74, 0
2, 20375, Note_on_c, 0, 75, 0
2, 20384, Note_on_c, 0, 78, 34
2, 20444, Note_on_c, 0, 78, 0
2, 20491, Note_on_c, 0, 79, 34
2, 20588, Note_on_c, 0, 81, 43
2, 20592, Note_on_c, 0, 79, 0
2, 20653, Note_on_c, 0, 82, 64
2, 20694, Note_on_c, 0, 81, 0
2, 20744, Note_on_c, 0, 82, 0
2, 20839, Note_on_c, 0, 86, 51
2, 20921, Note_on_c, 0, 86, 0
2, 20939, Control_c, 0, 64, 127
2, 20951, Note_on_c, 0, 86, 24
2, 21015, Note_on_c, 0, 87, 25
2, 21049, Note_on_c, 0, 58, 0
2, 21068, Note_on_c, 0, 86, 0
2, 21086, Note_on_c, 0, 53, 0
2, 21093, Note_on_c, 0, 88, 55
2, 21105, Note_on_c, 0, 87, 0
2, 21174, Note_on_c, 0, 60, 0
2, 21182, Note_on_c, 0, 88, 0
2, 21197, Control_c, 0, 64, 0
2, 21230, Note_on_c, 0, 89, 73
2, 21253, Note_on_c, 0, 60, 20
2, 21259, Note_on_c, 0, 63, 46
2, 21268, Note_on_c, 0, 57, 58
2, 21340, Note_on_c, 0, 89, 0
2, 21491, Note_on_c, 0, 87, 62
2, 21561, Note_on_c, 0, 63, 0
2, 21585, Note_on_c, 0, 87, 0
2, 21683, Note_on_c, 0, 81, 45
2, 21741, Note_on_c, 0, 53, 19
2, 21852, Note_on_c, 0, 81, 0
2, 21874, Note_on_c, 0, 60, 0
2, 21891, Note_on_c, 0, 57, 0
2, 21911, Note_on_c, 0, 86, 71
2, 22070, Note_on_c, 0, 86, 0
2, 22130, Control_c, 0, 64, 127
2, 22136, Note_on_c, 0, 65, 73
2, 22140, Note_on_c, 0, 84, 79
2, 22145, Note_on_c, 0, 86, 51
2, 22162, Control_c, 0, 64, 0
2, 22237, Note_on_c, 0, 65, 0
2, 22287, Note_on_c, 0, 86, 0
2, 22303, Note_on_c, 0, 84, 0
2, 22364, Control_c, 0, 64, 127
2, 22386, Note_on_c, 0, 81, 65
2, 22542, Note_on_c, 0, 81, 0
2, 22611, Note_on_c, 0, 77, 34
2, 22727, Note_on_c, 0, 77, 0
2, 23039, Control_c, 0, 64, 0
2, 23059, Note_on_c, 0, 62, 56
2, 23068, Note_on_c, 0, 60, 49
2, 23069, Note_on_c, 0, 65, 42
2, 23098, Note_on_c, 0, 53, 0
2, 23125, Note_on_c, 0, 65, 0
2, 23214, Note_on_c, 0, 62, 0
2, 23241, Note_on_c, 0, 60, 0
2, 23287, Control_c, 0, 64, 127
2, 23394, Note_on_c, 0, 74, 71
2, 23399, Control_c, 0, 64, 0
2, 23400, Note_on_c, 0, 79, 68
2, 23401, Note_on_c, 0, 67, 71
2, 23410, Note_on_c, 0, 65, 63
2, 23414, Note_on_c, 0, 62, 64
2, 23424, Note_on_c, 0, 60, 50
2, 23428, Note_on_c, 0, 77, 40
2, 23477, Control_c, 0, 64, 127
2, 23565, Note_on_c, 0, 77, 0
2, 23579, Note_on_c, 0, 67, 0
2, 23588, Note_on_c, 0, 79, 0
2, 23615, Note_on_c, 0, 65, 0
2, 23622, Note_on_c, 0, 74, 0
2, 23634, Note_on_c, 0, 60, 0
2, 23635, Note_on_c, 0, 62, 0
2, 23682, Note_on_c, 0, 65, 53
2, 23691, Note_on_c, 0, 74, 74
2, 23692, Note_on_c, 0, 62, 41
2, 23702, Note_on_c, 0, 81, 79
2, 23709, Note_on_c, 0, 69, 69
2, 23713, Note_on_c, 0, 60, 36
2, 23799, Note_on_c, 0, 69, 0
2, 23821, Note_on_c, 0, 74, 0
2, 23853, Note_on_c, 0, 65, 0
2, 23864, Note_on_c, 0, 81, 0
2, 23897, Note_on_c, 0, 62, 0
2, 23900, Note_on_c, 0, 60, 0
2, 24015, Control_c, 0, 64, 0
2, 24021, Note_on_c, 0, 84, 90
2, 24025, Note_on_c, 0, 62, 74
2, 24026, Note_on_c, 0, 77, 83
2, 24029, Note_on_c, 0, 65, 71
2, 24030, Note_on_c, 0, 72, 80
2, 24036, Note_on_c, 0, 60, 62
2, 24040, Note_on_c, 0, 81, 64
2, 24248, Note_on_c, 0, 81, 0
2, 24250, Note_on_c, 0, 77, 0
2, 24258, Note_on_c, 0, 72, 0
2, 24264, Note_on_c, 0, 84, 0
2, 24278, Note_on_c, 0, 65, 0
2, 24297, Control_c, 0, 64, 127
2, 24299, Note_on_c, 0, 60, 0
2, 24315, Note_on_c, 0, 84, 32
2, 24316, Note_on_c, 0, 62, 0
2, 24354, Note_on_c, 0, 72, 52
2, 24357, Note_on_c, 0, 65, 29
2, 24362, Note_on_c, 0, 77, 37
2, 24379, Note_on_c, 0, 62, 14
2, 24437, Note_on_c, 0, 65, 0
2, 24438, Note_on_c, 0, 72, 0
2, 24439, Note_on_c, 0, 84, 0
2, 24473, Note_on_c, 0, 62, 0
2, 24510, Note_on_c, 0, 77, 0
2, 24633, Note_on_c, 0, 82, 64
2, 24642, Note_on_c, 0, 62, 54
2, 24643, Note_on_c, 0, 70, 60
2, 24651, Note_on_c, 0, 65, 41
2, 24667, Note_on_c, 0, 60, 46
2, 24696, Note_on_c, 0, 65, 0
2, 24712, Note_on_c, 0, 60, 0
2, 24716, Note_on_c, 0, 62, 0
2, 24761, Note_on_c, 0, 82, 0
2, 24777, Note_on_c, 0, 70, 0
2, 24940, Control_c, 0, 64, 0
2, 24989, Note_on_c, 0, 58, 50
2, 24990, Note_on_c, 0, 62, 40
2, 24995, Note_on_c, 0, 81, 50
2, 25008, Note_on_c, 0, 57, 50
2, 25010, Note_on_c, 0, 74, 48
2, 25014, Note_on_c, 0, 77, 42
2, 25016, Note_on_c, 0, 69, 34
2, 25017, Note_on_c, 0, 53, 27
2, 25233, Control_c, 0, 64, 127
2, 25514, Note_on_c, 0, 57, 0
2, 25550, Note_on_c, 0, 81, 0
2, 25566, Note_on_c, 0, 53, 0
2, 25589, Note_on_c, 0, 58, 0
2, 25590, Note_on_c, 0, 77, 0
2, 25605, Note_on_c, 0, 62, 0
2, 25646, Note_on_c, 0, 74, 0
2, 25659, Note_on_c, 0, 69, 0
2, 25973, Control_c, 0, 64, 0
2, 25979, Note_on_c, 0, 76, 39
2, 25980, Note_on_c, 0, 73, 32
2, 25984, Note_on_c, 0, 61, 35
2, 25985, Note_on_c, 0, 67, 41
2, 25987, Note_on_c, 0, 79, 43
2, 25998, Note_on_c, 0, 64, 37
2, 26006, Note_on_c, 0, 58, 37
2, 26220, Control_c, 0, 64, 127
2, 26426, Note_on_c, 0, 79, 0
2, 26444, Note_on_c, 0, 76, 0
2, 26456, Note_on_c, 0, 64, 0
2, 26476, Note_on_c, 0, 67, 0
2, 26526, Note_on_c, 0, 61, 0
2, 26528, Note_on_c, 0, 73, 0
2, 26664, Note_on_c, 0, 58, 0
2, 26916, Control_c, 0, 64, 0
2, 26918, Note_on_c, 0, 77, 35
2, 26925, Note_on_c, 0, 72, 43
2, 26942, Note_on_c, 0, 57, 37
2, 26947, Note_on_c, 0, 62, 27
2, 26968, Note_on_c, 0, 72, 0
2, 26969, Note_on_c, 0, 77, 0
2, 26989, Note_on_c, 0, 62, 0
2, 27059, Note_on_c, 0, 57, 0
2, 27265, Control_c, 0, 64, 127
2, 27367, Control_c, 0, 64, 0
2, 27540, Note_on_c, 0, 72, 51
2, 27549, Note_on_c, 0, 57, 43
2, 27556, Note_on_c, 0, 64, 44
2, 27571, Note_on_c, 0, 67, 35
2, 27581, Note_on_c, 0, 69, 32
2, 27601, Control_c, 0, 64, 127
2, 27735, Note_on_c, 0, 64, 0
2, 27744, Note_on_c, 0, 67, 0
2, 27772, Note_on_c, 0, 72, 0
2, 27797, Note_on_c, 0, 69, 0
2, 27871, Control_c, 0, 64, 0
2, 27894, Note_on_c, 0, 57, 0
2, 27898, Note_on_c, 0, 69, 41
2, 27901, Note_on_c, 0, 74, 53
2, 27913, Note_on_c, 0, 65, 46
2, 27915, Note_on_c, 0, 62, 50
2, 28108, Control_c, 0, 64, 127
2, 28287, Note_on_c, 0, 65, 0
2, 28404, Note_on_c, 0, 62, 0
2, 28407, Note_on_c, 0, 69, 0
2, 28413, Note_on_c, 0, 74, 0
2, 28811, Note_on_c, 0, 73, 64
2, 28817, Note_on_c, 0, 69, 83
2, 28818, Note_on_c, 0, 81, 74
2, 28822, Note_on_c, 0, 77, 58
2, 28823, Note_on_c, 0, 57, 64
2, 28828, Note_on_c, 0, 80, 33
2, 28833, Note_on_c, 0, 62, 62
2, 28835, Note_on_c, 0, 74, 74
2, 28837, Control_c, 0, 64, 0
2, 28840, Note_on_c, 0, 58, 64
2, 28854, Note_on_c, 0, 73, 0
2, 28888, Note_on_c, 0, 80, 0
2, 29174, Control_c, 0, 64, 127
2, 29300, Note_on_c, 0, 57, 0
2, 29385, Note_on_c, 0, 62, 0
2, 29388, Note_on_c, 0, 58, 0
2, 29393, Note_on_c, 0, 81, 0
2, 29445, Note_on_c, 0, 69, 0
2, 29450, Note_on_c, 0, 74, 0
2, 29553, Note_on_c, 0, 77, 0
2, 29807, Note_on_c, 0, 76, 47
2, 29811, Note_on_c, 0, 79, 45
2, 29815, Control_c, 0, 64, 0
2, 29821, Note_on_c, 0, 73, 36
2, 29832, Note_on_c, 0, 61, 35
2, 29838, Note_on_c, 0, 64, 44
2, 29851, Note_on_c, 0, 58, 38
2, 29880, Note_on_c, 0, 67, 13
2, 30073, Control_c, 0, 64, 127
2, 30268, Note_on_c, 0, 79, 0
2, 30298, Note_on_c, 0, 76, 0
2, 30305, Note_on_c, 0, 64, 0
2, 30332, Note_on_c, 0, 73, 0
2, 30337, Note_on_c, 0, 67, 0
2, 30355, Note_on_c, 0, 61, 0
2, 30486, Note_on_c, 0, 58, 0
2, 30744, Control_c, 0, 64, 0
2, 30749, Note_on_c, 0, 76, 57
2, 30756, Note_on_c, 0, 65, 63
2, 30757, Note_on_c, 0, 57, 42
2, 30763, Note_on_c, 0, 62, 45
2, 30764, Note_on_c, 0, 72, 40
2, 30776, Note_on_c, 0, 69, 41
2, 31073, Control_c, 0, 64, 127
2, 31124, Note_on_c, 0, 62, 0
2, 31130, Note_on_c, 0, 57, 0
2, 31230, Control_c, 0, 64, 0
2, 31333, Note_on_c, 0, 76, 0
2, 31370, Note_on_c, 0, 72, 0
2, 31398, Note_on_c, 0, 65, 0
2, 31401, Note_on_c, 0, 50, 74
2, 31410, Note_on_c, 0, 69, 0
2, 31466, Control_c, 0, 64, 127
2, 31658, Control_c, 0, 64, 0
2, 31719, Note_on_c, 0, 74, 61
2, 31723, Note_on_c, 0, 60, 44
2, 31729, Note_on_c, 0, 65, 55
2, 31731, Note_on_c, 0, 69, 53
2, 31883, Control_c, 0, 64, 127
2, 31914, Note_on_c, 0, 69, 0
2, 31921, Note_on_c, 0, 74, 0
2, 31973, Note_on_c, 0, 65, 0
2, 31977, Note_on_c, 0, 50, 0
2, 31978, Note_on_c, 0, 60, 0
2, 32320, Note_on_c, 0, 58, 74
2, 32321, Note_on_c, 0, 69, 64
2, 32323, Note_on_c, 0, 62, 72
2, 32331, Control_c, 0, 64, 0
2, 32334, Note_on_c, 0, 57, 70
2, 32336, Note_on_c, 0, 65, 60
2, 32667, Control_c, 0, 64, 127
2, 33194, Control_c, 0, 64, 0
2, 33228, Control_c, 0, 64, 127
2, 33249, Note_on_c, 0, 57, 0
2, 33281, Note_on_c, 0, 48, 46
2, 33283, Note_on_c, 0, 62, 0
2, 33293, Note_on_c, 0, 65, 0
2, 33377, Note_on_c, 0, 69, 0
2, 33425, Note_on_c, 0, 58, 0
2, 33533, Control_c, 0, 64, 0
2, 33555, Note_on_c, 0, 48, 0
2, 33604, Note_on_c, 0, 58, 39
2, 33611, Note_on_c, 0, 55, 40
2, 33614, Note_on_c, 0, 61, 46
2, 33630, Note_on_c, 0, 67, 39
2, 33651, Note_on_c, 0, 64, 41
2, 33779, Control_c, 0, 64, 127
2, 33792, Note_on_c, 0, 58, 0
2, 33798, Note_on_c, 0, 55, 0
2, 33855, Note_on_c, 0, 61, 0
2, 33856, Note_on_c, 0, 64, 0
2, 33874, Note_on_c, 0, 67, 0
2, 34256, Note_on_c, 0, 86, 74
2, 34264, Note_on_c, 0, 74, 67
2, 34463, Note_on_c, 0, 86, 0
2, 34491, Note_on_c, 0, 74, 0
2, 34575, Control_c, 0, 64, 0
2, 34593, Note_on_c, 0, 84, 57
2, 34597, Note_on_c, 0, 41, 24
2, 34607, Note_on_c, 0, 72, 34
2, 34612, Note_on_c, 0, 57, 43
2, 34615, Note_on_c, 0, 48, 32
2, 34789, Control_c, 0, 64, 127
2, 34833, Note_on_c, 0, 41, 0
2, 34866, Note_on_c, 0, 48, 0
2, 34980, Note_on_c, 0, 57, 0
2, 35026, Note_on_c, 0, 84, 0
2, 35103, Note_on_c, 0, 72, 0
2, 35567, Note_on_c, 0, 69, 45
2, 35568, Note_on_c, 0, 76, 46
2, 35773, Note_on_c, 0, 76, 0
2, 35937, Note_on_c, 0, 69, 0
2, 36136, Control_c, 0, 64, 0
2, 36163, Note_on_c, 0, 64, 87
2, 36165, Note_on_c, 0, 79, 87
2, 36171, Note_on_c, 0, 72, 85
2, 36172, Note_on_c, 0, 69, 92
2, 36282, Control_c, 0, 64, 127
2, 36438, Note_on_c, 0, 79, 0
2, 36439, Note_on_c, 0, 69, 0
2, 36449, Note_on_c, 0, 72, 0
2, 36472, Control_c, 0, 64, 0
2, 36529, Note_on_c, 0, 72, 71
2, 36536, Note_on_c, 0, 77, 70
2, 36544, Note_on_c, 0, 69, 64
2, 36547, Note_on_c, 0, 62, 68
2, 36558, Note_on_c, 0, 64, 0
2, 36710, Control_c, 0, 64, 127
2, 36885, Note_on_c, 0, 62, 0
2, 36923, Note_on_c, 0, 77, 0
2, 36943, Note_on_c, 0, 72, 0
2, 36958, Note_on_c, 0, 69, 0
2, 37472, Control_c, 0, 64, 0
2, 37492, Note_on_c, 0, 69, 49
2, 37494, Note_on_c, 0, 57, 47
2, 37496, Note_on_c, 0, 65, 50
2, 37503, Note_on_c, 0, 64, 50
2, 37664, Control_c, 0, 64, 127
2, 37735, Note_on_c, 0, 69, 0
2, 37741, Note_on_c, 0, 64, 0
2, 37789, Note_on_c, 0, 65, 0
2, 37825, Note_on_c, 0, 57, 0
2, 38201, Note_on_c, 0, 50, 36
2, 38404, Control_c, 0, 64, 0
2, 38407, Note_on_c, 0, 58, 62
2, 38433, Note_on_c, 0, 50, 0
2, 38456, Note_on_c, 0, 43, 31
2, 38491, Note_on_c, 0, 60, 58
2, 38495, Note_on_c, 0, 58, 0
2, 38585, Note_on_c, 0, 58, 23
2, 38633, Note_on_c, 0, 60, 0
2, 38717, Note_on_c, 0, 57, 47
2, 38732, Note_on_c, 0, 58, 0
2, 38824, Note_on_c, 0, 57, 0
2, 38844, Note_on_c, 0, 50, 33
2, 38888, Note_on_c, 0, 54, 43
2, 38975, Note_on_c, 0, 54, 0
2, 39017, Note_on_c, 0, 57, 60
2, 39167, Note_on_c, 0, 50, 0
2, 39196, Note_on_c, 0, 57, 0
2, 39215, Note_on_c, 0, 54, 38
2, 39309, Note_on_c, 0, 54, 0
2, 39366, Note_on_c, 0, 55, 46
2, 39393, Note_on_c, 0, 53, 32
2, 39471, Note_on_c, 0, 55, 0
2, 39552, Note_on_c, 0, 57, 45
2, 39704, Note_on_c, 0, 57, 0
2, 39732, Note_on_c, 0, 58, 67
2, 39745, Note_on_c, 0, 43, 0
2, 39831, Note_on_c, 0, 58, 0
2, 39838, Note_on_c, 0, 53, 0
2, 39885, Note_on_c, 0, 60, 60
2, 39986, Note_on_c, 0, 60, 0
2, 40018, Note_on_c, 0, 61, 45
2, 40126, Note_on_c, 0, 61, 0
2, 40151, Note_on_c, 0, 63, 32
2, 40192, Note_on_c, 0, 63, 0
2, 40239, Note_on_c, 0, 64, 62
2, 40309, Note_on_c, 0, 48, 42
2, 40324, Note_on_c, 0, 64, 0
2, 40351, Note_on_c, 0, 65, 17
2, 40419, Note_on_c, 0, 58, 3
2, 40420, Note_on_c, 0, 65, 0
2, 40456, Note_on_c, 0, 66, 39
2, 40520, Note_on_c, 0, 66, 0
2, 40549, Note_on_c, 0, 58, 0
2, 40582, Note_on_c, 0, 67, 45
2, 40651, Note_on_c, 0, 67, 0
2, 41288, Note_on_c, 0, 48, 0
2, 41291, Note_on_c, 0, 74, 77
2, 41303, Note_on_c, 0, 64, 84
2, 41309, Note_on_c, 0, 70, 70
2, 41313, Note_on_c, 0, 67, 73
2, 41314, Note_on_c, 0, 60, 67
2, 41480, Note_on_c, 0, 74, 0
2, 41490, Note_on_c, 0, 64, 0
2, 41537, Note_on_c, 0, 67, 0
2, 41570, Note_on_c, 0, 60, 0
2, 41593, Note_on_c, 0, 73, 61
2, 41608, Note_on_c, 0, 64, 58
2, 41613, Note_on_c, 0, 67, 49
2, 41617, Note_on_c, 0, 58, 67
2, 41740, Note_on_c, 0, 73, 0
2, 41744, Note_on_c, 0, 64, 0
2, 41791, Note_on_c, 0, 72, 38
2, 41801, Note_on_c, 0, 58, 0
2, 41826, Note_on_c, 0, 64, 58
2, 41902, Note_on_c, 0, 72, 0
2, 41929, Note_on_c, 0, 67, 0
2, 41944, Note_on_c, 0, 70, 0
2, 41950, Note_on_c, 0, 64, 0
2, 42081, Note_on_c, 0, 56, 51
2, 42084, Note_on_c, 0, 63, 59
2, 42095, Note_on_c, 0, 68, 37
2, 42214, Note_on_c, 0, 68, 0
2, 42224, Note_on_c, 0, 63, 0
2, 42295, Note_on_c, 0, 69, 53
2, 42300, Note_on_c, 0, 56, 0
2, 42301, Note_on_c, 0, 60, 37
2, 42303, Note_on_c, 0, 57, 46
2, 42319, Note_on_c, 0, 64, 43
2, 42401, Control_c, 0, 64, 127
2, 42572, Note_on_c, 0, 60, 0
2, 42661, Note_on_c, 0, 57, 0
2, 42710, Note_on_c, 0, 64, 0
2, 42740, Note_on_c, 0, 69, 0
2, 42916, Note_on_c, 0, 61, 20
2, 43067, Note_on_c, 0, 61, 0
2, 43199, Control_c, 0, 64, 0
2, 43202, Note_on_c, 0, 84, 78
2, 43210, Note_on_c, 0, 61, 56
2, 43214, Note_on_c, 0, 65, 72
2, 43215, Note_on_c, 0, 77, 76
2, 43216, Note_on_c, 0, 60, 66
2, 43218, Note_on_c, 0, 81, 65
2, 43222, Note_on_c, 0, 72, 72
2, 43227, Note_on_c, 0, 55, 62
2, 43263, Note_on_c, 0, 58, 32
2, 43412, Control_c, 0, 64, 127
2, 43488, Note_on_c, 0, 72, 0
2, 43499, Note_on_c, 0, 77, 0
2, 43523, Note_on_c, 0, 81, 0
2, 43551, Note_on_c, 0, 84, 0
2, 43597, Note_on_c, 0, 55, 0
2, 43605, Note_on_c, 0, 65, 0
2, 43607, Note_on_c, 0, 60, 0
2, 43615, Note_on_c, 0, 61, 0
2, 43635, Note_on_c, 0, 58, 0
2, 43827, Control_c, 0, 64, 0
2, 43861, Note_on_c, 0, 89, 72
2, 43863, Note_on_c, 0, 61, 67
2, 43870, Note_on_c, 0, 65, 74
2, 43871, Note_on_c, 0, 84, 81
2, 43873, Note_on_c, 0, 77, 74
2, 43881, Note_on_c, 0, 60, 47
2, 43883, Note_on_c, 0, 55, 66
2, 43918, Note_on_c, 0, 58, 34
2, 44009, Control_c, 0, 64, 127
2, 44017, Note_on_c, 0, 77, 0
2, 44049, Note_on_c, 0, 84, 0
2, 44082, Note_on_c, 0, 65, 0
2, 44083, Note_on_c, 0, 89, 0
2, 44084, Note_on_c, 0, 60, 0
2, 44087, Note_on_c, 0, 55, 0
2, 44149, Note_on_c, 0, 58, 0
2, 44183, Note_on_c, 0, 61, 0
2, 44210, Control_c, 0, 64, 0
2, 44257, Note_on_c, 0, 64, 56
2, 44261, Note_on_c, 0, 60, 54
2, 44263, Note_on_c, 0, 93, 74
2, 44269, Note_on_c, 0, 81, 58
2, 44270, Note_on_c, 0, 88, 59
2, 44275, Note_on_c, 0, 54, 50
2, 44435, Control_c, 0, 64, 127
2, 44625, Note_on_c, 0, 81, 0
2, 44698, Note_on_c, 0, 88, 0
2, 44703, Note_on_c, 0, 93, 0
2, 44714, Note_on_c, 0, 54, 0
2, 44755, Note_on_c, 0, 64, 0
2, 44829, Note_on_c, 0, 60, 0
2, 45175, Control_c, 0, 64, 0
2, 45192, Note_on_c, 0, 60, 47
2, 45193, Note_on_c, 0, 54, 50
2, 45195, Note_on_c, 0, 64, 50
2, 45197, Note_on_c, 0, 92, 60
2, 45198, Note_on_c, 0, 96, 63
2, 45199, Note_on_c, 0, 84, 63
2, 45457, Note_on_c, 0, 93, 35
2, 45465, Note_on_c, 0, 84, 0
2, 45468, Note_on_c, 0, 92, 0
2, 45511, Note_on_c, 0, 93, 0
2, 45521, Note_on_c, 0, 96, 0
2, 45532, Note_on_c, 0, 64, 0
2, 45544, Note_on_c, 0, 60, 0
2, 45563, Note_on_c, 0, 54, 0
2, 45782, Control_c, 0, 64, 127
2, 45818, Note_on_c, 0, 54, 40
2, 45883, Control_c, 0, 64, 0
2, 45969, Note_on_c, 0, 54, 0
2, 46095, Note_on_c, 0, 62, 45
2, 46098, Control_c, 0, 64, 127
2, 46106, Note_on_c, 0, 94, 51
2, 46113, Note_on_c, 0, 82, 37
2, 46123, Note_on_c, 0, 58, 39
2, 46131, Note_on_c, 0, 89, 40
2, 46147, Note_on_c, 0, 57, 31
2, 46161, Note_on_c, 0, 53, 18
2, 46288, Note_on_c, 0, 89, 0
2, 46297, Note_on_c, 0, 82, 0
2, 46352, Note_on_c, 0, 94, 0
2, 46397, Note_on_c, 0, 57, 0
2, 46401, Note_on_c, 0, 62, 0
2, 46458, Note_on_c, 0, 58, 0
2, 46459, Note_on_c, 0, 53, 0
2, 46717, Note_on_c, 0, 58, 77
2, 46720, Note_on_c, 0, 96, 80
2, 46726, Note_on_c, 0, 57, 74
2, 46727, Note_on_c, 0, 62, 79
2, 46728, Note_on_c, 0, 84, 87
2, 46730, Note_on_c, 0, 91, 78
2, 46738, Note_on_c, 0, 53, 64
2, 46755, Note_on_c, 0, 86, 44
2, 46801, Note_on_c, 0, 86, 0
2, 46902, Note_on_c, 0, 84, 0
2, 46938, Note_on_c, 0, 96, 0
2, 46939, Note_on_c, 0, 91, 0
2, 46952, Note_on_c, 0, 53, 0
2, 46963, Note_on_c, 0, 62, 0
2, 46981, Note_on_c, 0, 57, 0
2, 46990, Note_on_c, 0, 58, 0
2, 47051, Note_on_c, 0, 62, 68
2, 47060, Note_on_c, 0, 58, 74
2, 47061, Note_on_c, 0, 53, 51
2, 47063, Note_on_c, 0, 98, 77
2, 47065, Control_c, 0, 64, 0
2, 47066, Note_on_c, 0, 57, 59
2, 47068, Note_on_c, 0, 86, 79
2, 47074, Note_on_c, 0, 91, 74
2, 47220, Note_on_c, 0, 86, 0
2, 47221, Note_on_c, 0, 91, 0
2, 47261, Note_on_c, 0, 62, 0
2, 47264, Note_on_c, 0, 98, 0
2, 47266, Note_on_c, 0, 53, 0
2, 47294, Note_on_c, 0, 58, 0
2, 47348, Control_c, 0, 64, 127
2, 47350, Note_on_c, 0, 62, 57
2, 47351, Note_on_c, 0, 53, 45
2, 47353, Note_on_c, 0, 98, 61
2, 47354, Note_on_c, 0, 58, 51
2, 47363, Note_on_c, 0, 86, 63
2, 47374, Note_on_c, 0, 91, 63
2, 47527, Control_c, 0, 64, 0
2, 47528, Note_on_c, 0, 53, 0
2, 47530, Note_on_c, 0, 62, 0
2, 47531, Note_on_c, 0, 98, 0
2, 47538, Note_on_c, 0, 86, 0
2, 47550, Note_on_c, 0, 91, 0
2, 47573, Note_on_c, 0, 58, 0
2, 47589, Note_on_c, 0, 57, 0
2, 47685, Control_c, 0, 64, 127
2, 47695, Note_on_c, 0, 62, 53
2, 47701, Note_on_c, 0, 58, 55
2, 47706, Note_on_c, 0, 96, 58
2, 47707, Note_on_c, 0, 53, 45
2, 47714, Note_on_c, 0, 57, 38
2, 47715, Note_on_c, 0, 91, 55
2, 47717, Note_on_c, 0, 84, 56
2, 47833, Note_on_c, 0, 57, 0
2, 47835, Note_on_c, 0, 62, 0
2, 47837, Note_on_c, 0, 96, 0
2, 47868, Note_on_c, 0, 84, 0
2, 47883, Note_on_c, 0, 53, 0
2, 47896, Note_on_c, 0, 91, 0
2, 47912, Control_c, 0, 64, 0
2, 47913, Note_on_c, 0, 58, 0
2, 48023, Note_on_c, 0, 58, 29
2, 48032, Note_on_c, 0, 62, 53
2, 48035, Note_on_c, 0, 94, 60
2, 48041, Note_on_c, 0, 52, 36
2, 48059, Note_on_c, 0, 82, 42
2, 48159, Control_c, 0, 64, 127
2, 48218, Note_on_c, 0, 94, 0
2, 48228, Note_on_c, 0, 62, 0
2, 48230, Note_on_c, 0, 82, 0
2, 48230, Note_on_c, 0, 52, 0
2, 48278, Note_on_c, 0, 58, 0
2, 48335, Note_on_c, 0, 94, 48
2, 48338, Note_on_c, 0, 82, 50
2, 48340, Note_on_c, 0, 62, 37
2, 48345, Note_on_c, 0, 58, 21
2, 48359, Note_on_c, 0, 52, 32
2, 48464, Note_on_c, 0, 82, 0
2, 48491, Note_on_c, 0, 52, 0
2, 48493, Note_on_c, 0, 62, 0
2, 48518, Note_on_c, 0, 94, 0
2, 48542, Note_on_c, 0, 58, 0
2, 48550, Control_c, 0, 64, 0
2, 48631, Note_on_c, 0, 96, 63
2, 48639, Note_on_c, 0, 62, 49
2, 48640, Note_on_c, 0, 84, 74
2, 48645, Note_on_c, 0, 58, 57
2, 48649, Note_on_c, 0, 52, 49
2, 48686, Control_c, 0, 64, 127
2, 48825, Note_on_c, 0, 52, 0
2, 48837, Note_on_c, 0, 84, 0
2, 48838, Note_on_c, 0, 96, 0
2, 48872, Note_on_c, 0, 62, 0
2, 48883, Note_on_c, 0, 58, 0
2, 48933, Control_c, 0, 64, 0
2, 48987, Note_on_c, 0, 58, 44
2, 48989, Note_on_c, 0, 98, 57
2, 48990, Note_on_c, 0, 62, 44
2, 48992, Note_on_c, 0, 86, 57
2, 49014, Note_on_c, 0, 52, 36
2, 49015, Note_on_c, 0, 94, 26
2, 49020, Note_on_c, 0, 91, 38
2, 49063, Note_on_c, 0, 94, 0
2, 49067, Note_on_c, 0, 86, 0
2, 49068, Note_on_c, 0, 62, 0
2, 49069, Note_on_c, 0, 91, 0
2, 49076, Note_on_c, 0, 52, 0
2, 49094, Note_on_c, 0, 58, 0
2, 49098, Note_on_c, 0, 98, 0
2, 49180, Control_c, 0, 64, 127
2, 49518, Control_c, 0, 64, 0
2, 49614, Note_on_c, 0, 100, 54
2, 49618, Note_on_c, 0, 58, 56
2, 49620, Note_on_c, 0, 88, 44
2, 49630, Control_c, 0, 64, 127
2, 49637, Note_on_c, 0, 62, 40
2, 49670, Note_on_c, 0, 88, 0
2, 49682, Note_on_c, 0, 62, 0
2, 49722, Note_on_c, 0, 58, 0
2, 49730, Note_on_c, 0, 100, 0
2, 49944, Control_c, 0, 64, 0
2, 49977, Note_on_c, 0, 63, 55
2, 49984, Note_on_c, 0, 101, 63
2, 49987, Note_on_c, 0, 89, 50
2, 49989, Note_on_c, 0, 58, 49
2, 50067, Note_on_c, 0, 53, 13
2, 50096, Note_on_c, 0, 101, 0
2, 50101, Control_c, 0, 64, 127
2, 50140, Note_on_c, 0, 89, 0
2, 50483, Note_on_c, 0, 65, 51
2, 50540, Note_on_c, 0, 65, 0
2, 50661, Note_on_c, 0, 70, 58
2, 50766, Note_on_c, 0, 70, 0
2, 50832, Control_c, 0, 64, 0
2, 50834, Note_on_c, 0, 75, 55
2, 50984, Note_on_c, 0, 71, 37
2, 50988, Note_on_c, 0, 75, 0
2, 51132, Note_on_c, 0, 71, 0
2, 51151, Note_on_c, 0, 72, 45
2, 51242, Note_on_c, 0, 72, 0
2, 51301, Note_on_c, 0, 79, 61
2, 51432, Note_on_c, 0, 79, 0
2, 51738, Note_on_c, 0, 74, 54
2, 51831, Note_on_c, 0, 74, 0
2, 51836, Note_on_c, 0, 60, 15
2, 51868, Note_on_c, 0, 75, 51
2, 51939, Note_on_c, 0, 75, 0
2, 52030, Note_on_c, 0, 79, 58
2, 52093, Note_on_c, 0, 63, 0
2, 52121, Note_on_c, 0, 79, 0
2, 52209, Note_on_c, 0, 82, 31
2, 52302, Note_on_c, 0, 82, 0
2, 52311, Note_on_c, 0, 83, 50
2, 52356, Note_on_c, 0, 60, 0
2, 52389, Note_on_c, 0, 83, 0
2, 52422, Note_on_c, 0, 58, 0
2, 52451, Note_on_c, 0, 86, 72
2, 52577, Note_on_c, 0, 86, 0
2, 52641, Note_on_c, 0, 83, 45
2, 52689, Note_on_c, 0, 83, 0
2, 52778, Note_on_c, 0, 84, 76
2, 52906, Note_on_c, 0, 84, 0
2, 52950, Note_on_c, 0, 79, 67
2, 52962, Note_on_c, 0, 63, 35
2, 52971, Note_on_c, 0, 58, 33
2, 52985, Note_on_c, 0, 65, 38
2, 53062, Note_on_c, 0, 79, 0
2, 53122, Note_on_c, 0, 77, 37
2, 53224, Note_on_c, 0, 75, 55
2, 53241, Note_on_c, 0, 77, 0
2, 53352, Note_on_c, 0, 75, 0
2, 53393, Note_on_c, 0, 74, 38
2, 53485, Note_on_c, 0, 74, 0
2, 53519, Note_on_c, 0, 58, 0
2, 53566, Note_on_c, 0, 72, 24
2, 53618, Note_on_c, 0, 72, 0
2, 53694, Control_c, 0, 64, 127
2, 53695, Note_on_c, 0, 63, 0
2, 53724, Note_on_c, 0, 65, 0
2, 53814, Control_c, 0, 64, 0
2, 53865, Note_on_c, 0, 77, 64
2, 53866, Note_on_c, 0, 65, 32
2, 53882, Note_on_c, 0, 62, 46
2, 53884, Note_on_c, 0, 60, 31
2, 54046, Note_on_c, 0, 77, 0
2, 54097, Note_on_c, 0, 69, 36
2, 54156, Note_on_c, 0, 69, 0
2, 54400, Note_on_c, 0, 65, 0
2, 54550, Note_on_c, 0, 62, 0
2, 54604, Control_c, 0, 64, 127
2, 54805, Control_c, 0, 64, 0
2, 54812, Note_on_c, 0, 62, 37
2, 54813, Note_on_c, 0, 67, 66
2, 54842, Note_on_c, 0, 65, 15
2, 54909, Note_on_c, 0, 65, 0
2, 54945, Note_on_c, 0, 67, 0
2, 54984, Note_on_c, 0, 62, 0
2, 55003, Note_on_c, 0, 60, 0
2, 55034, Note_on_c, 0, 69, 64
2, 55120, Note_on_c, 0, 53, 0
2, 55138, Note_on_c, 0, 69, 0
2, 55142, Control_c, 0, 64, 127
2, 55209, Control_c, 0, 64, 0
2, 55275, Note_on_c, 0, 72, 66
2, 55285, Note_on_c, 0, 62, 67
2, 55288, Note_on_c, 0, 65, 61
2, 55305, Note_on_c, 0, 64, 57
2, 55310, Note_on_c, 0, 58, 60
2, 55343, Note_on_c, 0, 64, 0
2, 55443, Note_on_c, 0, 62, 0
2, 55458, Note_on_c, 0, 72, 0
2, 55515, Note_on_c, 0, 65, 0
2, 55553, Note_on_c, 0, 70, 56
2, 55563, Note_on_c, 0, 62, 56
2, 55632, Note_on_c, 0, 56, 31
2, 55636, Control_c, 0, 64, 127
2, 55637, Note_on_c, 0, 70, 0
2, 55650, Note_on_c, 0, 62, 0
2, 55678, Note_on_c, 0, 58, 0
2, 55767, Note_on_c, 0, 56, 0
2, 55794, Control_c, 0, 64, 0
2, 55814, Note_on_c, 0, 69, 68
2, 55844, Note_on_c, 0, 57, 56
2, 55855, Note_on_c, 0, 58, 38
2, 55856, Note_on_c, 0, 62, 44
2, 55869, Note_on_c, 0, 65, 25
2, 56075, Control_c, 0, 64, 127
2, 56311, Note_on_c, 0, 58, 0
2, 56398, Note_on_c, 0, 62, 0
2, 56402, Note_on_c, 0, 65, 0
2, 56449, Note_on_c, 0, 69, 0
2, 56547, Note_on_c, 0, 57, 0
2, 56679, Control_c, 0, 64, 0
2, 56683, Note_on_c, 0, 58, 38
2, 56684, Note_on_c, 0, 67, 44
2, 56693, Note_on_c, 0, 55, 48
2, 56706, Note_on_c, 0, 61, 35
2, 56714, Note_on_c, 0, 64, 45
2, 56854, Note_on_c, 0, 55, 0
2, 56905, Control_c, 0, 64, 127
2, 57022, Note_on_c, 0, 67, 0
2, 57158, Note_on_c, 0, 58, 0
2, 57187, Note_on_c, 0, 64, 0
2, 57303, Note_on_c, 0, 41, 38
2, 57339, Note_on_c, 0, 61, 0
2, 57393, Note_on_c, 0, 41, 0
2, 57579, Control_c, 0, 64, 0
2, 57619, Note_on_c, 0, 65, 48
2, 57631, Note_on_c, 0, 57, 43
2, 57634, Note_on_c, 0, 60, 50
2, 57680, Note_on_c, 0, 60, 0
2, 57690, Note_on_c, 0, 57, 0
2, 57693, Note_on_c, 0, 65, 0
2, 57971, Control_c, 0, 64, 127
2, 58027, Control_c, 0, 64, 0
2, 58218, Note_on_c, 0, 60, 47
2, 58228, Note_on_c, 0, 52, 47
2, 58230, Control_c, 0, 64, 127
2, 58233, Note_on_c, 0, 55, 42
2, 58251, Note_on_c, 0, 48, 38
2, 58361, Note_on_c, 0, 55, 0
2, 58379, Note_on_c, 0, 60, 0
2, 58438, Note_on_c, 0, 52, 0
2, 58499, Control_c, 0, 64, 0
2, 58586, Note_on_c, 0, 62, 54
2, 58596, Note_on_c, 0, 53, 32
2, 58598, Note_on_c, 0, 57, 49
2, 58610, Note_on_c, 0, 50, 44
2, 58614, Note_on_c, 0, 48, 0
2, 58699, Control_c, 0, 64, 127
2, 58839, Note_on_c, 0, 53, 0
2, 58841, Note_on_c, 0, 50, 0
2, 58881, Note_on_c, 0, 62, 0
2, 58905, Note_on_c, 0, 57, 0
2, 59485, Note_on_c, 0, 55, 41
2, 59553, Note_on_c, 0, 58, 74
2, 59554, Note_on_c, 0, 69, 71
2, 59556, Note_on_c, 0, 62, 71
2, 59566, Control_c, 0, 64, 0
2, 59567, Note_on_c, 0, 65, 57
2, 59581, Note_on_c, 0, 57, 64
2, 59643, Note_on_c, 0, 55, 0
2, 59800, Control_c, 0, 64, 127
2, 60160, Note_on_c, 0, 58, 0
2, 60173, Note_on_c, 0, 62, 0
2, 60202, Note_on_c, 0, 65, 0
2, 60271, Note_on_c, 0, 69, 0
2, 60496, Control_c, 0, 64, 0
2, 60516, Note_on_c, 0, 67, 39
2, 60518, Note_on_c, 0, 58, 57
2, 60519, Note_on_c, 0, 61, 52
2, 60520, Note_on_c, 0, 55, 52
2, 60521, Note_on_c, 0, 57, 0
2, 60537, Note_on_c, 0, 64, 53
2, 60702, Control_c, 0, 64, 127
2, 60732, Note_on_c, 0, 58, 0
2, 60879, Note_on_c, 0, 61, 0
2, 60894, Note_on_c, 0, 55, 0
2, 60903, Note_on_c, 0, 64, 0
2, 60933, Note_on_c, 0, 67, 0
2, 61479, Note_on_c, 0, 76, 78
2, 61484, Note_on_c, 0, 64, 82
2, 61489, Note_on_c, 0, 72, 68
2, 61490, Note_on_c, 0, 65, 83
2, 61491, Note_on_c, 0, 69, 74
2, 61500, Control_c, 0, 64, 0
2, 61870, Control_c, 0, 64, 127
2, 62260, Note_on_c, 0, 65, 0
2, 62288, Note_on_c, 0, 69, 0
2, 62292, Note_on_c, 0, 72, 0
2, 62388, Note_on_c, 0, 76, 0
2, 62444, Note_on_c, 0, 62, 55
2, 62453, Note_on_c, 0, 74, 54
2, 62454, Note_on_c, 0, 65, 58
2, 62456, Note_on_c, 0, 64, 0
2, 62463, Control_c, 0, 64, 0
2, 62474, Note_on_c, 0, 69, 51
2, 62476, Note_on_c, 0, 72, 38
2, 62666, Control_c, 0, 64, 127
2, 62743, Note_on_c, 0, 65, 0
2, 62808, Note_on_c, 0, 69, 0
2, 62830, Note_on_c, 0, 62, 0
2, 62848, Note_on_c, 0, 72, 0
2, 62869, Note_on_c, 0, 74, 0
2, 63372, Control_c, 0, 64, 0
2, 63385, Note_on_c, 0, 92, 67
2, 63386, Note_on_c, 0, 61, 50
2, 63393, Note_on_c, 0, 65, 55
2, 63394, Note_on_c, 0, 80, 60
2, 63399, Note_on_c, 0, 87, 62
2, 63403, Note_on_c, 0, 60, 52
2, 63410, Note_on_c, 0, 56, 53
2, 63634, Control_c, 0, 64, 127
2, 63974, Note_on_c, 0, 60, 0
2, 63994, Note_on_c, 0, 65, 0
2, 64010, Note_on_c, 0, 80, 0
2, 64030, Note_on_c, 0, 87, 0
2, 64037, Note_on_c, 0, 92, 0
2, 64074, Note_on_c, 0, 56, 0
2, 64203, Note_on_c, 0, 61, 0
2, 64343, Note_on_c, 0, 61, 28
2, 64351, Control_c, 0, 64, 0
2, 64356, Note_on_c, 0, 91, 53
2, 64359, Note_on_c, 0, 85, 47
2, 64361, Note_on_c, 0, 79, 41
2, 64364, Note_on_c, 0, 64, 45
2, 64372, Note_on_c, 0, 55, 41
2, 64589, Control_c, 0, 64, 127
2, 64695, Note_on_c, 0, 91, 0
2, 64754, Note_on_c, 0, 85, 0
2, 64769, Note_on_c, 0, 79, 0
2, 64833, Note_on_c, 0, 64, 0
2, 64854, Note_on_c, 0, 55, 0
2, 65057, Note_on_c, 0, 61, 0
2, 65252, Control_c, 0, 64, 0
2, 65311, Note_on_c, 0, 63, 26
2, 65322, Note_on_c, 0, 84, 53
2, 65326, Note_on_c, 0, 72, 36
2, 65336, Note_on_c, 0, 58, 35
2, 65348, Note_on_c, 0, 60, 33
2, 65382, Note_on_c, 0, 53, 14
2, 65697, Note_on_c, 0, 84, 0
2, 65711, Note_on_c, 0, 72, 0
2, 65856, Note_on_c, 0, 63, 0
2, 66027, Note_on_c, 0, 60, 0
2, 66030, Note_on_c, 0, 83, 50
2, 66047, Note_on_c, 0, 58, 0
2, 66098, Note_on_c, 0, 53, 0
2, 66134, Note_on_c, 0, 83, 0
2, 66320, Note_on_c, 0, 63, 33
2, 66345, Note_on_c, 0, 58, 48
2, 66646, Note_on_c, 0, 84, 80
2, 66661, Note_on_c, 0, 72, 68
2, 66800, Note_on_c, 0, 72, 0
2, 66855, Note_on_c, 0, 84, 0
2, 66942, Note_on_c, 0, 83, 72
2, 67133, Note_on_c, 0, 63, 0
2, 67134, Note_on_c, 0, 83, 0
2, 67202, Note_on_c, 0, 58, 0
2, 67233, Note_on_c, 0, 63, 52
2, 67247, Note_on_c, 0, 84, 73
2, 67257, Note_on_c, 0, 60, 50
2, 67258, Note_on_c, 0, 72, 64
2, 67259, Note_on_c, 0, 54, 42
2, 67260, Note_on_c, 0, 78, 47
2, 67265, Note_on_c, 0, 81, 55
2, 67310, Note_on_c, 0, 60, 0
2, 67336, Note_on_c, 0, 63, 0
2, 67337, Note_on_c, 0, 72, 0
2, 67368, Note_on_c, 0, 54, 0
2, 67398, Note_on_c, 0, 84, 0
2, 67416, Note_on_c, 0, 81, 0
2, 67445, Note_on_c, 0, 78, 0
2, 67451, Note_on_c, 0, 72, 34
2, 67507, Note_on_c, 0, 84, 34
2, 67540, Note_on_c, 0, 72, 0
2, 67541, Note_on_c, 0, 78, 25
2, 67560, Note_on_c, 0, 81, 33
2, 67618, Note_on_c, 0, 84, 0
2, 67627, Note_on_c, 0, 81, 0
2, 67647, Note_on_c, 0, 72, 36
2, 67658, Note_on_c, 0, 78, 0
2, 67732, Note_on_c, 0, 72, 0
2, 67737, Note_on_c, 0, 84, 34
2, 67747, Note_on_c, 0, 78, 36
2, 67777, Note_on_c, 0, 81, 36
2, 67818, Note_on_c, 0, 84, 0
2, 67837, Note_on_c, 0, 81, 0
2, 67864, Note_on_c, 0, 72, 35
2, 67875, Note_on_c, 0, 78, 0
2, 67939, Note_on_c, 0, 84, 30
2, 67942, Note_on_c, 0, 72, 0
2, 67952, Note_on_c, 0, 78, 37
2, 67979, Note_on_c, 0, 81, 38
2, 68040, Note_on_c, 0, 84, 0
2, 68042, Note_on_c, 0, 81, 0
2, 68055, Note_on_c, 0, 72, 37
2, 68086, Note_on_c, 0, 78, 0
2, 68152, Note_on_c, 0, 72, 0
2, 68169, Note_on_c, 0, 84, 48
2, 68174, Note_on_c, 0, 78, 34
2, 68220, Note_on_c, 0, 81, 25
2, 68229, Note_on_c, 0, 63, 36
2, 68234, Note_on_c, 0, 60, 42
2, 68267, Note_on_c, 0, 72, 30
2, 68268, Note_on_c, 0, 81, 0
2, 68282, Note_on_c, 0, 84, 0
2, 68285, Note_on_c, 0, 60, 0
2, 68299, Note_on_c, 0, 78, 0
2, 68300, Note_on_c, 0, 63, 0
2, 68370, Note_on_c, 0, 72, 0
2, 68373, Note_on_c, 0, 84, 24
2, 68385, Note_on_c, 0, 78, 34
2, 68436, Note_on_c, 0, 81, 20
2, 68469, Note_on_c, 0, 84, 0
2, 68474, Note_on_c, 0, 81, 0
2, 68485, Note_on_c, 0, 72, 31
2, 68497, Note_on_c, 0, 78, 0
2, 68577, Note_on_c, 0, 72, 0
2, 68590, Note_on_c, 0, 78, 33
2, 68591, Note_on_c, 0, 84, 28
2, 68618, Note_on_c, 0, 81, 35
2, 68651, Note_on_c, 0, 84, 0
2, 68683, Note_on_c, 0, 81, 0
2, 68685, Note_on_c, 0, 72, 34
2, 68711, Note_on_c, 0, 78, 0
2, 68783, Note_on_c, 0, 72, 0
2, 68804, Note_on_c, 0, 78, 30
2, 68810, Note_on_c, 0, 84, 35
2, 68845, Note_on_c, 0, 81, 25
2, 68886, Note_on_c, 0, 72, 34
2, 68899, Note_on_c, 0, 81, 0
2, 68902, Note_on_c, 0, 84, 0
2, 68959, Note_on_c, 0, 78, 0
2, 68977, Note_on_c, 0, 72, 0
2, 69142, Note_on_c, 0, 61, 46
2, 69150, Note_on_c, 0, 65, 52
2, 69155, Note_on_c, 0, 60, 54
2, 69161, Note_on_c, 0, 56, 46
2, 69162, Note_on_c, 0, 84, 72
2, 69163, Note_on_c, 0, 72, 63
2, 69172, Note_on_c, 0, 77, 55
2, 69174, Note_on_c, 0, 80, 38
2, 69264, Note_on_c, 0, 72, 0
2, 69298, Note_on_c, 0, 77, 0
2, 69319, Note_on_c, 0, 65, 0
2, 69328, Note_on_c, 0, 84, 0
2, 69335, Note_on_c, 0, 80, 0
2, 69348, Note_on_c, 0, 61, 0
2, 69360, Note_on_c, 0, 60, 0
2, 69378, Note_on_c, 0, 56, 0
2, 69766, Note_on_c, 0, 61, 62
2, 69775, Note_on_c, 0, 65, 81
2, 69777, Note_on_c, 0, 85, 76
2, 69779, Note_on_c, 0, 87, 80
2, 69780, Note_on_c, 0, 56, 80
2, 69781, Note_on_c, 0, 75, 91
2, 69784, Note_on_c, 0, 60, 79
2, 69792, Note_on_c, 0, 80, 67
2, 69807, Control_c, 0, 64, 127
2, 69946, Note_on_c, 0, 85, 0
2, 70008, Note_on_c, 0, 56, 0
2, 70021, Note_on_c, 0, 65, 0
2, 70043, Note_on_c, 0, 87, 0
2, 70047, Note_on_c, 0, 75, 0
2, 70057, Note_on_c, 0, 80, 0
2, 70068, Note_on_c, 0, 60, 0
2, 70069, Note_on_c, 0, 61, 0
2, 70154, Control_c, 0, 64, 0
2, 70155, Note_on_c, 0, 56, 63
2, 70157, Note_on_c, 0, 65, 57
2, 70158, Note_on_c, 0, 85, 63
2, 70159, Note_on_c, 0, 61, 48
2, 70161, Note_on_c, 0, 73, 53
2, 70168, Note_on_c, 0, 60, 65
2, 70169, Note_on_c, 0, 80, 57
2, 70314, Control_c, 0, 64, 127
2, 70421, Note_on_c, 0, 85, 0
2, 70423, Note_on_c, 0, 80, 0
2, 70524, Note_on_c, 0, 73, 0
2, 70536, Note_on_c, 0, 60, 0
2, 70750, Note_on_c, 0, 56, 0
2, 70798, Note_on_c, 0, 65, 0
2, 70907, Note_on_c, 0, 61, 0
2, 71021, Control_c, 0, 64, 0
2, 71040, Note_on_c, 0, 61, 36
2, 71055, Note_on_c, 0, 82, 52
2, 71063, Note_on_c, 0, 65, 42
2, 71064, Note_on_c, 0, 55, 44
2, 71070, Note_on_c, 0, 70, 36
2, 71075, Note_on_c, 0, 75, 40
2, 71302, Control_c, 0, 64, 127
2, 71479, Note_on_c, 0, 82, 0
2, 71500, Note_on_c, 0, 75, 0
2, 71547, Note_on_c, 0, 70, 0
2, 71596, Note_on_c, 0, 65, 0
2, 71751, Note_on_c, 0, 61, 0
2, 72017, Note_on_c, 0, 67, 39
2, 72019, Note_on_c, 0, 61, 37
2, 72026, Note_on_c, 0, 76, 35
2, 72031, Control_c, 0, 64, 0
2, 72038, Note_on_c, 0, 71, 44
2, 72044, Note_on_c, 0, 73, 30
2, 72045, Note_on_c, 0, 64, 36
2, 72289, Control_c, 0, 64, 127
2, 72561, Note_on_c, 0, 64, 0
2, 72572, Note_on_c, 0, 55, 0
2, 72583, Note_on_c, 0, 73, 0
2, 72680, Note_on_c, 0, 67, 0
2, 72728, Note_on_c, 0, 61, 0
2, 72733, Note_on_c, 0, 71, 0
2, 72746, Note_on_c, 0, 76, 0
2, 72929, Control_c, 0, 64, 0
2, 72956, Note_on_c, 0, 58, 42
2, 72964, Note_on_c, 0, 63, 49
2, 72979, Note_on_c, 0, 60, 44
2, 72993, Note_on_c, 0, 70, 61
2, 73208, Note_on_c, 0, 70, 0
2, 73287, Note_on_c, 0, 63, 0
2, 73299, Note_on_c, 0, 72, 37
2, 73344, Note_on_c, 0, 70, 42
2, 73403, Note_on_c, 0, 72, 0
2, 73482, Note_on_c, 0, 69, 31
2, 73502, Note_on_c, 0, 70, 0
2, 73525, Note_on_c, 0, 53, 1
2, 73696, Note_on_c, 0, 69, 0
2, 73758, Note_on_c, 0, 60, 0
2, 73768, Note_on_c, 0, 70, 57
2, 73908, Note_on_c, 0, 70, 0
2, 73959, Note_on_c, 0, 63, 45
2, 73962, Note_on_c, 0, 72, 71
2, 73998, Note_on_c, 0, 60, 34
2, 74075, Control_c, 0, 64, 127
2, 74101, Note_on_c, 0, 72, 0
2, 74143, Control_c, 0, 64, 0
2, 74166, Control_c, 0, 64, 127
2, 74238, Note_on_c, 0, 63, 0
2, 74275, Note_on_c, 0, 68, 59
2, 74413, Control_c, 0, 64, 0
2, 74447, Note_on_c, 0, 68, 0
2, 74504, Note_on_c, 0, 65, 40
2, 74536, Note_on_c, 0, 60, 0
2, 74641, Note_on_c, 0, 58, 0
2, 74661, Note_on_c, 0, 65, 0
2, 74694, Note_on_c, 0, 53, 0
2, 74716, Control_c, 0, 64, 127
2, 74770, Note_on_c, 0, 63, 42
2, 74862, Control_c, 0, 64, 0
2, 74910, Note_on_c, 0, 63, 0
2, 74958, Note_on_c, 0, 67, 66
2, 75257, Note_on_c, 0, 58, 65
2, 75358, Note_on_c, 0, 55, 27
2, 75436, Note_on_c, 0, 55, 0
2, 75535, Control_c, 0, 64, 127
2, 75563, Note_on_c, 0, 67, 0
2, 75659, Note_on_c, 0, 58, 0
2, 75792, Control_c, 0, 64, 0
2, 75824, Note_on_c, 0, 59, 63
2, 75846, Note_on_c, 0, 56, 42
2, 76039, Note_on_c, 0, 56, 0
2, 76100, Note_on_c, 0, 59, 0
2, 76155, Note_on_c, 0, 56, 46
2, 76160, Note_on_c, 0, 59, 28
2, 76164, Note_on_c, 0, 65, 44
2, 76178, Note_on_c, 0, 53, 36
2, 76187, Note_on_c, 0, 62, 60
2, 76433, Control_c, 0, 64, 127
2, 76534, Note_on_c, 0, 62, 0
2, 76600, Note_on_c, 0, 56, 0
2, 76617, Note_on_c, 0, 59, 0
2, 76671, Note_on_c, 0, 53, 0
2, 76689, Control_c, 0, 64, 0
2, 76695, Note_on_c, 0, 65, 0
2, 76764, Note_on_c, 0, 61, 59
2, 76767, Note_on_c, 0, 56, 52
2, 76780, Note_on_c, 0, 46, 47
2, 76806, Note_on_c, 0, 56, 0
2, 76870, Note_on_c, 0, 61, 0
2, 76879, Control_c, 0, 64, 127
2, 76900, Note_on_c, 0, 46, 0
2, 77387, Note_on_c, 0, 84, 80
2, 77392, Note_on_c, 0, 72, 81
2, 77394, Note_on_c, 0, 60, 70
2, 77395, Note_on_c, 0, 56, 74
2, 77405, Note_on_c, 0, 61, 60
2, 77406, Note_on_c, 0, 65, 70
2, 77422, Note_on_c, 0, 83, 36
2, 77472, Note_on_c, 0, 83, 0
2, 77555, Note_on_c, 0, 72, 0
2, 77563, Note_on_c, 0, 84, 0
2, 77612, Note_on_c, 0, 65, 0
2, 77613, Note_on_c, 0, 56, 0
2, 77638, Note_on_c, 0, 60, 0
2, 77658, Note_on_c, 0, 61, 0
2, 77713, Control_c, 0, 64, 0
2, 77720, Note_on_c, 0, 73, 57
2, 77721, Note_on_c, 0, 65, 50
2, 77722, Note_on_c, 0, 56, 59
2, 77724, Note_on_c, 0, 85, 74
2, 77732, Note_on_c, 0, 60, 55
2, 77733, Note_on_c, 0, 61, 57
2, 77923, Note_on_c, 0, 73, 0
2, 77929, Note_on_c, 0, 85, 0
2, 77948, Note_on_c, 0, 65, 0
2, 77950, Note_on_c, 0, 56, 0
2, 77961, Note_on_c, 0, 60, 0
2, 77979, Note_on_c, 0, 61, 0
2, 78026, Note_on_c, 0, 56, 49
2, 78037, Note_on_c, 0, 60, 36
2, 78038, Note_on_c, 0, 61, 39
2, 78044, Note_on_c, 0, 65, 58
2, 78050, Note_on_c, 0, 75, 50
2, 78057, Note_on_c, 0, 87, 56
2, 78197, Control_c, 0, 64, 127
2, 78385, Note_on_c, 0, 60, 0
2, 78386, Note_on_c, 0, 65, 0
2, 78428, Note_on_c, 0, 75, 0
2, 78430, Note_on_c, 0, 61, 0
2, 78474, Note_on_c, 0, 87, 0
2, 78517, Note_on_c, 0, 56, 0
2, 78625, Control_c, 0, 64, 0
2, 78656, Note_on_c, 0, 61, 44
2, 78680, Note_on_c, 0, 55, 51
2, 78684, Note_on_c, 0, 64, 45
2, 78688, Note_on_c, 0, 76, 50
2, 78690, Note_on_c, 0, 88, 49
2, 78703, Note_on_c, 0, 82, 37
2, 78710, Note_on_c, 0, 85, 33
2, 78815, Control_c, 0, 64, 127
2, 78945, Note_on_c, 0, 76, 0
2, 78997, Note_on_c, 0, 85, 0
2, 79009, Note_on_c, 0, 82, 0
2, 79016, Note_on_c, 0, 88, 0
2, 79047, Note_on_c, 0, 64, 0
2, 79057, Note_on_c, 0, 55, 0
2, 79078, Note_on_c, 0, 61, 0
2, 79322, Note_on_c, 0, 61, 75
2, 79326, Note_on_c, 0, 91, 75
2, 79328, Note_on_c, 0, 86, 75
2, 79332, Note_on_c, 0, 79, 71
2, 79333, Note_on_c, 0, 55, 74
2, 79335, Note_on_c, 0, 64, 72
2, 79453, Note_on_c, 0, 79, 0
2, 79494, Note_on_c, 0, 86, 0
2, 79507, Note_on_c, 0, 64, 0
2, 79510, Note_on_c, 0, 91, 0
2, 79523, Note_on_c, 0, 55, 0
2, 79560, Note_on_c, 0, 61, 0
2, 79681, Control_c, 0, 64, 0
2, 79687, Note_on_c, 0, 94, 81
2, 79688, Note_on_c, 0, 61, 78
2, 79691, Note_on_c, 0, 82, 86
2, 79692, Note_on_c, 0, 55, 80
2, 79693, Note_on_c, 0, 64, 83
2, 79725, Note_on_c, 0, 87, 42
2, 79900, Note_on_c, 0, 87, 0
2, 79916, Note_on_c, 0, 82, 0
2, 79918, Note_on_c, 0, 94, 0
2, 79938, Control_c, 0, 64, 127
2, 79948, Note_on_c, 0, 55, 0
2, 79962, Note_on_c, 0, 64, 0
2, 80008, Note_on_c, 0, 61, 0
2, 80029, Note_on_c, 0, 55, 59
2, 80031, Note_on_c, 0, 94, 68
2, 80036, Note_on_c, 0, 82, 65
2, 80041, Note_on_c, 0, 61, 26
2, 80046, Note_on_c, 0, 64, 57
2, 80127, Note_on_c, 0, 94, 0
2, 80133, Note_on_c, 0, 82, 0
2, 80180, Note_on_c, 0, 64, 0
2, 80203, Note_on_c, 0, 55, 0
2, 80240, Note_on_c, 0, 61, 0
2, 80319, Control_c, 0, 64, 0
2, 80332, Note_on_c, 0, 61, 53
2, 80340, Note_on_c, 0, 55, 54
2, 80355, Note_on_c, 0, 87, 56
2, 80356, Note_on_c, 0, 75, 56
2, 80357, Note_on_c, 0, 64, 49
2, 80398, Control_c, 0, 64, 127
2, 80465, Control_c, 0, 64, 0
2, 80481, Note_on_c, 0, 75, 0
2, 80492, Note_on_c, 0, 87, 0
2, 80532, Control_c, 0, 64, 127
2, 80677, Note_on_c, 0, 75, 45
2, 80681, Note_on_c, 0, 87, 52
2, 80707, Note_on_c, 0, 64, 0
2, 80741, Note_on_c, 0, 55, 0
2, 80750, Note_on_c, 0, 75, 0
2, 80778, Note_on_c, 0, 87, 0
2, 80857, Note_on_c, 0, 61, 0
2, 80969, Control_c, 0, 64, 0
2, 80990, Note_on_c, 0, 63, 64
2, 80992, Note_on_c, 0, 60, 62
2, 80996, Note_on_c, 0, 58, 51
2, 81010, Note_on_c, 0, 91, 65
2, 81011, Note_on_c, 0, 53, 44
2, 81013, Note_on_c, 0, 79, 70
2, 81031, Note_on_c, 0, 89, 50
2, 81034, Note_on_c, 0, 90, 37
2, 81079, Note_on_c, 0, 89, 0
2, 81120, Note_on_c, 0, 91, 0
2, 81143, Note_on_c, 0, 79, 0
2, 81165, Note_on_c, 0, 90, 0
2, 81250, Control_c, 0, 64, 127
2, 81261, Note_on_c, 0, 60, 0
2, 81318, Note_on_c, 0, 60, 18
2, 81327, Note_on_c, 0, 91, 58
2, 81330, Note_on_c, 0, 89, 63
2, 81333, Note_on_c, 0, 79, 57
2, 81382, Note_on_c, 0, 91, 0
2, 81414, Note_on_c, 0, 79, 0
2, 81424, Note_on_c, 0, 89, 0
2, 81451, Note_on_c, 0, 63, 0
2, 81490, Note_on_c, 0, 53, 0
2, 81521, Note_on_c, 0, 58, 0
2, 81531, Control_c, 0, 64, 0
2, 81532, Note_on_c, 0, 60, 0
2, 81632, Note_on_c, 0, 63, 48
2, 81637, Note_on_c, 0, 72, 56
2, 81641, Note_on_c, 0, 84, 40
2, 81647, Note_on_c, 0, 60, 35
2, 81654, Note_on_c, 0, 58, 37
2, 81684, Note_on_c, 0, 53, 20
2, 81690, Note_on_c, 0, 82, 20
2, 81734, Note_on_c, 0, 84, 0
2, 81769, Note_on_c, 0, 72, 0
2, 81824, Control_c, 0, 64, 127
2, 81830, Note_on_c, 0, 63, 0
2, 81852, Note_on_c, 0, 60, 0
2, 81859, Note_on_c, 0, 58, 0
2, 81863, Note_on_c, 0, 82, 0
2, 81943, Note_on_c, 0, 63, 45
2, 81983, Note_on_c, 0, 58, 23
2, 81996, Note_on_c, 0, 60, 29
2, 82092, Note_on_c, 0, 63, 0
2, 82134, Note_on_c, 0, 60, 0
2, 82217, Control_c, 0, 64, 0
2, 82256, Note_on_c, 0, 63, 62
2, 82259, Note_on_c, 0, 87, 77
2, 82261, Note_on_c, 0, 75, 81
2, 82266, Note_on_c, 0, 60, 38
2, 82419, Note_on_c, 0, 63, 0
2, 82437, Note_on_c, 0, 75, 0
2, 82441, Note_on_c, 0, 87, 0
2, 82471, Note_on_c, 0, 60, 0
2, 82530, Control_c, 0, 64, 127
2, 82565, Note_on_c, 0, 63, 46
2, 82574, Note_on_c, 0, 75, 58
2, 82576, Note_on_c, 0, 87, 64
2, 82597, Control_c, 0, 64, 0
2, 82602, Note_on_c, 0, 60, 32
2, 82624, Note_on_c, 0, 53, 0
2, 82653, Note_on_c, 0, 87, 0
2, 82667, Note_on_c, 0, 75, 0
2, 82676, Note_on_c, 0, 60, 0
2, 82686, Note_on_c, 0, 63, 0
2, 82823, Note_on_c, 0, 58, 0
2, 82870, Note_on_c, 0, 60, 26
2, 82872, Note_on_c, 0, 63, 60
2, 82885, Note_on_c, 0, 54, 55
2, 82898, Note_on_c, 0, 69, 64
2, 82902, Note_on_c, 0, 81, 57
2, 83002, Control_c, 0, 64, 127
2, 83083, Note_on_c, 0, 81, 0
2, 83089, Note_on_c, 0, 69, 0
2, 83141, Note_on_c, 0, 63, 0
2, 83195, Note_on_c, 0, 63, 28
2, 83199, Note_on_c, 0, 81, 47
2, 83205, Note_on_c, 0, 69, 48
2, 83285, Note_on_c, 0, 69, 0
2, 83344, Note_on_c, 0, 81, 0
2, 83350, Note_on_c, 0, 63, 0
2, 83373, Note_on_c, 0, 54, 0
2, 83384, Control_c, 0, 64, 0
2, 83421, Note_on_c, 0, 60, 0
2, 83494, Note_on_c, 0, 60, 36
2, 83496, Note_on_c, 0, 63, 63
2, 83499, Note_on_c, 0, 54, 57
2, 83509, Note_on_c, 0, 84, 82
2, 83511, Note_on_c, 0, 72, 74
2, 83608, Control_c, 0, 64, 127
2, 83708, Note_on_c, 0, 84, 0
2, 83738, Note_on_c, 0, 63, 0
2, 83756, Note_on_c, 0, 72, 0
2, 83765, Note_on_c, 0, 54, 0
2, 83818, Note_on_c, 0, 84, 53
2, 83819, Note_on_c, 0, 72, 47
2, 83828, Note_on_c, 0, 63, 38
2, 83830, Note_on_c, 0, 54, 36
2, 83852, Note_on_c, 0, 83, 30
2, 83908, Note_on_c, 0, 84, 0
2, 83912, Note_on_c, 0, 83, 0
2, 83919, Note_on_c, 0, 72, 0
2, 83946, Note_on_c, 0, 63, 0
2, 84002, Note_on_c, 0, 54, 0
2, 84062, Note_on_c, 0, 60, 0
2, 84144, Note_on_c, 0, 54, 53
2, 84145, Note_on_c, 0, 78, 53
2, 84147, Note_on_c, 0, 66, 64
2, 84160, Control_c, 0, 64, 0
2, 84161, Note_on_c, 0, 63, 51
2, 84170, Note_on_c, 0, 60, 28
2, 84262, Note_on_c, 0, 63, 0
2, 84299, Note_on_c, 0, 66, 0
2, 84312, Note_on_c, 0, 78, 0
2, 84346, Note_on_c, 0, 60, 0
2, 84441, Note_on_c, 0, 78, 50
2, 84449, Note_on_c, 0, 63, 50
2, 84458, Note_on_c, 0, 66, 45
2, 84495, Control_c, 0, 64, 127
2, 84503, Note_on_c, 0, 66, 0
2, 84554, Note_on_c, 0, 63, 0
2, 84554, Note_on_c, 0, 54, 0
2, 84558, Note_on_c, 0, 78, 0
2, 84675, Control_c, 0, 64, 0
2, 84763, Note_on_c, 0, 61, 42
2, 84767, Note_on_c, 0, 65, 74
2, 84775, Note_on_c, 0, 56, 73
2, 84779, Note_on_c, 0, 80, 79
2, 84783, Note_on_c, 0, 68, 82
2, 84786, Note_on_c, 0, 60, 60
2, 84787, Note_on_c, 0, 75, 74
2, 84953, Note_on_c, 0, 80, 0
2, 84965, Note_on_c, 0, 56, 0
2, 84972, Note_on_c, 0, 68, 0
2, 84982, Control_c, 0, 64, 127
2, 84983, Note_on_c, 0, 65, 0
2, 85011, Note_on_c, 0, 75, 0
2, 85012, Note_on_c, 0, 60, 0
2, 85025, Note_on_c, 0, 61, 0
2, 85072, Note_on_c, 0, 80, 53
2, 85092, Note_on_c, 0, 65, 54
2, 85095, Note_on_c, 0, 68, 55
2, 85106, Note_on_c, 0, 56, 44
2, 85108, Note_on_c, 0, 61, 34
2, 85137, Note_on_c, 0, 60, 35
2, 85187, Note_on_c, 0, 80, 0
2, 85197, Note_on_c, 0, 68, 0
2, 85207, Note_on_c, 0, 65, 0
2, 85237, Note_on_c, 0, 60, 0
2, 85243, Note_on_c, 0, 56, 0
2, 85280, Note_on_c, 0, 61, 0
2, 85352, Control_c, 0, 64, 0
2, 85419, Note_on_c, 0, 77, 53
2, 85420, Note_on_c, 0, 56, 49
2, 85421, Note_on_c, 0, 61, 34
2, 85426, Note_on_c, 0, 65, 50
2, 85430, Note_on_c, 0, 72, 51
2, 85436, Note_on_c, 0, 60, 46
2, 85598, Note_on_c, 0, 72, 0
2, 85604, Note_on_c, 0, 65, 0
2, 85618, Note_on_c, 0, 77, 0
2, 85619, Note_on_c, 0, 60, 0
2, 85630, Note_on_c, 0, 61, 0
2, 85651, Note_on_c, 0, 56, 0
2, 85676, Control_c, 0, 64, 127
2, 85727, Note_on_c, 0, 77, 37
2, 85730, Note_on_c, 0, 65, 45
2, 85736, Note_on_c, 0, 72, 45
2, 85743, Note_on_c, 0, 56, 27
2, 85756, Note_on_c, 0, 61, 23
2, 85831, Note_on_c, 0, 77, 0
2, 85870, Note_on_c, 0, 56, 0
2, 85873, Note_on_c, 0, 65, 0
2, 85877, Note_on_c, 0, 72, 0
2, 85882, Note_on_c, 0, 61, 0
2, 85935, Control_c, 0, 64, 0
2, 86053, Note_on_c, 0, 76, 40
2, 86054, Note_on_c, 0, 71, 41
2, 86075, Note_on_c, 0, 56, 45
2, 86092, Note_on_c, 0, 61, 32
2, 86104, Control_c, 0, 64, 127
2, 86162, Note_on_c, 0, 76, 0
2, 86212, Note_on_c, 0, 71, 0
2, 86224, Note_on_c, 0, 61, 0
2, 86282, Note_on_c, 0, 56, 0
2, 86402, Note_on_c, 0, 75, 44
2, 86421, Note_on_c, 0, 55, 40
2, 86427, Control_c, 0, 64, 0
2, 86428, Note_on_c, 0, 63, 36
2, 86433, Note_on_c, 0, 70, 47
2, 86698, Control_c, 0, 64, 127
2, 86898, Note_on_c, 0, 70, 0
2, 86940, Note_on_c, 0, 63, 0
2, 87004, Note_on_c, 0, 75, 0
2, 87265, Note_on_c, 0, 55, 0
2, 87900, Control_c, 0, 64, 0
2, 88020, Note_on_c, 0, 60, 53
2, 88026, Note_on_c, 0, 64, 55
2, 88030, Note_on_c, 0, 45, 42
2, 88048, Note_on_c, 0, 55, 36
2, 88103, Control_c, 0, 64, 127
2, 88156, Note_on_c, 0, 64, 0
2, 88211, Note_on_c, 0, 60, 0
2, 88212, Note_on_c, 0, 55, 0
2, 88214, Note_on_c, 0, 45, 0
2, 88400, Note_on_c, 0, 63, 45
2, 88407, Note_on_c, 0, 55, 40
2, 88428, Control_c, 0, 64, 0
2, 88431, Note_on_c, 0, 51, 34
2, 88440, Note_on_c, 0, 60, 24
2, 88443, Note_on_c, 0, 58, 36
2, 88452, Note_on_c, 0, 44, 29
2, 88698, Control_c, 0, 64, 127
2, 88817, Note_on_c, 0, 55, 0
2, 88908, Note_on_c, 0, 63, 0
2, 88909, Note_on_c, 0, 44, 0
2, 88916, Note_on_c, 0, 60, 0
2, 88926, Note_on_c, 0, 58, 0
2, 88950, Note_on_c, 0, 51, 0
2, 89405, Control_c, 0, 64, 0
2, 89408, Note_on_c, 0, 63, 45
2, 89415, Note_on_c, 0, 70, 74
2, 89423, Note_on_c, 0, 60, 43
2, 89464, Note_on_c, 0, 63, 0
2, 89466, Note_on_c, 0, 58, 19
2, 89551, Note_on_c, 0, 60, 0
2, 89590, Note_on_c, 0, 70, 0
2, 89613, Note_on_c, 0, 72, 44
2, 89621, Note_on_c, 0, 58, 0
2, 89684, Note_on_c, 0, 70, 35
2, 89744, Note_on_c, 0, 72, 0
2, 89819, Note_on_c, 0, 69, 44
2, 89895, Note_on_c, 0, 70, 0
2, 90019, Note_on_c, 0, 69, 0
2, 90084, Note_on_c, 0, 70, 59
2, 90110, Control_c, 0, 64, 127
2, 90261, Note_on_c, 0, 70, 0
2, 90278, Control_c, 0, 64, 0
2, 90290, Note_on_c, 0, 63, 42
2, 90309, Note_on_c, 0, 60, 37
2, 90318, Note_on_c, 0, 56, 48
2, 90319, Note_on_c, 0, 72, 53
2, 90320, Note_on_c, 0, 53, 20
2, 90567, Note_on_c, 0, 72, 0
2, 90593, Note_on_c, 0, 67, 53
2, 90786, Control_c, 0, 64, 127
2, 91009, Note_on_c, 0, 60, 0
2, 91030, Note_on_c, 0, 63, 0
2, 91068, Note_on_c, 0, 56, 0
2, 91200, Control_c, 0, 64, 0
2, 91208, Note_on_c, 0, 67, 0
2, 91212, Note_on_c, 0, 63, 49
2, 91217, Note_on_c, 0, 68, 56
2, 91248, Note_on_c, 0, 56, 37
2, 91249, Note_on_c, 0, 60, 39
2, 91369, Control_c, 0, 64, 127
2, 91484, Note_on_c, 0, 53, 0
2, 91534, Note_on_c, 0, 68, 0
2, 91590, Note_on_c, 0, 63, 0
2, 91840, Control_c, 0, 64, 0
2, 91884, Control_c, 0, 64, 127
2, 91886, Note_on_c, 0, 53, 56
2, 91902, Note_on_c, 0, 60, 0
2, 91927, Note_on_c, 0, 56, 0
2, 92016, Note_on_c, 0, 53, 0
2, 92176, Control_c, 0, 64, 0
2, 92206, Note_on_c, 0, 55, 66
2, 92207, Note_on_c, 0, 53, 67
2, 92208, Note_on_c, 0, 77, 88
2, 92210, Note_on_c, 0, 84, 92
2, 92212, Note_on_c, 0, 80, 72
2, 92213, Note_on_c, 0, 72, 85
2, 92215, Note_on_c, 0, 62, 81
2, 92216, Note_on_c, 0, 58, 74
2, 92433, Control_c, 0, 64, 127
2, 92645, Note_on_c, 0, 72, 0
2, 92653, Note_on_c, 0, 62, 0
2, 92658, Note_on_c, 0, 53, 0
2, 92662, Note_on_c, 0, 84, 0
2, 92675, Note_on_c, 0, 55, 0
2, 92700, Note_on_c, 0, 77, 0
2, 92729, Note_on_c, 0, 58, 0
2, 92745, Note_on_c, 0, 80, 0
2, 92829, Note_on_c, 0, 80, 48
2, 92839, Note_on_c, 0, 58, 56
2, 92840, Note_on_c, 0, 77, 67
2, 92843, Note_on_c, 0, 86, 61
2, 92849, Note_on_c, 0, 62, 60
2, 92852, Note_on_c, 0, 84, 71
2, 92853, Note_on_c, 0, 53, 51
2, 92855, Note_on_c, 0, 55, 55
2, 92863, Note_on_c, 0, 74, 55
2, 93046, Note_on_c, 0, 84, 0
2, 93048, Note_on_c, 0, 86, 0
2, 93081, Note_on_c, 0, 74, 0
2, 93100, Note_on_c, 0, 77, 0
2, 93104, Note_on_c, 0, 62, 0
2, 93108, Note_on_c, 0, 55, 0
2, 93111, Note_on_c, 0, 53, 0
2, 93146, Note_on_c, 0, 58, 0
2, 93149, Note_on_c, 0, 80, 0
2, 93161, Control_c, 0, 64, 0
2, 93210, Note_on_c, 0, 84, 47
2, 93215, Note_on_c, 0, 72, 47
2, 93219, Note_on_c, 0, 62, 45
2, 93220, Note_on_c, 0, 58, 51
2, 93224, Note_on_c, 0, 80, 34
2, 93229, Note_on_c, 0, 53, 51
2, 93233, Note_on_c, 0, 77, 46
2, 93239, Note_on_c, 0, 55, 39
2, 93386, Control_c, 0, 64, 127
2, 93635, Note_on_c, 0, 72, 0
2, 93647, Note_on_c, 0, 77, 0
2, 93670, Note_on_c, 0, 62, 0
2, 93695, Note_on_c, 0, 53, 0
2, 93703, Note_on_c, 0, 58, 0
2, 93709, Note_on_c, 0, 55, 0
2, 93809, Note_on_c, 0, 80, 0
2, 93863, Note_on_c, 0, 53, 35
2, 93886, Note_on_c, 0, 58, 25
2, 93905, Note_on_c, 0, 55, 26
2, 93943, Note_on_c, 0, 84, 0
2, 93958, Note_on_c, 0, 55, 0
2, 93971, Note_on_c, 0, 58, 0
2, 93990, Note_on_c, 0, 53, 0
2, 94104, Control_c, 0, 64, 0
2, 94176, Note_on_c, 0, 84, 62
2, 94187, Note_on_c, 0, 62, 46
2, 94193, Note_on_c, 0, 58, 34
2, 94198, Note_on_c, 0, 52, 34
2, 94207, Note_on_c, 0, 77, 43
2, 94219, Note_on_c, 0, 72, 26
2, 94342, Control_c, 0, 64, 127
2, 94367, Note_on_c, 0, 72, 0
2, 94495, Note_on_c, 0, 77, 0
2, 94583, Note_on_c, 0, 84, 0
2, 94748, Note_on_c, 0, 62, 0
2, 94755, Note_on_c, 0, 58, 0
2, 95111, Note_on_c, 0, 58, 36
2, 95127, Note_on_c, 0, 62, 30
2, 95148, Control_c, 0, 64, 0
2, 95406, Note_on_c, 0, 98, 87
2, 95550, Note_on_c, 0, 52, 0
2, 95569, Note_on_c, 0, 98, 0
2, 95604, Note_on_c, 0, 58, 0
2, 95643, Control_c, 0, 64, 127
2, 95739, Note_on_c, 0, 96, 67
2, 95740, Note_on_c, 0, 62, 0
2, 95741, Note_on_c, 0, 98, 74
2, 95822, Note_on_c, 0, 98, 0
2, 95870, Note_on_c, 0, 96, 0
2, 95935, Control_c, 0, 64, 0
2, 95949, Note_on_c, 0, 93, 71
2, 96006, Note_on_c, 0, 60, 27
2, 96006, Note_on_c, 0, 62, 22
2, 96037, Note_on_c, 0, 53, 22
2, 96048, Note_on_c, 0, 57, 22
2, 96131, Note_on_c, 0, 93, 0
2, 96177, Note_on_c, 0, 89, 30
2, 96283, Note_on_c, 0, 89, 0
2, 96356, Note_on_c, 0, 94, 76
2, 96524, Note_on_c, 0, 94, 0
2, 96731, Note_on_c, 0, 62, 0
2, 96739, Note_on_c, 0, 93, 85
2, 96768, Note_on_c, 0, 60, 0
2, 96992, Note_on_c, 0, 89, 49
2, 96993, Note_on_c, 0, 93, 0
2, 97008, Note_on_c, 0, 88, 52
2, 97014, Note_on_c, 0, 62, 32
2, 97015, Note_on_c, 0, 60, 33
2, 97065, Note_on_c, 0, 88, 0
2, 97107, Note_on_c, 0, 89, 0
2, 97196, Note_on_c, 0, 84, 37
2, 97338, Note_on_c, 0, 84, 0
2, 97438, Note_on_c, 0, 81, 64
2, 97584, Note_on_c, 0, 81, 0
2, 97760, Note_on_c, 0, 62, 0
2, 97782, Note_on_c, 0, 60, 0
2, 97821, Note_on_c, 0, 57, 0
2, 97889, Note_on_c, 0, 76, 39
2, 97898, Note_on_c, 0, 53, 0
2, 97999, Note_on_c, 0, 76, 0
2, 98045, Note_on_c, 0, 60, 36
2, 98050, Note_on_c, 0, 57, 36
2, 98064, Note_on_c, 0, 50, 36
2, 98067, Note_on_c, 0, 53, 36
2, 98076, Note_on_c, 0, 77, 44
2, 98082, Note_on_c, 0, 79, 40
2, 98155, Note_on_c, 0, 79, 0
2, 98275, Note_on_c, 0, 77, 0
2, 98540, Note_on_c, 0, 77, 66
2, 98685, Note_on_c, 0, 60, 0
2, 98690, Note_on_c, 0, 57, 0
2, 98729, Note_on_c, 0, 77, 0
2, 98777, Note_on_c, 0, 53, 0
2, 98808, Note_on_c, 0, 74, 73
2, 98969, Note_on_c, 0, 74, 0
2, 99009, Note_on_c, 0, 69, 54
2, 99032, Note_on_c, 0, 57, 31
2, 99051, Note_on_c, 0, 50, 0
2, 99122, Note_on_c, 0, 57, 0
2, 99189, Note_on_c, 0, 69, 0
2, 99273, Note_on_c, 0, 67, 66
2, 99397, Note_on_c, 0, 67, 0
2, 99757, Note_on_c, 0, 62, 44
2, 99812, Note_on_c, 0, 62, 0
2, 99926, Note_on_c, 0, 62, 34
2, 99930, Note_on_c, 0, 67, 63
2, 99932, Note_on_c, 0, 58, 48
2, 99951, Note_on_c, 0, 53, 18
2, 99961, Note_on_c, 0, 57, 36
2, 100427, Note_on_c, 0, 67, 0
2, 100464, Note_on_c, 0, 58, 0
2, 100470, Note_on_c, 0, 62, 0
2, 100477, Note_on_c, 0, 69, 78
2, 100515, Note_on_c, 0, 67, 31
2, 100562, Note_on_c, 0, 67, 0
2, 100700, Note_on_c, 0, 69, 0
2, 100730, Note_on_c, 0, 53, 0
2, 100784, Note_on_c, 0, 58, 42
2, 100793, Note_on_c, 0, 62, 28
2, 100803, Note_on_c, 0, 70, 74
2, 100828, Control_c, 0, 64, 127
2, 100840, Note_on_c, 0, 62, 0
2, 100873, Note_on_c, 0, 57, 0
2, 100895, Control_c, 0, 64, 0
2, 100896, Note_on_c, 0, 58, 0
2, 100981, Note_on_c, 0, 70, 0
2, 101072, Note_on_c, 0, 69, 49
2, 101121, Note_on_c, 0, 69, 0
2, 101386, Note_on_c, 0, 61, 51
2, 101391, Note_on_c, 0, 64, 47
2, 101392, Note_on_c, 0, 67, 48
2, 101397, Note_on_c, 0, 58, 46
2, 101417, Note_on_c, 0, 57, 47
2, 101782, Control_c, 0, 64, 127
2, 101946, Note_on_c, 0, 58, 0
2, 102082, Note_on_c, 0, 61, 0
2, 102099, Control_c, 0, 64, 0
2, 102100, Note_on_c, 0, 64, 0
2, 102129, Note_on_c, 0, 48, 58
2, 102134, Note_on_c, 0, 67, 0
2, 102183, Note_on_c, 0, 57, 0
2, 102283, Note_on_c, 0, 48, 0
2, 102468, Note_on_c, 0, 55, 47
2, 102515, Note_on_c, 0, 55, 0
2, 102777, Note_on_c, 0, 73, 58
2, 102788, Note_on_c, 0, 68, 59
2, 102789, Note_on_c, 0, 70, 58
2, 102790, Note_on_c, 0, 64, 71
2, 102799, Note_on_c, 0, 58, 65
2, 103005, Note_on_c, 0, 64, 0
2, 103011, Note_on_c, 0, 58, 0
2, 103022, Note_on_c, 0, 73, 0
2, 103023, Note_on_c, 0, 68, 0
2, 103047, Note_on_c, 0, 70, 0
2, 103120, Note_on_c, 0, 56, 44
2, 103310, Note_on_c, 0, 56, 0
2, 103416, Note_on_c, 0, 72, 54
2, 103418, Note_on_c, 0, 67, 60
2, 103423, Note_on_c, 0, 62, 58
2, 103435, Note_on_c, 0, 57, 46
2, 103591, Control_c, 0, 64, 127
2, 103594, Note_on_c, 0, 62, 0
2, 103701, Note_on_c, 0, 57, 0
2, 103739, Note_on_c, 0, 67, 0
2, 103762, Note_on_c, 0, 72, 0
2, 105005, Control_c, 0, 64, 0
2, 105041, Note_on_c, 0, 61, 74
2, 105043, Note_on_c, 0, 65, 81
2, 105044, Note_on_c, 0, 60, 77
2, 105054, Note_on_c, 0, 96, 84
2, 105055, Note_on_c, 0, 55, 73
2, 105057, Note_on_c, 0, 84, 95
2, 105058, Note_on_c, 0, 89, 82
2, 105060, Note_on_c, 0, 93, 83
2, 105074, Note_on_c, 0, 58, 40
2, 105117, Note_on_c, 0, 58, 0
2, 105165, Note_on_c, 0, 93, 0
2, 105180, Note_on_c, 0, 84, 0
2, 105194, Note_on_c, 0, 65, 0
2, 105198, Note_on_c, 0, 96, 0
2, 105199, Note_on_c, 0, 89, 0
2, 105223, Note_on_c, 0, 55, 0
2, 105231, Note_on_c, 0, 60, 0
2, 105236, Note_on_c, 0, 61, 0
2, 105359, Note_on_c, 0, 61, 58
2, 105360, Note_on_c, 0, 94, 76
2, 105368, Note_on_c, 0, 82, 72
2, 105371, Note_on_c, 0, 65, 66
2, 105376, Note_on_c, 0, 60, 54
2, 105387, Note_on_c, 0, 55, 58
2, 105412, Note_on_c, 0, 58, 35
2, 105504, Note_on_c, 0, 60, 0
2, 105522, Control_c, 0, 64, 127
2, 105523, Note_on_c, 0, 65, 0
2, 105537, Note_on_c, 0, 55, 0
2, 105567, Control_c, 0, 64, 0
2, 105568, Note_on_c, 0, 58, 0
2, 105580, Note_on_c, 0, 94, 0
2, 105599, Note_on_c, 0, 82, 0
2, 105610, Note_on_c, 0, 61, 0
2, 105684, Note_on_c, 0, 81, 60
2, 105685, Note_on_c, 0, 60, 52
2, 105687, Note_on_c, 0, 93, 64
2, 105690, Note_on_c, 0, 64, 56
2, 105694, Note_on_c, 0, 88, 51
2, 105700, Note_on_c, 0, 54, 49
2, 105834, Control_c, 0, 64, 127
2, 106145, Note_on_c, 0, 81, 0
2, 106198, Note_on_c, 0, 88, 0
2, 106205, Note_on_c, 0, 64, 0
2, 106230, Note_on_c, 0, 54, 0
2, 106235, Note_on_c, 0, 93, 0
2, 106392, Note_on_c, 0, 60, 0
2, 106665, Control_c, 0, 64, 0
2, 106802, Control_c, 0, 64, 127
2, 106858, Control_c, 0, 64, 0
2, 106936, Note_on_c, 0, 54, 74
2, 106938, Note_on_c, 0, 60, 72
2, 106940, Note_on_c, 0, 97, 74
2, 106941, Note_on_c, 0, 64, 74
2, 106942, Note_on_c, 0, 89, 74
2, 106944, Note_on_c, 0, 101, 68
2, 107051, Note_on_c, 0, 98, 57
2, 107072, Note_on_c, 0, 89, 0
2, 107077, Note_on_c, 0, 97, 0
2, 107101, Note_on_c, 0, 98, 0
2, 107110, Note_on_c, 0, 101, 0
2, 107116, Note_on_c, 0, 64, 0
2, 107129, Note_on_c, 0, 54, 0
2, 107162, Note_on_c, 0, 60, 0
2, 107265, Note_on_c, 0, 98, 68
2, 107270, Note_on_c, 0, 54, 59
2, 107275, Note_on_c, 0, 64, 63
2, 107277, Control_c, 0, 64, 127
2, 107282, Note_on_c, 0, 60, 44
2, 107285, Note_on_c, 0, 86, 44
2, 107287, Note_on_c, 0, 93, 63
2, 107407, Note_on_c, 0, 93, 0
2, 107408, Note_on_c, 0, 60, 0
2, 107412, Note_on_c, 0, 98, 0
2, 107426, Note_on_c, 0, 86, 0
2, 107429, Note_on_c, 0, 64, 0
2, 107480, Note_on_c, 0, 54, 0
2, 107480, Control_c, 0, 64, 0
2, 107585, Note_on_c, 0, 62, 47
2, 107589, Note_on_c, 0, 84, 49
2, 107590, Note_on_c, 0, 92, 48
2, 107594, Note_on_c, 0, 96, 36
2, 107600, Note_on_c, 0, 58, 33
2, 107609, Note_on_c, 0, 57, 44
2, 107627, Note_on_c, 0, 53, 28
2, 107739, Control_c, 0, 64, 127
2, 107784, Note_on_c, 0, 93, 43
2, 107815, Note_on_c, 0, 92, 0
2, 107853, Note_on_c, 0, 93, 0
2, 107875, Note_on_c, 0, 96, 0
2, 107890, Note_on_c, 0, 84, 0
2, 107968, Note_on_c, 0, 62, 0
2, 107987, Note_on_c, 0, 57, 0
2, 108006, Note_on_c, 0, 53, 0
2, 108008, Note_on_c, 0, 58, 0
2, 108077, Control_c, 0, 64, 0
2, 108183, Note_on_c, 0, 58, 51
2, 108187, Note_on_c, 0, 53, 35
2, 108189, Note_on_c, 0, 62, 45
2, 108190, Note_on_c, 0, 93, 71
2, 108192, Note_on_c, 0, 81, 66
2, 108201, Note_on_c, 0, 57, 42
2, 108208, Note_on_c, 0, 86, 54
2, 108213, Note_on_c, 0, 89, 42
2, 108245, Control_c, 0, 64, 127
2, 108319, Note_on_c, 0, 89, 0
2, 108361, Note_on_c, 0, 93, 0
2, 108369, Note_on_c, 0, 62, 0
2, 108376, Note_on_c, 0, 86, 0
2, 108378, Note_on_c, 0, 81, 0
2, 108411, Note_on_c, 0, 58, 0
2, 108424, Note_on_c, 0, 57, 0
2, 108437, Note_on_c, 0, 53, 0
2, 108448, Control_c, 0, 64, 0
2, 108546, Note_on_c, 0, 89, 51
2, 108560, Note_on_c, 0, 58, 47
2, 108563, Note_on_c, 0, 62, 43
2, 108565, Note_on_c, 0, 53, 36
2, 108568, Note_on_c, 0, 84, 48
2, 108577, Note_on_c, 0, 57, 44
2, 108589, Note_on_c, 0, 77, 22
2, 108660, Control_c, 0, 64, 127
2, 108876, Note_on_c, 0, 53, 0
2, 108969, Note_on_c, 0, 57, 0
2, 109031, Note_on_c, 0, 62, 0
2, 109055, Note_on_c, 0, 58, 0
2, 109092, Note_on_c, 0, 89, 0
2, 109103, Note_on_c, 0, 84, 0
2, 109109, Note_on_c, 0, 77, 0
2, 109234, Note_on_c, 0, 53, 19
2, 109319, Note_on_c, 0, 53, 0
2, 109402, Control_c, 0, 64, 0
2, 109471, Note_on_c, 0, 88, 47
2, 109482, Note_on_c, 0, 76, 40
2, 109484, Note_on_c, 0, 82, 42
2, 109489, Note_on_c, 0, 85, 36
2, 109498, Note_on_c, 0, 58, 25
2, 109500, Note_on_c, 0, 62, 33
2, 109516, Note_on_c, 0, 52, 30
2, 109593, Control_c, 0, 64, 127
2, 109603, Note_on_c, 0, 88, 0
2, 109621, Note_on_c, 0, 85, 0
2, 109623, Note_on_c, 0, 82, 0
2, 109668, Note_on_c, 0, 76, 0
2, 109703, Note_on_c, 0, 62, 0
2, 109965, Note_on_c, 0, 58, 0
2, 109974, Note_on_c, 0, 52, 0
2, 110075, Note_on_c, 0, 73, 69
2, 110086, Note_on_c, 0, 58, 76
2, 110087, Note_on_c, 0, 68, 72
2, 110090, Note_on_c, 0, 64, 74
2, 110201, Control_c, 0, 64, 0
2, 110435, Control_c, 0, 64, 127
2, 110931, Note_on_c, 0, 64, 0
2, 110983, Note_on_c, 0, 58, 0
2, 111002, Note_on_c, 0, 56, 38
2, 111004, Note_on_c, 0, 68, 0
2, 111004, Note_on_c, 0, 73, 0
2, 111064, Note_on_c, 0, 56, 0
2, 111346, Control_c, 0, 64, 0
2, 111361, Note_on_c, 0, 63, 53
2, 111364, Note_on_c, 0, 77, 66
2, 111364, Note_on_c, 0, 70, 60
2, 111369, Note_on_c, 0, 58, 49
2, 111370, Note_on_c, 0, 67, 58
2, 111434, Note_on_c, 0, 53, 22
2, 111569, Control_c, 0, 64, 127
2, 111803, Note_on_c, 0, 67, 0
2, 111938, Note_on_c, 0, 77, 0
2, 111958, Note_on_c, 0, 70, 0
2, 111999, Note_on_c, 0, 67, 37
2, 112167, Note_on_c, 0, 63, 0
2, 112203, Note_on_c, 0, 67, 0
2, 112347, Note_on_c, 0, 63, 34
2, 112389, Control_c, 0, 64, 0
2, 112672, Control_c, 0, 64, 127
2, 112674, Note_on_c, 0, 70, 67
2, 112841, Note_on_c, 0, 63, 0
2, 112906, Control_c, 0, 64, 0
2, 112915, Note_on_c, 0, 70, 0
2, 112963, Note_on_c, 0, 58, 0
2, 112964, Note_on_c, 0, 53, 0
2, 112968, Note_on_c, 0, 75, 69
2, 112984, Control_c, 0, 64, 127
2, 113089, Note_on_c, 0, 75, 0
2, 113277, Control_c, 0, 64, 0
2, 113293, Note_on_c, 0, 74, 68
2, 113295, Note_on_c, 0, 63, 51
2, 113302, Note_on_c, 0, 66, 47
2, 113314, Note_on_c, 0, 62, 46
2, 113327, Note_on_c, 0, 69, 38
2, 113488, Note_on_c, 0, 69, 0
2, 113499, Note_on_c, 0, 66, 0
2, 113503, Note_on_c, 0, 63, 0
2, 113520, Note_on_c, 0, 74, 0
2, 113521, Note_on_c, 0, 62, 0
2, 113872, Note_on_c, 0, 72, 49
2, 113873, Note_on_c, 0, 63, 57
2, 113890, Note_on_c, 0, 66, 53
2, 113896, Note_on_c, 0, 69, 48
2, 113914, Note_on_c, 0, 57, 51
2, 114174, Control_c, 0, 64, 127
2, 114378, Note_on_c, 0, 69, 0
2, 114395, Note_on_c, 0, 63, 0
2, 114432, Note_on_c, 0, 66, 0
2, 114485, Note_on_c, 0, 72, 0
2, 114590, Control_c, 0, 64, 0
2, 114594, Note_on_c, 0, 63, 46
2, 114596, Note_on_c, 0, 69, 56
2, 114644, Note_on_c, 0, 53, 26
2, 114703, Note_on_c, 0, 57, 0
2, 114745, Note_on_c, 0, 63, 0
2, 114768, Note_on_c, 0, 53, 0
2, 114867, Note_on_c, 0, 69, 0
2, 114887, Note_on_c, 0, 66, 62
2, 114894, Note_on_c, 0, 63, 46
2, 114922, Note_on_c, 0, 53, 15
2, 114960, Control_c, 0, 64, 127
2, 115057, Note_on_c, 0, 63, 0
2, 115118, Control_c, 0, 64, 0
2, 115158, Note_on_c, 0, 66, 0
2, 115211, Note_on_c, 0, 65, 46
2, 115221, Note_on_c, 0, 62, 45
2, 115234, Note_on_c, 0, 57, 36
2, 115236, Note_on_c, 0, 46, 32
2, 115371, Note_on_c, 0, 62, 0
2, 115399, Control_c, 0, 64, 127
2, 115449, Note_on_c, 0, 53, 0
2, 115455, Note_on_c, 0, 46, 0
2, 115465, Note_on_c, 0, 65, 0
2, 115532, Note_on_c, 0, 57, 0
2, 115769, Control_c, 0, 64, 0
2, 115847, Control_c, 0, 64, 127
2, 115848, Note_on_c, 0, 67, 95
2, 116010, Note_on_c, 0, 67, 0
2, 116164, Control_c, 0, 64, 0
2, 116164, Note_on_c, 0, 65, 45
2, 116182, Note_on_c, 0, 62, 41
2, 116189, Note_on_c, 0, 69, 69
2, 116214, Note_on_c, 0, 65, 0
2, 116218, Note_on_c, 0, 60, 24
2, 116230, Note_on_c, 0, 62, 0
2, 116265, Note_on_c, 0, 60, 0
2, 116272, Note_on_c, 0, 69, 0
2, 116523, Note_on_c, 0, 72, 66
2, 116615, Note_on_c, 0, 72, 0
2, 116831, Note_on_c, 0, 70, 62
2, 116942, Note_on_c, 0, 70, 0
2, 116948, Control_c, 0, 64, 127
2, 117050, Control_c, 0, 64, 0
2, 117172, Note_on_c, 0, 62, 37
2, 117174, Note_on_c, 0, 58, 38
2, 117183, Note_on_c, 0, 57, 26
2, 117184, Note_on_c, 0, 53, 32
2, 117187, Note_on_c, 0, 68, 59
2, 117289, Note_on_c, 0, 69, 51
2, 117303, Note_on_c, 0, 68, 0
2, 117471, Note_on_c, 0, 69, 0
2, 117512, Note_on_c, 0, 53, 0
2, 117514, Note_on_c, 0, 62, 0
2, 117547, Note_on_c, 0, 58, 0
2, 117550, Note_on_c, 0, 57, 0
2, 117853, Note_on_c, 0, 53, 20
2, 117854, Note_on_c, 0, 60, 32
2, 117950, Note_on_c, 0, 60, 0
2, 118011, Note_on_c, 0, 53, 0
2, 118180, Note_on_c, 0, 67, 50
2, 118192, Note_on_c, 0, 58, 29
2, 118226, Note_on_c, 0, 52, 31
2, 118317, Control_c, 0, 64, 127
2, 118402, Note_on_c, 0, 58, 0
2, 118477, Note_on_c, 0, 52, 0
2, 118638, Note_on_c, 0, 67, 0
2, 118720, Control_c, 0, 64, 0
2, 118754, Control_c, 0, 64, 127
2, 118814, Note_on_c, 0, 52, 35
2, 118943, Note_on_c, 0, 52, 0
2, 118990, Control_c, 0, 64, 0
2, 119118, Note_on_c, 0, 57, 40
2, 119121, Note_on_c, 0, 65, 36
2, 119130, Note_on_c, 0, 53, 40
2, 119137, Note_on_c, 0, 60, 39
2, 119168, Note_on_c, 0, 62, 28
2, 119171, Note_on_c, 0, 57, 0
2, 119195, Note_on_c, 0, 53, 0
2, 119219, Note_on_c, 0, 62, 0
2, 119224, Note_on_c, 0, 60, 0
2, 119227, Control_c, 0, 64, 127
2, 119258, Note_on_c, 0, 65, 0
2, 119643, Control_c, 0, 64, 0
2, 119735, Note_on_c, 0, 76, 55
2, 119740, Note_on_c, 0, 72, 51
2, 119744, Note_on_c, 0, 69, 62
2, 119749, Note_on_c, 0, 65, 60
2, 119756, Note_on_c, 0, 62, 53
2, 119766, Control_c, 0, 64, 127
2, 119860, Note_on_c, 0, 65, 0
2, 119887, Note_on_c, 0, 69, 0
2, 119922, Note_on_c, 0, 72, 0
2, 119954, Note_on_c, 0, 76, 0
2, 120024, Note_on_c, 0, 62, 0
2, 120032, Control_c, 0, 64, 0
2, 120093, Note_on_c, 0, 64, 55
2, 120094, Note_on_c, 0, 69, 64
2, 120098, Note_on_c, 0, 72, 54
2, 120114, Note_on_c, 0, 77, 39
2, 120121, Note_on_c, 0, 79, 32
2, 120132, Note_on_c, 0, 74, 30
2, 120244, Note_on_c, 0, 79, 0
2, 120401, Note_on_c, 0, 74, 0
2, 120413, Note_on_c, 0, 72, 0
2, 120417, Control_c, 0, 64, 127
2, 120427, Note_on_c, 0, 77, 0
2, 120466, Note_on_c, 0, 69, 0
2, 120636, Note_on_c, 0, 64, 0
2, 120710, Note_on_c, 0, 74, 63
2, 120720, Control_c, 0, 64, 0
2, 120727, Note_on_c, 0, 65, 46
2, 120728, Note_on_c, 0, 69, 54
2, 120733, Note_on_c, 0, 62, 36
2, 120783, Note_on_c, 0, 62, 0
2, 120795, Note_on_c, 0, 69, 0
2, 120803, Note_on_c, 0, 65, 0
2, 120824, Note_on_c, 0, 74, 0
2, 120877, Control_c, 0, 64, 127
2, 121009, Control_c, 0, 64, 0
2, 121067, Note_on_c, 0, 72, 51
2, 121095, Note_on_c, 0, 65, 38
2, 121096, Note_on_c, 0, 69, 36
2, 121131, Note_on_c, 0, 60, 24
2, 121161, Note_on_c, 0, 69, 0
2, 121178, Note_on_c, 0, 65, 0
2, 121186, Note_on_c, 0, 72, 0
2, 121194, Note_on_c, 0, 60, 0
2, 121371, Control_c, 0, 64, 127
2, 121550, Control_c, 0, 64, 0
2, 121663, Note_on_c, 0, 62, 61
2, 121664, Note_on_c, 0, 69, 37
2, 121678, Note_on_c, 0, 57, 29
2, 121679, Note_on_c, 0, 65, 46
2, 121719, Control_c, 0, 64, 127
2, 121800, Note_on_c, 0, 62, 0
2, 121830, Note_on_c, 0, 65, 0
2, 121896, Note_on_c, 0, 69, 0
2, 121978, Control_c, 0, 64, 0
2, 122019, Note_on_c, 0, 58, 53
2, 122020, Note_on_c, 0, 57, 0
2, 122029, Note_on_c, 0, 61, 42
2, 122037, Note_on_c, 0, 67, 40
2, 122048, Note_on_c, 0, 64, 47
2, 122053, Note_on_c, 0, 55, 40
2, 122258, Control_c, 0, 64, 127
2, 122524, Note_on_c, 0, 55, 0
2, 122542, Note_on_c, 0, 67, 0
2, 122568, Note_on_c, 0, 64, 0
2, 122614, Note_on_c, 0, 61, 0
2, 122629, Note_on_c, 0, 58, 0
2, 122651, Note_on_c, 0, 51, 38
2, 122763, Note_on_c, 0, 51, 0
2, 122941, Control_c, 0, 64, 0
2, 122958, Note_on_c, 0, 64, 66
2, 122960, Note_on_c, 0, 57, 66
2, 122963, Note_on_c, 0, 53, 64
2, 122967, Note_on_c, 0, 52, 70
2, 122973, Note_on_c, 0, 60, 55
2, 123716, Control_c, 0, 64, 127
2, 123751, Note_on_c, 0, 53, 0
2, 123780, Note_on_c, 0, 57, 0
2, 123799, Note_on_c, 0, 60, 0
2, 123836, Note_on_c, 0, 64, 0
2, 123906, Control_c, 0, 64, 0
2, 123935, Note_on_c, 0, 52, 0
2, 123963, Note_on_c, 0, 62, 48
2, 123969, Note_on_c, 0, 57, 44
2, 123970, Note_on_c, 0, 53, 45
2, 123972, Note_on_c, 0, 50, 50
2, 123976, Note_on_c, 0, 60, 31
2, 124142, Note_on_c, 0, 53, 0
2, 124155, Control_c, 0, 64, 127
2, 124212, Note_on_c, 0, 57, 0
2, 124236, Note_on_c, 0, 60, 0
2, 124237, Note_on_c, 0, 50, 0
2, 124255, Note_on_c, 0, 62, 0
2, 124904, Control_c, 0, 64, 0
2, 124927, Note_on_c, 0, 81, 71
2, 124930, Note_on_c, 0, 77, 64
2, 124933, Note_on_c, 0, 74, 71
2, 124936, Note_on_c, 0, 69, 73
2, 124942, Note_on_c, 0, 57, 53
2, 124946, Note_on_c, 0, 58, 53
2, 124947, Note_on_c, 0, 62, 57
2, 125177, Control_c, 0, 64, 127
2, 125428, Note_on_c, 0, 62, 0
2, 125452, Note_on_c, 0, 57, 0
2, 125491, Note_on_c, 0, 58, 0
2, 125545, Note_on_c, 0, 81, 0
2, 125562, Note_on_c, 0, 69, 0
2, 125563, Note_on_c, 0, 77, 0
2, 125581, Note_on_c, 0, 74, 0
2, 125749, Control_c, 0, 64, 0
2, 125838, Note_on_c, 0, 73, 37
2, 125847, Note_on_c, 0, 76, 45
2, 125849, Note_on_c, 0, 79, 40
2, 125852, Note_on_c, 0, 62, 42
2, 125853, Note_on_c, 0, 67, 49
2, 125858, Note_on_c, 0, 58, 33
2, 125873, Note_on_c, 0, 52, 31
2, 125968, Note_on_c, 0, 67, 0
2, 125993, Note_on_c, 0, 73, 0
2, 126012, Note_on_c, 0, 76, 0
2, 126066, Note_on_c, 0, 79, 0
2, 126328, Note_on_c, 0, 52, 0
2, 126416, Note_on_c, 0, 58, 0
2, 126487, Note_on_c, 0, 62, 0
2, 126759, Note_on_c, 0, 53, 45
2, 126770, Note_on_c, 0, 64, 44
2, 126792, Note_on_c, 0, 67, 39
2, 126795, Note_on_c, 0, 57, 44
2, 126804, Note_on_c, 0, 57, 43
2, 126805, Note_on_c, 0, 84, 80
2, 126819, Note_on_c, 0, 62, 49
2, 126824, Note_on_c, 0, 60, 18
2, 126859, Note_on_c, 0, 57, 0
2, 126899, Note_on_c, 0, 53, 0
2, 126901, Note_on_c, 0, 64, 0
2, 126916, Note_on_c, 0, 60, 0
2, 127241, Note_on_c, 0, 84, 0
2, 127269, Note_on_c, 0, 57, 0
2, 127293, Note_on_c, 0, 67, 0
2, 127301, Note_on_c, 0, 62, 0
2, 127387, Note_on_c, 0, 67, 57
2, 127398, Note_on_c, 0, 81, 63
2, 127414, Note_on_c, 0, 57, 29
2, 127419, Note_on_c, 0, 62, 42
2, 127449, Note_on_c, 0, 81, 0
2, 127465, Note_on_c, 0, 62, 0
2, 127475, Note_on_c, 0, 67, 0
2, 127490, Note_on_c, 0, 57, 0
2, 128356, Note_on_c, 0, 60, 76
2, 128362, Note_on_c, 0, 57, 66
2, 128380, Note_on_c, 0, 50, 50
2, 128382, Note_on_c, 0, 53, 53
2, 128421, Note_on_c, 0, 50, 0
2, 128440, Note_on_c, 0, 60, 0
2, 128473, Note_on_c, 0, 57, 0
2, 128531, Note_on_c, 0, 53, 0
2, 129010, Note_on_c, 0, 77, 82
2, 129017, Note_on_c, 0, 65, 84
2, 129167, Note_on_c, 0, 77, 0
2, 129211, Note_on_c, 0, 65, 0
2, 129359, Note_on_c, 0, 60, 65
2, 129362, Note_on_c, 0, 57, 63
2, 129382, Note_on_c, 0, 50, 49
2, 129390, Note_on_c, 0, 53, 42
2, 129474, Note_on_c, 0, 60, 0
2, 129512, Note_on_c, 0, 57, 0
2, 129514, Note_on_c, 0, 50, 0
2, 129561, Note_on_c, 0, 53, 0
2, 129681, Note_on_c, 0, 74, 87
2, 129688, Note_on_c, 0, 68, 86
2, 129831, Note_on_c, 0, 68, 0
2, 129843, Note_on_c, 0, 69, 46
2, 129960, Note_on_c, 0, 74, 0
2, 129976, Note_on_c, 0, 69, 0
2, 130042, Note_on_c, 0, 62, 75
2, 130163, Note_on_c, 0, 62, 0
2, 130324, Note_on_c, 0, 65, 105
2, 130334, Note_on_c, 0, 53, 49
2, 130337, Note_on_c, 0, 58, 60
2, 130340, Note_on_c, 0, 62, 60
2, 130345, Note_on_c, 0, 57, 57
2, 130918, Note_on_c, 0, 62, 0
2, 130937, Note_on_c, 0, 67, 60
2, 130979, Note_on_c, 0, 65, 0
2, 131071, Note_on_c, 0, 65, 57
2, 131104, Note_on_c, 0, 67, 0
2, 131226, Note_on_c, 0, 62, 60
2, 131266, Note_on_c, 0, 65, 0
2, 131330, Note_on_c, 0, 62, 0
2, 131519, Note_on_c, 0, 62, 41
2, 131524, Note_on_c, 0, 65, 84
2, 131575, Note_on_c, 0, 53, 0
2, 131762, Note_on_c, 0, 65, 0
2, 131811, Note_on_c, 0, 62, 0
2, 131903, Note_on_c, 0, 57, 0
2, 131946, Note_on_c, 0, 58, 0
2, 132179, Note_on_c, 0, 68, 88
2, 132181, Note_on_c, 0, 74, 82
2, 132200, Note_on_c, 0, 62, 53
2, 132211, Note_on_c, 0, 53, 38
2, 132219, Note_on_c, 0, 58, 46
2, 132356, Note_on_c, 0, 53, 0
2, 132421, Note_on_c, 0, 68, 0
2, 132426, Note_on_c, 0, 69, 48
2, 132431, Note_on_c, 0, 62, 0
2, 132517, Note_on_c, 0, 69, 0
2, 132523, Note_on_c, 0, 74, 0
2, 132589, Note_on_c, 0, 62, 36
2, 132605, Note_on_c, 0, 52, 36
2, 132680, Note_on_c, 0, 68, 62
2, 132696, Note_on_c, 0, 74, 59
2, 132821, Note_on_c, 0, 62, 0
2, 132863, Note_on_c, 0, 69, 32
2, 132871, Note_on_c, 0, 68, 0
2, 133010, Note_on_c, 0, 58, 0
2, 133020, Note_on_c, 0, 74, 0
2, 133023, Note_on_c, 0, 69, 0
2, 133104, Note_on_c, 0, 65, 37
2, 133126, Note_on_c, 0, 67, 22
2, 133164, Note_on_c, 0, 67, 0
2, 133281, Note_on_c, 0, 62, 62
2, 133296, Note_on_c, 0, 65, 0
2, 133428, Note_on_c, 0, 62, 0
2, 133441, Note_on_c, 0, 58, 46
2, 133520, Note_on_c, 0, 65, 68
2, 133531, Note_on_c, 0, 64, 66
2, 133569, Note_on_c, 0, 64, 0
2, 133772, Note_on_c, 0, 67, 81
2, 133781, Note_on_c, 0, 52, 0
2, 133825, Note_on_c, 0, 65, 0
2, 133934, Note_on_c, 0, 58, 0
2, 133975, Note_on_c, 0, 65, 68
2, 134055, Note_on_c, 0, 67, 0
2, 134186, Note_on_c, 0, 65, 0
2, 134255, Note_on_c, 0, 62, 41
2, 134378, Note_on_c, 0, 62, 0
2, 134431, Note_on_c, 0, 65, 68
2, 134438, Note_on_c, 0, 57, 44
2, 134442, Note_on_c, 0, 60, 24
2, 134535, Note_on_c, 0, 60, 0
2, 134563, Note_on_c, 0, 57, 0
2, 134769, Note_on_c, 0, 65, 0
2, 134778, Note_on_c, 0, 62, 55
2, 134823, Note_on_c, 0, 62, 0
2, 136830, Note_on_c, 0, 60, 64
2, 136836, Note_on_c, 0, 54, 65
2, 136838, Note_on_c, 0, 64, 65
2, 137295, Note_on_c, 0, 89, 99
2, 137495, Note_on_c, 0, 89, 0
2, 137553, Note_on_c, 0, 87, 69
2, 137657, Note_on_c, 0, 64, 0
2, 137733, Note_on_c, 0, 87, 0
2, 137779, Note_on_c, 0, 84, 74
2, 137781, Note_on_c, 0, 64, 47
2, 137962, Note_on_c, 0, 84, 0
2, 138027, Note_on_c, 0, 60, 0
2, 138053, Note_on_c, 0, 85, 86
2, 138061, Note_on_c, 0, 64, 0
2, 138156, Note_on_c, 0, 54, 0
2, 138217, Note_on_c, 0, 85, 0
2, 138258, Note_on_c, 0, 86, 78
2, 138268, Note_on_c, 0, 57, 41
2, 138274, Note_on_c, 0, 58, 40
2, 138277, Note_on_c, 0, 62, 44
2, 138285, Note_on_c, 0, 53, 35
2, 138484, Note_on_c, 0, 86, 0
2, 138576, Note_on_c, 0, 81, 36
2, 138646, Note_on_c, 0, 81, 0
2, 138764, Note_on_c, 0, 84, 96
2, 138901, Note_on_c, 0, 62, 0
2, 138905, Note_on_c, 0, 58, 0
2, 138976, Note_on_c, 0, 84, 0
2, 139037, Note_on_c, 0, 82, 80
2, 139239, Note_on_c, 0, 62, 40
2, 139243, Note_on_c, 0, 78, 55
2, 139257, Note_on_c, 0, 82, 0
2, 139286, Note_on_c, 0, 58, 29
2, 139495, Note_on_c, 0, 78, 0
2, 139541, Note_on_c, 0, 81, 90
2, 139601, Note_on_c, 0, 57, 0
2, 139640, Note_on_c, 0, 62, 0
2, 139690, Note_on_c, 0, 58, 0
2, 139703, Note_on_c, 0, 81, 0
2, 139712, Note_on_c, 0, 53, 0
2, 139758, Note_on_c, 0, 79, 72
2, 139957, Note_on_c, 0, 79, 0
2, 140029, Note_on_c, 0, 78, 80
2, 140174, Note_on_c, 0, 62, 44
2, 140186, Note_on_c, 0, 78, 0
2, 140186, Note_on_c, 0, 58, 34
2, 140196, Note_on_c, 0, 52, 27
2, 140249, Note_on_c, 0, 76, 49
2, 140277, Note_on_c, 0, 62, 0
2, 140295, Note_on_c, 0, 52, 0
2, 140319, Note_on_c, 0, 58, 0
2, 140450, Note_on_c, 0, 76, 0
2, 140505, Note_on_c, 0, 75, 60
2, 140626, Note_on_c, 0, 75, 0
2, 140731, Note_on_c, 0, 74, 60
2, 140869, Note_on_c, 0, 74, 0
2, 140995, Note_on_c, 0, 73, 64
2, 141157, Note_on_c, 0, 73, 0
2, 141190, Note_on_c, 0, 58, 50
2, 141200, Note_on_c, 0, 72, 50
2, 141227, Note_on_c, 0, 52, 30
2, 141228, Note_on_c, 0, 62, 31
2, 141285, Note_on_c, 0, 62, 0
2, 141289, Note_on_c, 0, 52, 0
2, 141348, Note_on_c, 0, 58, 0
2, 141413, Note_on_c, 0, 72, 0
2, 141499, Note_on_c, 0, 71, 57
2, 141593, Note_on_c, 0, 71, 0
2, 141668, Note_on_c, 0, 74, 80
2, 141964, Note_on_c, 0, 74, 0
2, 141992, Note_on_c, 0, 71, 44
2, 142100, Note_on_c, 0, 71, 0
2, 142158, Note_on_c, 0, 67, 42
2, 142161, Note_on_c, 0, 72, 69
2, 142170, Note_on_c, 0, 63, 42
2, 142175, Note_on_c, 0, 62, 46
2, 142191, Note_on_c, 0, 58, 42
2, 142883, Note_on_c, 0, 67, 0
2, 142947, Note_on_c, 0, 63, 0
2, 143068, Note_on_c, 0, 63, 33
2, 143072, Note_on_c, 0, 67, 42
2, 143101, Control_c, 0, 64, 127
2, 143185, Note_on_c, 0, 67, 0
2, 143196, Note_on_c, 0, 72, 0
2, 143283, Note_on_c, 0, 62, 0
2, 143356, Note_on_c, 0, 63, 0
2, 143358, Note_on_c, 0, 58, 0
2, 144020, Control_c, 0, 64, 0
2, 144044, Note_on_c, 0, 73, 83
2, 144047, Note_on_c, 0, 80, 91
2, 144048, Note_on_c, 0, 68, 77
2, 144049, Note_on_c, 0, 77, 87
2, 144227, Note_on_c, 0, 68, 0
2, 144267, Note_on_c, 0, 73, 0
2, 144277, Note_on_c, 0, 77, 0
2, 144287, Note_on_c, 0, 80, 0
2, 144616, Note_on_c, 0, 77, 80
2, 144618, Note_on_c, 0, 73, 70
2, 144624, Note_on_c, 0, 68, 79
2, 144630, Note_on_c, 0, 67, 62
2, 144642, Note_on_c, 0, 63, 57
2, 144749, Note_on_c, 0, 67, 0
2, 144848, Note_on_c, 0, 63, 0
2, 144854, Note_on_c, 0, 77, 0
2, 144856, Note_on_c, 0, 68, 0
2, 144894, Note_on_c, 0, 73, 0
2, 144932, Control_c, 0, 64, 127
2, 144986, Control_c, 0, 64, 0
2, 145015, Note_on_c, 0, 66, 67
2, 145017, Note_on_c, 0, 75, 58
2, 145018, Note_on_c, 0, 71, 67
2, 145024, Note_on_c, 0, 63, 50
2, 145105, Note_on_c, 0, 63, 0
2, 145245, Control_c, 0, 64, 127
2, 145250, Note_on_c, 0, 71, 0
2, 145256, Note_on_c, 0, 75, 0
2, 145342, Note_on_c, 0, 66, 0
2, 145495, Control_c, 0, 64, 0
2, 145588, Note_on_c, 0, 73, 64
2, 145602, Note_on_c, 0, 68, 67
2, 145613, Note_on_c, 0, 56, 74
2, 145776, Note_on_c, 0, 68, 0
2, 145807, Control_c, 0, 64, 127
2, 145858, Note_on_c, 0, 73, 0
2, 145863, Control_c, 0, 64, 0
2, 145974, Note_on_c, 0, 72, 66
2, 145980, Note_on_c, 0, 62, 77
2, 145986, Note_on_c, 0, 57, 67
2, 145990, Note_on_c, 0, 65, 68
2, 145995, Note_on_c, 0, 69, 60
2, 145999, Note_on_c, 0, 56, 0
2, 146003, Note_on_c, 0, 71, 57
2, 146013, Note_on_c, 0, 68, 19
2, 146200, Note_on_c, 0, 69, 0
2, 146232, Note_on_c, 0, 68, 0
2, 146239, Note_on_c, 0, 72, 0
2, 146265, Note_on_c, 0, 65, 0
2, 146278, Note_on_c, 0, 71, 0
2, 146321, Note_on_c, 0, 62, 0
2, 146434, Note_on_c, 0, 57, 0
2, 146572, Note_on_c, 0, 69, 71
2, 146582, Note_on_c, 0, 62, 76
2, 146583, Note_on_c, 0, 65, 62
2, 146585, Note_on_c, 0, 53, 66
2, 146589, Note_on_c, 0, 60, 69
2, 146615, Note_on_c, 0, 67, 37
2, 146711, Note_on_c, 0, 65, 0
2, 146731, Note_on_c, 0, 69, 0
2, 146750, Note_on_c, 0, 67, 0
2, 146777, Note_on_c, 0, 62, 0
2, 146793, Note_on_c, 0, 60, 0
2, 146888, Note_on_c, 0, 53, 0
2, 146922, Note_on_c, 0, 65, 52
2, 146924, Note_on_c, 0, 60, 57
2, 146941, Note_on_c, 0, 57, 61
2, 146944, Note_on_c, 0, 62, 62
2, 146945, Note_on_c, 0, 50, 54
2, 147093, Note_on_c, 0, 50, 0
2, 147178, Note_on_c, 0, 65, 0
2, 147183, Note_on_c, 0, 57, 0
2, 147209, Note_on_c, 0, 62, 0
2, 147214, Note_on_c, 0, 60, 0
2, 147230, Note_on_c, 0, 43, 66
2, 147334, Note_on_c, 0, 43, 0
2, 147525, Note_on_c, 0, 62, 80
2, 147527, Note_on_c, 0, 58, 86
2, 147529, Note_on_c, 0, 69, 75
2, 147531, Note_on_c, 0, 57, 71
2, 147537, Note_on_c, 0, 65, 62
2, 147861, Control_c, 0, 64, 127
2, 147957, Note_on_c, 0, 58, 0
2, 147982, Note_on_c, 0, 62, 0
2, 147993, Note_on_c, 0, 65, 0
2, 148017, Note_on_c, 0, 69, 0
2, 148085, Control_c, 0, 64, 0
2, 148087, Note_on_c, 0, 57, 0
2, 148117, Note_on_c, 0, 67, 62
2, 148130, Note_on_c, 0, 58, 64
2, 148139, Note_on_c, 0, 62, 71
2, 148149, Note_on_c, 0, 55, 58
2, 148423, Control_c, 0, 64, 127
2, 148548, Note_on_c, 0, 62, 0
2, 148609, Note_on_c, 0, 58, 0
2, 148662, Note_on_c, 0, 67, 0
2, 148727, Control_c, 0, 64, 0
2, 148791, Note_on_c, 0, 55, 0
2, 148797, Note_on_c, 0, 61, 53
2, 148800, Note_on_c, 0, 58, 51
2, 148812, Note_on_c, 0, 64, 53
2, 148813, Note_on_c, 0, 57, 50
2, 148846, Note_on_c, 0, 48, 35
2, 149007, Control_c, 0, 64, 127
2, 149010, Note_on_c, 0, 58, 0
2, 149058, Note_on_c, 0, 61, 0
2, 149059, Note_on_c, 0, 64, 0
2, 149126, Note_on_c, 0, 57, 0
2, 149366, Control_c, 0, 64, 0
2, 149452, Note_on_c, 0, 73, 60
2, 149462, Note_on_c, 0, 63, 73
2, 149464, Note_on_c, 0, 58, 57
2, 149472, Note_on_c, 0, 68, 60
2, 149590, Control_c, 0, 64, 127
2, 149695, Note_on_c, 0, 68, 0
2, 149705, Note_on_c, 0, 73, 0
2, 149714, Control_c, 0, 64, 0
2, 149717, Note_on_c, 0, 58, 0
2, 149753, Note_on_c, 0, 63, 0
2, 149827, Note_on_c, 0, 72, 47
2, 149828, Note_on_c, 0, 57, 51
2, 149830, Note_on_c, 0, 67, 51
2, 149835, Note_on_c, 0, 62, 55
2, 149937, Note_on_c, 0, 48, 0
2, 150051, Note_on_c, 0, 62, 0
2, 150118, Control_c, 0, 64, 127
2, 150138, Note_on_c, 0, 67, 0
2, 150165, Note_on_c, 0, 72, 0
2, 150335, Note_on_c, 0, 57, 0
2, 150353, Control_c, 0, 64, 0
2, 150421, Note_on_c, 0, 48, 51
2, 150471, Note_on_c, 0, 48, 0
2, 150533, Control_c, 0, 64, 127
2, 150680, Control_c, 0, 64, 0
2, 150760, Note_on_c, 0, 77, 64
2, 150763, Note_on_c, 0, 65, 60
2, 150766, Note_on_c, 0, 60, 50
2, 150771, Note_on_c, 0, 72, 44
2, 150772, Note_on_c, 0, 57, 45
2, 150786, Note_on_c, 0, 75, 21
2, 150790, Note_on_c, 0, 50, 34
2, 150791, Note_on_c, 0, 53, 33
2, 150829, Note_on_c, 0, 75, 0
2, 150883, Note_on_c, 0, 65, 0
2, 150949, Note_on_c, 0, 53, 0
2, 150958, Note_on_c, 0, 50, 0
2, 150973, Note_on_c, 0, 57, 0
2, 150989, Note_on_c, 0, 60, 0
2, 150991, Note_on_c, 0, 72, 0
2, 151033, Note_on_c, 0, 77, 0
2, 151174, Control_c, 0, 64, 127
2, 151568, Control_c, 0, 64, 0
2, 151739, Note_on_c, 0, 62, 89
2, 151740, Note_on_c, 0, 58, 79
2, 151741, Note_on_c, 0, 57, 76
2, 151742, Note_on_c, 0, 53, 80
2, 151751, Note_on_c, 0, 81, 92
2, 151753, Note_on_c, 0, 93, 94
2, 151754, Note_on_c, 0, 89, 80
2, 151756, Note_on_c, 0, 86, 85
2, 151996, Note_on_c, 0, 93, 0
2, 151997, Note_on_c, 0, 81, 0
2, 151999, Note_on_c, 0, 86, 0
2, 152001, Note_on_c, 0, 89, 0
2, 152010, Note_on_c, 0, 53, 0
2, 152059, Note_on_c, 0, 53, 29
2, 152074, Note_on_c, 0, 93, 71
2, 152090, Note_on_c, 0, 86, 54
2, 152092, Note_on_c, 0, 81, 35
2, 152095, Note_on_c, 0, 89, 40
2, 152211, Note_on_c, 0, 89, 0
2, 152219, Note_on_c, 0, 86, 0
2, 152221, Note_on_c, 0, 81, 0
2, 152228, Note_on_c, 0, 93, 0
2, 152244, Note_on_c, 0, 62, 0
2, 152252, Note_on_c, 0, 57, 0
2, 152256, Note_on_c, 0, 53, 0
2, 152310, Note_on_c, 0, 58, 0
2, 152419, Note_on_c, 0, 58, 83
2, 152421, Note_on_c, 0, 62, 88
2, 152423, Note_on_c, 0, 91, 82
2, 152424, Note_on_c, 0, 52, 84
2, 152432, Note_on_c, 0, 79, 74
2, 152434, Note_on_c, 0, 88, 74
2, 152436, Note_on_c, 0, 84, 72
2, 152591, Note_on_c, 0, 84, 0
2, 152592, Note_on_c, 0, 79, 0
2, 152606, Note_on_c, 0, 88, 0
2, 152610, Note_on_c, 0, 91, 0
2, 152653, Note_on_c, 0, 62, 0
2, 152654, Note_on_c, 0, 52, 0
2, 152684, Note_on_c, 0, 58, 0
2, 153329, Note_on_c, 0, 58, 60
2, 153333, Note_on_c, 0, 52, 35
2, 153384, Note_on_c, 0, 52, 0
2, 153385, Note_on_c, 0, 58, 0
2, 153646, Note_on_c, 0, 64, 89
2, 153648, Note_on_c, 0, 79, 84
2, 153651, Note_on_c, 0, 76, 79
2, 153654, Note_on_c, 0, 72, 82
2, 153655, Note_on_c, 0, 69, 88
2, 153692, Note_on_c, 0, 71, 33
2, 153729, Note_on_c, 0, 71, 0
2, 153855, Note_on_c, 0, 69, 0
2, 153878, Note_on_c, 0, 72, 0
2, 153887, Note_on_c, 0, 64, 0
2, 153890, Note_on_c, 0, 79, 0
2, 153892, Note_on_c, 0, 76, 0
2, 153953, Note_on_c, 0, 79, 57
2, 153962, Note_on_c, 0, 69, 62
2, 153964, Note_on_c, 0, 72, 59
2, 153968, Note_on_c, 0, 76, 58
2, 153970, Note_on_c, 0, 64, 67
2, 154117, Note_on_c, 0, 76, 0
2, 154121, Note_on_c, 0, 69, 0
2, 154136, Note_on_c, 0, 79, 0
2, 154142, Note_on_c, 0, 64, 0
2, 154144, Note_on_c, 0, 72, 0
2, 154310, Note_on_c, 0, 77, 75
2, 154315, Note_on_c, 0, 72, 68
2, 154316, Note_on_c, 0, 69, 74
2, 154320, Note_on_c, 0, 62, 76
2, 154342, Note_on_c, 0, 74, 49
2, 154523, Note_on_c, 0, 77, 0
2, 154551, Note_on_c, 0, 74, 0
2, 154564, Note_on_c, 0, 72, 0
2, 154566, Note_on_c, 0, 62, 0
2, 154567, Note_on_c, 0, 69, 0
2, 154626, Note_on_c, 0, 77, 32
2, 154642, Note_on_c, 0, 72, 58
2, 154643, Note_on_c, 0, 69, 50
2, 154650, Note_on_c, 0, 62, 57
2, 154660, Note_on_c, 0, 74, 31
2, 154718, Note_on_c, 0, 74, 0
2, 154770, Note_on_c, 0, 77, 0
2, 154771, Note_on_c, 0, 72, 0
2, 154791, Note_on_c, 0, 69, 0
2, 154850, Note_on_c, 0, 62, 0
2, 154950, Note_on_c, 0, 74, 71
2, 154958, Note_on_c, 0, 65, 66
2, 154970, Note_on_c, 0, 67, 55
2, 154976, Note_on_c, 0, 70, 48
2, 154977, Note_on_c, 0, 60, 58
2, 155117, Note_on_c, 0, 67, 0
2, 155125, Note_on_c, 0, 65, 0
2, 155146, Note_on_c, 0, 74, 0
2, 155153, Note_on_c, 0, 70, 0
2, 155198, Note_on_c, 0, 60, 0
2, 155306, Note_on_c, 0, 53, 33
2, 155310, Note_on_c, 0, 55, 35
2, 155384, Note_on_c, 0, 53, 0
2, 155488, Note_on_c, 0, 55, 0
2, 155581, Note_on_c, 0, 70, 71
2, 155590, Note_on_c, 0, 65, 70
2, 155591, Note_on_c, 0, 58, 56
2, 155599, Note_on_c, 0, 62, 70
2, 155898, Note_on_c, 0, 58, 0
2, 155970, Note_on_c, 0, 70, 0
2, 155990, Note_on_c, 0, 65, 0
2, 156137, Note_on_c, 0, 62, 0
2, 156206, Note_on_c, 0, 55, 57
2, 156534, Note_on_c, 0, 55, 0
2, 156551, Note_on_c, 0, 58, 56
2, 156561, Note_on_c, 0, 61, 49
2, 156563, Note_on_c, 0, 57, 54
2, 156574, Note_on_c, 0, 64, 49
2, 156590, Note_on_c, 0, 58, 0
2, 156594, Note_on_c, 0, 69, 30
2, 156727, Note_on_c, 0, 69, 0
2, 156728, Note_on_c, 0, 57, 0
2, 156769, Note_on_c, 0, 64, 0
2, 156814, Note_on_c, 0, 61, 0
2, 156882, Note_on_c, 0, 60, 71
2, 156924, Note_on_c, 0, 61, 52
2, 156970, Note_on_c, 0, 60, 0
2, 157003, Note_on_c, 0, 62, 68
2, 157015, Note_on_c, 0, 61, 0
2, 157146, Note_on_c, 0, 62, 0
2, 157221, Note_on_c, 0, 65, 75
2, 157371, Note_on_c, 0, 65, 0
2, 157456, Note_on_c, 0, 67, 71
2, 157457, Note_on_c, 0, 41, 38
2, 157471, Note_on_c, 0, 48, 57
2, 157503, Note_on_c, 0, 57, 33
2, 157590, Note_on_c, 0, 67, 0
2, 157730, Note_on_c, 0, 74, 87
2, 157912, Note_on_c, 0, 74, 0
2, 157975, Note_on_c, 0, 57, 0
2, 158020, Note_on_c, 0, 72, 78
2, 158173, Note_on_c, 0, 72, 0
2, 158237, Note_on_c, 0, 41, 0
2, 158302, Note_on_c, 0, 68, 73
2, 158327, Note_on_c, 0, 74, 65
2, 158370, Note_on_c, 0, 57, 32
2, 158424, Note_on_c, 0, 68, 0
2, 158429, Note_on_c, 0, 69, 54
2, 158462, Note_on_c, 0, 72, 34
2, 158526, Note_on_c, 0, 74, 0
2, 158549, Note_on_c, 0, 72, 0
2, 158574, Note_on_c, 0, 69, 0
2, 158609, Note_on_c, 0, 57, 0
2, 158652, Note_on_c, 0, 62, 40
2, 158690, Note_on_c, 0, 48, 0
2, 158733, Note_on_c, 0, 62, 0
2, 158852, Note_on_c, 0, 65, 76
2, 159057, Note_on_c, 0, 65, 0
2, 159078, Note_on_c, 0, 67, 51
2, 159146, Note_on_c, 0, 65, 42
2, 159200, Note_on_c, 0, 67, 0
2, 159289, Note_on_c, 0, 62, 49
2, 159322, Note_on_c, 0, 65, 0
2, 159371, Note_on_c, 0, 60, 36
2, 159378, Note_on_c, 0, 62, 0
2, 159400, Note_on_c, 0, 57, 30
2, 159406, Note_on_c, 0, 50, 26
2, 159416, Note_on_c, 0, 53, 30
2, 159425, Note_on_c, 0, 65, 47
2, 159666, Note_on_c, 0, 60, 0
2, 159695, Note_on_c, 0, 50, 0
2, 159738, Note_on_c, 0, 53, 0
2, 159741, Note_on_c, 0, 57, 0
2, 159777, Note_on_c, 0, 65, 0
2, 159781, Note_on_c, 0, 62, 55
2, 159835, Note_on_c, 0, 62, 0
2, 161281, Note_on_c, 0, 91, 70
2, 161284, Note_on_c, 0, 86, 64
2, 161287, Note_on_c, 0, 79, 54
2, 161292, Note_on_c, 0, 62, 51
2, 161304, Note_on_c, 0, 58, 43
2, 161324, Note_on_c, 0, 57, 34
2, 161346, Note_on_c, 0, 79, 0
2, 161349, Note_on_c, 0, 62, 0
2, 161367, Note_on_c, 0, 86, 0
2, 161374, Note_on_c, 0, 57, 0
2, 161393, Note_on_c, 0, 91, 0
2, 161398, Note_on_c, 0, 58, 0
2, 162312, Note_on_c, 0, 93, 80
2, 162317, Note_on_c, 0, 81, 71
2, 162383, Note_on_c, 0, 81, 0
2, 162394, Note_on_c, 0, 93, 0
2, 162632, Note_on_c, 0, 94, 71
2, 162633, Note_on_c, 0, 82, 62
2, 162700, Note_on_c, 0, 82, 0
2, 162712, Note_on_c, 0, 94, 0
2, 162943, Note_on_c, 0, 93, 75
2, 162947, Note_on_c, 0, 81, 71
2, 163025, Note_on_c, 0, 81, 0
2, 163026, Note_on_c, 0, 93, 0
2, 163241, Note_on_c, 0, 91, 62
2, 163243, Note_on_c, 0, 79, 55
2, 163262, Note_on_c, 0, 85, 46
2, 163266, Note_on_c, 0, 88, 34
2, 163270, Note_on_c, 0, 58, 34
2, 163300, Note_on_c, 0, 52, 33
2, 163316, Note_on_c, 0, 62, 20
2, 163417, Note_on_c, 0, 91, 0
2, 163426, Note_on_c, 0, 79, 0
2, 163436, Note_on_c, 0, 85, 0
2, 163442, Note_on_c, 0, 88, 0
2, 163452, Note_on_c, 0, 62, 0
2, 163496, Note_on_c, 0, 58, 0
2, 163500, Note_on_c, 0, 52, 0
2, 163886, Note_on_c, 0, 58, 35
2, 163950, Note_on_c, 0, 58, 0
2, 164197, Note_on_c, 0, 63, 75
2, 164198, Note_on_c, 0, 75, 81
2, 164209, Note_on_c, 0, 68, 70
2, 164211, Note_on_c, 0, 64, 84
2, 164215, Note_on_c, 0, 70, 65
2, 164250, Note_on_c, 0, 65, 35
2, 164300, Note_on_c, 0, 65, 0
2, 164390, Note_on_c, 0, 70, 0
2, 164411, Note_on_c, 0, 68, 0
2, 164429, Note_on_c, 0, 75, 0
2, 164431, Note_on_c, 0, 64, 0
2, 164466, Note_on_c, 0, 63, 0
2, 164492, Note_on_c, 0, 61, 54
2, 164510, Note_on_c, 0, 73, 45
2, 164527, Note_on_c, 0, 64, 58
2, 164532, Note_on_c, 0, 68, 59
2, 164533, Note_on_c, 0, 70, 56
2, 164669, Note_on_c, 0, 64, 0
2, 164686, Note_on_c, 0, 68, 0
2, 164704, Note_on_c, 0, 61, 0
2, 164741, Note_on_c, 0, 58, 54
2, 164742, Note_on_c, 0, 73, 0
2, 164872, Note_on_c, 0, 70, 0
2, 164975, Note_on_c, 0, 56, 45
2, 165124, Note_on_c, 0, 58, 0
2, 165188, Note_on_c, 0, 56, 0
2, 165209, Note_on_c, 0, 57, 70
2, 165211, Note_on_c, 0, 72, 62
2, 165212, Note_on_c, 0, 67, 70
2, 165215, Note_on_c, 0, 62, 70
2, 165336, Note_on_c, 0, 72, 0
2, 165345, Note_on_c, 0, 67, 0
2, 165393, Note_on_c, 0, 62, 0
2, 165553, Note_on_c, 0, 69, 65
2, 165560, Note_on_c, 0, 60, 62
2, 165561, Note_on_c, 0, 64, 66
2, 165599, Note_on_c, 0, 57, 0
2, 165601, Note_on_c, 0, 53, 50
2, 165845, Note_on_c, 0, 64, 0
2, 165853, Note_on_c, 0, 69, 0
2, 165905, Note_on_c, 0, 60, 0
2, 165922, Control_c, 0, 64, 127
2, 166100, Note_on_c, 0, 53, 0
2, 166133, Control_c, 0, 64, 0
2, 166394, Control_c, 0, 64, 127
2, 166427, Control_c, 0, 64, 0
2, 166510, Note_on_c, 0, 65, 82
2, 166511, Note_on_c, 0, 69, 73
2, 166517, Note_on_c, 0, 60, 68
2, 166521, Note_on_c, 0, 61, 74
2, 166555, Note_on_c, 0, 62, 44
2, 166598, Note_on_c, 0, 62, 0
2, 166606, Note_on_c, 0, 61, 0
2, 166758, Note_on_c, 0, 69, 0
2, 166819, Note_on_c, 0, 70, 69
2, 166831, Note_on_c, 0, 61, 65
2, 166841, Note_on_c, 0, 51, 59
2, 166909, Control_c, 0, 64, 127
2, 166975, Note_on_c, 0, 60, 0
2, 166981, Note_on_c, 0, 65, 0
2, 167021, Note_on_c, 0, 70, 0
2, 167030, Note_on_c, 0, 61, 0
2, 167076, Note_on_c, 0, 51, 0
2, 167121, Control_c, 0, 64, 0
2, 167170, Note_on_c, 0, 50, 60
2, 167171, Note_on_c, 0, 63, 74
2, 167179, Note_on_c, 0, 68, 60
2, 167180, Note_on_c, 0, 60, 66
2, 167237, Note_on_c, 0, 56, 45
2, 167448, Control_c, 0, 64, 127
2, 167470, Control_c, 0, 64, 0
2, 167486, Note_on_c, 0, 60, 0
2, 167502, Note_on_c, 0, 68, 0
2, 167527, Note_on_c, 0, 56, 0
2, 167542, Note_on_c, 0, 60, 45
2, 167544, Note_on_c, 0, 69, 64
2, 167550, Note_on_c, 0, 57, 54
2, 167796, Control_c, 0, 64, 127
2, 167856, Note_on_c, 0, 60, 0
2, 167883, Note_on_c, 0, 69, 0
2, 167905, Note_on_c, 0, 57, 0
2, 167912, Note_on_c, 0, 63, 0
2, 168109, Control_c, 0, 64, 0
2, 168138, Note_on_c, 0, 68, 45
2, 168152, Note_on_c, 0, 60, 57
2, 168156, Note_on_c, 0, 66, 56
2, 168158, Note_on_c, 0, 63, 50
2, 168160, Note_on_c, 0, 72, 38
2, 168190, Note_on_c, 0, 69, 41
2, 168191, Note_on_c, 0, 68, 0
2, 168335, Control_c, 0, 64, 127
2, 168472, Note_on_c, 0, 50, 0
2, 168501, Note_on_c, 0, 69, 0
2, 168560, Note_on_c, 0, 63, 0
2, 168616, Note_on_c, 0, 60, 0
2, 168646, Note_on_c, 0, 66, 0
2, 168660, Note_on_c, 0, 72, 0
2, 168953, Control_c, 0, 64, 0
2, 169026, Note_on_c, 0, 62, 45
2, 169031, Note_on_c, 0, 58, 45
2, 169050, Note_on_c, 0, 57, 34
2, 169072, Note_on_c, 0, 53, 22
2, 169113, Note_on_c, 0, 70, 51
2, 169252, Note_on_c, 0, 70, 0
2, 169312, Note_on_c, 0, 72, 47
2, 169360, Note_on_c, 0, 70, 34
2, 169419, Note_on_c, 0, 72, 0
2, 169491, Note_on_c, 0, 62, 0
2, 169507, Note_on_c, 0, 58, 0
2, 169523, Note_on_c, 0, 70, 0
2, 169548, Note_on_c, 0, 69, 35
2, 169626, Note_on_c, 0, 69, 0
2, 169780, Note_on_c, 0, 70, 63
2, 169883, Note_on_c, 0, 70, 0
2, 169966, Note_on_c, 0, 62, 37
2, 169984, Note_on_c, 0, 58, 36
2, 170000, Note_on_c, 0, 74, 53
2, 170144, Note_on_c, 0, 74, 0
2, 170264, Note_on_c, 0, 77, 70
2, 170283, Note_on_c, 0, 53, 0
2, 170291, Note_on_c, 0, 57, 0
2, 170323, Note_on_c, 0, 62, 0
2, 170327, Note_on_c, 0, 58, 0
2, 170368, Note_on_c, 0, 77, 0
2, 170453, Note_on_c, 0, 81, 84
2, 170642, Note_on_c, 0, 81, 0
2, 170717, Note_on_c, 0, 84, 77
2, 170727, Note_on_c, 0, 72, 66
2, 170810, Note_on_c, 0, 84, 0
2, 170813, Note_on_c, 0, 72, 0
2, 170907, Note_on_c, 0, 69, 39
2, 170911, Note_on_c, 0, 73, 51
2, 170916, Note_on_c, 0, 58, 44
2, 170919, Note_on_c, 0, 85, 65
2, 170926, Note_on_c, 0, 64, 50
2, 170990, Note_on_c, 0, 69, 0
2, 171065, Note_on_c, 0, 58, 0
2, 171154, Note_on_c, 0, 64, 0
2, 171202, Note_on_c, 0, 85, 0
2, 171205, Note_on_c, 0, 73, 0
2, 171257, Note_on_c, 0, 82, 38
2, 171329, Note_on_c, 0, 82, 0
2, 171390, Note_on_c, 0, 86, 76
2, 171395, Note_on_c, 0, 74, 71
2, 171425, Note_on_c, 0, 84, 42
2, 171482, Note_on_c, 0, 84, 0
2, 171707, Note_on_c, 0, 86, 0
2, 171721, Note_on_c, 0, 74, 0
2, 171756, Note_on_c, 0, 82, 51
2, 171854, Note_on_c, 0, 82, 0
2, 171890, Note_on_c, 0, 63, 58
2, 171895, Note_on_c, 0, 75, 75
2, 171900, Note_on_c, 0, 87, 74
2, 171901, Note_on_c, 0, 58, 49
2, 171982, Note_on_c, 0, 63, 0
2, 172068, Note_on_c, 0, 58, 0
2, 172169, Note_on_c, 0, 75, 0
2, 172247, Note_on_c, 0, 87, 0
2, 172260, Note_on_c, 0, 82, 38
2, 172327, Note_on_c, 0, 82, 0
2, 172373, Note_on_c, 0, 88, 73
2, 172377, Note_on_c, 0, 76, 67
2, 172379, Note_on_c, 0, 82, 46
2, 172587, Note_on_c, 0, 82, 0
2, 172651, Note_on_c, 0, 76, 0
2, 172698, Note_on_c, 0, 88, 0
2, 172730, Note_on_c, 0, 82, 33
2, 172782, Note_on_c, 0, 82, 0
2, 172859, Note_on_c, 0, 82, 65
2, 172865, Note_on_c, 0, 67, 54
2, 172872, Note_on_c, 0, 89, 76
2, 172875, Note_on_c, 0, 77, 71
2, 172876, Note_on_c, 0, 63, 46
2, 172887, Note_on_c, 0, 58, 47
2, 172889, Note_on_c, 0, 62, 51
2, 172904, Note_on_c, 0, 86, 41
2, 173194, Note_on_c, 0, 77, 0
2, 173217, Note_on_c, 0, 89, 0
2, 173219, Note_on_c, 0, 82, 0
2, 173237, Note_on_c, 0, 58, 0
2, 173247, Note_on_c, 0, 62, 0
2, 173248, Note_on_c, 0, 67, 0
2, 173249, Note_on_c, 0, 86, 0
2, 173281, Note_on_c, 0, 63, 0
2, 173350, Note_on_c, 0, 67, 64
2, 173357, Note_on_c, 0, 58, 70
2, 173358, Note_on_c, 0, 63, 70
2, 173361, Note_on_c, 0, 62, 54
2, 173362, Note_on_c, 0, 86, 69
2, 173367, Note_on_c, 0, 91, 76
2, 173374, Note_on_c, 0, 79, 74
2, 173638, Note_on_c, 0, 91, 0
2, 173667, Note_on_c, 0, 58, 0
2, 173668, Note_on_c, 0, 86, 0
2, 173669, Note_on_c, 0, 79, 0
2, 173689, Note_on_c, 0, 62, 0
2, 173695, Note_on_c, 0, 67, 0
2, 173718, Note_on_c, 0, 63, 0
2, 173840, Note_on_c, 0, 85, 69
2, 173842, Note_on_c, 0, 77, 71
2, 173845, Note_on_c, 0, 89, 68
2, 173846, Note_on_c, 0, 63, 50
2, 173847, Note_on_c, 0, 58, 64
2, 173851, Note_on_c, 0, 67, 60
2, 173861, Note_on_c, 0, 62, 63
2, 174090, Note_on_c, 0, 86, 60
2, 174109, Note_on_c, 0, 77, 0
2, 174113, Note_on_c, 0, 85, 0
2, 174174, Note_on_c, 0, 89, 0
2, 174177, Note_on_c, 0, 62, 0
2, 174178, Note_on_c, 0, 58, 0
2, 174194, Note_on_c, 0, 86, 0
2, 174204, Note_on_c, 0, 67, 0
2, 174211, Note_on_c, 0, 63, 0
2, 174340, Note_on_c, 0, 67, 64
2, 174345, Note_on_c, 0, 58, 65
2, 174347, Note_on_c, 0, 62, 68
2, 174348, Note_on_c, 0, 63, 55
2, 174349, Note_on_c, 0, 87, 71
2, 174350, Note_on_c, 0, 79, 77
2, 174353, Note_on_c, 0, 91, 74
2, 174370, Note_on_c, 0, 85, 47
2, 174410, Note_on_c, 0, 85, 0
2, 174630, Note_on_c, 0, 79, 0
2, 174639, Note_on_c, 0, 91, 0
2, 174642, Note_on_c, 0, 62, 0
2, 174660, Note_on_c, 0, 87, 0
2, 174662, Note_on_c, 0, 67, 0
2, 174704, Note_on_c, 0, 63, 0
2, 174725, Note_on_c, 0, 58, 0
2, 174814, Note_on_c, 0, 57, 63
2, 174815, Note_on_c, 0, 67, 57
2, 174823, Note_on_c, 0, 63, 44
2, 174824, Note_on_c, 0, 85, 64
2, 174825, Note_on_c, 0, 89, 67
2, 174827, Note_on_c, 0, 77, 63
2, 175018, Note_on_c, 0, 86, 45
2, 175021, Note_on_c, 0, 85, 0
2, 175071, Note_on_c, 0, 89, 0
2, 175072, Note_on_c, 0, 86, 0
2, 175074, Note_on_c, 0, 77, 0
2, 175112, Control_c, 0, 64, 127
2, 175126, Note_on_c, 0, 57, 0
2, 175166, Note_on_c, 0, 67, 0
2, 175201, Control_c, 0, 64, 0
2, 175207, Note_on_c, 0, 63, 0
2, 175265, Note_on_c, 0, 86, 53
2, 175279, Note_on_c, 0, 80, 51
2, 175295, Note_on_c, 0, 74, 42
2, 175297, Note_on_c, 0, 63, 53
2, 175298, Note_on_c, 0, 67, 44
2, 175306, Note_on_c, 0, 57, 53
2, 175479, Note_on_c, 0, 80, 0
2, 175537, Control_c, 0, 64, 127
2, 175544, Note_on_c, 0, 86, 0
2, 175558, Note_on_c, 0, 74, 0
2, 175574, Note_on_c, 0, 57, 0
2, 175601, Note_on_c, 0, 67, 0
2, 175654, Note_on_c, 0, 63, 0
2, 175660, Control_c, 0, 64, 0
2, 175730, Note_on_c, 0, 84, 63
2, 175733, Note_on_c, 0, 80, 50
2, 175753, Note_on_c, 0, 72, 29
2, 175756, Note_on_c, 0, 63, 47
2, 175758, Note_on_c, 0, 57, 45
2, 175759, Note_on_c, 0, 67, 39
2, 175917, Control_c, 0, 64, 127
2, 175956, Note_on_c, 0, 80, 0
2, 175971, Note_on_c, 0, 84, 0
2, 175985, Note_on_c, 0, 72, 0
2, 176000, Note_on_c, 0, 57, 0
2, 176012, Note_on_c, 0, 67, 0
2, 176102, Note_on_c, 0, 63, 0
2, 176156, Control_c, 0, 64, 0
2, 176229, Note_on_c, 0, 81, 54
2, 176230, Note_on_c, 0, 57, 51
2, 176231, Note_on_c, 0, 63, 33
2, 176233, Note_on_c, 0, 67, 40
2, 176237, Note_on_c, 0, 78, 30
2, 176281, Note_on_c, 0, 78, 0
2, 176376, Note_on_c, 0, 81, 0
2, 176416, Control_c, 0, 64, 127
2, 176417, Note_on_c, 0, 67, 0
2, 176463, Note_on_c, 0, 57, 0
2, 176558, Note_on_c, 0, 63, 0
2, 176606, Control_c, 0, 64, 0
2, 176642, Note_on_c, 0, 77, 44
2, 176651, Note_on_c, 0, 62, 43
2, 176655, Note_on_c, 0, 60, 45
2, 176660, Note_on_c, 0, 72, 36
2, 176680, Note_on_c, 0, 55, 42
2, 176692, Note_on_c, 0, 65, 15
2, 176897, Control_c, 0, 64, 127
2, 176914, Note_on_c, 0, 65, 0
2, 176961, Note_on_c, 0, 77, 0
2, 176971, Note_on_c, 0, 72, 0
2, 177377, Note_on_c, 0, 62, 0
2, 177479, Note_on_c, 0, 60, 0
2, 177493, Control_c, 0, 64, 0
2, 177574, Note_on_c, 0, 67, 83
2, 177576, Note_on_c, 0, 62, 50
2, 177578, Note_on_c, 0, 60, 17
2, 177580, Note_on_c, 0, 65, 54
2, 177625, Note_on_c, 0, 65, 0
2, 177735, Note_on_c, 0, 62, 0
2, 177768, Note_on_c, 0, 67, 0
2, 177881, Note_on_c, 0, 55, 0
2, 177910, Note_on_c, 0, 69, 52
2, 178009, Note_on_c, 0, 69, 0
2, 178043, Note_on_c, 0, 60, 0
2, 178072, Note_on_c, 0, 72, 74
2, 178087, Note_on_c, 0, 71, 67
2, 178129, Note_on_c, 0, 71, 0
2, 178296, Note_on_c, 0, 72, 0
2, 178373, Note_on_c, 0, 70, 59
2, 178436, Control_c, 0, 64, 127
2, 178470, Control_c, 0, 64, 0
2, 178501, Note_on_c, 0, 70, 0
2, 178570, Note_on_c, 0, 68, 44
2, 178576, Note_on_c, 0, 62, 34
2, 178579, Note_on_c, 0, 57, 30
2, 178587, Note_on_c, 0, 58, 35
2, 178633, Note_on_c, 0, 69, 56
2, 178656, Note_on_c, 0, 62, 0
2, 178690, Note_on_c, 0, 68, 0
2, 178700, Note_on_c, 0, 57, 0
2, 178718, Note_on_c, 0, 58, 0
2, 179011, Note_on_c, 0, 60, 24
2, 179159, Note_on_c, 0, 69, 0
2, 179160, Note_on_c, 0, 60, 0
2, 179324, Note_on_c, 0, 67, 63
2, 179557, Note_on_c, 0, 58, 42
2, 179596, Note_on_c, 0, 58, 0
2, 179605, Note_on_c, 0, 52, 28
2, 179670, Note_on_c, 0, 52, 0
2, 180104, Note_on_c, 0, 67, 0
2, 180168, Note_on_c, 0, 59, 43
2, 180276, Note_on_c, 0, 59, 0
2, 180487, Note_on_c, 0, 65, 51
2, 180492, Note_on_c, 0, 50, 50
2, 180495, Note_on_c, 0, 60, 55
2, 180502, Note_on_c, 0, 57, 44
2, 180557, Note_on_c, 0, 57, 0
2, 180598, Note_on_c, 0, 60, 0
2, 180604, Note_on_c, 0, 50, 0
2, 180612, Note_on_c, 0, 65, 0
2, 181128, Note_on_c, 0, 65, 45
2, 181129, Note_on_c, 0, 57, 47
2, 181142, Note_on_c, 0, 60, 46
2, 181151, Note_on_c, 0, 62, 48
2, 181156, Note_on_c, 0, 50, 36
2, 181543, Control_c, 0, 64, 127
2, 181733, Note_on_c, 0, 57, 0
2, 181740, Note_on_c, 0, 50, 0
2, 181835, Note_on_c, 0, 65, 0
2, 181851, Note_on_c, 0, 60, 0
2, 181884, Note_on_c, 0, 62, 0
2, 182400, Control_c, 0, 64, 0
2, 182400, Note_on_c, 0, 73, 70
2, 182406, Note_on_c, 0, 77, 64
2, 182410, Note_on_c, 0, 81, 72
2, 182413, Note_on_c, 0, 69, 77
2, 182422, Note_on_c, 0, 57, 69
2, 182430, Note_on_c, 0, 62, 71
2, 182431, Note_on_c, 0, 58, 63
2, 182465, Note_on_c, 0, 79, 19
2, 182514, Note_on_c, 0, 73, 0
2, 182515, Note_on_c, 0, 74, 58
2, 182862, Control_c, 0, 64, 127
2, 183095, Note_on_c, 0, 57, 0
2, 183109, Note_on_c, 0, 81, 0
2, 183126, Note_on_c, 0, 62, 0
2, 183130, Note_on_c, 0, 74, 0
2, 183149, Note_on_c, 0, 77, 0
2, 183150, Note_on_c, 0, 58, 0
2, 183161, Note_on_c, 0, 69, 0
2, 183179, Note_on_c, 0, 79, 0
2, 183366, Control_c, 0, 64, 0
2, 183387, Note_on_c, 0, 79, 59
2, 183388, Note_on_c, 0, 76, 53
2, 183391, Note_on_c, 0, 73, 46
2, 183394, Note_on_c, 0, 58, 49
2, 183398, Note_on_c, 0, 67, 53
2, 183403, Note_on_c, 0, 62, 57
2, 183420, Note_on_c, 0, 52, 37
2, 183760, Control_c, 0, 64, 127
2, 183872, Note_on_c, 0, 52, 0
2, 183956, Note_on_c, 0, 58, 0
2, 183971, Note_on_c, 0, 67, 0
2, 184004, Note_on_c, 0, 76, 0
2, 184022, Note_on_c, 0, 62, 0
2, 184050, Note_on_c, 0, 73, 0
2, 184112, Note_on_c, 0, 79, 0
2, 184300, Control_c, 0, 64, 0
2, 184313, Note_on_c, 0, 72, 51
2, 184315, Note_on_c, 0, 64, 53
2, 184318, Note_on_c, 0, 69, 45
2, 184329, Note_on_c, 0, 60, 42
2, 184342, Note_on_c, 0, 57, 38
2, 184361, Note_on_c, 0, 53, 24
2, 184648, Control_c, 0, 64, 127
2, 184915, Note_on_c, 0, 64, 0
2, 184925, Note_on_c, 0, 69, 0
2, 184930, Note_on_c, 0, 60, 0
2, 184979, Note_on_c, 0, 72, 0
2, 185297, Control_c, 0, 64, 0
2, 185309, Note_on_c, 0, 65, 50
2, 185312, Note_on_c, 0, 69, 55
2, 185315, Note_on_c, 0, 64, 44
2, 185339, Note_on_c, 0, 60, 31
2, 185534, Control_c, 0, 64, 127
2, 185535, Note_on_c, 0, 65, 0
2, 185573, Note_on_c, 0, 57, 0
2, 185595, Note_on_c, 0, 60, 0
2, 185598, Note_on_c, 0, 64, 0
2, 185601, Note_on_c, 0, 53, 0
2, 185659, Note_on_c, 0, 69, 0
2, 186219, Control_c, 0, 64, 0
2, 186245, Note_on_c, 0, 61, 69
2, 186246, Note_on_c, 0, 56, 73
2, 186247, Note_on_c, 0, 60, 74
2, 186250, Note_on_c, 0, 65, 79
2, 186251, Note_on_c, 0, 92, 83
2, 186257, Note_on_c, 0, 80, 90
2, 186258, Note_on_c, 0, 85, 77
2, 186284, Note_on_c, 0, 89, 36
2, 186286, Note_on_c, 0, 90, 30
2, 186304, Note_on_c, 0, 88, 36
2, 186369, Note_on_c, 0, 88, 0
2, 186490, Control_c, 0, 64, 127
2, 186816, Note_on_c, 0, 60, 0
2, 186837, Note_on_c, 0, 89, 0
2, 186847, Note_on_c, 0, 65, 0
2, 186892, Note_on_c, 0, 80, 0
2, 186904, Note_on_c, 0, 56, 0
2, 186921, Note_on_c, 0, 92, 0
2, 186937, Note_on_c, 0, 61, 0
2, 187017, Note_on_c, 0, 85, 0
2, 187103, Note_on_c, 0, 90, 0
2, 187186, Control_c, 0, 64, 0
2, 187239, Note_on_c, 0, 61, 46
2, 187249, Note_on_c, 0, 91, 47
2, 187253, Note_on_c, 0, 79, 41
2, 187254, Note_on_c, 0, 55, 53
2, 187256, Note_on_c, 0, 85, 37
2, 187257, Note_on_c, 0, 64, 46
2, 187268, Note_on_c, 0, 87, 34
2, 187417, Note_on_c, 0, 91, 0
2, 187426, Control_c, 0, 64, 127
2, 187472, Note_on_c, 0, 87, 0
2, 187473, Note_on_c, 0, 85, 0
2, 187488, Note_on_c, 0, 79, 0
2, 187757, Note_on_c, 0, 64, 0
2, 187805, Note_on_c, 0, 55, 0
2, 187877, Note_on_c, 0, 84, 95
2, 187879, Note_on_c, 0, 61, 0
2, 188109, Control_c, 0, 64, 0
2, 188178, Note_on_c, 0, 63, 56
2, 188197, Note_on_c, 0, 58, 49
2, 188199, Note_on_c, 0, 60, 40
2, 188252, Note_on_c, 0, 60, 0
2, 188266, Note_on_c, 0, 63, 0
2, 188394, Note_on_c, 0, 58, 0
2, 189255, Note_on_c, 0, 63, 40
2, 189265, Note_on_c, 0, 58, 52
2, 189294, Note_on_c, 0, 63, 0
2, 189328, Note_on_c, 0, 84, 0
2, 189453, Note_on_c, 0, 58, 0
2, 189674, Note_on_c, 0, 87, 84
2, 189982, Note_on_c, 0, 84, 42
2, 190024, Note_on_c, 0, 87, 0
2, 190032, Note_on_c, 0, 85, 48
2, 190100, Note_on_c, 0, 84, 0
2, 190159, Note_on_c, 0, 86, 72
2, 190169, Note_on_c, 0, 63, 32
2, 190185, Note_on_c, 0, 60, 36
2, 190206, Note_on_c, 0, 54, 40
2, 190212, Note_on_c, 0, 85, 0
2, 190250, Note_on_c, 0, 86, 0
2, 190273, Note_on_c, 0, 87, 72
2, 190530, Note_on_c, 0, 87, 0
2, 190563, Note_on_c, 0, 63, 0
2, 190586, Note_on_c, 0, 86, 57
2, 190644, Note_on_c, 0, 85, 65
2, 190674, Note_on_c, 0, 86, 0
2, 190769, Note_on_c, 0, 84, 48
2, 190791, Note_on_c, 0, 85, 0
2, 190836, Note_on_c, 0, 54, 0
2, 190895, Note_on_c, 0, 84, 0
2, 191072, Note_on_c, 0, 84, 90
2, 191162, Note_on_c, 0, 63, 31
2, 191194, Note_on_c, 0, 54, 32
2, 191298, Note_on_c, 0, 83, 55
2, 191350, Note_on_c, 0, 84, 0
2, 191382, Note_on_c, 0, 82, 58
2, 191407, Note_on_c, 0, 83, 0
2, 191495, Note_on_c, 0, 81, 56
2, 191531, Note_on_c, 0, 82, 0
2, 191556, Note_on_c, 0, 63, 0
2, 191592, Note_on_c, 0, 81, 0
2, 191721, Note_on_c, 0, 78, 34
2, 191752, Note_on_c, 0, 60, 0
2, 191757, Note_on_c, 0, 79, 29
2, 191806, Note_on_c, 0, 54, 0
2, 191813, Note_on_c, 0, 79, 0
2, 191824, Note_on_c, 0, 78, 0
2, 191971, Note_on_c, 0, 77, 24
2, 192027, Note_on_c, 0, 77, 0
2, 192062, Note_on_c, 0, 77, 30
2, 192063, Note_on_c, 0, 65, 36
2, 192065, Note_on_c, 0, 60, 41
2, 192066, Note_on_c, 0, 61, 37
2, 192089, Note_on_c, 0, 56, 35
2, 192148, Note_on_c, 0, 77, 0
2, 192276, Note_on_c, 0, 73, 37
2, 192367, Note_on_c, 0, 73, 0
2, 192430, Note_on_c, 0, 77, 71
2, 192481, Note_on_c, 0, 65, 0
2, 192569, Note_on_c, 0, 61, 0
2, 192587, Note_on_c, 0, 77, 0
2, 192588, Note_on_c, 0, 60, 0
2, 192670, Note_on_c, 0, 72, 55
2, 192736, Note_on_c, 0, 72, 0
2, 192827, Note_on_c, 0, 73, 60
2, 192978, Note_on_c, 0, 73, 0
2, 193011, Note_on_c, 0, 61, 32
2, 193013, Note_on_c, 0, 65, 28
2, 193073, Note_on_c, 0, 69, 25
2, 193119, Note_on_c, 0, 69, 0
2, 193195, Note_on_c, 0, 72, 70
2, 193219, Note_on_c, 0, 65, 0
2, 193328, Note_on_c, 0, 72, 0
2, 193422, Note_on_c, 0, 69, 32
2, 193471, Note_on_c, 0, 69, 0
2, 193578, Note_on_c, 0, 70, 49
2, 193718, Note_on_c, 0, 70, 0
2, 193787, Note_on_c, 0, 72, 74
2, 193835, Note_on_c, 0, 61, 0
2, 193899, Note_on_c, 0, 56, 0
2, 193924, Note_on_c, 0, 72, 0
2, 193983, Note_on_c, 0, 65, 37
2, 193992, Note_on_c, 0, 61, 33
2, 193997, Note_on_c, 0, 55, 44
2, 194002, Note_on_c, 0, 73, 48
2, 194104, Note_on_c, 0, 65, 0
2, 194159, Note_on_c, 0, 73, 0
2, 194178, Note_on_c, 0, 61, 0
2, 194251, Note_on_c, 0, 75, 61
2, 194288, Note_on_c, 0, 63, 50
2, 194357, Note_on_c, 0, 63, 0
2, 194404, Note_on_c, 0, 75, 0
2, 194415, Note_on_c, 0, 55, 0
2, 194478, Note_on_c, 0, 72, 41
2, 194673, Note_on_c, 0, 72, 0
2, 194727, Note_on_c, 0, 73, 39
2, 194836, Note_on_c, 0, 73, 0
2, 194908, Note_on_c, 0, 61, 44
2, 194959, Note_on_c, 0, 70, 59
2, 194975, Note_on_c, 0, 55, 24
2, 194999, Note_on_c, 0, 61, 0
2, 195024, Note_on_c, 0, 55, 0
2, 195329, Note_on_c, 0, 70, 0
2, 195417, Note_on_c, 0, 67, 51
2, 195631, Note_on_c, 0, 67, 0
2, 195799, Note_on_c, 0, 64, 22
2, 195841, Note_on_c, 0, 64, 0
2, 195995, Note_on_c, 0, 60, 24
2, 196194, Note_on_c, 0, 60, 0
2, 196296, Note_on_c, 0, 60, 57
2, 196375, Note_on_c, 0, 60, 0
2, 196836, Note_on_c, 0, 60, 47
2, 197635, Note_on_c, 0, 60, 0
2, 197648, Note_on_c, 0, 55, 22
2, 197804, Note_on_c, 0, 62, 79
2, 197866, Note_on_c, 0, 55, 0
2, 198014, Note_on_c, 0, 62, 0
2, 198079, Note_on_c, 0, 63, 43
2, 198114, Note_on_c, 0, 62, 53
2, 198196, Note_on_c, 0, 55, 19
2, 198214, Note_on_c, 0, 63, 0
2, 198264, Note_on_c, 0, 62, 0
2, 198271, Note_on_c, 0, 60, 38
2, 198282, Note_on_c, 0, 55, 0
2, 198483, Note_on_c, 0, 60, 0
2, 198571, Note_on_c, 0, 59, 28
2, 198696, Note_on_c, 0, 59, 0
2, 198736, Note_on_c, 0, 56, 45
2, 198738, Note_on_c, 0, 62, 69
2, 198772, Note_on_c, 0, 47, 33
2, 198853, Note_on_c, 0, 56, 0
2, 198924, Note_on_c, 0, 47, 0
2, 199061, Note_on_c, 0, 53, 48
2, 199195, Note_on_c, 0, 62, 0
2, 199276, Note_on_c, 0, 53, 0
2, 199753, Note_on_c, 0, 56, 46
2, 199765, Note_on_c, 0, 46, 37
2, 200118, Note_on_c, 0, 56, 0
2, 200762, Note_on_c, 0, 53, 36
2, 200856, Note_on_c, 0, 46, 0
2, 200868, Note_on_c, 0, 53, 0
2, 201250, Note_on_c, 0, 65, 62
2, 201251, Note_on_c, 0, 60, 55
2, 201254, Note_on_c, 0, 61, 56
2, 201269, Note_on_c, 0, 56, 49
2, 201941, Note_on_c, 0, 70, 59
2, 202090, Note_on_c, 0, 70, 0
2, 202140, Note_on_c, 0, 75, 56
2, 202291, Note_on_c, 0, 65, 0
2, 202337, Note_on_c, 0, 75, 0
2, 202375, Note_on_c, 0, 61, 0
2, 202380, Note_on_c, 0, 77, 66
2, 202417, Note_on_c, 0, 65, 33
2, 202447, Note_on_c, 0, 61, 11
2, 202513, Note_on_c, 0, 77, 0
2, 202599, Note_on_c, 0, 73, 36
2, 202702, Note_on_c, 0, 65, 0
2, 202759, Note_on_c, 0, 73, 0
2, 202833, Note_on_c, 0, 60, 0
2, 202838, Note_on_c, 0, 77, 36
2, 202955, Note_on_c, 0, 77, 0
2, 202969, Note_on_c, 0, 56, 0
2, 203022, Note_on_c, 0, 82, 67
2, 203104, Note_on_c, 0, 61, 0
2, 203228, Note_on_c, 0, 82, 0
2, 203283, Note_on_c, 0, 84, 77
2, 203417, Note_on_c, 0, 84, 0
2, 203495, Note_on_c, 0, 61, 36
2, 203549, Note_on_c, 0, 82, 44
2, 203595, Note_on_c, 0, 61, 0
2, 203701, Note_on_c, 0, 82, 0
2, 203876, Note_on_c, 0, 79, 70
2, 203908, Note_on_c, 0, 63, 47
2, 203921, Note_on_c, 0, 60, 47
2, 203931, Note_on_c, 0, 58, 43
2, 203971, Note_on_c, 0, 53, 25
2, 204297, Note_on_c, 0, 60, 0
2, 204415, Note_on_c, 0, 79, 0
2, 204440, Note_on_c, 0, 60, 17
2, 204477, Note_on_c, 0, 75, 67
2, 204502, Note_on_c, 0, 63, 0
2, 204662, Note_on_c, 0, 60, 0
2, 204814, Note_on_c, 0, 72, 45
2, 204899, Note_on_c, 0, 75, 0
2, 204904, Note_on_c, 0, 72, 0
2, 205264, Control_c, 0, 64, 127
2, 205408, Note_on_c, 0, 53, 0
2, 205498, Control_c, 0, 64, 0
2, 205514, Note_on_c, 0, 58, 0
2, 205537, Note_on_c, 0, 87, 78
2, 205544, Note_on_c, 0, 63, 71
2, 205545, Note_on_c, 0, 75, 83
2, 205551, Note_on_c, 0, 54, 67
2, 205552, Note_on_c, 0, 60, 62
2, 205575, Note_on_c, 0, 81, 44
2, 205631, Note_on_c, 0, 81, 0
2, 205684, Note_on_c, 0, 75, 0
2, 205697, Note_on_c, 0, 63, 0
2, 205704, Note_on_c, 0, 87, 0
2, 205714, Note_on_c, 0, 54, 0
2, 205769, Note_on_c, 0, 60, 0
2, 205864, Note_on_c, 0, 84, 64
2, 205875, Note_on_c, 0, 63, 44
2, 205882, Note_on_c, 0, 72, 51
2, 205887, Note_on_c, 0, 54, 39
2, 205890, Note_on_c, 0, 60, 36
2, 206098, Control_c, 0, 64, 127
2, 206125, Note_on_c, 0, 84, 0
2, 206239, Note_on_c, 0, 72, 0
2, 206268, Note_on_c, 0, 60, 0
2, 206312, Note_on_c, 0, 63, 0
2, 206359, Note_on_c, 0, 54, 0
2, 206400, Control_c, 0, 64, 0
2, 206460, Note_on_c, 0, 63, 36
2, 206468, Note_on_c, 0, 81, 43
2, 206475, Note_on_c, 0, 54, 21
2, 206487, Note_on_c, 0, 69, 30
2, 206490, Note_on_c, 0, 60, 34
2, 206600, Control_c, 0, 64, 127
2, 206680, Note_on_c, 0, 54, 0
2, 206684, Note_on_c, 0, 63, 0
2, 206702, Note_on_c, 0, 69, 0
2, 206760, Control_c, 0, 64, 0
2, 206762, Note_on_c, 0, 81, 0
2, 206775, Note_on_c, 0, 75, 52
2, 206806, Note_on_c, 0, 63, 37
2, 206818, Note_on_c, 0, 54, 26
2, 206844, Note_on_c, 0, 60, 0
2, 206865, Note_on_c, 0, 75, 0
2, 206902, Note_on_c, 0, 54, 0
2, 206910, Note_on_c, 0, 63, 0
2, 207064, Control_c, 0, 64, 127
2, 207398, Control_c, 0, 64, 0
2, 207415, Note_on_c, 0, 65, 53
2, 207426, Note_on_c, 0, 61, 33
2, 207434, Note_on_c, 0, 60, 33
2, 207440, Note_on_c, 0, 87, 65
2, 207444, Note_on_c, 0, 56, 33
2, 207453, Note_on_c, 0, 75, 53
2, 207648, Control_c, 0, 64, 127
2, 207976, Note_on_c, 0, 75, 0
2, 208081, Note_on_c, 0, 61, 0
2, 208114, Note_on_c, 0, 65, 0
2, 208138, Note_on_c, 0, 60, 0
2, 208187, Note_on_c, 0, 87, 0
2, 208354, Control_c, 0, 64, 0
2, 208413, Note_on_c, 0, 85, 71
2, 208414, Note_on_c, 0, 65, 37
2, 208415, Note_on_c, 0, 61, 37
2, 208453, Note_on_c, 0, 60, 26
2, 208553, Note_on_c, 0, 85, 0
2, 208615, Note_on_c, 0, 87, 53
2, 208681, Note_on_c, 0, 85, 36
2, 208812, Note_on_c, 0, 87, 0
2, 208833, Note_on_c, 0, 84, 36
2, 208878, Note_on_c, 0, 65, 0
2, 208901, Note_on_c, 0, 85, 0
2, 208975, Note_on_c, 0, 60, 0
2, 209003, Note_on_c, 0, 84, 0
2, 209029, Note_on_c, 0, 61, 0
2, 209131, Note_on_c, 0, 85, 73
2, 209302, Note_on_c, 0, 56, 0
2, 209314, Note_on_c, 0, 85, 0
2, 209391, Note_on_c, 0, 55, 42
2, 209394, Note_on_c, 0, 65, 31
2, 209398, Note_on_c, 0, 61, 33
2, 209420, Note_on_c, 0, 87, 54
2, 209671, Note_on_c, 0, 87, 0
2, 209720, Note_on_c, 0, 88, 57
2, 210017, Note_on_c, 0, 90, 62
2, 210071, Note_on_c, 0, 88, 0
2, 210130, Note_on_c, 0, 65, 0
2, 210180, Note_on_c, 0, 61, 0
2, 210201, Note_on_c, 0, 55, 0
2, 210288, Note_on_c, 0, 90, 0
2, 210323, Note_on_c, 0, 61, 34
2, 210326, Note_on_c, 0, 55, 43
2, 210333, Note_on_c, 0, 91, 71
2, 210340, Note_on_c, 0, 64, 40
2, 210352, Control_c, 0, 64, 127
2, 210535, Note_on_c, 0, 64, 0
2, 210552, Note_on_c, 0, 91, 0
2, 210566, Note_on_c, 0, 61, 0
2, 210581, Note_on_c, 0, 55, 0
2, 210619, Note_on_c, 0, 92, 72
2, 210643, Note_on_c, 0, 55, 20
2, 210666, Note_on_c, 0, 61, 32
2, 210693, Note_on_c, 0, 64, 24
2, 210741, Note_on_c, 0, 64, 0
2, 210774, Note_on_c, 0, 61, 0
2, 210775, Note_on_c, 0, 92, 0
2, 210815, Note_on_c, 0, 93, 65
2, 210887, Note_on_c, 0, 61, 23
2, 210952, Note_on_c, 0, 55, 0
2, 210957, Control_c, 0, 64, 0
2, 210961, Note_on_c, 0, 93, 0
2, 210970, Note_on_c, 0, 94, 60
2, 211028, Note_on_c, 0, 61, 0
2, 211059, Control_c, 0, 64, 127
2, 211123, Note_on_c, 0, 94, 0
2, 211132, Note_on_c, 0, 95, 52
2, 211259, Control_c, 0, 64, 0
2, 211324, Note_on_c, 0, 63, 40
2, 211347, Note_on_c, 0, 95, 0
2, 211350, Note_on_c, 0, 60, 48
2, 211361, Note_on_c, 0, 53, 39
2, 211363, Note_on_c, 0, 58, 37
2, 211372, Note_on_c, 0, 96, 71
2, 211398, Note_on_c, 0, 84, 57
2, 211575, Control_c, 0, 64, 127
2, 211917, Note_on_c, 0, 96, 0
2, 212059, Note_on_c, 0, 84, 0
2, 212226, Note_on_c, 0, 53, 0
2, 212313, Note_on_c, 0, 63, 0
2, 212324, Note_on_c, 0, 60, 0
2, 212373, Note_on_c, 0, 58, 0
2, 212822, Control_c, 0, 64, 0
2, 212845, Note_on_c, 0, 82, 82
2, 212852, Note_on_c, 0, 67, 77
2, 212853, Note_on_c, 0, 75, 84
2, 212858, Note_on_c, 0, 72, 83
2, 212868, Note_on_c, 0, 80, 45
2, 212875, Note_on_c, 0, 79, 54
2, 212916, Note_on_c, 0, 79, 0
2, 212977, Note_on_c, 0, 80, 0
2, 212996, Note_on_c, 0, 82, 0
2, 213025, Note_on_c, 0, 75, 0
2, 213035, Note_on_c, 0, 72, 0
2, 213232, Note_on_c, 0, 79, 66
2, 213247, Note_on_c, 0, 63, 60
2, 213251, Note_on_c, 0, 75, 37
2, 213252, Note_on_c, 0, 68, 39
2, 213254, Note_on_c, 0, 72, 46
2, 213275, Note_on_c, 0, 67, 0
2, 213352, Note_on_c, 0, 72, 0
2, 213360, Note_on_c, 0, 79, 0
2, 213370, Note_on_c, 0, 75, 0
2, 213391, Note_on_c, 0, 68, 0
2, 213424, Note_on_c, 0, 63, 0
2, 213783, Note_on_c, 0, 75, 59
2, 213809, Note_on_c, 0, 60, 60
2, 213810, Note_on_c, 0, 68, 59
2, 213820, Note_on_c, 0, 65, 58
2, 213893, Note_on_c, 0, 60, 0
2, 213917, Note_on_c, 0, 75, 0
2, 213921, Note_on_c, 0, 65, 0
2, 213926, Note_on_c, 0, 68, 0
2, 213955, Control_c, 0, 64, 127
2, 214122, Control_c, 0, 64, 0
2, 214173, Note_on_c, 0, 72, 49
2, 214181, Note_on_c, 0, 65, 64
2, 214184, Note_on_c, 0, 68, 45
2, 214195, Note_on_c, 0, 56, 60
2, 214217, Note_on_c, 0, 60, 35
2, 214477, Note_on_c, 0, 68, 0
2, 214578, Note_on_c, 0, 60, 0
2, 214636, Note_on_c, 0, 72, 0
2, 214671, Note_on_c, 0, 56, 0
2, 214720, Note_on_c, 0, 65, 0
2, 214763, Note_on_c, 0, 53, 36
2, 214854, Control_c, 0, 64, 127
2, 215033, Control_c, 0, 64, 0
2, 215079, Note_on_c, 0, 53, 0
2, 215085, Note_on_c, 0, 72, 60
2, 215088, Note_on_c, 0, 65, 62
2, 215096, Note_on_c, 0, 61, 50
2, 215127, Note_on_c, 0, 55, 42
2, 215324, Control_c, 0, 64, 127
2, 215366, Note_on_c, 0, 55, 0
2, 215470, Note_on_c, 0, 72, 0
2, 215537, Note_on_c, 0, 65, 0
2, 215629, Note_on_c, 0, 61, 0
2, 216053, Control_c, 0, 64, 0
2, 216061, Note_on_c, 0, 68, 49
2, 216086, Note_on_c, 0, 43, 32
2, 216088, Note_on_c, 0, 61, 37
2, 216093, Note_on_c, 0, 58, 23
2, 216101, Note_on_c, 0, 64, 45
2, 216436, Control_c, 0, 64, 127
2, 216512, Note_on_c, 0, 58, 0
2, 216545, Note_on_c, 0, 64, 0
2, 216546, Note_on_c, 0, 61, 0
2, 216568, Note_on_c, 0, 68, 0
2, 216654, Note_on_c, 0, 61, 35
2, 216660, Note_on_c, 0, 67, 49
2, 216723, Note_on_c, 0, 61, 0
2, 216725, Note_on_c, 0, 43, 0
2, 216774, Control_c, 0, 64, 0
2, 216820, Note_on_c, 0, 67, 0
2, 216951, Note_on_c, 0, 36, 24
2, 216984, Note_on_c, 0, 52, 30
2, 217040, Control_c, 0, 64, 127
2, 217228, Note_on_c, 0, 36, 0
2, 217248, Note_on_c, 0, 72, 38
2, 217249, Note_on_c, 0, 84, 53
2, 217380, Note_on_c, 0, 52, 0
2, 217713, Note_on_c, 0, 72, 0
2, 217720, Note_on_c, 0, 84, 0
2, 217903, Note_on_c, 0, 84, 49
2, 217910, Note_on_c, 0, 72, 41
2, 217914, Note_on_c, 0, 61, 31
2, 217917, Control_c, 0, 64, 0
2, 217919, Note_on_c, 0, 64, 34
2, 217927, Note_on_c, 0, 54, 27
2, 217933, Note_on_c, 0, 58, 37
2, 218254, Control_c, 0, 64, 127
2, 218439, Note_on_c, 0, 72, 0
2, 218456, Note_on_c, 0, 54, 0
2, 218535, Note_on_c, 0, 64, 0
2, 218561, Note_on_c, 0, 84, 0
2, 218587, Note_on_c, 0, 61, 0
2, 218623, Note_on_c, 0, 58, 0
2, 218884, Control_c, 0, 64, 0
2, 218906, Note_on_c, 0, 84, 47
2, 218908, Note_on_c, 0, 64, 36
2, 218914, Note_on_c, 0, 74, 32
2, 218936, Note_on_c, 0, 79, 39
2, 218937, Note_on_c, 0, 60, 36
2, 218946, Note_on_c, 0, 57, 33
2, 218979, Note_on_c, 0, 53, 20
2, 219311, Control_c, 0, 64, 127
2, 219312, Note_on_c, 0, 84, 0
2, 219341, Note_on_c, 0, 79, 0
2, 219378, Note_on_c, 0, 74, 0
2, 219493, Note_on_c, 0, 64, 0
2, 219529, Note_on_c, 0, 60, 0
2, 219884, Note_on_c, 0, 77, 66
2, 219887, Note_on_c, 0, 64, 55
2, 219889, Note_on_c, 0, 72, 64
2, 219903, Note_on_c, 0, 69, 52
2, 219907, Note_on_c, 0, 60, 32
2, 219914, Control_c, 0, 64, 0
2, 220095, Control_c, 0, 64, 127
2, 220251, Note_on_c, 0, 64, 0
2, 220315, Note_on_c, 0, 60, 0
2, 220405, Note_on_c, 0, 57, 0
2, 220483, Note_on_c, 0, 53, 0
2, 220765, Note_on_c, 0, 77, 0
2, 220785, Note_on_c, 0, 72, 0
2, 220839, Note_on_c, 0, 69, 0
2, 220847, Control_c, 0, 64, 0
2, 220865, Note_on_c, 0, 50, 34
2, 220866, Note_on_c, 0, 57, 38
2, 220867, Note_on_c, 0, 60, 25
2, 221185, Control_c, 0, 64, 127
2, 221250, Note_on_c, 0, 60, 0
2, 221316, Note_on_c, 0, 57, 0
2, 221706, Note_on_c, 0, 50, 0
2, 221817, Note_on_c, 0, 65, 45
2, 221819, Note_on_c, 0, 57, 42
2, 221820, Note_on_c, 0, 62, 57
2, 221825, Control_c, 0, 64, 0
2, 221832, Note_on_c, 0, 60, 52
2, 222139, Note_on_c, 0, 53, 69
2, 222383, Note_on_c, 0, 53, 0
2, 222416, Note_on_c, 0, 57, 0
2, 222428, Note_on_c, 0, 65, 0
2, 222442, Note_on_c, 0, 62, 0
2, 222449, Note_on_c, 0, 60, 0
2, 222464, Note_on_c, 0, 54, 61
2, 222520, Control_c, 0, 64, 127
2, 222689, Control_c, 0, 64, 0
2, 222764, Note_on_c, 0, 67, 73
2, 222772, Note_on_c, 0, 55, 68
2, 222776, Note_on_c, 0, 58, 59
2, 222777, Note_on_c, 0, 62, 72
2, 222787, Note_on_c, 0, 54, 0
2, 222819, Note_on_c, 0, 58, 0
2, 222962, Control_c, 0, 64, 127
2, 223066, Note_on_c, 0, 67, 0
2, 223164, Note_on_c, 0, 55, 0
2, 223213, Note_on_c, 0, 62, 0
2, 223297, Control_c, 0, 64, 0
2, 223365, Note_on_c, 0, 57, 71
2, 223384, Note_on_c, 0, 58, 84
2, 223385, Note_on_c, 0, 69, 62
2, 223386, Note_on_c, 0, 62, 77
2, 223403, Note_on_c, 0, 65, 58
2, 223416, Note_on_c, 0, 68, 30
2, 223467, Control_c, 0, 64, 127
2, 223494, Note_on_c, 0, 68, 0
2, 223523, Note_on_c, 0, 69, 0
2, 223548, Note_on_c, 0, 58, 0
2, 223656, Note_on_c, 0, 62, 0
2, 223674, Note_on_c, 0, 57, 0
2, 223682, Note_on_c, 0, 65, 0
2, 223735, Control_c, 0, 64, 0
2, 223748, Note_on_c, 0, 70, 60
2, 223757, Note_on_c, 0, 58, 58
2, 223764, Note_on_c, 0, 62, 56
2, 223783, Note_on_c, 0, 65, 51
2, 223933, Note_on_c, 0, 70, 0
2, 223949, Note_on_c, 0, 62, 0
2, 223974, Note_on_c, 0, 58, 0
2, 223979, Note_on_c, 0, 65, 0
2, 224031, Note_on_c, 0, 58, 29
2, 224038, Note_on_c, 0, 69, 43
2, 224046, Note_on_c, 0, 57, 43
2, 224048, Note_on_c, 0, 62, 44
2, 224070, Note_on_c, 0, 65, 19
2, 224132, Note_on_c, 0, 62, 0
2, 224157, Note_on_c, 0, 65, 0
2, 224171, Note_on_c, 0, 57, 0
2, 224172, Note_on_c, 0, 58, 0
2, 224182, Note_on_c, 0, 69, 0
2, 224363, Note_on_c, 0, 67, 53
2, 224365, Note_on_c, 0, 58, 44
2, 224374, Note_on_c, 0, 61, 38
2, 224388, Note_on_c, 0, 48, 34
2, 224401, Note_on_c, 0, 64, 39
2, 224403, Note_on_c, 0, 55, 29
2, 224516, Note_on_c, 0, 58, 0
2, 224567, Control_c, 0, 64, 127
2, 224589, Note_on_c, 0, 64, 0
2, 224595, Note_on_c, 0, 61, 0
2, 224615, Note_on_c, 0, 67, 0
2, 224874, Note_on_c, 0, 48, 0
2, 224909, Note_on_c, 0, 55, 0
2, 224912, Note_on_c, 0, 84, 71
2, 225281, Note_on_c, 0, 84, 0
2, 225561, Note_on_c, 0, 81, 66
2, 225564, Note_on_c, 0, 73, 47
2, 225572, Note_on_c, 0, 76, 57
2, 225574, Note_on_c, 0, 69, 57
2, 225587, Note_on_c, 0, 58, 53
2, 225590, Control_c, 0, 64, 0
2, 225599, Note_on_c, 0, 64, 44
2, 225836, Control_c, 0, 64, 127
2, 226086, Note_on_c, 0, 81, 0
2, 226142, Note_on_c, 0, 76, 0
2, 226155, Note_on_c, 0, 69, 0
2, 226197, Note_on_c, 0, 64, 0
2, 226284, Note_on_c, 0, 73, 0
2, 226361, Note_on_c, 0, 58, 0
2, 226570, Note_on_c, 0, 77, 41
2, 226576, Control_c, 0, 64, 0
2, 226579, Note_on_c, 0, 57, 43
2, 226584, Note_on_c, 0, 72, 37
2, 226585, Note_on_c, 0, 67, 33
2, 226591, Note_on_c, 0, 62, 42
2, 226874, Note_on_c, 0, 77, 0
2, 226882, Note_on_c, 0, 72, 0
2, 226924, Control_c, 0, 64, 127
2, 226992, Note_on_c, 0, 67, 0
2, 227212, Note_on_c, 0, 57, 0
2, 227253, Note_on_c, 0, 69, 108
2, 227272, Note_on_c, 0, 62, 0
2, 227525, Note_on_c, 0, 69, 0
2, 227575, Control_c, 0, 64, 0
2, 227589, Note_on_c, 0, 70, 87
2, 227593, Note_on_c, 0, 61, 65
2, 227594, Note_on_c, 0, 55, 67
2, 227602, Note_on_c, 0, 65, 60
2, 227823, Note_on_c, 0, 70, 0
2, 227896, Note_on_c, 0, 72, 90
2, 228130, Note_on_c, 0, 72, 0
2, 228191, Note_on_c, 0, 70, 69
2, 228295, Control_c, 0, 64, 127
2, 228302, Note_on_c, 0, 55, 0
2, 228304, Note_on_c, 0, 65, 0
2, 228450, Note_on_c, 0, 61, 0
2, 228452, Note_on_c, 0, 70, 0
2, 228474, Control_c, 0, 64, 0
2, 228535, Note_on_c, 0, 69, 45
2, 228546, Note_on_c, 0, 60, 29
2, 228559, Note_on_c, 0, 64, 30
2, 228562, Note_on_c, 0, 54, 34
2, 228832, Note_on_c, 0, 69, 0
2, 228844, Control_c, 0, 64, 127
2, 229046, Control_c, 0, 64, 0
2, 229063, Note_on_c, 0, 64, 0
2, 229110, Note_on_c, 0, 83, 55
2, 229111, Note_on_c, 0, 81, 62
2, 229141, Note_on_c, 0, 60, 0
2, 229205, Control_c, 0, 64, 127
2, 229222, Note_on_c, 0, 83, 0
2, 229227, Note_on_c, 0, 81, 0
2, 229361, Control_c, 0, 64, 0
2, 229435, Note_on_c, 0, 64, 38
2, 229444, Note_on_c, 0, 69, 44
2, 229453, Note_on_c, 0, 60, 35
2, 229513, Note_on_c, 0, 60, 0
2, 229514, Note_on_c, 0, 64, 0
2, 229567, Note_on_c, 0, 69, 0
2, 229586, Note_on_c, 0, 54, 0
2, 229761, Note_on_c, 0, 74, 28
2, 229972, Note_on_c, 0, 74, 0
2, 229982, Note_on_c, 0, 81, 34
2, 230047, Note_on_c, 0, 81, 0
2, 230202, Note_on_c, 0, 84, 68
2, 230248, Control_c, 0, 64, 127
2, 230349, Control_c, 0, 64, 0
2, 230369, Note_on_c, 0, 84, 0
2, 230420, Note_on_c, 0, 58, 29
2, 230429, Note_on_c, 0, 62, 28
2, 230451, Note_on_c, 0, 57, 22
2, 230456, Note_on_c, 0, 53, 29
2, 230461, Note_on_c, 0, 82, 49
2, 230765, Note_on_c, 0, 82, 0
2, 230777, Note_on_c, 0, 62, 0
2, 230796, Note_on_c, 0, 53, 0
2, 230801, Note_on_c, 0, 58, 0
2, 230803, Note_on_c, 0, 57, 0
2, 231061, Note_on_c, 0, 84, 74
2, 231233, Note_on_c, 0, 84, 0
2, 231247, Control_c, 0, 64, 127
2, 231325, Control_c, 0, 64, 0
2, 231351, Note_on_c, 0, 85, 64
2, 231370, Note_on_c, 0, 57, 55
2, 231374, Note_on_c, 0, 73, 67
2, 231377, Note_on_c, 0, 62, 53
2, 231390, Note_on_c, 0, 58, 46
2, 231424, Note_on_c, 0, 62, 0
2, 231460, Note_on_c, 0, 57, 0
2, 231493, Note_on_c, 0, 58, 0
2, 231521, Note_on_c, 0, 85, 0
2, 231527, Note_on_c, 0, 73, 0
2, 231558, Note_on_c, 0, 74, 37
2, 231664, Note_on_c, 0, 74, 0
2, 231687, Note_on_c, 0, 86, 55
2, 231826, Note_on_c, 0, 74, 56
2, 231841, Note_on_c, 0, 86, 0
2, 231926, Note_on_c, 0, 74, 0
2, 232037, Note_on_c, 0, 84, 51
2, 232061, Note_on_c, 0, 72, 47
2, 232146, Note_on_c, 0, 84, 0
2, 232218, Note_on_c, 0, 72, 0
2, 232336, Note_on_c, 0, 58, 44
2, 232338, Note_on_c, 0, 62, 48
2, 232369, Note_on_c, 0, 52, 24
2, 232388, Note_on_c, 0, 62, 0
2, 232420, Note_on_c, 0, 70, 39
2, 232434, Note_on_c, 0, 52, 0
2, 232444, Note_on_c, 0, 58, 0
2, 232542, Note_on_c, 0, 82, 55
2, 232566, Note_on_c, 0, 70, 0
2, 232713, Note_on_c, 0, 82, 0
2, 232785, Note_on_c, 0, 72, 54
2, 232903, Note_on_c, 0, 72, 0
2, 232907, Note_on_c, 0, 84, 61
2, 233076, Note_on_c, 0, 84, 0
2, 233309, Note_on_c, 0, 74, 49
2, 233358, Note_on_c, 0, 58, 36
2, 233363, Note_on_c, 0, 62, 43
2, 233373, Note_on_c, 0, 79, 34
2, 233391, Note_on_c, 0, 52, 24
2, 233400, Note_on_c, 0, 86, 68
2, 233428, Note_on_c, 0, 74, 0
2, 233449, Note_on_c, 0, 62, 0
2, 233465, Note_on_c, 0, 52, 0
2, 233511, Note_on_c, 0, 58, 0
2, 233550, Note_on_c, 0, 86, 0
2, 233554, Note_on_c, 0, 79, 0
2, 233743, Note_on_c, 0, 76, 46
2, 233831, Note_on_c, 0, 79, 38
2, 233864, Note_on_c, 0, 88, 70
2, 233922, Note_on_c, 0, 79, 0
2, 233943, Note_on_c, 0, 76, 0
2, 234025, Note_on_c, 0, 88, 0
2, 234053, Control_c, 0, 64, 127
2, 234210, Control_c, 0, 64, 0
2, 234251, Note_on_c, 0, 77, 44
2, 234276, Note_on_c, 0, 58, 36
2, 234280, Note_on_c, 0, 67, 35
2, 234286, Note_on_c, 0, 89, 58
2, 234299, Note_on_c, 0, 63, 33
2, 234317, Note_on_c, 0, 62, 34
2, 234458, Note_on_c, 0, 77, 0
2, 234487, Note_on_c, 0, 89, 0
2, 234558, Note_on_c, 0, 67, 0
2, 234566, Note_on_c, 0, 62, 0
2, 234582, Note_on_c, 0, 63, 0
2, 234590, Note_on_c, 0, 58, 0
2, 234791, Note_on_c, 0, 89, 71
2, 234800, Note_on_c, 0, 67, 64
2, 234801, Note_on_c, 0, 77, 62
2, 234804, Note_on_c, 0, 84, 70
2, 234809, Note_on_c, 0, 58, 58
2, 234813, Note_on_c, 0, 62, 57
2, 234818, Note_on_c, 0, 63, 45
2, 234929, Control_c, 0, 64, 127
2, 235050, Note_on_c, 0, 77, 0
2, 235055, Note_on_c, 0, 67, 0
2, 235059, Note_on_c, 0, 58, 0
2, 235063, Note_on_c, 0, 89, 0
2, 235064, Note_on_c, 0, 62, 0
2, 235069, Note_on_c, 0, 84, 0
2, 235081, Note_on_c, 0, 63, 0
2, 235143, Control_c, 0, 64, 0
2, 235232, Note_on_c, 0, 58, 69
2, 235237, Note_on_c, 0, 67, 66
2, 235241, Note_on_c, 0, 63, 59
2, 235242, Note_on_c, 0, 89, 71
2, 235244, Note_on_c, 0, 62, 66
2, 235248, Note_on_c, 0, 77, 69
2, 235249, Note_on_c, 0, 84, 76
2, 235360, Control_c, 0, 64, 127
2, 235390, Note_on_c, 0, 77, 0
2, 235428, Note_on_c, 0, 58, 0
2, 235442, Note_on_c, 0, 89, 0
2, 235447, Note_on_c, 0, 84, 0
2, 235451, Note_on_c, 0, 67, 0
2, 235475, Note_on_c, 0, 62, 0
2, 235492, Note_on_c, 0, 63, 0
2, 235568, Note_on_c, 0, 91, 79
2, 235575, Note_on_c, 0, 63, 62
2, 235576, Note_on_c, 0, 62, 59
2, 235577, Note_on_c, 0, 67, 64
2, 235578, Note_on_c, 0, 86, 74
2, 235581, Note_on_c, 0, 79, 71
2, 235582, Note_on_c, 0, 58, 68
2, 235696, Control_c, 0, 64, 0
2, 235700, Note_on_c, 0, 79, 0
2, 235712, Note_on_c, 0, 91, 0
2, 235717, Note_on_c, 0, 86, 0
2, 235723, Note_on_c, 0, 67, 0
2, 235724, Note_on_c, 0, 58, 0
2, 235794, Note_on_c, 0, 89, 59
2, 235798, Note_on_c, 0, 58, 59
2, 235806, Note_on_c, 0, 67, 57
2, 235807, Note_on_c, 0, 77, 51
2, 235841, Note_on_c, 0, 84, 30
2, 235853, Note_on_c, 0, 85, 26
2, 235943, Note_on_c, 0, 77, 0
2, 235977, Note_on_c, 0, 85, 0
2, 235981, Note_on_c, 0, 84, 0
2, 235982, Note_on_c, 0, 67, 0
2, 235986, Note_on_c, 0, 58, 0
2, 235988, Note_on_c, 0, 89, 0
2, 236012, Note_on_c, 0, 63, 0
2, 236016, Note_on_c, 0, 62, 0
2, 236090, Note_on_c, 0, 91, 76
2, 236092, Note_on_c, 0, 58, 60
2, 236097, Note_on_c, 0, 67, 43
2, 236102, Note_on_c, 0, 86, 70
2, 236106, Note_on_c, 0, 63, 49
2, 236111, Note_on_c, 0, 62, 42
2, 236118, Note_on_c, 0, 79, 40
2, 236122, Control_c, 0, 64, 127
2, 236205, Note_on_c, 0, 62, 0
2, 236217, Note_on_c, 0, 67, 0
2, 236221, Note_on_c, 0, 79, 0
2, 236228, Note_on_c, 0, 86, 0
2, 236245, Note_on_c, 0, 91, 0
2, 236267, Note_on_c, 0, 63, 0
2, 236276, Note_on_c, 0, 58, 0
2, 236299, Control_c, 0, 64, 0
2, 236343, Note_on_c, 0, 89, 60
2, 236348, Note_on_c, 0, 84, 61
2, 236353, Note_on_c, 0, 67, 44
2, 236354, Note_on_c, 0, 57, 62
2, 236358, Note_on_c, 0, 63, 46
2, 236363, Note_on_c, 0, 77, 38
2, 236478, Note_on_c, 0, 84, 0
2, 236484, Note_on_c, 0, 89, 0
2, 236507, Note_on_c, 0, 77, 0
2, 236525, Control_c, 0, 64, 127
2, 236557, Note_on_c, 0, 67, 0
2, 236579, Note_on_c, 0, 57, 0
2, 236626, Note_on_c, 0, 63, 0
2, 236666, Note_on_c, 0, 86, 65
2, 236674, Note_on_c, 0, 74, 51
2, 236676, Note_on_c, 0, 80, 55
2, 236682, Control_c, 0, 64, 0
2, 236715, Note_on_c, 0, 63, 36
2, 236718, Note_on_c, 0, 67, 42
2, 236719, Note_on_c, 0, 57, 44
2, 236924, Note_on_c, 0, 81, 24
2, 236926, Note_on_c, 0, 80, 0
2, 236942, Control_c, 0, 64, 127
2, 237016, Note_on_c, 0, 81, 0
2, 237044, Note_on_c, 0, 86, 0
2, 237071, Note_on_c, 0, 67, 0
2, 237073, Note_on_c, 0, 57, 0
2, 237103, Note_on_c, 0, 74, 0
2, 237113, Note_on_c, 0, 63, 0
2, 237187, Control_c, 0, 64, 0
2, 237231, Note_on_c, 0, 84, 62
2, 237240, Note_on_c, 0, 80, 50
2, 237243, Note_on_c, 0, 72, 43
2, 237245, Note_on_c, 0, 63, 44
2, 237255, Note_on_c, 0, 67, 44
2, 237256, Note_on_c, 0, 57, 46
2, 237274, Note_on_c, 0, 78, 32
2, 237359, Note_on_c, 0, 78, 0
2, 237413, Control_c, 0, 64, 127
2, 237699, Note_on_c, 0, 84, 0
2, 237705, Note_on_c, 0, 80, 0
2, 237732, Note_on_c, 0, 67, 0
2, 237738, Note_on_c, 0, 72, 0
2, 237809, Note_on_c, 0, 57, 0
2, 237852, Note_on_c, 0, 63, 0
2, 238074, Control_c, 0, 64, 0
2, 238103, Note_on_c, 0, 60, 41
2, 238107, Note_on_c, 0, 62, 42
2, 238114, Note_on_c, 0, 77, 44
2, 238118, Note_on_c, 0, 72, 42
2, 238125, Note_on_c, 0, 65, 32
2, 238136, Note_on_c, 0, 55, 36
2, 238329, Note_on_c, 0, 65, 0
2, 238334, Control_c, 0, 64, 127
2, 238378, Note_on_c, 0, 72, 0
2, 238409, Note_on_c, 0, 77, 0
2, 238472, Note_on_c, 0, 55, 0
2, 238473, Note_on_c, 0, 60, 0
2, 238512, Note_on_c, 0, 62, 0
2, 238603, Control_c, 0, 64, 0
2, 238696, Note_on_c, 0, 65, 54
2, 238697, Note_on_c, 0, 79, 66
2, 238699, Note_on_c, 0, 62, 49
2, 238709, Note_on_c, 0, 55, 43
2, 238711, Note_on_c, 0, 60, 45
2, 238713, Note_on_c, 0, 74, 66
2, 238714, Note_on_c, 0, 67, 64
2, 238717, Control_c, 0, 64, 127
2, 238838, Note_on_c, 0, 67, 0
2, 238868, Note_on_c, 0, 79, 0
2, 238872, Note_on_c, 0, 65, 0
2, 238888, Note_on_c, 0, 74, 0
2, 238890, Note_on_c, 0, 55, 0
2, 238901, Note_on_c, 0, 62, 0
2, 238905, Note_on_c, 0, 60, 0
2, 238953, Control_c, 0, 64, 0
2, 239025, Note_on_c, 0, 62, 44
2, 239027, Note_on_c, 0, 81, 66
2, 239029, Note_on_c, 0, 65, 53
2, 239034, Note_on_c, 0, 60, 38
2, 239044, Note_on_c, 0, 74, 49
2, 239044, Note_on_c, 0, 55, 33
2, 239079, Note_on_c, 0, 65, 0
2, 239082, Note_on_c, 0, 74, 0
2, 239090, Note_on_c, 0, 60, 0
2, 239106, Note_on_c, 0, 62, 0
2, 239107, Note_on_c, 0, 55, 0
2, 239126, Note_on_c, 0, 81, 0
2, 239379, Note_on_c, 0, 84, 73
2, 239382, Note_on_c, 0, 62, 53
2, 239388, Note_on_c, 0, 60, 42
2, 239390, Note_on_c, 0, 65, 50
2, 239402, Note_on_c, 0, 77, 42
2, 239408, Note_on_c, 0, 72, 31
2, 239427, Note_on_c, 0, 62, 0
2, 239431, Note_on_c, 0, 65, 0
2, 239437, Note_on_c, 0, 84, 0
2, 239438, Note_on_c, 0, 60, 0
2, 239454, Note_on_c, 0, 77, 0
2, 239455, Note_on_c, 0, 72, 0
2, 239680, Note_on_c, 0, 82, 71
2, 239682, Note_on_c, 0, 62, 40
2, 239683, Note_on_c, 0, 70, 69
2, 239697, Note_on_c, 0, 55, 35
2, 239727, Note_on_c, 0, 62, 0
2, 239731, Control_c, 0, 64, 127
2, 239813, Note_on_c, 0, 70, 0
2, 239815, Note_on_c, 0, 55, 0
2, 239816, Note_on_c, 0, 82, 0
2, 239921, Control_c, 0, 64, 0
2, 239993, Note_on_c, 0, 53, 38
2, 240001, Note_on_c, 0, 81, 64
2, 240006, Note_on_c, 0, 55, 44
2, 240007, Note_on_c, 0, 62, 50
2, 240008, Note_on_c, 0, 69, 55
2, 240016, Note_on_c, 0, 74, 54
2, 240022, Note_on_c, 0, 58, 48
2, 240032, Note_on_c, 0, 77, 42
2, 240182, Control_c, 0, 64, 127
2, 240487, Note_on_c, 0, 55, 0
2, 240498, Note_on_c, 0, 53, 0
2, 240552, Note_on_c, 0, 58, 0
2, 240576, Note_on_c, 0, 62, 0
2, 240581, Note_on_c, 0, 81, 0
2, 240608, Note_on_c, 0, 77, 0
2, 240791, Note_on_c, 0, 74, 0
2, 240828, Note_on_c, 0, 69, 0
2, 240989, Control_c, 0, 64, 0
2, 241041, Note_on_c, 0, 61, 48
2, 241045, Note_on_c, 0, 73, 50
2, 241051, Note_on_c, 0, 76, 47
2, 241052, Note_on_c, 0, 79, 52
2, 241056, Note_on_c, 0, 67, 62
2, 241058, Note_on_c, 0, 58, 51
2, 241063, Note_on_c, 0, 64, 46
2, 241326, Control_c, 0, 64, 127
2, 241506, Note_on_c, 0, 64, 0
2, 241512, Note_on_c, 0, 76, 0
2, 241516, Note_on_c, 0, 79, 0
2, 241559, Note_on_c, 0, 67, 0
2, 241565, Note_on_c, 0, 61, 0
2, 241590, Note_on_c, 0, 73, 0
2, 241680, Note_on_c, 0, 58, 0
2, 241924, Control_c, 0, 64, 0
2, 241987, Note_on_c, 0, 77, 40
2, 241997, Note_on_c, 0, 65, 29
2, 242001, Note_on_c, 0, 72, 43
2, 242006, Note_on_c, 0, 62, 43
2, 242007, Note_on_c, 0, 57, 46
2, 242117, Note_on_c, 0, 65, 0
2, 242190, Note_on_c, 0, 57, 0
2, 242202, Control_c, 0, 64, 127
2, 242234, Note_on_c, 0, 72, 0
2, 242267, Note_on_c, 0, 77, 0
2, 242268, Note_on_c, 0, 62, 0
2, 242627, Note_on_c, 0, 88, 63
2, 242629, Note_on_c, 0, 76, 60
2, 242765, Note_on_c, 0, 76, 0
2, 242821, Note_on_c, 0, 88, 0
2, 242998, Control_c, 0, 64, 0
2, 243009, Note_on_c, 0, 89, 70
2, 243011, Note_on_c, 0, 77, 68
2, 243248, Control_c, 0, 64, 127
2, 243304, Note_on_c, 0, 89, 0
2, 243351, Note_on_c, 0, 77, 0
2, 243551, Control_c, 0, 64, 0
2, 243588, Note_on_c, 0, 86, 40
2, 243591, Note_on_c, 0, 84, 43
2, 243601, Note_on_c, 0, 72, 29
2, 243602, Note_on_c, 0, 74, 33
2, 243667, Note_on_c, 0, 57, 18
2, 243725, Note_on_c, 0, 57, 0
2, 243730, Note_on_c, 0, 86, 0
2, 243741, Control_c, 0, 64, 127
2, 243750, Note_on_c, 0, 74, 0
2, 243753, Note_on_c, 0, 84, 0
2, 243760, Note_on_c, 0, 72, 0
2, 243965, Control_c, 0, 64, 0
2, 243990, Note_on_c, 0, 57, 34
2, 243996, Note_on_c, 0, 62, 34
2, 244014, Note_on_c, 0, 58, 48
2, 244019, Note_on_c, 0, 53, 18
2, 244086, Note_on_c, 0, 81, 8
2, 244101, Note_on_c, 0, 74, 9
2, 244146, Note_on_c, 0, 69, 17
2, 244483, Control_c, 0, 64, 127
2, 244519, Note_on_c, 0, 81, 0
2, 244564, Note_on_c, 0, 62, 0
2, 244565, Note_on_c, 0, 57, 0
2, 244593, Note_on_c, 0, 74, 0
2, 244608, Note_on_c, 0, 58, 0
2, 244627, Note_on_c, 0, 53, 0
2, 244639, Note_on_c, 0, 69, 0
2, 244851, Control_c, 0, 64, 0
2, 244901, Note_on_c, 0, 62, 47
2, 244906, Note_on_c, 0, 58, 35
2, 244908, Note_on_c, 0, 73, 29
2, 244909, Note_on_c, 0, 67, 34
2, 244911, Note_on_c, 0, 76, 36
2, 244912, Note_on_c, 0, 79, 34
2, 244940, Note_on_c, 0, 52, 33
2, 245189, Control_c, 0, 64, 127
2, 245276, Note_on_c, 0, 79, 0
2, 245321, Note_on_c, 0, 76, 0
2, 245338, Note_on_c, 0, 52, 0
2, 245363, Note_on_c, 0, 73, 0
2, 245392, Note_on_c, 0, 67, 0
2, 245400, Note_on_c, 0, 58, 0
2, 245441, Note_on_c, 0, 62, 0
2, 245601, Note_on_c, 0, 55, 31
2, 245667, Note_on_c, 0, 58, 52
2, 245684, Note_on_c, 0, 57, 47
2, 245719, Note_on_c, 0, 55, 0
2, 245735, Note_on_c, 0, 57, 0
2, 245740, Note_on_c, 0, 59, 48
2, 245782, Control_c, 0, 64, 0
2, 245792, Note_on_c, 0, 58, 0
2, 245807, Note_on_c, 0, 76, 79
2, 245814, Note_on_c, 0, 65, 87
2, 245815, Note_on_c, 0, 60, 73
2, 245816, Note_on_c, 0, 72, 71
2, 245821, Note_on_c, 0, 69, 74
2, 245860, Note_on_c, 0, 59, 0
2, 246169, Control_c, 0, 64, 127
2, 246615, Note_on_c, 0, 65, 0
2, 246646, Note_on_c, 0, 76, 0
2, 246661, Note_on_c, 0, 69, 0
2, 246679, Note_on_c, 0, 72, 0
2, 246760, Note_on_c, 0, 60, 0
2, 246788, Note_on_c, 0, 74, 66
2, 246793, Note_on_c, 0, 65, 65
2, 246804, Note_on_c, 0, 69, 66
2, 246807, Control_c, 0, 64, 0
2, 246822, Note_on_c, 0, 58, 46
2, 246869, Note_on_c, 0, 58, 0
2, 247088, Control_c, 0, 64, 127
2, 247217, Note_on_c, 0, 74, 0
2, 247230, Note_on_c, 0, 69, 0
2, 247317, Note_on_c, 0, 65, 0
2, 247475, Note_on_c, 0, 53, 24
2, 247731, Note_on_c, 0, 53, 0
2, 247761, Control_c, 0, 64, 0
2, 247774, Note_on_c, 0, 58, 55
2, 247784, Note_on_c, 0, 69, 42
2, 247787, Note_on_c, 0, 57, 52
2, 247799, Note_on_c, 0, 62, 50
2, 247812, Note_on_c, 0, 65, 40
2, 248122, Control_c, 0, 64, 127
2, 248354, Note_on_c, 0, 57, 0
2, 248369, Note_on_c, 0, 65, 0
2, 248389, Note_on_c, 0, 62, 0
2, 248428, Note_on_c, 0, 58, 0
2, 248489, Note_on_c, 0, 69, 0
2, 248762, Control_c, 0, 64, 0
2, 248772, Note_on_c, 0, 58, 46
2, 248775, Note_on_c, 0, 67, 47
2, 248781, Note_on_c, 0, 55, 40
2, 248791, Note_on_c, 0, 61, 36
2, 248827, Note_on_c, 0, 64, 33
2, 248925, Note_on_c, 0, 58, 0
2, 248988, Note_on_c, 0, 55, 0
2, 248997, Control_c, 0, 64, 127
2, 249044, Note_on_c, 0, 67, 0
2, 249045, Note_on_c, 0, 61, 0
2, 249066, Note_on_c, 0, 64, 0
2, 249672, Control_c, 0, 64, 0
2, 249685, Note_on_c, 0, 79, 60
2, 249693, Note_on_c, 0, 67, 55
2, 249695, Note_on_c, 0, 62, 43
2, 249696, Note_on_c, 0, 74, 54
2, 249704, Note_on_c, 0, 57, 28
2, 249706, Note_on_c, 0, 58, 40
2, 249713, Note_on_c, 0, 53, 28
2, 250033, Control_c, 0, 64, 127
2, 250212, Note_on_c, 0, 67, 0
2, 250234, Note_on_c, 0, 62, 0
2, 250250, Note_on_c, 0, 79, 0
2, 250259, Note_on_c, 0, 53, 0
2, 250273, Note_on_c, 0, 74, 0
2, 250286, Note_on_c, 0, 58, 0
2, 250292, Note_on_c, 0, 57, 0
2, 250382, Note_on_c, 0, 81, 64
2, 250383, Note_on_c, 0, 74, 51
2, 250403, Note_on_c, 0, 62, 51
2, 250404, Note_on_c, 0, 58, 46
2, 250405, Note_on_c, 0, 69, 49
2, 250409, Note_on_c, 0, 53, 26
2, 250419, Note_on_c, 0, 57, 42
2, 250429, Control_c, 0, 64, 0
2, 250630, Note_on_c, 0, 62, 0
2, 250642, Note_on_c, 0, 69, 0
2, 250648, Note_on_c, 0, 58, 0
2, 250666, Note_on_c, 0, 74, 0
2, 250675, Note_on_c, 0, 57, 0
2, 250684, Note_on_c, 0, 53, 0
2, 250706, Control_c, 0, 64, 127
2, 250722, Note_on_c, 0, 81, 0
2, 250822, Control_c, 0, 64, 0
2, 251098, Note_on_c, 0, 84, 71
2, 251099, Note_on_c, 0, 62, 57
2, 251104, Note_on_c, 0, 57, 38
2, 251108, Note_on_c, 0, 58, 48
2, 251114, Note_on_c, 0, 72, 55
2, 251117, Note_on_c, 0, 77, 51
2, 251118, Note_on_c, 0, 53, 41
2, 251122, Note_on_c, 0, 81, 45
2, 251436, Note_on_c, 0, 72, 0
2, 251462, Control_c, 0, 64, 127
2, 251469, Note_on_c, 0, 62, 0
2, 251477, Note_on_c, 0, 53, 0
2, 251478, Note_on_c, 0, 77, 0
2, 251490, Note_on_c, 0, 57, 0
2, 251495, Note_on_c, 0, 84, 0
2, 251505, Note_on_c, 0, 58, 0
2, 251514, Note_on_c, 0, 81, 0
2, 251561, Control_c, 0, 64, 0
2, 251598, Note_on_c, 0, 84, 63
2, 251605, Note_on_c, 0, 81, 40
2, 251608, Note_on_c, 0, 77, 53
2, 251609, Note_on_c, 0, 72, 54
2, 251612, Note_on_c, 0, 58, 52
2, 251615, Note_on_c, 0, 53, 46
2, 251616, Note_on_c, 0, 62, 49
2, 251625, Note_on_c, 0, 57, 37
2, 252170, Control_c, 0, 64, 127
2, 252206, Note_on_c, 0, 72, 0
2, 252221, Note_on_c, 0, 84, 0
2, 252236, Note_on_c, 0, 81, 0
2, 252257, Note_on_c, 0, 62, 0
2, 252264, Note_on_c, 0, 77, 0
2, 252283, Note_on_c, 0, 53, 0
2, 252306, Note_on_c, 0, 58, 0
2, 252312, Note_on_c, 0, 57, 0
2, 252539, Control_c, 0, 64, 0
2, 252550, Note_on_c, 0, 82, 57
2, 252564, Note_on_c, 0, 62, 43
2, 252571, Note_on_c, 0, 70, 43
2, 252574, Note_on_c, 0, 58, 40
2, 252575, Note_on_c, 0, 57, 32
2, 252581, Note_on_c, 0, 77, 42
2, 252595, Note_on_c, 0, 53, 31
2, 253045, Control_c, 0, 64, 127
2, 253047, Note_on_c, 0, 70, 0
2, 253066, Note_on_c, 0, 77, 0
2, 253131, Note_on_c, 0, 82, 0
2, 253161, Note_on_c, 0, 62, 0
2, 253273, Note_on_c, 0, 57, 0
2, 253286, Note_on_c, 0, 58, 0
2, 253307, Note_on_c, 0, 53, 0
2, 253469, Control_c, 0, 64, 0
2, 253501, Note_on_c, 0, 86, 72
2, 253504, Note_on_c, 0, 74, 74
2, 253505, Note_on_c, 0, 82, 60
2, 253506, Note_on_c, 0, 58, 55
2, 253514, Note_on_c, 0, 79, 63
2, 253515, Note_on_c, 0, 62, 63
2, 253521, Note_on_c, 0, 52, 56
2, 253813, Note_on_c, 0, 62, 0
2, 253858, Note_on_c, 0, 58, 0
2, 253887, Control_c, 0, 64, 127
2, 253897, Note_on_c, 0, 52, 0
2, 254395, Note_on_c, 0, 79, 0
2, 254404, Note_on_c, 0, 86, 0
2, 254404, Note_on_c, 0, 74, 0
2, 254418, Note_on_c, 0, 36, 62
2, 254455, Note_on_c, 0, 82, 0
2, 254517, Note_on_c, 0, 36, 0
2, 255396, Note_on_c, 0, 76, 66
2, 255408, Note_on_c, 0, 73, 47
2, 255413, Note_on_c, 0, 68, 59
2, 255414, Note_on_c, 0, 64, 70
2, 255422, Note_on_c, 0, 58, 53
2, 255425, Note_on_c, 0, 61, 55
2, 255455, Control_c, 0, 64, 0
2, 255772, Control_c, 0, 64, 127
2, 256075, Note_on_c, 0, 61, 0
2, 256105, Note_on_c, 0, 58, 0
2, 256499, Note_on_c, 0, 64, 0
2, 256584, Note_on_c, 0, 68, 0
2, 256684, Note_on_c, 0, 73, 0
2, 256694, Note_on_c, 0, 76, 0
2, 257286, Control_c, 0, 64, 0
2, 257349, Note_on_c, 0, 77, 48
2, 257352, Note_on_c, 0, 41, 29
2, 257355, Note_on_c, 0, 72, 46
2, 257361, Note_on_c, 0, 67, 35
2, 257367, Note_on_c, 0, 48, 37
2, 257386, Note_on_c, 0, 57, 42
2, 257467, Note_on_c, 0, 67, 0
2, 257535, Control_c, 0, 64, 127
2, 257551, Note_on_c, 0, 72, 0
2, 257582, Note_on_c, 0, 41, 0
2, 257616, Note_on_c, 0, 77, 0
2, 257625, Note_on_c, 0, 48, 0
2, 257697, Note_on_c, 0, 57, 0
2, 258115, Note_on_c, 0, 86, 47
2, 258211, Note_on_c, 0, 62, 22
2, 258399, Note_on_c, 0, 86, 0
2, 258431, Note_on_c, 0, 62, 0
2, 258526, Note_on_c, 0, 69, 43
2, 258531, Note_on_c, 0, 93, 41
2, 258537, Note_on_c, 0, 91, 39
2, 258664, Note_on_c, 0, 91, 0
2, 258808, Note_on_c, 0, 69, 0
2, 258818, Note_on_c, 0, 93, 0
2, 258832, Note_on_c, 0, 67, 44
2, 258843, Note_on_c, 0, 91, 35
2, 258991, Note_on_c, 0, 67, 0
2, 259056, Note_on_c, 0, 91, 0
2, 259147, Note_on_c, 0, 74, 47
2, 259156, Note_on_c, 0, 96, 57
2, 259379, Note_on_c, 0, 96, 0
2, 259398, Note_on_c, 0, 74, 0
2, 259451, Note_on_c, 0, 69, 32
2, 259488, Note_on_c, 0, 93, 31
2, 259505, Note_on_c, 0, 69, 0
2, 259575, Note_on_c, 0, 93, 0
2, 259741, Note_on_c, 0, 79, 54
2, 259743, Note_on_c, 0, 105, 33
2, 259766, Note_on_c, 0, 103, 30
2, 259889, Note_on_c, 0, 105, 0
2, 259896, Note_on_c, 0, 103, 0
2, 259922, Note_on_c, 0, 79, 0
2, 259968, Note_on_c, 0, 98, 43
2, 259980, Note_on_c, 0, 74, 38
2, 260161, Note_on_c, 0, 74, 0
2, 260164, Note_on_c, 0, 98, 0
2, 260182, Note_on_c, 0, 76, 43
2, 260209, Note_on_c, 0, 100, 43
2, 260321, Note_on_c, 0, 76, 0
2, 260326, Note_on_c, 0, 100, 0
2, 260452, Note_on_c, 0, 108, 53
2, 260475, Note_on_c, 0, 83, 45
2, 260523, Note_on_c, 0, 83, 0
2, 260644, Note_on_c, 0, 108, 0
2, 260681, Note_on_c, 0, 103, 57
2, 260693, Note_on_c, 0, 79, 44
2, 260869, Note_on_c, 0, 103, 0
2, 260918, Note_on_c, 0, 79, 0
2, 260919, Note_on_c, 0, 105, 58
2, 260940, Note_on_c, 0, 81, 33
2, 261094, Note_on_c, 0, 81, 0
2, 261095, Note_on_c, 0, 105, 0
2, 261128, Note_on_c, 0, 100, 55
2, 261130, Note_on_c, 0, 76, 44
2, 261381, Note_on_c, 0, 100, 0
2, 261454, Control_c, 0, 64, 0
2, 261745, Note_on_c, 0, 81, 41
2, 261800, Note_on_c, 0, 81, 0
2, 261895, Note_on_c, 0, 76, 0
2, 261895, End_track
3, 0, Start_track
3, 0, Title_t, "Bass"
3, 0, Program_c, 1, 32
3, 0, Control_c, 1, 7, 87
3, 0, Control_c, 1, 10, 62
3, 3840, Note_on_c, 1, 41, 63
3, 4480, Note_on_c, 1, 37, 53
3, 4614, Note_on_c, 1, 37, 0
3, 4623, Note_on_c, 1, 41, 0
3, 4800, Note_on_c, 1, 39, 73
3, 5712, Note_on_c, 1, 39, 0
3, 5760, Note_on_c, 1, 38, 75
3, 6708, Note_on_c, 1, 38, 0
3, 6720, Note_on_c, 1, 32, 76
3, 7680, Note_on_c, 1, 31, 69
3, 7688, Note_on_c, 1, 32, 0
3, 8630, Note_on_c, 1, 31, 0
3, 8640, Note_on_c, 1, 37, 58
3, 9589, Note_on_c, 1, 37, 0
3, 9600, Note_on_c, 1, 36, 69
3, 10560, Note_on_c, 1, 48, 95
3, 10635, Note_on_c, 1, 36, 0
3, 11520, Note_on_c, 1, 41, 63
3, 11565, Note_on_c, 1, 48, 0
3, 12480, Note_on_c, 1, 39, 65
3, 12560, Note_on_c, 1, 41, 0
3, 13440, Note_on_c, 1, 38, 75
3, 13441, Note_on_c, 1, 39, 0
3, 14400, Note_on_c, 1, 44, 77
3, 14402, Note_on_c, 1, 38, 0
3, 15040, Note_on_c, 1, 42, 70
3, 15141, Note_on_c, 1, 44, 0
3, 15312, Note_on_c, 1, 42, 0
3, 15360, Note_on_c, 1, 43, 75
3, 16000, Note_on_c, 1, 38, 65
3, 16016, Note_on_c, 1, 43, 0
3, 16320, Note_on_c, 1, 31, 71
3, 16357, Note_on_c, 1, 38, 0
3, 17215, Note_on_c, 1, 31, 0
3, 17280, Note_on_c, 1, 36, 73
3, 18218, Note_on_c, 1, 36, 0
3, 18240, Note_on_c, 1, 40, 65
3, 18880, Note_on_c, 1, 37, 38
3, 19089, Note_on_c, 1, 37, 0
3, 19200, Note_on_c, 1, 41, 68
3, 19289, Note_on_c, 1, 40, 0
3, 19840, Note_on_c, 1, 36, 64
3, 19895, Note_on_c, 1, 41, 0
3, 20082, Note_on_c, 1, 36, 0
3, 20160, Note_on_c, 1, 29, 75
3, 21120, Note_on_c, 1, 43, 89
3, 21147, Note_on_c, 1, 29, 0
3, 21760, Note_on_c, 1, 36, 64
3, 21884, Note_on_c, 1, 36, 0
3, 22066, Note_on_c, 1, 43, 0
3, 22080, Note_on_c, 1, 41, 76
3, 22374, Note_on_c, 1, 41, 0
3, 22400, Note_on_c, 1, 36, 78
3, 22610, Note_on_c, 1, 36, 0
3, 22720, Note_on_c, 1, 33, 73
3, 23040, Note_on_c, 1, 34, 66
3, 23050, Note_on_c, 1, 33, 0
3, 24000, Note_on_c, 1, 38, 74
3, 24074, Note_on_c, 1, 34, 0
3, 24925, Note_on_c, 1, 38, 0
3, 24960, Note_on_c, 1, 43, 68
3, 25586, Note_on_c, 1, 43, 0
3, 25600, Note_on_c, 1, 35, 67
3, 25912, Note_on_c, 1, 35, 0
3, 25920, Note_on_c, 1, 36, 57
3, 26880, Note_on_c, 1, 41, 71
3, 26889, Note_on_c, 1, 36, 0
3, 28477, Note_on_c, 1, 41, 0
3, 28480, Note_on_c, 1, 38, 68
3, 28800, Note_on_c, 1, 43, 92
3, 28868, Note_on_c, 1, 38, 0
3, 29734, Note_on_c, 1, 43, 0
3, 29760, Note_on_c, 1, 36, 70
3, 30690, Note_on_c, 1, 36, 0
3, 30720, Note_on_c, 1, 41, 74
3, 31016, Note_on_c, 1, 41, 0
3, 31040, Note_on_c, 1, 36, 51
3, 31201, Note_on_c, 1, 36, 0
3, 31360, Note_on_c, 1, 37, 61
3, 31645, Note_on_c, 1, 37, 0
3, 31680, Note_on_c, 1, 38, 74
3, 32320, Note_on_c, 1, 38, 0
3, 32320, Note_on_c, 1, 32, 74
3, 32640, Note_on_c, 1, 31, 63
3, 32653, Note_on_c, 1, 32, 0
3, 33591, Note_on_c, 1, 31, 0
3, 33600, Note_on_c, 1, 36, 65
3, 34229, Note_on_c, 1, 36, 0
3, 34240, Note_on_c, 1, 30, 55
3, 34560, Note_on_c, 1, 29, 72
3, 34594, Note_on_c, 1, 30, 0
3, 36456, Note_on_c, 1, 29, 0
3, 36480, Note_on_c, 1, 38, 79
3, 37760, Note_on_c, 1, 45, 89
3, 37877, Note_on_c, 1, 38, 0
3, 38034, Note_on_c, 1, 45, 0
3, 38080, Note_on_c, 1, 44, 88
3, 38343, Note_on_c, 1, 44, 0
3, 38400, Note_on_c, 1, 43, 71
3, 38498, Note_on_c, 1, 43, 0
3, 38720, Note_on_c, 1, 38, 70
3, 38889, Note_on_c, 1, 38, 0
3, 39040, Note_on_c, 1, 34, 69
3, 39333, Note_on_c, 1, 34, 0
3, 39360, Note_on_c, 1, 35, 66
3, 40320, Note_on_c, 1, 36, 63
3, 40340, Note_on_c, 1, 35, 0
3, 41280, Note_on_c, 1, 48, 76
3, 41333, Note_on_c, 1, 36, 0
3, 42196, Note_on_c, 1, 48, 0
3, 42240, Note_on_c, 1, 41, 62
3, 43200, Note_on_c, 1, 39, 69
3, 43221, Note_on_c, 1, 41, 0
3, 44144, Note_on_c, 1, 39, 0
3, 44160, Note_on_c, 1, 38, 69
3, 44800, Note_on_c, 1, 54, 84
3, 45440, Note_on_c, 1, 41, 55
3, 45459, Note_on_c, 1, 38, 0
3, 45687, Note_on_c, 1, 41, 0
3, 45760, Note_on_c, 1, 42, 58
3, 46028, Note_on_c, 1, 42, 0
3, 46075, Note_on_c, 1, 54, 0
3, 46080, Note_on_c, 1, 50, 76
3, 46080, Note_on_c, 1, 43, 54
3, 46161, Note_on_c, 1, 50, 0
3, 46683, Note_on_c, 1, 43, 0
3, 46720, Note_on_c, 1, 38, 76
3, 47040, Note_on_c, 1, 34, 68
3, 47056, Note_on_c, 1, 38, 0
3, 47620, Note_on_c, 1, 34, 0
3, 47680, Note_on_c, 1, 35, 53
3, 47979, Note_on_c, 1, 35, 0
3, 48000, Note_on_c, 1, 36, 63
3, 48960, Note_on_c, 1, 40, 72
3, 48968, Note_on_c, 1, 36, 0
3, 49600, Note_on_c, 1, 36, 61
3, 49678, Note_on_c, 1, 36, 0
3, 49837, Note_on_c, 1, 40, 0
3, 49920, Note_on_c, 1, 41, 65
3, 50560, Note_on_c, 1, 36, 63
3, 50584, Note_on_c, 1, 41, 0
3, 50839, Note_on_c, 1, 36, 0
3, 50880, Note_on_c, 1, 29, 61
3, 52160, Note_on_c, 1, 41, 63
3, 52217, Note_on_c, 1, 29, 0
3, 52252, Note_on_c, 1, 41, 0
3, 52480, Note_on_c, 1, 36, 70
3, 52752, Note_on_c, 1, 36, 0
3, 52800, Note_on_c, 1, 29, 60
3, 53440, Note_on_c, 1, 33, 76
3, 53446, Note_on_c, 1, 29, 0
3, 53760, Note_on_c, 1, 34, 69
3, 53779, Note_on_c, 1, 33, 0
3, 54720, Note_on_c, 1, 41, 71
3, 54836, Note_on_c, 1, 34, 0
3, 55360, Note_on_c, 1, 38, 40
3, 55489, Note_on_c, 1, 38, 0
3, 55674, Note_on_c, 1, 41, 0
3, 55680, Note_on_c, 1, 43, 59
3, 56314, Note_on_c, 1, 43, 0
3, 56320, Note_on_c, 1, 37, 69
3, 56631, Note_on_c, 1, 37, 0
3, 56640, Note_on_c, 1, 36, 55
3, 57600, Note_on_c, 1, 41, 61
3, 57694, Note_on_c, 1, 36, 0
3, 58544, Note_on_c, 1, 41, 0
3, 58560, Note_on_c, 1, 38, 68
3, 59520, Note_on_c, 1, 43, 76
3, 59557, Note_on_c, 1, 38, 0
3, 60160, Note_on_c, 1, 37, 60
3, 60198, Note_on_c, 1, 43, 0
3, 60433, Note_on_c, 1, 37, 0
3, 60480, Note_on_c, 1, 36, 56
3, 60983, Note_on_c, 1, 36, 0
3, 61120, Note_on_c, 1, 36, 76
3, 61440, Note_on_c, 1, 41, 57
3, 61490, Note_on_c, 1, 36, 0
3, 62080, Note_on_c, 1, 37, 66
3, 62135, Note_on_c, 1, 41, 0
3, 62392, Note_on_c, 1, 37, 0
3, 62400, Note_on_c, 1, 38, 72
3, 63040, Note_on_c, 1, 46, 98
3, 63084, Note_on_c, 1, 38, 0
3, 63680, Note_on_c, 1, 37, 70
3, 63905, Note_on_c, 1, 37, 0
3, 64000, Note_on_c, 1, 38, 78
3, 64016, Note_on_c, 1, 46, 0
3, 64320, Note_on_c, 1, 39, 72
3, 64348, Note_on_c, 1, 38, 0
3, 64960, Note_on_c, 1, 43, 70
3, 65256, Note_on_c, 1, 43, 0
3, 65257, Note_on_c, 1, 39, 0
3, 65280, Note_on_c, 1, 44, 68
3, 65920, Note_on_c, 1, 38, 71
3, 66206, Note_on_c, 1, 38, 0
3, 66218, Note_on_c, 1, 44, 0
3, 66240, Note_on_c, 1, 39, 72
3, 67197, Note_on_c, 1, 39, 0
3, 67200, Note_on_c, 1, 45, 83
3, 68160, Note_on_c, 1, 39, 55
3, 68263, Note_on_c, 1, 45, 0
3, 68728, Note_on_c, 1, 39, 0
3, 68800, Note_on_c, 1, 40, 71
3, 69111, Note_on_c, 1, 40, 0
3, 69120, Note_on_c, 1, 41, 61
3, 69733, Note_on_c, 1, 41, 0
3, 69760, Note_on_c, 1, 46, 85
3, 70400, Note_on_c, 1, 41, 55
3, 70503, Note_on_c, 1, 46, 0
3, 70617, Note_on_c, 1, 41, 0
3, 70720, Note_on_c, 1, 40, 70
3, 71040, Note_on_c, 1, 39, 69
3, 71053, Note_on_c, 1, 40, 0
3, 71987, Note_on_c, 1, 39, 0
3, 72000, Note_on_c, 1, 34, 65
3, 72960, Note_on_c, 1, 32, 60
3, 73011, Note_on_c, 1, 34, 0
3, 73920, Note_on_c, 1, 39, 73
3, 73924, Note_on_c, 1, 32, 0
3, 74880, Note_on_c, 1, 36, 70
3, 74908, Note_on_c, 1, 39, 0
3, 75831, Note_on_c, 1, 36, 0
3, 75840, Note_on_c, 1, 35, 76
3, 76800, Note_on_c, 1, 34, 71
3, 76806, Note_on_c, 1, 35, 0
3, 77760, Note_on_c, 1, 40, 63
3, 77799, Note_on_c, 1, 34, 0
3, 78400, Note_on_c, 1, 34, 60
3, 78488, Note_on_c, 1, 40, 0
3, 78717, Note_on_c, 1, 34, 0
3, 78720, Note_on_c, 1, 39, 71
3, 79680, Note_on_c, 1, 33, 79
3, 79691, Note_on_c, 1, 39, 0
3, 80603, Note_on_c, 1, 33, 0
3, 80640, Note_on_c, 1, 32, 68
3, 81435, Note_on_c, 1, 32, 0
3, 81600, Note_on_c, 1, 32, 67
3, 82560, Note_on_c, 1, 33, 76
3, 82576, Note_on_c, 1, 32, 0
3, 83426, Note_on_c, 1, 33, 0
3, 83520, Note_on_c, 1, 33, 51
3, 83520, Note_on_c, 1, 35, 45
3, 83564, Note_on_c, 1, 35, 0
3, 84387, Note_on_c, 1, 33, 0
3, 84480, Note_on_c, 1, 34, 69
3, 85376, Note_on_c, 1, 34, 0
3, 85440, Note_on_c, 1, 34, 65
3, 86400, Note_on_c, 1, 39, 72
3, 86518, Note_on_c, 1, 34, 0
3, 87353, Note_on_c, 1, 39, 0
3, 87360, Note_on_c, 1, 37, 64
3, 88320, Note_on_c, 1, 36, 69
3, 88356, Note_on_c, 1, 37, 0
3, 89280, Note_on_c, 1, 44, 75
3, 89351, Note_on_c, 1, 36, 0
3, 90240, Note_on_c, 1, 49, 72
3, 90256, Note_on_c, 1, 44, 0
3, 91200, Note_on_c, 1, 37, 67
3, 91218, Note_on_c, 1, 49, 0
3, 92160, Note_on_c, 1, 43, 69
3, 92212, Note_on_c, 1, 37, 0
3, 93440, Note_on_c, 1, 37, 64
3, 93538, Note_on_c, 1, 37, 0
3, 93760, Note_on_c, 1, 35, 66
3, 93826, Note_on_c, 1, 43, 0
3, 94025, Note_on_c, 1, 35, 0
3, 94080, Note_on_c, 1, 36, 84
3, 95360, Note_on_c, 1, 31, 71
3, 95365, Note_on_c, 1, 36, 0
3, 95649, Note_on_c, 1, 31, 0
3, 95680, Note_on_c, 1, 30, 73
3, 96000, Note_on_c, 1, 29, 68
3, 96004, Note_on_c, 1, 30, 0
3, 96960, Note_on_c, 1, 37, 75
3, 96988, Note_on_c, 1, 29, 0
3, 97920, Note_on_c, 1, 38, 75
3, 97990, Note_on_c, 1, 37, 0
3, 99520, Note_on_c, 1, 44, 88
3, 99672, Note_on_c, 1, 38, 0
3, 99840, Note_on_c, 1, 43, 71
3, 99844, Note_on_c, 1, 44, 0
3, 100464, Note_on_c, 1, 43, 0
3, 100480, Note_on_c, 1, 38, 73
3, 100800, Note_on_c, 1, 35, 72
3, 100838, Note_on_c, 1, 38, 0
3, 101742, Note_on_c, 1, 35, 0
3, 101760, Note_on_c, 1, 36, 69
3, 102720, Note_on_c, 1, 34, 70
3, 102725, Note_on_c, 1, 36, 0
3, 103680, Note_on_c, 1, 33, 69
3, 103735, Note_on_c, 1, 34, 0
3, 104640, Note_on_c, 1, 39, 82
3, 104716, Note_on_c, 1, 33, 0
3, 105516, Note_on_c, 1, 39, 0
3, 105600, Note_on_c, 1, 38, 65
3, 106560, Note_on_c, 1, 45, 64
3, 106770, Note_on_c, 1, 38, 0
3, 107492, Note_on_c, 1, 45, 0
3, 107520, Note_on_c, 1, 43, 66
3, 108480, Note_on_c, 1, 31, 65
3, 109327, Note_on_c, 1, 43, 0
3, 109440, Note_on_c, 1, 36, 74
3, 109462, Note_on_c, 1, 31, 0
3, 110400, Note_on_c, 1, 43, 62
3, 110552, Note_on_c, 1, 36, 0
3, 111040, Note_on_c, 1, 36, 65
3, 111157, Note_on_c, 1, 36, 0
3, 111360, Note_on_c, 1, 41, 74
3, 111372, Note_on_c, 1, 43, 0
3, 112000, Note_on_c, 1, 36, 55
3, 112019, Note_on_c, 1, 41, 0
3, 112320, Note_on_c, 1, 29, 63
3, 112334, Note_on_c, 1, 36, 0
3, 113600, Note_on_c, 1, 36, 38
3, 113600, Note_on_c, 1, 43, 71
3, 113641, Note_on_c, 1, 29, 0
3, 113713, Note_on_c, 1, 36, 0
3, 113728, Note_on_c, 1, 43, 0
3, 113920, Note_on_c, 1, 41, 75
3, 114016, Note_on_c, 1, 41, 0
3, 114240, Note_on_c, 1, 36, 67
3, 114423, Note_on_c, 1, 36, 0
3, 114560, Note_on_c, 1, 29, 76
3, 114794, Note_on_c, 1, 29, 0
3, 114880, Note_on_c, 1, 33, 91
3, 115194, Note_on_c, 1, 33, 0
3, 115200, Note_on_c, 1, 34, 78
3, 116160, Note_on_c, 1, 38, 74
3, 116202, Note_on_c, 1, 34, 0
3, 117120, Note_on_c, 1, 43, 76
3, 117127, Note_on_c, 1, 38, 0
3, 118080, Note_on_c, 1, 36, 78
3, 118089, Note_on_c, 1, 43, 0
3, 119040, Note_on_c, 1, 41, 58
3, 119041, Note_on_c, 1, 36, 0
3, 120000, Note_on_c, 1, 38, 65
3, 120113, Note_on_c, 1, 41, 0
3, 120960, Note_on_c, 1, 43, 69
3, 121006, Note_on_c, 1, 38, 0
3, 121600, Note_on_c, 1, 38, 66
3, 121673, Note_on_c, 1, 38, 0
3, 121920, Note_on_c, 1, 48, 90
3, 121933, Note_on_c, 1, 43, 0
3, 122776, Note_on_c, 1, 48, 0
3, 122880, Note_on_c, 1, 48, 85
3, 123520, Note_on_c, 1, 36, 67
3, 123775, Note_on_c, 1, 36, 0
3, 124014, Note_on_c, 1, 48, 0
3, 124160, Note_on_c, 1, 36, 74
3, 125440, Note_on_c, 1, 48, 96
3, 125783, Note_on_c, 1, 36, 0
3, 126080, Note_on_c, 1, 39, 67
3, 126188, Note_on_c, 1, 48, 0
3, 126272, Note_on_c, 1, 39, 0
3, 126400, Note_on_c, 1, 40, 63
3, 126720, Note_on_c, 1, 41, 87
3, 126739, Note_on_c, 1, 40, 0
3, 127360, Note_on_c, 1, 37, 74
3, 127454, Note_on_c, 1, 41, 0
3, 127633, Note_on_c, 1, 37, 0
3, 127680, Note_on_c, 1, 39, 73
3, 128579, Note_on_c, 1, 39, 0
3, 128640, Note_on_c, 1, 38, 72
3, 129600, Note_on_c, 1, 32, 73
3, 129612, Note_on_c, 1, 38, 0
3, 130558, Note_on_c, 1, 32, 0
3, 130560, Note_on_c, 1, 31, 70
3, 131520, Note_on_c, 1, 35, 75
3, 131548, Note_on_c, 1, 31, 0
3, 132435, Note_on_c, 1, 35, 0
3, 132480, Note_on_c, 1, 36, 74
3, 133120, Note_on_c, 1, 34, 49
3, 133326, Note_on_c, 1, 34, 0
3, 133440, Note_on_c, 1, 48, 108
3, 133458, Note_on_c, 1, 36, 0
3, 134080, Note_on_c, 1, 40, 66
3, 134202, Note_on_c, 1, 48, 0
3, 134400, Note_on_c, 1, 41, 72
3, 134412, Note_on_c, 1, 40, 0
3, 134827, Note_on_c, 1, 41, 0
3, 135040, Note_on_c, 1, 41, 89
3, 135319, Note_on_c, 1, 41, 0
3, 135360, Note_on_c, 1, 39, 82
3, 136271, Note_on_c, 1, 39, 0
3, 136320, Note_on_c, 1, 38, 80
3, 136960, Note_on_c, 1, 45, 85
3, 136963, Note_on_c, 1, 38, 0
3, 137280, Note_on_c, 1, 38, 60
3, 137289, Note_on_c, 1, 45, 0
3, 137492, Note_on_c, 1, 38, 0
3, 137600, Note_on_c, 1, 30, 74
3, 138237, Note_on_c, 1, 30, 0
3, 138240, Note_on_c, 1, 31, 81
3, 139193, Note_on_c, 1, 31, 0
3, 139200, Note_on_c, 1, 35, 71
3, 140073, Note_on_c, 1, 35, 0
3, 140160, Note_on_c, 1, 36, 83
3, 141120, Note_on_c, 1, 43, 83
3, 141178, Note_on_c, 1, 36, 0
3, 141760, Note_on_c, 1, 36, 68
3, 141834, Note_on_c, 1, 36, 0
3, 142080, Note_on_c, 1, 41, 83
3, 142100, Note_on_c, 1, 43, 0
3, 142205, Note_on_c, 1, 41, 0
3, 142400, Note_on_c, 1, 36, 58
3, 142660, Note_on_c, 1, 36, 0
3, 142720, Note_on_c, 1, 30, 81
3, 143040, Note_on_c, 1, 29, 83
3, 143067, Note_on_c, 1, 30, 0
3, 144320, Note_on_c, 1, 41, 74
3, 144363, Note_on_c, 1, 29, 0
3, 144472, Note_on_c, 1, 41, 0
3, 144640, Note_on_c, 1, 30, 84
3, 144949, Note_on_c, 1, 30, 0
3, 144960, Note_on_c, 1, 29, 78
3, 145583, Note_on_c, 1, 29, 0
3, 145600, Note_on_c, 1, 33, 89
3, 145920, Note_on_c, 1, 34, 83
3, 145962, Note_on_c, 1, 33, 0
3, 147495, Note_on_c, 1, 34, 0
3, 147520, Note_on_c, 1, 31, 67
3, 147840, Note_on_c, 1, 43, 70
3, 147875, Note_on_c, 1, 31, 0
3, 148800, Note_on_c, 1, 36, 66
3, 148816, Note_on_c, 1, 43, 0
3, 149728, Note_on_c, 1, 36, 0
3, 149760, Note_on_c, 1, 41, 66
3, 150720, Note_on_c, 1, 50, 78
3, 150802, Note_on_c, 1, 41, 0
3, 151360, Note_on_c, 1, 42, 59
3, 151608, Note_on_c, 1, 42, 0
3, 151680, Note_on_c, 1, 43, 72
3, 152078, Note_on_c, 1, 50, 0
3, 152320, Note_on_c, 1, 50, 101
3, 152614, Note_on_c, 1, 50, 0
3, 152640, Note_on_c, 1, 48, 87
3, 152713, Note_on_c, 1, 43, 0
3, 152960, Note_on_c, 1, 40, 78
3, 153479, Note_on_c, 1, 48, 0
3, 153550, Note_on_c, 1, 40, 0
3, 153600, Note_on_c, 1, 41, 71
3, 154205, Note_on_c, 1, 41, 0
3, 154240, Note_on_c, 1, 39, 85
3, 154550, Note_on_c, 1, 39, 0
3, 154560, Note_on_c, 1, 38, 76
3, 155186, Note_on_c, 1, 38, 0
3, 155200, Note_on_c, 1, 32, 80
3, 155520, Note_on_c, 1, 31, 78
3, 155534, Note_on_c, 1, 32, 0
3, 156475, Note_on_c, 1, 31, 0
3, 156480, Note_on_c, 1, 36, 72
3, 157120, Note_on_c, 1, 43, 72
3, 157229, Note_on_c, 1, 36, 0
3, 157440, Note_on_c, 1, 41, 89
3, 157473, Note_on_c, 1, 43, 0
3, 158720, Note_on_c, 1, 36, 76
3, 158763, Note_on_c, 1, 41, 0
3, 158992, Note_on_c, 1, 36, 0
3, 159040, Note_on_c, 1, 37, 72
3, 159360, Note_on_c, 1, 38, 75
3, 159369, Note_on_c, 1, 37, 0
3, 160000, Note_on_c, 1, 45, 84
3, 160066, Note_on_c, 1, 38, 0
3, 160320, Note_on_c, 1, 32, 73
3, 160323, Note_on_c, 1, 45, 0
3, 161253, Note_on_c, 1, 32, 0
3, 161280, Note_on_c, 1, 31, 80
3, 162240, Note_on_c, 1, 34, 79
3, 162247, Note_on_c, 1, 31, 0
3, 162858, Note_on_c, 1, 34, 0
3, 162880, Note_on_c, 1, 35, 72
3, 163200, Note_on_c, 1, 36, 79
3, 163236, Note_on_c, 1, 35, 0
3, 163840, Note_on_c, 1, 34, 46
3, 164099, Note_on_c, 1, 34, 0
3, 164160, Note_on_c, 1, 48, 101
3, 164287, Note_on_c, 1, 36, 0
3, 164800, Note_on_c, 1, 40, 47
3, 165120, Note_on_c, 1, 41, 77
3, 165135, Note_on_c, 1, 40, 0
3, 165166, Note_on_c, 1, 48, 0
3, 165440, Note_on_c, 1, 48, 22
3, 165540, Note_on_c, 1, 48, 0
3, 165658, Note_on_c, 1, 41, 0
3, 165760, Note_on_c, 1, 41, 83
3, 166080, Note_on_c, 1, 39, 78
3, 166129, Note_on_c, 1, 41, 0
3, 167025, Note_on_c, 1, 39, 0
3, 167040, Note_on_c, 1, 38, 60
3, 168000, Note_on_c, 1, 32, 73
3, 168038, Note_on_c, 1, 38, 0
3, 168933, Note_on_c, 1, 32, 0
3, 168960, Note_on_c, 1, 31, 82
3, 169889, Note_on_c, 1, 31, 0
3, 169920, Note_on_c, 1, 37, 88
3, 170880, Note_on_c, 1, 36, 85
3, 170910, Note_on_c, 1, 37, 0
3, 171839, Note_on_c, 1, 36, 0
3, 171840, Note_on_c, 1, 30, 81
3, 172732, Note_on_c, 1, 30, 0
3, 172800, Note_on_c, 1, 29, 97
3, 174080, Note_on_c, 1, 34, 82
3, 174080, Note_on_c, 1, 35, 76
3, 174221, Note_on_c, 1, 35, 0
3, 174304, Note_on_c, 1, 34, 0
3, 174322, Note_on_c, 1, 29, 0
3, 174400, Note_on_c, 1, 35, 78
3, 174698, Note_on_c, 1, 35, 0
3, 174720, Note_on_c, 1, 36, 87
3, 175360, Note_on_c, 1, 41, 96
3, 175426, Note_on_c, 1, 36, 0
3, 176000, Note_on_c, 1, 36, 75
3, 176130, Note_on_c, 1, 41, 0
3, 176278, Note_on_c, 1, 36, 0
3, 176320, Note_on_c, 1, 35, 75
3, 176640, Note_on_c, 1, 34, 74
3, 176668, Note_on_c, 1, 35, 0
3, 177600, Note_on_c, 1, 41, 81
3, 177660, Note_on_c, 1, 34, 0
3, 178240, Note_on_c, 1, 34, 64
3, 178280, Note_on_c, 1, 41, 0
3, 178560, Note_on_c, 1, 43, 87
3, 178565, Note_on_c, 1, 34, 0
3, 179194, Note_on_c, 1, 43, 0
3, 179200, Note_on_c, 1, 35, 70
3, 179520, Note_on_c, 1, 36, 77
3, 179523, Note_on_c, 1, 35, 0
3, 180432, Note_on_c, 1, 36, 0
3, 180480, Note_on_c, 1, 29, 72
3, 181401, Note_on_c, 1, 29, 0
3, 181440, Note_on_c, 1, 36, 89
3, 183040, Note_on_c, 1, 48, 94
3, 183358, Note_on_c, 1, 36, 0
3, 183680, Note_on_c, 1, 34, 72
3, 183875, Note_on_c, 1, 34, 0
3, 184000, Note_on_c, 1, 35, 77
3, 184111, Note_on_c, 1, 48, 0
3, 184320, Note_on_c, 1, 36, 89
3, 184326, Note_on_c, 1, 35, 0
3, 185575, Note_on_c, 1, 36, 0
3, 185600, Note_on_c, 1, 36, 87
3, 185871, Note_on_c, 1, 36, 0
3, 185920, Note_on_c, 1, 35, 81
3, 186184, Note_on_c, 1, 35, 0
3, 186240, Note_on_c, 1, 34, 74
3, 186781, Note_on_c, 1, 34, 0
3, 186880, Note_on_c, 1, 34, 86
3, 187200, Note_on_c, 1, 39, 83
3, 187242, Note_on_c, 1, 34, 0
3, 187345, Note_on_c, 1, 39, 0
3, 187520, Note_on_c, 1, 34, 76
3, 187816, Note_on_c, 1, 34, 0
3, 187840, Note_on_c, 1, 33, 80
3, 188142, Note_on_c, 1, 33, 0
3, 188160, Note_on_c, 1, 32, 80
3, 189120, Note_on_c, 1, 39, 83
3, 189159, Note_on_c, 1, 32, 0
3, 189760, Note_on_c, 1, 37, 42
3, 190021, Note_on_c, 1, 37, 0
3, 190039, Note_on_c, 1, 39, 0
3, 190080, Note_on_c, 1, 45, 81
3, 190720, Note_on_c, 1, 39, 81
3, 190839, Note_on_c, 1, 39, 0
3, 191040, Note_on_c, 1, 42, 74
3, 191122, Note_on_c, 1, 45, 0
3, 191680, Note_on_c, 1, 38, 75
3, 191782, Note_on_c, 1, 38, 0
3, 192000, Note_on_c, 1, 34, 73
3, 192483, Note_on_c, 1, 42, 0
3, 192960, Note_on_c, 1, 46, 88
3, 193051, Note_on_c, 1, 34, 0
3, 193280, Note_on_c, 1, 37, 71
3, 193380, Note_on_c, 1, 46, 0
3, 193573, Note_on_c, 1, 37, 0
3, 193600, Note_on_c, 1, 38, 82
3, 193920, Note_on_c, 1, 39, 88
3, 193932, Note_on_c, 1, 38, 0
3, 194858, Note_on_c, 1, 39, 0
3, 194880, Note_on_c, 1, 33, 85
3, 195795, Note_on_c, 1, 33, 0
3, 195840, Note_on_c, 1, 32, 76
3, 196723, Note_on_c, 1, 32, 0
3, 196800, Note_on_c, 1, 32, 75
3, 197760, Note_on_c, 1, 36, 81
3, 197776, Note_on_c, 1, 32, 0
3, 198400, Note_on_c, 1, 34, 54
3, 198453, Note_on_c, 1, 36, 0
3, 198720, Note_on_c, 1, 35, 75
3, 198753, Note_on_c, 1, 34, 0
3, 199299, Note_on_c, 1, 35, 0
3, 199360, Note_on_c, 1, 35, 57
3, 199680, Note_on_c, 1, 34, 95
3, 199745, Note_on_c, 1, 35, 0
3, 200640, Note_on_c, 1, 41, 86
3, 200664, Note_on_c, 1, 34, 0
3, 201572, Note_on_c, 1, 41, 0
3, 201600, Note_on_c, 1, 39, 80
3, 202240, Note_on_c, 1, 33, 92
3, 202294, Note_on_c, 1, 39, 0
3, 203514, Note_on_c, 1, 33, 0
3, 203520, Note_on_c, 1, 32, 79
3, 204480, Note_on_c, 1, 39, 90
3, 204570, Note_on_c, 1, 32, 0
3, 205440, Note_on_c, 1, 33, 89
3, 205478, Note_on_c, 1, 39, 0
3, 206374, Note_on_c, 1, 33, 0
3, 206400, Note_on_c, 1, 39, 83
3, 207008, Note_on_c, 1, 39, 0
3, 207040, Note_on_c, 1, 33, 81
3, 207359, Note_on_c, 1, 33, 0
3, 207360, Note_on_c, 1, 34, 83
3, 208320, Note_on_c, 1, 39, 82
3, 208363, Note_on_c, 1, 34, 0
3, 208960, Note_on_c, 1, 34, 65
3, 209072, Note_on_c, 1, 39, 0
3, 209280, Note_on_c, 1, 43, 91
3, 209378, Note_on_c, 1, 34, 0
3, 210240, Note_on_c, 1, 36, 85
3, 210406, Note_on_c, 1, 36, 0
3, 210880, Note_on_c, 1, 33, 85
3, 210935, Note_on_c, 1, 43, 0
3, 211200, Note_on_c, 1, 32, 81
3, 211241, Note_on_c, 1, 33, 0
3, 212092, Note_on_c, 1, 32, 0
3, 212160, Note_on_c, 1, 32, 81
3, 213066, Note_on_c, 1, 32, 0
3, 213120, Note_on_c, 1, 37, 82
3, 214017, Note_on_c, 1, 37, 0
3, 214080, Note_on_c, 1, 37, 86
3, 215040, Note_on_c, 1, 43, 81
3, 215050, Note_on_c, 1, 37, 0
3, 216000, Note_on_c, 1, 37, 83
3, 216022, Note_on_c, 1, 43, 0
3, 216909, Note_on_c, 1, 37, 0
3, 216960, Note_on_c, 1, 36, 76
3, 217600, Note_on_c, 1, 42, 96
3, 217901, Note_on_c, 1, 42, 0
3, 217920, Note_on_c, 1, 39, 88
3, 217943, Note_on_c, 1, 36, 0
3, 218477, Note_on_c, 1, 39, 0
3, 218560, Note_on_c, 1, 40, 87
3, 218841, Note_on_c, 1, 40, 0
3, 218880, Note_on_c, 1, 41, 75
3, 219007, Note_on_c, 1, 41, 0
3, 219200, Note_on_c, 1, 36, 58
3, 219402, Note_on_c, 1, 36, 0
3, 219520, Note_on_c, 1, 33, 70
3, 219840, Note_on_c, 1, 38, 89
3, 219842, Note_on_c, 1, 33, 0
3, 220752, Note_on_c, 1, 38, 0
3, 220800, Note_on_c, 1, 38, 83
3, 221760, Note_on_c, 1, 32, 81
3, 221776, Note_on_c, 1, 38, 0
3, 222649, Note_on_c, 1, 32, 0
3, 222720, Note_on_c, 1, 31, 80
3, 223659, Note_on_c, 1, 31, 0
3, 223680, Note_on_c, 1, 38, 79
3, 224320, Note_on_c, 1, 35, 83
3, 224337, Note_on_c, 1, 38, 0
3, 224640, Note_on_c, 1, 36, 72
3, 224668, Note_on_c, 1, 35, 0
3, 225280, Note_on_c, 1, 50, 98
3, 225561, Note_on_c, 1, 36, 0
3, 225600, Note_on_c, 1, 48, 86
3, 225603, Note_on_c, 1, 50, 0
3, 226240, Note_on_c, 1, 40, 77
3, 226343, Note_on_c, 1, 48, 0
3, 226560, Note_on_c, 1, 41, 81
3, 226645, Note_on_c, 1, 40, 0
3, 227520, Note_on_c, 1, 39, 82
3, 227575, Note_on_c, 1, 41, 0
3, 228431, Note_on_c, 1, 39, 0
3, 228480, Note_on_c, 1, 38, 82
3, 229440, Note_on_c, 1, 32, 83
3, 229473, Note_on_c, 1, 38, 0
3, 230368, Note_on_c, 1, 32, 0
3, 230400, Note_on_c, 1, 31, 81
3, 231309, Note_on_c, 1, 31, 0
3, 231360, Note_on_c, 1, 38, 88
3, 232320, Note_on_c, 1, 36, 81
3, 232334, Note_on_c, 1, 38, 0
3, 233280, Note_on_c, 1, 40, 81
3, 233303, Note_on_c, 1, 36, 0
3, 234240, Note_on_c, 1, 48, 87
3, 234278, Note_on_c, 1, 40, 0
3, 234880, Note_on_c, 1, 40, 78
3, 235200, Note_on_c, 1, 41, 83
3, 235233, Note_on_c, 1, 40, 0
3, 235653, Note_on_c, 1, 48, 0
3, 235840, Note_on_c, 1, 29, 82
3, 237139, Note_on_c, 1, 41, 0
3, 237440, Note_on_c, 1, 41, 78
3, 237539, Note_on_c, 1, 29, 0
3, 237599, Note_on_c, 1, 41, 0
3, 237760, Note_on_c, 1, 36, 97
3, 238062, Note_on_c, 1, 36, 0
3, 238080, Note_on_c, 1, 34, 70
3, 239014, Note_on_c, 1, 34, 0
3, 239040, Note_on_c, 1, 41, 78
3, 240000, Note_on_c, 1, 43, 78
3, 240276, Note_on_c, 1, 41, 0
3, 240960, Note_on_c, 1, 36, 76
3, 240985, Note_on_c, 1, 43, 0
3, 241920, Note_on_c, 1, 41, 73
3, 241923, Note_on_c, 1, 36, 0
3, 242880, Note_on_c, 1, 38, 85
3, 243014, Note_on_c, 1, 41, 0
3, 243840, Note_on_c, 1, 43, 92
3, 243923, Note_on_c, 1, 38, 0
3, 244480, Note_on_c, 1, 35, 72
3, 244586, Note_on_c, 1, 43, 0
3, 244800, Note_on_c, 1, 36, 83
3, 244809, Note_on_c, 1, 35, 0
3, 245348, Note_on_c, 1, 36, 0
3, 245440, Note_on_c, 1, 36, 84
3, 245732, Note_on_c, 1, 36, 0
3, 245760, Note_on_c, 1, 41, 89
3, 246400, Note_on_c, 1, 38, 99
3, 246400, Note_on_c, 1, 37, 88
3, 246484, Note_on_c, 1, 41, 0
3, 246495, Note_on_c, 1, 38, 0
3, 246857, Note_on_c, 1, 37, 0
3, 247040, Note_on_c, 1, 38, 101
3, 247360, Note_on_c, 1, 32, 84
3, 247554, Note_on_c, 1, 38, 0
3, 247680, Note_on_c, 1, 31, 85
3, 247730, Note_on_c, 1, 32, 0
3, 248584, Note_on_c, 1, 31, 0
3, 248640, Note_on_c, 1, 36, 83
3, 249280, Note_on_c, 1, 34, 57
3, 249492, Note_on_c, 1, 34, 0
3, 249501, Note_on_c, 1, 36, 0
3, 249600, Note_on_c, 1, 43, 88
3, 250560, Note_on_c, 1, 38, 86
3, 250587, Note_on_c, 1, 43, 0
3, 251520, Note_on_c, 1, 31, 88
3, 251548, Note_on_c, 1, 38, 0
3, 252390, Note_on_c, 1, 31, 0
3, 252480, Note_on_c, 1, 38, 92
3, 253440, Note_on_c, 1, 48, 95
3, 253537, Note_on_c, 1, 38, 0
3, 255360, Note_on_c, 1, 36, 85
3, 255386, Note_on_c, 1, 48, 0
3, 257248, Note_on_c, 1, 36, 0
3, 257280, Note_on_c, 1, 29, 80
3, 263599, Note_on_c, 1, 29, 0
3, 263599, End_track
4, 0, Start_track
4, 0, Title_t, "Drums"
4, 0, Program_c, 9, 32
4, 0, Control_c, 9, 7, 49
4, 3227, Note_on_c, 9, 38, 33
4, 3315, Note_on_c, 9, 38, 0
4, 3533, Note_on_c, 9, 59, 50
4, 3536, Note_on_c, 9, 38, 46
4, 3605, Note_on_c, 9, 59, 0
4, 3652, Note_on_c, 9, 38, 0
4, 3896, Note_on_c, 9, 59, 40
4, 3910, Note_on_c, 9, 36, 34
4, 4238, Note_on_c, 9, 59, 0
4, 4353, Note_on_c, 9, 36, 0
4, 4800, Note_on_c, 9, 44, 70
4, 4857, Note_on_c, 9, 59, 66
4, 4874, Note_on_c, 9, 64, 33
4, 4960, Note_on_c, 9, 44, 0
4, 4975, Note_on_c, 9, 59, 0
4, 5360, Note_on_c, 9, 64, 0
4, 5449, Note_on_c, 9, 64, 75
4, 5685, Note_on_c, 9, 64, 0
4, 5755, Note_on_c, 9, 59, 68
4, 6154, Note_on_c, 9, 59, 0
4, 6705, Note_on_c, 9, 62, 29
4, 6717, Note_on_c, 9, 59, 49
4, 6720, Note_on_c, 9, 44, 70
4, 6870, Note_on_c, 9, 44, 0
4, 7076, Note_on_c, 9, 62, 0
4, 7158, Note_on_c, 9, 59, 0
4, 7354, Note_on_c, 9, 62, 41
4, 7388, Note_on_c, 9, 59, 45
4, 7543, Note_on_c, 9, 62, 0
4, 7583, Note_on_c, 9, 59, 0
4, 7682, Note_on_c, 9, 59, 32
4, 8176, Note_on_c, 9, 59, 0
4, 8324, Note_on_c, 9, 59, 72
4, 8640, Note_on_c, 9, 44, 70
4, 8692, Note_on_c, 9, 64, 44
4, 8800, Note_on_c, 9, 44, 0
4, 8847, Note_on_c, 9, 64, 0
4, 8955, Note_on_c, 9, 59, 0
4, 9060, Note_on_c, 9, 59, 40
4, 9255, Note_on_c, 9, 59, 0
4, 9336, Note_on_c, 9, 59, 49
4, 9971, Note_on_c, 9, 59, 0
4, 10012, Note_on_c, 9, 59, 38
4, 10415, Note_on_c, 9, 59, 0
4, 10560, Note_on_c, 9, 44, 70
4, 10584, Note_on_c, 9, 62, 22
4, 10585, Note_on_c, 9, 63, 34
4, 10593, Note_on_c, 9, 59, 64
4, 10720, Note_on_c, 9, 44, 0
4, 10887, Note_on_c, 9, 63, 0
4, 10912, Note_on_c, 9, 62, 0
4, 11035, Note_on_c, 9, 59, 0
4, 11131, Note_on_c, 9, 59, 38
4, 11140, Note_on_c, 9, 38, 28
4, 11143, Note_on_c, 9, 63, 37
4, 11145, Note_on_c, 9, 62, 33
4, 11290, Note_on_c, 9, 59, 0
4, 11323, Note_on_c, 9, 38, 0
4, 11351, Note_on_c, 9, 63, 0
4, 11352, Note_on_c, 9, 62, 0
4, 11427, Note_on_c, 9, 59, 35
4, 11505, Note_on_c, 9, 46, 56
4, 11645, Note_on_c, 9, 46, 0
4, 12240, Note_on_c, 9, 59, 0
4, 12459, Note_on_c, 9, 64, 55
4, 12480, Note_on_c, 9, 44, 70
4, 12482, Note_on_c, 9, 59, 32
4, 12640, Note_on_c, 9, 44, 0
4, 12948, Note_on_c, 9, 64, 0
4, 13018, Note_on_c, 9, 59, 0
4, 13018, Note_on_c, 9, 64, 48
4, 13108, Note_on_c, 9, 59, 44
4, 13284, Note_on_c, 9, 59, 0
4, 13289, Note_on_c, 9, 64, 0
4, 13399, Note_on_c, 9, 59, 26
4, 13959, Note_on_c, 9, 59, 0
4, 13988, Note_on_c, 9, 63, 38
4, 14009, Note_on_c, 9, 62, 50
4, 14034, Note_on_c, 9, 59, 72
4, 14192, Note_on_c, 9, 62, 0
4, 14213, Note_on_c, 9, 63, 0
4, 14214, Note_on_c, 9, 59, 0
4, 14345, Note_on_c, 9, 46, 57
4, 14363, Note_on_c, 9, 37, 48
4, 14365, Note_on_c, 9, 59, 57
4, 14400, Note_on_c, 9, 44, 70
4, 14455, Note_on_c, 9, 46, 0
4, 14560, Note_on_c, 9, 44, 0
4, 14642, Note_on_c, 9, 37, 0
4, 14901, Note_on_c, 9, 59, 0
4, 14973, Note_on_c, 9, 59, 71
4, 15287, Note_on_c, 9, 59, 0
4, 15411, Note_on_c, 9, 59, 24
4, 15996, Note_on_c, 9, 59, 0
4, 16275, Note_on_c, 9, 59, 37
4, 16320, Note_on_c, 9, 44, 70
4, 16352, Note_on_c, 9, 64, 45
4, 16480, Note_on_c, 9, 44, 0
4, 16844, Note_on_c, 9, 64, 0
4, 16920, Note_on_c, 9, 64, 80
4, 17074, Note_on_c, 9, 59, 0
4, 17231, Note_on_c, 9, 64, 0
4, 17608, Note_on_c, 9, 59, 64
4, 17623, Note_on_c, 9, 62, 31
4, 17708, Note_on_c, 9, 62, 0
4, 17814, Note_on_c, 9, 59, 0
4, 17932, Note_on_c, 9, 59, 62
4, 17950, Note_on_c, 9, 63, 80
4, 17968, Note_on_c, 9, 62, 61
4, 18162, Note_on_c, 9, 59, 0
4, 18209, Note_on_c, 9, 63, 0
4, 18240, Note_on_c, 9, 44, 70
4, 18257, Note_on_c, 9, 62, 0
4, 18257, Note_on_c, 9, 37, 77
4, 18292, Note_on_c, 9, 59, 96
4, 18400, Note_on_c, 9, 44, 0
4, 18545, Note_on_c, 9, 59, 0
4, 18607, Note_on_c, 9, 59, 89
4, 18608, Note_on_c, 9, 37, 0
4, 18627, Note_on_c, 9, 63, 69
4, 18638, Note_on_c, 9, 62, 68
4, 18849, Note_on_c, 9, 59, 0
4, 18917, Note_on_c, 9, 62, 0
4, 18943, Note_on_c, 9, 59, 76
4, 18948, Note_on_c, 9, 63, 0
4, 19236, Note_on_c, 9, 59, 0
4, 19383, Note_on_c, 9, 59, 24
4, 19658, Note_on_c, 9, 59, 0
4, 19923, Note_on_c, 9, 59, 35
4, 20112, Note_on_c, 9, 59, 0
4, 20160, Note_on_c, 9, 44, 70
4, 20287, Note_on_c, 9, 64, 29
4, 20291, Note_on_c, 9, 59, 41
4, 20320, Note_on_c, 9, 44, 0
4, 20336, Note_on_c, 9, 64, 0
4, 20830, Note_on_c, 9, 64, 87
4, 20894, Note_on_c, 9, 59, 0
4, 21096, Note_on_c, 9, 64, 0
4, 21186, Note_on_c, 9, 59, 44
4, 21874, Note_on_c, 9, 59, 0
4, 22080, Note_on_c, 9, 44, 70
4, 22150, Note_on_c, 9, 59, 33
4, 22159, Note_on_c, 9, 63, 46
4, 22162, Note_on_c, 9, 62, 55
4, 22198, Note_on_c, 9, 62, 0
4, 22214, Note_on_c, 9, 63, 0
4, 22240, Note_on_c, 9, 44, 0
4, 22387, Note_on_c, 9, 59, 0
4, 22435, Note_on_c, 9, 53, 52
4, 22699, Note_on_c, 9, 38, 45
4, 22704, Note_on_c, 9, 63, 82
4, 22727, Note_on_c, 9, 62, 64
4, 22764, Note_on_c, 9, 62, 0
4, 22772, Note_on_c, 9, 53, 0
4, 22781, Note_on_c, 9, 63, 0
4, 22863, Note_on_c, 9, 38, 0
4, 23061, Note_on_c, 9, 59, 46
4, 23700, Note_on_c, 9, 59, 0
4, 24000, Note_on_c, 9, 44, 70
4, 24017, Note_on_c, 9, 59, 43
4, 24027, Note_on_c, 9, 64, 19
4, 24160, Note_on_c, 9, 44, 0
4, 24249, Note_on_c, 9, 64, 0
4, 24350, Note_on_c, 9, 64, 35
4, 24468, Note_on_c, 9, 59, 0
4, 24485, Note_on_c, 9, 64, 0
4, 24684, Note_on_c, 9, 59, 33
4, 24802, Note_on_c, 9, 59, 0
4, 24970, Note_on_c, 9, 59, 34
4, 25301, Note_on_c, 9, 38, 34
4, 25470, Note_on_c, 9, 59, 0
4, 25513, Note_on_c, 9, 38, 0
4, 25634, Note_on_c, 9, 38, 40
4, 25903, Note_on_c, 9, 38, 0
4, 25920, Note_on_c, 9, 44, 70
4, 25972, Note_on_c, 9, 59, 24
4, 26000, Note_on_c, 9, 63, 30
4, 26002, Note_on_c, 9, 62, 36
4, 26080, Note_on_c, 9, 44, 0
4, 26195, Note_on_c, 9, 59, 0
4, 26213, Note_on_c, 9, 63, 0
4, 26214, Note_on_c, 9, 62, 0
4, 26278, Note_on_c, 9, 53, 36
4, 26279, Note_on_c, 9, 63, 18
4, 26286, Note_on_c, 9, 62, 26
4, 26308, Note_on_c, 9, 38, 33
4, 26347, Note_on_c, 9, 62, 0
4, 26374, Note_on_c, 9, 38, 0
4, 26390, Note_on_c, 9, 63, 0
4, 26447, Note_on_c, 9, 53, 0
4, 26595, Note_on_c, 9, 59, 34
4, 26684, Note_on_c, 9, 59, 0
4, 26911, Note_on_c, 9, 59, 40
4, 27505, Note_on_c, 9, 59, 0
4, 27541, Note_on_c, 9, 53, 30
4, 27574, Note_on_c, 9, 64, 32
4, 27631, Note_on_c, 9, 53, 0
4, 27786, Note_on_c, 9, 64, 0
4, 27840, Note_on_c, 9, 44, 70
4, 27907, Note_on_c, 9, 64, 36
4, 27909, Note_on_c, 9, 38, 30
4, 27912, Note_on_c, 9, 53, 24
4, 28000, Note_on_c, 9, 44, 0
4, 28036, Note_on_c, 9, 38, 0
4, 28063, Note_on_c, 9, 53, 0
4, 28115, Note_on_c, 9, 64, 0
4, 28210, Note_on_c, 9, 62, 29
4, 28211, Note_on_c, 9, 36, 36
4, 28278, Note_on_c, 9, 62, 0
4, 28343, Note_on_c, 9, 36, 0
4, 28510, Note_on_c, 9, 36, 34
4, 28550, Note_on_c, 9, 59, 27
4, 28564, Note_on_c, 9, 62, 54
4, 28583, Note_on_c, 9, 63, 35
4, 28727, Note_on_c, 9, 59, 0
4, 28797, Note_on_c, 9, 63, 0
4, 28799, Note_on_c, 9, 62, 0
4, 28802, Note_on_c, 9, 36, 0
4, 28859, Note_on_c, 9, 59, 44
4, 29379, Note_on_c, 9, 59, 0
4, 29492, Note_on_c, 9, 53, 40
4, 29689, Note_on_c, 9, 53, 0
4, 29760, Note_on_c, 9, 44, 70
4, 29874, Note_on_c, 9, 53, 24
4, 29883, Note_on_c, 9, 38, 42
4, 29920, Note_on_c, 9, 44, 0
4, 29945, Note_on_c, 9, 38, 0
4, 30066, Note_on_c, 9, 53, 0
4, 30437, Note_on_c, 9, 59, 54
4, 30445, Note_on_c, 9, 64, 49
4, 30484, Note_on_c, 9, 36, 44
4, 30493, Note_on_c, 9, 59, 0
4, 30715, Note_on_c, 9, 36, 0
4, 30730, Note_on_c, 9, 64, 0
4, 30776, Note_on_c, 9, 59, 92
4, 31103, Note_on_c, 9, 59, 0
4, 31680, Note_on_c, 9, 44, 70
4, 31707, Note_on_c, 9, 62, 54
4, 31738, Note_on_c, 9, 63, 62
4, 31782, Note_on_c, 9, 53, 15
4, 31840, Note_on_c, 9, 44, 0
4, 32008, Note_on_c, 9, 53, 0
4, 32097, Note_on_c, 9, 62, 0
4, 32106, Note_on_c, 9, 63, 0
4, 32260, Note_on_c, 9, 63, 58
4, 32266, Note_on_c, 9, 38, 24
4, 32272, Note_on_c, 9, 62, 57
4, 32314, Note_on_c, 9, 59, 68
4, 32432, Note_on_c, 9, 38, 0
4, 32445, Note_on_c, 9, 62, 0
4, 32511, Note_on_c, 9, 63, 0
4, 32558, Note_on_c, 9, 59, 0
4, 32991, Note_on_c, 9, 53, 20
4, 33155, Note_on_c, 9, 53, 0
4, 33242, Note_on_c, 9, 38, 34
4, 33274, Note_on_c, 9, 53, 33
4, 33381, Note_on_c, 9, 38, 0
4, 33472, Note_on_c, 9, 53, 0
4, 33600, Note_on_c, 9, 44, 70
4, 33760, Note_on_c, 9, 44, 0
4, 33943, Note_on_c, 9, 64, 89
4, 34155, Note_on_c, 9, 64, 0
4, 34225, Note_on_c, 9, 38, 40
4, 34225, Note_on_c, 9, 64, 34
4, 34286, Note_on_c, 9, 59, 49
4, 34314, Note_on_c, 9, 64, 0
4, 34349, Note_on_c, 9, 59, 0
4, 34385, Note_on_c, 9, 38, 0
4, 34577, Note_on_c, 9, 36, 39
4, 34624, Note_on_c, 9, 59, 51
4, 34661, Note_on_c, 9, 36, 0
4, 35289, Note_on_c, 9, 59, 0
4, 35520, Note_on_c, 9, 44, 70
4, 35597, Note_on_c, 9, 59, 64
4, 35674, Note_on_c, 9, 62, 34
4, 35675, Note_on_c, 9, 63, 21
4, 35680, Note_on_c, 9, 44, 0
4, 35721, Note_on_c, 9, 59, 0
4, 36004, Note_on_c, 9, 62, 0
4, 36053, Note_on_c, 9, 63, 0
4, 36233, Note_on_c, 9, 63, 33
4, 36246, Note_on_c, 9, 62, 40
4, 36266, Note_on_c, 9, 59, 32
4, 36296, Note_on_c, 9, 62, 0
4, 36345, Note_on_c, 9, 63, 0
4, 36438, Note_on_c, 9, 59, 0
4, 36575, Note_on_c, 9, 59, 44
4, 37370, Note_on_c, 9, 59, 0
4, 37440, Note_on_c, 9, 44, 70
4, 37504, Note_on_c, 9, 64, 45
4, 37520, Note_on_c, 9, 59, 50
4, 37600, Note_on_c, 9, 44, 0
4, 37970, Note_on_c, 9, 64, 0
4, 38062, Note_on_c, 9, 64, 50
4, 38165, Note_on_c, 9, 64, 0
4, 38213, Note_on_c, 9, 59, 0
4, 38351, Note_on_c, 9, 59, 38
4, 39037, Note_on_c, 9, 62, 31
4, 39078, Note_on_c, 9, 62, 0
4, 39167, Note_on_c, 9, 59, 0
4, 39336, Note_on_c, 9, 59, 47
4, 39344, Note_on_c, 9, 63, 74
4, 39350, Note_on_c, 9, 44, 70
4, 39356, Note_on_c, 9, 62, 71
4, 39520, Note_on_c, 9, 44, 0
4, 39648, Note_on_c, 9, 62, 0
4, 39680, Note_on_c, 9, 63, 0
4, 40129, Note_on_c, 9, 59, 0
4, 40280, Note_on_c, 9, 59, 45
4, 40986, Note_on_c, 9, 59, 0
4, 41264, Note_on_c, 9, 59, 42
4, 41280, Note_on_c, 9, 44, 70
4, 41440, Note_on_c, 9, 44, 0
4, 41503, Note_on_c, 9, 59, 0
4, 41634, Note_on_c, 9, 64, 65
4, 41876, Note_on_c, 9, 64, 0
4, 41938, Note_on_c, 9, 59, 69
4, 42136, Note_on_c, 9, 59, 0
4, 42287, Note_on_c, 9, 59, 39
4, 42929, Note_on_c, 9, 59, 0
4, 42994, Note_on_c, 9, 59, 57
4, 43133, Note_on_c, 9, 59, 0
4, 43200, Note_on_c, 9, 44, 70
4, 43250, Note_on_c, 9, 63, 38
4, 43259, Note_on_c, 9, 62, 39
4, 43297, Note_on_c, 9, 59, 66
4, 43350, Note_on_c, 9, 44, 0
4, 43485, Note_on_c, 9, 62, 0
4, 43563, Note_on_c, 9, 63, 0
4, 44117, Note_on_c, 9, 59, 0
4, 44230, Note_on_c, 9, 59, 52
4, 45093, Note_on_c, 9, 59, 0
4, 45120, Note_on_c, 9, 44, 70
4, 45155, Note_on_c, 9, 64, 83
4, 45208, Note_on_c, 9, 59, 58
4, 45280, Note_on_c, 9, 44, 0
4, 45424, Note_on_c, 9, 59, 0
4, 45503, Note_on_c, 9, 59, 60
4, 45675, Note_on_c, 9, 64, 0
4, 45762, Note_on_c, 9, 64, 71
4, 45998, Note_on_c, 9, 59, 0
4, 46093, Note_on_c, 9, 64, 0
4, 46141, Note_on_c, 9, 59, 63
4, 46895, Note_on_c, 9, 59, 0
4, 47040, Note_on_c, 9, 44, 70
4, 47077, Note_on_c, 9, 59, 60
4, 47200, Note_on_c, 9, 44, 0
4, 47414, Note_on_c, 9, 63, 77
4, 47429, Note_on_c, 9, 62, 74
4, 47504, Note_on_c, 9, 62, 0
4, 47582, Note_on_c, 9, 63, 0
4, 47690, Note_on_c, 9, 59, 0
4, 47716, Note_on_c, 9, 63, 25
4, 47729, Note_on_c, 9, 62, 41
4, 47779, Note_on_c, 9, 62, 0
4, 47849, Note_on_c, 9, 63, 0
4, 47999, Note_on_c, 9, 59, 44
4, 48014, Note_on_c, 9, 38, 38
4, 48172, Note_on_c, 9, 59, 0
4, 48185, Note_on_c, 9, 38, 0
4, 48334, Note_on_c, 9, 53, 34
4, 48350, Note_on_c, 9, 38, 34
4, 48481, Note_on_c, 9, 53, 0
4, 48531, Note_on_c, 9, 38, 0
4, 48699, Note_on_c, 9, 59, 24
4, 48960, Note_on_c, 9, 44, 70
4, 48974, Note_on_c, 9, 64, 62
4, 49102, Note_on_c, 9, 59, 0
4, 49120, Note_on_c, 9, 44, 0
4, 49205, Note_on_c, 9, 64, 0
4, 49300, Note_on_c, 9, 64, 50
4, 49325, Note_on_c, 9, 59, 39
4, 49444, Note_on_c, 9, 64, 0
4, 49538, Note_on_c, 9, 59, 0
4, 49622, Note_on_c, 9, 59, 74
4, 49665, Note_on_c, 9, 62, 24
4, 49711, Note_on_c, 9, 62, 0
4, 50191, Note_on_c, 9, 59, 0
4, 50285, Note_on_c, 9, 59, 43
4, 50788, Note_on_c, 9, 59, 0
4, 50870, Note_on_c, 9, 44, 70
4, 50944, Note_on_c, 9, 59, 48
4, 50969, Note_on_c, 9, 63, 46
4, 50971, Note_on_c, 9, 62, 43
4, 51040, Note_on_c, 9, 44, 0
4, 51078, Note_on_c, 9, 62, 0
4, 51164, Note_on_c, 9, 63, 0
4, 51297, Note_on_c, 9, 38, 42
4, 51484, Note_on_c, 9, 38, 0
4, 51589, Note_on_c, 9, 62, 30
4, 51629, Note_on_c, 9, 62, 0
4, 51635, Note_on_c, 9, 59, 0
4, 51637, Note_on_c, 9, 36, 22
4, 51740, Note_on_c, 9, 36, 0
4, 51823, Note_on_c, 9, 59, 53
4, 51890, Note_on_c, 9, 38, 40
4, 52189, Note_on_c, 9, 38, 0
4, 52602, Note_on_c, 9, 38, 54
4, 52620, Note_on_c, 9, 59, 0
4, 52770, Note_on_c, 9, 59, 44
4, 52800, Note_on_c, 9, 44, 70
4, 52824, Note_on_c, 9, 38, 0
4, 52829, Note_on_c, 9, 64, 64
4, 52960, Note_on_c, 9, 44, 0
4, 53094, Note_on_c, 9, 64, 0
4, 53178, Note_on_c, 9, 38, 51
4, 53265, Note_on_c, 9, 38, 0
4, 53388, Note_on_c, 9, 59, 0
4, 53396, Note_on_c, 9, 62, 38
4, 53478, Note_on_c, 9, 62, 0
4, 53483, Note_on_c, 9, 59, 39
4, 53523, Note_on_c, 9, 36, 26
4, 53694, Note_on_c, 9, 59, 0
4, 53710, Note_on_c, 9, 36, 0
4, 53772, Note_on_c, 9, 59, 53
4, 53780, Note_on_c, 9, 57, 64
4, 53815, Note_on_c, 9, 38, 33
4, 53884, Note_on_c, 9, 57, 0
4, 53967, Note_on_c, 9, 38, 0
4, 54680, Note_on_c, 9, 59, 0
4, 54720, Note_on_c, 9, 44, 70
4, 54782, Note_on_c, 9, 59, 50
4, 54812, Note_on_c, 9, 64, 22
4, 54870, Note_on_c, 9, 44, 0
4, 55266, Note_on_c, 9, 64, 0
4, 55382, Note_on_c, 9, 64, 43
4, 55410, Note_on_c, 9, 59, 0
4, 55500, Note_on_c, 9, 59, 45
4, 55559, Note_on_c, 9, 59, 0
4, 55600, Note_on_c, 9, 64, 0
4, 55731, Note_on_c, 9, 59, 47
4, 56507, Note_on_c, 9, 59, 0
4, 56640, Note_on_c, 9, 44, 70
4, 56707, Note_on_c, 9, 59, 55
4, 56743, Note_on_c, 9, 63, 69
4, 56758, Note_on_c, 9, 62, 66
4, 56800, Note_on_c, 9, 44, 0
4, 57158, Note_on_c, 9, 62, 0
4, 57187, Note_on_c, 9, 63, 0
4, 57256, Note_on_c, 9, 59, 0
4, 57305, Note_on_c, 9, 63, 52
4, 57326, Note_on_c, 9, 62, 60
4, 57352, Note_on_c, 9, 59, 54
4, 57444, Note_on_c, 9, 62, 0
4, 57529, Note_on_c, 9, 63, 0
4, 57567, Note_on_c, 9, 59, 0
4, 57654, Note_on_c, 9, 59, 56
4, 58250, Note_on_c, 9, 38, 20
4, 58304, Note_on_c, 9, 59, 0
4, 58400, Note_on_c, 9, 38, 0
4, 58558, Note_on_c, 9, 64, 56
4, 58560, Note_on_c, 9, 44, 70
4, 58626, Note_on_c, 9, 38, 28
4, 58626, Note_on_c, 9, 59, 48
4, 58720, Note_on_c, 9, 44, 0
4, 58755, Note_on_c, 9, 38, 0
4, 58911, Note_on_c, 9, 59, 0
4, 58945, Note_on_c, 9, 53, 31
4, 59081, Note_on_c, 9, 64, 0
4, 59152, Note_on_c, 9, 53, 0
4, 59199, Note_on_c, 9, 64, 51
4, 59246, Note_on_c, 9, 36, 17
4, 59329, Note_on_c, 9, 59, 16
4, 59370, Note_on_c, 9, 36, 0
4, 59461, Note_on_c, 9, 64, 0
4, 59506, Note_on_c, 9, 59, 0
4, 59612, Note_on_c, 9, 59, 57
4, 59898, Note_on_c, 9, 62, 36
4, 59963, Note_on_c, 9, 62, 0
4, 60170, Note_on_c, 9, 38, 31
4, 60226, Note_on_c, 9, 62, 58
4, 60227, Note_on_c, 9, 63, 35
4, 60299, Note_on_c, 9, 59, 0
4, 60390, Note_on_c, 9, 38, 0
4, 60451, Note_on_c, 9, 62, 0
4, 60480, Note_on_c, 9, 44, 70
4, 60528, Note_on_c, 9, 63, 0
4, 60530, Note_on_c, 9, 59, 44
4, 60548, Note_on_c, 9, 38, 25
4, 60640, Note_on_c, 9, 44, 0
4, 60848, Note_on_c, 9, 63, 37
4, 60854, Note_on_c, 9, 53, 40
4, 60873, Note_on_c, 9, 62, 36
4, 60897, Note_on_c, 9, 59, 0
4, 60939, Note_on_c, 9, 38, 0
4, 61034, Note_on_c, 9, 53, 0
4, 61113, Note_on_c, 9, 62, 0
4, 61145, Note_on_c, 9, 36, 47
4, 61179, Note_on_c, 9, 63, 0
4, 61184, Note_on_c, 9, 59, 26
4, 61310, Note_on_c, 9, 59, 0
4, 61483, Note_on_c, 9, 59, 53
4, 61582, Note_on_c, 9, 36, 0
4, 62144, Note_on_c, 9, 62, 34
4, 62210, Note_on_c, 9, 62, 0
4, 62239, Note_on_c, 9, 59, 0
4, 62390, Note_on_c, 9, 46, 68
4, 62400, Note_on_c, 9, 44, 70
4, 62434, Note_on_c, 9, 59, 57
4, 62478, Note_on_c, 9, 64, 19
4, 62505, Note_on_c, 9, 38, 36
4, 62560, Note_on_c, 9, 44, 0
4, 62645, Note_on_c, 9, 46, 0
4, 62650, Note_on_c, 9, 64, 0
4, 62656, Note_on_c, 9, 38, 0
4, 62752, Note_on_c, 9, 64, 53
4, 62973, Note_on_c, 9, 64, 0
4, 63045, Note_on_c, 9, 59, 0
4, 63046, Note_on_c, 9, 53, 64
4, 63114, Note_on_c, 9, 36, 38
4, 63196, Note_on_c, 9, 53, 0
4, 63266, Note_on_c, 9, 36, 0
4, 63390, Note_on_c, 9, 59, 29
4, 63454, Note_on_c, 9, 36, 28
4, 63540, Note_on_c, 9, 36, 0
4, 63991, Note_on_c, 9, 59, 0
4, 63993, Note_on_c, 9, 53, 78
4, 64008, Note_on_c, 9, 63, 69
4, 64019, Note_on_c, 9, 62, 68
4, 64305, Note_on_c, 9, 46, 74
4, 64318, Note_on_c, 9, 62, 0
4, 64320, Note_on_c, 9, 44, 70
4, 64331, Note_on_c, 9, 53, 0
4, 64387, Note_on_c, 9, 63, 0
4, 64404, Note_on_c, 9, 59, 30
4, 64480, Note_on_c, 9, 44, 0
4, 64540, Note_on_c, 9, 46, 0
4, 64617, Note_on_c, 9, 38, 52
4, 64644, Note_on_c, 9, 63, 48
4, 64661, Note_on_c, 9, 62, 64
4, 64818, Note_on_c, 9, 38, 0
4, 64923, Note_on_c, 9, 59, 0
4, 64945, Note_on_c, 9, 38, 55
4, 64977, Note_on_c, 9, 53, 84
4, 65013, Note_on_c, 9, 62, 0
4, 65098, Note_on_c, 9, 63, 0
4, 65227, Note_on_c, 9, 53, 0
4, 65240, Note_on_c, 9, 38, 0
4, 65295, Note_on_c, 9, 63, 38
4, 65313, Note_on_c, 9, 57, 57
4, 65320, Note_on_c, 9, 36, 63
4, 65330, Note_on_c, 9, 57, 61
4, 65331, Note_on_c, 9, 53, 51
4, 65332, Note_on_c, 9, 59, 66
4, 65418, Note_on_c, 9, 63, 0
4, 65431, Note_on_c, 9, 53, 0
4, 65481, Note_on_c, 9, 57, 0
4, 65746, Note_on_c, 9, 36, 0
4, 65965, Note_on_c, 9, 57, 0
4, 66133, Note_on_c, 9, 59, 0
4, 66240, Note_on_c, 9, 44, 70
4, 66354, Note_on_c, 9, 59, 45
4, 66400, Note_on_c, 9, 44, 0
4, 66856, Note_on_c, 9, 63, 28
4, 66869, Note_on_c, 9, 62, 39
4, 66936, Note_on_c, 9, 62, 0
4, 66985, Note_on_c, 9, 59, 0
4, 67022, Note_on_c, 9, 63, 0
4, 67221, Note_on_c, 9, 59, 44
4, 67955, Note_on_c, 9, 59, 0
4, 68160, Note_on_c, 9, 44, 70
4, 68167, Note_on_c, 9, 59, 46
4, 68203, Note_on_c, 9, 64, 46
4, 68320, Note_on_c, 9, 44, 0
4, 68702, Note_on_c, 9, 59, 0
4, 68739, Note_on_c, 9, 64, 0
4, 68796, Note_on_c, 9, 64, 68
4, 68834, Note_on_c, 9, 59, 37
4, 69008, Note_on_c, 9, 59, 0
4, 69122, Note_on_c, 9, 59, 47
4, 69182, Note_on_c, 9, 64, 0
4, 69978, Note_on_c, 9, 59, 0
4, 70080, Note_on_c, 9, 44, 70
4, 70171, Note_on_c, 9, 59, 48
4, 70240, Note_on_c, 9, 44, 0
4, 70435, Note_on_c, 9, 63, 71
4, 70449, Note_on_c, 9, 62, 71
4, 70510, Note_on_c, 9, 59, 0
4, 70739, Note_on_c, 9, 62, 0
4, 70744, Note_on_c, 9, 59, 66
4, 70796, Note_on_c, 9, 63, 0
4, 70947, Note_on_c, 9, 59, 0
4, 71581, Note_on_c, 9, 38, 40
4, 71656, Note_on_c, 9, 38, 0
4, 71681, Note_on_c, 9, 59, 39
4, 71846, Note_on_c, 9, 59, 0
4, 71997, Note_on_c, 9, 64, 43
4, 72000, Note_on_c, 9, 44, 70
4, 72016, Note_on_c, 9, 38, 46
4, 72021, Note_on_c, 9, 59, 57
4, 72160, Note_on_c, 9, 44, 0
4, 72185, Note_on_c, 9, 38, 0
4, 72282, Note_on_c, 9, 38, 57
4, 72403, Note_on_c, 9, 38, 0
4, 72497, Note_on_c, 9, 36, 58
4, 72510, Note_on_c, 9, 64, 0
4, 72604, Note_on_c, 9, 64, 60
4, 72690, Note_on_c, 9, 36, 0
4, 72756, Note_on_c, 9, 59, 0
4, 72894, Note_on_c, 9, 64, 0
4, 72969, Note_on_c, 9, 36, 43
4, 72990, Note_on_c, 9, 59, 44
4, 73253, Note_on_c, 9, 36, 0
4, 73420, Note_on_c, 9, 36, 34
4, 73672, Note_on_c, 9, 36, 0
4, 73759, Note_on_c, 9, 59, 0
4, 73900, Note_on_c, 9, 63, 46
4, 73907, Note_on_c, 9, 62, 43
4, 73920, Note_on_c, 9, 44, 70
4, 73921, Note_on_c, 9, 59, 44
4, 74080, Note_on_c, 9, 44, 0
4, 74297, Note_on_c, 9, 62, 0
4, 74350, Note_on_c, 9, 63, 0
4, 74469, Note_on_c, 9, 63, 37
4, 74517, Note_on_c, 9, 62, 24
4, 74583, Note_on_c, 9, 62, 0
4, 74652, Note_on_c, 9, 63, 0
4, 74687, Note_on_c, 9, 59, 0
4, 74785, Note_on_c, 9, 59, 38
4, 74850, Note_on_c, 9, 59, 0
4, 74947, Note_on_c, 9, 59, 56
4, 75750, Note_on_c, 9, 59, 0
4, 75840, Note_on_c, 9, 44, 70
4, 75857, Note_on_c, 9, 59, 48
4, 75879, Note_on_c, 9, 64, 55
4, 76000, Note_on_c, 9, 44, 0
4, 76378, Note_on_c, 9, 64, 0
4, 76449, Note_on_c, 9, 64, 68
4, 76561, Note_on_c, 9, 59, 0
4, 76649, Note_on_c, 9, 59, 45
4, 76664, Note_on_c, 9, 64, 0
4, 76722, Note_on_c, 9, 59, 0
4, 76811, Note_on_c, 9, 59, 50
4, 77590, Note_on_c, 9, 59, 0
4, 77709, Note_on_c, 9, 59, 47
4, 77760, Note_on_c, 9, 44, 70
4, 77774, Note_on_c, 9, 62, 41
4, 77778, Note_on_c, 9, 63, 30
4, 77920, Note_on_c, 9, 44, 0
4, 77985, Note_on_c, 9, 62, 0
4, 77986, Note_on_c, 9, 63, 0
4, 78066, Note_on_c, 9, 40, 31
4, 78184, Note_on_c, 9, 40, 0
4, 78463, Note_on_c, 9, 59, 0
4, 78649, Note_on_c, 9, 59, 47
4, 78684, Note_on_c, 9, 40, 30
4, 78823, Note_on_c, 9, 40, 0
4, 79310, Note_on_c, 9, 40, 33
4, 79435, Note_on_c, 9, 59, 0
4, 79607, Note_on_c, 9, 40, 0
4, 79612, Note_on_c, 9, 59, 51
4, 79680, Note_on_c, 9, 44, 70
4, 79840, Note_on_c, 9, 44, 0
4, 79979, Note_on_c, 9, 40, 42
4, 79984, Note_on_c, 9, 64, 76
4, 80167, Note_on_c, 9, 40, 0
4, 80199, Note_on_c, 9, 64, 0
4, 80301, Note_on_c, 9, 64, 61
4, 80400, Note_on_c, 9, 59, 0
4, 80530, Note_on_c, 9, 59, 36
4, 80543, Note_on_c, 9, 64, 0
4, 80594, Note_on_c, 9, 59, 0
4, 80669, Note_on_c, 9, 38, 62
4, 80693, Note_on_c, 9, 59, 57
4, 81064, Note_on_c, 9, 38, 0
4, 81459, Note_on_c, 9, 59, 0
4, 81586, Note_on_c, 9, 59, 51
4, 81600, Note_on_c, 9, 44, 70
4, 81608, Note_on_c, 9, 63, 37
4, 81618, Note_on_c, 9, 62, 31
4, 81760, Note_on_c, 9, 44, 0
4, 81804, Note_on_c, 9, 63, 0
4, 81825, Note_on_c, 9, 62, 0
4, 81957, Note_on_c, 9, 63, 25
4, 82052, Note_on_c, 9, 63, 0
4, 82392, Note_on_c, 9, 59, 0
4, 82574, Note_on_c, 9, 59, 42
4, 82753, Note_on_c, 9, 59, 0
4, 82873, Note_on_c, 9, 59, 32
4, 82965, Note_on_c, 9, 38, 53
4, 83060, Note_on_c, 9, 59, 0
4, 83082, Note_on_c, 9, 38, 0
4, 83158, Note_on_c, 9, 59, 46
4, 83217, Note_on_c, 9, 64, 54
4, 83353, Note_on_c, 9, 59, 0
4, 83449, Note_on_c, 9, 64, 0
4, 83484, Note_on_c, 9, 59, 52
4, 83520, Note_on_c, 9, 44, 70
4, 83554, Note_on_c, 9, 64, 39
4, 83641, Note_on_c, 9, 38, 36
4, 83680, Note_on_c, 9, 44, 0
4, 83688, Note_on_c, 9, 59, 0
4, 83749, Note_on_c, 9, 38, 0
4, 83755, Note_on_c, 9, 64, 0
4, 83801, Note_on_c, 9, 59, 34
4, 83872, Note_on_c, 9, 59, 0
4, 83890, Note_on_c, 9, 64, 36
4, 83962, Note_on_c, 9, 64, 0
4, 84148, Note_on_c, 9, 59, 74
4, 84170, Note_on_c, 9, 38, 30
4, 84173, Note_on_c, 9, 63, 30
4, 84185, Note_on_c, 9, 62, 32
4, 84235, Note_on_c, 9, 38, 0
4, 84371, Note_on_c, 9, 63, 0
4, 84374, Note_on_c, 9, 62, 0
4, 84380, Note_on_c, 9, 59, 0
4, 84492, Note_on_c, 9, 63, 27
4, 84497, Note_on_c, 9, 59, 42
4, 84497, Note_on_c, 9, 62, 32
4, 84586, Note_on_c, 9, 62, 0
4, 84660, Note_on_c, 9, 59, 0
4, 84660, Note_on_c, 9, 63, 0
4, 84800, Note_on_c, 9, 59, 68
4, 85010, Note_on_c, 9, 59, 0
4, 85110, Note_on_c, 9, 59, 41
4, 85231, Note_on_c, 9, 59, 0
4, 85430, Note_on_c, 9, 64, 41
4, 85433, Note_on_c, 9, 59, 90
4, 85440, Note_on_c, 9, 44, 70
4, 85583, Note_on_c, 9, 64, 0
4, 85600, Note_on_c, 9, 44, 0
4, 85661, Note_on_c, 9, 59, 0
4, 85739, Note_on_c, 9, 64, 41
4, 85771, Note_on_c, 9, 59, 44
4, 85843, Note_on_c, 9, 59, 0
4, 85859, Note_on_c, 9, 64, 0
4, 86063, Note_on_c, 9, 59, 76
4, 86078, Note_on_c, 9, 63, 34
4, 86089, Note_on_c, 9, 62, 36
4, 86275, Note_on_c, 9, 59, 0
4, 86284, Note_on_c, 9, 63, 0
4, 86286, Note_on_c, 9, 62, 0
4, 86408, Note_on_c, 9, 59, 36
4, 86424, Note_on_c, 9, 63, 28
4, 86433, Note_on_c, 9, 62, 29
4, 86469, Note_on_c, 9, 59, 0
4, 86489, Note_on_c, 9, 62, 0
4, 86588, Note_on_c, 9, 63, 0
4, 86674, Note_on_c, 9, 38, 46
4, 86708, Note_on_c, 9, 59, 76
4, 86765, Note_on_c, 9, 38, 0
4, 86960, Note_on_c, 9, 38, 44
4, 86978, Note_on_c, 9, 59, 0
4, 87061, Note_on_c, 9, 59, 35
4, 87099, Note_on_c, 9, 38, 0
4, 87131, Note_on_c, 9, 59, 0
4, 87350, Note_on_c, 9, 44, 70
4, 87366, Note_on_c, 9, 57, 20
4, 87387, Note_on_c, 9, 59, 51
4, 87389, Note_on_c, 9, 36, 28
4, 87450, Note_on_c, 9, 57, 0
4, 87514, Note_on_c, 9, 36, 0
4, 87520, Note_on_c, 9, 44, 0
4, 87599, Note_on_c, 9, 59, 0
4, 87696, Note_on_c, 9, 59, 42
4, 87700, Note_on_c, 9, 36, 24
4, 87747, Note_on_c, 9, 59, 0
4, 87857, Note_on_c, 9, 36, 0
4, 87999, Note_on_c, 9, 38, 45
4, 88048, Note_on_c, 9, 53, 55
4, 88054, Note_on_c, 9, 64, 45
4, 88091, Note_on_c, 9, 53, 0
4, 88159, Note_on_c, 9, 64, 0
4, 88202, Note_on_c, 9, 38, 0
4, 88381, Note_on_c, 9, 59, 43
4, 88922, Note_on_c, 9, 59, 0
4, 89280, Note_on_c, 9, 44, 70
4, 89409, Note_on_c, 9, 59, 54
4, 89434, Note_on_c, 9, 64, 43
4, 89440, Note_on_c, 9, 44, 0
4, 89820, Note_on_c, 9, 64, 0
4, 89943, Note_on_c, 9, 64, 49
4, 90042, Note_on_c, 9, 59, 0
4, 90148, Note_on_c, 9, 64, 0
4, 90255, Note_on_c, 9, 59, 49
4, 90935, Note_on_c, 9, 62, 22
4, 90968, Note_on_c, 9, 59, 0
4, 90994, Note_on_c, 9, 62, 0
4, 91200, Note_on_c, 9, 44, 70
4, 91221, Note_on_c, 9, 63, 34
4, 91229, Note_on_c, 9, 59, 38
4, 91326, Note_on_c, 9, 62, 8
4, 91350, Note_on_c, 9, 44, 0
4, 91534, Note_on_c, 9, 62, 0
4, 91545, Note_on_c, 9, 53, 49
4, 91560, Note_on_c, 9, 63, 0
4, 91588, Note_on_c, 9, 59, 0
4, 91785, Note_on_c, 9, 63, 30
4, 91791, Note_on_c, 9, 62, 39
4, 91865, Note_on_c, 9, 53, 0
4, 91899, Note_on_c, 9, 62, 0
4, 91950, Note_on_c, 9, 63, 0
4, 92232, Note_on_c, 9, 59, 45
4, 92548, Note_on_c, 9, 53, 51
4, 92673, Note_on_c, 9, 59, 0
4, 92885, Note_on_c, 9, 38, 22
4, 93079, Note_on_c, 9, 38, 0
4, 93120, Note_on_c, 9, 44, 70
4, 93125, Note_on_c, 9, 46, 69
4, 93215, Note_on_c, 9, 64, 53
4, 93250, Note_on_c, 9, 38, 31
4, 93273, Note_on_c, 9, 53, 0
4, 93280, Note_on_c, 9, 44, 0
4, 93533, Note_on_c, 9, 53, 61
4, 93665, Note_on_c, 9, 46, 0
4, 93678, Note_on_c, 9, 64, 0
4, 93776, Note_on_c, 9, 38, 0
4, 93827, Note_on_c, 9, 64, 56
4, 94015, Note_on_c, 9, 64, 0
4, 94233, Note_on_c, 9, 53, 0
4, 94242, Note_on_c, 9, 59, 37
4, 94249, Note_on_c, 9, 38, 33
4, 94367, Note_on_c, 9, 59, 0
4, 94405, Note_on_c, 9, 38, 0
4, 94496, Note_on_c, 9, 53, 66
4, 94720, Note_on_c, 9, 46, 79
4, 94776, Note_on_c, 9, 62, 29
4, 94821, Note_on_c, 9, 62, 0
4, 94915, Note_on_c, 9, 36, 20
4, 95033, Note_on_c, 9, 36, 0
4, 95040, Note_on_c, 9, 44, 70
4, 95095, Note_on_c, 9, 53, 0
4, 95107, Note_on_c, 9, 63, 43
4, 95119, Note_on_c, 9, 59, 46
4, 95123, Note_on_c, 9, 62, 36
4, 95195, Note_on_c, 9, 46, 0
4, 95200, Note_on_c, 9, 44, 0
4, 95226, Note_on_c, 9, 38, 35
4, 95343, Note_on_c, 9, 59, 0
4, 95357, Note_on_c, 9, 62, 0
4, 95405, Note_on_c, 9, 38, 0
4, 95410, Note_on_c, 9, 53, 40
4, 95415, Note_on_c, 9, 63, 0
4, 95525, Note_on_c, 9, 53, 0
4, 95669, Note_on_c, 9, 63, 42
4, 95748, Note_on_c, 9, 59, 29
4, 95798, Note_on_c, 9, 63, 0
4, 95810, Note_on_c, 9, 36, 30
4, 95836, Note_on_c, 9, 59, 0
4, 95912, Note_on_c, 9, 36, 0
4, 96064, Note_on_c, 9, 59, 36
4, 96629, Note_on_c, 9, 59, 0
4, 96907, Note_on_c, 9, 59, 48
4, 96960, Note_on_c, 9, 44, 70
4, 96983, Note_on_c, 9, 64, 29
4, 97120, Note_on_c, 9, 44, 0
4, 97494, Note_on_c, 9, 64, 0
4, 97592, Note_on_c, 9, 64, 60
4, 97714, Note_on_c, 9, 59, 0
4, 97831, Note_on_c, 9, 64, 0
4, 97964, Note_on_c, 9, 59, 45
4, 98779, Note_on_c, 9, 59, 0
4, 98880, Note_on_c, 9, 44, 70
4, 98961, Note_on_c, 9, 59, 45
4, 99040, Note_on_c, 9, 44, 0
4, 99389, Note_on_c, 9, 59, 0
4, 99426, Note_on_c, 9, 38, 49
4, 99493, Note_on_c, 9, 63, 47
4, 99531, Note_on_c, 9, 62, 31
4, 99543, Note_on_c, 9, 59, 46
4, 99580, Note_on_c, 9, 62, 0
4, 99603, Note_on_c, 9, 38, 0
4, 99710, Note_on_c, 9, 63, 0
4, 99759, Note_on_c, 9, 59, 0
4, 99853, Note_on_c, 9, 59, 43
4, 100651, Note_on_c, 9, 59, 0
4, 100800, Note_on_c, 9, 44, 70
4, 100812, Note_on_c, 9, 64, 76
4, 100837, Note_on_c, 9, 59, 39
4, 100960, Note_on_c, 9, 44, 0
4, 101050, Note_on_c, 9, 64, 0
4, 101395, Note_on_c, 9, 64, 35
4, 101433, Note_on_c, 9, 59, 0
4, 101583, Note_on_c, 9, 64, 0
4, 101754, Note_on_c, 9, 59, 42
4, 102364, Note_on_c, 9, 38, 48
4, 102553, Note_on_c, 9, 38, 0
4, 102603, Note_on_c, 9, 59, 0
4, 102713, Note_on_c, 9, 59, 44
4, 102720, Note_on_c, 9, 44, 70
4, 102739, Note_on_c, 9, 38, 40
4, 102774, Note_on_c, 9, 63, 74
4, 102789, Note_on_c, 9, 62, 69
4, 102798, Note_on_c, 9, 66, 45
4, 102870, Note_on_c, 9, 44, 0
4, 102881, Note_on_c, 9, 62, 0
4, 102980, Note_on_c, 9, 63, 0
4, 103097, Note_on_c, 9, 66, 0
4, 103345, Note_on_c, 9, 38, 0
4, 103391, Note_on_c, 9, 36, 37
4, 103496, Note_on_c, 9, 59, 0
4, 103566, Note_on_c, 9, 36, 0
4, 103585, Note_on_c, 9, 59, 44
4, 103653, Note_on_c, 9, 59, 0
4, 103764, Note_on_c, 9, 59, 50
4, 104547, Note_on_c, 9, 59, 0
4, 104640, Note_on_c, 9, 44, 70
4, 104670, Note_on_c, 9, 59, 55
4, 104720, Note_on_c, 9, 64, 49
4, 104800, Note_on_c, 9, 44, 0
4, 104948, Note_on_c, 9, 64, 0
4, 105300, Note_on_c, 9, 64, 50
4, 105467, Note_on_c, 9, 59, 0
4, 105534, Note_on_c, 9, 64, 0
4, 105664, Note_on_c, 9, 59, 53
4, 106284, Note_on_c, 9, 53, 51
4, 106350, Note_on_c, 9, 53, 0
4, 106371, Note_on_c, 9, 59, 0
4, 106560, Note_on_c, 9, 44, 70
4, 106644, Note_on_c, 9, 63, 57
4, 106645, Note_on_c, 9, 59, 46
4, 106654, Note_on_c, 9, 62, 58
4, 106720, Note_on_c, 9, 44, 0
4, 106897, Note_on_c, 9, 62, 0
4, 106982, Note_on_c, 9, 63, 0
4, 107149, Note_on_c, 9, 59, 0
4, 107267, Note_on_c, 9, 59, 60
4, 107496, Note_on_c, 9, 59, 0
4, 107582, Note_on_c, 9, 59, 57
4, 108268, Note_on_c, 9, 62, 22
4, 108331, Note_on_c, 9, 62, 0
4, 108352, Note_on_c, 9, 59, 0
4, 108480, Note_on_c, 9, 44, 70
4, 108535, Note_on_c, 9, 38, 15
4, 108550, Note_on_c, 9, 59, 54
4, 108568, Note_on_c, 9, 64, 38
4, 108640, Note_on_c, 9, 44, 0
4, 108671, Note_on_c, 9, 38, 0
4, 109025, Note_on_c, 9, 64, 0
4, 109152, Note_on_c, 9, 64, 83
4, 109170, Note_on_c, 9, 38, 31
4, 109348, Note_on_c, 9, 59, 0
4, 109351, Note_on_c, 9, 38, 0
4, 109498, Note_on_c, 9, 64, 0
4, 109534, Note_on_c, 9, 59, 55
4, 110101, Note_on_c, 9, 59, 0
4, 110160, Note_on_c, 9, 59, 24
4, 110278, Note_on_c, 9, 59, 0
4, 110400, Note_on_c, 9, 44, 70
4, 110457, Note_on_c, 9, 59, 60
4, 110506, Note_on_c, 9, 63, 29
4, 110529, Note_on_c, 9, 62, 17
4, 110560, Note_on_c, 9, 44, 0
4, 110784, Note_on_c, 9, 38, 15
4, 110819, Note_on_c, 9, 62, 0
4, 110910, Note_on_c, 9, 63, 0
4, 110933, Note_on_c, 9, 38, 0
4, 110952, Note_on_c, 9, 59, 0
4, 111040, Note_on_c, 9, 63, 71
4, 111055, Note_on_c, 9, 59, 57
4, 111057, Note_on_c, 9, 62, 77
4, 111257, Note_on_c, 9, 62, 0
4, 111262, Note_on_c, 9, 59, 0
4, 111338, Note_on_c, 9, 63, 0
4, 111387, Note_on_c, 9, 59, 52
4, 112131, Note_on_c, 9, 59, 0
4, 112320, Note_on_c, 9, 44, 70
4, 112341, Note_on_c, 9, 59, 62
4, 112356, Note_on_c, 9, 64, 20
4, 112480, Note_on_c, 9, 44, 0
4, 112843, Note_on_c, 9, 64, 0
4, 112945, Note_on_c, 9, 64, 91
4, 113203, Note_on_c, 9, 59, 0
4, 113235, Note_on_c, 9, 64, 0
4, 113310, Note_on_c, 9, 59, 58
4, 113578, Note_on_c, 9, 38, 24
4, 113736, Note_on_c, 9, 38, 0
4, 114154, Note_on_c, 9, 59, 0
4, 114240, Note_on_c, 9, 44, 70
4, 114273, Note_on_c, 9, 63, 25
4, 114276, Note_on_c, 9, 59, 55
4, 114308, Note_on_c, 9, 62, 18
4, 114400, Note_on_c, 9, 44, 0
4, 114709, Note_on_c, 9, 59, 0
4, 114728, Note_on_c, 9, 62, 0
4, 114780, Note_on_c, 9, 63, 0
4, 114847, Note_on_c, 9, 59, 76
4, 114875, Note_on_c, 9, 63, 52
4, 114891, Note_on_c, 9, 62, 68
4, 114965, Note_on_c, 9, 65, 17
4, 115037, Note_on_c, 9, 62, 0
4, 115080, Note_on_c, 9, 63, 0
4, 115088, Note_on_c, 9, 59, 0
4, 115209, Note_on_c, 9, 59, 53
4, 115212, Note_on_c, 9, 65, 0
4, 116059, Note_on_c, 9, 59, 0
4, 116160, Note_on_c, 9, 44, 70
4, 116192, Note_on_c, 9, 64, 36
4, 116193, Note_on_c, 9, 59, 63
4, 116320, Note_on_c, 9, 44, 0
4, 116416, Note_on_c, 9, 59, 0
4, 116508, Note_on_c, 9, 59, 49
4, 116557, Note_on_c, 9, 64, 0
4, 116794, Note_on_c, 9, 64, 53
4, 116978, Note_on_c, 9, 59, 0
4, 117067, Note_on_c, 9, 64, 0
4, 117169, Note_on_c, 9, 59, 48
4, 117372, Note_on_c, 9, 59, 0
4, 117443, Note_on_c, 9, 38, 31
4, 117459, Note_on_c, 9, 59, 50
4, 117590, Note_on_c, 9, 38, 0
4, 117820, Note_on_c, 9, 63, 36
4, 117829, Note_on_c, 9, 62, 31
4, 117900, Note_on_c, 9, 59, 0
4, 118080, Note_on_c, 9, 44, 70
4, 118105, Note_on_c, 9, 62, 0
4, 118135, Note_on_c, 9, 63, 0
4, 118148, Note_on_c, 9, 59, 40
4, 118240, Note_on_c, 9, 44, 0
4, 118347, Note_on_c, 9, 59, 0
4, 118432, Note_on_c, 9, 63, 35
4, 118546, Note_on_c, 9, 63, 0
4, 118557, Note_on_c, 9, 36, 17
4, 118669, Note_on_c, 9, 36, 0
4, 118742, Note_on_c, 9, 63, 45
4, 118816, Note_on_c, 9, 59, 53
4, 118838, Note_on_c, 9, 36, 32
4, 118943, Note_on_c, 9, 63, 0
4, 119005, Note_on_c, 9, 36, 0
4, 119457, Note_on_c, 9, 59, 0
4, 119537, Note_on_c, 9, 53, 36
4, 119643, Note_on_c, 9, 53, 0
4, 119750, Note_on_c, 9, 62, 30
4, 119819, Note_on_c, 9, 53, 30
4, 119990, Note_on_c, 9, 62, 0
4, 120000, Note_on_c, 9, 44, 70
4, 120040, Note_on_c, 9, 53, 0
4, 120141, Note_on_c, 9, 59, 38
4, 120160, Note_on_c, 9, 44, 0
4, 120323, Note_on_c, 9, 59, 0
4, 120711, Note_on_c, 9, 36, 34
4, 120932, Note_on_c, 9, 36, 0
4, 121176, Note_on_c, 9, 36, 17
4, 121388, Note_on_c, 9, 53, 54
4, 121425, Note_on_c, 9, 36, 0
4, 121602, Note_on_c, 9, 53, 0
4, 121740, Note_on_c, 9, 59, 24
4, 121845, Note_on_c, 9, 59, 0
4, 121920, Note_on_c, 9, 44, 70
4, 122037, Note_on_c, 9, 59, 36
4, 122080, Note_on_c, 9, 44, 0
4, 122212, Note_on_c, 9, 59, 0
4, 122320, Note_on_c, 9, 53, 33
4, 122573, Note_on_c, 9, 53, 0
4, 122629, Note_on_c, 9, 36, 33
4, 122855, Note_on_c, 9, 36, 0
4, 123019, Note_on_c, 9, 59, 54
4, 123085, Note_on_c, 9, 36, 19
4, 123338, Note_on_c, 9, 36, 0
4, 123810, Note_on_c, 9, 59, 0
4, 123840, Note_on_c, 9, 44, 70
4, 123987, Note_on_c, 9, 64, 50
4, 124000, Note_on_c, 9, 44, 0
4, 124008, Note_on_c, 9, 59, 51
4, 124466, Note_on_c, 9, 64, 0
4, 124582, Note_on_c, 9, 59, 0
4, 124593, Note_on_c, 9, 64, 42
4, 124608, Note_on_c, 9, 53, 53
4, 124826, Note_on_c, 9, 64, 0
4, 124906, Note_on_c, 9, 53, 0
4, 124964, Note_on_c, 9, 59, 43
4, 125518, Note_on_c, 9, 59, 0
4, 125570, Note_on_c, 9, 53, 71
4, 125760, Note_on_c, 9, 44, 70
4, 125809, Note_on_c, 9, 53, 0
4, 125913, Note_on_c, 9, 59, 51
4, 125919, Note_on_c, 9, 62, 80
4, 125920, Note_on_c, 9, 44, 0
4, 126398, Note_on_c, 9, 62, 0
4, 126436, Note_on_c, 9, 59, 0
4, 126508, Note_on_c, 9, 53, 70
4, 126508, Note_on_c, 9, 62, 74
4, 126529, Note_on_c, 9, 38, 48
4, 126708, Note_on_c, 9, 53, 0
4, 126719, Note_on_c, 9, 62, 0
4, 126835, Note_on_c, 9, 59, 58
4, 126838, Note_on_c, 9, 38, 0
4, 127679, Note_on_c, 9, 59, 0
4, 127680, Note_on_c, 9, 44, 70
4, 127727, Note_on_c, 9, 64, 52
4, 127791, Note_on_c, 9, 51, 64
4, 127840, Note_on_c, 9, 44, 0
4, 128219, Note_on_c, 9, 64, 0
4, 128319, Note_on_c, 9, 64, 55
4, 128486, Note_on_c, 9, 64, 0
4, 128501, Note_on_c, 9, 51, 0
4, 128722, Note_on_c, 9, 51, 64
4, 129527, Note_on_c, 9, 51, 0
4, 129600, Note_on_c, 9, 44, 70
4, 129636, Note_on_c, 9, 62, 92
4, 129675, Note_on_c, 9, 51, 56
4, 129760, Note_on_c, 9, 44, 0
4, 130125, Note_on_c, 9, 62, 0
4, 130218, Note_on_c, 9, 62, 80
4, 130238, Note_on_c, 9, 51, 0
4, 130323, Note_on_c, 9, 51, 56
4, 130464, Note_on_c, 9, 51, 0
4, 130510, Note_on_c, 9, 62, 0
4, 130619, Note_on_c, 9, 51, 42
4, 131440, Note_on_c, 9, 51, 0
4, 131520, Note_on_c, 9, 44, 70
4, 131532, Note_on_c, 9, 64, 68
4, 131590, Note_on_c, 9, 51, 58
4, 131680, Note_on_c, 9, 44, 0
4, 132068, Note_on_c, 9, 64, 0
4, 132156, Note_on_c, 9, 64, 66
4, 132306, Note_on_c, 9, 51, 0
4, 132397, Note_on_c, 9, 64, 0
4, 132468, Note_on_c, 9, 51, 49
4, 132918, Note_on_c, 9, 51, 0
4, 133068, Note_on_c, 9, 51, 45
4, 133087, Note_on_c, 9, 53, 54
4, 133331, Note_on_c, 9, 51, 0
4, 133382, Note_on_c, 9, 53, 0
4, 133440, Note_on_c, 9, 44, 70
4, 133445, Note_on_c, 9, 63, 53
4, 133446, Note_on_c, 9, 51, 30
4, 133600, Note_on_c, 9, 44, 0
4, 133894, Note_on_c, 9, 63, 0
4, 134031, Note_on_c, 9, 63, 59
4, 134239, Note_on_c, 9, 51, 0
4, 134287, Note_on_c, 9, 63, 0
4, 134377, Note_on_c, 9, 51, 52
4, 135191, Note_on_c, 9, 51, 0
4, 135289, Note_on_c, 9, 64, 60
4, 135360, Note_on_c, 9, 44, 70
4, 135364, Note_on_c, 9, 51, 53
4, 135520, Note_on_c, 9, 44, 0
4, 135868, Note_on_c, 9, 64, 0
4, 135943, Note_on_c, 9, 64, 65
4, 136005, Note_on_c, 9, 51, 0
4, 136079, Note_on_c, 9, 51, 46
4, 136227, Note_on_c, 9, 64, 0
4, 136294, Note_on_c, 9, 51, 0
4, 136410, Note_on_c, 9, 51, 46
4, 137147, Note_on_c, 9, 51, 0
4, 137263, Note_on_c, 9, 63, 57
4, 137276, Note_on_c, 9, 62, 62
4, 137280, Note_on_c, 9, 44, 70
4, 137362, Note_on_c, 9, 51, 56
4, 137440, Note_on_c, 9, 44, 0
4, 137684, Note_on_c, 9, 62, 0
4, 137722, Note_on_c, 9, 63, 0
4, 137868, Note_on_c, 9, 63, 64
4, 137890, Note_on_c, 9, 62, 65
4, 138068, Note_on_c, 9, 51, 0
4, 138132, Note_on_c, 9, 62, 0
4, 138179, Note_on_c, 9, 63, 0
4, 138233, Note_on_c, 9, 51, 56
4, 139018, Note_on_c, 9, 51, 0
4, 139161, Note_on_c, 9, 64, 60
4, 139188, Note_on_c, 9, 51, 59
4, 139200, Note_on_c, 9, 44, 70
4, 139350, Note_on_c, 9, 44, 0
4, 139698, Note_on_c, 9, 64, 0
4, 139785, Note_on_c, 9, 64, 62
4, 139951, Note_on_c, 9, 51, 0
4, 140030, Note_on_c, 9, 51, 36
4, 140067, Note_on_c, 9, 64, 0
4, 140124, Note_on_c, 9, 51, 0
4, 140199, Note_on_c, 9, 51, 64
4, 140746, Note_on_c, 9, 38, 33
4, 140929, Note_on_c, 9, 38, 0
4, 140981, Note_on_c, 9, 51, 0
4, 141052, Note_on_c, 9, 51, 46
4, 141090, Note_on_c, 9, 38, 40
4, 141098, Note_on_c, 9, 51, 0
4, 141109, Note_on_c, 9, 62, 28
4, 141119, Note_on_c, 9, 63, 21
4, 141120, Note_on_c, 9, 44, 70
4, 141190, Note_on_c, 9, 51, 55
4, 141280, Note_on_c, 9, 44, 0
4, 141425, Note_on_c, 9, 62, 0
4, 141484, Note_on_c, 9, 63, 0
4, 141695, Note_on_c, 9, 38, 0
4, 141721, Note_on_c, 9, 63, 83
4, 141730, Note_on_c, 9, 62, 80
4, 141738, Note_on_c, 9, 66, 56
4, 141776, Note_on_c, 9, 66, 0
4, 141779, Note_on_c, 9, 36, 29
4, 141812, Note_on_c, 9, 62, 0
4, 141897, Note_on_c, 9, 51, 0
4, 141904, Note_on_c, 9, 36, 0
4, 141904, Note_on_c, 9, 62, 15
4, 141949, Note_on_c, 9, 51, 36
4, 141988, Note_on_c, 9, 62, 0
4, 142010, Note_on_c, 9, 51, 0
4, 142027, Note_on_c, 9, 63, 0
4, 142108, Note_on_c, 9, 51, 55
4, 142888, Note_on_c, 9, 51, 0
4, 143040, Note_on_c, 9, 44, 70
4, 143073, Note_on_c, 9, 51, 56
4, 143109, Note_on_c, 9, 64, 17
4, 143200, Note_on_c, 9, 44, 0
4, 143580, Note_on_c, 9, 64, 0
4, 143702, Note_on_c, 9, 64, 90
4, 143854, Note_on_c, 9, 51, 0
4, 143916, Note_on_c, 9, 51, 34
4, 143973, Note_on_c, 9, 51, 0
4, 144024, Note_on_c, 9, 64, 0
4, 144060, Note_on_c, 9, 51, 57
4, 144710, Note_on_c, 9, 38, 35
4, 144849, Note_on_c, 9, 38, 0
4, 144874, Note_on_c, 9, 51, 0
4, 144960, Note_on_c, 9, 44, 70
4, 145008, Note_on_c, 9, 51, 68
4, 145090, Note_on_c, 9, 38, 39
4, 145120, Note_on_c, 9, 44, 0
4, 145602, Note_on_c, 9, 63, 72
4, 145603, Note_on_c, 9, 38, 0
4, 145621, Note_on_c, 9, 62, 68
4, 145644, Note_on_c, 9, 36, 45
4, 145755, Note_on_c, 9, 51, 0
4, 145835, Note_on_c, 9, 62, 0
4, 145837, Note_on_c, 9, 36, 0
4, 145898, Note_on_c, 9, 63, 0
4, 145929, Note_on_c, 9, 51, 46
4, 146032, Note_on_c, 9, 36, 53
4, 146167, Note_on_c, 9, 51, 0
4, 146215, Note_on_c, 9, 51, 46
4, 146230, Note_on_c, 9, 53, 71
4, 146411, Note_on_c, 9, 36, 0
4, 146608, Note_on_c, 9, 62, 28
4, 146636, Note_on_c, 9, 36, 42
4, 146666, Note_on_c, 9, 62, 0
4, 146774, Note_on_c, 9, 53, 0
4, 146780, Note_on_c, 9, 51, 0
4, 146870, Note_on_c, 9, 44, 70
4, 146893, Note_on_c, 9, 51, 50
4, 146951, Note_on_c, 9, 36, 0
4, 147015, Note_on_c, 9, 64, 34
4, 147040, Note_on_c, 9, 44, 0
4, 147386, Note_on_c, 9, 64, 0
4, 147485, Note_on_c, 9, 51, 0
4, 147546, Note_on_c, 9, 51, 46
4, 147557, Note_on_c, 9, 64, 105
4, 147733, Note_on_c, 9, 51, 0
4, 147896, Note_on_c, 9, 51, 40
4, 147935, Note_on_c, 9, 64, 0
4, 148091, Note_on_c, 9, 51, 0
4, 148192, Note_on_c, 9, 51, 48
4, 148206, Note_on_c, 9, 53, 59
4, 148731, Note_on_c, 9, 51, 0
4, 148755, Note_on_c, 9, 53, 0
4, 148800, Note_on_c, 9, 44, 70
4, 148833, Note_on_c, 9, 51, 50
4, 148893, Note_on_c, 9, 63, 19
4, 148899, Note_on_c, 9, 62, 20
4, 148960, Note_on_c, 9, 44, 0
4, 149031, Note_on_c, 9, 63, 0
4, 149035, Note_on_c, 9, 62, 0
4, 149153, Note_on_c, 9, 63, 46
4, 149167, Note_on_c, 9, 62, 22
4, 149247, Note_on_c, 9, 62, 0
4, 149313, Note_on_c, 9, 51, 0
4, 149342, Note_on_c, 9, 63, 0
4, 149457, Note_on_c, 9, 51, 37
4, 149691, Note_on_c, 9, 51, 0
4, 149774, Note_on_c, 9, 51, 45
4, 149824, Note_on_c, 9, 38, 33
4, 149927, Note_on_c, 9, 38, 0
4, 150243, Note_on_c, 9, 38, 36
4, 150378, Note_on_c, 9, 38, 0
4, 150569, Note_on_c, 9, 51, 0
4, 150676, Note_on_c, 9, 38, 32
4, 150720, Note_on_c, 9, 44, 70
4, 150757, Note_on_c, 9, 51, 49
4, 150763, Note_on_c, 9, 64, 40
4, 150832, Note_on_c, 9, 38, 0
4, 150870, Note_on_c, 9, 44, 0
4, 150939, Note_on_c, 9, 38, 50
4, 150999, Note_on_c, 9, 38, 0
4, 151182, Note_on_c, 9, 36, 40
4, 151274, Note_on_c, 9, 64, 0
4, 151348, Note_on_c, 9, 51, 0
4, 151362, Note_on_c, 9, 64, 65
4, 151391, Note_on_c, 9, 51, 27
4, 151473, Note_on_c, 9, 36, 0
4, 151545, Note_on_c, 9, 64, 0
4, 151571, Note_on_c, 9, 51, 0
4, 151653, Note_on_c, 9, 36, 31
4, 151752, Note_on_c, 9, 51, 50
4, 151877, Note_on_c, 9, 36, 0
4, 152092, Note_on_c, 9, 63, 45
4, 152123, Note_on_c, 9, 62, 26
4, 152182, Note_on_c, 9, 36, 41
4, 152326, Note_on_c, 9, 62, 0
4, 152360, Note_on_c, 9, 63, 0
4, 152377, Note_on_c, 9, 36, 0
4, 152547, Note_on_c, 9, 51, 0
4, 152640, Note_on_c, 9, 44, 70
4, 152723, Note_on_c, 9, 51, 51
4, 152744, Note_on_c, 9, 63, 56
4, 152747, Note_on_c, 9, 62, 37
4, 152800, Note_on_c, 9, 44, 0
4, 152847, Note_on_c, 9, 63, 0
4, 152923, Note_on_c, 9, 51, 0
4, 153008, Note_on_c, 9, 51, 58
4, 153012, Note_on_c, 9, 62, 0
4, 153023, Note_on_c, 9, 53, 64
4, 153272, Note_on_c, 9, 63, 53
4, 153292, Note_on_c, 9, 62, 55
4, 153471, Note_on_c, 9, 51, 0
4, 153477, Note_on_c, 9, 62, 0
4, 153495, Note_on_c, 9, 53, 0
4, 153544, Note_on_c, 9, 63, 0
4, 153626, Note_on_c, 9, 51, 38
4, 153894, Note_on_c, 9, 63, 47
4, 153947, Note_on_c, 9, 62, 43
4, 154066, Note_on_c, 9, 51, 0
4, 154122, Note_on_c, 9, 62, 0
4, 154137, Note_on_c, 9, 63, 0
4, 154194, Note_on_c, 9, 51, 63
4, 154560, Note_on_c, 9, 44, 70
4, 154610, Note_on_c, 9, 51, 0
4, 154720, Note_on_c, 9, 44, 0
4, 154801, Note_on_c, 9, 51, 46
4, 154989, Note_on_c, 9, 51, 0
4, 155143, Note_on_c, 9, 53, 42
4, 155156, Note_on_c, 9, 51, 32
4, 155360, Note_on_c, 9, 53, 0
4, 155378, Note_on_c, 9, 51, 0
4, 155512, Note_on_c, 9, 51, 72
4, 155726, Note_on_c, 9, 51, 0
4, 155809, Note_on_c, 9, 51, 56
4, 156181, Note_on_c, 9, 51, 0
4, 156480, Note_on_c, 9, 44, 70
4, 156522, Note_on_c, 9, 63, 29
4, 156524, Note_on_c, 9, 51, 50
4, 156537, Note_on_c, 9, 62, 54
4, 156640, Note_on_c, 9, 44, 0
4, 156920, Note_on_c, 9, 51, 0
4, 156966, Note_on_c, 9, 62, 0
4, 157001, Note_on_c, 9, 63, 0
4, 157126, Note_on_c, 9, 38, 44
4, 157141, Note_on_c, 9, 63, 58
4, 157142, Note_on_c, 9, 51, 67
4, 157149, Note_on_c, 9, 53, 62
4, 157181, Note_on_c, 9, 62, 53
4, 157314, Note_on_c, 9, 62, 0
4, 157316, Note_on_c, 9, 51, 0
4, 157362, Note_on_c, 9, 38, 0
4, 157368, Note_on_c, 9, 53, 0
4, 157407, Note_on_c, 9, 63, 0
4, 157481, Note_on_c, 9, 51, 46
4, 158282, Note_on_c, 9, 51, 0
4, 158400, Note_on_c, 9, 44, 70
4, 158407, Note_on_c, 9, 51, 45
4, 158443, Note_on_c, 9, 64, 59
4, 158560, Note_on_c, 9, 44, 0
4, 158994, Note_on_c, 9, 64, 0
4, 159060, Note_on_c, 9, 64, 62
4, 159215, Note_on_c, 9, 51, 0
4, 159364, Note_on_c, 9, 51, 47
4, 159368, Note_on_c, 9, 64, 0
4, 160043, Note_on_c, 9, 62, 30
4, 160087, Note_on_c, 9, 62, 0
4, 160183, Note_on_c, 9, 51, 0
4, 160320, Note_on_c, 9, 44, 70
4, 160337, Note_on_c, 9, 51, 39
4, 160480, Note_on_c, 9, 44, 0
4, 160657, Note_on_c, 9, 63, 60
4, 160672, Note_on_c, 9, 62, 66
4, 160718, Note_on_c, 9, 62, 0
4, 160847, Note_on_c, 9, 63, 0
4, 160975, Note_on_c, 9, 51, 0
4, 160984, Note_on_c, 9, 62, 38
4, 160990, Note_on_c, 9, 63, 32
4, 161053, Note_on_c, 9, 51, 53
4, 161071, Note_on_c, 9, 62, 0
4, 161149, Note_on_c, 9, 63, 0
4, 161164, Note_on_c, 9, 51, 0
4, 161350, Note_on_c, 9, 51, 49
4, 162071, Note_on_c, 9, 51, 0
4, 162240, Note_on_c, 9, 44, 70
4, 162264, Note_on_c, 9, 51, 58
4, 162281, Note_on_c, 9, 64, 33
4, 162400, Note_on_c, 9, 44, 0
4, 162795, Note_on_c, 9, 64, 0
4, 162892, Note_on_c, 9, 64, 74
4, 162998, Note_on_c, 9, 51, 0
4, 163164, Note_on_c, 9, 64, 0
4, 163247, Note_on_c, 9, 51, 56
4, 164034, Note_on_c, 9, 51, 0
4, 164160, Note_on_c, 9, 44, 70
4, 164190, Note_on_c, 9, 51, 53
4, 164320, Note_on_c, 9, 44, 0
4, 164510, Note_on_c, 9, 62, 62
4, 164725, Note_on_c, 9, 62, 0
4, 164843, Note_on_c, 9, 62, 79
4, 164941, Note_on_c, 9, 51, 0
4, 165121, Note_on_c, 9, 62, 0
4, 165122, Note_on_c, 9, 51, 54
4, 165831, Note_on_c, 9, 64, 68
4, 165965, Note_on_c, 9, 51, 0
4, 166080, Note_on_c, 9, 44, 70
4, 166114, Note_on_c, 9, 64, 0
4, 166121, Note_on_c, 9, 51, 55
4, 166176, Note_on_c, 9, 64, 34
4, 166240, Note_on_c, 9, 44, 0
4, 166491, Note_on_c, 9, 64, 0
4, 166753, Note_on_c, 9, 64, 55
4, 166756, Note_on_c, 9, 51, 0
4, 166803, Note_on_c, 9, 51, 57
4, 166909, Note_on_c, 9, 51, 0
4, 167084, Note_on_c, 9, 51, 44
4, 167206, Note_on_c, 9, 64, 0
4, 167942, Note_on_c, 9, 51, 0
4, 168000, Note_on_c, 9, 44, 70
4, 168100, Note_on_c, 9, 51, 60
4, 168109, Note_on_c, 9, 63, 63
4, 168127, Note_on_c, 9, 62, 64
4, 168147, Note_on_c, 9, 66, 32
4, 168160, Note_on_c, 9, 44, 0
4, 168408, Note_on_c, 9, 62, 0
4, 168475, Note_on_c, 9, 63, 0
4, 168562, Note_on_c, 9, 66, 0
4, 168709, Note_on_c, 9, 63, 52
4, 168728, Note_on_c, 9, 62, 50
4, 168790, Note_on_c, 9, 51, 0
4, 168849, Note_on_c, 9, 51, 25
4, 168949, Note_on_c, 9, 62, 0
4, 168975, Note_on_c, 9, 51, 0
4, 169001, Note_on_c, 9, 63, 0
4, 169072, Note_on_c, 9, 51, 51
4, 169873, Note_on_c, 9, 51, 0
4, 169920, Note_on_c, 9, 44, 70
4, 169966, Note_on_c, 9, 64, 79
4, 170044, Note_on_c, 9, 51, 52
4, 170080, Note_on_c, 9, 44, 0
4, 170502, Note_on_c, 9, 64, 0
4, 170565, Note_on_c, 9, 64, 87
4, 170693, Note_on_c, 9, 51, 0
4, 170872, Note_on_c, 9, 64, 0
4, 170875, Note_on_c, 9, 51, 56
4, 171738, Note_on_c, 9, 51, 0
4, 171840, Note_on_c, 9, 44, 70
4, 171844, Note_on_c, 9, 51, 51
4, 171856, Note_on_c, 9, 63, 26
4, 171865, Note_on_c, 9, 62, 29
4, 172000, Note_on_c, 9, 44, 0
4, 172324, Note_on_c, 9, 62, 0
4, 172379, Note_on_c, 9, 63, 0
4, 172460, Note_on_c, 9, 63, 67
4, 172476, Note_on_c, 9, 62, 74
4, 172610, Note_on_c, 9, 51, 0
4, 172639, Note_on_c, 9, 62, 0
4, 172699, Note_on_c, 9, 51, 39
4, 172763, Note_on_c, 9, 63, 0
4, 172775, Note_on_c, 9, 51, 0
4, 172856, Note_on_c, 9, 51, 44
4, 172895, Note_on_c, 9, 38, 28
4, 173303, Note_on_c, 9, 38, 0
4, 173711, Note_on_c, 9, 51, 0
4, 173760, Note_on_c, 9, 44, 70
4, 173833, Note_on_c, 9, 51, 59
4, 173863, Note_on_c, 9, 64, 26
4, 173920, Note_on_c, 9, 44, 0
4, 174225, Note_on_c, 9, 64, 0
4, 174441, Note_on_c, 9, 64, 87
4, 174614, Note_on_c, 9, 51, 0
4, 174664, Note_on_c, 9, 51, 33
4, 174754, Note_on_c, 9, 51, 0
4, 174774, Note_on_c, 9, 64, 0
4, 174814, Note_on_c, 9, 38, 46
4, 174838, Note_on_c, 9, 51, 61
4, 175095, Note_on_c, 9, 38, 0
4, 175152, Note_on_c, 9, 36, 30
4, 175273, Note_on_c, 9, 36, 0
4, 175305, Note_on_c, 9, 38, 36
4, 175621, Note_on_c, 9, 51, 0
4, 175635, Note_on_c, 9, 38, 0
4, 175680, Note_on_c, 9, 44, 70
4, 175736, Note_on_c, 9, 63, 32
4, 175742, Note_on_c, 9, 62, 39
4, 175764, Note_on_c, 9, 51, 59
4, 175831, Note_on_c, 9, 38, 32
4, 175840, Note_on_c, 9, 44, 0
4, 176082, Note_on_c, 9, 62, 0
4, 176129, Note_on_c, 9, 38, 0
4, 176154, Note_on_c, 9, 63, 0
4, 176310, Note_on_c, 9, 63, 76
4, 176323, Note_on_c, 9, 62, 76
4, 176326, Note_on_c, 9, 38, 44
4, 176520, Note_on_c, 9, 51, 0
4, 176530, Note_on_c, 9, 38, 0
4, 176532, Note_on_c, 9, 62, 0
4, 176568, Note_on_c, 9, 51, 33
4, 176614, Note_on_c, 9, 63, 0
4, 176645, Note_on_c, 9, 51, 0
4, 176718, Note_on_c, 9, 51, 55
4, 177446, Note_on_c, 9, 51, 0
4, 177600, Note_on_c, 9, 44, 70
4, 177614, Note_on_c, 9, 51, 56
4, 177760, Note_on_c, 9, 44, 0
4, 178323, Note_on_c, 9, 51, 0
4, 178518, Note_on_c, 9, 51, 53
4, 179311, Note_on_c, 9, 51, 0
4, 179484, Note_on_c, 9, 51, 53
4, 179520, Note_on_c, 9, 44, 70
4, 179680, Note_on_c, 9, 44, 0
4, 180287, Note_on_c, 9, 51, 0
4, 180372, Note_on_c, 9, 51, 42
4, 180457, Note_on_c, 9, 51, 0
4, 180520, Note_on_c, 9, 51, 46
4, 181299, Note_on_c, 9, 51, 0
4, 181440, Note_on_c, 9, 44, 70
4, 181449, Note_on_c, 9, 51, 55
4, 181512, Note_on_c, 9, 64, 32
4, 181600, Note_on_c, 9, 44, 0
4, 182034, Note_on_c, 9, 64, 0
4, 182070, Note_on_c, 9, 51, 0
4, 182108, Note_on_c, 9, 64, 96
4, 182152, Note_on_c, 9, 51, 60
4, 182158, Note_on_c, 9, 53, 64
4, 182382, Note_on_c, 9, 51, 0
4, 182428, Note_on_c, 9, 64, 0
4, 182453, Note_on_c, 9, 53, 0
4, 182515, Note_on_c, 9, 51, 33
4, 183064, Note_on_c, 9, 62, 38
4, 183109, Note_on_c, 9, 62, 0
4, 183310, Note_on_c, 9, 51, 0
4, 183350, Note_on_c, 9, 44, 70
4, 183374, Note_on_c, 9, 63, 60
4, 183386, Note_on_c, 9, 62, 60
4, 183418, Note_on_c, 9, 51, 46
4, 183520, Note_on_c, 9, 44, 0
4, 183781, Note_on_c, 9, 62, 0
4, 183844, Note_on_c, 9, 63, 0
4, 183947, Note_on_c, 9, 63, 86
4, 183961, Note_on_c, 9, 62, 84
4, 184004, Note_on_c, 9, 51, 0
4, 184047, Note_on_c, 9, 51, 51
4, 184169, Note_on_c, 9, 51, 0
4, 184209, Note_on_c, 9, 62, 0
4, 184248, Note_on_c, 9, 63, 0
4, 184376, Note_on_c, 9, 51, 47
4, 185112, Note_on_c, 9, 51, 0
4, 185280, Note_on_c, 9, 44, 70
4, 185309, Note_on_c, 9, 64, 43
4, 185313, Note_on_c, 9, 51, 57
4, 185440, Note_on_c, 9, 44, 0
4, 185799, Note_on_c, 9, 64, 0
4, 185927, Note_on_c, 9, 64, 108
4, 185935, Note_on_c, 9, 51, 0
4, 185998, Note_on_c, 9, 51, 42
4, 186227, Note_on_c, 9, 51, 0
4, 186254, Note_on_c, 9, 64, 0
4, 186360, Note_on_c, 9, 51, 59
4, 186907, Note_on_c, 9, 38, 68
4, 187059, Note_on_c, 9, 51, 0
4, 187119, Note_on_c, 9, 38, 0
4, 187200, Note_on_c, 9, 44, 70
4, 187203, Note_on_c, 9, 63, 69
4, 187223, Note_on_c, 9, 62, 63
4, 187232, Note_on_c, 9, 38, 51
4, 187246, Note_on_c, 9, 51, 74
4, 187267, Note_on_c, 9, 53, 43
4, 187350, Note_on_c, 9, 44, 0
4, 187656, Note_on_c, 9, 62, 0
4, 187690, Note_on_c, 9, 53, 0
4, 187715, Note_on_c, 9, 63, 0
4, 187729, Note_on_c, 9, 51, 0
4, 187801, Note_on_c, 9, 63, 77
4, 187803, Note_on_c, 9, 38, 0
4, 187817, Note_on_c, 9, 62, 78
4, 187853, Note_on_c, 9, 51, 59
4, 187863, Note_on_c, 9, 36, 53
4, 187924, Note_on_c, 9, 63, 0
4, 187950, Note_on_c, 9, 51, 0
4, 187968, Note_on_c, 9, 36, 0
4, 188023, Note_on_c, 9, 62, 0
4, 188227, Note_on_c, 9, 59, 77
4, 188241, Note_on_c, 9, 38, 71
4, 188273, Note_on_c, 9, 36, 74
4, 188286, Note_on_c, 9, 31, 39
4, 188327, Note_on_c, 9, 57, 39
4, 188355, Note_on_c, 9, 31, 0
4, 188392, Note_on_c, 9, 57, 0
4, 189107, Note_on_c, 9, 59, 0
4, 189120, Note_on_c, 9, 44, 70
4, 189193, Note_on_c, 9, 59, 64
4, 189202, Note_on_c, 9, 64, 30
4, 189280, Note_on_c, 9, 44, 0
4, 189622, Note_on_c, 9, 64, 0
4, 189783, Note_on_c, 9, 64, 87
4, 190009, Note_on_c, 9, 64, 0
4, 190019, Note_on_c, 9, 59, 0
4, 190146, Note_on_c, 9, 59, 60
4, 190164, Note_on_c, 9, 36, 0
4, 190212, Note_on_c, 9, 38, 0
4, 190492, Note_on_c, 9, 38, 72
4, 190601, Note_on_c, 9, 38, 0
4, 190753, Note_on_c, 9, 38, 66
4, 190902, Note_on_c, 9, 38, 0
4, 190929, Note_on_c, 9, 59, 0
4, 191019, Note_on_c, 9, 59, 47
4, 191040, Note_on_c, 9, 44, 70
4, 191066, Note_on_c, 9, 59, 0
4, 191068, Note_on_c, 9, 38, 68
4, 191081, Note_on_c, 9, 36, 65
4, 191085, Note_on_c, 9, 57, 71
4, 191139, Note_on_c, 9, 62, 38
4, 191175, Note_on_c, 9, 59, 59
4, 191200, Note_on_c, 9, 44, 0
4, 191291, Note_on_c, 9, 62, 0
4, 191384, Note_on_c, 9, 63, 26
4, 191463, Note_on_c, 9, 63, 0
4, 191865, Note_on_c, 9, 59, 0
4, 191980, Note_on_c, 9, 59, 66
4, 192507, Note_on_c, 9, 57, 0
4, 192865, Note_on_c, 9, 59, 0
4, 192952, Note_on_c, 9, 59, 60
4, 192960, Note_on_c, 9, 44, 70
4, 192965, Note_on_c, 9, 64, 84
4, 193120, Note_on_c, 9, 44, 0
4, 193182, Note_on_c, 9, 36, 0
4, 193194, Note_on_c, 9, 38, 0
4, 193235, Note_on_c, 9, 64, 0
4, 193732, Note_on_c, 9, 59, 0
4, 193828, Note_on_c, 9, 59, 39
4, 193883, Note_on_c, 9, 59, 0
4, 193979, Note_on_c, 9, 59, 54
4, 194809, Note_on_c, 9, 59, 0
4, 194880, Note_on_c, 9, 44, 70
4, 194932, Note_on_c, 9, 59, 57
4, 194942, Note_on_c, 9, 62, 71
4, 195040, Note_on_c, 9, 44, 0
4, 195238, Note_on_c, 9, 62, 0
4, 195765, Note_on_c, 9, 59, 0
4, 195900, Note_on_c, 9, 59, 50
4, 196743, Note_on_c, 9, 59, 0
4, 196800, Note_on_c, 9, 44, 70
4, 196844, Note_on_c, 9, 59, 55
4, 196923, Note_on_c, 9, 64, 49
4, 196960, Note_on_c, 9, 44, 0
4, 197158, Note_on_c, 9, 64, 0
4, 197209, Note_on_c, 9, 64, 41
4, 197390, Note_on_c, 9, 64, 0
4, 197554, Note_on_c, 9, 59, 0
4, 197656, Note_on_c, 9, 59, 44
4, 197753, Note_on_c, 9, 59, 0
4, 197814, Note_on_c, 9, 59, 41
4, 198682, Note_on_c, 9, 59, 0
4, 198712, Note_on_c, 9, 63, 29
4, 198713, Note_on_c, 9, 62, 34
4, 198720, Note_on_c, 9, 44, 70
4, 198763, Note_on_c, 9, 59, 66
4, 198870, Note_on_c, 9, 44, 0
4, 198915, Note_on_c, 9, 62, 0
4, 198928, Note_on_c, 9, 63, 0
4, 199002, Note_on_c, 9, 63, 31
4, 199013, Note_on_c, 9, 62, 25
4, 199085, Note_on_c, 9, 62, 0
4, 199166, Note_on_c, 9, 63, 0
4, 199452, Note_on_c, 9, 59, 0
4, 199555, Note_on_c, 9, 59, 38
4, 199649, Note_on_c, 9, 59, 0
4, 199712, Note_on_c, 9, 59, 49
4, 200611, Note_on_c, 9, 59, 0
4, 200640, Note_on_c, 9, 44, 70
4, 200695, Note_on_c, 9, 64, 49
4, 200707, Note_on_c, 9, 59, 68
4, 200800, Note_on_c, 9, 44, 0
4, 200939, Note_on_c, 9, 64, 0
4, 201020, Note_on_c, 9, 64, 47
4, 201095, Note_on_c, 9, 64, 0
4, 201430, Note_on_c, 9, 59, 0
4, 201685, Note_on_c, 9, 59, 63
4, 201946, Note_on_c, 9, 63, 52
4, 202031, Note_on_c, 9, 63, 0
4, 202447, Note_on_c, 9, 59, 0
4, 202560, Note_on_c, 9, 44, 70
4, 202588, Note_on_c, 9, 59, 57
4, 202607, Note_on_c, 9, 64, 36
4, 202720, Note_on_c, 9, 44, 0
4, 202730, Note_on_c, 9, 64, 0
4, 202847, Note_on_c, 9, 64, 25
4, 202923, Note_on_c, 9, 64, 0
4, 202977, Note_on_c, 9, 59, 0
4, 203091, Note_on_c, 9, 59, 49
4, 203471, Note_on_c, 9, 59, 0
4, 203982, Note_on_c, 9, 59, 61
4, 204374, Note_on_c, 9, 59, 0
4, 204472, Note_on_c, 9, 38, 18
4, 204480, Note_on_c, 9, 44, 70
4, 204486, Note_on_c, 9, 59, 62
4, 204493, Note_on_c, 9, 64, 57
4, 204596, Note_on_c, 9, 38, 0
4, 204640, Note_on_c, 9, 44, 0
4, 204721, Note_on_c, 9, 64, 0
4, 204812, Note_on_c, 9, 64, 27
4, 204879, Note_on_c, 9, 64, 0
4, 205208, Note_on_c, 9, 59, 0
4, 205302, Note_on_c, 9, 59, 43
4, 205424, Note_on_c, 9, 59, 0
4, 205504, Note_on_c, 9, 59, 66
4, 206322, Note_on_c, 9, 59, 0
4, 206400, Note_on_c, 9, 44, 70
4, 206465, Note_on_c, 9, 63, 53
4, 206469, Note_on_c, 9, 62, 64
4, 206498, Note_on_c, 9, 59, 62
4, 206560, Note_on_c, 9, 44, 0
4, 206673, Note_on_c, 9, 62, 0
4, 206678, Note_on_c, 9, 63, 0
4, 206771, Note_on_c, 9, 63, 38
4, 206793, Note_on_c, 9, 62, 19
4, 206793, Note_on_c, 9, 62, 0
4, 206921, Note_on_c, 9, 63, 0
4, 207167, Note_on_c, 9, 59, 0
4, 207261, Note_on_c, 9, 59, 45
4, 207338, Note_on_c, 9, 59, 0
4, 207430, Note_on_c, 9, 59, 63
4, 208231, Note_on_c, 9, 59, 0
4, 208320, Note_on_c, 9, 44, 70
4, 208333, Note_on_c, 9, 59, 61
4, 208386, Note_on_c, 9, 64, 84
4, 208480, Note_on_c, 9, 44, 0
4, 208885, Note_on_c, 9, 64, 0
4, 208970, Note_on_c, 9, 64, 87
4, 209052, Note_on_c, 9, 59, 0
4, 209144, Note_on_c, 9, 59, 44
4, 209221, Note_on_c, 9, 59, 0
4, 209251, Note_on_c, 9, 64, 0
4, 209297, Note_on_c, 9, 59, 48
4, 210002, Note_on_c, 9, 59, 0
4, 210166, Note_on_c, 9, 59, 37
4, 210238, Note_on_c, 9, 59, 0
4, 210240, Note_on_c, 9, 44, 70
4, 210355, Note_on_c, 9, 59, 46
4, 210361, Note_on_c, 9, 63, 74
4, 210383, Note_on_c, 9, 62, 63
4, 210400, Note_on_c, 9, 44, 0
4, 210429, Note_on_c, 9, 62, 0
4, 210599, Note_on_c, 9, 63, 0
4, 210659, Note_on_c, 9, 53, 45
4, 210664, Note_on_c, 9, 59, 0
4, 210753, Note_on_c, 9, 53, 0
4, 210852, Note_on_c, 9, 59, 29
4, 210994, Note_on_c, 9, 59, 0
4, 211139, Note_on_c, 9, 59, 35
4, 211212, Note_on_c, 9, 59, 0
4, 211302, Note_on_c, 9, 59, 52
4, 211347, Note_on_c, 9, 40, 24
4, 211447, Note_on_c, 9, 40, 0
4, 211787, Note_on_c, 9, 38, 35
4, 211837, Note_on_c, 9, 40, 20
4, 211981, Note_on_c, 9, 38, 0
4, 212076, Note_on_c, 9, 40, 0
4, 212106, Note_on_c, 9, 59, 0
4, 212160, Note_on_c, 9, 44, 70
4, 212264, Note_on_c, 9, 59, 53
4, 212270, Note_on_c, 9, 64, 88
4, 212320, Note_on_c, 9, 44, 0
4, 212555, Note_on_c, 9, 59, 0
4, 212576, Note_on_c, 9, 53, 45
4, 212765, Note_on_c, 9, 64, 0
4, 212831, Note_on_c, 9, 64, 83
4, 212868, Note_on_c, 9, 53, 0
4, 213028, Note_on_c, 9, 59, 42
4, 213053, Note_on_c, 9, 64, 0
4, 213118, Note_on_c, 9, 59, 0
4, 213220, Note_on_c, 9, 59, 55
4, 213943, Note_on_c, 9, 59, 0
4, 214080, Note_on_c, 9, 44, 70
4, 214127, Note_on_c, 9, 63, 54
4, 214136, Note_on_c, 9, 62, 59
4, 214142, Note_on_c, 9, 59, 51
4, 214240, Note_on_c, 9, 44, 0
4, 214383, Note_on_c, 9, 53, 58
4, 214573, Note_on_c, 9, 62, 0
4, 214595, Note_on_c, 9, 53, 0
4, 214596, Note_on_c, 9, 63, 0
4, 214619, Note_on_c, 9, 59, 0
4, 214688, Note_on_c, 9, 63, 65
4, 214698, Note_on_c, 9, 62, 55
4, 214816, Note_on_c, 9, 62, 0
4, 214831, Note_on_c, 9, 59, 47
4, 214901, Note_on_c, 9, 63, 0
4, 215003, Note_on_c, 9, 59, 0
4, 215092, Note_on_c, 9, 59, 64
4, 215631, Note_on_c, 9, 38, 39
4, 215896, Note_on_c, 9, 59, 0
4, 215952, Note_on_c, 9, 38, 0
4, 216000, Note_on_c, 9, 44, 70
4, 216037, Note_on_c, 9, 64, 88
4, 216070, Note_on_c, 9, 59, 55
4, 216079, Note_on_c, 9, 36, 26
4, 216160, Note_on_c, 9, 44, 0
4, 216243, Note_on_c, 9, 36, 0
4, 216527, Note_on_c, 9, 64, 0
4, 216605, Note_on_c, 9, 64, 88
4, 216607, Note_on_c, 9, 38, 54
4, 216670, Note_on_c, 9, 53, 44
4, 216682, Note_on_c, 9, 59, 0
4, 216810, Note_on_c, 9, 64, 0
4, 216890, Note_on_c, 9, 38, 0
4, 216897, Note_on_c, 9, 53, 0
4, 216977, Note_on_c, 9, 59, 41
4, 217581, Note_on_c, 9, 59, 0
4, 217586, Note_on_c, 9, 38, 51
4, 217613, Note_on_c, 9, 53, 44
4, 217862, Note_on_c, 9, 53, 0
4, 217866, Note_on_c, 9, 38, 0
4, 217920, Note_on_c, 9, 44, 70
4, 217922, Note_on_c, 9, 63, 84
4, 217935, Note_on_c, 9, 62, 82
4, 217940, Note_on_c, 9, 46, 75
4, 217951, Note_on_c, 9, 59, 38
4, 218011, Note_on_c, 9, 36, 28
4, 218080, Note_on_c, 9, 44, 0
4, 218100, Note_on_c, 9, 46, 0
4, 218181, Note_on_c, 9, 62, 0
4, 218192, Note_on_c, 9, 36, 0
4, 218269, Note_on_c, 9, 63, 0
4, 218535, Note_on_c, 9, 59, 0
4, 218538, Note_on_c, 9, 53, 53
4, 218569, Note_on_c, 9, 38, 55
4, 218661, Note_on_c, 9, 53, 0
4, 218802, Note_on_c, 9, 38, 0
4, 218873, Note_on_c, 9, 52, 63
4, 218906, Note_on_c, 9, 57, 39
4, 218909, Note_on_c, 9, 36, 53
4, 218963, Note_on_c, 9, 52, 0
4, 219032, Note_on_c, 9, 57, 0
4, 219537, Note_on_c, 9, 62, 29
4, 219570, Note_on_c, 9, 59, 35
4, 219585, Note_on_c, 9, 62, 0
4, 219619, Note_on_c, 9, 59, 0
4, 219840, Note_on_c, 9, 44, 70
4, 219862, Note_on_c, 9, 64, 78
4, 219881, Note_on_c, 9, 59, 42
4, 220000, Note_on_c, 9, 44, 0
4, 220375, Note_on_c, 9, 64, 0
4, 220441, Note_on_c, 9, 64, 85
4, 220598, Note_on_c, 9, 59, 0
4, 220667, Note_on_c, 9, 64, 0
4, 220839, Note_on_c, 9, 59, 46
4, 221039, Note_on_c, 9, 36, 0
4, 221605, Note_on_c, 9, 59, 0
4, 221760, Note_on_c, 9, 44, 70
4, 221802, Note_on_c, 9, 63, 32
4, 221815, Note_on_c, 9, 59, 55
4, 221823, Note_on_c, 9, 62, 34
4, 221920, Note_on_c, 9, 44, 0
4, 222293, Note_on_c, 9, 62, 0
4, 222322, Note_on_c, 9, 63, 0
4, 222328, Note_on_c, 9, 59, 0
4, 222396, Note_on_c, 9, 63, 52
4, 222410, Note_on_c, 9, 62, 53
4, 222449, Note_on_c, 9, 59, 40
4, 222607, Note_on_c, 9, 62, 0
4, 222659, Note_on_c, 9, 59, 0
4, 222673, Note_on_c, 9, 63, 0
4, 222744, Note_on_c, 9, 59, 64
4, 223374, Note_on_c, 9, 62, 48
4, 223422, Note_on_c, 9, 62, 0
4, 223578, Note_on_c, 9, 59, 0
4, 223680, Note_on_c, 9, 44, 70
4, 223704, Note_on_c, 9, 64, 94
4, 223724, Note_on_c, 9, 59, 60
4, 223840, Note_on_c, 9, 44, 0
4, 224194, Note_on_c, 9, 59, 0
4, 224230, Note_on_c, 9, 64, 0
4, 224300, Note_on_c, 9, 64, 83
4, 224312, Note_on_c, 9, 59, 71
4, 224653, Note_on_c, 9, 64, 0
4, 224736, Note_on_c, 9, 38, 31
4, 224839, Note_on_c, 9, 38, 0
4, 224899, Note_on_c, 9, 59, 0
4, 224978, Note_on_c, 9, 59, 59
4, 225073, Note_on_c, 9, 38, 32
4, 225237, Note_on_c, 9, 38, 0
4, 225412, Note_on_c, 9, 36, 27
4, 225428, Note_on_c, 9, 59, 0
4, 225541, Note_on_c, 9, 63, 35
4, 225562, Note_on_c, 9, 62, 44
4, 225578, Note_on_c, 9, 36, 0
4, 225583, Note_on_c, 9, 59, 66
4, 225600, Note_on_c, 9, 44, 70
4, 225760, Note_on_c, 9, 44, 0
4, 226061, Note_on_c, 9, 38, 26
4, 226063, Note_on_c, 9, 62, 0
4, 226110, Note_on_c, 9, 63, 0
4, 226153, Note_on_c, 9, 59, 0
4, 226156, Note_on_c, 9, 38, 0
4, 226194, Note_on_c, 9, 63, 67
4, 226213, Note_on_c, 9, 62, 71
4, 226228, Note_on_c, 9, 59, 57
4, 226342, Note_on_c, 9, 38, 22
4, 226404, Note_on_c, 9, 62, 0
4, 226424, Note_on_c, 9, 59, 0
4, 226485, Note_on_c, 9, 63, 0
4, 226551, Note_on_c, 9, 38, 0
4, 226554, Note_on_c, 9, 59, 56
4, 227392, Note_on_c, 9, 59, 0
4, 227520, Note_on_c, 9, 44, 70
4, 227540, Note_on_c, 9, 59, 58
4, 227577, Note_on_c, 9, 64, 48
4, 227680, Note_on_c, 9, 44, 0
4, 228060, Note_on_c, 9, 64, 0
4, 228137, Note_on_c, 9, 59, 0
4, 228164, Note_on_c, 9, 64, 82
4, 228218, Note_on_c, 9, 59, 42
4, 228341, Note_on_c, 9, 59, 0
4, 228461, Note_on_c, 9, 64, 0
4, 228487, Note_on_c, 9, 59, 60
4, 229296, Note_on_c, 9, 59, 0
4, 229438, Note_on_c, 9, 59, 64
4, 229440, Note_on_c, 9, 44, 70
4, 229600, Note_on_c, 9, 44, 0
4, 229753, Note_on_c, 9, 63, 36
4, 229765, Note_on_c, 9, 62, 47
4, 229958, Note_on_c, 9, 59, 0
4, 229989, Note_on_c, 9, 62, 0
4, 230022, Note_on_c, 9, 63, 0
4, 230076, Note_on_c, 9, 59, 34
4, 230088, Note_on_c, 9, 63, 67
4, 230098, Note_on_c, 9, 62, 66
4, 230265, Note_on_c, 9, 59, 0
4, 230286, Note_on_c, 9, 62, 0
4, 230359, Note_on_c, 9, 59, 66
4, 230405, Note_on_c, 9, 63, 0
4, 231056, Note_on_c, 9, 59, 0
4, 231333, Note_on_c, 9, 59, 55
4, 231350, Note_on_c, 9, 44, 70
4, 231363, Note_on_c, 9, 64, 57
4, 231520, Note_on_c, 9, 44, 0
4, 231715, Note_on_c, 9, 59, 0
4, 231875, Note_on_c, 9, 64, 0
4, 231948, Note_on_c, 9, 64, 83
4, 231994, Note_on_c, 9, 59, 37
4, 232091, Note_on_c, 9, 59, 0
4, 232235, Note_on_c, 9, 64, 0
4, 232291, Note_on_c, 9, 59, 54
4, 232291, Note_on_c, 9, 51, 42
4, 232814, Note_on_c, 9, 51, 0
4, 232819, Note_on_c, 9, 59, 0
4, 232938, Note_on_c, 9, 59, 37
4, 232996, Note_on_c, 9, 59, 0
4, 233252, Note_on_c, 9, 62, 42
4, 233262, Note_on_c, 9, 63, 44
4, 233280, Note_on_c, 9, 44, 70
4, 233287, Note_on_c, 9, 59, 59
4, 233440, Note_on_c, 9, 44, 0
4, 233750, Note_on_c, 9, 62, 0
4, 233799, Note_on_c, 9, 63, 0
4, 233817, Note_on_c, 9, 59, 0
4, 233868, Note_on_c, 9, 63, 77
4, 233876, Note_on_c, 9, 62, 79
4, 233904, Note_on_c, 9, 59, 53
4, 234013, Note_on_c, 9, 62, 0
4, 234106, Note_on_c, 9, 59, 0
4, 234159, Note_on_c, 9, 63, 0
4, 234269, Note_on_c, 9, 59, 57
4, 234517, Note_on_c, 9, 59, 0
4, 234728, Note_on_c, 9, 59, 52
4, 235026, Note_on_c, 9, 59, 0
4, 235200, Note_on_c, 9, 44, 70
4, 235225, Note_on_c, 9, 64, 20
4, 235252, Note_on_c, 9, 59, 55
4, 235350, Note_on_c, 9, 44, 0
4, 235608, Note_on_c, 9, 59, 0
4, 235732, Note_on_c, 9, 59, 61
4, 235736, Note_on_c, 9, 64, 0
4, 235817, Note_on_c, 9, 64, 90
4, 235924, Note_on_c, 9, 59, 0
4, 236183, Note_on_c, 9, 64, 0
4, 236208, Note_on_c, 9, 59, 56
4, 236233, Note_on_c, 9, 53, 28
4, 236491, Note_on_c, 9, 59, 0
4, 236513, Note_on_c, 9, 53, 0
4, 236697, Note_on_c, 9, 59, 54
4, 236701, Note_on_c, 9, 53, 44
4, 237014, Note_on_c, 9, 59, 0
4, 237070, Note_on_c, 9, 53, 0
4, 237120, Note_on_c, 9, 44, 70
4, 237132, Note_on_c, 9, 63, 30
4, 237171, Note_on_c, 9, 62, 24
4, 237226, Note_on_c, 9, 53, 40
4, 237227, Note_on_c, 9, 59, 49
4, 237280, Note_on_c, 9, 44, 0
4, 237424, Note_on_c, 9, 62, 0
4, 237487, Note_on_c, 9, 63, 0
4, 237538, Note_on_c, 9, 53, 0
4, 237543, Note_on_c, 9, 59, 0
4, 237717, Note_on_c, 9, 53, 47
4, 237732, Note_on_c, 9, 59, 54
4, 237984, Note_on_c, 9, 59, 0
4, 238053, Note_on_c, 9, 53, 0
4, 238181, Note_on_c, 9, 59, 57
4, 238980, Note_on_c, 9, 59, 0
4, 239040, Note_on_c, 9, 44, 70
4, 239046, Note_on_c, 9, 64, 64
4, 239091, Note_on_c, 9, 59, 52
4, 239200, Note_on_c, 9, 44, 0
4, 239572, Note_on_c, 9, 59, 0
4, 239590, Note_on_c, 9, 64, 0
4, 239654, Note_on_c, 9, 64, 80
4, 239661, Note_on_c, 9, 59, 54
4, 239864, Note_on_c, 9, 59, 0
4, 239898, Note_on_c, 9, 64, 0
4, 240015, Note_on_c, 9, 59, 50
4, 240510, Note_on_c, 9, 59, 0
4, 240618, Note_on_c, 9, 59, 28
4, 240664, Note_on_c, 9, 59, 0
4, 240960, Note_on_c, 9, 44, 70
4, 240986, Note_on_c, 9, 63, 54
4, 240993, Note_on_c, 9, 62, 59
4, 241001, Note_on_c, 9, 59, 44
4, 241053, Note_on_c, 9, 59, 0
4, 241120, Note_on_c, 9, 44, 0
4, 241441, Note_on_c, 9, 62, 0
4, 241472, Note_on_c, 9, 63, 0
4, 241609, Note_on_c, 9, 63, 59
4, 241626, Note_on_c, 9, 59, 73
4, 241627, Note_on_c, 9, 62, 62
4, 241705, Note_on_c, 9, 38, 36
4, 241730, Note_on_c, 9, 59, 0
4, 241771, Note_on_c, 9, 62, 0
4, 241833, Note_on_c, 9, 63, 0
4, 241915, Note_on_c, 9, 38, 0
4, 242002, Note_on_c, 9, 59, 63
4, 242103, Note_on_c, 9, 38, 22
4, 242134, Note_on_c, 9, 59, 0
4, 242316, Note_on_c, 9, 38, 0
4, 242622, Note_on_c, 9, 59, 46
4, 242641, Note_on_c, 9, 36, 44
4, 242737, Note_on_c, 9, 59, 0
4, 242860, Note_on_c, 9, 36, 0
4, 242870, Note_on_c, 9, 44, 70
4, 242939, Note_on_c, 9, 64, 42
4, 243009, Note_on_c, 9, 59, 37
4, 243020, Note_on_c, 9, 36, 41
4, 243040, Note_on_c, 9, 44, 0
4, 243077, Note_on_c, 9, 59, 0
4, 243340, Note_on_c, 9, 36, 0
4, 243451, Note_on_c, 9, 64, 0
4, 243543, Note_on_c, 9, 64, 77
4, 243560, Note_on_c, 9, 59, 57
4, 243687, Note_on_c, 9, 59, 0
4, 243779, Note_on_c, 9, 64, 0
4, 243921, Note_on_c, 9, 59, 50
4, 244082, Note_on_c, 9, 59, 0
4, 244520, Note_on_c, 9, 59, 53
4, 244608, Note_on_c, 9, 36, 29
4, 244800, Note_on_c, 9, 44, 70
4, 244806, Note_on_c, 9, 36, 0
4, 244959, Note_on_c, 9, 36, 48
4, 244960, Note_on_c, 9, 44, 0
4, 245142, Note_on_c, 9, 63, 38
4, 245152, Note_on_c, 9, 62, 38
4, 245223, Note_on_c, 9, 36, 0
4, 245299, Note_on_c, 9, 59, 0
4, 245373, Note_on_c, 9, 62, 0
4, 245401, Note_on_c, 9, 63, 0
4, 245472, Note_on_c, 9, 63, 49
4, 245487, Note_on_c, 9, 62, 50
4, 245506, Note_on_c, 9, 59, 51
4, 245532, Note_on_c, 9, 38, 39
4, 245593, Note_on_c, 9, 59, 0
4, 245710, Note_on_c, 9, 38, 0
4, 245710, Note_on_c, 9, 62, 0
4, 245806, Note_on_c, 9, 63, 0
4, 245877, Note_on_c, 9, 59, 48
4, 245881, Note_on_c, 9, 38, 25
4, 245975, Note_on_c, 9, 59, 0
4, 246118, Note_on_c, 9, 38, 0
4, 246405, Note_on_c, 9, 62, 32
4, 246435, Note_on_c, 9, 59, 58
4, 246457, Note_on_c, 9, 62, 0
4, 246463, Note_on_c, 9, 36, 32
4, 246530, Note_on_c, 9, 59, 0
4, 246621, Note_on_c, 9, 36, 0
4, 246720, Note_on_c, 9, 44, 70
4, 246736, Note_on_c, 9, 64, 78
4, 246800, Note_on_c, 9, 59, 47
4, 246838, Note_on_c, 9, 36, 29
4, 246870, Note_on_c, 9, 44, 0
4, 247020, Note_on_c, 9, 36, 0
4, 247272, Note_on_c, 9, 64, 0
4, 247367, Note_on_c, 9, 59, 0
4, 247369, Note_on_c, 9, 64, 69
4, 247443, Note_on_c, 9, 59, 27
4, 247489, Note_on_c, 9, 59, 0
4, 247627, Note_on_c, 9, 64, 0
4, 247805, Note_on_c, 9, 59, 41
4, 247852, Note_on_c, 9, 59, 0
4, 248379, Note_on_c, 9, 38, 46
4, 248384, Note_on_c, 9, 59, 66
4, 248582, Note_on_c, 9, 38, 0
4, 248640, Note_on_c, 9, 44, 70
4, 248739, Note_on_c, 9, 63, 33
4, 248750, Note_on_c, 9, 62, 36
4, 248800, Note_on_c, 9, 44, 0
4, 248943, Note_on_c, 9, 59, 0
4, 249055, Note_on_c, 9, 59, 43
4, 249100, Note_on_c, 9, 38, 34
4, 249110, Note_on_c, 9, 59, 0
4, 249152, Note_on_c, 9, 62, 0
4, 249178, Note_on_c, 9, 63, 0
4, 249230, Note_on_c, 9, 38, 0
4, 249299, Note_on_c, 9, 63, 36
4, 249307, Note_on_c, 9, 62, 33
4, 249355, Note_on_c, 9, 62, 0
4, 249384, Note_on_c, 9, 59, 38
4, 249389, Note_on_c, 9, 63, 0
4, 249436, Note_on_c, 9, 36, 40
4, 249449, Note_on_c, 9, 53, 46
4, 249466, Note_on_c, 9, 59, 0
4, 249499, Note_on_c, 9, 53, 0
4, 249572, Note_on_c, 9, 36, 0
4, 249786, Note_on_c, 9, 36, 36
4, 249805, Note_on_c, 9, 53, 44
4, 249807, Note_on_c, 9, 59, 44
4, 249943, Note_on_c, 9, 36, 0
4, 250138, Note_on_c, 9, 59, 0
4, 250184, Note_on_c, 9, 53, 0
4, 250243, Note_on_c, 9, 62, 27
4, 250281, Note_on_c, 9, 62, 0
4, 250409, Note_on_c, 9, 59, 32
4, 250513, Note_on_c, 9, 59, 0
4, 250560, Note_on_c, 9, 44, 70
4, 250575, Note_on_c, 9, 64, 74
4, 250720, Note_on_c, 9, 44, 0
4, 250779, Note_on_c, 9, 59, 42
4, 251084, Note_on_c, 9, 64, 0
4, 251159, Note_on_c, 9, 59, 0
4, 251163, Note_on_c, 9, 64, 64
4, 251405, Note_on_c, 9, 64, 0
4, 251615, Note_on_c, 9, 59, 38
4, 251669, Note_on_c, 9, 59, 0
4, 252185, Note_on_c, 9, 59, 50
4, 252310, Note_on_c, 9, 59, 0
4, 252480, Note_on_c, 9, 44, 70
4, 252551, Note_on_c, 9, 59, 48
4, 252557, Note_on_c, 9, 63, 48
4, 252578, Note_on_c, 9, 62, 48
4, 252607, Note_on_c, 9, 59, 0
4, 252640, Note_on_c, 9, 44, 0
4, 252819, Note_on_c, 9, 53, 43
4, 252855, Note_on_c, 9, 62, 0
4, 252944, Note_on_c, 9, 63, 0
4, 253075, Note_on_c, 9, 38, 27
4, 253116, Note_on_c, 9, 53, 0
4, 253196, Note_on_c, 9, 38, 0
4, 253448, Note_on_c, 9, 59, 49
4, 253502, Note_on_c, 9, 38, 32
4, 253627, Note_on_c, 9, 38, 0
4, 253791, Note_on_c, 9, 59, 0
4, 254061, Note_on_c, 9, 59, 38
4, 254203, Note_on_c, 9, 59, 0
4, 254392, Note_on_c, 9, 64, 55
4, 254400, Note_on_c, 9, 44, 70
4, 254442, Note_on_c, 9, 59, 41
4, 254452, Note_on_c, 9, 36, 38
4, 254560, Note_on_c, 9, 44, 0
4, 254573, Note_on_c, 9, 59, 0
4, 254761, Note_on_c, 9, 36, 0
4, 254805, Note_on_c, 9, 53, 16
4, 254911, Note_on_c, 9, 64, 0
4, 255002, Note_on_c, 9, 53, 0
4, 255007, Note_on_c, 9, 64, 59
4, 255185, Note_on_c, 9, 64, 0
4, 255461, Note_on_c, 9, 59, 42
4, 256047, Note_on_c, 9, 36, 25
4, 256242, Note_on_c, 9, 36, 0
4, 256320, Note_on_c, 9, 44, 70
4, 256390, Note_on_c, 9, 62, 67
4, 256392, Note_on_c, 9, 63, 55
4, 256394, Note_on_c, 9, 53, 35
4, 256434, Note_on_c, 9, 36, 35
4, 256480, Note_on_c, 9, 44, 0
4, 256524, Note_on_c, 9, 59, 0
4, 256552, Note_on_c, 9, 53, 0
4, 256807, Note_on_c, 9, 62, 0
4, 256844, Note_on_c, 9, 63, 0
4, 256887, Note_on_c, 9, 36, 0
4, 256949, Note_on_c, 9, 63, 48
4, 256967, Note_on_c, 9, 62, 49
4, 256970, Note_on_c, 9, 53, 24
4, 257058, Note_on_c, 9, 53, 0
4, 257070, Note_on_c, 9, 62, 0
4, 257117, Note_on_c, 9, 63, 0
4, 257324, Note_on_c, 9, 57, 24
4, 257333, Note_on_c, 9, 59, 44
4, 257342, Note_on_c, 9, 52, 42
4, 257376, Note_on_c, 9, 53, 16
4, 258390, Note_on_c, 9, 59, 0
4, 258401, Note_on_c, 9, 57, 0
4, 258641, Note_on_c, 9, 52, 0
4, 258723, Note_on_c, 9, 53, 0
4, 262666, Note_on_c, 9, 38, 34
4, 262756, Note_on_c, 9, 38, 0
4, 262919, Note_on_c, 9, 38, 48
4, 263030, Note_on_c, 9, 38, 0
4, 263188, Note_on_c, 9, 52, 46
4, 263201, Note_on_c, 9, 36, 39
4, 263733, Note_on_c, 9, 52, 0
4, 264497, Note_on_c, 9, 36, 0
4, 264497, End_track
0, 0, End_of_file
