0, 0, Header, 1, 2, 960
1, 0, Start_track
1, 0, Title_t, "The Duke (by Dave Brubeck)"
1, 0, Text_t, "dougmck@pipeline.com.au / dougmck@tpg.com.au -  LIve played midi - Sher Music's ""New Real Book - Vol 2'  pages 79-80\012"
1, 0, Time_signature, 4, 2, 24, 8
1, 0, Key_signature, 0, "major"
1, 0, Tempo, 697674
1, 0, Marker_t, "Head played  - see New Real Book vol 2"
1, 126720, Marker_t, "Solo section begins"
1, 147234, Marker_t, "Series of mi11 voicings (Cm11,Bm11,Bbm11) follow melody down chromatically"
1, 249600, Marker_t, "Coda  - basically drop 2 voicings outline the chords. RH plays chord"
1, 251021, Marker_t, "with chromatic fall-offs in left hand to next position"
1, 263456, Marker_t, "White note glissando"
1, 263456, End_track
2, 0, Start_track
2, 0, Title_t, "LIve played piano"
2, 70, Control_c, 0, 64, 0
2, 2534, Note_on_c, 0, 42, 58
2, 2876, Note_on_c, 0, 42, 0
2, 2902, Note_on_c, 0, 43, 56
2, 3472, Note_on_c, 0, 43, 0
2, 3477, Note_on_c, 0, 36, 69
2, 3630, Control_c, 0, 64, 127
2, 3636, Note_on_c, 0, 36, 0
2, 4448, Note_on_c, 0, 67, 83
2, 4466, Note_on_c, 0, 83, 88
2, 4471, Note_on_c, 0, 79, 77
2, 4473, Note_on_c, 0, 72, 80
2, 4478, Note_on_c, 0, 76, 68
2, 4484, Note_on_c, 0, 77, 70
2, 4524, Note_on_c, 0, 77, 0
2, 4686, Note_on_c, 0, 83, 0
2, 4705, Note_on_c, 0, 79, 0
2, 4719, Note_on_c, 0, 72, 0
2, 4764, Note_on_c, 0, 76, 0
2, 4825, Note_on_c, 0, 67, 0
2, 4828, Note_on_c, 0, 76, 60
2, 4833, Note_on_c, 0, 81, 54
2, 4843, Note_on_c, 0, 72, 63
2, 4850, Note_on_c, 0, 65, 71
2, 4880, Control_c, 0, 64, 0
2, 5073, Control_c, 0, 64, 127
2, 5300, Note_on_c, 0, 65, 0
2, 5368, Note_on_c, 0, 72, 0
2, 5386, Note_on_c, 0, 81, 0
2, 5404, Note_on_c, 0, 76, 0
2, 5772, Control_c, 0, 64, 0
2, 5804, Note_on_c, 0, 79, 54
2, 5806, Note_on_c, 0, 74, 55
2, 5814, Note_on_c, 0, 64, 49
2, 5830, Note_on_c, 0, 69, 25
2, 5853, Note_on_c, 0, 71, 22
2, 5916, Control_c, 0, 64, 127
2, 5947, Note_on_c, 0, 69, 0
2, 6052, Note_on_c, 0, 79, 0
2, 6057, Note_on_c, 0, 74, 0
2, 6128, Note_on_c, 0, 71, 0
2, 6416, Note_on_c, 0, 76, 57
2, 6429, Note_on_c, 0, 60, 51
2, 6440, Note_on_c, 0, 69, 40
2, 6441, Note_on_c, 0, 71, 37
2, 6466, Note_on_c, 0, 64, 0
2, 6492, Control_c, 0, 64, 0
2, 6510, Note_on_c, 0, 71, 0
2, 6520, Note_on_c, 0, 69, 0
2, 6600, Note_on_c, 0, 60, 0
2, 6655, Note_on_c, 0, 76, 0
2, 6817, Control_c, 0, 64, 127
2, 7257, Note_on_c, 0, 74, 68
2, 7266, Note_on_c, 0, 69, 66
2, 7274, Note_on_c, 0, 67, 56
2, 7335, Note_on_c, 0, 67, 0
2, 7365, Note_on_c, 0, 69, 0
2, 7375, Note_on_c, 0, 74, 0
2, 7659, Control_c, 0, 64, 0
2, 7680, Note_on_c, 0, 71, 31
2, 7698, Note_on_c, 0, 67, 57
2, 7705, Note_on_c, 0, 62, 51
2, 8226, Control_c, 0, 64, 127
2, 8262, Note_on_c, 0, 67, 0
2, 8404, Note_on_c, 0, 62, 0
2, 8542, Note_on_c, 0, 71, 0
2, 8658, Control_c, 0, 64, 0
2, 8660, Note_on_c, 0, 67, 51
2, 8686, Note_on_c, 0, 62, 31
2, 8744, Note_on_c, 0, 55, 20
2, 8766, Control_c, 0, 64, 127
2, 8803, Note_on_c, 0, 55, 0
2, 8862, Note_on_c, 0, 67, 0
2, 8916, Note_on_c, 0, 62, 0
2, 9231, Note_on_c, 0, 69, 40
2, 9235, Note_on_c, 0, 64, 46
2, 9244, Note_on_c, 0, 66, 42
2, 9247, Control_c, 0, 64, 0
2, 9254, Note_on_c, 0, 57, 40
2, 9270, Note_on_c, 0, 47, 34
2, 9524, Control_c, 0, 64, 127
2, 9724, Note_on_c, 0, 57, 0
2, 9790, Note_on_c, 0, 64, 0
2, 9916, Note_on_c, 0, 66, 0
2, 10153, Note_on_c, 0, 69, 0
2, 10228, Note_on_c, 0, 66, 45
2, 10238, Note_on_c, 0, 59, 47
2, 10243, Note_on_c, 0, 63, 46
2, 10272, Note_on_c, 0, 57, 36
2, 10285, Note_on_c, 0, 51, 23
2, 10365, Control_c, 0, 64, 0
2, 10414, Note_on_c, 0, 51, 0
2, 10417, Note_on_c, 0, 47, 0
2, 10474, Control_c, 0, 64, 127
2, 10531, Note_on_c, 0, 57, 0
2, 11086, Control_c, 0, 64, 0
2, 11172, Control_c, 0, 64, 127
2, 11196, Note_on_c, 0, 47, 89
2, 11253, Note_on_c, 0, 59, 0
2, 11476, Note_on_c, 0, 66, 0
2, 11484, Control_c, 0, 64, 0
2, 11485, Note_on_c, 0, 63, 0
2, 11517, Note_on_c, 0, 47, 0
2, 11557, Note_on_c, 0, 40, 67
2, 11688, Control_c, 0, 64, 127
2, 12098, Control_c, 0, 64, 0
2, 12158, Control_c, 0, 64, 127
2, 12163, Note_on_c, 0, 62, 41
2, 12174, Note_on_c, 0, 47, 43
2, 12178, Note_on_c, 0, 59, 34
2, 12289, Control_c, 0, 64, 0
2, 12450, Note_on_c, 0, 47, 0
2, 12459, Note_on_c, 0, 40, 0
2, 12488, Note_on_c, 0, 50, 46
2, 12514, Note_on_c, 0, 67, 52
2, 12524, Note_on_c, 0, 59, 0
2, 12530, Control_c, 0, 64, 127
2, 12555, Note_on_c, 0, 62, 0
2, 12570, Note_on_c, 0, 67, 0
2, 12603, Note_on_c, 0, 50, 0
2, 13106, Note_on_c, 0, 71, 58
2, 13111, Note_on_c, 0, 52, 49
2, 13197, Note_on_c, 0, 52, 0
2, 13276, Note_on_c, 0, 71, 0
2, 13420, Control_c, 0, 64, 0
2, 13483, Note_on_c, 0, 71, 70
2, 13484, Note_on_c, 0, 67, 74
2, 13486, Note_on_c, 0, 74, 72
2, 13488, Note_on_c, 0, 62, 78
2, 13489, Note_on_c, 0, 57, 78
2, 13506, Note_on_c, 0, 72, 55
2, 13732, Control_c, 0, 64, 127
2, 13922, Note_on_c, 0, 62, 0
2, 13942, Note_on_c, 0, 74, 0
2, 13972, Note_on_c, 0, 67, 0
2, 13990, Note_on_c, 0, 71, 0
2, 13992, Note_on_c, 0, 57, 0
2, 13993, Note_on_c, 0, 72, 0
2, 14096, Note_on_c, 0, 71, 64
2, 14101, Note_on_c, 0, 74, 74
2, 14107, Note_on_c, 0, 67, 73
2, 14109, Note_on_c, 0, 57, 84
2, 14114, Note_on_c, 0, 62, 78
2, 14134, Note_on_c, 0, 72, 42
2, 14268, Note_on_c, 0, 62, 0
2, 14318, Note_on_c, 0, 74, 0
2, 14337, Note_on_c, 0, 57, 0
2, 14362, Note_on_c, 0, 72, 0
2, 14388, Note_on_c, 0, 67, 0
2, 14449, Note_on_c, 0, 67, 57
2, 14450, Note_on_c, 0, 74, 64
2, 14462, Note_on_c, 0, 57, 74
2, 14463, Note_on_c, 0, 62, 75
2, 14484, Note_on_c, 0, 72, 32
2, 14580, Note_on_c, 0, 62, 0
2, 14610, Note_on_c, 0, 57, 0
2, 14630, Note_on_c, 0, 67, 0
2, 14665, Note_on_c, 0, 71, 0
2, 14668, Note_on_c, 0, 72, 0
2, 14671, Note_on_c, 0, 74, 0
2, 15061, Note_on_c, 0, 76, 85
2, 15062, Note_on_c, 0, 72, 82
2, 15066, Note_on_c, 0, 69, 87
2, 15068, Note_on_c, 0, 59, 75
2, 15069, Note_on_c, 0, 65, 95
2, 15070, Note_on_c, 0, 60, 90
2, 15074, Control_c, 0, 64, 0
2, 15144, Note_on_c, 0, 59, 0
2, 15469, Control_c, 0, 64, 127
2, 15529, Control_c, 0, 64, 0
2, 15648, Control_c, 0, 64, 127
2, 15770, Note_on_c, 0, 59, 51
2, 15829, Note_on_c, 0, 76, 0
2, 15830, Note_on_c, 0, 72, 0
2, 15843, Note_on_c, 0, 69, 0
2, 15866, Control_c, 0, 64, 0
2, 15897, Note_on_c, 0, 65, 0
2, 15900, Note_on_c, 0, 60, 0
2, 15914, Note_on_c, 0, 59, 0
2, 15949, Control_c, 0, 64, 127
2, 15968, Note_on_c, 0, 58, 49
2, 16129, Control_c, 0, 64, 0
2, 16186, Note_on_c, 0, 58, 0
2, 16210, Note_on_c, 0, 69, 68
2, 16212, Note_on_c, 0, 65, 76
2, 16215, Note_on_c, 0, 72, 63
2, 16222, Note_on_c, 0, 62, 69
2, 16227, Note_on_c, 0, 57, 69
2, 16407, Control_c, 0, 64, 127
2, 16503, Note_on_c, 0, 69, 0
2, 16822, Note_on_c, 0, 72, 0
2, 16832, Note_on_c, 0, 65, 0
2, 16858, Note_on_c, 0, 62, 0
2, 16935, Note_on_c, 0, 68, 60
2, 16948, Note_on_c, 0, 63, 69
2, 16950, Note_on_c, 0, 57, 0
2, 16953, Note_on_c, 0, 60, 62
2, 16972, Control_c, 0, 64, 0
2, 16974, Note_on_c, 0, 56, 69
2, 17212, Control_c, 0, 64, 127
2, 17323, Note_on_c, 0, 56, 0
2, 17530, Note_on_c, 0, 60, 0
2, 17550, Control_c, 0, 64, 0
2, 17577, Note_on_c, 0, 68, 0
2, 17622, Control_c, 0, 64, 127
2, 17732, Note_on_c, 0, 63, 0
2, 17779, Control_c, 0, 64, 0
2, 17876, Note_on_c, 0, 56, 57
2, 17881, Note_on_c, 0, 59, 50
2, 17883, Note_on_c, 0, 67, 47
2, 17886, Note_on_c, 0, 46, 43
2, 17893, Note_on_c, 0, 62, 55
2, 17896, Note_on_c, 0, 64, 52
2, 18186, Control_c, 0, 64, 127
2, 18301, Note_on_c, 0, 56, 0
2, 18361, Note_on_c, 0, 46, 0
2, 18829, Note_on_c, 0, 59, 0
2, 18846, Note_on_c, 0, 62, 0
2, 18867, Note_on_c, 0, 46, 39
2, 18986, Note_on_c, 0, 67, 0
2, 19078, Note_on_c, 0, 64, 0
2, 19113, Control_c, 0, 64, 0
2, 19120, Note_on_c, 0, 46, 0
2, 19212, Note_on_c, 0, 39, 45
2, 19389, Control_c, 0, 64, 127
2, 19842, Note_on_c, 0, 63, 58
2, 19857, Note_on_c, 0, 67, 45
2, 19863, Note_on_c, 0, 51, 37
2, 19864, Note_on_c, 0, 57, 38
2, 20097, Note_on_c, 0, 57, 0
2, 20146, Control_c, 0, 64, 0
2, 20164, Note_on_c, 0, 67, 0
2, 20194, Note_on_c, 0, 63, 0
2, 20223, Note_on_c, 0, 68, 57
2, 20232, Note_on_c, 0, 62, 52
2, 20364, Control_c, 0, 64, 127
2, 20472, Note_on_c, 0, 62, 0
2, 20494, Note_on_c, 0, 51, 0
2, 20536, Note_on_c, 0, 68, 0
2, 20548, Note_on_c, 0, 39, 0
2, 20677, Control_c, 0, 64, 0
2, 20750, Note_on_c, 0, 61, 53
2, 20762, Note_on_c, 0, 50, 35
2, 20763, Note_on_c, 0, 67, 60
2, 20776, Note_on_c, 0, 38, 32
2, 20880, Control_c, 0, 64, 127
2, 20892, Note_on_c, 0, 50, 0
2, 20895, Note_on_c, 0, 38, 0
2, 20953, Control_c, 0, 64, 0
2, 21028, Note_on_c, 0, 61, 0
2, 21062, Note_on_c, 0, 67, 0
2, 21116, Note_on_c, 0, 65, 61
2, 21126, Note_on_c, 0, 60, 40
2, 21139, Note_on_c, 0, 37, 40
2, 21170, Note_on_c, 0, 49, 20
2, 21229, Control_c, 0, 64, 127
2, 21348, Note_on_c, 0, 65, 0
2, 21522, Note_on_c, 0, 60, 0
2, 21636, Note_on_c, 0, 49, 0
2, 21700, Note_on_c, 0, 65, 66
2, 21711, Note_on_c, 0, 72, 53
2, 21721, Note_on_c, 0, 60, 60
2, 21746, Note_on_c, 0, 44, 35
2, 21867, Control_c, 0, 64, 0
2, 22095, Control_c, 0, 64, 127
2, 22250, Control_c, 0, 64, 0
2, 22280, Note_on_c, 0, 44, 0
2, 22327, Note_on_c, 0, 49, 42
2, 22406, Note_on_c, 0, 37, 0
2, 22480, Note_on_c, 0, 72, 0
2, 22509, Note_on_c, 0, 65, 0
2, 22516, Note_on_c, 0, 49, 0
2, 22579, Note_on_c, 0, 60, 0
2, 22626, Note_on_c, 0, 44, 40
2, 22674, Control_c, 0, 64, 127
2, 22778, Note_on_c, 0, 44, 0
2, 22890, Control_c, 0, 64, 0
2, 22972, Note_on_c, 0, 63, 53
2, 22976, Note_on_c, 0, 55, 47
2, 22978, Note_on_c, 0, 36, 37
2, 22982, Note_on_c, 0, 58, 52
2, 22988, Note_on_c, 0, 48, 36
2, 23167, Control_c, 0, 64, 127
2, 24028, Note_on_c, 0, 65, 71
2, 24140, Note_on_c, 0, 48, 0
2, 24176, Note_on_c, 0, 36, 0
2, 24198, Note_on_c, 0, 55, 0
2, 24212, Control_c, 0, 64, 0
2, 24297, Control_c, 0, 64, 127
2, 24529, Note_on_c, 0, 58, 0
2, 24541, Note_on_c, 0, 63, 0
2, 24561, Note_on_c, 0, 65, 0
2, 24622, Control_c, 0, 64, 0
2, 24640, Note_on_c, 0, 57, 45
2, 24644, Note_on_c, 0, 62, 50
2, 24657, Note_on_c, 0, 47, 41
2, 24676, Note_on_c, 0, 35, 35
2, 24862, Control_c, 0, 64, 127
2, 25328, Note_on_c, 0, 35, 0
2, 25482, Note_on_c, 0, 57, 0
2, 25501, Note_on_c, 0, 47, 0
2, 25548, Note_on_c, 0, 62, 0
2, 26018, Control_c, 0, 64, 0
2, 26022, Note_on_c, 0, 76, 77
2, 26024, Note_on_c, 0, 73, 67
2, 26030, Note_on_c, 0, 69, 76
2, 26037, Note_on_c, 0, 66, 74
2, 26082, Note_on_c, 0, 62, 30
2, 26172, Note_on_c, 0, 62, 0
2, 26197, Control_c, 0, 64, 127
2, 26210, Note_on_c, 0, 66, 0
2, 26269, Note_on_c, 0, 76, 0
2, 26292, Note_on_c, 0, 69, 0
2, 26529, Note_on_c, 0, 73, 0
2, 26594, Note_on_c, 0, 61, 52
2, 26608, Note_on_c, 0, 65, 51
2, 26619, Note_on_c, 0, 63, 30
2, 26624, Note_on_c, 0, 75, 53
2, 26630, Note_on_c, 0, 68, 51
2, 26631, Note_on_c, 0, 72, 55
2, 26654, Control_c, 0, 64, 0
2, 26907, Control_c, 0, 64, 127
2, 26946, Note_on_c, 0, 65, 0
2, 26979, Note_on_c, 0, 63, 0
2, 27003, Note_on_c, 0, 72, 0
2, 27010, Note_on_c, 0, 61, 0
2, 27013, Note_on_c, 0, 68, 0
2, 27025, Note_on_c, 0, 75, 0
2, 27579, Note_on_c, 0, 61, 67
2, 27589, Note_on_c, 0, 49, 51
2, 27726, Control_c, 0, 64, 0
2, 27942, Control_c, 0, 64, 127
2, 28234, Note_on_c, 0, 61, 0
2, 28250, Note_on_c, 0, 63, 65
2, 28446, Note_on_c, 0, 63, 0
2, 28483, Note_on_c, 0, 49, 0
2, 28516, Note_on_c, 0, 61, 45
2, 28699, Control_c, 0, 64, 0
2, 28760, Note_on_c, 0, 61, 0
2, 28839, Note_on_c, 0, 60, 49
2, 28855, Note_on_c, 0, 55, 30
2, 28876, Note_on_c, 0, 44, 33
2, 28976, Control_c, 0, 64, 127
2, 29032, Note_on_c, 0, 55, 0
2, 29114, Note_on_c, 0, 60, 0
2, 29446, Note_on_c, 0, 60, 58
2, 29450, Note_on_c, 0, 68, 49
2, 29463, Note_on_c, 0, 51, 37
2, 29666, Note_on_c, 0, 51, 0
2, 29775, Note_on_c, 0, 44, 0
2, 30086, Note_on_c, 0, 68, 0
2, 30114, Note_on_c, 0, 55, 30
2, 30238, Control_c, 0, 64, 0
2, 30314, Note_on_c, 0, 60, 0
2, 30382, Control_c, 0, 64, 127
2, 30414, Note_on_c, 0, 39, 43
2, 30597, Note_on_c, 0, 39, 0
2, 30624, Control_c, 0, 64, 0
2, 30704, Note_on_c, 0, 55, 0
2, 30765, Note_on_c, 0, 38, 53
2, 30817, Control_c, 0, 64, 127
2, 31249, Control_c, 0, 64, 0
2, 31327, Note_on_c, 0, 50, 52
2, 31336, Note_on_c, 0, 60, 64
2, 31344, Note_on_c, 0, 54, 52
2, 31466, Control_c, 0, 64, 127
2, 31567, Note_on_c, 0, 50, 0
2, 31646, Control_c, 0, 64, 0
2, 31647, Note_on_c, 0, 38, 0
2, 31694, Note_on_c, 0, 60, 0
2, 31724, Note_on_c, 0, 62, 47
2, 31732, Note_on_c, 0, 42, 31
2, 31910, Note_on_c, 0, 54, 0
2, 32025, Note_on_c, 0, 62, 0
2, 32067, Control_c, 0, 64, 127
2, 32096, Note_on_c, 0, 42, 0
2, 32235, Control_c, 0, 64, 0
2, 32307, Note_on_c, 0, 59, 51
2, 32316, Note_on_c, 0, 53, 34
2, 32319, Note_on_c, 0, 37, 39
2, 32524, Control_c, 0, 64, 127
2, 32596, Note_on_c, 0, 53, 0
2, 32698, Note_on_c, 0, 59, 0
2, 32965, Note_on_c, 0, 37, 0
2, 32995, Note_on_c, 0, 44, 46
2, 33178, Note_on_c, 0, 44, 0
2, 33303, Note_on_c, 0, 53, 54
2, 33328, Note_on_c, 0, 44, 20
2, 33496, Note_on_c, 0, 44, 0
2, 33620, Note_on_c, 0, 63, 56
2, 33625, Note_on_c, 0, 53, 0
2, 33628, Note_on_c, 0, 59, 46
2, 33638, Note_on_c, 0, 67, 42
2, 33690, Note_on_c, 0, 59, 0
2, 33740, Note_on_c, 0, 67, 0
2, 33757, Note_on_c, 0, 63, 0
2, 33940, Note_on_c, 0, 71, 68
2, 34425, Note_on_c, 0, 71, 0
2, 34569, Control_c, 0, 64, 0
2, 34578, Note_on_c, 0, 59, 49
2, 34579, Note_on_c, 0, 64, 57
2, 34591, Note_on_c, 0, 67, 50
2, 34608, Note_on_c, 0, 55, 33
2, 34617, Note_on_c, 0, 48, 42
2, 34756, Note_on_c, 0, 59, 0
2, 34845, Control_c, 0, 64, 127
2, 34885, Note_on_c, 0, 64, 0
2, 34887, Note_on_c, 0, 67, 0
2, 34948, Note_on_c, 0, 48, 0
2, 34989, Note_on_c, 0, 55, 0
2, 35850, Note_on_c, 0, 67, 58
2, 35856, Note_on_c, 0, 83, 60
2, 35862, Note_on_c, 0, 77, 54
2, 35864, Note_on_c, 0, 72, 54
2, 35978, Note_on_c, 0, 83, 0
2, 35979, Note_on_c, 0, 72, 0
2, 36000, Control_c, 0, 64, 0
2, 36007, Note_on_c, 0, 67, 0
2, 36016, Note_on_c, 0, 77, 0
2, 36114, Note_on_c, 0, 81, 48
2, 36122, Note_on_c, 0, 76, 56
2, 36132, Note_on_c, 0, 71, 60
2, 36139, Note_on_c, 0, 65, 47
2, 36253, Note_on_c, 0, 81, 0
2, 36267, Note_on_c, 0, 71, 0
2, 36284, Note_on_c, 0, 76, 0
2, 36321, Note_on_c, 0, 65, 0
2, 36436, Note_on_c, 0, 79, 54
2, 36446, Note_on_c, 0, 74, 59
2, 36454, Note_on_c, 0, 64, 60
2, 36465, Note_on_c, 0, 69, 32
2, 36513, Note_on_c, 0, 64, 0
2, 36524, Note_on_c, 0, 69, 0
2, 36543, Note_on_c, 0, 79, 0
2, 36550, Note_on_c, 0, 74, 0
2, 36685, Control_c, 0, 64, 127
2, 37023, Control_c, 0, 64, 0
2, 37096, Note_on_c, 0, 76, 50
2, 37105, Note_on_c, 0, 60, 47
2, 37107, Note_on_c, 0, 69, 51
2, 37108, Note_on_c, 0, 67, 37
2, 37110, Note_on_c, 0, 72, 51
2, 37204, Note_on_c, 0, 67, 0
2, 37231, Note_on_c, 0, 69, 0
2, 37242, Note_on_c, 0, 60, 0
2, 37250, Note_on_c, 0, 72, 0
2, 37263, Note_on_c, 0, 76, 0
2, 37347, Control_c, 0, 64, 127
2, 37696, Control_c, 0, 64, 0
2, 37796, Note_on_c, 0, 74, 62
2, 37808, Note_on_c, 0, 68, 56
2, 37810, Note_on_c, 0, 71, 58
2, 37820, Note_on_c, 0, 64, 51
2, 37834, Note_on_c, 0, 56, 36
2, 37970, Note_on_c, 0, 56, 0
2, 38013, Note_on_c, 0, 71, 0
2, 38022, Control_c, 0, 64, 127
2, 38089, Note_on_c, 0, 74, 0
2, 38118, Note_on_c, 0, 68, 0
2, 38133, Note_on_c, 0, 64, 0
2, 38358, Control_c, 0, 64, 0
2, 38386, Note_on_c, 0, 71, 52
2, 38404, Note_on_c, 0, 67, 54
2, 38413, Note_on_c, 0, 62, 44
2, 38422, Note_on_c, 0, 55, 46
2, 38750, Note_on_c, 0, 55, 0
2, 38755, Control_c, 0, 64, 127
2, 39014, Note_on_c, 0, 67, 0
2, 39064, Note_on_c, 0, 62, 0
2, 39418, Note_on_c, 0, 71, 0
2, 39897, Control_c, 0, 64, 0
2, 39981, Control_c, 0, 64, 127
2, 39994, Note_on_c, 0, 67, 55
2, 40017, Note_on_c, 0, 60, 45
2, 40023, Note_on_c, 0, 64, 53
2, 40164, Note_on_c, 0, 67, 0
2, 40167, Note_on_c, 0, 60, 0
2, 40173, Note_on_c, 0, 64, 0
2, 40329, Control_c, 0, 64, 0
2, 40407, Note_on_c, 0, 47, 35
2, 40410, Note_on_c, 0, 69, 38
2, 40424, Note_on_c, 0, 57, 37
2, 40426, Note_on_c, 0, 63, 21
2, 40683, Note_on_c, 0, 63, 0
2, 40690, Control_c, 0, 64, 127
2, 40849, Note_on_c, 0, 57, 0
2, 40986, Note_on_c, 0, 63, 36
2, 41004, Note_on_c, 0, 59, 45
2, 41026, Note_on_c, 0, 57, 34
2, 41040, Control_c, 0, 64, 0
2, 41100, Control_c, 0, 64, 127
2, 41187, Note_on_c, 0, 47, 0
2, 41251, Note_on_c, 0, 57, 0
2, 41878, Note_on_c, 0, 59, 0
2, 41883, Note_on_c, 0, 47, 46
2, 41988, Note_on_c, 0, 63, 0
2, 42022, Note_on_c, 0, 69, 0
2, 42123, Control_c, 0, 64, 0
2, 42194, Note_on_c, 0, 47, 0
2, 42210, Note_on_c, 0, 40, 38
2, 42250, Note_on_c, 0, 55, 30
2, 42303, Control_c, 0, 64, 127
2, 42310, Note_on_c, 0, 40, 0
2, 42429, Note_on_c, 0, 55, 0
2, 42867, Note_on_c, 0, 59, 35
2, 42879, Note_on_c, 0, 52, 19
2, 42890, Note_on_c, 0, 55, 24
2, 42964, Control_c, 0, 64, 0
2, 42981, Note_on_c, 0, 52, 0
2, 42982, Note_on_c, 0, 59, 0
2, 43010, Note_on_c, 0, 55, 0
2, 43230, Note_on_c, 0, 62, 47
2, 43332, Note_on_c, 0, 62, 0
2, 43336, Control_c, 0, 64, 127
2, 43513, Note_on_c, 0, 67, 44
2, 43676, Note_on_c, 0, 67, 0
2, 43808, Note_on_c, 0, 71, 42
2, 43918, Note_on_c, 0, 71, 0
2, 44071, Control_c, 0, 64, 0
2, 44139, Note_on_c, 0, 57, 60
2, 44139, Note_on_c, 0, 67, 54
2, 44139, Note_on_c, 0, 74, 47
2, 44140, Note_on_c, 0, 62, 29
2, 44344, Note_on_c, 0, 62, 0
2, 44353, Note_on_c, 0, 74, 0
2, 44368, Note_on_c, 0, 67, 0
2, 44456, Note_on_c, 0, 74, 55
2, 44478, Note_on_c, 0, 62, 34
2, 44479, Note_on_c, 0, 67, 44
2, 44560, Note_on_c, 0, 62, 0
2, 44590, Note_on_c, 0, 67, 0
2, 44602, Note_on_c, 0, 74, 0
2, 44607, Note_on_c, 0, 57, 0
2, 45140, Note_on_c, 0, 67, 53
2, 45144, Note_on_c, 0, 62, 51
2, 45148, Note_on_c, 0, 57, 38
2, 45150, Note_on_c, 0, 74, 45
2, 45178, Control_c, 0, 64, 127
2, 45292, Note_on_c, 0, 74, 0
2, 45301, Note_on_c, 0, 62, 0
2, 45354, Note_on_c, 0, 67, 0
2, 45409, Note_on_c, 0, 57, 0
2, 45444, Note_on_c, 0, 74, 49
2, 45450, Note_on_c, 0, 62, 31
2, 45451, Note_on_c, 0, 67, 43
2, 45510, Note_on_c, 0, 62, 0
2, 45562, Note_on_c, 0, 67, 0
2, 45601, Note_on_c, 0, 74, 0
2, 45720, Control_c, 0, 64, 0
2, 45814, Note_on_c, 0, 59, 47
2, 45825, Note_on_c, 0, 76, 57
2, 45832, Note_on_c, 0, 60, 58
2, 45835, Note_on_c, 0, 69, 59
2, 45838, Note_on_c, 0, 65, 50
2, 45840, Note_on_c, 0, 72, 40
2, 45919, Note_on_c, 0, 59, 0
2, 46104, Control_c, 0, 64, 127
2, 46130, Note_on_c, 0, 69, 0
2, 46140, Control_c, 0, 64, 0
2, 46141, Note_on_c, 0, 60, 0
2, 46143, Note_on_c, 0, 76, 0
2, 46144, Note_on_c, 0, 65, 0
2, 46155, Note_on_c, 0, 72, 0
2, 46282, Note_on_c, 0, 59, 45
2, 46296, Note_on_c, 0, 76, 49
2, 46310, Note_on_c, 0, 69, 51
2, 46314, Note_on_c, 0, 72, 41
2, 46324, Note_on_c, 0, 60, 51
2, 46329, Note_on_c, 0, 65, 47
2, 46335, Note_on_c, 0, 59, 0
2, 46465, Control_c, 0, 64, 127
2, 46549, Note_on_c, 0, 72, 0
2, 46560, Note_on_c, 0, 76, 0
2, 46586, Note_on_c, 0, 69, 0
2, 46639, Note_on_c, 0, 65, 0
2, 46868, Note_on_c, 0, 60, 0
2, 46933, Control_c, 0, 64, 0
2, 46966, Note_on_c, 0, 72, 50
2, 46977, Note_on_c, 0, 65, 59
2, 46986, Note_on_c, 0, 69, 45
2, 46993, Note_on_c, 0, 57, 44
2, 46996, Note_on_c, 0, 62, 32
2, 47050, Note_on_c, 0, 62, 0
2, 47070, Note_on_c, 0, 57, 0
2, 47116, Note_on_c, 0, 69, 0
2, 47169, Note_on_c, 0, 65, 0
2, 47170, Note_on_c, 0, 72, 0
2, 47210, Control_c, 0, 64, 127
2, 47646, Note_on_c, 0, 68, 42
2, 47647, Note_on_c, 0, 63, 50
2, 47659, Note_on_c, 0, 60, 43
2, 47667, Control_c, 0, 64, 0
2, 47671, Note_on_c, 0, 46, 36
2, 47680, Note_on_c, 0, 56, 33
2, 47992, Control_c, 0, 64, 127
2, 48238, Note_on_c, 0, 46, 0
2, 48615, Note_on_c, 0, 46, 45
2, 48618, Note_on_c, 0, 60, 0
2, 48648, Note_on_c, 0, 56, 0
2, 48697, Note_on_c, 0, 68, 0
2, 48771, Note_on_c, 0, 63, 0
2, 48979, Note_on_c, 0, 56, 51
2, 48980, Note_on_c, 0, 67, 64
2, 48985, Note_on_c, 0, 62, 71
2, 48992, Note_on_c, 0, 64, 66
2, 48993, Note_on_c, 0, 59, 66
2, 49047, Note_on_c, 0, 56, 0
2, 49117, Note_on_c, 0, 46, 0
2, 49166, Note_on_c, 0, 59, 0
2, 49298, Note_on_c, 0, 67, 0
2, 49434, Note_on_c, 0, 62, 0
2, 49597, Note_on_c, 0, 54, 69
2, 49789, Note_on_c, 0, 64, 0
2, 49891, Note_on_c, 0, 54, 0
2, 49905, Control_c, 0, 64, 0
2, 49956, Note_on_c, 0, 55, 58
2, 49983, Note_on_c, 0, 39, 53
2, 50157, Control_c, 0, 64, 127
2, 50222, Note_on_c, 0, 55, 0
2, 50562, Note_on_c, 0, 63, 60
2, 50564, Note_on_c, 0, 67, 54
2, 50578, Note_on_c, 0, 51, 43
2, 50588, Note_on_c, 0, 55, 24
2, 50671, Note_on_c, 0, 67, 0
2, 50672, Note_on_c, 0, 55, 0
2, 50799, Note_on_c, 0, 51, 0
2, 50830, Note_on_c, 0, 63, 0
2, 50890, Control_c, 0, 64, 0
2, 50919, Note_on_c, 0, 68, 52
2, 50924, Note_on_c, 0, 50, 44
2, 50928, Note_on_c, 0, 39, 0
2, 50938, Note_on_c, 0, 62, 50
2, 50995, Note_on_c, 0, 50, 0
2, 51319, Note_on_c, 0, 68, 0
2, 51328, Note_on_c, 0, 62, 0
2, 51517, Note_on_c, 0, 67, 55
2, 51520, Note_on_c, 0, 62, 34
2, 51531, Note_on_c, 0, 50, 41
2, 51625, Control_c, 0, 64, 127
2, 51787, Note_on_c, 0, 62, 0
2, 51805, Control_c, 0, 64, 0
2, 51850, Note_on_c, 0, 67, 0
2, 51909, Note_on_c, 0, 60, 35
2, 51910, Note_on_c, 0, 49, 52
2, 51924, Note_on_c, 0, 50, 0
2, 51933, Note_on_c, 0, 65, 50
2, 52033, Control_c, 0, 64, 127
2, 52141, Note_on_c, 0, 65, 0
2, 52286, Note_on_c, 0, 60, 0
2, 52378, Note_on_c, 0, 49, 0
2, 52490, Note_on_c, 0, 72, 65
2, 52492, Note_on_c, 0, 49, 55
2, 52494, Note_on_c, 0, 65, 68
2, 52509, Note_on_c, 0, 60, 71
2, 52515, Control_c, 0, 64, 0
2, 52816, Control_c, 0, 64, 127
2, 53034, Note_on_c, 0, 49, 0
2, 53154, Note_on_c, 0, 46, 45
2, 53182, Note_on_c, 0, 72, 0
2, 53187, Control_c, 0, 64, 0
2, 53223, Note_on_c, 0, 65, 0
2, 53310, Note_on_c, 0, 60, 0
2, 53359, Note_on_c, 0, 46, 0
2, 53448, Note_on_c, 0, 47, 50
2, 53764, Note_on_c, 0, 47, 0
2, 53769, Note_on_c, 0, 63, 53
2, 53774, Note_on_c, 0, 58, 61
2, 53781, Note_on_c, 0, 48, 50
2, 53782, Note_on_c, 0, 55, 44
2, 53814, Control_c, 0, 64, 127
2, 54454, Note_on_c, 0, 55, 0
2, 54495, Note_on_c, 0, 48, 0
2, 54511, Note_on_c, 0, 58, 0
2, 54616, Note_on_c, 0, 63, 0
2, 54751, Control_c, 0, 64, 0
2, 54772, Note_on_c, 0, 58, 52
2, 54782, Note_on_c, 0, 65, 51
2, 54792, Note_on_c, 0, 55, 30
2, 54794, Note_on_c, 0, 48, 34
2, 54805, Note_on_c, 0, 63, 34
2, 54944, Control_c, 0, 64, 127
2, 55080, Note_on_c, 0, 55, 0
2, 55183, Note_on_c, 0, 65, 0
2, 55262, Note_on_c, 0, 63, 0
2, 55300, Note_on_c, 0, 58, 0
2, 55323, Note_on_c, 0, 48, 0
2, 55714, Control_c, 0, 64, 0
2, 55846, Control_c, 0, 64, 127
2, 56304, Control_c, 0, 64, 0
2, 56338, Note_on_c, 0, 54, 45
2, 56340, Note_on_c, 0, 62, 56
2, 56343, Note_on_c, 0, 57, 59
2, 56358, Note_on_c, 0, 47, 48
2, 56640, Control_c, 0, 64, 127
2, 56857, Note_on_c, 0, 47, 0
2, 57019, Note_on_c, 0, 47, 63
2, 57176, Note_on_c, 0, 47, 0
2, 57244, Note_on_c, 0, 62, 0
2, 57259, Note_on_c, 0, 54, 0
2, 57288, Note_on_c, 0, 57, 0
2, 57292, Note_on_c, 0, 47, 47
2, 57506, Control_c, 0, 64, 0
2, 57520, Note_on_c, 0, 47, 0
2, 57580, Note_on_c, 0, 61, 53
2, 57597, Note_on_c, 0, 56, 69
2, 57600, Note_on_c, 0, 58, 65
2, 57607, Note_on_c, 0, 46, 61
2, 57608, Note_on_c, 0, 53, 59
2, 57735, Control_c, 0, 64, 127
2, 58012, Note_on_c, 0, 53, 0
2, 58051, Note_on_c, 0, 58, 0
2, 58053, Note_on_c, 0, 56, 0
2, 58110, Note_on_c, 0, 46, 0
2, 58117, Note_on_c, 0, 61, 0
2, 58242, Note_on_c, 0, 63, 75
2, 58250, Note_on_c, 0, 46, 68
2, 58256, Note_on_c, 0, 58, 72
2, 58258, Note_on_c, 0, 56, 75
2, 58267, Note_on_c, 0, 53, 68
2, 58442, Note_on_c, 0, 53, 0
2, 58491, Note_on_c, 0, 46, 0
2, 58513, Note_on_c, 0, 56, 0
2, 58539, Note_on_c, 0, 63, 0
2, 58546, Note_on_c, 0, 58, 0
2, 58609, Note_on_c, 0, 56, 42
2, 58620, Note_on_c, 0, 61, 48
2, 58622, Note_on_c, 0, 46, 45
2, 58633, Note_on_c, 0, 53, 46
2, 58657, Note_on_c, 0, 58, 38
2, 58747, Note_on_c, 0, 53, 0
2, 58796, Note_on_c, 0, 58, 0
2, 58843, Note_on_c, 0, 56, 0
2, 58900, Control_c, 0, 64, 0
2, 58946, Note_on_c, 0, 61, 0
2, 58950, Control_c, 0, 64, 127
2, 59215, Control_c, 0, 64, 0
2, 59229, Note_on_c, 0, 60, 60
2, 59240, Note_on_c, 0, 51, 42
2, 59242, Note_on_c, 0, 44, 46
2, 59251, Note_on_c, 0, 55, 44
2, 59296, Note_on_c, 0, 63, 26
2, 59316, Note_on_c, 0, 46, 0
2, 59431, Note_on_c, 0, 51, 0
2, 59450, Note_on_c, 0, 44, 0
2, 59476, Note_on_c, 0, 55, 0
2, 59518, Note_on_c, 0, 60, 0
2, 59536, Note_on_c, 0, 63, 0
2, 60198, Note_on_c, 0, 60, 57
2, 60200, Note_on_c, 0, 68, 57
2, 60206, Note_on_c, 0, 55, 48
2, 60217, Note_on_c, 0, 44, 46
2, 60223, Note_on_c, 0, 51, 39
2, 60574, Control_c, 0, 64, 127
2, 60668, Note_on_c, 0, 44, 0
2, 60682, Note_on_c, 0, 51, 0
2, 60829, Note_on_c, 0, 68, 0
2, 61021, Note_on_c, 0, 60, 0
2, 61030, Note_on_c, 0, 55, 0
2, 61464, Control_c, 0, 64, 0
2, 61569, Note_on_c, 0, 54, 50
2, 61572, Note_on_c, 0, 60, 53
2, 61588, Note_on_c, 0, 38, 43
2, 61692, Control_c, 0, 64, 127
2, 61862, Note_on_c, 0, 38, 0
2, 61941, Note_on_c, 0, 54, 0
2, 62000, Note_on_c, 0, 60, 0
2, 62401, Control_c, 0, 64, 0
2, 62438, Note_on_c, 0, 43, 20
2, 62460, Note_on_c, 0, 53, 41
2, 62464, Note_on_c, 0, 62, 48
2, 62466, Note_on_c, 0, 59, 37
2, 62527, Note_on_c, 0, 43, 0
2, 62654, Control_c, 0, 64, 127
2, 62655, Note_on_c, 0, 53, 0
2, 62684, Note_on_c, 0, 59, 0
2, 62932, Note_on_c, 0, 62, 0
2, 63087, Control_c, 0, 64, 0
2, 63099, Note_on_c, 0, 59, 37
2, 63100, Note_on_c, 0, 43, 25
2, 63103, Note_on_c, 0, 36, 28
2, 63110, Note_on_c, 0, 55, 29
2, 63141, Note_on_c, 0, 52, 24
2, 63400, Control_c, 0, 64, 127
2, 63696, Note_on_c, 0, 43, 0
2, 64006, Note_on_c, 0, 52, 0
2, 64048, Note_on_c, 0, 43, 59
2, 64328, Note_on_c, 0, 43, 0
2, 64334, Note_on_c, 0, 55, 0
2, 64380, Note_on_c, 0, 59, 0
2, 64410, Note_on_c, 0, 43, 50
2, 64420, Note_on_c, 0, 36, 0
2, 64459, Control_c, 0, 64, 0
2, 64804, Note_on_c, 0, 43, 0
2, 65020, Note_on_c, 0, 48, 64
2, 65253, Note_on_c, 0, 48, 0
2, 65355, Note_on_c, 0, 41, 51
2, 65359, Control_c, 0, 64, 127
2, 65468, Note_on_c, 0, 41, 0
2, 65932, Note_on_c, 0, 71, 71
2, 65935, Note_on_c, 0, 55, 45
2, 65944, Note_on_c, 0, 62, 74
2, 65949, Note_on_c, 0, 67, 73
2, 66109, Note_on_c, 0, 55, 0
2, 66556, Note_on_c, 0, 62, 0
2, 66589, Note_on_c, 0, 71, 0
2, 66657, Note_on_c, 0, 72, 67
2, 66727, Note_on_c, 0, 71, 20
2, 66949, Note_on_c, 0, 72, 0
2, 66956, Note_on_c, 0, 71, 0
2, 67006, Note_on_c, 0, 67, 0
2, 67200, Control_c, 0, 64, 0
2, 67225, Note_on_c, 0, 74, 64
2, 67250, Note_on_c, 0, 65, 54
2, 67255, Note_on_c, 0, 70, 49
2, 67260, Note_on_c, 0, 52, 34
2, 67388, Note_on_c, 0, 52, 0
2, 67405, Control_c, 0, 64, 127
2, 67545, Note_on_c, 0, 65, 0
2, 67807, Note_on_c, 0, 70, 0
2, 67876, Note_on_c, 0, 56, 27
2, 67890, Note_on_c, 0, 67, 28
2, 67899, Note_on_c, 0, 62, 38
2, 68012, Note_on_c, 0, 74, 0
2, 68091, Note_on_c, 0, 62, 0
2, 68126, Note_on_c, 0, 67, 0
2, 68154, Note_on_c, 0, 56, 0
2, 68802, Note_on_c, 0, 76, 62
2, 68871, Note_on_c, 0, 75, 28
2, 68923, Note_on_c, 0, 75, 0
2, 68955, Note_on_c, 0, 76, 0
2, 69159, Note_on_c, 0, 38, 51
2, 69163, Control_c, 0, 64, 0
2, 69184, Note_on_c, 0, 78, 62
2, 69255, Note_on_c, 0, 38, 0
2, 69306, Control_c, 0, 64, 127
2, 69762, Note_on_c, 0, 54, 46
2, 69787, Note_on_c, 0, 64, 30
2, 69852, Note_on_c, 0, 64, 0
2, 69871, Note_on_c, 0, 54, 0
2, 70210, Note_on_c, 0, 78, 0
2, 70664, Note_on_c, 0, 79, 61
2, 70764, Note_on_c, 0, 79, 0
2, 71137, Note_on_c, 0, 76, 58
2, 71146, Control_c, 0, 64, 0
2, 71157, Note_on_c, 0, 64, 57
2, 71158, Note_on_c, 0, 71, 58
2, 71176, Note_on_c, 0, 36, 35
2, 71506, Control_c, 0, 64, 127
2, 71636, Note_on_c, 0, 71, 0
2, 71689, Note_on_c, 0, 43, 36
2, 71700, Note_on_c, 0, 64, 0
2, 71715, Note_on_c, 0, 76, 0
2, 72057, Note_on_c, 0, 52, 53
2, 72133, Note_on_c, 0, 36, 0
2, 72229, Note_on_c, 0, 43, 0
2, 72302, Note_on_c, 0, 52, 0
2, 72610, Note_on_c, 0, 62, 63
2, 72625, Note_on_c, 0, 67, 57
2, 72736, Note_on_c, 0, 67, 0
2, 72742, Note_on_c, 0, 62, 0
2, 72978, Note_on_c, 0, 65, 72
2, 72982, Note_on_c, 0, 61, 58
2, 72999, Note_on_c, 0, 46, 53
2, 73000, Note_on_c, 0, 56, 59
2, 73010, Control_c, 0, 64, 0
2, 73179, Control_c, 0, 64, 127
2, 73248, Note_on_c, 0, 46, 0
2, 73280, Note_on_c, 0, 56, 0
2, 73382, Note_on_c, 0, 61, 0
2, 73388, Note_on_c, 0, 65, 0
2, 73574, Note_on_c, 0, 72, 69
2, 73575, Note_on_c, 0, 65, 87
2, 73578, Note_on_c, 0, 61, 83
2, 73592, Note_on_c, 0, 60, 84
2, 73603, Control_c, 0, 64, 0
2, 73639, Control_c, 0, 64, 127
2, 73644, Note_on_c, 0, 71, 29
2, 73904, Note_on_c, 0, 72, 0
2, 73933, Note_on_c, 0, 71, 0
2, 74013, Note_on_c, 0, 61, 0
2, 74107, Note_on_c, 0, 65, 0
2, 74145, Note_on_c, 0, 60, 0
2, 74180, Control_c, 0, 64, 0
2, 74182, Note_on_c, 0, 73, 57
2, 74192, Note_on_c, 0, 65, 79
2, 74194, Note_on_c, 0, 58, 70
2, 74198, Note_on_c, 0, 61, 69
2, 74289, Control_c, 0, 64, 127
2, 74442, Note_on_c, 0, 58, 0
2, 74464, Note_on_c, 0, 65, 0
2, 74469, Note_on_c, 0, 61, 0
2, 74548, Note_on_c, 0, 73, 0
2, 74832, Note_on_c, 0, 44, 35
2, 74840, Note_on_c, 0, 75, 55
2, 74859, Note_on_c, 0, 68, 64
2, 74865, Control_c, 0, 64, 0
2, 74871, Note_on_c, 0, 63, 43
2, 74929, Note_on_c, 0, 63, 0
2, 75094, Control_c, 0, 64, 127
2, 75298, Note_on_c, 0, 68, 0
2, 75499, Note_on_c, 0, 56, 44
2, 75520, Note_on_c, 0, 63, 30
2, 75604, Note_on_c, 0, 63, 0
2, 75621, Note_on_c, 0, 75, 0
2, 76032, Note_on_c, 0, 44, 0
2, 76440, Note_on_c, 0, 56, 0
2, 76450, Note_on_c, 0, 44, 55
2, 76466, Note_on_c, 0, 77, 64
2, 76476, Note_on_c, 0, 65, 58
2, 76576, Note_on_c, 0, 65, 0
2, 76605, Note_on_c, 0, 77, 0
2, 76762, Note_on_c, 0, 44, 0
2, 76856, Note_on_c, 0, 43, 57
2, 76874, Control_c, 0, 64, 0
2, 76947, Control_c, 0, 64, 127
2, 77008, Note_on_c, 0, 43, 0
2, 77442, Note_on_c, 0, 79, 74
2, 77443, Note_on_c, 0, 68, 71
2, 77445, Note_on_c, 0, 71, 71
2, 77446, Note_on_c, 0, 62, 65
2, 77460, Note_on_c, 0, 74, 64
2, 77560, Control_c, 0, 64, 0
2, 77742, Control_c, 0, 64, 127
2, 77896, Note_on_c, 0, 79, 0
2, 78060, Note_on_c, 0, 62, 0
2, 78085, Note_on_c, 0, 68, 0
2, 78165, Note_on_c, 0, 80, 68
2, 78176, Note_on_c, 0, 74, 0
2, 78309, Note_on_c, 0, 71, 0
2, 78348, Note_on_c, 0, 80, 0
2, 78751, Control_c, 0, 64, 0
2, 78764, Note_on_c, 0, 68, 37
2, 78765, Note_on_c, 0, 77, 43
2, 78775, Note_on_c, 0, 75, 46
2, 78784, Note_on_c, 0, 53, 35
2, 78787, Note_on_c, 0, 72, 49
2, 78944, Control_c, 0, 64, 127
2, 79248, Note_on_c, 0, 72, 0
2, 79274, Note_on_c, 0, 68, 0
2, 79327, Note_on_c, 0, 77, 0
2, 79333, Note_on_c, 0, 60, 37
2, 79641, Note_on_c, 0, 75, 0
2, 79689, Note_on_c, 0, 63, 43
2, 79694, Note_on_c, 0, 68, 46
2, 79695, Note_on_c, 0, 67, 42
2, 79816, Note_on_c, 0, 53, 0
2, 79828, Note_on_c, 0, 63, 0
2, 79830, Note_on_c, 0, 60, 0
2, 80067, Note_on_c, 0, 67, 0
2, 80181, Note_on_c, 0, 68, 0
2, 80275, Note_on_c, 0, 53, 30
2, 80326, Note_on_c, 0, 53, 0
2, 80644, Note_on_c, 0, 77, 45
2, 80650, Control_c, 0, 64, 0
2, 80655, Note_on_c, 0, 50, 40
2, 80656, Note_on_c, 0, 65, 42
2, 80674, Note_on_c, 0, 56, 39
2, 80676, Note_on_c, 0, 72, 49
2, 80679, Note_on_c, 0, 60, 28
2, 80803, Note_on_c, 0, 50, 0
2, 80835, Control_c, 0, 64, 127
2, 80839, Note_on_c, 0, 65, 0
2, 80845, Note_on_c, 0, 56, 0
2, 80866, Note_on_c, 0, 72, 0
2, 80869, Note_on_c, 0, 77, 0
2, 80872, Note_on_c, 0, 60, 0
2, 81196, Control_c, 0, 64, 0
2, 81273, Note_on_c, 0, 79, 50
2, 81279, Note_on_c, 0, 71, 57
2, 81285, Note_on_c, 0, 67, 52
2, 81300, Note_on_c, 0, 59, 50
2, 81302, Note_on_c, 0, 63, 55
2, 81313, Note_on_c, 0, 53, 30
2, 81358, Note_on_c, 0, 67, 0
2, 81368, Note_on_c, 0, 63, 0
2, 81384, Note_on_c, 0, 59, 0
2, 81385, Note_on_c, 0, 71, 0
2, 81399, Note_on_c, 0, 79, 0
2, 81400, Note_on_c, 0, 53, 0
2, 81904, Control_c, 0, 64, 127
2, 82185, Note_on_c, 0, 75, 49
2, 82200, Note_on_c, 0, 63, 39
2, 82215, Note_on_c, 0, 70, 55
2, 82227, Note_on_c, 0, 48, 43
2, 82228, Note_on_c, 0, 55, 38
2, 82232, Control_c, 0, 64, 0
2, 82324, Note_on_c, 0, 55, 0
2, 82347, Note_on_c, 0, 63, 0
2, 82360, Note_on_c, 0, 48, 0
2, 82371, Note_on_c, 0, 70, 0
2, 82374, Note_on_c, 0, 75, 0
2, 83104, Note_on_c, 0, 31, 44
2, 83193, Control_c, 0, 64, 127
2, 83404, Note_on_c, 0, 31, 0
2, 83445, Control_c, 0, 64, 0
2, 83482, Note_on_c, 0, 24, 47
2, 83601, Control_c, 0, 64, 127
2, 83808, Note_on_c, 0, 24, 0
2, 85033, Control_c, 0, 64, 0
2, 85058, Note_on_c, 0, 75, 73
2, 85081, Note_on_c, 0, 70, 76
2, 85083, Note_on_c, 0, 66, 84
2, 85084, Note_on_c, 0, 72, 71
2, 85086, Note_on_c, 0, 58, 78
2, 85088, Note_on_c, 0, 48, 68
2, 85180, Control_c, 0, 64, 127
2, 85363, Note_on_c, 0, 75, 0
2, 85466, Note_on_c, 0, 58, 0
2, 85473, Note_on_c, 0, 48, 0
2, 85478, Note_on_c, 0, 72, 0
2, 85483, Note_on_c, 0, 66, 0
2, 85543, Note_on_c, 0, 70, 0
2, 85734, Control_c, 0, 64, 0
2, 85774, Note_on_c, 0, 72, 62
2, 85778, Note_on_c, 0, 77, 69
2, 85792, Note_on_c, 0, 51, 52
2, 85796, Note_on_c, 0, 66, 57
2, 85798, Note_on_c, 0, 57, 52
2, 85821, Note_on_c, 0, 75, 35
2, 85950, Control_c, 0, 64, 127
2, 86012, Note_on_c, 0, 77, 0
2, 86034, Note_on_c, 0, 57, 0
2, 86048, Note_on_c, 0, 72, 0
2, 86072, Note_on_c, 0, 75, 0
2, 86086, Note_on_c, 0, 66, 0
2, 86253, Note_on_c, 0, 51, 0
2, 86371, Control_c, 0, 64, 0
2, 86385, Note_on_c, 0, 73, 52
2, 86394, Note_on_c, 0, 61, 57
2, 86412, Note_on_c, 0, 65, 58
2, 86426, Note_on_c, 0, 68, 43
2, 86443, Note_on_c, 0, 56, 44
2, 86445, Note_on_c, 0, 46, 37
2, 86623, Control_c, 0, 64, 127
2, 86877, Note_on_c, 0, 56, 0
2, 86997, Note_on_c, 0, 53, 71
2, 87499, Note_on_c, 0, 53, 0
2, 87500, Note_on_c, 0, 46, 0
2, 87771, Note_on_c, 0, 61, 0
2, 87868, Note_on_c, 0, 65, 0
2, 87904, Note_on_c, 0, 46, 52
2, 87981, Note_on_c, 0, 73, 0
2, 87999, Note_on_c, 0, 46, 0
2, 88027, Note_on_c, 0, 68, 0
2, 88236, Control_c, 0, 64, 0
2, 88258, Note_on_c, 0, 48, 58
2, 88268, Note_on_c, 0, 68, 76
2, 88270, Note_on_c, 0, 72, 68
2, 88272, Note_on_c, 0, 36, 52
2, 88273, Note_on_c, 0, 63, 84
2, 88443, Control_c, 0, 64, 127
2, 88654, Note_on_c, 0, 63, 0
2, 88668, Note_on_c, 0, 48, 0
2, 88671, Note_on_c, 0, 36, 0
2, 88708, Note_on_c, 0, 72, 0
2, 88803, Note_on_c, 0, 68, 0
2, 88881, Note_on_c, 0, 63, 59
2, 88887, Note_on_c, 0, 72, 44
2, 88892, Note_on_c, 0, 48, 31
2, 88894, Note_on_c, 0, 36, 37
2, 88926, Note_on_c, 0, 68, 32
2, 88936, Note_on_c, 0, 72, 0
2, 88957, Note_on_c, 0, 48, 0
2, 88981, Note_on_c, 0, 36, 0
2, 89018, Note_on_c, 0, 63, 0
2, 89118, Note_on_c, 0, 68, 0
2, 89188, Control_c, 0, 64, 0
2, 89216, Note_on_c, 0, 68, 57
2, 89221, Note_on_c, 0, 73, 59
2, 89222, Note_on_c, 0, 61, 76
2, 89224, Note_on_c, 0, 46, 62
2, 89226, Note_on_c, 0, 65, 72
2, 89229, Note_on_c, 0, 34, 58
2, 89368, Control_c, 0, 64, 127
2, 89620, Note_on_c, 0, 34, 0
2, 89746, Note_on_c, 0, 61, 0
2, 89768, Note_on_c, 0, 65, 0
2, 89827, Note_on_c, 0, 68, 0
2, 89847, Note_on_c, 0, 34, 47
2, 89850, Note_on_c, 0, 73, 0
2, 89966, Note_on_c, 0, 46, 0
2, 90022, Note_on_c, 0, 34, 0
2, 90175, Control_c, 0, 64, 0
2, 90176, Note_on_c, 0, 75, 63
2, 90199, Note_on_c, 0, 44, 47
2, 90202, Note_on_c, 0, 63, 60
2, 90206, Note_on_c, 0, 32, 52
2, 90208, Note_on_c, 0, 68, 53
2, 90236, Note_on_c, 0, 72, 44
2, 90392, Control_c, 0, 64, 127
2, 90602, Note_on_c, 0, 72, 0
2, 90613, Note_on_c, 0, 63, 0
2, 90662, Note_on_c, 0, 68, 0
2, 90704, Note_on_c, 0, 75, 0
2, 90726, Note_on_c, 0, 32, 0
2, 90735, Note_on_c, 0, 44, 0
2, 91195, Note_on_c, 0, 77, 80
2, 91196, Note_on_c, 0, 73, 74
2, 91198, Note_on_c, 0, 43, 69
2, 91200, Note_on_c, 0, 31, 77
2, 91200, Note_on_c, 0, 70, 84
2, 91203, Control_c, 0, 64, 0
2, 91204, Note_on_c, 0, 65, 87
2, 91407, Control_c, 0, 64, 127
2, 91680, Note_on_c, 0, 65, 0
2, 91704, Note_on_c, 0, 31, 0
2, 91718, Note_on_c, 0, 77, 0
2, 91736, Note_on_c, 0, 73, 0
2, 91740, Note_on_c, 0, 43, 0
2, 91760, Note_on_c, 0, 70, 0
2, 92142, Control_c, 0, 64, 0
2, 92154, Note_on_c, 0, 75, 71
2, 92155, Note_on_c, 0, 79, 70
2, 92156, Note_on_c, 0, 41, 78
2, 92158, Note_on_c, 0, 72, 79
2, 92160, Note_on_c, 0, 29, 73
2, 92168, Note_on_c, 0, 67, 75
2, 92312, Control_c, 0, 64, 127
2, 92541, Note_on_c, 0, 67, 0
2, 92559, Note_on_c, 0, 79, 0
2, 92574, Note_on_c, 0, 29, 0
2, 92587, Note_on_c, 0, 72, 0
2, 92588, Note_on_c, 0, 41, 0
2, 92636, Note_on_c, 0, 75, 0
2, 93091, Note_on_c, 0, 80, 75
2, 93094, Control_c, 0, 64, 0
2, 93097, Note_on_c, 0, 73, 74
2, 93099, Note_on_c, 0, 77, 74
2, 93102, Note_on_c, 0, 68, 83
2, 93104, Note_on_c, 0, 27, 79
2, 93105, Note_on_c, 0, 39, 85
2, 93278, Control_c, 0, 64, 127
2, 93480, Note_on_c, 0, 68, 0
2, 93518, Note_on_c, 0, 73, 0
2, 93519, Note_on_c, 0, 77, 0
2, 93526, Note_on_c, 0, 39, 0
2, 93538, Note_on_c, 0, 27, 0
2, 93555, Note_on_c, 0, 80, 0
2, 94072, Note_on_c, 0, 82, 83
2, 94077, Note_on_c, 0, 37, 82
2, 94080, Note_on_c, 0, 75, 91
2, 94081, Note_on_c, 0, 25, 85
2, 94082, Note_on_c, 0, 79, 79
2, 94084, Note_on_c, 0, 70, 95
2, 94099, Control_c, 0, 64, 0
2, 94459, Control_c, 0, 64, 127
2, 95229, Control_c, 0, 64, 0
2, 95313, Note_on_c, 0, 70, 0
2, 95361, Note_on_c, 0, 75, 0
2, 95374, Note_on_c, 0, 79, 0
2, 95396, Note_on_c, 0, 82, 0
2, 95556, Note_on_c, 0, 25, 0
2, 95562, Note_on_c, 0, 43, 71
2, 95584, Note_on_c, 0, 37, 0
2, 95878, Note_on_c, 0, 43, 0
2, 95919, Note_on_c, 0, 36, 78
2, 95991, Control_c, 0, 64, 127
2, 96008, Note_on_c, 0, 36, 0
2, 96558, Note_on_c, 0, 67, 84
2, 96571, Note_on_c, 0, 83, 94
2, 96576, Note_on_c, 0, 72, 88
2, 96577, Note_on_c, 0, 79, 80
2, 96583, Note_on_c, 0, 76, 74
2, 96595, Note_on_c, 0, 77, 59
2, 96634, Note_on_c, 0, 77, 0
2, 96811, Note_on_c, 0, 83, 0
2, 96816, Note_on_c, 0, 79, 0
2, 96835, Note_on_c, 0, 72, 0
2, 96877, Note_on_c, 0, 76, 0
2, 96948, Note_on_c, 0, 76, 64
2, 96949, Note_on_c, 0, 71, 65
2, 96954, Control_c, 0, 64, 0
2, 96955, Note_on_c, 0, 81, 66
2, 96956, Note_on_c, 0, 67, 0
2, 96966, Note_on_c, 0, 65, 66
2, 97116, Note_on_c, 0, 65, 0
2, 97129, Note_on_c, 0, 81, 0
2, 97156, Note_on_c, 0, 71, 0
2, 97184, Note_on_c, 0, 76, 0
2, 97375, Control_c, 0, 64, 127
2, 97458, Control_c, 0, 64, 0
2, 97592, Note_on_c, 0, 79, 66
2, 97597, Note_on_c, 0, 64, 74
2, 97602, Note_on_c, 0, 74, 74
2, 97610, Note_on_c, 0, 69, 64
2, 97732, Note_on_c, 0, 64, 0
2, 97802, Note_on_c, 0, 69, 0
2, 97806, Note_on_c, 0, 79, 0
2, 97810, Note_on_c, 0, 74, 0
2, 97929, Control_c, 0, 64, 127
2, 98217, Control_c, 0, 64, 0
2, 98220, Note_on_c, 0, 76, 57
2, 98230, Note_on_c, 0, 67, 52
2, 98235, Note_on_c, 0, 69, 60
2, 98238, Note_on_c, 0, 72, 57
2, 98256, Note_on_c, 0, 60, 43
2, 98265, Control_c, 0, 64, 127
2, 98420, Note_on_c, 0, 67, 0
2, 98505, Note_on_c, 0, 69, 0
2, 98534, Note_on_c, 0, 76, 0
2, 98569, Note_on_c, 0, 72, 0
2, 98708, Note_on_c, 0, 60, 0
2, 98796, Control_c, 0, 64, 0
2, 98834, Note_on_c, 0, 54, 42
2, 98836, Note_on_c, 0, 74, 61
2, 98841, Note_on_c, 0, 64, 64
2, 98848, Note_on_c, 0, 69, 53
2, 98858, Note_on_c, 0, 60, 16
2, 98919, Note_on_c, 0, 60, 0
2, 98950, Control_c, 0, 64, 127
2, 98971, Note_on_c, 0, 54, 0
2, 98995, Note_on_c, 0, 64, 0
2, 99016, Note_on_c, 0, 74, 0
2, 99031, Note_on_c, 0, 69, 0
2, 99480, Note_on_c, 0, 52, 48
2, 99494, Note_on_c, 0, 71, 62
2, 99504, Note_on_c, 0, 62, 62
2, 99507, Note_on_c, 0, 67, 65
2, 99589, Control_c, 0, 64, 0
2, 99830, Control_c, 0, 64, 127
2, 100220, Note_on_c, 0, 52, 0
2, 100258, Note_on_c, 0, 71, 0
2, 100282, Note_on_c, 0, 67, 0
2, 100378, Note_on_c, 0, 62, 0
2, 100863, Control_c, 0, 64, 0
2, 100894, Note_on_c, 0, 55, 27
2, 100896, Note_on_c, 0, 67, 35
2, 100898, Note_on_c, 0, 60, 36
2, 100920, Note_on_c, 0, 64, 45
2, 101032, Control_c, 0, 64, 127
2, 101046, Note_on_c, 0, 55, 0
2, 101107, Note_on_c, 0, 60, 0
2, 101179, Note_on_c, 0, 64, 0
2, 101330, Note_on_c, 0, 67, 0
2, 101464, Control_c, 0, 64, 0
2, 101486, Note_on_c, 0, 57, 47
2, 101487, Note_on_c, 0, 66, 52
2, 101488, Note_on_c, 0, 64, 55
2, 101494, Note_on_c, 0, 47, 36
2, 101496, Note_on_c, 0, 69, 45
2, 101791, Control_c, 0, 64, 127
2, 101928, Note_on_c, 0, 64, 0
2, 101964, Note_on_c, 0, 57, 0
2, 102090, Note_on_c, 0, 66, 0
2, 102432, Note_on_c, 0, 63, 45
2, 102436, Note_on_c, 0, 66, 36
2, 102447, Note_on_c, 0, 59, 35
2, 102460, Note_on_c, 0, 51, 27
2, 102465, Note_on_c, 0, 57, 42
2, 102613, Note_on_c, 0, 51, 0
2, 102627, Note_on_c, 0, 47, 0
2, 102631, Note_on_c, 0, 57, 0
2, 102888, Note_on_c, 0, 59, 0
2, 103368, Note_on_c, 0, 47, 48
2, 103568, Note_on_c, 0, 63, 0
2, 103605, Control_c, 0, 64, 0
2, 103666, Note_on_c, 0, 47, 0
2, 103718, Note_on_c, 0, 66, 0
2, 103723, Note_on_c, 0, 40, 51
2, 103729, Note_on_c, 0, 69, 0
2, 103944, Control_c, 0, 64, 127
2, 104318, Note_on_c, 0, 52, 51
2, 104414, Note_on_c, 0, 40, 0
2, 104446, Note_on_c, 0, 52, 0
2, 104520, Control_c, 0, 64, 0
2, 104643, Note_on_c, 0, 62, 45
2, 104726, Note_on_c, 0, 62, 0
2, 104929, Control_c, 0, 64, 127
2, 104938, Note_on_c, 0, 67, 36
2, 105099, Note_on_c, 0, 67, 0
2, 105211, Note_on_c, 0, 71, 49
2, 105342, Note_on_c, 0, 71, 0
2, 105458, Control_c, 0, 64, 0
2, 105517, Note_on_c, 0, 73, 23
2, 105525, Note_on_c, 0, 57, 45
2, 105529, Note_on_c, 0, 74, 32
2, 105535, Note_on_c, 0, 62, 35
2, 105537, Note_on_c, 0, 67, 33
2, 105547, Note_on_c, 0, 71, 35
2, 105699, Note_on_c, 0, 57, 0
2, 105723, Note_on_c, 0, 74, 0
2, 105745, Note_on_c, 0, 62, 0
2, 105753, Note_on_c, 0, 67, 0
2, 105756, Note_on_c, 0, 73, 0
2, 105787, Note_on_c, 0, 71, 0
2, 105837, Note_on_c, 0, 74, 41
2, 105843, Note_on_c, 0, 62, 33
2, 105844, Note_on_c, 0, 71, 16
2, 105854, Note_on_c, 0, 67, 31
2, 105868, Note_on_c, 0, 57, 41
2, 105961, Note_on_c, 0, 57, 0
2, 105981, Note_on_c, 0, 62, 0
2, 105994, Note_on_c, 0, 67, 0
2, 106027, Note_on_c, 0, 71, 0
2, 106028, Note_on_c, 0, 74, 0
2, 106549, Note_on_c, 0, 74, 45
2, 106552, Note_on_c, 0, 71, 41
2, 106554, Note_on_c, 0, 67, 42
2, 106555, Note_on_c, 0, 62, 37
2, 106570, Note_on_c, 0, 57, 47
2, 106600, Control_c, 0, 64, 127
2, 107020, Note_on_c, 0, 62, 0
2, 107029, Note_on_c, 0, 57, 0
2, 107115, Note_on_c, 0, 67, 0
2, 107167, Note_on_c, 0, 71, 0
2, 107184, Note_on_c, 0, 74, 0
2, 107444, Control_c, 0, 64, 0
2, 107488, Note_on_c, 0, 59, 39
2, 107524, Note_on_c, 0, 76, 71
2, 107526, Note_on_c, 0, 60, 73
2, 107534, Note_on_c, 0, 72, 64
2, 107535, Note_on_c, 0, 69, 74
2, 107538, Note_on_c, 0, 65, 76
2, 107545, Note_on_c, 0, 59, 0
2, 107745, Note_on_c, 0, 72, 0
2, 107750, Note_on_c, 0, 76, 0
2, 107751, Note_on_c, 0, 69, 0
2, 107797, Note_on_c, 0, 65, 0
2, 107860, Note_on_c, 0, 60, 0
2, 108033, Control_c, 0, 64, 127
2, 108122, Note_on_c, 0, 72, 56
2, 108138, Note_on_c, 0, 57, 48
2, 108139, Note_on_c, 0, 65, 64
2, 108148, Note_on_c, 0, 62, 42
2, 108242, Note_on_c, 0, 72, 0
2, 108280, Note_on_c, 0, 65, 0
2, 108320, Note_on_c, 0, 62, 0
2, 108429, Control_c, 0, 64, 0
2, 108456, Note_on_c, 0, 57, 0
2, 108498, Note_on_c, 0, 69, 45
2, 108500, Note_on_c, 0, 53, 34
2, 108505, Note_on_c, 0, 65, 50
2, 108520, Note_on_c, 0, 60, 36
2, 108561, Control_c, 0, 64, 127
2, 108618, Note_on_c, 0, 53, 0
2, 108697, Note_on_c, 0, 69, 0
2, 108752, Note_on_c, 0, 60, 0
2, 108880, Note_on_c, 0, 65, 0
2, 109078, Control_c, 0, 64, 0
2, 109087, Note_on_c, 0, 68, 44
2, 109099, Note_on_c, 0, 60, 37
2, 109101, Note_on_c, 0, 63, 44
2, 109105, Note_on_c, 0, 65, 31
2, 109106, Note_on_c, 0, 56, 34
2, 109108, Note_on_c, 0, 46, 30
2, 109344, Control_c, 0, 64, 127
2, 109405, Note_on_c, 0, 56, 0
2, 109453, Note_on_c, 0, 46, 0
2, 109508, Note_on_c, 0, 60, 0
2, 109556, Note_on_c, 0, 65, 0
2, 109610, Note_on_c, 0, 68, 0
2, 109656, Note_on_c, 0, 63, 0
2, 110060, Note_on_c, 0, 67, 46
2, 110064, Note_on_c, 0, 59, 41
2, 110072, Note_on_c, 0, 62, 46
2, 110073, Note_on_c, 0, 64, 49
2, 110090, Control_c, 0, 64, 0
2, 110091, Note_on_c, 0, 46, 34
2, 110098, Note_on_c, 0, 56, 33
2, 110248, Note_on_c, 0, 56, 0
2, 110306, Control_c, 0, 64, 127
2, 110336, Note_on_c, 0, 46, 0
2, 110379, Note_on_c, 0, 67, 0
2, 110408, Note_on_c, 0, 59, 0
2, 110408, Note_on_c, 0, 64, 0
2, 110424, Note_on_c, 0, 62, 0
2, 110643, Control_c, 0, 64, 0
2, 110690, Note_on_c, 0, 66, 53
2, 110697, Note_on_c, 0, 61, 49
2, 110698, Note_on_c, 0, 40, 49
2, 110718, Note_on_c, 0, 47, 35
2, 110720, Note_on_c, 0, 54, 48
2, 110823, Control_c, 0, 64, 127
2, 110902, Note_on_c, 0, 40, 0
2, 110912, Note_on_c, 0, 47, 0
2, 111003, Note_on_c, 0, 54, 0
2, 111073, Note_on_c, 0, 61, 0
2, 111098, Note_on_c, 0, 66, 0
2, 111244, Control_c, 0, 64, 0
2, 111312, Note_on_c, 0, 67, 54
2, 111327, Note_on_c, 0, 62, 47
2, 111334, Note_on_c, 0, 55, 29
2, 111343, Note_on_c, 0, 46, 36
2, 111344, Note_on_c, 0, 39, 37
2, 111436, Control_c, 0, 64, 127
2, 111583, Note_on_c, 0, 55, 0
2, 111679, Note_on_c, 0, 67, 0
2, 111894, Note_on_c, 0, 62, 0
2, 112351, Note_on_c, 0, 68, 74
2, 112363, Note_on_c, 0, 62, 75
2, 112698, Note_on_c, 0, 39, 0
2, 112713, Note_on_c, 0, 46, 0
2, 112723, Note_on_c, 0, 62, 0
2, 112731, Note_on_c, 0, 68, 0
2, 112912, Note_on_c, 0, 61, 40
2, 112928, Note_on_c, 0, 67, 53
2, 113168, Control_c, 0, 64, 0
2, 113188, Note_on_c, 0, 61, 0
2, 113208, Note_on_c, 0, 67, 0
2, 113283, Note_on_c, 0, 60, 36
2, 113284, Note_on_c, 0, 65, 51
2, 113308, Note_on_c, 0, 37, 38
2, 113397, Control_c, 0, 64, 127
2, 113522, Note_on_c, 0, 65, 0
2, 113703, Note_on_c, 0, 60, 0
2, 113816, Note_on_c, 0, 37, 0
2, 113848, Note_on_c, 0, 44, 45
2, 113998, Note_on_c, 0, 44, 0
2, 114211, Note_on_c, 0, 68, 36
2, 114214, Note_on_c, 0, 65, 55
2, 114220, Note_on_c, 0, 72, 38
2, 114222, Note_on_c, 0, 60, 41
2, 114262, Control_c, 0, 64, 0
2, 114277, Note_on_c, 0, 72, 0
2, 114291, Note_on_c, 0, 60, 0
2, 114300, Note_on_c, 0, 68, 0
2, 114304, Note_on_c, 0, 65, 0
2, 114733, Control_c, 0, 64, 127
2, 114814, Note_on_c, 0, 47, 47
2, 115081, Control_c, 0, 64, 0
2, 115120, Note_on_c, 0, 47, 0
2, 115165, Note_on_c, 0, 48, 52
2, 115174, Note_on_c, 0, 63, 62
2, 115184, Note_on_c, 0, 58, 68
2, 115186, Note_on_c, 0, 55, 51
2, 115298, Control_c, 0, 64, 127
2, 115516, Note_on_c, 0, 48, 0
2, 115561, Note_on_c, 0, 55, 0
2, 115578, Note_on_c, 0, 58, 0
2, 115646, Note_on_c, 0, 63, 0
2, 115815, Note_on_c, 0, 65, 80
2, 115816, Note_on_c, 0, 58, 77
2, 115822, Note_on_c, 0, 48, 61
2, 115831, Note_on_c, 0, 55, 63
2, 115980, Note_on_c, 0, 48, 0
2, 116002, Note_on_c, 0, 55, 0
2, 116080, Note_on_c, 0, 58, 0
2, 116124, Note_on_c, 0, 65, 0
2, 116167, Note_on_c, 0, 63, 57
2, 116170, Note_on_c, 0, 58, 40
2, 116173, Note_on_c, 0, 48, 42
2, 116190, Note_on_c, 0, 55, 32
2, 116340, Note_on_c, 0, 55, 0
2, 116349, Note_on_c, 0, 48, 0
2, 116522, Note_on_c, 0, 58, 0
2, 116726, Note_on_c, 0, 63, 0
2, 116800, Control_c, 0, 64, 0
2, 116816, Note_on_c, 0, 47, 39
2, 116817, Note_on_c, 0, 62, 56
2, 116818, Note_on_c, 0, 57, 45
2, 116829, Note_on_c, 0, 35, 40
2, 116994, Control_c, 0, 64, 127
2, 117038, Note_on_c, 0, 35, 0
2, 117085, Note_on_c, 0, 57, 0
2, 117138, Note_on_c, 0, 47, 0
2, 117190, Note_on_c, 0, 62, 0
2, 117808, Note_on_c, 0, 74, 71
2, 117811, Note_on_c, 0, 66, 67
2, 117854, Note_on_c, 0, 57, 57
2, 117856, Note_on_c, 0, 62, 53
2, 117907, Control_c, 0, 64, 0
2, 118028, Control_c, 0, 64, 127
2, 118099, Note_on_c, 0, 62, 0
2, 118168, Note_on_c, 0, 57, 0
2, 118467, Note_on_c, 0, 74, 0
2, 118468, Note_on_c, 0, 66, 0
2, 118762, Note_on_c, 0, 53, 68
2, 118953, Control_c, 0, 64, 0
2, 119041, Note_on_c, 0, 53, 0
2, 119072, Note_on_c, 0, 46, 61
2, 119134, Control_c, 0, 64, 127
2, 119156, Note_on_c, 0, 46, 0
2, 119706, Note_on_c, 0, 61, 69
2, 119708, Note_on_c, 0, 85, 74
2, 119708, Note_on_c, 0, 73, 83
2, 119710, Note_on_c, 0, 80, 83
2, 119713, Note_on_c, 0, 60, 75
2, 119715, Note_on_c, 0, 56, 76
2, 119716, Note_on_c, 0, 65, 84
2, 119880, Note_on_c, 0, 73, 0
2, 119926, Note_on_c, 0, 56, 0
2, 119935, Note_on_c, 0, 85, 0
2, 119947, Note_on_c, 0, 65, 0
2, 119952, Note_on_c, 0, 80, 0
2, 119968, Note_on_c, 0, 61, 0
2, 119990, Note_on_c, 0, 60, 0
2, 120036, Note_on_c, 0, 65, 71
2, 120037, Note_on_c, 0, 56, 55
2, 120046, Note_on_c, 0, 87, 74
2, 120050, Note_on_c, 0, 61, 68
2, 120052, Note_on_c, 0, 60, 42
2, 120054, Note_on_c, 0, 75, 74
2, 120063, Note_on_c, 0, 82, 71
2, 120201, Note_on_c, 0, 87, 0
2, 120211, Note_on_c, 0, 56, 0
2, 120242, Note_on_c, 0, 75, 0
2, 120244, Note_on_c, 0, 65, 0
2, 120261, Note_on_c, 0, 61, 0
2, 120271, Note_on_c, 0, 82, 0
2, 120328, Note_on_c, 0, 87, 60
2, 120330, Note_on_c, 0, 75, 50
2, 120343, Note_on_c, 0, 82, 42
2, 120346, Note_on_c, 0, 61, 29
2, 120348, Note_on_c, 0, 65, 42
2, 120349, Note_on_c, 0, 56, 27
2, 120442, Note_on_c, 0, 87, 0
2, 120452, Note_on_c, 0, 56, 0
2, 120462, Note_on_c, 0, 65, 0
2, 120477, Note_on_c, 0, 75, 0
2, 120517, Note_on_c, 0, 60, 0
2, 120518, Note_on_c, 0, 82, 0
2, 120544, Note_on_c, 0, 61, 0
2, 120640, Note_on_c, 0, 85, 62
2, 120646, Note_on_c, 0, 56, 55
2, 120655, Note_on_c, 0, 73, 57
2, 120658, Note_on_c, 0, 65, 49
2, 120658, Note_on_c, 0, 80, 62
2, 120669, Note_on_c, 0, 61, 55
2, 120787, Note_on_c, 0, 65, 0
2, 120849, Note_on_c, 0, 80, 0
2, 120849, Note_on_c, 0, 85, 0
2, 120852, Note_on_c, 0, 73, 0
2, 120870, Note_on_c, 0, 56, 0
2, 120880, Note_on_c, 0, 61, 0
2, 120942, Control_c, 0, 64, 0
2, 121004, Note_on_c, 0, 60, 59
2, 121005, Note_on_c, 0, 72, 53
2, 121010, Note_on_c, 0, 84, 57
2, 121010, Note_on_c, 0, 55, 50
2, 121016, Note_on_c, 0, 79, 55
2, 121017, Note_on_c, 0, 63, 57
2, 121048, Note_on_c, 0, 72, 0
2, 121058, Note_on_c, 0, 63, 0
2, 121108, Control_c, 0, 64, 127
2, 121112, Note_on_c, 0, 60, 0
2, 121114, Note_on_c, 0, 79, 0
2, 121118, Note_on_c, 0, 55, 0
2, 121162, Note_on_c, 0, 84, 0
2, 121634, Note_on_c, 0, 56, 71
2, 121635, Note_on_c, 0, 92, 73
2, 121638, Note_on_c, 0, 44, 46
2, 121639, Note_on_c, 0, 80, 64
2, 121645, Note_on_c, 0, 84, 70
2, 121675, Control_c, 0, 64, 0
2, 121818, Control_c, 0, 64, 127
2, 121903, Control_c, 0, 64, 127
2, 122078, Note_on_c, 0, 92, 0
2, 122086, Note_on_c, 0, 84, 0
2, 122136, Note_on_c, 0, 80, 0
2, 122263, Note_on_c, 0, 44, 0
2, 122311, Note_on_c, 0, 56, 0
2, 122611, Note_on_c, 0, 44, 38
2, 122661, Note_on_c, 0, 44, 0
2, 122962, Control_c, 0, 64, 0
2, 122984, Note_on_c, 0, 54, 56
2, 122986, Note_on_c, 0, 60, 60
2, 122997, Control_c, 0, 64, 0
2, 123000, Note_on_c, 0, 38, 40
2, 123019, Note_on_c, 0, 50, 31
2, 123228, Control_c, 0, 64, 127
2, 123530, Note_on_c, 0, 54, 0
2, 123592, Note_on_c, 0, 60, 0
2, 123710, Note_on_c, 0, 50, 0
2, 123841, Control_c, 0, 64, 0
2, 123864, Note_on_c, 0, 38, 0
2, 123894, Note_on_c, 0, 43, 37
2, 123907, Note_on_c, 0, 53, 41
2, 123912, Note_on_c, 0, 62, 45
2, 123915, Note_on_c, 0, 59, 45
2, 124004, Note_on_c, 0, 43, 0
2, 124033, Control_c, 0, 64, 127
2, 124161, Note_on_c, 0, 62, 0
2, 124204, Note_on_c, 0, 53, 0
2, 124238, Note_on_c, 0, 59, 0
2, 124826, Control_c, 0, 64, 0
2, 124846, Note_on_c, 0, 59, 45
2, 124854, Note_on_c, 0, 52, 33
2, 124866, Note_on_c, 0, 24, 36
2, 124870, Note_on_c, 0, 55, 35
2, 124885, Note_on_c, 0, 36, 33
2, 125091, Control_c, 0, 64, 127
2, 125128, Note_on_c, 0, 52, 0
2, 125140, Note_on_c, 0, 55, 0
2, 125226, Note_on_c, 0, 24, 0
2, 125248, Note_on_c, 0, 59, 0
2, 125302, Note_on_c, 0, 36, 0
2, 125672, Control_c, 0, 64, 0
2, 125784, Note_on_c, 0, 55, 52
2, 125797, Note_on_c, 0, 71, 62
2, 125798, Note_on_c, 0, 67, 60
2, 125802, Note_on_c, 0, 64, 63
2, 125804, Note_on_c, 0, 62, 58
2, 126602, Note_on_c, 0, 71, 0
2, 126611, Note_on_c, 0, 67, 0
2, 126649, Note_on_c, 0, 62, 0
2, 126660, Note_on_c, 0, 55, 0
2, 126682, Note_on_c, 0, 64, 0
2, 126720, Note_on_c, 0, 36, 58
2, 126720, Note_on_c, 0, 86, 92
2, 126831, Note_on_c, 0, 36, 0
2, 126837, Control_c, 0, 64, 127
2, 127349, Note_on_c, 0, 64, 68
2, 127364, Note_on_c, 0, 60, 58
2, 127387, Note_on_c, 0, 59, 49
2, 127401, Note_on_c, 0, 64, 0
2, 127422, Note_on_c, 0, 60, 0
2, 127436, Note_on_c, 0, 59, 0
2, 127758, Note_on_c, 0, 86, 0
2, 127782, Note_on_c, 0, 83, 79
2, 128266, Note_on_c, 0, 83, 0
2, 128337, Note_on_c, 0, 79, 66
2, 128460, Note_on_c, 0, 79, 0
2, 128569, Control_c, 0, 64, 0
2, 128636, Note_on_c, 0, 41, 30
2, 128644, Note_on_c, 0, 86, 72
2, 128648, Note_on_c, 0, 57, 35
2, 128726, Control_c, 0, 64, 127
2, 128731, Note_on_c, 0, 41, 0
2, 128830, Note_on_c, 0, 57, 0
2, 129163, Note_on_c, 0, 86, 0
2, 129224, Note_on_c, 0, 83, 54
2, 129228, Note_on_c, 0, 74, 42
2, 129241, Note_on_c, 0, 57, 41
2, 129252, Note_on_c, 0, 63, 28
2, 129253, Note_on_c, 0, 79, 48
2, 129256, Note_on_c, 0, 62, 31
2, 129262, Note_on_c, 0, 67, 36
2, 129274, Note_on_c, 0, 65, 37
2, 129392, Note_on_c, 0, 65, 0
2, 129741, Note_on_c, 0, 67, 0
2, 129764, Note_on_c, 0, 62, 0
2, 129777, Note_on_c, 0, 63, 0
2, 129842, Note_on_c, 0, 57, 0
2, 129994, Note_on_c, 0, 74, 0
2, 130124, Note_on_c, 0, 79, 0
2, 130176, Note_on_c, 0, 74, 64
2, 130177, Note_on_c, 0, 83, 0
2, 130260, Note_on_c, 0, 74, 0
2, 130544, Control_c, 0, 64, 0
2, 130566, Note_on_c, 0, 59, 51
2, 130568, Note_on_c, 0, 62, 68
2, 130574, Note_on_c, 0, 52, 54
2, 130575, Note_on_c, 0, 55, 47
2, 130578, Note_on_c, 0, 86, 88
2, 130579, Note_on_c, 0, 79, 90
2, 130580, Note_on_c, 0, 74, 95
2, 130752, Control_c, 0, 64, 127
2, 130938, Note_on_c, 0, 79, 0
2, 130951, Note_on_c, 0, 74, 0
2, 131005, Note_on_c, 0, 86, 0
2, 131662, Note_on_c, 0, 62, 0
2, 131672, Note_on_c, 0, 55, 0
2, 131673, Note_on_c, 0, 52, 0
2, 131691, Note_on_c, 0, 59, 0
2, 131858, Note_on_c, 0, 84, 83
2, 131863, Note_on_c, 0, 81, 80
2, 132079, Note_on_c, 0, 81, 0
2, 132098, Note_on_c, 0, 84, 0
2, 132164, Note_on_c, 0, 83, 74
2, 132177, Note_on_c, 0, 79, 60
2, 132199, Note_on_c, 0, 84, 44
2, 132318, Note_on_c, 0, 83, 0
2, 132337, Note_on_c, 0, 79, 0
2, 132354, Note_on_c, 0, 84, 0
2, 132495, Control_c, 0, 64, 0
2, 132505, Note_on_c, 0, 64, 51
2, 132511, Note_on_c, 0, 54, 42
2, 132514, Note_on_c, 0, 60, 38
2, 132522, Note_on_c, 0, 78, 64
2, 132538, Note_on_c, 0, 81, 68
2, 132700, Control_c, 0, 64, 127
2, 132806, Note_on_c, 0, 64, 0
2, 132823, Note_on_c, 0, 60, 0
2, 132915, Note_on_c, 0, 54, 0
2, 132936, Note_on_c, 0, 78, 0
2, 133014, Note_on_c, 0, 81, 0
2, 133416, Note_on_c, 0, 78, 46
2, 133425, Note_on_c, 0, 71, 41
2, 133434, Control_c, 0, 64, 0
2, 133436, Note_on_c, 0, 57, 28
2, 133438, Note_on_c, 0, 47, 30
2, 133442, Note_on_c, 0, 75, 42
2, 133444, Note_on_c, 0, 51, 35
2, 133460, Note_on_c, 0, 54, 25
2, 133530, Note_on_c, 0, 54, 0
2, 133573, Note_on_c, 0, 47, 0
2, 133578, Control_c, 0, 64, 127
2, 133579, Note_on_c, 0, 51, 0
2, 133622, Note_on_c, 0, 57, 0
2, 133773, Note_on_c, 0, 71, 0
2, 133893, Note_on_c, 0, 75, 0
2, 133924, Note_on_c, 0, 78, 0
2, 134348, Control_c, 0, 64, 0
2, 134359, Note_on_c, 0, 47, 31
2, 134373, Note_on_c, 0, 40, 37
2, 134376, Note_on_c, 0, 79, 51
2, 134401, Note_on_c, 0, 74, 39
2, 134415, Note_on_c, 0, 67, 24
2, 134420, Note_on_c, 0, 55, 27
2, 134538, Note_on_c, 0, 40, 0
2, 134541, Control_c, 0, 64, 127
2, 134593, Note_on_c, 0, 47, 0
2, 134673, Note_on_c, 0, 55, 0
2, 134869, Note_on_c, 0, 79, 0
2, 134877, Note_on_c, 0, 67, 0
2, 135038, Note_on_c, 0, 74, 0
2, 135350, Note_on_c, 0, 62, 35
2, 135360, Note_on_c, 0, 59, 38
2, 135374, Note_on_c, 0, 52, 22
2, 135375, Note_on_c, 0, 55, 29
2, 135657, Note_on_c, 0, 55, 0
2, 135679, Note_on_c, 0, 52, 0
2, 135704, Note_on_c, 0, 59, 0
2, 135763, Note_on_c, 0, 62, 0
2, 136045, Note_on_c, 0, 68, 88
2, 136216, Note_on_c, 0, 68, 0
2, 136332, Note_on_c, 0, 64, 54
2, 136344, Control_c, 0, 64, 0
2, 136352, Note_on_c, 0, 60, 43
2, 136354, Note_on_c, 0, 71, 84
2, 136362, Note_on_c, 0, 57, 29
2, 136600, Note_on_c, 0, 71, 0
2, 136664, Note_on_c, 0, 68, 28
2, 136833, Note_on_c, 0, 64, 0
2, 136849, Note_on_c, 0, 68, 0
2, 136867, Note_on_c, 0, 69, 46
2, 136908, Note_on_c, 0, 60, 0
2, 137032, Note_on_c, 0, 69, 0
2, 137090, Control_c, 0, 64, 127
2, 137108, Note_on_c, 0, 70, 67
2, 137258, Note_on_c, 0, 70, 0
2, 137270, Control_c, 0, 64, 0
2, 137278, Note_on_c, 0, 64, 20
2, 137316, Note_on_c, 0, 60, 24
2, 137331, Note_on_c, 0, 71, 60
2, 137480, Note_on_c, 0, 71, 0
2, 137576, Note_on_c, 0, 72, 66
2, 137636, Note_on_c, 0, 60, 0
2, 137643, Control_c, 0, 64, 127
2, 137654, Note_on_c, 0, 57, 0
2, 137654, Note_on_c, 0, 64, 0
2, 137702, Note_on_c, 0, 72, 0
2, 137767, Note_on_c, 0, 76, 72
2, 137931, Note_on_c, 0, 76, 0
2, 138012, Note_on_c, 0, 77, 67
2, 138159, Note_on_c, 0, 77, 0
2, 138207, Control_c, 0, 64, 0
2, 138224, Note_on_c, 0, 79, 55
2, 138234, Note_on_c, 0, 72, 45
2, 138235, Note_on_c, 0, 68, 38
2, 138252, Note_on_c, 0, 67, 58
2, 138292, Note_on_c, 0, 75, 21
2, 138338, Note_on_c, 0, 79, 0
2, 138367, Note_on_c, 0, 68, 0
2, 138411, Note_on_c, 0, 75, 0
2, 138430, Note_on_c, 0, 72, 0
2, 138459, Note_on_c, 0, 67, 0
2, 138505, Note_on_c, 0, 66, 36
2, 138654, Note_on_c, 0, 66, 0
2, 138694, Note_on_c, 0, 77, 54
2, 138708, Note_on_c, 0, 72, 59
2, 138714, Note_on_c, 0, 68, 46
2, 138718, Note_on_c, 0, 65, 44
2, 138855, Note_on_c, 0, 77, 0
2, 138988, Note_on_c, 0, 68, 0
2, 139015, Note_on_c, 0, 72, 0
2, 139051, Control_c, 0, 64, 127
2, 139060, Note_on_c, 0, 65, 0
2, 139135, Control_c, 0, 64, 0
2, 139170, Note_on_c, 0, 79, 62
2, 139196, Note_on_c, 0, 72, 46
2, 139198, Note_on_c, 0, 67, 54
2, 139202, Note_on_c, 0, 68, 36
2, 139346, Note_on_c, 0, 79, 0
2, 139369, Note_on_c, 0, 68, 0
2, 139411, Control_c, 0, 64, 127
2, 139422, Note_on_c, 0, 67, 0
2, 139436, Note_on_c, 0, 72, 0
2, 139459, Note_on_c, 0, 66, 37
2, 139531, Control_c, 0, 64, 0
2, 139606, Note_on_c, 0, 66, 0
2, 139645, Note_on_c, 0, 77, 63
2, 139653, Note_on_c, 0, 65, 61
2, 139662, Note_on_c, 0, 72, 54
2, 139671, Note_on_c, 0, 68, 37
2, 139700, Control_c, 0, 64, 127
2, 139729, Note_on_c, 0, 65, 0
2, 139864, Note_on_c, 0, 77, 0
2, 139870, Note_on_c, 0, 68, 0
2, 139900, Note_on_c, 0, 72, 0
2, 140085, Control_c, 0, 64, 0
2, 140140, Note_on_c, 0, 71, 69
2, 140152, Note_on_c, 0, 62, 58
2, 140172, Note_on_c, 0, 67, 50
2, 140188, Note_on_c, 0, 56, 55
2, 140202, Note_on_c, 0, 46, 37
2, 140445, Control_c, 0, 64, 127
2, 140558, Note_on_c, 0, 56, 0
2, 140568, Note_on_c, 0, 62, 0
2, 140587, Note_on_c, 0, 67, 0
2, 140630, Note_on_c, 0, 67, 52
2, 140631, Note_on_c, 0, 62, 58
2, 140652, Note_on_c, 0, 56, 55
2, 140673, Control_c, 0, 64, 0
2, 140818, Control_c, 0, 64, 127
2, 140991, Note_on_c, 0, 56, 0
2, 141001, Note_on_c, 0, 67, 0
2, 141013, Note_on_c, 0, 62, 0
2, 141070, Control_c, 0, 64, 0
2, 141141, Note_on_c, 0, 66, 60
2, 141153, Note_on_c, 0, 56, 52
2, 141160, Note_on_c, 0, 62, 45
2, 141192, Control_c, 0, 64, 127
2, 141420, Note_on_c, 0, 62, 0
2, 141426, Note_on_c, 0, 56, 0
2, 141460, Note_on_c, 0, 46, 0
2, 141508, Note_on_c, 0, 71, 0
2, 141538, Note_on_c, 0, 66, 0
2, 141618, Note_on_c, 0, 62, 28
2, 141658, Note_on_c, 0, 46, 49
2, 141661, Note_on_c, 0, 62, 0
2, 141801, Note_on_c, 0, 46, 0
2, 142105, Control_c, 0, 64, 0
2, 142129, Note_on_c, 0, 65, 53
2, 142131, Note_on_c, 0, 58, 48
2, 142132, Note_on_c, 0, 55, 36
2, 142141, Note_on_c, 0, 62, 52
2, 142152, Note_on_c, 0, 39, 48
2, 142724, Note_on_c, 0, 47, 64
2, 142819, Note_on_c, 0, 62, 0
2, 142832, Note_on_c, 0, 55, 0
2, 142852, Control_c, 0, 64, 127
2, 142860, Note_on_c, 0, 58, 0
2, 143031, Control_c, 0, 64, 0
2, 143068, Note_on_c, 0, 65, 0
2, 143104, Note_on_c, 0, 47, 0
2, 143108, Note_on_c, 0, 62, 46
2, 143110, Note_on_c, 0, 58, 56
2, 143114, Note_on_c, 0, 55, 44
2, 143121, Note_on_c, 0, 48, 56
2, 143233, Note_on_c, 0, 39, 0
2, 143284, Control_c, 0, 64, 127
2, 143426, Note_on_c, 0, 48, 0
2, 143607, Note_on_c, 0, 62, 0
2, 143620, Note_on_c, 0, 55, 0
2, 143661, Note_on_c, 0, 58, 0
2, 144030, Control_c, 0, 64, 0
2, 144048, Note_on_c, 0, 37, 40
2, 144051, Note_on_c, 0, 56, 43
2, 144058, Note_on_c, 0, 60, 45
2, 144231, Note_on_c, 0, 37, 0
2, 144258, Control_c, 0, 64, 127
2, 144340, Note_on_c, 0, 56, 0
2, 144367, Note_on_c, 0, 60, 0
2, 145000, Note_on_c, 0, 63, 52
2, 145009, Note_on_c, 0, 60, 43
2, 145010, Note_on_c, 0, 65, 51
2, 145028, Control_c, 0, 64, 0
2, 145029, Note_on_c, 0, 53, 16
2, 145032, Note_on_c, 0, 56, 40
2, 145083, Note_on_c, 0, 65, 0
2, 145243, Note_on_c, 0, 67, 73
2, 145293, Control_c, 0, 64, 127
2, 145388, Note_on_c, 0, 67, 0
2, 145396, Note_on_c, 0, 63, 0
2, 145406, Note_on_c, 0, 60, 0
2, 145422, Note_on_c, 0, 53, 0
2, 145464, Note_on_c, 0, 68, 70
2, 145468, Note_on_c, 0, 56, 0
2, 145612, Note_on_c, 0, 68, 0
2, 145680, Note_on_c, 0, 70, 75
2, 145857, Control_c, 0, 64, 0
2, 145887, Note_on_c, 0, 70, 0
2, 145911, Note_on_c, 0, 58, 52
2, 145922, Note_on_c, 0, 55, 35
2, 145928, Note_on_c, 0, 67, 64
2, 145934, Note_on_c, 0, 48, 40
2, 146074, Control_c, 0, 64, 127
2, 146328, Note_on_c, 0, 58, 0
2, 146364, Note_on_c, 0, 55, 0
2, 146406, Note_on_c, 0, 48, 0
2, 146476, Note_on_c, 0, 67, 0
2, 147446, Control_c, 0, 64, 0
2, 147518, Note_on_c, 0, 74, 68
2, 147523, Note_on_c, 0, 77, 64
2, 147525, Note_on_c, 0, 67, 58
2, 147528, Note_on_c, 0, 70, 67
2, 147535, Note_on_c, 0, 63, 52
2, 147538, Note_on_c, 0, 65, 54
2, 147602, Control_c, 0, 64, 127
2, 147642, Note_on_c, 0, 67, 0
2, 147669, Note_on_c, 0, 65, 0
2, 147762, Note_on_c, 0, 77, 0
2, 147774, Note_on_c, 0, 63, 0
2, 147804, Note_on_c, 0, 70, 0
2, 147849, Note_on_c, 0, 74, 0
2, 147866, Control_c, 0, 64, 0
2, 147919, Note_on_c, 0, 66, 47
2, 147927, Note_on_c, 0, 64, 55
2, 147933, Note_on_c, 0, 73, 32
2, 147937, Note_on_c, 0, 76, 45
2, 147944, Note_on_c, 0, 69, 33
2, 147957, Note_on_c, 0, 62, 40
2, 148107, Control_c, 0, 64, 127
2, 148320, Note_on_c, 0, 69, 0
2, 148322, Note_on_c, 0, 62, 0
2, 148338, Note_on_c, 0, 66, 0
2, 148351, Note_on_c, 0, 64, 0
2, 148360, Note_on_c, 0, 76, 0
2, 148370, Note_on_c, 0, 73, 0
2, 148509, Note_on_c, 0, 66, 55
2, 148512, Note_on_c, 0, 73, 45
2, 148516, Note_on_c, 0, 76, 57
2, 148530, Note_on_c, 0, 69, 47
2, 148532, Note_on_c, 0, 64, 55
2, 148545, Note_on_c, 0, 62, 47
2, 148712, Note_on_c, 0, 69, 0
2, 148725, Note_on_c, 0, 66, 0
2, 148741, Note_on_c, 0, 62, 0
2, 148758, Note_on_c, 0, 64, 0
2, 148773, Note_on_c, 0, 76, 0
2, 148788, Note_on_c, 0, 73, 0
2, 148869, Note_on_c, 0, 73, 36
2, 148872, Note_on_c, 0, 66, 54
2, 148875, Note_on_c, 0, 76, 51
2, 148887, Note_on_c, 0, 69, 44
2, 148891, Note_on_c, 0, 64, 63
2, 148915, Note_on_c, 0, 62, 24
2, 149054, Note_on_c, 0, 76, 0
2, 149083, Note_on_c, 0, 69, 0
2, 149084, Note_on_c, 0, 64, 0
2, 149090, Note_on_c, 0, 62, 0
2, 149164, Note_on_c, 0, 66, 0
2, 149191, Note_on_c, 0, 73, 0
2, 149395, Control_c, 0, 64, 0
2, 149448, Note_on_c, 0, 68, 57
2, 149449, Note_on_c, 0, 61, 32
2, 149450, Note_on_c, 0, 75, 64
2, 149451, Note_on_c, 0, 63, 61
2, 149454, Note_on_c, 0, 65, 66
2, 149461, Note_on_c, 0, 72, 61
2, 149683, Control_c, 0, 64, 127
2, 149727, Note_on_c, 0, 65, 0
2, 149737, Note_on_c, 0, 68, 0
2, 149744, Note_on_c, 0, 72, 0
2, 149752, Note_on_c, 0, 63, 0
2, 149770, Note_on_c, 0, 61, 0
2, 149775, Note_on_c, 0, 75, 0
2, 149853, Note_on_c, 0, 68, 37
2, 149860, Note_on_c, 0, 63, 52
2, 149863, Note_on_c, 0, 61, 34
2, 149864, Note_on_c, 0, 65, 50
2, 149865, Note_on_c, 0, 75, 39
2, 149868, Note_on_c, 0, 72, 55
2, 149980, Note_on_c, 0, 65, 0
2, 150008, Note_on_c, 0, 68, 0
2, 150021, Note_on_c, 0, 72, 0
2, 150032, Note_on_c, 0, 63, 0
2, 150055, Note_on_c, 0, 61, 0
2, 150070, Note_on_c, 0, 75, 0
2, 150711, Control_c, 0, 64, 0
2, 150735, Note_on_c, 0, 75, 56
2, 150744, Note_on_c, 0, 70, 61
2, 150751, Note_on_c, 0, 67, 55
2, 150754, Note_on_c, 0, 63, 38
2, 150756, Note_on_c, 0, 64, 53
2, 150849, Note_on_c, 0, 63, 0
2, 150892, Control_c, 0, 64, 127
2, 150997, Note_on_c, 0, 64, 0
2, 151057, Note_on_c, 0, 75, 0
2, 151094, Note_on_c, 0, 67, 0
2, 151329, Note_on_c, 0, 70, 0
2, 151352, Note_on_c, 0, 51, 34
2, 151510, Note_on_c, 0, 51, 0
2, 151662, Control_c, 0, 64, 0
2, 151675, Note_on_c, 0, 72, 46
2, 151687, Note_on_c, 0, 60, 46
2, 151698, Note_on_c, 0, 44, 42
2, 151994, Note_on_c, 0, 52, 35
2, 152203, Control_c, 0, 64, 127
2, 152343, Note_on_c, 0, 52, 0
2, 152486, Note_on_c, 0, 60, 0
2, 152660, Note_on_c, 0, 63, 54
2, 152665, Note_on_c, 0, 53, 39
2, 152666, Note_on_c, 0, 60, 52
2, 152672, Control_c, 0, 64, 0
2, 152731, Note_on_c, 0, 72, 0
2, 152876, Control_c, 0, 64, 127
2, 153008, Note_on_c, 0, 44, 0
2, 153262, Note_on_c, 0, 53, 0
2, 153307, Note_on_c, 0, 51, 77
2, 153368, Note_on_c, 0, 60, 0
2, 153369, Note_on_c, 0, 63, 0
2, 153562, Control_c, 0, 64, 0
2, 153633, Note_on_c, 0, 68, 73
2, 153634, Note_on_c, 0, 51, 0
2, 153637, Note_on_c, 0, 65, 80
2, 153638, Note_on_c, 0, 60, 74
2, 153657, Note_on_c, 0, 50, 65
2, 153826, Control_c, 0, 64, 127
2, 154268, Note_on_c, 0, 38, 68
2, 154334, Note_on_c, 0, 65, 0
2, 154336, Note_on_c, 0, 60, 0
2, 154376, Note_on_c, 0, 38, 0
2, 154398, Note_on_c, 0, 50, 0
2, 154446, Note_on_c, 0, 68, 0
2, 155019, Note_on_c, 0, 65, 89
2, 155314, Note_on_c, 0, 60, 54
2, 155330, Note_on_c, 0, 65, 0
2, 155517, Note_on_c, 0, 60, 0
2, 155619, Control_c, 0, 64, 0
2, 155636, Note_on_c, 0, 63, 71
2, 155652, Note_on_c, 0, 43, 32
2, 155653, Note_on_c, 0, 53, 40
2, 155654, Note_on_c, 0, 59, 57
2, 155883, Control_c, 0, 64, 127
2, 156166, Note_on_c, 0, 59, 0
2, 156283, Note_on_c, 0, 53, 0
2, 156403, Note_on_c, 0, 63, 0
2, 156463, Note_on_c, 0, 43, 0
2, 156520, Control_c, 0, 64, 0
2, 156542, Note_on_c, 0, 56, 54
2, 156553, Note_on_c, 0, 47, 41
2, 156555, Note_on_c, 0, 62, 56
2, 156704, Note_on_c, 0, 47, 0
2, 156726, Control_c, 0, 64, 127
2, 156997, Note_on_c, 0, 56, 0
2, 157230, Note_on_c, 0, 62, 0
2, 157423, Control_c, 0, 64, 0
2, 157456, Note_on_c, 0, 43, 26
2, 157486, Note_on_c, 0, 36, 34
2, 157488, Note_on_c, 0, 52, 38
2, 157490, Note_on_c, 0, 55, 29
2, 157491, Note_on_c, 0, 64, 53
2, 157512, Note_on_c, 0, 59, 27
2, 157700, Control_c, 0, 64, 127
2, 157714, Note_on_c, 0, 55, 0
2, 157782, Note_on_c, 0, 59, 0
2, 157814, Note_on_c, 0, 64, 0
2, 157994, Note_on_c, 0, 52, 0
2, 158416, Note_on_c, 0, 74, 89
2, 158425, Note_on_c, 0, 67, 90
2, 158428, Note_on_c, 0, 52, 38
2, 158449, Note_on_c, 0, 36, 0
2, 158557, Note_on_c, 0, 43, 0
2, 158622, Note_on_c, 0, 52, 0
2, 158661, Note_on_c, 0, 74, 0
2, 158682, Note_on_c, 0, 67, 0
2, 158740, Note_on_c, 0, 71, 54
2, 158769, Note_on_c, 0, 64, 34
2, 158773, Note_on_c, 0, 62, 31
2, 158784, Note_on_c, 0, 67, 31
2, 158936, Note_on_c, 0, 62, 0
2, 159003, Note_on_c, 0, 64, 0
2, 159062, Note_on_c, 0, 67, 0
2, 159078, Note_on_c, 0, 71, 0
2, 159372, Control_c, 0, 64, 0
2, 159392, Note_on_c, 0, 41, 36
2, 159406, Note_on_c, 0, 48, 39
2, 159408, Note_on_c, 0, 57, 55
2, 159409, Note_on_c, 0, 74, 68
2, 159414, Note_on_c, 0, 63, 45
2, 159415, Note_on_c, 0, 67, 54
2, 159433, Note_on_c, 0, 71, 27
2, 159544, Note_on_c, 0, 71, 0
2, 159627, Control_c, 0, 64, 127
2, 159673, Note_on_c, 0, 74, 0
2, 159715, Note_on_c, 0, 71, 57
2, 159954, Note_on_c, 0, 63, 0
2, 159961, Note_on_c, 0, 57, 0
2, 159996, Note_on_c, 0, 67, 0
2, 160000, Note_on_c, 0, 71, 0
2, 160008, Note_on_c, 0, 48, 0
2, 160363, Note_on_c, 0, 41, 0
2, 160366, Note_on_c, 0, 74, 65
2, 160368, Note_on_c, 0, 48, 36
2, 160370, Note_on_c, 0, 57, 47
2, 160371, Note_on_c, 0, 63, 55
2, 160372, Note_on_c, 0, 67, 57
2, 160388, Note_on_c, 0, 71, 35
2, 160518, Note_on_c, 0, 48, 0
2, 160557, Note_on_c, 0, 71, 0
2, 160596, Note_on_c, 0, 57, 0
2, 160615, Note_on_c, 0, 74, 0
2, 160671, Note_on_c, 0, 71, 57
2, 160803, Note_on_c, 0, 63, 0
2, 160915, Note_on_c, 0, 71, 0
2, 160917, Note_on_c, 0, 67, 0
2, 161301, Note_on_c, 0, 71, 32
2, 161311, Note_on_c, 0, 67, 47
2, 161313, Note_on_c, 0, 74, 50
2, 161318, Note_on_c, 0, 64, 53
2, 161326, Control_c, 0, 64, 0
2, 161352, Note_on_c, 0, 59, 34
2, 161542, Control_c, 0, 64, 127
2, 161733, Note_on_c, 0, 71, 0
2, 161767, Note_on_c, 0, 59, 0
2, 161799, Note_on_c, 0, 74, 0
2, 161859, Note_on_c, 0, 67, 0
2, 161923, Note_on_c, 0, 64, 0
2, 162253, Control_c, 0, 64, 0
2, 162254, Note_on_c, 0, 72, 52
2, 162255, Note_on_c, 0, 64, 54
2, 162256, Note_on_c, 0, 57, 44
2, 162258, Note_on_c, 0, 67, 50
2, 162274, Note_on_c, 0, 69, 39
2, 162361, Control_c, 0, 64, 127
2, 162421, Note_on_c, 0, 57, 0
2, 162498, Note_on_c, 0, 72, 0
2, 162523, Note_on_c, 0, 69, 0
2, 162553, Note_on_c, 0, 67, 0
2, 162577, Note_on_c, 0, 64, 0
2, 163143, Control_c, 0, 64, 0
2, 163198, Note_on_c, 0, 71, 51
2, 163206, Note_on_c, 0, 66, 42
2, 163208, Note_on_c, 0, 64, 54
2, 163209, Note_on_c, 0, 42, 34
2, 163213, Note_on_c, 0, 60, 37
2, 163231, Note_on_c, 0, 52, 27
2, 163323, Control_c, 0, 64, 127
2, 163422, Note_on_c, 0, 42, 0
2, 163510, Note_on_c, 0, 52, 0
2, 163582, Note_on_c, 0, 64, 0
2, 163584, Note_on_c, 0, 60, 0
2, 163808, Note_on_c, 0, 66, 0
2, 163814, Note_on_c, 0, 71, 0
2, 164080, Control_c, 0, 64, 0
2, 164104, Note_on_c, 0, 69, 37
2, 164116, Note_on_c, 0, 59, 53
2, 164121, Note_on_c, 0, 51, 46
2, 164124, Note_on_c, 0, 66, 47
2, 164125, Note_on_c, 0, 63, 47
2, 164228, Note_on_c, 0, 51, 0
2, 164238, Control_c, 0, 64, 127
2, 164508, Note_on_c, 0, 59, 0
2, 164542, Note_on_c, 0, 69, 0
2, 164726, Note_on_c, 0, 66, 0
2, 164730, Note_on_c, 0, 63, 0
2, 165031, Control_c, 0, 64, 0
2, 165088, Note_on_c, 0, 67, 53
2, 165091, Note_on_c, 0, 59, 30
2, 165099, Note_on_c, 0, 62, 44
2, 165117, Note_on_c, 0, 52, 40
2, 165174, Note_on_c, 0, 59, 0
2, 165214, Note_on_c, 0, 62, 0
2, 165223, Control_c, 0, 64, 127
2, 165319, Note_on_c, 0, 67, 0
2, 166054, Control_c, 0, 64, 0
2, 166098, Note_on_c, 0, 70, 61
2, 166113, Note_on_c, 0, 59, 29
2, 166126, Note_on_c, 0, 62, 17
2, 166221, Note_on_c, 0, 52, 0
2, 166270, Note_on_c, 0, 70, 0
2, 166335, Note_on_c, 0, 59, 0
2, 166340, Note_on_c, 0, 62, 0
2, 166370, Note_on_c, 0, 71, 43
2, 166413, Control_c, 0, 64, 127
2, 166480, Note_on_c, 0, 71, 0
2, 166569, Note_on_c, 0, 76, 84
2, 166815, Note_on_c, 0, 76, 0
2, 166840, Note_on_c, 0, 71, 47
2, 166962, Note_on_c, 0, 71, 0
2, 166968, Control_c, 0, 64, 0
2, 167025, Note_on_c, 0, 64, 40
2, 167038, Note_on_c, 0, 74, 77
2, 167043, Note_on_c, 0, 57, 37
2, 167049, Note_on_c, 0, 60, 36
2, 167256, Control_c, 0, 64, 127
2, 167305, Note_on_c, 0, 74, 0
2, 167343, Note_on_c, 0, 72, 53
2, 167344, Note_on_c, 0, 64, 0
2, 167348, Note_on_c, 0, 60, 0
2, 167392, Note_on_c, 0, 74, 15
2, 167446, Note_on_c, 0, 57, 0
2, 167521, Note_on_c, 0, 74, 0
2, 167575, Note_on_c, 0, 72, 0
2, 167685, Note_on_c, 0, 69, 52
2, 167721, Note_on_c, 0, 64, 30
2, 167724, Note_on_c, 0, 62, 27
2, 167854, Note_on_c, 0, 62, 0
2, 167990, Control_c, 0, 64, 0
2, 168001, Note_on_c, 0, 57, 59
2, 168086, Control_c, 0, 64, 127
2, 168147, Note_on_c, 0, 57, 0
2, 168254, Note_on_c, 0, 69, 0
2, 168332, Note_on_c, 0, 64, 0
2, 168632, Note_on_c, 0, 48, 37
2, 168906, Note_on_c, 0, 48, 0
2, 168928, Control_c, 0, 64, 0
2, 168981, Note_on_c, 0, 60, 49
2, 168985, Note_on_c, 0, 56, 34
2, 168988, Note_on_c, 0, 41, 42
2, 168991, Note_on_c, 0, 51, 36
2, 169072, Control_c, 0, 64, 127
2, 169135, Note_on_c, 0, 41, 0
2, 169167, Note_on_c, 0, 56, 0
2, 169230, Note_on_c, 0, 51, 0
2, 169234, Note_on_c, 0, 60, 0
2, 169946, Note_on_c, 0, 63, 35
2, 169951, Control_c, 0, 64, 0
2, 169968, Note_on_c, 0, 53, 24
2, 169970, Note_on_c, 0, 56, 48
2, 169977, Note_on_c, 0, 60, 33
2, 170119, Control_c, 0, 64, 127
2, 170240, Note_on_c, 0, 67, 52
2, 170292, Note_on_c, 0, 53, 0
2, 170298, Note_on_c, 0, 60, 0
2, 170358, Note_on_c, 0, 56, 0
2, 170397, Note_on_c, 0, 67, 0
2, 170400, Note_on_c, 0, 63, 0
2, 170431, Note_on_c, 0, 68, 59
2, 170556, Note_on_c, 0, 68, 0
2, 170620, Note_on_c, 0, 70, 74
2, 170750, Note_on_c, 0, 70, 0
2, 170792, Note_on_c, 0, 72, 68
2, 170912, Control_c, 0, 64, 0
2, 170925, Note_on_c, 0, 72, 0
2, 170954, Note_on_c, 0, 74, 77
2, 170964, Note_on_c, 0, 67, 48
2, 170973, Note_on_c, 0, 56, 36
2, 170974, Note_on_c, 0, 62, 47
2, 171117, Control_c, 0, 64, 127
2, 171126, Note_on_c, 0, 67, 0
2, 171130, Note_on_c, 0, 62, 0
2, 171154, Note_on_c, 0, 74, 0
2, 171182, Note_on_c, 0, 75, 62
2, 171238, Note_on_c, 0, 56, 0
2, 171304, Note_on_c, 0, 75, 0
2, 171352, Note_on_c, 0, 77, 66
2, 171468, Note_on_c, 0, 77, 0
2, 171529, Note_on_c, 0, 79, 62
2, 171667, Note_on_c, 0, 79, 0
2, 171699, Note_on_c, 0, 80, 74
2, 171838, Control_c, 0, 64, 0
2, 171871, Note_on_c, 0, 82, 64
2, 171907, Note_on_c, 0, 46, 36
2, 171908, Note_on_c, 0, 56, 31
2, 171936, Note_on_c, 0, 80, 0
2, 171982, Note_on_c, 0, 82, 0
2, 172045, Note_on_c, 0, 84, 61
2, 172148, Note_on_c, 0, 84, 0
2, 172153, Control_c, 0, 64, 127
2, 172218, Note_on_c, 0, 86, 57
2, 172226, Note_on_c, 0, 46, 0
2, 172273, Note_on_c, 0, 56, 0
2, 172311, Note_on_c, 0, 86, 0
2, 172406, Note_on_c, 0, 87, 68
2, 172521, Note_on_c, 0, 87, 0
2, 172574, Note_on_c, 0, 88, 66
2, 172710, Note_on_c, 0, 88, 0
2, 172747, Note_on_c, 0, 89, 77
2, 172754, Control_c, 0, 64, 0
2, 172860, Note_on_c, 0, 51, 32
2, 172902, Note_on_c, 0, 89, 0
2, 172932, Note_on_c, 0, 86, 64
2, 173048, Note_on_c, 0, 86, 0
2, 173166, Note_on_c, 0, 82, 55
2, 173304, Note_on_c, 0, 82, 0
2, 173384, Note_on_c, 0, 79, 48
2, 173438, Control_c, 0, 64, 127
2, 173498, Note_on_c, 0, 79, 0
2, 173811, Control_c, 0, 64, 0
2, 173826, Note_on_c, 0, 62, 38
2, 173838, Note_on_c, 0, 58, 39
2, 173944, Control_c, 0, 64, 127
2, 174134, Note_on_c, 0, 51, 0
2, 174333, Note_on_c, 0, 62, 0
2, 174379, Note_on_c, 0, 51, 50
2, 174438, Note_on_c, 0, 58, 0
2, 174490, Note_on_c, 0, 51, 0
2, 174714, Control_c, 0, 64, 0
2, 174716, Note_on_c, 0, 84, 78
2, 174722, Note_on_c, 0, 77, 74
2, 174727, Note_on_c, 0, 72, 71
2, 174728, Note_on_c, 0, 80, 63
2, 174733, Note_on_c, 0, 49, 56
2, 174752, Note_on_c, 0, 60, 51
2, 174788, Note_on_c, 0, 83, 26
2, 174906, Control_c, 0, 64, 127
2, 174993, Note_on_c, 0, 83, 0
2, 175020, Note_on_c, 0, 84, 0
2, 175038, Note_on_c, 0, 77, 0
2, 175048, Note_on_c, 0, 80, 0
2, 175092, Note_on_c, 0, 72, 0
2, 175117, Note_on_c, 0, 60, 0
2, 175354, Note_on_c, 0, 80, 47
2, 175360, Note_on_c, 0, 77, 53
2, 175365, Note_on_c, 0, 60, 46
2, 175366, Note_on_c, 0, 73, 47
2, 175368, Note_on_c, 0, 68, 54
2, 175370, Note_on_c, 0, 56, 51
2, 175477, Note_on_c, 0, 77, 0
2, 175495, Note_on_c, 0, 73, 0
2, 175504, Note_on_c, 0, 60, 0
2, 175507, Note_on_c, 0, 68, 0
2, 175514, Note_on_c, 0, 80, 0
2, 175606, Note_on_c, 0, 56, 0
2, 175700, Control_c, 0, 64, 0
2, 175710, Note_on_c, 0, 77, 52
2, 175726, Note_on_c, 0, 56, 55
2, 175737, Note_on_c, 0, 65, 49
2, 175738, Note_on_c, 0, 60, 49
2, 175744, Note_on_c, 0, 72, 51
2, 175820, Control_c, 0, 64, 127
2, 175981, Note_on_c, 0, 49, 0
2, 176026, Note_on_c, 0, 65, 0
2, 176131, Note_on_c, 0, 72, 0
2, 176144, Note_on_c, 0, 77, 0
2, 176277, Note_on_c, 0, 60, 0
2, 176311, Note_on_c, 0, 49, 51
2, 176492, Note_on_c, 0, 49, 0
2, 176517, Note_on_c, 0, 56, 0
2, 176577, Control_c, 0, 64, 0
2, 176653, Note_on_c, 0, 82, 87
2, 176662, Note_on_c, 0, 70, 91
2, 176665, Note_on_c, 0, 58, 76
2, 176666, Note_on_c, 0, 75, 82
2, 176667, Note_on_c, 0, 79, 73
2, 176672, Note_on_c, 0, 48, 66
2, 176695, Note_on_c, 0, 55, 29
2, 176745, Note_on_c, 0, 55, 0
2, 176757, Control_c, 0, 64, 127
2, 176864, Note_on_c, 0, 79, 0
2, 176912, Note_on_c, 0, 82, 0
2, 176917, Note_on_c, 0, 70, 0
2, 176947, Note_on_c, 0, 75, 0
2, 177013, Note_on_c, 0, 58, 0
2, 177237, Note_on_c, 0, 55, 54
2, 177244, Note_on_c, 0, 75, 67
2, 177254, Note_on_c, 0, 78, 47
2, 177256, Note_on_c, 0, 67, 60
2, 177306, Note_on_c, 0, 67, 0
2, 177338, Note_on_c, 0, 78, 0
2, 177396, Note_on_c, 0, 75, 0
2, 177588, Control_c, 0, 64, 0
2, 177604, Note_on_c, 0, 75, 52
2, 177609, Note_on_c, 0, 58, 47
2, 177619, Note_on_c, 0, 63, 59
2, 177634, Note_on_c, 0, 55, 0
2, 177685, Control_c, 0, 64, 127
2, 177751, Note_on_c, 0, 58, 0
2, 177758, Note_on_c, 0, 63, 0
2, 177781, Note_on_c, 0, 48, 0
2, 177788, Note_on_c, 0, 75, 0
2, 178220, Note_on_c, 0, 74, 63
2, 178226, Control_c, 0, 64, 0
2, 178231, Note_on_c, 0, 47, 45
2, 178236, Note_on_c, 0, 66, 51
2, 178242, Note_on_c, 0, 62, 45
2, 178252, Note_on_c, 0, 69, 51
2, 178254, Note_on_c, 0, 57, 51
2, 178478, Control_c, 0, 64, 127
2, 178784, Note_on_c, 0, 57, 0
2, 178936, Note_on_c, 0, 62, 0
2, 178994, Note_on_c, 0, 69, 0
2, 179013, Note_on_c, 0, 66, 0
2, 179230, Note_on_c, 0, 66, 60
2, 179234, Note_on_c, 0, 57, 48
2, 179271, Note_on_c, 0, 62, 26
2, 179299, Note_on_c, 0, 74, 0
2, 179332, Control_c, 0, 64, 0
2, 179404, Control_c, 0, 64, 127
2, 179466, Note_on_c, 0, 57, 0
2, 179592, Note_on_c, 0, 47, 0
2, 179623, Note_on_c, 0, 62, 0
2, 179670, Note_on_c, 0, 66, 0
2, 179970, Control_c, 0, 64, 0
2, 180088, Control_c, 0, 64, 127
2, 180120, Note_on_c, 0, 35, 55
2, 180249, Note_on_c, 0, 35, 0
2, 180452, Control_c, 0, 64, 0
2, 180486, Note_on_c, 0, 61, 48
2, 180498, Note_on_c, 0, 56, 33
2, 180499, Note_on_c, 0, 34, 45
2, 180512, Note_on_c, 0, 65, 49
2, 180522, Note_on_c, 0, 46, 28
2, 180631, Control_c, 0, 64, 127
2, 180824, Note_on_c, 0, 34, 0
2, 180894, Note_on_c, 0, 46, 0
2, 180954, Note_on_c, 0, 56, 0
2, 180968, Note_on_c, 0, 65, 0
2, 181042, Note_on_c, 0, 61, 0
2, 181449, Control_c, 0, 64, 0
2, 181458, Note_on_c, 0, 63, 44
2, 181471, Note_on_c, 0, 55, 33
2, 181488, Note_on_c, 0, 61, 36
2, 181492, Note_on_c, 0, 51, 30
2, 181494, Note_on_c, 0, 59, 34
2, 181680, Note_on_c, 0, 51, 0
2, 181702, Control_c, 0, 64, 127
2, 181772, Note_on_c, 0, 59, 0
2, 181780, Note_on_c, 0, 55, 0
2, 181968, Note_on_c, 0, 61, 0
2, 182206, Note_on_c, 0, 63, 0
2, 182304, Control_c, 0, 64, 0
2, 182408, Note_on_c, 0, 58, 47
2, 182412, Note_on_c, 0, 53, 38
2, 182424, Note_on_c, 0, 60, 37
2, 182680, Note_on_c, 0, 44, 50
2, 183024, Note_on_c, 0, 50, 55
2, 183208, Note_on_c, 0, 53, 0
2, 183238, Note_on_c, 0, 63, 1
2, 183302, Note_on_c, 0, 60, 0
2, 183316, Note_on_c, 0, 50, 0
2, 183346, Note_on_c, 0, 58, 0
2, 183363, Note_on_c, 0, 51, 61
2, 183388, Note_on_c, 0, 63, 0
2, 183674, Control_c, 0, 64, 127
2, 183912, Control_c, 0, 64, 127
2, 183938, Note_on_c, 0, 51, 0
2, 183991, Note_on_c, 0, 53, 46
2, 184020, Control_c, 0, 64, 0
2, 184178, Note_on_c, 0, 53, 0
2, 184280, Note_on_c, 0, 44, 0
2, 184300, Control_c, 0, 64, 0
2, 184326, Note_on_c, 0, 56, 72
2, 184328, Note_on_c, 0, 55, 60
2, 184329, Note_on_c, 0, 65, 68
2, 184334, Note_on_c, 0, 60, 64
2, 184342, Note_on_c, 0, 62, 55
2, 184672, Control_c, 0, 64, 127
2, 184968, Note_on_c, 0, 62, 0
2, 184990, Note_on_c, 0, 56, 0
2, 185017, Note_on_c, 0, 60, 0
2, 185023, Note_on_c, 0, 55, 0
2, 185154, Note_on_c, 0, 65, 0
2, 185238, Control_c, 0, 64, 0
2, 185295, Note_on_c, 0, 43, 31
2, 185301, Note_on_c, 0, 56, 42
2, 185307, Note_on_c, 0, 62, 42
2, 185312, Note_on_c, 0, 53, 26
2, 185324, Note_on_c, 0, 59, 35
2, 185443, Control_c, 0, 64, 127
2, 185484, Note_on_c, 0, 53, 0
2, 185523, Note_on_c, 0, 43, 0
2, 185622, Note_on_c, 0, 56, 0
2, 185688, Note_on_c, 0, 59, 0
2, 185894, Note_on_c, 0, 62, 0
2, 186224, Control_c, 0, 64, 0
2, 186241, Note_on_c, 0, 64, 54
2, 186254, Note_on_c, 0, 59, 32
2, 186271, Note_on_c, 0, 55, 18
2, 186277, Note_on_c, 0, 48, 28
2, 186480, Note_on_c, 0, 48, 0
2, 186837, Note_on_c, 0, 42, 62
2, 187113, Note_on_c, 0, 55, 0
2, 187144, Note_on_c, 0, 64, 0
2, 187153, Note_on_c, 0, 59, 0
2, 187178, Note_on_c, 0, 42, 0
2, 187214, Note_on_c, 0, 43, 38
2, 188061, Note_on_c, 0, 43, 0
2, 188166, Note_on_c, 0, 41, 45
2, 188196, Control_c, 0, 64, 127
2, 188292, Note_on_c, 0, 41, 0
2, 189130, Note_on_c, 0, 64, 46
2, 189163, Note_on_c, 0, 60, 34
2, 189164, Note_on_c, 0, 53, 22
2, 189166, Note_on_c, 0, 57, 48
2, 189484, Note_on_c, 0, 69, 46
2, 189540, Note_on_c, 0, 64, 0
2, 189566, Note_on_c, 0, 60, 0
2, 189608, Note_on_c, 0, 69, 0
2, 189696, Note_on_c, 0, 57, 0
2, 189748, Note_on_c, 0, 53, 0
2, 189800, Note_on_c, 0, 81, 77
2, 189994, Note_on_c, 0, 81, 0
2, 190122, Control_c, 0, 64, 0
2, 190135, Note_on_c, 0, 83, 87
2, 190142, Note_on_c, 0, 62, 57
2, 190155, Note_on_c, 0, 52, 53
2, 190351, Control_c, 0, 64, 127
2, 190588, Note_on_c, 0, 62, 0
2, 190599, Note_on_c, 0, 83, 0
2, 191068, Note_on_c, 0, 79, 57
2, 191089, Note_on_c, 0, 62, 34
2, 191098, Note_on_c, 0, 59, 32
2, 191101, Note_on_c, 0, 67, 57
2, 191112, Note_on_c, 0, 74, 48
2, 191442, Note_on_c, 0, 59, 0
2, 191467, Note_on_c, 0, 62, 0
2, 191554, Note_on_c, 0, 52, 0
2, 191577, Note_on_c, 0, 79, 0
2, 191577, Note_on_c, 0, 74, 0
2, 191667, Note_on_c, 0, 67, 0
2, 192015, Note_on_c, 0, 77, 55
2, 192024, Control_c, 0, 64, 0
2, 192025, Note_on_c, 0, 50, 35
2, 192027, Note_on_c, 0, 60, 38
2, 192037, Note_on_c, 0, 65, 40
2, 192038, Note_on_c, 0, 57, 48
2, 192042, Note_on_c, 0, 72, 45
2, 192204, Control_c, 0, 64, 127
2, 192483, Note_on_c, 0, 77, 0
2, 192486, Note_on_c, 0, 60, 0
2, 192508, Note_on_c, 0, 72, 0
2, 192514, Note_on_c, 0, 57, 0
2, 192718, Note_on_c, 0, 65, 0
2, 192964, Note_on_c, 0, 60, 32
2, 192979, Note_on_c, 0, 57, 46
2, 193447, Note_on_c, 0, 60, 0
2, 193519, Note_on_c, 0, 57, 0
2, 193576, Note_on_c, 0, 50, 0
2, 193581, Note_on_c, 0, 69, 75
2, 193806, Note_on_c, 0, 69, 0
2, 193954, Note_on_c, 0, 71, 84
2, 193962, Note_on_c, 0, 48, 52
2, 193972, Control_c, 0, 64, 0
2, 194286, Control_c, 0, 64, 127
2, 194503, Note_on_c, 0, 71, 0
2, 194570, Note_on_c, 0, 55, 46
2, 194576, Note_on_c, 0, 72, 88
2, 194942, Note_on_c, 0, 67, 68
2, 194971, Note_on_c, 0, 59, 36
2, 195116, Note_on_c, 0, 48, 0
2, 195224, Note_on_c, 0, 59, 0
2, 195489, Note_on_c, 0, 67, 0
2, 195516, Note_on_c, 0, 48, 35
2, 195519, Note_on_c, 0, 55, 0
2, 195549, Note_on_c, 0, 62, 29
2, 195550, Note_on_c, 0, 64, 33
2, 195582, Note_on_c, 0, 72, 0
2, 195637, Note_on_c, 0, 62, 0
2, 195642, Note_on_c, 0, 64, 0
2, 195643, Note_on_c, 0, 48, 0
2, 195848, Control_c, 0, 64, 0
2, 195853, Note_on_c, 0, 61, 56
2, 195884, Note_on_c, 0, 65, 55
2, 195891, Note_on_c, 0, 56, 39
2, 195894, Note_on_c, 0, 46, 38
2, 196017, Control_c, 0, 64, 127
2, 196077, Note_on_c, 0, 46, 0
2, 196136, Note_on_c, 0, 56, 0
2, 196172, Note_on_c, 0, 60, 73
2, 196426, Control_c, 0, 64, 0
2, 196491, Note_on_c, 0, 58, 71
2, 196492, Note_on_c, 0, 60, 0
2, 196587, Note_on_c, 0, 65, 0
2, 196617, Note_on_c, 0, 61, 0
2, 196782, Note_on_c, 0, 58, 0
2, 196800, Note_on_c, 0, 60, 60
2, 196800, Note_on_c, 0, 61, 62
2, 196800, Note_on_c, 0, 65, 64
2, 197096, Note_on_c, 0, 65, 0
2, 197136, Note_on_c, 0, 61, 0
2, 197146, Control_c, 0, 64, 127
2, 197152, Note_on_c, 0, 60, 0
2, 197157, Note_on_c, 0, 58, 52
2, 197606, Note_on_c, 0, 58, 0
2, 197782, Note_on_c, 0, 63, 53
2, 197785, Control_c, 0, 64, 0
2, 197786, Note_on_c, 0, 60, 54
2, 197800, Note_on_c, 0, 56, 53
2, 198049, Control_c, 0, 64, 127
2, 198333, Note_on_c, 0, 56, 0
2, 198470, Note_on_c, 0, 60, 0
2, 198511, Note_on_c, 0, 63, 0
2, 198709, Note_on_c, 0, 63, 44
2, 198723, Note_on_c, 0, 56, 42
2, 198734, Note_on_c, 0, 60, 38
2, 198877, Note_on_c, 0, 56, 0
2, 199184, Note_on_c, 0, 63, 0
2, 199219, Note_on_c, 0, 60, 0
2, 199660, Control_c, 0, 64, 0
2, 199682, Note_on_c, 0, 59, 47
2, 199683, Note_on_c, 0, 43, 32
2, 199688, Note_on_c, 0, 63, 46
2, 199693, Note_on_c, 0, 67, 47
2, 199722, Note_on_c, 0, 53, 20
2, 200035, Control_c, 0, 64, 127
2, 200202, Note_on_c, 0, 53, 0
2, 200262, Note_on_c, 0, 67, 0
2, 200263, Note_on_c, 0, 59, 0
2, 200305, Note_on_c, 0, 63, 0
2, 200991, Note_on_c, 0, 68, 75
2, 201001, Note_on_c, 0, 63, 75
2, 201008, Control_c, 0, 64, 0
2, 201009, Note_on_c, 0, 59, 68
2, 201014, Note_on_c, 0, 53, 37
2, 201127, Note_on_c, 0, 59, 0
2, 201133, Note_on_c, 0, 53, 0
2, 201144, Note_on_c, 0, 68, 0
2, 201164, Note_on_c, 0, 63, 0
2, 201225, Note_on_c, 0, 43, 0
2, 201314, Note_on_c, 0, 50, 38
2, 201333, Control_c, 0, 64, 127
2, 201462, Note_on_c, 0, 50, 0
2, 201477, Control_c, 0, 64, 0
2, 201602, Note_on_c, 0, 56, 70
2, 201608, Note_on_c, 0, 67, 57
2, 201610, Note_on_c, 0, 55, 44
2, 201613, Note_on_c, 0, 60, 62
2, 201627, Note_on_c, 0, 63, 40
2, 201763, Note_on_c, 0, 56, 0
2, 201794, Note_on_c, 0, 67, 0
2, 201810, Note_on_c, 0, 60, 0
2, 201891, Note_on_c, 0, 63, 0
2, 201909, Note_on_c, 0, 55, 0
2, 201955, Note_on_c, 0, 54, 39
2, 202216, Note_on_c, 0, 54, 0
2, 202227, Note_on_c, 0, 56, 62
2, 202233, Note_on_c, 0, 65, 61
2, 202242, Note_on_c, 0, 63, 48
2, 202243, Note_on_c, 0, 60, 55
2, 202585, Control_c, 0, 64, 127
2, 203187, Note_on_c, 0, 51, 36
2, 203209, Note_on_c, 0, 63, 0
2, 203241, Note_on_c, 0, 56, 0
2, 203288, Note_on_c, 0, 60, 0
2, 203326, Note_on_c, 0, 65, 0
2, 203368, Note_on_c, 0, 51, 0
2, 203390, Control_c, 0, 64, 0
2, 203504, Note_on_c, 0, 65, 63
2, 203520, Note_on_c, 0, 56, 56
2, 203527, Note_on_c, 0, 60, 54
2, 203530, Note_on_c, 0, 50, 45
2, 203533, Note_on_c, 0, 62, 51
2, 203823, Control_c, 0, 64, 127
2, 203854, Note_on_c, 0, 62, 0
2, 203877, Note_on_c, 0, 60, 0
2, 203902, Note_on_c, 0, 56, 0
2, 203989, Note_on_c, 0, 65, 0
2, 204096, Note_on_c, 0, 50, 0
2, 204126, Note_on_c, 0, 43, 43
2, 204134, Note_on_c, 0, 56, 71
2, 204138, Note_on_c, 0, 67, 61
2, 204140, Note_on_c, 0, 53, 47
2, 204141, Note_on_c, 0, 60, 65
2, 204156, Note_on_c, 0, 62, 54
2, 204219, Control_c, 0, 64, 0
2, 204255, Control_c, 0, 64, 127
2, 204261, Note_on_c, 0, 53, 0
2, 204301, Note_on_c, 0, 43, 0
2, 204332, Note_on_c, 0, 67, 0
2, 204337, Note_on_c, 0, 56, 0
2, 204376, Note_on_c, 0, 60, 0
2, 204376, Control_c, 0, 64, 0
2, 204381, Note_on_c, 0, 62, 0
2, 205082, Note_on_c, 0, 63, 53
2, 205100, Note_on_c, 0, 48, 41
2, 205104, Note_on_c, 0, 36, 49
2, 205106, Note_on_c, 0, 58, 52
2, 205117, Note_on_c, 0, 60, 41
2, 205126, Note_on_c, 0, 55, 29
2, 205254, Control_c, 0, 64, 127
2, 205263, Note_on_c, 0, 55, 0
2, 205272, Note_on_c, 0, 36, 0
2, 205326, Note_on_c, 0, 60, 0
2, 205345, Note_on_c, 0, 58, 0
2, 205358, Note_on_c, 0, 63, 0
2, 205359, Note_on_c, 0, 48, 0
2, 206488, Note_on_c, 0, 84, 83
2, 206500, Note_on_c, 0, 72, 81
2, 207121, Note_on_c, 0, 84, 0
2, 207219, Note_on_c, 0, 72, 0
2, 207999, Note_on_c, 0, 87, 68
2, 208006, Note_on_c, 0, 75, 67
2, 208017, Note_on_c, 0, 67, 53
2, 208018, Note_on_c, 0, 63, 54
2, 208020, Note_on_c, 0, 82, 67
2, 208038, Note_on_c, 0, 58, 39
2, 208090, Note_on_c, 0, 67, 0
2, 208154, Note_on_c, 0, 75, 0
2, 208183, Note_on_c, 0, 87, 0
2, 208186, Note_on_c, 0, 58, 0
2, 208188, Note_on_c, 0, 63, 0
2, 208191, Note_on_c, 0, 82, 0
2, 208297, Control_c, 0, 64, 0
2, 208381, Note_on_c, 0, 89, 62
2, 208384, Note_on_c, 0, 66, 57
2, 208388, Note_on_c, 0, 84, 65
2, 208392, Note_on_c, 0, 63, 47
2, 208396, Note_on_c, 0, 77, 46
2, 208399, Note_on_c, 0, 57, 54
2, 208598, Control_c, 0, 64, 127
2, 208638, Note_on_c, 0, 89, 0
2, 208647, Note_on_c, 0, 57, 0
2, 208650, Note_on_c, 0, 77, 0
2, 208668, Note_on_c, 0, 84, 0
2, 208696, Note_on_c, 0, 63, 0
2, 208744, Note_on_c, 0, 66, 0
2, 208948, Note_on_c, 0, 85, 56
2, 208959, Control_c, 0, 64, 0
2, 208962, Note_on_c, 0, 61, 31
2, 208965, Note_on_c, 0, 73, 38
2, 208968, Note_on_c, 0, 65, 53
2, 208970, Note_on_c, 0, 56, 46
2, 208980, Note_on_c, 0, 60, 51
2, 209223, Control_c, 0, 64, 127
2, 209473, Note_on_c, 0, 60, 0
2, 209476, Note_on_c, 0, 56, 0
2, 209511, Note_on_c, 0, 65, 0
2, 209526, Note_on_c, 0, 85, 0
2, 209541, Note_on_c, 0, 61, 0
2, 209583, Note_on_c, 0, 73, 0
2, 209875, Note_on_c, 0, 65, 50
2, 209876, Note_on_c, 0, 85, 57
2, 209883, Note_on_c, 0, 73, 39
2, 209886, Note_on_c, 0, 61, 38
2, 209899, Note_on_c, 0, 56, 39
2, 209910, Note_on_c, 0, 60, 37
2, 210008, Control_c, 0, 64, 0
2, 210177, Note_on_c, 0, 65, 0
2, 210192, Note_on_c, 0, 85, 0
2, 210200, Control_c, 0, 64, 127
2, 210201, Note_on_c, 0, 60, 0
2, 210210, Note_on_c, 0, 56, 0
2, 210220, Note_on_c, 0, 73, 0
2, 210236, Note_on_c, 0, 61, 0
2, 211162, Control_c, 0, 64, 0
2, 211179, Note_on_c, 0, 68, 50
2, 211182, Note_on_c, 0, 63, 47
2, 211191, Note_on_c, 0, 72, 34
2, 211518, Note_on_c, 0, 60, 40
2, 211585, Control_c, 0, 64, 127
2, 211820, Note_on_c, 0, 63, 0
2, 211824, Note_on_c, 0, 48, 44
2, 211852, Note_on_c, 0, 68, 0
2, 211855, Note_on_c, 0, 72, 0
2, 211903, Note_on_c, 0, 48, 0
2, 211918, Note_on_c, 0, 60, 0
2, 212126, Control_c, 0, 64, 0
2, 212157, Note_on_c, 0, 73, 51
2, 212170, Note_on_c, 0, 61, 60
2, 212176, Note_on_c, 0, 65, 65
2, 212500, Note_on_c, 0, 58, 36
2, 212679, Control_c, 0, 64, 127
2, 212733, Note_on_c, 0, 65, 0
2, 212748, Note_on_c, 0, 61, 0
2, 212790, Note_on_c, 0, 46, 42
2, 212816, Note_on_c, 0, 73, 0
2, 212922, Note_on_c, 0, 58, 0
2, 213088, Control_c, 0, 64, 0
2, 213098, Note_on_c, 0, 46, 0
2, 213106, Note_on_c, 0, 75, 57
2, 213117, Note_on_c, 0, 63, 69
2, 213120, Note_on_c, 0, 68, 67
2, 213130, Note_on_c, 0, 72, 59
2, 213133, Note_on_c, 0, 56, 47
2, 213486, Control_c, 0, 64, 127
2, 213903, Note_on_c, 0, 56, 0
2, 213924, Note_on_c, 0, 68, 0
2, 213942, Note_on_c, 0, 63, 0
2, 213956, Note_on_c, 0, 72, 0
2, 214032, Note_on_c, 0, 75, 0
2, 214654, Note_on_c, 0, 43, 45
2, 214662, Note_on_c, 0, 77, 72
2, 214663, Note_on_c, 0, 55, 62
2, 214664, Note_on_c, 0, 70, 80
2, 214672, Note_on_c, 0, 74, 66
2, 214677, Note_on_c, 0, 65, 82
2, 214695, Note_on_c, 0, 76, 41
2, 214812, Note_on_c, 0, 74, 0
2, 214843, Note_on_c, 0, 65, 0
2, 214861, Note_on_c, 0, 77, 0
2, 214867, Note_on_c, 0, 43, 0
2, 214879, Note_on_c, 0, 70, 0
2, 214892, Note_on_c, 0, 76, 0
2, 214910, Note_on_c, 0, 55, 0
2, 215088, Control_c, 0, 64, 0
2, 215118, Note_on_c, 0, 79, 73
2, 215120, Note_on_c, 0, 75, 70
2, 215125, Note_on_c, 0, 72, 76
2, 215131, Note_on_c, 0, 53, 71
2, 215132, Note_on_c, 0, 67, 73
2, 215134, Note_on_c, 0, 41, 71
2, 215283, Control_c, 0, 64, 127
2, 215536, Note_on_c, 0, 53, 0
2, 215540, Note_on_c, 0, 67, 0
2, 215541, Note_on_c, 0, 79, 0
2, 215565, Note_on_c, 0, 41, 0
2, 215624, Note_on_c, 0, 72, 0
2, 215637, Note_on_c, 0, 75, 0
2, 216016, Control_c, 0, 64, 0
2, 216073, Note_on_c, 0, 80, 59
2, 216080, Note_on_c, 0, 75, 60
2, 216081, Note_on_c, 0, 39, 55
2, 216086, Note_on_c, 0, 51, 44
2, 216092, Note_on_c, 0, 68, 49
2, 216092, Note_on_c, 0, 72, 58
2, 216186, Control_c, 0, 64, 127
2, 216195, Note_on_c, 0, 72, 0
2, 216243, Note_on_c, 0, 68, 0
2, 216253, Note_on_c, 0, 75, 0
2, 216274, Note_on_c, 0, 80, 0
2, 216291, Note_on_c, 0, 51, 0
2, 216320, Note_on_c, 0, 39, 0
2, 216685, Note_on_c, 0, 82, 82
2, 216691, Control_c, 0, 64, 0
2, 216692, Note_on_c, 0, 75, 87
2, 216692, Note_on_c, 0, 49, 85
2, 216697, Note_on_c, 0, 37, 81
2, 216702, Note_on_c, 0, 79, 75
2, 216703, Note_on_c, 0, 71, 85
2, 216955, Control_c, 0, 64, 127
2, 217580, Note_on_c, 0, 71, 0
2, 217693, Note_on_c, 0, 37, 0
2, 217707, Note_on_c, 0, 75, 0
2, 217712, Note_on_c, 0, 79, 0
2, 217740, Note_on_c, 0, 49, 0
2, 217792, Note_on_c, 0, 82, 0
2, 218556, Note_on_c, 0, 43, 44
2, 218842, Control_c, 0, 64, 0
2, 218865, Note_on_c, 0, 43, 0
2, 218916, Note_on_c, 0, 36, 64
2, 218988, Control_c, 0, 64, 127
2, 219014, Note_on_c, 0, 36, 0
2, 219537, Note_on_c, 0, 83, 89
2, 219542, Note_on_c, 0, 72, 92
2, 219542, Note_on_c, 0, 67, 85
2, 219544, Note_on_c, 0, 79, 79
2, 219546, Note_on_c, 0, 76, 83
2, 219790, Note_on_c, 0, 83, 0
2, 219807, Note_on_c, 0, 72, 0
2, 219844, Note_on_c, 0, 79, 0
2, 219859, Note_on_c, 0, 76, 0
2, 219901, Control_c, 0, 64, 0
2, 219932, Note_on_c, 0, 76, 46
2, 219938, Note_on_c, 0, 71, 60
2, 219939, Note_on_c, 0, 81, 54
2, 219956, Note_on_c, 0, 65, 67
2, 219957, Note_on_c, 0, 67, 0
2, 220166, Control_c, 0, 64, 127
2, 220300, Note_on_c, 0, 81, 0
2, 220330, Note_on_c, 0, 65, 0
2, 220366, Note_on_c, 0, 76, 0
2, 220387, Note_on_c, 0, 71, 0
2, 220564, Note_on_c, 0, 79, 54
2, 220569, Note_on_c, 0, 69, 49
2, 220576, Note_on_c, 0, 74, 66
2, 220587, Note_on_c, 0, 64, 57
2, 220611, Control_c, 0, 64, 0
2, 220851, Control_c, 0, 64, 127
2, 220958, Note_on_c, 0, 79, 0
2, 220964, Note_on_c, 0, 74, 0
2, 220971, Note_on_c, 0, 64, 0
2, 220999, Note_on_c, 0, 69, 0
2, 221430, Control_c, 0, 64, 0
2, 221431, Note_on_c, 0, 64, 43
2, 221443, Note_on_c, 0, 76, 39
2, 221446, Note_on_c, 0, 72, 45
2, 221455, Note_on_c, 0, 69, 41
2, 221468, Note_on_c, 0, 65, 37
2, 221718, Control_c, 0, 64, 127
2, 221805, Note_on_c, 0, 76, 0
2, 221814, Note_on_c, 0, 72, 0
2, 221835, Note_on_c, 0, 69, 0
2, 221870, Note_on_c, 0, 65, 0
2, 222010, Note_on_c, 0, 64, 0
2, 222102, Note_on_c, 0, 74, 51
2, 222104, Note_on_c, 0, 60, 47
2, 222105, Note_on_c, 0, 69, 55
2, 222124, Note_on_c, 0, 65, 37
2, 222226, Note_on_c, 0, 60, 0
2, 222262, Note_on_c, 0, 69, 0
2, 222288, Note_on_c, 0, 65, 0
2, 222316, Note_on_c, 0, 74, 0
2, 222680, Control_c, 0, 64, 0
2, 222690, Note_on_c, 0, 55, 44
2, 222693, Note_on_c, 0, 71, 53
2, 222696, Note_on_c, 0, 62, 45
2, 222711, Note_on_c, 0, 67, 47
2, 222896, Control_c, 0, 64, 127
2, 223143, Note_on_c, 0, 55, 0
2, 223171, Note_on_c, 0, 71, 0
2, 223200, Note_on_c, 0, 67, 0
2, 223299, Note_on_c, 0, 62, 0
2, 223677, Control_c, 0, 64, 0
2, 223710, Note_on_c, 0, 45, 35
2, 223723, Note_on_c, 0, 55, 27
2, 223736, Note_on_c, 0, 60, 27
2, 223742, Note_on_c, 0, 64, 36
2, 223747, Note_on_c, 0, 67, 31
2, 223839, Note_on_c, 0, 45, 0
2, 223858, Control_c, 0, 64, 127
2, 223916, Note_on_c, 0, 60, 0
2, 223930, Note_on_c, 0, 55, 0
2, 223932, Note_on_c, 0, 64, 0
2, 224145, Note_on_c, 0, 67, 0
2, 224316, Control_c, 0, 64, 0
2, 224322, Note_on_c, 0, 59, 40
2, 224329, Note_on_c, 0, 57, 51
2, 224336, Note_on_c, 0, 64, 49
2, 224337, Note_on_c, 0, 69, 36
2, 224338, Note_on_c, 0, 66, 36
2, 224354, Note_on_c, 0, 47, 32
2, 224605, Control_c, 0, 64, 127
2, 224810, Note_on_c, 0, 64, 0
2, 224823, Note_on_c, 0, 57, 0
2, 224947, Note_on_c, 0, 59, 0
2, 224955, Note_on_c, 0, 66, 0
2, 225303, Note_on_c, 0, 63, 37
2, 225315, Note_on_c, 0, 59, 33
2, 225324, Note_on_c, 0, 66, 34
2, 225338, Note_on_c, 0, 57, 32
2, 225339, Note_on_c, 0, 51, 21
2, 225604, Note_on_c, 0, 57, 0
2, 225664, Note_on_c, 0, 51, 0
2, 225711, Note_on_c, 0, 47, 0
2, 226120, Control_c, 0, 64, 0
2, 226132, Control_c, 0, 64, 127
2, 226305, Note_on_c, 0, 47, 48
2, 226429, Note_on_c, 0, 69, 0
2, 226507, Note_on_c, 0, 66, 0
2, 226531, Note_on_c, 0, 59, 0
2, 226543, Note_on_c, 0, 63, 0
2, 226567, Note_on_c, 0, 47, 0
2, 226590, Control_c, 0, 64, 0
2, 226659, Note_on_c, 0, 40, 41
2, 226792, Control_c, 0, 64, 127
2, 227257, Note_on_c, 0, 47, 43
2, 227281, Note_on_c, 0, 62, 32
2, 227334, Note_on_c, 0, 62, 0
2, 227431, Control_c, 0, 64, 0
2, 227672, Control_c, 0, 64, 127
2, 227892, Note_on_c, 0, 40, 0
2, 227913, Note_on_c, 0, 67, 52
2, 227960, Note_on_c, 0, 47, 0
2, 228050, Note_on_c, 0, 67, 0
2, 228176, Note_on_c, 0, 71, 72
2, 228315, Note_on_c, 0, 71, 0
2, 228429, Control_c, 0, 64, 0
2, 228494, Note_on_c, 0, 74, 55
2, 228500, Note_on_c, 0, 57, 40
2, 228501, Note_on_c, 0, 67, 49
2, 228504, Note_on_c, 0, 62, 46
2, 228517, Note_on_c, 0, 71, 58
2, 228801, Note_on_c, 0, 62, 0
2, 228802, Note_on_c, 0, 67, 0
2, 228831, Note_on_c, 0, 71, 0
2, 228835, Note_on_c, 0, 57, 0
2, 228836, Note_on_c, 0, 74, 0
2, 229455, Note_on_c, 0, 74, 47
2, 229467, Note_on_c, 0, 62, 38
2, 229468, Note_on_c, 0, 67, 47
2, 229477, Note_on_c, 0, 71, 40
2, 229498, Note_on_c, 0, 57, 38
2, 229524, Control_c, 0, 64, 127
2, 229712, Note_on_c, 0, 62, 0
2, 229782, Note_on_c, 0, 57, 0
2, 229842, Note_on_c, 0, 67, 0
2, 229894, Note_on_c, 0, 74, 0
2, 229903, Note_on_c, 0, 71, 0
2, 230054, Note_on_c, 0, 55, 38
2, 230116, Note_on_c, 0, 57, 62
2, 230176, Note_on_c, 0, 55, 0
2, 230192, Note_on_c, 0, 58, 67
2, 230282, Control_c, 0, 64, 0
2, 230306, Note_on_c, 0, 59, 76
2, 230332, Note_on_c, 0, 57, 0
2, 230352, Note_on_c, 0, 58, 0
2, 230385, Note_on_c, 0, 60, 91
2, 230400, Note_on_c, 0, 68, 67
2, 230408, Note_on_c, 0, 65, 54
2, 230425, Note_on_c, 0, 72, 67
2, 230432, Note_on_c, 0, 76, 66
2, 230434, Note_on_c, 0, 57, 26
2, 230466, Note_on_c, 0, 69, 68
2, 230475, Note_on_c, 0, 57, 0
2, 230476, Note_on_c, 0, 59, 0
2, 230480, Note_on_c, 0, 68, 0
2, 230594, Control_c, 0, 64, 127
2, 230965, Note_on_c, 0, 60, 0
2, 230970, Note_on_c, 0, 76, 0
2, 230976, Note_on_c, 0, 72, 0
2, 231014, Note_on_c, 0, 69, 0
2, 231039, Note_on_c, 0, 65, 0
2, 231292, Note_on_c, 0, 54, 33
2, 231303, Control_c, 0, 64, 0
2, 231367, Note_on_c, 0, 72, 45
2, 231386, Note_on_c, 0, 65, 49
2, 231390, Note_on_c, 0, 57, 47
2, 231392, Note_on_c, 0, 62, 32
2, 231396, Note_on_c, 0, 69, 33
2, 231424, Note_on_c, 0, 54, 0
2, 231496, Control_c, 0, 64, 127
2, 231552, Note_on_c, 0, 69, 0
2, 231604, Note_on_c, 0, 65, 0
2, 231613, Note_on_c, 0, 72, 0
2, 231650, Note_on_c, 0, 62, 0
2, 231876, Note_on_c, 0, 57, 0
2, 231949, Note_on_c, 0, 68, 46
2, 231960, Note_on_c, 0, 63, 44
2, 231966, Control_c, 0, 64, 0
2, 231967, Note_on_c, 0, 60, 36
2, 231974, Note_on_c, 0, 56, 45
2, 232206, Control_c, 0, 64, 127
2, 232220, Note_on_c, 0, 56, 0
2, 232411, Control_c, 0, 64, 0
2, 232501, Note_on_c, 0, 46, 55
2, 232567, Control_c, 0, 64, 127
2, 232939, Note_on_c, 0, 60, 0
2, 232998, Note_on_c, 0, 68, 0
2, 233054, Note_on_c, 0, 63, 0
2, 233169, Control_c, 0, 64, 0
2, 233199, Note_on_c, 0, 59, 40
2, 233200, Note_on_c, 0, 67, 45
2, 233209, Note_on_c, 0, 62, 44
2, 233212, Note_on_c, 0, 64, 42
2, 233217, Note_on_c, 0, 56, 44
2, 233373, Control_c, 0, 64, 127
2, 233420, Note_on_c, 0, 46, 0
2, 233817, Note_on_c, 0, 56, 0
2, 233847, Note_on_c, 0, 46, 84
2, 233866, Control_c, 0, 64, 0
2, 234037, Note_on_c, 0, 67, 0
2, 234070, Control_c, 0, 64, 127
2, 234099, Note_on_c, 0, 59, 0
2, 234138, Note_on_c, 0, 62, 0
2, 234165, Note_on_c, 0, 64, 0
2, 234576, Control_c, 0, 64, 0
2, 234588, Note_on_c, 0, 67, 71
2, 234591, Note_on_c, 0, 63, 74
2, 234594, Note_on_c, 0, 58, 77
2, 234597, Note_on_c, 0, 55, 61
2, 234841, Control_c, 0, 64, 127
2, 235134, Note_on_c, 0, 46, 0
2, 235161, Note_on_c, 0, 58, 0
2, 235214, Note_on_c, 0, 63, 0
2, 235232, Note_on_c, 0, 67, 0
2, 235263, Note_on_c, 0, 68, 60
2, 235268, Note_on_c, 0, 46, 51
2, 235287, Note_on_c, 0, 63, 72
2, 235292, Note_on_c, 0, 58, 54
2, 235341, Note_on_c, 0, 55, 0
2, 235389, Note_on_c, 0, 58, 0
2, 235418, Note_on_c, 0, 46, 0
2, 235426, Note_on_c, 0, 68, 0
2, 235456, Note_on_c, 0, 63, 0
2, 235807, Note_on_c, 0, 67, 56
2, 235942, Note_on_c, 0, 67, 0
2, 236115, Control_c, 0, 64, 0
2, 236162, Note_on_c, 0, 65, 58
2, 236168, Note_on_c, 0, 60, 58
2, 236208, Note_on_c, 0, 37, 47
2, 236343, Control_c, 0, 64, 127
2, 236546, Note_on_c, 0, 37, 0
2, 236748, Note_on_c, 0, 60, 0
2, 236781, Note_on_c, 0, 65, 0
2, 237171, Note_on_c, 0, 46, 20
2, 237235, Note_on_c, 0, 46, 0
2, 237843, Note_on_c, 0, 43, 33
2, 238027, Note_on_c, 0, 43, 0
2, 238116, Note_on_c, 0, 63, 42
2, 238124, Control_c, 0, 64, 0
2, 238146, Note_on_c, 0, 58, 46
2, 238155, Note_on_c, 0, 48, 42
2, 238170, Note_on_c, 0, 55, 24
2, 238184, Note_on_c, 0, 36, 34
2, 238316, Control_c, 0, 64, 127
2, 238332, Note_on_c, 0, 36, 0
2, 238900, Note_on_c, 0, 63, 0
2, 238983, Note_on_c, 0, 55, 0
2, 239108, Note_on_c, 0, 58, 0
2, 239140, Note_on_c, 0, 65, 60
2, 239210, Note_on_c, 0, 48, 0
2, 239290, Note_on_c, 0, 65, 0
2, 239748, Control_c, 0, 64, 0
2, 239749, Note_on_c, 0, 54, 44
2, 239762, Note_on_c, 0, 62, 50
2, 239767, Note_on_c, 0, 57, 58
2, 239776, Note_on_c, 0, 47, 42
2, 240025, Control_c, 0, 64, 127
2, 240740, Note_on_c, 0, 47, 0
2, 240788, Note_on_c, 0, 54, 0
2, 240793, Note_on_c, 0, 62, 0
2, 240804, Note_on_c, 0, 57, 0
2, 240963, Control_c, 0, 64, 0
2, 241012, Note_on_c, 0, 54, 42
2, 241027, Note_on_c, 0, 62, 40
2, 241029, Note_on_c, 0, 47, 37
2, 241042, Note_on_c, 0, 57, 41
2, 241059, Control_c, 0, 64, 127
2, 241212, Note_on_c, 0, 62, 0
2, 241231, Note_on_c, 0, 57, 0
2, 241276, Note_on_c, 0, 54, 0
2, 241581, Note_on_c, 0, 47, 0
2, 241612, Note_on_c, 0, 61, 49
2, 241636, Control_c, 0, 64, 0
2, 241641, Note_on_c, 0, 56, 62
2, 241641, Note_on_c, 0, 53, 48
2, 241644, Note_on_c, 0, 58, 57
2, 241656, Note_on_c, 0, 46, 50
2, 241938, Control_c, 0, 64, 127
2, 242199, Note_on_c, 0, 53, 0
2, 242266, Note_on_c, 0, 56, 0
2, 242277, Note_on_c, 0, 58, 0
2, 242300, Note_on_c, 0, 61, 0
2, 242563, Control_c, 0, 64, 0
2, 242574, Note_on_c, 0, 51, 65
2, 242576, Note_on_c, 0, 63, 77
2, 242580, Note_on_c, 0, 58, 78
2, 242586, Note_on_c, 0, 56, 79
2, 242588, Note_on_c, 0, 53, 79
2, 242677, Note_on_c, 0, 46, 0
2, 242787, Note_on_c, 0, 56, 0
2, 242794, Note_on_c, 0, 53, 0
2, 242872, Note_on_c, 0, 63, 0
2, 242876, Note_on_c, 0, 58, 0
2, 242924, Note_on_c, 0, 51, 0
2, 242949, Note_on_c, 0, 46, 46
2, 242964, Note_on_c, 0, 61, 54
2, 242968, Note_on_c, 0, 56, 56
2, 242976, Note_on_c, 0, 58, 43
2, 242990, Note_on_c, 0, 53, 40
2, 243068, Control_c, 0, 64, 127
2, 243098, Note_on_c, 0, 53, 0
2, 243169, Note_on_c, 0, 56, 0
2, 243170, Note_on_c, 0, 58, 0
2, 243441, Control_c, 0, 64, 0
2, 243538, Note_on_c, 0, 60, 65
2, 243542, Note_on_c, 0, 44, 46
2, 243543, Note_on_c, 0, 58, 62
2, 243546, Note_on_c, 0, 55, 48
2, 243602, Note_on_c, 0, 61, 0
2, 243627, Note_on_c, 0, 46, 0
2, 243727, Note_on_c, 0, 55, 0
2, 243736, Note_on_c, 0, 44, 0
2, 243795, Note_on_c, 0, 60, 0
2, 243816, Note_on_c, 0, 58, 0
2, 244053, Control_c, 0, 64, 127
2, 244498, Control_c, 0, 64, 0
2, 244501, Note_on_c, 0, 68, 59
2, 244506, Note_on_c, 0, 60, 64
2, 244507, Note_on_c, 0, 63, 60
2, 244515, Note_on_c, 0, 55, 45
2, 244518, Note_on_c, 0, 44, 48
2, 244636, Note_on_c, 0, 55, 0
2, 244687, Note_on_c, 0, 60, 0
2, 244705, Note_on_c, 0, 68, 0
2, 244746, Note_on_c, 0, 63, 0
2, 244786, Note_on_c, 0, 44, 0
2, 245422, Note_on_c, 0, 49, 44
2, 245433, Note_on_c, 0, 60, 64
2, 245437, Note_on_c, 0, 50, 53
2, 245439, Note_on_c, 0, 54, 52
2, 245448, Note_on_c, 0, 57, 60
2, 245522, Note_on_c, 0, 49, 0
2, 245774, Control_c, 0, 64, 127
2, 246316, Note_on_c, 0, 54, 0
2, 246327, Note_on_c, 0, 57, 0
2, 246387, Note_on_c, 0, 60, 0
2, 246424, Note_on_c, 0, 43, 30
2, 246441, Note_on_c, 0, 50, 0
2, 246627, Control_c, 0, 64, 0
2, 246718, Note_on_c, 0, 50, 50
2, 246726, Note_on_c, 0, 62, 55
2, 246732, Note_on_c, 0, 53, 44
2, 246741, Note_on_c, 0, 56, 47
2, 246748, Note_on_c, 0, 59, 38
2, 246777, Note_on_c, 0, 43, 0
2, 246782, Note_on_c, 0, 50, 0
2, 246834, Control_c, 0, 64, 127
2, 246975, Note_on_c, 0, 53, 0
2, 247042, Note_on_c, 0, 56, 0
2, 247090, Note_on_c, 0, 59, 0
2, 247627, Control_c, 0, 64, 0
2, 247662, Note_on_c, 0, 55, 37
2, 247664, Note_on_c, 0, 43, 24
2, 247666, Note_on_c, 0, 59, 47
2, 247668, Note_on_c, 0, 36, 33
2, 247677, Note_on_c, 0, 52, 43
2, 247831, Control_c, 0, 64, 127
2, 247962, Note_on_c, 0, 55, 0
2, 248095, Note_on_c, 0, 59, 0
2, 248134, Note_on_c, 0, 62, 0
2, 248467, Note_on_c, 0, 52, 0
2, 248580, Note_on_c, 0, 36, 0
2, 248704, Note_on_c, 0, 43, 0
2, 249404, Note_on_c, 0, 63, 44
2, 249417, Note_on_c, 0, 62, 53
2, 249510, Note_on_c, 0, 66, 57
2, 249544, Note_on_c, 0, 62, 0
2, 249576, Control_c, 0, 64, 0
2, 249602, Note_on_c, 0, 83, 80
2, 249603, Note_on_c, 0, 67, 88
2, 249608, Note_on_c, 0, 76, 81
2, 249610, Note_on_c, 0, 79, 75
2, 249615, Note_on_c, 0, 72, 76
2, 249620, Note_on_c, 0, 63, 0
2, 249644, Note_on_c, 0, 66, 0
2, 249891, Note_on_c, 0, 72, 0
2, 249919, Note_on_c, 0, 76, 0
2, 249939, Note_on_c, 0, 83, 0
2, 249943, Note_on_c, 0, 79, 0
2, 249944, Note_on_c, 0, 67, 0
2, 250280, Note_on_c, 0, 83, 61
2, 250282, Note_on_c, 0, 67, 60
2, 250285, Note_on_c, 0, 79, 47
2, 250287, Note_on_c, 0, 76, 53
2, 250288, Note_on_c, 0, 72, 44
2, 250336, Note_on_c, 0, 66, 25
2, 250447, Note_on_c, 0, 66, 0
2, 250634, Control_c, 0, 64, 127
2, 251066, Note_on_c, 0, 83, 0
2, 251106, Note_on_c, 0, 79, 0
2, 251130, Note_on_c, 0, 66, 55
2, 251144, Note_on_c, 0, 76, 0
2, 251160, Note_on_c, 0, 72, 0
2, 251222, Note_on_c, 0, 67, 0
2, 251312, Note_on_c, 0, 66, 0
2, 251318, Note_on_c, 0, 65, 67
2, 251451, Control_c, 0, 64, 0
2, 251481, Note_on_c, 0, 65, 0
2, 251524, Note_on_c, 0, 64, 36
2, 251530, Note_on_c, 0, 69, 49
2, 251536, Note_on_c, 0, 76, 44
2, 251544, Note_on_c, 0, 72, 43
2, 251551, Note_on_c, 0, 79, 54
2, 251776, Control_c, 0, 64, 127
2, 251869, Note_on_c, 0, 64, 0
2, 251905, Note_on_c, 0, 72, 0
2, 251906, Note_on_c, 0, 79, 0
2, 251913, Note_on_c, 0, 69, 0
2, 251948, Note_on_c, 0, 76, 0
2, 252175, Note_on_c, 0, 79, 36
2, 252176, Note_on_c, 0, 72, 47
2, 252177, Note_on_c, 0, 69, 33
2, 252180, Note_on_c, 0, 76, 45
2, 252181, Note_on_c, 0, 64, 53
2, 252244, Control_c, 0, 64, 0
2, 252582, Control_c, 0, 64, 127
2, 252834, Note_on_c, 0, 64, 0
2, 252853, Note_on_c, 0, 63, 55
2, 252914, Note_on_c, 0, 79, 0
2, 252933, Note_on_c, 0, 76, 0
2, 252957, Note_on_c, 0, 72, 0
2, 252964, Note_on_c, 0, 63, 0
2, 252966, Note_on_c, 0, 69, 0
2, 253053, Note_on_c, 0, 62, 38
2, 253208, Note_on_c, 0, 62, 0
2, 253267, Note_on_c, 0, 58, 37
2, 253348, Note_on_c, 0, 61, 5
2, 253352, Control_c, 0, 64, 0
2, 253438, Note_on_c, 0, 58, 0
2, 253462, Note_on_c, 0, 60, 56
2, 253465, Note_on_c, 0, 61, 0
2, 253467, Note_on_c, 0, 65, 57
2, 253472, Note_on_c, 0, 69, 55
2, 253473, Note_on_c, 0, 72, 50
2, 253474, Note_on_c, 0, 76, 48
2, 253748, Control_c, 0, 64, 127
2, 253893, Note_on_c, 0, 65, 0
2, 253911, Note_on_c, 0, 69, 0
2, 253940, Note_on_c, 0, 72, 0
2, 253947, Note_on_c, 0, 76, 0
2, 253970, Note_on_c, 0, 60, 0
2, 254040, Note_on_c, 0, 58, 23
2, 254110, Note_on_c, 0, 76, 49
2, 254112, Note_on_c, 0, 72, 48
2, 254115, Note_on_c, 0, 69, 42
2, 254121, Note_on_c, 0, 65, 44
2, 254139, Note_on_c, 0, 60, 32
2, 254157, Control_c, 0, 64, 0
2, 254158, Note_on_c, 0, 58, 0
2, 254445, Control_c, 0, 64, 127
2, 254679, Note_on_c, 0, 60, 0
2, 254842, Note_on_c, 0, 60, 52
2, 254854, Control_c, 0, 64, 0
2, 254880, Note_on_c, 0, 65, 0
2, 254899, Note_on_c, 0, 76, 0
2, 254900, Note_on_c, 0, 72, 0
2, 254904, Note_on_c, 0, 69, 0
2, 254976, Control_c, 0, 64, 127
2, 255010, Note_on_c, 0, 59, 36
2, 255052, Note_on_c, 0, 60, 0
2, 255184, Note_on_c, 0, 58, 51
2, 255192, Note_on_c, 0, 59, 0
2, 255282, Note_on_c, 0, 58, 0
2, 255361, Control_c, 0, 64, 0
2, 255388, Note_on_c, 0, 57, 41
2, 255402, Note_on_c, 0, 68, 35
2, 255404, Note_on_c, 0, 72, 41
2, 255406, Note_on_c, 0, 65, 55
2, 255411, Note_on_c, 0, 60, 31
2, 255432, Note_on_c, 0, 56, 74
2, 255438, Note_on_c, 0, 57, 0
2, 255853, Control_c, 0, 64, 127
2, 256262, Note_on_c, 0, 60, 0
2, 256340, Note_on_c, 0, 65, 0
2, 256396, Note_on_c, 0, 56, 0
2, 256477, Note_on_c, 0, 68, 0
2, 256593, Note_on_c, 0, 72, 0
2, 256902, Note_on_c, 0, 70, 67
2, 257133, Note_on_c, 0, 70, 0
2, 257190, Control_c, 0, 64, 0
2, 257224, Note_on_c, 0, 71, 62
2, 257235, Note_on_c, 0, 67, 54
2, 257241, Note_on_c, 0, 62, 50
2, 257245, Note_on_c, 0, 55, 40
2, 257430, Control_c, 0, 64, 127
2, 257551, Note_on_c, 0, 67, 0
2, 257674, Note_on_c, 0, 62, 0
2, 257811, Note_on_c, 0, 71, 0
2, 257854, Note_on_c, 0, 67, 42
2, 257965, Note_on_c, 0, 67, 0
2, 258151, Control_c, 0, 64, 0
2, 258168, Note_on_c, 0, 69, 50
2, 258170, Note_on_c, 0, 65, 40
2, 258175, Note_on_c, 0, 55, 0
2, 258181, Note_on_c, 0, 60, 36
2, 258205, Note_on_c, 0, 53, 30
2, 258403, Control_c, 0, 64, 127
2, 258542, Note_on_c, 0, 53, 0
2, 258596, Note_on_c, 0, 60, 0
2, 258636, Note_on_c, 0, 65, 0
2, 258793, Note_on_c, 0, 65, 11
2, 258796, Note_on_c, 0, 69, 0
2, 258838, Note_on_c, 0, 60, 24
2, 258942, Note_on_c, 0, 65, 0
2, 258998, Note_on_c, 0, 60, 0
2, 259113, Control_c, 0, 64, 0
2, 259142, Note_on_c, 0, 64, 53
2, 259144, Note_on_c, 0, 60, 40
2, 259148, Note_on_c, 0, 52, 41
2, 259153, Note_on_c, 0, 67, 46
2, 259341, Control_c, 0, 64, 127
2, 259609, Note_on_c, 0, 67, 0
2, 259616, Note_on_c, 0, 64, 0
2, 259702, Note_on_c, 0, 52, 0
2, 259708, Note_on_c, 0, 60, 0
2, 259809, Note_on_c, 0, 49, 25
2, 260065, Note_on_c, 0, 49, 0
2, 260076, Control_c, 0, 64, 0
2, 260112, Note_on_c, 0, 50, 44
2, 260116, Note_on_c, 0, 56, 33
2, 260127, Note_on_c, 0, 65, 45
2, 260132, Note_on_c, 0, 59, 37
2, 260143, Note_on_c, 0, 62, 39
2, 260304, Control_c, 0, 64, 127
2, 260708, Note_on_c, 0, 59, 0
2, 260727, Note_on_c, 0, 65, 0
2, 260736, Note_on_c, 0, 50, 0
2, 260781, Note_on_c, 0, 56, 0
2, 260808, Note_on_c, 0, 47, 43
2, 260977, Note_on_c, 0, 62, 0
2, 261062, Control_c, 0, 64, 0
2, 261086, Note_on_c, 0, 47, 0
2, 261111, Note_on_c, 0, 64, 74
2, 261112, Note_on_c, 0, 60, 74
2, 261114, Note_on_c, 0, 55, 68
2, 261116, Note_on_c, 0, 48, 78
2, 261531, Control_c, 0, 64, 127
2, 261588, Note_on_c, 0, 64, 0
2, 261682, Note_on_c, 0, 60, 0
2, 261786, Note_on_c, 0, 55, 0
2, 261794, Note_on_c, 0, 45, 45
2, 261805, Note_on_c, 0, 48, 0
2, 262036, Control_c, 0, 64, 0
2, 262077, Note_on_c, 0, 45, 0
2, 262112, Note_on_c, 0, 56, 50
2, 262117, Note_on_c, 0, 62, 54
2, 262122, Note_on_c, 0, 53, 40
2, 262126, Note_on_c, 0, 47, 35
2, 262140, Note_on_c, 0, 59, 39
2, 262665, Note_on_c, 0, 53, 0
2, 262672, Note_on_c, 0, 59, 0
2, 262734, Control_c, 0, 64, 127
2, 262736, Note_on_c, 0, 44, 32
2, 262737, Note_on_c, 0, 47, 0
2, 262770, Note_on_c, 0, 56, 0
2, 262918, Note_on_c, 0, 62, 0
2, 262950, Control_c, 0, 64, 0
2, 263014, Note_on_c, 0, 44, 0
2, 263044, Note_on_c, 0, 55, 48
2, 263054, Note_on_c, 0, 45, 40
2, 263058, Note_on_c, 0, 57, 55
2, 263062, Note_on_c, 0, 60, 53
2, 263150, Note_on_c, 0, 55, 0
2, 263155, Control_c, 0, 64, 127
2, 263206, Note_on_c, 0, 60, 0
2, 263216, Note_on_c, 0, 57, 0
2, 263240, Note_on_c, 0, 45, 0
2, 263534, Note_on_c, 0, 59, 37
2, 263616, Note_on_c, 0, 59, 0
2, 263654, Note_on_c, 0, 60, 40
2, 263702, Note_on_c, 0, 60, 0
2, 263756, Control_c, 0, 64, 0
2, 263757, Note_on_c, 0, 62, 34
2, 263797, Note_on_c, 0, 62, 0
2, 263838, Note_on_c, 0, 64, 40
2, 263886, Note_on_c, 0, 64, 0
2, 263919, Note_on_c, 0, 65, 46
2, 263971, Note_on_c, 0, 65, 0
2, 264016, Note_on_c, 0, 67, 41
2, 264063, Note_on_c, 0, 67, 0
2, 264111, Note_on_c, 0, 69, 35
2, 264164, Note_on_c, 0, 69, 0
2, 264177, Note_on_c, 0, 71, 42
2, 264230, Note_on_c, 0, 71, 0
2, 264292, Note_on_c, 0, 72, 37
2, 264349, Note_on_c, 0, 72, 0
2, 264374, Note_on_c, 0, 74, 40
2, 264424, Note_on_c, 0, 74, 0
2, 264463, Note_on_c, 0, 76, 34
2, 264536, Note_on_c, 0, 76, 0
2, 264559, Note_on_c, 0, 77, 42
2, 264626, Note_on_c, 0, 77, 0
2, 264673, Note_on_c, 0, 79, 36
2, 264717, Note_on_c, 0, 79, 0
2, 264760, Note_on_c, 0, 81, 38
2, 264807, Note_on_c, 0, 81, 0
2, 264825, Note_on_c, 0, 83, 45
2, 264877, Note_on_c, 0, 83, 0
2, 265161, Note_on_c, 0, 85, 23
2, 265318, Note_on_c, 0, 85, 0
2, 265550, Note_on_c, 0, 86, 77
2, 265552, Note_on_c, 0, 71, 91
2, 265558, Note_on_c, 0, 83, 74
2, 265560, Note_on_c, 0, 76, 81
2, 265561, Note_on_c, 0, 79, 80
2, 265888, Control_c, 0, 64, 127
2, 266008, Control_c, 0, 64, 127
2, 266354, Control_c, 0, 64, 0
2, 266359, Note_on_c, 0, 83, 0
2, 266383, Note_on_c, 0, 86, 0
2, 266391, Note_on_c, 0, 79, 0
2, 266442, Note_on_c, 0, 71, 0
2, 266454, Note_on_c, 0, 76, 0
2, 266460, Note_on_c, 0, 70, 38
2, 266529, Note_on_c, 0, 70, 0
2, 266592, Note_on_c, 0, 69, 57
2, 266736, Note_on_c, 0, 68, 37
2, 266742, Note_on_c, 0, 69, 0
2, 266863, Control_c, 0, 64, 0
2, 266892, Note_on_c, 0, 68, 0
2, 266905, Note_on_c, 0, 83, 65
2, 266910, Note_on_c, 0, 76, 60
2, 266914, Note_on_c, 0, 67, 60
2, 266916, Note_on_c, 0, 72, 45
2, 266924, Note_on_c, 0, 79, 55
2, 267028, Control_c, 0, 64, 127
2, 267115, Control_c, 0, 64, 127
2, 267346, Control_c, 0, 64, 0
2, 267475, Note_on_c, 0, 72, 0
2, 267591, Note_on_c, 0, 67, 0
2, 267596, Note_on_c, 0, 76, 0
2, 267604, Note_on_c, 0, 79, 0
2, 267668, Note_on_c, 0, 83, 0
2, 267861, Control_c, 0, 64, 0
2, 267892, Note_on_c, 0, 83, 58
2, 267908, Note_on_c, 0, 67, 47
2, 267910, Note_on_c, 0, 76, 44
2, 267913, Note_on_c, 0, 72, 31
2, 267922, Note_on_c, 0, 79, 44
2, 268065, Control_c, 0, 64, 127
2, 268269, Note_on_c, 0, 83, 0
2, 268290, Note_on_c, 0, 67, 0
2, 268327, Note_on_c, 0, 79, 0
2, 268393, Note_on_c, 0, 72, 0
2, 268406, Note_on_c, 0, 76, 0
2, 268798, Control_c, 0, 64, 0
2, 268800, Note_on_c, 0, 64, 50
2, 268808, Note_on_c, 0, 72, 45
2, 268813, Note_on_c, 0, 79, 46
2, 268814, Note_on_c, 0, 76, 59
2, 269160, Control_c, 0, 64, 127
2, 269200, Note_on_c, 0, 64, 0
2, 269398, Note_on_c, 0, 72, 0
2, 269474, Note_on_c, 0, 76, 0
2, 269476, Note_on_c, 0, 79, 0
2, 269701, Control_c, 0, 64, 0
2, 269744, Note_on_c, 0, 64, 46
2, 269756, Note_on_c, 0, 79, 47
2, 269762, Note_on_c, 0, 76, 42
2, 269763, Note_on_c, 0, 72, 49
2, 269766, Note_on_c, 0, 69, 37
2, 269905, Control_c, 0, 64, 127
2, 269959, Note_on_c, 0, 76, 0
2, 270009, Note_on_c, 0, 72, 0
2, 270014, Note_on_c, 0, 79, 0
2, 270018, Note_on_c, 0, 69, 0
2, 270231, Note_on_c, 0, 64, 0
2, 270387, Control_c, 0, 64, 0
2, 270420, Note_on_c, 0, 62, 49
2, 270426, Note_on_c, 0, 68, 42
2, 270427, Note_on_c, 0, 77, 47
2, 270441, Note_on_c, 0, 72, 44
2, 270477, Note_on_c, 0, 75, 31
2, 270562, Note_on_c, 0, 62, 0
2, 270714, Note_on_c, 0, 77, 0
2, 270715, Note_on_c, 0, 72, 0
2, 270716, Note_on_c, 0, 68, 0
2, 270794, Note_on_c, 0, 75, 0
2, 271746, Control_c, 0, 64, 127
2, 272302, Note_on_c, 0, 59, 40
2, 272309, Note_on_c, 0, 66, 57
2, 272319, Note_on_c, 0, 75, 54
2, 272326, Note_on_c, 0, 70, 54
2, 272422, Control_c, 0, 64, 0
2, 272511, Note_on_c, 0, 66, 0
2, 272565, Note_on_c, 0, 70, 0
2, 272569, Note_on_c, 0, 75, 0
2, 272612, Note_on_c, 0, 59, 0
2, 272661, Note_on_c, 0, 76, 63
2, 272664, Note_on_c, 0, 67, 57
2, 272666, Note_on_c, 0, 71, 60
2, 272677, Note_on_c, 0, 60, 42
2, 272820, Note_on_c, 0, 67, 0
2, 272822, Note_on_c, 0, 60, 0
2, 272899, Note_on_c, 0, 71, 0
2, 272912, Note_on_c, 0, 76, 0
2, 273623, Note_on_c, 0, 69, 94
2, 273626, Note_on_c, 0, 79, 88
2, 273629, Note_on_c, 0, 64, 84
2, 273630, Note_on_c, 0, 74, 84
2, 273638, Control_c, 0, 64, 127
2, 273693, Control_c, 0, 64, 0
2, 273831, Control_c, 0, 64, 127
2, 274203, Note_on_c, 0, 74, 0
2, 274204, Note_on_c, 0, 79, 0
2, 274275, Note_on_c, 0, 69, 0
2, 274438, Control_c, 0, 64, 0
2, 274533, Note_on_c, 0, 64, 0
2, 274534, Note_on_c, 0, 77, 66
2, 274553, Note_on_c, 0, 69, 58
2, 274559, Note_on_c, 0, 62, 60
2, 274574, Note_on_c, 0, 72, 50
2, 274618, Control_c, 0, 64, 127
2, 274734, Note_on_c, 0, 69, 0
2, 274782, Note_on_c, 0, 77, 0
2, 274805, Note_on_c, 0, 72, 0
2, 275446, Control_c, 0, 64, 0
2, 275511, Note_on_c, 0, 65, 68
2, 275515, Note_on_c, 0, 81, 74
2, 275517, Note_on_c, 0, 74, 80
2, 275526, Note_on_c, 0, 77, 68
2, 275529, Note_on_c, 0, 72, 74
2, 275583, Note_on_c, 0, 62, 0
2, 275667, Control_c, 0, 64, 127
2, 275668, Note_on_c, 0, 65, 0
2, 275680, Note_on_c, 0, 72, 0
2, 275740, Note_on_c, 0, 74, 0
2, 275777, Note_on_c, 0, 77, 0
2, 275804, Note_on_c, 0, 81, 0
2, 276480, Control_c, 0, 64, 0
2, 276521, Note_on_c, 0, 72, 74
2, 276524, Note_on_c, 0, 88, 87
2, 276527, Note_on_c, 0, 81, 88
2, 276531, Note_on_c, 0, 84, 80
2, 276532, Note_on_c, 0, 77, 89
2, 276554, Note_on_c, 0, 86, 54
2, 276608, Note_on_c, 0, 86, 0
2, 276727, Control_c, 0, 64, 127
2, 276961, Note_on_c, 0, 81, 0
2, 276990, Note_on_c, 0, 84, 0
2, 277058, Note_on_c, 0, 77, 0
2, 277106, Note_on_c, 0, 88, 0
2, 277275, Note_on_c, 0, 72, 0
2, 277417, Control_c, 0, 64, 0
2, 277466, Note_on_c, 0, 88, 67
2, 277468, Note_on_c, 0, 80, 63
2, 277480, Note_on_c, 0, 67, 55
2, 277483, Note_on_c, 0, 83, 62
2, 277488, Note_on_c, 0, 77, 62
2, 277501, Control_c, 0, 64, 127
2, 277506, Note_on_c, 0, 86, 46
2, 277633, Note_on_c, 0, 88, 0
2, 277641, Note_on_c, 0, 83, 0
2, 277655, Note_on_c, 0, 86, 0
2, 277682, Note_on_c, 0, 80, 0
2, 277691, Note_on_c, 0, 77, 0
2, 277916, Note_on_c, 0, 67, 0
2, 278058, Note_on_c, 0, 84, 64
2, 278070, Note_on_c, 0, 79, 64
2, 278075, Note_on_c, 0, 64, 59
2, 278086, Note_on_c, 0, 74, 36
2, 278088, Note_on_c, 0, 81, 54
2, 278119, Note_on_c, 0, 76, 24
2, 278121, Control_c, 0, 64, 0
2, 278145, Note_on_c, 0, 74, 0
2, 278176, Note_on_c, 0, 76, 0
2, 278201, Note_on_c, 0, 64, 0
2, 278205, Note_on_c, 0, 81, 0
2, 278220, Note_on_c, 0, 79, 0
2, 278263, Note_on_c, 0, 84, 0
2, 278286, Control_c, 0, 64, 127
2, 278793, Note_on_c, 0, 83, 35
2, 278855, Note_on_c, 0, 84, 49
2, 278856, Note_on_c, 0, 83, 0
2, 278961, Note_on_c, 0, 86, 41
2, 278962, Note_on_c, 0, 84, 0
2, 279032, Note_on_c, 0, 86, 0
2, 279054, Note_on_c, 0, 88, 36
2, 279112, Note_on_c, 0, 88, 0
2, 279129, Note_on_c, 0, 89, 39
2, 279191, Note_on_c, 0, 89, 0
2, 279210, Note_on_c, 0, 91, 38
2, 279265, Note_on_c, 0, 91, 0
2, 279285, Note_on_c, 0, 93, 44
2, 279306, Control_c, 0, 64, 0
2, 279338, Note_on_c, 0, 93, 0
2, 279424, Note_on_c, 0, 95, 50
2, 279457, Note_on_c, 0, 24, 67
2, 279460, Note_on_c, 0, 96, 44
2, 279460, Note_on_c, 0, 36, 68
2, 279544, Note_on_c, 0, 95, 0
2, 279625, Note_on_c, 0, 96, 0
2, 279675, Note_on_c, 0, 36, 0
2, 279679, Note_on_c, 0, 24, 0
2, 279679, End_track
0, 0, End_of_file
