0, 0, Header, 1, 8, 384
1, 0, Start_track
1, 0, Title_t, "The Man that Got Away"
1, 0, Text_t, "dougmck@tpg.com.au             \012"
1, 0, System_exclusive, 5, 126, 127, 9, 1, 247
1, 0, System_exclusive, 8, 67, 115, 1, 17, 15, 89, 0, 247
1, 0, Time_signature, 4, 2, 24, 8
1, 0, Key_signature, 0, "major"
1, 0, Tempo, 750000
1, 0, End_track
2, 0, Start_track
2, 0, Title_t, "Track 1"
2, 0, Control_c, 0, 7, 101
2, 0, Control_c, 0, 10, 64
2, 0, End_track
3, 0, Start_track
3, 0, Title_t, "Piano"
3, 0, Control_c, 0, 7, 95
3, 8, Note_on_c, 0, 41, 42
3, 8, Note_on_c, 0, 57, 46
3, 8, Note_on_c, 0, 64, 46
3, 10, Note_on_c, 0, 69, 50
3, 12, Note_on_c, 0, 52, 34
3, 40, Control_c, 0, 64, 127
3, 266, Note_on_c, 0, 52, 0
3, 292, Note_on_c, 0, 57, 0
3, 310, Note_on_c, 0, 64, 0
3, 374, Note_on_c, 0, 57, 37
3, 376, Note_on_c, 0, 63, 37
3, 378, Note_on_c, 0, 51, 33
3, 434, Control_c, 0, 64, 0
3, 464, Note_on_c, 0, 57, 0
3, 468, Note_on_c, 0, 51, 0
3, 476, Note_on_c, 0, 63, 0
3, 498, Note_on_c, 0, 69, 0
3, 616, Note_on_c, 0, 69, 27
3, 618, Note_on_c, 0, 63, 42
3, 622, Note_on_c, 0, 51, 45
3, 624, Note_on_c, 0, 57, 33
3, 742, Control_c, 0, 64, 127
3, 852, Note_on_c, 0, 51, 0
3, 874, Note_on_c, 0, 63, 0
3, 896, Note_on_c, 0, 57, 0
3, 994, Note_on_c, 0, 51, 42
3, 996, Note_on_c, 0, 63, 43
3, 1002, Note_on_c, 0, 57, 41
3, 1082, Note_on_c, 0, 57, 0
3, 1088, Note_on_c, 0, 51, 0
3, 1098, Note_on_c, 0, 63, 0
3, 1098, Note_on_c, 0, 69, 0
3, 1120, Control_c, 0, 64, 0
3, 1132, Note_on_c, 0, 62, 54
3, 1136, Note_on_c, 0, 50, 43
3, 1138, Note_on_c, 0, 57, 34
3, 1160, Control_c, 0, 64, 127
3, 1196, Note_on_c, 0, 41, 0
3, 1290, Note_on_c, 0, 62, 0
3, 1356, Note_on_c, 0, 57, 0
3, 1374, Note_on_c, 0, 41, 33
3, 1388, Note_on_c, 0, 50, 0
3, 1414, Note_on_c, 0, 41, 0
3, 1498, Note_on_c, 0, 63, 64
3, 1504, Note_on_c, 0, 36, 44
3, 1504, Note_on_c, 0, 58, 57
3, 1506, Note_on_c, 0, 52, 44
3, 1506, Control_c, 0, 64, 0
3, 1506, Note_on_c, 0, 48, 33
3, 1612, Control_c, 0, 64, 127
3, 1850, Note_on_c, 0, 63, 0
3, 1896, Note_on_c, 0, 62, 48
3, 2008, Note_on_c, 0, 48, 0
3, 2030, Note_on_c, 0, 52, 0
3, 2036, Note_on_c, 0, 58, 0
3, 2042, Note_on_c, 0, 62, 0
3, 2130, Note_on_c, 0, 62, 53
3, 2132, Note_on_c, 0, 52, 41
3, 2134, Note_on_c, 0, 58, 44
3, 2140, Note_on_c, 0, 48, 35
3, 2514, Note_on_c, 0, 36, 0
3, 2546, Note_on_c, 0, 62, 0
3, 2550, Note_on_c, 0, 61, 56
3, 2790, Note_on_c, 0, 61, 0
3, 2832, Note_on_c, 0, 52, 0
3, 2874, Note_on_c, 0, 58, 0
3, 2898, Note_on_c, 0, 48, 0
3, 2914, Note_on_c, 0, 36, 54
3, 2922, Note_on_c, 0, 60, 57
3, 2928, Note_on_c, 0, 36, 0
3, 2934, Note_on_c, 0, 60, 0
3, 3062, Note_on_c, 0, 69, 80
3, 3062, Control_c, 0, 64, 0
3, 3062, Note_on_c, 0, 64, 80
3, 3064, Note_on_c, 0, 41, 58
3, 3066, Note_on_c, 0, 57, 74
3, 3068, Note_on_c, 0, 48, 53
3, 3068, Note_on_c, 0, 52, 63
3, 3136, Control_c, 0, 64, 127
3, 3296, Note_on_c, 0, 48, 0
3, 3328, Note_on_c, 0, 64, 0
3, 3372, Note_on_c, 0, 57, 0
3, 3376, Note_on_c, 0, 52, 0
3, 3400, Note_on_c, 0, 69, 0
3, 3440, Note_on_c, 0, 69, 37
3, 3448, Note_on_c, 0, 63, 45
3, 3450, Note_on_c, 0, 51, 40
3, 3452, Note_on_c, 0, 57, 36
3, 3564, Note_on_c, 0, 51, 0
3, 3574, Note_on_c, 0, 57, 0
3, 3576, Control_c, 0, 64, 0
3, 3576, Note_on_c, 0, 63, 0
3, 3604, Note_on_c, 0, 69, 0
3, 3692, Note_on_c, 0, 69, 36
3, 3694, Note_on_c, 0, 63, 42
3, 3696, Note_on_c, 0, 51, 38
3, 3698, Note_on_c, 0, 57, 35
3, 3796, Control_c, 0, 64, 127
3, 3906, Note_on_c, 0, 51, 0
3, 3944, Note_on_c, 0, 57, 0
3, 3960, Note_on_c, 0, 69, 0
3, 3978, Note_on_c, 0, 63, 0
3, 4088, Note_on_c, 0, 69, 37
3, 4094, Note_on_c, 0, 62, 37
3, 4096, Note_on_c, 0, 50, 38
3, 4100, Note_on_c, 0, 57, 30
3, 4102, Control_c, 0, 64, 0
3, 4186, Control_c, 0, 64, 127
3, 4252, Note_on_c, 0, 69, 0
3, 4258, Note_on_c, 0, 62, 0
3, 4300, Note_on_c, 0, 41, 0
3, 4384, Note_on_c, 0, 57, 0
3, 4434, Note_on_c, 0, 50, 0
3, 4446, Note_on_c, 0, 41, 32
3, 4448, Note_on_c, 0, 60, 41
3, 4464, Note_on_c, 0, 60, 0
3, 4470, Note_on_c, 0, 41, 0
3, 4582, Note_on_c, 0, 63, 33
3, 4590, Control_c, 0, 64, 0
3, 4592, Note_on_c, 0, 52, 24
3, 4592, Note_on_c, 0, 43, 33
3, 4596, Note_on_c, 0, 36, 30
3, 4598, Note_on_c, 0, 48, 20
3, 4598, Note_on_c, 0, 58, 29
3, 4690, Control_c, 0, 64, 127
3, 4862, Note_on_c, 0, 48, 0
3, 4866, Note_on_c, 0, 52, 0
3, 4892, Note_on_c, 0, 58, 0
3, 4906, Note_on_c, 0, 63, 0
3, 4976, Control_c, 0, 64, 0
3, 4978, Note_on_c, 0, 48, 30
3, 4980, Note_on_c, 0, 62, 32
3, 4990, Note_on_c, 0, 58, 15
3, 5030, Note_on_c, 0, 58, 0
3, 5032, Note_on_c, 0, 48, 0
3, 5050, Note_on_c, 0, 62, 0
3, 5058, Note_on_c, 0, 43, 0
3, 5064, Note_on_c, 0, 36, 0
3, 5210, Note_on_c, 0, 62, 35
3, 5212, Note_on_c, 0, 48, 25
3, 5214, Note_on_c, 0, 36, 30
3, 5214, Note_on_c, 0, 58, 27
3, 5216, Note_on_c, 0, 52, 26
3, 5254, Control_c, 0, 64, 127
3, 5408, Note_on_c, 0, 48, 0
3, 5426, Note_on_c, 0, 52, 0
3, 5430, Note_on_c, 0, 58, 0
3, 5482, Note_on_c, 0, 62, 0
3, 5608, Note_on_c, 0, 61, 29
3, 5608, Note_on_c, 0, 52, 28
3, 5608, Note_on_c, 0, 48, 24
3, 5614, Note_on_c, 0, 58, 31
3, 5776, Note_on_c, 0, 36, 0
3, 5794, Note_on_c, 0, 52, 0
3, 5840, Note_on_c, 0, 48, 0
3, 5844, Note_on_c, 0, 61, 0
3, 5850, Note_on_c, 0, 58, 0
3, 6004, Note_on_c, 0, 60, 44
3, 6062, Note_on_c, 0, 60, 0
3, 6136, Note_on_c, 0, 53, 34
3, 6138, Control_c, 0, 64, 0
3, 6142, Note_on_c, 0, 41, 31
3, 6142, Note_on_c, 0, 62, 32
3, 6146, Note_on_c, 0, 57, 28
3, 6150, Note_on_c, 0, 50, 27
3, 6152, Note_on_c, 0, 60, 37
3, 6202, Control_c, 0, 64, 127
3, 6302, Note_on_c, 0, 41, 0
3, 6378, Note_on_c, 0, 57, 0
3, 6384, Note_on_c, 0, 60, 0
3, 6386, Note_on_c, 0, 41, 24
3, 6398, Note_on_c, 0, 53, 0
3, 6412, Note_on_c, 0, 50, 0
3, 6498, Note_on_c, 0, 62, 0
3, 6518, Note_on_c, 0, 63, 52
3, 6520, Note_on_c, 0, 53, 40
3, 6520, Note_on_c, 0, 51, 42
3, 6524, Note_on_c, 0, 57, 42
3, 6530, Note_on_c, 0, 60, 40
3, 6634, Note_on_c, 0, 57, 0
3, 6644, Note_on_c, 0, 60, 0
3, 6648, Note_on_c, 0, 53, 0
3, 6652, Note_on_c, 0, 51, 0
3, 6664, Note_on_c, 0, 63, 0
3, 6770, Control_c, 0, 64, 0
3, 6776, Note_on_c, 0, 53, 44
3, 6776, Note_on_c, 0, 64, 51
3, 6780, Note_on_c, 0, 60, 54
3, 6780, Note_on_c, 0, 57, 49
3, 6790, Note_on_c, 0, 52, 28
3, 6862, Control_c, 0, 64, 127
3, 6962, Note_on_c, 0, 64, 0
3, 6966, Note_on_c, 0, 60, 0
3, 6972, Note_on_c, 0, 57, 0
3, 6976, Note_on_c, 0, 52, 0
3, 7008, Note_on_c, 0, 53, 0
3, 7144, Note_on_c, 0, 48, 32
3, 7148, Note_on_c, 0, 60, 48
3, 7150, Note_on_c, 0, 52, 29
3, 7152, Note_on_c, 0, 55, 52
3, 7152, Note_on_c, 0, 57, 34
3, 7176, Control_c, 0, 64, 0
3, 7282, Control_c, 0, 64, 127
3, 7390, Note_on_c, 0, 41, 0
3, 7530, Note_on_c, 0, 41, 44
3, 7538, Note_on_c, 0, 52, 0
3, 7540, Note_on_c, 0, 57, 0
3, 7544, Note_on_c, 0, 55, 0
3, 7554, Note_on_c, 0, 60, 0
3, 7636, Note_on_c, 0, 48, 0
3, 7664, Control_c, 0, 64, 0
3, 7664, Note_on_c, 0, 60, 75
3, 7666, Note_on_c, 0, 50, 66
3, 7668, Note_on_c, 0, 62, 71
3, 7668, Note_on_c, 0, 53, 75
3, 7670, Note_on_c, 0, 57, 73
3, 7786, Control_c, 0, 64, 127
3, 7828, Note_on_c, 0, 41, 0
3, 7910, Note_on_c, 0, 41, 39
3, 7920, Note_on_c, 0, 60, 0
3, 7932, Note_on_c, 0, 62, 0
3, 7936, Note_on_c, 0, 57, 0
3, 7942, Note_on_c, 0, 50, 0
3, 7950, Note_on_c, 0, 53, 0
3, 8046, Control_c, 0, 64, 0
3, 8056, Note_on_c, 0, 63, 35
3, 8058, Note_on_c, 0, 57, 44
3, 8058, Note_on_c, 0, 51, 38
3, 8060, Note_on_c, 0, 53, 35
3, 8064, Note_on_c, 0, 60, 50
3, 8094, Note_on_c, 0, 53, 0
3, 8098, Note_on_c, 0, 57, 0
3, 8106, Note_on_c, 0, 60, 0
3, 8140, Control_c, 0, 64, 127
3, 8202, Note_on_c, 0, 41, 0
3, 8218, Note_on_c, 0, 53, 1
3, 8280, Note_on_c, 0, 51, 0
3, 8290, Note_on_c, 0, 53, 0
3, 8292, Note_on_c, 0, 41, 37
3, 8316, Note_on_c, 0, 63, 0
3, 8402, Control_c, 0, 64, 0
3, 8430, Note_on_c, 0, 64, 40
3, 8432, Note_on_c, 0, 55, 36
3, 8432, Note_on_c, 0, 52, 34
3, 8432, Note_on_c, 0, 60, 47
3, 8434, Note_on_c, 0, 57, 42
3, 8444, Control_c, 0, 64, 127
3, 8512, Note_on_c, 0, 60, 0
3, 8520, Note_on_c, 0, 64, 0
3, 8524, Note_on_c, 0, 57, 0
3, 8544, Note_on_c, 0, 55, 0
3, 8552, Note_on_c, 0, 52, 0
3, 8552, Note_on_c, 0, 41, 0
3, 8676, Note_on_c, 0, 60, 38
3, 8676, Note_on_c, 0, 41, 27
3, 8680, Note_on_c, 0, 55, 44
3, 8684, Note_on_c, 0, 57, 34
3, 8686, Note_on_c, 0, 52, 18
3, 8688, Note_on_c, 0, 48, 24
3, 8700, Control_c, 0, 64, 0
3, 8768, Control_c, 0, 64, 127
3, 8894, Note_on_c, 0, 41, 0
3, 8944, Note_on_c, 0, 60, 0
3, 8946, Note_on_c, 0, 55, 0
3, 8956, Note_on_c, 0, 52, 0
3, 8956, Note_on_c, 0, 57, 0
3, 9064, Note_on_c, 0, 41, 36
3, 9070, Note_on_c, 0, 52, 39
3, 9074, Note_on_c, 0, 55, 44
3, 9074, Note_on_c, 0, 60, 44
3, 9092, Note_on_c, 0, 55, 0
3, 9092, Note_on_c, 0, 52, 0
3, 9096, Note_on_c, 0, 48, 0
3, 9098, Note_on_c, 0, 60, 0
3, 9098, Note_on_c, 0, 41, 0
3, 9186, Control_c, 0, 64, 0
3, 9196, Note_on_c, 0, 43, 51
3, 9198, Note_on_c, 0, 50, 61
3, 9198, Note_on_c, 0, 62, 71
3, 9198, Note_on_c, 0, 53, 66
3, 9200, Note_on_c, 0, 55, 76
3, 9200, Note_on_c, 0, 58, 68
3, 9272, Control_c, 0, 64, 127
3, 9362, Note_on_c, 0, 43, 0
3, 9364, Note_on_c, 0, 62, 0
3, 9374, Note_on_c, 0, 50, 0
3, 9388, Note_on_c, 0, 53, 0
3, 9392, Note_on_c, 0, 55, 0
3, 9410, Note_on_c, 0, 58, 0
3, 9446, Note_on_c, 0, 62, 54
3, 9446, Note_on_c, 0, 58, 42
3, 9448, Note_on_c, 0, 53, 48
3, 9448, Note_on_c, 0, 50, 34
3, 9450, Note_on_c, 0, 55, 50
3, 9450, Note_on_c, 0, 43, 40
3, 9468, Note_on_c, 0, 55, 0
3, 9468, Note_on_c, 0, 50, 0
3, 9472, Note_on_c, 0, 43, 0
3, 9484, Note_on_c, 0, 62, 0
3, 9492, Note_on_c, 0, 53, 0
3, 9512, Note_on_c, 0, 58, 0
3, 9588, Note_on_c, 0, 56, 51
3, 9592, Note_on_c, 0, 59, 61
3, 9592, Note_on_c, 0, 63, 40
3, 9834, Note_on_c, 0, 59, 0
3, 9842, Note_on_c, 0, 56, 0
3, 9872, Note_on_c, 0, 63, 0
3, 9972, Control_c, 0, 64, 0
3, 9986, Note_on_c, 0, 43, 24
3, 9990, Note_on_c, 0, 64, 38
3, 9990, Note_on_c, 0, 36, 31
3, 9998, Note_on_c, 0, 58, 37
3, 9998, Note_on_c, 0, 52, 32
3, 10004, Note_on_c, 0, 55, 16
3, 10068, Control_c, 0, 64, 127
3, 10184, Note_on_c, 0, 55, 0
3, 10208, Note_on_c, 0, 58, 0
3, 10236, Note_on_c, 0, 60, 50
3, 10236, Note_on_c, 0, 55, 35
3, 10400, Note_on_c, 0, 36, 0
3, 10416, Note_on_c, 0, 52, 0
3, 10436, Note_on_c, 0, 60, 0
3, 10496, Note_on_c, 0, 55, 0
3, 10534, Note_on_c, 0, 43, 0
3, 10578, Note_on_c, 0, 64, 0
3, 10590, Note_on_c, 0, 36, 25
3, 10604, Note_on_c, 0, 36, 0
3, 10982, Note_on_c, 0, 62, 74
3, 10982, Note_on_c, 0, 56, 65
3, 10986, Note_on_c, 0, 46, 58
3, 10986, Note_on_c, 0, 60, 68
3, 11048, Note_on_c, 0, 60, 0
3, 11092, Note_on_c, 0, 62, 0
3, 11092, Note_on_c, 0, 56, 0
3, 11126, Note_on_c, 0, 46, 0
3, 11132, Note_on_c, 0, 63, 68
3, 11136, Note_on_c, 0, 56, 46
3, 11136, Note_on_c, 0, 59, 66
3, 11138, Note_on_c, 0, 47, 52
3, 11140, Control_c, 0, 64, 0
3, 11246, Control_c, 0, 64, 127
3, 11250, Note_on_c, 0, 59, 0
3, 11300, Note_on_c, 0, 56, 0
3, 11318, Note_on_c, 0, 63, 0
3, 11352, Control_c, 0, 64, 0
3, 11374, Note_on_c, 0, 64, 50
3, 11376, Note_on_c, 0, 60, 58
3, 11376, Note_on_c, 0, 55, 58
3, 11376, Note_on_c, 0, 48, 53
3, 11378, Note_on_c, 0, 47, 0
3, 11442, Control_c, 0, 64, 127
3, 11542, Note_on_c, 0, 64, 0
3, 11552, Note_on_c, 0, 60, 0
3, 11568, Note_on_c, 0, 48, 0
3, 11576, Note_on_c, 0, 55, 0
3, 11770, Note_on_c, 0, 48, 34
3, 11770, Note_on_c, 0, 36, 44
3, 11774, Note_on_c, 0, 60, 43
3, 11774, Note_on_c, 0, 52, 18
3, 11780, Note_on_c, 0, 58, 25
3, 11788, Control_c, 0, 64, 0
3, 11822, Note_on_c, 0, 58, 0
3, 11868, Control_c, 0, 64, 127
3, 11954, Note_on_c, 0, 36, 0
3, 11994, Note_on_c, 0, 52, 0
3, 12052, Note_on_c, 0, 60, 0
3, 12098, Note_on_c, 0, 48, 0
3, 12276, Note_on_c, 0, 65, 46
3, 12278, Note_on_c, 0, 53, 40
3, 12280, Control_c, 0, 64, 0
3, 12280, Note_on_c, 0, 41, 32
3, 12282, Note_on_c, 0, 48, 38
3, 12282, Note_on_c, 0, 60, 57
3, 12344, Control_c, 0, 64, 127
3, 12464, Note_on_c, 0, 53, 0
3, 12490, Note_on_c, 0, 60, 0
3, 12494, Note_on_c, 0, 65, 0
3, 12586, Note_on_c, 0, 48, 0
3, 12664, Control_c, 0, 64, 0
3, 12668, Note_on_c, 0, 67, 75
3, 12674, Note_on_c, 0, 50, 53
3, 12674, Note_on_c, 0, 58, 69
3, 12710, Control_c, 0, 64, 127
3, 12794, Note_on_c, 0, 67, 0
3, 12796, Note_on_c, 0, 58, 0
3, 12798, Note_on_c, 0, 50, 0
3, 12888, Note_on_c, 0, 41, 0
3, 12914, Note_on_c, 0, 41, 30
3, 12914, Note_on_c, 0, 69, 84
3, 12916, Note_on_c, 0, 60, 87
3, 12918, Note_on_c, 0, 52, 68
3, 12928, Control_c, 0, 64, 0
3, 13044, Control_c, 0, 64, 127
3, 13216, Note_on_c, 0, 69, 0
3, 13310, Note_on_c, 0, 60, 0
3, 13358, Note_on_c, 0, 52, 0
3, 13398, Note_on_c, 0, 41, 0
3, 13458, Control_c, 0, 64, 0
3, 13458, Note_on_c, 0, 65, 55
3, 13462, Note_on_c, 0, 58, 52
3, 13464, Note_on_c, 0, 50, 44
3, 13468, Note_on_c, 0, 41, 43
3, 13522, Control_c, 0, 64, 127
3, 13602, Note_on_c, 0, 58, 0
3, 13624, Note_on_c, 0, 65, 0
3, 13658, Note_on_c, 0, 41, 0
3, 13672, Note_on_c, 0, 60, 54
3, 13700, Note_on_c, 0, 50, 0
3, 13730, Note_on_c, 0, 60, 0
3, 13798, Control_c, 0, 64, 0
3, 13810, Note_on_c, 0, 48, 34
3, 13810, Note_on_c, 0, 41, 45
3, 13812, Note_on_c, 0, 57, 51
3, 13814, Note_on_c, 0, 65, 49
3, 13858, Control_c, 0, 64, 127
3, 14004, Note_on_c, 0, 65, 0
3, 14038, Note_on_c, 0, 57, 0
3, 14118, Note_on_c, 0, 41, 0
3, 14186, Control_c, 0, 64, 0
3, 14188, Note_on_c, 0, 67, 68
3, 14188, Note_on_c, 0, 50, 54
3, 14190, Note_on_c, 0, 41, 33
3, 14190, Note_on_c, 0, 58, 59
3, 14200, Note_on_c, 0, 48, 0
3, 14222, Control_c, 0, 64, 127
3, 14266, Note_on_c, 0, 58, 0
3, 14276, Note_on_c, 0, 67, 0
3, 14280, Note_on_c, 0, 41, 0
3, 14294, Note_on_c, 0, 50, 0
3, 14436, Note_on_c, 0, 69, 67
3, 14438, Note_on_c, 0, 64, 64
3, 14438, Note_on_c, 0, 60, 62
3, 14438, Note_on_c, 0, 41, 53
3, 14440, Control_c, 0, 64, 0
3, 14440, Note_on_c, 0, 52, 57
3, 14548, Control_c, 0, 64, 127
3, 14668, Note_on_c, 0, 41, 0
3, 14694, Note_on_c, 0, 52, 0
3, 14712, Note_on_c, 0, 60, 0
3, 14732, Note_on_c, 0, 64, 0
3, 14742, Note_on_c, 0, 69, 0
3, 14982, Note_on_c, 0, 61, 53
3, 14986, Control_c, 0, 64, 0
3, 14986, Note_on_c, 0, 69, 56
3, 14988, Note_on_c, 0, 77, 55
3, 14988, Note_on_c, 0, 65, 51
3, 14988, Note_on_c, 0, 55, 64
3, 14992, Note_on_c, 0, 72, 37
3, 15018, Control_c, 0, 64, 127
3, 15108, Note_on_c, 0, 65, 0
3, 15116, Note_on_c, 0, 69, 0
3, 15124, Note_on_c, 0, 55, 0
3, 15142, Note_on_c, 0, 72, 0
3, 15146, Note_on_c, 0, 77, 0
3, 15148, Note_on_c, 0, 61, 0
3, 15364, Note_on_c, 0, 86, 56
3, 15364, Note_on_c, 0, 78, 33
3, 15366, Note_on_c, 0, 82, 32
3, 15368, Control_c, 0, 64, 0
3, 15368, Note_on_c, 0, 54, 36
3, 15370, Note_on_c, 0, 74, 37
3, 15372, Note_on_c, 0, 60, 36
3, 15412, Control_c, 0, 64, 127
3, 15478, Note_on_c, 0, 86, 0
3, 15484, Note_on_c, 0, 82, 0
3, 15486, Note_on_c, 0, 60, 0
3, 15488, Note_on_c, 0, 78, 0
3, 15500, Note_on_c, 0, 74, 0
3, 15516, Note_on_c, 0, 54, 0
3, 15744, Note_on_c, 0, 70, 43
3, 15746, Note_on_c, 0, 66, 28
3, 15748, Note_on_c, 0, 62, 30
3, 15886, Note_on_c, 0, 50, 48
3, 15932, Note_on_c, 0, 66, 0
3, 15946, Note_on_c, 0, 62, 0
3, 16000, Note_on_c, 0, 66, 67
3, 16058, Note_on_c, 0, 70, 0
3, 16082, Note_on_c, 0, 66, 0
3, 16118, Note_on_c, 0, 54, 42
3, 16118, Note_on_c, 0, 65, 59
3, 16128, Control_c, 0, 64, 0
3, 16132, Note_on_c, 0, 60, 24
3, 16144, Note_on_c, 0, 62, 10
3, 16156, Control_c, 0, 64, 127
3, 16188, Note_on_c, 0, 65, 0
3, 16188, Note_on_c, 0, 62, 0
3, 16240, Note_on_c, 0, 77, 66
3, 16286, Note_on_c, 0, 60, 0
3, 16384, Note_on_c, 0, 54, 0
3, 16484, Note_on_c, 0, 54, 26
3, 16486, Note_on_c, 0, 66, 30
3, 16488, Note_on_c, 0, 72, 37
3, 16496, Note_on_c, 0, 60, 28
3, 16684, Note_on_c, 0, 50, 0
3, 16726, Note_on_c, 0, 77, 0
3, 16730, Note_on_c, 0, 72, 0
3, 16748, Note_on_c, 0, 66, 0
3, 16810, Note_on_c, 0, 60, 0
3, 16828, Note_on_c, 0, 54, 0
3, 16910, Note_on_c, 0, 76, 40
3, 16910, Note_on_c, 0, 54, 31
3, 16918, Note_on_c, 0, 50, 33
3, 16920, Note_on_c, 0, 69, 32
3, 16922, Note_on_c, 0, 72, 24
3, 16922, Note_on_c, 0, 64, 25
3, 16926, Note_on_c, 0, 60, 24
3, 16936, Control_c, 0, 64, 0
3, 17024, Control_c, 0, 64, 127
3, 17088, Note_on_c, 0, 60, 0
3, 17088, Note_on_c, 0, 64, 0
3, 17100, Note_on_c, 0, 69, 0
3, 17116, Note_on_c, 0, 54, 0
3, 17126, Note_on_c, 0, 72, 0
3, 17286, Note_on_c, 0, 54, 30
3, 17294, Note_on_c, 0, 69, 32
3, 17296, Note_on_c, 0, 64, 31
3, 17300, Note_on_c, 0, 60, 29
3, 17448, Note_on_c, 0, 76, 0
3, 17492, Note_on_c, 0, 64, 0
3, 17510, Note_on_c, 0, 60, 0
3, 17544, Note_on_c, 0, 54, 0
3, 17562, Note_on_c, 0, 69, 0
3, 17678, Note_on_c, 0, 75, 64
3, 17684, Note_on_c, 0, 72, 59
3, 17684, Note_on_c, 0, 54, 34
3, 17686, Note_on_c, 0, 66, 63
3, 17694, Note_on_c, 0, 60, 47
3, 17694, Control_c, 0, 64, 0
3, 17702, Note_on_c, 0, 50, 0
3, 17764, Control_c, 0, 64, 127
3, 17872, Note_on_c, 0, 50, 56
3, 17958, Note_on_c, 0, 60, 0
3, 17984, Note_on_c, 0, 66, 0
3, 18034, Note_on_c, 0, 72, 0
3, 18060, Note_on_c, 0, 75, 0
3, 18064, Note_on_c, 0, 60, 54
3, 18088, Note_on_c, 0, 60, 0
3, 18116, Note_on_c, 0, 50, 0
3, 18122, Note_on_c, 0, 54, 0
3, 18238, Note_on_c, 0, 44, 56
3, 18296, Note_on_c, 0, 44, 0
3, 18428, Control_c, 0, 64, 0
3, 18438, Note_on_c, 0, 43, 51
3, 18440, Note_on_c, 0, 53, 38
3, 18442, Note_on_c, 0, 58, 57
3, 18448, Note_on_c, 0, 60, 28
3, 18484, Control_c, 0, 64, 127
3, 18512, Note_on_c, 0, 58, 0
3, 18518, Note_on_c, 0, 60, 0
3, 18528, Note_on_c, 0, 43, 0
3, 18548, Note_on_c, 0, 53, 0
3, 18950, Note_on_c, 0, 57, 68
3, 18950, Note_on_c, 0, 80, 79
3, 18950, Note_on_c, 0, 58, 69
3, 18952, Note_on_c, 0, 62, 77
3, 18952, Note_on_c, 0, 72, 82
3, 18954, Note_on_c, 0, 84, 80
3, 18956, Note_on_c, 0, 78, 46
3, 18958, Control_c, 0, 64, 0
3, 18966, Note_on_c, 0, 78, 0
3, 18992, Note_on_c, 0, 81, 32
3, 18996, Note_on_c, 0, 80, 0
3, 19004, Note_on_c, 0, 62, 0
3, 19008, Note_on_c, 0, 57, 0
3, 19010, Note_on_c, 0, 72, 0
3, 19014, Note_on_c, 0, 84, 0
3, 19016, Note_on_c, 0, 58, 0
3, 19022, Note_on_c, 0, 81, 0
3, 19218, Note_on_c, 0, 80, 60
3, 19220, Note_on_c, 0, 72, 62
3, 19220, Note_on_c, 0, 84, 68
3, 19222, Note_on_c, 0, 58, 62
3, 19222, Note_on_c, 0, 62, 61
3, 19224, Note_on_c, 0, 57, 59
3, 19276, Note_on_c, 0, 81, 44
3, 19280, Note_on_c, 0, 80, 0
3, 19292, Note_on_c, 0, 72, 0
3, 19298, Note_on_c, 0, 57, 0
3, 19298, Note_on_c, 0, 62, 0
3, 19300, Note_on_c, 0, 84, 0
3, 19306, Note_on_c, 0, 58, 0
3, 19312, Note_on_c, 0, 81, 0
3, 19738, Note_on_c, 0, 80, 48
3, 19740, Note_on_c, 0, 72, 47
3, 19740, Note_on_c, 0, 84, 58
3, 19742, Note_on_c, 0, 57, 53
3, 19742, Note_on_c, 0, 62, 57
3, 19744, Note_on_c, 0, 58, 46
3, 19770, Note_on_c, 0, 80, 0
3, 19776, Note_on_c, 0, 81, 33
3, 19798, Note_on_c, 0, 57, 0
3, 19802, Note_on_c, 0, 72, 0
3, 19802, Note_on_c, 0, 62, 0
3, 19806, Note_on_c, 0, 58, 0
3, 19808, Note_on_c, 0, 81, 0
3, 19810, Note_on_c, 0, 84, 0
3, 19880, Control_c, 0, 64, 127
3, 19892, Note_on_c, 0, 80, 54
3, 19894, Note_on_c, 0, 72, 57
3, 19894, Note_on_c, 0, 58, 47
3, 19894, Note_on_c, 0, 62, 36
3, 19896, Note_on_c, 0, 84, 57
3, 19896, Note_on_c, 0, 57, 32
3, 19912, Note_on_c, 0, 57, 0
3, 19922, Note_on_c, 0, 80, 0
3, 19924, Note_on_c, 0, 72, 0
3, 19932, Note_on_c, 0, 81, 32
3, 19944, Note_on_c, 0, 62, 0
3, 19952, Note_on_c, 0, 81, 0
3, 19956, Note_on_c, 0, 58, 0
3, 19970, Note_on_c, 0, 84, 0
3, 20012, Control_c, 0, 64, 0
3, 20018, Note_on_c, 0, 76, 56
3, 20022, Note_on_c, 0, 84, 58
3, 20024, Note_on_c, 0, 58, 52
3, 20028, Note_on_c, 0, 80, 45
3, 20030, Note_on_c, 0, 64, 36
3, 20078, Control_c, 0, 64, 127
3, 20150, Note_on_c, 0, 84, 0
3, 20160, Note_on_c, 0, 80, 0
3, 20168, Note_on_c, 0, 76, 0
3, 20202, Note_on_c, 0, 64, 0
3, 20272, Note_on_c, 0, 58, 0
3, 20366, Note_on_c, 0, 72, 30
3, 20366, Note_on_c, 0, 68, 34
3, 20368, Note_on_c, 0, 64, 33
3, 20374, Note_on_c, 0, 58, 33
3, 20484, Note_on_c, 0, 64, 0
3, 20504, Note_on_c, 0, 68, 0
3, 20516, Note_on_c, 0, 72, 0
3, 20536, Note_on_c, 0, 58, 0
3, 20652, Note_on_c, 0, 96, 66
3, 20658, Note_on_c, 0, 88, 60
3, 20700, Note_on_c, 0, 88, 0
3, 20700, Note_on_c, 0, 96, 0
3, 20888, Note_on_c, 0, 91, 63
3, 20890, Note_on_c, 0, 82, 47
3, 20898, Note_on_c, 0, 58, 37
3, 20898, Note_on_c, 0, 64, 37
3, 20942, Note_on_c, 0, 91, 0
3, 20974, Note_on_c, 0, 82, 0
3, 20988, Note_on_c, 0, 58, 0
3, 20994, Note_on_c, 0, 64, 0
3, 21272, Note_on_c, 0, 82, 45
3, 21272, Note_on_c, 0, 64, 44
3, 21278, Note_on_c, 0, 58, 34
3, 21284, Note_on_c, 0, 76, 22
3, 21318, Note_on_c, 0, 76, 0
3, 21320, Note_on_c, 0, 64, 0
3, 21338, Note_on_c, 0, 58, 0
3, 21338, Note_on_c, 0, 82, 0
3, 21394, Note_on_c, 0, 86, 74
3, 21434, Note_on_c, 0, 86, 0
3, 21454, Note_on_c, 0, 74, 40
3, 21462, Note_on_c, 0, 58, 37
3, 21504, Note_on_c, 0, 74, 0
3, 21520, Note_on_c, 0, 58, 0
3, 21544, Note_on_c, 0, 84, 51
3, 21546, Note_on_c, 0, 64, 32
3, 21546, Note_on_c, 0, 72, 31
3, 21552, Control_c, 0, 64, 0
3, 21552, Note_on_c, 0, 79, 28
3, 21554, Note_on_c, 0, 55, 44
3, 21558, Note_on_c, 0, 60, 29
3, 21558, Note_on_c, 0, 57, 32
3, 21568, Note_on_c, 0, 79, 0
3, 21622, Control_c, 0, 64, 127
3, 21664, Note_on_c, 0, 64, 0
3, 21668, Note_on_c, 0, 72, 0
3, 21670, Note_on_c, 0, 84, 0
3, 21670, Note_on_c, 0, 60, 0
3, 21670, Note_on_c, 0, 55, 0
3, 21676, Note_on_c, 0, 57, 0
3, 21696, Control_c, 0, 64, 0
3, 21704, Note_on_c, 0, 72, 51
3, 21704, Note_on_c, 0, 84, 51
3, 21706, Note_on_c, 0, 60, 45
3, 21708, Note_on_c, 0, 55, 38
3, 21710, Note_on_c, 0, 64, 31
3, 21712, Note_on_c, 0, 57, 28
3, 21716, Note_on_c, 0, 72, 0
3, 21718, Note_on_c, 0, 60, 0
3, 21720, Note_on_c, 0, 84, 0
3, 21722, Note_on_c, 0, 55, 0
3, 21722, Note_on_c, 0, 64, 0
3, 21724, Note_on_c, 0, 57, 0
3, 21914, Control_c, 0, 64, 127
3, 22024, Note_on_c, 0, 64, 79
3, 22024, Note_on_c, 0, 60, 76
3, 22024, Note_on_c, 0, 57, 69
3, 22026, Note_on_c, 0, 55, 76
3, 22026, Note_on_c, 0, 96, 90
3, 22026, Note_on_c, 0, 84, 92
3, 22028, Note_on_c, 0, 91, 89
3, 22060, Note_on_c, 0, 84, 0
3, 22062, Note_on_c, 0, 64, 0
3, 22062, Note_on_c, 0, 91, 0
3, 22064, Note_on_c, 0, 55, 0
3, 22066, Note_on_c, 0, 60, 0
3, 22066, Note_on_c, 0, 57, 0
3, 22066, Note_on_c, 0, 96, 0
3, 22082, Note_on_c, 0, 60, 75
3, 22084, Note_on_c, 0, 64, 72
3, 22086, Note_on_c, 0, 96, 80
3, 22086, Note_on_c, 0, 57, 68
3, 22086, Note_on_c, 0, 55, 69
3, 22086, Note_on_c, 0, 84, 73
3, 22088, Note_on_c, 0, 91, 71
3, 22110, Note_on_c, 0, 84, 0
3, 22114, Note_on_c, 0, 91, 0
3, 22118, Note_on_c, 0, 96, 0
3, 22118, Note_on_c, 0, 55, 0
3, 22118, Note_on_c, 0, 64, 0
3, 22122, Note_on_c, 0, 57, 0
3, 22136, Note_on_c, 0, 64, 76
3, 22136, Note_on_c, 0, 55, 59
3, 22136, Note_on_c, 0, 57, 51
3, 22138, Note_on_c, 0, 96, 67
3, 22138, Note_on_c, 0, 84, 68
3, 22138, Note_on_c, 0, 91, 65
3, 22140, Control_c, 0, 64, 0
3, 22158, Note_on_c, 0, 84, 0
3, 22160, Note_on_c, 0, 96, 0
3, 22160, Note_on_c, 0, 91, 0
3, 22162, Note_on_c, 0, 64, 0
3, 22164, Note_on_c, 0, 57, 0
3, 22164, Note_on_c, 0, 60, 0
3, 22168, Note_on_c, 0, 55, 0
3, 22326, Control_c, 0, 64, 127
3, 22336, Note_on_c, 0, 64, 71
3, 22338, Note_on_c, 0, 55, 70
3, 22338, Note_on_c, 0, 91, 78
3, 22340, Note_on_c, 0, 84, 79
3, 22340, Note_on_c, 0, 96, 80
3, 22340, Note_on_c, 0, 60, 72
3, 22342, Note_on_c, 0, 57, 62
3, 22368, Note_on_c, 0, 84, 0
3, 22376, Note_on_c, 0, 96, 0
3, 22376, Note_on_c, 0, 91, 0
3, 22376, Note_on_c, 0, 64, 0
3, 22382, Note_on_c, 0, 60, 0
3, 22382, Note_on_c, 0, 57, 0
3, 22384, Note_on_c, 0, 55, 0
3, 22402, Control_c, 0, 64, 0
3, 22404, Note_on_c, 0, 96, 68
3, 22404, Note_on_c, 0, 64, 67
3, 22404, Note_on_c, 0, 91, 62
3, 22406, Note_on_c, 0, 60, 71
3, 22406, Note_on_c, 0, 84, 74
3, 22410, Note_on_c, 0, 57, 65
3, 22410, Note_on_c, 0, 55, 68
3, 22420, Note_on_c, 0, 57, 0
3, 22422, Note_on_c, 0, 55, 0
3, 22422, Note_on_c, 0, 84, 0
3, 22426, Note_on_c, 0, 91, 0
3, 22428, Note_on_c, 0, 60, 0
3, 22428, Note_on_c, 0, 64, 0
3, 22428, Note_on_c, 0, 96, 0
3, 22824, Control_c, 0, 64, 127
3, 22922, Note_on_c, 0, 64, 25
3, 22926, Note_on_c, 0, 96, 38
3, 22926, Note_on_c, 0, 57, 29
3, 22930, Note_on_c, 0, 60, 31
3, 22936, Note_on_c, 0, 64, 0
3, 22938, Note_on_c, 0, 96, 0
3, 22942, Note_on_c, 0, 60, 0
3, 22944, Note_on_c, 0, 57, 0
3, 22968, Note_on_c, 0, 55, 40
3, 22972, Note_on_c, 0, 91, 57
3, 22972, Note_on_c, 0, 84, 55
3, 22974, Note_on_c, 0, 96, 47
3, 22976, Note_on_c, 0, 57, 35
3, 22978, Note_on_c, 0, 60, 32
3, 22992, Note_on_c, 0, 57, 0
3, 22994, Note_on_c, 0, 84, 0
3, 22994, Note_on_c, 0, 60, 0
3, 22996, Note_on_c, 0, 55, 0
3, 22998, Note_on_c, 0, 91, 0
3, 23002, Note_on_c, 0, 96, 0
3, 23026, Control_c, 0, 64, 0
3, 23050, Note_on_c, 0, 60, 52
3, 23050, Note_on_c, 0, 64, 49
3, 23050, Note_on_c, 0, 54, 47
3, 23056, Note_on_c, 0, 84, 59
3, 23056, Note_on_c, 0, 92, 46
3, 23056, Note_on_c, 0, 96, 53
3, 23086, Control_c, 0, 64, 127
3, 23096, Note_on_c, 0, 92, 0
3, 23248, Note_on_c, 0, 64, 0
3, 23274, Note_on_c, 0, 96, 0
3, 23276, Note_on_c, 0, 84, 0
3, 23292, Note_on_c, 0, 60, 0
3, 23414, Note_on_c, 0, 96, 39
3, 23418, Note_on_c, 0, 89, 36
3, 23422, Note_on_c, 0, 84, 36
3, 23422, Note_on_c, 0, 60, 42
3, 23424, Note_on_c, 0, 64, 33
3, 23792, Note_on_c, 0, 96, 0
3, 23810, Note_on_c, 0, 89, 0
3, 23836, Note_on_c, 0, 84, 0
3, 24072, Note_on_c, 0, 64, 0
3, 24088, Note_on_c, 0, 60, 0
3, 24114, Note_on_c, 0, 54, 0
3, 24340, Note_on_c, 0, 54, 78
3, 24340, Note_on_c, 0, 63, 88
3, 24342, Note_on_c, 0, 60, 85
3, 24342, Note_on_c, 0, 87, 91
3, 24342, Note_on_c, 0, 75, 98
3, 24344, Note_on_c, 0, 82, 84
3, 24354, Control_c, 0, 64, 0
3, 24386, Control_c, 0, 64, 127
3, 24440, Note_on_c, 0, 60, 0
3, 24450, Note_on_c, 0, 87, 0
3, 24454, Note_on_c, 0, 82, 0
3, 24454, Note_on_c, 0, 63, 0
3, 24456, Note_on_c, 0, 75, 0
3, 24486, Note_on_c, 0, 54, 0
3, 24584, Note_on_c, 0, 53, 28
3, 24586, Note_on_c, 0, 60, 48
3, 24586, Note_on_c, 0, 84, 64
3, 24590, Note_on_c, 0, 72, 37
3, 24590, Note_on_c, 0, 81, 53
3, 24592, Note_on_c, 0, 77, 46
3, 24592, Note_on_c, 0, 58, 47
3, 24592, Control_c, 0, 64, 0
3, 24594, Note_on_c, 0, 57, 44
3, 24606, Note_on_c, 0, 57, 0
3, 24608, Note_on_c, 0, 77, 0
3, 24610, Note_on_c, 0, 72, 0
3, 24612, Note_on_c, 0, 81, 0
3, 24612, Note_on_c, 0, 60, 0
3, 24616, Note_on_c, 0, 84, 0
3, 24624, Note_on_c, 0, 58, 0
3, 24628, Note_on_c, 0, 53, 0
3, 24744, Note_on_c, 0, 60, 55
3, 24746, Note_on_c, 0, 53, 43
3, 24746, Note_on_c, 0, 58, 39
3, 24746, Note_on_c, 0, 72, 44
3, 24746, Note_on_c, 0, 84, 55
3, 24748, Note_on_c, 0, 77, 45
3, 24750, Note_on_c, 0, 57, 40
3, 24752, Note_on_c, 0, 81, 33
3, 24762, Note_on_c, 0, 57, 0
3, 24766, Note_on_c, 0, 60, 0
3, 24768, Note_on_c, 0, 84, 0
3, 24768, Note_on_c, 0, 72, 0
3, 24768, Note_on_c, 0, 77, 0
3, 24768, Note_on_c, 0, 81, 0
3, 24774, Note_on_c, 0, 53, 0
3, 24778, Note_on_c, 0, 58, 0
3, 24984, Note_on_c, 0, 72, 46
3, 24986, Note_on_c, 0, 84, 51
3, 24990, Note_on_c, 0, 53, 33
3, 24990, Note_on_c, 0, 77, 33
3, 24992, Note_on_c, 0, 58, 37
3, 24992, Note_on_c, 0, 60, 25
3, 24994, Note_on_c, 0, 81, 26
3, 24994, Note_on_c, 0, 57, 38
3, 25084, Control_c, 0, 64, 127
3, 25194, Note_on_c, 0, 60, 0
3, 25196, Note_on_c, 0, 57, 0
3, 25198, Note_on_c, 0, 72, 0
3, 25198, Note_on_c, 0, 53, 0
3, 25208, Note_on_c, 0, 58, 0
3, 25220, Note_on_c, 0, 84, 0
3, 25260, Note_on_c, 0, 77, 0
3, 25306, Note_on_c, 0, 81, 0
3, 25368, Control_c, 0, 64, 0
3, 25368, Note_on_c, 0, 84, 54
3, 25374, Note_on_c, 0, 57, 37
3, 25374, Note_on_c, 0, 81, 26
3, 25374, Note_on_c, 0, 60, 29
3, 25374, Note_on_c, 0, 77, 29
3, 25376, Note_on_c, 0, 58, 29
3, 25378, Note_on_c, 0, 72, 19
3, 25380, Note_on_c, 0, 55, 36
3, 25480, Control_c, 0, 64, 127
3, 25556, Note_on_c, 0, 60, 0
3, 25566, Note_on_c, 0, 57, 0
3, 25582, Note_on_c, 0, 58, 0
3, 25622, Note_on_c, 0, 72, 0
3, 25624, Note_on_c, 0, 77, 0
3, 25708, Note_on_c, 0, 84, 0
3, 25740, Note_on_c, 0, 77, 40
3, 25746, Note_on_c, 0, 72, 29
3, 25746, Note_on_c, 0, 60, 32
3, 25750, Note_on_c, 0, 57, 24
3, 25754, Note_on_c, 0, 58, 23
3, 25768, Note_on_c, 0, 81, 0
3, 25782, Note_on_c, 0, 77, 0
3, 25796, Note_on_c, 0, 72, 0
3, 25894, Note_on_c, 0, 72, 73
3, 25940, Note_on_c, 0, 57, 0
3, 25954, Note_on_c, 0, 55, 0
3, 25954, Note_on_c, 0, 60, 0
3, 25958, Note_on_c, 0, 72, 0
3, 25966, Note_on_c, 0, 58, 0
3, 26024, Note_on_c, 0, 72, 85
3, 26054, Note_on_c, 0, 72, 0
3, 26076, Note_on_c, 0, 72, 69
3, 26114, Note_on_c, 0, 72, 0
3, 26138, Note_on_c, 0, 72, 55
3, 26142, Note_on_c, 0, 68, 70
3, 26146, Note_on_c, 0, 63, 62
3, 26148, Note_on_c, 0, 58, 53
3, 26152, Note_on_c, 0, 64, 45
3, 26154, Control_c, 0, 64, 0
3, 26224, Control_c, 0, 64, 127
3, 26230, Note_on_c, 0, 72, 0
3, 26240, Note_on_c, 0, 63, 0
3, 26248, Note_on_c, 0, 64, 0
3, 26252, Note_on_c, 0, 68, 0
3, 26260, Note_on_c, 0, 58, 0
3, 26272, Note_on_c, 0, 72, 58
3, 26274, Note_on_c, 0, 63, 51
3, 26276, Note_on_c, 0, 68, 61
3, 26278, Note_on_c, 0, 58, 27
3, 26282, Note_on_c, 0, 64, 41
3, 26316, Note_on_c, 0, 63, 0
3, 26348, Note_on_c, 0, 68, 0
3, 26350, Note_on_c, 0, 72, 0
3, 26358, Note_on_c, 0, 63, 30
3, 26360, Note_on_c, 0, 64, 0
3, 26366, Note_on_c, 0, 58, 0
3, 26382, Note_on_c, 0, 63, 0
3, 26390, Note_on_c, 0, 68, 34
3, 26394, Note_on_c, 0, 58, 25
3, 26418, Note_on_c, 0, 68, 0
3, 26418, Note_on_c, 0, 63, 37
3, 26450, Note_on_c, 0, 63, 0
3, 26450, Note_on_c, 0, 58, 0
3, 26460, Note_on_c, 0, 68, 39
3, 26462, Note_on_c, 0, 72, 20
3, 26484, Note_on_c, 0, 72, 0
3, 26486, Note_on_c, 0, 63, 31
3, 26492, Note_on_c, 0, 68, 0
3, 26494, Note_on_c, 0, 58, 38
3, 26518, Note_on_c, 0, 63, 0
3, 26528, Note_on_c, 0, 68, 43
3, 26534, Note_on_c, 0, 58, 0
3, 26544, Note_on_c, 0, 64, 35
3, 26554, Note_on_c, 0, 63, 47
3, 26562, Note_on_c, 0, 68, 0
3, 26562, Note_on_c, 0, 64, 0
3, 26572, Note_on_c, 0, 58, 52
3, 26596, Note_on_c, 0, 63, 0
3, 26600, Note_on_c, 0, 68, 57
3, 26602, Note_on_c, 0, 72, 24
3, 26618, Note_on_c, 0, 58, 0
3, 26622, Note_on_c, 0, 64, 34
3, 26630, Note_on_c, 0, 63, 47
3, 26630, Note_on_c, 0, 72, 0
3, 26640, Note_on_c, 0, 68, 0
3, 26646, Note_on_c, 0, 64, 0
3, 26656, Note_on_c, 0, 58, 57
3, 26668, Note_on_c, 0, 68, 46
3, 26670, Note_on_c, 0, 72, 34
3, 26672, Note_on_c, 0, 63, 0
3, 26698, Note_on_c, 0, 63, 32
3, 26704, Note_on_c, 0, 64, 46
3, 26712, Note_on_c, 0, 68, 0
3, 26720, Note_on_c, 0, 58, 0
3, 26744, Note_on_c, 0, 68, 32
3, 26748, Note_on_c, 0, 63, 0
3, 26756, Note_on_c, 0, 64, 0
3, 26760, Note_on_c, 0, 58, 26
3, 26778, Note_on_c, 0, 63, 42
3, 26784, Note_on_c, 0, 68, 0
3, 26784, Note_on_c, 0, 72, 0
3, 26814, Note_on_c, 0, 58, 0
3, 26820, Note_on_c, 0, 64, 29
3, 26822, Note_on_c, 0, 63, 0
3, 26824, Note_on_c, 0, 68, 47
3, 26848, Note_on_c, 0, 64, 0
3, 26852, Note_on_c, 0, 63, 38
3, 26854, Note_on_c, 0, 58, 30
3, 26856, Note_on_c, 0, 68, 0
3, 26890, Note_on_c, 0, 68, 42
3, 26892, Note_on_c, 0, 63, 0
3, 26900, Note_on_c, 0, 64, 36
3, 26916, Note_on_c, 0, 63, 27
3, 26924, Note_on_c, 0, 68, 0
3, 26940, Note_on_c, 0, 64, 0
3, 26944, Note_on_c, 0, 58, 0
3, 26960, Note_on_c, 0, 68, 34
3, 26964, Note_on_c, 0, 63, 0
3, 26976, Note_on_c, 0, 58, 25
3, 26984, Note_on_c, 0, 63, 19
3, 26996, Note_on_c, 0, 68, 0
3, 27028, Note_on_c, 0, 68, 33
3, 27028, Note_on_c, 0, 63, 0
3, 27038, Note_on_c, 0, 58, 0
3, 27072, Note_on_c, 0, 63, 13
3, 27082, Note_on_c, 0, 58, 10
3, 27116, Note_on_c, 0, 63, 0
3, 27128, Note_on_c, 0, 58, 0
3, 27150, Note_on_c, 0, 68, 0
3, 27414, Note_on_c, 0, 69, 84
3, 27520, Note_on_c, 0, 69, 0
3, 27546, Note_on_c, 0, 69, 64
3, 27592, Note_on_c, 0, 69, 0
3, 27608, Note_on_c, 0, 67, 46
3, 27648, Note_on_c, 0, 67, 0
3, 27678, Note_on_c, 0, 64, 46
3, 27678, Note_on_c, 0, 69, 45
3, 27682, Note_on_c, 0, 41, 40
3, 27684, Note_on_c, 0, 57, 24
3, 27688, Control_c, 0, 64, 0
3, 27690, Note_on_c, 0, 48, 27
3, 27764, Control_c, 0, 64, 127
3, 27906, Note_on_c, 0, 64, 0
3, 27938, Note_on_c, 0, 57, 0
3, 27956, Note_on_c, 0, 48, 0
3, 28052, Note_on_c, 0, 57, 36
3, 28052, Note_on_c, 0, 51, 37
3, 28054, Note_on_c, 0, 63, 33
3, 28066, Control_c, 0, 64, 0
3, 28112, Control_c, 0, 64, 127
3, 28156, Note_on_c, 0, 57, 0
3, 28166, Note_on_c, 0, 63, 0
3, 28174, Note_on_c, 0, 51, 0
3, 28298, Note_on_c, 0, 63, 35
3, 28300, Note_on_c, 0, 57, 37
3, 28300, Control_c, 0, 64, 0
3, 28302, Note_on_c, 0, 51, 34
3, 28394, Control_c, 0, 64, 127
3, 28554, Note_on_c, 0, 57, 0
3, 28558, Note_on_c, 0, 51, 0
3, 28590, Note_on_c, 0, 63, 0
3, 28680, Note_on_c, 0, 62, 39
3, 28684, Note_on_c, 0, 57, 33
3, 28686, Note_on_c, 0, 50, 35
3, 28708, Control_c, 0, 64, 0
3, 28816, Control_c, 0, 64, 127
3, 28836, Note_on_c, 0, 57, 0
3, 28894, Note_on_c, 0, 41, 0
3, 29002, Note_on_c, 0, 62, 0
3, 29040, Note_on_c, 0, 50, 0
3, 29058, Note_on_c, 0, 69, 0
3, 29062, Note_on_c, 0, 60, 30
3, 29076, Note_on_c, 0, 60, 0
3, 29174, Note_on_c, 0, 63, 36
3, 29176, Note_on_c, 0, 48, 46
3, 29178, Note_on_c, 0, 58, 52
3, 29180, Control_c, 0, 64, 0
3, 29192, Note_on_c, 0, 52, 27
3, 29356, Control_c, 0, 64, 127
3, 29496, Note_on_c, 0, 52, 0
3, 29542, Note_on_c, 0, 58, 0
3, 29578, Control_c, 0, 64, 0
3, 29578, Note_on_c, 0, 58, 25
3, 29578, Note_on_c, 0, 63, 0
3, 29584, Note_on_c, 0, 52, 37
3, 29586, Note_on_c, 0, 62, 49
3, 29650, Note_on_c, 0, 52, 0
3, 29652, Note_on_c, 0, 62, 0
3, 29660, Note_on_c, 0, 58, 0
3, 29812, Note_on_c, 0, 52, 33
3, 29812, Note_on_c, 0, 36, 38
3, 29814, Note_on_c, 0, 62, 46
3, 29814, Note_on_c, 0, 58, 29
3, 29828, Control_c, 0, 64, 127
3, 29970, Note_on_c, 0, 48, 0
3, 30016, Note_on_c, 0, 58, 0
3, 30032, Note_on_c, 0, 52, 0
3, 30096, Note_on_c, 0, 62, 0
3, 30190, Note_on_c, 0, 61, 42
3, 30192, Note_on_c, 0, 52, 32
3, 30192, Note_on_c, 0, 58, 34
3, 30198, Note_on_c, 0, 48, 35
3, 30216, Control_c, 0, 64, 0
3, 30252, Control_c, 0, 64, 127
3, 30274, Note_on_c, 0, 36, 0
3, 30284, Note_on_c, 0, 48, 0
3, 30420, Note_on_c, 0, 52, 0
3, 30422, Note_on_c, 0, 61, 0
3, 30482, Note_on_c, 0, 58, 0
3, 30576, Note_on_c, 0, 60, 65
3, 30620, Note_on_c, 0, 60, 0
3, 30698, Control_c, 0, 64, 0
3, 30708, Note_on_c, 0, 62, 61
3, 30708, Note_on_c, 0, 53, 46
3, 30710, Note_on_c, 0, 48, 44
3, 30710, Note_on_c, 0, 41, 44
3, 30712, Note_on_c, 0, 57, 55
3, 30774, Control_c, 0, 64, 127
3, 30962, Note_on_c, 0, 53, 0
3, 30964, Note_on_c, 0, 57, 0
3, 31010, Note_on_c, 0, 62, 0
3, 31072, Note_on_c, 0, 48, 0
3, 31088, Note_on_c, 0, 63, 47
3, 31090, Note_on_c, 0, 53, 36
3, 31098, Note_on_c, 0, 49, 23
3, 31098, Note_on_c, 0, 57, 36
3, 31106, Note_on_c, 0, 60, 28
3, 31128, Control_c, 0, 64, 0
3, 31134, Control_c, 0, 64, 127
3, 31208, Note_on_c, 0, 53, 0
3, 31214, Note_on_c, 0, 57, 0
3, 31216, Note_on_c, 0, 60, 0
3, 31232, Note_on_c, 0, 49, 0
3, 31248, Note_on_c, 0, 63, 0
3, 31342, Note_on_c, 0, 55, 31
3, 31344, Note_on_c, 0, 64, 35
3, 31346, Note_on_c, 0, 60, 44
3, 31348, Note_on_c, 0, 57, 40
3, 31348, Note_on_c, 0, 50, 29
3, 31356, Control_c, 0, 64, 0
3, 31422, Control_c, 0, 64, 127
3, 31544, Note_on_c, 0, 55, 0
3, 31558, Note_on_c, 0, 57, 0
3, 31560, Note_on_c, 0, 60, 0
3, 31684, Note_on_c, 0, 50, 0
3, 31704, Note_on_c, 0, 64, 0
3, 31716, Note_on_c, 0, 53, 36
3, 31716, Note_on_c, 0, 60, 45
3, 31718, Note_on_c, 0, 48, 32
3, 31720, Note_on_c, 0, 57, 44
3, 31730, Control_c, 0, 64, 0
3, 31796, Control_c, 0, 64, 127
3, 31952, Note_on_c, 0, 41, 0
3, 32106, Note_on_c, 0, 41, 71
3, 32132, Note_on_c, 0, 53, 0
3, 32138, Note_on_c, 0, 57, 0
3, 32162, Note_on_c, 0, 60, 0
3, 32212, Note_on_c, 0, 48, 0
3, 32234, Note_on_c, 0, 62, 90
3, 32236, Note_on_c, 0, 57, 91
3, 32236, Note_on_c, 0, 53, 92
3, 32236, Note_on_c, 0, 50, 91
3, 32240, Control_c, 0, 64, 0
3, 32318, Control_c, 0, 64, 127
3, 32414, Note_on_c, 0, 50, 0
3, 32418, Note_on_c, 0, 53, 0
3, 32436, Note_on_c, 0, 57, 0
3, 32436, Note_on_c, 0, 62, 0
3, 32468, Note_on_c, 0, 62, 76
3, 32470, Note_on_c, 0, 57, 76
3, 32472, Note_on_c, 0, 50, 68
3, 32474, Note_on_c, 0, 53, 71
3, 32540, Note_on_c, 0, 57, 0
3, 32544, Note_on_c, 0, 53, 0
3, 32552, Note_on_c, 0, 50, 0
3, 32568, Note_on_c, 0, 62, 0
3, 32606, Note_on_c, 0, 63, 71
3, 32606, Note_on_c, 0, 51, 64
3, 32606, Note_on_c, 0, 57, 74
3, 32606, Note_on_c, 0, 60, 72
3, 32608, Control_c, 0, 64, 0
3, 32610, Note_on_c, 0, 53, 70
3, 32668, Control_c, 0, 64, 127
3, 32752, Note_on_c, 0, 53, 0
3, 32758, Note_on_c, 0, 51, 0
3, 32758, Note_on_c, 0, 60, 0
3, 32760, Note_on_c, 0, 57, 0
3, 32766, Note_on_c, 0, 63, 0
3, 32846, Note_on_c, 0, 51, 49
3, 32848, Note_on_c, 0, 63, 49
3, 32850, Note_on_c, 0, 53, 46
3, 32852, Note_on_c, 0, 57, 46
3, 32858, Note_on_c, 0, 60, 45
3, 32902, Note_on_c, 0, 53, 0
3, 32910, Note_on_c, 0, 57, 0
3, 32912, Note_on_c, 0, 60, 0
3, 32936, Note_on_c, 0, 63, 0
3, 32944, Note_on_c, 0, 51, 0
3, 32992, Control_c, 0, 64, 0
3, 33002, Note_on_c, 0, 60, 45
3, 33004, Note_on_c, 0, 55, 44
3, 33006, Note_on_c, 0, 64, 42
3, 33008, Note_on_c, 0, 52, 44
3, 33008, Note_on_c, 0, 57, 39
3, 33044, Control_c, 0, 64, 127
3, 33088, Note_on_c, 0, 60, 0
3, 33090, Note_on_c, 0, 64, 0
3, 33098, Note_on_c, 0, 57, 0
3, 33126, Note_on_c, 0, 52, 0
3, 33128, Note_on_c, 0, 55, 0
3, 33250, Note_on_c, 0, 60, 54
3, 33254, Note_on_c, 0, 55, 48
3, 33256, Note_on_c, 0, 48, 34
3, 33256, Note_on_c, 0, 52, 25
3, 33278, Control_c, 0, 64, 0
3, 33342, Control_c, 0, 64, 127
3, 33448, Note_on_c, 0, 41, 0
3, 33616, Note_on_c, 0, 60, 0
3, 33616, Note_on_c, 0, 52, 0
3, 33632, Note_on_c, 0, 41, 35
3, 33638, Note_on_c, 0, 55, 0
3, 33656, Note_on_c, 0, 48, 0
3, 33696, Note_on_c, 0, 41, 0
3, 33760, Control_c, 0, 64, 0
3, 33768, Note_on_c, 0, 50, 35
3, 33770, Note_on_c, 0, 62, 43
3, 33772, Note_on_c, 0, 53, 29
3, 33774, Note_on_c, 0, 58, 37
3, 33778, Note_on_c, 0, 55, 47
3, 33784, Note_on_c, 0, 43, 19
3, 33812, Control_c, 0, 64, 127
3, 33884, Note_on_c, 0, 50, 0
3, 33918, Note_on_c, 0, 43, 0
3, 33920, Note_on_c, 0, 55, 0
3, 33930, Note_on_c, 0, 62, 0
3, 33938, Note_on_c, 0, 53, 0
3, 33966, Note_on_c, 0, 58, 0
3, 34154, Control_c, 0, 64, 0
3, 34158, Note_on_c, 0, 63, 38
3, 34160, Note_on_c, 0, 44, 31
3, 34164, Note_on_c, 0, 56, 26
3, 34168, Note_on_c, 0, 37, 29
3, 34168, Note_on_c, 0, 59, 45
3, 34174, Control_c, 0, 64, 127
3, 34224, Note_on_c, 0, 37, 0
3, 34240, Note_on_c, 0, 59, 0
3, 34258, Note_on_c, 0, 56, 0
3, 34258, Note_on_c, 0, 44, 0
3, 34290, Note_on_c, 0, 63, 0
3, 34448, Note_on_c, 0, 64, 35
3, 34448, Note_on_c, 0, 55, 34
3, 34448, Note_on_c, 0, 60, 44
3, 34448, Note_on_c, 0, 36, 40
3, 34448, Note_on_c, 0, 48, 30
3, 34454, Control_c, 0, 64, 0
3, 34534, Control_c, 0, 64, 127
3, 34662, Note_on_c, 0, 60, 0
3, 34664, Note_on_c, 0, 55, 0
3, 34676, Note_on_c, 0, 48, 0
3, 34804, Note_on_c, 0, 64, 0
3, 34822, Note_on_c, 0, 60, 50
3, 34826, Note_on_c, 0, 55, 40
3, 34932, Note_on_c, 0, 36, 0
3, 34998, Note_on_c, 0, 55, 0
3, 35046, Note_on_c, 0, 60, 0
3, 35170, Note_on_c, 0, 36, 54
3, 35180, Note_on_c, 0, 36, 0
3, 35302, Note_on_c, 0, 60, 59
3, 35308, Note_on_c, 0, 61, 69
3, 35314, Note_on_c, 0, 56, 65
3, 35316, Note_on_c, 0, 46, 60
3, 35322, Control_c, 0, 64, 0
3, 35328, Note_on_c, 0, 62, 75
3, 35332, Note_on_c, 0, 61, 0
3, 35358, Note_on_c, 0, 60, 0
3, 35410, Control_c, 0, 64, 127
3, 35516, Note_on_c, 0, 56, 0
3, 35524, Note_on_c, 0, 62, 0
3, 35526, Note_on_c, 0, 46, 0
3, 35570, Note_on_c, 0, 46, 31
3, 35572, Note_on_c, 0, 62, 64
3, 35578, Note_on_c, 0, 56, 26
3, 35632, Note_on_c, 0, 46, 0
3, 35632, Note_on_c, 0, 56, 0
3, 35648, Note_on_c, 0, 62, 0
3, 35704, Note_on_c, 0, 63, 45
3, 35706, Note_on_c, 0, 47, 48
3, 35708, Note_on_c, 0, 56, 31
3, 35710, Note_on_c, 0, 59, 34
3, 35710, Control_c, 0, 64, 0
3, 35776, Control_c, 0, 64, 127
3, 35842, Note_on_c, 0, 47, 0
3, 35848, Note_on_c, 0, 59, 0
3, 35850, Note_on_c, 0, 56, 0
3, 35856, Note_on_c, 0, 63, 0
3, 35930, Note_on_c, 0, 47, 34
3, 35934, Note_on_c, 0, 56, 21
3, 35936, Note_on_c, 0, 63, 35
3, 35940, Note_on_c, 0, 59, 35
3, 35956, Note_on_c, 0, 59, 0
3, 35970, Note_on_c, 0, 56, 0
3, 35982, Note_on_c, 0, 63, 0
3, 35996, Note_on_c, 0, 47, 0
3, 36070, Note_on_c, 0, 58, 36
3, 36074, Control_c, 0, 64, 0
3, 36074, Note_on_c, 0, 48, 36
3, 36074, Note_on_c, 0, 64, 53
3, 36082, Note_on_c, 0, 55, 44
3, 36154, Control_c, 0, 64, 127
3, 36310, Note_on_c, 0, 60, 43
3, 36436, Note_on_c, 0, 58, 0
3, 36446, Note_on_c, 0, 55, 0
3, 36478, Note_on_c, 0, 48, 0
3, 36516, Note_on_c, 0, 64, 0
3, 36530, Note_on_c, 0, 60, 0
3, 36622, Note_on_c, 0, 60, 79
3, 36640, Note_on_c, 0, 60, 0
3, 36662, Note_on_c, 0, 60, 79
3, 36688, Note_on_c, 0, 60, 0
3, 36776, Note_on_c, 0, 60, 76
3, 36796, Note_on_c, 0, 60, 0
3, 36824, Note_on_c, 0, 60, 78
3, 36848, Note_on_c, 0, 60, 0
3, 36882, Note_on_c, 0, 65, 84
3, 36892, Note_on_c, 0, 48, 39
3, 36892, Control_c, 0, 64, 0
3, 36894, Note_on_c, 0, 41, 43
3, 36952, Control_c, 0, 64, 127
3, 37092, Note_on_c, 0, 65, 0
3, 37220, Note_on_c, 0, 41, 0
3, 37240, Note_on_c, 0, 67, 68
3, 37246, Note_on_c, 0, 58, 51
3, 37252, Control_c, 0, 64, 0
3, 37252, Note_on_c, 0, 41, 29
3, 37252, Note_on_c, 0, 50, 42
3, 37270, Note_on_c, 0, 48, 0
3, 37278, Control_c, 0, 64, 127
3, 37332, Note_on_c, 0, 41, 0
3, 37336, Note_on_c, 0, 67, 0
3, 37336, Note_on_c, 0, 58, 0
3, 37372, Note_on_c, 0, 50, 0
3, 37484, Note_on_c, 0, 69, 54
3, 37488, Note_on_c, 0, 64, 48
3, 37488, Note_on_c, 0, 60, 39
3, 37490, Note_on_c, 0, 41, 42
3, 37490, Note_on_c, 0, 52, 46
3, 37504, Control_c, 0, 64, 0
3, 37572, Control_c, 0, 64, 127
3, 37878, Note_on_c, 0, 69, 0
3, 37880, Note_on_c, 0, 64, 0
3, 37890, Note_on_c, 0, 52, 0
3, 37892, Note_on_c, 0, 60, 0
3, 38300, Note_on_c, 0, 41, 0
3, 38420, Control_c, 0, 64, 0
3, 38420, Note_on_c, 0, 57, 77
3, 38420, Note_on_c, 0, 65, 77
3, 38422, Note_on_c, 0, 48, 59
3, 38424, Note_on_c, 0, 41, 60
3, 38480, Control_c, 0, 64, 127
3, 38592, Note_on_c, 0, 41, 0
3, 38654, Note_on_c, 0, 65, 0
3, 38656, Note_on_c, 0, 41, 54
3, 38688, Note_on_c, 0, 57, 0
3, 38756, Note_on_c, 0, 41, 0
3, 38786, Note_on_c, 0, 41, 58
3, 38788, Note_on_c, 0, 67, 81
3, 38790, Note_on_c, 0, 58, 85
3, 38790, Note_on_c, 0, 50, 76
3, 38792, Control_c, 0, 64, 0
3, 38804, Note_on_c, 0, 48, 0
3, 38836, Control_c, 0, 64, 127
3, 38950, Note_on_c, 0, 41, 0
3, 39046, Note_on_c, 0, 58, 0
3, 39046, Note_on_c, 0, 41, 40
3, 39052, Note_on_c, 0, 67, 0
3, 39092, Note_on_c, 0, 50, 0
3, 39186, Note_on_c, 0, 63, 58
3, 39186, Note_on_c, 0, 60, 62
3, 39186, Note_on_c, 0, 69, 66
3, 39194, Note_on_c, 0, 52, 54
3, 39200, Control_c, 0, 64, 0
3, 39218, Note_on_c, 0, 63, 0
3, 39220, Note_on_c, 0, 64, 51
3, 39276, Control_c, 0, 64, 127
3, 39354, Note_on_c, 0, 41, 0
3, 39382, Note_on_c, 0, 52, 0
3, 39420, Note_on_c, 0, 60, 0
3, 39476, Note_on_c, 0, 64, 0
3, 39532, Note_on_c, 0, 69, 0
3, 39706, Note_on_c, 0, 65, 54
3, 39706, Note_on_c, 0, 60, 56
3, 39708, Note_on_c, 0, 61, 32
3, 39714, Note_on_c, 0, 55, 44
3, 39770, Note_on_c, 0, 60, 0
3, 39774, Note_on_c, 0, 55, 0
3, 39794, Note_on_c, 0, 65, 0
3, 39796, Note_on_c, 0, 61, 0
3, 39940, Note_on_c, 0, 82, 45
3, 39944, Note_on_c, 0, 54, 40
3, 39946, Note_on_c, 0, 70, 32
3, 39948, Note_on_c, 0, 60, 43
3, 39950, Control_c, 0, 64, 0
3, 39954, Note_on_c, 0, 64, 34
3, 40008, Control_c, 0, 64, 127
3, 40112, Note_on_c, 0, 64, 0
3, 40134, Note_on_c, 0, 60, 0
3, 40152, Note_on_c, 0, 70, 0
3, 40326, Note_on_c, 0, 70, 31
3, 40338, Note_on_c, 0, 64, 20
3, 40340, Note_on_c, 0, 60, 28
3, 40342, Note_on_c, 0, 76, 36
3, 40460, Note_on_c, 0, 76, 0
3, 40480, Note_on_c, 0, 82, 0
3, 40516, Note_on_c, 0, 64, 0
3, 40534, Note_on_c, 0, 60, 0
3, 40534, Note_on_c, 0, 70, 0
3, 40568, Note_on_c, 0, 54, 0
3, 40638, Note_on_c, 0, 77, 64
3, 40696, Note_on_c, 0, 77, 0
3, 40708, Note_on_c, 0, 74, 50
3, 40756, Note_on_c, 0, 54, 29
3, 40762, Note_on_c, 0, 70, 50
3, 40764, Note_on_c, 0, 60, 35
3, 40766, Note_on_c, 0, 50, 29
3, 40772, Control_c, 0, 64, 0
3, 40788, Note_on_c, 0, 74, 0
3, 40812, Note_on_c, 0, 65, 12
3, 40826, Control_c, 0, 64, 127
3, 40902, Note_on_c, 0, 70, 0
3, 40936, Note_on_c, 0, 65, 0
3, 40938, Note_on_c, 0, 60, 0
3, 40992, Note_on_c, 0, 54, 0
3, 41132, Note_on_c, 0, 54, 35
3, 41140, Note_on_c, 0, 62, 32
3, 41142, Note_on_c, 0, 65, 41
3, 41152, Note_on_c, 0, 60, 27
3, 41236, Note_on_c, 0, 62, 0
3, 41238, Note_on_c, 0, 65, 0
3, 41302, Note_on_c, 0, 76, 87
3, 41374, Note_on_c, 0, 50, 0
3, 41388, Note_on_c, 0, 60, 0
3, 41396, Note_on_c, 0, 72, 53
3, 41396, Note_on_c, 0, 54, 0
3, 41400, Note_on_c, 0, 64, 40
3, 41412, Note_on_c, 0, 69, 31
3, 41440, Note_on_c, 0, 69, 0
3, 41462, Note_on_c, 0, 64, 0
3, 41464, Note_on_c, 0, 76, 0
3, 41488, Note_on_c, 0, 72, 0
3, 41500, Note_on_c, 0, 54, 30
3, 41504, Note_on_c, 0, 69, 44
3, 41512, Note_on_c, 0, 64, 39
3, 41512, Note_on_c, 0, 60, 36
3, 41520, Control_c, 0, 64, 0
3, 41552, Control_c, 0, 64, 127
3, 41600, Note_on_c, 0, 69, 0
3, 41614, Note_on_c, 0, 50, 53
3, 41636, Note_on_c, 0, 64, 0
3, 41680, Note_on_c, 0, 60, 0
3, 41868, Note_on_c, 0, 57, 44
3, 41868, Note_on_c, 0, 60, 48
3, 41872, Note_on_c, 0, 54, 0
3, 41910, Note_on_c, 0, 50, 0
3, 42060, Note_on_c, 0, 26, 40
3, 42068, Note_on_c, 0, 60, 0
3, 42088, Note_on_c, 0, 57, 0
3, 42088, Note_on_c, 0, 26, 0
3, 42228, Note_on_c, 0, 50, 44
3, 42232, Note_on_c, 0, 54, 27
3, 42234, Note_on_c, 0, 63, 37
3, 42236, Control_c, 0, 64, 0
3, 42240, Note_on_c, 0, 60, 58
3, 42274, Control_c, 0, 64, 127
3, 42290, Note_on_c, 0, 54, 0
3, 42298, Note_on_c, 0, 60, 0
3, 42310, Note_on_c, 0, 63, 0
3, 42432, Note_on_c, 0, 75, 64
3, 42438, Note_on_c, 0, 60, 50
3, 42442, Note_on_c, 0, 66, 55
3, 42488, Note_on_c, 0, 75, 0
3, 42496, Note_on_c, 0, 60, 0
3, 42506, Note_on_c, 0, 66, 0
3, 42628, Note_on_c, 0, 63, 36
3, 42630, Note_on_c, 0, 72, 39
3, 42634, Note_on_c, 0, 66, 33
3, 42638, Note_on_c, 0, 60, 24
3, 42702, Note_on_c, 0, 63, 0
3, 42712, Note_on_c, 0, 50, 0
3, 42732, Note_on_c, 0, 72, 0
3, 42746, Note_on_c, 0, 66, 0
3, 42806, Note_on_c, 0, 60, 0
3, 42822, Note_on_c, 0, 50, 49
3, 42850, Note_on_c, 0, 50, 0
3, 43008, Control_c, 0, 64, 0
3, 43010, Note_on_c, 0, 72, 80
3, 43010, Note_on_c, 0, 77, 74
3, 43010, Note_on_c, 0, 84, 81
3, 43010, Note_on_c, 0, 81, 74
3, 43012, Note_on_c, 0, 62, 69
3, 43014, Note_on_c, 0, 58, 52
3, 43014, Note_on_c, 0, 60, 64
3, 43058, Control_c, 0, 64, 127
3, 43154, Note_on_c, 0, 72, 0
3, 43162, Note_on_c, 0, 62, 0
3, 43162, Note_on_c, 0, 60, 0
3, 43168, Note_on_c, 0, 84, 0
3, 43176, Note_on_c, 0, 77, 0
3, 43182, Note_on_c, 0, 58, 0
3, 43186, Note_on_c, 0, 81, 0
3, 43230, Note_on_c, 0, 62, 40
3, 43232, Note_on_c, 0, 84, 46
3, 43234, Note_on_c, 0, 58, 31
3, 43238, Note_on_c, 0, 77, 32
3, 43240, Note_on_c, 0, 60, 41
3, 43240, Note_on_c, 0, 72, 24
3, 43240, Note_on_c, 0, 81, 35
3, 43310, Note_on_c, 0, 60, 0
3, 43316, Note_on_c, 0, 84, 0
3, 43316, Note_on_c, 0, 72, 0
3, 43316, Note_on_c, 0, 77, 0
3, 43318, Note_on_c, 0, 62, 0
3, 43326, Note_on_c, 0, 81, 0
3, 43330, Note_on_c, 0, 58, 0
3, 43406, Note_on_c, 0, 84, 36
3, 43408, Note_on_c, 0, 62, 38
3, 43410, Note_on_c, 0, 72, 22
3, 43410, Note_on_c, 0, 58, 27
3, 43410, Note_on_c, 0, 60, 47
3, 43412, Note_on_c, 0, 81, 33
3, 43412, Note_on_c, 0, 77, 29
3, 43500, Note_on_c, 0, 60, 0
3, 43506, Note_on_c, 0, 62, 0
3, 43510, Note_on_c, 0, 72, 0
3, 43516, Note_on_c, 0, 77, 0
3, 43520, Note_on_c, 0, 84, 0
3, 43526, Note_on_c, 0, 58, 0
3, 43532, Note_on_c, 0, 81, 0
3, 43614, Note_on_c, 0, 62, 34
3, 43614, Note_on_c, 0, 84, 38
3, 43618, Note_on_c, 0, 58, 28
3, 43620, Note_on_c, 0, 77, 33
3, 43620, Note_on_c, 0, 60, 41
3, 43622, Note_on_c, 0, 72, 19
3, 43624, Note_on_c, 0, 81, 31
3, 43682, Note_on_c, 0, 60, 0
3, 43692, Note_on_c, 0, 62, 0
3, 43696, Note_on_c, 0, 72, 0
3, 43702, Note_on_c, 0, 77, 0
3, 43708, Note_on_c, 0, 58, 0
3, 43710, Note_on_c, 0, 84, 0
3, 43718, Note_on_c, 0, 81, 0
3, 43794, Note_on_c, 0, 84, 36
3, 43796, Note_on_c, 0, 62, 33
3, 43796, Note_on_c, 0, 60, 46
3, 43798, Note_on_c, 0, 72, 25
3, 43798, Note_on_c, 0, 77, 32
3, 43800, Note_on_c, 0, 58, 23
3, 43800, Note_on_c, 0, 81, 33
3, 44004, Note_on_c, 0, 84, 0
3, 44030, Note_on_c, 0, 60, 0
3, 44032, Note_on_c, 0, 62, 0
3, 44044, Note_on_c, 0, 81, 0
3, 44054, Note_on_c, 0, 77, 0
3, 44060, Note_on_c, 0, 58, 0
3, 44074, Note_on_c, 0, 72, 0
3, 44174, Note_on_c, 0, 62, 34
3, 44176, Note_on_c, 0, 58, 25
3, 44180, Note_on_c, 0, 60, 42
3, 44242, Note_on_c, 0, 62, 0
3, 44256, Note_on_c, 0, 60, 0
3, 44290, Note_on_c, 0, 58, 0
3, 44338, Note_on_c, 0, 64, 54
3, 44380, Note_on_c, 0, 64, 0
3, 44426, Note_on_c, 0, 72, 79
3, 44470, Note_on_c, 0, 72, 0
3, 44494, Note_on_c, 0, 72, 62
3, 44542, Note_on_c, 0, 72, 0
3, 44566, Note_on_c, 0, 72, 57
3, 44568, Note_on_c, 0, 48, 42
3, 44572, Note_on_c, 0, 64, 57
3, 44572, Control_c, 0, 64, 0
3, 44574, Note_on_c, 0, 68, 47
3, 44578, Note_on_c, 0, 58, 21
3, 44630, Control_c, 0, 64, 127
3, 44754, Note_on_c, 0, 48, 0
3, 44782, Note_on_c, 0, 48, 56
3, 44784, Note_on_c, 0, 58, 0
3, 44796, Note_on_c, 0, 68, 0
3, 44796, Note_on_c, 0, 72, 0
3, 44820, Note_on_c, 0, 64, 0
3, 44944, Note_on_c, 0, 58, 52
3, 44944, Note_on_c, 0, 61, 50
3, 44946, Note_on_c, 0, 64, 55
3, 44954, Note_on_c, 0, 55, 46
3, 45230, Note_on_c, 0, 55, 0
3, 45264, Note_on_c, 0, 61, 0
3, 45268, Note_on_c, 0, 58, 0
3, 45338, Note_on_c, 0, 61, 37
3, 45344, Note_on_c, 0, 58, 25
3, 45602, Note_on_c, 0, 58, 0
3, 45610, Note_on_c, 0, 61, 0
3, 45708, Note_on_c, 0, 61, 36
3, 45712, Note_on_c, 0, 58, 29
3, 45724, Note_on_c, 0, 55, 22
3, 45744, Note_on_c, 0, 58, 0
3, 45744, Note_on_c, 0, 64, 0
3, 45752, Note_on_c, 0, 61, 0
3, 45776, Note_on_c, 0, 48, 0
3, 45910, Note_on_c, 0, 48, 45
3, 45940, Note_on_c, 0, 55, 0
3, 45944, Note_on_c, 0, 48, 0
3, 46014, Note_on_c, 0, 76, 87
3, 46018, Note_on_c, 0, 64, 87
3, 46042, Note_on_c, 0, 64, 0
3, 46056, Note_on_c, 0, 76, 0
3, 46100, Note_on_c, 0, 74, 76
3, 46102, Note_on_c, 0, 71, 65
3, 46104, Control_c, 0, 64, 0
3, 46104, Note_on_c, 0, 62, 72
3, 46104, Note_on_c, 0, 52, 55
3, 46106, Note_on_c, 0, 45, 59
3, 46106, Note_on_c, 0, 67, 69
3, 46106, Note_on_c, 0, 55, 64
3, 46198, Control_c, 0, 64, 127
3, 46210, Note_on_c, 0, 62, 0
3, 46214, Note_on_c, 0, 55, 0
3, 46216, Note_on_c, 0, 67, 0
3, 46216, Note_on_c, 0, 74, 0
3, 46232, Note_on_c, 0, 52, 0
3, 46234, Note_on_c, 0, 71, 0
3, 46246, Note_on_c, 0, 74, 57
3, 46248, Note_on_c, 0, 71, 50
3, 46248, Note_on_c, 0, 67, 60
3, 46250, Note_on_c, 0, 55, 63
3, 46250, Note_on_c, 0, 62, 62
3, 46304, Note_on_c, 0, 45, 0
3, 46314, Note_on_c, 0, 62, 0
3, 46322, Note_on_c, 0, 55, 0
3, 46338, Note_on_c, 0, 67, 0
3, 46358, Note_on_c, 0, 74, 0
3, 46358, Note_on_c, 0, 71, 0
3, 46474, Note_on_c, 0, 57, 77
3, 46476, Note_on_c, 0, 86, 91
3, 46478, Note_on_c, 0, 60, 79
3, 46478, Note_on_c, 0, 83, 73
3, 46478, Note_on_c, 0, 55, 77
3, 46480, Note_on_c, 0, 64, 80
3, 46480, Note_on_c, 0, 79, 72
3, 46480, Note_on_c, 0, 74, 61
3, 46480, Note_on_c, 0, 81, 72
3, 46486, Note_on_c, 0, 58, 40
3, 46488, Control_c, 0, 64, 0
3, 46492, Note_on_c, 0, 74, 0
3, 46496, Note_on_c, 0, 58, 0
3, 46510, Control_c, 0, 64, 127
3, 46534, Note_on_c, 0, 86, 0
3, 46538, Note_on_c, 0, 81, 0
3, 46544, Note_on_c, 0, 79, 0
3, 46550, Note_on_c, 0, 55, 0
3, 46554, Note_on_c, 0, 64, 0
3, 46556, Note_on_c, 0, 60, 0
3, 46562, Note_on_c, 0, 57, 0
3, 46562, Note_on_c, 0, 83, 0
3, 46604, Control_c, 0, 64, 0
3, 46610, Note_on_c, 0, 86, 84
3, 46610, Note_on_c, 0, 83, 74
3, 46612, Note_on_c, 0, 57, 67
3, 46612, Note_on_c, 0, 60, 76
3, 46612, Note_on_c, 0, 55, 74
3, 46612, Note_on_c, 0, 64, 74
3, 46612, Note_on_c, 0, 74, 75
3, 46612, Note_on_c, 0, 79, 74
3, 46656, Note_on_c, 0, 79, 0
3, 46656, Note_on_c, 0, 74, 0
3, 46666, Note_on_c, 0, 86, 0
3, 46668, Note_on_c, 0, 83, 0
3, 46672, Note_on_c, 0, 55, 0
3, 46672, Note_on_c, 0, 64, 0
3, 46674, Note_on_c, 0, 57, 0
3, 46676, Note_on_c, 0, 60, 0
3, 46728, Note_on_c, 0, 64, 66
3, 46730, Note_on_c, 0, 60, 68
3, 46730, Note_on_c, 0, 86, 78
3, 46730, Note_on_c, 0, 57, 58
3, 46732, Note_on_c, 0, 83, 62
3, 46732, Note_on_c, 0, 74, 68
3, 46734, Note_on_c, 0, 55, 54
3, 46736, Note_on_c, 0, 79, 45
3, 46746, Note_on_c, 0, 55, 0
3, 46746, Note_on_c, 0, 64, 0
3, 46748, Note_on_c, 0, 57, 0
3, 46750, Note_on_c, 0, 60, 0
3, 46750, Note_on_c, 0, 74, 0
3, 46752, Note_on_c, 0, 79, 0
3, 46756, Note_on_c, 0, 86, 0
3, 46760, Note_on_c, 0, 83, 0
3, 46764, Control_c, 0, 64, 127
3, 46790, Note_on_c, 0, 60, 56
3, 46790, Note_on_c, 0, 64, 58
3, 46790, Note_on_c, 0, 84, 61
3, 46790, Note_on_c, 0, 57, 48
3, 46792, Note_on_c, 0, 72, 50
3, 46796, Note_on_c, 0, 55, 38
3, 46806, Note_on_c, 0, 64, 0
3, 46810, Note_on_c, 0, 72, 0
3, 46810, Note_on_c, 0, 60, 0
3, 46810, Note_on_c, 0, 55, 0
3, 46812, Note_on_c, 0, 57, 0
3, 46820, Note_on_c, 0, 84, 0
3, 46840, Control_c, 0, 64, 0
3, 46852, Note_on_c, 0, 86, 88
3, 46852, Note_on_c, 0, 74, 74
3, 46854, Note_on_c, 0, 83, 66
3, 46854, Note_on_c, 0, 79, 64
3, 46854, Note_on_c, 0, 60, 70
3, 46854, Note_on_c, 0, 57, 69
3, 46856, Note_on_c, 0, 55, 70
3, 46856, Note_on_c, 0, 64, 68
3, 46898, Control_c, 0, 64, 127
3, 47140, Note_on_c, 0, 64, 0
3, 47146, Note_on_c, 0, 60, 0
3, 47234, Note_on_c, 0, 60, 45
3, 47236, Note_on_c, 0, 64, 32
3, 47278, Note_on_c, 0, 55, 0
3, 47360, Note_on_c, 0, 86, 0
3, 47368, Note_on_c, 0, 64, 0
3, 47434, Note_on_c, 0, 83, 0
3, 47438, Note_on_c, 0, 74, 0
3, 47440, Note_on_c, 0, 79, 0
3, 47508, Note_on_c, 0, 60, 0
3, 47508, Note_on_c, 0, 57, 0
3, 47546, Note_on_c, 0, 72, 33
3, 47550, Note_on_c, 0, 79, 33
3, 47552, Note_on_c, 0, 84, 28
3, 47552, Note_on_c, 0, 55, 44
3, 47572, Note_on_c, 0, 72, 0
3, 47576, Note_on_c, 0, 79, 0
3, 47580, Note_on_c, 0, 55, 0
3, 47584, Note_on_c, 0, 84, 0
3, 47650, Note_on_c, 0, 78, 34
3, 47650, Note_on_c, 0, 54, 44
3, 47650, Note_on_c, 0, 74, 39
3, 47652, Note_on_c, 0, 86, 58
3, 47654, Note_on_c, 0, 64, 35
3, 47656, Note_on_c, 0, 60, 26
3, 47658, Control_c, 0, 64, 0
3, 47706, Control_c, 0, 64, 127
3, 47788, Note_on_c, 0, 86, 0
3, 47792, Note_on_c, 0, 64, 0
3, 47810, Note_on_c, 0, 74, 0
3, 47816, Note_on_c, 0, 78, 0
3, 47838, Note_on_c, 0, 60, 0
3, 48000, Note_on_c, 0, 80, 39
3, 48006, Note_on_c, 0, 68, 25
3, 48008, Note_on_c, 0, 77, 49
3, 48010, Note_on_c, 0, 60, 26
3, 48012, Note_on_c, 0, 64, 24
3, 48114, Note_on_c, 0, 64, 0
3, 48120, Note_on_c, 0, 60, 0
3, 48158, Note_on_c, 0, 54, 0
3, 48282, Note_on_c, 0, 68, 0
3, 48290, Note_on_c, 0, 77, 0
3, 48298, Note_on_c, 0, 80, 0
3, 48384, Note_on_c, 0, 54, 25
3, 48386, Note_on_c, 0, 80, 44
3, 48388, Note_on_c, 0, 60, 33
3, 48388, Note_on_c, 0, 68, 32
3, 48392, Note_on_c, 0, 50, 26
3, 48392, Control_c, 0, 64, 0
3, 48394, Note_on_c, 0, 77, 32
3, 48424, Control_c, 0, 64, 127
3, 48622, Note_on_c, 0, 60, 0
3, 48648, Note_on_c, 0, 54, 0
3, 48650, Note_on_c, 0, 68, 0
3, 48676, Note_on_c, 0, 80, 0
3, 48678, Note_on_c, 0, 77, 0
3, 48902, Note_on_c, 0, 77, 48
3, 48904, Note_on_c, 0, 81, 51
3, 48904, Note_on_c, 0, 54, 34
3, 48906, Note_on_c, 0, 69, 47
3, 48908, Note_on_c, 0, 60, 29
3, 48938, Note_on_c, 0, 60, 0
3, 48952, Note_on_c, 0, 81, 0
3, 48966, Note_on_c, 0, 77, 0
3, 48974, Note_on_c, 0, 50, 0
3, 48976, Note_on_c, 0, 54, 0
3, 48978, Note_on_c, 0, 69, 0
3, 49150, Note_on_c, 0, 58, 36
3, 49152, Note_on_c, 0, 62, 50
3, 49156, Note_on_c, 0, 43, 33
3, 49156, Control_c, 0, 64, 0
3, 49158, Note_on_c, 0, 53, 28
3, 49158, Note_on_c, 0, 50, 34
3, 49230, Control_c, 0, 64, 127
3, 49376, Note_on_c, 0, 43, 0
3, 49378, Note_on_c, 0, 58, 0
3, 49382, Note_on_c, 0, 50, 0
3, 49400, Note_on_c, 0, 53, 0
3, 49476, Note_on_c, 0, 62, 0
3, 49570, Note_on_c, 0, 69, 85
3, 49570, Note_on_c, 0, 62, 87
3, 49570, Note_on_c, 0, 58, 87
3, 49572, Note_on_c, 0, 57, 92
3, 49574, Note_on_c, 0, 65, 71
3, 49574, Note_on_c, 0, 68, 55
3, 49578, Control_c, 0, 64, 0
3, 49584, Note_on_c, 0, 52, 39
3, 49586, Note_on_c, 0, 67, 35
3, 49588, Note_on_c, 0, 50, 24
3, 49594, Note_on_c, 0, 68, 0
3, 49596, Note_on_c, 0, 52, 0
3, 49598, Note_on_c, 0, 50, 0
3, 49642, Note_on_c, 0, 67, 0
3, 49660, Note_on_c, 0, 58, 0
3, 49660, Note_on_c, 0, 57, 0
3, 49668, Note_on_c, 0, 69, 0
3, 49668, Note_on_c, 0, 65, 0
3, 49672, Note_on_c, 0, 62, 0
3, 49716, Note_on_c, 0, 69, 75
3, 49718, Note_on_c, 0, 58, 70
3, 49720, Note_on_c, 0, 62, 69
3, 49724, Note_on_c, 0, 57, 87
3, 49724, Note_on_c, 0, 65, 55
3, 49740, Note_on_c, 0, 58, 0
3, 49744, Note_on_c, 0, 57, 0
3, 49754, Note_on_c, 0, 62, 0
3, 49756, Note_on_c, 0, 69, 0
3, 49764, Note_on_c, 0, 65, 0
3, 49946, Note_on_c, 0, 69, 68
3, 49948, Note_on_c, 0, 58, 60
3, 49948, Note_on_c, 0, 62, 65
3, 49950, Control_c, 0, 64, 127
3, 49950, Note_on_c, 0, 57, 74
3, 49956, Note_on_c, 0, 65, 49
3, 50028, Note_on_c, 0, 65, 0
3, 50034, Note_on_c, 0, 69, 0
3, 50036, Note_on_c, 0, 58, 0
3, 50038, Note_on_c, 0, 62, 0
3, 50040, Note_on_c, 0, 57, 0
3, 50088, Note_on_c, 0, 69, 64
3, 50090, Note_on_c, 0, 58, 50
3, 50092, Note_on_c, 0, 62, 58
3, 50092, Note_on_c, 0, 57, 58
3, 50096, Note_on_c, 0, 65, 50
3, 50158, Note_on_c, 0, 58, 0
3, 50160, Note_on_c, 0, 69, 0
3, 50162, Note_on_c, 0, 65, 0
3, 50164, Note_on_c, 0, 62, 0
3, 50174, Note_on_c, 0, 57, 0
3, 50282, Note_on_c, 0, 56, 30
3, 50286, Note_on_c, 0, 58, 49
3, 50306, Note_on_c, 0, 59, 74
3, 50316, Note_on_c, 0, 56, 0
3, 50322, Note_on_c, 0, 58, 0
3, 50326, Note_on_c, 0, 72, 73
3, 50328, Note_on_c, 0, 69, 81
3, 50328, Note_on_c, 0, 65, 79
3, 50328, Note_on_c, 0, 62, 87
3, 50328, Control_c, 0, 64, 0
3, 50332, Note_on_c, 0, 60, 77
3, 50348, Note_on_c, 0, 59, 0
3, 50406, Control_c, 0, 64, 127
3, 50500, Note_on_c, 0, 60, 0
3, 50530, Note_on_c, 0, 69, 0
3, 50534, Note_on_c, 0, 72, 0
3, 50542, Note_on_c, 0, 65, 0
3, 50560, Note_on_c, 0, 62, 0
3, 50676, Note_on_c, 0, 55, 57
3, 50704, Note_on_c, 0, 69, 63
3, 50710, Control_c, 0, 64, 0
3, 50712, Note_on_c, 0, 62, 48
3, 50712, Note_on_c, 0, 65, 47
3, 50712, Note_on_c, 0, 58, 25
3, 50714, Note_on_c, 0, 55, 0
3, 50716, Note_on_c, 0, 57, 51
3, 50828, Control_c, 0, 64, 127
3, 50842, Note_on_c, 0, 48, 55
3, 50970, Note_on_c, 0, 57, 0
3, 50988, Note_on_c, 0, 65, 0
3, 50994, Note_on_c, 0, 58, 0
3, 50998, Note_on_c, 0, 62, 0
3, 51076, Note_on_c, 0, 58, 31
3, 51080, Note_on_c, 0, 65, 38
3, 51082, Note_on_c, 0, 62, 44
3, 51088, Note_on_c, 0, 57, 33
3, 51186, Note_on_c, 0, 57, 0
3, 51238, Note_on_c, 0, 69, 0
3, 51248, Note_on_c, 0, 48, 0
3, 51260, Note_on_c, 0, 65, 0
3, 51266, Note_on_c, 0, 62, 0
3, 51272, Note_on_c, 0, 58, 0
3, 51454, Note_on_c, 0, 48, 36
3, 51454, Note_on_c, 0, 58, 33
3, 51454, Note_on_c, 0, 62, 49
3, 51456, Note_on_c, 0, 65, 42
3, 51458, Note_on_c, 0, 53, 30
3, 51460, Control_c, 0, 64, 0
3, 51480, Note_on_c, 0, 53, 0
3, 51482, Note_on_c, 0, 58, 0
3, 51484, Note_on_c, 0, 48, 0
3, 51488, Note_on_c, 0, 65, 0
3, 51488, Note_on_c, 0, 62, 0
3, 51612, Note_on_c, 0, 58, 34
3, 51616, Note_on_c, 0, 65, 40
3, 51616, Note_on_c, 0, 62, 42
3, 51616, Note_on_c, 0, 53, 36
3, 51622, Note_on_c, 0, 48, 34
3, 51688, Control_c, 0, 64, 127
3, 51900, Note_on_c, 0, 65, 0
3, 51902, Note_on_c, 0, 48, 0
3, 51928, Note_on_c, 0, 53, 0
3, 52020, Note_on_c, 0, 62, 0
3, 52062, Note_on_c, 0, 65, 62
3, 52084, Note_on_c, 0, 58, 0
3, 52102, Note_on_c, 0, 65, 0
3, 52116, Note_on_c, 0, 62, 46
3, 52170, Note_on_c, 0, 62, 0
3, 52186, Note_on_c, 0, 57, 49
3, 52188, Note_on_c, 0, 65, 48
3, 52190, Note_on_c, 0, 60, 49
3, 52192, Note_on_c, 0, 48, 30
3, 52192, Note_on_c, 0, 41, 39
3, 52192, Control_c, 0, 64, 0
3, 52318, Control_c, 0, 64, 127
3, 52434, Note_on_c, 0, 60, 0
3, 52442, Note_on_c, 0, 57, 0
3, 52594, Note_on_c, 0, 53, 34
3, 52598, Note_on_c, 0, 57, 30
3, 52598, Note_on_c, 0, 60, 36
3, 52790, Note_on_c, 0, 53, 0
3, 52802, Note_on_c, 0, 60, 0
3, 52806, Note_on_c, 0, 41, 0
3, 52840, Note_on_c, 0, 57, 0
3, 52868, Note_on_c, 0, 41, 42
3, 52924, Note_on_c, 0, 65, 0
3, 52950, Note_on_c, 0, 48, 0
3, 52958, Note_on_c, 0, 41, 0
3, 52982, Note_on_c, 0, 53, 75
3, 52984, Note_on_c, 0, 61, 70
3, 52984, Note_on_c, 0, 41, 70
3, 52984, Note_on_c, 0, 57, 76
3, 52988, Note_on_c, 0, 49, 69
3, 52998, Control_c, 0, 64, 0
3, 53108, Control_c, 0, 64, 127
3, 53396, Note_on_c, 0, 52, 22
3, 53492, Note_on_c, 0, 41, 0
3, 53586, Note_on_c, 0, 52, 0
3, 53630, Note_on_c, 0, 41, 18
3, 53636, Note_on_c, 0, 53, 0
3, 53692, Note_on_c, 0, 57, 0
3, 53692, Note_on_c, 0, 61, 0
3, 53694, Note_on_c, 0, 41, 0
3, 53718, Note_on_c, 0, 49, 0
3, 53758, Note_on_c, 0, 48, 43
3, 53758, Control_c, 0, 64, 0
3, 53762, Note_on_c, 0, 41, 32
3, 53762, Note_on_c, 0, 53, 44
3, 53764, Note_on_c, 0, 57, 49
3, 53766, Note_on_c, 0, 60, 49
3, 53770, Note_on_c, 0, 64, 31
3, 53788, Note_on_c, 0, 53, 0
3, 53790, Note_on_c, 0, 60, 0
3, 53792, Note_on_c, 0, 57, 0
3, 53792, Note_on_c, 0, 48, 0
3, 53792, Note_on_c, 0, 64, 0
3, 53798, Note_on_c, 0, 41, 0
3, 54014, Note_on_c, 0, 60, 90
3, 54014, Note_on_c, 0, 48, 95
3, 54016, Note_on_c, 0, 52, 92
3, 54016, Note_on_c, 0, 55, 85
3, 54016, Note_on_c, 0, 57, 81
3, 54104, Note_on_c, 0, 52, 0
3, 54110, Note_on_c, 0, 48, 0
3, 54114, Note_on_c, 0, 55, 0
3, 54116, Note_on_c, 0, 57, 0
3, 54118, Note_on_c, 0, 60, 0
3, 54258, Note_on_c, 0, 62, 87
3, 54258, Note_on_c, 0, 53, 92
3, 54258, Note_on_c, 0, 57, 84
3, 54260, Note_on_c, 0, 50, 96
3, 54260, Note_on_c, 0, 59, 80
3, 54262, Note_on_c, 0, 58, 62
3, 54346, Note_on_c, 0, 58, 0
3, 54354, Note_on_c, 0, 53, 0
3, 54360, Note_on_c, 0, 59, 0
3, 54362, Note_on_c, 0, 57, 0
3, 54366, Note_on_c, 0, 62, 0
3, 54368, Note_on_c, 0, 50, 0
3, 54462, Note_on_c, 0, 50, 38
3, 54470, Note_on_c, 0, 51, 54
3, 54490, Note_on_c, 0, 52, 54
3, 54494, Note_on_c, 0, 50, 0
3, 54502, Note_on_c, 0, 62, 80
3, 54502, Note_on_c, 0, 60, 81
3, 54504, Note_on_c, 0, 53, 88
3, 54504, Note_on_c, 0, 65, 81
3, 54504, Note_on_c, 0, 57, 72
3, 54508, Note_on_c, 0, 59, 71
3, 54518, Note_on_c, 0, 51, 0
3, 54520, Note_on_c, 0, 59, 0
3, 54526, Note_on_c, 0, 52, 0
3, 54614, Note_on_c, 0, 57, 0
3, 54626, Note_on_c, 0, 60, 0
3, 54626, Note_on_c, 0, 62, 0
3, 54628, Note_on_c, 0, 65, 0
3, 54628, Note_on_c, 0, 53, 0
3, 54698, Note_on_c, 0, 53, 24
3, 54704, Note_on_c, 0, 54, 34
3, 54742, Note_on_c, 0, 53, 0
3, 54754, Note_on_c, 0, 56, 53
3, 54756, Note_on_c, 0, 57, 88
3, 54758, Note_on_c, 0, 65, 74
3, 54758, Note_on_c, 0, 62, 85
3, 54758, Note_on_c, 0, 69, 78
3, 54762, Note_on_c, 0, 59, 71
3, 54762, Note_on_c, 0, 60, 79
3, 54768, Note_on_c, 0, 67, 36
3, 54770, Note_on_c, 0, 56, 0
3, 54772, Note_on_c, 0, 54, 0
3, 54782, Note_on_c, 0, 67, 0
3, 54818, Note_on_c, 0, 59, 0
3, 54898, Control_c, 0, 64, 127
3, 54954, Note_on_c, 0, 60, 0
3, 54966, Note_on_c, 0, 57, 0
3, 54980, Note_on_c, 0, 62, 0
3, 54998, Note_on_c, 0, 65, 0
3, 55006, Note_on_c, 0, 69, 0
3, 55290, Control_c, 0, 64, 0
3, 55310, Note_on_c, 0, 54, 37
3, 55314, Note_on_c, 0, 94, 59
3, 55318, Note_on_c, 0, 64, 28
3, 55318, Note_on_c, 0, 82, 33
3, 55320, Note_on_c, 0, 60, 36
3, 55322, Note_on_c, 0, 89, 44
3, 55368, Note_on_c, 0, 89, 0
3, 55368, Note_on_c, 0, 94, 0
3, 55372, Note_on_c, 0, 82, 0
3, 55378, Note_on_c, 0, 60, 0
3, 55382, Note_on_c, 0, 64, 0
3, 55382, Note_on_c, 0, 54, 0
3, 55550, Note_on_c, 0, 94, 49
3, 55552, Note_on_c, 0, 82, 34
3, 55556, Note_on_c, 0, 89, 38
3, 55620, Note_on_c, 0, 89, 0
3, 55622, Note_on_c, 0, 82, 0
3, 55622, Note_on_c, 0, 94, 0
3, 55682, Note_on_c, 0, 54, 30
3, 55684, Note_on_c, 0, 94, 38
3, 55688, Note_on_c, 0, 82, 32
3, 55688, Note_on_c, 0, 64, 24
3, 55690, Note_on_c, 0, 60, 35
3, 55692, Note_on_c, 0, 89, 35
3, 55736, Note_on_c, 0, 64, 0
3, 55744, Note_on_c, 0, 60, 0
3, 55746, Note_on_c, 0, 54, 0
3, 55746, Note_on_c, 0, 89, 0
3, 55750, Note_on_c, 0, 94, 0
3, 55752, Note_on_c, 0, 82, 0
3, 55928, Note_on_c, 0, 92, 46
3, 55934, Note_on_c, 0, 87, 49
3, 55936, Note_on_c, 0, 80, 21
3, 56028, Note_on_c, 0, 92, 0
3, 56040, Note_on_c, 0, 80, 0
3, 56048, Note_on_c, 0, 87, 0
3, 56052, Note_on_c, 0, 54, 35
3, 56054, Note_on_c, 0, 93, 48
3, 56056, Note_on_c, 0, 64, 30
3, 56056, Note_on_c, 0, 81, 29
3, 56058, Note_on_c, 0, 88, 42
3, 56062, Note_on_c, 0, 60, 34
3, 56074, Note_on_c, 0, 88, 0
3, 56074, Note_on_c, 0, 93, 0
3, 56080, Note_on_c, 0, 60, 0
3, 56086, Note_on_c, 0, 81, 0
3, 56086, Note_on_c, 0, 64, 0
3, 56096, Note_on_c, 0, 54, 0
3, 56282, Control_c, 0, 64, 127
3, 56426, Note_on_c, 0, 54, 49
3, 56430, Note_on_c, 0, 64, 44
3, 56440, Note_on_c, 0, 60, 34
3, 56446, Note_on_c, 0, 64, 0
3, 56454, Note_on_c, 0, 60, 0
3, 56466, Note_on_c, 0, 54, 0
3, 56520, Control_c, 0, 64, 0
3, 56564, Note_on_c, 0, 73, 62
3, 56564, Note_on_c, 0, 61, 86
3, 56564, Note_on_c, 0, 68, 74
3, 56614, Note_on_c, 0, 61, 0
3, 56620, Note_on_c, 0, 68, 0
3, 56632, Note_on_c, 0, 73, 0
3, 56670, Control_c, 0, 64, 127
3, 56682, Note_on_c, 0, 62, 87
3, 56682, Note_on_c, 0, 54, 65
3, 56682, Note_on_c, 0, 74, 73
3, 56682, Note_on_c, 0, 69, 80
3, 56696, Note_on_c, 0, 60, 44
3, 56704, Note_on_c, 0, 62, 0
3, 56708, Note_on_c, 0, 60, 0
3, 56710, Note_on_c, 0, 69, 0
3, 56718, Note_on_c, 0, 54, 0
3, 56720, Note_on_c, 0, 74, 0
3, 56800, Control_c, 0, 64, 0
3, 56810, Note_on_c, 0, 54, 75
3, 56810, Note_on_c, 0, 82, 75
3, 56810, Note_on_c, 0, 74, 79
3, 56812, Note_on_c, 0, 77, 68
3, 56814, Note_on_c, 0, 70, 80
3, 56814, Note_on_c, 0, 60, 81
3, 56814, Note_on_c, 0, 64, 88
3, 56840, Note_on_c, 0, 70, 0
3, 56844, Control_c, 0, 64, 127
3, 56860, Note_on_c, 0, 74, 0
3, 56862, Note_on_c, 0, 64, 0
3, 56868, Note_on_c, 0, 60, 0
3, 56868, Note_on_c, 0, 82, 0
3, 56872, Note_on_c, 0, 54, 0
3, 56874, Note_on_c, 0, 77, 0
3, 56888, Note_on_c, 0, 54, 32
3, 56904, Note_on_c, 0, 60, 37
3, 56912, Note_on_c, 0, 64, 43
3, 56912, Note_on_c, 0, 77, 47
3, 56912, Note_on_c, 0, 74, 34
3, 56914, Note_on_c, 0, 54, 0
3, 56940, Note_on_c, 0, 64, 0
3, 56944, Note_on_c, 0, 60, 0
3, 56944, Note_on_c, 0, 70, 42
3, 56944, Note_on_c, 0, 54, 62
3, 56946, Note_on_c, 0, 74, 0
3, 56948, Note_on_c, 0, 77, 0
3, 56968, Note_on_c, 0, 70, 0
3, 56970, Note_on_c, 0, 82, 44
3, 56978, Note_on_c, 0, 77, 34
3, 56982, Note_on_c, 0, 74, 24
3, 56986, Note_on_c, 0, 54, 0
3, 56986, Note_on_c, 0, 60, 30
3, 56988, Note_on_c, 0, 64, 35
3, 56998, Note_on_c, 0, 82, 0
3, 57004, Note_on_c, 0, 70, 55
3, 57006, Note_on_c, 0, 60, 0
3, 57010, Note_on_c, 0, 54, 57
3, 57012, Note_on_c, 0, 64, 0
3, 57014, Note_on_c, 0, 74, 0
3, 57016, Note_on_c, 0, 77, 0
3, 57036, Note_on_c, 0, 70, 0
3, 57046, Note_on_c, 0, 77, 38
3, 57054, Note_on_c, 0, 74, 22
3, 57056, Note_on_c, 0, 54, 0
3, 57056, Note_on_c, 0, 60, 41
3, 57068, Note_on_c, 0, 64, 32
3, 57078, Note_on_c, 0, 60, 0
3, 57084, Note_on_c, 0, 70, 32
3, 57090, Note_on_c, 0, 77, 0
3, 57090, Note_on_c, 0, 74, 0
3, 57092, Note_on_c, 0, 64, 0
3, 57092, Note_on_c, 0, 54, 45
3, 57106, Note_on_c, 0, 82, 36
3, 57134, Note_on_c, 0, 54, 0
3, 57134, Note_on_c, 0, 60, 43
3, 57136, Note_on_c, 0, 70, 0
3, 57148, Note_on_c, 0, 82, 0
3, 57170, Note_on_c, 0, 60, 0
3, 57188, Note_on_c, 0, 74, 61
3, 57188, Note_on_c, 0, 54, 64
3, 57188, Note_on_c, 0, 69, 58
3, 57190, Note_on_c, 0, 81, 54
3, 57190, Note_on_c, 0, 77, 31
3, 57190, Note_on_c, 0, 60, 36
3, 57192, Note_on_c, 0, 64, 55
3, 57194, Control_c, 0, 64, 0
3, 57248, Control_c, 0, 64, 127
3, 57368, Note_on_c, 0, 64, 0
3, 57400, Note_on_c, 0, 54, 0
3, 57432, Note_on_c, 0, 69, 0
3, 57440, Note_on_c, 0, 81, 0
3, 57456, Note_on_c, 0, 60, 0
3, 57468, Note_on_c, 0, 74, 0
3, 57474, Note_on_c, 0, 77, 0
3, 57576, Note_on_c, 0, 54, 65
3, 57578, Note_on_c, 0, 60, 74
3, 57580, Note_on_c, 0, 64, 69
3, 57580, Note_on_c, 0, 82, 72
3, 57582, Note_on_c, 0, 70, 71
3, 57582, Note_on_c, 0, 74, 68
3, 57584, Note_on_c, 0, 77, 54
3, 57584, Control_c, 0, 64, 0
3, 57608, Control_c, 0, 64, 127
3, 57750, Note_on_c, 0, 64, 0
3, 57758, Note_on_c, 0, 60, 0
3, 57778, Note_on_c, 0, 54, 0
3, 57800, Note_on_c, 0, 74, 0
3, 57812, Note_on_c, 0, 77, 0
3, 57816, Note_on_c, 0, 82, 0
3, 57886, Note_on_c, 0, 70, 0
3, 58102, Note_on_c, 0, 54, 53
3, 58104, Note_on_c, 0, 81, 58
3, 58106, Note_on_c, 0, 74, 64
3, 58108, Note_on_c, 0, 60, 60
3, 58110, Note_on_c, 0, 69, 62
3, 58112, Note_on_c, 0, 64, 36
3, 58114, Note_on_c, 0, 77, 51
3, 58126, Note_on_c, 0, 69, 0
3, 58132, Note_on_c, 0, 64, 0
3, 58136, Note_on_c, 0, 81, 0
3, 58156, Note_on_c, 0, 54, 0
3, 58156, Note_on_c, 0, 77, 0
3, 58158, Note_on_c, 0, 74, 0
3, 58160, Note_on_c, 0, 60, 0
3, 58218, Note_on_c, 0, 54, 52
3, 58220, Note_on_c, 0, 82, 60
3, 58222, Note_on_c, 0, 70, 57
3, 58224, Note_on_c, 0, 74, 42
3, 58238, Note_on_c, 0, 74, 0
3, 58272, Note_on_c, 0, 70, 0
3, 58278, Note_on_c, 0, 82, 0
3, 58280, Note_on_c, 0, 54, 0
3, 58342, Control_c, 0, 64, 0
3, 58344, Note_on_c, 0, 55, 51
3, 58346, Note_on_c, 0, 62, 41
3, 58346, Note_on_c, 0, 59, 50
3, 58348, Note_on_c, 0, 83, 53
3, 58348, Note_on_c, 0, 71, 51
3, 58364, Note_on_c, 0, 76, 27
3, 58400, Control_c, 0, 64, 127
3, 58458, Note_on_c, 0, 76, 0
3, 58466, Note_on_c, 0, 83, 0
3, 58492, Note_on_c, 0, 62, 0
3, 58508, Note_on_c, 0, 59, 0
3, 58510, Note_on_c, 0, 71, 0
3, 58552, Note_on_c, 0, 55, 0
3, 58734, Note_on_c, 0, 62, 55
3, 58736, Note_on_c, 0, 57, 50
3, 58740, Note_on_c, 0, 60, 63
3, 58748, Note_on_c, 0, 55, 37
3, 58824, Note_on_c, 0, 55, 0
3, 58874, Note_on_c, 0, 50, 90
3, 58940, Note_on_c, 0, 57, 0
3, 58982, Note_on_c, 0, 60, 0
3, 58984, Note_on_c, 0, 62, 0
3, 58984, Note_on_c, 0, 43, 66
3, 59078, Note_on_c, 0, 43, 0
3, 59114, Note_on_c, 0, 64, 68
3, 59114, Note_on_c, 0, 53, 68
3, 59114, Note_on_c, 0, 57, 69
3, 59114, Note_on_c, 0, 43, 48
3, 59116, Note_on_c, 0, 60, 70
3, 59128, Control_c, 0, 64, 0
3, 59234, Control_c, 0, 64, 127
3, 59374, Note_on_c, 0, 50, 0
3, 59384, Note_on_c, 0, 53, 0
3, 59388, Note_on_c, 0, 60, 0
3, 59402, Note_on_c, 0, 57, 0
3, 59458, Note_on_c, 0, 64, 0
3, 59516, Note_on_c, 0, 53, 37
3, 59518, Note_on_c, 0, 62, 38
3, 59520, Note_on_c, 0, 50, 34
3, 59522, Note_on_c, 0, 59, 45
3, 59522, Note_on_c, 0, 57, 50
3, 59610, Note_on_c, 0, 53, 0
3, 59620, Note_on_c, 0, 43, 0
3, 59638, Note_on_c, 0, 50, 0
3, 59642, Note_on_c, 0, 57, 0
3, 59654, Note_on_c, 0, 59, 0
3, 59678, Note_on_c, 0, 62, 0
3, 59908, Control_c, 0, 64, 0
3, 59910, Note_on_c, 0, 72, 60
3, 59910, Note_on_c, 0, 65, 63
3, 59910, Note_on_c, 0, 62, 65
3, 59912, Note_on_c, 0, 58, 52
3, 59912, Note_on_c, 0, 48, 54
3, 59936, Note_on_c, 0, 62, 0
3, 59954, Control_c, 0, 64, 127
3, 59976, Note_on_c, 0, 62, 44
3, 59976, Note_on_c, 0, 65, 0
3, 60012, Note_on_c, 0, 62, 0
3, 60024, Note_on_c, 0, 65, 33
3, 60040, Note_on_c, 0, 65, 0
3, 60044, Note_on_c, 0, 58, 0
3, 60056, Note_on_c, 0, 62, 26
3, 60062, Note_on_c, 0, 72, 0
3, 60080, Note_on_c, 0, 62, 0
3, 60086, Note_on_c, 0, 72, 17
3, 60092, Note_on_c, 0, 65, 39
3, 60106, Note_on_c, 0, 65, 0
3, 60122, Note_on_c, 0, 62, 32
3, 60138, Note_on_c, 0, 48, 0
3, 60148, Note_on_c, 0, 62, 0
3, 60160, Note_on_c, 0, 65, 33
3, 60174, Note_on_c, 0, 65, 0
3, 60184, Note_on_c, 0, 62, 35
3, 60210, Note_on_c, 0, 62, 0
3, 60218, Note_on_c, 0, 65, 35
3, 60240, Note_on_c, 0, 65, 0
3, 60246, Note_on_c, 0, 62, 37
3, 60272, Note_on_c, 0, 62, 0
3, 60278, Note_on_c, 0, 65, 35
3, 60306, Note_on_c, 0, 65, 0
3, 60310, Note_on_c, 0, 62, 45
3, 60334, Note_on_c, 0, 62, 0
3, 60338, Note_on_c, 0, 65, 40
3, 60358, Note_on_c, 0, 65, 0
3, 60366, Note_on_c, 0, 62, 38
3, 60394, Note_on_c, 0, 62, 0
3, 60400, Note_on_c, 0, 65, 41
3, 60422, Note_on_c, 0, 65, 0
3, 60430, Note_on_c, 0, 62, 44
3, 60458, Note_on_c, 0, 62, 0
3, 60462, Note_on_c, 0, 60, 90
3, 60462, Note_on_c, 0, 65, 49
3, 60482, Note_on_c, 0, 65, 0
3, 60492, Note_on_c, 0, 62, 45
3, 60522, Note_on_c, 0, 62, 0
3, 60528, Note_on_c, 0, 65, 46
3, 60546, Note_on_c, 0, 65, 0
3, 60556, Note_on_c, 0, 62, 46
3, 60558, Note_on_c, 0, 72, 0
3, 60582, Note_on_c, 0, 72, 20
3, 60584, Note_on_c, 0, 62, 0
3, 60590, Note_on_c, 0, 65, 44
3, 60608, Note_on_c, 0, 65, 0
3, 60620, Note_on_c, 0, 62, 36
3, 60620, Note_on_c, 0, 72, 0
3, 60644, Note_on_c, 0, 72, 19
3, 60646, Note_on_c, 0, 62, 0
3, 60654, Note_on_c, 0, 65, 36
3, 60670, Note_on_c, 0, 65, 0
3, 60680, Note_on_c, 0, 62, 34
3, 60686, Note_on_c, 0, 72, 0
3, 60708, Note_on_c, 0, 72, 19
3, 60712, Note_on_c, 0, 62, 0
3, 60716, Note_on_c, 0, 65, 36
3, 60734, Note_on_c, 0, 65, 0
3, 60740, Note_on_c, 0, 60, 0
3, 60746, Note_on_c, 0, 62, 34
3, 60780, Note_on_c, 0, 62, 0
3, 60786, Note_on_c, 0, 65, 44
3, 60802, Note_on_c, 0, 55, 78
3, 60804, Note_on_c, 0, 65, 0
3, 60814, Note_on_c, 0, 62, 40
3, 60844, Note_on_c, 0, 62, 0
3, 60848, Note_on_c, 0, 65, 41
3, 60866, Note_on_c, 0, 65, 0
3, 60876, Note_on_c, 0, 62, 34
3, 60906, Note_on_c, 0, 62, 0
3, 60912, Note_on_c, 0, 65, 39
3, 60932, Note_on_c, 0, 65, 0
3, 60944, Note_on_c, 0, 62, 39
3, 60970, Note_on_c, 0, 62, 0
3, 60978, Note_on_c, 0, 65, 36
3, 60998, Note_on_c, 0, 65, 0
3, 61008, Note_on_c, 0, 62, 35
3, 61024, Note_on_c, 0, 72, 0
3, 61034, Note_on_c, 0, 55, 0
3, 61048, Note_on_c, 0, 72, 32
3, 61050, Note_on_c, 0, 58, 77
3, 61050, Note_on_c, 0, 65, 55
3, 61088, Note_on_c, 0, 65, 0
3, 61104, Note_on_c, 0, 72, 0
3, 61124, Note_on_c, 0, 65, 38
3, 61128, Note_on_c, 0, 62, 0
3, 61134, Note_on_c, 0, 58, 0
3, 61136, Note_on_c, 0, 72, 14
3, 61170, Note_on_c, 0, 65, 0
3, 61190, Note_on_c, 0, 62, 36
3, 61218, Note_on_c, 0, 72, 0
3, 61226, Note_on_c, 0, 62, 0
3, 61284, Note_on_c, 0, 73, 42
3, 61286, Note_on_c, 0, 61, 62
3, 61334, Note_on_c, 0, 61, 0
3, 61352, Note_on_c, 0, 73, 0
3, 61408, Note_on_c, 0, 48, 19
3, 61414, Note_on_c, 0, 41, 33
3, 61416, Note_on_c, 0, 74, 45
3, 61418, Note_on_c, 0, 62, 41
3, 61420, Note_on_c, 0, 69, 51
3, 61422, Note_on_c, 0, 57, 51
3, 61432, Control_c, 0, 64, 0
3, 61514, Control_c, 0, 64, 127
3, 61568, Note_on_c, 0, 41, 0
3, 61578, Note_on_c, 0, 48, 0
3, 61600, Note_on_c, 0, 57, 0
3, 61642, Note_on_c, 0, 62, 0
3, 61718, Note_on_c, 0, 69, 0
3, 61994, Note_on_c, 0, 74, 0
3, 62190, Control_c, 0, 64, 0
3, 62198, Note_on_c, 0, 65, 32
3, 62198, Note_on_c, 0, 60, 35
3, 62200, Note_on_c, 0, 69, 40
3, 62200, Note_on_c, 0, 67, 36
3, 62200, Control_c, 0, 64, 127
3, 62202, Note_on_c, 0, 53, 24
3, 62202, Note_on_c, 0, 57, 33
3, 62202, Note_on_c, 0, 64, 15
3, 62248, Note_on_c, 0, 64, 0
3, 62252, Note_on_c, 0, 60, 0
3, 62258, Note_on_c, 0, 69, 0
3, 62258, Note_on_c, 0, 57, 0
3, 62262, Note_on_c, 0, 67, 0
3, 62268, Note_on_c, 0, 65, 0
3, 62296, Note_on_c, 0, 53, 0
3, 62496, Note_on_c, 0, 50, 87
3, 62500, Note_on_c, 0, 65, 79
3, 62500, Control_c, 0, 64, 0
3, 62500, Note_on_c, 0, 62, 76
3, 62502, Note_on_c, 0, 60, 81
3, 62502, Note_on_c, 0, 57, 85
3, 62554, Control_c, 0, 64, 127
3, 62586, Control_c, 0, 64, 0
3, 62612, Control_c, 0, 64, 127
3, 62642, Note_on_c, 0, 57, 0
3, 62656, Note_on_c, 0, 60, 0
3, 62658, Note_on_c, 0, 62, 0
3, 62658, Note_on_c, 0, 65, 0
3, 62750, Control_c, 0, 64, 0
3, 62760, Note_on_c, 0, 67, 74
3, 62762, Note_on_c, 0, 62, 74
3, 62762, Note_on_c, 0, 50, 0
3, 62762, Note_on_c, 0, 60, 81
3, 62764, Note_on_c, 0, 52, 72
3, 62766, Note_on_c, 0, 64, 73
3, 62802, Control_c, 0, 64, 127
3, 62892, Note_on_c, 0, 67, 0
3, 62898, Note_on_c, 0, 60, 0
3, 62906, Note_on_c, 0, 64, 0
3, 62922, Note_on_c, 0, 62, 0
3, 62990, Control_c, 0, 64, 0
3, 63000, Note_on_c, 0, 52, 0
3, 63002, Note_on_c, 0, 53, 80
3, 63004, Note_on_c, 0, 69, 76
3, 63004, Note_on_c, 0, 65, 74
3, 63006, Note_on_c, 0, 62, 80
3, 63006, Note_on_c, 0, 60, 83
3, 63058, Control_c, 0, 64, 127
3, 63180, Note_on_c, 0, 62, 0
3, 63188, Note_on_c, 0, 65, 0
3, 63192, Note_on_c, 0, 69, 0
3, 63212, Note_on_c, 0, 60, 0
3, 63360, Control_c, 0, 64, 0
3, 63364, Note_on_c, 0, 70, 76
3, 63366, Note_on_c, 0, 67, 71
3, 63366, Note_on_c, 0, 62, 76
3, 63368, Note_on_c, 0, 65, 70
3, 63370, Note_on_c, 0, 55, 83
3, 63404, Note_on_c, 0, 53, 0
3, 63408, Control_c, 0, 64, 127
3, 63570, Note_on_c, 0, 70, 0
3, 63584, Note_on_c, 0, 67, 0
3, 63596, Note_on_c, 0, 62, 0
3, 63598, Note_on_c, 0, 65, 0
3, 63748, Control_c, 0, 64, 0
3, 63750, Note_on_c, 0, 64, 65
3, 63750, Note_on_c, 0, 72, 56
3, 63752, Note_on_c, 0, 57, 65
3, 63752, Note_on_c, 0, 69, 68
3, 63752, Note_on_c, 0, 67, 67
3, 63756, Note_on_c, 0, 55, 0
3, 63804, Control_c, 0, 64, 127
3, 63890, Note_on_c, 0, 57, 0
3, 63962, Note_on_c, 0, 64, 0
3, 63994, Note_on_c, 0, 69, 0
3, 63994, Note_on_c, 0, 67, 0
3, 64000, Note_on_c, 0, 72, 0
3, 64126, Note_on_c, 0, 71, 55
3, 64126, Note_on_c, 0, 74, 61
3, 64128, Note_on_c, 0, 68, 51
3, 64128, Note_on_c, 0, 62, 49
3, 64130, Note_on_c, 0, 56, 37
3, 64130, Note_on_c, 0, 53, 42
3, 64130, Note_on_c, 0, 59, 45
3, 64132, Note_on_c, 0, 65, 57
3, 64134, Control_c, 0, 64, 0
3, 64180, Control_c, 0, 64, 127
3, 64254, Note_on_c, 0, 68, 0
3, 64256, Note_on_c, 0, 65, 0
3, 64282, Note_on_c, 0, 53, 0
3, 64282, Note_on_c, 0, 59, 0
3, 64290, Note_on_c, 0, 62, 0
3, 64296, Note_on_c, 0, 71, 0
3, 64298, Note_on_c, 0, 56, 0
3, 64308, Note_on_c, 0, 74, 0
3, 64530, Note_on_c, 0, 63, 43
3, 64534, Note_on_c, 0, 87, 67
3, 64536, Control_c, 0, 64, 0
3, 64538, Note_on_c, 0, 54, 30
3, 64538, Note_on_c, 0, 75, 45
3, 64540, Note_on_c, 0, 58, 44
3, 64540, Note_on_c, 0, 59, 39
3, 64594, Control_c, 0, 64, 127
3, 64732, Note_on_c, 0, 63, 0
3, 64736, Note_on_c, 0, 59, 0
3, 64768, Note_on_c, 0, 58, 0
3, 64900, Note_on_c, 0, 63, 30
3, 64906, Note_on_c, 0, 58, 31
3, 64910, Note_on_c, 0, 59, 43
3, 65044, Note_on_c, 0, 54, 0
3, 65106, Note_on_c, 0, 54, 6
3, 65140, Note_on_c, 0, 59, 0
3, 65202, Note_on_c, 0, 63, 0
3, 65224, Note_on_c, 0, 54, 0
3, 65234, Note_on_c, 0, 75, 0
3, 65240, Note_on_c, 0, 87, 0
3, 65244, Note_on_c, 0, 58, 0
3, 65274, Note_on_c, 0, 88, 53
3, 65274, Note_on_c, 0, 76, 46
3, 65276, Note_on_c, 0, 63, 46
3, 65280, Note_on_c, 0, 53, 37
3, 65280, Note_on_c, 0, 58, 19
3, 65282, Note_on_c, 0, 59, 49
3, 65284, Control_c, 0, 64, 0
3, 65368, Control_c, 0, 64, 127
3, 65448, Note_on_c, 0, 63, 0
3, 65486, Note_on_c, 0, 88, 0
3, 65542, Note_on_c, 0, 58, 0
3, 65552, Note_on_c, 0, 59, 0
3, 65570, Note_on_c, 0, 76, 0
3, 65646, Note_on_c, 0, 53, 0
3, 65668, Note_on_c, 0, 63, 52
3, 65674, Note_on_c, 0, 59, 47
3, 65676, Note_on_c, 0, 58, 36
3, 65722, Note_on_c, 0, 63, 0
3, 65726, Note_on_c, 0, 59, 0
3, 65764, Note_on_c, 0, 58, 0
3, 65900, Note_on_c, 0, 50, 57
3, 65966, Note_on_c, 0, 43, 62
3, 65972, Note_on_c, 0, 50, 0
3, 66000, Note_on_c, 0, 43, 0
3, 66046, Note_on_c, 0, 58, 73
3, 66046, Note_on_c, 0, 69, 80
3, 66048, Note_on_c, 0, 62, 71
3, 66050, Note_on_c, 0, 53, 75
3, 66052, Note_on_c, 0, 65, 63
3, 66060, Control_c, 0, 64, 0
3, 66092, Note_on_c, 0, 58, 0
3, 66112, Control_c, 0, 64, 127
3, 66130, Note_on_c, 0, 58, 40
3, 66130, Note_on_c, 0, 69, 0
3, 66142, Note_on_c, 0, 65, 0
3, 66148, Note_on_c, 0, 62, 0
3, 66162, Note_on_c, 0, 58, 0
3, 66178, Note_on_c, 0, 65, 33
3, 66200, Note_on_c, 0, 58, 48
3, 66208, Note_on_c, 0, 53, 0
3, 66210, Note_on_c, 0, 65, 0
3, 66236, Note_on_c, 0, 58, 0
3, 66246, Note_on_c, 0, 65, 37
3, 66252, Note_on_c, 0, 62, 20
3, 66268, Note_on_c, 0, 58, 49
3, 66274, Note_on_c, 0, 65, 0
3, 66282, Note_on_c, 0, 62, 0
3, 66304, Note_on_c, 0, 69, 45
3, 66308, Note_on_c, 0, 58, 0
3, 66310, Note_on_c, 0, 65, 45
3, 66312, Note_on_c, 0, 62, 34
3, 66318, Note_on_c, 0, 57, 92
3, 66332, Note_on_c, 0, 69, 0
3, 66338, Note_on_c, 0, 58, 53
3, 66350, Note_on_c, 0, 65, 0
3, 66352, Note_on_c, 0, 62, 0
3, 66376, Note_on_c, 0, 58, 0
3, 66380, Note_on_c, 0, 65, 48
3, 66382, Note_on_c, 0, 62, 34
3, 66406, Note_on_c, 0, 58, 50
3, 66414, Note_on_c, 0, 65, 0
3, 66418, Note_on_c, 0, 62, 0
3, 66440, Note_on_c, 0, 58, 0
3, 66442, Note_on_c, 0, 69, 29
3, 66448, Note_on_c, 0, 65, 46
3, 66448, Note_on_c, 0, 62, 29
3, 66460, Note_on_c, 0, 69, 0
3, 66472, Note_on_c, 0, 65, 0
3, 66474, Note_on_c, 0, 58, 51
3, 66488, Note_on_c, 0, 62, 0
3, 66506, Note_on_c, 0, 58, 0
3, 66508, Note_on_c, 0, 69, 29
3, 66514, Note_on_c, 0, 65, 41
3, 66518, Note_on_c, 0, 62, 20
3, 66528, Note_on_c, 0, 69, 0
3, 66542, Note_on_c, 0, 65, 0
3, 66542, Note_on_c, 0, 58, 46
3, 66556, Note_on_c, 0, 62, 0
3, 66580, Note_on_c, 0, 58, 0
3, 66584, Note_on_c, 0, 65, 37
3, 66586, Note_on_c, 0, 62, 34
3, 66596, Note_on_c, 0, 57, 0
3, 66596, Note_on_c, 0, 55, 51
3, 66610, Note_on_c, 0, 58, 47
3, 66624, Note_on_c, 0, 62, 0
3, 66624, Note_on_c, 0, 65, 0
3, 66650, Note_on_c, 0, 58, 0
3, 66658, Note_on_c, 0, 65, 40
3, 66660, Note_on_c, 0, 62, 47
3, 66690, Note_on_c, 0, 65, 0
3, 66692, Note_on_c, 0, 58, 39
3, 66724, Note_on_c, 0, 58, 0
3, 66754, Note_on_c, 0, 58, 30
3, 66760, Note_on_c, 0, 62, 0
3, 66790, Note_on_c, 0, 58, 0
3, 66804, Note_on_c, 0, 48, 40
3, 66810, Note_on_c, 0, 58, 35
3, 66814, Note_on_c, 0, 69, 44
3, 66820, Note_on_c, 0, 61, 32
3, 66824, Control_c, 0, 64, 0
3, 66830, Note_on_c, 0, 64, 31
3, 66898, Control_c, 0, 64, 127
3, 67068, Note_on_c, 0, 55, 0
3, 67112, Note_on_c, 0, 69, 0
3, 67204, Note_on_c, 0, 64, 0
3, 67206, Note_on_c, 0, 58, 0
3, 67206, Note_on_c, 0, 55, 31
3, 67216, Note_on_c, 0, 61, 0
3, 67266, Note_on_c, 0, 55, 0
3, 67306, Note_on_c, 0, 48, 0
3, 67452, Note_on_c, 0, 60, 52
3, 67496, Note_on_c, 0, 60, 0
3, 67588, Control_c, 0, 64, 0
3, 67590, Note_on_c, 0, 41, 40
3, 67592, Note_on_c, 0, 48, 33
3, 67592, Note_on_c, 0, 53, 29
3, 67596, Note_on_c, 0, 57, 33
3, 67598, Note_on_c, 0, 62, 28
3, 67606, Note_on_c, 0, 60, 35
3, 67880, Control_c, 0, 64, 127
3, 67900, Note_on_c, 0, 53, 0
3, 67916, Note_on_c, 0, 57, 0
3, 67918, Note_on_c, 0, 60, 0
3, 67952, Note_on_c, 0, 62, 0
3, 67966, Control_c, 0, 64, 0
3, 67976, Note_on_c, 0, 63, 35
3, 67976, Note_on_c, 0, 53, 33
3, 67982, Note_on_c, 0, 48, 0
3, 67982, Note_on_c, 0, 57, 40
3, 67982, Note_on_c, 0, 60, 40
3, 67984, Note_on_c, 0, 49, 25
3, 68244, Note_on_c, 0, 60, 0
3, 68246, Note_on_c, 0, 57, 0
3, 68256, Control_c, 0, 64, 127
3, 68262, Note_on_c, 0, 53, 0
3, 68290, Note_on_c, 0, 49, 0
3, 68292, Note_on_c, 0, 63, 0
3, 68342, Control_c, 0, 64, 0
3, 68354, Note_on_c, 0, 64, 48
3, 68356, Note_on_c, 0, 50, 33
3, 68356, Note_on_c, 0, 53, 31
3, 68356, Note_on_c, 0, 60, 48
3, 68358, Note_on_c, 0, 57, 48
3, 68520, Note_on_c, 0, 60, 0
3, 68538, Note_on_c, 0, 53, 0
3, 68548, Note_on_c, 0, 57, 0
3, 68580, Note_on_c, 0, 50, 0
3, 68590, Note_on_c, 0, 64, 0
3, 68594, Note_on_c, 0, 48, 32
3, 68598, Note_on_c, 0, 60, 49
3, 68600, Note_on_c, 0, 53, 29
3, 68602, Note_on_c, 0, 57, 42
3, 68620, Note_on_c, 0, 53, 0
3, 68622, Note_on_c, 0, 57, 0
3, 68624, Note_on_c, 0, 48, 0
3, 68630, Note_on_c, 0, 60, 0
3, 68650, Note_on_c, 0, 41, 0
3, 69034, Note_on_c, 0, 60, 77
3, 69058, Control_c, 0, 64, 127
3, 69080, Note_on_c, 0, 60, 0
3, 69128, Control_c, 0, 64, 0
3, 69136, Note_on_c, 0, 60, 69
3, 69136, Note_on_c, 0, 53, 77
3, 69136, Note_on_c, 0, 62, 72
3, 69136, Note_on_c, 0, 41, 57
3, 69138, Note_on_c, 0, 57, 64
3, 69142, Note_on_c, 0, 50, 57
3, 69256, Control_c, 0, 64, 127
3, 69412, Note_on_c, 0, 53, 0
3, 69420, Note_on_c, 0, 57, 0
3, 69422, Note_on_c, 0, 50, 0
3, 69426, Note_on_c, 0, 60, 0
3, 69462, Note_on_c, 0, 62, 0
3, 69500, Control_c, 0, 64, 0
3, 69504, Note_on_c, 0, 53, 54
3, 69504, Note_on_c, 0, 63, 51
3, 69508, Note_on_c, 0, 51, 49
3, 69508, Note_on_c, 0, 57, 49
3, 69510, Note_on_c, 0, 60, 53
3, 69584, Control_c, 0, 64, 127
3, 69694, Note_on_c, 0, 51, 0
3, 69712, Note_on_c, 0, 57, 0
3, 69726, Note_on_c, 0, 53, 0
3, 69732, Note_on_c, 0, 63, 0
3, 69764, Note_on_c, 0, 60, 0
3, 69876, Control_c, 0, 64, 0
3, 69896, Note_on_c, 0, 60, 52
3, 69896, Note_on_c, 0, 64, 42
3, 69898, Note_on_c, 0, 55, 36
3, 69900, Note_on_c, 0, 52, 45
3, 69900, Note_on_c, 0, 57, 36
3, 69994, Control_c, 0, 64, 127
3, 70046, Note_on_c, 0, 60, 0
3, 70052, Note_on_c, 0, 55, 0
3, 70058, Note_on_c, 0, 57, 0
3, 70094, Note_on_c, 0, 64, 0
3, 70100, Control_c, 0, 64, 0
3, 70102, Note_on_c, 0, 52, 0
3, 70102, Note_on_c, 0, 60, 40
3, 70102, Note_on_c, 0, 48, 35
3, 70104, Note_on_c, 0, 55, 44
3, 70108, Note_on_c, 0, 57, 51
3, 70164, Note_on_c, 0, 55, 0
3, 70166, Note_on_c, 0, 57, 0
3, 70172, Note_on_c, 0, 48, 0
3, 70172, Note_on_c, 0, 60, 0
3, 70190, Note_on_c, 0, 41, 0
3, 70392, Control_c, 0, 64, 127
3, 70460, Control_c, 0, 64, 0
3, 70500, Note_on_c, 0, 41, 46
3, 70508, Control_c, 0, 64, 127
3, 70536, Note_on_c, 0, 41, 0
3, 70604, Control_c, 0, 64, 0
3, 70624, Note_on_c, 0, 43, 56
3, 70626, Note_on_c, 0, 53, 46
3, 70630, Note_on_c, 0, 58, 39
3, 70630, Note_on_c, 0, 62, 46
3, 70630, Note_on_c, 0, 55, 55
3, 70692, Control_c, 0, 64, 127
3, 70800, Note_on_c, 0, 55, 0
3, 70808, Note_on_c, 0, 43, 0
3, 70824, Note_on_c, 0, 53, 0
3, 70840, Note_on_c, 0, 62, 0
3, 70864, Note_on_c, 0, 58, 0
3, 71000, Control_c, 0, 64, 0
3, 71018, Note_on_c, 0, 63, 38
3, 71022, Note_on_c, 0, 37, 37
3, 71022, Note_on_c, 0, 44, 35
3, 71024, Note_on_c, 0, 56, 34
3, 71028, Note_on_c, 0, 59, 45
3, 71050, Control_c, 0, 64, 127
3, 71064, Note_on_c, 0, 37, 0
3, 71082, Note_on_c, 0, 44, 0
3, 71104, Note_on_c, 0, 59, 0
3, 71108, Note_on_c, 0, 56, 0
3, 71122, Note_on_c, 0, 63, 0
3, 71300, Note_on_c, 0, 64, 48
3, 71302, Note_on_c, 0, 55, 51
3, 71304, Note_on_c, 0, 60, 60
3, 71304, Note_on_c, 0, 36, 54
3, 71304, Note_on_c, 0, 58, 43
3, 71306, Note_on_c, 0, 43, 33
3, 71314, Note_on_c, 0, 52, 33
3, 71316, Control_c, 0, 64, 0
3, 71442, Control_c, 0, 64, 127
3, 71578, Note_on_c, 0, 60, 0
3, 71654, Note_on_c, 0, 55, 0
3, 71658, Note_on_c, 0, 64, 0
3, 71660, Note_on_c, 0, 58, 0
3, 71676, Note_on_c, 0, 60, 57
3, 71796, Note_on_c, 0, 36, 0
3, 71812, Note_on_c, 0, 60, 0
3, 71818, Note_on_c, 0, 52, 0
3, 71826, Note_on_c, 0, 43, 0
3, 71942, Note_on_c, 0, 60, 88
3, 71976, Note_on_c, 0, 60, 0
3, 72044, Note_on_c, 0, 60, 78
3, 72086, Note_on_c, 0, 60, 0
3, 72172, Note_on_c, 0, 60, 64
3, 72176, Note_on_c, 0, 46, 60
3, 72176, Note_on_c, 0, 61, 39
3, 72176, Note_on_c, 0, 56, 59
3, 72182, Control_c, 0, 64, 0
3, 72184, Note_on_c, 0, 62, 64
3, 72188, Note_on_c, 0, 61, 0
3, 72206, Note_on_c, 0, 60, 0
3, 72274, Control_c, 0, 64, 127
3, 72288, Note_on_c, 0, 62, 0
3, 72302, Note_on_c, 0, 62, 76
3, 72440, Note_on_c, 0, 46, 0
3, 72452, Note_on_c, 0, 56, 0
3, 72510, Note_on_c, 0, 62, 0
3, 72564, Note_on_c, 0, 63, 54
3, 72564, Note_on_c, 0, 59, 57
3, 72570, Control_c, 0, 64, 0
3, 72570, Note_on_c, 0, 47, 48
3, 72570, Note_on_c, 0, 56, 35
3, 72652, Control_c, 0, 64, 127
3, 72704, Note_on_c, 0, 56, 0
3, 72722, Note_on_c, 0, 47, 0
3, 72764, Note_on_c, 0, 59, 0
3, 72810, Note_on_c, 0, 59, 36
3, 72812, Note_on_c, 0, 63, 0
3, 72848, Note_on_c, 0, 59, 0
3, 72942, Note_on_c, 0, 58, 31
3, 72948, Note_on_c, 0, 64, 48
3, 72948, Control_c, 0, 64, 0
3, 72952, Note_on_c, 0, 48, 35
3, 73082, Control_c, 0, 64, 127
3, 73142, Note_on_c, 0, 58, 0
3, 73190, Note_on_c, 0, 36, 48
3, 73254, Note_on_c, 0, 36, 0
3, 73280, Note_on_c, 0, 48, 0
3, 73330, Note_on_c, 0, 64, 0
3, 73498, Note_on_c, 0, 60, 54
3, 73522, Note_on_c, 0, 60, 0
3, 73578, Note_on_c, 0, 60, 62
3, 73594, Note_on_c, 0, 60, 0
3, 73634, Note_on_c, 0, 60, 64
3, 73650, Note_on_c, 0, 60, 0
3, 73686, Note_on_c, 0, 60, 62
3, 73714, Note_on_c, 0, 60, 0
3, 73740, Note_on_c, 0, 41, 50
3, 73742, Note_on_c, 0, 65, 75
3, 73742, Note_on_c, 0, 48, 48
3, 73746, Note_on_c, 0, 57, 71
3, 73746, Control_c, 0, 64, 0
3, 73844, Control_c, 0, 64, 127
3, 73956, Note_on_c, 0, 65, 0
3, 74010, Note_on_c, 0, 57, 0
3, 74038, Note_on_c, 0, 41, 0
3, 74098, Note_on_c, 0, 58, 83
3, 74100, Control_c, 0, 64, 0
3, 74104, Note_on_c, 0, 67, 72
3, 74104, Note_on_c, 0, 41, 59
3, 74108, Note_on_c, 0, 50, 72
3, 74110, Note_on_c, 0, 61, 33
3, 74122, Note_on_c, 0, 61, 0
3, 74122, Note_on_c, 0, 48, 0
3, 74142, Control_c, 0, 64, 127
3, 74212, Note_on_c, 0, 58, 0
3, 74220, Note_on_c, 0, 41, 0
3, 74220, Note_on_c, 0, 67, 0
3, 74262, Note_on_c, 0, 50, 0
3, 74328, Note_on_c, 0, 69, 90
3, 74330, Note_on_c, 0, 60, 94
3, 74330, Note_on_c, 0, 41, 68
3, 74332, Note_on_c, 0, 64, 87
3, 74332, Note_on_c, 0, 52, 85
3, 74340, Control_c, 0, 64, 0
3, 74444, Control_c, 0, 64, 127
3, 74720, Note_on_c, 0, 69, 0
3, 74728, Note_on_c, 0, 64, 0
3, 74778, Note_on_c, 0, 60, 0
3, 74812, Note_on_c, 0, 52, 0
3, 74854, Note_on_c, 0, 41, 0
3, 74902, Control_c, 0, 64, 0
3, 74902, Note_on_c, 0, 65, 59
3, 74906, Note_on_c, 0, 58, 62
3, 74912, Note_on_c, 0, 41, 40
3, 74912, Note_on_c, 0, 50, 41
3, 74960, Control_c, 0, 64, 127
3, 75018, Note_on_c, 0, 58, 0
3, 75072, Note_on_c, 0, 65, 0
3, 75090, Note_on_c, 0, 41, 0
3, 75104, Note_on_c, 0, 50, 0
3, 75116, Note_on_c, 0, 60, 66
3, 75156, Note_on_c, 0, 60, 0
3, 75240, Control_c, 0, 64, 0
3, 75248, Note_on_c, 0, 65, 51
3, 75250, Note_on_c, 0, 57, 47
3, 75252, Note_on_c, 0, 60, 61
3, 75254, Note_on_c, 0, 48, 35
3, 75254, Note_on_c, 0, 41, 40
3, 75294, Control_c, 0, 64, 127
3, 75442, Note_on_c, 0, 65, 0
3, 75452, Note_on_c, 0, 60, 0
3, 75474, Note_on_c, 0, 57, 0
3, 75478, Note_on_c, 0, 41, 0
3, 75532, Note_on_c, 0, 48, 0
3, 75630, Control_c, 0, 64, 0
3, 75638, Note_on_c, 0, 67, 55
3, 75638, Note_on_c, 0, 58, 40
3, 75642, Note_on_c, 0, 41, 35
3, 75642, Note_on_c, 0, 50, 36
3, 75644, Note_on_c, 0, 62, 49
3, 75646, Control_c, 0, 64, 127
3, 75724, Note_on_c, 0, 67, 0
3, 75732, Note_on_c, 0, 62, 0
3, 75732, Note_on_c, 0, 58, 0
3, 75732, Note_on_c, 0, 41, 0
3, 75744, Note_on_c, 0, 50, 0
3, 75862, Control_c, 0, 64, 0
3, 75872, Note_on_c, 0, 69, 56
3, 75874, Note_on_c, 0, 60, 45
3, 75874, Note_on_c, 0, 64, 53
3, 75876, Note_on_c, 0, 41, 43
3, 75878, Note_on_c, 0, 52, 47
3, 75944, Control_c, 0, 64, 127
3, 76160, Note_on_c, 0, 41, 0
3, 76196, Note_on_c, 0, 52, 0
3, 76200, Note_on_c, 0, 60, 0
3, 76232, Note_on_c, 0, 64, 0
3, 76246, Note_on_c, 0, 69, 0
3, 76430, Note_on_c, 0, 77, 62
3, 76432, Note_on_c, 0, 72, 66
3, 76434, Note_on_c, 0, 61, 62
3, 76436, Note_on_c, 0, 69, 77
3, 76440, Note_on_c, 0, 55, 70
3, 76440, Note_on_c, 0, 65, 71
3, 76442, Control_c, 0, 64, 0
3, 76478, Control_c, 0, 64, 127
3, 76546, Note_on_c, 0, 65, 0
3, 76556, Note_on_c, 0, 69, 0
3, 76560, Note_on_c, 0, 55, 0
3, 76574, Note_on_c, 0, 61, 0
3, 76584, Note_on_c, 0, 72, 0
3, 76598, Note_on_c, 0, 77, 0
3, 76806, Note_on_c, 0, 86, 48
3, 76808, Control_c, 0, 64, 0
3, 76810, Note_on_c, 0, 78, 31
3, 76810, Note_on_c, 0, 54, 37
3, 76810, Note_on_c, 0, 74, 31
3, 76810, Note_on_c, 0, 82, 30
3, 76816, Note_on_c, 0, 60, 36
3, 76854, Control_c, 0, 64, 127
3, 76908, Note_on_c, 0, 74, 0
3, 76914, Note_on_c, 0, 78, 0
3, 76940, Note_on_c, 0, 82, 0
3, 76950, Note_on_c, 0, 86, 0
3, 77008, Note_on_c, 0, 60, 0
3, 77200, Note_on_c, 0, 101, 80
3, 77208, Note_on_c, 0, 65, 30
3, 77210, Note_on_c, 0, 60, 38
3, 77414, Note_on_c, 0, 65, 0
3, 77444, Note_on_c, 0, 96, 63
3, 77444, Note_on_c, 0, 60, 0
3, 77454, Note_on_c, 0, 101, 0
3, 77456, Note_on_c, 0, 54, 0
3, 77504, Note_on_c, 0, 96, 0
3, 77528, Note_on_c, 0, 94, 68
3, 77590, Note_on_c, 0, 94, 0
3, 77606, Note_on_c, 0, 54, 33
3, 77614, Note_on_c, 0, 64, 24
3, 77616, Note_on_c, 0, 93, 60
3, 77620, Note_on_c, 0, 60, 32
3, 77624, Control_c, 0, 64, 0
3, 77670, Note_on_c, 0, 93, 0
3, 77702, Note_on_c, 0, 96, 51
3, 77750, Note_on_c, 0, 96, 0
3, 77768, Note_on_c, 0, 90, 62
3, 77820, Control_c, 0, 64, 127
3, 77848, Note_on_c, 0, 89, 51
3, 77850, Note_on_c, 0, 64, 0
3, 77862, Note_on_c, 0, 90, 0
3, 77888, Note_on_c, 0, 60, 0
3, 77898, Note_on_c, 0, 89, 0
3, 77920, Note_on_c, 0, 54, 0
3, 77948, Note_on_c, 0, 89, 51
3, 77960, Note_on_c, 0, 54, 27
3, 77964, Note_on_c, 0, 60, 27
3, 77970, Note_on_c, 0, 64, 19
3, 77974, Note_on_c, 0, 89, 0
3, 78186, Note_on_c, 0, 64, 0
3, 78196, Note_on_c, 0, 60, 0
3, 78204, Note_on_c, 0, 54, 0
3, 78224, Note_on_c, 0, 84, 72
3, 78282, Note_on_c, 0, 84, 0
3, 78300, Note_on_c, 0, 81, 39
3, 78306, Note_on_c, 0, 83, 29
3, 78320, Note_on_c, 0, 83, 0
3, 78364, Note_on_c, 0, 54, 31
3, 78368, Note_on_c, 0, 50, 36
3, 78370, Note_on_c, 0, 60, 40
3, 78390, Control_c, 0, 64, 0
3, 78466, Note_on_c, 0, 81, 0
3, 78474, Note_on_c, 0, 84, 64
3, 78550, Control_c, 0, 64, 127
3, 78558, Note_on_c, 0, 76, 55
3, 78560, Note_on_c, 0, 84, 0
3, 78618, Note_on_c, 0, 60, 0
3, 78622, Note_on_c, 0, 76, 0
3, 78650, Note_on_c, 0, 76, 62
3, 78682, Note_on_c, 0, 76, 0
3, 78746, Note_on_c, 0, 60, 45
3, 78848, Note_on_c, 0, 69, 89
3, 78850, Note_on_c, 0, 76, 83
3, 78934, Note_on_c, 0, 76, 0
3, 78938, Note_on_c, 0, 72, 63
3, 78942, Note_on_c, 0, 64, 63
3, 78946, Note_on_c, 0, 50, 0
3, 78950, Note_on_c, 0, 60, 0
3, 78962, Note_on_c, 0, 69, 0
3, 78978, Note_on_c, 0, 54, 0
3, 78988, Note_on_c, 0, 64, 0
3, 79004, Note_on_c, 0, 72, 0
3, 79022, Note_on_c, 0, 76, 75
3, 79026, Note_on_c, 0, 69, 77
3, 79058, Note_on_c, 0, 76, 0
3, 79084, Note_on_c, 0, 69, 0
3, 79110, Control_c, 0, 64, 0
3, 79112, Note_on_c, 0, 66, 64
3, 79112, Note_on_c, 0, 75, 63
3, 79114, Note_on_c, 0, 72, 54
3, 79114, Note_on_c, 0, 54, 43
3, 79122, Note_on_c, 0, 60, 43
3, 79162, Control_c, 0, 64, 127
3, 79216, Note_on_c, 0, 50, 50
3, 79224, Note_on_c, 0, 75, 0
3, 79226, Note_on_c, 0, 72, 0
3, 79304, Note_on_c, 0, 60, 0
3, 79336, Note_on_c, 0, 66, 0
3, 79416, Note_on_c, 0, 54, 0
3, 79492, Note_on_c, 0, 72, 43
3, 79494, Note_on_c, 0, 63, 36
3, 79496, Note_on_c, 0, 66, 49
3, 79496, Note_on_c, 0, 54, 35
3, 79504, Note_on_c, 0, 60, 31
3, 79528, Note_on_c, 0, 50, 0
3, 79566, Note_on_c, 0, 63, 0
3, 79620, Note_on_c, 0, 72, 0
3, 79638, Note_on_c, 0, 66, 0
3, 79640, Note_on_c, 0, 50, 64
3, 79660, Note_on_c, 0, 60, 0
3, 79680, Note_on_c, 0, 50, 0
3, 79680, Note_on_c, 0, 54, 0
3, 79878, Note_on_c, 0, 53, 74
3, 79880, Note_on_c, 0, 62, 78
3, 79880, Note_on_c, 0, 58, 64
3, 79880, Note_on_c, 0, 57, 65
3, 79880, Note_on_c, 0, 86, 90
3, 79882, Note_on_c, 0, 74, 84
3, 79884, Control_c, 0, 64, 0
3, 79888, Note_on_c, 0, 82, 46
3, 79900, Note_on_c, 0, 82, 0
3, 79936, Note_on_c, 0, 74, 0
3, 79936, Note_on_c, 0, 62, 0
3, 79938, Note_on_c, 0, 57, 0
3, 79940, Note_on_c, 0, 86, 0
3, 79944, Note_on_c, 0, 58, 0
3, 79944, Note_on_c, 0, 53, 0
3, 80150, Control_c, 0, 64, 127
3, 80206, Control_c, 0, 64, 0
3, 80252, Note_on_c, 0, 74, 83
3, 80254, Note_on_c, 0, 86, 89
3, 80254, Note_on_c, 0, 55, 71
3, 80254, Note_on_c, 0, 58, 59
3, 80254, Note_on_c, 0, 62, 75
3, 80256, Note_on_c, 0, 57, 68
3, 80256, Note_on_c, 0, 82, 56
3, 80256, Note_on_c, 0, 79, 68
3, 80292, Control_c, 0, 64, 127
3, 80496, Note_on_c, 0, 79, 0
3, 80496, Note_on_c, 0, 74, 0
3, 80498, Note_on_c, 0, 86, 0
3, 80514, Note_on_c, 0, 62, 0
3, 80514, Note_on_c, 0, 57, 0
3, 80522, Note_on_c, 0, 82, 0
3, 80522, Note_on_c, 0, 55, 0
3, 80528, Note_on_c, 0, 58, 0
3, 80584, Note_on_c, 0, 84, 42
3, 80612, Note_on_c, 0, 84, 0
3, 80656, Note_on_c, 0, 74, 47
3, 80658, Note_on_c, 0, 86, 69
3, 80658, Control_c, 0, 64, 0
3, 80660, Note_on_c, 0, 57, 41
3, 80660, Note_on_c, 0, 62, 44
3, 80662, Note_on_c, 0, 55, 42
3, 80662, Note_on_c, 0, 79, 38
3, 80664, Note_on_c, 0, 58, 42
3, 80664, Note_on_c, 0, 82, 26
3, 80718, Control_c, 0, 64, 127
3, 80850, Note_on_c, 0, 86, 0
3, 80850, Note_on_c, 0, 79, 0
3, 80852, Note_on_c, 0, 82, 0
3, 80870, Note_on_c, 0, 62, 0
3, 80882, Note_on_c, 0, 74, 0
3, 80904, Note_on_c, 0, 57, 0
3, 80938, Note_on_c, 0, 58, 0
3, 81000, Note_on_c, 0, 55, 0
3, 81026, Note_on_c, 0, 55, 10
3, 81036, Note_on_c, 0, 58, 35
3, 81036, Note_on_c, 0, 62, 33
3, 81038, Note_on_c, 0, 57, 29
3, 81172, Note_on_c, 0, 74, 77
3, 81174, Note_on_c, 0, 67, 76
3, 81176, Note_on_c, 0, 65, 71
3, 81202, Note_on_c, 0, 67, 0
3, 81210, Note_on_c, 0, 65, 0
3, 81222, Note_on_c, 0, 74, 0
3, 81244, Note_on_c, 0, 62, 0
3, 81270, Note_on_c, 0, 58, 0
3, 81288, Note_on_c, 0, 74, 74
3, 81294, Note_on_c, 0, 57, 0
3, 81298, Note_on_c, 0, 65, 35
3, 81316, Note_on_c, 0, 65, 0
3, 81328, Note_on_c, 0, 74, 0
3, 81352, Note_on_c, 0, 72, 34
3, 81362, Note_on_c, 0, 55, 0
3, 81390, Note_on_c, 0, 72, 0
3, 81412, Note_on_c, 0, 64, 43
3, 81412, Note_on_c, 0, 74, 48
3, 81414, Note_on_c, 0, 58, 35
3, 81416, Note_on_c, 0, 70, 37
3, 81418, Control_c, 0, 64, 0
3, 81420, Note_on_c, 0, 52, 45
3, 81420, Note_on_c, 0, 62, 38
3, 81422, Note_on_c, 0, 67, 41
3, 81492, Control_c, 0, 64, 127
3, 81580, Note_on_c, 0, 62, 0
3, 81586, Note_on_c, 0, 74, 0
3, 81598, Note_on_c, 0, 67, 0
3, 81600, Note_on_c, 0, 70, 0
3, 81606, Note_on_c, 0, 58, 0
3, 81614, Note_on_c, 0, 64, 0
3, 81628, Note_on_c, 0, 52, 0
3, 81802, Note_on_c, 0, 69, 55
3, 81802, Note_on_c, 0, 58, 45
3, 81804, Note_on_c, 0, 61, 47
3, 81806, Control_c, 0, 64, 0
3, 81810, Note_on_c, 0, 64, 43
3, 81816, Note_on_c, 0, 57, 31
3, 81824, Note_on_c, 0, 58, 0
3, 81828, Note_on_c, 0, 61, 0
3, 81830, Note_on_c, 0, 64, 0
3, 81834, Note_on_c, 0, 57, 0
3, 81840, Note_on_c, 0, 69, 0
3, 81996, Note_on_c, 0, 67, 45
3, 81998, Note_on_c, 0, 58, 29
3, 82000, Note_on_c, 0, 55, 37
3, 82000, Note_on_c, 0, 61, 29
3, 82008, Note_on_c, 0, 64, 38
3, 82048, Note_on_c, 0, 55, 0
3, 82050, Note_on_c, 0, 67, 0
3, 82050, Note_on_c, 0, 64, 0
3, 82056, Note_on_c, 0, 61, 0
3, 82060, Note_on_c, 0, 58, 0
3, 82184, Note_on_c, 0, 50, 42
3, 82186, Note_on_c, 0, 61, 26
3, 82188, Note_on_c, 0, 55, 40
3, 82188, Note_on_c, 0, 64, 44
3, 82192, Note_on_c, 0, 58, 51
3, 82194, Note_on_c, 0, 52, 41
3, 82212, Note_on_c, 0, 50, 0
3, 82336, Control_c, 0, 64, 127
3, 82378, Note_on_c, 0, 61, 0
3, 82384, Note_on_c, 0, 58, 0
3, 82384, Note_on_c, 0, 64, 0
3, 82392, Note_on_c, 0, 55, 0
3, 82404, Note_on_c, 0, 52, 0
3, 82502, Note_on_c, 0, 61, 48
3, 82504, Note_on_c, 0, 49, 51
3, 82504, Note_on_c, 0, 52, 55
3, 82506, Note_on_c, 0, 56, 39
3, 82506, Note_on_c, 0, 58, 48
3, 82518, Control_c, 0, 64, 0
3, 82550, Note_on_c, 0, 52, 0
3, 82552, Note_on_c, 0, 61, 0
3, 82556, Note_on_c, 0, 56, 0
3, 82562, Note_on_c, 0, 58, 0
3, 82576, Note_on_c, 0, 49, 0
3, 82590, Control_c, 0, 64, 127
3, 82596, Note_on_c, 0, 52, 32
3, 82596, Note_on_c, 0, 48, 39
3, 82598, Note_on_c, 0, 60, 50
3, 82598, Note_on_c, 0, 55, 50
3, 82616, Note_on_c, 0, 52, 0
3, 82628, Note_on_c, 0, 55, 0
3, 82646, Note_on_c, 0, 60, 0
3, 82712, Note_on_c, 0, 36, 62
3, 82732, Note_on_c, 0, 36, 0
3, 82748, Note_on_c, 0, 48, 0
3, 82846, Note_on_c, 0, 86, 74
3, 82848, Note_on_c, 0, 74, 56
3, 82866, Note_on_c, 0, 74, 0
3, 82870, Note_on_c, 0, 86, 0
3, 82900, Note_on_c, 0, 72, 58
3, 82900, Note_on_c, 0, 84, 61
3, 82920, Note_on_c, 0, 72, 0
3, 82926, Note_on_c, 0, 84, 0
3, 82952, Control_c, 0, 64, 0
3, 82960, Note_on_c, 0, 55, 71
3, 82960, Note_on_c, 0, 64, 72
3, 82962, Note_on_c, 0, 60, 71
3, 82962, Note_on_c, 0, 86, 91
3, 82962, Note_on_c, 0, 57, 65
3, 82962, Note_on_c, 0, 74, 77
3, 82966, Note_on_c, 0, 79, 71
3, 83006, Control_c, 0, 64, 127
3, 83036, Note_on_c, 0, 79, 0
3, 83036, Note_on_c, 0, 55, 0
3, 83038, Note_on_c, 0, 74, 0
3, 83040, Note_on_c, 0, 64, 0
3, 83044, Note_on_c, 0, 60, 0
3, 83044, Note_on_c, 0, 86, 0
3, 83048, Note_on_c, 0, 57, 0
3, 83056, Control_c, 0, 64, 0
3, 83086, Note_on_c, 0, 86, 85
3, 83086, Note_on_c, 0, 74, 81
3, 83088, Note_on_c, 0, 79, 66
3, 83088, Note_on_c, 0, 83, 66
3, 83090, Note_on_c, 0, 55, 76
3, 83090, Note_on_c, 0, 57, 68
3, 83090, Note_on_c, 0, 64, 76
3, 83090, Note_on_c, 0, 60, 76
3, 83106, Control_c, 0, 64, 127
3, 83130, Note_on_c, 0, 74, 0
3, 83132, Note_on_c, 0, 83, 0
3, 83134, Note_on_c, 0, 86, 0
3, 83134, Note_on_c, 0, 64, 0
3, 83136, Note_on_c, 0, 55, 0
3, 83136, Note_on_c, 0, 79, 0
3, 83146, Note_on_c, 0, 57, 0
3, 83146, Note_on_c, 0, 60, 0
3, 83164, Note_on_c, 0, 60, 37
3, 83164, Note_on_c, 0, 64, 49
3, 83166, Note_on_c, 0, 84, 57
3, 83166, Note_on_c, 0, 79, 38
3, 83166, Note_on_c, 0, 55, 57
3, 83168, Note_on_c, 0, 57, 46
3, 83170, Note_on_c, 0, 72, 45
3, 83240, Note_on_c, 0, 72, 0
3, 83242, Note_on_c, 0, 55, 0
3, 83246, Note_on_c, 0, 79, 0
3, 83248, Note_on_c, 0, 84, 0
3, 83248, Note_on_c, 0, 60, 0
3, 83256, Note_on_c, 0, 64, 0
3, 83268, Note_on_c, 0, 57, 0
3, 83334, Control_c, 0, 64, 0
3, 83340, Note_on_c, 0, 55, 58
3, 83342, Note_on_c, 0, 86, 76
3, 83342, Note_on_c, 0, 64, 52
3, 83344, Note_on_c, 0, 74, 62
3, 83344, Note_on_c, 0, 60, 50
3, 83346, Note_on_c, 0, 83, 51
3, 83346, Note_on_c, 0, 57, 45
3, 83348, Note_on_c, 0, 79, 49
3, 83394, Control_c, 0, 64, 127
3, 83514, Note_on_c, 0, 74, 0
3, 83514, Note_on_c, 0, 86, 0
3, 83518, Note_on_c, 0, 55, 0
3, 83524, Note_on_c, 0, 64, 0
3, 83532, Note_on_c, 0, 79, 0
3, 83538, Note_on_c, 0, 83, 0
3, 83558, Note_on_c, 0, 57, 0
3, 83558, Note_on_c, 0, 60, 0
3, 83648, Note_on_c, 0, 84, 58
3, 83650, Note_on_c, 0, 72, 41
3, 83658, Note_on_c, 0, 79, 33
3, 83658, Note_on_c, 0, 60, 37
3, 83662, Note_on_c, 0, 64, 26
3, 83668, Note_on_c, 0, 57, 18
3, 83680, Note_on_c, 0, 72, 0
3, 83682, Note_on_c, 0, 79, 0
3, 83682, Note_on_c, 0, 84, 0
3, 83684, Note_on_c, 0, 64, 0
3, 83688, Note_on_c, 0, 57, 0
3, 83690, Note_on_c, 0, 60, 0
3, 83724, Control_c, 0, 64, 0
3, 83730, Note_on_c, 0, 86, 67
3, 83732, Note_on_c, 0, 64, 40
3, 83734, Note_on_c, 0, 74, 33
3, 83734, Note_on_c, 0, 55, 45
3, 83736, Note_on_c, 0, 60, 40
3, 83736, Note_on_c, 0, 57, 35
3, 83736, Note_on_c, 0, 79, 32
3, 83756, Control_c, 0, 64, 127
3, 83812, Note_on_c, 0, 86, 0
3, 83846, Note_on_c, 0, 79, 0
3, 83882, Note_on_c, 0, 74, 0
3, 83934, Note_on_c, 0, 64, 0
3, 83956, Note_on_c, 0, 55, 0
3, 83958, Note_on_c, 0, 57, 0
3, 83972, Note_on_c, 0, 60, 0
3, 84096, Note_on_c, 0, 64, 29
3, 84102, Note_on_c, 0, 55, 29
3, 84102, Note_on_c, 0, 60, 46
3, 84106, Note_on_c, 0, 57, 32
3, 84142, Note_on_c, 0, 64, 0
3, 84186, Note_on_c, 0, 65, 73
3, 84262, Note_on_c, 0, 60, 0
3, 84270, Note_on_c, 0, 55, 0
3, 84274, Note_on_c, 0, 57, 0
3, 84284, Note_on_c, 0, 65, 0
3, 84290, Note_on_c, 0, 66, 57
3, 84324, Note_on_c, 0, 66, 0
3, 84338, Note_on_c, 0, 67, 59
3, 84372, Note_on_c, 0, 68, 51
3, 84372, Note_on_c, 0, 67, 0
3, 84412, Note_on_c, 0, 68, 0
3, 84414, Note_on_c, 0, 69, 62
3, 84446, Note_on_c, 0, 70, 55
3, 84456, Note_on_c, 0, 70, 0
3, 84466, Note_on_c, 0, 71, 38
3, 84494, Note_on_c, 0, 69, 0
3, 84494, Note_on_c, 0, 54, 35
3, 84496, Note_on_c, 0, 71, 0
3, 84496, Note_on_c, 0, 72, 60
3, 84502, Note_on_c, 0, 50, 32
3, 84504, Note_on_c, 0, 60, 37
3, 84504, Control_c, 0, 64, 0
3, 84544, Note_on_c, 0, 70, 55
3, 84550, Note_on_c, 0, 72, 0
3, 84646, Control_c, 0, 64, 127
3, 84694, Note_on_c, 0, 60, 0
3, 84714, Note_on_c, 0, 70, 0
3, 84750, Note_on_c, 0, 54, 0
3, 84820, Note_on_c, 0, 66, 39
3, 84828, Note_on_c, 0, 60, 51
3, 84828, Note_on_c, 0, 54, 35
3, 84834, Note_on_c, 0, 64, 41
3, 84868, Note_on_c, 0, 60, 0
3, 84884, Note_on_c, 0, 64, 0
3, 84896, Note_on_c, 0, 66, 0
3, 84898, Note_on_c, 0, 50, 0
3, 84914, Note_on_c, 0, 54, 0
3, 85230, Control_c, 0, 64, 0
3, 85242, Note_on_c, 0, 94, 53
3, 85244, Note_on_c, 0, 54, 45
3, 85244, Note_on_c, 0, 89, 47
3, 85244, Note_on_c, 0, 82, 31
3, 85246, Note_on_c, 0, 64, 39
3, 85248, Note_on_c, 0, 60, 44
3, 85274, Control_c, 0, 64, 127
3, 85386, Note_on_c, 0, 64, 0
3, 85392, Note_on_c, 0, 60, 0
3, 85410, Note_on_c, 0, 89, 0
3, 85412, Note_on_c, 0, 94, 0
3, 85420, Note_on_c, 0, 82, 0
3, 85426, Note_on_c, 0, 54, 0
3, 85618, Control_c, 0, 64, 0
3, 85634, Note_on_c, 0, 90, 47
3, 85634, Note_on_c, 0, 54, 36
3, 85638, Note_on_c, 0, 50, 44
3, 85638, Note_on_c, 0, 93, 62
3, 85640, Note_on_c, 0, 57, 41
3, 85640, Note_on_c, 0, 81, 38
3, 85640, Note_on_c, 0, 60, 44
3, 85642, Note_on_c, 0, 86, 57
3, 85662, Control_c, 0, 64, 127
3, 85704, Note_on_c, 0, 93, 0
3, 85714, Note_on_c, 0, 86, 0
3, 85716, Note_on_c, 0, 90, 0
3, 85738, Note_on_c, 0, 60, 0
3, 85740, Note_on_c, 0, 81, 0
3, 85744, Note_on_c, 0, 57, 0
3, 85786, Note_on_c, 0, 50, 0
3, 85790, Note_on_c, 0, 54, 0
3, 85960, Note_on_c, 0, 62, 71
3, 85960, Note_on_c, 0, 50, 75
3, 85960, Note_on_c, 0, 65, 62
3, 85962, Note_on_c, 0, 58, 74
3, 85962, Note_on_c, 0, 43, 71
3, 85964, Note_on_c, 0, 55, 72
3, 85966, Control_c, 0, 64, 0
3, 86020, Control_c, 0, 64, 127
3, 86282, Note_on_c, 0, 55, 0
3, 86288, Note_on_c, 0, 65, 0
3, 86292, Note_on_c, 0, 62, 0
3, 86298, Note_on_c, 0, 58, 0
3, 86402, Note_on_c, 0, 67, 69
3, 86406, Note_on_c, 0, 58, 61
3, 86408, Control_c, 0, 64, 0
3, 86408, Note_on_c, 0, 50, 0
3, 86408, Note_on_c, 0, 62, 60
3, 86412, Note_on_c, 0, 52, 53
3, 86482, Control_c, 0, 64, 127
3, 86650, Note_on_c, 0, 67, 0
3, 86652, Note_on_c, 0, 52, 0
3, 86654, Note_on_c, 0, 58, 0
3, 86702, Note_on_c, 0, 62, 0
3, 86788, Note_on_c, 0, 58, 68
3, 86788, Note_on_c, 0, 69, 71
3, 86790, Control_c, 0, 64, 0
3, 86790, Note_on_c, 0, 62, 66
3, 86794, Note_on_c, 0, 65, 58
3, 86794, Note_on_c, 0, 53, 61
3, 86886, Control_c, 0, 64, 127
3, 87072, Note_on_c, 0, 65, 0
3, 87074, Note_on_c, 0, 58, 0
3, 87096, Note_on_c, 0, 62, 0
3, 87098, Note_on_c, 0, 69, 0
3, 87160, Control_c, 0, 64, 0
3, 87170, Note_on_c, 0, 58, 57
3, 87172, Note_on_c, 0, 65, 66
3, 87176, Note_on_c, 0, 53, 0
3, 87176, Note_on_c, 0, 50, 52
3, 87178, Note_on_c, 0, 62, 46
3, 87192, Note_on_c, 0, 43, 0
3, 87198, Control_c, 0, 64, 127
3, 87272, Note_on_c, 0, 50, 0
3, 87290, Note_on_c, 0, 62, 0
3, 87324, Note_on_c, 0, 58, 0
3, 87360, Note_on_c, 0, 62, 56
3, 87366, Note_on_c, 0, 58, 32
3, 87374, Note_on_c, 0, 65, 0
3, 87404, Note_on_c, 0, 58, 0
3, 87408, Note_on_c, 0, 62, 0
3, 87476, Note_on_c, 0, 24, 44
3, 87512, Note_on_c, 0, 24, 0
3, 87532, Control_c, 0, 64, 0
3, 87546, Note_on_c, 0, 65, 66
3, 87546, Note_on_c, 0, 58, 64
3, 87546, Note_on_c, 0, 24, 50
3, 87548, Note_on_c, 0, 53, 66
3, 87548, Note_on_c, 0, 62, 65
3, 87554, Note_on_c, 0, 36, 47
3, 87606, Control_c, 0, 64, 127
3, 87750, Note_on_c, 0, 53, 0
3, 87802, Note_on_c, 0, 58, 0
3, 87810, Note_on_c, 0, 65, 0
3, 87812, Note_on_c, 0, 62, 0
3, 87824, Note_on_c, 0, 36, 0
3, 87938, Note_on_c, 0, 36, 52
3, 88054, Note_on_c, 0, 36, 0
3, 88066, Note_on_c, 0, 67, 73
3, 88070, Note_on_c, 0, 58, 69
3, 88074, Note_on_c, 0, 64, 57
3, 88074, Note_on_c, 0, 61, 52
3, 88078, Note_on_c, 0, 36, 57
3, 88090, Control_c, 0, 64, 0
3, 88128, Control_c, 0, 64, 127
3, 88202, Note_on_c, 0, 24, 0
3, 88222, Note_on_c, 0, 67, 0
3, 88230, Note_on_c, 0, 64, 0
3, 88252, Note_on_c, 0, 58, 0
3, 88254, Note_on_c, 0, 61, 0
3, 88268, Note_on_c, 0, 24, 28
3, 88282, Note_on_c, 0, 36, 0
3, 88322, Note_on_c, 0, 58, 68
3, 88322, Note_on_c, 0, 69, 75
3, 88324, Note_on_c, 0, 62, 66
3, 88328, Note_on_c, 0, 65, 58
3, 88328, Note_on_c, 0, 36, 64
3, 88330, Control_c, 0, 64, 0
3, 88424, Control_c, 0, 64, 127
3, 88524, Note_on_c, 0, 69, 0
3, 88560, Note_on_c, 0, 65, 0
3, 88566, Note_on_c, 0, 62, 0
3, 88576, Note_on_c, 0, 58, 0
3, 88584, Note_on_c, 0, 36, 0
3, 88712, Note_on_c, 0, 36, 37
3, 88776, Note_on_c, 0, 24, 0
3, 88802, Note_on_c, 0, 36, 0
3, 89084, Control_c, 0, 64, 0
3, 89090, Note_on_c, 0, 41, 46
3, 89092, Note_on_c, 0, 48, 36
3, 89162, Control_c, 0, 64, 127
3, 89290, Note_on_c, 0, 53, 49
3, 89292, Note_on_c, 0, 48, 0
3, 89292, Note_on_c, 0, 64, 39
3, 89294, Note_on_c, 0, 52, 40
3, 89298, Note_on_c, 0, 57, 38
3, 89302, Note_on_c, 0, 60, 35
3, 89592, Note_on_c, 0, 64, 0
3, 89620, Note_on_c, 0, 53, 0
3, 89622, Note_on_c, 0, 57, 0
3, 89632, Note_on_c, 0, 60, 0
3, 89636, Note_on_c, 0, 52, 0
3, 89842, Control_c, 0, 64, 0
3, 89846, Note_on_c, 0, 63, 42
3, 89846, Note_on_c, 0, 53, 50
3, 89852, Note_on_c, 0, 57, 41
3, 89854, Note_on_c, 0, 51, 42
3, 89854, Note_on_c, 0, 60, 44
3, 89916, Control_c, 0, 64, 127
3, 90064, Note_on_c, 0, 51, 0
3, 90100, Note_on_c, 0, 63, 0
3, 90134, Note_on_c, 0, 53, 0
3, 90148, Note_on_c, 0, 57, 0
3, 90154, Note_on_c, 0, 60, 0
3, 90246, Note_on_c, 0, 50, 37
3, 90246, Control_c, 0, 64, 0
3, 90246, Note_on_c, 0, 53, 34
3, 90248, Note_on_c, 0, 57, 44
3, 90248, Note_on_c, 0, 62, 47
3, 90304, Control_c, 0, 64, 127
3, 90398, Note_on_c, 0, 50, 0
3, 90398, Note_on_c, 0, 41, 0
3, 90492, Note_on_c, 0, 57, 0
3, 90498, Note_on_c, 0, 53, 0
3, 90554, Note_on_c, 0, 62, 0
3, 90562, Note_on_c, 0, 43, 22
3, 90596, Note_on_c, 0, 43, 0
3, 90628, Control_c, 0, 64, 0
3, 90632, Note_on_c, 0, 36, 33
3, 90634, Note_on_c, 0, 58, 45
3, 90634, Note_on_c, 0, 52, 37
3, 90648, Note_on_c, 0, 52, 0
3, 90648, Note_on_c, 0, 58, 0
3, 90662, Note_on_c, 0, 36, 0
3, 90828, Note_on_c, 0, 63, 57
3, 90834, Note_on_c, 0, 52, 40
3, 90834, Note_on_c, 0, 48, 35
3, 90836, Note_on_c, 0, 58, 36
3, 90836, Note_on_c, 0, 36, 34
3, 90930, Control_c, 0, 64, 127
3, 91066, Note_on_c, 0, 48, 0
3, 91080, Note_on_c, 0, 63, 0
3, 91108, Note_on_c, 0, 52, 0
3, 91134, Note_on_c, 0, 58, 0
3, 91152, Note_on_c, 0, 36, 0
3, 91182, Note_on_c, 0, 52, 55
3, 91184, Note_on_c, 0, 58, 37
3, 91186, Note_on_c, 0, 48, 34
3, 91186, Note_on_c, 0, 36, 19
3, 91188, Note_on_c, 0, 62, 34
3, 91194, Control_c, 0, 64, 0
3, 91196, Note_on_c, 0, 52, 0
3, 91200, Note_on_c, 0, 48, 0
3, 91206, Note_on_c, 0, 62, 0
3, 91206, Note_on_c, 0, 58, 0
3, 91226, Note_on_c, 0, 36, 0
3, 91374, Note_on_c, 0, 58, 49
3, 91378, Note_on_c, 0, 62, 45
3, 91380, Note_on_c, 0, 52, 36
3, 91380, Note_on_c, 0, 36, 39
3, 91432, Control_c, 0, 64, 127
3, 91564, Note_on_c, 0, 24, 41
3, 91588, Note_on_c, 0, 36, 0
3, 91598, Note_on_c, 0, 52, 0
3, 91628, Note_on_c, 0, 58, 0
3, 91650, Note_on_c, 0, 62, 0
3, 91774, Note_on_c, 0, 61, 47
3, 91780, Note_on_c, 0, 52, 36
3, 91780, Note_on_c, 0, 56, 33
3, 91782, Note_on_c, 0, 24, 0
3, 91782, Note_on_c, 0, 36, 31
3, 91784, Note_on_c, 0, 58, 32
3, 91814, Note_on_c, 0, 36, 0
3, 91926, Note_on_c, 0, 52, 0
3, 91976, Note_on_c, 0, 52, 33
3, 91992, Note_on_c, 0, 52, 0
3, 92022, Note_on_c, 0, 56, 0
3, 92024, Note_on_c, 0, 58, 0
3, 92038, Note_on_c, 0, 61, 0
3, 92156, Control_c, 0, 64, 0
3, 92160, Note_on_c, 0, 53, 36
3, 92160, Note_on_c, 0, 64, 38
3, 92162, Note_on_c, 0, 57, 40
3, 92162, Note_on_c, 0, 60, 52
3, 92164, Note_on_c, 0, 41, 36
3, 92166, Note_on_c, 0, 52, 37
3, 92240, Control_c, 0, 64, 127
3, 92418, Note_on_c, 0, 57, 0
3, 92418, Note_on_c, 0, 60, 0
3, 92418, Note_on_c, 0, 64, 0
3, 92440, Note_on_c, 0, 53, 0
3, 92456, Note_on_c, 0, 52, 0
3, 92544, Note_on_c, 0, 63, 47
3, 92546, Note_on_c, 0, 51, 45
3, 92546, Note_on_c, 0, 53, 44
3, 92558, Control_c, 0, 64, 0
3, 92558, Note_on_c, 0, 57, 28
3, 92560, Note_on_c, 0, 60, 35
3, 92618, Control_c, 0, 64, 127
3, 92780, Note_on_c, 0, 63, 0
3, 92806, Note_on_c, 0, 51, 0
3, 92822, Note_on_c, 0, 57, 0
3, 92822, Note_on_c, 0, 53, 0
3, 92836, Note_on_c, 0, 60, 0
3, 92936, Control_c, 0, 64, 0
3, 92940, Note_on_c, 0, 63, 40
3, 92942, Note_on_c, 0, 53, 45
3, 92948, Note_on_c, 0, 57, 36
3, 92948, Note_on_c, 0, 51, 39
3, 92952, Note_on_c, 0, 60, 37
3, 92974, Control_c, 0, 64, 127
3, 93124, Note_on_c, 0, 51, 0
3, 93172, Note_on_c, 0, 63, 0
3, 93212, Note_on_c, 0, 53, 0
3, 93224, Note_on_c, 0, 57, 0
3, 93232, Note_on_c, 0, 60, 0
3, 93308, Control_c, 0, 64, 0
3, 93324, Note_on_c, 0, 62, 45
3, 93326, Note_on_c, 0, 53, 32
3, 93328, Note_on_c, 0, 57, 36
3, 93334, Note_on_c, 0, 50, 30
3, 93346, Control_c, 0, 64, 127
3, 93432, Note_on_c, 0, 50, 0
3, 93470, Note_on_c, 0, 41, 0
3, 93530, Note_on_c, 0, 57, 0
3, 93546, Note_on_c, 0, 53, 0
3, 93586, Note_on_c, 0, 62, 0
3, 93706, Note_on_c, 0, 63, 55
3, 93710, Control_c, 0, 64, 0
3, 93710, Note_on_c, 0, 48, 28
3, 93710, Note_on_c, 0, 52, 40
3, 93710, Note_on_c, 0, 58, 52
3, 93712, Note_on_c, 0, 43, 36
3, 93714, Note_on_c, 0, 36, 32
3, 93832, Control_c, 0, 64, 127
3, 93952, Note_on_c, 0, 48, 0
3, 93964, Note_on_c, 0, 43, 0
3, 93994, Note_on_c, 0, 52, 0
3, 94020, Note_on_c, 0, 58, 0
3, 94042, Note_on_c, 0, 63, 0
3, 94076, Control_c, 0, 64, 0
3, 94086, Note_on_c, 0, 48, 33
3, 94086, Note_on_c, 0, 52, 46
3, 94092, Note_on_c, 0, 62, 43
3, 94092, Note_on_c, 0, 58, 31
3, 94126, Control_c, 0, 64, 127
3, 94344, Note_on_c, 0, 36, 0
3, 94396, Note_on_c, 0, 58, 0
3, 94396, Note_on_c, 0, 52, 0
3, 94416, Note_on_c, 0, 48, 0
3, 94434, Note_on_c, 0, 62, 0
3, 94466, Control_c, 0, 64, 0
3, 94480, Note_on_c, 0, 61, 37
3, 94482, Note_on_c, 0, 36, 33
3, 94484, Note_on_c, 0, 52, 32
3, 94486, Note_on_c, 0, 48, 29
3, 94486, Note_on_c, 0, 58, 32
3, 94608, Control_c, 0, 64, 127
3, 94728, Note_on_c, 0, 48, 0
3, 94772, Note_on_c, 0, 52, 0
3, 94772, Note_on_c, 0, 58, 0
3, 94804, Note_on_c, 0, 61, 0
3, 94846, Control_c, 0, 64, 0
3, 94860, Note_on_c, 0, 60, 51
3, 94860, Note_on_c, 0, 48, 27
3, 94862, Note_on_c, 0, 52, 30
3, 94868, Note_on_c, 0, 58, 25
3, 94896, Control_c, 0, 64, 127
3, 94930, Note_on_c, 0, 48, 0
3, 94970, Note_on_c, 0, 36, 0
3, 94986, Note_on_c, 0, 52, 0
3, 95004, Note_on_c, 0, 60, 0
3, 95024, Note_on_c, 0, 58, 0
3, 95240, Note_on_c, 0, 29, 46
3, 95244, Note_on_c, 0, 41, 41
3, 95794, Note_on_c, 0, 41, 0
3, 95812, Note_on_c, 0, 29, 0
3, 97056, Control_c, 0, 64, 0
3, 97056, End_track
4, 0, Start_track
4, 0, Title_t, "Track 3"
4, 0, Program_c, 1, 32
4, 0, Control_c, 1, 7, 108
4, 0, Note_on_c, 1, 29, 74
4, 666, Note_on_c, 1, 36, 81
4, 668, Note_on_c, 1, 29, 0
4, 785, Note_on_c, 1, 41, 80
4, 788, Note_on_c, 1, 36, 0
4, 970, Note_on_c, 1, 41, 0
4, 1039, Note_on_c, 1, 41, 82
4, 1409, Note_on_c, 1, 41, 0
4, 1410, Note_on_c, 1, 35, 61
4, 1515, Note_on_c, 1, 35, 0
4, 1542, Note_on_c, 1, 36, 72
4, 2298, Note_on_c, 1, 48, 59
4, 2353, Note_on_c, 1, 48, 0
4, 2526, Note_on_c, 1, 48, 72
4, 2615, Note_on_c, 1, 48, 0
4, 2679, Note_on_c, 1, 48, 54
4, 2787, Note_on_c, 1, 50, 48
4, 2788, Note_on_c, 1, 48, 0
4, 2821, Note_on_c, 1, 36, 0
4, 2895, Note_on_c, 1, 50, 0
4, 2901, Note_on_c, 1, 48, 60
4, 3056, Note_on_c, 1, 41, 62
4, 3061, Note_on_c, 1, 48, 0
4, 3573, Note_on_c, 1, 36, 61
4, 3617, Note_on_c, 1, 36, 0
4, 3855, Note_on_c, 1, 29, 67
4, 4347, Note_on_c, 1, 41, 0
4, 4482, Note_on_c, 1, 41, 75
4, 4582, Note_on_c, 1, 29, 0
4, 4583, Note_on_c, 1, 41, 0
4, 4623, Note_on_c, 1, 36, 81
4, 5609, Note_on_c, 1, 48, 76
4, 5737, Note_on_c, 1, 48, 0
4, 5774, Note_on_c, 1, 49, 49
4, 5818, Note_on_c, 1, 36, 0
4, 5988, Note_on_c, 1, 49, 0
4, 6003, Note_on_c, 1, 48, 59
4, 6150, Note_on_c, 1, 41, 62
4, 6157, Note_on_c, 1, 48, 0
4, 6751, Note_on_c, 1, 41, 0
4, 6775, Note_on_c, 1, 36, 70
4, 6884, Note_on_c, 1, 36, 0
4, 6924, Note_on_c, 1, 36, 69
4, 7162, Note_on_c, 1, 29, 62
4, 7196, Note_on_c, 1, 36, 0
4, 8301, Note_on_c, 1, 29, 0
4, 8303, Note_on_c, 1, 36, 70
4, 8407, Note_on_c, 1, 36, 0
4, 8437, Note_on_c, 1, 41, 70
4, 8632, Note_on_c, 1, 41, 0
4, 8659, Note_on_c, 1, 41, 59
4, 8787, Note_on_c, 1, 41, 0
4, 8805, Note_on_c, 1, 36, 66
4, 9217, Note_on_c, 1, 36, 0
4, 9222, Note_on_c, 1, 31, 76
4, 9824, Note_on_c, 1, 31, 0
4, 9841, Note_on_c, 1, 37, 81
4, 9972, Note_on_c, 1, 37, 0
4, 9989, Note_on_c, 1, 36, 78
4, 10617, Note_on_c, 1, 36, 0
4, 10628, Note_on_c, 1, 43, 47
4, 10715, Note_on_c, 1, 43, 0
4, 11029, Note_on_c, 1, 46, 84
4, 11132, Note_on_c, 1, 47, 76
4, 11185, Note_on_c, 1, 46, 0
4, 11370, Note_on_c, 1, 47, 0
4, 11372, Note_on_c, 1, 48, 70
4, 11623, Note_on_c, 1, 48, 0
4, 11758, Note_on_c, 1, 43, 61
4, 11874, Note_on_c, 1, 43, 0
4, 11910, Note_on_c, 1, 36, 65
4, 12168, Note_on_c, 1, 39, 51
4, 12186, Note_on_c, 1, 36, 0
4, 12246, Note_on_c, 1, 39, 0
4, 12292, Note_on_c, 1, 41, 66
4, 13044, Note_on_c, 1, 29, 62
4, 13132, Note_on_c, 1, 41, 0
4, 13711, Note_on_c, 1, 36, 58
4, 13773, Note_on_c, 1, 29, 0
4, 13810, Note_on_c, 1, 36, 0
4, 13840, Note_on_c, 1, 41, 94
4, 14455, Note_on_c, 1, 36, 46
4, 14519, Note_on_c, 1, 36, 0
4, 14530, Note_on_c, 1, 41, 0
4, 14566, Note_on_c, 1, 33, 82
4, 15072, Note_on_c, 1, 33, 0
4, 15093, Note_on_c, 1, 36, 53
4, 15167, Note_on_c, 1, 36, 0
4, 15209, Note_on_c, 1, 37, 77
4, 15326, Note_on_c, 1, 37, 0
4, 15354, Note_on_c, 1, 38, 70
4, 15605, Note_on_c, 1, 51, 97
4, 15751, Note_on_c, 1, 51, 0
4, 15759, Note_on_c, 1, 50, 58
4, 16607, Note_on_c, 1, 38, 0
4, 16639, Note_on_c, 1, 45, 71
4, 16679, Note_on_c, 1, 50, 0
4, 16682, Note_on_c, 1, 45, 0
4, 16766, Note_on_c, 1, 39, 66
4, 16868, Note_on_c, 1, 39, 0
4, 16899, Note_on_c, 1, 38, 49
4, 17692, Note_on_c, 1, 33, 67
4, 17720, Note_on_c, 1, 38, 0
4, 18282, Note_on_c, 1, 33, 0
4, 18302, Note_on_c, 1, 30, 74
4, 18406, Note_on_c, 1, 30, 0
4, 18432, Note_on_c, 1, 31, 107
4, 19208, Note_on_c, 1, 38, 84
4, 19218, Note_on_c, 1, 31, 0
4, 19890, Note_on_c, 1, 37, 72
4, 19898, Note_on_c, 1, 38, 0
4, 19938, Note_on_c, 1, 37, 0
4, 19960, Note_on_c, 1, 36, 69
4, 20740, Note_on_c, 1, 48, 117
4, 20778, Note_on_c, 1, 36, 0
4, 21078, Note_on_c, 1, 36, 68
4, 21100, Note_on_c, 1, 36, 0
4, 21136, Note_on_c, 1, 46, 82
4, 21148, Note_on_c, 1, 48, 0
4, 21454, Note_on_c, 1, 40, 62
4, 21466, Note_on_c, 1, 40, 0
4, 21518, Note_on_c, 1, 46, 0
4, 21518, Note_on_c, 1, 45, 83
4, 21826, Note_on_c, 1, 40, 69
4, 21894, Note_on_c, 1, 40, 0
4, 21894, Note_on_c, 1, 45, 0
4, 21902, Note_on_c, 1, 33, 71
4, 22806, Note_on_c, 1, 40, 79
4, 22828, Note_on_c, 1, 40, 0
4, 22834, Note_on_c, 1, 33, 0
4, 22916, Note_on_c, 1, 39, 83
4, 23006, Note_on_c, 1, 39, 0
4, 23022, Note_on_c, 1, 38, 70
4, 23176, Note_on_c, 1, 52, 47
4, 23210, Note_on_c, 1, 52, 0
4, 23218, Note_on_c, 1, 53, 69
4, 23264, Note_on_c, 1, 53, 0
4, 23268, Note_on_c, 1, 54, 64
4, 24320, Note_on_c, 1, 33, 84
4, 24330, Note_on_c, 1, 38, 0
4, 24340, Note_on_c, 1, 54, 0
4, 24352, Note_on_c, 1, 33, 0
4, 24394, Note_on_c, 1, 32, 82
4, 24480, Note_on_c, 1, 32, 0
4, 24520, Note_on_c, 1, 30, 79
4, 24584, Note_on_c, 1, 30, 0
4, 24596, Note_on_c, 1, 31, 86
4, 24980, Note_on_c, 1, 38, 96
4, 25098, Note_on_c, 1, 31, 0
4, 25362, Note_on_c, 1, 43, 80
4, 25388, Note_on_c, 1, 38, 0
4, 26026, Note_on_c, 1, 38, 49
4, 26040, Note_on_c, 1, 38, 0
4, 26052, Note_on_c, 1, 43, 0
4, 26078, Note_on_c, 1, 38, 69
4, 26124, Note_on_c, 1, 38, 0
4, 26142, Note_on_c, 1, 36, 85
4, 26888, Note_on_c, 1, 48, 82
4, 27636, Note_on_c, 1, 48, 0
4, 27638, Note_on_c, 1, 29, 75
4, 27650, Note_on_c, 1, 36, 0
4, 28418, Note_on_c, 1, 41, 76
4, 28422, Note_on_c, 1, 29, 0
4, 29206, Note_on_c, 1, 36, 74
4, 29214, Note_on_c, 1, 41, 0
4, 29960, Note_on_c, 1, 48, 78
4, 29968, Note_on_c, 1, 36, 0
4, 30552, Note_on_c, 1, 48, 0
4, 30739, Note_on_c, 1, 40, 67
4, 30825, Note_on_c, 1, 40, 0
4, 30974, Note_on_c, 1, 41, 76
4, 31347, Note_on_c, 1, 36, 65
4, 31352, Note_on_c, 1, 41, 0
4, 31455, Note_on_c, 1, 36, 0
4, 31490, Note_on_c, 1, 29, 55
4, 32100, Note_on_c, 1, 36, 69
4, 32159, Note_on_c, 1, 29, 0
4, 32225, Note_on_c, 1, 36, 0
4, 32240, Note_on_c, 1, 41, 79
4, 32447, Note_on_c, 1, 41, 0
4, 32478, Note_on_c, 1, 41, 86
4, 32889, Note_on_c, 1, 36, 75
4, 32980, Note_on_c, 1, 36, 0
4, 33014, Note_on_c, 1, 41, 0
4, 33029, Note_on_c, 1, 29, 52
4, 33216, Note_on_c, 1, 29, 0
4, 33256, Note_on_c, 1, 29, 51
4, 33661, Note_on_c, 1, 36, 70
4, 33750, Note_on_c, 1, 29, 0
4, 33751, Note_on_c, 1, 36, 0
4, 33788, Note_on_c, 1, 31, 70
4, 34198, Note_on_c, 1, 37, 87
4, 34213, Note_on_c, 1, 31, 0
4, 34455, Note_on_c, 1, 34, 62
4, 34488, Note_on_c, 1, 37, 0
4, 34554, Note_on_c, 1, 34, 0
4, 34579, Note_on_c, 1, 36, 71
4, 35205, Note_on_c, 1, 48, 79
4, 35323, Note_on_c, 1, 48, 0
4, 35350, Note_on_c, 1, 50, 88
4, 35365, Note_on_c, 1, 48, 39
4, 35374, Note_on_c, 1, 36, 0
4, 35383, Note_on_c, 1, 48, 0
4, 35968, Note_on_c, 1, 35, 74
4, 36004, Note_on_c, 1, 50, 0
4, 36104, Note_on_c, 1, 35, 0
4, 36107, Note_on_c, 1, 36, 74
4, 36614, Note_on_c, 1, 39, 62
4, 36661, Note_on_c, 1, 39, 0
4, 36662, Note_on_c, 1, 36, 0
4, 36708, Note_on_c, 1, 40, 65
4, 36820, Note_on_c, 1, 40, 0
4, 36847, Note_on_c, 1, 41, 78
4, 37640, Note_on_c, 1, 29, 56
4, 37748, Note_on_c, 1, 41, 0
4, 38298, Note_on_c, 1, 36, 72
4, 38318, Note_on_c, 1, 36, 0
4, 38436, Note_on_c, 1, 41, 107
4, 38638, Note_on_c, 1, 29, 0
4, 39290, Note_on_c, 1, 43, 50
4, 39310, Note_on_c, 1, 41, 0
4, 39360, Note_on_c, 1, 43, 0
4, 39420, Note_on_c, 1, 44, 84
4, 39541, Note_on_c, 1, 44, 0
4, 39566, Note_on_c, 1, 45, 86
4, 39811, Note_on_c, 1, 45, 0
4, 39826, Note_on_c, 1, 37, 71
4, 39951, Note_on_c, 1, 37, 0
4, 39962, Note_on_c, 1, 38, 74
4, 40462, Note_on_c, 1, 52, 52
4, 40559, Note_on_c, 1, 52, 0
4, 40573, Note_on_c, 1, 53, 56
4, 40700, Note_on_c, 1, 53, 0
4, 40712, Note_on_c, 1, 54, 71
4, 41379, Note_on_c, 1, 33, 64
4, 41481, Note_on_c, 1, 54, 0
4, 41507, Note_on_c, 1, 33, 0
4, 41515, Note_on_c, 1, 30, 54
4, 41791, Note_on_c, 1, 38, 0
4, 42123, Note_on_c, 1, 33, 63
4, 42125, Note_on_c, 1, 30, 0
4, 42261, Note_on_c, 1, 33, 0
4, 42264, Note_on_c, 1, 38, 79
4, 42775, Note_on_c, 1, 45, 60
4, 42802, Note_on_c, 1, 45, 0
4, 42862, Note_on_c, 1, 38, 0
4, 42878, Note_on_c, 1, 44, 85
4, 42987, Note_on_c, 1, 44, 0
4, 43017, Note_on_c, 1, 43, 70
4, 43291, Note_on_c, 1, 38, 67
4, 43340, Note_on_c, 1, 43, 0
4, 43367, Note_on_c, 1, 38, 0
4, 43410, Note_on_c, 1, 34, 52
4, 44038, Note_on_c, 1, 38, 69
4, 44045, Note_on_c, 1, 34, 0
4, 44183, Note_on_c, 1, 34, 59
4, 44187, Note_on_c, 1, 38, 0
4, 44406, Note_on_c, 1, 34, 0
4, 44420, Note_on_c, 1, 35, 71
4, 44561, Note_on_c, 1, 35, 0
4, 44572, Note_on_c, 1, 36, 68
4, 45063, Note_on_c, 1, 50, 80
4, 45152, Note_on_c, 1, 50, 0
4, 45191, Note_on_c, 1, 49, 90
4, 45317, Note_on_c, 1, 49, 0
4, 45338, Note_on_c, 1, 48, 92
4, 45420, Note_on_c, 1, 36, 0
4, 45577, Note_on_c, 1, 36, 78
4, 45664, Note_on_c, 1, 36, 0
4, 45857, Note_on_c, 1, 35, 65
4, 45858, Note_on_c, 1, 36, 65
4, 45899, Note_on_c, 1, 36, 0
4, 45905, Note_on_c, 1, 35, 0
4, 45919, Note_on_c, 1, 48, 0
4, 45947, Note_on_c, 1, 34, 81
4, 46064, Note_on_c, 1, 34, 0
4, 46091, Note_on_c, 1, 33, 83
4, 46745, Note_on_c, 1, 40, 56
4, 46815, Note_on_c, 1, 33, 0
4, 46817, Note_on_c, 1, 40, 0
4, 46856, Note_on_c, 1, 45, 91
4, 47490, Note_on_c, 1, 37, 69
4, 47506, Note_on_c, 1, 45, 0
4, 47603, Note_on_c, 1, 37, 0
4, 47628, Note_on_c, 1, 38, 75
4, 48269, Note_on_c, 1, 45, 56
4, 48305, Note_on_c, 1, 45, 0
4, 48412, Note_on_c, 1, 50, 95
4, 48585, Note_on_c, 1, 50, 0
4, 48652, Note_on_c, 1, 50, 70
4, 48658, Note_on_c, 1, 52, 81
4, 48676, Note_on_c, 1, 52, 0
4, 48703, Note_on_c, 1, 38, 0
4, 48770, Note_on_c, 1, 50, 0
4, 48796, Note_on_c, 1, 45, 66
4, 48851, Note_on_c, 1, 45, 0
4, 48924, Note_on_c, 1, 38, 60
4, 48979, Note_on_c, 1, 38, 0
4, 49036, Note_on_c, 1, 44, 76
4, 49155, Note_on_c, 1, 44, 0
4, 49185, Note_on_c, 1, 43, 62
4, 49822, Note_on_c, 1, 38, 62
4, 49828, Note_on_c, 1, 43, 0
4, 49952, Note_on_c, 1, 31, 64
4, 49960, Note_on_c, 1, 38, 0
4, 50568, Note_on_c, 1, 38, 59
4, 50624, Note_on_c, 1, 31, 0
4, 50659, Note_on_c, 1, 38, 0
4, 50685, Note_on_c, 1, 36, 80
4, 51707, Note_on_c, 1, 48, 94
4, 51920, Note_on_c, 1, 36, 0
4, 51982, Note_on_c, 1, 39, 80
4, 52023, Note_on_c, 1, 48, 0
4, 52027, Note_on_c, 1, 39, 0
4, 52090, Note_on_c, 1, 40, 64
4, 52198, Note_on_c, 1, 40, 0
4, 52211, Note_on_c, 1, 41, 69
4, 52985, Note_on_c, 1, 36, 60
4, 52986, Note_on_c, 1, 41, 0
4, 53793, Note_on_c, 1, 29, 39
4, 53795, Note_on_c, 1, 36, 0
4, 54372, Note_on_c, 1, 36, 62
4, 54394, Note_on_c, 1, 29, 0
4, 54466, Note_on_c, 1, 36, 0
4, 54505, Note_on_c, 1, 41, 94
4, 55036, Note_on_c, 1, 36, 70
4, 55055, Note_on_c, 1, 41, 0
4, 55124, Note_on_c, 1, 36, 0
4, 55155, Note_on_c, 1, 37, 76
4, 55256, Note_on_c, 1, 37, 0
4, 55278, Note_on_c, 1, 38, 80
4, 55818, Note_on_c, 1, 52, 50
4, 55916, Note_on_c, 1, 52, 0
4, 55921, Note_on_c, 1, 53, 52
4, 56033, Note_on_c, 1, 53, 0
4, 56055, Note_on_c, 1, 54, 65
4, 56403, Note_on_c, 1, 38, 0
4, 56441, Note_on_c, 1, 37, 84
4, 56472, Note_on_c, 1, 54, 0
4, 56818, Note_on_c, 1, 37, 0
4, 56834, Note_on_c, 1, 38, 84
4, 57104, Note_on_c, 1, 34, 42
4, 57188, Note_on_c, 1, 34, 0
4, 57207, Note_on_c, 1, 50, 92
4, 57457, Note_on_c, 1, 38, 0
4, 57837, Note_on_c, 1, 38, 80
4, 57889, Note_on_c, 1, 50, 0
4, 57970, Note_on_c, 1, 38, 0
4, 57988, Note_on_c, 1, 33, 72
4, 58060, Note_on_c, 1, 33, 0
4, 58103, Note_on_c, 1, 32, 61
4, 58172, Note_on_c, 1, 32, 0
4, 58232, Note_on_c, 1, 30, 66
4, 58246, Note_on_c, 1, 29, 65
4, 58323, Note_on_c, 1, 29, 0
4, 58356, Note_on_c, 1, 30, 0
4, 58387, Note_on_c, 1, 31, 80
4, 59009, Note_on_c, 1, 38, 62
4, 59069, Note_on_c, 1, 38, 0
4, 59138, Note_on_c, 1, 43, 73
4, 59643, Note_on_c, 1, 38, 64
4, 59652, Note_on_c, 1, 31, 0
4, 59714, Note_on_c, 1, 38, 0
4, 59726, Note_on_c, 1, 43, 0
4, 59760, Note_on_c, 1, 37, 75
4, 59877, Note_on_c, 1, 37, 0
4, 59907, Note_on_c, 1, 36, 74
4, 60181, Note_on_c, 1, 50, 56
4, 60228, Note_on_c, 1, 50, 0
4, 60305, Note_on_c, 1, 52, 59
4, 60742, Note_on_c, 1, 36, 0
4, 60953, Note_on_c, 1, 43, 45
4, 61047, Note_on_c, 1, 52, 0
4, 61054, Note_on_c, 1, 43, 0
4, 61090, Note_on_c, 1, 48, 82
4, 61440, Note_on_c, 1, 41, 78
4, 61442, Note_on_c, 1, 48, 0
4, 62093, Note_on_c, 1, 36, 58
4, 62155, Note_on_c, 1, 36, 0
4, 62234, Note_on_c, 1, 29, 63
4, 62260, Note_on_c, 1, 41, 0
4, 62837, Note_on_c, 1, 29, 0
4, 62839, Note_on_c, 1, 36, 60
4, 62963, Note_on_c, 1, 36, 0
4, 62984, Note_on_c, 1, 29, 82
4, 63358, Note_on_c, 1, 29, 0
4, 63382, Note_on_c, 1, 31, 63
4, 63690, Note_on_c, 1, 36, 41
4, 63738, Note_on_c, 1, 36, 0
4, 63744, Note_on_c, 1, 31, 0
4, 63749, Note_on_c, 1, 41, 80
4, 64128, Note_on_c, 1, 41, 0
4, 64130, Note_on_c, 1, 38, 75
4, 64524, Note_on_c, 1, 38, 0
4, 64525, Note_on_c, 1, 32, 82
4, 65300, Note_on_c, 1, 37, 77
4, 65326, Note_on_c, 1, 32, 0
4, 66063, Note_on_c, 1, 43, 81
4, 66073, Note_on_c, 1, 37, 0
4, 66584, Note_on_c, 1, 34, 66
4, 66593, Note_on_c, 1, 43, 0
4, 66639, Note_on_c, 1, 34, 0
4, 66688, Note_on_c, 1, 35, 76
4, 66785, Note_on_c, 1, 35, 0
4, 66814, Note_on_c, 1, 36, 80
4, 67455, Note_on_c, 1, 43, 66
4, 67472, Note_on_c, 1, 36, 0
4, 67573, Note_on_c, 1, 43, 0
4, 67594, Note_on_c, 1, 41, 56
4, 68613, Note_on_c, 1, 36, 55
4, 68614, Note_on_c, 1, 41, 0
4, 68728, Note_on_c, 1, 36, 0
4, 68755, Note_on_c, 1, 29, 61
4, 70142, Note_on_c, 1, 41, 75
4, 70355, Note_on_c, 1, 41, 0
4, 70397, Note_on_c, 1, 36, 57
4, 70406, Note_on_c, 1, 29, 0
4, 70520, Note_on_c, 1, 36, 0
4, 70524, Note_on_c, 1, 30, 62
4, 70629, Note_on_c, 1, 30, 0
4, 70655, Note_on_c, 1, 31, 76
4, 71046, Note_on_c, 1, 37, 83
4, 71047, Note_on_c, 1, 31, 0
4, 71240, Note_on_c, 1, 37, 0
4, 71300, Note_on_c, 1, 34, 61
4, 71396, Note_on_c, 1, 34, 0
4, 71430, Note_on_c, 1, 36, 67
4, 72179, Note_on_c, 1, 36, 0
4, 72432, Note_on_c, 1, 50, 84
4, 72432, Note_on_c, 1, 34, 72
4, 72642, Note_on_c, 1, 50, 0
4, 72668, Note_on_c, 1, 34, 0
4, 72682, Note_on_c, 1, 51, 62
4, 72688, Note_on_c, 1, 35, 68
4, 72900, Note_on_c, 1, 51, 0
4, 72930, Note_on_c, 1, 52, 56
4, 72931, Note_on_c, 1, 35, 0
4, 72935, Note_on_c, 1, 36, 57
4, 73458, Note_on_c, 1, 31, 54
4, 73465, Note_on_c, 1, 52, 0
4, 73466, Note_on_c, 1, 36, 0
4, 73518, Note_on_c, 1, 31, 0
4, 73588, Note_on_c, 1, 30, 62
4, 73697, Note_on_c, 1, 30, 0
4, 73715, Note_on_c, 1, 29, 56
4, 74485, Note_on_c, 1, 41, 90
4, 74518, Note_on_c, 1, 29, 0
4, 75574, Note_on_c, 1, 36, 40
4, 75597, Note_on_c, 1, 36, 0
4, 75650, Note_on_c, 1, 29, 66
4, 76012, Note_on_c, 1, 29, 0
4, 76021, Note_on_c, 1, 41, 0
4, 76023, Note_on_c, 1, 33, 85
4, 76663, Note_on_c, 1, 33, 0
4, 76664, Note_on_c, 1, 37, 65
4, 76785, Note_on_c, 1, 37, 0
4, 76802, Note_on_c, 1, 38, 70
4, 77451, Note_on_c, 1, 50, 91
4, 77557, Note_on_c, 1, 38, 0
4, 77577, Note_on_c, 1, 50, 0
4, 77608, Note_on_c, 1, 44, 58
4, 78195, Note_on_c, 1, 37, 52
4, 78234, Note_on_c, 1, 37, 0
4, 78346, Note_on_c, 1, 44, 0
4, 78359, Note_on_c, 1, 45, 59
4, 78422, Note_on_c, 1, 45, 0
4, 78594, Note_on_c, 1, 38, 68
4, 78700, Note_on_c, 1, 38, 0
4, 78737, Note_on_c, 1, 33, 73
4, 79616, Note_on_c, 1, 29, 61
4, 79626, Note_on_c, 1, 33, 0
4, 79717, Note_on_c, 1, 29, 0
4, 79748, Note_on_c, 1, 30, 83
4, 79877, Note_on_c, 1, 30, 0
4, 79887, Note_on_c, 1, 31, 74
4, 80140, Note_on_c, 1, 38, 70
4, 80186, Note_on_c, 1, 38, 0
4, 80288, Note_on_c, 1, 46, 70
4, 80545, Note_on_c, 1, 31, 0
4, 81030, Note_on_c, 1, 46, 0
4, 81042, Note_on_c, 1, 38, 74
4, 81347, Note_on_c, 1, 37, 72
4, 81348, Note_on_c, 1, 38, 0
4, 81394, Note_on_c, 1, 37, 0
4, 81430, Note_on_c, 1, 36, 62
4, 81739, Note_on_c, 1, 43, 45
4, 81776, Note_on_c, 1, 43, 0
4, 81805, Note_on_c, 1, 50, 87
4, 81855, Note_on_c, 1, 36, 0
4, 81942, Note_on_c, 1, 43, 32
4, 81961, Note_on_c, 1, 50, 0
4, 81969, Note_on_c, 1, 43, 0
4, 82001, Note_on_c, 1, 49, 71
4, 82168, Note_on_c, 1, 49, 0
4, 82193, Note_on_c, 1, 48, 60
4, 82537, Note_on_c, 1, 43, 40
4, 82549, Note_on_c, 1, 48, 0
4, 82564, Note_on_c, 1, 43, 0
4, 82584, Note_on_c, 1, 46, 72
4, 82891, Note_on_c, 1, 43, 43
4, 82899, Note_on_c, 1, 46, 0
4, 82939, Note_on_c, 1, 43, 0
4, 82955, Note_on_c, 1, 45, 77
4, 83299, Note_on_c, 1, 40, 38
4, 83303, Note_on_c, 1, 45, 0
4, 83658, Note_on_c, 1, 36, 74
4, 83666, Note_on_c, 1, 40, 0
4, 83703, Note_on_c, 1, 36, 0
4, 83726, Note_on_c, 1, 36, 65
4, 84019, Note_on_c, 1, 36, 0
4, 84032, Note_on_c, 1, 33, 82
4, 84085, Note_on_c, 1, 33, 0
4, 84100, Note_on_c, 1, 33, 62
4, 84284, Note_on_c, 1, 33, 0
4, 84289, Note_on_c, 1, 37, 72
4, 84464, Note_on_c, 1, 37, 0
4, 84484, Note_on_c, 1, 38, 75
4, 84808, Note_on_c, 1, 37, 60
4, 84870, Note_on_c, 1, 38, 0
4, 84876, Note_on_c, 1, 37, 0
4, 84886, Note_on_c, 1, 50, 95
4, 85210, Note_on_c, 1, 42, 63
4, 85240, Note_on_c, 1, 42, 0
4, 85252, Note_on_c, 1, 50, 0
4, 85278, Note_on_c, 1, 45, 62
4, 85572, Note_on_c, 1, 45, 0
4, 85584, Note_on_c, 1, 41, 60
4, 85604, Note_on_c, 1, 41, 0
4, 85638, Note_on_c, 1, 41, 68
4, 85809, Note_on_c, 1, 41, 0
4, 85826, Note_on_c, 1, 42, 66
4, 85967, Note_on_c, 1, 39, 43
4, 86004, Note_on_c, 1, 42, 0
4, 86016, Note_on_c, 1, 39, 0
4, 86028, Note_on_c, 1, 43, 57
4, 86389, Note_on_c, 1, 43, 0
4, 86399, Note_on_c, 1, 38, 71
4, 86758, Note_on_c, 1, 38, 0
4, 86784, Note_on_c, 1, 34, 61
4, 87082, Note_on_c, 1, 38, 68
4, 87086, Note_on_c, 1, 34, 0
4, 87119, Note_on_c, 1, 38, 0
4, 87150, Note_on_c, 1, 31, 61
4, 87347, Note_on_c, 1, 31, 0
4, 87360, Note_on_c, 1, 34, 55
4, 87406, Note_on_c, 1, 34, 0
4, 87490, Note_on_c, 1, 35, 72
4, 87542, Note_on_c, 1, 35, 0
4, 87569, Note_on_c, 1, 36, 60
4, 88278, Note_on_c, 1, 34, 62
4, 88308, Note_on_c, 1, 36, 0
4, 88342, Note_on_c, 1, 48, 99
4, 88353, Note_on_c, 1, 34, 0
4, 88398, Note_on_c, 1, 48, 0
4, 88526, Note_on_c, 1, 48, 102
4, 89082, Note_on_c, 1, 48, 0
4, 89106, Note_on_c, 1, 29, 56
4, 89673, Note_on_c, 1, 36, 57
4, 89712, Note_on_c, 1, 36, 0
4, 89862, Note_on_c, 1, 29, 0
4, 89862, Note_on_c, 1, 41, 79
4, 90425, Note_on_c, 1, 41, 0
4, 90436, Note_on_c, 1, 38, 62
4, 90466, Note_on_c, 1, 38, 0
4, 90566, Note_on_c, 1, 37, 63
4, 90604, Note_on_c, 1, 37, 0
4, 90646, Note_on_c, 1, 36, 76
4, 91022, Note_on_c, 1, 48, 83
4, 91131, Note_on_c, 1, 49, 56
4, 91140, Note_on_c, 1, 48, 0
4, 91197, Note_on_c, 1, 49, 0
4, 91214, Note_on_c, 1, 48, 54
4, 91664, Note_on_c, 1, 36, 0
4, 91756, Note_on_c, 1, 48, 0
4, 91767, Note_on_c, 1, 36, 62
4, 91816, Note_on_c, 1, 36, 0
4, 91881, Note_on_c, 1, 36, 59
4, 91918, Note_on_c, 1, 36, 0
4, 91962, Note_on_c, 1, 40, 72
4, 92135, Note_on_c, 1, 40, 0
4, 92159, Note_on_c, 1, 41, 63
4, 92922, Note_on_c, 1, 41, 0
4, 92937, Note_on_c, 1, 36, 57
4, 92979, Note_on_c, 1, 36, 0
4, 93138, Note_on_c, 1, 36, 52
4, 93504, Note_on_c, 1, 36, 0
4, 93508, Note_on_c, 1, 35, 62
4, 93667, Note_on_c, 1, 35, 0
4, 93694, Note_on_c, 1, 36, 77
4, 94464, Note_on_c, 1, 48, 87
4, 94497, Note_on_c, 1, 48, 0
4, 94665, Note_on_c, 1, 48, 99
4, 94771, Note_on_c, 1, 36, 0
4, 95015, Note_on_c, 1, 48, 0
4, 95044, Note_on_c, 1, 36, 59
4, 95215, Note_on_c, 1, 36, 0
4, 95234, Note_on_c, 1, 29, 65
4, 96523, Note_on_c, 1, 29, 0
4, 96523, End_track
5, 0, Start_track
5, 0, Title_t, "Track 4"
5, 0, End_track
6, 0, Start_track
6, 0, Title_t, "Track 5"
6, 0, End_track
7, 0, Start_track
7, 0, Title_t, "Track 6"
7, 0, Control_c, 9, 0, 0
7, 0, Control_c, 9, 7, 100
7, 0, Program_c, 9, 32
7, 0, End_track
8, 0, Start_track
8, 0, Title_t, "Track 7"
8, 0, End_track
0, 0, End_of_file
