0, 0, Header, 1, 7, 120
1, 0, Start_track
1, 0, Title_t, "There will never be another you"
1, 0, Text_t, "dougmck@pipeline.com.au - markers are comments on things that might be of interest especially to piano players.\012"
1, 0, Text_t, "Played in real time - demonstrates development of melodic or rhythmic motifs\012"
1, 0, Text_t, " \012"
1, 0, Time_signature, 4, 2, 24, 8
1, 0, Key_signature, -3, "major"
1, 0, Tempo, 333333
1, 1920, Marker_t, "Play each melody note twice"
1, 5225, Marker_t, "Staccato 'Stabs' with LH are just ahead of beats 1 and 3 - and anticipate each new chord"
1, 7886, Marker_t, "More melody notes played twice "
1, 9328, Marker_t, "Red Garland type of voicing -LH plays standard rootless voicing - RH plays Octaves with (usually) perfect 5th"
1, 20487, Marker_t, "Notes in pairs - descend down appropriate scale"
1, 23146, Marker_t, "F7#11 - 0r G/F"
1, 23242, Marker_t, "Figure based on G triad target tones linked with chromatic coonecting tones"
1, 24480, Marker_t, "Dim scale on Bb7 - continues across barlines before resolving"
1, 35854, Marker_t, "On Eb7 chord - Dim scale in 16th notes"
1, 37106, Marker_t, "A rhythmic idea - chord tones and lower diatonic neighbour - same rhythm continues up then back down"
1, 37980, Marker_t, "Phrase increases in Volume and thickness of voicing"
1, 40350, Marker_t, "A little melodic phrase on EbMaj7"
1, 41433, Marker_t, "Same idea carried into new position with Dm7b5-G7alt chord"
1, 42205, Marker_t, "Idea continues  over Cm"
1, 47907, Marker_t, "5th(Bb) and upper neighbour"
1, 48328, Marker_t, "Surround the 3rd (G)"
1, 51151, Marker_t, "Pairs of notes made into a rhythm and carried down"
1, 53973, Marker_t, "Art Tatum type run - G/F - G triad has Black notes under each triad note - so this is easy to execute"
1, 61986, Marker_t, "More 'Red Garland' type voicings"
1, 63241, Marker_t, "Usinf George Shearing type block harmony - RH plays chord under melody and LH doubles melody below"
1, 71520, Marker_t, "Back to theme"
1, 71520, End_track
2, 0, Start_track
2, 0, End_track
3, 0, Start_track
3, 0, Control_c, 0, 0, 0
3, 0, Control_c, 0, 7, 113
3, 0, Control_c, 0, 32, 0
3, 0, Program_c, 0, 0
3, 4, Note_on_c, 0, 70, 67
3, 8, Note_on_c, 0, 62, 31
3, 9, Note_on_c, 0, 65, 44
3, 12, Note_on_c, 0, 60, 39
3, 13, Note_on_c, 0, 55, 38
3, 28, Control_c, 0, 64, 127
3, 134, Note_on_c, 0, 62, 0
3, 138, Note_on_c, 0, 65, 0
3, 139, Note_on_c, 0, 60, 0
3, 162, Note_on_c, 0, 55, 0
3, 164, Note_on_c, 0, 70, 0
3, 200, Note_on_c, 0, 75, 74
3, 247, Note_on_c, 0, 54, 38
3, 251, Note_on_c, 0, 75, 0
3, 251, Note_on_c, 0, 65, 44
3, 252, Control_c, 0, 64, 0
3, 256, Note_on_c, 0, 74, 57
3, 256, Note_on_c, 0, 58, 33
3, 258, Note_on_c, 0, 60, 41
3, 322, Note_on_c, 0, 74, 0
3, 335, Note_on_c, 0, 72, 64
3, 345, Note_on_c, 0, 72, 0
3, 382, Note_on_c, 0, 60, 0
3, 384, Note_on_c, 0, 65, 0
3, 418, Note_on_c, 0, 58, 0
3, 438, Note_on_c, 0, 54, 0
3, 440, Note_on_c, 0, 70, 69
3, 444, Note_on_c, 0, 62, 47
3, 448, Note_on_c, 0, 58, 35
3, 462, Note_on_c, 0, 62, 0
3, 462, Note_on_c, 0, 70, 0
3, 476, Note_on_c, 0, 58, 0
3, 568, Note_on_c, 0, 63, 56
3, 572, Note_on_c, 0, 58, 46
3, 572, Note_on_c, 0, 62, 48
3, 578, Note_on_c, 0, 63, 0
3, 584, Note_on_c, 0, 62, 0
3, 586, Note_on_c, 0, 58, 0
3, 685, Note_on_c, 0, 70, 55
3, 687, Note_on_c, 0, 60, 62
3, 687, Note_on_c, 0, 67, 58
3, 688, Note_on_c, 0, 64, 58
3, 690, Note_on_c, 0, 58, 59
3, 747, Control_c, 0, 64, 127
3, 805, Note_on_c, 0, 48, 37
3, 808, Note_on_c, 0, 64, 0
3, 810, Note_on_c, 0, 67, 0
3, 816, Note_on_c, 0, 60, 0
3, 818, Note_on_c, 0, 58, 0
3, 827, Note_on_c, 0, 70, 0
3, 837, Control_c, 0, 64, 0
3, 848, Note_on_c, 0, 60, 55
3, 849, Note_on_c, 0, 68, 49
3, 852, Note_on_c, 0, 63, 44
3, 854, Note_on_c, 0, 56, 25
3, 873, Note_on_c, 0, 63, 0
3, 875, Note_on_c, 0, 68, 0
3, 875, Note_on_c, 0, 60, 0
3, 881, Note_on_c, 0, 56, 0
3, 950, Note_on_c, 0, 48, 0
3, 970, Note_on_c, 0, 56, 42
3, 972, Note_on_c, 0, 65, 48
3, 975, Note_on_c, 0, 55, 41
3, 976, Note_on_c, 0, 63, 37
3, 979, Note_on_c, 0, 60, 38
3, 1071, Note_on_c, 0, 55, 0
3, 1083, Note_on_c, 0, 53, 47
3, 1095, Control_c, 0, 64, 127
3, 1096, Note_on_c, 0, 60, 0
3, 1113, Note_on_c, 0, 56, 0
3, 1157, Note_on_c, 0, 63, 0
3, 1173, Control_c, 0, 64, 0
3, 1176, Note_on_c, 0, 65, 0
3, 1198, Note_on_c, 0, 56, 42
3, 1199, Note_on_c, 0, 53, 0
3, 1201, Note_on_c, 0, 67, 45
3, 1202, Note_on_c, 0, 59, 47
3, 1206, Note_on_c, 0, 62, 44
3, 1210, Note_on_c, 0, 64, 33
3, 1285, Note_on_c, 0, 46, 36
3, 1310, Note_on_c, 0, 64, 0
3, 1313, Note_on_c, 0, 62, 0
3, 1313, Note_on_c, 0, 56, 0
3, 1325, Control_c, 0, 64, 127
3, 1326, Note_on_c, 0, 67, 0
3, 1338, Note_on_c, 0, 59, 0
3, 1401, Control_c, 0, 64, 0
3, 1404, Note_on_c, 0, 63, 48
3, 1407, Note_on_c, 0, 55, 44
3, 1409, Note_on_c, 0, 46, 0
3, 1411, Note_on_c, 0, 58, 34
3, 1419, Note_on_c, 0, 55, 0
3, 1423, Note_on_c, 0, 58, 0
3, 1436, Note_on_c, 0, 63, 0
3, 1468, Control_c, 0, 64, 127
3, 1505, Control_c, 0, 64, 0
3, 1513, Note_on_c, 0, 34, 69
3, 1537, Note_on_c, 0, 34, 0
3, 1539, Control_c, 0, 64, 127
3, 1638, Note_on_c, 0, 67, 84
3, 1641, Note_on_c, 0, 62, 81
3, 1641, Note_on_c, 0, 59, 85
3, 1642, Note_on_c, 0, 64, 75
3, 1642, Note_on_c, 0, 56, 84
3, 1648, Control_c, 0, 64, 0
3, 1693, Control_c, 0, 64, 127
3, 1713, Note_on_c, 0, 56, 0
3, 1716, Note_on_c, 0, 59, 0
3, 1750, Note_on_c, 0, 62, 0
3, 1759, Note_on_c, 0, 64, 0
3, 1765, Note_on_c, 0, 67, 0
3, 1882, Note_on_c, 0, 65, 64
3, 1882, Note_on_c, 0, 70, 75
3, 1886, Note_on_c, 0, 60, 57
3, 1887, Control_c, 0, 64, 0
3, 1889, Note_on_c, 0, 62, 37
3, 1904, Note_on_c, 0, 65, 0
3, 1910, Note_on_c, 0, 62, 0
3, 1917, Note_on_c, 0, 60, 0
3, 1928, Note_on_c, 0, 70, 0
3, 1942, Note_on_c, 0, 72, 41
3, 1985, Note_on_c, 0, 72, 0
3, 2013, Note_on_c, 0, 72, 49
3, 2037, Note_on_c, 0, 72, 0
3, 2068, Note_on_c, 0, 74, 43
3, 2112, Note_on_c, 0, 74, 0
3, 2128, Note_on_c, 0, 62, 53
3, 2131, Note_on_c, 0, 74, 64
3, 2134, Note_on_c, 0, 65, 40
3, 2140, Note_on_c, 0, 60, 25
3, 2146, Note_on_c, 0, 65, 0
3, 2149, Note_on_c, 0, 60, 0
3, 2150, Note_on_c, 0, 62, 0
3, 2164, Note_on_c, 0, 74, 0
3, 2188, Note_on_c, 0, 75, 56
3, 2220, Note_on_c, 0, 75, 0
3, 2247, Note_on_c, 0, 75, 58
3, 2282, Note_on_c, 0, 75, 0
3, 2297, Note_on_c, 0, 77, 54
3, 2333, Note_on_c, 0, 77, 0
3, 2362, Note_on_c, 0, 65, 75
3, 2365, Note_on_c, 0, 62, 58
3, 2366, Note_on_c, 0, 60, 58
3, 2366, Note_on_c, 0, 77, 66
3, 2381, Note_on_c, 0, 65, 0
3, 2394, Note_on_c, 0, 62, 0
3, 2402, Note_on_c, 0, 60, 0
3, 2405, Note_on_c, 0, 77, 0
3, 2428, Note_on_c, 0, 78, 30
3, 2430, Note_on_c, 0, 66, 34
3, 2432, Note_on_c, 0, 77, 19
3, 2449, Note_on_c, 0, 78, 0
3, 2453, Note_on_c, 0, 66, 0
3, 2454, Note_on_c, 0, 79, 37
3, 2461, Note_on_c, 0, 67, 55
3, 2485, Note_on_c, 0, 67, 0
3, 2487, Note_on_c, 0, 79, 0
3, 2497, Note_on_c, 0, 77, 0
3, 2528, Note_on_c, 0, 70, 77
3, 2528, Note_on_c, 0, 82, 77
3, 2600, Note_on_c, 0, 65, 53
3, 2605, Note_on_c, 0, 62, 38
3, 2605, Note_on_c, 0, 60, 45
3, 2611, Note_on_c, 0, 65, 0
3, 2617, Note_on_c, 0, 62, 0
3, 2618, Note_on_c, 0, 60, 0
3, 2621, Note_on_c, 0, 82, 0
3, 2630, Note_on_c, 0, 70, 0
3, 2722, Note_on_c, 0, 77, 65
3, 2724, Note_on_c, 0, 65, 71
3, 2746, Note_on_c, 0, 65, 0
3, 2750, Note_on_c, 0, 77, 0
3, 2781, Note_on_c, 0, 75, 33
3, 2841, Note_on_c, 0, 75, 0
3, 2869, Note_on_c, 0, 56, 23
3, 2874, Note_on_c, 0, 77, 53
3, 2876, Note_on_c, 0, 65, 49
3, 2893, Note_on_c, 0, 56, 0
3, 2905, Note_on_c, 0, 77, 0
3, 2907, Note_on_c, 0, 65, 0
3, 3127, Note_on_c, 0, 65, 48
3, 3129, Note_on_c, 0, 54, 38
3, 3130, Note_on_c, 0, 60, 40
3, 3249, Note_on_c, 0, 60, 0
3, 3273, Note_on_c, 0, 65, 0
3, 3310, Note_on_c, 0, 54, 0
3, 3327, Note_on_c, 0, 64, 37
3, 3328, Note_on_c, 0, 53, 34
3, 3337, Note_on_c, 0, 59, 42
3, 3629, Note_on_c, 0, 64, 0
3, 3662, Note_on_c, 0, 59, 0
3, 3672, Note_on_c, 0, 74, 60
3, 3676, Note_on_c, 0, 64, 40
3, 3689, Note_on_c, 0, 64, 0
3, 3690, Note_on_c, 0, 59, 15
3, 3696, Note_on_c, 0, 53, 0
3, 3699, Note_on_c, 0, 74, 0
3, 3704, Note_on_c, 0, 59, 0
3, 3749, Note_on_c, 0, 77, 34
3, 3791, Note_on_c, 0, 77, 0
3, 3800, Note_on_c, 0, 79, 74
3, 3823, Note_on_c, 0, 62, 32
3, 3824, Note_on_c, 0, 67, 29
3, 3828, Note_on_c, 0, 63, 21
3, 3831, Note_on_c, 0, 60, 32
3, 3834, Note_on_c, 0, 79, 0
3, 3857, Note_on_c, 0, 75, 60
3, 3923, Note_on_c, 0, 75, 0
3, 3928, Note_on_c, 0, 60, 0
3, 3935, Note_on_c, 0, 67, 0
3, 3937, Note_on_c, 0, 62, 0
3, 3969, Note_on_c, 0, 63, 0
3, 4039, Note_on_c, 0, 67, 66
3, 4046, Note_on_c, 0, 63, 35
3, 4052, Note_on_c, 0, 62, 31
3, 4053, Note_on_c, 0, 67, 0
3, 4064, Note_on_c, 0, 62, 0
3, 4065, Note_on_c, 0, 63, 0
3, 4157, Note_on_c, 0, 77, 67
3, 4160, Note_on_c, 0, 65, 73
3, 4181, Note_on_c, 0, 65, 0
3, 4185, Note_on_c, 0, 77, 0
3, 4224, Note_on_c, 0, 78, 53
3, 4224, Note_on_c, 0, 66, 62
3, 4228, Note_on_c, 0, 73, 21
3, 4241, Note_on_c, 0, 73, 0
3, 4241, Note_on_c, 0, 79, 58
3, 4244, Note_on_c, 0, 66, 0
3, 4244, Note_on_c, 0, 78, 0
3, 4247, Note_on_c, 0, 67, 66
3, 4247, Note_on_c, 0, 77, 52
3, 4270, Note_on_c, 0, 67, 0
3, 4280, Note_on_c, 0, 79, 0
3, 4287, Note_on_c, 0, 77, 0
3, 4306, Note_on_c, 0, 67, 58
3, 4309, Note_on_c, 0, 63, 38
3, 4314, Note_on_c, 0, 62, 34
3, 4317, Note_on_c, 0, 67, 0
3, 4326, Note_on_c, 0, 62, 0
3, 4326, Note_on_c, 0, 63, 0
3, 4327, Note_on_c, 0, 70, 73
3, 4328, Note_on_c, 0, 82, 74
3, 4369, Note_on_c, 0, 70, 0
3, 4370, Note_on_c, 0, 82, 0
3, 4410, Note_on_c, 0, 72, 76
3, 4410, Note_on_c, 0, 84, 80
3, 4442, Note_on_c, 0, 72, 0
3, 4444, Note_on_c, 0, 84, 0
3, 4493, Note_on_c, 0, 87, 82
3, 4493, Note_on_c, 0, 75, 76
3, 4494, Note_on_c, 0, 80, 48
3, 4504, Note_on_c, 0, 80, 0
3, 4505, Note_on_c, 0, 63, 33
3, 4506, Note_on_c, 0, 62, 46
3, 4506, Note_on_c, 0, 67, 33
3, 4510, Note_on_c, 0, 69, 24
3, 4516, Note_on_c, 0, 60, 26
3, 4520, Note_on_c, 0, 69, 0
3, 4523, Note_on_c, 0, 67, 0
3, 4538, Note_on_c, 0, 60, 0
3, 4542, Note_on_c, 0, 63, 0
3, 4545, Note_on_c, 0, 87, 0
3, 4552, Note_on_c, 0, 75, 0
3, 4575, Note_on_c, 0, 62, 0
3, 4576, Note_on_c, 0, 84, 63
3, 4579, Note_on_c, 0, 72, 51
3, 4612, Note_on_c, 0, 84, 0
3, 4633, Note_on_c, 0, 72, 0
3, 4686, Control_c, 0, 64, 127
3, 4723, Control_c, 0, 64, 0
3, 4766, Note_on_c, 0, 82, 64
3, 4767, Note_on_c, 0, 70, 68
3, 4768, Note_on_c, 0, 65, 71
3, 4770, Note_on_c, 0, 60, 59
3, 4771, Note_on_c, 0, 61, 44
3, 4777, Note_on_c, 0, 56, 32
3, 4790, Note_on_c, 0, 65, 0
3, 4791, Note_on_c, 0, 70, 0
3, 4795, Note_on_c, 0, 82, 0
3, 4798, Note_on_c, 0, 60, 0
3, 4803, Note_on_c, 0, 56, 0
3, 4814, Note_on_c, 0, 61, 0
3, 4831, Note_on_c, 0, 72, 71
3, 4832, Note_on_c, 0, 84, 74
3, 4844, Note_on_c, 0, 83, 25
3, 4853, Note_on_c, 0, 83, 0
3, 4863, Note_on_c, 0, 84, 0
3, 4869, Note_on_c, 0, 72, 0
3, 4880, Note_on_c, 0, 82, 55
3, 4906, Note_on_c, 0, 82, 0
3, 4919, Note_on_c, 0, 72, 57
3, 4930, Note_on_c, 0, 84, 39
3, 4941, Note_on_c, 0, 84, 0
3, 4949, Note_on_c, 0, 72, 0
3, 5054, Note_on_c, 0, 65, 46
3, 5058, Note_on_c, 0, 61, 29
3, 5065, Note_on_c, 0, 56, 18
3, 5076, Note_on_c, 0, 65, 0
3, 5079, Note_on_c, 0, 61, 0
3, 5085, Note_on_c, 0, 56, 0
3, 5245, Note_on_c, 0, 61, 46
3, 5247, Note_on_c, 0, 64, 38
3, 5251, Note_on_c, 0, 55, 27
3, 5259, Note_on_c, 0, 64, 0
3, 5261, Note_on_c, 0, 55, 0
3, 5266, Note_on_c, 0, 61, 0
3, 5280, Note_on_c, 0, 85, 64
3, 5284, Note_on_c, 0, 73, 30
3, 5305, Note_on_c, 0, 73, 0
3, 5307, Note_on_c, 0, 85, 0
3, 5326, Note_on_c, 0, 83, 47
3, 5350, Note_on_c, 0, 83, 0
3, 5366, Note_on_c, 0, 85, 68
3, 5369, Note_on_c, 0, 73, 36
3, 5382, Note_on_c, 0, 73, 0
3, 5386, Note_on_c, 0, 85, 0
3, 5484, Note_on_c, 0, 64, 54
3, 5485, Note_on_c, 0, 55, 61
3, 5489, Note_on_c, 0, 61, 31
3, 5494, Note_on_c, 0, 55, 0
3, 5499, Note_on_c, 0, 64, 0
3, 5504, Note_on_c, 0, 61, 0
3, 5716, Note_on_c, 0, 70, 71
3, 5717, Note_on_c, 0, 60, 68
3, 5718, Note_on_c, 0, 82, 67
3, 5718, Note_on_c, 0, 63, 68
3, 5719, Note_on_c, 0, 58, 40
3, 5732, Note_on_c, 0, 63, 0
3, 5734, Note_on_c, 0, 70, 0
3, 5742, Note_on_c, 0, 82, 0
3, 5751, Note_on_c, 0, 60, 0
3, 5763, Note_on_c, 0, 58, 0
3, 5786, Note_on_c, 0, 87, 74
3, 5840, Note_on_c, 0, 87, 0
3, 5966, Note_on_c, 0, 63, 69
3, 5969, Note_on_c, 0, 58, 59
3, 5971, Note_on_c, 0, 53, 42
3, 5983, Note_on_c, 0, 63, 0
3, 5984, Note_on_c, 0, 53, 0
3, 5990, Note_on_c, 0, 58, 0
3, 6016, Note_on_c, 0, 84, 89
3, 6063, Note_on_c, 0, 84, 0
3, 6090, Note_on_c, 0, 82, 69
3, 6127, Note_on_c, 0, 82, 0
3, 6141, Note_on_c, 0, 80, 42
3, 6175, Note_on_c, 0, 80, 0
3, 6208, Note_on_c, 0, 79, 85
3, 6218, Note_on_c, 0, 59, 66
3, 6219, Note_on_c, 0, 63, 52
3, 6230, Note_on_c, 0, 63, 0
3, 6240, Note_on_c, 0, 59, 0
3, 6275, Note_on_c, 0, 79, 0
3, 6286, Note_on_c, 0, 80, 29
3, 6309, Note_on_c, 0, 79, 54
3, 6325, Note_on_c, 0, 80, 0
3, 6349, Note_on_c, 0, 79, 0
3, 6350, Note_on_c, 0, 77, 54
3, 6370, Note_on_c, 0, 77, 0
3, 6383, Note_on_c, 0, 79, 74
3, 6458, Note_on_c, 0, 79, 0
3, 6458, Note_on_c, 0, 59, 58
3, 6458, Note_on_c, 0, 63, 39
3, 6468, Note_on_c, 0, 63, 0
3, 6468, Note_on_c, 0, 59, 0
3, 6682, Note_on_c, 0, 65, 77
3, 6684, Note_on_c, 0, 62, 64
3, 6685, Note_on_c, 0, 80, 77
3, 6689, Note_on_c, 0, 60, 47
3, 6693, Note_on_c, 0, 55, 37
3, 6695, Note_on_c, 0, 65, 0
3, 6707, Note_on_c, 0, 55, 0
3, 6711, Note_on_c, 0, 62, 0
3, 6719, Note_on_c, 0, 60, 0
3, 6725, Note_on_c, 0, 80, 0
3, 6743, Note_on_c, 0, 82, 76
3, 6744, Note_on_c, 0, 70, 75
3, 6788, Note_on_c, 0, 82, 0
3, 6794, Note_on_c, 0, 70, 0
3, 6808, Note_on_c, 0, 82, 59
3, 6810, Note_on_c, 0, 70, 72
3, 6834, Note_on_c, 0, 82, 0
3, 6836, Note_on_c, 0, 70, 0
3, 6859, Note_on_c, 0, 79, 43
3, 6862, Note_on_c, 0, 67, 37
3, 6897, Note_on_c, 0, 79, 0
3, 6908, Note_on_c, 0, 67, 0
3, 6921, Note_on_c, 0, 79, 48
3, 6926, Note_on_c, 0, 65, 60
3, 6926, Note_on_c, 0, 67, 68
3, 6932, Note_on_c, 0, 62, 40
3, 6935, Note_on_c, 0, 60, 36
3, 6939, Note_on_c, 0, 65, 0
3, 6950, Note_on_c, 0, 67, 0
3, 6951, Note_on_c, 0, 60, 0
3, 6958, Note_on_c, 0, 79, 0
3, 6963, Note_on_c, 0, 62, 0
3, 6975, Note_on_c, 0, 77, 45
3, 6984, Note_on_c, 0, 74, 40
3, 7057, Note_on_c, 0, 74, 0
3, 7060, Note_on_c, 0, 77, 0
3, 7084, Note_on_c, 0, 72, 57
3, 7086, Note_on_c, 0, 75, 43
3, 7140, Note_on_c, 0, 72, 0
3, 7154, Note_on_c, 0, 75, 0
3, 7169, Note_on_c, 0, 77, 60
3, 7169, Note_on_c, 0, 74, 61
3, 7170, Note_on_c, 0, 48, 58
3, 7174, Note_on_c, 0, 58, 40
3, 7180, Note_on_c, 0, 48, 0
3, 7198, Note_on_c, 0, 58, 0
3, 7266, Note_on_c, 0, 74, 0
3, 7271, Note_on_c, 0, 77, 0
3, 7275, Note_on_c, 0, 75, 42
3, 7282, Note_on_c, 0, 72, 43
3, 7323, Note_on_c, 0, 72, 0
3, 7338, Note_on_c, 0, 75, 0
3, 7363, Note_on_c, 0, 71, 57
3, 7389, Note_on_c, 0, 71, 0
3, 7460, Control_c, 0, 64, 127
3, 7503, Control_c, 0, 64, 0
3, 7532, Note_on_c, 0, 67, 70
3, 7533, Note_on_c, 0, 62, 60
3, 7537, Note_on_c, 0, 63, 34
3, 7543, Note_on_c, 0, 67, 0
3, 7549, Note_on_c, 0, 62, 0
3, 7555, Note_on_c, 0, 63, 0
3, 7690, Note_on_c, 0, 62, 36
3, 7691, Note_on_c, 0, 67, 46
3, 7695, Note_on_c, 0, 63, 32
3, 7695, Note_on_c, 0, 57, 44
3, 7702, Control_c, 0, 64, 127
3, 7724, Control_c, 0, 64, 0
3, 7809, Control_c, 0, 64, 127
3, 7859, Note_on_c, 0, 63, 0
3, 7889, Note_on_c, 0, 63, 32
3, 7895, Note_on_c, 0, 67, 0
3, 7901, Note_on_c, 0, 63, 0
3, 7901, Control_c, 0, 64, 0
3, 7923, Note_on_c, 0, 73, 68
3, 7924, Note_on_c, 0, 79, 68
3, 7930, Note_on_c, 0, 84, 51
3, 7931, Note_on_c, 0, 86, 74
3, 7934, Note_on_c, 0, 83, 54
3, 7942, Note_on_c, 0, 74, 82
3, 7944, Note_on_c, 0, 73, 0
3, 7968, Note_on_c, 0, 62, 0
3, 7993, Note_on_c, 0, 86, 0
3, 7998, Note_on_c, 0, 74, 0
3, 8003, Note_on_c, 0, 84, 0
3, 8006, Note_on_c, 0, 79, 0
3, 8008, Note_on_c, 0, 83, 0
3, 8008, Note_on_c, 0, 63, 29
3, 8012, Note_on_c, 0, 62, 17
3, 8015, Note_on_c, 0, 86, 60
3, 8017, Note_on_c, 0, 74, 66
3, 8020, Note_on_c, 0, 79, 53
3, 8031, Note_on_c, 0, 63, 0
3, 8031, Note_on_c, 0, 84, 32
3, 8040, Note_on_c, 0, 74, 0
3, 8047, Note_on_c, 0, 86, 0
3, 8048, Note_on_c, 0, 84, 0
3, 8054, Note_on_c, 0, 57, 0
3, 8057, Note_on_c, 0, 62, 0
3, 8063, Note_on_c, 0, 84, 29
3, 8076, Note_on_c, 0, 72, 38
3, 8102, Note_on_c, 0, 84, 0
3, 8110, Note_on_c, 0, 72, 0
3, 8116, Note_on_c, 0, 79, 0
3, 8135, Note_on_c, 0, 72, 60
3, 8136, Note_on_c, 0, 84, 71
3, 8138, Note_on_c, 0, 79, 55
3, 8141, Note_on_c, 0, 67, 41
3, 8143, Note_on_c, 0, 62, 35
3, 8144, Note_on_c, 0, 63, 31
3, 8147, Note_on_c, 0, 57, 33
3, 8154, Note_on_c, 0, 67, 0
3, 8155, Note_on_c, 0, 84, 0
3, 8157, Note_on_c, 0, 72, 0
3, 8163, Note_on_c, 0, 62, 0
3, 8164, Note_on_c, 0, 63, 0
3, 8164, Note_on_c, 0, 57, 0
3, 8169, Note_on_c, 0, 79, 0
3, 8187, Note_on_c, 0, 70, 57
3, 8189, Note_on_c, 0, 82, 37
3, 8235, Note_on_c, 0, 82, 0
3, 8236, Note_on_c, 0, 70, 0
3, 8253, Note_on_c, 0, 62, 33
3, 8254, Note_on_c, 0, 82, 55
3, 8256, Note_on_c, 0, 70, 54
3, 8280, Note_on_c, 0, 70, 0
3, 8280, Note_on_c, 0, 62, 0
3, 8286, Note_on_c, 0, 82, 0
3, 8302, Note_on_c, 0, 81, 40
3, 8310, Note_on_c, 0, 69, 41
3, 8311, Control_c, 0, 64, 127
3, 8340, Note_on_c, 0, 81, 0
3, 8346, Note_on_c, 0, 69, 0
3, 8374, Note_on_c, 0, 81, 51
3, 8374, Note_on_c, 0, 69, 55
3, 8378, Control_c, 0, 64, 0
3, 8386, Note_on_c, 0, 81, 0
3, 8393, Note_on_c, 0, 69, 0
3, 8415, Note_on_c, 0, 79, 54
3, 8416, Note_on_c, 0, 67, 46
3, 8427, Note_on_c, 0, 57, 40
3, 8427, Note_on_c, 0, 63, 29
3, 8446, Control_c, 0, 64, 127
3, 8497, Note_on_c, 0, 57, 0
3, 8498, Note_on_c, 0, 79, 0
3, 8499, Control_c, 0, 64, 0
3, 8501, Note_on_c, 0, 67, 0
3, 8508, Note_on_c, 0, 63, 0
3, 8532, Note_on_c, 0, 77, 47
3, 8535, Note_on_c, 0, 57, 34
3, 8537, Note_on_c, 0, 63, 26
3, 8539, Note_on_c, 0, 65, 40
3, 8547, Note_on_c, 0, 72, 19
3, 8564, Control_c, 0, 64, 127
3, 8586, Note_on_c, 0, 65, 0
3, 8591, Note_on_c, 0, 72, 0
3, 8597, Note_on_c, 0, 77, 0
3, 8601, Note_on_c, 0, 57, 0
3, 8621, Note_on_c, 0, 63, 0
3, 8634, Control_c, 0, 64, 0
3, 8768, Note_on_c, 0, 82, 82
3, 8769, Note_on_c, 0, 70, 88
3, 8769, Note_on_c, 0, 75, 77
3, 8770, Note_on_c, 0, 63, 62
3, 8770, Note_on_c, 0, 56, 67
3, 8770, Note_on_c, 0, 67, 79
3, 8774, Note_on_c, 0, 60, 62
3, 8789, Control_c, 0, 64, 127
3, 8827, Note_on_c, 0, 82, 0
3, 8831, Note_on_c, 0, 70, 0
3, 8831, Note_on_c, 0, 67, 0
3, 8832, Note_on_c, 0, 60, 0
3, 8837, Note_on_c, 0, 56, 0
3, 8838, Note_on_c, 0, 75, 0
3, 8839, Note_on_c, 0, 63, 0
3, 8852, Note_on_c, 0, 82, 51
3, 8855, Note_on_c, 0, 56, 44
3, 8855, Note_on_c, 0, 67, 59
3, 8856, Note_on_c, 0, 70, 49
3, 8857, Note_on_c, 0, 63, 46
3, 8858, Note_on_c, 0, 75, 57
3, 8862, Note_on_c, 0, 60, 59
3, 8864, Control_c, 0, 64, 0
3, 8892, Control_c, 0, 64, 127
3, 8929, Note_on_c, 0, 82, 0
3, 8930, Note_on_c, 0, 70, 0
3, 8931, Note_on_c, 0, 67, 0
3, 8944, Note_on_c, 0, 75, 0
3, 8947, Note_on_c, 0, 60, 0
3, 8965, Note_on_c, 0, 63, 0
3, 8970, Note_on_c, 0, 56, 0
3, 9005, Control_c, 0, 64, 0
3, 9009, Note_on_c, 0, 79, 53
3, 9010, Note_on_c, 0, 75, 42
3, 9011, Note_on_c, 0, 63, 34
3, 9013, Control_c, 0, 64, 127
3, 9013, Note_on_c, 0, 56, 31
3, 9015, Note_on_c, 0, 67, 30
3, 9022, Note_on_c, 0, 60, 36
3, 9043, Note_on_c, 0, 67, 0
3, 9057, Note_on_c, 0, 56, 0
3, 9068, Note_on_c, 0, 79, 0
3, 9069, Note_on_c, 0, 60, 0
3, 9071, Note_on_c, 0, 63, 0
3, 9074, Note_on_c, 0, 75, 0
3, 9086, Control_c, 0, 64, 0
3, 9091, Note_on_c, 0, 66, 63
3, 9092, Note_on_c, 0, 62, 62
3, 9093, Note_on_c, 0, 56, 50
3, 9096, Note_on_c, 0, 76, 49
3, 9096, Note_on_c, 0, 69, 43
3, 9097, Note_on_c, 0, 71, 43
3, 9097, Note_on_c, 0, 74, 40
3, 9118, Note_on_c, 0, 69, 0
3, 9139, Control_c, 0, 64, 127
3, 9230, Note_on_c, 0, 71, 0
3, 9235, Note_on_c, 0, 66, 0
3, 9236, Note_on_c, 0, 74, 0
3, 9240, Note_on_c, 0, 76, 0
3, 9242, Note_on_c, 0, 62, 0
3, 9266, Note_on_c, 0, 56, 0
3, 9335, Note_on_c, 0, 61, 38
3, 9344, Note_on_c, 0, 61, 0
3, 9350, Control_c, 0, 64, 0
3, 9362, Note_on_c, 0, 78, 74
3, 9363, Note_on_c, 0, 66, 80
3, 9363, Note_on_c, 0, 86, 79
3, 9363, Note_on_c, 0, 74, 80
3, 9364, Note_on_c, 0, 61, 49
3, 9365, Note_on_c, 0, 63, 62
3, 9367, Note_on_c, 0, 82, 46
3, 9367, Note_on_c, 0, 56, 60
3, 9401, Note_on_c, 0, 79, 48
3, 9404, Note_on_c, 0, 78, 0
3, 9427, Note_on_c, 0, 74, 0
3, 9430, Note_on_c, 0, 56, 0
3, 9431, Note_on_c, 0, 66, 0
3, 9433, Note_on_c, 0, 79, 0
3, 9434, Note_on_c, 0, 61, 0
3, 9435, Note_on_c, 0, 63, 0
3, 9435, Note_on_c, 0, 82, 0
3, 9438, Note_on_c, 0, 86, 0
3, 9481, Note_on_c, 0, 78, 75
3, 9481, Note_on_c, 0, 66, 77
3, 9483, Note_on_c, 0, 56, 63
3, 9483, Note_on_c, 0, 61, 59
3, 9484, Note_on_c, 0, 86, 77
3, 9484, Note_on_c, 0, 63, 57
3, 9484, Note_on_c, 0, 74, 74
3, 9489, Note_on_c, 0, 82, 33
3, 9527, Note_on_c, 0, 82, 0
3, 9536, Note_on_c, 0, 79, 27
3, 9538, Control_c, 0, 64, 127
3, 9549, Note_on_c, 0, 78, 0
3, 9572, Note_on_c, 0, 86, 0
3, 9572, Note_on_c, 0, 66, 0
3, 9573, Note_on_c, 0, 74, 0
3, 9578, Note_on_c, 0, 79, 0
3, 9579, Note_on_c, 0, 63, 0
3, 9580, Control_c, 0, 64, 0
3, 9584, Note_on_c, 0, 61, 0
3, 9586, Note_on_c, 0, 56, 0
3, 9603, Note_on_c, 0, 65, 58
3, 9604, Note_on_c, 0, 82, 53
3, 9607, Note_on_c, 0, 62, 44
3, 9609, Note_on_c, 0, 74, 49
3, 9610, Note_on_c, 0, 79, 35
3, 9612, Note_on_c, 0, 55, 40
3, 9615, Note_on_c, 0, 60, 37
3, 9626, Note_on_c, 0, 79, 0
3, 9634, Note_on_c, 0, 74, 0
3, 9637, Note_on_c, 0, 65, 0
3, 9641, Note_on_c, 0, 82, 0
3, 9641, Note_on_c, 0, 55, 0
3, 9644, Note_on_c, 0, 60, 0
3, 9645, Note_on_c, 0, 62, 0
3, 9810, Note_on_c, 0, 65, 71
3, 9815, Note_on_c, 0, 62, 47
3, 9820, Note_on_c, 0, 65, 0
3, 9820, Note_on_c, 0, 60, 33
3, 9825, Note_on_c, 0, 62, 0
3, 9832, Note_on_c, 0, 60, 0
3, 9928, Note_on_c, 0, 60, 60
3, 9951, Note_on_c, 0, 60, 0
3, 9976, Note_on_c, 0, 62, 46
3, 10034, Note_on_c, 0, 62, 0
3, 10049, Note_on_c, 0, 63, 60
3, 10052, Note_on_c, 0, 62, 43
3, 10059, Note_on_c, 0, 55, 38
3, 10063, Note_on_c, 0, 62, 0
3, 10076, Note_on_c, 0, 55, 0
3, 10091, Note_on_c, 0, 63, 0
3, 10117, Note_on_c, 0, 65, 55
3, 10171, Note_on_c, 0, 65, 0
3, 10212, Note_on_c, 0, 65, 58
3, 10248, Note_on_c, 0, 67, 35
3, 10255, Note_on_c, 0, 65, 0
3, 10270, Note_on_c, 0, 67, 0
3, 10288, Note_on_c, 0, 62, 33
3, 10288, Note_on_c, 0, 70, 76
3, 10296, Note_on_c, 0, 60, 24
3, 10308, Note_on_c, 0, 60, 0
3, 10309, Note_on_c, 0, 62, 0
3, 10329, Note_on_c, 0, 70, 0
3, 10370, Note_on_c, 0, 65, 51
3, 10409, Note_on_c, 0, 65, 0
3, 10411, Note_on_c, 0, 60, 24
3, 10423, Note_on_c, 0, 60, 0
3, 10446, Note_on_c, 0, 63, 44
3, 10489, Note_on_c, 0, 63, 0
3, 10525, Note_on_c, 0, 50, 60
3, 10527, Note_on_c, 0, 56, 47
3, 10527, Note_on_c, 0, 60, 53
3, 10536, Note_on_c, 0, 50, 0
3, 10538, Note_on_c, 0, 60, 0
3, 10550, Note_on_c, 0, 56, 0
3, 10557, Note_on_c, 0, 66, 31
3, 10587, Note_on_c, 0, 66, 0
3, 10592, Note_on_c, 0, 65, 34
3, 10612, Note_on_c, 0, 67, 48
3, 10613, Note_on_c, 0, 65, 0
3, 10636, Note_on_c, 0, 67, 0
3, 10665, Note_on_c, 0, 70, 75
3, 10716, Note_on_c, 0, 70, 0
3, 10759, Note_on_c, 0, 68, 71
3, 10798, Note_on_c, 0, 68, 0
3, 10850, Note_on_c, 0, 65, 42
3, 10889, Note_on_c, 0, 65, 0
3, 10899, Note_on_c, 0, 53, 31
3, 10912, Note_on_c, 0, 60, 60
3, 10913, Note_on_c, 0, 53, 0
3, 10943, Note_on_c, 0, 60, 0
3, 10998, Note_on_c, 0, 58, 68
3, 11013, Note_on_c, 0, 43, 33
3, 11015, Note_on_c, 0, 53, 31
3, 11028, Note_on_c, 0, 53, 0
3, 11030, Note_on_c, 0, 43, 0
3, 11044, Note_on_c, 0, 58, 0
3, 11077, Note_on_c, 0, 59, 44
3, 11124, Note_on_c, 0, 59, 0
3, 11248, Note_on_c, 0, 59, 54
3, 11250, Note_on_c, 0, 53, 33
3, 11251, Note_on_c, 0, 56, 32
3, 11258, Note_on_c, 0, 59, 0
3, 11269, Note_on_c, 0, 53, 0
3, 11277, Note_on_c, 0, 56, 0
3, 11291, Note_on_c, 0, 62, 58
3, 11328, Note_on_c, 0, 62, 0
3, 11351, Note_on_c, 0, 66, 57
3, 11364, Note_on_c, 0, 66, 0
3, 11369, Note_on_c, 0, 65, 45
3, 11369, Note_on_c, 0, 67, 46
3, 11381, Note_on_c, 0, 67, 0
3, 11381, Note_on_c, 0, 65, 0
3, 11406, Note_on_c, 0, 71, 60
3, 11476, Note_on_c, 0, 71, 0
3, 11480, Note_on_c, 0, 74, 77
3, 11480, Note_on_c, 0, 67, 77
3, 11482, Note_on_c, 0, 62, 60
3, 11483, Note_on_c, 0, 58, 53
3, 11483, Note_on_c, 0, 63, 48
3, 11499, Note_on_c, 0, 67, 0
3, 11508, Note_on_c, 0, 74, 0
3, 11508, Note_on_c, 0, 62, 0
3, 11511, Note_on_c, 0, 58, 0
3, 11519, Note_on_c, 0, 63, 0
3, 11535, Note_on_c, 0, 75, 67
3, 11609, Note_on_c, 0, 75, 0
3, 11720, Note_on_c, 0, 67, 75
3, 11728, Note_on_c, 0, 58, 32
3, 11728, Note_on_c, 0, 63, 28
3, 11732, Note_on_c, 0, 62, 22
3, 11736, Note_on_c, 0, 67, 0
3, 11739, Note_on_c, 0, 58, 0
3, 11741, Note_on_c, 0, 62, 0
3, 11742, Note_on_c, 0, 63, 0
3, 11839, Note_on_c, 0, 77, 62
3, 11842, Note_on_c, 0, 65, 71
3, 11849, Note_on_c, 0, 72, 43
3, 11863, Note_on_c, 0, 72, 0
3, 11863, Note_on_c, 0, 65, 0
3, 11863, Note_on_c, 0, 77, 0
3, 11884, Note_on_c, 0, 67, 73
3, 11886, Note_on_c, 0, 72, 48
3, 11887, Note_on_c, 0, 79, 57
3, 11889, Note_on_c, 0, 75, 35
3, 11892, Note_on_c, 0, 78, 33
3, 11904, Note_on_c, 0, 78, 0
3, 11925, Note_on_c, 0, 67, 0
3, 11925, Note_on_c, 0, 72, 0
3, 11930, Note_on_c, 0, 79, 0
3, 11941, Note_on_c, 0, 75, 0
3, 11970, Note_on_c, 0, 67, 76
3, 11971, Note_on_c, 0, 70, 68
3, 11972, Note_on_c, 0, 82, 71
3, 11973, Note_on_c, 0, 63, 49
3, 11974, Note_on_c, 0, 62, 57
3, 11974, Note_on_c, 0, 58, 44
3, 11987, Note_on_c, 0, 58, 0
3, 11987, Note_on_c, 0, 62, 0
3, 11990, Note_on_c, 0, 67, 0
3, 11994, Note_on_c, 0, 70, 0
3, 12003, Note_on_c, 0, 63, 0
3, 12007, Note_on_c, 0, 82, 0
3, 12048, Note_on_c, 0, 84, 68
3, 12049, Note_on_c, 0, 72, 60
3, 12051, Note_on_c, 0, 79, 55
3, 12074, Note_on_c, 0, 72, 0
3, 12081, Note_on_c, 0, 84, 0
3, 12090, Note_on_c, 0, 79, 0
3, 12109, Note_on_c, 0, 63, 21
3, 12120, Note_on_c, 0, 63, 0
3, 12125, Note_on_c, 0, 87, 80
3, 12127, Note_on_c, 0, 75, 59
3, 12129, Note_on_c, 0, 79, 62
3, 12166, Note_on_c, 0, 87, 0
3, 12169, Note_on_c, 0, 79, 0
3, 12176, Note_on_c, 0, 75, 0
3, 12203, Note_on_c, 0, 79, 35
3, 12203, Note_on_c, 0, 84, 61
3, 12204, Note_on_c, 0, 67, 61
3, 12204, Note_on_c, 0, 62, 51
3, 12205, Note_on_c, 0, 63, 38
3, 12205, Note_on_c, 0, 72, 57
3, 12205, Note_on_c, 0, 58, 38
3, 12345, Note_on_c, 0, 84, 0
3, 12350, Note_on_c, 0, 79, 0
3, 12352, Control_c, 0, 64, 127
3, 12366, Note_on_c, 0, 72, 0
3, 12382, Note_on_c, 0, 67, 0
3, 12391, Note_on_c, 0, 58, 0
3, 12393, Note_on_c, 0, 62, 0
3, 12402, Note_on_c, 0, 63, 0
3, 12432, Note_on_c, 0, 58, 57
3, 12442, Note_on_c, 0, 63, 31
3, 12443, Note_on_c, 0, 82, 57
3, 12443, Note_on_c, 0, 70, 58
3, 12453, Note_on_c, 0, 70, 0
3, 12454, Note_on_c, 0, 63, 0
3, 12459, Note_on_c, 0, 58, 0
3, 12462, Note_on_c, 0, 82, 0
3, 12473, Control_c, 0, 64, 0
3, 12485, Note_on_c, 0, 65, 64
3, 12488, Note_on_c, 0, 61, 38
3, 12489, Note_on_c, 0, 77, 53
3, 12489, Note_on_c, 0, 56, 35
3, 12490, Note_on_c, 0, 72, 53
3, 12490, Note_on_c, 0, 84, 67
3, 12492, Note_on_c, 0, 80, 35
3, 12494, Note_on_c, 0, 60, 57
3, 12509, Control_c, 0, 64, 127
3, 12522, Note_on_c, 0, 72, 0
3, 12531, Note_on_c, 0, 84, 0
3, 12532, Note_on_c, 0, 77, 0
3, 12539, Note_on_c, 0, 80, 0
3, 12541, Note_on_c, 0, 65, 0
3, 12546, Note_on_c, 0, 60, 0
3, 12546, Note_on_c, 0, 56, 0
3, 12549, Note_on_c, 0, 61, 0
3, 12564, Note_on_c, 0, 87, 82
3, 12564, Note_on_c, 0, 75, 81
3, 12565, Note_on_c, 0, 65, 66
3, 12565, Note_on_c, 0, 56, 59
3, 12567, Note_on_c, 0, 61, 68
3, 12568, Note_on_c, 0, 60, 60
3, 12574, Control_c, 0, 64, 0
3, 12587, Note_on_c, 0, 65, 0
3, 12588, Note_on_c, 0, 75, 0
3, 12590, Note_on_c, 0, 60, 0
3, 12595, Note_on_c, 0, 87, 0
3, 12597, Note_on_c, 0, 56, 0
3, 12598, Note_on_c, 0, 61, 0
3, 12611, Note_on_c, 0, 65, 54
3, 12613, Note_on_c, 0, 56, 36
3, 12613, Note_on_c, 0, 61, 49
3, 12616, Note_on_c, 0, 60, 53
3, 12617, Note_on_c, 0, 84, 68
3, 12620, Note_on_c, 0, 72, 52
3, 12653, Control_c, 0, 64, 127
3, 12665, Note_on_c, 0, 84, 0
3, 12668, Note_on_c, 0, 72, 0
3, 12692, Control_c, 0, 64, 0
3, 12698, Note_on_c, 0, 82, 43
3, 12699, Note_on_c, 0, 70, 29
3, 12710, Note_on_c, 0, 70, 0
3, 12712, Note_on_c, 0, 60, 0
3, 12721, Note_on_c, 0, 65, 0
3, 12723, Note_on_c, 0, 82, 0
3, 12725, Note_on_c, 0, 61, 0
3, 12738, Note_on_c, 0, 65, 30
3, 12740, Note_on_c, 0, 61, 32
3, 12745, Note_on_c, 0, 60, 47
3, 12748, Note_on_c, 0, 71, 25
3, 12749, Control_c, 0, 64, 127
3, 12750, Note_on_c, 0, 72, 35
3, 12750, Note_on_c, 0, 84, 53
3, 12751, Note_on_c, 0, 83, 44
3, 12754, Note_on_c, 0, 82, 14
3, 12781, Note_on_c, 0, 84, 0
3, 12784, Note_on_c, 0, 72, 0
3, 12785, Note_on_c, 0, 83, 0
3, 12789, Note_on_c, 0, 71, 0
3, 12792, Note_on_c, 0, 82, 0
3, 12802, Note_on_c, 0, 65, 0
3, 12803, Note_on_c, 0, 60, 0
3, 12807, Note_on_c, 0, 61, 0
3, 12808, Note_on_c, 0, 56, 0
3, 12810, Control_c, 0, 64, 0
3, 12846, Note_on_c, 0, 65, 34
3, 12847, Note_on_c, 0, 56, 31
3, 12849, Control_c, 0, 64, 127
3, 12858, Note_on_c, 0, 65, 0
3, 12877, Note_on_c, 0, 56, 0
3, 12917, Control_c, 0, 64, 0
3, 12923, Note_on_c, 0, 55, 82
3, 12923, Note_on_c, 0, 73, 76
3, 12924, Note_on_c, 0, 61, 72
3, 12924, Note_on_c, 0, 85, 85
3, 12925, Note_on_c, 0, 64, 75
3, 12925, Note_on_c, 0, 80, 71
3, 12962, Control_c, 0, 64, 127
3, 12974, Note_on_c, 0, 80, 0
3, 12975, Note_on_c, 0, 85, 0
3, 12977, Note_on_c, 0, 73, 0
3, 12985, Note_on_c, 0, 55, 0
3, 12985, Note_on_c, 0, 64, 0
3, 13001, Note_on_c, 0, 61, 0
3, 13048, Note_on_c, 0, 55, 75
3, 13050, Note_on_c, 0, 61, 63
3, 13052, Note_on_c, 0, 64, 62
3, 13052, Note_on_c, 0, 88, 68
3, 13054, Note_on_c, 0, 76, 59
3, 13058, Note_on_c, 0, 87, 54
3, 13062, Note_on_c, 0, 88, 0
3, 13062, Note_on_c, 0, 64, 0
3, 13069, Note_on_c, 0, 87, 0
3, 13070, Note_on_c, 0, 55, 0
3, 13074, Control_c, 0, 64, 0
3, 13076, Note_on_c, 0, 76, 0
3, 13077, Note_on_c, 0, 61, 0
3, 13095, Note_on_c, 0, 55, 42
3, 13100, Note_on_c, 0, 61, 47
3, 13104, Note_on_c, 0, 64, 35
3, 13108, Note_on_c, 0, 73, 42
3, 13109, Note_on_c, 0, 85, 30
3, 13140, Note_on_c, 0, 55, 0
3, 13142, Note_on_c, 0, 64, 0
3, 13144, Note_on_c, 0, 61, 0
3, 13146, Note_on_c, 0, 85, 0
3, 13148, Note_on_c, 0, 73, 0
3, 13150, Control_c, 0, 64, 127
3, 13167, Note_on_c, 0, 55, 53
3, 13172, Note_on_c, 0, 61, 34
3, 13178, Control_c, 0, 64, 0
3, 13183, Note_on_c, 0, 55, 0
3, 13188, Note_on_c, 0, 61, 0
3, 13213, Note_on_c, 0, 55, 60
3, 13216, Note_on_c, 0, 61, 45
3, 13218, Note_on_c, 0, 64, 42
3, 13220, Note_on_c, 0, 85, 67
3, 13223, Note_on_c, 0, 73, 34
3, 13240, Control_c, 0, 64, 127
3, 13256, Note_on_c, 0, 64, 0
3, 13257, Note_on_c, 0, 55, 0
3, 13258, Note_on_c, 0, 73, 0
3, 13262, Note_on_c, 0, 85, 0
3, 13268, Note_on_c, 0, 61, 0
3, 13268, Control_c, 0, 64, 0
3, 13291, Note_on_c, 0, 61, 36
3, 13293, Note_on_c, 0, 55, 57
3, 13305, Note_on_c, 0, 55, 0
3, 13313, Note_on_c, 0, 61, 0
3, 13324, Control_c, 0, 64, 127
3, 13400, Control_c, 0, 64, 0
3, 13401, Note_on_c, 0, 63, 74
3, 13403, Note_on_c, 0, 60, 68
3, 13403, Note_on_c, 0, 87, 77
3, 13404, Note_on_c, 0, 53, 58
3, 13404, Note_on_c, 0, 58, 55
3, 13405, Note_on_c, 0, 75, 76
3, 13418, Note_on_c, 0, 63, 0
3, 13421, Note_on_c, 0, 75, 0
3, 13424, Note_on_c, 0, 60, 0
3, 13428, Note_on_c, 0, 87, 0
3, 13441, Note_on_c, 0, 53, 0
3, 13454, Note_on_c, 0, 58, 0
3, 13535, Note_on_c, 0, 84, 82
3, 13535, Note_on_c, 0, 72, 82
3, 13666, Note_on_c, 0, 84, 0
3, 13685, Note_on_c, 0, 63, 49
3, 13692, Note_on_c, 0, 53, 29
3, 13694, Note_on_c, 0, 82, 56
3, 13694, Note_on_c, 0, 58, 45
3, 13702, Note_on_c, 0, 63, 0
3, 13705, Note_on_c, 0, 53, 0
3, 13717, Note_on_c, 0, 58, 0
3, 13749, Note_on_c, 0, 82, 0
3, 13763, Note_on_c, 0, 72, 0
3, 13808, Note_on_c, 0, 80, 52
3, 13880, Note_on_c, 0, 80, 0
3, 13922, Note_on_c, 0, 63, 46
3, 13927, Note_on_c, 0, 53, 30
3, 13927, Note_on_c, 0, 59, 57
3, 13933, Note_on_c, 0, 79, 55
3, 13934, Note_on_c, 0, 58, 34
3, 13946, Note_on_c, 0, 53, 0
3, 13960, Note_on_c, 0, 63, 0
3, 13968, Note_on_c, 0, 59, 0
3, 13976, Note_on_c, 0, 58, 0
3, 14115, Note_on_c, 0, 79, 0
3, 14119, Note_on_c, 0, 77, 71
3, 14120, Note_on_c, 0, 63, 74
3, 14123, Note_on_c, 0, 59, 63
3, 14127, Note_on_c, 0, 53, 34
3, 14128, Note_on_c, 0, 58, 30
3, 14135, Note_on_c, 0, 59, 0
3, 14142, Note_on_c, 0, 53, 0
3, 14145, Note_on_c, 0, 63, 0
3, 14176, Note_on_c, 0, 58, 0
3, 14178, Note_on_c, 0, 77, 0
3, 14200, Note_on_c, 0, 79, 51
3, 14257, Note_on_c, 0, 79, 0
3, 14281, Note_on_c, 0, 80, 60
3, 14346, Note_on_c, 0, 80, 0
3, 14363, Note_on_c, 0, 82, 53
3, 14365, Note_on_c, 0, 65, 53
3, 14366, Note_on_c, 0, 62, 48
3, 14368, Note_on_c, 0, 70, 49
3, 14370, Note_on_c, 0, 60, 44
3, 14376, Note_on_c, 0, 65, 0
3, 14382, Note_on_c, 0, 60, 0
3, 14385, Note_on_c, 0, 70, 0
3, 14385, Note_on_c, 0, 62, 0
3, 14387, Note_on_c, 0, 82, 0
3, 14482, Note_on_c, 0, 79, 60
3, 14483, Note_on_c, 0, 67, 75
3, 14485, Note_on_c, 0, 75, 52
3, 14602, Note_on_c, 0, 67, 0
3, 14608, Note_on_c, 0, 79, 0
3, 14628, Note_on_c, 0, 75, 0
3, 14642, Note_on_c, 0, 65, 58
3, 14644, Note_on_c, 0, 77, 55
3, 14645, Note_on_c, 0, 62, 39
3, 14649, Note_on_c, 0, 60, 40
3, 14653, Note_on_c, 0, 65, 0
3, 14658, Note_on_c, 0, 62, 0
3, 14661, Note_on_c, 0, 60, 0
3, 14689, Note_on_c, 0, 77, 0
3, 14764, Note_on_c, 0, 75, 52
3, 14872, Note_on_c, 0, 75, 0
3, 14889, Note_on_c, 0, 63, 55
3, 14904, Note_on_c, 0, 57, 32
3, 14911, Note_on_c, 0, 63, 0
3, 14918, Note_on_c, 0, 57, 0
3, 15081, Note_on_c, 0, 54, 47
3, 15082, Note_on_c, 0, 65, 58
3, 15086, Note_on_c, 0, 60, 45
3, 15094, Note_on_c, 0, 65, 0
3, 15099, Note_on_c, 0, 60, 0
3, 15110, Note_on_c, 0, 54, 0
3, 15208, Note_on_c, 0, 84, 90
3, 15209, Note_on_c, 0, 72, 91
3, 15302, Note_on_c, 0, 84, 0
3, 15330, Note_on_c, 0, 72, 0
3, 15363, Note_on_c, 0, 62, 30
3, 15364, Note_on_c, 0, 60, 34
3, 15364, Note_on_c, 0, 65, 33
3, 15368, Note_on_c, 0, 82, 55
3, 15371, Note_on_c, 0, 70, 43
3, 15380, Note_on_c, 0, 65, 0
3, 15381, Note_on_c, 0, 70, 0
3, 15381, Note_on_c, 0, 60, 0
3, 15382, Note_on_c, 0, 62, 0
3, 15396, Note_on_c, 0, 82, 0
3, 15481, Control_c, 0, 64, 127
3, 15569, Note_on_c, 0, 87, 83
3, 15570, Note_on_c, 0, 75, 83
3, 15574, Note_on_c, 0, 54, 71
3, 15574, Note_on_c, 0, 65, 74
3, 15576, Note_on_c, 0, 58, 48
3, 15577, Note_on_c, 0, 60, 55
3, 15599, Control_c, 0, 64, 0
3, 15600, Note_on_c, 0, 87, 0
3, 15601, Note_on_c, 0, 65, 0
3, 15603, Note_on_c, 0, 75, 0
3, 15609, Note_on_c, 0, 60, 0
3, 15616, Note_on_c, 0, 58, 0
3, 15624, Note_on_c, 0, 65, 53
3, 15625, Note_on_c, 0, 86, 57
3, 15627, Note_on_c, 0, 74, 54
3, 15628, Note_on_c, 0, 58, 19
3, 15629, Note_on_c, 0, 60, 46
3, 15630, Note_on_c, 0, 82, 38
3, 15638, Control_c, 0, 64, 127
3, 15688, Note_on_c, 0, 86, 0
3, 15693, Note_on_c, 0, 65, 0
3, 15694, Note_on_c, 0, 74, 0
3, 15696, Note_on_c, 0, 60, 0
3, 15696, Note_on_c, 0, 82, 0
3, 15699, Note_on_c, 0, 54, 0
3, 15699, Note_on_c, 0, 58, 0
3, 15708, Control_c, 0, 64, 0
3, 15736, Note_on_c, 0, 84, 64
3, 15736, Note_on_c, 0, 65, 51
3, 15737, Note_on_c, 0, 54, 45
3, 15738, Note_on_c, 0, 58, 40
3, 15740, Note_on_c, 0, 72, 50
3, 15741, Note_on_c, 0, 60, 39
3, 15750, Note_on_c, 0, 65, 0
3, 15755, Note_on_c, 0, 84, 0
3, 15755, Note_on_c, 0, 60, 0
3, 15757, Note_on_c, 0, 72, 0
3, 15766, Note_on_c, 0, 58, 0
3, 15770, Note_on_c, 0, 54, 0
3, 15852, Note_on_c, 0, 82, 57
3, 15852, Note_on_c, 0, 55, 35
3, 15854, Note_on_c, 0, 62, 37
3, 15854, Note_on_c, 0, 53, 43
3, 15855, Note_on_c, 0, 58, 43
3, 15855, Note_on_c, 0, 70, 60
3, 15874, Control_c, 0, 64, 127
3, 15933, Control_c, 0, 64, 0
3, 15950, Control_c, 0, 64, 127
3, 15984, Note_on_c, 0, 62, 0
3, 15985, Note_on_c, 0, 55, 0
3, 15986, Note_on_c, 0, 53, 0
3, 16011, Note_on_c, 0, 70, 0
3, 16023, Note_on_c, 0, 82, 0
3, 16031, Note_on_c, 0, 58, 0
3, 16062, Control_c, 0, 64, 0
3, 16082, Note_on_c, 0, 58, 63
3, 16083, Note_on_c, 0, 63, 70
3, 16084, Note_on_c, 0, 52, 70
3, 16086, Note_on_c, 0, 82, 75
3, 16088, Note_on_c, 0, 70, 73
3, 16091, Note_on_c, 0, 76, 60
3, 16104, Control_c, 0, 64, 127
3, 16130, Note_on_c, 0, 52, 0
3, 16137, Note_on_c, 0, 70, 0
3, 16137, Note_on_c, 0, 76, 0
3, 16139, Note_on_c, 0, 82, 0
3, 16143, Note_on_c, 0, 63, 0
3, 16149, Note_on_c, 0, 58, 0
3, 16160, Note_on_c, 0, 82, 49
3, 16164, Note_on_c, 0, 70, 50
3, 16171, Note_on_c, 0, 58, 42
3, 16174, Note_on_c, 0, 76, 32
3, 16178, Note_on_c, 0, 52, 35
3, 16183, Control_c, 0, 64, 0
3, 16187, Note_on_c, 0, 70, 0
3, 16188, Note_on_c, 0, 76, 0
3, 16191, Note_on_c, 0, 82, 0
3, 16192, Note_on_c, 0, 52, 0
3, 16205, Note_on_c, 0, 52, 25
3, 16208, Note_on_c, 0, 63, 45
3, 16209, Note_on_c, 0, 68, 48
3, 16211, Note_on_c, 0, 80, 33
3, 16217, Control_c, 0, 64, 127
3, 16217, Note_on_c, 0, 75, 39
3, 16238, Note_on_c, 0, 75, 0
3, 16240, Note_on_c, 0, 80, 0
3, 16246, Note_on_c, 0, 52, 0
3, 16263, Note_on_c, 0, 58, 0
3, 16268, Note_on_c, 0, 68, 0
3, 16276, Note_on_c, 0, 63, 0
3, 16327, Note_on_c, 0, 63, 63
3, 16329, Note_on_c, 0, 77, 57
3, 16331, Note_on_c, 0, 56, 56
3, 16332, Control_c, 0, 64, 0
3, 16332, Note_on_c, 0, 60, 58
3, 16337, Note_on_c, 0, 65, 39
3, 16338, Note_on_c, 0, 67, 36
3, 16339, Note_on_c, 0, 75, 28
3, 16339, Note_on_c, 0, 72, 46
3, 16412, Note_on_c, 0, 63, 0
3, 16419, Note_on_c, 0, 72, 0
3, 16419, Note_on_c, 0, 77, 0
3, 16422, Note_on_c, 0, 75, 0
3, 16423, Note_on_c, 0, 67, 0
3, 16429, Note_on_c, 0, 53, 63
3, 16430, Note_on_c, 0, 65, 0
3, 16430, Control_c, 0, 64, 127
3, 16434, Note_on_c, 0, 60, 0
3, 16443, Note_on_c, 0, 56, 0
3, 16460, Note_on_c, 0, 53, 0
3, 16530, Note_on_c, 0, 67, 66
3, 16533, Note_on_c, 0, 59, 76
3, 16534, Control_c, 0, 64, 0
3, 16534, Note_on_c, 0, 62, 71
3, 16535, Note_on_c, 0, 64, 71
3, 16535, Note_on_c, 0, 56, 77
3, 16540, Note_on_c, 0, 65, 52
3, 16550, Note_on_c, 0, 65, 0
3, 16639, Note_on_c, 0, 46, 62
3, 16650, Note_on_c, 0, 56, 0
3, 16669, Note_on_c, 0, 46, 0
3, 16669, Control_c, 0, 64, 127
3, 16738, Note_on_c, 0, 62, 0
3, 16741, Note_on_c, 0, 59, 0
3, 16742, Note_on_c, 0, 64, 0
3, 16747, Note_on_c, 0, 67, 0
3, 16764, Note_on_c, 0, 46, 92
3, 16766, Note_on_c, 0, 34, 83
3, 16776, Control_c, 0, 64, 0
3, 16888, Note_on_c, 0, 55, 73
3, 16935, Note_on_c, 0, 55, 0
3, 16940, Note_on_c, 0, 56, 44
3, 16998, Note_on_c, 0, 56, 0
3, 17007, Note_on_c, 0, 58, 74
3, 17026, Note_on_c, 0, 34, 0
3, 17037, Note_on_c, 0, 46, 0
3, 17045, Note_on_c, 0, 58, 0
3, 17061, Note_on_c, 0, 60, 54
3, 17112, Note_on_c, 0, 60, 0
3, 17131, Note_on_c, 0, 62, 69
3, 17175, Note_on_c, 0, 62, 0
3, 17184, Note_on_c, 0, 63, 35
3, 17233, Note_on_c, 0, 63, 0
3, 17248, Note_on_c, 0, 67, 77
3, 17251, Note_on_c, 0, 62, 38
3, 17252, Note_on_c, 0, 60, 43
3, 17272, Note_on_c, 0, 62, 0
3, 17282, Note_on_c, 0, 60, 0
3, 17298, Note_on_c, 0, 67, 0
3, 17309, Note_on_c, 0, 70, 45
3, 17356, Note_on_c, 0, 70, 0
3, 17369, Note_on_c, 0, 74, 69
3, 17405, Note_on_c, 0, 74, 0
3, 17426, Note_on_c, 0, 70, 50
3, 17494, Note_on_c, 0, 70, 0
3, 17528, Note_on_c, 0, 65, 33
3, 17528, Note_on_c, 0, 70, 59
3, 17535, Note_on_c, 0, 60, 36
3, 17535, Note_on_c, 0, 62, 33
3, 17562, Note_on_c, 0, 60, 0
3, 17562, Note_on_c, 0, 65, 0
3, 17567, Note_on_c, 0, 62, 0
3, 17627, Note_on_c, 0, 70, 0
3, 17639, Note_on_c, 0, 67, 57
3, 17705, Note_on_c, 0, 67, 0
3, 17724, Note_on_c, 0, 65, 44
3, 17726, Note_on_c, 0, 67, 58
3, 17727, Note_on_c, 0, 62, 36
3, 17732, Note_on_c, 0, 60, 32
3, 17736, Note_on_c, 0, 65, 0
3, 17747, Note_on_c, 0, 67, 0
3, 17750, Note_on_c, 0, 60, 0
3, 17756, Note_on_c, 0, 62, 0
3, 17968, Note_on_c, 0, 65, 60
3, 17969, Note_on_c, 0, 62, 51
3, 17972, Note_on_c, 0, 60, 51
3, 17978, Note_on_c, 0, 65, 0
3, 17984, Note_on_c, 0, 62, 0
3, 17985, Note_on_c, 0, 60, 0
3, 18085, Note_on_c, 0, 72, 49
3, 18098, Note_on_c, 0, 72, 0
3, 18136, Note_on_c, 0, 77, 58
3, 18141, Note_on_c, 0, 76, 58
3, 18150, Note_on_c, 0, 76, 0
3, 18179, Note_on_c, 0, 77, 0
3, 18208, Note_on_c, 0, 79, 92
3, 18209, Note_on_c, 0, 56, 69
3, 18210, Note_on_c, 0, 50, 80
3, 18210, Note_on_c, 0, 60, 78
3, 18229, Note_on_c, 0, 60, 0
3, 18232, Note_on_c, 0, 50, 0
3, 18245, Note_on_c, 0, 56, 0
3, 18253, Note_on_c, 0, 79, 0
3, 18277, Note_on_c, 0, 80, 76
3, 18321, Note_on_c, 0, 80, 0
3, 18336, Note_on_c, 0, 82, 77
3, 18366, Note_on_c, 0, 82, 0
3, 18389, Note_on_c, 0, 80, 61
3, 18428, Note_on_c, 0, 80, 0
3, 18452, Note_on_c, 0, 79, 70
3, 18463, Note_on_c, 0, 60, 33
3, 18474, Note_on_c, 0, 60, 0
3, 18491, Note_on_c, 0, 79, 0
3, 18517, Note_on_c, 0, 77, 55
3, 18565, Note_on_c, 0, 77, 0
3, 18608, Note_on_c, 0, 75, 76
3, 18655, Note_on_c, 0, 75, 0
3, 18694, Note_on_c, 0, 74, 92
3, 18703, Note_on_c, 0, 62, 42
3, 18708, Note_on_c, 0, 59, 35
3, 18711, Note_on_c, 0, 53, 26
3, 18715, Note_on_c, 0, 62, 0
3, 18726, Note_on_c, 0, 59, 0
3, 18730, Note_on_c, 0, 53, 0
3, 18736, Note_on_c, 0, 74, 0
3, 18747, Note_on_c, 0, 75, 53
3, 18781, Note_on_c, 0, 74, 47
3, 18790, Note_on_c, 0, 75, 0
3, 18814, Note_on_c, 0, 72, 58
3, 18815, Note_on_c, 0, 74, 0
3, 18816, Note_on_c, 0, 59, 27
3, 18834, Note_on_c, 0, 59, 0
3, 18843, Note_on_c, 0, 72, 0
3, 18865, Note_on_c, 0, 71, 45
3, 18918, Note_on_c, 0, 71, 0
3, 18934, Note_on_c, 0, 62, 36
3, 18937, Note_on_c, 0, 68, 59
3, 18939, Note_on_c, 0, 59, 33
3, 18941, Note_on_c, 0, 73, 25
3, 18946, Note_on_c, 0, 62, 0
3, 18955, Note_on_c, 0, 73, 0
3, 18961, Note_on_c, 0, 59, 0
3, 18970, Note_on_c, 0, 68, 0
3, 18990, Note_on_c, 0, 67, 54
3, 19029, Note_on_c, 0, 67, 0
3, 19053, Note_on_c, 0, 65, 46
3, 19082, Note_on_c, 0, 65, 0
3, 19111, Note_on_c, 0, 63, 32
3, 19174, Note_on_c, 0, 62, 50
3, 19175, Note_on_c, 0, 63, 0
3, 19184, Note_on_c, 0, 55, 38
3, 19185, Note_on_c, 0, 58, 33
3, 19198, Note_on_c, 0, 58, 0
3, 19199, Note_on_c, 0, 62, 0
3, 19201, Note_on_c, 0, 55, 0
3, 19215, Note_on_c, 0, 65, 68
3, 19258, Note_on_c, 0, 65, 0
3, 19259, Note_on_c, 0, 62, 53
3, 19286, Note_on_c, 0, 62, 0
3, 19298, Note_on_c, 0, 63, 56
3, 19332, Note_on_c, 0, 63, 0
3, 19338, Note_on_c, 0, 59, 42
3, 19372, Note_on_c, 0, 59, 0
3, 19387, Note_on_c, 0, 62, 65
3, 19428, Note_on_c, 0, 62, 0
3, 19430, Note_on_c, 0, 55, 65
3, 19476, Note_on_c, 0, 55, 0
3, 19495, Note_on_c, 0, 55, 74
3, 19557, Note_on_c, 0, 55, 0
3, 19570, Note_on_c, 0, 55, 61
3, 19627, Note_on_c, 0, 55, 0
3, 19648, Note_on_c, 0, 55, 78
3, 19719, Note_on_c, 0, 55, 0
3, 20008, Note_on_c, 0, 62, 53
3, 20009, Note_on_c, 0, 51, 40
3, 20012, Note_on_c, 0, 57, 51
3, 20020, Note_on_c, 0, 51, 0
3, 20020, Note_on_c, 0, 62, 0
3, 20023, Note_on_c, 0, 57, 0
3, 20169, Note_on_c, 0, 65, 64
3, 20174, Note_on_c, 0, 60, 38
3, 20179, Note_on_c, 0, 61, 36
3, 20187, Note_on_c, 0, 60, 0
3, 20187, Note_on_c, 0, 65, 0
3, 20188, Note_on_c, 0, 61, 0
3, 20371, Note_on_c, 0, 65, 55
3, 20372, Note_on_c, 0, 56, 37
3, 20372, Note_on_c, 0, 60, 45
3, 20376, Note_on_c, 0, 61, 27
3, 20382, Note_on_c, 0, 65, 0
3, 20384, Note_on_c, 0, 60, 0
3, 20388, Note_on_c, 0, 61, 0
3, 20397, Note_on_c, 0, 56, 0
3, 20493, Note_on_c, 0, 60, 40
3, 20505, Note_on_c, 0, 60, 0
3, 20540, Note_on_c, 0, 84, 71
3, 20561, Note_on_c, 0, 84, 0
3, 20571, Note_on_c, 0, 89, 79
3, 20603, Note_on_c, 0, 89, 0
3, 20622, Note_on_c, 0, 61, 25
3, 20631, Note_on_c, 0, 82, 63
3, 20636, Note_on_c, 0, 61, 0
3, 20650, Note_on_c, 0, 82, 0
3, 20737, Note_on_c, 0, 61, 38
3, 20756, Note_on_c, 0, 61, 0
3, 20767, Note_on_c, 0, 81, 60
3, 20798, Note_on_c, 0, 81, 0
3, 20806, Note_on_c, 0, 87, 73
3, 20833, Note_on_c, 0, 87, 0
3, 20854, Note_on_c, 0, 80, 61
3, 20855, Note_on_c, 0, 61, 34
3, 20865, Note_on_c, 0, 61, 0
3, 20873, Note_on_c, 0, 80, 0
3, 20927, Note_on_c, 0, 79, 56
3, 20955, Note_on_c, 0, 79, 0
3, 20968, Note_on_c, 0, 85, 75
3, 20972, Note_on_c, 0, 61, 34
3, 20992, Note_on_c, 0, 61, 0
3, 21003, Note_on_c, 0, 85, 0
3, 21017, Note_on_c, 0, 78, 45
3, 21051, Note_on_c, 0, 78, 0
3, 21092, Note_on_c, 0, 63, 46
3, 21094, Note_on_c, 0, 60, 48
3, 21098, Note_on_c, 0, 58, 35
3, 21102, Note_on_c, 0, 63, 0
3, 21107, Note_on_c, 0, 60, 0
3, 21131, Note_on_c, 0, 77, 37
3, 21132, Note_on_c, 0, 58, 0
3, 21135, Note_on_c, 0, 76, 40
3, 21147, Note_on_c, 0, 76, 0
3, 21161, Note_on_c, 0, 77, 0
3, 21171, Note_on_c, 0, 84, 75
3, 21196, Note_on_c, 0, 84, 0
3, 21213, Note_on_c, 0, 82, 67
3, 21239, Note_on_c, 0, 82, 0
3, 21299, Note_on_c, 0, 79, 68
3, 21309, Note_on_c, 0, 63, 62
3, 21320, Note_on_c, 0, 58, 35
3, 21325, Note_on_c, 0, 79, 0
3, 21329, Note_on_c, 0, 63, 0
3, 21338, Note_on_c, 0, 58, 0
3, 21345, Note_on_c, 0, 75, 62
3, 21371, Note_on_c, 0, 75, 0
3, 21387, Note_on_c, 0, 72, 43
3, 21434, Note_on_c, 0, 72, 0
3, 21485, Note_on_c, 0, 70, 51
3, 21494, Note_on_c, 0, 70, 0
3, 21557, Note_on_c, 0, 63, 27
3, 21557, Note_on_c, 0, 56, 35
3, 21559, Note_on_c, 0, 59, 38
3, 21568, Note_on_c, 0, 63, 0
3, 21581, Note_on_c, 0, 59, 0
3, 21598, Note_on_c, 0, 56, 0
3, 21805, Note_on_c, 0, 63, 71
3, 21810, Note_on_c, 0, 59, 53
3, 21821, Note_on_c, 0, 63, 0
3, 21833, Note_on_c, 0, 59, 0
3, 21842, Note_on_c, 0, 82, 83
3, 21843, Note_on_c, 0, 75, 84
3, 21903, Note_on_c, 0, 82, 0
3, 21904, Note_on_c, 0, 75, 0
3, 21921, Note_on_c, 0, 71, 58
3, 21926, Note_on_c, 0, 79, 45
3, 21940, Note_on_c, 0, 59, 53
3, 21949, Note_on_c, 0, 71, 0
3, 21954, Note_on_c, 0, 56, 18
3, 21960, Note_on_c, 0, 79, 0
3, 21967, Note_on_c, 0, 59, 0
3, 21973, Note_on_c, 0, 82, 70
3, 21974, Note_on_c, 0, 75, 64
3, 21979, Note_on_c, 0, 56, 0
3, 22024, Note_on_c, 0, 82, 0
3, 22042, Note_on_c, 0, 79, 55
3, 22046, Note_on_c, 0, 71, 51
3, 22048, Note_on_c, 0, 65, 55
3, 22051, Note_on_c, 0, 62, 41
3, 22051, Note_on_c, 0, 60, 46
3, 22058, Note_on_c, 0, 65, 0
3, 22073, Note_on_c, 0, 79, 0
3, 22075, Note_on_c, 0, 71, 0
3, 22077, Note_on_c, 0, 60, 0
3, 22077, Note_on_c, 0, 62, 0
3, 22105, Note_on_c, 0, 75, 0
3, 22108, Note_on_c, 0, 81, 64
3, 22114, Note_on_c, 0, 69, 50
3, 22115, Note_on_c, 0, 74, 54
3, 22164, Note_on_c, 0, 69, 0
3, 22170, Note_on_c, 0, 74, 0
3, 22170, Note_on_c, 0, 62, 37
3, 22178, Note_on_c, 0, 81, 0
3, 22181, Note_on_c, 0, 77, 36
3, 22196, Note_on_c, 0, 62, 0
3, 22204, Note_on_c, 0, 77, 0
3, 22224, Note_on_c, 0, 81, 56
3, 22228, Note_on_c, 0, 69, 50
3, 22234, Note_on_c, 0, 74, 53
3, 22272, Note_on_c, 0, 74, 0
3, 22275, Note_on_c, 0, 69, 0
3, 22282, Note_on_c, 0, 81, 0
3, 22292, Note_on_c, 0, 65, 42
3, 22293, Note_on_c, 0, 62, 44
3, 22298, Note_on_c, 0, 60, 40
3, 22304, Note_on_c, 0, 65, 0
3, 22313, Note_on_c, 0, 55, 26
3, 22329, Note_on_c, 0, 55, 0
3, 22331, Note_on_c, 0, 62, 0
3, 22333, Note_on_c, 0, 60, 0
3, 22448, Note_on_c, 0, 65, 71
3, 22449, Note_on_c, 0, 62, 56
3, 22452, Note_on_c, 0, 60, 54
3, 22455, Note_on_c, 0, 55, 42
3, 22459, Note_on_c, 0, 65, 0
3, 22468, Note_on_c, 0, 55, 0
3, 22487, Note_on_c, 0, 62, 0
3, 22493, Note_on_c, 0, 60, 0
3, 22643, Note_on_c, 0, 67, 66
3, 22644, Note_on_c, 0, 63, 46
3, 22646, Note_on_c, 0, 60, 47
3, 22647, Note_on_c, 0, 58, 33
3, 22661, Note_on_c, 0, 60, 0
3, 22664, Note_on_c, 0, 58, 0
3, 22664, Note_on_c, 0, 67, 0
3, 22682, Note_on_c, 0, 63, 0
3, 22756, Note_on_c, 0, 71, 29
3, 22770, Note_on_c, 0, 71, 0
3, 22797, Note_on_c, 0, 74, 99
3, 22863, Note_on_c, 0, 74, 0
3, 22880, Note_on_c, 0, 71, 48
3, 22894, Note_on_c, 0, 63, 20
3, 22899, Note_on_c, 0, 71, 0
3, 22914, Note_on_c, 0, 63, 0
3, 22922, Note_on_c, 0, 72, 50
3, 22979, Note_on_c, 0, 72, 0
3, 22998, Note_on_c, 0, 74, 62
3, 23004, Note_on_c, 0, 62, 56
3, 23007, Note_on_c, 0, 67, 58
3, 23017, Note_on_c, 0, 67, 0
3, 23028, Note_on_c, 0, 74, 0
3, 23031, Note_on_c, 0, 62, 0
3, 23048, Note_on_c, 0, 75, 38
3, 23072, Note_on_c, 0, 75, 0
3, 23093, Note_on_c, 0, 79, 60
3, 23114, Note_on_c, 0, 79, 0
3, 23131, Note_on_c, 0, 83, 60
3, 23146, Note_on_c, 0, 83, 0
3, 23169, Note_on_c, 0, 86, 88
3, 23170, Note_on_c, 0, 74, 79
3, 23223, Note_on_c, 0, 86, 0
3, 23229, Note_on_c, 0, 74, 0
3, 23255, Note_on_c, 0, 86, 83
3, 23256, Note_on_c, 0, 74, 74
3, 23258, Note_on_c, 0, 67, 60
3, 23260, Note_on_c, 0, 62, 42
3, 23261, Note_on_c, 0, 63, 39
3, 23263, Note_on_c, 0, 57, 45
3, 23286, Note_on_c, 0, 67, 0
3, 23291, Note_on_c, 0, 57, 0
3, 23303, Note_on_c, 0, 63, 0
3, 23307, Note_on_c, 0, 62, 0
3, 23317, Note_on_c, 0, 74, 0
3, 23320, Note_on_c, 0, 85, 57
3, 23323, Note_on_c, 0, 86, 0
3, 23344, Note_on_c, 0, 85, 0
3, 23347, Note_on_c, 0, 84, 65
3, 23378, Note_on_c, 0, 84, 0
3, 23380, Note_on_c, 0, 83, 61
3, 23403, Note_on_c, 0, 83, 0
3, 23465, Note_on_c, 0, 83, 84
3, 23479, Note_on_c, 0, 67, 44
3, 23483, Note_on_c, 0, 63, 28
3, 23484, Note_on_c, 0, 62, 38
3, 23494, Note_on_c, 0, 67, 0
3, 23496, Note_on_c, 0, 57, 25
3, 23509, Note_on_c, 0, 63, 0
3, 23512, Note_on_c, 0, 57, 0
3, 23531, Note_on_c, 0, 82, 46
3, 23536, Note_on_c, 0, 62, 0
3, 23542, Note_on_c, 0, 83, 0
3, 23555, Note_on_c, 0, 82, 0
3, 23557, Note_on_c, 0, 81, 49
3, 23591, Note_on_c, 0, 79, 58
3, 23593, Note_on_c, 0, 81, 0
3, 23612, Note_on_c, 0, 79, 0
3, 23729, Note_on_c, 0, 67, 55
3, 23731, Note_on_c, 0, 62, 53
3, 23733, Note_on_c, 0, 63, 36
3, 23744, Note_on_c, 0, 67, 0
3, 23753, Note_on_c, 0, 62, 0
3, 23757, Note_on_c, 0, 63, 0
3, 23769, Note_on_c, 0, 74, 78
3, 23833, Note_on_c, 0, 74, 0
3, 23850, Note_on_c, 0, 71, 49
3, 23854, Note_on_c, 0, 63, 33
3, 23856, Note_on_c, 0, 62, 19
3, 23867, Note_on_c, 0, 62, 0
3, 23873, Note_on_c, 0, 63, 0
3, 23879, Note_on_c, 0, 71, 0
3, 23900, Note_on_c, 0, 72, 44
3, 23955, Note_on_c, 0, 72, 0
3, 23966, Note_on_c, 0, 67, 57
3, 23968, Note_on_c, 0, 74, 76
3, 23972, Note_on_c, 0, 56, 27
3, 23972, Note_on_c, 0, 63, 37
3, 23978, Note_on_c, 0, 60, 45
3, 23989, Note_on_c, 0, 67, 0
3, 23997, Note_on_c, 0, 60, 0
3, 23998, Note_on_c, 0, 74, 0
3, 24000, Note_on_c, 0, 56, 0
3, 24016, Note_on_c, 0, 63, 0
3, 24021, Note_on_c, 0, 75, 71
3, 24087, Note_on_c, 0, 75, 0
3, 24127, Control_c, 0, 64, 127
3, 24132, Control_c, 0, 64, 0
3, 24208, Note_on_c, 0, 67, 54
3, 24217, Note_on_c, 0, 63, 29
3, 24220, Note_on_c, 0, 60, 34
3, 24222, Note_on_c, 0, 67, 0
3, 24239, Note_on_c, 0, 60, 0
3, 24246, Note_on_c, 0, 63, 0
3, 24256, Note_on_c, 0, 70, 85
3, 24319, Note_on_c, 0, 70, 0
3, 24339, Note_on_c, 0, 67, 45
3, 24364, Note_on_c, 0, 67, 0
3, 24386, Note_on_c, 0, 68, 25
3, 24441, Note_on_c, 0, 68, 0
3, 24449, Note_on_c, 0, 70, 57
3, 24457, Note_on_c, 0, 62, 51
3, 24458, Note_on_c, 0, 66, 42
3, 24467, Note_on_c, 0, 66, 0
3, 24470, Note_on_c, 0, 62, 0
3, 24483, Note_on_c, 0, 70, 0
3, 24502, Note_on_c, 0, 71, 52
3, 24556, Note_on_c, 0, 71, 0
3, 24567, Note_on_c, 0, 73, 40
3, 24598, Note_on_c, 0, 73, 0
3, 24617, Note_on_c, 0, 74, 52
3, 24663, Note_on_c, 0, 74, 0
3, 24673, Note_on_c, 0, 34, 63
3, 24674, Note_on_c, 0, 46, 53
3, 24681, Note_on_c, 0, 76, 67
3, 24691, Note_on_c, 0, 34, 0
3, 24692, Note_on_c, 0, 46, 0
3, 24719, Note_on_c, 0, 76, 0
3, 24739, Note_on_c, 0, 77, 40
3, 24780, Note_on_c, 0, 77, 0
3, 24800, Note_on_c, 0, 79, 68
3, 24802, Note_on_c, 0, 66, 67
3, 24804, Note_on_c, 0, 56, 44
3, 24805, Note_on_c, 0, 62, 45
3, 24818, Note_on_c, 0, 62, 0
3, 24820, Note_on_c, 0, 66, 0
3, 24827, Note_on_c, 0, 79, 0
3, 24844, Note_on_c, 0, 56, 0
3, 24862, Note_on_c, 0, 80, 35
3, 24910, Note_on_c, 0, 80, 0
3, 24921, Note_on_c, 0, 62, 51
3, 24921, Note_on_c, 0, 65, 62
3, 24926, Note_on_c, 0, 60, 46
3, 24928, Note_on_c, 0, 82, 51
3, 24929, Note_on_c, 0, 55, 36
3, 24933, Note_on_c, 0, 65, 0
3, 24940, Note_on_c, 0, 60, 0
3, 24941, Note_on_c, 0, 55, 0
3, 24948, Note_on_c, 0, 62, 0
3, 24962, Note_on_c, 0, 82, 0
3, 24983, Note_on_c, 0, 83, 60
3, 25039, Note_on_c, 0, 83, 0
3, 25043, Note_on_c, 0, 62, 29
3, 25050, Note_on_c, 0, 60, 27
3, 25055, Note_on_c, 0, 84, 48
3, 25067, Note_on_c, 0, 60, 0
3, 25074, Note_on_c, 0, 84, 0
3, 25078, Note_on_c, 0, 62, 0
3, 25100, Note_on_c, 0, 86, 80
3, 25174, Note_on_c, 0, 86, 0
3, 25179, Note_on_c, 0, 83, 48
3, 25204, Note_on_c, 0, 83, 0
3, 25216, Note_on_c, 0, 84, 85
3, 25279, Note_on_c, 0, 84, 0
3, 25290, Note_on_c, 0, 65, 42
3, 25293, Note_on_c, 0, 79, 60
3, 25294, Note_on_c, 0, 62, 37
3, 25300, Note_on_c, 0, 60, 31
3, 25307, Note_on_c, 0, 65, 0
3, 25315, Note_on_c, 0, 60, 0
3, 25316, Note_on_c, 0, 62, 0
3, 25324, Note_on_c, 0, 79, 0
3, 25339, Note_on_c, 0, 75, 47
3, 25402, Note_on_c, 0, 75, 0
3, 25420, Note_on_c, 0, 74, 36
3, 25435, Note_on_c, 0, 74, 0
3, 25451, Note_on_c, 0, 77, 74
3, 25512, Note_on_c, 0, 77, 0
3, 25536, Note_on_c, 0, 62, 25
3, 25565, Note_on_c, 0, 75, 70
3, 25568, Note_on_c, 0, 62, 0
3, 25639, Note_on_c, 0, 67, 55
3, 25764, Note_on_c, 0, 60, 59
3, 25779, Note_on_c, 0, 60, 0
3, 25910, Note_on_c, 0, 67, 0
3, 25918, Note_on_c, 0, 55, 35
3, 25919, Note_on_c, 0, 60, 37
3, 25921, Note_on_c, 0, 50, 44
3, 25921, Note_on_c, 0, 56, 37
3, 25937, Note_on_c, 0, 75, 0
3, 26073, Note_on_c, 0, 60, 0
3, 26086, Note_on_c, 0, 50, 0
3, 26087, Note_on_c, 0, 55, 0
3, 26098, Note_on_c, 0, 56, 0
3, 26130, Note_on_c, 0, 60, 46
3, 26132, Note_on_c, 0, 50, 46
3, 26133, Note_on_c, 0, 56, 31
3, 26134, Note_on_c, 0, 55, 32
3, 26238, Note_on_c, 0, 79, 62
3, 26263, Note_on_c, 0, 79, 0
3, 26279, Note_on_c, 0, 82, 72
3, 26290, Note_on_c, 0, 50, 0
3, 26293, Note_on_c, 0, 60, 0
3, 26302, Note_on_c, 0, 55, 0
3, 26310, Note_on_c, 0, 56, 0
3, 26326, Note_on_c, 0, 82, 0
3, 26331, Note_on_c, 0, 79, 36
3, 26352, Note_on_c, 0, 79, 0
3, 26371, Note_on_c, 0, 80, 62
3, 26406, Note_on_c, 0, 80, 0
3, 26414, Note_on_c, 0, 76, 40
3, 26434, Note_on_c, 0, 76, 0
3, 26456, Note_on_c, 0, 79, 70
3, 26499, Note_on_c, 0, 79, 0
3, 26500, Note_on_c, 0, 76, 43
3, 26516, Note_on_c, 0, 76, 0
3, 26517, Note_on_c, 0, 59, 30
3, 26536, Note_on_c, 0, 77, 69
3, 26562, Note_on_c, 0, 59, 0
3, 26571, Note_on_c, 0, 77, 0
3, 26618, Note_on_c, 0, 75, 74
3, 26654, Note_on_c, 0, 75, 0
3, 26678, Note_on_c, 0, 71, 46
3, 26721, Note_on_c, 0, 71, 0
3, 26737, Note_on_c, 0, 74, 66
3, 26744, Note_on_c, 0, 63, 42
3, 26745, Note_on_c, 0, 59, 54
3, 26750, Note_on_c, 0, 53, 26
3, 26755, Note_on_c, 0, 63, 0
3, 26758, Note_on_c, 0, 59, 0
3, 26769, Note_on_c, 0, 74, 0
3, 26775, Note_on_c, 0, 53, 0
3, 26795, Note_on_c, 0, 71, 43
3, 26838, Note_on_c, 0, 71, 0
3, 26850, Note_on_c, 0, 67, 70
3, 26855, Note_on_c, 0, 51, 37
3, 26868, Note_on_c, 0, 57, 24
3, 26875, Note_on_c, 0, 67, 0
3, 26886, Note_on_c, 0, 57, 0
3, 26887, Note_on_c, 0, 51, 0
3, 26907, Note_on_c, 0, 65, 53
3, 26957, Note_on_c, 0, 65, 0
3, 26980, Note_on_c, 0, 63, 67
3, 27021, Note_on_c, 0, 63, 0
3, 27025, Note_on_c, 0, 62, 58
3, 27115, Note_on_c, 0, 63, 69
3, 27125, Note_on_c, 0, 62, 0
3, 27127, Note_on_c, 0, 63, 0
3, 27127, Note_on_c, 0, 64, 71
3, 27163, Note_on_c, 0, 65, 84
3, 27177, Note_on_c, 0, 64, 0
3, 27242, Note_on_c, 0, 57, 48
3, 27250, Note_on_c, 0, 65, 0
3, 27254, Note_on_c, 0, 57, 0
3, 27264, Note_on_c, 0, 62, 64
3, 27341, Note_on_c, 0, 62, 0
3, 27397, Note_on_c, 0, 58, 63
3, 27465, Note_on_c, 0, 58, 0
3, 27475, Note_on_c, 0, 55, 34
3, 27486, Note_on_c, 0, 55, 0
3, 27611, Note_on_c, 0, 51, 50
3, 27614, Note_on_c, 0, 62, 36
3, 27618, Note_on_c, 0, 57, 40
3, 27628, Note_on_c, 0, 62, 0
3, 27630, Note_on_c, 0, 57, 0
3, 27638, Note_on_c, 0, 51, 0
3, 27813, Note_on_c, 0, 56, 39
3, 27814, Note_on_c, 0, 61, 47
3, 27815, Note_on_c, 0, 60, 53
3, 27816, Note_on_c, 0, 65, 44
3, 27827, Note_on_c, 0, 65, 0
3, 27829, Note_on_c, 0, 60, 0
3, 27833, Note_on_c, 0, 56, 0
3, 27841, Note_on_c, 0, 61, 0
3, 27876, Note_on_c, 0, 84, 73
3, 27879, Note_on_c, 0, 72, 61
3, 27903, Note_on_c, 0, 72, 0
3, 27906, Note_on_c, 0, 84, 0
3, 27923, Note_on_c, 0, 80, 26
3, 27937, Note_on_c, 0, 80, 0
3, 27964, Note_on_c, 0, 72, 77
3, 27964, Note_on_c, 0, 84, 80
3, 28010, Note_on_c, 0, 84, 0
3, 28010, Note_on_c, 0, 72, 0
3, 28036, Note_on_c, 0, 84, 69
3, 28037, Note_on_c, 0, 72, 56
3, 28049, Note_on_c, 0, 65, 45
3, 28051, Note_on_c, 0, 61, 31
3, 28055, Note_on_c, 0, 60, 25
3, 28061, Note_on_c, 0, 65, 0
3, 28066, Note_on_c, 0, 60, 0
3, 28072, Note_on_c, 0, 72, 0
3, 28077, Note_on_c, 0, 84, 0
3, 28081, Note_on_c, 0, 61, 0
3, 28090, Note_on_c, 0, 80, 17
3, 28103, Note_on_c, 0, 80, 0
3, 28123, Note_on_c, 0, 84, 79
3, 28125, Note_on_c, 0, 72, 71
3, 28149, Note_on_c, 0, 72, 0
3, 28157, Note_on_c, 0, 84, 0
3, 28198, Note_on_c, 0, 65, 45
3, 28200, Note_on_c, 0, 56, 32
3, 28202, Note_on_c, 0, 61, 27
3, 28210, Note_on_c, 0, 65, 0
3, 28210, Note_on_c, 0, 85, 78
3, 28212, Note_on_c, 0, 73, 58
3, 28223, Note_on_c, 0, 61, 0
3, 28229, Note_on_c, 0, 56, 0
3, 28238, Note_on_c, 0, 73, 0
3, 28247, Note_on_c, 0, 85, 0
3, 28265, Note_on_c, 0, 80, 33
3, 28286, Note_on_c, 0, 80, 0
3, 28299, Note_on_c, 0, 61, 44
3, 28300, Note_on_c, 0, 55, 62
3, 28300, Note_on_c, 0, 73, 59
3, 28300, Note_on_c, 0, 85, 81
3, 28303, Note_on_c, 0, 64, 44
3, 28343, Note_on_c, 0, 73, 0
3, 28347, Note_on_c, 0, 64, 0
3, 28348, Note_on_c, 0, 85, 0
3, 28352, Note_on_c, 0, 55, 0
3, 28359, Note_on_c, 0, 61, 0
3, 28541, Note_on_c, 0, 61, 71
3, 28541, Note_on_c, 0, 85, 79
3, 28542, Note_on_c, 0, 73, 69
3, 28542, Note_on_c, 0, 64, 74
3, 28543, Note_on_c, 0, 79, 71
3, 28544, Note_on_c, 0, 55, 78
3, 28616, Control_c, 0, 64, 127
3, 28646, Note_on_c, 0, 79, 0
3, 28649, Note_on_c, 0, 55, 0
3, 28654, Note_on_c, 0, 73, 0
3, 28654, Note_on_c, 0, 64, 0
3, 28659, Note_on_c, 0, 85, 0
3, 28660, Note_on_c, 0, 61, 0
3, 28677, Note_on_c, 0, 55, 53
3, 28679, Note_on_c, 0, 61, 53
3, 28680, Note_on_c, 0, 64, 38
3, 28681, Note_on_c, 0, 74, 58
3, 28681, Note_on_c, 0, 86, 60
3, 28698, Note_on_c, 0, 64, 0
3, 28703, Note_on_c, 0, 74, 0
3, 28706, Note_on_c, 0, 55, 0
3, 28708, Note_on_c, 0, 61, 0
3, 28710, Note_on_c, 0, 86, 0
3, 28757, Note_on_c, 0, 61, 60
3, 28766, Note_on_c, 0, 89, 80
3, 28769, Note_on_c, 0, 77, 47
3, 28773, Note_on_c, 0, 79, 42
3, 28779, Note_on_c, 0, 61, 0
3, 28784, Note_on_c, 0, 77, 0
3, 28785, Note_on_c, 0, 79, 0
3, 28787, Note_on_c, 0, 89, 0
3, 28791, Control_c, 0, 64, 0
3, 28820, Note_on_c, 0, 63, 61
3, 28820, Note_on_c, 0, 87, 65
3, 28820, Note_on_c, 0, 58, 38
3, 28821, Note_on_c, 0, 60, 62
3, 28821, Note_on_c, 0, 75, 60
3, 28832, Note_on_c, 0, 63, 0
3, 28834, Note_on_c, 0, 60, 0
3, 28842, Note_on_c, 0, 75, 0
3, 28851, Note_on_c, 0, 87, 0
3, 28861, Note_on_c, 0, 58, 0
3, 28900, Note_on_c, 0, 84, 63
3, 28903, Note_on_c, 0, 72, 58
3, 28909, Note_on_c, 0, 60, 63
3, 28910, Note_on_c, 0, 58, 44
3, 28915, Note_on_c, 0, 84, 0
3, 28919, Note_on_c, 0, 72, 0
3, 28938, Note_on_c, 0, 60, 0
3, 28948, Note_on_c, 0, 58, 0
3, 29006, Note_on_c, 0, 82, 50
3, 29008, Note_on_c, 0, 70, 69
3, 29010, Note_on_c, 0, 60, 57
3, 29011, Note_on_c, 0, 63, 48
3, 29012, Note_on_c, 0, 75, 42
3, 29015, Note_on_c, 0, 58, 31
3, 29021, Note_on_c, 0, 63, 0
3, 29024, Note_on_c, 0, 75, 0
3, 29024, Note_on_c, 0, 70, 0
3, 29031, Note_on_c, 0, 82, 0
3, 29044, Note_on_c, 0, 60, 0
3, 29056, Note_on_c, 0, 58, 0
3, 29129, Note_on_c, 0, 80, 48
3, 29133, Note_on_c, 0, 63, 46
3, 29134, Note_on_c, 0, 75, 50
3, 29135, Note_on_c, 0, 60, 43
3, 29136, Note_on_c, 0, 68, 44
3, 29141, Note_on_c, 0, 58, 33
3, 29178, Control_c, 0, 64, 127
3, 29248, Note_on_c, 0, 60, 0
3, 29264, Note_on_c, 0, 68, 0
3, 29264, Note_on_c, 0, 80, 0
3, 29265, Control_c, 0, 64, 0
3, 29266, Note_on_c, 0, 63, 0
3, 29267, Note_on_c, 0, 58, 0
3, 29267, Note_on_c, 0, 75, 0
3, 29279, Control_c, 0, 64, 127
3, 29392, Control_c, 0, 64, 0
3, 29400, Note_on_c, 0, 75, 45
3, 29401, Note_on_c, 0, 79, 67
3, 29403, Note_on_c, 0, 68, 74
3, 29403, Note_on_c, 0, 71, 71
3, 29404, Note_on_c, 0, 67, 82
3, 29463, Note_on_c, 0, 79, 0
3, 29471, Note_on_c, 0, 68, 0
3, 29485, Note_on_c, 0, 67, 0
3, 29487, Note_on_c, 0, 71, 0
3, 29493, Note_on_c, 0, 66, 33
3, 29495, Note_on_c, 0, 63, 18
3, 29496, Note_on_c, 0, 75, 0
3, 29513, Note_on_c, 0, 66, 0
3, 29515, Note_on_c, 0, 63, 0
3, 29525, Note_on_c, 0, 75, 52
3, 29526, Note_on_c, 0, 68, 72
3, 29527, Note_on_c, 0, 71, 73
3, 29529, Note_on_c, 0, 79, 64
3, 29532, Note_on_c, 0, 78, 25
3, 29532, Note_on_c, 0, 67, 64
3, 29591, Note_on_c, 0, 68, 0
3, 29594, Note_on_c, 0, 71, 0
3, 29595, Note_on_c, 0, 79, 0
3, 29597, Note_on_c, 0, 75, 0
3, 29604, Note_on_c, 0, 78, 0
3, 29614, Note_on_c, 0, 68, 47
3, 29618, Note_on_c, 0, 77, 51
3, 29619, Note_on_c, 0, 75, 43
3, 29621, Note_on_c, 0, 71, 53
3, 29621, Note_on_c, 0, 65, 50
3, 29624, Note_on_c, 0, 67, 0
3, 29630, Note_on_c, 0, 75, 0
3, 29632, Note_on_c, 0, 71, 0
3, 29632, Note_on_c, 0, 65, 0
3, 29639, Note_on_c, 0, 68, 0
3, 29639, Note_on_c, 0, 77, 0
3, 29749, Note_on_c, 0, 56, 57
3, 29765, Note_on_c, 0, 70, 57
3, 29767, Note_on_c, 0, 67, 54
3, 29768, Note_on_c, 0, 65, 57
3, 29768, Note_on_c, 0, 58, 60
3, 29771, Note_on_c, 0, 60, 26
3, 29779, Note_on_c, 0, 56, 0
3, 29852, Note_on_c, 0, 67, 0
3, 29857, Note_on_c, 0, 65, 0
3, 29857, Note_on_c, 0, 60, 0
3, 29868, Note_on_c, 0, 58, 0
3, 29871, Note_on_c, 0, 70, 0
3, 29880, Note_on_c, 0, 67, 45
3, 29884, Note_on_c, 0, 60, 51
3, 29890, Note_on_c, 0, 65, 30
3, 29891, Note_on_c, 0, 55, 51
3, 29899, Note_on_c, 0, 67, 0
3, 29904, Note_on_c, 0, 65, 0
3, 29930, Note_on_c, 0, 60, 0
3, 29967, Note_on_c, 0, 55, 0
3, 30002, Note_on_c, 0, 58, 36
3, 30003, Note_on_c, 0, 53, 49
3, 30003, Note_on_c, 0, 65, 53
3, 30010, Note_on_c, 0, 62, 53
3, 30054, Note_on_c, 0, 62, 0
3, 30061, Note_on_c, 0, 58, 0
3, 30072, Note_on_c, 0, 65, 0
3, 30090, Note_on_c, 0, 63, 51
3, 30094, Note_on_c, 0, 51, 49
3, 30095, Note_on_c, 0, 53, 0
3, 30111, Note_on_c, 0, 63, 0
3, 30121, Control_c, 0, 64, 127
3, 30125, Note_on_c, 0, 51, 0
3, 30192, Control_c, 0, 64, 0
3, 30210, Note_on_c, 0, 63, 67
3, 30210, Note_on_c, 0, 67, 70
3, 30212, Note_on_c, 0, 74, 60
3, 30214, Note_on_c, 0, 62, 63
3, 30219, Note_on_c, 0, 69, 33
3, 30227, Note_on_c, 0, 74, 0
3, 30230, Note_on_c, 0, 69, 0
3, 30231, Note_on_c, 0, 67, 0
3, 30232, Note_on_c, 0, 63, 0
3, 30248, Note_on_c, 0, 62, 0
3, 30260, Note_on_c, 0, 60, 30
3, 30297, Note_on_c, 0, 60, 0
3, 30298, Note_on_c, 0, 63, 74
3, 30300, Note_on_c, 0, 67, 74
3, 30300, Note_on_c, 0, 74, 71
3, 30301, Note_on_c, 0, 62, 72
3, 30306, Note_on_c, 0, 69, 57
3, 30359, Note_on_c, 0, 74, 0
3, 30361, Note_on_c, 0, 62, 0
3, 30363, Note_on_c, 0, 63, 0
3, 30367, Note_on_c, 0, 69, 0
3, 30368, Note_on_c, 0, 67, 0
3, 30387, Note_on_c, 0, 62, 54
3, 30389, Note_on_c, 0, 63, 60
3, 30390, Note_on_c, 0, 74, 53
3, 30390, Note_on_c, 0, 67, 71
3, 30391, Control_c, 0, 64, 127
3, 30394, Note_on_c, 0, 69, 48
3, 30422, Note_on_c, 0, 62, 0
3, 30440, Note_on_c, 0, 67, 0
3, 30443, Note_on_c, 0, 69, 0
3, 30450, Note_on_c, 0, 63, 0
3, 30451, Note_on_c, 0, 74, 0
3, 30475, Control_c, 0, 64, 0
3, 30490, Note_on_c, 0, 63, 66
3, 30491, Note_on_c, 0, 72, 58
3, 30491, Note_on_c, 0, 66, 52
3, 30492, Note_on_c, 0, 51, 45
3, 30493, Note_on_c, 0, 69, 61
3, 30495, Note_on_c, 0, 57, 38
3, 30604, Control_c, 0, 64, 127
3, 30615, Note_on_c, 0, 51, 0
3, 30629, Note_on_c, 0, 57, 0
3, 30651, Note_on_c, 0, 72, 0
3, 30660, Note_on_c, 0, 69, 0
3, 30666, Note_on_c, 0, 63, 0
3, 30679, Note_on_c, 0, 66, 0
3, 30714, Control_c, 0, 64, 0
3, 30729, Note_on_c, 0, 70, 56
3, 30733, Note_on_c, 0, 65, 55
3, 30736, Note_on_c, 0, 55, 56
3, 30738, Note_on_c, 0, 60, 32
3, 30808, Note_on_c, 0, 60, 0
3, 30823, Note_on_c, 0, 65, 0
3, 30829, Control_c, 0, 64, 127
3, 30832, Note_on_c, 0, 70, 0
3, 30843, Note_on_c, 0, 55, 0
3, 30933, Note_on_c, 0, 75, 77
3, 30973, Note_on_c, 0, 75, 0
3, 30981, Control_c, 0, 64, 0
3, 30986, Note_on_c, 0, 54, 43
3, 30990, Note_on_c, 0, 70, 38
3, 30991, Note_on_c, 0, 74, 60
3, 30991, Note_on_c, 0, 65, 49
3, 30994, Note_on_c, 0, 58, 37
3, 31000, Note_on_c, 0, 60, 27
3, 31050, Note_on_c, 0, 65, 0
3, 31063, Note_on_c, 0, 74, 0
3, 31071, Note_on_c, 0, 70, 0
3, 31072, Note_on_c, 0, 77, 61
3, 31105, Note_on_c, 0, 77, 0
3, 31152, Note_on_c, 0, 60, 0
3, 31163, Control_c, 0, 64, 127
3, 31172, Control_c, 0, 64, 0
3, 31184, Note_on_c, 0, 58, 0
3, 31196, Note_on_c, 0, 54, 0
3, 31212, Note_on_c, 0, 70, 47
3, 31216, Note_on_c, 0, 65, 30
3, 31217, Note_on_c, 0, 62, 38
3, 31220, Note_on_c, 0, 53, 29
3, 31221, Note_on_c, 0, 67, 34
3, 31225, Note_on_c, 0, 55, 48
3, 31226, Note_on_c, 0, 58, 42
3, 31262, Control_c, 0, 64, 127
3, 31276, Control_c, 0, 64, 0
3, 31326, Control_c, 0, 64, 127
3, 31355, Note_on_c, 0, 67, 0
3, 31358, Note_on_c, 0, 62, 0
3, 31359, Note_on_c, 0, 65, 0
3, 31361, Note_on_c, 0, 55, 0
3, 31363, Note_on_c, 0, 53, 0
3, 31380, Note_on_c, 0, 70, 0
3, 31404, Note_on_c, 0, 74, 66
3, 31411, Note_on_c, 0, 58, 0
3, 31435, Note_on_c, 0, 74, 0
3, 31447, Control_c, 0, 64, 0
3, 31468, Note_on_c, 0, 73, 42
3, 31469, Note_on_c, 0, 63, 36
3, 31471, Note_on_c, 0, 52, 40
3, 31471, Note_on_c, 0, 70, 52
3, 31472, Note_on_c, 0, 58, 37
3, 31474, Note_on_c, 0, 64, 47
3, 31528, Note_on_c, 0, 64, 0
3, 31536, Note_on_c, 0, 73, 0
3, 31549, Note_on_c, 0, 75, 53
3, 31559, Note_on_c, 0, 70, 0
3, 31569, Note_on_c, 0, 75, 0
3, 31574, Note_on_c, 0, 52, 0
3, 31580, Note_on_c, 0, 63, 0
3, 31586, Note_on_c, 0, 58, 0
3, 31647, Note_on_c, 0, 63, 48
3, 31648, Note_on_c, 0, 72, 53
3, 31649, Note_on_c, 0, 65, 50
3, 31651, Note_on_c, 0, 68, 42
3, 31655, Note_on_c, 0, 60, 38
3, 31656, Note_on_c, 0, 56, 35
3, 31661, Note_on_c, 0, 53, 32
3, 31705, Control_c, 0, 64, 127
3, 31762, Note_on_c, 0, 65, 0
3, 31772, Note_on_c, 0, 68, 0
3, 31777, Note_on_c, 0, 72, 0
3, 31779, Note_on_c, 0, 60, 0
3, 31781, Note_on_c, 0, 63, 0
3, 31782, Note_on_c, 0, 53, 0
3, 31796, Note_on_c, 0, 56, 0
3, 31880, Note_on_c, 0, 75, 57
3, 31915, Note_on_c, 0, 75, 0
3, 31916, Control_c, 0, 64, 0
3, 31926, Note_on_c, 0, 71, 44
3, 31929, Note_on_c, 0, 74, 47
3, 31930, Note_on_c, 0, 62, 44
3, 31930, Note_on_c, 0, 66, 50
3, 31934, Note_on_c, 0, 56, 42
3, 32039, Note_on_c, 0, 71, 0
3, 32039, Control_c, 0, 64, 127
3, 32043, Note_on_c, 0, 74, 0
3, 32050, Note_on_c, 0, 66, 0
3, 32055, Note_on_c, 0, 79, 53
3, 32066, Note_on_c, 0, 62, 0
3, 32092, Note_on_c, 0, 56, 0
3, 32093, Note_on_c, 0, 79, 0
3, 32118, Control_c, 0, 64, 0
3, 32123, Note_on_c, 0, 65, 49
3, 32127, Note_on_c, 0, 70, 45
3, 32127, Note_on_c, 0, 74, 55
3, 32130, Note_on_c, 0, 55, 30
3, 32130, Note_on_c, 0, 62, 30
3, 32133, Note_on_c, 0, 60, 44
3, 32155, Control_c, 0, 64, 127
3, 32174, Note_on_c, 0, 74, 0
3, 32197, Note_on_c, 0, 70, 0
3, 32237, Note_on_c, 0, 82, 55
3, 32242, Note_on_c, 0, 55, 0
3, 32249, Note_on_c, 0, 60, 0
3, 32259, Note_on_c, 0, 62, 0
3, 32265, Note_on_c, 0, 65, 0
3, 32270, Note_on_c, 0, 82, 0
3, 32289, Note_on_c, 0, 79, 44
3, 32293, Note_on_c, 0, 72, 36
3, 32299, Note_on_c, 0, 75, 28
3, 32336, Note_on_c, 0, 75, 0
3, 32340, Note_on_c, 0, 79, 0
3, 32341, Note_on_c, 0, 72, 0
3, 32379, Control_c, 0, 64, 0
3, 32395, Note_on_c, 0, 58, 42
3, 32397, Note_on_c, 0, 68, 37
3, 32400, Note_on_c, 0, 86, 66
3, 32408, Note_on_c, 0, 63, 26
3, 32417, Note_on_c, 0, 60, 24
3, 32436, Note_on_c, 0, 68, 0
3, 32438, Note_on_c, 0, 60, 0
3, 32440, Note_on_c, 0, 58, 0
3, 32448, Note_on_c, 0, 86, 0
3, 32455, Note_on_c, 0, 63, 0
3, 32479, Note_on_c, 0, 74, 43
3, 32479, Note_on_c, 0, 83, 51
3, 32482, Note_on_c, 0, 79, 36
3, 32486, Note_on_c, 0, 66, 48
3, 32490, Note_on_c, 0, 62, 37
3, 32491, Note_on_c, 0, 74, 0
3, 32494, Note_on_c, 0, 79, 0
3, 32496, Note_on_c, 0, 56, 20
3, 32503, Note_on_c, 0, 83, 0
3, 32503, Note_on_c, 0, 66, 0
3, 32505, Note_on_c, 0, 62, 0
3, 32518, Note_on_c, 0, 56, 0
3, 32596, Note_on_c, 0, 65, 58
3, 32598, Note_on_c, 0, 62, 46
3, 32599, Note_on_c, 0, 89, 77
3, 32600, Note_on_c, 0, 60, 50
3, 32601, Note_on_c, 0, 55, 35
3, 32606, Note_on_c, 0, 65, 0
3, 32615, Note_on_c, 0, 60, 0
3, 32615, Note_on_c, 0, 55, 0
3, 32616, Note_on_c, 0, 62, 0
3, 32633, Note_on_c, 0, 89, 0
3, 32658, Note_on_c, 0, 86, 49
3, 32695, Note_on_c, 0, 86, 0
3, 32770, Note_on_c, 0, 86, 62
3, 32809, Note_on_c, 0, 86, 0
3, 32882, Note_on_c, 0, 65, 28
3, 32884, Note_on_c, 0, 86, 63
3, 32889, Note_on_c, 0, 62, 28
3, 32893, Note_on_c, 0, 60, 24
3, 32894, Note_on_c, 0, 65, 0
3, 32909, Note_on_c, 0, 60, 0
3, 32910, Note_on_c, 0, 62, 0
3, 32931, Note_on_c, 0, 86, 0
3, 32998, Note_on_c, 0, 86, 57
3, 33051, Note_on_c, 0, 86, 0
3, 33118, Note_on_c, 0, 86, 84
3, 33125, Note_on_c, 0, 65, 32
3, 33130, Note_on_c, 0, 62, 24
3, 33136, Note_on_c, 0, 65, 0
3, 33140, Note_on_c, 0, 62, 0
3, 33185, Note_on_c, 0, 87, 47
3, 33194, Note_on_c, 0, 86, 0
3, 33211, Note_on_c, 0, 87, 0
3, 33213, Note_on_c, 0, 88, 62
3, 33238, Note_on_c, 0, 88, 0
3, 33249, Note_on_c, 0, 89, 67
3, 33286, Note_on_c, 0, 89, 0
3, 33330, Note_on_c, 0, 86, 66
3, 33330, Note_on_c, 0, 65, 33
3, 33334, Note_on_c, 0, 62, 28
3, 33339, Note_on_c, 0, 60, 24
3, 33341, Note_on_c, 0, 65, 0
3, 33353, Note_on_c, 0, 62, 0
3, 33354, Note_on_c, 0, 86, 0
3, 33354, Note_on_c, 0, 60, 0
3, 33381, Note_on_c, 0, 82, 37
3, 33440, Note_on_c, 0, 82, 0
3, 33452, Note_on_c, 0, 79, 54
3, 33467, Note_on_c, 0, 79, 0
3, 33847, Note_on_c, 0, 58, 60
3, 33848, Note_on_c, 0, 65, 67
3, 33848, Note_on_c, 0, 54, 54
3, 33850, Note_on_c, 0, 60, 58
3, 33971, Note_on_c, 0, 84, 115
3, 33993, Note_on_c, 0, 60, 0
3, 33998, Note_on_c, 0, 65, 0
3, 34031, Note_on_c, 0, 84, 0
3, 34038, Note_on_c, 0, 54, 0
3, 34039, Note_on_c, 0, 58, 0
3, 34046, Note_on_c, 0, 85, 81
3, 34054, Note_on_c, 0, 53, 58
3, 34054, Note_on_c, 0, 59, 60
3, 34055, Note_on_c, 0, 64, 55
3, 34095, Note_on_c, 0, 85, 0
3, 34114, Note_on_c, 0, 84, 49
3, 34149, Note_on_c, 0, 84, 0
3, 34178, Note_on_c, 0, 83, 76
3, 34196, Note_on_c, 0, 64, 0
3, 34216, Note_on_c, 0, 83, 0
3, 34227, Note_on_c, 0, 53, 0
3, 34241, Note_on_c, 0, 82, 55
3, 34281, Note_on_c, 0, 82, 0
3, 34290, Note_on_c, 0, 59, 0
3, 34295, Note_on_c, 0, 80, 70
3, 34300, Note_on_c, 0, 59, 27
3, 34302, Note_on_c, 0, 63, 57
3, 34322, Note_on_c, 0, 63, 0
3, 34341, Note_on_c, 0, 80, 0
3, 34350, Note_on_c, 0, 59, 0
3, 34352, Note_on_c, 0, 79, 47
3, 34387, Note_on_c, 0, 79, 0
3, 34423, Note_on_c, 0, 77, 36
3, 34423, Note_on_c, 0, 76, 37
3, 34447, Note_on_c, 0, 76, 0
3, 34448, Note_on_c, 0, 77, 0
3, 34464, Note_on_c, 0, 75, 39
3, 34514, Note_on_c, 0, 75, 0
3, 34529, Note_on_c, 0, 74, 63
3, 34539, Note_on_c, 0, 51, 25
3, 34547, Note_on_c, 0, 57, 24
3, 34559, Note_on_c, 0, 74, 0
3, 34561, Note_on_c, 0, 57, 0
3, 34564, Note_on_c, 0, 51, 0
3, 34579, Note_on_c, 0, 75, 52
3, 34609, Note_on_c, 0, 75, 0
3, 34610, Note_on_c, 0, 76, 62
3, 34640, Note_on_c, 0, 77, 69
3, 34641, Note_on_c, 0, 76, 0
3, 34664, Note_on_c, 0, 57, 25
3, 34680, Note_on_c, 0, 74, 63
3, 34681, Note_on_c, 0, 57, 0
3, 34705, Note_on_c, 0, 77, 0
3, 34752, Note_on_c, 0, 74, 0
3, 34766, Note_on_c, 0, 71, 47
3, 34782, Note_on_c, 0, 57, 27
3, 34792, Note_on_c, 0, 71, 0
3, 34802, Note_on_c, 0, 74, 67
3, 34806, Note_on_c, 0, 57, 0
3, 34838, Note_on_c, 0, 74, 0
3, 34842, Note_on_c, 0, 71, 58
3, 34860, Note_on_c, 0, 71, 0
3, 34881, Note_on_c, 0, 72, 73
3, 34895, Note_on_c, 0, 57, 34
3, 34920, Note_on_c, 0, 72, 0
3, 34923, Note_on_c, 0, 57, 0
3, 34932, Note_on_c, 0, 67, 59
3, 34960, Note_on_c, 0, 67, 0
3, 34981, Note_on_c, 0, 63, 37
3, 35013, Note_on_c, 0, 63, 0
3, 35019, Note_on_c, 0, 62, 53
3, 35042, Note_on_c, 0, 62, 0
3, 35059, Note_on_c, 0, 65, 72
3, 35101, Note_on_c, 0, 65, 0
3, 35101, Note_on_c, 0, 62, 64
3, 35127, Note_on_c, 0, 62, 0
3, 35154, Note_on_c, 0, 64, 47
3, 35167, Note_on_c, 0, 64, 0
3, 35220, Note_on_c, 0, 62, 75
3, 35273, Note_on_c, 0, 62, 0
3, 35303, Note_on_c, 0, 55, 66
3, 35348, Note_on_c, 0, 55, 0
3, 35366, Note_on_c, 0, 55, 71
3, 35407, Note_on_c, 0, 55, 0
3, 35433, Note_on_c, 0, 55, 60
3, 35454, Note_on_c, 0, 55, 0
3, 35469, Note_on_c, 0, 55, 69
3, 35495, Note_on_c, 0, 55, 0
3, 35731, Note_on_c, 0, 56, 44
3, 35735, Note_on_c, 0, 46, 29
3, 35743, Note_on_c, 0, 56, 0
3, 35762, Note_on_c, 0, 46, 0
3, 35774, Note_on_c, 0, 60, 65
3, 35796, Note_on_c, 0, 60, 0
3, 35809, Note_on_c, 0, 57, 43
3, 35830, Note_on_c, 0, 57, 0
3, 35837, Note_on_c, 0, 58, 54
3, 35859, Note_on_c, 0, 46, 27
3, 35863, Note_on_c, 0, 58, 0
3, 35874, Note_on_c, 0, 60, 55
3, 35890, Note_on_c, 0, 46, 0
3, 35893, Note_on_c, 0, 60, 0
3, 35896, Note_on_c, 0, 61, 42
3, 35928, Note_on_c, 0, 61, 0
3, 35937, Note_on_c, 0, 63, 29
3, 35950, Note_on_c, 0, 63, 0
3, 35959, Note_on_c, 0, 64, 60
3, 35983, Note_on_c, 0, 64, 0
3, 35992, Note_on_c, 0, 66, 50
3, 36004, Note_on_c, 0, 66, 0
3, 36024, Note_on_c, 0, 67, 41
3, 36055, Note_on_c, 0, 67, 0
3, 36058, Note_on_c, 0, 69, 55
3, 36083, Note_on_c, 0, 69, 0
3, 36092, Note_on_c, 0, 70, 57
3, 36093, Note_on_c, 0, 61, 50
3, 36097, Note_on_c, 0, 64, 30
3, 36108, Note_on_c, 0, 64, 0
3, 36112, Note_on_c, 0, 70, 0
3, 36114, Note_on_c, 0, 61, 0
3, 36123, Note_on_c, 0, 72, 55
3, 36148, Note_on_c, 0, 72, 0
3, 36154, Note_on_c, 0, 73, 31
3, 36180, Note_on_c, 0, 73, 0
3, 36185, Note_on_c, 0, 75, 38
3, 36199, Note_on_c, 0, 75, 0
3, 36209, Note_on_c, 0, 76, 58
3, 36218, Note_on_c, 0, 45, 53
3, 36222, Note_on_c, 0, 55, 38
3, 36234, Note_on_c, 0, 55, 0
3, 36236, Note_on_c, 0, 76, 0
3, 36247, Note_on_c, 0, 78, 35
3, 36250, Note_on_c, 0, 45, 0
3, 36257, Note_on_c, 0, 78, 0
3, 36278, Note_on_c, 0, 79, 36
3, 36307, Note_on_c, 0, 79, 0
3, 36311, Note_on_c, 0, 81, 46
3, 36334, Note_on_c, 0, 82, 47
3, 36339, Note_on_c, 0, 81, 0
3, 36348, Note_on_c, 0, 51, 28
3, 36362, Note_on_c, 0, 82, 0
3, 36367, Note_on_c, 0, 83, 35
3, 36387, Note_on_c, 0, 51, 0
3, 36401, Note_on_c, 0, 83, 0
3, 36412, Note_on_c, 0, 86, 77
3, 36445, Note_on_c, 0, 83, 60
3, 36447, Note_on_c, 0, 86, 0
3, 36469, Note_on_c, 0, 83, 0
3, 36477, Note_on_c, 0, 84, 71
3, 36495, Note_on_c, 0, 44, 35
3, 36511, Note_on_c, 0, 81, 53
3, 36512, Note_on_c, 0, 84, 0
3, 36513, Note_on_c, 0, 44, 0
3, 36540, Note_on_c, 0, 81, 0
3, 36695, Note_on_c, 0, 55, 51
3, 36705, Note_on_c, 0, 55, 0
3, 36730, Note_on_c, 0, 82, 71
3, 36762, Note_on_c, 0, 82, 0
3, 36766, Note_on_c, 0, 79, 50
3, 36789, Note_on_c, 0, 79, 0
3, 36808, Note_on_c, 0, 80, 67
3, 36840, Note_on_c, 0, 80, 0
3, 36850, Note_on_c, 0, 77, 51
3, 36894, Note_on_c, 0, 77, 0
3, 37043, Note_on_c, 0, 63, 59
3, 37048, Note_on_c, 0, 59, 60
3, 37048, Note_on_c, 0, 53, 35
3, 37057, Note_on_c, 0, 63, 0
3, 37060, Note_on_c, 0, 59, 0
3, 37062, Note_on_c, 0, 53, 0
3, 37130, Note_on_c, 0, 79, 63
3, 37134, Note_on_c, 0, 67, 58
3, 37158, Note_on_c, 0, 67, 0
3, 37159, Note_on_c, 0, 79, 0
3, 37183, Note_on_c, 0, 77, 37
3, 37199, Note_on_c, 0, 77, 0
3, 37221, Note_on_c, 0, 79, 71
3, 37226, Note_on_c, 0, 67, 68
3, 37256, Note_on_c, 0, 67, 0
3, 37262, Note_on_c, 0, 79, 0
3, 37284, Note_on_c, 0, 63, 59
3, 37289, Note_on_c, 0, 59, 50
3, 37293, Note_on_c, 0, 53, 24
3, 37301, Note_on_c, 0, 59, 0
3, 37304, Note_on_c, 0, 53, 0
3, 37305, Note_on_c, 0, 63, 0
3, 37342, Note_on_c, 0, 70, 48
3, 37344, Note_on_c, 0, 82, 65
3, 37366, Note_on_c, 0, 70, 0
3, 37374, Note_on_c, 0, 82, 0
3, 37394, Note_on_c, 0, 79, 47
3, 37407, Note_on_c, 0, 65, 50
3, 37412, Note_on_c, 0, 62, 38
3, 37416, Note_on_c, 0, 60, 38
3, 37418, Note_on_c, 0, 79, 0
3, 37420, Note_on_c, 0, 65, 0
3, 37426, Note_on_c, 0, 82, 75
3, 37427, Note_on_c, 0, 70, 77
3, 37432, Note_on_c, 0, 60, 0
3, 37449, Note_on_c, 0, 62, 0
3, 37462, Note_on_c, 0, 70, 0
3, 37476, Note_on_c, 0, 82, 0
3, 37504, Note_on_c, 0, 84, 70
3, 37510, Note_on_c, 0, 72, 50
3, 37536, Note_on_c, 0, 72, 0
3, 37543, Note_on_c, 0, 84, 0
3, 37552, Note_on_c, 0, 79, 53
3, 37568, Note_on_c, 0, 79, 0
3, 37589, Note_on_c, 0, 84, 79
3, 37589, Note_on_c, 0, 65, 46
3, 37592, Note_on_c, 0, 62, 31
3, 37593, Note_on_c, 0, 72, 69
3, 37594, Note_on_c, 0, 60, 48
3, 37595, Note_on_c, 0, 55, 52
3, 37597, Note_on_c, 0, 79, 34
3, 37611, Note_on_c, 0, 65, 0
3, 37633, Note_on_c, 0, 72, 0
3, 37636, Note_on_c, 0, 55, 0
3, 37640, Note_on_c, 0, 84, 0
3, 37645, Note_on_c, 0, 62, 0
3, 37646, Note_on_c, 0, 60, 0
3, 37650, Note_on_c, 0, 79, 0
3, 37685, Note_on_c, 0, 86, 78
3, 37690, Note_on_c, 0, 74, 56
3, 37711, Note_on_c, 0, 74, 0
3, 37720, Note_on_c, 0, 86, 0
3, 37735, Note_on_c, 0, 84, 51
3, 37753, Note_on_c, 0, 84, 0
3, 37770, Note_on_c, 0, 65, 47
3, 37771, Note_on_c, 0, 62, 36
3, 37772, Note_on_c, 0, 74, 66
3, 37772, Note_on_c, 0, 86, 66
3, 37775, Note_on_c, 0, 60, 41
3, 37780, Note_on_c, 0, 79, 26
3, 37781, Note_on_c, 0, 65, 0
3, 37782, Note_on_c, 0, 82, 25
3, 37787, Note_on_c, 0, 62, 0
3, 37788, Note_on_c, 0, 60, 0
3, 37791, Note_on_c, 0, 79, 0
3, 37800, Note_on_c, 0, 74, 0
3, 37810, Note_on_c, 0, 86, 0
3, 37813, Note_on_c, 0, 82, 0
3, 37852, Note_on_c, 0, 87, 71
3, 37855, Note_on_c, 0, 75, 50
3, 37873, Note_on_c, 0, 75, 0
3, 37883, Note_on_c, 0, 87, 0
3, 37893, Note_on_c, 0, 86, 58
3, 37904, Note_on_c, 0, 86, 0
3, 37928, Note_on_c, 0, 62, 55
3, 37931, Note_on_c, 0, 58, 37
3, 37933, Note_on_c, 0, 51, 34
3, 37934, Note_on_c, 0, 87, 77
3, 37937, Note_on_c, 0, 55, 48
3, 37938, Note_on_c, 0, 75, 62
3, 37951, Note_on_c, 0, 55, 0
3, 37957, Note_on_c, 0, 62, 0
3, 37958, Note_on_c, 0, 51, 0
3, 37970, Note_on_c, 0, 75, 0
3, 37978, Note_on_c, 0, 58, 0
3, 37986, Note_on_c, 0, 87, 0
3, 38040, Note_on_c, 0, 89, 71
3, 38043, Control_c, 0, 64, 127
3, 38045, Note_on_c, 0, 77, 53
3, 38067, Note_on_c, 0, 89, 0
3, 38072, Note_on_c, 0, 77, 0
3, 38080, Control_c, 0, 64, 0
3, 38089, Note_on_c, 0, 87, 55
3, 38114, Note_on_c, 0, 87, 0
3, 38128, Note_on_c, 0, 89, 77
3, 38129, Note_on_c, 0, 67, 58
3, 38130, Note_on_c, 0, 77, 66
3, 38130, Note_on_c, 0, 58, 40
3, 38131, Note_on_c, 0, 62, 53
3, 38132, Note_on_c, 0, 63, 43
3, 38144, Control_c, 0, 64, 127
3, 38152, Note_on_c, 0, 67, 0
3, 38157, Note_on_c, 0, 62, 0
3, 38163, Note_on_c, 0, 77, 0
3, 38165, Note_on_c, 0, 58, 0
3, 38173, Note_on_c, 0, 63, 0
3, 38173, Note_on_c, 0, 89, 0
3, 38189, Control_c, 0, 64, 0
3, 38211, Note_on_c, 0, 91, 76
3, 38216, Note_on_c, 0, 79, 38
3, 38232, Note_on_c, 0, 79, 0
3, 38242, Note_on_c, 0, 91, 0
3, 38262, Note_on_c, 0, 89, 36
3, 38271, Control_c, 0, 64, 127
3, 38276, Note_on_c, 0, 67, 33
3, 38282, Note_on_c, 0, 62, 22
3, 38286, Note_on_c, 0, 89, 0
3, 38288, Note_on_c, 0, 58, 25
3, 38300, Note_on_c, 0, 79, 58
3, 38301, Note_on_c, 0, 91, 70
3, 38313, Note_on_c, 0, 89, 36
3, 38320, Note_on_c, 0, 62, 0
3, 38327, Note_on_c, 0, 58, 0
3, 38332, Note_on_c, 0, 79, 0
3, 38338, Note_on_c, 0, 91, 0
3, 38341, Note_on_c, 0, 67, 0
3, 38345, Note_on_c, 0, 89, 0
3, 38369, Control_c, 0, 64, 0
3, 38406, Note_on_c, 0, 67, 52
3, 38407, Note_on_c, 0, 63, 42
3, 38407, Note_on_c, 0, 62, 51
3, 38408, Note_on_c, 0, 57, 53
3, 38408, Note_on_c, 0, 94, 77
3, 38409, Note_on_c, 0, 82, 62
3, 38427, Note_on_c, 0, 82, 0
3, 38442, Note_on_c, 0, 94, 0
3, 38448, Note_on_c, 0, 91, 55
3, 38459, Note_on_c, 0, 57, 0
3, 38463, Note_on_c, 0, 62, 0
3, 38463, Note_on_c, 0, 67, 0
3, 38465, Note_on_c, 0, 63, 0
3, 38474, Note_on_c, 0, 91, 0
3, 38483, Note_on_c, 0, 62, 26
3, 38483, Note_on_c, 0, 57, 55
3, 38484, Note_on_c, 0, 94, 73
3, 38485, Note_on_c, 0, 63, 31
3, 38485, Note_on_c, 0, 67, 63
3, 38487, Note_on_c, 0, 82, 57
3, 38520, Note_on_c, 0, 82, 0
3, 38523, Control_c, 0, 64, 127
3, 38525, Note_on_c, 0, 57, 0
3, 38527, Note_on_c, 0, 94, 0
3, 38529, Note_on_c, 0, 67, 0
3, 38534, Note_on_c, 0, 63, 0
3, 38535, Note_on_c, 0, 62, 0
3, 38557, Control_c, 0, 64, 0
3, 38568, Note_on_c, 0, 95, 66
3, 38569, Note_on_c, 0, 83, 57
3, 38572, Note_on_c, 0, 67, 54
3, 38572, Note_on_c, 0, 62, 37
3, 38573, Note_on_c, 0, 88, 44
3, 38574, Note_on_c, 0, 63, 37
3, 38574, Note_on_c, 0, 57, 46
3, 38584, Note_on_c, 0, 88, 0
3, 38594, Control_c, 0, 64, 127
3, 38598, Note_on_c, 0, 83, 0
3, 38607, Note_on_c, 0, 95, 0
3, 38612, Note_on_c, 0, 91, 46
3, 38617, Note_on_c, 0, 57, 0
3, 38625, Note_on_c, 0, 62, 0
3, 38625, Note_on_c, 0, 67, 0
3, 38627, Control_c, 0, 64, 0
3, 38629, Note_on_c, 0, 63, 0
3, 38637, Note_on_c, 0, 91, 0
3, 38653, Note_on_c, 0, 67, 59
3, 38655, Note_on_c, 0, 95, 71
3, 38656, Note_on_c, 0, 63, 39
3, 38656, Note_on_c, 0, 62, 46
3, 38657, Note_on_c, 0, 91, 62
3, 38658, Note_on_c, 0, 88, 59
3, 38658, Note_on_c, 0, 83, 55
3, 38659, Note_on_c, 0, 57, 55
3, 38664, Control_c, 0, 64, 127
3, 38691, Note_on_c, 0, 88, 0
3, 38692, Note_on_c, 0, 83, 0
3, 38704, Note_on_c, 0, 57, 0
3, 38705, Note_on_c, 0, 95, 0
3, 38706, Note_on_c, 0, 91, 0
3, 38707, Note_on_c, 0, 67, 0
3, 38709, Note_on_c, 0, 62, 0
3, 38715, Note_on_c, 0, 63, 0
3, 38731, Control_c, 0, 64, 0
3, 38756, Note_on_c, 0, 62, 56
3, 38758, Note_on_c, 0, 98, 75
3, 38759, Note_on_c, 0, 67, 64
3, 38760, Note_on_c, 0, 63, 42
3, 38760, Note_on_c, 0, 86, 65
3, 38763, Note_on_c, 0, 57, 44
3, 38765, Control_c, 0, 64, 127
3, 38772, Note_on_c, 0, 67, 0
3, 38773, Note_on_c, 0, 86, 0
3, 38777, Note_on_c, 0, 57, 0
3, 38780, Note_on_c, 0, 62, 0
3, 38787, Note_on_c, 0, 98, 0
3, 38789, Note_on_c, 0, 63, 0
3, 38809, Note_on_c, 0, 95, 29
3, 38813, Control_c, 0, 64, 0
3, 38824, Note_on_c, 0, 95, 0
3, 38844, Note_on_c, 0, 63, 50
3, 38844, Note_on_c, 0, 67, 69
3, 38844, Note_on_c, 0, 98, 75
3, 38845, Note_on_c, 0, 62, 48
3, 38845, Note_on_c, 0, 57, 65
3, 38847, Note_on_c, 0, 95, 45
3, 38847, Note_on_c, 0, 91, 60
3, 38847, Note_on_c, 0, 86, 63
3, 38863, Control_c, 0, 64, 127
3, 38878, Note_on_c, 0, 86, 0
3, 38880, Note_on_c, 0, 91, 0
3, 38890, Note_on_c, 0, 98, 0
3, 38892, Note_on_c, 0, 67, 0
3, 38892, Note_on_c, 0, 95, 0
3, 38894, Note_on_c, 0, 57, 0
3, 38895, Note_on_c, 0, 62, 0
3, 38902, Note_on_c, 0, 63, 0
3, 38930, Note_on_c, 0, 101, 63
3, 38931, Note_on_c, 0, 62, 48
3, 38934, Note_on_c, 0, 63, 37
3, 38934, Note_on_c, 0, 67, 60
3, 38937, Note_on_c, 0, 89, 32
3, 38949, Note_on_c, 0, 89, 0
3, 38950, Note_on_c, 0, 67, 0
3, 38959, Note_on_c, 0, 62, 0
3, 38962, Note_on_c, 0, 101, 0
3, 38977, Note_on_c, 0, 98, 58
3, 38984, Note_on_c, 0, 63, 0
3, 38990, Note_on_c, 0, 98, 0
3, 38992, Control_c, 0, 64, 0
3, 39010, Note_on_c, 0, 63, 70
3, 39011, Note_on_c, 0, 62, 74
3, 39012, Note_on_c, 0, 67, 84
3, 39013, Note_on_c, 0, 57, 80
3, 39014, Note_on_c, 0, 101, 80
3, 39017, Note_on_c, 0, 89, 82
3, 39029, Control_c, 0, 64, 127
3, 39058, Note_on_c, 0, 101, 0
3, 39066, Note_on_c, 0, 89, 0
3, 39080, Note_on_c, 0, 57, 0
3, 39085, Note_on_c, 0, 67, 0
3, 39087, Note_on_c, 0, 62, 0
3, 39090, Control_c, 0, 64, 0
3, 39091, Note_on_c, 0, 63, 0
3, 39115, Note_on_c, 0, 98, 60
3, 39116, Control_c, 0, 64, 127
3, 39118, Note_on_c, 0, 67, 50
3, 39119, Note_on_c, 0, 62, 36
3, 39120, Note_on_c, 0, 63, 43
3, 39120, Note_on_c, 0, 57, 48
3, 39121, Note_on_c, 0, 86, 53
3, 39135, Note_on_c, 0, 57, 0
3, 39136, Note_on_c, 0, 86, 0
3, 39138, Note_on_c, 0, 62, 0
3, 39141, Note_on_c, 0, 67, 0
3, 39148, Note_on_c, 0, 98, 0
3, 39150, Note_on_c, 0, 63, 0
3, 39160, Note_on_c, 0, 95, 43
3, 39185, Note_on_c, 0, 95, 0
3, 39186, Control_c, 0, 64, 0
3, 39200, Note_on_c, 0, 63, 65
3, 39202, Note_on_c, 0, 62, 64
3, 39202, Note_on_c, 0, 67, 75
3, 39203, Note_on_c, 0, 98, 82
3, 39204, Note_on_c, 0, 57, 71
3, 39206, Note_on_c, 0, 86, 70
3, 39207, Note_on_c, 0, 91, 65
3, 39231, Control_c, 0, 64, 127
3, 39232, Note_on_c, 0, 91, 0
3, 39238, Note_on_c, 0, 98, 0
3, 39241, Note_on_c, 0, 86, 0
3, 39261, Note_on_c, 0, 67, 0
3, 39270, Note_on_c, 0, 63, 0
3, 39271, Note_on_c, 0, 62, 0
3, 39271, Note_on_c, 0, 57, 0
3, 39282, Note_on_c, 0, 95, 64
3, 39287, Note_on_c, 0, 57, 29
3, 39290, Note_on_c, 0, 83, 54
3, 39290, Note_on_c, 0, 63, 38
3, 39291, Note_on_c, 0, 67, 47
3, 39297, Note_on_c, 0, 62, 29
3, 39308, Note_on_c, 0, 62, 0
3, 39310, Note_on_c, 0, 83, 0
3, 39318, Note_on_c, 0, 67, 0
3, 39319, Note_on_c, 0, 95, 0
3, 39328, Note_on_c, 0, 91, 53
3, 39332, Note_on_c, 0, 57, 0
3, 39343, Note_on_c, 0, 63, 0
3, 39357, Note_on_c, 0, 91, 0
3, 39360, Control_c, 0, 64, 0
3, 39370, Note_on_c, 0, 63, 57
3, 39373, Note_on_c, 0, 67, 74
3, 39374, Note_on_c, 0, 95, 81
3, 39374, Note_on_c, 0, 56, 67
3, 39376, Note_on_c, 0, 88, 66
3, 39376, Note_on_c, 0, 83, 70
3, 39376, Note_on_c, 0, 91, 62
3, 39379, Note_on_c, 0, 60, 66
3, 39400, Control_c, 0, 64, 127
3, 39424, Note_on_c, 0, 88, 0
3, 39427, Note_on_c, 0, 83, 0
3, 39430, Note_on_c, 0, 91, 0
3, 39436, Note_on_c, 0, 95, 0
3, 39447, Note_on_c, 0, 67, 0
3, 39449, Note_on_c, 0, 60, 0
3, 39449, Note_on_c, 0, 56, 0
3, 39453, Note_on_c, 0, 63, 0
3, 39461, Control_c, 0, 64, 0
3, 39472, Control_c, 0, 64, 127
3, 39481, Note_on_c, 0, 63, 34
3, 39481, Note_on_c, 0, 67, 51
3, 39482, Note_on_c, 0, 96, 58
3, 39482, Note_on_c, 0, 92, 38
3, 39484, Note_on_c, 0, 56, 35
3, 39485, Note_on_c, 0, 60, 47
3, 39489, Note_on_c, 0, 84, 26
3, 39497, Note_on_c, 0, 67, 0
3, 39498, Note_on_c, 0, 60, 0
3, 39499, Note_on_c, 0, 84, 0
3, 39502, Note_on_c, 0, 92, 0
3, 39502, Note_on_c, 0, 56, 0
3, 39504, Note_on_c, 0, 96, 0
3, 39504, Note_on_c, 0, 63, 0
3, 39548, Control_c, 0, 64, 0
3, 39566, Note_on_c, 0, 96, 90
3, 39568, Note_on_c, 0, 84, 82
3, 39568, Note_on_c, 0, 67, 77
3, 39568, Note_on_c, 0, 56, 67
3, 39569, Note_on_c, 0, 63, 59
3, 39569, Note_on_c, 0, 89, 74
3, 39572, Note_on_c, 0, 92, 27
3, 39572, Note_on_c, 0, 60, 60
3, 39577, Note_on_c, 0, 93, 45
3, 39587, Note_on_c, 0, 93, 0
3, 39594, Control_c, 0, 64, 127
3, 39608, Note_on_c, 0, 96, 0
3, 39613, Note_on_c, 0, 84, 0
3, 39613, Note_on_c, 0, 89, 0
3, 39621, Note_on_c, 0, 92, 0
3, 39622, Note_on_c, 0, 60, 0
3, 39625, Note_on_c, 0, 56, 0
3, 39625, Note_on_c, 0, 67, 0
3, 39630, Note_on_c, 0, 63, 0
3, 39654, Note_on_c, 0, 63, 38
3, 39656, Note_on_c, 0, 94, 37
3, 39657, Note_on_c, 0, 67, 42
3, 39662, Note_on_c, 0, 60, 45
3, 39665, Note_on_c, 0, 94, 0
3, 39671, Note_on_c, 0, 67, 0
3, 39674, Note_on_c, 0, 60, 0
3, 39683, Note_on_c, 0, 63, 0
3, 39715, Control_c, 0, 64, 0
3, 39741, Note_on_c, 0, 92, 76
3, 39742, Note_on_c, 0, 87, 53
3, 39744, Note_on_c, 0, 80, 69
3, 39744, Note_on_c, 0, 67, 71
3, 39745, Note_on_c, 0, 63, 50
3, 39745, Note_on_c, 0, 56, 56
3, 39748, Note_on_c, 0, 60, 62
3, 39749, Control_c, 0, 64, 127
3, 39779, Note_on_c, 0, 87, 0
3, 39791, Note_on_c, 0, 92, 0
3, 39791, Note_on_c, 0, 80, 0
3, 39801, Note_on_c, 0, 90, 12
3, 39809, Note_on_c, 0, 67, 0
3, 39810, Note_on_c, 0, 56, 0
3, 39812, Note_on_c, 0, 60, 0
3, 39817, Note_on_c, 0, 63, 0
3, 39819, Note_on_c, 0, 90, 0
3, 39833, Control_c, 0, 64, 0
3, 39847, Note_on_c, 0, 56, 64
3, 39848, Note_on_c, 0, 67, 75
3, 39849, Note_on_c, 0, 87, 53
3, 39849, Note_on_c, 0, 91, 68
3, 39849, Note_on_c, 0, 79, 66
3, 39852, Note_on_c, 0, 62, 64
3, 39853, Note_on_c, 0, 89, 60
3, 39858, Note_on_c, 0, 87, 0
3, 39871, Note_on_c, 0, 67, 0
3, 39872, Note_on_c, 0, 79, 0
3, 39878, Note_on_c, 0, 89, 0
3, 39885, Note_on_c, 0, 56, 0
3, 39886, Note_on_c, 0, 91, 0
3, 39889, Note_on_c, 0, 88, 50
3, 39895, Note_on_c, 0, 62, 0
3, 39914, Note_on_c, 0, 88, 0
3, 39927, Note_on_c, 0, 91, 76
3, 39931, Note_on_c, 0, 84, 71
3, 39931, Note_on_c, 0, 79, 64
3, 39932, Note_on_c, 0, 56, 68
3, 39933, Note_on_c, 0, 67, 76
3, 39933, Note_on_c, 0, 62, 65
3, 39936, Note_on_c, 0, 88, 51
3, 39945, Control_c, 0, 64, 127
3, 39946, Note_on_c, 0, 89, 22
3, 39957, Note_on_c, 0, 89, 0
3, 39960, Note_on_c, 0, 88, 0
3, 39968, Note_on_c, 0, 91, 0
3, 39970, Note_on_c, 0, 84, 0
3, 39979, Note_on_c, 0, 79, 0
3, 39989, Note_on_c, 0, 67, 0
3, 39991, Note_on_c, 0, 56, 0
3, 39995, Note_on_c, 0, 62, 0
3, 40011, Note_on_c, 0, 88, 60
3, 40017, Note_on_c, 0, 67, 51
3, 40018, Note_on_c, 0, 62, 58
3, 40019, Note_on_c, 0, 76, 50
3, 40020, Note_on_c, 0, 56, 37
3, 40042, Note_on_c, 0, 62, 0
3, 40043, Note_on_c, 0, 67, 0
3, 40044, Note_on_c, 0, 88, 0
3, 40044, Note_on_c, 0, 76, 0
3, 40044, Note_on_c, 0, 56, 0
3, 40062, Note_on_c, 0, 84, 43
3, 40066, Control_c, 0, 64, 0
3, 40076, Note_on_c, 0, 84, 0
3, 40088, Note_on_c, 0, 88, 75
3, 40092, Note_on_c, 0, 76, 71
3, 40093, Note_on_c, 0, 56, 64
3, 40094, Control_c, 0, 64, 127
3, 40094, Note_on_c, 0, 67, 68
3, 40095, Note_on_c, 0, 62, 66
3, 40100, Note_on_c, 0, 82, 28
3, 40100, Note_on_c, 0, 86, 36
3, 40103, Note_on_c, 0, 84, 31
3, 40116, Note_on_c, 0, 84, 0
3, 40122, Note_on_c, 0, 82, 0
3, 40129, Note_on_c, 0, 88, 0
3, 40131, Note_on_c, 0, 86, 0
3, 40137, Note_on_c, 0, 76, 0
3, 40144, Note_on_c, 0, 67, 0
3, 40158, Note_on_c, 0, 56, 0
3, 40164, Note_on_c, 0, 62, 0
3, 40184, Control_c, 0, 64, 0
3, 40193, Note_on_c, 0, 56, 59
3, 40195, Note_on_c, 0, 84, 64
3, 40195, Note_on_c, 0, 66, 63
3, 40199, Note_on_c, 0, 72, 54
3, 40199, Note_on_c, 0, 62, 39
3, 40201, Control_c, 0, 64, 127
3, 40211, Note_on_c, 0, 72, 0
3, 40225, Note_on_c, 0, 84, 0
3, 40246, Note_on_c, 0, 79, 34
3, 40249, Note_on_c, 0, 66, 0
3, 40257, Control_c, 0, 64, 0
3, 40259, Note_on_c, 0, 79, 0
3, 40273, Note_on_c, 0, 56, 0
3, 40278, Note_on_c, 0, 79, 65
3, 40279, Note_on_c, 0, 65, 71
3, 40280, Note_on_c, 0, 84, 87
3, 40281, Note_on_c, 0, 72, 80
3, 40284, Note_on_c, 0, 55, 64
3, 40285, Note_on_c, 0, 60, 60
3, 40313, Control_c, 0, 64, 127
3, 40433, Note_on_c, 0, 84, 0
3, 40442, Note_on_c, 0, 79, 0
3, 40445, Control_c, 0, 64, 0
3, 40449, Note_on_c, 0, 82, 62
3, 40489, Note_on_c, 0, 62, 0
3, 40494, Note_on_c, 0, 72, 0
3, 40519, Note_on_c, 0, 82, 0
3, 40527, Note_on_c, 0, 65, 0
3, 40544, Note_on_c, 0, 60, 0
3, 40552, Note_on_c, 0, 55, 0
3, 40567, Note_on_c, 0, 82, 64
3, 40647, Note_on_c, 0, 82, 0
3, 40687, Note_on_c, 0, 82, 64
3, 40768, Note_on_c, 0, 82, 0
3, 40810, Note_on_c, 0, 65, 42
3, 40811, Note_on_c, 0, 82, 68
3, 40811, Note_on_c, 0, 62, 38
3, 40814, Note_on_c, 0, 60, 44
3, 40823, Note_on_c, 0, 65, 0
3, 40840, Note_on_c, 0, 62, 0
3, 40845, Note_on_c, 0, 60, 0
3, 40876, Note_on_c, 0, 82, 0
3, 40890, Note_on_c, 0, 84, 64
3, 40914, Note_on_c, 0, 82, 37
3, 40919, Note_on_c, 0, 84, 0
3, 40940, Note_on_c, 0, 81, 38
3, 40962, Note_on_c, 0, 82, 0
3, 41004, Note_on_c, 0, 81, 0
3, 41014, Note_on_c, 0, 82, 64
3, 41017, Note_on_c, 0, 65, 32
3, 41023, Note_on_c, 0, 62, 26
3, 41029, Note_on_c, 0, 65, 0
3, 41036, Note_on_c, 0, 62, 0
3, 41053, Note_on_c, 0, 82, 0
3, 41073, Note_on_c, 0, 84, 50
3, 41129, Note_on_c, 0, 84, 0
3, 41141, Note_on_c, 0, 82, 55
3, 41161, Note_on_c, 0, 82, 0
3, 41292, Note_on_c, 0, 56, 36
3, 41294, Note_on_c, 0, 50, 41
3, 41296, Note_on_c, 0, 60, 27
3, 41305, Note_on_c, 0, 60, 0
3, 41306, Note_on_c, 0, 50, 0
3, 41308, Note_on_c, 0, 56, 0
3, 41485, Note_on_c, 0, 60, 60
3, 41487, Note_on_c, 0, 56, 47
3, 41494, Note_on_c, 0, 50, 27
3, 41495, Note_on_c, 0, 60, 0
3, 41503, Note_on_c, 0, 50, 0
3, 41507, Note_on_c, 0, 56, 0
3, 41526, Note_on_c, 0, 80, 85
3, 41577, Note_on_c, 0, 80, 0
3, 41591, Note_on_c, 0, 82, 44
3, 41610, Note_on_c, 0, 80, 39
3, 41629, Note_on_c, 0, 82, 0
3, 41651, Note_on_c, 0, 79, 37
3, 41663, Note_on_c, 0, 80, 0
3, 41708, Note_on_c, 0, 79, 0
3, 41726, Note_on_c, 0, 80, 74
3, 41731, Note_on_c, 0, 63, 69
3, 41733, Note_on_c, 0, 59, 66
3, 41738, Note_on_c, 0, 53, 33
3, 41743, Note_on_c, 0, 59, 0
3, 41749, Note_on_c, 0, 63, 0
3, 41750, Note_on_c, 0, 53, 0
3, 41767, Note_on_c, 0, 80, 0
3, 41798, Note_on_c, 0, 82, 64
3, 41851, Note_on_c, 0, 82, 0
3, 41868, Note_on_c, 0, 80, 57
3, 41895, Note_on_c, 0, 80, 0
3, 41974, Note_on_c, 0, 79, 85
3, 41977, Note_on_c, 0, 62, 60
3, 41984, Note_on_c, 0, 59, 44
3, 41987, Note_on_c, 0, 62, 0
3, 41990, Note_on_c, 0, 56, 21
3, 41999, Note_on_c, 0, 59, 0
3, 42004, Note_on_c, 0, 56, 0
3, 42023, Note_on_c, 0, 79, 0
3, 42033, Note_on_c, 0, 80, 26
3, 42065, Note_on_c, 0, 79, 54
3, 42071, Note_on_c, 0, 80, 0
3, 42101, Note_on_c, 0, 59, 42
3, 42102, Note_on_c, 0, 56, 34
3, 42106, Note_on_c, 0, 79, 0
3, 42107, Note_on_c, 0, 53, 22
3, 42111, Note_on_c, 0, 77, 58
3, 42117, Note_on_c, 0, 59, 0
3, 42131, Note_on_c, 0, 53, 0
3, 42141, Note_on_c, 0, 56, 0
3, 42147, Note_on_c, 0, 76, 66
3, 42155, Note_on_c, 0, 77, 0
3, 42208, Note_on_c, 0, 76, 0
3, 42220, Note_on_c, 0, 77, 71
3, 42237, Note_on_c, 0, 57, 32
3, 42263, Note_on_c, 0, 57, 0
3, 42264, Note_on_c, 0, 77, 0
3, 42286, Note_on_c, 0, 79, 78
3, 42333, Note_on_c, 0, 79, 0
3, 42358, Note_on_c, 0, 77, 71
3, 42394, Note_on_c, 0, 77, 0
3, 42440, Note_on_c, 0, 75, 69
3, 42450, Note_on_c, 0, 62, 55
3, 42455, Note_on_c, 0, 57, 53
3, 42465, Note_on_c, 0, 62, 0
3, 42478, Note_on_c, 0, 75, 0
3, 42487, Note_on_c, 0, 57, 0
3, 42500, Note_on_c, 0, 75, 42
3, 42531, Note_on_c, 0, 75, 0
3, 42536, Note_on_c, 0, 74, 48
3, 42590, Note_on_c, 0, 74, 0
3, 42620, Note_on_c, 0, 67, 38
3, 42680, Note_on_c, 0, 67, 0
3, 42692, Note_on_c, 0, 72, 60
3, 42692, Note_on_c, 0, 62, 50
3, 42703, Note_on_c, 0, 62, 0
3, 42704, Note_on_c, 0, 57, 35
3, 42721, Note_on_c, 0, 57, 0
3, 42932, Note_on_c, 0, 62, 53
3, 42935, Note_on_c, 0, 57, 45
3, 42942, Note_on_c, 0, 62, 0
3, 42948, Note_on_c, 0, 57, 0
3, 43045, Note_on_c, 0, 67, 66
3, 43072, Note_on_c, 0, 72, 0
3, 43089, Note_on_c, 0, 67, 0
3, 43100, Note_on_c, 0, 65, 25
3, 43158, Note_on_c, 0, 65, 0
3, 43174, Note_on_c, 0, 72, 51
3, 43176, Note_on_c, 0, 65, 54
3, 43178, Note_on_c, 0, 61, 39
3, 43180, Note_on_c, 0, 56, 27
3, 43184, Note_on_c, 0, 60, 35
3, 43189, Note_on_c, 0, 65, 0
3, 43196, Note_on_c, 0, 60, 0
3, 43205, Note_on_c, 0, 56, 0
3, 43209, Note_on_c, 0, 72, 0
3, 43210, Note_on_c, 0, 61, 0
3, 43224, Note_on_c, 0, 68, 29
3, 43294, Note_on_c, 0, 68, 0
3, 43340, Note_on_c, 0, 68, 52
3, 43402, Note_on_c, 0, 68, 0
3, 43455, Note_on_c, 0, 56, 34
3, 43455, Note_on_c, 0, 68, 45
3, 43460, Note_on_c, 0, 65, 30
3, 43471, Note_on_c, 0, 65, 0
3, 43483, Note_on_c, 0, 56, 0
3, 43491, Note_on_c, 0, 68, 0
3, 43646, Note_on_c, 0, 61, 49
3, 43651, Note_on_c, 0, 64, 35
3, 43656, Note_on_c, 0, 55, 30
3, 43663, Note_on_c, 0, 64, 0
3, 43670, Note_on_c, 0, 55, 0
3, 43670, Note_on_c, 0, 61, 0
3, 43756, Note_on_c, 0, 45, 66
3, 43767, Note_on_c, 0, 45, 0
3, 43884, Note_on_c, 0, 61, 55
3, 43884, Note_on_c, 0, 64, 57
3, 43892, Note_on_c, 0, 59, 36
3, 43896, Note_on_c, 0, 64, 0
3, 43904, Note_on_c, 0, 59, 0
3, 43908, Note_on_c, 0, 61, 0
3, 43926, Note_on_c, 0, 67, 27
3, 43978, Note_on_c, 0, 67, 0
3, 43994, Note_on_c, 0, 71, 65
3, 44017, Note_on_c, 0, 45, 34
3, 44023, Note_on_c, 0, 71, 0
3, 44031, Note_on_c, 0, 45, 0
3, 44043, Note_on_c, 0, 73, 62
3, 44096, Note_on_c, 0, 73, 0
3, 44118, Note_on_c, 0, 75, 71
3, 44121, Note_on_c, 0, 44, 63
3, 44123, Note_on_c, 0, 55, 64
3, 44133, Note_on_c, 0, 55, 0
3, 44143, Note_on_c, 0, 44, 0
3, 44172, Note_on_c, 0, 75, 0
3, 44174, Note_on_c, 0, 72, 46
3, 44225, Note_on_c, 0, 72, 0
3, 44247, Note_on_c, 0, 72, 49
3, 44283, Note_on_c, 0, 72, 0
3, 44290, Note_on_c, 0, 67, 49
3, 44325, Note_on_c, 0, 67, 0
3, 44368, Note_on_c, 0, 67, 47
3, 44376, Note_on_c, 0, 63, 69
3, 44392, Note_on_c, 0, 67, 0
3, 44396, Note_on_c, 0, 63, 0
3, 44413, Note_on_c, 0, 79, 71
3, 44490, Note_on_c, 0, 79, 0
3, 44528, Note_on_c, 0, 75, 49
3, 44604, Note_on_c, 0, 75, 0
3, 44640, Note_on_c, 0, 63, 46
3, 44646, Note_on_c, 0, 68, 42
3, 44647, Note_on_c, 0, 53, 50
3, 44649, Note_on_c, 0, 59, 50
3, 44651, Note_on_c, 0, 58, 29
3, 44651, Note_on_c, 0, 71, 44
3, 44694, Note_on_c, 0, 68, 0
3, 44696, Note_on_c, 0, 53, 0
3, 44699, Note_on_c, 0, 59, 0
3, 44699, Note_on_c, 0, 71, 0
3, 44704, Note_on_c, 0, 58, 0
3, 44707, Note_on_c, 0, 63, 0
3, 44843, Note_on_c, 0, 63, 63
3, 44847, Note_on_c, 0, 58, 42
3, 44848, Note_on_c, 0, 59, 54
3, 44860, Note_on_c, 0, 59, 0
3, 44865, Note_on_c, 0, 63, 0
3, 44886, Note_on_c, 0, 58, 0
3, 44968, Note_on_c, 0, 63, 37
3, 44969, Note_on_c, 0, 61, 37
3, 44978, Note_on_c, 0, 61, 0
3, 44978, Note_on_c, 0, 63, 0
3, 44999, Note_on_c, 0, 61, 52
3, 44999, Note_on_c, 0, 63, 59
3, 45001, Note_on_c, 0, 56, 62
3, 45002, Note_on_c, 0, 78, 71
3, 45003, Note_on_c, 0, 72, 80
3, 45004, Note_on_c, 0, 84, 84
3, 45004, Note_on_c, 0, 66, 69
3, 45062, Note_on_c, 0, 78, 0
3, 45062, Note_on_c, 0, 79, 47
3, 45092, Note_on_c, 0, 72, 0
3, 45093, Note_on_c, 0, 79, 0
3, 45094, Note_on_c, 0, 84, 0
3, 45107, Note_on_c, 0, 66, 0
3, 45117, Note_on_c, 0, 56, 0
3, 45117, Note_on_c, 0, 61, 0
3, 45119, Note_on_c, 0, 63, 0
3, 45129, Note_on_c, 0, 62, 42
3, 45130, Note_on_c, 0, 65, 55
3, 45132, Note_on_c, 0, 82, 68
3, 45135, Note_on_c, 0, 70, 64
3, 45138, Note_on_c, 0, 60, 49
3, 45139, Note_on_c, 0, 55, 45
3, 45181, Note_on_c, 0, 65, 0
3, 45185, Note_on_c, 0, 55, 0
3, 45194, Note_on_c, 0, 70, 0
3, 45194, Note_on_c, 0, 82, 0
3, 45195, Note_on_c, 0, 60, 0
3, 45200, Note_on_c, 0, 62, 0
3, 45320, Note_on_c, 0, 75, 69
3, 45323, Note_on_c, 0, 67, 77
3, 45323, Note_on_c, 0, 79, 67
3, 45332, Note_on_c, 0, 60, 41
3, 45333, Note_on_c, 0, 62, 33
3, 45341, Note_on_c, 0, 55, 31
3, 45357, Note_on_c, 0, 55, 0
3, 45362, Note_on_c, 0, 67, 0
3, 45366, Note_on_c, 0, 60, 0
3, 45372, Note_on_c, 0, 62, 0
3, 45374, Note_on_c, 0, 79, 0
3, 45375, Note_on_c, 0, 75, 0
3, 45398, Note_on_c, 0, 77, 47
3, 45399, Note_on_c, 0, 74, 55
3, 45430, Note_on_c, 0, 74, 0
3, 45454, Note_on_c, 0, 77, 0
3, 45475, Note_on_c, 0, 75, 53
3, 45500, Note_on_c, 0, 75, 0
3, 45565, Note_on_c, 0, 67, 68
3, 45567, Note_on_c, 0, 74, 68
3, 45567, Note_on_c, 0, 63, 68
3, 45570, Note_on_c, 0, 62, 78
3, 45609, Note_on_c, 0, 63, 0
3, 45610, Note_on_c, 0, 67, 0
3, 45610, Note_on_c, 0, 74, 0
3, 45612, Note_on_c, 0, 62, 0
3, 45636, Note_on_c, 0, 60, 50
3, 45672, Note_on_c, 0, 60, 0
3, 45683, Note_on_c, 0, 63, 70
3, 45684, Note_on_c, 0, 74, 65
3, 45685, Note_on_c, 0, 67, 67
3, 45689, Note_on_c, 0, 62, 68
3, 45692, Note_on_c, 0, 69, 43
3, 45719, Note_on_c, 0, 62, 0
3, 45723, Note_on_c, 0, 69, 0
3, 45728, Note_on_c, 0, 67, 0
3, 45728, Note_on_c, 0, 63, 0
3, 45731, Note_on_c, 0, 74, 0
3, 45754, Note_on_c, 0, 60, 51
3, 45760, Note_on_c, 0, 63, 57
3, 45762, Note_on_c, 0, 72, 56
3, 45763, Note_on_c, 0, 67, 56
3, 45767, Note_on_c, 0, 60, 0
3, 45796, Note_on_c, 0, 67, 0
3, 45799, Note_on_c, 0, 72, 0
3, 45802, Note_on_c, 0, 63, 0
3, 45856, Note_on_c, 0, 63, 50
3, 45858, Note_on_c, 0, 60, 60
3, 45858, Note_on_c, 0, 66, 49
3, 45860, Note_on_c, 0, 54, 49
3, 45861, Note_on_c, 0, 68, 34
3, 46009, Note_on_c, 0, 54, 0
3, 46011, Note_on_c, 0, 60, 0
3, 46023, Note_on_c, 0, 68, 0
3, 46023, Note_on_c, 0, 66, 0
3, 46025, Note_on_c, 0, 63, 0
3, 46042, Note_on_c, 0, 69, 69
3, 46043, Note_on_c, 0, 66, 54
3, 46043, Note_on_c, 0, 63, 47
3, 46044, Note_on_c, 0, 54, 64
3, 46046, Note_on_c, 0, 60, 59
3, 46051, Note_on_c, 0, 68, 31
3, 46066, Note_on_c, 0, 69, 0
3, 46071, Note_on_c, 0, 68, 0
3, 46079, Note_on_c, 0, 63, 0
3, 46081, Note_on_c, 0, 60, 0
3, 46093, Note_on_c, 0, 66, 0
3, 46101, Note_on_c, 0, 54, 0
3, 46113, Note_on_c, 0, 70, 49
3, 46114, Note_on_c, 0, 55, 45
3, 46115, Note_on_c, 0, 60, 41
3, 46117, Note_on_c, 0, 65, 53
3, 46211, Note_on_c, 0, 60, 0
3, 46216, Control_c, 0, 64, 127
3, 46218, Note_on_c, 0, 55, 0
3, 46227, Note_on_c, 0, 65, 0
3, 46234, Note_on_c, 0, 70, 0
3, 46334, Control_c, 0, 64, 0
3, 46335, Note_on_c, 0, 74, 68
3, 46335, Note_on_c, 0, 70, 69
3, 46336, Note_on_c, 0, 54, 70
3, 46336, Note_on_c, 0, 60, 68
3, 46337, Note_on_c, 0, 65, 68
3, 46402, Note_on_c, 0, 65, 0
3, 46407, Note_on_c, 0, 74, 0
3, 46414, Note_on_c, 0, 77, 66
3, 46434, Note_on_c, 0, 70, 0
3, 46449, Control_c, 0, 64, 127
3, 46459, Note_on_c, 0, 77, 0
3, 46460, Note_on_c, 0, 74, 54
3, 46471, Note_on_c, 0, 60, 0
3, 46508, Note_on_c, 0, 54, 0
3, 46511, Note_on_c, 0, 74, 0
3, 46534, Note_on_c, 0, 70, 52
3, 46537, Control_c, 0, 64, 0
3, 46537, Note_on_c, 0, 65, 51
3, 46541, Note_on_c, 0, 62, 39
3, 46542, Note_on_c, 0, 53, 32
3, 46542, Note_on_c, 0, 55, 45
3, 46542, Note_on_c, 0, 58, 46
3, 46607, Control_c, 0, 64, 127
3, 46610, Control_c, 0, 64, 0
3, 46660, Control_c, 0, 64, 127
3, 46669, Note_on_c, 0, 53, 0
3, 46679, Note_on_c, 0, 55, 0
3, 46684, Note_on_c, 0, 62, 0
3, 46715, Note_on_c, 0, 65, 0
3, 46720, Note_on_c, 0, 70, 0
3, 46722, Note_on_c, 0, 58, 0
3, 46803, Note_on_c, 0, 73, 44
3, 46804, Note_on_c, 0, 61, 52
3, 46806, Control_c, 0, 64, 0
3, 46807, Note_on_c, 0, 68, 50
3, 46807, Note_on_c, 0, 52, 44
3, 46808, Note_on_c, 0, 64, 61
3, 46810, Note_on_c, 0, 58, 43
3, 46812, Note_on_c, 0, 70, 38
3, 46851, Note_on_c, 0, 61, 0
3, 46853, Note_on_c, 0, 52, 0
3, 46861, Note_on_c, 0, 64, 0
3, 46874, Note_on_c, 0, 73, 0
3, 46874, Note_on_c, 0, 70, 0
3, 46883, Note_on_c, 0, 75, 58
3, 46884, Note_on_c, 0, 58, 0
3, 46885, Note_on_c, 0, 63, 59
3, 46886, Note_on_c, 0, 64, 49
3, 46893, Note_on_c, 0, 70, 21
3, 46916, Note_on_c, 0, 64, 0
3, 46921, Note_on_c, 0, 63, 0
3, 46924, Note_on_c, 0, 61, 34
3, 46927, Note_on_c, 0, 75, 0
3, 46927, Note_on_c, 0, 73, 15
3, 46929, Note_on_c, 0, 68, 0
3, 46938, Control_c, 0, 64, 127
3, 46958, Note_on_c, 0, 73, 0
3, 46973, Note_on_c, 0, 70, 0
3, 46994, Control_c, 0, 64, 0
3, 47002, Note_on_c, 0, 61, 0
3, 47008, Note_on_c, 0, 65, 64
3, 47008, Note_on_c, 0, 68, 53
3, 47009, Note_on_c, 0, 60, 59
3, 47013, Note_on_c, 0, 72, 40
3, 47020, Note_on_c, 0, 60, 0
3, 47023, Note_on_c, 0, 65, 0
3, 47025, Note_on_c, 0, 72, 0
3, 47026, Note_on_c, 0, 68, 0
3, 47079, Note_on_c, 0, 58, 44
3, 47083, Note_on_c, 0, 70, 30
3, 47084, Note_on_c, 0, 60, 43
3, 47085, Note_on_c, 0, 63, 30
3, 47087, Note_on_c, 0, 67, 44
3, 47135, Note_on_c, 0, 70, 0
3, 47140, Note_on_c, 0, 60, 0
3, 47142, Note_on_c, 0, 58, 0
3, 47147, Note_on_c, 0, 67, 0
3, 47156, Note_on_c, 0, 63, 0
3, 47163, Control_c, 0, 64, 127
3, 47167, Note_on_c, 0, 46, 49
3, 47238, Control_c, 0, 64, 0
3, 47247, Note_on_c, 0, 67, 57
3, 47248, Note_on_c, 0, 59, 66
3, 47249, Note_on_c, 0, 62, 58
3, 47250, Note_on_c, 0, 56, 49
3, 47251, Note_on_c, 0, 64, 58
3, 47271, Note_on_c, 0, 46, 0
3, 47308, Control_c, 0, 64, 127
3, 47340, Control_c, 0, 64, 0
3, 47373, Note_on_c, 0, 46, 50
3, 47377, Note_on_c, 0, 67, 0
3, 47382, Note_on_c, 0, 62, 0
3, 47382, Note_on_c, 0, 56, 0
3, 47382, Note_on_c, 0, 64, 0
3, 47390, Control_c, 0, 64, 127
3, 47394, Note_on_c, 0, 59, 0
3, 47435, Note_on_c, 0, 46, 0
3, 47483, Control_c, 0, 64, 0
3, 47485, Note_on_c, 0, 62, 66
3, 47485, Note_on_c, 0, 65, 62
3, 47486, Note_on_c, 0, 58, 69
3, 47488, Note_on_c, 0, 55, 74
3, 47489, Note_on_c, 0, 53, 66
3, 47489, Note_on_c, 0, 52, 51
3, 47499, Note_on_c, 0, 52, 0
3, 47508, Note_on_c, 0, 53, 0
3, 47609, Note_on_c, 0, 46, 86
3, 47620, Note_on_c, 0, 55, 0
3, 47634, Note_on_c, 0, 62, 0
3, 47643, Note_on_c, 0, 58, 0
3, 47649, Note_on_c, 0, 65, 0
3, 47770, Note_on_c, 0, 60, 91
3, 47854, Note_on_c, 0, 60, 0
3, 47888, Note_on_c, 0, 46, 0
3, 47903, Note_on_c, 0, 58, 44
3, 47961, Note_on_c, 0, 58, 0
3, 47973, Note_on_c, 0, 60, 68
3, 47980, Note_on_c, 0, 39, 48
3, 47981, Note_on_c, 0, 46, 42
3, 47993, Note_on_c, 0, 39, 0
3, 48005, Note_on_c, 0, 46, 0
3, 48006, Note_on_c, 0, 60, 0
3, 48022, Note_on_c, 0, 58, 46
3, 48205, Note_on_c, 0, 39, 45
3, 48206, Note_on_c, 0, 46, 48
3, 48215, Note_on_c, 0, 39, 0
3, 48225, Note_on_c, 0, 46, 0
3, 48319, Note_on_c, 0, 58, 0
3, 48331, Note_on_c, 0, 46, 33
3, 48341, Note_on_c, 0, 46, 0
3, 48367, Note_on_c, 0, 57, 77
3, 48437, Note_on_c, 0, 57, 0
3, 48444, Note_on_c, 0, 54, 37
3, 48480, Note_on_c, 0, 54, 0
3, 48495, Note_on_c, 0, 55, 57
3, 48560, Note_on_c, 0, 55, 0
3, 48689, Note_on_c, 0, 58, 54
3, 48699, Note_on_c, 0, 55, 37
3, 48712, Note_on_c, 0, 58, 0
3, 48714, Note_on_c, 0, 55, 0
3, 48723, Note_on_c, 0, 62, 85
3, 48800, Note_on_c, 0, 62, 0
3, 48855, Note_on_c, 0, 60, 45
3, 48905, Note_on_c, 0, 60, 0
3, 48930, Note_on_c, 0, 56, 49
3, 48932, Note_on_c, 0, 50, 48
3, 48944, Note_on_c, 0, 50, 0
3, 48955, Note_on_c, 0, 56, 0
3, 49166, Note_on_c, 0, 60, 62
3, 49167, Note_on_c, 0, 56, 43
3, 49174, Note_on_c, 0, 50, 31
3, 49176, Note_on_c, 0, 60, 0
3, 49184, Note_on_c, 0, 50, 0
3, 49196, Note_on_c, 0, 56, 0
3, 49231, Note_on_c, 0, 74, 65
3, 49269, Note_on_c, 0, 74, 0
3, 49271, Note_on_c, 0, 67, 61
3, 49292, Note_on_c, 0, 67, 0
3, 49314, Note_on_c, 0, 70, 71
3, 49350, Note_on_c, 0, 70, 0
3, 49404, Note_on_c, 0, 68, 71
3, 49409, Note_on_c, 0, 63, 50
3, 49414, Note_on_c, 0, 59, 46
3, 49419, Note_on_c, 0, 63, 0
3, 49426, Note_on_c, 0, 59, 0
3, 49436, Note_on_c, 0, 68, 0
3, 49487, Note_on_c, 0, 67, 71
3, 49524, Note_on_c, 0, 67, 0
3, 49564, Note_on_c, 0, 50, 28
3, 49578, Note_on_c, 0, 65, 76
3, 49582, Note_on_c, 0, 50, 0
3, 49615, Note_on_c, 0, 65, 0
3, 49656, Note_on_c, 0, 63, 70
3, 49662, Note_on_c, 0, 53, 54
3, 49675, Note_on_c, 0, 43, 18
3, 49676, Note_on_c, 0, 53, 0
3, 49685, Note_on_c, 0, 43, 0
3, 49692, Note_on_c, 0, 63, 0
3, 49712, Note_on_c, 0, 65, 47
3, 49734, Note_on_c, 0, 63, 36
3, 49741, Note_on_c, 0, 65, 0
3, 49769, Note_on_c, 0, 63, 0
3, 49783, Note_on_c, 0, 53, 47
3, 49801, Note_on_c, 0, 53, 0
3, 49804, Note_on_c, 0, 50, 27
3, 49817, Note_on_c, 0, 50, 0
3, 49817, Note_on_c, 0, 62, 62
3, 49886, Note_on_c, 0, 62, 0
3, 49894, Note_on_c, 0, 59, 41
3, 49909, Note_on_c, 0, 59, 0
3, 49921, Note_on_c, 0, 48, 25
3, 49935, Note_on_c, 0, 48, 0
3, 49940, Note_on_c, 0, 60, 38
3, 50001, Note_on_c, 0, 60, 0
3, 50010, Note_on_c, 0, 62, 60
3, 50021, Note_on_c, 0, 48, 32
3, 50032, Note_on_c, 0, 48, 0
3, 50045, Note_on_c, 0, 62, 0
3, 50060, Note_on_c, 0, 63, 46
3, 50084, Note_on_c, 0, 63, 0
3, 50136, Note_on_c, 0, 67, 46
3, 50162, Note_on_c, 0, 67, 0
3, 50178, Note_on_c, 0, 71, 47
3, 50224, Note_on_c, 0, 71, 0
3, 50254, Note_on_c, 0, 74, 73
3, 50254, Note_on_c, 0, 67, 42
3, 50257, Note_on_c, 0, 63, 33
3, 50260, Note_on_c, 0, 62, 28
3, 50267, Note_on_c, 0, 67, 0
3, 50272, Note_on_c, 0, 62, 0
3, 50276, Note_on_c, 0, 74, 0
3, 50287, Note_on_c, 0, 63, 0
3, 50303, Note_on_c, 0, 79, 79
3, 50338, Note_on_c, 0, 79, 0
3, 50341, Note_on_c, 0, 74, 68
3, 50363, Note_on_c, 0, 74, 0
3, 50378, Note_on_c, 0, 67, 36
3, 50383, Note_on_c, 0, 77, 70
3, 50386, Note_on_c, 0, 63, 28
3, 50391, Note_on_c, 0, 67, 0
3, 50411, Note_on_c, 0, 63, 0
3, 50425, Note_on_c, 0, 77, 0
3, 50426, Note_on_c, 0, 74, 61
3, 50453, Note_on_c, 0, 74, 0
3, 50471, Note_on_c, 0, 75, 52
3, 50497, Note_on_c, 0, 67, 54
3, 50502, Note_on_c, 0, 71, 57
3, 50507, Note_on_c, 0, 75, 0
3, 50518, Note_on_c, 0, 67, 0
3, 50532, Note_on_c, 0, 71, 0
3, 50551, Note_on_c, 0, 74, 66
3, 50605, Note_on_c, 0, 74, 0
3, 50618, Note_on_c, 0, 67, 49
3, 50647, Note_on_c, 0, 67, 0
3, 50678, Note_on_c, 0, 67, 40
3, 50715, Note_on_c, 0, 67, 0
3, 50740, Note_on_c, 0, 67, 52
3, 50752, Note_on_c, 0, 63, 25
3, 50752, Note_on_c, 0, 62, 26
3, 50763, Note_on_c, 0, 62, 0
3, 50768, Note_on_c, 0, 67, 0
3, 50769, Note_on_c, 0, 63, 0
3, 50793, Note_on_c, 0, 67, 54
3, 50820, Note_on_c, 0, 67, 0
3, 50861, Note_on_c, 0, 65, 42
3, 50862, Note_on_c, 0, 67, 54
3, 50866, Note_on_c, 0, 60, 33
3, 50867, Note_on_c, 0, 61, 29
3, 50873, Note_on_c, 0, 67, 0
3, 50876, Note_on_c, 0, 65, 0
3, 50879, Note_on_c, 0, 60, 0
3, 50886, Note_on_c, 0, 61, 0
3, 51087, Note_on_c, 0, 65, 50
3, 51088, Note_on_c, 0, 61, 37
3, 51089, Note_on_c, 0, 60, 45
3, 51099, Note_on_c, 0, 65, 0
3, 51102, Note_on_c, 0, 60, 0
3, 51113, Note_on_c, 0, 61, 0
3, 51165, Note_on_c, 0, 89, 83
3, 51202, Note_on_c, 0, 89, 0
3, 51206, Note_on_c, 0, 84, 49
3, 51217, Note_on_c, 0, 65, 24
3, 51227, Note_on_c, 0, 65, 0
3, 51231, Note_on_c, 0, 84, 0
3, 51252, Note_on_c, 0, 87, 80
3, 51298, Note_on_c, 0, 87, 0
3, 51327, Note_on_c, 0, 61, 49
3, 51331, Note_on_c, 0, 64, 42
3, 51338, Note_on_c, 0, 55, 26
3, 51343, Note_on_c, 0, 64, 0
3, 51349, Note_on_c, 0, 55, 0
3, 51351, Note_on_c, 0, 61, 0
3, 51487, Note_on_c, 0, 85, 75
3, 51524, Note_on_c, 0, 85, 0
3, 51528, Note_on_c, 0, 81, 47
3, 51544, Note_on_c, 0, 81, 0
3, 51573, Note_on_c, 0, 61, 40
3, 51574, Note_on_c, 0, 64, 40
3, 51576, Note_on_c, 0, 84, 58
3, 51587, Note_on_c, 0, 64, 0
3, 51596, Note_on_c, 0, 84, 0
3, 51601, Note_on_c, 0, 61, 0
3, 51660, Note_on_c, 0, 82, 56
3, 51685, Note_on_c, 0, 60, 40
3, 51689, Note_on_c, 0, 82, 0
3, 51697, Note_on_c, 0, 79, 45
3, 51713, Note_on_c, 0, 79, 0
3, 51717, Note_on_c, 0, 60, 0
3, 51747, Note_on_c, 0, 80, 54
3, 51788, Note_on_c, 0, 80, 0
3, 51797, Note_on_c, 0, 63, 57
3, 51807, Note_on_c, 0, 58, 33
3, 51808, Note_on_c, 0, 53, 26
3, 51818, Note_on_c, 0, 63, 0
3, 51826, Note_on_c, 0, 53, 0
3, 51838, Note_on_c, 0, 58, 0
3, 51858, Note_on_c, 0, 79, 57
3, 51888, Note_on_c, 0, 79, 0
3, 51894, Note_on_c, 0, 75, 50
3, 51919, Note_on_c, 0, 75, 0
3, 51934, Note_on_c, 0, 77, 62
3, 51962, Note_on_c, 0, 77, 0
3, 52016, Note_on_c, 0, 75, 56
3, 52024, Note_on_c, 0, 65, 26
3, 52033, Note_on_c, 0, 65, 0
3, 52040, Note_on_c, 0, 75, 0
3, 52054, Note_on_c, 0, 72, 50
3, 52074, Note_on_c, 0, 72, 0
3, 52096, Note_on_c, 0, 72, 54
3, 52121, Note_on_c, 0, 72, 0
3, 52166, Note_on_c, 0, 63, 53
3, 52171, Note_on_c, 0, 58, 47
3, 52186, Note_on_c, 0, 63, 0
3, 52187, Note_on_c, 0, 58, 0
3, 52281, Note_on_c, 0, 64, 66
3, 52285, Note_on_c, 0, 59, 60
3, 52289, Note_on_c, 0, 53, 28
3, 52292, Note_on_c, 0, 64, 0
3, 52296, Note_on_c, 0, 59, 0
3, 52306, Note_on_c, 0, 53, 0
3, 52407, Note_on_c, 0, 79, 71
3, 52409, Note_on_c, 0, 67, 80
3, 52429, Note_on_c, 0, 67, 0
3, 52438, Note_on_c, 0, 79, 0
3, 52454, Note_on_c, 0, 75, 36
3, 52470, Note_on_c, 0, 75, 0
3, 52529, Note_on_c, 0, 67, 88
3, 52529, Note_on_c, 0, 79, 71
3, 52532, Note_on_c, 0, 63, 56
3, 52532, Note_on_c, 0, 59, 66
3, 52535, Note_on_c, 0, 78, 38
3, 52539, Note_on_c, 0, 53, 33
3, 52542, Note_on_c, 0, 63, 0
3, 52543, Note_on_c, 0, 59, 0
3, 52544, Note_on_c, 0, 78, 0
3, 52546, Note_on_c, 0, 67, 0
3, 52552, Note_on_c, 0, 53, 0
3, 52558, Note_on_c, 0, 79, 0
3, 52581, Note_on_c, 0, 79, 41
3, 52586, Note_on_c, 0, 67, 63
3, 52599, Note_on_c, 0, 67, 0
3, 52600, Note_on_c, 0, 79, 0
3, 52655, Note_on_c, 0, 75, 74
3, 52657, Note_on_c, 0, 53, 50
3, 52658, Note_on_c, 0, 67, 74
3, 52659, Note_on_c, 0, 59, 60
3, 52667, Note_on_c, 0, 67, 0
3, 52670, Note_on_c, 0, 59, 0
3, 52670, Note_on_c, 0, 53, 0
3, 52681, Note_on_c, 0, 75, 0
3, 52700, Note_on_c, 0, 53, 48
3, 52701, Note_on_c, 0, 59, 49
3, 52702, Note_on_c, 0, 63, 45
3, 52712, Note_on_c, 0, 53, 0
3, 52714, Note_on_c, 0, 59, 0
3, 52718, Note_on_c, 0, 63, 0
3, 52778, Note_on_c, 0, 66, 72
3, 52780, Note_on_c, 0, 56, 52
3, 52781, Note_on_c, 0, 75, 58
3, 52781, Note_on_c, 0, 68, 52
3, 52782, Note_on_c, 0, 63, 44
3, 52787, Note_on_c, 0, 61, 34
3, 52791, Note_on_c, 0, 68, 0
3, 52792, Note_on_c, 0, 56, 0
3, 52793, Note_on_c, 0, 63, 0
3, 52794, Note_on_c, 0, 66, 0
3, 52796, Note_on_c, 0, 61, 0
3, 52803, Note_on_c, 0, 75, 0
3, 52819, Note_on_c, 0, 65, 76
3, 52821, Note_on_c, 0, 70, 64
3, 52823, Note_on_c, 0, 77, 60
3, 52824, Note_on_c, 0, 82, 60
3, 52828, Note_on_c, 0, 55, 58
3, 52830, Note_on_c, 0, 62, 38
3, 52831, Note_on_c, 0, 60, 51
3, 52834, Note_on_c, 0, 58, 27
3, 52934, Control_c, 0, 64, 127
3, 52937, Note_on_c, 0, 77, 0
3, 52941, Note_on_c, 0, 70, 0
3, 52944, Note_on_c, 0, 82, 0
3, 52949, Note_on_c, 0, 65, 0
3, 52988, Note_on_c, 0, 55, 0
3, 52991, Note_on_c, 0, 60, 0
3, 52997, Note_on_c, 0, 58, 0
3, 52997, Note_on_c, 0, 62, 0
3, 53044, Control_c, 0, 64, 0
3, 53049, Note_on_c, 0, 79, 49
3, 53052, Note_on_c, 0, 67, 47
3, 53054, Note_on_c, 0, 74, 52
3, 53056, Note_on_c, 0, 62, 31
3, 53060, Note_on_c, 0, 60, 42
3, 53066, Note_on_c, 0, 55, 34
3, 53078, Control_c, 0, 64, 127
3, 53156, Note_on_c, 0, 67, 0
3, 53160, Note_on_c, 0, 55, 0
3, 53162, Control_c, 0, 64, 0
3, 53169, Note_on_c, 0, 60, 0
3, 53171, Note_on_c, 0, 62, 0
3, 53173, Note_on_c, 0, 74, 0
3, 53176, Control_c, 0, 64, 127
3, 53182, Note_on_c, 0, 79, 0
3, 53291, Control_c, 0, 64, 0
3, 53292, Note_on_c, 0, 85, 71
3, 53292, Note_on_c, 0, 58, 60
3, 53293, Note_on_c, 0, 67, 74
3, 53293, Note_on_c, 0, 63, 53
3, 53294, Note_on_c, 0, 73, 63
3, 53294, Note_on_c, 0, 80, 57
3, 53295, Note_on_c, 0, 62, 67
3, 53301, Note_on_c, 0, 86, 47
3, 53311, Note_on_c, 0, 86, 0
3, 53320, Note_on_c, 0, 80, 0
3, 53343, Note_on_c, 0, 85, 0
3, 53347, Note_on_c, 0, 58, 0
3, 53348, Note_on_c, 0, 67, 0
3, 53349, Note_on_c, 0, 73, 0
3, 53353, Note_on_c, 0, 62, 0
3, 53354, Note_on_c, 0, 63, 0
3, 53370, Note_on_c, 0, 86, 47
3, 53370, Note_on_c, 0, 67, 58
3, 53374, Note_on_c, 0, 63, 37
3, 53376, Note_on_c, 0, 74, 28
3, 53376, Note_on_c, 0, 62, 35
3, 53382, Note_on_c, 0, 86, 0
3, 53387, Note_on_c, 0, 74, 0
3, 53388, Note_on_c, 0, 62, 0
3, 53391, Note_on_c, 0, 67, 0
3, 53395, Note_on_c, 0, 63, 0
3, 53408, Note_on_c, 0, 58, 67
3, 53409, Note_on_c, 0, 67, 78
3, 53411, Note_on_c, 0, 63, 58
3, 53411, Note_on_c, 0, 62, 61
3, 53414, Note_on_c, 0, 91, 82
3, 53414, Note_on_c, 0, 77, 57
3, 53415, Note_on_c, 0, 89, 74
3, 53417, Note_on_c, 0, 79, 64
3, 53430, Control_c, 0, 64, 127
3, 53451, Note_on_c, 0, 79, 0
3, 53453, Note_on_c, 0, 91, 0
3, 53464, Note_on_c, 0, 89, 0
3, 53466, Note_on_c, 0, 77, 0
3, 53468, Note_on_c, 0, 58, 0
3, 53469, Note_on_c, 0, 67, 0
3, 53475, Note_on_c, 0, 63, 0
3, 53475, Note_on_c, 0, 62, 0
3, 53495, Note_on_c, 0, 74, 64
3, 53495, Note_on_c, 0, 67, 48
3, 53495, Note_on_c, 0, 62, 47
3, 53497, Note_on_c, 0, 63, 48
3, 53499, Note_on_c, 0, 58, 37
3, 53501, Note_on_c, 0, 85, 30
3, 53503, Control_c, 0, 64, 0
3, 53503, Note_on_c, 0, 86, 25
3, 53512, Note_on_c, 0, 86, 0
3, 53512, Note_on_c, 0, 74, 0
3, 53513, Note_on_c, 0, 67, 0
3, 53516, Note_on_c, 0, 85, 0
3, 53517, Note_on_c, 0, 62, 0
3, 53520, Note_on_c, 0, 58, 0
3, 53525, Note_on_c, 0, 63, 0
3, 53542, Note_on_c, 0, 75, 60
3, 53543, Note_on_c, 0, 58, 46
3, 53543, Note_on_c, 0, 67, 58
3, 53544, Note_on_c, 0, 87, 71
3, 53545, Note_on_c, 0, 62, 53
3, 53545, Note_on_c, 0, 63, 51
3, 53573, Control_c, 0, 64, 127
3, 53593, Note_on_c, 0, 87, 0
3, 53593, Note_on_c, 0, 67, 0
3, 53595, Note_on_c, 0, 75, 0
3, 53601, Control_c, 0, 64, 0
3, 53605, Note_on_c, 0, 58, 0
3, 53609, Note_on_c, 0, 62, 0
3, 53621, Note_on_c, 0, 58, 35
3, 53624, Note_on_c, 0, 72, 49
3, 53624, Note_on_c, 0, 84, 53
3, 53625, Note_on_c, 0, 67, 44
3, 53630, Note_on_c, 0, 62, 18
3, 53634, Note_on_c, 0, 84, 0
3, 53635, Note_on_c, 0, 72, 0
3, 53640, Note_on_c, 0, 67, 0
3, 53641, Note_on_c, 0, 62, 0
3, 53661, Note_on_c, 0, 58, 0
3, 53667, Note_on_c, 0, 63, 0
3, 53730, Note_on_c, 0, 67, 68
3, 53732, Note_on_c, 0, 62, 60
3, 53732, Note_on_c, 0, 63, 46
3, 53737, Note_on_c, 0, 57, 42
3, 53747, Note_on_c, 0, 67, 0
3, 53749, Note_on_c, 0, 57, 0
3, 53752, Note_on_c, 0, 62, 0
3, 53753, Note_on_c, 0, 63, 0
3, 53973, Note_on_c, 0, 67, 62
3, 53975, Note_on_c, 0, 62, 48
3, 53979, Note_on_c, 0, 63, 30
3, 53985, Note_on_c, 0, 67, 0
3, 53992, Note_on_c, 0, 63, 0
3, 53993, Note_on_c, 0, 62, 0
3, 54016, Note_on_c, 0, 97, 72
3, 54017, Note_on_c, 0, 94, 74
3, 54032, Note_on_c, 0, 94, 0
3, 54057, Note_on_c, 0, 97, 0
3, 54059, Note_on_c, 0, 95, 51
3, 54060, Note_on_c, 0, 98, 58
3, 54077, Note_on_c, 0, 95, 0
3, 54083, Note_on_c, 0, 98, 0
3, 54091, Note_on_c, 0, 91, 46
3, 54123, Note_on_c, 0, 94, 59
3, 54124, Note_on_c, 0, 90, 67
3, 54125, Note_on_c, 0, 91, 0
3, 54158, Note_on_c, 0, 90, 0
3, 54160, Note_on_c, 0, 94, 0
3, 54163, Note_on_c, 0, 91, 60
3, 54164, Note_on_c, 0, 95, 49
3, 54182, Note_on_c, 0, 95, 0
3, 54186, Note_on_c, 0, 91, 0
3, 54201, Note_on_c, 0, 86, 38
3, 54205, Note_on_c, 0, 88, 37
3, 54217, Note_on_c, 0, 88, 0
3, 54219, Note_on_c, 0, 63, 25
3, 54223, Note_on_c, 0, 86, 0
3, 54237, Note_on_c, 0, 85, 46
3, 54239, Note_on_c, 0, 63, 0
3, 54241, Note_on_c, 0, 90, 25
3, 54259, Note_on_c, 0, 85, 0
3, 54264, Note_on_c, 0, 90, 0
3, 54267, Note_on_c, 0, 91, 58
3, 54275, Note_on_c, 0, 86, 45
3, 54289, Note_on_c, 0, 91, 0
3, 54294, Note_on_c, 0, 86, 0
3, 54302, Note_on_c, 0, 83, 58
3, 54333, Note_on_c, 0, 82, 67
3, 54335, Note_on_c, 0, 83, 0
3, 54338, Note_on_c, 0, 85, 40
3, 54362, Note_on_c, 0, 85, 0
3, 54367, Note_on_c, 0, 82, 0
3, 54377, Note_on_c, 0, 86, 36
3, 54378, Note_on_c, 0, 83, 38
3, 54390, Note_on_c, 0, 86, 0
3, 54396, Note_on_c, 0, 83, 0
3, 54405, Note_on_c, 0, 79, 41
3, 54437, Note_on_c, 0, 78, 59
3, 54438, Note_on_c, 0, 79, 0
3, 54440, Note_on_c, 0, 82, 43
3, 54455, Note_on_c, 0, 63, 23
3, 54457, Note_on_c, 0, 78, 0
3, 54459, Note_on_c, 0, 82, 0
3, 54469, Note_on_c, 0, 79, 22
3, 54472, Note_on_c, 0, 63, 0
3, 54490, Note_on_c, 0, 79, 0
3, 54500, Note_on_c, 0, 76, 53
3, 54532, Note_on_c, 0, 73, 49
3, 54538, Note_on_c, 0, 76, 0
3, 54560, Note_on_c, 0, 73, 0
3, 54564, Note_on_c, 0, 77, 24
3, 54574, Note_on_c, 0, 74, 29
3, 54585, Note_on_c, 0, 74, 0
3, 54588, Note_on_c, 0, 77, 0
3, 54589, Note_on_c, 0, 67, 51
3, 54595, Note_on_c, 0, 63, 34
3, 54597, Note_on_c, 0, 71, 54
3, 54598, Note_on_c, 0, 62, 30
3, 54603, Note_on_c, 0, 67, 0
3, 54617, Note_on_c, 0, 62, 0
3, 54625, Note_on_c, 0, 63, 0
3, 54625, Note_on_c, 0, 70, 53
3, 54626, Note_on_c, 0, 71, 0
3, 54627, Note_on_c, 0, 73, 29
3, 54647, Note_on_c, 0, 73, 0
3, 54648, Note_on_c, 0, 74, 58
3, 54651, Note_on_c, 0, 70, 0
3, 54657, Note_on_c, 0, 71, 40
3, 54684, Note_on_c, 0, 74, 0
3, 54686, Note_on_c, 0, 71, 0
3, 54702, Note_on_c, 0, 67, 49
3, 54706, Note_on_c, 0, 63, 37
3, 54712, Note_on_c, 0, 56, 25
3, 54724, Note_on_c, 0, 56, 0
3, 54725, Note_on_c, 0, 67, 0
3, 54737, Note_on_c, 0, 63, 0
3, 54737, Note_on_c, 0, 72, 61
3, 54739, Note_on_c, 0, 68, 59
3, 54787, Note_on_c, 0, 68, 0
3, 54790, Note_on_c, 0, 72, 0
3, 54812, Note_on_c, 0, 72, 62
3, 54817, Note_on_c, 0, 68, 50
3, 54818, Note_on_c, 0, 67, 71
3, 54840, Note_on_c, 0, 67, 0
3, 54844, Note_on_c, 0, 68, 0
3, 54855, Note_on_c, 0, 72, 0
3, 54880, Note_on_c, 0, 72, 45
3, 54882, Note_on_c, 0, 67, 50
3, 54888, Note_on_c, 0, 68, 31
3, 54909, Note_on_c, 0, 67, 0
3, 54909, Note_on_c, 0, 72, 0
3, 54913, Note_on_c, 0, 68, 0
3, 54943, Note_on_c, 0, 63, 38
3, 54944, Note_on_c, 0, 67, 62
3, 54949, Note_on_c, 0, 70, 25
3, 54952, Note_on_c, 0, 71, 53
3, 54954, Note_on_c, 0, 60, 31
3, 54966, Note_on_c, 0, 71, 0
3, 54972, Note_on_c, 0, 60, 0
3, 54973, Note_on_c, 0, 67, 0
3, 54975, Note_on_c, 0, 63, 0
3, 54977, Note_on_c, 0, 70, 0
3, 55001, Note_on_c, 0, 70, 53
3, 55003, Note_on_c, 0, 65, 50
3, 55045, Note_on_c, 0, 70, 0
3, 55051, Note_on_c, 0, 65, 0
3, 55071, Note_on_c, 0, 54, 29
3, 55096, Note_on_c, 0, 68, 45
3, 55097, Note_on_c, 0, 64, 57
3, 55108, Note_on_c, 0, 54, 0
3, 55138, Note_on_c, 0, 64, 0
3, 55150, Note_on_c, 0, 68, 0
3, 55180, Note_on_c, 0, 67, 61
3, 55182, Note_on_c, 0, 62, 46
3, 55183, Note_on_c, 0, 64, 28
3, 55188, Note_on_c, 0, 56, 46
3, 55199, Note_on_c, 0, 64, 0
3, 55283, Note_on_c, 0, 46, 68
3, 55297, Note_on_c, 0, 56, 0
3, 55320, Note_on_c, 0, 62, 0
3, 55325, Note_on_c, 0, 67, 0
3, 55328, Control_c, 0, 64, 127
3, 55332, Note_on_c, 0, 46, 0
3, 55414, Note_on_c, 0, 67, 63
3, 55415, Control_c, 0, 64, 0
3, 55416, Note_on_c, 0, 59, 73
3, 55416, Note_on_c, 0, 62, 68
3, 55416, Note_on_c, 0, 64, 66
3, 55423, Note_on_c, 0, 58, 43
3, 55425, Note_on_c, 0, 56, 29
3, 55427, Note_on_c, 0, 57, 66
3, 55436, Note_on_c, 0, 57, 0
3, 55463, Control_c, 0, 64, 127
3, 55486, Note_on_c, 0, 59, 0
3, 55486, Note_on_c, 0, 62, 0
3, 55486, Note_on_c, 0, 64, 0
3, 55500, Note_on_c, 0, 67, 0
3, 55501, Note_on_c, 0, 58, 0
3, 55547, Control_c, 0, 64, 0
3, 55552, Note_on_c, 0, 58, 56
3, 55558, Note_on_c, 0, 56, 0
3, 55567, Note_on_c, 0, 70, 65
3, 55570, Note_on_c, 0, 65, 61
3, 55571, Note_on_c, 0, 67, 49
3, 55574, Note_on_c, 0, 60, 35
3, 55576, Note_on_c, 0, 62, 40
3, 55578, Control_c, 0, 64, 127
3, 55583, Note_on_c, 0, 67, 0
3, 55593, Note_on_c, 0, 65, 0
3, 55596, Note_on_c, 0, 51, 35
3, 55597, Note_on_c, 0, 58, 0
3, 55598, Note_on_c, 0, 70, 0
3, 55605, Note_on_c, 0, 62, 0
3, 55610, Note_on_c, 0, 51, 0
3, 55612, Note_on_c, 0, 60, 0
3, 55648, Note_on_c, 0, 54, 30
3, 55662, Control_c, 0, 64, 0
3, 55666, Note_on_c, 0, 65, 66
3, 55667, Note_on_c, 0, 60, 64
3, 55670, Note_on_c, 0, 62, 69
3, 55672, Note_on_c, 0, 55, 67
3, 55687, Note_on_c, 0, 54, 0
3, 55808, Control_c, 0, 64, 127
3, 55936, Note_on_c, 0, 62, 0
3, 55950, Note_on_c, 0, 65, 0
3, 55992, Note_on_c, 0, 60, 0
3, 56030, Control_c, 0, 64, 0
3, 56040, Note_on_c, 0, 55, 0
3, 56046, Note_on_c, 0, 68, 60
3, 56048, Note_on_c, 0, 56, 75
3, 56050, Note_on_c, 0, 63, 64
3, 56050, Note_on_c, 0, 59, 79
3, 56052, Note_on_c, 0, 65, 67
3, 56105, Note_on_c, 0, 59, 0
3, 56116, Note_on_c, 0, 65, 0
3, 56122, Note_on_c, 0, 63, 0
3, 56128, Note_on_c, 0, 68, 0
3, 56141, Note_on_c, 0, 56, 0
3, 56141, Note_on_c, 0, 58, 64
3, 56142, Note_on_c, 0, 70, 57
3, 56144, Note_on_c, 0, 63, 56
3, 56147, Note_on_c, 0, 60, 59
3, 56163, Note_on_c, 0, 70, 0
3, 56163, Note_on_c, 0, 58, 0
3, 56168, Note_on_c, 0, 63, 0
3, 56171, Note_on_c, 0, 60, 0
3, 56224, Note_on_c, 0, 58, 62
3, 56226, Note_on_c, 0, 67, 55
3, 56228, Note_on_c, 0, 64, 52
3, 56228, Note_on_c, 0, 55, 62
3, 56228, Note_on_c, 0, 62, 57
3, 56255, Control_c, 0, 64, 127
3, 56272, Control_c, 0, 64, 0
3, 56295, Note_on_c, 0, 55, 0
3, 56301, Note_on_c, 0, 64, 0
3, 56301, Note_on_c, 0, 58, 0
3, 56302, Note_on_c, 0, 67, 0
3, 56307, Note_on_c, 0, 62, 0
3, 56315, Note_on_c, 0, 64, 22
3, 56320, Note_on_c, 0, 53, 53
3, 56322, Control_c, 0, 64, 127
3, 56341, Note_on_c, 0, 62, 18
3, 56364, Note_on_c, 0, 62, 0
3, 56375, Note_on_c, 0, 64, 0
3, 56381, Control_c, 0, 64, 0
3, 56395, Note_on_c, 0, 58, 53
3, 56397, Note_on_c, 0, 55, 66
3, 56398, Note_on_c, 0, 67, 53
3, 56398, Note_on_c, 0, 62, 51
3, 56400, Note_on_c, 0, 64, 61
3, 56402, Note_on_c, 0, 53, 0
3, 56438, Control_c, 0, 64, 127
3, 56503, Note_on_c, 0, 67, 0
3, 56507, Note_on_c, 0, 55, 0
3, 56508, Control_c, 0, 64, 0
3, 56512, Note_on_c, 0, 62, 0
3, 56514, Note_on_c, 0, 64, 0
3, 56519, Control_c, 0, 64, 127
3, 56527, Note_on_c, 0, 51, 56
3, 56536, Note_on_c, 0, 58, 0
3, 56578, Control_c, 0, 64, 0
3, 56597, Note_on_c, 0, 51, 0
3, 56601, Note_on_c, 0, 65, 57
3, 56602, Note_on_c, 0, 56, 57
3, 56603, Note_on_c, 0, 62, 54
3, 56606, Note_on_c, 0, 60, 59
3, 56606, Note_on_c, 0, 50, 59
3, 56656, Control_c, 0, 64, 127
3, 56687, Note_on_c, 0, 56, 0
3, 56696, Control_c, 0, 64, 0
3, 56718, Note_on_c, 0, 60, 0
3, 56721, Note_on_c, 0, 62, 0
3, 56721, Note_on_c, 0, 38, 68
3, 56726, Note_on_c, 0, 65, 0
3, 56743, Note_on_c, 0, 38, 0
3, 56744, Control_c, 0, 64, 127
3, 56746, Note_on_c, 0, 50, 0
3, 56845, Note_on_c, 0, 50, 76
3, 56846, Note_on_c, 0, 75, 60
3, 56846, Note_on_c, 0, 60, 73
3, 56847, Note_on_c, 0, 56, 62
3, 56847, Note_on_c, 0, 72, 70
3, 56848, Note_on_c, 0, 79, 67
3, 56848, Note_on_c, 0, 67, 82
3, 56849, Control_c, 0, 64, 0
3, 56853, Note_on_c, 0, 77, 52
3, 56893, Control_c, 0, 64, 127
3, 56941, Note_on_c, 0, 50, 0
3, 56948, Note_on_c, 0, 79, 0
3, 56949, Note_on_c, 0, 67, 0
3, 56953, Note_on_c, 0, 56, 0
3, 56954, Note_on_c, 0, 77, 0
3, 56961, Note_on_c, 0, 60, 0
3, 56967, Note_on_c, 0, 72, 0
3, 56976, Note_on_c, 0, 75, 0
3, 57000, Control_c, 0, 64, 0
3, 57004, Note_on_c, 0, 54, 72
3, 57005, Note_on_c, 0, 65, 72
3, 57006, Note_on_c, 0, 60, 61
3, 57007, Note_on_c, 0, 80, 64
3, 57008, Note_on_c, 0, 68, 71
3, 57008, Note_on_c, 0, 75, 57
3, 57009, Note_on_c, 0, 72, 73
3, 57110, Note_on_c, 0, 72, 0
3, 57116, Control_c, 0, 64, 127
3, 57120, Note_on_c, 0, 68, 0
3, 57122, Note_on_c, 0, 75, 0
3, 57135, Note_on_c, 0, 80, 0
3, 57136, Note_on_c, 0, 60, 0
3, 57141, Note_on_c, 0, 65, 0
3, 57171, Note_on_c, 0, 54, 0
3, 57201, Note_on_c, 0, 75, 61
3, 57202, Note_on_c, 0, 82, 60
3, 57203, Note_on_c, 0, 64, 57
3, 57205, Note_on_c, 0, 53, 55
3, 57205, Note_on_c, 0, 78, 40
3, 57206, Note_on_c, 0, 70, 46
3, 57210, Note_on_c, 0, 59, 57
3, 57212, Control_c, 0, 64, 0
3, 57265, Control_c, 0, 64, 127
3, 57312, Note_on_c, 0, 53, 0
3, 57320, Note_on_c, 0, 64, 0
3, 57322, Note_on_c, 0, 78, 0
3, 57330, Note_on_c, 0, 75, 0
3, 57333, Note_on_c, 0, 82, 0
3, 57334, Note_on_c, 0, 70, 0
3, 57342, Note_on_c, 0, 59, 0
3, 57374, Control_c, 0, 64, 0
3, 57377, Note_on_c, 0, 53, 55
3, 57377, Note_on_c, 0, 63, 51
3, 57379, Note_on_c, 0, 83, 53
3, 57382, Note_on_c, 0, 71, 49
3, 57382, Note_on_c, 0, 76, 49
3, 57383, Note_on_c, 0, 79, 36
3, 57383, Note_on_c, 0, 59, 51
3, 57465, Note_on_c, 0, 59, 0
3, 57465, Control_c, 0, 64, 127
3, 57470, Note_on_c, 0, 79, 0
3, 57472, Note_on_c, 0, 71, 0
3, 57472, Note_on_c, 0, 76, 0
3, 57481, Note_on_c, 0, 63, 0
3, 57482, Note_on_c, 0, 53, 0
3, 57486, Note_on_c, 0, 83, 0
3, 57566, Control_c, 0, 64, 0
3, 57566, Note_on_c, 0, 51, 43
3, 57567, Note_on_c, 0, 84, 64
3, 57567, Note_on_c, 0, 62, 43
3, 57571, Note_on_c, 0, 72, 39
3, 57572, Note_on_c, 0, 79, 44
3, 57573, Note_on_c, 0, 57, 45
3, 57620, Control_c, 0, 64, 127
3, 57670, Note_on_c, 0, 72, 0
3, 57672, Note_on_c, 0, 79, 0
3, 57674, Note_on_c, 0, 84, 0
3, 57688, Note_on_c, 0, 57, 0
3, 57689, Note_on_c, 0, 62, 0
3, 57698, Note_on_c, 0, 51, 0
3, 57733, Note_on_c, 0, 51, 50
3, 57734, Note_on_c, 0, 86, 62
3, 57735, Control_c, 0, 64, 0
3, 57736, Note_on_c, 0, 79, 50
3, 57737, Note_on_c, 0, 62, 46
3, 57740, Note_on_c, 0, 74, 50
3, 57740, Note_on_c, 0, 57, 53
3, 57845, Control_c, 0, 64, 127
3, 57849, Note_on_c, 0, 74, 0
3, 57853, Note_on_c, 0, 51, 0
3, 57856, Note_on_c, 0, 86, 0
3, 57872, Note_on_c, 0, 79, 0
3, 57876, Note_on_c, 0, 62, 0
3, 57891, Note_on_c, 0, 57, 0
3, 57933, Note_on_c, 0, 87, 69
3, 57934, Note_on_c, 0, 79, 57
3, 57935, Note_on_c, 0, 75, 55
3, 57935, Note_on_c, 0, 51, 49
3, 57939, Note_on_c, 0, 62, 42
3, 57939, Note_on_c, 0, 57, 55
3, 57951, Control_c, 0, 64, 0
3, 57954, Note_on_c, 0, 75, 0
3, 57955, Note_on_c, 0, 62, 0
3, 57956, Note_on_c, 0, 79, 0
3, 57959, Note_on_c, 0, 57, 0
3, 57966, Note_on_c, 0, 87, 0
3, 57967, Note_on_c, 0, 51, 0
3, 58288, Note_on_c, 0, 89, 84
3, 58288, Note_on_c, 0, 51, 72
3, 58289, Note_on_c, 0, 77, 81
3, 58289, Note_on_c, 0, 57, 68
3, 58290, Note_on_c, 0, 62, 75
3, 58290, Note_on_c, 0, 84, 79
3, 58313, Note_on_c, 0, 84, 0
3, 58315, Note_on_c, 0, 62, 0
3, 58321, Note_on_c, 0, 89, 0
3, 58323, Note_on_c, 0, 57, 0
3, 58325, Note_on_c, 0, 51, 0
3, 58327, Note_on_c, 0, 77, 0
3, 58363, Note_on_c, 0, 86, 64
3, 58363, Note_on_c, 0, 74, 60
3, 58365, Note_on_c, 0, 80, 57
3, 58370, Note_on_c, 0, 51, 62
3, 58370, Note_on_c, 0, 62, 65
3, 58373, Note_on_c, 0, 57, 60
3, 58409, Note_on_c, 0, 80, 0
3, 58412, Note_on_c, 0, 62, 0
3, 58417, Note_on_c, 0, 81, 30
3, 58423, Note_on_c, 0, 86, 0
3, 58423, Note_on_c, 0, 74, 0
3, 58429, Note_on_c, 0, 57, 0
3, 58430, Note_on_c, 0, 81, 0
3, 58432, Note_on_c, 0, 51, 0
3, 58452, Note_on_c, 0, 51, 25
3, 58456, Note_on_c, 0, 62, 59
3, 58457, Control_c, 0, 64, 127
3, 58458, Note_on_c, 0, 84, 59
3, 58459, Note_on_c, 0, 57, 36
3, 58460, Note_on_c, 0, 72, 53
3, 58469, Note_on_c, 0, 51, 0
3, 58473, Note_on_c, 0, 57, 0
3, 58474, Note_on_c, 0, 72, 0
3, 58484, Note_on_c, 0, 84, 0
3, 58484, Note_on_c, 0, 62, 0
3, 58499, Control_c, 0, 64, 0
3, 58769, Note_on_c, 0, 56, 75
3, 58770, Note_on_c, 0, 89, 81
3, 58771, Note_on_c, 0, 61, 64
3, 58771, Note_on_c, 0, 65, 79
3, 58772, Note_on_c, 0, 77, 80
3, 58773, Note_on_c, 0, 60, 63
3, 58774, Note_on_c, 0, 84, 73
3, 58783, Note_on_c, 0, 60, 0
3, 58791, Note_on_c, 0, 65, 0
3, 58795, Note_on_c, 0, 77, 0
3, 58795, Note_on_c, 0, 61, 0
3, 58795, Note_on_c, 0, 84, 0
3, 58799, Note_on_c, 0, 89, 0
3, 58800, Note_on_c, 0, 56, 0
3, 58852, Note_on_c, 0, 73, 50
3, 58853, Note_on_c, 0, 85, 71
3, 58854, Note_on_c, 0, 80, 55
3, 58861, Note_on_c, 0, 61, 64
3, 58861, Note_on_c, 0, 56, 64
3, 58863, Note_on_c, 0, 65, 58
3, 58869, Note_on_c, 0, 60, 48
3, 58909, Note_on_c, 0, 73, 0
3, 58910, Note_on_c, 0, 85, 0
3, 58911, Note_on_c, 0, 65, 0
3, 58914, Note_on_c, 0, 60, 0
3, 58915, Note_on_c, 0, 56, 0
3, 58921, Note_on_c, 0, 80, 0
3, 58925, Note_on_c, 0, 61, 0
3, 58935, Note_on_c, 0, 87, 74
3, 58936, Note_on_c, 0, 75, 56
3, 58941, Note_on_c, 0, 65, 56
3, 58942, Note_on_c, 0, 61, 54
3, 58944, Note_on_c, 0, 56, 37
3, 58950, Note_on_c, 0, 75, 0
3, 58956, Note_on_c, 0, 65, 0
3, 58960, Note_on_c, 0, 87, 0
3, 58967, Note_on_c, 0, 61, 0
3, 58974, Note_on_c, 0, 56, 0
3, 59017, Note_on_c, 0, 78, 38
3, 59019, Note_on_c, 0, 72, 55
3, 59021, Note_on_c, 0, 84, 56
3, 59025, Note_on_c, 0, 61, 48
3, 59030, Note_on_c, 0, 72, 0
3, 59032, Note_on_c, 0, 84, 0
3, 59034, Note_on_c, 0, 78, 0
3, 59034, Note_on_c, 0, 61, 0
3, 59133, Note_on_c, 0, 61, 69
3, 59135, Note_on_c, 0, 64, 69
3, 59135, Note_on_c, 0, 70, 68
3, 59136, Note_on_c, 0, 82, 50
3, 59137, Note_on_c, 0, 55, 66
3, 59140, Note_on_c, 0, 75, 35
3, 59144, Note_on_c, 0, 64, 0
3, 59145, Note_on_c, 0, 70, 0
3, 59146, Note_on_c, 0, 55, 0
3, 59149, Note_on_c, 0, 82, 0
3, 59150, Note_on_c, 0, 75, 0
3, 59153, Note_on_c, 0, 61, 0
3, 59252, Note_on_c, 0, 73, 52
3, 59253, Note_on_c, 0, 81, 70
3, 59254, Note_on_c, 0, 61, 59
3, 59255, Note_on_c, 0, 69, 72
3, 59256, Note_on_c, 0, 76, 55
3, 59257, Note_on_c, 0, 64, 54
3, 59258, Note_on_c, 0, 55, 63
3, 59291, Note_on_c, 0, 76, 0
3, 59299, Note_on_c, 0, 73, 0
3, 59304, Note_on_c, 0, 69, 0
3, 59317, Note_on_c, 0, 81, 0
3, 59317, Note_on_c, 0, 76, 32
3, 59356, Note_on_c, 0, 76, 0
3, 59383, Note_on_c, 0, 73, 53
3, 59406, Note_on_c, 0, 64, 0
3, 59422, Note_on_c, 0, 55, 0
3, 59422, Note_on_c, 0, 73, 0
3, 59443, Note_on_c, 0, 69, 35
3, 59451, Note_on_c, 0, 61, 0
3, 59491, Note_on_c, 0, 69, 0
3, 59501, Note_on_c, 0, 68, 31
3, 59512, Note_on_c, 0, 60, 35
3, 59525, Note_on_c, 0, 68, 0
3, 59528, Note_on_c, 0, 58, 19
3, 59548, Note_on_c, 0, 67, 37
3, 59551, Note_on_c, 0, 60, 0
3, 59592, Note_on_c, 0, 60, 12
3, 59605, Note_on_c, 0, 58, 0
3, 59623, Note_on_c, 0, 67, 0
3, 59626, Note_on_c, 0, 60, 0
3, 59642, Note_on_c, 0, 67, 22
3, 59739, Note_on_c, 0, 68, 50
3, 59745, Note_on_c, 0, 63, 32
3, 59751, Note_on_c, 0, 67, 0
3, 59756, Note_on_c, 0, 63, 0
3, 59758, Note_on_c, 0, 69, 47
3, 59762, Note_on_c, 0, 60, 17
3, 59767, Note_on_c, 0, 58, 19
3, 59769, Note_on_c, 0, 68, 0
3, 59770, Note_on_c, 0, 69, 0
3, 59780, Note_on_c, 0, 70, 60
3, 59782, Note_on_c, 0, 60, 0
3, 59801, Note_on_c, 0, 58, 0
3, 59825, Note_on_c, 0, 70, 0
3, 59861, Note_on_c, 0, 67, 74
3, 59869, Note_on_c, 0, 58, 32
3, 59884, Note_on_c, 0, 67, 0
3, 59894, Note_on_c, 0, 58, 0
3, 59922, Note_on_c, 0, 63, 25
3, 59978, Note_on_c, 0, 59, 51
3, 59994, Note_on_c, 0, 63, 0
3, 59998, Note_on_c, 0, 59, 0
3, 60019, Note_on_c, 0, 67, 61
3, 60020, Note_on_c, 0, 63, 45
3, 60103, Note_on_c, 0, 56, 20
3, 60108, Note_on_c, 0, 67, 0
3, 60110, Note_on_c, 0, 63, 0
3, 60127, Note_on_c, 0, 56, 0
3, 60128, Note_on_c, 0, 62, 36
3, 60133, Note_on_c, 0, 65, 42
3, 60192, Note_on_c, 0, 62, 0
3, 60216, Note_on_c, 0, 56, 25
3, 60236, Note_on_c, 0, 65, 0
3, 60248, Note_on_c, 0, 63, 33
3, 60252, Note_on_c, 0, 56, 0
3, 60255, Note_on_c, 0, 60, 26
3, 60285, Note_on_c, 0, 60, 0
3, 60327, Note_on_c, 0, 65, 55
3, 60328, Note_on_c, 0, 60, 35
3, 60334, Note_on_c, 0, 53, 44
3, 60340, Note_on_c, 0, 60, 0
3, 60348, Note_on_c, 0, 63, 0
3, 60348, Note_on_c, 0, 65, 0
3, 60413, Note_on_c, 0, 54, 46
3, 60421, Note_on_c, 0, 53, 0
3, 60441, Note_on_c, 0, 70, 59
3, 60448, Note_on_c, 0, 65, 53
3, 60452, Note_on_c, 0, 55, 51
3, 60458, Note_on_c, 0, 54, 0
3, 60459, Note_on_c, 0, 65, 0
3, 60468, Note_on_c, 0, 70, 0
3, 60558, Note_on_c, 0, 55, 0
3, 60571, Note_on_c, 0, 67, 61
3, 60573, Note_on_c, 0, 62, 59
3, 60573, Note_on_c, 0, 58, 50
3, 60696, Note_on_c, 0, 58, 0
3, 60704, Note_on_c, 0, 67, 0
3, 60711, Note_on_c, 0, 62, 0
3, 60737, Note_on_c, 0, 58, 31
3, 60737, Note_on_c, 0, 65, 52
3, 60738, Note_on_c, 0, 62, 27
3, 60788, Note_on_c, 0, 58, 0
3, 60789, Note_on_c, 0, 62, 0
3, 60814, Note_on_c, 0, 65, 0
3, 60829, Note_on_c, 0, 50, 24
3, 60842, Note_on_c, 0, 50, 0
3, 60852, Note_on_c, 0, 63, 48
3, 60856, Note_on_c, 0, 58, 31
3, 60932, Note_on_c, 0, 58, 0
3, 60948, Note_on_c, 0, 63, 0
3, 61016, Control_c, 0, 64, 127
3, 61050, Control_c, 0, 64, 0
3, 61052, Note_on_c, 0, 63, 69
3, 61053, Note_on_c, 0, 67, 69
3, 61054, Note_on_c, 0, 74, 60
3, 61063, Note_on_c, 0, 62, 38
3, 61074, Note_on_c, 0, 63, 0
3, 61076, Note_on_c, 0, 62, 0
3, 61081, Note_on_c, 0, 67, 0
3, 61085, Note_on_c, 0, 74, 0
3, 61105, Note_on_c, 0, 60, 22
3, 61167, Note_on_c, 0, 60, 0
3, 61180, Note_on_c, 0, 63, 36
3, 61181, Note_on_c, 0, 67, 39
3, 61190, Note_on_c, 0, 63, 0
3, 61194, Note_on_c, 0, 67, 0
3, 61233, Note_on_c, 0, 54, 50
3, 61235, Note_on_c, 0, 77, 58
3, 61237, Note_on_c, 0, 60, 47
3, 61239, Note_on_c, 0, 73, 30
3, 61240, Note_on_c, 0, 66, 51
3, 61267, Note_on_c, 0, 73, 0
3, 61272, Control_c, 0, 64, 127
3, 61291, Control_c, 0, 64, 0
3, 61298, Note_on_c, 0, 60, 0
3, 61305, Note_on_c, 0, 66, 0
3, 61305, Note_on_c, 0, 77, 0
3, 61307, Note_on_c, 0, 54, 0
3, 61334, Note_on_c, 0, 54, 37
3, 61334, Note_on_c, 0, 75, 59
3, 61335, Note_on_c, 0, 66, 58
3, 61338, Note_on_c, 0, 60, 46
3, 61339, Control_c, 0, 64, 127
3, 61350, Note_on_c, 0, 70, 25
3, 61353, Note_on_c, 0, 60, 0
3, 61364, Note_on_c, 0, 54, 0
3, 61372, Note_on_c, 0, 70, 0
3, 61397, Note_on_c, 0, 75, 0
3, 61402, Note_on_c, 0, 66, 0
3, 61418, Control_c, 0, 64, 0
3, 61449, Note_on_c, 0, 74, 50
3, 61450, Note_on_c, 0, 55, 39
3, 61451, Note_on_c, 0, 62, 40
3, 61453, Note_on_c, 0, 70, 42
3, 61454, Note_on_c, 0, 65, 37
3, 61458, Note_on_c, 0, 58, 33
3, 61555, Control_c, 0, 64, 127
3, 61570, Note_on_c, 0, 55, 0
3, 61578, Note_on_c, 0, 74, 0
3, 61588, Note_on_c, 0, 62, 0
3, 61590, Note_on_c, 0, 58, 0
3, 61592, Note_on_c, 0, 65, 0
3, 61610, Note_on_c, 0, 70, 0
3, 61659, Control_c, 0, 64, 0
3, 61685, Note_on_c, 0, 54, 44
3, 61686, Note_on_c, 0, 70, 59
3, 61688, Note_on_c, 0, 65, 51
3, 61692, Note_on_c, 0, 60, 27
3, 61696, Control_c, 0, 64, 127
3, 61723, Note_on_c, 0, 65, 0
3, 61739, Note_on_c, 0, 60, 0
3, 61740, Note_on_c, 0, 54, 0
3, 61744, Note_on_c, 0, 70, 0
3, 61763, Note_on_c, 0, 74, 64
3, 61765, Note_on_c, 0, 54, 31
3, 61773, Note_on_c, 0, 60, 38
3, 61780, Control_c, 0, 64, 0
3, 61788, Note_on_c, 0, 54, 0
3, 61796, Note_on_c, 0, 74, 0
3, 61797, Note_on_c, 0, 60, 0
3, 61800, Control_c, 0, 64, 127
3, 61805, Note_on_c, 0, 54, 42
3, 61809, Note_on_c, 0, 77, 50
3, 61827, Note_on_c, 0, 77, 0
3, 61858, Note_on_c, 0, 54, 0
3, 61887, Control_c, 0, 64, 0
3, 61891, Note_on_c, 0, 58, 76
3, 61891, Note_on_c, 0, 62, 85
3, 61891, Note_on_c, 0, 53, 71
3, 61892, Note_on_c, 0, 55, 75
3, 61986, Note_on_c, 0, 62, 0
3, 61989, Note_on_c, 0, 53, 0
3, 61991, Note_on_c, 0, 55, 0
3, 61996, Note_on_c, 0, 58, 0
3, 62012, Note_on_c, 0, 58, 77
3, 62012, Note_on_c, 0, 62, 76
3, 62013, Note_on_c, 0, 53, 71
3, 62014, Note_on_c, 0, 96, 85
3, 62014, Note_on_c, 0, 55, 68
3, 62015, Note_on_c, 0, 91, 83
3, 62015, Note_on_c, 0, 84, 88
3, 62047, Control_c, 0, 64, 127
3, 62048, Note_on_c, 0, 84, 0
3, 62049, Note_on_c, 0, 62, 0
3, 62052, Note_on_c, 0, 96, 0
3, 62053, Note_on_c, 0, 91, 0
3, 62055, Note_on_c, 0, 55, 0
3, 62057, Note_on_c, 0, 53, 0
3, 62063, Note_on_c, 0, 58, 0
3, 62092, Control_c, 0, 64, 0
3, 62133, Note_on_c, 0, 58, 77
3, 62133, Note_on_c, 0, 63, 85
3, 62133, Note_on_c, 0, 82, 78
3, 62134, Note_on_c, 0, 90, 74
3, 62135, Note_on_c, 0, 94, 67
3, 62135, Note_on_c, 0, 52, 77
3, 62142, Note_on_c, 0, 95, 55
3, 62152, Note_on_c, 0, 95, 0
3, 62174, Control_c, 0, 64, 127
3, 62188, Note_on_c, 0, 82, 0
3, 62197, Note_on_c, 0, 94, 0
3, 62198, Note_on_c, 0, 52, 0
3, 62200, Note_on_c, 0, 63, 0
3, 62201, Note_on_c, 0, 90, 0
3, 62203, Note_on_c, 0, 58, 0
3, 62244, Control_c, 0, 64, 0
3, 62260, Note_on_c, 0, 52, 80
3, 62261, Note_on_c, 0, 85, 91
3, 62261, Note_on_c, 0, 97, 84
3, 62262, Note_on_c, 0, 58, 71
3, 62263, Note_on_c, 0, 63, 76
3, 62265, Note_on_c, 0, 90, 64
3, 62270, Note_on_c, 0, 62, 55
3, 62280, Note_on_c, 0, 62, 0
3, 62309, Control_c, 0, 64, 127
3, 62343, Note_on_c, 0, 97, 0
3, 62345, Note_on_c, 0, 90, 0
3, 62350, Note_on_c, 0, 52, 0
3, 62358, Note_on_c, 0, 85, 0
3, 62364, Note_on_c, 0, 58, 0
3, 62378, Note_on_c, 0, 63, 0
3, 62407, Control_c, 0, 64, 0
3, 62414, Note_on_c, 0, 63, 59
3, 62416, Note_on_c, 0, 53, 54
3, 62418, Note_on_c, 0, 94, 63
3, 62420, Note_on_c, 0, 60, 59
3, 62423, Note_on_c, 0, 82, 55
3, 62425, Note_on_c, 0, 56, 45
3, 62425, Note_on_c, 0, 87, 53
3, 62428, Note_on_c, 0, 91, 39
3, 62439, Note_on_c, 0, 91, 0
3, 62445, Note_on_c, 0, 87, 0
3, 62452, Note_on_c, 0, 63, 0
3, 62453, Note_on_c, 0, 82, 0
3, 62453, Note_on_c, 0, 60, 0
3, 62453, Note_on_c, 0, 94, 0
3, 62465, Note_on_c, 0, 53, 0
3, 62466, Note_on_c, 0, 56, 0
3, 62532, Note_on_c, 0, 87, 59
3, 62532, Note_on_c, 0, 91, 62
3, 62533, Note_on_c, 0, 63, 44
3, 62537, Note_on_c, 0, 53, 25
3, 62538, Note_on_c, 0, 79, 30
3, 62539, Note_on_c, 0, 60, 40
3, 62543, Note_on_c, 0, 56, 26
3, 62552, Note_on_c, 0, 60, 0
3, 62552, Note_on_c, 0, 53, 0
3, 62562, Note_on_c, 0, 79, 0
3, 62563, Note_on_c, 0, 56, 0
3, 62565, Note_on_c, 0, 91, 0
3, 62568, Note_on_c, 0, 63, 0
3, 62579, Note_on_c, 0, 87, 0
3, 62647, Note_on_c, 0, 67, 52
3, 62650, Note_on_c, 0, 89, 54
3, 62651, Note_on_c, 0, 62, 46
3, 62651, Note_on_c, 0, 56, 36
3, 62654, Note_on_c, 0, 77, 48
3, 62654, Note_on_c, 0, 84, 53
3, 62655, Control_c, 0, 64, 127
3, 62671, Note_on_c, 0, 84, 0
3, 62674, Note_on_c, 0, 89, 0
3, 62678, Note_on_c, 0, 67, 0
3, 62685, Note_on_c, 0, 62, 0
3, 62686, Note_on_c, 0, 77, 0
3, 62698, Note_on_c, 0, 56, 0
3, 62737, Control_c, 0, 64, 0
3, 62768, Note_on_c, 0, 66, 46
3, 62769, Note_on_c, 0, 56, 37
3, 62769, Note_on_c, 0, 74, 56
3, 62771, Note_on_c, 0, 86, 56
3, 62772, Note_on_c, 0, 63, 37
3, 62773, Note_on_c, 0, 82, 35
3, 62777, Note_on_c, 0, 61, 33
3, 62787, Control_c, 0, 64, 127
3, 62799, Note_on_c, 0, 74, 0
3, 62806, Note_on_c, 0, 86, 0
3, 62812, Note_on_c, 0, 66, 0
3, 62823, Note_on_c, 0, 56, 0
3, 62828, Note_on_c, 0, 82, 0
3, 62829, Note_on_c, 0, 61, 0
3, 62830, Note_on_c, 0, 63, 0
3, 62855, Control_c, 0, 64, 0
3, 62858, Note_on_c, 0, 87, 69
3, 62859, Note_on_c, 0, 65, 51
3, 62859, Note_on_c, 0, 75, 59
3, 62860, Note_on_c, 0, 82, 56
3, 62861, Note_on_c, 0, 62, 35
3, 62868, Note_on_c, 0, 60, 33
3, 62876, Note_on_c, 0, 65, 0
3, 62878, Note_on_c, 0, 55, 22
3, 62880, Note_on_c, 0, 60, 0
3, 62882, Note_on_c, 0, 62, 0
3, 62882, Note_on_c, 0, 75, 0
3, 62887, Note_on_c, 0, 87, 0
3, 62893, Note_on_c, 0, 55, 0
3, 62893, Note_on_c, 0, 82, 0
3, 62897, Control_c, 0, 64, 127
3, 62971, Note_on_c, 0, 56, 85
3, 62973, Note_on_c, 0, 46, 77
3, 62975, Control_c, 0, 64, 0
3, 63043, Control_c, 0, 64, 127
3, 63068, Control_c, 0, 64, 0
3, 63090, Note_on_c, 0, 67, 54
3, 63092, Note_on_c, 0, 59, 60
3, 63093, Note_on_c, 0, 62, 54
3, 63096, Note_on_c, 0, 64, 48
3, 63109, Note_on_c, 0, 59, 0
3, 63114, Note_on_c, 0, 67, 0
3, 63118, Note_on_c, 0, 62, 0
3, 63121, Note_on_c, 0, 64, 0
3, 63144, Note_on_c, 0, 67, 22
3, 63149, Note_on_c, 0, 59, 19
3, 63151, Note_on_c, 0, 62, 25
3, 63153, Note_on_c, 0, 64, 28
3, 63156, Note_on_c, 0, 56, 0
3, 63167, Note_on_c, 0, 59, 0
3, 63170, Note_on_c, 0, 67, 0
3, 63172, Note_on_c, 0, 62, 0
3, 63174, Note_on_c, 0, 64, 0
3, 63211, Note_on_c, 0, 56, 48
3, 63211, Note_on_c, 0, 67, 45
3, 63212, Note_on_c, 0, 59, 49
3, 63212, Note_on_c, 0, 62, 53
3, 63213, Note_on_c, 0, 64, 42
3, 63228, Note_on_c, 0, 59, 0
3, 63228, Note_on_c, 0, 67, 0
3, 63230, Note_on_c, 0, 62, 0
3, 63232, Note_on_c, 0, 64, 0
3, 63260, Note_on_c, 0, 67, 28
3, 63261, Note_on_c, 0, 62, 26
3, 63268, Note_on_c, 0, 56, 0
3, 63280, Note_on_c, 0, 67, 0
3, 63281, Note_on_c, 0, 62, 0
3, 63321, Note_on_c, 0, 51, 39
3, 63321, Note_on_c, 0, 67, 64
3, 63333, Note_on_c, 0, 59, 28
3, 63339, Note_on_c, 0, 52, 38
3, 63343, Note_on_c, 0, 67, 0
3, 63344, Note_on_c, 0, 59, 0
3, 63355, Note_on_c, 0, 52, 0
3, 63371, Note_on_c, 0, 53, 55
3, 63373, Note_on_c, 0, 51, 0
3, 63373, Note_on_c, 0, 65, 62
3, 63376, Note_on_c, 0, 62, 55
3, 63379, Note_on_c, 0, 55, 41
3, 63573, Note_on_c, 0, 55, 0
3, 63583, Note_on_c, 0, 62, 0
3, 63592, Note_on_c, 0, 65, 0
3, 63608, Note_on_c, 0, 55, 48
3, 63611, Note_on_c, 0, 51, 40
3, 63612, Note_on_c, 0, 63, 31
3, 63617, Note_on_c, 0, 53, 0
3, 63617, Note_on_c, 0, 58, 33
3, 63734, Control_c, 0, 64, 127
3, 63756, Control_c, 0, 64, 0
3, 63766, Note_on_c, 0, 51, 0
3, 63775, Note_on_c, 0, 55, 0
3, 63798, Note_on_c, 0, 58, 0
3, 63802, Note_on_c, 0, 63, 0
3, 63810, Note_on_c, 0, 51, 40
3, 63833, Note_on_c, 0, 52, 39
3, 63839, Note_on_c, 0, 51, 0
3, 63844, Note_on_c, 0, 58, 49
3, 63845, Note_on_c, 0, 55, 64
3, 63846, Note_on_c, 0, 52, 0
3, 63848, Note_on_c, 0, 65, 49
3, 63849, Note_on_c, 0, 62, 45
3, 63852, Note_on_c, 0, 53, 55
3, 63915, Note_on_c, 0, 65, 0
3, 63925, Note_on_c, 0, 53, 0
3, 63926, Note_on_c, 0, 55, 0
3, 63929, Note_on_c, 0, 51, 37
3, 63937, Note_on_c, 0, 58, 0
3, 63940, Note_on_c, 0, 62, 0
3, 63952, Note_on_c, 0, 52, 30
3, 63964, Note_on_c, 0, 52, 0
3, 63972, Note_on_c, 0, 58, 39
3, 63973, Note_on_c, 0, 51, 0
3, 63973, Note_on_c, 0, 65, 49
3, 63973, Note_on_c, 0, 55, 56
3, 63974, Note_on_c, 0, 62, 37
3, 63977, Note_on_c, 0, 53, 56
3, 64028, Note_on_c, 0, 55, 0
3, 64032, Note_on_c, 0, 65, 0
3, 64035, Note_on_c, 0, 58, 0
3, 64042, Note_on_c, 0, 62, 0
3, 64053, Note_on_c, 0, 58, 35
3, 64056, Note_on_c, 0, 55, 58
3, 64057, Note_on_c, 0, 63, 51
3, 64058, Note_on_c, 0, 51, 56
3, 64064, Note_on_c, 0, 53, 0
3, 64111, Note_on_c, 0, 46, 0
3, 64116, Control_c, 0, 64, 127
3, 64134, Note_on_c, 0, 58, 0
3, 64160, Note_on_c, 0, 55, 0
3, 64161, Control_c, 0, 64, 0
3, 64176, Note_on_c, 0, 63, 0
3, 64187, Note_on_c, 0, 53, 40
3, 64207, Note_on_c, 0, 56, 74
3, 64209, Note_on_c, 0, 55, 78
3, 64209, Note_on_c, 0, 67, 73
3, 64210, Note_on_c, 0, 62, 40
3, 64212, Note_on_c, 0, 60, 64
3, 64222, Note_on_c, 0, 53, 0
3, 64231, Note_on_c, 0, 51, 0
3, 64292, Note_on_c, 0, 67, 0
3, 64296, Note_on_c, 0, 60, 0
3, 64298, Note_on_c, 0, 53, 50
3, 64299, Note_on_c, 0, 55, 0
3, 64299, Note_on_c, 0, 56, 0
3, 64305, Note_on_c, 0, 62, 0
3, 64306, Note_on_c, 0, 51, 7
3, 64331, Note_on_c, 0, 51, 0
3, 64331, Note_on_c, 0, 56, 59
3, 64332, Note_on_c, 0, 67, 60
3, 64334, Note_on_c, 0, 53, 0
3, 64336, Note_on_c, 0, 55, 66
3, 64338, Note_on_c, 0, 60, 55
3, 64352, Note_on_c, 0, 62, 19
3, 64391, Note_on_c, 0, 60, 0
3, 64393, Note_on_c, 0, 62, 0
3, 64394, Note_on_c, 0, 56, 0
3, 64397, Note_on_c, 0, 67, 0
3, 64417, Note_on_c, 0, 56, 63
3, 64420, Note_on_c, 0, 53, 53
3, 64423, Note_on_c, 0, 55, 0
3, 64423, Note_on_c, 0, 65, 55
3, 64424, Note_on_c, 0, 60, 52
3, 64428, Note_on_c, 0, 62, 35
3, 64504, Note_on_c, 0, 56, 0
3, 64578, Note_on_c, 0, 60, 0
3, 64585, Note_on_c, 0, 62, 0
3, 64607, Note_on_c, 0, 65, 0
3, 64666, Note_on_c, 0, 51, 34
3, 64677, Note_on_c, 0, 53, 0
3, 64688, Note_on_c, 0, 68, 61
3, 64691, Note_on_c, 0, 59, 71
3, 64691, Note_on_c, 0, 56, 71
3, 64692, Note_on_c, 0, 63, 57
3, 64692, Note_on_c, 0, 65, 64
3, 64698, Note_on_c, 0, 54, 31
3, 64708, Note_on_c, 0, 54, 0
3, 64742, Note_on_c, 0, 51, 0
3, 64765, Note_on_c, 0, 56, 0
3, 64767, Note_on_c, 0, 68, 0
3, 64771, Note_on_c, 0, 59, 0
3, 64776, Note_on_c, 0, 65, 0
3, 64776, Note_on_c, 0, 55, 53
3, 64785, Note_on_c, 0, 63, 0
3, 64807, Note_on_c, 0, 55, 0
3, 64810, Note_on_c, 0, 56, 63
3, 64813, Note_on_c, 0, 68, 55
3, 64816, Note_on_c, 0, 63, 46
3, 64817, Note_on_c, 0, 65, 55
3, 64818, Note_on_c, 0, 59, 51
3, 64875, Note_on_c, 0, 59, 0
3, 64878, Note_on_c, 0, 65, 0
3, 64883, Note_on_c, 0, 68, 0
3, 64885, Note_on_c, 0, 63, 0
3, 64892, Note_on_c, 0, 56, 0
3, 64899, Note_on_c, 0, 67, 53
3, 64900, Note_on_c, 0, 59, 55
3, 64905, Note_on_c, 0, 55, 55
3, 64911, Note_on_c, 0, 59, 0
3, 64925, Note_on_c, 0, 67, 0
3, 64941, Note_on_c, 0, 63, 48
3, 64942, Note_on_c, 0, 55, 0
3, 64943, Note_on_c, 0, 59, 54
3, 64944, Note_on_c, 0, 65, 55
3, 64945, Note_on_c, 0, 70, 74
3, 64949, Note_on_c, 0, 58, 80
3, 65006, Note_on_c, 0, 70, 0
3, 65007, Note_on_c, 0, 65, 0
3, 65008, Note_on_c, 0, 58, 0
3, 65008, Note_on_c, 0, 59, 0
3, 65015, Note_on_c, 0, 63, 0
3, 65029, Note_on_c, 0, 70, 54
3, 65034, Note_on_c, 0, 63, 53
3, 65035, Note_on_c, 0, 58, 62
3, 65036, Note_on_c, 0, 65, 40
3, 65036, Note_on_c, 0, 59, 47
3, 65065, Note_on_c, 0, 58, 0
3, 65069, Note_on_c, 0, 59, 0
3, 65071, Note_on_c, 0, 70, 0
3, 65080, Note_on_c, 0, 65, 0
3, 65083, Note_on_c, 0, 63, 0
3, 65099, Note_on_c, 0, 58, 55
3, 65100, Note_on_c, 0, 70, 56
3, 65106, Note_on_c, 0, 63, 40
3, 65108, Note_on_c, 0, 59, 56
3, 65109, Note_on_c, 0, 65, 45
3, 65143, Note_on_c, 0, 59, 0
3, 65146, Note_on_c, 0, 70, 0
3, 65152, Note_on_c, 0, 65, 0
3, 65158, Note_on_c, 0, 63, 0
3, 65164, Note_on_c, 0, 58, 0
3, 65176, Note_on_c, 0, 68, 47
3, 65179, Note_on_c, 0, 56, 47
3, 65181, Note_on_c, 0, 59, 39
3, 65183, Note_on_c, 0, 63, 30
3, 65185, Note_on_c, 0, 65, 27
3, 65199, Note_on_c, 0, 59, 0
3, 65215, Note_on_c, 0, 68, 0
3, 65221, Note_on_c, 0, 65, 0
3, 65233, Note_on_c, 0, 63, 0
3, 65253, Note_on_c, 0, 58, 54
3, 65253, Note_on_c, 0, 67, 55
3, 65257, Note_on_c, 0, 56, 0
3, 65260, Note_on_c, 0, 62, 50
3, 65261, Note_on_c, 0, 55, 53
3, 65376, Note_on_c, 0, 58, 0
3, 65378, Note_on_c, 0, 67, 0
3, 65379, Note_on_c, 0, 62, 0
3, 65390, Note_on_c, 0, 55, 0
3, 65403, Note_on_c, 0, 50, 42
3, 65405, Note_on_c, 0, 58, 11
3, 65452, Note_on_c, 0, 58, 0
3, 65479, Note_on_c, 0, 51, 42
3, 65486, Note_on_c, 0, 65, 53
3, 65487, Note_on_c, 0, 50, 0
3, 65488, Note_on_c, 0, 55, 59
3, 65489, Note_on_c, 0, 58, 47
3, 65491, Note_on_c, 0, 53, 58
3, 65491, Note_on_c, 0, 62, 47
3, 65503, Note_on_c, 0, 51, 0
3, 65592, Note_on_c, 0, 55, 0
3, 65599, Note_on_c, 0, 53, 0
3, 65601, Note_on_c, 0, 48, 39
3, 65605, Note_on_c, 0, 58, 0
3, 65618, Note_on_c, 0, 65, 0
3, 65618, Note_on_c, 0, 62, 0
3, 65636, Note_on_c, 0, 48, 0
3, 65649, Note_on_c, 0, 51, 50
3, 65649, Note_on_c, 0, 63, 39
3, 65725, Note_on_c, 0, 51, 0
3, 65730, Note_on_c, 0, 58, 43
3, 65732, Note_on_c, 0, 63, 0
3, 65734, Note_on_c, 0, 55, 49
3, 65736, Note_on_c, 0, 48, 41
3, 65958, Note_on_c, 0, 55, 0
3, 65974, Note_on_c, 0, 58, 0
3, 65978, Note_on_c, 0, 48, 0
3, 66013, Note_on_c, 0, 58, 40
3, 66016, Note_on_c, 0, 55, 31
3, 66016, Note_on_c, 0, 48, 34
3, 66026, Note_on_c, 0, 55, 0
3, 66030, Note_on_c, 0, 48, 0
3, 66034, Note_on_c, 0, 58, 0
3, 66245, Note_on_c, 0, 65, 38
3, 66247, Note_on_c, 0, 84, 64
3, 66247, Note_on_c, 0, 61, 30
3, 66247, Note_on_c, 0, 72, 53
3, 66249, Note_on_c, 0, 80, 33
3, 66250, Note_on_c, 0, 77, 40
3, 66254, Note_on_c, 0, 56, 23
3, 66285, Note_on_c, 0, 84, 0
3, 66292, Note_on_c, 0, 72, 0
3, 66302, Note_on_c, 0, 65, 0
3, 66306, Note_on_c, 0, 61, 0
3, 66308, Note_on_c, 0, 77, 0
3, 66310, Note_on_c, 0, 56, 0
3, 66311, Note_on_c, 0, 80, 0
3, 66330, Note_on_c, 0, 82, 46
3, 66331, Note_on_c, 0, 70, 55
3, 66332, Note_on_c, 0, 65, 48
3, 66333, Note_on_c, 0, 61, 34
3, 66333, Note_on_c, 0, 56, 34
3, 66343, Note_on_c, 0, 70, 0
3, 66347, Note_on_c, 0, 65, 0
3, 66352, Note_on_c, 0, 82, 0
3, 66355, Note_on_c, 0, 61, 0
3, 66357, Note_on_c, 0, 56, 0
3, 66375, Note_on_c, 0, 56, 18
3, 66376, Note_on_c, 0, 65, 38
3, 66377, Note_on_c, 0, 61, 34
3, 66379, Note_on_c, 0, 84, 57
3, 66382, Note_on_c, 0, 72, 38
3, 66385, Note_on_c, 0, 77, 26
3, 66386, Note_on_c, 0, 60, 28
3, 66395, Note_on_c, 0, 72, 0
3, 66397, Note_on_c, 0, 60, 0
3, 66399, Note_on_c, 0, 65, 0
3, 66407, Note_on_c, 0, 61, 0
3, 66408, Note_on_c, 0, 84, 0
3, 66410, Note_on_c, 0, 56, 0
3, 66417, Note_on_c, 0, 77, 0
3, 66456, Note_on_c, 0, 70, 64
3, 66458, Note_on_c, 0, 82, 43
3, 66462, Note_on_c, 0, 65, 46
3, 66462, Note_on_c, 0, 61, 39
3, 66471, Note_on_c, 0, 82, 0
3, 66472, Note_on_c, 0, 70, 0
3, 66476, Note_on_c, 0, 65, 0
3, 66487, Note_on_c, 0, 61, 0
3, 66514, Note_on_c, 0, 56, 25
3, 66515, Note_on_c, 0, 72, 38
3, 66515, Note_on_c, 0, 84, 34
3, 66517, Note_on_c, 0, 77, 29
3, 66519, Note_on_c, 0, 65, 27
3, 66521, Note_on_c, 0, 61, 23
3, 66532, Note_on_c, 0, 65, 0
3, 66532, Note_on_c, 0, 84, 0
3, 66533, Note_on_c, 0, 72, 0
3, 66544, Note_on_c, 0, 61, 0
3, 66546, Note_on_c, 0, 56, 0
3, 66548, Note_on_c, 0, 77, 0
3, 66687, Note_on_c, 0, 61, 55
3, 66687, Note_on_c, 0, 82, 57
3, 66688, Note_on_c, 0, 70, 61
3, 66688, Note_on_c, 0, 55, 64
3, 66692, Note_on_c, 0, 64, 37
3, 66700, Note_on_c, 0, 55, 0
3, 66705, Note_on_c, 0, 70, 0
3, 66705, Note_on_c, 0, 64, 0
3, 66712, Note_on_c, 0, 61, 0
3, 66714, Note_on_c, 0, 82, 0
3, 66763, Note_on_c, 0, 61, 57
3, 66764, Note_on_c, 0, 85, 71
3, 66765, Note_on_c, 0, 73, 47
3, 66768, Note_on_c, 0, 55, 49
3, 66769, Note_on_c, 0, 64, 37
3, 66778, Note_on_c, 0, 73, 0
3, 66779, Note_on_c, 0, 55, 0
3, 66781, Note_on_c, 0, 64, 0
3, 66783, Note_on_c, 0, 61, 0
3, 66784, Note_on_c, 0, 85, 0
3, 66842, Note_on_c, 0, 61, 46
3, 66845, Note_on_c, 0, 64, 32
3, 66846, Note_on_c, 0, 55, 38
3, 66851, Note_on_c, 0, 81, 26
3, 66856, Note_on_c, 0, 64, 0
3, 66858, Note_on_c, 0, 55, 0
3, 66860, Note_on_c, 0, 61, 0
3, 66861, Note_on_c, 0, 81, 0
3, 66955, Note_on_c, 0, 61, 34
3, 66965, Note_on_c, 0, 61, 0
3, 66999, Note_on_c, 0, 88, 67
3, 67000, Note_on_c, 0, 61, 69
3, 67001, Note_on_c, 0, 82, 59
3, 67002, Note_on_c, 0, 76, 58
3, 67003, Note_on_c, 0, 64, 65
3, 67003, Note_on_c, 0, 55, 68
3, 67025, Note_on_c, 0, 64, 0
3, 67029, Note_on_c, 0, 55, 0
3, 67036, Note_on_c, 0, 82, 0
3, 67038, Note_on_c, 0, 76, 0
3, 67038, Note_on_c, 0, 61, 0
3, 67041, Note_on_c, 0, 83, 39
3, 67042, Note_on_c, 0, 88, 0
3, 67057, Note_on_c, 0, 83, 0
3, 67088, Note_on_c, 0, 61, 57
3, 67092, Note_on_c, 0, 85, 56
3, 67094, Note_on_c, 0, 64, 35
3, 67095, Note_on_c, 0, 55, 37
3, 67095, Note_on_c, 0, 73, 43
3, 67106, Note_on_c, 0, 55, 0
3, 67106, Note_on_c, 0, 64, 0
3, 67116, Note_on_c, 0, 73, 0
3, 67117, Note_on_c, 0, 61, 0
3, 67120, Note_on_c, 0, 85, 0
3, 67172, Note_on_c, 0, 60, 51
3, 67173, Note_on_c, 0, 63, 37
3, 67175, Note_on_c, 0, 58, 48
3, 67178, Note_on_c, 0, 72, 58
3, 67187, Note_on_c, 0, 63, 0
3, 67193, Note_on_c, 0, 72, 0
3, 67204, Note_on_c, 0, 60, 0
3, 67212, Note_on_c, 0, 58, 0
3, 67256, Note_on_c, 0, 82, 60
3, 67260, Note_on_c, 0, 75, 49
3, 67262, Note_on_c, 0, 70, 42
3, 67264, Note_on_c, 0, 63, 36
3, 67264, Note_on_c, 0, 58, 42
3, 67266, Note_on_c, 0, 60, 44
3, 67269, Note_on_c, 0, 53, 25
3, 67276, Note_on_c, 0, 63, 0
3, 67281, Note_on_c, 0, 70, 0
3, 67284, Note_on_c, 0, 75, 0
3, 67284, Note_on_c, 0, 60, 0
3, 67286, Note_on_c, 0, 53, 0
3, 67291, Note_on_c, 0, 82, 0
3, 67299, Note_on_c, 0, 58, 0
3, 67335, Note_on_c, 0, 79, 58
3, 67336, Note_on_c, 0, 63, 48
3, 67341, Note_on_c, 0, 58, 34
3, 67341, Note_on_c, 0, 67, 44
3, 67344, Note_on_c, 0, 60, 40
3, 67346, Note_on_c, 0, 53, 26
3, 67364, Note_on_c, 0, 63, 0
3, 67365, Note_on_c, 0, 60, 0
3, 67368, Note_on_c, 0, 67, 0
3, 67373, Note_on_c, 0, 53, 0
3, 67376, Note_on_c, 0, 79, 0
3, 67377, Note_on_c, 0, 58, 0
3, 67417, Note_on_c, 0, 67, 51
3, 67417, Note_on_c, 0, 75, 51
3, 67422, Note_on_c, 0, 63, 33
3, 67425, Note_on_c, 0, 53, 32
3, 67428, Note_on_c, 0, 58, 38
3, 67430, Note_on_c, 0, 60, 37
3, 67566, Note_on_c, 0, 60, 0
3, 67566, Control_c, 0, 64, 127
3, 67574, Note_on_c, 0, 58, 0
3, 67600, Note_on_c, 0, 63, 0
3, 67608, Note_on_c, 0, 67, 0
3, 67610, Note_on_c, 0, 53, 0
3, 67622, Control_c, 0, 64, 0
3, 67636, Note_on_c, 0, 75, 0
3, 67648, Note_on_c, 0, 63, 47
3, 67657, Note_on_c, 0, 56, 31
3, 67657, Note_on_c, 0, 59, 47
3, 67775, Note_on_c, 0, 63, 0
3, 67803, Note_on_c, 0, 87, 76
3, 67805, Note_on_c, 0, 94, 70
3, 67823, Note_on_c, 0, 87, 0
3, 67832, Note_on_c, 0, 94, 0
3, 67854, Note_on_c, 0, 83, 31
3, 67861, Note_on_c, 0, 59, 0
3, 67866, Note_on_c, 0, 83, 0
3, 67889, Note_on_c, 0, 87, 75
3, 67890, Note_on_c, 0, 94, 74
3, 67892, Note_on_c, 0, 59, 53
3, 67954, Note_on_c, 0, 94, 0
3, 67954, Note_on_c, 0, 87, 0
3, 67960, Note_on_c, 0, 56, 0
3, 67962, Note_on_c, 0, 59, 0
3, 67965, Note_on_c, 0, 83, 42
3, 67973, Note_on_c, 0, 91, 65
3, 68003, Note_on_c, 0, 83, 0
3, 68019, Note_on_c, 0, 87, 53
3, 68022, Note_on_c, 0, 91, 0
3, 68042, Note_on_c, 0, 63, 27
3, 68048, Note_on_c, 0, 87, 0
3, 68053, Note_on_c, 0, 59, 33
3, 68075, Note_on_c, 0, 59, 0
3, 68105, Note_on_c, 0, 63, 0
3, 68132, Note_on_c, 0, 65, 57
3, 68141, Note_on_c, 0, 62, 30
3, 68142, Note_on_c, 0, 55, 34
3, 68150, Note_on_c, 0, 60, 25
3, 68305, Note_on_c, 0, 65, 0
3, 68328, Note_on_c, 0, 60, 0
3, 68333, Note_on_c, 0, 62, 0
3, 68336, Note_on_c, 0, 55, 0
3, 68371, Note_on_c, 0, 62, 40
3, 68371, Note_on_c, 0, 65, 50
3, 68375, Note_on_c, 0, 55, 43
3, 68375, Note_on_c, 0, 60, 49
3, 68491, Note_on_c, 0, 93, 89
3, 68518, Note_on_c, 0, 65, 0
3, 68531, Note_on_c, 0, 60, 0
3, 68536, Note_on_c, 0, 94, 42
3, 68540, Note_on_c, 0, 55, 0
3, 68548, Note_on_c, 0, 62, 0
3, 68559, Note_on_c, 0, 93, 0
3, 68573, Note_on_c, 0, 95, 54
3, 68574, Note_on_c, 0, 94, 0
3, 68602, Note_on_c, 0, 95, 0
3, 68609, Note_on_c, 0, 96, 73
3, 68622, Note_on_c, 0, 65, 29
3, 68623, Note_on_c, 0, 62, 32
3, 68634, Note_on_c, 0, 60, 29
3, 68635, Note_on_c, 0, 65, 0
3, 68636, Note_on_c, 0, 96, 0
3, 68656, Note_on_c, 0, 93, 71
3, 68657, Note_on_c, 0, 60, 0
3, 68667, Note_on_c, 0, 62, 0
3, 68713, Note_on_c, 0, 93, 0
3, 68730, Note_on_c, 0, 89, 69
3, 68740, Note_on_c, 0, 62, 24
3, 68769, Note_on_c, 0, 89, 0
3, 68770, Note_on_c, 0, 62, 0
3, 68783, Note_on_c, 0, 86, 46
3, 68832, Note_on_c, 0, 86, 0
3, 68856, Note_on_c, 0, 62, 36
3, 68882, Note_on_c, 0, 62, 0
3, 68906, Note_on_c, 0, 82, 34
3, 68952, Note_on_c, 0, 82, 0
3, 68972, Note_on_c, 0, 83, 72
3, 68984, Note_on_c, 0, 65, 32
3, 68985, Note_on_c, 0, 62, 33
3, 68994, Note_on_c, 0, 60, 26
3, 68995, Note_on_c, 0, 65, 0
3, 69005, Note_on_c, 0, 62, 0
3, 69006, Note_on_c, 0, 83, 0
3, 69007, Note_on_c, 0, 60, 0
3, 69028, Note_on_c, 0, 84, 90
3, 69078, Note_on_c, 0, 84, 0
3, 69097, Note_on_c, 0, 86, 85
3, 69100, Note_on_c, 0, 62, 46
3, 69101, Note_on_c, 0, 67, 48
3, 69103, Note_on_c, 0, 63, 44
3, 69105, Note_on_c, 0, 57, 43
3, 69113, Note_on_c, 0, 67, 0
3, 69125, Note_on_c, 0, 63, 0
3, 69135, Note_on_c, 0, 57, 0
3, 69136, Note_on_c, 0, 86, 0
3, 69140, Note_on_c, 0, 62, 0
3, 69165, Note_on_c, 0, 83, 34
3, 69167, Note_on_c, 0, 84, 34
3, 69178, Note_on_c, 0, 84, 0
3, 69208, Note_on_c, 0, 83, 0
3, 69224, Note_on_c, 0, 79, 58
3, 69255, Note_on_c, 0, 79, 0
3, 69279, Note_on_c, 0, 76, 27
3, 69340, Note_on_c, 0, 75, 49
3, 69340, Note_on_c, 0, 67, 54
3, 69341, Note_on_c, 0, 76, 0
3, 69343, Note_on_c, 0, 63, 42
3, 69345, Note_on_c, 0, 62, 25
3, 69353, Note_on_c, 0, 67, 0
3, 69355, Note_on_c, 0, 75, 0
3, 69362, Note_on_c, 0, 62, 0
3, 69367, Note_on_c, 0, 63, 0
3, 69394, Note_on_c, 0, 74, 38
3, 69461, Note_on_c, 0, 74, 0
3, 69562, Note_on_c, 0, 62, 49
3, 69562, Note_on_c, 0, 67, 57
3, 69566, Note_on_c, 0, 63, 38
3, 69575, Note_on_c, 0, 67, 0
3, 69588, Note_on_c, 0, 63, 0
3, 69588, Note_on_c, 0, 62, 0
3, 70044, Note_on_c, 0, 67, 66
3, 70048, Note_on_c, 0, 63, 47
3, 70048, Note_on_c, 0, 56, 35
3, 70050, Note_on_c, 0, 60, 53
3, 70064, Note_on_c, 0, 67, 0
3, 70066, Note_on_c, 0, 60, 0
3, 70070, Note_on_c, 0, 56, 0
3, 70075, Note_on_c, 0, 63, 0
3, 70160, Note_on_c, 0, 70, 69
3, 70204, Note_on_c, 0, 70, 0
3, 70213, Note_on_c, 0, 67, 44
3, 70267, Note_on_c, 0, 67, 0
3, 70284, Note_on_c, 0, 68, 57
3, 70293, Note_on_c, 0, 67, 64
3, 70295, Note_on_c, 0, 63, 39
3, 70301, Note_on_c, 0, 67, 0
3, 70318, Note_on_c, 0, 63, 0
3, 70323, Note_on_c, 0, 68, 0
3, 70340, Note_on_c, 0, 70, 29
3, 70399, Note_on_c, 0, 70, 0
3, 70414, Note_on_c, 0, 72, 69
3, 70446, Note_on_c, 0, 72, 0
3, 70466, Note_on_c, 0, 74, 47
3, 70517, Note_on_c, 0, 74, 0
3, 70533, Note_on_c, 0, 66, 74
3, 70534, Note_on_c, 0, 62, 67
3, 70536, Note_on_c, 0, 56, 55
3, 70537, Note_on_c, 0, 75, 60
3, 70552, Note_on_c, 0, 66, 0
3, 70556, Note_on_c, 0, 62, 0
3, 70558, Note_on_c, 0, 75, 0
3, 70564, Note_on_c, 0, 56, 0
3, 70588, Note_on_c, 0, 77, 70
3, 70588, Note_on_c, 0, 74, 82
3, 70648, Note_on_c, 0, 74, 0
3, 70665, Note_on_c, 0, 63, 29
3, 70669, Note_on_c, 0, 77, 0
3, 70673, Note_on_c, 0, 63, 0
3, 70700, Note_on_c, 0, 74, 78
3, 70701, Note_on_c, 0, 77, 69
3, 70789, Note_on_c, 0, 62, 31
3, 70791, Note_on_c, 0, 74, 0
3, 70801, Note_on_c, 0, 77, 0
3, 70811, Note_on_c, 0, 75, 31
3, 70811, Note_on_c, 0, 72, 47
3, 70831, Note_on_c, 0, 62, 0
3, 70871, Note_on_c, 0, 75, 0
3, 70882, Note_on_c, 0, 72, 0
3, 70885, Note_on_c, 0, 62, 41
3, 70905, Note_on_c, 0, 62, 0
3, 70918, Note_on_c, 0, 66, 56
3, 70918, Note_on_c, 0, 56, 46
3, 70921, Note_on_c, 0, 62, 13
3, 70924, Note_on_c, 0, 72, 50
3, 70925, Note_on_c, 0, 75, 47
3, 70943, Control_c, 0, 64, 127
3, 70958, Note_on_c, 0, 72, 0
3, 70960, Note_on_c, 0, 66, 0
3, 70981, Note_on_c, 0, 62, 0
3, 70982, Note_on_c, 0, 56, 0
3, 70995, Note_on_c, 0, 75, 0
3, 71008, Note_on_c, 0, 74, 63
3, 71009, Note_on_c, 0, 65, 45
3, 71011, Control_c, 0, 64, 0
3, 71011, Note_on_c, 0, 70, 51
3, 71013, Note_on_c, 0, 62, 39
3, 71014, Note_on_c, 0, 55, 37
3, 71014, Note_on_c, 0, 60, 55
3, 71041, Note_on_c, 0, 70, 0
3, 71043, Note_on_c, 0, 74, 0
3, 71059, Control_c, 0, 64, 127
3, 71064, Note_on_c, 0, 65, 0
3, 71067, Note_on_c, 0, 62, 0
3, 71071, Note_on_c, 0, 55, 0
3, 71072, Note_on_c, 0, 60, 0
3, 71129, Note_on_c, 0, 84, 68
3, 71129, Note_on_c, 0, 72, 69
3, 71129, Note_on_c, 0, 62, 59
3, 71132, Note_on_c, 0, 65, 65
3, 71132, Note_on_c, 0, 60, 59
3, 71135, Note_on_c, 0, 55, 51
3, 71142, Note_on_c, 0, 65, 0
3, 71144, Note_on_c, 0, 55, 0
3, 71147, Note_on_c, 0, 72, 0
3, 71150, Note_on_c, 0, 60, 0
3, 71150, Note_on_c, 0, 62, 0
3, 71152, Note_on_c, 0, 84, 0
3, 71160, Control_c, 0, 64, 0
3, 71164, Note_on_c, 0, 84, 79
3, 71164, Note_on_c, 0, 65, 73
3, 71165, Note_on_c, 0, 74, 71
3, 71165, Note_on_c, 0, 55, 73
3, 71166, Note_on_c, 0, 79, 68
3, 71167, Note_on_c, 0, 62, 77
3, 71168, Note_on_c, 0, 60, 70
3, 71206, Control_c, 0, 64, 127
3, 71220, Note_on_c, 0, 82, 10
3, 71221, Note_on_c, 0, 84, 0
3, 71244, Note_on_c, 0, 82, 0
3, 71250, Note_on_c, 0, 74, 0
3, 71262, Note_on_c, 0, 79, 0
3, 71265, Note_on_c, 0, 55, 0
3, 71271, Note_on_c, 0, 65, 0
3, 71271, Control_c, 0, 64, 0
3, 71274, Note_on_c, 0, 60, 0
3, 71279, Note_on_c, 0, 62, 0
3, 71290, Note_on_c, 0, 65, 53
3, 71290, Note_on_c, 0, 55, 53
3, 71291, Note_on_c, 0, 75, 64
3, 71291, Note_on_c, 0, 62, 43
3, 71291, Note_on_c, 0, 87, 69
3, 71292, Note_on_c, 0, 79, 45
3, 71293, Note_on_c, 0, 82, 36
3, 71293, Note_on_c, 0, 60, 58
3, 71307, Note_on_c, 0, 79, 0
3, 71319, Note_on_c, 0, 65, 0
3, 71320, Note_on_c, 0, 82, 0
3, 71321, Note_on_c, 0, 60, 0
3, 71326, Note_on_c, 0, 55, 0
3, 71327, Note_on_c, 0, 62, 0
3, 71328, Note_on_c, 0, 75, 0
3, 71328, Note_on_c, 0, 87, 0
3, 71406, Note_on_c, 0, 65, 63
3, 71409, Note_on_c, 0, 62, 44
3, 71409, Note_on_c, 0, 89, 62
3, 71410, Note_on_c, 0, 77, 46
3, 71412, Note_on_c, 0, 55, 40
3, 71412, Note_on_c, 0, 60, 53
3, 71412, Note_on_c, 0, 84, 53
3, 71431, Note_on_c, 0, 65, 0
3, 71432, Note_on_c, 0, 55, 0
3, 71433, Note_on_c, 0, 77, 0
3, 71436, Note_on_c, 0, 60, 0
3, 71436, Note_on_c, 0, 89, 0
3, 71436, Note_on_c, 0, 84, 0
3, 71438, Note_on_c, 0, 62, 0
3, 71531, Note_on_c, 0, 78, 86
3, 71531, Note_on_c, 0, 90, 82
3, 71533, Note_on_c, 0, 85, 75
3, 71533, Note_on_c, 0, 65, 82
3, 71534, Note_on_c, 0, 62, 72
3, 71534, Note_on_c, 0, 55, 80
3, 71536, Note_on_c, 0, 60, 65
3, 71565, Note_on_c, 0, 85, 0
3, 71574, Note_on_c, 0, 91, 72
3, 71575, Note_on_c, 0, 78, 0
3, 71575, Note_on_c, 0, 90, 0
3, 71578, Note_on_c, 0, 79, 58
3, 71583, Note_on_c, 0, 81, 61
3, 71584, Note_on_c, 0, 89, 44
3, 71591, Note_on_c, 0, 81, 0
3, 71601, Note_on_c, 0, 79, 0
3, 71608, Note_on_c, 0, 89, 0
3, 71608, Note_on_c, 0, 91, 0
3, 71612, Note_on_c, 0, 65, 0
3, 71612, Note_on_c, 0, 55, 0
3, 71614, Note_on_c, 0, 60, 0
3, 71616, Note_on_c, 0, 62, 0
3, 71653, Note_on_c, 0, 62, 64
3, 71653, Note_on_c, 0, 55, 72
3, 71654, Note_on_c, 0, 60, 65
3, 71654, Note_on_c, 0, 65, 74
3, 71654, Note_on_c, 0, 82, 86
3, 71655, Note_on_c, 0, 94, 87
3, 71710, Note_on_c, 0, 94, 0
3, 71726, Note_on_c, 0, 82, 0
3, 71737, Note_on_c, 0, 60, 0
3, 71739, Note_on_c, 0, 55, 0
3, 71743, Note_on_c, 0, 65, 0
3, 71746, Note_on_c, 0, 62, 0
3, 71771, Note_on_c, 0, 65, 47
3, 71772, Note_on_c, 0, 89, 65
3, 71772, Note_on_c, 0, 62, 33
3, 71774, Note_on_c, 0, 55, 41
3, 71777, Note_on_c, 0, 60, 54
3, 71778, Note_on_c, 0, 77, 31
3, 71778, Note_on_c, 0, 84, 46
3, 71807, Note_on_c, 0, 84, 0
3, 71809, Note_on_c, 0, 89, 0
3, 71815, Note_on_c, 0, 60, 0
3, 71818, Note_on_c, 0, 65, 0
3, 71818, Note_on_c, 0, 62, 0
3, 71821, Note_on_c, 0, 55, 0
3, 71825, Note_on_c, 0, 77, 0
3, 71962, Note_on_c, 0, 55, 77
3, 71963, Note_on_c, 0, 60, 77
3, 71963, Note_on_c, 0, 87, 74
3, 71963, Note_on_c, 0, 75, 72
3, 71964, Note_on_c, 0, 56, 52
3, 71966, Note_on_c, 0, 50, 62
3, 71966, Note_on_c, 0, 82, 57
3, 71998, Note_on_c, 0, 82, 0
3, 71998, Note_on_c, 0, 75, 0
3, 72000, Note_on_c, 0, 60, 0
3, 72002, Note_on_c, 0, 87, 0
3, 72003, Note_on_c, 0, 55, 0
3, 72003, Note_on_c, 0, 50, 0
3, 72005, Note_on_c, 0, 56, 0
3, 72042, Note_on_c, 0, 89, 70
3, 72044, Note_on_c, 0, 77, 54
3, 72045, Note_on_c, 0, 84, 66
3, 72045, Note_on_c, 0, 60, 66
3, 72045, Note_on_c, 0, 55, 60
3, 72046, Note_on_c, 0, 56, 44
3, 72046, Note_on_c, 0, 50, 55
3, 72073, Note_on_c, 0, 84, 0
3, 72074, Note_on_c, 0, 89, 0
3, 72081, Note_on_c, 0, 60, 0
3, 72082, Note_on_c, 0, 77, 0
3, 72086, Note_on_c, 0, 55, 0
3, 72086, Note_on_c, 0, 50, 0
3, 72087, Note_on_c, 0, 56, 0
3, 72128, Note_on_c, 0, 60, 62
3, 72129, Note_on_c, 0, 72, 55
3, 72130, Note_on_c, 0, 77, 49
3, 72130, Note_on_c, 0, 55, 57
3, 72130, Note_on_c, 0, 84, 45
3, 72133, Note_on_c, 0, 83, 47
3, 72133, Note_on_c, 0, 56, 53
3, 72134, Note_on_c, 0, 50, 40
3, 72166, Note_on_c, 0, 84, 0
3, 72168, Note_on_c, 0, 77, 0
3, 72168, Note_on_c, 0, 72, 0
3, 72170, Note_on_c, 0, 83, 0
3, 72172, Note_on_c, 0, 56, 0
3, 72174, Note_on_c, 0, 60, 0
3, 72178, Note_on_c, 0, 55, 0
3, 72179, Note_on_c, 0, 50, 0
3, 72324, Note_on_c, 0, 43, 71
3, 72342, Note_on_c, 0, 43, 0
3, 72367, Note_on_c, 0, 70, 79
3, 72367, Note_on_c, 0, 59, 84
3, 72369, Note_on_c, 0, 63, 71
3, 72374, Note_on_c, 0, 55, 58
3, 72376, Note_on_c, 0, 53, 58
3, 72384, Note_on_c, 0, 53, 0
3, 72389, Note_on_c, 0, 55, 0
3, 72422, Note_on_c, 0, 59, 0
3, 72424, Note_on_c, 0, 70, 0
3, 72430, Note_on_c, 0, 63, 0
3, 72442, Note_on_c, 0, 68, 51
3, 72445, Note_on_c, 0, 59, 66
3, 72446, Note_on_c, 0, 63, 61
3, 72453, Note_on_c, 0, 53, 42
3, 72473, Note_on_c, 0, 68, 0
3, 72474, Note_on_c, 0, 59, 0
3, 72481, Note_on_c, 0, 63, 0
3, 72492, Note_on_c, 0, 67, 53
3, 72496, Note_on_c, 0, 59, 44
3, 72500, Note_on_c, 0, 63, 20
3, 72546, Note_on_c, 0, 59, 0
3, 72552, Note_on_c, 0, 67, 0
3, 72555, Note_on_c, 0, 63, 0
3, 72572, Note_on_c, 0, 59, 47
3, 72572, Note_on_c, 0, 43, 55
3, 72575, Note_on_c, 0, 63, 29
3, 72579, Note_on_c, 0, 65, 32
3, 72583, Note_on_c, 0, 59, 0
3, 72587, Note_on_c, 0, 53, 0
3, 72589, Note_on_c, 0, 65, 0
3, 72590, Note_on_c, 0, 63, 0
3, 72592, Note_on_c, 0, 43, 0
3, 72694, Note_on_c, 0, 47, 46
3, 72713, Note_on_c, 0, 47, 0
3, 72730, Note_on_c, 0, 65, 61
3, 72730, Note_on_c, 0, 56, 58
3, 72732, Note_on_c, 0, 59, 65
3, 72732, Note_on_c, 0, 53, 76
3, 72735, Note_on_c, 0, 62, 53
3, 72790, Note_on_c, 0, 62, 0
3, 72803, Note_on_c, 0, 59, 0
3, 72807, Note_on_c, 0, 56, 0
3, 72809, Note_on_c, 0, 53, 0
3, 72821, Note_on_c, 0, 65, 0
3, 72852, Note_on_c, 0, 56, 42
3, 72855, Note_on_c, 0, 62, 53
3, 72862, Note_on_c, 0, 47, 38
3, 72910, Note_on_c, 0, 56, 0
3, 72914, Note_on_c, 0, 62, 0
3, 72930, Note_on_c, 0, 47, 0
3, 72934, Note_on_c, 0, 65, 58
3, 72934, Note_on_c, 0, 50, 64
3, 72937, Note_on_c, 0, 62, 44
3, 72938, Note_on_c, 0, 59, 58
3, 72939, Note_on_c, 0, 56, 36
3, 72958, Note_on_c, 0, 59, 0
3, 72966, Note_on_c, 0, 62, 0
3, 72967, Note_on_c, 0, 65, 0
3, 72970, Note_on_c, 0, 56, 0
3, 72977, Note_on_c, 0, 50, 0
3, 72990, Note_on_c, 0, 63, 44
3, 72992, Note_on_c, 0, 48, 40
3, 72996, Note_on_c, 0, 55, 29
3, 73003, Note_on_c, 0, 58, 37
3, 73097, Note_on_c, 0, 55, 0
3, 73129, Note_on_c, 0, 58, 0
3, 73165, Note_on_c, 0, 63, 0
3, 73208, Note_on_c, 0, 48, 0
3, 73208, Note_on_c, 0, 65, 57
3, 73210, Note_on_c, 0, 56, 51
3, 73210, Note_on_c, 0, 50, 55
3, 73211, Note_on_c, 0, 59, 58
3, 73215, Note_on_c, 0, 62, 42
3, 73227, Note_on_c, 0, 62, 0
3, 73233, Note_on_c, 0, 65, 0
3, 73233, Note_on_c, 0, 59, 0
3, 73240, Note_on_c, 0, 56, 0
3, 73293, Note_on_c, 0, 58, 56
3, 73294, Note_on_c, 0, 63, 54
3, 73294, Note_on_c, 0, 67, 54
3, 73302, Note_on_c, 0, 58, 0
3, 73305, Note_on_c, 0, 50, 0
3, 73305, Note_on_c, 0, 67, 0
3, 73312, Note_on_c, 0, 63, 0
3, 73392, Note_on_c, 0, 70, 67
3, 73396, Note_on_c, 0, 55, 66
3, 73396, Note_on_c, 0, 63, 62
3, 73398, Note_on_c, 0, 60, 62
3, 73406, Note_on_c, 0, 60, 0
3, 73413, Note_on_c, 0, 63, 0
3, 73416, Note_on_c, 0, 55, 0
3, 73423, Note_on_c, 0, 70, 0
3, 73474, Note_on_c, 0, 72, 57
3, 73477, Note_on_c, 0, 63, 36
3, 73477, Note_on_c, 0, 67, 50
3, 73478, Note_on_c, 0, 57, 58
3, 73495, Note_on_c, 0, 63, 0
3, 73497, Note_on_c, 0, 67, 0
3, 73501, Note_on_c, 0, 72, 0
3, 73502, Note_on_c, 0, 57, 0
3, 73551, Note_on_c, 0, 75, 64
3, 73553, Note_on_c, 0, 60, 68
3, 73554, Note_on_c, 0, 66, 59
3, 73566, Note_on_c, 0, 66, 0
3, 73570, Note_on_c, 0, 60, 0
3, 73574, Note_on_c, 0, 75, 0
3, 73639, Note_on_c, 0, 72, 68
3, 73641, Note_on_c, 0, 66, 50
3, 73641, Note_on_c, 0, 63, 51
3, 73646, Note_on_c, 0, 57, 55
3, 73660, Note_on_c, 0, 63, 0
3, 73660, Note_on_c, 0, 66, 0
3, 73661, Note_on_c, 0, 57, 0
3, 73663, Note_on_c, 0, 72, 0
3, 73759, Note_on_c, 0, 61, 53
3, 73760, Note_on_c, 0, 55, 53
3, 73760, Note_on_c, 0, 70, 47
3, 73762, Note_on_c, 0, 65, 47
3, 73769, Note_on_c, 0, 61, 0
3, 73771, Note_on_c, 0, 65, 0
3, 73774, Note_on_c, 0, 55, 0
3, 73784, Note_on_c, 0, 70, 0
3, 73834, Control_c, 0, 64, 127
3, 73868, Control_c, 0, 64, 0
3, 73881, Note_on_c, 0, 65, 54
3, 73881, Note_on_c, 0, 72, 45
3, 73882, Note_on_c, 0, 61, 46
3, 73883, Note_on_c, 0, 46, 45
3, 73884, Note_on_c, 0, 56, 37
3, 73887, Note_on_c, 0, 68, 35
3, 73909, Control_c, 0, 64, 127
3, 73917, Note_on_c, 0, 61, 0
3, 73918, Note_on_c, 0, 46, 0
3, 73926, Note_on_c, 0, 56, 0
3, 73927, Note_on_c, 0, 65, 0
3, 73973, Note_on_c, 0, 68, 0
3, 73979, Note_on_c, 0, 72, 0
3, 74050, Note_on_c, 0, 61, 37
3, 74052, Note_on_c, 0, 65, 38
3, 74054, Note_on_c, 0, 56, 29
3, 74058, Note_on_c, 0, 60, 36
3, 74061, Control_c, 0, 64, 0
3, 74171, Note_on_c, 0, 84, 96
3, 74216, Note_on_c, 0, 65, 0
3, 74218, Note_on_c, 0, 84, 0
3, 74251, Note_on_c, 0, 61, 0
3, 74251, Note_on_c, 0, 82, 53
3, 74281, Note_on_c, 0, 82, 0
3, 74285, Note_on_c, 0, 65, 34
3, 74288, Note_on_c, 0, 61, 23
3, 74293, Note_on_c, 0, 73, 36
3, 74310, Note_on_c, 0, 65, 0
3, 74316, Note_on_c, 0, 60, 0
3, 74338, Note_on_c, 0, 73, 0
3, 74366, Note_on_c, 0, 56, 0
3, 74368, Note_on_c, 0, 72, 54
3, 74372, Note_on_c, 0, 55, 53
3, 74380, Note_on_c, 0, 64, 27
3, 74405, Note_on_c, 0, 72, 0
3, 74423, Note_on_c, 0, 70, 39
3, 74477, Note_on_c, 0, 70, 0
3, 74494, Note_on_c, 0, 72, 40
3, 74497, Note_on_c, 0, 64, 0
3, 74503, Note_on_c, 0, 70, 28
3, 74513, Note_on_c, 0, 72, 0
3, 74522, Note_on_c, 0, 61, 0
3, 74530, Note_on_c, 0, 69, 45
3, 74540, Note_on_c, 0, 70, 0
3, 74568, Note_on_c, 0, 55, 0
3, 74593, Note_on_c, 0, 69, 0
3, 74608, Note_on_c, 0, 68, 53
3, 74618, Note_on_c, 0, 64, 42
3, 74618, Note_on_c, 0, 61, 40
3, 74628, Note_on_c, 0, 61, 0
3, 74628, Note_on_c, 0, 64, 0
3, 74642, Note_on_c, 0, 68, 0
3, 74664, Note_on_c, 0, 67, 32
3, 74709, Note_on_c, 0, 67, 0
3, 74728, Note_on_c, 0, 63, 45
3, 74733, Note_on_c, 0, 55, 44
3, 74735, Note_on_c, 0, 45, 34
3, 74754, Note_on_c, 0, 63, 0
3, 74775, Note_on_c, 0, 60, 34
3, 74796, Note_on_c, 0, 55, 0
3, 74835, Note_on_c, 0, 60, 0
3, 74839, Note_on_c, 0, 45, 0
3, 74844, Note_on_c, 0, 58, 51
3, 74851, Note_on_c, 0, 51, 28
3, 74879, Note_on_c, 0, 58, 0
3, 74890, Note_on_c, 0, 44, 32
3, 74892, Note_on_c, 0, 55, 35
3, 74907, Note_on_c, 0, 55, 0
3, 74925, Note_on_c, 0, 51, 0
3, 74926, Note_on_c, 0, 44, 0
3, 74976, Note_on_c, 0, 56, 34
3, 74989, Note_on_c, 0, 56, 0
3, 75001, Note_on_c, 0, 75, 69
3, 75004, Note_on_c, 0, 65, 77
3, 75004, Note_on_c, 0, 60, 71
3, 75005, Note_on_c, 0, 68, 62
3, 75007, Note_on_c, 0, 72, 60
3, 75038, Note_on_c, 0, 72, 0
3, 75041, Note_on_c, 0, 75, 0
3, 75048, Note_on_c, 0, 65, 0
3, 75051, Note_on_c, 0, 68, 0
3, 75070, Note_on_c, 0, 60, 0
3, 75099, Note_on_c, 0, 72, 72
3, 75101, Note_on_c, 0, 63, 64
3, 75103, Note_on_c, 0, 67, 66
3, 75112, Note_on_c, 0, 67, 0
3, 75123, Note_on_c, 0, 72, 0
3, 75126, Note_on_c, 0, 63, 0
3, 75172, Note_on_c, 0, 70, 63
3, 75177, Note_on_c, 0, 63, 49
3, 75178, Note_on_c, 0, 60, 57
3, 75179, Note_on_c, 0, 55, 49
3, 75183, Note_on_c, 0, 67, 37
3, 75197, Note_on_c, 0, 67, 0
3, 75221, Note_on_c, 0, 63, 0
3, 75226, Note_on_c, 0, 60, 0
3, 75228, Note_on_c, 0, 70, 0
3, 75236, Note_on_c, 0, 55, 0
3, 75252, Note_on_c, 0, 68, 35
3, 75252, Note_on_c, 0, 63, 37
3, 75254, Control_c, 0, 64, 127
3, 75255, Note_on_c, 0, 60, 34
3, 75257, Note_on_c, 0, 53, 34
3, 75266, Note_on_c, 0, 60, 0
3, 75269, Note_on_c, 0, 53, 0
3, 75269, Note_on_c, 0, 68, 0
3, 75286, Note_on_c, 0, 63, 0
3, 75327, Note_on_c, 0, 58, 56
3, 75328, Note_on_c, 0, 63, 50
3, 75328, Note_on_c, 0, 67, 60
3, 75329, Control_c, 0, 64, 0
3, 75330, Note_on_c, 0, 59, 53
3, 75334, Note_on_c, 0, 53, 40
3, 75336, Note_on_c, 0, 49, 30
3, 75463, Note_on_c, 0, 59, 0
3, 75464, Note_on_c, 0, 49, 0
3, 75466, Note_on_c, 0, 58, 0
3, 75483, Note_on_c, 0, 63, 0
3, 75483, Note_on_c, 0, 67, 0
3, 75490, Note_on_c, 0, 65, 41
3, 75493, Note_on_c, 0, 58, 19
3, 75501, Note_on_c, 0, 49, 25
3, 75538, Note_on_c, 0, 49, 0
3, 75546, Note_on_c, 0, 58, 0
3, 75554, Note_on_c, 0, 53, 0
3, 75562, Note_on_c, 0, 65, 0
3, 75569, Note_on_c, 0, 53, 17
3, 75570, Note_on_c, 0, 59, 45
3, 75570, Note_on_c, 0, 58, 42
3, 75571, Note_on_c, 0, 49, 27
3, 75573, Note_on_c, 0, 67, 51
3, 75577, Note_on_c, 0, 63, 26
3, 75583, Note_on_c, 0, 59, 0
3, 75585, Note_on_c, 0, 58, 0
3, 75587, Note_on_c, 0, 63, 0
3, 75593, Note_on_c, 0, 53, 0
3, 75597, Note_on_c, 0, 49, 0
3, 75601, Note_on_c, 0, 67, 0
3, 75803, Control_c, 0, 64, 127
3, 75804, Note_on_c, 0, 68, 65
3, 75805, Note_on_c, 0, 54, 77
3, 75806, Note_on_c, 0, 58, 71
3, 75806, Note_on_c, 0, 63, 62
3, 75836, Note_on_c, 0, 68, 0
3, 75840, Note_on_c, 0, 58, 0
3, 75843, Note_on_c, 0, 63, 0
3, 75856, Control_c, 0, 64, 0
3, 75859, Note_on_c, 0, 70, 68
3, 75864, Note_on_c, 0, 60, 51
3, 75866, Note_on_c, 0, 54, 0
3, 75866, Note_on_c, 0, 55, 66
3, 75867, Note_on_c, 0, 65, 46
3, 75890, Note_on_c, 0, 70, 0
3, 75891, Note_on_c, 0, 65, 0
3, 75897, Control_c, 0, 64, 127
3, 75908, Note_on_c, 0, 60, 0
3, 75940, Note_on_c, 0, 55, 0
3, 75974, Control_c, 0, 64, 0
3, 76046, Note_on_c, 0, 50, 67
3, 76049, Note_on_c, 0, 67, 65
3, 76050, Note_on_c, 0, 58, 49
3, 76050, Note_on_c, 0, 63, 36
3, 76056, Note_on_c, 0, 62, 47
3, 76089, Note_on_c, 0, 67, 0
3, 76090, Note_on_c, 0, 58, 0
3, 76094, Note_on_c, 0, 63, 0
3, 76097, Note_on_c, 0, 62, 0
3, 76107, Note_on_c, 0, 50, 0
3, 76110, Note_on_c, 0, 65, 39
3, 76110, Note_on_c, 0, 48, 44
3, 76166, Note_on_c, 0, 48, 0
3, 76168, Note_on_c, 0, 65, 0
3, 76185, Note_on_c, 0, 63, 60
3, 76189, Note_on_c, 0, 46, 44
3, 76199, Note_on_c, 0, 46, 0
3, 76204, Note_on_c, 0, 63, 0
3, 76232, Control_c, 0, 64, 127
3, 76294, Control_c, 0, 64, 0
3, 76298, Note_on_c, 0, 67, 79
3, 76299, Note_on_c, 0, 63, 74
3, 76300, Note_on_c, 0, 74, 76
3, 76301, Note_on_c, 0, 45, 62
3, 76304, Note_on_c, 0, 55, 45
3, 76305, Note_on_c, 0, 69, 51
3, 76311, Note_on_c, 0, 45, 0
3, 76320, Note_on_c, 0, 55, 0
3, 76415, Note_on_c, 0, 64, 71
3, 76423, Note_on_c, 0, 64, 0
3, 76433, Note_on_c, 0, 63, 0
3, 76453, Note_on_c, 0, 63, 31
3, 76477, Control_c, 0, 64, 127
3, 76481, Note_on_c, 0, 67, 0
3, 76524, Note_on_c, 0, 74, 0
3, 76530, Note_on_c, 0, 63, 0
3, 76541, Note_on_c, 0, 69, 0
3, 76561, Control_c, 0, 64, 0
3, 76570, Note_on_c, 0, 66, 61
3, 76572, Note_on_c, 0, 60, 57
3, 76649, Note_on_c, 0, 54, 61
3, 76684, Note_on_c, 0, 60, 0
3, 76691, Note_on_c, 0, 54, 0
3, 76721, Note_on_c, 0, 66, 0
3, 76759, Control_c, 0, 64, 127
3, 76769, Note_on_c, 0, 55, 46
3, 76786, Note_on_c, 0, 55, 0
3, 76787, Control_c, 0, 64, 0
3, 76810, Note_on_c, 0, 70, 39
3, 76813, Note_on_c, 0, 68, 32
3, 76813, Note_on_c, 0, 55, 44
3, 76829, Note_on_c, 0, 55, 0
3, 76840, Note_on_c, 0, 68, 0
3, 76843, Note_on_c, 0, 70, 0
3, 76924, Note_on_c, 0, 75, 57
3, 76925, Note_on_c, 0, 54, 48
3, 76927, Note_on_c, 0, 70, 56
3, 76928, Note_on_c, 0, 67, 58
3, 76952, Note_on_c, 0, 54, 0
3, 76953, Note_on_c, 0, 67, 0
3, 76965, Note_on_c, 0, 75, 0
3, 76969, Note_on_c, 0, 70, 0
3, 77042, Note_on_c, 0, 44, 52
3, 77045, Note_on_c, 0, 70, 47
3, 77046, Note_on_c, 0, 54, 33
3, 77046, Note_on_c, 0, 74, 54
3, 77047, Note_on_c, 0, 65, 54
3, 77069, Control_c, 0, 64, 127
3, 77097, Note_on_c, 0, 74, 0
3, 77100, Note_on_c, 0, 65, 0
3, 77105, Note_on_c, 0, 44, 0
3, 77108, Note_on_c, 0, 54, 0
3, 77115, Note_on_c, 0, 70, 0
3, 77128, Note_on_c, 0, 54, 49
3, 77132, Note_on_c, 0, 72, 56
3, 77132, Note_on_c, 0, 44, 49
3, 77134, Note_on_c, 0, 67, 58
3, 77134, Note_on_c, 0, 62, 42
3, 77146, Note_on_c, 0, 62, 0
3, 77150, Note_on_c, 0, 54, 0
3, 77151, Note_on_c, 0, 67, 0
3, 77154, Note_on_c, 0, 72, 0
3, 77154, Control_c, 0, 64, 0
3, 77162, Note_on_c, 0, 44, 0
3, 77242, Note_on_c, 0, 70, 56
3, 77242, Note_on_c, 0, 43, 70
3, 77242, Note_on_c, 0, 62, 63
3, 77243, Note_on_c, 0, 53, 67
3, 77244, Note_on_c, 0, 58, 57
3, 77250, Note_on_c, 0, 65, 43
3, 77284, Control_c, 0, 64, 127
3, 77299, Note_on_c, 0, 65, 0
3, 77337, Note_on_c, 0, 43, 0
3, 77339, Note_on_c, 0, 62, 0
3, 77366, Note_on_c, 0, 58, 0
3, 77366, Note_on_c, 0, 43, 35
3, 77376, Note_on_c, 0, 53, 0
3, 77391, Note_on_c, 0, 70, 0
3, 77402, Note_on_c, 0, 43, 0
3, 77407, Control_c, 0, 64, 0
3, 77410, Note_on_c, 0, 58, 45
3, 77410, Note_on_c, 0, 63, 50
3, 77477, Note_on_c, 0, 58, 0
3, 77481, Note_on_c, 0, 63, 0
3, 77526, Note_on_c, 0, 58, 47
3, 77527, Note_on_c, 0, 70, 42
3, 77531, Note_on_c, 0, 36, 29
3, 77535, Note_on_c, 0, 64, 36
3, 77548, Note_on_c, 0, 64, 0
3, 77549, Note_on_c, 0, 58, 0
3, 77552, Note_on_c, 0, 36, 0
3, 77564, Note_on_c, 0, 70, 0
3, 77634, Note_on_c, 0, 24, 48
3, 77641, Note_on_c, 0, 58, 47
3, 77641, Note_on_c, 0, 68, 39
3, 77644, Note_on_c, 0, 24, 0
3, 77660, Note_on_c, 0, 68, 0
3, 77660, Note_on_c, 0, 58, 0
3, 77774, Note_on_c, 0, 46, 71
3, 77778, Note_on_c, 0, 56, 75
3, 77778, Note_on_c, 0, 65, 68
3, 77780, Note_on_c, 0, 60, 71
3, 77781, Note_on_c, 0, 63, 56
3, 77792, Control_c, 0, 64, 127
3, 77821, Note_on_c, 0, 56, 0
3, 77822, Note_on_c, 0, 60, 0
3, 77825, Note_on_c, 0, 46, 0
3, 77830, Note_on_c, 0, 65, 0
3, 77832, Note_on_c, 0, 63, 0
3, 77845, Note_on_c, 0, 46, 51
3, 77854, Note_on_c, 0, 56, 53
3, 77855, Note_on_c, 0, 63, 42
3, 77857, Note_on_c, 0, 60, 61
3, 77858, Note_on_c, 0, 65, 40
3, 77878, Note_on_c, 0, 56, 0
3, 77878, Note_on_c, 0, 46, 0
3, 77883, Note_on_c, 0, 60, 0
3, 77884, Note_on_c, 0, 65, 0
3, 77897, Note_on_c, 0, 46, 50
3, 77902, Note_on_c, 0, 56, 44
3, 77903, Note_on_c, 0, 65, 43
3, 77903, Note_on_c, 0, 60, 50
3, 77914, Note_on_c, 0, 60, 0
3, 77922, Note_on_c, 0, 46, 0
3, 77928, Note_on_c, 0, 56, 0
3, 77940, Note_on_c, 0, 63, 0
3, 77957, Note_on_c, 0, 65, 0
3, 77994, Control_c, 0, 64, 0
3, 78013, Note_on_c, 0, 46, 62
3, 78013, Note_on_c, 0, 67, 75
3, 78014, Note_on_c, 0, 56, 80
3, 78015, Note_on_c, 0, 62, 78
3, 78015, Note_on_c, 0, 64, 71
3, 78016, Note_on_c, 0, 59, 80
3, 78019, Note_on_c, 0, 65, 61
3, 78029, Note_on_c, 0, 65, 0
3, 78031, Control_c, 0, 64, 127
3, 78040, Note_on_c, 0, 59, 0
3, 78043, Note_on_c, 0, 56, 0
3, 78057, Note_on_c, 0, 46, 0
3, 78068, Note_on_c, 0, 62, 0
3, 78076, Note_on_c, 0, 64, 0
3, 78080, Note_on_c, 0, 67, 0
3, 78189, Control_c, 0, 64, 0
3, 78205, Note_on_c, 0, 39, 95
3, 78206, Note_on_c, 0, 27, 92
3, 78208, Note_on_c, 0, 94, 92
3, 78208, Note_on_c, 0, 82, 90
3, 78213, Note_on_c, 0, 30, 44
3, 78215, Note_on_c, 0, 95, 64
3, 78221, Note_on_c, 0, 30, 0
3, 78270, Control_c, 0, 64, 127
3, 78506, Note_on_c, 0, 95, 0
3, 78550, Note_on_c, 0, 94, 0
3, 78556, Note_on_c, 0, 82, 0
3, 78654, Note_on_c, 0, 27, 0
3, 78663, Note_on_c, 0, 39, 0
3, 78747, Control_c, 0, 64, 0
3, 78763, Control_c, 0, 64, 127
3, 78783, Note_on_c, 0, 51, 62
3, 78807, Control_c, 0, 64, 0
3, 78879, Control_c, 0, 64, 127
3, 78912, Note_on_c, 0, 60, 57
3, 78937, Note_on_c, 0, 51, 0
3, 78998, Note_on_c, 0, 65, 66
3, 79061, Note_on_c, 0, 72, 39
3, 79098, Note_on_c, 0, 72, 0
3, 79101, Note_on_c, 0, 74, 62
3, 79122, Note_on_c, 0, 74, 0
3, 79150, Note_on_c, 0, 77, 64
3, 79188, Note_on_c, 0, 79, 52
3, 79192, Note_on_c, 0, 77, 0
3, 79220, Note_on_c, 0, 79, 0
3, 79224, Note_on_c, 0, 81, 64
3, 79236, Note_on_c, 0, 81, 0
3, 79264, Note_on_c, 0, 84, 71
3, 79295, Note_on_c, 0, 84, 0
3, 79298, Note_on_c, 0, 86, 79
3, 79310, Note_on_c, 0, 86, 0
3, 79343, Note_on_c, 0, 89, 65
3, 79382, Note_on_c, 0, 89, 0
3, 79382, Note_on_c, 0, 91, 57
3, 79414, Note_on_c, 0, 91, 0
3, 79416, Note_on_c, 0, 93, 73
3, 79432, Note_on_c, 0, 93, 0
3, 79467, Note_on_c, 0, 96, 63
3, 79495, Note_on_c, 0, 96, 0
3, 79502, Note_on_c, 0, 98, 57
3, 79524, Note_on_c, 0, 98, 0
3, 79548, Note_on_c, 0, 100, 66
3, 79587, Note_on_c, 0, 100, 0
3, 79605, Note_on_c, 0, 101, 77
3, 79779, Note_on_c, 0, 65, 0
3, 79785, Note_on_c, 0, 60, 0
3, 80068, Note_on_c, 0, 27, 48
3, 80094, Note_on_c, 0, 101, 0
3, 80129, Note_on_c, 0, 27, 0
3, 80160, Control_c, 0, 64, 0
3, 80160, End_track
4, 0, Start_track
4, 4, Note_on_c, 1, 39, 64
4, 50, Note_on_c, 1, 39, 0
4, 134, Note_on_c, 1, 46, 77
4, 369, Note_on_c, 1, 46, 0
4, 375, Note_on_c, 1, 44, 83
4, 487, Note_on_c, 1, 44, 0
4, 494, Note_on_c, 1, 43, 78
4, 613, Note_on_c, 1, 37, 56
4, 636, Note_on_c, 1, 43, 0
4, 733, Note_on_c, 1, 36, 62
4, 747, Note_on_c, 1, 37, 0
4, 849, Note_on_c, 1, 42, 80
4, 862, Note_on_c, 1, 36, 0
4, 967, Note_on_c, 1, 42, 0
4, 975, Note_on_c, 1, 41, 77
4, 1088, Note_on_c, 1, 33, 70
4, 1089, Note_on_c, 1, 41, 0
4, 1204, Note_on_c, 1, 33, 0
4, 1211, Note_on_c, 1, 34, 78
4, 1320, Note_on_c, 1, 34, 0
4, 1337, Note_on_c, 1, 38, 80
4, 1426, Note_on_c, 1, 34, 33
4, 1430, Note_on_c, 1, 38, 0
4, 1440, Note_on_c, 1, 34, 0
4, 1455, Note_on_c, 1, 39, 80
4, 1528, Note_on_c, 1, 34, 83
4, 1546, Note_on_c, 1, 39, 0
4, 1760, Note_on_c, 1, 35, 73
4, 1788, Note_on_c, 1, 35, 0
4, 1803, Note_on_c, 1, 34, 0
4, 1808, Note_on_c, 1, 38, 79
4, 1901, Note_on_c, 1, 38, 0
4, 1924, Note_on_c, 1, 39, 61
4, 1987, Note_on_c, 1, 39, 0
4, 2005, Note_on_c, 1, 39, 56
4, 2040, Note_on_c, 1, 39, 0
4, 2045, Note_on_c, 1, 41, 64
4, 2166, Note_on_c, 1, 43, 71
4, 2177, Note_on_c, 1, 41, 0
4, 2267, Note_on_c, 1, 43, 0
4, 2268, Note_on_c, 1, 39, 39
4, 2293, Note_on_c, 1, 39, 0
4, 2294, Note_on_c, 1, 46, 62
4, 2382, Note_on_c, 1, 39, 23
4, 2396, Note_on_c, 1, 46, 0
4, 2408, Note_on_c, 1, 50, 74
4, 2415, Note_on_c, 1, 39, 0
4, 2509, Note_on_c, 1, 39, 25
4, 2516, Note_on_c, 1, 50, 0
4, 2529, Note_on_c, 1, 39, 0
4, 2535, Note_on_c, 1, 46, 54
4, 2642, Note_on_c, 1, 46, 0
4, 2658, Note_on_c, 1, 43, 58
4, 2748, Note_on_c, 1, 43, 0
4, 2767, Note_on_c, 1, 33, 64
4, 2857, Note_on_c, 1, 33, 0
4, 2883, Note_on_c, 1, 32, 75
4, 3004, Note_on_c, 1, 48, 90
4, 3027, Note_on_c, 1, 32, 0
4, 3122, Note_on_c, 1, 48, 0
4, 3128, Note_on_c, 1, 44, 62
4, 3218, Note_on_c, 1, 44, 0
4, 3221, Note_on_c, 1, 32, 34
4, 3236, Note_on_c, 1, 32, 0
4, 3253, Note_on_c, 1, 42, 74
4, 3353, Note_on_c, 1, 42, 0
4, 3369, Note_on_c, 1, 43, 71
4, 3459, Note_on_c, 1, 43, 0
4, 3482, Note_on_c, 1, 31, 80
4, 3484, Note_on_c, 1, 33, 78
4, 3525, Note_on_c, 1, 33, 0
4, 3587, Note_on_c, 1, 31, 0
4, 3605, Note_on_c, 1, 34, 61
4, 3712, Note_on_c, 1, 34, 0
4, 3720, Note_on_c, 1, 35, 66
4, 3827, Note_on_c, 1, 35, 0
4, 3840, Note_on_c, 1, 36, 53
4, 3863, Note_on_c, 1, 36, 0
4, 3919, Note_on_c, 1, 36, 43
4, 3937, Note_on_c, 1, 36, 0
4, 3956, Note_on_c, 1, 38, 72
4, 4048, Note_on_c, 1, 34, 26
4, 4066, Note_on_c, 1, 38, 0
4, 4069, Note_on_c, 1, 34, 0
4, 4078, Note_on_c, 1, 39, 57
4, 4165, Note_on_c, 1, 39, 0
4, 4179, Note_on_c, 1, 36, 29
4, 4201, Note_on_c, 1, 43, 71
4, 4202, Note_on_c, 1, 36, 0
4, 4283, Note_on_c, 1, 43, 0
4, 4289, Note_on_c, 1, 36, 40
4, 4306, Note_on_c, 1, 36, 0
4, 4333, Note_on_c, 1, 50, 83
4, 4423, Note_on_c, 1, 50, 0
4, 4448, Note_on_c, 1, 49, 64
4, 4553, Note_on_c, 1, 49, 0
4, 4568, Note_on_c, 1, 48, 62
4, 4664, Note_on_c, 1, 36, 53
4, 4673, Note_on_c, 1, 48, 0
4, 4688, Note_on_c, 1, 36, 0
4, 4691, Note_on_c, 1, 47, 84
4, 4704, Note_on_c, 1, 48, 31
4, 4716, Note_on_c, 1, 48, 0
4, 4803, Note_on_c, 1, 47, 0
4, 4816, Note_on_c, 1, 46, 64
4, 4923, Note_on_c, 1, 46, 0
4, 4933, Note_on_c, 1, 41, 71
4, 5056, Note_on_c, 1, 41, 0
4, 5062, Note_on_c, 1, 34, 51
4, 5153, Note_on_c, 1, 34, 0
4, 5173, Note_on_c, 1, 38, 75
4, 5283, Note_on_c, 1, 38, 0
4, 5298, Note_on_c, 1, 39, 67
4, 5368, Note_on_c, 1, 39, 0
4, 5414, Note_on_c, 1, 37, 70
4, 5516, Note_on_c, 1, 37, 0
4, 5533, Note_on_c, 1, 36, 48
4, 5619, Note_on_c, 1, 36, 0
4, 5661, Note_on_c, 1, 33, 80
4, 5750, Note_on_c, 1, 33, 0
4, 5770, Note_on_c, 1, 32, 64
4, 5822, Note_on_c, 1, 32, 0
4, 5881, Note_on_c, 1, 32, 70
4, 6009, Note_on_c, 1, 46, 67
4, 6045, Note_on_c, 1, 32, 0
4, 6094, Note_on_c, 1, 46, 0
4, 6118, Note_on_c, 1, 36, 68
4, 6212, Note_on_c, 1, 36, 0
4, 6245, Note_on_c, 1, 37, 69
4, 6375, Note_on_c, 1, 51, 74
4, 6380, Note_on_c, 1, 37, 0
4, 6473, Note_on_c, 1, 37, 15
4, 6494, Note_on_c, 1, 51, 0
4, 6504, Note_on_c, 1, 37, 0
4, 6505, Note_on_c, 1, 49, 51
4, 6582, Note_on_c, 1, 49, 0
4, 6597, Note_on_c, 1, 38, 60
4, 6620, Note_on_c, 1, 38, 0
4, 6620, Note_on_c, 1, 50, 77
4, 6723, Note_on_c, 1, 50, 0
4, 6731, Note_on_c, 1, 51, 64
4, 6849, Note_on_c, 1, 46, 52
4, 6857, Note_on_c, 1, 51, 0
4, 6972, Note_on_c, 1, 43, 45
4, 7067, Note_on_c, 1, 46, 0
4, 7072, Note_on_c, 1, 43, 0
4, 7091, Note_on_c, 1, 37, 69
4, 7204, Note_on_c, 1, 37, 0
4, 7210, Note_on_c, 1, 36, 57
4, 7308, Note_on_c, 1, 37, 34
4, 7320, Note_on_c, 1, 37, 0
4, 7322, Note_on_c, 1, 36, 0
4, 7334, Note_on_c, 1, 50, 85
4, 7434, Note_on_c, 1, 50, 0
4, 7456, Note_on_c, 1, 48, 66
4, 7537, Note_on_c, 1, 48, 0
4, 7568, Note_on_c, 1, 40, 74
4, 7663, Note_on_c, 1, 40, 0
4, 7680, Note_on_c, 1, 41, 62
4, 7776, Note_on_c, 1, 39, 35
4, 7796, Note_on_c, 1, 41, 0
4, 7799, Note_on_c, 1, 50, 87
4, 7803, Note_on_c, 1, 52, 62
4, 7814, Note_on_c, 1, 39, 0
4, 7815, Note_on_c, 1, 52, 0
4, 7883, Note_on_c, 1, 39, 27
4, 7910, Note_on_c, 1, 39, 0
4, 7912, Note_on_c, 1, 50, 0
4, 7922, Note_on_c, 1, 48, 57
4, 8010, Note_on_c, 1, 41, 52
4, 8031, Note_on_c, 1, 48, 0
4, 8038, Note_on_c, 1, 41, 0
4, 8046, Note_on_c, 1, 55, 80
4, 8164, Note_on_c, 1, 55, 0
4, 8176, Note_on_c, 1, 53, 64
4, 8277, Note_on_c, 1, 53, 0
4, 8293, Note_on_c, 1, 51, 46
4, 8363, Note_on_c, 1, 41, 45
4, 8381, Note_on_c, 1, 41, 0
4, 8392, Note_on_c, 1, 51, 0
4, 8413, Note_on_c, 1, 50, 64
4, 8480, Note_on_c, 1, 50, 0
4, 8485, Note_on_c, 1, 41, 39
4, 8504, Note_on_c, 1, 41, 0
4, 8526, Note_on_c, 1, 48, 49
4, 8601, Note_on_c, 1, 48, 0
4, 8613, Note_on_c, 1, 41, 26
4, 8627, Note_on_c, 1, 41, 0
4, 8644, Note_on_c, 1, 46, 49
4, 8724, Note_on_c, 1, 46, 0
4, 8727, Note_on_c, 1, 41, 27
4, 8742, Note_on_c, 1, 41, 0
4, 8760, Note_on_c, 1, 44, 69
4, 8847, Note_on_c, 1, 44, 0
4, 8884, Note_on_c, 1, 43, 51
4, 8978, Note_on_c, 1, 43, 0
4, 9000, Note_on_c, 1, 41, 60
4, 9111, Note_on_c, 1, 41, 0
4, 9130, Note_on_c, 1, 39, 58
4, 9226, Note_on_c, 1, 39, 0
4, 9244, Note_on_c, 1, 40, 62
4, 9337, Note_on_c, 1, 40, 0
4, 9358, Note_on_c, 1, 41, 34
4, 9465, Note_on_c, 1, 41, 0
4, 9480, Note_on_c, 1, 38, 65
4, 9574, Note_on_c, 1, 38, 0
4, 9596, Note_on_c, 1, 39, 69
4, 9684, Note_on_c, 1, 39, 0
4, 9718, Note_on_c, 1, 41, 83
4, 9827, Note_on_c, 1, 41, 0
4, 9841, Note_on_c, 1, 43, 61
4, 9914, Note_on_c, 1, 39, 35
4, 9926, Note_on_c, 1, 39, 0
4, 9939, Note_on_c, 1, 43, 0
4, 9962, Note_on_c, 1, 46, 62
4, 10026, Note_on_c, 1, 39, 30
4, 10058, Note_on_c, 1, 39, 0
4, 10063, Note_on_c, 1, 46, 0
4, 10077, Note_on_c, 1, 50, 75
4, 10184, Note_on_c, 1, 50, 0
4, 10200, Note_on_c, 1, 43, 57
4, 10296, Note_on_c, 1, 43, 0
4, 10328, Note_on_c, 1, 39, 75
4, 10427, Note_on_c, 1, 39, 0
4, 10444, Note_on_c, 1, 37, 65
4, 10542, Note_on_c, 1, 37, 0
4, 10551, Note_on_c, 1, 38, 82
4, 10645, Note_on_c, 1, 37, 70
4, 10664, Note_on_c, 1, 38, 0
4, 10684, Note_on_c, 1, 37, 0
4, 10685, Note_on_c, 1, 44, 92
4, 10786, Note_on_c, 1, 38, 25
4, 10797, Note_on_c, 1, 44, 0
4, 10801, Note_on_c, 1, 46, 59
4, 10802, Note_on_c, 1, 38, 0
4, 10885, Note_on_c, 1, 38, 41
4, 10903, Note_on_c, 1, 38, 0
4, 10905, Note_on_c, 1, 46, 0
4, 10922, Note_on_c, 1, 42, 77
4, 11028, Note_on_c, 1, 42, 0
4, 11043, Note_on_c, 1, 43, 56
4, 11150, Note_on_c, 1, 43, 0
4, 11159, Note_on_c, 1, 38, 82
4, 11273, Note_on_c, 1, 38, 0
4, 11292, Note_on_c, 1, 35, 58
4, 11390, Note_on_c, 1, 35, 0
4, 11406, Note_on_c, 1, 31, 63
4, 11517, Note_on_c, 1, 36, 77
4, 11520, Note_on_c, 1, 31, 0
4, 11632, Note_on_c, 1, 36, 0
4, 11635, Note_on_c, 1, 38, 84
4, 11742, Note_on_c, 1, 38, 0
4, 11759, Note_on_c, 1, 39, 59
4, 11845, Note_on_c, 1, 36, 55
4, 11862, Note_on_c, 1, 39, 0
4, 11865, Note_on_c, 1, 36, 0
4, 11878, Note_on_c, 1, 41, 67
4, 11994, Note_on_c, 1, 41, 0
4, 12001, Note_on_c, 1, 43, 62
4, 12088, Note_on_c, 1, 36, 49
4, 12096, Note_on_c, 1, 43, 0
4, 12121, Note_on_c, 1, 36, 0
4, 12122, Note_on_c, 1, 50, 81
4, 12235, Note_on_c, 1, 50, 0
4, 12249, Note_on_c, 1, 48, 57
4, 12340, Note_on_c, 1, 38, 45
4, 12343, Note_on_c, 1, 48, 0
4, 12365, Note_on_c, 1, 38, 0
4, 12370, Note_on_c, 1, 53, 71
4, 12475, Note_on_c, 1, 53, 0
4, 12493, Note_on_c, 1, 46, 46
4, 12571, Note_on_c, 1, 41, 37
4, 12593, Note_on_c, 1, 41, 0
4, 12594, Note_on_c, 1, 46, 0
4, 12606, Note_on_c, 1, 51, 71
4, 12710, Note_on_c, 1, 51, 0
4, 12736, Note_on_c, 1, 45, 49
4, 12814, Note_on_c, 1, 45, 0
4, 12845, Note_on_c, 1, 40, 62
4, 12938, Note_on_c, 1, 40, 0
4, 12963, Note_on_c, 1, 39, 62
4, 13081, Note_on_c, 1, 51, 77
4, 13095, Note_on_c, 1, 39, 0
4, 13144, Note_on_c, 1, 39, 47
4, 13181, Note_on_c, 1, 39, 0
4, 13188, Note_on_c, 1, 51, 0
4, 13204, Note_on_c, 1, 46, 50
4, 13260, Note_on_c, 1, 46, 0
4, 13277, Note_on_c, 1, 39, 57
4, 13320, Note_on_c, 1, 39, 0
4, 13323, Note_on_c, 1, 43, 81
4, 13424, Note_on_c, 1, 43, 0
4, 13445, Note_on_c, 1, 44, 62
4, 13539, Note_on_c, 1, 39, 20
4, 13549, Note_on_c, 1, 44, 0
4, 13558, Note_on_c, 1, 39, 0
4, 13567, Note_on_c, 1, 43, 72
4, 13658, Note_on_c, 1, 43, 0
4, 13686, Note_on_c, 1, 41, 54
4, 13789, Note_on_c, 1, 41, 0
4, 13804, Note_on_c, 1, 39, 59
4, 13902, Note_on_c, 1, 39, 0
4, 13927, Note_on_c, 1, 37, 52
4, 14008, Note_on_c, 1, 34, 42
4, 14048, Note_on_c, 1, 37, 0
4, 14049, Note_on_c, 1, 34, 0
4, 14049, Note_on_c, 1, 51, 61
4, 14145, Note_on_c, 1, 51, 0
4, 14167, Note_on_c, 1, 49, 62
4, 14243, Note_on_c, 1, 49, 0
4, 14255, Note_on_c, 1, 39, 29
4, 14284, Note_on_c, 1, 39, 0
4, 14289, Note_on_c, 1, 50, 81
4, 14374, Note_on_c, 1, 50, 0
4, 14408, Note_on_c, 1, 51, 74
4, 14489, Note_on_c, 1, 39, 28
4, 14505, Note_on_c, 1, 39, 0
4, 14514, Note_on_c, 1, 51, 0
4, 14527, Note_on_c, 1, 46, 60
4, 14631, Note_on_c, 1, 46, 0
4, 14649, Note_on_c, 1, 43, 57
4, 14695, Note_on_c, 1, 43, 0
4, 14763, Note_on_c, 1, 44, 71
4, 14870, Note_on_c, 1, 44, 0
4, 14884, Note_on_c, 1, 45, 66
4, 14994, Note_on_c, 1, 45, 0
4, 14999, Note_on_c, 1, 39, 55
4, 15114, Note_on_c, 1, 39, 0
4, 15122, Note_on_c, 1, 38, 55
4, 15200, Note_on_c, 1, 38, 0
4, 15244, Note_on_c, 1, 38, 67
4, 15366, Note_on_c, 1, 46, 55
4, 15369, Note_on_c, 1, 38, 0
4, 15443, Note_on_c, 1, 39, 25
4, 15465, Note_on_c, 1, 46, 0
4, 15474, Note_on_c, 1, 39, 0
4, 15483, Note_on_c, 1, 46, 70
4, 15574, Note_on_c, 1, 39, 29
4, 15586, Note_on_c, 1, 46, 0
4, 15601, Note_on_c, 1, 39, 0
4, 15607, Note_on_c, 1, 44, 50
4, 15695, Note_on_c, 1, 44, 0
4, 15725, Note_on_c, 1, 44, 69
4, 15785, Note_on_c, 1, 39, 37
4, 15818, Note_on_c, 1, 39, 0
4, 15825, Note_on_c, 1, 44, 0
4, 15850, Note_on_c, 1, 43, 49
4, 15962, Note_on_c, 1, 43, 0
4, 15965, Note_on_c, 1, 37, 76
4, 16078, Note_on_c, 1, 37, 0
4, 16081, Note_on_c, 1, 36, 59
4, 16186, Note_on_c, 1, 34, 33
4, 16192, Note_on_c, 1, 36, 0
4, 16206, Note_on_c, 1, 42, 77
4, 16227, Note_on_c, 1, 34, 0
4, 16312, Note_on_c, 1, 42, 0
4, 16327, Note_on_c, 1, 41, 56
4, 16436, Note_on_c, 1, 41, 0
4, 16445, Note_on_c, 1, 33, 74
4, 16554, Note_on_c, 1, 33, 0
4, 16563, Note_on_c, 1, 34, 63
4, 16679, Note_on_c, 1, 34, 0
4, 16691, Note_on_c, 1, 41, 62
4, 16706, Note_on_c, 1, 40, 24
4, 16718, Note_on_c, 1, 40, 0
4, 16792, Note_on_c, 1, 41, 0
4, 16793, Note_on_c, 1, 34, 73
4, 16922, Note_on_c, 1, 46, 86
4, 16953, Note_on_c, 1, 34, 0
4, 17156, Note_on_c, 1, 34, 85
4, 17167, Note_on_c, 1, 46, 0
4, 17362, Note_on_c, 1, 39, 50
4, 17396, Note_on_c, 1, 39, 0
4, 17398, Note_on_c, 1, 46, 90
4, 17399, Note_on_c, 1, 34, 0
4, 17610, Note_on_c, 1, 39, 57
4, 17622, Note_on_c, 1, 46, 0
4, 17635, Note_on_c, 1, 39, 0
4, 17645, Note_on_c, 1, 48, 80
4, 17721, Note_on_c, 1, 39, 28
4, 17735, Note_on_c, 1, 39, 0
4, 17743, Note_on_c, 1, 48, 0
4, 17763, Note_on_c, 1, 46, 51
4, 17855, Note_on_c, 1, 46, 0
4, 17883, Note_on_c, 1, 43, 60
4, 17991, Note_on_c, 1, 43, 0
4, 18005, Note_on_c, 1, 36, 43
4, 18106, Note_on_c, 1, 36, 0
4, 18117, Note_on_c, 1, 37, 60
4, 18236, Note_on_c, 1, 37, 0
4, 18244, Note_on_c, 1, 38, 51
4, 18345, Note_on_c, 1, 34, 21
4, 18350, Note_on_c, 1, 38, 0
4, 18365, Note_on_c, 1, 44, 79
4, 18368, Note_on_c, 1, 34, 0
4, 18480, Note_on_c, 1, 44, 0
4, 18486, Note_on_c, 1, 32, 47
4, 18600, Note_on_c, 1, 32, 0
4, 18607, Note_on_c, 1, 30, 61
4, 18707, Note_on_c, 1, 30, 0
4, 18722, Note_on_c, 1, 31, 74
4, 18849, Note_on_c, 1, 33, 74
4, 18854, Note_on_c, 1, 31, 0
4, 18931, Note_on_c, 1, 33, 0
4, 18958, Note_on_c, 1, 34, 69
4, 19073, Note_on_c, 1, 34, 0
4, 19084, Note_on_c, 1, 35, 68
4, 19157, Note_on_c, 1, 35, 0
4, 19161, Note_on_c, 1, 34, 65
4, 19196, Note_on_c, 1, 34, 0
4, 19212, Note_on_c, 1, 36, 71
4, 19309, Note_on_c, 1, 34, 45
4, 19319, Note_on_c, 1, 36, 0
4, 19328, Note_on_c, 1, 38, 74
4, 19341, Note_on_c, 1, 34, 0
4, 19442, Note_on_c, 1, 38, 0
4, 19448, Note_on_c, 1, 39, 63
4, 19531, Note_on_c, 1, 36, 50
4, 19553, Note_on_c, 1, 36, 0
4, 19556, Note_on_c, 1, 39, 0
4, 19563, Note_on_c, 1, 40, 79
4, 19659, Note_on_c, 1, 36, 27
4, 19674, Note_on_c, 1, 36, 0
4, 19679, Note_on_c, 1, 40, 0
4, 19685, Note_on_c, 1, 41, 60
4, 19778, Note_on_c, 1, 41, 0
4, 19809, Note_on_c, 1, 43, 55
4, 19902, Note_on_c, 1, 36, 36
4, 19903, Note_on_c, 1, 43, 0
4, 19919, Note_on_c, 1, 36, 0
4, 19928, Note_on_c, 1, 46, 60
4, 20026, Note_on_c, 1, 46, 0
4, 20041, Note_on_c, 1, 50, 71
4, 20121, Note_on_c, 1, 39, 28
4, 20136, Note_on_c, 1, 39, 0
4, 20143, Note_on_c, 1, 50, 0
4, 20159, Note_on_c, 1, 46, 39
4, 20258, Note_on_c, 1, 41, 22
4, 20263, Note_on_c, 1, 46, 0
4, 20285, Note_on_c, 1, 41, 0
4, 20287, Note_on_c, 1, 46, 38
4, 20363, Note_on_c, 1, 41, 38
4, 20385, Note_on_c, 1, 46, 0
4, 20386, Note_on_c, 1, 41, 0
4, 20403, Note_on_c, 1, 49, 77
4, 20487, Note_on_c, 1, 49, 0
4, 20490, Note_on_c, 1, 41, 30
4, 20506, Note_on_c, 1, 41, 0
4, 20520, Note_on_c, 1, 49, 74
4, 20634, Note_on_c, 1, 39, 53
4, 20646, Note_on_c, 1, 49, 0
4, 20722, Note_on_c, 1, 39, 0
4, 20745, Note_on_c, 1, 39, 69
4, 20871, Note_on_c, 1, 53, 85
4, 20875, Note_on_c, 1, 39, 0
4, 20944, Note_on_c, 1, 43, 57
4, 20952, Note_on_c, 1, 53, 0
4, 20973, Note_on_c, 1, 43, 0
4, 21000, Note_on_c, 1, 43, 69
4, 21075, Note_on_c, 1, 43, 0
4, 21098, Note_on_c, 1, 46, 59
4, 21174, Note_on_c, 1, 39, 32
4, 21201, Note_on_c, 1, 46, 0
4, 21204, Note_on_c, 1, 39, 0
4, 21232, Note_on_c, 1, 44, 68
4, 21306, Note_on_c, 1, 39, 27
4, 21324, Note_on_c, 1, 39, 0
4, 21343, Note_on_c, 1, 44, 0
4, 21360, Note_on_c, 1, 43, 59
4, 21443, Note_on_c, 1, 39, 40
4, 21449, Note_on_c, 1, 43, 0
4, 21456, Note_on_c, 1, 39, 0
4, 21485, Note_on_c, 1, 41, 60
4, 21583, Note_on_c, 1, 41, 0
4, 21610, Note_on_c, 1, 37, 55
4, 21699, Note_on_c, 1, 40, 31
4, 21723, Note_on_c, 1, 40, 0
4, 21728, Note_on_c, 1, 51, 77
4, 21746, Note_on_c, 1, 37, 0
4, 21811, Note_on_c, 1, 41, 22
4, 21826, Note_on_c, 1, 41, 0
4, 21842, Note_on_c, 1, 51, 0
4, 21851, Note_on_c, 1, 49, 57
4, 21935, Note_on_c, 1, 49, 0
4, 21951, Note_on_c, 1, 41, 39
4, 21965, Note_on_c, 1, 50, 80
4, 21971, Note_on_c, 1, 41, 0
4, 22039, Note_on_c, 1, 42, 37
4, 22051, Note_on_c, 1, 42, 0
4, 22066, Note_on_c, 1, 50, 0
4, 22086, Note_on_c, 1, 51, 74
4, 22164, Note_on_c, 1, 39, 27
4, 22180, Note_on_c, 1, 39, 0
4, 22196, Note_on_c, 1, 51, 0
4, 22210, Note_on_c, 1, 46, 60
4, 22313, Note_on_c, 1, 46, 0
4, 22329, Note_on_c, 1, 43, 58
4, 22434, Note_on_c, 1, 43, 0
4, 22444, Note_on_c, 1, 37, 71
4, 22555, Note_on_c, 1, 34, 25
4, 22566, Note_on_c, 1, 37, 0
4, 22571, Note_on_c, 1, 34, 0
4, 22577, Note_on_c, 1, 36, 55
4, 22668, Note_on_c, 1, 34, 52
4, 22689, Note_on_c, 1, 36, 0
4, 22690, Note_on_c, 1, 50, 95
4, 22696, Note_on_c, 1, 49, 59
4, 22708, Note_on_c, 1, 49, 0
4, 22717, Note_on_c, 1, 34, 0
4, 22788, Note_on_c, 1, 50, 0
4, 22807, Note_on_c, 1, 48, 68
4, 22911, Note_on_c, 1, 48, 0
4, 22920, Note_on_c, 1, 40, 76
4, 23028, Note_on_c, 1, 40, 0
4, 23043, Note_on_c, 1, 41, 64
4, 23129, Note_on_c, 1, 39, 48
4, 23140, Note_on_c, 1, 41, 0
4, 23155, Note_on_c, 1, 39, 0
4, 23160, Note_on_c, 1, 50, 108
4, 23269, Note_on_c, 1, 50, 0
4, 23284, Note_on_c, 1, 48, 74
4, 23293, Note_on_c, 1, 50, 19
4, 23306, Note_on_c, 1, 50, 0
4, 23365, Note_on_c, 1, 41, 46
4, 23381, Note_on_c, 1, 41, 0
4, 23393, Note_on_c, 1, 48, 0
4, 23405, Note_on_c, 1, 45, 71
4, 23514, Note_on_c, 1, 45, 0
4, 23530, Note_on_c, 1, 41, 66
4, 23633, Note_on_c, 1, 41, 0
4, 23644, Note_on_c, 1, 36, 69
4, 23765, Note_on_c, 1, 29, 68
4, 23783, Note_on_c, 1, 36, 0
4, 23877, Note_on_c, 1, 29, 0
4, 23888, Note_on_c, 1, 33, 54
4, 23973, Note_on_c, 1, 33, 0
4, 24093, Note_on_c, 1, 41, 68
4, 24106, Note_on_c, 1, 41, 0
4, 24224, Note_on_c, 1, 36, 33
4, 24253, Note_on_c, 1, 36, 0
4, 24258, Note_on_c, 1, 48, 60
4, 24359, Note_on_c, 1, 48, 0
4, 24371, Note_on_c, 1, 47, 63
4, 24455, Note_on_c, 1, 41, 37
4, 24477, Note_on_c, 1, 41, 0
4, 24480, Note_on_c, 1, 47, 0
4, 24493, Note_on_c, 1, 46, 67
4, 24583, Note_on_c, 1, 38, 33
4, 24586, Note_on_c, 1, 46, 0
4, 24600, Note_on_c, 1, 38, 0
4, 24607, Note_on_c, 1, 44, 69
4, 24697, Note_on_c, 1, 38, 25
4, 24709, Note_on_c, 1, 44, 0
4, 24713, Note_on_c, 1, 38, 0
4, 24726, Note_on_c, 1, 43, 61
4, 24800, Note_on_c, 1, 38, 37
4, 24816, Note_on_c, 1, 38, 0
4, 24819, Note_on_c, 1, 43, 0
4, 24843, Note_on_c, 1, 41, 64
4, 24959, Note_on_c, 1, 39, 57
4, 24962, Note_on_c, 1, 41, 0
4, 25076, Note_on_c, 1, 43, 68
4, 25084, Note_on_c, 1, 39, 0
4, 25187, Note_on_c, 1, 43, 0
4, 25204, Note_on_c, 1, 41, 60
4, 25284, Note_on_c, 1, 41, 0
4, 25289, Note_on_c, 1, 39, 47
4, 25321, Note_on_c, 1, 50, 67
4, 25327, Note_on_c, 1, 39, 0
4, 25412, Note_on_c, 1, 39, 21
4, 25426, Note_on_c, 1, 50, 0
4, 25430, Note_on_c, 1, 39, 0
4, 25445, Note_on_c, 1, 46, 51
4, 25556, Note_on_c, 1, 46, 0
4, 25565, Note_on_c, 1, 43, 79
4, 25678, Note_on_c, 1, 43, 0
4, 25678, Note_on_c, 1, 39, 71
4, 25780, Note_on_c, 1, 39, 0
4, 25803, Note_on_c, 1, 37, 59
4, 25904, Note_on_c, 1, 37, 0
4, 25915, Note_on_c, 1, 38, 63
4, 26009, Note_on_c, 1, 37, 42
4, 26023, Note_on_c, 1, 38, 0
4, 26040, Note_on_c, 1, 48, 113
4, 26043, Note_on_c, 1, 37, 0
4, 26163, Note_on_c, 1, 48, 0
4, 26164, Note_on_c, 1, 44, 72
4, 26268, Note_on_c, 1, 44, 0
4, 26279, Note_on_c, 1, 32, 79
4, 26396, Note_on_c, 1, 32, 0
4, 26402, Note_on_c, 1, 31, 73
4, 26519, Note_on_c, 1, 47, 115
4, 26541, Note_on_c, 1, 31, 0
4, 26620, Note_on_c, 1, 47, 0
4, 26643, Note_on_c, 1, 43, 57
4, 26762, Note_on_c, 1, 35, 81
4, 26771, Note_on_c, 1, 43, 0
4, 26891, Note_on_c, 1, 35, 0
4, 26892, Note_on_c, 1, 36, 74
4, 26980, Note_on_c, 1, 35, 50
4, 26997, Note_on_c, 1, 35, 0
4, 27001, Note_on_c, 1, 50, 110
4, 27010, Note_on_c, 1, 36, 0
4, 27118, Note_on_c, 1, 50, 0
4, 27130, Note_on_c, 1, 48, 57
4, 27245, Note_on_c, 1, 43, 73
4, 27283, Note_on_c, 1, 48, 0
4, 27355, Note_on_c, 1, 42, 28
4, 27370, Note_on_c, 1, 53, 90
4, 27375, Note_on_c, 1, 42, 0
4, 27390, Note_on_c, 1, 43, 0
4, 27495, Note_on_c, 1, 51, 51
4, 27582, Note_on_c, 1, 53, 0
4, 27606, Note_on_c, 1, 51, 0
4, 27613, Note_on_c, 1, 50, 57
4, 27707, Note_on_c, 1, 43, 40
4, 27717, Note_on_c, 1, 50, 0
4, 27728, Note_on_c, 1, 43, 0
4, 27735, Note_on_c, 1, 55, 77
4, 27840, Note_on_c, 1, 55, 0
4, 27854, Note_on_c, 1, 53, 56
4, 27955, Note_on_c, 1, 53, 0
4, 27964, Note_on_c, 1, 51, 55
4, 28049, Note_on_c, 1, 51, 0
4, 28084, Note_on_c, 1, 50, 51
4, 28172, Note_on_c, 1, 50, 0
4, 28201, Note_on_c, 1, 48, 59
4, 28279, Note_on_c, 1, 42, 23
4, 28297, Note_on_c, 1, 48, 0
4, 28300, Note_on_c, 1, 42, 0
4, 28314, Note_on_c, 1, 49, 68
4, 28401, Note_on_c, 1, 49, 0
4, 28448, Note_on_c, 1, 50, 71
4, 28523, Note_on_c, 1, 50, 0
4, 28527, Note_on_c, 1, 41, 32
4, 28545, Note_on_c, 1, 41, 0
4, 28552, Note_on_c, 1, 51, 73
4, 28646, Note_on_c, 1, 51, 0
4, 28663, Note_on_c, 1, 46, 49
4, 28753, Note_on_c, 1, 39, 28
4, 28775, Note_on_c, 1, 39, 0
4, 28775, Note_on_c, 1, 46, 0
4, 28802, Note_on_c, 1, 44, 63
4, 28861, Note_on_c, 1, 39, 23
4, 28884, Note_on_c, 1, 39, 0
4, 28893, Note_on_c, 1, 44, 0
4, 28930, Note_on_c, 1, 44, 62
4, 29040, Note_on_c, 1, 44, 0
4, 29047, Note_on_c, 1, 39, 39
4, 29147, Note_on_c, 1, 39, 0
4, 29165, Note_on_c, 1, 39, 79
4, 29266, Note_on_c, 1, 39, 0
4, 29282, Note_on_c, 1, 37, 55
4, 29388, Note_on_c, 1, 37, 0
4, 29399, Note_on_c, 1, 37, 54
4, 29518, Note_on_c, 1, 49, 69
4, 29549, Note_on_c, 1, 37, 0
4, 29601, Note_on_c, 1, 38, 53
4, 29613, Note_on_c, 1, 49, 0
4, 29635, Note_on_c, 1, 38, 0
4, 29641, Note_on_c, 1, 50, 88
4, 29719, Note_on_c, 1, 38, 34
4, 29734, Note_on_c, 1, 50, 0
4, 29736, Note_on_c, 1, 38, 0
4, 29763, Note_on_c, 1, 51, 72
4, 29850, Note_on_c, 1, 39, 31
4, 29862, Note_on_c, 1, 39, 0
4, 29870, Note_on_c, 1, 51, 0
4, 29882, Note_on_c, 1, 46, 61
4, 29893, Note_on_c, 1, 51, 19
4, 29955, Note_on_c, 1, 39, 31
4, 29968, Note_on_c, 1, 39, 0
4, 29972, Note_on_c, 1, 51, 0
4, 29987, Note_on_c, 1, 46, 0
4, 30005, Note_on_c, 1, 43, 60
4, 30121, Note_on_c, 1, 43, 0
4, 30127, Note_on_c, 1, 44, 67
4, 30211, Note_on_c, 1, 44, 0
4, 30239, Note_on_c, 1, 41, 73
4, 30357, Note_on_c, 1, 53, 88
4, 30361, Note_on_c, 1, 41, 0
4, 30484, Note_on_c, 1, 48, 53
4, 30509, Note_on_c, 1, 53, 0
4, 30522, Note_on_c, 1, 48, 0
4, 30603, Note_on_c, 1, 40, 62
4, 30606, Note_on_c, 1, 38, 38
4, 30622, Note_on_c, 1, 38, 0
4, 30688, Note_on_c, 1, 40, 0
4, 30722, Note_on_c, 1, 39, 67
4, 30836, Note_on_c, 1, 39, 0
4, 30849, Note_on_c, 1, 46, 79
4, 30927, Note_on_c, 1, 39, 33
4, 30944, Note_on_c, 1, 46, 0
4, 30964, Note_on_c, 1, 39, 0
4, 30966, Note_on_c, 1, 44, 76
4, 31048, Note_on_c, 1, 39, 38
4, 31062, Note_on_c, 1, 44, 0
4, 31084, Note_on_c, 1, 39, 0
4, 31087, Note_on_c, 1, 44, 77
4, 31175, Note_on_c, 1, 37, 30
4, 31187, Note_on_c, 1, 37, 0
4, 31190, Note_on_c, 1, 44, 0
4, 31211, Note_on_c, 1, 43, 66
4, 31326, Note_on_c, 1, 43, 0
4, 31330, Note_on_c, 1, 37, 68
4, 31448, Note_on_c, 1, 36, 67
4, 31463, Note_on_c, 1, 37, 0
4, 31542, Note_on_c, 1, 34, 51
4, 31560, Note_on_c, 1, 36, 0
4, 31578, Note_on_c, 1, 42, 67
4, 31586, Note_on_c, 1, 43, 69
4, 31588, Note_on_c, 1, 34, 0
4, 31649, Note_on_c, 1, 43, 0
4, 31650, Note_on_c, 1, 42, 0
4, 31652, Note_on_c, 1, 34, 32
4, 31665, Note_on_c, 1, 34, 0
4, 31689, Note_on_c, 1, 41, 73
4, 31776, Note_on_c, 1, 41, 0
4, 31806, Note_on_c, 1, 41, 67
4, 31916, Note_on_c, 1, 41, 0
4, 31926, Note_on_c, 1, 34, 76
4, 32026, Note_on_c, 1, 34, 0
4, 32044, Note_on_c, 1, 34, 83
4, 32146, Note_on_c, 1, 34, 0
4, 32163, Note_on_c, 1, 34, 76
4, 32286, Note_on_c, 1, 39, 81
4, 32304, Note_on_c, 1, 34, 0
4, 32372, Note_on_c, 1, 34, 48
4, 32388, Note_on_c, 1, 39, 0
4, 32404, Note_on_c, 1, 34, 0
4, 32408, Note_on_c, 1, 39, 78
4, 32517, Note_on_c, 1, 34, 80
4, 32518, Note_on_c, 1, 39, 0
4, 32643, Note_on_c, 1, 46, 77
4, 32662, Note_on_c, 1, 34, 0
4, 32733, Note_on_c, 1, 34, 21
4, 32769, Note_on_c, 1, 34, 0
4, 32842, Note_on_c, 1, 39, 56
4, 32876, Note_on_c, 1, 39, 0
4, 32878, Note_on_c, 1, 46, 0
4, 32891, Note_on_c, 1, 43, 66
4, 32993, Note_on_c, 1, 43, 0
4, 33008, Note_on_c, 1, 53, 76
4, 33114, Note_on_c, 1, 53, 0
4, 33114, Note_on_c, 1, 39, 20
4, 33132, Note_on_c, 1, 51, 58
4, 33137, Note_on_c, 1, 39, 0
4, 33215, Note_on_c, 1, 39, 21
4, 33231, Note_on_c, 1, 39, 0
4, 33233, Note_on_c, 1, 51, 0
4, 33273, Note_on_c, 1, 51, 23
4, 33293, Note_on_c, 1, 46, 33
4, 33331, Note_on_c, 1, 51, 0
4, 33336, Note_on_c, 1, 46, 0
4, 33363, Note_on_c, 1, 43, 70
4, 33469, Note_on_c, 1, 43, 0
4, 33481, Note_on_c, 1, 39, 52
4, 33571, Note_on_c, 1, 37, 38
4, 33591, Note_on_c, 1, 39, 0
4, 33602, Note_on_c, 1, 38, 57
4, 33605, Note_on_c, 1, 37, 0
4, 33718, Note_on_c, 1, 50, 94
4, 33728, Note_on_c, 1, 38, 0
4, 33825, Note_on_c, 1, 50, 0
4, 33842, Note_on_c, 1, 44, 59
4, 33963, Note_on_c, 1, 32, 69
4, 33965, Note_on_c, 1, 44, 0
4, 34091, Note_on_c, 1, 32, 0
4, 34091, Note_on_c, 1, 31, 62
4, 34160, Note_on_c, 1, 31, 0
4, 34183, Note_on_c, 1, 31, 71
4, 34224, Note_on_c, 1, 33, 71
4, 34256, Note_on_c, 1, 31, 0
4, 34334, Note_on_c, 1, 34, 63
4, 34341, Note_on_c, 1, 33, 0
4, 34421, Note_on_c, 1, 34, 0
4, 34432, Note_on_c, 1, 35, 63
4, 34554, Note_on_c, 1, 35, 0
4, 34560, Note_on_c, 1, 36, 53
4, 34648, Note_on_c, 1, 34, 45
4, 34660, Note_on_c, 1, 36, 0
4, 34664, Note_on_c, 1, 34, 0
4, 34680, Note_on_c, 1, 38, 65
4, 34782, Note_on_c, 1, 38, 0
4, 34797, Note_on_c, 1, 39, 61
4, 34889, Note_on_c, 1, 36, 30
4, 34908, Note_on_c, 1, 39, 0
4, 34915, Note_on_c, 1, 36, 0
4, 34916, Note_on_c, 1, 40, 67
4, 35012, Note_on_c, 1, 40, 0
4, 35033, Note_on_c, 1, 41, 54
4, 35124, Note_on_c, 1, 41, 0
4, 35128, Note_on_c, 1, 36, 44
4, 35160, Note_on_c, 1, 36, 0
4, 35160, Note_on_c, 1, 45, 67
4, 35253, Note_on_c, 1, 45, 0
4, 35257, Note_on_c, 1, 36, 35
4, 35277, Note_on_c, 1, 36, 0
4, 35279, Note_on_c, 1, 50, 73
4, 35292, Note_on_c, 1, 49, 36
4, 35304, Note_on_c, 1, 49, 0
4, 35388, Note_on_c, 1, 50, 0
4, 35401, Note_on_c, 1, 48, 68
4, 35470, Note_on_c, 1, 38, 36
4, 35491, Note_on_c, 1, 38, 0
4, 35494, Note_on_c, 1, 48, 0
4, 35524, Note_on_c, 1, 46, 64
4, 35593, Note_on_c, 1, 37, 26
4, 35609, Note_on_c, 1, 37, 0
4, 35643, Note_on_c, 1, 41, 65
4, 35687, Note_on_c, 1, 46, 0
4, 35732, Note_on_c, 1, 39, 38
4, 35743, Note_on_c, 1, 41, 0
4, 35754, Note_on_c, 1, 39, 0
4, 35768, Note_on_c, 1, 49, 74
4, 35847, Note_on_c, 1, 39, 37
4, 35865, Note_on_c, 1, 39, 0
4, 35867, Note_on_c, 1, 49, 0
4, 35876, Note_on_c, 1, 50, 68
4, 35964, Note_on_c, 1, 50, 0
4, 35966, Note_on_c, 1, 39, 37
4, 35985, Note_on_c, 1, 39, 0
4, 36003, Note_on_c, 1, 51, 77
4, 36096, Note_on_c, 1, 39, 18
4, 36101, Note_on_c, 1, 51, 0
4, 36112, Note_on_c, 1, 39, 0
4, 36122, Note_on_c, 1, 46, 57
4, 36201, Note_on_c, 1, 39, 27
4, 36216, Note_on_c, 1, 46, 0
4, 36221, Note_on_c, 1, 39, 0
4, 36244, Note_on_c, 1, 43, 55
4, 36328, Note_on_c, 1, 43, 0
4, 36364, Note_on_c, 1, 39, 54
4, 36465, Note_on_c, 1, 39, 0
4, 36475, Note_on_c, 1, 32, 81
4, 36593, Note_on_c, 1, 32, 0
4, 36598, Note_on_c, 1, 39, 62
4, 36602, Note_on_c, 1, 46, 54
4, 36625, Note_on_c, 1, 39, 0
4, 36704, Note_on_c, 1, 39, 30
4, 36723, Note_on_c, 1, 44, 61
4, 36724, Note_on_c, 1, 39, 0
4, 36755, Note_on_c, 1, 46, 0
4, 36810, Note_on_c, 1, 44, 0
4, 36835, Note_on_c, 1, 39, 62
4, 36951, Note_on_c, 1, 39, 0
4, 36967, Note_on_c, 1, 37, 62
4, 37087, Note_on_c, 1, 49, 86
4, 37106, Note_on_c, 1, 37, 0
4, 37200, Note_on_c, 1, 38, 82
4, 37217, Note_on_c, 1, 49, 0
4, 37304, Note_on_c, 1, 38, 0
4, 37319, Note_on_c, 1, 38, 74
4, 37444, Note_on_c, 1, 38, 0
4, 37447, Note_on_c, 1, 39, 78
4, 37541, Note_on_c, 1, 39, 0
4, 37560, Note_on_c, 1, 39, 81
4, 37678, Note_on_c, 1, 51, 86
4, 37687, Note_on_c, 1, 39, 0
4, 37769, Note_on_c, 1, 39, 50
4, 37785, Note_on_c, 1, 51, 0
4, 37799, Note_on_c, 1, 50, 76
4, 37803, Note_on_c, 1, 39, 0
4, 37878, Note_on_c, 1, 39, 51
4, 37899, Note_on_c, 1, 50, 0
4, 37900, Note_on_c, 1, 39, 0
4, 37921, Note_on_c, 1, 48, 75
4, 38029, Note_on_c, 1, 48, 0
4, 38038, Note_on_c, 1, 43, 79
4, 38158, Note_on_c, 1, 43, 0
4, 38164, Note_on_c, 1, 39, 64
4, 38276, Note_on_c, 1, 39, 0
4, 38279, Note_on_c, 1, 40, 75
4, 38390, Note_on_c, 1, 40, 0
4, 38404, Note_on_c, 1, 41, 88
4, 38517, Note_on_c, 1, 41, 0
4, 38642, Note_on_c, 1, 29, 82
4, 38759, Note_on_c, 1, 29, 0
4, 38774, Note_on_c, 1, 31, 63
4, 38885, Note_on_c, 1, 33, 72
4, 38902, Note_on_c, 1, 31, 0
4, 38992, Note_on_c, 1, 33, 0
4, 39005, Note_on_c, 1, 36, 66
4, 39129, Note_on_c, 1, 38, 71
4, 39130, Note_on_c, 1, 36, 0
4, 39214, Note_on_c, 1, 36, 55
4, 39225, Note_on_c, 1, 38, 0
4, 39240, Note_on_c, 1, 40, 88
4, 39247, Note_on_c, 1, 36, 0
4, 39333, Note_on_c, 1, 36, 33
4, 39344, Note_on_c, 1, 40, 0
4, 39351, Note_on_c, 1, 36, 0
4, 39362, Note_on_c, 1, 41, 71
4, 39448, Note_on_c, 1, 36, 43
4, 39465, Note_on_c, 1, 41, 0
4, 39470, Note_on_c, 1, 36, 0
4, 39480, Note_on_c, 1, 44, 55
4, 39502, Note_on_c, 1, 42, 25
4, 39514, Note_on_c, 1, 42, 0
4, 39563, Note_on_c, 1, 36, 41
4, 39580, Note_on_c, 1, 44, 0
4, 39594, Note_on_c, 1, 36, 0
4, 39601, Note_on_c, 1, 48, 75
4, 39694, Note_on_c, 1, 36, 35
4, 39708, Note_on_c, 1, 48, 0
4, 39718, Note_on_c, 1, 36, 0
4, 39725, Note_on_c, 1, 47, 72
4, 39818, Note_on_c, 1, 36, 22
4, 39829, Note_on_c, 1, 47, 0
4, 39831, Note_on_c, 1, 36, 0
4, 39855, Note_on_c, 1, 46, 64
4, 39970, Note_on_c, 1, 41, 82
4, 40090, Note_on_c, 1, 46, 0
4, 40093, Note_on_c, 1, 34, 60
4, 40098, Note_on_c, 1, 41, 0
4, 40201, Note_on_c, 1, 34, 0
4, 40203, Note_on_c, 1, 38, 85
4, 40320, Note_on_c, 1, 39, 74
4, 40322, Note_on_c, 1, 38, 0
4, 40386, Note_on_c, 1, 39, 0
4, 40406, Note_on_c, 1, 39, 75
4, 40444, Note_on_c, 1, 39, 0
4, 40445, Note_on_c, 1, 41, 71
4, 40537, Note_on_c, 1, 39, 21
4, 40543, Note_on_c, 1, 41, 0
4, 40558, Note_on_c, 1, 43, 69
4, 40559, Note_on_c, 1, 39, 0
4, 40651, Note_on_c, 1, 39, 43
4, 40658, Note_on_c, 1, 43, 0
4, 40679, Note_on_c, 1, 46, 68
4, 40688, Note_on_c, 1, 39, 0
4, 40761, Note_on_c, 1, 39, 31
4, 40783, Note_on_c, 1, 46, 0
4, 40792, Note_on_c, 1, 39, 0
4, 40800, Note_on_c, 1, 50, 75
4, 40901, Note_on_c, 1, 50, 0
4, 40919, Note_on_c, 1, 46, 47
4, 41025, Note_on_c, 1, 46, 0
4, 41041, Note_on_c, 1, 39, 62
4, 41149, Note_on_c, 1, 39, 0
4, 41166, Note_on_c, 1, 37, 62
4, 41264, Note_on_c, 1, 37, 0
4, 41279, Note_on_c, 1, 38, 74
4, 41399, Note_on_c, 1, 38, 0
4, 41409, Note_on_c, 1, 48, 115
4, 41519, Note_on_c, 1, 48, 0
4, 41534, Note_on_c, 1, 44, 55
4, 41640, Note_on_c, 1, 32, 78
4, 41646, Note_on_c, 1, 44, 0
4, 41746, Note_on_c, 1, 32, 0
4, 41765, Note_on_c, 1, 31, 71
4, 41882, Note_on_c, 1, 50, 103
4, 41887, Note_on_c, 1, 31, 0
4, 41997, Note_on_c, 1, 50, 0
4, 42009, Note_on_c, 1, 46, 23
4, 42011, Note_on_c, 1, 47, 75
4, 42021, Note_on_c, 1, 46, 0
4, 42122, Note_on_c, 1, 47, 0
4, 42124, Note_on_c, 1, 35, 62
4, 42238, Note_on_c, 1, 35, 0
4, 42240, Note_on_c, 1, 36, 76
4, 42356, Note_on_c, 1, 34, 34
4, 42368, Note_on_c, 1, 48, 96
4, 42373, Note_on_c, 1, 36, 0
4, 42389, Note_on_c, 1, 34, 0
4, 42447, Note_on_c, 1, 36, 33
4, 42455, Note_on_c, 1, 48, 0
4, 42484, Note_on_c, 1, 36, 0
4, 42488, Note_on_c, 1, 51, 74
4, 42584, Note_on_c, 1, 36, 36
4, 42595, Note_on_c, 1, 51, 0
4, 42604, Note_on_c, 1, 36, 0
4, 42608, Note_on_c, 1, 50, 78
4, 42706, Note_on_c, 1, 50, 0
4, 42728, Note_on_c, 1, 48, 77
4, 42842, Note_on_c, 1, 48, 0
4, 42855, Note_on_c, 1, 43, 75
4, 42953, Note_on_c, 1, 43, 0
4, 42973, Note_on_c, 1, 39, 60
4, 43068, Note_on_c, 1, 36, 47
4, 43070, Note_on_c, 1, 39, 0
4, 43085, Note_on_c, 1, 36, 0
4, 43095, Note_on_c, 1, 43, 76
4, 43171, Note_on_c, 1, 43, 0
4, 43187, Note_on_c, 1, 36, 37
4, 43204, Note_on_c, 1, 36, 0
4, 43207, Note_on_c, 1, 46, 63
4, 43292, Note_on_c, 1, 36, 37
4, 43305, Note_on_c, 1, 46, 0
4, 43311, Note_on_c, 1, 36, 0
4, 43329, Note_on_c, 1, 46, 77
4, 43443, Note_on_c, 1, 41, 56
4, 43524, Note_on_c, 1, 38, 24
4, 43546, Note_on_c, 1, 41, 0
4, 43550, Note_on_c, 1, 38, 0
4, 43564, Note_on_c, 1, 41, 68
4, 43672, Note_on_c, 1, 46, 0
4, 43680, Note_on_c, 1, 39, 62
4, 43777, Note_on_c, 1, 39, 0
4, 43793, Note_on_c, 1, 41, 0
4, 43798, Note_on_c, 1, 39, 76
4, 43916, Note_on_c, 1, 49, 86
4, 43929, Note_on_c, 1, 39, 0
4, 43986, Note_on_c, 1, 39, 48
4, 44008, Note_on_c, 1, 39, 0
4, 44019, Note_on_c, 1, 49, 0
4, 44033, Note_on_c, 1, 45, 77
4, 44110, Note_on_c, 1, 39, 39
4, 44122, Note_on_c, 1, 39, 0
4, 44141, Note_on_c, 1, 45, 0
4, 44160, Note_on_c, 1, 44, 67
4, 44238, Note_on_c, 1, 39, 47
4, 44252, Note_on_c, 1, 44, 0
4, 44255, Note_on_c, 1, 39, 0
4, 44276, Note_on_c, 1, 51, 74
4, 44346, Note_on_c, 1, 39, 35
4, 44365, Note_on_c, 1, 39, 0
4, 44384, Note_on_c, 1, 51, 0
4, 44401, Note_on_c, 1, 48, 62
4, 44473, Note_on_c, 1, 48, 0
4, 44522, Note_on_c, 1, 48, 80
4, 44601, Note_on_c, 1, 40, 26
4, 44616, Note_on_c, 1, 40, 0
4, 44621, Note_on_c, 1, 48, 0
4, 44646, Note_on_c, 1, 49, 73
4, 44706, Note_on_c, 1, 39, 38
4, 44735, Note_on_c, 1, 39, 0
4, 44746, Note_on_c, 1, 49, 0
4, 44770, Note_on_c, 1, 44, 59
4, 44874, Note_on_c, 1, 44, 0
4, 44887, Note_on_c, 1, 41, 60
4, 45010, Note_on_c, 1, 41, 0
4, 45010, Note_on_c, 1, 38, 68
4, 45110, Note_on_c, 1, 38, 0
4, 45124, Note_on_c, 1, 39, 63
4, 45220, Note_on_c, 1, 39, 0
4, 45246, Note_on_c, 1, 39, 65
4, 45358, Note_on_c, 1, 39, 0
4, 45363, Note_on_c, 1, 34, 62
4, 45454, Note_on_c, 1, 34, 0
4, 45478, Note_on_c, 1, 34, 56
4, 45570, Note_on_c, 1, 34, 0
4, 45601, Note_on_c, 1, 29, 63
4, 45725, Note_on_c, 1, 29, 0
4, 45733, Note_on_c, 1, 41, 82
4, 45849, Note_on_c, 1, 48, 108
4, 45867, Note_on_c, 1, 41, 0
4, 45932, Note_on_c, 1, 41, 58
4, 45955, Note_on_c, 1, 41, 0
4, 45966, Note_on_c, 1, 48, 0
4, 45973, Note_on_c, 1, 45, 64
4, 46057, Note_on_c, 1, 45, 0
4, 46092, Note_on_c, 1, 46, 64
4, 46167, Note_on_c, 1, 46, 0
4, 46186, Note_on_c, 1, 39, 25
4, 46206, Note_on_c, 1, 46, 85
4, 46224, Note_on_c, 1, 39, 0
4, 46290, Note_on_c, 1, 39, 28
4, 46306, Note_on_c, 1, 46, 0
4, 46311, Note_on_c, 1, 39, 0
4, 46330, Note_on_c, 1, 44, 67
4, 46416, Note_on_c, 1, 44, 0
4, 46453, Note_on_c, 1, 44, 74
4, 46539, Note_on_c, 1, 44, 0
4, 46574, Note_on_c, 1, 43, 71
4, 46670, Note_on_c, 1, 43, 0
4, 46696, Note_on_c, 1, 37, 72
4, 46792, Note_on_c, 1, 37, 0
4, 46815, Note_on_c, 1, 36, 57
4, 46889, Note_on_c, 1, 37, 60
4, 46901, Note_on_c, 1, 37, 0
4, 46927, Note_on_c, 1, 42, 83
4, 46929, Note_on_c, 1, 36, 0
4, 47027, Note_on_c, 1, 42, 0
4, 47045, Note_on_c, 1, 41, 70
4, 47125, Note_on_c, 1, 41, 0
4, 47159, Note_on_c, 1, 36, 72
4, 47259, Note_on_c, 1, 36, 0
4, 47286, Note_on_c, 1, 34, 67
4, 47386, Note_on_c, 1, 34, 0
4, 47401, Note_on_c, 1, 38, 77
4, 47480, Note_on_c, 1, 38, 0
4, 47525, Note_on_c, 1, 39, 81
4, 47622, Note_on_c, 1, 39, 0
4, 47647, Note_on_c, 1, 34, 73
4, 47760, Note_on_c, 1, 34, 0
4, 47760, Note_on_c, 1, 46, 86
4, 47846, Note_on_c, 1, 46, 0
4, 47877, Note_on_c, 1, 46, 77
4, 47947, Note_on_c, 1, 46, 0
4, 48000, Note_on_c, 1, 39, 86
4, 48080, Note_on_c, 1, 39, 0
4, 48080, Note_on_c, 1, 27, 44
4, 48103, Note_on_c, 1, 27, 0
4, 48120, Note_on_c, 1, 41, 90
4, 48240, Note_on_c, 1, 41, 0
4, 48240, Note_on_c, 1, 42, 92
4, 48321, Note_on_c, 1, 42, 0
4, 48321, Note_on_c, 1, 27, 78
4, 48341, Note_on_c, 1, 27, 0
4, 48360, Note_on_c, 1, 43, 78
4, 48480, Note_on_c, 1, 43, 0
4, 48480, Note_on_c, 1, 44, 83
4, 48561, Note_on_c, 1, 44, 0
4, 48561, Note_on_c, 1, 27, 78
4, 48579, Note_on_c, 1, 27, 0
4, 48600, Note_on_c, 1, 45, 84
4, 48720, Note_on_c, 1, 45, 0
4, 48720, Note_on_c, 1, 46, 76
4, 48800, Note_on_c, 1, 27, 57
4, 48823, Note_on_c, 1, 27, 0
4, 48823, Note_on_c, 1, 46, 0
4, 48840, Note_on_c, 1, 50, 90
4, 48920, Note_on_c, 1, 27, 43
4, 48941, Note_on_c, 1, 27, 0
4, 48941, Note_on_c, 1, 50, 0
4, 48960, Note_on_c, 1, 38, 81
4, 49040, Note_on_c, 1, 26, 52
4, 49062, Note_on_c, 1, 26, 0
4, 49062, Note_on_c, 1, 38, 0
4, 49080, Note_on_c, 1, 44, 90
4, 49200, Note_on_c, 1, 44, 0
4, 49200, Note_on_c, 1, 41, 83
4, 49280, Note_on_c, 1, 41, 0
4, 49280, Note_on_c, 1, 26, 47
4, 49302, Note_on_c, 1, 26, 0
4, 49320, Note_on_c, 1, 38, 90
4, 49400, Note_on_c, 1, 38, 0
4, 49400, Note_on_c, 1, 26, 60
4, 49411, Note_on_c, 1, 26, 0
4, 49440, Note_on_c, 1, 43, 81
4, 49520, Note_on_c, 1, 31, 52
4, 49542, Note_on_c, 1, 31, 0
4, 49542, Note_on_c, 1, 43, 0
4, 49560, Note_on_c, 1, 50, 90
4, 49680, Note_on_c, 1, 50, 0
4, 49680, Note_on_c, 1, 47, 83
4, 49760, Note_on_c, 1, 47, 0
4, 49760, Note_on_c, 1, 31, 47
4, 49782, Note_on_c, 1, 31, 0
4, 49800, Note_on_c, 1, 43, 90
4, 49880, Note_on_c, 1, 43, 0
4, 49880, Note_on_c, 1, 31, 60
4, 49891, Note_on_c, 1, 31, 0
4, 49920, Note_on_c, 1, 36, 86
4, 50000, Note_on_c, 1, 36, 0
4, 50000, Note_on_c, 1, 24, 44
4, 50023, Note_on_c, 1, 24, 0
4, 50040, Note_on_c, 1, 38, 90
4, 50160, Note_on_c, 1, 38, 0
4, 50160, Note_on_c, 1, 39, 92
4, 50241, Note_on_c, 1, 39, 0
4, 50241, Note_on_c, 1, 24, 78
4, 50261, Note_on_c, 1, 24, 0
4, 50280, Note_on_c, 1, 39, 78
4, 50400, Note_on_c, 1, 39, 0
4, 50400, Note_on_c, 1, 41, 83
4, 50481, Note_on_c, 1, 41, 0
4, 50481, Note_on_c, 1, 24, 78
4, 50499, Note_on_c, 1, 24, 0
4, 50520, Note_on_c, 1, 42, 84
4, 50640, Note_on_c, 1, 42, 0
4, 50640, Note_on_c, 1, 43, 76
4, 50720, Note_on_c, 1, 24, 57
4, 50743, Note_on_c, 1, 24, 0
4, 50743, Note_on_c, 1, 43, 0
4, 50760, Note_on_c, 1, 46, 90
4, 50840, Note_on_c, 1, 24, 43
4, 50861, Note_on_c, 1, 24, 0
4, 50861, Note_on_c, 1, 46, 0
4, 50880, Note_on_c, 1, 34, 86
4, 50960, Note_on_c, 1, 34, 0
4, 50960, Note_on_c, 1, 22, 48
4, 50979, Note_on_c, 1, 22, 0
4, 51000, Note_on_c, 1, 36, 76
4, 51120, Note_on_c, 1, 36, 0
4, 51120, Note_on_c, 1, 37, 92
4, 51200, Note_on_c, 1, 22, 58
4, 51219, Note_on_c, 1, 22, 0
4, 51219, Note_on_c, 1, 37, 0
4, 51240, Note_on_c, 1, 37, 81
4, 51320, Note_on_c, 1, 37, 0
4, 51320, Note_on_c, 1, 22, 61
4, 51333, Note_on_c, 1, 22, 0
4, 51360, Note_on_c, 1, 39, 92
4, 51440, Note_on_c, 1, 39, 0
4, 51440, Note_on_c, 1, 27, 68
4, 51458, Note_on_c, 1, 27, 0
4, 51480, Note_on_c, 1, 31, 78
4, 51600, Note_on_c, 1, 31, 0
4, 51600, Note_on_c, 1, 34, 81
4, 51720, Note_on_c, 1, 34, 0
4, 51720, Note_on_c, 1, 39, 88
4, 51800, Note_on_c, 1, 39, 0
4, 51800, Note_on_c, 1, 27, 56
4, 51808, Note_on_c, 1, 27, 0
4, 51840, Note_on_c, 1, 44, 92
4, 51920, Note_on_c, 1, 44, 0
4, 51920, Note_on_c, 1, 32, 68
4, 51938, Note_on_c, 1, 32, 0
4, 51960, Note_on_c, 1, 36, 78
4, 52080, Note_on_c, 1, 36, 0
4, 52080, Note_on_c, 1, 39, 81
4, 52200, Note_on_c, 1, 39, 0
4, 52200, Note_on_c, 1, 44, 88
4, 52280, Note_on_c, 1, 44, 0
4, 52280, Note_on_c, 1, 32, 56
4, 52288, Note_on_c, 1, 32, 0
4, 52320, Note_on_c, 1, 37, 92
4, 52400, Note_on_c, 1, 37, 0
4, 52400, Note_on_c, 1, 25, 68
4, 52418, Note_on_c, 1, 25, 0
4, 52440, Note_on_c, 1, 29, 78
4, 52560, Note_on_c, 1, 29, 0
4, 52560, Note_on_c, 1, 32, 81
4, 52680, Note_on_c, 1, 32, 0
4, 52680, Note_on_c, 1, 37, 88
4, 52760, Note_on_c, 1, 37, 0
4, 52760, Note_on_c, 1, 25, 56
4, 52768, Note_on_c, 1, 25, 0
4, 52800, Note_on_c, 1, 39, 81
4, 52880, Note_on_c, 1, 27, 52
4, 52902, Note_on_c, 1, 27, 0
4, 52902, Note_on_c, 1, 39, 0
4, 52920, Note_on_c, 1, 46, 90
4, 53040, Note_on_c, 1, 46, 0
4, 53040, Note_on_c, 1, 43, 83
4, 53120, Note_on_c, 1, 43, 0
4, 53120, Note_on_c, 1, 27, 47
4, 53142, Note_on_c, 1, 27, 0
4, 53160, Note_on_c, 1, 39, 90
4, 53240, Note_on_c, 1, 39, 0
4, 53240, Note_on_c, 1, 27, 60
4, 53251, Note_on_c, 1, 27, 0
4, 53285, Note_on_c, 1, 36, 74
4, 53413, Note_on_c, 1, 36, 0
4, 53413, Note_on_c, 1, 36, 63
4, 53492, Note_on_c, 1, 24, 46
4, 53504, Note_on_c, 1, 24, 0
4, 53504, Note_on_c, 1, 36, 0
4, 53529, Note_on_c, 1, 39, 66
4, 53641, Note_on_c, 1, 39, 0
4, 53641, Note_on_c, 1, 39, 80
4, 53719, Note_on_c, 1, 39, 0
4, 53719, Note_on_c, 1, 24, 59
4, 53725, Note_on_c, 1, 24, 0
4, 53760, Note_on_c, 1, 41, 86
4, 53840, Note_on_c, 1, 41, 0
4, 53840, Note_on_c, 1, 29, 44
4, 53863, Note_on_c, 1, 29, 0
4, 53880, Note_on_c, 1, 43, 90
4, 54000, Note_on_c, 1, 43, 0
4, 54000, Note_on_c, 1, 44, 92
4, 54081, Note_on_c, 1, 44, 0
4, 54081, Note_on_c, 1, 29, 78
4, 54101, Note_on_c, 1, 29, 0
4, 54120, Note_on_c, 1, 45, 78
4, 54240, Note_on_c, 1, 45, 0
4, 54240, Note_on_c, 1, 46, 83
4, 54321, Note_on_c, 1, 46, 0
4, 54321, Note_on_c, 1, 29, 78
4, 54339, Note_on_c, 1, 29, 0
4, 54360, Note_on_c, 1, 47, 84
4, 54480, Note_on_c, 1, 47, 0
4, 54480, Note_on_c, 1, 48, 76
4, 54560, Note_on_c, 1, 29, 57
4, 54583, Note_on_c, 1, 29, 0
4, 54583, Note_on_c, 1, 48, 0
4, 54600, Note_on_c, 1, 51, 90
4, 54680, Note_on_c, 1, 29, 43
4, 54701, Note_on_c, 1, 29, 0
4, 54701, Note_on_c, 1, 51, 0
4, 54720, Note_on_c, 1, 41, 92
4, 54800, Note_on_c, 1, 41, 0
4, 54800, Note_on_c, 1, 29, 68
4, 54818, Note_on_c, 1, 29, 0
4, 54840, Note_on_c, 1, 32, 78
4, 54960, Note_on_c, 1, 32, 0
4, 54960, Note_on_c, 1, 36, 81
4, 55080, Note_on_c, 1, 36, 0
4, 55080, Note_on_c, 1, 41, 88
4, 55160, Note_on_c, 1, 41, 0
4, 55160, Note_on_c, 1, 29, 56
4, 55168, Note_on_c, 1, 29, 0
4, 55200, Note_on_c, 1, 34, 92
4, 55280, Note_on_c, 1, 34, 0
4, 55280, Note_on_c, 1, 22, 68
4, 55298, Note_on_c, 1, 22, 0
4, 55320, Note_on_c, 1, 26, 78
4, 55440, Note_on_c, 1, 26, 0
4, 55440, Note_on_c, 1, 29, 81
4, 55560, Note_on_c, 1, 29, 0
4, 55560, Note_on_c, 1, 34, 88
4, 55640, Note_on_c, 1, 34, 0
4, 55640, Note_on_c, 1, 22, 56
4, 55648, Note_on_c, 1, 22, 0
4, 55680, Note_on_c, 1, 39, 80
4, 55760, Note_on_c, 1, 39, 0
4, 55760, Note_on_c, 1, 27, 72
4, 55797, Note_on_c, 1, 27, 0
4, 55800, Note_on_c, 1, 41, 76
4, 55880, Note_on_c, 1, 41, 0
4, 55880, Note_on_c, 1, 27, 56
4, 55905, Note_on_c, 1, 27, 0
4, 55920, Note_on_c, 1, 43, 81
4, 56000, Note_on_c, 1, 43, 0
4, 56000, Note_on_c, 1, 27, 64
4, 56040, Note_on_c, 1, 27, 0
4, 56040, Note_on_c, 1, 46, 80
4, 56160, Note_on_c, 1, 46, 0
4, 56160, Note_on_c, 1, 51, 81
4, 56240, Note_on_c, 1, 51, 0
4, 56240, Note_on_c, 1, 27, 72
4, 56273, Note_on_c, 1, 27, 0
4, 56280, Note_on_c, 1, 50, 80
4, 56400, Note_on_c, 1, 50, 0
4, 56400, Note_on_c, 1, 48, 71
4, 56480, Note_on_c, 1, 48, 0
4, 56480, Note_on_c, 1, 27, 63
4, 56514, Note_on_c, 1, 27, 0
4, 56520, Note_on_c, 1, 46, 80
4, 56600, Note_on_c, 1, 46, 0
4, 56600, Note_on_c, 1, 27, 58
4, 56622, Note_on_c, 1, 27, 0
4, 56640, Note_on_c, 1, 38, 86
4, 56720, Note_on_c, 1, 38, 0
4, 56720, Note_on_c, 1, 26, 48
4, 56739, Note_on_c, 1, 26, 0
4, 56760, Note_on_c, 1, 39, 76
4, 56880, Note_on_c, 1, 39, 0
4, 56880, Note_on_c, 1, 41, 92
4, 56960, Note_on_c, 1, 26, 58
4, 56979, Note_on_c, 1, 26, 0
4, 56979, Note_on_c, 1, 41, 0
4, 57000, Note_on_c, 1, 41, 81
4, 57080, Note_on_c, 1, 41, 0
4, 57080, Note_on_c, 1, 26, 61
4, 57093, Note_on_c, 1, 26, 0
4, 57120, Note_on_c, 1, 59, 80
4, 57200, Note_on_c, 1, 59, 0
4, 57200, Note_on_c, 1, 31, 69
4, 57215, Note_on_c, 1, 31, 0
4, 57240, Note_on_c, 1, 57, 78
4, 57360, Note_on_c, 1, 57, 0
4, 57360, Note_on_c, 1, 55, 80
4, 57440, Note_on_c, 1, 31, 78
4, 57451, Note_on_c, 1, 31, 0
4, 57451, Note_on_c, 1, 55, 0
4, 57480, Note_on_c, 1, 53, 74
4, 57560, Note_on_c, 1, 53, 0
4, 57560, Note_on_c, 1, 31, 72
4, 57566, Note_on_c, 1, 31, 0
4, 57600, Note_on_c, 1, 36, 86
4, 57680, Note_on_c, 1, 36, 0
4, 57680, Note_on_c, 1, 24, 44
4, 57703, Note_on_c, 1, 24, 0
4, 57720, Note_on_c, 1, 38, 90
4, 57840, Note_on_c, 1, 38, 0
4, 57840, Note_on_c, 1, 39, 92
4, 57921, Note_on_c, 1, 39, 0
4, 57921, Note_on_c, 1, 24, 78
4, 57941, Note_on_c, 1, 24, 0
4, 57960, Note_on_c, 1, 39, 78
4, 58080, Note_on_c, 1, 39, 0
4, 58080, Note_on_c, 1, 41, 83
4, 58161, Note_on_c, 1, 41, 0
4, 58161, Note_on_c, 1, 24, 78
4, 58179, Note_on_c, 1, 24, 0
4, 58200, Note_on_c, 1, 42, 84
4, 58320, Note_on_c, 1, 42, 0
4, 58320, Note_on_c, 1, 43, 76
4, 58400, Note_on_c, 1, 24, 57
4, 58423, Note_on_c, 1, 24, 0
4, 58423, Note_on_c, 1, 43, 0
4, 58440, Note_on_c, 1, 46, 90
4, 58520, Note_on_c, 1, 24, 43
4, 58541, Note_on_c, 1, 24, 0
4, 58541, Note_on_c, 1, 46, 0
4, 58560, Note_on_c, 1, 49, 80
4, 58640, Note_on_c, 1, 49, 0
4, 58640, Note_on_c, 1, 22, 69
4, 58655, Note_on_c, 1, 22, 0
4, 58680, Note_on_c, 1, 48, 78
4, 58800, Note_on_c, 1, 48, 0
4, 58800, Note_on_c, 1, 46, 80
4, 58880, Note_on_c, 1, 22, 78
4, 58891, Note_on_c, 1, 22, 0
4, 58891, Note_on_c, 1, 46, 0
4, 58920, Note_on_c, 1, 44, 74
4, 59000, Note_on_c, 1, 44, 0
4, 59000, Note_on_c, 1, 22, 72
4, 59006, Note_on_c, 1, 22, 0
4, 59040, Note_on_c, 1, 39, 92
4, 59120, Note_on_c, 1, 39, 0
4, 59120, Note_on_c, 1, 27, 68
4, 59138, Note_on_c, 1, 27, 0
4, 59160, Note_on_c, 1, 31, 78
4, 59280, Note_on_c, 1, 31, 0
4, 59280, Note_on_c, 1, 34, 81
4, 59400, Note_on_c, 1, 34, 0
4, 59400, Note_on_c, 1, 39, 88
4, 59480, Note_on_c, 1, 39, 0
4, 59480, Note_on_c, 1, 27, 56
4, 59488, Note_on_c, 1, 27, 0
4, 59520, Note_on_c, 1, 44, 81
4, 59600, Note_on_c, 1, 32, 52
4, 59622, Note_on_c, 1, 32, 0
4, 59622, Note_on_c, 1, 44, 0
4, 59640, Note_on_c, 1, 51, 90
4, 59760, Note_on_c, 1, 51, 0
4, 59760, Note_on_c, 1, 48, 83
4, 59840, Note_on_c, 1, 48, 0
4, 59840, Note_on_c, 1, 32, 47
4, 59862, Note_on_c, 1, 32, 0
4, 59880, Note_on_c, 1, 44, 90
4, 59960, Note_on_c, 1, 44, 0
4, 59960, Note_on_c, 1, 32, 60
4, 59971, Note_on_c, 1, 32, 0
4, 60000, Note_on_c, 1, 37, 92
4, 60080, Note_on_c, 1, 37, 0
4, 60080, Note_on_c, 1, 25, 68
4, 60098, Note_on_c, 1, 25, 0
4, 60120, Note_on_c, 1, 29, 78
4, 60240, Note_on_c, 1, 29, 0
4, 60240, Note_on_c, 1, 32, 81
4, 60360, Note_on_c, 1, 32, 0
4, 60360, Note_on_c, 1, 37, 88
4, 60440, Note_on_c, 1, 37, 0
4, 60440, Note_on_c, 1, 25, 56
4, 60448, Note_on_c, 1, 25, 0
4, 60480, Note_on_c, 1, 39, 92
4, 60560, Note_on_c, 1, 39, 0
4, 60560, Note_on_c, 1, 27, 68
4, 60578, Note_on_c, 1, 27, 0
4, 60600, Note_on_c, 1, 31, 78
4, 60720, Note_on_c, 1, 31, 0
4, 60720, Note_on_c, 1, 34, 81
4, 60840, Note_on_c, 1, 34, 0
4, 60840, Note_on_c, 1, 39, 88
4, 60920, Note_on_c, 1, 39, 0
4, 60920, Note_on_c, 1, 27, 56
4, 60928, Note_on_c, 1, 27, 0
4, 60960, Note_on_c, 1, 41, 78
4, 61040, Note_on_c, 1, 41, 0
4, 61040, Note_on_c, 1, 29, 61
4, 61051, Note_on_c, 1, 29, 0
4, 61080, Note_on_c, 1, 36, 71
4, 61200, Note_on_c, 1, 36, 0
4, 61200, Note_on_c, 1, 42, 78
4, 61287, Note_on_c, 1, 42, 0
4, 61287, Note_on_c, 1, 30, 52
4, 61300, Note_on_c, 1, 30, 0
4, 61320, Note_on_c, 1, 42, 94
4, 61400, Note_on_c, 1, 30, 58
4, 61412, Note_on_c, 1, 30, 0
4, 61412, Note_on_c, 1, 42, 0
4, 61440, Note_on_c, 1, 43, 78
4, 61520, Note_on_c, 1, 43, 0
4, 61520, Note_on_c, 1, 31, 61
4, 61531, Note_on_c, 1, 31, 0
4, 61560, Note_on_c, 1, 38, 71
4, 61680, Note_on_c, 1, 38, 0
4, 61680, Note_on_c, 1, 44, 78
4, 61760, Note_on_c, 1, 44, 0
4, 61760, Note_on_c, 1, 32, 61
4, 61771, Note_on_c, 1, 32, 0
4, 61800, Note_on_c, 1, 39, 71
4, 61920, Note_on_c, 1, 39, 0
4, 61920, Note_on_c, 1, 43, 78
4, 62000, Note_on_c, 1, 43, 0
4, 62000, Note_on_c, 1, 31, 61
4, 62011, Note_on_c, 1, 31, 0
4, 62040, Note_on_c, 1, 38, 71
4, 62160, Note_on_c, 1, 38, 0
4, 62160, Note_on_c, 1, 36, 78
4, 62247, Note_on_c, 1, 36, 0
4, 62247, Note_on_c, 1, 24, 52
4, 62260, Note_on_c, 1, 24, 0
4, 62280, Note_on_c, 1, 36, 94
4, 62360, Note_on_c, 1, 24, 58
4, 62372, Note_on_c, 1, 24, 0
4, 62372, Note_on_c, 1, 36, 0
4, 62405, Note_on_c, 1, 41, 76
4, 62488, Note_on_c, 1, 41, 0
4, 62488, Note_on_c, 1, 29, 56
4, 62506, Note_on_c, 1, 29, 0
4, 62524, Note_on_c, 1, 35, 60
4, 62640, Note_on_c, 1, 35, 0
4, 62640, Note_on_c, 1, 34, 80
4, 62720, Note_on_c, 1, 34, 0
4, 62720, Note_on_c, 1, 34, 71
4, 62760, Note_on_c, 1, 34, 0
4, 62760, Note_on_c, 1, 38, 88
4, 62861, Note_on_c, 1, 38, 0
4, 62880, Note_on_c, 1, 39, 78
4, 62960, Note_on_c, 1, 39, 0
4, 62960, Note_on_c, 1, 27, 61
4, 62971, Note_on_c, 1, 27, 0
4, 63000, Note_on_c, 1, 34, 71
4, 63120, Note_on_c, 1, 34, 0
4, 63120, Note_on_c, 1, 34, 78
4, 63200, Note_on_c, 1, 34, 0
4, 63200, Note_on_c, 1, 22, 61
4, 63211, Note_on_c, 1, 22, 0
4, 63240, Note_on_c, 1, 29, 71
4, 63360, Note_on_c, 1, 29, 0
4, 63360, Note_on_c, 1, 51, 78
4, 63446, Note_on_c, 1, 51, 0
4, 63446, Note_on_c, 1, 27, 63
4, 63460, Note_on_c, 1, 27, 0
4, 63480, Note_on_c, 1, 50, 74
4, 63600, Note_on_c, 1, 50, 0
4, 63600, Note_on_c, 1, 46, 81
4, 63683, Note_on_c, 1, 46, 0
4, 63683, Note_on_c, 1, 27, 34
4, 63692, Note_on_c, 1, 27, 0
4, 63720, Note_on_c, 1, 43, 83
4, 63840, Note_on_c, 1, 43, 0
4, 63840, Note_on_c, 1, 39, 78
4, 63920, Note_on_c, 1, 39, 0
4, 63920, Note_on_c, 1, 27, 52
4, 63929, Note_on_c, 1, 27, 0
4, 63960, Note_on_c, 1, 41, 90
4, 64080, Note_on_c, 1, 41, 0
4, 64080, Note_on_c, 1, 43, 92
4, 64160, Note_on_c, 1, 43, 0
4, 64160, Note_on_c, 1, 27, 60
4, 64176, Note_on_c, 1, 27, 0
4, 64200, Note_on_c, 1, 46, 81
4, 64320, Note_on_c, 1, 46, 0
4, 64320, Note_on_c, 1, 38, 81
4, 64400, Note_on_c, 1, 26, 52
4, 64422, Note_on_c, 1, 26, 0
4, 64422, Note_on_c, 1, 38, 0
4, 64440, Note_on_c, 1, 44, 90
4, 64560, Note_on_c, 1, 44, 0
4, 64560, Note_on_c, 1, 41, 83
4, 64640, Note_on_c, 1, 41, 0
4, 64640, Note_on_c, 1, 26, 47
4, 64662, Note_on_c, 1, 26, 0
4, 64680, Note_on_c, 1, 38, 90
4, 64760, Note_on_c, 1, 38, 0
4, 64760, Note_on_c, 1, 26, 60
4, 64771, Note_on_c, 1, 26, 0
4, 64800, Note_on_c, 1, 43, 92
4, 64880, Note_on_c, 1, 43, 0
4, 64880, Note_on_c, 1, 31, 68
4, 64898, Note_on_c, 1, 31, 0
4, 64920, Note_on_c, 1, 35, 78
4, 65040, Note_on_c, 1, 35, 0
4, 65040, Note_on_c, 1, 38, 81
4, 65160, Note_on_c, 1, 38, 0
4, 65160, Note_on_c, 1, 43, 88
4, 65240, Note_on_c, 1, 43, 0
4, 65240, Note_on_c, 1, 31, 56
4, 65248, Note_on_c, 1, 31, 0
4, 65280, Note_on_c, 1, 48, 78
4, 65366, Note_on_c, 1, 48, 0
4, 65366, Note_on_c, 1, 24, 63
4, 65380, Note_on_c, 1, 24, 0
4, 65400, Note_on_c, 1, 46, 74
4, 65520, Note_on_c, 1, 46, 0
4, 65520, Note_on_c, 1, 43, 81
4, 65603, Note_on_c, 1, 43, 0
4, 65603, Note_on_c, 1, 24, 34
4, 65612, Note_on_c, 1, 24, 0
4, 65640, Note_on_c, 1, 39, 83
4, 65760, Note_on_c, 1, 39, 0
4, 65760, Note_on_c, 1, 36, 78
4, 65840, Note_on_c, 1, 36, 0
4, 65840, Note_on_c, 1, 24, 52
4, 65849, Note_on_c, 1, 24, 0
4, 65880, Note_on_c, 1, 38, 90
4, 66000, Note_on_c, 1, 38, 0
4, 66000, Note_on_c, 1, 39, 92
4, 66080, Note_on_c, 1, 39, 0
4, 66080, Note_on_c, 1, 24, 60
4, 66096, Note_on_c, 1, 24, 0
4, 66120, Note_on_c, 1, 43, 81
4, 66240, Note_on_c, 1, 43, 0
4, 66240, Note_on_c, 1, 34, 81
4, 66320, Note_on_c, 1, 22, 52
4, 66342, Note_on_c, 1, 22, 0
4, 66342, Note_on_c, 1, 34, 0
4, 66360, Note_on_c, 1, 41, 90
4, 66480, Note_on_c, 1, 41, 0
4, 66480, Note_on_c, 1, 37, 83
4, 66560, Note_on_c, 1, 37, 0
4, 66560, Note_on_c, 1, 22, 47
4, 66582, Note_on_c, 1, 22, 0
4, 66600, Note_on_c, 1, 34, 90
4, 66680, Note_on_c, 1, 34, 0
4, 66680, Note_on_c, 1, 22, 60
4, 66691, Note_on_c, 1, 22, 0
4, 66720, Note_on_c, 1, 55, 80
4, 66800, Note_on_c, 1, 55, 0
4, 66800, Note_on_c, 1, 27, 69
4, 66815, Note_on_c, 1, 27, 0
4, 66840, Note_on_c, 1, 53, 78
4, 66960, Note_on_c, 1, 53, 0
4, 66960, Note_on_c, 1, 51, 80
4, 67040, Note_on_c, 1, 27, 78
4, 67051, Note_on_c, 1, 27, 0
4, 67051, Note_on_c, 1, 51, 0
4, 67080, Note_on_c, 1, 49, 74
4, 67160, Note_on_c, 1, 49, 0
4, 67160, Note_on_c, 1, 27, 72
4, 67166, Note_on_c, 1, 27, 0
4, 67200, Note_on_c, 1, 44, 92
4, 67280, Note_on_c, 1, 44, 0
4, 67280, Note_on_c, 1, 32, 68
4, 67298, Note_on_c, 1, 32, 0
4, 67320, Note_on_c, 1, 36, 78
4, 67440, Note_on_c, 1, 36, 0
4, 67440, Note_on_c, 1, 39, 81
4, 67560, Note_on_c, 1, 39, 0
4, 67560, Note_on_c, 1, 44, 88
4, 67640, Note_on_c, 1, 44, 0
4, 67640, Note_on_c, 1, 32, 56
4, 67648, Note_on_c, 1, 32, 0
4, 67680, Note_on_c, 1, 37, 92
4, 67760, Note_on_c, 1, 37, 0
4, 67760, Note_on_c, 1, 25, 68
4, 67778, Note_on_c, 1, 25, 0
4, 67800, Note_on_c, 1, 29, 78
4, 67920, Note_on_c, 1, 29, 0
4, 67920, Note_on_c, 1, 32, 81
4, 68040, Note_on_c, 1, 32, 0
4, 68040, Note_on_c, 1, 37, 88
4, 68120, Note_on_c, 1, 37, 0
4, 68120, Note_on_c, 1, 25, 56
4, 68128, Note_on_c, 1, 25, 0
4, 68160, Note_on_c, 1, 39, 81
4, 68240, Note_on_c, 1, 27, 52
4, 68262, Note_on_c, 1, 27, 0
4, 68262, Note_on_c, 1, 39, 0
4, 68280, Note_on_c, 1, 46, 90
4, 68400, Note_on_c, 1, 46, 0
4, 68400, Note_on_c, 1, 43, 83
4, 68480, Note_on_c, 1, 43, 0
4, 68480, Note_on_c, 1, 27, 47
4, 68502, Note_on_c, 1, 27, 0
4, 68520, Note_on_c, 1, 39, 90
4, 68600, Note_on_c, 1, 39, 0
4, 68600, Note_on_c, 1, 27, 60
4, 68611, Note_on_c, 1, 27, 0
4, 68640, Note_on_c, 1, 36, 92
4, 68720, Note_on_c, 1, 36, 0
4, 68720, Note_on_c, 1, 24, 68
4, 68738, Note_on_c, 1, 24, 0
4, 68760, Note_on_c, 1, 27, 78
4, 68880, Note_on_c, 1, 27, 0
4, 68880, Note_on_c, 1, 31, 81
4, 69000, Note_on_c, 1, 31, 0
4, 69000, Note_on_c, 1, 36, 88
4, 69080, Note_on_c, 1, 36, 0
4, 69080, Note_on_c, 1, 24, 56
4, 69088, Note_on_c, 1, 24, 0
4, 69120, Note_on_c, 1, 53, 78
4, 69206, Note_on_c, 1, 53, 0
4, 69206, Note_on_c, 1, 29, 63
4, 69220, Note_on_c, 1, 29, 0
4, 69240, Note_on_c, 1, 51, 74
4, 69360, Note_on_c, 1, 51, 0
4, 69360, Note_on_c, 1, 48, 81
4, 69443, Note_on_c, 1, 48, 0
4, 69443, Note_on_c, 1, 29, 34
4, 69452, Note_on_c, 1, 29, 0
4, 69480, Note_on_c, 1, 45, 83
4, 69600, Note_on_c, 1, 45, 0
4, 69600, Note_on_c, 1, 41, 78
4, 69680, Note_on_c, 1, 41, 0
4, 69680, Note_on_c, 1, 29, 52
4, 69689, Note_on_c, 1, 29, 0
4, 69720, Note_on_c, 1, 43, 90
4, 69840, Note_on_c, 1, 43, 0
4, 69840, Note_on_c, 1, 45, 92
4, 69920, Note_on_c, 1, 45, 0
4, 69920, Note_on_c, 1, 29, 60
4, 69936, Note_on_c, 1, 29, 0
4, 69960, Note_on_c, 1, 48, 81
4, 70080, Note_on_c, 1, 48, 0
4, 70080, Note_on_c, 1, 41, 81
4, 70160, Note_on_c, 1, 29, 52
4, 70182, Note_on_c, 1, 29, 0
4, 70182, Note_on_c, 1, 41, 0
4, 70200, Note_on_c, 1, 48, 90
4, 70320, Note_on_c, 1, 48, 0
4, 70320, Note_on_c, 1, 44, 83
4, 70400, Note_on_c, 1, 44, 0
4, 70400, Note_on_c, 1, 29, 47
4, 70422, Note_on_c, 1, 29, 0
4, 70440, Note_on_c, 1, 41, 90
4, 70520, Note_on_c, 1, 41, 0
4, 70520, Note_on_c, 1, 29, 60
4, 70531, Note_on_c, 1, 29, 0
4, 70560, Note_on_c, 1, 34, 86
4, 70640, Note_on_c, 1, 34, 0
4, 70640, Note_on_c, 1, 22, 48
4, 70659, Note_on_c, 1, 22, 0
4, 70680, Note_on_c, 1, 36, 76
4, 70800, Note_on_c, 1, 36, 0
4, 70800, Note_on_c, 1, 37, 92
4, 70880, Note_on_c, 1, 22, 58
4, 70899, Note_on_c, 1, 22, 0
4, 70899, Note_on_c, 1, 37, 0
4, 70920, Note_on_c, 1, 38, 81
4, 71000, Note_on_c, 1, 38, 0
4, 71000, Note_on_c, 1, 22, 61
4, 71013, Note_on_c, 1, 22, 0
4, 71040, Note_on_c, 1, 51, 78
4, 71126, Note_on_c, 1, 51, 0
4, 71126, Note_on_c, 1, 27, 63
4, 71140, Note_on_c, 1, 27, 0
4, 71160, Note_on_c, 1, 50, 74
4, 71280, Note_on_c, 1, 50, 0
4, 71280, Note_on_c, 1, 46, 81
4, 71363, Note_on_c, 1, 46, 0
4, 71363, Note_on_c, 1, 27, 34
4, 71372, Note_on_c, 1, 27, 0
4, 71400, Note_on_c, 1, 43, 83
4, 71520, Note_on_c, 1, 43, 0
4, 71520, Note_on_c, 1, 39, 78
4, 71600, Note_on_c, 1, 39, 0
4, 71600, Note_on_c, 1, 27, 52
4, 71609, Note_on_c, 1, 27, 0
4, 71640, Note_on_c, 1, 41, 90
4, 71760, Note_on_c, 1, 41, 0
4, 71760, Note_on_c, 1, 43, 92
4, 71840, Note_on_c, 1, 43, 0
4, 71840, Note_on_c, 1, 27, 60
4, 71856, Note_on_c, 1, 27, 0
4, 71880, Note_on_c, 1, 46, 81
4, 72000, Note_on_c, 1, 46, 0
4, 72000, Note_on_c, 1, 53, 80
4, 72080, Note_on_c, 1, 53, 0
4, 72080, Note_on_c, 1, 26, 69
4, 72095, Note_on_c, 1, 26, 0
4, 72120, Note_on_c, 1, 51, 78
4, 72240, Note_on_c, 1, 51, 0
4, 72240, Note_on_c, 1, 50, 80
4, 72320, Note_on_c, 1, 26, 78
4, 72331, Note_on_c, 1, 26, 0
4, 72331, Note_on_c, 1, 50, 0
4, 72360, Note_on_c, 1, 48, 74
4, 72440, Note_on_c, 1, 48, 0
4, 72440, Note_on_c, 1, 26, 72
4, 72446, Note_on_c, 1, 26, 0
4, 72480, Note_on_c, 1, 43, 81
4, 72560, Note_on_c, 1, 31, 52
4, 72582, Note_on_c, 1, 31, 0
4, 72582, Note_on_c, 1, 43, 0
4, 72600, Note_on_c, 1, 50, 90
4, 72720, Note_on_c, 1, 50, 0
4, 72720, Note_on_c, 1, 47, 83
4, 72800, Note_on_c, 1, 47, 0
4, 72800, Note_on_c, 1, 31, 47
4, 72822, Note_on_c, 1, 31, 0
4, 72840, Note_on_c, 1, 43, 90
4, 72920, Note_on_c, 1, 43, 0
4, 72920, Note_on_c, 1, 31, 60
4, 72931, Note_on_c, 1, 31, 0
4, 72960, Note_on_c, 1, 36, 86
4, 73040, Note_on_c, 1, 36, 0
4, 73040, Note_on_c, 1, 24, 44
4, 73063, Note_on_c, 1, 24, 0
4, 73080, Note_on_c, 1, 38, 90
4, 73200, Note_on_c, 1, 38, 0
4, 73200, Note_on_c, 1, 39, 92
4, 73281, Note_on_c, 1, 39, 0
4, 73281, Note_on_c, 1, 24, 78
4, 73301, Note_on_c, 1, 24, 0
4, 73320, Note_on_c, 1, 39, 78
4, 73440, Note_on_c, 1, 39, 0
4, 73440, Note_on_c, 1, 41, 83
4, 73521, Note_on_c, 1, 41, 0
4, 73521, Note_on_c, 1, 24, 78
4, 73539, Note_on_c, 1, 24, 0
4, 73560, Note_on_c, 1, 42, 84
4, 73680, Note_on_c, 1, 42, 0
4, 73680, Note_on_c, 1, 43, 76
4, 73760, Note_on_c, 1, 24, 57
4, 73783, Note_on_c, 1, 24, 0
4, 73783, Note_on_c, 1, 43, 0
4, 73800, Note_on_c, 1, 46, 90
4, 73880, Note_on_c, 1, 24, 43
4, 73901, Note_on_c, 1, 24, 0
4, 73901, Note_on_c, 1, 46, 0
4, 73920, Note_on_c, 1, 49, 80
4, 74000, Note_on_c, 1, 49, 0
4, 74000, Note_on_c, 1, 22, 69
4, 74015, Note_on_c, 1, 22, 0
4, 74040, Note_on_c, 1, 48, 78
4, 74160, Note_on_c, 1, 48, 0
4, 74160, Note_on_c, 1, 46, 80
4, 74240, Note_on_c, 1, 22, 78
4, 74251, Note_on_c, 1, 22, 0
4, 74251, Note_on_c, 1, 46, 0
4, 74280, Note_on_c, 1, 44, 74
4, 74360, Note_on_c, 1, 44, 0
4, 74360, Note_on_c, 1, 22, 72
4, 74366, Note_on_c, 1, 22, 0
4, 74400, Note_on_c, 1, 39, 86
4, 74480, Note_on_c, 1, 39, 0
4, 74480, Note_on_c, 1, 27, 48
4, 74499, Note_on_c, 1, 27, 0
4, 74520, Note_on_c, 1, 41, 76
4, 74640, Note_on_c, 1, 41, 0
4, 74640, Note_on_c, 1, 42, 92
4, 74720, Note_on_c, 1, 27, 58
4, 74739, Note_on_c, 1, 27, 0
4, 74739, Note_on_c, 1, 42, 0
4, 74760, Note_on_c, 1, 43, 81
4, 74840, Note_on_c, 1, 43, 0
4, 74840, Note_on_c, 1, 27, 61
4, 74853, Note_on_c, 1, 27, 0
4, 74880, Note_on_c, 1, 44, 92
4, 74960, Note_on_c, 1, 44, 0
4, 74960, Note_on_c, 1, 32, 68
4, 74978, Note_on_c, 1, 32, 0
4, 75000, Note_on_c, 1, 36, 78
4, 75120, Note_on_c, 1, 36, 0
4, 75120, Note_on_c, 1, 39, 81
4, 75240, Note_on_c, 1, 39, 0
4, 75240, Note_on_c, 1, 44, 88
4, 75320, Note_on_c, 1, 44, 0
4, 75320, Note_on_c, 1, 32, 56
4, 75328, Note_on_c, 1, 32, 0
4, 75360, Note_on_c, 1, 37, 81
4, 75440, Note_on_c, 1, 25, 52
4, 75462, Note_on_c, 1, 25, 0
4, 75462, Note_on_c, 1, 37, 0
4, 75480, Note_on_c, 1, 44, 90
4, 75600, Note_on_c, 1, 44, 0
4, 75600, Note_on_c, 1, 41, 83
4, 75680, Note_on_c, 1, 41, 0
4, 75680, Note_on_c, 1, 25, 47
4, 75702, Note_on_c, 1, 25, 0
4, 75720, Note_on_c, 1, 37, 90
4, 75800, Note_on_c, 1, 37, 0
4, 75800, Note_on_c, 1, 25, 60
4, 75811, Note_on_c, 1, 25, 0
4, 75840, Note_on_c, 1, 39, 92
4, 75920, Note_on_c, 1, 39, 0
4, 75920, Note_on_c, 1, 27, 68
4, 75938, Note_on_c, 1, 27, 0
4, 75960, Note_on_c, 1, 31, 78
4, 76080, Note_on_c, 1, 31, 0
4, 76080, Note_on_c, 1, 34, 81
4, 76200, Note_on_c, 1, 34, 0
4, 76200, Note_on_c, 1, 39, 88
4, 76280, Note_on_c, 1, 39, 0
4, 76280, Note_on_c, 1, 27, 56
4, 76288, Note_on_c, 1, 27, 0
4, 76320, Note_on_c, 1, 41, 78
4, 76400, Note_on_c, 1, 41, 0
4, 76400, Note_on_c, 1, 29, 61
4, 76411, Note_on_c, 1, 29, 0
4, 76440, Note_on_c, 1, 36, 71
4, 76560, Note_on_c, 1, 36, 0
4, 76560, Note_on_c, 1, 42, 78
4, 76647, Note_on_c, 1, 42, 0
4, 76647, Note_on_c, 1, 30, 52
4, 76660, Note_on_c, 1, 30, 0
4, 76680, Note_on_c, 1, 42, 94
4, 76760, Note_on_c, 1, 30, 58
4, 76772, Note_on_c, 1, 30, 0
4, 76772, Note_on_c, 1, 42, 0
4, 76800, Note_on_c, 1, 43, 78
4, 76887, Note_on_c, 1, 43, 0
4, 76887, Note_on_c, 1, 31, 52
4, 76900, Note_on_c, 1, 31, 0
4, 76920, Note_on_c, 1, 43, 94
4, 77000, Note_on_c, 1, 31, 58
4, 77012, Note_on_c, 1, 31, 0
4, 77012, Note_on_c, 1, 43, 0
4, 77040, Note_on_c, 1, 44, 78
4, 77120, Note_on_c, 1, 44, 0
4, 77120, Note_on_c, 1, 32, 61
4, 77131, Note_on_c, 1, 32, 0
4, 77160, Note_on_c, 1, 39, 71
4, 77280, Note_on_c, 1, 39, 0
4, 77280, Note_on_c, 1, 43, 81
4, 77400, Note_on_c, 1, 43, 0
4, 77400, Note_on_c, 1, 50, 80
4, 77480, Note_on_c, 1, 50, 0
4, 77480, Note_on_c, 1, 31, 53
4, 77496, Note_on_c, 1, 31, 0
4, 77520, Note_on_c, 1, 36, 81
4, 77640, Note_on_c, 1, 36, 0
4, 77640, Note_on_c, 1, 43, 80
4, 77720, Note_on_c, 1, 43, 0
4, 77720, Note_on_c, 1, 24, 53
4, 77736, Note_on_c, 1, 24, 0
4, 77765, Note_on_c, 1, 41, 76
4, 77848, Note_on_c, 1, 41, 0
4, 77848, Note_on_c, 1, 29, 56
4, 77866, Note_on_c, 1, 29, 0
4, 77884, Note_on_c, 1, 35, 60
4, 78000, Note_on_c, 1, 35, 0
4, 78000, Note_on_c, 1, 34, 81
4, 78120, Note_on_c, 1, 34, 0
4, 78120, Note_on_c, 1, 41, 80
4, 78200, Note_on_c, 1, 41, 0
4, 78200, Note_on_c, 1, 22, 53
4, 78216, Note_on_c, 1, 22, 0
4, 78240, Note_on_c, 1, 39, 78
4, 78807, Note_on_c, 1, 39, 0
4, 78807, End_track
5, 0, Start_track
5, 0, Program_c, 1, 32
5, 0, Control_c, 1, 7, 127
5, 0, End_track
6, 0, Start_track
6, 0, Note_on_c, 9, 51, 78
6, 0, Note_on_c, 9, 35, 34
6, 40, Note_on_c, 9, 35, 0
6, 40, Note_on_c, 9, 51, 0
6, 120, Note_on_c, 9, 38, 23
6, 120, Note_on_c, 9, 51, 78
6, 120, Note_on_c, 9, 44, 69
6, 120, Note_on_c, 9, 35, 34
6, 160, Note_on_c, 9, 35, 0
6, 160, Note_on_c, 9, 38, 0
6, 160, Note_on_c, 9, 51, 0
6, 165, Note_on_c, 9, 44, 0
6, 203, Note_on_c, 9, 51, 58
6, 240, Note_on_c, 9, 51, 0
6, 240, Note_on_c, 9, 51, 78
6, 280, Note_on_c, 9, 51, 0
6, 360, Note_on_c, 9, 38, 23
6, 360, Note_on_c, 9, 51, 78
6, 360, Note_on_c, 9, 44, 81
6, 360, Note_on_c, 9, 35, 34
6, 400, Note_on_c, 9, 35, 0
6, 400, Note_on_c, 9, 38, 0
6, 400, Note_on_c, 9, 51, 0
6, 432, Note_on_c, 9, 44, 0
6, 443, Note_on_c, 9, 51, 58
6, 480, Note_on_c, 9, 51, 0
6, 480, Note_on_c, 9, 51, 78
6, 480, Note_on_c, 9, 35, 34
6, 520, Note_on_c, 9, 35, 0
6, 520, Note_on_c, 9, 51, 0
6, 600, Note_on_c, 9, 38, 23
6, 600, Note_on_c, 9, 51, 78
6, 600, Note_on_c, 9, 35, 34
6, 606, Note_on_c, 9, 44, 81
6, 640, Note_on_c, 9, 35, 0
6, 640, Note_on_c, 9, 38, 0
6, 640, Note_on_c, 9, 51, 0
6, 661, Note_on_c, 9, 44, 0
6, 683, Note_on_c, 9, 51, 58
6, 720, Note_on_c, 9, 51, 0
6, 720, Note_on_c, 9, 51, 78
6, 760, Note_on_c, 9, 51, 0
6, 840, Note_on_c, 9, 38, 23
6, 840, Note_on_c, 9, 51, 78
6, 840, Note_on_c, 9, 35, 34
6, 845, Note_on_c, 9, 46, 74
6, 880, Note_on_c, 9, 35, 0
6, 880, Note_on_c, 9, 38, 0
6, 880, Note_on_c, 9, 51, 0
6, 923, Note_on_c, 9, 51, 58
6, 931, Note_on_c, 9, 46, 0
6, 960, Note_on_c, 9, 51, 0
6, 960, Note_on_c, 9, 38, 38
6, 960, Note_on_c, 9, 51, 78
6, 1000, Note_on_c, 9, 51, 0
6, 1000, Note_on_c, 9, 38, 0
6, 1080, Note_on_c, 9, 51, 78
6, 1085, Note_on_c, 9, 44, 69
6, 1120, Note_on_c, 9, 51, 0
6, 1144, Note_on_c, 9, 44, 0
6, 1168, Note_on_c, 9, 51, 58
6, 1200, Note_on_c, 9, 51, 0
6, 1200, Note_on_c, 9, 51, 78
6, 1240, Note_on_c, 9, 51, 0
6, 1320, Note_on_c, 9, 38, 48
6, 1320, Note_on_c, 9, 51, 78
6, 1324, Note_on_c, 9, 44, 71
6, 1360, Note_on_c, 9, 51, 0
6, 1360, Note_on_c, 9, 38, 0
6, 1371, Note_on_c, 9, 44, 0
6, 1408, Note_on_c, 9, 51, 58
6, 1440, Note_on_c, 9, 51, 0
6, 1440, Note_on_c, 9, 51, 78
6, 1440, Note_on_c, 9, 35, 34
6, 1480, Note_on_c, 9, 35, 0
6, 1480, Note_on_c, 9, 51, 0
6, 1520, Note_on_c, 9, 38, 58
6, 1560, Note_on_c, 9, 38, 0
6, 1560, Note_on_c, 9, 51, 78
6, 1565, Note_on_c, 9, 44, 69
6, 1600, Note_on_c, 9, 51, 0
6, 1611, Note_on_c, 9, 44, 0
6, 1640, Note_on_c, 9, 38, 58
6, 1680, Note_on_c, 9, 38, 0
6, 1680, Note_on_c, 9, 38, 78
6, 1680, Note_on_c, 9, 51, 78
6, 1720, Note_on_c, 9, 51, 0
6, 1720, Note_on_c, 9, 38, 0
6, 1760, Note_on_c, 9, 38, 88
6, 1800, Note_on_c, 9, 38, 0
6, 1800, Note_on_c, 9, 51, 78
6, 1804, Note_on_c, 9, 44, 71
6, 1840, Note_on_c, 9, 51, 0
6, 1853, Note_on_c, 9, 44, 0
6, 1880, Note_on_c, 9, 38, 88
6, 1880, Note_on_c, 9, 49, 88
6, 1920, Note_on_c, 9, 49, 0
6, 1920, Note_on_c, 9, 38, 0
6, 1920, Note_on_c, 9, 38, 38
6, 1920, Note_on_c, 9, 51, 78
6, 1960, Note_on_c, 9, 51, 0
6, 1960, Note_on_c, 9, 38, 0
6, 2040, Note_on_c, 9, 51, 78
6, 2048, Note_on_c, 9, 44, 67
6, 2080, Note_on_c, 9, 51, 0
6, 2097, Note_on_c, 9, 44, 0
6, 2128, Note_on_c, 9, 51, 58
6, 2160, Note_on_c, 9, 51, 0
6, 2160, Note_on_c, 9, 51, 78
6, 2200, Note_on_c, 9, 51, 0
6, 2280, Note_on_c, 9, 38, 48
6, 2280, Note_on_c, 9, 51, 78
6, 2285, Note_on_c, 9, 46, 64
6, 2320, Note_on_c, 9, 51, 0
6, 2320, Note_on_c, 9, 38, 0
6, 2336, Note_on_c, 9, 46, 0
6, 2368, Note_on_c, 9, 51, 58
6, 2400, Note_on_c, 9, 51, 0
6, 2400, Note_on_c, 9, 51, 78
6, 2400, Note_on_c, 9, 35, 34
6, 2440, Note_on_c, 9, 35, 0
6, 2440, Note_on_c, 9, 51, 0
6, 2514, Note_on_c, 9, 44, 60
6, 2520, Note_on_c, 9, 38, 23
6, 2520, Note_on_c, 9, 51, 78
6, 2520, Note_on_c, 9, 35, 34
6, 2560, Note_on_c, 9, 35, 0
6, 2560, Note_on_c, 9, 51, 0
6, 2560, Note_on_c, 9, 38, 0
6, 2563, Note_on_c, 9, 44, 0
6, 2603, Note_on_c, 9, 51, 58
6, 2640, Note_on_c, 9, 51, 0
6, 2640, Note_on_c, 9, 51, 78
6, 2680, Note_on_c, 9, 51, 0
6, 2760, Note_on_c, 9, 38, 23
6, 2760, Note_on_c, 9, 51, 78
6, 2760, Note_on_c, 9, 44, 74
6, 2760, Note_on_c, 9, 35, 34
6, 2800, Note_on_c, 9, 35, 0
6, 2800, Note_on_c, 9, 38, 0
6, 2800, Note_on_c, 9, 51, 0
6, 2813, Note_on_c, 9, 44, 0
6, 2843, Note_on_c, 9, 51, 58
6, 2880, Note_on_c, 9, 51, 0
6, 2880, Note_on_c, 9, 51, 78
6, 2880, Note_on_c, 9, 35, 34
6, 2920, Note_on_c, 9, 35, 0
6, 2920, Note_on_c, 9, 51, 0
6, 3000, Note_on_c, 9, 38, 23
6, 3000, Note_on_c, 9, 51, 78
6, 3000, Note_on_c, 9, 35, 34
6, 3009, Note_on_c, 9, 44, 77
6, 3040, Note_on_c, 9, 35, 0
6, 3040, Note_on_c, 9, 38, 0
6, 3040, Note_on_c, 9, 51, 0
6, 3064, Note_on_c, 9, 44, 0
6, 3083, Note_on_c, 9, 51, 58
6, 3120, Note_on_c, 9, 51, 0
6, 3120, Note_on_c, 9, 51, 78
6, 3160, Note_on_c, 9, 51, 0
6, 3240, Note_on_c, 9, 38, 23
6, 3240, Note_on_c, 9, 51, 78
6, 3240, Note_on_c, 9, 35, 34
6, 3249, Note_on_c, 9, 44, 78
6, 3280, Note_on_c, 9, 35, 0
6, 3280, Note_on_c, 9, 38, 0
6, 3280, Note_on_c, 9, 51, 0
6, 3303, Note_on_c, 9, 44, 0
6, 3323, Note_on_c, 9, 51, 58
6, 3360, Note_on_c, 9, 51, 0
6, 3360, Note_on_c, 9, 51, 78
6, 3360, Note_on_c, 9, 35, 34
6, 3400, Note_on_c, 9, 35, 0
6, 3400, Note_on_c, 9, 51, 0
6, 3479, Note_on_c, 9, 44, 77
6, 3480, Note_on_c, 9, 38, 23
6, 3480, Note_on_c, 9, 51, 78
6, 3480, Note_on_c, 9, 35, 34
6, 3520, Note_on_c, 9, 35, 0
6, 3520, Note_on_c, 9, 51, 0
6, 3520, Note_on_c, 9, 38, 0
6, 3529, Note_on_c, 9, 44, 0
6, 3563, Note_on_c, 9, 51, 58
6, 3600, Note_on_c, 9, 51, 0
6, 3600, Note_on_c, 9, 51, 78
6, 3640, Note_on_c, 9, 51, 0
6, 3676, Note_on_c, 9, 44, 51
6, 3691, Note_on_c, 9, 44, 0
6, 3720, Note_on_c, 9, 38, 23
6, 3720, Note_on_c, 9, 51, 78
6, 3720, Note_on_c, 9, 35, 34
6, 3729, Note_on_c, 9, 44, 65
6, 3760, Note_on_c, 9, 35, 0
6, 3760, Note_on_c, 9, 38, 0
6, 3760, Note_on_c, 9, 51, 0
6, 3803, Note_on_c, 9, 51, 58
6, 3806, Note_on_c, 9, 44, 0
6, 3840, Note_on_c, 9, 51, 0
6, 3840, Note_on_c, 9, 51, 78
6, 3840, Note_on_c, 9, 35, 34
6, 3880, Note_on_c, 9, 35, 0
6, 3880, Note_on_c, 9, 51, 0
6, 3956, Note_on_c, 9, 44, 71
6, 3960, Note_on_c, 9, 38, 23
6, 3960, Note_on_c, 9, 51, 78
6, 3960, Note_on_c, 9, 35, 34
6, 4000, Note_on_c, 9, 35, 0
6, 4000, Note_on_c, 9, 51, 0
6, 4000, Note_on_c, 9, 38, 0
6, 4007, Note_on_c, 9, 44, 0
6, 4043, Note_on_c, 9, 51, 58
6, 4080, Note_on_c, 9, 51, 0
6, 4080, Note_on_c, 9, 51, 78
6, 4120, Note_on_c, 9, 51, 0
6, 4200, Note_on_c, 9, 38, 23
6, 4200, Note_on_c, 9, 51, 78
6, 4200, Note_on_c, 9, 35, 34
6, 4201, Note_on_c, 9, 44, 81
6, 4240, Note_on_c, 9, 35, 0
6, 4240, Note_on_c, 9, 38, 0
6, 4240, Note_on_c, 9, 51, 0
6, 4259, Note_on_c, 9, 44, 0
6, 4283, Note_on_c, 9, 51, 58
6, 4320, Note_on_c, 9, 51, 0
6, 4320, Note_on_c, 9, 51, 78
6, 4320, Note_on_c, 9, 35, 34
6, 4360, Note_on_c, 9, 35, 0
6, 4360, Note_on_c, 9, 51, 0
6, 4440, Note_on_c, 9, 38, 23
6, 4440, Note_on_c, 9, 51, 78
6, 4440, Note_on_c, 9, 35, 34
6, 4448, Note_on_c, 9, 44, 77
6, 4480, Note_on_c, 9, 35, 0
6, 4480, Note_on_c, 9, 38, 0
6, 4480, Note_on_c, 9, 51, 0
6, 4500, Note_on_c, 9, 44, 0
6, 4523, Note_on_c, 9, 51, 58
6, 4560, Note_on_c, 9, 51, 0
6, 4560, Note_on_c, 9, 51, 78
6, 4600, Note_on_c, 9, 51, 0
6, 4680, Note_on_c, 9, 38, 23
6, 4680, Note_on_c, 9, 51, 78
6, 4680, Note_on_c, 9, 35, 34
6, 4686, Note_on_c, 9, 44, 77
6, 4720, Note_on_c, 9, 35, 0
6, 4720, Note_on_c, 9, 38, 0
6, 4720, Note_on_c, 9, 51, 0
6, 4745, Note_on_c, 9, 44, 0
6, 4763, Note_on_c, 9, 51, 58
6, 4800, Note_on_c, 9, 51, 0
6, 4800, Note_on_c, 9, 38, 38
6, 4800, Note_on_c, 9, 51, 78
6, 4840, Note_on_c, 9, 51, 0
6, 4840, Note_on_c, 9, 38, 0
6, 4920, Note_on_c, 9, 51, 78
6, 4934, Note_on_c, 9, 44, 79
6, 4960, Note_on_c, 9, 51, 0
6, 4989, Note_on_c, 9, 44, 0
6, 5008, Note_on_c, 9, 51, 58
6, 5040, Note_on_c, 9, 51, 0
6, 5040, Note_on_c, 9, 51, 78
6, 5080, Note_on_c, 9, 51, 0
6, 5160, Note_on_c, 9, 38, 48
6, 5160, Note_on_c, 9, 51, 78
6, 5167, Note_on_c, 9, 44, 77
6, 5200, Note_on_c, 9, 51, 0
6, 5200, Note_on_c, 9, 38, 0
6, 5228, Note_on_c, 9, 44, 0
6, 5248, Note_on_c, 9, 51, 58
6, 5280, Note_on_c, 9, 51, 0
6, 5280, Note_on_c, 9, 38, 38
6, 5280, Note_on_c, 9, 51, 78
6, 5320, Note_on_c, 9, 51, 0
6, 5320, Note_on_c, 9, 38, 0
6, 5400, Note_on_c, 9, 51, 78
6, 5402, Note_on_c, 9, 46, 69
6, 5440, Note_on_c, 9, 51, 0
6, 5459, Note_on_c, 9, 46, 0
6, 5488, Note_on_c, 9, 51, 58
6, 5520, Note_on_c, 9, 51, 0
6, 5520, Note_on_c, 9, 51, 78
6, 5560, Note_on_c, 9, 51, 0
6, 5633, Note_on_c, 9, 44, 73
6, 5640, Note_on_c, 9, 38, 48
6, 5640, Note_on_c, 9, 51, 78
6, 5680, Note_on_c, 9, 51, 0
6, 5680, Note_on_c, 9, 38, 0
6, 5688, Note_on_c, 9, 44, 0
6, 5728, Note_on_c, 9, 51, 58
6, 5760, Note_on_c, 9, 51, 0
6, 5760, Note_on_c, 9, 51, 78
6, 5760, Note_on_c, 9, 35, 34
6, 5800, Note_on_c, 9, 35, 0
6, 5800, Note_on_c, 9, 51, 0
6, 5876, Note_on_c, 9, 44, 76
6, 5880, Note_on_c, 9, 38, 23
6, 5880, Note_on_c, 9, 51, 78
6, 5880, Note_on_c, 9, 35, 34
6, 5920, Note_on_c, 9, 35, 0
6, 5920, Note_on_c, 9, 51, 0
6, 5920, Note_on_c, 9, 38, 0
6, 5961, Note_on_c, 9, 44, 0
6, 5963, Note_on_c, 9, 51, 58
6, 6000, Note_on_c, 9, 51, 0
6, 6000, Note_on_c, 9, 51, 78
6, 6040, Note_on_c, 9, 51, 0
6, 6120, Note_on_c, 9, 38, 23
6, 6120, Note_on_c, 9, 51, 78
6, 6120, Note_on_c, 9, 35, 34
6, 6123, Note_on_c, 9, 44, 73
6, 6160, Note_on_c, 9, 35, 0
6, 6160, Note_on_c, 9, 38, 0
6, 6160, Note_on_c, 9, 51, 0
6, 6203, Note_on_c, 9, 44, 0
6, 6203, Note_on_c, 9, 51, 58
6, 6240, Note_on_c, 9, 51, 0
6, 6240, Note_on_c, 9, 51, 78
6, 6240, Note_on_c, 9, 35, 34
6, 6280, Note_on_c, 9, 35, 0
6, 6280, Note_on_c, 9, 51, 0
6, 6358, Note_on_c, 9, 44, 74
6, 6360, Note_on_c, 9, 38, 23
6, 6360, Note_on_c, 9, 51, 78
6, 6360, Note_on_c, 9, 35, 34
6, 6400, Note_on_c, 9, 35, 0
6, 6400, Note_on_c, 9, 51, 0
6, 6400, Note_on_c, 9, 38, 0
6, 6423, Note_on_c, 9, 44, 0
6, 6443, Note_on_c, 9, 51, 58
6, 6480, Note_on_c, 9, 51, 0
6, 6480, Note_on_c, 9, 51, 78
6, 6520, Note_on_c, 9, 51, 0
6, 6600, Note_on_c, 9, 38, 23
6, 6600, Note_on_c, 9, 51, 78
6, 6600, Note_on_c, 9, 35, 34
6, 6601, Note_on_c, 9, 44, 63
6, 6640, Note_on_c, 9, 35, 0
6, 6640, Note_on_c, 9, 38, 0
6, 6640, Note_on_c, 9, 51, 0
6, 6680, Note_on_c, 9, 44, 0
6, 6683, Note_on_c, 9, 51, 58
6, 6720, Note_on_c, 9, 51, 0
6, 6720, Note_on_c, 9, 51, 78
6, 6720, Note_on_c, 9, 35, 34
6, 6760, Note_on_c, 9, 35, 0
6, 6760, Note_on_c, 9, 51, 0
6, 6840, Note_on_c, 9, 38, 23
6, 6840, Note_on_c, 9, 51, 78
6, 6840, Note_on_c, 9, 35, 34
6, 6852, Note_on_c, 9, 44, 72
6, 6880, Note_on_c, 9, 35, 0
6, 6880, Note_on_c, 9, 38, 0
6, 6880, Note_on_c, 9, 51, 0
6, 6915, Note_on_c, 9, 44, 0
6, 6923, Note_on_c, 9, 51, 58
6, 6960, Note_on_c, 9, 51, 0
6, 6960, Note_on_c, 9, 51, 78
6, 7000, Note_on_c, 9, 51, 0
6, 7080, Note_on_c, 9, 38, 23
6, 7080, Note_on_c, 9, 51, 78
6, 7080, Note_on_c, 9, 35, 34
6, 7086, Note_on_c, 9, 44, 74
6, 7120, Note_on_c, 9, 35, 0
6, 7120, Note_on_c, 9, 38, 0
6, 7120, Note_on_c, 9, 51, 0
6, 7146, Note_on_c, 9, 44, 0
6, 7163, Note_on_c, 9, 51, 58
6, 7200, Note_on_c, 9, 51, 0
6, 7200, Note_on_c, 9, 51, 78
6, 7240, Note_on_c, 9, 51, 0
6, 7284, Note_on_c, 9, 38, 38
6, 7320, Note_on_c, 9, 38, 0
6, 7320, Note_on_c, 9, 51, 78
6, 7326, Note_on_c, 9, 44, 72
6, 7360, Note_on_c, 9, 51, 0
6, 7395, Note_on_c, 9, 44, 0
6, 7404, Note_on_c, 9, 38, 23
6, 7404, Note_on_c, 9, 51, 58
6, 7440, Note_on_c, 9, 51, 0
6, 7440, Note_on_c, 9, 38, 0
6, 7440, Note_on_c, 9, 38, 38
6, 7440, Note_on_c, 9, 51, 78
6, 7480, Note_on_c, 9, 51, 0
6, 7480, Note_on_c, 9, 38, 0
6, 7524, Note_on_c, 9, 38, 48
6, 7560, Note_on_c, 9, 38, 0
6, 7560, Note_on_c, 9, 51, 78
6, 7566, Note_on_c, 9, 46, 64
6, 7600, Note_on_c, 9, 51, 0
6, 7629, Note_on_c, 9, 46, 0
6, 7644, Note_on_c, 9, 38, 38
6, 7644, Note_on_c, 9, 51, 58
6, 7680, Note_on_c, 9, 51, 0
6, 7680, Note_on_c, 9, 38, 0
6, 7680, Note_on_c, 9, 51, 78
6, 7680, Note_on_c, 9, 35, 34
6, 7720, Note_on_c, 9, 35, 0
6, 7720, Note_on_c, 9, 51, 0
6, 7789, Note_on_c, 9, 44, 71
6, 7800, Note_on_c, 9, 38, 23
6, 7800, Note_on_c, 9, 51, 78
6, 7800, Note_on_c, 9, 35, 34
6, 7840, Note_on_c, 9, 35, 0
6, 7840, Note_on_c, 9, 51, 0
6, 7840, Note_on_c, 9, 38, 0
6, 7848, Note_on_c, 9, 44, 0
6, 7883, Note_on_c, 9, 51, 58
6, 7920, Note_on_c, 9, 51, 0
6, 7920, Note_on_c, 9, 51, 78
6, 7960, Note_on_c, 9, 51, 0
6, 8040, Note_on_c, 9, 38, 23
6, 8040, Note_on_c, 9, 51, 78
6, 8040, Note_on_c, 9, 35, 34
6, 8041, Note_on_c, 9, 44, 74
6, 8080, Note_on_c, 9, 35, 0
6, 8080, Note_on_c, 9, 38, 0
6, 8080, Note_on_c, 9, 51, 0
6, 8101, Note_on_c, 9, 44, 0
6, 8123, Note_on_c, 9, 51, 58
6, 8160, Note_on_c, 9, 51, 0
6, 8160, Note_on_c, 9, 51, 78
6, 8160, Note_on_c, 9, 35, 34
6, 8200, Note_on_c, 9, 35, 0
6, 8200, Note_on_c, 9, 51, 0
6, 8280, Note_on_c, 9, 38, 23
6, 8280, Note_on_c, 9, 51, 78
6, 8280, Note_on_c, 9, 35, 34
6, 8286, Note_on_c, 9, 44, 74
6, 8320, Note_on_c, 9, 35, 0
6, 8320, Note_on_c, 9, 38, 0
6, 8320, Note_on_c, 9, 51, 0
6, 8349, Note_on_c, 9, 44, 0
6, 8363, Note_on_c, 9, 51, 58
6, 8400, Note_on_c, 9, 51, 0
6, 8400, Note_on_c, 9, 51, 78
6, 8440, Note_on_c, 9, 51, 0
6, 8520, Note_on_c, 9, 38, 23
6, 8520, Note_on_c, 9, 51, 78
6, 8520, Note_on_c, 9, 35, 34
6, 8531, Note_on_c, 9, 44, 74
6, 8560, Note_on_c, 9, 35, 0
6, 8560, Note_on_c, 9, 38, 0
6, 8560, Note_on_c, 9, 51, 0
6, 8602, Note_on_c, 9, 44, 0
6, 8603, Note_on_c, 9, 51, 58
6, 8640, Note_on_c, 9, 51, 0
6, 8640, Note_on_c, 9, 51, 78
6, 8640, Note_on_c, 9, 35, 34
6, 8680, Note_on_c, 9, 35, 0
6, 8680, Note_on_c, 9, 51, 0
6, 8760, Note_on_c, 9, 38, 23
6, 8760, Note_on_c, 9, 51, 78
6, 8760, Note_on_c, 9, 35, 34
6, 8769, Note_on_c, 9, 44, 74
6, 8800, Note_on_c, 9, 35, 0
6, 8800, Note_on_c, 9, 38, 0
6, 8800, Note_on_c, 9, 51, 0
6, 8843, Note_on_c, 9, 44, 0
6, 8843, Note_on_c, 9, 51, 58
6, 8880, Note_on_c, 9, 51, 0
6, 8880, Note_on_c, 9, 51, 78
6, 8920, Note_on_c, 9, 51, 0
6, 8996, Note_on_c, 9, 44, 75
6, 9000, Note_on_c, 9, 38, 23
6, 9000, Note_on_c, 9, 51, 78
6, 9000, Note_on_c, 9, 35, 34
6, 9040, Note_on_c, 9, 35, 0
6, 9040, Note_on_c, 9, 51, 0
6, 9040, Note_on_c, 9, 38, 0
6, 9063, Note_on_c, 9, 44, 0
6, 9083, Note_on_c, 9, 51, 58
6, 9120, Note_on_c, 9, 51, 0
6, 9120, Note_on_c, 9, 51, 78
6, 9120, Note_on_c, 9, 35, 34
6, 9160, Note_on_c, 9, 35, 0
6, 9160, Note_on_c, 9, 51, 0
6, 9200, Note_on_c, 9, 38, 58
6, 9239, Note_on_c, 9, 44, 74
6, 9240, Note_on_c, 9, 38, 0
6, 9240, Note_on_c, 9, 51, 78
6, 9280, Note_on_c, 9, 51, 0
6, 9315, Note_on_c, 9, 44, 0
6, 9320, Note_on_c, 9, 38, 58
6, 9360, Note_on_c, 9, 38, 0
6, 9360, Note_on_c, 9, 38, 78
6, 9360, Note_on_c, 9, 51, 78
6, 9400, Note_on_c, 9, 51, 0
6, 9400, Note_on_c, 9, 38, 0
6, 9440, Note_on_c, 9, 38, 88
6, 9474, Note_on_c, 9, 44, 74
6, 9480, Note_on_c, 9, 38, 0
6, 9480, Note_on_c, 9, 51, 78
6, 9520, Note_on_c, 9, 51, 0
6, 9549, Note_on_c, 9, 44, 0
6, 9560, Note_on_c, 9, 38, 88
6, 9560, Note_on_c, 9, 49, 88
6, 9600, Note_on_c, 9, 49, 0
6, 9600, Note_on_c, 9, 38, 0
6, 9600, Note_on_c, 9, 51, 78
6, 9600, Note_on_c, 9, 35, 34
6, 9640, Note_on_c, 9, 35, 0
6, 9640, Note_on_c, 9, 51, 0
6, 9716, Note_on_c, 9, 44, 74
6, 9720, Note_on_c, 9, 38, 23
6, 9720, Note_on_c, 9, 51, 78
6, 9720, Note_on_c, 9, 35, 34
6, 9760, Note_on_c, 9, 35, 0
6, 9760, Note_on_c, 9, 51, 0
6, 9760, Note_on_c, 9, 38, 0
6, 9790, Note_on_c, 9, 44, 0
6, 9803, Note_on_c, 9, 51, 58
6, 9840, Note_on_c, 9, 51, 0
6, 9840, Note_on_c, 9, 51, 78
6, 9880, Note_on_c, 9, 51, 0
6, 9960, Note_on_c, 9, 38, 23
6, 9960, Note_on_c, 9, 51, 78
6, 9960, Note_on_c, 9, 35, 34
6, 9962, Note_on_c, 9, 44, 72
6, 10000, Note_on_c, 9, 35, 0
6, 10000, Note_on_c, 9, 38, 0
6, 10000, Note_on_c, 9, 51, 0
6, 10043, Note_on_c, 9, 51, 58
6, 10071, Note_on_c, 9, 44, 0
6, 10080, Note_on_c, 9, 51, 0
6, 10080, Note_on_c, 9, 51, 78
6, 10080, Note_on_c, 9, 35, 34
6, 10120, Note_on_c, 9, 35, 0
6, 10120, Note_on_c, 9, 51, 0
6, 10200, Note_on_c, 9, 38, 23
6, 10200, Note_on_c, 9, 51, 78
6, 10200, Note_on_c, 9, 35, 34
6, 10207, Note_on_c, 9, 44, 74
6, 10240, Note_on_c, 9, 35, 0
6, 10240, Note_on_c, 9, 38, 0
6, 10240, Note_on_c, 9, 51, 0
6, 10283, Note_on_c, 9, 51, 58
6, 10291, Note_on_c, 9, 44, 0
6, 10320, Note_on_c, 9, 51, 0
6, 10320, Note_on_c, 9, 51, 78
6, 10360, Note_on_c, 9, 51, 0
6, 10440, Note_on_c, 9, 38, 23
6, 10440, Note_on_c, 9, 51, 78
6, 10440, Note_on_c, 9, 35, 34
6, 10446, Note_on_c, 9, 44, 73
6, 10480, Note_on_c, 9, 35, 0
6, 10480, Note_on_c, 9, 38, 0
6, 10480, Note_on_c, 9, 51, 0
6, 10518, Note_on_c, 9, 44, 0
6, 10523, Note_on_c, 9, 51, 58
6, 10560, Note_on_c, 9, 51, 0
6, 10560, Note_on_c, 9, 38, 38
6, 10560, Note_on_c, 9, 51, 78
6, 10600, Note_on_c, 9, 51, 0
6, 10600, Note_on_c, 9, 38, 0
6, 10680, Note_on_c, 9, 51, 78
6, 10685, Note_on_c, 9, 44, 74
6, 10720, Note_on_c, 9, 51, 0
6, 10755, Note_on_c, 9, 44, 0
6, 10768, Note_on_c, 9, 51, 58
6, 10800, Note_on_c, 9, 51, 0
6, 10800, Note_on_c, 9, 51, 78
6, 10840, Note_on_c, 9, 51, 0
6, 10920, Note_on_c, 9, 38, 48
6, 10920, Note_on_c, 9, 51, 78
6, 10920, Note_on_c, 9, 44, 75
6, 10960, Note_on_c, 9, 51, 0
6, 10960, Note_on_c, 9, 38, 0
6, 10982, Note_on_c, 9, 44, 0
6, 11008, Note_on_c, 9, 51, 58
6, 11040, Note_on_c, 9, 51, 0
6, 11040, Note_on_c, 9, 51, 78
6, 11040, Note_on_c, 9, 35, 43
6, 11080, Note_on_c, 9, 35, 0
6, 11080, Note_on_c, 9, 51, 0
6, 11160, Note_on_c, 9, 51, 78
6, 11165, Note_on_c, 9, 44, 74
6, 11200, Note_on_c, 9, 51, 0
6, 11242, Note_on_c, 9, 44, 0
6, 11244, Note_on_c, 9, 51, 58
6, 11244, Note_on_c, 9, 49, 68
6, 11244, Note_on_c, 9, 35, 61
6, 11280, Note_on_c, 9, 35, 0
6, 11280, Note_on_c, 9, 49, 0
6, 11280, Note_on_c, 9, 51, 0
6, 11280, Note_on_c, 9, 51, 78
6, 11320, Note_on_c, 9, 51, 0
6, 11364, Note_on_c, 9, 38, 38
6, 11400, Note_on_c, 9, 38, 0
6, 11400, Note_on_c, 9, 51, 78
6, 11401, Note_on_c, 9, 44, 77
6, 11440, Note_on_c, 9, 51, 0
6, 11469, Note_on_c, 9, 44, 0
6, 11484, Note_on_c, 9, 38, 58
6, 11484, Note_on_c, 9, 51, 58
6, 11520, Note_on_c, 9, 51, 0
6, 11520, Note_on_c, 9, 38, 0
6, 11520, Note_on_c, 9, 51, 78
6, 11560, Note_on_c, 9, 51, 0
6, 11604, Note_on_c, 9, 38, 38
6, 11638, Note_on_c, 9, 44, 76
6, 11640, Note_on_c, 9, 38, 0
6, 11640, Note_on_c, 9, 51, 78
6, 11680, Note_on_c, 9, 51, 0
6, 11712, Note_on_c, 9, 44, 0
6, 11724, Note_on_c, 9, 38, 23
6, 11724, Note_on_c, 9, 51, 58
6, 11760, Note_on_c, 9, 51, 0
6, 11760, Note_on_c, 9, 38, 0
6, 11760, Note_on_c, 9, 38, 38
6, 11760, Note_on_c, 9, 51, 78
6, 11800, Note_on_c, 9, 51, 0
6, 11800, Note_on_c, 9, 38, 0
6, 11844, Note_on_c, 9, 38, 48
6, 11880, Note_on_c, 9, 38, 0
6, 11880, Note_on_c, 9, 51, 78
6, 11883, Note_on_c, 9, 44, 71
6, 11920, Note_on_c, 9, 51, 0
6, 11950, Note_on_c, 9, 44, 0
6, 11964, Note_on_c, 9, 38, 38
6, 11964, Note_on_c, 9, 51, 58
6, 12000, Note_on_c, 9, 51, 0
6, 12000, Note_on_c, 9, 38, 0
6, 12000, Note_on_c, 9, 51, 78
6, 12000, Note_on_c, 9, 35, 34
6, 12040, Note_on_c, 9, 35, 0
6, 12040, Note_on_c, 9, 51, 0
6, 12120, Note_on_c, 9, 38, 23
6, 12120, Note_on_c, 9, 51, 78
6, 12120, Note_on_c, 9, 35, 34
6, 12130, Note_on_c, 9, 44, 74
6, 12160, Note_on_c, 9, 35, 0
6, 12160, Note_on_c, 9, 38, 0
6, 12160, Note_on_c, 9, 51, 0
6, 12188, Note_on_c, 9, 44, 0
6, 12203, Note_on_c, 9, 51, 58
6, 12240, Note_on_c, 9, 51, 0
6, 12240, Note_on_c, 9, 51, 78
6, 12280, Note_on_c, 9, 51, 0
6, 12360, Note_on_c, 9, 38, 23
6, 12360, Note_on_c, 9, 51, 78
6, 12360, Note_on_c, 9, 35, 34
6, 12363, Note_on_c, 9, 44, 78
6, 12400, Note_on_c, 9, 35, 0
6, 12400, Note_on_c, 9, 38, 0
6, 12400, Note_on_c, 9, 51, 0
6, 12443, Note_on_c, 9, 51, 58
6, 12457, Note_on_c, 9, 44, 0
6, 12480, Note_on_c, 9, 51, 0
6, 12480, Note_on_c, 9, 51, 78
6, 12520, Note_on_c, 9, 51, 0
6, 12564, Note_on_c, 9, 38, 38
6, 12600, Note_on_c, 9, 38, 0
6, 12600, Note_on_c, 9, 51, 78
6, 12609, Note_on_c, 9, 44, 83
6, 12640, Note_on_c, 9, 51, 0
6, 12684, Note_on_c, 9, 38, 23
6, 12684, Note_on_c, 9, 51, 58
6, 12697, Note_on_c, 9, 44, 0
6, 12720, Note_on_c, 9, 51, 0
6, 12720, Note_on_c, 9, 38, 0
6, 12720, Note_on_c, 9, 38, 38
6, 12720, Note_on_c, 9, 51, 78
6, 12760, Note_on_c, 9, 51, 0
6, 12760, Note_on_c, 9, 38, 0
6, 12804, Note_on_c, 9, 38, 48
6, 12840, Note_on_c, 9, 38, 0
6, 12840, Note_on_c, 9, 51, 78
6, 12846, Note_on_c, 9, 44, 83
6, 12880, Note_on_c, 9, 51, 0
6, 12920, Note_on_c, 9, 44, 0
6, 12924, Note_on_c, 9, 38, 38
6, 12924, Note_on_c, 9, 51, 58
6, 12960, Note_on_c, 9, 51, 0
6, 12960, Note_on_c, 9, 38, 0
6, 12960, Note_on_c, 9, 38, 58
6, 12960, Note_on_c, 9, 51, 68
6, 13000, Note_on_c, 9, 51, 0
6, 13000, Note_on_c, 9, 38, 0
6, 13044, Note_on_c, 9, 51, 48
6, 13044, Note_on_c, 9, 35, 43
6, 13080, Note_on_c, 9, 35, 0
6, 13080, Note_on_c, 9, 51, 0
6, 13080, Note_on_c, 9, 51, 78
6, 13080, Note_on_c, 9, 35, 52
6, 13083, Note_on_c, 9, 44, 60
6, 13120, Note_on_c, 9, 35, 0
6, 13120, Note_on_c, 9, 51, 0
6, 13158, Note_on_c, 9, 44, 0
6, 13164, Note_on_c, 9, 38, 68
6, 13200, Note_on_c, 9, 38, 0
6, 13200, Note_on_c, 9, 51, 78
6, 13240, Note_on_c, 9, 51, 0
6, 13284, Note_on_c, 9, 38, 78
6, 13320, Note_on_c, 9, 38, 0
6, 13320, Note_on_c, 9, 51, 78
6, 13327, Note_on_c, 9, 44, 75
6, 13360, Note_on_c, 9, 51, 0
6, 13400, Note_on_c, 9, 44, 0
6, 13404, Note_on_c, 9, 51, 58
6, 13440, Note_on_c, 9, 51, 0
6, 13440, Note_on_c, 9, 38, 38
6, 13440, Note_on_c, 9, 51, 78
6, 13480, Note_on_c, 9, 51, 0
6, 13480, Note_on_c, 9, 38, 0
6, 13560, Note_on_c, 9, 51, 78
6, 13563, Note_on_c, 9, 44, 50
6, 13600, Note_on_c, 9, 51, 0
6, 13620, Note_on_c, 9, 44, 0
6, 13648, Note_on_c, 9, 51, 58
6, 13680, Note_on_c, 9, 51, 0
6, 13680, Note_on_c, 9, 51, 78
6, 13720, Note_on_c, 9, 51, 0
6, 13800, Note_on_c, 9, 38, 48
6, 13800, Note_on_c, 9, 51, 78
6, 13805, Note_on_c, 9, 44, 74
6, 13840, Note_on_c, 9, 51, 0
6, 13840, Note_on_c, 9, 38, 0
6, 13869, Note_on_c, 9, 44, 0
6, 13888, Note_on_c, 9, 51, 58
6, 13920, Note_on_c, 9, 51, 0
6, 13920, Note_on_c, 9, 51, 78
6, 13920, Note_on_c, 9, 35, 34
6, 13960, Note_on_c, 9, 35, 0
6, 13960, Note_on_c, 9, 51, 0
6, 14035, Note_on_c, 9, 44, 59
6, 14040, Note_on_c, 9, 38, 23
6, 14040, Note_on_c, 9, 51, 78
6, 14040, Note_on_c, 9, 35, 34
6, 14080, Note_on_c, 9, 35, 0
6, 14080, Note_on_c, 9, 51, 0
6, 14080, Note_on_c, 9, 38, 0
6, 14091, Note_on_c, 9, 44, 0
6, 14123, Note_on_c, 9, 51, 58
6, 14160, Note_on_c, 9, 51, 0
6, 14160, Note_on_c, 9, 51, 78
6, 14200, Note_on_c, 9, 51, 0
6, 14280, Note_on_c, 9, 38, 23
6, 14280, Note_on_c, 9, 51, 78
6, 14280, Note_on_c, 9, 35, 34
6, 14281, Note_on_c, 9, 46, 67
6, 14320, Note_on_c, 9, 35, 0
6, 14320, Note_on_c, 9, 38, 0
6, 14320, Note_on_c, 9, 51, 0
6, 14342, Note_on_c, 9, 46, 0
6, 14363, Note_on_c, 9, 51, 58
6, 14400, Note_on_c, 9, 51, 0
6, 14400, Note_on_c, 9, 51, 78
6, 14400, Note_on_c, 9, 35, 34
6, 14440, Note_on_c, 9, 35, 0
6, 14440, Note_on_c, 9, 51, 0
6, 14519, Note_on_c, 9, 44, 68
6, 14520, Note_on_c, 9, 38, 23
6, 14520, Note_on_c, 9, 51, 78
6, 14520, Note_on_c, 9, 35, 34
6, 14560, Note_on_c, 9, 35, 0
6, 14560, Note_on_c, 9, 51, 0
6, 14560, Note_on_c, 9, 38, 0
6, 14580, Note_on_c, 9, 44, 0
6, 14603, Note_on_c, 9, 51, 58
6, 14640, Note_on_c, 9, 51, 0
6, 14640, Note_on_c, 9, 51, 78
6, 14680, Note_on_c, 9, 51, 0
6, 14760, Note_on_c, 9, 38, 23
6, 14760, Note_on_c, 9, 51, 78
6, 14760, Note_on_c, 9, 35, 34
6, 14766, Note_on_c, 9, 44, 69
6, 14800, Note_on_c, 9, 35, 0
6, 14800, Note_on_c, 9, 38, 0
6, 14800, Note_on_c, 9, 51, 0
6, 14822, Note_on_c, 9, 44, 0
6, 14843, Note_on_c, 9, 51, 58
6, 14880, Note_on_c, 9, 51, 0
6, 14880, Note_on_c, 9, 51, 78
6, 14880, Note_on_c, 9, 35, 34
6, 14920, Note_on_c, 9, 35, 0
6, 14920, Note_on_c, 9, 51, 0
6, 14999, Note_on_c, 9, 44, 71
6, 15000, Note_on_c, 9, 38, 23
6, 15000, Note_on_c, 9, 51, 78
6, 15000, Note_on_c, 9, 35, 34
6, 15040, Note_on_c, 9, 35, 0
6, 15040, Note_on_c, 9, 51, 0
6, 15040, Note_on_c, 9, 38, 0
6, 15060, Note_on_c, 9, 44, 0
6, 15083, Note_on_c, 9, 51, 58
6, 15120, Note_on_c, 9, 51, 0
6, 15120, Note_on_c, 9, 51, 78
6, 15160, Note_on_c, 9, 51, 0
6, 15237, Note_on_c, 9, 44, 74
6, 15240, Note_on_c, 9, 38, 23
6, 15240, Note_on_c, 9, 51, 78
6, 15240, Note_on_c, 9, 35, 34
6, 15280, Note_on_c, 9, 35, 0
6, 15280, Note_on_c, 9, 51, 0
6, 15280, Note_on_c, 9, 38, 0
6, 15292, Note_on_c, 9, 44, 0
6, 15323, Note_on_c, 9, 51, 58
6, 15360, Note_on_c, 9, 51, 0
6, 15360, Note_on_c, 9, 38, 38
6, 15360, Note_on_c, 9, 51, 78
6, 15400, Note_on_c, 9, 51, 0
6, 15400, Note_on_c, 9, 38, 0
6, 15480, Note_on_c, 9, 51, 78
6, 15490, Note_on_c, 9, 46, 65
6, 15520, Note_on_c, 9, 51, 0
6, 15552, Note_on_c, 9, 46, 0
6, 15568, Note_on_c, 9, 51, 58
6, 15600, Note_on_c, 9, 51, 0
6, 15600, Note_on_c, 9, 51, 78
6, 15640, Note_on_c, 9, 51, 0
6, 15720, Note_on_c, 9, 38, 48
6, 15720, Note_on_c, 9, 51, 78
6, 15722, Note_on_c, 9, 46, 72
6, 15760, Note_on_c, 9, 51, 0
6, 15760, Note_on_c, 9, 38, 0
6, 15779, Note_on_c, 9, 46, 0
6, 15808, Note_on_c, 9, 51, 58
6, 15840, Note_on_c, 9, 51, 0
6, 15840, Note_on_c, 9, 51, 78
6, 15840, Note_on_c, 9, 35, 34
6, 15880, Note_on_c, 9, 35, 0
6, 15880, Note_on_c, 9, 51, 0
6, 15956, Note_on_c, 9, 44, 76
6, 15960, Note_on_c, 9, 38, 23
6, 15960, Note_on_c, 9, 51, 78
6, 15960, Note_on_c, 9, 35, 34
6, 16000, Note_on_c, 9, 35, 0
6, 16000, Note_on_c, 9, 51, 0
6, 16000, Note_on_c, 9, 38, 0
6, 16017, Note_on_c, 9, 44, 0
6, 16043, Note_on_c, 9, 51, 58
6, 16080, Note_on_c, 9, 51, 0
6, 16080, Note_on_c, 9, 51, 78
6, 16120, Note_on_c, 9, 51, 0
6, 16197, Note_on_c, 9, 44, 77
6, 16200, Note_on_c, 9, 38, 23
6, 16200, Note_on_c, 9, 51, 78
6, 16200, Note_on_c, 9, 35, 34
6, 16240, Note_on_c, 9, 35, 0
6, 16240, Note_on_c, 9, 51, 0
6, 16240, Note_on_c, 9, 38, 0
6, 16258, Note_on_c, 9, 44, 0
6, 16283, Note_on_c, 9, 51, 58
6, 16320, Note_on_c, 9, 51, 0
6, 16320, Note_on_c, 9, 51, 78
6, 16320, Note_on_c, 9, 35, 34
6, 16360, Note_on_c, 9, 35, 0
6, 16360, Note_on_c, 9, 51, 0
6, 16434, Note_on_c, 9, 44, 76
6, 16440, Note_on_c, 9, 38, 23
6, 16440, Note_on_c, 9, 51, 78
6, 16440, Note_on_c, 9, 35, 34
6, 16480, Note_on_c, 9, 35, 0
6, 16480, Note_on_c, 9, 51, 0
6, 16480, Note_on_c, 9, 38, 0
6, 16497, Note_on_c, 9, 44, 0
6, 16523, Note_on_c, 9, 51, 58
6, 16560, Note_on_c, 9, 51, 0
6, 16560, Note_on_c, 9, 51, 78
6, 16600, Note_on_c, 9, 51, 0
6, 16674, Note_on_c, 9, 44, 75
6, 16680, Note_on_c, 9, 38, 23
6, 16680, Note_on_c, 9, 51, 78
6, 16680, Note_on_c, 9, 35, 34
6, 16720, Note_on_c, 9, 35, 0
6, 16720, Note_on_c, 9, 51, 0
6, 16720, Note_on_c, 9, 38, 0
6, 16763, Note_on_c, 9, 51, 58
6, 16786, Note_on_c, 9, 44, 0
6, 16800, Note_on_c, 9, 51, 0
6, 16800, Note_on_c, 9, 51, 78
6, 16800, Note_on_c, 9, 35, 34
6, 16840, Note_on_c, 9, 35, 0
6, 16840, Note_on_c, 9, 51, 0
6, 16880, Note_on_c, 9, 38, 78
6, 16920, Note_on_c, 9, 38, 0
6, 16920, Note_on_c, 9, 51, 78
6, 16921, Note_on_c, 9, 44, 79
6, 16960, Note_on_c, 9, 51, 0
6, 16996, Note_on_c, 9, 44, 0
6, 17000, Note_on_c, 9, 51, 58
6, 17040, Note_on_c, 9, 51, 0
6, 17040, Note_on_c, 9, 51, 78
6, 17080, Note_on_c, 9, 51, 0
6, 17120, Note_on_c, 9, 38, 88
6, 17160, Note_on_c, 9, 38, 0
6, 17160, Note_on_c, 9, 51, 78
6, 17160, Note_on_c, 9, 44, 70
6, 17200, Note_on_c, 9, 51, 0
6, 17240, Note_on_c, 9, 38, 38
6, 17253, Note_on_c, 9, 44, 0
6, 17280, Note_on_c, 9, 38, 0
6, 17280, Note_on_c, 9, 51, 78
6, 17280, Note_on_c, 9, 35, 34
6, 17320, Note_on_c, 9, 35, 0
6, 17320, Note_on_c, 9, 51, 0
6, 17399, Note_on_c, 9, 44, 71
6, 17400, Note_on_c, 9, 38, 23
6, 17400, Note_on_c, 9, 51, 78
6, 17400, Note_on_c, 9, 35, 34
6, 17440, Note_on_c, 9, 35, 0
6, 17440, Note_on_c, 9, 51, 0
6, 17440, Note_on_c, 9, 38, 0
6, 17463, Note_on_c, 9, 44, 0
6, 17483, Note_on_c, 9, 51, 58
6, 17520, Note_on_c, 9, 51, 0
6, 17520, Note_on_c, 9, 51, 78
6, 17560, Note_on_c, 9, 51, 0
6, 17637, Note_on_c, 9, 44, 65
6, 17640, Note_on_c, 9, 38, 23
6, 17640, Note_on_c, 9, 51, 78
6, 17640, Note_on_c, 9, 35, 34
6, 17680, Note_on_c, 9, 35, 0
6, 17680, Note_on_c, 9, 51, 0
6, 17680, Note_on_c, 9, 38, 0
6, 17707, Note_on_c, 9, 44, 0
6, 17723, Note_on_c, 9, 51, 58
6, 17760, Note_on_c, 9, 51, 0
6, 17760, Note_on_c, 9, 51, 78
6, 17760, Note_on_c, 9, 35, 34
6, 17800, Note_on_c, 9, 35, 0
6, 17800, Note_on_c, 9, 51, 0
6, 17880, Note_on_c, 9, 38, 23
6, 17880, Note_on_c, 9, 51, 78
6, 17880, Note_on_c, 9, 35, 34
6, 17886, Note_on_c, 9, 44, 70
6, 17920, Note_on_c, 9, 35, 0
6, 17920, Note_on_c, 9, 38, 0
6, 17920, Note_on_c, 9, 51, 0
6, 17945, Note_on_c, 9, 44, 0
6, 17963, Note_on_c, 9, 51, 58
6, 18000, Note_on_c, 9, 51, 0
6, 18000, Note_on_c, 9, 51, 78
6, 18040, Note_on_c, 9, 51, 0
6, 18120, Note_on_c, 9, 38, 23
6, 18120, Note_on_c, 9, 51, 78
6, 18120, Note_on_c, 9, 35, 34
6, 18127, Note_on_c, 9, 44, 70
6, 18160, Note_on_c, 9, 35, 0
6, 18160, Note_on_c, 9, 38, 0
6, 18160, Note_on_c, 9, 51, 0
6, 18193, Note_on_c, 9, 44, 0
6, 18203, Note_on_c, 9, 51, 58
6, 18240, Note_on_c, 9, 51, 0
6, 18240, Note_on_c, 9, 51, 78
6, 18240, Note_on_c, 9, 35, 34
6, 18280, Note_on_c, 9, 35, 0
6, 18280, Note_on_c, 9, 51, 0
6, 18357, Note_on_c, 9, 44, 71
6, 18360, Note_on_c, 9, 38, 23
6, 18360, Note_on_c, 9, 51, 78
6, 18360, Note_on_c, 9, 35, 34
6, 18400, Note_on_c, 9, 35, 0
6, 18400, Note_on_c, 9, 51, 0
6, 18400, Note_on_c, 9, 38, 0
6, 18417, Note_on_c, 9, 44, 0
6, 18443, Note_on_c, 9, 51, 58
6, 18480, Note_on_c, 9, 51, 0
6, 18480, Note_on_c, 9, 51, 78
6, 18520, Note_on_c, 9, 51, 0
6, 18600, Note_on_c, 9, 38, 23
6, 18600, Note_on_c, 9, 51, 78
6, 18600, Note_on_c, 9, 35, 34
6, 18602, Note_on_c, 9, 44, 75
6, 18640, Note_on_c, 9, 35, 0
6, 18640, Note_on_c, 9, 38, 0
6, 18640, Note_on_c, 9, 51, 0
6, 18662, Note_on_c, 9, 44, 0
6, 18683, Note_on_c, 9, 51, 58
6, 18720, Note_on_c, 9, 51, 0
6, 18720, Note_on_c, 9, 38, 38
6, 18720, Note_on_c, 9, 51, 78
6, 18760, Note_on_c, 9, 51, 0
6, 18760, Note_on_c, 9, 38, 0
6, 18840, Note_on_c, 9, 51, 78
6, 18843, Note_on_c, 9, 44, 76
6, 18880, Note_on_c, 9, 51, 0
6, 18889, Note_on_c, 9, 44, 0
6, 18928, Note_on_c, 9, 51, 58
6, 18960, Note_on_c, 9, 51, 0
6, 18960, Note_on_c, 9, 51, 78
6, 19000, Note_on_c, 9, 51, 0
6, 19078, Note_on_c, 9, 44, 77
6, 19080, Note_on_c, 9, 38, 48
6, 19080, Note_on_c, 9, 51, 78
6, 19120, Note_on_c, 9, 51, 0
6, 19120, Note_on_c, 9, 38, 0
6, 19132, Note_on_c, 9, 44, 0
6, 19168, Note_on_c, 9, 51, 58
6, 19200, Note_on_c, 9, 51, 0
6, 19200, Note_on_c, 9, 51, 78
6, 19200, Note_on_c, 9, 35, 34
6, 19240, Note_on_c, 9, 35, 0
6, 19240, Note_on_c, 9, 51, 0
6, 19320, Note_on_c, 9, 38, 23
6, 19320, Note_on_c, 9, 51, 78
6, 19320, Note_on_c, 9, 35, 34
6, 19326, Note_on_c, 9, 44, 79
6, 19360, Note_on_c, 9, 35, 0
6, 19360, Note_on_c, 9, 38, 0
6, 19360, Note_on_c, 9, 51, 0
6, 19385, Note_on_c, 9, 44, 0
6, 19403, Note_on_c, 9, 51, 58
6, 19440, Note_on_c, 9, 51, 0
6, 19440, Note_on_c, 9, 51, 78
6, 19480, Note_on_c, 9, 51, 0
6, 19560, Note_on_c, 9, 38, 23
6, 19560, Note_on_c, 9, 51, 78
6, 19560, Note_on_c, 9, 35, 34
6, 19571, Note_on_c, 9, 44, 76
6, 19600, Note_on_c, 9, 35, 0
6, 19600, Note_on_c, 9, 38, 0
6, 19600, Note_on_c, 9, 51, 0
6, 19629, Note_on_c, 9, 44, 0
6, 19643, Note_on_c, 9, 51, 58
6, 19680, Note_on_c, 9, 51, 0
6, 19680, Note_on_c, 9, 51, 78
6, 19680, Note_on_c, 9, 35, 34
6, 19720, Note_on_c, 9, 35, 0
6, 19720, Note_on_c, 9, 51, 0
6, 19800, Note_on_c, 9, 38, 23
6, 19800, Note_on_c, 9, 51, 78
6, 19800, Note_on_c, 9, 35, 34
6, 19801, Note_on_c, 9, 44, 81
6, 19840, Note_on_c, 9, 35, 0
6, 19840, Note_on_c, 9, 38, 0
6, 19840, Note_on_c, 9, 51, 0
6, 19846, Note_on_c, 9, 44, 0
6, 19883, Note_on_c, 9, 51, 58
6, 19920, Note_on_c, 9, 51, 0
6, 19920, Note_on_c, 9, 51, 78
6, 19960, Note_on_c, 9, 51, 0
6, 20038, Note_on_c, 9, 46, 69
6, 20040, Note_on_c, 9, 38, 23
6, 20040, Note_on_c, 9, 51, 78
6, 20040, Note_on_c, 9, 35, 34
6, 20080, Note_on_c, 9, 35, 0
6, 20080, Note_on_c, 9, 51, 0
6, 20080, Note_on_c, 9, 38, 0
6, 20089, Note_on_c, 9, 46, 0
6, 20123, Note_on_c, 9, 51, 58
6, 20160, Note_on_c, 9, 51, 0
6, 20160, Note_on_c, 9, 38, 38
6, 20160, Note_on_c, 9, 51, 78
6, 20200, Note_on_c, 9, 51, 0
6, 20200, Note_on_c, 9, 38, 0
6, 20280, Note_on_c, 9, 51, 78
6, 20286, Note_on_c, 9, 44, 69
6, 20320, Note_on_c, 9, 51, 0
6, 20343, Note_on_c, 9, 44, 0
6, 20368, Note_on_c, 9, 51, 58
6, 20400, Note_on_c, 9, 51, 0
6, 20400, Note_on_c, 9, 51, 78
6, 20440, Note_on_c, 9, 51, 0
6, 20520, Note_on_c, 9, 38, 48
6, 20520, Note_on_c, 9, 51, 78
6, 20520, Note_on_c, 9, 44, 77
6, 20560, Note_on_c, 9, 51, 0
6, 20560, Note_on_c, 9, 38, 0
6, 20579, Note_on_c, 9, 44, 0
6, 20608, Note_on_c, 9, 51, 58
6, 20640, Note_on_c, 9, 51, 0
6, 20640, Note_on_c, 9, 38, 58
6, 20640, Note_on_c, 9, 51, 68
6, 20680, Note_on_c, 9, 51, 0
6, 20680, Note_on_c, 9, 38, 0
6, 20724, Note_on_c, 9, 51, 48
6, 20724, Note_on_c, 9, 35, 43
6, 20745, Note_on_c, 9, 44, 76
6, 20760, Note_on_c, 9, 35, 0
6, 20760, Note_on_c, 9, 51, 0
6, 20760, Note_on_c, 9, 51, 78
6, 20760, Note_on_c, 9, 35, 52
6, 20800, Note_on_c, 9, 35, 0
6, 20800, Note_on_c, 9, 51, 0
6, 20807, Note_on_c, 9, 44, 0
6, 20844, Note_on_c, 9, 38, 68
6, 20880, Note_on_c, 9, 38, 0
6, 20880, Note_on_c, 9, 51, 78
6, 20920, Note_on_c, 9, 51, 0
6, 20964, Note_on_c, 9, 38, 78
6, 20989, Note_on_c, 9, 44, 74
6, 21000, Note_on_c, 9, 38, 0
6, 21000, Note_on_c, 9, 51, 78
6, 21040, Note_on_c, 9, 51, 0
6, 21054, Note_on_c, 9, 44, 0
6, 21084, Note_on_c, 9, 51, 58
6, 21120, Note_on_c, 9, 51, 0
6, 21120, Note_on_c, 9, 38, 58
6, 21120, Note_on_c, 9, 51, 68
6, 21160, Note_on_c, 9, 51, 0
6, 21160, Note_on_c, 9, 38, 0
6, 21204, Note_on_c, 9, 51, 48
6, 21204, Note_on_c, 9, 35, 43
6, 21228, Note_on_c, 9, 44, 76
6, 21240, Note_on_c, 9, 35, 0
6, 21240, Note_on_c, 9, 51, 0
6, 21240, Note_on_c, 9, 51, 78
6, 21240, Note_on_c, 9, 35, 52
6, 21280, Note_on_c, 9, 35, 0
6, 21280, Note_on_c, 9, 51, 0
6, 21286, Note_on_c, 9, 44, 0
6, 21324, Note_on_c, 9, 38, 68
6, 21360, Note_on_c, 9, 38, 0
6, 21360, Note_on_c, 9, 51, 78
6, 21400, Note_on_c, 9, 51, 0
6, 21444, Note_on_c, 9, 38, 78
6, 21480, Note_on_c, 9, 38, 0
6, 21480, Note_on_c, 9, 51, 78
6, 21486, Note_on_c, 9, 44, 75
6, 21520, Note_on_c, 9, 51, 0
6, 21547, Note_on_c, 9, 44, 0
6, 21564, Note_on_c, 9, 51, 58
6, 21600, Note_on_c, 9, 51, 0
6, 21600, Note_on_c, 9, 51, 78
6, 21600, Note_on_c, 9, 35, 34
6, 21640, Note_on_c, 9, 35, 0
6, 21640, Note_on_c, 9, 51, 0
6, 21720, Note_on_c, 9, 38, 23
6, 21720, Note_on_c, 9, 51, 78
6, 21720, Note_on_c, 9, 35, 34
6, 21722, Note_on_c, 9, 44, 76
6, 21760, Note_on_c, 9, 35, 0
6, 21760, Note_on_c, 9, 38, 0
6, 21760, Note_on_c, 9, 51, 0
6, 21789, Note_on_c, 9, 44, 0
6, 21803, Note_on_c, 9, 51, 58
6, 21840, Note_on_c, 9, 51, 0
6, 21840, Note_on_c, 9, 51, 78
6, 21880, Note_on_c, 9, 51, 0
6, 21960, Note_on_c, 9, 38, 23
6, 21960, Note_on_c, 9, 51, 78
6, 21960, Note_on_c, 9, 35, 34
6, 21966, Note_on_c, 9, 44, 77
6, 22000, Note_on_c, 9, 35, 0
6, 22000, Note_on_c, 9, 38, 0
6, 22000, Note_on_c, 9, 51, 0
6, 22031, Note_on_c, 9, 44, 0
6, 22043, Note_on_c, 9, 51, 58
6, 22080, Note_on_c, 9, 51, 0
6, 22080, Note_on_c, 9, 38, 38
6, 22080, Note_on_c, 9, 51, 78
6, 22120, Note_on_c, 9, 51, 0
6, 22120, Note_on_c, 9, 38, 0
6, 22199, Note_on_c, 9, 44, 78
6, 22200, Note_on_c, 9, 51, 78
6, 22240, Note_on_c, 9, 51, 0
6, 22271, Note_on_c, 9, 44, 0
6, 22288, Note_on_c, 9, 51, 58
6, 22320, Note_on_c, 9, 51, 0
6, 22320, Note_on_c, 9, 51, 78
6, 22360, Note_on_c, 9, 51, 0
6, 22440, Note_on_c, 9, 38, 48
6, 22440, Note_on_c, 9, 51, 78
6, 22440, Note_on_c, 9, 44, 81
6, 22480, Note_on_c, 9, 51, 0
6, 22480, Note_on_c, 9, 38, 0
6, 22507, Note_on_c, 9, 44, 0
6, 22528, Note_on_c, 9, 51, 58
6, 22560, Note_on_c, 9, 51, 0
6, 22560, Note_on_c, 9, 38, 58
6, 22560, Note_on_c, 9, 51, 68
6, 22600, Note_on_c, 9, 51, 0
6, 22600, Note_on_c, 9, 38, 0
6, 22644, Note_on_c, 9, 51, 48
6, 22644, Note_on_c, 9, 35, 43
6, 22680, Note_on_c, 9, 35, 0
6, 22680, Note_on_c, 9, 51, 0
6, 22680, Note_on_c, 9, 51, 78
6, 22680, Note_on_c, 9, 35, 52
6, 22694, Note_on_c, 9, 44, 78
6, 22720, Note_on_c, 9, 35, 0
6, 22720, Note_on_c, 9, 51, 0
6, 22753, Note_on_c, 9, 44, 0
6, 22764, Note_on_c, 9, 38, 68
6, 22800, Note_on_c, 9, 38, 0
6, 22800, Note_on_c, 9, 51, 78
6, 22840, Note_on_c, 9, 51, 0
6, 22884, Note_on_c, 9, 38, 78
6, 22920, Note_on_c, 9, 38, 0
6, 22920, Note_on_c, 9, 51, 78
6, 22922, Note_on_c, 9, 44, 75
6, 22960, Note_on_c, 9, 51, 0
6, 22988, Note_on_c, 9, 44, 0
6, 23004, Note_on_c, 9, 51, 58
6, 23040, Note_on_c, 9, 51, 0
6, 23040, Note_on_c, 9, 38, 8
6, 23040, Note_on_c, 9, 51, 78
6, 23080, Note_on_c, 9, 51, 0
6, 23080, Note_on_c, 9, 38, 0
6, 23120, Note_on_c, 9, 38, 38
6, 23160, Note_on_c, 9, 38, 0
6, 23160, Note_on_c, 9, 51, 78
6, 23163, Note_on_c, 9, 44, 76
6, 23200, Note_on_c, 9, 51, 0
6, 23231, Note_on_c, 9, 44, 0
6, 23240, Note_on_c, 9, 51, 58
6, 23240, Note_on_c, 9, 48, 48
6, 23280, Note_on_c, 9, 48, 0
6, 23280, Note_on_c, 9, 51, 0
6, 23280, Note_on_c, 9, 51, 78
6, 23280, Note_on_c, 9, 48, 48
6, 23320, Note_on_c, 9, 48, 0
6, 23320, Note_on_c, 9, 51, 0
6, 23360, Note_on_c, 9, 45, 58
6, 23400, Note_on_c, 9, 45, 0
6, 23400, Note_on_c, 9, 51, 78
6, 23401, Note_on_c, 9, 44, 75
6, 23440, Note_on_c, 9, 51, 0
6, 23440, Note_on_c, 9, 38, 18
6, 23462, Note_on_c, 9, 44, 0
6, 23480, Note_on_c, 9, 38, 0
6, 23480, Note_on_c, 9, 38, 28
6, 23480, Note_on_c, 9, 51, 58
6, 23520, Note_on_c, 9, 51, 0
6, 23520, Note_on_c, 9, 38, 0
6, 23520, Note_on_c, 9, 51, 78
6, 23520, Note_on_c, 9, 35, 34
6, 23560, Note_on_c, 9, 35, 0
6, 23560, Note_on_c, 9, 51, 0
6, 23640, Note_on_c, 9, 38, 23
6, 23640, Note_on_c, 9, 51, 78
6, 23640, Note_on_c, 9, 35, 34
6, 23644, Note_on_c, 9, 44, 77
6, 23680, Note_on_c, 9, 35, 0
6, 23680, Note_on_c, 9, 38, 0
6, 23680, Note_on_c, 9, 51, 0
6, 23700, Note_on_c, 9, 44, 0
6, 23723, Note_on_c, 9, 51, 58
6, 23760, Note_on_c, 9, 51, 0
6, 23760, Note_on_c, 9, 51, 78
6, 23800, Note_on_c, 9, 51, 0
6, 23877, Note_on_c, 9, 44, 77
6, 23880, Note_on_c, 9, 38, 23
6, 23880, Note_on_c, 9, 51, 78
6, 23880, Note_on_c, 9, 35, 34
6, 23920, Note_on_c, 9, 35, 0
6, 23920, Note_on_c, 9, 51, 0
6, 23920, Note_on_c, 9, 38, 0
6, 23946, Note_on_c, 9, 44, 0
6, 23963, Note_on_c, 9, 51, 58
6, 24000, Note_on_c, 9, 51, 0
6, 24000, Note_on_c, 9, 51, 78
6, 24000, Note_on_c, 9, 35, 34
6, 24040, Note_on_c, 9, 35, 0
6, 24040, Note_on_c, 9, 51, 0
6, 24117, Note_on_c, 9, 44, 75
6, 24120, Note_on_c, 9, 38, 23
6, 24120, Note_on_c, 9, 51, 78
6, 24120, Note_on_c, 9, 35, 34
6, 24160, Note_on_c, 9, 35, 0
6, 24160, Note_on_c, 9, 51, 0
6, 24160, Note_on_c, 9, 38, 0
6, 24196, Note_on_c, 9, 44, 0
6, 24203, Note_on_c, 9, 51, 58
6, 24240, Note_on_c, 9, 51, 0
6, 24240, Note_on_c, 9, 51, 78
6, 24280, Note_on_c, 9, 51, 0
6, 24360, Note_on_c, 9, 38, 23
6, 24360, Note_on_c, 9, 51, 78
6, 24360, Note_on_c, 9, 35, 34
6, 24363, Note_on_c, 9, 44, 74
6, 24400, Note_on_c, 9, 35, 0
6, 24400, Note_on_c, 9, 38, 0
6, 24400, Note_on_c, 9, 51, 0
6, 24443, Note_on_c, 9, 51, 58
6, 24446, Note_on_c, 9, 44, 0
6, 24480, Note_on_c, 9, 51, 0
6, 24480, Note_on_c, 9, 51, 78
6, 24480, Note_on_c, 9, 35, 34
6, 24520, Note_on_c, 9, 35, 0
6, 24520, Note_on_c, 9, 51, 0
6, 24560, Note_on_c, 9, 38, 78
6, 24596, Note_on_c, 9, 44, 76
6, 24600, Note_on_c, 9, 38, 0
6, 24600, Note_on_c, 9, 51, 78
6, 24640, Note_on_c, 9, 51, 0
6, 24680, Note_on_c, 9, 51, 58
6, 24697, Note_on_c, 9, 44, 0
6, 24720, Note_on_c, 9, 51, 0
6, 24720, Note_on_c, 9, 51, 78
6, 24760, Note_on_c, 9, 51, 0
6, 24800, Note_on_c, 9, 38, 88
6, 24828, Note_on_c, 9, 44, 79
6, 24840, Note_on_c, 9, 38, 0
6, 24840, Note_on_c, 9, 51, 78
6, 24880, Note_on_c, 9, 51, 0
6, 24920, Note_on_c, 9, 44, 0
6, 24920, Note_on_c, 9, 38, 38
6, 24960, Note_on_c, 9, 38, 0
6, 24960, Note_on_c, 9, 51, 78
6, 24960, Note_on_c, 9, 35, 34
6, 25000, Note_on_c, 9, 35, 0
6, 25000, Note_on_c, 9, 51, 0
6, 25075, Note_on_c, 9, 44, 75
6, 25080, Note_on_c, 9, 38, 23
6, 25080, Note_on_c, 9, 51, 78
6, 25080, Note_on_c, 9, 35, 34
6, 25120, Note_on_c, 9, 35, 0
6, 25120, Note_on_c, 9, 51, 0
6, 25120, Note_on_c, 9, 38, 0
6, 25163, Note_on_c, 9, 51, 58
6, 25170, Note_on_c, 9, 44, 0
6, 25200, Note_on_c, 9, 51, 0
6, 25200, Note_on_c, 9, 51, 78
6, 25240, Note_on_c, 9, 51, 0
6, 25320, Note_on_c, 9, 38, 23
6, 25320, Note_on_c, 9, 51, 78
6, 25320, Note_on_c, 9, 35, 34
6, 25322, Note_on_c, 9, 44, 74
6, 25360, Note_on_c, 9, 35, 0
6, 25360, Note_on_c, 9, 38, 0
6, 25360, Note_on_c, 9, 51, 0
6, 25403, Note_on_c, 9, 51, 58
6, 25413, Note_on_c, 9, 44, 0
6, 25440, Note_on_c, 9, 51, 0
6, 25440, Note_on_c, 9, 38, 38
6, 25440, Note_on_c, 9, 51, 78
6, 25480, Note_on_c, 9, 51, 0
6, 25480, Note_on_c, 9, 38, 0
6, 25560, Note_on_c, 9, 51, 78
6, 25560, Note_on_c, 9, 44, 75
6, 25600, Note_on_c, 9, 51, 0
6, 25648, Note_on_c, 9, 51, 58
6, 25650, Note_on_c, 9, 44, 0
6, 25680, Note_on_c, 9, 51, 0
6, 25680, Note_on_c, 9, 51, 78
6, 25720, Note_on_c, 9, 51, 0
6, 25794, Note_on_c, 9, 44, 79
6, 25800, Note_on_c, 9, 38, 48
6, 25800, Note_on_c, 9, 51, 78
6, 25840, Note_on_c, 9, 51, 0
6, 25840, Note_on_c, 9, 38, 0
6, 25888, Note_on_c, 9, 51, 58
6, 25894, Note_on_c, 9, 44, 0
6, 25920, Note_on_c, 9, 51, 0
6, 25920, Note_on_c, 9, 51, 78
6, 25920, Note_on_c, 9, 35, 43
6, 25960, Note_on_c, 9, 35, 0
6, 25960, Note_on_c, 9, 51, 0
6, 26040, Note_on_c, 9, 51, 78
6, 26040, Note_on_c, 9, 44, 80
6, 26080, Note_on_c, 9, 51, 0
6, 26124, Note_on_c, 9, 51, 58
6, 26124, Note_on_c, 9, 49, 68
6, 26124, Note_on_c, 9, 35, 61
6, 26144, Note_on_c, 9, 44, 0
6, 26160, Note_on_c, 9, 51, 0
6, 26160, Note_on_c, 9, 49, 0
6, 26160, Note_on_c, 9, 35, 0
6, 26160, Note_on_c, 9, 51, 78
6, 26200, Note_on_c, 9, 51, 0
6, 26244, Note_on_c, 9, 38, 38
6, 26280, Note_on_c, 9, 38, 0
6, 26280, Note_on_c, 9, 51, 78
6, 26284, Note_on_c, 9, 44, 77
6, 26320, Note_on_c, 9, 51, 0
6, 26364, Note_on_c, 9, 38, 58
6, 26364, Note_on_c, 9, 51, 58
6, 26366, Note_on_c, 9, 44, 0
6, 26400, Note_on_c, 9, 51, 0
6, 26400, Note_on_c, 9, 38, 0
6, 26400, Note_on_c, 9, 51, 78
6, 26400, Note_on_c, 9, 35, 34
6, 26440, Note_on_c, 9, 35, 0
6, 26440, Note_on_c, 9, 51, 0
6, 26520, Note_on_c, 9, 38, 23
6, 26520, Note_on_c, 9, 51, 78
6, 26520, Note_on_c, 9, 35, 34
6, 26521, Note_on_c, 9, 44, 77
6, 26560, Note_on_c, 9, 35, 0
6, 26560, Note_on_c, 9, 38, 0
6, 26560, Note_on_c, 9, 51, 0
6, 26603, Note_on_c, 9, 51, 58
6, 26606, Note_on_c, 9, 44, 0
6, 26640, Note_on_c, 9, 51, 0
6, 26640, Note_on_c, 9, 51, 78
6, 26680, Note_on_c, 9, 51, 0
6, 26756, Note_on_c, 9, 44, 78
6, 26760, Note_on_c, 9, 38, 23
6, 26760, Note_on_c, 9, 51, 78
6, 26760, Note_on_c, 9, 35, 34
6, 26800, Note_on_c, 9, 35, 0
6, 26800, Note_on_c, 9, 51, 0
6, 26800, Note_on_c, 9, 38, 0
6, 26835, Note_on_c, 9, 44, 0
6, 26843, Note_on_c, 9, 51, 58
6, 26880, Note_on_c, 9, 51, 0
6, 26880, Note_on_c, 9, 38, 38
6, 26880, Note_on_c, 9, 51, 78
6, 26920, Note_on_c, 9, 51, 0
6, 26920, Note_on_c, 9, 38, 0
6, 27000, Note_on_c, 9, 51, 78
6, 27000, Note_on_c, 9, 44, 76
6, 27040, Note_on_c, 9, 51, 0
6, 27082, Note_on_c, 9, 44, 0
6, 27088, Note_on_c, 9, 51, 58
6, 27120, Note_on_c, 9, 51, 0
6, 27120, Note_on_c, 9, 51, 78
6, 27160, Note_on_c, 9, 51, 0
6, 27238, Note_on_c, 9, 44, 76
6, 27240, Note_on_c, 9, 38, 48
6, 27240, Note_on_c, 9, 51, 78
6, 27280, Note_on_c, 9, 51, 0
6, 27280, Note_on_c, 9, 38, 0
6, 27318, Note_on_c, 9, 44, 0
6, 27328, Note_on_c, 9, 51, 58
6, 27360, Note_on_c, 9, 51, 0
6, 27360, Note_on_c, 9, 38, 38
6, 27360, Note_on_c, 9, 51, 78
6, 27400, Note_on_c, 9, 51, 0
6, 27400, Note_on_c, 9, 38, 0
6, 27480, Note_on_c, 9, 51, 78
6, 27483, Note_on_c, 9, 44, 73
6, 27520, Note_on_c, 9, 51, 0
6, 27568, Note_on_c, 9, 44, 0
6, 27568, Note_on_c, 9, 51, 58
6, 27600, Note_on_c, 9, 51, 0
6, 27600, Note_on_c, 9, 51, 78
6, 27640, Note_on_c, 9, 51, 0
6, 27720, Note_on_c, 9, 38, 48
6, 27720, Note_on_c, 9, 51, 78
6, 27725, Note_on_c, 9, 44, 77
6, 27760, Note_on_c, 9, 51, 0
6, 27760, Note_on_c, 9, 38, 0
6, 27807, Note_on_c, 9, 44, 0
6, 27808, Note_on_c, 9, 51, 58
6, 27840, Note_on_c, 9, 51, 0
6, 27840, Note_on_c, 9, 51, 78
6, 27840, Note_on_c, 9, 35, 34
6, 27880, Note_on_c, 9, 35, 0
6, 27880, Note_on_c, 9, 51, 0
6, 27957, Note_on_c, 9, 44, 77
6, 27960, Note_on_c, 9, 38, 23
6, 27960, Note_on_c, 9, 51, 78
6, 27960, Note_on_c, 9, 35, 34
6, 28000, Note_on_c, 9, 35, 0
6, 28000, Note_on_c, 9, 51, 0
6, 28000, Note_on_c, 9, 38, 0
6, 28031, Note_on_c, 9, 44, 0
6, 28043, Note_on_c, 9, 51, 58
6, 28080, Note_on_c, 9, 51, 0
6, 28080, Note_on_c, 9, 51, 78
6, 28120, Note_on_c, 9, 51, 0
6, 28187, Note_on_c, 9, 44, 73
6, 28200, Note_on_c, 9, 38, 23
6, 28200, Note_on_c, 9, 51, 78
6, 28200, Note_on_c, 9, 35, 34
6, 28240, Note_on_c, 9, 35, 0
6, 28240, Note_on_c, 9, 51, 0
6, 28240, Note_on_c, 9, 38, 0
6, 28263, Note_on_c, 9, 44, 0
6, 28283, Note_on_c, 9, 51, 58
6, 28320, Note_on_c, 9, 51, 0
6, 28320, Note_on_c, 9, 38, 8
6, 28320, Note_on_c, 9, 51, 78
6, 28360, Note_on_c, 9, 51, 0
6, 28360, Note_on_c, 9, 38, 0
6, 28400, Note_on_c, 9, 38, 38
6, 28434, Note_on_c, 9, 44, 80
6, 28440, Note_on_c, 9, 38, 0
6, 28440, Note_on_c, 9, 51, 78
6, 28480, Note_on_c, 9, 51, 0
6, 28494, Note_on_c, 9, 44, 0
6, 28520, Note_on_c, 9, 51, 58
6, 28520, Note_on_c, 9, 48, 48
6, 28560, Note_on_c, 9, 48, 0
6, 28560, Note_on_c, 9, 51, 0
6, 28560, Note_on_c, 9, 51, 78
6, 28560, Note_on_c, 9, 48, 48
6, 28600, Note_on_c, 9, 48, 0
6, 28600, Note_on_c, 9, 51, 0
6, 28640, Note_on_c, 9, 45, 58
6, 28680, Note_on_c, 9, 45, 0
6, 28680, Note_on_c, 9, 51, 78
6, 28684, Note_on_c, 9, 46, 74
6, 28720, Note_on_c, 9, 51, 0
6, 28720, Note_on_c, 9, 38, 18
6, 28760, Note_on_c, 9, 38, 0
6, 28760, Note_on_c, 9, 38, 28
6, 28760, Note_on_c, 9, 51, 58
6, 28761, Note_on_c, 9, 46, 0
6, 28800, Note_on_c, 9, 51, 0
6, 28800, Note_on_c, 9, 38, 0
6, 28800, Note_on_c, 9, 51, 78
6, 28800, Note_on_c, 9, 35, 34
6, 28840, Note_on_c, 9, 35, 0
6, 28840, Note_on_c, 9, 51, 0
6, 28920, Note_on_c, 9, 38, 23
6, 28920, Note_on_c, 9, 51, 78
6, 28920, Note_on_c, 9, 35, 34
6, 28922, Note_on_c, 9, 44, 74
6, 28960, Note_on_c, 9, 35, 0
6, 28960, Note_on_c, 9, 38, 0
6, 28960, Note_on_c, 9, 51, 0
6, 29003, Note_on_c, 9, 51, 58
6, 29005, Note_on_c, 9, 44, 0
6, 29040, Note_on_c, 9, 51, 0
6, 29040, Note_on_c, 9, 51, 78
6, 29080, Note_on_c, 9, 51, 0
6, 29159, Note_on_c, 9, 44, 77
6, 29160, Note_on_c, 9, 38, 23
6, 29160, Note_on_c, 9, 51, 78
6, 29160, Note_on_c, 9, 35, 34
6, 29200, Note_on_c, 9, 35, 0
6, 29200, Note_on_c, 9, 51, 0
6, 29200, Note_on_c, 9, 38, 0
6, 29243, Note_on_c, 9, 51, 58
6, 29263, Note_on_c, 9, 44, 0
6, 29280, Note_on_c, 9, 51, 0
6, 29280, Note_on_c, 9, 51, 78
6, 29280, Note_on_c, 9, 35, 34
6, 29320, Note_on_c, 9, 35, 0
6, 29320, Note_on_c, 9, 51, 0
6, 29398, Note_on_c, 9, 44, 76
6, 29400, Note_on_c, 9, 38, 23
6, 29400, Note_on_c, 9, 51, 78
6, 29400, Note_on_c, 9, 35, 34
6, 29440, Note_on_c, 9, 35, 0
6, 29440, Note_on_c, 9, 51, 0
6, 29440, Note_on_c, 9, 38, 0
6, 29483, Note_on_c, 9, 51, 58
6, 29499, Note_on_c, 9, 44, 0
6, 29520, Note_on_c, 9, 51, 0
6, 29520, Note_on_c, 9, 51, 78
6, 29560, Note_on_c, 9, 51, 0
6, 29638, Note_on_c, 9, 44, 73
6, 29640, Note_on_c, 9, 38, 23
6, 29640, Note_on_c, 9, 51, 78
6, 29640, Note_on_c, 9, 35, 34
6, 29680, Note_on_c, 9, 35, 0
6, 29680, Note_on_c, 9, 51, 0
6, 29680, Note_on_c, 9, 38, 0
6, 29723, Note_on_c, 9, 51, 58
6, 29760, Note_on_c, 9, 51, 0
6, 29760, Note_on_c, 9, 51, 78
6, 29760, Note_on_c, 9, 35, 34
6, 29763, Note_on_c, 9, 44, 0
6, 29800, Note_on_c, 9, 35, 0
6, 29800, Note_on_c, 9, 51, 0
6, 29878, Note_on_c, 9, 44, 74
6, 29880, Note_on_c, 9, 38, 23
6, 29880, Note_on_c, 9, 51, 78
6, 29880, Note_on_c, 9, 35, 34
6, 29920, Note_on_c, 9, 35, 0
6, 29920, Note_on_c, 9, 51, 0
6, 29920, Note_on_c, 9, 38, 0
6, 29963, Note_on_c, 9, 51, 58
6, 30000, Note_on_c, 9, 51, 0
6, 30000, Note_on_c, 9, 51, 78
6, 30010, Note_on_c, 9, 44, 0
6, 30040, Note_on_c, 9, 51, 0
6, 30119, Note_on_c, 9, 44, 72
6, 30120, Note_on_c, 9, 38, 23
6, 30120, Note_on_c, 9, 51, 78
6, 30120, Note_on_c, 9, 35, 34
6, 30160, Note_on_c, 9, 35, 0
6, 30160, Note_on_c, 9, 51, 0
6, 30160, Note_on_c, 9, 38, 0
6, 30203, Note_on_c, 9, 51, 58
6, 30214, Note_on_c, 9, 44, 0
6, 30240, Note_on_c, 9, 51, 0
6, 30240, Note_on_c, 9, 51, 78
6, 30240, Note_on_c, 9, 35, 34
6, 30280, Note_on_c, 9, 35, 0
6, 30280, Note_on_c, 9, 51, 0
6, 30358, Note_on_c, 9, 44, 77
6, 30360, Note_on_c, 9, 38, 23
6, 30360, Note_on_c, 9, 51, 78
6, 30360, Note_on_c, 9, 35, 34
6, 30400, Note_on_c, 9, 35, 0
6, 30400, Note_on_c, 9, 51, 0
6, 30400, Note_on_c, 9, 38, 0
6, 30443, Note_on_c, 9, 51, 58
6, 30452, Note_on_c, 9, 44, 0
6, 30480, Note_on_c, 9, 51, 0
6, 30480, Note_on_c, 9, 51, 78
6, 30520, Note_on_c, 9, 51, 0
6, 30592, Note_on_c, 9, 44, 74
6, 30600, Note_on_c, 9, 38, 23
6, 30600, Note_on_c, 9, 51, 78
6, 30600, Note_on_c, 9, 35, 34
6, 30640, Note_on_c, 9, 35, 0
6, 30640, Note_on_c, 9, 51, 0
6, 30640, Note_on_c, 9, 38, 0
6, 30683, Note_on_c, 9, 51, 58
6, 30689, Note_on_c, 9, 44, 0
6, 30720, Note_on_c, 9, 51, 0
6, 30720, Note_on_c, 9, 51, 78
6, 30720, Note_on_c, 9, 35, 34
6, 30760, Note_on_c, 9, 35, 0
6, 30760, Note_on_c, 9, 51, 0
6, 30840, Note_on_c, 9, 38, 23
6, 30840, Note_on_c, 9, 51, 78
6, 30840, Note_on_c, 9, 35, 34
6, 30841, Note_on_c, 9, 44, 75
6, 30880, Note_on_c, 9, 35, 0
6, 30880, Note_on_c, 9, 38, 0
6, 30880, Note_on_c, 9, 51, 0
6, 30923, Note_on_c, 9, 51, 58
6, 30938, Note_on_c, 9, 44, 0
6, 30960, Note_on_c, 9, 51, 0
6, 30960, Note_on_c, 9, 51, 78
6, 31000, Note_on_c, 9, 51, 0
6, 31078, Note_on_c, 9, 44, 79
6, 31080, Note_on_c, 9, 38, 23
6, 31080, Note_on_c, 9, 51, 78
6, 31080, Note_on_c, 9, 35, 34
6, 31120, Note_on_c, 9, 35, 0
6, 31120, Note_on_c, 9, 51, 0
6, 31120, Note_on_c, 9, 38, 0
6, 31163, Note_on_c, 9, 51, 58
6, 31181, Note_on_c, 9, 44, 0
6, 31200, Note_on_c, 9, 51, 0
6, 31200, Note_on_c, 9, 51, 78
6, 31240, Note_on_c, 9, 51, 0
6, 31284, Note_on_c, 9, 38, 38
6, 31320, Note_on_c, 9, 38, 0
6, 31320, Note_on_c, 9, 51, 78
6, 31328, Note_on_c, 9, 44, 77
6, 31360, Note_on_c, 9, 51, 0
6, 31404, Note_on_c, 9, 38, 23
6, 31404, Note_on_c, 9, 51, 58
6, 31415, Note_on_c, 9, 44, 0
6, 31440, Note_on_c, 9, 51, 0
6, 31440, Note_on_c, 9, 38, 0
6, 31440, Note_on_c, 9, 38, 38
6, 31440, Note_on_c, 9, 51, 78
6, 31480, Note_on_c, 9, 51, 0
6, 31480, Note_on_c, 9, 38, 0
6, 31524, Note_on_c, 9, 38, 48
6, 31560, Note_on_c, 9, 38, 0
6, 31560, Note_on_c, 9, 51, 78
6, 31561, Note_on_c, 9, 44, 77
6, 31600, Note_on_c, 9, 51, 0
6, 31630, Note_on_c, 9, 44, 0
6, 31644, Note_on_c, 9, 38, 38
6, 31644, Note_on_c, 9, 51, 58
6, 31680, Note_on_c, 9, 51, 0
6, 31680, Note_on_c, 9, 38, 0
6, 31680, Note_on_c, 9, 51, 78
6, 31680, Note_on_c, 9, 35, 34
6, 31720, Note_on_c, 9, 35, 0
6, 31720, Note_on_c, 9, 51, 0
6, 31800, Note_on_c, 9, 38, 23
6, 31800, Note_on_c, 9, 51, 78
6, 31800, Note_on_c, 9, 35, 34
6, 31806, Note_on_c, 9, 44, 77
6, 31840, Note_on_c, 9, 35, 0
6, 31840, Note_on_c, 9, 38, 0
6, 31840, Note_on_c, 9, 51, 0
6, 31883, Note_on_c, 9, 51, 58
6, 31891, Note_on_c, 9, 44, 0
6, 31920, Note_on_c, 9, 51, 0
6, 31920, Note_on_c, 9, 51, 78
6, 31960, Note_on_c, 9, 51, 0
6, 32040, Note_on_c, 9, 38, 23
6, 32040, Note_on_c, 9, 51, 78
6, 32040, Note_on_c, 9, 35, 34
6, 32041, Note_on_c, 9, 44, 76
6, 32080, Note_on_c, 9, 35, 0
6, 32080, Note_on_c, 9, 38, 0
6, 32080, Note_on_c, 9, 51, 0
6, 32123, Note_on_c, 9, 51, 58
6, 32130, Note_on_c, 9, 44, 0
6, 32160, Note_on_c, 9, 51, 0
6, 32160, Note_on_c, 9, 51, 78
6, 32160, Note_on_c, 9, 35, 34
6, 32200, Note_on_c, 9, 35, 0
6, 32200, Note_on_c, 9, 51, 0
6, 32240, Note_on_c, 9, 38, 78
6, 32280, Note_on_c, 9, 38, 0
6, 32280, Note_on_c, 9, 51, 78
6, 32281, Note_on_c, 9, 44, 77
6, 32320, Note_on_c, 9, 51, 0
6, 32360, Note_on_c, 9, 51, 58
6, 32361, Note_on_c, 9, 44, 0
6, 32400, Note_on_c, 9, 51, 0
6, 32400, Note_on_c, 9, 51, 78
6, 32440, Note_on_c, 9, 51, 0
6, 32480, Note_on_c, 9, 38, 88
6, 32513, Note_on_c, 9, 44, 77
6, 32520, Note_on_c, 9, 38, 0
6, 32520, Note_on_c, 9, 51, 78
6, 32560, Note_on_c, 9, 51, 0
6, 32600, Note_on_c, 9, 44, 0
6, 32600, Note_on_c, 9, 38, 38
6, 32640, Note_on_c, 9, 38, 0
6, 32640, Note_on_c, 9, 51, 78
6, 32640, Note_on_c, 9, 35, 34
6, 32680, Note_on_c, 9, 35, 0
6, 32680, Note_on_c, 9, 51, 0
6, 32757, Note_on_c, 9, 44, 77
6, 32760, Note_on_c, 9, 38, 23
6, 32760, Note_on_c, 9, 51, 78
6, 32760, Note_on_c, 9, 35, 34
6, 32800, Note_on_c, 9, 35, 0
6, 32800, Note_on_c, 9, 51, 0
6, 32800, Note_on_c, 9, 38, 0
6, 32843, Note_on_c, 9, 51, 58
6, 32845, Note_on_c, 9, 44, 0
6, 32880, Note_on_c, 9, 51, 0
6, 32880, Note_on_c, 9, 51, 78
6, 32920, Note_on_c, 9, 51, 0
6, 33000, Note_on_c, 9, 38, 23
6, 33000, Note_on_c, 9, 51, 78
6, 33000, Note_on_c, 9, 35, 34
6, 33005, Note_on_c, 9, 44, 79
6, 33040, Note_on_c, 9, 35, 0
6, 33040, Note_on_c, 9, 38, 0
6, 33040, Note_on_c, 9, 51, 0
6, 33083, Note_on_c, 9, 51, 58
6, 33099, Note_on_c, 9, 44, 0
6, 33120, Note_on_c, 9, 51, 0
6, 33120, Note_on_c, 9, 51, 78
6, 33120, Note_on_c, 9, 35, 34
6, 33160, Note_on_c, 9, 35, 0
6, 33160, Note_on_c, 9, 51, 0
6, 33240, Note_on_c, 9, 38, 23
6, 33240, Note_on_c, 9, 51, 78
6, 33240, Note_on_c, 9, 35, 34
6, 33244, Note_on_c, 9, 44, 77
6, 33280, Note_on_c, 9, 35, 0
6, 33280, Note_on_c, 9, 38, 0
6, 33280, Note_on_c, 9, 51, 0
6, 33323, Note_on_c, 9, 51, 58
6, 33330, Note_on_c, 9, 44, 0
6, 33360, Note_on_c, 9, 51, 0
6, 33360, Note_on_c, 9, 51, 78
6, 33400, Note_on_c, 9, 51, 0
6, 33471, Note_on_c, 9, 44, 77
6, 33480, Note_on_c, 9, 38, 23
6, 33480, Note_on_c, 9, 51, 78
6, 33480, Note_on_c, 9, 35, 34
6, 33520, Note_on_c, 9, 35, 0
6, 33520, Note_on_c, 9, 51, 0
6, 33520, Note_on_c, 9, 38, 0
6, 33553, Note_on_c, 9, 44, 0
6, 33563, Note_on_c, 9, 51, 58
6, 33600, Note_on_c, 9, 51, 0
6, 33600, Note_on_c, 9, 51, 78
6, 33600, Note_on_c, 9, 35, 34
6, 33640, Note_on_c, 9, 35, 0
6, 33640, Note_on_c, 9, 51, 0
6, 33716, Note_on_c, 9, 44, 79
6, 33720, Note_on_c, 9, 38, 23
6, 33720, Note_on_c, 9, 51, 78
6, 33720, Note_on_c, 9, 35, 34
6, 33760, Note_on_c, 9, 35, 0
6, 33760, Note_on_c, 9, 51, 0
6, 33760, Note_on_c, 9, 38, 0
6, 33803, Note_on_c, 9, 51, 58
6, 33817, Note_on_c, 9, 44, 0
6, 33840, Note_on_c, 9, 51, 0
6, 33840, Note_on_c, 9, 51, 78
6, 33880, Note_on_c, 9, 51, 0
6, 33960, Note_on_c, 9, 38, 23
6, 33960, Note_on_c, 9, 51, 78
6, 33960, Note_on_c, 9, 35, 34
6, 33967, Note_on_c, 9, 44, 82
6, 34000, Note_on_c, 9, 35, 0
6, 34000, Note_on_c, 9, 38, 0
6, 34000, Note_on_c, 9, 51, 0
6, 34043, Note_on_c, 9, 51, 58
6, 34066, Note_on_c, 9, 44, 0
6, 34080, Note_on_c, 9, 51, 0
6, 34080, Note_on_c, 9, 38, 8
6, 34080, Note_on_c, 9, 51, 78
6, 34120, Note_on_c, 9, 51, 0
6, 34120, Note_on_c, 9, 38, 0
6, 34160, Note_on_c, 9, 38, 38
6, 34200, Note_on_c, 9, 38, 0
6, 34200, Note_on_c, 9, 51, 78
6, 34204, Note_on_c, 9, 44, 80
6, 34240, Note_on_c, 9, 51, 0
6, 34280, Note_on_c, 9, 51, 58
6, 34280, Note_on_c, 9, 48, 48
6, 34304, Note_on_c, 9, 44, 0
6, 34320, Note_on_c, 9, 48, 0
6, 34320, Note_on_c, 9, 51, 0
6, 34320, Note_on_c, 9, 51, 78
6, 34320, Note_on_c, 9, 48, 48
6, 34360, Note_on_c, 9, 48, 0
6, 34360, Note_on_c, 9, 51, 0
6, 34400, Note_on_c, 9, 45, 58
6, 34440, Note_on_c, 9, 45, 0
6, 34440, Note_on_c, 9, 51, 78
6, 34444, Note_on_c, 9, 44, 78
6, 34480, Note_on_c, 9, 51, 0
6, 34480, Note_on_c, 9, 38, 18
6, 34520, Note_on_c, 9, 38, 0
6, 34520, Note_on_c, 9, 38, 28
6, 34520, Note_on_c, 9, 51, 58
6, 34537, Note_on_c, 9, 44, 0
6, 34560, Note_on_c, 9, 51, 0
6, 34560, Note_on_c, 9, 38, 0
6, 34560, Note_on_c, 9, 38, 38
6, 34560, Note_on_c, 9, 51, 78
6, 34600, Note_on_c, 9, 51, 0
6, 34600, Note_on_c, 9, 38, 0
6, 34679, Note_on_c, 9, 44, 79
6, 34680, Note_on_c, 9, 51, 78
6, 34720, Note_on_c, 9, 51, 0
6, 34768, Note_on_c, 9, 51, 58
6, 34771, Note_on_c, 9, 44, 0
6, 34800, Note_on_c, 9, 51, 0
6, 34800, Note_on_c, 9, 51, 78
6, 34840, Note_on_c, 9, 51, 0
6, 34920, Note_on_c, 9, 38, 48
6, 34920, Note_on_c, 9, 51, 78
6, 34931, Note_on_c, 9, 44, 81
6, 34960, Note_on_c, 9, 51, 0
6, 34960, Note_on_c, 9, 38, 0
6, 35008, Note_on_c, 9, 51, 58
6, 35040, Note_on_c, 9, 51, 0
6, 35040, Note_on_c, 9, 51, 78
6, 35040, Note_on_c, 9, 35, 34
6, 35049, Note_on_c, 9, 44, 0
6, 35080, Note_on_c, 9, 35, 0
6, 35080, Note_on_c, 9, 51, 0
6, 35160, Note_on_c, 9, 38, 23
6, 35160, Note_on_c, 9, 51, 78
6, 35160, Note_on_c, 9, 44, 82
6, 35160, Note_on_c, 9, 35, 34
6, 35200, Note_on_c, 9, 35, 0
6, 35200, Note_on_c, 9, 38, 0
6, 35200, Note_on_c, 9, 51, 0
6, 35243, Note_on_c, 9, 51, 58
6, 35275, Note_on_c, 9, 44, 0
6, 35280, Note_on_c, 9, 51, 0
6, 35280, Note_on_c, 9, 51, 78
6, 35320, Note_on_c, 9, 51, 0
6, 35400, Note_on_c, 9, 38, 23
6, 35400, Note_on_c, 9, 51, 78
6, 35400, Note_on_c, 9, 35, 34
6, 35402, Note_on_c, 9, 44, 78
6, 35440, Note_on_c, 9, 35, 0
6, 35440, Note_on_c, 9, 38, 0
6, 35440, Note_on_c, 9, 51, 0
6, 35483, Note_on_c, 9, 51, 58
6, 35518, Note_on_c, 9, 44, 0
6, 35520, Note_on_c, 9, 51, 0
6, 35520, Note_on_c, 9, 38, 58
6, 35520, Note_on_c, 9, 51, 68
6, 35560, Note_on_c, 9, 51, 0
6, 35560, Note_on_c, 9, 38, 0
6, 35604, Note_on_c, 9, 51, 48
6, 35604, Note_on_c, 9, 35, 43
6, 35640, Note_on_c, 9, 35, 0
6, 35640, Note_on_c, 9, 51, 0
6, 35640, Note_on_c, 9, 51, 78
6, 35640, Note_on_c, 9, 35, 52
6, 35647, Note_on_c, 9, 44, 77
6, 35680, Note_on_c, 9, 35, 0
6, 35680, Note_on_c, 9, 51, 0
6, 35724, Note_on_c, 9, 38, 68
6, 35751, Note_on_c, 9, 44, 0
6, 35760, Note_on_c, 9, 38, 0
6, 35760, Note_on_c, 9, 51, 78
6, 35800, Note_on_c, 9, 51, 0
6, 35844, Note_on_c, 9, 38, 78
6, 35880, Note_on_c, 9, 38, 0
6, 35880, Note_on_c, 9, 51, 78
6, 35883, Note_on_c, 9, 44, 77
6, 35920, Note_on_c, 9, 51, 0
6, 35964, Note_on_c, 9, 44, 0
6, 35964, Note_on_c, 9, 51, 58
6, 36000, Note_on_c, 9, 51, 0
6, 36000, Note_on_c, 9, 51, 78
6, 36000, Note_on_c, 9, 35, 34
6, 36040, Note_on_c, 9, 35, 0
6, 36040, Note_on_c, 9, 51, 0
6, 36117, Note_on_c, 9, 46, 72
6, 36120, Note_on_c, 9, 38, 23
6, 36120, Note_on_c, 9, 51, 78
6, 36120, Note_on_c, 9, 35, 34
6, 36160, Note_on_c, 9, 35, 0
6, 36160, Note_on_c, 9, 51, 0
6, 36160, Note_on_c, 9, 38, 0
6, 36190, Note_on_c, 9, 46, 0
6, 36203, Note_on_c, 9, 51, 58
6, 36240, Note_on_c, 9, 51, 0
6, 36240, Note_on_c, 9, 51, 78
6, 36280, Note_on_c, 9, 51, 0
6, 36360, Note_on_c, 9, 38, 23
6, 36360, Note_on_c, 9, 51, 78
6, 36360, Note_on_c, 9, 35, 34
6, 36367, Note_on_c, 9, 46, 76
6, 36400, Note_on_c, 9, 35, 0
6, 36400, Note_on_c, 9, 38, 0
6, 36400, Note_on_c, 9, 51, 0
6, 36439, Note_on_c, 9, 46, 0
6, 36443, Note_on_c, 9, 51, 58
6, 36480, Note_on_c, 9, 51, 0
6, 36480, Note_on_c, 9, 38, 38
6, 36480, Note_on_c, 9, 51, 78
6, 36520, Note_on_c, 9, 51, 0
6, 36520, Note_on_c, 9, 38, 0
6, 36597, Note_on_c, 9, 44, 74
6, 36600, Note_on_c, 9, 51, 78
6, 36640, Note_on_c, 9, 51, 0
6, 36688, Note_on_c, 9, 51, 58
6, 36720, Note_on_c, 9, 51, 0
6, 36720, Note_on_c, 9, 51, 78
6, 36731, Note_on_c, 9, 44, 0
6, 36760, Note_on_c, 9, 51, 0
6, 36840, Note_on_c, 9, 38, 48
6, 36840, Note_on_c, 9, 51, 78
6, 36844, Note_on_c, 9, 44, 77
6, 36880, Note_on_c, 9, 51, 0
6, 36880, Note_on_c, 9, 38, 0
6, 36928, Note_on_c, 9, 51, 58
6, 36960, Note_on_c, 9, 51, 0
6, 36960, Note_on_c, 9, 51, 78
6, 36962, Note_on_c, 9, 44, 0
6, 37000, Note_on_c, 9, 51, 0
6, 37044, Note_on_c, 9, 38, 38
6, 37080, Note_on_c, 9, 38, 0
6, 37080, Note_on_c, 9, 51, 78
6, 37086, Note_on_c, 9, 44, 77
6, 37120, Note_on_c, 9, 51, 0
6, 37164, Note_on_c, 9, 38, 23
6, 37164, Note_on_c, 9, 51, 58
6, 37183, Note_on_c, 9, 44, 0
6, 37200, Note_on_c, 9, 51, 0
6, 37200, Note_on_c, 9, 38, 0
6, 37200, Note_on_c, 9, 38, 38
6, 37200, Note_on_c, 9, 51, 78
6, 37240, Note_on_c, 9, 51, 0
6, 37240, Note_on_c, 9, 38, 0
6, 37284, Note_on_c, 9, 38, 48
6, 37317, Note_on_c, 9, 44, 76
6, 37320, Note_on_c, 9, 38, 0
6, 37320, Note_on_c, 9, 51, 78
6, 37360, Note_on_c, 9, 51, 0
6, 37404, Note_on_c, 9, 38, 38
6, 37404, Note_on_c, 9, 51, 58
6, 37416, Note_on_c, 9, 44, 0
6, 37440, Note_on_c, 9, 51, 0
6, 37440, Note_on_c, 9, 38, 0
6, 37440, Note_on_c, 9, 51, 78
6, 37440, Note_on_c, 9, 35, 34
6, 37480, Note_on_c, 9, 35, 0
6, 37480, Note_on_c, 9, 51, 0
6, 37557, Note_on_c, 9, 44, 77
6, 37560, Note_on_c, 9, 38, 23
6, 37560, Note_on_c, 9, 51, 78
6, 37560, Note_on_c, 9, 35, 34
6, 37600, Note_on_c, 9, 35, 0
6, 37600, Note_on_c, 9, 51, 0
6, 37600, Note_on_c, 9, 38, 0
6, 37643, Note_on_c, 9, 51, 58
6, 37645, Note_on_c, 9, 44, 0
6, 37680, Note_on_c, 9, 51, 0
6, 37680, Note_on_c, 9, 51, 78
6, 37720, Note_on_c, 9, 51, 0
6, 37796, Note_on_c, 9, 44, 79
6, 37800, Note_on_c, 9, 38, 23
6, 37800, Note_on_c, 9, 51, 78
6, 37800, Note_on_c, 9, 35, 34
6, 37840, Note_on_c, 9, 35, 0
6, 37840, Note_on_c, 9, 51, 0
6, 37840, Note_on_c, 9, 38, 0
6, 37881, Note_on_c, 9, 44, 0
6, 37883, Note_on_c, 9, 51, 58
6, 37920, Note_on_c, 9, 51, 0
6, 37920, Note_on_c, 9, 51, 78
6, 37960, Note_on_c, 9, 51, 0
6, 38004, Note_on_c, 9, 38, 38
6, 38040, Note_on_c, 9, 38, 0
6, 38040, Note_on_c, 9, 51, 78
6, 38048, Note_on_c, 9, 44, 79
6, 38080, Note_on_c, 9, 51, 0
6, 38124, Note_on_c, 9, 38, 23
6, 38124, Note_on_c, 9, 51, 58
6, 38137, Note_on_c, 9, 44, 0
6, 38160, Note_on_c, 9, 51, 0
6, 38160, Note_on_c, 9, 38, 0
6, 38160, Note_on_c, 9, 38, 38
6, 38160, Note_on_c, 9, 51, 78
6, 38200, Note_on_c, 9, 51, 0
6, 38200, Note_on_c, 9, 38, 0
6, 38244, Note_on_c, 9, 38, 48
6, 38280, Note_on_c, 9, 38, 0
6, 38280, Note_on_c, 9, 51, 78
6, 38292, Note_on_c, 9, 44, 81
6, 38320, Note_on_c, 9, 51, 0
6, 38364, Note_on_c, 9, 38, 38
6, 38364, Note_on_c, 9, 51, 58
6, 38392, Note_on_c, 9, 44, 0
6, 38400, Note_on_c, 9, 51, 0
6, 38400, Note_on_c, 9, 38, 0
6, 38400, Note_on_c, 9, 51, 78
6, 38400, Note_on_c, 9, 35, 43
6, 38440, Note_on_c, 9, 35, 0
6, 38440, Note_on_c, 9, 51, 0
6, 38520, Note_on_c, 9, 51, 78
6, 38527, Note_on_c, 9, 44, 78
6, 38560, Note_on_c, 9, 51, 0
6, 38604, Note_on_c, 9, 51, 58
6, 38604, Note_on_c, 9, 49, 68
6, 38604, Note_on_c, 9, 35, 61
6, 38617, Note_on_c, 9, 44, 0
6, 38640, Note_on_c, 9, 51, 0
6, 38640, Note_on_c, 9, 49, 0
6, 38640, Note_on_c, 9, 35, 0
6, 38640, Note_on_c, 9, 51, 78
6, 38680, Note_on_c, 9, 51, 0
6, 38724, Note_on_c, 9, 38, 38
6, 38760, Note_on_c, 9, 38, 0
6, 38760, Note_on_c, 9, 51, 78
6, 38773, Note_on_c, 9, 44, 78
6, 38800, Note_on_c, 9, 51, 0
6, 38844, Note_on_c, 9, 38, 58
6, 38844, Note_on_c, 9, 51, 58
6, 38857, Note_on_c, 9, 44, 0
6, 38880, Note_on_c, 9, 51, 0
6, 38880, Note_on_c, 9, 38, 0
6, 38880, Note_on_c, 9, 38, 58
6, 38880, Note_on_c, 9, 51, 68
6, 38920, Note_on_c, 9, 51, 0
6, 38920, Note_on_c, 9, 38, 0
6, 38964, Note_on_c, 9, 51, 48
6, 38964, Note_on_c, 9, 35, 43
6, 39000, Note_on_c, 9, 35, 0
6, 39000, Note_on_c, 9, 51, 0
6, 39000, Note_on_c, 9, 51, 78
6, 39000, Note_on_c, 9, 35, 52
6, 39014, Note_on_c, 9, 44, 79
6, 39040, Note_on_c, 9, 35, 0
6, 39040, Note_on_c, 9, 51, 0
6, 39084, Note_on_c, 9, 38, 68
6, 39120, Note_on_c, 9, 38, 0
6, 39120, Note_on_c, 9, 51, 78
6, 39130, Note_on_c, 9, 44, 0
6, 39160, Note_on_c, 9, 51, 0
6, 39204, Note_on_c, 9, 38, 78
6, 39240, Note_on_c, 9, 38, 0
6, 39240, Note_on_c, 9, 51, 78
6, 39248, Note_on_c, 9, 44, 80
6, 39280, Note_on_c, 9, 51, 0
6, 39324, Note_on_c, 9, 51, 58
6, 39360, Note_on_c, 9, 51, 0
6, 39360, Note_on_c, 9, 51, 78
6, 39360, Note_on_c, 9, 35, 34
6, 39362, Note_on_c, 9, 44, 0
6, 39400, Note_on_c, 9, 35, 0
6, 39400, Note_on_c, 9, 51, 0
6, 39480, Note_on_c, 9, 38, 23
6, 39480, Note_on_c, 9, 51, 78
6, 39480, Note_on_c, 9, 35, 34
6, 39493, Note_on_c, 9, 44, 83
6, 39520, Note_on_c, 9, 35, 0
6, 39520, Note_on_c, 9, 38, 0
6, 39520, Note_on_c, 9, 51, 0
6, 39563, Note_on_c, 9, 51, 58
6, 39567, Note_on_c, 9, 44, 0
6, 39600, Note_on_c, 9, 51, 0
6, 39600, Note_on_c, 9, 51, 78
6, 39640, Note_on_c, 9, 51, 0
6, 39720, Note_on_c, 9, 38, 23
6, 39720, Note_on_c, 9, 51, 78
6, 39720, Note_on_c, 9, 35, 34
6, 39725, Note_on_c, 9, 44, 82
6, 39760, Note_on_c, 9, 35, 0
6, 39760, Note_on_c, 9, 38, 0
6, 39760, Note_on_c, 9, 51, 0
6, 39803, Note_on_c, 9, 51, 58
6, 39815, Note_on_c, 9, 44, 0
6, 39840, Note_on_c, 9, 51, 0
6, 39840, Note_on_c, 9, 51, 78
6, 39840, Note_on_c, 9, 35, 34
6, 39880, Note_on_c, 9, 35, 0
6, 39880, Note_on_c, 9, 51, 0
6, 39920, Note_on_c, 9, 38, 58
6, 39960, Note_on_c, 9, 38, 0
6, 39960, Note_on_c, 9, 51, 78
6, 39967, Note_on_c, 9, 44, 78
6, 40000, Note_on_c, 9, 51, 0
6, 40032, Note_on_c, 9, 44, 0
6, 40040, Note_on_c, 9, 38, 58
6, 40080, Note_on_c, 9, 38, 0
6, 40080, Note_on_c, 9, 38, 78
6, 40080, Note_on_c, 9, 51, 78
6, 40120, Note_on_c, 9, 51, 0
6, 40120, Note_on_c, 9, 38, 0
6, 40160, Note_on_c, 9, 38, 88
6, 40200, Note_on_c, 9, 38, 0
6, 40200, Note_on_c, 9, 51, 78
6, 40205, Note_on_c, 9, 46, 80
6, 40240, Note_on_c, 9, 51, 0
6, 40278, Note_on_c, 9, 46, 0
6, 40280, Note_on_c, 9, 38, 88
6, 40280, Note_on_c, 9, 49, 88
6, 40320, Note_on_c, 9, 49, 0
6, 40320, Note_on_c, 9, 38, 0
6, 40320, Note_on_c, 9, 51, 78
6, 40320, Note_on_c, 9, 35, 34
6, 40360, Note_on_c, 9, 35, 0
6, 40360, Note_on_c, 9, 51, 0
6, 40440, Note_on_c, 9, 38, 23
6, 40440, Note_on_c, 9, 51, 78
6, 40440, Note_on_c, 9, 35, 34
6, 40442, Note_on_c, 9, 44, 77
6, 40480, Note_on_c, 9, 35, 0
6, 40480, Note_on_c, 9, 38, 0
6, 40480, Note_on_c, 9, 51, 0
6, 40518, Note_on_c, 9, 44, 0
6, 40523, Note_on_c, 9, 51, 58
6, 40560, Note_on_c, 9, 51, 0
6, 40560, Note_on_c, 9, 51, 78
6, 40600, Note_on_c, 9, 51, 0
6, 40680, Note_on_c, 9, 38, 23
6, 40680, Note_on_c, 9, 51, 78
6, 40680, Note_on_c, 9, 35, 34
6, 40685, Note_on_c, 9, 44, 83
6, 40720, Note_on_c, 9, 35, 0
6, 40720, Note_on_c, 9, 38, 0
6, 40720, Note_on_c, 9, 51, 0
6, 40763, Note_on_c, 9, 51, 58
6, 40800, Note_on_c, 9, 51, 0
6, 40800, Note_on_c, 9, 51, 78
6, 40800, Note_on_c, 9, 35, 34
6, 40833, Note_on_c, 9, 44, 0
6, 40840, Note_on_c, 9, 35, 0
6, 40840, Note_on_c, 9, 51, 0
6, 40918, Note_on_c, 9, 44, 74
6, 40920, Note_on_c, 9, 38, 23
6, 40920, Note_on_c, 9, 51, 78
6, 40920, Note_on_c, 9, 35, 34
6, 40960, Note_on_c, 9, 35, 0
6, 40960, Note_on_c, 9, 51, 0
6, 40960, Note_on_c, 9, 38, 0
6, 41003, Note_on_c, 9, 51, 58
6, 41012, Note_on_c, 9, 44, 0
6, 41040, Note_on_c, 9, 51, 0
6, 41040, Note_on_c, 9, 51, 78
6, 41080, Note_on_c, 9, 51, 0
6, 41160, Note_on_c, 9, 38, 23
6, 41160, Note_on_c, 9, 51, 78
6, 41160, Note_on_c, 9, 35, 34
6, 41169, Note_on_c, 9, 44, 71
6, 41200, Note_on_c, 9, 35, 0
6, 41200, Note_on_c, 9, 38, 0
6, 41200, Note_on_c, 9, 51, 0
6, 41243, Note_on_c, 9, 51, 58
6, 41280, Note_on_c, 9, 51, 0
6, 41280, Note_on_c, 9, 38, 8
6, 41280, Note_on_c, 9, 51, 78
6, 41299, Note_on_c, 9, 44, 0
6, 41320, Note_on_c, 9, 51, 0
6, 41320, Note_on_c, 9, 38, 0
6, 41360, Note_on_c, 9, 38, 38
6, 41400, Note_on_c, 9, 38, 0
6, 41400, Note_on_c, 9, 51, 78
6, 41403, Note_on_c, 9, 44, 68
6, 41440, Note_on_c, 9, 51, 0
6, 41479, Note_on_c, 9, 44, 0
6, 41480, Note_on_c, 9, 51, 58
6, 41480, Note_on_c, 9, 48, 48
6, 41520, Note_on_c, 9, 48, 0
6, 41520, Note_on_c, 9, 51, 0
6, 41520, Note_on_c, 9, 51, 78
6, 41520, Note_on_c, 9, 48, 48
6, 41560, Note_on_c, 9, 48, 0
6, 41560, Note_on_c, 9, 51, 0
6, 41600, Note_on_c, 9, 45, 58
6, 41630, Note_on_c, 9, 44, 76
6, 41640, Note_on_c, 9, 45, 0
6, 41640, Note_on_c, 9, 51, 78
6, 41680, Note_on_c, 9, 51, 0
6, 41680, Note_on_c, 9, 38, 18
6, 41701, Note_on_c, 9, 44, 0
6, 41720, Note_on_c, 9, 38, 0
6, 41720, Note_on_c, 9, 38, 28
6, 41720, Note_on_c, 9, 51, 58
6, 41760, Note_on_c, 9, 51, 0
6, 41760, Note_on_c, 9, 38, 0
6, 41760, Note_on_c, 9, 51, 78
6, 41760, Note_on_c, 9, 35, 34
6, 41800, Note_on_c, 9, 35, 0
6, 41800, Note_on_c, 9, 51, 0
6, 41880, Note_on_c, 9, 38, 23
6, 41880, Note_on_c, 9, 51, 78
6, 41880, Note_on_c, 9, 35, 34
6, 41881, Note_on_c, 9, 44, 71
6, 41920, Note_on_c, 9, 35, 0
6, 41920, Note_on_c, 9, 38, 0
6, 41920, Note_on_c, 9, 51, 0
6, 41947, Note_on_c, 9, 44, 0
6, 41963, Note_on_c, 9, 51, 58
6, 42000, Note_on_c, 9, 51, 0
6, 42000, Note_on_c, 9, 51, 78
6, 42040, Note_on_c, 9, 51, 0
6, 42082, Note_on_c, 9, 57, 70
6, 42094, Note_on_c, 9, 57, 0
6, 42118, Note_on_c, 9, 44, 63
6, 42120, Note_on_c, 9, 38, 23
6, 42120, Note_on_c, 9, 51, 78
6, 42120, Note_on_c, 9, 35, 34
6, 42160, Note_on_c, 9, 35, 0
6, 42160, Note_on_c, 9, 51, 0
6, 42160, Note_on_c, 9, 38, 0
6, 42203, Note_on_c, 9, 51, 58
6, 42236, Note_on_c, 9, 44, 0
6, 42240, Note_on_c, 9, 51, 0
6, 42240, Note_on_c, 9, 51, 78
6, 42240, Note_on_c, 9, 35, 34
6, 42280, Note_on_c, 9, 35, 0
6, 42280, Note_on_c, 9, 51, 0
6, 42360, Note_on_c, 9, 38, 23
6, 42360, Note_on_c, 9, 51, 78
6, 42360, Note_on_c, 9, 35, 34
6, 42365, Note_on_c, 9, 44, 78
6, 42400, Note_on_c, 9, 35, 0
6, 42400, Note_on_c, 9, 38, 0
6, 42400, Note_on_c, 9, 51, 0
6, 42434, Note_on_c, 9, 44, 0
6, 42443, Note_on_c, 9, 51, 58
6, 42480, Note_on_c, 9, 51, 0
6, 42480, Note_on_c, 9, 51, 78
6, 42520, Note_on_c, 9, 51, 0
6, 42597, Note_on_c, 9, 44, 75
6, 42600, Note_on_c, 9, 38, 23
6, 42600, Note_on_c, 9, 51, 78
6, 42600, Note_on_c, 9, 35, 34
6, 42640, Note_on_c, 9, 35, 0
6, 42640, Note_on_c, 9, 51, 0
6, 42640, Note_on_c, 9, 38, 0
6, 42665, Note_on_c, 9, 44, 0
6, 42683, Note_on_c, 9, 51, 58
6, 42720, Note_on_c, 9, 51, 0
6, 42720, Note_on_c, 9, 51, 78
6, 42720, Note_on_c, 9, 35, 34
6, 42760, Note_on_c, 9, 35, 0
6, 42760, Note_on_c, 9, 51, 0
6, 42840, Note_on_c, 9, 38, 23
6, 42840, Note_on_c, 9, 51, 78
6, 42840, Note_on_c, 9, 35, 34
6, 42843, Note_on_c, 9, 44, 73
6, 42880, Note_on_c, 9, 35, 0
6, 42880, Note_on_c, 9, 38, 0
6, 42880, Note_on_c, 9, 51, 0
6, 42910, Note_on_c, 9, 44, 0
6, 42923, Note_on_c, 9, 51, 58
6, 42960, Note_on_c, 9, 51, 0
6, 42960, Note_on_c, 9, 51, 78
6, 43000, Note_on_c, 9, 51, 0
6, 43080, Note_on_c, 9, 38, 23
6, 43080, Note_on_c, 9, 51, 78
6, 43080, Note_on_c, 9, 35, 34
6, 43082, Note_on_c, 9, 44, 74
6, 43120, Note_on_c, 9, 35, 0
6, 43120, Note_on_c, 9, 38, 0
6, 43120, Note_on_c, 9, 51, 0
6, 43145, Note_on_c, 9, 44, 0
6, 43163, Note_on_c, 9, 51, 58
6, 43200, Note_on_c, 9, 51, 0
6, 43200, Note_on_c, 9, 51, 78
6, 43200, Note_on_c, 9, 35, 34
6, 43240, Note_on_c, 9, 35, 0
6, 43240, Note_on_c, 9, 51, 0
6, 43320, Note_on_c, 9, 38, 23
6, 43320, Note_on_c, 9, 51, 78
6, 43320, Note_on_c, 9, 35, 34
6, 43329, Note_on_c, 9, 44, 73
6, 43360, Note_on_c, 9, 35, 0
6, 43360, Note_on_c, 9, 38, 0
6, 43360, Note_on_c, 9, 51, 0
6, 43385, Note_on_c, 9, 44, 0
6, 43403, Note_on_c, 9, 51, 58
6, 43440, Note_on_c, 9, 51, 0
6, 43440, Note_on_c, 9, 51, 78
6, 43480, Note_on_c, 9, 51, 0
6, 43560, Note_on_c, 9, 38, 23
6, 43560, Note_on_c, 9, 51, 78
6, 43560, Note_on_c, 9, 35, 34
6, 43562, Note_on_c, 9, 44, 73
6, 43600, Note_on_c, 9, 35, 0
6, 43600, Note_on_c, 9, 38, 0
6, 43600, Note_on_c, 9, 51, 0
6, 43620, Note_on_c, 9, 44, 0
6, 43643, Note_on_c, 9, 51, 58
6, 43680, Note_on_c, 9, 51, 0
6, 43680, Note_on_c, 9, 51, 78
6, 43680, Note_on_c, 9, 35, 34
6, 43720, Note_on_c, 9, 35, 0
6, 43720, Note_on_c, 9, 51, 0
6, 43800, Note_on_c, 9, 38, 23
6, 43800, Note_on_c, 9, 51, 78
6, 43800, Note_on_c, 9, 35, 34
6, 43804, Note_on_c, 9, 44, 75
6, 43840, Note_on_c, 9, 35, 0
6, 43840, Note_on_c, 9, 38, 0
6, 43840, Note_on_c, 9, 51, 0
6, 43870, Note_on_c, 9, 44, 0
6, 43883, Note_on_c, 9, 51, 58
6, 43920, Note_on_c, 9, 51, 0
6, 43920, Note_on_c, 9, 51, 78
6, 43960, Note_on_c, 9, 51, 0
6, 44038, Note_on_c, 9, 44, 74
6, 44040, Note_on_c, 9, 38, 23
6, 44040, Note_on_c, 9, 51, 78
6, 44040, Note_on_c, 9, 35, 34
6, 44080, Note_on_c, 9, 35, 0
6, 44080, Note_on_c, 9, 51, 0
6, 44080, Note_on_c, 9, 38, 0
6, 44111, Note_on_c, 9, 44, 0
6, 44123, Note_on_c, 9, 51, 58
6, 44160, Note_on_c, 9, 51, 0
6, 44160, Note_on_c, 9, 38, 38
6, 44160, Note_on_c, 9, 51, 78
6, 44200, Note_on_c, 9, 51, 0
6, 44200, Note_on_c, 9, 38, 0
6, 44280, Note_on_c, 9, 51, 78
6, 44283, Note_on_c, 9, 44, 76
6, 44320, Note_on_c, 9, 51, 0
6, 44346, Note_on_c, 9, 44, 0
6, 44368, Note_on_c, 9, 51, 58
6, 44400, Note_on_c, 9, 51, 0
6, 44400, Note_on_c, 9, 51, 78
6, 44440, Note_on_c, 9, 51, 0
6, 44520, Note_on_c, 9, 38, 48
6, 44520, Note_on_c, 9, 51, 78
6, 44531, Note_on_c, 9, 44, 77
6, 44560, Note_on_c, 9, 51, 0
6, 44560, Note_on_c, 9, 38, 0
6, 44607, Note_on_c, 9, 44, 0
6, 44608, Note_on_c, 9, 51, 58
6, 44640, Note_on_c, 9, 51, 0
6, 44640, Note_on_c, 9, 51, 78
6, 44640, Note_on_c, 9, 35, 34
6, 44680, Note_on_c, 9, 35, 0
6, 44680, Note_on_c, 9, 51, 0
6, 44760, Note_on_c, 9, 38, 23
6, 44760, Note_on_c, 9, 51, 78
6, 44760, Note_on_c, 9, 35, 34
6, 44768, Note_on_c, 9, 44, 71
6, 44800, Note_on_c, 9, 35, 0
6, 44800, Note_on_c, 9, 38, 0
6, 44800, Note_on_c, 9, 51, 0
6, 44838, Note_on_c, 9, 44, 0
6, 44843, Note_on_c, 9, 51, 58
6, 44852, Note_on_c, 9, 40, 71
6, 44880, Note_on_c, 9, 51, 0
6, 44880, Note_on_c, 9, 51, 78
6, 44882, Note_on_c, 9, 40, 0
6, 44920, Note_on_c, 9, 51, 0
6, 45000, Note_on_c, 9, 38, 23
6, 45000, Note_on_c, 9, 51, 78
6, 45000, Note_on_c, 9, 35, 34
6, 45007, Note_on_c, 9, 44, 67
6, 45040, Note_on_c, 9, 35, 0
6, 45040, Note_on_c, 9, 38, 0
6, 45040, Note_on_c, 9, 51, 0
6, 45044, Note_on_c, 9, 44, 0
6, 45083, Note_on_c, 9, 51, 58
6, 45120, Note_on_c, 9, 51, 0
6, 45120, Note_on_c, 9, 51, 78
6, 45120, Note_on_c, 9, 35, 34
6, 45160, Note_on_c, 9, 35, 0
6, 45160, Note_on_c, 9, 51, 0
6, 45240, Note_on_c, 9, 38, 23
6, 45240, Note_on_c, 9, 51, 78
6, 45240, Note_on_c, 9, 35, 34
6, 45247, Note_on_c, 9, 44, 81
6, 45280, Note_on_c, 9, 35, 0
6, 45280, Note_on_c, 9, 38, 0
6, 45280, Note_on_c, 9, 51, 0
6, 45290, Note_on_c, 9, 44, 0
6, 45323, Note_on_c, 9, 51, 58
6, 45360, Note_on_c, 9, 51, 0
6, 45360, Note_on_c, 9, 51, 78
6, 45400, Note_on_c, 9, 51, 0
6, 45480, Note_on_c, 9, 38, 23
6, 45480, Note_on_c, 9, 51, 78
6, 45480, Note_on_c, 9, 35, 34
6, 45483, Note_on_c, 9, 44, 77
6, 45520, Note_on_c, 9, 35, 0
6, 45520, Note_on_c, 9, 38, 0
6, 45520, Note_on_c, 9, 51, 0
6, 45526, Note_on_c, 9, 44, 0
6, 45563, Note_on_c, 9, 51, 58
6, 45600, Note_on_c, 9, 51, 0
6, 45600, Note_on_c, 9, 51, 78
6, 45640, Note_on_c, 9, 51, 0
6, 45684, Note_on_c, 9, 38, 38
6, 45720, Note_on_c, 9, 38, 0
6, 45720, Note_on_c, 9, 51, 78
6, 45721, Note_on_c, 9, 44, 77
6, 45760, Note_on_c, 9, 51, 0
6, 45767, Note_on_c, 9, 44, 0
6, 45804, Note_on_c, 9, 38, 23
6, 45804, Note_on_c, 9, 51, 58
6, 45840, Note_on_c, 9, 51, 0
6, 45840, Note_on_c, 9, 38, 0
6, 45840, Note_on_c, 9, 38, 38
6, 45840, Note_on_c, 9, 51, 78
6, 45880, Note_on_c, 9, 51, 0
6, 45880, Note_on_c, 9, 38, 0
6, 45924, Note_on_c, 9, 38, 48
6, 45960, Note_on_c, 9, 38, 0
6, 45960, Note_on_c, 9, 51, 78
6, 45970, Note_on_c, 9, 44, 83
6, 46000, Note_on_c, 9, 51, 0
6, 46004, Note_on_c, 9, 44, 0
6, 46044, Note_on_c, 9, 38, 38
6, 46044, Note_on_c, 9, 51, 58
6, 46080, Note_on_c, 9, 51, 0
6, 46080, Note_on_c, 9, 38, 0
6, 46080, Note_on_c, 9, 51, 78
6, 46080, Note_on_c, 9, 35, 34
6, 46120, Note_on_c, 9, 35, 0
6, 46120, Note_on_c, 9, 51, 0
6, 46200, Note_on_c, 9, 38, 23
6, 46200, Note_on_c, 9, 51, 78
6, 46200, Note_on_c, 9, 35, 34
6, 46205, Note_on_c, 9, 44, 84
6, 46238, Note_on_c, 9, 44, 0
6, 46240, Note_on_c, 9, 38, 0
6, 46240, Note_on_c, 9, 51, 0
6, 46240, Note_on_c, 9, 35, 0
6, 46283, Note_on_c, 9, 51, 58
6, 46320, Note_on_c, 9, 51, 0
6, 46320, Note_on_c, 9, 51, 78
6, 46360, Note_on_c, 9, 51, 0
6, 46440, Note_on_c, 9, 38, 23
6, 46440, Note_on_c, 9, 51, 78
6, 46440, Note_on_c, 9, 35, 34
6, 46443, Note_on_c, 9, 44, 83
6, 46480, Note_on_c, 9, 35, 0
6, 46480, Note_on_c, 9, 38, 0
6, 46480, Note_on_c, 9, 51, 0
6, 46482, Note_on_c, 9, 44, 0
6, 46523, Note_on_c, 9, 51, 58
6, 46560, Note_on_c, 9, 51, 0
6, 46560, Note_on_c, 9, 51, 78
6, 46600, Note_on_c, 9, 51, 0
6, 46644, Note_on_c, 9, 38, 38
6, 46680, Note_on_c, 9, 38, 0
6, 46680, Note_on_c, 9, 51, 78
6, 46684, Note_on_c, 9, 44, 80
6, 46714, Note_on_c, 9, 44, 0
6, 46720, Note_on_c, 9, 51, 0
6, 46764, Note_on_c, 9, 38, 23
6, 46764, Note_on_c, 9, 51, 58
6, 46800, Note_on_c, 9, 51, 0
6, 46800, Note_on_c, 9, 38, 0
6, 46800, Note_on_c, 9, 38, 38
6, 46800, Note_on_c, 9, 51, 78
6, 46840, Note_on_c, 9, 51, 0
6, 46840, Note_on_c, 9, 38, 0
6, 46884, Note_on_c, 9, 38, 48
6, 46919, Note_on_c, 9, 44, 79
6, 46920, Note_on_c, 9, 38, 0
6, 46920, Note_on_c, 9, 51, 78
6, 46960, Note_on_c, 9, 51, 0
6, 46965, Note_on_c, 9, 44, 0
6, 47004, Note_on_c, 9, 38, 38
6, 47004, Note_on_c, 9, 51, 58
6, 47040, Note_on_c, 9, 51, 0
6, 47040, Note_on_c, 9, 38, 0
6, 47040, Note_on_c, 9, 38, 38
6, 47040, Note_on_c, 9, 51, 78
6, 47080, Note_on_c, 9, 51, 0
6, 47080, Note_on_c, 9, 38, 0
6, 47158, Note_on_c, 9, 44, 76
6, 47160, Note_on_c, 9, 51, 78
6, 47200, Note_on_c, 9, 51, 0
6, 47229, Note_on_c, 9, 44, 0
6, 47248, Note_on_c, 9, 51, 58
6, 47261, Note_on_c, 9, 44, 33
6, 47280, Note_on_c, 9, 51, 0
6, 47280, Note_on_c, 9, 51, 78
6, 47293, Note_on_c, 9, 44, 0
6, 47320, Note_on_c, 9, 51, 0
6, 47400, Note_on_c, 9, 38, 48
6, 47400, Note_on_c, 9, 51, 78
6, 47416, Note_on_c, 9, 44, 76
6, 47440, Note_on_c, 9, 51, 0
6, 47440, Note_on_c, 9, 38, 0
6, 47469, Note_on_c, 9, 44, 0
6, 47488, Note_on_c, 9, 51, 58
6, 47520, Note_on_c, 9, 51, 0
6, 47520, Note_on_c, 9, 51, 78
6, 47520, Note_on_c, 9, 35, 34
6, 47560, Note_on_c, 9, 35, 0
6, 47560, Note_on_c, 9, 51, 0
6, 47600, Note_on_c, 9, 38, 78
6, 47640, Note_on_c, 9, 38, 0
6, 47640, Note_on_c, 9, 51, 78
6, 47645, Note_on_c, 9, 44, 83
6, 47680, Note_on_c, 9, 51, 0
6, 47698, Note_on_c, 9, 44, 0
6, 47720, Note_on_c, 9, 51, 58
6, 47760, Note_on_c, 9, 51, 0
6, 47760, Note_on_c, 9, 51, 78
6, 47800, Note_on_c, 9, 51, 0
6, 47840, Note_on_c, 9, 38, 88
6, 47876, Note_on_c, 9, 44, 82
6, 47880, Note_on_c, 9, 38, 0
6, 47880, Note_on_c, 9, 51, 78
6, 47920, Note_on_c, 9, 51, 0
6, 47928, Note_on_c, 9, 44, 0
6, 47960, Note_on_c, 9, 38, 38
6, 48000, Note_on_c, 9, 38, 0
6, 48000, Note_on_c, 9, 51, 78
6, 48000, Note_on_c, 9, 35, 34
6, 48040, Note_on_c, 9, 35, 0
6, 48040, Note_on_c, 9, 51, 0
6, 48120, Note_on_c, 9, 38, 23
6, 48120, Note_on_c, 9, 51, 78
6, 48120, Note_on_c, 9, 35, 34
6, 48123, Note_on_c, 9, 44, 74
6, 48123, Note_on_c, 9, 37, 74
6, 48160, Note_on_c, 9, 35, 0
6, 48160, Note_on_c, 9, 38, 0
6, 48160, Note_on_c, 9, 51, 0
6, 48178, Note_on_c, 9, 44, 0
6, 48180, Note_on_c, 9, 37, 0
6, 48203, Note_on_c, 9, 51, 58
6, 48240, Note_on_c, 9, 51, 0
6, 48240, Note_on_c, 9, 51, 78
6, 48280, Note_on_c, 9, 51, 0
6, 48360, Note_on_c, 9, 38, 23
6, 48360, Note_on_c, 9, 51, 78
6, 48360, Note_on_c, 9, 35, 34
6, 48361, Note_on_c, 9, 44, 75
6, 48362, Note_on_c, 9, 37, 70
6, 48400, Note_on_c, 9, 35, 0
6, 48400, Note_on_c, 9, 38, 0
6, 48400, Note_on_c, 9, 51, 0
6, 48410, Note_on_c, 9, 44, 0
6, 48417, Note_on_c, 9, 37, 0
6, 48443, Note_on_c, 9, 51, 58
6, 48480, Note_on_c, 9, 51, 0
6, 48480, Note_on_c, 9, 38, 38
6, 48480, Note_on_c, 9, 51, 78
6, 48520, Note_on_c, 9, 51, 0
6, 48520, Note_on_c, 9, 38, 0
6, 48600, Note_on_c, 9, 51, 78
6, 48603, Note_on_c, 9, 44, 75
6, 48604, Note_on_c, 9, 37, 72
6, 48640, Note_on_c, 9, 51, 0
6, 48648, Note_on_c, 9, 44, 0
6, 48657, Note_on_c, 9, 37, 0
6, 48688, Note_on_c, 9, 51, 58
6, 48720, Note_on_c, 9, 51, 0
6, 48720, Note_on_c, 9, 51, 78
6, 48760, Note_on_c, 9, 51, 0
6, 48840, Note_on_c, 9, 38, 48
6, 48840, Note_on_c, 9, 51, 78
6, 48844, Note_on_c, 9, 44, 77
6, 48846, Note_on_c, 9, 37, 69
6, 48880, Note_on_c, 9, 51, 0
6, 48880, Note_on_c, 9, 38, 0
6, 48892, Note_on_c, 9, 44, 0
6, 48899, Note_on_c, 9, 37, 0
6, 48928, Note_on_c, 9, 51, 58
6, 48960, Note_on_c, 9, 51, 0
6, 48960, Note_on_c, 9, 51, 78
6, 48960, Note_on_c, 9, 35, 34
6, 49000, Note_on_c, 9, 35, 0
6, 49000, Note_on_c, 9, 51, 0
6, 49080, Note_on_c, 9, 38, 23
6, 49080, Note_on_c, 9, 51, 78
6, 49080, Note_on_c, 9, 35, 34
6, 49085, Note_on_c, 9, 44, 74
6, 49085, Note_on_c, 9, 37, 69
6, 49120, Note_on_c, 9, 35, 0
6, 49120, Note_on_c, 9, 38, 0
6, 49120, Note_on_c, 9, 51, 0
6, 49135, Note_on_c, 9, 44, 0
6, 49139, Note_on_c, 9, 37, 0
6, 49163, Note_on_c, 9, 51, 58
6, 49200, Note_on_c, 9, 51, 0
6, 49200, Note_on_c, 9, 51, 78
6, 49240, Note_on_c, 9, 51, 0
6, 49320, Note_on_c, 9, 38, 23
6, 49320, Note_on_c, 9, 51, 78
6, 49320, Note_on_c, 9, 35, 34
6, 49327, Note_on_c, 9, 44, 75
6, 49329, Note_on_c, 9, 37, 69
6, 49360, Note_on_c, 9, 35, 0
6, 49360, Note_on_c, 9, 38, 0
6, 49360, Note_on_c, 9, 51, 0
6, 49381, Note_on_c, 9, 44, 0
6, 49383, Note_on_c, 9, 37, 0
6, 49403, Note_on_c, 9, 51, 58
6, 49440, Note_on_c, 9, 51, 0
6, 49440, Note_on_c, 9, 51, 78
6, 49440, Note_on_c, 9, 35, 34
6, 49480, Note_on_c, 9, 35, 0
6, 49480, Note_on_c, 9, 51, 0
6, 49555, Note_on_c, 9, 44, 78
6, 49557, Note_on_c, 9, 37, 71
6, 49560, Note_on_c, 9, 38, 23
6, 49560, Note_on_c, 9, 51, 78
6, 49560, Note_on_c, 9, 35, 34
6, 49600, Note_on_c, 9, 35, 0
6, 49600, Note_on_c, 9, 38, 0
6, 49600, Note_on_c, 9, 51, 0
6, 49607, Note_on_c, 9, 44, 0
6, 49610, Note_on_c, 9, 37, 0
6, 49643, Note_on_c, 9, 51, 58
6, 49680, Note_on_c, 9, 51, 0
6, 49680, Note_on_c, 9, 51, 78
6, 49720, Note_on_c, 9, 51, 0
6, 49800, Note_on_c, 9, 38, 23
6, 49800, Note_on_c, 9, 51, 78
6, 49800, Note_on_c, 9, 35, 34
6, 49802, Note_on_c, 9, 44, 75
6, 49803, Note_on_c, 9, 37, 71
6, 49840, Note_on_c, 9, 35, 0
6, 49840, Note_on_c, 9, 38, 0
6, 49840, Note_on_c, 9, 51, 0
6, 49851, Note_on_c, 9, 44, 0
6, 49858, Note_on_c, 9, 37, 0
6, 49883, Note_on_c, 9, 51, 58
6, 49920, Note_on_c, 9, 51, 0
6, 49920, Note_on_c, 9, 38, 38
6, 49920, Note_on_c, 9, 51, 78
6, 49960, Note_on_c, 9, 51, 0
6, 49960, Note_on_c, 9, 38, 0
6, 50040, Note_on_c, 9, 51, 78
6, 50045, Note_on_c, 9, 44, 74
6, 50048, Note_on_c, 9, 37, 71
6, 50080, Note_on_c, 9, 51, 0
6, 50101, Note_on_c, 9, 44, 0
6, 50108, Note_on_c, 9, 37, 0
6, 50128, Note_on_c, 9, 51, 58
6, 50160, Note_on_c, 9, 51, 0
6, 50160, Note_on_c, 9, 51, 78
6, 50200, Note_on_c, 9, 51, 0
6, 50280, Note_on_c, 9, 38, 48
6, 50280, Note_on_c, 9, 51, 78
6, 50286, Note_on_c, 9, 44, 80
6, 50287, Note_on_c, 9, 37, 72
6, 50320, Note_on_c, 9, 51, 0
6, 50320, Note_on_c, 9, 38, 0
6, 50341, Note_on_c, 9, 44, 0
6, 50348, Note_on_c, 9, 37, 0
6, 50368, Note_on_c, 9, 51, 58
6, 50400, Note_on_c, 9, 51, 0
6, 50400, Note_on_c, 9, 51, 78
6, 50400, Note_on_c, 9, 35, 34
6, 50440, Note_on_c, 9, 35, 0
6, 50440, Note_on_c, 9, 51, 0
6, 50516, Note_on_c, 9, 37, 74
6, 50517, Note_on_c, 9, 44, 78
6, 50520, Note_on_c, 9, 38, 23
6, 50520, Note_on_c, 9, 51, 78
6, 50520, Note_on_c, 9, 35, 34
6, 50560, Note_on_c, 9, 35, 0
6, 50560, Note_on_c, 9, 38, 0
6, 50560, Note_on_c, 9, 51, 0
6, 50569, Note_on_c, 9, 44, 0
6, 50574, Note_on_c, 9, 37, 0
6, 50603, Note_on_c, 9, 51, 58
6, 50640, Note_on_c, 9, 51, 0
6, 50640, Note_on_c, 9, 51, 78
6, 50680, Note_on_c, 9, 51, 0
6, 50758, Note_on_c, 9, 44, 77
6, 50759, Note_on_c, 9, 37, 72
6, 50760, Note_on_c, 9, 38, 23
6, 50760, Note_on_c, 9, 51, 78
6, 50760, Note_on_c, 9, 35, 34
6, 50800, Note_on_c, 9, 35, 0
6, 50800, Note_on_c, 9, 38, 0
6, 50800, Note_on_c, 9, 51, 0
6, 50809, Note_on_c, 9, 44, 0
6, 50816, Note_on_c, 9, 37, 0
6, 50843, Note_on_c, 9, 51, 58
6, 50880, Note_on_c, 9, 51, 0
6, 50880, Note_on_c, 9, 38, 38
6, 50880, Note_on_c, 9, 51, 78
6, 50920, Note_on_c, 9, 51, 0
6, 50920, Note_on_c, 9, 38, 0
6, 51000, Note_on_c, 9, 51, 78
6, 51004, Note_on_c, 9, 44, 75
6, 51004, Note_on_c, 9, 37, 74
6, 51040, Note_on_c, 9, 51, 0
6, 51050, Note_on_c, 9, 44, 0
6, 51060, Note_on_c, 9, 37, 0
6, 51088, Note_on_c, 9, 51, 58
6, 51120, Note_on_c, 9, 51, 0
6, 51120, Note_on_c, 9, 51, 78
6, 51160, Note_on_c, 9, 51, 0
6, 51240, Note_on_c, 9, 38, 48
6, 51240, Note_on_c, 9, 51, 78
6, 51241, Note_on_c, 9, 44, 78
6, 51242, Note_on_c, 9, 37, 75
6, 51280, Note_on_c, 9, 44, 0
6, 51280, Note_on_c, 9, 38, 0
6, 51280, Note_on_c, 9, 51, 0
6, 51294, Note_on_c, 9, 37, 0
6, 51328, Note_on_c, 9, 51, 58
6, 51360, Note_on_c, 9, 51, 0
6, 51360, Note_on_c, 9, 51, 78
6, 51360, Note_on_c, 9, 35, 34
6, 51400, Note_on_c, 9, 35, 0
6, 51400, Note_on_c, 9, 51, 0
6, 51475, Note_on_c, 9, 44, 75
6, 51475, Note_on_c, 9, 37, 74
6, 51480, Note_on_c, 9, 38, 23
6, 51480, Note_on_c, 9, 51, 78
6, 51480, Note_on_c, 9, 35, 34
6, 51520, Note_on_c, 9, 35, 0
6, 51520, Note_on_c, 9, 38, 0
6, 51520, Note_on_c, 9, 51, 0
6, 51527, Note_on_c, 9, 44, 0
6, 51531, Note_on_c, 9, 37, 0
6, 51563, Note_on_c, 9, 51, 58
6, 51600, Note_on_c, 9, 51, 0
6, 51600, Note_on_c, 9, 51, 78
6, 51640, Note_on_c, 9, 51, 0
6, 51714, Note_on_c, 9, 37, 72
6, 51714, Note_on_c, 9, 44, 71
6, 51720, Note_on_c, 9, 38, 23
6, 51720, Note_on_c, 9, 51, 78
6, 51720, Note_on_c, 9, 35, 34
6, 51760, Note_on_c, 9, 35, 0
6, 51760, Note_on_c, 9, 38, 0
6, 51760, Note_on_c, 9, 51, 0
6, 51769, Note_on_c, 9, 44, 0
6, 51771, Note_on_c, 9, 37, 0
6, 51803, Note_on_c, 9, 51, 58
6, 51840, Note_on_c, 9, 51, 0
6, 51840, Note_on_c, 9, 51, 78
6, 51840, Note_on_c, 9, 35, 34
6, 51880, Note_on_c, 9, 35, 0
6, 51880, Note_on_c, 9, 51, 0
6, 51952, Note_on_c, 9, 44, 76
6, 51954, Note_on_c, 9, 37, 69
6, 51960, Note_on_c, 9, 38, 23
6, 51960, Note_on_c, 9, 51, 78
6, 51960, Note_on_c, 9, 35, 34
6, 52000, Note_on_c, 9, 35, 0
6, 52000, Note_on_c, 9, 38, 0
6, 52000, Note_on_c, 9, 51, 0
6, 52005, Note_on_c, 9, 44, 0
6, 52016, Note_on_c, 9, 37, 0
6, 52043, Note_on_c, 9, 51, 58
6, 52080, Note_on_c, 9, 51, 0
6, 52080, Note_on_c, 9, 51, 78
6, 52120, Note_on_c, 9, 51, 0
6, 52200, Note_on_c, 9, 38, 23
6, 52200, Note_on_c, 9, 51, 78
6, 52200, Note_on_c, 9, 35, 34
6, 52209, Note_on_c, 9, 37, 74
6, 52210, Note_on_c, 9, 44, 73
6, 52240, Note_on_c, 9, 35, 0
6, 52240, Note_on_c, 9, 38, 0
6, 52240, Note_on_c, 9, 51, 0
6, 52262, Note_on_c, 9, 44, 0
6, 52272, Note_on_c, 9, 37, 0
6, 52283, Note_on_c, 9, 51, 58
6, 52320, Note_on_c, 9, 51, 0
6, 52320, Note_on_c, 9, 51, 78
6, 52360, Note_on_c, 9, 51, 0
6, 52404, Note_on_c, 9, 38, 38
6, 52440, Note_on_c, 9, 38, 0
6, 52440, Note_on_c, 9, 51, 78
6, 52442, Note_on_c, 9, 37, 73
6, 52443, Note_on_c, 9, 44, 70
6, 52480, Note_on_c, 9, 51, 0
6, 52488, Note_on_c, 9, 44, 0
6, 52509, Note_on_c, 9, 37, 0
6, 52524, Note_on_c, 9, 38, 23
6, 52524, Note_on_c, 9, 51, 58
6, 52560, Note_on_c, 9, 51, 0
6, 52560, Note_on_c, 9, 38, 0
6, 52560, Note_on_c, 9, 38, 38
6, 52560, Note_on_c, 9, 51, 78
6, 52600, Note_on_c, 9, 51, 0
6, 52600, Note_on_c, 9, 38, 0
6, 52644, Note_on_c, 9, 38, 48
6, 52680, Note_on_c, 9, 38, 0
6, 52680, Note_on_c, 9, 51, 78
6, 52683, Note_on_c, 9, 44, 72
6, 52684, Note_on_c, 9, 37, 70
6, 52720, Note_on_c, 9, 51, 0
6, 52730, Note_on_c, 9, 44, 0
6, 52738, Note_on_c, 9, 37, 0
6, 52764, Note_on_c, 9, 38, 38
6, 52764, Note_on_c, 9, 51, 58
6, 52800, Note_on_c, 9, 51, 0
6, 52800, Note_on_c, 9, 38, 0
6, 52800, Note_on_c, 9, 38, 38
6, 52800, Note_on_c, 9, 51, 78
6, 52840, Note_on_c, 9, 51, 0
6, 52840, Note_on_c, 9, 38, 0
6, 52920, Note_on_c, 9, 51, 78
6, 52933, Note_on_c, 9, 37, 69
6, 52934, Note_on_c, 9, 44, 69
6, 52960, Note_on_c, 9, 51, 0
6, 52983, Note_on_c, 9, 44, 0
6, 52987, Note_on_c, 9, 37, 0
6, 53008, Note_on_c, 9, 51, 58
6, 53040, Note_on_c, 9, 51, 0
6, 53040, Note_on_c, 9, 51, 78
6, 53080, Note_on_c, 9, 51, 0
6, 53160, Note_on_c, 9, 38, 48
6, 53160, Note_on_c, 9, 51, 78
6, 53164, Note_on_c, 9, 37, 70
6, 53164, Note_on_c, 9, 44, 64
6, 53200, Note_on_c, 9, 51, 0
6, 53200, Note_on_c, 9, 38, 0
6, 53216, Note_on_c, 9, 44, 0
6, 53225, Note_on_c, 9, 37, 0
6, 53248, Note_on_c, 9, 51, 58
6, 53280, Note_on_c, 9, 51, 0
6, 53280, Note_on_c, 9, 51, 78
6, 53280, Note_on_c, 9, 35, 43
6, 53320, Note_on_c, 9, 35, 0
6, 53320, Note_on_c, 9, 51, 0
6, 53400, Note_on_c, 9, 51, 78
6, 53406, Note_on_c, 9, 37, 71
6, 53407, Note_on_c, 9, 44, 71
6, 53440, Note_on_c, 9, 51, 0
6, 53453, Note_on_c, 9, 44, 0
6, 53466, Note_on_c, 9, 37, 0
6, 53484, Note_on_c, 9, 51, 58
6, 53484, Note_on_c, 9, 49, 68
6, 53484, Note_on_c, 9, 35, 61
6, 53520, Note_on_c, 9, 35, 0
6, 53520, Note_on_c, 9, 49, 0
6, 53520, Note_on_c, 9, 51, 0
6, 53520, Note_on_c, 9, 51, 78
6, 53560, Note_on_c, 9, 51, 0
6, 53604, Note_on_c, 9, 38, 38
6, 53640, Note_on_c, 9, 38, 0
6, 53640, Note_on_c, 9, 51, 78
6, 53643, Note_on_c, 9, 37, 71
6, 53645, Note_on_c, 9, 44, 72
6, 53677, Note_on_c, 9, 44, 0
6, 53680, Note_on_c, 9, 51, 0
6, 53701, Note_on_c, 9, 37, 0
6, 53724, Note_on_c, 9, 38, 58
6, 53724, Note_on_c, 9, 51, 58
6, 53760, Note_on_c, 9, 51, 0
6, 53760, Note_on_c, 9, 38, 0
6, 53760, Note_on_c, 9, 51, 78
6, 53760, Note_on_c, 9, 35, 34
6, 53800, Note_on_c, 9, 35, 0
6, 53800, Note_on_c, 9, 51, 0
6, 53880, Note_on_c, 9, 38, 23
6, 53880, Note_on_c, 9, 51, 78
6, 53880, Note_on_c, 9, 35, 34
6, 53884, Note_on_c, 9, 37, 72
6, 53885, Note_on_c, 9, 44, 72
6, 53918, Note_on_c, 9, 44, 0
6, 53920, Note_on_c, 9, 38, 0
6, 53920, Note_on_c, 9, 35, 0
6, 53920, Note_on_c, 9, 51, 0
6, 53941, Note_on_c, 9, 37, 0
6, 53963, Note_on_c, 9, 51, 58
6, 54000, Note_on_c, 9, 51, 0
6, 54000, Note_on_c, 9, 51, 78
6, 54040, Note_on_c, 9, 51, 0
6, 54120, Note_on_c, 9, 38, 23
6, 54120, Note_on_c, 9, 51, 78
6, 54120, Note_on_c, 9, 35, 34
6, 54125, Note_on_c, 9, 37, 70
6, 54125, Note_on_c, 9, 44, 73
6, 54157, Note_on_c, 9, 44, 0
6, 54160, Note_on_c, 9, 38, 0
6, 54160, Note_on_c, 9, 35, 0
6, 54160, Note_on_c, 9, 51, 0
6, 54178, Note_on_c, 9, 37, 0
6, 54203, Note_on_c, 9, 51, 58
6, 54240, Note_on_c, 9, 51, 0
6, 54240, Note_on_c, 9, 38, 38
6, 54240, Note_on_c, 9, 51, 78
6, 54280, Note_on_c, 9, 51, 0
6, 54280, Note_on_c, 9, 38, 0
6, 54356, Note_on_c, 9, 37, 71
6, 54358, Note_on_c, 9, 44, 74
6, 54360, Note_on_c, 9, 51, 78
6, 54391, Note_on_c, 9, 44, 0
6, 54400, Note_on_c, 9, 51, 0
6, 54415, Note_on_c, 9, 37, 0
6, 54448, Note_on_c, 9, 51, 58
6, 54480, Note_on_c, 9, 51, 0
6, 54480, Note_on_c, 9, 51, 78
6, 54520, Note_on_c, 9, 51, 0
6, 54600, Note_on_c, 9, 38, 48
6, 54600, Note_on_c, 9, 51, 78
6, 54606, Note_on_c, 9, 37, 75
6, 54608, Note_on_c, 9, 44, 68
6, 54640, Note_on_c, 9, 51, 0
6, 54640, Note_on_c, 9, 38, 0
6, 54653, Note_on_c, 9, 44, 0
6, 54667, Note_on_c, 9, 37, 0
6, 54688, Note_on_c, 9, 51, 58
6, 54720, Note_on_c, 9, 51, 0
6, 54720, Note_on_c, 9, 51, 78
6, 54720, Note_on_c, 9, 35, 34
6, 54760, Note_on_c, 9, 35, 0
6, 54760, Note_on_c, 9, 51, 0
6, 54840, Note_on_c, 9, 38, 23
6, 54840, Note_on_c, 9, 51, 78
6, 54840, Note_on_c, 9, 35, 34
6, 54853, Note_on_c, 9, 37, 72
6, 54853, Note_on_c, 9, 44, 71
6, 54880, Note_on_c, 9, 35, 0
6, 54880, Note_on_c, 9, 38, 0
6, 54880, Note_on_c, 9, 51, 0
6, 54891, Note_on_c, 9, 44, 0
6, 54903, Note_on_c, 9, 37, 0
6, 54923, Note_on_c, 9, 51, 58
6, 54960, Note_on_c, 9, 51, 0
6, 54960, Note_on_c, 9, 51, 78
6, 55000, Note_on_c, 9, 51, 0
6, 55080, Note_on_c, 9, 38, 23
6, 55080, Note_on_c, 9, 51, 78
6, 55080, Note_on_c, 9, 35, 34
6, 55092, Note_on_c, 9, 44, 77
6, 55092, Note_on_c, 9, 37, 70
6, 55120, Note_on_c, 9, 35, 0
6, 55120, Note_on_c, 9, 38, 0
6, 55120, Note_on_c, 9, 51, 0
6, 55128, Note_on_c, 9, 44, 0
6, 55144, Note_on_c, 9, 37, 0
6, 55163, Note_on_c, 9, 51, 58
6, 55200, Note_on_c, 9, 51, 0
6, 55200, Note_on_c, 9, 51, 78
6, 55200, Note_on_c, 9, 35, 34
6, 55240, Note_on_c, 9, 35, 0
6, 55240, Note_on_c, 9, 51, 0
6, 55280, Note_on_c, 9, 38, 58
6, 55320, Note_on_c, 9, 38, 0
6, 55320, Note_on_c, 9, 51, 78
6, 55323, Note_on_c, 9, 37, 76
6, 55324, Note_on_c, 9, 44, 77
6, 55353, Note_on_c, 9, 44, 0
6, 55360, Note_on_c, 9, 51, 0
6, 55382, Note_on_c, 9, 37, 0
6, 55400, Note_on_c, 9, 38, 58
6, 55440, Note_on_c, 9, 38, 0
6, 55440, Note_on_c, 9, 38, 78
6, 55440, Note_on_c, 9, 51, 78
6, 55480, Note_on_c, 9, 51, 0
6, 55480, Note_on_c, 9, 38, 0
6, 55520, Note_on_c, 9, 38, 88
6, 55558, Note_on_c, 9, 37, 74
6, 55558, Note_on_c, 9, 44, 78
6, 55560, Note_on_c, 9, 38, 0
6, 55560, Note_on_c, 9, 51, 78
6, 55590, Note_on_c, 9, 44, 0
6, 55600, Note_on_c, 9, 51, 0
6, 55611, Note_on_c, 9, 37, 0
6, 55640, Note_on_c, 9, 38, 88
6, 55640, Note_on_c, 9, 49, 88
6, 55680, Note_on_c, 9, 49, 0
6, 55680, Note_on_c, 9, 38, 0
6, 55680, Note_on_c, 9, 38, 38
6, 55680, Note_on_c, 9, 51, 78
6, 55720, Note_on_c, 9, 51, 0
6, 55720, Note_on_c, 9, 38, 0
6, 55792, Note_on_c, 9, 37, 68
6, 55794, Note_on_c, 9, 44, 69
6, 55800, Note_on_c, 9, 51, 78
6, 55823, Note_on_c, 9, 44, 0
6, 55839, Note_on_c, 9, 37, 0
6, 55840, Note_on_c, 9, 51, 0
6, 55888, Note_on_c, 9, 51, 58
6, 55920, Note_on_c, 9, 51, 0
6, 55920, Note_on_c, 9, 51, 78
6, 55960, Note_on_c, 9, 51, 0
6, 56040, Note_on_c, 9, 38, 48
6, 56040, Note_on_c, 9, 51, 78
6, 56042, Note_on_c, 9, 37, 68
6, 56044, Note_on_c, 9, 44, 72
6, 56080, Note_on_c, 9, 44, 0
6, 56080, Note_on_c, 9, 38, 0
6, 56080, Note_on_c, 9, 51, 0
6, 56095, Note_on_c, 9, 37, 0
6, 56128, Note_on_c, 9, 51, 58
6, 56160, Note_on_c, 9, 51, 0
6, 56160, Note_on_c, 9, 51, 78
6, 56160, Note_on_c, 9, 35, 34
6, 56200, Note_on_c, 9, 35, 0
6, 56200, Note_on_c, 9, 51, 0
6, 56280, Note_on_c, 9, 38, 23
6, 56280, Note_on_c, 9, 51, 78
6, 56280, Note_on_c, 9, 37, 73
6, 56280, Note_on_c, 9, 44, 73
6, 56280, Note_on_c, 9, 35, 34
6, 56309, Note_on_c, 9, 44, 0
6, 56320, Note_on_c, 9, 51, 0
6, 56320, Note_on_c, 9, 38, 0
6, 56320, Note_on_c, 9, 35, 0
6, 56325, Note_on_c, 9, 37, 0
6, 56363, Note_on_c, 9, 51, 58
6, 56400, Note_on_c, 9, 51, 0
6, 56400, Note_on_c, 9, 51, 78
6, 56440, Note_on_c, 9, 51, 0
6, 56515, Note_on_c, 9, 44, 71
6, 56516, Note_on_c, 9, 37, 69
6, 56520, Note_on_c, 9, 38, 23
6, 56520, Note_on_c, 9, 51, 78
6, 56520, Note_on_c, 9, 35, 34
6, 56548, Note_on_c, 9, 44, 0
6, 56560, Note_on_c, 9, 51, 0
6, 56560, Note_on_c, 9, 35, 0
6, 56560, Note_on_c, 9, 38, 0
6, 56561, Note_on_c, 9, 37, 0
6, 56603, Note_on_c, 9, 51, 58
6, 56640, Note_on_c, 9, 51, 0
6, 56640, Note_on_c, 9, 51, 78
6, 56640, Note_on_c, 9, 35, 34
6, 56680, Note_on_c, 9, 35, 0
6, 56680, Note_on_c, 9, 51, 0
6, 56760, Note_on_c, 9, 38, 23
6, 56760, Note_on_c, 9, 51, 78
6, 56760, Note_on_c, 9, 35, 34
6, 56768, Note_on_c, 9, 37, 74
6, 56771, Note_on_c, 9, 44, 74
6, 56800, Note_on_c, 9, 35, 0
6, 56800, Note_on_c, 9, 38, 0
6, 56800, Note_on_c, 9, 51, 0
6, 56812, Note_on_c, 9, 44, 0
6, 56821, Note_on_c, 9, 37, 0
6, 56843, Note_on_c, 9, 51, 58
6, 56880, Note_on_c, 9, 51, 0
6, 56880, Note_on_c, 9, 51, 78
6, 56920, Note_on_c, 9, 51, 0
6, 57000, Note_on_c, 9, 38, 23
6, 57000, Note_on_c, 9, 51, 78
6, 57000, Note_on_c, 9, 35, 34
6, 57007, Note_on_c, 9, 37, 62
6, 57010, Note_on_c, 9, 44, 77
6, 57040, Note_on_c, 9, 35, 0
6, 57040, Note_on_c, 9, 38, 0
6, 57040, Note_on_c, 9, 51, 0
6, 57052, Note_on_c, 9, 44, 0
6, 57055, Note_on_c, 9, 37, 0
6, 57083, Note_on_c, 9, 51, 58
6, 57120, Note_on_c, 9, 51, 0
6, 57120, Note_on_c, 9, 51, 78
6, 57120, Note_on_c, 9, 35, 34
6, 57160, Note_on_c, 9, 35, 0
6, 57160, Note_on_c, 9, 51, 0
6, 57240, Note_on_c, 9, 38, 23
6, 57240, Note_on_c, 9, 51, 78
6, 57240, Note_on_c, 9, 35, 34
6, 57247, Note_on_c, 9, 37, 72
6, 57247, Note_on_c, 9, 44, 74
6, 57279, Note_on_c, 9, 44, 0
6, 57280, Note_on_c, 9, 38, 0
6, 57280, Note_on_c, 9, 35, 0
6, 57280, Note_on_c, 9, 51, 0
6, 57299, Note_on_c, 9, 37, 0
6, 57323, Note_on_c, 9, 51, 58
6, 57360, Note_on_c, 9, 51, 0
6, 57360, Note_on_c, 9, 51, 78
6, 57400, Note_on_c, 9, 51, 0
6, 57479, Note_on_c, 9, 37, 72
6, 57480, Note_on_c, 9, 38, 23
6, 57480, Note_on_c, 9, 51, 78
6, 57480, Note_on_c, 9, 44, 71
6, 57480, Note_on_c, 9, 35, 34
6, 57520, Note_on_c, 9, 35, 0
6, 57520, Note_on_c, 9, 51, 0
6, 57520, Note_on_c, 9, 38, 0
6, 57521, Note_on_c, 9, 44, 0
6, 57536, Note_on_c, 9, 37, 0
6, 57563, Note_on_c, 9, 51, 58
6, 57600, Note_on_c, 9, 51, 0
6, 57600, Note_on_c, 9, 51, 78
6, 57600, Note_on_c, 9, 35, 34
6, 57640, Note_on_c, 9, 35, 0
6, 57640, Note_on_c, 9, 51, 0
6, 57718, Note_on_c, 9, 37, 72
6, 57718, Note_on_c, 9, 44, 69
6, 57720, Note_on_c, 9, 38, 23
6, 57720, Note_on_c, 9, 51, 78
6, 57720, Note_on_c, 9, 35, 34
6, 57760, Note_on_c, 9, 35, 0
6, 57760, Note_on_c, 9, 38, 0
6, 57760, Note_on_c, 9, 51, 0
6, 57762, Note_on_c, 9, 44, 0
6, 57778, Note_on_c, 9, 37, 0
6, 57803, Note_on_c, 9, 51, 58
6, 57840, Note_on_c, 9, 51, 0
6, 57840, Note_on_c, 9, 51, 78
6, 57880, Note_on_c, 9, 51, 0
6, 57960, Note_on_c, 9, 38, 23
6, 57960, Note_on_c, 9, 51, 78
6, 57960, Note_on_c, 9, 35, 34
6, 57963, Note_on_c, 9, 37, 71
6, 57963, Note_on_c, 9, 44, 68
6, 58000, Note_on_c, 9, 44, 0
6, 58000, Note_on_c, 9, 38, 0
6, 58000, Note_on_c, 9, 35, 0
6, 58000, Note_on_c, 9, 51, 0
6, 58013, Note_on_c, 9, 37, 0
6, 58043, Note_on_c, 9, 51, 58
6, 58080, Note_on_c, 9, 51, 0
6, 58080, Note_on_c, 9, 51, 78
6, 58080, Note_on_c, 9, 35, 34
6, 58120, Note_on_c, 9, 35, 0
6, 58120, Note_on_c, 9, 51, 0
6, 58200, Note_on_c, 9, 38, 23
6, 58200, Note_on_c, 9, 51, 78
6, 58200, Note_on_c, 9, 35, 34
6, 58204, Note_on_c, 9, 37, 73
6, 58206, Note_on_c, 9, 44, 74
6, 58240, Note_on_c, 9, 44, 0
6, 58240, Note_on_c, 9, 38, 0
6, 58240, Note_on_c, 9, 35, 0
6, 58240, Note_on_c, 9, 51, 0
6, 58256, Note_on_c, 9, 37, 0
6, 58283, Note_on_c, 9, 51, 58
6, 58320, Note_on_c, 9, 51, 0
6, 58320, Note_on_c, 9, 51, 78
6, 58360, Note_on_c, 9, 51, 0
6, 58437, Note_on_c, 9, 44, 73
6, 58437, Note_on_c, 9, 37, 69
6, 58440, Note_on_c, 9, 38, 23
6, 58440, Note_on_c, 9, 51, 78
6, 58440, Note_on_c, 9, 35, 34
6, 58468, Note_on_c, 9, 44, 0
6, 58480, Note_on_c, 9, 51, 0
6, 58480, Note_on_c, 9, 35, 0
6, 58480, Note_on_c, 9, 38, 0
6, 58487, Note_on_c, 9, 37, 0
6, 58523, Note_on_c, 9, 51, 58
6, 58560, Note_on_c, 9, 51, 0
6, 58560, Note_on_c, 9, 38, 38
6, 58560, Note_on_c, 9, 51, 78
6, 58600, Note_on_c, 9, 51, 0
6, 58600, Note_on_c, 9, 38, 0
6, 58672, Note_on_c, 9, 37, 72
6, 58673, Note_on_c, 9, 44, 75
6, 58680, Note_on_c, 9, 51, 78
6, 58701, Note_on_c, 9, 44, 0
6, 58712, Note_on_c, 9, 37, 0
6, 58720, Note_on_c, 9, 51, 0
6, 58768, Note_on_c, 9, 51, 58
6, 58800, Note_on_c, 9, 51, 0
6, 58800, Note_on_c, 9, 51, 78
6, 58840, Note_on_c, 9, 51, 0
6, 58920, Note_on_c, 9, 38, 48
6, 58920, Note_on_c, 9, 51, 78
6, 58926, Note_on_c, 9, 37, 67
6, 58926, Note_on_c, 9, 44, 76
6, 58960, Note_on_c, 9, 51, 0
6, 58960, Note_on_c, 9, 38, 0
6, 58962, Note_on_c, 9, 44, 0
6, 58967, Note_on_c, 9, 37, 0
6, 59008, Note_on_c, 9, 51, 58
6, 59040, Note_on_c, 9, 51, 0
6, 59040, Note_on_c, 9, 51, 78
6, 59040, Note_on_c, 9, 35, 34
6, 59080, Note_on_c, 9, 35, 0
6, 59080, Note_on_c, 9, 51, 0
6, 59156, Note_on_c, 9, 37, 71
6, 59157, Note_on_c, 9, 44, 76
6, 59160, Note_on_c, 9, 38, 23
6, 59160, Note_on_c, 9, 51, 78
6, 59160, Note_on_c, 9, 35, 34
6, 59185, Note_on_c, 9, 44, 0
6, 59196, Note_on_c, 9, 37, 0
6, 59200, Note_on_c, 9, 51, 0
6, 59200, Note_on_c, 9, 38, 0
6, 59200, Note_on_c, 9, 35, 0
6, 59243, Note_on_c, 9, 51, 58
6, 59280, Note_on_c, 9, 51, 0
6, 59280, Note_on_c, 9, 51, 78
6, 59320, Note_on_c, 9, 51, 0
6, 59400, Note_on_c, 9, 38, 23
6, 59400, Note_on_c, 9, 51, 78
6, 59400, Note_on_c, 9, 35, 34
6, 59409, Note_on_c, 9, 37, 75
6, 59410, Note_on_c, 9, 44, 75
6, 59438, Note_on_c, 9, 44, 0
6, 59440, Note_on_c, 9, 38, 0
6, 59440, Note_on_c, 9, 35, 0
6, 59440, Note_on_c, 9, 51, 0
6, 59455, Note_on_c, 9, 37, 0
6, 59483, Note_on_c, 9, 51, 58
6, 59520, Note_on_c, 9, 51, 0
6, 59520, Note_on_c, 9, 51, 78
6, 59520, Note_on_c, 9, 35, 34
6, 59560, Note_on_c, 9, 35, 0
6, 59560, Note_on_c, 9, 51, 0
6, 59640, Note_on_c, 9, 38, 23
6, 59640, Note_on_c, 9, 51, 78
6, 59640, Note_on_c, 9, 35, 34
6, 59647, Note_on_c, 9, 37, 71
6, 59648, Note_on_c, 9, 44, 74
6, 59677, Note_on_c, 9, 44, 0
6, 59680, Note_on_c, 9, 38, 0
6, 59680, Note_on_c, 9, 35, 0
6, 59680, Note_on_c, 9, 51, 0
6, 59696, Note_on_c, 9, 37, 0
6, 59723, Note_on_c, 9, 51, 58
6, 59760, Note_on_c, 9, 51, 0
6, 59760, Note_on_c, 9, 51, 78
6, 59800, Note_on_c, 9, 51, 0
6, 59880, Note_on_c, 9, 38, 23
6, 59880, Note_on_c, 9, 51, 78
6, 59880, Note_on_c, 9, 35, 34
6, 59884, Note_on_c, 9, 44, 75
6, 59885, Note_on_c, 9, 37, 67
6, 59914, Note_on_c, 9, 44, 0
6, 59920, Note_on_c, 9, 35, 0
6, 59920, Note_on_c, 9, 38, 0
6, 59920, Note_on_c, 9, 51, 0
6, 59930, Note_on_c, 9, 37, 0
6, 59963, Note_on_c, 9, 51, 58
6, 60000, Note_on_c, 9, 51, 0
6, 60000, Note_on_c, 9, 38, 38
6, 60000, Note_on_c, 9, 51, 78
6, 60040, Note_on_c, 9, 51, 0
6, 60040, Note_on_c, 9, 38, 0
6, 60120, Note_on_c, 9, 51, 78
6, 60120, Note_on_c, 9, 44, 74
6, 60120, Note_on_c, 9, 37, 69
6, 60152, Note_on_c, 9, 44, 0
6, 60160, Note_on_c, 9, 51, 0
6, 60161, Note_on_c, 9, 37, 0
6, 60208, Note_on_c, 9, 51, 58
6, 60240, Note_on_c, 9, 51, 0
6, 60240, Note_on_c, 9, 51, 78
6, 60280, Note_on_c, 9, 51, 0
6, 60359, Note_on_c, 9, 44, 76
6, 60360, Note_on_c, 9, 38, 48
6, 60360, Note_on_c, 9, 51, 78
6, 60362, Note_on_c, 9, 37, 64
6, 60400, Note_on_c, 9, 51, 0
6, 60400, Note_on_c, 9, 38, 0
6, 60401, Note_on_c, 9, 44, 0
6, 60413, Note_on_c, 9, 37, 0
6, 60448, Note_on_c, 9, 51, 58
6, 60480, Note_on_c, 9, 51, 0
6, 60480, Note_on_c, 9, 51, 78
6, 60480, Note_on_c, 9, 35, 34
6, 60520, Note_on_c, 9, 35, 0
6, 60520, Note_on_c, 9, 51, 0
6, 60599, Note_on_c, 9, 44, 71
6, 60599, Note_on_c, 9, 37, 67
6, 60600, Note_on_c, 9, 38, 23
6, 60600, Note_on_c, 9, 51, 78
6, 60600, Note_on_c, 9, 35, 34
6, 60632, Note_on_c, 9, 44, 0
6, 60640, Note_on_c, 9, 51, 0
6, 60640, Note_on_c, 9, 35, 0
6, 60640, Note_on_c, 9, 38, 0
6, 60665, Note_on_c, 9, 37, 0
6, 60683, Note_on_c, 9, 51, 58
6, 60720, Note_on_c, 9, 51, 0
6, 60720, Note_on_c, 9, 51, 78
6, 60760, Note_on_c, 9, 51, 0
6, 60840, Note_on_c, 9, 38, 23
6, 60840, Note_on_c, 9, 51, 78
6, 60840, Note_on_c, 9, 37, 71
6, 60840, Note_on_c, 9, 35, 34
6, 60841, Note_on_c, 9, 44, 71
6, 60870, Note_on_c, 9, 44, 0
6, 60880, Note_on_c, 9, 51, 0
6, 60880, Note_on_c, 9, 38, 0
6, 60880, Note_on_c, 9, 35, 0
6, 60886, Note_on_c, 9, 37, 0
6, 60923, Note_on_c, 9, 51, 58
6, 60960, Note_on_c, 9, 51, 0
6, 60960, Note_on_c, 9, 51, 78
6, 60960, Note_on_c, 9, 35, 34
6, 61000, Note_on_c, 9, 35, 0
6, 61000, Note_on_c, 9, 51, 0
6, 61080, Note_on_c, 9, 38, 23
6, 61080, Note_on_c, 9, 51, 78
6, 61080, Note_on_c, 9, 35, 34
6, 61084, Note_on_c, 9, 44, 74
6, 61084, Note_on_c, 9, 37, 69
6, 61116, Note_on_c, 9, 44, 0
6, 61120, Note_on_c, 9, 35, 0
6, 61120, Note_on_c, 9, 38, 0
6, 61120, Note_on_c, 9, 51, 0
6, 61124, Note_on_c, 9, 37, 0
6, 61163, Note_on_c, 9, 51, 58
6, 61200, Note_on_c, 9, 51, 0
6, 61200, Note_on_c, 9, 51, 78
6, 61240, Note_on_c, 9, 51, 0
6, 61320, Note_on_c, 9, 38, 23
6, 61320, Note_on_c, 9, 51, 78
6, 61320, Note_on_c, 9, 35, 34
6, 61329, Note_on_c, 9, 46, 71
6, 61360, Note_on_c, 9, 35, 0
6, 61360, Note_on_c, 9, 38, 0
6, 61360, Note_on_c, 9, 51, 0
6, 61371, Note_on_c, 9, 46, 0
6, 61403, Note_on_c, 9, 51, 58
6, 61440, Note_on_c, 9, 51, 0
6, 61440, Note_on_c, 9, 51, 78
6, 61440, Note_on_c, 9, 35, 34
6, 61480, Note_on_c, 9, 35, 0
6, 61480, Note_on_c, 9, 51, 0
6, 61559, Note_on_c, 9, 44, 73
6, 61560, Note_on_c, 9, 38, 23
6, 61560, Note_on_c, 9, 51, 78
6, 61560, Note_on_c, 9, 35, 34
6, 61600, Note_on_c, 9, 35, 0
6, 61600, Note_on_c, 9, 51, 0
6, 61600, Note_on_c, 9, 38, 0
6, 61603, Note_on_c, 9, 44, 0
6, 61643, Note_on_c, 9, 51, 58
6, 61680, Note_on_c, 9, 51, 0
6, 61680, Note_on_c, 9, 51, 78
6, 61720, Note_on_c, 9, 51, 0
6, 61800, Note_on_c, 9, 38, 23
6, 61800, Note_on_c, 9, 51, 78
6, 61800, Note_on_c, 9, 35, 34
6, 61807, Note_on_c, 9, 37, 71
6, 61810, Note_on_c, 9, 44, 62
6, 61840, Note_on_c, 9, 44, 0
6, 61840, Note_on_c, 9, 38, 0
6, 61840, Note_on_c, 9, 35, 0
6, 61840, Note_on_c, 9, 51, 0
6, 61859, Note_on_c, 9, 37, 0
6, 61883, Note_on_c, 9, 51, 58
6, 61920, Note_on_c, 9, 51, 0
6, 61920, Note_on_c, 9, 38, 38
6, 61920, Note_on_c, 9, 51, 78
6, 61960, Note_on_c, 9, 51, 0
6, 61960, Note_on_c, 9, 38, 0
6, 62040, Note_on_c, 9, 51, 78
6, 62049, Note_on_c, 9, 44, 67
6, 62051, Note_on_c, 9, 37, 62
6, 62080, Note_on_c, 9, 51, 0
6, 62086, Note_on_c, 9, 44, 0
6, 62099, Note_on_c, 9, 37, 0
6, 62128, Note_on_c, 9, 51, 58
6, 62160, Note_on_c, 9, 51, 0
6, 62160, Note_on_c, 9, 51, 78
6, 62200, Note_on_c, 9, 51, 0
6, 62280, Note_on_c, 9, 38, 48
6, 62280, Note_on_c, 9, 51, 78
6, 62284, Note_on_c, 9, 44, 71
6, 62284, Note_on_c, 9, 37, 70
6, 62319, Note_on_c, 9, 44, 0
6, 62320, Note_on_c, 9, 38, 0
6, 62320, Note_on_c, 9, 51, 0
6, 62335, Note_on_c, 9, 37, 0
6, 62368, Note_on_c, 9, 51, 58
6, 62400, Note_on_c, 9, 51, 0
6, 62400, Note_on_c, 9, 51, 78
6, 62400, Note_on_c, 9, 35, 34
6, 62440, Note_on_c, 9, 35, 0
6, 62440, Note_on_c, 9, 51, 0
6, 62520, Note_on_c, 9, 38, 23
6, 62520, Note_on_c, 9, 51, 78
6, 62520, Note_on_c, 9, 35, 34
6, 62532, Note_on_c, 9, 44, 74
6, 62534, Note_on_c, 9, 37, 69
6, 62560, Note_on_c, 9, 35, 0
6, 62560, Note_on_c, 9, 38, 0
6, 62560, Note_on_c, 9, 51, 0
6, 62573, Note_on_c, 9, 44, 0
6, 62585, Note_on_c, 9, 37, 0
6, 62603, Note_on_c, 9, 51, 58
6, 62640, Note_on_c, 9, 51, 0
6, 62640, Note_on_c, 9, 51, 78
6, 62680, Note_on_c, 9, 51, 0
6, 62760, Note_on_c, 9, 38, 23
6, 62760, Note_on_c, 9, 51, 78
6, 62760, Note_on_c, 9, 35, 34
6, 62766, Note_on_c, 9, 37, 71
6, 62766, Note_on_c, 9, 44, 70
6, 62800, Note_on_c, 9, 44, 0
6, 62800, Note_on_c, 9, 38, 0
6, 62800, Note_on_c, 9, 35, 0
6, 62800, Note_on_c, 9, 51, 0
6, 62810, Note_on_c, 9, 37, 0
6, 62843, Note_on_c, 9, 51, 58
6, 62880, Note_on_c, 9, 51, 0
6, 62880, Note_on_c, 9, 51, 78
6, 62880, Note_on_c, 9, 35, 34
6, 62920, Note_on_c, 9, 35, 0
6, 62920, Note_on_c, 9, 51, 0
6, 62960, Note_on_c, 9, 38, 58
6, 63000, Note_on_c, 9, 38, 0
6, 63000, Note_on_c, 9, 51, 78
6, 63003, Note_on_c, 9, 44, 77
6, 63004, Note_on_c, 9, 37, 74
6, 63037, Note_on_c, 9, 44, 0
6, 63040, Note_on_c, 9, 51, 0
6, 63045, Note_on_c, 9, 37, 0
6, 63080, Note_on_c, 9, 38, 58
6, 63120, Note_on_c, 9, 38, 0
6, 63120, Note_on_c, 9, 38, 78
6, 63120, Note_on_c, 9, 51, 78
6, 63160, Note_on_c, 9, 51, 0
6, 63160, Note_on_c, 9, 38, 0
6, 63200, Note_on_c, 9, 38, 88
6, 63240, Note_on_c, 9, 38, 0
6, 63240, Note_on_c, 9, 51, 78
6, 63240, Note_on_c, 9, 44, 78
6, 63280, Note_on_c, 9, 51, 0
6, 63317, Note_on_c, 9, 44, 0
6, 63320, Note_on_c, 9, 38, 88
6, 63320, Note_on_c, 9, 49, 88
6, 63360, Note_on_c, 9, 49, 0
6, 63360, Note_on_c, 9, 38, 0
6, 63360, Note_on_c, 9, 38, 38
6, 63360, Note_on_c, 9, 51, 78
6, 63400, Note_on_c, 9, 51, 0
6, 63400, Note_on_c, 9, 38, 0
6, 63480, Note_on_c, 9, 51, 78
6, 63483, Note_on_c, 9, 44, 74
6, 63520, Note_on_c, 9, 51, 0
6, 63561, Note_on_c, 9, 44, 0
6, 63568, Note_on_c, 9, 51, 58
6, 63600, Note_on_c, 9, 51, 0
6, 63600, Note_on_c, 9, 51, 78
6, 63640, Note_on_c, 9, 51, 0
6, 63718, Note_on_c, 9, 44, 72
6, 63720, Note_on_c, 9, 38, 48
6, 63720, Note_on_c, 9, 51, 78
6, 63760, Note_on_c, 9, 51, 0
6, 63760, Note_on_c, 9, 38, 0
6, 63784, Note_on_c, 9, 44, 0
6, 63808, Note_on_c, 9, 51, 58
6, 63840, Note_on_c, 9, 51, 0
6, 63840, Note_on_c, 9, 38, 58
6, 63840, Note_on_c, 9, 51, 68
6, 63880, Note_on_c, 9, 51, 0
6, 63880, Note_on_c, 9, 38, 0
6, 63924, Note_on_c, 9, 51, 48
6, 63924, Note_on_c, 9, 35, 43
6, 63960, Note_on_c, 9, 35, 0
6, 63960, Note_on_c, 9, 51, 0
6, 63960, Note_on_c, 9, 51, 78
6, 63960, Note_on_c, 9, 35, 52
6, 63965, Note_on_c, 9, 44, 71
6, 64000, Note_on_c, 9, 35, 0
6, 64000, Note_on_c, 9, 51, 0
6, 64018, Note_on_c, 9, 44, 0
6, 64044, Note_on_c, 9, 38, 68
6, 64080, Note_on_c, 9, 38, 0
6, 64080, Note_on_c, 9, 51, 78
6, 64120, Note_on_c, 9, 51, 0
6, 64164, Note_on_c, 9, 38, 78
6, 64200, Note_on_c, 9, 38, 0
6, 64200, Note_on_c, 9, 51, 78
6, 64208, Note_on_c, 9, 44, 69
6, 64240, Note_on_c, 9, 51, 0
6, 64253, Note_on_c, 9, 44, 0
6, 64284, Note_on_c, 9, 51, 58
6, 64289, Note_on_c, 9, 56, 75
6, 64311, Note_on_c, 9, 56, 0
6, 64320, Note_on_c, 9, 51, 0
6, 64320, Note_on_c, 9, 38, 38
6, 64320, Note_on_c, 9, 51, 78
6, 64360, Note_on_c, 9, 51, 0
6, 64360, Note_on_c, 9, 38, 0
6, 64440, Note_on_c, 9, 51, 78
6, 64480, Note_on_c, 9, 51, 0
6, 64528, Note_on_c, 9, 51, 58
6, 64560, Note_on_c, 9, 51, 0
6, 64560, Note_on_c, 9, 51, 78
6, 64600, Note_on_c, 9, 51, 0
6, 64680, Note_on_c, 9, 38, 48
6, 64680, Note_on_c, 9, 51, 78
6, 64683, Note_on_c, 9, 44, 72
6, 64720, Note_on_c, 9, 51, 0
6, 64720, Note_on_c, 9, 38, 0
6, 64733, Note_on_c, 9, 44, 0
6, 64768, Note_on_c, 9, 51, 58
6, 64800, Note_on_c, 9, 51, 0
6, 64800, Note_on_c, 9, 51, 78
6, 64800, Note_on_c, 9, 35, 34
6, 64840, Note_on_c, 9, 35, 0
6, 64840, Note_on_c, 9, 51, 0
6, 64920, Note_on_c, 9, 38, 23
6, 64920, Note_on_c, 9, 51, 78
6, 64920, Note_on_c, 9, 35, 34
6, 64930, Note_on_c, 9, 44, 71
6, 64960, Note_on_c, 9, 35, 0
6, 64960, Note_on_c, 9, 38, 0
6, 64960, Note_on_c, 9, 51, 0
6, 64979, Note_on_c, 9, 44, 0
6, 65003, Note_on_c, 9, 51, 58
6, 65040, Note_on_c, 9, 51, 0
6, 65040, Note_on_c, 9, 51, 78
6, 65080, Note_on_c, 9, 51, 0
6, 65160, Note_on_c, 9, 38, 23
6, 65160, Note_on_c, 9, 51, 78
6, 65160, Note_on_c, 9, 35, 34
6, 65165, Note_on_c, 9, 44, 69
6, 65200, Note_on_c, 9, 35, 0
6, 65200, Note_on_c, 9, 38, 0
6, 65200, Note_on_c, 9, 51, 0
6, 65217, Note_on_c, 9, 44, 0
6, 65243, Note_on_c, 9, 51, 58
6, 65280, Note_on_c, 9, 51, 0
6, 65280, Note_on_c, 9, 51, 78
6, 65280, Note_on_c, 9, 35, 34
6, 65320, Note_on_c, 9, 35, 0
6, 65320, Note_on_c, 9, 51, 0
6, 65400, Note_on_c, 9, 38, 23
6, 65400, Note_on_c, 9, 51, 78
6, 65400, Note_on_c, 9, 35, 34
6, 65410, Note_on_c, 9, 44, 72
6, 65440, Note_on_c, 9, 35, 0
6, 65440, Note_on_c, 9, 38, 0
6, 65440, Note_on_c, 9, 51, 0
6, 65460, Note_on_c, 9, 44, 0
6, 65483, Note_on_c, 9, 51, 58
6, 65520, Note_on_c, 9, 51, 0
6, 65520, Note_on_c, 9, 51, 78
6, 65560, Note_on_c, 9, 51, 0
6, 65640, Note_on_c, 9, 38, 23
6, 65640, Note_on_c, 9, 51, 78
6, 65640, Note_on_c, 9, 35, 34
6, 65642, Note_on_c, 9, 44, 72
6, 65680, Note_on_c, 9, 35, 0
6, 65680, Note_on_c, 9, 38, 0
6, 65680, Note_on_c, 9, 51, 0
6, 65691, Note_on_c, 9, 44, 0
6, 65723, Note_on_c, 9, 51, 58
6, 65760, Note_on_c, 9, 51, 0
6, 65760, Note_on_c, 9, 38, 38
6, 65760, Note_on_c, 9, 51, 78
6, 65800, Note_on_c, 9, 51, 0
6, 65800, Note_on_c, 9, 38, 0
6, 65880, Note_on_c, 9, 51, 78
6, 65886, Note_on_c, 9, 44, 71
6, 65920, Note_on_c, 9, 51, 0
6, 65931, Note_on_c, 9, 44, 0
6, 65968, Note_on_c, 9, 51, 58
6, 66000, Note_on_c, 9, 51, 0
6, 66000, Note_on_c, 9, 51, 78
6, 66040, Note_on_c, 9, 51, 0
6, 66120, Note_on_c, 9, 38, 48
6, 66120, Note_on_c, 9, 51, 78
6, 66120, Note_on_c, 9, 44, 64
6, 66159, Note_on_c, 9, 44, 0
6, 66160, Note_on_c, 9, 51, 0
6, 66160, Note_on_c, 9, 38, 0
6, 66208, Note_on_c, 9, 51, 58
6, 66212, Note_on_c, 9, 57, 73
6, 66225, Note_on_c, 9, 57, 0
6, 66240, Note_on_c, 9, 51, 0
6, 66240, Note_on_c, 9, 51, 78
6, 66240, Note_on_c, 9, 35, 34
6, 66280, Note_on_c, 9, 35, 0
6, 66280, Note_on_c, 9, 51, 0
6, 66360, Note_on_c, 9, 38, 23
6, 66360, Note_on_c, 9, 51, 78
6, 66360, Note_on_c, 9, 35, 34
6, 66365, Note_on_c, 9, 44, 53
6, 66380, Note_on_c, 9, 44, 0
6, 66400, Note_on_c, 9, 38, 0
6, 66400, Note_on_c, 9, 51, 0
6, 66400, Note_on_c, 9, 35, 0
6, 66443, Note_on_c, 9, 51, 58
6, 66480, Note_on_c, 9, 51, 0
6, 66480, Note_on_c, 9, 51, 78
6, 66520, Note_on_c, 9, 51, 0
6, 66600, Note_on_c, 9, 38, 23
6, 66600, Note_on_c, 9, 51, 78
6, 66600, Note_on_c, 9, 35, 34
6, 66603, Note_on_c, 9, 44, 53
6, 66639, Note_on_c, 9, 44, 0
6, 66640, Note_on_c, 9, 38, 0
6, 66640, Note_on_c, 9, 51, 0
6, 66640, Note_on_c, 9, 35, 0
6, 66683, Note_on_c, 9, 51, 58
6, 66720, Note_on_c, 9, 51, 0
6, 66720, Note_on_c, 9, 51, 78
6, 66720, Note_on_c, 9, 35, 34
6, 66760, Note_on_c, 9, 35, 0
6, 66760, Note_on_c, 9, 51, 0
6, 66840, Note_on_c, 9, 38, 23
6, 66840, Note_on_c, 9, 51, 78
6, 66840, Note_on_c, 9, 35, 34
6, 66843, Note_on_c, 9, 44, 64
6, 66880, Note_on_c, 9, 35, 0
6, 66880, Note_on_c, 9, 38, 0
6, 66880, Note_on_c, 9, 51, 0
6, 66882, Note_on_c, 9, 44, 0
6, 66923, Note_on_c, 9, 51, 58
6, 66960, Note_on_c, 9, 51, 0
6, 66960, Note_on_c, 9, 51, 78
6, 67000, Note_on_c, 9, 51, 0
6, 67080, Note_on_c, 9, 38, 23
6, 67080, Note_on_c, 9, 51, 78
6, 67080, Note_on_c, 9, 44, 71
6, 67080, Note_on_c, 9, 35, 34
6, 67117, Note_on_c, 9, 44, 0
6, 67120, Note_on_c, 9, 38, 0
6, 67120, Note_on_c, 9, 51, 0
6, 67120, Note_on_c, 9, 35, 0
6, 67163, Note_on_c, 9, 51, 58
6, 67200, Note_on_c, 9, 51, 0
6, 67200, Note_on_c, 9, 51, 78
6, 67200, Note_on_c, 9, 35, 34
6, 67240, Note_on_c, 9, 35, 0
6, 67240, Note_on_c, 9, 51, 0
6, 67320, Note_on_c, 9, 38, 23
6, 67320, Note_on_c, 9, 51, 78
6, 67320, Note_on_c, 9, 44, 68
6, 67320, Note_on_c, 9, 35, 34
6, 67355, Note_on_c, 9, 44, 0
6, 67360, Note_on_c, 9, 38, 0
6, 67360, Note_on_c, 9, 51, 0
6, 67360, Note_on_c, 9, 35, 0
6, 67403, Note_on_c, 9, 51, 58
6, 67440, Note_on_c, 9, 51, 0
6, 67440, Note_on_c, 9, 51, 78
6, 67480, Note_on_c, 9, 51, 0
6, 67560, Note_on_c, 9, 38, 23
6, 67560, Note_on_c, 9, 51, 78
6, 67560, Note_on_c, 9, 44, 74
6, 67560, Note_on_c, 9, 35, 34
6, 67597, Note_on_c, 9, 44, 0
6, 67600, Note_on_c, 9, 38, 0
6, 67600, Note_on_c, 9, 51, 0
6, 67600, Note_on_c, 9, 35, 0
6, 67643, Note_on_c, 9, 51, 58
6, 67680, Note_on_c, 9, 51, 0
6, 67680, Note_on_c, 9, 51, 78
6, 67680, Note_on_c, 9, 35, 34
6, 67720, Note_on_c, 9, 35, 0
6, 67720, Note_on_c, 9, 51, 0
6, 67800, Note_on_c, 9, 38, 23
6, 67800, Note_on_c, 9, 51, 78
6, 67800, Note_on_c, 9, 35, 34
6, 67801, Note_on_c, 9, 44, 78
6, 67840, Note_on_c, 9, 35, 0
6, 67840, Note_on_c, 9, 38, 0
6, 67840, Note_on_c, 9, 51, 0
6, 67865, Note_on_c, 9, 44, 0
6, 67883, Note_on_c, 9, 51, 58
6, 67920, Note_on_c, 9, 51, 0
6, 67920, Note_on_c, 9, 51, 78
6, 67960, Note_on_c, 9, 51, 0
6, 68036, Note_on_c, 9, 44, 78
6, 68040, Note_on_c, 9, 38, 23
6, 68040, Note_on_c, 9, 51, 78
6, 68040, Note_on_c, 9, 35, 34
6, 68080, Note_on_c, 9, 35, 0
6, 68080, Note_on_c, 9, 51, 0
6, 68080, Note_on_c, 9, 38, 0
6, 68094, Note_on_c, 9, 44, 0
6, 68123, Note_on_c, 9, 51, 58
6, 68160, Note_on_c, 9, 51, 0
6, 68160, Note_on_c, 9, 51, 78
6, 68160, Note_on_c, 9, 35, 34
6, 68200, Note_on_c, 9, 35, 0
6, 68200, Note_on_c, 9, 51, 0
6, 68274, Note_on_c, 9, 44, 75
6, 68280, Note_on_c, 9, 38, 23
6, 68280, Note_on_c, 9, 51, 78
6, 68280, Note_on_c, 9, 35, 34
6, 68320, Note_on_c, 9, 35, 0
6, 68320, Note_on_c, 9, 51, 0
6, 68320, Note_on_c, 9, 38, 0
6, 68336, Note_on_c, 9, 44, 0
6, 68363, Note_on_c, 9, 51, 58
6, 68400, Note_on_c, 9, 51, 0
6, 68400, Note_on_c, 9, 51, 78
6, 68440, Note_on_c, 9, 51, 0
6, 68520, Note_on_c, 9, 38, 23
6, 68520, Note_on_c, 9, 51, 78
6, 68520, Note_on_c, 9, 35, 34
6, 68522, Note_on_c, 9, 44, 78
6, 68560, Note_on_c, 9, 35, 0
6, 68560, Note_on_c, 9, 38, 0
6, 68560, Note_on_c, 9, 51, 0
6, 68597, Note_on_c, 9, 44, 0
6, 68603, Note_on_c, 9, 51, 58
6, 68640, Note_on_c, 9, 51, 0
6, 68640, Note_on_c, 9, 51, 78
6, 68640, Note_on_c, 9, 35, 34
6, 68680, Note_on_c, 9, 35, 0
6, 68680, Note_on_c, 9, 51, 0
6, 68754, Note_on_c, 9, 44, 80
6, 68760, Note_on_c, 9, 38, 23
6, 68760, Note_on_c, 9, 51, 78
6, 68760, Note_on_c, 9, 35, 34
6, 68800, Note_on_c, 9, 35, 0
6, 68800, Note_on_c, 9, 51, 0
6, 68800, Note_on_c, 9, 38, 0
6, 68830, Note_on_c, 9, 44, 0
6, 68843, Note_on_c, 9, 51, 58
6, 68880, Note_on_c, 9, 51, 0
6, 68880, Note_on_c, 9, 51, 78
6, 68920, Note_on_c, 9, 51, 0
6, 68999, Note_on_c, 9, 44, 81
6, 69000, Note_on_c, 9, 38, 23
6, 69000, Note_on_c, 9, 51, 78
6, 69000, Note_on_c, 9, 35, 34
6, 69040, Note_on_c, 9, 35, 0
6, 69040, Note_on_c, 9, 51, 0
6, 69040, Note_on_c, 9, 38, 0
6, 69077, Note_on_c, 9, 44, 0
6, 69083, Note_on_c, 9, 51, 58
6, 69120, Note_on_c, 9, 51, 0
6, 69120, Note_on_c, 9, 38, 58
6, 69120, Note_on_c, 9, 51, 68
6, 69160, Note_on_c, 9, 51, 0
6, 69160, Note_on_c, 9, 38, 0
6, 69204, Note_on_c, 9, 51, 48
6, 69204, Note_on_c, 9, 35, 43
6, 69240, Note_on_c, 9, 35, 0
6, 69240, Note_on_c, 9, 51, 0
6, 69240, Note_on_c, 9, 51, 78
6, 69240, Note_on_c, 9, 35, 52
6, 69241, Note_on_c, 9, 44, 80
6, 69280, Note_on_c, 9, 35, 0
6, 69280, Note_on_c, 9, 51, 0
6, 69309, Note_on_c, 9, 44, 0
6, 69324, Note_on_c, 9, 38, 68
6, 69360, Note_on_c, 9, 38, 0
6, 69360, Note_on_c, 9, 51, 78
6, 69400, Note_on_c, 9, 51, 0
6, 69444, Note_on_c, 9, 38, 78
6, 69479, Note_on_c, 9, 44, 80
6, 69480, Note_on_c, 9, 38, 0
6, 69480, Note_on_c, 9, 51, 78
6, 69520, Note_on_c, 9, 51, 0
6, 69527, Note_on_c, 9, 44, 0
6, 69564, Note_on_c, 9, 51, 58
6, 69600, Note_on_c, 9, 51, 0
6, 69600, Note_on_c, 9, 51, 78
6, 69600, Note_on_c, 9, 35, 34
6, 69640, Note_on_c, 9, 35, 0
6, 69640, Note_on_c, 9, 51, 0
6, 69720, Note_on_c, 9, 38, 23
6, 69720, Note_on_c, 9, 51, 78
6, 69720, Note_on_c, 9, 35, 34
6, 69726, Note_on_c, 9, 44, 81
6, 69760, Note_on_c, 9, 35, 0
6, 69760, Note_on_c, 9, 38, 0
6, 69760, Note_on_c, 9, 51, 0
6, 69798, Note_on_c, 9, 44, 0
6, 69803, Note_on_c, 9, 51, 58
6, 69840, Note_on_c, 9, 51, 0
6, 69840, Note_on_c, 9, 51, 78
6, 69880, Note_on_c, 9, 51, 0
6, 69960, Note_on_c, 9, 38, 23
6, 69960, Note_on_c, 9, 51, 78
6, 69960, Note_on_c, 9, 44, 82
6, 69960, Note_on_c, 9, 35, 34
6, 70000, Note_on_c, 9, 35, 0
6, 70000, Note_on_c, 9, 38, 0
6, 70000, Note_on_c, 9, 51, 0
6, 70039, Note_on_c, 9, 44, 0
6, 70043, Note_on_c, 9, 51, 58
6, 70080, Note_on_c, 9, 51, 0
6, 70080, Note_on_c, 9, 51, 78
6, 70120, Note_on_c, 9, 51, 0
6, 70164, Note_on_c, 9, 38, 38
6, 70196, Note_on_c, 9, 44, 80
6, 70200, Note_on_c, 9, 38, 0
6, 70200, Note_on_c, 9, 51, 78
6, 70240, Note_on_c, 9, 51, 0
6, 70283, Note_on_c, 9, 44, 0
6, 70284, Note_on_c, 9, 38, 23
6, 70284, Note_on_c, 9, 51, 58
6, 70320, Note_on_c, 9, 51, 0
6, 70320, Note_on_c, 9, 38, 0
6, 70320, Note_on_c, 9, 38, 38
6, 70320, Note_on_c, 9, 51, 78
6, 70360, Note_on_c, 9, 51, 0
6, 70360, Note_on_c, 9, 38, 0
6, 70404, Note_on_c, 9, 38, 48
6, 70440, Note_on_c, 9, 38, 0
6, 70440, Note_on_c, 9, 51, 78
6, 70443, Note_on_c, 9, 44, 81
6, 70480, Note_on_c, 9, 51, 0
6, 70523, Note_on_c, 9, 44, 0
6, 70524, Note_on_c, 9, 38, 38
6, 70524, Note_on_c, 9, 51, 58
6, 70560, Note_on_c, 9, 51, 0
6, 70560, Note_on_c, 9, 38, 0
6, 70560, Note_on_c, 9, 51, 78
6, 70560, Note_on_c, 9, 35, 34
6, 70600, Note_on_c, 9, 35, 0
6, 70600, Note_on_c, 9, 51, 0
6, 70640, Note_on_c, 9, 38, 78
6, 70680, Note_on_c, 9, 38, 0
6, 70680, Note_on_c, 9, 51, 78
6, 70681, Note_on_c, 9, 44, 79
6, 70720, Note_on_c, 9, 51, 0
6, 70760, Note_on_c, 9, 51, 58
6, 70763, Note_on_c, 9, 44, 0
6, 70800, Note_on_c, 9, 51, 0
6, 70800, Note_on_c, 9, 51, 78
6, 70840, Note_on_c, 9, 51, 0
6, 70880, Note_on_c, 9, 38, 88
6, 70920, Note_on_c, 9, 38, 0
6, 70920, Note_on_c, 9, 51, 78
6, 70924, Note_on_c, 9, 44, 77
6, 70960, Note_on_c, 9, 51, 0
6, 70992, Note_on_c, 9, 44, 0
6, 71000, Note_on_c, 9, 38, 38
6, 71040, Note_on_c, 9, 38, 0
6, 71040, Note_on_c, 9, 35, 34
6, 71080, Note_on_c, 9, 35, 0
6, 71160, Note_on_c, 9, 51, 78
6, 71161, Note_on_c, 9, 44, 78
6, 71200, Note_on_c, 9, 51, 0
6, 71240, Note_on_c, 9, 38, 58
6, 71240, Note_on_c, 9, 51, 58
6, 71242, Note_on_c, 9, 44, 0
6, 71280, Note_on_c, 9, 51, 0
6, 71280, Note_on_c, 9, 38, 0
6, 71280, Note_on_c, 9, 51, 78
6, 71320, Note_on_c, 9, 51, 0
6, 71400, Note_on_c, 9, 51, 78
6, 71410, Note_on_c, 9, 44, 80
6, 71440, Note_on_c, 9, 51, 0
6, 71472, Note_on_c, 9, 44, 0
6, 71520, Note_on_c, 9, 51, 78
6, 71520, Note_on_c, 9, 35, 34
6, 71560, Note_on_c, 9, 35, 0
6, 71560, Note_on_c, 9, 51, 0
6, 71640, Note_on_c, 9, 38, 23
6, 71640, Note_on_c, 9, 51, 78
6, 71640, Note_on_c, 9, 35, 34
6, 71649, Note_on_c, 9, 44, 81
6, 71680, Note_on_c, 9, 35, 0
6, 71680, Note_on_c, 9, 38, 0
6, 71680, Note_on_c, 9, 51, 0
6, 71715, Note_on_c, 9, 44, 0
6, 71723, Note_on_c, 9, 51, 58
6, 71760, Note_on_c, 9, 51, 0
6, 71760, Note_on_c, 9, 51, 78
6, 71800, Note_on_c, 9, 51, 0
6, 71880, Note_on_c, 9, 38, 23
6, 71880, Note_on_c, 9, 51, 78
6, 71880, Note_on_c, 9, 35, 34
6, 71882, Note_on_c, 9, 44, 80
6, 71920, Note_on_c, 9, 35, 0
6, 71920, Note_on_c, 9, 38, 0
6, 71920, Note_on_c, 9, 51, 0
6, 71939, Note_on_c, 9, 44, 0
6, 71963, Note_on_c, 9, 51, 58
6, 72000, Note_on_c, 9, 51, 0
6, 72000, Note_on_c, 9, 51, 78
6, 72040, Note_on_c, 9, 51, 0
6, 72084, Note_on_c, 9, 38, 38
6, 72114, Note_on_c, 9, 44, 77
6, 72120, Note_on_c, 9, 38, 0
6, 72120, Note_on_c, 9, 51, 78
6, 72160, Note_on_c, 9, 51, 0
6, 72182, Note_on_c, 9, 44, 0
6, 72204, Note_on_c, 9, 38, 23
6, 72204, Note_on_c, 9, 51, 58
6, 72240, Note_on_c, 9, 51, 0
6, 72240, Note_on_c, 9, 38, 0
6, 72240, Note_on_c, 9, 38, 38
6, 72240, Note_on_c, 9, 51, 78
6, 72280, Note_on_c, 9, 51, 0
6, 72280, Note_on_c, 9, 38, 0
6, 72324, Note_on_c, 9, 38, 48
6, 72356, Note_on_c, 9, 44, 77
6, 72360, Note_on_c, 9, 38, 0
6, 72360, Note_on_c, 9, 51, 78
6, 72400, Note_on_c, 9, 51, 0
6, 72426, Note_on_c, 9, 44, 0
6, 72444, Note_on_c, 9, 38, 38
6, 72444, Note_on_c, 9, 51, 58
6, 72480, Note_on_c, 9, 51, 0
6, 72480, Note_on_c, 9, 38, 0
6, 72480, Note_on_c, 9, 51, 78
6, 72480, Note_on_c, 9, 35, 34
6, 72520, Note_on_c, 9, 35, 0
6, 72520, Note_on_c, 9, 51, 0
6, 72595, Note_on_c, 9, 44, 77
6, 72600, Note_on_c, 9, 38, 23
6, 72600, Note_on_c, 9, 51, 78
6, 72600, Note_on_c, 9, 35, 34
6, 72640, Note_on_c, 9, 35, 0
6, 72640, Note_on_c, 9, 51, 0
6, 72640, Note_on_c, 9, 38, 0
6, 72658, Note_on_c, 9, 44, 0
6, 72683, Note_on_c, 9, 51, 58
6, 72720, Note_on_c, 9, 51, 0
6, 72720, Note_on_c, 9, 51, 78
6, 72760, Note_on_c, 9, 51, 0
6, 72840, Note_on_c, 9, 38, 23
6, 72840, Note_on_c, 9, 51, 78
6, 72840, Note_on_c, 9, 35, 34
6, 72841, Note_on_c, 9, 44, 82
6, 72880, Note_on_c, 9, 35, 0
6, 72880, Note_on_c, 9, 38, 0
6, 72880, Note_on_c, 9, 51, 0
6, 72901, Note_on_c, 9, 44, 0
6, 72923, Note_on_c, 9, 51, 58
6, 72960, Note_on_c, 9, 51, 0
6, 72960, Note_on_c, 9, 38, 8
6, 72960, Note_on_c, 9, 51, 78
6, 73000, Note_on_c, 9, 51, 0
6, 73000, Note_on_c, 9, 38, 0
6, 73040, Note_on_c, 9, 38, 38
6, 73080, Note_on_c, 9, 38, 0
6, 73080, Note_on_c, 9, 51, 78
6, 73084, Note_on_c, 9, 44, 77
6, 73120, Note_on_c, 9, 51, 0
6, 73148, Note_on_c, 9, 44, 0
6, 73160, Note_on_c, 9, 51, 58
6, 73160, Note_on_c, 9, 48, 48
6, 73200, Note_on_c, 9, 48, 0
6, 73200, Note_on_c, 9, 51, 0
6, 73200, Note_on_c, 9, 51, 78
6, 73200, Note_on_c, 9, 48, 48
6, 73240, Note_on_c, 9, 48, 0
6, 73240, Note_on_c, 9, 51, 0
6, 73280, Note_on_c, 9, 45, 58
6, 73320, Note_on_c, 9, 45, 0
6, 73320, Note_on_c, 9, 51, 78
6, 73328, Note_on_c, 9, 44, 80
6, 73360, Note_on_c, 9, 51, 0
6, 73360, Note_on_c, 9, 38, 18
6, 73400, Note_on_c, 9, 38, 0
6, 73400, Note_on_c, 9, 38, 28
6, 73400, Note_on_c, 9, 51, 58
6, 73424, Note_on_c, 9, 44, 0
6, 73440, Note_on_c, 9, 51, 0
6, 73440, Note_on_c, 9, 38, 0
6, 73440, Note_on_c, 9, 51, 78
6, 73440, Note_on_c, 9, 35, 34
6, 73480, Note_on_c, 9, 35, 0
6, 73480, Note_on_c, 9, 51, 0
6, 73560, Note_on_c, 9, 38, 23
6, 73560, Note_on_c, 9, 51, 78
6, 73560, Note_on_c, 9, 44, 77
6, 73560, Note_on_c, 9, 35, 34
6, 73600, Note_on_c, 9, 35, 0
6, 73600, Note_on_c, 9, 38, 0
6, 73600, Note_on_c, 9, 51, 0
6, 73643, Note_on_c, 9, 51, 58
6, 73650, Note_on_c, 9, 44, 0
6, 73680, Note_on_c, 9, 51, 0
6, 73680, Note_on_c, 9, 51, 78
6, 73720, Note_on_c, 9, 51, 0
6, 73797, Note_on_c, 9, 44, 76
6, 73800, Note_on_c, 9, 38, 23
6, 73800, Note_on_c, 9, 51, 78
6, 73800, Note_on_c, 9, 35, 34
6, 73840, Note_on_c, 9, 35, 0
6, 73840, Note_on_c, 9, 51, 0
6, 73840, Note_on_c, 9, 38, 0
6, 73881, Note_on_c, 9, 44, 0
6, 73883, Note_on_c, 9, 51, 58
6, 73920, Note_on_c, 9, 51, 0
6, 73920, Note_on_c, 9, 38, 8
6, 73920, Note_on_c, 9, 51, 78
6, 73960, Note_on_c, 9, 51, 0
6, 73960, Note_on_c, 9, 38, 0
6, 74000, Note_on_c, 9, 38, 38
6, 74038, Note_on_c, 9, 44, 77
6, 74040, Note_on_c, 9, 38, 0
6, 74040, Note_on_c, 9, 51, 78
6, 74080, Note_on_c, 9, 51, 0
6, 74117, Note_on_c, 9, 44, 0
6, 74120, Note_on_c, 9, 51, 58
6, 74120, Note_on_c, 9, 48, 48
6, 74160, Note_on_c, 9, 48, 0
6, 74160, Note_on_c, 9, 51, 0
6, 74160, Note_on_c, 9, 51, 78
6, 74160, Note_on_c, 9, 48, 48
6, 74200, Note_on_c, 9, 48, 0
6, 74200, Note_on_c, 9, 51, 0
6, 74240, Note_on_c, 9, 45, 58
6, 74278, Note_on_c, 9, 44, 78
6, 74280, Note_on_c, 9, 45, 0
6, 74280, Note_on_c, 9, 51, 78
6, 74320, Note_on_c, 9, 51, 0
6, 74320, Note_on_c, 9, 38, 18
6, 74360, Note_on_c, 9, 38, 0
6, 74360, Note_on_c, 9, 38, 28
6, 74360, Note_on_c, 9, 51, 58
6, 74363, Note_on_c, 9, 44, 0
6, 74400, Note_on_c, 9, 51, 0
6, 74400, Note_on_c, 9, 38, 0
6, 74400, Note_on_c, 9, 51, 78
6, 74400, Note_on_c, 9, 35, 34
6, 74440, Note_on_c, 9, 35, 0
6, 74440, Note_on_c, 9, 51, 0
6, 74510, Note_on_c, 9, 44, 80
6, 74520, Note_on_c, 9, 38, 23
6, 74520, Note_on_c, 9, 51, 78
6, 74520, Note_on_c, 9, 35, 34
6, 74560, Note_on_c, 9, 35, 0
6, 74560, Note_on_c, 9, 51, 0
6, 74560, Note_on_c, 9, 38, 0
6, 74587, Note_on_c, 9, 44, 0
6, 74603, Note_on_c, 9, 51, 58
6, 74640, Note_on_c, 9, 51, 0
6, 74640, Note_on_c, 9, 51, 78
6, 74680, Note_on_c, 9, 51, 0
6, 74756, Note_on_c, 9, 44, 83
6, 74760, Note_on_c, 9, 38, 23
6, 74760, Note_on_c, 9, 51, 78
6, 74760, Note_on_c, 9, 35, 34
6, 74800, Note_on_c, 9, 35, 0
6, 74800, Note_on_c, 9, 51, 0
6, 74800, Note_on_c, 9, 38, 0
6, 74826, Note_on_c, 9, 44, 0
6, 74843, Note_on_c, 9, 51, 58
6, 74880, Note_on_c, 9, 51, 0
6, 74880, Note_on_c, 9, 51, 78
6, 74880, Note_on_c, 9, 35, 34
6, 74920, Note_on_c, 9, 35, 0
6, 74920, Note_on_c, 9, 51, 0
6, 75000, Note_on_c, 9, 38, 23
6, 75000, Note_on_c, 9, 51, 78
6, 75000, Note_on_c, 9, 35, 34
6, 75001, Note_on_c, 9, 44, 59
6, 75040, Note_on_c, 9, 35, 0
6, 75040, Note_on_c, 9, 38, 0
6, 75040, Note_on_c, 9, 51, 0
6, 75083, Note_on_c, 9, 51, 58
6, 75085, Note_on_c, 9, 44, 0
6, 75120, Note_on_c, 9, 51, 0
6, 75120, Note_on_c, 9, 51, 78
6, 75160, Note_on_c, 9, 51, 0
6, 75240, Note_on_c, 9, 38, 23
6, 75240, Note_on_c, 9, 51, 78
6, 75240, Note_on_c, 9, 35, 34
6, 75244, Note_on_c, 9, 44, 69
6, 75280, Note_on_c, 9, 35, 0
6, 75280, Note_on_c, 9, 38, 0
6, 75280, Note_on_c, 9, 51, 0
6, 75321, Note_on_c, 9, 44, 0
6, 75323, Note_on_c, 9, 51, 58
6, 75360, Note_on_c, 9, 51, 0
6, 75360, Note_on_c, 9, 51, 78
6, 75360, Note_on_c, 9, 35, 34
6, 75400, Note_on_c, 9, 35, 0
6, 75400, Note_on_c, 9, 51, 0
6, 75480, Note_on_c, 9, 38, 23
6, 75480, Note_on_c, 9, 51, 78
6, 75480, Note_on_c, 9, 35, 34
6, 75481, Note_on_c, 9, 44, 77
6, 75520, Note_on_c, 9, 35, 0
6, 75520, Note_on_c, 9, 38, 0
6, 75520, Note_on_c, 9, 51, 0
6, 75557, Note_on_c, 9, 44, 0
6, 75563, Note_on_c, 9, 51, 58
6, 75600, Note_on_c, 9, 51, 0
6, 75600, Note_on_c, 9, 51, 78
6, 75640, Note_on_c, 9, 51, 0
6, 75720, Note_on_c, 9, 38, 23
6, 75720, Note_on_c, 9, 51, 78
6, 75720, Note_on_c, 9, 35, 34
6, 75726, Note_on_c, 9, 44, 81
6, 75760, Note_on_c, 9, 35, 0
6, 75760, Note_on_c, 9, 38, 0
6, 75760, Note_on_c, 9, 51, 0
6, 75798, Note_on_c, 9, 44, 0
6, 75803, Note_on_c, 9, 51, 58
6, 75840, Note_on_c, 9, 51, 0
6, 75840, Note_on_c, 9, 51, 78
6, 75840, Note_on_c, 9, 35, 34
6, 75880, Note_on_c, 9, 35, 0
6, 75880, Note_on_c, 9, 51, 0
6, 75960, Note_on_c, 9, 38, 23
6, 75960, Note_on_c, 9, 51, 78
6, 75960, Note_on_c, 9, 35, 34
6, 75971, Note_on_c, 9, 44, 79
6, 76000, Note_on_c, 9, 35, 0
6, 76000, Note_on_c, 9, 38, 0
6, 76000, Note_on_c, 9, 51, 0
6, 76036, Note_on_c, 9, 44, 0
6, 76043, Note_on_c, 9, 51, 58
6, 76080, Note_on_c, 9, 51, 0
6, 76080, Note_on_c, 9, 51, 78
6, 76120, Note_on_c, 9, 51, 0
6, 76200, Note_on_c, 9, 38, 23
6, 76200, Note_on_c, 9, 51, 78
6, 76200, Note_on_c, 9, 35, 34
6, 76206, Note_on_c, 9, 44, 73
6, 76240, Note_on_c, 9, 35, 0
6, 76240, Note_on_c, 9, 38, 0
6, 76240, Note_on_c, 9, 51, 0
6, 76271, Note_on_c, 9, 44, 0
6, 76283, Note_on_c, 9, 51, 58
6, 76320, Note_on_c, 9, 51, 0
6, 76320, Note_on_c, 9, 51, 78
6, 76320, Note_on_c, 9, 35, 34
6, 76360, Note_on_c, 9, 35, 0
6, 76360, Note_on_c, 9, 51, 0
6, 76440, Note_on_c, 9, 38, 23
6, 76440, Note_on_c, 9, 51, 78
6, 76440, Note_on_c, 9, 35, 34
6, 76442, Note_on_c, 9, 44, 76
6, 76480, Note_on_c, 9, 35, 0
6, 76480, Note_on_c, 9, 38, 0
6, 76480, Note_on_c, 9, 51, 0
6, 76503, Note_on_c, 9, 44, 0
6, 76523, Note_on_c, 9, 51, 58
6, 76560, Note_on_c, 9, 51, 0
6, 76560, Note_on_c, 9, 51, 78
6, 76600, Note_on_c, 9, 51, 0
6, 76680, Note_on_c, 9, 38, 23
6, 76680, Note_on_c, 9, 51, 78
6, 76680, Note_on_c, 9, 35, 34
6, 76683, Note_on_c, 9, 44, 77
6, 76720, Note_on_c, 9, 35, 0
6, 76720, Note_on_c, 9, 38, 0
6, 76720, Note_on_c, 9, 51, 0
6, 76744, Note_on_c, 9, 44, 0
6, 76763, Note_on_c, 9, 51, 58
6, 76800, Note_on_c, 9, 51, 0
6, 76800, Note_on_c, 9, 51, 78
6, 76800, Note_on_c, 9, 35, 34
6, 76840, Note_on_c, 9, 35, 0
6, 76840, Note_on_c, 9, 51, 0
6, 76920, Note_on_c, 9, 38, 23
6, 76920, Note_on_c, 9, 51, 78
6, 76920, Note_on_c, 9, 35, 34
6, 76922, Note_on_c, 9, 44, 77
6, 76960, Note_on_c, 9, 35, 0
6, 76960, Note_on_c, 9, 38, 0
6, 76960, Note_on_c, 9, 51, 0
6, 76996, Note_on_c, 9, 44, 0
6, 77003, Note_on_c, 9, 51, 58
6, 77040, Note_on_c, 9, 51, 0
6, 77040, Note_on_c, 9, 51, 78
6, 77080, Note_on_c, 9, 51, 0
6, 77160, Note_on_c, 9, 38, 23
6, 77160, Note_on_c, 9, 51, 78
6, 77160, Note_on_c, 9, 35, 34
6, 77165, Note_on_c, 9, 44, 81
6, 77200, Note_on_c, 9, 35, 0
6, 77200, Note_on_c, 9, 38, 0
6, 77200, Note_on_c, 9, 51, 0
6, 77204, Note_on_c, 9, 44, 0
6, 77243, Note_on_c, 9, 51, 58
6, 77280, Note_on_c, 9, 51, 0
6, 77280, Note_on_c, 9, 51, 78
6, 77280, Note_on_c, 9, 35, 34
6, 77320, Note_on_c, 9, 35, 0
6, 77320, Note_on_c, 9, 51, 0
6, 77400, Note_on_c, 9, 38, 23
6, 77400, Note_on_c, 9, 51, 78
6, 77400, Note_on_c, 9, 35, 34
6, 77401, Note_on_c, 9, 44, 74
6, 77440, Note_on_c, 9, 35, 0
6, 77440, Note_on_c, 9, 38, 0
6, 77440, Note_on_c, 9, 51, 0
6, 77470, Note_on_c, 9, 44, 0
6, 77483, Note_on_c, 9, 51, 58
6, 77520, Note_on_c, 9, 51, 0
6, 77520, Note_on_c, 9, 51, 78
6, 77560, Note_on_c, 9, 51, 0
6, 77638, Note_on_c, 9, 44, 77
6, 77640, Note_on_c, 9, 38, 23
6, 77640, Note_on_c, 9, 51, 78
6, 77640, Note_on_c, 9, 35, 34
6, 77680, Note_on_c, 9, 35, 0
6, 77680, Note_on_c, 9, 51, 0
6, 77680, Note_on_c, 9, 38, 0
6, 77700, Note_on_c, 9, 44, 0
6, 77723, Note_on_c, 9, 51, 58
6, 77760, Note_on_c, 9, 51, 0
6, 77760, Note_on_c, 9, 51, 78
6, 77760, Note_on_c, 9, 35, 34
6, 77800, Note_on_c, 9, 35, 0
6, 77800, Note_on_c, 9, 51, 0
6, 77880, Note_on_c, 9, 38, 23
6, 77880, Note_on_c, 9, 51, 78
6, 77880, Note_on_c, 9, 35, 34
6, 77885, Note_on_c, 9, 44, 74
6, 77920, Note_on_c, 9, 35, 0
6, 77920, Note_on_c, 9, 38, 0
6, 77920, Note_on_c, 9, 51, 0
6, 77929, Note_on_c, 9, 44, 0
6, 77963, Note_on_c, 9, 51, 58
6, 78000, Note_on_c, 9, 51, 0
6, 78000, Note_on_c, 9, 51, 78
6, 78040, Note_on_c, 9, 51, 0
6, 78120, Note_on_c, 9, 38, 23
6, 78120, Note_on_c, 9, 51, 78
6, 78120, Note_on_c, 9, 35, 34
6, 78123, Note_on_c, 9, 44, 72
6, 78160, Note_on_c, 9, 35, 0
6, 78160, Note_on_c, 9, 38, 0
6, 78160, Note_on_c, 9, 51, 0
6, 78175, Note_on_c, 9, 44, 0
6, 78203, Note_on_c, 9, 51, 58
6, 78204, Note_on_c, 9, 57, 88
6, 78240, Note_on_c, 9, 51, 0
6, 78240, Note_on_c, 9, 51, 78
6, 78240, Note_on_c, 9, 35, 34
6, 78280, Note_on_c, 9, 35, 0
6, 78280, Note_on_c, 9, 51, 0
6, 78324, Note_on_c, 9, 57, 0
6, 78324, End_track
7, 0, Start_track
7, 0, End_track
0, 0, End_of_file
