0, 0, Header, 1, 4, 384
1, 0, Start_track
1, 0, Title_t, "untitled"
1, 0, Text_t, "YAMAHA DOU 10                   \012"
1, 0, SMPTE_offset, 96, 0, 3, 0, 0
1, 0, MIDI_port, 0
1, 0, System_exclusive, 5, 126, 127, 9, 1, 247
1, 0, System_exclusive, 8, 67, 115, 1, 17, 15, 89, 0, 247
1, 0, MIDI_port, 0
1, 0, Time_signature, 4, 2, 24, 8
1, 0, Key_signature, -2, "major"
1, 0, Tempo, 400000
1, 0, Marker_t, "There is no Greater Love  dougmck@pipeline.edu.au"
1, 0, End_track
2, 0, Start_track
2, 0, MIDI_port, 0
2, 0, Title_t, "Played by"
2, 0, Control_c, 0, 7, 86
2, 1016, Note_on_c, 0, 69, 81
2, 1064, Note_on_c, 0, 69, 0
2, 1156, Note_on_c, 0, 70, 59
2, 1188, Note_on_c, 0, 70, 0
2, 1404, Note_on_c, 0, 72, 62
2, 1512, Note_on_c, 0, 55, 24
2, 1524, Note_on_c, 0, 62, 29
2, 1528, Note_on_c, 0, 60, 31
2, 1536, Note_on_c, 0, 65, 26
2, 1548, Note_on_c, 0, 72, 0
2, 1556, Control_c, 0, 64, 127
2, 1560, Note_on_c, 0, 70, 39
2, 2140, Note_on_c, 0, 65, 0
2, 2156, Note_on_c, 0, 60, 0
2, 2168, Note_on_c, 0, 62, 0
2, 2268, Control_c, 0, 64, 0
2, 2332, Note_on_c, 0, 62, 32
2, 2336, Note_on_c, 0, 65, 18
2, 2340, Note_on_c, 0, 60, 14
2, 2344, Note_on_c, 0, 70, 0
2, 2356, Note_on_c, 0, 69, 51
2, 2512, Note_on_c, 0, 65, 0
2, 2516, Note_on_c, 0, 62, 0
2, 2528, Note_on_c, 0, 60, 0
2, 2580, Note_on_c, 0, 69, 0
2, 2596, Note_on_c, 0, 62, 45
2, 2608, Note_on_c, 0, 67, 52
2, 2624, Note_on_c, 0, 62, 0
2, 2632, Note_on_c, 0, 67, 0
2, 2676, Note_on_c, 0, 55, 0
2, 2728, Note_on_c, 0, 62, 62
2, 2876, Note_on_c, 0, 62, 0
2, 2952, Note_on_c, 0, 63, 70
2, 2972, Note_on_c, 0, 64, 68
2, 2972, Note_on_c, 0, 61, 38
2, 2976, Note_on_c, 0, 60, 42
2, 2988, Note_on_c, 0, 55, 38
2, 2996, Note_on_c, 0, 63, 0
2, 3028, Note_on_c, 0, 65, 59
2, 3052, Note_on_c, 0, 64, 0
2, 3756, Note_on_c, 0, 55, 0
2, 3756, Note_on_c, 0, 60, 0
2, 3768, Note_on_c, 0, 61, 0
2, 3816, Note_on_c, 0, 65, 0
2, 3852, Note_on_c, 0, 64, 54
2, 3860, Note_on_c, 0, 60, 28
2, 3868, Note_on_c, 0, 55, 24
2, 3892, Note_on_c, 0, 60, 0
2, 3904, Note_on_c, 0, 55, 0
2, 3912, Note_on_c, 0, 64, 0
2, 4108, Note_on_c, 0, 63, 45
2, 4132, Note_on_c, 0, 63, 0
2, 4464, Note_on_c, 0, 70, 56
2, 4484, Control_c, 0, 64, 127
2, 4524, Note_on_c, 0, 70, 0
2, 4568, Control_c, 0, 64, 0
2, 4796, Note_on_c, 0, 74, 78
2, 4816, Note_on_c, 0, 65, 52
2, 4844, Note_on_c, 0, 65, 0
2, 4864, Note_on_c, 0, 74, 0
2, 4924, Note_on_c, 0, 77, 62
2, 4988, Note_on_c, 0, 77, 0
2, 5044, Note_on_c, 0, 82, 62
2, 5092, Note_on_c, 0, 82, 0
2, 5160, Note_on_c, 0, 86, 80
2, 5208, Note_on_c, 0, 86, 0
2, 5268, Note_on_c, 0, 89, 79
2, 5336, Note_on_c, 0, 89, 0
2, 5384, Note_on_c, 0, 94, 69
2, 5452, Note_on_c, 0, 94, 0
2, 5520, Note_on_c, 0, 96, 82
2, 5568, Note_on_c, 0, 96, 0
2, 5792, Note_on_c, 0, 65, 41
2, 5796, Note_on_c, 0, 54, 35
2, 5808, Note_on_c, 0, 58, 31
2, 5816, Note_on_c, 0, 60, 32
2, 5856, Note_on_c, 0, 60, 0
2, 5860, Note_on_c, 0, 65, 0
2, 5900, Note_on_c, 0, 58, 0
2, 5964, Note_on_c, 0, 54, 0
2, 6044, Note_on_c, 0, 64, 24
2, 6044, Note_on_c, 0, 53, 26
2, 6048, Note_on_c, 0, 59, 49
2, 6604, Note_on_c, 0, 64, 0
2, 6636, Control_c, 0, 64, 127
2, 6644, Note_on_c, 0, 59, 0
2, 6716, Note_on_c, 0, 53, 0
2, 6816, Note_on_c, 0, 61, 70
2, 6848, Control_c, 0, 64, 0
2, 6904, Note_on_c, 0, 61, 0
2, 6956, Note_on_c, 0, 62, 37
2, 7124, Note_on_c, 0, 62, 0
2, 7180, Note_on_c, 0, 69, 78
2, 7196, Note_on_c, 0, 53, 51
2, 7200, Note_on_c, 0, 59, 43
2, 7256, Note_on_c, 0, 69, 0
2, 7288, Note_on_c, 0, 59, 0
2, 7332, Note_on_c, 0, 68, 43
2, 7456, Note_on_c, 0, 53, 0
2, 7568, Note_on_c, 0, 66, 42
2, 7596, Note_on_c, 0, 68, 0
2, 7640, Note_on_c, 0, 62, 34
2, 7648, Note_on_c, 0, 66, 0
2, 7656, Note_on_c, 0, 58, 25
2, 7660, Note_on_c, 0, 57, 13
2, 7704, Note_on_c, 0, 67, 41
2, 7736, Note_on_c, 0, 62, 0
2, 7788, Note_on_c, 0, 58, 0
2, 7800, Note_on_c, 0, 57, 0
2, 7920, Note_on_c, 0, 67, 0
2, 7948, Note_on_c, 0, 60, 50
2, 7984, Note_on_c, 0, 60, 0
2, 8432, Note_on_c, 0, 74, 67
2, 8440, Note_on_c, 0, 80, 53
2, 8440, Note_on_c, 0, 86, 62
2, 8444, Note_on_c, 0, 59, 40
2, 8444, Note_on_c, 0, 63, 49
2, 8448, Note_on_c, 0, 53, 30
2, 8544, Note_on_c, 0, 53, 0
2, 8548, Note_on_c, 0, 80, 0
2, 8564, Note_on_c, 0, 81, 35
2, 8596, Note_on_c, 0, 59, 0
2, 8596, Note_on_c, 0, 63, 0
2, 8608, Note_on_c, 0, 74, 0
2, 8620, Note_on_c, 0, 86, 0
2, 8648, Note_on_c, 0, 81, 0
2, 8812, Note_on_c, 0, 63, 40
2, 8820, Note_on_c, 0, 73, 59
2, 8824, Note_on_c, 0, 85, 55
2, 8828, Note_on_c, 0, 53, 33
2, 8832, Note_on_c, 0, 80, 42
2, 8852, Control_c, 0, 64, 127
2, 8932, Note_on_c, 0, 53, 0
2, 8944, Note_on_c, 0, 63, 0
2, 8944, Control_c, 0, 64, 0
2, 8992, Note_on_c, 0, 73, 0
2, 8992, Note_on_c, 0, 80, 0
2, 8996, Note_on_c, 0, 85, 0
2, 9604, Note_on_c, 0, 58, 44
2, 9612, Note_on_c, 0, 62, 53
2, 9616, Note_on_c, 0, 84, 60
2, 9628, Note_on_c, 0, 72, 36
2, 9632, Note_on_c, 0, 79, 48
2, 9648, Note_on_c, 0, 57, 24
2, 9656, Note_on_c, 0, 52, 36
2, 9768, Note_on_c, 0, 52, 0
2, 9772, Note_on_c, 0, 84, 0
2, 9776, Note_on_c, 0, 57, 0
2, 9780, Note_on_c, 0, 72, 0
2, 9784, Note_on_c, 0, 62, 0
2, 9784, Control_c, 0, 64, 127
2, 9792, Note_on_c, 0, 58, 0
2, 9792, Note_on_c, 0, 79, 0
2, 9852, Note_on_c, 0, 84, 60
2, 9856, Note_on_c, 0, 58, 37
2, 9860, Note_on_c, 0, 62, 47
2, 9860, Note_on_c, 0, 72, 47
2, 9864, Note_on_c, 0, 79, 56
2, 9864, Note_on_c, 0, 57, 40
2, 9880, Note_on_c, 0, 52, 42
2, 9904, Control_c, 0, 64, 0
2, 9916, Note_on_c, 0, 52, 0
2, 9928, Note_on_c, 0, 84, 0
2, 9932, Note_on_c, 0, 62, 0
2, 9964, Note_on_c, 0, 79, 0
2, 9972, Note_on_c, 0, 62, 35
2, 9980, Note_on_c, 0, 52, 14
2, 9984, Note_on_c, 0, 84, 58
2, 9996, Note_on_c, 0, 79, 30
2, 10144, Note_on_c, 0, 79, 0
2, 10144, Note_on_c, 0, 84, 0
2, 10152, Note_on_c, 0, 62, 0
2, 10156, Note_on_c, 0, 72, 0
2, 10176, Note_on_c, 0, 58, 0
2, 10180, Note_on_c, 0, 52, 0
2, 10188, Note_on_c, 0, 57, 0
2, 10220, Note_on_c, 0, 84, 66
2, 10228, Note_on_c, 0, 79, 55
2, 10232, Note_on_c, 0, 72, 50
2, 10232, Note_on_c, 0, 62, 54
2, 10240, Note_on_c, 0, 58, 38
2, 10252, Note_on_c, 0, 79, 0
2, 10264, Note_on_c, 0, 84, 0
2, 10280, Note_on_c, 0, 62, 0
2, 10280, Note_on_c, 0, 72, 0
2, 10296, Note_on_c, 0, 58, 0
2, 10728, Note_on_c, 0, 74, 71
2, 10732, Note_on_c, 0, 63, 45
2, 10732, Note_on_c, 0, 70, 55
2, 10736, Note_on_c, 0, 67, 58
2, 11432, Note_on_c, 0, 74, 0
2, 11440, Note_on_c, 0, 67, 0
2, 11464, Note_on_c, 0, 70, 0
2, 11464, Note_on_c, 0, 63, 0
2, 11528, Note_on_c, 0, 72, 75
2, 11680, Note_on_c, 0, 72, 0
2, 11776, Note_on_c, 0, 70, 55
2, 11844, Note_on_c, 0, 70, 0
2, 11912, Note_on_c, 0, 67, 52
2, 12084, Note_on_c, 0, 67, 0
2, 12144, Note_on_c, 0, 62, 65
2, 12148, Note_on_c, 0, 69, 92
2, 12156, Note_on_c, 0, 57, 57
2, 12156, Note_on_c, 0, 51, 49
2, 12404, Note_on_c, 0, 69, 0
2, 12428, Note_on_c, 0, 65, 74
2, 12520, Note_on_c, 0, 65, 0
2, 12556, Note_on_c, 0, 66, 70
2, 12652, Note_on_c, 0, 66, 0
2, 12664, Note_on_c, 0, 57, 0
2, 12688, Note_on_c, 0, 51, 0
2, 12712, Note_on_c, 0, 68, 64
2, 12972, Note_on_c, 0, 69, 96
2, 12980, Note_on_c, 0, 68, 0
2, 13056, Note_on_c, 0, 62, 0
2, 13192, Note_on_c, 0, 69, 0
2, 13208, Note_on_c, 0, 71, 76
2, 13300, Note_on_c, 0, 71, 0
2, 13340, Note_on_c, 0, 72, 82
2, 13352, Note_on_c, 0, 71, 48
2, 13376, Note_on_c, 0, 71, 0
2, 13384, Note_on_c, 0, 63, 33
2, 13388, Note_on_c, 0, 57, 36
2, 13392, Note_on_c, 0, 67, 27
2, 13456, Note_on_c, 0, 72, 0
2, 13476, Note_on_c, 0, 74, 74
2, 13564, Note_on_c, 0, 67, 0
2, 13568, Note_on_c, 0, 74, 0
2, 13596, Note_on_c, 0, 57, 0
2, 13628, Note_on_c, 0, 74, 52
2, 13656, Note_on_c, 0, 63, 0
2, 13664, Note_on_c, 0, 74, 0
2, 13724, Note_on_c, 0, 62, 65
2, 13728, Note_on_c, 0, 65, 69
2, 13728, Note_on_c, 0, 60, 64
2, 13740, Note_on_c, 0, 55, 62
2, 14088, Note_on_c, 0, 74, 91
2, 14172, Note_on_c, 0, 74, 0
2, 14208, Note_on_c, 0, 73, 68
2, 14244, Note_on_c, 0, 65, 0
2, 14296, Note_on_c, 0, 73, 0
2, 14316, Note_on_c, 0, 60, 0
2, 14320, Note_on_c, 0, 62, 0
2, 14324, Note_on_c, 0, 74, 59
2, 14440, Note_on_c, 0, 74, 0
2, 14492, Note_on_c, 0, 55, 0
2, 14492, Note_on_c, 0, 84, 90
2, 14580, Note_on_c, 0, 84, 0
2, 14616, Note_on_c, 0, 81, 53
2, 14648, Note_on_c, 0, 81, 0
2, 14732, Note_on_c, 0, 84, 95
2, 14840, Note_on_c, 0, 84, 0
2, 14896, Note_on_c, 0, 81, 81
2, 14972, Note_on_c, 0, 81, 0
2, 15004, Note_on_c, 0, 77, 54
2, 15108, Note_on_c, 0, 77, 0
2, 15124, Note_on_c, 0, 74, 52
2, 15252, Note_on_c, 0, 74, 0
2, 15316, Note_on_c, 0, 60, 49
2, 15316, Note_on_c, 0, 61, 42
2, 15316, Note_on_c, 0, 65, 52
2, 15344, Note_on_c, 0, 65, 0
2, 15348, Note_on_c, 0, 60, 0
2, 15368, Note_on_c, 0, 61, 0
2, 15752, Note_on_c, 0, 85, 83
2, 15856, Note_on_c, 0, 85, 0
2, 15888, Note_on_c, 0, 81, 46
2, 15932, Note_on_c, 0, 81, 0
2, 16016, Note_on_c, 0, 85, 84
2, 16040, Note_on_c, 0, 60, 48
2, 16052, Note_on_c, 0, 65, 32
2, 16060, Note_on_c, 0, 61, 25
2, 16076, Note_on_c, 0, 65, 0
2, 16092, Note_on_c, 0, 61, 0
2, 16140, Note_on_c, 0, 81, 68
2, 16172, Note_on_c, 0, 85, 0
2, 16188, Note_on_c, 0, 60, 0
2, 16224, Note_on_c, 0, 81, 0
2, 16280, Note_on_c, 0, 76, 36
2, 16356, Note_on_c, 0, 76, 0
2, 16404, Note_on_c, 0, 65, 56
2, 16416, Note_on_c, 0, 60, 40
2, 16416, Note_on_c, 0, 61, 35
2, 16420, Note_on_c, 0, 83, 84
2, 16436, Note_on_c, 0, 65, 0
2, 16452, Note_on_c, 0, 60, 0
2, 16464, Note_on_c, 0, 61, 0
2, 16512, Note_on_c, 0, 83, 0
2, 16560, Note_on_c, 0, 78, 56
2, 16648, Note_on_c, 0, 78, 0
2, 16680, Note_on_c, 0, 75, 51
2, 16780, Note_on_c, 0, 75, 0
2, 16812, Note_on_c, 0, 58, 62
2, 16816, Note_on_c, 0, 65, 68
2, 16820, Note_on_c, 0, 54, 53
2, 16820, Note_on_c, 0, 60, 68
2, 16840, Note_on_c, 0, 65, 0
2, 16932, Note_on_c, 0, 60, 0
2, 16940, Note_on_c, 0, 54, 0
2, 16940, Note_on_c, 0, 58, 0
2, 16964, Note_on_c, 0, 88, 84
2, 16972, Note_on_c, 0, 86, 42
2, 17068, Note_on_c, 0, 88, 0
2, 17072, Note_on_c, 0, 86, 0
2, 17084, Note_on_c, 0, 82, 64
2, 17212, Note_on_c, 0, 82, 0
2, 17224, Note_on_c, 0, 77, 46
2, 17272, Note_on_c, 0, 77, 0
2, 17588, Note_on_c, 0, 65, 74
2, 17592, Note_on_c, 0, 58, 57
2, 17592, Note_on_c, 0, 60, 63
2, 17604, Note_on_c, 0, 54, 55
2, 18220, Note_on_c, 0, 65, 0
2, 18228, Note_on_c, 0, 60, 0
2, 18296, Note_on_c, 0, 58, 0
2, 18300, Note_on_c, 0, 54, 0
2, 18324, Note_on_c, 0, 82, 78
2, 18328, Note_on_c, 0, 64, 66
2, 18344, Note_on_c, 0, 59, 46
2, 18348, Note_on_c, 0, 53, 42
2, 18404, Note_on_c, 0, 64, 0
2, 18432, Note_on_c, 0, 82, 0
2, 18496, Note_on_c, 0, 83, 39
2, 18536, Note_on_c, 0, 53, 0
2, 18556, Note_on_c, 0, 59, 0
2, 18688, Note_on_c, 0, 83, 0
2, 18748, Note_on_c, 0, 86, 71
2, 18752, Note_on_c, 0, 64, 54
2, 18760, Note_on_c, 0, 59, 47
2, 18800, Note_on_c, 0, 64, 0
2, 18812, Note_on_c, 0, 86, 0
2, 18868, Note_on_c, 0, 88, 88
2, 18996, Note_on_c, 0, 59, 0
2, 19132, Note_on_c, 0, 88, 0
2, 19220, Note_on_c, 0, 59, 17
2, 19224, Note_on_c, 0, 64, 50
2, 19228, Note_on_c, 0, 86, 59
2, 19248, Note_on_c, 0, 74, 45
2, 19328, Note_on_c, 0, 59, 0
2, 19364, Note_on_c, 0, 64, 0
2, 19400, Note_on_c, 0, 86, 0
2, 19404, Note_on_c, 0, 74, 0
2, 19480, Note_on_c, 0, 79, 68
2, 19492, Note_on_c, 0, 53, 40
2, 19504, Note_on_c, 0, 59, 44
2, 19564, Note_on_c, 0, 59, 0
2, 19564, Note_on_c, 0, 79, 0
2, 19572, Note_on_c, 0, 53, 0
2, 19572, Note_on_c, 0, 64, 6
2, 19616, Note_on_c, 0, 74, 38
2, 19756, Note_on_c, 0, 64, 0
2, 19876, Note_on_c, 0, 74, 0
2, 19968, Note_on_c, 0, 58, 30
2, 19972, Note_on_c, 0, 67, 35
2, 19980, Note_on_c, 0, 63, 29
2, 19984, Note_on_c, 0, 79, 59
2, 19988, Note_on_c, 0, 62, 32
2, 20068, Note_on_c, 0, 62, 0
2, 20084, Note_on_c, 0, 63, 0
2, 20116, Note_on_c, 0, 58, 0
2, 20120, Note_on_c, 0, 67, 0
2, 20176, Note_on_c, 0, 79, 0
2, 20372, Note_on_c, 0, 67, 49
2, 20380, Note_on_c, 0, 78, 58
2, 20384, Note_on_c, 0, 58, 32
2, 20388, Note_on_c, 0, 63, 35
2, 20400, Note_on_c, 0, 62, 33
2, 20536, Note_on_c, 0, 62, 0
2, 20544, Note_on_c, 0, 67, 0
2, 20556, Note_on_c, 0, 63, 0
2, 20560, Note_on_c, 0, 58, 0
2, 20584, Note_on_c, 0, 78, 0
2, 20652, Note_on_c, 0, 79, 67
2, 20660, Note_on_c, 0, 67, 40
2, 20664, Note_on_c, 0, 63, 31
2, 20668, Note_on_c, 0, 58, 28
2, 20676, Note_on_c, 0, 62, 30
2, 20696, Note_on_c, 0, 67, 0
2, 20700, Note_on_c, 0, 58, 0
2, 20700, Note_on_c, 0, 79, 0
2, 20712, Note_on_c, 0, 62, 0
2, 20720, Note_on_c, 0, 63, 0
2, 20772, Note_on_c, 0, 67, 66
2, 20776, Note_on_c, 0, 58, 57
2, 20776, Note_on_c, 0, 62, 57
2, 20780, Note_on_c, 0, 63, 48
2, 20792, Note_on_c, 0, 88, 74
2, 20792, Note_on_c, 0, 81, 66
2, 20796, Note_on_c, 0, 79, 74
2, 20796, Note_on_c, 0, 86, 75
2, 20916, Note_on_c, 0, 81, 0
2, 20924, Note_on_c, 0, 88, 0
2, 20928, Note_on_c, 0, 79, 0
2, 20940, Note_on_c, 0, 86, 0
2, 20956, Note_on_c, 0, 62, 0
2, 20956, Note_on_c, 0, 58, 0
2, 20960, Note_on_c, 0, 67, 0
2, 20972, Note_on_c, 0, 63, 0
2, 21028, Note_on_c, 0, 86, 67
2, 21032, Note_on_c, 0, 63, 48
2, 21032, Note_on_c, 0, 79, 65
2, 21036, Note_on_c, 0, 84, 65
2, 21036, Note_on_c, 0, 58, 46
2, 21036, Note_on_c, 0, 67, 55
2, 21040, Note_on_c, 0, 62, 49
2, 21060, Note_on_c, 0, 84, 0
2, 21112, Note_on_c, 0, 67, 0
2, 21116, Note_on_c, 0, 86, 0
2, 21132, Note_on_c, 0, 62, 0
2, 21140, Note_on_c, 0, 63, 0
2, 21140, Note_on_c, 0, 79, 0
2, 21168, Note_on_c, 0, 84, 62
2, 21184, Note_on_c, 0, 67, 53
2, 21192, Note_on_c, 0, 63, 20
2, 21196, Note_on_c, 0, 62, 28
2, 21252, Note_on_c, 0, 84, 0
2, 21288, Note_on_c, 0, 67, 0
2, 21312, Note_on_c, 0, 62, 0
2, 21312, Note_on_c, 0, 63, 0
2, 21316, Note_on_c, 0, 58, 0
2, 21404, Note_on_c, 0, 82, 65
2, 21408, Note_on_c, 0, 70, 71
2, 21408, Note_on_c, 0, 75, 60
2, 21412, Note_on_c, 0, 79, 66
2, 21416, Note_on_c, 0, 63, 47
2, 21416, Note_on_c, 0, 58, 51
2, 21420, Note_on_c, 0, 67, 68
2, 21424, Note_on_c, 0, 62, 64
2, 21740, Note_on_c, 0, 79, 0
2, 21756, Note_on_c, 0, 75, 0
2, 21804, Note_on_c, 0, 70, 0
2, 21812, Note_on_c, 0, 67, 0
2, 21836, Note_on_c, 0, 58, 0
2, 21852, Note_on_c, 0, 62, 0
2, 21852, Note_on_c, 0, 82, 0
2, 21868, Note_on_c, 0, 63, 0
2, 21904, Note_on_c, 0, 58, 42
2, 21912, Note_on_c, 0, 67, 62
2, 21912, Note_on_c, 0, 63, 35
2, 21916, Note_on_c, 0, 84, 80
2, 21916, Note_on_c, 0, 72, 55
2, 21928, Note_on_c, 0, 62, 59
2, 22004, Note_on_c, 0, 84, 0
2, 22032, Note_on_c, 0, 62, 0
2, 22040, Note_on_c, 0, 72, 0
2, 22044, Note_on_c, 0, 67, 0
2, 22064, Note_on_c, 0, 63, 0
2, 22144, Note_on_c, 0, 58, 0
2, 22272, Note_on_c, 0, 63, 45
2, 22276, Note_on_c, 0, 81, 52
2, 22276, Note_on_c, 0, 78, 33
2, 22280, Note_on_c, 0, 57, 51
2, 22280, Note_on_c, 0, 69, 53
2, 22284, Control_c, 0, 64, 127
2, 22288, Note_on_c, 0, 74, 48
2, 22360, Note_on_c, 0, 69, 0
2, 22384, Note_on_c, 0, 74, 0
2, 22408, Note_on_c, 0, 57, 0
2, 22412, Note_on_c, 0, 78, 0
2, 22412, Note_on_c, 0, 81, 0
2, 22428, Note_on_c, 0, 63, 0
2, 22616, Control_c, 0, 64, 0
2, 22648, Note_on_c, 0, 63, 48
2, 22652, Note_on_c, 0, 57, 60
2, 22656, Note_on_c, 0, 84, 67
2, 22660, Note_on_c, 0, 72, 50
2, 22664, Note_on_c, 0, 79, 55
2, 22668, Note_on_c, 0, 67, 29
2, 22700, Control_c, 0, 64, 127
2, 22732, Note_on_c, 0, 79, 0
2, 22740, Note_on_c, 0, 84, 0
2, 22744, Note_on_c, 0, 67, 0
2, 22768, Note_on_c, 0, 72, 0
2, 22796, Note_on_c, 0, 57, 0
2, 22848, Note_on_c, 0, 63, 0
2, 22912, Note_on_c, 0, 62, 58
2, 22916, Note_on_c, 0, 82, 70
2, 22920, Control_c, 0, 64, 0
2, 22920, Note_on_c, 0, 70, 71
2, 22924, Note_on_c, 0, 65, 60
2, 22924, Note_on_c, 0, 60, 54
2, 22928, Note_on_c, 0, 77, 69
2, 22936, Note_on_c, 0, 55, 51
2, 23044, Control_c, 0, 64, 127
2, 23112, Note_on_c, 0, 77, 0
2, 23112, Note_on_c, 0, 82, 0
2, 23128, Note_on_c, 0, 65, 0
2, 23140, Note_on_c, 0, 62, 0
2, 23156, Note_on_c, 0, 60, 0
2, 23156, Note_on_c, 0, 70, 0
2, 23212, Note_on_c, 0, 55, 0
2, 23404, Control_c, 0, 64, 0
2, 23416, Note_on_c, 0, 54, 31
2, 23420, Note_on_c, 0, 70, 55
2, 23420, Note_on_c, 0, 65, 56
2, 23424, Note_on_c, 0, 60, 51
2, 23424, Note_on_c, 0, 55, 35
2, 23460, Note_on_c, 0, 54, 0
2, 23680, Note_on_c, 0, 65, 0
2, 23692, Note_on_c, 0, 70, 0
2, 23700, Note_on_c, 0, 60, 0
2, 23800, Note_on_c, 0, 55, 0
2, 23804, Note_on_c, 0, 59, 35
2, 23808, Note_on_c, 0, 54, 38
2, 23812, Note_on_c, 0, 69, 33
2, 23820, Note_on_c, 0, 64, 40
2, 23896, Note_on_c, 0, 69, 0
2, 23928, Note_on_c, 0, 59, 0
2, 23956, Note_on_c, 0, 64, 0
2, 24064, Note_on_c, 0, 60, 54
2, 24064, Note_on_c, 0, 70, 60
2, 24068, Note_on_c, 0, 65, 66
2, 24076, Note_on_c, 0, 55, 69
2, 24124, Note_on_c, 0, 54, 0
2, 24444, Control_c, 0, 64, 127
2, 24492, Note_on_c, 0, 65, 0
2, 24496, Note_on_c, 0, 70, 0
2, 24500, Note_on_c, 0, 60, 0
2, 24500, Control_c, 0, 64, 0
2, 24596, Note_on_c, 0, 54, 34
2, 24604, Note_on_c, 0, 55, 0
2, 24604, Note_on_c, 0, 64, 42
2, 24608, Note_on_c, 0, 59, 17
2, 24616, Note_on_c, 0, 69, 31
2, 24696, Note_on_c, 0, 69, 0
2, 24712, Note_on_c, 0, 59, 0
2, 24744, Note_on_c, 0, 64, 0
2, 24848, Note_on_c, 0, 70, 65
2, 24852, Note_on_c, 0, 60, 56
2, 24852, Note_on_c, 0, 55, 61
2, 24856, Note_on_c, 0, 54, 0
2, 24860, Note_on_c, 0, 65, 56
2, 24912, Note_on_c, 0, 60, 0
2, 24928, Note_on_c, 0, 65, 0
2, 24956, Note_on_c, 0, 70, 0
2, 25008, Note_on_c, 0, 55, 0
2, 25012, Note_on_c, 0, 71, 65
2, 25016, Note_on_c, 0, 56, 54
2, 25024, Note_on_c, 0, 61, 32
2, 25028, Note_on_c, 0, 66, 48
2, 25112, Note_on_c, 0, 71, 0
2, 25188, Note_on_c, 0, 66, 0
2, 25216, Note_on_c, 0, 61, 0
2, 25240, Note_on_c, 0, 70, 73
2, 25248, Note_on_c, 0, 65, 72
2, 25252, Note_on_c, 0, 60, 66
2, 25252, Note_on_c, 0, 55, 69
2, 25276, Note_on_c, 0, 56, 0
2, 25308, Note_on_c, 0, 60, 0
2, 25324, Note_on_c, 0, 55, 0
2, 25324, Note_on_c, 0, 65, 0
2, 25348, Note_on_c, 0, 70, 0
2, 25624, Note_on_c, 0, 62, 62
2, 25720, Note_on_c, 0, 62, 0
2, 25768, Note_on_c, 0, 66, 43
2, 25956, Note_on_c, 0, 66, 0
2, 25984, Note_on_c, 0, 63, 48
2, 25988, Note_on_c, 0, 60, 50
2, 25992, Note_on_c, 0, 69, 68
2, 26016, Note_on_c, 0, 60, 0
2, 26020, Note_on_c, 0, 63, 0
2, 26852, Note_on_c, 0, 69, 0
2, 26872, Note_on_c, 0, 65, 43
2, 26872, Note_on_c, 0, 54, 35
2, 26876, Note_on_c, 0, 60, 38
2, 26892, Note_on_c, 0, 58, 34
2, 27268, Note_on_c, 0, 84, 108
2, 27276, Note_on_c, 0, 60, 0
2, 27276, Note_on_c, 0, 65, 0
2, 27444, Note_on_c, 0, 58, 0
2, 27468, Note_on_c, 0, 54, 0
2, 27488, Note_on_c, 0, 84, 0
2, 27520, Note_on_c, 0, 62, 48
2, 27524, Note_on_c, 0, 57, 46
2, 27524, Note_on_c, 0, 58, 31
2, 27540, Note_on_c, 0, 55, 42
2, 27820, Note_on_c, 0, 81, 82
2, 27928, Note_on_c, 0, 81, 0
2, 27952, Note_on_c, 0, 78, 54
2, 28032, Note_on_c, 0, 78, 0
2, 28076, Note_on_c, 0, 79, 77
2, 28100, Note_on_c, 0, 62, 0
2, 28120, Note_on_c, 0, 57, 0
2, 28136, Note_on_c, 0, 55, 0
2, 28180, Note_on_c, 0, 58, 0
2, 28180, Note_on_c, 0, 79, 0
2, 28204, Note_on_c, 0, 74, 57
2, 28276, Note_on_c, 0, 74, 0
2, 28332, Note_on_c, 0, 72, 61
2, 28340, Note_on_c, 0, 62, 34
2, 28348, Note_on_c, 0, 57, 35
2, 28348, Note_on_c, 0, 58, 27
2, 28360, Note_on_c, 0, 55, 25
2, 28416, Note_on_c, 0, 72, 0
2, 28464, Note_on_c, 0, 70, 58
2, 28512, Note_on_c, 0, 62, 0
2, 28540, Note_on_c, 0, 58, 0
2, 28548, Note_on_c, 0, 70, 0
2, 28620, Note_on_c, 0, 57, 0
2, 28656, Note_on_c, 0, 72, 68
2, 28716, Note_on_c, 0, 70, 62
2, 28744, Note_on_c, 0, 72, 0
2, 28768, Note_on_c, 0, 62, 20
2, 28780, Note_on_c, 0, 58, 20
2, 28816, Note_on_c, 0, 70, 0
2, 28816, Note_on_c, 0, 69, 55
2, 28828, Note_on_c, 0, 55, 0
2, 28864, Note_on_c, 0, 58, 0
2, 28924, Note_on_c, 0, 62, 0
2, 29032, Note_on_c, 0, 69, 0
2, 29072, Note_on_c, 0, 68, 57
2, 29096, Note_on_c, 0, 60, 51
2, 29104, Note_on_c, 0, 57, 41
2, 29112, Note_on_c, 0, 55, 38
2, 29172, Note_on_c, 0, 68, 0
2, 29260, Note_on_c, 0, 66, 35
2, 29372, Note_on_c, 0, 60, 0
2, 29460, Note_on_c, 0, 57, 0
2, 29512, Note_on_c, 0, 66, 0
2, 29580, Note_on_c, 0, 69, 60
2, 29616, Note_on_c, 0, 55, 0
2, 29808, Note_on_c, 0, 69, 0
2, 29836, Note_on_c, 0, 72, 68
2, 29840, Note_on_c, 0, 65, 55
2, 29840, Note_on_c, 0, 60, 49
2, 29844, Note_on_c, 0, 54, 42
2, 29852, Note_on_c, 0, 58, 38
2, 30308, Note_on_c, 0, 72, 0
2, 30344, Note_on_c, 0, 75, 79
2, 30348, Note_on_c, 0, 65, 0
2, 30352, Note_on_c, 0, 60, 0
2, 30512, Note_on_c, 0, 58, 0
2, 30592, Note_on_c, 0, 75, 0
2, 30608, Note_on_c, 0, 54, 0
2, 30608, Note_on_c, 0, 72, 42
2, 30656, Note_on_c, 0, 72, 0
2, 30704, Note_on_c, 0, 62, 36
2, 30712, Note_on_c, 0, 73, 71
2, 30716, Note_on_c, 0, 55, 34
2, 30720, Note_on_c, 0, 58, 25
2, 30736, Note_on_c, 0, 57, 24
2, 30792, Note_on_c, 0, 74, 69
2, 30796, Note_on_c, 0, 73, 0
2, 30932, Note_on_c, 0, 74, 0
2, 30992, Note_on_c, 0, 62, 0
2, 31084, Note_on_c, 0, 58, 0
2, 31092, Note_on_c, 0, 65, 55
2, 31096, Note_on_c, 0, 57, 0
2, 31420, Note_on_c, 0, 65, 0
2, 31456, Note_on_c, 0, 55, 0
2, 31488, Note_on_c, 0, 70, 74
2, 31736, Note_on_c, 0, 70, 0
2, 31752, Note_on_c, 0, 62, 63
2, 31764, Note_on_c, 0, 50, 60
2, 31776, Note_on_c, 0, 62, 0
2, 31796, Note_on_c, 0, 50, 0
2, 32236, Note_on_c, 0, 63, 57
2, 32244, Note_on_c, 0, 86, 67
2, 32248, Note_on_c, 0, 74, 72
2, 32256, Note_on_c, 0, 60, 35
2, 32264, Note_on_c, 0, 57, 27
2, 32268, Note_on_c, 0, 74, 0
2, 32272, Note_on_c, 0, 63, 0
2, 32288, Note_on_c, 0, 86, 0
2, 32292, Note_on_c, 0, 60, 0
2, 32304, Note_on_c, 0, 57, 0
2, 32632, Note_on_c, 0, 63, 65
2, 32636, Control_c, 0, 64, 127
2, 32640, Note_on_c, 0, 78, 71
2, 32640, Note_on_c, 0, 55, 60
2, 32640, Note_on_c, 0, 90, 69
2, 32664, Note_on_c, 0, 60, 29
2, 32708, Note_on_c, 0, 60, 0
2, 32800, Note_on_c, 0, 90, 0
2, 32824, Note_on_c, 0, 55, 0
2, 32836, Note_on_c, 0, 78, 0
2, 32856, Note_on_c, 0, 63, 0
2, 32948, Control_c, 0, 64, 0
2, 33020, Note_on_c, 0, 65, 66
2, 33020, Note_on_c, 0, 58, 44
2, 33020, Note_on_c, 0, 54, 54
2, 33024, Note_on_c, 0, 60, 53
2, 33024, Note_on_c, 0, 93, 69
2, 33032, Note_on_c, 0, 81, 57
2, 33032, Control_c, 0, 64, 127
2, 33124, Note_on_c, 0, 81, 0
2, 33152, Note_on_c, 0, 93, 0
2, 33156, Note_on_c, 0, 65, 0
2, 33180, Note_on_c, 0, 58, 0
2, 33180, Note_on_c, 0, 54, 0
2, 33184, Note_on_c, 0, 60, 0
2, 33284, Note_on_c, 0, 54, 63
2, 33288, Note_on_c, 0, 96, 73
2, 33288, Note_on_c, 0, 65, 68
2, 33288, Note_on_c, 0, 58, 52
2, 33292, Note_on_c, 0, 84, 66
2, 33296, Note_on_c, 0, 60, 54
2, 33328, Note_on_c, 0, 84, 0
2, 33340, Note_on_c, 0, 96, 0
2, 33348, Note_on_c, 0, 65, 0
2, 33356, Control_c, 0, 64, 0
2, 33368, Note_on_c, 0, 54, 0
2, 33380, Note_on_c, 0, 60, 0
2, 33400, Note_on_c, 0, 58, 0
2, 33420, Note_on_c, 0, 54, 52
2, 33432, Note_on_c, 0, 65, 39
2, 33436, Note_on_c, 0, 81, 55
2, 33436, Note_on_c, 0, 58, 18
2, 33444, Note_on_c, 0, 60, 40
2, 33488, Note_on_c, 0, 81, 0
2, 33496, Note_on_c, 0, 65, 0
2, 33528, Note_on_c, 0, 60, 0
2, 33568, Control_c, 0, 64, 127
2, 33600, Note_on_c, 0, 58, 0
2, 33612, Note_on_c, 0, 54, 0
2, 33660, Note_on_c, 0, 58, 47
2, 33664, Note_on_c, 0, 62, 69
2, 33664, Note_on_c, 0, 57, 68
2, 33664, Note_on_c, 0, 94, 77
2, 33664, Note_on_c, 0, 82, 69
2, 33668, Control_c, 0, 64, 0
2, 33676, Note_on_c, 0, 55, 56
2, 33836, Control_c, 0, 64, 127
2, 34060, Note_on_c, 0, 62, 0
2, 34092, Note_on_c, 0, 55, 0
2, 34100, Note_on_c, 0, 57, 0
2, 34104, Note_on_c, 0, 94, 0
2, 34132, Note_on_c, 0, 82, 0
2, 34148, Note_on_c, 0, 58, 0
2, 34184, Note_on_c, 0, 54, 50
2, 34188, Control_c, 0, 64, 0
2, 34192, Note_on_c, 0, 93, 58
2, 34200, Note_on_c, 0, 58, 30
2, 34204, Note_on_c, 0, 62, 33
2, 34216, Note_on_c, 0, 81, 40
2, 34288, Control_c, 0, 64, 127
2, 34328, Note_on_c, 0, 93, 0
2, 34360, Note_on_c, 0, 62, 0
2, 34380, Note_on_c, 0, 81, 0
2, 34400, Note_on_c, 0, 54, 0
2, 34444, Note_on_c, 0, 91, 56
2, 34456, Note_on_c, 0, 62, 49
2, 34456, Note_on_c, 0, 79, 47
2, 34468, Note_on_c, 0, 53, 44
2, 34492, Control_c, 0, 64, 0
2, 34508, Note_on_c, 0, 91, 0
2, 34540, Note_on_c, 0, 79, 0
2, 34872, Note_on_c, 0, 74, 105
2, 34984, Note_on_c, 0, 74, 0
2, 35012, Note_on_c, 0, 53, 0
2, 35012, Note_on_c, 0, 62, 0
2, 35020, Note_on_c, 0, 58, 0
2, 35060, Note_on_c, 0, 71, 37
2, 35220, Note_on_c, 0, 71, 0
2, 35260, Note_on_c, 0, 72, 67
2, 35280, Note_on_c, 0, 62, 33
2, 35292, Note_on_c, 0, 58, 30
2, 35320, Note_on_c, 0, 62, 0
2, 35344, Note_on_c, 0, 58, 0
2, 35444, Note_on_c, 0, 67, 57
2, 35572, Note_on_c, 0, 72, 0
2, 35644, Note_on_c, 0, 67, 0
2, 35748, Note_on_c, 0, 65, 74
2, 36004, Note_on_c, 0, 65, 0
2, 36020, Note_on_c, 0, 58, 23
2, 36048, Note_on_c, 0, 58, 0
2, 36120, Note_on_c, 0, 64, 60
2, 36364, Note_on_c, 0, 64, 0
2, 36384, Note_on_c, 0, 60, 61
2, 36864, Note_on_c, 0, 57, 34
2, 36876, Note_on_c, 0, 51, 37
2, 37180, Note_on_c, 0, 60, 0
2, 37232, Note_on_c, 0, 63, 39
2, 37296, Note_on_c, 0, 63, 0
2, 37316, Note_on_c, 0, 57, 0
2, 37336, Note_on_c, 0, 65, 58
2, 37404, Note_on_c, 0, 65, 0
2, 37440, Note_on_c, 0, 66, 56
2, 37464, Note_on_c, 0, 66, 0
2, 37536, Note_on_c, 0, 57, 29
2, 37544, Note_on_c, 0, 69, 58
2, 37632, Note_on_c, 0, 69, 0
2, 37696, Note_on_c, 0, 57, 0
2, 37696, Note_on_c, 0, 51, 0
2, 37880, Note_on_c, 0, 62, 52
2, 37880, Note_on_c, 0, 51, 42
2, 37884, Note_on_c, 0, 57, 49
2, 37908, Note_on_c, 0, 62, 0
2, 37928, Note_on_c, 0, 57, 0
2, 37932, Note_on_c, 0, 51, 0
2, 38108, Note_on_c, 0, 73, 59
2, 38152, Note_on_c, 0, 73, 0
2, 38208, Note_on_c, 0, 75, 71
2, 38264, Note_on_c, 0, 75, 0
2, 38304, Note_on_c, 0, 77, 71
2, 38308, Note_on_c, 0, 76, 64
2, 38364, Note_on_c, 0, 65, 53
2, 38372, Note_on_c, 0, 76, 0
2, 38372, Note_on_c, 0, 77, 0
2, 38376, Note_on_c, 0, 62, 38
2, 38376, Note_on_c, 0, 60, 49
2, 38396, Note_on_c, 0, 55, 49
2, 38424, Note_on_c, 0, 74, 69
2, 38596, Note_on_c, 0, 74, 0
2, 38632, Note_on_c, 0, 69, 62
2, 39072, Note_on_c, 0, 69, 0
2, 39148, Note_on_c, 0, 79, 77
2, 39152, Note_on_c, 0, 65, 0
2, 39252, Note_on_c, 0, 60, 0
2, 39252, Note_on_c, 0, 78, 60
2, 39256, Note_on_c, 0, 79, 0
2, 39260, Note_on_c, 0, 62, 0
2, 39364, Note_on_c, 0, 73, 49
2, 39384, Note_on_c, 0, 78, 0
2, 39468, Note_on_c, 0, 72, 37
2, 39488, Note_on_c, 0, 73, 0
2, 39524, Note_on_c, 0, 72, 0
2, 39524, Note_on_c, 0, 62, 22
2, 39572, Note_on_c, 0, 62, 0
2, 39628, Note_on_c, 0, 55, 0
2, 40212, Note_on_c, 0, 65, 58
2, 40220, Note_on_c, 0, 58, 35
2, 40232, Note_on_c, 0, 60, 36
2, 40236, Note_on_c, 0, 65, 0
2, 40260, Note_on_c, 0, 60, 0
2, 40264, Note_on_c, 0, 58, 0
2, 40612, Note_on_c, 0, 60, 80
2, 40612, Note_on_c, 0, 61, 69
2, 40616, Note_on_c, 0, 65, 84
2, 40624, Note_on_c, 0, 58, 40
2, 40636, Note_on_c, 0, 55, 51
2, 40660, Note_on_c, 0, 55, 0
2, 40672, Note_on_c, 0, 65, 0
2, 40672, Note_on_c, 0, 58, 0
2, 40728, Note_on_c, 0, 55, 32
2, 40732, Note_on_c, 0, 65, 36
2, 40760, Note_on_c, 0, 77, 103
2, 40896, Note_on_c, 0, 65, 0
2, 40924, Note_on_c, 0, 55, 0
2, 40936, Note_on_c, 0, 60, 0
2, 40940, Note_on_c, 0, 61, 0
2, 40956, Note_on_c, 0, 77, 0
2, 41004, Note_on_c, 0, 76, 77
2, 41012, Note_on_c, 0, 61, 42
2, 41012, Note_on_c, 0, 60, 58
2, 41020, Note_on_c, 0, 65, 56
2, 41044, Note_on_c, 0, 65, 0
2, 41080, Note_on_c, 0, 60, 0
2, 41096, Note_on_c, 0, 61, 0
2, 41104, Note_on_c, 0, 76, 0
2, 41148, Note_on_c, 0, 55, 36
2, 41148, Note_on_c, 0, 61, 15
2, 41156, Note_on_c, 0, 60, 33
2, 41160, Note_on_c, 0, 75, 52
2, 41164, Note_on_c, 0, 65, 28
2, 41220, Note_on_c, 0, 65, 0
2, 41300, Note_on_c, 0, 55, 0
2, 41308, Note_on_c, 0, 60, 0
2, 41320, Note_on_c, 0, 61, 0
2, 41392, Note_on_c, 0, 58, 23
2, 41396, Note_on_c, 0, 75, 0
2, 41412, Note_on_c, 0, 69, 62
2, 41460, Note_on_c, 0, 58, 0
2, 41464, Note_on_c, 0, 69, 0
2, 41536, Note_on_c, 0, 70, 56
2, 41536, Note_on_c, 0, 74, 61
2, 41544, Note_on_c, 0, 60, 49
2, 41544, Note_on_c, 0, 54, 46
2, 41544, Note_on_c, 0, 65, 51
2, 41572, Control_c, 0, 64, 127
2, 41832, Note_on_c, 0, 65, 0
2, 41868, Note_on_c, 0, 60, 0
2, 41876, Note_on_c, 0, 70, 0
2, 41892, Note_on_c, 0, 54, 0
2, 41896, Note_on_c, 0, 74, 0
2, 42220, Control_c, 0, 64, 0
2, 42260, Note_on_c, 0, 65, 74
2, 42260, Note_on_c, 0, 82, 63
2, 42264, Note_on_c, 0, 54, 65
2, 42264, Note_on_c, 0, 60, 64
2, 42264, Note_on_c, 0, 77, 68
2, 42268, Note_on_c, 0, 86, 71
2, 42268, Note_on_c, 0, 58, 50
2, 42324, Control_c, 0, 64, 127
2, 42448, Note_on_c, 0, 65, 0
2, 42456, Note_on_c, 0, 54, 0
2, 42464, Note_on_c, 0, 60, 0
2, 42464, Note_on_c, 0, 58, 0
2, 42480, Note_on_c, 0, 86, 0
2, 42484, Note_on_c, 0, 77, 0
2, 42520, Note_on_c, 0, 54, 59
2, 42524, Note_on_c, 0, 65, 64
2, 42524, Note_on_c, 0, 89, 78
2, 42528, Note_on_c, 0, 58, 45
2, 42528, Note_on_c, 0, 60, 60
2, 42576, Note_on_c, 0, 65, 0
2, 42576, Note_on_c, 0, 82, 0
2, 42604, Note_on_c, 0, 60, 0
2, 42604, Control_c, 0, 64, 0
2, 42608, Note_on_c, 0, 54, 0
2, 42608, Note_on_c, 0, 89, 0
2, 42608, Note_on_c, 0, 58, 0
2, 42660, Note_on_c, 0, 54, 50
2, 42760, Note_on_c, 0, 54, 0
2, 42896, Note_on_c, 0, 59, 74
2, 42896, Note_on_c, 0, 53, 81
2, 42900, Note_on_c, 0, 64, 80
2, 42900, Note_on_c, 0, 79, 81
2, 42900, Note_on_c, 0, 91, 82
2, 42936, Note_on_c, 0, 64, 0
2, 42940, Note_on_c, 0, 79, 0
2, 42952, Note_on_c, 0, 59, 0
2, 42968, Note_on_c, 0, 91, 0
2, 42972, Note_on_c, 0, 53, 0
2, 43292, Note_on_c, 0, 93, 90
2, 43292, Note_on_c, 0, 59, 84
2, 43296, Note_on_c, 0, 81, 90
2, 43296, Note_on_c, 0, 53, 85
2, 43296, Note_on_c, 0, 88, 85
2, 43296, Note_on_c, 0, 64, 87
2, 43312, Note_on_c, 0, 91, 49
2, 43336, Note_on_c, 0, 91, 0
2, 43452, Control_c, 0, 64, 127
2, 43860, Note_on_c, 0, 64, 0
2, 43920, Note_on_c, 0, 88, 0
2, 43932, Note_on_c, 0, 53, 0
2, 43940, Note_on_c, 0, 59, 0
2, 43948, Note_on_c, 0, 93, 0
2, 43956, Note_on_c, 0, 81, 0
2, 44160, Note_on_c, 0, 59, 61
2, 44164, Note_on_c, 0, 53, 58
2, 44168, Note_on_c, 0, 92, 62
2, 44168, Note_on_c, 0, 80, 58
2, 44168, Control_c, 0, 64, 0
2, 44172, Note_on_c, 0, 64, 58
2, 44172, Note_on_c, 0, 87, 57
2, 44272, Note_on_c, 0, 59, 0
2, 44288, Note_on_c, 0, 64, 0
2, 44328, Note_on_c, 0, 92, 0
2, 44332, Note_on_c, 0, 87, 0
2, 44336, Note_on_c, 0, 80, 0
2, 44336, Note_on_c, 0, 53, 0
2, 44576, Note_on_c, 0, 91, 62
2, 44576, Note_on_c, 0, 57, 38
2, 44580, Note_on_c, 0, 79, 55
2, 44584, Note_on_c, 0, 62, 39
2, 44584, Note_on_c, 0, 58, 33
2, 44588, Note_on_c, 0, 52, 53
2, 44588, Note_on_c, 0, 86, 51
2, 44996, Note_on_c, 0, 79, 0
2, 45008, Control_c, 0, 64, 127
2, 45020, Note_on_c, 0, 86, 0
2, 45040, Note_on_c, 0, 91, 0
2, 45044, Note_on_c, 0, 57, 0
2, 45044, Note_on_c, 0, 52, 0
2, 45048, Note_on_c, 0, 62, 0
2, 45052, Note_on_c, 0, 58, 0
2, 45112, Control_c, 0, 64, 0
2, 45148, Control_c, 0, 64, 127
2, 45296, Control_c, 0, 64, 0
2, 45320, Note_on_c, 0, 98, 78
2, 45324, Note_on_c, 0, 62, 70
2, 45324, Note_on_c, 0, 57, 62
2, 45328, Note_on_c, 0, 86, 59
2, 45328, Note_on_c, 0, 91, 58
2, 45332, Note_on_c, 0, 58, 37
2, 45332, Note_on_c, 0, 52, 55
2, 45516, Note_on_c, 0, 58, 0
2, 45516, Note_on_c, 0, 98, 0
2, 45516, Note_on_c, 0, 62, 0
2, 45520, Note_on_c, 0, 57, 0
2, 45524, Note_on_c, 0, 91, 0
2, 45528, Note_on_c, 0, 52, 0
2, 45532, Note_on_c, 0, 86, 0
2, 45704, Note_on_c, 0, 96, 73
2, 45712, Note_on_c, 0, 91, 62
2, 45712, Note_on_c, 0, 58, 50
2, 45716, Note_on_c, 0, 57, 51
2, 45720, Note_on_c, 0, 84, 51
2, 45720, Note_on_c, 0, 62, 66
2, 45724, Note_on_c, 0, 52, 35
2, 45796, Note_on_c, 0, 57, 0
2, 45804, Note_on_c, 0, 52, 0
2, 45808, Note_on_c, 0, 96, 0
2, 45820, Note_on_c, 0, 91, 0
2, 45836, Note_on_c, 0, 58, 0
2, 45840, Note_on_c, 0, 84, 0
2, 45868, Note_on_c, 0, 62, 0
2, 46100, Control_c, 0, 64, 127
2, 46104, Note_on_c, 0, 58, 55
2, 46108, Note_on_c, 0, 67, 64
2, 46112, Note_on_c, 0, 63, 51
2, 46112, Note_on_c, 0, 94, 67
2, 46112, Note_on_c, 0, 87, 59
2, 46116, Note_on_c, 0, 82, 46
2, 46120, Note_on_c, 0, 62, 54
2, 46124, Note_on_c, 0, 91, 44
2, 46228, Note_on_c, 0, 91, 0
2, 46232, Note_on_c, 0, 87, 0
2, 46272, Note_on_c, 0, 82, 0
2, 46280, Note_on_c, 0, 67, 0
2, 46280, Note_on_c, 0, 62, 0
2, 46284, Note_on_c, 0, 94, 0
2, 46288, Note_on_c, 0, 63, 0
2, 46288, Note_on_c, 0, 58, 0
2, 46368, Note_on_c, 0, 96, 63
2, 46368, Note_on_c, 0, 62, 47
2, 46372, Note_on_c, 0, 84, 64
2, 46372, Note_on_c, 0, 63, 37
2, 46372, Note_on_c, 0, 58, 42
2, 46376, Note_on_c, 0, 67, 43
2, 46408, Note_on_c, 0, 84, 0
2, 46412, Note_on_c, 0, 67, 0
2, 46420, Note_on_c, 0, 96, 0
2, 46452, Note_on_c, 0, 58, 0
2, 46456, Note_on_c, 0, 63, 0
2, 46456, Note_on_c, 0, 62, 0
2, 46460, Control_c, 0, 64, 0
2, 46500, Note_on_c, 0, 58, 25
2, 46520, Note_on_c, 0, 67, 40
2, 46528, Note_on_c, 0, 82, 28
2, 46532, Note_on_c, 0, 62, 27
2, 46540, Note_on_c, 0, 63, 21
2, 46592, Note_on_c, 0, 67, 0
2, 46604, Note_on_c, 0, 62, 0
2, 46604, Control_c, 0, 64, 127
2, 46608, Note_on_c, 0, 82, 0
2, 46676, Note_on_c, 0, 58, 0
2, 46676, Note_on_c, 0, 63, 0
2, 46744, Note_on_c, 0, 96, 83
2, 46748, Note_on_c, 0, 63, 62
2, 46748, Note_on_c, 0, 91, 71
2, 46752, Control_c, 0, 64, 0
2, 46752, Note_on_c, 0, 84, 72
2, 46756, Note_on_c, 0, 67, 74
2, 46756, Note_on_c, 0, 57, 75
2, 46868, Note_on_c, 0, 96, 0
2, 46872, Control_c, 0, 64, 127
2, 46884, Note_on_c, 0, 91, 0
2, 46916, Note_on_c, 0, 84, 0
2, 47076, Note_on_c, 0, 77, 64
2, 47124, Note_on_c, 0, 77, 0
2, 47176, Note_on_c, 0, 79, 66
2, 47232, Note_on_c, 0, 79, 0
2, 47236, Control_c, 0, 64, 0
2, 47296, Note_on_c, 0, 82, 82
2, 47304, Note_on_c, 0, 67, 0
2, 47424, Note_on_c, 0, 63, 0
2, 47452, Note_on_c, 0, 82, 0
2, 47464, Note_on_c, 0, 57, 0
2, 47516, Note_on_c, 0, 82, 85
2, 47524, Note_on_c, 0, 65, 64
2, 47536, Note_on_c, 0, 62, 55
2, 47544, Note_on_c, 0, 60, 45
2, 47784, Note_on_c, 0, 82, 0
2, 47800, Note_on_c, 0, 77, 55
2, 47836, Note_on_c, 0, 77, 0
2, 47908, Note_on_c, 0, 79, 59
2, 47964, Note_on_c, 0, 79, 0
2, 48024, Note_on_c, 0, 82, 82
2, 48124, Note_on_c, 0, 82, 0
2, 48256, Note_on_c, 0, 82, 90
2, 48524, Note_on_c, 0, 82, 0
2, 48532, Note_on_c, 0, 77, 45
2, 48564, Note_on_c, 0, 77, 0
2, 48640, Note_on_c, 0, 79, 65
2, 48696, Note_on_c, 0, 79, 0
2, 48776, Note_on_c, 0, 62, 0
2, 48776, Note_on_c, 0, 82, 80
2, 48784, Note_on_c, 0, 60, 0
2, 48784, Control_c, 0, 64, 127
2, 48828, Note_on_c, 0, 65, 0
2, 48896, Note_on_c, 0, 82, 0
2, 49020, Note_on_c, 0, 82, 90
2, 49028, Note_on_c, 0, 66, 65
2, 49032, Note_on_c, 0, 63, 52
2, 49032, Note_on_c, 0, 61, 43
2, 49040, Control_c, 0, 64, 0
2, 49076, Note_on_c, 0, 66, 0
2, 49092, Note_on_c, 0, 61, 0
2, 49100, Note_on_c, 0, 63, 0
2, 49276, Note_on_c, 0, 77, 52
2, 49324, Note_on_c, 0, 77, 0
2, 49348, Note_on_c, 0, 82, 0
2, 49396, Note_on_c, 0, 79, 64
2, 49460, Note_on_c, 0, 79, 0
2, 49504, Control_c, 0, 64, 127
2, 49516, Note_on_c, 0, 82, 77
2, 49636, Note_on_c, 0, 82, 0
2, 49760, Note_on_c, 0, 63, 54
2, 49764, Note_on_c, 0, 68, 71
2, 49764, Note_on_c, 0, 82, 84
2, 49772, Note_on_c, 0, 61, 46
2, 49772, Note_on_c, 0, 57, 54
2, 49780, Control_c, 0, 64, 0
2, 50044, Note_on_c, 0, 82, 0
2, 50044, Note_on_c, 0, 77, 49
2, 50080, Note_on_c, 0, 77, 0
2, 50152, Note_on_c, 0, 79, 68
2, 50168, Control_c, 0, 64, 127
2, 50208, Note_on_c, 0, 79, 0
2, 50264, Note_on_c, 0, 68, 0
2, 50280, Note_on_c, 0, 82, 69
2, 50280, Control_c, 0, 64, 0
2, 50380, Note_on_c, 0, 57, 0
2, 50396, Control_c, 0, 64, 127
2, 50400, Note_on_c, 0, 82, 0
2, 50524, Note_on_c, 0, 61, 0
2, 50524, Note_on_c, 0, 63, 0
2, 50540, Note_on_c, 0, 84, 96
2, 50556, Note_on_c, 0, 65, 53
2, 50560, Note_on_c, 0, 62, 45
2, 50568, Note_on_c, 0, 60, 44
2, 50588, Note_on_c, 0, 55, 44
2, 50624, Note_on_c, 0, 84, 0
2, 50648, Control_c, 0, 64, 0
2, 50700, Note_on_c, 0, 82, 62
2, 50880, Note_on_c, 0, 82, 0
2, 51060, Note_on_c, 0, 82, 56
2, 51060, Note_on_c, 0, 70, 69
2, 51068, Note_on_c, 0, 65, 0
2, 51072, Note_on_c, 0, 79, 57
2, 51100, Note_on_c, 0, 60, 0
2, 51104, Note_on_c, 0, 62, 0
2, 51236, Note_on_c, 0, 70, 0
2, 51252, Note_on_c, 0, 79, 0
2, 51264, Note_on_c, 0, 55, 0
2, 51268, Note_on_c, 0, 82, 0
2, 51328, Note_on_c, 0, 36, 58
2, 51348, Note_on_c, 0, 36, 0
2, 51444, Note_on_c, 0, 82, 59
2, 51448, Note_on_c, 0, 73, 71
2, 51456, Note_on_c, 0, 79, 54
2, 51600, Note_on_c, 0, 82, 0
2, 51608, Note_on_c, 0, 73, 0
2, 51616, Note_on_c, 0, 79, 0
2, 53624, Note_on_c, 0, 35, 55
2, 53652, Note_on_c, 0, 35, 0
2, 54284, Note_on_c, 0, 82, 54
2, 54320, Note_on_c, 0, 82, 0
2, 54384, Note_on_c, 0, 86, 87
2, 54408, Note_on_c, 0, 65, 53
2, 54416, Note_on_c, 0, 54, 33
2, 54424, Note_on_c, 0, 60, 48
2, 54432, Note_on_c, 0, 58, 30
2, 54464, Note_on_c, 0, 86, 0
2, 54472, Note_on_c, 0, 82, 62
2, 54496, Note_on_c, 0, 65, 0
2, 54572, Note_on_c, 0, 77, 40
2, 54576, Note_on_c, 0, 82, 0
2, 54612, Note_on_c, 0, 60, 0
2, 54640, Note_on_c, 0, 77, 0
2, 54676, Note_on_c, 0, 58, 0
2, 54756, Note_on_c, 0, 82, 80
2, 54764, Note_on_c, 0, 65, 37
2, 54772, Note_on_c, 0, 60, 44
2, 54804, Note_on_c, 0, 65, 0
2, 54836, Note_on_c, 0, 60, 0
2, 54840, Note_on_c, 0, 82, 0
2, 54956, Note_on_c, 0, 82, 71
2, 54960, Note_on_c, 0, 60, 48
2, 54968, Note_on_c, 0, 65, 36
2, 54976, Note_on_c, 0, 58, 33
2, 55016, Note_on_c, 0, 65, 0
2, 55056, Note_on_c, 0, 77, 60
2, 55068, Note_on_c, 0, 82, 0
2, 55112, Note_on_c, 0, 77, 0
2, 55112, Note_on_c, 0, 60, 0
2, 55156, Note_on_c, 0, 74, 36
2, 55216, Note_on_c, 0, 74, 0
2, 55248, Control_c, 0, 64, 127
2, 55300, Note_on_c, 0, 54, 0
2, 55308, Control_c, 0, 64, 0
2, 55312, Note_on_c, 0, 58, 0
2, 55332, Note_on_c, 0, 59, 41
2, 55340, Note_on_c, 0, 53, 34
2, 55356, Note_on_c, 0, 79, 72
2, 55360, Note_on_c, 0, 64, 22
2, 55404, Note_on_c, 0, 64, 0
2, 55416, Note_on_c, 0, 79, 0
2, 55432, Note_on_c, 0, 59, 0
2, 55536, Note_on_c, 0, 79, 85
2, 55568, Note_on_c, 0, 59, 47
2, 55576, Note_on_c, 0, 64, 35
2, 55604, Note_on_c, 0, 79, 0
2, 55620, Note_on_c, 0, 64, 0
2, 55632, Note_on_c, 0, 75, 67
2, 55712, Note_on_c, 0, 70, 57
2, 55748, Note_on_c, 0, 75, 0
2, 55816, Note_on_c, 0, 53, 0
2, 55816, Note_on_c, 0, 67, 31
2, 55828, Note_on_c, 0, 70, 0
2, 55844, Note_on_c, 0, 59, 0
2, 55872, Note_on_c, 0, 67, 0
2, 55960, Note_on_c, 0, 73, 72
2, 56028, Note_on_c, 0, 73, 0
2, 56328, Note_on_c, 0, 59, 60
2, 56332, Note_on_c, 0, 64, 30
2, 56360, Note_on_c, 0, 64, 0
2, 56408, Note_on_c, 0, 59, 0
2, 56596, Note_on_c, 0, 69, 42
2, 56628, Note_on_c, 0, 69, 0
2, 56696, Note_on_c, 0, 73, 79
2, 56728, Note_on_c, 0, 58, 31
2, 56732, Note_on_c, 0, 62, 32
2, 56740, Note_on_c, 0, 57, 22
2, 56760, Note_on_c, 0, 62, 0
2, 56772, Note_on_c, 0, 57, 0
2, 56776, Note_on_c, 0, 58, 0
2, 56776, Note_on_c, 0, 73, 0
2, 56832, Note_on_c, 0, 62, 39
2, 56836, Note_on_c, 0, 57, 24
2, 56844, Note_on_c, 0, 58, 42
2, 56848, Note_on_c, 0, 69, 48
2, 56976, Note_on_c, 0, 58, 0
2, 57104, Note_on_c, 0, 58, 36
2, 57108, Note_on_c, 0, 69, 0
2, 57124, Note_on_c, 0, 62, 0
2, 57132, Note_on_c, 0, 68, 79
2, 57144, Note_on_c, 0, 58, 0
2, 57224, Note_on_c, 0, 68, 0
2, 57236, Note_on_c, 0, 57, 0
2, 57288, Note_on_c, 0, 67, 30
2, 57476, Note_on_c, 0, 67, 0
2, 57508, Note_on_c, 0, 60, 61
2, 57520, Note_on_c, 0, 57, 32
2, 57548, Note_on_c, 0, 57, 0
2, 57608, Note_on_c, 0, 60, 0
2, 57988, Note_on_c, 0, 62, 46
2, 57996, Note_on_c, 0, 58, 38
2, 58012, Note_on_c, 0, 57, 29
2, 58028, Note_on_c, 0, 62, 0
2, 58040, Note_on_c, 0, 57, 0
2, 58056, Note_on_c, 0, 58, 0
2, 58368, Note_on_c, 0, 58, 72
2, 58372, Note_on_c, 0, 70, 57
2, 58380, Note_on_c, 0, 67, 62
2, 58384, Note_on_c, 0, 63, 57
2, 58392, Control_c, 0, 64, 127
2, 58404, Control_c, 0, 64, 0
2, 58524, Note_on_c, 0, 58, 0
2, 58528, Note_on_c, 0, 67, 0
2, 58532, Note_on_c, 0, 63, 0
2, 58544, Note_on_c, 0, 70, 0
2, 58684, Note_on_c, 0, 57, 33
2, 58724, Note_on_c, 0, 57, 0
2, 58768, Note_on_c, 0, 61, 88
2, 58772, Note_on_c, 0, 70, 77
2, 58776, Note_on_c, 0, 67, 75
2, 58940, Note_on_c, 0, 70, 0
2, 58960, Note_on_c, 0, 67, 0
2, 58964, Note_on_c, 0, 61, 0
2, 59064, Note_on_c, 0, 58, 28
2, 59116, Note_on_c, 0, 58, 0
2, 59156, Note_on_c, 0, 70, 81
2, 59160, Note_on_c, 0, 63, 83
2, 59164, Note_on_c, 0, 67, 77
2, 59356, Note_on_c, 0, 70, 0
2, 59368, Note_on_c, 0, 63, 0
2, 59400, Note_on_c, 0, 67, 0
2, 59440, Note_on_c, 0, 58, 34
2, 59448, Note_on_c, 0, 61, 44
2, 59472, Note_on_c, 0, 58, 0
2, 59476, Note_on_c, 0, 61, 0
2, 59536, Note_on_c, 0, 66, 51
2, 59536, Note_on_c, 0, 63, 75
2, 59540, Note_on_c, 0, 70, 73
2, 59552, Note_on_c, 0, 67, 70
2, 59556, Control_c, 0, 64, 127
2, 59560, Control_c, 0, 64, 0
2, 59728, Note_on_c, 0, 66, 0
2, 59752, Note_on_c, 0, 63, 0
2, 59764, Note_on_c, 0, 67, 0
2, 59772, Note_on_c, 0, 70, 0
2, 59800, Note_on_c, 0, 61, 52
2, 59816, Note_on_c, 0, 53, 72
2, 59840, Note_on_c, 0, 53, 0
2, 59848, Note_on_c, 0, 61, 0
2, 60012, Note_on_c, 0, 63, 73
2, 60016, Note_on_c, 0, 70, 68
2, 60020, Note_on_c, 0, 67, 68
2, 60176, Note_on_c, 0, 70, 0
2, 60192, Note_on_c, 0, 63, 0
2, 60196, Note_on_c, 0, 48, 53
2, 60200, Note_on_c, 0, 67, 0
2, 60220, Note_on_c, 0, 48, 0
2, 60288, Note_on_c, 0, 61, 64
2, 60452, Note_on_c, 0, 61, 0
2, 60528, Note_on_c, 0, 63, 75
2, 60532, Note_on_c, 0, 70, 74
2, 60536, Note_on_c, 0, 67, 73
2, 60936, Note_on_c, 0, 53, 91
2, 61184, Control_c, 0, 64, 127
2, 61320, Note_on_c, 0, 53, 0
2, 61332, Note_on_c, 0, 48, 50
2, 61372, Note_on_c, 0, 48, 0
2, 61424, Control_c, 0, 64, 0
2, 61440, Note_on_c, 0, 67, 0
2, 61448, Note_on_c, 0, 51, 60
2, 61452, Note_on_c, 0, 41, 61
2, 61456, Note_on_c, 0, 63, 0
2, 61464, Note_on_c, 0, 70, 0
2, 61680, Note_on_c, 0, 53, 51
2, 61748, Note_on_c, 0, 53, 0
2, 61820, Note_on_c, 0, 54, 33
2, 61848, Note_on_c, 0, 54, 0
2, 61916, Note_on_c, 0, 57, 54
2, 61992, Note_on_c, 0, 57, 0
2, 62052, Note_on_c, 0, 61, 62
2, 62080, Note_on_c, 0, 60, 47
2, 62160, Note_on_c, 0, 60, 0
2, 62276, Note_on_c, 0, 61, 0
2, 62316, Note_on_c, 0, 51, 0
2, 62324, Note_on_c, 0, 63, 62
2, 62408, Note_on_c, 0, 63, 0
2, 62448, Note_on_c, 0, 65, 72
2, 62476, Note_on_c, 0, 51, 47
2, 62492, Note_on_c, 0, 41, 0
2, 62540, Note_on_c, 0, 65, 0
2, 62556, Note_on_c, 0, 51, 0
2, 62592, Note_on_c, 0, 66, 51
2, 62660, Note_on_c, 0, 66, 0
2, 62744, Note_on_c, 0, 69, 60
2, 62788, Note_on_c, 0, 69, 0
2, 62864, Note_on_c, 0, 70, 83
2, 62868, Note_on_c, 0, 65, 58
2, 62880, Note_on_c, 0, 62, 49
2, 62896, Note_on_c, 0, 60, 34
2, 62972, Note_on_c, 0, 70, 0
2, 63000, Note_on_c, 0, 68, 54
2, 63028, Note_on_c, 0, 65, 0
2, 63084, Note_on_c, 0, 68, 0
2, 63112, Note_on_c, 0, 62, 0
2, 63124, Note_on_c, 0, 69, 66
2, 63192, Note_on_c, 0, 69, 0
2, 63220, Note_on_c, 0, 62, 26
2, 63308, Note_on_c, 0, 62, 0
2, 63340, Note_on_c, 0, 60, 0
2, 63628, Note_on_c, 0, 65, 60
2, 63628, Note_on_c, 0, 62, 60
2, 63644, Note_on_c, 0, 60, 44
2, 63656, Note_on_c, 0, 65, 0
2, 63676, Note_on_c, 0, 60, 0
2, 63692, Note_on_c, 0, 62, 0
2, 63748, Note_on_c, 0, 69, 58
2, 63800, Note_on_c, 0, 69, 0
2, 63828, Note_on_c, 0, 70, 52
2, 63852, Note_on_c, 0, 70, 0
2, 63916, Note_on_c, 0, 74, 74
2, 63984, Note_on_c, 0, 74, 0
2, 64008, Note_on_c, 0, 77, 68
2, 64092, Note_on_c, 0, 65, 35
2, 64100, Note_on_c, 0, 62, 38
2, 64112, Note_on_c, 0, 81, 68
2, 64116, Note_on_c, 0, 77, 0
2, 64132, Note_on_c, 0, 60, 29
2, 64136, Note_on_c, 0, 65, 0
2, 64188, Note_on_c, 0, 62, 0
2, 64196, Note_on_c, 0, 81, 0
2, 64240, Note_on_c, 0, 82, 48
2, 64260, Note_on_c, 0, 60, 0
2, 64296, Note_on_c, 0, 82, 0
2, 64332, Note_on_c, 0, 84, 75
2, 64412, Note_on_c, 0, 84, 0
2, 64524, Note_on_c, 0, 65, 53
2, 64528, Note_on_c, 0, 60, 40
2, 64532, Note_on_c, 0, 61, 36
2, 64552, Note_on_c, 0, 55, 36
2, 65008, Note_on_c, 0, 65, 0
2, 65040, Note_on_c, 0, 60, 0
2, 65052, Note_on_c, 0, 61, 0
2, 65084, Note_on_c, 0, 55, 0
2, 65316, Note_on_c, 0, 81, 76
2, 65372, Note_on_c, 0, 81, 0
2, 65420, Note_on_c, 0, 82, 69
2, 65480, Note_on_c, 0, 82, 0
2, 65508, Note_on_c, 0, 84, 78
2, 65552, Note_on_c, 0, 60, 40
2, 65552, Note_on_c, 0, 61, 33
2, 65552, Note_on_c, 0, 65, 42
2, 65584, Note_on_c, 0, 84, 0
2, 65600, Note_on_c, 0, 65, 0
2, 65672, Note_on_c, 0, 55, 2
2, 65836, Note_on_c, 0, 60, 0
2, 65844, Note_on_c, 0, 78, 62
2, 65912, Note_on_c, 0, 78, 0
2, 65912, Note_on_c, 0, 55, 0
2, 65912, Note_on_c, 0, 61, 0
2, 65948, Note_on_c, 0, 79, 66
2, 66032, Note_on_c, 0, 79, 0
2, 66084, Note_on_c, 0, 65, 52
2, 66096, Note_on_c, 0, 54, 29
2, 66108, Note_on_c, 0, 60, 39
2, 66112, Note_on_c, 0, 58, 25
2, 66136, Note_on_c, 0, 65, 0
2, 66140, Note_on_c, 0, 60, 0
2, 66156, Note_on_c, 0, 58, 0
2, 66160, Note_on_c, 0, 54, 0
2, 66712, Note_on_c, 0, 65, 57
2, 66716, Note_on_c, 0, 54, 48
2, 66716, Note_on_c, 0, 60, 52
2, 66724, Note_on_c, 0, 58, 29
2, 66736, Note_on_c, 0, 65, 0
2, 66744, Note_on_c, 0, 54, 0
2, 66836, Note_on_c, 0, 58, 0
2, 66844, Note_on_c, 0, 60, 0
2, 66844, Note_on_c, 0, 82, 64
2, 66904, Note_on_c, 0, 82, 0
2, 66952, Note_on_c, 0, 86, 82
2, 67024, Note_on_c, 0, 86, 0
2, 67080, Note_on_c, 0, 65, 57
2, 67084, Note_on_c, 0, 54, 42
2, 67088, Note_on_c, 0, 60, 47
2, 67092, Note_on_c, 0, 58, 32
2, 67104, Note_on_c, 0, 65, 0
2, 67152, Note_on_c, 0, 54, 0
2, 67184, Note_on_c, 0, 60, 0
2, 67212, Note_on_c, 0, 77, 78
2, 67236, Note_on_c, 0, 58, 0
2, 67268, Note_on_c, 0, 77, 0
2, 67332, Note_on_c, 0, 82, 60
2, 67396, Note_on_c, 0, 82, 0
2, 67436, Note_on_c, 0, 54, 58
2, 67444, Note_on_c, 0, 58, 40
2, 67444, Note_on_c, 0, 65, 47
2, 67452, Note_on_c, 0, 60, 47
2, 67472, Note_on_c, 0, 65, 0
2, 67480, Note_on_c, 0, 60, 0
2, 67504, Note_on_c, 0, 54, 0
2, 67560, Note_on_c, 0, 58, 0
2, 67584, Note_on_c, 0, 78, 65
2, 67648, Note_on_c, 0, 78, 0
2, 67696, Note_on_c, 0, 79, 62
2, 67768, Note_on_c, 0, 79, 0
2, 67808, Note_on_c, 0, 64, 64
2, 67812, Note_on_c, 0, 53, 60
2, 67816, Note_on_c, 0, 59, 53
2, 67832, Note_on_c, 0, 64, 0
2, 67884, Note_on_c, 0, 53, 0
2, 67916, Note_on_c, 0, 59, 0
2, 67952, Note_on_c, 0, 69, 49
2, 67988, Note_on_c, 0, 69, 0
2, 68080, Note_on_c, 0, 68, 78
2, 68300, Note_on_c, 0, 68, 0
2, 68332, Note_on_c, 0, 71, 68
2, 68560, Note_on_c, 0, 71, 0
2, 68600, Note_on_c, 0, 73, 77
2, 68612, Note_on_c, 0, 53, 55
2, 68616, Note_on_c, 0, 64, 60
2, 68624, Note_on_c, 0, 59, 48
2, 68812, Note_on_c, 0, 64, 0
2, 68828, Note_on_c, 0, 53, 0
2, 68840, Note_on_c, 0, 59, 0
2, 68884, Note_on_c, 0, 73, 0
2, 68888, Note_on_c, 0, 75, 39
2, 68968, Note_on_c, 0, 75, 0
2, 68992, Note_on_c, 0, 53, 44
2, 69012, Note_on_c, 0, 76, 60
2, 69080, Note_on_c, 0, 53, 0
2, 69092, Note_on_c, 0, 76, 0
2, 69160, Note_on_c, 0, 62, 41
2, 69164, Note_on_c, 0, 57, 47
2, 69176, Note_on_c, 0, 58, 32
2, 69212, Note_on_c, 0, 75, 51
2, 69344, Note_on_c, 0, 75, 0
2, 69408, Note_on_c, 0, 58, 0
2, 69408, Note_on_c, 0, 76, 66
2, 69432, Note_on_c, 0, 57, 0
2, 69460, Note_on_c, 0, 62, 0
2, 69496, Note_on_c, 0, 76, 0
2, 69576, Note_on_c, 0, 72, 30
2, 69748, Note_on_c, 0, 72, 0
2, 69796, Note_on_c, 0, 67, 36
2, 69800, Note_on_c, 0, 58, 27
2, 69808, Note_on_c, 0, 57, 20
2, 69844, Note_on_c, 0, 57, 0
2, 69844, Note_on_c, 0, 67, 0
2, 69880, Note_on_c, 0, 58, 0
2, 69912, Note_on_c, 0, 70, 67
2, 70152, Note_on_c, 0, 70, 0
2, 70160, Note_on_c, 0, 57, 47
2, 70268, Note_on_c, 0, 67, 63
2, 70304, Note_on_c, 0, 62, 31
2, 70320, Note_on_c, 0, 57, 0
2, 70332, Note_on_c, 0, 62, 0
2, 70492, Note_on_c, 0, 67, 0
2, 70536, Note_on_c, 0, 70, 71
2, 70608, Note_on_c, 0, 70, 0
2, 70680, Note_on_c, 0, 58, 59
2, 70680, Note_on_c, 0, 60, 57
2, 70692, Note_on_c, 0, 67, 44
2, 70696, Note_on_c, 0, 63, 39
2, 70900, Note_on_c, 0, 60, 0
2, 70912, Note_on_c, 0, 63, 0
2, 70924, Note_on_c, 0, 67, 0
2, 70924, Note_on_c, 0, 58, 0
2, 70996, Note_on_c, 0, 55, 33
2, 71072, Note_on_c, 0, 70, 61
2, 71076, Note_on_c, 0, 63, 48
2, 71080, Note_on_c, 0, 67, 51
2, 71080, Note_on_c, 0, 60, 55
2, 71080, Note_on_c, 0, 58, 46
2, 71084, Note_on_c, 0, 55, 0
2, 71220, Note_on_c, 0, 67, 0
2, 71240, Note_on_c, 0, 70, 0
2, 71256, Note_on_c, 0, 60, 0
2, 71264, Note_on_c, 0, 58, 0
2, 71276, Note_on_c, 0, 63, 0
2, 71332, Note_on_c, 0, 63, 48
2, 71336, Note_on_c, 0, 69, 64
2, 71336, Note_on_c, 0, 60, 52
2, 71340, Note_on_c, 0, 66, 50
2, 71340, Note_on_c, 0, 57, 62
2, 71544, Note_on_c, 0, 69, 0
2, 71716, Note_on_c, 0, 66, 0
2, 71720, Note_on_c, 0, 63, 0
2, 71732, Note_on_c, 0, 60, 0
2, 71788, Note_on_c, 0, 57, 0
2, 71840, Note_on_c, 0, 72, 76
2, 72064, Note_on_c, 0, 72, 0
2, 72092, Note_on_c, 0, 65, 54
2, 72104, Note_on_c, 0, 62, 45
2, 72108, Note_on_c, 0, 69, 51
2, 72116, Note_on_c, 0, 60, 31
2, 72124, Note_on_c, 0, 65, 0
2, 72140, Note_on_c, 0, 62, 0
2, 72152, Note_on_c, 0, 69, 0
2, 72164, Note_on_c, 0, 60, 0
2, 72220, Note_on_c, 0, 70, 74
2, 72464, Note_on_c, 0, 62, 67
2, 72524, Note_on_c, 0, 70, 0
2, 73320, Note_on_c, 0, 62, 0
2, 73352, Note_on_c, 0, 70, 77
2, 73588, Note_on_c, 0, 70, 0
2, 73740, Note_on_c, 0, 70, 78
2, 73980, Note_on_c, 0, 62, 62
2, 74044, Note_on_c, 0, 70, 0
2, 74140, Control_c, 0, 64, 127
2, 74276, Note_on_c, 0, 62, 0
2, 74488, Control_c, 0, 64, 0
2, 74496, Note_on_c, 0, 65, 49
2, 74496, Note_on_c, 0, 62, 49
2, 74508, Note_on_c, 0, 60, 38
2, 74516, Note_on_c, 0, 74, 99
2, 74524, Note_on_c, 0, 55, 32
2, 74532, Note_on_c, 0, 65, 0
2, 74544, Note_on_c, 0, 60, 0
2, 74560, Note_on_c, 0, 55, 0
2, 74580, Note_on_c, 0, 62, 0
2, 74648, Note_on_c, 0, 74, 0
2, 74680, Note_on_c, 0, 75, 38
2, 74756, Note_on_c, 0, 75, 0
2, 74768, Note_on_c, 0, 74, 36
2, 74808, Note_on_c, 0, 74, 0
2, 74816, Note_on_c, 0, 72, 54
2, 74844, Note_on_c, 0, 72, 0
2, 74860, Note_on_c, 0, 62, 32
2, 74868, Note_on_c, 0, 60, 29
2, 74900, Note_on_c, 0, 62, 0
2, 74904, Note_on_c, 0, 74, 95
2, 74924, Note_on_c, 0, 60, 0
2, 75056, Note_on_c, 0, 74, 0
2, 75064, Note_on_c, 0, 75, 48
2, 75152, Note_on_c, 0, 74, 26
2, 75172, Note_on_c, 0, 75, 0
2, 75192, Note_on_c, 0, 74, 0
2, 75196, Note_on_c, 0, 72, 55
2, 75200, Note_on_c, 0, 60, 19
2, 75228, Note_on_c, 0, 72, 0
2, 75292, Note_on_c, 0, 74, 88
2, 75320, Note_on_c, 0, 60, 0
2, 75444, Note_on_c, 0, 74, 0
2, 75464, Note_on_c, 0, 75, 45
2, 75528, Note_on_c, 0, 74, 43
2, 75544, Note_on_c, 0, 75, 0
2, 75588, Note_on_c, 0, 74, 0
2, 75600, Note_on_c, 0, 72, 44
2, 75624, Note_on_c, 0, 72, 0
2, 75672, Note_on_c, 0, 74, 80
2, 75900, Note_on_c, 0, 63, 42
2, 75924, Note_on_c, 0, 63, 0
2, 76296, Note_on_c, 0, 60, 54
2, 76296, Note_on_c, 0, 65, 70
2, 76300, Note_on_c, 0, 54, 55
2, 76308, Note_on_c, 0, 58, 46
2, 76468, Control_c, 0, 64, 127
2, 76596, Note_on_c, 0, 60, 0
2, 76620, Note_on_c, 0, 65, 0
2, 76712, Note_on_c, 0, 58, 0
2, 76724, Note_on_c, 0, 54, 0
2, 76788, Note_on_c, 0, 58, 33
2, 76792, Note_on_c, 0, 57, 42
2, 76792, Control_c, 0, 64, 0
2, 76796, Note_on_c, 0, 62, 40
2, 76800, Note_on_c, 0, 74, 0
2, 76804, Note_on_c, 0, 55, 44
2, 77204, Control_c, 0, 64, 127
2, 77388, Note_on_c, 0, 57, 0
2, 77392, Note_on_c, 0, 62, 0
2, 77396, Note_on_c, 0, 55, 0
2, 77444, Note_on_c, 0, 58, 0
2, 77520, Control_c, 0, 64, 0
2, 77564, Note_on_c, 0, 62, 67
2, 77568, Note_on_c, 0, 72, 85
2, 77572, Note_on_c, 0, 58, 42
2, 77576, Note_on_c, 0, 57, 50
2, 77576, Note_on_c, 0, 55, 54
2, 77604, Note_on_c, 0, 57, 0
2, 77608, Note_on_c, 0, 55, 0
2, 77616, Note_on_c, 0, 62, 0
2, 77620, Note_on_c, 0, 72, 0
2, 77632, Note_on_c, 0, 58, 0
2, 77656, Note_on_c, 0, 72, 68
2, 77668, Note_on_c, 0, 62, 33
2, 77676, Note_on_c, 0, 55, 34
2, 77676, Note_on_c, 0, 58, 23
2, 77692, Note_on_c, 0, 57, 35
2, 77704, Control_c, 0, 64, 127
2, 77748, Note_on_c, 0, 62, 0
2, 77760, Note_on_c, 0, 72, 0
2, 77768, Note_on_c, 0, 57, 0
2, 77772, Note_on_c, 0, 55, 0
2, 77780, Note_on_c, 0, 58, 0
2, 77840, Note_on_c, 0, 58, 50
2, 77848, Note_on_c, 0, 62, 59
2, 77848, Note_on_c, 0, 55, 47
2, 77852, Note_on_c, 0, 57, 46
2, 77856, Note_on_c, 0, 66, 34
2, 77860, Note_on_c, 0, 65, 48
2, 77880, Control_c, 0, 64, 0
2, 77888, Note_on_c, 0, 65, 0
2, 77892, Note_on_c, 0, 66, 0
2, 77900, Note_on_c, 0, 57, 0
2, 77908, Note_on_c, 0, 62, 0
2, 77972, Note_on_c, 0, 66, 57
2, 77976, Note_on_c, 0, 62, 54
2, 77984, Note_on_c, 0, 57, 17
2, 78044, Note_on_c, 0, 62, 0
2, 78044, Note_on_c, 0, 66, 0
2, 78076, Note_on_c, 0, 58, 0
2, 78084, Note_on_c, 0, 57, 0
2, 78108, Note_on_c, 0, 62, 55
2, 78112, Note_on_c, 0, 69, 79
2, 78116, Note_on_c, 0, 58, 25
2, 78120, Note_on_c, 0, 57, 15
2, 78236, Note_on_c, 0, 69, 0
2, 78264, Note_on_c, 0, 57, 0
2, 78268, Note_on_c, 0, 55, 0
2, 78296, Note_on_c, 0, 62, 0
2, 78300, Note_on_c, 0, 58, 0
2, 78604, Note_on_c, 0, 63, 69
2, 78616, Note_on_c, 0, 60, 61
2, 78632, Note_on_c, 0, 57, 36
2, 78644, Note_on_c, 0, 60, 0
2, 78684, Note_on_c, 0, 57, 0
2, 78688, Note_on_c, 0, 63, 0
2, 78972, Note_on_c, 0, 77, 85
2, 78976, Note_on_c, 0, 72, 91
2, 78976, Note_on_c, 0, 60, 74
2, 78980, Note_on_c, 0, 61, 61
2, 78984, Note_on_c, 0, 65, 79
2, 79008, Note_on_c, 0, 55, 43
2, 79096, Note_on_c, 0, 65, 0
2, 79108, Note_on_c, 0, 60, 0
2, 79108, Note_on_c, 0, 77, 0
2, 79124, Note_on_c, 0, 72, 0
2, 79132, Note_on_c, 0, 55, 0
2, 79132, Note_on_c, 0, 61, 0
2, 79240, Note_on_c, 0, 60, 47
2, 79240, Note_on_c, 0, 64, 68
2, 79240, Note_on_c, 0, 74, 81
2, 79248, Note_on_c, 0, 54, 48
2, 79340, Control_c, 0, 64, 127
2, 79412, Note_on_c, 0, 64, 0
2, 79432, Note_on_c, 0, 54, 0
2, 79444, Note_on_c, 0, 74, 0
2, 79448, Note_on_c, 0, 60, 0
2, 79468, Control_c, 0, 64, 0
2, 79488, Note_on_c, 0, 54, 52
2, 79492, Note_on_c, 0, 69, 48
2, 79500, Note_on_c, 0, 64, 49
2, 79504, Control_c, 0, 64, 127
2, 79508, Note_on_c, 0, 60, 39
2, 79556, Note_on_c, 0, 60, 0
2, 79568, Note_on_c, 0, 64, 0
2, 79576, Note_on_c, 0, 69, 0
2, 79668, Note_on_c, 0, 54, 0
2, 79744, Note_on_c, 0, 62, 66
2, 79744, Note_on_c, 0, 72, 71
2, 79748, Note_on_c, 0, 58, 37
2, 79752, Note_on_c, 0, 57, 57
2, 79752, Note_on_c, 0, 69, 73
2, 79756, Note_on_c, 0, 65, 64
2, 79764, Note_on_c, 0, 55, 46
2, 79772, Control_c, 0, 64, 0
2, 79920, Control_c, 0, 64, 127
2, 80100, Note_on_c, 0, 57, 0
2, 80104, Note_on_c, 0, 62, 0
2, 80136, Note_on_c, 0, 65, 0
2, 80136, Note_on_c, 0, 55, 0
2, 80144, Note_on_c, 0, 58, 0
2, 80172, Note_on_c, 0, 69, 0
2, 80204, Note_on_c, 0, 72, 0
2, 80240, Control_c, 0, 64, 0
2, 80248, Note_on_c, 0, 62, 50
2, 80252, Note_on_c, 0, 70, 57
2, 80252, Note_on_c, 0, 65, 51
2, 80256, Note_on_c, 0, 58, 34
2, 80264, Note_on_c, 0, 55, 39
2, 80264, Note_on_c, 0, 57, 43
2, 80392, Note_on_c, 0, 57, 0
2, 80400, Note_on_c, 0, 62, 0
2, 80412, Note_on_c, 0, 58, 0
2, 80424, Note_on_c, 0, 55, 0
2, 80444, Note_on_c, 0, 65, 0
2, 80448, Note_on_c, 0, 70, 0
2, 80636, Note_on_c, 0, 66, 46
2, 80640, Note_on_c, 0, 69, 56
2, 80644, Note_on_c, 0, 62, 41
2, 80648, Control_c, 0, 64, 127
2, 80648, Note_on_c, 0, 58, 32
2, 80656, Note_on_c, 0, 55, 36
2, 80724, Note_on_c, 0, 62, 0
2, 80768, Note_on_c, 0, 55, 0
2, 80776, Note_on_c, 0, 58, 0
2, 80800, Note_on_c, 0, 66, 0
2, 80840, Note_on_c, 0, 69, 0
2, 80880, Note_on_c, 0, 67, 65
2, 80900, Note_on_c, 0, 58, 47
2, 80904, Note_on_c, 0, 55, 53
2, 80904, Note_on_c, 0, 62, 46
2, 80924, Note_on_c, 0, 67, 0
2, 80944, Note_on_c, 0, 55, 0
2, 80948, Note_on_c, 0, 62, 0
2, 80984, Note_on_c, 0, 58, 0
2, 81276, Note_on_c, 0, 63, 74
2, 81284, Control_c, 0, 64, 0
2, 81284, Note_on_c, 0, 60, 58
2, 81288, Note_on_c, 0, 55, 55
2, 81288, Note_on_c, 0, 81, 84
2, 81292, Note_on_c, 0, 69, 88
2, 81296, Note_on_c, 0, 57, 34
2, 81308, Note_on_c, 0, 60, 0
2, 81320, Note_on_c, 0, 55, 0
2, 81324, Note_on_c, 0, 63, 0
2, 81332, Note_on_c, 0, 57, 0
2, 81336, Note_on_c, 0, 69, 0
2, 81340, Note_on_c, 0, 81, 0
2, 81488, Control_c, 0, 64, 127
2, 81524, Note_on_c, 0, 70, 86
2, 81524, Note_on_c, 0, 82, 82
2, 81528, Note_on_c, 0, 63, 74
2, 81540, Note_on_c, 0, 55, 58
2, 81540, Note_on_c, 0, 60, 58
2, 81544, Note_on_c, 0, 57, 51
2, 81656, Note_on_c, 0, 70, 0
2, 81660, Note_on_c, 0, 82, 0
2, 81680, Note_on_c, 0, 55, 0
2, 81688, Note_on_c, 0, 57, 0
2, 81712, Note_on_c, 0, 63, 0
2, 81724, Note_on_c, 0, 60, 0
2, 81756, Control_c, 0, 64, 0
2, 81788, Note_on_c, 0, 63, 65
2, 81796, Note_on_c, 0, 55, 50
2, 81796, Note_on_c, 0, 86, 78
2, 81800, Note_on_c, 0, 74, 76
2, 81804, Note_on_c, 0, 60, 57
2, 81836, Note_on_c, 0, 57, 24
2, 81844, Note_on_c, 0, 74, 0
2, 81848, Control_c, 0, 64, 127
2, 81864, Note_on_c, 0, 86, 0
2, 81868, Note_on_c, 0, 57, 0
2, 81884, Note_on_c, 0, 55, 0
2, 81888, Note_on_c, 0, 60, 0
2, 81900, Note_on_c, 0, 63, 0
2, 82040, Control_c, 0, 64, 0
2, 82068, Note_on_c, 0, 60, 69
2, 82068, Note_on_c, 0, 54, 65
2, 82072, Note_on_c, 0, 58, 50
2, 82072, Note_on_c, 0, 65, 80
2, 82072, Note_on_c, 0, 93, 90
2, 82076, Note_on_c, 0, 81, 87
2, 82200, Note_on_c, 0, 81, 0
2, 82224, Note_on_c, 0, 93, 0
2, 82228, Note_on_c, 0, 65, 0
2, 82244, Note_on_c, 0, 54, 0
2, 82256, Note_on_c, 0, 60, 0
2, 82260, Note_on_c, 0, 58, 0
2, 82332, Note_on_c, 0, 65, 74
2, 82336, Note_on_c, 0, 98, 83
2, 82336, Note_on_c, 0, 54, 62
2, 82340, Note_on_c, 0, 60, 56
2, 82340, Note_on_c, 0, 86, 79
2, 82340, Note_on_c, 0, 58, 43
2, 82420, Note_on_c, 0, 98, 0
2, 82440, Note_on_c, 0, 86, 0
2, 82448, Control_c, 0, 64, 127
2, 82476, Note_on_c, 0, 65, 0
2, 82492, Note_on_c, 0, 60, 0
2, 82496, Note_on_c, 0, 54, 0
2, 82504, Note_on_c, 0, 58, 0
2, 82524, Control_c, 0, 64, 0
2, 82592, Note_on_c, 0, 92, 74
2, 82596, Note_on_c, 0, 80, 73
2, 82596, Note_on_c, 0, 54, 62
2, 82596, Note_on_c, 0, 65, 73
2, 82600, Note_on_c, 0, 58, 53
2, 82600, Note_on_c, 0, 60, 65
2, 82644, Control_c, 0, 64, 127
2, 82724, Note_on_c, 0, 65, 0
2, 82732, Note_on_c, 0, 60, 0
2, 82800, Note_on_c, 0, 58, 0
2, 82812, Note_on_c, 0, 92, 0
2, 82816, Note_on_c, 0, 54, 0
2, 82824, Note_on_c, 0, 80, 0
2, 82864, Note_on_c, 0, 58, 39
2, 82864, Note_on_c, 0, 57, 61
2, 82868, Note_on_c, 0, 79, 66
2, 82872, Note_on_c, 0, 91, 67
2, 82872, Note_on_c, 0, 62, 65
2, 82880, Note_on_c, 0, 55, 51
2, 82884, Control_c, 0, 64, 0
2, 83104, Control_c, 0, 64, 127
2, 83216, Note_on_c, 0, 91, 0
2, 83252, Note_on_c, 0, 62, 0
2, 83252, Note_on_c, 0, 79, 0
2, 83260, Note_on_c, 0, 55, 0
2, 83268, Note_on_c, 0, 57, 0
2, 83288, Note_on_c, 0, 58, 0
2, 83304, Control_c, 0, 64, 0
2, 83348, Note_on_c, 0, 90, 52
2, 83352, Note_on_c, 0, 62, 45
2, 83356, Note_on_c, 0, 57, 35
2, 83356, Note_on_c, 0, 58, 33
2, 83360, Note_on_c, 0, 78, 52
2, 83364, Note_on_c, 0, 55, 43
2, 83436, Control_c, 0, 64, 127
2, 83504, Note_on_c, 0, 62, 0
2, 83528, Note_on_c, 0, 57, 0
2, 83544, Note_on_c, 0, 58, 0
2, 83548, Note_on_c, 0, 90, 0
2, 83548, Note_on_c, 0, 55, 0
2, 83552, Note_on_c, 0, 78, 0
2, 83612, Note_on_c, 0, 62, 55
2, 83612, Note_on_c, 0, 58, 44
2, 83616, Note_on_c, 0, 79, 69
2, 83616, Note_on_c, 0, 91, 62
2, 83620, Note_on_c, 0, 55, 50
2, 83628, Note_on_c, 0, 57, 33
2, 83640, Control_c, 0, 64, 0
2, 83660, Note_on_c, 0, 57, 0
2, 83672, Note_on_c, 0, 62, 0
2, 83676, Note_on_c, 0, 79, 0
2, 83692, Note_on_c, 0, 58, 0
2, 83704, Note_on_c, 0, 91, 0
2, 83716, Note_on_c, 0, 55, 0
2, 83996, Note_on_c, 0, 100, 88
2, 84000, Note_on_c, 0, 58, 39
2, 84000, Note_on_c, 0, 62, 45
2, 84012, Note_on_c, 0, 57, 35
2, 84016, Note_on_c, 0, 98, 37
2, 84016, Note_on_c, 0, 55, 45
2, 84040, Note_on_c, 0, 98, 0
2, 84040, Note_on_c, 0, 62, 0
2, 84052, Note_on_c, 0, 57, 0
2, 84064, Note_on_c, 0, 58, 0
2, 84084, Note_on_c, 0, 100, 0
2, 84116, Note_on_c, 0, 55, 0
2, 84160, Note_on_c, 0, 97, 38
2, 84356, Note_on_c, 0, 97, 0
2, 84384, Note_on_c, 0, 62, 63
2, 84384, Note_on_c, 0, 58, 53
2, 84388, Note_on_c, 0, 57, 61
2, 84392, Note_on_c, 0, 96, 63
2, 84444, Note_on_c, 0, 62, 0
2, 84460, Note_on_c, 0, 58, 0
2, 84492, Note_on_c, 0, 57, 0
2, 84516, Note_on_c, 0, 96, 0
2, 84604, Note_on_c, 0, 95, 54
2, 84820, Note_on_c, 0, 95, 0
2, 84924, Note_on_c, 0, 94, 64
2, 85116, Note_on_c, 0, 94, 0
2, 85164, Note_on_c, 0, 67, 57
2, 85164, Note_on_c, 0, 58, 40
2, 85168, Note_on_c, 0, 93, 69
2, 85172, Note_on_c, 0, 63, 37
2, 85176, Note_on_c, 0, 62, 42
2, 85224, Note_on_c, 0, 67, 0
2, 85236, Note_on_c, 0, 58, 0
2, 85280, Note_on_c, 0, 63, 0
2, 85284, Note_on_c, 0, 62, 0
2, 85332, Note_on_c, 0, 93, 0
2, 85376, Note_on_c, 0, 92, 36
2, 85544, Note_on_c, 0, 92, 0
2, 85552, Note_on_c, 0, 91, 62
2, 85596, Note_on_c, 0, 62, 42
2, 85664, Note_on_c, 0, 91, 0
2, 85684, Note_on_c, 0, 62, 0
2, 85728, Note_on_c, 0, 90, 36
2, 85976, Note_on_c, 0, 67, 55
2, 85984, Note_on_c, 0, 63, 37
2, 86000, Note_on_c, 0, 57, 26
2, 86004, Note_on_c, 0, 67, 0
2, 86028, Note_on_c, 0, 57, 0
2, 86044, Note_on_c, 0, 63, 0
2, 86276, Note_on_c, 0, 88, 62
2, 86284, Note_on_c, 0, 90, 0
2, 86452, Note_on_c, 0, 88, 0
2, 86532, Note_on_c, 0, 89, 68
2, 86680, Note_on_c, 0, 67, 60
2, 86684, Note_on_c, 0, 63, 42
2, 86696, Note_on_c, 0, 89, 0
2, 86708, Note_on_c, 0, 67, 0
2, 86716, Note_on_c, 0, 57, 24
2, 86720, Note_on_c, 0, 86, 71
2, 86740, Note_on_c, 0, 57, 0
2, 86780, Note_on_c, 0, 63, 0
2, 86868, Note_on_c, 0, 86, 0
2, 86924, Note_on_c, 0, 88, 82
2, 87076, Note_on_c, 0, 63, 38
2, 87112, Note_on_c, 0, 85, 71
2, 87116, Note_on_c, 0, 88, 0
2, 87132, Note_on_c, 0, 63, 0
2, 87264, Note_on_c, 0, 85, 0
2, 87304, Note_on_c, 0, 87, 77
2, 87408, Note_on_c, 0, 65, 49
2, 87420, Note_on_c, 0, 62, 39
2, 87428, Note_on_c, 0, 60, 30
2, 87440, Note_on_c, 0, 65, 0
2, 87460, Note_on_c, 0, 62, 0
2, 87464, Note_on_c, 0, 60, 0
2, 87468, Note_on_c, 0, 87, 0
2, 87500, Note_on_c, 0, 85, 59
2, 87616, Note_on_c, 0, 85, 0
2, 87656, Note_on_c, 0, 86, 64
2, 87776, Note_on_c, 0, 86, 0
2, 87824, Note_on_c, 0, 84, 79
2, 87920, Note_on_c, 0, 84, 0
2, 87976, Note_on_c, 0, 81, 60
2, 88180, Note_on_c, 0, 81, 0
2, 88212, Note_on_c, 0, 77, 63
2, 88216, Note_on_c, 0, 65, 39
2, 88220, Note_on_c, 0, 62, 36
2, 88224, Note_on_c, 0, 60, 35
2, 88244, Note_on_c, 0, 65, 0
2, 88268, Note_on_c, 0, 62, 0
2, 88272, Note_on_c, 0, 60, 0
2, 88304, Note_on_c, 0, 77, 0
2, 88372, Note_on_c, 0, 74, 38
2, 88608, Note_on_c, 0, 74, 0
2, 88752, Note_on_c, 0, 74, 71
2, 89432, Note_on_c, 0, 74, 0
2, 89500, Note_on_c, 0, 61, 47
2, 89504, Note_on_c, 0, 73, 80
2, 89508, Note_on_c, 0, 65, 62
2, 89516, Note_on_c, 0, 55, 45
2, 89588, Note_on_c, 0, 60, 14
2, 89668, Note_on_c, 0, 60, 0
2, 89684, Note_on_c, 0, 55, 0
2, 89688, Note_on_c, 0, 65, 0
2, 89704, Note_on_c, 0, 61, 0
2, 89748, Note_on_c, 0, 73, 0
2, 89768, Note_on_c, 0, 76, 71
2, 89768, Note_on_c, 0, 61, 37
2, 89772, Note_on_c, 0, 65, 41
2, 89776, Note_on_c, 0, 55, 42
2, 89776, Note_on_c, 0, 60, 53
2, 89820, Note_on_c, 0, 65, 0
2, 89840, Note_on_c, 0, 60, 0
2, 89868, Note_on_c, 0, 61, 0
2, 89872, Control_c, 0, 64, 127
2, 89884, Note_on_c, 0, 76, 0
2, 89896, Note_on_c, 0, 65, 48
2, 89904, Note_on_c, 0, 61, 18
2, 89916, Note_on_c, 0, 73, 43
2, 89924, Note_on_c, 0, 60, 28
2, 89972, Note_on_c, 0, 65, 0
2, 89988, Note_on_c, 0, 60, 0
2, 90016, Note_on_c, 0, 61, 0
2, 90024, Note_on_c, 0, 55, 0
2, 90144, Note_on_c, 0, 67, 64
2, 90156, Note_on_c, 0, 60, 51
2, 90160, Note_on_c, 0, 61, 38
2, 90160, Note_on_c, 0, 55, 51
2, 90204, Control_c, 0, 64, 0
2, 90296, Control_c, 0, 64, 127
2, 90416, Note_on_c, 0, 60, 0
2, 90452, Note_on_c, 0, 55, 0
2, 90464, Note_on_c, 0, 67, 0
2, 90468, Note_on_c, 0, 73, 0
2, 90512, Note_on_c, 0, 61, 0
2, 90608, Control_c, 0, 64, 0
2, 90636, Note_on_c, 0, 70, 64
2, 90640, Note_on_c, 0, 54, 53
2, 90644, Note_on_c, 0, 77, 56
2, 90644, Note_on_c, 0, 60, 61
2, 90648, Note_on_c, 0, 74, 60
2, 90648, Note_on_c, 0, 65, 58
2, 90660, Note_on_c, 0, 58, 34
2, 90684, Note_on_c, 0, 65, 0
2, 90684, Control_c, 0, 64, 127
2, 90692, Note_on_c, 0, 58, 0
2, 90700, Note_on_c, 0, 60, 0
2, 90708, Note_on_c, 0, 70, 0
2, 90716, Note_on_c, 0, 74, 0
2, 90724, Note_on_c, 0, 54, 0
2, 90752, Note_on_c, 0, 77, 0
2, 90892, Note_on_c, 0, 77, 77
2, 90892, Note_on_c, 0, 54, 58
2, 90896, Note_on_c, 0, 89, 75
2, 90904, Note_on_c, 0, 60, 55
2, 90912, Note_on_c, 0, 58, 31
2, 90916, Note_on_c, 0, 77, 0
2, 90932, Note_on_c, 0, 60, 0
2, 90936, Note_on_c, 0, 89, 0
2, 90944, Note_on_c, 0, 58, 0
2, 90952, Note_on_c, 0, 54, 0
2, 90952, Control_c, 0, 64, 0
2, 91008, Note_on_c, 0, 54, 59
2, 91012, Note_on_c, 0, 65, 66
2, 91016, Note_on_c, 0, 58, 55
2, 91016, Note_on_c, 0, 60, 63
2, 91020, Note_on_c, 0, 82, 72
2, 91024, Control_c, 0, 64, 127
2, 91028, Note_on_c, 0, 94, 74
2, 91140, Note_on_c, 0, 82, 0
2, 91148, Note_on_c, 0, 94, 0
2, 91156, Note_on_c, 0, 65, 0
2, 91180, Note_on_c, 0, 54, 0
2, 91184, Note_on_c, 0, 60, 0
2, 91196, Note_on_c, 0, 58, 0
2, 91264, Note_on_c, 0, 98, 81
2, 91268, Note_on_c, 0, 86, 74
2, 91272, Note_on_c, 0, 54, 69
2, 91276, Note_on_c, 0, 58, 56
2, 91276, Control_c, 0, 64, 0
2, 91276, Note_on_c, 0, 65, 74
2, 91280, Note_on_c, 0, 60, 60
2, 91344, Note_on_c, 0, 86, 0
2, 91376, Note_on_c, 0, 98, 0
2, 91388, Note_on_c, 0, 65, 0
2, 91412, Note_on_c, 0, 60, 0
2, 91416, Note_on_c, 0, 58, 0
2, 91420, Note_on_c, 0, 54, 0
2, 91420, Control_c, 0, 64, 127
2, 91500, Note_on_c, 0, 54, 69
2, 91504, Note_on_c, 0, 65, 68
2, 91504, Note_on_c, 0, 58, 57
2, 91508, Note_on_c, 0, 101, 72
2, 91508, Note_on_c, 0, 89, 76
2, 91512, Note_on_c, 0, 60, 59
2, 91580, Note_on_c, 0, 89, 0
2, 91616, Note_on_c, 0, 65, 0
2, 91624, Note_on_c, 0, 101, 0
2, 91632, Note_on_c, 0, 58, 0
2, 91648, Note_on_c, 0, 60, 0
2, 91652, Note_on_c, 0, 54, 0
2, 91716, Control_c, 0, 64, 0
2, 91772, Note_on_c, 0, 58, 56
2, 91772, Note_on_c, 0, 54, 70
2, 91772, Note_on_c, 0, 102, 70
2, 91772, Note_on_c, 0, 90, 74
2, 91780, Note_on_c, 0, 65, 62
2, 91784, Note_on_c, 0, 60, 60
2, 91784, Control_c, 0, 64, 127
2, 91784, Note_on_c, 0, 97, 61
2, 91840, Note_on_c, 0, 65, 0
2, 91860, Note_on_c, 0, 60, 0
2, 91904, Note_on_c, 0, 97, 0
2, 91932, Note_on_c, 0, 90, 0
2, 91956, Note_on_c, 0, 102, 0
2, 91964, Note_on_c, 0, 54, 0
2, 91992, Note_on_c, 0, 58, 0
2, 92044, Note_on_c, 0, 59, 78
2, 92044, Note_on_c, 0, 98, 80
2, 92048, Note_on_c, 0, 91, 74
2, 92048, Note_on_c, 0, 103, 78
2, 92052, Note_on_c, 0, 53, 79
2, 92052, Note_on_c, 0, 64, 76
2, 92060, Control_c, 0, 64, 0
2, 92112, Note_on_c, 0, 91, 0
2, 92112, Control_c, 0, 64, 127
2, 92144, Note_on_c, 0, 64, 0
2, 92156, Note_on_c, 0, 59, 0
2, 92156, Note_on_c, 0, 98, 0
2, 92168, Note_on_c, 0, 103, 0
2, 92180, Note_on_c, 0, 91, 56
2, 92212, Note_on_c, 0, 59, 43
2, 92224, Control_c, 0, 64, 0
2, 92236, Note_on_c, 0, 53, 0
2, 92240, Note_on_c, 0, 91, 0
2, 92240, Note_on_c, 0, 64, 59
2, 92248, Note_on_c, 0, 98, 59
2, 92256, Note_on_c, 0, 103, 30
2, 92292, Note_on_c, 0, 59, 0
2, 92296, Note_on_c, 0, 53, 46
2, 92300, Note_on_c, 0, 91, 46
2, 92312, Note_on_c, 0, 64, 0
2, 92312, Note_on_c, 0, 103, 0
2, 92316, Note_on_c, 0, 98, 0
2, 92384, Note_on_c, 0, 59, 32
2, 92384, Note_on_c, 0, 103, 24
2, 92396, Note_on_c, 0, 98, 60
2, 92400, Note_on_c, 0, 91, 0
2, 92404, Note_on_c, 0, 64, 48
2, 92416, Note_on_c, 0, 53, 0
2, 92424, Note_on_c, 0, 103, 0
2, 92432, Note_on_c, 0, 64, 0
2, 92444, Note_on_c, 0, 98, 0
2, 92448, Note_on_c, 0, 59, 0
2, 92520, Note_on_c, 0, 59, 48
2, 92524, Note_on_c, 0, 64, 66
2, 92528, Note_on_c, 0, 53, 58
2, 92536, Note_on_c, 0, 90, 64
2, 92536, Note_on_c, 0, 102, 64
2, 92548, Note_on_c, 0, 97, 43
2, 92636, Note_on_c, 0, 64, 0
2, 92648, Note_on_c, 0, 53, 0
2, 92656, Note_on_c, 0, 90, 0
2, 92660, Note_on_c, 0, 97, 0
2, 92668, Note_on_c, 0, 102, 0
2, 92676, Note_on_c, 0, 59, 0
2, 92800, Note_on_c, 0, 91, 74
2, 92804, Note_on_c, 0, 98, 76
2, 92804, Note_on_c, 0, 103, 74
2, 92808, Note_on_c, 0, 59, 77
2, 92812, Note_on_c, 0, 64, 76
2, 92812, Note_on_c, 0, 53, 78
2, 92904, Note_on_c, 0, 103, 0
2, 92936, Note_on_c, 0, 98, 0
2, 92960, Note_on_c, 0, 91, 0
2, 93152, Note_on_c, 0, 59, 0
2, 93208, Note_on_c, 0, 59, 53
2, 93392, Note_on_c, 0, 59, 0
2, 93400, Note_on_c, 0, 64, 0
2, 93452, Note_on_c, 0, 85, 20
2, 93480, Note_on_c, 0, 85, 0
2, 93504, Note_on_c, 0, 53, 0
2, 93584, Note_on_c, 0, 85, 69
2, 93588, Note_on_c, 0, 70, 74
2, 93604, Note_on_c, 0, 62, 60
2, 93608, Note_on_c, 0, 58, 40
2, 93624, Note_on_c, 0, 52, 35
2, 93632, Note_on_c, 0, 62, 0
2, 93656, Note_on_c, 0, 52, 0
2, 93660, Note_on_c, 0, 58, 0
2, 93908, Note_on_c, 0, 70, 0
2, 93936, Note_on_c, 0, 85, 0
2, 93976, Note_on_c, 0, 82, 37
2, 94056, Note_on_c, 0, 82, 0
2, 94100, Note_on_c, 0, 85, 59
2, 94104, Note_on_c, 0, 70, 53
2, 94268, Note_on_c, 0, 85, 0
2, 94292, Note_on_c, 0, 70, 0
2, 94360, Note_on_c, 0, 85, 62
2, 94368, Note_on_c, 0, 70, 43
2, 94376, Note_on_c, 0, 62, 60
2, 94388, Note_on_c, 0, 52, 49
2, 94392, Note_on_c, 0, 58, 35
2, 94412, Note_on_c, 0, 62, 0
2, 94424, Note_on_c, 0, 52, 0
2, 94424, Note_on_c, 0, 58, 0
2, 94452, Note_on_c, 0, 70, 0
2, 94480, Note_on_c, 0, 85, 0
2, 94516, Note_on_c, 0, 82, 29
2, 94732, Note_on_c, 0, 82, 0
2, 94852, Note_on_c, 0, 70, 63
2, 94856, Note_on_c, 0, 85, 62
2, 95040, Note_on_c, 0, 85, 0
2, 95044, Note_on_c, 0, 70, 0
2, 95100, Note_on_c, 0, 58, 54
2, 95120, Note_on_c, 0, 63, 38
2, 95120, Note_on_c, 0, 67, 35
2, 95148, Note_on_c, 0, 67, 0
2, 95148, Note_on_c, 0, 63, 0
2, 95172, Note_on_c, 0, 58, 0
2, 95228, Note_on_c, 0, 85, 52
2, 95232, Note_on_c, 0, 70, 37
2, 95460, Note_on_c, 0, 85, 0
2, 95464, Note_on_c, 0, 70, 0
2, 95612, Note_on_c, 0, 85, 68
2, 95620, Note_on_c, 0, 70, 55
2, 95796, Note_on_c, 0, 70, 0
2, 95816, Note_on_c, 0, 85, 0
2, 95896, Note_on_c, 0, 67, 51
2, 95908, Note_on_c, 0, 63, 31
2, 95908, Note_on_c, 0, 82, 42
2, 95908, Note_on_c, 0, 57, 39
2, 95920, Note_on_c, 0, 67, 0
2, 95936, Note_on_c, 0, 57, 0
2, 95972, Note_on_c, 0, 63, 0
2, 95988, Note_on_c, 0, 82, 0
2, 96124, Note_on_c, 0, 85, 57
2, 96124, Note_on_c, 0, 70, 50
2, 96252, Note_on_c, 0, 70, 0
2, 96264, Note_on_c, 0, 85, 0
2, 96292, Note_on_c, 0, 63, 44
2, 96300, Note_on_c, 0, 67, 34
2, 96328, Note_on_c, 0, 67, 0
2, 96348, Note_on_c, 0, 63, 0
2, 96408, Note_on_c, 0, 82, 44
2, 96540, Note_on_c, 0, 82, 0
2, 96616, Note_on_c, 0, 65, 62
2, 96620, Note_on_c, 0, 60, 50
2, 96620, Note_on_c, 0, 62, 48
2, 96632, Note_on_c, 0, 85, 71
2, 96632, Note_on_c, 0, 70, 71
2, 96636, Note_on_c, 0, 55, 50
2, 96968, Note_on_c, 0, 70, 0
2, 97004, Note_on_c, 0, 85, 0
2, 97052, Note_on_c, 0, 82, 38
2, 97084, Note_on_c, 0, 82, 0
2, 97168, Note_on_c, 0, 85, 69
2, 97176, Note_on_c, 0, 70, 59
2, 97292, Note_on_c, 0, 85, 0
2, 97316, Note_on_c, 0, 70, 0
2, 97404, Note_on_c, 0, 85, 56
2, 97412, Note_on_c, 0, 70, 59
2, 97456, Note_on_c, 0, 65, 0
2, 97460, Note_on_c, 0, 62, 0
2, 97476, Note_on_c, 0, 70, 0
2, 97480, Note_on_c, 0, 60, 0
2, 97492, Note_on_c, 0, 85, 0
2, 97528, Note_on_c, 0, 55, 0
2, 97556, Note_on_c, 0, 82, 43
2, 97724, Note_on_c, 0, 82, 0
2, 97768, Note_on_c, 0, 53, 95
2, 98172, Note_on_c, 0, 41, 71
2, 98344, Note_on_c, 0, 53, 0
2, 98364, Control_c, 0, 64, 127
2, 98448, Note_on_c, 0, 53, 64
2, 98492, Note_on_c, 0, 53, 0
2, 98568, Note_on_c, 0, 57, 62
2, 98596, Control_c, 0, 64, 0
2, 98640, Note_on_c, 0, 57, 0
2, 98680, Note_on_c, 0, 53, 51
2, 98696, Note_on_c, 0, 61, 48
2, 98724, Note_on_c, 0, 53, 0
2, 98756, Note_on_c, 0, 61, 0
2, 98808, Note_on_c, 0, 55, 29
2, 98872, Note_on_c, 0, 55, 0
2, 98936, Note_on_c, 0, 59, 77
2, 99016, Note_on_c, 0, 59, 0
2, 99064, Note_on_c, 0, 63, 67
2, 99164, Note_on_c, 0, 63, 0
2, 99192, Note_on_c, 0, 57, 34
2, 99232, Note_on_c, 0, 57, 0
2, 99316, Note_on_c, 0, 61, 61
2, 99352, Note_on_c, 0, 53, 33
2, 99412, Note_on_c, 0, 61, 0
2, 99412, Note_on_c, 0, 41, 0
2, 99448, Note_on_c, 0, 53, 0
2, 99460, Note_on_c, 0, 65, 61
2, 99532, Note_on_c, 0, 65, 0
2, 99588, Note_on_c, 0, 60, 38
2, 99628, Note_on_c, 0, 60, 0
2, 99696, Note_on_c, 0, 63, 53
2, 99796, Note_on_c, 0, 63, 0
2, 99836, Note_on_c, 0, 67, 63
2, 99904, Note_on_c, 0, 67, 0
2, 99988, Note_on_c, 0, 62, 33
2, 100020, Note_on_c, 0, 62, 0
2, 100104, Note_on_c, 0, 65, 39
2, 100140, Note_on_c, 0, 65, 0
2, 100248, Note_on_c, 0, 69, 52
2, 100328, Note_on_c, 0, 69, 0
2, 100628, Note_on_c, 0, 64, 44
2, 100672, Note_on_c, 0, 64, 0
2, 100708, Note_on_c, 0, 69, 66
2, 100800, Note_on_c, 0, 69, 0
2, 100808, Note_on_c, 0, 73, 63
2, 100860, Note_on_c, 0, 73, 0
2, 100916, Note_on_c, 0, 76, 73
2, 100976, Note_on_c, 0, 76, 0
2, 101020, Note_on_c, 0, 81, 67
2, 101120, Note_on_c, 0, 85, 57
2, 101128, Note_on_c, 0, 81, 0
2, 101184, Note_on_c, 0, 85, 0
2, 101252, Note_on_c, 0, 88, 32
2, 101284, Note_on_c, 0, 88, 0
2, 101408, Note_on_c, 0, 65, 49
2, 101416, Note_on_c, 0, 60, 36
2, 101428, Note_on_c, 0, 61, 23
2, 101440, Note_on_c, 0, 65, 0
2, 101448, Note_on_c, 0, 60, 0
2, 101452, Note_on_c, 0, 61, 0
2, 102036, Note_on_c, 0, 65, 64
2, 102040, Note_on_c, 0, 60, 55
2, 102048, Note_on_c, 0, 61, 33
2, 102060, Note_on_c, 0, 65, 0
2, 102076, Note_on_c, 0, 61, 0
2, 102092, Note_on_c, 0, 60, 0
2, 102176, Note_on_c, 0, 96, 90
2, 102240, Note_on_c, 0, 96, 0
2, 102312, Note_on_c, 0, 94, 35
2, 102352, Note_on_c, 0, 94, 0
2, 102420, Note_on_c, 0, 96, 90
2, 102436, Note_on_c, 0, 61, 46
2, 102436, Note_on_c, 0, 60, 55
2, 102436, Note_on_c, 0, 65, 60
2, 102496, Note_on_c, 0, 65, 0
2, 102512, Note_on_c, 0, 96, 0
2, 102572, Note_on_c, 0, 94, 59
2, 102576, Note_on_c, 0, 61, 0
2, 102580, Note_on_c, 0, 60, 0
2, 102640, Note_on_c, 0, 94, 0
2, 102688, Note_on_c, 0, 89, 67
2, 102760, Note_on_c, 0, 89, 0
2, 102804, Note_on_c, 0, 65, 62
2, 102812, Note_on_c, 0, 85, 57
2, 102816, Note_on_c, 0, 58, 33
2, 102816, Note_on_c, 0, 60, 49
2, 102820, Note_on_c, 0, 54, 36
2, 102880, Note_on_c, 0, 85, 0
2, 102908, Note_on_c, 0, 65, 0
2, 102912, Note_on_c, 0, 60, 0
2, 102956, Note_on_c, 0, 84, 55
2, 102960, Note_on_c, 0, 60, 28
2, 102968, Note_on_c, 0, 65, 33
2, 103092, Note_on_c, 0, 60, 0
2, 103108, Note_on_c, 0, 65, 0
2, 103124, Note_on_c, 0, 58, 0
2, 103128, Note_on_c, 0, 54, 0
2, 103128, Control_c, 0, 64, 127
2, 103156, Note_on_c, 0, 84, 0
2, 103168, Control_c, 0, 64, 0
2, 103192, Note_on_c, 0, 65, 53
2, 103192, Note_on_c, 0, 54, 44
2, 103200, Note_on_c, 0, 82, 49
2, 103200, Note_on_c, 0, 58, 34
2, 103204, Note_on_c, 0, 60, 44
2, 103244, Note_on_c, 0, 60, 0
2, 103256, Note_on_c, 0, 65, 0
2, 103288, Note_on_c, 0, 58, 0
2, 103324, Note_on_c, 0, 82, 0
2, 103324, Note_on_c, 0, 65, 44
2, 103344, Note_on_c, 0, 58, 15
2, 103344, Note_on_c, 0, 60, 48
2, 103348, Note_on_c, 0, 84, 57
2, 103476, Note_on_c, 0, 65, 0
2, 103480, Note_on_c, 0, 60, 0
2, 103496, Note_on_c, 0, 54, 0
2, 103512, Note_on_c, 0, 58, 0
2, 103540, Note_on_c, 0, 84, 0
2, 103592, Note_on_c, 0, 65, 64
2, 103592, Note_on_c, 0, 54, 59
2, 103592, Note_on_c, 0, 58, 36
2, 103600, Note_on_c, 0, 86, 74
2, 103604, Note_on_c, 0, 60, 53
2, 103660, Note_on_c, 0, 65, 0
2, 103680, Note_on_c, 0, 60, 0
2, 103688, Note_on_c, 0, 86, 0
2, 103700, Note_on_c, 0, 58, 0
2, 103716, Note_on_c, 0, 54, 0
2, 103756, Note_on_c, 0, 54, 28
2, 103764, Note_on_c, 0, 60, 37
2, 103772, Note_on_c, 0, 65, 34
2, 103776, Note_on_c, 0, 58, 27
2, 103796, Note_on_c, 0, 82, 35
2, 103808, Note_on_c, 0, 65, 0
2, 103856, Note_on_c, 0, 60, 0
2, 103904, Note_on_c, 0, 58, 0
2, 103928, Note_on_c, 0, 54, 0
2, 103972, Note_on_c, 0, 82, 0
2, 104076, Note_on_c, 0, 77, 46
2, 104080, Note_on_c, 0, 54, 40
2, 104088, Note_on_c, 0, 65, 36
2, 104096, Note_on_c, 0, 58, 30
2, 104096, Note_on_c, 0, 60, 36
2, 104144, Control_c, 0, 64, 127
2, 104248, Note_on_c, 0, 60, 0
2, 104252, Note_on_c, 0, 65, 0
2, 104268, Note_on_c, 0, 77, 0
2, 104340, Note_on_c, 0, 54, 0
2, 104388, Note_on_c, 0, 58, 0
2, 104412, Control_c, 0, 64, 0
2, 104452, Note_on_c, 0, 64, 73
2, 104456, Note_on_c, 0, 59, 66
2, 104460, Note_on_c, 0, 53, 67
2, 104460, Note_on_c, 0, 78, 83
2, 104532, Note_on_c, 0, 78, 0
2, 104592, Note_on_c, 0, 79, 67
2, 104736, Note_on_c, 0, 79, 0
2, 104764, Note_on_c, 0, 53, 0
2, 104764, Note_on_c, 0, 64, 0
2, 104796, Note_on_c, 0, 59, 0
2, 104840, Note_on_c, 0, 59, 33
2, 104844, Note_on_c, 0, 73, 69
2, 104848, Note_on_c, 0, 53, 33
2, 104852, Note_on_c, 0, 64, 37
2, 104968, Note_on_c, 0, 73, 0
2, 104976, Note_on_c, 0, 74, 69
2, 105004, Note_on_c, 0, 64, 0
2, 105032, Note_on_c, 0, 53, 0
2, 105040, Note_on_c, 0, 59, 0
2, 105168, Note_on_c, 0, 74, 0
2, 105216, Note_on_c, 0, 67, 55
2, 105404, Note_on_c, 0, 67, 0
2, 105456, Note_on_c, 0, 67, 50
2, 105484, Note_on_c, 0, 67, 0
2, 105484, Note_on_c, 0, 59, 44
2, 105520, Note_on_c, 0, 59, 0
2, 105840, Note_on_c, 0, 78, 62
2, 105840, Note_on_c, 0, 62, 68
2, 105844, Note_on_c, 0, 66, 81
2, 105844, Note_on_c, 0, 57, 60
2, 105848, Note_on_c, 0, 58, 47
2, 105872, Note_on_c, 0, 57, 0
2, 105892, Note_on_c, 0, 62, 0
2, 105908, Note_on_c, 0, 58, 0
2, 105984, Note_on_c, 0, 78, 0
2, 105992, Note_on_c, 0, 66, 0
2, 106028, Note_on_c, 0, 67, 27
2, 106080, Note_on_c, 0, 67, 0
2, 106108, Note_on_c, 0, 79, 30
2, 106164, Note_on_c, 0, 79, 0
2, 106176, Note_on_c, 0, 67, 44
2, 106276, Note_on_c, 0, 67, 0
2, 106280, Note_on_c, 0, 79, 36
2, 106348, Note_on_c, 0, 79, 0
2, 106356, Note_on_c, 0, 67, 35
2, 106444, Note_on_c, 0, 67, 0
2, 106444, Note_on_c, 0, 79, 34
2, 106524, Note_on_c, 0, 79, 0
2, 106528, Note_on_c, 0, 67, 33
2, 106608, Note_on_c, 0, 79, 31
2, 106620, Note_on_c, 0, 67, 0
2, 106672, Note_on_c, 0, 62, 68
2, 106676, Note_on_c, 0, 58, 46
2, 106680, Note_on_c, 0, 57, 51
2, 106688, Note_on_c, 0, 79, 0
2, 106708, Note_on_c, 0, 62, 0
2, 106708, Note_on_c, 0, 57, 0
2, 106740, Note_on_c, 0, 58, 0
2, 107172, Note_on_c, 0, 67, 59
2, 107176, Note_on_c, 0, 79, 46
2, 107180, Note_on_c, 0, 81, 60
2, 107240, Note_on_c, 0, 81, 0
2, 107300, Note_on_c, 0, 79, 0
2, 107328, Note_on_c, 0, 67, 0
2, 107428, Note_on_c, 0, 62, 66
2, 107436, Note_on_c, 0, 58, 46
2, 107440, Note_on_c, 0, 78, 56
2, 107452, Note_on_c, 0, 66, 69
2, 107464, Note_on_c, 0, 62, 0
2, 107488, Note_on_c, 0, 58, 0
2, 107560, Note_on_c, 0, 66, 0
2, 107568, Note_on_c, 0, 78, 0
2, 107624, Note_on_c, 0, 78, 35
2, 107648, Note_on_c, 0, 66, 58
2, 107716, Note_on_c, 0, 78, 0
2, 107732, Note_on_c, 0, 66, 0
2, 107744, Note_on_c, 0, 67, 57
2, 107820, Note_on_c, 0, 67, 0
2, 107848, Note_on_c, 0, 79, 41
2, 107916, Note_on_c, 0, 79, 0
2, 107924, Note_on_c, 0, 67, 51
2, 108000, Note_on_c, 0, 79, 30
2, 108004, Note_on_c, 0, 67, 0
2, 108088, Note_on_c, 0, 67, 50
2, 108104, Note_on_c, 0, 79, 0
2, 108184, Note_on_c, 0, 79, 37
2, 108196, Note_on_c, 0, 67, 0
2, 108196, Note_on_c, 0, 62, 64
2, 108204, Note_on_c, 0, 58, 53
2, 108204, Note_on_c, 0, 57, 60
2, 108212, Note_on_c, 0, 60, 50
2, 108228, Note_on_c, 0, 57, 0
2, 108240, Note_on_c, 0, 60, 0
2, 108244, Note_on_c, 0, 62, 0
2, 108260, Note_on_c, 0, 58, 0
2, 108276, Note_on_c, 0, 79, 0
2, 108288, Note_on_c, 0, 67, 40
2, 108376, Note_on_c, 0, 67, 0
2, 108380, Note_on_c, 0, 79, 35
2, 108456, Note_on_c, 0, 79, 0
2, 108460, Note_on_c, 0, 67, 41
2, 108552, Note_on_c, 0, 67, 0
2, 108552, Note_on_c, 0, 79, 40
2, 108644, Note_on_c, 0, 79, 0
2, 108652, Note_on_c, 0, 67, 44
2, 108740, Note_on_c, 0, 67, 0
2, 108748, Note_on_c, 0, 79, 22
2, 108800, Note_on_c, 0, 79, 0
2, 108940, Note_on_c, 0, 67, 65
2, 108940, Note_on_c, 0, 58, 42
2, 108948, Note_on_c, 0, 62, 58
2, 108948, Note_on_c, 0, 63, 46
2, 109176, Note_on_c, 0, 63, 0
2, 109272, Note_on_c, 0, 63, 34
2, 109296, Note_on_c, 0, 71, 26
2, 109320, Note_on_c, 0, 71, 0
2, 109372, Note_on_c, 0, 67, 0
2, 109380, Note_on_c, 0, 74, 82
2, 109436, Note_on_c, 0, 63, 0
2, 109456, Note_on_c, 0, 74, 0
2, 109484, Note_on_c, 0, 62, 0
2, 109484, Note_on_c, 0, 71, 57
2, 109512, Note_on_c, 0, 71, 0
2, 109588, Note_on_c, 0, 72, 38
2, 109664, Note_on_c, 0, 74, 52
2, 109668, Note_on_c, 0, 72, 0
2, 109724, Note_on_c, 0, 74, 0
2, 109752, Note_on_c, 0, 75, 60
2, 109788, Note_on_c, 0, 75, 0
2, 109816, Note_on_c, 0, 67, 26
2, 109824, Note_on_c, 0, 63, 21
2, 109856, Note_on_c, 0, 79, 57
2, 109884, Note_on_c, 0, 67, 0
2, 109916, Note_on_c, 0, 79, 0
2, 109928, Note_on_c, 0, 63, 0
2, 109948, Note_on_c, 0, 83, 45
2, 110012, Note_on_c, 0, 83, 0
2, 110052, Note_on_c, 0, 86, 74
2, 110124, Note_on_c, 0, 86, 0
2, 110144, Note_on_c, 0, 83, 58
2, 110180, Note_on_c, 0, 63, 26
2, 110212, Note_on_c, 0, 83, 0
2, 110224, Note_on_c, 0, 84, 60
2, 110324, Note_on_c, 0, 63, 0
2, 110328, Note_on_c, 0, 84, 0
2, 110332, Note_on_c, 0, 86, 53
2, 110376, Note_on_c, 0, 86, 0
2, 110400, Note_on_c, 0, 87, 52
2, 110452, Note_on_c, 0, 87, 0
2, 110504, Note_on_c, 0, 89, 72
2, 110564, Note_on_c, 0, 89, 0
2, 110568, Note_on_c, 0, 58, 0
2, 110612, Note_on_c, 0, 90, 69
2, 110660, Note_on_c, 0, 67, 43
2, 110668, Note_on_c, 0, 63, 28
2, 110668, Note_on_c, 0, 57, 36
2, 110692, Note_on_c, 0, 90, 0
2, 110704, Note_on_c, 0, 67, 0
2, 110720, Note_on_c, 0, 92, 49
2, 110852, Note_on_c, 0, 92, 0
2, 110872, Note_on_c, 0, 63, 0
2, 110924, Note_on_c, 0, 93, 77
2, 110936, Note_on_c, 0, 63, 45
2, 110940, Note_on_c, 0, 67, 63
2, 111052, Note_on_c, 0, 67, 0
2, 111052, Note_on_c, 0, 93, 0
2, 111080, Note_on_c, 0, 57, 0
2, 111088, Note_on_c, 0, 63, 0
2, 111104, Note_on_c, 0, 94, 45
2, 111272, Note_on_c, 0, 94, 0
2, 111324, Note_on_c, 0, 63, 46
2, 111324, Note_on_c, 0, 96, 73
2, 111324, Note_on_c, 0, 67, 51
2, 111328, Note_on_c, 0, 57, 52
2, 111360, Note_on_c, 0, 67, 0
2, 111368, Note_on_c, 0, 57, 0
2, 111412, Note_on_c, 0, 96, 0
2, 111436, Note_on_c, 0, 63, 0
2, 111464, Note_on_c, 0, 98, 64
2, 111520, Note_on_c, 0, 98, 0
2, 111584, Note_on_c, 0, 99, 67
2, 111656, Note_on_c, 0, 99, 0
2, 111696, Note_on_c, 0, 101, 70
2, 111716, Note_on_c, 0, 63, 42
2, 111728, Note_on_c, 0, 57, 45
2, 111736, Note_on_c, 0, 67, 29
2, 111776, Note_on_c, 0, 67, 0
2, 111780, Note_on_c, 0, 101, 0
2, 111848, Note_on_c, 0, 97, 56
2, 111920, Note_on_c, 0, 97, 0
2, 111968, Note_on_c, 0, 98, 60
2, 111996, Note_on_c, 0, 57, 0
2, 112000, Note_on_c, 0, 63, 0
2, 112052, Note_on_c, 0, 98, 0
2, 112096, Note_on_c, 0, 65, 65
2, 112100, Note_on_c, 0, 62, 66
2, 112104, Note_on_c, 0, 60, 60
2, 112108, Note_on_c, 0, 93, 50
2, 112220, Note_on_c, 0, 93, 0
2, 112240, Note_on_c, 0, 65, 0
2, 112248, Note_on_c, 0, 60, 0
2, 112248, Note_on_c, 0, 96, 65
2, 112260, Note_on_c, 0, 62, 0
2, 112316, Note_on_c, 0, 96, 0
2, 112800, Note_on_c, 0, 62, 55
2, 112804, Note_on_c, 0, 65, 53
2, 112808, Note_on_c, 0, 60, 51
2, 112828, Note_on_c, 0, 65, 0
2, 112840, Note_on_c, 0, 62, 0
2, 112844, Note_on_c, 0, 60, 0
2, 112928, Note_on_c, 0, 93, 89
2, 112992, Note_on_c, 0, 93, 0
2, 113036, Note_on_c, 0, 94, 67
2, 113104, Note_on_c, 0, 94, 0
2, 113152, Note_on_c, 0, 62, 52
2, 113160, Note_on_c, 0, 65, 40
2, 113164, Note_on_c, 0, 60, 43
2, 113172, Note_on_c, 0, 88, 76
2, 113192, Note_on_c, 0, 65, 0
2, 113228, Note_on_c, 0, 62, 0
2, 113248, Note_on_c, 0, 60, 0
2, 113256, Note_on_c, 0, 88, 0
2, 113300, Note_on_c, 0, 89, 60
2, 113352, Note_on_c, 0, 89, 0
2, 113440, Note_on_c, 0, 85, 75
2, 113444, Note_on_c, 0, 62, 53
2, 113444, Note_on_c, 0, 65, 48
2, 113460, Note_on_c, 0, 60, 36
2, 113480, Note_on_c, 0, 65, 0
2, 113512, Note_on_c, 0, 62, 0
2, 113516, Note_on_c, 0, 60, 0
2, 113528, Note_on_c, 0, 85, 0
2, 113560, Note_on_c, 0, 86, 62
2, 113612, Note_on_c, 0, 86, 0
2, 113684, Note_on_c, 0, 61, 54
2, 113688, Note_on_c, 0, 65, 60
2, 113704, Note_on_c, 0, 55, 39
2, 113716, Note_on_c, 0, 65, 0
2, 113736, Note_on_c, 0, 55, 0
2, 113752, Note_on_c, 0, 61, 0
2, 114304, Note_on_c, 0, 65, 76
2, 114304, Note_on_c, 0, 60, 71
2, 114308, Note_on_c, 0, 61, 54
2, 114316, Note_on_c, 0, 58, 37
2, 114336, Note_on_c, 0, 60, 0
2, 114340, Note_on_c, 0, 65, 0
2, 114352, Note_on_c, 0, 58, 0
2, 114380, Note_on_c, 0, 61, 0
2, 114436, Note_on_c, 0, 84, 84
2, 114480, Note_on_c, 0, 84, 0
2, 114540, Note_on_c, 0, 85, 67
2, 114592, Note_on_c, 0, 85, 0
2, 114664, Note_on_c, 0, 80, 74
2, 114664, Note_on_c, 0, 61, 40
2, 114664, Note_on_c, 0, 65, 60
2, 114672, Note_on_c, 0, 60, 34
2, 114704, Note_on_c, 0, 65, 0
2, 114728, Note_on_c, 0, 60, 0
2, 114744, Note_on_c, 0, 80, 0
2, 114768, Note_on_c, 0, 61, 0
2, 114792, Note_on_c, 0, 81, 64
2, 114860, Note_on_c, 0, 81, 0
2, 114912, Note_on_c, 0, 76, 58
2, 114932, Note_on_c, 0, 61, 39
2, 114940, Note_on_c, 0, 55, 47
2, 114944, Note_on_c, 0, 65, 32
2, 115032, Note_on_c, 0, 76, 0
2, 115040, Note_on_c, 0, 65, 0
2, 115076, Note_on_c, 0, 55, 0
2, 115084, Note_on_c, 0, 61, 0
2, 115212, Note_on_c, 0, 54, 60
2, 115212, Note_on_c, 0, 65, 64
2, 115224, Note_on_c, 0, 60, 50
2, 115232, Note_on_c, 0, 58, 32
2, 115380, Note_on_c, 0, 60, 0
2, 115384, Note_on_c, 0, 65, 0
2, 115388, Note_on_c, 0, 58, 0
2, 115392, Note_on_c, 0, 54, 0
2, 115864, Note_on_c, 0, 65, 68
2, 115868, Note_on_c, 0, 85, 77
2, 115868, Note_on_c, 0, 54, 56
2, 115872, Note_on_c, 0, 58, 44
2, 115876, Note_on_c, 0, 60, 50
2, 115996, Note_on_c, 0, 85, 0
2, 116000, Note_on_c, 0, 65, 0
2, 116016, Note_on_c, 0, 54, 0
2, 116052, Note_on_c, 0, 86, 64
2, 116056, Note_on_c, 0, 60, 0
2, 116128, Note_on_c, 0, 58, 0
2, 116192, Note_on_c, 0, 86, 0
2, 116252, Note_on_c, 0, 81, 71
2, 116264, Note_on_c, 0, 54, 53
2, 116268, Note_on_c, 0, 60, 54
2, 116272, Note_on_c, 0, 65, 46
2, 116308, Note_on_c, 0, 65, 0
2, 116352, Note_on_c, 0, 81, 0
2, 116356, Note_on_c, 0, 54, 0
2, 116400, Note_on_c, 0, 60, 0
2, 116404, Note_on_c, 0, 78, 42
2, 116568, Note_on_c, 0, 78, 0
2, 116644, Note_on_c, 0, 77, 49
2, 116652, Note_on_c, 0, 64, 50
2, 116652, Note_on_c, 0, 59, 57
2, 116656, Note_on_c, 0, 53, 44
2, 116696, Note_on_c, 0, 64, 0
2, 116744, Note_on_c, 0, 77, 0
2, 116752, Note_on_c, 0, 59, 0
2, 116792, Note_on_c, 0, 53, 0
2, 116824, Note_on_c, 0, 75, 28
2, 116988, Note_on_c, 0, 75, 0
2, 117048, Note_on_c, 0, 77, 62
2, 117056, Note_on_c, 0, 52, 41
2, 117064, Note_on_c, 0, 50, 47
2, 117096, Note_on_c, 0, 52, 0
2, 117100, Note_on_c, 0, 77, 0
2, 117120, Note_on_c, 0, 50, 0
2, 117168, Note_on_c, 0, 50, 30
2, 117196, Note_on_c, 0, 73, 56
2, 117244, Note_on_c, 0, 74, 51
2, 117252, Note_on_c, 0, 73, 0
2, 117256, Note_on_c, 0, 50, 0
2, 117372, Note_on_c, 0, 74, 0
2, 117436, Note_on_c, 0, 50, 32
2, 117472, Note_on_c, 0, 50, 0
2, 117520, Note_on_c, 0, 70, 67
2, 117572, Note_on_c, 0, 71, 46
2, 117580, Note_on_c, 0, 70, 0
2, 117720, Note_on_c, 0, 71, 0
2, 117748, Note_on_c, 0, 50, 55
2, 117772, Note_on_c, 0, 67, 68
2, 117788, Note_on_c, 0, 50, 0
2, 117880, Note_on_c, 0, 67, 0
2, 117932, Note_on_c, 0, 64, 25
2, 118064, Note_on_c, 0, 64, 0
2, 118132, Note_on_c, 0, 67, 71
2, 118132, Note_on_c, 0, 57, 42
2, 118140, Note_on_c, 0, 58, 46
2, 118144, Note_on_c, 0, 62, 58
2, 118520, Note_on_c, 0, 62, 0
2, 118540, Note_on_c, 0, 67, 0
2, 118544, Note_on_c, 0, 58, 0
2, 118632, Note_on_c, 0, 62, 31
2, 118648, Note_on_c, 0, 58, 25
2, 118656, Note_on_c, 0, 67, 55
2, 118844, Note_on_c, 0, 58, 0
2, 118868, Note_on_c, 0, 62, 0
2, 118916, Note_on_c, 0, 67, 0
2, 118928, Note_on_c, 0, 57, 0
2, 119036, Note_on_c, 0, 62, 48
2, 119040, Note_on_c, 0, 70, 60
2, 119044, Note_on_c, 0, 57, 30
2, 119048, Note_on_c, 0, 58, 32
2, 119100, Note_on_c, 0, 62, 0
2, 119116, Note_on_c, 0, 58, 0
2, 119144, Note_on_c, 0, 57, 0
2, 119220, Note_on_c, 0, 70, 0
2, 119412, Note_on_c, 0, 67, 63
2, 119424, Note_on_c, 0, 62, 57
2, 119436, Note_on_c, 0, 58, 31
2, 119440, Note_on_c, 0, 57, 27
2, 119472, Note_on_c, 0, 57, 0
2, 119488, Note_on_c, 0, 67, 0
2, 119492, Note_on_c, 0, 58, 0
2, 119492, Control_c, 0, 64, 127
2, 119500, Note_on_c, 0, 62, 0
2, 119768, Control_c, 0, 64, 0
2, 119812, Note_on_c, 0, 78, 47
2, 119816, Note_on_c, 0, 86, 77
2, 119820, Note_on_c, 0, 74, 76
2, 119820, Note_on_c, 0, 58, 57
2, 119824, Note_on_c, 0, 63, 48
2, 119824, Note_on_c, 0, 79, 60
2, 119824, Note_on_c, 0, 82, 48
2, 119824, Note_on_c, 0, 67, 68
2, 119828, Note_on_c, 0, 62, 60
2, 119884, Control_c, 0, 64, 127
2, 119892, Note_on_c, 0, 78, 0
2, 119964, Note_on_c, 0, 74, 0
2, 119980, Note_on_c, 0, 67, 0
2, 119980, Note_on_c, 0, 86, 0
2, 119988, Note_on_c, 0, 58, 0
2, 119988, Note_on_c, 0, 79, 0
2, 119992, Note_on_c, 0, 62, 0
2, 119996, Note_on_c, 0, 63, 0
2, 120008, Note_on_c, 0, 82, 0
2, 120088, Note_on_c, 0, 84, 54
2, 120100, Note_on_c, 0, 63, 37
2, 120100, Note_on_c, 0, 67, 45
2, 120100, Note_on_c, 0, 62, 48
2, 120112, Note_on_c, 0, 84, 0
2, 120112, Note_on_c, 0, 58, 23
2, 120112, Note_on_c, 0, 82, 31
2, 120116, Note_on_c, 0, 79, 37
2, 120128, Note_on_c, 0, 67, 0
2, 120132, Note_on_c, 0, 62, 0
2, 120140, Note_on_c, 0, 58, 0
2, 120140, Note_on_c, 0, 63, 0
2, 120144, Control_c, 0, 64, 0
2, 120148, Note_on_c, 0, 79, 0
2, 120148, Note_on_c, 0, 82, 0
2, 120208, Note_on_c, 0, 58, 48
2, 120212, Note_on_c, 0, 82, 39
2, 120212, Note_on_c, 0, 79, 41
2, 120216, Note_on_c, 0, 67, 57
2, 120220, Note_on_c, 0, 74, 51
2, 120220, Note_on_c, 0, 86, 60
2, 120220, Note_on_c, 0, 62, 42
2, 120224, Note_on_c, 0, 63, 33
2, 120244, Note_on_c, 0, 79, 0
2, 120252, Note_on_c, 0, 74, 0
2, 120256, Note_on_c, 0, 62, 0
2, 120268, Note_on_c, 0, 82, 0
2, 120272, Note_on_c, 0, 67, 0
2, 120284, Note_on_c, 0, 86, 0
2, 120292, Note_on_c, 0, 63, 0
2, 120320, Note_on_c, 0, 58, 0
2, 120464, Note_on_c, 0, 89, 74
2, 120464, Note_on_c, 0, 77, 70
2, 120468, Note_on_c, 0, 84, 73
2, 120468, Note_on_c, 0, 63, 55
2, 120472, Note_on_c, 0, 67, 69
2, 120476, Note_on_c, 0, 57, 48
2, 120488, Note_on_c, 0, 89, 0
2, 120496, Note_on_c, 0, 84, 0
2, 120500, Note_on_c, 0, 67, 0
2, 120504, Note_on_c, 0, 77, 0
2, 120540, Note_on_c, 0, 57, 0
2, 120548, Note_on_c, 0, 63, 0
2, 120724, Note_on_c, 0, 57, 71
2, 120724, Note_on_c, 0, 63, 69
2, 120732, Note_on_c, 0, 67, 66
2, 120744, Note_on_c, 0, 74, 57
2, 120744, Note_on_c, 0, 86, 52
2, 120744, Note_on_c, 0, 72, 57
2, 120744, Note_on_c, 0, 84, 62
2, 120760, Note_on_c, 0, 67, 0
2, 120772, Note_on_c, 0, 72, 0
2, 120772, Note_on_c, 0, 84, 0
2, 120776, Note_on_c, 0, 74, 0
2, 120788, Note_on_c, 0, 86, 0
2, 120820, Note_on_c, 0, 57, 0
2, 120876, Note_on_c, 0, 63, 0
2, 120960, Note_on_c, 0, 66, 69
2, 120964, Note_on_c, 0, 56, 60
2, 120968, Note_on_c, 0, 63, 51
2, 120972, Note_on_c, 0, 61, 42
2, 121008, Control_c, 0, 64, 127
2, 121104, Note_on_c, 0, 66, 0
2, 121124, Note_on_c, 0, 56, 0
2, 121156, Note_on_c, 0, 63, 0
2, 121164, Note_on_c, 0, 61, 0
2, 121200, Note_on_c, 0, 65, 68
2, 121208, Note_on_c, 0, 72, 73
2, 121208, Note_on_c, 0, 62, 55
2, 121212, Note_on_c, 0, 84, 84
2, 121212, Control_c, 0, 64, 0
2, 121216, Note_on_c, 0, 55, 57
2, 121216, Note_on_c, 0, 60, 50
2, 121432, Control_c, 0, 64, 127
2, 121568, Note_on_c, 0, 84, 0
2, 121604, Note_on_c, 0, 65, 0
2, 121608, Note_on_c, 0, 72, 0
2, 121632, Note_on_c, 0, 55, 0
2, 121636, Note_on_c, 0, 60, 0
2, 121640, Note_on_c, 0, 62, 0
2, 121700, Control_c, 0, 64, 0
2, 121712, Note_on_c, 0, 65, 39
2, 121716, Note_on_c, 0, 69, 51
2, 121720, Note_on_c, 0, 62, 40
2, 121720, Note_on_c, 0, 81, 53
2, 121724, Note_on_c, 0, 55, 17
2, 121728, Note_on_c, 0, 60, 37
2, 121820, Control_c, 0, 64, 127
2, 121880, Note_on_c, 0, 65, 0
2, 121896, Note_on_c, 0, 81, 0
2, 121896, Note_on_c, 0, 69, 0
2, 121900, Note_on_c, 0, 55, 0
2, 121904, Note_on_c, 0, 60, 0
2, 121912, Note_on_c, 0, 62, 0
2, 121952, Control_c, 0, 64, 0
2, 121984, Note_on_c, 0, 62, 52
2, 121984, Note_on_c, 0, 81, 74
2, 121988, Note_on_c, 0, 69, 71
2, 121988, Note_on_c, 0, 65, 64
2, 121996, Note_on_c, 0, 60, 48
2, 121996, Note_on_c, 0, 55, 48
2, 122128, Control_c, 0, 64, 127
2, 122208, Note_on_c, 0, 81, 0
2, 122220, Note_on_c, 0, 65, 0
2, 122236, Note_on_c, 0, 60, 0
2, 122248, Note_on_c, 0, 62, 0
2, 122248, Note_on_c, 0, 55, 0
2, 122260, Note_on_c, 0, 69, 0
2, 122372, Note_on_c, 0, 62, 33
2, 122400, Note_on_c, 0, 62, 0
2, 122412, Control_c, 0, 64, 0
2, 122484, Note_on_c, 0, 62, 51
2, 122488, Note_on_c, 0, 77, 57
2, 122496, Note_on_c, 0, 72, 51
2, 122496, Note_on_c, 0, 60, 39
2, 122504, Note_on_c, 0, 55, 55
2, 122508, Note_on_c, 0, 65, 19
2, 122544, Control_c, 0, 64, 127
2, 122628, Note_on_c, 0, 55, 0
2, 122648, Note_on_c, 0, 77, 0
2, 122648, Note_on_c, 0, 65, 0
2, 122652, Note_on_c, 0, 60, 0
2, 122656, Note_on_c, 0, 72, 0
2, 122664, Note_on_c, 0, 62, 0
2, 122752, Note_on_c, 0, 62, 57
2, 122752, Note_on_c, 0, 65, 64
2, 122756, Note_on_c, 0, 77, 66
2, 122756, Note_on_c, 0, 72, 67
2, 122764, Note_on_c, 0, 55, 58
2, 122764, Note_on_c, 0, 60, 58
2, 122784, Control_c, 0, 64, 0
2, 122912, Control_c, 0, 64, 127
2, 123152, Note_on_c, 0, 55, 0
2, 123164, Note_on_c, 0, 65, 0
2, 123168, Note_on_c, 0, 60, 0
2, 123172, Note_on_c, 0, 62, 0
2, 123176, Note_on_c, 0, 72, 0
2, 123252, Note_on_c, 0, 77, 0
2, 123272, Control_c, 0, 64, 0
2, 123288, Note_on_c, 0, 62, 48
2, 123300, Note_on_c, 0, 55, 40
2, 123300, Note_on_c, 0, 60, 34
2, 123324, Control_c, 0, 64, 127
2, 123344, Note_on_c, 0, 60, 0
2, 123360, Note_on_c, 0, 62, 0
2, 123368, Note_on_c, 0, 55, 0
2, 123532, Note_on_c, 0, 62, 72
2, 123544, Note_on_c, 0, 60, 63
2, 123544, Note_on_c, 0, 55, 68
2, 123596, Control_c, 0, 64, 0
2, 123932, Note_on_c, 0, 67, 51
2, 123964, Note_on_c, 0, 67, 0
2, 124008, Note_on_c, 0, 62, 0
2, 124008, Note_on_c, 0, 60, 0
2, 124056, Note_on_c, 0, 72, 54
2, 124072, Note_on_c, 0, 55, 0
2, 124268, Note_on_c, 0, 72, 0
2, 124284, Note_on_c, 0, 60, 52
2, 124288, Note_on_c, 0, 63, 56
2, 124300, Note_on_c, 0, 55, 34
2, 124304, Note_on_c, 0, 75, 74
2, 124312, Note_on_c, 0, 57, 35
2, 124428, Control_c, 0, 64, 127
2, 124500, Note_on_c, 0, 63, 0
2, 124504, Note_on_c, 0, 75, 0
2, 124576, Note_on_c, 0, 62, 76
2, 124684, Note_on_c, 0, 62, 0
2, 124820, Control_c, 0, 64, 0
2, 124828, Note_on_c, 0, 66, 90
2, 124884, Note_on_c, 0, 57, 0
2, 124908, Control_c, 0, 64, 127
2, 125040, Note_on_c, 0, 66, 0
2, 125088, Note_on_c, 0, 72, 72
2, 125128, Control_c, 0, 64, 0
2, 125152, Note_on_c, 0, 55, 0
2, 125180, Note_on_c, 0, 60, 0
2, 125300, Note_on_c, 0, 72, 0
2, 125320, Note_on_c, 0, 65, 64
2, 125320, Note_on_c, 0, 58, 52
2, 125324, Note_on_c, 0, 54, 52
2, 125324, Note_on_c, 0, 60, 57
2, 125528, Note_on_c, 0, 65, 0
2, 125536, Note_on_c, 0, 54, 0
2, 125548, Note_on_c, 0, 58, 0
2, 125548, Note_on_c, 0, 60, 0
2, 125600, Note_on_c, 0, 54, 56
2, 125600, Note_on_c, 0, 65, 59
2, 125608, Note_on_c, 0, 58, 44
2, 125612, Note_on_c, 0, 60, 65
2, 125628, Control_c, 0, 64, 127
2, 125700, Note_on_c, 0, 65, 0
2, 125720, Note_on_c, 0, 60, 0
2, 125784, Note_on_c, 0, 58, 0
2, 125808, Note_on_c, 0, 54, 0
2, 125848, Note_on_c, 0, 58, 40
2, 125856, Note_on_c, 0, 62, 64
2, 125860, Note_on_c, 0, 57, 60
2, 125864, Control_c, 0, 64, 0
2, 125868, Note_on_c, 0, 55, 54
2, 126232, Note_on_c, 0, 72, 91
2, 126320, Note_on_c, 0, 72, 0
2, 126376, Note_on_c, 0, 57, 0
2, 126380, Note_on_c, 0, 69, 38
2, 126384, Note_on_c, 0, 62, 0
2, 126424, Note_on_c, 0, 58, 0
2, 126612, Note_on_c, 0, 70, 55
2, 126616, Note_on_c, 0, 62, 53
2, 126616, Note_on_c, 0, 58, 34
2, 126620, Note_on_c, 0, 57, 37
2, 126636, Note_on_c, 0, 69, 0
2, 126656, Note_on_c, 0, 62, 0
2, 126680, Note_on_c, 0, 70, 0
2, 126684, Note_on_c, 0, 57, 0
2, 126716, Note_on_c, 0, 58, 0
2, 126752, Note_on_c, 0, 74, 47
2, 126896, Note_on_c, 0, 74, 0
2, 126996, Note_on_c, 0, 58, 36
2, 127000, Note_on_c, 0, 81, 57
2, 127012, Note_on_c, 0, 62, 37
2, 127020, Note_on_c, 0, 57, 24
2, 127032, Note_on_c, 0, 81, 0
2, 127092, Note_on_c, 0, 57, 0
2, 127112, Note_on_c, 0, 84, 90
2, 127116, Note_on_c, 0, 55, 0
2, 127148, Note_on_c, 0, 58, 0
2, 127164, Note_on_c, 0, 62, 0
2, 127248, Control_c, 0, 64, 127
2, 127292, Note_on_c, 0, 84, 0
2, 127360, Note_on_c, 0, 81, 71
2, 127384, Note_on_c, 0, 60, 32
2, 127388, Note_on_c, 0, 55, 30
2, 127392, Note_on_c, 0, 63, 32
2, 127424, Control_c, 0, 64, 0
2, 127436, Note_on_c, 0, 63, 0
2, 127440, Note_on_c, 0, 81, 0
2, 127496, Note_on_c, 0, 75, 54
2, 127528, Control_c, 0, 64, 127
2, 127540, Note_on_c, 0, 55, 0
2, 127584, Note_on_c, 0, 60, 0
2, 127648, Note_on_c, 0, 75, 0
2, 127744, Note_on_c, 0, 75, 71
2, 127748, Note_on_c, 0, 55, 50
2, 127752, Note_on_c, 0, 63, 58
2, 127760, Note_on_c, 0, 60, 43
2, 127796, Control_c, 0, 64, 0
2, 127896, Control_c, 0, 64, 127
2, 128000, Note_on_c, 0, 63, 0
2, 128004, Note_on_c, 0, 55, 0
2, 128008, Note_on_c, 0, 75, 0
2, 128060, Note_on_c, 0, 60, 0
2, 128236, Note_on_c, 0, 62, 65
2, 128248, Control_c, 0, 64, 0
2, 128248, Note_on_c, 0, 54, 49
2, 128252, Note_on_c, 0, 60, 50
2, 128360, Control_c, 0, 64, 127
2, 128432, Note_on_c, 0, 54, 0
2, 128432, Note_on_c, 0, 62, 0
2, 128436, Note_on_c, 0, 60, 0
2, 128496, Note_on_c, 0, 54, 48
2, 128496, Note_on_c, 0, 60, 62
2, 128500, Note_on_c, 0, 67, 82
2, 128632, Note_on_c, 0, 54, 0
2, 128648, Note_on_c, 0, 60, 0
2, 128668, Note_on_c, 0, 67, 0
2, 128776, Note_on_c, 0, 72, 85
2, 128792, Note_on_c, 0, 54, 60
2, 128800, Note_on_c, 0, 60, 55
2, 128940, Note_on_c, 0, 60, 0
2, 128952, Note_on_c, 0, 72, 0
2, 129000, Note_on_c, 0, 54, 0
2, 129044, Control_c, 0, 64, 0
2, 129052, Note_on_c, 0, 77, 90
2, 129160, Control_c, 0, 64, 127
2, 129252, Note_on_c, 0, 77, 0
2, 129312, Note_on_c, 0, 82, 81
2, 129312, Control_c, 0, 64, 0
2, 129448, Note_on_c, 0, 82, 0
2, 129540, Note_on_c, 0, 87, 74
2, 129616, Control_c, 0, 64, 127
2, 129680, Control_c, 0, 64, 0
2, 129696, Note_on_c, 0, 87, 0
2, 130068, Note_on_c, 0, 63, 57
2, 130084, Note_on_c, 0, 58, 37
2, 130100, Note_on_c, 0, 63, 0
2, 130120, Note_on_c, 0, 58, 0
2, 130220, Note_on_c, 0, 93, 41
2, 130260, Note_on_c, 0, 93, 0
2, 130340, Note_on_c, 0, 94, 55
2, 130392, Note_on_c, 0, 94, 0
2, 130452, Note_on_c, 0, 95, 90
2, 130464, Note_on_c, 0, 60, 50
2, 130464, Note_on_c, 0, 63, 60
2, 130476, Note_on_c, 0, 57, 51
2, 130484, Note_on_c, 0, 55, 57
2, 130564, Note_on_c, 0, 95, 0
2, 130620, Note_on_c, 0, 96, 66
2, 130712, Note_on_c, 0, 96, 0
2, 130736, Note_on_c, 0, 63, 0
2, 130756, Note_on_c, 0, 60, 0
2, 130844, Note_on_c, 0, 84, 64
2, 130856, Note_on_c, 0, 63, 53
2, 130920, Note_on_c, 0, 84, 0
2, 130924, Note_on_c, 0, 63, 0
2, 130956, Note_on_c, 0, 57, 0
2, 131008, Note_on_c, 0, 84, 43
2, 131036, Note_on_c, 0, 55, 0
2, 131136, Note_on_c, 0, 84, 0
2, 131232, Note_on_c, 0, 65, 55
2, 131236, Note_on_c, 0, 84, 64
2, 131244, Note_on_c, 0, 60, 43
2, 131248, Note_on_c, 0, 54, 27
2, 131260, Note_on_c, 0, 65, 0
2, 131260, Note_on_c, 0, 58, 20
2, 131276, Note_on_c, 0, 84, 0
2, 131312, Note_on_c, 0, 54, 0
2, 131336, Note_on_c, 0, 60, 0
2, 131400, Note_on_c, 0, 58, 0
2, 131428, Note_on_c, 0, 86, 36
2, 131464, Note_on_c, 0, 86, 0
2, 131484, Note_on_c, 0, 87, 63
2, 131548, Note_on_c, 0, 86, 55
2, 131576, Note_on_c, 0, 87, 0
2, 131628, Note_on_c, 0, 86, 0
2, 131628, Note_on_c, 0, 84, 74
2, 131708, Note_on_c, 0, 84, 0
2, 131724, Note_on_c, 0, 54, 37
2, 131728, Note_on_c, 0, 65, 29
2, 131744, Note_on_c, 0, 58, 30
2, 131752, Note_on_c, 0, 60, 26
2, 131776, Note_on_c, 0, 65, 0
2, 131776, Note_on_c, 0, 82, 49
2, 131792, Note_on_c, 0, 60, 0
2, 131920, Note_on_c, 0, 58, 0
2, 131932, Note_on_c, 0, 82, 0
2, 131936, Note_on_c, 0, 54, 0
2, 131988, Note_on_c, 0, 58, 32
2, 131992, Note_on_c, 0, 81, 64
2, 131992, Note_on_c, 0, 57, 45
2, 132004, Note_on_c, 0, 62, 34
2, 132036, Note_on_c, 0, 55, 24
2, 132076, Note_on_c, 0, 81, 0
2, 132136, Note_on_c, 0, 84, 78
2, 132172, Note_on_c, 0, 62, 0
2, 132208, Note_on_c, 0, 84, 0
2, 132212, Note_on_c, 0, 58, 0
2, 132216, Note_on_c, 0, 57, 0
2, 132276, Note_on_c, 0, 78, 40
2, 132304, Note_on_c, 0, 78, 0
2, 132372, Note_on_c, 0, 81, 76
2, 132412, Note_on_c, 0, 62, 47
2, 132428, Note_on_c, 0, 58, 29
2, 132456, Note_on_c, 0, 62, 0
2, 132480, Note_on_c, 0, 81, 0
2, 132496, Note_on_c, 0, 58, 0
2, 132512, Note_on_c, 0, 78, 39
2, 132548, Note_on_c, 0, 78, 0
2, 132580, Note_on_c, 0, 55, 0
2, 132620, Note_on_c, 0, 79, 74
2, 132708, Note_on_c, 0, 79, 0
2, 132744, Note_on_c, 0, 74, 65
2, 132804, Note_on_c, 0, 74, 0
2, 132876, Note_on_c, 0, 72, 60
2, 133044, Note_on_c, 0, 72, 0
2, 133136, Note_on_c, 0, 70, 62
2, 133156, Note_on_c, 0, 62, 40
2, 133160, Note_on_c, 0, 58, 27
2, 133168, Note_on_c, 0, 57, 35
2, 133188, Note_on_c, 0, 55, 25
2, 133196, Note_on_c, 0, 62, 0
2, 133196, Note_on_c, 0, 70, 0
2, 133248, Note_on_c, 0, 57, 0
2, 133248, Note_on_c, 0, 58, 0
2, 133284, Note_on_c, 0, 69, 48
2, 133316, Note_on_c, 0, 69, 0
2, 133364, Note_on_c, 0, 55, 0
2, 133392, Note_on_c, 0, 70, 54
2, 133448, Note_on_c, 0, 70, 0
2, 133532, Note_on_c, 0, 72, 33
2, 133576, Note_on_c, 0, 72, 0
2, 133656, Note_on_c, 0, 68, 49
2, 133836, Note_on_c, 0, 68, 0
2, 134044, Note_on_c, 0, 66, 67
2, 134116, Note_on_c, 0, 66, 0
2, 134160, Note_on_c, 0, 67, 64
2, 134236, Note_on_c, 0, 67, 0
2, 134404, Note_on_c, 0, 64, 71
2, 134472, Note_on_c, 0, 64, 0
2, 134528, Note_on_c, 0, 65, 58
2, 134584, Note_on_c, 0, 65, 0
2, 134668, Note_on_c, 0, 63, 80
2, 134748, Note_on_c, 0, 63, 0
2, 134792, Note_on_c, 0, 64, 44
2, 134828, Note_on_c, 0, 64, 0
2, 134948, Note_on_c, 0, 62, 60
2, 134956, Note_on_c, 0, 64, 64
2, 134984, Note_on_c, 0, 64, 0
2, 135036, Note_on_c, 0, 62, 0
2, 135076, Note_on_c, 0, 63, 56
2, 135152, Note_on_c, 0, 63, 0
2, 135428, Note_on_c, 0, 57, 48
2, 135432, Note_on_c, 0, 51, 39
2, 135456, Note_on_c, 0, 57, 0
2, 135492, Note_on_c, 0, 51, 0
2, 135568, Note_on_c, 0, 60, 65
2, 135620, Note_on_c, 0, 60, 0
2, 135676, Note_on_c, 0, 61, 45
2, 135756, Note_on_c, 0, 61, 0
2, 135788, Note_on_c, 0, 51, 37
2, 135848, Note_on_c, 0, 51, 0
2, 135928, Note_on_c, 0, 58, 69
2, 135992, Note_on_c, 0, 58, 0
2, 136052, Note_on_c, 0, 59, 56
2, 136112, Note_on_c, 0, 59, 0
2, 136168, Note_on_c, 0, 51, 48
2, 136244, Note_on_c, 0, 51, 0
2, 136336, Note_on_c, 0, 57, 39
2, 136376, Note_on_c, 0, 57, 0
2, 136452, Note_on_c, 0, 58, 42
2, 136500, Note_on_c, 0, 58, 0
2, 136552, Note_on_c, 0, 59, 63
2, 136624, Note_on_c, 0, 59, 0
2, 136660, Note_on_c, 0, 60, 73
2, 136744, Note_on_c, 0, 60, 0
2, 136788, Note_on_c, 0, 57, 40
2, 136892, Note_on_c, 0, 57, 0
2, 136956, Note_on_c, 0, 53, 40
2, 137000, Note_on_c, 0, 53, 0
2, 137496, Note_on_c, 0, 53, 48
2, 137544, Note_on_c, 0, 53, 0
2, 137608, Note_on_c, 0, 57, 57
2, 137696, Note_on_c, 0, 57, 0
2, 137724, Note_on_c, 0, 58, 46
2, 137752, Note_on_c, 0, 58, 0
2, 138060, Note_on_c, 0, 57, 63
2, 138128, Note_on_c, 0, 57, 0
2, 138156, Note_on_c, 0, 58, 62
2, 138208, Note_on_c, 0, 58, 0
2, 138272, Note_on_c, 0, 62, 55
2, 138328, Note_on_c, 0, 62, 0
2, 138368, Note_on_c, 0, 65, 49
2, 138468, Note_on_c, 0, 65, 0
2, 138476, Note_on_c, 0, 69, 58
2, 138556, Note_on_c, 0, 69, 0
2, 138560, Note_on_c, 0, 70, 64
2, 138604, Note_on_c, 0, 70, 0
2, 138636, Note_on_c, 0, 62, 22
2, 138664, Note_on_c, 0, 74, 72
2, 138708, Note_on_c, 0, 62, 0
2, 138720, Note_on_c, 0, 74, 0
2, 138760, Note_on_c, 0, 77, 51
2, 138840, Note_on_c, 0, 77, 0
2, 138852, Note_on_c, 0, 81, 42
2, 138920, Note_on_c, 0, 81, 0
2, 138952, Note_on_c, 0, 82, 52
2, 139032, Note_on_c, 0, 82, 0
2, 139040, Note_on_c, 0, 62, 27
2, 139044, Note_on_c, 0, 65, 32
2, 139048, Note_on_c, 0, 81, 61
2, 139056, Note_on_c, 0, 60, 30
2, 139076, Note_on_c, 0, 55, 28
2, 139096, Note_on_c, 0, 65, 0
2, 139116, Note_on_c, 0, 55, 0
2, 139120, Note_on_c, 0, 62, 0
2, 139120, Note_on_c, 0, 60, 0
2, 139132, Note_on_c, 0, 81, 0
2, 139168, Note_on_c, 0, 77, 58
2, 139232, Note_on_c, 0, 77, 0
2, 139252, Note_on_c, 0, 74, 55
2, 139288, Note_on_c, 0, 74, 0
2, 139436, Note_on_c, 0, 65, 37
2, 139444, Note_on_c, 0, 62, 30
2, 139444, Note_on_c, 0, 60, 36
2, 139476, Note_on_c, 0, 62, 0
2, 139476, Note_on_c, 0, 65, 0
2, 139484, Note_on_c, 0, 60, 0
2, 139680, Note_on_c, 0, 60, 72
2, 139684, Note_on_c, 0, 61, 55
2, 139688, Note_on_c, 0, 65, 74
2, 139700, Note_on_c, 0, 55, 63
2, 139900, Note_on_c, 0, 55, 0
2, 139912, Note_on_c, 0, 65, 0
2, 139936, Note_on_c, 0, 61, 0
2, 139940, Note_on_c, 0, 60, 0
2, 140052, Note_on_c, 0, 84, 78
2, 140052, Note_on_c, 0, 96, 80
2, 140060, Note_on_c, 0, 60, 71
2, 140060, Note_on_c, 0, 61, 56
2, 140064, Note_on_c, 0, 65, 62
2, 140092, Note_on_c, 0, 65, 0
2, 140100, Note_on_c, 0, 84, 0
2, 140100, Note_on_c, 0, 96, 0
2, 140116, Note_on_c, 0, 60, 0
2, 140120, Note_on_c, 0, 61, 0
2, 140192, Note_on_c, 0, 60, 47
2, 140200, Note_on_c, 0, 61, 43
2, 140204, Note_on_c, 0, 65, 53
2, 140208, Note_on_c, 0, 93, 49
2, 140208, Note_on_c, 0, 81, 49
2, 140232, Note_on_c, 0, 65, 0
2, 140236, Note_on_c, 0, 81, 0
2, 140236, Note_on_c, 0, 60, 0
2, 140248, Note_on_c, 0, 61, 0
2, 140252, Note_on_c, 0, 93, 0
2, 140440, Note_on_c, 0, 84, 68
2, 140444, Note_on_c, 0, 61, 50
2, 140444, Note_on_c, 0, 96, 60
2, 140448, Note_on_c, 0, 65, 62
2, 140468, Note_on_c, 0, 55, 30
2, 140472, Note_on_c, 0, 65, 0
2, 140472, Note_on_c, 0, 84, 0
2, 140488, Note_on_c, 0, 96, 0
2, 140492, Note_on_c, 0, 61, 0
2, 140492, Note_on_c, 0, 55, 0
2, 140604, Note_on_c, 0, 62, 71
2, 140604, Note_on_c, 0, 67, 70
2, 140608, Note_on_c, 0, 56, 64
2, 140624, Note_on_c, 0, 86, 66
2, 140632, Note_on_c, 0, 98, 56
2, 140640, Note_on_c, 0, 62, 0
2, 140648, Note_on_c, 0, 67, 0
2, 140648, Note_on_c, 0, 96, 33
2, 140672, Note_on_c, 0, 96, 0
2, 140680, Note_on_c, 0, 98, 0
2, 140692, Note_on_c, 0, 86, 0
2, 140700, Note_on_c, 0, 56, 0
2, 140952, Note_on_c, 0, 98, 78
2, 140952, Note_on_c, 0, 86, 79
2, 140956, Note_on_c, 0, 54, 62
2, 140960, Note_on_c, 0, 60, 60
2, 140964, Note_on_c, 0, 65, 66
2, 140964, Note_on_c, 0, 58, 46
2, 140988, Note_on_c, 0, 96, 24
2, 141012, Note_on_c, 0, 96, 0
2, 141124, Note_on_c, 0, 98, 0
2, 141128, Note_on_c, 0, 60, 0
2, 141128, Note_on_c, 0, 86, 0
2, 141140, Note_on_c, 0, 65, 0
2, 141180, Note_on_c, 0, 54, 0
2, 141184, Note_on_c, 0, 58, 0
2, 141204, Note_on_c, 0, 98, 77
2, 141208, Note_on_c, 0, 86, 67
2, 141212, Note_on_c, 0, 64, 77
2, 141212, Note_on_c, 0, 53, 75
2, 141216, Note_on_c, 0, 59, 74
2, 141228, Note_on_c, 0, 93, 59
2, 141304, Control_c, 0, 64, 127
2, 141432, Note_on_c, 0, 86, 0
2, 141444, Note_on_c, 0, 93, 0
2, 141464, Note_on_c, 0, 98, 0
2, 141488, Note_on_c, 0, 59, 0
2, 141492, Note_on_c, 0, 64, 0
2, 141500, Note_on_c, 0, 53, 0
2, 141704, Control_c, 0, 64, 0
2, 141708, Note_on_c, 0, 103, 74
2, 141712, Note_on_c, 0, 64, 71
2, 141712, Note_on_c, 0, 98, 69
2, 141716, Note_on_c, 0, 59, 66
2, 141716, Note_on_c, 0, 91, 48
2, 141720, Note_on_c, 0, 53, 64
2, 141812, Control_c, 0, 64, 127
2, 141884, Note_on_c, 0, 91, 0
2, 141888, Note_on_c, 0, 98, 0
2, 141892, Note_on_c, 0, 103, 0
2, 141900, Note_on_c, 0, 53, 0
2, 141900, Note_on_c, 0, 64, 0
2, 141928, Note_on_c, 0, 59, 0
2, 141976, Note_on_c, 0, 103, 65
2, 141976, Note_on_c, 0, 53, 57
2, 141980, Note_on_c, 0, 91, 54
2, 141980, Note_on_c, 0, 64, 58
2, 141984, Note_on_c, 0, 98, 64
2, 141984, Note_on_c, 0, 59, 69
2, 142040, Note_on_c, 0, 64, 0
2, 142040, Note_on_c, 0, 91, 0
2, 142044, Note_on_c, 0, 98, 0
2, 142048, Note_on_c, 0, 103, 0
2, 142052, Control_c, 0, 64, 0
2, 142056, Note_on_c, 0, 53, 0
2, 142064, Note_on_c, 0, 59, 0
2, 142092, Note_on_c, 0, 53, 34
2, 142096, Note_on_c, 0, 59, 30
2, 142096, Note_on_c, 0, 64, 60
2, 142108, Note_on_c, 0, 103, 47
2, 142116, Note_on_c, 0, 91, 34
2, 142116, Note_on_c, 0, 98, 44
2, 142128, Control_c, 0, 64, 127
2, 142248, Note_on_c, 0, 98, 0
2, 142260, Note_on_c, 0, 91, 0
2, 142264, Note_on_c, 0, 103, 0
2, 142268, Note_on_c, 0, 53, 0
2, 142272, Note_on_c, 0, 64, 0
2, 142308, Note_on_c, 0, 59, 0
2, 142336, Note_on_c, 0, 53, 54
2, 142340, Note_on_c, 0, 59, 37
2, 142340, Note_on_c, 0, 103, 57
2, 142344, Note_on_c, 0, 64, 58
2, 142348, Note_on_c, 0, 98, 67
2, 142352, Note_on_c, 0, 91, 45
2, 142384, Note_on_c, 0, 91, 0
2, 142400, Note_on_c, 0, 64, 0
2, 142404, Note_on_c, 0, 53, 0
2, 142404, Note_on_c, 0, 98, 0
2, 142412, Note_on_c, 0, 103, 0
2, 142412, Note_on_c, 0, 59, 0
2, 142424, Control_c, 0, 64, 0
2, 142636, Control_c, 0, 64, 127
2, 142680, Control_c, 0, 64, 0
2, 142712, Note_on_c, 0, 106, 79
2, 142716, Note_on_c, 0, 94, 72
2, 142720, Note_on_c, 0, 58, 61
2, 142720, Note_on_c, 0, 63, 57
2, 142724, Note_on_c, 0, 67, 75
2, 142724, Note_on_c, 0, 99, 65
2, 142728, Note_on_c, 0, 62, 67
2, 142872, Control_c, 0, 64, 127
2, 143072, Note_on_c, 0, 99, 0
2, 143084, Note_on_c, 0, 106, 0
2, 143088, Note_on_c, 0, 67, 0
2, 143088, Note_on_c, 0, 94, 0
2, 143092, Note_on_c, 0, 62, 0
2, 143112, Note_on_c, 0, 58, 0
2, 143116, Note_on_c, 0, 63, 0
2, 143224, Control_c, 0, 64, 0
2, 143232, Note_on_c, 0, 67, 60
2, 143248, Note_on_c, 0, 103, 55
2, 143252, Note_on_c, 0, 91, 56
2, 143252, Note_on_c, 0, 63, 29
2, 143256, Note_on_c, 0, 62, 37
2, 143260, Note_on_c, 0, 58, 23
2, 143288, Note_on_c, 0, 63, 0
2, 143292, Note_on_c, 0, 62, 0
2, 143316, Note_on_c, 0, 58, 0
2, 143320, Note_on_c, 0, 67, 0
2, 143320, Note_on_c, 0, 91, 0
2, 143344, Note_on_c, 0, 103, 0
2, 143636, Note_on_c, 0, 58, 42
2, 143640, Note_on_c, 0, 67, 56
2, 143648, Note_on_c, 0, 63, 36
2, 143648, Note_on_c, 0, 107, 74
2, 143652, Note_on_c, 0, 62, 40
2, 143656, Note_on_c, 0, 95, 69
2, 143724, Note_on_c, 0, 67, 0
2, 143736, Note_on_c, 0, 62, 0
2, 143772, Note_on_c, 0, 58, 0
2, 143772, Note_on_c, 0, 63, 0
2, 143788, Note_on_c, 0, 107, 0
2, 143812, Note_on_c, 0, 95, 0
2, 144028, Note_on_c, 0, 67, 60
2, 144032, Note_on_c, 0, 58, 47
2, 144040, Note_on_c, 0, 63, 37
2, 144044, Note_on_c, 0, 62, 45
2, 144176, Note_on_c, 0, 62, 0
2, 144184, Note_on_c, 0, 67, 0
2, 144200, Note_on_c, 0, 63, 0
2, 144252, Note_on_c, 0, 58, 0
2, 144400, Note_on_c, 0, 67, 69
2, 144400, Note_on_c, 0, 86, 65
2, 144404, Note_on_c, 0, 88, 60
2, 144404, Note_on_c, 0, 57, 66
2, 144404, Note_on_c, 0, 63, 49
2, 144408, Note_on_c, 0, 76, 54
2, 144412, Note_on_c, 0, 82, 35
2, 144428, Note_on_c, 0, 67, 0
2, 144432, Note_on_c, 0, 86, 0
2, 144432, Note_on_c, 0, 88, 0
2, 144436, Note_on_c, 0, 57, 0
2, 144436, Note_on_c, 0, 76, 0
2, 144440, Note_on_c, 0, 82, 0
2, 144440, Note_on_c, 0, 63, 0
2, 144668, Note_on_c, 0, 87, 76
2, 144668, Note_on_c, 0, 75, 80
2, 144672, Note_on_c, 0, 63, 67
2, 144676, Note_on_c, 0, 82, 71
2, 144676, Note_on_c, 0, 67, 74
2, 144680, Note_on_c, 0, 57, 73
2, 144756, Note_on_c, 0, 67, 0
2, 144760, Note_on_c, 0, 87, 0
2, 144764, Note_on_c, 0, 57, 0
2, 144768, Note_on_c, 0, 75, 0
2, 144784, Note_on_c, 0, 82, 0
2, 144788, Note_on_c, 0, 63, 0
2, 144836, Note_on_c, 0, 57, 35
2, 144836, Note_on_c, 0, 85, 44
2, 144840, Note_on_c, 0, 63, 40
2, 144840, Note_on_c, 0, 67, 46
2, 144844, Note_on_c, 0, 73, 40
2, 144896, Control_c, 0, 64, 127
2, 144976, Note_on_c, 0, 67, 0
2, 144980, Note_on_c, 0, 85, 0
2, 144980, Note_on_c, 0, 73, 0
2, 144988, Note_on_c, 0, 57, 0
2, 145008, Note_on_c, 0, 63, 0
2, 145076, Note_on_c, 0, 70, 56
2, 145080, Note_on_c, 0, 63, 34
2, 145084, Note_on_c, 0, 57, 54
2, 145084, Note_on_c, 0, 67, 54
2, 145096, Note_on_c, 0, 82, 15
2, 145128, Note_on_c, 0, 67, 0
2, 145132, Note_on_c, 0, 70, 0
2, 145148, Note_on_c, 0, 82, 0
2, 145148, Control_c, 0, 64, 0
2, 145152, Note_on_c, 0, 57, 0
2, 145152, Note_on_c, 0, 63, 0
2, 145292, Note_on_c, 0, 57, 66
2, 145296, Note_on_c, 0, 88, 79
2, 145296, Note_on_c, 0, 63, 52
2, 145300, Note_on_c, 0, 76, 66
2, 145304, Note_on_c, 0, 67, 45
2, 145308, Note_on_c, 0, 87, 48
2, 145336, Note_on_c, 0, 87, 0
2, 145336, Note_on_c, 0, 67, 0
2, 145344, Note_on_c, 0, 76, 0
2, 145348, Note_on_c, 0, 88, 0
2, 145364, Note_on_c, 0, 63, 0
2, 145368, Note_on_c, 0, 57, 0
2, 145480, Note_on_c, 0, 63, 57
2, 145484, Note_on_c, 0, 57, 58
2, 145484, Note_on_c, 0, 75, 65
2, 145492, Note_on_c, 0, 67, 46
2, 145520, Note_on_c, 0, 67, 0
2, 145540, Note_on_c, 0, 75, 0
2, 145544, Note_on_c, 0, 57, 0
2, 145548, Note_on_c, 0, 63, 0
2, 145640, Note_on_c, 0, 63, 46
2, 145644, Note_on_c, 0, 73, 61
2, 145644, Note_on_c, 0, 57, 31
2, 145644, Note_on_c, 0, 85, 53
2, 145700, Note_on_c, 0, 85, 0
2, 145704, Note_on_c, 0, 73, 0
2, 145720, Note_on_c, 0, 57, 0
2, 145720, Note_on_c, 0, 63, 0
2, 145816, Note_on_c, 0, 63, 55
2, 145836, Note_on_c, 0, 70, 52
2, 145836, Note_on_c, 0, 82, 55
2, 145840, Note_on_c, 0, 67, 36
2, 145852, Control_c, 0, 64, 127
2, 145860, Note_on_c, 0, 70, 0
2, 145868, Note_on_c, 0, 67, 0
2, 145884, Note_on_c, 0, 82, 0
2, 145924, Control_c, 0, 64, 0
2, 145940, Note_on_c, 0, 63, 0
2, 145980, Note_on_c, 0, 62, 60
2, 145984, Note_on_c, 0, 65, 55
2, 145984, Note_on_c, 0, 87, 69
2, 145984, Note_on_c, 0, 75, 63
2, 146008, Note_on_c, 0, 87, 0
2, 146016, Note_on_c, 0, 60, 35
2, 146020, Note_on_c, 0, 55, 42
2, 146020, Note_on_c, 0, 88, 50
2, 146064, Note_on_c, 0, 76, 66
2, 146068, Note_on_c, 0, 75, 0
2, 146088, Note_on_c, 0, 88, 0
2, 146100, Note_on_c, 0, 55, 0
2, 146100, Note_on_c, 0, 60, 0
2, 146108, Note_on_c, 0, 65, 0
2, 146112, Note_on_c, 0, 76, 0
2, 146128, Note_on_c, 0, 62, 0
2, 146196, Note_on_c, 0, 62, 58
2, 146204, Note_on_c, 0, 87, 62
2, 146208, Note_on_c, 0, 65, 49
2, 146208, Note_on_c, 0, 75, 67
2, 146224, Note_on_c, 0, 60, 36
2, 146228, Note_on_c, 0, 55, 30
2, 146260, Note_on_c, 0, 60, 0
2, 146264, Note_on_c, 0, 65, 0
2, 146264, Note_on_c, 0, 55, 0
2, 146276, Note_on_c, 0, 62, 0
2, 146280, Note_on_c, 0, 87, 0
2, 146284, Note_on_c, 0, 75, 0
2, 146356, Note_on_c, 0, 62, 37
2, 146360, Note_on_c, 0, 85, 50
2, 146360, Note_on_c, 0, 65, 48
2, 146368, Note_on_c, 0, 73, 46
2, 146372, Note_on_c, 0, 55, 34
2, 146384, Note_on_c, 0, 60, 35
2, 146440, Note_on_c, 0, 65, 0
2, 146448, Note_on_c, 0, 60, 0
2, 146456, Note_on_c, 0, 73, 0
2, 146464, Note_on_c, 0, 85, 0
2, 146468, Note_on_c, 0, 62, 0
2, 146468, Note_on_c, 0, 55, 0
2, 146524, Control_c, 0, 64, 127
2, 146588, Note_on_c, 0, 62, 54
2, 146596, Note_on_c, 0, 65, 44
2, 146600, Note_on_c, 0, 60, 38
2, 146628, Note_on_c, 0, 60, 0
2, 146628, Note_on_c, 0, 65, 0
2, 146644, Note_on_c, 0, 62, 0
2, 146644, Control_c, 0, 64, 0
2, 146716, Note_on_c, 0, 62, 42
2, 146720, Note_on_c, 0, 75, 69
2, 146724, Note_on_c, 0, 87, 61
2, 146724, Note_on_c, 0, 65, 55
2, 146736, Note_on_c, 0, 55, 26
2, 146740, Note_on_c, 0, 60, 40
2, 146772, Note_on_c, 0, 65, 0
2, 146776, Note_on_c, 0, 60, 0
2, 146792, Note_on_c, 0, 62, 0
2, 146796, Note_on_c, 0, 55, 0
2, 146836, Control_c, 0, 64, 127
2, 146840, Note_on_c, 0, 87, 0
2, 146840, Note_on_c, 0, 75, 0
2, 146952, Note_on_c, 0, 85, 56
2, 146952, Note_on_c, 0, 62, 58
2, 146956, Note_on_c, 0, 73, 72
2, 146960, Note_on_c, 0, 65, 63
2, 146964, Note_on_c, 0, 55, 60
2, 146968, Control_c, 0, 64, 0
2, 146972, Note_on_c, 0, 60, 40
2, 146972, Note_on_c, 0, 86, 52
2, 146984, Note_on_c, 0, 65, 0
2, 146996, Note_on_c, 0, 60, 0
2, 147000, Note_on_c, 0, 86, 0
2, 147004, Note_on_c, 0, 62, 0
2, 147056, Note_on_c, 0, 55, 0
2, 147260, Control_c, 0, 64, 127
2, 147276, Note_on_c, 0, 85, 0
2, 147284, Note_on_c, 0, 73, 0
2, 147304, Note_on_c, 0, 41, 80
2, 147312, Note_on_c, 0, 53, 87
2, 147316, Control_c, 0, 64, 0
2, 148080, Note_on_c, 0, 53, 0
2, 148100, Note_on_c, 0, 48, 44
2, 148240, Note_on_c, 0, 48, 0
2, 148488, Note_on_c, 0, 53, 51
2, 148512, Note_on_c, 0, 53, 0
2, 148744, Note_on_c, 0, 55, 37
2, 148792, Note_on_c, 0, 55, 0
2, 148860, Note_on_c, 0, 58, 65
2, 148876, Note_on_c, 0, 53, 46
2, 148908, Note_on_c, 0, 53, 0
2, 148960, Note_on_c, 0, 58, 0
2, 149260, Note_on_c, 0, 53, 62
2, 149264, Note_on_c, 0, 41, 0
2, 149284, Note_on_c, 0, 53, 0
2, 149644, Note_on_c, 0, 53, 58
2, 149652, Note_on_c, 0, 52, 50
2, 149668, Note_on_c, 0, 53, 0
2, 149676, Note_on_c, 0, 52, 0
2, 149908, Note_on_c, 0, 55, 58
2, 149960, Note_on_c, 0, 55, 0
2, 150020, Note_on_c, 0, 58, 67
2, 150036, Note_on_c, 0, 53, 56
2, 150064, Note_on_c, 0, 53, 0
2, 150128, Note_on_c, 0, 58, 0
2, 150316, Note_on_c, 0, 55, 53
2, 150364, Note_on_c, 0, 55, 0
2, 150396, Note_on_c, 0, 53, 48
2, 150416, Note_on_c, 0, 58, 69
2, 150424, Note_on_c, 0, 53, 0
2, 150432, Note_on_c, 0, 51, 20
2, 150460, Note_on_c, 0, 51, 0
2, 150512, Note_on_c, 0, 58, 0
2, 150788, Note_on_c, 0, 39, 51
2, 150796, Note_on_c, 0, 46, 54
2, 150860, Note_on_c, 0, 39, 0
2, 150864, Note_on_c, 0, 46, 0
2, 150940, Note_on_c, 0, 55, 37
2, 150976, Note_on_c, 0, 55, 0
2, 151044, Note_on_c, 0, 57, 46
2, 151108, Note_on_c, 0, 57, 0
2, 151140, Note_on_c, 0, 58, 51
2, 151188, Note_on_c, 0, 58, 0
2, 151232, Note_on_c, 0, 60, 58
2, 151300, Note_on_c, 0, 60, 0
2, 151328, Note_on_c, 0, 61, 53
2, 151396, Note_on_c, 0, 61, 0
2, 151432, Note_on_c, 0, 63, 49
2, 151488, Note_on_c, 0, 63, 0
2, 151520, Note_on_c, 0, 64, 65
2, 151584, Note_on_c, 0, 64, 0
2, 151612, Note_on_c, 0, 66, 56
2, 151648, Note_on_c, 0, 66, 0
2, 151660, Note_on_c, 0, 55, 43
2, 151668, Note_on_c, 0, 61, 31
2, 151708, Note_on_c, 0, 67, 58
2, 151768, Note_on_c, 0, 67, 0
2, 151768, Note_on_c, 0, 55, 0
2, 151796, Note_on_c, 0, 69, 64
2, 151800, Note_on_c, 0, 61, 0
2, 151852, Note_on_c, 0, 69, 0
2, 151900, Note_on_c, 0, 70, 56
2, 151960, Note_on_c, 0, 70, 0
2, 151984, Note_on_c, 0, 71, 39
2, 152064, Note_on_c, 0, 71, 0
2, 152084, Note_on_c, 0, 65, 40
2, 152092, Note_on_c, 0, 60, 40
2, 152096, Note_on_c, 0, 54, 31
2, 152096, Note_on_c, 0, 58, 31
2, 152100, Note_on_c, 0, 72, 60
2, 152192, Note_on_c, 0, 72, 0
2, 152192, Note_on_c, 0, 65, 0
2, 152236, Note_on_c, 0, 69, 50
2, 152244, Note_on_c, 0, 60, 0
2, 152280, Note_on_c, 0, 69, 0
2, 152308, Note_on_c, 0, 58, 0
2, 152388, Note_on_c, 0, 54, 0
2, 152716, Note_on_c, 0, 54, 45
2, 152716, Note_on_c, 0, 65, 57
2, 152720, Note_on_c, 0, 60, 50
2, 152732, Note_on_c, 0, 58, 35
2, 152856, Note_on_c, 0, 65, 0
2, 152960, Note_on_c, 0, 65, 63
2, 153000, Note_on_c, 0, 65, 0
2, 153048, Note_on_c, 0, 60, 0
2, 153048, Note_on_c, 0, 66, 49
2, 153060, Note_on_c, 0, 58, 0
2, 153108, Note_on_c, 0, 66, 0
2, 153128, Note_on_c, 0, 68, 58
2, 153140, Note_on_c, 0, 54, 0
2, 153176, Note_on_c, 0, 68, 0
2, 153212, Note_on_c, 0, 54, 25
2, 153216, Note_on_c, 0, 69, 44
2, 153228, Note_on_c, 0, 65, 24
2, 153240, Note_on_c, 0, 60, 35
2, 153248, Note_on_c, 0, 69, 0
2, 153260, Note_on_c, 0, 65, 0
2, 153268, Note_on_c, 0, 58, 19
2, 153288, Note_on_c, 0, 60, 0
2, 153308, Note_on_c, 0, 71, 47
2, 153376, Note_on_c, 0, 71, 0
2, 153416, Note_on_c, 0, 72, 60
2, 153420, Note_on_c, 0, 58, 0
2, 153428, Note_on_c, 0, 54, 0
2, 153480, Note_on_c, 0, 72, 0
2, 153520, Note_on_c, 0, 74, 55
2, 153572, Note_on_c, 0, 74, 0
2, 153572, Note_on_c, 0, 62, 40
2, 153580, Note_on_c, 0, 57, 43
2, 153592, Note_on_c, 0, 55, 31
2, 153596, Note_on_c, 0, 58, 25
2, 153644, Note_on_c, 0, 62, 0
2, 153664, Note_on_c, 0, 57, 0
2, 153664, Note_on_c, 0, 58, 0
2, 153692, Note_on_c, 0, 55, 0
2, 153848, Note_on_c, 0, 69, 68
2, 153864, Note_on_c, 0, 62, 51
2, 153892, Note_on_c, 0, 62, 0
2, 153920, Note_on_c, 0, 69, 0
2, 154000, Note_on_c, 0, 70, 37
2, 154048, Note_on_c, 0, 70, 0
2, 154104, Note_on_c, 0, 71, 61
2, 154164, Note_on_c, 0, 71, 0
2, 154220, Note_on_c, 0, 74, 68
2, 154220, Note_on_c, 0, 59, 63
2, 154224, Note_on_c, 0, 64, 62
2, 154240, Note_on_c, 0, 53, 40
2, 154276, Note_on_c, 0, 53, 0
2, 154280, Note_on_c, 0, 64, 0
2, 154296, Note_on_c, 0, 74, 0
2, 154300, Note_on_c, 0, 59, 0
2, 154360, Note_on_c, 0, 79, 68
2, 154364, Note_on_c, 0, 67, 68
2, 154372, Note_on_c, 0, 53, 30
2, 154376, Note_on_c, 0, 59, 37
2, 154376, Note_on_c, 0, 64, 35
2, 154496, Note_on_c, 0, 67, 0
2, 154500, Note_on_c, 0, 64, 0
2, 154508, Note_on_c, 0, 79, 0
2, 154508, Note_on_c, 0, 53, 0
2, 154508, Note_on_c, 0, 59, 0
2, 154508, Note_on_c, 0, 78, 23
2, 154544, Note_on_c, 0, 78, 0
2, 154612, Note_on_c, 0, 70, 74
2, 154616, Note_on_c, 0, 82, 75
2, 154624, Note_on_c, 0, 59, 64
2, 154628, Note_on_c, 0, 53, 54
2, 154632, Note_on_c, 0, 64, 63
2, 154664, Note_on_c, 0, 64, 0
2, 154700, Note_on_c, 0, 53, 0
2, 154704, Note_on_c, 0, 70, 0
2, 154708, Note_on_c, 0, 59, 0
2, 154708, Note_on_c, 0, 82, 0
2, 154776, Note_on_c, 0, 64, 28
2, 154780, Note_on_c, 0, 59, 24
2, 154792, Note_on_c, 0, 67, 40
2, 154816, Note_on_c, 0, 64, 0
2, 154824, Note_on_c, 0, 67, 0
2, 154824, Note_on_c, 0, 59, 0
2, 155028, Note_on_c, 0, 58, 25
2, 155056, Note_on_c, 0, 58, 0
2, 155152, Note_on_c, 0, 82, 65
2, 155156, Note_on_c, 0, 70, 62
2, 155160, Note_on_c, 0, 58, 44
2, 155164, Note_on_c, 0, 62, 50
2, 155164, Note_on_c, 0, 57, 47
2, 155220, Note_on_c, 0, 62, 0
2, 155224, Note_on_c, 0, 57, 0
2, 155244, Note_on_c, 0, 58, 0
2, 155304, Note_on_c, 0, 70, 0
2, 155308, Note_on_c, 0, 82, 0
2, 155468, Note_on_c, 0, 79, 19
2, 155496, Note_on_c, 0, 79, 0
2, 155544, Note_on_c, 0, 82, 61
2, 155560, Note_on_c, 0, 70, 49
2, 155560, Note_on_c, 0, 58, 37
2, 155560, Note_on_c, 0, 62, 37
2, 155576, Note_on_c, 0, 57, 30
2, 155716, Note_on_c, 0, 82, 0
2, 155760, Note_on_c, 0, 62, 0
2, 155764, Note_on_c, 0, 70, 0
2, 155764, Note_on_c, 0, 58, 0
2, 155824, Note_on_c, 0, 82, 64
2, 155928, Note_on_c, 0, 82, 0
2, 155944, Note_on_c, 0, 62, 2
2, 155952, Note_on_c, 0, 79, 41
2, 155968, Note_on_c, 0, 58, 23
2, 156008, Note_on_c, 0, 58, 0
2, 156028, Note_on_c, 0, 62, 0
2, 156164, Note_on_c, 0, 79, 0
2, 156196, Note_on_c, 0, 82, 57
2, 156208, Note_on_c, 0, 70, 46
2, 156228, Note_on_c, 0, 62, 36
2, 156236, Note_on_c, 0, 58, 33
2, 156260, Note_on_c, 0, 70, 0
2, 156264, Note_on_c, 0, 62, 0
2, 156276, Note_on_c, 0, 82, 0
2, 156288, Note_on_c, 0, 57, 0
2, 156288, Note_on_c, 0, 58, 0
2, 156356, Note_on_c, 0, 79, 28
2, 156636, Note_on_c, 0, 67, 26
2, 156640, Note_on_c, 0, 79, 0
2, 156660, Note_on_c, 0, 67, 0
2, 156732, Note_on_c, 0, 82, 52
2, 156740, Note_on_c, 0, 70, 39
2, 156948, Note_on_c, 0, 70, 0
2, 157000, Note_on_c, 0, 82, 0
2, 157000, Note_on_c, 0, 64, 27
2, 157028, Note_on_c, 0, 64, 0
2, 157100, Note_on_c, 0, 79, 46
2, 157324, Note_on_c, 0, 79, 0
2, 157340, Note_on_c, 0, 82, 62
2, 157344, Note_on_c, 0, 64, 54
2, 157344, Note_on_c, 0, 67, 54
2, 157348, Note_on_c, 0, 70, 57
2, 157360, Note_on_c, 0, 58, 31
2, 157364, Note_on_c, 0, 62, 42
2, 157768, Note_on_c, 0, 70, 0
2, 157816, Note_on_c, 0, 82, 0
2, 157848, Note_on_c, 0, 64, 0
2, 157852, Note_on_c, 0, 62, 0
2, 157860, Note_on_c, 0, 67, 0
2, 157884, Note_on_c, 0, 58, 0
2, 158224, Note_on_c, 0, 63, 58
2, 158224, Note_on_c, 0, 58, 55
2, 158228, Note_on_c, 0, 86, 81
2, 158228, Note_on_c, 0, 79, 73
2, 158228, Note_on_c, 0, 74, 80
2, 158232, Note_on_c, 0, 62, 49
2, 158236, Note_on_c, 0, 67, 68
2, 158236, Note_on_c, 0, 82, 52
2, 158380, Note_on_c, 0, 79, 0
2, 158384, Note_on_c, 0, 86, 0
2, 158388, Note_on_c, 0, 62, 0
2, 158388, Note_on_c, 0, 67, 0
2, 158396, Note_on_c, 0, 74, 0
2, 158408, Note_on_c, 0, 82, 0
2, 158408, Note_on_c, 0, 58, 0
2, 158408, Note_on_c, 0, 63, 0
2, 158532, Note_on_c, 0, 63, 27
2, 158532, Note_on_c, 0, 79, 35
2, 158564, Note_on_c, 0, 79, 0
2, 158564, Note_on_c, 0, 63, 0
2, 158620, Note_on_c, 0, 86, 71
2, 158620, Note_on_c, 0, 67, 54
2, 158628, Note_on_c, 0, 74, 50
2, 158628, Note_on_c, 0, 58, 38
2, 158632, Note_on_c, 0, 63, 36
2, 158632, Note_on_c, 0, 62, 49
2, 158664, Note_on_c, 0, 62, 0
2, 158676, Note_on_c, 0, 67, 0
2, 158680, Note_on_c, 0, 58, 0
2, 158684, Note_on_c, 0, 86, 0
2, 158684, Note_on_c, 0, 74, 0
2, 158692, Note_on_c, 0, 63, 0
2, 158884, Note_on_c, 0, 67, 70
2, 158884, Note_on_c, 0, 63, 38
2, 158888, Note_on_c, 0, 58, 42
2, 158892, Note_on_c, 0, 62, 49
2, 158896, Note_on_c, 0, 89, 40
2, 158896, Note_on_c, 0, 88, 46
2, 158904, Note_on_c, 0, 76, 27
2, 158908, Note_on_c, 0, 67, 0
2, 158916, Note_on_c, 0, 62, 0
2, 158920, Note_on_c, 0, 89, 0
2, 158924, Note_on_c, 0, 88, 0
2, 158928, Note_on_c, 0, 63, 0
2, 158928, Note_on_c, 0, 76, 0
2, 158928, Note_on_c, 0, 58, 0
2, 159060, Note_on_c, 0, 85, 57
2, 159068, Note_on_c, 0, 58, 57
2, 159068, Note_on_c, 0, 67, 64
2, 159072, Note_on_c, 0, 73, 40
2, 159072, Note_on_c, 0, 63, 36
2, 159080, Note_on_c, 0, 62, 44
2, 159116, Note_on_c, 0, 85, 0
2, 159132, Note_on_c, 0, 73, 0
2, 159216, Note_on_c, 0, 63, 0
2, 159216, Note_on_c, 0, 62, 0
2, 159228, Note_on_c, 0, 67, 0
2, 159260, Note_on_c, 0, 58, 0
2, 159356, Note_on_c, 0, 85, 59
2, 159360, Note_on_c, 0, 58, 48
2, 159364, Note_on_c, 0, 67, 58
2, 159368, Note_on_c, 0, 73, 46
2, 159372, Note_on_c, 0, 63, 38
2, 159376, Note_on_c, 0, 62, 42
2, 159408, Note_on_c, 0, 79, 24
2, 159416, Note_on_c, 0, 62, 0
2, 159440, Note_on_c, 0, 67, 0
2, 159444, Control_c, 0, 64, 127
2, 159500, Note_on_c, 0, 79, 0
2, 159508, Note_on_c, 0, 63, 0
2, 159520, Note_on_c, 0, 85, 0
2, 159536, Note_on_c, 0, 58, 0
2, 159548, Note_on_c, 0, 73, 0
2, 159624, Note_on_c, 0, 84, 68
2, 159628, Note_on_c, 0, 79, 55
2, 159628, Note_on_c, 0, 67, 62
2, 159632, Note_on_c, 0, 57, 60
2, 159632, Note_on_c, 0, 63, 45
2, 159636, Note_on_c, 0, 72, 51
2, 159676, Control_c, 0, 64, 0
2, 159812, Control_c, 0, 64, 127
2, 159816, Note_on_c, 0, 84, 0
2, 159840, Note_on_c, 0, 79, 0
2, 159940, Note_on_c, 0, 72, 0
2, 160060, Note_on_c, 0, 67, 0
2, 160136, Control_c, 0, 64, 0
2, 160168, Note_on_c, 0, 67, 68
2, 160200, Note_on_c, 0, 63, 0
2, 160284, Note_on_c, 0, 65, 65
2, 160288, Note_on_c, 0, 67, 0
2, 160376, Note_on_c, 0, 65, 0
2, 160420, Note_on_c, 0, 68, 81
2, 160448, Note_on_c, 0, 63, 25
2, 160508, Note_on_c, 0, 63, 0
2, 160544, Note_on_c, 0, 68, 0
2, 160548, Note_on_c, 0, 66, 57
2, 160612, Note_on_c, 0, 57, 0
2, 160640, Note_on_c, 0, 66, 0
2, 160676, Note_on_c, 0, 69, 87
2, 160784, Note_on_c, 0, 67, 62
2, 160812, Note_on_c, 0, 69, 0
2, 160872, Note_on_c, 0, 67, 0
2, 160884, Note_on_c, 0, 57, 37
2, 160888, Note_on_c, 0, 63, 25
2, 160928, Note_on_c, 0, 70, 68
2, 161016, Note_on_c, 0, 57, 0
2, 161032, Note_on_c, 0, 70, 0
2, 161048, Note_on_c, 0, 68, 53
2, 161068, Note_on_c, 0, 63, 0
2, 161128, Note_on_c, 0, 68, 0
2, 161176, Note_on_c, 0, 71, 77
2, 161180, Note_on_c, 0, 62, 45
2, 161188, Note_on_c, 0, 65, 41
2, 161192, Note_on_c, 0, 60, 42
2, 161196, Note_on_c, 0, 55, 37
2, 161300, Note_on_c, 0, 71, 0
2, 161300, Note_on_c, 0, 69, 58
2, 161376, Note_on_c, 0, 69, 0
2, 161420, Note_on_c, 0, 72, 59
2, 161528, Note_on_c, 0, 65, 0
2, 161540, Note_on_c, 0, 72, 0
2, 161548, Note_on_c, 0, 70, 40
2, 161644, Note_on_c, 0, 70, 0
2, 161652, Note_on_c, 0, 62, 0
2, 161664, Note_on_c, 0, 55, 0
2, 161668, Note_on_c, 0, 60, 0
2, 161688, Note_on_c, 0, 73, 45
2, 161784, Note_on_c, 0, 73, 0
2, 161808, Note_on_c, 0, 71, 36
2, 161888, Note_on_c, 0, 71, 0
2, 161924, Note_on_c, 0, 74, 81
2, 161936, Note_on_c, 0, 65, 54
2, 161944, Note_on_c, 0, 62, 50
2, 161956, Note_on_c, 0, 60, 40
2, 161968, Note_on_c, 0, 65, 0
2, 161992, Note_on_c, 0, 60, 0
2, 162032, Note_on_c, 0, 62, 0
2, 162040, Note_on_c, 0, 74, 0
2, 162040, Note_on_c, 0, 72, 43
2, 162136, Note_on_c, 0, 72, 0
2, 162168, Note_on_c, 0, 75, 65
2, 162280, Note_on_c, 0, 75, 0
2, 162288, Note_on_c, 0, 73, 58
2, 162344, Note_on_c, 0, 65, 20
2, 162348, Note_on_c, 0, 62, 36
2, 162368, Note_on_c, 0, 65, 0
2, 162368, Note_on_c, 0, 60, 28
2, 162396, Note_on_c, 0, 73, 0
2, 162424, Note_on_c, 0, 74, 57
2, 162444, Note_on_c, 0, 62, 0
2, 162516, Note_on_c, 0, 74, 0
2, 162516, Note_on_c, 0, 60, 0
2, 162532, Note_on_c, 0, 75, 44
2, 162608, Note_on_c, 0, 75, 0
2, 162652, Note_on_c, 0, 76, 62
2, 162736, Note_on_c, 0, 65, 32
2, 162740, Note_on_c, 0, 61, 26
2, 162764, Note_on_c, 0, 76, 0
2, 162768, Note_on_c, 0, 55, 30
2, 162776, Note_on_c, 0, 79, 52
2, 162812, Note_on_c, 0, 65, 0
2, 162840, Note_on_c, 0, 55, 0
2, 162872, Note_on_c, 0, 61, 0
2, 162872, Note_on_c, 0, 79, 0
2, 163080, Note_on_c, 0, 61, 47
2, 163080, Note_on_c, 0, 65, 57
2, 163088, Note_on_c, 0, 55, 49
2, 163108, Note_on_c, 0, 65, 0
2, 163128, Note_on_c, 0, 55, 0
2, 163168, Note_on_c, 0, 61, 0
2, 163208, Note_on_c, 0, 81, 45
2, 163244, Note_on_c, 0, 81, 0
2, 163284, Note_on_c, 0, 83, 67
2, 163356, Note_on_c, 0, 83, 0
2, 163388, Note_on_c, 0, 85, 59
2, 163432, Note_on_c, 0, 85, 0
2, 163480, Note_on_c, 0, 88, 71
2, 163556, Note_on_c, 0, 88, 0
2, 163560, Note_on_c, 0, 61, 36
2, 163572, Note_on_c, 0, 55, 36
2, 163580, Note_on_c, 0, 65, 25
2, 163580, Note_on_c, 0, 93, 60
2, 163680, Note_on_c, 0, 93, 0
2, 163688, Note_on_c, 0, 97, 59
2, 163760, Note_on_c, 0, 97, 0
2, 163796, Note_on_c, 0, 100, 73
2, 163852, Note_on_c, 0, 100, 0
2, 163860, Note_on_c, 0, 65, 0
2, 163872, Note_on_c, 0, 55, 0
2, 163892, Note_on_c, 0, 61, 0
2, 164064, Note_on_c, 0, 55, 18
2, 164092, Note_on_c, 0, 55, 0
2, 164268, Note_on_c, 0, 65, 64
2, 164276, Note_on_c, 0, 54, 51
2, 164280, Note_on_c, 0, 60, 63
2, 164284, Note_on_c, 0, 58, 35
2, 164768, Note_on_c, 0, 65, 0
2, 164772, Note_on_c, 0, 98, 84
2, 164772, Note_on_c, 0, 86, 78
2, 164804, Note_on_c, 0, 60, 0
2, 164808, Note_on_c, 0, 54, 0
2, 164892, Note_on_c, 0, 98, 0
2, 164892, Note_on_c, 0, 58, 0
2, 164896, Note_on_c, 0, 86, 0
2, 165016, Note_on_c, 0, 97, 75
2, 165016, Note_on_c, 0, 85, 77
2, 165032, Note_on_c, 0, 65, 46
2, 165036, Note_on_c, 0, 54, 39
2, 165040, Note_on_c, 0, 60, 52
2, 165052, Note_on_c, 0, 58, 31
2, 165096, Note_on_c, 0, 65, 0
2, 165144, Note_on_c, 0, 54, 0
2, 165156, Note_on_c, 0, 85, 0
2, 165164, Note_on_c, 0, 97, 0
2, 165228, Note_on_c, 0, 96, 62
2, 165236, Note_on_c, 0, 84, 53
2, 165240, Note_on_c, 0, 60, 0
2, 165284, Note_on_c, 0, 96, 0
2, 165288, Note_on_c, 0, 58, 0
2, 165304, Note_on_c, 0, 84, 0
2, 165412, Note_on_c, 0, 80, 52
2, 165416, Note_on_c, 0, 92, 45
2, 165424, Note_on_c, 0, 65, 44
2, 165424, Note_on_c, 0, 54, 45
2, 165436, Note_on_c, 0, 60, 39
2, 165440, Note_on_c, 0, 58, 31
2, 165444, Note_on_c, 0, 92, 0
2, 165456, Note_on_c, 0, 80, 0
2, 165456, Note_on_c, 0, 93, 49
2, 165492, Note_on_c, 0, 90, 25
2, 165508, Note_on_c, 0, 93, 0
2, 165532, Note_on_c, 0, 90, 0
2, 165620, Note_on_c, 0, 77, 40
2, 165624, Note_on_c, 0, 89, 37
2, 165640, Note_on_c, 0, 65, 0
2, 165660, Note_on_c, 0, 89, 0
2, 165692, Note_on_c, 0, 60, 0
2, 165692, Note_on_c, 0, 77, 0
2, 165780, Note_on_c, 0, 58, 0
2, 165804, Note_on_c, 0, 54, 0
2, 165820, Note_on_c, 0, 64, 58
2, 165820, Note_on_c, 0, 59, 62
2, 165836, Note_on_c, 0, 78, 77
2, 165836, Note_on_c, 0, 53, 47
2, 165848, Note_on_c, 0, 90, 48
2, 165860, Note_on_c, 0, 91, 43
2, 165860, Note_on_c, 0, 89, 40
2, 165880, Note_on_c, 0, 64, 0
2, 165884, Note_on_c, 0, 91, 0
2, 165892, Note_on_c, 0, 89, 0
2, 165924, Note_on_c, 0, 90, 0
2, 165932, Note_on_c, 0, 78, 0
2, 166008, Note_on_c, 0, 90, 57
2, 166016, Note_on_c, 0, 78, 56
2, 166040, Note_on_c, 0, 53, 0
2, 166064, Note_on_c, 0, 59, 0
2, 166084, Note_on_c, 0, 91, 42
2, 166100, Note_on_c, 0, 78, 0
2, 166108, Note_on_c, 0, 90, 0
2, 166116, Note_on_c, 0, 89, 24
2, 166132, Note_on_c, 0, 79, 37
2, 166152, Note_on_c, 0, 89, 0
2, 166152, Note_on_c, 0, 91, 0
2, 166168, Note_on_c, 0, 79, 0
2, 166240, Note_on_c, 0, 64, 24
2, 166248, Note_on_c, 0, 59, 42
2, 166264, Note_on_c, 0, 64, 0
2, 166316, Note_on_c, 0, 73, 74
2, 166320, Note_on_c, 0, 85, 68
2, 166356, Note_on_c, 0, 59, 0
2, 166420, Note_on_c, 0, 85, 0
2, 166432, Note_on_c, 0, 73, 0
2, 166456, Note_on_c, 0, 74, 45
2, 166492, Note_on_c, 0, 80, 21
2, 166520, Note_on_c, 0, 74, 0
2, 166528, Note_on_c, 0, 80, 0
2, 166560, Note_on_c, 0, 64, 42
2, 166588, Note_on_c, 0, 64, 0
2, 166596, Note_on_c, 0, 59, 34
2, 166660, Note_on_c, 0, 59, 0
2, 166680, Note_on_c, 0, 82, 49
2, 166684, Note_on_c, 0, 70, 67
2, 166816, Note_on_c, 0, 76, 16
2, 166820, Note_on_c, 0, 70, 0
2, 166832, Note_on_c, 0, 71, 51
2, 166860, Note_on_c, 0, 82, 0
2, 166904, Note_on_c, 0, 71, 0
2, 166932, Note_on_c, 0, 76, 0
2, 166936, Note_on_c, 0, 64, 45
2, 166960, Note_on_c, 0, 59, 38
2, 166968, Note_on_c, 0, 64, 0
2, 166968, Note_on_c, 0, 53, 28
2, 167036, Note_on_c, 0, 53, 0
2, 167036, Note_on_c, 0, 59, 0
2, 167048, Note_on_c, 0, 78, 33
2, 167048, Note_on_c, 0, 66, 57
2, 167112, Note_on_c, 0, 66, 0
2, 167140, Note_on_c, 0, 67, 35
2, 167144, Note_on_c, 0, 78, 0
2, 167224, Note_on_c, 0, 67, 0
2, 167288, Note_on_c, 0, 79, 60
2, 167300, Note_on_c, 0, 67, 68
2, 167300, Note_on_c, 0, 74, 80
2, 167304, Note_on_c, 0, 58, 47
2, 167308, Note_on_c, 0, 62, 62
2, 167308, Note_on_c, 0, 57, 42
2, 167420, Note_on_c, 0, 79, 0
2, 167436, Note_on_c, 0, 67, 0
2, 167456, Note_on_c, 0, 74, 0
2, 167504, Note_on_c, 0, 58, 0
2, 167508, Note_on_c, 0, 79, 44
2, 167512, Note_on_c, 0, 67, 38
2, 167536, Note_on_c, 0, 74, 51
2, 167640, Note_on_c, 0, 79, 0
2, 167680, Note_on_c, 0, 58, 35
2, 167688, Note_on_c, 0, 74, 0
2, 167692, Note_on_c, 0, 67, 0
2, 167732, Note_on_c, 0, 62, 0
2, 167780, Note_on_c, 0, 58, 0
2, 167800, Note_on_c, 0, 78, 40
2, 167816, Note_on_c, 0, 73, 45
2, 167836, Note_on_c, 0, 66, 30
2, 168012, Note_on_c, 0, 66, 0
2, 168016, Note_on_c, 0, 78, 0
2, 168024, Note_on_c, 0, 73, 0
2, 168084, Note_on_c, 0, 79, 50
2, 168088, Note_on_c, 0, 67, 46
2, 168092, Note_on_c, 0, 62, 58
2, 168096, Note_on_c, 0, 58, 46
2, 168096, Note_on_c, 0, 74, 55
2, 168124, Note_on_c, 0, 62, 0
2, 168140, Note_on_c, 0, 67, 0
2, 168152, Note_on_c, 0, 57, 0
2, 168156, Note_on_c, 0, 58, 0
2, 168160, Note_on_c, 0, 74, 0
2, 168180, Note_on_c, 0, 79, 0
2, 168416, Note_on_c, 0, 86, 89
2, 168448, Note_on_c, 0, 58, 36
2, 168452, Note_on_c, 0, 62, 40
2, 168484, Note_on_c, 0, 62, 0
2, 168504, Note_on_c, 0, 58, 0
2, 168508, Note_on_c, 0, 86, 0
2, 168556, Note_on_c, 0, 82, 34
2, 168580, Note_on_c, 0, 82, 0
2, 168660, Note_on_c, 0, 86, 83
2, 168756, Note_on_c, 0, 86, 0
2, 168796, Note_on_c, 0, 82, 52
2, 168824, Note_on_c, 0, 67, 52
2, 168832, Note_on_c, 0, 58, 34
2, 168836, Note_on_c, 0, 63, 35
2, 168848, Note_on_c, 0, 62, 38
2, 168856, Note_on_c, 0, 82, 0
2, 169368, Note_on_c, 0, 67, 0
2, 169432, Note_on_c, 0, 86, 89
2, 169524, Note_on_c, 0, 62, 0
2, 169536, Note_on_c, 0, 63, 0
2, 169544, Note_on_c, 0, 86, 0
2, 169636, Note_on_c, 0, 58, 0
2, 169692, Note_on_c, 0, 81, 71
2, 169704, Note_on_c, 0, 67, 44
2, 169708, Note_on_c, 0, 63, 35
2, 169716, Note_on_c, 0, 58, 19
2, 169724, Note_on_c, 0, 62, 34
2, 169768, Note_on_c, 0, 67, 0
2, 169796, Note_on_c, 0, 62, 0
2, 169804, Note_on_c, 0, 81, 0
2, 169872, Note_on_c, 0, 83, 85
2, 169896, Note_on_c, 0, 63, 0
2, 169948, Note_on_c, 0, 58, 0
2, 170008, Note_on_c, 0, 83, 0
2, 170084, Note_on_c, 0, 63, 34
2, 170092, Note_on_c, 0, 57, 41
2, 170092, Note_on_c, 0, 78, 52
2, 170096, Note_on_c, 0, 67, 32
2, 170144, Note_on_c, 0, 67, 0
2, 170200, Note_on_c, 0, 78, 0
2, 170240, Note_on_c, 0, 75, 36
2, 170276, Note_on_c, 0, 57, 0
2, 170368, Note_on_c, 0, 63, 0
2, 170380, Note_on_c, 0, 75, 0
2, 170432, Note_on_c, 0, 62, 38
2, 170440, Note_on_c, 0, 73, 57
2, 170448, Note_on_c, 0, 65, 35
2, 170456, Note_on_c, 0, 60, 29
2, 170488, Note_on_c, 0, 65, 0
2, 170508, Note_on_c, 0, 55, 18
2, 170532, Note_on_c, 0, 73, 0
2, 170612, Note_on_c, 0, 74, 36
2, 170616, Note_on_c, 0, 60, 0
2, 170624, Note_on_c, 0, 62, 0
2, 170660, Note_on_c, 0, 55, 0
2, 170776, Note_on_c, 0, 74, 0
2, 170844, Note_on_c, 0, 75, 43
2, 170848, Note_on_c, 0, 62, 34
2, 170908, Note_on_c, 0, 75, 0
2, 170952, Note_on_c, 0, 62, 0
2, 170992, Note_on_c, 0, 76, 49
2, 171188, Note_on_c, 0, 76, 0
2, 171224, Note_on_c, 0, 77, 68
2, 171240, Note_on_c, 0, 65, 27
2, 171248, Note_on_c, 0, 62, 33
2, 171268, Note_on_c, 0, 65, 0
2, 171272, Note_on_c, 0, 60, 27
2, 171320, Note_on_c, 0, 77, 0
2, 171324, Note_on_c, 0, 62, 0
2, 171352, Note_on_c, 0, 60, 0
2, 171376, Note_on_c, 0, 74, 25
2, 171520, Note_on_c, 0, 74, 0
2, 171576, Note_on_c, 0, 65, 64
2, 172332, Note_on_c, 0, 62, 40
2, 172344, Note_on_c, 0, 65, 0
2, 172348, Note_on_c, 0, 60, 26
2, 172400, Note_on_c, 0, 60, 0
2, 172412, Note_on_c, 0, 62, 0
2, 172460, Note_on_c, 0, 67, 30
2, 172648, Note_on_c, 0, 67, 0
2, 172692, Note_on_c, 0, 69, 65
2, 172696, Note_on_c, 0, 62, 35
2, 172720, Note_on_c, 0, 60, 26
2, 172748, Note_on_c, 0, 62, 0
2, 172760, Note_on_c, 0, 60, 0
2, 172780, Note_on_c, 0, 69, 0
2, 172836, Note_on_c, 0, 70, 54
2, 172996, Note_on_c, 0, 70, 0
2, 173064, Note_on_c, 0, 69, 65
2, 173072, Note_on_c, 0, 62, 37
2, 173096, Note_on_c, 0, 60, 24
2, 173120, Note_on_c, 0, 62, 0
2, 173136, Note_on_c, 0, 60, 0
2, 173160, Note_on_c, 0, 69, 0
2, 173212, Note_on_c, 0, 67, 44
2, 173440, Note_on_c, 0, 67, 0
2, 173452, Note_on_c, 0, 66, 44
2, 173556, Note_on_c, 0, 66, 0
2, 173580, Note_on_c, 0, 60, 24
2, 173592, Note_on_c, 0, 63, 23
2, 173600, Note_on_c, 0, 67, 45
2, 173612, Note_on_c, 0, 57, 27
2, 173616, Note_on_c, 0, 55, 24
2, 173820, Note_on_c, 0, 67, 0
2, 173856, Note_on_c, 0, 69, 80
2, 173968, Note_on_c, 0, 69, 0
2, 173976, Note_on_c, 0, 63, 0
2, 173980, Note_on_c, 0, 57, 0
2, 173992, Note_on_c, 0, 55, 0
2, 173992, Note_on_c, 0, 60, 0
2, 174020, Note_on_c, 0, 70, 48
2, 174204, Note_on_c, 0, 70, 0
2, 174232, Note_on_c, 0, 72, 63
2, 174236, Note_on_c, 0, 65, 44
2, 174244, Note_on_c, 0, 60, 45
2, 174252, Note_on_c, 0, 54, 25
2, 174256, Note_on_c, 0, 58, 27
2, 174316, Note_on_c, 0, 72, 0
2, 174396, Note_on_c, 0, 65, 0
2, 174416, Note_on_c, 0, 75, 59
2, 174512, Note_on_c, 0, 60, 0
2, 174528, Note_on_c, 0, 75, 0
2, 174588, Note_on_c, 0, 58, 0
2, 174624, Note_on_c, 0, 78, 72
2, 174740, Note_on_c, 0, 78, 0
2, 174740, Note_on_c, 0, 60, 34
2, 174792, Note_on_c, 0, 60, 0
2, 174804, Note_on_c, 0, 82, 63
2, 174832, Note_on_c, 0, 54, 0
2, 174992, Note_on_c, 0, 82, 0
2, 175016, Note_on_c, 0, 84, 80
2, 175088, Note_on_c, 0, 57, 32
2, 175096, Note_on_c, 0, 62, 20
2, 175128, Note_on_c, 0, 62, 0
2, 175152, Note_on_c, 0, 84, 0
2, 175172, Note_on_c, 0, 57, 0
2, 175192, Note_on_c, 0, 81, 53
2, 175344, Note_on_c, 0, 81, 0
2, 175404, Note_on_c, 0, 78, 35
2, 175472, Note_on_c, 0, 78, 0
2, 175524, Note_on_c, 0, 79, 69
2, 175724, Note_on_c, 0, 79, 0
2, 175752, Note_on_c, 0, 74, 64
2, 175756, Note_on_c, 0, 62, 33
2, 175768, Note_on_c, 0, 55, 44
2, 175768, Note_on_c, 0, 58, 31
2, 175772, Note_on_c, 0, 57, 32
2, 176232, Note_on_c, 0, 57, 0
2, 176248, Note_on_c, 0, 55, 0
2, 176300, Note_on_c, 0, 58, 0
2, 176324, Note_on_c, 0, 62, 0
2, 176456, Note_on_c, 0, 74, 0
2, 176524, Note_on_c, 0, 60, 43
2, 176528, Note_on_c, 0, 63, 43
2, 176556, Note_on_c, 0, 60, 0
2, 176568, Note_on_c, 0, 63, 0
2, 176636, Note_on_c, 0, 55, 1
2, 176644, Note_on_c, 0, 74, 70
2, 176676, Note_on_c, 0, 60, 4
2, 176700, Note_on_c, 0, 74, 0
2, 176716, Note_on_c, 0, 75, 62
2, 176768, Note_on_c, 0, 74, 49
2, 176812, Note_on_c, 0, 75, 0
2, 176868, Note_on_c, 0, 74, 0
2, 176880, Note_on_c, 0, 72, 52
2, 176944, Note_on_c, 0, 72, 0
2, 177000, Note_on_c, 0, 63, 42
2, 177020, Note_on_c, 0, 74, 59
2, 177108, Note_on_c, 0, 74, 0
2, 177120, Note_on_c, 0, 60, 0
2, 177208, Note_on_c, 0, 55, 0
2, 177232, Note_on_c, 0, 63, 0
2, 177364, Note_on_c, 0, 54, 31
2, 177424, Note_on_c, 0, 63, 69
2, 177564, Note_on_c, 0, 63, 0
2, 177608, Note_on_c, 0, 54, 0
2, 177736, Note_on_c, 0, 60, 45
2, 177748, Note_on_c, 0, 54, 25
2, 177764, Note_on_c, 0, 58, 23
2, 177776, Note_on_c, 0, 63, 59
2, 177780, Note_on_c, 0, 60, 0
2, 177840, Note_on_c, 0, 63, 0
2, 177860, Note_on_c, 0, 58, 0
2, 177864, Note_on_c, 0, 54, 0
2, 177868, Note_on_c, 0, 68, 45
2, 177952, Note_on_c, 0, 68, 0
2, 177988, Note_on_c, 0, 72, 45
2, 178064, Note_on_c, 0, 72, 0
2, 178100, Note_on_c, 0, 73, 59
2, 178164, Note_on_c, 0, 73, 0
2, 178216, Note_on_c, 0, 75, 76
2, 178224, Note_on_c, 0, 62, 52
2, 178240, Note_on_c, 0, 58, 25
2, 178240, Note_on_c, 0, 57, 34
2, 178260, Note_on_c, 0, 55, 30
2, 178280, Note_on_c, 0, 75, 0
2, 178328, Note_on_c, 0, 57, 0
2, 178352, Note_on_c, 0, 74, 74
2, 178452, Note_on_c, 0, 74, 0
2, 178520, Note_on_c, 0, 62, 0
2, 178592, Note_on_c, 0, 70, 59
2, 178616, Note_on_c, 0, 58, 0
2, 178660, Note_on_c, 0, 70, 0
2, 178700, Note_on_c, 0, 72, 56
2, 178744, Note_on_c, 0, 55, 0
2, 178796, Note_on_c, 0, 72, 0
2, 178820, Note_on_c, 0, 69, 66
2, 178828, Note_on_c, 0, 62, 45
2, 178848, Note_on_c, 0, 58, 30
2, 178852, Note_on_c, 0, 57, 34
2, 178952, Note_on_c, 0, 55, 1
2, 179092, Note_on_c, 0, 62, 0
2, 179096, Note_on_c, 0, 57, 0
2, 179112, Note_on_c, 0, 58, 0
2, 179212, Note_on_c, 0, 70, 74
2, 179236, Note_on_c, 0, 62, 42
2, 179240, Note_on_c, 0, 58, 36
2, 179244, Note_on_c, 0, 69, 0
2, 179304, Note_on_c, 0, 55, 0
2, 179356, Note_on_c, 0, 58, 0
2, 179396, Note_on_c, 0, 62, 0
2, 179732, Note_on_c, 0, 63, 38
2, 179740, Note_on_c, 0, 60, 36
2, 179744, Note_on_c, 0, 70, 0
2, 179748, Note_on_c, 0, 57, 39
2, 179760, Note_on_c, 0, 55, 32
2, 180104, Note_on_c, 0, 60, 0
2, 180108, Note_on_c, 0, 55, 0
2, 180128, Note_on_c, 0, 57, 0
2, 180132, Note_on_c, 0, 63, 0
2, 180488, Note_on_c, 0, 65, 49
2, 180496, Note_on_c, 0, 60, 49
2, 180504, Note_on_c, 0, 54, 31
2, 180508, Note_on_c, 0, 58, 33
2, 180768, Note_on_c, 0, 72, 62
2, 180824, Note_on_c, 0, 72, 0
2, 180876, Note_on_c, 0, 65, 0
2, 180904, Note_on_c, 0, 60, 0
2, 180940, Note_on_c, 0, 75, 48
2, 180944, Note_on_c, 0, 58, 0
2, 180992, Note_on_c, 0, 54, 0
2, 181008, Note_on_c, 0, 75, 0
2, 181144, Note_on_c, 0, 62, 41
2, 181144, Note_on_c, 0, 82, 65
2, 181148, Note_on_c, 0, 57, 43
2, 181148, Note_on_c, 0, 58, 28
2, 181172, Note_on_c, 0, 55, 31
2, 181256, Note_on_c, 0, 82, 0
2, 181352, Note_on_c, 0, 78, 36
2, 181504, Note_on_c, 0, 78, 0
2, 181536, Note_on_c, 0, 81, 71
2, 181608, Note_on_c, 0, 62, 0
2, 181616, Note_on_c, 0, 57, 0
2, 181628, Note_on_c, 0, 81, 0
2, 181676, Note_on_c, 0, 58, 0
2, 181688, Note_on_c, 0, 79, 50
2, 181780, Note_on_c, 0, 55, 0
2, 181868, Note_on_c, 0, 79, 0
2, 181896, Note_on_c, 0, 74, 57
2, 181920, Note_on_c, 0, 55, 36
2, 181928, Note_on_c, 0, 58, 25
2, 181936, Note_on_c, 0, 57, 29
2, 181972, Note_on_c, 0, 74, 0
2, 182048, Note_on_c, 0, 57, 0
2, 182052, Note_on_c, 0, 74, 35
2, 182072, Note_on_c, 0, 58, 0
2, 182192, Note_on_c, 0, 74, 0
2, 182296, Note_on_c, 0, 62, 34
2, 182308, Note_on_c, 0, 58, 28
2, 182308, Note_on_c, 0, 57, 33
2, 182312, Note_on_c, 0, 71, 38
2, 182344, Note_on_c, 0, 62, 0
2, 182376, Note_on_c, 0, 71, 0
2, 182396, Note_on_c, 0, 58, 0
2, 182436, Note_on_c, 0, 57, 0
2, 182508, Note_on_c, 0, 55, 0
2, 182544, Note_on_c, 0, 67, 1
2, 182688, Note_on_c, 0, 57, 38
2, 182696, Note_on_c, 0, 58, 27
2, 182708, Note_on_c, 0, 67, 0
2, 182720, Note_on_c, 0, 58, 0
2, 182728, Note_on_c, 0, 57, 0
2, 182792, Note_on_c, 0, 70, 68
2, 183064, Note_on_c, 0, 66, 31
2, 183068, Note_on_c, 0, 70, 0
2, 183128, Note_on_c, 0, 66, 0
2, 183176, Note_on_c, 0, 67, 71
2, 183436, Note_on_c, 0, 60, 57
2, 183472, Note_on_c, 0, 67, 0
2, 183840, Note_on_c, 0, 60, 0
2, 183848, Note_on_c, 0, 57, 35
2, 183888, Note_on_c, 0, 57, 0
2, 183940, Note_on_c, 0, 67, 61
2, 184200, Note_on_c, 0, 60, 41
2, 184216, Note_on_c, 0, 51, 34
2, 184228, Note_on_c, 0, 60, 0
2, 184248, Note_on_c, 0, 51, 0
2, 184248, Note_on_c, 0, 67, 0
2, 184328, Note_on_c, 0, 65, 60
2, 184580, Note_on_c, 0, 60, 64
2, 184592, Note_on_c, 0, 65, 0
2, 184592, Note_on_c, 0, 51, 36
2, 184600, Note_on_c, 0, 57, 30
2, 184948, Note_on_c, 0, 57, 0
2, 185020, Note_on_c, 0, 51, 0
2, 185024, Note_on_c, 0, 60, 0
2, 185092, Note_on_c, 0, 57, 17
2, 185092, Note_on_c, 0, 65, 57
2, 185096, Note_on_c, 0, 51, 26
2, 185144, Note_on_c, 0, 57, 0
2, 185176, Note_on_c, 0, 51, 0
2, 185312, Note_on_c, 0, 65, 0
2, 185356, Note_on_c, 0, 60, 30
2, 185388, Note_on_c, 0, 60, 0
2, 185472, Note_on_c, 0, 51, 34
2, 185472, Note_on_c, 0, 63, 50
2, 185692, Note_on_c, 0, 63, 0
2, 185712, Note_on_c, 0, 65, 55
2, 185760, Note_on_c, 0, 51, 0
2, 185816, Note_on_c, 0, 65, 0
2, 185840, Note_on_c, 0, 58, 35
2, 185844, Control_c, 0, 64, 127
2, 185864, Note_on_c, 0, 62, 30
2, 185892, Note_on_c, 0, 62, 0
2, 185896, Note_on_c, 0, 58, 0
2, 186140, Note_on_c, 0, 65, 57
2, 186140, Control_c, 0, 64, 0
2, 186144, Note_on_c, 0, 95, 62
2, 186152, Note_on_c, 0, 60, 45
2, 186156, Note_on_c, 0, 83, 26
2, 186164, Note_on_c, 0, 65, 0
2, 186168, Note_on_c, 0, 95, 0
2, 186176, Note_on_c, 0, 83, 0
2, 186184, Note_on_c, 0, 60, 0
2, 186388, Note_on_c, 0, 91, 65
2, 186392, Note_on_c, 0, 81, 63
2, 186396, Note_on_c, 0, 62, 60
2, 186400, Note_on_c, 0, 65, 62
2, 186404, Note_on_c, 0, 90, 47
2, 186408, Note_on_c, 0, 60, 58
2, 186424, Control_c, 0, 64, 127
2, 186444, Note_on_c, 0, 90, 0
2, 186524, Note_on_c, 0, 81, 0
2, 186524, Note_on_c, 0, 91, 0
2, 186548, Note_on_c, 0, 65, 0
2, 186560, Note_on_c, 0, 60, 0
2, 186564, Note_on_c, 0, 62, 0
2, 186664, Control_c, 0, 64, 0
2, 186916, Note_on_c, 0, 62, 62
2, 186920, Note_on_c, 0, 74, 66
2, 186924, Note_on_c, 0, 86, 49
2, 186928, Note_on_c, 0, 65, 44
2, 186936, Note_on_c, 0, 60, 40
2, 186948, Note_on_c, 0, 74, 0
2, 186952, Note_on_c, 0, 86, 0
2, 186956, Note_on_c, 0, 65, 0
2, 186964, Note_on_c, 0, 60, 0
2, 186980, Note_on_c, 0, 62, 0
2, 187144, Control_c, 0, 64, 127
2, 187168, Note_on_c, 0, 62, 50
2, 187172, Note_on_c, 0, 65, 46
2, 187176, Note_on_c, 0, 60, 48
2, 187208, Note_on_c, 0, 62, 0
2, 187212, Note_on_c, 0, 65, 0
2, 187276, Note_on_c, 0, 60, 0
2, 187412, Note_on_c, 0, 61, 56
2, 187412, Note_on_c, 0, 65, 71
2, 187416, Note_on_c, 0, 60, 65
2, 187420, Note_on_c, 0, 89, 67
2, 187424, Note_on_c, 0, 55, 63
2, 187428, Control_c, 0, 64, 0
2, 187428, Note_on_c, 0, 77, 64
2, 187436, Note_on_c, 0, 84, 65
2, 187568, Control_c, 0, 64, 127
2, 187596, Note_on_c, 0, 89, 0
2, 187608, Note_on_c, 0, 84, 0
2, 187616, Note_on_c, 0, 55, 0
2, 187616, Note_on_c, 0, 65, 0
2, 187620, Note_on_c, 0, 60, 0
2, 187620, Note_on_c, 0, 77, 0
2, 187632, Note_on_c, 0, 61, 0
2, 187680, Note_on_c, 0, 65, 48
2, 187680, Note_on_c, 0, 88, 57
2, 187684, Note_on_c, 0, 61, 46
2, 187688, Control_c, 0, 64, 0
2, 187688, Note_on_c, 0, 60, 57
2, 187692, Note_on_c, 0, 55, 35
2, 187696, Note_on_c, 0, 83, 49
2, 187700, Note_on_c, 0, 76, 35
2, 187716, Note_on_c, 0, 60, 0
2, 187720, Note_on_c, 0, 65, 0
2, 187724, Note_on_c, 0, 83, 0
2, 187728, Note_on_c, 0, 55, 0
2, 187732, Note_on_c, 0, 76, 0
2, 187740, Note_on_c, 0, 61, 0
2, 187740, Note_on_c, 0, 88, 0
2, 188040, Note_on_c, 0, 87, 73
2, 188044, Note_on_c, 0, 60, 68
2, 188048, Note_on_c, 0, 75, 69
2, 188052, Note_on_c, 0, 82, 62
2, 188052, Note_on_c, 0, 65, 71
2, 188052, Note_on_c, 0, 61, 46
2, 188072, Note_on_c, 0, 55, 50
2, 188160, Control_c, 0, 64, 127
2, 188296, Note_on_c, 0, 87, 0
2, 188300, Note_on_c, 0, 75, 0
2, 188332, Note_on_c, 0, 82, 0
2, 188380, Note_on_c, 0, 65, 0
2, 188396, Note_on_c, 0, 55, 0
2, 188416, Note_on_c, 0, 60, 0
2, 188420, Note_on_c, 0, 61, 0
2, 188580, Note_on_c, 0, 55, 45
2, 188580, Note_on_c, 0, 61, 30
2, 188584, Note_on_c, 0, 72, 44
2, 188588, Note_on_c, 0, 84, 44
2, 188588, Note_on_c, 0, 65, 30
2, 188628, Note_on_c, 0, 72, 0
2, 188636, Note_on_c, 0, 65, 0
2, 188660, Note_on_c, 0, 84, 0
2, 188676, Note_on_c, 0, 61, 0
2, 188688, Note_on_c, 0, 55, 0
2, 188916, Control_c, 0, 64, 0
2, 188956, Note_on_c, 0, 54, 72
2, 188956, Note_on_c, 0, 86, 88
2, 188956, Note_on_c, 0, 74, 95
2, 188960, Note_on_c, 0, 65, 74
2, 188960, Note_on_c, 0, 82, 69
2, 188968, Note_on_c, 0, 58, 50
2, 188968, Note_on_c, 0, 79, 54
2, 188972, Note_on_c, 0, 60, 55
2, 188992, Note_on_c, 0, 79, 0
2, 189000, Note_on_c, 0, 74, 0
2, 189028, Note_on_c, 0, 65, 0
2, 189032, Note_on_c, 0, 60, 0
2, 189036, Note_on_c, 0, 58, 0
2, 189044, Note_on_c, 0, 82, 0
2, 189052, Note_on_c, 0, 74, 62
2, 189060, Note_on_c, 0, 86, 0
2, 189112, Note_on_c, 0, 60, 53
2, 189120, Note_on_c, 0, 82, 50
2, 189124, Note_on_c, 0, 74, 0
2, 189128, Note_on_c, 0, 65, 43
2, 189128, Note_on_c, 0, 86, 44
2, 189136, Note_on_c, 0, 54, 0
2, 189184, Note_on_c, 0, 74, 63
2, 189188, Note_on_c, 0, 65, 0
2, 189188, Note_on_c, 0, 86, 0
2, 189188, Note_on_c, 0, 54, 57
2, 189196, Note_on_c, 0, 82, 0
2, 189196, Note_on_c, 0, 60, 0
2, 189248, Note_on_c, 0, 86, 39
2, 189252, Note_on_c, 0, 82, 56
2, 189260, Note_on_c, 0, 74, 0
2, 189260, Note_on_c, 0, 58, 34
2, 189284, Note_on_c, 0, 65, 32
2, 189288, Note_on_c, 0, 54, 0
2, 189288, Note_on_c, 0, 86, 0
2, 189292, Note_on_c, 0, 58, 0
2, 189292, Note_on_c, 0, 60, 27
2, 189308, Note_on_c, 0, 65, 0
2, 189312, Note_on_c, 0, 82, 0
2, 189316, Note_on_c, 0, 60, 0
2, 189748, Control_c, 0, 64, 127
2, 189764, Control_c, 0, 64, 0
2, 189964, Note_on_c, 0, 54, 63
2, 189964, Note_on_c, 0, 82, 73
2, 189968, Note_on_c, 0, 86, 75
2, 189968, Note_on_c, 0, 74, 84
2, 189968, Note_on_c, 0, 60, 63
2, 189976, Note_on_c, 0, 58, 51
2, 189976, Note_on_c, 0, 65, 68
2, 190104, Control_c, 0, 64, 127
2, 190320, Note_on_c, 0, 74, 0
2, 190344, Note_on_c, 0, 65, 0
2, 190348, Note_on_c, 0, 60, 0
2, 190396, Note_on_c, 0, 86, 0
2, 190416, Note_on_c, 0, 82, 0
2, 190432, Note_on_c, 0, 54, 0
2, 190436, Note_on_c, 0, 58, 0
2, 190464, Control_c, 0, 64, 0
2, 190484, Note_on_c, 0, 64, 57
2, 190488, Note_on_c, 0, 86, 56
2, 190492, Note_on_c, 0, 59, 57
2, 190492, Note_on_c, 0, 76, 53
2, 190492, Note_on_c, 0, 81, 58
2, 190492, Note_on_c, 0, 53, 54
2, 190608, Note_on_c, 0, 76, 0
2, 190612, Note_on_c, 0, 64, 0
2, 190624, Note_on_c, 0, 53, 0
2, 190632, Note_on_c, 0, 59, 0
2, 190640, Note_on_c, 0, 81, 0
2, 190640, Note_on_c, 0, 86, 0
2, 190860, Control_c, 0, 64, 127
2, 190940, Control_c, 0, 64, 0
2, 191136, Note_on_c, 0, 59, 29
2, 191164, Note_on_c, 0, 59, 0
2, 191220, Note_on_c, 0, 87, 70
2, 191224, Note_on_c, 0, 93, 76
2, 191224, Note_on_c, 0, 59, 66
2, 191224, Note_on_c, 0, 81, 69
2, 191228, Note_on_c, 0, 64, 62
2, 191232, Note_on_c, 0, 53, 48
2, 191256, Note_on_c, 0, 54, 33
2, 191320, Note_on_c, 0, 54, 0
2, 191376, Note_on_c, 0, 88, 52
2, 191384, Note_on_c, 0, 87, 0
2, 191428, Note_on_c, 0, 64, 0
2, 191432, Note_on_c, 0, 93, 0
2, 191432, Note_on_c, 0, 81, 0
2, 191444, Note_on_c, 0, 53, 0
2, 191448, Note_on_c, 0, 59, 0
2, 191460, Note_on_c, 0, 88, 0
2, 191604, Note_on_c, 0, 80, 67
2, 191608, Note_on_c, 0, 92, 70
2, 191608, Note_on_c, 0, 64, 62
2, 191608, Note_on_c, 0, 53, 57
2, 191616, Note_on_c, 0, 87, 65
2, 191616, Note_on_c, 0, 59, 47
2, 191680, Note_on_c, 0, 59, 0
2, 191724, Note_on_c, 0, 64, 0
2, 191772, Note_on_c, 0, 92, 0
2, 191772, Control_c, 0, 64, 127
2, 191780, Note_on_c, 0, 80, 0
2, 191780, Note_on_c, 0, 53, 0
2, 191788, Note_on_c, 0, 87, 0
2, 191904, Control_c, 0, 64, 0
2, 192000, Note_on_c, 0, 57, 55
2, 192004, Note_on_c, 0, 91, 66
2, 192008, Note_on_c, 0, 79, 55
2, 192008, Note_on_c, 0, 86, 59
2, 192012, Note_on_c, 0, 62, 54
2, 192016, Note_on_c, 0, 58, 46
2, 192016, Note_on_c, 0, 52, 57
2, 192348, Note_on_c, 0, 79, 0
2, 192380, Note_on_c, 0, 86, 0
2, 192392, Note_on_c, 0, 91, 0
2, 192392, Control_c, 0, 64, 127
2, 192396, Note_on_c, 0, 57, 0
2, 192404, Note_on_c, 0, 58, 0
2, 192408, Note_on_c, 0, 62, 0
2, 192424, Note_on_c, 0, 52, 0
2, 192732, Control_c, 0, 64, 0
2, 192780, Note_on_c, 0, 57, 74
2, 192780, Note_on_c, 0, 62, 76
2, 192784, Note_on_c, 0, 98, 84
2, 192784, Note_on_c, 0, 58, 50
2, 192784, Note_on_c, 0, 52, 72
2, 192788, Note_on_c, 0, 86, 69
2, 192788, Note_on_c, 0, 94, 59
2, 192792, Note_on_c, 0, 91, 66
2, 192912, Note_on_c, 0, 86, 0
2, 192920, Note_on_c, 0, 62, 0
2, 192924, Note_on_c, 0, 98, 0
2, 192928, Note_on_c, 0, 91, 0
2, 192928, Note_on_c, 0, 58, 0
2, 192928, Note_on_c, 0, 57, 0
2, 192936, Note_on_c, 0, 94, 0
2, 192936, Note_on_c, 0, 52, 0
2, 193172, Note_on_c, 0, 91, 72
2, 193172, Note_on_c, 0, 96, 76
2, 193172, Note_on_c, 0, 62, 66
2, 193172, Note_on_c, 0, 57, 50
2, 193176, Note_on_c, 0, 52, 53
2, 193180, Note_on_c, 0, 58, 40
2, 193180, Note_on_c, 0, 84, 66
2, 193244, Note_on_c, 0, 52, 0
2, 193248, Note_on_c, 0, 57, 0
2, 193264, Note_on_c, 0, 91, 0
2, 193268, Note_on_c, 0, 96, 0
2, 193284, Note_on_c, 0, 58, 0
2, 193284, Note_on_c, 0, 84, 0
2, 193312, Note_on_c, 0, 62, 0
2, 193560, Note_on_c, 0, 94, 71
2, 193564, Note_on_c, 0, 67, 68
2, 193568, Note_on_c, 0, 58, 56
2, 193568, Note_on_c, 0, 87, 67
2, 193572, Note_on_c, 0, 63, 48
2, 193572, Note_on_c, 0, 82, 64
2, 193576, Note_on_c, 0, 62, 58
2, 193576, Note_on_c, 0, 91, 55
2, 193624, Control_c, 0, 64, 127
2, 193924, Note_on_c, 0, 91, 0
2, 193936, Note_on_c, 0, 62, 0
2, 193952, Note_on_c, 0, 87, 0
2, 193956, Note_on_c, 0, 67, 0
2, 193956, Note_on_c, 0, 82, 0
2, 193976, Note_on_c, 0, 94, 0
2, 193976, Note_on_c, 0, 63, 0
2, 194044, Note_on_c, 0, 58, 0
2, 194568, Note_on_c, 0, 61, 70
2, 194572, Note_on_c, 0, 60, 78
2, 194572, Note_on_c, 0, 65, 85
2, 194576, Control_c, 0, 64, 0
2, 194580, Note_on_c, 0, 91, 89
2, 194580, Note_on_c, 0, 96, 89
2, 194580, Note_on_c, 0, 55, 75
2, 194584, Note_on_c, 0, 84, 92
2, 194592, Note_on_c, 0, 58, 35
2, 194620, Note_on_c, 0, 58, 0
2, 194712, Control_c, 0, 64, 127
2, 194884, Note_on_c, 0, 60, 0
2, 194932, Note_on_c, 0, 84, 0
2, 194940, Note_on_c, 0, 65, 0
2, 194948, Note_on_c, 0, 91, 0
2, 194964, Note_on_c, 0, 96, 0
2, 194964, Note_on_c, 0, 55, 0
2, 194976, Note_on_c, 0, 61, 0
2, 195080, Control_c, 0, 64, 0
2, 195104, Note_on_c, 0, 54, 62
2, 195108, Note_on_c, 0, 60, 74
2, 195108, Note_on_c, 0, 59, 66
2, 195108, Note_on_c, 0, 98, 87
2, 195108, Note_on_c, 0, 86, 84
2, 195108, Note_on_c, 0, 93, 84
2, 195116, Note_on_c, 0, 64, 80
2, 195456, Control_c, 0, 64, 127
2, 195508, Note_on_c, 0, 86, 0
2, 195528, Note_on_c, 0, 93, 0
2, 195544, Note_on_c, 0, 98, 0
2, 195560, Note_on_c, 0, 59, 0
2, 195572, Note_on_c, 0, 64, 0
2, 195592, Note_on_c, 0, 60, 0
2, 195596, Note_on_c, 0, 54, 0
2, 195712, Note_on_c, 0, 101, 90
2, 195716, Note_on_c, 0, 89, 90
2, 195720, Note_on_c, 0, 96, 85
2, 195720, Note_on_c, 0, 64, 89
2, 195720, Note_on_c, 0, 54, 73
2, 195724, Note_on_c, 0, 60, 78
2, 195724, Note_on_c, 0, 59, 74
2, 195728, Control_c, 0, 64, 0
2, 195968, Control_c, 0, 64, 127
2, 196140, Note_on_c, 0, 89, 0
2, 196152, Note_on_c, 0, 59, 0
2, 196172, Note_on_c, 0, 96, 0
2, 196172, Note_on_c, 0, 60, 0
2, 196176, Note_on_c, 0, 101, 0
2, 196244, Note_on_c, 0, 54, 0
2, 196280, Note_on_c, 0, 64, 0
2, 196452, Note_on_c, 0, 59, 81
2, 196456, Note_on_c, 0, 64, 89
2, 196456, Note_on_c, 0, 103, 80
2, 196460, Note_on_c, 0, 98, 87
2, 196460, Note_on_c, 0, 53, 80
2, 196460, Note_on_c, 0, 91, 80
2, 196476, Control_c, 0, 64, 0
2, 196524, Note_on_c, 0, 64, 0
2, 196552, Note_on_c, 0, 59, 0
2, 196556, Note_on_c, 0, 103, 0
2, 196568, Note_on_c, 0, 98, 0
2, 196584, Note_on_c, 0, 53, 0
2, 196584, Note_on_c, 0, 91, 0
2, 196980, Note_on_c, 0, 43, 95
2, 196988, Note_on_c, 0, 31, 94
2, 197004, Note_on_c, 0, 41, 40
2, 197036, Note_on_c, 0, 41, 0
2, 197264, Control_c, 0, 64, 127
2, 197316, Note_on_c, 0, 31, 0
2, 197368, Note_on_c, 0, 43, 0
2, 197660, Note_on_c, 0, 61, 27
2, 197724, Control_c, 0, 64, 0
2, 197728, Note_on_c, 0, 61, 0
2, 197732, Note_on_c, 0, 63, 77
2, 197732, Note_on_c, 0, 68, 83
2, 197732, Note_on_c, 0, 75, 81
2, 197736, Note_on_c, 0, 64, 81
2, 197740, Note_on_c, 0, 72, 68
2, 197912, Note_on_c, 0, 64, 0
2, 197920, Note_on_c, 0, 68, 0
2, 197932, Note_on_c, 0, 72, 0
2, 197936, Note_on_c, 0, 75, 0
2, 197944, Note_on_c, 0, 63, 0
2, 198428, Note_on_c, 0, 63, 82
2, 198428, Note_on_c, 0, 70, 54
2, 198432, Note_on_c, 0, 62, 81
2, 198432, Note_on_c, 0, 59, 65
2, 198436, Note_on_c, 0, 67, 67
2, 198440, Note_on_c, 0, 60, 79
2, 198440, Note_on_c, 0, 71, 69
2, 198456, Note_on_c, 0, 59, 0
2, 198464, Note_on_c, 0, 71, 0
2, 198692, Note_on_c, 0, 62, 0
2, 198780, Note_on_c, 0, 60, 0
2, 198788, Note_on_c, 0, 67, 0
2, 198816, Note_on_c, 0, 53, 28
2, 198828, Note_on_c, 0, 63, 0
2, 198860, Note_on_c, 0, 70, 0
2, 198868, Note_on_c, 0, 53, 0
2, 198900, Note_on_c, 0, 55, 53
2, 198908, Note_on_c, 0, 60, 53
2, 198916, Note_on_c, 0, 67, 49
2, 198924, Note_on_c, 0, 63, 35
2, 199000, Note_on_c, 0, 60, 0
2, 199028, Note_on_c, 0, 63, 0
2, 199044, Note_on_c, 0, 67, 0
2, 199056, Note_on_c, 0, 55, 0
2, 199276, Note_on_c, 0, 70, 63
2, 199276, Note_on_c, 0, 63, 63
2, 199284, Note_on_c, 0, 67, 54
2, 199284, Note_on_c, 0, 60, 54
2, 199348, Note_on_c, 0, 60, 0
2, 199364, Note_on_c, 0, 67, 0
2, 199368, Note_on_c, 0, 63, 0
2, 199388, Note_on_c, 0, 70, 0
2, 199652, Control_c, 0, 64, 127
2, 199664, Note_on_c, 0, 74, 69
2, 199676, Note_on_c, 0, 69, 47
2, 199680, Note_on_c, 0, 66, 48
2, 199680, Note_on_c, 0, 62, 49
2, 199684, Note_on_c, 0, 51, 51
2, 199684, Note_on_c, 0, 57, 43
2, 199816, Note_on_c, 0, 62, 0
2, 199816, Note_on_c, 0, 74, 0
2, 199820, Note_on_c, 0, 51, 0
2, 199828, Note_on_c, 0, 66, 0
2, 199836, Note_on_c, 0, 69, 0
2, 199836, Note_on_c, 0, 57, 0
2, 199920, Note_on_c, 0, 74, 79
2, 199924, Note_on_c, 0, 66, 60
2, 199928, Note_on_c, 0, 62, 71
2, 199928, Note_on_c, 0, 51, 62
2, 199932, Note_on_c, 0, 69, 62
2, 199936, Note_on_c, 0, 57, 64
2, 199972, Control_c, 0, 64, 0
2, 200004, Note_on_c, 0, 57, 0
2, 200004, Note_on_c, 0, 62, 0
2, 200012, Note_on_c, 0, 66, 0
2, 200016, Note_on_c, 0, 51, 0
2, 200024, Note_on_c, 0, 74, 0
2, 200032, Note_on_c, 0, 69, 0
2, 200068, Note_on_c, 0, 51, 46
2, 200080, Note_on_c, 0, 74, 49
2, 200084, Note_on_c, 0, 62, 44
2, 200084, Note_on_c, 0, 57, 49
2, 200088, Note_on_c, 0, 66, 47
2, 200092, Note_on_c, 0, 69, 65
2, 200192, Note_on_c, 0, 62, 0
2, 200196, Note_on_c, 0, 66, 0
2, 200200, Note_on_c, 0, 51, 0
2, 200204, Note_on_c, 0, 57, 0
2, 200212, Note_on_c, 0, 69, 0
2, 200212, Note_on_c, 0, 74, 0
2, 200288, Control_c, 0, 64, 127
2, 200316, Note_on_c, 0, 74, 76
2, 200320, Note_on_c, 0, 69, 64
2, 200324, Note_on_c, 0, 66, 60
2, 200324, Note_on_c, 0, 51, 64
2, 200324, Note_on_c, 0, 62, 68
2, 200332, Note_on_c, 0, 57, 63
2, 200364, Control_c, 0, 64, 0
2, 200388, Note_on_c, 0, 57, 0
2, 200388, Note_on_c, 0, 62, 0
2, 200392, Note_on_c, 0, 66, 0
2, 200404, Note_on_c, 0, 74, 0
2, 200408, Note_on_c, 0, 51, 0
2, 200412, Note_on_c, 0, 69, 0
2, 200504, Note_on_c, 0, 51, 55
2, 200504, Note_on_c, 0, 62, 64
2, 200508, Note_on_c, 0, 74, 65
2, 200508, Note_on_c, 0, 66, 50
2, 200512, Note_on_c, 0, 69, 55
2, 200516, Note_on_c, 0, 57, 55
2, 200560, Note_on_c, 0, 57, 0
2, 200568, Note_on_c, 0, 62, 0
2, 200572, Note_on_c, 0, 66, 0
2, 200584, Note_on_c, 0, 51, 0
2, 200584, Note_on_c, 0, 74, 0
2, 200584, Control_c, 0, 64, 127
2, 200588, Note_on_c, 0, 69, 0
2, 200740, Control_c, 0, 64, 0
2, 200752, Note_on_c, 0, 51, 67
2, 200756, Note_on_c, 0, 66, 68
2, 200756, Note_on_c, 0, 62, 74
2, 200760, Note_on_c, 0, 74, 66
2, 200764, Note_on_c, 0, 57, 54
2, 200768, Note_on_c, 0, 69, 46
2, 200780, Note_on_c, 0, 62, 0
2, 200800, Note_on_c, 0, 69, 0
2, 200804, Note_on_c, 0, 57, 0
2, 200804, Note_on_c, 0, 66, 0
2, 200836, Note_on_c, 0, 51, 0
2, 200860, Note_on_c, 0, 74, 0
2, 201452, Note_on_c, 0, 56, 64
2, 201456, Note_on_c, 0, 90, 72
2, 201456, Note_on_c, 0, 67, 74
2, 201456, Note_on_c, 0, 62, 62
2, 201460, Note_on_c, 0, 82, 64
2, 201464, Note_on_c, 0, 94, 36
2, 201476, Note_on_c, 0, 90, 0
2, 201476, Note_on_c, 0, 95, 49
2, 201496, Note_on_c, 0, 82, 0
2, 201500, Note_on_c, 0, 67, 0
2, 201504, Note_on_c, 0, 95, 0
2, 201512, Note_on_c, 0, 94, 0
2, 201516, Note_on_c, 0, 56, 0
2, 201524, Note_on_c, 0, 62, 0
2, 201652, Note_on_c, 0, 92, 68
2, 201656, Note_on_c, 0, 80, 62
2, 201664, Note_on_c, 0, 56, 53
2, 201664, Note_on_c, 0, 62, 62
2, 201684, Note_on_c, 0, 67, 33
2, 201712, Note_on_c, 0, 67, 0
2, 201712, Note_on_c, 0, 80, 0
2, 201716, Note_on_c, 0, 92, 0
2, 201720, Note_on_c, 0, 62, 0
2, 201740, Note_on_c, 0, 56, 0
2, 202044, Note_on_c, 0, 88, 80
2, 202060, Note_on_c, 0, 64, 78
2, 202060, Note_on_c, 0, 76, 47
2, 202084, Note_on_c, 0, 77, 28
2, 202108, Note_on_c, 0, 77, 0
2, 202148, Note_on_c, 0, 76, 0
2, 202188, Note_on_c, 0, 88, 0
2, 202240, Note_on_c, 0, 64, 0
2, 202296, Note_on_c, 0, 63, 57
2, 202300, Note_on_c, 0, 87, 69
2, 202408, Note_on_c, 0, 87, 0
2, 202436, Note_on_c, 0, 85, 43
2, 202460, Note_on_c, 0, 63, 0
2, 202464, Note_on_c, 0, 61, 36
2, 202612, Note_on_c, 0, 85, 0
2, 202624, Note_on_c, 0, 61, 0
2, 202668, Note_on_c, 0, 61, 12
2, 202696, Note_on_c, 0, 82, 30
2, 202740, Note_on_c, 0, 82, 0
2, 202748, Note_on_c, 0, 61, 0
2, 202824, Note_on_c, 0, 63, 30
2, 202832, Note_on_c, 0, 85, 71
2, 202848, Note_on_c, 0, 63, 0
2, 202916, Note_on_c, 0, 85, 0
2, 202964, Control_c, 0, 64, 127
2, 203064, Note_on_c, 0, 54, 47
2, 203088, Control_c, 0, 64, 0
2, 203112, Note_on_c, 0, 54, 0
2, 203188, Control_c, 0, 64, 127
2, 203200, Note_on_c, 0, 81, 58
2, 203220, Note_on_c, 0, 57, 27
2, 203244, Note_on_c, 0, 57, 0
2, 203388, Note_on_c, 0, 81, 0
2, 203436, Note_on_c, 0, 82, 60
2, 203444, Note_on_c, 0, 46, 29
2, 203448, Control_c, 0, 64, 0
2, 203460, Note_on_c, 0, 34, 29
2, 203568, Control_c, 0, 64, 127
2, 203648, Note_on_c, 0, 46, 0
2, 203688, Note_on_c, 0, 34, 0
2, 203752, Note_on_c, 0, 82, 0
2, 204000, Note_on_c, 0, 34, 32
2, 204008, Note_on_c, 0, 22, 46
2, 204196, Control_c, 0, 64, 0
2, 205756, Note_on_c, 0, 34, 0
2, 205808, Note_on_c, 0, 22, 0
2, 205808, End_track
3, 0, Start_track
3, 0, MIDI_port, 0
3, 0, Title_t, "Doug McKenzie"
3, 0, Control_c, 1, 0, 0
3, 0, Control_c, 1, 32, 0
3, 0, Program_c, 1, 35
3, 0, Control_c, 1, 7, 100
3, 0, Note_on_c, 1, 35, 0
3, 384, Note_on_c, 1, 35, 0
3, 1420, Note_on_c, 1, 33, 40
3, 1520, Note_on_c, 1, 33, 0
3, 1544, Note_on_c, 1, 34, 47
3, 1936, Note_on_c, 1, 43, 57
3, 1980, Note_on_c, 1, 34, 0
3, 2216, Note_on_c, 1, 34, 28
3, 2264, Note_on_c, 1, 34, 0
3, 2288, Note_on_c, 1, 43, 0
3, 2312, Note_on_c, 1, 41, 44
3, 2568, Note_on_c, 1, 34, 25
3, 2612, Note_on_c, 1, 34, 0
3, 2668, Note_on_c, 1, 41, 0
3, 2668, Note_on_c, 1, 48, 53
3, 2944, Note_on_c, 1, 38, 34
3, 2988, Note_on_c, 1, 38, 0
3, 3036, Note_on_c, 1, 39, 39
3, 3072, Note_on_c, 1, 48, 0
3, 3420, Note_on_c, 1, 39, 0
3, 3424, Note_on_c, 1, 34, 40
3, 3780, Note_on_c, 1, 34, 0
3, 3796, Note_on_c, 1, 31, 40
3, 4056, Note_on_c, 1, 34, 45
3, 4064, Note_on_c, 1, 31, 0
3, 4140, Note_on_c, 1, 34, 0
3, 4168, Note_on_c, 1, 33, 49
3, 4552, Note_on_c, 1, 33, 0
3, 4568, Note_on_c, 1, 32, 45
3, 4976, Note_on_c, 1, 44, 44
3, 5344, Note_on_c, 1, 44, 0
3, 5364, Note_on_c, 1, 48, 30
3, 5436, Note_on_c, 1, 48, 0
3, 5612, Note_on_c, 1, 39, 47
3, 5624, Note_on_c, 1, 32, 0
3, 5624, Note_on_c, 1, 44, 81
3, 5632, Note_on_c, 1, 39, 0
3, 5644, Note_on_c, 1, 46, 21
3, 5664, Note_on_c, 1, 46, 0
3, 5744, Note_on_c, 1, 42, 56
3, 5756, Note_on_c, 1, 44, 0
3, 5952, Note_on_c, 1, 42, 0
3, 5988, Note_on_c, 1, 43, 63
3, 6244, Note_on_c, 1, 38, 32
3, 6328, Note_on_c, 1, 38, 0
3, 6368, Note_on_c, 1, 32, 54
3, 6448, Note_on_c, 1, 43, 0
3, 6484, Note_on_c, 1, 32, 0
3, 6516, Note_on_c, 1, 31, 51
3, 7024, Note_on_c, 1, 31, 0
3, 7028, Note_on_c, 1, 33, 53
3, 7108, Note_on_c, 1, 33, 0
3, 7144, Note_on_c, 1, 34, 47
3, 7264, Note_on_c, 1, 34, 0
3, 7276, Note_on_c, 1, 35, 55
3, 7548, Note_on_c, 1, 33, 46
3, 7576, Note_on_c, 1, 35, 0
3, 7632, Note_on_c, 1, 33, 0
3, 7652, Note_on_c, 1, 36, 49
3, 8028, Note_on_c, 1, 36, 0
3, 8036, Note_on_c, 1, 38, 49
3, 8400, Note_on_c, 1, 38, 0
3, 8428, Note_on_c, 1, 40, 36
3, 8732, Note_on_c, 1, 38, 30
3, 8764, Note_on_c, 1, 38, 0
3, 8768, Note_on_c, 1, 40, 0
3, 8816, Note_on_c, 1, 45, 40
3, 9188, Note_on_c, 1, 45, 0
3, 9192, Note_on_c, 1, 43, 46
3, 9484, Note_on_c, 1, 40, 22
3, 9508, Note_on_c, 1, 40, 0
3, 9552, Note_on_c, 1, 43, 0
3, 9576, Note_on_c, 1, 50, 72
3, 9948, Note_on_c, 1, 50, 0
3, 9952, Note_on_c, 1, 45, 37
3, 10236, Note_on_c, 1, 43, 48
3, 10260, Note_on_c, 1, 45, 0
3, 10300, Note_on_c, 1, 43, 0
3, 10356, Note_on_c, 1, 41, 54
3, 10376, Note_on_c, 1, 41, 0
3, 10612, Note_on_c, 1, 35, 51
3, 10732, Note_on_c, 1, 35, 0
3, 10744, Note_on_c, 1, 36, 43
3, 11048, Note_on_c, 1, 35, 22
3, 11080, Note_on_c, 1, 35, 0
3, 11084, Note_on_c, 1, 36, 0
3, 11128, Note_on_c, 1, 38, 42
3, 11480, Note_on_c, 1, 38, 0
3, 11508, Note_on_c, 1, 39, 40
3, 11580, Note_on_c, 1, 39, 0
3, 11880, Note_on_c, 1, 40, 58
3, 12416, Note_on_c, 1, 40, 0
3, 12416, Note_on_c, 1, 41, 55
3, 12436, Note_on_c, 1, 41, 0
3, 12532, Note_on_c, 1, 36, 58
3, 12820, Note_on_c, 1, 36, 0
3, 12820, Note_on_c, 1, 31, 46
3, 12864, Note_on_c, 1, 31, 0
3, 12928, Note_on_c, 1, 30, 67
3, 13180, Note_on_c, 1, 30, 0
3, 13188, Note_on_c, 1, 29, 55
3, 13292, Note_on_c, 1, 32, 64
3, 13304, Note_on_c, 1, 29, 0
3, 13384, Note_on_c, 1, 32, 0
3, 13420, Note_on_c, 1, 33, 69
3, 13676, Note_on_c, 1, 33, 0
3, 13696, Note_on_c, 1, 35, 71
3, 13804, Note_on_c, 1, 35, 0
3, 13832, Note_on_c, 1, 34, 38
3, 14208, Note_on_c, 1, 37, 32
3, 14236, Note_on_c, 1, 34, 0
3, 14452, Note_on_c, 1, 34, 26
3, 14500, Note_on_c, 1, 34, 0
3, 14544, Note_on_c, 1, 37, 0
3, 14572, Note_on_c, 1, 38, 44
3, 14844, Note_on_c, 1, 34, 36
3, 14924, Note_on_c, 1, 38, 0
3, 14928, Note_on_c, 1, 34, 0
3, 14964, Note_on_c, 1, 46, 38
3, 15228, Note_on_c, 1, 38, 29
3, 15260, Note_on_c, 1, 38, 0
3, 15356, Note_on_c, 1, 45, 33
3, 15392, Note_on_c, 1, 46, 0
3, 15464, Note_on_c, 1, 45, 0
3, 15616, Note_on_c, 1, 38, 49
3, 15700, Note_on_c, 1, 38, 0
3, 15748, Note_on_c, 1, 39, 37
3, 16128, Note_on_c, 1, 33, 50
3, 16132, Note_on_c, 1, 39, 0
3, 16512, Note_on_c, 1, 33, 0
3, 16524, Note_on_c, 1, 39, 43
3, 16716, Note_on_c, 1, 39, 0
3, 16764, Note_on_c, 1, 33, 48
3, 16864, Note_on_c, 1, 33, 0
3, 16900, Note_on_c, 1, 32, 51
3, 17292, Note_on_c, 1, 32, 0
3, 17300, Note_on_c, 1, 38, 67
3, 17544, Note_on_c, 1, 32, 36
3, 17608, Note_on_c, 1, 38, 0
3, 17640, Note_on_c, 1, 32, 0
3, 17660, Note_on_c, 1, 44, 53
3, 17928, Note_on_c, 1, 38, 36
3, 17928, Note_on_c, 1, 32, 26
3, 17952, Note_on_c, 1, 38, 0
3, 17956, Note_on_c, 1, 32, 0
3, 18020, Note_on_c, 1, 44, 0
3, 18044, Note_on_c, 1, 50, 55
3, 18156, Note_on_c, 1, 42, 49
3, 18160, Note_on_c, 1, 50, 0
3, 18400, Note_on_c, 1, 42, 0
3, 18424, Note_on_c, 1, 43, 35
3, 18460, Note_on_c, 1, 43, 0
3, 18536, Note_on_c, 1, 38, 44
3, 18772, Note_on_c, 1, 38, 0
3, 18792, Note_on_c, 1, 32, 53
3, 19040, Note_on_c, 1, 31, 66
3, 19068, Note_on_c, 1, 32, 0
3, 19312, Note_on_c, 1, 33, 62
3, 19332, Note_on_c, 1, 31, 0
3, 19384, Note_on_c, 1, 33, 0
3, 19424, Note_on_c, 1, 34, 67
3, 19540, Note_on_c, 1, 34, 0
3, 19568, Note_on_c, 1, 35, 58
3, 19916, Note_on_c, 1, 35, 0
3, 19936, Note_on_c, 1, 36, 58
3, 20324, Note_on_c, 1, 36, 0
3, 20348, Note_on_c, 1, 38, 47
3, 20588, Note_on_c, 1, 38, 0
3, 20600, Note_on_c, 1, 39, 55
3, 20688, Note_on_c, 1, 39, 0
3, 20744, Note_on_c, 1, 40, 35
3, 20820, Note_on_c, 1, 40, 0
3, 20860, Note_on_c, 1, 43, 28
3, 20900, Note_on_c, 1, 43, 0
3, 20980, Note_on_c, 1, 50, 68
3, 21204, Note_on_c, 1, 50, 0
3, 21248, Note_on_c, 1, 48, 64
3, 21320, Note_on_c, 1, 48, 0
3, 21372, Note_on_c, 1, 43, 39
3, 21432, Note_on_c, 1, 43, 0
3, 21524, Note_on_c, 1, 48, 74
3, 21712, Note_on_c, 1, 48, 0
3, 21776, Note_on_c, 1, 43, 59
3, 21832, Note_on_c, 1, 43, 0
3, 21916, Note_on_c, 1, 42, 26
3, 21936, Note_on_c, 1, 42, 0
3, 22148, Note_on_c, 1, 40, 59
3, 22204, Note_on_c, 1, 40, 0
3, 22276, Note_on_c, 1, 41, 44
3, 22324, Note_on_c, 1, 41, 0
3, 22520, Note_on_c, 1, 36, 62
3, 22596, Note_on_c, 1, 36, 0
3, 22640, Note_on_c, 1, 29, 45
3, 22876, Note_on_c, 1, 29, 0
3, 22888, Note_on_c, 1, 33, 48
3, 23008, Note_on_c, 1, 33, 0
3, 23012, Note_on_c, 1, 34, 49
3, 23408, Note_on_c, 1, 36, 56
3, 23428, Note_on_c, 1, 34, 0
3, 23668, Note_on_c, 1, 34, 35
3, 23712, Note_on_c, 1, 34, 0
3, 23720, Note_on_c, 1, 36, 0
3, 23796, Note_on_c, 1, 38, 44
3, 24056, Note_on_c, 1, 36, 39
3, 24108, Note_on_c, 1, 38, 0
3, 24132, Note_on_c, 1, 36, 0
3, 24176, Note_on_c, 1, 43, 41
3, 24528, Note_on_c, 1, 43, 0
3, 24560, Note_on_c, 1, 41, 39
3, 24820, Note_on_c, 1, 38, 33
3, 24868, Note_on_c, 1, 38, 0
3, 24888, Note_on_c, 1, 41, 0
3, 24924, Note_on_c, 1, 48, 51
3, 25164, Note_on_c, 1, 38, 27
3, 25252, Note_on_c, 1, 38, 0
3, 25300, Note_on_c, 1, 48, 0
3, 25300, Note_on_c, 1, 46, 39
3, 25580, Note_on_c, 1, 36, 58
3, 25620, Note_on_c, 1, 36, 0
3, 25732, Note_on_c, 1, 34, 54
3, 25752, Note_on_c, 1, 34, 0
3, 25760, Note_on_c, 1, 46, 0
3, 25976, Note_on_c, 1, 32, 46
3, 26084, Note_on_c, 1, 32, 0
3, 26104, Note_on_c, 1, 33, 36
3, 26348, Note_on_c, 1, 39, 55
3, 26440, Note_on_c, 1, 33, 0
3, 26456, Note_on_c, 1, 39, 0
3, 26492, Note_on_c, 1, 36, 35
3, 26732, Note_on_c, 1, 36, 0
3, 26740, Note_on_c, 1, 37, 49
3, 26840, Note_on_c, 1, 37, 0
3, 26876, Note_on_c, 1, 38, 40
3, 27112, Note_on_c, 1, 38, 0
3, 27140, Note_on_c, 1, 45, 54
3, 27232, Note_on_c, 1, 45, 0
3, 27280, Note_on_c, 1, 42, 33
3, 27528, Note_on_c, 1, 37, 25
3, 27560, Note_on_c, 1, 37, 0
3, 27612, Note_on_c, 1, 42, 0
3, 27640, Note_on_c, 1, 43, 42
3, 27912, Note_on_c, 1, 38, 18
3, 27936, Note_on_c, 1, 38, 0
3, 27980, Note_on_c, 1, 43, 0
3, 28012, Note_on_c, 1, 45, 44
3, 28404, Note_on_c, 1, 46, 53
3, 28408, Note_on_c, 1, 45, 0
3, 28684, Note_on_c, 1, 42, 21
3, 28704, Note_on_c, 1, 42, 0
3, 28768, Note_on_c, 1, 46, 0
3, 28796, Note_on_c, 1, 49, 51
3, 29052, Note_on_c, 1, 44, 50
3, 29104, Note_on_c, 1, 49, 0
3, 29116, Note_on_c, 1, 44, 0
3, 29172, Note_on_c, 1, 45, 74
3, 29516, Note_on_c, 1, 45, 0
3, 29560, Note_on_c, 1, 33, 71
3, 29904, Note_on_c, 1, 33, 0
3, 29936, Note_on_c, 1, 38, 47
3, 30204, Note_on_c, 1, 37, 29
3, 30280, Note_on_c, 1, 37, 0
3, 30316, Note_on_c, 1, 38, 0
3, 30316, Note_on_c, 1, 45, 60
3, 30692, Note_on_c, 1, 45, 0
3, 30700, Note_on_c, 1, 43, 43
3, 30936, Note_on_c, 1, 43, 0
3, 30960, Note_on_c, 1, 32, 60
3, 31080, Note_on_c, 1, 32, 0
3, 31092, Note_on_c, 1, 31, 45
3, 31352, Note_on_c, 1, 32, 48
3, 31432, Note_on_c, 1, 31, 0
3, 31444, Note_on_c, 1, 32, 0
3, 31468, Note_on_c, 1, 46, 52
3, 31700, Note_on_c, 1, 46, 0
3, 31724, Note_on_c, 1, 45, 50
3, 31724, Note_on_c, 1, 32, 27
3, 31764, Note_on_c, 1, 32, 0
3, 31808, Note_on_c, 1, 45, 0
3, 31860, Note_on_c, 1, 43, 26
3, 31880, Note_on_c, 1, 43, 0
3, 31980, Note_on_c, 1, 35, 54
3, 32024, Note_on_c, 1, 35, 0
3, 32108, Note_on_c, 1, 34, 55
3, 32208, Note_on_c, 1, 34, 0
3, 32240, Note_on_c, 1, 33, 51
3, 32624, Note_on_c, 1, 39, 56
3, 32628, Note_on_c, 1, 33, 0
3, 32884, Note_on_c, 1, 33, 48
3, 32920, Note_on_c, 1, 33, 0
3, 32992, Note_on_c, 1, 39, 0
3, 33012, Note_on_c, 1, 38, 38
3, 33280, Note_on_c, 1, 51, 72
3, 33300, Note_on_c, 1, 38, 0
3, 33372, Note_on_c, 1, 51, 0
3, 33416, Note_on_c, 1, 50, 45
3, 33664, Note_on_c, 1, 45, 51
3, 33672, Note_on_c, 1, 50, 0
3, 33692, Note_on_c, 1, 38, 24
3, 33716, Note_on_c, 1, 38, 0
3, 33764, Note_on_c, 1, 45, 0
3, 33804, Note_on_c, 1, 43, 37
3, 34056, Note_on_c, 1, 38, 46
3, 34080, Note_on_c, 1, 38, 0
3, 34148, Note_on_c, 1, 43, 0
3, 34168, Note_on_c, 1, 41, 42
3, 34416, Note_on_c, 1, 34, 40
3, 34436, Note_on_c, 1, 34, 0
3, 34548, Note_on_c, 1, 41, 0
3, 34552, Note_on_c, 1, 38, 47
3, 34812, Note_on_c, 1, 35, 30
3, 34844, Note_on_c, 1, 35, 0
3, 34920, Note_on_c, 1, 38, 0
3, 34948, Note_on_c, 1, 37, 40
3, 35308, Note_on_c, 1, 37, 0
3, 35320, Note_on_c, 1, 36, 54
3, 35612, Note_on_c, 1, 35, 33
3, 35632, Note_on_c, 1, 36, 0
3, 35656, Note_on_c, 1, 35, 0
3, 35692, Note_on_c, 1, 45, 51
3, 35948, Note_on_c, 1, 35, 34
3, 36020, Note_on_c, 1, 35, 0
3, 36076, Note_on_c, 1, 45, 0
3, 36080, Note_on_c, 1, 43, 44
3, 36356, Note_on_c, 1, 35, 44
3, 36416, Note_on_c, 1, 35, 0
3, 36440, Note_on_c, 1, 43, 0
3, 36464, Note_on_c, 1, 42, 46
3, 36812, Note_on_c, 1, 42, 0
3, 36828, Note_on_c, 1, 41, 41
3, 37096, Note_on_c, 1, 36, 67
3, 37160, Note_on_c, 1, 41, 0
3, 37176, Note_on_c, 1, 36, 0
3, 37224, Note_on_c, 1, 35, 51
3, 37600, Note_on_c, 1, 47, 80
3, 37652, Note_on_c, 1, 35, 0
3, 38140, Note_on_c, 1, 47, 0
3, 38256, Note_on_c, 1, 35, 49
3, 38368, Note_on_c, 1, 35, 0
3, 38384, Note_on_c, 1, 34, 39
3, 38760, Note_on_c, 1, 36, 57
3, 38764, Note_on_c, 1, 34, 0
3, 39024, Note_on_c, 1, 34, 32
3, 39092, Note_on_c, 1, 36, 0
3, 39148, Note_on_c, 1, 38, 39
3, 39176, Note_on_c, 1, 34, 0
3, 39532, Note_on_c, 1, 45, 51
3, 39568, Note_on_c, 1, 38, 0
3, 39804, Note_on_c, 1, 38, 45
3, 39832, Note_on_c, 1, 38, 0
3, 39936, Note_on_c, 1, 39, 59
3, 39952, Note_on_c, 1, 45, 0
3, 40276, Note_on_c, 1, 39, 0
3, 40324, Note_on_c, 1, 34, 63
3, 40680, Note_on_c, 1, 34, 0
3, 40696, Note_on_c, 1, 33, 48
3, 41080, Note_on_c, 1, 39, 31
3, 41088, Note_on_c, 1, 33, 0
3, 41332, Note_on_c, 1, 33, 46
3, 41400, Note_on_c, 1, 39, 0
3, 41420, Note_on_c, 1, 33, 0
3, 41440, Note_on_c, 1, 32, 42
3, 41832, Note_on_c, 1, 32, 0
3, 41844, Note_on_c, 1, 38, 48
3, 42088, Note_on_c, 1, 32, 31
3, 42200, Note_on_c, 1, 32, 0
3, 42216, Note_on_c, 1, 50, 55
3, 42248, Note_on_c, 1, 38, 0
3, 42508, Note_on_c, 1, 37, 31
3, 42556, Note_on_c, 1, 37, 0
3, 42600, Note_on_c, 1, 50, 0
3, 42632, Note_on_c, 1, 44, 36
3, 42888, Note_on_c, 1, 43, 49
3, 42920, Note_on_c, 1, 44, 0
3, 43124, Note_on_c, 1, 43, 0
3, 43132, Note_on_c, 1, 38, 47
3, 43188, Note_on_c, 1, 38, 0
3, 43244, Note_on_c, 1, 32, 51
3, 43356, Note_on_c, 1, 32, 0
3, 43372, Note_on_c, 1, 31, 55
3, 43740, Note_on_c, 1, 31, 0
3, 43748, Note_on_c, 1, 33, 52
3, 43868, Note_on_c, 1, 34, 62
3, 43876, Note_on_c, 1, 33, 0
3, 44120, Note_on_c, 1, 34, 0
3, 44144, Note_on_c, 1, 35, 53
3, 44500, Note_on_c, 1, 35, 0
3, 44524, Note_on_c, 1, 36, 36
3, 44916, Note_on_c, 1, 38, 43
3, 44936, Note_on_c, 1, 36, 0
3, 45292, Note_on_c, 1, 39, 52
3, 45304, Note_on_c, 1, 38, 0
3, 45540, Note_on_c, 1, 34, 27
3, 45616, Note_on_c, 1, 34, 0
3, 45668, Note_on_c, 1, 39, 0
3, 45680, Note_on_c, 1, 40, 38
3, 45936, Note_on_c, 1, 34, 36
3, 45992, Note_on_c, 1, 34, 0
3, 46052, Note_on_c, 1, 40, 0
3, 46068, Note_on_c, 1, 41, 48
3, 46320, Note_on_c, 1, 41, 0
3, 46336, Note_on_c, 1, 48, 66
3, 46476, Note_on_c, 1, 48, 0
3, 46484, Note_on_c, 1, 42, 47
3, 46740, Note_on_c, 1, 36, 36
3, 46772, Note_on_c, 1, 36, 0
3, 46844, Note_on_c, 1, 42, 0
3, 46848, Note_on_c, 1, 41, 48
3, 47104, Note_on_c, 1, 36, 54
3, 47152, Note_on_c, 1, 41, 0
3, 47164, Note_on_c, 1, 36, 0
3, 47216, Note_on_c, 1, 33, 50
3, 47596, Note_on_c, 1, 33, 0
3, 47612, Note_on_c, 1, 34, 44
3, 47872, Note_on_c, 1, 43, 76
3, 47956, Note_on_c, 1, 43, 0
3, 48008, Note_on_c, 1, 42, 39
3, 48032, Note_on_c, 1, 34, 0
3, 48252, Note_on_c, 1, 34, 25
3, 48280, Note_on_c, 1, 34, 0
3, 48380, Note_on_c, 1, 42, 0
3, 48380, Note_on_c, 1, 41, 55
3, 48648, Note_on_c, 1, 36, 37
3, 48672, Note_on_c, 1, 36, 0
3, 48732, Note_on_c, 1, 41, 0
3, 48756, Note_on_c, 1, 29, 53
3, 49400, Note_on_c, 1, 41, 69
3, 49452, Note_on_c, 1, 29, 0
3, 49476, Note_on_c, 1, 41, 0
3, 49524, Note_on_c, 1, 29, 66
3, 50184, Note_on_c, 1, 41, 80
3, 50232, Note_on_c, 1, 41, 0
3, 50296, Note_on_c, 1, 29, 0
3, 50324, Note_on_c, 1, 29, 34
3, 50556, Note_on_c, 1, 29, 0
3, 50560, Note_on_c, 1, 33, 61
3, 50684, Note_on_c, 1, 33, 0
3, 50696, Note_on_c, 1, 34, 49
3, 50896, Note_on_c, 1, 34, 0
3, 50932, Note_on_c, 1, 34, 57
3, 51064, Note_on_c, 1, 36, 48
3, 51068, Note_on_c, 1, 34, 0
3, 51372, Note_on_c, 1, 34, 21
3, 51428, Note_on_c, 1, 36, 0
3, 51448, Note_on_c, 1, 38, 47
3, 51472, Note_on_c, 1, 34, 0
3, 51712, Note_on_c, 1, 34, 29
3, 51808, Note_on_c, 1, 38, 0
3, 51820, Note_on_c, 1, 34, 0
3, 51832, Note_on_c, 1, 43, 49
3, 52112, Note_on_c, 1, 38, 28
3, 52140, Note_on_c, 1, 38, 0
3, 52188, Note_on_c, 1, 43, 0
3, 52216, Note_on_c, 1, 46, 36
3, 52584, Note_on_c, 1, 46, 0
3, 52588, Note_on_c, 1, 45, 41
3, 52960, Note_on_c, 1, 39, 38
3, 52972, Note_on_c, 1, 45, 0
3, 53324, Note_on_c, 1, 39, 0
3, 53344, Note_on_c, 1, 34, 42
3, 53436, Note_on_c, 1, 34, 0
3, 53616, Note_on_c, 1, 33, 28
3, 53728, Note_on_c, 1, 33, 0
3, 53736, Note_on_c, 1, 32, 39
3, 54128, Note_on_c, 1, 38, 48
3, 54140, Note_on_c, 1, 32, 0
3, 54396, Note_on_c, 1, 32, 25
3, 54448, Note_on_c, 1, 38, 0
3, 54508, Note_on_c, 1, 32, 0
3, 54508, Note_on_c, 1, 44, 38
3, 54764, Note_on_c, 1, 32, 32
3, 54852, Note_on_c, 1, 32, 0
3, 54900, Note_on_c, 1, 50, 44
3, 54908, Note_on_c, 1, 44, 0
3, 55152, Note_on_c, 1, 32, 35
3, 55192, Note_on_c, 1, 32, 0
3, 55260, Note_on_c, 1, 50, 0
3, 55288, Note_on_c, 1, 43, 49
3, 55548, Note_on_c, 1, 37, 48
3, 55572, Note_on_c, 1, 43, 0
3, 55656, Note_on_c, 1, 37, 0
3, 55672, Note_on_c, 1, 31, 51
3, 55956, Note_on_c, 1, 34, 25
3, 56028, Note_on_c, 1, 34, 0
3, 56048, Note_on_c, 1, 31, 0
3, 56068, Note_on_c, 1, 38, 51
3, 56092, Note_on_c, 1, 38, 0
3, 56304, Note_on_c, 1, 37, 73
3, 56576, Note_on_c, 1, 37, 0
3, 56600, Note_on_c, 1, 34, 53
3, 56688, Note_on_c, 1, 34, 0
3, 56704, Note_on_c, 1, 35, 62
3, 56824, Note_on_c, 1, 35, 0
3, 56840, Note_on_c, 1, 36, 54
3, 57124, Note_on_c, 1, 35, 34
3, 57172, Note_on_c, 1, 36, 0
3, 57188, Note_on_c, 1, 35, 0
3, 57208, Note_on_c, 1, 38, 51
3, 57464, Note_on_c, 1, 39, 55
3, 57468, Note_on_c, 1, 38, 0
3, 57564, Note_on_c, 1, 39, 0
3, 57596, Note_on_c, 1, 40, 43
3, 57848, Note_on_c, 1, 35, 39
3, 57888, Note_on_c, 1, 35, 0
3, 57956, Note_on_c, 1, 40, 0
3, 57976, Note_on_c, 1, 50, 53
3, 58336, Note_on_c, 1, 50, 0
3, 58372, Note_on_c, 1, 48, 54
3, 58740, Note_on_c, 1, 43, 34
3, 58748, Note_on_c, 1, 48, 0
3, 58980, Note_on_c, 1, 36, 28
3, 59012, Note_on_c, 1, 36, 0
3, 59104, Note_on_c, 1, 40, 42
3, 59112, Note_on_c, 1, 43, 0
3, 59364, Note_on_c, 1, 34, 57
3, 59440, Note_on_c, 1, 40, 0
3, 59444, Note_on_c, 1, 34, 0
3, 59488, Note_on_c, 1, 35, 51
3, 59744, Note_on_c, 1, 34, 29
3, 59820, Note_on_c, 1, 35, 0
3, 59848, Note_on_c, 1, 34, 0
3, 59876, Note_on_c, 1, 36, 43
3, 60164, Note_on_c, 1, 43, 64
3, 60248, Note_on_c, 1, 43, 0
3, 60292, Note_on_c, 1, 36, 0
3, 60296, Note_on_c, 1, 42, 30
3, 60548, Note_on_c, 1, 34, 38
3, 60604, Note_on_c, 1, 42, 0
3, 60628, Note_on_c, 1, 34, 0
3, 60676, Note_on_c, 1, 39, 34
3, 60912, Note_on_c, 1, 34, 28
3, 60956, Note_on_c, 1, 34, 0
3, 60988, Note_on_c, 1, 39, 0
3, 61008, Note_on_c, 1, 40, 41
3, 61280, Note_on_c, 1, 41, 58
3, 61284, Note_on_c, 1, 40, 0
3, 61524, Note_on_c, 1, 36, 44
3, 61568, Note_on_c, 1, 36, 0
3, 61628, Note_on_c, 1, 41, 0
3, 61640, Note_on_c, 1, 30, 38
3, 61748, Note_on_c, 1, 30, 0
3, 61776, Note_on_c, 1, 29, 45
3, 62112, Note_on_c, 1, 36, 24
3, 62152, Note_on_c, 1, 36, 0
3, 62172, Note_on_c, 1, 29, 0
3, 62200, Note_on_c, 1, 41, 62
3, 62280, Note_on_c, 1, 41, 0
3, 62448, Note_on_c, 1, 35, 75
3, 62972, Note_on_c, 1, 35, 0
3, 62980, Note_on_c, 1, 34, 46
3, 63348, Note_on_c, 1, 34, 0
3, 63348, Note_on_c, 1, 36, 57
3, 63620, Note_on_c, 1, 34, 21
3, 63700, Note_on_c, 1, 36, 0
3, 63732, Note_on_c, 1, 38, 38
3, 63744, Note_on_c, 1, 34, 0
3, 64084, Note_on_c, 1, 38, 0
3, 64088, Note_on_c, 1, 34, 56
3, 64376, Note_on_c, 1, 38, 36
3, 64400, Note_on_c, 1, 38, 0
3, 64492, Note_on_c, 1, 39, 45
3, 64544, Note_on_c, 1, 34, 0
3, 64888, Note_on_c, 1, 33, 53
3, 64896, Note_on_c, 1, 39, 0
3, 65272, Note_on_c, 1, 45, 43
3, 65284, Note_on_c, 1, 33, 0
3, 65532, Note_on_c, 1, 33, 46
3, 65596, Note_on_c, 1, 33, 0
3, 65652, Note_on_c, 1, 39, 37
3, 65668, Note_on_c, 1, 45, 0
3, 65920, Note_on_c, 1, 33, 40
3, 65960, Note_on_c, 1, 33, 0
3, 66040, Note_on_c, 1, 32, 38
3, 66152, Note_on_c, 1, 39, 0
3, 66416, Note_on_c, 1, 38, 42
3, 66444, Note_on_c, 1, 32, 0
3, 66676, Note_on_c, 1, 32, 31
3, 66744, Note_on_c, 1, 32, 0
3, 66812, Note_on_c, 1, 50, 48
3, 66816, Note_on_c, 1, 38, 0
3, 67060, Note_on_c, 1, 32, 33
3, 67108, Note_on_c, 1, 32, 0
3, 67168, Note_on_c, 1, 50, 0
3, 67184, Note_on_c, 1, 44, 44
3, 67436, Note_on_c, 1, 44, 0
3, 67436, Note_on_c, 1, 43, 51
3, 67684, Note_on_c, 1, 38, 51
3, 67880, Note_on_c, 1, 38, 0
3, 67900, Note_on_c, 1, 43, 0
3, 67928, Note_on_c, 1, 32, 63
3, 68164, Note_on_c, 1, 32, 0
3, 68184, Note_on_c, 1, 31, 66
3, 68440, Note_on_c, 1, 33, 50
3, 68448, Note_on_c, 1, 31, 0
3, 68524, Note_on_c, 1, 33, 0
3, 68556, Note_on_c, 1, 34, 59
3, 68672, Note_on_c, 1, 34, 0
3, 68688, Note_on_c, 1, 35, 62
3, 68964, Note_on_c, 1, 34, 26
3, 69000, Note_on_c, 1, 35, 0
3, 69080, Note_on_c, 1, 34, 0
3, 69088, Note_on_c, 1, 36, 40
3, 69372, Note_on_c, 1, 34, 25
3, 69440, Note_on_c, 1, 36, 0
3, 69468, Note_on_c, 1, 38, 47
3, 69504, Note_on_c, 1, 34, 0
3, 69740, Note_on_c, 1, 34, 33
3, 69812, Note_on_c, 1, 38, 0
3, 69824, Note_on_c, 1, 34, 0
3, 69840, Note_on_c, 1, 40, 36
3, 70100, Note_on_c, 1, 40, 0
3, 70128, Note_on_c, 1, 36, 29
3, 70128, Note_on_c, 1, 45, 55
3, 70164, Note_on_c, 1, 36, 0
3, 70228, Note_on_c, 1, 45, 0
3, 70256, Note_on_c, 1, 43, 48
3, 70504, Note_on_c, 1, 43, 0
3, 70512, Note_on_c, 1, 36, 45
3, 70520, Note_on_c, 1, 50, 73
3, 70556, Note_on_c, 1, 36, 0
3, 70612, Note_on_c, 1, 50, 0
3, 70652, Note_on_c, 1, 48, 45
3, 70888, Note_on_c, 1, 48, 0
3, 70900, Note_on_c, 1, 43, 44
3, 70940, Note_on_c, 1, 38, 34
3, 70984, Note_on_c, 1, 38, 0
3, 71024, Note_on_c, 1, 43, 0
3, 71028, Note_on_c, 1, 42, 49
3, 71304, Note_on_c, 1, 36, 36
3, 71336, Note_on_c, 1, 36, 0
3, 71392, Note_on_c, 1, 42, 0
3, 71424, Note_on_c, 1, 41, 34
3, 71480, Note_on_c, 1, 41, 0
3, 71540, Note_on_c, 1, 36, 53
3, 71592, Note_on_c, 1, 36, 0
3, 71648, Note_on_c, 1, 30, 48
3, 71772, Note_on_c, 1, 30, 0
3, 71796, Note_on_c, 1, 29, 44
3, 71904, Note_on_c, 1, 31, 62
3, 71924, Note_on_c, 1, 29, 0
3, 72012, Note_on_c, 1, 31, 0
3, 72032, Note_on_c, 1, 33, 69
3, 72148, Note_on_c, 1, 33, 0
3, 72180, Note_on_c, 1, 34, 56
3, 72468, Note_on_c, 1, 33, 43
3, 72544, Note_on_c, 1, 33, 0
3, 72544, Note_on_c, 1, 34, 0
3, 72556, Note_on_c, 1, 36, 49
3, 72828, Note_on_c, 1, 33, 41
3, 72860, Note_on_c, 1, 33, 0
3, 72912, Note_on_c, 1, 36, 0
3, 72932, Note_on_c, 1, 38, 48
3, 73192, Note_on_c, 1, 38, 0
3, 73208, Note_on_c, 1, 43, 55
3, 73316, Note_on_c, 1, 43, 0
3, 73324, Note_on_c, 1, 41, 35
3, 73692, Note_on_c, 1, 41, 0
3, 73708, Note_on_c, 1, 50, 73
3, 74056, Note_on_c, 1, 50, 0
3, 74100, Note_on_c, 1, 48, 59
3, 74464, Note_on_c, 1, 48, 0
3, 74480, Note_on_c, 1, 46, 39
3, 74732, Note_on_c, 1, 46, 0
3, 74736, Note_on_c, 1, 43, 36
3, 74828, Note_on_c, 1, 43, 0
3, 74860, Note_on_c, 1, 44, 46
3, 75220, Note_on_c, 1, 44, 0
3, 75248, Note_on_c, 1, 45, 38
3, 75336, Note_on_c, 1, 45, 0
3, 75360, Note_on_c, 1, 50, 57
3, 75392, Note_on_c, 1, 50, 0
3, 75520, Note_on_c, 1, 38, 73
3, 76168, Note_on_c, 1, 50, 37
3, 76220, Note_on_c, 1, 50, 0
3, 76268, Note_on_c, 1, 49, 34
3, 76336, Note_on_c, 1, 49, 0
3, 76392, Note_on_c, 1, 50, 54
3, 76564, Note_on_c, 1, 38, 0
3, 76652, Note_on_c, 1, 38, 87
3, 76676, Note_on_c, 1, 50, 0
3, 77456, Note_on_c, 1, 37, 33
3, 77500, Note_on_c, 1, 37, 0
3, 77592, Note_on_c, 1, 50, 67
3, 77676, Note_on_c, 1, 50, 0
3, 77704, Note_on_c, 1, 49, 29
3, 77744, Note_on_c, 1, 49, 0
3, 77828, Note_on_c, 1, 50, 63
3, 77972, Note_on_c, 1, 38, 0
3, 78084, Note_on_c, 1, 38, 58
3, 78112, Note_on_c, 1, 50, 0
3, 78160, Note_on_c, 1, 38, 0
3, 78192, Note_on_c, 1, 37, 47
3, 78300, Note_on_c, 1, 37, 0
3, 78304, Note_on_c, 1, 38, 64
3, 78960, Note_on_c, 1, 49, 30
3, 79020, Note_on_c, 1, 49, 0
3, 79084, Note_on_c, 1, 50, 62
3, 79164, Note_on_c, 1, 50, 0
3, 79204, Note_on_c, 1, 49, 18
3, 79240, Note_on_c, 1, 49, 0
3, 79320, Note_on_c, 1, 50, 55
3, 79624, Note_on_c, 1, 38, 0
3, 79672, Note_on_c, 1, 37, 45
3, 79704, Note_on_c, 1, 50, 0
3, 79784, Note_on_c, 1, 37, 0
3, 79856, Note_on_c, 1, 38, 59
3, 80132, Note_on_c, 1, 50, 58
3, 80404, Note_on_c, 1, 50, 0
3, 80444, Note_on_c, 1, 50, 57
3, 80512, Note_on_c, 1, 50, 0
3, 80532, Note_on_c, 1, 49, 29
3, 80588, Note_on_c, 1, 49, 0
3, 80648, Note_on_c, 1, 50, 55
3, 80720, Note_on_c, 1, 50, 0
3, 80876, Note_on_c, 1, 50, 72
3, 80992, Note_on_c, 1, 38, 0
3, 81144, Note_on_c, 1, 38, 55
3, 81184, Note_on_c, 1, 50, 0
3, 81200, Note_on_c, 1, 38, 0
3, 81248, Note_on_c, 1, 37, 58
3, 81352, Note_on_c, 1, 37, 0
3, 81380, Note_on_c, 1, 38, 62
3, 81680, Note_on_c, 1, 50, 91
3, 82016, Note_on_c, 1, 50, 0
3, 82040, Note_on_c, 1, 49, 40
3, 82096, Note_on_c, 1, 49, 0
3, 82164, Note_on_c, 1, 50, 58
3, 82192, Note_on_c, 1, 38, 0
3, 82428, Note_on_c, 1, 38, 62
3, 82484, Note_on_c, 1, 50, 0
3, 82508, Note_on_c, 1, 38, 0
3, 82556, Note_on_c, 1, 37, 34
3, 82844, Note_on_c, 1, 34, 37
3, 82888, Note_on_c, 1, 34, 0
3, 82892, Note_on_c, 1, 37, 0
3, 82948, Note_on_c, 1, 38, 51
3, 83200, Note_on_c, 1, 50, 72
3, 83268, Note_on_c, 1, 50, 0
3, 83332, Note_on_c, 1, 49, 21
3, 83556, Note_on_c, 1, 49, 0
3, 83588, Note_on_c, 1, 50, 62
3, 83676, Note_on_c, 1, 38, 0
3, 83968, Note_on_c, 1, 38, 53
3, 84036, Note_on_c, 1, 38, 0
3, 84088, Note_on_c, 1, 37, 37
3, 84228, Note_on_c, 1, 50, 0
3, 84296, Note_on_c, 1, 37, 0
3, 84372, Note_on_c, 1, 35, 59
3, 84460, Note_on_c, 1, 35, 0
3, 84492, Note_on_c, 1, 36, 43
3, 84760, Note_on_c, 1, 36, 0
3, 84760, Note_on_c, 1, 35, 36
3, 84848, Note_on_c, 1, 38, 51
3, 84880, Note_on_c, 1, 35, 0
3, 85112, Note_on_c, 1, 35, 34
3, 85184, Note_on_c, 1, 35, 0
3, 85184, Note_on_c, 1, 38, 0
3, 85228, Note_on_c, 1, 39, 37
3, 85512, Note_on_c, 1, 35, 36
3, 85592, Note_on_c, 1, 35, 0
3, 85592, Note_on_c, 1, 39, 0
3, 85612, Note_on_c, 1, 40, 31
3, 85868, Note_on_c, 1, 40, 0
3, 85876, Note_on_c, 1, 41, 62
3, 86140, Note_on_c, 1, 36, 60
3, 86204, Note_on_c, 1, 36, 0
3, 86264, Note_on_c, 1, 32, 49
3, 86332, Note_on_c, 1, 32, 0
3, 86356, Note_on_c, 1, 41, 0
3, 86368, Note_on_c, 1, 33, 62
3, 86740, Note_on_c, 1, 33, 0
3, 86760, Note_on_c, 1, 34, 39
3, 86896, Note_on_c, 1, 34, 0
3, 87012, Note_on_c, 1, 35, 58
3, 87128, Note_on_c, 1, 35, 0
3, 87144, Note_on_c, 1, 36, 57
3, 87396, Note_on_c, 1, 36, 0
3, 87408, Note_on_c, 1, 33, 44
3, 87520, Note_on_c, 1, 33, 0
3, 87544, Note_on_c, 1, 34, 37
3, 87808, Note_on_c, 1, 50, 60
3, 87896, Note_on_c, 1, 50, 0
3, 87936, Note_on_c, 1, 48, 48
3, 87944, Note_on_c, 1, 34, 0
3, 88200, Note_on_c, 1, 34, 32
3, 88256, Note_on_c, 1, 34, 0
3, 88316, Note_on_c, 1, 48, 0
3, 88328, Note_on_c, 1, 46, 44
3, 88580, Note_on_c, 1, 38, 28
3, 88608, Note_on_c, 1, 38, 0
3, 88696, Note_on_c, 1, 40, 54
3, 89008, Note_on_c, 1, 46, 0
3, 89072, Note_on_c, 1, 40, 0
3, 89092, Note_on_c, 1, 39, 40
3, 89480, Note_on_c, 1, 45, 46
3, 89488, Note_on_c, 1, 39, 0
3, 89720, Note_on_c, 1, 39, 35
3, 89780, Note_on_c, 1, 39, 0
3, 89820, Note_on_c, 1, 45, 0
3, 89832, Note_on_c, 1, 33, 51
3, 90124, Note_on_c, 1, 34, 29
3, 90208, Note_on_c, 1, 34, 0
3, 90228, Note_on_c, 1, 39, 43
3, 90244, Note_on_c, 1, 33, 0
3, 90492, Note_on_c, 1, 33, 43
3, 90576, Note_on_c, 1, 33, 0
3, 90620, Note_on_c, 1, 39, 0
3, 90624, Note_on_c, 1, 38, 44
3, 90888, Note_on_c, 1, 32, 23
3, 90932, Note_on_c, 1, 32, 0
3, 91004, Note_on_c, 1, 50, 59
3, 91016, Note_on_c, 1, 38, 0
3, 91280, Note_on_c, 1, 32, 23
3, 91304, Note_on_c, 1, 32, 0
3, 91384, Note_on_c, 1, 50, 0
3, 91388, Note_on_c, 1, 44, 50
3, 91652, Note_on_c, 1, 32, 37
3, 91700, Note_on_c, 1, 32, 0
3, 91740, Note_on_c, 1, 44, 0
3, 91768, Note_on_c, 1, 42, 43
3, 91992, Note_on_c, 1, 42, 0
3, 92020, Note_on_c, 1, 43, 54
3, 92332, Note_on_c, 1, 38, 71
3, 92488, Note_on_c, 1, 43, 0
3, 92508, Note_on_c, 1, 38, 0
3, 92548, Note_on_c, 1, 32, 61
3, 92784, Note_on_c, 1, 31, 68
3, 92804, Note_on_c, 1, 32, 0
3, 93032, Note_on_c, 1, 31, 0
3, 93036, Note_on_c, 1, 33, 48
3, 93116, Note_on_c, 1, 33, 0
3, 93152, Note_on_c, 1, 34, 51
3, 93264, Note_on_c, 1, 34, 0
3, 93284, Note_on_c, 1, 35, 52
3, 93540, Note_on_c, 1, 34, 37
3, 93572, Note_on_c, 1, 35, 0
3, 93624, Note_on_c, 1, 34, 0
3, 93660, Note_on_c, 1, 36, 54
3, 93972, Note_on_c, 1, 34, 20
3, 94020, Note_on_c, 1, 36, 0
3, 94052, Note_on_c, 1, 34, 0
3, 94056, Note_on_c, 1, 38, 53
3, 94304, Note_on_c, 1, 34, 34
3, 94376, Note_on_c, 1, 34, 0
3, 94408, Note_on_c, 1, 38, 0
3, 94428, Note_on_c, 1, 40, 52
3, 94684, Note_on_c, 1, 36, 45
3, 94740, Note_on_c, 1, 36, 0
3, 94788, Note_on_c, 1, 40, 0
3, 94808, Note_on_c, 1, 43, 53
3, 95076, Note_on_c, 1, 36, 37
3, 95104, Note_on_c, 1, 36, 0
3, 95196, Note_on_c, 1, 39, 47
3, 95204, Note_on_c, 1, 43, 0
3, 95480, Note_on_c, 1, 32, 40
3, 95516, Note_on_c, 1, 32, 0
3, 95592, Note_on_c, 1, 36, 45
3, 95836, Note_on_c, 1, 32, 38
3, 95880, Note_on_c, 1, 32, 0
3, 95916, Note_on_c, 1, 36, 0
3, 95948, Note_on_c, 1, 39, 0
3, 95968, Note_on_c, 1, 41, 50
3, 96232, Note_on_c, 1, 32, 56
3, 96312, Note_on_c, 1, 32, 0
3, 96348, Note_on_c, 1, 41, 0
3, 96364, Note_on_c, 1, 33, 52
3, 96716, Note_on_c, 1, 33, 0
3, 96740, Note_on_c, 1, 34, 39
3, 96872, Note_on_c, 1, 41, 48
3, 96960, Note_on_c, 1, 41, 0
3, 97136, Note_on_c, 1, 41, 57
3, 97356, Note_on_c, 1, 41, 0
3, 97392, Note_on_c, 1, 29, 64
3, 97404, Note_on_c, 1, 34, 0
3, 97660, Note_on_c, 1, 41, 55
3, 97688, Note_on_c, 1, 41, 0
3, 97932, Note_on_c, 1, 41, 56
3, 98136, Note_on_c, 1, 29, 0
3, 98172, Note_on_c, 1, 41, 0
3, 98172, Note_on_c, 1, 33, 56
3, 98272, Note_on_c, 1, 33, 0
3, 98300, Note_on_c, 1, 34, 47
3, 98416, Note_on_c, 1, 41, 55
3, 98480, Note_on_c, 1, 41, 0
3, 98680, Note_on_c, 1, 41, 59
3, 98844, Note_on_c, 1, 41, 0
3, 98916, Note_on_c, 1, 34, 0
3, 98924, Note_on_c, 1, 29, 67
3, 99008, Note_on_c, 1, 29, 0
3, 99052, Note_on_c, 1, 32, 61
3, 99248, Note_on_c, 1, 32, 0
3, 99304, Note_on_c, 1, 32, 59
3, 99408, Note_on_c, 1, 32, 0
3, 99440, Note_on_c, 1, 33, 58
3, 99660, Note_on_c, 1, 33, 0
3, 99696, Note_on_c, 1, 33, 58
3, 99824, Note_on_c, 1, 33, 0
3, 99844, Note_on_c, 1, 34, 50
3, 100056, Note_on_c, 1, 34, 0
3, 100084, Note_on_c, 1, 34, 74
3, 100228, Note_on_c, 1, 36, 49
3, 100244, Note_on_c, 1, 34, 0
3, 100520, Note_on_c, 1, 34, 19
3, 100560, Note_on_c, 1, 36, 0
3, 100608, Note_on_c, 1, 34, 0
3, 100616, Note_on_c, 1, 38, 48
3, 100860, Note_on_c, 1, 34, 46
3, 100984, Note_on_c, 1, 34, 0
3, 100984, Note_on_c, 1, 38, 0
3, 100984, Note_on_c, 1, 43, 62
3, 101232, Note_on_c, 1, 34, 35
3, 101280, Note_on_c, 1, 34, 0
3, 101344, Note_on_c, 1, 43, 0
3, 101356, Note_on_c, 1, 39, 55
3, 101616, Note_on_c, 1, 34, 29
3, 101692, Note_on_c, 1, 34, 0
3, 101736, Note_on_c, 1, 39, 0
3, 101740, Note_on_c, 1, 46, 53
3, 102000, Note_on_c, 1, 34, 28
3, 102048, Note_on_c, 1, 34, 0
3, 102084, Note_on_c, 1, 46, 0
3, 102128, Note_on_c, 1, 45, 50
3, 102508, Note_on_c, 1, 33, 58
3, 102528, Note_on_c, 1, 45, 0
3, 102884, Note_on_c, 1, 33, 0
3, 102892, Note_on_c, 1, 32, 60
3, 103272, Note_on_c, 1, 38, 54
3, 103312, Note_on_c, 1, 32, 0
3, 103532, Note_on_c, 1, 32, 38
3, 103580, Note_on_c, 1, 32, 0
3, 103668, Note_on_c, 1, 50, 49
3, 103724, Note_on_c, 1, 38, 0
3, 103940, Note_on_c, 1, 32, 37
3, 104012, Note_on_c, 1, 32, 0
3, 104052, Note_on_c, 1, 50, 0
3, 104052, Note_on_c, 1, 44, 43
3, 104436, Note_on_c, 1, 44, 0
3, 104448, Note_on_c, 1, 43, 39
3, 104472, Note_on_c, 1, 43, 0
3, 104560, Note_on_c, 1, 38, 51
3, 104784, Note_on_c, 1, 38, 0
3, 104816, Note_on_c, 1, 32, 54
3, 105036, Note_on_c, 1, 32, 0
3, 105056, Note_on_c, 1, 31, 61
3, 105328, Note_on_c, 1, 45, 53
3, 105412, Note_on_c, 1, 45, 0
3, 105440, Note_on_c, 1, 46, 38
3, 105488, Note_on_c, 1, 46, 0
3, 105568, Note_on_c, 1, 47, 36
3, 105628, Note_on_c, 1, 47, 0
3, 105676, Note_on_c, 1, 31, 0
3, 105684, Note_on_c, 1, 34, 39
3, 105784, Note_on_c, 1, 34, 0
3, 105812, Note_on_c, 1, 35, 54
3, 105948, Note_on_c, 1, 35, 0
3, 105960, Note_on_c, 1, 36, 45
3, 106260, Note_on_c, 1, 35, 35
3, 106268, Note_on_c, 1, 36, 0
3, 106316, Note_on_c, 1, 35, 0
3, 106344, Note_on_c, 1, 38, 44
3, 106604, Note_on_c, 1, 35, 32
3, 106644, Note_on_c, 1, 35, 0
3, 106728, Note_on_c, 1, 38, 0
3, 106736, Note_on_c, 1, 40, 49
3, 107016, Note_on_c, 1, 35, 29
3, 107048, Note_on_c, 1, 40, 0
3, 107068, Note_on_c, 1, 35, 0
3, 107112, Note_on_c, 1, 45, 57
3, 107372, Note_on_c, 1, 35, 30
3, 107452, Note_on_c, 1, 35, 0
3, 107476, Note_on_c, 1, 45, 0
3, 107528, Note_on_c, 1, 43, 25
3, 107752, Note_on_c, 1, 43, 0
3, 107776, Note_on_c, 1, 50, 81
3, 107872, Note_on_c, 1, 50, 0
3, 107920, Note_on_c, 1, 48, 54
3, 108160, Note_on_c, 1, 35, 45
3, 108200, Note_on_c, 1, 35, 0
3, 108244, Note_on_c, 1, 48, 0
3, 108268, Note_on_c, 1, 43, 30
3, 108516, Note_on_c, 1, 35, 41
3, 108628, Note_on_c, 1, 35, 0
3, 108648, Note_on_c, 1, 43, 0
3, 108660, Note_on_c, 1, 39, 45
3, 108732, Note_on_c, 1, 39, 0
3, 108776, Note_on_c, 1, 40, 38
3, 109004, Note_on_c, 1, 40, 0
3, 109044, Note_on_c, 1, 41, 44
3, 109124, Note_on_c, 1, 41, 0
3, 109160, Note_on_c, 1, 36, 60
3, 109304, Note_on_c, 1, 36, 0
3, 109416, Note_on_c, 1, 29, 45
3, 109680, Note_on_c, 1, 41, 68
3, 110128, Note_on_c, 1, 29, 0
3, 110228, Note_on_c, 1, 29, 60
3, 110424, Note_on_c, 1, 29, 0
3, 110464, Note_on_c, 1, 29, 68
3, 110476, Note_on_c, 1, 41, 0
3, 110852, Note_on_c, 1, 36, 45
3, 110880, Note_on_c, 1, 36, 0
3, 110976, Note_on_c, 1, 41, 38
3, 111024, Note_on_c, 1, 29, 0
3, 111032, Note_on_c, 1, 41, 0
3, 111224, Note_on_c, 1, 43, 77
3, 111308, Note_on_c, 1, 43, 0
3, 111348, Note_on_c, 1, 41, 44
3, 111512, Note_on_c, 1, 41, 0
3, 111600, Note_on_c, 1, 32, 56
3, 111680, Note_on_c, 1, 32, 0
3, 111716, Note_on_c, 1, 33, 50
3, 111936, Note_on_c, 1, 33, 0
3, 111976, Note_on_c, 1, 34, 74
3, 112080, Note_on_c, 1, 34, 0
3, 112112, Note_on_c, 1, 33, 53
3, 112368, Note_on_c, 1, 46, 70
3, 112392, Note_on_c, 1, 33, 0
3, 112444, Note_on_c, 1, 46, 0
3, 112748, Note_on_c, 1, 47, 84
3, 112840, Note_on_c, 1, 47, 0
3, 112880, Note_on_c, 1, 46, 39
3, 113140, Note_on_c, 1, 34, 35
3, 113184, Note_on_c, 1, 34, 0
3, 113232, Note_on_c, 1, 46, 0
3, 113248, Note_on_c, 1, 38, 35
3, 113508, Note_on_c, 1, 33, 36
3, 113544, Note_on_c, 1, 33, 0
3, 113600, Note_on_c, 1, 38, 0
3, 113640, Note_on_c, 1, 39, 36
3, 113704, Note_on_c, 1, 39, 0
3, 113892, Note_on_c, 1, 34, 58
3, 113984, Note_on_c, 1, 34, 0
3, 114012, Note_on_c, 1, 33, 43
3, 114276, Note_on_c, 1, 34, 31
3, 114348, Note_on_c, 1, 33, 0
3, 114388, Note_on_c, 1, 34, 0
3, 114404, Note_on_c, 1, 45, 50
3, 114808, Note_on_c, 1, 45, 0
3, 114824, Note_on_c, 1, 39, 55
3, 115100, Note_on_c, 1, 37, 29
3, 115196, Note_on_c, 1, 44, 60
3, 115212, Note_on_c, 1, 37, 0
3, 115216, Note_on_c, 1, 39, 0
3, 115444, Note_on_c, 1, 39, 61
3, 115484, Note_on_c, 1, 44, 0
3, 115516, Note_on_c, 1, 39, 0
3, 115560, Note_on_c, 1, 38, 44
3, 115860, Note_on_c, 1, 34, 19
3, 115944, Note_on_c, 1, 38, 0
3, 115952, Note_on_c, 1, 34, 0
3, 115956, Note_on_c, 1, 50, 65
3, 116236, Note_on_c, 1, 34, 35
3, 116292, Note_on_c, 1, 34, 0
3, 116292, Note_on_c, 1, 50, 0
3, 116356, Note_on_c, 1, 44, 52
3, 116420, Note_on_c, 1, 44, 0
3, 116608, Note_on_c, 1, 44, 88
3, 116712, Note_on_c, 1, 44, 0
3, 116740, Note_on_c, 1, 43, 52
3, 116820, Note_on_c, 1, 43, 0
3, 116980, Note_on_c, 1, 39, 73
3, 117072, Note_on_c, 1, 39, 0
3, 117116, Note_on_c, 1, 38, 32
3, 117328, Note_on_c, 1, 38, 0
3, 117348, Note_on_c, 1, 32, 65
3, 117464, Note_on_c, 1, 32, 0
3, 117476, Note_on_c, 1, 31, 55
3, 117724, Note_on_c, 1, 31, 0
3, 117744, Note_on_c, 1, 34, 38
3, 117836, Note_on_c, 1, 34, 0
3, 117876, Note_on_c, 1, 35, 45
3, 117988, Note_on_c, 1, 35, 0
3, 118136, Note_on_c, 1, 37, 70
3, 118196, Note_on_c, 1, 37, 0
3, 118264, Note_on_c, 1, 36, 48
3, 118520, Note_on_c, 1, 44, 72
3, 118604, Note_on_c, 1, 44, 0
3, 118632, Note_on_c, 1, 36, 0
3, 118652, Note_on_c, 1, 43, 24
3, 118880, Note_on_c, 1, 34, 32
3, 118900, Note_on_c, 1, 43, 0
3, 118904, Note_on_c, 1, 50, 62
3, 118920, Note_on_c, 1, 34, 0
3, 118976, Note_on_c, 1, 50, 0
3, 119024, Note_on_c, 1, 48, 44
3, 119248, Note_on_c, 1, 48, 0
3, 119280, Note_on_c, 1, 43, 50
3, 119312, Note_on_c, 1, 36, 24
3, 119332, Note_on_c, 1, 36, 0
3, 119360, Note_on_c, 1, 43, 0
3, 119408, Note_on_c, 1, 42, 39
3, 119488, Note_on_c, 1, 42, 0
3, 119656, Note_on_c, 1, 35, 46
3, 119768, Note_on_c, 1, 35, 0
3, 119800, Note_on_c, 1, 36, 36
3, 120044, Note_on_c, 1, 48, 76
3, 120104, Note_on_c, 1, 36, 0
3, 120112, Note_on_c, 1, 48, 0
3, 120172, Note_on_c, 1, 42, 31
3, 120412, Note_on_c, 1, 40, 50
3, 120416, Note_on_c, 1, 42, 0
3, 120484, Note_on_c, 1, 40, 0
3, 120544, Note_on_c, 1, 41, 48
3, 120572, Note_on_c, 1, 41, 0
3, 120652, Note_on_c, 1, 30, 60
3, 120928, Note_on_c, 1, 30, 0
3, 120948, Note_on_c, 1, 29, 44
3, 121168, Note_on_c, 1, 29, 0
3, 121188, Note_on_c, 1, 33, 48
3, 121284, Note_on_c, 1, 33, 0
3, 121312, Note_on_c, 1, 34, 48
3, 121560, Note_on_c, 1, 38, 72
3, 121624, Note_on_c, 1, 34, 0
3, 121956, Note_on_c, 1, 34, 37
3, 122008, Note_on_c, 1, 34, 0
3, 122060, Note_on_c, 1, 38, 0
3, 122084, Note_on_c, 1, 39, 39
3, 122488, Note_on_c, 1, 39, 0
3, 122508, Note_on_c, 1, 40, 44
3, 122832, Note_on_c, 1, 40, 0
3, 122868, Note_on_c, 1, 41, 46
3, 123224, Note_on_c, 1, 41, 0
3, 123256, Note_on_c, 1, 42, 47
3, 123612, Note_on_c, 1, 42, 0
3, 123628, Note_on_c, 1, 43, 36
3, 123880, Note_on_c, 1, 39, 40
3, 123920, Note_on_c, 1, 39, 0
3, 123984, Note_on_c, 1, 43, 0
3, 124004, Note_on_c, 1, 44, 53
3, 124368, Note_on_c, 1, 44, 0
3, 124400, Note_on_c, 1, 45, 52
3, 124424, Note_on_c, 1, 45, 0
3, 124524, Note_on_c, 1, 40, 36
3, 124552, Note_on_c, 1, 40, 0
3, 124632, Note_on_c, 1, 39, 47
3, 124756, Note_on_c, 1, 39, 0
3, 124772, Note_on_c, 1, 38, 47
3, 125036, Note_on_c, 1, 50, 78
3, 125472, Note_on_c, 1, 50, 0
3, 125484, Note_on_c, 1, 49, 30
3, 125520, Note_on_c, 1, 49, 0
3, 125588, Note_on_c, 1, 50, 55
3, 125688, Note_on_c, 1, 38, 0
3, 125860, Note_on_c, 1, 38, 58
3, 125888, Note_on_c, 1, 38, 0
3, 125952, Note_on_c, 1, 50, 0
3, 125964, Note_on_c, 1, 43, 56
3, 126156, Note_on_c, 1, 43, 0
3, 126208, Note_on_c, 1, 38, 46
3, 126292, Note_on_c, 1, 38, 0
3, 126332, Note_on_c, 1, 34, 51
3, 126692, Note_on_c, 1, 34, 0
3, 126704, Note_on_c, 1, 33, 48
3, 127068, Note_on_c, 1, 33, 0
3, 127080, Note_on_c, 1, 31, 50
3, 127336, Note_on_c, 1, 37, 51
3, 127340, Note_on_c, 1, 31, 0
3, 127452, Note_on_c, 1, 37, 0
3, 127460, Note_on_c, 1, 38, 40
3, 127720, Note_on_c, 1, 50, 68
3, 127768, Note_on_c, 1, 50, 0
3, 128004, Note_on_c, 1, 50, 31
3, 128060, Note_on_c, 1, 50, 0
3, 128080, Note_on_c, 1, 49, 42
3, 128176, Note_on_c, 1, 49, 0
3, 128212, Note_on_c, 1, 50, 62
3, 128248, Note_on_c, 1, 38, 0
3, 128488, Note_on_c, 1, 38, 76
3, 128504, Note_on_c, 1, 50, 0
3, 129016, Note_on_c, 1, 31, 53
3, 129020, Note_on_c, 1, 38, 0
3, 129248, Note_on_c, 1, 31, 0
3, 129280, Note_on_c, 1, 31, 69
3, 129392, Note_on_c, 1, 31, 0
3, 129400, Note_on_c, 1, 33, 63
3, 129760, Note_on_c, 1, 33, 0
3, 129772, Note_on_c, 1, 34, 57
3, 130048, Note_on_c, 1, 34, 0
3, 130052, Note_on_c, 1, 36, 64
3, 130136, Note_on_c, 1, 36, 0
3, 130152, Note_on_c, 1, 37, 64
3, 130436, Note_on_c, 1, 34, 34
3, 130480, Note_on_c, 1, 37, 0
3, 130548, Note_on_c, 1, 38, 54
3, 130652, Note_on_c, 1, 34, 0
3, 130688, Note_on_c, 1, 50, 60
3, 130764, Note_on_c, 1, 50, 0
3, 130936, Note_on_c, 1, 54, 50
3, 131324, Note_on_c, 1, 54, 0
3, 131336, Note_on_c, 1, 50, 45
3, 131572, Note_on_c, 1, 37, 36
3, 131584, Note_on_c, 1, 50, 0
3, 131688, Note_on_c, 1, 37, 0
3, 131692, Note_on_c, 1, 44, 52
3, 131748, Note_on_c, 1, 38, 0
3, 132188, Note_on_c, 1, 44, 0
3, 132208, Note_on_c, 1, 43, 55
3, 132252, Note_on_c, 1, 43, 0
3, 132320, Note_on_c, 1, 38, 59
3, 132412, Note_on_c, 1, 38, 0
3, 132460, Note_on_c, 1, 34, 52
3, 132832, Note_on_c, 1, 34, 0
3, 132844, Note_on_c, 1, 33, 51
3, 133052, Note_on_c, 1, 33, 0
3, 133116, Note_on_c, 1, 33, 15
3, 133172, Note_on_c, 1, 33, 0
3, 133228, Note_on_c, 1, 32, 59
3, 133432, Note_on_c, 1, 32, 0
3, 133488, Note_on_c, 1, 31, 49
3, 133588, Note_on_c, 1, 31, 0
3, 133620, Note_on_c, 1, 36, 38
3, 133832, Note_on_c, 1, 36, 0
3, 133872, Note_on_c, 1, 37, 68
3, 133996, Note_on_c, 1, 37, 0
3, 134012, Note_on_c, 1, 36, 41
3, 134248, Note_on_c, 1, 36, 0
3, 134260, Note_on_c, 1, 44, 62
3, 134380, Note_on_c, 1, 44, 0
3, 134392, Note_on_c, 1, 43, 41
3, 134632, Note_on_c, 1, 36, 35
3, 134644, Note_on_c, 1, 49, 48
3, 134664, Note_on_c, 1, 36, 0
3, 134704, Note_on_c, 1, 43, 0
3, 134724, Note_on_c, 1, 49, 0
3, 134776, Note_on_c, 1, 48, 31
3, 134992, Note_on_c, 1, 48, 0
3, 135028, Note_on_c, 1, 42, 73
3, 135032, Note_on_c, 1, 37, 37
3, 135068, Note_on_c, 1, 37, 0
3, 135124, Note_on_c, 1, 42, 0
3, 135156, Note_on_c, 1, 41, 41
3, 135180, Note_on_c, 1, 41, 0
3, 135276, Note_on_c, 1, 36, 46
3, 135332, Note_on_c, 1, 36, 0
3, 135392, Note_on_c, 1, 30, 55
3, 135512, Note_on_c, 1, 30, 0
3, 135552, Note_on_c, 1, 29, 48
3, 135904, Note_on_c, 1, 29, 0
3, 135904, Note_on_c, 1, 31, 55
3, 136296, Note_on_c, 1, 31, 0
3, 136316, Note_on_c, 1, 33, 60
3, 136524, Note_on_c, 1, 33, 0
3, 136576, Pitch_bend_c, 1, 8192
3, 136580, Pitch_bend_c, 1, 8192
3, 136584, Pitch_bend_c, 1, 7680
3, 136588, Pitch_bend_c, 1, 7424
3, 136592, Pitch_bend_c, 1, 7168
3, 136596, Pitch_bend_c, 1, 6912
3, 136600, Pitch_bend_c, 1, 6656
3, 136604, Pitch_bend_c, 1, 6400
3, 136608, Pitch_bend_c, 1, 6016
3, 136612, Pitch_bend_c, 1, 5760
3, 136616, Pitch_bend_c, 1, 5504
3, 136620, Pitch_bend_c, 1, 5120
3, 136624, Pitch_bend_c, 1, 4736
3, 136628, Pitch_bend_c, 1, 4480
3, 136632, Pitch_bend_c, 1, 4224
3, 136632, Pitch_bend_c, 1, 3968
3, 136636, Pitch_bend_c, 1, 3712
3, 136640, Pitch_bend_c, 1, 3456
3, 136644, Pitch_bend_c, 1, 3200
3, 136648, Pitch_bend_c, 1, 3072
3, 136652, Pitch_bend_c, 1, 2944
3, 136656, Pitch_bend_c, 1, 2816
3, 136660, Pitch_bend_c, 1, 2688
3, 136684, Note_on_c, 1, 34, 63
3, 136696, Pitch_bend_c, 1, 2816
3, 136704, Pitch_bend_c, 1, 2944
3, 136708, Pitch_bend_c, 1, 3072
3, 136716, Pitch_bend_c, 1, 3328
3, 136720, Pitch_bend_c, 1, 3584
3, 136728, Pitch_bend_c, 1, 3840
3, 136732, Pitch_bend_c, 1, 4096
3, 136736, Pitch_bend_c, 1, 4352
3, 136740, Pitch_bend_c, 1, 4608
3, 136744, Pitch_bend_c, 1, 4864
3, 136748, Pitch_bend_c, 1, 5120
3, 136752, Pitch_bend_c, 1, 5504
3, 136756, Pitch_bend_c, 1, 5632
3, 136760, Pitch_bend_c, 1, 5888
3, 136764, Pitch_bend_c, 1, 6016
3, 136768, Pitch_bend_c, 1, 6272
3, 136772, Pitch_bend_c, 1, 6400
3, 136776, Pitch_bend_c, 1, 6528
3, 136780, Pitch_bend_c, 1, 6656
3, 136784, Pitch_bend_c, 1, 6784
3, 136788, Pitch_bend_c, 1, 6912
3, 136792, Pitch_bend_c, 1, 7040
3, 136792, Pitch_bend_c, 1, 7296
3, 136796, Pitch_bend_c, 1, 7424
3, 136800, Pitch_bend_c, 1, 7552
3, 136804, Pitch_bend_c, 1, 7680
3, 136808, Pitch_bend_c, 1, 8192
3, 136812, Pitch_bend_c, 1, 8192
3, 136812, Pitch_bend_c, 1, 8192
3, 136820, Pitch_bend_c, 1, 8192
3, 136824, Pitch_bend_c, 1, 8192
3, 137096, Note_on_c, 1, 34, 0
3, 137104, Note_on_c, 1, 38, 56
3, 137436, Note_on_c, 1, 38, 0
3, 137476, Note_on_c, 1, 41, 56
3, 137748, Pitch_bend_c, 1, 8192
3, 137756, Pitch_bend_c, 1, 8192
3, 137764, Pitch_bend_c, 1, 7680
3, 137764, Pitch_bend_c, 1, 7424
3, 137768, Pitch_bend_c, 1, 7168
3, 137772, Pitch_bend_c, 1, 6912
3, 137776, Pitch_bend_c, 1, 6656
3, 137780, Pitch_bend_c, 1, 6400
3, 137784, Pitch_bend_c, 1, 6144
3, 137788, Note_on_c, 1, 41, 0
3, 137788, Pitch_bend_c, 1, 5888
3, 137792, Pitch_bend_c, 1, 5632
3, 137796, Pitch_bend_c, 1, 5376
3, 137800, Pitch_bend_c, 1, 5120
3, 137804, Pitch_bend_c, 1, 4864
3, 137808, Pitch_bend_c, 1, 4608
3, 137812, Pitch_bend_c, 1, 4224
3, 137816, Pitch_bend_c, 1, 3968
3, 137820, Pitch_bend_c, 1, 3712
3, 137824, Pitch_bend_c, 1, 3456
3, 137828, Pitch_bend_c, 1, 3200
3, 137832, Pitch_bend_c, 1, 2944
3, 137836, Pitch_bend_c, 1, 2688
3, 137840, Pitch_bend_c, 1, 2560
3, 137844, Pitch_bend_c, 1, 2432
3, 137852, Pitch_bend_c, 1, 2304
3, 137860, Note_on_c, 1, 40, 64
3, 137868, Pitch_bend_c, 1, 2560
3, 137872, Pitch_bend_c, 1, 2688
3, 137876, Pitch_bend_c, 1, 2944
3, 137880, Pitch_bend_c, 1, 3200
3, 137884, Pitch_bend_c, 1, 3456
3, 137888, Pitch_bend_c, 1, 3584
3, 137892, Pitch_bend_c, 1, 3712
3, 137896, Pitch_bend_c, 1, 3840
3, 137900, Pitch_bend_c, 1, 3968
3, 137908, Pitch_bend_c, 1, 4096
3, 137920, Pitch_bend_c, 1, 4352
3, 137924, Pitch_bend_c, 1, 4480
3, 137932, Pitch_bend_c, 1, 4736
3, 137936, Pitch_bend_c, 1, 4864
3, 137940, Pitch_bend_c, 1, 5120
3, 137944, Pitch_bend_c, 1, 5504
3, 137944, Pitch_bend_c, 1, 5760
3, 137948, Pitch_bend_c, 1, 6016
3, 137952, Pitch_bend_c, 1, 6272
3, 137956, Pitch_bend_c, 1, 6528
3, 137960, Pitch_bend_c, 1, 6656
3, 137964, Pitch_bend_c, 1, 6784
3, 137968, Pitch_bend_c, 1, 6912
3, 137972, Pitch_bend_c, 1, 7040
3, 137980, Pitch_bend_c, 1, 7296
3, 137988, Pitch_bend_c, 1, 7424
3, 137992, Pitch_bend_c, 1, 7552
3, 138000, Pitch_bend_c, 1, 7680
3, 138008, Pitch_bend_c, 1, 8192
3, 138036, Pitch_bend_c, 1, 8192
3, 138044, Pitch_bend_c, 1, 8192
3, 138052, Pitch_bend_c, 1, 8192
3, 138256, Note_on_c, 1, 40, 0
3, 138264, Note_on_c, 1, 39, 52
3, 138564, Note_on_c, 1, 39, 0
3, 138636, Note_on_c, 1, 46, 55
3, 139016, Note_on_c, 1, 45, 64
3, 139032, Note_on_c, 1, 46, 0
3, 139040, Pitch_bend_c, 1, 8192
3, 139072, Pitch_bend_c, 1, 8192
3, 139396, Note_on_c, 1, 45, 0
3, 139420, Note_on_c, 1, 38, 45
3, 139644, Note_on_c, 1, 34, 50
3, 139712, Note_on_c, 1, 38, 0
3, 139740, Note_on_c, 1, 34, 0
3, 139768, Note_on_c, 1, 32, 52
3, 140164, Note_on_c, 1, 39, 60
3, 140192, Note_on_c, 1, 32, 0
3, 140392, Note_on_c, 1, 39, 0
3, 140456, Pitch_bend_c, 1, 8192
3, 140464, Pitch_bend_c, 1, 8192
3, 140472, Pitch_bend_c, 1, 7552
3, 140476, Pitch_bend_c, 1, 7296
3, 140480, Pitch_bend_c, 1, 7040
3, 140484, Pitch_bend_c, 1, 6656
3, 140488, Pitch_bend_c, 1, 6400
3, 140488, Pitch_bend_c, 1, 6016
3, 140492, Pitch_bend_c, 1, 5632
3, 140496, Pitch_bend_c, 1, 5376
3, 140500, Pitch_bend_c, 1, 4864
3, 140504, Pitch_bend_c, 1, 4480
3, 140508, Pitch_bend_c, 1, 4224
3, 140512, Pitch_bend_c, 1, 3968
3, 140516, Pitch_bend_c, 1, 3712
3, 140520, Pitch_bend_c, 1, 3456
3, 140524, Pitch_bend_c, 1, 3200
3, 140528, Pitch_bend_c, 1, 3072
3, 140532, Pitch_bend_c, 1, 2816
3, 140536, Pitch_bend_c, 1, 2688
3, 140540, Pitch_bend_c, 1, 2432
3, 140544, Pitch_bend_c, 1, 2304
3, 140548, Pitch_bend_c, 1, 2176
3, 140552, Note_on_c, 1, 38, 60
3, 140556, Pitch_bend_c, 1, 2048
3, 140580, Pitch_bend_c, 1, 2304
3, 140584, Pitch_bend_c, 1, 2432
3, 140588, Pitch_bend_c, 1, 2560
3, 140592, Pitch_bend_c, 1, 2688
3, 140596, Pitch_bend_c, 1, 2816
3, 140600, Pitch_bend_c, 1, 2944
3, 140604, Pitch_bend_c, 1, 3200
3, 140604, Pitch_bend_c, 1, 3328
3, 140608, Pitch_bend_c, 1, 3584
3, 140612, Pitch_bend_c, 1, 3712
3, 140616, Pitch_bend_c, 1, 3968
3, 140620, Pitch_bend_c, 1, 4096
3, 140624, Pitch_bend_c, 1, 4352
3, 140628, Pitch_bend_c, 1, 4480
3, 140632, Pitch_bend_c, 1, 4736
3, 140636, Pitch_bend_c, 1, 4864
3, 140640, Pitch_bend_c, 1, 5120
3, 140644, Pitch_bend_c, 1, 5376
3, 140648, Pitch_bend_c, 1, 5504
3, 140652, Pitch_bend_c, 1, 5632
3, 140656, Pitch_bend_c, 1, 5888
3, 140660, Pitch_bend_c, 1, 6016
3, 140664, Pitch_bend_c, 1, 6272
3, 140668, Pitch_bend_c, 1, 6400
3, 140672, Pitch_bend_c, 1, 6656
3, 140680, Pitch_bend_c, 1, 6784
3, 140692, Pitch_bend_c, 1, 6912
3, 140704, Pitch_bend_c, 1, 7040
3, 140708, Pitch_bend_c, 1, 7168
3, 140716, Pitch_bend_c, 1, 7296
3, 140720, Pitch_bend_c, 1, 7424
3, 140728, Pitch_bend_c, 1, 7680
3, 140732, Pitch_bend_c, 1, 8192
3, 140740, Pitch_bend_c, 1, 8192
3, 140744, Pitch_bend_c, 1, 8192
3, 140752, Pitch_bend_c, 1, 8192
3, 140760, Pitch_bend_c, 1, 8192
3, 140944, Note_on_c, 1, 45, 50
3, 140952, Note_on_c, 1, 38, 0
3, 141200, Note_on_c, 1, 34, 36
3, 141248, Note_on_c, 1, 34, 0
3, 141308, Note_on_c, 1, 45, 0
3, 141312, Note_on_c, 1, 43, 45
3, 141340, Note_on_c, 1, 43, 0
3, 141424, Note_on_c, 1, 38, 24
3, 141468, Note_on_c, 1, 38, 0
3, 141524, Note_on_c, 1, 32, 51
3, 141668, Note_on_c, 1, 32, 0
3, 141680, Note_on_c, 1, 31, 53
3, 142036, Note_on_c, 1, 31, 0
3, 142036, Note_on_c, 1, 33, 54
3, 142308, Note_on_c, 1, 34, 50
3, 142316, Note_on_c, 1, 33, 0
3, 142444, Note_on_c, 1, 34, 0
3, 142448, Note_on_c, 1, 35, 49
3, 142824, Note_on_c, 1, 35, 0
3, 142836, Note_on_c, 1, 36, 64
3, 142844, Control_c, 1, 1, 3
3, 142848, Control_c, 1, 1, 4
3, 142848, Control_c, 1, 1, 6
3, 142852, Control_c, 1, 1, 7
3, 142856, Control_c, 1, 1, 9
3, 142856, Control_c, 1, 1, 10
3, 142860, Control_c, 1, 1, 12
3, 142860, Control_c, 1, 1, 13
3, 142864, Control_c, 1, 1, 15
3, 142864, Control_c, 1, 1, 16
3, 142868, Control_c, 1, 1, 18
3, 142872, Control_c, 1, 1, 20
3, 142872, Control_c, 1, 1, 21
3, 142876, Control_c, 1, 1, 22
3, 142876, Control_c, 1, 1, 23
3, 142880, Control_c, 1, 1, 25
3, 142880, Control_c, 1, 1, 26
3, 142884, Control_c, 1, 1, 27
3, 142888, Control_c, 1, 1, 28
3, 142888, Control_c, 1, 1, 29
3, 142892, Control_c, 1, 1, 30
3, 142892, Control_c, 1, 1, 31
3, 142896, Control_c, 1, 1, 32
3, 142896, Control_c, 1, 1, 33
3, 142904, Control_c, 1, 1, 35
3, 142908, Control_c, 1, 1, 36
3, 142908, Control_c, 1, 1, 37
3, 142916, Control_c, 1, 1, 39
3, 142916, Control_c, 1, 1, 40
3, 142924, Control_c, 1, 1, 42
3, 142928, Control_c, 1, 1, 44
3, 142932, Control_c, 1, 1, 45
3, 142940, Control_c, 1, 1, 47
3, 142944, Control_c, 1, 1, 48
3, 142948, Control_c, 1, 1, 49
3, 142952, Control_c, 1, 1, 51
3, 142960, Control_c, 1, 1, 52
3, 142968, Control_c, 1, 1, 54
3, 142980, Control_c, 1, 1, 55
3, 142988, Control_c, 1, 1, 56
3, 143000, Control_c, 1, 1, 57
3, 143004, Control_c, 1, 1, 58
3, 143020, Control_c, 1, 1, 59
3, 143032, Control_c, 1, 1, 60
3, 143048, Control_c, 1, 1, 61
3, 143060, Control_c, 1, 1, 62
3, 143076, Control_c, 1, 1, 63
3, 143108, Control_c, 1, 1, 62
3, 143116, Control_c, 1, 1, 61
3, 143124, Control_c, 1, 1, 59
3, 143128, Control_c, 1, 1, 57
3, 143136, Control_c, 1, 1, 55
3, 143140, Control_c, 1, 1, 54
3, 143144, Control_c, 1, 1, 52
3, 143148, Control_c, 1, 1, 51
3, 143148, Control_c, 1, 1, 50
3, 143152, Control_c, 1, 1, 49
3, 143152, Control_c, 1, 1, 48
3, 143156, Control_c, 1, 1, 47
3, 143160, Control_c, 1, 1, 45
3, 143160, Control_c, 1, 1, 44
3, 143164, Control_c, 1, 1, 43
3, 143164, Control_c, 1, 1, 41
3, 143168, Control_c, 1, 1, 40
3, 143168, Control_c, 1, 1, 38
3, 143172, Control_c, 1, 1, 36
3, 143176, Control_c, 1, 1, 35
3, 143176, Control_c, 1, 1, 33
3, 143180, Control_c, 1, 1, 31
3, 143180, Control_c, 1, 1, 29
3, 143184, Control_c, 1, 1, 27
3, 143184, Control_c, 1, 1, 24
3, 143188, Control_c, 1, 1, 22
3, 143192, Control_c, 1, 1, 20
3, 143192, Control_c, 1, 1, 17
3, 143196, Control_c, 1, 1, 15
3, 143196, Control_c, 1, 1, 12
3, 143200, Control_c, 1, 1, 10
3, 143204, Control_c, 1, 1, 8
3, 143204, Control_c, 1, 1, 7
3, 143208, Control_c, 1, 1, 5
3, 143208, Control_c, 1, 1, 3
3, 143212, Control_c, 1, 1, 2
3, 143212, Control_c, 1, 1, 1
3, 143496, Note_on_c, 1, 36, 0
3, 143496, Note_on_c, 1, 35, 39
3, 143556, Note_on_c, 1, 35, 0
3, 143612, Note_on_c, 1, 36, 62
3, 143660, Note_on_c, 1, 36, 0
3, 143728, Note_on_c, 1, 42, 62
3, 143740, Note_on_c, 1, 43, 75
3, 143748, Note_on_c, 1, 42, 0
3, 143940, Note_on_c, 1, 34, 29
3, 143952, Note_on_c, 1, 43, 0
3, 143972, Note_on_c, 1, 34, 0
3, 144000, Note_on_c, 1, 42, 59
3, 144204, Note_on_c, 1, 42, 0
3, 144224, Note_on_c, 1, 41, 44
3, 144472, Note_on_c, 1, 36, 47
3, 144496, Note_on_c, 1, 41, 0
3, 144500, Note_on_c, 1, 36, 0
3, 144596, Note_on_c, 1, 30, 52
3, 144720, Note_on_c, 1, 30, 0
3, 144736, Note_on_c, 1, 29, 55
3, 145128, Note_on_c, 1, 31, 57
3, 145132, Note_on_c, 1, 29, 0
3, 145512, Note_on_c, 1, 31, 0
3, 145524, Note_on_c, 1, 33, 51
3, 145868, Note_on_c, 1, 33, 0
3, 145888, Note_on_c, 1, 34, 39
3, 146284, Note_on_c, 1, 36, 45
3, 146316, Note_on_c, 1, 34, 0
3, 146660, Note_on_c, 1, 36, 0
3, 146664, Note_on_c, 1, 38, 53
3, 147040, Note_on_c, 1, 38, 0
3, 147048, Note_on_c, 1, 39, 58
3, 147316, Note_on_c, 1, 38, 33
3, 147352, Note_on_c, 1, 39, 0
3, 147408, Note_on_c, 1, 38, 0
3, 147428, Note_on_c, 1, 40, 50
3, 147756, Note_on_c, 1, 39, 35
3, 147760, Note_on_c, 1, 40, 0
3, 147836, Note_on_c, 1, 39, 0
3, 147836, Note_on_c, 1, 41, 45
3, 148116, Note_on_c, 1, 39, 19
3, 148172, Note_on_c, 1, 41, 0
3, 148188, Note_on_c, 1, 50, 84
3, 148204, Note_on_c, 1, 39, 0
3, 148564, Note_on_c, 1, 50, 0
3, 148596, Note_on_c, 1, 48, 50
3, 148852, Note_on_c, 1, 41, 38
3, 148880, Note_on_c, 1, 41, 0
3, 148952, Note_on_c, 1, 48, 0
3, 148968, Note_on_c, 1, 46, 39
3, 149352, Note_on_c, 1, 45, 39
3, 149384, Note_on_c, 1, 46, 0
3, 149724, Note_on_c, 1, 45, 0
3, 149744, Note_on_c, 1, 46, 36
3, 150020, Note_on_c, 1, 38, 57
3, 150048, Note_on_c, 1, 46, 0
3, 150108, Note_on_c, 1, 38, 0
3, 150152, Note_on_c, 1, 39, 43
3, 150544, Note_on_c, 1, 46, 53
3, 150564, Note_on_c, 1, 39, 0
3, 150812, Note_on_c, 1, 39, 34
3, 150832, Note_on_c, 1, 39, 0
3, 150912, Note_on_c, 1, 45, 58
3, 151104, Note_on_c, 1, 46, 0
3, 151196, Note_on_c, 1, 39, 19
3, 151240, Note_on_c, 1, 39, 0
3, 151292, Note_on_c, 1, 45, 0
3, 151292, Note_on_c, 1, 52, 57
3, 151392, Note_on_c, 1, 52, 0
3, 151532, Note_on_c, 1, 51, 64
3, 151640, Note_on_c, 1, 51, 0
3, 151796, Note_on_c, 1, 49, 47
3, 151880, Note_on_c, 1, 49, 0
3, 151920, Note_on_c, 1, 45, 41
3, 151956, Note_on_c, 1, 39, 30
3, 151976, Note_on_c, 1, 39, 0
3, 152028, Note_on_c, 1, 45, 0
3, 152052, Note_on_c, 1, 44, 53
3, 152416, Note_on_c, 1, 44, 0
3, 152432, Note_on_c, 1, 38, 57
3, 152816, Note_on_c, 1, 38, 0
3, 152816, Note_on_c, 1, 32, 42
3, 153072, Note_on_c, 1, 38, 48
3, 153116, Note_on_c, 1, 32, 0
3, 153140, Note_on_c, 1, 38, 0
3, 153188, Note_on_c, 1, 44, 52
3, 153460, Note_on_c, 1, 43, 53
3, 153468, Note_on_c, 1, 44, 0
3, 153836, Note_on_c, 1, 32, 53
3, 153848, Note_on_c, 1, 43, 0
3, 153960, Note_on_c, 1, 31, 54
3, 153980, Note_on_c, 1, 32, 0
3, 154348, Note_on_c, 1, 43, 58
3, 154388, Note_on_c, 1, 31, 0
3, 154576, Note_on_c, 1, 43, 0
3, 154608, Note_on_c, 1, 42, 43
3, 154636, Note_on_c, 1, 31, 28
3, 154668, Note_on_c, 1, 42, 0
3, 154696, Note_on_c, 1, 31, 0
3, 154728, Note_on_c, 1, 43, 34
3, 154968, Note_on_c, 1, 43, 0
3, 154980, Note_on_c, 1, 35, 56
3, 155092, Note_on_c, 1, 35, 0
3, 155104, Note_on_c, 1, 36, 31
3, 155468, Note_on_c, 1, 36, 0
3, 155512, Note_on_c, 1, 38, 39
3, 155732, Note_on_c, 1, 38, 0
3, 155796, Pitch_bend_c, 1, 8192
3, 155796, Pitch_bend_c, 1, 8192
3, 155804, Pitch_bend_c, 1, 7680
3, 155808, Pitch_bend_c, 1, 7424
3, 155812, Pitch_bend_c, 1, 7168
3, 155816, Pitch_bend_c, 1, 6912
3, 155820, Pitch_bend_c, 1, 6656
3, 155824, Pitch_bend_c, 1, 6272
3, 155828, Pitch_bend_c, 1, 6016
3, 155832, Pitch_bend_c, 1, 5632
3, 155836, Pitch_bend_c, 1, 5376
3, 155840, Pitch_bend_c, 1, 4992
3, 155844, Pitch_bend_c, 1, 4736
3, 155848, Pitch_bend_c, 1, 4480
3, 155852, Pitch_bend_c, 1, 4224
3, 155856, Pitch_bend_c, 1, 3968
3, 155860, Pitch_bend_c, 1, 3712
3, 155864, Pitch_bend_c, 1, 3584
3, 155868, Pitch_bend_c, 1, 3456
3, 155872, Pitch_bend_c, 1, 3328
3, 155900, Pitch_bend_c, 1, 3456
3, 155908, Note_on_c, 1, 40, 58
3, 155912, Pitch_bend_c, 1, 3712
3, 155920, Pitch_bend_c, 1, 3840
3, 155924, Pitch_bend_c, 1, 3968
3, 155928, Pitch_bend_c, 1, 4096
3, 155932, Pitch_bend_c, 1, 4352
3, 155936, Pitch_bend_c, 1, 4480
3, 155940, Pitch_bend_c, 1, 4736
3, 155944, Pitch_bend_c, 1, 4864
3, 155948, Pitch_bend_c, 1, 4992
3, 155952, Pitch_bend_c, 1, 5120
3, 155960, Pitch_bend_c, 1, 5376
3, 155968, Pitch_bend_c, 1, 5504
3, 155976, Pitch_bend_c, 1, 5760
3, 155980, Pitch_bend_c, 1, 5888
3, 155984, Pitch_bend_c, 1, 6016
3, 155988, Pitch_bend_c, 1, 6144
3, 155992, Pitch_bend_c, 1, 6272
3, 155996, Pitch_bend_c, 1, 6528
3, 156000, Pitch_bend_c, 1, 6784
3, 156004, Pitch_bend_c, 1, 7040
3, 156008, Pitch_bend_c, 1, 7168
3, 156008, Pitch_bend_c, 1, 7296
3, 156012, Pitch_bend_c, 1, 7552
3, 156020, Pitch_bend_c, 1, 7680
3, 156028, Pitch_bend_c, 1, 8192
3, 156032, Pitch_bend_c, 1, 8192
3, 156040, Pitch_bend_c, 1, 8192
3, 156048, Pitch_bend_c, 1, 8192
3, 156288, Note_on_c, 1, 40, 0
3, 156312, Note_on_c, 1, 43, 51
3, 156664, Note_on_c, 1, 43, 0
3, 156684, Note_on_c, 1, 40, 58
3, 156928, Note_on_c, 1, 40, 0
3, 157052, Pitch_bend_c, 1, 8192
3, 157052, Pitch_bend_c, 1, 8192
3, 157056, Pitch_bend_c, 1, 8842
3, 157060, Pitch_bend_c, 1, 9362
3, 157064, Pitch_bend_c, 1, 10012
3, 157068, Note_on_c, 1, 37, 56
3, 157068, Pitch_bend_c, 1, 10662
3, 157072, Pitch_bend_c, 1, 11312
3, 157076, Pitch_bend_c, 1, 11832
3, 157080, Pitch_bend_c, 1, 12092
3, 157084, Pitch_bend_c, 1, 12482
3, 157088, Pitch_bend_c, 1, 12742
3, 157092, Pitch_bend_c, 1, 13002
3, 157096, Pitch_bend_c, 1, 13132
3, 157120, Pitch_bend_c, 1, 12872
3, 157124, Pitch_bend_c, 1, 12742
3, 157128, Pitch_bend_c, 1, 12612
3, 157132, Pitch_bend_c, 1, 12352
3, 157136, Pitch_bend_c, 1, 12092
3, 157140, Pitch_bend_c, 1, 11832
3, 157144, Pitch_bend_c, 1, 11572
3, 157148, Pitch_bend_c, 1, 11312
3, 157148, Pitch_bend_c, 1, 10922
3, 157152, Pitch_bend_c, 1, 10662
3, 157156, Pitch_bend_c, 1, 10272
3, 157160, Pitch_bend_c, 1, 10012
3, 157164, Pitch_bend_c, 1, 9752
3, 157168, Pitch_bend_c, 1, 9362
3, 157172, Pitch_bend_c, 1, 9232
3, 157176, Pitch_bend_c, 1, 8972
3, 157180, Pitch_bend_c, 1, 8712
3, 157184, Pitch_bend_c, 1, 8192
3, 157188, Pitch_bend_c, 1, 8192
3, 157192, Pitch_bend_c, 1, 8192
3, 157456, Note_on_c, 1, 36, 64
3, 157464, Note_on_c, 1, 37, 0
3, 157824, Note_on_c, 1, 36, 0
3, 157828, Note_on_c, 1, 35, 51
3, 158196, Note_on_c, 1, 35, 0
3, 158196, Note_on_c, 1, 36, 53
3, 158464, Note_on_c, 1, 50, 65
3, 158560, Note_on_c, 1, 50, 0
3, 158600, Note_on_c, 1, 48, 50
3, 158860, Note_on_c, 1, 36, 0
3, 158892, Note_on_c, 1, 34, 20
3, 158936, Note_on_c, 1, 34, 0
3, 158976, Note_on_c, 1, 48, 0
3, 158976, Note_on_c, 1, 43, 55
3, 159352, Note_on_c, 1, 43, 0
3, 159368, Note_on_c, 1, 42, 57
3, 159744, Note_on_c, 1, 42, 0
3, 159764, Note_on_c, 1, 41, 49
3, 159792, Note_on_c, 1, 41, 0
3, 159972, Control_c, 1, 1, 4
3, 159972, Control_c, 1, 1, 6
3, 159976, Control_c, 1, 1, 8
3, 159976, Control_c, 1, 1, 10
3, 159980, Control_c, 1, 1, 13
3, 159984, Control_c, 1, 1, 16
3, 159984, Control_c, 1, 1, 20
3, 159988, Control_c, 1, 1, 23
3, 159992, Control_c, 1, 1, 27
3, 159992, Control_c, 1, 1, 31
3, 159996, Control_c, 1, 1, 34
3, 159996, Control_c, 1, 1, 36
3, 160000, Note_on_c, 1, 53, 76
3, 160000, Control_c, 1, 1, 42
3, 160004, Control_c, 1, 1, 47
3, 160008, Control_c, 1, 1, 51
3, 160008, Control_c, 1, 1, 55
3, 160012, Control_c, 1, 1, 59
3, 160016, Control_c, 1, 1, 63
3, 160016, Control_c, 1, 1, 66
3, 160020, Control_c, 1, 1, 68
3, 160024, Control_c, 1, 1, 72
3, 160024, Control_c, 1, 1, 75
3, 160028, Control_c, 1, 1, 77
3, 160028, Control_c, 1, 1, 79
3, 160032, Control_c, 1, 1, 80
3, 160036, Control_c, 1, 1, 82
3, 160036, Control_c, 1, 1, 85
3, 160040, Control_c, 1, 1, 87
3, 160040, Control_c, 1, 1, 88
3, 160044, Control_c, 1, 1, 89
3, 160044, Control_c, 1, 1, 90
3, 160048, Control_c, 1, 1, 92
3, 160052, Control_c, 1, 1, 94
3, 160052, Control_c, 1, 1, 95
3, 160060, Control_c, 1, 1, 97
3, 160060, Control_c, 1, 1, 98
3, 160068, Control_c, 1, 1, 100
3, 160072, Control_c, 1, 1, 101
3, 160080, Control_c, 1, 1, 102
3, 160084, Control_c, 1, 1, 103
3, 160104, Control_c, 1, 1, 104
3, 160132, Control_c, 1, 1, 103
3, 160144, Control_c, 1, 1, 102
3, 160156, Control_c, 1, 1, 101
3, 160176, Control_c, 1, 1, 100
3, 160200, Control_c, 1, 1, 99
3, 160216, Control_c, 1, 1, 98
3, 160224, Control_c, 1, 1, 97
3, 160236, Control_c, 1, 1, 96
3, 160248, Control_c, 1, 1, 95
3, 160268, Control_c, 1, 1, 94
3, 160276, Control_c, 1, 1, 92
3, 160280, Control_c, 1, 1, 91
3, 160288, Control_c, 1, 1, 90
3, 160296, Control_c, 1, 1, 87
3, 160300, Control_c, 1, 1, 84
3, 160304, Control_c, 1, 1, 83
3, 160304, Control_c, 1, 1, 81
3, 160308, Control_c, 1, 1, 80
3, 160312, Control_c, 1, 1, 79
3, 160312, Control_c, 1, 1, 77
3, 160316, Control_c, 1, 1, 75
3, 160316, Control_c, 1, 1, 73
3, 160320, Control_c, 1, 1, 72
3, 160324, Control_c, 1, 1, 70
3, 160324, Control_c, 1, 1, 67
3, 160328, Control_c, 1, 1, 65
3, 160328, Control_c, 1, 1, 63
3, 160332, Control_c, 1, 1, 61
3, 160336, Control_c, 1, 1, 58
3, 160336, Control_c, 1, 1, 56
3, 160340, Control_c, 1, 1, 54
3, 160340, Control_c, 1, 1, 52
3, 160344, Control_c, 1, 1, 48
3, 160344, Control_c, 1, 1, 47
3, 160348, Control_c, 1, 1, 44
3, 160352, Control_c, 1, 1, 41
3, 160352, Control_c, 1, 1, 39
3, 160356, Control_c, 1, 1, 37
3, 160360, Control_c, 1, 1, 35
3, 160360, Control_c, 1, 1, 34
3, 160364, Control_c, 1, 1, 32
3, 160364, Control_c, 1, 1, 30
3, 160368, Control_c, 1, 1, 28
3, 160368, Control_c, 1, 1, 26
3, 160372, Control_c, 1, 1, 24
3, 160376, Control_c, 1, 1, 22
3, 160376, Control_c, 1, 1, 20
3, 160380, Control_c, 1, 1, 18
3, 160380, Control_c, 1, 1, 16
3, 160384, Control_c, 1, 1, 15
3, 160388, Control_c, 1, 1, 13
3, 160388, Control_c, 1, 1, 11
3, 160392, Control_c, 1, 1, 9
3, 160392, Control_c, 1, 1, 8
3, 160396, Control_c, 1, 1, 6
3, 160396, Control_c, 1, 1, 5
3, 160400, Control_c, 1, 1, 4
3, 160400, Control_c, 1, 1, 2
3, 160404, Control_c, 1, 1, 1
3, 160424, Control_c, 1, 1, 0
3, 160532, Note_on_c, 1, 53, 0
3, 160800, Note_on_c, 1, 35, 76
3, 160840, Note_on_c, 1, 35, 0
3, 161044, Note_on_c, 1, 33, 66
3, 161100, Note_on_c, 1, 33, 0
3, 161144, Note_on_c, 1, 33, 70
3, 161260, Note_on_c, 1, 33, 0
3, 161276, Note_on_c, 1, 34, 46
3, 161596, Note_on_c, 1, 32, 19
3, 161644, Note_on_c, 1, 50, 52
3, 161652, Note_on_c, 1, 32, 0
3, 161664, Note_on_c, 1, 34, 0
3, 162020, Note_on_c, 1, 50, 0
3, 162056, Note_on_c, 1, 46, 42
3, 162304, Note_on_c, 1, 41, 42
3, 162328, Note_on_c, 1, 41, 0
3, 162340, Note_on_c, 1, 46, 0
3, 162432, Note_on_c, 1, 38, 52
3, 162780, Note_on_c, 1, 38, 0
3, 162800, Note_on_c, 1, 39, 42
3, 162852, Note_on_c, 1, 39, 0
3, 163056, Note_on_c, 1, 57, 76
3, 163092, Control_c, 1, 1, 3
3, 163096, Control_c, 1, 1, 4
3, 163096, Control_c, 1, 1, 5
3, 163100, Control_c, 1, 1, 6
3, 163100, Control_c, 1, 1, 8
3, 163104, Control_c, 1, 1, 9
3, 163104, Control_c, 1, 1, 12
3, 163108, Control_c, 1, 1, 13
3, 163112, Control_c, 1, 1, 16
3, 163112, Control_c, 1, 1, 18
3, 163116, Control_c, 1, 1, 21
3, 163116, Control_c, 1, 1, 23
3, 163120, Control_c, 1, 1, 26
3, 163120, Control_c, 1, 1, 29
3, 163124, Control_c, 1, 1, 33
3, 163128, Control_c, 1, 1, 36
3, 163128, Control_c, 1, 1, 38
3, 163132, Control_c, 1, 1, 41
3, 163136, Control_c, 1, 1, 43
3, 163136, Control_c, 1, 1, 47
3, 163140, Control_c, 1, 1, 48
3, 163140, Control_c, 1, 1, 51
3, 163144, Control_c, 1, 1, 54
3, 163144, Control_c, 1, 1, 55
3, 163148, Control_c, 1, 1, 57
3, 163152, Control_c, 1, 1, 59
3, 163152, Control_c, 1, 1, 62
3, 163156, Control_c, 1, 1, 63
3, 163156, Control_c, 1, 1, 65
3, 163160, Control_c, 1, 1, 67
3, 163164, Control_c, 1, 1, 69
3, 163164, Control_c, 1, 1, 70
3, 163168, Control_c, 1, 1, 72
3, 163172, Control_c, 1, 1, 74
3, 163172, Control_c, 1, 1, 75
3, 163176, Control_c, 1, 1, 76
3, 163176, Control_c, 1, 1, 77
3, 163184, Control_c, 1, 1, 79
3, 163188, Control_c, 1, 1, 81
3, 163196, Control_c, 1, 1, 82
3, 163220, Control_c, 1, 1, 81
3, 163236, Control_c, 1, 1, 80
3, 163248, Control_c, 1, 1, 79
3, 163260, Control_c, 1, 1, 78
3, 163268, Control_c, 1, 1, 76
3, 163276, Control_c, 1, 1, 75
3, 163284, Control_c, 1, 1, 74
3, 163288, Control_c, 1, 1, 73
3, 163292, Control_c, 1, 1, 72
3, 163300, Control_c, 1, 1, 70
3, 163300, Control_c, 1, 1, 69
3, 163308, Control_c, 1, 1, 68
3, 163312, Control_c, 1, 1, 67
3, 163312, Control_c, 1, 1, 66
3, 163316, Control_c, 1, 1, 65
3, 163316, Control_c, 1, 1, 64
3, 163320, Control_c, 1, 1, 62
3, 163320, Control_c, 1, 1, 61
3, 163324, Control_c, 1, 1, 60
3, 163328, Control_c, 1, 1, 59
3, 163328, Control_c, 1, 1, 57
3, 163332, Control_c, 1, 1, 55
3, 163336, Control_c, 1, 1, 53
3, 163336, Control_c, 1, 1, 52
3, 163340, Control_c, 1, 1, 50
3, 163340, Control_c, 1, 1, 48
3, 163344, Control_c, 1, 1, 46
3, 163344, Control_c, 1, 1, 43
3, 163348, Control_c, 1, 1, 42
3, 163348, Control_c, 1, 1, 40
3, 163352, Control_c, 1, 1, 38
3, 163356, Control_c, 1, 1, 35
3, 163356, Control_c, 1, 1, 33
3, 163360, Control_c, 1, 1, 30
3, 163364, Control_c, 1, 1, 28
3, 163364, Control_c, 1, 1, 24
3, 163368, Control_c, 1, 1, 22
3, 163368, Control_c, 1, 1, 19
3, 163372, Control_c, 1, 1, 15
3, 163376, Control_c, 1, 1, 10
3, 163376, Control_c, 1, 1, 7
3, 163380, Control_c, 1, 1, 4
3, 163380, Control_c, 1, 1, 1
3, 163848, Note_on_c, 1, 39, 39
3, 163872, Note_on_c, 1, 39, 0
3, 163948, Note_on_c, 1, 57, 0
3, 163976, Note_on_c, 1, 51, 45
3, 164220, Note_on_c, 1, 39, 27
3, 164256, Note_on_c, 1, 39, 0
3, 164272, Note_on_c, 1, 48, 22
3, 164276, Note_on_c, 1, 51, 0
3, 164308, Note_on_c, 1, 48, 0
3, 164360, Note_on_c, 1, 50, 56
3, 164400, Note_on_c, 1, 50, 0
3, 164596, Note_on_c, 1, 44, 69
3, 164648, Note_on_c, 1, 44, 0
3, 164724, Note_on_c, 1, 32, 35
3, 165108, Note_on_c, 1, 44, 39
3, 165168, Note_on_c, 1, 32, 0
3, 165380, Note_on_c, 1, 39, 39
3, 165412, Note_on_c, 1, 39, 0
3, 165452, Note_on_c, 1, 44, 0
3, 165496, Note_on_c, 1, 42, 45
3, 165844, Note_on_c, 1, 42, 0
3, 165864, Note_on_c, 1, 43, 58
3, 165884, Note_on_c, 1, 43, 0
3, 165988, Note_on_c, 1, 37, 35
3, 166044, Note_on_c, 1, 37, 0
3, 166116, Note_on_c, 1, 38, 51
3, 166148, Note_on_c, 1, 38, 0
3, 166252, Note_on_c, 1, 35, 60
3, 166292, Note_on_c, 1, 35, 0
3, 166380, Note_on_c, 1, 30, 47
3, 166472, Note_on_c, 1, 30, 0
3, 166492, Note_on_c, 1, 31, 68
3, 166908, Note_on_c, 1, 37, 48
3, 167000, Note_on_c, 1, 37, 0
3, 167044, Note_on_c, 1, 31, 0
3, 167072, Note_on_c, 1, 38, 19
3, 167116, Note_on_c, 1, 38, 0
3, 167180, Note_on_c, 1, 43, 45
3, 167204, Note_on_c, 1, 43, 0
3, 167280, Note_on_c, 1, 35, 50
3, 167388, Note_on_c, 1, 35, 0
3, 167408, Note_on_c, 1, 36, 50
3, 167812, Note_on_c, 1, 38, 61
3, 167832, Note_on_c, 1, 38, 0
3, 167832, Note_on_c, 1, 36, 0
3, 167936, Note_on_c, 1, 36, 36
3, 167968, Note_on_c, 1, 36, 0
3, 168036, Note_on_c, 1, 39, 57
3, 168360, Note_on_c, 1, 39, 0
3, 168432, Pitch_bend_c, 1, 8192
3, 168436, Pitch_bend_c, 1, 8192
3, 168436, Pitch_bend_c, 1, 8192
3, 168440, Pitch_bend_c, 1, 7680
3, 168444, Pitch_bend_c, 1, 7296
3, 168448, Pitch_bend_c, 1, 7040
3, 168452, Pitch_bend_c, 1, 6784
3, 168456, Pitch_bend_c, 1, 6400
3, 168460, Pitch_bend_c, 1, 6144
3, 168464, Pitch_bend_c, 1, 5888
3, 168468, Pitch_bend_c, 1, 5632
3, 168472, Pitch_bend_c, 1, 5376
3, 168476, Pitch_bend_c, 1, 4992
3, 168480, Pitch_bend_c, 1, 4736
3, 168484, Pitch_bend_c, 1, 4608
3, 168488, Pitch_bend_c, 1, 4480
3, 168492, Pitch_bend_c, 1, 4224
3, 168492, Pitch_bend_c, 1, 4096
3, 168496, Pitch_bend_c, 1, 3840
3, 168500, Pitch_bend_c, 1, 3712
3, 168504, Pitch_bend_c, 1, 3584
3, 168508, Pitch_bend_c, 1, 3456
3, 168512, Pitch_bend_c, 1, 3328
3, 168516, Pitch_bend_c, 1, 3200
3, 168520, Pitch_bend_c, 1, 3072
3, 168524, Pitch_bend_c, 1, 2944
3, 168528, Pitch_bend_c, 1, 2816
3, 168532, Pitch_bend_c, 1, 2560
3, 168536, Pitch_bend_c, 1, 2432
3, 168544, Pitch_bend_c, 1, 2304
3, 168548, Pitch_bend_c, 1, 2176
3, 168556, Pitch_bend_c, 1, 1920
3, 168564, Pitch_bend_c, 1, 1792
3, 168576, Pitch_bend_c, 1, 1664
3, 168588, Pitch_bend_c, 1, 1536
3, 168604, Note_on_c, 1, 40, 53
3, 168612, Pitch_bend_c, 1, 1792
3, 168620, Pitch_bend_c, 1, 2048
3, 168624, Pitch_bend_c, 1, 2304
3, 168628, Pitch_bend_c, 1, 2432
3, 168632, Pitch_bend_c, 1, 2688
3, 168636, Pitch_bend_c, 1, 2816
3, 168640, Pitch_bend_c, 1, 3072
3, 168644, Pitch_bend_c, 1, 3200
3, 168648, Pitch_bend_c, 1, 3456
3, 168656, Pitch_bend_c, 1, 3584
3, 168660, Pitch_bend_c, 1, 3712
3, 168664, Pitch_bend_c, 1, 3968
3, 168668, Pitch_bend_c, 1, 4096
3, 168672, Pitch_bend_c, 1, 4352
3, 168676, Pitch_bend_c, 1, 4736
3, 168680, Pitch_bend_c, 1, 5120
3, 168684, Pitch_bend_c, 1, 5632
3, 168688, Pitch_bend_c, 1, 6016
3, 168692, Pitch_bend_c, 1, 6400
3, 168696, Pitch_bend_c, 1, 6656
3, 168700, Pitch_bend_c, 1, 6912
3, 168704, Pitch_bend_c, 1, 7168
3, 168708, Pitch_bend_c, 1, 7424
3, 168712, Pitch_bend_c, 1, 7552
3, 168716, Pitch_bend_c, 1, 8192
3, 168716, Pitch_bend_c, 1, 8192
3, 168724, Pitch_bend_c, 1, 8192
3, 168728, Pitch_bend_c, 1, 8192
3, 168972, Note_on_c, 1, 40, 0
3, 169020, Note_on_c, 1, 43, 45
3, 169244, Note_on_c, 1, 43, 0
3, 169252, Note_on_c, 1, 42, 61
3, 169348, Note_on_c, 1, 42, 0
3, 169380, Note_on_c, 1, 41, 37
3, 169600, Note_on_c, 1, 36, 62
3, 169648, Note_on_c, 1, 41, 0
3, 169668, Note_on_c, 1, 36, 0
3, 169724, Note_on_c, 1, 33, 53
3, 170040, Note_on_c, 1, 33, 0
3, 170096, Note_on_c, 1, 33, 49
3, 170256, Note_on_c, 1, 33, 0
3, 170480, Note_on_c, 1, 33, 60
3, 170620, Note_on_c, 1, 34, 64
3, 170632, Note_on_c, 1, 33, 0
3, 170660, Pitch_bend_c, 1, 8192
3, 170664, Pitch_bend_c, 1, 8192
3, 170668, Pitch_bend_c, 1, 8192
3, 170676, Pitch_bend_c, 1, 8842
3, 170680, Pitch_bend_c, 1, 9102
3, 170684, Pitch_bend_c, 1, 9232
3, 170688, Pitch_bend_c, 1, 9492
3, 170692, Pitch_bend_c, 1, 9752
3, 170696, Pitch_bend_c, 1, 10012
3, 170700, Pitch_bend_c, 1, 10142
3, 170704, Pitch_bend_c, 1, 10402
3, 170708, Pitch_bend_c, 1, 10792
3, 170712, Pitch_bend_c, 1, 10922
3, 170716, Pitch_bend_c, 1, 11312
3, 170720, Pitch_bend_c, 1, 11572
3, 170724, Pitch_bend_c, 1, 11832
3, 170728, Pitch_bend_c, 1, 12092
3, 170732, Pitch_bend_c, 1, 12222
3, 170736, Pitch_bend_c, 1, 12352
3, 170740, Pitch_bend_c, 1, 12612
3, 170744, Pitch_bend_c, 1, 12742
3, 170752, Pitch_bend_c, 1, 12872
3, 170756, Pitch_bend_c, 1, 13002
3, 170788, Pitch_bend_c, 1, 12872
3, 170796, Pitch_bend_c, 1, 12742
3, 170800, Pitch_bend_c, 1, 12612
3, 170808, Pitch_bend_c, 1, 12482
3, 170812, Pitch_bend_c, 1, 12352
3, 170816, Pitch_bend_c, 1, 12222
3, 170820, Pitch_bend_c, 1, 12092
3, 170824, Pitch_bend_c, 1, 11962
3, 170828, Pitch_bend_c, 1, 11832
3, 170832, Pitch_bend_c, 1, 11702
3, 170836, Pitch_bend_c, 1, 11442
3, 170840, Pitch_bend_c, 1, 11312
3, 170840, Pitch_bend_c, 1, 10922
3, 170844, Pitch_bend_c, 1, 10792
3, 170848, Pitch_bend_c, 1, 10402
3, 170852, Pitch_bend_c, 1, 10012
3, 170856, Pitch_bend_c, 1, 9622
3, 170860, Pitch_bend_c, 1, 9102
3, 170864, Pitch_bend_c, 1, 8712
3, 170868, Pitch_bend_c, 1, 8192
3, 170872, Pitch_bend_c, 1, 8192
3, 171268, Note_on_c, 1, 33, 44
3, 171300, Note_on_c, 1, 34, 0
3, 171516, Note_on_c, 1, 33, 0
3, 171520, Note_on_c, 1, 34, 51
3, 171652, Note_on_c, 1, 34, 0
3, 171668, Note_on_c, 1, 38, 50
3, 171908, Note_on_c, 1, 38, 0
3, 171920, Note_on_c, 1, 50, 58
3, 172404, Note_on_c, 1, 50, 0
3, 172440, Note_on_c, 1, 46, 43
3, 172788, Note_on_c, 1, 46, 0
3, 172796, Note_on_c, 1, 41, 33
3, 173020, Note_on_c, 1, 41, 0
3, 173036, Note_on_c, 1, 40, 55
3, 173104, Note_on_c, 1, 40, 0
3, 173152, Note_on_c, 1, 39, 36
3, 173436, Note_on_c, 1, 37, 28
3, 173460, Note_on_c, 1, 39, 0
3, 173508, Note_on_c, 1, 37, 0
3, 173536, Note_on_c, 1, 38, 37
3, 173684, Note_on_c, 1, 50, 48
3, 173876, Note_on_c, 1, 50, 0
3, 173956, Note_on_c, 1, 50, 54
3, 174060, Note_on_c, 1, 38, 0
3, 174196, Note_on_c, 1, 50, 0
3, 174204, Note_on_c, 1, 38, 68
3, 174872, Note_on_c, 1, 50, 66
3, 174940, Note_on_c, 1, 50, 0
3, 174976, Note_on_c, 1, 49, 40
3, 174992, Note_on_c, 1, 49, 0
3, 175108, Note_on_c, 1, 50, 68
3, 175124, Note_on_c, 1, 38, 0
3, 175236, Note_on_c, 1, 50, 0
3, 175256, Note_on_c, 1, 38, 74
3, 175476, Note_on_c, 1, 38, 0
3, 175512, Note_on_c, 1, 38, 76
3, 176012, Note_on_c, 1, 50, 69
3, 176072, Note_on_c, 1, 50, 0
3, 176128, Note_on_c, 1, 49, 38
3, 176208, Note_on_c, 1, 49, 0
3, 176248, Note_on_c, 1, 50, 61
3, 176272, Note_on_c, 1, 38, 0
3, 176336, Note_on_c, 1, 50, 0
3, 176360, Note_on_c, 1, 38, 74
3, 177024, Note_on_c, 1, 50, 57
3, 177140, Note_on_c, 1, 50, 0
3, 177152, Note_on_c, 1, 49, 34
3, 177212, Note_on_c, 1, 49, 0
3, 177260, Note_on_c, 1, 50, 64
3, 177584, Note_on_c, 1, 38, 0
3, 177660, Note_on_c, 1, 38, 56
3, 177716, Note_on_c, 1, 50, 0
3, 177796, Note_on_c, 1, 49, 50
3, 177812, Note_on_c, 1, 49, 0
3, 177908, Note_on_c, 1, 33, 64
3, 177912, Note_on_c, 1, 38, 0
3, 177968, Note_on_c, 1, 33, 0
3, 178032, Note_on_c, 1, 32, 63
3, 178140, Note_on_c, 1, 32, 0
3, 178164, Note_on_c, 1, 31, 60
3, 178544, Note_on_c, 1, 31, 0
3, 178544, Note_on_c, 1, 38, 51
3, 178832, Pitch_bend_c, 1, 8192
3, 178832, Pitch_bend_c, 1, 8192
3, 178836, Pitch_bend_c, 1, 8192
3, 178836, Pitch_bend_c, 1, 8192
3, 178840, Pitch_bend_c, 1, 7680
3, 178844, Pitch_bend_c, 1, 7424
3, 178848, Pitch_bend_c, 1, 7040
3, 178852, Pitch_bend_c, 1, 6656
3, 178856, Pitch_bend_c, 1, 6400
3, 178860, Pitch_bend_c, 1, 6016
3, 178864, Pitch_bend_c, 1, 5632
3, 178868, Pitch_bend_c, 1, 5376
3, 178872, Pitch_bend_c, 1, 4864
3, 178876, Pitch_bend_c, 1, 4608
3, 178880, Pitch_bend_c, 1, 4352
3, 178884, Pitch_bend_c, 1, 4096
3, 178888, Pitch_bend_c, 1, 3968
3, 178892, Pitch_bend_c, 1, 3712
3, 178896, Pitch_bend_c, 1, 3456
3, 178900, Pitch_bend_c, 1, 3328
3, 178904, Pitch_bend_c, 1, 3072
3, 178908, Pitch_bend_c, 1, 2944
3, 178912, Pitch_bend_c, 1, 2816
3, 178916, Note_on_c, 1, 38, 0
3, 178916, Pitch_bend_c, 1, 2688
3, 178924, Pitch_bend_c, 1, 2432
3, 178940, Pitch_bend_c, 1, 2560
3, 178944, Pitch_bend_c, 1, 2688
3, 178948, Pitch_bend_c, 1, 2944
3, 178952, Pitch_bend_c, 1, 3072
3, 178956, Pitch_bend_c, 1, 3200
3, 178956, Note_on_c, 1, 43, 57
3, 178960, Pitch_bend_c, 1, 3456
3, 178964, Pitch_bend_c, 1, 3584
3, 178968, Pitch_bend_c, 1, 3712
3, 178972, Pitch_bend_c, 1, 3840
3, 178976, Pitch_bend_c, 1, 4096
3, 178980, Pitch_bend_c, 1, 4352
3, 178984, Pitch_bend_c, 1, 4480
3, 178988, Pitch_bend_c, 1, 4608
3, 178992, Pitch_bend_c, 1, 4864
3, 178996, Pitch_bend_c, 1, 4992
3, 179000, Pitch_bend_c, 1, 5376
3, 179004, Pitch_bend_c, 1, 5504
3, 179008, Pitch_bend_c, 1, 5632
3, 179012, Pitch_bend_c, 1, 5760
3, 179016, Pitch_bend_c, 1, 5888
3, 179020, Pitch_bend_c, 1, 6016
3, 179024, Pitch_bend_c, 1, 6272
3, 179028, Pitch_bend_c, 1, 6400
3, 179032, Pitch_bend_c, 1, 6528
3, 179040, Pitch_bend_c, 1, 6656
3, 179048, Pitch_bend_c, 1, 6912
3, 179056, Pitch_bend_c, 1, 7040
3, 179060, Pitch_bend_c, 1, 7168
3, 179064, Pitch_bend_c, 1, 7296
3, 179072, Pitch_bend_c, 1, 7424
3, 179076, Pitch_bend_c, 1, 7552
3, 179080, Pitch_bend_c, 1, 7680
3, 179088, Pitch_bend_c, 1, 8192
3, 179088, Pitch_bend_c, 1, 8192
3, 179096, Pitch_bend_c, 1, 8192
3, 179104, Pitch_bend_c, 1, 8192
3, 179352, Note_on_c, 1, 38, 44
3, 179360, Note_on_c, 1, 43, 0
3, 179648, Note_on_c, 1, 38, 0
3, 179716, Note_on_c, 1, 33, 65
3, 179772, Note_on_c, 1, 33, 0
3, 179924, Pitch_bend_c, 1, 8192
3, 179932, Pitch_bend_c, 1, 8192
3, 179940, Pitch_bend_c, 1, 7552
3, 179944, Pitch_bend_c, 1, 7296
3, 179948, Pitch_bend_c, 1, 7040
3, 179952, Pitch_bend_c, 1, 6784
3, 179956, Pitch_bend_c, 1, 6528
3, 179960, Pitch_bend_c, 1, 6272
3, 179964, Pitch_bend_c, 1, 6016
3, 179964, Pitch_bend_c, 1, 5760
3, 179968, Note_on_c, 1, 38, 80
3, 179972, Pitch_bend_c, 1, 5504
3, 179976, Pitch_bend_c, 1, 5120
3, 179980, Pitch_bend_c, 1, 4864
3, 179984, Pitch_bend_c, 1, 4608
3, 179988, Pitch_bend_c, 1, 4352
3, 179992, Pitch_bend_c, 1, 4224
3, 179992, Pitch_bend_c, 1, 3968
3, 179996, Pitch_bend_c, 1, 3840
3, 180000, Pitch_bend_c, 1, 3584
3, 180004, Pitch_bend_c, 1, 3456
3, 180012, Pitch_bend_c, 1, 3328
3, 180028, Pitch_bend_c, 1, 3584
3, 180032, Pitch_bend_c, 1, 3712
3, 180036, Pitch_bend_c, 1, 3968
3, 180040, Pitch_bend_c, 1, 4352
3, 180044, Pitch_bend_c, 1, 4736
3, 180048, Pitch_bend_c, 1, 4992
3, 180052, Pitch_bend_c, 1, 5504
3, 180056, Pitch_bend_c, 1, 5888
3, 180060, Pitch_bend_c, 1, 6144
3, 180064, Pitch_bend_c, 1, 6528
3, 180068, Pitch_bend_c, 1, 6656
3, 180072, Pitch_bend_c, 1, 6784
3, 180076, Pitch_bend_c, 1, 6912
3, 180080, Pitch_bend_c, 1, 7040
3, 180084, Pitch_bend_c, 1, 7168
3, 180092, Pitch_bend_c, 1, 7296
3, 180112, Pitch_bend_c, 1, 7424
3, 180120, Pitch_bend_c, 1, 7552
3, 180124, Pitch_bend_c, 1, 7680
3, 180128, Pitch_bend_c, 1, 8192
3, 180132, Pitch_bend_c, 1, 8192
3, 180140, Pitch_bend_c, 1, 8192
3, 180144, Pitch_bend_c, 1, 8192
3, 180596, Pitch_bend_c, 1, 8192
3, 180608, Pitch_bend_c, 1, 8192
3, 180612, Pitch_bend_c, 1, 8192
3, 180616, Note_on_c, 1, 38, 0
3, 180620, Pitch_bend_c, 1, 7552
3, 180624, Pitch_bend_c, 1, 7296
3, 180628, Pitch_bend_c, 1, 7168
3, 180632, Pitch_bend_c, 1, 6912
3, 180636, Pitch_bend_c, 1, 6656
3, 180640, Pitch_bend_c, 1, 6528
3, 180644, Pitch_bend_c, 1, 6400
3, 180648, Pitch_bend_c, 1, 6272
3, 180652, Pitch_bend_c, 1, 6016
3, 180656, Pitch_bend_c, 1, 5888
3, 180660, Pitch_bend_c, 1, 5760
3, 180668, Pitch_bend_c, 1, 5632
3, 180676, Pitch_bend_c, 1, 5504
3, 180684, Pitch_bend_c, 1, 5376
3, 180716, Pitch_bend_c, 1, 5632
3, 180720, Pitch_bend_c, 1, 5760
3, 180720, Note_on_c, 1, 38, 71
3, 180724, Pitch_bend_c, 1, 6016
3, 180728, Pitch_bend_c, 1, 6400
3, 180732, Pitch_bend_c, 1, 6656
3, 180736, Pitch_bend_c, 1, 6784
3, 180740, Pitch_bend_c, 1, 7040
3, 180744, Pitch_bend_c, 1, 7296
3, 180748, Pitch_bend_c, 1, 7424
3, 180752, Pitch_bend_c, 1, 7552
3, 180756, Pitch_bend_c, 1, 8192
3, 180756, Pitch_bend_c, 1, 8192
3, 180760, Pitch_bend_c, 1, 8192
3, 180760, Pitch_bend_c, 1, 8192
3, 180768, Pitch_bend_c, 1, 8192
3, 181228, Note_on_c, 1, 38, 0
3, 181240, Note_on_c, 1, 43, 61
3, 181508, Note_on_c, 1, 43, 0
3, 181508, Note_on_c, 1, 38, 49
3, 181536, Note_on_c, 1, 38, 0
3, 181620, Note_on_c, 1, 34, 55
3, 181984, Note_on_c, 1, 34, 0
3, 181984, Note_on_c, 1, 33, 59
3, 182300, Note_on_c, 1, 33, 0
3, 182364, Note_on_c, 1, 34, 64
3, 182616, Note_on_c, 1, 34, 0
3, 182640, Note_on_c, 1, 35, 54
3, 182760, Note_on_c, 1, 35, 0
3, 182764, Note_on_c, 1, 36, 48
3, 183164, Note_on_c, 1, 38, 66
3, 183176, Note_on_c, 1, 36, 0
3, 183424, Note_on_c, 1, 36, 38
3, 183492, Note_on_c, 1, 38, 0
3, 183496, Note_on_c, 1, 36, 0
3, 183540, Note_on_c, 1, 40, 36
3, 183812, Note_on_c, 1, 40, 0
3, 183820, Note_on_c, 1, 42, 69
3, 183936, Note_on_c, 1, 42, 0
3, 183960, Note_on_c, 1, 41, 32
3, 184192, Note_on_c, 1, 49, 69
3, 184196, Note_on_c, 1, 41, 0
3, 184292, Note_on_c, 1, 49, 0
3, 184332, Note_on_c, 1, 48, 43
3, 184512, Note_on_c, 1, 48, 0
3, 184564, Note_on_c, 1, 42, 70
3, 184652, Note_on_c, 1, 42, 0
3, 184696, Note_on_c, 1, 41, 36
3, 184936, Note_on_c, 1, 36, 52
3, 184984, Note_on_c, 1, 41, 0
3, 185012, Note_on_c, 1, 36, 0
3, 185060, Note_on_c, 1, 35, 51
3, 185444, Note_on_c, 1, 47, 51
3, 185496, Note_on_c, 1, 35, 0
3, 185700, Note_on_c, 1, 35, 38
3, 185712, Note_on_c, 1, 47, 0
3, 185804, Note_on_c, 1, 35, 0
3, 185836, Note_on_c, 1, 34, 31
3, 186232, Note_on_c, 1, 50, 50
3, 186308, Note_on_c, 1, 34, 0
3, 186592, Note_on_c, 1, 50, 0
3, 186636, Note_on_c, 1, 48, 43
3, 186888, Note_on_c, 1, 34, 32
3, 186940, Note_on_c, 1, 34, 0
3, 186984, Note_on_c, 1, 48, 0
3, 187012, Note_on_c, 1, 46, 35
3, 187360, Note_on_c, 1, 46, 0
3, 187368, Note_on_c, 1, 45, 50
3, 187764, Note_on_c, 1, 45, 0
3, 187768, Note_on_c, 1, 39, 62
3, 188156, Note_on_c, 1, 33, 53
3, 188160, Note_on_c, 1, 39, 0
3, 188544, Note_on_c, 1, 39, 48
3, 188556, Note_on_c, 1, 33, 0
3, 188808, Note_on_c, 1, 39, 0
3, 188808, Note_on_c, 1, 33, 42
3, 188904, Note_on_c, 1, 33, 0
3, 188932, Note_on_c, 1, 38, 48
3, 189180, Note_on_c, 1, 38, 0
3, 189200, Note_on_c, 1, 32, 57
3, 189320, Note_on_c, 1, 50, 67
3, 189656, Note_on_c, 1, 50, 0
3, 189688, Note_on_c, 1, 44, 53
3, 189700, Note_on_c, 1, 32, 0
3, 189952, Note_on_c, 1, 32, 48
3, 189984, Note_on_c, 1, 32, 0
3, 190064, Note_on_c, 1, 44, 0
3, 190072, Note_on_c, 1, 42, 37
3, 190264, Note_on_c, 1, 42, 0
3, 190312, Note_on_c, 1, 43, 65
3, 190572, Note_on_c, 1, 38, 47
3, 190624, Note_on_c, 1, 38, 0
3, 190684, Note_on_c, 1, 34, 51
3, 190788, Note_on_c, 1, 34, 0
3, 190796, Note_on_c, 1, 43, 0
3, 190812, Note_on_c, 1, 35, 60
3, 191208, Note_on_c, 1, 35, 0
3, 191216, Note_on_c, 1, 31, 49
3, 191468, Note_on_c, 1, 34, 50
3, 191528, Note_on_c, 1, 31, 0
3, 191584, Note_on_c, 1, 34, 0
3, 191604, Note_on_c, 1, 35, 56
3, 191864, Note_on_c, 1, 34, 30
3, 191916, Note_on_c, 1, 35, 0
3, 191944, Note_on_c, 1, 34, 0
3, 191976, Note_on_c, 1, 36, 49
3, 192296, Note_on_c, 1, 34, 21
3, 192368, Note_on_c, 1, 36, 0
3, 192372, Note_on_c, 1, 38, 57
3, 192376, Note_on_c, 1, 34, 0
3, 192644, Note_on_c, 1, 36, 32
3, 192716, Note_on_c, 1, 36, 0
3, 192720, Note_on_c, 1, 38, 0
3, 192764, Note_on_c, 1, 39, 38
3, 193036, Note_on_c, 1, 36, 42
3, 193060, Note_on_c, 1, 36, 0
3, 193144, Note_on_c, 1, 39, 0
3, 193148, Note_on_c, 1, 40, 56
3, 193380, Note_on_c, 1, 36, 31
3, 193400, Note_on_c, 1, 36, 0
3, 193516, Note_on_c, 1, 40, 0
3, 193520, Note_on_c, 1, 41, 53
3, 193776, Note_on_c, 1, 36, 62
3, 193864, Note_on_c, 1, 36, 0
3, 193888, Note_on_c, 1, 29, 70
3, 193912, Note_on_c, 1, 41, 0
3, 194180, Note_on_c, 1, 36, 53
3, 194204, Note_on_c, 1, 36, 0
3, 194300, Note_on_c, 1, 41, 80
3, 194360, Note_on_c, 1, 29, 0
3, 194556, Note_on_c, 1, 36, 61
3, 194580, Note_on_c, 1, 36, 0
3, 194660, Note_on_c, 1, 41, 0
3, 194688, Note_on_c, 1, 39, 69
3, 194940, Note_on_c, 1, 34, 46
3, 194984, Note_on_c, 1, 34, 0
3, 195072, Note_on_c, 1, 39, 0
3, 195084, Note_on_c, 1, 38, 54
3, 195312, Note_on_c, 1, 34, 39
3, 195376, Note_on_c, 1, 38, 0
3, 195416, Note_on_c, 1, 34, 0
3, 195432, Note_on_c, 1, 50, 71
3, 195484, Note_on_c, 1, 38, 19
3, 195508, Note_on_c, 1, 38, 0
3, 195784, Note_on_c, 1, 50, 0
3, 195816, Note_on_c, 1, 45, 48
3, 196092, Note_on_c, 1, 37, 38
3, 196128, Note_on_c, 1, 37, 0
3, 196216, Note_on_c, 1, 45, 0
3, 196216, Note_on_c, 1, 42, 55
3, 196720, Note_on_c, 1, 42, 0
3, 196728, Note_on_c, 1, 43, 62
3, 196764, Note_on_c, 1, 43, 0
3, 196844, Note_on_c, 1, 38, 58
3, 196936, Note_on_c, 1, 38, 0
3, 196980, Note_on_c, 1, 32, 59
3, 197344, Note_on_c, 1, 32, 0
3, 197364, Note_on_c, 1, 31, 54
3, 197480, Note_on_c, 1, 33, 73
3, 197508, Note_on_c, 1, 31, 0
3, 197732, Note_on_c, 1, 33, 0
3, 197752, Note_on_c, 1, 34, 54
3, 197956, Note_on_c, 1, 34, 0
3, 197996, Note_on_c, 1, 35, 60
3, 198120, Note_on_c, 1, 35, 0
3, 198124, Note_on_c, 1, 36, 58
3, 198452, Note_on_c, 1, 35, 20
3, 198464, Note_on_c, 1, 36, 0
3, 198480, Note_on_c, 1, 35, 0
3, 198504, Note_on_c, 1, 38, 60
3, 198788, Note_on_c, 1, 36, 33
3, 198816, Note_on_c, 1, 36, 0
3, 198860, Note_on_c, 1, 38, 0
3, 198892, Note_on_c, 1, 39, 57
3, 199196, Note_on_c, 1, 36, 37
3, 199220, Note_on_c, 1, 36, 0
3, 199268, Note_on_c, 1, 39, 0
3, 199284, Note_on_c, 1, 40, 50
3, 199544, Note_on_c, 1, 36, 33
3, 199564, Note_on_c, 1, 36, 0
3, 199660, Note_on_c, 1, 40, 0
3, 199664, Note_on_c, 1, 41, 64
3, 199720, Note_on_c, 1, 41, 0
3, 199928, Note_on_c, 1, 29, 87
3, 200592, Note_on_c, 1, 32, 57
3, 200596, Note_on_c, 1, 29, 0
3, 200644, Note_on_c, 1, 32, 0
3, 200848, Note_on_c, 1, 33, 73
3, 201092, Note_on_c, 1, 34, 75
3, 201112, Note_on_c, 1, 33, 0
3, 201460, Note_on_c, 1, 34, 0
3, 201476, Note_on_c, 1, 38, 71
3, 201960, Note_on_c, 1, 38, 0
3, 202012, Note_on_c, 1, 39, 62
3, 202208, Note_on_c, 1, 39, 0
3, 202392, Note_on_c, 1, 40, 46
3, 202608, Note_on_c, 1, 40, 0
3, 202768, Note_on_c, 1, 41, 37
3, 202980, Note_on_c, 1, 41, 0
3, 203008, Note_on_c, 1, 43, 52
3, 203100, Note_on_c, 1, 43, 0
3, 203140, Note_on_c, 1, 45, 45
3, 203180, Note_on_c, 1, 45, 0
3, 203380, Note_on_c, 1, 46, 64
3, 203380, Control_c, 1, 1, 4
3, 203384, Control_c, 1, 1, 6
3, 203384, Control_c, 1, 1, 8
3, 203388, Control_c, 1, 1, 10
3, 203392, Control_c, 1, 1, 12
3, 203392, Control_c, 1, 1, 14
3, 203396, Control_c, 1, 1, 16
3, 203396, Control_c, 1, 1, 19
3, 203400, Control_c, 1, 1, 21
3, 203400, Control_c, 1, 1, 22
3, 203404, Control_c, 1, 1, 24
3, 203408, Control_c, 1, 1, 26
3, 203408, Control_c, 1, 1, 29
3, 203412, Control_c, 1, 1, 31
3, 203412, Control_c, 1, 1, 32
3, 203416, Control_c, 1, 1, 34
3, 203420, Control_c, 1, 1, 35
3, 203420, Control_c, 1, 1, 37
3, 203424, Control_c, 1, 1, 38
3, 203424, Control_c, 1, 1, 40
3, 203428, Control_c, 1, 1, 42
3, 203432, Control_c, 1, 1, 43
3, 203432, Control_c, 1, 1, 44
3, 203436, Control_c, 1, 1, 45
3, 203436, Control_c, 1, 1, 46
3, 203444, Control_c, 1, 1, 49
3, 203444, Control_c, 1, 1, 50
3, 203448, Control_c, 1, 1, 51
3, 203452, Control_c, 1, 1, 54
3, 203460, Control_c, 1, 1, 56
3, 203464, Control_c, 1, 1, 57
3, 203468, Control_c, 1, 1, 58
3, 203472, Control_c, 1, 1, 59
3, 203476, Control_c, 1, 1, 61
3, 203484, Control_c, 1, 1, 62
3, 203492, Control_c, 1, 1, 64
3, 203500, Control_c, 1, 1, 65
3, 203504, Control_c, 1, 1, 66
3, 203512, Control_c, 1, 1, 67
3, 203524, Control_c, 1, 1, 68
3, 203568, Control_c, 1, 1, 69
3, 203580, Control_c, 1, 1, 70
3, 203584, Control_c, 1, 1, 71
3, 203612, Control_c, 1, 1, 69
3, 203620, Control_c, 1, 1, 68
3, 203620, Control_c, 1, 1, 67
3, 203624, Control_c, 1, 1, 66
3, 203628, Control_c, 1, 1, 63
3, 203632, Control_c, 1, 1, 62
3, 203632, Control_c, 1, 1, 61
3, 203636, Control_c, 1, 1, 60
3, 203644, Control_c, 1, 1, 58
3, 203644, Control_c, 1, 1, 57
3, 203648, Control_c, 1, 1, 56
3, 203652, Control_c, 1, 1, 53
3, 203656, Control_c, 1, 1, 52
3, 203656, Control_c, 1, 1, 51
3, 203660, Control_c, 1, 1, 49
3, 203664, Control_c, 1, 1, 48
3, 203664, Control_c, 1, 1, 47
3, 203668, Control_c, 1, 1, 46
3, 203668, Control_c, 1, 1, 44
3, 203672, Control_c, 1, 1, 42
3, 203672, Control_c, 1, 1, 41
3, 203676, Control_c, 1, 1, 39
3, 203680, Control_c, 1, 1, 37
3, 203680, Control_c, 1, 1, 36
3, 203684, Control_c, 1, 1, 34
3, 203684, Control_c, 1, 1, 33
3, 203688, Control_c, 1, 1, 31
3, 203692, Control_c, 1, 1, 29
3, 203692, Control_c, 1, 1, 27
3, 203696, Control_c, 1, 1, 25
3, 203696, Control_c, 1, 1, 23
3, 203700, Control_c, 1, 1, 21
3, 203704, Control_c, 1, 1, 19
3, 203704, Control_c, 1, 1, 17
3, 203708, Control_c, 1, 1, 16
3, 203708, Control_c, 1, 1, 13
3, 203712, Control_c, 1, 1, 11
3, 203712, Control_c, 1, 1, 9
3, 203716, Control_c, 1, 1, 7
3, 203720, Control_c, 1, 1, 5
3, 203720, Control_c, 1, 1, 3
3, 203724, Control_c, 1, 1, 1
3, 203732, Control_c, 1, 1, 0
3, 205400, Note_on_c, 1, 46, 0
3, 205400, End_track
4, 0, Start_track
4, 0, MIDI_port, 0
4, 0, Title_t, "Set to GenMidiBRUSH SET"
4, 0, Program_c, 9, 32
4, 0, Control_c, 9, 7, 80
4, 0, Control_c, 9, 7, 100
4, 0, Note_on_c, 9, 24, 34
4, 0, Control_c, 9, 0, 127
4, 0, Control_c, 9, 32, 0
4, 0, Control_c, 9, 7, 81
4, 0, Control_c, 9, 0, 127
4, 0, Control_c, 9, 32, 0
4, 0, Control_c, 9, 7, 70
4, 120, Note_on_c, 9, 24, 0
4, 376, Note_on_c, 9, 24, 36
4, 496, Note_on_c, 9, 24, 0
4, 760, Note_on_c, 9, 24, 27
4, 888, Note_on_c, 9, 24, 0
4, 1144, Note_on_c, 9, 24, 40
4, 1168, Note_on_c, 9, 24, 0
4, 1516, Note_on_c, 9, 35, 50
4, 1516, Note_on_c, 9, 59, 24
4, 1536, Note_on_c, 9, 35, 0
4, 1832, Note_on_c, 9, 59, 0
4, 1900, Note_on_c, 9, 59, 40
4, 2168, Note_on_c, 9, 35, 46
4, 2188, Note_on_c, 9, 35, 0
4, 2224, Note_on_c, 9, 59, 0
4, 2284, Note_on_c, 9, 59, 37
4, 2616, Note_on_c, 9, 59, 0
4, 2668, Note_on_c, 9, 59, 44
4, 2964, Note_on_c, 9, 59, 0
4, 3052, Note_on_c, 9, 59, 57
4, 3384, Note_on_c, 9, 59, 0
4, 3436, Note_on_c, 9, 59, 42
4, 3680, Note_on_c, 9, 35, 50
4, 3700, Note_on_c, 9, 59, 0
4, 3713, Note_on_c, 9, 59, 59
4, 3777, Note_on_c, 9, 59, 0
4, 3780, Note_on_c, 9, 35, 0
4, 3820, Note_on_c, 9, 59, 41
4, 3832, Note_on_c, 9, 35, 38
4, 4044, Note_on_c, 9, 35, 0
4, 4076, Note_on_c, 9, 35, 28
4, 4112, Note_on_c, 9, 35, 0
4, 4148, Note_on_c, 9, 59, 0
4, 4204, Note_on_c, 9, 59, 32
4, 4408, Note_on_c, 9, 59, 0
4, 4460, Note_on_c, 9, 59, 59
4, 4524, Note_on_c, 9, 59, 0
4, 4588, Note_on_c, 9, 59, 45
4, 4884, Note_on_c, 9, 59, 0
4, 4972, Note_on_c, 9, 59, 45
4, 5212, Note_on_c, 9, 59, 0
4, 5249, Note_on_c, 9, 59, 53
4, 5333, Note_on_c, 9, 59, 0
4, 5356, Note_on_c, 9, 59, 39
4, 5584, Note_on_c, 9, 59, 0
4, 5633, Note_on_c, 9, 59, 65
4, 5697, Note_on_c, 9, 59, 0
4, 5740, Note_on_c, 9, 59, 47
4, 6012, Note_on_c, 9, 59, 0
4, 6124, Note_on_c, 9, 59, 39
4, 6440, Note_on_c, 9, 59, 0
4, 6508, Note_on_c, 9, 59, 33
4, 6778, Note_on_c, 9, 35, 50
4, 6798, Note_on_c, 9, 35, 0
4, 6836, Note_on_c, 9, 59, 0
4, 6892, Note_on_c, 9, 59, 35
4, 7028, Note_on_c, 9, 59, 0
4, 7059, Note_on_c, 9, 38, 58
4, 7148, Note_on_c, 9, 59, 42
4, 7155, Note_on_c, 9, 38, 0
4, 7166, Note_on_c, 9, 35, 45
4, 7190, Note_on_c, 9, 35, 0
4, 7232, Note_on_c, 9, 59, 0
4, 7276, Note_on_c, 9, 59, 51
4, 7288, Note_on_c, 9, 46, 36
4, 7400, Note_on_c, 9, 46, 0
4, 7576, Note_on_c, 9, 59, 0
4, 7586, Note_on_c, 9, 35, 49
4, 7660, Note_on_c, 9, 59, 45
4, 7666, Note_on_c, 9, 35, 0
4, 7722, Note_on_c, 9, 35, 40
4, 7842, Note_on_c, 9, 35, 0
4, 7948, Note_on_c, 9, 59, 0
4, 8044, Note_on_c, 9, 59, 39
4, 8310, Note_on_c, 9, 35, 46
4, 8330, Note_on_c, 9, 35, 0
4, 8344, Note_on_c, 9, 59, 0
4, 8428, Note_on_c, 9, 59, 42
4, 8684, Note_on_c, 9, 59, 0
4, 8705, Note_on_c, 9, 59, 48
4, 8769, Note_on_c, 9, 59, 0
4, 8812, Note_on_c, 9, 59, 38
4, 9132, Note_on_c, 9, 59, 0
4, 9196, Note_on_c, 9, 59, 38
4, 9478, Note_on_c, 9, 35, 41
4, 9506, Note_on_c, 9, 35, 0
4, 9524, Note_on_c, 9, 59, 0
4, 9580, Note_on_c, 9, 59, 47
4, 9618, Note_on_c, 9, 35, 31
4, 9730, Note_on_c, 9, 35, 0
4, 9846, Note_on_c, 9, 35, 33
4, 9878, Note_on_c, 9, 35, 0
4, 9884, Note_on_c, 9, 59, 0
4, 9964, Note_on_c, 9, 59, 38
4, 10230, Note_on_c, 9, 35, 33
4, 10262, Note_on_c, 9, 35, 0
4, 10268, Note_on_c, 9, 59, 0
4, 10348, Note_on_c, 9, 59, 44
4, 10355, Note_on_c, 9, 59, 28
4, 10391, Note_on_c, 9, 59, 0
4, 10463, Note_on_c, 9, 59, 34
4, 10495, Note_on_c, 9, 59, 0
4, 10540, Note_on_c, 9, 59, 0
4, 10598, Note_on_c, 9, 35, 30
4, 10604, Note_on_c, 9, 59, 48
4, 10646, Note_on_c, 9, 35, 0
4, 10668, Note_on_c, 9, 59, 0
4, 10732, Note_on_c, 9, 59, 42
4, 11040, Note_on_c, 9, 59, 0
4, 11116, Note_on_c, 9, 59, 39
4, 11406, Note_on_c, 9, 35, 46
4, 11434, Note_on_c, 9, 35, 0
4, 11452, Note_on_c, 9, 59, 0
4, 11500, Note_on_c, 9, 59, 30
4, 11526, Note_on_c, 9, 35, 28
4, 11586, Note_on_c, 9, 35, 0
4, 11777, Note_on_c, 9, 59, 60
4, 11788, Note_on_c, 9, 59, 0
4, 11849, Note_on_c, 9, 59, 0
4, 11884, Note_on_c, 9, 59, 39
4, 12162, Note_on_c, 9, 35, 35
4, 12186, Note_on_c, 9, 35, 0
4, 12228, Note_on_c, 9, 59, 0
4, 12268, Note_on_c, 9, 59, 58
4, 12588, Note_on_c, 9, 59, 0
4, 12652, Note_on_c, 9, 59, 53
4, 12928, Note_on_c, 9, 59, 0
4, 13036, Note_on_c, 9, 59, 35
4, 13288, Note_on_c, 9, 59, 0
4, 13420, Note_on_c, 9, 59, 44
4, 13644, Note_on_c, 9, 59, 0
4, 13697, Note_on_c, 9, 59, 65
4, 13710, Note_on_c, 9, 35, 37
4, 13738, Note_on_c, 9, 35, 0
4, 13804, Note_on_c, 9, 59, 48
4, 13809, Note_on_c, 9, 59, 0
4, 14108, Note_on_c, 9, 59, 0
4, 14188, Note_on_c, 9, 59, 40
4, 14412, Note_on_c, 9, 59, 0
4, 14454, Note_on_c, 9, 35, 43
4, 14464, Note_on_c, 9, 31, 56
4, 14474, Note_on_c, 9, 35, 0
4, 14568, Note_on_c, 9, 31, 0
4, 14572, Note_on_c, 9, 59, 40
4, 14892, Note_on_c, 9, 59, 0
4, 14956, Note_on_c, 9, 59, 50
4, 15254, Note_on_c, 9, 35, 37
4, 15276, Note_on_c, 9, 59, 0
4, 15278, Note_on_c, 9, 35, 0
4, 15340, Note_on_c, 9, 59, 42
4, 15386, Note_on_c, 9, 35, 30
4, 15418, Note_on_c, 9, 35, 0
4, 15648, Note_on_c, 9, 59, 0
4, 15724, Note_on_c, 9, 59, 40
4, 15960, Note_on_c, 9, 59, 0
4, 15990, Note_on_c, 9, 35, 40
4, 16001, Note_on_c, 9, 59, 47
4, 16014, Note_on_c, 9, 35, 0
4, 16077, Note_on_c, 9, 59, 0
4, 16108, Note_on_c, 9, 59, 33
4, 16412, Note_on_c, 9, 59, 0
4, 16492, Note_on_c, 9, 59, 38
4, 16580, Note_on_c, 9, 59, 0
4, 16640, Note_on_c, 9, 38, 34
4, 16724, Note_on_c, 9, 38, 0
4, 16748, Note_on_c, 9, 59, 64
4, 16770, Note_on_c, 9, 35, 36
4, 16820, Note_on_c, 9, 59, 0
4, 16822, Note_on_c, 9, 35, 0
4, 16876, Note_on_c, 9, 59, 49
4, 16896, Note_on_c, 9, 46, 33
4, 16898, Note_on_c, 9, 35, 32
4, 16946, Note_on_c, 9, 35, 0
4, 16948, Note_on_c, 9, 46, 0
4, 17172, Note_on_c, 9, 59, 0
4, 17260, Note_on_c, 9, 59, 53
4, 17492, Note_on_c, 9, 59, 0
4, 17537, Note_on_c, 9, 59, 55
4, 17625, Note_on_c, 9, 59, 0
4, 17644, Note_on_c, 9, 59, 35
4, 17936, Note_on_c, 9, 59, 0
4, 18028, Note_on_c, 9, 59, 38
4, 18328, Note_on_c, 9, 59, 0
4, 18412, Note_on_c, 9, 59, 36
4, 18724, Note_on_c, 9, 59, 0
4, 18796, Note_on_c, 9, 59, 41
4, 19032, Note_on_c, 9, 59, 0
4, 19073, Note_on_c, 9, 59, 50
4, 19157, Note_on_c, 9, 59, 0
4, 19180, Note_on_c, 9, 59, 36
4, 19480, Note_on_c, 9, 59, 0
4, 19564, Note_on_c, 9, 59, 41
4, 19576, Note_on_c, 9, 46, 60
4, 19664, Note_on_c, 9, 59, 0
4, 19712, Note_on_c, 9, 41, 35
4, 19718, Note_on_c, 9, 35, 32
4, 19720, Note_on_c, 9, 46, 0
4, 19742, Note_on_c, 9, 35, 0
4, 19780, Note_on_c, 9, 41, 0
4, 19820, Note_on_c, 9, 59, 50
4, 19826, Note_on_c, 9, 35, 45
4, 19878, Note_on_c, 9, 35, 0
4, 19904, Note_on_c, 9, 59, 0
4, 19948, Note_on_c, 9, 59, 38
4, 20256, Note_on_c, 9, 59, 0
4, 20332, Note_on_c, 9, 59, 45
4, 20648, Note_on_c, 9, 59, 0
4, 20716, Note_on_c, 9, 59, 38
4, 20984, Note_on_c, 9, 59, 0
4, 20993, Note_on_c, 9, 59, 57
4, 21097, Note_on_c, 9, 59, 0
4, 21100, Note_on_c, 9, 59, 39
4, 21368, Note_on_c, 9, 59, 0
4, 21377, Note_on_c, 9, 59, 68
4, 21484, Note_on_c, 9, 59, 40
4, 21505, Note_on_c, 9, 59, 0
4, 21836, Note_on_c, 9, 59, 0
4, 21868, Note_on_c, 9, 59, 41
4, 22166, Note_on_c, 9, 35, 52
4, 22196, Note_on_c, 9, 59, 0
4, 22198, Note_on_c, 9, 35, 0
4, 22252, Note_on_c, 9, 59, 36
4, 22294, Note_on_c, 9, 35, 31
4, 22334, Note_on_c, 9, 35, 0
4, 22524, Note_on_c, 9, 59, 0
4, 22529, Note_on_c, 9, 59, 61
4, 22636, Note_on_c, 9, 59, 34
4, 22641, Note_on_c, 9, 59, 0
4, 22884, Note_on_c, 9, 35, 43
4, 22912, Note_on_c, 9, 35, 0
4, 22964, Note_on_c, 9, 59, 0
4, 23020, Note_on_c, 9, 59, 48
4, 23348, Note_on_c, 9, 59, 0
4, 23404, Note_on_c, 9, 59, 41
4, 23668, Note_on_c, 9, 59, 0
4, 23672, Note_on_c, 9, 35, 35
4, 23681, Note_on_c, 9, 59, 48
4, 23700, Note_on_c, 9, 35, 0
4, 23781, Note_on_c, 9, 59, 0
4, 23788, Note_on_c, 9, 59, 40
4, 24084, Note_on_c, 9, 59, 0
4, 24172, Note_on_c, 9, 59, 44
4, 24420, Note_on_c, 9, 59, 0
4, 24449, Note_on_c, 9, 59, 47
4, 24456, Note_on_c, 9, 35, 33
4, 24480, Note_on_c, 9, 35, 0
4, 24541, Note_on_c, 9, 59, 0
4, 24556, Note_on_c, 9, 59, 40
4, 24856, Note_on_c, 9, 59, 0
4, 24940, Note_on_c, 9, 59, 41
4, 25172, Note_on_c, 9, 59, 0
4, 25204, Note_on_c, 9, 35, 38
4, 25216, Note_on_c, 9, 50, 45
4, 25228, Note_on_c, 9, 35, 0
4, 25280, Note_on_c, 9, 50, 0
4, 25324, Note_on_c, 9, 59, 35
4, 25468, Note_on_c, 9, 47, 44
4, 25492, Note_on_c, 9, 47, 0
4, 25572, Note_on_c, 9, 59, 0
4, 25584, Note_on_c, 9, 47, 59
4, 25601, Note_on_c, 9, 59, 31
4, 25612, Note_on_c, 9, 47, 0
4, 25681, Note_on_c, 9, 59, 0
4, 25704, Note_on_c, 9, 47, 74
4, 25708, Note_on_c, 9, 59, 51
4, 25764, Note_on_c, 9, 47, 0
4, 25820, Note_on_c, 9, 45, 61
4, 25864, Note_on_c, 9, 45, 0
4, 25936, Note_on_c, 9, 43, 67
4, 25948, Note_on_c, 9, 59, 0
4, 25976, Note_on_c, 9, 43, 0
4, 25985, Note_on_c, 9, 59, 67
4, 26077, Note_on_c, 9, 59, 0
4, 26084, Note_on_c, 9, 35, 41
4, 26092, Note_on_c, 9, 59, 38
4, 26112, Note_on_c, 9, 35, 0
4, 26396, Note_on_c, 9, 59, 0
4, 26476, Note_on_c, 9, 59, 46
4, 26728, Note_on_c, 9, 59, 0
4, 26736, Note_on_c, 9, 35, 49
4, 26753, Note_on_c, 9, 59, 45
4, 26760, Note_on_c, 9, 35, 0
4, 26845, Note_on_c, 9, 59, 0
4, 26860, Note_on_c, 9, 59, 47
4, 27160, Note_on_c, 9, 59, 0
4, 27244, Note_on_c, 9, 59, 44
4, 27504, Note_on_c, 9, 59, 0
4, 27521, Note_on_c, 9, 59, 34
4, 27532, Note_on_c, 9, 35, 71
4, 27572, Note_on_c, 9, 35, 0
4, 27617, Note_on_c, 9, 59, 0
4, 27628, Note_on_c, 9, 59, 45
4, 27972, Note_on_c, 9, 59, 0
4, 28012, Note_on_c, 9, 59, 36
4, 28304, Note_on_c, 9, 35, 27
4, 28308, Note_on_c, 9, 59, 0
4, 28340, Note_on_c, 9, 35, 0
4, 28396, Note_on_c, 9, 59, 40
4, 28424, Note_on_c, 9, 35, 32
4, 28584, Note_on_c, 9, 35, 0
4, 28740, Note_on_c, 9, 59, 0
4, 28780, Note_on_c, 9, 59, 47
4, 29088, Note_on_c, 9, 59, 0
4, 29164, Note_on_c, 9, 59, 44
4, 29424, Note_on_c, 9, 59, 0
4, 29441, Note_on_c, 9, 59, 52
4, 29548, Note_on_c, 9, 59, 36
4, 29561, Note_on_c, 9, 59, 0
4, 29796, Note_on_c, 9, 59, 0
4, 29825, Note_on_c, 9, 59, 62
4, 29828, Note_on_c, 9, 35, 48
4, 29848, Note_on_c, 9, 35, 0
4, 29932, Note_on_c, 9, 59, 43
4, 29933, Note_on_c, 9, 59, 0
4, 30232, Note_on_c, 9, 59, 0
4, 30316, Note_on_c, 9, 59, 44
4, 30552, Note_on_c, 9, 59, 0
4, 30568, Note_on_c, 9, 35, 48
4, 30592, Note_on_c, 9, 35, 0
4, 30593, Note_on_c, 9, 59, 51
4, 30693, Note_on_c, 9, 59, 0
4, 30700, Note_on_c, 9, 59, 47
4, 30920, Note_on_c, 9, 59, 0
4, 30976, Note_on_c, 9, 26, 58
4, 31068, Note_on_c, 9, 26, 0
4, 31084, Note_on_c, 9, 59, 48
4, 31380, Note_on_c, 9, 59, 0
4, 31468, Note_on_c, 9, 59, 39
4, 31728, Note_on_c, 9, 59, 0
4, 31763, Note_on_c, 9, 38, 50
4, 31852, Note_on_c, 9, 59, 35
4, 31907, Note_on_c, 9, 38, 0
4, 32116, Note_on_c, 9, 59, 0
4, 32147, Note_on_c, 9, 38, 59
4, 32236, Note_on_c, 9, 59, 34
4, 32271, Note_on_c, 9, 38, 0
4, 32556, Note_on_c, 9, 59, 0
4, 32620, Note_on_c, 9, 59, 39
4, 32864, Note_on_c, 9, 41, 48
4, 32884, Note_on_c, 9, 41, 0
4, 32948, Note_on_c, 9, 59, 0
4, 33004, Note_on_c, 9, 59, 43
4, 33268, Note_on_c, 9, 35, 62
4, 33288, Note_on_c, 9, 59, 0
4, 33299, Note_on_c, 9, 38, 46
4, 33344, Note_on_c, 9, 35, 0
4, 33388, Note_on_c, 9, 59, 34
4, 33431, Note_on_c, 9, 38, 0
4, 33668, Note_on_c, 9, 59, 0
4, 33683, Note_on_c, 9, 38, 53
4, 33772, Note_on_c, 9, 59, 33
4, 33823, Note_on_c, 9, 38, 0
4, 34100, Note_on_c, 9, 59, 0
4, 34156, Note_on_c, 9, 59, 41
4, 34352, Note_on_c, 9, 59, 0
4, 34412, Note_on_c, 9, 59, 35
4, 34844, Note_on_c, 9, 59, 0
4, 34924, Note_on_c, 9, 59, 43
4, 35164, Note_on_c, 9, 59, 0
4, 35219, Note_on_c, 9, 38, 48
4, 35308, Note_on_c, 9, 59, 39
4, 35328, Note_on_c, 9, 35, 47
4, 35343, Note_on_c, 9, 38, 0
4, 35560, Note_on_c, 9, 59, 0
4, 35568, Note_on_c, 9, 35, 36
4, 35592, Note_on_c, 9, 35, 0
4, 35616, Note_on_c, 9, 35, 0
4, 35692, Note_on_c, 9, 59, 46
4, 35936, Note_on_c, 9, 59, 0
4, 35987, Note_on_c, 9, 38, 35
4, 36076, Note_on_c, 9, 59, 43
4, 36111, Note_on_c, 9, 38, 0
4, 36324, Note_on_c, 9, 59, 0
4, 36352, Note_on_c, 9, 35, 32
4, 36371, Note_on_c, 9, 38, 68
4, 36376, Note_on_c, 9, 35, 0
4, 36460, Note_on_c, 9, 59, 36
4, 36476, Note_on_c, 9, 35, 19
4, 36499, Note_on_c, 9, 38, 0
4, 36500, Note_on_c, 9, 35, 0
4, 36796, Note_on_c, 9, 59, 0
4, 36844, Note_on_c, 9, 59, 45
4, 37104, Note_on_c, 9, 35, 34
4, 37132, Note_on_c, 9, 35, 0
4, 37176, Note_on_c, 9, 59, 0
4, 37228, Note_on_c, 9, 59, 38
4, 37480, Note_on_c, 9, 59, 0
4, 37484, Note_on_c, 9, 35, 39
4, 37504, Note_on_c, 9, 35, 41
4, 37508, Note_on_c, 9, 35, 0
4, 37523, Note_on_c, 9, 38, 56
4, 37568, Note_on_c, 9, 35, 0
4, 37612, Note_on_c, 9, 59, 36
4, 37707, Note_on_c, 9, 38, 0
4, 37768, Note_on_c, 9, 41, 24
4, 37784, Note_on_c, 9, 41, 0
4, 37944, Note_on_c, 9, 59, 0
4, 37996, Note_on_c, 9, 59, 41
4, 38008, Note_on_c, 9, 46, 53
4, 38012, Note_on_c, 9, 41, 34
4, 38036, Note_on_c, 9, 41, 0
4, 38096, Note_on_c, 9, 46, 0
4, 38248, Note_on_c, 9, 46, 51
4, 38256, Note_on_c, 9, 59, 0
4, 38256, Note_on_c, 9, 35, 43
4, 38291, Note_on_c, 9, 38, 50
4, 38308, Note_on_c, 9, 46, 0
4, 38380, Note_on_c, 9, 59, 34
4, 38423, Note_on_c, 9, 38, 0
4, 38500, Note_on_c, 9, 35, 0
4, 38692, Note_on_c, 9, 59, 0
4, 38764, Note_on_c, 9, 59, 40
4, 39080, Note_on_c, 9, 59, 0
4, 39148, Note_on_c, 9, 59, 40
4, 39302, Note_on_c, 9, 35, 58
4, 39348, Note_on_c, 9, 59, 0
4, 39366, Note_on_c, 9, 35, 0
4, 39443, Note_on_c, 9, 38, 51
4, 39532, Note_on_c, 9, 59, 49
4, 39555, Note_on_c, 9, 38, 0
4, 39676, Note_on_c, 9, 45, 52
4, 39696, Note_on_c, 9, 45, 0
4, 39736, Note_on_c, 9, 59, 0
4, 39788, Note_on_c, 9, 59, 71
4, 39796, Note_on_c, 9, 35, 49
4, 39848, Note_on_c, 9, 35, 0
4, 39864, Note_on_c, 9, 59, 0
4, 39916, Note_on_c, 9, 59, 34
4, 39932, Note_on_c, 9, 46, 28
4, 40000, Note_on_c, 9, 46, 0
4, 40172, Note_on_c, 9, 59, 0
4, 40211, Note_on_c, 9, 38, 42
4, 40300, Note_on_c, 9, 59, 37
4, 40327, Note_on_c, 9, 38, 0
4, 40516, Note_on_c, 9, 59, 0
4, 40556, Note_on_c, 9, 59, 29
4, 40620, Note_on_c, 9, 59, 0
4, 40684, Note_on_c, 9, 59, 47
4, 40928, Note_on_c, 9, 59, 0
4, 40961, Note_on_c, 9, 59, 65
4, 41068, Note_on_c, 9, 59, 33
4, 41069, Note_on_c, 9, 59, 0
4, 41312, Note_on_c, 9, 59, 0
4, 41345, Note_on_c, 9, 59, 65
4, 41452, Note_on_c, 9, 59, 38
4, 41453, Note_on_c, 9, 59, 0
4, 41756, Note_on_c, 9, 59, 0
4, 41836, Note_on_c, 9, 59, 42
4, 42144, Note_on_c, 9, 59, 0
4, 42220, Note_on_c, 9, 59, 38
4, 42484, Note_on_c, 9, 59, 0
4, 42515, Note_on_c, 9, 38, 48
4, 42604, Note_on_c, 9, 59, 32
4, 42643, Note_on_c, 9, 38, 0
4, 42796, Note_on_c, 9, 59, 0
4, 42860, Note_on_c, 9, 59, 59
4, 43240, Note_on_c, 9, 59, 0
4, 43265, Note_on_c, 9, 59, 46
4, 43369, Note_on_c, 9, 59, 0
4, 43372, Note_on_c, 9, 59, 42
4, 43668, Note_on_c, 9, 59, 0
4, 43756, Note_on_c, 9, 59, 39
4, 43904, Note_on_c, 9, 45, 40
4, 43940, Note_on_c, 9, 45, 0
4, 44028, Note_on_c, 9, 59, 0
4, 44033, Note_on_c, 9, 59, 58
4, 44137, Note_on_c, 9, 59, 0
4, 44140, Note_on_c, 9, 59, 35
4, 44284, Note_on_c, 9, 45, 44
4, 44328, Note_on_c, 9, 45, 0
4, 44464, Note_on_c, 9, 59, 0
4, 44524, Note_on_c, 9, 59, 46
4, 44528, Note_on_c, 9, 35, 59
4, 44580, Note_on_c, 9, 35, 0
4, 44832, Note_on_c, 9, 59, 0
4, 44908, Note_on_c, 9, 59, 39
4, 45156, Note_on_c, 9, 59, 0
4, 45176, Note_on_c, 9, 35, 38
4, 45185, Note_on_c, 9, 59, 54
4, 45200, Note_on_c, 9, 35, 0
4, 45265, Note_on_c, 9, 59, 0
4, 45292, Note_on_c, 9, 59, 35
4, 45580, Note_on_c, 9, 59, 0
4, 45676, Note_on_c, 9, 59, 39
4, 45832, Note_on_c, 9, 45, 27
4, 45852, Note_on_c, 9, 45, 0
4, 45936, Note_on_c, 9, 35, 36
4, 45964, Note_on_c, 9, 35, 0
4, 45980, Note_on_c, 9, 59, 0
4, 46060, Note_on_c, 9, 59, 40
4, 46072, Note_on_c, 9, 46, 47
4, 46076, Note_on_c, 9, 35, 51
4, 46092, Note_on_c, 9, 46, 0
4, 46112, Note_on_c, 9, 35, 0
4, 46312, Note_on_c, 9, 59, 0
4, 46337, Note_on_c, 9, 59, 42
4, 46433, Note_on_c, 9, 59, 0
4, 46444, Note_on_c, 9, 59, 38
4, 46724, Note_on_c, 9, 59, 0
4, 46724, Note_on_c, 9, 35, 45
4, 46748, Note_on_c, 9, 35, 0
4, 46828, Note_on_c, 9, 59, 44
4, 47052, Note_on_c, 9, 59, 0
4, 47105, Note_on_c, 9, 59, 48
4, 47201, Note_on_c, 9, 59, 0
4, 47212, Note_on_c, 9, 59, 39
4, 47452, Note_on_c, 9, 59, 0
4, 47480, Note_on_c, 9, 35, 36
4, 47507, Note_on_c, 9, 38, 39
4, 47516, Note_on_c, 9, 35, 0
4, 47596, Note_on_c, 9, 59, 53
4, 47607, Note_on_c, 9, 38, 0
4, 47608, Note_on_c, 9, 35, 34
4, 47616, Note_on_c, 9, 46, 48
4, 47648, Note_on_c, 9, 35, 0
4, 47728, Note_on_c, 9, 46, 0
4, 47840, Note_on_c, 9, 59, 0
4, 47891, Note_on_c, 9, 38, 50
4, 47955, Note_on_c, 9, 38, 0
4, 47980, Note_on_c, 9, 59, 50
4, 48164, Note_on_c, 9, 59, 0
4, 48236, Note_on_c, 9, 59, 53
4, 48252, Note_on_c, 9, 35, 44
4, 48276, Note_on_c, 9, 35, 0
4, 48304, Note_on_c, 9, 59, 0
4, 48364, Note_on_c, 9, 59, 35
4, 48624, Note_on_c, 9, 59, 0
4, 48641, Note_on_c, 9, 59, 60
4, 48748, Note_on_c, 9, 59, 36
4, 48761, Note_on_c, 9, 59, 0
4, 49012, Note_on_c, 9, 35, 44
4, 49056, Note_on_c, 9, 35, 0
4, 49060, Note_on_c, 9, 59, 0
4, 49132, Note_on_c, 9, 59, 43
4, 49452, Note_on_c, 9, 59, 0
4, 49516, Note_on_c, 9, 59, 43
4, 49788, Note_on_c, 9, 35, 31
4, 49792, Note_on_c, 9, 59, 0
4, 49793, Note_on_c, 9, 59, 50
4, 49812, Note_on_c, 9, 35, 0
4, 49900, Note_on_c, 9, 59, 35
4, 49909, Note_on_c, 9, 59, 0
4, 49916, Note_on_c, 9, 52, 40
4, 50028, Note_on_c, 9, 52, 0
4, 50216, Note_on_c, 9, 59, 0
4, 50284, Note_on_c, 9, 59, 39
4, 50548, Note_on_c, 9, 59, 0
4, 50552, Note_on_c, 9, 35, 68
4, 50561, Note_on_c, 9, 59, 46
4, 50596, Note_on_c, 9, 35, 0
4, 50668, Note_on_c, 9, 59, 35
4, 50685, Note_on_c, 9, 59, 0
4, 50688, Note_on_c, 9, 35, 33
4, 50752, Note_on_c, 9, 35, 0
4, 51000, Note_on_c, 9, 59, 0
4, 51052, Note_on_c, 9, 59, 37
4, 51316, Note_on_c, 9, 35, 68
4, 51328, Note_on_c, 9, 35, 51
4, 51352, Note_on_c, 9, 35, 0
4, 51364, Note_on_c, 9, 59, 0
4, 51380, Note_on_c, 9, 35, 0
4, 51436, Note_on_c, 9, 59, 42
4, 51676, Note_on_c, 9, 59, 0
4, 51713, Note_on_c, 9, 59, 55
4, 51797, Note_on_c, 9, 59, 0
4, 51820, Note_on_c, 9, 59, 34
4, 52064, Note_on_c, 9, 59, 0
4, 52076, Note_on_c, 9, 35, 43
4, 52097, Note_on_c, 9, 59, 50
4, 52132, Note_on_c, 9, 35, 0
4, 52204, Note_on_c, 9, 59, 38
4, 52204, Note_on_c, 9, 35, 32
4, 52205, Note_on_c, 9, 59, 0
4, 52244, Note_on_c, 9, 35, 0
4, 52524, Note_on_c, 9, 59, 0
4, 52588, Note_on_c, 9, 59, 45
4, 52804, Note_on_c, 9, 59, 0
4, 52844, Note_on_c, 9, 59, 50
4, 52888, Note_on_c, 9, 35, 48
4, 52960, Note_on_c, 9, 35, 0
4, 53020, Note_on_c, 9, 35, 47
4, 53208, Note_on_c, 9, 35, 0
4, 53244, Note_on_c, 9, 35, 45
4, 53276, Note_on_c, 9, 35, 0
4, 53296, Note_on_c, 9, 59, 0
4, 53356, Note_on_c, 9, 59, 54
4, 53660, Note_on_c, 9, 59, 0
4, 53740, Note_on_c, 9, 59, 39
4, 53972, Note_on_c, 9, 59, 0
4, 54035, Note_on_c, 9, 38, 48
4, 54124, Note_on_c, 9, 59, 35
4, 54151, Note_on_c, 9, 38, 0
4, 54384, Note_on_c, 9, 59, 0
4, 54419, Note_on_c, 9, 38, 58
4, 54508, Note_on_c, 9, 59, 31
4, 54575, Note_on_c, 9, 38, 0
4, 54788, Note_on_c, 9, 35, 27
4, 54812, Note_on_c, 9, 35, 0
4, 54812, Note_on_c, 9, 59, 0
4, 54892, Note_on_c, 9, 59, 38
4, 55072, Note_on_c, 9, 59, 0
4, 55148, Note_on_c, 9, 59, 52
4, 55152, Note_on_c, 9, 35, 71
4, 55208, Note_on_c, 9, 35, 0
4, 55212, Note_on_c, 9, 59, 0
4, 55276, Note_on_c, 9, 59, 29
4, 55564, Note_on_c, 9, 59, 0
4, 55660, Note_on_c, 9, 59, 42
4, 55968, Note_on_c, 9, 59, 0
4, 56044, Note_on_c, 9, 59, 36
4, 56088, Note_on_c, 9, 47, 52
4, 56108, Note_on_c, 9, 47, 0
4, 56184, Note_on_c, 9, 47, 52
4, 56208, Note_on_c, 9, 47, 0
4, 56284, Note_on_c, 9, 59, 0
4, 56312, Note_on_c, 9, 35, 47
4, 56321, Note_on_c, 9, 59, 51
4, 56336, Note_on_c, 9, 35, 0
4, 56413, Note_on_c, 9, 59, 0
4, 56428, Note_on_c, 9, 59, 34
4, 56440, Note_on_c, 9, 46, 40
4, 56456, Note_on_c, 9, 45, 65
4, 56492, Note_on_c, 9, 45, 0
4, 56552, Note_on_c, 9, 45, 54
4, 56560, Note_on_c, 9, 46, 0
4, 56572, Note_on_c, 9, 45, 0
4, 56688, Note_on_c, 9, 35, 74
4, 56688, Note_on_c, 9, 35, 62
4, 56704, Note_on_c, 9, 59, 0
4, 56780, Note_on_c, 9, 35, 0
4, 56804, Note_on_c, 9, 35, 0
4, 56812, Note_on_c, 9, 59, 40
4, 56824, Note_on_c, 9, 35, 43
4, 56856, Note_on_c, 9, 35, 0
4, 57032, Note_on_c, 9, 59, 0
4, 57089, Note_on_c, 9, 59, 54
4, 57185, Note_on_c, 9, 59, 0
4, 57196, Note_on_c, 9, 59, 40
4, 57436, Note_on_c, 9, 59, 0
4, 57472, Note_on_c, 9, 43, 51
4, 57472, Note_on_c, 9, 35, 49
4, 57473, Note_on_c, 9, 59, 40
4, 57496, Note_on_c, 9, 35, 0
4, 57536, Note_on_c, 9, 43, 0
4, 57561, Note_on_c, 9, 59, 0
4, 57580, Note_on_c, 9, 59, 35
4, 57816, Note_on_c, 9, 59, 0
4, 57857, Note_on_c, 9, 59, 51
4, 57937, Note_on_c, 9, 59, 0
4, 57964, Note_on_c, 9, 59, 38
4, 58120, Note_on_c, 9, 38, 55
4, 58144, Note_on_c, 9, 38, 0
4, 58148, Note_on_c, 9, 59, 0
4, 58220, Note_on_c, 9, 59, 64
4, 58228, Note_on_c, 9, 30, 36
4, 58284, Note_on_c, 9, 59, 0
4, 58348, Note_on_c, 9, 30, 0
4, 58348, Note_on_c, 9, 59, 26
4, 58376, Note_on_c, 9, 35, 33
4, 58436, Note_on_c, 9, 35, 0
4, 58580, Note_on_c, 9, 59, 0
4, 58625, Note_on_c, 9, 59, 45
4, 58717, Note_on_c, 9, 59, 0
4, 58732, Note_on_c, 9, 59, 34
4, 59096, Note_on_c, 9, 59, 0
4, 59116, Note_on_c, 9, 59, 50
4, 59300, Note_on_c, 9, 38, 47
4, 59324, Note_on_c, 9, 38, 0
4, 59408, Note_on_c, 9, 31, 56
4, 59436, Note_on_c, 9, 59, 0
4, 59492, Note_on_c, 9, 31, 0
4, 59500, Note_on_c, 9, 59, 34
4, 59540, Note_on_c, 9, 38, 41
4, 59580, Note_on_c, 9, 38, 0
4, 59796, Note_on_c, 9, 59, 0
4, 59884, Note_on_c, 9, 59, 51
4, 60052, Note_on_c, 9, 38, 47
4, 60080, Note_on_c, 9, 38, 0
4, 60152, Note_on_c, 9, 31, 54
4, 60200, Note_on_c, 9, 59, 0
4, 60236, Note_on_c, 9, 31, 0
4, 60268, Note_on_c, 9, 59, 38
4, 60272, Note_on_c, 9, 35, 62
4, 60372, Note_on_c, 9, 35, 0
4, 60516, Note_on_c, 9, 59, 0
4, 60545, Note_on_c, 9, 59, 55
4, 60652, Note_on_c, 9, 59, 34
4, 60653, Note_on_c, 9, 59, 0
4, 60660, Note_on_c, 9, 38, 42
4, 60704, Note_on_c, 9, 38, 0
4, 60780, Note_on_c, 9, 31, 53
4, 60812, Note_on_c, 9, 31, 0
4, 60880, Note_on_c, 9, 35, 70
4, 60956, Note_on_c, 9, 59, 0
4, 60972, Note_on_c, 9, 35, 0
4, 61036, Note_on_c, 9, 59, 39
4, 61364, Note_on_c, 9, 59, 0
4, 61420, Note_on_c, 9, 59, 44
4, 61704, Note_on_c, 9, 59, 0
4, 61715, Note_on_c, 9, 38, 48
4, 61804, Note_on_c, 9, 59, 33
4, 61867, Note_on_c, 9, 38, 0
4, 62132, Note_on_c, 9, 59, 0
4, 62188, Note_on_c, 9, 59, 47
4, 62324, Note_on_c, 9, 59, 0
4, 62336, Note_on_c, 9, 38, 46
4, 62337, Note_on_c, 9, 59, 47
4, 62420, Note_on_c, 9, 38, 0
4, 62429, Note_on_c, 9, 59, 0
4, 62452, Note_on_c, 9, 31, 60
4, 62465, Note_on_c, 9, 59, 55
4, 62520, Note_on_c, 9, 31, 0
4, 62545, Note_on_c, 9, 59, 0
4, 62572, Note_on_c, 9, 59, 57
4, 62588, Note_on_c, 9, 35, 51
4, 62628, Note_on_c, 9, 35, 0
4, 62820, Note_on_c, 9, 31, 56
4, 62828, Note_on_c, 9, 38, 50
4, 62884, Note_on_c, 9, 38, 0
4, 62892, Note_on_c, 9, 59, 0
4, 62896, Note_on_c, 9, 31, 0
4, 62956, Note_on_c, 9, 59, 51
4, 63224, Note_on_c, 9, 59, 0
4, 63233, Note_on_c, 9, 59, 54
4, 63340, Note_on_c, 9, 59, 49
4, 63393, Note_on_c, 9, 59, 0
4, 63580, Note_on_c, 9, 59, 0
4, 63604, Note_on_c, 9, 31, 53
4, 63617, Note_on_c, 9, 59, 59
4, 63636, Note_on_c, 9, 31, 0
4, 63724, Note_on_c, 9, 59, 44
4, 63725, Note_on_c, 9, 59, 0
4, 63976, Note_on_c, 9, 46, 49
4, 64020, Note_on_c, 9, 46, 0
4, 64040, Note_on_c, 9, 59, 0
4, 64108, Note_on_c, 9, 59, 47
4, 64360, Note_on_c, 9, 31, 60
4, 64388, Note_on_c, 9, 31, 0
4, 64436, Note_on_c, 9, 59, 0
4, 64492, Note_on_c, 9, 59, 41
4, 64748, Note_on_c, 9, 59, 0
4, 64769, Note_on_c, 9, 59, 51
4, 64772, Note_on_c, 9, 31, 59
4, 64796, Note_on_c, 9, 31, 0
4, 64865, Note_on_c, 9, 59, 0
4, 64876, Note_on_c, 9, 59, 39
4, 65100, Note_on_c, 9, 59, 0
4, 65153, Note_on_c, 9, 59, 58
4, 65237, Note_on_c, 9, 59, 0
4, 65260, Note_on_c, 9, 59, 46
4, 65564, Note_on_c, 9, 59, 0
4, 65644, Note_on_c, 9, 59, 48
4, 65880, Note_on_c, 9, 59, 0
4, 65920, Note_on_c, 9, 35, 59
4, 65939, Note_on_c, 9, 38, 15
4, 65972, Note_on_c, 9, 35, 0
4, 66028, Note_on_c, 9, 59, 55
4, 66044, Note_on_c, 9, 35, 34
4, 66055, Note_on_c, 9, 38, 0
4, 66092, Note_on_c, 9, 35, 0
4, 66324, Note_on_c, 9, 59, 0
4, 66412, Note_on_c, 9, 59, 43
4, 66580, Note_on_c, 9, 46, 34
4, 66600, Note_on_c, 9, 46, 0
4, 66656, Note_on_c, 9, 59, 0
4, 66688, Note_on_c, 9, 35, 29
4, 66689, Note_on_c, 9, 59, 55
4, 66724, Note_on_c, 9, 35, 0
4, 66796, Note_on_c, 9, 59, 31
4, 66805, Note_on_c, 9, 59, 0
4, 66812, Note_on_c, 9, 46, 33
4, 66840, Note_on_c, 9, 46, 0
4, 67068, Note_on_c, 9, 35, 29
4, 67080, Note_on_c, 9, 59, 0
4, 67096, Note_on_c, 9, 35, 0
4, 67180, Note_on_c, 9, 59, 37
4, 67412, Note_on_c, 9, 59, 0
4, 67457, Note_on_c, 9, 59, 49
4, 67557, Note_on_c, 9, 59, 0
4, 67564, Note_on_c, 9, 59, 33
4, 67824, Note_on_c, 9, 35, 30
4, 67848, Note_on_c, 9, 35, 0
4, 67868, Note_on_c, 9, 59, 0
4, 67948, Note_on_c, 9, 59, 45
4, 67951, Note_on_c, 9, 59, 47
4, 68011, Note_on_c, 9, 59, 0
4, 68067, Note_on_c, 9, 59, 51
4, 68095, Note_on_c, 9, 59, 0
4, 68196, Note_on_c, 9, 59, 0
4, 68204, Note_on_c, 9, 35, 47
4, 68232, Note_on_c, 9, 35, 0
4, 68243, Note_on_c, 9, 38, 46
4, 68332, Note_on_c, 9, 59, 27
4, 68347, Note_on_c, 9, 38, 0
4, 68592, Note_on_c, 9, 59, 0
4, 68627, Note_on_c, 9, 38, 62
4, 68716, Note_on_c, 9, 59, 35
4, 68747, Note_on_c, 9, 38, 0
4, 68956, Note_on_c, 9, 35, 44
4, 68992, Note_on_c, 9, 35, 0
4, 69024, Note_on_c, 9, 59, 0
4, 69100, Note_on_c, 9, 59, 39
4, 69108, Note_on_c, 9, 35, 47
4, 69132, Note_on_c, 9, 35, 0
4, 69356, Note_on_c, 9, 59, 0
4, 69377, Note_on_c, 9, 59, 50
4, 69484, Note_on_c, 9, 59, 37
4, 69485, Note_on_c, 9, 59, 0
4, 69744, Note_on_c, 9, 35, 38
4, 69768, Note_on_c, 9, 35, 0
4, 69792, Note_on_c, 9, 59, 0
4, 69868, Note_on_c, 9, 59, 44
4, 70172, Note_on_c, 9, 59, 0
4, 70252, Note_on_c, 9, 59, 38
4, 70504, Note_on_c, 9, 59, 0
4, 70529, Note_on_c, 9, 59, 54
4, 70613, Note_on_c, 9, 59, 0
4, 70636, Note_on_c, 9, 59, 36
4, 70660, Note_on_c, 9, 47, 20
4, 70680, Note_on_c, 9, 47, 0
4, 70760, Note_on_c, 9, 47, 34
4, 70792, Note_on_c, 9, 47, 0
4, 70912, Note_on_c, 9, 35, 26
4, 70932, Note_on_c, 9, 35, 0
4, 70932, Note_on_c, 9, 59, 0
4, 71020, Note_on_c, 9, 59, 42
4, 71056, Note_on_c, 9, 47, 43
4, 71088, Note_on_c, 9, 47, 0
4, 71172, Note_on_c, 9, 47, 48
4, 71180, Note_on_c, 9, 59, 0
4, 71200, Note_on_c, 9, 47, 0
4, 71276, Note_on_c, 9, 59, 54
4, 71316, Note_on_c, 9, 35, 44
4, 71340, Note_on_c, 9, 35, 0
4, 71340, Note_on_c, 9, 59, 0
4, 71404, Note_on_c, 9, 59, 32
4, 71692, Note_on_c, 9, 59, 0
4, 71788, Note_on_c, 9, 59, 46
4, 72040, Note_on_c, 9, 59, 0
4, 72064, Note_on_c, 9, 35, 74
4, 72065, Note_on_c, 9, 59, 54
4, 72116, Note_on_c, 9, 35, 0
4, 72169, Note_on_c, 9, 59, 0
4, 72172, Note_on_c, 9, 59, 35
4, 72472, Note_on_c, 9, 59, 0
4, 72556, Note_on_c, 9, 59, 44
4, 72832, Note_on_c, 9, 35, 60
4, 72864, Note_on_c, 9, 59, 0
4, 72936, Note_on_c, 9, 35, 0
4, 72940, Note_on_c, 9, 59, 45
4, 72968, Note_on_c, 9, 35, 30
4, 73048, Note_on_c, 9, 35, 0
4, 73204, Note_on_c, 9, 59, 0
4, 73217, Note_on_c, 9, 59, 62
4, 73324, Note_on_c, 9, 59, 37
4, 73329, Note_on_c, 9, 59, 0
4, 73588, Note_on_c, 9, 59, 0
4, 73596, Note_on_c, 9, 35, 78
4, 73601, Note_on_c, 9, 59, 65
4, 73660, Note_on_c, 9, 35, 0
4, 73708, Note_on_c, 9, 59, 40
4, 73721, Note_on_c, 9, 59, 0
4, 74016, Note_on_c, 9, 59, 0
4, 74092, Note_on_c, 9, 59, 38
4, 74340, Note_on_c, 9, 59, 0
4, 74387, Note_on_c, 9, 38, 52
4, 74476, Note_on_c, 9, 59, 39
4, 74495, Note_on_c, 9, 38, 0
4, 74616, Note_on_c, 9, 47, 43
4, 74644, Note_on_c, 9, 47, 0
4, 74688, Note_on_c, 9, 59, 0
4, 74744, Note_on_c, 9, 35, 49
4, 74771, Note_on_c, 9, 38, 65
4, 74776, Note_on_c, 9, 35, 0
4, 74860, Note_on_c, 9, 59, 43
4, 74880, Note_on_c, 9, 47, 55
4, 74895, Note_on_c, 9, 38, 0
4, 74900, Note_on_c, 9, 47, 0
4, 75144, Note_on_c, 9, 35, 78
4, 75196, Note_on_c, 9, 59, 0
4, 75244, Note_on_c, 9, 35, 0
4, 75244, Note_on_c, 9, 59, 52
4, 75283, Note_on_c, 9, 38, 36
4, 75347, Note_on_c, 9, 38, 0
4, 75584, Note_on_c, 9, 59, 0
4, 75628, Note_on_c, 9, 59, 48
4, 75948, Note_on_c, 9, 59, 0
4, 76012, Note_on_c, 9, 59, 42
4, 76276, Note_on_c, 9, 59, 0
4, 76289, Note_on_c, 9, 59, 53
4, 76396, Note_on_c, 9, 59, 34
4, 76401, Note_on_c, 9, 59, 0
4, 76728, Note_on_c, 9, 59, 0
4, 76780, Note_on_c, 9, 59, 47
4, 77096, Note_on_c, 9, 59, 0
4, 77164, Note_on_c, 9, 59, 48
4, 77412, Note_on_c, 9, 59, 0
4, 77459, Note_on_c, 9, 38, 40
4, 77548, Note_on_c, 9, 59, 43
4, 77563, Note_on_c, 9, 38, 0
4, 77704, Note_on_c, 9, 47, 71
4, 77744, Note_on_c, 9, 47, 0
4, 77808, Note_on_c, 9, 38, 70
4, 77840, Note_on_c, 9, 59, 0
4, 77843, Note_on_c, 9, 38, 56
4, 77852, Note_on_c, 9, 38, 0
4, 77932, Note_on_c, 9, 59, 47
4, 77944, Note_on_c, 9, 35, 75
4, 77979, Note_on_c, 9, 38, 0
4, 78076, Note_on_c, 9, 59, 0
4, 78081, Note_on_c, 9, 59, 69
4, 78104, Note_on_c, 9, 35, 0
4, 78149, Note_on_c, 9, 59, 0
4, 78209, Note_on_c, 9, 59, 54
4, 78316, Note_on_c, 9, 59, 51
4, 78333, Note_on_c, 9, 59, 0
4, 78652, Note_on_c, 9, 59, 0
4, 78700, Note_on_c, 9, 59, 44
4, 79004, Note_on_c, 9, 59, 0
4, 79084, Note_on_c, 9, 59, 33
4, 79188, Note_on_c, 9, 59, 0
4, 79233, Note_on_c, 9, 59, 56
4, 79297, Note_on_c, 9, 59, 0
4, 79361, Note_on_c, 9, 59, 67
4, 79468, Note_on_c, 9, 59, 57
4, 79473, Note_on_c, 9, 59, 0
4, 79776, Note_on_c, 9, 59, 0
4, 79855, Note_on_c, 9, 59, 44
4, 80016, Note_on_c, 9, 47, 47
4, 80036, Note_on_c, 9, 47, 0
4, 80124, Note_on_c, 9, 38, 47
4, 80151, Note_on_c, 9, 59, 0
4, 80172, Note_on_c, 9, 38, 0
4, 80236, Note_on_c, 9, 59, 40
4, 80252, Note_on_c, 9, 35, 49
4, 80352, Note_on_c, 9, 35, 0
4, 80484, Note_on_c, 9, 59, 0
4, 80513, Note_on_c, 9, 59, 61
4, 80605, Note_on_c, 9, 59, 0
4, 80620, Note_on_c, 9, 59, 35
4, 80620, Note_on_c, 9, 47, 62
4, 80640, Note_on_c, 9, 47, 0
4, 80748, Note_on_c, 9, 38, 46
4, 80808, Note_on_c, 9, 38, 0
4, 80872, Note_on_c, 9, 59, 0
4, 80872, Note_on_c, 9, 35, 66
4, 80892, Note_on_c, 9, 35, 0
4, 80897, Note_on_c, 9, 59, 65
4, 81004, Note_on_c, 9, 59, 39
4, 81005, Note_on_c, 9, 59, 0
4, 81008, Note_on_c, 9, 46, 56
4, 81016, Note_on_c, 9, 35, 71
4, 81056, Note_on_c, 9, 46, 0
4, 81068, Note_on_c, 9, 35, 0
4, 81244, Note_on_c, 9, 35, 78
4, 81244, Note_on_c, 9, 46, 75
4, 81300, Note_on_c, 9, 59, 0
4, 81320, Note_on_c, 9, 46, 0
4, 81372, Note_on_c, 9, 35, 0
4, 81388, Note_on_c, 9, 59, 46
4, 81720, Note_on_c, 9, 59, 0
4, 81772, Note_on_c, 9, 59, 51
4, 82052, Note_on_c, 9, 35, 54
4, 82104, Note_on_c, 9, 59, 0
4, 82120, Note_on_c, 9, 35, 0
4, 82156, Note_on_c, 9, 59, 47
4, 82184, Note_on_c, 9, 35, 38
4, 82240, Note_on_c, 9, 35, 0
4, 82428, Note_on_c, 9, 59, 0
4, 82433, Note_on_c, 9, 59, 59
4, 82509, Note_on_c, 9, 59, 0
4, 82540, Note_on_c, 9, 59, 47
4, 82792, Note_on_c, 9, 59, 0
4, 82817, Note_on_c, 9, 59, 72
4, 82905, Note_on_c, 9, 59, 0
4, 82924, Note_on_c, 9, 59, 45
4, 83224, Note_on_c, 9, 59, 0
4, 83308, Note_on_c, 9, 59, 48
4, 83584, Note_on_c, 9, 59, 0
4, 83592, Note_on_c, 9, 35, 69
4, 83692, Note_on_c, 9, 35, 0
4, 83692, Note_on_c, 9, 59, 42
4, 83924, Note_on_c, 9, 59, 0
4, 83969, Note_on_c, 9, 59, 58
4, 84061, Note_on_c, 9, 59, 0
4, 84076, Note_on_c, 9, 59, 43
4, 84272, Note_on_c, 9, 59, 0
4, 84352, Note_on_c, 9, 29, 24
4, 84352, Note_on_c, 9, 38, 60
4, 84420, Note_on_c, 9, 38, 0
4, 84460, Note_on_c, 9, 59, 38
4, 84756, Note_on_c, 9, 59, 0
4, 84844, Note_on_c, 9, 59, 42
4, 85140, Note_on_c, 9, 59, 0
4, 85228, Note_on_c, 9, 59, 40
4, 85244, Note_on_c, 9, 29, 0
4, 85256, Note_on_c, 9, 35, 35
4, 85460, Note_on_c, 9, 59, 0
4, 85492, Note_on_c, 9, 35, 0
4, 85498, Note_on_c, 9, 38, 69
4, 85516, Note_on_c, 9, 35, 34
4, 85544, Note_on_c, 9, 35, 0
4, 85562, Note_on_c, 9, 38, 0
4, 85612, Note_on_c, 9, 59, 38
4, 85836, Note_on_c, 9, 59, 0
4, 85882, Note_on_c, 9, 38, 70
4, 85946, Note_on_c, 9, 38, 0
4, 85996, Note_on_c, 9, 59, 33
4, 86292, Note_on_c, 9, 59, 0
4, 86380, Note_on_c, 9, 59, 45
4, 86688, Note_on_c, 9, 59, 0
4, 86764, Note_on_c, 9, 59, 39
4, 86860, Note_on_c, 9, 59, 0
4, 86912, Note_on_c, 9, 31, 45
4, 87004, Note_on_c, 9, 31, 0
4, 87020, Note_on_c, 9, 59, 53
4, 87104, Note_on_c, 9, 59, 0
4, 87160, Note_on_c, 9, 46, 56
4, 87168, Note_on_c, 9, 31, 70
4, 87224, Note_on_c, 9, 46, 0
4, 87340, Note_on_c, 9, 35, 45
4, 87356, Note_on_c, 9, 31, 0
4, 87368, Note_on_c, 9, 35, 0
4, 87404, Note_on_c, 9, 59, 74
4, 87436, Note_on_c, 9, 35, 76
4, 87472, Note_on_c, 9, 59, 0
4, 87488, Note_on_c, 9, 35, 0
4, 87532, Note_on_c, 9, 59, 57
4, 87552, Note_on_c, 9, 35, 71
4, 87596, Note_on_c, 9, 35, 0
4, 87816, Note_on_c, 9, 59, 0
4, 87916, Note_on_c, 9, 59, 46
4, 88116, Note_on_c, 9, 59, 0
4, 88192, Note_on_c, 9, 38, 60
4, 88204, Note_on_c, 9, 35, 49
4, 88224, Note_on_c, 9, 35, 0
4, 88256, Note_on_c, 9, 38, 0
4, 88300, Note_on_c, 9, 59, 38
4, 88532, Note_on_c, 9, 59, 0
4, 88576, Note_on_c, 9, 31, 66
4, 88640, Note_on_c, 9, 31, 0
4, 88684, Note_on_c, 9, 59, 33
4, 88924, Note_on_c, 9, 59, 0
4, 88960, Note_on_c, 9, 38, 79
4, 89024, Note_on_c, 9, 38, 0
4, 89068, Note_on_c, 9, 59, 34
4, 89384, Note_on_c, 9, 59, 0
4, 89452, Note_on_c, 9, 59, 41
4, 89752, Note_on_c, 9, 59, 0
4, 89836, Note_on_c, 9, 59, 36
4, 90088, Note_on_c, 9, 59, 0
4, 90113, Note_on_c, 9, 59, 56
4, 90213, Note_on_c, 9, 59, 0
4, 90220, Note_on_c, 9, 59, 36
4, 90480, Note_on_c, 9, 59, 0
4, 90497, Note_on_c, 9, 59, 60
4, 90589, Note_on_c, 9, 59, 0
4, 90604, Note_on_c, 9, 59, 36
4, 90652, Note_on_c, 9, 50, 64
4, 90688, Note_on_c, 9, 50, 0
4, 90744, Note_on_c, 9, 50, 42
4, 90788, Note_on_c, 9, 50, 0
4, 90848, Note_on_c, 9, 50, 38
4, 90872, Note_on_c, 9, 50, 0
4, 90912, Note_on_c, 9, 59, 0
4, 90988, Note_on_c, 9, 59, 45
4, 91016, Note_on_c, 9, 48, 74
4, 91048, Note_on_c, 9, 48, 0
4, 91116, Note_on_c, 9, 48, 50
4, 91140, Note_on_c, 9, 48, 0
4, 91264, Note_on_c, 9, 59, 0
4, 91283, Note_on_c, 9, 38, 31
4, 91372, Note_on_c, 9, 59, 54
4, 91388, Note_on_c, 9, 47, 43
4, 91403, Note_on_c, 9, 38, 0
4, 91424, Note_on_c, 9, 47, 0
4, 91488, Note_on_c, 9, 47, 54
4, 91524, Note_on_c, 9, 47, 0
4, 91632, Note_on_c, 9, 35, 64
4, 91708, Note_on_c, 9, 35, 0
4, 91708, Note_on_c, 9, 59, 0
4, 91756, Note_on_c, 9, 59, 46
4, 92020, Note_on_c, 9, 59, 0
4, 92051, Note_on_c, 9, 38, 67
4, 92140, Note_on_c, 9, 59, 32
4, 92159, Note_on_c, 9, 38, 0
4, 92424, Note_on_c, 9, 59, 0
4, 92524, Note_on_c, 9, 59, 47
4, 92544, Note_on_c, 9, 50, 72
4, 92584, Note_on_c, 9, 50, 0
4, 92652, Note_on_c, 9, 50, 66
4, 92700, Note_on_c, 9, 50, 0
4, 92764, Note_on_c, 9, 59, 0
4, 92776, Note_on_c, 9, 35, 58
4, 92801, Note_on_c, 9, 59, 46
4, 92804, Note_on_c, 9, 35, 0
4, 92905, Note_on_c, 9, 59, 0
4, 92908, Note_on_c, 9, 59, 41
4, 93048, Note_on_c, 9, 50, 69
4, 93076, Note_on_c, 9, 50, 0
4, 93176, Note_on_c, 9, 35, 44
4, 93200, Note_on_c, 9, 59, 0
4, 93204, Note_on_c, 9, 35, 0
4, 93292, Note_on_c, 9, 59, 40
4, 93312, Note_on_c, 9, 48, 49
4, 93332, Note_on_c, 9, 48, 0
4, 93528, Note_on_c, 9, 59, 0
4, 93552, Note_on_c, 9, 47, 54
4, 93569, Note_on_c, 9, 59, 56
4, 93572, Note_on_c, 9, 47, 0
4, 93661, Note_on_c, 9, 59, 0
4, 93676, Note_on_c, 9, 59, 37
4, 93696, Note_on_c, 9, 35, 50
4, 93752, Note_on_c, 9, 35, 0
4, 93928, Note_on_c, 9, 35, 73
4, 93972, Note_on_c, 9, 59, 0
4, 93988, Note_on_c, 9, 35, 0
4, 94060, Note_on_c, 9, 59, 40
4, 94152, Note_on_c, 9, 59, 0
4, 94209, Note_on_c, 9, 59, 43
4, 94289, Note_on_c, 9, 59, 0
4, 94316, Note_on_c, 9, 59, 54
4, 94380, Note_on_c, 9, 59, 0
4, 94444, Note_on_c, 9, 59, 42
4, 94748, Note_on_c, 9, 59, 0
4, 94828, Note_on_c, 9, 59, 41
4, 95080, Note_on_c, 9, 59, 0
4, 95105, Note_on_c, 9, 59, 59
4, 95212, Note_on_c, 9, 59, 35
4, 95221, Note_on_c, 9, 59, 0
4, 95444, Note_on_c, 9, 59, 0
4, 95489, Note_on_c, 9, 59, 65
4, 95596, Note_on_c, 9, 59, 40
4, 95601, Note_on_c, 9, 59, 0
4, 95924, Note_on_c, 9, 59, 0
4, 95980, Note_on_c, 9, 59, 41
4, 96256, Note_on_c, 9, 59, 0
4, 96268, Note_on_c, 9, 38, 34
4, 96275, Note_on_c, 9, 38, 48
4, 96300, Note_on_c, 9, 38, 0
4, 96364, Note_on_c, 9, 59, 34
4, 96379, Note_on_c, 9, 38, 0
4, 96552, Note_on_c, 9, 59, 0
4, 96620, Note_on_c, 9, 59, 57
4, 96736, Note_on_c, 9, 59, 0
4, 96748, Note_on_c, 9, 59, 29
4, 97048, Note_on_c, 9, 59, 0
4, 97132, Note_on_c, 9, 59, 47
4, 97392, Note_on_c, 9, 59, 0
4, 97427, Note_on_c, 9, 38, 48
4, 97516, Note_on_c, 9, 59, 30
4, 97547, Note_on_c, 9, 38, 0
4, 97684, Note_on_c, 9, 38, 54
4, 97704, Note_on_c, 9, 38, 0
4, 97800, Note_on_c, 9, 38, 52
4, 97836, Note_on_c, 9, 59, 0
4, 97852, Note_on_c, 9, 38, 0
4, 97900, Note_on_c, 9, 59, 40
4, 97928, Note_on_c, 9, 35, 43
4, 97956, Note_on_c, 9, 35, 0
4, 98164, Note_on_c, 9, 59, 0
4, 98177, Note_on_c, 9, 59, 57
4, 98284, Note_on_c, 9, 59, 34
4, 98297, Note_on_c, 9, 59, 0
4, 98564, Note_on_c, 9, 38, 66
4, 98592, Note_on_c, 9, 59, 0
4, 98608, Note_on_c, 9, 38, 0
4, 98668, Note_on_c, 9, 59, 41
4, 98928, Note_on_c, 9, 38, 68
4, 98992, Note_on_c, 9, 38, 0
4, 98996, Note_on_c, 9, 59, 0
4, 99052, Note_on_c, 9, 59, 40
4, 99192, Note_on_c, 9, 38, 75
4, 99244, Note_on_c, 9, 38, 0
4, 99312, Note_on_c, 9, 38, 71
4, 99320, Note_on_c, 9, 59, 0
4, 99329, Note_on_c, 9, 59, 56
4, 99364, Note_on_c, 9, 38, 0
4, 99436, Note_on_c, 9, 59, 42
4, 99437, Note_on_c, 9, 59, 0
4, 99448, Note_on_c, 9, 38, 59
4, 99468, Note_on_c, 9, 38, 0
4, 99576, Note_on_c, 9, 38, 70
4, 99620, Note_on_c, 9, 38, 0
4, 99684, Note_on_c, 9, 38, 64
4, 99700, Note_on_c, 9, 59, 0
4, 99713, Note_on_c, 9, 59, 67
4, 99792, Note_on_c, 9, 38, 0
4, 99820, Note_on_c, 9, 59, 40
4, 99828, Note_on_c, 9, 35, 67
4, 99836, Note_on_c, 9, 55, 62
4, 99845, Note_on_c, 9, 59, 0
4, 99864, Note_on_c, 9, 55, 0
4, 99984, Note_on_c, 9, 35, 0
4, 100160, Note_on_c, 9, 59, 0
4, 100204, Note_on_c, 9, 59, 56
4, 100504, Note_on_c, 9, 38, 66
4, 100524, Note_on_c, 9, 38, 0
4, 100536, Note_on_c, 9, 59, 0
4, 100588, Note_on_c, 9, 59, 33
4, 100872, Note_on_c, 9, 59, 0
4, 100972, Note_on_c, 9, 59, 54
4, 101148, Note_on_c, 9, 38, 71
4, 101192, Note_on_c, 9, 38, 0
4, 101256, Note_on_c, 9, 38, 58
4, 101308, Note_on_c, 9, 59, 0
4, 101320, Note_on_c, 9, 38, 0
4, 101356, Note_on_c, 9, 59, 29
4, 101380, Note_on_c, 9, 35, 58
4, 101388, Note_on_c, 9, 57, 50
4, 101436, Note_on_c, 9, 57, 0
4, 101588, Note_on_c, 9, 59, 0
4, 101620, Note_on_c, 9, 35, 0
4, 101633, Note_on_c, 9, 59, 62
4, 101740, Note_on_c, 9, 59, 41
4, 101749, Note_on_c, 9, 59, 0
4, 102004, Note_on_c, 9, 35, 56
4, 102024, Note_on_c, 9, 35, 0
4, 102072, Note_on_c, 9, 59, 0
4, 102124, Note_on_c, 9, 59, 54
4, 102464, Note_on_c, 9, 59, 0
4, 102508, Note_on_c, 9, 59, 35
4, 102780, Note_on_c, 9, 35, 60
4, 102812, Note_on_c, 9, 35, 0
4, 102828, Note_on_c, 9, 59, 0
4, 102892, Note_on_c, 9, 59, 37
4, 103152, Note_on_c, 9, 59, 0
4, 103169, Note_on_c, 9, 59, 61
4, 103276, Note_on_c, 9, 59, 35
4, 103309, Note_on_c, 9, 59, 0
4, 103536, Note_on_c, 9, 59, 0
4, 103553, Note_on_c, 9, 59, 69
4, 103660, Note_on_c, 9, 59, 37
4, 103681, Note_on_c, 9, 59, 0
4, 103980, Note_on_c, 9, 59, 0
4, 104044, Note_on_c, 9, 59, 53
4, 104308, Note_on_c, 9, 59, 0
4, 104321, Note_on_c, 9, 59, 43
4, 104332, Note_on_c, 9, 35, 50
4, 104412, Note_on_c, 9, 35, 0
4, 104428, Note_on_c, 9, 59, 36
4, 104437, Note_on_c, 9, 59, 0
4, 104472, Note_on_c, 9, 35, 30
4, 104628, Note_on_c, 9, 35, 0
4, 104648, Note_on_c, 9, 59, 0
4, 104705, Note_on_c, 9, 59, 67
4, 104712, Note_on_c, 9, 35, 46
4, 104748, Note_on_c, 9, 35, 0
4, 104812, Note_on_c, 9, 59, 33
4, 104837, Note_on_c, 9, 59, 0
4, 105128, Note_on_c, 9, 59, 0
4, 105196, Note_on_c, 9, 59, 39
4, 105336, Note_on_c, 9, 38, 42
4, 105364, Note_on_c, 9, 38, 0
4, 105460, Note_on_c, 9, 35, 38
4, 105492, Note_on_c, 9, 35, 0
4, 105508, Note_on_c, 9, 59, 0
4, 105580, Note_on_c, 9, 59, 36
4, 105592, Note_on_c, 9, 46, 20
4, 105596, Note_on_c, 9, 38, 50
4, 105620, Note_on_c, 9, 38, 0
4, 105720, Note_on_c, 9, 46, 0
4, 105732, Note_on_c, 9, 35, 48
4, 105756, Note_on_c, 9, 35, 0
4, 105824, Note_on_c, 9, 59, 0
4, 105852, Note_on_c, 9, 35, 87
4, 105857, Note_on_c, 9, 59, 48
4, 105964, Note_on_c, 9, 59, 30
4, 105969, Note_on_c, 9, 59, 0
4, 105976, Note_on_c, 9, 35, 0
4, 106224, Note_on_c, 9, 59, 0
4, 106241, Note_on_c, 9, 59, 60
4, 106348, Note_on_c, 9, 59, 36
4, 106365, Note_on_c, 9, 59, 0
4, 106664, Note_on_c, 9, 59, 0
4, 106732, Note_on_c, 9, 59, 38
4, 107048, Note_on_c, 9, 59, 0
4, 107116, Note_on_c, 9, 59, 38
4, 107388, Note_on_c, 9, 59, 0
4, 107393, Note_on_c, 9, 59, 56
4, 107396, Note_on_c, 9, 38, 32
4, 107424, Note_on_c, 9, 38, 0
4, 107500, Note_on_c, 9, 59, 31
4, 107521, Note_on_c, 9, 59, 0
4, 107776, Note_on_c, 9, 59, 0
4, 107777, Note_on_c, 9, 59, 64
4, 107884, Note_on_c, 9, 59, 34
4, 107905, Note_on_c, 9, 59, 0
4, 108172, Note_on_c, 9, 35, 47
4, 108196, Note_on_c, 9, 35, 0
4, 108204, Note_on_c, 9, 59, 0
4, 108268, Note_on_c, 9, 59, 50
4, 108308, Note_on_c, 9, 45, 34
4, 108332, Note_on_c, 9, 45, 0
4, 108560, Note_on_c, 9, 45, 66
4, 108584, Note_on_c, 9, 45, 0
4, 108624, Note_on_c, 9, 59, 0
4, 108652, Note_on_c, 9, 59, 47
4, 108700, Note_on_c, 9, 45, 63
4, 108760, Note_on_c, 9, 45, 0
4, 108808, Note_on_c, 9, 43, 44
4, 108832, Note_on_c, 9, 43, 0
4, 108916, Note_on_c, 9, 59, 0
4, 108929, Note_on_c, 9, 59, 71
4, 108940, Note_on_c, 9, 35, 57
4, 109032, Note_on_c, 9, 35, 0
4, 109036, Note_on_c, 9, 59, 50
4, 109049, Note_on_c, 9, 59, 0
4, 109313, Note_on_c, 9, 59, 77
4, 109320, Note_on_c, 9, 59, 0
4, 109417, Note_on_c, 9, 59, 0
4, 109420, Note_on_c, 9, 59, 40
4, 109744, Note_on_c, 9, 59, 0
4, 109804, Note_on_c, 9, 59, 45
4, 110120, Note_on_c, 9, 59, 0
4, 110188, Note_on_c, 9, 59, 38
4, 110465, Note_on_c, 9, 59, 67
4, 110480, Note_on_c, 9, 59, 0
4, 110529, Note_on_c, 9, 59, 0
4, 110572, Note_on_c, 9, 59, 43
4, 110896, Note_on_c, 9, 59, 0
4, 110956, Note_on_c, 9, 59, 35
4, 111164, Note_on_c, 9, 59, 0
4, 111212, Note_on_c, 9, 59, 53
4, 111228, Note_on_c, 9, 35, 54
4, 111248, Note_on_c, 9, 35, 0
4, 111656, Note_on_c, 9, 59, 0
4, 111724, Note_on_c, 9, 59, 47
4, 111988, Note_on_c, 9, 35, 70
4, 112032, Note_on_c, 9, 59, 0
4, 112060, Note_on_c, 9, 35, 0
4, 112108, Note_on_c, 9, 59, 41
4, 112124, Note_on_c, 9, 35, 50
4, 112248, Note_on_c, 9, 35, 0
4, 112380, Note_on_c, 9, 59, 0
4, 112385, Note_on_c, 9, 59, 67
4, 112449, Note_on_c, 9, 59, 0
4, 112492, Note_on_c, 9, 59, 36
4, 112744, Note_on_c, 9, 59, 0
4, 112760, Note_on_c, 9, 35, 57
4, 112769, Note_on_c, 9, 59, 65
4, 112784, Note_on_c, 9, 35, 0
4, 112833, Note_on_c, 9, 59, 0
4, 112876, Note_on_c, 9, 59, 34
4, 113168, Note_on_c, 9, 59, 0
4, 113260, Note_on_c, 9, 59, 51
4, 113572, Note_on_c, 9, 59, 0
4, 113644, Note_on_c, 9, 59, 51
4, 113776, Note_on_c, 9, 59, 0
4, 113900, Note_on_c, 9, 59, 79
4, 113996, Note_on_c, 9, 59, 0
4, 114049, Note_on_c, 9, 59, 38
4, 114273, Note_on_c, 9, 59, 0
4, 114284, Note_on_c, 9, 59, 57
4, 114304, Note_on_c, 9, 35, 47
4, 114348, Note_on_c, 9, 59, 0
4, 114356, Note_on_c, 9, 35, 0
4, 114412, Note_on_c, 9, 59, 32
4, 114444, Note_on_c, 9, 35, 24
4, 114484, Note_on_c, 9, 35, 0
4, 114724, Note_on_c, 9, 59, 0
4, 114796, Note_on_c, 9, 59, 45
4, 114808, Note_on_c, 9, 46, 44
4, 114960, Note_on_c, 9, 46, 0
4, 115060, Note_on_c, 9, 35, 54
4, 115068, Note_on_c, 9, 59, 0
4, 115073, Note_on_c, 9, 59, 56
4, 115088, Note_on_c, 9, 35, 0
4, 115180, Note_on_c, 9, 59, 31
4, 115221, Note_on_c, 9, 59, 0
4, 115484, Note_on_c, 9, 59, 0
4, 115564, Note_on_c, 9, 59, 46
4, 115848, Note_on_c, 9, 35, 40
4, 115868, Note_on_c, 9, 59, 0
4, 115876, Note_on_c, 9, 35, 0
4, 115948, Note_on_c, 9, 59, 37
4, 116248, Note_on_c, 9, 59, 0
4, 116332, Note_on_c, 9, 59, 42
4, 116612, Note_on_c, 9, 59, 0
4, 116627, Note_on_c, 9, 38, 44
4, 116716, Note_on_c, 9, 59, 28
4, 116759, Note_on_c, 9, 38, 0
4, 116764, Note_on_c, 9, 38, 61
4, 116944, Note_on_c, 9, 38, 0
4, 116972, Note_on_c, 9, 59, 0
4, 117011, Note_on_c, 9, 38, 54
4, 117100, Note_on_c, 9, 59, 28
4, 117140, Note_on_c, 9, 38, 55
4, 117147, Note_on_c, 9, 38, 0
4, 117300, Note_on_c, 9, 38, 0
4, 117364, Note_on_c, 9, 59, 0
4, 117395, Note_on_c, 9, 38, 68
4, 117484, Note_on_c, 9, 59, 31
4, 117511, Note_on_c, 9, 38, 0
4, 117776, Note_on_c, 9, 38, 27
4, 117796, Note_on_c, 9, 38, 0
4, 117804, Note_on_c, 9, 59, 0
4, 117868, Note_on_c, 9, 59, 37
4, 118016, Note_on_c, 9, 38, 60
4, 118064, Note_on_c, 9, 38, 0
4, 118140, Note_on_c, 9, 35, 74
4, 118160, Note_on_c, 9, 57, 72
4, 118184, Note_on_c, 9, 59, 0
4, 118204, Note_on_c, 9, 57, 0
4, 118240, Note_on_c, 9, 35, 0
4, 118252, Note_on_c, 9, 59, 39
4, 118508, Note_on_c, 9, 59, 0
4, 118529, Note_on_c, 9, 59, 67
4, 118636, Note_on_c, 9, 59, 31
4, 118641, Note_on_c, 9, 59, 0
4, 118880, Note_on_c, 9, 59, 0
4, 118896, Note_on_c, 9, 38, 53
4, 118913, Note_on_c, 9, 59, 65
4, 118924, Note_on_c, 9, 38, 0
4, 119013, Note_on_c, 9, 59, 0
4, 119020, Note_on_c, 9, 59, 40
4, 119044, Note_on_c, 9, 38, 39
4, 119072, Note_on_c, 9, 38, 0
4, 119264, Note_on_c, 9, 35, 55
4, 119308, Note_on_c, 9, 59, 0
4, 119344, Note_on_c, 9, 35, 0
4, 119404, Note_on_c, 9, 59, 42
4, 119652, Note_on_c, 9, 59, 0
4, 119681, Note_on_c, 9, 59, 64
4, 119781, Note_on_c, 9, 59, 0
4, 119788, Note_on_c, 9, 59, 39
4, 120052, Note_on_c, 9, 59, 0
4, 120172, Note_on_c, 9, 59, 47
4, 120424, Note_on_c, 9, 59, 0
4, 120449, Note_on_c, 9, 59, 48
4, 120545, Note_on_c, 9, 59, 0
4, 120556, Note_on_c, 9, 59, 33
4, 120868, Note_on_c, 9, 59, 0
4, 120940, Note_on_c, 9, 59, 34
4, 120952, Note_on_c, 9, 46, 36
4, 121080, Note_on_c, 9, 46, 0
4, 121220, Note_on_c, 9, 35, 48
4, 121244, Note_on_c, 9, 35, 0
4, 121248, Note_on_c, 9, 59, 0
4, 121260, Note_on_c, 9, 59, 51
4, 121276, Note_on_c, 9, 59, 0
4, 121324, Note_on_c, 9, 59, 40
4, 121576, Note_on_c, 9, 59, 0
4, 121592, Note_on_c, 9, 35, 31
4, 121616, Note_on_c, 9, 35, 0
4, 121619, Note_on_c, 9, 38, 46
4, 121708, Note_on_c, 9, 59, 34
4, 121735, Note_on_c, 9, 38, 0
4, 121976, Note_on_c, 9, 35, 42
4, 122000, Note_on_c, 9, 35, 0
4, 122004, Note_on_c, 9, 59, 0
4, 122092, Note_on_c, 9, 59, 47
4, 122348, Note_on_c, 9, 59, 0
4, 122369, Note_on_c, 9, 59, 60
4, 122372, Note_on_c, 9, 35, 56
4, 122412, Note_on_c, 9, 35, 0
4, 122457, Note_on_c, 9, 59, 0
4, 122476, Note_on_c, 9, 59, 33
4, 122640, Note_on_c, 9, 59, 0
4, 122753, Note_on_c, 9, 59, 62
4, 122760, Note_on_c, 9, 46, 45
4, 122764, Note_on_c, 9, 35, 60
4, 122780, Note_on_c, 9, 46, 0
4, 122800, Note_on_c, 9, 35, 0
4, 122857, Note_on_c, 9, 59, 0
4, 122860, Note_on_c, 9, 59, 40
4, 123160, Note_on_c, 9, 59, 0
4, 123168, Note_on_c, 9, 35, 41
4, 123192, Note_on_c, 9, 35, 0
4, 123244, Note_on_c, 9, 59, 37
4, 123308, Note_on_c, 9, 35, 44
4, 123332, Note_on_c, 9, 35, 0
4, 123436, Note_on_c, 9, 59, 0
4, 123500, Note_on_c, 9, 59, 64
4, 123536, Note_on_c, 9, 46, 64
4, 123548, Note_on_c, 9, 35, 68
4, 123572, Note_on_c, 9, 46, 0
4, 123600, Note_on_c, 9, 35, 0
4, 123932, Note_on_c, 9, 59, 0
4, 123932, Note_on_c, 9, 35, 50
4, 123960, Note_on_c, 9, 35, 0
4, 124012, Note_on_c, 9, 59, 48
4, 124068, Note_on_c, 9, 35, 47
4, 124092, Note_on_c, 9, 35, 0
4, 124288, Note_on_c, 9, 55, 88
4, 124292, Note_on_c, 9, 35, 72
4, 124308, Note_on_c, 9, 55, 0
4, 124324, Note_on_c, 9, 59, 0
4, 124336, Note_on_c, 9, 35, 0
4, 124396, Note_on_c, 9, 59, 35
4, 124644, Note_on_c, 9, 59, 0
4, 124673, Note_on_c, 9, 59, 56
4, 124780, Note_on_c, 9, 59, 35
4, 124781, Note_on_c, 9, 59, 0
4, 125044, Note_on_c, 9, 35, 47
4, 125072, Note_on_c, 9, 59, 0
4, 125088, Note_on_c, 9, 35, 0
4, 125164, Note_on_c, 9, 59, 48
4, 125184, Note_on_c, 9, 35, 35
4, 125224, Note_on_c, 9, 35, 0
4, 125480, Note_on_c, 9, 59, 0
4, 125548, Note_on_c, 9, 59, 44
4, 125728, Note_on_c, 9, 59, 0
4, 125804, Note_on_c, 9, 59, 53
4, 125852, Note_on_c, 9, 35, 72
4, 125900, Note_on_c, 9, 59, 0
4, 125920, Note_on_c, 9, 35, 0
4, 125932, Note_on_c, 9, 59, 32
4, 125980, Note_on_c, 9, 35, 45
4, 126080, Note_on_c, 9, 35, 0
4, 126224, Note_on_c, 9, 59, 0
4, 126316, Note_on_c, 9, 59, 39
4, 126576, Note_on_c, 9, 59, 0
4, 126611, Note_on_c, 9, 38, 52
4, 126620, Note_on_c, 9, 35, 62
4, 126700, Note_on_c, 9, 59, 36
4, 126708, Note_on_c, 9, 35, 0
4, 126735, Note_on_c, 9, 38, 0
4, 126988, Note_on_c, 9, 59, 0
4, 127084, Note_on_c, 9, 59, 45
4, 127254, Note_on_c, 9, 38, 67
4, 127278, Note_on_c, 9, 38, 0
4, 127376, Note_on_c, 9, 35, 53
4, 127384, Note_on_c, 9, 59, 0
4, 127408, Note_on_c, 9, 35, 0
4, 127468, Note_on_c, 9, 59, 48
4, 127512, Note_on_c, 9, 35, 42
4, 127556, Note_on_c, 9, 35, 0
4, 127728, Note_on_c, 9, 59, 0
4, 127732, Note_on_c, 9, 35, 57
4, 127745, Note_on_c, 9, 59, 55
4, 127756, Note_on_c, 9, 35, 0
4, 127852, Note_on_c, 9, 59, 31
4, 127865, Note_on_c, 9, 59, 0
4, 128148, Note_on_c, 9, 59, 0
4, 128236, Note_on_c, 9, 59, 43
4, 128356, Note_on_c, 9, 38, 45
4, 128384, Note_on_c, 9, 38, 0
4, 128496, Note_on_c, 9, 35, 42
4, 128524, Note_on_c, 9, 35, 0
4, 128528, Note_on_c, 9, 59, 0
4, 128620, Note_on_c, 9, 59, 37
4, 128624, Note_on_c, 9, 38, 53
4, 128656, Note_on_c, 9, 38, 0
4, 128756, Note_on_c, 9, 59, 0
4, 128768, Note_on_c, 9, 35, 45
4, 128787, Note_on_c, 9, 38, 61
4, 128792, Note_on_c, 9, 35, 0
4, 128872, Note_on_c, 9, 38, 69
4, 128897, Note_on_c, 9, 59, 60
4, 128920, Note_on_c, 9, 38, 0
4, 128939, Note_on_c, 9, 38, 0
4, 129004, Note_on_c, 9, 59, 52
4, 129013, Note_on_c, 9, 59, 0
4, 129136, Note_on_c, 9, 38, 55
4, 129156, Note_on_c, 9, 38, 0
4, 129276, Note_on_c, 9, 35, 58
4, 129296, Note_on_c, 9, 35, 0
4, 129332, Note_on_c, 9, 59, 0
4, 129388, Note_on_c, 9, 59, 44
4, 129656, Note_on_c, 9, 38, 77
4, 129680, Note_on_c, 9, 59, 0
4, 129696, Note_on_c, 9, 38, 0
4, 129772, Note_on_c, 9, 59, 43
4, 129800, Note_on_c, 9, 35, 33
4, 129824, Note_on_c, 9, 35, 0
4, 129880, Note_on_c, 9, 59, 0
4, 129920, Note_on_c, 9, 38, 55
4, 129921, Note_on_c, 9, 59, 52
4, 129940, Note_on_c, 9, 38, 0
4, 129989, Note_on_c, 9, 59, 0
4, 130052, Note_on_c, 9, 35, 40
4, 130067, Note_on_c, 9, 38, 47
4, 130076, Note_on_c, 9, 35, 0
4, 130156, Note_on_c, 9, 59, 47
4, 130176, Note_on_c, 9, 38, 64
4, 130195, Note_on_c, 9, 38, 0
4, 130200, Note_on_c, 9, 38, 0
4, 130312, Note_on_c, 9, 35, 41
4, 130340, Note_on_c, 9, 35, 0
4, 130448, Note_on_c, 9, 57, 79
4, 130452, Note_on_c, 9, 35, 77
4, 130464, Note_on_c, 9, 59, 0
4, 130484, Note_on_c, 9, 57, 0
4, 130512, Note_on_c, 9, 35, 0
4, 130540, Note_on_c, 9, 59, 36
4, 130836, Note_on_c, 9, 59, 0
4, 130924, Note_on_c, 9, 59, 43
4, 131116, Note_on_c, 9, 59, 0
4, 131201, Note_on_c, 9, 59, 55
4, 131212, Note_on_c, 9, 35, 63
4, 131272, Note_on_c, 9, 35, 0
4, 131297, Note_on_c, 9, 59, 0
4, 131308, Note_on_c, 9, 59, 43
4, 131336, Note_on_c, 9, 35, 44
4, 131396, Note_on_c, 9, 35, 0
4, 131608, Note_on_c, 9, 59, 0
4, 131692, Note_on_c, 9, 59, 44
4, 131956, Note_on_c, 9, 59, 0
4, 131969, Note_on_c, 9, 59, 54
4, 131988, Note_on_c, 9, 35, 50
4, 132008, Note_on_c, 9, 35, 0
4, 132069, Note_on_c, 9, 59, 0
4, 132076, Note_on_c, 9, 59, 34
4, 132384, Note_on_c, 9, 59, 0
4, 132460, Note_on_c, 9, 59, 44
4, 132640, Note_on_c, 9, 59, 0
4, 132716, Note_on_c, 9, 59, 64
4, 132744, Note_on_c, 9, 35, 24
4, 132764, Note_on_c, 9, 35, 0
4, 132792, Note_on_c, 9, 59, 0
4, 132844, Note_on_c, 9, 59, 40
4, 133120, Note_on_c, 9, 35, 26
4, 133148, Note_on_c, 9, 35, 0
4, 133148, Note_on_c, 9, 59, 0
4, 133228, Note_on_c, 9, 59, 39
4, 133516, Note_on_c, 9, 35, 42
4, 133528, Note_on_c, 9, 59, 0
4, 133544, Note_on_c, 9, 35, 0
4, 133612, Note_on_c, 9, 59, 43
4, 133656, Note_on_c, 9, 35, 33
4, 133688, Note_on_c, 9, 35, 0
4, 133872, Note_on_c, 9, 59, 0
4, 133889, Note_on_c, 9, 59, 59
4, 133996, Note_on_c, 9, 59, 29
4, 134013, Note_on_c, 9, 59, 0
4, 134276, Note_on_c, 9, 35, 39
4, 134300, Note_on_c, 9, 59, 0
4, 134304, Note_on_c, 9, 35, 0
4, 134380, Note_on_c, 9, 59, 39
4, 134544, Note_on_c, 9, 50, 62
4, 134568, Note_on_c, 9, 50, 0
4, 134660, Note_on_c, 9, 50, 69
4, 134676, Note_on_c, 9, 59, 0
4, 134696, Note_on_c, 9, 50, 0
4, 134764, Note_on_c, 9, 59, 36
4, 134924, Note_on_c, 9, 48, 75
4, 134944, Note_on_c, 9, 48, 0
4, 135020, Note_on_c, 9, 59, 0
4, 135041, Note_on_c, 9, 59, 56
4, 135044, Note_on_c, 9, 35, 47
4, 135068, Note_on_c, 9, 35, 0
4, 135148, Note_on_c, 9, 59, 32
4, 135149, Note_on_c, 9, 59, 0
4, 135444, Note_on_c, 9, 59, 0
4, 135532, Note_on_c, 9, 59, 40
4, 135680, Note_on_c, 9, 59, 0
4, 135788, Note_on_c, 9, 59, 57
4, 135812, Note_on_c, 9, 35, 44
4, 135836, Note_on_c, 9, 35, 0
4, 135864, Note_on_c, 9, 59, 0
4, 135916, Note_on_c, 9, 59, 45
4, 135944, Note_on_c, 9, 50, 94
4, 135984, Note_on_c, 9, 50, 0
4, 136120, Note_on_c, 9, 50, 99
4, 136156, Note_on_c, 9, 50, 0
4, 136216, Note_on_c, 9, 59, 0
4, 136300, Note_on_c, 9, 59, 47
4, 136308, Note_on_c, 9, 50, 92
4, 136368, Note_on_c, 9, 50, 0
4, 136408, Note_on_c, 9, 48, 72
4, 136464, Note_on_c, 9, 48, 0
4, 136512, Note_on_c, 9, 47, 42
4, 136540, Note_on_c, 9, 47, 0
4, 136580, Note_on_c, 9, 59, 0
4, 136595, Note_on_c, 9, 38, 43
4, 136600, Note_on_c, 9, 45, 48
4, 136620, Note_on_c, 9, 45, 0
4, 136684, Note_on_c, 9, 59, 45
4, 136688, Note_on_c, 9, 35, 72
4, 136739, Note_on_c, 9, 38, 0
4, 136816, Note_on_c, 9, 35, 0
4, 137012, Note_on_c, 9, 59, 0
4, 137068, Note_on_c, 9, 59, 50
4, 137340, Note_on_c, 9, 59, 0
4, 137340, Note_on_c, 9, 35, 66
4, 137363, Note_on_c, 9, 38, 52
4, 137380, Note_on_c, 9, 35, 0
4, 137452, Note_on_c, 9, 59, 36
4, 137499, Note_on_c, 9, 38, 0
4, 137764, Note_on_c, 9, 59, 0
4, 137836, Note_on_c, 9, 59, 38
4, 138104, Note_on_c, 9, 59, 0
4, 138113, Note_on_c, 9, 59, 53
4, 138124, Note_on_c, 9, 35, 83
4, 138216, Note_on_c, 9, 35, 0
4, 138220, Note_on_c, 9, 59, 32
4, 138229, Note_on_c, 9, 59, 0
4, 138256, Note_on_c, 9, 35, 64
4, 138404, Note_on_c, 9, 35, 0
4, 138544, Note_on_c, 9, 59, 0
4, 138604, Note_on_c, 9, 59, 46
4, 138900, Note_on_c, 9, 35, 57
4, 138932, Note_on_c, 9, 59, 0
4, 138964, Note_on_c, 9, 35, 0
4, 138988, Note_on_c, 9, 59, 43
4, 139260, Note_on_c, 9, 59, 0
4, 139265, Note_on_c, 9, 59, 56
4, 139372, Note_on_c, 9, 59, 34
4, 139385, Note_on_c, 9, 59, 0
4, 139644, Note_on_c, 9, 59, 0
4, 139649, Note_on_c, 9, 59, 61
4, 139704, Note_on_c, 9, 35, 40
4, 139728, Note_on_c, 9, 35, 0
4, 139756, Note_on_c, 9, 59, 38
4, 139777, Note_on_c, 9, 59, 0
4, 139826, Note_on_c, 9, 38, 40
4, 139866, Note_on_c, 9, 38, 0
4, 139942, Note_on_c, 9, 38, 39
4, 139970, Note_on_c, 9, 38, 0
4, 140060, Note_on_c, 9, 59, 0
4, 140072, Note_on_c, 9, 35, 46
4, 140096, Note_on_c, 9, 35, 0
4, 140140, Note_on_c, 9, 59, 44
4, 140194, Note_on_c, 9, 38, 54
4, 140218, Note_on_c, 9, 38, 0
4, 140400, Note_on_c, 9, 59, 0
4, 140417, Note_on_c, 9, 59, 47
4, 140440, Note_on_c, 9, 35, 79
4, 140517, Note_on_c, 9, 59, 0
4, 140524, Note_on_c, 9, 59, 41
4, 140528, Note_on_c, 9, 35, 0
4, 140840, Note_on_c, 9, 59, 0
4, 140908, Note_on_c, 9, 59, 44
4, 141116, Note_on_c, 9, 59, 0
4, 141164, Note_on_c, 9, 59, 66
4, 141244, Note_on_c, 9, 59, 0
4, 141292, Note_on_c, 9, 59, 36
4, 141342, Note_on_c, 9, 38, 66
4, 141394, Note_on_c, 9, 38, 0
4, 141452, Note_on_c, 9, 38, 56
4, 141480, Note_on_c, 9, 38, 0
4, 141584, Note_on_c, 9, 35, 81
4, 141604, Note_on_c, 9, 59, 0
4, 141676, Note_on_c, 9, 59, 41
4, 141752, Note_on_c, 9, 35, 0
4, 141862, Note_on_c, 9, 38, 54
4, 141910, Note_on_c, 9, 38, 0
4, 141944, Note_on_c, 9, 59, 0
4, 141960, Note_on_c, 9, 38, 52
4, 141971, Note_on_c, 9, 38, 44
4, 141984, Note_on_c, 9, 38, 0
4, 142060, Note_on_c, 9, 59, 41
4, 142100, Note_on_c, 9, 35, 66
4, 142119, Note_on_c, 9, 38, 0
4, 142208, Note_on_c, 9, 35, 0
4, 142372, Note_on_c, 9, 59, 0
4, 142444, Note_on_c, 9, 59, 44
4, 142486, Note_on_c, 9, 38, 59
4, 142546, Note_on_c, 9, 38, 0
4, 142608, Note_on_c, 9, 38, 48
4, 142628, Note_on_c, 9, 38, 0
4, 142716, Note_on_c, 9, 59, 0
4, 142739, Note_on_c, 9, 38, 39
4, 142740, Note_on_c, 9, 35, 39
4, 142760, Note_on_c, 9, 35, 0
4, 142776, Note_on_c, 9, 59, 73
4, 142804, Note_on_c, 9, 59, 0
4, 142828, Note_on_c, 9, 59, 37
4, 142851, Note_on_c, 9, 38, 0
4, 143152, Note_on_c, 9, 59, 0
4, 143212, Note_on_c, 9, 59, 44
4, 143472, Note_on_c, 9, 59, 0
4, 143489, Note_on_c, 9, 59, 58
4, 143508, Note_on_c, 9, 35, 47
4, 143540, Note_on_c, 9, 35, 0
4, 143596, Note_on_c, 9, 59, 27
4, 143613, Note_on_c, 9, 59, 0
4, 143628, Note_on_c, 9, 35, 45
4, 143656, Note_on_c, 9, 35, 0
4, 143872, Note_on_c, 9, 59, 0
4, 143873, Note_on_c, 9, 59, 59
4, 143980, Note_on_c, 9, 59, 31
4, 144001, Note_on_c, 9, 59, 0
4, 144256, Note_on_c, 9, 35, 51
4, 144300, Note_on_c, 9, 59, 0
4, 144308, Note_on_c, 9, 35, 0
4, 144364, Note_on_c, 9, 59, 39
4, 144388, Note_on_c, 9, 35, 38
4, 144420, Note_on_c, 9, 35, 0
4, 144668, Note_on_c, 9, 59, 0
4, 144748, Note_on_c, 9, 59, 36
4, 145016, Note_on_c, 9, 59, 0
4, 145043, Note_on_c, 9, 38, 52
4, 145132, Note_on_c, 9, 59, 34
4, 145179, Note_on_c, 9, 38, 0
4, 145424, Note_on_c, 9, 59, 0
4, 145460, Note_on_c, 9, 35, 48
4, 145480, Note_on_c, 9, 35, 0
4, 145516, Note_on_c, 9, 59, 37
4, 145592, Note_on_c, 9, 35, 26
4, 145620, Note_on_c, 9, 35, 0
4, 145788, Note_on_c, 9, 59, 0
4, 145811, Note_on_c, 9, 38, 53
4, 145812, Note_on_c, 9, 35, 72
4, 145852, Note_on_c, 9, 35, 0
4, 145900, Note_on_c, 9, 59, 33
4, 145923, Note_on_c, 9, 38, 0
4, 146212, Note_on_c, 9, 59, 0
4, 146284, Note_on_c, 9, 59, 44
4, 146296, Note_on_c, 9, 46, 62
4, 146400, Note_on_c, 9, 46, 0
4, 146548, Note_on_c, 9, 59, 0
4, 146579, Note_on_c, 9, 38, 42
4, 146596, Note_on_c, 9, 35, 64
4, 146640, Note_on_c, 9, 35, 0
4, 146668, Note_on_c, 9, 59, 36
4, 146707, Note_on_c, 9, 38, 0
4, 146940, Note_on_c, 9, 59, 0
4, 146963, Note_on_c, 9, 38, 69
4, 147052, Note_on_c, 9, 59, 42
4, 147079, Note_on_c, 9, 38, 0
4, 147328, Note_on_c, 9, 35, 53
4, 147352, Note_on_c, 9, 35, 0
4, 147376, Note_on_c, 9, 59, 0
4, 147436, Note_on_c, 9, 59, 44
4, 147712, Note_on_c, 9, 59, 0
4, 147713, Note_on_c, 9, 59, 58
4, 147820, Note_on_c, 9, 59, 34
4, 147849, Note_on_c, 9, 59, 0
4, 148132, Note_on_c, 9, 59, 0
4, 148204, Note_on_c, 9, 59, 36
4, 148356, Note_on_c, 9, 45, 65
4, 148380, Note_on_c, 9, 45, 0
4, 148484, Note_on_c, 9, 38, 50
4, 148508, Note_on_c, 9, 38, 0
4, 148516, Note_on_c, 9, 59, 0
4, 148588, Note_on_c, 9, 59, 41
4, 148604, Note_on_c, 9, 45, 35
4, 148612, Note_on_c, 9, 43, 43
4, 148632, Note_on_c, 9, 45, 0
4, 148636, Note_on_c, 9, 43, 0
4, 148744, Note_on_c, 9, 38, 49
4, 148764, Note_on_c, 9, 38, 0
4, 148836, Note_on_c, 9, 59, 0
4, 148856, Note_on_c, 9, 38, 65
4, 148865, Note_on_c, 9, 59, 51
4, 148908, Note_on_c, 9, 38, 0
4, 148957, Note_on_c, 9, 59, 0
4, 148972, Note_on_c, 9, 59, 35
4, 148988, Note_on_c, 9, 35, 51
4, 148992, Note_on_c, 9, 57, 49
4, 149016, Note_on_c, 9, 57, 0
4, 149032, Note_on_c, 9, 35, 0
4, 149276, Note_on_c, 9, 59, 0
4, 149356, Note_on_c, 9, 59, 38
4, 149564, Note_on_c, 9, 59, 0
4, 149612, Note_on_c, 9, 59, 60
4, 149648, Note_on_c, 9, 35, 49
4, 149676, Note_on_c, 9, 35, 0
4, 149676, Note_on_c, 9, 59, 0
4, 149740, Note_on_c, 9, 59, 32
4, 150032, Note_on_c, 9, 59, 0
4, 150124, Note_on_c, 9, 59, 48
4, 150380, Note_on_c, 9, 59, 0
4, 150401, Note_on_c, 9, 59, 54
4, 150508, Note_on_c, 9, 59, 36
4, 150517, Note_on_c, 9, 59, 0
4, 150528, Note_on_c, 9, 35, 40
4, 150580, Note_on_c, 9, 35, 0
4, 150768, Note_on_c, 9, 59, 0
4, 150785, Note_on_c, 9, 59, 56
4, 150892, Note_on_c, 9, 59, 36
4, 150897, Note_on_c, 9, 59, 0
4, 151188, Note_on_c, 9, 35, 47
4, 151192, Note_on_c, 9, 59, 0
4, 151212, Note_on_c, 9, 35, 0
4, 151276, Note_on_c, 9, 59, 36
4, 151556, Note_on_c, 9, 59, 0
4, 151571, Note_on_c, 9, 38, 38
4, 151660, Note_on_c, 9, 59, 33
4, 151731, Note_on_c, 9, 38, 0
4, 151908, Note_on_c, 9, 29, 37
4, 151936, Note_on_c, 9, 59, 0
4, 151955, Note_on_c, 9, 38, 63
4, 152044, Note_on_c, 9, 59, 37
4, 152107, Note_on_c, 9, 38, 0
4, 152380, Note_on_c, 9, 59, 0
4, 152428, Note_on_c, 9, 29, 0
4, 152428, Note_on_c, 9, 59, 46
4, 152456, Note_on_c, 9, 35, 53
4, 152672, Note_on_c, 9, 35, 0
4, 152692, Note_on_c, 9, 59, 0
4, 152696, Note_on_c, 9, 35, 38
4, 152723, Note_on_c, 9, 38, 51
4, 152736, Note_on_c, 9, 35, 0
4, 152812, Note_on_c, 9, 59, 30
4, 152843, Note_on_c, 9, 38, 0
4, 153052, Note_on_c, 9, 59, 0
4, 153107, Note_on_c, 9, 38, 62
4, 153196, Note_on_c, 9, 59, 33
4, 153239, Note_on_c, 9, 38, 0
4, 153476, Note_on_c, 9, 35, 84
4, 153524, Note_on_c, 9, 59, 0
4, 153528, Note_on_c, 9, 35, 0
4, 153580, Note_on_c, 9, 59, 43
4, 153857, Note_on_c, 9, 59, 63
4, 153860, Note_on_c, 9, 59, 0
4, 153964, Note_on_c, 9, 59, 31
4, 154001, Note_on_c, 9, 59, 0
4, 154236, Note_on_c, 9, 59, 0
4, 154241, Note_on_c, 9, 59, 64
4, 154268, Note_on_c, 9, 35, 20
4, 154296, Note_on_c, 9, 35, 0
4, 154348, Note_on_c, 9, 59, 34
4, 154381, Note_on_c, 9, 59, 0
4, 154392, Note_on_c, 9, 35, 28
4, 154416, Note_on_c, 9, 35, 0
4, 154616, Note_on_c, 9, 31, 58
4, 154644, Note_on_c, 9, 31, 0
4, 154684, Note_on_c, 9, 59, 0
4, 154732, Note_on_c, 9, 59, 39
4, 154744, Note_on_c, 9, 46, 53
4, 154748, Note_on_c, 9, 35, 42
4, 154776, Note_on_c, 9, 35, 0
4, 154832, Note_on_c, 9, 46, 0
4, 154876, Note_on_c, 9, 31, 68
4, 154956, Note_on_c, 9, 59, 0
4, 154968, Note_on_c, 9, 31, 0
4, 154988, Note_on_c, 9, 59, 54
4, 154996, Note_on_c, 9, 35, 44
4, 155024, Note_on_c, 9, 35, 0
4, 155072, Note_on_c, 9, 59, 0
4, 155116, Note_on_c, 9, 59, 42
4, 155428, Note_on_c, 9, 59, 0
4, 155500, Note_on_c, 9, 59, 34
4, 155808, Note_on_c, 9, 59, 0
4, 155884, Note_on_c, 9, 59, 39
4, 156184, Note_on_c, 9, 59, 0
4, 156268, Note_on_c, 9, 59, 35
4, 156464, Note_on_c, 9, 59, 0
4, 156545, Note_on_c, 9, 59, 44
4, 156568, Note_on_c, 9, 35, 71
4, 156640, Note_on_c, 9, 35, 0
4, 156652, Note_on_c, 9, 59, 32
4, 156665, Note_on_c, 9, 59, 0
4, 156708, Note_on_c, 9, 35, 36
4, 156868, Note_on_c, 9, 35, 0
4, 156956, Note_on_c, 9, 59, 0
4, 156972, Note_on_c, 9, 35, 30
4, 157000, Note_on_c, 9, 35, 0
4, 157036, Note_on_c, 9, 59, 44
4, 157116, Note_on_c, 9, 59, 0
4, 157178, Note_on_c, 9, 38, 44
4, 157270, Note_on_c, 9, 38, 0
4, 157292, Note_on_c, 9, 59, 53
4, 157356, Note_on_c, 9, 59, 0
4, 157420, Note_on_c, 9, 59, 41
4, 157716, Note_on_c, 9, 59, 0
4, 157804, Note_on_c, 9, 59, 44
4, 157912, Note_on_c, 9, 59, 0
4, 157946, Note_on_c, 9, 38, 48
4, 157992, Note_on_c, 9, 35, 60
4, 158010, Note_on_c, 9, 38, 0
4, 158052, Note_on_c, 9, 35, 0
4, 158060, Note_on_c, 9, 59, 46
4, 158100, Note_on_c, 9, 35, 54
4, 158124, Note_on_c, 9, 59, 0
4, 158188, Note_on_c, 9, 35, 0
4, 158188, Note_on_c, 9, 59, 50
4, 158220, Note_on_c, 9, 35, 48
4, 158312, Note_on_c, 9, 35, 0
4, 158444, Note_on_c, 9, 59, 0
4, 158483, Note_on_c, 9, 38, 56
4, 158572, Note_on_c, 9, 59, 34
4, 158631, Note_on_c, 9, 38, 0
4, 158852, Note_on_c, 9, 35, 42
4, 158880, Note_on_c, 9, 35, 0
4, 158916, Note_on_c, 9, 59, 0
4, 158956, Note_on_c, 9, 59, 36
4, 159228, Note_on_c, 9, 59, 0
4, 159251, Note_on_c, 9, 38, 47
4, 159340, Note_on_c, 9, 59, 37
4, 159399, Note_on_c, 9, 38, 0
4, 159628, Note_on_c, 9, 35, 46
4, 159656, Note_on_c, 9, 35, 0
4, 159672, Note_on_c, 9, 59, 0
4, 159724, Note_on_c, 9, 59, 36
4, 159960, Note_on_c, 9, 59, 0
4, 160000, Note_on_c, 9, 41, 38
4, 160064, Note_on_c, 9, 41, 0
4, 160108, Note_on_c, 9, 59, 34
4, 160160, Note_on_c, 9, 48, 32
4, 160184, Note_on_c, 9, 48, 0
4, 160284, Note_on_c, 9, 48, 45
4, 160308, Note_on_c, 9, 48, 0
4, 160428, Note_on_c, 9, 59, 0
4, 160492, Note_on_c, 9, 59, 36
4, 160668, Note_on_c, 9, 48, 71
4, 160688, Note_on_c, 9, 48, 0
4, 160744, Note_on_c, 9, 59, 0
4, 160769, Note_on_c, 9, 59, 57
4, 160792, Note_on_c, 9, 35, 57
4, 160824, Note_on_c, 9, 35, 0
4, 160876, Note_on_c, 9, 59, 27
4, 160893, Note_on_c, 9, 59, 0
4, 160924, Note_on_c, 9, 48, 76
4, 160944, Note_on_c, 9, 48, 0
4, 161152, Note_on_c, 9, 48, 66
4, 161164, Note_on_c, 9, 59, 0
4, 161172, Note_on_c, 9, 48, 0
4, 161260, Note_on_c, 9, 59, 45
4, 161296, Note_on_c, 9, 35, 79
4, 161356, Note_on_c, 9, 35, 0
4, 161500, Note_on_c, 9, 59, 0
4, 161537, Note_on_c, 9, 59, 40
4, 161556, Note_on_c, 9, 35, 28
4, 161580, Note_on_c, 9, 35, 0
4, 161621, Note_on_c, 9, 59, 0
4, 161644, Note_on_c, 9, 59, 35
4, 161828, Note_on_c, 9, 59, 0
4, 161900, Note_on_c, 9, 59, 64
4, 162048, Note_on_c, 9, 59, 0
4, 162049, Note_on_c, 9, 59, 49
4, 162277, Note_on_c, 9, 59, 0
4, 162284, Note_on_c, 9, 59, 50
4, 162520, Note_on_c, 9, 45, 66
4, 162540, Note_on_c, 9, 45, 0
4, 162568, Note_on_c, 9, 59, 0
4, 162652, Note_on_c, 9, 45, 66
4, 162668, Note_on_c, 9, 59, 66
4, 162732, Note_on_c, 9, 59, 0
4, 162748, Note_on_c, 9, 45, 0
4, 162784, Note_on_c, 9, 57, 71
4, 162788, Note_on_c, 9, 35, 66
4, 162796, Note_on_c, 9, 59, 28
4, 162836, Note_on_c, 9, 57, 0
4, 163116, Note_on_c, 9, 59, 0
4, 163180, Note_on_c, 9, 59, 38
4, 163444, Note_on_c, 9, 59, 0
4, 163457, Note_on_c, 9, 59, 44
4, 163564, Note_on_c, 9, 59, 31
4, 163573, Note_on_c, 9, 59, 0
4, 163620, Note_on_c, 9, 35, 0
4, 163816, Note_on_c, 9, 59, 0
4, 163840, Note_on_c, 9, 38, 62
4, 163908, Note_on_c, 9, 38, 0
4, 163948, Note_on_c, 9, 59, 28
4, 163960, Note_on_c, 9, 46, 55
4, 164040, Note_on_c, 9, 46, 0
4, 164244, Note_on_c, 9, 35, 54
4, 164268, Note_on_c, 9, 59, 0
4, 164316, Note_on_c, 9, 35, 0
4, 164332, Note_on_c, 9, 59, 34
4, 164376, Note_on_c, 9, 35, 49
4, 164540, Note_on_c, 9, 35, 0
4, 164648, Note_on_c, 9, 59, 0
4, 164716, Note_on_c, 9, 59, 37
4, 164864, Note_on_c, 9, 38, 52
4, 164892, Note_on_c, 9, 59, 0
4, 164928, Note_on_c, 9, 38, 0
4, 164992, Note_on_c, 9, 35, 53
4, 164993, Note_on_c, 9, 59, 53
4, 165016, Note_on_c, 9, 35, 0
4, 165100, Note_on_c, 9, 59, 58
4, 165101, Note_on_c, 9, 59, 0
4, 165144, Note_on_c, 9, 35, 28
4, 165204, Note_on_c, 9, 35, 0
4, 165356, Note_on_c, 9, 35, 38
4, 165404, Note_on_c, 9, 35, 0
4, 165492, Note_on_c, 9, 59, 0
4, 165504, Note_on_c, 9, 38, 57
4, 165568, Note_on_c, 9, 38, 0
4, 165633, Note_on_c, 9, 59, 55
4, 165740, Note_on_c, 9, 59, 69
4, 165745, Note_on_c, 9, 59, 0
4, 165888, Note_on_c, 9, 38, 49
4, 166100, Note_on_c, 9, 38, 0
4, 166208, Note_on_c, 9, 59, 0
4, 166252, Note_on_c, 9, 59, 44
4, 166564, Note_on_c, 9, 59, 0
4, 166636, Note_on_c, 9, 59, 39
4, 166888, Note_on_c, 9, 59, 0
4, 166912, Note_on_c, 9, 26, 58
4, 167020, Note_on_c, 9, 59, 49
4, 167032, Note_on_c, 9, 46, 33
4, 167056, Note_on_c, 9, 26, 0
4, 167192, Note_on_c, 9, 46, 0
4, 167288, Note_on_c, 9, 35, 54
4, 167312, Note_on_c, 9, 35, 0
4, 167328, Note_on_c, 9, 59, 0
4, 167404, Note_on_c, 9, 59, 45
4, 167652, Note_on_c, 9, 59, 0
4, 167680, Note_on_c, 9, 26, 57
4, 167788, Note_on_c, 9, 59, 51
4, 167792, Note_on_c, 9, 26, 0
4, 168040, Note_on_c, 9, 59, 0
4, 168065, Note_on_c, 9, 59, 67
4, 168172, Note_on_c, 9, 59, 38
4, 168185, Note_on_c, 9, 59, 0
4, 168348, Note_on_c, 9, 38, 46
4, 168368, Note_on_c, 9, 38, 0
4, 168400, Note_on_c, 9, 59, 0
4, 168448, Note_on_c, 9, 26, 70
4, 168468, Note_on_c, 9, 31, 68
4, 168548, Note_on_c, 9, 31, 0
4, 168556, Note_on_c, 9, 59, 46
4, 168584, Note_on_c, 9, 26, 0
4, 168608, Note_on_c, 9, 35, 54
4, 168800, Note_on_c, 9, 35, 0
4, 168848, Note_on_c, 9, 35, 52
4, 168880, Note_on_c, 9, 35, 0
4, 168896, Note_on_c, 9, 59, 0
4, 168940, Note_on_c, 9, 59, 52
4, 169284, Note_on_c, 9, 59, 0
4, 169324, Note_on_c, 9, 59, 38
4, 169592, Note_on_c, 9, 59, 0
4, 169600, Note_on_c, 9, 26, 60
4, 169708, Note_on_c, 9, 59, 43
4, 169748, Note_on_c, 9, 26, 0
4, 170024, Note_on_c, 9, 38, 35
4, 170044, Note_on_c, 9, 59, 0
4, 170048, Note_on_c, 9, 38, 0
4, 170092, Note_on_c, 9, 59, 60
4, 170360, Note_on_c, 9, 59, 0
4, 170368, Note_on_c, 9, 26, 57
4, 170388, Note_on_c, 9, 31, 46
4, 170416, Note_on_c, 9, 31, 0
4, 170476, Note_on_c, 9, 59, 49
4, 170520, Note_on_c, 9, 26, 0
4, 170528, Note_on_c, 9, 46, 30
4, 170708, Note_on_c, 9, 46, 0
4, 170748, Note_on_c, 9, 59, 0
4, 170752, Note_on_c, 9, 26, 67
4, 170860, Note_on_c, 9, 59, 48
4, 170884, Note_on_c, 9, 26, 0
4, 171120, Note_on_c, 9, 59, 0
4, 171137, Note_on_c, 9, 59, 69
4, 171180, Note_on_c, 9, 35, 57
4, 171204, Note_on_c, 9, 35, 0
4, 171244, Note_on_c, 9, 59, 41
4, 171261, Note_on_c, 9, 59, 0
4, 171488, Note_on_c, 9, 59, 0
4, 171520, Note_on_c, 9, 26, 72
4, 171628, Note_on_c, 9, 59, 48
4, 171664, Note_on_c, 9, 26, 0
4, 171876, Note_on_c, 9, 59, 0
4, 171904, Note_on_c, 9, 26, 62
4, 171912, Note_on_c, 9, 35, 57
4, 171992, Note_on_c, 9, 35, 0
4, 172012, Note_on_c, 9, 59, 62
4, 172044, Note_on_c, 9, 35, 50
4, 172052, Note_on_c, 9, 26, 0
4, 172220, Note_on_c, 9, 35, 0
4, 172284, Note_on_c, 9, 59, 0
4, 172289, Note_on_c, 9, 59, 57
4, 172396, Note_on_c, 9, 59, 39
4, 172437, Note_on_c, 9, 59, 0
4, 172660, Note_on_c, 9, 59, 0
4, 172672, Note_on_c, 9, 26, 67
4, 172780, Note_on_c, 9, 59, 45
4, 172840, Note_on_c, 9, 26, 0
4, 172840, Note_on_c, 9, 38, 34
4, 172864, Note_on_c, 9, 38, 0
4, 172972, Note_on_c, 9, 31, 48
4, 172996, Note_on_c, 9, 31, 0
4, 173088, Note_on_c, 9, 38, 70
4, 173120, Note_on_c, 9, 59, 0
4, 173136, Note_on_c, 9, 38, 0
4, 173164, Note_on_c, 9, 59, 44
4, 173324, Note_on_c, 9, 38, 67
4, 173368, Note_on_c, 9, 38, 0
4, 173452, Note_on_c, 9, 35, 70
4, 173484, Note_on_c, 9, 59, 0
4, 173500, Note_on_c, 9, 35, 0
4, 173548, Note_on_c, 9, 59, 52
4, 173596, Note_on_c, 9, 35, 80
4, 173596, Note_on_c, 9, 46, 83
4, 173648, Note_on_c, 9, 46, 0
4, 173672, Note_on_c, 9, 35, 0
4, 173804, Note_on_c, 9, 59, 0
4, 173825, Note_on_c, 9, 59, 71
4, 173932, Note_on_c, 9, 59, 35
4, 173933, Note_on_c, 9, 59, 0
4, 174200, Note_on_c, 9, 35, 69
4, 174244, Note_on_c, 9, 35, 0
4, 174256, Note_on_c, 9, 59, 0
4, 174316, Note_on_c, 9, 59, 50
4, 174640, Note_on_c, 9, 59, 0
4, 174700, Note_on_c, 9, 59, 50
4, 174976, Note_on_c, 9, 59, 0
4, 174976, Note_on_c, 9, 26, 65
4, 175000, Note_on_c, 9, 35, 42
4, 175028, Note_on_c, 9, 35, 0
4, 175084, Note_on_c, 9, 59, 37
4, 175108, Note_on_c, 9, 26, 0
4, 175124, Note_on_c, 9, 35, 40
4, 175200, Note_on_c, 9, 35, 0
4, 175368, Note_on_c, 9, 46, 39
4, 175392, Note_on_c, 9, 59, 0
4, 175444, Note_on_c, 9, 46, 0
4, 175468, Note_on_c, 9, 59, 41
4, 175520, Note_on_c, 9, 46, 32
4, 175564, Note_on_c, 9, 46, 0
4, 175732, Note_on_c, 9, 59, 0
4, 175745, Note_on_c, 9, 59, 53
4, 175852, Note_on_c, 9, 59, 37
4, 175869, Note_on_c, 9, 59, 0
4, 175892, Note_on_c, 9, 35, 33
4, 175952, Note_on_c, 9, 35, 0
4, 176120, Note_on_c, 9, 59, 0
4, 176129, Note_on_c, 9, 59, 62
4, 176132, Note_on_c, 9, 46, 63
4, 176204, Note_on_c, 9, 46, 0
4, 176236, Note_on_c, 9, 59, 34
4, 176253, Note_on_c, 9, 59, 0
4, 176272, Note_on_c, 9, 46, 35
4, 176412, Note_on_c, 9, 46, 0
4, 176516, Note_on_c, 9, 35, 43
4, 176544, Note_on_c, 9, 35, 0
4, 176564, Note_on_c, 9, 59, 0
4, 176620, Note_on_c, 9, 59, 41
4, 176668, Note_on_c, 9, 35, 33
4, 176704, Note_on_c, 9, 35, 0
4, 176896, Note_on_c, 9, 59, 0
4, 176896, Note_on_c, 9, 46, 62
4, 176897, Note_on_c, 9, 59, 55
4, 176988, Note_on_c, 9, 46, 0
4, 177004, Note_on_c, 9, 59, 32
4, 177017, Note_on_c, 9, 59, 0
4, 177276, Note_on_c, 9, 35, 50
4, 177312, Note_on_c, 9, 59, 0
4, 177320, Note_on_c, 9, 35, 0
4, 177388, Note_on_c, 9, 59, 36
4, 177420, Note_on_c, 9, 35, 35
4, 177472, Note_on_c, 9, 35, 0
4, 177636, Note_on_c, 9, 59, 0
4, 177664, Note_on_c, 9, 46, 60
4, 177665, Note_on_c, 9, 59, 53
4, 177744, Note_on_c, 9, 46, 0
4, 177765, Note_on_c, 9, 59, 0
4, 177772, Note_on_c, 9, 59, 38
4, 178064, Note_on_c, 9, 35, 46
4, 178084, Note_on_c, 9, 59, 0
4, 178100, Note_on_c, 9, 35, 0
4, 178156, Note_on_c, 9, 59, 47
4, 178204, Note_on_c, 9, 35, 37
4, 178248, Note_on_c, 9, 35, 0
4, 178368, Note_on_c, 9, 59, 0
4, 178468, Note_on_c, 9, 46, 49
4, 178540, Note_on_c, 9, 59, 32
4, 178548, Note_on_c, 9, 46, 0
4, 178832, Note_on_c, 9, 59, 0
4, 178924, Note_on_c, 9, 59, 43
4, 178972, Note_on_c, 9, 35, 50
4, 179012, Note_on_c, 9, 35, 0
4, 179168, Note_on_c, 9, 59, 0
4, 179201, Note_on_c, 9, 59, 56
4, 179289, Note_on_c, 9, 59, 0
4, 179308, Note_on_c, 9, 59, 35
4, 179383, Note_on_c, 9, 59, 60
4, 179435, Note_on_c, 9, 59, 0
4, 179488, Note_on_c, 9, 50, 71
4, 179516, Note_on_c, 9, 50, 0
4, 179536, Note_on_c, 9, 59, 0
4, 179585, Note_on_c, 9, 59, 59
4, 179608, Note_on_c, 9, 35, 68
4, 179673, Note_on_c, 9, 59, 0
4, 179692, Note_on_c, 9, 59, 36
4, 179804, Note_on_c, 9, 35, 0
4, 179924, Note_on_c, 9, 59, 0
4, 179987, Note_on_c, 9, 38, 62
4, 180051, Note_on_c, 9, 38, 0
4, 180115, Note_on_c, 9, 38, 61
4, 180332, Note_on_c, 9, 59, 70
4, 180339, Note_on_c, 9, 38, 0
4, 180364, Note_on_c, 9, 35, 57
4, 180400, Note_on_c, 9, 35, 0
4, 180488, Note_on_c, 9, 35, 51
4, 180644, Note_on_c, 9, 35, 0
4, 180728, Note_on_c, 9, 46, 42
4, 180748, Note_on_c, 9, 46, 0
4, 180760, Note_on_c, 9, 59, 0
4, 180844, Note_on_c, 9, 59, 38
4, 181100, Note_on_c, 9, 59, 0
4, 181144, Note_on_c, 9, 35, 43
4, 181196, Note_on_c, 9, 35, 0
4, 181228, Note_on_c, 9, 59, 51
4, 181308, Note_on_c, 9, 35, 46
4, 181364, Note_on_c, 9, 35, 0
4, 181456, Note_on_c, 9, 59, 0
4, 181504, Note_on_c, 9, 26, 58
4, 181523, Note_on_c, 9, 38, 40
4, 181536, Note_on_c, 9, 46, 54
4, 181600, Note_on_c, 9, 46, 0
4, 181612, Note_on_c, 9, 59, 42
4, 181620, Note_on_c, 9, 26, 0
4, 181912, Note_on_c, 9, 59, 0
4, 181920, Note_on_c, 9, 35, 43
4, 181952, Note_on_c, 9, 35, 0
4, 181996, Note_on_c, 9, 59, 44
4, 182060, Note_on_c, 9, 35, 43
4, 182128, Note_on_c, 9, 35, 0
4, 182196, Note_on_c, 9, 59, 0
4, 182272, Note_on_c, 9, 26, 49
4, 182288, Note_on_c, 9, 46, 50
4, 182336, Note_on_c, 9, 46, 0
4, 182376, Note_on_c, 9, 26, 0
4, 182380, Note_on_c, 9, 59, 53
4, 182632, Note_on_c, 9, 59, 0
4, 182668, Note_on_c, 9, 35, 58
4, 182696, Note_on_c, 9, 35, 0
4, 182764, Note_on_c, 9, 59, 54
4, 182831, Note_on_c, 9, 38, 0
4, 182988, Note_on_c, 9, 59, 0
4, 183040, Note_on_c, 9, 26, 65
4, 183059, Note_on_c, 9, 38, 38
4, 183104, Note_on_c, 9, 26, 0
4, 183148, Note_on_c, 9, 59, 42
4, 183372, Note_on_c, 9, 59, 0
4, 183436, Note_on_c, 9, 35, 53
4, 183476, Note_on_c, 9, 35, 0
4, 183532, Note_on_c, 9, 59, 47
4, 183552, Note_on_c, 9, 35, 36
4, 183628, Note_on_c, 9, 35, 0
4, 183635, Note_on_c, 9, 38, 0
4, 183728, Note_on_c, 9, 59, 0
4, 183808, Note_on_c, 9, 26, 62
4, 183827, Note_on_c, 9, 38, 50
4, 183884, Note_on_c, 9, 26, 0
4, 183916, Note_on_c, 9, 59, 37
4, 184004, Note_on_c, 9, 59, 0
4, 184084, Note_on_c, 9, 38, 50
4, 184104, Note_on_c, 9, 38, 0
4, 184172, Note_on_c, 9, 59, 49
4, 184200, Note_on_c, 9, 35, 44
4, 184232, Note_on_c, 9, 35, 0
4, 184236, Note_on_c, 9, 59, 0
4, 184300, Note_on_c, 9, 59, 35
4, 184344, Note_on_c, 9, 38, 40
4, 184368, Note_on_c, 9, 38, 0
4, 184375, Note_on_c, 9, 38, 0
4, 184468, Note_on_c, 9, 38, 52
4, 184492, Note_on_c, 9, 38, 0
4, 184528, Note_on_c, 9, 59, 0
4, 184576, Note_on_c, 9, 26, 46
4, 184577, Note_on_c, 9, 59, 62
4, 184596, Note_on_c, 9, 35, 49
4, 184624, Note_on_c, 9, 35, 0
4, 184673, Note_on_c, 9, 59, 0
4, 184680, Note_on_c, 9, 26, 0
4, 184684, Note_on_c, 9, 59, 36
4, 184716, Note_on_c, 9, 38, 49
4, 184740, Note_on_c, 9, 38, 0
4, 184844, Note_on_c, 9, 38, 45
4, 184884, Note_on_c, 9, 38, 0
4, 184972, Note_on_c, 9, 35, 52
4, 185016, Note_on_c, 9, 59, 0
4, 185056, Note_on_c, 9, 35, 0
4, 185068, Note_on_c, 9, 59, 44
4, 185100, Note_on_c, 9, 38, 55
4, 185124, Note_on_c, 9, 38, 0
4, 185224, Note_on_c, 9, 38, 57
4, 185252, Note_on_c, 9, 38, 0
4, 185340, Note_on_c, 9, 35, 59
4, 185380, Note_on_c, 9, 59, 0
4, 185400, Note_on_c, 9, 35, 0
4, 185452, Note_on_c, 9, 59, 46
4, 185468, Note_on_c, 9, 38, 58
4, 185492, Note_on_c, 9, 38, 0
4, 185632, Note_on_c, 9, 35, 27
4, 185652, Note_on_c, 9, 35, 0
4, 185656, Note_on_c, 9, 59, 0
4, 185708, Note_on_c, 9, 59, 57
4, 185732, Note_on_c, 9, 38, 70
4, 185744, Note_on_c, 9, 35, 41
4, 185752, Note_on_c, 9, 38, 0
4, 185768, Note_on_c, 9, 35, 0
4, 185772, Note_on_c, 9, 59, 0
4, 185836, Note_on_c, 9, 59, 43
4, 185868, Note_on_c, 9, 57, 72
4, 185876, Note_on_c, 9, 35, 51
4, 185888, Note_on_c, 9, 35, 42
4, 185912, Note_on_c, 9, 35, 0
4, 185916, Note_on_c, 9, 57, 0
4, 186072, Note_on_c, 9, 59, 0
4, 186112, Note_on_c, 9, 26, 55
4, 186113, Note_on_c, 9, 59, 53
4, 186185, Note_on_c, 9, 59, 0
4, 186220, Note_on_c, 9, 59, 48
4, 186316, Note_on_c, 9, 26, 0
4, 186384, Note_on_c, 9, 35, 0
4, 186544, Note_on_c, 9, 59, 0
4, 186604, Note_on_c, 9, 59, 40
4, 186800, Note_on_c, 9, 38, 50
4, 186824, Note_on_c, 9, 38, 0
4, 186860, Note_on_c, 9, 59, 0
4, 186880, Note_on_c, 9, 26, 62
4, 186920, Note_on_c, 9, 38, 80
4, 186980, Note_on_c, 9, 38, 0
4, 186988, Note_on_c, 9, 59, 44
4, 187028, Note_on_c, 9, 26, 0
4, 187036, Note_on_c, 9, 57, 66
4, 187048, Note_on_c, 9, 35, 74
4, 187076, Note_on_c, 9, 57, 0
4, 187148, Note_on_c, 9, 35, 0
4, 187276, Note_on_c, 9, 59, 0
4, 187372, Note_on_c, 9, 59, 44
4, 187620, Note_on_c, 9, 59, 0
4, 187667, Note_on_c, 9, 38, 50
4, 187756, Note_on_c, 9, 59, 34
4, 187815, Note_on_c, 9, 38, 0
4, 188032, Note_on_c, 9, 38, 44
4, 188064, Note_on_c, 9, 59, 0
4, 188104, Note_on_c, 9, 38, 0
4, 188140, Note_on_c, 9, 59, 44
4, 188180, Note_on_c, 9, 38, 45
4, 188356, Note_on_c, 9, 38, 0
4, 188388, Note_on_c, 9, 59, 0
4, 188428, Note_on_c, 9, 35, 40
4, 188435, Note_on_c, 9, 38, 38
4, 188468, Note_on_c, 9, 35, 0
4, 188524, Note_on_c, 9, 59, 54
4, 188567, Note_on_c, 9, 38, 0
4, 188844, Note_on_c, 9, 59, 0
4, 188908, Note_on_c, 9, 59, 43
4, 188947, Note_on_c, 9, 38, 18
4, 189011, Note_on_c, 9, 38, 0
4, 189168, Note_on_c, 9, 59, 0
4, 189184, Note_on_c, 9, 26, 53
4, 189208, Note_on_c, 9, 38, 37
4, 189252, Note_on_c, 9, 38, 0
4, 189292, Note_on_c, 9, 59, 38
4, 189316, Note_on_c, 9, 26, 0
4, 189580, Note_on_c, 9, 35, 24
4, 189616, Note_on_c, 9, 35, 0
4, 189616, Note_on_c, 9, 59, 0
4, 189676, Note_on_c, 9, 59, 54
4, 189703, Note_on_c, 9, 59, 36
4, 189731, Note_on_c, 9, 59, 0
4, 189939, Note_on_c, 9, 59, 55
4, 189948, Note_on_c, 9, 59, 0
4, 189952, Note_on_c, 9, 26, 35
4, 189963, Note_on_c, 9, 59, 0
4, 190060, Note_on_c, 9, 59, 51
4, 190080, Note_on_c, 9, 26, 0
4, 190328, Note_on_c, 9, 59, 0
4, 190336, Note_on_c, 9, 26, 44
4, 190344, Note_on_c, 9, 35, 36
4, 190376, Note_on_c, 9, 35, 0
4, 190444, Note_on_c, 9, 59, 53
4, 190456, Note_on_c, 9, 26, 0
4, 190491, Note_on_c, 9, 59, 44
4, 190647, Note_on_c, 9, 59, 0
4, 190719, Note_on_c, 9, 59, 45
4, 190751, Note_on_c, 9, 59, 0
4, 190768, Note_on_c, 9, 59, 0
4, 190828, Note_on_c, 9, 59, 40
4, 191076, Note_on_c, 9, 59, 0
4, 191100, Note_on_c, 9, 35, 51
4, 191104, Note_on_c, 9, 26, 47
4, 191172, Note_on_c, 9, 35, 0
4, 191200, Note_on_c, 9, 26, 0
4, 191212, Note_on_c, 9, 59, 55
4, 191468, Note_on_c, 9, 35, 60
4, 191520, Note_on_c, 9, 35, 0
4, 191520, Note_on_c, 9, 59, 0
4, 191596, Note_on_c, 9, 59, 45
4, 191736, Note_on_c, 9, 38, 72
4, 191772, Note_on_c, 9, 38, 0
4, 191844, Note_on_c, 9, 59, 0
4, 191856, Note_on_c, 9, 38, 68
4, 191872, Note_on_c, 9, 26, 50
4, 191936, Note_on_c, 9, 38, 0
4, 191972, Note_on_c, 9, 26, 0
4, 191980, Note_on_c, 9, 59, 53
4, 191992, Note_on_c, 9, 35, 48
4, 192024, Note_on_c, 9, 35, 0
4, 192256, Note_on_c, 9, 35, 48
4, 192296, Note_on_c, 9, 59, 0
4, 192312, Note_on_c, 9, 35, 0
4, 192364, Note_on_c, 9, 59, 46
4, 192592, Note_on_c, 9, 59, 0
4, 192632, Note_on_c, 9, 38, 48
4, 192640, Note_on_c, 9, 26, 50
4, 192664, Note_on_c, 9, 38, 0
4, 192736, Note_on_c, 9, 26, 0
4, 192748, Note_on_c, 9, 59, 55
4, 193028, Note_on_c, 9, 38, 64
4, 193048, Note_on_c, 9, 38, 0
4, 193060, Note_on_c, 9, 59, 0
4, 193132, Note_on_c, 9, 59, 47
4, 193372, Note_on_c, 9, 59, 0
4, 193409, Note_on_c, 9, 59, 53
4, 193432, Note_on_c, 9, 35, 38
4, 193464, Note_on_c, 9, 35, 0
4, 193509, Note_on_c, 9, 59, 0
4, 193516, Note_on_c, 9, 59, 46
4, 193672, Note_on_c, 9, 46, 39
4, 193692, Note_on_c, 9, 46, 0
4, 193800, Note_on_c, 9, 35, 47
4, 193824, Note_on_c, 9, 35, 0
4, 193832, Note_on_c, 9, 59, 0
4, 193900, Note_on_c, 9, 59, 40
4, 193920, Note_on_c, 9, 46, 39
4, 193944, Note_on_c, 9, 46, 0
4, 194040, Note_on_c, 9, 35, 44
4, 194064, Note_on_c, 9, 35, 0
4, 194144, Note_on_c, 9, 46, 58
4, 194177, Note_on_c, 9, 59, 38
4, 194180, Note_on_c, 9, 59, 0
4, 194192, Note_on_c, 9, 46, 0
4, 194284, Note_on_c, 9, 59, 50
4, 194289, Note_on_c, 9, 59, 0
4, 194556, Note_on_c, 9, 35, 42
4, 194584, Note_on_c, 9, 35, 0
4, 194624, Note_on_c, 9, 59, 0
4, 194668, Note_on_c, 9, 59, 42
4, 194680, Note_on_c, 9, 46, 51
4, 194776, Note_on_c, 9, 46, 0
4, 194840, Note_on_c, 9, 35, 63
4, 194888, Note_on_c, 9, 35, 0
4, 194944, Note_on_c, 9, 46, 36
4, 194968, Note_on_c, 9, 46, 0
4, 195000, Note_on_c, 9, 59, 0
4, 195052, Note_on_c, 9, 59, 44
4, 195320, Note_on_c, 9, 59, 0
4, 195347, Note_on_c, 9, 38, 51
4, 195372, Note_on_c, 9, 35, 54
4, 195396, Note_on_c, 9, 35, 0
4, 195436, Note_on_c, 9, 59, 38
4, 195568, Note_on_c, 9, 59, 0
4, 195692, Note_on_c, 9, 59, 68
4, 195699, Note_on_c, 9, 38, 0
4, 195712, Note_on_c, 9, 35, 74
4, 195776, Note_on_c, 9, 35, 0
4, 195859, Note_on_c, 9, 38, 57
4, 195923, Note_on_c, 9, 38, 0
4, 196088, Note_on_c, 9, 35, 66
4, 196128, Note_on_c, 9, 35, 0
4, 196140, Note_on_c, 9, 59, 0
4, 196204, Note_on_c, 9, 59, 56
4, 196452, Note_on_c, 9, 59, 0
4, 196468, Note_on_c, 9, 38, 71
4, 196499, Note_on_c, 9, 38, 59
4, 196512, Note_on_c, 9, 38, 0
4, 196588, Note_on_c, 9, 59, 27
4, 196615, Note_on_c, 9, 38, 0
4, 196836, Note_on_c, 9, 38, 62
4, 196884, Note_on_c, 9, 38, 0
4, 196888, Note_on_c, 9, 59, 0
4, 196972, Note_on_c, 9, 59, 47
4, 196996, Note_on_c, 9, 50, 79
4, 197020, Note_on_c, 9, 50, 0
4, 197108, Note_on_c, 9, 50, 78
4, 197152, Note_on_c, 9, 50, 0
4, 197232, Note_on_c, 9, 59, 0
4, 197236, Note_on_c, 9, 48, 87
4, 197249, Note_on_c, 9, 59, 55
4, 197288, Note_on_c, 9, 48, 0
4, 197356, Note_on_c, 9, 59, 37
4, 197365, Note_on_c, 9, 59, 0
4, 197508, Note_on_c, 9, 47, 80
4, 197560, Note_on_c, 9, 47, 0
4, 197632, Note_on_c, 9, 38, 56
4, 197652, Note_on_c, 9, 38, 0
4, 197656, Note_on_c, 9, 59, 0
4, 197740, Note_on_c, 9, 59, 42
4, 197756, Note_on_c, 9, 45, 80
4, 197800, Note_on_c, 9, 45, 0
4, 197884, Note_on_c, 9, 38, 64
4, 197916, Note_on_c, 9, 38, 0
4, 197988, Note_on_c, 9, 38, 83
4, 198016, Note_on_c, 9, 57, 115
4, 198032, Note_on_c, 9, 35, 71
4, 198040, Note_on_c, 9, 38, 0
4, 198052, Note_on_c, 9, 59, 0
4, 198124, Note_on_c, 9, 59, 38
4, 198384, Note_on_c, 9, 59, 0
4, 198400, Note_on_c, 9, 26, 61
4, 198452, Note_on_c, 9, 57, 0
4, 198508, Note_on_c, 9, 59, 37
4, 198528, Note_on_c, 9, 26, 0
4, 198616, Note_on_c, 9, 35, 0
4, 198776, Note_on_c, 9, 59, 0
4, 198784, Note_on_c, 9, 26, 68
4, 198804, Note_on_c, 9, 35, 50
4, 198844, Note_on_c, 9, 35, 0
4, 198892, Note_on_c, 9, 59, 44
4, 198916, Note_on_c, 9, 26, 0
4, 198924, Note_on_c, 9, 35, 64
4, 198968, Note_on_c, 9, 35, 0
4, 199224, Note_on_c, 9, 59, 0
4, 199276, Note_on_c, 9, 59, 49
4, 199536, Note_on_c, 9, 59, 0
4, 199553, Note_on_c, 9, 59, 57
4, 199660, Note_on_c, 9, 59, 33
4, 199669, Note_on_c, 9, 59, 0
4, 199688, Note_on_c, 9, 35, 37
4, 199744, Note_on_c, 9, 35, 0
4, 199964, Note_on_c, 9, 59, 0
4, 200044, Note_on_c, 9, 59, 38
4, 200296, Note_on_c, 9, 59, 0
4, 200321, Note_on_c, 9, 59, 67
4, 200328, Note_on_c, 9, 35, 39
4, 200360, Note_on_c, 9, 35, 0
4, 200425, Note_on_c, 9, 59, 0
4, 200428, Note_on_c, 9, 59, 33
4, 200596, Note_on_c, 9, 38, 41
4, 200624, Note_on_c, 9, 38, 0
4, 200652, Note_on_c, 9, 59, 0
4, 200705, Note_on_c, 9, 59, 68
4, 200724, Note_on_c, 9, 38, 64
4, 200760, Note_on_c, 9, 38, 0
4, 200809, Note_on_c, 9, 59, 0
4, 200812, Note_on_c, 9, 59, 44
4, 200856, Note_on_c, 9, 38, 81
4, 200896, Note_on_c, 9, 38, 0
4, 200996, Note_on_c, 9, 35, 50
4, 201020, Note_on_c, 9, 35, 0
4, 201112, Note_on_c, 9, 59, 0
4, 201112, Note_on_c, 9, 35, 89
4, 201196, Note_on_c, 9, 59, 37
4, 201244, Note_on_c, 9, 35, 0
4, 201440, Note_on_c, 9, 59, 0
4, 201473, Note_on_c, 9, 59, 57
4, 201569, Note_on_c, 9, 59, 0
4, 201580, Note_on_c, 9, 59, 37
4, 201880, Note_on_c, 9, 35, 52
4, 201896, Note_on_c, 9, 59, 0
4, 201928, Note_on_c, 9, 35, 0
4, 201964, Note_on_c, 9, 59, 45
4, 202012, Note_on_c, 9, 35, 58
4, 202068, Note_on_c, 9, 35, 0
4, 202080, Note_on_c, 9, 59, 0
4, 202113, Note_on_c, 9, 59, 59
4, 202177, Note_on_c, 9, 59, 0
4, 202241, Note_on_c, 9, 59, 55
4, 202348, Note_on_c, 9, 59, 49
4, 202365, Note_on_c, 9, 59, 0
4, 202672, Note_on_c, 9, 59, 0
4, 202680, Note_on_c, 9, 38, 55
4, 202716, Note_on_c, 9, 38, 0
4, 202732, Note_on_c, 9, 59, 41
4, 202753, Note_on_c, 9, 59, 27
4, 202817, Note_on_c, 9, 59, 0
4, 202828, Note_on_c, 9, 35, 44
4, 202880, Note_on_c, 9, 35, 0
4, 202984, Note_on_c, 9, 59, 0
4, 203009, Note_on_c, 9, 59, 60
4, 203056, Note_on_c, 9, 35, 48
4, 203080, Note_on_c, 9, 35, 0
4, 203116, Note_on_c, 9, 59, 35
4, 203125, Note_on_c, 9, 59, 0
4, 203196, Note_on_c, 9, 35, 44
4, 203236, Note_on_c, 9, 35, 0
4, 203400, Note_on_c, 9, 57, 66
4, 203408, Note_on_c, 9, 35, 69
4, 203412, Note_on_c, 9, 59, 0
4, 203500, Note_on_c, 9, 59, 44
4, 203764, Note_on_c, 9, 59, 0
4, 203972, Note_on_c, 9, 57, 0
4, 204016, Note_on_c, 9, 35, 0
4, 204016, End_track
0, 0, End_of_file
