0, 0, Header, 1, 4, 960
1, 0, Start_track
1, 0, Title_t, "The Song Is You - trio version"
1, 0, Text_t, "Doug McKenzie  - all parts live played\012"
1, 0, Time_signature, 4, 2, 24, 8
1, 0, Key_signature, -4, "major"
1, 0, Tempo, 333333
1, 0, Marker_t, "Melody  in big blocks - Red Garland style"
1, 25536, Marker_t, "Close position block - LH doubles melody -"
1, 26880, Marker_t, "sometimes does single note chromatic conection  of  chords"
1, 31085, Marker_t, "Now melody with LH 'stabs' using rootless voicings"
1, 75055, Marker_t, "Close position block chords"
1, 96576, Marker_t, "Whole Tone scale (descending augmented triads)"
1, 104168, Marker_t, "More blocks - close position"
1, 119040, Marker_t, "White note glissando on Dm7/G7"
1, 179378, Marker_t, "On Eb7alt, descending augmented triads in RH"
1, 198406, Marker_t, "'Surround' the target melody note"
1, 203899, Marker_t, "'Surround' the next one too!"
1, 216469, Marker_t, "Red Garland style Block chords"
1, 219156, Marker_t, "i.e. RH Plays octaves often with perfect 5th or other chord tones  between"
1, 222720, Marker_t, "LH plays rootless voicings phrased WITH the RHand "
1, 376942, Marker_t, "Simple phrase "
1, 384000, Marker_t, "Phrase echo-ed with changes to match new chord"
1, 511432, Marker_t, "On Db6, ascending chromatic leading tones on diatonic 3rds"
1, 560779, Marker_t, "Descending line in Red Garland style block chords follows harmony"
1, 609688, Marker_t, "Block chords mainly in close position.- some in 'drop 2'"
1, 676704, Marker_t, "Back to main theme on last 16"
1, 714240, Marker_t, "Tremolo on Red Garland voicings"
1, 714240, End_track
2, 0, Start_track
2, 0, Title_t, "MIDI 1"
2, 0, Control_c, 0, 64, 127
2, 69, Note_on_c, 0, 60, 33
2, 71, Note_on_c, 0, 63, 36
2, 102, Note_on_c, 0, 79, 48
2, 102, Note_on_c, 0, 67, 43
2, 135, Note_on_c, 0, 72, 38
2, 156, Note_on_c, 0, 58, 33
2, 161, Note_on_c, 0, 75, 37
2, 168, Note_on_c, 0, 53, 32
2, 526, Control_c, 0, 64, 0
2, 985, Control_c, 0, 64, 127
2, 1254, Note_on_c, 0, 67, 0
2, 1376, Note_on_c, 0, 79, 0
2, 1421, Note_on_c, 0, 53, 0
2, 1461, Note_on_c, 0, 58, 0
2, 1481, Note_on_c, 0, 63, 0
2, 1488, Note_on_c, 0, 60, 0
2, 1586, Note_on_c, 0, 72, 0
2, 1670, Note_on_c, 0, 75, 0
2, 1972, Control_c, 0, 64, 0
2, 1977, Note_on_c, 0, 63, 51
2, 1979, Note_on_c, 0, 80, 53
2, 2031, Note_on_c, 0, 68, 34
2, 2039, Note_on_c, 0, 72, 38
2, 2061, Note_on_c, 0, 60, 22
2, 2074, Note_on_c, 0, 75, 34
2, 2096, Note_on_c, 0, 58, 26
2, 2241, Note_on_c, 0, 68, 0
2, 2249, Note_on_c, 0, 72, 0
2, 2297, Note_on_c, 0, 60, 0
2, 2303, Note_on_c, 0, 58, 0
2, 2305, Note_on_c, 0, 63, 0
2, 2346, Note_on_c, 0, 75, 0
2, 2369, Note_on_c, 0, 80, 0
2, 3497, Note_on_c, 0, 60, 41
2, 3510, Note_on_c, 0, 79, 55
2, 3533, Note_on_c, 0, 63, 52
2, 3533, Note_on_c, 0, 67, 65
2, 3543, Note_on_c, 0, 75, 47
2, 3616, Note_on_c, 0, 77, 27
2, 3723, Note_on_c, 0, 77, 0
2, 3726, Note_on_c, 0, 67, 0
2, 3746, Note_on_c, 0, 63, 0
2, 3751, Note_on_c, 0, 79, 0
2, 3759, Note_on_c, 0, 60, 0
2, 3790, Note_on_c, 0, 75, 0
2, 3951, Note_on_c, 0, 62, 61
2, 3961, Note_on_c, 0, 79, 48
2, 3973, Note_on_c, 0, 53, 36
2, 3994, Note_on_c, 0, 67, 36
2, 4032, Note_on_c, 0, 56, 50
2, 4073, Note_on_c, 0, 59, 29
2, 4348, Note_on_c, 0, 79, 0
2, 4391, Note_on_c, 0, 67, 0
2, 4483, Note_on_c, 0, 56, 0
2, 4483, Note_on_c, 0, 53, 0
2, 4483, Note_on_c, 0, 59, 0
2, 4539, Note_on_c, 0, 62, 0
2, 5371, Note_on_c, 0, 80, 67
2, 5381, Note_on_c, 0, 68, 64
2, 5420, Note_on_c, 0, 74, 58
2, 5430, Note_on_c, 0, 62, 68
2, 5435, Note_on_c, 0, 56, 56
2, 5438, Note_on_c, 0, 59, 57
2, 5507, Note_on_c, 0, 74, 0
2, 5509, Note_on_c, 0, 68, 0
2, 5514, Note_on_c, 0, 62, 0
2, 5561, Note_on_c, 0, 59, 0
2, 5595, Note_on_c, 0, 56, 0
2, 5664, Note_on_c, 0, 80, 0
2, 6324, Note_on_c, 0, 79, 68
2, 6370, Note_on_c, 0, 67, 57
2, 6396, Note_on_c, 0, 56, 40
2, 6398, Note_on_c, 0, 62, 60
2, 6447, Note_on_c, 0, 59, 26
2, 6654, Note_on_c, 0, 59, 0
2, 6707, Control_c, 0, 64, 127
2, 6746, Note_on_c, 0, 56, 0
2, 7133, Note_on_c, 0, 67, 0
2, 7146, Note_on_c, 0, 62, 0
2, 7299, Note_on_c, 0, 79, 0
2, 7478, Control_c, 0, 64, 0
2, 7617, Note_on_c, 0, 61, 42
2, 7632, Note_on_c, 0, 65, 33
2, 7640, Note_on_c, 0, 73, 35
2, 7658, Note_on_c, 0, 60, 22
2, 7671, Note_on_c, 0, 56, 32
2, 8041, Note_on_c, 0, 73, 0
2, 8139, Note_on_c, 0, 75, 37
2, 8308, Note_on_c, 0, 73, 25
2, 8495, Note_on_c, 0, 75, 0
2, 8564, Note_on_c, 0, 65, 0
2, 8574, Note_on_c, 0, 72, 37
2, 8727, Note_on_c, 0, 60, 0
2, 8815, Note_on_c, 0, 73, 0
2, 8925, Note_on_c, 0, 56, 0
2, 9045, Note_on_c, 0, 61, 0
2, 9173, Note_on_c, 0, 72, 0
2, 9296, Note_on_c, 0, 73, 55
2, 9405, Note_on_c, 0, 61, 32
2, 9434, Note_on_c, 0, 65, 33
2, 9471, Note_on_c, 0, 73, 0
2, 9478, Note_on_c, 0, 60, 22
2, 9573, Note_on_c, 0, 65, 0
2, 9609, Note_on_c, 0, 60, 0
2, 9695, Note_on_c, 0, 61, 0
2, 11167, Note_on_c, 0, 61, 47
2, 11175, Note_on_c, 0, 65, 52
2, 11269, Note_on_c, 0, 65, 0
2, 11387, Note_on_c, 0, 61, 0
2, 12580, Control_c, 0, 64, 127
2, 13183, Note_on_c, 0, 61, 59
2, 13224, Control_c, 0, 64, 0
2, 13270, Note_on_c, 0, 61, 0
2, 13418, Note_on_c, 0, 89, 84
2, 13423, Note_on_c, 0, 82, 83
2, 13428, Note_on_c, 0, 77, 89
2, 13446, Note_on_c, 0, 85, 68
2, 13449, Note_on_c, 0, 55, 71
2, 13451, Note_on_c, 0, 61, 75
2, 13477, Note_on_c, 0, 65, 68
2, 13498, Note_on_c, 0, 88, 36
2, 13605, Note_on_c, 0, 88, 0
2, 13779, Note_on_c, 0, 77, 0
2, 13792, Note_on_c, 0, 82, 0
2, 13797, Note_on_c, 0, 65, 0
2, 13846, Note_on_c, 0, 89, 0
2, 13853, Note_on_c, 0, 55, 0
2, 13899, Note_on_c, 0, 61, 0
2, 13910, Note_on_c, 0, 85, 0
2, 14358, Note_on_c, 0, 88, 77
2, 14360, Note_on_c, 0, 61, 68
2, 14370, Note_on_c, 0, 82, 76
2, 14370, Note_on_c, 0, 55, 71
2, 14386, Note_on_c, 0, 76, 73
2, 14394, Note_on_c, 0, 65, 66
2, 14601, Note_on_c, 0, 65, 0
2, 14724, Note_on_c, 0, 55, 0
2, 14765, Note_on_c, 0, 76, 0
2, 14803, Note_on_c, 0, 88, 0
2, 14847, Note_on_c, 0, 82, 0
2, 14859, Note_on_c, 0, 61, 0
2, 15341, Note_on_c, 0, 60, 55
2, 15343, Note_on_c, 0, 87, 69
2, 15354, Note_on_c, 0, 63, 65
2, 15364, Note_on_c, 0, 75, 68
2, 15379, Note_on_c, 0, 82, 62
2, 15415, Note_on_c, 0, 58, 40
2, 15428, Note_on_c, 0, 53, 39
2, 15484, Control_c, 0, 64, 127
2, 16388, Note_on_c, 0, 53, 0
2, 16452, Note_on_c, 0, 75, 0
2, 16559, Note_on_c, 0, 60, 0
2, 16567, Note_on_c, 0, 87, 0
2, 16587, Note_on_c, 0, 82, 0
2, 16616, Note_on_c, 0, 58, 0
2, 16669, Note_on_c, 0, 63, 0
2, 17204, Control_c, 0, 64, 0
2, 17307, Note_on_c, 0, 63, 71
2, 17332, Note_on_c, 0, 53, 60
2, 17340, Note_on_c, 0, 89, 69
2, 17343, Note_on_c, 0, 77, 65
2, 17353, Note_on_c, 0, 84, 66
2, 17373, Note_on_c, 0, 58, 51
2, 17793, Note_on_c, 0, 53, 0
2, 17796, Note_on_c, 0, 89, 0
2, 17824, Note_on_c, 0, 77, 0
2, 17842, Note_on_c, 0, 63, 0
2, 17850, Note_on_c, 0, 84, 0
2, 17878, Note_on_c, 0, 58, 0
2, 17978, Note_on_c, 0, 89, 62
2, 18021, Note_on_c, 0, 77, 58
2, 18026, Note_on_c, 0, 84, 66
2, 18042, Note_on_c, 0, 63, 58
2, 18075, Note_on_c, 0, 53, 36
2, 18090, Note_on_c, 0, 58, 46
2, 18121, Note_on_c, 0, 77, 0
2, 18208, Note_on_c, 0, 89, 0
2, 18267, Note_on_c, 0, 84, 0
2, 18436, Note_on_c, 0, 75, 52
2, 18500, Note_on_c, 0, 53, 0
2, 18589, Note_on_c, 0, 75, 0
2, 18676, Note_on_c, 0, 58, 0
2, 18705, Note_on_c, 0, 63, 0
2, 18938, Note_on_c, 0, 82, 53
2, 18958, Note_on_c, 0, 89, 63
2, 18958, Note_on_c, 0, 54, 69
2, 18963, Note_on_c, 0, 77, 68
2, 18968, Note_on_c, 0, 65, 76
2, 18986, Note_on_c, 0, 58, 59
2, 18989, Note_on_c, 0, 61, 61
2, 19365, Control_c, 0, 64, 127
2, 20630, Note_on_c, 0, 89, 0
2, 20645, Note_on_c, 0, 77, 0
2, 20786, Note_on_c, 0, 65, 0
2, 20834, Note_on_c, 0, 82, 0
2, 20909, Note_on_c, 0, 54, 0
2, 21085, Control_c, 0, 64, 0
2, 21111, Note_on_c, 0, 61, 0
2, 21134, Note_on_c, 0, 87, 38
2, 21167, Note_on_c, 0, 75, 42
2, 21188, Note_on_c, 0, 82, 49
2, 21190, Note_on_c, 0, 64, 51
2, 21203, Note_on_c, 0, 60, 44
2, 21239, Note_on_c, 0, 54, 29
2, 21336, Note_on_c, 0, 58, 0
2, 22030, Control_c, 0, 64, 127
2, 22222, Note_on_c, 0, 82, 0
2, 22250, Note_on_c, 0, 75, 0
2, 22271, Note_on_c, 0, 87, 0
2, 22281, Note_on_c, 0, 64, 0
2, 22534, Note_on_c, 0, 54, 0
2, 23036, Control_c, 0, 64, 0
2, 23069, Note_on_c, 0, 63, 27
2, 23138, Note_on_c, 0, 56, 37
2, 23200, Note_on_c, 0, 53, 29
2, 23958, Control_c, 0, 64, 127
2, 24109, Note_on_c, 0, 56, 0
2, 24232, Note_on_c, 0, 63, 0
2, 24234, Note_on_c, 0, 53, 0
2, 24270, Note_on_c, 0, 60, 0
2, 24803, Control_c, 0, 64, 0
2, 24918, Note_on_c, 0, 63, 52
2, 25056, Note_on_c, 0, 56, 27
2, 25112, Note_on_c, 0, 63, 0
2, 25192, Note_on_c, 0, 56, 0
2, 26477, Note_on_c, 0, 75, 62
2, 26510, Note_on_c, 0, 68, 67
2, 26528, Note_on_c, 0, 63, 75
2, 26541, Note_on_c, 0, 64, 71
2, 26561, Note_on_c, 0, 72, 52
2, 27130, Note_on_c, 0, 72, 0
2, 27140, Note_on_c, 0, 63, 0
2, 27235, Note_on_c, 0, 64, 0
2, 27247, Note_on_c, 0, 75, 0
2, 27270, Note_on_c, 0, 62, 47
2, 27468, Note_on_c, 0, 68, 0
2, 27519, Note_on_c, 0, 61, 51
2, 27542, Note_on_c, 0, 62, 0
2, 27800, Note_on_c, 0, 72, 49
2, 27810, Note_on_c, 0, 68, 33
2, 27813, Note_on_c, 0, 64, 48
2, 27908, Note_on_c, 0, 61, 0
2, 27923, Note_on_c, 0, 60, 50
2, 28891, Control_c, 0, 64, 127
2, 29318, Note_on_c, 0, 72, 0
2, 29370, Note_on_c, 0, 73, 59
2, 29536, Note_on_c, 0, 64, 0
2, 29631, Control_c, 0, 64, 0
2, 29646, Note_on_c, 0, 73, 0
2, 29649, Note_on_c, 0, 68, 0
2, 29974, Note_on_c, 0, 60, 0
2, 30281, Note_on_c, 0, 71, 62
2, 30662, Note_on_c, 0, 71, 0
2, 30721, Note_on_c, 0, 72, 56
2, 30993, Note_on_c, 0, 72, 0
2, 31671, Note_on_c, 0, 75, 73
2, 31937, Note_on_c, 0, 75, 0
2, 32380, Note_on_c, 0, 75, 68
2, 32513, Note_on_c, 0, 67, 45
2, 32580, Note_on_c, 0, 62, 36
2, 32585, Note_on_c, 0, 63, 32
2, 32628, Note_on_c, 0, 75, 0
2, 32677, Note_on_c, 0, 58, 15
2, 32836, Note_on_c, 0, 75, 47
2, 33258, Note_on_c, 0, 75, 0
2, 33499, Note_on_c, 0, 67, 0
2, 33512, Note_on_c, 0, 62, 0
2, 33614, Note_on_c, 0, 75, 64
2, 33783, Note_on_c, 0, 63, 0
2, 33937, Note_on_c, 0, 58, 0
2, 34070, Note_on_c, 0, 75, 0
2, 34267, Note_on_c, 0, 75, 59
2, 34487, Note_on_c, 0, 63, 26
2, 34520, Note_on_c, 0, 57, 32
2, 34541, Note_on_c, 0, 75, 0
2, 34559, Note_on_c, 0, 67, 24
2, 34610, Note_on_c, 0, 75, 33
2, 34981, Note_on_c, 0, 63, 0
2, 35158, Note_on_c, 0, 75, 0
2, 35191, Note_on_c, 0, 67, 0
2, 35560, Note_on_c, 0, 57, 0
2, 35567, Note_on_c, 0, 72, 69
2, 35992, Note_on_c, 0, 72, 0
2, 36082, Note_on_c, 0, 73, 34
2, 36243, Note_on_c, 0, 72, 50
2, 36258, Note_on_c, 0, 63, 28
2, 36356, Note_on_c, 0, 73, 0
2, 36532, Note_on_c, 0, 63, 0
2, 36578, Note_on_c, 0, 72, 0
2, 36599, Note_on_c, 0, 71, 48
2, 37037, Note_on_c, 0, 71, 0
2, 37126, Note_on_c, 0, 72, 74
2, 37193, Note_on_c, 0, 63, 54
2, 37247, Note_on_c, 0, 57, 43
2, 37405, Note_on_c, 0, 57, 0
2, 37418, Note_on_c, 0, 72, 0
2, 37457, Note_on_c, 0, 63, 0
2, 37585, Note_on_c, 0, 73, 59
2, 37930, Note_on_c, 0, 73, 0
2, 38107, Note_on_c, 0, 74, 88
2, 38432, Note_on_c, 0, 65, 37
2, 38437, Note_on_c, 0, 61, 31
2, 38440, Note_on_c, 0, 74, 0
2, 38488, Note_on_c, 0, 56, 45
2, 38511, Note_on_c, 0, 60, 20
2, 38606, Note_on_c, 0, 75, 72
2, 39220, Note_on_c, 0, 75, 0
2, 39451, Note_on_c, 0, 75, 73
2, 39630, Note_on_c, 0, 65, 0
2, 39691, Note_on_c, 0, 60, 0
2, 39748, Note_on_c, 0, 56, 0
2, 39942, Note_on_c, 0, 75, 0
2, 40075, Note_on_c, 0, 74, 52
2, 40321, Note_on_c, 0, 74, 0
2, 40349, Note_on_c, 0, 65, 33
2, 40403, Note_on_c, 0, 56, 34
2, 40429, Note_on_c, 0, 60, 16
2, 40490, Note_on_c, 0, 75, 28
2, 40982, Note_on_c, 0, 75, 0
2, 41294, Note_on_c, 0, 75, 69
2, 41309, Note_on_c, 0, 60, 0
2, 41376, Note_on_c, 0, 65, 0
2, 41455, Note_on_c, 0, 61, 0
2, 41663, Note_on_c, 0, 75, 0
2, 41757, Note_on_c, 0, 56, 0
2, 41875, Note_on_c, 0, 74, 50
2, 42113, Note_on_c, 0, 74, 0
2, 42187, Note_on_c, 0, 61, 33
2, 42226, Note_on_c, 0, 65, 33
2, 42241, Note_on_c, 0, 75, 62
2, 42305, Note_on_c, 0, 55, 25
2, 42717, Note_on_c, 0, 75, 0
2, 42884, Note_on_c, 0, 70, 88
2, 43081, Note_on_c, 0, 65, 0
2, 43357, Note_on_c, 0, 55, 0
2, 43483, Note_on_c, 0, 61, 0
2, 43821, Note_on_c, 0, 61, 38
2, 43831, Note_on_c, 0, 65, 34
2, 43905, Note_on_c, 0, 55, 24
2, 43964, Note_on_c, 0, 65, 0
2, 44056, Note_on_c, 0, 70, 0
2, 44084, Note_on_c, 0, 55, 0
2, 44174, Note_on_c, 0, 72, 76
2, 44210, Note_on_c, 0, 61, 0
2, 44822, Note_on_c, 0, 61, 37
2, 44829, Note_on_c, 0, 72, 0
2, 45139, Note_on_c, 0, 70, 68
2, 45142, Note_on_c, 0, 61, 0
2, 46089, Note_on_c, 0, 70, 0
2, 47991, Note_on_c, 0, 73, 69
2, 48360, Note_on_c, 0, 73, 0
2, 48974, Note_on_c, 0, 68, 55
2, 48984, Note_on_c, 0, 63, 51
2, 49094, Note_on_c, 0, 59, 24
2, 49112, Note_on_c, 0, 60, 22
2, 49225, Note_on_c, 0, 60, 0
2, 49230, Note_on_c, 0, 59, 0
2, 49238, Note_on_c, 0, 68, 0
2, 49366, Note_on_c, 0, 63, 0
2, 49967, Note_on_c, 0, 63, 52
2, 49975, Note_on_c, 0, 67, 52
2, 49998, Note_on_c, 0, 62, 63
2, 50047, Note_on_c, 0, 58, 46
2, 50850, Note_on_c, 0, 62, 0
2, 50968, Note_on_c, 0, 67, 0
2, 51275, Note_on_c, 0, 58, 0
2, 51288, Note_on_c, 0, 63, 0
2, 51503, Note_on_c, 0, 61, 37
2, 51506, Note_on_c, 0, 63, 56
2, 51508, Note_on_c, 0, 66, 67
2, 51567, Note_on_c, 0, 57, 44
2, 51985, Control_c, 0, 64, 127
2, 52904, Note_on_c, 0, 57, 0
2, 52906, Note_on_c, 0, 63, 0
2, 52911, Note_on_c, 0, 61, 0
2, 52916, Note_on_c, 0, 66, 0
2, 53515, Control_c, 0, 64, 0
2, 53579, Note_on_c, 0, 61, 25
2, 53610, Note_on_c, 0, 66, 48
2, 53666, Note_on_c, 0, 62, 55
2, 53674, Note_on_c, 0, 57, 45
2, 53697, Note_on_c, 0, 89, 91
2, 53718, Note_on_c, 0, 88, 80
2, 53805, Note_on_c, 0, 88, 0
2, 54299, Note_on_c, 0, 88, 54
2, 54437, Note_on_c, 0, 89, 0
2, 54445, Note_on_c, 0, 87, 53
2, 54501, Note_on_c, 0, 88, 0
2, 54760, Note_on_c, 0, 86, 45
2, 54780, Note_on_c, 0, 57, 0
2, 54883, Note_on_c, 0, 66, 0
2, 54895, Note_on_c, 0, 87, 0
2, 55141, Note_on_c, 0, 86, 0
2, 55236, Note_on_c, 0, 61, 0
2, 55330, Note_on_c, 0, 88, 82
2, 55402, Note_on_c, 0, 66, 51
2, 55487, Note_on_c, 0, 56, 44
2, 55881, Note_on_c, 0, 87, 52
2, 56035, Note_on_c, 0, 88, 0
2, 56247, Note_on_c, 0, 87, 0
2, 56378, Note_on_c, 0, 86, 65
2, 56595, Note_on_c, 0, 62, 0
2, 56631, Note_on_c, 0, 66, 0
2, 56674, Note_on_c, 0, 86, 0
2, 56900, Note_on_c, 0, 85, 25
2, 57307, Note_on_c, 0, 84, 57
2, 57394, Note_on_c, 0, 61, 40
2, 57425, Note_on_c, 0, 65, 31
2, 57466, Note_on_c, 0, 85, 0
2, 57540, Note_on_c, 0, 84, 0
2, 57670, Note_on_c, 0, 87, 73
2, 57821, Note_on_c, 0, 65, 0
2, 57860, Note_on_c, 0, 61, 0
2, 58249, Note_on_c, 0, 87, 0
2, 58264, Note_on_c, 0, 84, 36
2, 58346, Note_on_c, 0, 61, 23
2, 58461, Note_on_c, 0, 84, 0
2, 58628, Note_on_c, 0, 85, 77
2, 58766, Note_on_c, 0, 56, 0
2, 59017, Note_on_c, 0, 61, 0
2, 59155, Note_on_c, 0, 85, 0
2, 59253, Note_on_c, 0, 61, 31
2, 59265, Note_on_c, 0, 82, 31
2, 59314, Note_on_c, 0, 64, 42
2, 59393, Note_on_c, 0, 55, 24
2, 59398, Note_on_c, 0, 82, 0
2, 59565, Note_on_c, 0, 84, 74
2, 60015, Note_on_c, 0, 84, 0
2, 60154, Note_on_c, 0, 81, 36
2, 60287, Note_on_c, 0, 81, 0
2, 60371, Note_on_c, 0, 64, 0
2, 60433, Note_on_c, 0, 82, 69
2, 60499, Note_on_c, 0, 55, 0
2, 60637, Note_on_c, 0, 61, 0
2, 61016, Note_on_c, 0, 80, 51
2, 61257, Note_on_c, 0, 82, 0
2, 61326, Note_on_c, 0, 80, 0
2, 61341, Note_on_c, 0, 63, 46
2, 61380, Note_on_c, 0, 60, 37
2, 61467, Note_on_c, 0, 79, 36
2, 61600, Note_on_c, 0, 58, 18
2, 62171, Note_on_c, 0, 79, 0
2, 62230, Note_on_c, 0, 63, 0
2, 62371, Note_on_c, 0, 80, 84
2, 62655, Note_on_c, 0, 58, 0
2, 62673, Note_on_c, 0, 60, 0
2, 62903, Note_on_c, 0, 80, 0
2, 62977, Note_on_c, 0, 60, 32
2, 63341, Note_on_c, 0, 80, 83
2, 63469, Note_on_c, 0, 60, 0
2, 63896, Note_on_c, 0, 80, 0
2, 63917, Note_on_c, 0, 60, 39
2, 63953, Note_on_c, 0, 63, 30
2, 64042, Note_on_c, 0, 63, 0
2, 64091, Note_on_c, 0, 60, 0
2, 64959, Note_on_c, 0, 79, 91
2, 65023, Note_on_c, 0, 59, 45
2, 65025, Note_on_c, 0, 62, 52
2, 65056, Note_on_c, 0, 56, 31
2, 65100, Note_on_c, 0, 53, 33
2, 65330, Note_on_c, 0, 79, 0
2, 65604, Note_on_c, 0, 59, 0
2, 65688, Note_on_c, 0, 79, 85
2, 65919, Note_on_c, 0, 59, 29
2, 66100, Note_on_c, 0, 62, 0
2, 66103, Note_on_c, 0, 79, 0
2, 66257, Note_on_c, 0, 59, 0
2, 66331, Note_on_c, 0, 80, 78
2, 66354, Note_on_c, 0, 56, 0
2, 66487, Note_on_c, 0, 53, 0
2, 66722, Note_on_c, 0, 80, 0
2, 66991, Note_on_c, 0, 80, 82
2, 66999, Note_on_c, 0, 56, 28
2, 67019, Note_on_c, 0, 59, 29
2, 67286, Note_on_c, 0, 59, 0
2, 67337, Note_on_c, 0, 56, 0
2, 67360, Note_on_c, 0, 80, 0
2, 67585, Note_on_c, 0, 80, 65
2, 68074, Note_on_c, 0, 80, 0
2, 68230, Note_on_c, 0, 79, 69
2, 68965, Note_on_c, 0, 79, 0
2, 69080, Note_on_c, 0, 73, 40
2, 69114, Note_on_c, 0, 61, 30
2, 69152, Note_on_c, 0, 65, 26
2, 69201, Note_on_c, 0, 56, 23
2, 69395, Note_on_c, 0, 73, 0
2, 69434, Note_on_c, 0, 56, 0
2, 69462, Note_on_c, 0, 65, 0
2, 69500, Note_on_c, 0, 61, 0
2, 70795, Note_on_c, 0, 65, 36
2, 70798, Note_on_c, 0, 61, 34
2, 70831, Note_on_c, 0, 60, 27
2, 70967, Note_on_c, 0, 65, 0
2, 71003, Note_on_c, 0, 60, 0
2, 71090, Note_on_c, 0, 61, 0
2, 71858, Note_on_c, 0, 61, 30
2, 71950, Note_on_c, 0, 61, 0
2, 72101, Note_on_c, 0, 82, 84
2, 72104, Note_on_c, 0, 88, 80
2, 72106, Note_on_c, 0, 76, 92
2, 72132, Note_on_c, 0, 85, 62
2, 72150, Note_on_c, 0, 86, 62
2, 72237, Note_on_c, 0, 86, 0
2, 72792, Note_on_c, 0, 76, 0
2, 72797, Note_on_c, 0, 88, 0
2, 72808, Note_on_c, 0, 61, 46
2, 72836, Note_on_c, 0, 65, 36
2, 72905, Note_on_c, 0, 55, 22
2, 72925, Note_on_c, 0, 82, 0
2, 72928, Note_on_c, 0, 85, 0
2, 72951, Note_on_c, 0, 65, 0
2, 72997, Note_on_c, 0, 55, 0
2, 73038, Note_on_c, 0, 87, 59
2, 73043, Note_on_c, 0, 61, 0
2, 73048, Note_on_c, 0, 82, 51
2, 73053, Note_on_c, 0, 75, 56
2, 73524, Note_on_c, 0, 75, 0
2, 73537, Note_on_c, 0, 87, 0
2, 73606, Note_on_c, 0, 82, 0
2, 74612, Note_on_c, 0, 61, 59
2, 74623, Note_on_c, 0, 64, 66
2, 74722, Note_on_c, 0, 64, 0
2, 74848, Note_on_c, 0, 61, 0
2, 76581, Note_on_c, 0, 49, 62
2, 76796, Note_on_c, 0, 49, 0
2, 76852, Note_on_c, 0, 63, 54
2, 76878, Note_on_c, 0, 58, 56
2, 76878, Note_on_c, 0, 55, 58
2, 76893, Note_on_c, 0, 60, 48
2, 76957, Note_on_c, 0, 51, 60
2, 77413, Note_on_c, 0, 63, 0
2, 77505, Note_on_c, 0, 55, 0
2, 77579, Note_on_c, 0, 49, 34
2, 77646, Note_on_c, 0, 58, 0
2, 77654, Note_on_c, 0, 60, 0
2, 77812, Note_on_c, 0, 58, 55
2, 77830, Note_on_c, 0, 65, 64
2, 77856, Note_on_c, 0, 55, 50
2, 77861, Note_on_c, 0, 60, 55
2, 77876, Note_on_c, 0, 53, 53
2, 77938, Note_on_c, 0, 63, 31
2, 77946, Note_on_c, 0, 49, 0
2, 77974, Note_on_c, 0, 51, 0
2, 78437, Note_on_c, 0, 65, 0
2, 78447, Note_on_c, 0, 55, 0
2, 78562, Note_on_c, 0, 60, 0
2, 78624, Note_on_c, 0, 53, 0
2, 78644, Note_on_c, 0, 63, 0
2, 78657, Note_on_c, 0, 58, 0
2, 78747, Note_on_c, 0, 63, 21
2, 78790, Note_on_c, 0, 51, 38
2, 78824, Note_on_c, 0, 55, 28
2, 79354, Note_on_c, 0, 55, 0
2, 79630, Note_on_c, 0, 63, 0
2, 79720, Note_on_c, 0, 65, 66
2, 79730, Note_on_c, 0, 51, 0
2, 79730, Note_on_c, 0, 58, 55
2, 79738, Note_on_c, 0, 55, 62
2, 79766, Note_on_c, 0, 53, 38
2, 79776, Note_on_c, 0, 63, 26
2, 79809, Note_on_c, 0, 60, 36
2, 80155, Note_on_c, 0, 60, 0
2, 80252, Note_on_c, 0, 55, 0
2, 80326, Note_on_c, 0, 65, 0
2, 80500, Note_on_c, 0, 63, 0
2, 80503, Note_on_c, 0, 58, 0
2, 80610, Note_on_c, 0, 53, 0
2, 80664, Note_on_c, 0, 51, 40
2, 80682, Note_on_c, 0, 63, 59
2, 80971, Note_on_c, 0, 54, 18
2, 80994, Note_on_c, 0, 58, 19
2, 81358, Note_on_c, 0, 54, 0
2, 81427, Note_on_c, 0, 49, 35
2, 81432, Note_on_c, 0, 58, 0
2, 81481, Note_on_c, 0, 63, 0
2, 81658, Note_on_c, 0, 58, 63
2, 81670, Note_on_c, 0, 54, 71
2, 81673, Note_on_c, 0, 53, 53
2, 81681, Note_on_c, 0, 61, 47
2, 81681, Note_on_c, 0, 65, 58
2, 81734, Note_on_c, 0, 63, 29
2, 81742, Note_on_c, 0, 51, 0
2, 81809, Note_on_c, 0, 49, 0
2, 81965, Note_on_c, 0, 54, 0
2, 82031, Note_on_c, 0, 65, 0
2, 82328, Note_on_c, 0, 61, 0
2, 82379, Note_on_c, 0, 51, 46
2, 82390, Note_on_c, 0, 58, 0
2, 82402, Note_on_c, 0, 63, 0
2, 82405, Note_on_c, 0, 53, 0
2, 82625, Note_on_c, 0, 57, 66
2, 82628, Note_on_c, 0, 62, 70
2, 82633, Note_on_c, 0, 66, 59
2, 82646, Note_on_c, 0, 51, 0
2, 82656, Note_on_c, 0, 54, 51
2, 83283, Note_on_c, 0, 66, 0
2, 83293, Note_on_c, 0, 57, 0
2, 83368, Note_on_c, 0, 54, 0
2, 83521, Note_on_c, 0, 57, 64
2, 83552, Note_on_c, 0, 67, 55
2, 83557, Note_on_c, 0, 55, 51
2, 83818, Note_on_c, 0, 57, 0
2, 83903, Note_on_c, 0, 62, 0
2, 83985, Note_on_c, 0, 67, 0
2, 84100, Note_on_c, 0, 55, 0
2, 84220, Note_on_c, 0, 54, 46
2, 84463, Note_on_c, 0, 60, 53
2, 84466, Note_on_c, 0, 63, 55
2, 84474, Note_on_c, 0, 65, 60
2, 84494, Note_on_c, 0, 56, 60
2, 84499, Note_on_c, 0, 68, 47
2, 84581, Note_on_c, 0, 54, 0
2, 85218, Control_c, 0, 64, 127
2, 85300, Note_on_c, 0, 60, 0
2, 85380, Note_on_c, 0, 65, 0
2, 85393, Note_on_c, 0, 63, 0
2, 85428, Note_on_c, 0, 68, 0
2, 86007, Note_on_c, 0, 56, 0
2, 86025, Note_on_c, 0, 75, 71
2, 86030, Note_on_c, 0, 68, 68
2, 86040, Note_on_c, 0, 49, 56
2, 86091, Control_c, 0, 64, 0
2, 86166, Control_c, 0, 64, 127
2, 86296, Note_on_c, 0, 49, 0
2, 87059, Note_on_c, 0, 58, 27
2, 87141, Note_on_c, 0, 68, 0
2, 87179, Note_on_c, 0, 58, 0
2, 87195, Note_on_c, 0, 75, 0
2, 87305, Note_on_c, 0, 72, 68
2, 87374, Note_on_c, 0, 65, 41
2, 87645, Note_on_c, 0, 65, 0
2, 87807, Note_on_c, 0, 72, 0
2, 87942, Control_c, 0, 64, 0
2, 88024, Note_on_c, 0, 75, 56
2, 88040, Note_on_c, 0, 72, 53
2, 88042, Note_on_c, 0, 68, 53
2, 88045, Note_on_c, 0, 64, 57
2, 88081, Note_on_c, 0, 63, 59
2, 88142, Note_on_c, 0, 65, 31
2, 88229, Note_on_c, 0, 65, 0
2, 89274, Control_c, 0, 64, 127
2, 89576, Note_on_c, 0, 64, 0
2, 89688, Note_on_c, 0, 72, 0
2, 89745, Note_on_c, 0, 68, 0
2, 89819, Note_on_c, 0, 75, 0
2, 89942, Control_c, 0, 64, 0
2, 89944, Note_on_c, 0, 73, 50
2, 89962, Note_on_c, 0, 64, 52
2, 89965, Note_on_c, 0, 68, 40
2, 89970, Note_on_c, 0, 61, 39
2, 90057, Note_on_c, 0, 63, 0
2, 90305, Control_c, 0, 64, 127
2, 91035, Note_on_c, 0, 61, 0
2, 91076, Note_on_c, 0, 64, 0
2, 91234, Note_on_c, 0, 68, 0
2, 91526, Note_on_c, 0, 73, 0
2, 92054, Control_c, 0, 64, 0
2, 92166, Note_on_c, 0, 48, 29
2, 92269, Note_on_c, 0, 48, 0
2, 93774, Note_on_c, 0, 63, 39
2, 93807, Note_on_c, 0, 62, 36
2, 93912, Note_on_c, 0, 62, 0
2, 94010, Note_on_c, 0, 63, 0
2, 94048, Note_on_c, 0, 75, 69
2, 94278, Note_on_c, 0, 75, 0
2, 94370, Note_on_c, 0, 77, 36
2, 94532, Note_on_c, 0, 75, 38
2, 94570, Note_on_c, 0, 77, 0
2, 94803, Note_on_c, 0, 74, 55
2, 94824, Note_on_c, 0, 75, 0
2, 94967, Note_on_c, 0, 74, 0
2, 95074, Note_on_c, 0, 75, 67
2, 95574, Note_on_c, 0, 75, 0
2, 95727, Note_on_c, 0, 77, 77
2, 95773, Note_on_c, 0, 67, 56
2, 95776, Note_on_c, 0, 63, 53
2, 95889, Note_on_c, 0, 67, 0
2, 96050, Note_on_c, 0, 77, 0
2, 96070, Note_on_c, 0, 63, 0
2, 96214, Note_on_c, 0, 73, 36
2, 96634, Note_on_c, 0, 73, 0
2, 96995, Note_on_c, 0, 75, 73
2, 97542, Note_on_c, 0, 75, 0
2, 97576, Note_on_c, 0, 71, 64
2, 97635, Note_on_c, 0, 63, 31
2, 97796, Note_on_c, 0, 63, 0
2, 97865, Note_on_c, 0, 71, 0
2, 98042, Note_on_c, 0, 67, 29
2, 98403, Note_on_c, 0, 67, 0
2, 98492, Note_on_c, 0, 73, 52
2, 98510, Note_on_c, 0, 63, 45
2, 98597, Note_on_c, 0, 57, 36
2, 98730, Note_on_c, 0, 57, 0
2, 98746, Note_on_c, 0, 63, 0
2, 98840, Note_on_c, 0, 73, 0
2, 98971, Note_on_c, 0, 69, 18
2, 99532, Note_on_c, 0, 69, 0
2, 99601, Note_on_c, 0, 60, 33
2, 99611, Note_on_c, 0, 65, 30
2, 99624, Note_on_c, 0, 61, 27
2, 99726, Note_on_c, 0, 65, 0
2, 99857, Note_on_c, 0, 72, 74
2, 99938, Note_on_c, 0, 61, 0
2, 99979, Note_on_c, 0, 60, 0
2, 100376, Note_on_c, 0, 72, 0
2, 100512, Note_on_c, 0, 61, 27
2, 100517, Note_on_c, 0, 60, 27
2, 100553, Note_on_c, 0, 65, 30
2, 100681, Note_on_c, 0, 65, 0
2, 100696, Note_on_c, 0, 60, 0
2, 100773, Note_on_c, 0, 61, 0
2, 100788, Note_on_c, 0, 70, 73
2, 101459, Note_on_c, 0, 65, 55
2, 101582, Note_on_c, 0, 70, 0
2, 101720, Note_on_c, 0, 65, 0
2, 101777, Note_on_c, 0, 61, 46
2, 102406, Note_on_c, 0, 61, 0
2, 102667, Note_on_c, 0, 61, 57
2, 103034, Note_on_c, 0, 61, 0
2, 104237, Note_on_c, 0, 63, 64
2, 104275, Note_on_c, 0, 51, 57
2, 104278, Note_on_c, 0, 60, 50
2, 104293, Note_on_c, 0, 55, 55
2, 104293, Note_on_c, 0, 58, 54
2, 104549, Control_c, 0, 64, 127
2, 104854, Note_on_c, 0, 55, 0
2, 104913, Note_on_c, 0, 60, 0
2, 105007, Note_on_c, 0, 63, 0
2, 105089, Note_on_c, 0, 58, 0
2, 105297, Note_on_c, 0, 49, 19
2, 105445, Control_c, 0, 64, 0
2, 105594, Note_on_c, 0, 65, 54
2, 105601, Note_on_c, 0, 53, 46
2, 105604, Note_on_c, 0, 56, 54
2, 105617, Note_on_c, 0, 60, 50
2, 105668, Note_on_c, 0, 49, 0
2, 105681, Note_on_c, 0, 51, 0
2, 105701, Note_on_c, 0, 63, 32
2, 105842, Note_on_c, 0, 65, 0
2, 105862, Note_on_c, 0, 56, 0
2, 105921, Note_on_c, 0, 60, 0
2, 105975, Note_on_c, 0, 63, 0
2, 106136, Note_on_c, 0, 53, 0
2, 106182, Note_on_c, 0, 51, 21
2, 106497, Note_on_c, 0, 67, 56
2, 106523, Note_on_c, 0, 63, 48
2, 106536, Note_on_c, 0, 55, 46
2, 106548, Note_on_c, 0, 59, 44
2, 106551, Note_on_c, 0, 51, 0
2, 106584, Note_on_c, 0, 60, 38
2, 106833, Note_on_c, 0, 60, 0
2, 106851, Note_on_c, 0, 67, 0
2, 106907, Note_on_c, 0, 59, 0
2, 106999, Note_on_c, 0, 63, 0
2, 107163, Note_on_c, 0, 54, 44
2, 107176, Note_on_c, 0, 55, 0
2, 107478, Note_on_c, 0, 54, 0
2, 107501, Note_on_c, 0, 60, 49
2, 107516, Note_on_c, 0, 63, 46
2, 107521, Note_on_c, 0, 56, 52
2, 107529, Note_on_c, 0, 68, 40
2, 107544, Note_on_c, 0, 65, 50
2, 108148, Note_on_c, 0, 60, 0
2, 108171, Note_on_c, 0, 65, 0
2, 108174, Note_on_c, 0, 63, 0
2, 108210, Note_on_c, 0, 68, 0
2, 108366, Note_on_c, 0, 56, 0
2, 108443, Note_on_c, 0, 60, 32
2, 108456, Note_on_c, 0, 67, 42
2, 108481, Note_on_c, 0, 55, 37
2, 108806, Note_on_c, 0, 60, 0
2, 108927, Note_on_c, 0, 67, 0
2, 109070, Note_on_c, 0, 55, 0
2, 109103, Note_on_c, 0, 63, 67
2, 109106, Note_on_c, 0, 56, 57
2, 109116, Note_on_c, 0, 68, 58
2, 109121, Note_on_c, 0, 60, 49
2, 109226, Note_on_c, 0, 60, 0
2, 109321, Note_on_c, 0, 56, 0
2, 109323, Note_on_c, 0, 63, 0
2, 109390, Note_on_c, 0, 68, 0
2, 110058, Note_on_c, 0, 61, 53
2, 110255, Note_on_c, 0, 61, 0
2, 110355, Note_on_c, 0, 75, 83
2, 110370, Note_on_c, 0, 68, 83
2, 110391, Note_on_c, 0, 64, 84
2, 110394, Note_on_c, 0, 63, 88
2, 110432, Note_on_c, 0, 73, 37
2, 110440, Note_on_c, 0, 65, 71
2, 110527, Note_on_c, 0, 65, 0
2, 111149, Note_on_c, 0, 63, 0
2, 111164, Note_on_c, 0, 75, 0
2, 111182, Note_on_c, 0, 64, 0
2, 111231, Note_on_c, 0, 68, 0
2, 111243, Note_on_c, 0, 73, 0
2, 111361, Note_on_c, 0, 62, 58
2, 111366, Note_on_c, 0, 74, 67
2, 111384, Note_on_c, 0, 68, 38
2, 111410, Note_on_c, 0, 64, 46
2, 111822, Note_on_c, 0, 64, 0
2, 111845, Note_on_c, 0, 68, 0
2, 111899, Note_on_c, 0, 74, 0
2, 112226, Note_on_c, 0, 62, 0
2, 112324, Note_on_c, 0, 73, 47
2, 112331, Note_on_c, 0, 61, 40
2, 112352, Note_on_c, 0, 64, 51
2, 112365, Note_on_c, 0, 68, 47
2, 112874, Note_on_c, 0, 68, 0
2, 112892, Note_on_c, 0, 64, 0
2, 113169, Note_on_c, 0, 61, 0
2, 113289, Note_on_c, 0, 60, 33
2, 113314, Note_on_c, 0, 64, 44
2, 113317, Note_on_c, 0, 73, 0
2, 113350, Note_on_c, 0, 68, 35
2, 113358, Note_on_c, 0, 72, 46
2, 113865, Note_on_c, 0, 64, 0
2, 114008, Note_on_c, 0, 72, 0
2, 114118, Note_on_c, 0, 61, 42
2, 114195, Note_on_c, 0, 60, 0
2, 114216, Note_on_c, 0, 73, 47
2, 114267, Note_on_c, 0, 64, 31
2, 114351, Note_on_c, 0, 61, 0
2, 114364, Note_on_c, 0, 70, 26
2, 114374, Note_on_c, 0, 64, 0
2, 114541, Note_on_c, 0, 70, 0
2, 114566, Note_on_c, 0, 68, 0
2, 114582, Note_on_c, 0, 73, 0
2, 115140, Note_on_c, 0, 63, 37
2, 115160, Note_on_c, 0, 75, 48
2, 115199, Note_on_c, 0, 60, 30
2, 115206, Note_on_c, 0, 70, 38
2, 115242, Note_on_c, 0, 53, 25
2, 115263, Note_on_c, 0, 72, 34
2, 115306, Note_on_c, 0, 58, 25
2, 115424, Note_on_c, 0, 72, 0
2, 115547, Note_on_c, 0, 75, 0
2, 115611, Note_on_c, 0, 70, 0
2, 115864, Note_on_c, 0, 63, 0
2, 116136, Note_on_c, 0, 65, 38
2, 116315, Note_on_c, 0, 58, 0
2, 116471, Note_on_c, 0, 60, 0
2, 116474, Note_on_c, 0, 53, 0
2, 116573, Note_on_c, 0, 65, 0
2, 116717, Note_on_c, 0, 63, 58
2, 116753, Note_on_c, 0, 60, 40
2, 116855, Note_on_c, 0, 58, 35
2, 117518, Note_on_c, 0, 60, 0
2, 117733, Note_on_c, 0, 63, 0
2, 117792, Note_on_c, 0, 60, 34
2, 118017, Note_on_c, 0, 60, 0
2, 118127, Note_on_c, 0, 58, 0
2, 118145, Note_on_c, 0, 62, 48
2, 118422, Note_on_c, 0, 64, 31
2, 118481, Note_on_c, 0, 62, 0
2, 118678, Note_on_c, 0, 64, 0
2, 118752, Note_on_c, 0, 65, 44
2, 118921, Note_on_c, 0, 65, 0
2, 118964, Note_on_c, 0, 67, 38
2, 119080, Note_on_c, 0, 67, 0
2, 119205, Note_on_c, 0, 69, 40
2, 119315, Note_on_c, 0, 69, 0
2, 119382, Note_on_c, 0, 71, 36
2, 119487, Note_on_c, 0, 71, 0
2, 119625, Note_on_c, 0, 72, 41
2, 119730, Note_on_c, 0, 72, 0
2, 119804, Note_on_c, 0, 74, 43
2, 119932, Note_on_c, 0, 74, 0
2, 120009, Note_on_c, 0, 76, 35
2, 120122, Note_on_c, 0, 76, 0
2, 120209, Note_on_c, 0, 77, 46
2, 120306, Note_on_c, 0, 77, 0
2, 120418, Note_on_c, 0, 79, 38
2, 120521, Note_on_c, 0, 79, 0
2, 120593, Note_on_c, 0, 81, 44
2, 120692, Note_on_c, 0, 81, 0
2, 120777, Note_on_c, 0, 83, 41
2, 120905, Note_on_c, 0, 83, 0
2, 121005, Note_on_c, 0, 84, 45
2, 121192, Note_on_c, 0, 84, 0
2, 121220, Note_on_c, 0, 86, 34
2, 121389, Note_on_c, 0, 86, 0
2, 121458, Note_on_c, 0, 88, 34
2, 121606, Note_on_c, 0, 88, 0
2, 121673, Note_on_c, 0, 89, 38
2, 121783, Note_on_c, 0, 89, 0
2, 121801, Note_on_c, 0, 64, 35
2, 121873, Note_on_c, 0, 59, 27
2, 121898, Note_on_c, 0, 91, 43
2, 122008, Note_on_c, 0, 91, 0
2, 122029, Note_on_c, 0, 53, 19
2, 122218, Note_on_c, 0, 93, 32
2, 122264, Note_on_c, 0, 53, 0
2, 122287, Note_on_c, 0, 64, 0
2, 122707, Note_on_c, 0, 93, 0
2, 122861, Note_on_c, 0, 98, 71
2, 122874, Note_on_c, 0, 62, 50
2, 122899, Note_on_c, 0, 52, 44
2, 122914, Note_on_c, 0, 55, 37
2, 124410, Note_on_c, 0, 97, 52
2, 124448, Note_on_c, 0, 62, 0
2, 124527, Note_on_c, 0, 96, 71
2, 124581, Note_on_c, 0, 98, 0
2, 124658, Note_on_c, 0, 97, 0
2, 124668, Note_on_c, 0, 52, 0
2, 124827, Note_on_c, 0, 55, 0
2, 124842, Note_on_c, 0, 59, 0
2, 124927, Note_on_c, 0, 95, 59
2, 124955, Note_on_c, 0, 96, 0
2, 125224, Note_on_c, 0, 95, 0
2, 125459, Note_on_c, 0, 91, 74
2, 125526, Note_on_c, 0, 62, 43
2, 125554, Note_on_c, 0, 55, 36
2, 125564, Note_on_c, 0, 59, 32
2, 125628, Note_on_c, 0, 62, 0
2, 125797, Note_on_c, 0, 91, 0
2, 125820, Note_on_c, 0, 55, 0
2, 125853, Note_on_c, 0, 59, 0
2, 126074, Note_on_c, 0, 88, 13
2, 126314, Note_on_c, 0, 88, 0
2, 126463, Note_on_c, 0, 84, 26
2, 126580, Note_on_c, 0, 84, 0
2, 126731, Note_on_c, 0, 64, 53
2, 126754, Note_on_c, 0, 60, 36
2, 126772, Note_on_c, 0, 91, 70
2, 126788, Note_on_c, 0, 79, 53
2, 126798, Note_on_c, 0, 59, 33
2, 126852, Note_on_c, 0, 55, 24
2, 127302, Note_on_c, 0, 91, 0
2, 127315, Note_on_c, 0, 79, 0
2, 127469, Note_on_c, 0, 55, 0
2, 127502, Note_on_c, 0, 59, 0
2, 127505, Note_on_c, 0, 64, 0
2, 127540, Note_on_c, 0, 60, 0
2, 128316, Note_on_c, 0, 64, 38
2, 128319, Note_on_c, 0, 60, 40
2, 128431, Note_on_c, 0, 60, 0
2, 128436, Note_on_c, 0, 64, 0
2, 128600, Note_on_c, 0, 64, 74
2, 128603, Note_on_c, 0, 91, 88
2, 128613, Note_on_c, 0, 55, 68
2, 128616, Note_on_c, 0, 60, 69
2, 128618, Note_on_c, 0, 79, 87
2, 128626, Control_c, 0, 64, 127
2, 128629, Note_on_c, 0, 86, 82
2, 128646, Note_on_c, 0, 59, 70
2, 128974, Note_on_c, 0, 79, 0
2, 128977, Note_on_c, 0, 91, 0
2, 128982, Note_on_c, 0, 55, 0
2, 128992, Note_on_c, 0, 64, 0
2, 129028, Note_on_c, 0, 86, 0
2, 129059, Note_on_c, 0, 59, 0
2, 129082, Note_on_c, 0, 60, 0
2, 129243, Note_on_c, 0, 64, 69
2, 129266, Note_on_c, 0, 55, 57
2, 129269, Note_on_c, 0, 59, 54
2, 129274, Note_on_c, 0, 60, 70
2, 129286, Note_on_c, 0, 91, 70
2, 129289, Note_on_c, 0, 79, 74
2, 129304, Note_on_c, 0, 86, 66
2, 129394, Control_c, 0, 64, 0
2, 129430, Note_on_c, 0, 64, 0
2, 129468, Note_on_c, 0, 79, 0
2, 129471, Note_on_c, 0, 91, 0
2, 129489, Note_on_c, 0, 55, 0
2, 129494, Note_on_c, 0, 86, 0
2, 129504, Note_on_c, 0, 59, 0
2, 129519, Note_on_c, 0, 60, 0
2, 129601, Note_on_c, 0, 55, 40
2, 129606, Note_on_c, 0, 60, 35
2, 129612, Note_on_c, 0, 64, 64
2, 129614, Note_on_c, 0, 59, 30
2, 129624, Note_on_c, 0, 91, 58
2, 129645, Note_on_c, 0, 79, 52
2, 129652, Control_c, 0, 64, 127
2, 129665, Note_on_c, 0, 86, 64
2, 129921, Note_on_c, 0, 64, 0
2, 129962, Note_on_c, 0, 79, 0
2, 129973, Note_on_c, 0, 86, 0
2, 129998, Note_on_c, 0, 91, 0
2, 130011, Note_on_c, 0, 60, 0
2, 130019, Note_on_c, 0, 55, 0
2, 130052, Note_on_c, 0, 59, 0
2, 130321, Note_on_c, 0, 64, 51
2, 130356, Note_on_c, 0, 86, 80
2, 130362, Note_on_c, 0, 91, 76
2, 130372, Control_c, 0, 64, 0
2, 130380, Note_on_c, 0, 79, 72
2, 130387, Note_on_c, 0, 60, 42
2, 130451, Note_on_c, 0, 53, 62
2, 130461, Note_on_c, 0, 57, 52
2, 130502, Note_on_c, 0, 79, 0
2, 130523, Note_on_c, 0, 86, 0
2, 130572, Note_on_c, 0, 91, 0
2, 130712, Note_on_c, 0, 91, 76
2, 130730, Note_on_c, 0, 86, 67
2, 130733, Note_on_c, 0, 79, 69
2, 131183, Note_on_c, 0, 91, 0
2, 131194, Note_on_c, 0, 64, 0
2, 131209, Note_on_c, 0, 53, 0
2, 131294, Note_on_c, 0, 57, 0
2, 131311, Note_on_c, 0, 86, 0
2, 131329, Note_on_c, 0, 60, 0
2, 131340, Note_on_c, 0, 79, 0
2, 131534, Note_on_c, 0, 89, 60
2, 131537, Note_on_c, 0, 64, 49
2, 131560, Note_on_c, 0, 57, 40
2, 131562, Note_on_c, 0, 53, 40
2, 131567, Note_on_c, 0, 77, 53
2, 131570, Note_on_c, 0, 60, 40
2, 131572, Note_on_c, 0, 84, 53
2, 131969, Note_on_c, 0, 77, 0
2, 131987, Note_on_c, 0, 64, 0
2, 132028, Note_on_c, 0, 84, 0
2, 132033, Note_on_c, 0, 53, 0
2, 132033, Note_on_c, 0, 89, 0
2, 132054, Note_on_c, 0, 57, 0
2, 132100, Note_on_c, 0, 60, 0
2, 132494, Note_on_c, 0, 89, 51
2, 132515, Note_on_c, 0, 64, 39
2, 132517, Note_on_c, 0, 84, 48
2, 132525, Note_on_c, 0, 57, 45
2, 132533, Note_on_c, 0, 60, 32
2, 132535, Note_on_c, 0, 77, 43
2, 132558, Note_on_c, 0, 53, 31
2, 132735, Note_on_c, 0, 89, 0
2, 132809, Note_on_c, 0, 64, 0
2, 132835, Note_on_c, 0, 84, 0
2, 132858, Note_on_c, 0, 53, 0
2, 132883, Note_on_c, 0, 60, 0
2, 132927, Note_on_c, 0, 77, 0
2, 132970, Note_on_c, 0, 57, 0
2, 134056, Note_on_c, 0, 64, 68
2, 134086, Note_on_c, 0, 59, 50
2, 134186, Note_on_c, 0, 53, 20
2, 134240, Note_on_c, 0, 64, 0
2, 134250, Note_on_c, 0, 59, 0
2, 134309, Note_on_c, 0, 53, 0
2, 135942, Note_on_c, 0, 63, 57
2, 135968, Note_on_c, 0, 59, 46
2, 136029, Note_on_c, 0, 63, 0
2, 136211, Note_on_c, 0, 59, 0
2, 136362, Note_on_c, 0, 70, 46
2, 136631, Note_on_c, 0, 70, 0
2, 136639, Note_on_c, 0, 71, 66
2, 136844, Note_on_c, 0, 71, 0
2, 136936, Note_on_c, 0, 77, 90
2, 136948, Note_on_c, 0, 59, 55
2, 136951, Note_on_c, 0, 63, 64
2, 136969, Note_on_c, 0, 53, 50
2, 137130, Note_on_c, 0, 63, 0
2, 137220, Note_on_c, 0, 53, 0
2, 137243, Note_on_c, 0, 59, 0
2, 137309, Note_on_c, 0, 77, 0
2, 137330, Note_on_c, 0, 74, 67
2, 137783, Note_on_c, 0, 74, 0
2, 137860, Note_on_c, 0, 76, 77
2, 137865, Note_on_c, 0, 62, 44
2, 137870, Note_on_c, 0, 52, 35
2, 137893, Note_on_c, 0, 59, 29
2, 137924, Note_on_c, 0, 55, 38
2, 137952, Note_on_c, 0, 62, 0
2, 138070, Note_on_c, 0, 52, 0
2, 138175, Note_on_c, 0, 76, 0
2, 138190, Note_on_c, 0, 59, 0
2, 138221, Note_on_c, 0, 55, 0
2, 138339, Note_on_c, 0, 71, 48
2, 138802, Note_on_c, 0, 71, 0
2, 138868, Note_on_c, 0, 67, 64
2, 138920, Note_on_c, 0, 59, 30
2, 139022, Note_on_c, 0, 67, 0
2, 139040, Note_on_c, 0, 55, 22
2, 139199, Note_on_c, 0, 59, 0
2, 139206, Note_on_c, 0, 55, 0
2, 139787, Note_on_c, 0, 62, 40
2, 139903, Note_on_c, 0, 59, 38
2, 139933, Note_on_c, 0, 62, 0
2, 139954, Note_on_c, 0, 55, 35
2, 140105, Note_on_c, 0, 71, 83
2, 140159, Note_on_c, 0, 59, 0
2, 140233, Note_on_c, 0, 55, 0
2, 140760, Note_on_c, 0, 71, 0
2, 140822, Note_on_c, 0, 59, 47
2, 140904, Note_on_c, 0, 55, 28
2, 141011, Note_on_c, 0, 55, 0
2, 141090, Note_on_c, 0, 59, 0
2, 141098, Note_on_c, 0, 71, 101
2, 142015, Note_on_c, 0, 57, 39
2, 142027, Note_on_c, 0, 64, 44
2, 142086, Note_on_c, 0, 60, 36
2, 142678, Note_on_c, 0, 70, 71
2, 142719, Note_on_c, 0, 71, 0
2, 142811, Note_on_c, 0, 64, 0
2, 142888, Note_on_c, 0, 70, 0
2, 142906, Note_on_c, 0, 69, 62
2, 142977, Note_on_c, 0, 68, 55
2, 143092, Note_on_c, 0, 69, 0
2, 143115, Note_on_c, 0, 60, 0
2, 143154, Note_on_c, 0, 68, 0
2, 143167, Note_on_c, 0, 67, 50
2, 143202, Note_on_c, 0, 57, 0
2, 143617, Note_on_c, 0, 67, 0
2, 143640, Note_on_c, 0, 60, 33
2, 143845, Note_on_c, 0, 60, 0
2, 144595, Note_on_c, 0, 71, 103
2, 144657, Note_on_c, 0, 64, 59
2, 144710, Note_on_c, 0, 60, 34
2, 144715, Note_on_c, 0, 57, 37
2, 144785, Note_on_c, 0, 64, 0
2, 145005, Note_on_c, 0, 60, 0
2, 145066, Note_on_c, 0, 57, 0
2, 145102, Note_on_c, 0, 70, 46
2, 145261, Note_on_c, 0, 70, 0
2, 145325, Note_on_c, 0, 69, 44
2, 145448, Note_on_c, 0, 71, 0
2, 145688, Note_on_c, 0, 69, 0
2, 145714, Note_on_c, 0, 68, 55
2, 145834, Note_on_c, 0, 68, 0
2, 146031, Note_on_c, 0, 71, 88
2, 146034, Note_on_c, 0, 64, 57
2, 146075, Note_on_c, 0, 57, 48
2, 146118, Note_on_c, 0, 54, 33
2, 146902, Note_on_c, 0, 64, 0
2, 147145, Note_on_c, 0, 54, 0
2, 147201, Note_on_c, 0, 57, 0
2, 147562, Note_on_c, 0, 64, 59
2, 147580, Note_on_c, 0, 71, 0
2, 147629, Note_on_c, 0, 60, 31
2, 147662, Note_on_c, 0, 64, 0
2, 147693, Note_on_c, 0, 57, 24
2, 147816, Note_on_c, 0, 60, 0
2, 147905, Note_on_c, 0, 57, 0
2, 147918, Note_on_c, 0, 66, 35
2, 148422, Note_on_c, 0, 66, 0
2, 148463, Note_on_c, 0, 67, 62
2, 148671, Note_on_c, 0, 67, 0
2, 148945, Note_on_c, 0, 68, 35
2, 149280, Note_on_c, 0, 68, 0
2, 149408, Note_on_c, 0, 69, 62
2, 149515, Note_on_c, 0, 57, 46
2, 149523, Note_on_c, 0, 62, 42
2, 149538, Note_on_c, 0, 51, 31
2, 149779, Note_on_c, 0, 69, 0
2, 149818, Note_on_c, 0, 70, 39
2, 150035, Note_on_c, 0, 57, 0
2, 150194, Note_on_c, 0, 70, 0
2, 150342, Note_on_c, 0, 71, 60
2, 150355, Note_on_c, 0, 57, 37
2, 150483, Note_on_c, 0, 62, 0
2, 150609, Note_on_c, 0, 71, 0
2, 150760, Note_on_c, 0, 51, 0
2, 150762, Note_on_c, 0, 57, 0
2, 150785, Note_on_c, 0, 72, 28
2, 151133, Note_on_c, 0, 72, 0
2, 151284, Note_on_c, 0, 74, 71
2, 151300, Note_on_c, 0, 62, 44
2, 151302, Note_on_c, 0, 57, 51
2, 151333, Note_on_c, 0, 51, 35
2, 151410, Note_on_c, 0, 62, 0
2, 151530, Note_on_c, 0, 74, 0
2, 151561, Note_on_c, 0, 51, 0
2, 151730, Note_on_c, 0, 57, 0
2, 151809, Note_on_c, 0, 75, 43
2, 152083, Note_on_c, 0, 75, 0
2, 152278, Note_on_c, 0, 77, 66
2, 152314, Note_on_c, 0, 57, 46
2, 152326, Note_on_c, 0, 51, 33
2, 152357, Note_on_c, 0, 62, 32
2, 152436, Note_on_c, 0, 51, 0
2, 152485, Note_on_c, 0, 57, 0
2, 152488, Note_on_c, 0, 62, 0
2, 152521, Note_on_c, 0, 77, 0
2, 152795, Note_on_c, 0, 79, 31
2, 153025, Note_on_c, 0, 79, 0
2, 153233, Note_on_c, 0, 81, 72
2, 153371, Note_on_c, 0, 62, 49
2, 153396, Note_on_c, 0, 55, 37
2, 153404, Note_on_c, 0, 59, 32
2, 153547, Note_on_c, 0, 81, 0
2, 153596, Note_on_c, 0, 62, 0
2, 153686, Note_on_c, 0, 59, 0
2, 153722, Note_on_c, 0, 82, 67
2, 153842, Note_on_c, 0, 55, 0
2, 154039, Note_on_c, 0, 82, 0
2, 154244, Note_on_c, 0, 55, 15
2, 154267, Note_on_c, 0, 83, 69
2, 154464, Note_on_c, 0, 83, 0
2, 154533, Note_on_c, 0, 55, 0
2, 154641, Note_on_c, 0, 86, 92
2, 155060, Note_on_c, 0, 86, 0
2, 155217, Note_on_c, 0, 86, 66
2, 155252, Note_on_c, 0, 83, 77
2, 155306, Note_on_c, 0, 55, 27
2, 155585, Note_on_c, 0, 83, 0
2, 155621, Note_on_c, 0, 55, 0
2, 155726, Note_on_c, 0, 79, 40
2, 155767, Note_on_c, 0, 86, 0
2, 156074, Note_on_c, 0, 79, 0
2, 156182, Note_on_c, 0, 76, 55
2, 156243, Note_on_c, 0, 59, 20
2, 156302, Note_on_c, 0, 76, 0
2, 156320, Note_on_c, 0, 55, 18
2, 156494, Note_on_c, 0, 59, 0
2, 156530, Note_on_c, 0, 55, 0
2, 156619, Note_on_c, 0, 71, 34
2, 157019, Note_on_c, 0, 71, 0
2, 157165, Note_on_c, 0, 67, 37
2, 157193, Note_on_c, 0, 59, 28
2, 157216, Note_on_c, 0, 55, 31
2, 157398, Note_on_c, 0, 67, 0
2, 157472, Note_on_c, 0, 59, 0
2, 157510, Note_on_c, 0, 73, 37
2, 157513, Note_on_c, 0, 70, 47
2, 157549, Note_on_c, 0, 55, 0
2, 157843, Note_on_c, 0, 70, 0
2, 157892, Note_on_c, 0, 71, 48
2, 157933, Note_on_c, 0, 73, 0
2, 157999, Note_on_c, 0, 62, 33
2, 158012, Note_on_c, 0, 74, 33
2, 158120, Note_on_c, 0, 62, 0
2, 158161, Note_on_c, 0, 74, 0
2, 158209, Note_on_c, 0, 71, 0
2, 158424, Note_on_c, 0, 73, 56
2, 158452, Note_on_c, 0, 70, 64
2, 158831, Note_on_c, 0, 70, 0
2, 158870, Note_on_c, 0, 74, 45
2, 158877, Note_on_c, 0, 73, 0
2, 158900, Note_on_c, 0, 71, 39
2, 159174, Note_on_c, 0, 71, 0
2, 159179, Note_on_c, 0, 59, 20
2, 159223, Note_on_c, 0, 55, 17
2, 159231, Note_on_c, 0, 74, 0
2, 159359, Note_on_c, 0, 67, 50
2, 159441, Note_on_c, 0, 59, 0
2, 159451, Note_on_c, 0, 55, 0
2, 159932, Note_on_c, 0, 59, 34
2, 159937, Note_on_c, 0, 67, 0
2, 159973, Note_on_c, 0, 55, 32
2, 160145, Note_on_c, 0, 55, 0
2, 160203, Note_on_c, 0, 59, 0
2, 160311, Note_on_c, 0, 67, 54
2, 160739, Note_on_c, 0, 67, 0
2, 161000, Note_on_c, 0, 61, 44
2, 161030, Note_on_c, 0, 55, 31
2, 161041, Note_on_c, 0, 65, 39
2, 161158, Note_on_c, 0, 65, 0
2, 161230, Note_on_c, 0, 55, 0
2, 161320, Note_on_c, 0, 61, 0
2, 162295, Control_c, 0, 64, 127
2, 163040, Control_c, 0, 64, 0
2, 163309, Note_on_c, 0, 61, 47
2, 163439, Note_on_c, 0, 61, 0
2, 163790, Note_on_c, 0, 91, 89
2, 163798, Note_on_c, 0, 55, 82
2, 163808, Note_on_c, 0, 61, 77
2, 163811, Note_on_c, 0, 65, 78
2, 163816, Note_on_c, 0, 79, 83
2, 163821, Note_on_c, 0, 86, 76
2, 164115, Control_c, 0, 64, 127
2, 164525, Note_on_c, 0, 91, 0
2, 164571, Note_on_c, 0, 86, 0
2, 164625, Note_on_c, 0, 79, 0
2, 164643, Note_on_c, 0, 65, 0
2, 164645, Note_on_c, 0, 55, 0
2, 164778, Note_on_c, 0, 61, 0
2, 165139, Control_c, 0, 64, 0
2, 165183, Note_on_c, 0, 88, 74
2, 165190, Note_on_c, 0, 61, 64
2, 165196, Note_on_c, 0, 83, 75
2, 165198, Note_on_c, 0, 76, 69
2, 165203, Note_on_c, 0, 64, 68
2, 165219, Note_on_c, 0, 55, 54
2, 165935, Control_c, 0, 64, 127
2, 166112, Note_on_c, 0, 88, 0
2, 166130, Note_on_c, 0, 83, 0
2, 166230, Note_on_c, 0, 76, 0
2, 166319, Note_on_c, 0, 61, 0
2, 166365, Note_on_c, 0, 64, 0
2, 166373, Note_on_c, 0, 55, 0
2, 166911, Control_c, 0, 64, 0
2, 167082, Note_on_c, 0, 55, 53
2, 167085, Note_on_c, 0, 64, 53
2, 167092, Note_on_c, 0, 61, 42
2, 167095, Note_on_c, 0, 83, 62
2, 167123, Note_on_c, 0, 71, 50
2, 167149, Note_on_c, 0, 76, 45
2, 167412, Note_on_c, 0, 71, 0
2, 167412, Note_on_c, 0, 55, 0
2, 167428, Note_on_c, 0, 76, 0
2, 167433, Note_on_c, 0, 83, 0
2, 167438, Note_on_c, 0, 64, 0
2, 167492, Note_on_c, 0, 61, 0
2, 167674, Note_on_c, 0, 83, 54
2, 167684, Note_on_c, 0, 71, 58
2, 167702, Note_on_c, 0, 61, 57
2, 167717, Note_on_c, 0, 55, 54
2, 167720, Note_on_c, 0, 64, 55
2, 167743, Note_on_c, 0, 76, 36
2, 167871, Note_on_c, 0, 76, 0
2, 167891, Note_on_c, 0, 83, 0
2, 167896, Note_on_c, 0, 71, 0
2, 167948, Note_on_c, 0, 64, 0
2, 168022, Note_on_c, 0, 83, 36
2, 168052, Note_on_c, 0, 64, 22
2, 168052, Note_on_c, 0, 71, 38
2, 168098, Note_on_c, 0, 76, 31
2, 168242, Note_on_c, 0, 76, 0
2, 168262, Note_on_c, 0, 55, 0
2, 168329, Note_on_c, 0, 64, 0
2, 168347, Note_on_c, 0, 71, 0
2, 168349, Note_on_c, 0, 83, 0
2, 168452, Note_on_c, 0, 61, 0
2, 168608, Note_on_c, 0, 83, 58
2, 168613, Note_on_c, 0, 71, 61
2, 168690, Note_on_c, 0, 76, 38
2, 168779, Note_on_c, 0, 71, 0
2, 168808, Note_on_c, 0, 83, 0
2, 168823, Note_on_c, 0, 76, 0
2, 169002, Note_on_c, 0, 64, 48
2, 169007, Note_on_c, 0, 54, 46
2, 169015, Note_on_c, 0, 60, 38
2, 169015, Note_on_c, 0, 83, 39
2, 169041, Note_on_c, 0, 71, 34
2, 169064, Note_on_c, 0, 76, 37
2, 169325, Note_on_c, 0, 76, 0
2, 169378, Note_on_c, 0, 71, 0
2, 169453, Note_on_c, 0, 83, 0
2, 169527, Note_on_c, 0, 54, 0
2, 169547, Note_on_c, 0, 64, 0
2, 169596, Note_on_c, 0, 60, 0
2, 169857, Note_on_c, 0, 86, 61
2, 169870, Note_on_c, 0, 74, 51
2, 169896, Note_on_c, 0, 80, 44
2, 169916, Note_on_c, 0, 64, 52
2, 169929, Note_on_c, 0, 54, 42
2, 169957, Note_on_c, 0, 60, 27
2, 170254, Note_on_c, 0, 80, 0
2, 170346, Note_on_c, 0, 81, 26
2, 170433, Note_on_c, 0, 86, 0
2, 170459, Note_on_c, 0, 74, 0
2, 170466, Note_on_c, 0, 54, 0
2, 170469, Note_on_c, 0, 64, 0
2, 170520, Note_on_c, 0, 81, 0
2, 170533, Note_on_c, 0, 60, 0
2, 170935, Note_on_c, 0, 86, 64
2, 170945, Note_on_c, 0, 64, 49
2, 170948, Note_on_c, 0, 54, 45
2, 170961, Note_on_c, 0, 74, 54
2, 170976, Note_on_c, 0, 60, 38
2, 170984, Note_on_c, 0, 81, 49
2, 171316, Note_on_c, 0, 86, 0
2, 171362, Note_on_c, 0, 74, 0
2, 171393, Note_on_c, 0, 81, 0
2, 171506, Note_on_c, 0, 64, 0
2, 171516, Note_on_c, 0, 60, 0
2, 171526, Note_on_c, 0, 54, 0
2, 171854, Note_on_c, 0, 54, 40
2, 171859, Note_on_c, 0, 64, 45
2, 171864, Note_on_c, 0, 85, 46
2, 171880, Note_on_c, 0, 73, 34
2, 171882, Note_on_c, 0, 60, 34
2, 172212, Note_on_c, 0, 64, 0
2, 172243, Note_on_c, 0, 73, 0
2, 172266, Note_on_c, 0, 54, 0
2, 172279, Note_on_c, 0, 85, 0
2, 172325, Note_on_c, 0, 60, 0
2, 172502, Note_on_c, 0, 86, 61
2, 172527, Note_on_c, 0, 81, 52
2, 172530, Note_on_c, 0, 74, 43
2, 172635, Note_on_c, 0, 64, 37
2, 172753, Note_on_c, 0, 64, 0
2, 172763, Control_c, 0, 64, 127
2, 172786, Note_on_c, 0, 74, 0
2, 172834, Note_on_c, 0, 86, 0
2, 172850, Note_on_c, 0, 81, 0
2, 172916, Control_c, 0, 64, 0
2, 173423, Note_on_c, 0, 64, 68
2, 173434, Note_on_c, 0, 60, 53
2, 173446, Note_on_c, 0, 54, 56
2, 173646, Note_on_c, 0, 64, 0
2, 173664, Control_c, 0, 64, 127
2, 173720, Note_on_c, 0, 60, 0
2, 173884, Note_on_c, 0, 54, 0
2, 174399, Note_on_c, 0, 49, 51
2, 174588, Control_c, 0, 64, 0
2, 174650, Note_on_c, 0, 49, 0
2, 174670, Note_on_c, 0, 52, 68
2, 174675, Note_on_c, 0, 64, 64
2, 174698, Note_on_c, 0, 57, 55
2, 174711, Note_on_c, 0, 53, 50
2, 174726, Note_on_c, 0, 59, 51
2, 175049, Note_on_c, 0, 64, 0
2, 175118, Note_on_c, 0, 57, 0
2, 175162, Note_on_c, 0, 59, 0
2, 175297, Note_on_c, 0, 53, 0
2, 175563, Note_on_c, 0, 52, 0
2, 175597, Note_on_c, 0, 63, 53
2, 175625, Note_on_c, 0, 56, 46
2, 175627, Note_on_c, 0, 51, 52
2, 175630, Note_on_c, 0, 53, 39
2, 175663, Note_on_c, 0, 58, 36
2, 175722, Note_on_c, 0, 61, 23
2, 176160, Note_on_c, 0, 53, 0
2, 176214, Note_on_c, 0, 63, 0
2, 176285, Note_on_c, 0, 58, 0
2, 176303, Note_on_c, 0, 56, 0
2, 176308, Note_on_c, 0, 49, 29
2, 176398, Note_on_c, 0, 61, 0
2, 176534, Note_on_c, 0, 51, 0
2, 176605, Note_on_c, 0, 59, 43
2, 176610, Note_on_c, 0, 57, 51
2, 176613, Note_on_c, 0, 53, 47
2, 176639, Note_on_c, 0, 52, 49
2, 176644, Note_on_c, 0, 64, 47
2, 176654, Note_on_c, 0, 49, 0
2, 176915, Note_on_c, 0, 59, 0
2, 176920, Note_on_c, 0, 53, 0
2, 176928, Note_on_c, 0, 57, 0
2, 177038, Note_on_c, 0, 64, 0
2, 177240, Note_on_c, 0, 51, 51
2, 177243, Note_on_c, 0, 52, 0
2, 177542, Note_on_c, 0, 67, 56
2, 177576, Note_on_c, 0, 59, 56
2, 177619, Note_on_c, 0, 55, 64
2, 177647, Note_on_c, 0, 62, 47
2, 177775, Note_on_c, 0, 51, 0
2, 177988, Note_on_c, 0, 67, 0
2, 177990, Note_on_c, 0, 62, 0
2, 178065, Note_on_c, 0, 59, 0
2, 178274, Note_on_c, 0, 59, 51
2, 178295, Note_on_c, 0, 67, 53
2, 178300, Note_on_c, 0, 62, 53
2, 178387, Note_on_c, 0, 64, 35
2, 178433, Note_on_c, 0, 65, 29
2, 178451, Note_on_c, 0, 59, 0
2, 178541, Note_on_c, 0, 64, 0
2, 178551, Note_on_c, 0, 62, 0
2, 178584, Note_on_c, 0, 65, 0
2, 178623, Note_on_c, 0, 67, 0
2, 178664, Control_c, 0, 64, 127
2, 179119, Note_on_c, 0, 55, 0
2, 179301, Note_on_c, 0, 55, 49
2, 179327, Note_on_c, 0, 51, 51
2, 179360, Control_c, 0, 64, 0
2, 179439, Note_on_c, 0, 55, 0
2, 179539, Note_on_c, 0, 51, 0
2, 179565, Note_on_c, 0, 75, 76
2, 179567, Note_on_c, 0, 79, 75
2, 179572, Note_on_c, 0, 71, 84
2, 179818, Control_c, 0, 64, 127
2, 180072, Note_on_c, 0, 71, 0
2, 180125, Control_c, 0, 64, 0
2, 180169, Note_on_c, 0, 75, 0
2, 180200, Note_on_c, 0, 79, 0
2, 180266, Note_on_c, 0, 73, 53
2, 180274, Note_on_c, 0, 69, 63
2, 180287, Note_on_c, 0, 77, 64
2, 180330, Note_on_c, 0, 61, 37
2, 180353, Note_on_c, 0, 55, 51
2, 180353, Note_on_c, 0, 65, 38
2, 180369, Note_on_c, 0, 64, 38
2, 180481, Note_on_c, 0, 64, 0
2, 180591, Control_c, 0, 64, 127
2, 181029, Note_on_c, 0, 61, 0
2, 181073, Note_on_c, 0, 65, 0
2, 181180, Note_on_c, 0, 77, 0
2, 181206, Note_on_c, 0, 69, 0
2, 181272, Note_on_c, 0, 61, 44
2, 181275, Note_on_c, 0, 73, 0
2, 181308, Control_c, 0, 64, 0
2, 181329, Note_on_c, 0, 65, 30
2, 181439, Note_on_c, 0, 65, 0
2, 181469, Note_on_c, 0, 67, 58
2, 181472, Note_on_c, 0, 75, 59
2, 181485, Note_on_c, 0, 71, 62
2, 181620, Note_on_c, 0, 61, 0
2, 182043, Note_on_c, 0, 61, 42
2, 182258, Control_c, 0, 64, 127
2, 182263, Note_on_c, 0, 61, 0
2, 182381, Note_on_c, 0, 55, 0
2, 182481, Note_on_c, 0, 71, 0
2, 182570, Note_on_c, 0, 75, 0
2, 182770, Note_on_c, 0, 67, 0
2, 182926, Control_c, 0, 64, 0
2, 182995, Note_on_c, 0, 70, 67
2, 183008, Note_on_c, 0, 61, 55
2, 183013, Note_on_c, 0, 73, 46
2, 183021, Note_on_c, 0, 55, 51
2, 183074, Note_on_c, 0, 65, 33
2, 183098, Note_on_c, 0, 67, 34
2, 183220, Note_on_c, 0, 67, 0
2, 183336, Control_c, 0, 64, 127
2, 183466, Note_on_c, 0, 55, 0
2, 183615, Note_on_c, 0, 65, 0
2, 183947, Note_on_c, 0, 61, 0
2, 184063, Note_on_c, 0, 70, 0
2, 184083, Note_on_c, 0, 73, 0
2, 184160, Control_c, 0, 64, 0
2, 184224, Note_on_c, 0, 60, 40
2, 184232, Note_on_c, 0, 63, 48
2, 184280, Note_on_c, 0, 67, 24
2, 184283, Note_on_c, 0, 58, 30
2, 184285, Note_on_c, 0, 72, 52
2, 184367, Note_on_c, 0, 53, 24
2, 185140, Note_on_c, 0, 72, 0
2, 185238, Control_c, 0, 64, 127
2, 185258, Note_on_c, 0, 60, 0
2, 185599, Note_on_c, 0, 67, 0
2, 185908, Note_on_c, 0, 63, 0
2, 186029, Note_on_c, 0, 60, 20
2, 186036, Control_c, 0, 64, 0
2, 186195, Note_on_c, 0, 67, 99
2, 186397, Note_on_c, 0, 60, 0
2, 186720, Note_on_c, 0, 67, 0
2, 186850, Note_on_c, 0, 68, 67
2, 186856, Note_on_c, 0, 60, 17
2, 187040, Note_on_c, 0, 68, 0
2, 187163, Note_on_c, 0, 68, 73
2, 187191, Note_on_c, 0, 60, 0
2, 187296, Note_on_c, 0, 58, 0
2, 187409, Note_on_c, 0, 53, 0
2, 187731, Note_on_c, 0, 68, 0
2, 187857, Note_on_c, 0, 67, 76
2, 187908, Note_on_c, 0, 56, 21
2, 187913, Note_on_c, 0, 59, 22
2, 188051, Note_on_c, 0, 59, 0
2, 188066, Note_on_c, 0, 67, 0
2, 188148, Note_on_c, 0, 67, 44
2, 188166, Note_on_c, 0, 56, 0
2, 188855, Note_on_c, 0, 56, 25
2, 188860, Note_on_c, 0, 59, 30
2, 188932, Note_on_c, 0, 67, 0
2, 189080, Note_on_c, 0, 59, 0
2, 189137, Note_on_c, 0, 68, 77
2, 189139, Note_on_c, 0, 56, 0
2, 189802, Note_on_c, 0, 68, 0
2, 189940, Note_on_c, 0, 67, 38
2, 190061, Note_on_c, 0, 67, 0
2, 190209, Note_on_c, 0, 68, 71
2, 190859, Note_on_c, 0, 59, 29
2, 190862, Note_on_c, 0, 56, 31
2, 190980, Note_on_c, 0, 56, 0
2, 191010, Note_on_c, 0, 59, 0
2, 191717, Note_on_c, 0, 67, 43
2, 191776, Note_on_c, 0, 68, 0
2, 191842, Note_on_c, 0, 67, 0
2, 191868, Note_on_c, 0, 65, 52
2, 191876, Note_on_c, 0, 61, 39
2, 191876, Note_on_c, 0, 60, 32
2, 191932, Note_on_c, 0, 56, 35
2, 192623, Note_on_c, 0, 56, 0
2, 192623, Note_on_c, 0, 65, 0
2, 192769, Note_on_c, 0, 73, 75
2, 192820, Note_on_c, 0, 61, 0
2, 192910, Note_on_c, 0, 60, 0
2, 193555, Note_on_c, 0, 61, 33
2, 193658, Note_on_c, 0, 73, 0
2, 193770, Note_on_c, 0, 61, 0
2, 193931, Note_on_c, 0, 72, 57
2, 194303, Note_on_c, 0, 72, 0
2, 194449, Note_on_c, 0, 73, 31
2, 194638, Note_on_c, 0, 72, 54
2, 194664, Note_on_c, 0, 61, 31
2, 194712, Note_on_c, 0, 73, 0
2, 194932, Note_on_c, 0, 72, 0
2, 194955, Note_on_c, 0, 69, 33
2, 195042, Note_on_c, 0, 61, 0
2, 195503, Note_on_c, 0, 69, 0
2, 195562, Note_on_c, 0, 70, 57
2, 195572, Note_on_c, 0, 61, 25
2, 195585, Note_on_c, 0, 64, 51
2, 195634, Note_on_c, 0, 55, 33
2, 195695, Note_on_c, 0, 64, 0
2, 195775, Note_on_c, 0, 55, 0
2, 195795, Note_on_c, 0, 61, 0
2, 195826, Note_on_c, 0, 70, 0
2, 196010, Note_on_c, 0, 72, 53
2, 196425, Note_on_c, 0, 72, 0
2, 197533, Note_on_c, 0, 61, 49
2, 197592, Note_on_c, 0, 64, 33
2, 197705, Note_on_c, 0, 64, 0
2, 197769, Note_on_c, 0, 61, 0
2, 198478, Note_on_c, 0, 61, 63
2, 198545, Note_on_c, 0, 64, 34
2, 198660, Note_on_c, 0, 64, 0
2, 198698, Note_on_c, 0, 61, 0
2, 198742, Note_on_c, 0, 77, 99
2, 199433, Note_on_c, 0, 74, 48
2, 199525, Note_on_c, 0, 77, 0
2, 199627, Note_on_c, 0, 74, 0
2, 199773, Note_on_c, 0, 76, 69
2, 200357, Note_on_c, 0, 76, 0
2, 200424, Note_on_c, 0, 74, 37
2, 200585, Note_on_c, 0, 58, 18
2, 200587, Note_on_c, 0, 74, 0
2, 200726, Note_on_c, 0, 75, 74
2, 200833, Note_on_c, 0, 58, 0
2, 201222, Note_on_c, 0, 75, 0
2, 202267, Note_on_c, 0, 63, 70
2, 202285, Note_on_c, 0, 60, 47
2, 202321, Note_on_c, 0, 58, 42
2, 202549, Note_on_c, 0, 60, 0
2, 202554, Note_on_c, 0, 63, 0
2, 202659, Note_on_c, 0, 58, 0
2, 203516, Note_on_c, 0, 61, 40
2, 203539, Note_on_c, 0, 65, 55
2, 203562, Note_on_c, 0, 58, 42
2, 203578, Note_on_c, 0, 54, 38
2, 204443, Note_on_c, 0, 65, 0
2, 204553, Note_on_c, 0, 78, 83
2, 204622, Note_on_c, 0, 54, 0
2, 204696, Note_on_c, 0, 61, 0
2, 204714, Note_on_c, 0, 58, 0
2, 205121, Note_on_c, 0, 78, 0
2, 205206, Note_on_c, 0, 76, 53
2, 205252, Note_on_c, 0, 61, 37
2, 205370, Note_on_c, 0, 76, 0
2, 205521, Note_on_c, 0, 61, 0
2, 205554, Note_on_c, 0, 77, 64
2, 205613, Note_on_c, 0, 76, 30
2, 205708, Note_on_c, 0, 76, 0
2, 205958, Note_on_c, 0, 77, 0
2, 206132, Note_on_c, 0, 65, 52
2, 206140, Note_on_c, 0, 60, 45
2, 206145, Note_on_c, 0, 54, 45
2, 206150, Note_on_c, 0, 74, 62
2, 206240, Note_on_c, 0, 65, 0
2, 206258, Note_on_c, 0, 74, 0
2, 206424, Note_on_c, 0, 54, 0
2, 206435, Note_on_c, 0, 75, 71
2, 206473, Note_on_c, 0, 60, 0
2, 207016, Note_on_c, 0, 75, 0
2, 207059, Note_on_c, 0, 60, 32
2, 207187, Note_on_c, 0, 56, 26
2, 207369, Note_on_c, 0, 60, 0
2, 207425, Note_on_c, 0, 56, 0
2, 207973, Note_on_c, 0, 60, 46
2, 207996, Note_on_c, 0, 63, 50
2, 208093, Note_on_c, 0, 56, 39
2, 208188, Note_on_c, 0, 53, 18
2, 208611, Note_on_c, 0, 60, 0
2, 208733, Note_on_c, 0, 63, 0
2, 208972, Note_on_c, 0, 60, 27
2, 208974, Note_on_c, 0, 68, 33
2, 209077, Note_on_c, 0, 68, 0
2, 209261, Note_on_c, 0, 53, 0
2, 209320, Note_on_c, 0, 72, 82
2, 209338, Note_on_c, 0, 60, 0
2, 209430, Note_on_c, 0, 56, 0
2, 209732, Note_on_c, 0, 72, 0
2, 209926, Note_on_c, 0, 68, 50
2, 209932, Note_on_c, 0, 60, 40
2, 209960, Note_on_c, 0, 56, 46
2, 210172, Note_on_c, 0, 60, 0
2, 210259, Note_on_c, 0, 68, 0
2, 210318, Note_on_c, 0, 65, 33
2, 210321, Note_on_c, 0, 56, 0
2, 210728, Note_on_c, 0, 65, 0
2, 210973, Note_on_c, 0, 61, 53
2, 211196, Note_on_c, 0, 75, 69
2, 211199, Note_on_c, 0, 61, 0
2, 211222, Note_on_c, 0, 64, 42
2, 211247, Note_on_c, 0, 65, 52
2, 211253, Note_on_c, 0, 63, 76
2, 211255, Note_on_c, 0, 68, 37
2, 211258, Note_on_c, 0, 72, 53
2, 211337, Note_on_c, 0, 65, 0
2, 211757, Note_on_c, 0, 72, 0
2, 211870, Note_on_c, 0, 58, 53
2, 211895, Note_on_c, 0, 75, 0
2, 211898, Note_on_c, 0, 63, 0
2, 211941, Note_on_c, 0, 64, 0
2, 211946, Note_on_c, 0, 61, 50
2, 211972, Note_on_c, 0, 68, 0
2, 212130, Note_on_c, 0, 74, 65
2, 212154, Note_on_c, 0, 64, 58
2, 212159, Note_on_c, 0, 68, 54
2, 212166, Note_on_c, 0, 62, 63
2, 212215, Note_on_c, 0, 58, 0
2, 212253, Note_on_c, 0, 61, 0
2, 212796, Note_on_c, 0, 64, 0
2, 212827, Note_on_c, 0, 68, 0
2, 212858, Note_on_c, 0, 62, 0
2, 212860, Note_on_c, 0, 74, 0
2, 212865, Note_on_c, 0, 58, 38
2, 213098, Note_on_c, 0, 58, 0
2, 213137, Note_on_c, 0, 73, 48
2, 213142, Note_on_c, 0, 61, 49
2, 213162, Note_on_c, 0, 68, 50
2, 213180, Note_on_c, 0, 64, 58
2, 213649, Note_on_c, 0, 61, 0
2, 213656, Note_on_c, 0, 64, 0
2, 213687, Note_on_c, 0, 68, 0
2, 213764, Note_on_c, 0, 73, 0
2, 213802, Note_on_c, 0, 56, 45
2, 213869, Note_on_c, 0, 58, 45
2, 213907, Note_on_c, 0, 56, 0
2, 214068, Note_on_c, 0, 72, 57
2, 214086, Note_on_c, 0, 58, 0
2, 214104, Note_on_c, 0, 68, 43
2, 214145, Note_on_c, 0, 64, 32
2, 214266, Note_on_c, 0, 64, 0
2, 214381, Note_on_c, 0, 68, 0
2, 214478, Note_on_c, 0, 72, 0
2, 214716, Note_on_c, 0, 75, 69
2, 214724, Note_on_c, 0, 58, 49
2, 214731, Note_on_c, 0, 67, 62
2, 214734, Note_on_c, 0, 63, 65
2, 214790, Note_on_c, 0, 48, 44
2, 215036, Control_c, 0, 64, 127
2, 215466, Note_on_c, 0, 63, 0
2, 215530, Note_on_c, 0, 67, 0
2, 215533, Note_on_c, 0, 48, 0
2, 215773, Note_on_c, 0, 58, 0
2, 215930, Note_on_c, 0, 75, 0
2, 216854, Control_c, 0, 64, 0
2, 216941, Note_on_c, 0, 63, 58
2, 216941, Note_on_c, 0, 86, 74
2, 216948, Note_on_c, 0, 67, 64
2, 216951, Note_on_c, 0, 58, 56
2, 216969, Note_on_c, 0, 62, 60
2, 216971, Note_on_c, 0, 74, 75
2, 216977, Note_on_c, 0, 82, 57
2, 216979, Note_on_c, 0, 79, 66
2, 217194, Control_c, 0, 64, 127
2, 217243, Note_on_c, 0, 74, 0
2, 217268, Note_on_c, 0, 86, 0
2, 217353, Note_on_c, 0, 58, 0
2, 217371, Note_on_c, 0, 67, 0
2, 217407, Note_on_c, 0, 79, 0
2, 217427, Note_on_c, 0, 82, 0
2, 217432, Note_on_c, 0, 62, 0
2, 217445, Note_on_c, 0, 63, 0
2, 217588, Note_on_c, 0, 75, 62
2, 217591, Note_on_c, 0, 87, 64
2, 217629, Control_c, 0, 64, 0
2, 217632, Note_on_c, 0, 63, 48
2, 217650, Note_on_c, 0, 62, 60
2, 217652, Note_on_c, 0, 67, 44
2, 217691, Note_on_c, 0, 58, 36
2, 217745, Note_on_c, 0, 62, 0
2, 217747, Note_on_c, 0, 75, 0
2, 217770, Note_on_c, 0, 67, 0
2, 217837, Note_on_c, 0, 87, 0
2, 217939, Control_c, 0, 64, 127
2, 217949, Note_on_c, 0, 67, 51
2, 217957, Note_on_c, 0, 62, 15
2, 217965, Note_on_c, 0, 76, 62
2, 217978, Note_on_c, 0, 88, 63
2, 218187, Note_on_c, 0, 76, 0
2, 218249, Note_on_c, 0, 88, 0
2, 218305, Note_on_c, 0, 62, 0
2, 218326, Note_on_c, 0, 67, 0
2, 218397, Note_on_c, 0, 58, 0
2, 218426, Control_c, 0, 64, 0
2, 218428, Note_on_c, 0, 63, 0
2, 218556, Note_on_c, 0, 89, 78
2, 218566, Note_on_c, 0, 77, 79
2, 218577, Note_on_c, 0, 84, 74
2, 218587, Note_on_c, 0, 67, 64
2, 218597, Note_on_c, 0, 63, 60
2, 218600, Note_on_c, 0, 57, 71
2, 218692, Note_on_c, 0, 84, 0
2, 218735, Note_on_c, 0, 89, 0
2, 218753, Note_on_c, 0, 77, 0
2, 218781, Note_on_c, 0, 67, 0
2, 218827, Note_on_c, 0, 63, 0
2, 218876, Note_on_c, 0, 57, 0
2, 219544, Note_on_c, 0, 84, 67
2, 219554, Note_on_c, 0, 80, 49
2, 219560, Note_on_c, 0, 72, 69
2, 219567, Note_on_c, 0, 83, 68
2, 219578, Note_on_c, 0, 63, 73
2, 219583, Note_on_c, 0, 57, 82
2, 219585, Note_on_c, 0, 67, 79
2, 219603, Note_on_c, 0, 79, 53
2, 219616, Note_on_c, 0, 78, 31
2, 219621, Note_on_c, 0, 77, 50
2, 219716, Note_on_c, 0, 77, 0
2, 219928, Note_on_c, 0, 78, 0
2, 219949, Note_on_c, 0, 80, 0
2, 219954, Note_on_c, 0, 83, 0
2, 220573, Note_on_c, 0, 72, 0
2, 220581, Note_on_c, 0, 84, 0
2, 220630, Note_on_c, 0, 57, 0
2, 220655, Note_on_c, 0, 67, 0
2, 220717, Note_on_c, 0, 63, 0
2, 220763, Note_on_c, 0, 79, 0
2, 220852, Note_on_c, 0, 57, 47
2, 220881, Note_on_c, 0, 63, 60
2, 220888, Note_on_c, 0, 67, 48
2, 220893, Note_on_c, 0, 73, 56
2, 220896, Note_on_c, 0, 85, 73
2, 220965, Note_on_c, 0, 79, 36
2, 221147, Note_on_c, 0, 67, 0
2, 221188, Note_on_c, 0, 57, 0
2, 221201, Note_on_c, 0, 73, 0
2, 221218, Note_on_c, 0, 79, 0
2, 221282, Note_on_c, 0, 63, 0
2, 221459, Note_on_c, 0, 85, 0
2, 221774, Note_on_c, 0, 57, 60
2, 221777, Note_on_c, 0, 63, 58
2, 221818, Note_on_c, 0, 67, 43
2, 221876, Note_on_c, 0, 74, 25
2, 221933, Note_on_c, 0, 67, 0
2, 221961, Note_on_c, 0, 74, 0
2, 222058, Note_on_c, 0, 57, 0
2, 222117, Note_on_c, 0, 63, 0
2, 222729, Note_on_c, 0, 65, 72
2, 222734, Note_on_c, 0, 61, 61
2, 222737, Note_on_c, 0, 56, 69
2, 222742, Note_on_c, 0, 60, 61
2, 222760, Note_on_c, 0, 89, 79
2, 222762, Note_on_c, 0, 84, 76
2, 222765, Note_on_c, 0, 77, 77
2, 223648, Control_c, 0, 64, 127
2, 224045, Note_on_c, 0, 65, 0
2, 224047, Note_on_c, 0, 56, 0
2, 224063, Note_on_c, 0, 77, 0
2, 224065, Note_on_c, 0, 60, 0
2, 224088, Note_on_c, 0, 61, 0
2, 224101, Note_on_c, 0, 84, 0
2, 224106, Note_on_c, 0, 89, 0
2, 224475, Control_c, 0, 64, 0
2, 224669, Note_on_c, 0, 65, 65
2, 224674, Note_on_c, 0, 89, 68
2, 224677, Note_on_c, 0, 61, 56
2, 224690, Note_on_c, 0, 60, 50
2, 224700, Note_on_c, 0, 56, 56
2, 224703, Note_on_c, 0, 84, 67
2, 224705, Note_on_c, 0, 77, 61
2, 225000, Note_on_c, 0, 65, 0
2, 225007, Note_on_c, 0, 89, 0
2, 225033, Note_on_c, 0, 77, 0
2, 225041, Note_on_c, 0, 56, 0
2, 225046, Note_on_c, 0, 84, 0
2, 225107, Note_on_c, 0, 60, 0
2, 225140, Note_on_c, 0, 61, 0
2, 225194, Note_on_c, 0, 89, 55
2, 225225, Note_on_c, 0, 84, 57
2, 225227, Note_on_c, 0, 77, 50
2, 225250, Note_on_c, 0, 65, 47
2, 225256, Note_on_c, 0, 56, 50
2, 225261, Note_on_c, 0, 60, 28
2, 225266, Note_on_c, 0, 61, 20
2, 225419, Note_on_c, 0, 77, 0
2, 225425, Note_on_c, 0, 89, 0
2, 225463, Note_on_c, 0, 84, 0
2, 225527, Control_c, 0, 64, 127
2, 225601, Note_on_c, 0, 89, 45
2, 225647, Note_on_c, 0, 84, 50
2, 225655, Note_on_c, 0, 77, 32
2, 225798, Note_on_c, 0, 60, 0
2, 225806, Note_on_c, 0, 84, 0
2, 225816, Note_on_c, 0, 77, 0
2, 225860, Note_on_c, 0, 89, 0
2, 225901, Note_on_c, 0, 65, 0
2, 226029, Note_on_c, 0, 61, 0
2, 226034, Note_on_c, 0, 56, 0
2, 226090, Control_c, 0, 64, 0
2, 226257, Note_on_c, 0, 88, 70
2, 226280, Note_on_c, 0, 61, 57
2, 226287, Note_on_c, 0, 76, 72
2, 226292, Note_on_c, 0, 85, 63
2, 226295, Note_on_c, 0, 55, 65
2, 226295, Note_on_c, 0, 64, 68
2, 226635, Control_c, 0, 64, 127
2, 227603, Note_on_c, 0, 64, 0
2, 227647, Note_on_c, 0, 55, 0
2, 227662, Note_on_c, 0, 88, 0
2, 227665, Note_on_c, 0, 61, 0
2, 227706, Note_on_c, 0, 76, 0
2, 227982, Note_on_c, 0, 85, 0
2, 228123, Note_on_c, 0, 87, 56
2, 228159, Note_on_c, 0, 75, 63
2, 228184, Note_on_c, 0, 82, 55
2, 228207, Note_on_c, 0, 61, 71
2, 228215, Note_on_c, 0, 64, 75
2, 228218, Note_on_c, 0, 55, 71
2, 228228, Control_c, 0, 64, 0
2, 228325, Note_on_c, 0, 75, 0
2, 228435, Note_on_c, 0, 87, 0
2, 228502, Note_on_c, 0, 64, 0
2, 228517, Note_on_c, 0, 82, 0
2, 228555, Note_on_c, 0, 61, 0
2, 228561, Note_on_c, 0, 55, 0
2, 228709, Note_on_c, 0, 89, 37
2, 228712, Note_on_c, 0, 77, 54
2, 228722, Note_on_c, 0, 55, 50
2, 228745, Note_on_c, 0, 64, 55
2, 228755, Note_on_c, 0, 82, 46
2, 228758, Note_on_c, 0, 61, 56
2, 228957, Note_on_c, 0, 89, 0
2, 228962, Note_on_c, 0, 77, 0
2, 228991, Note_on_c, 0, 64, 0
2, 229218, Note_on_c, 0, 82, 0
2, 229242, Note_on_c, 0, 55, 0
2, 229377, Note_on_c, 0, 64, 39
2, 229387, Note_on_c, 0, 87, 61
2, 229403, Note_on_c, 0, 75, 57
2, 229436, Control_c, 0, 64, 127
2, 229439, Note_on_c, 0, 82, 37
2, 229498, Note_on_c, 0, 64, 0
2, 229551, Note_on_c, 0, 82, 0
2, 229574, Note_on_c, 0, 75, 0
2, 229636, Note_on_c, 0, 87, 0
2, 229756, Note_on_c, 0, 61, 0
2, 230002, Control_c, 0, 64, 0
2, 230117, Note_on_c, 0, 91, 74
2, 230120, Note_on_c, 0, 63, 82
2, 230130, Note_on_c, 0, 60, 70
2, 230138, Note_on_c, 0, 84, 76
2, 230140, Note_on_c, 0, 87, 68
2, 230143, Note_on_c, 0, 79, 74
2, 230168, Note_on_c, 0, 89, 59
2, 230196, Note_on_c, 0, 58, 51
2, 230230, Note_on_c, 0, 53, 32
2, 230276, Note_on_c, 0, 89, 0
2, 230358, Control_c, 0, 64, 127
2, 230760, Note_on_c, 0, 91, 0
2, 230895, Note_on_c, 0, 84, 0
2, 230926, Note_on_c, 0, 87, 0
2, 230977, Note_on_c, 0, 63, 0
2, 231023, Note_on_c, 0, 79, 0
2, 231049, Note_on_c, 0, 60, 0
2, 231146, Note_on_c, 0, 58, 0
2, 231197, Note_on_c, 0, 53, 0
2, 231968, Note_on_c, 0, 56, 43
2, 232027, Control_c, 0, 64, 0
2, 232216, Note_on_c, 0, 56, 0
2, 232267, Note_on_c, 0, 70, 73
2, 232288, Note_on_c, 0, 58, 74
2, 232293, Note_on_c, 0, 63, 81
2, 232306, Note_on_c, 0, 60, 80
2, 232334, Note_on_c, 0, 67, 61
2, 232738, Note_on_c, 0, 58, 0
2, 232913, Note_on_c, 0, 67, 0
2, 232946, Note_on_c, 0, 70, 0
2, 232995, Note_on_c, 0, 60, 0
2, 233020, Note_on_c, 0, 63, 0
2, 234211, Note_on_c, 0, 63, 48
2, 234226, Note_on_c, 0, 42, 42
2, 234251, Note_on_c, 0, 58, 43
2, 234280, Note_on_c, 0, 52, 20
2, 234738, Note_on_c, 0, 63, 0
2, 234748, Note_on_c, 0, 52, 0
2, 234787, Note_on_c, 0, 42, 0
2, 234817, Note_on_c, 0, 58, 0
2, 235194, Note_on_c, 0, 63, 55
2, 235240, Note_on_c, 0, 52, 43
2, 235242, Note_on_c, 0, 42, 37
2, 235260, Note_on_c, 0, 58, 47
2, 235350, Note_on_c, 0, 61, 26
2, 235767, Note_on_c, 0, 63, 0
2, 235785, Note_on_c, 0, 52, 0
2, 235900, Note_on_c, 0, 58, 0
2, 235951, Note_on_c, 0, 42, 0
2, 236023, Note_on_c, 0, 61, 0
2, 236197, Note_on_c, 0, 63, 51
2, 236243, Note_on_c, 0, 52, 34
2, 236246, Note_on_c, 0, 58, 43
2, 236266, Note_on_c, 0, 42, 29
2, 236379, Note_on_c, 0, 61, 19
2, 236786, Note_on_c, 0, 52, 0
2, 236906, Note_on_c, 0, 42, 0
2, 236996, Note_on_c, 0, 63, 0
2, 237021, Note_on_c, 0, 61, 0
2, 237067, Note_on_c, 0, 58, 0
2, 237812, Note_on_c, 0, 43, 39
2, 237818, Note_on_c, 0, 64, 30
2, 237818, Note_on_c, 0, 59, 47
2, 237920, Note_on_c, 0, 64, 0
2, 238030, Note_on_c, 0, 59, 0
2, 238156, Note_on_c, 0, 43, 0
2, 238237, Note_on_c, 0, 54, 52
2, 238245, Note_on_c, 0, 44, 44
2, 238250, Note_on_c, 0, 65, 48
2, 238258, Note_on_c, 0, 60, 50
2, 238678, Note_on_c, 0, 54, 0
2, 238685, Note_on_c, 0, 65, 0
2, 238719, Note_on_c, 0, 60, 0
2, 238785, Note_on_c, 0, 44, 0
2, 239059, Note_on_c, 0, 54, 53
2, 239069, Note_on_c, 0, 65, 50
2, 239105, Note_on_c, 0, 44, 32
2, 239116, Note_on_c, 0, 60, 43
2, 239360, Control_c, 0, 64, 127
2, 239389, Control_c, 0, 64, 0
2, 239407, Note_on_c, 0, 65, 0
2, 239430, Note_on_c, 0, 54, 0
2, 239510, Note_on_c, 0, 60, 0
2, 239571, Note_on_c, 0, 44, 0
2, 239709, Note_on_c, 0, 54, 38
2, 239720, Note_on_c, 0, 65, 38
2, 239740, Note_on_c, 0, 60, 56
2, 239748, Note_on_c, 0, 44, 50
2, 240832, Control_c, 0, 64, 127
2, 241555, Note_on_c, 0, 54, 0
2, 241645, Note_on_c, 0, 60, 0
2, 241665, Note_on_c, 0, 65, 0
2, 241673, Control_c, 0, 64, 0
2, 241727, Note_on_c, 0, 44, 0
2, 242595, Note_on_c, 0, 60, 59
2, 242909, Note_on_c, 0, 60, 0
2, 243053, Note_on_c, 0, 61, 46
2, 243448, Note_on_c, 0, 61, 0
2, 243519, Control_c, 0, 64, 127
2, 243537, Note_on_c, 0, 62, 65
2, 243602, Control_c, 0, 64, 0
2, 243802, Note_on_c, 0, 62, 0
2, 243932, Note_on_c, 0, 63, 58
2, 244303, Note_on_c, 0, 63, 0
2, 244439, Note_on_c, 0, 64, 65
2, 244853, Note_on_c, 0, 64, 0
2, 244873, Note_on_c, 0, 65, 60
2, 245210, Note_on_c, 0, 65, 0
2, 245415, Note_on_c, 0, 66, 54
2, 245735, Note_on_c, 0, 66, 0
2, 245827, Note_on_c, 0, 67, 52
2, 246247, Note_on_c, 0, 67, 0
2, 246351, Note_on_c, 0, 68, 59
2, 246567, Note_on_c, 0, 68, 0
2, 246812, Note_on_c, 0, 70, 46
2, 247298, Note_on_c, 0, 70, 0
2, 247369, Note_on_c, 0, 63, 39
2, 247396, Note_on_c, 0, 67, 51
2, 247464, Note_on_c, 0, 60, 34
2, 247525, Note_on_c, 0, 58, 33
2, 247558, Note_on_c, 0, 67, 0
2, 247603, Note_on_c, 0, 63, 0
2, 247632, Note_on_c, 0, 60, 0
2, 247736, Note_on_c, 0, 68, 59
2, 247816, Note_on_c, 0, 58, 0
2, 248263, Note_on_c, 0, 68, 0
2, 251255, Note_on_c, 0, 65, 45
2, 251358, Note_on_c, 0, 59, 32
2, 251381, Note_on_c, 0, 65, 0
2, 251508, Note_on_c, 0, 79, 66
2, 251571, Note_on_c, 0, 59, 0
2, 252142, Note_on_c, 0, 80, 47
2, 252251, Note_on_c, 0, 79, 0
2, 252467, Note_on_c, 0, 80, 0
2, 252530, Note_on_c, 0, 81, 46
2, 252980, Note_on_c, 0, 81, 0
2, 253109, Note_on_c, 0, 82, 71
2, 253242, Note_on_c, 0, 60, 38
2, 253250, Note_on_c, 0, 65, 52
2, 253259, Note_on_c, 0, 61, 38
2, 253380, Note_on_c, 0, 56, 30
2, 253495, Note_on_c, 0, 65, 0
2, 253501, Note_on_c, 0, 82, 0
2, 253504, Note_on_c, 0, 60, 0
2, 253602, Note_on_c, 0, 61, 0
2, 253610, Note_on_c, 0, 77, 51
2, 253645, Note_on_c, 0, 56, 0
2, 254186, Note_on_c, 0, 73, 35
2, 254224, Note_on_c, 0, 77, 0
2, 254613, Note_on_c, 0, 73, 0
2, 255194, Note_on_c, 0, 65, 48
2, 255197, Note_on_c, 0, 61, 40
2, 255203, Note_on_c, 0, 60, 38
2, 255264, Note_on_c, 0, 72, 37
2, 255295, Note_on_c, 0, 56, 25
2, 255347, Note_on_c, 0, 60, 0
2, 255350, Note_on_c, 0, 65, 0
2, 255390, Note_on_c, 0, 72, 0
2, 255431, Note_on_c, 0, 56, 0
2, 255517, Note_on_c, 0, 61, 0
2, 257015, Note_on_c, 0, 70, 71
2, 257078, Note_on_c, 0, 64, 51
2, 257089, Note_on_c, 0, 61, 36
2, 257141, Note_on_c, 0, 55, 30
2, 257208, Note_on_c, 0, 64, 0
2, 257216, Note_on_c, 0, 70, 0
2, 257320, Note_on_c, 0, 55, 0
2, 257389, Note_on_c, 0, 61, 0
2, 257461, Note_on_c, 0, 68, 56
2, 257815, Note_on_c, 0, 68, 0
2, 258129, Note_on_c, 0, 68, 46
2, 258454, Note_on_c, 0, 67, 41
2, 258509, Note_on_c, 0, 68, 0
2, 258843, Note_on_c, 0, 67, 0
2, 259016, Note_on_c, 0, 66, 49
2, 259091, Note_on_c, 0, 61, 37
2, 259267, Note_on_c, 0, 61, 0
2, 259362, Note_on_c, 0, 66, 0
2, 259451, Note_on_c, 0, 65, 37
2, 259748, Note_on_c, 0, 65, 0
2, 259972, Note_on_c, 0, 64, 60
2, 260309, Note_on_c, 0, 64, 0
2, 260476, Note_on_c, 0, 62, 24
2, 260983, Note_on_c, 0, 60, 40
2, 260997, Note_on_c, 0, 62, 0
2, 261231, Note_on_c, 0, 60, 0
2, 261352, Note_on_c, 0, 63, 51
2, 261493, Note_on_c, 0, 62, 44
2, 261622, Note_on_c, 0, 63, 0
2, 261712, Note_on_c, 0, 62, 0
2, 262020, Note_on_c, 0, 60, 24
2, 262057, Note_on_c, 0, 51, 21
2, 262152, Note_on_c, 0, 60, 0
2, 262247, Note_on_c, 0, 51, 0
2, 262423, Note_on_c, 0, 63, 68
2, 262786, Note_on_c, 0, 63, 0
2, 262962, Note_on_c, 0, 63, 62
2, 263342, Note_on_c, 0, 63, 0
2, 263535, Note_on_c, 0, 63, 50
2, 263947, Note_on_c, 0, 63, 0
2, 264186, Note_on_c, 0, 63, 46
2, 264623, Note_on_c, 0, 63, 0
2, 264935, Note_on_c, 0, 66, 62
2, 264972, Note_on_c, 0, 39, 30
2, 266006, Note_on_c, 0, 39, 0
2, 266890, Note_on_c, 0, 54, 27
2, 266994, Note_on_c, 0, 44, 15
2, 267201, Note_on_c, 0, 44, 0
2, 267878, Note_on_c, 0, 66, 0
2, 267915, Note_on_c, 0, 67, 63
2, 267930, Note_on_c, 0, 54, 0
2, 268722, Note_on_c, 0, 67, 0
2, 268920, Note_on_c, 0, 56, 28
2, 268923, Note_on_c, 0, 68, 57
2, 269050, Note_on_c, 0, 49, 30
2, 269747, Note_on_c, 0, 56, 0
2, 269776, Note_on_c, 0, 60, 46
2, 270139, Note_on_c, 0, 60, 0
2, 270251, Control_c, 0, 64, 127
2, 270343, Note_on_c, 0, 68, 0
2, 270493, Note_on_c, 0, 56, 47
2, 270617, Note_on_c, 0, 56, 0
2, 270643, Note_on_c, 0, 49, 0
2, 271348, Control_c, 0, 64, 0
2, 271386, Note_on_c, 0, 75, 58
2, 271449, Note_on_c, 0, 63, 47
2, 271458, Note_on_c, 0, 68, 47
2, 271469, Note_on_c, 0, 65, 53
2, 271763, Note_on_c, 0, 65, 0
2, 271792, Note_on_c, 0, 75, 0
2, 271798, Note_on_c, 0, 68, 0
2, 271809, Note_on_c, 0, 63, 0
2, 272112, Note_on_c, 0, 73, 37
2, 272123, Note_on_c, 0, 61, 39
2, 272503, Note_on_c, 0, 61, 0
2, 272558, Note_on_c, 0, 73, 0
2, 272843, Note_on_c, 0, 75, 57
2, 272846, Note_on_c, 0, 64, 62
2, 272918, Note_on_c, 0, 72, 47
2, 272935, Note_on_c, 0, 68, 34
2, 272981, Note_on_c, 0, 60, 22
2, 273747, Control_c, 0, 64, 127
2, 273966, Note_on_c, 0, 64, 0
2, 273986, Note_on_c, 0, 68, 0
2, 274007, Note_on_c, 0, 72, 0
2, 274246, Note_on_c, 0, 75, 0
2, 274364, Note_on_c, 0, 73, 23
2, 274372, Note_on_c, 0, 60, 0
2, 274393, Note_on_c, 0, 64, 48
2, 274516, Note_on_c, 0, 68, 30
2, 274554, Control_c, 0, 64, 0
2, 274574, Note_on_c, 0, 58, 21
2, 275331, Note_on_c, 0, 58, 0
2, 275449, Control_c, 0, 64, 127
2, 276063, Note_on_c, 0, 73, 0
2, 276121, Note_on_c, 0, 68, 0
2, 276201, Control_c, 0, 64, 0
2, 276218, Note_on_c, 0, 64, 0
2, 276239, Note_on_c, 0, 58, 33
2, 276253, Note_on_c, 0, 55, 26
2, 276319, Note_on_c, 0, 48, 24
2, 276927, Note_on_c, 0, 55, 0
2, 277198, Note_on_c, 0, 65, 58
2, 277221, Note_on_c, 0, 62, 46
2, 277437, Note_on_c, 0, 62, 0
2, 277503, Note_on_c, 0, 55, 17
2, 277514, Note_on_c, 0, 65, 0
2, 277624, Note_on_c, 0, 58, 0
2, 277635, Note_on_c, 0, 63, 32
2, 277831, Note_on_c, 0, 55, 0
2, 278358, Note_on_c, 0, 63, 0
2, 278370, Note_on_c, 0, 48, 0
2, 278419, Note_on_c, 0, 55, 16
2, 278540, Note_on_c, 0, 62, 44
2, 278609, Note_on_c, 0, 65, 37
2, 278649, Note_on_c, 0, 55, 0
2, 278983, Note_on_c, 0, 62, 0
2, 279297, Note_on_c, 0, 65, 0
2, 279447, Note_on_c, 0, 63, 42
2, 279513, Note_on_c, 0, 60, 35
2, 279931, Note_on_c, 0, 60, 0
2, 279988, Note_on_c, 0, 63, 0
2, 280429, Note_on_c, 0, 41, 33
2, 280458, Note_on_c, 0, 51, 27
2, 280461, Note_on_c, 0, 61, 46
2, 280464, Note_on_c, 0, 65, 52
2, 281025, Note_on_c, 0, 65, 0
2, 281132, Note_on_c, 0, 61, 0
2, 281411, Note_on_c, 0, 51, 0
2, 281443, Note_on_c, 0, 63, 34
2, 281564, Note_on_c, 0, 48, 19
2, 281636, Note_on_c, 0, 63, 0
2, 282203, Note_on_c, 0, 48, 0
2, 282304, Note_on_c, 0, 51, 33
2, 282439, Note_on_c, 0, 65, 46
2, 282465, Note_on_c, 0, 61, 37
2, 282854, Note_on_c, 0, 61, 0
2, 283128, Note_on_c, 0, 41, 0
2, 283136, Note_on_c, 0, 65, 0
2, 283272, Note_on_c, 0, 51, 0
2, 283277, Note_on_c, 0, 48, 32
2, 283280, Note_on_c, 0, 63, 44
2, 283709, Note_on_c, 0, 63, 0
2, 283830, Note_on_c, 0, 48, 0
2, 284216, Note_on_c, 0, 56, 37
2, 284254, Note_on_c, 0, 61, 25
2, 284280, Note_on_c, 0, 65, 44
2, 284308, Note_on_c, 0, 46, 30
2, 284694, Note_on_c, 0, 61, 0
2, 284789, Note_on_c, 0, 56, 0
2, 284864, Note_on_c, 0, 65, 0
2, 285204, Note_on_c, 0, 63, 37
2, 285529, Note_on_c, 0, 63, 0
2, 285754, Note_on_c, 0, 61, 44
2, 285757, Note_on_c, 0, 65, 48
2, 285760, Note_on_c, 0, 56, 42
2, 285878, Note_on_c, 0, 55, 26
2, 286091, Note_on_c, 0, 46, 0
2, 286166, Note_on_c, 0, 55, 0
2, 286474, Note_on_c, 0, 56, 0
2, 286523, Note_on_c, 0, 61, 0
2, 286609, Note_on_c, 0, 46, 36
2, 286641, Note_on_c, 0, 65, 0
2, 286892, Note_on_c, 0, 46, 0
2, 286952, Note_on_c, 0, 56, 34
2, 286969, Note_on_c, 0, 61, 32
2, 286993, Note_on_c, 0, 63, 45
2, 287001, Control_c, 0, 64, 127
2, 287255, Note_on_c, 0, 56, 0
2, 287476, Note_on_c, 0, 63, 0
2, 287502, Note_on_c, 0, 61, 0
2, 287724, Control_c, 0, 64, 0
2, 287983, Note_on_c, 0, 61, 48
2, 288003, Note_on_c, 0, 57, 60
2, 288021, Note_on_c, 0, 64, 55
2, 288044, Note_on_c, 0, 51, 33
2, 288064, Note_on_c, 0, 39, 35
2, 288663, Note_on_c, 0, 61, 0
2, 288729, Note_on_c, 0, 57, 0
2, 288853, Note_on_c, 0, 64, 0
2, 288896, Note_on_c, 0, 51, 0
2, 288994, Note_on_c, 0, 46, 31
2, 289124, Note_on_c, 0, 63, 30
2, 289150, Note_on_c, 0, 61, 25
2, 289276, Note_on_c, 0, 61, 0
2, 289582, Note_on_c, 0, 63, 0
2, 289898, Note_on_c, 0, 65, 58
2, 289942, Note_on_c, 0, 46, 0
2, 289956, Note_on_c, 0, 51, 32
2, 289979, Note_on_c, 0, 57, 40
2, 290011, Note_on_c, 0, 61, 26
2, 290313, Note_on_c, 0, 65, 0
2, 290449, Note_on_c, 0, 57, 0
2, 290581, Note_on_c, 0, 61, 0
2, 290719, Note_on_c, 0, 46, 33
2, 290849, Note_on_c, 0, 63, 54
2, 290866, Note_on_c, 0, 39, 0
2, 290875, Note_on_c, 0, 51, 0
2, 290953, Note_on_c, 0, 55, 34
2, 291226, Note_on_c, 0, 55, 0
2, 291390, Note_on_c, 0, 63, 0
2, 291439, Note_on_c, 0, 46, 0
2, 292427, Note_on_c, 0, 37, 30
2, 293329, Note_on_c, 0, 37, 0
2, 293775, Note_on_c, 0, 63, 54
2, 293784, Note_on_c, 0, 54, 56
2, 293798, Note_on_c, 0, 59, 57
2, 294124, Note_on_c, 0, 59, 0
2, 294141, Note_on_c, 0, 54, 0
2, 294273, Note_on_c, 0, 63, 0
2, 294858, Note_on_c, 0, 53, 34
2, 295048, Note_on_c, 0, 53, 0
2, 295434, Note_on_c, 0, 63, 50
2, 295448, Note_on_c, 0, 55, 52
2, 295471, Note_on_c, 0, 60, 50
2, 295494, Note_on_c, 0, 58, 48
2, 295526, Note_on_c, 0, 48, 37
2, 295716, Control_c, 0, 64, 127
2, 295929, Note_on_c, 0, 55, 0
2, 296232, Note_on_c, 0, 60, 0
2, 296344, Note_on_c, 0, 58, 0
2, 296379, Note_on_c, 0, 36, 54
2, 296422, Note_on_c, 0, 63, 0
2, 296488, Note_on_c, 0, 36, 0
2, 296520, Note_on_c, 0, 48, 0
2, 297744, Note_on_c, 0, 67, 64
2, 297798, Note_on_c, 0, 63, 54
2, 297801, Note_on_c, 0, 62, 47
2, 297804, Note_on_c, 0, 61, 17
2, 297862, Note_on_c, 0, 58, 35
2, 297940, Control_c, 0, 64, 0
2, 298576, Control_c, 0, 64, 127
2, 298596, Note_on_c, 0, 62, 0
2, 298700, Note_on_c, 0, 67, 0
2, 298826, Note_on_c, 0, 63, 0
2, 298870, Note_on_c, 0, 61, 0
2, 298945, Note_on_c, 0, 58, 0
2, 299587, Control_c, 0, 64, 0
2, 299670, Note_on_c, 0, 66, 49
2, 299731, Note_on_c, 0, 62, 53
2, 299832, Note_on_c, 0, 57, 35
2, 300817, Note_on_c, 0, 57, 0
2, 300961, Note_on_c, 0, 66, 0
2, 301269, Note_on_c, 0, 62, 0
2, 301456, Note_on_c, 0, 66, 47
2, 301462, Note_on_c, 0, 62, 22
2, 301522, Note_on_c, 0, 56, 47
2, 302262, Note_on_c, 0, 62, 0
2, 302329, Control_c, 0, 64, 127
2, 302660, Note_on_c, 0, 56, 0
2, 302703, Note_on_c, 0, 66, 0
2, 302985, Note_on_c, 0, 61, 34
2, 302988, Note_on_c, 0, 65, 47
2, 302997, Control_c, 0, 64, 0
2, 303057, Note_on_c, 0, 60, 24
2, 303083, Note_on_c, 0, 56, 25
2, 303950, Note_on_c, 0, 84, 79
2, 304186, Note_on_c, 0, 60, 0
2, 304270, Note_on_c, 0, 84, 0
2, 304359, Note_on_c, 0, 82, 47
2, 304581, Note_on_c, 0, 65, 0
2, 304762, Note_on_c, 0, 82, 0
2, 304765, Note_on_c, 0, 56, 0
2, 304814, Note_on_c, 0, 61, 0
2, 305286, Note_on_c, 0, 61, 19
2, 305295, Note_on_c, 0, 65, 38
2, 305306, Note_on_c, 0, 55, 37
2, 305318, Note_on_c, 0, 77, 54
2, 305646, Note_on_c, 0, 77, 0
2, 305929, Note_on_c, 0, 65, 0
2, 306078, Note_on_c, 0, 55, 0
2, 306182, Note_on_c, 0, 73, 45
2, 306274, Note_on_c, 0, 61, 0
2, 306579, Note_on_c, 0, 73, 0
2, 307078, Note_on_c, 0, 63, 42
2, 307144, Note_on_c, 0, 72, 40
2, 307155, Note_on_c, 0, 60, 26
2, 307343, Note_on_c, 0, 58, 23
2, 307550, Note_on_c, 0, 63, 0
2, 307674, Note_on_c, 0, 60, 0
2, 307677, Note_on_c, 0, 72, 0
2, 307780, Note_on_c, 0, 58, 0
2, 308112, Note_on_c, 0, 75, 73
2, 308722, Note_on_c, 0, 75, 0
2, 308912, Note_on_c, 0, 63, 34
2, 309143, Note_on_c, 0, 67, 36
2, 309194, Note_on_c, 0, 63, 0
2, 309690, Note_on_c, 0, 67, 0
2, 310076, Note_on_c, 0, 67, 55
2, 310876, Note_on_c, 0, 62, 32
2, 310879, Note_on_c, 0, 56, 34
2, 311009, Note_on_c, 0, 62, 0
2, 311115, Note_on_c, 0, 56, 0
2, 312720, Note_on_c, 0, 62, 40
2, 312835, Note_on_c, 0, 59, 26
2, 312838, Note_on_c, 0, 62, 0
2, 312861, Note_on_c, 0, 67, 0
2, 312990, Note_on_c, 0, 59, 0
2, 313031, Note_on_c, 0, 68, 65
2, 313543, Note_on_c, 0, 68, 0
2, 314664, Note_on_c, 0, 67, 91
2, 315424, Note_on_c, 0, 66, 39
2, 315556, Note_on_c, 0, 67, 0
2, 315626, Note_on_c, 0, 65, 40
2, 315778, Note_on_c, 0, 66, 0
2, 315957, Note_on_c, 0, 65, 0
2, 315965, Note_on_c, 0, 64, 45
2, 316360, Note_on_c, 0, 64, 0
2, 316490, Note_on_c, 0, 61, 56
2, 316898, Note_on_c, 0, 61, 0
2, 317535, Note_on_c, 0, 57, 46
2, 317722, Note_on_c, 0, 57, 0
2, 317846, Note_on_c, 0, 60, 47
2, 318364, Note_on_c, 0, 60, 0
2, 318531, Note_on_c, 0, 57, 28
2, 318722, Note_on_c, 0, 57, 0
2, 318923, Note_on_c, 0, 58, 33
2, 319312, Note_on_c, 0, 58, 0
2, 319456, Note_on_c, 0, 60, 49
2, 319770, Note_on_c, 0, 60, 0
2, 319917, Note_on_c, 0, 61, 34
2, 320329, Note_on_c, 0, 61, 0
2, 320395, Note_on_c, 0, 63, 44
2, 320562, Note_on_c, 0, 63, 0
2, 320804, Note_on_c, 0, 65, 48
2, 321115, Note_on_c, 0, 65, 0
2, 321250, Note_on_c, 0, 70, 56
2, 321578, Note_on_c, 0, 70, 0
2, 321797, Note_on_c, 0, 73, 49
2, 322146, Note_on_c, 0, 73, 0
2, 322301, Note_on_c, 0, 74, 73
2, 322396, Note_on_c, 0, 63, 60
2, 322454, Note_on_c, 0, 60, 39
2, 322598, Note_on_c, 0, 60, 0
2, 322664, Note_on_c, 0, 74, 0
2, 322687, Note_on_c, 0, 63, 0
2, 322754, Note_on_c, 0, 75, 38
2, 323243, Note_on_c, 0, 76, 49
2, 323275, Note_on_c, 0, 75, 0
2, 323508, Note_on_c, 0, 76, 0
2, 323609, Note_on_c, 0, 79, 82
2, 324147, Note_on_c, 0, 79, 0
2, 324266, Note_on_c, 0, 76, 41
2, 324542, Note_on_c, 0, 76, 0
2, 324654, Note_on_c, 0, 77, 55
2, 325190, Note_on_c, 0, 75, 46
2, 325242, Note_on_c, 0, 77, 0
2, 325490, Note_on_c, 0, 75, 0
2, 325651, Note_on_c, 0, 72, 33
2, 326201, Note_on_c, 0, 72, 0
2, 326253, Note_on_c, 0, 68, 34
2, 326365, Note_on_c, 0, 68, 0
2, 326616, Note_on_c, 0, 73, 51
2, 327203, Note_on_c, 0, 65, 49
2, 327206, Note_on_c, 0, 61, 44
2, 327243, Note_on_c, 0, 58, 44
2, 327367, Note_on_c, 0, 65, 0
2, 327457, Note_on_c, 0, 61, 0
2, 327520, Note_on_c, 0, 58, 0
2, 328514, Note_on_c, 0, 54, 37
2, 328519, Note_on_c, 0, 65, 40
2, 328557, Note_on_c, 0, 60, 35
2, 329381, Control_c, 0, 64, 127
2, 329510, Note_on_c, 0, 65, 0
2, 329651, Note_on_c, 0, 60, 0
2, 329905, Note_on_c, 0, 54, 0
2, 330204, Note_on_c, 0, 73, 0
2, 330216, Control_c, 0, 64, 0
2, 330308, Note_on_c, 0, 63, 36
2, 330386, Note_on_c, 0, 60, 27
2, 330411, Note_on_c, 0, 53, 24
2, 330414, Note_on_c, 0, 56, 34
2, 331854, Note_on_c, 0, 85, 51
2, 332148, Note_on_c, 0, 85, 0
2, 332488, Note_on_c, 0, 85, 40
2, 332505, Note_on_c, 0, 60, 0
2, 332926, Note_on_c, 0, 63, 0
2, 332983, Note_on_c, 0, 85, 0
2, 333142, Note_on_c, 0, 82, 40
2, 333303, Note_on_c, 0, 53, 0
2, 333412, Note_on_c, 0, 56, 0
2, 333562, Note_on_c, 0, 82, 0
2, 333824, Note_on_c, 0, 63, 56
2, 333842, Note_on_c, 0, 85, 49
2, 333896, Note_on_c, 0, 70, 34
2, 333931, Note_on_c, 0, 58, 27
2, 334029, Note_on_c, 0, 70, 0
2, 334061, Note_on_c, 0, 63, 0
2, 334106, Note_on_c, 0, 58, 0
2, 334213, Note_on_c, 0, 85, 0
2, 334760, Note_on_c, 0, 63, 61
2, 334778, Note_on_c, 0, 75, 64
2, 334781, Note_on_c, 0, 87, 64
2, 334827, Note_on_c, 0, 82, 46
2, 334835, Note_on_c, 0, 52, 37
2, 334855, Note_on_c, 0, 58, 32
2, 335662, Note_on_c, 0, 52, 0
2, 335748, Note_on_c, 0, 87, 0
2, 335760, Note_on_c, 0, 63, 0
2, 335800, Note_on_c, 0, 75, 0
2, 335829, Note_on_c, 0, 58, 0
2, 335921, Note_on_c, 0, 82, 0
2, 336025, Note_on_c, 0, 63, 43
2, 336091, Note_on_c, 0, 85, 42
2, 336094, Note_on_c, 0, 52, 33
2, 336123, Note_on_c, 0, 73, 34
2, 336134, Note_on_c, 0, 58, 29
2, 336275, Note_on_c, 0, 52, 0
2, 336350, Note_on_c, 0, 73, 0
2, 336362, Note_on_c, 0, 63, 0
2, 336434, Note_on_c, 0, 58, 0
2, 336488, Note_on_c, 0, 85, 0
2, 336972, Note_on_c, 0, 63, 53
2, 337007, Note_on_c, 0, 75, 58
2, 337027, Note_on_c, 0, 87, 51
2, 337226, Note_on_c, 0, 63, 0
2, 337254, Note_on_c, 0, 87, 0
2, 337358, Note_on_c, 0, 75, 0
2, 337954, Note_on_c, 0, 84, 53
2, 337960, Note_on_c, 0, 72, 48
2, 337969, Note_on_c, 0, 67, 42
2, 338012, Note_on_c, 0, 63, 32
2, 338026, Note_on_c, 0, 62, 50
2, 338032, Note_on_c, 0, 58, 23
2, 338795, Control_c, 0, 64, 127
2, 338861, Note_on_c, 0, 72, 0
2, 339005, Note_on_c, 0, 58, 0
2, 339011, Note_on_c, 0, 84, 0
2, 339046, Note_on_c, 0, 67, 0
2, 339170, Note_on_c, 0, 62, 0
2, 339198, Note_on_c, 0, 63, 0
2, 339864, Control_c, 0, 64, 0
2, 339927, Note_on_c, 0, 86, 67
2, 339930, Note_on_c, 0, 58, 44
2, 339930, Note_on_c, 0, 67, 50
2, 339936, Note_on_c, 0, 74, 68
2, 339942, Note_on_c, 0, 62, 56
2, 339944, Note_on_c, 0, 63, 47
2, 339965, Note_on_c, 0, 82, 42
2, 339967, Note_on_c, 0, 79, 48
2, 340108, Note_on_c, 0, 67, 0
2, 340134, Note_on_c, 0, 62, 0
2, 340146, Note_on_c, 0, 74, 0
2, 340189, Note_on_c, 0, 79, 0
2, 340215, Note_on_c, 0, 63, 0
2, 340232, Note_on_c, 0, 58, 0
2, 340261, Note_on_c, 0, 86, 0
2, 340287, Note_on_c, 0, 82, 0
2, 340900, Note_on_c, 0, 87, 69
2, 340903, Note_on_c, 0, 75, 77
2, 340921, Note_on_c, 0, 67, 54
2, 340929, Note_on_c, 0, 82, 64
2, 340932, Note_on_c, 0, 62, 51
2, 340938, Note_on_c, 0, 58, 50
2, 340961, Note_on_c, 0, 63, 42
2, 341079, Note_on_c, 0, 75, 0
2, 341131, Note_on_c, 0, 67, 0
2, 341142, Note_on_c, 0, 62, 0
2, 341174, Note_on_c, 0, 82, 0
2, 341200, Note_on_c, 0, 87, 0
2, 341220, Note_on_c, 0, 63, 0
2, 341260, Note_on_c, 0, 58, 0
2, 341868, Note_on_c, 0, 63, 62
2, 341871, Note_on_c, 0, 67, 68
2, 341874, Note_on_c, 0, 57, 71
2, 341885, Note_on_c, 0, 82, 74
2, 341891, Note_on_c, 0, 76, 77
2, 341897, Note_on_c, 0, 88, 67
2, 342375, Control_c, 0, 64, 127
2, 342847, Note_on_c, 0, 57, 0
2, 342850, Note_on_c, 0, 76, 0
2, 342876, Note_on_c, 0, 67, 0
2, 342957, Note_on_c, 0, 88, 0
2, 342983, Note_on_c, 0, 63, 0
2, 343011, Note_on_c, 0, 82, 0
2, 343155, Control_c, 0, 64, 0
2, 343360, Note_on_c, 0, 89, 72
2, 343371, Note_on_c, 0, 77, 66
2, 343374, Note_on_c, 0, 84, 64
2, 343380, Note_on_c, 0, 57, 70
2, 343383, Note_on_c, 0, 67, 66
2, 343386, Note_on_c, 0, 63, 69
2, 343714, Control_c, 0, 64, 127
2, 344509, Note_on_c, 0, 77, 0
2, 344561, Note_on_c, 0, 67, 0
2, 344618, Note_on_c, 0, 57, 0
2, 344633, Note_on_c, 0, 63, 0
2, 344639, Note_on_c, 0, 84, 0
2, 344711, Note_on_c, 0, 89, 0
2, 345560, Control_c, 0, 64, 0
2, 345624, Note_on_c, 0, 65, 47
2, 345644, Note_on_c, 0, 56, 39
2, 345655, Note_on_c, 0, 61, 33
2, 345684, Note_on_c, 0, 60, 41
2, 345716, Note_on_c, 0, 96, 66
2, 345719, Note_on_c, 0, 84, 67
2, 345969, Note_on_c, 0, 84, 0
2, 345989, Note_on_c, 0, 96, 0
2, 346300, Note_on_c, 0, 96, 47
2, 346326, Note_on_c, 0, 84, 49
2, 346502, Note_on_c, 0, 84, 0
2, 346539, Note_on_c, 0, 96, 0
2, 346692, Note_on_c, 0, 96, 32
2, 346753, Note_on_c, 0, 84, 38
2, 346989, Note_on_c, 0, 96, 0
2, 346994, Note_on_c, 0, 84, 0
2, 347041, Note_on_c, 0, 56, 0
2, 347061, Note_on_c, 0, 65, 0
2, 347069, Note_on_c, 0, 60, 0
2, 347092, Note_on_c, 0, 61, 0
2, 347282, Note_on_c, 0, 96, 57
2, 347288, Note_on_c, 0, 65, 40
2, 347300, Note_on_c, 0, 56, 54
2, 347311, Note_on_c, 0, 84, 62
2, 347331, Note_on_c, 0, 61, 43
2, 347337, Note_on_c, 0, 60, 48
2, 347545, Note_on_c, 0, 96, 0
2, 347547, Note_on_c, 0, 65, 0
2, 347553, Note_on_c, 0, 84, 0
2, 347565, Note_on_c, 0, 56, 0
2, 347588, Note_on_c, 0, 60, 0
2, 347628, Note_on_c, 0, 61, 0
2, 347786, Note_on_c, 0, 96, 51
2, 347795, Note_on_c, 0, 65, 34
2, 347810, Note_on_c, 0, 56, 29
2, 347827, Note_on_c, 0, 84, 44
2, 347870, Note_on_c, 0, 61, 18
2, 347884, Note_on_c, 0, 60, 22
2, 348074, Note_on_c, 0, 56, 0
2, 348077, Note_on_c, 0, 60, 0
2, 348083, Note_on_c, 0, 96, 0
2, 348086, Note_on_c, 0, 84, 0
2, 348115, Note_on_c, 0, 65, 0
2, 348121, Note_on_c, 0, 61, 0
2, 348532, Note_on_c, 0, 65, 57
2, 348558, Note_on_c, 0, 56, 50
2, 348593, Note_on_c, 0, 97, 56
2, 348599, Note_on_c, 0, 85, 56
2, 348604, Note_on_c, 0, 61, 34
2, 348616, Note_on_c, 0, 60, 26
2, 348711, Note_on_c, 0, 85, 0
2, 348734, Note_on_c, 0, 60, 0
2, 348737, Note_on_c, 0, 97, 0
2, 348777, Note_on_c, 0, 65, 0
2, 348913, Note_on_c, 0, 61, 0
2, 348950, Note_on_c, 0, 56, 0
2, 349520, Note_on_c, 0, 99, 60
2, 349523, Note_on_c, 0, 55, 52
2, 349526, Note_on_c, 0, 61, 38
2, 349529, Note_on_c, 0, 87, 56
2, 349538, Note_on_c, 0, 64, 49
2, 349569, Note_on_c, 0, 94, 46
2, 350206, Control_c, 0, 64, 127
2, 350413, Note_on_c, 0, 94, 0
2, 350497, Note_on_c, 0, 55, 0
2, 350499, Note_on_c, 0, 64, 0
2, 350525, Note_on_c, 0, 87, 0
2, 350534, Note_on_c, 0, 61, 0
2, 350551, Note_on_c, 0, 99, 0
2, 351156, Control_c, 0, 64, 0
2, 351458, Note_on_c, 0, 61, 46
2, 351464, Note_on_c, 0, 55, 54
2, 351479, Note_on_c, 0, 88, 49
2, 351482, Note_on_c, 0, 64, 50
2, 351490, Note_on_c, 0, 97, 35
2, 351496, Note_on_c, 0, 100, 44
2, 351522, Note_on_c, 0, 93, 50
2, 351965, Control_c, 0, 64, 127
2, 351986, Note_on_c, 0, 93, 0
2, 352026, Note_on_c, 0, 64, 0
2, 352032, Note_on_c, 0, 55, 0
2, 352078, Note_on_c, 0, 88, 0
2, 352121, Note_on_c, 0, 97, 0
2, 352167, Note_on_c, 0, 100, 0
2, 352409, Note_on_c, 0, 61, 0
2, 352685, Control_c, 0, 64, 0
2, 352950, Note_on_c, 0, 63, 60
2, 353011, Note_on_c, 0, 89, 49
2, 353011, Note_on_c, 0, 101, 60
2, 353019, Note_on_c, 0, 96, 57
2, 353043, Note_on_c, 0, 60, 30
2, 353083, Note_on_c, 0, 58, 28
2, 353112, Note_on_c, 0, 53, 24
2, 353238, Control_c, 0, 64, 127
2, 353256, Note_on_c, 0, 101, 0
2, 353319, Note_on_c, 0, 96, 0
2, 353472, Note_on_c, 0, 89, 0
2, 354025, Note_on_c, 0, 63, 0
2, 354304, Note_on_c, 0, 60, 0
2, 354580, Note_on_c, 0, 58, 0
2, 355087, Control_c, 0, 64, 0
2, 355228, Note_on_c, 0, 60, 41
2, 355672, Note_on_c, 0, 60, 0
2, 355810, Note_on_c, 0, 63, 59
2, 356162, Note_on_c, 0, 63, 0
2, 356239, Note_on_c, 0, 53, 0
2, 356280, Note_on_c, 0, 67, 27
2, 356732, Note_on_c, 0, 67, 0
2, 356772, Note_on_c, 0, 70, 60
2, 357089, Note_on_c, 0, 70, 0
2, 357267, Note_on_c, 0, 67, 37
2, 357639, Note_on_c, 0, 67, 0
2, 357771, Note_on_c, 0, 68, 34
2, 358157, Note_on_c, 0, 68, 0
2, 358224, Note_on_c, 0, 70, 37
2, 358572, Note_on_c, 0, 70, 0
2, 358800, Note_on_c, 0, 71, 24
2, 358978, Note_on_c, 0, 63, 25
2, 359039, Note_on_c, 0, 52, 26
2, 359042, Note_on_c, 0, 58, 25
2, 359134, Note_on_c, 0, 71, 0
2, 359266, Note_on_c, 0, 72, 24
2, 359595, Note_on_c, 0, 72, 0
2, 359727, Note_on_c, 0, 73, 52
2, 359811, Note_on_c, 0, 63, 0
2, 359980, Note_on_c, 0, 52, 0
2, 360052, Note_on_c, 0, 73, 0
2, 360153, Note_on_c, 0, 74, 51
2, 360185, Note_on_c, 0, 58, 0
2, 360395, Note_on_c, 0, 74, 0
2, 360646, Note_on_c, 0, 75, 55
2, 360847, Note_on_c, 0, 75, 0
2, 361003, Note_on_c, 0, 63, 25
2, 361020, Note_on_c, 0, 75, 67
2, 361040, Note_on_c, 0, 58, 33
2, 361441, Note_on_c, 0, 75, 0
2, 361729, Note_on_c, 0, 63, 0
2, 362008, Note_on_c, 0, 75, 70
2, 362354, Note_on_c, 0, 75, 0
2, 362371, Note_on_c, 0, 58, 0
2, 362570, Note_on_c, 0, 75, 62
2, 362739, Note_on_c, 0, 60, 26
2, 362883, Note_on_c, 0, 75, 0
2, 363042, Note_on_c, 0, 60, 0
2, 363074, Note_on_c, 0, 75, 58
2, 363592, Note_on_c, 0, 60, 24
2, 363696, Note_on_c, 0, 75, 0
2, 363747, Note_on_c, 0, 60, 0
2, 363771, Note_on_c, 0, 72, 35
2, 364044, Note_on_c, 0, 72, 0
2, 364442, Note_on_c, 0, 50, 49
2, 364447, Note_on_c, 0, 60, 44
2, 364525, Note_on_c, 0, 57, 33
2, 364531, Note_on_c, 0, 53, 37
2, 364833, Note_on_c, 0, 50, 0
2, 364848, Note_on_c, 0, 53, 0
2, 364899, Note_on_c, 0, 60, 0
2, 364908, Note_on_c, 0, 57, 0
2, 365427, Note_on_c, 0, 59, 67
2, 365447, Note_on_c, 0, 64, 71
2, 365455, Note_on_c, 0, 53, 60
2, 366627, Note_on_c, 0, 74, 38
2, 366630, Note_on_c, 0, 64, 0
2, 366725, Note_on_c, 0, 53, 0
2, 366835, Note_on_c, 0, 75, 40
2, 367013, Note_on_c, 0, 74, 0
2, 367042, Note_on_c, 0, 75, 0
2, 367059, Note_on_c, 0, 59, 0
2, 367062, Note_on_c, 0, 76, 54
2, 367333, Note_on_c, 0, 76, 0
2, 367376, Note_on_c, 0, 64, 56
2, 367405, Note_on_c, 0, 59, 20
2, 367434, Note_on_c, 0, 79, 74
2, 367448, Note_on_c, 0, 53, 35
2, 367682, Note_on_c, 0, 64, 0
2, 367719, Note_on_c, 0, 59, 0
2, 367771, Note_on_c, 0, 79, 0
2, 367788, Note_on_c, 0, 53, 0
2, 368399, Note_on_c, 0, 62, 49
2, 368402, Note_on_c, 0, 52, 35
2, 368430, Note_on_c, 0, 59, 32
2, 368433, Note_on_c, 0, 55, 42
2, 368811, Note_on_c, 0, 77, 84
2, 369542, Note_on_c, 0, 77, 0
2, 369603, Note_on_c, 0, 62, 0
2, 369749, Note_on_c, 0, 76, 69
2, 369752, Note_on_c, 0, 59, 0
2, 369870, Note_on_c, 0, 55, 0
2, 370035, Note_on_c, 0, 52, 0
2, 370147, Note_on_c, 0, 76, 0
2, 370395, Note_on_c, 0, 72, 36
2, 370720, Note_on_c, 0, 72, 0
2, 370821, Note_on_c, 0, 67, 34
2, 371434, Note_on_c, 0, 67, 0
2, 371451, Note_on_c, 0, 55, 18
2, 371581, Note_on_c, 0, 55, 0
2, 371639, Note_on_c, 0, 65, 36
2, 372134, Note_on_c, 0, 65, 0
2, 372537, Note_on_c, 0, 45, 22
2, 372624, Note_on_c, 0, 55, 15
2, 372627, Note_on_c, 0, 64, 45
2, 372894, Note_on_c, 0, 45, 0
2, 373004, Note_on_c, 0, 64, 0
2, 373047, Note_on_c, 0, 55, 0
2, 374418, Note_on_c, 0, 64, 48
2, 374499, Note_on_c, 0, 55, 24
2, 374504, Note_on_c, 0, 60, 34
2, 374522, Note_on_c, 0, 59, 30
2, 374729, Note_on_c, 0, 55, 0
2, 374752, Note_on_c, 0, 59, 0
2, 374775, Note_on_c, 0, 64, 0
2, 374798, Note_on_c, 0, 60, 0
2, 375944, Note_on_c, 0, 64, 47
2, 376011, Note_on_c, 0, 60, 29
2, 376016, Note_on_c, 0, 57, 35
2, 376201, Note_on_c, 0, 64, 0
2, 376224, Note_on_c, 0, 60, 0
2, 376301, Note_on_c, 0, 57, 0
2, 377292, Note_on_c, 0, 76, 84
2, 377782, Note_on_c, 0, 76, 0
2, 377891, Note_on_c, 0, 79, 75
2, 378240, Note_on_c, 0, 79, 0
2, 378335, Note_on_c, 0, 76, 45
2, 378793, Note_on_c, 0, 64, 49
2, 378804, Note_on_c, 0, 76, 0
2, 378899, Note_on_c, 0, 60, 24
2, 378911, Note_on_c, 0, 64, 0
2, 378943, Note_on_c, 0, 57, 35
2, 379038, Note_on_c, 0, 60, 0
2, 379121, Note_on_c, 0, 57, 0
2, 379158, Note_on_c, 0, 72, 41
2, 379533, Note_on_c, 0, 72, 0
2, 380135, Note_on_c, 0, 64, 47
2, 380253, Note_on_c, 0, 59, 30
2, 380627, Note_on_c, 0, 59, 0
2, 380691, Note_on_c, 0, 64, 0
2, 381753, Note_on_c, 0, 59, 47
2, 381779, Note_on_c, 0, 63, 48
2, 382194, Note_on_c, 0, 63, 0
2, 382197, Note_on_c, 0, 59, 0
2, 383118, Note_on_c, 0, 76, 65
2, 383527, Note_on_c, 0, 76, 0
2, 383735, Note_on_c, 0, 79, 66
2, 383792, Note_on_c, 0, 62, 60
2, 383859, Note_on_c, 0, 57, 49
2, 383899, Note_on_c, 0, 52, 24
2, 383928, Note_on_c, 0, 62, 0
2, 383997, Note_on_c, 0, 57, 0
2, 384014, Note_on_c, 0, 52, 0
2, 384103, Note_on_c, 0, 79, 0
2, 384259, Note_on_c, 0, 74, 43
2, 384772, Note_on_c, 0, 74, 0
2, 385088, Note_on_c, 0, 74, 56
2, 385601, Note_on_c, 0, 74, 0
2, 385688, Note_on_c, 0, 67, 35
2, 385736, Note_on_c, 0, 64, 44
2, 385794, Note_on_c, 0, 62, 36
2, 385820, Note_on_c, 0, 67, 0
2, 385877, Note_on_c, 0, 64, 0
2, 385909, Note_on_c, 0, 62, 0
2, 386039, Note_on_c, 0, 74, 65
2, 386554, Note_on_c, 0, 74, 0
2, 387533, Note_on_c, 0, 60, 44
2, 387536, Note_on_c, 0, 64, 43
2, 387565, Note_on_c, 0, 59, 37
2, 387942, Note_on_c, 0, 60, 0
2, 388029, Note_on_c, 0, 59, 0
2, 388060, Note_on_c, 0, 64, 0
2, 388562, Note_on_c, 0, 60, 33
2, 388757, Note_on_c, 0, 60, 0
2, 388847, Note_on_c, 0, 74, 88
2, 389316, Note_on_c, 0, 74, 0
2, 389446, Note_on_c, 0, 76, 61
2, 389742, Note_on_c, 0, 64, 40
2, 389800, Note_on_c, 0, 60, 32
2, 389803, Note_on_c, 0, 76, 0
2, 389809, Note_on_c, 0, 57, 39
2, 389930, Note_on_c, 0, 71, 49
2, 390117, Note_on_c, 0, 64, 0
2, 390232, Note_on_c, 0, 60, 0
2, 390416, Note_on_c, 0, 71, 0
2, 390768, Note_on_c, 0, 71, 70
2, 390782, Note_on_c, 0, 57, 0
2, 391370, Note_on_c, 0, 71, 0
2, 391683, Note_on_c, 0, 56, 54
2, 391741, Note_on_c, 0, 71, 64
2, 391758, Note_on_c, 0, 64, 33
2, 392026, Note_on_c, 0, 56, 0
2, 392297, Note_on_c, 0, 71, 0
2, 392360, Note_on_c, 0, 72, 53
2, 392628, Note_on_c, 0, 64, 0
2, 392700, Note_on_c, 0, 72, 0
2, 392735, Note_on_c, 0, 74, 59
2, 393345, Note_on_c, 0, 64, 49
2, 393363, Note_on_c, 0, 74, 0
2, 393391, Note_on_c, 0, 54, 37
2, 393443, Note_on_c, 0, 69, 35
2, 393463, Note_on_c, 0, 60, 25
2, 393772, Note_on_c, 0, 60, 0
2, 393774, Note_on_c, 0, 64, 0
2, 394178, Note_on_c, 0, 54, 0
2, 394215, Note_on_c, 0, 69, 0
2, 394255, Note_on_c, 0, 71, 57
2, 394512, Note_on_c, 0, 71, 0
2, 394607, Note_on_c, 0, 72, 60
2, 395079, Note_on_c, 0, 72, 0
2, 395232, Note_on_c, 0, 66, 64
2, 395237, Note_on_c, 0, 62, 44
2, 395246, Note_on_c, 0, 51, 34
2, 395307, Note_on_c, 0, 57, 39
2, 396084, Note_on_c, 0, 66, 0
2, 396116, Note_on_c, 0, 67, 58
2, 396153, Note_on_c, 0, 62, 0
2, 396361, Note_on_c, 0, 67, 0
2, 396433, Note_on_c, 0, 51, 0
2, 396505, Note_on_c, 0, 69, 64
2, 396605, Note_on_c, 0, 57, 0
2, 396977, Note_on_c, 0, 69, 0
2, 397150, Note_on_c, 0, 57, 46
2, 397173, Note_on_c, 0, 51, 32
2, 397190, Note_on_c, 0, 64, 55
2, 397521, Note_on_c, 0, 57, 0
2, 397533, Note_on_c, 0, 51, 0
2, 398002, Note_on_c, 0, 66, 49
2, 398008, Note_on_c, 0, 64, 0
2, 398356, Note_on_c, 0, 66, 0
2, 398521, Note_on_c, 0, 67, 32
2, 398860, Note_on_c, 0, 67, 0
2, 399051, Note_on_c, 0, 69, 47
2, 399056, Note_on_c, 0, 71, 53
2, 399223, Note_on_c, 0, 55, 30
2, 399316, Note_on_c, 0, 71, 0
2, 399362, Note_on_c, 0, 69, 0
2, 399445, Note_on_c, 0, 66, 32
2, 399641, Note_on_c, 0, 55, 0
2, 399825, Note_on_c, 0, 66, 0
2, 399920, Note_on_c, 0, 67, 47
2, 400309, Note_on_c, 0, 67, 0
2, 400888, Note_on_c, 0, 70, 51
2, 401118, Note_on_c, 0, 70, 0
2, 401170, Note_on_c, 0, 55, 20
2, 401294, Note_on_c, 0, 71, 54
2, 401404, Note_on_c, 0, 55, 0
2, 401637, Note_on_c, 0, 71, 0
2, 401856, Note_on_c, 0, 74, 54
2, 402256, Note_on_c, 0, 74, 0
2, 402299, Note_on_c, 0, 78, 51
2, 402584, Note_on_c, 0, 78, 0
2, 402855, Note_on_c, 0, 81, 58
2, 402924, Note_on_c, 0, 62, 36
2, 403025, Note_on_c, 0, 62, 0
2, 403045, Note_on_c, 0, 59, 17
2, 403290, Note_on_c, 0, 59, 0
2, 403307, Note_on_c, 0, 81, 0
2, 403831, Note_on_c, 0, 90, 60
2, 403863, Note_on_c, 0, 59, 22
2, 404111, Note_on_c, 0, 90, 0
2, 404240, Note_on_c, 0, 59, 0
2, 404295, Note_on_c, 0, 91, 75
2, 404332, Note_on_c, 0, 89, 49
2, 404459, Note_on_c, 0, 89, 0
2, 404646, Note_on_c, 0, 91, 0
2, 404759, Note_on_c, 0, 90, 67
2, 404897, Note_on_c, 0, 62, 30
2, 405004, Note_on_c, 0, 62, 0
2, 405050, Note_on_c, 0, 90, 0
2, 405248, Note_on_c, 0, 91, 89
2, 405646, Note_on_c, 0, 91, 0
2, 405798, Note_on_c, 0, 90, 63
2, 405816, Note_on_c, 0, 62, 34
2, 405839, Note_on_c, 0, 59, 34
2, 405919, Note_on_c, 0, 62, 0
2, 406069, Note_on_c, 0, 59, 0
2, 406297, Note_on_c, 0, 86, 47
2, 406789, Note_on_c, 0, 86, 0
2, 406815, Note_on_c, 0, 83, 49
2, 406824, Note_on_c, 0, 90, 0
2, 407115, Note_on_c, 0, 83, 0
2, 407120, Note_on_c, 0, 61, 33
2, 407129, Note_on_c, 0, 66, 36
2, 407284, Note_on_c, 0, 87, 69
2, 407316, Note_on_c, 0, 55, 13
2, 407921, Note_on_c, 0, 87, 0
2, 407935, Note_on_c, 0, 66, 0
2, 408051, Note_on_c, 0, 55, 0
2, 408172, Note_on_c, 0, 88, 68
2, 408321, Note_on_c, 0, 61, 0
2, 408601, Note_on_c, 0, 88, 0
2, 408745, Note_on_c, 0, 84, 71
2, 408791, Note_on_c, 0, 66, 42
2, 408814, Note_on_c, 0, 61, 38
2, 408874, Note_on_c, 0, 55, 28
2, 409122, Note_on_c, 0, 84, 0
2, 409427, Note_on_c, 0, 61, 0
2, 409433, Note_on_c, 0, 85, 42
2, 409600, Note_on_c, 0, 66, 0
2, 409727, Note_on_c, 0, 61, 14
2, 409773, Note_on_c, 0, 85, 0
2, 410081, Note_on_c, 0, 79, 34
2, 410095, Note_on_c, 0, 55, 0
2, 410369, Note_on_c, 0, 79, 0
2, 410389, Note_on_c, 0, 61, 0
2, 410654, Note_on_c, 0, 61, 25
2, 410657, Note_on_c, 0, 66, 51
2, 410717, Note_on_c, 0, 55, 30
2, 411501, Note_on_c, 0, 55, 0
2, 411639, Note_on_c, 0, 66, 0
2, 412146, Note_on_c, 0, 61, 0
2, 412497, Note_on_c, 0, 65, 48
2, 412500, Note_on_c, 0, 55, 41
2, 412503, Note_on_c, 0, 61, 46
2, 412912, Note_on_c, 0, 55, 0
2, 412967, Note_on_c, 0, 65, 0
2, 413148, Note_on_c, 0, 61, 0
2, 413534, Note_on_c, 0, 55, 50
2, 413572, Note_on_c, 0, 61, 42
2, 413621, Note_on_c, 0, 65, 24
2, 413770, Note_on_c, 0, 85, 74
2, 413782, Note_on_c, 0, 73, 76
2, 413785, Note_on_c, 0, 80, 74
2, 414243, Note_on_c, 0, 55, 0
2, 414306, Note_on_c, 0, 65, 0
2, 414410, Note_on_c, 0, 73, 0
2, 414482, Note_on_c, 0, 85, 0
2, 414502, Note_on_c, 0, 80, 0
2, 414744, Note_on_c, 0, 61, 0
2, 414767, Note_on_c, 0, 60, 48
2, 414770, Note_on_c, 0, 64, 58
2, 414781, Note_on_c, 0, 86, 57
2, 414793, Note_on_c, 0, 74, 54
2, 414798, Note_on_c, 0, 54, 49
2, 414813, Note_on_c, 0, 81, 44
2, 415740, Control_c, 0, 64, 127
2, 416040, Note_on_c, 0, 81, 0
2, 416106, Note_on_c, 0, 64, 0
2, 416129, Note_on_c, 0, 86, 0
2, 416161, Note_on_c, 0, 74, 0
2, 416164, Note_on_c, 0, 60, 0
2, 416184, Note_on_c, 0, 54, 0
2, 416696, Control_c, 0, 64, 0
2, 416745, Note_on_c, 0, 83, 66
2, 416751, Note_on_c, 0, 71, 70
2, 416754, Note_on_c, 0, 64, 68
2, 416765, Note_on_c, 0, 60, 50
2, 416777, Note_on_c, 0, 54, 63
2, 417621, Control_c, 0, 64, 127
2, 417699, Note_on_c, 0, 71, 0
2, 417797, Note_on_c, 0, 83, 0
2, 417843, Note_on_c, 0, 60, 0
2, 417854, Note_on_c, 0, 64, 0
2, 417909, Note_on_c, 0, 54, 0
2, 418111, Control_c, 0, 64, 0
2, 418283, Note_on_c, 0, 54, 68
2, 418286, Note_on_c, 0, 64, 71
2, 418289, Note_on_c, 0, 80, 68
2, 418292, Note_on_c, 0, 74, 76
2, 418298, Note_on_c, 0, 86, 74
2, 418324, Note_on_c, 0, 60, 45
2, 418511, Note_on_c, 0, 80, 0
2, 418589, Note_on_c, 0, 81, 33
2, 418681, Note_on_c, 0, 64, 0
2, 418727, Note_on_c, 0, 60, 0
2, 418738, Note_on_c, 0, 74, 0
2, 418741, Note_on_c, 0, 54, 0
2, 418819, Note_on_c, 0, 86, 0
2, 418851, Note_on_c, 0, 81, 0
2, 419622, Note_on_c, 0, 80, 65
2, 419628, Note_on_c, 0, 86, 71
2, 419631, Note_on_c, 0, 74, 76
2, 419640, Note_on_c, 0, 64, 73
2, 419645, Note_on_c, 0, 54, 68
2, 419657, Note_on_c, 0, 60, 52
2, 419717, Note_on_c, 0, 80, 0
2, 419729, Note_on_c, 0, 81, 50
2, 420271, Control_c, 0, 64, 127
2, 420527, Note_on_c, 0, 64, 0
2, 420556, Note_on_c, 0, 74, 0
2, 420590, Note_on_c, 0, 81, 0
2, 420622, Note_on_c, 0, 86, 0
2, 420636, Note_on_c, 0, 60, 0
2, 420645, Note_on_c, 0, 54, 0
2, 421111, Control_c, 0, 64, 0
2, 421120, Note_on_c, 0, 54, 69
2, 421123, Note_on_c, 0, 64, 68
2, 421126, Note_on_c, 0, 86, 68
2, 421152, Note_on_c, 0, 81, 66
2, 421155, Note_on_c, 0, 60, 51
2, 421163, Note_on_c, 0, 74, 65
2, 421601, Control_c, 0, 64, 127
2, 421777, Note_on_c, 0, 74, 0
2, 421809, Note_on_c, 0, 60, 0
2, 421852, Note_on_c, 0, 81, 0
2, 421961, Note_on_c, 0, 64, 0
2, 421998, Note_on_c, 0, 86, 0
2, 422085, Note_on_c, 0, 54, 0
2, 422353, Control_c, 0, 64, 0
2, 422482, Note_on_c, 0, 64, 74
2, 422505, Note_on_c, 0, 88, 71
2, 422508, Note_on_c, 0, 53, 63
2, 422514, Note_on_c, 0, 83, 73
2, 422517, Note_on_c, 0, 59, 55
2, 422520, Note_on_c, 0, 76, 70
2, 423188, Control_c, 0, 64, 127
2, 423205, Note_on_c, 0, 76, 0
2, 423352, Note_on_c, 0, 83, 0
2, 423358, Note_on_c, 0, 88, 0
2, 423456, Note_on_c, 0, 53, 0
2, 423508, Note_on_c, 0, 64, 0
2, 423568, Note_on_c, 0, 59, 0
2, 423824, Control_c, 0, 64, 0
2, 423986, Note_on_c, 0, 91, 67
2, 424012, Note_on_c, 0, 86, 62
2, 424014, Note_on_c, 0, 79, 53
2, 424029, Note_on_c, 0, 64, 64
2, 424069, Note_on_c, 0, 59, 49
2, 424086, Note_on_c, 0, 53, 44
2, 424256, Control_c, 0, 64, 127
2, 425057, Note_on_c, 0, 53, 0
2, 425083, Note_on_c, 0, 59, 0
2, 425256, Note_on_c, 0, 64, 0
2, 425909, Note_on_c, 0, 79, 0
2, 426094, Note_on_c, 0, 86, 0
2, 426157, Note_on_c, 0, 91, 0
2, 426269, Note_on_c, 0, 65, 49
2, 426278, Control_c, 0, 64, 0
2, 426292, Note_on_c, 0, 61, 35
2, 426304, Note_on_c, 0, 60, 34
2, 426370, Note_on_c, 0, 55, 33
2, 427177, Control_c, 0, 64, 127
2, 427453, Note_on_c, 0, 61, 0
2, 427925, Note_on_c, 0, 61, 26
2, 428069, Control_c, 0, 64, 0
2, 428176, Note_on_c, 0, 96, 81
2, 428628, Note_on_c, 0, 96, 0
2, 428971, Note_on_c, 0, 65, 0
2, 428980, Note_on_c, 0, 60, 0
2, 429092, Note_on_c, 0, 55, 0
2, 429121, Note_on_c, 0, 61, 0
2, 429691, Note_on_c, 0, 94, 78
2, 429861, Note_on_c, 0, 63, 36
2, 429881, Note_on_c, 0, 94, 0
2, 429907, Note_on_c, 0, 60, 30
2, 430071, Note_on_c, 0, 53, 19
2, 430235, Note_on_c, 0, 91, 62
2, 430803, Note_on_c, 0, 53, 0
2, 430805, Note_on_c, 0, 63, 0
2, 431419, Note_on_c, 0, 60, 0
2, 431436, Note_on_c, 0, 91, 0
2, 431698, Note_on_c, 0, 92, 70
2, 431733, Note_on_c, 0, 63, 47
2, 431764, Note_on_c, 0, 60, 24
2, 431900, Note_on_c, 0, 63, 0
2, 432081, Note_on_c, 0, 92, 0
2, 432171, Note_on_c, 0, 87, 49
2, 432320, Note_on_c, 0, 60, 0
2, 433599, Note_on_c, 0, 62, 54
2, 433619, Note_on_c, 0, 91, 64
2, 433631, Note_on_c, 0, 56, 33
2, 433642, Note_on_c, 0, 59, 38
2, 433760, Note_on_c, 0, 62, 0
2, 433792, Note_on_c, 0, 87, 0
2, 433818, Note_on_c, 0, 56, 0
2, 433925, Note_on_c, 0, 59, 0
2, 434005, Note_on_c, 0, 91, 0
2, 434034, Note_on_c, 0, 86, 38
2, 434547, Note_on_c, 0, 59, 28
2, 434774, Note_on_c, 0, 59, 0
2, 435281, Note_on_c, 0, 86, 0
2, 435411, Note_on_c, 0, 89, 60
2, 435791, Note_on_c, 0, 89, 0
2, 437404, Note_on_c, 0, 86, 63
2, 437429, Note_on_c, 0, 60, 47
2, 437464, Note_on_c, 0, 65, 60
2, 437697, Note_on_c, 0, 86, 0
2, 437706, Note_on_c, 0, 65, 0
2, 437893, Note_on_c, 0, 60, 0
2, 437942, Note_on_c, 0, 84, 62
2, 438515, Note_on_c, 0, 60, 24
2, 438584, Note_on_c, 0, 84, 0
2, 438656, Note_on_c, 0, 60, 0
2, 438769, Note_on_c, 0, 85, 69
2, 439304, Note_on_c, 0, 85, 0
2, 439391, Note_on_c, 0, 81, 49
2, 439397, Note_on_c, 0, 65, 43
2, 439428, Note_on_c, 0, 60, 30
2, 439445, Note_on_c, 0, 61, 26
2, 439500, Note_on_c, 0, 56, 25
2, 439627, Note_on_c, 0, 60, 0
2, 439638, Note_on_c, 0, 56, 0
2, 439656, Note_on_c, 0, 81, 0
2, 439670, Note_on_c, 0, 65, 0
2, 439843, Note_on_c, 0, 61, 0
2, 440252, Note_on_c, 0, 84, 68
2, 440393, Note_on_c, 0, 60, 24
2, 440543, Note_on_c, 0, 60, 0
2, 440546, Note_on_c, 0, 84, 0
2, 440785, Note_on_c, 0, 82, 54
2, 441257, Note_on_c, 0, 61, 51
2, 441286, Note_on_c, 0, 65, 45
2, 441306, Note_on_c, 0, 55, 45
2, 441404, Note_on_c, 0, 65, 0
2, 441464, Note_on_c, 0, 55, 0
2, 441473, Note_on_c, 0, 61, 0
2, 441582, Note_on_c, 0, 78, 58
2, 441654, Note_on_c, 0, 82, 0
2, 441937, Note_on_c, 0, 78, 0
2, 442251, Note_on_c, 0, 81, 64
2, 442559, Note_on_c, 0, 81, 0
2, 442804, Note_on_c, 0, 79, 46
2, 443120, Note_on_c, 0, 64, 44
2, 443152, Note_on_c, 0, 61, 29
2, 443172, Note_on_c, 0, 55, 31
2, 443178, Note_on_c, 0, 79, 0
2, 443244, Note_on_c, 0, 64, 0
2, 443285, Note_on_c, 0, 61, 0
2, 443385, Note_on_c, 0, 55, 0
2, 444246, Note_on_c, 0, 61, 33
2, 444255, Note_on_c, 0, 78, 69
2, 444373, Note_on_c, 0, 61, 0
2, 444684, Note_on_c, 0, 78, 0
2, 444707, Note_on_c, 0, 77, 60
2, 445203, Note_on_c, 0, 77, 0
2, 445211, Note_on_c, 0, 63, 49
2, 445326, Note_on_c, 0, 63, 0
2, 445384, Note_on_c, 0, 75, 70
2, 445724, Note_on_c, 0, 75, 0
2, 445946, Note_on_c, 0, 72, 58
2, 446179, Note_on_c, 0, 72, 0
2, 446643, Note_on_c, 0, 72, 59
2, 446965, Note_on_c, 0, 72, 0
2, 447072, Note_on_c, 0, 63, 33
2, 447170, Note_on_c, 0, 60, 19
2, 447250, Note_on_c, 0, 63, 0
2, 447308, Note_on_c, 0, 72, 55
2, 447867, Note_on_c, 0, 72, 0
2, 447916, Note_on_c, 0, 60, 0
2, 448091, Note_on_c, 0, 67, 49
2, 448998, Note_on_c, 0, 61, 56
2, 449232, Note_on_c, 0, 61, 0
2, 449485, Note_on_c, 0, 67, 0
2, 449760, Note_on_c, 0, 65, 45
2, 449956, Note_on_c, 0, 65, 0
2, 450260, Note_on_c, 0, 66, 37
2, 450453, Note_on_c, 0, 68, 46
2, 450531, Note_on_c, 0, 66, 0
2, 450720, Note_on_c, 0, 70, 51
2, 450779, Note_on_c, 0, 68, 0
2, 450827, Note_on_c, 0, 70, 0
2, 450969, Note_on_c, 0, 72, 40
2, 451136, Note_on_c, 0, 72, 0
2, 451207, Note_on_c, 0, 73, 27
2, 451333, Note_on_c, 0, 73, 0
2, 451446, Note_on_c, 0, 75, 47
2, 451639, Note_on_c, 0, 75, 0
2, 451680, Note_on_c, 0, 77, 50
2, 451870, Note_on_c, 0, 77, 0
2, 451920, Note_on_c, 0, 78, 44
2, 452018, Note_on_c, 0, 78, 0
2, 452402, Note_on_c, 0, 80, 46
2, 452640, Note_on_c, 0, 81, 32
2, 452652, Note_on_c, 0, 80, 0
2, 452880, Note_on_c, 0, 84, 62
2, 452908, Note_on_c, 0, 81, 0
2, 453120, Note_on_c, 0, 86, 60
2, 453194, Note_on_c, 0, 84, 0
2, 453197, Note_on_c, 0, 60, 20
2, 453315, Note_on_c, 0, 86, 0
2, 453316, Note_on_c, 0, 80, 67
2, 453416, Note_on_c, 0, 60, 0
2, 453696, Note_on_c, 0, 80, 0
2, 453987, Note_on_c, 0, 80, 59
2, 454200, Note_on_c, 0, 80, 0
2, 454401, Note_on_c, 0, 80, 59
2, 454525, Note_on_c, 0, 82, 27
2, 454652, Note_on_c, 0, 82, 0
2, 454698, Note_on_c, 0, 80, 0
2, 454920, Note_on_c, 0, 77, 47
2, 455052, Note_on_c, 0, 77, 0
2, 455257, Note_on_c, 0, 80, 55
2, 455669, Note_on_c, 0, 60, 33
2, 455712, Note_on_c, 0, 80, 0
2, 455746, Note_on_c, 0, 56, 29
2, 455954, Note_on_c, 0, 60, 0
2, 456060, Note_on_c, 0, 77, 42
2, 456103, Note_on_c, 0, 56, 0
2, 456268, Note_on_c, 0, 77, 0
2, 456694, Note_on_c, 0, 63, 51
2, 456717, Note_on_c, 0, 85, 68
2, 456720, Note_on_c, 0, 73, 60
2, 456740, Note_on_c, 0, 52, 43
2, 456746, Note_on_c, 0, 58, 52
2, 456783, Note_on_c, 0, 80, 42
2, 457805, Control_c, 0, 64, 127
2, 458281, Note_on_c, 0, 52, 0
2, 458347, Note_on_c, 0, 58, 0
2, 458373, Note_on_c, 0, 63, 0
2, 458880, Note_on_c, 0, 63, 49
2, 458952, Note_on_c, 0, 52, 30
2, 458963, Note_on_c, 0, 58, 39
2, 459015, Note_on_c, 0, 73, 0
2, 459335, Note_on_c, 0, 85, 0
2, 459395, Note_on_c, 0, 80, 0
2, 459444, Note_on_c, 0, 63, 0
2, 459649, Control_c, 0, 64, 0
2, 459655, Note_on_c, 0, 58, 0
2, 459856, Note_on_c, 0, 63, 68
2, 459905, Note_on_c, 0, 52, 0
2, 459920, Note_on_c, 0, 86, 68
2, 459925, Note_on_c, 0, 80, 72
2, 459934, Note_on_c, 0, 58, 30
2, 459937, Note_on_c, 0, 74, 76
2, 459986, Note_on_c, 0, 82, 42
2, 460046, Note_on_c, 0, 84, 26
2, 460087, Note_on_c, 0, 58, 0
2, 460141, Note_on_c, 0, 74, 0
2, 460173, Note_on_c, 0, 63, 0
2, 460179, Note_on_c, 0, 82, 0
2, 460179, Note_on_c, 0, 84, 0
2, 460216, Note_on_c, 0, 80, 0
2, 460274, Note_on_c, 0, 86, 0
2, 460945, Note_on_c, 0, 84, 88
2, 460950, Note_on_c, 0, 89, 81
2, 460953, Note_on_c, 0, 77, 88
2, 460959, Note_on_c, 0, 67, 71
2, 460962, Note_on_c, 0, 63, 60
2, 460979, Note_on_c, 0, 58, 58
2, 460997, Note_on_c, 0, 62, 70
2, 461181, Control_c, 0, 64, 127
2, 461901, Note_on_c, 0, 89, 0
2, 462036, Note_on_c, 0, 62, 0
2, 462111, Note_on_c, 0, 63, 0
2, 462120, Note_on_c, 0, 84, 0
2, 462128, Note_on_c, 0, 67, 0
2, 462157, Note_on_c, 0, 58, 0
2, 462163, Note_on_c, 0, 77, 0
2, 462800, Control_c, 0, 64, 0
2, 462857, Note_on_c, 0, 87, 65
2, 462869, Note_on_c, 0, 67, 51
2, 462872, Note_on_c, 0, 75, 67
2, 462889, Note_on_c, 0, 58, 47
2, 462895, Note_on_c, 0, 82, 60
2, 462897, Note_on_c, 0, 63, 46
2, 462975, Note_on_c, 0, 62, 41
2, 463450, Note_on_c, 0, 62, 0
2, 463465, Control_c, 0, 64, 127
2, 463689, Note_on_c, 0, 58, 0
2, 463839, Note_on_c, 0, 87, 0
2, 463845, Note_on_c, 0, 75, 0
2, 463882, Note_on_c, 0, 82, 0
2, 464006, Note_on_c, 0, 63, 0
2, 464029, Note_on_c, 0, 67, 0
2, 464496, Control_c, 0, 64, 0
2, 464755, Note_on_c, 0, 67, 52
2, 464766, Note_on_c, 0, 85, 59
2, 464772, Note_on_c, 0, 73, 46
2, 464775, Note_on_c, 0, 63, 42
2, 464778, Note_on_c, 0, 57, 48
2, 464787, Note_on_c, 0, 80, 55
2, 465337, Control_c, 0, 64, 127
2, 465783, Note_on_c, 0, 67, 0
2, 465792, Note_on_c, 0, 57, 0
2, 465887, Note_on_c, 0, 80, 0
2, 465896, Note_on_c, 0, 73, 0
2, 465959, Note_on_c, 0, 63, 0
2, 465973, Note_on_c, 0, 85, 0
2, 466143, Control_c, 0, 64, 0
2, 466342, Note_on_c, 0, 63, 38
2, 466348, Note_on_c, 0, 84, 54
2, 466365, Note_on_c, 0, 72, 41
2, 466379, Note_on_c, 0, 65, 41
2, 466391, Note_on_c, 0, 57, 44
2, 466408, Note_on_c, 0, 79, 47
2, 466665, Control_c, 0, 64, 127
2, 467212, Note_on_c, 0, 72, 0
2, 467399, Note_on_c, 0, 79, 0
2, 467408, Note_on_c, 0, 65, 0
2, 467436, Note_on_c, 0, 84, 0
2, 467468, Note_on_c, 0, 57, 0
2, 467508, Note_on_c, 0, 63, 0
2, 468369, Control_c, 0, 64, 0
2, 468554, Note_on_c, 0, 56, 62
2, 468559, Note_on_c, 0, 60, 56
2, 468565, Note_on_c, 0, 65, 67
2, 468571, Note_on_c, 0, 61, 46
2, 468600, Note_on_c, 0, 84, 82
2, 468606, Note_on_c, 0, 89, 78
2, 468611, Note_on_c, 0, 77, 78
2, 469190, Note_on_c, 0, 77, 0
2, 469300, Note_on_c, 0, 84, 0
2, 469323, Control_c, 0, 64, 127
2, 469369, Note_on_c, 0, 89, 0
2, 469654, Note_on_c, 0, 65, 0
2, 469674, Note_on_c, 0, 60, 0
2, 469677, Note_on_c, 0, 56, 0
2, 469683, Note_on_c, 0, 61, 0
2, 470506, Control_c, 0, 64, 0
2, 470541, Note_on_c, 0, 96, 68
2, 470544, Note_on_c, 0, 65, 55
2, 470558, Note_on_c, 0, 56, 52
2, 470561, Note_on_c, 0, 60, 36
2, 470573, Note_on_c, 0, 89, 55
2, 470587, Note_on_c, 0, 61, 33
2, 470607, Note_on_c, 0, 84, 39
2, 471157, Note_on_c, 0, 84, 0
2, 471169, Control_c, 0, 64, 127
2, 471192, Note_on_c, 0, 89, 0
2, 471324, Note_on_c, 0, 96, 0
2, 471327, Note_on_c, 0, 60, 0
2, 471367, Note_on_c, 0, 65, 0
2, 471448, Note_on_c, 0, 61, 0
2, 471494, Note_on_c, 0, 56, 0
2, 472329, Control_c, 0, 64, 0
2, 472442, Note_on_c, 0, 61, 38
2, 472445, Note_on_c, 0, 65, 46
2, 472447, Note_on_c, 0, 99, 55
2, 472470, Note_on_c, 0, 87, 34
2, 472473, Note_on_c, 0, 55, 38
2, 472476, Note_on_c, 0, 94, 49
2, 472989, Control_c, 0, 64, 127
2, 473291, Note_on_c, 0, 94, 0
2, 473343, Note_on_c, 0, 65, 0
2, 473395, Note_on_c, 0, 55, 0
2, 473427, Note_on_c, 0, 87, 0
2, 473450, Note_on_c, 0, 61, 0
2, 473464, Note_on_c, 0, 99, 0
2, 473654, Control_c, 0, 64, 0
2, 473948, Note_on_c, 0, 61, 46
2, 473957, Note_on_c, 0, 94, 52
2, 473974, Note_on_c, 0, 100, 54
2, 473980, Note_on_c, 0, 55, 48
2, 473982, Note_on_c, 0, 64, 53
2, 473982, Note_on_c, 0, 88, 50
2, 474181, Control_c, 0, 64, 127
2, 474927, Note_on_c, 0, 64, 0
2, 474930, Note_on_c, 0, 55, 0
2, 474950, Note_on_c, 0, 88, 0
2, 475034, Note_on_c, 0, 100, 0
2, 475083, Note_on_c, 0, 94, 0
2, 475227, Note_on_c, 0, 61, 0
2, 476050, Control_c, 0, 64, 0
2, 476119, Note_on_c, 0, 63, 35
2, 476189, Note_on_c, 0, 60, 37
2, 476191, Note_on_c, 0, 101, 51
2, 476214, Note_on_c, 0, 89, 36
2, 476220, Note_on_c, 0, 96, 51
2, 476298, Note_on_c, 0, 58, 27
2, 476393, Note_on_c, 0, 96, 0
2, 476439, Note_on_c, 0, 101, 0
2, 476497, Note_on_c, 0, 63, 0
2, 476517, Note_on_c, 0, 89, 0
2, 476572, Note_on_c, 0, 60, 0
2, 476693, Note_on_c, 0, 58, 0
2, 478092, Note_on_c, 0, 75, 42
2, 478098, Note_on_c, 0, 87, 42
2, 478130, Note_on_c, 0, 77, 38
2, 478150, Note_on_c, 0, 80, 33
2, 478248, Note_on_c, 0, 84, 26
2, 478389, Note_on_c, 0, 84, 0
2, 478415, Note_on_c, 0, 77, 0
2, 478449, Note_on_c, 0, 80, 0
2, 478478, Note_on_c, 0, 87, 0
2, 478530, Note_on_c, 0, 75, 0
2, 479069, Note_on_c, 0, 75, 56
2, 479083, Note_on_c, 0, 87, 50
2, 479132, Note_on_c, 0, 80, 35
2, 479138, Note_on_c, 0, 77, 42
2, 479201, Note_on_c, 0, 84, 37
2, 479406, Note_on_c, 0, 77, 0
2, 479408, Note_on_c, 0, 84, 0
2, 479480, Note_on_c, 0, 80, 0
2, 479503, Note_on_c, 0, 87, 0
2, 479515, Note_on_c, 0, 75, 0
2, 480128, Note_on_c, 0, 80, 35
2, 480146, Note_on_c, 0, 76, 33
2, 480169, Note_on_c, 0, 87, 25
2, 480209, Note_on_c, 0, 73, 29
2, 480258, Note_on_c, 0, 84, 32
2, 480307, Note_on_c, 0, 73, 0
2, 480445, Note_on_c, 0, 76, 0
2, 480480, Note_on_c, 0, 84, 0
2, 480503, Note_on_c, 0, 80, 0
2, 480514, Note_on_c, 0, 87, 0
2, 481030, Note_on_c, 0, 87, 44
2, 481036, Note_on_c, 0, 75, 40
2, 481064, Note_on_c, 0, 80, 37
2, 481070, Note_on_c, 0, 76, 40
2, 481142, Note_on_c, 0, 84, 40
2, 481398, Note_on_c, 0, 76, 0
2, 481442, Note_on_c, 0, 84, 0
2, 481453, Note_on_c, 0, 80, 0
2, 481485, Note_on_c, 0, 75, 0
2, 481496, Note_on_c, 0, 87, 0
2, 482038, Note_on_c, 0, 87, 37
2, 482046, Note_on_c, 0, 75, 37
2, 482061, Note_on_c, 0, 76, 36
2, 482064, Note_on_c, 0, 80, 34
2, 482130, Note_on_c, 0, 84, 46
2, 482516, Note_on_c, 0, 84, 0
2, 482614, Note_on_c, 0, 76, 0
2, 482735, Note_on_c, 0, 87, 0
2, 482997, Note_on_c, 0, 85, 32
2, 483000, Note_on_c, 0, 76, 32
2, 483008, Note_on_c, 0, 73, 25
2, 483152, Note_on_c, 0, 76, 0
2, 483227, Note_on_c, 0, 75, 0
2, 483308, Note_on_c, 0, 80, 0
2, 483438, Note_on_c, 0, 85, 0
2, 483550, Note_on_c, 0, 73, 0
2, 483671, Note_on_c, 0, 87, 42
2, 483674, Note_on_c, 0, 77, 49
2, 483685, Note_on_c, 0, 75, 39
2, 483728, Note_on_c, 0, 80, 33
2, 483754, Note_on_c, 0, 84, 30
2, 483913, Note_on_c, 0, 77, 0
2, 483947, Note_on_c, 0, 80, 0
2, 483956, Note_on_c, 0, 84, 0
2, 483970, Note_on_c, 0, 87, 0
2, 483973, Note_on_c, 0, 75, 0
2, 484569, Note_on_c, 0, 87, 51
2, 484618, Note_on_c, 0, 80, 36
2, 484621, Note_on_c, 0, 75, 43
2, 484633, Note_on_c, 0, 77, 34
2, 484667, Note_on_c, 0, 84, 39
2, 484817, Note_on_c, 0, 77, 0
2, 484906, Note_on_c, 0, 80, 0
2, 484929, Note_on_c, 0, 84, 0
2, 484961, Note_on_c, 0, 87, 0
2, 484984, Note_on_c, 0, 75, 0
2, 485511, Note_on_c, 0, 73, 31
2, 485790, Note_on_c, 0, 87, 48
2, 485834, Note_on_c, 0, 73, 0
2, 485839, Note_on_c, 0, 77, 36
2, 485845, Note_on_c, 0, 75, 42
2, 485851, Note_on_c, 0, 80, 39
2, 485888, Note_on_c, 0, 84, 43
2, 486133, Note_on_c, 0, 75, 0
2, 486174, Note_on_c, 0, 77, 0
2, 486266, Note_on_c, 0, 84, 0
2, 486292, Note_on_c, 0, 87, 0
2, 486312, Note_on_c, 0, 80, 0
2, 486652, Control_c, 0, 64, 127
2, 486868, Control_c, 0, 64, 0
2, 488400, Note_on_c, 0, 61, 46
2, 488403, Note_on_c, 0, 65, 55
2, 488463, Note_on_c, 0, 55, 32
2, 488512, Note_on_c, 0, 65, 0
2, 488613, Note_on_c, 0, 55, 0
2, 488627, Note_on_c, 0, 61, 0
2, 489324, Note_on_c, 0, 96, 72
2, 489647, Note_on_c, 0, 96, 0
2, 489727, Note_on_c, 0, 84, 63
2, 489920, Note_on_c, 0, 84, 0
2, 490537, Note_on_c, 0, 27, 53
2, 490738, Note_on_c, 0, 27, 0
2, 493036, Note_on_c, 0, 60, 41
2, 493137, Note_on_c, 0, 60, 0
2, 493382, Note_on_c, 0, 67, 88
2, 493860, Note_on_c, 0, 67, 0
2, 493980, Note_on_c, 0, 68, 64
2, 494248, Note_on_c, 0, 68, 0
2, 494412, Note_on_c, 0, 67, 46
2, 494868, Note_on_c, 0, 67, 0
2, 494990, Note_on_c, 0, 68, 67
2, 495302, Note_on_c, 0, 68, 0
2, 495451, Note_on_c, 0, 67, 48
2, 495976, Note_on_c, 0, 67, 0
2, 496281, Note_on_c, 0, 66, 63
2, 496876, Note_on_c, 0, 66, 0
2, 496968, Note_on_c, 0, 65, 50
2, 497923, Note_on_c, 0, 56, 40
2, 497925, Note_on_c, 0, 59, 42
2, 497942, Note_on_c, 0, 62, 33
2, 498038, Note_on_c, 0, 62, 0
2, 498088, Note_on_c, 0, 59, 0
2, 498180, Note_on_c, 0, 56, 0
2, 499183, Note_on_c, 0, 61, 38
2, 499204, Note_on_c, 0, 60, 27
2, 499228, Note_on_c, 0, 56, 28
2, 500347, Note_on_c, 0, 61, 0
2, 500508, Note_on_c, 0, 65, 0
2, 500688, Note_on_c, 0, 61, 36
2, 500980, Note_on_c, 0, 61, 0
2, 501060, Note_on_c, 0, 64, 99
2, 501189, Note_on_c, 0, 60, 0
2, 501441, Note_on_c, 0, 56, 0
2, 501559, Note_on_c, 0, 64, 0
2, 501628, Note_on_c, 0, 65, 66
2, 501669, Note_on_c, 0, 61, 34
2, 501734, Note_on_c, 0, 56, 26
2, 501931, Note_on_c, 0, 65, 0
2, 501960, Note_on_c, 0, 61, 0
2, 502063, Note_on_c, 0, 64, 53
2, 502336, Note_on_c, 0, 56, 0
2, 502596, Note_on_c, 0, 64, 0
2, 502658, Note_on_c, 0, 62, 42
2, 502708, Note_on_c, 0, 61, 29
2, 502850, Note_on_c, 0, 61, 0
2, 502872, Note_on_c, 0, 62, 0
2, 503040, Note_on_c, 0, 64, 68
2, 503661, Note_on_c, 0, 64, 0
2, 503716, Note_on_c, 0, 61, 34
2, 503752, Note_on_c, 0, 62, 46
2, 503796, Note_on_c, 0, 61, 0
2, 503851, Note_on_c, 0, 62, 0
2, 504038, Note_on_c, 0, 63, 67
2, 505581, Note_on_c, 0, 61, 60
2, 505600, Note_on_c, 0, 55, 54
2, 505749, Note_on_c, 0, 63, 0
2, 505814, Note_on_c, 0, 55, 0
2, 505958, Note_on_c, 0, 61, 0
2, 506040, Note_on_c, 0, 60, 27
2, 506426, Note_on_c, 0, 60, 0
2, 506594, Note_on_c, 0, 58, 49
2, 506992, Note_on_c, 0, 58, 0
2, 507024, Note_on_c, 0, 56, 35
2, 507540, Note_on_c, 0, 56, 0
2, 507640, Note_on_c, 0, 52, 40
2, 507732, Note_on_c, 0, 52, 0
2, 507914, Note_on_c, 0, 55, 53
2, 508370, Note_on_c, 0, 55, 0
2, 508603, Note_on_c, 0, 48, 27
2, 508776, Note_on_c, 0, 48, 0
2, 508999, Note_on_c, 0, 51, 30
2, 509424, Note_on_c, 0, 51, 0
2, 509486, Note_on_c, 0, 53, 55
2, 509510, Note_on_c, 0, 44, 31
2, 509788, Note_on_c, 0, 53, 0
2, 509824, Note_on_c, 0, 44, 0
2, 509952, Note_on_c, 0, 55, 34
2, 510280, Note_on_c, 0, 55, 0
2, 510439, Note_on_c, 0, 56, 72
2, 510813, Note_on_c, 0, 56, 0
2, 510895, Note_on_c, 0, 58, 38
2, 511195, Note_on_c, 0, 58, 0
2, 511291, Note_on_c, 0, 60, 60
2, 511317, Note_on_c, 0, 39, 1
2, 511375, Note_on_c, 0, 54, 33
2, 511680, Note_on_c, 0, 60, 0
2, 511735, Note_on_c, 0, 61, 49
2, 512128, Note_on_c, 0, 61, 0
2, 512306, Note_on_c, 0, 65, 67
2, 512618, Note_on_c, 0, 39, 0
2, 512620, Note_on_c, 0, 65, 0
2, 512700, Note_on_c, 0, 62, 56
2, 513218, Note_on_c, 0, 63, 76
2, 513280, Note_on_c, 0, 54, 0
2, 513307, Note_on_c, 0, 62, 0
2, 513506, Note_on_c, 0, 63, 0
2, 513552, Control_c, 0, 64, 127
2, 513583, Note_on_c, 0, 66, 71
2, 513720, Control_c, 0, 64, 0
2, 513888, Control_c, 0, 64, 127
2, 514008, Control_c, 0, 64, 0
2, 514128, Note_on_c, 0, 66, 0
2, 514130, Note_on_c, 0, 64, 57
2, 514430, Note_on_c, 0, 64, 0
2, 514514, Control_c, 0, 64, 127
2, 514564, Note_on_c, 0, 65, 32
2, 515052, Note_on_c, 0, 65, 0
2, 515157, Note_on_c, 0, 63, 71
2, 515162, Note_on_c, 0, 68, 67
2, 515193, Note_on_c, 0, 53, 40
2, 515210, Control_c, 0, 64, 0
2, 515236, Note_on_c, 0, 58, 42
2, 515320, Note_on_c, 0, 63, 0
2, 515347, Note_on_c, 0, 53, 0
2, 515354, Note_on_c, 0, 58, 0
2, 515491, Note_on_c, 0, 68, 0
2, 515568, Note_on_c, 0, 65, 41
2, 516134, Note_on_c, 0, 66, 47
2, 516211, Note_on_c, 0, 65, 0
2, 516408, Note_on_c, 0, 66, 0
2, 516444, Note_on_c, 0, 49, 37
2, 516477, Note_on_c, 0, 37, 42
2, 516511, Control_c, 0, 64, 127
2, 516528, Note_on_c, 0, 70, 51
2, 516698, Note_on_c, 0, 37, 0
2, 516715, Note_on_c, 0, 49, 0
2, 516969, Control_c, 0, 64, 0
2, 517034, Note_on_c, 0, 70, 0
2, 517096, Note_on_c, 0, 67, 45
2, 517315, Note_on_c, 0, 67, 0
2, 517449, Control_c, 0, 64, 127
2, 517500, Note_on_c, 0, 68, 49
2, 517982, Note_on_c, 0, 68, 0
2, 518054, Note_on_c, 0, 63, 50
2, 518090, Note_on_c, 0, 72, 61
2, 518100, Note_on_c, 0, 52, 37
2, 518121, Control_c, 0, 64, 0
2, 518131, Note_on_c, 0, 58, 37
2, 518352, Note_on_c, 0, 72, 0
2, 519100, Note_on_c, 0, 70, 51
2, 519324, Note_on_c, 0, 70, 0
2, 519434, Note_on_c, 0, 73, 60
2, 519528, Note_on_c, 0, 63, 0
2, 519830, Note_on_c, 0, 58, 0
2, 519943, Note_on_c, 0, 73, 0
2, 520310, Control_c, 0, 64, 127
2, 520394, Note_on_c, 0, 72, 27
2, 520528, Note_on_c, 0, 52, 0
2, 520876, Note_on_c, 0, 72, 0
2, 520970, Note_on_c, 0, 73, 62
2, 520975, Note_on_c, 0, 63, 57
2, 521008, Control_c, 0, 64, 0
2, 521047, Note_on_c, 0, 58, 34
2, 521280, Note_on_c, 0, 63, 0
2, 521287, Note_on_c, 0, 73, 0
2, 521289, Note_on_c, 0, 58, 0
2, 521344, Control_c, 0, 64, 127
2, 521414, Note_on_c, 0, 74, 45
2, 521800, Note_on_c, 0, 74, 0
2, 521930, Note_on_c, 0, 75, 69
2, 522115, Control_c, 0, 64, 0
2, 522189, Note_on_c, 0, 75, 0
2, 522283, Note_on_c, 0, 63, 44
2, 522288, Note_on_c, 0, 67, 38
2, 522333, Note_on_c, 0, 62, 41
2, 522336, Note_on_c, 0, 76, 85
2, 522348, Note_on_c, 0, 58, 37
2, 522837, Note_on_c, 0, 76, 0
2, 522900, Note_on_c, 0, 77, 71
2, 523233, Note_on_c, 0, 77, 0
2, 523353, Note_on_c, 0, 74, 37
2, 523394, Note_on_c, 0, 67, 0
2, 523701, Note_on_c, 0, 63, 0
2, 523723, Note_on_c, 0, 74, 0
2, 523874, Note_on_c, 0, 75, 53
2, 523932, Note_on_c, 0, 67, 30
2, 524013, Note_on_c, 0, 63, 18
2, 524076, Note_on_c, 0, 67, 0
2, 524282, Note_on_c, 0, 75, 0
2, 524304, Note_on_c, 0, 63, 0
2, 524378, Note_on_c, 0, 71, 39
2, 524388, Note_on_c, 0, 62, 0
2, 524803, Note_on_c, 0, 71, 0
2, 524906, Note_on_c, 0, 74, 77
2, 525266, Control_c, 0, 64, 127
2, 525314, Note_on_c, 0, 73, 29
2, 525316, Note_on_c, 0, 74, 0
2, 525523, Note_on_c, 0, 58, 0
2, 525768, Note_on_c, 0, 73, 0
2, 525916, Control_c, 0, 64, 0
2, 526164, Note_on_c, 0, 67, 38
2, 526168, Note_on_c, 0, 63, 38
2, 526195, Note_on_c, 0, 57, 40
2, 526221, Note_on_c, 0, 72, 48
2, 527071, Control_c, 0, 64, 127
2, 527330, Note_on_c, 0, 67, 0
2, 527356, Note_on_c, 0, 57, 0
2, 527383, Note_on_c, 0, 63, 0
2, 527642, Note_on_c, 0, 72, 0
2, 527702, Note_on_c, 0, 70, 40
2, 527721, Control_c, 0, 64, 0
2, 527848, Note_on_c, 0, 67, 49
2, 527860, Note_on_c, 0, 63, 48
2, 527916, Note_on_c, 0, 57, 29
2, 527942, Note_on_c, 0, 67, 0
2, 527997, Note_on_c, 0, 70, 0
2, 528036, Note_on_c, 0, 57, 0
2, 528079, Note_on_c, 0, 63, 0
2, 528168, Note_on_c, 0, 69, 34
2, 528681, Note_on_c, 0, 69, 0
2, 528777, Note_on_c, 0, 70, 42
2, 528871, Note_on_c, 0, 70, 0
2, 528924, Control_c, 0, 64, 127
2, 529044, Control_c, 0, 64, 0
2, 529567, Note_on_c, 0, 61, 1
2, 529579, Note_on_c, 0, 65, 57
2, 529593, Note_on_c, 0, 60, 35
2, 529622, Note_on_c, 0, 56, 29
2, 529634, Note_on_c, 0, 72, 24
2, 529689, Note_on_c, 0, 65, 0
2, 529694, Note_on_c, 0, 60, 0
2, 529728, Note_on_c, 0, 56, 0
2, 529740, Note_on_c, 0, 72, 0
2, 529819, Note_on_c, 0, 61, 0
2, 530865, Note_on_c, 0, 84, 71
2, 530882, Note_on_c, 0, 72, 54
2, 531302, Note_on_c, 0, 84, 0
2, 531312, Note_on_c, 0, 72, 0
2, 531496, Note_on_c, 0, 84, 58
2, 531516, Note_on_c, 0, 72, 45
2, 531602, Note_on_c, 0, 65, 36
2, 531609, Note_on_c, 0, 61, 33
2, 531633, Note_on_c, 0, 84, 0
2, 531640, Note_on_c, 0, 72, 0
2, 531715, Note_on_c, 0, 65, 0
2, 531892, Note_on_c, 0, 85, 51
2, 531900, Note_on_c, 0, 61, 0
2, 531904, Note_on_c, 0, 73, 35
2, 532240, Note_on_c, 0, 73, 0
2, 532288, Note_on_c, 0, 85, 0
2, 532483, Note_on_c, 0, 75, 49
2, 532521, Note_on_c, 0, 61, 34
2, 532545, Note_on_c, 0, 87, 59
2, 532564, Note_on_c, 0, 65, 54
2, 532663, Note_on_c, 0, 65, 0
2, 532689, Note_on_c, 0, 75, 0
2, 532704, Note_on_c, 0, 87, 0
2, 532845, Note_on_c, 0, 61, 0
2, 533803, Note_on_c, 0, 61, 42
2, 533805, Note_on_c, 0, 64, 56
2, 533817, Note_on_c, 0, 76, 51
2, 533829, Note_on_c, 0, 88, 41
2, 533844, Note_on_c, 0, 55, 33
2, 533856, Note_on_c, 0, 82, 29
2, 534012, Note_on_c, 0, 55, 0
2, 534036, Note_on_c, 0, 64, 0
2, 534055, Note_on_c, 0, 61, 0
2, 534057, Note_on_c, 0, 76, 0
2, 534067, Note_on_c, 0, 88, 0
2, 534127, Note_on_c, 0, 82, 0
2, 535761, Note_on_c, 0, 55, 68
2, 535764, Note_on_c, 0, 64, 74
2, 535768, Note_on_c, 0, 61, 59
2, 535778, Note_on_c, 0, 89, 82
2, 535783, Note_on_c, 0, 77, 88
2, 535838, Note_on_c, 0, 85, 46
2, 535917, Note_on_c, 0, 85, 0
2, 536124, Note_on_c, 0, 89, 0
2, 536131, Note_on_c, 0, 77, 0
2, 536205, Note_on_c, 0, 55, 0
2, 536215, Note_on_c, 0, 64, 0
2, 536320, Note_on_c, 0, 61, 0
2, 536433, Note_on_c, 0, 78, 63
2, 536436, Note_on_c, 0, 90, 63
2, 536438, Note_on_c, 0, 61, 55
2, 536440, Note_on_c, 0, 64, 69
2, 536443, Note_on_c, 0, 55, 54
2, 536632, Note_on_c, 0, 64, 0
2, 536635, Note_on_c, 0, 78, 0
2, 536733, Note_on_c, 0, 90, 0
2, 536776, Note_on_c, 0, 91, 53
2, 536781, Note_on_c, 0, 64, 61
2, 536788, Note_on_c, 0, 79, 61
2, 536812, Control_c, 0, 64, 127
2, 536824, Note_on_c, 0, 89, 34
2, 536959, Control_c, 0, 64, 0
2, 536995, Note_on_c, 0, 55, 0
2, 537021, Note_on_c, 0, 79, 0
2, 537028, Note_on_c, 0, 91, 0
2, 537100, Control_c, 0, 64, 127
2, 537103, Note_on_c, 0, 61, 0
2, 537105, Note_on_c, 0, 64, 0
2, 537110, Note_on_c, 0, 89, 0
2, 537393, Note_on_c, 0, 80, 60
2, 537398, Note_on_c, 0, 92, 64
2, 537530, Note_on_c, 0, 92, 0
2, 537554, Note_on_c, 0, 80, 0
2, 537657, Control_c, 0, 64, 0
2, 537734, Note_on_c, 0, 68, 49
2, 537770, Note_on_c, 0, 64, 54
2, 537780, Note_on_c, 0, 75, 65
2, 537782, Note_on_c, 0, 59, 36
2, 537787, Note_on_c, 0, 87, 47
2, 537806, Note_on_c, 0, 63, 40
2, 538219, Note_on_c, 0, 59, 0
2, 538291, Note_on_c, 0, 64, 0
2, 538298, Note_on_c, 0, 63, 0
2, 538324, Note_on_c, 0, 68, 0
2, 538341, Note_on_c, 0, 75, 0
2, 538358, Note_on_c, 0, 87, 0
2, 538617, Control_c, 0, 64, 127
2, 538634, Note_on_c, 0, 68, 43
2, 538656, Note_on_c, 0, 75, 48
2, 538660, Note_on_c, 0, 87, 51
2, 538682, Note_on_c, 0, 59, 42
2, 538694, Note_on_c, 0, 63, 32
2, 538730, Note_on_c, 0, 64, 40
2, 538783, Control_c, 0, 64, 0
2, 539078, Note_on_c, 0, 59, 0
2, 539107, Note_on_c, 0, 75, 0
2, 539160, Note_on_c, 0, 87, 0
2, 539193, Note_on_c, 0, 64, 0
2, 539200, Note_on_c, 0, 68, 0
2, 539215, Note_on_c, 0, 63, 0
2, 539556, Control_c, 0, 64, 127
2, 539589, Note_on_c, 0, 68, 42
2, 539604, Note_on_c, 0, 87, 46
2, 539642, Note_on_c, 0, 58, 37
2, 539644, Note_on_c, 0, 75, 29
2, 539647, Note_on_c, 0, 63, 30
2, 539673, Note_on_c, 0, 64, 46
2, 539820, Control_c, 0, 64, 0
2, 540115, Note_on_c, 0, 87, 0
2, 540120, Note_on_c, 0, 75, 0
2, 540309, Note_on_c, 0, 85, 36
2, 540374, Control_c, 0, 64, 127
2, 540376, Note_on_c, 0, 64, 0
2, 540465, Note_on_c, 0, 68, 0
2, 540496, Note_on_c, 0, 63, 0
2, 540600, Note_on_c, 0, 85, 0
2, 540672, Note_on_c, 0, 58, 0
2, 540952, Control_c, 0, 64, 0
2, 541116, Note_on_c, 0, 86, 74
2, 541118, Note_on_c, 0, 82, 76
2, 541147, Note_on_c, 0, 63, 45
2, 541154, Note_on_c, 0, 67, 50
2, 541202, Note_on_c, 0, 62, 51
2, 541204, Note_on_c, 0, 58, 30
2, 541912, Note_on_c, 0, 82, 0
2, 542035, Note_on_c, 0, 86, 0
2, 542181, Note_on_c, 0, 84, 29
2, 542325, Note_on_c, 0, 84, 0
2, 542450, Note_on_c, 0, 86, 69
2, 542457, Note_on_c, 0, 67, 0
2, 542498, Note_on_c, 0, 82, 52
2, 542548, Note_on_c, 0, 63, 0
2, 542988, Note_on_c, 0, 86, 0
2, 543050, Note_on_c, 0, 85, 55
2, 543124, Note_on_c, 0, 81, 44
2, 543139, Note_on_c, 0, 82, 0
2, 543151, Note_on_c, 0, 63, 30
2, 543280, Note_on_c, 0, 85, 0
2, 543396, Note_on_c, 0, 62, 0
2, 543412, Note_on_c, 0, 63, 0
2, 543456, Note_on_c, 0, 84, 35
2, 543583, Note_on_c, 0, 58, 0
2, 543715, Note_on_c, 0, 81, 0
2, 543763, Note_on_c, 0, 84, 0
2, 544286, Note_on_c, 0, 66, 71
2, 544324, Note_on_c, 0, 57, 60
2, 544329, Note_on_c, 0, 62, 69
2, 544356, Note_on_c, 0, 61, 15
2, 545280, Control_c, 0, 64, 127
2, 545282, Note_on_c, 0, 81, 81
2, 545289, Note_on_c, 0, 85, 74
2, 545354, Control_c, 0, 64, 0
2, 545589, Note_on_c, 0, 81, 0
2, 545712, Note_on_c, 0, 62, 0
2, 545731, Note_on_c, 0, 66, 0
2, 545868, Note_on_c, 0, 85, 0
2, 545980, Note_on_c, 0, 83, 31
2, 546153, Note_on_c, 0, 83, 0
2, 546194, Control_c, 0, 64, 127
2, 546220, Note_on_c, 0, 66, 37
2, 546292, Note_on_c, 0, 85, 54
2, 546309, Note_on_c, 0, 81, 50
2, 546580, Note_on_c, 0, 57, 0
2, 546640, Note_on_c, 0, 66, 0
2, 546801, Note_on_c, 0, 81, 0
2, 546921, Note_on_c, 0, 85, 0
2, 546969, Note_on_c, 0, 80, 25
2, 547056, Note_on_c, 0, 80, 0
2, 547063, Control_c, 0, 64, 0
2, 547156, Note_on_c, 0, 62, 1
2, 547183, Note_on_c, 0, 66, 44
2, 547214, Note_on_c, 0, 56, 52
2, 547240, Note_on_c, 0, 61, 0
2, 548181, Note_on_c, 0, 66, 0
2, 548191, Control_c, 0, 64, 127
2, 548193, Note_on_c, 0, 73, 78
2, 548196, Note_on_c, 0, 85, 77
2, 548260, Note_on_c, 0, 62, 0
2, 548558, Note_on_c, 0, 73, 0
2, 548606, Note_on_c, 0, 56, 0
2, 548632, Note_on_c, 0, 85, 0
2, 548745, Control_c, 0, 64, 0
2, 548808, Note_on_c, 0, 56, 47
2, 548815, Note_on_c, 0, 85, 73
2, 548820, Note_on_c, 0, 61, 57
2, 548822, Note_on_c, 0, 65, 63
2, 548832, Note_on_c, 0, 73, 53
2, 548863, Note_on_c, 0, 60, 36
2, 548992, Note_on_c, 0, 58, 19
2, 549156, Control_c, 0, 64, 127
2, 549420, Note_on_c, 0, 73, 0
2, 549480, Note_on_c, 0, 65, 0
2, 549482, Note_on_c, 0, 56, 0
2, 549501, Note_on_c, 0, 60, 0
2, 549518, Note_on_c, 0, 85, 0
2, 549549, Note_on_c, 0, 58, 0
2, 549552, Note_on_c, 0, 61, 0
2, 549756, Note_on_c, 0, 78, 51
2, 549775, Note_on_c, 0, 72, 33
2, 549780, Note_on_c, 0, 61, 57
2, 549782, Note_on_c, 0, 65, 51
2, 549799, Note_on_c, 0, 56, 39
2, 549832, Note_on_c, 0, 60, 19
2, 549883, Note_on_c, 0, 72, 0
2, 549902, Note_on_c, 0, 65, 0
2, 549907, Note_on_c, 0, 56, 0
2, 549919, Note_on_c, 0, 60, 0
2, 549948, Note_on_c, 0, 78, 0
2, 549974, Control_c, 0, 64, 0
2, 549996, Control_c, 0, 64, 127
2, 550130, Note_on_c, 0, 73, 38
2, 550144, Note_on_c, 0, 56, 46
2, 550154, Note_on_c, 0, 85, 36
2, 550183, Note_on_c, 0, 65, 39
2, 550389, Note_on_c, 0, 65, 0
2, 550392, Note_on_c, 0, 73, 0
2, 550406, Note_on_c, 0, 56, 0
2, 550473, Note_on_c, 0, 85, 0
2, 550480, Note_on_c, 0, 61, 0
2, 550605, Note_on_c, 0, 56, 56
2, 550658, Note_on_c, 0, 74, 69
2, 550668, Note_on_c, 0, 61, 53
2, 550672, Note_on_c, 0, 65, 42
2, 550675, Note_on_c, 0, 86, 57
2, 550740, Note_on_c, 0, 74, 0
2, 550759, Note_on_c, 0, 84, 27
2, 550768, Note_on_c, 0, 86, 0
2, 550771, Note_on_c, 0, 65, 0
2, 550790, Control_c, 0, 64, 0
2, 550857, Note_on_c, 0, 84, 0
2, 550874, Note_on_c, 0, 61, 0
2, 550956, Note_on_c, 0, 56, 0
2, 551008, Note_on_c, 0, 61, 47
2, 551030, Control_c, 0, 64, 127
2, 551047, Note_on_c, 0, 75, 58
2, 551056, Note_on_c, 0, 55, 42
2, 551066, Note_on_c, 0, 64, 53
2, 551078, Note_on_c, 0, 87, 56
2, 551181, Note_on_c, 0, 64, 0
2, 551263, Note_on_c, 0, 55, 0
2, 551313, Note_on_c, 0, 75, 0
2, 551318, Note_on_c, 0, 61, 0
2, 551354, Note_on_c, 0, 87, 0
2, 551580, Note_on_c, 0, 61, 67
2, 551587, Note_on_c, 0, 76, 74
2, 551592, Note_on_c, 0, 88, 71
2, 551599, Note_on_c, 0, 55, 67
2, 551611, Note_on_c, 0, 82, 62
2, 551616, Note_on_c, 0, 64, 67
2, 551656, Control_c, 0, 64, 0
2, 551762, Note_on_c, 0, 76, 0
2, 551764, Note_on_c, 0, 64, 0
2, 551776, Note_on_c, 0, 88, 0
2, 551808, Note_on_c, 0, 82, 0
2, 551942, Note_on_c, 0, 64, 68
2, 551952, Note_on_c, 0, 77, 61
2, 551968, Control_c, 0, 64, 127
2, 551976, Note_on_c, 0, 89, 60
2, 552112, Note_on_c, 0, 64, 0
2, 552134, Note_on_c, 0, 77, 0
2, 552148, Note_on_c, 0, 89, 0
2, 552160, Note_on_c, 0, 61, 0
2, 552182, Note_on_c, 0, 55, 0
2, 552458, Note_on_c, 0, 61, 68
2, 552504, Note_on_c, 0, 90, 71
2, 552513, Note_on_c, 0, 64, 54
2, 552523, Note_on_c, 0, 78, 75
2, 552568, Note_on_c, 0, 84, 57
2, 552602, Note_on_c, 0, 64, 0
2, 552669, Note_on_c, 0, 84, 0
2, 552727, Note_on_c, 0, 78, 0
2, 552775, Note_on_c, 0, 61, 0
2, 552828, Note_on_c, 0, 90, 0
2, 552859, Control_c, 0, 64, 0
2, 552871, Note_on_c, 0, 60, 67
2, 552895, Note_on_c, 0, 58, 49
2, 552909, Note_on_c, 0, 63, 74
2, 552928, Note_on_c, 0, 84, 71
2, 552931, Note_on_c, 0, 87, 57
2, 552945, Note_on_c, 0, 91, 70
2, 552952, Note_on_c, 0, 79, 65
2, 552960, Note_on_c, 0, 53, 48
2, 553029, Note_on_c, 0, 89, 34
2, 553701, Control_c, 0, 64, 127
2, 553927, Note_on_c, 0, 79, 0
2, 553934, Note_on_c, 0, 63, 0
2, 553951, Note_on_c, 0, 91, 0
2, 553999, Note_on_c, 0, 89, 0
2, 554013, Note_on_c, 0, 53, 0
2, 554025, Note_on_c, 0, 60, 0
2, 554064, Note_on_c, 0, 58, 0
2, 554100, Note_on_c, 0, 84, 0
2, 554136, Note_on_c, 0, 87, 0
2, 554352, Control_c, 0, 64, 0
2, 554452, Note_on_c, 0, 92, 71
2, 554455, Note_on_c, 0, 63, 73
2, 554462, Note_on_c, 0, 60, 56
2, 554464, Note_on_c, 0, 84, 71
2, 554469, Note_on_c, 0, 80, 68
2, 554491, Note_on_c, 0, 58, 43
2, 554493, Note_on_c, 0, 53, 54
2, 554498, Note_on_c, 0, 87, 50
2, 554853, Note_on_c, 0, 63, 0
2, 554858, Note_on_c, 0, 53, 0
2, 554863, Note_on_c, 0, 80, 0
2, 554880, Control_c, 0, 64, 127
2, 554908, Note_on_c, 0, 84, 0
2, 554925, Note_on_c, 0, 92, 0
2, 554949, Note_on_c, 0, 60, 0
2, 554952, Note_on_c, 0, 58, 0
2, 554997, Note_on_c, 0, 87, 0
2, 555129, Note_on_c, 0, 63, 60
2, 555132, Note_on_c, 0, 60, 59
2, 555136, Note_on_c, 0, 92, 62
2, 555153, Note_on_c, 0, 80, 69
2, 555163, Note_on_c, 0, 53, 53
2, 555206, Note_on_c, 0, 58, 35
2, 555208, Note_on_c, 0, 84, 55
2, 555232, Note_on_c, 0, 87, 33
2, 555453, Note_on_c, 0, 63, 0
2, 555513, Note_on_c, 0, 84, 0
2, 555520, Note_on_c, 0, 92, 0
2, 555547, Note_on_c, 0, 80, 0
2, 555578, Control_c, 0, 64, 0
2, 555580, Note_on_c, 0, 60, 0
2, 555640, Note_on_c, 0, 58, 0
2, 555660, Note_on_c, 0, 87, 0
2, 555758, Note_on_c, 0, 63, 61
2, 555794, Control_c, 0, 64, 127
2, 555796, Note_on_c, 0, 91, 51
2, 555806, Note_on_c, 0, 60, 36
2, 555820, Note_on_c, 0, 79, 59
2, 555825, Note_on_c, 0, 84, 58
2, 555847, Note_on_c, 0, 87, 30
2, 555888, Note_on_c, 0, 89, 24
2, 555919, Note_on_c, 0, 60, 0
2, 556063, Note_on_c, 0, 79, 0
2, 556123, Note_on_c, 0, 63, 0
2, 556128, Note_on_c, 0, 84, 0
2, 556168, Note_on_c, 0, 91, 0
2, 556176, Note_on_c, 0, 53, 0
2, 556209, Note_on_c, 0, 89, 0
2, 556214, Note_on_c, 0, 87, 0
2, 556372, Control_c, 0, 64, 0
2, 556466, Note_on_c, 0, 56, 64
2, 556468, Note_on_c, 0, 53, 53
2, 556471, Note_on_c, 0, 84, 72
2, 556476, Note_on_c, 0, 62, 75
2, 556478, Note_on_c, 0, 59, 63
2, 556480, Note_on_c, 0, 91, 74
2, 556500, Note_on_c, 0, 79, 55
2, 556545, Note_on_c, 0, 87, 31
2, 556648, Note_on_c, 0, 87, 0
2, 556809, Control_c, 0, 64, 127
2, 556881, Note_on_c, 0, 84, 0
2, 556948, Note_on_c, 0, 79, 0
2, 556980, Control_c, 0, 64, 0
2, 557011, Note_on_c, 0, 62, 0
2, 557028, Note_on_c, 0, 91, 0
2, 557052, Note_on_c, 0, 59, 0
2, 557095, Note_on_c, 0, 53, 0
2, 557109, Note_on_c, 0, 56, 0
2, 557148, Control_c, 0, 64, 127
2, 557220, Control_c, 0, 64, 0
2, 557428, Note_on_c, 0, 56, 71
2, 557433, Note_on_c, 0, 62, 85
2, 557436, Note_on_c, 0, 80, 74
2, 557438, Note_on_c, 0, 59, 72
2, 557443, Note_on_c, 0, 92, 76
2, 557445, Note_on_c, 0, 53, 71
2, 557464, Note_on_c, 0, 86, 69
2, 557832, Control_c, 0, 64, 127
2, 558544, Note_on_c, 0, 86, 0
2, 558564, Note_on_c, 0, 62, 0
2, 558580, Note_on_c, 0, 80, 0
2, 558580, Note_on_c, 0, 53, 0
2, 558580, Control_c, 0, 64, 0
2, 558583, Note_on_c, 0, 92, 0
2, 558614, Note_on_c, 0, 59, 0
2, 558631, Note_on_c, 0, 56, 0
2, 558825, Note_on_c, 0, 92, 59
2, 558840, Note_on_c, 0, 59, 54
2, 558844, Note_on_c, 0, 80, 51
2, 558847, Note_on_c, 0, 56, 51
2, 558849, Note_on_c, 0, 62, 62
2, 558854, Note_on_c, 0, 53, 45
2, 558883, Note_on_c, 0, 86, 60
2, 559111, Note_on_c, 0, 62, 0
2, 559123, Note_on_c, 0, 80, 0
2, 559154, Note_on_c, 0, 53, 0
2, 559164, Note_on_c, 0, 92, 0
2, 559166, Note_on_c, 0, 86, 0
2, 559168, Note_on_c, 0, 59, 0
2, 559178, Note_on_c, 0, 56, 0
2, 559723, Note_on_c, 0, 91, 65
2, 559735, Note_on_c, 0, 86, 64
2, 559742, Note_on_c, 0, 79, 55
2, 559752, Note_on_c, 0, 62, 67
2, 559754, Note_on_c, 0, 59, 53
2, 559764, Note_on_c, 0, 53, 46
2, 559773, Note_on_c, 0, 56, 42
2, 559780, Control_c, 0, 64, 127
2, 559864, Note_on_c, 0, 79, 0
2, 559869, Note_on_c, 0, 53, 0
2, 559920, Note_on_c, 0, 62, 0
2, 559953, Note_on_c, 0, 56, 0
2, 559960, Note_on_c, 0, 59, 0
2, 560001, Note_on_c, 0, 86, 0
2, 560023, Note_on_c, 0, 91, 0
2, 560577, Control_c, 0, 64, 0
2, 560664, Note_on_c, 0, 99, 80
2, 560673, Note_on_c, 0, 87, 82
2, 560678, Note_on_c, 0, 92, 78
2, 560683, Note_on_c, 0, 60, 66
2, 560688, Note_on_c, 0, 56, 74
2, 560697, Note_on_c, 0, 65, 80
2, 560702, Note_on_c, 0, 61, 64
2, 561057, Control_c, 0, 64, 127
2, 561432, Note_on_c, 0, 87, 0
2, 561434, Note_on_c, 0, 56, 0
2, 561446, Note_on_c, 0, 60, 0
2, 561448, Note_on_c, 0, 65, 0
2, 561465, Note_on_c, 0, 99, 0
2, 561477, Note_on_c, 0, 61, 0
2, 561492, Note_on_c, 0, 92, 0
2, 561537, Control_c, 0, 64, 0
2, 561628, Note_on_c, 0, 56, 45
2, 561638, Note_on_c, 0, 65, 63
2, 561648, Note_on_c, 0, 60, 55
2, 561650, Note_on_c, 0, 61, 57
2, 561669, Note_on_c, 0, 92, 53
2, 561672, Note_on_c, 0, 98, 62
2, 561674, Note_on_c, 0, 86, 58
2, 561729, Control_c, 0, 64, 127
2, 561748, Note_on_c, 0, 97, 31
2, 561830, Note_on_c, 0, 97, 0
2, 562027, Note_on_c, 0, 98, 0
2, 562041, Note_on_c, 0, 86, 0
2, 562072, Note_on_c, 0, 56, 0
2, 562118, Note_on_c, 0, 65, 0
2, 562142, Note_on_c, 0, 60, 0
2, 562168, Note_on_c, 0, 61, 0
2, 562188, Note_on_c, 0, 92, 0
2, 562281, Control_c, 0, 64, 0
2, 562353, Note_on_c, 0, 97, 59
2, 562377, Note_on_c, 0, 92, 48
2, 562380, Note_on_c, 0, 56, 59
2, 562382, Note_on_c, 0, 65, 50
2, 562389, Note_on_c, 0, 61, 50
2, 562399, Note_on_c, 0, 60, 29
2, 562416, Note_on_c, 0, 85, 53
2, 562692, Control_c, 0, 64, 127
2, 563776, Note_on_c, 0, 85, 0
2, 563786, Note_on_c, 0, 92, 0
2, 563836, Note_on_c, 0, 56, 0
2, 563839, Note_on_c, 0, 97, 0
2, 563851, Note_on_c, 0, 65, 0
2, 563887, Note_on_c, 0, 60, 0
2, 563911, Note_on_c, 0, 61, 0
2, 564187, Note_on_c, 0, 61, 56
2, 564189, Note_on_c, 0, 56, 65
2, 564194, Note_on_c, 0, 65, 57
2, 564199, Note_on_c, 0, 96, 60
2, 564223, Note_on_c, 0, 91, 66
2, 564228, Note_on_c, 0, 84, 61
2, 564316, Note_on_c, 0, 65, 0
2, 564468, Note_on_c, 0, 96, 0
2, 564496, Note_on_c, 0, 91, 0
2, 564511, Note_on_c, 0, 56, 0
2, 564540, Note_on_c, 0, 61, 0
2, 564556, Note_on_c, 0, 84, 0
2, 564592, Control_c, 0, 64, 0
2, 564760, Note_on_c, 0, 64, 43
2, 564763, Note_on_c, 0, 61, 35
2, 564780, Note_on_c, 0, 95, 46
2, 564782, Note_on_c, 0, 55, 41
2, 564808, Note_on_c, 0, 90, 49
2, 564840, Note_on_c, 0, 83, 35
2, 565190, Note_on_c, 0, 95, 0
2, 565252, Note_on_c, 0, 55, 0
2, 565267, Note_on_c, 0, 83, 0
2, 565281, Note_on_c, 0, 64, 0
2, 565368, Note_on_c, 0, 61, 0
2, 565382, Note_on_c, 0, 90, 0
2, 565536, Control_c, 0, 64, 127
2, 565564, Note_on_c, 0, 61, 42
2, 565569, Note_on_c, 0, 94, 65
2, 565576, Note_on_c, 0, 55, 41
2, 565596, Note_on_c, 0, 82, 56
2, 565608, Note_on_c, 0, 64, 49
2, 565896, Note_on_c, 0, 64, 0
2, 565920, Note_on_c, 0, 55, 0
2, 566061, Note_on_c, 0, 61, 0
2, 566080, Note_on_c, 0, 94, 0
2, 566090, Control_c, 0, 64, 0
2, 566119, Note_on_c, 0, 82, 0
2, 566253, Note_on_c, 0, 61, 34
2, 566263, Note_on_c, 0, 55, 45
2, 566272, Note_on_c, 0, 64, 50
2, 566301, Note_on_c, 0, 88, 51
2, 566308, Note_on_c, 0, 93, 55
2, 566354, Note_on_c, 0, 81, 41
2, 566522, Control_c, 0, 64, 127
2, 566606, Note_on_c, 0, 64, 0
2, 566616, Note_on_c, 0, 55, 0
2, 566664, Note_on_c, 0, 93, 0
2, 566688, Note_on_c, 0, 81, 0
2, 566700, Note_on_c, 0, 88, 0
2, 566719, Note_on_c, 0, 61, 0
2, 567204, Note_on_c, 0, 92, 51
2, 567230, Note_on_c, 0, 61, 53
2, 567232, Note_on_c, 0, 55, 52
2, 567240, Note_on_c, 0, 80, 50
2, 567244, Control_c, 0, 64, 0
2, 567264, Note_on_c, 0, 87, 47
2, 567300, Note_on_c, 0, 64, 40
2, 567412, Note_on_c, 0, 64, 0
2, 567506, Note_on_c, 0, 80, 0
2, 567554, Note_on_c, 0, 92, 0
2, 567580, Note_on_c, 0, 87, 0
2, 567636, Note_on_c, 0, 64, 53
2, 567645, Note_on_c, 0, 91, 64
2, 567681, Note_on_c, 0, 79, 46
2, 567700, Control_c, 0, 64, 127
2, 567916, Note_on_c, 0, 55, 0
2, 567945, Note_on_c, 0, 64, 0
2, 567948, Note_on_c, 0, 91, 0
2, 568015, Note_on_c, 0, 79, 0
2, 568190, Note_on_c, 0, 61, 0
2, 568327, Control_c, 0, 64, 0
2, 568480, Note_on_c, 0, 60, 34
2, 568483, Note_on_c, 0, 63, 55
2, 568512, Note_on_c, 0, 89, 63
2, 568555, Note_on_c, 0, 77, 42
2, 568564, Note_on_c, 0, 53, 37
2, 568689, Note_on_c, 0, 58, 15
2, 569028, Note_on_c, 0, 89, 0
2, 569131, Note_on_c, 0, 77, 0
2, 569308, Note_on_c, 0, 63, 0
2, 569380, Note_on_c, 0, 88, 54
2, 569383, Control_c, 0, 64, 127
2, 569416, Note_on_c, 0, 76, 55
2, 569582, Note_on_c, 0, 53, 0
2, 569656, Note_on_c, 0, 88, 0
2, 569704, Note_on_c, 0, 60, 0
2, 569712, Note_on_c, 0, 58, 0
2, 569757, Note_on_c, 0, 76, 0
2, 569793, Control_c, 0, 64, 0
2, 569961, Note_on_c, 0, 60, 33
2, 569980, Note_on_c, 0, 63, 46
2, 569990, Note_on_c, 0, 75, 59
2, 569995, Note_on_c, 0, 87, 53
2, 570055, Note_on_c, 0, 58, 33
2, 570160, Note_on_c, 0, 63, 0
2, 570216, Note_on_c, 0, 75, 0
2, 570280, Note_on_c, 0, 87, 0
2, 570400, Note_on_c, 0, 60, 0
2, 570408, Note_on_c, 0, 58, 0
2, 570859, Note_on_c, 0, 86, 57
2, 570880, Note_on_c, 0, 60, 40
2, 570883, Note_on_c, 0, 63, 57
2, 570938, Note_on_c, 0, 74, 29
2, 570969, Note_on_c, 0, 53, 22
2, 570976, Note_on_c, 0, 58, 34
2, 571032, Note_on_c, 0, 74, 0
2, 571058, Note_on_c, 0, 86, 0
2, 571310, Control_c, 0, 64, 127
2, 571348, Note_on_c, 0, 85, 34
2, 571356, Note_on_c, 0, 73, 34
2, 571420, Note_on_c, 0, 53, 0
2, 571516, Note_on_c, 0, 60, 0
2, 571768, Note_on_c, 0, 63, 0
2, 571795, Note_on_c, 0, 73, 0
2, 571917, Note_on_c, 0, 85, 0
2, 571932, Note_on_c, 0, 58, 0
2, 572032, Control_c, 0, 64, 0
2, 572181, Note_on_c, 0, 65, 49
2, 572196, Note_on_c, 0, 84, 57
2, 572205, Note_on_c, 0, 61, 37
2, 572227, Note_on_c, 0, 54, 35
2, 572244, Note_on_c, 0, 72, 42
2, 572248, Note_on_c, 0, 58, 25
2, 573163, Control_c, 0, 64, 127
2, 573480, Note_on_c, 0, 65, 0
2, 573487, Note_on_c, 0, 54, 0
2, 573492, Note_on_c, 0, 84, 0
2, 573580, Note_on_c, 0, 72, 0
2, 573772, Note_on_c, 0, 61, 0
2, 573789, Note_on_c, 0, 82, 74
2, 573854, Note_on_c, 0, 64, 57
2, 573876, Note_on_c, 0, 54, 38
2, 573880, Note_on_c, 0, 60, 34
2, 574024, Note_on_c, 0, 58, 0
2, 574173, Control_c, 0, 64, 0
2, 574353, Note_on_c, 0, 82, 0
2, 574356, Note_on_c, 0, 81, 68
2, 574730, Note_on_c, 0, 81, 0
2, 575040, Note_on_c, 0, 78, 55
2, 575376, Note_on_c, 0, 64, 0
2, 575412, Note_on_c, 0, 78, 0
2, 575565, Note_on_c, 0, 60, 0
2, 575608, Note_on_c, 0, 54, 0
2, 575772, Note_on_c, 0, 74, 36
2, 575808, Note_on_c, 0, 72, 22
2, 575880, Note_on_c, 0, 60, 32
2, 575892, Note_on_c, 0, 63, 51
2, 575995, Note_on_c, 0, 53, 20
2, 576060, Note_on_c, 0, 56, 30
2, 576086, Note_on_c, 0, 72, 0
2, 576120, Note_on_c, 0, 74, 0
2, 576244, Note_on_c, 0, 63, 0
2, 576468, Note_on_c, 0, 77, 67
2, 576619, Note_on_c, 0, 60, 0
2, 576868, Note_on_c, 0, 77, 0
2, 577036, Note_on_c, 0, 53, 0
2, 577058, Note_on_c, 0, 73, 52
2, 577200, Note_on_c, 0, 56, 0
2, 577617, Note_on_c, 0, 73, 0
2, 577651, Note_on_c, 0, 61, 48
2, 577677, Note_on_c, 0, 72, 55
2, 577737, Note_on_c, 0, 61, 0
2, 577788, Note_on_c, 0, 56, 34
2, 577898, Note_on_c, 0, 60, 18
2, 577956, Note_on_c, 0, 72, 0
2, 578066, Note_on_c, 0, 60, 0
2, 578198, Note_on_c, 0, 56, 0
2, 578205, Note_on_c, 0, 68, 48
2, 578642, Note_on_c, 0, 60, 37
2, 578692, Note_on_c, 0, 56, 23
2, 578752, Note_on_c, 0, 68, 0
2, 578776, Note_on_c, 0, 56, 0
2, 578863, Note_on_c, 0, 60, 0
2, 578913, Note_on_c, 0, 65, 42
2, 579338, Note_on_c, 0, 65, 0
2, 579583, Note_on_c, 0, 75, 49
2, 579597, Note_on_c, 0, 64, 51
2, 579616, Note_on_c, 0, 63, 60
2, 579652, Note_on_c, 0, 68, 38
2, 579664, Note_on_c, 0, 72, 45
2, 580845, Note_on_c, 0, 63, 0
2, 580860, Note_on_c, 0, 74, 60
2, 580869, Note_on_c, 0, 75, 0
2, 580927, Note_on_c, 0, 62, 50
2, 580980, Note_on_c, 0, 72, 0
2, 581253, Note_on_c, 0, 74, 0
2, 581368, Note_on_c, 0, 64, 0
2, 581428, Note_on_c, 0, 68, 0
2, 581532, Note_on_c, 0, 62, 0
2, 581556, Note_on_c, 0, 73, 33
2, 581601, Note_on_c, 0, 64, 48
2, 581606, Note_on_c, 0, 68, 37
2, 581611, Note_on_c, 0, 61, 46
2, 582619, Note_on_c, 0, 61, 0
2, 582763, Control_c, 0, 64, 127
2, 582904, Control_c, 0, 64, 0
2, 583000, Note_on_c, 0, 68, 0
2, 583027, Control_c, 0, 64, 127
2, 583029, Note_on_c, 0, 64, 0
2, 583039, Note_on_c, 0, 73, 0
2, 583444, Note_on_c, 0, 58, 51
2, 583449, Note_on_c, 0, 55, 38
2, 583596, Note_on_c, 0, 48, 13
2, 583627, Control_c, 0, 64, 0
2, 584241, Note_on_c, 0, 55, 0
2, 584541, Control_c, 0, 64, 127
2, 584618, Note_on_c, 0, 65, 65
2, 584632, Note_on_c, 0, 55, 15
2, 584640, Control_c, 0, 64, 0
2, 584642, Note_on_c, 0, 62, 67
2, 584752, Note_on_c, 0, 58, 0
2, 585132, Note_on_c, 0, 62, 0
2, 585136, Note_on_c, 0, 65, 0
2, 585211, Note_on_c, 0, 63, 45
2, 585283, Note_on_c, 0, 60, 32
2, 585506, Note_on_c, 0, 60, 0
2, 585508, Note_on_c, 0, 63, 0
2, 585667, Note_on_c, 0, 65, 51
2, 585669, Note_on_c, 0, 62, 43
2, 585787, Note_on_c, 0, 55, 0
2, 586075, Note_on_c, 0, 65, 0
2, 586092, Note_on_c, 0, 58, 28
2, 586128, Note_on_c, 0, 62, 0
2, 586200, Note_on_c, 0, 58, 0
2, 586214, Note_on_c, 0, 63, 42
2, 586281, Note_on_c, 0, 60, 39
2, 586356, Note_on_c, 0, 48, 0
2, 586521, Note_on_c, 0, 60, 0
2, 586648, Note_on_c, 0, 63, 0
2, 587179, Note_on_c, 0, 61, 53
2, 587181, Note_on_c, 0, 65, 60
2, 587208, Note_on_c, 0, 41, 40
2, 587212, Note_on_c, 0, 51, 44
2, 588038, Note_on_c, 0, 65, 0
2, 588108, Note_on_c, 0, 61, 0
2, 588129, Note_on_c, 0, 60, 29
2, 588192, Note_on_c, 0, 51, 0
2, 588247, Note_on_c, 0, 48, 31
2, 588280, Note_on_c, 0, 60, 0
2, 588439, Note_on_c, 0, 61, 49
2, 588453, Note_on_c, 0, 65, 58
2, 588540, Note_on_c, 0, 48, 0
2, 589000, Note_on_c, 0, 61, 0
2, 589063, Note_on_c, 0, 65, 0
2, 589142, Note_on_c, 0, 59, 41
2, 589152, Note_on_c, 0, 63, 47
2, 589917, Note_on_c, 0, 59, 0
2, 589941, Note_on_c, 0, 63, 0
2, 590006, Note_on_c, 0, 61, 47
2, 590008, Note_on_c, 0, 65, 59
2, 590042, Note_on_c, 0, 41, 0
2, 590049, Note_on_c, 0, 51, 35
2, 590332, Note_on_c, 0, 65, 0
2, 590419, Note_on_c, 0, 59, 34
2, 590421, Note_on_c, 0, 63, 35
2, 590481, Note_on_c, 0, 51, 0
2, 590748, Note_on_c, 0, 59, 0
2, 590858, Note_on_c, 0, 61, 0
2, 590930, Note_on_c, 0, 63, 0
2, 591043, Note_on_c, 0, 65, 63
2, 591045, Note_on_c, 0, 61, 29
2, 591115, Note_on_c, 0, 56, 43
2, 591134, Note_on_c, 0, 46, 34
2, 591878, Note_on_c, 0, 56, 0
2, 591880, Note_on_c, 0, 61, 0
2, 591924, Note_on_c, 0, 65, 0
2, 592044, Note_on_c, 0, 53, 24
2, 592248, Note_on_c, 0, 53, 0
2, 592286, Control_c, 0, 64, 127
2, 592288, Note_on_c, 0, 65, 61
2, 592291, Note_on_c, 0, 61, 59
2, 592308, Note_on_c, 0, 56, 48
2, 592430, Control_c, 0, 64, 0
2, 592800, Note_on_c, 0, 56, 0
2, 592903, Note_on_c, 0, 61, 0
2, 592963, Note_on_c, 0, 65, 0
2, 592970, Note_on_c, 0, 53, 17
2, 592977, Note_on_c, 0, 63, 59
2, 593032, Note_on_c, 0, 56, 25
2, 593124, Note_on_c, 0, 46, 0
2, 593251, Control_c, 0, 64, 127
2, 593368, Note_on_c, 0, 53, 0
2, 593568, Note_on_c, 0, 56, 0
2, 593748, Note_on_c, 0, 63, 0
2, 593865, Note_on_c, 0, 65, 62
2, 593887, Note_on_c, 0, 46, 33
2, 593896, Note_on_c, 0, 56, 55
2, 593978, Note_on_c, 0, 46, 0
2, 594098, Note_on_c, 0, 56, 0
2, 594177, Note_on_c, 0, 65, 0
2, 594228, Note_on_c, 0, 63, 31
2, 594544, Note_on_c, 0, 63, 0
2, 594847, Note_on_c, 0, 61, 44
2, 594849, Note_on_c, 0, 65, 68
2, 594861, Control_c, 0, 64, 0
2, 594864, Note_on_c, 0, 55, 64
2, 594880, Note_on_c, 0, 59, 73
2, 594916, Note_on_c, 0, 39, 57
2, 595915, Note_on_c, 0, 27, 86
2, 596208, Control_c, 0, 64, 127
2, 596500, Note_on_c, 0, 55, 0
2, 597292, Note_on_c, 0, 39, 0
2, 597592, Note_on_c, 0, 59, 0
2, 597616, Note_on_c, 0, 61, 0
2, 597763, Note_on_c, 0, 65, 0
2, 597890, Note_on_c, 0, 39, 57
2, 597938, Note_on_c, 0, 27, 0
2, 598051, Note_on_c, 0, 39, 0
2, 598156, Control_c, 0, 64, 0
2, 598161, Note_on_c, 0, 61, 52
2, 598180, Note_on_c, 0, 59, 56
2, 598183, Note_on_c, 0, 65, 50
2, 598202, Note_on_c, 0, 55, 35
2, 598279, Control_c, 0, 64, 127
2, 598380, Note_on_c, 0, 65, 0
2, 598514, Note_on_c, 0, 59, 0
2, 598620, Note_on_c, 0, 61, 0
2, 598668, Note_on_c, 0, 55, 0
2, 598903, Control_c, 0, 64, 0
2, 599119, Note_on_c, 0, 63, 69
2, 599124, Note_on_c, 0, 44, 57
2, 599128, Note_on_c, 0, 60, 53
2, 599145, Note_on_c, 0, 58, 67
2, 599148, Note_on_c, 0, 51, 59
2, 599157, Note_on_c, 0, 53, 56
2, 599337, Control_c, 0, 64, 127
2, 599380, Note_on_c, 0, 53, 0
2, 599580, Note_on_c, 0, 60, 0
2, 599608, Note_on_c, 0, 58, 0
2, 599649, Note_on_c, 0, 63, 0
2, 599736, Note_on_c, 0, 44, 0
2, 599803, Note_on_c, 0, 51, 0
2, 600499, Note_on_c, 0, 61, 18
2, 600674, Note_on_c, 0, 61, 0
2, 601082, Note_on_c, 0, 60, 68
2, 601092, Control_c, 0, 64, 0
2, 601094, Note_on_c, 0, 92, 76
2, 601099, Note_on_c, 0, 80, 79
2, 601101, Note_on_c, 0, 87, 79
2, 601104, Note_on_c, 0, 65, 83
2, 601108, Note_on_c, 0, 54, 79
2, 601502, Note_on_c, 0, 80, 0
2, 601579, Note_on_c, 0, 92, 0
2, 601610, Note_on_c, 0, 87, 0
2, 601615, Note_on_c, 0, 54, 0
2, 601620, Note_on_c, 0, 65, 0
2, 601680, Note_on_c, 0, 60, 0
2, 601831, Note_on_c, 0, 54, 61
2, 601833, Note_on_c, 0, 92, 68
2, 601838, Note_on_c, 0, 65, 71
2, 601843, Note_on_c, 0, 80, 71
2, 601845, Note_on_c, 0, 87, 74
2, 601850, Note_on_c, 0, 60, 69
2, 602035, Note_on_c, 0, 65, 0
2, 602083, Note_on_c, 0, 60, 0
2, 602112, Note_on_c, 0, 92, 0
2, 602157, Note_on_c, 0, 80, 0
2, 602198, Note_on_c, 0, 54, 0
2, 602246, Note_on_c, 0, 87, 0
2, 602426, Control_c, 0, 64, 127
2, 602440, Note_on_c, 0, 64, 74
2, 602460, Note_on_c, 0, 59, 61
2, 602479, Note_on_c, 0, 53, 53
2, 602481, Note_on_c, 0, 86, 71
2, 602481, Note_on_c, 0, 91, 69
2, 602517, Note_on_c, 0, 79, 52
2, 602589, Note_on_c, 0, 53, 0
2, 602623, Note_on_c, 0, 64, 0
2, 602659, Note_on_c, 0, 79, 0
2, 602668, Control_c, 0, 64, 0
2, 602671, Note_on_c, 0, 59, 0
2, 602695, Note_on_c, 0, 91, 0
2, 602793, Note_on_c, 0, 86, 0
2, 603139, Note_on_c, 0, 63, 64
2, 603141, Note_on_c, 0, 90, 54
2, 603144, Note_on_c, 0, 58, 51
2, 603153, Note_on_c, 0, 52, 55
2, 603165, Note_on_c, 0, 85, 62
2, 603180, Note_on_c, 0, 78, 43
2, 603295, Note_on_c, 0, 78, 0
2, 603345, Note_on_c, 0, 63, 0
2, 603415, Note_on_c, 0, 52, 0
2, 603427, Note_on_c, 0, 90, 0
2, 603451, Note_on_c, 0, 85, 0
2, 603465, Note_on_c, 0, 58, 0
2, 603856, Note_on_c, 0, 90, 53
2, 603868, Note_on_c, 0, 85, 56
2, 603890, Note_on_c, 0, 78, 38
2, 603892, Note_on_c, 0, 63, 50
2, 603919, Note_on_c, 0, 58, 39
2, 603931, Note_on_c, 0, 52, 38
2, 604039, Note_on_c, 0, 78, 0
2, 604044, Note_on_c, 0, 52, 0
2, 604065, Note_on_c, 0, 63, 0
2, 604092, Note_on_c, 0, 90, 0
2, 604108, Note_on_c, 0, 58, 0
2, 604144, Note_on_c, 0, 85, 0
2, 604574, Note_on_c, 0, 90, 56
2, 604581, Note_on_c, 0, 63, 60
2, 604588, Note_on_c, 0, 85, 56
2, 604600, Note_on_c, 0, 78, 44
2, 604603, Note_on_c, 0, 52, 54
2, 604646, Control_c, 0, 64, 127
2, 604656, Note_on_c, 0, 58, 38
2, 605858, Note_on_c, 0, 78, 0
2, 605868, Note_on_c, 0, 63, 0
2, 605901, Note_on_c, 0, 52, 0
2, 605954, Note_on_c, 0, 90, 0
2, 605997, Note_on_c, 0, 58, 0
2, 606136, Note_on_c, 0, 85, 0
2, 606398, Note_on_c, 0, 91, 40
2, 606405, Note_on_c, 0, 58, 32
2, 606444, Note_on_c, 0, 86, 47
2, 606506, Note_on_c, 0, 58, 0
2, 606508, Note_on_c, 0, 91, 0
2, 606547, Note_on_c, 0, 86, 0
2, 606619, Control_c, 0, 64, 0
2, 606700, Note_on_c, 0, 63, 43
2, 606705, Note_on_c, 0, 60, 35
2, 606780, Note_on_c, 0, 92, 52
2, 606787, Note_on_c, 0, 80, 42
2, 606801, Note_on_c, 0, 87, 46
2, 606823, Note_on_c, 0, 53, 39
2, 607034, Note_on_c, 0, 63, 0
2, 607075, Note_on_c, 0, 92, 0
2, 607092, Note_on_c, 0, 80, 0
2, 607147, Note_on_c, 0, 53, 0
2, 607149, Note_on_c, 0, 87, 0
2, 607166, Note_on_c, 0, 60, 0
2, 607677, Note_on_c, 0, 63, 49
2, 607701, Note_on_c, 0, 60, 28
2, 607711, Note_on_c, 0, 92, 54
2, 607728, Note_on_c, 0, 80, 47
2, 607740, Note_on_c, 0, 87, 51
2, 607795, Note_on_c, 0, 53, 24
2, 607816, Note_on_c, 0, 58, 25
2, 608616, Control_c, 0, 64, 127
2, 608865, Note_on_c, 0, 53, 0
2, 608880, Note_on_c, 0, 60, 0
2, 608882, Note_on_c, 0, 63, 0
2, 608918, Note_on_c, 0, 58, 0
2, 608968, Note_on_c, 0, 92, 0
2, 608971, Note_on_c, 0, 80, 0
2, 609028, Note_on_c, 0, 87, 0
2, 609297, Note_on_c, 0, 63, 63
2, 609362, Note_on_c, 0, 60, 33
2, 609396, Note_on_c, 0, 58, 29
2, 609458, Note_on_c, 0, 60, 0
2, 609554, Note_on_c, 0, 58, 0
2, 609583, Note_on_c, 0, 63, 0
2, 610096, Note_on_c, 0, 61, 20
2, 610224, Note_on_c, 0, 76, 75
2, 610233, Note_on_c, 0, 62, 70
2, 610238, Note_on_c, 0, 65, 82
2, 610240, Note_on_c, 0, 69, 80
2, 610243, Note_on_c, 0, 61, 0
2, 610260, Note_on_c, 0, 72, 68
2, 610281, Note_on_c, 0, 64, 83
2, 610315, Note_on_c, 0, 62, 0
2, 610467, Control_c, 0, 64, 0
2, 611016, Note_on_c, 0, 76, 0
2, 611018, Note_on_c, 0, 64, 0
2, 611025, Note_on_c, 0, 72, 0
2, 611037, Note_on_c, 0, 65, 0
2, 611064, Note_on_c, 0, 69, 0
2, 611109, Note_on_c, 0, 76, 77
2, 611119, Note_on_c, 0, 65, 79
2, 611124, Note_on_c, 0, 69, 63
2, 611124, Note_on_c, 0, 72, 55
2, 611232, Note_on_c, 0, 64, 41
2, 611246, Note_on_c, 0, 72, 0
2, 611373, Note_on_c, 0, 65, 0
2, 611388, Note_on_c, 0, 61, 33
2, 611467, Note_on_c, 0, 61, 0
2, 611469, Note_on_c, 0, 64, 0
2, 611479, Note_on_c, 0, 76, 0
2, 611520, Note_on_c, 0, 74, 53
2, 611536, Note_on_c, 0, 62, 30
2, 611620, Note_on_c, 0, 69, 0
2, 612033, Note_on_c, 0, 74, 0
2, 612105, Note_on_c, 0, 61, 55
2, 612292, Note_on_c, 0, 62, 0
2, 612393, Note_on_c, 0, 75, 57
2, 612396, Note_on_c, 0, 61, 0
2, 612400, Note_on_c, 0, 71, 61
2, 612412, Note_on_c, 0, 67, 54
2, 612420, Note_on_c, 0, 79, 57
2, 612499, Note_on_c, 0, 73, 21
2, 612580, Note_on_c, 0, 73, 0
2, 612909, Note_on_c, 0, 76, 36
2, 612950, Note_on_c, 0, 75, 0
2, 612974, Note_on_c, 0, 67, 0
2, 612984, Note_on_c, 0, 61, 31
2, 613027, Note_on_c, 0, 76, 0
2, 613082, Note_on_c, 0, 79, 0
2, 613084, Note_on_c, 0, 71, 0
2, 613257, Note_on_c, 0, 61, 0
2, 613375, Note_on_c, 0, 77, 32
2, 613380, Note_on_c, 0, 64, 47
2, 613420, Note_on_c, 0, 69, 20
2, 613425, Note_on_c, 0, 72, 36
2, 613444, Note_on_c, 0, 74, 34
2, 613917, Note_on_c, 0, 74, 0
2, 613960, Note_on_c, 0, 77, 0
2, 613982, Note_on_c, 0, 72, 0
2, 614049, Note_on_c, 0, 64, 0
2, 614056, Note_on_c, 0, 69, 0
2, 614109, Note_on_c, 0, 58, 34
2, 614347, Note_on_c, 0, 58, 0
2, 614390, Note_on_c, 0, 76, 49
2, 614402, Note_on_c, 0, 62, 48
2, 614407, Note_on_c, 0, 67, 40
2, 614421, Note_on_c, 0, 71, 46
2, 614455, Note_on_c, 0, 72, 47
2, 614920, Note_on_c, 0, 72, 0
2, 614940, Note_on_c, 0, 76, 0
2, 614947, Note_on_c, 0, 71, 0
2, 615024, Note_on_c, 0, 67, 0
2, 615033, Note_on_c, 0, 62, 0
2, 616017, Note_on_c, 0, 71, 53
2, 616027, Note_on_c, 0, 59, 47
2, 616056, Note_on_c, 0, 64, 42
2, 616164, Note_on_c, 0, 64, 0
2, 616240, Note_on_c, 0, 59, 0
2, 616279, Note_on_c, 0, 71, 0
2, 616358, Note_on_c, 0, 64, 53
2, 616360, Note_on_c, 0, 74, 64
2, 616382, Note_on_c, 0, 62, 59
2, 616396, Note_on_c, 0, 67, 56
2, 616658, Note_on_c, 0, 74, 0
2, 616682, Note_on_c, 0, 64, 0
2, 616689, Note_on_c, 0, 67, 0
2, 616869, Note_on_c, 0, 62, 0
2, 616934, Note_on_c, 0, 61, 54
2, 616965, Note_on_c, 0, 73, 47
2, 617136, Note_on_c, 0, 61, 0
2, 617160, Note_on_c, 0, 73, 0
2, 617220, Note_on_c, 0, 72, 41
2, 617246, Note_on_c, 0, 60, 33
2, 617330, Note_on_c, 0, 72, 0
2, 617397, Note_on_c, 0, 64, 17
2, 617637, Note_on_c, 0, 64, 0
2, 617661, Note_on_c, 0, 60, 0
2, 617968, Note_on_c, 0, 67, 56
2, 617971, Note_on_c, 0, 64, 60
2, 618033, Note_on_c, 0, 60, 25
2, 618153, Note_on_c, 0, 55, 44
2, 618196, Note_on_c, 0, 64, 0
2, 618208, Note_on_c, 0, 67, 0
2, 618254, Note_on_c, 0, 60, 0
2, 618374, Note_on_c, 0, 55, 0
2, 618523, Note_on_c, 0, 59, 37
2, 618525, Note_on_c, 0, 71, 68
2, 618549, Note_on_c, 0, 60, 34
2, 618571, Note_on_c, 0, 64, 58
2, 619000, Note_on_c, 0, 60, 0
2, 619039, Note_on_c, 0, 64, 0
2, 619087, Note_on_c, 0, 71, 0
2, 619159, Note_on_c, 0, 59, 0
2, 619250, Note_on_c, 0, 60, 30
2, 619260, Note_on_c, 0, 56, 49
2, 619279, Note_on_c, 0, 68, 45
2, 619308, Note_on_c, 0, 64, 22
2, 619588, Note_on_c, 0, 64, 0
2, 619663, Note_on_c, 0, 60, 0
2, 619684, Note_on_c, 0, 68, 0
2, 619920, Note_on_c, 0, 60, 33
2, 619929, Note_on_c, 0, 64, 30
2, 619932, Note_on_c, 0, 69, 54
2, 619934, Note_on_c, 0, 56, 0
2, 619972, Note_on_c, 0, 57, 51
2, 620539, Note_on_c, 0, 64, 0
2, 620572, Note_on_c, 0, 60, 0
2, 620762, Note_on_c, 0, 69, 0
2, 620793, Note_on_c, 0, 57, 0
2, 620824, Note_on_c, 0, 64, 55
2, 620844, Note_on_c, 0, 60, 33
2, 620870, Note_on_c, 0, 52, 50
2, 621115, Note_on_c, 0, 64, 0
2, 621165, Note_on_c, 0, 60, 0
2, 621619, Note_on_c, 0, 51, 40
2, 621724, Note_on_c, 0, 65, 55
2, 621729, Note_on_c, 0, 52, 0
2, 621756, Note_on_c, 0, 60, 43
2, 621763, Note_on_c, 0, 57, 60
2, 621777, Note_on_c, 0, 62, 52
2, 621789, Note_on_c, 0, 53, 47
2, 621837, Note_on_c, 0, 51, 0
2, 622644, Note_on_c, 0, 60, 0
2, 622680, Note_on_c, 0, 65, 0
2, 622682, Note_on_c, 0, 62, 0
2, 622701, Note_on_c, 0, 53, 0
2, 622708, Note_on_c, 0, 57, 0
2, 622732, Note_on_c, 0, 52, 41
2, 622996, Note_on_c, 0, 52, 0
2, 623004, Note_on_c, 0, 65, 47
2, 623016, Note_on_c, 0, 57, 49
2, 623044, Note_on_c, 0, 60, 36
2, 623068, Note_on_c, 0, 53, 32
2, 623529, Note_on_c, 0, 65, 0
2, 623661, Note_on_c, 0, 60, 0
2, 623709, Note_on_c, 0, 57, 0
2, 623930, Note_on_c, 0, 53, 0
2, 623959, Note_on_c, 0, 67, 62
2, 623968, Note_on_c, 0, 60, 35
2, 623988, Note_on_c, 0, 57, 51
2, 624016, Note_on_c, 0, 55, 32
2, 624511, Note_on_c, 0, 67, 0
2, 624568, Note_on_c, 0, 55, 0
2, 624631, Note_on_c, 0, 60, 0
2, 624636, Note_on_c, 0, 57, 0
2, 624648, Note_on_c, 0, 53, 33
2, 624904, Note_on_c, 0, 53, 0
2, 624924, Note_on_c, 0, 55, 36
2, 624931, Note_on_c, 0, 67, 49
2, 624933, Note_on_c, 0, 60, 34
2, 624960, Note_on_c, 0, 57, 38
2, 625428, Note_on_c, 0, 57, 0
2, 625468, Note_on_c, 0, 60, 0
2, 625504, Note_on_c, 0, 67, 0
2, 625600, Note_on_c, 0, 55, 0
2, 625624, Note_on_c, 0, 54, 32
2, 625788, Note_on_c, 0, 56, 29
2, 625862, Note_on_c, 0, 65, 51
2, 625874, Note_on_c, 0, 56, 0
2, 625886, Note_on_c, 0, 57, 60
2, 625893, Note_on_c, 0, 54, 0
2, 625898, Note_on_c, 0, 69, 57
2, 625905, Note_on_c, 0, 60, 43
2, 625910, Note_on_c, 0, 62, 39
2, 626484, Note_on_c, 0, 62, 0
2, 626496, Note_on_c, 0, 57, 0
2, 626524, Note_on_c, 0, 60, 0
2, 626548, Note_on_c, 0, 65, 0
2, 626604, Note_on_c, 0, 69, 0
2, 626635, Note_on_c, 0, 56, 37
2, 626841, Control_c, 0, 64, 127
2, 626865, Note_on_c, 0, 56, 0
2, 626875, Note_on_c, 0, 57, 40
2, 626889, Note_on_c, 0, 69, 27
2, 626930, Note_on_c, 0, 60, 38
2, 627024, Note_on_c, 0, 65, 22
2, 627112, Note_on_c, 0, 69, 0
2, 627285, Note_on_c, 0, 60, 0
2, 627324, Note_on_c, 0, 57, 0
2, 627456, Note_on_c, 0, 65, 0
2, 627540, Control_c, 0, 64, 0
2, 627612, Note_on_c, 0, 65, 22
2, 627614, Note_on_c, 0, 59, 66
2, 627621, Note_on_c, 0, 70, 57
2, 627624, Note_on_c, 0, 63, 60
2, 627660, Note_on_c, 0, 58, 49
2, 628425, Note_on_c, 0, 70, 0
2, 628504, Note_on_c, 0, 59, 0
2, 628509, Note_on_c, 0, 58, 0
2, 628564, Note_on_c, 0, 65, 0
2, 628600, Note_on_c, 0, 63, 0
2, 628622, Note_on_c, 0, 56, 37
2, 628836, Note_on_c, 0, 58, 44
2, 628848, Note_on_c, 0, 63, 52
2, 628857, Note_on_c, 0, 70, 52
2, 628872, Note_on_c, 0, 59, 39
2, 628963, Note_on_c, 0, 56, 0
2, 629008, Control_c, 0, 64, 127
2, 629092, Note_on_c, 0, 59, 0
2, 629268, Note_on_c, 0, 70, 0
2, 629280, Note_on_c, 0, 63, 0
2, 629368, Control_c, 0, 64, 0
2, 629486, Note_on_c, 0, 58, 0
2, 629527, Note_on_c, 0, 71, 60
2, 629596, Note_on_c, 0, 70, 40
2, 629613, Note_on_c, 0, 59, 56
2, 629623, Note_on_c, 0, 60, 19
2, 629656, Note_on_c, 0, 64, 36
2, 629661, Note_on_c, 0, 65, 33
2, 629688, Note_on_c, 0, 68, 15
2, 629788, Note_on_c, 0, 65, 0
2, 629913, Note_on_c, 0, 70, 0
2, 630362, Note_on_c, 0, 71, 0
2, 630396, Note_on_c, 0, 68, 0
2, 630417, Note_on_c, 0, 60, 0
2, 630429, Note_on_c, 0, 64, 0
2, 630468, Note_on_c, 0, 59, 0
2, 630523, Note_on_c, 0, 55, 31
2, 630624, Note_on_c, 0, 57, 44
2, 630720, Note_on_c, 0, 55, 0
2, 630765, Note_on_c, 0, 64, 64
2, 630768, Note_on_c, 0, 57, 0
2, 630770, Note_on_c, 0, 71, 60
2, 630777, Note_on_c, 0, 59, 53
2, 630801, Note_on_c, 0, 60, 38
2, 630885, Control_c, 0, 64, 127
2, 630888, Note_on_c, 0, 67, 25
2, 631099, Note_on_c, 0, 67, 0
2, 631260, Note_on_c, 0, 60, 0
2, 631312, Note_on_c, 0, 64, 0
2, 631387, Note_on_c, 0, 71, 0
2, 631413, Control_c, 0, 64, 0
2, 631492, Note_on_c, 0, 60, 52
2, 631524, Note_on_c, 0, 64, 63
2, 631528, Note_on_c, 0, 67, 58
2, 631543, Note_on_c, 0, 55, 49
2, 631567, Note_on_c, 0, 59, 0
2, 631687, Note_on_c, 0, 60, 0
2, 631759, Note_on_c, 0, 64, 0
2, 631766, Note_on_c, 0, 55, 0
2, 631821, Control_c, 0, 64, 127
2, 631838, Note_on_c, 0, 67, 0
2, 632400, Control_c, 0, 64, 0
2, 632421, Note_on_c, 0, 74, 65
2, 632431, Note_on_c, 0, 64, 73
2, 632438, Note_on_c, 0, 67, 64
2, 632450, Note_on_c, 0, 71, 53
2, 632460, Note_on_c, 0, 62, 74
2, 632628, Note_on_c, 0, 64, 0
2, 632661, Note_on_c, 0, 67, 0
2, 632704, Note_on_c, 0, 62, 0
2, 632712, Note_on_c, 0, 71, 0
2, 632731, Note_on_c, 0, 59, 31
2, 632760, Note_on_c, 0, 74, 0
2, 633463, Note_on_c, 0, 58, 50
2, 633566, Note_on_c, 0, 59, 0
2, 633724, Note_on_c, 0, 76, 60
2, 633727, Note_on_c, 0, 69, 57
2, 633729, Note_on_c, 0, 58, 0
2, 633739, Note_on_c, 0, 67, 58
2, 633744, Note_on_c, 0, 72, 44
2, 633772, Note_on_c, 0, 64, 65
2, 634017, Note_on_c, 0, 67, 0
2, 634053, Note_on_c, 0, 69, 0
2, 634120, Note_on_c, 0, 72, 0
2, 634144, Note_on_c, 0, 76, 0
2, 634324, Note_on_c, 0, 64, 0
2, 634329, Note_on_c, 0, 61, 25
2, 634492, Note_on_c, 0, 64, 29
2, 634651, Note_on_c, 0, 64, 0
2, 634675, Note_on_c, 0, 67, 63
2, 634680, Note_on_c, 0, 69, 42
2, 634682, Note_on_c, 0, 72, 50
2, 634687, Note_on_c, 0, 79, 59
2, 634718, Note_on_c, 0, 76, 49
2, 634742, Note_on_c, 0, 61, 0
2, 634879, Note_on_c, 0, 69, 0
2, 634915, Note_on_c, 0, 72, 0
2, 635008, Note_on_c, 0, 76, 0
2, 635016, Note_on_c, 0, 79, 0
2, 635092, Note_on_c, 0, 67, 0
2, 635320, Note_on_c, 0, 71, 58
2, 635330, Note_on_c, 0, 83, 47
2, 635347, Note_on_c, 0, 74, 47
2, 635352, Note_on_c, 0, 81, 37
2, 635359, Note_on_c, 0, 76, 44
2, 635368, Note_on_c, 0, 77, 36
2, 635455, Note_on_c, 0, 74, 0
2, 635510, Note_on_c, 0, 76, 0
2, 635522, Note_on_c, 0, 77, 0
2, 635539, Note_on_c, 0, 71, 0
2, 635572, Note_on_c, 0, 81, 0
2, 635582, Note_on_c, 0, 83, 0
2, 635755, Note_on_c, 0, 74, 79
2, 635760, Note_on_c, 0, 86, 80
2, 635764, Note_on_c, 0, 76, 79
2, 635772, Note_on_c, 0, 79, 69
2, 635836, Note_on_c, 0, 83, 35
2, 635940, Note_on_c, 0, 83, 0
2, 636069, Note_on_c, 0, 76, 0
2, 636074, Note_on_c, 0, 86, 0
2, 636081, Note_on_c, 0, 79, 0
2, 636148, Note_on_c, 0, 74, 0
2, 636304, Note_on_c, 0, 85, 67
2, 636326, Note_on_c, 0, 76, 64
2, 636343, Note_on_c, 0, 79, 57
2, 636350, Note_on_c, 0, 82, 42
2, 636384, Note_on_c, 0, 74, 37
2, 636470, Note_on_c, 0, 82, 0
2, 636496, Note_on_c, 0, 74, 0
2, 636540, Note_on_c, 0, 76, 0
2, 636588, Note_on_c, 0, 85, 0
2, 636679, Note_on_c, 0, 84, 35
2, 636724, Note_on_c, 0, 76, 19
2, 636912, Note_on_c, 0, 79, 0
2, 636919, Note_on_c, 0, 84, 0
2, 637161, Note_on_c, 0, 76, 0
2, 638104, Note_on_c, 0, 84, 77
2, 638124, Note_on_c, 0, 76, 81
2, 638128, Note_on_c, 0, 81, 65
2, 638131, Note_on_c, 0, 78, 64
2, 638152, Note_on_c, 0, 69, 65
2, 638191, Note_on_c, 0, 83, 44
2, 638486, Control_c, 0, 64, 127
2, 638692, Note_on_c, 0, 81, 0
2, 638796, Note_on_c, 0, 84, 0
2, 638822, Note_on_c, 0, 78, 0
2, 638829, Note_on_c, 0, 83, 0
2, 639012, Note_on_c, 0, 76, 0
2, 639134, Control_c, 0, 64, 0
2, 639324, Note_on_c, 0, 83, 62
2, 639345, Note_on_c, 0, 67, 46
2, 639352, Note_on_c, 0, 76, 59
2, 639355, Note_on_c, 0, 69, 0
2, 639369, Note_on_c, 0, 72, 43
2, 639787, Note_on_c, 0, 76, 0
2, 639789, Note_on_c, 0, 72, 0
2, 639816, Note_on_c, 0, 83, 0
2, 640036, Note_on_c, 0, 67, 0
2, 640252, Note_on_c, 0, 81, 60
2, 640267, Note_on_c, 0, 66, 40
2, 640281, Note_on_c, 0, 76, 64
2, 640305, Note_on_c, 0, 72, 50
2, 640315, Control_c, 0, 64, 127
2, 640387, Note_on_c, 0, 66, 0
2, 640572, Note_on_c, 0, 81, 0
2, 640627, Note_on_c, 0, 72, 0
2, 640648, Note_on_c, 0, 76, 0
2, 641083, Control_c, 0, 64, 0
2, 641270, Note_on_c, 0, 76, 59
2, 641284, Note_on_c, 0, 79, 61
2, 641330, Note_on_c, 0, 71, 29
2, 641349, Note_on_c, 0, 57, 41
2, 642230, Note_on_c, 0, 47, 41
2, 642237, Control_c, 0, 64, 127
2, 642254, Note_on_c, 0, 79, 0
2, 642295, Note_on_c, 0, 76, 0
2, 642386, Note_on_c, 0, 71, 0
2, 642439, Note_on_c, 0, 57, 0
2, 642672, Control_c, 0, 64, 0
2, 642921, Note_on_c, 0, 75, 62
2, 642924, Note_on_c, 0, 78, 54
2, 642948, Note_on_c, 0, 69, 53
2, 642984, Note_on_c, 0, 57, 52
2, 643128, Control_c, 0, 64, 127
2, 643226, Note_on_c, 0, 47, 0
2, 643862, Note_on_c, 0, 47, 72
2, 644066, Note_on_c, 0, 47, 0
2, 644109, Note_on_c, 0, 57, 0
2, 644373, Note_on_c, 0, 69, 0
2, 644829, Note_on_c, 0, 78, 0
2, 644841, Note_on_c, 0, 75, 0
2, 645052, Control_c, 0, 64, 0
2, 645182, Note_on_c, 0, 79, 55
2, 645187, Note_on_c, 0, 67, 47
2, 645189, Note_on_c, 0, 62, 40
2, 645192, Note_on_c, 0, 74, 50
2, 645194, Note_on_c, 0, 52, 31
2, 645201, Note_on_c, 0, 55, 33
2, 645218, Note_on_c, 0, 59, 34
2, 646183, Control_c, 0, 64, 127
2, 646192, Note_on_c, 0, 67, 0
2, 646228, Note_on_c, 0, 52, 0
2, 646245, Note_on_c, 0, 55, 0
2, 646288, Note_on_c, 0, 62, 0
2, 646329, Note_on_c, 0, 59, 0
2, 646368, Note_on_c, 0, 74, 0
2, 646497, Note_on_c, 0, 79, 0
2, 647085, Note_on_c, 0, 94, 74
2, 647107, Note_on_c, 0, 82, 81
2, 647114, Note_on_c, 0, 59, 54
2, 647116, Note_on_c, 0, 52, 55
2, 647121, Note_on_c, 0, 87, 69
2, 647124, Note_on_c, 0, 62, 79
2, 647140, Note_on_c, 0, 55, 42
2, 647198, Note_on_c, 0, 87, 0
2, 647582, Note_on_c, 0, 52, 0
2, 647584, Note_on_c, 0, 62, 0
2, 647628, Note_on_c, 0, 55, 0
2, 647632, Note_on_c, 0, 82, 0
2, 647642, Note_on_c, 0, 59, 0
2, 647728, Control_c, 0, 64, 0
2, 647757, Note_on_c, 0, 94, 0
2, 647767, Note_on_c, 0, 95, 72
2, 647788, Note_on_c, 0, 83, 47
2, 647793, Note_on_c, 0, 52, 40
2, 647798, Note_on_c, 0, 62, 62
2, 647817, Note_on_c, 0, 88, 49
2, 647829, Note_on_c, 0, 59, 47
2, 647836, Note_on_c, 0, 55, 56
2, 647983, Note_on_c, 0, 95, 0
2, 647988, Note_on_c, 0, 62, 0
2, 648009, Note_on_c, 0, 88, 0
2, 648024, Note_on_c, 0, 52, 0
2, 648031, Note_on_c, 0, 83, 0
2, 648069, Note_on_c, 0, 59, 0
2, 648079, Note_on_c, 0, 55, 0
2, 648648, Note_on_c, 0, 90, 50
2, 648698, Note_on_c, 0, 78, 46
2, 648717, Note_on_c, 0, 62, 66
2, 648722, Note_on_c, 0, 59, 45
2, 648739, Note_on_c, 0, 55, 42
2, 648744, Note_on_c, 0, 52, 38
2, 648856, Note_on_c, 0, 78, 0
2, 648868, Note_on_c, 0, 90, 0
2, 648871, Note_on_c, 0, 52, 0
2, 648897, Note_on_c, 0, 62, 0
2, 648912, Note_on_c, 0, 91, 24
2, 648940, Note_on_c, 0, 89, 29
2, 648974, Note_on_c, 0, 59, 0
2, 648996, Note_on_c, 0, 91, 0
2, 649039, Note_on_c, 0, 89, 0
2, 649044, Note_on_c, 0, 55, 0
2, 649615, Note_on_c, 0, 87, 61
2, 649634, Note_on_c, 0, 75, 55
2, 649694, Note_on_c, 0, 62, 56
2, 649696, Note_on_c, 0, 52, 40
2, 649713, Note_on_c, 0, 55, 36
2, 649716, Note_on_c, 0, 59, 30
2, 649809, Note_on_c, 0, 88, 46
2, 649814, Note_on_c, 0, 75, 0
2, 649824, Control_c, 0, 64, 127
2, 649838, Note_on_c, 0, 87, 0
2, 649864, Note_on_c, 0, 76, 38
2, 649896, Control_c, 0, 64, 0
2, 649929, Note_on_c, 0, 88, 0
2, 650095, Note_on_c, 0, 76, 0
2, 650198, Note_on_c, 0, 52, 0
2, 650239, Note_on_c, 0, 62, 0
2, 650280, Note_on_c, 0, 59, 0
2, 650292, Note_on_c, 0, 55, 0
2, 650560, Note_on_c, 0, 82, 50
2, 650611, Note_on_c, 0, 70, 40
2, 650628, Note_on_c, 0, 75, 30
2, 650671, Note_on_c, 0, 62, 51
2, 650673, Note_on_c, 0, 52, 35
2, 650702, Note_on_c, 0, 55, 38
2, 650721, Note_on_c, 0, 75, 0
2, 650733, Note_on_c, 0, 59, 33
2, 650846, Note_on_c, 0, 70, 0
2, 650887, Note_on_c, 0, 76, 32
2, 650952, Note_on_c, 0, 82, 0
2, 651062, Note_on_c, 0, 76, 0
2, 651117, Note_on_c, 0, 62, 0
2, 651124, Note_on_c, 0, 52, 0
2, 651132, Note_on_c, 0, 55, 0
2, 651146, Note_on_c, 0, 59, 0
2, 651576, Note_on_c, 0, 78, 40
2, 651585, Note_on_c, 0, 67, 44
2, 651597, Note_on_c, 0, 52, 40
2, 651600, Note_on_c, 0, 62, 57
2, 651607, Note_on_c, 0, 79, 50
2, 651619, Note_on_c, 0, 55, 34
2, 651621, Note_on_c, 0, 59, 37
2, 651775, Note_on_c, 0, 78, 0
2, 651784, Note_on_c, 0, 67, 0
2, 651847, Note_on_c, 0, 79, 0
2, 652128, Note_on_c, 0, 52, 0
2, 652236, Note_on_c, 0, 59, 0
2, 652291, Note_on_c, 0, 55, 0
2, 652567, Note_on_c, 0, 62, 0
2, 652848, Note_on_c, 0, 55, 44
2, 652860, Note_on_c, 0, 61, 54
2, 652876, Control_c, 0, 64, 127
2, 652898, Note_on_c, 0, 73, 34
2, 652908, Note_on_c, 0, 67, 46
2, 652917, Note_on_c, 0, 76, 35
2, 652922, Note_on_c, 0, 79, 42
2, 652924, Control_c, 0, 64, 0
2, 653791, Control_c, 0, 64, 127
2, 653920, Note_on_c, 0, 67, 0
2, 654100, Note_on_c, 0, 73, 0
2, 654115, Note_on_c, 0, 61, 0
2, 654122, Note_on_c, 0, 55, 0
2, 654170, Note_on_c, 0, 76, 0
2, 654225, Note_on_c, 0, 79, 0
2, 655329, Control_c, 0, 64, 0
2, 655365, Note_on_c, 0, 61, 36
2, 655382, Note_on_c, 0, 66, 64
2, 655384, Note_on_c, 0, 55, 57
2, 655408, Note_on_c, 0, 91, 71
2, 655428, Note_on_c, 0, 79, 53
2, 655447, Note_on_c, 0, 86, 46
2, 655473, Note_on_c, 0, 55, 0
2, 655488, Note_on_c, 0, 66, 0
2, 655521, Note_on_c, 0, 79, 0
2, 655543, Note_on_c, 0, 91, 0
2, 655550, Note_on_c, 0, 86, 0
2, 655596, Note_on_c, 0, 61, 0
2, 656028, Note_on_c, 0, 66, 74
2, 656030, Note_on_c, 0, 61, 60
2, 656049, Note_on_c, 0, 91, 74
2, 656052, Note_on_c, 0, 55, 58
2, 656066, Note_on_c, 0, 79, 68
2, 656073, Note_on_c, 0, 86, 68
2, 656152, Note_on_c, 0, 55, 0
2, 656160, Note_on_c, 0, 86, 0
2, 656167, Note_on_c, 0, 79, 0
2, 656193, Note_on_c, 0, 66, 0
2, 656251, Note_on_c, 0, 61, 0
2, 656253, Note_on_c, 0, 91, 0
2, 656738, Note_on_c, 0, 66, 78
2, 656740, Note_on_c, 0, 61, 67
2, 656748, Note_on_c, 0, 91, 77
2, 656750, Note_on_c, 0, 55, 71
2, 656757, Control_c, 0, 64, 127
2, 656767, Note_on_c, 0, 86, 76
2, 656774, Note_on_c, 0, 79, 74
2, 657074, Note_on_c, 0, 91, 0
2, 657112, Note_on_c, 0, 86, 0
2, 657139, Note_on_c, 0, 79, 0
2, 657211, Note_on_c, 0, 55, 0
2, 657232, Note_on_c, 0, 66, 0
2, 657304, Note_on_c, 0, 61, 0
2, 657357, Control_c, 0, 64, 0
2, 657436, Note_on_c, 0, 88, 49
2, 657458, Note_on_c, 0, 83, 49
2, 657460, Note_on_c, 0, 66, 57
2, 657475, Note_on_c, 0, 76, 35
2, 657477, Note_on_c, 0, 61, 62
2, 657535, Note_on_c, 0, 55, 29
2, 657568, Note_on_c, 0, 83, 0
2, 657592, Note_on_c, 0, 76, 0
2, 657614, Note_on_c, 0, 66, 0
2, 657619, Note_on_c, 0, 88, 0
2, 657636, Note_on_c, 0, 55, 0
2, 657681, Note_on_c, 0, 61, 0
2, 658123, Note_on_c, 0, 66, 76
2, 658130, Note_on_c, 0, 61, 67
2, 658142, Note_on_c, 0, 88, 61
2, 658147, Note_on_c, 0, 55, 63
2, 658149, Note_on_c, 0, 83, 66
2, 658168, Note_on_c, 0, 76, 60
2, 658228, Note_on_c, 0, 55, 0
2, 658240, Note_on_c, 0, 83, 0
2, 658257, Note_on_c, 0, 76, 0
2, 658286, Note_on_c, 0, 66, 0
2, 658288, Note_on_c, 0, 88, 0
2, 658353, Note_on_c, 0, 61, 0
2, 658519, Control_c, 0, 64, 127
2, 658737, Note_on_c, 0, 61, 52
2, 658744, Note_on_c, 0, 55, 50
2, 658747, Note_on_c, 0, 66, 59
2, 658768, Note_on_c, 0, 88, 64
2, 658778, Note_on_c, 0, 83, 66
2, 658783, Note_on_c, 0, 76, 62
2, 658999, Note_on_c, 0, 66, 0
2, 659020, Note_on_c, 0, 88, 0
2, 659025, Note_on_c, 0, 83, 0
2, 659025, Note_on_c, 0, 76, 0
2, 659028, Note_on_c, 0, 55, 0
2, 659143, Note_on_c, 0, 61, 0
2, 659385, Note_on_c, 0, 61, 51
2, 659388, Note_on_c, 0, 88, 56
2, 659392, Note_on_c, 0, 76, 62
2, 659400, Note_on_c, 0, 83, 64
2, 659412, Note_on_c, 0, 55, 60
2, 659421, Note_on_c, 0, 66, 51
2, 659553, Note_on_c, 0, 66, 0
2, 659625, Note_on_c, 0, 76, 0
2, 659644, Note_on_c, 0, 88, 0
2, 659656, Note_on_c, 0, 83, 0
2, 659680, Note_on_c, 0, 55, 0
2, 659726, Note_on_c, 0, 61, 0
2, 659930, Note_on_c, 0, 66, 48
2, 659932, Note_on_c, 0, 61, 50
2, 659942, Note_on_c, 0, 55, 45
2, 659978, Note_on_c, 0, 88, 56
2, 659992, Note_on_c, 0, 76, 55
2, 660038, Note_on_c, 0, 83, 34
2, 660112, Note_on_c, 0, 55, 0
2, 660160, Note_on_c, 0, 66, 0
2, 660170, Note_on_c, 0, 83, 0
2, 660194, Note_on_c, 0, 88, 0
2, 660225, Note_on_c, 0, 76, 0
2, 660355, Note_on_c, 0, 61, 0
2, 660420, Control_c, 0, 64, 0
2, 660468, Note_on_c, 0, 54, 67
2, 660492, Note_on_c, 0, 60, 44
2, 660501, Note_on_c, 0, 64, 60
2, 660504, Note_on_c, 0, 88, 59
2, 660508, Note_on_c, 0, 84, 53
2, 660518, Note_on_c, 0, 76, 55
2, 660583, Note_on_c, 0, 81, 46
2, 661236, Control_c, 0, 64, 127
2, 661977, Note_on_c, 0, 54, 0
2, 662044, Note_on_c, 0, 88, 0
2, 662097, Note_on_c, 0, 64, 0
2, 662107, Note_on_c, 0, 76, 0
2, 662164, Note_on_c, 0, 60, 0
2, 662246, Control_c, 0, 64, 0
2, 662248, Note_on_c, 0, 84, 0
2, 662263, Note_on_c, 0, 81, 0
2, 662474, Note_on_c, 0, 86, 33
2, 662496, Note_on_c, 0, 64, 43
2, 662500, Note_on_c, 0, 54, 40
2, 662534, Control_c, 0, 64, 127
2, 662536, Note_on_c, 0, 81, 36
2, 662546, Note_on_c, 0, 60, 30
2, 662560, Note_on_c, 0, 74, 51
2, 662844, Note_on_c, 0, 74, 0
2, 662865, Note_on_c, 0, 64, 0
2, 662872, Note_on_c, 0, 86, 0
2, 662896, Note_on_c, 0, 54, 0
2, 662899, Note_on_c, 0, 81, 0
2, 662923, Note_on_c, 0, 60, 0
2, 663120, Note_on_c, 0, 86, 48
2, 663129, Note_on_c, 0, 54, 39
2, 663136, Note_on_c, 0, 64, 53
2, 663146, Note_on_c, 0, 74, 40
2, 663148, Note_on_c, 0, 60, 41
2, 663151, Note_on_c, 0, 81, 43
2, 663230, Control_c, 0, 64, 0
2, 663290, Note_on_c, 0, 74, 0
2, 663300, Note_on_c, 0, 60, 0
2, 663309, Note_on_c, 0, 81, 0
2, 663314, Note_on_c, 0, 64, 0
2, 663331, Note_on_c, 0, 86, 0
2, 663352, Note_on_c, 0, 54, 0
2, 663456, Note_on_c, 0, 54, 30
2, 663470, Note_on_c, 0, 86, 22
2, 663477, Note_on_c, 0, 64, 36
2, 663516, Note_on_c, 0, 60, 40
2, 663523, Control_c, 0, 64, 127
2, 663525, Note_on_c, 0, 74, 35
2, 663525, Note_on_c, 0, 81, 45
2, 663830, Note_on_c, 0, 74, 0
2, 663864, Note_on_c, 0, 81, 0
2, 663866, Note_on_c, 0, 54, 0
2, 663873, Note_on_c, 0, 86, 0
2, 663914, Note_on_c, 0, 64, 0
2, 663931, Control_c, 0, 64, 0
2, 663960, Note_on_c, 0, 60, 0
2, 664094, Note_on_c, 0, 86, 62
2, 664101, Note_on_c, 0, 54, 51
2, 664113, Note_on_c, 0, 81, 58
2, 664120, Note_on_c, 0, 64, 62
2, 664132, Note_on_c, 0, 74, 47
2, 664142, Note_on_c, 0, 60, 50
2, 664264, Note_on_c, 0, 74, 0
2, 664327, Note_on_c, 0, 64, 0
2, 664336, Note_on_c, 0, 81, 0
2, 664348, Note_on_c, 0, 86, 0
2, 664360, Note_on_c, 0, 60, 0
2, 664404, Note_on_c, 0, 54, 0
2, 665040, Note_on_c, 0, 86, 67
2, 665044, Note_on_c, 0, 54, 76
2, 665049, Note_on_c, 0, 64, 79
2, 665056, Note_on_c, 0, 81, 66
2, 665059, Note_on_c, 0, 74, 74
2, 665061, Note_on_c, 0, 60, 60
2, 665224, Note_on_c, 0, 74, 0
2, 665299, Note_on_c, 0, 81, 0
2, 665304, Note_on_c, 0, 86, 0
2, 665426, Control_c, 0, 64, 127
2, 665452, Note_on_c, 0, 86, 30
2, 665469, Note_on_c, 0, 81, 48
2, 665476, Note_on_c, 0, 74, 40
2, 665872, Note_on_c, 0, 74, 0
2, 665916, Note_on_c, 0, 81, 0
2, 665966, Note_on_c, 0, 64, 0
2, 665992, Note_on_c, 0, 86, 0
2, 666009, Note_on_c, 0, 54, 0
2, 666043, Note_on_c, 0, 60, 0
2, 666124, Control_c, 0, 64, 0
2, 666264, Note_on_c, 0, 54, 56
2, 666268, Note_on_c, 0, 86, 53
2, 666271, Note_on_c, 0, 60, 49
2, 666292, Note_on_c, 0, 64, 59
2, 666309, Note_on_c, 0, 81, 61
2, 666324, Note_on_c, 0, 74, 53
2, 666547, Note_on_c, 0, 74, 0
2, 666568, Note_on_c, 0, 64, 0
2, 666604, Note_on_c, 0, 81, 0
2, 666621, Note_on_c, 0, 86, 0
2, 666624, Note_on_c, 0, 54, 0
2, 666688, Note_on_c, 0, 60, 0
2, 666883, Note_on_c, 0, 86, 55
2, 666907, Note_on_c, 0, 60, 54
2, 666912, Note_on_c, 0, 74, 47
2, 666924, Note_on_c, 0, 81, 57
2, 666931, Note_on_c, 0, 64, 60
2, 666952, Note_on_c, 0, 54, 52
2, 667022, Note_on_c, 0, 64, 0
2, 667087, Note_on_c, 0, 74, 0
2, 667089, Note_on_c, 0, 86, 0
2, 667130, Note_on_c, 0, 81, 0
2, 667231, Control_c, 0, 64, 127
2, 667272, Note_on_c, 0, 64, 37
2, 667279, Note_on_c, 0, 86, 25
2, 667293, Note_on_c, 0, 74, 29
2, 667300, Note_on_c, 0, 81, 25
2, 667411, Note_on_c, 0, 74, 0
2, 667432, Note_on_c, 0, 81, 0
2, 667476, Note_on_c, 0, 60, 0
2, 667500, Note_on_c, 0, 64, 0
2, 667514, Note_on_c, 0, 86, 0
2, 667641, Control_c, 0, 64, 0
2, 667644, Note_on_c, 0, 54, 0
2, 667872, Note_on_c, 0, 64, 69
2, 667879, Note_on_c, 0, 59, 58
2, 667881, Note_on_c, 0, 88, 71
2, 667898, Note_on_c, 0, 83, 67
2, 667900, Note_on_c, 0, 76, 71
2, 667905, Note_on_c, 0, 53, 57
2, 668032, Control_c, 0, 64, 127
2, 668227, Note_on_c, 0, 76, 0
2, 668299, Note_on_c, 0, 83, 0
2, 668364, Note_on_c, 0, 88, 0
2, 668366, Note_on_c, 0, 64, 0
2, 668380, Note_on_c, 0, 53, 0
2, 668404, Note_on_c, 0, 59, 0
2, 668632, Control_c, 0, 64, 0
2, 668719, Note_on_c, 0, 91, 80
2, 668721, Note_on_c, 0, 86, 74
2, 668731, Note_on_c, 0, 79, 70
2, 668760, Note_on_c, 0, 64, 80
2, 668769, Note_on_c, 0, 59, 64
2, 668772, Note_on_c, 0, 53, 74
2, 669040, Control_c, 0, 64, 127
2, 669460, Note_on_c, 0, 79, 0
2, 669523, Note_on_c, 0, 86, 0
2, 669535, Note_on_c, 0, 91, 0
2, 669619, Note_on_c, 0, 53, 0
2, 669631, Note_on_c, 0, 59, 0
2, 669640, Note_on_c, 0, 64, 0
2, 670056, Note_on_c, 0, 64, 71
2, 670080, Note_on_c, 0, 91, 82
2, 670084, Note_on_c, 0, 53, 56
2, 670089, Note_on_c, 0, 59, 53
2, 670094, Note_on_c, 0, 86, 80
2, 670096, Note_on_c, 0, 79, 79
2, 670250, Note_on_c, 0, 64, 0
2, 670303, Note_on_c, 0, 59, 0
2, 670406, Note_on_c, 0, 53, 0
2, 671056, Note_on_c, 0, 91, 0
2, 671164, Note_on_c, 0, 79, 0
2, 671172, Note_on_c, 0, 86, 0
2, 671709, Note_on_c, 0, 39, 94
2, 671728, Note_on_c, 0, 27, 90
2, 671786, Control_c, 0, 64, 0
2, 672482, Control_c, 0, 64, 127
2, 672900, Note_on_c, 0, 27, 0
2, 673000, Note_on_c, 0, 39, 0
2, 673686, Note_on_c, 0, 51, 33
2, 673779, Note_on_c, 0, 54, 33
2, 673902, Note_on_c, 0, 54, 0
2, 673929, Note_on_c, 0, 60, 42
2, 673934, Note_on_c, 0, 67, 55
2, 673943, Note_on_c, 0, 56, 47
2, 673996, Control_c, 0, 64, 0
2, 674006, Note_on_c, 0, 51, 0
2, 674348, Note_on_c, 0, 56, 0
2, 674407, Note_on_c, 0, 60, 0
2, 674511, Note_on_c, 0, 67, 0
2, 674635, Note_on_c, 0, 51, 34
2, 674700, Note_on_c, 0, 54, 33
2, 674872, Note_on_c, 0, 56, 56
2, 674883, Note_on_c, 0, 54, 0
2, 674888, Note_on_c, 0, 60, 40
2, 674893, Note_on_c, 0, 67, 44
2, 674895, Note_on_c, 0, 55, 46
2, 674916, Note_on_c, 0, 51, 0
2, 674925, Note_on_c, 0, 63, 43
2, 675196, Note_on_c, 0, 56, 0
2, 675287, Note_on_c, 0, 60, 0
2, 675372, Note_on_c, 0, 63, 0
2, 675397, Note_on_c, 0, 55, 0
2, 675416, Note_on_c, 0, 67, 0
2, 675863, Note_on_c, 0, 56, 49
2, 675865, Note_on_c, 0, 67, 47
2, 675870, Note_on_c, 0, 44, 35
2, 675872, Note_on_c, 0, 60, 37
2, 675881, Note_on_c, 0, 55, 36
2, 675882, Note_on_c, 0, 63, 46
2, 676769, Note_on_c, 0, 44, 0
2, 676813, Control_c, 0, 64, 127
2, 676843, Note_on_c, 0, 56, 0
2, 676893, Note_on_c, 0, 60, 0
2, 677009, Note_on_c, 0, 67, 0
2, 677056, Note_on_c, 0, 63, 0
2, 677104, Note_on_c, 0, 55, 0
2, 677350, Note_on_c, 0, 51, 21
2, 677396, Control_c, 0, 64, 0
2, 677468, Note_on_c, 0, 68, 58
2, 677475, Note_on_c, 0, 60, 56
2, 677486, Note_on_c, 0, 63, 57
2, 677503, Note_on_c, 0, 65, 60
2, 677509, Note_on_c, 0, 51, 0
2, 677530, Note_on_c, 0, 53, 50
2, 677822, Note_on_c, 0, 53, 0
2, 677845, Note_on_c, 0, 60, 0
2, 677869, Note_on_c, 0, 68, 0
2, 677871, Note_on_c, 0, 63, 0
2, 677913, Note_on_c, 0, 65, 0
2, 678044, Note_on_c, 0, 68, 39
2, 678063, Note_on_c, 0, 63, 48
2, 678072, Note_on_c, 0, 60, 38
2, 678096, Note_on_c, 0, 65, 52
2, 678098, Note_on_c, 0, 53, 36
2, 678357, Note_on_c, 0, 65, 0
2, 678429, Note_on_c, 0, 68, 0
2, 678455, Note_on_c, 0, 60, 0
2, 678477, Note_on_c, 0, 63, 0
2, 678623, Note_on_c, 0, 53, 0
2, 678709, Note_on_c, 0, 52, 51
2, 678719, Note_on_c, 0, 63, 53
2, 678721, Note_on_c, 0, 60, 48
2, 678728, Note_on_c, 0, 67, 65
2, 678737, Control_c, 0, 64, 127
2, 678867, Note_on_c, 0, 52, 0
2, 679017, Note_on_c, 0, 60, 0
2, 679165, Note_on_c, 0, 67, 0
2, 679262, Note_on_c, 0, 63, 0
2, 679531, Control_c, 0, 64, 0
2, 679689, Note_on_c, 0, 67, 57
2, 679705, Note_on_c, 0, 59, 53
2, 679709, Note_on_c, 0, 56, 62
2, 679721, Note_on_c, 0, 47, 46
2, 679728, Note_on_c, 0, 62, 60
2, 680606, Control_c, 0, 64, 127
2, 680738, Note_on_c, 0, 56, 0
2, 680745, Note_on_c, 0, 67, 0
2, 680881, Note_on_c, 0, 59, 0
2, 680946, Note_on_c, 0, 62, 0
2, 681187, Control_c, 0, 64, 0
2, 681229, Note_on_c, 0, 68, 53
2, 681233, Note_on_c, 0, 62, 69
2, 681235, Note_on_c, 0, 65, 61
2, 681238, Note_on_c, 0, 56, 64
2, 681249, Note_on_c, 0, 59, 68
2, 681528, Note_on_c, 0, 56, 0
2, 681574, Note_on_c, 0, 68, 0
2, 681594, Note_on_c, 0, 59, 0
2, 681627, Note_on_c, 0, 62, 0
2, 681734, Note_on_c, 0, 65, 0
2, 681787, Note_on_c, 0, 56, 46
2, 681815, Note_on_c, 0, 68, 54
2, 681842, Note_on_c, 0, 65, 32
2, 681847, Note_on_c, 0, 59, 49
2, 681851, Note_on_c, 0, 62, 59
2, 682104, Note_on_c, 0, 59, 0
2, 682213, Note_on_c, 0, 56, 0
2, 682217, Note_on_c, 0, 65, 0
2, 682236, Note_on_c, 0, 68, 0
2, 682250, Note_on_c, 0, 62, 0
2, 682306, Note_on_c, 0, 59, 46
2, 682347, Note_on_c, 0, 67, 56
2, 682352, Control_c, 0, 64, 127
2, 682375, Note_on_c, 0, 53, 42
2, 682382, Note_on_c, 0, 47, 0
2, 682417, Note_on_c, 0, 59, 0
2, 682514, Note_on_c, 0, 67, 0
2, 682794, Control_c, 0, 64, 0
2, 682928, Note_on_c, 0, 53, 0
2, 683141, Note_on_c, 0, 73, 51
2, 683148, Note_on_c, 0, 65, 62
2, 683155, Note_on_c, 0, 61, 56
2, 683190, Note_on_c, 0, 46, 46
2, 683192, Note_on_c, 0, 56, 46
2, 683394, Control_c, 0, 64, 127
2, 683412, Note_on_c, 0, 61, 0
2, 683417, Note_on_c, 0, 46, 0
2, 683452, Note_on_c, 0, 65, 0
2, 683459, Note_on_c, 0, 56, 0
2, 683581, Note_on_c, 0, 73, 0
2, 684130, Note_on_c, 0, 84, 62
2, 684156, Note_on_c, 0, 61, 46
2, 684160, Note_on_c, 0, 72, 62
2, 684163, Note_on_c, 0, 65, 60
2, 684163, Note_on_c, 0, 60, 38
2, 684205, Control_c, 0, 64, 0
2, 684218, Note_on_c, 0, 83, 30
2, 684487, Control_c, 0, 64, 127
2, 684945, Note_on_c, 0, 60, 0
2, 685003, Note_on_c, 0, 65, 0
2, 685036, Note_on_c, 0, 84, 0
2, 685041, Note_on_c, 0, 72, 0
2, 685066, Note_on_c, 0, 83, 0
2, 685147, Note_on_c, 0, 61, 0
2, 685404, Control_c, 0, 64, 0
2, 685413, Note_on_c, 0, 65, 45
2, 685436, Note_on_c, 0, 61, 29
2, 685439, Note_on_c, 0, 85, 53
2, 685443, Note_on_c, 0, 57, 44
2, 685469, Note_on_c, 0, 73, 33
2, 685481, Note_on_c, 0, 80, 42
2, 685675, Note_on_c, 0, 65, 0
2, 685677, Note_on_c, 0, 73, 0
2, 685680, Note_on_c, 0, 57, 0
2, 685754, Note_on_c, 0, 80, 0
2, 685767, Note_on_c, 0, 61, 0
2, 685811, Note_on_c, 0, 85, 0
2, 686391, Note_on_c, 0, 61, 35
2, 686400, Note_on_c, 0, 65, 40
2, 686418, Note_on_c, 0, 57, 42
2, 686419, Note_on_c, 0, 87, 51
2, 686423, Note_on_c, 0, 75, 42
2, 686446, Note_on_c, 0, 82, 37
2, 686617, Note_on_c, 0, 87, 0
2, 686657, Note_on_c, 0, 75, 0
2, 686675, Note_on_c, 0, 82, 0
2, 686691, Note_on_c, 0, 65, 0
2, 686735, Note_on_c, 0, 57, 0
2, 686736, Note_on_c, 0, 61, 0
2, 687368, Note_on_c, 0, 82, 48
2, 687414, Note_on_c, 0, 61, 31
2, 687421, Note_on_c, 0, 65, 40
2, 687442, Note_on_c, 0, 70, 36
2, 687449, Note_on_c, 0, 55, 32
2, 688315, Note_on_c, 0, 82, 0
2, 688352, Note_on_c, 0, 65, 0
2, 688368, Control_c, 0, 64, 127
2, 688377, Note_on_c, 0, 70, 0
2, 688410, Note_on_c, 0, 61, 0
2, 688498, Note_on_c, 0, 55, 0
2, 689054, Note_on_c, 0, 51, 51
2, 689179, Control_c, 0, 64, 0
2, 689211, Note_on_c, 0, 51, 0
2, 689223, Note_on_c, 0, 52, 49
2, 689281, Note_on_c, 0, 61, 47
2, 689283, Note_on_c, 0, 65, 68
2, 689288, Note_on_c, 0, 58, 60
2, 689297, Note_on_c, 0, 52, 0
2, 689297, Note_on_c, 0, 55, 56
2, 689299, Note_on_c, 0, 53, 60
2, 689818, Note_on_c, 0, 55, 0
2, 689829, Note_on_c, 0, 51, 39
2, 689834, Note_on_c, 0, 65, 0
2, 689841, Note_on_c, 0, 53, 0
2, 689883, Note_on_c, 0, 58, 0
2, 689915, Note_on_c, 0, 61, 0
2, 690006, Note_on_c, 0, 65, 63
2, 690020, Note_on_c, 0, 58, 64
2, 690027, Note_on_c, 0, 51, 0
2, 690029, Note_on_c, 0, 61, 62
2, 690031, Note_on_c, 0, 53, 55
2, 690042, Note_on_c, 0, 55, 53
2, 690357, Note_on_c, 0, 65, 0
2, 690469, Note_on_c, 0, 55, 0
2, 690490, Note_on_c, 0, 58, 0
2, 690522, Note_on_c, 0, 61, 0
2, 690547, Note_on_c, 0, 53, 0
2, 690640, Note_on_c, 0, 58, 48
2, 690647, Note_on_c, 0, 64, 58
2, 690656, Note_on_c, 0, 61, 25
2, 690665, Note_on_c, 0, 52, 45
2, 690668, Note_on_c, 0, 55, 42
2, 690679, Control_c, 0, 64, 127
2, 690906, Note_on_c, 0, 61, 0
2, 690929, Note_on_c, 0, 55, 0
2, 691008, Note_on_c, 0, 64, 0
2, 691068, Control_c, 0, 64, 0
2, 691127, Note_on_c, 0, 58, 0
2, 691149, Note_on_c, 0, 52, 0
2, 691289, Note_on_c, 0, 58, 55
2, 691293, Note_on_c, 0, 63, 60
2, 691307, Note_on_c, 0, 51, 48
2, 691311, Note_on_c, 0, 60, 41
2, 691311, Note_on_c, 0, 53, 49
2, 692229, Note_on_c, 0, 51, 0
2, 692266, Control_c, 0, 64, 127
2, 692546, Note_on_c, 0, 53, 0
2, 692671, Note_on_c, 0, 60, 0
2, 692782, Note_on_c, 0, 58, 0
2, 692784, Note_on_c, 0, 63, 0
2, 693607, Control_c, 0, 64, 0
2, 693769, Note_on_c, 0, 60, 70
2, 693773, Note_on_c, 0, 65, 76
2, 693775, Note_on_c, 0, 51, 69
2, 693776, Note_on_c, 0, 56, 79
2, 693996, Note_on_c, 0, 56, 0
2, 694047, Note_on_c, 0, 65, 0
2, 694079, Note_on_c, 0, 60, 0
2, 694165, Note_on_c, 0, 51, 0
2, 694197, Note_on_c, 0, 49, 33
2, 694209, Note_on_c, 0, 63, 43
2, 694229, Note_on_c, 0, 60, 34
2, 694243, Note_on_c, 0, 56, 25
2, 694408, Note_on_c, 0, 60, 0
2, 694424, Note_on_c, 0, 56, 0
2, 694501, Note_on_c, 0, 49, 0
2, 694637, Note_on_c, 0, 63, 0
2, 694753, Note_on_c, 0, 39, 36
2, 694772, Note_on_c, 0, 61, 49
2, 694787, Note_on_c, 0, 54, 69
2, 694790, Note_on_c, 0, 58, 63
2, 694794, Note_on_c, 0, 65, 68
2, 694797, Note_on_c, 0, 51, 40
2, 695783, Note_on_c, 0, 51, 0
2, 695786, Note_on_c, 0, 54, 0
2, 695834, Note_on_c, 0, 46, 31
2, 695841, Note_on_c, 0, 58, 0
2, 695846, Note_on_c, 0, 65, 0
2, 695860, Note_on_c, 0, 61, 0
2, 696019, Note_on_c, 0, 39, 0
2, 696024, Note_on_c, 0, 63, 45
2, 696040, Note_on_c, 0, 54, 59
2, 696041, Note_on_c, 0, 51, 49
2, 696052, Note_on_c, 0, 58, 49
2, 696082, Note_on_c, 0, 61, 32
2, 696156, Note_on_c, 0, 46, 0
2, 696307, Note_on_c, 0, 51, 0
2, 696351, Note_on_c, 0, 54, 0
2, 696745, Note_on_c, 0, 58, 0
2, 696999, Note_on_c, 0, 54, 52
2, 697027, Note_on_c, 0, 57, 56
2, 697029, Note_on_c, 0, 65, 39
2, 697031, Note_on_c, 0, 62, 48
2, 697043, Note_on_c, 0, 44, 31
2, 697083, Note_on_c, 0, 64, 38
2, 697157, Note_on_c, 0, 64, 0
2, 697339, Note_on_c, 0, 62, 0
2, 697411, Note_on_c, 0, 57, 0
2, 697458, Note_on_c, 0, 65, 0
2, 697525, Note_on_c, 0, 44, 0
2, 697539, Note_on_c, 0, 54, 0
2, 697560, Note_on_c, 0, 61, 0
2, 697603, Note_on_c, 0, 63, 0
2, 697923, Note_on_c, 0, 63, 39
2, 697932, Note_on_c, 0, 44, 33
2, 697949, Note_on_c, 0, 61, 42
2, 697965, Note_on_c, 0, 54, 36
2, 697969, Note_on_c, 0, 57, 58
2, 698203, Note_on_c, 0, 57, 0
2, 698299, Note_on_c, 0, 61, 0
2, 698303, Note_on_c, 0, 44, 0
2, 698319, Note_on_c, 0, 54, 0
2, 698351, Note_on_c, 0, 63, 0
2, 698910, Note_on_c, 0, 60, 47
2, 698931, Note_on_c, 0, 68, 42
2, 698935, Note_on_c, 0, 56, 42
2, 698937, Note_on_c, 0, 65, 53
2, 698952, Note_on_c, 0, 49, 40
2, 699461, Note_on_c, 0, 56, 0
2, 699554, Note_on_c, 0, 55, 65
2, 699968, Note_on_c, 0, 55, 0
2, 699982, Note_on_c, 0, 56, 58
2, 700547, Note_on_c, 0, 56, 0
2, 700584, Note_on_c, 0, 58, 68
2, 701714, Note_on_c, 0, 58, 0
2, 701807, Note_on_c, 0, 57, 52
2, 702179, Note_on_c, 0, 57, 0
2, 702288, Note_on_c, 0, 60, 0
2, 702409, Note_on_c, 0, 56, 62
2, 702481, Note_on_c, 0, 68, 0
2, 702620, Note_on_c, 0, 49, 0
2, 702710, Note_on_c, 0, 65, 0
2, 702805, Note_on_c, 0, 56, 0
2, 702826, Note_on_c, 0, 55, 45
2, 702831, Note_on_c, 0, 63, 37
2, 702870, Note_on_c, 0, 57, 32
2, 702893, Note_on_c, 0, 59, 26
2, 703025, Note_on_c, 0, 55, 0
2, 703164, Note_on_c, 0, 59, 0
2, 703335, Note_on_c, 0, 57, 0
2, 703414, Note_on_c, 0, 42, 32
2, 703456, Note_on_c, 0, 63, 0
2, 703613, Control_c, 0, 64, 127
2, 703618, Note_on_c, 0, 42, 0
2, 704320, Control_c, 0, 64, 0
2, 704380, Note_on_c, 0, 66, 56
2, 704394, Note_on_c, 0, 64, 63
2, 704398, Note_on_c, 0, 68, 46
2, 704403, Note_on_c, 0, 72, 48
2, 704414, Note_on_c, 0, 58, 48
2, 704421, Note_on_c, 0, 54, 37
2, 704540, Note_on_c, 0, 64, 0
2, 704607, Note_on_c, 0, 66, 0
2, 704613, Note_on_c, 0, 68, 0
2, 704614, Note_on_c, 0, 58, 0
2, 704616, Note_on_c, 0, 54, 0
2, 704632, Note_on_c, 0, 72, 0
2, 705033, Note_on_c, 0, 74, 64
2, 705051, Note_on_c, 0, 64, 38
2, 705065, Note_on_c, 0, 66, 48
2, 705079, Note_on_c, 0, 62, 58
2, 705218, Note_on_c, 0, 74, 0
2, 705227, Note_on_c, 0, 62, 0
2, 705306, Note_on_c, 0, 66, 0
2, 705332, Note_on_c, 0, 64, 0
2, 705704, Note_on_c, 0, 73, 67
2, 705714, Note_on_c, 0, 61, 61
2, 705721, Note_on_c, 0, 64, 77
2, 705728, Note_on_c, 0, 66, 63
2, 705741, Note_on_c, 0, 68, 49
2, 706070, Note_on_c, 0, 64, 0
2, 706107, Note_on_c, 0, 73, 0
2, 706117, Note_on_c, 0, 68, 0
2, 706172, Note_on_c, 0, 66, 0
2, 706197, Note_on_c, 0, 61, 0
2, 706242, Control_c, 0, 64, 127
2, 706262, Note_on_c, 0, 60, 36
2, 706263, Note_on_c, 0, 64, 63
2, 706276, Note_on_c, 0, 72, 56
2, 706336, Note_on_c, 0, 60, 0
2, 706383, Control_c, 0, 64, 0
2, 706420, Note_on_c, 0, 64, 0
2, 706489, Note_on_c, 0, 72, 0
2, 706702, Note_on_c, 0, 63, 55
2, 706705, Note_on_c, 0, 58, 49
2, 706709, Note_on_c, 0, 70, 46
2, 706716, Note_on_c, 0, 75, 50
2, 706719, Note_on_c, 0, 67, 49
2, 706732, Note_on_c, 0, 48, 41
2, 707115, Note_on_c, 0, 63, 0
2, 707126, Note_on_c, 0, 48, 0
2, 707129, Note_on_c, 0, 75, 0
2, 707133, Note_on_c, 0, 67, 0
2, 707145, Note_on_c, 0, 58, 0
2, 707193, Note_on_c, 0, 70, 0
2, 707293, Note_on_c, 0, 75, 46
2, 707302, Note_on_c, 0, 63, 53
2, 707323, Note_on_c, 0, 67, 42
2, 707337, Note_on_c, 0, 70, 45
2, 707346, Note_on_c, 0, 58, 28
2, 707365, Note_on_c, 0, 63, 0
2, 707392, Note_on_c, 0, 67, 0
2, 707437, Note_on_c, 0, 70, 0
2, 707469, Note_on_c, 0, 75, 0
2, 707494, Note_on_c, 0, 58, 0
2, 708481, Note_on_c, 0, 87, 64
2, 708493, Note_on_c, 0, 67, 53
2, 708495, Note_on_c, 0, 75, 54
2, 708497, Note_on_c, 0, 82, 60
2, 708509, Note_on_c, 0, 63, 43
2, 708515, Note_on_c, 0, 58, 42
2, 708530, Note_on_c, 0, 62, 54
2, 708680, Note_on_c, 0, 75, 0
2, 708724, Note_on_c, 0, 67, 0
2, 708743, Note_on_c, 0, 87, 0
2, 708745, Note_on_c, 0, 62, 0
2, 708766, Note_on_c, 0, 58, 0
2, 708771, Note_on_c, 0, 82, 0
2, 708794, Note_on_c, 0, 63, 0
2, 709467, Note_on_c, 0, 87, 57
2, 709472, Note_on_c, 0, 58, 38
2, 709477, Note_on_c, 0, 67, 43
2, 709479, Note_on_c, 0, 63, 42
2, 709486, Note_on_c, 0, 75, 52
2, 709497, Note_on_c, 0, 82, 52
2, 709525, Note_on_c, 0, 62, 40
2, 709599, Note_on_c, 0, 62, 0
2, 709695, Note_on_c, 0, 75, 0
2, 709697, Note_on_c, 0, 67, 0
2, 709764, Note_on_c, 0, 87, 0
2, 709783, Note_on_c, 0, 63, 0
2, 709817, Note_on_c, 0, 82, 0
2, 709847, Note_on_c, 0, 58, 0
2, 710422, Control_c, 0, 64, 127
2, 710459, Note_on_c, 0, 63, 49
2, 710461, Note_on_c, 0, 67, 54
2, 710463, Note_on_c, 0, 87, 56
2, 710465, Note_on_c, 0, 82, 55
2, 710466, Note_on_c, 0, 75, 59
2, 710480, Note_on_c, 0, 57, 55
2, 710980, Note_on_c, 0, 75, 0
2, 710996, Note_on_c, 0, 87, 0
2, 711026, Note_on_c, 0, 57, 0
2, 711052, Note_on_c, 0, 67, 0
2, 711077, Note_on_c, 0, 63, 0
2, 711079, Note_on_c, 0, 82, 0
2, 712087, Control_c, 0, 64, 0
2, 712137, Note_on_c, 0, 63, 74
2, 712140, Note_on_c, 0, 67, 74
2, 712145, Note_on_c, 0, 57, 79
2, 712158, Note_on_c, 0, 84, 83
2, 712167, Note_on_c, 0, 72, 89
2, 712189, Note_on_c, 0, 79, 57
2, 712219, Note_on_c, 0, 82, 25
2, 712249, Note_on_c, 0, 79, 0
2, 712286, Note_on_c, 0, 82, 0
2, 712448, Note_on_c, 0, 72, 0
2, 712485, Note_on_c, 0, 84, 0
2, 712554, Note_on_c, 0, 57, 0
2, 712563, Control_c, 0, 64, 127
2, 712577, Note_on_c, 0, 67, 0
2, 712628, Note_on_c, 0, 63, 0
2, 712731, Note_on_c, 0, 85, 70
2, 712742, Note_on_c, 0, 73, 59
2, 712747, Note_on_c, 0, 63, 61
2, 712749, Note_on_c, 0, 57, 66
2, 712760, Note_on_c, 0, 67, 57
2, 712763, Note_on_c, 0, 79, 50
2, 713036, Note_on_c, 0, 57, 0
2, 713068, Note_on_c, 0, 79, 0
2, 713075, Note_on_c, 0, 67, 0
2, 713078, Note_on_c, 0, 73, 0
2, 713145, Control_c, 0, 64, 0
2, 713180, Note_on_c, 0, 85, 0
2, 713231, Note_on_c, 0, 63, 0
2, 713311, Note_on_c, 0, 63, 33
2, 713321, Note_on_c, 0, 72, 62
2, 713323, Note_on_c, 0, 84, 55
2, 713337, Note_on_c, 0, 57, 60
2, 713339, Note_on_c, 0, 67, 55
2, 713360, Note_on_c, 0, 82, 26
2, 713363, Note_on_c, 0, 79, 38
2, 713411, Note_on_c, 0, 72, 0
2, 713444, Control_c, 0, 64, 127
2, 713472, Note_on_c, 0, 79, 0
2, 713478, Note_on_c, 0, 67, 0
2, 713494, Note_on_c, 0, 57, 0
2, 713527, Note_on_c, 0, 82, 0
2, 713534, Note_on_c, 0, 84, 0
2, 713546, Note_on_c, 0, 63, 0
2, 713766, Note_on_c, 0, 85, 31
2, 713916, Note_on_c, 0, 85, 0
2, 713921, Control_c, 0, 64, 0
2, 714041, Note_on_c, 0, 65, 85
2, 714043, Note_on_c, 0, 61, 53
2, 714043, Note_on_c, 0, 60, 66
2, 714048, Note_on_c, 0, 56, 80
2, 714050, Note_on_c, 0, 89, 79
2, 714062, Note_on_c, 0, 84, 80
2, 714066, Note_on_c, 0, 77, 81
2, 714087, Note_on_c, 0, 58, 51
2, 714206, Note_on_c, 0, 60, 0
2, 714213, Control_c, 0, 64, 127
2, 714256, Note_on_c, 0, 58, 0
2, 714259, Note_on_c, 0, 77, 0
2, 714333, Note_on_c, 0, 61, 0
2, 714347, Note_on_c, 0, 65, 0
2, 714368, Note_on_c, 0, 84, 0
2, 714374, Note_on_c, 0, 89, 0
2, 714418, Note_on_c, 0, 60, 37
2, 714472, Note_on_c, 0, 77, 47
2, 714516, Note_on_c, 0, 61, 33
2, 714521, Note_on_c, 0, 56, 0
2, 714548, Note_on_c, 0, 65, 40
2, 714565, Note_on_c, 0, 60, 0
2, 714625, Note_on_c, 0, 77, 0
2, 714660, Note_on_c, 0, 89, 25
2, 714666, Note_on_c, 0, 61, 0
2, 714719, Note_on_c, 0, 84, 34
2, 714731, Note_on_c, 0, 60, 43
2, 714740, Note_on_c, 0, 56, 35
2, 714752, Note_on_c, 0, 65, 0
2, 714805, Note_on_c, 0, 89, 0
2, 714822, Note_on_c, 0, 58, 28
2, 714870, Note_on_c, 0, 77, 44
2, 714889, Note_on_c, 0, 61, 44
2, 714895, Note_on_c, 0, 56, 0
2, 714907, Note_on_c, 0, 60, 0
2, 714910, Note_on_c, 0, 84, 0
2, 714935, Note_on_c, 0, 65, 41
2, 714939, Note_on_c, 0, 58, 0
2, 715041, Note_on_c, 0, 77, 0
2, 715056, Note_on_c, 0, 61, 0
2, 715074, Note_on_c, 0, 89, 43
2, 715090, Note_on_c, 0, 84, 40
2, 715092, Note_on_c, 0, 60, 48
2, 715093, Note_on_c, 0, 56, 43
2, 715127, Note_on_c, 0, 65, 0
2, 715151, Note_on_c, 0, 58, 30
2, 715247, Note_on_c, 0, 61, 51
2, 715248, Note_on_c, 0, 89, 0
2, 715252, Note_on_c, 0, 56, 0
2, 715291, Note_on_c, 0, 60, 0
2, 715296, Note_on_c, 0, 77, 49
2, 715310, Note_on_c, 0, 84, 0
2, 715315, Note_on_c, 0, 58, 0
2, 715336, Note_on_c, 0, 65, 42
2, 715426, Note_on_c, 0, 61, 0
2, 715449, Note_on_c, 0, 77, 0
2, 715463, Note_on_c, 0, 60, 49
2, 715468, Note_on_c, 0, 65, 0
2, 715477, Note_on_c, 0, 56, 37
2, 715482, Note_on_c, 0, 89, 55
2, 715532, Note_on_c, 0, 58, 30
2, 715547, Note_on_c, 0, 84, 29
2, 715621, Note_on_c, 0, 61, 52
2, 715623, Note_on_c, 0, 56, 0
2, 715653, Note_on_c, 0, 89, 0
2, 715657, Note_on_c, 0, 60, 0
2, 715704, Note_on_c, 0, 58, 0
2, 715716, Note_on_c, 0, 65, 50
2, 715738, Note_on_c, 0, 84, 0
2, 715752, Note_on_c, 0, 77, 44
2, 715787, Note_on_c, 0, 61, 0
2, 715848, Note_on_c, 0, 60, 47
2, 715864, Note_on_c, 0, 56, 35
2, 715868, Note_on_c, 0, 77, 0
2, 715889, Note_on_c, 0, 65, 0
2, 715915, Note_on_c, 0, 84, 38
2, 715919, Note_on_c, 0, 58, 31
2, 715938, Note_on_c, 0, 89, 45
2, 715966, Note_on_c, 0, 56, 0
2, 715991, Note_on_c, 0, 61, 52
2, 716049, Note_on_c, 0, 60, 0
2, 716058, Note_on_c, 0, 58, 0
2, 716081, Note_on_c, 0, 65, 45
2, 716100, Note_on_c, 0, 89, 0
2, 716144, Note_on_c, 0, 61, 0
2, 716149, Note_on_c, 0, 84, 0
2, 716163, Note_on_c, 0, 77, 47
2, 716220, Note_on_c, 0, 60, 62
2, 716223, Note_on_c, 0, 56, 53
2, 716257, Note_on_c, 0, 65, 0
2, 716264, Note_on_c, 0, 77, 0
2, 716338, Note_on_c, 0, 89, 50
2, 716352, Note_on_c, 0, 84, 37
2, 716380, Note_on_c, 0, 56, 0
2, 716401, Note_on_c, 0, 61, 52
2, 716427, Note_on_c, 0, 60, 0
2, 716440, Note_on_c, 0, 65, 50
2, 716491, Note_on_c, 0, 89, 0
2, 716547, Note_on_c, 0, 61, 0
2, 716554, Note_on_c, 0, 77, 51
2, 716556, Note_on_c, 0, 84, 0
2, 716584, Note_on_c, 0, 60, 58
2, 716609, Note_on_c, 0, 56, 45
2, 716637, Note_on_c, 0, 65, 0
2, 716672, Note_on_c, 0, 77, 0
2, 716698, Note_on_c, 0, 58, 25
2, 716704, Note_on_c, 0, 84, 47
2, 716725, Note_on_c, 0, 89, 47
2, 716778, Note_on_c, 0, 56, 0
2, 716788, Note_on_c, 0, 61, 46
2, 716829, Note_on_c, 0, 89, 0
2, 716848, Note_on_c, 0, 65, 40
2, 716853, Note_on_c, 0, 58, 0
2, 716866, Note_on_c, 0, 60, 0
2, 716918, Note_on_c, 0, 77, 54
2, 716929, Note_on_c, 0, 84, 0
2, 716948, Note_on_c, 0, 61, 0
2, 717008, Note_on_c, 0, 60, 49
2, 717024, Note_on_c, 0, 56, 46
2, 717050, Note_on_c, 0, 65, 0
2, 717070, Note_on_c, 0, 77, 0
2, 717089, Note_on_c, 0, 89, 45
2, 717094, Note_on_c, 0, 84, 46
2, 717112, Note_on_c, 0, 58, 27
2, 717209, Note_on_c, 0, 89, 0
2, 717216, Note_on_c, 0, 56, 0
2, 717232, Note_on_c, 0, 61, 39
2, 717300, Note_on_c, 0, 77, 53
2, 717327, Note_on_c, 0, 65, 39
2, 717336, Note_on_c, 0, 84, 0
2, 717424, Note_on_c, 0, 56, 35
2, 717443, Note_on_c, 0, 60, 0
2, 717454, Note_on_c, 0, 77, 0
2, 717469, Note_on_c, 0, 65, 0
2, 717571, Note_on_c, 0, 61, 0
2, 717573, Note_on_c, 0, 56, 0
2, 717607, Note_on_c, 0, 58, 0
2, 717816, Control_c, 0, 64, 0
2, 717850, Note_on_c, 0, 90, 76
2, 717851, Note_on_c, 0, 78, 91
2, 717862, Note_on_c, 0, 87, 74
2, 717869, Note_on_c, 0, 61, 84
2, 717871, Note_on_c, 0, 55, 80
2, 717885, Note_on_c, 0, 64, 81
2, 717904, Note_on_c, 0, 85, 36
2, 717969, Note_on_c, 0, 85, 0
2, 717974, Note_on_c, 0, 64, 0
2, 718057, Note_on_c, 0, 78, 0
2, 718203, Control_c, 0, 64, 127
2, 718205, Note_on_c, 0, 78, 42
2, 718207, Note_on_c, 0, 87, 0
2, 718240, Note_on_c, 0, 90, 0
2, 718374, Note_on_c, 0, 55, 0
2, 718379, Note_on_c, 0, 78, 0
2, 718466, Note_on_c, 0, 87, 31
2, 718469, Note_on_c, 0, 61, 0
2, 718566, Note_on_c, 0, 78, 37
2, 718571, Note_on_c, 0, 55, 24
2, 718583, Note_on_c, 0, 87, 0
2, 718717, Note_on_c, 0, 61, 33
2, 718731, Note_on_c, 0, 78, 0
2, 718763, Note_on_c, 0, 90, 37
2, 718765, Note_on_c, 0, 55, 0
2, 718805, Note_on_c, 0, 87, 42
2, 718883, Note_on_c, 0, 61, 0
2, 718893, Note_on_c, 0, 55, 52
2, 718934, Note_on_c, 0, 78, 47
2, 718935, Note_on_c, 0, 90, 0
2, 718976, Note_on_c, 0, 87, 0
2, 719046, Note_on_c, 0, 61, 45
2, 719080, Note_on_c, 0, 66, 30
2, 719103, Note_on_c, 0, 78, 0
2, 719113, Note_on_c, 0, 55, 0
2, 719124, Note_on_c, 0, 90, 36
2, 719148, Note_on_c, 0, 87, 44
2, 719296, Note_on_c, 0, 78, 33
2, 719303, Note_on_c, 0, 90, 0
2, 719342, Note_on_c, 0, 87, 0
2, 719356, Note_on_c, 0, 61, 0
2, 719388, Note_on_c, 0, 66, 0
2, 719474, Note_on_c, 0, 78, 0
2, 719495, Note_on_c, 0, 90, 35
2, 719502, Note_on_c, 0, 61, 12
2, 719639, Note_on_c, 0, 90, 0
2, 719683, Note_on_c, 0, 61, 0
2, 719703, Control_c, 0, 64, 0
2, 719749, Note_on_c, 0, 55, 74
2, 719756, Note_on_c, 0, 87, 74
2, 719759, Note_on_c, 0, 91, 78
2, 719761, Note_on_c, 0, 65, 82
2, 719763, Note_on_c, 0, 79, 80
2, 719766, Note_on_c, 0, 61, 71
2, 719821, Note_on_c, 0, 89, 33
2, 719988, Note_on_c, 0, 79, 0
2, 720004, Control_c, 0, 64, 127
2, 720006, Note_on_c, 0, 89, 0
2, 720146, Note_on_c, 0, 87, 0
2, 720155, Note_on_c, 0, 91, 0
2, 720157, Note_on_c, 0, 79, 43
2, 720343, Note_on_c, 0, 79, 0
2, 720373, Note_on_c, 0, 87, 34
2, 720393, Note_on_c, 0, 65, 0
2, 720437, Note_on_c, 0, 61, 0
2, 720636, Note_on_c, 0, 61, 40
2, 720761, Note_on_c, 0, 61, 0
2, 720813, Note_on_c, 0, 79, 33
2, 720827, Note_on_c, 0, 87, 0
2, 720875, Note_on_c, 0, 55, 0
2, 720968, Note_on_c, 0, 79, 0
2, 721890, Control_c, 0, 64, 0
2, 721890, Note_on_c, 0, 60, 60
2, 721896, Note_on_c, 0, 63, 68
2, 722033, Note_on_c, 0, 60, 0
2, 722107, Note_on_c, 0, 63, 0
2, 723531, Note_on_c, 0, 42, 36
2, 723835, Note_on_c, 0, 42, 0
2, 723846, Note_on_c, 0, 63, 78
2, 723855, Note_on_c, 0, 44, 77
2, 723862, Note_on_c, 0, 60, 63
2, 723865, Note_on_c, 0, 58, 77
2, 723867, Note_on_c, 0, 53, 75
2, 724252, Note_on_c, 0, 53, 0
2, 724325, Note_on_c, 0, 60, 0
2, 724339, Note_on_c, 0, 44, 0
2, 724377, Note_on_c, 0, 63, 0
2, 724411, Note_on_c, 0, 58, 0
2, 724573, Note_on_c, 0, 39, 35
2, 724782, Note_on_c, 0, 39, 0
2, 724810, Note_on_c, 0, 43, 45
2, 724814, Note_on_c, 0, 53, 63
2, 724821, Note_on_c, 0, 57, 62
2, 724823, Note_on_c, 0, 62, 65
2, 724838, Note_on_c, 0, 60, 40
2, 725145, Note_on_c, 0, 62, 0
2, 725194, Note_on_c, 0, 57, 0
2, 725296, Note_on_c, 0, 53, 0
2, 725347, Note_on_c, 0, 60, 0
2, 725403, Note_on_c, 0, 43, 0
2, 725527, Note_on_c, 0, 39, 35
2, 725697, Note_on_c, 0, 39, 0
2, 725724, Note_on_c, 0, 61, 25
2, 725752, Note_on_c, 0, 52, 51
2, 725766, Note_on_c, 0, 56, 56
2, 725775, Note_on_c, 0, 42, 36
2, 725798, Note_on_c, 0, 58, 53
2, 727253, Note_on_c, 0, 52, 0
2, 727313, Note_on_c, 0, 56, 0
2, 727399, Note_on_c, 0, 42, 0
2, 727406, Note_on_c, 0, 61, 0
2, 727412, Note_on_c, 0, 58, 0
2, 727424, Note_on_c, 0, 39, 37
2, 727695, Note_on_c, 0, 42, 47
2, 727697, Note_on_c, 0, 39, 0
2, 727725, Note_on_c, 0, 61, 46
2, 727732, Note_on_c, 0, 52, 43
2, 727735, Note_on_c, 0, 56, 56
2, 727769, Note_on_c, 0, 58, 33
2, 728175, Note_on_c, 0, 42, 0
2, 728237, Note_on_c, 0, 52, 0
2, 728385, Note_on_c, 0, 39, 37
2, 728536, Note_on_c, 0, 56, 0
2, 728550, Note_on_c, 0, 58, 0
2, 728656, Note_on_c, 0, 43, 55
2, 728659, Note_on_c, 0, 39, 0
2, 729275, Note_on_c, 0, 61, 0
2, 729314, Note_on_c, 0, 39, 31
2, 729326, Note_on_c, 0, 43, 0
2, 729615, Note_on_c, 0, 39, 0
2, 729619, Note_on_c, 0, 44, 38
2, 729620, Note_on_c, 0, 63, 39
2, 729640, Note_on_c, 0, 60, 36
2, 729642, Note_on_c, 0, 56, 49
2, 730082, Note_on_c, 0, 56, 0
2, 730103, Note_on_c, 0, 60, 0
2, 730161, Note_on_c, 0, 44, 0
2, 730171, Note_on_c, 0, 63, 0
2, 731497, Note_on_c, 0, 44, 56
2, 732157, Note_on_c, 0, 44, 0
2, 732185, Note_on_c, 0, 39, 32
2, 732366, Note_on_c, 0, 39, 0
2, 733515, Note_on_c, 0, 52, 24
2, 733521, Note_on_c, 0, 63, 18
2, 733685, Note_on_c, 0, 52, 0
2, 733717, Note_on_c, 0, 63, 0
2, 735048, Note_on_c, 0, 63, 52
2, 735128, Note_on_c, 0, 58, 32
2, 735131, Note_on_c, 0, 52, 25
2, 735157, Note_on_c, 0, 63, 0
2, 735246, Note_on_c, 0, 52, 0
2, 735336, Note_on_c, 0, 58, 0
2, 735405, Note_on_c, 0, 90, 51
2, 735822, Note_on_c, 0, 90, 0
2, 736104, Note_on_c, 0, 87, 37
2, 736269, Note_on_c, 0, 87, 0
2, 736416, Note_on_c, 0, 90, 50
2, 736459, Note_on_c, 0, 75, 35
2, 736747, Note_on_c, 0, 90, 0
2, 737066, Note_on_c, 0, 90, 44
2, 737101, Note_on_c, 0, 63, 40
2, 737121, Note_on_c, 0, 60, 32
2, 737136, Note_on_c, 0, 75, 0
2, 737231, Note_on_c, 0, 58, 33
2, 737294, Note_on_c, 0, 90, 0
2, 737300, Note_on_c, 0, 63, 0
2, 737360, Note_on_c, 0, 60, 0
2, 737519, Note_on_c, 0, 80, 34
2, 737521, Note_on_c, 0, 92, 42
2, 737602, Note_on_c, 0, 58, 0
2, 738031, Note_on_c, 0, 80, 0
2, 738048, Note_on_c, 0, 92, 0
2, 738328, Note_on_c, 0, 92, 44
2, 738365, Note_on_c, 0, 80, 43
2, 738829, Note_on_c, 0, 80, 0
2, 738846, Note_on_c, 0, 92, 0
2, 738970, Note_on_c, 0, 63, 42
2, 739022, Note_on_c, 0, 60, 15
2, 739120, Note_on_c, 0, 63, 0
2, 739131, Note_on_c, 0, 58, 18
2, 739296, Note_on_c, 0, 60, 0
2, 739310, Note_on_c, 0, 92, 53
2, 739342, Note_on_c, 0, 80, 37
2, 739543, Note_on_c, 0, 58, 0
2, 739756, Note_on_c, 0, 92, 0
2, 739762, Note_on_c, 0, 80, 0
2, 740750, Note_on_c, 0, 63, 31
2, 740782, Note_on_c, 0, 52, 32
2, 740793, Note_on_c, 0, 58, 40
2, 741035, Note_on_c, 0, 63, 0
2, 741081, Note_on_c, 0, 52, 0
2, 741142, Note_on_c, 0, 58, 0
2, 742795, Note_on_c, 0, 63, 55
2, 742861, Note_on_c, 0, 52, 32
2, 742913, Note_on_c, 0, 63, 0
2, 742962, Note_on_c, 0, 58, 20
2, 743005, Note_on_c, 0, 52, 0
2, 743114, Note_on_c, 0, 82, 57
2, 743117, Note_on_c, 0, 97, 67
2, 743135, Note_on_c, 0, 58, 0
2, 743581, Note_on_c, 0, 97, 0
2, 743610, Note_on_c, 0, 82, 0
2, 744079, Note_on_c, 0, 97, 62
2, 744120, Note_on_c, 0, 82, 46
2, 744580, Note_on_c, 0, 82, 0
2, 744733, Note_on_c, 0, 97, 0
2, 744912, Note_on_c, 0, 63, 33
2, 744952, Note_on_c, 0, 60, 29
2, 744995, Note_on_c, 0, 58, 44
2, 745058, Note_on_c, 0, 53, 24
2, 745292, Note_on_c, 0, 60, 0
2, 745312, Note_on_c, 0, 63, 0
2, 745320, Note_on_c, 0, 53, 0
2, 745410, Note_on_c, 0, 58, 0
2, 746611, Note_on_c, 0, 63, 43
2, 746611, Note_on_c, 0, 60, 32
2, 746737, Note_on_c, 0, 63, 0
2, 746919, Note_on_c, 0, 95, 47
2, 746997, Note_on_c, 0, 96, 71
2, 747017, Note_on_c, 0, 60, 0
2, 747106, Note_on_c, 0, 95, 0
2, 747391, Note_on_c, 0, 96, 0
2, 747538, Note_on_c, 0, 60, 33
2, 747864, Note_on_c, 0, 60, 0
2, 747924, Note_on_c, 0, 96, 75
2, 748405, Note_on_c, 0, 96, 0
2, 748581, Note_on_c, 0, 96, 71
2, 748656, Note_on_c, 0, 63, 46
2, 748739, Note_on_c, 0, 58, 43
2, 748742, Note_on_c, 0, 52, 31
2, 748990, Note_on_c, 0, 96, 0
2, 749249, Note_on_c, 0, 96, 56
2, 749269, Note_on_c, 0, 58, 0
2, 749592, Note_on_c, 0, 63, 0
2, 749736, Note_on_c, 0, 96, 0
2, 749920, Note_on_c, 0, 95, 67
2, 750133, Note_on_c, 0, 52, 0
2, 750484, Note_on_c, 0, 95, 0
2, 750579, Note_on_c, 0, 94, 64
2, 750597, Note_on_c, 0, 63, 40
2, 750660, Note_on_c, 0, 58, 43
2, 750697, Note_on_c, 0, 52, 30
2, 751671, Note_on_c, 0, 52, 0
2, 751907, Note_on_c, 0, 58, 0
2, 752086, Note_on_c, 0, 63, 0
2, 752221, Note_on_c, 0, 94, 0
2, 752351, Note_on_c, 0, 95, 68
2, 752546, Note_on_c, 0, 63, 35
2, 752575, Note_on_c, 0, 60, 28
2, 752693, Note_on_c, 0, 95, 0
2, 752803, Note_on_c, 0, 96, 53
2, 753137, Note_on_c, 0, 58, 15
2, 753266, Note_on_c, 0, 96, 0
2, 753580, Note_on_c, 0, 63, 0
2, 753664, Note_on_c, 0, 99, 68
2, 753796, Note_on_c, 0, 60, 0
2, 753811, Note_on_c, 0, 58, 0
2, 754104, Note_on_c, 0, 99, 0
2, 754390, Note_on_c, 0, 60, 17
2, 754623, Note_on_c, 0, 96, 44
2, 754735, Note_on_c, 0, 60, 0
2, 754986, Note_on_c, 0, 96, 0
2, 755570, Note_on_c, 0, 95, 54
2, 756103, Note_on_c, 0, 95, 0
2, 756437, Note_on_c, 0, 63, 19
2, 756478, Note_on_c, 0, 58, 33
2, 756512, Note_on_c, 0, 52, 24
2, 756524, Note_on_c, 0, 94, 39
2, 756743, Note_on_c, 0, 52, 0
2, 756829, Note_on_c, 0, 94, 0
2, 756927, Note_on_c, 0, 58, 0
2, 757232, Note_on_c, 0, 63, 0
2, 757503, Note_on_c, 0, 94, 35
2, 757892, Note_on_c, 0, 94, 0
2, 758197, Note_on_c, 0, 63, 30
2, 758324, Note_on_c, 0, 52, 17
2, 758445, Note_on_c, 0, 52, 0
2, 758448, Note_on_c, 0, 94, 42
2, 758583, Note_on_c, 0, 63, 0
2, 758998, Note_on_c, 0, 94, 0
2, 759464, Note_on_c, 0, 95, 31
2, 759847, Note_on_c, 0, 95, 0
2, 760259, Note_on_c, 0, 63, 13
2, 760314, Note_on_c, 0, 60, 33
2, 760343, Note_on_c, 0, 96, 32
2, 760441, Note_on_c, 0, 58, 32
2, 760734, Note_on_c, 0, 96, 0
2, 760841, Note_on_c, 0, 60, 0
2, 760933, Note_on_c, 0, 58, 0
2, 761034, Note_on_c, 0, 63, 0
2, 761860, Note_on_c, 0, 63, 30
2, 761881, Note_on_c, 0, 96, 30
2, 761955, Note_on_c, 0, 60, 29
2, 761964, Note_on_c, 0, 84, 29
2, 762062, Note_on_c, 0, 58, 29
2, 763168, Note_on_c, 0, 60, 0
2, 763321, Note_on_c, 0, 96, 0
2, 763352, Note_on_c, 0, 63, 0
2, 763361, Note_on_c, 0, 58, 0
2, 763384, Note_on_c, 0, 84, 0
2, 764199, Note_on_c, 0, 94, 25
2, 764213, Note_on_c, 0, 63, 25
2, 764251, Note_on_c, 0, 52, 25
2, 764265, Note_on_c, 0, 82, 25
2, 764280, Note_on_c, 0, 58, 25
2, 764697, Note_on_c, 0, 82, 0
2, 764712, Note_on_c, 0, 52, 0
2, 764761, Note_on_c, 0, 63, 0
2, 764781, Note_on_c, 0, 58, 0
2, 764786, Note_on_c, 0, 94, 0
2, 765763, Note_on_c, 0, 95, 22
2, 765800, Note_on_c, 0, 53, 22
2, 765864, Note_on_c, 0, 64, 22
2, 765918, Note_on_c, 0, 83, 22
2, 766275, Note_on_c, 0, 59, 21
2, 766967, Note_on_c, 0, 83, 0
2, 767018, Note_on_c, 0, 95, 0
2, 767050, Note_on_c, 0, 53, 0
2, 767113, Note_on_c, 0, 59, 0
2, 767131, Note_on_c, 0, 64, 0
2, 768104, Note_on_c, 0, 63, 18
2, 768142, Note_on_c, 0, 96, 18
2, 768211, Note_on_c, 0, 53, 18
2, 768265, Note_on_c, 0, 58, 18
2, 768470, Note_on_c, 0, 53, 0
2, 768479, Note_on_c, 0, 63, 0
2, 768525, Note_on_c, 0, 96, 0
2, 768545, Note_on_c, 0, 58, 0
2, 769657, Note_on_c, 0, 63, 15
2, 769668, Note_on_c, 0, 96, 15
2, 769682, Note_on_c, 0, 84, 15
2, 769924, Note_on_c, 0, 63, 0
2, 770011, Note_on_c, 0, 84, 0
2, 770063, Note_on_c, 0, 96, 0
2, 771886, Note_on_c, 0, 63, 11
2, 771937, Note_on_c, 0, 94, 11
2, 771943, Note_on_c, 0, 82, 11
2, 771961, Note_on_c, 0, 52, 11
2, 771963, Note_on_c, 0, 58, 11
2, 772292, Note_on_c, 0, 82, 0
2, 772312, Note_on_c, 0, 94, 0
2, 772329, Note_on_c, 0, 52, 0
2, 772462, Note_on_c, 0, 58, 0
2, 772508, Note_on_c, 0, 63, 0
2, 773375, Note_on_c, 0, 63, 8
2, 773426, Note_on_c, 0, 94, 8
2, 773429, Note_on_c, 0, 82, 8
2, 773467, Note_on_c, 0, 52, 8
2, 773521, Note_on_c, 0, 58, 8
2, 774725, Note_on_c, 0, 52, 0
2, 774947, Note_on_c, 0, 82, 0
2, 774950, Note_on_c, 0, 58, 0
2, 774959, Note_on_c, 0, 63, 0
2, 774967, Note_on_c, 0, 94, 0
2, 775782, Note_on_c, 0, 63, 4
2, 775791, Note_on_c, 0, 96, 4
2, 775874, Note_on_c, 0, 84, 4
2, 775895, Note_on_c, 0, 58, 4
2, 775926, Note_on_c, 0, 60, 3
2, 776139, Note_on_c, 0, 84, 0
2, 776174, Note_on_c, 0, 96, 0
2, 776234, Note_on_c, 0, 63, 0
2, 776275, Note_on_c, 0, 60, 0
2, 776298, Note_on_c, 0, 58, 0
2, 777211, Note_on_c, 0, 63, 1
2, 777211, Note_on_c, 0, 96, 1
2, 777257, Note_on_c, 0, 84, 1
2, 777294, Note_on_c, 0, 58, 1
2, 777323, Note_on_c, 0, 60, 1
2, 777401, Note_on_c, 0, 53, 1
2, 778541, Control_c, 0, 64, 127
2, 778685, Control_c, 0, 64, 0
2, 778945, Control_c, 0, 64, 127
2, 779175, Control_c, 0, 64, 0
2, 782530, Note_on_c, 0, 84, 0
2, 782611, Note_on_c, 0, 96, 0
2, 782746, Note_on_c, 0, 60, 0
2, 782761, Note_on_c, 0, 53, 0
2, 782795, Note_on_c, 0, 63, 0
2, 782850, Note_on_c, 0, 58, 0
2, 782850, End_track
3, 0, Start_track
3, 0, Title_t, "MIDI 2"
3, 0, Program_c, 1, 32
3, 3, Note_on_c, 1, 32, 50
3, 1582, Note_on_c, 1, 30, 28
3, 1629, Note_on_c, 1, 41, 22
3, 1770, Note_on_c, 1, 41, 0
3, 1872, Note_on_c, 1, 30, 0
3, 1881, Note_on_c, 1, 44, 76
3, 1931, Note_on_c, 1, 32, 0
3, 3120, Note_on_c, 1, 33, 57
3, 3333, Note_on_c, 1, 33, 0
3, 3401, Note_on_c, 1, 44, 0
3, 3428, Note_on_c, 1, 34, 52
3, 3716, Note_on_c, 1, 34, 0
3, 3727, Note_on_c, 1, 35, 60
3, 4655, Note_on_c, 1, 41, 71
3, 4799, Note_on_c, 1, 35, 0
3, 6308, Note_on_c, 1, 38, 59
3, 6329, Note_on_c, 1, 41, 0
3, 6428, Note_on_c, 1, 38, 0
3, 6653, Note_on_c, 1, 35, 48
3, 7077, Note_on_c, 1, 35, 0
3, 7253, Note_on_c, 1, 29, 49
3, 7404, Note_on_c, 1, 29, 0
3, 7588, Note_on_c, 1, 34, 54
3, 11106, Note_on_c, 1, 34, 0
3, 11153, Note_on_c, 1, 41, 58
3, 11255, Note_on_c, 1, 29, 18
3, 11346, Note_on_c, 1, 29, 0
3, 11388, Note_on_c, 1, 41, 0
3, 11479, Note_on_c, 1, 39, 51
3, 12061, Note_on_c, 1, 34, 53
3, 12292, Note_on_c, 1, 34, 0
3, 12295, Note_on_c, 1, 39, 0
3, 12405, Note_on_c, 1, 31, 53
3, 14711, Note_on_c, 1, 33, 57
3, 14713, Note_on_c, 1, 31, 0
3, 14981, Note_on_c, 1, 33, 0
3, 14999, Note_on_c, 1, 31, 59
3, 15255, Note_on_c, 1, 31, 0
3, 15319, Note_on_c, 1, 32, 57
3, 16932, Note_on_c, 1, 30, 44
3, 17257, Note_on_c, 1, 39, 77
3, 17269, Note_on_c, 1, 30, 0
3, 17279, Note_on_c, 1, 32, 0
3, 18855, Note_on_c, 1, 38, 66
3, 18922, Note_on_c, 1, 33, 30
3, 18933, Note_on_c, 1, 39, 0
3, 18999, Note_on_c, 1, 33, 0
3, 19061, Note_on_c, 1, 38, 0
3, 19189, Note_on_c, 1, 39, 65
3, 19343, Note_on_c, 1, 39, 0
3, 19775, Note_on_c, 1, 33, 59
3, 20053, Note_on_c, 1, 33, 0
3, 20117, Note_on_c, 1, 32, 55
3, 21146, Note_on_c, 1, 44, 69
3, 22576, Note_on_c, 1, 32, 0
3, 22673, Note_on_c, 1, 36, 57
3, 22930, Note_on_c, 1, 36, 0
3, 23002, Note_on_c, 1, 44, 0
3, 23029, Note_on_c, 1, 37, 42
3, 24951, Note_on_c, 1, 32, 42
3, 24999, Note_on_c, 1, 37, 0
3, 25197, Note_on_c, 1, 32, 0
3, 25537, Note_on_c, 1, 30, 42
3, 25764, Note_on_c, 1, 30, 0
3, 25833, Note_on_c, 1, 31, 43
3, 26517, Note_on_c, 1, 31, 0
3, 26519, Note_on_c, 1, 29, 37
3, 26737, Note_on_c, 1, 29, 0
3, 26812, Note_on_c, 1, 30, 39
3, 28794, Note_on_c, 1, 30, 0
3, 28801, Note_on_c, 1, 42, 77
3, 29645, Note_on_c, 1, 42, 0
3, 29703, Note_on_c, 1, 35, 66
3, 30367, Note_on_c, 1, 34, 31
3, 30564, Note_on_c, 1, 35, 0
3, 30615, Note_on_c, 1, 34, 0
3, 30631, Note_on_c, 1, 36, 63
3, 32657, Note_on_c, 1, 36, 0
3, 32658, Note_on_c, 1, 30, 57
3, 33951, Note_on_c, 1, 27, 58
3, 34015, Note_on_c, 1, 30, 0
3, 34124, Note_on_c, 1, 27, 0
3, 34253, Note_on_c, 1, 28, 44
3, 34457, Note_on_c, 1, 28, 0
3, 34537, Note_on_c, 1, 29, 61
3, 36205, Note_on_c, 1, 36, 36
3, 36301, Note_on_c, 1, 29, 0
3, 36442, Note_on_c, 1, 36, 0
3, 36492, Note_on_c, 1, 41, 74
3, 37697, Note_on_c, 1, 36, 37
3, 37759, Note_on_c, 1, 41, 0
3, 37898, Note_on_c, 1, 36, 0
3, 38012, Note_on_c, 1, 35, 47
3, 38345, Note_on_c, 1, 35, 0
3, 38365, Note_on_c, 1, 34, 55
3, 39351, Note_on_c, 1, 41, 67
3, 39989, Note_on_c, 1, 38, 40
3, 40229, Note_on_c, 1, 41, 0
3, 40274, Note_on_c, 1, 38, 0
3, 40298, Note_on_c, 1, 46, 62
3, 41157, Note_on_c, 1, 34, 0
3, 41225, Note_on_c, 1, 38, 63
3, 41226, Note_on_c, 1, 46, 0
3, 42183, Note_on_c, 1, 38, 0
3, 42191, Note_on_c, 1, 39, 74
3, 44786, Note_on_c, 1, 37, 30
3, 44884, Note_on_c, 1, 39, 0
3, 45071, Note_on_c, 1, 38, 71
3, 45076, Note_on_c, 1, 37, 0
3, 45775, Note_on_c, 1, 34, 35
3, 45900, Note_on_c, 1, 38, 0
3, 46049, Note_on_c, 1, 37, 53
3, 46079, Note_on_c, 1, 34, 0
3, 48004, Note_on_c, 1, 42, 56
3, 48053, Note_on_c, 1, 37, 0
3, 49210, Note_on_c, 1, 34, 43
3, 49365, Note_on_c, 1, 42, 0
3, 49402, Note_on_c, 1, 34, 0
3, 49508, Note_on_c, 1, 35, 53
3, 49850, Note_on_c, 1, 35, 0
3, 49873, Note_on_c, 1, 36, 56
3, 51503, Note_on_c, 1, 34, 37
3, 51657, Note_on_c, 1, 36, 0
3, 51825, Note_on_c, 1, 34, 0
3, 51829, Note_on_c, 1, 41, 64
3, 53351, Note_on_c, 1, 34, 32
3, 53586, Note_on_c, 1, 34, 0
3, 53613, Note_on_c, 1, 41, 0
3, 53705, Note_on_c, 1, 35, 63
3, 55658, Note_on_c, 1, 40, 60
3, 55732, Note_on_c, 1, 35, 0
3, 56897, Note_on_c, 1, 35, 42
3, 57113, Note_on_c, 1, 35, 0
3, 57167, Note_on_c, 1, 40, 0
3, 57197, Note_on_c, 1, 33, 54
3, 57554, Note_on_c, 1, 33, 0
3, 57556, Note_on_c, 1, 34, 55
3, 58249, Note_on_c, 1, 41, 57
3, 58394, Note_on_c, 1, 34, 0
3, 58449, Note_on_c, 1, 41, 0
3, 58522, Note_on_c, 1, 40, 44
3, 59159, Note_on_c, 1, 33, 51
3, 59322, Note_on_c, 1, 40, 0
3, 59423, Note_on_c, 1, 33, 0
3, 59503, Note_on_c, 1, 39, 57
3, 60124, Note_on_c, 1, 34, 50
3, 60209, Note_on_c, 1, 39, 0
3, 60367, Note_on_c, 1, 34, 0
3, 60415, Note_on_c, 1, 33, 66
3, 61295, Note_on_c, 1, 33, 0
3, 61370, Note_on_c, 1, 32, 55
3, 63317, Note_on_c, 1, 39, 64
3, 63348, Note_on_c, 1, 32, 0
3, 65042, Note_on_c, 1, 37, 18
3, 65242, Note_on_c, 1, 47, 81
3, 65274, Note_on_c, 1, 37, 0
3, 65333, Note_on_c, 1, 39, 0
3, 66842, Note_on_c, 1, 37, 40
3, 67002, Note_on_c, 1, 37, 0
3, 67140, Note_on_c, 1, 47, 0
3, 67161, Note_on_c, 1, 44, 57
3, 67767, Note_on_c, 1, 41, 45
3, 67871, Note_on_c, 1, 44, 0
3, 67901, Note_on_c, 1, 41, 0
3, 68066, Note_on_c, 1, 35, 54
3, 68986, Note_on_c, 1, 35, 0
3, 69037, Note_on_c, 1, 34, 48
3, 70993, Note_on_c, 1, 41, 57
3, 71039, Note_on_c, 1, 34, 0
3, 72917, Note_on_c, 1, 39, 53
3, 72921, Note_on_c, 1, 41, 0
3, 74893, Note_on_c, 1, 33, 61
3, 74924, Note_on_c, 1, 39, 0
3, 75511, Note_on_c, 1, 39, 37
3, 75673, Note_on_c, 1, 39, 0
3, 75817, Note_on_c, 1, 45, 60
3, 76447, Note_on_c, 1, 39, 44
3, 76516, Note_on_c, 1, 33, 0
3, 76537, Note_on_c, 1, 39, 0
3, 76722, Note_on_c, 1, 45, 0
3, 76753, Note_on_c, 1, 44, 53
3, 77401, Note_on_c, 1, 38, 55
3, 77641, Note_on_c, 1, 38, 0
3, 77660, Note_on_c, 1, 44, 0
3, 77738, Note_on_c, 1, 39, 45
3, 78735, Note_on_c, 1, 32, 39
3, 78745, Note_on_c, 1, 39, 0
3, 79572, Note_on_c, 1, 32, 0
3, 79681, Note_on_c, 1, 32, 55
3, 80609, Note_on_c, 1, 32, 0
3, 80613, Note_on_c, 1, 39, 52
3, 81564, Note_on_c, 1, 33, 69
3, 81586, Note_on_c, 1, 39, 0
3, 82533, Note_on_c, 1, 33, 0
3, 82538, Note_on_c, 1, 32, 56
3, 83455, Note_on_c, 1, 38, 70
3, 83567, Note_on_c, 1, 32, 0
3, 84081, Note_on_c, 1, 32, 40
3, 84141, Note_on_c, 1, 38, 0
3, 84412, Note_on_c, 1, 32, 0
3, 84421, Note_on_c, 1, 37, 53
3, 86084, Note_on_c, 1, 51, 67
3, 86538, Note_on_c, 1, 51, 0
3, 86609, Note_on_c, 1, 49, 55
3, 87372, Note_on_c, 1, 44, 55
3, 87389, Note_on_c, 1, 49, 0
3, 87541, Note_on_c, 1, 37, 0
3, 88010, Note_on_c, 1, 42, 58
3, 88122, Note_on_c, 1, 44, 0
3, 90287, Note_on_c, 1, 37, 45
3, 91389, Note_on_c, 1, 37, 0
3, 91525, Note_on_c, 1, 34, 57
3, 91671, Note_on_c, 1, 34, 0
3, 91828, Note_on_c, 1, 42, 0
3, 91831, Note_on_c, 1, 35, 54
3, 92092, Note_on_c, 1, 35, 0
3, 92121, Note_on_c, 1, 36, 49
3, 92732, Note_on_c, 1, 43, 61
3, 92943, Note_on_c, 1, 43, 0
3, 93065, Note_on_c, 1, 48, 75
3, 94663, Note_on_c, 1, 34, 38
3, 94717, Note_on_c, 1, 36, 0
3, 94871, Note_on_c, 1, 48, 0
3, 94874, Note_on_c, 1, 34, 0
3, 94991, Note_on_c, 1, 42, 55
3, 95612, Note_on_c, 1, 36, 18
3, 95713, Note_on_c, 1, 36, 0
3, 95857, Note_on_c, 1, 42, 0
3, 95897, Note_on_c, 1, 41, 44
3, 96613, Note_on_c, 1, 36, 47
3, 96793, Note_on_c, 1, 36, 0
3, 97551, Note_on_c, 1, 30, 42
3, 97821, Note_on_c, 1, 30, 0
3, 97929, Note_on_c, 1, 29, 51
3, 97964, Note_on_c, 1, 41, 0
3, 99425, Note_on_c, 1, 36, 79
3, 99460, Note_on_c, 1, 29, 0
3, 99751, Note_on_c, 1, 36, 0
3, 99754, Note_on_c, 1, 34, 56
3, 101391, Note_on_c, 1, 38, 48
3, 101626, Note_on_c, 1, 38, 0
3, 101722, Note_on_c, 1, 46, 77
3, 101737, Note_on_c, 1, 34, 0
3, 102343, Note_on_c, 1, 38, 62
3, 102636, Note_on_c, 1, 38, 0
3, 102690, Note_on_c, 1, 46, 0
3, 102708, Note_on_c, 1, 40, 45
3, 103351, Note_on_c, 1, 37, 52
3, 103509, Note_on_c, 1, 40, 0
3, 103612, Note_on_c, 1, 37, 0
3, 103661, Note_on_c, 1, 39, 87
3, 105429, Note_on_c, 1, 39, 0
3, 106237, Note_on_c, 1, 33, 103
3, 107527, Note_on_c, 1, 32, 77
3, 107562, Note_on_c, 1, 33, 0
3, 110004, Note_on_c, 1, 32, 0
3, 110071, Note_on_c, 1, 31, 66
3, 110108, Note_on_c, 1, 32, 56
3, 110229, Note_on_c, 1, 32, 0
3, 111300, Note_on_c, 1, 31, 0
3, 111351, Note_on_c, 1, 30, 65
3, 113781, Note_on_c, 1, 30, 0
3, 113855, Note_on_c, 1, 31, 68
3, 115111, Note_on_c, 1, 31, 0
3, 115116, Note_on_c, 1, 48, 56
3, 115137, Note_on_c, 1, 32, 51
3, 117647, Note_on_c, 1, 32, 0
3, 117692, Note_on_c, 1, 40, 72
3, 117981, Note_on_c, 1, 48, 0
3, 117989, Note_on_c, 1, 40, 0
3, 118012, Note_on_c, 1, 37, 56
3, 118677, Note_on_c, 1, 34, 31
3, 118893, Note_on_c, 1, 37, 0
3, 118946, Note_on_c, 1, 34, 0
3, 118972, Note_on_c, 1, 38, 68
3, 120375, Note_on_c, 1, 30, 67
3, 120887, Note_on_c, 1, 38, 0
3, 120917, Note_on_c, 1, 30, 0
3, 120956, Note_on_c, 1, 31, 57
3, 122209, Note_on_c, 1, 34, 48
3, 122277, Note_on_c, 1, 31, 0
3, 122457, Note_on_c, 1, 34, 0
3, 122532, Note_on_c, 1, 35, 60
3, 122831, Note_on_c, 1, 36, 61
3, 122842, Note_on_c, 1, 35, 0
3, 123561, Note_on_c, 1, 34, 45
3, 123711, Note_on_c, 1, 36, 0
3, 123841, Note_on_c, 1, 43, 62
3, 123860, Note_on_c, 1, 34, 0
3, 124506, Note_on_c, 1, 35, 35
3, 124658, Note_on_c, 1, 35, 0
3, 124788, Note_on_c, 1, 38, 44
3, 124818, Note_on_c, 1, 43, 0
3, 125721, Note_on_c, 1, 38, 0
3, 125722, Note_on_c, 1, 40, 59
3, 126316, Note_on_c, 1, 32, 32
3, 126516, Note_on_c, 1, 40, 0
3, 126607, Note_on_c, 1, 32, 0
3, 126623, Note_on_c, 1, 33, 58
3, 127329, Note_on_c, 1, 32, 39
3, 127484, Note_on_c, 1, 33, 0
3, 127585, Note_on_c, 1, 40, 84
3, 127597, Note_on_c, 1, 32, 0
3, 128517, Note_on_c, 1, 40, 0
3, 128561, Note_on_c, 1, 36, 59
3, 129250, Note_on_c, 1, 33, 39
3, 129429, Note_on_c, 1, 36, 0
3, 129433, Note_on_c, 1, 33, 0
3, 129498, Note_on_c, 1, 37, 60
3, 130119, Note_on_c, 1, 33, 24
3, 130311, Note_on_c, 1, 33, 0
3, 130378, Note_on_c, 1, 37, 0
3, 130407, Note_on_c, 1, 38, 74
3, 131081, Note_on_c, 1, 33, 67
3, 131189, Note_on_c, 1, 38, 0
3, 131319, Note_on_c, 1, 33, 0
3, 131369, Note_on_c, 1, 29, 68
3, 132340, Note_on_c, 1, 33, 74
3, 132351, Note_on_c, 1, 29, 0
3, 133316, Note_on_c, 1, 32, 72
3, 133401, Note_on_c, 1, 33, 0
3, 134284, Note_on_c, 1, 32, 0
3, 134313, Note_on_c, 1, 31, 62
3, 135301, Note_on_c, 1, 31, 0
3, 135303, Note_on_c, 1, 35, 66
3, 136289, Note_on_c, 1, 38, 78
3, 136346, Note_on_c, 1, 35, 0
3, 137193, Note_on_c, 1, 38, 0
3, 137228, Note_on_c, 1, 35, 72
3, 137914, Note_on_c, 1, 34, 34
3, 138164, Note_on_c, 1, 34, 0
3, 138165, Note_on_c, 1, 35, 0
3, 138194, Note_on_c, 1, 36, 73
3, 138972, Note_on_c, 1, 34, 21
3, 139135, Note_on_c, 1, 38, 76
3, 139170, Note_on_c, 1, 36, 0
3, 139253, Note_on_c, 1, 34, 0
3, 140073, Note_on_c, 1, 38, 0
3, 140114, Note_on_c, 1, 40, 69
3, 141074, Note_on_c, 1, 34, 64
3, 141151, Note_on_c, 1, 40, 0
3, 142026, Note_on_c, 1, 33, 68
3, 142130, Note_on_c, 1, 34, 0
3, 142817, Note_on_c, 1, 36, 34
3, 142929, Note_on_c, 1, 36, 0
3, 142981, Note_on_c, 1, 40, 66
3, 143223, Note_on_c, 1, 33, 0
3, 143684, Note_on_c, 1, 36, 33
3, 143874, Note_on_c, 1, 36, 0
3, 143884, Note_on_c, 1, 40, 0
3, 143930, Note_on_c, 1, 48, 63
3, 144687, Note_on_c, 1, 36, 28
3, 144796, Note_on_c, 1, 36, 0
3, 144847, Note_on_c, 1, 43, 58
3, 144922, Note_on_c, 1, 48, 0
3, 145629, Note_on_c, 1, 36, 31
3, 145703, Note_on_c, 1, 43, 0
3, 145794, Note_on_c, 1, 36, 0
3, 145860, Note_on_c, 1, 42, 64
3, 146649, Note_on_c, 1, 36, 34
3, 146701, Note_on_c, 1, 42, 0
3, 146770, Note_on_c, 1, 36, 0
3, 146836, Note_on_c, 1, 42, 70
3, 147725, Note_on_c, 1, 42, 0
3, 147810, Note_on_c, 1, 36, 64
3, 148669, Note_on_c, 1, 36, 0
3, 148724, Note_on_c, 1, 36, 54
3, 149647, Note_on_c, 1, 36, 0
3, 149700, Note_on_c, 1, 35, 57
3, 150562, Note_on_c, 1, 35, 0
3, 150677, Note_on_c, 1, 35, 68
3, 151641, Note_on_c, 1, 47, 87
3, 151772, Note_on_c, 1, 35, 0
3, 152676, Note_on_c, 1, 39, 28
3, 152698, Note_on_c, 1, 38, 65
3, 153106, Note_on_c, 1, 38, 0
3, 153140, Note_on_c, 1, 39, 0
3, 153562, Note_on_c, 1, 40, 70
3, 154524, Note_on_c, 1, 35, 66
3, 154532, Note_on_c, 1, 40, 0
3, 154836, Note_on_c, 1, 47, 0
3, 155516, Note_on_c, 1, 28, 67
3, 155589, Note_on_c, 1, 35, 0
3, 156357, Note_on_c, 1, 28, 0
3, 156455, Note_on_c, 1, 28, 64
3, 157421, Note_on_c, 1, 35, 60
3, 157423, Note_on_c, 1, 28, 0
3, 158402, Note_on_c, 1, 39, 67
3, 158503, Note_on_c, 1, 35, 0
3, 159357, Note_on_c, 1, 39, 0
3, 159362, Note_on_c, 1, 40, 66
3, 160285, Note_on_c, 1, 34, 60
3, 160287, Note_on_c, 1, 40, 0
3, 161194, Note_on_c, 1, 34, 0
3, 161249, Note_on_c, 1, 33, 70
3, 162205, Note_on_c, 1, 33, 0
3, 162207, Note_on_c, 1, 35, 66
3, 163188, Note_on_c, 1, 35, 0
3, 163193, Note_on_c, 1, 37, 64
3, 164145, Note_on_c, 1, 38, 74
3, 164345, Note_on_c, 1, 37, 0
3, 164817, Note_on_c, 1, 37, 53
3, 164940, Note_on_c, 1, 37, 0
3, 165005, Note_on_c, 1, 38, 0
3, 165111, Note_on_c, 1, 40, 67
3, 165721, Note_on_c, 1, 35, 41
3, 165906, Note_on_c, 1, 35, 0
3, 165997, Note_on_c, 1, 40, 0
3, 166029, Note_on_c, 1, 47, 59
3, 166692, Note_on_c, 1, 35, 37
3, 166906, Note_on_c, 1, 47, 0
3, 166927, Note_on_c, 1, 35, 0
3, 166997, Note_on_c, 1, 45, 62
3, 167932, Note_on_c, 1, 40, 62
3, 168631, Note_on_c, 1, 37, 67
3, 168633, Note_on_c, 1, 40, 0
3, 168645, Note_on_c, 1, 45, 0
3, 168911, Note_on_c, 1, 37, 0
3, 168929, Note_on_c, 1, 38, 68
3, 169581, Note_on_c, 1, 37, 37
3, 169837, Note_on_c, 1, 37, 0
3, 169853, Note_on_c, 1, 50, 64
3, 169948, Note_on_c, 1, 38, 0
3, 170517, Note_on_c, 1, 37, 25
3, 170719, Note_on_c, 1, 37, 0
3, 170807, Note_on_c, 1, 45, 62
3, 170877, Note_on_c, 1, 50, 0
3, 171717, Note_on_c, 1, 45, 0
3, 171778, Note_on_c, 1, 42, 47
3, 172738, Note_on_c, 1, 42, 0
3, 172764, Note_on_c, 1, 37, 60
3, 173471, Note_on_c, 1, 34, 27
3, 173706, Note_on_c, 1, 38, 69
3, 173721, Note_on_c, 1, 37, 0
3, 173748, Note_on_c, 1, 34, 0
3, 174697, Note_on_c, 1, 33, 72
3, 174748, Note_on_c, 1, 38, 0
3, 175538, Note_on_c, 1, 33, 0
3, 175637, Note_on_c, 1, 32, 64
3, 176537, Note_on_c, 1, 32, 0
3, 176585, Note_on_c, 1, 31, 64
3, 177561, Note_on_c, 1, 44, 82
3, 177813, Note_on_c, 1, 31, 0
3, 178557, Note_on_c, 1, 43, 74
3, 178628, Note_on_c, 1, 44, 0
3, 179495, Note_on_c, 1, 31, 59
3, 180378, Note_on_c, 1, 31, 0
3, 180437, Note_on_c, 1, 39, 74
3, 180457, Note_on_c, 1, 43, 0
3, 181303, Note_on_c, 1, 39, 0
3, 181388, Note_on_c, 1, 39, 77
3, 183005, Note_on_c, 1, 34, 70
3, 183069, Note_on_c, 1, 39, 0
3, 183249, Note_on_c, 1, 34, 0
3, 183309, Note_on_c, 1, 33, 46
3, 184194, Note_on_c, 1, 33, 0
3, 184252, Note_on_c, 1, 32, 54
3, 185242, Note_on_c, 1, 39, 52
3, 185311, Note_on_c, 1, 32, 0
3, 185874, Note_on_c, 1, 32, 42
3, 186095, Note_on_c, 1, 32, 0
3, 186125, Note_on_c, 1, 39, 0
3, 186180, Note_on_c, 1, 48, 55
3, 186809, Note_on_c, 1, 33, 56
3, 186969, Note_on_c, 1, 48, 0
3, 187033, Note_on_c, 1, 33, 0
3, 187103, Note_on_c, 1, 34, 63
3, 187981, Note_on_c, 1, 34, 0
3, 188029, Note_on_c, 1, 35, 63
3, 189044, Note_on_c, 1, 41, 52
3, 189130, Note_on_c, 1, 35, 0
3, 189697, Note_on_c, 1, 35, 50
3, 189903, Note_on_c, 1, 35, 0
3, 189959, Note_on_c, 1, 41, 0
3, 190001, Note_on_c, 1, 47, 68
3, 190738, Note_on_c, 1, 35, 15
3, 190906, Note_on_c, 1, 35, 0
3, 191012, Note_on_c, 1, 41, 51
3, 191021, Note_on_c, 1, 47, 0
3, 191685, Note_on_c, 1, 35, 45
3, 191874, Note_on_c, 1, 35, 0
3, 191959, Note_on_c, 1, 41, 0
3, 191978, Note_on_c, 1, 46, 62
3, 192929, Note_on_c, 1, 33, 65
3, 193841, Note_on_c, 1, 46, 0
3, 193884, Note_on_c, 1, 33, 0
3, 193933, Note_on_c, 1, 34, 57
3, 194909, Note_on_c, 1, 40, 78
3, 195004, Note_on_c, 1, 34, 0
3, 195807, Note_on_c, 1, 40, 0
3, 195853, Note_on_c, 1, 39, 69
3, 196831, Note_on_c, 1, 34, 78
3, 196922, Note_on_c, 1, 39, 0
3, 197751, Note_on_c, 1, 34, 0
3, 197810, Note_on_c, 1, 33, 74
3, 198729, Note_on_c, 1, 31, 57
3, 198797, Note_on_c, 1, 33, 0
3, 199665, Note_on_c, 1, 31, 0
3, 199679, Note_on_c, 1, 32, 60
3, 200617, Note_on_c, 1, 39, 62
3, 200649, Note_on_c, 1, 32, 0
3, 201311, Note_on_c, 1, 32, 25
3, 201585, Note_on_c, 1, 48, 76
3, 201609, Note_on_c, 1, 32, 0
3, 202290, Note_on_c, 1, 34, 28
3, 202396, Note_on_c, 1, 39, 0
3, 202442, Note_on_c, 1, 34, 0
3, 202586, Note_on_c, 1, 38, 82
3, 203458, Note_on_c, 1, 38, 0
3, 203556, Note_on_c, 1, 39, 60
3, 204431, Note_on_c, 1, 39, 0
3, 204492, Note_on_c, 1, 33, 73
3, 204610, Note_on_c, 1, 48, 0
3, 205396, Note_on_c, 1, 33, 0
3, 205452, Note_on_c, 1, 32, 59
3, 206393, Note_on_c, 1, 38, 74
3, 206428, Note_on_c, 1, 32, 0
3, 207349, Note_on_c, 1, 37, 68
3, 207351, Note_on_c, 1, 38, 0
3, 208093, Note_on_c, 1, 34, 26
3, 208293, Note_on_c, 1, 41, 46
3, 208364, Note_on_c, 1, 37, 0
3, 208928, Note_on_c, 1, 34, 0
3, 208941, Note_on_c, 1, 37, 33
3, 209176, Note_on_c, 1, 37, 0
3, 209188, Note_on_c, 1, 41, 0
3, 209215, Note_on_c, 1, 49, 65
3, 209936, Note_on_c, 1, 37, 25
3, 210103, Note_on_c, 1, 37, 0
3, 210178, Note_on_c, 1, 43, 60
3, 210237, Note_on_c, 1, 49, 0
3, 211132, Note_on_c, 1, 43, 0
3, 211146, Note_on_c, 1, 42, 65
3, 212106, Note_on_c, 1, 37, 59
3, 213093, Note_on_c, 1, 37, 0
3, 213111, Note_on_c, 1, 30, 46
3, 213143, Note_on_c, 1, 42, 0
3, 214037, Note_on_c, 1, 35, 66
3, 214080, Note_on_c, 1, 30, 0
3, 214954, Note_on_c, 1, 35, 0
3, 214989, Note_on_c, 1, 36, 62
3, 215658, Note_on_c, 1, 34, 34
3, 215847, Note_on_c, 1, 36, 0
3, 215951, Note_on_c, 1, 43, 66
3, 216044, Note_on_c, 1, 34, 0
3, 216641, Note_on_c, 1, 36, 40
3, 216852, Note_on_c, 1, 36, 0
3, 216905, Note_on_c, 1, 43, 0
3, 216919, Note_on_c, 1, 48, 60
3, 217591, Note_on_c, 1, 36, 53
3, 217754, Note_on_c, 1, 36, 0
3, 217842, Note_on_c, 1, 48, 0
3, 217909, Note_on_c, 1, 42, 58
3, 218841, Note_on_c, 1, 42, 0
3, 218884, Note_on_c, 1, 41, 55
3, 219521, Note_on_c, 1, 30, 68
3, 219625, Note_on_c, 1, 41, 0
3, 219769, Note_on_c, 1, 30, 0
3, 219850, Note_on_c, 1, 29, 66
3, 221437, Note_on_c, 1, 36, 55
3, 221713, Note_on_c, 1, 41, 76
3, 221717, Note_on_c, 1, 36, 0
3, 222146, Note_on_c, 1, 29, 0
3, 222365, Note_on_c, 1, 33, 61
3, 222529, Note_on_c, 1, 41, 0
3, 222682, Note_on_c, 1, 33, 0
3, 222738, Note_on_c, 1, 34, 65
3, 224305, Note_on_c, 1, 32, 51
3, 224554, Note_on_c, 1, 32, 0
3, 224596, Note_on_c, 1, 34, 0
3, 224626, Note_on_c, 1, 41, 62
3, 226178, Note_on_c, 1, 41, 0
3, 226197, Note_on_c, 1, 40, 69
3, 226335, Note_on_c, 1, 40, 0
3, 226530, Note_on_c, 1, 39, 52
3, 226802, Note_on_c, 1, 39, 0
3, 227145, Note_on_c, 1, 34, 58
3, 227410, Note_on_c, 1, 34, 0
3, 227479, Note_on_c, 1, 31, 59
3, 228724, Note_on_c, 1, 39, 59
3, 228839, Note_on_c, 1, 39, 0
3, 228897, Note_on_c, 1, 31, 0
3, 229028, Note_on_c, 1, 34, 60
3, 229279, Note_on_c, 1, 34, 0
3, 229364, Note_on_c, 1, 31, 60
3, 230349, Note_on_c, 1, 31, 0
3, 230372, Note_on_c, 1, 32, 62
3, 232988, Note_on_c, 1, 44, 49
3, 233135, Note_on_c, 1, 44, 0
3, 233335, Note_on_c, 1, 32, 0
3, 233637, Note_on_c, 1, 48, 72
3, 233661, Note_on_c, 1, 32, 64
3, 233932, Note_on_c, 1, 32, 0
3, 233962, Note_on_c, 1, 31, 45
3, 233965, Note_on_c, 1, 47, 59
3, 234007, Note_on_c, 1, 48, 0
3, 234257, Note_on_c, 1, 47, 0
3, 234271, Note_on_c, 1, 31, 0
3, 234306, Note_on_c, 1, 30, 51
3, 234309, Note_on_c, 1, 46, 55
3, 237647, Note_on_c, 1, 30, 0
3, 237729, Note_on_c, 1, 31, 71
3, 237980, Note_on_c, 1, 46, 0
3, 238097, Note_on_c, 1, 31, 0
3, 238117, Note_on_c, 1, 32, 68
3, 240057, Note_on_c, 1, 39, 63
3, 240133, Note_on_c, 1, 32, 0
3, 243858, Note_on_c, 1, 34, 55
3, 243897, Note_on_c, 1, 39, 0
3, 245162, Note_on_c, 1, 34, 0
3, 245824, Note_on_c, 1, 32, 50
3, 247403, Note_on_c, 1, 30, 28
3, 247450, Note_on_c, 1, 41, 22
3, 247591, Note_on_c, 1, 41, 0
3, 247693, Note_on_c, 1, 30, 0
3, 247702, Note_on_c, 1, 44, 76
3, 247752, Note_on_c, 1, 32, 0
3, 248941, Note_on_c, 1, 33, 57
3, 249154, Note_on_c, 1, 33, 0
3, 249222, Note_on_c, 1, 44, 0
3, 249249, Note_on_c, 1, 34, 52
3, 249537, Note_on_c, 1, 34, 0
3, 249548, Note_on_c, 1, 35, 60
3, 250476, Note_on_c, 1, 41, 71
3, 250620, Note_on_c, 1, 35, 0
3, 252129, Note_on_c, 1, 38, 59
3, 252150, Note_on_c, 1, 41, 0
3, 252249, Note_on_c, 1, 38, 0
3, 252474, Note_on_c, 1, 35, 48
3, 252898, Note_on_c, 1, 35, 0
3, 253074, Note_on_c, 1, 29, 49
3, 253225, Note_on_c, 1, 29, 0
3, 253409, Note_on_c, 1, 34, 54
3, 256927, Note_on_c, 1, 34, 0
3, 256974, Note_on_c, 1, 41, 58
3, 257076, Note_on_c, 1, 29, 18
3, 257167, Note_on_c, 1, 29, 0
3, 257209, Note_on_c, 1, 41, 0
3, 257300, Note_on_c, 1, 39, 51
3, 257882, Note_on_c, 1, 34, 53
3, 258113, Note_on_c, 1, 34, 0
3, 258116, Note_on_c, 1, 39, 0
3, 258226, Note_on_c, 1, 31, 53
3, 260532, Note_on_c, 1, 33, 57
3, 260534, Note_on_c, 1, 31, 0
3, 260802, Note_on_c, 1, 33, 0
3, 260820, Note_on_c, 1, 31, 59
3, 261076, Note_on_c, 1, 31, 0
3, 261140, Note_on_c, 1, 32, 57
3, 262753, Note_on_c, 1, 30, 44
3, 263078, Note_on_c, 1, 39, 77
3, 263090, Note_on_c, 1, 30, 0
3, 263100, Note_on_c, 1, 32, 0
3, 264676, Note_on_c, 1, 38, 66
3, 264743, Note_on_c, 1, 33, 30
3, 264754, Note_on_c, 1, 39, 0
3, 264820, Note_on_c, 1, 33, 0
3, 264882, Note_on_c, 1, 38, 0
3, 265010, Note_on_c, 1, 39, 65
3, 265164, Note_on_c, 1, 39, 0
3, 265596, Note_on_c, 1, 33, 59
3, 265874, Note_on_c, 1, 33, 0
3, 265938, Note_on_c, 1, 32, 55
3, 266967, Note_on_c, 1, 44, 69
3, 268397, Note_on_c, 1, 32, 0
3, 268494, Note_on_c, 1, 36, 57
3, 268751, Note_on_c, 1, 36, 0
3, 268823, Note_on_c, 1, 44, 0
3, 268850, Note_on_c, 1, 37, 42
3, 270772, Note_on_c, 1, 32, 42
3, 270820, Note_on_c, 1, 37, 0
3, 271018, Note_on_c, 1, 32, 0
3, 271358, Note_on_c, 1, 30, 42
3, 271585, Note_on_c, 1, 30, 0
3, 271654, Note_on_c, 1, 31, 43
3, 272338, Note_on_c, 1, 31, 0
3, 272340, Note_on_c, 1, 29, 37
3, 272558, Note_on_c, 1, 29, 0
3, 272633, Note_on_c, 1, 30, 39
3, 274615, Note_on_c, 1, 30, 0
3, 274622, Note_on_c, 1, 42, 77
3, 275466, Note_on_c, 1, 42, 0
3, 275524, Note_on_c, 1, 35, 66
3, 276188, Note_on_c, 1, 34, 31
3, 276385, Note_on_c, 1, 35, 0
3, 276436, Note_on_c, 1, 34, 0
3, 276452, Note_on_c, 1, 36, 63
3, 278478, Note_on_c, 1, 36, 0
3, 278479, Note_on_c, 1, 30, 57
3, 279772, Note_on_c, 1, 27, 58
3, 279836, Note_on_c, 1, 30, 0
3, 279945, Note_on_c, 1, 27, 0
3, 280074, Note_on_c, 1, 28, 44
3, 280278, Note_on_c, 1, 28, 0
3, 280358, Note_on_c, 1, 29, 61
3, 282026, Note_on_c, 1, 36, 36
3, 282122, Note_on_c, 1, 29, 0
3, 282263, Note_on_c, 1, 36, 0
3, 282313, Note_on_c, 1, 41, 74
3, 283518, Note_on_c, 1, 36, 37
3, 283580, Note_on_c, 1, 41, 0
3, 283719, Note_on_c, 1, 36, 0
3, 283833, Note_on_c, 1, 35, 47
3, 284166, Note_on_c, 1, 35, 0
3, 284186, Note_on_c, 1, 34, 55
3, 285172, Note_on_c, 1, 41, 67
3, 285810, Note_on_c, 1, 38, 40
3, 286050, Note_on_c, 1, 41, 0
3, 286095, Note_on_c, 1, 38, 0
3, 286119, Note_on_c, 1, 46, 62
3, 286978, Note_on_c, 1, 34, 0
3, 287046, Note_on_c, 1, 38, 63
3, 287047, Note_on_c, 1, 46, 0
3, 288004, Note_on_c, 1, 38, 0
3, 288012, Note_on_c, 1, 39, 74
3, 290607, Note_on_c, 1, 37, 30
3, 290705, Note_on_c, 1, 39, 0
3, 290892, Note_on_c, 1, 38, 71
3, 290897, Note_on_c, 1, 37, 0
3, 291596, Note_on_c, 1, 34, 35
3, 291721, Note_on_c, 1, 38, 0
3, 291870, Note_on_c, 1, 37, 53
3, 291900, Note_on_c, 1, 34, 0
3, 293825, Note_on_c, 1, 42, 56
3, 293874, Note_on_c, 1, 37, 0
3, 295031, Note_on_c, 1, 34, 43
3, 295186, Note_on_c, 1, 42, 0
3, 295223, Note_on_c, 1, 34, 0
3, 295329, Note_on_c, 1, 35, 53
3, 295671, Note_on_c, 1, 35, 0
3, 295694, Note_on_c, 1, 36, 56
3, 297324, Note_on_c, 1, 34, 37
3, 297478, Note_on_c, 1, 36, 0
3, 297646, Note_on_c, 1, 34, 0
3, 297650, Note_on_c, 1, 41, 64
3, 299172, Note_on_c, 1, 34, 32
3, 299407, Note_on_c, 1, 34, 0
3, 299434, Note_on_c, 1, 41, 0
3, 299526, Note_on_c, 1, 35, 63
3, 301479, Note_on_c, 1, 40, 60
3, 301553, Note_on_c, 1, 35, 0
3, 302718, Note_on_c, 1, 35, 42
3, 302934, Note_on_c, 1, 35, 0
3, 302988, Note_on_c, 1, 40, 0
3, 303018, Note_on_c, 1, 33, 54
3, 303375, Note_on_c, 1, 33, 0
3, 303377, Note_on_c, 1, 34, 55
3, 304070, Note_on_c, 1, 41, 57
3, 304215, Note_on_c, 1, 34, 0
3, 304270, Note_on_c, 1, 41, 0
3, 304343, Note_on_c, 1, 40, 44
3, 304980, Note_on_c, 1, 33, 51
3, 305143, Note_on_c, 1, 40, 0
3, 305244, Note_on_c, 1, 33, 0
3, 305324, Note_on_c, 1, 39, 57
3, 305945, Note_on_c, 1, 34, 50
3, 306030, Note_on_c, 1, 39, 0
3, 306188, Note_on_c, 1, 34, 0
3, 306236, Note_on_c, 1, 33, 66
3, 307116, Note_on_c, 1, 33, 0
3, 307191, Note_on_c, 1, 32, 55
3, 309138, Note_on_c, 1, 39, 64
3, 309169, Note_on_c, 1, 32, 0
3, 310863, Note_on_c, 1, 37, 18
3, 311063, Note_on_c, 1, 47, 81
3, 311095, Note_on_c, 1, 37, 0
3, 311154, Note_on_c, 1, 39, 0
3, 312663, Note_on_c, 1, 37, 40
3, 312823, Note_on_c, 1, 37, 0
3, 312961, Note_on_c, 1, 47, 0
3, 312982, Note_on_c, 1, 44, 57
3, 313588, Note_on_c, 1, 41, 45
3, 313692, Note_on_c, 1, 44, 0
3, 313722, Note_on_c, 1, 41, 0
3, 313887, Note_on_c, 1, 35, 54
3, 314807, Note_on_c, 1, 35, 0
3, 314858, Note_on_c, 1, 34, 48
3, 316814, Note_on_c, 1, 41, 57
3, 316860, Note_on_c, 1, 34, 0
3, 318738, Note_on_c, 1, 39, 53
3, 318742, Note_on_c, 1, 41, 0
3, 320714, Note_on_c, 1, 33, 61
3, 320745, Note_on_c, 1, 39, 0
3, 321332, Note_on_c, 1, 39, 37
3, 321494, Note_on_c, 1, 39, 0
3, 321638, Note_on_c, 1, 45, 60
3, 322268, Note_on_c, 1, 39, 44
3, 322337, Note_on_c, 1, 33, 0
3, 322358, Note_on_c, 1, 39, 0
3, 322543, Note_on_c, 1, 45, 0
3, 322574, Note_on_c, 1, 44, 53
3, 323222, Note_on_c, 1, 38, 55
3, 323462, Note_on_c, 1, 38, 0
3, 323481, Note_on_c, 1, 44, 0
3, 323559, Note_on_c, 1, 39, 45
3, 324556, Note_on_c, 1, 32, 39
3, 324566, Note_on_c, 1, 39, 0
3, 325393, Note_on_c, 1, 32, 0
3, 325502, Note_on_c, 1, 32, 55
3, 326430, Note_on_c, 1, 32, 0
3, 326434, Note_on_c, 1, 39, 52
3, 327385, Note_on_c, 1, 33, 69
3, 327407, Note_on_c, 1, 39, 0
3, 328354, Note_on_c, 1, 33, 0
3, 328359, Note_on_c, 1, 32, 56
3, 329276, Note_on_c, 1, 38, 70
3, 329388, Note_on_c, 1, 32, 0
3, 329902, Note_on_c, 1, 32, 40
3, 329962, Note_on_c, 1, 38, 0
3, 330233, Note_on_c, 1, 32, 0
3, 330242, Note_on_c, 1, 37, 53
3, 331905, Note_on_c, 1, 51, 67
3, 332359, Note_on_c, 1, 51, 0
3, 332430, Note_on_c, 1, 49, 55
3, 333193, Note_on_c, 1, 44, 55
3, 333210, Note_on_c, 1, 49, 0
3, 333362, Note_on_c, 1, 37, 0
3, 333831, Note_on_c, 1, 42, 58
3, 333943, Note_on_c, 1, 44, 0
3, 336108, Note_on_c, 1, 37, 45
3, 337210, Note_on_c, 1, 37, 0
3, 337346, Note_on_c, 1, 34, 57
3, 337492, Note_on_c, 1, 34, 0
3, 337649, Note_on_c, 1, 42, 0
3, 337652, Note_on_c, 1, 35, 54
3, 337913, Note_on_c, 1, 35, 0
3, 337942, Note_on_c, 1, 36, 49
3, 338553, Note_on_c, 1, 43, 61
3, 338764, Note_on_c, 1, 43, 0
3, 338886, Note_on_c, 1, 48, 75
3, 340484, Note_on_c, 1, 34, 38
3, 340538, Note_on_c, 1, 36, 0
3, 340692, Note_on_c, 1, 48, 0
3, 340695, Note_on_c, 1, 34, 0
3, 340812, Note_on_c, 1, 42, 55
3, 341433, Note_on_c, 1, 36, 18
3, 341534, Note_on_c, 1, 36, 0
3, 341678, Note_on_c, 1, 42, 0
3, 341718, Note_on_c, 1, 41, 44
3, 342434, Note_on_c, 1, 36, 47
3, 342614, Note_on_c, 1, 36, 0
3, 343372, Note_on_c, 1, 30, 42
3, 343642, Note_on_c, 1, 30, 0
3, 343750, Note_on_c, 1, 29, 51
3, 343785, Note_on_c, 1, 41, 0
3, 345246, Note_on_c, 1, 36, 79
3, 345281, Note_on_c, 1, 29, 0
3, 345572, Note_on_c, 1, 36, 0
3, 345575, Note_on_c, 1, 34, 56
3, 347212, Note_on_c, 1, 38, 48
3, 347447, Note_on_c, 1, 38, 0
3, 347543, Note_on_c, 1, 46, 77
3, 347558, Note_on_c, 1, 34, 0
3, 348164, Note_on_c, 1, 38, 62
3, 348457, Note_on_c, 1, 38, 0
3, 348511, Note_on_c, 1, 46, 0
3, 348529, Note_on_c, 1, 40, 45
3, 349172, Note_on_c, 1, 37, 52
3, 349330, Note_on_c, 1, 40, 0
3, 349433, Note_on_c, 1, 37, 0
3, 349482, Note_on_c, 1, 39, 87
3, 351250, Note_on_c, 1, 39, 0
3, 352058, Note_on_c, 1, 33, 103
3, 353348, Note_on_c, 1, 32, 77
3, 353383, Note_on_c, 1, 33, 0
3, 355825, Note_on_c, 1, 32, 0
3, 355892, Note_on_c, 1, 31, 66
3, 355929, Note_on_c, 1, 32, 56
3, 356050, Note_on_c, 1, 32, 0
3, 357121, Note_on_c, 1, 31, 0
3, 357172, Note_on_c, 1, 30, 65
3, 359602, Note_on_c, 1, 30, 0
3, 359676, Note_on_c, 1, 31, 68
3, 360932, Note_on_c, 1, 31, 0
3, 360937, Note_on_c, 1, 48, 56
3, 360958, Note_on_c, 1, 32, 51
3, 363468, Note_on_c, 1, 32, 0
3, 363513, Note_on_c, 1, 40, 72
3, 363802, Note_on_c, 1, 48, 0
3, 363810, Note_on_c, 1, 40, 0
3, 363833, Note_on_c, 1, 37, 56
3, 364498, Note_on_c, 1, 34, 31
3, 364714, Note_on_c, 1, 37, 0
3, 364767, Note_on_c, 1, 34, 0
3, 364793, Note_on_c, 1, 38, 68
3, 366196, Note_on_c, 1, 30, 67
3, 366708, Note_on_c, 1, 38, 0
3, 366738, Note_on_c, 1, 30, 0
3, 366777, Note_on_c, 1, 31, 57
3, 368030, Note_on_c, 1, 34, 48
3, 368098, Note_on_c, 1, 31, 0
3, 368278, Note_on_c, 1, 34, 0
3, 368353, Note_on_c, 1, 35, 60
3, 368652, Note_on_c, 1, 36, 61
3, 368663, Note_on_c, 1, 35, 0
3, 369382, Note_on_c, 1, 34, 45
3, 369532, Note_on_c, 1, 36, 0
3, 369662, Note_on_c, 1, 43, 62
3, 369681, Note_on_c, 1, 34, 0
3, 370327, Note_on_c, 1, 35, 35
3, 370479, Note_on_c, 1, 35, 0
3, 370609, Note_on_c, 1, 38, 44
3, 370639, Note_on_c, 1, 43, 0
3, 371542, Note_on_c, 1, 38, 0
3, 371543, Note_on_c, 1, 40, 59
3, 372137, Note_on_c, 1, 32, 32
3, 372337, Note_on_c, 1, 40, 0
3, 372428, Note_on_c, 1, 32, 0
3, 372444, Note_on_c, 1, 33, 58
3, 373150, Note_on_c, 1, 32, 39
3, 373305, Note_on_c, 1, 33, 0
3, 373406, Note_on_c, 1, 40, 84
3, 373418, Note_on_c, 1, 32, 0
3, 374338, Note_on_c, 1, 40, 0
3, 374382, Note_on_c, 1, 36, 59
3, 375071, Note_on_c, 1, 33, 39
3, 375250, Note_on_c, 1, 36, 0
3, 375254, Note_on_c, 1, 33, 0
3, 375319, Note_on_c, 1, 37, 60
3, 375940, Note_on_c, 1, 33, 24
3, 376132, Note_on_c, 1, 33, 0
3, 376199, Note_on_c, 1, 37, 0
3, 376228, Note_on_c, 1, 38, 74
3, 376902, Note_on_c, 1, 33, 67
3, 377010, Note_on_c, 1, 38, 0
3, 377140, Note_on_c, 1, 33, 0
3, 377190, Note_on_c, 1, 29, 68
3, 378161, Note_on_c, 1, 33, 74
3, 378172, Note_on_c, 1, 29, 0
3, 379137, Note_on_c, 1, 32, 72
3, 379222, Note_on_c, 1, 33, 0
3, 380105, Note_on_c, 1, 32, 0
3, 380134, Note_on_c, 1, 31, 62
3, 381122, Note_on_c, 1, 31, 0
3, 381124, Note_on_c, 1, 35, 66
3, 382110, Note_on_c, 1, 38, 78
3, 382167, Note_on_c, 1, 35, 0
3, 383014, Note_on_c, 1, 38, 0
3, 383049, Note_on_c, 1, 35, 72
3, 383735, Note_on_c, 1, 34, 34
3, 383985, Note_on_c, 1, 34, 0
3, 383986, Note_on_c, 1, 35, 0
3, 384015, Note_on_c, 1, 36, 73
3, 384793, Note_on_c, 1, 34, 21
3, 384956, Note_on_c, 1, 38, 76
3, 384991, Note_on_c, 1, 36, 0
3, 385074, Note_on_c, 1, 34, 0
3, 385894, Note_on_c, 1, 38, 0
3, 385935, Note_on_c, 1, 40, 69
3, 386895, Note_on_c, 1, 34, 64
3, 386972, Note_on_c, 1, 40, 0
3, 387847, Note_on_c, 1, 33, 68
3, 387951, Note_on_c, 1, 34, 0
3, 388638, Note_on_c, 1, 36, 34
3, 388750, Note_on_c, 1, 36, 0
3, 388802, Note_on_c, 1, 40, 66
3, 389044, Note_on_c, 1, 33, 0
3, 389505, Note_on_c, 1, 36, 33
3, 389695, Note_on_c, 1, 36, 0
3, 389705, Note_on_c, 1, 40, 0
3, 389751, Note_on_c, 1, 48, 63
3, 390508, Note_on_c, 1, 36, 28
3, 390617, Note_on_c, 1, 36, 0
3, 390668, Note_on_c, 1, 43, 58
3, 390743, Note_on_c, 1, 48, 0
3, 391450, Note_on_c, 1, 36, 31
3, 391524, Note_on_c, 1, 43, 0
3, 391615, Note_on_c, 1, 36, 0
3, 391681, Note_on_c, 1, 42, 64
3, 392470, Note_on_c, 1, 36, 34
3, 392522, Note_on_c, 1, 42, 0
3, 392591, Note_on_c, 1, 36, 0
3, 392657, Note_on_c, 1, 42, 70
3, 393546, Note_on_c, 1, 42, 0
3, 393631, Note_on_c, 1, 36, 64
3, 394490, Note_on_c, 1, 36, 0
3, 394545, Note_on_c, 1, 36, 54
3, 395468, Note_on_c, 1, 36, 0
3, 395521, Note_on_c, 1, 35, 57
3, 396383, Note_on_c, 1, 35, 0
3, 396498, Note_on_c, 1, 35, 68
3, 397462, Note_on_c, 1, 47, 87
3, 397593, Note_on_c, 1, 35, 0
3, 398497, Note_on_c, 1, 39, 28
3, 398519, Note_on_c, 1, 38, 65
3, 398927, Note_on_c, 1, 38, 0
3, 398961, Note_on_c, 1, 39, 0
3, 399383, Note_on_c, 1, 40, 70
3, 400345, Note_on_c, 1, 35, 66
3, 400353, Note_on_c, 1, 40, 0
3, 400657, Note_on_c, 1, 47, 0
3, 401337, Note_on_c, 1, 28, 67
3, 401410, Note_on_c, 1, 35, 0
3, 402178, Note_on_c, 1, 28, 0
3, 402276, Note_on_c, 1, 28, 64
3, 403242, Note_on_c, 1, 35, 60
3, 403244, Note_on_c, 1, 28, 0
3, 404223, Note_on_c, 1, 39, 67
3, 404324, Note_on_c, 1, 35, 0
3, 405178, Note_on_c, 1, 39, 0
3, 405183, Note_on_c, 1, 40, 66
3, 406106, Note_on_c, 1, 34, 60
3, 406108, Note_on_c, 1, 40, 0
3, 407015, Note_on_c, 1, 34, 0
3, 407070, Note_on_c, 1, 33, 70
3, 408026, Note_on_c, 1, 33, 0
3, 408028, Note_on_c, 1, 35, 66
3, 409009, Note_on_c, 1, 35, 0
3, 409014, Note_on_c, 1, 37, 64
3, 409966, Note_on_c, 1, 38, 74
3, 410166, Note_on_c, 1, 37, 0
3, 410638, Note_on_c, 1, 37, 53
3, 410761, Note_on_c, 1, 37, 0
3, 410826, Note_on_c, 1, 38, 0
3, 410932, Note_on_c, 1, 40, 67
3, 411542, Note_on_c, 1, 35, 41
3, 411727, Note_on_c, 1, 35, 0
3, 411818, Note_on_c, 1, 40, 0
3, 411850, Note_on_c, 1, 47, 59
3, 412513, Note_on_c, 1, 35, 37
3, 412727, Note_on_c, 1, 47, 0
3, 412748, Note_on_c, 1, 35, 0
3, 412818, Note_on_c, 1, 45, 62
3, 413753, Note_on_c, 1, 40, 62
3, 414452, Note_on_c, 1, 37, 67
3, 414454, Note_on_c, 1, 40, 0
3, 414466, Note_on_c, 1, 45, 0
3, 414732, Note_on_c, 1, 37, 0
3, 414750, Note_on_c, 1, 38, 68
3, 415402, Note_on_c, 1, 37, 37
3, 415658, Note_on_c, 1, 37, 0
3, 415674, Note_on_c, 1, 50, 64
3, 415769, Note_on_c, 1, 38, 0
3, 416338, Note_on_c, 1, 37, 25
3, 416540, Note_on_c, 1, 37, 0
3, 416628, Note_on_c, 1, 45, 62
3, 416698, Note_on_c, 1, 50, 0
3, 417538, Note_on_c, 1, 45, 0
3, 417599, Note_on_c, 1, 42, 47
3, 418559, Note_on_c, 1, 42, 0
3, 418585, Note_on_c, 1, 37, 60
3, 419292, Note_on_c, 1, 34, 27
3, 419527, Note_on_c, 1, 38, 69
3, 419542, Note_on_c, 1, 37, 0
3, 419569, Note_on_c, 1, 34, 0
3, 420518, Note_on_c, 1, 33, 72
3, 420569, Note_on_c, 1, 38, 0
3, 421359, Note_on_c, 1, 33, 0
3, 421458, Note_on_c, 1, 32, 64
3, 422358, Note_on_c, 1, 32, 0
3, 422406, Note_on_c, 1, 31, 64
3, 423382, Note_on_c, 1, 44, 82
3, 423634, Note_on_c, 1, 31, 0
3, 424378, Note_on_c, 1, 43, 74
3, 424449, Note_on_c, 1, 44, 0
3, 425316, Note_on_c, 1, 31, 59
3, 426199, Note_on_c, 1, 31, 0
3, 426258, Note_on_c, 1, 39, 74
3, 426278, Note_on_c, 1, 43, 0
3, 427124, Note_on_c, 1, 39, 0
3, 427209, Note_on_c, 1, 39, 77
3, 428826, Note_on_c, 1, 34, 70
3, 428890, Note_on_c, 1, 39, 0
3, 429070, Note_on_c, 1, 34, 0
3, 429130, Note_on_c, 1, 33, 46
3, 430015, Note_on_c, 1, 33, 0
3, 430073, Note_on_c, 1, 32, 54
3, 431063, Note_on_c, 1, 39, 52
3, 431132, Note_on_c, 1, 32, 0
3, 431695, Note_on_c, 1, 32, 42
3, 431916, Note_on_c, 1, 32, 0
3, 431946, Note_on_c, 1, 39, 0
3, 432001, Note_on_c, 1, 48, 55
3, 432630, Note_on_c, 1, 33, 56
3, 432790, Note_on_c, 1, 48, 0
3, 432854, Note_on_c, 1, 33, 0
3, 432924, Note_on_c, 1, 34, 63
3, 433802, Note_on_c, 1, 34, 0
3, 433850, Note_on_c, 1, 35, 63
3, 434865, Note_on_c, 1, 41, 52
3, 434951, Note_on_c, 1, 35, 0
3, 435518, Note_on_c, 1, 35, 50
3, 435724, Note_on_c, 1, 35, 0
3, 435780, Note_on_c, 1, 41, 0
3, 435822, Note_on_c, 1, 47, 68
3, 436559, Note_on_c, 1, 35, 15
3, 436727, Note_on_c, 1, 35, 0
3, 436833, Note_on_c, 1, 41, 51
3, 436842, Note_on_c, 1, 47, 0
3, 437506, Note_on_c, 1, 35, 45
3, 437695, Note_on_c, 1, 35, 0
3, 437780, Note_on_c, 1, 41, 0
3, 437799, Note_on_c, 1, 46, 62
3, 438750, Note_on_c, 1, 33, 65
3, 439662, Note_on_c, 1, 46, 0
3, 439705, Note_on_c, 1, 33, 0
3, 439754, Note_on_c, 1, 34, 57
3, 440730, Note_on_c, 1, 40, 78
3, 440825, Note_on_c, 1, 34, 0
3, 441628, Note_on_c, 1, 40, 0
3, 441674, Note_on_c, 1, 39, 69
3, 442652, Note_on_c, 1, 34, 78
3, 442743, Note_on_c, 1, 39, 0
3, 443572, Note_on_c, 1, 34, 0
3, 443631, Note_on_c, 1, 33, 74
3, 444550, Note_on_c, 1, 31, 57
3, 444618, Note_on_c, 1, 33, 0
3, 445486, Note_on_c, 1, 31, 0
3, 445500, Note_on_c, 1, 32, 60
3, 446438, Note_on_c, 1, 39, 62
3, 446470, Note_on_c, 1, 32, 0
3, 447132, Note_on_c, 1, 32, 25
3, 447406, Note_on_c, 1, 48, 76
3, 447430, Note_on_c, 1, 32, 0
3, 448111, Note_on_c, 1, 34, 28
3, 448217, Note_on_c, 1, 39, 0
3, 448263, Note_on_c, 1, 34, 0
3, 448407, Note_on_c, 1, 38, 82
3, 449279, Note_on_c, 1, 38, 0
3, 449377, Note_on_c, 1, 39, 60
3, 450252, Note_on_c, 1, 39, 0
3, 450313, Note_on_c, 1, 33, 73
3, 450431, Note_on_c, 1, 48, 0
3, 451217, Note_on_c, 1, 33, 0
3, 451273, Note_on_c, 1, 32, 59
3, 452214, Note_on_c, 1, 38, 74
3, 452249, Note_on_c, 1, 32, 0
3, 453170, Note_on_c, 1, 37, 68
3, 453172, Note_on_c, 1, 38, 0
3, 453914, Note_on_c, 1, 34, 26
3, 454114, Note_on_c, 1, 41, 46
3, 454185, Note_on_c, 1, 37, 0
3, 454749, Note_on_c, 1, 34, 0
3, 454762, Note_on_c, 1, 37, 33
3, 454997, Note_on_c, 1, 37, 0
3, 455009, Note_on_c, 1, 41, 0
3, 455036, Note_on_c, 1, 49, 65
3, 455757, Note_on_c, 1, 37, 25
3, 455924, Note_on_c, 1, 37, 0
3, 455999, Note_on_c, 1, 43, 60
3, 456058, Note_on_c, 1, 49, 0
3, 456953, Note_on_c, 1, 43, 0
3, 456967, Note_on_c, 1, 42, 65
3, 457927, Note_on_c, 1, 37, 59
3, 458914, Note_on_c, 1, 37, 0
3, 458932, Note_on_c, 1, 30, 46
3, 458964, Note_on_c, 1, 42, 0
3, 459858, Note_on_c, 1, 35, 66
3, 459901, Note_on_c, 1, 30, 0
3, 460775, Note_on_c, 1, 35, 0
3, 460810, Note_on_c, 1, 36, 62
3, 461479, Note_on_c, 1, 34, 34
3, 461668, Note_on_c, 1, 36, 0
3, 461772, Note_on_c, 1, 43, 66
3, 461865, Note_on_c, 1, 34, 0
3, 462462, Note_on_c, 1, 36, 40
3, 462673, Note_on_c, 1, 36, 0
3, 462726, Note_on_c, 1, 43, 0
3, 462740, Note_on_c, 1, 48, 60
3, 463412, Note_on_c, 1, 36, 53
3, 463575, Note_on_c, 1, 36, 0
3, 463663, Note_on_c, 1, 48, 0
3, 463730, Note_on_c, 1, 42, 58
3, 464662, Note_on_c, 1, 42, 0
3, 464705, Note_on_c, 1, 41, 55
3, 465342, Note_on_c, 1, 30, 68
3, 465446, Note_on_c, 1, 41, 0
3, 465590, Note_on_c, 1, 30, 0
3, 465671, Note_on_c, 1, 29, 66
3, 467258, Note_on_c, 1, 36, 55
3, 467534, Note_on_c, 1, 41, 76
3, 467538, Note_on_c, 1, 36, 0
3, 467967, Note_on_c, 1, 29, 0
3, 468186, Note_on_c, 1, 33, 61
3, 468350, Note_on_c, 1, 41, 0
3, 468503, Note_on_c, 1, 33, 0
3, 468559, Note_on_c, 1, 34, 65
3, 470126, Note_on_c, 1, 32, 51
3, 470375, Note_on_c, 1, 32, 0
3, 470417, Note_on_c, 1, 34, 0
3, 470447, Note_on_c, 1, 41, 62
3, 471999, Note_on_c, 1, 41, 0
3, 472018, Note_on_c, 1, 40, 69
3, 472156, Note_on_c, 1, 40, 0
3, 472351, Note_on_c, 1, 39, 52
3, 472623, Note_on_c, 1, 39, 0
3, 472966, Note_on_c, 1, 34, 58
3, 473231, Note_on_c, 1, 34, 0
3, 473300, Note_on_c, 1, 31, 59
3, 474545, Note_on_c, 1, 39, 59
3, 474660, Note_on_c, 1, 39, 0
3, 474718, Note_on_c, 1, 31, 0
3, 474849, Note_on_c, 1, 34, 60
3, 475100, Note_on_c, 1, 34, 0
3, 475185, Note_on_c, 1, 31, 60
3, 476170, Note_on_c, 1, 31, 0
3, 476193, Note_on_c, 1, 32, 62
3, 478809, Note_on_c, 1, 44, 49
3, 478956, Note_on_c, 1, 44, 0
3, 479156, Note_on_c, 1, 32, 0
3, 479458, Note_on_c, 1, 48, 72
3, 479482, Note_on_c, 1, 32, 64
3, 479753, Note_on_c, 1, 32, 0
3, 479783, Note_on_c, 1, 31, 45
3, 479786, Note_on_c, 1, 47, 59
3, 479828, Note_on_c, 1, 48, 0
3, 480078, Note_on_c, 1, 47, 0
3, 480092, Note_on_c, 1, 31, 0
3, 480127, Note_on_c, 1, 30, 51
3, 480130, Note_on_c, 1, 46, 55
3, 483468, Note_on_c, 1, 30, 0
3, 483550, Note_on_c, 1, 31, 71
3, 483801, Note_on_c, 1, 46, 0
3, 483918, Note_on_c, 1, 31, 0
3, 483938, Note_on_c, 1, 32, 68
3, 485878, Note_on_c, 1, 39, 63
3, 485954, Note_on_c, 1, 32, 0
3, 489679, Note_on_c, 1, 34, 55
3, 489718, Note_on_c, 1, 39, 0
3, 490983, Note_on_c, 1, 34, 0
3, 491523, Note_on_c, 1, 32, 50
3, 493102, Note_on_c, 1, 30, 28
3, 493149, Note_on_c, 1, 41, 22
3, 493290, Note_on_c, 1, 41, 0
3, 493392, Note_on_c, 1, 30, 0
3, 493401, Note_on_c, 1, 44, 76
3, 493451, Note_on_c, 1, 32, 0
3, 494640, Note_on_c, 1, 33, 57
3, 494853, Note_on_c, 1, 33, 0
3, 494921, Note_on_c, 1, 44, 0
3, 494948, Note_on_c, 1, 34, 52
3, 495236, Note_on_c, 1, 34, 0
3, 495247, Note_on_c, 1, 35, 60
3, 496175, Note_on_c, 1, 41, 71
3, 496319, Note_on_c, 1, 35, 0
3, 497828, Note_on_c, 1, 38, 59
3, 497849, Note_on_c, 1, 41, 0
3, 497948, Note_on_c, 1, 38, 0
3, 498173, Note_on_c, 1, 35, 48
3, 498597, Note_on_c, 1, 35, 0
3, 498773, Note_on_c, 1, 29, 49
3, 498924, Note_on_c, 1, 29, 0
3, 499108, Note_on_c, 1, 34, 54
3, 502626, Note_on_c, 1, 34, 0
3, 502673, Note_on_c, 1, 41, 58
3, 502775, Note_on_c, 1, 29, 18
3, 502866, Note_on_c, 1, 29, 0
3, 502908, Note_on_c, 1, 41, 0
3, 502999, Note_on_c, 1, 39, 51
3, 503581, Note_on_c, 1, 34, 53
3, 503812, Note_on_c, 1, 34, 0
3, 503815, Note_on_c, 1, 39, 0
3, 503925, Note_on_c, 1, 31, 53
3, 506231, Note_on_c, 1, 33, 57
3, 506233, Note_on_c, 1, 31, 0
3, 506501, Note_on_c, 1, 33, 0
3, 506519, Note_on_c, 1, 31, 59
3, 506775, Note_on_c, 1, 31, 0
3, 506839, Note_on_c, 1, 32, 57
3, 508452, Note_on_c, 1, 30, 44
3, 508777, Note_on_c, 1, 39, 77
3, 508789, Note_on_c, 1, 30, 0
3, 508799, Note_on_c, 1, 32, 0
3, 510375, Note_on_c, 1, 38, 66
3, 510442, Note_on_c, 1, 33, 30
3, 510453, Note_on_c, 1, 39, 0
3, 510519, Note_on_c, 1, 33, 0
3, 510581, Note_on_c, 1, 38, 0
3, 510709, Note_on_c, 1, 39, 65
3, 510863, Note_on_c, 1, 39, 0
3, 511295, Note_on_c, 1, 33, 59
3, 511573, Note_on_c, 1, 33, 0
3, 511637, Note_on_c, 1, 32, 55
3, 512666, Note_on_c, 1, 44, 69
3, 514096, Note_on_c, 1, 32, 0
3, 514193, Note_on_c, 1, 36, 57
3, 514450, Note_on_c, 1, 36, 0
3, 514522, Note_on_c, 1, 44, 0
3, 514549, Note_on_c, 1, 37, 42
3, 516471, Note_on_c, 1, 32, 42
3, 516519, Note_on_c, 1, 37, 0
3, 516717, Note_on_c, 1, 32, 0
3, 517057, Note_on_c, 1, 30, 42
3, 517284, Note_on_c, 1, 30, 0
3, 517353, Note_on_c, 1, 31, 43
3, 518037, Note_on_c, 1, 31, 0
3, 518039, Note_on_c, 1, 29, 37
3, 518257, Note_on_c, 1, 29, 0
3, 518332, Note_on_c, 1, 30, 39
3, 520314, Note_on_c, 1, 30, 0
3, 520321, Note_on_c, 1, 42, 77
3, 521165, Note_on_c, 1, 42, 0
3, 521223, Note_on_c, 1, 35, 66
3, 521887, Note_on_c, 1, 34, 31
3, 522084, Note_on_c, 1, 35, 0
3, 522135, Note_on_c, 1, 34, 0
3, 522151, Note_on_c, 1, 36, 63
3, 524177, Note_on_c, 1, 36, 0
3, 524178, Note_on_c, 1, 30, 57
3, 525471, Note_on_c, 1, 27, 58
3, 525535, Note_on_c, 1, 30, 0
3, 525644, Note_on_c, 1, 27, 0
3, 525773, Note_on_c, 1, 28, 44
3, 525977, Note_on_c, 1, 28, 0
3, 526057, Note_on_c, 1, 29, 61
3, 527725, Note_on_c, 1, 36, 36
3, 527821, Note_on_c, 1, 29, 0
3, 527962, Note_on_c, 1, 36, 0
3, 528012, Note_on_c, 1, 41, 74
3, 529217, Note_on_c, 1, 36, 37
3, 529279, Note_on_c, 1, 41, 0
3, 529418, Note_on_c, 1, 36, 0
3, 529532, Note_on_c, 1, 35, 47
3, 529865, Note_on_c, 1, 35, 0
3, 529885, Note_on_c, 1, 34, 55
3, 530871, Note_on_c, 1, 41, 67
3, 531509, Note_on_c, 1, 38, 40
3, 531749, Note_on_c, 1, 41, 0
3, 531794, Note_on_c, 1, 38, 0
3, 531818, Note_on_c, 1, 46, 62
3, 532677, Note_on_c, 1, 34, 0
3, 532745, Note_on_c, 1, 38, 63
3, 532746, Note_on_c, 1, 46, 0
3, 533703, Note_on_c, 1, 38, 0
3, 533711, Note_on_c, 1, 39, 74
3, 536306, Note_on_c, 1, 37, 30
3, 536404, Note_on_c, 1, 39, 0
3, 536591, Note_on_c, 1, 38, 71
3, 536596, Note_on_c, 1, 37, 0
3, 537295, Note_on_c, 1, 34, 35
3, 537420, Note_on_c, 1, 38, 0
3, 537569, Note_on_c, 1, 37, 53
3, 537599, Note_on_c, 1, 34, 0
3, 539524, Note_on_c, 1, 42, 56
3, 539573, Note_on_c, 1, 37, 0
3, 540730, Note_on_c, 1, 34, 43
3, 540885, Note_on_c, 1, 42, 0
3, 540922, Note_on_c, 1, 34, 0
3, 541028, Note_on_c, 1, 35, 53
3, 541370, Note_on_c, 1, 35, 0
3, 541393, Note_on_c, 1, 36, 56
3, 543023, Note_on_c, 1, 34, 37
3, 543177, Note_on_c, 1, 36, 0
3, 543345, Note_on_c, 1, 34, 0
3, 543349, Note_on_c, 1, 41, 64
3, 544871, Note_on_c, 1, 34, 32
3, 545106, Note_on_c, 1, 34, 0
3, 545133, Note_on_c, 1, 41, 0
3, 545225, Note_on_c, 1, 35, 63
3, 547178, Note_on_c, 1, 40, 60
3, 547252, Note_on_c, 1, 35, 0
3, 548417, Note_on_c, 1, 35, 42
3, 548633, Note_on_c, 1, 35, 0
3, 548687, Note_on_c, 1, 40, 0
3, 548717, Note_on_c, 1, 33, 54
3, 549074, Note_on_c, 1, 33, 0
3, 549076, Note_on_c, 1, 34, 55
3, 549769, Note_on_c, 1, 41, 57
3, 549914, Note_on_c, 1, 34, 0
3, 549969, Note_on_c, 1, 41, 0
3, 550042, Note_on_c, 1, 40, 44
3, 550679, Note_on_c, 1, 33, 51
3, 550842, Note_on_c, 1, 40, 0
3, 550943, Note_on_c, 1, 33, 0
3, 551023, Note_on_c, 1, 39, 57
3, 551644, Note_on_c, 1, 34, 50
3, 551729, Note_on_c, 1, 39, 0
3, 551887, Note_on_c, 1, 34, 0
3, 551935, Note_on_c, 1, 33, 66
3, 552815, Note_on_c, 1, 33, 0
3, 552890, Note_on_c, 1, 32, 55
3, 554837, Note_on_c, 1, 39, 64
3, 554868, Note_on_c, 1, 32, 0
3, 556562, Note_on_c, 1, 37, 18
3, 556762, Note_on_c, 1, 47, 81
3, 556794, Note_on_c, 1, 37, 0
3, 556853, Note_on_c, 1, 39, 0
3, 558362, Note_on_c, 1, 37, 40
3, 558522, Note_on_c, 1, 37, 0
3, 558660, Note_on_c, 1, 47, 0
3, 558681, Note_on_c, 1, 44, 57
3, 559287, Note_on_c, 1, 41, 45
3, 559391, Note_on_c, 1, 44, 0
3, 559421, Note_on_c, 1, 41, 0
3, 559586, Note_on_c, 1, 35, 54
3, 560506, Note_on_c, 1, 35, 0
3, 560557, Note_on_c, 1, 34, 48
3, 562513, Note_on_c, 1, 41, 57
3, 562559, Note_on_c, 1, 34, 0
3, 564437, Note_on_c, 1, 39, 53
3, 564441, Note_on_c, 1, 41, 0
3, 566413, Note_on_c, 1, 33, 61
3, 566444, Note_on_c, 1, 39, 0
3, 567031, Note_on_c, 1, 39, 37
3, 567193, Note_on_c, 1, 39, 0
3, 567337, Note_on_c, 1, 45, 60
3, 567967, Note_on_c, 1, 39, 44
3, 568036, Note_on_c, 1, 33, 0
3, 568057, Note_on_c, 1, 39, 0
3, 568242, Note_on_c, 1, 45, 0
3, 568273, Note_on_c, 1, 44, 53
3, 568921, Note_on_c, 1, 38, 55
3, 569161, Note_on_c, 1, 38, 0
3, 569180, Note_on_c, 1, 44, 0
3, 569258, Note_on_c, 1, 39, 45
3, 570255, Note_on_c, 1, 32, 39
3, 570265, Note_on_c, 1, 39, 0
3, 571092, Note_on_c, 1, 32, 0
3, 571201, Note_on_c, 1, 32, 55
3, 572129, Note_on_c, 1, 32, 0
3, 572133, Note_on_c, 1, 39, 52
3, 573084, Note_on_c, 1, 33, 69
3, 573106, Note_on_c, 1, 39, 0
3, 574053, Note_on_c, 1, 33, 0
3, 574058, Note_on_c, 1, 32, 56
3, 574975, Note_on_c, 1, 38, 70
3, 575087, Note_on_c, 1, 32, 0
3, 575601, Note_on_c, 1, 32, 40
3, 575661, Note_on_c, 1, 38, 0
3, 575932, Note_on_c, 1, 32, 0
3, 575941, Note_on_c, 1, 37, 53
3, 577604, Note_on_c, 1, 51, 67
3, 578058, Note_on_c, 1, 51, 0
3, 578129, Note_on_c, 1, 49, 55
3, 578892, Note_on_c, 1, 44, 55
3, 578909, Note_on_c, 1, 49, 0
3, 579061, Note_on_c, 1, 37, 0
3, 579530, Note_on_c, 1, 42, 58
3, 579642, Note_on_c, 1, 44, 0
3, 581807, Note_on_c, 1, 37, 45
3, 582909, Note_on_c, 1, 37, 0
3, 583045, Note_on_c, 1, 34, 57
3, 583191, Note_on_c, 1, 34, 0
3, 583348, Note_on_c, 1, 42, 0
3, 583351, Note_on_c, 1, 35, 54
3, 583612, Note_on_c, 1, 35, 0
3, 583641, Note_on_c, 1, 36, 49
3, 584252, Note_on_c, 1, 43, 61
3, 584463, Note_on_c, 1, 43, 0
3, 584585, Note_on_c, 1, 48, 75
3, 586183, Note_on_c, 1, 34, 38
3, 586237, Note_on_c, 1, 36, 0
3, 586391, Note_on_c, 1, 48, 0
3, 586394, Note_on_c, 1, 34, 0
3, 586511, Note_on_c, 1, 42, 55
3, 587132, Note_on_c, 1, 36, 18
3, 587233, Note_on_c, 1, 36, 0
3, 587377, Note_on_c, 1, 42, 0
3, 587417, Note_on_c, 1, 41, 44
3, 588133, Note_on_c, 1, 36, 47
3, 588313, Note_on_c, 1, 36, 0
3, 589071, Note_on_c, 1, 30, 42
3, 589341, Note_on_c, 1, 30, 0
3, 589449, Note_on_c, 1, 29, 51
3, 589484, Note_on_c, 1, 41, 0
3, 590945, Note_on_c, 1, 36, 79
3, 590980, Note_on_c, 1, 29, 0
3, 591271, Note_on_c, 1, 36, 0
3, 591274, Note_on_c, 1, 34, 56
3, 592911, Note_on_c, 1, 38, 48
3, 593146, Note_on_c, 1, 38, 0
3, 593242, Note_on_c, 1, 46, 77
3, 593257, Note_on_c, 1, 34, 0
3, 593863, Note_on_c, 1, 38, 62
3, 594156, Note_on_c, 1, 38, 0
3, 594210, Note_on_c, 1, 46, 0
3, 594228, Note_on_c, 1, 40, 45
3, 594871, Note_on_c, 1, 37, 52
3, 595029, Note_on_c, 1, 40, 0
3, 595132, Note_on_c, 1, 37, 0
3, 595181, Note_on_c, 1, 39, 87
3, 596949, Note_on_c, 1, 39, 0
3, 597757, Note_on_c, 1, 33, 103
3, 599047, Note_on_c, 1, 32, 77
3, 599082, Note_on_c, 1, 33, 0
3, 601524, Note_on_c, 1, 32, 0
3, 601591, Note_on_c, 1, 31, 66
3, 601628, Note_on_c, 1, 32, 56
3, 601749, Note_on_c, 1, 32, 0
3, 602820, Note_on_c, 1, 31, 0
3, 602871, Note_on_c, 1, 30, 65
3, 605301, Note_on_c, 1, 30, 0
3, 605375, Note_on_c, 1, 31, 68
3, 606631, Note_on_c, 1, 31, 0
3, 606636, Note_on_c, 1, 48, 56
3, 606657, Note_on_c, 1, 32, 51
3, 609167, Note_on_c, 1, 32, 0
3, 609212, Note_on_c, 1, 40, 72
3, 609501, Note_on_c, 1, 48, 0
3, 609509, Note_on_c, 1, 40, 0
3, 609532, Note_on_c, 1, 37, 56
3, 610197, Note_on_c, 1, 34, 31
3, 610413, Note_on_c, 1, 37, 0
3, 610466, Note_on_c, 1, 34, 0
3, 610492, Note_on_c, 1, 38, 68
3, 611895, Note_on_c, 1, 30, 67
3, 612407, Note_on_c, 1, 38, 0
3, 612437, Note_on_c, 1, 30, 0
3, 612476, Note_on_c, 1, 31, 57
3, 613729, Note_on_c, 1, 34, 48
3, 613797, Note_on_c, 1, 31, 0
3, 613977, Note_on_c, 1, 34, 0
3, 614052, Note_on_c, 1, 35, 60
3, 614351, Note_on_c, 1, 36, 61
3, 614362, Note_on_c, 1, 35, 0
3, 615081, Note_on_c, 1, 34, 45
3, 615231, Note_on_c, 1, 36, 0
3, 615361, Note_on_c, 1, 43, 62
3, 615380, Note_on_c, 1, 34, 0
3, 616026, Note_on_c, 1, 35, 35
3, 616178, Note_on_c, 1, 35, 0
3, 616308, Note_on_c, 1, 38, 44
3, 616338, Note_on_c, 1, 43, 0
3, 617241, Note_on_c, 1, 38, 0
3, 617242, Note_on_c, 1, 40, 59
3, 617836, Note_on_c, 1, 32, 32
3, 618036, Note_on_c, 1, 40, 0
3, 618127, Note_on_c, 1, 32, 0
3, 618143, Note_on_c, 1, 33, 58
3, 618849, Note_on_c, 1, 32, 39
3, 619004, Note_on_c, 1, 33, 0
3, 619105, Note_on_c, 1, 40, 84
3, 619117, Note_on_c, 1, 32, 0
3, 620037, Note_on_c, 1, 40, 0
3, 620081, Note_on_c, 1, 36, 59
3, 620770, Note_on_c, 1, 33, 39
3, 620949, Note_on_c, 1, 36, 0
3, 620953, Note_on_c, 1, 33, 0
3, 621018, Note_on_c, 1, 37, 60
3, 621639, Note_on_c, 1, 33, 24
3, 621831, Note_on_c, 1, 33, 0
3, 621898, Note_on_c, 1, 37, 0
3, 621927, Note_on_c, 1, 38, 74
3, 622601, Note_on_c, 1, 33, 67
3, 622709, Note_on_c, 1, 38, 0
3, 622839, Note_on_c, 1, 33, 0
3, 622889, Note_on_c, 1, 29, 68
3, 623860, Note_on_c, 1, 33, 74
3, 623871, Note_on_c, 1, 29, 0
3, 624836, Note_on_c, 1, 32, 72
3, 624921, Note_on_c, 1, 33, 0
3, 625804, Note_on_c, 1, 32, 0
3, 625833, Note_on_c, 1, 31, 62
3, 626821, Note_on_c, 1, 31, 0
3, 626823, Note_on_c, 1, 35, 66
3, 627809, Note_on_c, 1, 38, 78
3, 627866, Note_on_c, 1, 35, 0
3, 628713, Note_on_c, 1, 38, 0
3, 628748, Note_on_c, 1, 35, 72
3, 629434, Note_on_c, 1, 34, 34
3, 629684, Note_on_c, 1, 34, 0
3, 629685, Note_on_c, 1, 35, 0
3, 629714, Note_on_c, 1, 36, 73
3, 630492, Note_on_c, 1, 34, 21
3, 630655, Note_on_c, 1, 38, 76
3, 630690, Note_on_c, 1, 36, 0
3, 630773, Note_on_c, 1, 34, 0
3, 631593, Note_on_c, 1, 38, 0
3, 631634, Note_on_c, 1, 40, 69
3, 632594, Note_on_c, 1, 34, 64
3, 632671, Note_on_c, 1, 40, 0
3, 633546, Note_on_c, 1, 33, 68
3, 633650, Note_on_c, 1, 34, 0
3, 634337, Note_on_c, 1, 36, 34
3, 634449, Note_on_c, 1, 36, 0
3, 634501, Note_on_c, 1, 40, 66
3, 634743, Note_on_c, 1, 33, 0
3, 635204, Note_on_c, 1, 36, 33
3, 635394, Note_on_c, 1, 36, 0
3, 635404, Note_on_c, 1, 40, 0
3, 635450, Note_on_c, 1, 48, 63
3, 636207, Note_on_c, 1, 36, 28
3, 636316, Note_on_c, 1, 36, 0
3, 636367, Note_on_c, 1, 43, 58
3, 636442, Note_on_c, 1, 48, 0
3, 637149, Note_on_c, 1, 36, 31
3, 637223, Note_on_c, 1, 43, 0
3, 637314, Note_on_c, 1, 36, 0
3, 637380, Note_on_c, 1, 42, 64
3, 638169, Note_on_c, 1, 36, 34
3, 638221, Note_on_c, 1, 42, 0
3, 638290, Note_on_c, 1, 36, 0
3, 638356, Note_on_c, 1, 42, 70
3, 639245, Note_on_c, 1, 42, 0
3, 639330, Note_on_c, 1, 36, 64
3, 640189, Note_on_c, 1, 36, 0
3, 640244, Note_on_c, 1, 36, 54
3, 641167, Note_on_c, 1, 36, 0
3, 641220, Note_on_c, 1, 35, 57
3, 642082, Note_on_c, 1, 35, 0
3, 642197, Note_on_c, 1, 35, 68
3, 643161, Note_on_c, 1, 47, 87
3, 643292, Note_on_c, 1, 35, 0
3, 644196, Note_on_c, 1, 39, 28
3, 644218, Note_on_c, 1, 38, 65
3, 644626, Note_on_c, 1, 38, 0
3, 644660, Note_on_c, 1, 39, 0
3, 645082, Note_on_c, 1, 40, 70
3, 646044, Note_on_c, 1, 35, 66
3, 646052, Note_on_c, 1, 40, 0
3, 646356, Note_on_c, 1, 47, 0
3, 647036, Note_on_c, 1, 28, 67
3, 647109, Note_on_c, 1, 35, 0
3, 647877, Note_on_c, 1, 28, 0
3, 647975, Note_on_c, 1, 28, 64
3, 648941, Note_on_c, 1, 35, 60
3, 648943, Note_on_c, 1, 28, 0
3, 649922, Note_on_c, 1, 39, 67
3, 650023, Note_on_c, 1, 35, 0
3, 650877, Note_on_c, 1, 39, 0
3, 650882, Note_on_c, 1, 40, 66
3, 651805, Note_on_c, 1, 34, 60
3, 651807, Note_on_c, 1, 40, 0
3, 652714, Note_on_c, 1, 34, 0
3, 652769, Note_on_c, 1, 33, 70
3, 653725, Note_on_c, 1, 33, 0
3, 653727, Note_on_c, 1, 35, 66
3, 654708, Note_on_c, 1, 35, 0
3, 654713, Note_on_c, 1, 37, 64
3, 655665, Note_on_c, 1, 38, 74
3, 655865, Note_on_c, 1, 37, 0
3, 656337, Note_on_c, 1, 37, 53
3, 656460, Note_on_c, 1, 37, 0
3, 656525, Note_on_c, 1, 38, 0
3, 656631, Note_on_c, 1, 40, 67
3, 657241, Note_on_c, 1, 35, 41
3, 657426, Note_on_c, 1, 35, 0
3, 657517, Note_on_c, 1, 40, 0
3, 657549, Note_on_c, 1, 47, 59
3, 658212, Note_on_c, 1, 35, 37
3, 658426, Note_on_c, 1, 47, 0
3, 658447, Note_on_c, 1, 35, 0
3, 658517, Note_on_c, 1, 45, 62
3, 659452, Note_on_c, 1, 40, 62
3, 660151, Note_on_c, 1, 37, 67
3, 660153, Note_on_c, 1, 40, 0
3, 660165, Note_on_c, 1, 45, 0
3, 660431, Note_on_c, 1, 37, 0
3, 660449, Note_on_c, 1, 38, 68
3, 661101, Note_on_c, 1, 37, 37
3, 661357, Note_on_c, 1, 37, 0
3, 661373, Note_on_c, 1, 50, 64
3, 661468, Note_on_c, 1, 38, 0
3, 662037, Note_on_c, 1, 37, 25
3, 662239, Note_on_c, 1, 37, 0
3, 662327, Note_on_c, 1, 45, 62
3, 662397, Note_on_c, 1, 50, 0
3, 663237, Note_on_c, 1, 45, 0
3, 663298, Note_on_c, 1, 42, 47
3, 664258, Note_on_c, 1, 42, 0
3, 664284, Note_on_c, 1, 37, 60
3, 664991, Note_on_c, 1, 34, 27
3, 665226, Note_on_c, 1, 38, 69
3, 665241, Note_on_c, 1, 37, 0
3, 665268, Note_on_c, 1, 34, 0
3, 666217, Note_on_c, 1, 33, 72
3, 666268, Note_on_c, 1, 38, 0
3, 667058, Note_on_c, 1, 33, 0
3, 667157, Note_on_c, 1, 32, 64
3, 668057, Note_on_c, 1, 32, 0
3, 668105, Note_on_c, 1, 31, 64
3, 669081, Note_on_c, 1, 44, 82
3, 669333, Note_on_c, 1, 31, 0
3, 670077, Note_on_c, 1, 43, 74
3, 670148, Note_on_c, 1, 44, 0
3, 671015, Note_on_c, 1, 31, 59
3, 671898, Note_on_c, 1, 31, 0
3, 671957, Note_on_c, 1, 39, 74
3, 671977, Note_on_c, 1, 43, 0
3, 672823, Note_on_c, 1, 39, 0
3, 672908, Note_on_c, 1, 39, 77
3, 674525, Note_on_c, 1, 34, 70
3, 674589, Note_on_c, 1, 39, 0
3, 674769, Note_on_c, 1, 34, 0
3, 674829, Note_on_c, 1, 33, 46
3, 675714, Note_on_c, 1, 33, 0
3, 675772, Note_on_c, 1, 32, 54
3, 676762, Note_on_c, 1, 39, 52
3, 676831, Note_on_c, 1, 32, 0
3, 677394, Note_on_c, 1, 32, 42
3, 677615, Note_on_c, 1, 32, 0
3, 677645, Note_on_c, 1, 39, 0
3, 677700, Note_on_c, 1, 48, 55
3, 678329, Note_on_c, 1, 33, 56
3, 678489, Note_on_c, 1, 48, 0
3, 678553, Note_on_c, 1, 33, 0
3, 678623, Note_on_c, 1, 34, 63
3, 679501, Note_on_c, 1, 34, 0
3, 679549, Note_on_c, 1, 35, 63
3, 680564, Note_on_c, 1, 41, 52
3, 680650, Note_on_c, 1, 35, 0
3, 681217, Note_on_c, 1, 35, 50
3, 681423, Note_on_c, 1, 35, 0
3, 681479, Note_on_c, 1, 41, 0
3, 681521, Note_on_c, 1, 47, 68
3, 682258, Note_on_c, 1, 35, 15
3, 682426, Note_on_c, 1, 35, 0
3, 682532, Note_on_c, 1, 41, 51
3, 682541, Note_on_c, 1, 47, 0
3, 683205, Note_on_c, 1, 35, 45
3, 683394, Note_on_c, 1, 35, 0
3, 683479, Note_on_c, 1, 41, 0
3, 683498, Note_on_c, 1, 46, 62
3, 684449, Note_on_c, 1, 33, 65
3, 685361, Note_on_c, 1, 46, 0
3, 685404, Note_on_c, 1, 33, 0
3, 685453, Note_on_c, 1, 34, 57
3, 686429, Note_on_c, 1, 40, 78
3, 686524, Note_on_c, 1, 34, 0
3, 687327, Note_on_c, 1, 40, 0
3, 687373, Note_on_c, 1, 39, 69
3, 688351, Note_on_c, 1, 34, 78
3, 688442, Note_on_c, 1, 39, 0
3, 689271, Note_on_c, 1, 34, 0
3, 689330, Note_on_c, 1, 33, 74
3, 690249, Note_on_c, 1, 31, 57
3, 690317, Note_on_c, 1, 33, 0
3, 691185, Note_on_c, 1, 31, 0
3, 691199, Note_on_c, 1, 32, 60
3, 692137, Note_on_c, 1, 39, 62
3, 692169, Note_on_c, 1, 32, 0
3, 692831, Note_on_c, 1, 32, 25
3, 693105, Note_on_c, 1, 48, 76
3, 693129, Note_on_c, 1, 32, 0
3, 693810, Note_on_c, 1, 34, 28
3, 693916, Note_on_c, 1, 39, 0
3, 693962, Note_on_c, 1, 34, 0
3, 694106, Note_on_c, 1, 38, 82
3, 694978, Note_on_c, 1, 38, 0
3, 695076, Note_on_c, 1, 39, 60
3, 695951, Note_on_c, 1, 39, 0
3, 696012, Note_on_c, 1, 33, 73
3, 696130, Note_on_c, 1, 48, 0
3, 696916, Note_on_c, 1, 33, 0
3, 696972, Note_on_c, 1, 32, 59
3, 697913, Note_on_c, 1, 38, 74
3, 697948, Note_on_c, 1, 32, 0
3, 698869, Note_on_c, 1, 37, 68
3, 698871, Note_on_c, 1, 38, 0
3, 699613, Note_on_c, 1, 34, 26
3, 699813, Note_on_c, 1, 41, 46
3, 699884, Note_on_c, 1, 37, 0
3, 700448, Note_on_c, 1, 34, 0
3, 700461, Note_on_c, 1, 37, 33
3, 700696, Note_on_c, 1, 37, 0
3, 700708, Note_on_c, 1, 41, 0
3, 700735, Note_on_c, 1, 49, 65
3, 701456, Note_on_c, 1, 37, 25
3, 701623, Note_on_c, 1, 37, 0
3, 701698, Note_on_c, 1, 43, 60
3, 701757, Note_on_c, 1, 49, 0
3, 702652, Note_on_c, 1, 43, 0
3, 702666, Note_on_c, 1, 42, 65
3, 703626, Note_on_c, 1, 37, 59
3, 704613, Note_on_c, 1, 37, 0
3, 704631, Note_on_c, 1, 30, 46
3, 704663, Note_on_c, 1, 42, 0
3, 705557, Note_on_c, 1, 35, 66
3, 705600, Note_on_c, 1, 30, 0
3, 706474, Note_on_c, 1, 35, 0
3, 706509, Note_on_c, 1, 36, 62
3, 707178, Note_on_c, 1, 34, 34
3, 707367, Note_on_c, 1, 36, 0
3, 707471, Note_on_c, 1, 43, 66
3, 707564, Note_on_c, 1, 34, 0
3, 708161, Note_on_c, 1, 36, 40
3, 708372, Note_on_c, 1, 36, 0
3, 708425, Note_on_c, 1, 43, 0
3, 708439, Note_on_c, 1, 48, 60
3, 709111, Note_on_c, 1, 36, 53
3, 709274, Note_on_c, 1, 36, 0
3, 709362, Note_on_c, 1, 48, 0
3, 709429, Note_on_c, 1, 42, 58
3, 710361, Note_on_c, 1, 42, 0
3, 710404, Note_on_c, 1, 41, 55
3, 711041, Note_on_c, 1, 30, 68
3, 711145, Note_on_c, 1, 41, 0
3, 711289, Note_on_c, 1, 30, 0
3, 711370, Note_on_c, 1, 29, 66
3, 712957, Note_on_c, 1, 36, 55
3, 713233, Note_on_c, 1, 41, 76
3, 713237, Note_on_c, 1, 36, 0
3, 713666, Note_on_c, 1, 29, 0
3, 713885, Note_on_c, 1, 33, 61
3, 714049, Note_on_c, 1, 41, 0
3, 714202, Note_on_c, 1, 33, 0
3, 714258, Note_on_c, 1, 34, 65
3, 715825, Note_on_c, 1, 32, 51
3, 716074, Note_on_c, 1, 32, 0
3, 716116, Note_on_c, 1, 34, 0
3, 716146, Note_on_c, 1, 41, 62
3, 717698, Note_on_c, 1, 41, 0
3, 717717, Note_on_c, 1, 40, 69
3, 717855, Note_on_c, 1, 40, 0
3, 718050, Note_on_c, 1, 39, 52
3, 718322, Note_on_c, 1, 39, 0
3, 718665, Note_on_c, 1, 34, 58
3, 718930, Note_on_c, 1, 34, 0
3, 718999, Note_on_c, 1, 31, 59
3, 720244, Note_on_c, 1, 39, 59
3, 720359, Note_on_c, 1, 39, 0
3, 720417, Note_on_c, 1, 31, 0
3, 720548, Note_on_c, 1, 34, 60
3, 720799, Note_on_c, 1, 34, 0
3, 720884, Note_on_c, 1, 31, 60
3, 721869, Note_on_c, 1, 31, 0
3, 721892, Note_on_c, 1, 32, 62
3, 724508, Note_on_c, 1, 44, 49
3, 724655, Note_on_c, 1, 44, 0
3, 724855, Note_on_c, 1, 32, 0
3, 725157, Note_on_c, 1, 48, 72
3, 725181, Note_on_c, 1, 32, 64
3, 725452, Note_on_c, 1, 32, 0
3, 725482, Note_on_c, 1, 31, 45
3, 725485, Note_on_c, 1, 47, 59
3, 725527, Note_on_c, 1, 48, 0
3, 725777, Note_on_c, 1, 47, 0
3, 725791, Note_on_c, 1, 31, 0
3, 725826, Note_on_c, 1, 30, 51
3, 725829, Note_on_c, 1, 46, 55
3, 729167, Note_on_c, 1, 30, 0
3, 729249, Note_on_c, 1, 31, 71
3, 729500, Note_on_c, 1, 46, 0
3, 729617, Note_on_c, 1, 31, 0
3, 729637, Note_on_c, 1, 32, 68
3, 731577, Note_on_c, 1, 39, 63
3, 731653, Note_on_c, 1, 32, 0
3, 732837, Note_on_c, 1, 39, 0
3, 734096, Note_on_c, 1, 30, 63
3, 734139, Note_on_c, 1, 32, 40
3, 734215, Note_on_c, 1, 32, 0
3, 735216, Note_on_c, 1, 30, 0
3, 735427, Note_on_c, 1, 30, 52
3, 736278, Note_on_c, 1, 30, 0
3, 736347, Note_on_c, 1, 31, 50
3, 737219, Note_on_c, 1, 31, 0
3, 737275, Note_on_c, 1, 32, 56
3, 738056, Note_on_c, 1, 34, 33
3, 738171, Note_on_c, 1, 34, 0
3, 738287, Note_on_c, 1, 44, 87
3, 738384, Note_on_c, 1, 32, 0
3, 739120, Note_on_c, 1, 44, 0
3, 739150, Note_on_c, 1, 32, 23
3, 739239, Note_on_c, 1, 44, 86
3, 739396, Note_on_c, 1, 32, 0
3, 739952, Note_on_c, 1, 32, 49
3, 740052, Note_on_c, 1, 44, 0
3, 740102, Note_on_c, 1, 32, 0
3, 740187, Note_on_c, 1, 43, 64
3, 741020, Note_on_c, 1, 43, 0
3, 741154, Note_on_c, 1, 42, 51
3, 742129, Note_on_c, 1, 29, 74
3, 742456, Note_on_c, 1, 42, 0
3, 743108, Note_on_c, 1, 30, 59
3, 743123, Note_on_c, 1, 29, 0
3, 744096, Note_on_c, 1, 30, 0
3, 744109, Note_on_c, 1, 31, 46
3, 744913, Note_on_c, 1, 31, 0
3, 745012, Note_on_c, 1, 32, 42
3, 745735, Note_on_c, 1, 30, 29
3, 745937, Note_on_c, 1, 32, 0
3, 745975, Note_on_c, 1, 43, 39
3, 746049, Note_on_c, 1, 30, 0
3, 746974, Note_on_c, 1, 43, 0
3, 746978, Note_on_c, 1, 44, 57
3, 747825, Note_on_c, 1, 44, 0
3, 747901, Note_on_c, 1, 31, 40
3, 748766, Note_on_c, 1, 31, 0
3, 748826, Note_on_c, 1, 30, 35
3, 749606, Note_on_c, 1, 30, 0
3, 749832, Note_on_c, 1, 30, 34
3, 750677, Note_on_c, 1, 30, 0
3, 750762, Note_on_c, 1, 31, 26
3, 751456, Note_on_c, 1, 31, 0
3, 751698, Note_on_c, 1, 31, 20
3, 752547, Note_on_c, 1, 31, 0
3, 752666, Note_on_c, 1, 32, 29
3, 754509, Note_on_c, 1, 32, 0
3, 754666, Note_on_c, 1, 31, 27
3, 756523, Note_on_c, 1, 31, 0
3, 756528, Note_on_c, 1, 30, 52
3, 758454, Note_on_c, 1, 31, 47
3, 758483, Note_on_c, 1, 30, 0
3, 760253, Note_on_c, 1, 31, 0
3, 760291, Note_on_c, 1, 32, 42
3, 760297, Note_on_c, 1, 48, 42
3, 762150, Note_on_c, 1, 48, 0
3, 762246, Note_on_c, 1, 32, 0
3, 762273, Note_on_c, 1, 31, 36
3, 762302, Note_on_c, 1, 47, 36
3, 763745, Note_on_c, 1, 47, 0
3, 763776, Note_on_c, 1, 31, 0
3, 763823, Note_on_c, 1, 30, 32
3, 763893, Note_on_c, 1, 46, 32
3, 766104, Note_on_c, 1, 47, 26
3, 766126, Note_on_c, 1, 46, 0
3, 766142, Note_on_c, 1, 31, 26
3, 766153, Note_on_c, 1, 30, 0
3, 767929, Note_on_c, 1, 31, 0
3, 768021, Note_on_c, 1, 32, 21
3, 768041, Note_on_c, 1, 47, 0
3, 768075, Note_on_c, 1, 48, 21
3, 769795, Note_on_c, 1, 48, 0
3, 769900, Note_on_c, 1, 32, 0
3, 769938, Note_on_c, 1, 31, 16
3, 769965, Note_on_c, 1, 47, 16
3, 771793, Note_on_c, 1, 47, 0
3, 771809, Note_on_c, 1, 31, 0
3, 771867, Note_on_c, 1, 30, 11
3, 771937, Note_on_c, 1, 46, 10
3, 773731, Note_on_c, 1, 46, 0
3, 773767, Note_on_c, 1, 47, 6
3, 773780, Note_on_c, 1, 30, 0
3, 773789, Note_on_c, 1, 31, 6
3, 775700, Note_on_c, 1, 31, 0
3, 775702, Note_on_c, 1, 48, 1
3, 775745, Note_on_c, 1, 32, 1
3, 775751, Note_on_c, 1, 47, 0
3, 780975, Note_on_c, 1, 48, 0
3, 781604, Note_on_c, 1, 32, 0
3, 781604, End_track
4, 0, Start_track
4, 0, Title_t, "Drums"
4, 0, Program_c, 9, 0
4, 0, Control_c, 9, 7, 94
4, 0, Note_on_c, 9, 59, 64
4, 595, Note_on_c, 9, 59, 0
4, 919, Note_on_c, 9, 44, 45
4, 925, Note_on_c, 9, 59, 48
4, 1049, Note_on_c, 9, 59, 0
4, 1517, Note_on_c, 9, 44, 0
4, 1648, Note_on_c, 9, 59, 55
4, 1901, Note_on_c, 9, 59, 0
4, 1982, Note_on_c, 9, 59, 36
4, 2261, Note_on_c, 9, 59, 0
4, 2881, Note_on_c, 9, 44, 77
4, 2906, Note_on_c, 9, 59, 67
4, 3341, Note_on_c, 9, 59, 0
4, 3354, Note_on_c, 9, 44, 0
4, 3592, Note_on_c, 9, 59, 40
4, 3742, Note_on_c, 9, 59, 0
4, 3946, Note_on_c, 9, 59, 66
4, 4464, Note_on_c, 9, 59, 0
4, 4749, Note_on_c, 9, 44, 53
4, 4853, Note_on_c, 9, 59, 72
4, 5242, Note_on_c, 9, 44, 0
4, 5403, Note_on_c, 9, 59, 0
4, 5784, Note_on_c, 9, 59, 48
4, 6264, Note_on_c, 9, 59, 0
4, 6666, Note_on_c, 9, 44, 54
4, 6725, Note_on_c, 9, 59, 74
4, 7012, Note_on_c, 9, 44, 0
4, 7221, Note_on_c, 9, 59, 0
4, 7696, Note_on_c, 9, 59, 55
4, 8168, Note_on_c, 9, 59, 0
4, 8535, Note_on_c, 9, 44, 48
4, 8603, Note_on_c, 9, 59, 68
4, 8996, Note_on_c, 9, 44, 0
4, 9000, Note_on_c, 9, 59, 0
4, 9251, Note_on_c, 9, 59, 40
4, 9450, Note_on_c, 9, 59, 0
4, 9631, Note_on_c, 9, 59, 57
4, 9974, Note_on_c, 9, 59, 0
4, 10507, Note_on_c, 9, 59, 80
4, 10589, Note_on_c, 9, 44, 55
4, 10973, Note_on_c, 9, 44, 0
4, 10993, Note_on_c, 9, 59, 0
4, 11512, Note_on_c, 9, 59, 36
4, 11751, Note_on_c, 9, 59, 0
4, 12376, Note_on_c, 9, 59, 62
4, 12385, Note_on_c, 9, 46, 72
4, 12647, Note_on_c, 9, 59, 0
4, 13430, Note_on_c, 9, 59, 62
4, 13908, Note_on_c, 9, 59, 0
4, 13988, Note_on_c, 9, 46, 0
4, 14035, Note_on_c, 9, 53, 72
4, 14245, Note_on_c, 9, 53, 0
4, 14362, Note_on_c, 9, 44, 38
4, 14401, Note_on_c, 9, 59, 54
4, 14740, Note_on_c, 9, 59, 0
4, 14871, Note_on_c, 9, 44, 0
4, 14964, Note_on_c, 9, 38, 32
4, 15261, Note_on_c, 9, 38, 0
4, 15345, Note_on_c, 9, 59, 54
4, 15371, Note_on_c, 9, 36, 32
4, 15875, Note_on_c, 9, 59, 0
4, 15960, Note_on_c, 9, 36, 0
4, 16278, Note_on_c, 9, 59, 63
4, 16340, Note_on_c, 9, 44, 43
4, 16689, Note_on_c, 9, 44, 0
4, 16725, Note_on_c, 9, 59, 0
4, 16888, Note_on_c, 9, 36, 32
4, 17079, Note_on_c, 9, 36, 0
4, 17255, Note_on_c, 9, 59, 48
4, 17583, Note_on_c, 9, 59, 0
4, 18177, Note_on_c, 9, 44, 36
4, 18303, Note_on_c, 9, 59, 68
4, 18545, Note_on_c, 9, 44, 0
4, 18628, Note_on_c, 9, 59, 0
4, 18868, Note_on_c, 9, 59, 48
4, 19046, Note_on_c, 9, 59, 0
4, 19262, Note_on_c, 9, 59, 49
4, 19752, Note_on_c, 9, 59, 0
4, 20090, Note_on_c, 9, 44, 40
4, 20138, Note_on_c, 9, 59, 66
4, 20423, Note_on_c, 9, 44, 0
4, 20526, Note_on_c, 9, 59, 0
4, 20814, Note_on_c, 9, 59, 50
4, 20967, Note_on_c, 9, 59, 0
4, 21209, Note_on_c, 9, 59, 48
4, 21569, Note_on_c, 9, 59, 0
4, 22087, Note_on_c, 9, 46, 37
4, 22096, Note_on_c, 9, 59, 77
4, 22423, Note_on_c, 9, 46, 0
4, 22623, Note_on_c, 9, 59, 0
4, 23090, Note_on_c, 9, 59, 39
4, 23487, Note_on_c, 9, 59, 0
4, 23810, Note_on_c, 9, 59, 43
4, 23948, Note_on_c, 9, 59, 0
4, 23988, Note_on_c, 9, 44, 42
4, 24132, Note_on_c, 9, 59, 74
4, 24343, Note_on_c, 9, 44, 0
4, 24786, Note_on_c, 9, 59, 0
4, 25085, Note_on_c, 9, 59, 54
4, 25690, Note_on_c, 9, 59, 0
4, 25908, Note_on_c, 9, 44, 45
4, 25935, Note_on_c, 9, 59, 61
4, 26276, Note_on_c, 9, 44, 0
4, 26563, Note_on_c, 9, 59, 0
4, 26891, Note_on_c, 9, 59, 58
4, 27444, Note_on_c, 9, 59, 0
4, 27461, Note_on_c, 9, 53, 77
4, 27761, Note_on_c, 9, 44, 43
4, 27830, Note_on_c, 9, 53, 0
4, 27945, Note_on_c, 9, 59, 34
4, 28122, Note_on_c, 9, 44, 0
4, 28469, Note_on_c, 9, 59, 0
4, 28809, Note_on_c, 9, 59, 52
4, 29489, Note_on_c, 9, 59, 0
4, 29761, Note_on_c, 9, 44, 45
4, 29811, Note_on_c, 9, 59, 60
4, 30081, Note_on_c, 9, 44, 0
4, 30287, Note_on_c, 9, 36, 32
4, 30445, Note_on_c, 9, 59, 0
4, 30470, Note_on_c, 9, 36, 0
4, 30796, Note_on_c, 9, 59, 51
4, 31280, Note_on_c, 9, 59, 0
4, 31666, Note_on_c, 9, 59, 62
4, 31690, Note_on_c, 9, 44, 31
4, 32103, Note_on_c, 9, 44, 0
4, 32124, Note_on_c, 9, 59, 0
4, 32328, Note_on_c, 9, 36, 32
4, 32540, Note_on_c, 9, 36, 0
4, 32660, Note_on_c, 9, 59, 58
4, 33063, Note_on_c, 9, 59, 0
4, 33253, Note_on_c, 9, 59, 38
4, 33394, Note_on_c, 9, 59, 0
4, 33590, Note_on_c, 9, 36, 32
4, 33613, Note_on_c, 9, 59, 50
4, 33971, Note_on_c, 9, 36, 0
4, 33984, Note_on_c, 9, 59, 0
4, 34212, Note_on_c, 9, 59, 68
4, 34995, Note_on_c, 9, 59, 0
4, 35220, Note_on_c, 9, 59, 34
4, 35376, Note_on_c, 9, 59, 0
4, 35525, Note_on_c, 9, 59, 50
4, 35549, Note_on_c, 9, 44, 36
4, 35994, Note_on_c, 9, 44, 0
4, 36196, Note_on_c, 9, 59, 0
4, 36456, Note_on_c, 9, 59, 53
4, 37106, Note_on_c, 9, 59, 0
4, 37423, Note_on_c, 9, 59, 55
4, 37453, Note_on_c, 9, 44, 35
4, 37907, Note_on_c, 9, 59, 0
4, 37917, Note_on_c, 9, 44, 0
4, 38106, Note_on_c, 9, 59, 42
4, 38264, Note_on_c, 9, 59, 0
4, 38428, Note_on_c, 9, 59, 61
4, 39151, Note_on_c, 9, 59, 0
4, 39370, Note_on_c, 9, 59, 60
4, 39396, Note_on_c, 9, 44, 32
4, 39786, Note_on_c, 9, 44, 0
4, 39912, Note_on_c, 9, 59, 0
4, 40125, Note_on_c, 9, 59, 41
4, 40269, Note_on_c, 9, 59, 0
4, 40427, Note_on_c, 9, 59, 67
4, 41141, Note_on_c, 9, 59, 0
4, 41255, Note_on_c, 9, 44, 45
4, 41366, Note_on_c, 9, 59, 64
4, 41658, Note_on_c, 9, 44, 0
4, 41948, Note_on_c, 9, 59, 0
4, 42273, Note_on_c, 9, 59, 61
4, 42826, Note_on_c, 9, 59, 0
4, 42993, Note_on_c, 9, 59, 33
4, 43133, Note_on_c, 9, 46, 31
4, 43146, Note_on_c, 9, 59, 0
4, 43273, Note_on_c, 9, 59, 60
4, 43649, Note_on_c, 9, 46, 0
4, 44062, Note_on_c, 9, 59, 0
4, 44266, Note_on_c, 9, 59, 67
4, 44859, Note_on_c, 9, 59, 0
4, 45102, Note_on_c, 9, 46, 46
4, 45139, Note_on_c, 9, 59, 60
4, 45415, Note_on_c, 9, 46, 0
4, 45744, Note_on_c, 9, 59, 0
4, 45893, Note_on_c, 9, 59, 36
4, 46032, Note_on_c, 9, 59, 0
4, 46210, Note_on_c, 9, 59, 67
4, 46824, Note_on_c, 9, 59, 0
4, 46864, Note_on_c, 9, 53, 55
4, 47028, Note_on_c, 9, 44, 34
4, 47114, Note_on_c, 9, 53, 0
4, 47245, Note_on_c, 9, 44, 0
4, 47486, Note_on_c, 9, 59, 44
4, 47616, Note_on_c, 9, 59, 0
4, 47981, Note_on_c, 9, 59, 74
4, 48547, Note_on_c, 9, 45, 32
4, 48716, Note_on_c, 9, 45, 0
4, 48733, Note_on_c, 9, 59, 0
4, 48957, Note_on_c, 9, 44, 45
4, 48984, Note_on_c, 9, 59, 47
4, 49001, Note_on_c, 9, 36, 32
4, 49126, Note_on_c, 9, 36, 0
4, 49249, Note_on_c, 9, 59, 0
4, 49364, Note_on_c, 9, 44, 0
4, 49554, Note_on_c, 9, 59, 72
4, 49612, Note_on_c, 9, 36, 32
4, 49744, Note_on_c, 9, 36, 0
4, 50080, Note_on_c, 9, 36, 32
4, 50084, Note_on_c, 9, 59, 0
4, 50532, Note_on_c, 9, 36, 0
4, 50542, Note_on_c, 9, 59, 38
4, 50683, Note_on_c, 9, 59, 0
4, 50846, Note_on_c, 9, 44, 35
4, 50882, Note_on_c, 9, 59, 63
4, 51204, Note_on_c, 9, 44, 0
4, 51622, Note_on_c, 9, 59, 0
4, 51875, Note_on_c, 9, 59, 57
4, 52546, Note_on_c, 9, 59, 0
4, 52692, Note_on_c, 9, 44, 43
4, 52800, Note_on_c, 9, 59, 62
4, 53057, Note_on_c, 9, 44, 0
4, 53327, Note_on_c, 9, 59, 0
4, 53471, Note_on_c, 9, 59, 40
4, 53617, Note_on_c, 9, 59, 0
4, 53813, Note_on_c, 9, 59, 67
4, 54427, Note_on_c, 9, 59, 0
4, 54698, Note_on_c, 9, 44, 39
4, 54700, Note_on_c, 9, 59, 70
4, 55073, Note_on_c, 9, 44, 0
4, 55245, Note_on_c, 9, 59, 0
4, 56276, Note_on_c, 9, 59, 36
4, 56431, Note_on_c, 9, 59, 0
4, 56593, Note_on_c, 9, 44, 37
4, 56627, Note_on_c, 9, 59, 74
4, 56993, Note_on_c, 9, 44, 0
4, 57120, Note_on_c, 9, 59, 0
4, 57301, Note_on_c, 9, 59, 80
4, 57880, Note_on_c, 9, 59, 0
4, 58238, Note_on_c, 9, 45, 32
4, 58260, Note_on_c, 9, 59, 48
4, 58363, Note_on_c, 9, 45, 0
4, 58398, Note_on_c, 9, 59, 0
4, 58509, Note_on_c, 9, 44, 43
4, 58612, Note_on_c, 9, 59, 67
4, 58887, Note_on_c, 9, 44, 0
4, 59349, Note_on_c, 9, 59, 0
4, 59532, Note_on_c, 9, 43, 32
4, 59568, Note_on_c, 9, 59, 49
4, 59994, Note_on_c, 9, 59, 0
4, 60071, Note_on_c, 9, 43, 0
4, 60497, Note_on_c, 9, 44, 78
4, 60515, Note_on_c, 9, 59, 94
4, 60564, Note_on_c, 9, 41, 32
4, 60794, Note_on_c, 9, 41, 0
4, 61142, Note_on_c, 9, 36, 32
4, 61162, Note_on_c, 9, 44, 0
4, 61287, Note_on_c, 9, 36, 0
4, 61462, Note_on_c, 9, 57, 16
4, 61485, Note_on_c, 9, 36, 32
4, 61703, Note_on_c, 9, 57, 0
4, 61760, Note_on_c, 9, 36, 0
4, 62082, Note_on_c, 9, 59, 0
4, 62237, Note_on_c, 9, 59, 36
4, 62378, Note_on_c, 9, 44, 31
4, 62545, Note_on_c, 9, 59, 0
4, 62721, Note_on_c, 9, 44, 0
4, 63084, Note_on_c, 9, 59, 54
4, 63237, Note_on_c, 9, 59, 0
4, 63464, Note_on_c, 9, 59, 48
4, 63935, Note_on_c, 9, 36, 32
4, 64070, Note_on_c, 9, 36, 0
4, 64132, Note_on_c, 9, 59, 0
4, 64337, Note_on_c, 9, 46, 26
4, 64343, Note_on_c, 9, 59, 64
4, 64519, Note_on_c, 9, 46, 0
4, 64806, Note_on_c, 9, 59, 0
4, 65045, Note_on_c, 9, 59, 41
4, 65184, Note_on_c, 9, 59, 0
4, 65210, Note_on_c, 9, 36, 32
4, 65368, Note_on_c, 9, 59, 70
4, 65487, Note_on_c, 9, 36, 0
4, 66635, Note_on_c, 9, 59, 0
4, 66851, Note_on_c, 9, 59, 50
4, 66995, Note_on_c, 9, 59, 0
4, 67194, Note_on_c, 9, 59, 53
4, 67943, Note_on_c, 9, 59, 0
4, 68036, Note_on_c, 9, 44, 36
4, 68196, Note_on_c, 9, 59, 61
4, 68385, Note_on_c, 9, 44, 0
4, 68740, Note_on_c, 9, 59, 0
4, 69097, Note_on_c, 9, 59, 54
4, 69639, Note_on_c, 9, 59, 0
4, 69884, Note_on_c, 9, 59, 50
4, 70106, Note_on_c, 9, 44, 27
4, 70465, Note_on_c, 9, 59, 0
4, 70468, Note_on_c, 9, 44, 0
4, 70681, Note_on_c, 9, 59, 54
4, 70857, Note_on_c, 9, 59, 0
4, 71062, Note_on_c, 9, 59, 59
4, 71796, Note_on_c, 9, 59, 0
4, 71933, Note_on_c, 9, 44, 36
4, 72024, Note_on_c, 9, 59, 55
4, 72324, Note_on_c, 9, 44, 0
4, 72433, Note_on_c, 9, 59, 0
4, 72614, Note_on_c, 9, 59, 45
4, 72787, Note_on_c, 9, 59, 0
4, 73032, Note_on_c, 9, 59, 51
4, 73700, Note_on_c, 9, 59, 0
4, 73933, Note_on_c, 9, 44, 37
4, 73993, Note_on_c, 9, 59, 64
4, 74289, Note_on_c, 9, 44, 0
4, 74541, Note_on_c, 9, 59, 0
4, 75036, Note_on_c, 9, 59, 38
4, 75621, Note_on_c, 9, 59, 0
4, 75834, Note_on_c, 9, 44, 40
4, 75920, Note_on_c, 9, 59, 65
4, 76125, Note_on_c, 9, 44, 0
4, 76485, Note_on_c, 9, 59, 0
4, 76666, Note_on_c, 9, 59, 35
4, 76819, Note_on_c, 9, 59, 0
4, 76928, Note_on_c, 9, 59, 35
4, 77262, Note_on_c, 9, 59, 0
4, 77748, Note_on_c, 9, 44, 37
4, 77812, Note_on_c, 9, 59, 73
4, 78241, Note_on_c, 9, 44, 0
4, 78515, Note_on_c, 9, 59, 0
4, 78815, Note_on_c, 9, 59, 49
4, 79296, Note_on_c, 9, 59, 0
4, 79543, Note_on_c, 9, 59, 42
4, 79690, Note_on_c, 9, 59, 0
4, 79716, Note_on_c, 9, 44, 32
4, 79846, Note_on_c, 9, 59, 67
4, 80122, Note_on_c, 9, 44, 0
4, 80580, Note_on_c, 9, 59, 0
4, 80799, Note_on_c, 9, 59, 57
4, 81395, Note_on_c, 9, 59, 0
4, 81689, Note_on_c, 9, 59, 63
4, 82302, Note_on_c, 9, 59, 0
4, 82749, Note_on_c, 9, 59, 46
4, 83166, Note_on_c, 9, 59, 0
4, 83549, Note_on_c, 9, 44, 35
4, 83604, Note_on_c, 9, 59, 75
4, 83969, Note_on_c, 9, 44, 0
4, 84307, Note_on_c, 9, 59, 0
4, 84618, Note_on_c, 9, 59, 35
4, 84782, Note_on_c, 9, 59, 0
4, 85396, Note_on_c, 9, 44, 39
4, 85542, Note_on_c, 9, 59, 70
4, 85780, Note_on_c, 9, 44, 0
4, 85951, Note_on_c, 9, 59, 0
4, 86162, Note_on_c, 9, 59, 45
4, 86303, Note_on_c, 9, 59, 0
4, 86519, Note_on_c, 9, 59, 58
4, 87170, Note_on_c, 9, 59, 0
4, 87351, Note_on_c, 9, 46, 25
4, 87426, Note_on_c, 9, 59, 64
4, 87738, Note_on_c, 9, 46, 0
4, 88031, Note_on_c, 9, 59, 0
4, 88445, Note_on_c, 9, 59, 40
4, 88866, Note_on_c, 9, 59, 0
4, 89281, Note_on_c, 9, 44, 43
4, 89304, Note_on_c, 9, 59, 68
4, 89601, Note_on_c, 9, 44, 0
4, 89710, Note_on_c, 9, 59, 0
4, 89937, Note_on_c, 9, 59, 34
4, 90078, Note_on_c, 9, 59, 0
4, 90286, Note_on_c, 9, 59, 49
4, 90830, Note_on_c, 9, 59, 0
4, 90915, Note_on_c, 9, 36, 32
4, 91090, Note_on_c, 9, 36, 0
4, 91196, Note_on_c, 9, 59, 66
4, 91223, Note_on_c, 9, 44, 40
4, 91559, Note_on_c, 9, 44, 0
4, 91683, Note_on_c, 9, 59, 0
4, 92097, Note_on_c, 9, 59, 58
4, 92209, Note_on_c, 9, 36, 32
4, 92562, Note_on_c, 9, 36, 0
4, 92711, Note_on_c, 9, 59, 0
4, 93059, Note_on_c, 9, 59, 62
4, 93073, Note_on_c, 9, 44, 49
4, 93425, Note_on_c, 9, 44, 0
4, 93566, Note_on_c, 9, 59, 0
4, 93724, Note_on_c, 9, 59, 37
4, 93857, Note_on_c, 9, 59, 0
4, 94047, Note_on_c, 9, 59, 64
4, 94632, Note_on_c, 9, 59, 0
4, 94948, Note_on_c, 9, 59, 66
4, 95089, Note_on_c, 9, 44, 34
4, 95409, Note_on_c, 9, 59, 0
4, 95476, Note_on_c, 9, 44, 0
4, 95948, Note_on_c, 9, 59, 50
4, 96581, Note_on_c, 9, 59, 0
4, 96662, Note_on_c, 9, 36, 32
4, 96828, Note_on_c, 9, 36, 0
4, 96861, Note_on_c, 9, 59, 64
4, 96913, Note_on_c, 9, 44, 52
4, 97181, Note_on_c, 9, 44, 0
4, 97411, Note_on_c, 9, 59, 0
4, 97874, Note_on_c, 9, 59, 47
4, 98060, Note_on_c, 9, 36, 32
4, 98258, Note_on_c, 9, 59, 0
4, 98262, Note_on_c, 9, 36, 0
4, 98834, Note_on_c, 9, 59, 85
4, 98887, Note_on_c, 9, 44, 48
4, 99188, Note_on_c, 9, 44, 0
4, 99441, Note_on_c, 9, 59, 0
4, 99795, Note_on_c, 9, 59, 36
4, 100202, Note_on_c, 9, 59, 0
4, 100726, Note_on_c, 9, 59, 68
4, 100737, Note_on_c, 9, 44, 44
4, 101047, Note_on_c, 9, 44, 0
4, 101175, Note_on_c, 9, 59, 0
4, 101333, Note_on_c, 9, 59, 33
4, 101495, Note_on_c, 9, 59, 0
4, 101725, Note_on_c, 9, 59, 62
4, 102171, Note_on_c, 9, 59, 0
4, 102634, Note_on_c, 9, 46, 40
4, 102673, Note_on_c, 9, 59, 70
4, 102925, Note_on_c, 9, 46, 0
4, 103188, Note_on_c, 9, 59, 0
4, 103655, Note_on_c, 9, 59, 64
4, 104219, Note_on_c, 9, 59, 0
4, 104506, Note_on_c, 9, 44, 40
4, 104663, Note_on_c, 9, 59, 65
4, 104855, Note_on_c, 9, 44, 0
4, 105092, Note_on_c, 9, 59, 0
4, 105645, Note_on_c, 9, 59, 64
4, 106247, Note_on_c, 9, 59, 0
4, 106468, Note_on_c, 9, 59, 56
4, 106516, Note_on_c, 9, 44, 36
4, 106733, Note_on_c, 9, 59, 0
4, 106842, Note_on_c, 9, 44, 0
4, 107214, Note_on_c, 9, 59, 54
4, 107347, Note_on_c, 9, 59, 0
4, 107514, Note_on_c, 9, 59, 68
4, 107767, Note_on_c, 9, 59, 0
4, 108423, Note_on_c, 9, 44, 34
4, 108464, Note_on_c, 9, 59, 71
4, 108753, Note_on_c, 9, 44, 0
4, 108986, Note_on_c, 9, 59, 0
4, 109115, Note_on_c, 9, 36, 32
4, 109331, Note_on_c, 9, 36, 0
4, 109449, Note_on_c, 9, 59, 70
4, 109554, Note_on_c, 9, 36, 32
4, 109884, Note_on_c, 9, 59, 0
4, 110074, Note_on_c, 9, 36, 0
4, 110298, Note_on_c, 9, 44, 36
4, 110428, Note_on_c, 9, 59, 85
4, 110676, Note_on_c, 9, 44, 0
4, 110852, Note_on_c, 9, 59, 0
4, 111033, Note_on_c, 9, 36, 32
4, 111059, Note_on_c, 9, 59, 52
4, 111215, Note_on_c, 9, 59, 0
4, 111257, Note_on_c, 9, 36, 0
4, 111431, Note_on_c, 9, 59, 73
4, 111923, Note_on_c, 9, 59, 0
4, 112183, Note_on_c, 9, 44, 64
4, 112295, Note_on_c, 9, 36, 32
4, 112318, Note_on_c, 9, 59, 73
4, 112589, Note_on_c, 9, 44, 0
4, 112735, Note_on_c, 9, 59, 0
4, 112751, Note_on_c, 9, 36, 0
4, 113254, Note_on_c, 9, 59, 49
4, 113648, Note_on_c, 9, 59, 0
4, 114164, Note_on_c, 9, 59, 89
4, 114234, Note_on_c, 9, 44, 64
4, 114615, Note_on_c, 9, 44, 0
4, 114878, Note_on_c, 9, 59, 0
4, 115123, Note_on_c, 9, 59, 48
4, 115293, Note_on_c, 9, 59, 0
4, 115781, Note_on_c, 9, 36, 32
4, 115814, Note_on_c, 9, 59, 58
4, 115910, Note_on_c, 9, 36, 0
4, 115941, Note_on_c, 9, 59, 0
4, 116103, Note_on_c, 9, 44, 50
4, 116128, Note_on_c, 9, 59, 70
4, 116484, Note_on_c, 9, 44, 0
4, 116805, Note_on_c, 9, 59, 0
4, 117083, Note_on_c, 9, 36, 32
4, 117124, Note_on_c, 9, 59, 73
4, 117360, Note_on_c, 9, 36, 0
4, 117568, Note_on_c, 9, 59, 0
4, 118033, Note_on_c, 9, 44, 57
4, 118034, Note_on_c, 9, 59, 76
4, 118449, Note_on_c, 9, 44, 0
4, 118455, Note_on_c, 9, 59, 0
4, 118620, Note_on_c, 9, 36, 32
4, 118628, Note_on_c, 9, 59, 62
4, 118876, Note_on_c, 9, 36, 0
4, 118893, Note_on_c, 9, 59, 0
4, 119575, Note_on_c, 9, 59, 71
4, 119829, Note_on_c, 9, 59, 0
4, 119946, Note_on_c, 9, 44, 61
4, 119970, Note_on_c, 9, 59, 62
4, 120346, Note_on_c, 9, 44, 0
4, 120359, Note_on_c, 9, 59, 0
4, 120588, Note_on_c, 9, 36, 32
4, 120726, Note_on_c, 9, 36, 0
4, 120946, Note_on_c, 9, 59, 80
4, 121404, Note_on_c, 9, 59, 0
4, 121491, Note_on_c, 9, 36, 32
4, 121574, Note_on_c, 9, 59, 70
4, 121599, Note_on_c, 9, 36, 0
4, 121807, Note_on_c, 9, 59, 0
4, 121988, Note_on_c, 9, 44, 55
4, 122097, Note_on_c, 9, 44, 0
4, 122467, Note_on_c, 9, 57, 16
4, 122481, Note_on_c, 9, 59, 83
4, 122492, Note_on_c, 9, 36, 32
4, 122812, Note_on_c, 9, 59, 0
4, 123478, Note_on_c, 9, 59, 68
4, 123691, Note_on_c, 9, 59, 0
4, 123805, Note_on_c, 9, 44, 45
4, 123887, Note_on_c, 9, 59, 71
4, 124103, Note_on_c, 9, 44, 0
4, 124327, Note_on_c, 9, 59, 0
4, 124840, Note_on_c, 9, 59, 84
4, 124994, Note_on_c, 9, 36, 0
4, 125146, Note_on_c, 9, 57, 0
4, 125338, Note_on_c, 9, 59, 0
4, 125370, Note_on_c, 9, 36, 32
4, 125537, Note_on_c, 9, 36, 0
4, 125677, Note_on_c, 9, 46, 42
4, 125732, Note_on_c, 9, 57, 16
4, 125799, Note_on_c, 9, 59, 68
4, 125867, Note_on_c, 9, 36, 32
4, 126106, Note_on_c, 9, 46, 0
4, 126188, Note_on_c, 9, 59, 0
4, 126421, Note_on_c, 9, 59, 55
4, 126605, Note_on_c, 9, 59, 0
4, 126807, Note_on_c, 9, 59, 64
4, 127348, Note_on_c, 9, 59, 0
4, 127588, Note_on_c, 9, 57, 0
4, 127757, Note_on_c, 9, 59, 69
4, 128178, Note_on_c, 9, 59, 0
4, 128691, Note_on_c, 9, 59, 67
4, 128727, Note_on_c, 9, 36, 0
4, 129007, Note_on_c, 9, 59, 0
4, 129447, Note_on_c, 9, 44, 49
4, 129621, Note_on_c, 9, 59, 72
4, 129869, Note_on_c, 9, 44, 0
4, 129989, Note_on_c, 9, 59, 0
4, 130243, Note_on_c, 9, 59, 44
4, 130416, Note_on_c, 9, 59, 0
4, 130551, Note_on_c, 9, 59, 40
4, 130951, Note_on_c, 9, 59, 0
4, 131444, Note_on_c, 9, 59, 70
4, 131453, Note_on_c, 9, 44, 39
4, 131838, Note_on_c, 9, 59, 0
4, 131841, Note_on_c, 9, 44, 0
4, 132077, Note_on_c, 9, 59, 40
4, 132239, Note_on_c, 9, 59, 0
4, 132432, Note_on_c, 9, 59, 48
4, 132965, Note_on_c, 9, 59, 0
4, 133361, Note_on_c, 9, 44, 52
4, 133394, Note_on_c, 9, 59, 70
4, 133774, Note_on_c, 9, 44, 0
4, 133831, Note_on_c, 9, 59, 0
4, 134364, Note_on_c, 9, 59, 57
4, 134727, Note_on_c, 9, 59, 0
4, 135309, Note_on_c, 9, 59, 73
4, 135313, Note_on_c, 9, 44, 51
4, 135700, Note_on_c, 9, 44, 0
4, 135735, Note_on_c, 9, 59, 0
4, 136009, Note_on_c, 9, 59, 35
4, 136190, Note_on_c, 9, 59, 0
4, 136305, Note_on_c, 9, 59, 32
4, 136907, Note_on_c, 9, 59, 0
4, 137213, Note_on_c, 9, 44, 57
4, 137296, Note_on_c, 9, 59, 60
4, 137351, Note_on_c, 9, 60, 38
4, 137460, Note_on_c, 9, 60, 0
4, 137617, Note_on_c, 9, 44, 0
4, 137774, Note_on_c, 9, 59, 0
4, 137888, Note_on_c, 9, 38, 32
4, 138094, Note_on_c, 9, 38, 0
4, 138298, Note_on_c, 9, 59, 55
4, 138404, Note_on_c, 9, 36, 32
4, 138599, Note_on_c, 9, 36, 0
4, 138753, Note_on_c, 9, 59, 0
4, 138869, Note_on_c, 9, 36, 32
4, 139102, Note_on_c, 9, 36, 0
4, 139140, Note_on_c, 9, 44, 55
4, 139177, Note_on_c, 9, 59, 65
4, 139277, Note_on_c, 9, 36, 32
4, 139482, Note_on_c, 9, 44, 0
4, 139701, Note_on_c, 9, 59, 0
4, 139835, Note_on_c, 9, 36, 0
4, 140178, Note_on_c, 9, 36, 32
4, 140193, Note_on_c, 9, 59, 45
4, 140559, Note_on_c, 9, 59, 0
4, 140585, Note_on_c, 9, 36, 0
4, 141089, Note_on_c, 9, 44, 46
4, 141181, Note_on_c, 9, 59, 88
4, 141485, Note_on_c, 9, 44, 0
4, 141564, Note_on_c, 9, 59, 0
4, 141835, Note_on_c, 9, 59, 49
4, 142014, Note_on_c, 9, 59, 0
4, 142166, Note_on_c, 9, 59, 46
4, 142564, Note_on_c, 9, 59, 0
4, 142954, Note_on_c, 9, 44, 73
4, 143085, Note_on_c, 9, 59, 75
4, 143460, Note_on_c, 9, 44, 0
4, 143704, Note_on_c, 9, 59, 0
4, 144015, Note_on_c, 9, 59, 40
4, 144156, Note_on_c, 9, 59, 0
4, 144617, Note_on_c, 9, 59, 60
4, 144790, Note_on_c, 9, 59, 0
4, 144826, Note_on_c, 9, 44, 38
4, 144957, Note_on_c, 9, 59, 74
4, 145450, Note_on_c, 9, 44, 0
4, 145608, Note_on_c, 9, 59, 0
4, 145850, Note_on_c, 9, 59, 51
4, 146025, Note_on_c, 9, 59, 0
4, 146469, Note_on_c, 9, 59, 82
4, 146846, Note_on_c, 9, 59, 0
4, 146877, Note_on_c, 9, 44, 39
4, 147309, Note_on_c, 9, 44, 0
4, 147376, Note_on_c, 9, 59, 70
4, 147592, Note_on_c, 9, 59, 0
4, 147756, Note_on_c, 9, 59, 68
4, 148395, Note_on_c, 9, 59, 0
4, 148756, Note_on_c, 9, 44, 39
4, 148758, Note_on_c, 9, 59, 54
4, 148882, Note_on_c, 9, 59, 0
4, 149226, Note_on_c, 9, 44, 0
4, 149308, Note_on_c, 9, 59, 83
4, 149847, Note_on_c, 9, 59, 0
4, 150314, Note_on_c, 9, 59, 43
4, 150483, Note_on_c, 9, 59, 0
4, 150634, Note_on_c, 9, 44, 48
4, 150671, Note_on_c, 9, 59, 82
4, 150999, Note_on_c, 9, 44, 0
4, 151454, Note_on_c, 9, 59, 0
4, 151679, Note_on_c, 9, 59, 42
4, 151826, Note_on_c, 9, 59, 0
4, 152255, Note_on_c, 9, 59, 77
4, 152310, Note_on_c, 9, 36, 32
4, 152396, Note_on_c, 9, 36, 0
4, 152557, Note_on_c, 9, 44, 42
4, 152946, Note_on_c, 9, 59, 0
4, 152964, Note_on_c, 9, 44, 0
4, 153545, Note_on_c, 9, 59, 80
4, 153635, Note_on_c, 9, 36, 32
4, 153806, Note_on_c, 9, 36, 0
4, 154190, Note_on_c, 9, 59, 0
4, 154503, Note_on_c, 9, 44, 51
4, 154550, Note_on_c, 9, 59, 58
4, 154841, Note_on_c, 9, 59, 0
4, 154849, Note_on_c, 9, 44, 0
4, 155179, Note_on_c, 9, 36, 32
4, 155261, Note_on_c, 9, 59, 43
4, 155339, Note_on_c, 9, 36, 0
4, 155405, Note_on_c, 9, 59, 0
4, 155570, Note_on_c, 9, 59, 68
4, 156137, Note_on_c, 9, 59, 0
4, 156439, Note_on_c, 9, 44, 51
4, 156514, Note_on_c, 9, 36, 32
4, 156526, Note_on_c, 9, 59, 70
4, 156735, Note_on_c, 9, 36, 0
4, 156788, Note_on_c, 9, 44, 0
4, 156920, Note_on_c, 9, 59, 0
4, 157177, Note_on_c, 9, 59, 36
4, 157332, Note_on_c, 9, 59, 0
4, 157491, Note_on_c, 9, 59, 55
4, 157879, Note_on_c, 9, 59, 0
4, 158394, Note_on_c, 9, 44, 65
4, 158447, Note_on_c, 9, 59, 75
4, 158797, Note_on_c, 9, 44, 0
4, 158853, Note_on_c, 9, 59, 0
4, 159103, Note_on_c, 9, 59, 44
4, 159262, Note_on_c, 9, 59, 0
4, 159486, Note_on_c, 9, 59, 57
4, 159682, Note_on_c, 9, 59, 0
4, 160051, Note_on_c, 9, 59, 75
4, 160091, Note_on_c, 9, 53, 57
4, 160276, Note_on_c, 9, 46, 53
4, 160519, Note_on_c, 9, 46, 0
4, 160587, Note_on_c, 9, 53, 0
4, 160589, Note_on_c, 9, 59, 0
4, 160918, Note_on_c, 9, 59, 48
4, 161114, Note_on_c, 9, 59, 0
4, 161393, Note_on_c, 9, 59, 71
4, 161407, Note_on_c, 9, 53, 64
4, 161957, Note_on_c, 9, 53, 0
4, 161966, Note_on_c, 9, 59, 0
4, 162315, Note_on_c, 9, 59, 53
4, 162438, Note_on_c, 9, 59, 0
4, 162925, Note_on_c, 9, 59, 74
4, 162931, Note_on_c, 9, 53, 66
4, 163372, Note_on_c, 9, 53, 0
4, 163406, Note_on_c, 9, 59, 0
4, 163844, Note_on_c, 9, 59, 40
4, 163985, Note_on_c, 9, 59, 0
4, 164048, Note_on_c, 9, 44, 44
4, 164244, Note_on_c, 9, 53, 66
4, 164290, Note_on_c, 9, 59, 71
4, 164528, Note_on_c, 9, 44, 0
4, 164731, Note_on_c, 9, 53, 0
4, 164866, Note_on_c, 9, 59, 0
4, 165163, Note_on_c, 9, 59, 43
4, 165448, Note_on_c, 9, 59, 0
4, 165773, Note_on_c, 9, 59, 72
4, 166032, Note_on_c, 9, 44, 55
4, 166277, Note_on_c, 9, 59, 0
4, 166439, Note_on_c, 9, 44, 0
4, 166704, Note_on_c, 9, 59, 49
4, 166859, Note_on_c, 9, 59, 0
4, 167084, Note_on_c, 9, 59, 71
4, 167703, Note_on_c, 9, 59, 0
4, 167997, Note_on_c, 9, 44, 52
4, 168049, Note_on_c, 9, 59, 63
4, 168420, Note_on_c, 9, 44, 0
4, 168458, Note_on_c, 9, 59, 0
4, 168708, Note_on_c, 9, 59, 43
4, 168861, Note_on_c, 9, 59, 0
4, 169025, Note_on_c, 9, 59, 72
4, 169613, Note_on_c, 9, 59, 0
4, 169618, Note_on_c, 9, 36, 32
4, 169778, Note_on_c, 9, 36, 0
4, 169961, Note_on_c, 9, 59, 71
4, 169969, Note_on_c, 9, 44, 27
4, 170368, Note_on_c, 9, 44, 0
4, 170462, Note_on_c, 9, 59, 0
4, 170854, Note_on_c, 9, 59, 70
4, 170949, Note_on_c, 9, 36, 32
4, 171205, Note_on_c, 9, 36, 0
4, 171254, Note_on_c, 9, 59, 0
4, 171798, Note_on_c, 9, 59, 85
4, 171831, Note_on_c, 9, 44, 40
4, 172141, Note_on_c, 9, 44, 0
4, 172317, Note_on_c, 9, 59, 0
4, 172547, Note_on_c, 9, 59, 47
4, 172686, Note_on_c, 9, 59, 0
4, 172879, Note_on_c, 9, 59, 64
4, 173374, Note_on_c, 9, 59, 0
4, 173722, Note_on_c, 9, 44, 38
4, 173823, Note_on_c, 9, 59, 77
4, 174058, Note_on_c, 9, 44, 0
4, 174342, Note_on_c, 9, 59, 0
4, 174782, Note_on_c, 9, 59, 66
4, 175154, Note_on_c, 9, 59, 0
4, 175575, Note_on_c, 9, 44, 50
4, 175715, Note_on_c, 9, 59, 74
4, 175886, Note_on_c, 9, 44, 0
4, 176144, Note_on_c, 9, 59, 0
4, 176406, Note_on_c, 9, 59, 34
4, 177075, Note_on_c, 9, 59, 0
4, 177502, Note_on_c, 9, 44, 50
4, 177605, Note_on_c, 9, 59, 82
4, 177892, Note_on_c, 9, 44, 0
4, 178022, Note_on_c, 9, 59, 0
4, 178607, Note_on_c, 9, 59, 62
4, 178837, Note_on_c, 9, 59, 0
4, 179258, Note_on_c, 9, 59, 78
4, 179460, Note_on_c, 9, 44, 59
4, 179816, Note_on_c, 9, 59, 0
4, 179901, Note_on_c, 9, 44, 0
4, 180191, Note_on_c, 9, 36, 32
4, 180217, Note_on_c, 9, 59, 84
4, 180284, Note_on_c, 9, 36, 0
4, 180922, Note_on_c, 9, 59, 0
4, 181147, Note_on_c, 9, 59, 51
4, 181268, Note_on_c, 9, 59, 0
4, 181399, Note_on_c, 9, 44, 68
4, 181475, Note_on_c, 9, 59, 71
4, 181844, Note_on_c, 9, 44, 0
4, 182080, Note_on_c, 9, 59, 0
4, 182111, Note_on_c, 9, 36, 32
4, 182217, Note_on_c, 9, 36, 0
4, 182458, Note_on_c, 9, 53, 32
4, 182745, Note_on_c, 9, 53, 0
4, 183036, Note_on_c, 9, 53, 32
4, 183068, Note_on_c, 9, 59, 79
4, 183220, Note_on_c, 9, 44, 29
4, 183250, Note_on_c, 9, 53, 0
4, 183318, Note_on_c, 9, 59, 0
4, 183394, Note_on_c, 9, 53, 32
4, 183506, Note_on_c, 9, 59, 66
4, 183594, Note_on_c, 9, 44, 0
4, 183655, Note_on_c, 9, 59, 0
4, 183687, Note_on_c, 9, 53, 0
4, 183933, Note_on_c, 9, 36, 32
4, 184036, Note_on_c, 9, 53, 68
4, 184038, Note_on_c, 9, 59, 80
4, 184043, Note_on_c, 9, 36, 0
4, 184490, Note_on_c, 9, 36, 32
4, 184696, Note_on_c, 9, 36, 0
4, 184747, Note_on_c, 9, 53, 0
4, 184750, Note_on_c, 9, 59, 0
4, 184960, Note_on_c, 9, 59, 55
4, 185098, Note_on_c, 9, 59, 0
4, 185252, Note_on_c, 9, 44, 49
4, 185343, Note_on_c, 9, 53, 64
4, 185366, Note_on_c, 9, 59, 75
4, 185565, Note_on_c, 9, 44, 0
4, 186054, Note_on_c, 9, 59, 0
4, 186075, Note_on_c, 9, 53, 0
4, 186383, Note_on_c, 9, 59, 39
4, 186633, Note_on_c, 9, 59, 0
4, 186967, Note_on_c, 9, 59, 78
4, 187143, Note_on_c, 9, 44, 50
4, 187376, Note_on_c, 9, 59, 0
4, 187575, Note_on_c, 9, 44, 0
4, 187895, Note_on_c, 9, 59, 40
4, 188056, Note_on_c, 9, 59, 0
4, 188258, Note_on_c, 9, 59, 78
4, 188729, Note_on_c, 9, 36, 32
4, 188851, Note_on_c, 9, 59, 0
4, 188910, Note_on_c, 9, 36, 0
4, 189034, Note_on_c, 9, 44, 50
4, 189142, Note_on_c, 9, 59, 44
4, 189277, Note_on_c, 9, 59, 0
4, 189361, Note_on_c, 9, 44, 0
4, 189724, Note_on_c, 9, 59, 74
4, 190104, Note_on_c, 9, 36, 32
4, 190130, Note_on_c, 9, 59, 0
4, 190364, Note_on_c, 9, 36, 0
4, 190636, Note_on_c, 9, 59, 54
4, 190772, Note_on_c, 9, 59, 0
4, 190971, Note_on_c, 9, 59, 72
4, 190986, Note_on_c, 9, 44, 45
4, 191367, Note_on_c, 9, 44, 0
4, 191498, Note_on_c, 9, 59, 0
4, 191668, Note_on_c, 9, 36, 32
4, 191847, Note_on_c, 9, 36, 0
4, 191993, Note_on_c, 9, 59, 66
4, 192457, Note_on_c, 9, 59, 0
4, 192935, Note_on_c, 9, 59, 75
4, 192961, Note_on_c, 9, 44, 45
4, 193404, Note_on_c, 9, 59, 0
4, 193409, Note_on_c, 9, 44, 0
4, 193632, Note_on_c, 9, 59, 50
4, 193781, Note_on_c, 9, 59, 0
4, 193986, Note_on_c, 9, 59, 66
4, 194366, Note_on_c, 9, 59, 0
4, 194874, Note_on_c, 9, 44, 50
4, 194899, Note_on_c, 9, 59, 69
4, 195290, Note_on_c, 9, 44, 0
4, 195371, Note_on_c, 9, 59, 0
4, 195547, Note_on_c, 9, 59, 38
4, 195685, Note_on_c, 9, 59, 0
4, 195892, Note_on_c, 9, 59, 68
4, 196267, Note_on_c, 9, 59, 0
4, 196781, Note_on_c, 9, 44, 40
4, 196846, Note_on_c, 9, 59, 83
4, 197191, Note_on_c, 9, 44, 0
4, 197379, Note_on_c, 9, 59, 0
4, 197802, Note_on_c, 9, 59, 59
4, 198240, Note_on_c, 9, 59, 0
4, 198484, Note_on_c, 9, 59, 59
4, 198643, Note_on_c, 9, 59, 0
4, 198714, Note_on_c, 9, 44, 49
4, 198764, Note_on_c, 9, 59, 50
4, 199156, Note_on_c, 9, 44, 0
4, 199248, Note_on_c, 9, 59, 0
4, 199729, Note_on_c, 9, 59, 71
4, 200241, Note_on_c, 9, 59, 0
4, 200660, Note_on_c, 9, 44, 51
4, 200691, Note_on_c, 9, 59, 75
4, 201079, Note_on_c, 9, 44, 0
4, 201163, Note_on_c, 9, 59, 0
4, 201382, Note_on_c, 9, 59, 47
4, 201532, Note_on_c, 9, 59, 0
4, 201676, Note_on_c, 9, 59, 51
4, 202159, Note_on_c, 9, 59, 0
4, 202573, Note_on_c, 9, 46, 38
4, 202646, Note_on_c, 9, 59, 73
4, 202881, Note_on_c, 9, 46, 0
4, 203170, Note_on_c, 9, 59, 0
4, 203239, Note_on_c, 9, 36, 32
4, 203441, Note_on_c, 9, 36, 0
4, 203654, Note_on_c, 9, 59, 51
4, 203686, Note_on_c, 9, 36, 32
4, 203922, Note_on_c, 9, 36, 0
4, 203928, Note_on_c, 9, 59, 0
4, 204519, Note_on_c, 9, 44, 35
4, 204608, Note_on_c, 9, 59, 81
4, 204836, Note_on_c, 9, 44, 0
4, 205019, Note_on_c, 9, 59, 0
4, 205224, Note_on_c, 9, 59, 50
4, 205359, Note_on_c, 9, 59, 0
4, 205503, Note_on_c, 9, 59, 43
4, 205912, Note_on_c, 9, 59, 0
4, 206397, Note_on_c, 9, 44, 53
4, 206485, Note_on_c, 9, 59, 78
4, 206714, Note_on_c, 9, 44, 0
4, 207099, Note_on_c, 9, 59, 0
4, 207398, Note_on_c, 9, 59, 58
4, 207672, Note_on_c, 9, 59, 0
4, 208343, Note_on_c, 9, 44, 45
4, 208357, Note_on_c, 9, 59, 74
4, 208692, Note_on_c, 9, 44, 0
4, 208798, Note_on_c, 9, 59, 0
4, 209028, Note_on_c, 9, 59, 44
4, 209175, Note_on_c, 9, 59, 0
4, 209313, Note_on_c, 9, 59, 53
4, 209817, Note_on_c, 9, 59, 0
4, 210167, Note_on_c, 9, 44, 52
4, 210278, Note_on_c, 9, 59, 74
4, 210573, Note_on_c, 9, 44, 0
4, 210716, Note_on_c, 9, 59, 0
4, 210984, Note_on_c, 9, 59, 30
4, 211116, Note_on_c, 9, 59, 0
4, 211229, Note_on_c, 9, 59, 45
4, 211617, Note_on_c, 9, 59, 0
4, 212147, Note_on_c, 9, 59, 71
4, 212151, Note_on_c, 9, 44, 54
4, 212538, Note_on_c, 9, 44, 0
4, 212692, Note_on_c, 9, 59, 0
4, 213178, Note_on_c, 9, 59, 36
4, 213492, Note_on_c, 9, 59, 0
4, 214008, Note_on_c, 9, 59, 69
4, 214065, Note_on_c, 9, 44, 53
4, 214333, Note_on_c, 9, 59, 0
4, 214503, Note_on_c, 9, 44, 0
4, 214762, Note_on_c, 9, 59, 62
4, 214918, Note_on_c, 9, 59, 0
4, 215160, Note_on_c, 9, 59, 62
4, 215459, Note_on_c, 9, 59, 0
4, 215694, Note_on_c, 9, 36, 32
4, 215949, Note_on_c, 9, 44, 50
4, 215977, Note_on_c, 9, 36, 0
4, 216001, Note_on_c, 9, 59, 69
4, 216324, Note_on_c, 9, 44, 0
4, 216464, Note_on_c, 9, 59, 0
4, 217003, Note_on_c, 9, 59, 59
4, 217193, Note_on_c, 9, 59, 0
4, 217585, Note_on_c, 9, 36, 32
4, 217651, Note_on_c, 9, 59, 71
4, 217752, Note_on_c, 9, 59, 0
4, 217872, Note_on_c, 9, 36, 0
4, 217901, Note_on_c, 9, 44, 55
4, 217968, Note_on_c, 9, 59, 66
4, 218266, Note_on_c, 9, 44, 0
4, 218359, Note_on_c, 9, 59, 0
4, 218843, Note_on_c, 9, 36, 32
4, 218907, Note_on_c, 9, 59, 79
4, 219195, Note_on_c, 9, 36, 0
4, 219307, Note_on_c, 9, 59, 0
4, 219509, Note_on_c, 9, 59, 64
4, 219759, Note_on_c, 9, 59, 0
4, 219809, Note_on_c, 9, 44, 50
4, 220164, Note_on_c, 9, 44, 0
4, 220491, Note_on_c, 9, 36, 32
4, 220519, Note_on_c, 9, 59, 84
4, 220794, Note_on_c, 9, 36, 0
4, 220888, Note_on_c, 9, 59, 0
4, 221487, Note_on_c, 9, 59, 37
4, 221657, Note_on_c, 9, 59, 0
4, 221786, Note_on_c, 9, 44, 43
4, 221798, Note_on_c, 9, 59, 62
4, 221799, Note_on_c, 9, 36, 32
4, 222154, Note_on_c, 9, 44, 0
4, 222273, Note_on_c, 9, 59, 0
4, 222278, Note_on_c, 9, 36, 0
4, 222800, Note_on_c, 9, 59, 78
4, 223201, Note_on_c, 9, 59, 0
4, 223652, Note_on_c, 9, 44, 53
4, 223736, Note_on_c, 9, 59, 72
4, 223975, Note_on_c, 9, 44, 0
4, 224111, Note_on_c, 9, 59, 0
4, 224416, Note_on_c, 9, 59, 44
4, 224603, Note_on_c, 9, 59, 0
4, 224640, Note_on_c, 9, 61, 32
4, 224695, Note_on_c, 9, 59, 35
4, 225054, Note_on_c, 9, 61, 0
4, 225188, Note_on_c, 9, 59, 0
4, 225629, Note_on_c, 9, 44, 57
4, 225669, Note_on_c, 9, 59, 75
4, 225901, Note_on_c, 9, 44, 0
4, 226086, Note_on_c, 9, 59, 0
4, 226153, Note_on_c, 9, 36, 32
4, 226473, Note_on_c, 9, 36, 0
4, 226588, Note_on_c, 9, 59, 61
4, 226838, Note_on_c, 9, 59, 0
4, 227485, Note_on_c, 9, 44, 56
4, 227544, Note_on_c, 9, 59, 84
4, 227786, Note_on_c, 9, 44, 0
4, 228030, Note_on_c, 9, 59, 0
4, 228102, Note_on_c, 9, 36, 32
4, 228351, Note_on_c, 9, 36, 0
4, 228442, Note_on_c, 9, 59, 47
4, 228612, Note_on_c, 9, 59, 0
4, 229105, Note_on_c, 9, 59, 79
4, 229361, Note_on_c, 9, 44, 55
4, 229482, Note_on_c, 9, 59, 0
4, 229745, Note_on_c, 9, 44, 0
4, 229983, Note_on_c, 9, 59, 54
4, 230188, Note_on_c, 9, 59, 0
4, 230355, Note_on_c, 9, 59, 68
4, 230867, Note_on_c, 9, 59, 0
4, 231334, Note_on_c, 9, 59, 67
4, 231341, Note_on_c, 9, 44, 57
4, 231636, Note_on_c, 9, 59, 0
4, 231713, Note_on_c, 9, 44, 0
4, 231973, Note_on_c, 9, 59, 34
4, 232155, Note_on_c, 9, 59, 0
4, 232290, Note_on_c, 9, 59, 54
4, 232725, Note_on_c, 9, 59, 0
4, 233258, Note_on_c, 9, 44, 57
4, 233278, Note_on_c, 9, 59, 80
4, 233642, Note_on_c, 9, 44, 0
4, 233724, Note_on_c, 9, 59, 0
4, 233844, Note_on_c, 9, 36, 32
4, 233963, Note_on_c, 9, 59, 40
4, 234057, Note_on_c, 9, 36, 0
4, 234119, Note_on_c, 9, 59, 0
4, 234248, Note_on_c, 9, 59, 53
4, 234666, Note_on_c, 9, 59, 0
4, 235181, Note_on_c, 9, 59, 78
4, 235249, Note_on_c, 9, 44, 57
4, 235530, Note_on_c, 9, 44, 0
4, 235588, Note_on_c, 9, 59, 0
4, 235818, Note_on_c, 9, 59, 35
4, 235994, Note_on_c, 9, 59, 0
4, 236172, Note_on_c, 9, 59, 66
4, 236486, Note_on_c, 9, 59, 0
4, 237127, Note_on_c, 9, 44, 50
4, 237174, Note_on_c, 9, 59, 81
4, 237447, Note_on_c, 9, 44, 0
4, 237609, Note_on_c, 9, 59, 0
4, 237843, Note_on_c, 9, 59, 50
4, 238018, Note_on_c, 9, 59, 0
4, 238159, Note_on_c, 9, 59, 52
4, 238633, Note_on_c, 9, 36, 32
4, 238712, Note_on_c, 9, 59, 0
4, 238814, Note_on_c, 9, 36, 0
4, 238948, Note_on_c, 9, 44, 47
4, 239084, Note_on_c, 9, 59, 74
4, 239261, Note_on_c, 9, 44, 0
4, 239550, Note_on_c, 9, 59, 0
4, 239746, Note_on_c, 9, 59, 44
4, 239873, Note_on_c, 9, 59, 0
4, 240043, Note_on_c, 9, 59, 68
4, 240452, Note_on_c, 9, 59, 0
4, 240988, Note_on_c, 9, 59, 74
4, 241002, Note_on_c, 9, 44, 51
4, 241316, Note_on_c, 9, 44, 0
4, 241492, Note_on_c, 9, 59, 0
4, 241984, Note_on_c, 9, 59, 54
4, 242255, Note_on_c, 9, 59, 0
4, 242609, Note_on_c, 9, 59, 79
4, 242871, Note_on_c, 9, 44, 59
4, 243185, Note_on_c, 9, 44, 0
4, 243243, Note_on_c, 9, 59, 0
4, 243827, Note_on_c, 9, 59, 75
4, 244419, Note_on_c, 9, 36, 32
4, 244552, Note_on_c, 9, 36, 0
4, 244706, Note_on_c, 9, 59, 0
4, 244740, Note_on_c, 9, 46, 31
4, 244778, Note_on_c, 9, 51, 77
4, 245037, Note_on_c, 9, 46, 0
4, 245437, Note_on_c, 9, 51, 0
4, 245719, Note_on_c, 9, 51, 55
4, 246105, Note_on_c, 9, 51, 0
4, 246699, Note_on_c, 9, 51, 75
4, 246740, Note_on_c, 9, 44, 45
4, 247338, Note_on_c, 9, 44, 0
4, 247344, Note_on_c, 9, 51, 0
4, 247727, Note_on_c, 9, 51, 51
4, 248052, Note_on_c, 9, 51, 0
4, 248702, Note_on_c, 9, 44, 77
4, 248706, Note_on_c, 9, 51, 77
4, 249175, Note_on_c, 9, 44, 0
4, 249190, Note_on_c, 9, 51, 0
4, 249380, Note_on_c, 9, 51, 55
4, 249564, Note_on_c, 9, 51, 0
4, 249703, Note_on_c, 9, 51, 56
4, 250281, Note_on_c, 9, 51, 0
4, 250570, Note_on_c, 9, 44, 53
4, 250659, Note_on_c, 9, 51, 72
4, 251063, Note_on_c, 9, 44, 0
4, 251209, Note_on_c, 9, 51, 0
4, 251612, Note_on_c, 9, 51, 63
4, 252099, Note_on_c, 9, 51, 0
4, 252487, Note_on_c, 9, 44, 54
4, 252531, Note_on_c, 9, 51, 67
4, 252560, Note_on_c, 9, 53, 64
4, 252833, Note_on_c, 9, 44, 0
4, 253136, Note_on_c, 9, 51, 0
4, 253291, Note_on_c, 9, 53, 0
4, 253507, Note_on_c, 9, 51, 39
4, 254100, Note_on_c, 9, 51, 0
4, 254356, Note_on_c, 9, 44, 48
4, 254457, Note_on_c, 9, 51, 62
4, 254817, Note_on_c, 9, 44, 0
4, 255082, Note_on_c, 9, 51, 0
4, 255425, Note_on_c, 9, 51, 57
4, 256041, Note_on_c, 9, 51, 0
4, 256347, Note_on_c, 9, 51, 67
4, 256410, Note_on_c, 9, 44, 55
4, 256794, Note_on_c, 9, 44, 0
4, 256816, Note_on_c, 9, 51, 0
4, 257032, Note_on_c, 9, 51, 51
4, 257196, Note_on_c, 9, 51, 0
4, 257335, Note_on_c, 9, 51, 51
4, 257838, Note_on_c, 9, 51, 0
4, 258206, Note_on_c, 9, 46, 72
4, 258262, Note_on_c, 9, 51, 67
4, 258703, Note_on_c, 9, 51, 0
4, 258893, Note_on_c, 9, 51, 56
4, 259100, Note_on_c, 9, 51, 0
4, 259261, Note_on_c, 9, 51, 60
4, 259621, Note_on_c, 9, 51, 0
4, 259809, Note_on_c, 9, 46, 0
4, 260183, Note_on_c, 9, 44, 38
4, 260194, Note_on_c, 9, 51, 56
4, 260609, Note_on_c, 9, 51, 0
4, 260692, Note_on_c, 9, 44, 0
4, 260818, Note_on_c, 9, 36, 32
4, 260848, Note_on_c, 9, 51, 48
4, 261020, Note_on_c, 9, 36, 0
4, 261081, Note_on_c, 9, 51, 0
4, 261176, Note_on_c, 9, 51, 36
4, 261286, Note_on_c, 9, 36, 32
4, 261678, Note_on_c, 9, 51, 0
4, 261685, Note_on_c, 9, 36, 0
4, 262153, Note_on_c, 9, 51, 62
4, 262161, Note_on_c, 9, 44, 43
4, 262510, Note_on_c, 9, 44, 0
4, 262605, Note_on_c, 9, 51, 0
4, 262795, Note_on_c, 9, 51, 51
4, 263022, Note_on_c, 9, 51, 0
4, 263138, Note_on_c, 9, 51, 48
4, 263601, Note_on_c, 9, 51, 0
4, 263998, Note_on_c, 9, 44, 36
4, 264085, Note_on_c, 9, 51, 69
4, 264366, Note_on_c, 9, 44, 0
4, 264529, Note_on_c, 9, 51, 0
4, 264716, Note_on_c, 9, 51, 52
4, 264941, Note_on_c, 9, 51, 0
4, 265041, Note_on_c, 9, 51, 38
4, 265545, Note_on_c, 9, 51, 0
4, 265911, Note_on_c, 9, 44, 40
4, 266009, Note_on_c, 9, 51, 70
4, 266244, Note_on_c, 9, 44, 0
4, 266447, Note_on_c, 9, 51, 0
4, 266631, Note_on_c, 9, 51, 56
4, 266850, Note_on_c, 9, 51, 0
4, 266974, Note_on_c, 9, 51, 43
4, 267394, Note_on_c, 9, 51, 0
4, 267887, Note_on_c, 9, 51, 71
4, 267908, Note_on_c, 9, 46, 37
4, 268244, Note_on_c, 9, 46, 0
4, 268325, Note_on_c, 9, 51, 0
4, 268523, Note_on_c, 9, 51, 50
4, 268659, Note_on_c, 9, 51, 0
4, 268860, Note_on_c, 9, 51, 68
4, 269278, Note_on_c, 9, 51, 0
4, 269802, Note_on_c, 9, 51, 69
4, 269809, Note_on_c, 9, 44, 42
4, 270164, Note_on_c, 9, 44, 0
4, 270358, Note_on_c, 9, 51, 0
4, 270744, Note_on_c, 9, 51, 67
4, 271225, Note_on_c, 9, 51, 0
4, 271723, Note_on_c, 9, 51, 70
4, 271729, Note_on_c, 9, 44, 45
4, 272097, Note_on_c, 9, 44, 0
4, 272169, Note_on_c, 9, 51, 0
4, 272613, Note_on_c, 9, 51, 67
4, 273114, Note_on_c, 9, 51, 0
4, 273578, Note_on_c, 9, 51, 67
4, 273582, Note_on_c, 9, 44, 43
4, 273943, Note_on_c, 9, 44, 0
4, 274035, Note_on_c, 9, 51, 0
4, 274165, Note_on_c, 9, 51, 43
4, 274352, Note_on_c, 9, 51, 0
4, 274528, Note_on_c, 9, 51, 69
4, 274957, Note_on_c, 9, 51, 0
4, 275542, Note_on_c, 9, 51, 71
4, 275582, Note_on_c, 9, 44, 45
4, 275902, Note_on_c, 9, 44, 0
4, 275985, Note_on_c, 9, 51, 0
4, 276135, Note_on_c, 9, 51, 42
4, 276204, Note_on_c, 9, 36, 32
4, 276256, Note_on_c, 9, 51, 0
4, 276376, Note_on_c, 9, 36, 0
4, 276486, Note_on_c, 9, 51, 57
4, 276705, Note_on_c, 9, 36, 32
4, 276838, Note_on_c, 9, 51, 0
4, 276851, Note_on_c, 9, 36, 0
4, 277465, Note_on_c, 9, 51, 72
4, 277511, Note_on_c, 9, 44, 31
4, 277826, Note_on_c, 9, 51, 0
4, 277924, Note_on_c, 9, 44, 0
4, 278424, Note_on_c, 9, 51, 69
4, 278808, Note_on_c, 9, 51, 0
4, 279134, Note_on_c, 9, 53, 32
4, 279249, Note_on_c, 9, 53, 0
4, 279444, Note_on_c, 9, 51, 72
4, 279494, Note_on_c, 9, 36, 32
4, 279706, Note_on_c, 9, 36, 0
4, 279839, Note_on_c, 9, 51, 0
4, 280129, Note_on_c, 9, 53, 32
4, 280222, Note_on_c, 9, 53, 0
4, 281115, Note_on_c, 9, 53, 32
4, 281210, Note_on_c, 9, 53, 0
4, 281356, Note_on_c, 9, 51, 78
4, 281370, Note_on_c, 9, 44, 36
4, 281777, Note_on_c, 9, 51, 0
4, 281815, Note_on_c, 9, 44, 0
4, 281976, Note_on_c, 9, 51, 56
4, 282028, Note_on_c, 9, 36, 32
4, 282145, Note_on_c, 9, 51, 0
4, 282236, Note_on_c, 9, 36, 0
4, 282333, Note_on_c, 9, 51, 64
4, 282454, Note_on_c, 9, 53, 32
4, 282785, Note_on_c, 9, 53, 0
4, 282837, Note_on_c, 9, 51, 0
4, 283007, Note_on_c, 9, 36, 32
4, 283149, Note_on_c, 9, 36, 0
4, 283274, Note_on_c, 9, 44, 35
4, 283323, Note_on_c, 9, 51, 70
4, 283721, Note_on_c, 9, 51, 0
4, 283738, Note_on_c, 9, 44, 0
4, 283916, Note_on_c, 9, 36, 32
4, 283917, Note_on_c, 9, 51, 47
4, 284018, Note_on_c, 9, 51, 0
4, 284126, Note_on_c, 9, 36, 0
4, 284222, Note_on_c, 9, 51, 52
4, 284611, Note_on_c, 9, 51, 0
4, 285196, Note_on_c, 9, 51, 68
4, 285217, Note_on_c, 9, 44, 32
4, 285576, Note_on_c, 9, 51, 0
4, 285607, Note_on_c, 9, 44, 0
4, 286172, Note_on_c, 9, 51, 52
4, 286526, Note_on_c, 9, 51, 0
4, 286990, Note_on_c, 9, 51, 31
4, 287076, Note_on_c, 9, 44, 45
4, 287114, Note_on_c, 9, 51, 0
4, 287180, Note_on_c, 9, 51, 29
4, 287479, Note_on_c, 9, 44, 0
4, 287482, Note_on_c, 9, 51, 0
4, 288073, Note_on_c, 9, 51, 71
4, 288511, Note_on_c, 9, 51, 0
4, 288954, Note_on_c, 9, 46, 31
4, 288986, Note_on_c, 9, 51, 56
4, 289210, Note_on_c, 9, 51, 0
4, 289470, Note_on_c, 9, 46, 0
4, 289688, Note_on_c, 9, 51, 70
4, 290149, Note_on_c, 9, 51, 0
4, 290599, Note_on_c, 9, 51, 59
4, 290812, Note_on_c, 9, 51, 0
4, 290923, Note_on_c, 9, 46, 46
4, 291002, Note_on_c, 9, 51, 69
4, 291236, Note_on_c, 9, 46, 0
4, 291509, Note_on_c, 9, 51, 0
4, 291987, Note_on_c, 9, 51, 63
4, 292301, Note_on_c, 9, 51, 0
4, 292537, Note_on_c, 9, 51, 62
4, 292849, Note_on_c, 9, 44, 34
4, 292963, Note_on_c, 9, 51, 0
4, 293066, Note_on_c, 9, 44, 0
4, 293772, Note_on_c, 9, 51, 67
4, 294207, Note_on_c, 9, 51, 0
4, 294778, Note_on_c, 9, 44, 45
4, 294803, Note_on_c, 9, 51, 59
4, 295040, Note_on_c, 9, 51, 0
4, 295185, Note_on_c, 9, 44, 0
4, 295471, Note_on_c, 9, 51, 40
4, 295569, Note_on_c, 9, 51, 0
4, 295742, Note_on_c, 9, 51, 51
4, 296091, Note_on_c, 9, 51, 0
4, 296667, Note_on_c, 9, 44, 35
4, 296713, Note_on_c, 9, 51, 74
4, 297025, Note_on_c, 9, 44, 0
4, 297326, Note_on_c, 9, 51, 0
4, 297669, Note_on_c, 9, 51, 38
4, 297948, Note_on_c, 9, 51, 0
4, 298513, Note_on_c, 9, 44, 43
4, 298562, Note_on_c, 9, 51, 72
4, 298878, Note_on_c, 9, 44, 0
4, 298933, Note_on_c, 9, 51, 0
4, 299316, Note_on_c, 9, 51, 42
4, 299414, Note_on_c, 9, 51, 0
4, 299604, Note_on_c, 9, 51, 59
4, 299915, Note_on_c, 9, 51, 0
4, 300519, Note_on_c, 9, 44, 39
4, 300537, Note_on_c, 9, 51, 74
4, 300894, Note_on_c, 9, 44, 0
4, 300929, Note_on_c, 9, 51, 0
4, 301551, Note_on_c, 9, 51, 56
4, 301805, Note_on_c, 9, 51, 0
4, 302414, Note_on_c, 9, 44, 37
4, 302522, Note_on_c, 9, 51, 72
4, 302814, Note_on_c, 9, 44, 0
4, 302830, Note_on_c, 9, 51, 0
4, 303196, Note_on_c, 9, 51, 50
4, 303343, Note_on_c, 9, 51, 0
4, 303501, Note_on_c, 9, 51, 47
4, 303760, Note_on_c, 9, 51, 0
4, 304330, Note_on_c, 9, 44, 43
4, 304402, Note_on_c, 9, 51, 73
4, 304708, Note_on_c, 9, 44, 0
4, 304765, Note_on_c, 9, 51, 0
4, 305059, Note_on_c, 9, 51, 37
4, 305177, Note_on_c, 9, 51, 0
4, 305249, Note_on_c, 9, 38, 32
4, 305393, Note_on_c, 9, 51, 51
4, 305548, Note_on_c, 9, 38, 0
4, 305747, Note_on_c, 9, 51, 0
4, 305954, Note_on_c, 9, 36, 32
4, 306176, Note_on_c, 9, 36, 0
4, 306318, Note_on_c, 9, 44, 78
4, 306335, Note_on_c, 9, 51, 72
4, 306646, Note_on_c, 9, 51, 0
4, 306968, Note_on_c, 9, 51, 46
4, 306983, Note_on_c, 9, 44, 0
4, 307101, Note_on_c, 9, 51, 0
4, 307214, Note_on_c, 9, 36, 32
4, 307233, Note_on_c, 9, 57, 16
4, 307288, Note_on_c, 9, 51, 67
4, 307573, Note_on_c, 9, 51, 0
4, 308187, Note_on_c, 9, 51, 82
4, 308199, Note_on_c, 9, 44, 31
4, 308542, Note_on_c, 9, 44, 0
4, 308645, Note_on_c, 9, 51, 0
4, 309146, Note_on_c, 9, 51, 55
4, 309411, Note_on_c, 9, 51, 0
4, 309604, Note_on_c, 9, 57, 0
4, 309690, Note_on_c, 9, 36, 0
4, 309781, Note_on_c, 9, 38, 32
4, 309973, Note_on_c, 9, 38, 0
4, 310119, Note_on_c, 9, 51, 74
4, 310158, Note_on_c, 9, 46, 26
4, 310210, Note_on_c, 9, 36, 32
4, 310220, Note_on_c, 9, 57, 16
4, 310340, Note_on_c, 9, 46, 0
4, 310511, Note_on_c, 9, 51, 0
4, 311127, Note_on_c, 9, 51, 51
4, 311516, Note_on_c, 9, 51, 0
4, 312112, Note_on_c, 9, 51, 74
4, 312113, Note_on_c, 9, 57, 0
4, 312481, Note_on_c, 9, 51, 0
4, 312783, Note_on_c, 9, 51, 37
4, 312893, Note_on_c, 9, 51, 0
4, 313091, Note_on_c, 9, 51, 60
4, 313405, Note_on_c, 9, 51, 0
4, 313540, Note_on_c, 9, 36, 0
4, 313857, Note_on_c, 9, 44, 36
4, 314024, Note_on_c, 9, 51, 75
4, 314206, Note_on_c, 9, 44, 0
4, 314379, Note_on_c, 9, 51, 0
4, 314664, Note_on_c, 9, 51, 37
4, 314785, Note_on_c, 9, 51, 0
4, 314966, Note_on_c, 9, 51, 60
4, 315237, Note_on_c, 9, 51, 0
4, 315922, Note_on_c, 9, 51, 74
4, 315927, Note_on_c, 9, 44, 27
4, 316289, Note_on_c, 9, 44, 0
4, 316472, Note_on_c, 9, 51, 0
4, 316881, Note_on_c, 9, 51, 56
4, 317109, Note_on_c, 9, 51, 0
4, 317754, Note_on_c, 9, 44, 36
4, 317817, Note_on_c, 9, 51, 75
4, 318126, Note_on_c, 9, 51, 0
4, 318145, Note_on_c, 9, 44, 0
4, 318529, Note_on_c, 9, 51, 37
4, 318632, Note_on_c, 9, 51, 0
4, 318753, Note_on_c, 9, 51, 46
4, 319004, Note_on_c, 9, 51, 0
4, 319744, Note_on_c, 9, 51, 71
4, 319754, Note_on_c, 9, 44, 37
4, 320110, Note_on_c, 9, 44, 0
4, 320228, Note_on_c, 9, 51, 0
4, 320744, Note_on_c, 9, 51, 59
4, 321199, Note_on_c, 9, 51, 0
4, 321655, Note_on_c, 9, 44, 40
4, 321680, Note_on_c, 9, 51, 75
4, 321946, Note_on_c, 9, 44, 0
4, 322137, Note_on_c, 9, 51, 0
4, 322653, Note_on_c, 9, 51, 51
4, 322938, Note_on_c, 9, 51, 0
4, 323569, Note_on_c, 9, 44, 37
4, 323609, Note_on_c, 9, 51, 79
4, 324027, Note_on_c, 9, 51, 0
4, 324062, Note_on_c, 9, 44, 0
4, 324539, Note_on_c, 9, 51, 56
4, 324923, Note_on_c, 9, 51, 0
4, 325487, Note_on_c, 9, 51, 73
4, 325537, Note_on_c, 9, 44, 32
4, 325641, Note_on_c, 9, 36, 32
4, 325787, Note_on_c, 9, 36, 0
4, 325850, Note_on_c, 9, 51, 0
4, 325943, Note_on_c, 9, 44, 0
4, 326152, Note_on_c, 9, 51, 52
4, 326192, Note_on_c, 9, 36, 32
4, 326365, Note_on_c, 9, 51, 0
4, 326398, Note_on_c, 9, 36, 0
4, 326506, Note_on_c, 9, 51, 64
4, 326717, Note_on_c, 9, 36, 32
4, 326829, Note_on_c, 9, 51, 0
4, 326958, Note_on_c, 9, 36, 0
4, 327463, Note_on_c, 9, 51, 74
4, 327852, Note_on_c, 9, 51, 0
4, 328105, Note_on_c, 9, 51, 46
4, 328189, Note_on_c, 9, 36, 32
4, 328304, Note_on_c, 9, 51, 0
4, 328349, Note_on_c, 9, 36, 0
4, 328462, Note_on_c, 9, 51, 64
4, 328799, Note_on_c, 9, 51, 0
4, 329370, Note_on_c, 9, 44, 35
4, 329430, Note_on_c, 9, 51, 77
4, 329452, Note_on_c, 9, 36, 32
4, 329790, Note_on_c, 9, 44, 0
4, 329845, Note_on_c, 9, 36, 0
4, 329850, Note_on_c, 9, 51, 0
4, 330029, Note_on_c, 9, 51, 59
4, 330233, Note_on_c, 9, 51, 0
4, 330343, Note_on_c, 9, 51, 48
4, 330677, Note_on_c, 9, 51, 0
4, 331217, Note_on_c, 9, 44, 39
4, 331284, Note_on_c, 9, 51, 79
4, 331601, Note_on_c, 9, 44, 0
4, 331670, Note_on_c, 9, 51, 0
4, 332217, Note_on_c, 9, 51, 62
4, 332586, Note_on_c, 9, 51, 0
4, 333172, Note_on_c, 9, 46, 25
4, 333211, Note_on_c, 9, 51, 74
4, 333559, Note_on_c, 9, 46, 0
4, 333600, Note_on_c, 9, 51, 0
4, 333850, Note_on_c, 9, 51, 55
4, 334058, Note_on_c, 9, 51, 0
4, 334164, Note_on_c, 9, 51, 43
4, 334424, Note_on_c, 9, 51, 0
4, 335077, Note_on_c, 9, 51, 81
4, 335102, Note_on_c, 9, 44, 43
4, 335422, Note_on_c, 9, 44, 0
4, 335434, Note_on_c, 9, 51, 0
4, 336033, Note_on_c, 9, 51, 72
4, 336408, Note_on_c, 9, 51, 0
4, 336635, Note_on_c, 9, 51, 59
4, 336825, Note_on_c, 9, 51, 0
4, 336987, Note_on_c, 9, 51, 63
4, 337044, Note_on_c, 9, 44, 40
4, 337318, Note_on_c, 9, 51, 0
4, 337380, Note_on_c, 9, 44, 0
4, 337992, Note_on_c, 9, 51, 78
4, 338340, Note_on_c, 9, 51, 0
4, 338894, Note_on_c, 9, 44, 49
4, 338908, Note_on_c, 9, 51, 74
4, 339246, Note_on_c, 9, 44, 0
4, 339285, Note_on_c, 9, 51, 0
4, 339913, Note_on_c, 9, 51, 72
4, 340339, Note_on_c, 9, 51, 0
4, 340872, Note_on_c, 9, 51, 72
4, 340910, Note_on_c, 9, 44, 34
4, 341266, Note_on_c, 9, 51, 0
4, 341297, Note_on_c, 9, 44, 0
4, 341828, Note_on_c, 9, 51, 71
4, 342202, Note_on_c, 9, 51, 0
4, 342734, Note_on_c, 9, 44, 52
4, 342767, Note_on_c, 9, 51, 73
4, 343002, Note_on_c, 9, 44, 0
4, 343150, Note_on_c, 9, 51, 0
4, 343749, Note_on_c, 9, 51, 70
4, 344132, Note_on_c, 9, 51, 0
4, 344342, Note_on_c, 9, 51, 50
4, 344524, Note_on_c, 9, 51, 0
4, 344624, Note_on_c, 9, 51, 36
4, 344708, Note_on_c, 9, 44, 48
4, 344982, Note_on_c, 9, 51, 0
4, 345009, Note_on_c, 9, 44, 0
4, 345385, Note_on_c, 9, 51, 75
4, 345912, Note_on_c, 9, 51, 0
4, 346217, Note_on_c, 9, 51, 53
4, 346424, Note_on_c, 9, 51, 0
4, 346558, Note_on_c, 9, 44, 44
4, 346580, Note_on_c, 9, 51, 64
4, 346868, Note_on_c, 9, 44, 0
4, 347021, Note_on_c, 9, 51, 0
4, 347585, Note_on_c, 9, 51, 75
4, 347974, Note_on_c, 9, 51, 0
4, 348455, Note_on_c, 9, 46, 40
4, 348507, Note_on_c, 9, 51, 77
4, 348746, Note_on_c, 9, 46, 0
4, 348947, Note_on_c, 9, 51, 0
4, 349137, Note_on_c, 9, 51, 56
4, 349273, Note_on_c, 9, 51, 0
4, 349480, Note_on_c, 9, 51, 61
4, 349872, Note_on_c, 9, 51, 0
4, 350327, Note_on_c, 9, 44, 40
4, 350454, Note_on_c, 9, 51, 77
4, 350676, Note_on_c, 9, 44, 0
4, 350886, Note_on_c, 9, 51, 0
4, 351384, Note_on_c, 9, 51, 64
4, 351614, Note_on_c, 9, 51, 0
4, 352003, Note_on_c, 9, 51, 60
4, 352164, Note_on_c, 9, 51, 0
4, 352308, Note_on_c, 9, 51, 55
4, 352337, Note_on_c, 9, 44, 36
4, 352663, Note_on_c, 9, 44, 0
4, 352686, Note_on_c, 9, 51, 0
4, 353313, Note_on_c, 9, 51, 75
4, 353702, Note_on_c, 9, 51, 0
4, 354235, Note_on_c, 9, 51, 71
4, 354244, Note_on_c, 9, 44, 34
4, 354574, Note_on_c, 9, 44, 0
4, 354581, Note_on_c, 9, 51, 0
4, 354935, Note_on_c, 9, 51, 74
4, 355226, Note_on_c, 9, 51, 0
4, 355802, Note_on_c, 9, 51, 60
4, 356021, Note_on_c, 9, 51, 0
4, 356119, Note_on_c, 9, 44, 36
4, 356144, Note_on_c, 9, 51, 59
4, 356497, Note_on_c, 9, 44, 0
4, 356625, Note_on_c, 9, 51, 0
4, 357106, Note_on_c, 9, 51, 72
4, 357403, Note_on_c, 9, 51, 0
4, 357711, Note_on_c, 9, 51, 57
4, 357953, Note_on_c, 9, 51, 0
4, 358004, Note_on_c, 9, 44, 64
4, 358410, Note_on_c, 9, 44, 0
4, 358676, Note_on_c, 9, 51, 74
4, 359016, Note_on_c, 9, 51, 0
4, 359572, Note_on_c, 9, 51, 67
4, 359791, Note_on_c, 9, 51, 0
4, 359943, Note_on_c, 9, 51, 70
4, 360055, Note_on_c, 9, 44, 64
4, 360326, Note_on_c, 9, 51, 0
4, 360436, Note_on_c, 9, 44, 0
4, 360997, Note_on_c, 9, 51, 78
4, 361412, Note_on_c, 9, 51, 0
4, 361887, Note_on_c, 9, 51, 69
4, 361924, Note_on_c, 9, 44, 50
4, 362221, Note_on_c, 9, 51, 0
4, 362305, Note_on_c, 9, 44, 0
4, 362665, Note_on_c, 9, 51, 37
4, 362763, Note_on_c, 9, 51, 0
4, 362930, Note_on_c, 9, 51, 62
4, 363241, Note_on_c, 9, 51, 0
4, 363528, Note_on_c, 9, 36, 32
4, 363697, Note_on_c, 9, 36, 0
4, 363854, Note_on_c, 9, 44, 57
4, 363889, Note_on_c, 9, 51, 78
4, 364191, Note_on_c, 9, 51, 0
4, 364270, Note_on_c, 9, 44, 0
4, 364563, Note_on_c, 9, 51, 59
4, 364692, Note_on_c, 9, 51, 0
4, 364862, Note_on_c, 9, 51, 47
4, 365107, Note_on_c, 9, 51, 0
4, 365357, Note_on_c, 9, 36, 32
4, 365563, Note_on_c, 9, 36, 0
4, 365749, Note_on_c, 9, 51, 73
4, 365767, Note_on_c, 9, 44, 61
4, 366075, Note_on_c, 9, 51, 0
4, 366167, Note_on_c, 9, 44, 0
4, 366432, Note_on_c, 9, 51, 47
4, 366530, Note_on_c, 9, 51, 0
4, 366743, Note_on_c, 9, 51, 51
4, 366991, Note_on_c, 9, 51, 0
4, 367304, Note_on_c, 9, 36, 32
4, 367416, Note_on_c, 9, 36, 0
4, 367673, Note_on_c, 9, 51, 88
4, 367809, Note_on_c, 9, 44, 55
4, 367918, Note_on_c, 9, 44, 0
4, 368258, Note_on_c, 9, 51, 0
4, 368296, Note_on_c, 9, 57, 16
4, 368300, Note_on_c, 9, 36, 32
4, 368670, Note_on_c, 9, 51, 50
4, 369070, Note_on_c, 9, 51, 0
4, 369626, Note_on_c, 9, 44, 45
4, 369652, Note_on_c, 9, 51, 71
4, 369924, Note_on_c, 9, 44, 0
4, 370075, Note_on_c, 9, 51, 0
4, 370602, Note_on_c, 9, 51, 56
4, 371077, Note_on_c, 9, 51, 0
4, 371498, Note_on_c, 9, 46, 42
4, 371547, Note_on_c, 9, 51, 60
4, 371578, Note_on_c, 9, 53, 55
4, 371724, Note_on_c, 9, 36, 0
4, 371927, Note_on_c, 9, 46, 0
4, 372152, Note_on_c, 9, 51, 0
4, 372192, Note_on_c, 9, 57, 0
4, 372304, Note_on_c, 9, 53, 0
4, 372572, Note_on_c, 9, 51, 46
4, 372938, Note_on_c, 9, 51, 0
4, 373279, Note_on_c, 9, 36, 32
4, 373433, Note_on_c, 9, 36, 0
4, 373525, Note_on_c, 9, 51, 69
4, 373554, Note_on_c, 9, 53, 60
4, 374202, Note_on_c, 9, 51, 0
4, 374211, Note_on_c, 9, 53, 0
4, 374482, Note_on_c, 9, 51, 45
4, 374527, Note_on_c, 9, 36, 32
4, 374771, Note_on_c, 9, 36, 0
4, 374974, Note_on_c, 9, 51, 0
4, 375268, Note_on_c, 9, 44, 49
4, 375395, Note_on_c, 9, 51, 44
4, 375690, Note_on_c, 9, 44, 0
4, 375838, Note_on_c, 9, 51, 0
4, 376290, Note_on_c, 9, 51, 64
4, 376768, Note_on_c, 9, 51, 0
4, 377267, Note_on_c, 9, 51, 76
4, 377274, Note_on_c, 9, 44, 39
4, 377662, Note_on_c, 9, 44, 0
4, 377869, Note_on_c, 9, 51, 0
4, 378015, Note_on_c, 9, 51, 37
4, 378119, Note_on_c, 9, 51, 0
4, 378289, Note_on_c, 9, 51, 55
4, 378563, Note_on_c, 9, 51, 0
4, 379118, Note_on_c, 9, 51, 71
4, 379182, Note_on_c, 9, 44, 52
4, 379576, Note_on_c, 9, 51, 0
4, 379595, Note_on_c, 9, 44, 0
4, 380100, Note_on_c, 9, 51, 52
4, 380383, Note_on_c, 9, 51, 0
4, 380699, Note_on_c, 9, 36, 32
4, 380901, Note_on_c, 9, 36, 0
4, 381131, Note_on_c, 9, 51, 74
4, 381134, Note_on_c, 9, 44, 51
4, 381474, Note_on_c, 9, 51, 0
4, 381521, Note_on_c, 9, 44, 0
4, 382065, Note_on_c, 9, 51, 58
4, 382347, Note_on_c, 9, 51, 0
4, 383034, Note_on_c, 9, 44, 57
4, 383081, Note_on_c, 9, 51, 73
4, 383430, Note_on_c, 9, 51, 0
4, 383438, Note_on_c, 9, 44, 0
4, 383654, Note_on_c, 9, 51, 43
4, 383847, Note_on_c, 9, 51, 0
4, 384034, Note_on_c, 9, 51, 69
4, 384392, Note_on_c, 9, 51, 0
4, 384961, Note_on_c, 9, 44, 55
4, 384970, Note_on_c, 9, 51, 71
4, 385303, Note_on_c, 9, 44, 0
4, 385495, Note_on_c, 9, 51, 0
4, 385978, Note_on_c, 9, 51, 64
4, 386373, Note_on_c, 9, 51, 0
4, 386910, Note_on_c, 9, 44, 46
4, 386937, Note_on_c, 9, 51, 82
4, 387306, Note_on_c, 9, 44, 0
4, 387479, Note_on_c, 9, 51, 0
4, 387853, Note_on_c, 9, 51, 52
4, 388124, Note_on_c, 9, 51, 0
4, 388775, Note_on_c, 9, 44, 73
4, 388830, Note_on_c, 9, 51, 73
4, 389210, Note_on_c, 9, 51, 0
4, 389281, Note_on_c, 9, 44, 0
4, 389826, Note_on_c, 9, 51, 73
4, 390206, Note_on_c, 9, 51, 0
4, 390647, Note_on_c, 9, 44, 38
4, 390782, Note_on_c, 9, 51, 81
4, 391271, Note_on_c, 9, 44, 0
4, 391393, Note_on_c, 9, 51, 0
4, 391687, Note_on_c, 9, 51, 51
4, 391888, Note_on_c, 9, 51, 0
4, 392677, Note_on_c, 9, 51, 83
4, 392698, Note_on_c, 9, 44, 39
4, 393083, Note_on_c, 9, 51, 0
4, 393130, Note_on_c, 9, 44, 0
4, 393645, Note_on_c, 9, 51, 87
4, 394109, Note_on_c, 9, 51, 0
4, 394575, Note_on_c, 9, 51, 77
4, 394577, Note_on_c, 9, 44, 39
4, 395047, Note_on_c, 9, 44, 0
4, 395071, Note_on_c, 9, 51, 0
4, 395543, Note_on_c, 9, 51, 42
4, 395796, Note_on_c, 9, 51, 0
4, 396455, Note_on_c, 9, 44, 48
4, 396485, Note_on_c, 9, 51, 79
4, 396820, Note_on_c, 9, 44, 0
4, 397035, Note_on_c, 9, 51, 0
4, 397516, Note_on_c, 9, 51, 21
4, 397735, Note_on_c, 9, 51, 0
4, 398138, Note_on_c, 9, 51, 30
4, 398256, Note_on_c, 9, 51, 0
4, 398378, Note_on_c, 9, 44, 42
4, 398411, Note_on_c, 9, 51, 75
4, 398785, Note_on_c, 9, 44, 0
4, 398987, Note_on_c, 9, 51, 0
4, 399388, Note_on_c, 9, 51, 32
4, 399509, Note_on_c, 9, 51, 0
4, 400024, Note_on_c, 9, 51, 75
4, 400324, Note_on_c, 9, 44, 51
4, 400453, Note_on_c, 9, 51, 0
4, 400670, Note_on_c, 9, 44, 0
4, 400949, Note_on_c, 9, 51, 51
4, 401101, Note_on_c, 9, 51, 0
4, 401366, Note_on_c, 9, 51, 72
4, 401922, Note_on_c, 9, 51, 0
4, 402260, Note_on_c, 9, 44, 51
4, 402274, Note_on_c, 9, 51, 30
4, 402394, Note_on_c, 9, 51, 0
4, 402609, Note_on_c, 9, 44, 0
4, 402827, Note_on_c, 9, 51, 44
4, 403040, Note_on_c, 9, 51, 0
4, 403244, Note_on_c, 9, 51, 62
4, 403475, Note_on_c, 9, 51, 0
4, 404215, Note_on_c, 9, 44, 65
4, 404226, Note_on_c, 9, 51, 82
4, 404618, Note_on_c, 9, 44, 0
4, 404667, Note_on_c, 9, 51, 0
4, 405309, Note_on_c, 9, 51, 25
4, 405485, Note_on_c, 9, 51, 0
4, 405865, Note_on_c, 9, 51, 43
4, 406018, Note_on_c, 9, 51, 0
4, 406097, Note_on_c, 9, 46, 53
4, 406205, Note_on_c, 9, 51, 74
4, 406340, Note_on_c, 9, 46, 0
4, 406651, Note_on_c, 9, 51, 0
4, 407196, Note_on_c, 9, 51, 76
4, 407711, Note_on_c, 9, 51, 0
4, 407739, Note_on_c, 9, 36, 32
4, 407880, Note_on_c, 9, 36, 0
4, 408117, Note_on_c, 9, 51, 69
4, 408486, Note_on_c, 9, 51, 0
4, 408762, Note_on_c, 9, 51, 34
4, 408889, Note_on_c, 9, 51, 0
4, 409056, Note_on_c, 9, 51, 64
4, 409583, Note_on_c, 9, 51, 0
4, 409869, Note_on_c, 9, 44, 44
4, 410044, Note_on_c, 9, 51, 73
4, 410349, Note_on_c, 9, 44, 0
4, 410436, Note_on_c, 9, 51, 0
4, 410646, Note_on_c, 9, 51, 36
4, 410755, Note_on_c, 9, 51, 0
4, 410928, Note_on_c, 9, 51, 67
4, 411239, Note_on_c, 9, 51, 0
4, 411554, Note_on_c, 9, 36, 32
4, 411705, Note_on_c, 9, 36, 0
4, 411853, Note_on_c, 9, 44, 55
4, 411896, Note_on_c, 9, 51, 74
4, 412260, Note_on_c, 9, 44, 0
4, 412477, Note_on_c, 9, 51, 0
4, 412885, Note_on_c, 9, 36, 32
4, 412909, Note_on_c, 9, 51, 37
4, 413079, Note_on_c, 9, 51, 0
4, 413120, Note_on_c, 9, 36, 0
4, 413497, Note_on_c, 9, 51, 69
4, 413696, Note_on_c, 9, 51, 0
4, 413818, Note_on_c, 9, 44, 52
4, 413860, Note_on_c, 9, 51, 68
4, 414241, Note_on_c, 9, 44, 0
4, 414312, Note_on_c, 9, 51, 0
4, 414401, Note_on_c, 9, 36, 32
4, 414647, Note_on_c, 9, 36, 0
4, 414787, Note_on_c, 9, 51, 71
4, 415294, Note_on_c, 9, 51, 0
4, 415737, Note_on_c, 9, 36, 32
4, 415752, Note_on_c, 9, 51, 65
4, 415790, Note_on_c, 9, 44, 27
4, 416059, Note_on_c, 9, 36, 0
4, 416172, Note_on_c, 9, 51, 0
4, 416189, Note_on_c, 9, 44, 0
4, 416714, Note_on_c, 9, 51, 56
4, 417120, Note_on_c, 9, 51, 0
4, 417652, Note_on_c, 9, 44, 40
4, 417667, Note_on_c, 9, 51, 74
4, 417962, Note_on_c, 9, 44, 0
4, 418108, Note_on_c, 9, 51, 0
4, 418629, Note_on_c, 9, 51, 47
4, 418874, Note_on_c, 9, 51, 0
4, 419519, Note_on_c, 9, 51, 77
4, 419543, Note_on_c, 9, 44, 38
4, 419856, Note_on_c, 9, 51, 0
4, 419879, Note_on_c, 9, 44, 0
4, 420216, Note_on_c, 9, 51, 39
4, 420314, Note_on_c, 9, 51, 0
4, 420524, Note_on_c, 9, 51, 48
4, 420572, Note_on_c, 9, 38, 32
4, 420753, Note_on_c, 9, 38, 0
4, 420910, Note_on_c, 9, 51, 0
4, 421067, Note_on_c, 9, 38, 32
4, 421392, Note_on_c, 9, 38, 0
4, 421396, Note_on_c, 9, 44, 50
4, 421503, Note_on_c, 9, 51, 74
4, 421531, Note_on_c, 9, 36, 32
4, 421707, Note_on_c, 9, 44, 0
4, 421783, Note_on_c, 9, 36, 0
4, 421823, Note_on_c, 9, 51, 0
4, 422057, Note_on_c, 9, 36, 32
4, 422143, Note_on_c, 9, 51, 38
4, 422252, Note_on_c, 9, 51, 0
4, 422272, Note_on_c, 9, 36, 0
4, 422457, Note_on_c, 9, 51, 61
4, 422484, Note_on_c, 9, 36, 32
4, 422730, Note_on_c, 9, 51, 0
4, 422775, Note_on_c, 9, 36, 0
4, 423323, Note_on_c, 9, 44, 50
4, 423387, Note_on_c, 9, 51, 76
4, 423709, Note_on_c, 9, 51, 0
4, 423713, Note_on_c, 9, 44, 0
4, 424084, Note_on_c, 9, 51, 35
4, 424182, Note_on_c, 9, 51, 0
4, 424383, Note_on_c, 9, 51, 44
4, 424645, Note_on_c, 9, 51, 0
4, 425281, Note_on_c, 9, 44, 59
4, 425293, Note_on_c, 9, 51, 74
4, 425722, Note_on_c, 9, 44, 0
4, 425731, Note_on_c, 9, 51, 0
4, 426310, Note_on_c, 9, 51, 63
4, 426589, Note_on_c, 9, 51, 0
4, 426850, Note_on_c, 9, 38, 32
4, 427116, Note_on_c, 9, 38, 0
4, 427220, Note_on_c, 9, 44, 68
4, 427278, Note_on_c, 9, 51, 81
4, 427618, Note_on_c, 9, 51, 0
4, 427665, Note_on_c, 9, 44, 0
4, 428167, Note_on_c, 9, 38, 32
4, 428266, Note_on_c, 9, 51, 35
4, 428369, Note_on_c, 9, 51, 0
4, 428628, Note_on_c, 9, 38, 0
4, 429041, Note_on_c, 9, 44, 29
4, 429167, Note_on_c, 9, 51, 79
4, 429415, Note_on_c, 9, 44, 0
4, 429478, Note_on_c, 9, 51, 0
4, 429727, Note_on_c, 9, 38, 32
4, 429847, Note_on_c, 9, 51, 39
4, 429945, Note_on_c, 9, 51, 0
4, 430039, Note_on_c, 9, 38, 0
4, 430120, Note_on_c, 9, 51, 49
4, 430205, Note_on_c, 9, 36, 32
4, 430426, Note_on_c, 9, 51, 0
4, 430608, Note_on_c, 9, 36, 0
4, 431050, Note_on_c, 9, 51, 74
4, 431073, Note_on_c, 9, 44, 49
4, 431386, Note_on_c, 9, 44, 0
4, 431390, Note_on_c, 9, 51, 0
4, 431739, Note_on_c, 9, 51, 32
4, 431848, Note_on_c, 9, 51, 0
4, 432027, Note_on_c, 9, 51, 62
4, 432321, Note_on_c, 9, 51, 0
4, 432964, Note_on_c, 9, 44, 50
4, 432994, Note_on_c, 9, 51, 76
4, 433386, Note_on_c, 9, 51, 0
4, 433396, Note_on_c, 9, 44, 0
4, 433974, Note_on_c, 9, 51, 48
4, 434213, Note_on_c, 9, 51, 0
4, 434812, Note_on_c, 9, 51, 71
4, 434855, Note_on_c, 9, 44, 50
4, 435182, Note_on_c, 9, 44, 0
4, 435218, Note_on_c, 9, 51, 0
4, 435647, Note_on_c, 9, 51, 32
4, 435759, Note_on_c, 9, 51, 0
4, 435874, Note_on_c, 9, 51, 56
4, 436128, Note_on_c, 9, 51, 0
4, 436782, Note_on_c, 9, 51, 75
4, 436807, Note_on_c, 9, 44, 45
4, 437113, Note_on_c, 9, 51, 0
4, 437188, Note_on_c, 9, 44, 0
4, 437435, Note_on_c, 9, 51, 37
4, 437542, Note_on_c, 9, 51, 0
4, 437744, Note_on_c, 9, 51, 55
4, 438011, Note_on_c, 9, 51, 0
4, 438706, Note_on_c, 9, 51, 77
4, 438782, Note_on_c, 9, 44, 45
4, 439117, Note_on_c, 9, 51, 0
4, 439230, Note_on_c, 9, 44, 0
4, 439653, Note_on_c, 9, 51, 49
4, 439746, Note_on_c, 9, 36, 32
4, 439912, Note_on_c, 9, 51, 0
4, 440133, Note_on_c, 9, 36, 0
4, 440675, Note_on_c, 9, 51, 72
4, 440695, Note_on_c, 9, 44, 50
4, 440969, Note_on_c, 9, 51, 0
4, 441111, Note_on_c, 9, 44, 0
4, 441329, Note_on_c, 9, 51, 38
4, 441427, Note_on_c, 9, 51, 0
4, 441681, Note_on_c, 9, 51, 46
4, 441891, Note_on_c, 9, 51, 0
4, 442602, Note_on_c, 9, 44, 40
4, 442617, Note_on_c, 9, 51, 77
4, 442629, Note_on_c, 9, 36, 32
4, 442913, Note_on_c, 9, 51, 0
4, 442920, Note_on_c, 9, 36, 0
4, 443012, Note_on_c, 9, 44, 0
4, 443561, Note_on_c, 9, 51, 69
4, 443979, Note_on_c, 9, 51, 0
4, 444535, Note_on_c, 9, 44, 49
4, 444555, Note_on_c, 9, 51, 74
4, 444926, Note_on_c, 9, 51, 0
4, 444977, Note_on_c, 9, 44, 0
4, 445491, Note_on_c, 9, 51, 62
4, 445816, Note_on_c, 9, 51, 0
4, 446476, Note_on_c, 9, 51, 71
4, 446481, Note_on_c, 9, 44, 51
4, 446853, Note_on_c, 9, 51, 0
4, 446900, Note_on_c, 9, 44, 0
4, 447441, Note_on_c, 9, 51, 57
4, 447680, Note_on_c, 9, 51, 0
4, 448068, Note_on_c, 9, 51, 72
4, 448259, Note_on_c, 9, 51, 0
4, 448394, Note_on_c, 9, 46, 38
4, 448440, Note_on_c, 9, 51, 57
4, 448702, Note_on_c, 9, 46, 0
4, 448725, Note_on_c, 9, 51, 0
4, 449336, Note_on_c, 9, 51, 74
4, 449704, Note_on_c, 9, 51, 0
4, 450231, Note_on_c, 9, 51, 65
4, 450340, Note_on_c, 9, 44, 35
4, 450459, Note_on_c, 9, 51, 0
4, 450657, Note_on_c, 9, 44, 0
4, 450905, Note_on_c, 9, 51, 46
4, 451012, Note_on_c, 9, 51, 0
4, 451245, Note_on_c, 9, 51, 56
4, 451634, Note_on_c, 9, 51, 0
4, 452218, Note_on_c, 9, 44, 53
4, 452250, Note_on_c, 9, 51, 77
4, 452535, Note_on_c, 9, 44, 0
4, 452645, Note_on_c, 9, 51, 0
4, 453195, Note_on_c, 9, 51, 62
4, 453443, Note_on_c, 9, 51, 0
4, 453831, Note_on_c, 9, 51, 59
4, 453970, Note_on_c, 9, 51, 0
4, 454164, Note_on_c, 9, 44, 45
4, 454165, Note_on_c, 9, 51, 70
4, 454465, Note_on_c, 9, 51, 0
4, 454513, Note_on_c, 9, 44, 0
4, 455142, Note_on_c, 9, 51, 77
4, 455467, Note_on_c, 9, 51, 0
4, 455988, Note_on_c, 9, 44, 52
4, 456063, Note_on_c, 9, 51, 59
4, 456305, Note_on_c, 9, 51, 0
4, 456394, Note_on_c, 9, 44, 0
4, 456991, Note_on_c, 9, 51, 74
4, 457287, Note_on_c, 9, 51, 0
4, 457941, Note_on_c, 9, 51, 75
4, 457972, Note_on_c, 9, 44, 54
4, 458324, Note_on_c, 9, 51, 0
4, 458359, Note_on_c, 9, 44, 0
4, 458552, Note_on_c, 9, 51, 51
4, 458765, Note_on_c, 9, 51, 0
4, 458943, Note_on_c, 9, 51, 70
4, 459260, Note_on_c, 9, 51, 0
4, 459577, Note_on_c, 9, 36, 32
4, 459886, Note_on_c, 9, 44, 53
4, 459905, Note_on_c, 9, 51, 76
4, 460294, Note_on_c, 9, 36, 0
4, 460324, Note_on_c, 9, 44, 0
4, 460326, Note_on_c, 9, 51, 0
4, 460536, Note_on_c, 9, 51, 49
4, 460666, Note_on_c, 9, 51, 0
4, 460883, Note_on_c, 9, 36, 32
4, 460890, Note_on_c, 9, 51, 57
4, 461213, Note_on_c, 9, 51, 0
4, 461251, Note_on_c, 9, 36, 0
4, 461770, Note_on_c, 9, 44, 50
4, 461901, Note_on_c, 9, 51, 77
4, 462145, Note_on_c, 9, 44, 0
4, 462252, Note_on_c, 9, 51, 0
4, 462470, Note_on_c, 9, 36, 32
4, 462763, Note_on_c, 9, 36, 0
4, 462817, Note_on_c, 9, 51, 48
4, 463065, Note_on_c, 9, 51, 0
4, 463667, Note_on_c, 9, 51, 74
4, 463722, Note_on_c, 9, 44, 55
4, 463787, Note_on_c, 9, 36, 32
4, 464072, Note_on_c, 9, 36, 0
4, 464087, Note_on_c, 9, 44, 0
4, 464087, Note_on_c, 9, 51, 0
4, 464352, Note_on_c, 9, 51, 50
4, 464542, Note_on_c, 9, 51, 0
4, 464703, Note_on_c, 9, 51, 67
4, 465040, Note_on_c, 9, 51, 0
4, 465630, Note_on_c, 9, 44, 50
4, 465674, Note_on_c, 9, 51, 77
4, 465985, Note_on_c, 9, 44, 0
4, 466074, Note_on_c, 9, 51, 0
4, 466636, Note_on_c, 9, 51, 49
4, 466832, Note_on_c, 9, 51, 0
4, 467226, Note_on_c, 9, 51, 56
4, 467359, Note_on_c, 9, 51, 0
4, 467557, Note_on_c, 9, 51, 68
4, 467607, Note_on_c, 9, 44, 43
4, 467969, Note_on_c, 9, 51, 0
4, 467975, Note_on_c, 9, 44, 0
4, 468577, Note_on_c, 9, 51, 78
4, 468957, Note_on_c, 9, 51, 0
4, 469473, Note_on_c, 9, 44, 53
4, 469490, Note_on_c, 9, 51, 74
4, 469796, Note_on_c, 9, 44, 0
4, 469864, Note_on_c, 9, 51, 0
4, 470167, Note_on_c, 9, 51, 45
4, 470273, Note_on_c, 9, 51, 0
4, 470452, Note_on_c, 9, 51, 60
4, 470789, Note_on_c, 9, 51, 0
4, 471405, Note_on_c, 9, 51, 73
4, 471450, Note_on_c, 9, 44, 57
4, 471722, Note_on_c, 9, 44, 0
4, 471777, Note_on_c, 9, 51, 0
4, 472050, Note_on_c, 9, 51, 46
4, 472183, Note_on_c, 9, 51, 0
4, 472402, Note_on_c, 9, 51, 55
4, 472727, Note_on_c, 9, 51, 0
4, 473306, Note_on_c, 9, 44, 56
4, 473378, Note_on_c, 9, 51, 76
4, 473607, Note_on_c, 9, 44, 0
4, 473770, Note_on_c, 9, 51, 0
4, 474343, Note_on_c, 9, 51, 51
4, 474579, Note_on_c, 9, 51, 0
4, 475182, Note_on_c, 9, 44, 55
4, 475287, Note_on_c, 9, 51, 78
4, 475566, Note_on_c, 9, 44, 0
4, 475647, Note_on_c, 9, 51, 0
4, 475837, Note_on_c, 9, 51, 57
4, 476045, Note_on_c, 9, 51, 0
4, 476209, Note_on_c, 9, 51, 59
4, 476540, Note_on_c, 9, 51, 0
4, 477162, Note_on_c, 9, 44, 57
4, 477185, Note_on_c, 9, 51, 78
4, 477534, Note_on_c, 9, 44, 0
4, 477594, Note_on_c, 9, 51, 0
4, 477762, Note_on_c, 9, 36, 32
4, 477813, Note_on_c, 9, 51, 57
4, 477971, Note_on_c, 9, 51, 0
4, 477997, Note_on_c, 9, 36, 0
4, 478105, Note_on_c, 9, 36, 32
4, 478162, Note_on_c, 9, 51, 60
4, 478475, Note_on_c, 9, 51, 0
4, 478590, Note_on_c, 9, 36, 0
4, 479079, Note_on_c, 9, 44, 57
4, 479103, Note_on_c, 9, 51, 79
4, 479463, Note_on_c, 9, 44, 0
4, 479538, Note_on_c, 9, 51, 0
4, 479721, Note_on_c, 9, 36, 32
4, 479823, Note_on_c, 9, 51, 49
4, 479898, Note_on_c, 9, 36, 0
4, 479964, Note_on_c, 9, 51, 0
4, 480073, Note_on_c, 9, 36, 32
4, 480132, Note_on_c, 9, 51, 53
4, 480385, Note_on_c, 9, 51, 0
4, 480803, Note_on_c, 9, 36, 0
4, 481050, Note_on_c, 9, 51, 79
4, 481070, Note_on_c, 9, 44, 57
4, 481351, Note_on_c, 9, 44, 0
4, 481528, Note_on_c, 9, 51, 0
4, 481637, Note_on_c, 9, 36, 32
4, 481752, Note_on_c, 9, 36, 0
4, 481940, Note_on_c, 9, 51, 45
4, 481995, Note_on_c, 9, 36, 32
4, 482153, Note_on_c, 9, 51, 0
4, 482628, Note_on_c, 9, 51, 74
4, 482823, Note_on_c, 9, 36, 0
4, 482830, Note_on_c, 9, 51, 0
4, 482948, Note_on_c, 9, 44, 50
4, 482960, Note_on_c, 9, 51, 49
4, 483262, Note_on_c, 9, 51, 0
4, 483268, Note_on_c, 9, 44, 0
4, 483532, Note_on_c, 9, 36, 32
4, 483669, Note_on_c, 9, 36, 0
4, 483913, Note_on_c, 9, 51, 77
4, 484443, Note_on_c, 9, 51, 0
4, 484769, Note_on_c, 9, 44, 47
4, 484794, Note_on_c, 9, 51, 49
4, 485082, Note_on_c, 9, 44, 0
4, 485105, Note_on_c, 9, 51, 0
4, 485485, Note_on_c, 9, 51, 74
4, 485848, Note_on_c, 9, 51, 0
4, 486329, Note_on_c, 9, 51, 56
4, 486482, Note_on_c, 9, 51, 0
4, 486709, Note_on_c, 9, 51, 69
4, 486823, Note_on_c, 9, 44, 51
4, 487137, Note_on_c, 9, 44, 0
4, 487196, Note_on_c, 9, 51, 0
4, 487766, Note_on_c, 9, 51, 64
4, 487985, Note_on_c, 9, 51, 0
4, 488394, Note_on_c, 9, 51, 78
4, 488692, Note_on_c, 9, 44, 59
4, 488751, Note_on_c, 9, 51, 0
4, 489006, Note_on_c, 9, 44, 0
4, 489293, Note_on_c, 9, 51, 50
4, 489310, Note_on_c, 9, 38, 32
4, 489411, Note_on_c, 9, 51, 0
4, 489466, Note_on_c, 9, 38, 0
4, 489656, Note_on_c, 9, 51, 57
4, 489984, Note_on_c, 9, 51, 0
4, 490213, Note_on_c, 9, 38, 32
4, 490481, Note_on_c, 9, 38, 0
4, 490561, Note_on_c, 9, 46, 31
4, 490572, Note_on_c, 9, 51, 74
4, 490851, Note_on_c, 9, 51, 0
4, 490858, Note_on_c, 9, 46, 0
4, 491207, Note_on_c, 9, 38, 32
4, 491496, Note_on_c, 9, 38, 0
4, 491503, Note_on_c, 9, 57, 16
4, 491520, Note_on_c, 9, 59, 64
4, 491522, Note_on_c, 9, 51, 74
4, 491534, Note_on_c, 9, 36, 32
4, 491772, Note_on_c, 9, 51, 0
4, 492115, Note_on_c, 9, 59, 0
4, 492439, Note_on_c, 9, 44, 45
4, 492445, Note_on_c, 9, 59, 48
4, 492569, Note_on_c, 9, 59, 0
4, 493037, Note_on_c, 9, 44, 0
4, 493168, Note_on_c, 9, 59, 55
4, 493421, Note_on_c, 9, 59, 0
4, 493502, Note_on_c, 9, 59, 36
4, 493541, Note_on_c, 9, 57, 0
4, 493781, Note_on_c, 9, 59, 0
4, 493782, Note_on_c, 9, 36, 0
4, 494401, Note_on_c, 9, 44, 77
4, 494426, Note_on_c, 9, 59, 67
4, 494861, Note_on_c, 9, 59, 0
4, 494874, Note_on_c, 9, 44, 0
4, 495112, Note_on_c, 9, 59, 40
4, 495262, Note_on_c, 9, 59, 0
4, 495466, Note_on_c, 9, 59, 66
4, 495984, Note_on_c, 9, 59, 0
4, 496269, Note_on_c, 9, 44, 53
4, 496373, Note_on_c, 9, 59, 72
4, 496762, Note_on_c, 9, 44, 0
4, 496923, Note_on_c, 9, 59, 0
4, 497304, Note_on_c, 9, 59, 48
4, 497784, Note_on_c, 9, 59, 0
4, 498186, Note_on_c, 9, 44, 54
4, 498245, Note_on_c, 9, 59, 74
4, 498532, Note_on_c, 9, 44, 0
4, 498741, Note_on_c, 9, 59, 0
4, 499216, Note_on_c, 9, 59, 55
4, 499688, Note_on_c, 9, 59, 0
4, 500055, Note_on_c, 9, 44, 48
4, 500123, Note_on_c, 9, 59, 68
4, 500516, Note_on_c, 9, 44, 0
4, 500520, Note_on_c, 9, 59, 0
4, 500771, Note_on_c, 9, 59, 40
4, 500970, Note_on_c, 9, 59, 0
4, 501151, Note_on_c, 9, 59, 57
4, 501494, Note_on_c, 9, 59, 0
4, 502027, Note_on_c, 9, 59, 80
4, 502109, Note_on_c, 9, 44, 55
4, 502493, Note_on_c, 9, 44, 0
4, 502513, Note_on_c, 9, 59, 0
4, 503032, Note_on_c, 9, 59, 36
4, 503271, Note_on_c, 9, 59, 0
4, 503896, Note_on_c, 9, 59, 62
4, 503905, Note_on_c, 9, 46, 72
4, 504167, Note_on_c, 9, 59, 0
4, 504950, Note_on_c, 9, 59, 62
4, 505428, Note_on_c, 9, 59, 0
4, 505508, Note_on_c, 9, 46, 0
4, 505555, Note_on_c, 9, 53, 72
4, 505765, Note_on_c, 9, 53, 0
4, 505882, Note_on_c, 9, 44, 38
4, 505921, Note_on_c, 9, 59, 54
4, 506260, Note_on_c, 9, 59, 0
4, 506391, Note_on_c, 9, 44, 0
4, 506865, Note_on_c, 9, 59, 54
4, 507395, Note_on_c, 9, 59, 0
4, 507798, Note_on_c, 9, 59, 63
4, 507860, Note_on_c, 9, 44, 43
4, 508209, Note_on_c, 9, 44, 0
4, 508245, Note_on_c, 9, 59, 0
4, 508775, Note_on_c, 9, 59, 48
4, 509103, Note_on_c, 9, 59, 0
4, 509697, Note_on_c, 9, 44, 36
4, 509823, Note_on_c, 9, 59, 68
4, 510065, Note_on_c, 9, 44, 0
4, 510148, Note_on_c, 9, 59, 0
4, 510388, Note_on_c, 9, 59, 48
4, 510566, Note_on_c, 9, 59, 0
4, 510782, Note_on_c, 9, 59, 49
4, 511272, Note_on_c, 9, 59, 0
4, 511610, Note_on_c, 9, 44, 40
4, 511658, Note_on_c, 9, 59, 66
4, 511943, Note_on_c, 9, 44, 0
4, 512046, Note_on_c, 9, 59, 0
4, 512334, Note_on_c, 9, 59, 50
4, 512487, Note_on_c, 9, 59, 0
4, 512729, Note_on_c, 9, 59, 48
4, 513089, Note_on_c, 9, 59, 0
4, 513270, Note_on_c, 9, 36, 32
4, 513492, Note_on_c, 9, 36, 0
4, 513607, Note_on_c, 9, 46, 37
4, 513616, Note_on_c, 9, 59, 77
4, 513752, Note_on_c, 9, 36, 32
4, 513933, Note_on_c, 9, 36, 0
4, 513943, Note_on_c, 9, 46, 0
4, 514143, Note_on_c, 9, 59, 0
4, 514610, Note_on_c, 9, 59, 39
4, 514661, Note_on_c, 9, 36, 32
4, 515007, Note_on_c, 9, 59, 0
4, 515144, Note_on_c, 9, 36, 0
4, 515330, Note_on_c, 9, 59, 43
4, 515468, Note_on_c, 9, 59, 0
4, 515508, Note_on_c, 9, 44, 42
4, 515652, Note_on_c, 9, 59, 74
4, 515863, Note_on_c, 9, 44, 0
4, 516190, Note_on_c, 9, 36, 32
4, 516306, Note_on_c, 9, 59, 0
4, 516452, Note_on_c, 9, 36, 0
4, 516605, Note_on_c, 9, 59, 54
4, 517210, Note_on_c, 9, 59, 0
4, 517428, Note_on_c, 9, 44, 45
4, 517455, Note_on_c, 9, 59, 61
4, 517796, Note_on_c, 9, 44, 0
4, 518083, Note_on_c, 9, 59, 0
4, 518411, Note_on_c, 9, 59, 58
4, 518964, Note_on_c, 9, 59, 0
4, 518981, Note_on_c, 9, 53, 77
4, 519281, Note_on_c, 9, 44, 43
4, 519350, Note_on_c, 9, 53, 0
4, 519465, Note_on_c, 9, 59, 34
4, 519642, Note_on_c, 9, 44, 0
4, 519989, Note_on_c, 9, 59, 0
4, 520329, Note_on_c, 9, 59, 52
4, 521009, Note_on_c, 9, 59, 0
4, 521281, Note_on_c, 9, 44, 45
4, 521331, Note_on_c, 9, 59, 60
4, 521601, Note_on_c, 9, 44, 0
4, 521965, Note_on_c, 9, 59, 0
4, 522316, Note_on_c, 9, 59, 51
4, 522800, Note_on_c, 9, 59, 0
4, 523186, Note_on_c, 9, 59, 62
4, 523210, Note_on_c, 9, 44, 31
4, 523623, Note_on_c, 9, 44, 0
4, 523644, Note_on_c, 9, 59, 0
4, 524180, Note_on_c, 9, 59, 58
4, 524583, Note_on_c, 9, 59, 0
4, 524773, Note_on_c, 9, 59, 38
4, 524914, Note_on_c, 9, 59, 0
4, 525133, Note_on_c, 9, 59, 50
4, 525504, Note_on_c, 9, 59, 0
4, 525732, Note_on_c, 9, 59, 68
4, 526515, Note_on_c, 9, 59, 0
4, 526740, Note_on_c, 9, 59, 34
4, 526896, Note_on_c, 9, 59, 0
4, 527045, Note_on_c, 9, 59, 50
4, 527069, Note_on_c, 9, 44, 36
4, 527514, Note_on_c, 9, 44, 0
4, 527716, Note_on_c, 9, 59, 0
4, 527976, Note_on_c, 9, 59, 53
4, 528009, Note_on_c, 9, 50, 32
4, 528387, Note_on_c, 9, 50, 0
4, 528626, Note_on_c, 9, 59, 0
4, 528643, Note_on_c, 9, 38, 32
4, 528943, Note_on_c, 9, 59, 55
4, 528973, Note_on_c, 9, 44, 35
4, 529030, Note_on_c, 9, 38, 0
4, 529427, Note_on_c, 9, 59, 0
4, 529437, Note_on_c, 9, 44, 0
4, 529626, Note_on_c, 9, 59, 42
4, 529784, Note_on_c, 9, 59, 0
4, 529948, Note_on_c, 9, 59, 61
4, 530671, Note_on_c, 9, 59, 0
4, 530890, Note_on_c, 9, 59, 60
4, 530916, Note_on_c, 9, 44, 32
4, 531306, Note_on_c, 9, 44, 0
4, 531432, Note_on_c, 9, 59, 0
4, 531645, Note_on_c, 9, 59, 41
4, 531789, Note_on_c, 9, 59, 0
4, 531947, Note_on_c, 9, 59, 67
4, 532661, Note_on_c, 9, 59, 0
4, 532775, Note_on_c, 9, 44, 45
4, 532886, Note_on_c, 9, 59, 64
4, 533178, Note_on_c, 9, 44, 0
4, 533410, Note_on_c, 9, 38, 32
4, 533468, Note_on_c, 9, 59, 0
4, 533793, Note_on_c, 9, 59, 61
4, 533891, Note_on_c, 9, 38, 0
4, 534346, Note_on_c, 9, 59, 0
4, 534423, Note_on_c, 9, 36, 32
4, 534513, Note_on_c, 9, 59, 33
4, 534596, Note_on_c, 9, 36, 0
4, 534653, Note_on_c, 9, 46, 31
4, 534666, Note_on_c, 9, 59, 0
4, 534793, Note_on_c, 9, 59, 60
4, 535169, Note_on_c, 9, 46, 0
4, 535582, Note_on_c, 9, 59, 0
4, 535703, Note_on_c, 9, 36, 32
4, 535786, Note_on_c, 9, 59, 67
4, 535973, Note_on_c, 9, 36, 0
4, 536379, Note_on_c, 9, 59, 0
4, 536622, Note_on_c, 9, 46, 46
4, 536659, Note_on_c, 9, 59, 60
4, 536935, Note_on_c, 9, 46, 0
4, 537264, Note_on_c, 9, 59, 0
4, 537413, Note_on_c, 9, 59, 36
4, 537552, Note_on_c, 9, 59, 0
4, 537730, Note_on_c, 9, 59, 67
4, 538238, Note_on_c, 9, 48, 32
4, 538344, Note_on_c, 9, 59, 0
4, 538363, Note_on_c, 9, 48, 0
4, 538384, Note_on_c, 9, 53, 55
4, 538540, Note_on_c, 9, 38, 32
4, 538548, Note_on_c, 9, 44, 34
4, 538634, Note_on_c, 9, 53, 0
4, 538737, Note_on_c, 9, 38, 0
4, 538765, Note_on_c, 9, 44, 0
4, 539006, Note_on_c, 9, 59, 44
4, 539136, Note_on_c, 9, 59, 0
4, 539501, Note_on_c, 9, 59, 74
4, 539555, Note_on_c, 9, 48, 32
4, 540010, Note_on_c, 9, 48, 0
4, 540247, Note_on_c, 9, 38, 32
4, 540253, Note_on_c, 9, 59, 0
4, 540364, Note_on_c, 9, 38, 0
4, 540477, Note_on_c, 9, 44, 45
4, 540504, Note_on_c, 9, 59, 47
4, 540769, Note_on_c, 9, 59, 0
4, 540884, Note_on_c, 9, 44, 0
4, 541074, Note_on_c, 9, 59, 72
4, 541604, Note_on_c, 9, 59, 0
4, 542062, Note_on_c, 9, 59, 38
4, 542203, Note_on_c, 9, 59, 0
4, 542366, Note_on_c, 9, 44, 35
4, 542402, Note_on_c, 9, 59, 63
4, 542724, Note_on_c, 9, 44, 0
4, 543142, Note_on_c, 9, 59, 0
4, 543395, Note_on_c, 9, 59, 57
4, 543411, Note_on_c, 9, 48, 32
4, 543964, Note_on_c, 9, 36, 32
4, 544002, Note_on_c, 9, 48, 0
4, 544066, Note_on_c, 9, 59, 0
4, 544212, Note_on_c, 9, 44, 43
4, 544229, Note_on_c, 9, 36, 0
4, 544320, Note_on_c, 9, 59, 62
4, 544577, Note_on_c, 9, 44, 0
4, 544847, Note_on_c, 9, 59, 0
4, 544991, Note_on_c, 9, 59, 40
4, 545137, Note_on_c, 9, 59, 0
4, 545333, Note_on_c, 9, 59, 67
4, 545360, Note_on_c, 9, 48, 32
4, 545470, Note_on_c, 9, 48, 0
4, 545930, Note_on_c, 9, 48, 32
4, 545947, Note_on_c, 9, 59, 0
4, 546082, Note_on_c, 9, 48, 0
4, 546218, Note_on_c, 9, 44, 39
4, 546220, Note_on_c, 9, 59, 70
4, 546361, Note_on_c, 9, 36, 32
4, 546539, Note_on_c, 9, 36, 0
4, 546593, Note_on_c, 9, 44, 0
4, 546765, Note_on_c, 9, 59, 0
4, 546858, Note_on_c, 9, 36, 32
4, 547120, Note_on_c, 9, 36, 0
4, 547796, Note_on_c, 9, 59, 36
4, 547951, Note_on_c, 9, 59, 0
4, 548113, Note_on_c, 9, 44, 37
4, 548147, Note_on_c, 9, 59, 74
4, 548513, Note_on_c, 9, 44, 0
4, 548640, Note_on_c, 9, 59, 0
4, 548821, Note_on_c, 9, 59, 80
4, 549400, Note_on_c, 9, 59, 0
4, 549780, Note_on_c, 9, 59, 48
4, 549918, Note_on_c, 9, 59, 0
4, 550029, Note_on_c, 9, 44, 43
4, 550132, Note_on_c, 9, 59, 67
4, 550407, Note_on_c, 9, 44, 0
4, 550869, Note_on_c, 9, 59, 0
4, 551007, Note_on_c, 9, 38, 32
4, 551088, Note_on_c, 9, 59, 49
4, 551514, Note_on_c, 9, 59, 0
4, 551525, Note_on_c, 9, 38, 0
4, 551635, Note_on_c, 9, 38, 32
4, 551943, Note_on_c, 9, 38, 0
4, 552017, Note_on_c, 9, 44, 78
4, 552035, Note_on_c, 9, 59, 94
4, 552615, Note_on_c, 9, 38, 32
4, 552682, Note_on_c, 9, 44, 0
4, 552908, Note_on_c, 9, 38, 0
4, 553000, Note_on_c, 9, 36, 32
4, 553048, Note_on_c, 9, 57, 16
4, 553602, Note_on_c, 9, 59, 0
4, 553757, Note_on_c, 9, 59, 36
4, 553898, Note_on_c, 9, 44, 31
4, 554065, Note_on_c, 9, 59, 0
4, 554241, Note_on_c, 9, 44, 0
4, 554604, Note_on_c, 9, 59, 54
4, 554757, Note_on_c, 9, 59, 0
4, 554984, Note_on_c, 9, 59, 48
4, 555427, Note_on_c, 9, 57, 0
4, 555529, Note_on_c, 9, 36, 0
4, 555536, Note_on_c, 9, 38, 32
4, 555652, Note_on_c, 9, 59, 0
4, 555781, Note_on_c, 9, 38, 0
4, 555857, Note_on_c, 9, 46, 26
4, 555863, Note_on_c, 9, 59, 64
4, 555889, Note_on_c, 9, 57, 16
4, 555893, Note_on_c, 9, 36, 32
4, 556039, Note_on_c, 9, 46, 0
4, 556326, Note_on_c, 9, 59, 0
4, 556565, Note_on_c, 9, 59, 41
4, 556704, Note_on_c, 9, 59, 0
4, 556888, Note_on_c, 9, 59, 70
4, 558119, Note_on_c, 9, 57, 0
4, 558155, Note_on_c, 9, 59, 0
4, 558371, Note_on_c, 9, 59, 50
4, 558515, Note_on_c, 9, 59, 0
4, 558714, Note_on_c, 9, 59, 53
4, 558897, Note_on_c, 9, 36, 0
4, 559463, Note_on_c, 9, 59, 0
4, 559556, Note_on_c, 9, 44, 36
4, 559716, Note_on_c, 9, 59, 61
4, 559905, Note_on_c, 9, 44, 0
4, 560260, Note_on_c, 9, 59, 0
4, 560617, Note_on_c, 9, 59, 54
4, 561159, Note_on_c, 9, 59, 0
4, 561404, Note_on_c, 9, 59, 50
4, 561626, Note_on_c, 9, 44, 27
4, 561985, Note_on_c, 9, 59, 0
4, 561988, Note_on_c, 9, 44, 0
4, 562201, Note_on_c, 9, 59, 54
4, 562377, Note_on_c, 9, 59, 0
4, 562582, Note_on_c, 9, 59, 59
4, 563316, Note_on_c, 9, 59, 0
4, 563453, Note_on_c, 9, 44, 36
4, 563544, Note_on_c, 9, 59, 55
4, 563844, Note_on_c, 9, 44, 0
4, 563953, Note_on_c, 9, 59, 0
4, 564134, Note_on_c, 9, 59, 45
4, 564307, Note_on_c, 9, 59, 0
4, 564552, Note_on_c, 9, 59, 51
4, 565220, Note_on_c, 9, 59, 0
4, 565453, Note_on_c, 9, 44, 37
4, 565513, Note_on_c, 9, 59, 64
4, 565809, Note_on_c, 9, 44, 0
4, 566061, Note_on_c, 9, 59, 0
4, 566556, Note_on_c, 9, 59, 38
4, 567141, Note_on_c, 9, 59, 0
4, 567354, Note_on_c, 9, 44, 40
4, 567440, Note_on_c, 9, 59, 65
4, 567645, Note_on_c, 9, 44, 0
4, 568005, Note_on_c, 9, 59, 0
4, 568186, Note_on_c, 9, 59, 35
4, 568339, Note_on_c, 9, 59, 0
4, 568448, Note_on_c, 9, 59, 35
4, 568782, Note_on_c, 9, 59, 0
4, 569268, Note_on_c, 9, 44, 37
4, 569332, Note_on_c, 9, 59, 73
4, 569761, Note_on_c, 9, 44, 0
4, 570035, Note_on_c, 9, 59, 0
4, 570335, Note_on_c, 9, 59, 49
4, 570816, Note_on_c, 9, 59, 0
4, 570830, Note_on_c, 9, 38, 32
4, 571063, Note_on_c, 9, 59, 42
4, 571140, Note_on_c, 9, 38, 0
4, 571210, Note_on_c, 9, 59, 0
4, 571217, Note_on_c, 9, 36, 32
4, 571236, Note_on_c, 9, 44, 32
4, 571366, Note_on_c, 9, 59, 67
4, 571545, Note_on_c, 9, 36, 0
4, 571642, Note_on_c, 9, 44, 0
4, 572100, Note_on_c, 9, 59, 0
4, 572234, Note_on_c, 9, 36, 32
4, 572319, Note_on_c, 9, 59, 57
4, 572806, Note_on_c, 9, 36, 0
4, 572915, Note_on_c, 9, 59, 0
4, 573209, Note_on_c, 9, 59, 63
4, 573746, Note_on_c, 9, 36, 32
4, 573822, Note_on_c, 9, 59, 0
4, 574269, Note_on_c, 9, 59, 46
4, 574289, Note_on_c, 9, 36, 0
4, 574686, Note_on_c, 9, 59, 0
4, 575025, Note_on_c, 9, 36, 32
4, 575069, Note_on_c, 9, 44, 35
4, 575124, Note_on_c, 9, 59, 75
4, 575466, Note_on_c, 9, 36, 0
4, 575489, Note_on_c, 9, 44, 0
4, 575827, Note_on_c, 9, 59, 0
4, 576138, Note_on_c, 9, 59, 35
4, 576302, Note_on_c, 9, 59, 0
4, 576916, Note_on_c, 9, 44, 39
4, 577062, Note_on_c, 9, 59, 70
4, 577300, Note_on_c, 9, 44, 0
4, 577471, Note_on_c, 9, 59, 0
4, 577682, Note_on_c, 9, 59, 45
4, 577823, Note_on_c, 9, 59, 0
4, 578039, Note_on_c, 9, 59, 58
4, 578690, Note_on_c, 9, 59, 0
4, 578871, Note_on_c, 9, 46, 25
4, 578946, Note_on_c, 9, 59, 64
4, 579258, Note_on_c, 9, 46, 0
4, 579551, Note_on_c, 9, 59, 0
4, 579597, Note_on_c, 9, 36, 32
4, 579749, Note_on_c, 9, 36, 0
4, 579965, Note_on_c, 9, 59, 40
4, 580386, Note_on_c, 9, 59, 0
4, 580460, Note_on_c, 9, 38, 32
4, 580677, Note_on_c, 9, 38, 0
4, 580801, Note_on_c, 9, 44, 43
4, 580824, Note_on_c, 9, 59, 68
4, 580914, Note_on_c, 9, 38, 32
4, 581121, Note_on_c, 9, 44, 0
4, 581213, Note_on_c, 9, 38, 0
4, 581230, Note_on_c, 9, 59, 0
4, 581457, Note_on_c, 9, 59, 34
4, 581560, Note_on_c, 9, 38, 32
4, 581598, Note_on_c, 9, 59, 0
4, 581806, Note_on_c, 9, 59, 49
4, 581954, Note_on_c, 9, 38, 0
4, 582350, Note_on_c, 9, 59, 0
4, 582403, Note_on_c, 9, 36, 32
4, 582565, Note_on_c, 9, 36, 0
4, 582716, Note_on_c, 9, 59, 66
4, 582743, Note_on_c, 9, 44, 40
4, 582975, Note_on_c, 9, 36, 32
4, 583079, Note_on_c, 9, 44, 0
4, 583203, Note_on_c, 9, 59, 0
4, 583285, Note_on_c, 9, 36, 0
4, 583588, Note_on_c, 9, 36, 32
4, 583617, Note_on_c, 9, 59, 58
4, 584231, Note_on_c, 9, 59, 0
4, 584579, Note_on_c, 9, 59, 62
4, 584593, Note_on_c, 9, 44, 49
4, 584624, Note_on_c, 9, 36, 0
4, 584945, Note_on_c, 9, 44, 0
4, 585086, Note_on_c, 9, 59, 0
4, 585244, Note_on_c, 9, 59, 37
4, 585377, Note_on_c, 9, 59, 0
4, 585567, Note_on_c, 9, 59, 64
4, 586152, Note_on_c, 9, 59, 0
4, 586468, Note_on_c, 9, 59, 66
4, 586609, Note_on_c, 9, 44, 34
4, 586929, Note_on_c, 9, 59, 0
4, 586996, Note_on_c, 9, 44, 0
4, 587468, Note_on_c, 9, 59, 50
4, 588101, Note_on_c, 9, 59, 0
4, 588381, Note_on_c, 9, 59, 64
4, 588433, Note_on_c, 9, 44, 52
4, 588701, Note_on_c, 9, 44, 0
4, 588931, Note_on_c, 9, 59, 0
4, 589394, Note_on_c, 9, 59, 47
4, 589778, Note_on_c, 9, 59, 0
4, 590354, Note_on_c, 9, 59, 85
4, 590407, Note_on_c, 9, 44, 48
4, 590708, Note_on_c, 9, 44, 0
4, 590961, Note_on_c, 9, 59, 0
4, 591315, Note_on_c, 9, 59, 36
4, 591722, Note_on_c, 9, 59, 0
4, 592246, Note_on_c, 9, 59, 68
4, 592257, Note_on_c, 9, 44, 44
4, 592567, Note_on_c, 9, 44, 0
4, 592695, Note_on_c, 9, 59, 0
4, 592853, Note_on_c, 9, 59, 33
4, 593015, Note_on_c, 9, 59, 0
4, 593245, Note_on_c, 9, 59, 62
4, 593691, Note_on_c, 9, 59, 0
4, 594154, Note_on_c, 9, 46, 40
4, 594193, Note_on_c, 9, 59, 70
4, 594445, Note_on_c, 9, 46, 0
4, 594708, Note_on_c, 9, 59, 0
4, 594872, Note_on_c, 9, 36, 32
4, 595049, Note_on_c, 9, 36, 0
4, 595175, Note_on_c, 9, 59, 64
4, 595739, Note_on_c, 9, 59, 0
4, 596026, Note_on_c, 9, 44, 40
4, 596183, Note_on_c, 9, 59, 65
4, 596375, Note_on_c, 9, 44, 0
4, 596612, Note_on_c, 9, 59, 0
4, 596821, Note_on_c, 9, 36, 32
4, 596946, Note_on_c, 9, 36, 0
4, 597165, Note_on_c, 9, 59, 64
4, 597767, Note_on_c, 9, 59, 0
4, 597988, Note_on_c, 9, 59, 56
4, 598036, Note_on_c, 9, 44, 36
4, 598126, Note_on_c, 9, 36, 32
4, 598253, Note_on_c, 9, 59, 0
4, 598362, Note_on_c, 9, 44, 0
4, 598734, Note_on_c, 9, 59, 54
4, 598789, Note_on_c, 9, 36, 0
4, 598867, Note_on_c, 9, 59, 0
4, 599034, Note_on_c, 9, 59, 68
4, 599287, Note_on_c, 9, 59, 0
4, 599943, Note_on_c, 9, 44, 34
4, 599984, Note_on_c, 9, 59, 71
4, 600273, Note_on_c, 9, 44, 0
4, 600506, Note_on_c, 9, 59, 0
4, 600969, Note_on_c, 9, 59, 70
4, 601404, Note_on_c, 9, 59, 0
4, 601818, Note_on_c, 9, 44, 36
4, 601948, Note_on_c, 9, 59, 85
4, 602196, Note_on_c, 9, 44, 0
4, 602372, Note_on_c, 9, 59, 0
4, 602579, Note_on_c, 9, 59, 52
4, 602735, Note_on_c, 9, 59, 0
4, 602951, Note_on_c, 9, 59, 73
4, 603443, Note_on_c, 9, 59, 0
4, 603703, Note_on_c, 9, 44, 64
4, 603838, Note_on_c, 9, 59, 73
4, 604109, Note_on_c, 9, 44, 0
4, 604255, Note_on_c, 9, 59, 0
4, 604451, Note_on_c, 9, 36, 32
4, 604667, Note_on_c, 9, 36, 0
4, 604774, Note_on_c, 9, 59, 49
4, 605168, Note_on_c, 9, 59, 0
4, 605684, Note_on_c, 9, 59, 89
4, 605754, Note_on_c, 9, 44, 64
4, 606135, Note_on_c, 9, 44, 0
4, 606356, Note_on_c, 9, 36, 32
4, 606398, Note_on_c, 9, 59, 0
4, 606462, Note_on_c, 9, 36, 0
4, 606643, Note_on_c, 9, 59, 48
4, 606813, Note_on_c, 9, 59, 0
4, 607334, Note_on_c, 9, 59, 58
4, 607461, Note_on_c, 9, 59, 0
4, 607623, Note_on_c, 9, 44, 50
4, 607648, Note_on_c, 9, 59, 70
4, 608004, Note_on_c, 9, 44, 0
4, 608325, Note_on_c, 9, 59, 0
4, 608330, Note_on_c, 9, 36, 32
4, 608490, Note_on_c, 9, 36, 0
4, 608644, Note_on_c, 9, 59, 73
4, 609088, Note_on_c, 9, 59, 0
4, 609553, Note_on_c, 9, 44, 57
4, 609554, Note_on_c, 9, 59, 76
4, 609969, Note_on_c, 9, 44, 0
4, 609975, Note_on_c, 9, 59, 0
4, 610148, Note_on_c, 9, 59, 62
4, 610413, Note_on_c, 9, 59, 0
4, 611095, Note_on_c, 9, 59, 71
4, 611144, Note_on_c, 9, 36, 32
4, 611244, Note_on_c, 9, 36, 0
4, 611349, Note_on_c, 9, 59, 0
4, 611466, Note_on_c, 9, 44, 61
4, 611490, Note_on_c, 9, 59, 62
4, 611866, Note_on_c, 9, 44, 0
4, 611879, Note_on_c, 9, 59, 0
4, 612466, Note_on_c, 9, 59, 80
4, 612924, Note_on_c, 9, 59, 0
4, 613077, Note_on_c, 9, 36, 32
4, 613094, Note_on_c, 9, 59, 70
4, 613243, Note_on_c, 9, 36, 0
4, 613327, Note_on_c, 9, 59, 0
4, 613508, Note_on_c, 9, 44, 55
4, 613617, Note_on_c, 9, 44, 0
4, 614001, Note_on_c, 9, 59, 83
4, 614040, Note_on_c, 9, 57, 16
4, 614054, Note_on_c, 9, 53, 32
4, 614071, Note_on_c, 9, 36, 32
4, 614332, Note_on_c, 9, 59, 0
4, 614998, Note_on_c, 9, 59, 68
4, 615067, Note_on_c, 9, 53, 0
4, 615071, Note_on_c, 9, 57, 0
4, 615211, Note_on_c, 9, 59, 0
4, 615325, Note_on_c, 9, 44, 45
4, 615407, Note_on_c, 9, 59, 71
4, 615623, Note_on_c, 9, 44, 0
4, 615847, Note_on_c, 9, 59, 0
4, 616336, Note_on_c, 9, 53, 32
4, 616360, Note_on_c, 9, 59, 84
4, 616440, Note_on_c, 9, 36, 0
4, 616783, Note_on_c, 9, 53, 0
4, 616858, Note_on_c, 9, 59, 0
4, 616975, Note_on_c, 9, 53, 32
4, 617160, Note_on_c, 9, 53, 0
4, 617197, Note_on_c, 9, 46, 42
4, 617319, Note_on_c, 9, 59, 68
4, 617355, Note_on_c, 9, 36, 32
4, 617567, Note_on_c, 9, 36, 0
4, 617626, Note_on_c, 9, 46, 0
4, 617708, Note_on_c, 9, 59, 0
4, 617941, Note_on_c, 9, 59, 55
4, 617954, Note_on_c, 9, 36, 32
4, 618125, Note_on_c, 9, 59, 0
4, 618129, Note_on_c, 9, 36, 0
4, 618310, Note_on_c, 9, 36, 32
4, 618327, Note_on_c, 9, 59, 64
4, 618736, Note_on_c, 9, 36, 0
4, 618868, Note_on_c, 9, 59, 0
4, 619277, Note_on_c, 9, 59, 69
4, 619698, Note_on_c, 9, 59, 0
4, 620211, Note_on_c, 9, 59, 67
4, 620527, Note_on_c, 9, 59, 0
4, 620967, Note_on_c, 9, 44, 49
4, 621141, Note_on_c, 9, 59, 72
4, 621389, Note_on_c, 9, 44, 0
4, 621509, Note_on_c, 9, 59, 0
4, 621763, Note_on_c, 9, 59, 44
4, 621936, Note_on_c, 9, 59, 0
4, 622071, Note_on_c, 9, 59, 40
4, 622471, Note_on_c, 9, 59, 0
4, 622964, Note_on_c, 9, 59, 70
4, 622973, Note_on_c, 9, 44, 39
4, 623358, Note_on_c, 9, 59, 0
4, 623361, Note_on_c, 9, 44, 0
4, 623597, Note_on_c, 9, 59, 40
4, 623759, Note_on_c, 9, 59, 0
4, 623952, Note_on_c, 9, 59, 48
4, 624485, Note_on_c, 9, 59, 0
4, 624881, Note_on_c, 9, 44, 52
4, 624914, Note_on_c, 9, 59, 70
4, 625294, Note_on_c, 9, 44, 0
4, 625351, Note_on_c, 9, 59, 0
4, 625884, Note_on_c, 9, 59, 57
4, 626247, Note_on_c, 9, 59, 0
4, 626829, Note_on_c, 9, 59, 73
4, 626833, Note_on_c, 9, 44, 51
4, 627220, Note_on_c, 9, 44, 0
4, 627255, Note_on_c, 9, 59, 0
4, 627529, Note_on_c, 9, 59, 35
4, 627710, Note_on_c, 9, 59, 0
4, 627825, Note_on_c, 9, 59, 32
4, 628427, Note_on_c, 9, 59, 0
4, 628733, Note_on_c, 9, 44, 57
4, 628816, Note_on_c, 9, 59, 60
4, 628871, Note_on_c, 9, 60, 38
4, 628980, Note_on_c, 9, 60, 0
4, 629137, Note_on_c, 9, 44, 0
4, 629294, Note_on_c, 9, 59, 0
4, 629818, Note_on_c, 9, 59, 55
4, 630273, Note_on_c, 9, 59, 0
4, 630660, Note_on_c, 9, 44, 55
4, 630697, Note_on_c, 9, 59, 65
4, 631002, Note_on_c, 9, 44, 0
4, 631221, Note_on_c, 9, 59, 0
4, 631713, Note_on_c, 9, 59, 45
4, 632079, Note_on_c, 9, 59, 0
4, 632609, Note_on_c, 9, 44, 46
4, 632701, Note_on_c, 9, 59, 88
4, 633005, Note_on_c, 9, 44, 0
4, 633084, Note_on_c, 9, 59, 0
4, 633355, Note_on_c, 9, 59, 49
4, 633534, Note_on_c, 9, 59, 0
4, 633686, Note_on_c, 9, 59, 46
4, 634084, Note_on_c, 9, 59, 0
4, 634474, Note_on_c, 9, 44, 73
4, 634605, Note_on_c, 9, 59, 75
4, 634980, Note_on_c, 9, 44, 0
4, 635224, Note_on_c, 9, 59, 0
4, 635535, Note_on_c, 9, 59, 40
4, 635676, Note_on_c, 9, 59, 0
4, 636137, Note_on_c, 9, 59, 60
4, 636310, Note_on_c, 9, 59, 0
4, 636346, Note_on_c, 9, 44, 38
4, 636477, Note_on_c, 9, 59, 74
4, 636970, Note_on_c, 9, 44, 0
4, 637128, Note_on_c, 9, 59, 0
4, 637370, Note_on_c, 9, 59, 51
4, 637545, Note_on_c, 9, 59, 0
4, 637989, Note_on_c, 9, 59, 82
4, 638366, Note_on_c, 9, 59, 0
4, 638397, Note_on_c, 9, 44, 39
4, 638829, Note_on_c, 9, 44, 0
4, 638896, Note_on_c, 9, 59, 70
4, 639043, Note_on_c, 9, 38, 32
4, 639112, Note_on_c, 9, 59, 0
4, 639276, Note_on_c, 9, 59, 68
4, 639913, Note_on_c, 9, 38, 0
4, 639915, Note_on_c, 9, 59, 0
4, 640058, Note_on_c, 9, 36, 32
4, 640276, Note_on_c, 9, 44, 39
4, 640278, Note_on_c, 9, 59, 54
4, 640335, Note_on_c, 9, 36, 0
4, 640402, Note_on_c, 9, 59, 0
4, 640746, Note_on_c, 9, 44, 0
4, 640828, Note_on_c, 9, 59, 83
4, 641284, Note_on_c, 9, 38, 32
4, 641367, Note_on_c, 9, 59, 0
4, 641834, Note_on_c, 9, 59, 43
4, 641889, Note_on_c, 9, 38, 0
4, 641970, Note_on_c, 9, 36, 32
4, 642003, Note_on_c, 9, 59, 0
4, 642154, Note_on_c, 9, 44, 48
4, 642191, Note_on_c, 9, 59, 82
4, 642228, Note_on_c, 9, 36, 0
4, 642519, Note_on_c, 9, 44, 0
4, 642914, Note_on_c, 9, 36, 32
4, 642974, Note_on_c, 9, 59, 0
4, 643199, Note_on_c, 9, 59, 42
4, 643241, Note_on_c, 9, 36, 0
4, 643346, Note_on_c, 9, 59, 0
4, 643775, Note_on_c, 9, 59, 77
4, 643867, Note_on_c, 9, 36, 32
4, 644077, Note_on_c, 9, 44, 42
4, 644094, Note_on_c, 9, 36, 0
4, 644216, Note_on_c, 9, 38, 32
4, 644466, Note_on_c, 9, 59, 0
4, 644484, Note_on_c, 9, 44, 0
4, 644578, Note_on_c, 9, 38, 0
4, 644793, Note_on_c, 9, 36, 32
4, 645001, Note_on_c, 9, 36, 0
4, 645065, Note_on_c, 9, 59, 80
4, 645209, Note_on_c, 9, 36, 32
4, 645566, Note_on_c, 9, 36, 0
4, 645710, Note_on_c, 9, 59, 0
4, 646023, Note_on_c, 9, 44, 51
4, 646070, Note_on_c, 9, 59, 58
4, 646361, Note_on_c, 9, 59, 0
4, 646369, Note_on_c, 9, 44, 0
4, 646781, Note_on_c, 9, 59, 43
4, 646925, Note_on_c, 9, 59, 0
4, 647090, Note_on_c, 9, 59, 68
4, 647657, Note_on_c, 9, 59, 0
4, 647959, Note_on_c, 9, 44, 51
4, 648046, Note_on_c, 9, 59, 70
4, 648308, Note_on_c, 9, 44, 0
4, 648440, Note_on_c, 9, 59, 0
4, 648697, Note_on_c, 9, 59, 36
4, 648852, Note_on_c, 9, 59, 0
4, 649011, Note_on_c, 9, 59, 55
4, 649399, Note_on_c, 9, 59, 0
4, 649914, Note_on_c, 9, 44, 65
4, 649967, Note_on_c, 9, 59, 75
4, 650317, Note_on_c, 9, 44, 0
4, 650373, Note_on_c, 9, 59, 0
4, 650623, Note_on_c, 9, 59, 44
4, 650782, Note_on_c, 9, 59, 0
4, 651006, Note_on_c, 9, 59, 57
4, 651202, Note_on_c, 9, 59, 0
4, 651571, Note_on_c, 9, 59, 75
4, 651611, Note_on_c, 9, 53, 57
4, 651796, Note_on_c, 9, 46, 53
4, 652039, Note_on_c, 9, 46, 0
4, 652107, Note_on_c, 9, 53, 0
4, 652109, Note_on_c, 9, 59, 0
4, 652438, Note_on_c, 9, 59, 48
4, 652634, Note_on_c, 9, 59, 0
4, 652913, Note_on_c, 9, 59, 71
4, 652927, Note_on_c, 9, 53, 64
4, 653477, Note_on_c, 9, 53, 0
4, 653486, Note_on_c, 9, 59, 0
4, 653835, Note_on_c, 9, 59, 53
4, 653958, Note_on_c, 9, 59, 0
4, 654445, Note_on_c, 9, 59, 74
4, 654451, Note_on_c, 9, 53, 66
4, 654892, Note_on_c, 9, 53, 0
4, 654926, Note_on_c, 9, 59, 0
4, 655364, Note_on_c, 9, 59, 40
4, 655505, Note_on_c, 9, 59, 0
4, 655568, Note_on_c, 9, 44, 44
4, 655764, Note_on_c, 9, 53, 66
4, 655810, Note_on_c, 9, 59, 71
4, 656048, Note_on_c, 9, 44, 0
4, 656251, Note_on_c, 9, 53, 0
4, 656386, Note_on_c, 9, 59, 0
4, 656683, Note_on_c, 9, 59, 43
4, 656968, Note_on_c, 9, 59, 0
4, 657293, Note_on_c, 9, 59, 72
4, 657552, Note_on_c, 9, 44, 55
4, 657797, Note_on_c, 9, 59, 0
4, 657959, Note_on_c, 9, 44, 0
4, 658224, Note_on_c, 9, 59, 49
4, 658379, Note_on_c, 9, 59, 0
4, 658604, Note_on_c, 9, 59, 71
4, 659223, Note_on_c, 9, 59, 0
4, 659517, Note_on_c, 9, 44, 52
4, 659569, Note_on_c, 9, 59, 63
4, 659940, Note_on_c, 9, 44, 0
4, 659978, Note_on_c, 9, 59, 0
4, 660228, Note_on_c, 9, 59, 43
4, 660381, Note_on_c, 9, 59, 0
4, 660545, Note_on_c, 9, 59, 72
4, 661133, Note_on_c, 9, 59, 0
4, 661481, Note_on_c, 9, 59, 71
4, 661489, Note_on_c, 9, 44, 27
4, 661888, Note_on_c, 9, 44, 0
4, 661982, Note_on_c, 9, 59, 0
4, 662374, Note_on_c, 9, 59, 70
4, 662774, Note_on_c, 9, 59, 0
4, 663318, Note_on_c, 9, 59, 85
4, 663351, Note_on_c, 9, 44, 40
4, 663661, Note_on_c, 9, 44, 0
4, 663837, Note_on_c, 9, 59, 0
4, 664067, Note_on_c, 9, 59, 47
4, 664206, Note_on_c, 9, 59, 0
4, 664399, Note_on_c, 9, 59, 64
4, 664894, Note_on_c, 9, 59, 0
4, 665242, Note_on_c, 9, 44, 38
4, 665343, Note_on_c, 9, 59, 77
4, 665578, Note_on_c, 9, 44, 0
4, 665862, Note_on_c, 9, 59, 0
4, 666302, Note_on_c, 9, 59, 66
4, 666674, Note_on_c, 9, 59, 0
4, 667095, Note_on_c, 9, 44, 50
4, 667235, Note_on_c, 9, 59, 74
4, 667406, Note_on_c, 9, 44, 0
4, 667664, Note_on_c, 9, 59, 0
4, 667926, Note_on_c, 9, 59, 34
4, 668595, Note_on_c, 9, 59, 0
4, 669022, Note_on_c, 9, 44, 50
4, 669125, Note_on_c, 9, 59, 82
4, 669412, Note_on_c, 9, 44, 0
4, 669542, Note_on_c, 9, 59, 0
4, 670127, Note_on_c, 9, 59, 62
4, 670357, Note_on_c, 9, 59, 0
4, 670778, Note_on_c, 9, 59, 78
4, 670980, Note_on_c, 9, 44, 59
4, 671336, Note_on_c, 9, 59, 0
4, 671421, Note_on_c, 9, 44, 0
4, 671737, Note_on_c, 9, 59, 84
4, 672442, Note_on_c, 9, 59, 0
4, 672667, Note_on_c, 9, 59, 51
4, 672788, Note_on_c, 9, 59, 0
4, 672919, Note_on_c, 9, 44, 68
4, 672995, Note_on_c, 9, 59, 71
4, 673364, Note_on_c, 9, 44, 0
4, 673600, Note_on_c, 9, 59, 0
4, 674588, Note_on_c, 9, 59, 79
4, 674740, Note_on_c, 9, 44, 29
4, 674838, Note_on_c, 9, 59, 0
4, 675026, Note_on_c, 9, 59, 66
4, 675114, Note_on_c, 9, 44, 0
4, 675175, Note_on_c, 9, 59, 0
4, 675556, Note_on_c, 9, 53, 68
4, 675558, Note_on_c, 9, 59, 80
4, 676267, Note_on_c, 9, 53, 0
4, 676270, Note_on_c, 9, 59, 0
4, 676480, Note_on_c, 9, 59, 55
4, 676618, Note_on_c, 9, 59, 0
4, 676772, Note_on_c, 9, 44, 49
4, 676863, Note_on_c, 9, 53, 64
4, 676886, Note_on_c, 9, 59, 75
4, 677085, Note_on_c, 9, 44, 0
4, 677574, Note_on_c, 9, 59, 0
4, 677595, Note_on_c, 9, 53, 0
4, 677903, Note_on_c, 9, 59, 39
4, 678153, Note_on_c, 9, 59, 0
4, 678487, Note_on_c, 9, 59, 78
4, 678663, Note_on_c, 9, 44, 50
4, 678896, Note_on_c, 9, 59, 0
4, 679095, Note_on_c, 9, 44, 0
4, 679415, Note_on_c, 9, 59, 40
4, 679576, Note_on_c, 9, 59, 0
4, 679778, Note_on_c, 9, 59, 78
4, 680371, Note_on_c, 9, 59, 0
4, 680554, Note_on_c, 9, 44, 50
4, 680662, Note_on_c, 9, 59, 44
4, 680797, Note_on_c, 9, 59, 0
4, 680881, Note_on_c, 9, 44, 0
4, 681244, Note_on_c, 9, 59, 74
4, 681650, Note_on_c, 9, 59, 0
4, 682156, Note_on_c, 9, 59, 54
4, 682292, Note_on_c, 9, 59, 0
4, 682491, Note_on_c, 9, 59, 72
4, 682506, Note_on_c, 9, 44, 45
4, 682887, Note_on_c, 9, 44, 0
4, 683018, Note_on_c, 9, 59, 0
4, 683513, Note_on_c, 9, 59, 66
4, 683977, Note_on_c, 9, 59, 0
4, 684455, Note_on_c, 9, 59, 75
4, 684481, Note_on_c, 9, 44, 45
4, 684924, Note_on_c, 9, 59, 0
4, 684929, Note_on_c, 9, 44, 0
4, 685152, Note_on_c, 9, 59, 50
4, 685301, Note_on_c, 9, 59, 0
4, 685506, Note_on_c, 9, 59, 66
4, 685886, Note_on_c, 9, 59, 0
4, 686394, Note_on_c, 9, 44, 50
4, 686419, Note_on_c, 9, 59, 69
4, 686810, Note_on_c, 9, 44, 0
4, 686891, Note_on_c, 9, 59, 0
4, 687067, Note_on_c, 9, 59, 38
4, 687205, Note_on_c, 9, 59, 0
4, 687412, Note_on_c, 9, 59, 68
4, 687787, Note_on_c, 9, 59, 0
4, 688301, Note_on_c, 9, 44, 40
4, 688366, Note_on_c, 9, 59, 83
4, 688711, Note_on_c, 9, 44, 0
4, 688899, Note_on_c, 9, 59, 0
4, 689322, Note_on_c, 9, 59, 59
4, 689760, Note_on_c, 9, 59, 0
4, 690004, Note_on_c, 9, 59, 59
4, 690163, Note_on_c, 9, 59, 0
4, 690234, Note_on_c, 9, 44, 49
4, 690284, Note_on_c, 9, 59, 50
4, 690676, Note_on_c, 9, 44, 0
4, 690768, Note_on_c, 9, 59, 0
4, 691249, Note_on_c, 9, 59, 71
4, 691761, Note_on_c, 9, 59, 0
4, 692180, Note_on_c, 9, 44, 51
4, 692211, Note_on_c, 9, 59, 75
4, 692599, Note_on_c, 9, 44, 0
4, 692683, Note_on_c, 9, 59, 0
4, 692902, Note_on_c, 9, 59, 47
4, 693052, Note_on_c, 9, 59, 0
4, 693196, Note_on_c, 9, 59, 51
4, 693679, Note_on_c, 9, 59, 0
4, 694093, Note_on_c, 9, 46, 38
4, 694166, Note_on_c, 9, 59, 73
4, 694401, Note_on_c, 9, 46, 0
4, 694690, Note_on_c, 9, 59, 0
4, 695174, Note_on_c, 9, 59, 51
4, 695448, Note_on_c, 9, 59, 0
4, 696039, Note_on_c, 9, 44, 35
4, 696128, Note_on_c, 9, 59, 81
4, 696356, Note_on_c, 9, 44, 0
4, 696539, Note_on_c, 9, 59, 0
4, 696744, Note_on_c, 9, 59, 50
4, 696879, Note_on_c, 9, 59, 0
4, 697023, Note_on_c, 9, 59, 43
4, 697432, Note_on_c, 9, 59, 0
4, 697593, Note_on_c, 9, 38, 32
4, 697787, Note_on_c, 9, 38, 0
4, 697917, Note_on_c, 9, 44, 53
4, 698005, Note_on_c, 9, 59, 78
4, 698020, Note_on_c, 9, 36, 32
4, 698234, Note_on_c, 9, 44, 0
4, 698253, Note_on_c, 9, 36, 0
4, 698619, Note_on_c, 9, 59, 0
4, 698918, Note_on_c, 9, 59, 58
4, 699022, Note_on_c, 9, 36, 32
4, 699192, Note_on_c, 9, 59, 0
4, 699451, Note_on_c, 9, 36, 0
4, 699863, Note_on_c, 9, 44, 45
4, 699877, Note_on_c, 9, 59, 74
4, 700212, Note_on_c, 9, 44, 0
4, 700318, Note_on_c, 9, 59, 0
4, 700422, Note_on_c, 9, 36, 32
4, 700548, Note_on_c, 9, 59, 44
4, 700695, Note_on_c, 9, 59, 0
4, 700830, Note_on_c, 9, 36, 0
4, 700833, Note_on_c, 9, 59, 53
4, 701337, Note_on_c, 9, 59, 0
4, 701687, Note_on_c, 9, 44, 52
4, 701708, Note_on_c, 9, 36, 32
4, 701798, Note_on_c, 9, 59, 74
4, 702093, Note_on_c, 9, 44, 0
4, 702155, Note_on_c, 9, 36, 0
4, 702236, Note_on_c, 9, 59, 0
4, 702504, Note_on_c, 9, 59, 30
4, 702636, Note_on_c, 9, 59, 0
4, 702749, Note_on_c, 9, 59, 45
4, 703137, Note_on_c, 9, 59, 0
4, 703336, Note_on_c, 9, 36, 32
4, 703590, Note_on_c, 9, 36, 0
4, 703667, Note_on_c, 9, 59, 71
4, 703671, Note_on_c, 9, 44, 54
4, 704058, Note_on_c, 9, 44, 0
4, 704212, Note_on_c, 9, 59, 0
4, 704636, Note_on_c, 9, 36, 32
4, 704698, Note_on_c, 9, 59, 36
4, 705012, Note_on_c, 9, 59, 0
4, 705127, Note_on_c, 9, 36, 0
4, 705528, Note_on_c, 9, 59, 69
4, 705585, Note_on_c, 9, 44, 53
4, 705853, Note_on_c, 9, 59, 0
4, 706023, Note_on_c, 9, 44, 0
4, 706282, Note_on_c, 9, 59, 62
4, 706438, Note_on_c, 9, 59, 0
4, 706680, Note_on_c, 9, 59, 62
4, 706979, Note_on_c, 9, 59, 0
4, 707199, Note_on_c, 9, 36, 32
4, 707467, Note_on_c, 9, 36, 0
4, 707469, Note_on_c, 9, 44, 50
4, 707521, Note_on_c, 9, 59, 69
4, 707844, Note_on_c, 9, 44, 0
4, 707984, Note_on_c, 9, 59, 0
4, 708523, Note_on_c, 9, 59, 59
4, 708536, Note_on_c, 9, 36, 32
4, 708713, Note_on_c, 9, 59, 0
4, 709054, Note_on_c, 9, 36, 0
4, 709171, Note_on_c, 9, 59, 71
4, 709272, Note_on_c, 9, 59, 0
4, 709421, Note_on_c, 9, 44, 55
4, 709488, Note_on_c, 9, 59, 66
4, 709786, Note_on_c, 9, 44, 0
4, 709879, Note_on_c, 9, 59, 0
4, 710427, Note_on_c, 9, 59, 79
4, 710827, Note_on_c, 9, 59, 0
4, 711029, Note_on_c, 9, 59, 64
4, 711279, Note_on_c, 9, 59, 0
4, 711329, Note_on_c, 9, 44, 50
4, 711684, Note_on_c, 9, 44, 0
4, 712039, Note_on_c, 9, 59, 84
4, 712408, Note_on_c, 9, 59, 0
4, 713007, Note_on_c, 9, 59, 37
4, 713177, Note_on_c, 9, 59, 0
4, 713306, Note_on_c, 9, 44, 43
4, 713318, Note_on_c, 9, 59, 62
4, 713674, Note_on_c, 9, 44, 0
4, 713793, Note_on_c, 9, 59, 0
4, 713932, Note_on_c, 9, 36, 32
4, 714152, Note_on_c, 9, 36, 0
4, 714320, Note_on_c, 9, 59, 78
4, 714358, Note_on_c, 9, 36, 32
4, 714624, Note_on_c, 9, 36, 0
4, 714721, Note_on_c, 9, 59, 0
4, 715172, Note_on_c, 9, 44, 53
4, 715256, Note_on_c, 9, 59, 72
4, 715495, Note_on_c, 9, 44, 0
4, 715631, Note_on_c, 9, 59, 0
4, 715936, Note_on_c, 9, 59, 44
4, 716123, Note_on_c, 9, 59, 0
4, 716215, Note_on_c, 9, 59, 35
4, 716708, Note_on_c, 9, 59, 0
4, 717149, Note_on_c, 9, 44, 57
4, 717189, Note_on_c, 9, 59, 75
4, 717421, Note_on_c, 9, 44, 0
4, 717606, Note_on_c, 9, 59, 0
4, 718108, Note_on_c, 9, 59, 61
4, 718358, Note_on_c, 9, 59, 0
4, 719005, Note_on_c, 9, 44, 56
4, 719064, Note_on_c, 9, 59, 84
4, 719306, Note_on_c, 9, 44, 0
4, 719550, Note_on_c, 9, 59, 0
4, 719962, Note_on_c, 9, 59, 47
4, 720132, Note_on_c, 9, 59, 0
4, 720625, Note_on_c, 9, 59, 79
4, 720881, Note_on_c, 9, 44, 55
4, 721002, Note_on_c, 9, 59, 0
4, 721265, Note_on_c, 9, 44, 0
4, 721503, Note_on_c, 9, 59, 54
4, 721708, Note_on_c, 9, 59, 0
4, 721875, Note_on_c, 9, 59, 68
4, 722387, Note_on_c, 9, 59, 0
4, 722854, Note_on_c, 9, 59, 67
4, 722861, Note_on_c, 9, 44, 57
4, 723156, Note_on_c, 9, 59, 0
4, 723233, Note_on_c, 9, 44, 0
4, 723493, Note_on_c, 9, 59, 34
4, 723510, Note_on_c, 9, 36, 32
4, 723675, Note_on_c, 9, 59, 0
4, 723758, Note_on_c, 9, 36, 0
4, 723810, Note_on_c, 9, 59, 54
4, 724245, Note_on_c, 9, 59, 0
4, 724778, Note_on_c, 9, 44, 57
4, 724798, Note_on_c, 9, 59, 80
4, 725162, Note_on_c, 9, 44, 0
4, 725244, Note_on_c, 9, 59, 0
4, 725483, Note_on_c, 9, 59, 40
4, 725639, Note_on_c, 9, 59, 0
4, 725768, Note_on_c, 9, 59, 53
4, 726186, Note_on_c, 9, 59, 0
4, 726701, Note_on_c, 9, 59, 78
4, 726769, Note_on_c, 9, 44, 57
4, 727050, Note_on_c, 9, 44, 0
4, 727108, Note_on_c, 9, 59, 0
4, 727338, Note_on_c, 9, 59, 35
4, 727514, Note_on_c, 9, 59, 0
4, 727692, Note_on_c, 9, 59, 66
4, 728006, Note_on_c, 9, 59, 0
4, 728647, Note_on_c, 9, 44, 50
4, 728694, Note_on_c, 9, 59, 81
4, 728967, Note_on_c, 9, 44, 0
4, 729129, Note_on_c, 9, 59, 0
4, 729299, Note_on_c, 9, 36, 32
4, 729363, Note_on_c, 9, 59, 50
4, 729438, Note_on_c, 9, 36, 0
4, 729538, Note_on_c, 9, 59, 0
4, 729679, Note_on_c, 9, 59, 52
4, 730232, Note_on_c, 9, 59, 0
4, 730468, Note_on_c, 9, 44, 47
4, 730604, Note_on_c, 9, 59, 74
4, 730781, Note_on_c, 9, 44, 0
4, 731070, Note_on_c, 9, 59, 0
4, 731266, Note_on_c, 9, 59, 44
4, 731393, Note_on_c, 9, 59, 0
4, 731563, Note_on_c, 9, 59, 68
4, 731972, Note_on_c, 9, 59, 0
4, 732508, Note_on_c, 9, 59, 74
4, 732522, Note_on_c, 9, 44, 51
4, 732836, Note_on_c, 9, 44, 0
4, 733012, Note_on_c, 9, 59, 0
4, 733141, Note_on_c, 9, 36, 32
4, 733255, Note_on_c, 9, 36, 0
4, 733504, Note_on_c, 9, 59, 54
4, 733775, Note_on_c, 9, 59, 0
4, 734129, Note_on_c, 9, 59, 79
4, 734391, Note_on_c, 9, 44, 59
4, 734705, Note_on_c, 9, 44, 0
4, 734763, Note_on_c, 9, 59, 0
4, 735347, Note_on_c, 9, 59, 75
4, 736226, Note_on_c, 9, 59, 0
4, 736260, Note_on_c, 9, 46, 31
4, 736298, Note_on_c, 9, 51, 77
4, 736557, Note_on_c, 9, 46, 0
4, 736916, Note_on_c, 9, 57, 16
4, 736957, Note_on_c, 9, 51, 0
4, 737041, Note_on_c, 9, 57, 0
4, 737239, Note_on_c, 9, 51, 55
4, 737625, Note_on_c, 9, 51, 0
4, 737920, Note_on_c, 9, 59, 55
4, 738058, Note_on_c, 9, 59, 0
4, 738212, Note_on_c, 9, 44, 49
4, 738303, Note_on_c, 9, 53, 64
4, 738326, Note_on_c, 9, 59, 75
4, 738525, Note_on_c, 9, 44, 0
4, 739014, Note_on_c, 9, 59, 0
4, 739035, Note_on_c, 9, 53, 0
4, 739343, Note_on_c, 9, 59, 39
4, 739593, Note_on_c, 9, 59, 0
4, 739927, Note_on_c, 9, 59, 78
4, 740103, Note_on_c, 9, 44, 50
4, 740336, Note_on_c, 9, 59, 0
4, 740535, Note_on_c, 9, 44, 0
4, 740855, Note_on_c, 9, 59, 40
4, 741016, Note_on_c, 9, 59, 0
4, 741218, Note_on_c, 9, 59, 78
4, 741811, Note_on_c, 9, 59, 0
4, 741994, Note_on_c, 9, 44, 50
4, 742102, Note_on_c, 9, 59, 44
4, 742237, Note_on_c, 9, 59, 0
4, 742321, Note_on_c, 9, 44, 0
4, 742684, Note_on_c, 9, 59, 74
4, 743090, Note_on_c, 9, 59, 0
4, 743596, Note_on_c, 9, 59, 54
4, 743732, Note_on_c, 9, 59, 0
4, 743931, Note_on_c, 9, 59, 72
4, 743946, Note_on_c, 9, 44, 45
4, 744327, Note_on_c, 9, 44, 0
4, 744458, Note_on_c, 9, 59, 0
4, 744953, Note_on_c, 9, 59, 66
4, 745417, Note_on_c, 9, 59, 0
4, 745895, Note_on_c, 9, 59, 75
4, 745921, Note_on_c, 9, 44, 45
4, 746364, Note_on_c, 9, 59, 0
4, 746369, Note_on_c, 9, 44, 0
4, 746592, Note_on_c, 9, 59, 50
4, 746741, Note_on_c, 9, 59, 0
4, 746946, Note_on_c, 9, 59, 66
4, 747326, Note_on_c, 9, 59, 0
4, 747834, Note_on_c, 9, 44, 50
4, 747859, Note_on_c, 9, 59, 69
4, 748250, Note_on_c, 9, 44, 0
4, 748331, Note_on_c, 9, 59, 0
4, 748507, Note_on_c, 9, 59, 38
4, 748645, Note_on_c, 9, 59, 0
4, 748852, Note_on_c, 9, 59, 68
4, 749227, Note_on_c, 9, 59, 0
4, 749741, Note_on_c, 9, 44, 40
4, 749806, Note_on_c, 9, 59, 83
4, 750151, Note_on_c, 9, 44, 0
4, 750339, Note_on_c, 9, 59, 0
4, 750762, Note_on_c, 9, 59, 59
4, 751200, Note_on_c, 9, 59, 0
4, 751444, Note_on_c, 9, 59, 59
4, 751603, Note_on_c, 9, 59, 0
4, 751674, Note_on_c, 9, 44, 49
4, 751724, Note_on_c, 9, 59, 50
4, 752116, Note_on_c, 9, 44, 0
4, 752208, Note_on_c, 9, 59, 0
4, 752689, Note_on_c, 9, 59, 71
4, 753201, Note_on_c, 9, 59, 0
4, 753620, Note_on_c, 9, 44, 51
4, 753651, Note_on_c, 9, 59, 75
4, 754039, Note_on_c, 9, 44, 0
4, 754123, Note_on_c, 9, 59, 0
4, 754342, Note_on_c, 9, 59, 47
4, 754492, Note_on_c, 9, 59, 0
4, 754636, Note_on_c, 9, 59, 51
4, 755119, Note_on_c, 9, 59, 0
4, 755533, Note_on_c, 9, 46, 38
4, 755606, Note_on_c, 9, 59, 73
4, 755841, Note_on_c, 9, 46, 0
4, 756130, Note_on_c, 9, 59, 0
4, 756614, Note_on_c, 9, 59, 51
4, 756888, Note_on_c, 9, 59, 0
4, 757479, Note_on_c, 9, 44, 56
4, 757568, Note_on_c, 9, 59, 68
4, 757796, Note_on_c, 9, 44, 0
4, 757979, Note_on_c, 9, 59, 0
4, 758184, Note_on_c, 9, 59, 67
4, 758319, Note_on_c, 9, 59, 0
4, 758463, Note_on_c, 9, 59, 66
4, 758872, Note_on_c, 9, 59, 0
4, 759357, Note_on_c, 9, 44, 52
4, 759445, Note_on_c, 9, 59, 63
4, 759460, Note_on_c, 9, 36, 51
4, 759674, Note_on_c, 9, 44, 0
4, 759693, Note_on_c, 9, 36, 0
4, 760059, Note_on_c, 9, 59, 0
4, 760358, Note_on_c, 9, 59, 61
4, 760462, Note_on_c, 9, 36, 49
4, 760632, Note_on_c, 9, 59, 0
4, 760891, Note_on_c, 9, 36, 0
4, 761303, Note_on_c, 9, 44, 47
4, 761317, Note_on_c, 9, 59, 58
4, 761652, Note_on_c, 9, 44, 0
4, 761758, Note_on_c, 9, 59, 0
4, 761862, Note_on_c, 9, 36, 45
4, 761988, Note_on_c, 9, 59, 56
4, 762135, Note_on_c, 9, 59, 0
4, 762270, Note_on_c, 9, 36, 0
4, 762273, Note_on_c, 9, 59, 55
4, 762777, Note_on_c, 9, 59, 0
4, 763127, Note_on_c, 9, 44, 43
4, 763148, Note_on_c, 9, 36, 42
4, 763238, Note_on_c, 9, 59, 53
4, 763533, Note_on_c, 9, 44, 0
4, 763595, Note_on_c, 9, 36, 0
4, 763676, Note_on_c, 9, 59, 0
4, 763944, Note_on_c, 9, 59, 51
4, 764076, Note_on_c, 9, 59, 0
4, 764189, Note_on_c, 9, 59, 50
4, 764577, Note_on_c, 9, 59, 0
4, 764776, Note_on_c, 9, 36, 39
4, 765030, Note_on_c, 9, 36, 0
4, 765107, Note_on_c, 9, 59, 48
4, 765111, Note_on_c, 9, 44, 38
4, 765498, Note_on_c, 9, 44, 0
4, 765652, Note_on_c, 9, 59, 0
4, 766076, Note_on_c, 9, 36, 35
4, 766138, Note_on_c, 9, 59, 45
4, 766452, Note_on_c, 9, 59, 0
4, 766567, Note_on_c, 9, 36, 0
4, 766968, Note_on_c, 9, 59, 42
4, 767025, Note_on_c, 9, 44, 33
4, 767293, Note_on_c, 9, 59, 0
4, 767463, Note_on_c, 9, 44, 0
4, 767722, Note_on_c, 9, 59, 40
4, 767878, Note_on_c, 9, 59, 0
4, 768120, Note_on_c, 9, 59, 39
4, 768419, Note_on_c, 9, 59, 0
4, 768639, Note_on_c, 9, 36, 29
4, 768907, Note_on_c, 9, 36, 0
4, 768909, Note_on_c, 9, 44, 29
4, 768961, Note_on_c, 9, 59, 37
4, 769284, Note_on_c, 9, 44, 0
4, 769424, Note_on_c, 9, 59, 0
4, 769963, Note_on_c, 9, 59, 34
4, 769976, Note_on_c, 9, 36, 26
4, 770153, Note_on_c, 9, 59, 0
4, 770494, Note_on_c, 9, 36, 0
4, 770611, Note_on_c, 9, 59, 32
4, 770712, Note_on_c, 9, 59, 0
4, 770861, Note_on_c, 9, 44, 24
4, 770928, Note_on_c, 9, 59, 31
4, 771226, Note_on_c, 9, 44, 0
4, 771319, Note_on_c, 9, 59, 0
4, 771867, Note_on_c, 9, 59, 29
4, 772267, Note_on_c, 9, 59, 0
4, 772469, Note_on_c, 9, 59, 27
4, 772719, Note_on_c, 9, 59, 0
4, 772769, Note_on_c, 9, 44, 19
4, 773124, Note_on_c, 9, 44, 0
4, 773479, Note_on_c, 9, 59, 24
4, 773848, Note_on_c, 9, 59, 0
4, 774447, Note_on_c, 9, 59, 22
4, 774617, Note_on_c, 9, 59, 0
4, 774746, Note_on_c, 9, 44, 15
4, 774758, Note_on_c, 9, 59, 21
4, 775114, Note_on_c, 9, 44, 0
4, 775233, Note_on_c, 9, 59, 0
4, 775372, Note_on_c, 9, 36, 13
4, 775592, Note_on_c, 9, 36, 0
4, 775760, Note_on_c, 9, 59, 18
4, 775798, Note_on_c, 9, 36, 12
4, 776064, Note_on_c, 9, 36, 0
4, 776161, Note_on_c, 9, 59, 0
4, 776612, Note_on_c, 9, 44, 10
4, 776696, Note_on_c, 9, 59, 15
4, 776935, Note_on_c, 9, 44, 0
4, 777071, Note_on_c, 9, 59, 0
4, 777376, Note_on_c, 9, 59, 13
4, 777563, Note_on_c, 9, 59, 0
4, 777655, Note_on_c, 9, 59, 13
4, 778148, Note_on_c, 9, 59, 0
4, 778589, Note_on_c, 9, 44, 5
4, 778629, Note_on_c, 9, 59, 10
4, 778861, Note_on_c, 9, 44, 0
4, 779046, Note_on_c, 9, 59, 0
4, 779046, End_track
0, 0, End_of_file
