0, 0, Header, 1, 2, 960
1, 0, Start_track
1, 0, Title_t, "They Say its Wonderful"
1, 0, Text_t, "They Say its Wonderful - Irving Berlin - improvised piano solo\012"
1, 0, Text_t, "dougmck@pipeline.com.au\012"
1, 0, Time_signature, 4, 2, 24, 8
1, 0, Key_signature, -1, "major"
1, 0, Tempo, 413793
1, 0, Marker_t, "They Say its Wonderful - Irving Berlin"
1, 0, End_track
2, 0, Start_track
2, 0, Title_t, "Piano solo "
2, 601, Control_c, 0, 64, 127
2, 1264, Note_on_c, 0, 43, 54
2, 1268, Note_on_c, 0, 62, 63
2, 1273, Control_c, 0, 64, 0
2, 1277, Note_on_c, 0, 53, 62
2, 1284, Note_on_c, 0, 58, 56
2, 1291, Note_on_c, 0, 55, 58
2, 1292, Note_on_c, 0, 50, 35
2, 1590, Control_c, 0, 64, 127
2, 2086, Note_on_c, 0, 62, 0
2, 2170, Note_on_c, 0, 55, 0
2, 2220, Note_on_c, 0, 53, 0
2, 2296, Note_on_c, 0, 58, 0
2, 3295, Note_on_c, 0, 43, 0
2, 3328, Note_on_c, 0, 50, 0
2, 3392, Note_on_c, 0, 64, 76
2, 3403, Note_on_c, 0, 61, 67
2, 3406, Control_c, 0, 64, 0
2, 3415, Note_on_c, 0, 58, 69
2, 3417, Note_on_c, 0, 55, 74
2, 3424, Note_on_c, 0, 49, 56
2, 3726, Control_c, 0, 64, 127
2, 3875, Note_on_c, 0, 55, 0
2, 3904, Note_on_c, 0, 64, 0
2, 4019, Note_on_c, 0, 58, 0
2, 4124, Note_on_c, 0, 61, 0
2, 4394, Note_on_c, 0, 65, 73
2, 4396, Note_on_c, 0, 58, 67
2, 4399, Control_c, 0, 64, 0
2, 4403, Note_on_c, 0, 62, 78
2, 4410, Note_on_c, 0, 50, 66
2, 4478, Note_on_c, 0, 49, 0
2, 4698, Control_c, 0, 64, 127
2, 4909, Note_on_c, 0, 65, 0
2, 4911, Note_on_c, 0, 58, 0
2, 4943, Note_on_c, 0, 62, 0
2, 5012, Note_on_c, 0, 50, 0
2, 5745, Note_on_c, 0, 70, 68
2, 5760, Note_on_c, 0, 65, 66
2, 5763, Note_on_c, 0, 61, 63
2, 5778, Note_on_c, 0, 48, 48
2, 5808, Note_on_c, 0, 58, 55
2, 5824, Control_c, 0, 64, 0
2, 6193, Control_c, 0, 64, 127
2, 6637, Note_on_c, 0, 70, 0
2, 6806, Note_on_c, 0, 69, 69
2, 7007, Note_on_c, 0, 69, 0
2, 7302, Note_on_c, 0, 58, 0
2, 7367, Note_on_c, 0, 65, 0
2, 7383, Note_on_c, 0, 70, 69
2, 7404, Note_on_c, 0, 48, 0
2, 7508, Note_on_c, 0, 61, 0
2, 7728, Note_on_c, 0, 70, 0
2, 8117, Note_on_c, 0, 69, 68
2, 8134, Control_c, 0, 64, 0
2, 8145, Note_on_c, 0, 61, 36
2, 8147, Note_on_c, 0, 46, 38
2, 8166, Note_on_c, 0, 64, 57
2, 8201, Note_on_c, 0, 55, 36
2, 8682, Control_c, 0, 64, 127
2, 10085, Note_on_c, 0, 64, 0
2, 10103, Note_on_c, 0, 69, 0
2, 10189, Note_on_c, 0, 61, 0
2, 11365, Note_on_c, 0, 67, 66
2, 11719, Note_on_c, 0, 67, 0
2, 11721, Note_on_c, 0, 55, 0
2, 11862, Note_on_c, 0, 46, 0
2, 12761, Note_on_c, 0, 84, 103
2, 12790, Note_on_c, 0, 45, 43
2, 12808, Control_c, 0, 64, 0
2, 13142, Control_c, 0, 64, 127
2, 13448, Note_on_c, 0, 84, 0
2, 13698, Note_on_c, 0, 53, 44
2, 13760, Note_on_c, 0, 84, 83
2, 13932, Note_on_c, 0, 84, 0
2, 14533, Note_on_c, 0, 53, 0
2, 14535, Note_on_c, 0, 45, 0
2, 14556, Note_on_c, 0, 76, 56
2, 14597, Note_on_c, 0, 57, 40
2, 15334, Note_on_c, 0, 57, 0
2, 15466, Note_on_c, 0, 60, 34
2, 16369, Note_on_c, 0, 67, 40
2, 16383, Note_on_c, 0, 64, 35
2, 17367, Note_on_c, 0, 60, 0
2, 17908, Note_on_c, 0, 64, 0
2, 18135, Note_on_c, 0, 62, 63
2, 18905, Note_on_c, 0, 60, 62
2, 18943, Note_on_c, 0, 62, 0
2, 19589, Note_on_c, 0, 60, 0
2, 19711, Note_on_c, 0, 76, 0
2, 19748, Note_on_c, 0, 59, 35
2, 19767, Note_on_c, 0, 57, 33
2, 19885, Note_on_c, 0, 57, 0
2, 20345, Note_on_c, 0, 67, 0
2, 20382, Note_on_c, 0, 59, 0
2, 20748, Note_on_c, 0, 64, 39
2, 20753, Note_on_c, 0, 67, 46
2, 20790, Note_on_c, 0, 60, 34
2, 20806, Note_on_c, 0, 50, 24
2, 20836, Control_c, 0, 64, 0
2, 21297, Control_c, 0, 64, 127
2, 21675, Note_on_c, 0, 57, 41
2, 22204, Note_on_c, 0, 64, 0
2, 22627, Note_on_c, 0, 64, 62
2, 22712, Note_on_c, 0, 67, 0
2, 23349, Note_on_c, 0, 65, 90
2, 23444, Note_on_c, 0, 64, 0
2, 23628, Note_on_c, 0, 60, 0
2, 24007, Note_on_c, 0, 65, 0
2, 24088, Note_on_c, 0, 54, 46
2, 24090, Note_on_c, 0, 57, 0
2, 24102, Note_on_c, 0, 66, 80
2, 24126, Note_on_c, 0, 60, 38
2, 24134, Note_on_c, 0, 50, 0
2, 24153, Control_c, 0, 64, 0
2, 24538, Control_c, 0, 64, 127
2, 24846, Note_on_c, 0, 66, 0
2, 25095, Note_on_c, 0, 75, 83
2, 25744, Note_on_c, 0, 60, 0
2, 26042, Note_on_c, 0, 75, 0
2, 26219, Note_on_c, 0, 74, 68
2, 26261, Note_on_c, 0, 60, 30
2, 26303, Control_c, 0, 64, 0
2, 26426, Control_c, 0, 64, 127
2, 28723, Note_on_c, 0, 66, 46
2, 28770, Note_on_c, 0, 60, 0
2, 28909, Note_on_c, 0, 74, 0
2, 28958, Note_on_c, 0, 54, 0
2, 30103, Note_on_c, 0, 72, 68
2, 30149, Note_on_c, 0, 43, 51
2, 30163, Control_c, 0, 64, 0
2, 30284, Note_on_c, 0, 66, 0
2, 30484, Note_on_c, 0, 66, 10
2, 30551, Control_c, 0, 64, 127
2, 30865, Note_on_c, 0, 66, 0
2, 30894, Note_on_c, 0, 71, 74
2, 30916, Note_on_c, 0, 43, 0
2, 30955, Note_on_c, 0, 55, 55
2, 30997, Note_on_c, 0, 72, 0
2, 31737, Note_on_c, 0, 71, 0
2, 31801, Note_on_c, 0, 70, 71
2, 31822, Note_on_c, 0, 65, 66
2, 31831, Note_on_c, 0, 58, 59
2, 31836, Note_on_c, 0, 55, 0
2, 31880, Control_c, 0, 64, 0
2, 32127, Control_c, 0, 64, 127
2, 32582, Note_on_c, 0, 70, 0
2, 32668, Note_on_c, 0, 65, 0
2, 32713, Note_on_c, 0, 70, 69
2, 32734, Note_on_c, 0, 61, 44
2, 32994, Note_on_c, 0, 61, 0
2, 33105, Note_on_c, 0, 70, 0
2, 33146, Note_on_c, 0, 58, 0
2, 33663, Note_on_c, 0, 61, 73
2, 34546, Note_on_c, 0, 46, 64
2, 34578, Control_c, 0, 64, 0
2, 34948, Control_c, 0, 64, 127
2, 35454, Note_on_c, 0, 53, 55
2, 36327, Note_on_c, 0, 53, 0
2, 36480, Note_on_c, 0, 58, 45
2, 36497, Note_on_c, 0, 46, 0
2, 36918, Note_on_c, 0, 61, 0
2, 36961, Note_on_c, 0, 58, 0
2, 37674, Note_on_c, 0, 73, 45
2, 37737, Control_c, 0, 64, 0
2, 37742, Note_on_c, 0, 48, 34
2, 37755, Note_on_c, 0, 64, 46
2, 37767, Note_on_c, 0, 58, 27
2, 38091, Control_c, 0, 64, 127
2, 38194, Note_on_c, 0, 64, 0
2, 38314, Note_on_c, 0, 73, 0
2, 38583, Note_on_c, 0, 48, 0
2, 38806, Note_on_c, 0, 58, 0
2, 38812, Note_on_c, 0, 84, 66
2, 39231, Note_on_c, 0, 84, 0
2, 39881, Note_on_c, 0, 84, 54
2, 39962, Note_on_c, 0, 75, 71
2, 39995, Note_on_c, 0, 64, 42
2, 40252, Note_on_c, 0, 84, 0
2, 40489, Note_on_c, 0, 75, 0
2, 40964, Note_on_c, 0, 64, 0
2, 41027, Note_on_c, 0, 81, 68
2, 41075, Note_on_c, 0, 73, 46
2, 41631, Note_on_c, 0, 73, 0
2, 41662, Note_on_c, 0, 81, 0
2, 42006, Note_on_c, 0, 81, 60
2, 42049, Note_on_c, 0, 61, 43
2, 42072, Note_on_c, 0, 73, 47
2, 42301, Note_on_c, 0, 61, 0
2, 42419, Note_on_c, 0, 81, 0
2, 42593, Note_on_c, 0, 73, 0
2, 43058, Note_on_c, 0, 79, 58
2, 43121, Note_on_c, 0, 70, 37
2, 43772, Note_on_c, 0, 79, 0
2, 43791, Note_on_c, 0, 70, 0
2, 44392, Note_on_c, 0, 61, 30
2, 44395, Note_on_c, 0, 79, 53
2, 44402, Note_on_c, 0, 70, 35
2, 44425, Note_on_c, 0, 52, 35
2, 44916, Note_on_c, 0, 61, 0
2, 44925, Note_on_c, 0, 52, 0
2, 44961, Note_on_c, 0, 79, 0
2, 45028, Note_on_c, 0, 70, 0
2, 47858, Note_on_c, 0, 72, 59
2, 47858, Note_on_c, 0, 67, 61
2, 47860, Note_on_c, 0, 64, 67
2, 47887, Note_on_c, 0, 46, 49
2, 47887, Note_on_c, 0, 60, 57
2, 47900, Note_on_c, 0, 56, 32
2, 47906, Control_c, 0, 64, 0
2, 48363, Control_c, 0, 64, 127
2, 48685, Note_on_c, 0, 56, 0
2, 48696, Note_on_c, 0, 72, 0
2, 48765, Note_on_c, 0, 60, 0
2, 48780, Note_on_c, 0, 67, 0
2, 48916, Note_on_c, 0, 64, 0
2, 48916, Note_on_c, 0, 46, 0
2, 49660, Note_on_c, 0, 67, 74
2, 49675, Note_on_c, 0, 64, 66
2, 49682, Note_on_c, 0, 60, 62
2, 49689, Note_on_c, 0, 45, 47
2, 49716, Note_on_c, 0, 55, 40
2, 49731, Control_c, 0, 64, 0
2, 50261, Control_c, 0, 64, 127
2, 50609, Note_on_c, 0, 55, 0
2, 50819, Note_on_c, 0, 54, 69
2, 51601, Note_on_c, 0, 60, 0
2, 51656, Note_on_c, 0, 54, 0
2, 51756, Note_on_c, 0, 64, 0
2, 51878, Note_on_c, 0, 65, 66
2, 51886, Note_on_c, 0, 60, 68
2, 51902, Note_on_c, 0, 53, 65
2, 51950, Control_c, 0, 64, 0
2, 52431, Control_c, 0, 64, 127
2, 52868, Note_on_c, 0, 53, 0
2, 53612, Note_on_c, 0, 53, 66
2, 53987, Note_on_c, 0, 53, 0
2, 54075, Note_on_c, 0, 65, 0
2, 54098, Note_on_c, 0, 67, 0
2, 54105, Note_on_c, 0, 45, 0
2, 54183, Note_on_c, 0, 60, 0
2, 55026, Note_on_c, 0, 64, 64
2, 55043, Note_on_c, 0, 60, 61
2, 55045, Note_on_c, 0, 38, 50
2, 55050, Note_on_c, 0, 54, 49
2, 55077, Control_c, 0, 64, 0
2, 55625, Control_c, 0, 64, 127
2, 56274, Note_on_c, 0, 51, 67
2, 56364, Control_c, 0, 64, 0
2, 56524, Control_c, 0, 64, 127
2, 57146, Note_on_c, 0, 64, 0
2, 57283, Note_on_c, 0, 51, 0
2, 57382, Note_on_c, 0, 54, 0
2, 57519, Note_on_c, 0, 60, 0
2, 57694, Note_on_c, 0, 38, 0
2, 57843, Note_on_c, 0, 38, 20
2, 57845, Note_on_c, 0, 54, 50
2, 57851, Note_on_c, 0, 60, 57
2, 57852, Note_on_c, 0, 63, 43
2, 57884, Note_on_c, 0, 50, 49
2, 57935, Control_c, 0, 64, 0
2, 58711, Control_c, 0, 64, 127
2, 59258, Note_on_c, 0, 50, 0
2, 61009, Note_on_c, 0, 60, 0
2, 61249, Note_on_c, 0, 54, 0
2, 61578, Note_on_c, 0, 63, 0
2, 61620, Note_on_c, 0, 38, 0
2, 61639, Note_on_c, 0, 54, 52
2, 61653, Note_on_c, 0, 44, 39
2, 61668, Note_on_c, 0, 59, 59
2, 61693, Control_c, 0, 64, 0
2, 61991, Control_c, 0, 64, 127
2, 62450, Note_on_c, 0, 59, 0
2, 62468, Note_on_c, 0, 54, 0
2, 62532, Note_on_c, 0, 44, 0
2, 62610, Control_c, 0, 64, 0
2, 62634, Note_on_c, 0, 58, 39
2, 62640, Note_on_c, 0, 53, 49
2, 62676, Note_on_c, 0, 43, 42
2, 63136, Control_c, 0, 64, 127
2, 63799, Note_on_c, 0, 43, 0
2, 63940, Note_on_c, 0, 58, 0
2, 64182, Note_on_c, 0, 53, 0
2, 64536, Note_on_c, 0, 62, 79
2, 64543, Note_on_c, 0, 58, 77
2, 64553, Note_on_c, 0, 46, 71
2, 64562, Note_on_c, 0, 53, 79
2, 64564, Note_on_c, 0, 55, 74
2, 64601, Control_c, 0, 64, 0
2, 64974, Control_c, 0, 64, 127
2, 65100, Note_on_c, 0, 62, 0
2, 65125, Note_on_c, 0, 55, 0
2, 65187, Note_on_c, 0, 53, 0
2, 65233, Note_on_c, 0, 58, 0
2, 65560, Note_on_c, 0, 61, 69
2, 65576, Note_on_c, 0, 64, 75
2, 65578, Note_on_c, 0, 58, 79
2, 65585, Note_on_c, 0, 49, 80
2, 65595, Note_on_c, 0, 55, 80
2, 65644, Control_c, 0, 64, 0
2, 65664, Note_on_c, 0, 46, 0
2, 66140, Control_c, 0, 64, 127
2, 66148, Note_on_c, 0, 64, 0
2, 66213, Note_on_c, 0, 55, 0
2, 66323, Note_on_c, 0, 58, 0
2, 66356, Note_on_c, 0, 61, 0
2, 66601, Note_on_c, 0, 49, 0
2, 66653, Note_on_c, 0, 65, 75
2, 66662, Note_on_c, 0, 58, 83
2, 66664, Note_on_c, 0, 62, 82
2, 66672, Note_on_c, 0, 50, 71
2, 66685, Control_c, 0, 64, 0
2, 67110, Control_c, 0, 64, 127
2, 67470, Note_on_c, 0, 58, 0
2, 67485, Note_on_c, 0, 62, 0
2, 67500, Note_on_c, 0, 50, 0
2, 67509, Note_on_c, 0, 65, 0
2, 68385, Note_on_c, 0, 70, 71
2, 68389, Note_on_c, 0, 65, 72
2, 68403, Note_on_c, 0, 61, 67
2, 68412, Note_on_c, 0, 48, 60
2, 68442, Note_on_c, 0, 58, 45
2, 68447, Control_c, 0, 64, 0
2, 68480, Note_on_c, 0, 68, 25
2, 68911, Control_c, 0, 64, 127
2, 69395, Note_on_c, 0, 68, 0
2, 69423, Note_on_c, 0, 70, 0
2, 69579, Note_on_c, 0, 69, 66
2, 69809, Note_on_c, 0, 69, 0
2, 70060, Note_on_c, 0, 65, 0
2, 70118, Note_on_c, 0, 70, 67
2, 70125, Note_on_c, 0, 61, 0
2, 70162, Note_on_c, 0, 58, 0
2, 70324, Note_on_c, 0, 48, 0
2, 70345, Note_on_c, 0, 70, 0
2, 70983, Note_on_c, 0, 69, 66
2, 70988, Note_on_c, 0, 61, 48
2, 71002, Note_on_c, 0, 48, 38
2, 71007, Note_on_c, 0, 58, 51
2, 71041, Control_c, 0, 64, 0
2, 71042, Note_on_c, 0, 57, 35
2, 71072, Note_on_c, 0, 64, 37
2, 71623, Note_on_c, 0, 56, 50
2, 71658, Note_on_c, 0, 57, 0
2, 72163, Note_on_c, 0, 56, 0
2, 72305, Note_on_c, 0, 55, 41
2, 72419, Control_c, 0, 64, 127
2, 72526, Note_on_c, 0, 48, 0
2, 72530, Note_on_c, 0, 58, 0
2, 72595, Note_on_c, 0, 61, 0
2, 72708, Note_on_c, 0, 55, 0
2, 72738, Note_on_c, 0, 64, 0
2, 72790, Note_on_c, 0, 69, 0
2, 72945, Control_c, 0, 64, 0
2, 72963, Note_on_c, 0, 67, 62
2, 72970, Note_on_c, 0, 46, 42
2, 72990, Note_on_c, 0, 60, 52
2, 73005, Note_on_c, 0, 56, 38
2, 73030, Note_on_c, 0, 64, 44
2, 73231, Control_c, 0, 64, 127
2, 73332, Note_on_c, 0, 60, 0
2, 73341, Note_on_c, 0, 67, 0
2, 73388, Note_on_c, 0, 64, 0
2, 73442, Note_on_c, 0, 56, 0
2, 73622, Note_on_c, 0, 46, 0
2, 73812, Control_c, 0, 64, 0
2, 73835, Note_on_c, 0, 72, 68
2, 73875, Note_on_c, 0, 45, 46
2, 73877, Note_on_c, 0, 60, 58
2, 74335, Control_c, 0, 64, 127
2, 74418, Note_on_c, 0, 60, 0
2, 74494, Note_on_c, 0, 45, 0
2, 74518, Note_on_c, 0, 72, 0
2, 74697, Note_on_c, 0, 72, 54
2, 78230, Note_on_c, 0, 67, 36
2, 78236, Note_on_c, 0, 63, 37
2, 78248, Note_on_c, 0, 62, 49
2, 78264, Note_on_c, 0, 57, 30
2, 78292, Note_on_c, 0, 72, 0
2, 79179, Note_on_c, 0, 75, 91
2, 79385, Note_on_c, 0, 67, 0
2, 79421, Note_on_c, 0, 62, 0
2, 79464, Note_on_c, 0, 63, 0
2, 79524, Note_on_c, 0, 57, 0
2, 80042, Note_on_c, 0, 75, 0
2, 80167, Note_on_c, 0, 75, 78
2, 80171, Note_on_c, 0, 65, 58
2, 80176, Note_on_c, 0, 61, 48
2, 80179, Note_on_c, 0, 60, 48
2, 80191, Note_on_c, 0, 55, 47
2, 80197, Control_c, 0, 64, 0
2, 80571, Control_c, 0, 64, 127
2, 80988, Note_on_c, 0, 77, 71
2, 81050, Note_on_c, 0, 75, 0
2, 81161, Note_on_c, 0, 65, 0
2, 81171, Note_on_c, 0, 55, 0
2, 81310, Note_on_c, 0, 60, 0
2, 81468, Note_on_c, 0, 61, 0
2, 81776, Note_on_c, 0, 77, 0
2, 82081, Note_on_c, 0, 54, 42
2, 82083, Note_on_c, 0, 78, 55
2, 82088, Note_on_c, 0, 60, 38
2, 82106, Note_on_c, 0, 64, 39
2, 82174, Control_c, 0, 64, 0
2, 82617, Control_c, 0, 64, 127
2, 83197, Note_on_c, 0, 78, 0
2, 83224, Note_on_c, 0, 81, 62
2, 84298, Note_on_c, 0, 64, 0
2, 84373, Note_on_c, 0, 60, 0
2, 84620, Note_on_c, 0, 54, 0
2, 84902, Note_on_c, 0, 81, 0
2, 85120, Note_on_c, 0, 79, 9
2, 85410, Note_on_c, 0, 79, 0
2, 85990, Note_on_c, 0, 61, 32
2, 86009, Note_on_c, 0, 65, 58
2, 86037, Control_c, 0, 64, 0
2, 86052, Note_on_c, 0, 58, 33
2, 86097, Note_on_c, 0, 55, 27
2, 86122, Note_on_c, 0, 53, 24
2, 86354, Control_c, 0, 64, 127
2, 86498, Note_on_c, 0, 61, 0
2, 86528, Note_on_c, 0, 55, 0
2, 86549, Note_on_c, 0, 58, 0
2, 86581, Note_on_c, 0, 53, 0
2, 87399, Note_on_c, 0, 31, 58
2, 87469, Note_on_c, 0, 65, 0
2, 87556, Note_on_c, 0, 31, 0
2, 90033, Note_on_c, 0, 82, 79
2, 90041, Note_on_c, 0, 73, 67
2, 90043, Note_on_c, 0, 77, 74
2, 90068, Note_on_c, 0, 68, 59
2, 90166, Control_c, 0, 64, 0
2, 90254, Control_c, 0, 64, 127
2, 90887, Note_on_c, 0, 82, 0
2, 90894, Note_on_c, 0, 73, 0
2, 90920, Note_on_c, 0, 77, 0
2, 91313, Note_on_c, 0, 68, 0
2, 91337, Note_on_c, 0, 82, 63
2, 91342, Note_on_c, 0, 73, 44
2, 91355, Note_on_c, 0, 77, 55
2, 91380, Note_on_c, 0, 67, 49
2, 91867, Note_on_c, 0, 67, 0
2, 92025, Note_on_c, 0, 77, 0
2, 92027, Note_on_c, 0, 82, 0
2, 92084, Note_on_c, 0, 73, 0
2, 93071, Note_on_c, 0, 73, 38
2, 93112, Note_on_c, 0, 65, 55
2, 93115, Note_on_c, 0, 61, 37
2, 93117, Note_on_c, 0, 57, 33
2, 93131, Note_on_c, 0, 49, 25
2, 93198, Control_c, 0, 64, 0
2, 93730, Control_c, 0, 64, 127
2, 94168, Note_on_c, 0, 56, 49
2, 94205, Note_on_c, 0, 57, 0
2, 94883, Note_on_c, 0, 56, 0
2, 94897, Note_on_c, 0, 65, 0
2, 95013, Note_on_c, 0, 49, 0
2, 95064, Note_on_c, 0, 61, 0
2, 95094, Note_on_c, 0, 73, 0
2, 95446, Note_on_c, 0, 61, 33
2, 95471, Note_on_c, 0, 64, 60
2, 95486, Note_on_c, 0, 48, 40
2, 95492, Control_c, 0, 64, 0
2, 95496, Note_on_c, 0, 58, 35
2, 95900, Control_c, 0, 64, 127
2, 96630, Note_on_c, 0, 61, 0
2, 96933, Note_on_c, 0, 64, 0
2, 97034, Note_on_c, 0, 58, 0
2, 97117, Note_on_c, 0, 48, 0
2, 98401, Note_on_c, 0, 84, 55
2, 98413, Note_on_c, 0, 60, 46
2, 98633, Note_on_c, 0, 84, 0
2, 98723, Note_on_c, 0, 60, 0
2, 98813, Note_on_c, 0, 88, 74
2, 98826, Note_on_c, 0, 64, 67
2, 99147, Note_on_c, 0, 88, 0
2, 99263, Control_c, 0, 64, 0
2, 99281, Note_on_c, 0, 91, 89
2, 99283, Note_on_c, 0, 67, 80
2, 99294, Note_on_c, 0, 64, 0
2, 99509, Control_c, 0, 64, 127
2, 99851, Note_on_c, 0, 91, 0
2, 99856, Note_on_c, 0, 67, 0
2, 99992, Note_on_c, 0, 93, 88
2, 100009, Control_c, 0, 64, 0
2, 100011, Note_on_c, 0, 69, 80
2, 100186, Control_c, 0, 64, 127
2, 100488, Note_on_c, 0, 69, 0
2, 100566, Note_on_c, 0, 93, 0
2, 101348, Note_on_c, 0, 77, 49
2, 101380, Note_on_c, 0, 70, 44
2, 101389, Note_on_c, 0, 67, 34
2, 101396, Note_on_c, 0, 63, 44
2, 101415, Note_on_c, 0, 58, 43
2, 101433, Note_on_c, 0, 53, 32
2, 101454, Control_c, 0, 64, 0
2, 101669, Control_c, 0, 64, 127
2, 101856, Note_on_c, 0, 67, 0
2, 101914, Note_on_c, 0, 70, 0
2, 102032, Note_on_c, 0, 77, 0
2, 102364, Note_on_c, 0, 89, 70
2, 102401, Note_on_c, 0, 60, 39
2, 102492, Note_on_c, 0, 89, 0
2, 103235, Note_on_c, 0, 63, 0
2, 103237, Note_on_c, 0, 60, 0
2, 103270, Note_on_c, 0, 53, 0
2, 103382, Note_on_c, 0, 58, 0
2, 104013, Control_c, 0, 64, 0
2, 104031, Note_on_c, 0, 41, 68
2, 104136, Control_c, 0, 64, 127
2, 104341, Note_on_c, 0, 41, 0
2, 104794, Note_on_c, 0, 51, 48
2, 105181, Note_on_c, 0, 57, 53
2, 105553, Note_on_c, 0, 62, 65
2, 105806, Note_on_c, 0, 62, 0
2, 106306, Note_on_c, 0, 69, 49
2, 106497, Note_on_c, 0, 69, 0
2, 106642, Note_on_c, 0, 74, 50
2, 106887, Note_on_c, 0, 74, 0
2, 106962, Note_on_c, 0, 78, 45
2, 107085, Note_on_c, 0, 78, 0
2, 107317, Note_on_c, 0, 81, 39
2, 107487, Note_on_c, 0, 81, 0
2, 107668, Note_on_c, 0, 86, 46
2, 107798, Note_on_c, 0, 86, 0
2, 107988, Note_on_c, 0, 90, 48
2, 108124, Note_on_c, 0, 90, 0
2, 108429, Note_on_c, 0, 93, 38
2, 108508, Note_on_c, 0, 93, 0
2, 108800, Note_on_c, 0, 98, 46
2, 108930, Note_on_c, 0, 98, 0
2, 109228, Note_on_c, 0, 105, 62
2, 109405, Note_on_c, 0, 105, 0
2, 109745, Note_on_c, 0, 102, 46
2, 109935, Note_on_c, 0, 102, 0
2, 110404, Note_on_c, 0, 102, 40
2, 110652, Note_on_c, 0, 102, 0
2, 111172, Note_on_c, 0, 102, 44
2, 111519, Note_on_c, 0, 102, 0
2, 112148, Note_on_c, 0, 102, 36
2, 113283, Note_on_c, 0, 57, 0
2, 113312, Note_on_c, 0, 51, 0
2, 113477, Note_on_c, 0, 102, 0
2, 113674, Note_on_c, 0, 103, 62
2, 115296, Note_on_c, 0, 103, 0
2, 115336, Control_c, 0, 64, 0
2, 115348, Note_on_c, 0, 101, 44
2, 115361, Note_on_c, 0, 65, 19
2, 115366, Note_on_c, 0, 60, 28
2, 115405, Note_on_c, 0, 62, 32
2, 115515, Control_c, 0, 64, 127
2, 115824, Note_on_c, 0, 65, 0
2, 115958, Note_on_c, 0, 101, 0
2, 116094, Note_on_c, 0, 53, 43
2, 116414, Note_on_c, 0, 53, 0
2, 116695, Note_on_c, 0, 53, 34
2, 116999, Note_on_c, 0, 53, 0
2, 117329, Note_on_c, 0, 53, 37
2, 117450, Note_on_c, 0, 60, 0
2, 117486, Note_on_c, 0, 62, 0
2, 117906, Note_on_c, 0, 77, 63
2, 117959, Note_on_c, 0, 74, 62
2, 117980, Control_c, 0, 64, 0
2, 117982, Note_on_c, 0, 60, 24
2, 117985, Note_on_c, 0, 65, 44
2, 117987, Note_on_c, 0, 72, 51
2, 118024, Note_on_c, 0, 69, 54
2, 118025, Note_on_c, 0, 62, 27
2, 118191, Control_c, 0, 64, 127
2, 118409, Note_on_c, 0, 53, 0
2, 118501, Note_on_c, 0, 65, 0
2, 118621, Note_on_c, 0, 53, 32
2, 119061, Note_on_c, 0, 53, 0
2, 119330, Note_on_c, 0, 53, 34
2, 119452, Note_on_c, 0, 69, 0
2, 119646, Note_on_c, 0, 72, 0
2, 119660, Note_on_c, 0, 74, 0
2, 119690, Note_on_c, 0, 53, 0
2, 119776, Note_on_c, 0, 77, 0
2, 119994, Note_on_c, 0, 53, 59
2, 120020, Note_on_c, 0, 60, 0
2, 120151, Note_on_c, 0, 62, 0
2, 120209, Note_on_c, 0, 53, 0
2, 120642, Note_on_c, 0, 55, 46
2, 120685, Note_on_c, 0, 60, 45
2, 120732, Control_c, 0, 64, 0
2, 120739, Note_on_c, 0, 81, 64
2, 120744, Note_on_c, 0, 61, 43
2, 120746, Note_on_c, 0, 73, 47
2, 120751, Note_on_c, 0, 77, 62
2, 120760, Note_on_c, 0, 65, 51
2, 120767, Note_on_c, 0, 67, 58
2, 121066, Control_c, 0, 64, 127
2, 121200, Note_on_c, 0, 55, 0
2, 121405, Note_on_c, 0, 60, 0
2, 121482, Note_on_c, 0, 65, 0
2, 121518, Note_on_c, 0, 61, 0
2, 122528, Note_on_c, 0, 51, 50
2, 122772, Note_on_c, 0, 51, 0
2, 123307, Note_on_c, 0, 51, 34
2, 123528, Note_on_c, 0, 81, 0
2, 123610, Note_on_c, 0, 77, 0
2, 123747, Note_on_c, 0, 67, 0
2, 123790, Note_on_c, 0, 73, 0
2, 124027, Note_on_c, 0, 61, 38
2, 124047, Note_on_c, 0, 79, 35
2, 124073, Note_on_c, 0, 72, 37
2, 124084, Note_on_c, 0, 67, 37
2, 124117, Control_c, 0, 64, 0
2, 124365, Control_c, 0, 64, 127
2, 124743, Note_on_c, 0, 51, 0
2, 124984, Note_on_c, 0, 51, 50
2, 125405, Note_on_c, 0, 67, 0
2, 125844, Note_on_c, 0, 79, 0
2, 125853, Note_on_c, 0, 67, 48
2, 126033, Note_on_c, 0, 72, 0
2, 126212, Note_on_c, 0, 67, 0
2, 126398, Note_on_c, 0, 51, 0
2, 126670, Note_on_c, 0, 51, 51
2, 126688, Note_on_c, 0, 81, 84
2, 126758, Note_on_c, 0, 61, 0
2, 126917, Note_on_c, 0, 81, 0
2, 126961, Note_on_c, 0, 51, 0
2, 128614, Note_on_c, 0, 77, 84
2, 128634, Control_c, 0, 64, 0
2, 128656, Note_on_c, 0, 69, 88
2, 128685, Note_on_c, 0, 48, 49
2, 128701, Note_on_c, 0, 57, 45
2, 128951, Control_c, 0, 64, 127
2, 129089, Note_on_c, 0, 57, 0
2, 129496, Note_on_c, 0, 57, 61
2, 129508, Note_on_c, 0, 77, 0
2, 129580, Note_on_c, 0, 69, 0
2, 130314, Note_on_c, 0, 69, 58
2, 130324, Note_on_c, 0, 65, 60
2, 130326, Note_on_c, 0, 64, 60
2, 130351, Note_on_c, 0, 60, 37
2, 131019, Note_on_c, 0, 57, 0
2, 131269, Note_on_c, 0, 60, 0
2, 131354, Note_on_c, 0, 65, 0
2, 131363, Note_on_c, 0, 64, 0
2, 131426, Note_on_c, 0, 60, 54
2, 131433, Note_on_c, 0, 69, 0
2, 132278, Note_on_c, 0, 69, 71
2, 132279, Note_on_c, 0, 65, 71
2, 132287, Note_on_c, 0, 64, 68
2, 132917, Note_on_c, 0, 60, 0
2, 133016, Note_on_c, 0, 57, 89
2, 133193, Note_on_c, 0, 64, 0
2, 133619, Note_on_c, 0, 65, 0
2, 133707, Note_on_c, 0, 69, 0
2, 133741, Note_on_c, 0, 48, 0
2, 133754, Note_on_c, 0, 64, 75
2, 134290, Note_on_c, 0, 64, 0
2, 134549, Note_on_c, 0, 48, 66
2, 134684, Note_on_c, 0, 57, 0
2, 134845, Note_on_c, 0, 48, 0
2, 135411, Control_c, 0, 64, 0
2, 135472, Note_on_c, 0, 47, 77
2, 135692, Control_c, 0, 64, 127
2, 135775, Note_on_c, 0, 47, 0
2, 136418, Note_on_c, 0, 84, 89
2, 136420, Note_on_c, 0, 57, 72
2, 136433, Note_on_c, 0, 62, 78
2, 136437, Note_on_c, 0, 65, 80
2, 136441, Note_on_c, 0, 74, 89
2, 137051, Note_on_c, 0, 74, 0
2, 137058, Note_on_c, 0, 84, 0
2, 137288, Note_on_c, 0, 84, 83
2, 137308, Note_on_c, 0, 74, 74
2, 137437, Note_on_c, 0, 65, 0
2, 137550, Note_on_c, 0, 62, 0
2, 137603, Note_on_c, 0, 57, 0
2, 137778, Note_on_c, 0, 84, 0
2, 137810, Note_on_c, 0, 74, 0
2, 138174, Note_on_c, 0, 84, 68
2, 138188, Note_on_c, 0, 74, 57
2, 138530, Note_on_c, 0, 84, 0
2, 138638, Note_on_c, 0, 74, 0
2, 139025, Control_c, 0, 64, 0
2, 139127, Note_on_c, 0, 81, 55
2, 139130, Note_on_c, 0, 28, 58
2, 139142, Note_on_c, 0, 69, 45
2, 139290, Control_c, 0, 64, 127
2, 139345, Note_on_c, 0, 28, 0
2, 140181, Note_on_c, 0, 56, 28
2, 140336, Note_on_c, 0, 69, 0
2, 140570, Note_on_c, 0, 81, 0
2, 141221, Note_on_c, 0, 83, 50
2, 141244, Note_on_c, 0, 65, 36
2, 141249, Note_on_c, 0, 80, 34
2, 141251, Note_on_c, 0, 71, 38
2, 141267, Note_on_c, 0, 62, 34
2, 141286, Note_on_c, 0, 76, 51
2, 142766, Note_on_c, 0, 80, 0
2, 142856, Note_on_c, 0, 83, 0
2, 142951, Note_on_c, 0, 76, 0
2, 143199, Note_on_c, 0, 71, 0
2, 144018, Note_on_c, 0, 65, 0
2, 144143, Note_on_c, 0, 62, 0
2, 144287, Note_on_c, 0, 56, 0
2, 144294, Note_on_c, 0, 72, 84
2, 144553, Note_on_c, 0, 72, 0
2, 144565, Note_on_c, 0, 74, 83
2, 144819, Note_on_c, 0, 74, 0
2, 144858, Note_on_c, 0, 72, 79
2, 144865, Control_c, 0, 64, 0
2, 144897, Note_on_c, 0, 45, 64
2, 145219, Control_c, 0, 64, 127
2, 145692, Note_on_c, 0, 52, 33
2, 146454, Note_on_c, 0, 72, 0
2, 146538, Note_on_c, 0, 60, 36
2, 146541, Note_on_c, 0, 57, 34
2, 146758, Note_on_c, 0, 60, 0
2, 147281, Note_on_c, 0, 57, 0
2, 147413, Note_on_c, 0, 52, 0
2, 147461, Note_on_c, 0, 45, 0
2, 147478, Note_on_c, 0, 72, 83
2, 147705, Note_on_c, 0, 72, 0
2, 147765, Note_on_c, 0, 74, 88
2, 148022, Control_c, 0, 64, 0
2, 148026, Note_on_c, 0, 74, 0
2, 148070, Note_on_c, 0, 72, 84
2, 148095, Note_on_c, 0, 42, 65
2, 148270, Control_c, 0, 64, 127
2, 148344, Note_on_c, 0, 42, 0
2, 148940, Note_on_c, 0, 54, 33
2, 148985, Note_on_c, 0, 60, 38
2, 148987, Note_on_c, 0, 64, 36
2, 149527, Note_on_c, 0, 60, 0
2, 149594, Note_on_c, 0, 64, 0
2, 149675, Note_on_c, 0, 54, 0
2, 150034, Note_on_c, 0, 54, 36
2, 150067, Note_on_c, 0, 64, 31
2, 150097, Note_on_c, 0, 60, 40
2, 150520, Note_on_c, 0, 60, 0
2, 150528, Note_on_c, 0, 64, 0
2, 150712, Note_on_c, 0, 54, 0
2, 151115, Note_on_c, 0, 72, 0
2, 151391, Note_on_c, 0, 72, 57
2, 152111, Note_on_c, 0, 72, 0
2, 152280, Note_on_c, 0, 41, 54
2, 152416, Note_on_c, 0, 48, 45
2, 152544, Note_on_c, 0, 63, 53
2, 152614, Note_on_c, 0, 57, 51
2, 152635, Note_on_c, 0, 67, 66
2, 152695, Note_on_c, 0, 71, 68
2, 152715, Control_c, 0, 64, 0
2, 152753, Note_on_c, 0, 74, 66
2, 153313, Control_c, 0, 64, 127
2, 154209, Note_on_c, 0, 74, 0
2, 154321, Note_on_c, 0, 71, 0
2, 154371, Note_on_c, 0, 72, 66
2, 154792, Note_on_c, 0, 72, 0
2, 155050, Note_on_c, 0, 71, 60
2, 155118, Note_on_c, 0, 57, 0
2, 155188, Note_on_c, 0, 67, 0
2, 155243, Note_on_c, 0, 63, 0
2, 155249, Note_on_c, 0, 48, 0
2, 155292, Note_on_c, 0, 41, 0
2, 155299, Note_on_c, 0, 71, 0
2, 156088, Note_on_c, 0, 68, 55
2, 156121, Control_c, 0, 64, 0
2, 156156, Note_on_c, 0, 40, 33
2, 156508, Control_c, 0, 64, 127
2, 157179, Note_on_c, 0, 40, 0
2, 157233, Note_on_c, 0, 52, 43
2, 158314, Note_on_c, 0, 53, 53
2, 158316, Note_on_c, 0, 52, 0
2, 158358, Control_c, 0, 64, 0
2, 158745, Control_c, 0, 64, 127
2, 160041, Note_on_c, 0, 68, 0
2, 160158, Note_on_c, 0, 65, 58
2, 160694, Note_on_c, 0, 53, 0
2, 161579, Note_on_c, 0, 65, 0
2, 163337, Note_on_c, 0, 64, 57
2, 163353, Note_on_c, 0, 45, 42
2, 163356, Note_on_c, 0, 60, 44
2, 163379, Note_on_c, 0, 55, 45
2, 163437, Control_c, 0, 64, 0
2, 163830, Control_c, 0, 64, 127
2, 164023, Control_c, 0, 64, 0
2, 164055, Note_on_c, 0, 52, 60
2, 164081, Note_on_c, 0, 55, 0
2, 164272, Control_c, 0, 64, 127
2, 164553, Control_c, 0, 64, 0
2, 164637, Note_on_c, 0, 52, 0
2, 164650, Note_on_c, 0, 53, 68
2, 164869, Control_c, 0, 64, 127
2, 165275, Note_on_c, 0, 53, 0
2, 165378, Note_on_c, 0, 54, 45
2, 165410, Control_c, 0, 64, 0
2, 165856, Control_c, 0, 64, 127
2, 166354, Note_on_c, 0, 57, 47
2, 166717, Note_on_c, 0, 54, 0
2, 166747, Note_on_c, 0, 45, 0
2, 166812, Note_on_c, 0, 64, 0
2, 166946, Note_on_c, 0, 60, 0
2, 167018, Note_on_c, 0, 57, 0
2, 167553, Note_on_c, 0, 63, 55
2, 167560, Note_on_c, 0, 54, 50
2, 167569, Note_on_c, 0, 44, 38
2, 167575, Note_on_c, 0, 59, 64
2, 167621, Control_c, 0, 64, 0
2, 167990, Control_c, 0, 64, 127
2, 168406, Note_on_c, 0, 51, 57
2, 168412, Note_on_c, 0, 54, 0
2, 168417, Control_c, 0, 64, 0
2, 168786, Control_c, 0, 64, 127
2, 168927, Note_on_c, 0, 51, 0
2, 169014, Control_c, 0, 64, 0
2, 169074, Note_on_c, 0, 52, 45
2, 169315, Control_c, 0, 64, 127
2, 169695, Note_on_c, 0, 63, 0
2, 169804, Note_on_c, 0, 59, 0
2, 169971, Note_on_c, 0, 52, 0
2, 170064, Note_on_c, 0, 63, 45
2, 170069, Note_on_c, 0, 54, 31
2, 170083, Note_on_c, 0, 59, 50
2, 170090, Note_on_c, 0, 53, 49
2, 170143, Control_c, 0, 64, 0
2, 170868, Control_c, 0, 64, 127
2, 171999, Note_on_c, 0, 48, 66
2, 172009, Note_on_c, 0, 53, 0
2, 172083, Control_c, 0, 64, 0
2, 172179, Note_on_c, 0, 48, 0
2, 172364, Control_c, 0, 64, 127
2, 172576, Note_on_c, 0, 49, 61
2, 172708, Note_on_c, 0, 59, 0
2, 172810, Note_on_c, 0, 54, 0
2, 172976, Note_on_c, 0, 63, 0
2, 173170, Note_on_c, 0, 44, 0
2, 173283, Note_on_c, 0, 49, 0
2, 173337, Control_c, 0, 64, 0
2, 173346, Note_on_c, 0, 43, 41
2, 173346, Note_on_c, 0, 53, 42
2, 173354, Note_on_c, 0, 50, 45
2, 173358, Note_on_c, 0, 58, 37
2, 173362, Note_on_c, 0, 62, 46
2, 173850, Control_c, 0, 64, 127
2, 175251, Note_on_c, 0, 53, 0
2, 175292, Note_on_c, 0, 50, 0
2, 175299, Note_on_c, 0, 58, 0
2, 175422, Note_on_c, 0, 62, 0
2, 176071, Note_on_c, 0, 62, 71
2, 176089, Control_c, 0, 64, 0
2, 176091, Note_on_c, 0, 58, 71
2, 176098, Note_on_c, 0, 43, 0
2, 176100, Note_on_c, 0, 53, 71
2, 176131, Note_on_c, 0, 46, 49
2, 176390, Control_c, 0, 64, 127
2, 176638, Note_on_c, 0, 53, 0
2, 176729, Note_on_c, 0, 58, 0
2, 176773, Note_on_c, 0, 62, 0
2, 176900, Note_on_c, 0, 64, 76
2, 176916, Note_on_c, 0, 61, 68
2, 176921, Note_on_c, 0, 55, 76
2, 176927, Note_on_c, 0, 49, 67
2, 176934, Note_on_c, 0, 58, 60
2, 176972, Control_c, 0, 64, 0
2, 177032, Note_on_c, 0, 46, 0
2, 177325, Control_c, 0, 64, 127
2, 177445, Note_on_c, 0, 64, 0
2, 177555, Note_on_c, 0, 55, 0
2, 177556, Note_on_c, 0, 58, 0
2, 177585, Note_on_c, 0, 61, 0
2, 177886, Note_on_c, 0, 65, 66
2, 177889, Note_on_c, 0, 58, 64
2, 177891, Note_on_c, 0, 62, 75
2, 177908, Note_on_c, 0, 55, 64
2, 177912, Note_on_c, 0, 50, 52
2, 177925, Control_c, 0, 64, 0
2, 177949, Note_on_c, 0, 49, 0
2, 178296, Control_c, 0, 64, 127
2, 178439, Note_on_c, 0, 50, 0
2, 178454, Note_on_c, 0, 55, 0
2, 178597, Note_on_c, 0, 58, 0
2, 178661, Note_on_c, 0, 62, 0
2, 178693, Note_on_c, 0, 65, 0
2, 179787, Note_on_c, 0, 48, 60
2, 179792, Note_on_c, 0, 70, 60
2, 179798, Note_on_c, 0, 58, 61
2, 179824, Note_on_c, 0, 61, 55
2, 179827, Control_c, 0, 64, 0
2, 179831, Note_on_c, 0, 65, 64
2, 180254, Control_c, 0, 64, 127
2, 180755, Note_on_c, 0, 70, 0
2, 180859, Note_on_c, 0, 69, 64
2, 181093, Note_on_c, 0, 69, 0
2, 181326, Note_on_c, 0, 58, 0
2, 181329, Note_on_c, 0, 65, 0
2, 181412, Note_on_c, 0, 70, 71
2, 181481, Note_on_c, 0, 48, 0
2, 181530, Note_on_c, 0, 61, 0
2, 181670, Note_on_c, 0, 70, 0
2, 182177, Note_on_c, 0, 69, 70
2, 182186, Note_on_c, 0, 61, 52
2, 182204, Note_on_c, 0, 46, 46
2, 182212, Control_c, 0, 64, 0
2, 182217, Note_on_c, 0, 58, 43
2, 182243, Note_on_c, 0, 64, 46
2, 182249, Note_on_c, 0, 55, 42
2, 182653, Control_c, 0, 64, 127
2, 182938, Note_on_c, 0, 69, 0
2, 183001, Note_on_c, 0, 58, 0
2, 183003, Note_on_c, 0, 64, 0
2, 183078, Note_on_c, 0, 67, 73
2, 183145, Note_on_c, 0, 46, 0
2, 183165, Note_on_c, 0, 55, 0
2, 183187, Note_on_c, 0, 61, 0
2, 183325, Note_on_c, 0, 67, 0
2, 184152, Control_c, 0, 64, 0
2, 184177, Note_on_c, 0, 86, 89
2, 184198, Note_on_c, 0, 74, 83
2, 184203, Note_on_c, 0, 45, 66
2, 184452, Control_c, 0, 64, 127
2, 184586, Note_on_c, 0, 45, 0
2, 185262, Note_on_c, 0, 74, 0
2, 185315, Note_on_c, 0, 86, 0
2, 185726, Note_on_c, 0, 67, 44
2, 185746, Note_on_c, 0, 62, 41
2, 185749, Note_on_c, 0, 86, 65
2, 185760, Note_on_c, 0, 63, 31
2, 185765, Note_on_c, 0, 74, 54
2, 185784, Note_on_c, 0, 57, 38
2, 186859, Note_on_c, 0, 67, 0
2, 186868, Note_on_c, 0, 57, 0
2, 186896, Note_on_c, 0, 86, 0
2, 186910, Note_on_c, 0, 74, 0
2, 186916, Note_on_c, 0, 63, 0
2, 186942, Note_on_c, 0, 62, 0
2, 187241, Note_on_c, 0, 84, 48
2, 187262, Note_on_c, 0, 67, 26
2, 187276, Note_on_c, 0, 72, 34
2, 187285, Note_on_c, 0, 62, 33
2, 187303, Note_on_c, 0, 63, 25
2, 187316, Note_on_c, 0, 57, 24
2, 187799, Note_on_c, 0, 67, 0
2, 187810, Note_on_c, 0, 57, 0
2, 187845, Note_on_c, 0, 63, 0
2, 187878, Note_on_c, 0, 62, 0
2, 188508, Note_on_c, 0, 62, 30
2, 188524, Note_on_c, 0, 67, 30
2, 188538, Note_on_c, 0, 63, 27
2, 188564, Note_on_c, 0, 57, 26
2, 189084, Note_on_c, 0, 67, 0
2, 189121, Note_on_c, 0, 62, 0
2, 189179, Note_on_c, 0, 63, 0
2, 189267, Note_on_c, 0, 84, 0
2, 189276, Note_on_c, 0, 57, 0
2, 189392, Note_on_c, 0, 72, 0
2, 189931, Note_on_c, 0, 82, 53
2, 189959, Note_on_c, 0, 70, 50
2, 189961, Note_on_c, 0, 65, 42
2, 189984, Note_on_c, 0, 60, 38
2, 189989, Note_on_c, 0, 55, 37
2, 189991, Note_on_c, 0, 61, 30
2, 189996, Control_c, 0, 64, 0
2, 190260, Control_c, 0, 64, 127
2, 190699, Note_on_c, 0, 55, 0
2, 190728, Note_on_c, 0, 60, 0
2, 190743, Note_on_c, 0, 65, 0
2, 190817, Note_on_c, 0, 61, 0
2, 191097, Note_on_c, 0, 65, 59
2, 191098, Note_on_c, 0, 61, 44
2, 191113, Note_on_c, 0, 60, 50
2, 191142, Note_on_c, 0, 55, 45
2, 191649, Note_on_c, 0, 82, 0
2, 191672, Note_on_c, 0, 55, 0
2, 191677, Note_on_c, 0, 70, 0
2, 191688, Note_on_c, 0, 65, 0
2, 191751, Note_on_c, 0, 60, 0
2, 191790, Note_on_c, 0, 61, 0
2, 192413, Control_c, 0, 64, 0
2, 192448, Note_on_c, 0, 81, 54
2, 192453, Note_on_c, 0, 54, 42
2, 192480, Note_on_c, 0, 69, 55
2, 192483, Note_on_c, 0, 64, 51
2, 192485, Note_on_c, 0, 60, 40
2, 192644, Control_c, 0, 64, 127
2, 192802, Note_on_c, 0, 64, 0
2, 192837, Note_on_c, 0, 60, 0
2, 192945, Note_on_c, 0, 54, 0
2, 194400, Note_on_c, 0, 26, 88
2, 196439, Note_on_c, 0, 26, 0
2, 197079, Note_on_c, 0, 69, 0
2, 197185, Note_on_c, 0, 81, 0
2, 198099, Note_on_c, 0, 31, 81
2, 198250, Control_c, 0, 64, 0
2, 198762, Control_c, 0, 64, 127
2, 199183, Note_on_c, 0, 31, 0
2, 201963, Note_on_c, 0, 63, 83
2, 201969, Note_on_c, 0, 59, 82
2, 201972, Note_on_c, 0, 67, 75
2, 201994, Note_on_c, 0, 53, 74
2, 202009, Note_on_c, 0, 43, 63
2, 202065, Note_on_c, 0, 65, 26
2, 202071, Note_on_c, 0, 64, 83
2, 202076, Control_c, 0, 64, 0
2, 202148, Note_on_c, 0, 63, 0
2, 202258, Note_on_c, 0, 65, 0
2, 202573, Control_c, 0, 64, 127
2, 203027, Note_on_c, 0, 63, 67
2, 203064, Note_on_c, 0, 64, 0
2, 203652, Note_on_c, 0, 53, 0
2, 203831, Note_on_c, 0, 67, 0
2, 203896, Note_on_c, 0, 59, 0
2, 204041, Note_on_c, 0, 43, 0
2, 204121, Note_on_c, 0, 63, 0
2, 204201, Note_on_c, 0, 43, 50
2, 204204, Note_on_c, 0, 59, 58
2, 204208, Note_on_c, 0, 62, 65
2, 204211, Note_on_c, 0, 53, 49
2, 204220, Note_on_c, 0, 69, 54
2, 204251, Control_c, 0, 64, 0
2, 205060, Control_c, 0, 64, 127
2, 206479, Note_on_c, 0, 65, 60
2, 206558, Note_on_c, 0, 69, 0
2, 207356, Note_on_c, 0, 43, 0
2, 207557, Note_on_c, 0, 53, 0
2, 207622, Note_on_c, 0, 59, 0
2, 207856, Note_on_c, 0, 62, 0
2, 207865, Note_on_c, 0, 65, 0
2, 210209, Note_on_c, 0, 84, 63
2, 210266, Note_on_c, 0, 70, 45
2, 210278, Note_on_c, 0, 60, 30
2, 210283, Note_on_c, 0, 76, 52
2, 210338, Control_c, 0, 64, 0
2, 210534, Control_c, 0, 64, 127
2, 210798, Note_on_c, 0, 84, 0
2, 210911, Note_on_c, 0, 70, 0
2, 210929, Note_on_c, 0, 60, 0
2, 210953, Note_on_c, 0, 76, 0
2, 211608, Note_on_c, 0, 79, 58
2, 211652, Note_on_c, 0, 70, 53
2, 211678, Note_on_c, 0, 64, 26
2, 211726, Note_on_c, 0, 58, 28
2, 212036, Note_on_c, 0, 79, 0
2, 212071, Note_on_c, 0, 64, 0
2, 212202, Note_on_c, 0, 70, 0
2, 212269, Note_on_c, 0, 58, 0
2, 213215, Note_on_c, 0, 76, 36
2, 213240, Note_on_c, 0, 73, 25
2, 213261, Note_on_c, 0, 68, 25
2, 213279, Note_on_c, 0, 64, 33
2, 213281, Note_on_c, 0, 48, 34
2, 213286, Control_c, 0, 64, 0
2, 213293, Note_on_c, 0, 58, 25
2, 213532, Control_c, 0, 64, 127
2, 213757, Note_on_c, 0, 64, 0
2, 213796, Note_on_c, 0, 48, 0
2, 213858, Note_on_c, 0, 68, 0
2, 213972, Note_on_c, 0, 58, 0
2, 213984, Note_on_c, 0, 73, 0
2, 214082, Note_on_c, 0, 76, 0
2, 215355, Note_on_c, 0, 88, 48
2, 215382, Note_on_c, 0, 85, 57
2, 215397, Note_on_c, 0, 73, 29
2, 215404, Note_on_c, 0, 70, 42
2, 215413, Note_on_c, 0, 80, 35
2, 215448, Note_on_c, 0, 76, 37
2, 216298, Note_on_c, 0, 73, 0
2, 216343, Note_on_c, 0, 70, 0
2, 217635, Note_on_c, 0, 76, 0
2, 217699, Note_on_c, 0, 85, 0
2, 217812, Note_on_c, 0, 88, 0
2, 217819, Note_on_c, 0, 80, 0
2, 220601, Note_on_c, 0, 48, 33
2, 220615, Note_on_c, 0, 89, 67
2, 220628, Note_on_c, 0, 41, 31
2, 220668, Note_on_c, 0, 57, 32
2, 220672, Control_c, 0, 64, 0
2, 221014, Control_c, 0, 64, 127
2, 221401, Note_on_c, 0, 41, 0
2, 221457, Note_on_c, 0, 48, 0
2, 221678, Note_on_c, 0, 57, 0
2, 222535, Note_on_c, 0, 89, 0
2, 223931, Note_on_c, 0, 65, 47
2, 223940, Note_on_c, 0, 60, 47
2, 223941, Note_on_c, 0, 61, 33
2, 223949, Note_on_c, 0, 55, 46
2, 224046, Control_c, 0, 64, 0
2, 224417, Control_c, 0, 64, 127
2, 225427, Note_on_c, 0, 65, 0
2, 225438, Note_on_c, 0, 60, 0
2, 225464, Note_on_c, 0, 55, 0
2, 225529, Note_on_c, 0, 61, 0
2, 226857, Note_on_c, 0, 63, 44
2, 226869, Control_c, 0, 64, 0
2, 226878, Note_on_c, 0, 54, 42
2, 226885, Note_on_c, 0, 60, 50
2, 226890, Note_on_c, 0, 59, 53
2, 226984, Control_c, 0, 64, 127
2, 228268, Note_on_c, 0, 59, 0
2, 228332, Note_on_c, 0, 60, 0
2, 228554, Note_on_c, 0, 63, 0
2, 228760, Note_on_c, 0, 54, 0
2, 229640, Note_on_c, 0, 54, 37
2, 229647, Note_on_c, 0, 62, 53
2, 229670, Note_on_c, 0, 60, 35
2, 229680, Control_c, 0, 64, 0
2, 229808, Control_c, 0, 64, 127
2, 229899, Note_on_c, 0, 60, 0
2, 229949, Note_on_c, 0, 62, 0
2, 230026, Note_on_c, 0, 54, 0
2, 231632, Note_on_c, 0, 42, 50
2, 231742, Note_on_c, 0, 42, 0
2, 232295, Control_c, 0, 64, 0
2, 232342, Note_on_c, 0, 43, 53
2, 232993, Control_c, 0, 64, 127
2, 233508, Control_c, 0, 64, 0
2, 233528, Note_on_c, 0, 53, 50
2, 233563, Note_on_c, 0, 62, 46
2, 233608, Note_on_c, 0, 58, 37
2, 233610, Note_on_c, 0, 55, 25
2, 233612, Note_on_c, 0, 50, 33
2, 233885, Control_c, 0, 64, 127
2, 234687, Note_on_c, 0, 55, 0
2, 234943, Note_on_c, 0, 62, 0
2, 234958, Note_on_c, 0, 53, 0
2, 235025, Note_on_c, 0, 50, 0
2, 235091, Note_on_c, 0, 58, 0
2, 235711, Control_c, 0, 64, 0
2, 235714, Note_on_c, 0, 64, 41
2, 235742, Note_on_c, 0, 55, 27
2, 235750, Note_on_c, 0, 60, 33
2, 235755, Note_on_c, 0, 52, 32
2, 235789, Note_on_c, 0, 58, 27
2, 236100, Control_c, 0, 64, 127
2, 236323, Note_on_c, 0, 60, 0
2, 236399, Note_on_c, 0, 55, 0
2, 236426, Note_on_c, 0, 64, 0
2, 236487, Note_on_c, 0, 58, 0
2, 236506, Note_on_c, 0, 52, 0
2, 237327, Note_on_c, 0, 53, 39
2, 237366, Note_on_c, 0, 55, 38
2, 237372, Note_on_c, 0, 62, 55
2, 237374, Note_on_c, 0, 65, 40
2, 237378, Note_on_c, 0, 58, 33
2, 237487, Note_on_c, 0, 43, 0
2, 237809, Note_on_c, 0, 55, 0
2, 237917, Note_on_c, 0, 62, 0
2, 238000, Note_on_c, 0, 53, 0
2, 238019, Note_on_c, 0, 58, 0
2, 238111, Note_on_c, 0, 65, 0
2, 239120, Control_c, 0, 64, 0
2, 239145, Note_on_c, 0, 70, 54
2, 239153, Note_on_c, 0, 61, 52
2, 239163, Note_on_c, 0, 65, 50
2, 239178, Note_on_c, 0, 49, 39
2, 239593, Control_c, 0, 64, 127
2, 240072, Note_on_c, 0, 70, 0
2, 240081, Note_on_c, 0, 65, 0
2, 240136, Note_on_c, 0, 61, 0
2, 240310, Note_on_c, 0, 69, 57
2, 240339, Note_on_c, 0, 61, 26
2, 240394, Note_on_c, 0, 65, 29
2, 240476, Note_on_c, 0, 69, 0
2, 240676, Note_on_c, 0, 65, 0
2, 240719, Note_on_c, 0, 61, 0
2, 240869, Note_on_c, 0, 58, 26
2, 240899, Note_on_c, 0, 70, 55
2, 240938, Note_on_c, 0, 58, 0
2, 241022, Note_on_c, 0, 49, 0
2, 241477, Note_on_c, 0, 70, 0
2, 242006, Note_on_c, 0, 69, 60
2, 242028, Note_on_c, 0, 62, 54
2, 242098, Note_on_c, 0, 69, 0
2, 242104, Note_on_c, 0, 62, 0
2, 242383, Control_c, 0, 64, 0
2, 242512, Note_on_c, 0, 43, 22
2, 242522, Note_on_c, 0, 36, 40
2, 242569, Note_on_c, 0, 52, 45
2, 242854, Control_c, 0, 64, 127
2, 243166, Note_on_c, 0, 36, 0
2, 243241, Note_on_c, 0, 43, 0
2, 243414, Note_on_c, 0, 52, 0
2, 244262, Note_on_c, 0, 46, 37
2, 244269, Control_c, 0, 64, 0
2, 244271, Note_on_c, 0, 67, 51
2, 244307, Note_on_c, 0, 56, 25
2, 244310, Note_on_c, 0, 64, 42
2, 244314, Note_on_c, 0, 60, 24
2, 244709, Control_c, 0, 64, 127
2, 244926, Note_on_c, 0, 60, 0
2, 244992, Note_on_c, 0, 56, 0
2, 245010, Note_on_c, 0, 64, 0
2, 245026, Note_on_c, 0, 67, 0
2, 245172, Note_on_c, 0, 46, 0
2, 245962, Control_c, 0, 64, 0
2, 246052, Note_on_c, 0, 67, 51
2, 246054, Note_on_c, 0, 45, 42
2, 246066, Note_on_c, 0, 60, 33
2, 246074, Note_on_c, 0, 72, 34
2, 246091, Note_on_c, 0, 55, 29
2, 246310, Control_c, 0, 64, 127
2, 246332, Note_on_c, 0, 60, 0
2, 246402, Note_on_c, 0, 67, 0
2, 246481, Note_on_c, 0, 72, 0
2, 246588, Note_on_c, 0, 45, 0
2, 246756, Note_on_c, 0, 55, 0
2, 247257, Note_on_c, 0, 84, 95
2, 247368, Note_on_c, 0, 72, 36
2, 247460, Note_on_c, 0, 72, 0
2, 247686, Note_on_c, 0, 84, 0
2, 247871, Control_c, 0, 64, 0
2, 247879, Note_on_c, 0, 64, 39
2, 247885, Note_on_c, 0, 60, 40
2, 247891, Note_on_c, 0, 59, 35
2, 247924, Note_on_c, 0, 84, 74
2, 247946, Note_on_c, 0, 72, 55
2, 248237, Control_c, 0, 64, 127
2, 248761, Note_on_c, 0, 84, 0
2, 248876, Note_on_c, 0, 59, 0
2, 248892, Note_on_c, 0, 64, 0
2, 248945, Note_on_c, 0, 60, 0
2, 248982, Note_on_c, 0, 72, 0
2, 249095, Note_on_c, 0, 72, 36
2, 249101, Note_on_c, 0, 84, 72
2, 249616, Control_c, 0, 64, 0
2, 249632, Note_on_c, 0, 64, 32
2, 249656, Note_on_c, 0, 57, 41
2, 249718, Note_on_c, 0, 60, 28
2, 249824, Note_on_c, 0, 84, 0
2, 249980, Control_c, 0, 64, 127
2, 250214, Note_on_c, 0, 76, 48
2, 250222, Note_on_c, 0, 72, 0
2, 250785, Note_on_c, 0, 76, 0
2, 250841, Note_on_c, 0, 77, 54
2, 250945, Note_on_c, 0, 77, 0
2, 250966, Note_on_c, 0, 76, 50
2, 251076, Note_on_c, 0, 64, 0
2, 251162, Note_on_c, 0, 75, 64
2, 251183, Note_on_c, 0, 57, 0
2, 251201, Note_on_c, 0, 76, 0
2, 251236, Control_c, 0, 64, 0
2, 251292, Note_on_c, 0, 60, 0
2, 251325, Note_on_c, 0, 75, 0
2, 251368, Note_on_c, 0, 64, 35
2, 251394, Note_on_c, 0, 60, 28
2, 251417, Note_on_c, 0, 55, 53
2, 251427, Note_on_c, 0, 76, 75
2, 251730, Control_c, 0, 64, 127
2, 252503, Note_on_c, 0, 55, 0
2, 252527, Note_on_c, 0, 64, 0
2, 252558, Note_on_c, 0, 60, 0
2, 253082, Control_c, 0, 64, 0
2, 253174, Note_on_c, 0, 60, 44
2, 253180, Note_on_c, 0, 64, 46
2, 253207, Note_on_c, 0, 54, 36
2, 253515, Control_c, 0, 64, 127
2, 253705, Note_on_c, 0, 64, 0
2, 253728, Note_on_c, 0, 60, 0
2, 253869, Note_on_c, 0, 54, 0
2, 255048, Note_on_c, 0, 26, 57
2, 255054, Control_c, 0, 64, 0
2, 255259, Control_c, 0, 64, 127
2, 255267, Note_on_c, 0, 26, 0
2, 256897, Note_on_c, 0, 66, 74
2, 256899, Note_on_c, 0, 61, 61
2, 256903, Note_on_c, 0, 54, 69
2, 257050, Control_c, 0, 64, 0
2, 257481, Control_c, 0, 64, 127
2, 258005, Note_on_c, 0, 66, 0
2, 258210, Note_on_c, 0, 54, 0
2, 258315, Note_on_c, 0, 61, 0
2, 258712, Control_c, 0, 64, 0
2, 258716, Note_on_c, 0, 65, 45
2, 258727, Note_on_c, 0, 60, 41
2, 258743, Note_on_c, 0, 54, 37
2, 258745, Note_on_c, 0, 76, 0
2, 259124, Control_c, 0, 64, 127
2, 259399, Note_on_c, 0, 65, 0
2, 259491, Note_on_c, 0, 60, 0
2, 259817, Note_on_c, 0, 54, 0
2, 259940, Note_on_c, 0, 53, 19
2, 260171, Note_on_c, 0, 53, 0
2, 260483, Note_on_c, 0, 53, 26
2, 260528, Note_on_c, 0, 70, 37
2, 260530, Note_on_c, 0, 61, 31
2, 260539, Control_c, 0, 64, 0
2, 260559, Note_on_c, 0, 65, 49
2, 260582, Note_on_c, 0, 58, 25
2, 261034, Control_c, 0, 64, 127
2, 261113, Note_on_c, 0, 58, 0
2, 261144, Note_on_c, 0, 53, 0
2, 262332, Note_on_c, 0, 43, 41
2, 262409, Note_on_c, 0, 61, 0
2, 262432, Note_on_c, 0, 65, 0
2, 262524, Note_on_c, 0, 70, 0
2, 262610, Note_on_c, 0, 43, 0
2, 263523, Note_on_c, 0, 70, 67
2, 263529, Note_on_c, 0, 61, 71
2, 263546, Note_on_c, 0, 58, 67
2, 263554, Note_on_c, 0, 65, 64
2, 263562, Note_on_c, 0, 55, 62
2, 263576, Control_c, 0, 64, 0
2, 263622, Note_on_c, 0, 68, 23
2, 263691, Note_on_c, 0, 68, 0
2, 264279, Control_c, 0, 64, 127
2, 264883, Note_on_c, 0, 70, 0
2, 265112, Note_on_c, 0, 70, 60
2, 265262, Note_on_c, 0, 65, 0
2, 265418, Note_on_c, 0, 70, 0
2, 265420, Note_on_c, 0, 61, 0
2, 265438, Note_on_c, 0, 58, 0
2, 265520, Note_on_c, 0, 55, 0
2, 265639, Note_on_c, 0, 70, 65
2, 265817, Note_on_c, 0, 70, 0
2, 266205, Control_c, 0, 64, 0
2, 266223, Note_on_c, 0, 73, 54
2, 266244, Note_on_c, 0, 65, 62
2, 266260, Note_on_c, 0, 61, 33
2, 266287, Note_on_c, 0, 57, 45
2, 267326, Note_on_c, 0, 58, 51
2, 267410, Note_on_c, 0, 57, 0
2, 268588, Note_on_c, 0, 58, 0
2, 268672, Note_on_c, 0, 59, 56
2, 269098, Control_c, 0, 64, 127
2, 269530, Control_c, 0, 64, 0
2, 269585, Note_on_c, 0, 59, 0
2, 269714, Note_on_c, 0, 60, 42
2, 269901, Control_c, 0, 64, 127
2, 270497, Note_on_c, 0, 61, 0
2, 270546, Note_on_c, 0, 65, 0
2, 270558, Note_on_c, 0, 60, 0
2, 270747, Note_on_c, 0, 48, 41
2, 271582, Note_on_c, 0, 73, 0
2, 271891, Control_c, 0, 64, 0
2, 271957, Note_on_c, 0, 64, 51
2, 271963, Note_on_c, 0, 61, 36
2, 271981, Note_on_c, 0, 58, 28
2, 272284, Control_c, 0, 64, 127
2, 272683, Note_on_c, 0, 58, 0
2, 272720, Note_on_c, 0, 48, 0
2, 272833, Note_on_c, 0, 64, 0
2, 273009, Note_on_c, 0, 61, 0
2, 273146, Control_c, 0, 64, 0
2, 273193, Note_on_c, 0, 46, 42
2, 273195, Note_on_c, 0, 60, 37
2, 273215, Note_on_c, 0, 56, 28
2, 273555, Control_c, 0, 64, 127
2, 273954, Note_on_c, 0, 56, 0
2, 273975, Note_on_c, 0, 60, 0
2, 274182, Note_on_c, 0, 46, 0
2, 274376, Control_c, 0, 64, 0
2, 274394, Note_on_c, 0, 64, 44
2, 274417, Note_on_c, 0, 60, 36
2, 274421, Note_on_c, 0, 55, 34
2, 274466, Note_on_c, 0, 52, 34
2, 274481, Note_on_c, 0, 45, 27
2, 275052, Control_c, 0, 64, 127
2, 275646, Note_on_c, 0, 60, 0
2, 275747, Note_on_c, 0, 64, 0
2, 275906, Note_on_c, 0, 63, 74
2, 276271, Note_on_c, 0, 63, 0
2, 276362, Note_on_c, 0, 64, 82
2, 276467, Control_c, 0, 64, 0
2, 276710, Note_on_c, 0, 64, 0
2, 276965, Note_on_c, 0, 69, 101
2, 277872, Note_on_c, 0, 69, 0
2, 277904, Note_on_c, 0, 55, 0
2, 277960, Note_on_c, 0, 67, 73
2, 277999, Note_on_c, 0, 45, 0
2, 278089, Control_c, 0, 64, 127
2, 278490, Note_on_c, 0, 67, 0
2, 278541, Control_c, 0, 64, 0
2, 278637, Note_on_c, 0, 52, 0
2, 278672, Note_on_c, 0, 53, 44
2, 278678, Note_on_c, 0, 69, 59
2, 278682, Note_on_c, 0, 45, 37
2, 278693, Note_on_c, 0, 65, 63
2, 279792, Note_on_c, 0, 60, 40
2, 280018, Control_c, 0, 64, 127
2, 281165, Note_on_c, 0, 45, 0
2, 281552, Note_on_c, 0, 45, 32
2, 281630, Note_on_c, 0, 65, 0
2, 281892, Note_on_c, 0, 53, 0
2, 281992, Note_on_c, 0, 45, 0
2, 282216, Note_on_c, 0, 54, 54
2, 282218, Note_on_c, 0, 45, 36
2, 282236, Control_c, 0, 64, 0
2, 283302, Note_on_c, 0, 60, 0
2, 283345, Note_on_c, 0, 66, 61
2, 283950, Note_on_c, 0, 66, 0
2, 283966, Note_on_c, 0, 69, 0
2, 283990, Note_on_c, 0, 60, 30
2, 284470, Note_on_c, 0, 60, 0
2, 284495, Note_on_c, 0, 62, 43
2, 285019, Note_on_c, 0, 66, 71
2, 285109, Control_c, 0, 64, 0
2, 285127, Note_on_c, 0, 62, 0
2, 285191, Control_c, 0, 64, 127
2, 285280, Note_on_c, 0, 66, 0
2, 285437, Note_on_c, 0, 45, 0
2, 285717, Note_on_c, 0, 54, 0
2, 285768, Control_c, 0, 64, 127
2, 285797, Note_on_c, 0, 69, 77
2, 286155, Note_on_c, 0, 69, 0
2, 286300, Note_on_c, 0, 72, 79
2, 286421, Control_c, 0, 64, 0
2, 286673, Note_on_c, 0, 72, 0
2, 286804, Note_on_c, 0, 54, 48
2, 286819, Note_on_c, 0, 60, 52
2, 286827, Note_on_c, 0, 75, 71
2, 287001, Note_on_c, 0, 60, 0
2, 287127, Note_on_c, 0, 54, 0
2, 287229, Note_on_c, 0, 75, 0
2, 287387, Note_on_c, 0, 78, 61
2, 287630, Note_on_c, 0, 78, 0
2, 287905, Note_on_c, 0, 81, 64
2, 288151, Note_on_c, 0, 81, 0
2, 288330, Control_c, 0, 64, 127
2, 288410, Note_on_c, 0, 84, 89
2, 288515, Control_c, 0, 64, 0
2, 288807, Note_on_c, 0, 84, 0
2, 288863, Note_on_c, 0, 50, 38
2, 288869, Note_on_c, 0, 43, 40
2, 288985, Note_on_c, 0, 82, 59
2, 289010, Control_c, 0, 64, 127
2, 289167, Note_on_c, 0, 43, 0
2, 289268, Note_on_c, 0, 50, 0
2, 289457, Note_on_c, 0, 82, 0
2, 289485, Note_on_c, 0, 78, 25
2, 289830, Note_on_c, 0, 78, 0
2, 290008, Note_on_c, 0, 81, 62
2, 290434, Note_on_c, 0, 81, 0
2, 290466, Control_c, 0, 64, 0
2, 290534, Note_on_c, 0, 62, 27
2, 290564, Note_on_c, 0, 74, 40
2, 290601, Note_on_c, 0, 58, 29
2, 290607, Note_on_c, 0, 55, 25
2, 291289, Control_c, 0, 64, 127
2, 291560, Note_on_c, 0, 55, 0
2, 291678, Note_on_c, 0, 54, 37
2, 292214, Note_on_c, 0, 54, 0
2, 292253, Control_c, 0, 64, 0
2, 292333, Note_on_c, 0, 74, 0
2, 292357, Note_on_c, 0, 76, 40
2, 292406, Note_on_c, 0, 53, 25
2, 292706, Control_c, 0, 64, 127
2, 292921, Note_on_c, 0, 62, 0
2, 293230, Note_on_c, 0, 58, 0
2, 293781, Note_on_c, 0, 76, 0
2, 293836, Note_on_c, 0, 77, 1
2, 294029, Note_on_c, 0, 62, 33
2, 294080, Note_on_c, 0, 58, 23
2, 294565, Note_on_c, 0, 77, 0
2, 294926, Note_on_c, 0, 62, 0
2, 295180, Note_on_c, 0, 58, 0
2, 295190, Note_on_c, 0, 77, 30
2, 295204, Note_on_c, 0, 53, 0
2, 295448, Note_on_c, 0, 77, 0
2, 295908, Control_c, 0, 64, 0
2, 296236, Control_c, 0, 64, 127
2, 296461, Control_c, 0, 64, 0
2, 296590, Note_on_c, 0, 82, 59
2, 296631, Note_on_c, 0, 70, 49
2, 296656, Note_on_c, 0, 58, 37
2, 296666, Note_on_c, 0, 49, 35
2, 296928, Control_c, 0, 64, 127
2, 297347, Note_on_c, 0, 82, 0
2, 297599, Note_on_c, 0, 81, 58
2, 297790, Note_on_c, 0, 81, 0
2, 297825, Note_on_c, 0, 70, 0
2, 297942, Note_on_c, 0, 58, 0
2, 298061, Note_on_c, 0, 82, 56
2, 298284, Note_on_c, 0, 49, 0
2, 298286, Note_on_c, 0, 82, 0
2, 298536, Control_c, 0, 64, 0
2, 298633, Note_on_c, 0, 81, 58
2, 298641, Note_on_c, 0, 48, 40
2, 298651, Note_on_c, 0, 70, 35
2, 298670, Note_on_c, 0, 58, 20
2, 299144, Control_c, 0, 64, 127
2, 299796, Note_on_c, 0, 81, 0
2, 299859, Note_on_c, 0, 48, 0
2, 299865, Note_on_c, 0, 58, 0
2, 300012, Note_on_c, 0, 70, 0
2, 300459, Control_c, 0, 64, 0
2, 300607, Note_on_c, 0, 79, 44
2, 300617, Note_on_c, 0, 46, 29
2, 300621, Note_on_c, 0, 67, 46
2, 300627, Note_on_c, 0, 56, 23
2, 300830, Control_c, 0, 64, 127
2, 301292, Note_on_c, 0, 67, 0
2, 301368, Note_on_c, 0, 56, 0
2, 301521, Note_on_c, 0, 46, 0
2, 301523, Note_on_c, 0, 79, 0
2, 302208, Control_c, 0, 64, 0
2, 302327, Note_on_c, 0, 45, 48
2, 302435, Control_c, 0, 64, 127
2, 302458, Note_on_c, 0, 45, 0
2, 305207, Note_on_c, 0, 84, 91
2, 305281, Note_on_c, 0, 72, 60
2, 305351, Note_on_c, 0, 72, 0
2, 305554, Note_on_c, 0, 84, 0
2, 306053, Note_on_c, 0, 84, 80
2, 306131, Note_on_c, 0, 72, 73
2, 306323, Note_on_c, 0, 84, 0
2, 306458, Note_on_c, 0, 72, 0
2, 306964, Note_on_c, 0, 76, 61
2, 307052, Note_on_c, 0, 67, 27
2, 307407, Note_on_c, 0, 76, 0
2, 307474, Note_on_c, 0, 67, 0
2, 307851, Note_on_c, 0, 76, 41
2, 307859, Note_on_c, 0, 67, 36
2, 308307, Note_on_c, 0, 76, 0
2, 308334, Note_on_c, 0, 67, 0
2, 309648, Note_on_c, 0, 75, 46
2, 309659, Control_c, 0, 64, 0
2, 309706, Note_on_c, 0, 66, 28
2, 309724, Note_on_c, 0, 60, 28
2, 309744, Note_on_c, 0, 50, 17
2, 310293, Control_c, 0, 64, 127
2, 310659, Note_on_c, 0, 60, 0
2, 310692, Note_on_c, 0, 57, 30
2, 310888, Note_on_c, 0, 75, 0
2, 311021, Note_on_c, 0, 66, 0
2, 312463, Note_on_c, 0, 62, 62
2, 312770, Note_on_c, 0, 62, 0
2, 312803, Control_c, 0, 64, 0
2, 312829, Note_on_c, 0, 63, 77
2, 313145, Note_on_c, 0, 63, 0
2, 313254, Note_on_c, 0, 65, 81
2, 313291, Note_on_c, 0, 60, 36
2, 313638, Note_on_c, 0, 65, 0
2, 313648, Note_on_c, 0, 66, 69
2, 313997, Note_on_c, 0, 66, 0
2, 314079, Note_on_c, 0, 65, 59
2, 314370, Note_on_c, 0, 65, 0
2, 314456, Note_on_c, 0, 63, 55
2, 314635, Note_on_c, 0, 60, 0
2, 314823, Note_on_c, 0, 63, 0
2, 314895, Note_on_c, 0, 62, 47
2, 315239, Note_on_c, 0, 62, 0
2, 315239, Note_on_c, 0, 57, 0
2, 315333, Note_on_c, 0, 60, 53
2, 315388, Control_c, 0, 64, 127
2, 315542, Note_on_c, 0, 50, 0
2, 315661, Note_on_c, 0, 60, 0
2, 315721, Note_on_c, 0, 58, 34
2, 315943, Note_on_c, 0, 58, 0
2, 316068, Control_c, 0, 64, 0
2, 316127, Note_on_c, 0, 57, 40
2, 316191, Control_c, 0, 64, 127
2, 316336, Note_on_c, 0, 57, 0
2, 316477, Note_on_c, 0, 60, 51
2, 316495, Control_c, 0, 64, 0
2, 316520, Note_on_c, 0, 53, 40
2, 316594, Note_on_c, 0, 43, 24
2, 316819, Note_on_c, 0, 60, 0
2, 316957, Note_on_c, 0, 57, 33
2, 317225, Note_on_c, 0, 57, 0
2, 317297, Note_on_c, 0, 58, 49
2, 317402, Note_on_c, 0, 53, 0
2, 317717, Note_on_c, 0, 53, 50
2, 317868, Note_on_c, 0, 58, 0
2, 318087, Note_on_c, 0, 53, 0
2, 318245, Note_on_c, 0, 49, 39
2, 318427, Control_c, 0, 64, 127
2, 318787, Note_on_c, 0, 49, 55
2, 318800, Note_on_c, 0, 49, 0
2, 318980, Control_c, 0, 64, 0
2, 319307, Control_c, 0, 64, 127
2, 319322, Note_on_c, 0, 49, 0
2, 319810, Note_on_c, 0, 49, 36
2, 320300, Note_on_c, 0, 43, 0
2, 321991, Note_on_c, 0, 49, 0
2, 322407, Note_on_c, 0, 43, 33
2, 323046, Control_c, 0, 64, 0
2, 323136, Note_on_c, 0, 52, 26
2, 323210, Note_on_c, 0, 43, 0
2, 323308, Note_on_c, 0, 36, 2
2, 323538, Control_c, 0, 64, 127
2, 323592, Note_on_c, 0, 36, 0
2, 323811, Note_on_c, 0, 52, 0
2, 324873, Note_on_c, 0, 64, 35
2, 324912, Note_on_c, 0, 58, 28
2, 324953, Note_on_c, 0, 60, 26
2, 325090, Note_on_c, 0, 60, 0
2, 325148, Note_on_c, 0, 64, 0
2, 325248, Note_on_c, 0, 58, 0
2, 326524, Note_on_c, 0, 72, 44
2, 326570, Note_on_c, 0, 60, 37
2, 326597, Control_c, 0, 64, 0
2, 326605, Note_on_c, 0, 58, 23
2, 326629, Note_on_c, 0, 52, 25
2, 327105, Control_c, 0, 64, 127
2, 327273, Note_on_c, 0, 60, 0
2, 327304, Note_on_c, 0, 58, 0
2, 327404, Note_on_c, 0, 72, 0
2, 327617, Note_on_c, 0, 52, 0
2, 328177, Control_c, 0, 64, 0
2, 328251, Note_on_c, 0, 48, 43
2, 328265, Note_on_c, 0, 68, 31
2, 328267, Note_on_c, 0, 76, 44
2, 328273, Note_on_c, 0, 58, 30
2, 328284, Note_on_c, 0, 72, 28
2, 328306, Note_on_c, 0, 64, 38
2, 328544, Note_on_c, 0, 48, 0
2, 328587, Control_c, 0, 64, 127
2, 328773, Note_on_c, 0, 58, 0
2, 328859, Note_on_c, 0, 68, 0
2, 328867, Note_on_c, 0, 64, 0
2, 329004, Note_on_c, 0, 72, 0
2, 329115, Note_on_c, 0, 76, 0
2, 329942, Control_c, 0, 64, 0
2, 329959, Note_on_c, 0, 63, 35
2, 329961, Note_on_c, 0, 75, 40
2, 329975, Note_on_c, 0, 67, 34
2, 329979, Note_on_c, 0, 79, 38
2, 329992, Note_on_c, 0, 58, 28
2, 330004, Note_on_c, 0, 53, 36
2, 330417, Control_c, 0, 64, 127
2, 330896, Note_on_c, 0, 63, 0
2, 330915, Note_on_c, 0, 79, 0
2, 330964, Note_on_c, 0, 60, 44
2, 331025, Note_on_c, 0, 75, 0
2, 331093, Note_on_c, 0, 67, 0
2, 331387, Note_on_c, 0, 63, 42
2, 331686, Note_on_c, 0, 67, 54
2, 331891, Note_on_c, 0, 69, 57
2, 331934, Note_on_c, 0, 67, 0
2, 332100, Note_on_c, 0, 70, 64
2, 332106, Note_on_c, 0, 69, 0
2, 332196, Note_on_c, 0, 70, 0
2, 332278, Note_on_c, 0, 72, 60
2, 332499, Note_on_c, 0, 74, 56
2, 332542, Note_on_c, 0, 72, 0
2, 332652, Note_on_c, 0, 75, 72
2, 332718, Note_on_c, 0, 74, 0
2, 332767, Note_on_c, 0, 63, 0
2, 332775, Note_on_c, 0, 75, 0
2, 332879, Note_on_c, 0, 77, 60
2, 333101, Note_on_c, 0, 79, 46
2, 333169, Note_on_c, 0, 77, 0
2, 333257, Note_on_c, 0, 53, 0
2, 333312, Note_on_c, 0, 79, 0
2, 333615, Note_on_c, 0, 84, 27
2, 333806, Note_on_c, 0, 84, 0
2, 333898, Note_on_c, 0, 60, 0
2, 333918, Note_on_c, 0, 58, 0
2, 333939, Note_on_c, 0, 86, 29
2, 334021, Note_on_c, 0, 87, 58
2, 334070, Note_on_c, 0, 86, 0
2, 334211, Note_on_c, 0, 87, 0
2, 334308, Note_on_c, 0, 89, 72
2, 334618, Control_c, 0, 64, 0
2, 334620, Note_on_c, 0, 87, 78
2, 334689, Note_on_c, 0, 89, 0
2, 334702, Note_on_c, 0, 63, 34
2, 334796, Note_on_c, 0, 87, 0
2, 334816, Note_on_c, 0, 53, 26
2, 335238, Note_on_c, 0, 83, 67
2, 335346, Note_on_c, 0, 83, 0
2, 335685, Note_on_c, 0, 86, 72
2, 335820, Note_on_c, 0, 86, 0
2, 336242, Note_on_c, 0, 84, 64
2, 336320, Note_on_c, 0, 84, 0
2, 336727, Note_on_c, 0, 77, 39
2, 336754, Control_c, 0, 64, 127
2, 337315, Note_on_c, 0, 82, 42
2, 337592, Note_on_c, 0, 77, 0
2, 337792, Note_on_c, 0, 82, 0
2, 337862, Note_on_c, 0, 81, 51
2, 337927, Control_c, 0, 64, 0
2, 338065, Note_on_c, 0, 81, 0
2, 338364, Note_on_c, 0, 78, 27
2, 338432, Note_on_c, 0, 78, 0
2, 338862, Note_on_c, 0, 75, 56
2, 339150, Note_on_c, 0, 75, 0
2, 339259, Note_on_c, 0, 63, 0
2, 339394, Note_on_c, 0, 74, 74
2, 339396, Note_on_c, 0, 78, 57
2, 339400, Note_on_c, 0, 63, 32
2, 339500, Note_on_c, 0, 60, 22
2, 339809, Note_on_c, 0, 74, 0
2, 339874, Note_on_c, 0, 63, 0
2, 339893, Note_on_c, 0, 78, 0
2, 339909, Note_on_c, 0, 72, 46
2, 340255, Note_on_c, 0, 72, 0
2, 340466, Note_on_c, 0, 70, 42
2, 340749, Note_on_c, 0, 70, 0
2, 341047, Note_on_c, 0, 69, 51
2, 341226, Note_on_c, 0, 60, 0
2, 341332, Note_on_c, 0, 69, 0
2, 341430, Note_on_c, 0, 53, 0
2, 341463, Note_on_c, 0, 70, 69
2, 341835, Note_on_c, 0, 70, 0
2, 342040, Note_on_c, 0, 72, 80
2, 342155, Note_on_c, 0, 46, 27
2, 342206, Note_on_c, 0, 57, 24
2, 342529, Note_on_c, 0, 72, 0
2, 342603, Note_on_c, 0, 62, 53
2, 342975, Control_c, 0, 64, 127
2, 343016, Note_on_c, 0, 62, 0
2, 343173, Note_on_c, 0, 62, 26
2, 343494, Note_on_c, 0, 62, 0
2, 343664, Note_on_c, 0, 62, 65
2, 343982, Note_on_c, 0, 57, 0
2, 344065, Note_on_c, 0, 62, 0
2, 344273, Note_on_c, 0, 62, 55
2, 344351, Control_c, 0, 64, 0
2, 344353, Note_on_c, 0, 53, 32
2, 344386, Note_on_c, 0, 57, 17
2, 344542, Note_on_c, 0, 63, 60
2, 344564, Note_on_c, 0, 62, 0
2, 344580, Note_on_c, 0, 57, 0
2, 344681, Note_on_c, 0, 62, 33
2, 344781, Note_on_c, 0, 63, 0
2, 344953, Note_on_c, 0, 62, 0
2, 344957, Note_on_c, 0, 61, 46
2, 345141, Note_on_c, 0, 61, 0
2, 345261, Note_on_c, 0, 62, 60
2, 345621, Note_on_c, 0, 62, 0
2, 345662, Note_on_c, 0, 65, 65
2, 345724, Note_on_c, 0, 53, 0
2, 345812, Control_c, 0, 64, 127
2, 345978, Note_on_c, 0, 65, 0
2, 346017, Control_c, 0, 64, 0
2, 346029, Note_on_c, 0, 62, 54
2, 346040, Note_on_c, 0, 53, 30
2, 346465, Control_c, 0, 64, 127
2, 347119, Note_on_c, 0, 46, 0
2, 347357, Note_on_c, 0, 53, 0
2, 347805, Note_on_c, 0, 57, 34
2, 347809, Note_on_c, 0, 46, 25
2, 348217, Note_on_c, 0, 46, 0
2, 348266, Note_on_c, 0, 62, 0
2, 348528, Note_on_c, 0, 57, 0
2, 349464, Control_c, 0, 64, 0
2, 349554, Note_on_c, 0, 69, 25
2, 349556, Note_on_c, 0, 39, 35
2, 349564, Note_on_c, 0, 61, 23
2, 349572, Note_on_c, 0, 65, 36
2, 349579, Note_on_c, 0, 46, 23
2, 349818, Note_on_c, 0, 46, 0
2, 349828, Note_on_c, 0, 39, 0
2, 350623, Note_on_c, 0, 39, 30
2, 350627, Note_on_c, 0, 46, 25
2, 350643, Note_on_c, 0, 69, 0
2, 350659, Note_on_c, 0, 61, 0
2, 350684, Note_on_c, 0, 65, 0
2, 350969, Note_on_c, 0, 39, 0
2, 351111, Note_on_c, 0, 46, 0
2, 351302, Note_on_c, 0, 48, 28
2, 351304, Note_on_c, 0, 67, 25
2, 351308, Note_on_c, 0, 39, 25
2, 351312, Note_on_c, 0, 61, 29
2, 351547, Note_on_c, 0, 61, 0
2, 351605, Note_on_c, 0, 67, 0
2, 351703, Note_on_c, 0, 48, 0
2, 351709, Note_on_c, 0, 39, 0
2, 352392, Note_on_c, 0, 48, 36
2, 352400, Note_on_c, 0, 39, 33
2, 352695, Note_on_c, 0, 39, 0
2, 352744, Note_on_c, 0, 48, 0
2, 353031, Note_on_c, 0, 39, 27
2, 353057, Note_on_c, 0, 46, 27
2, 353585, Note_on_c, 0, 46, 0
2, 353611, Note_on_c, 0, 39, 0
2, 354129, Note_on_c, 0, 46, 36
2, 354131, Note_on_c, 0, 39, 38
2, 354715, Note_on_c, 0, 74, 85
2, 354721, Note_on_c, 0, 70, 90
2, 354730, Note_on_c, 0, 48, 57
2, 355021, Note_on_c, 0, 74, 0
2, 355025, Note_on_c, 0, 70, 0
2, 355101, Note_on_c, 0, 48, 0
2, 355191, Control_c, 0, 64, 127
2, 355232, Note_on_c, 0, 68, 80
2, 355240, Note_on_c, 0, 72, 71
2, 355306, Note_on_c, 0, 70, 43
2, 355354, Note_on_c, 0, 48, 13
2, 355458, Control_c, 0, 64, 0
2, 355487, Note_on_c, 0, 70, 0
2, 355518, Note_on_c, 0, 39, 0
2, 355546, Note_on_c, 0, 46, 0
2, 355557, Note_on_c, 0, 68, 0
2, 355565, Note_on_c, 0, 72, 0
2, 355575, Note_on_c, 0, 48, 0
2, 355765, Note_on_c, 0, 69, 95
2, 355767, Note_on_c, 0, 72, 68
2, 355827, Control_c, 0, 64, 127
2, 356098, Note_on_c, 0, 72, 0
2, 356172, Note_on_c, 0, 69, 0
2, 356240, Control_c, 0, 64, 0
2, 356315, Note_on_c, 0, 72, 51
2, 356350, Note_on_c, 0, 65, 76
2, 356352, Note_on_c, 0, 48, 43
2, 356362, Note_on_c, 0, 57, 53
2, 356686, Note_on_c, 0, 72, 0
2, 356768, Note_on_c, 0, 65, 0
2, 356907, Note_on_c, 0, 60, 38
2, 357186, Note_on_c, 0, 57, 0
2, 357202, Control_c, 0, 64, 127
2, 357206, Note_on_c, 0, 60, 0
2, 357413, Note_on_c, 0, 58, 51
2, 357437, Note_on_c, 0, 65, 38
2, 357502, Note_on_c, 0, 48, 0
2, 357646, Note_on_c, 0, 65, 0
2, 357922, Control_c, 0, 64, 0
2, 357963, Note_on_c, 0, 56, 40
2, 357984, Note_on_c, 0, 65, 42
2, 358000, Note_on_c, 0, 58, 0
2, 358143, Note_on_c, 0, 56, 0
2, 358207, Note_on_c, 0, 57, 44
2, 359115, Note_on_c, 0, 48, 50
2, 359120, Note_on_c, 0, 47, 58
2, 359279, Note_on_c, 0, 47, 0
2, 359788, Control_c, 0, 64, 127
2, 360453, Note_on_c, 0, 57, 0
2, 360703, Note_on_c, 0, 65, 0
2, 360775, Note_on_c, 0, 36, 45
2, 360990, Note_on_c, 0, 36, 0
2, 361175, Note_on_c, 0, 48, 0
2, 361398, Note_on_c, 0, 65, 38
2, 361607, Note_on_c, 0, 65, 0
2, 361816, Note_on_c, 0, 69, 67
2, 362061, Note_on_c, 0, 69, 0
2, 362166, Note_on_c, 0, 74, 74
2, 362296, Note_on_c, 0, 74, 0
2, 362499, Note_on_c, 0, 81, 80
2, 362765, Note_on_c, 0, 81, 0
2, 362897, Note_on_c, 0, 86, 99
2, 362932, Note_on_c, 0, 65, 64
2, 362946, Control_c, 0, 64, 0
2, 362952, Note_on_c, 0, 57, 53
2, 362956, Note_on_c, 0, 62, 65
2, 363424, Note_on_c, 0, 86, 0
2, 363489, Note_on_c, 0, 84, 74
2, 363780, Note_on_c, 0, 84, 0
2, 364041, Note_on_c, 0, 83, 79
2, 364336, Note_on_c, 0, 83, 0
2, 364629, Note_on_c, 0, 84, 64
2, 364645, Note_on_c, 0, 81, 66
2, 364885, Note_on_c, 0, 81, 0
2, 365046, Control_c, 0, 64, 127
2, 365085, Note_on_c, 0, 84, 0
2, 365231, Note_on_c, 0, 80, 27
2, 365427, Note_on_c, 0, 57, 0
2, 365514, Note_on_c, 0, 80, 0
2, 365756, Note_on_c, 0, 80, 46
2, 365803, Note_on_c, 0, 86, 54
2, 365811, Note_on_c, 0, 56, 37
2, 365821, Control_c, 0, 64, 0
2, 366380, Control_c, 0, 64, 127
2, 366736, Note_on_c, 0, 86, 0
2, 366777, Note_on_c, 0, 80, 0
2, 366792, Note_on_c, 0, 77, 47
2, 367283, Note_on_c, 0, 65, 0
2, 367637, Note_on_c, 0, 77, 0
2, 367750, Note_on_c, 0, 62, 0
2, 368048, Note_on_c, 0, 76, 37
2, 368059, Note_on_c, 0, 65, 25
2, 368061, Note_on_c, 0, 62, 18
2, 368496, Note_on_c, 0, 65, 0
2, 368668, Note_on_c, 0, 76, 0
2, 368693, Note_on_c, 0, 62, 0
2, 368840, Note_on_c, 0, 56, 0
2, 369217, Note_on_c, 0, 74, 59
2, 369471, Note_on_c, 0, 74, 0
2, 369767, Control_c, 0, 64, 0
2, 369825, Note_on_c, 0, 52, 33
2, 369829, Note_on_c, 0, 45, 32
2, 369859, Note_on_c, 0, 71, 36
2, 369861, Note_on_c, 0, 72, 35
2, 370173, Note_on_c, 0, 71, 0
2, 370778, Note_on_c, 0, 72, 0
2, 370797, Note_on_c, 0, 74, 52
2, 371002, Note_on_c, 0, 72, 33
2, 371059, Note_on_c, 0, 74, 0
2, 371268, Note_on_c, 0, 71, 55
2, 371282, Note_on_c, 0, 72, 0
2, 371284, Control_c, 0, 64, 127
2, 371531, Note_on_c, 0, 71, 0
2, 371568, Control_c, 0, 64, 0
2, 371621, Note_on_c, 0, 55, 37
2, 371635, Note_on_c, 0, 72, 71
2, 371905, Note_on_c, 0, 55, 0
2, 372044, Note_on_c, 0, 74, 67
2, 372124, Note_on_c, 0, 72, 0
2, 372376, Note_on_c, 0, 74, 0
2, 372428, Note_on_c, 0, 72, 71
2, 372497, Control_c, 0, 64, 127
2, 372898, Note_on_c, 0, 45, 0
2, 372990, Note_on_c, 0, 52, 0
2, 373359, Control_c, 0, 64, 0
2, 373382, Note_on_c, 0, 42, 52
2, 373406, Note_on_c, 0, 52, 24
2, 373648, Control_c, 0, 64, 127
2, 374211, Note_on_c, 0, 42, 0
2, 374335, Note_on_c, 0, 52, 0
2, 375176, Note_on_c, 0, 64, 40
2, 375183, Note_on_c, 0, 69, 46
2, 375221, Note_on_c, 0, 54, 34
2, 375242, Note_on_c, 0, 60, 27
2, 375344, Note_on_c, 0, 60, 0
2, 375465, Note_on_c, 0, 54, 0
2, 375900, Note_on_c, 0, 69, 0
2, 376155, Note_on_c, 0, 64, 0
2, 376929, Control_c, 0, 64, 0
2, 376939, Note_on_c, 0, 72, 0
2, 376943, Note_on_c, 0, 48, 24
2, 376976, Note_on_c, 0, 67, 49
2, 376980, Note_on_c, 0, 63, 40
2, 376992, Note_on_c, 0, 41, 36
2, 377044, Note_on_c, 0, 57, 44
2, 377232, Control_c, 0, 64, 127
2, 377318, Note_on_c, 0, 63, 0
2, 377388, Note_on_c, 0, 67, 0
2, 377496, Note_on_c, 0, 41, 0
2, 377529, Note_on_c, 0, 48, 0
2, 377594, Note_on_c, 0, 57, 0
2, 378166, Note_on_c, 0, 86, 88
2, 378176, Note_on_c, 0, 79, 91
2, 378609, Note_on_c, 0, 83, 68
2, 378611, Note_on_c, 0, 74, 66
2, 378613, Note_on_c, 0, 86, 0
2, 378764, Note_on_c, 0, 79, 0
2, 378893, Note_on_c, 0, 67, 47
2, 378904, Note_on_c, 0, 63, 31
2, 378910, Note_on_c, 0, 62, 39
2, 378955, Note_on_c, 0, 57, 30
2, 378963, Note_on_c, 0, 74, 0
2, 379088, Note_on_c, 0, 83, 0
2, 379223, Note_on_c, 0, 79, 64
2, 379225, Note_on_c, 0, 86, 74
2, 379992, Note_on_c, 0, 67, 0
2, 380061, Note_on_c, 0, 62, 0
2, 380086, Note_on_c, 0, 63, 0
2, 380149, Note_on_c, 0, 57, 0
2, 380233, Note_on_c, 0, 79, 0
2, 380745, Control_c, 0, 64, 0
2, 380788, Note_on_c, 0, 65, 42
2, 380810, Note_on_c, 0, 62, 40
2, 380820, Note_on_c, 0, 56, 29
2, 380919, Note_on_c, 0, 86, 0
2, 381121, Control_c, 0, 64, 127
2, 381619, Note_on_c, 0, 65, 0
2, 381650, Note_on_c, 0, 62, 0
2, 381764, Note_on_c, 0, 56, 0
2, 382644, Note_on_c, 0, 62, 34
2, 382650, Note_on_c, 0, 56, 29
2, 382656, Control_c, 0, 64, 0
2, 382699, Note_on_c, 0, 52, 36
2, 382983, Control_c, 0, 64, 127
2, 383222, Note_on_c, 0, 80, 52
2, 383224, Note_on_c, 0, 62, 0
2, 383226, Note_on_c, 0, 71, 53
2, 383365, Note_on_c, 0, 56, 0
2, 383427, Note_on_c, 0, 52, 0
2, 383464, Note_on_c, 0, 71, 0
2, 383533, Note_on_c, 0, 80, 0
2, 383832, Note_on_c, 0, 86, 87
2, 384252, Note_on_c, 0, 86, 0
2, 384458, Note_on_c, 0, 45, 44
2, 384483, Note_on_c, 0, 52, 31
2, 384489, Control_c, 0, 64, 0
2, 384520, Note_on_c, 0, 84, 66
2, 384835, Control_c, 0, 64, 127
2, 385003, Note_on_c, 0, 45, 0
2, 385155, Note_on_c, 0, 52, 0
2, 385276, Note_on_c, 0, 84, 0
2, 385701, Note_on_c, 0, 76, 51
2, 386129, Note_on_c, 0, 76, 0
2, 386318, Note_on_c, 0, 64, 25
2, 386330, Note_on_c, 0, 60, 29
2, 386340, Note_on_c, 0, 59, 29
2, 386375, Note_on_c, 0, 76, 38
2, 386678, Note_on_c, 0, 64, 0
2, 386701, Note_on_c, 0, 60, 0
2, 386741, Note_on_c, 0, 59, 0
2, 387052, Note_on_c, 0, 76, 0
2, 387108, Note_on_c, 0, 77, 49
2, 387323, Note_on_c, 0, 77, 0
2, 387325, Note_on_c, 0, 76, 44
2, 387626, Note_on_c, 0, 75, 62
2, 387669, Note_on_c, 0, 76, 0
2, 387901, Note_on_c, 0, 75, 0
2, 388065, Note_on_c, 0, 76, 61
2, 388100, Note_on_c, 0, 45, 54
2, 388141, Control_c, 0, 64, 0
2, 388756, Control_c, 0, 64, 127
2, 389093, Note_on_c, 0, 45, 0
2, 389280, Note_on_c, 0, 54, 61
2, 389333, Note_on_c, 0, 45, 50
2, 390406, Note_on_c, 0, 76, 0
2, 390648, Note_on_c, 0, 45, 0
2, 391157, Note_on_c, 0, 45, 54
2, 391467, Note_on_c, 0, 45, 0
2, 391655, Note_on_c, 0, 54, 0
2, 391711, Control_c, 0, 64, 0
2, 391813, Note_on_c, 0, 44, 59
2, 392061, Control_c, 0, 64, 127
2, 392132, Note_on_c, 0, 44, 0
2, 392968, Note_on_c, 0, 82, 74
2, 392972, Note_on_c, 0, 75, 78
2, 393009, Note_on_c, 0, 63, 51
2, 393050, Note_on_c, 0, 54, 33
2, 393062, Note_on_c, 0, 58, 33
2, 393064, Note_on_c, 0, 59, 41
2, 393929, Note_on_c, 0, 75, 0
2, 394120, Note_on_c, 0, 82, 0
2, 394247, Note_on_c, 0, 80, 59
2, 394249, Note_on_c, 0, 75, 50
2, 394267, Note_on_c, 0, 71, 46
2, 394644, Note_on_c, 0, 59, 0
2, 394846, Note_on_c, 0, 63, 0
2, 394891, Note_on_c, 0, 71, 0
2, 395008, Note_on_c, 0, 58, 0
2, 395024, Note_on_c, 0, 54, 0
2, 395049, Note_on_c, 0, 80, 0
2, 395079, Note_on_c, 0, 75, 0
2, 395473, Control_c, 0, 64, 0
2, 395485, Note_on_c, 0, 75, 52
2, 395495, Note_on_c, 0, 70, 42
2, 395501, Note_on_c, 0, 59, 45
2, 395505, Note_on_c, 0, 79, 53
2, 395530, Note_on_c, 0, 63, 35
2, 395577, Note_on_c, 0, 53, 36
2, 395964, Control_c, 0, 64, 127
2, 396806, Note_on_c, 0, 63, 0
2, 397012, Note_on_c, 0, 70, 0
2, 397061, Note_on_c, 0, 75, 0
2, 397162, Note_on_c, 0, 79, 0
2, 397382, Note_on_c, 0, 63, 39
2, 397394, Note_on_c, 0, 80, 46
2, 397397, Note_on_c, 0, 75, 50
2, 397427, Note_on_c, 0, 70, 29
2, 398086, Note_on_c, 0, 59, 0
2, 398230, Note_on_c, 0, 63, 0
2, 398618, Note_on_c, 0, 53, 0
2, 398678, Note_on_c, 0, 70, 0
2, 398756, Note_on_c, 0, 80, 0
2, 399017, Note_on_c, 0, 75, 0
2, 399189, Control_c, 0, 64, 0
2, 399248, Note_on_c, 0, 62, 45
2, 399250, Note_on_c, 0, 81, 51
2, 399255, Note_on_c, 0, 55, 34
2, 399259, Note_on_c, 0, 74, 42
2, 399277, Note_on_c, 0, 58, 37
2, 399279, Note_on_c, 0, 69, 38
2, 399561, Control_c, 0, 64, 127
2, 399785, Note_on_c, 0, 62, 0
2, 399854, Note_on_c, 0, 58, 0
2, 399969, Note_on_c, 0, 55, 0
2, 400436, Note_on_c, 0, 69, 0
2, 400438, Note_on_c, 0, 81, 0
2, 400755, Note_on_c, 0, 74, 0
2, 401099, Note_on_c, 0, 82, 48
2, 401112, Note_on_c, 0, 43, 35
2, 401120, Note_on_c, 0, 74, 36
2, 401124, Note_on_c, 0, 53, 35
2, 401145, Note_on_c, 0, 70, 25
2, 401378, Note_on_c, 0, 43, 0
2, 401522, Note_on_c, 0, 74, 0
2, 401669, Note_on_c, 0, 53, 0
2, 401683, Note_on_c, 0, 70, 0
2, 401773, Note_on_c, 0, 82, 0
2, 402362, Note_on_c, 0, 86, 71
2, 402373, Note_on_c, 0, 74, 57
2, 402762, Note_on_c, 0, 74, 0
2, 402805, Note_on_c, 0, 86, 0
2, 403049, Note_on_c, 0, 76, 64
2, 403059, Note_on_c, 0, 88, 66
2, 403084, Control_c, 0, 64, 0
2, 403337, Control_c, 0, 64, 127
2, 404207, Note_on_c, 0, 43, 35
2, 404313, Note_on_c, 0, 76, 0
2, 404356, Note_on_c, 0, 88, 0
2, 404906, Note_on_c, 0, 89, 40
2, 404928, Note_on_c, 0, 77, 37
2, 404934, Control_c, 0, 64, 0
2, 405284, Control_c, 0, 64, 127
2, 405445, Note_on_c, 0, 43, 0
2, 405732, Note_on_c, 0, 77, 0
2, 405773, Note_on_c, 0, 89, 0
2, 406131, Note_on_c, 0, 43, 36
2, 406276, Note_on_c, 0, 43, 0
2, 406702, Control_c, 0, 64, 0
2, 406757, Note_on_c, 0, 94, 56
2, 406781, Note_on_c, 0, 82, 38
2, 406800, Note_on_c, 0, 37, 29
2, 406814, Note_on_c, 0, 89, 46
2, 406851, Note_on_c, 0, 49, 19
2, 407073, Control_c, 0, 64, 127
2, 407157, Note_on_c, 0, 37, 0
2, 407251, Note_on_c, 0, 49, 0
2, 407601, Note_on_c, 0, 89, 0
2, 407699, Note_on_c, 0, 82, 0
2, 407703, Note_on_c, 0, 94, 0
2, 407986, Note_on_c, 0, 93, 45
2, 407998, Note_on_c, 0, 81, 35
2, 408118, Note_on_c, 0, 93, 0
2, 408155, Note_on_c, 0, 81, 0
2, 408573, Note_on_c, 0, 61, 28
2, 408596, Note_on_c, 0, 94, 48
2, 408602, Note_on_c, 0, 64, 26
2, 408612, Note_on_c, 0, 58, 30
2, 408620, Note_on_c, 0, 82, 35
2, 408829, Note_on_c, 0, 64, 0
2, 408856, Note_on_c, 0, 94, 0
2, 408887, Note_on_c, 0, 61, 0
2, 408958, Note_on_c, 0, 58, 0
2, 409061, Note_on_c, 0, 82, 0
2, 409703, Note_on_c, 0, 81, 58
2, 409706, Note_on_c, 0, 93, 66
2, 409736, Note_on_c, 0, 85, 43
2, 409767, Note_on_c, 0, 88, 33
2, 409806, Note_on_c, 0, 85, 0
2, 409849, Note_on_c, 0, 93, 0
2, 409853, Note_on_c, 0, 88, 0
2, 409865, Note_on_c, 0, 81, 0
2, 410072, Control_c, 0, 64, 0
2, 410309, Note_on_c, 0, 58, 34
2, 410319, Note_on_c, 0, 48, 37
2, 410522, Control_c, 0, 64, 127
2, 411214, Note_on_c, 0, 58, 0
2, 411307, Note_on_c, 0, 48, 0
2, 412016, Control_c, 0, 64, 0
2, 412046, Note_on_c, 0, 64, 54
2, 412051, Note_on_c, 0, 56, 31
2, 412053, Note_on_c, 0, 67, 48
2, 412057, Note_on_c, 0, 46, 34
2, 412429, Control_c, 0, 64, 127
2, 412912, Note_on_c, 0, 56, 0
2, 412918, Note_on_c, 0, 46, 0
2, 413014, Note_on_c, 0, 64, 0
2, 413059, Note_on_c, 0, 67, 0
2, 413747, Control_c, 0, 64, 0
2, 413857, Note_on_c, 0, 74, 69
2, 413897, Note_on_c, 0, 67, 62
2, 413901, Note_on_c, 0, 63, 48
2, 413913, Note_on_c, 0, 45, 42
2, 413969, Note_on_c, 0, 55, 31
2, 414034, Control_c, 0, 64, 127
2, 414124, Note_on_c, 0, 67, 0
2, 414155, Note_on_c, 0, 63, 0
2, 414218, Note_on_c, 0, 45, 0
2, 414241, Note_on_c, 0, 74, 0
2, 414267, Note_on_c, 0, 55, 0
2, 415008, Note_on_c, 0, 86, 80
2, 415057, Note_on_c, 0, 74, 78
2, 415096, Note_on_c, 0, 62, 61
2, 415578, Note_on_c, 0, 74, 0
2, 415582, Note_on_c, 0, 86, 0
2, 415621, Note_on_c, 0, 62, 0
2, 415902, Note_on_c, 0, 86, 55
2, 415984, Note_on_c, 0, 62, 54
2, 415986, Note_on_c, 0, 74, 63
2, 416331, Note_on_c, 0, 62, 0
2, 416350, Note_on_c, 0, 74, 0
2, 416374, Note_on_c, 0, 86, 0
2, 416800, Note_on_c, 0, 86, 43
2, 416880, Note_on_c, 0, 62, 46
2, 416884, Note_on_c, 0, 74, 49
2, 417136, Note_on_c, 0, 74, 0
2, 417153, Note_on_c, 0, 86, 0
2, 417157, Note_on_c, 0, 62, 0
2, 417707, Note_on_c, 0, 86, 53
2, 417763, Note_on_c, 0, 62, 42
2, 417771, Note_on_c, 0, 74, 36
2, 418084, Note_on_c, 0, 86, 0
2, 418251, Note_on_c, 0, 74, 0
2, 418496, Note_on_c, 0, 62, 0
2, 418636, Note_on_c, 0, 84, 36
2, 418656, Note_on_c, 0, 60, 32
2, 418685, Note_on_c, 0, 72, 30
2, 418927, Note_on_c, 0, 60, 0
2, 418996, Note_on_c, 0, 84, 0
2, 419012, Note_on_c, 0, 72, 0
2, 419624, Note_on_c, 0, 84, 49
2, 419654, Note_on_c, 0, 60, 26
2, 419659, Note_on_c, 0, 72, 35
2, 419876, Note_on_c, 0, 60, 0
2, 419927, Note_on_c, 0, 84, 0
2, 420083, Note_on_c, 0, 72, 0
2, 420640, Note_on_c, 0, 82, 43
2, 420669, Note_on_c, 0, 65, 44
2, 420683, Note_on_c, 0, 70, 32
2, 420689, Note_on_c, 0, 61, 27
2, 420718, Note_on_c, 0, 60, 29
2, 420973, Note_on_c, 0, 60, 0
2, 421065, Note_on_c, 0, 65, 0
2, 421096, Note_on_c, 0, 61, 0
2, 421151, Note_on_c, 0, 70, 0
2, 421171, Note_on_c, 0, 82, 0
2, 421590, Control_c, 0, 64, 0
2, 421664, Note_on_c, 0, 61, 19
2, 421672, Note_on_c, 0, 82, 46
2, 421691, Note_on_c, 0, 65, 25
2, 421705, Note_on_c, 0, 55, 32
2, 421707, Note_on_c, 0, 70, 36
2, 421711, Note_on_c, 0, 60, 31
2, 421977, Control_c, 0, 64, 127
2, 422228, Note_on_c, 0, 55, 0
2, 422253, Note_on_c, 0, 65, 0
2, 422261, Note_on_c, 0, 60, 0
2, 422319, Note_on_c, 0, 82, 0
2, 422321, Note_on_c, 0, 70, 0
2, 422331, Note_on_c, 0, 61, 0
2, 422712, Note_on_c, 0, 82, 37
2, 422718, Note_on_c, 0, 61, 26
2, 422738, Note_on_c, 0, 70, 33
2, 422744, Note_on_c, 0, 65, 25
2, 422755, Note_on_c, 0, 60, 30
2, 422761, Note_on_c, 0, 55, 28
2, 423158, Note_on_c, 0, 65, 0
2, 423164, Note_on_c, 0, 55, 0
2, 423171, Note_on_c, 0, 60, 0
2, 423175, Note_on_c, 0, 70, 0
2, 423212, Note_on_c, 0, 82, 0
2, 423263, Note_on_c, 0, 61, 0
2, 423712, Note_on_c, 0, 61, 25
2, 423734, Note_on_c, 0, 82, 42
2, 423740, Note_on_c, 0, 60, 29
2, 423755, Note_on_c, 0, 65, 27
2, 423773, Note_on_c, 0, 70, 36
2, 423796, Note_on_c, 0, 55, 26
2, 424131, Note_on_c, 0, 55, 0
2, 424141, Note_on_c, 0, 65, 0
2, 424170, Note_on_c, 0, 60, 0
2, 424231, Note_on_c, 0, 61, 0
2, 424278, Note_on_c, 0, 82, 0
2, 424280, Note_on_c, 0, 70, 0
2, 424846, Note_on_c, 0, 82, 39
2, 424848, Note_on_c, 0, 60, 24
2, 424852, Note_on_c, 0, 61, 25
2, 424854, Note_on_c, 0, 65, 34
2, 424883, Note_on_c, 0, 70, 33
2, 424908, Note_on_c, 0, 55, 24
2, 425143, Note_on_c, 0, 65, 0
2, 425153, Note_on_c, 0, 55, 0
2, 425208, Note_on_c, 0, 60, 0
2, 425262, Note_on_c, 0, 61, 0
2, 425286, Note_on_c, 0, 82, 0
2, 425350, Note_on_c, 0, 70, 0
2, 426043, Control_c, 0, 64, 0
2, 426120, Note_on_c, 0, 54, 34
2, 426124, Note_on_c, 0, 81, 46
2, 426164, Note_on_c, 0, 69, 38
2, 426169, Note_on_c, 0, 64, 26
2, 426171, Note_on_c, 0, 60, 29
2, 426369, Control_c, 0, 64, 127
2, 426467, Note_on_c, 0, 69, 0
2, 426615, Note_on_c, 0, 60, 0
2, 426715, Note_on_c, 0, 54, 0
2, 426766, Note_on_c, 0, 81, 0
2, 426774, Note_on_c, 0, 64, 0
2, 428364, Note_on_c, 0, 86, 46
2, 428448, Note_on_c, 0, 74, 40
2, 428454, Note_on_c, 0, 98, 53
2, 429842, Note_on_c, 0, 98, 0
2, 429920, Note_on_c, 0, 74, 0
2, 430131, Note_on_c, 0, 86, 0
2, 433182, Note_on_c, 0, 61, 32
2, 433193, Note_on_c, 0, 53, 24
2, 433203, Note_on_c, 0, 59, 44
2, 433227, Note_on_c, 0, 50, 29
2, 433256, Note_on_c, 0, 43, 33
2, 433332, Control_c, 0, 64, 0
2, 434031, Control_c, 0, 64, 127
2, 434857, Note_on_c, 0, 53, 0
2, 434903, Note_on_c, 0, 59, 0
2, 435036, Note_on_c, 0, 50, 0
2, 435052, Note_on_c, 0, 43, 0
2, 435068, Note_on_c, 0, 61, 0
2, 437968, Note_on_c, 0, 91, 77
2, 438025, Note_on_c, 0, 55, 54
2, 438462, Note_on_c, 0, 91, 0
2, 438499, Note_on_c, 0, 55, 0
2, 438578, Note_on_c, 0, 57, 60
2, 438587, Control_c, 0, 64, 0
2, 438589, Note_on_c, 0, 93, 75
2, 438730, Control_c, 0, 64, 127
2, 439242, Note_on_c, 0, 93, 0
2, 439285, Note_on_c, 0, 89, 62
2, 439314, Note_on_c, 0, 53, 56
2, 439324, Note_on_c, 0, 57, 0
2, 440126, Control_c, 0, 64, 0
2, 440154, Note_on_c, 0, 89, 0
2, 440185, Note_on_c, 0, 53, 0
2, 440224, Note_on_c, 0, 48, 44
2, 440269, Note_on_c, 0, 84, 50
2, 440700, Control_c, 0, 64, 127
2, 441707, Note_on_c, 0, 48, 0
2, 441750, Note_on_c, 0, 84, 0
2, 443101, Note_on_c, 0, 58, 44
2, 443743, Note_on_c, 0, 61, 40
2, 444234, Note_on_c, 0, 64, 44
2, 444447, Note_on_c, 0, 64, 0
2, 444617, Note_on_c, 0, 68, 48
2, 444889, Note_on_c, 0, 68, 0
2, 444997, Note_on_c, 0, 70, 45
2, 445188, Note_on_c, 0, 70, 0
2, 445354, Note_on_c, 0, 72, 49
2, 445659, Note_on_c, 0, 72, 0
2, 445776, Note_on_c, 0, 73, 42
2, 445957, Note_on_c, 0, 73, 0
2, 446248, Note_on_c, 0, 76, 43
2, 446502, Note_on_c, 0, 76, 0
2, 447159, Note_on_c, 0, 82, 43
2, 447344, Note_on_c, 0, 82, 0
2, 447584, Note_on_c, 0, 84, 50
2, 447832, Note_on_c, 0, 84, 0
2, 448007, Note_on_c, 0, 85, 50
2, 448150, Note_on_c, 0, 85, 0
2, 448441, Note_on_c, 0, 88, 40
2, 448716, Note_on_c, 0, 88, 0
2, 449368, Note_on_c, 0, 94, 45
2, 449790, Note_on_c, 0, 94, 0
2, 449915, Note_on_c, 0, 96, 36
2, 450162, Note_on_c, 0, 96, 0
2, 450484, Note_on_c, 0, 97, 67
2, 450628, Note_on_c, 0, 97, 0
2, 451012, Note_on_c, 0, 100, 58
2, 451208, Note_on_c, 0, 100, 0
2, 451712, Note_on_c, 0, 104, 55
2, 452294, Note_on_c, 0, 104, 0
2, 452440, Note_on_c, 0, 106, 55
2, 453132, Note_on_c, 0, 106, 0
2, 453426, Note_on_c, 0, 106, 52
2, 454307, Note_on_c, 0, 61, 0
2, 454367, Note_on_c, 0, 58, 0
2, 454373, Note_on_c, 0, 106, 0
2, 454552, Note_on_c, 0, 104, 51
2, 455367, Note_on_c, 0, 104, 0
2, 455834, Note_on_c, 0, 104, 46
2, 457175, Note_on_c, 0, 100, 41
2, 457349, Note_on_c, 0, 104, 0
2, 458330, Note_on_c, 0, 100, 0
2, 461596, Note_on_c, 0, 67, 36
2, 461606, Note_on_c, 0, 64, 42
2, 461632, Control_c, 0, 64, 0
2, 461632, Note_on_c, 0, 61, 33
2, 461639, Note_on_c, 0, 57, 26
2, 461643, Note_on_c, 0, 41, 33
2, 461661, Note_on_c, 0, 49, 26
2, 462052, Control_c, 0, 64, 127
2, 462785, Note_on_c, 0, 57, 0
2, 462914, Note_on_c, 0, 61, 0
2, 462920, Note_on_c, 0, 64, 0
2, 462967, Note_on_c, 0, 67, 0
2, 463094, Note_on_c, 0, 57, 36
2, 463096, Note_on_c, 0, 49, 0
2, 463123, Note_on_c, 0, 65, 39
2, 463127, Note_on_c, 0, 62, 40
2, 463131, Note_on_c, 0, 50, 32
2, 463198, Control_c, 0, 64, 0
2, 463916, Control_c, 0, 64, 127
2, 464559, Note_on_c, 0, 50, 0
2, 464784, Note_on_c, 0, 41, 0
2, 466226, Note_on_c, 0, 57, 0
2, 466310, Note_on_c, 0, 62, 0
2, 466320, Note_on_c, 0, 65, 0
2, 466648, Note_on_c, 0, 65, 60
2, 467472, Note_on_c, 0, 65, 0
2, 470435, Note_on_c, 0, 67, 30
2, 470441, Note_on_c, 0, 61, 30
2, 470482, Control_c, 0, 64, 0
2, 470484, Note_on_c, 0, 57, 27
2, 470504, Note_on_c, 0, 41, 22
2, 470508, Note_on_c, 0, 49, 18
2, 470979, Control_c, 0, 64, 127
2, 471742, Note_on_c, 0, 57, 0
2, 472002, Note_on_c, 0, 61, 0
2, 472025, Note_on_c, 0, 67, 0
2, 472072, Note_on_c, 0, 49, 0
2, 472231, Control_c, 0, 64, 0
2, 472246, Note_on_c, 0, 65, 30
2, 472258, Note_on_c, 0, 50, 26
2, 472264, Note_on_c, 0, 57, 24
2, 472278, Note_on_c, 0, 62, 29
2, 472618, Control_c, 0, 64, 127
2, 472835, Note_on_c, 0, 50, 0
2, 473046, Note_on_c, 0, 41, 0
2, 473407, Note_on_c, 0, 57, 0
2, 473664, Note_on_c, 0, 62, 0
2, 473717, Note_on_c, 0, 65, 0
2, 474263, Note_on_c, 0, 29, 35
2, 474476, Note_on_c, 0, 29, 0
2, 475869, Note_on_c, 0, 74, 36
2, 476455, Note_on_c, 0, 79, 38
2, 476690, Note_on_c, 0, 79, 0
2, 476975, Note_on_c, 0, 84, 50
2, 477051, Note_on_c, 0, 84, 0
2, 477580, Note_on_c, 0, 96, 32
2, 477923, Note_on_c, 0, 96, 0
2, 478121, Note_on_c, 0, 98, 31
2, 478514, Note_on_c, 0, 98, 0
2, 478588, Note_on_c, 0, 93, 39
2, 479005, Note_on_c, 0, 93, 0
2, 479072, Note_on_c, 0, 95, 40
2, 479301, Note_on_c, 0, 95, 0
2, 479498, Note_on_c, 0, 98, 37
2, 479621, Note_on_c, 0, 98, 0
2, 479939, Note_on_c, 0, 103, 47
2, 480229, Note_on_c, 0, 103, 0
2, 480399, Note_on_c, 0, 107, 60
2, 480796, Note_on_c, 0, 107, 0
2, 480815, Note_on_c, 0, 103, 37
2, 481072, Note_on_c, 0, 103, 0
2, 481297, Note_on_c, 0, 105, 47
2, 481631, Note_on_c, 0, 105, 0
2, 481856, Note_on_c, 0, 96, 14
2, 482080, Note_on_c, 0, 96, 0
2, 482380, Note_on_c, 0, 74, 0
2, 491156, Control_c, 0, 64, 0
2, 491156, End_track
0, 0, End_of_file
