0, 0, Header, 1, 3, 960
1, 0, Start_track
1, 0, Title_t, "Things Ain't what they used to be"
1, 0, Copyright_t, "Copyright © 2005 by Doug McKenzie"
1, 0, Text_t, "Ellington - (verse by K Jarret)"
1, 0, Time_signature, 4, 2, 24, 8
1, 0, Key_signature, -1, "major"
1, 0, Tempo, 800000
1, 934, Marker_t, "Verse added by Keith Jarrett - there are also words by singer Carol Welsman "
1, 88320, Marker_t, "Start of 12 bar blues chorus theme"
1, 132935, Marker_t, "This blues phrase uses the'other' blues scale' -(D), F,G,Ab.A,C,D -  "
1, 142080, Marker_t, "Another typical bluesey phrase - the notes of a 2nd inversion F triad"
1, 148055, Marker_t, "Easy to finger run on F9 - G(5),Eb(3),C(2),A(1),Ab(3),G(1),Gb(3),F(1)"
1, 157440, Marker_t, "Basically inversions of an F triad played with upper diatonic neighbour"
1, 165366, Marker_t, "Phrase is Gm triad with surround tones on each note"
1, 170122, Marker_t, "Oscar Petersonesque blues phrase"
1, 199680, Marker_t, "On B dim - a voicing is moved around  - LH plays single notes  between chords"
1, 205360, Marker_t, "Chords played in 2 against 3 (2 chords played in triplet rhythm)"
1, 218956, Marker_t, "Typical bluse phrase on turnaround"
1, 246491, Marker_t, "Another 2 against 3 passage"
1, 284886, Marker_t, "Tritone substitution for F7 - i.e. a B7 chord - to approach the Bb7"
1, 292011, Marker_t, "Downwards arpeggio of diminished chord"
1, 295680, Marker_t, "More downward arpeggios of chords"
1, 303531, Marker_t, "On Gm7 chord - basically chord tones surrounded "
1, 307920, Marker_t, "On C7 - a diminished Half/whole scale RH and LH a minor 3rd apart"
1, 309415, Marker_t, "Must finish on a chord tone "
1, 317994, Marker_t, "Disjointed sort of LH/RH kind of playing !!"
1, 328167, Marker_t, "F chords preceded by upper neighbor chord"
1, 334768, Marker_t, "On Bb7, each note of Bb triad embellished with a turn"
1, 334768, End_track
2, 0, Start_track
2, 0, Title_t, "Track 1"
2, 0, Control_c, 0, 7, 101
2, 0, Control_c, 0, 10, 64
2, 0, End_track
3, 0, Start_track
3, 0, Title_t, "Track 2"
3, 1296, Control_c, 0, 64, 127
3, 1337, Control_c, 0, 64, 0
3, 1404, Control_c, 0, 64, 127
3, 1430, Control_c, 0, 64, 0
3, 2160, Note_on_c, 0, 65, 68
3, 2162, Note_on_c, 0, 41, 64
3, 2173, Note_on_c, 0, 57, 84
3, 2469, Note_on_c, 0, 57, 0
3, 2475, Note_on_c, 0, 58, 67
3, 2480, Note_on_c, 0, 42, 55
3, 2505, Note_on_c, 0, 41, 0
3, 2786, Note_on_c, 0, 58, 0
3, 2816, Note_on_c, 0, 59, 54
3, 2818, Note_on_c, 0, 43, 37
3, 2819, Note_on_c, 0, 42, 0
3, 3108, Note_on_c, 0, 60, 56
3, 3117, Note_on_c, 0, 44, 51
3, 3130, Note_on_c, 0, 43, 0
3, 3166, Note_on_c, 0, 59, 0
3, 3365, Note_on_c, 0, 60, 0
3, 3406, Note_on_c, 0, 65, 0
3, 3415, Control_c, 0, 64, 127
3, 3426, Note_on_c, 0, 45, 55
3, 3429, Note_on_c, 0, 61, 57
3, 3433, Note_on_c, 0, 44, 0
3, 3671, Note_on_c, 0, 61, 0
3, 3716, Control_c, 0, 64, 0
3, 3784, Note_on_c, 0, 62, 54
3, 3786, Note_on_c, 0, 58, 47
3, 3790, Note_on_c, 0, 46, 50
3, 3855, Note_on_c, 0, 45, 0
3, 3862, Note_on_c, 0, 58, 0
3, 3876, Note_on_c, 0, 62, 0
3, 3888, Note_on_c, 0, 46, 0
3, 4083, Control_c, 0, 64, 127
3, 4362, Note_on_c, 0, 65, 64
3, 4419, Note_on_c, 0, 65, 0
3, 4649, Control_c, 0, 64, 0
3, 4694, Note_on_c, 0, 56, 42
3, 4705, Note_on_c, 0, 68, 51
3, 4709, Note_on_c, 0, 74, 37
3, 4717, Note_on_c, 0, 47, 32
3, 4778, Note_on_c, 0, 68, 0
3, 4797, Note_on_c, 0, 74, 0
3, 5005, Note_on_c, 0, 74, 34
3, 5007, Note_on_c, 0, 68, 38
3, 5084, Control_c, 0, 64, 127
3, 5122, Note_on_c, 0, 74, 0
3, 5166, Note_on_c, 0, 47, 0
3, 5167, Note_on_c, 0, 68, 0
3, 5223, Note_on_c, 0, 56, 0
3, 5308, Note_on_c, 0, 56, 23
3, 5315, Note_on_c, 0, 47, 29
3, 5322, Note_on_c, 0, 62, 30
3, 5407, Note_on_c, 0, 47, 0
3, 5422, Note_on_c, 0, 62, 0
3, 5504, Note_on_c, 0, 56, 0
3, 5618, Control_c, 0, 64, 0
3, 5624, Note_on_c, 0, 65, 59
3, 5629, Note_on_c, 0, 57, 35
3, 5633, Note_on_c, 0, 48, 33
3, 5660, Note_on_c, 0, 65, 0
3, 5711, Note_on_c, 0, 57, 0
3, 5810, Note_on_c, 0, 48, 0
3, 5991, Note_on_c, 0, 65, 69
3, 5996, Note_on_c, 0, 59, 75
3, 6120, Note_on_c, 0, 59, 0
3, 6247, Note_on_c, 0, 65, 0
3, 6642, Note_on_c, 0, 56, 71
3, 6643, Note_on_c, 0, 53, 33
3, 6650, Note_on_c, 0, 65, 60
3, 6721, Note_on_c, 0, 56, 0
3, 6747, Note_on_c, 0, 57, 40
3, 6927, Note_on_c, 0, 57, 0
3, 6977, Note_on_c, 0, 60, 37
3, 6996, Note_on_c, 0, 65, 0
3, 7271, Note_on_c, 0, 45, 46
3, 7272, Note_on_c, 0, 62, 49
3, 7277, Control_c, 0, 64, 127
3, 7357, Note_on_c, 0, 60, 0
3, 7507, Note_on_c, 0, 45, 0
3, 7560, Note_on_c, 0, 62, 0
3, 7565, Note_on_c, 0, 53, 0
3, 7568, Control_c, 0, 64, 0
3, 7581, Note_on_c, 0, 61, 51
3, 7596, Note_on_c, 0, 57, 40
3, 7609, Note_on_c, 0, 64, 45
3, 7611, Note_on_c, 0, 49, 34
3, 7861, Control_c, 0, 64, 127
3, 8036, Note_on_c, 0, 49, 0
3, 8041, Note_on_c, 0, 57, 0
3, 8163, Note_on_c, 0, 64, 0
3, 8195, Note_on_c, 0, 61, 0
3, 8195, Note_on_c, 0, 57, 44
3, 8201, Note_on_c, 0, 49, 48
3, 8239, Note_on_c, 0, 57, 0
3, 8511, Control_c, 0, 64, 0
3, 8534, Note_on_c, 0, 61, 83
3, 8535, Note_on_c, 0, 67, 82
3, 8536, Note_on_c, 0, 64, 84
3, 8536, Note_on_c, 0, 52, 83
3, 8537, Note_on_c, 0, 57, 101
3, 8549, Note_on_c, 0, 65, 68
3, 8577, Note_on_c, 0, 65, 0
3, 8601, Note_on_c, 0, 49, 0
3, 8746, Note_on_c, 0, 64, 0
3, 8853, Note_on_c, 0, 64, 50
3, 8855, Note_on_c, 0, 67, 0
3, 8888, Note_on_c, 0, 49, 25
3, 8903, Note_on_c, 0, 57, 0
3, 8960, Note_on_c, 0, 52, 0
3, 9039, Note_on_c, 0, 64, 0
3, 9081, Control_c, 0, 64, 127
3, 9140, Note_on_c, 0, 52, 48
3, 9147, Note_on_c, 0, 57, 50
3, 9151, Note_on_c, 0, 67, 39
3, 9158, Note_on_c, 0, 64, 41
3, 9290, Note_on_c, 0, 52, 0
3, 9298, Note_on_c, 0, 57, 0
3, 9359, Note_on_c, 0, 64, 0
3, 9382, Note_on_c, 0, 67, 0
3, 9389, Control_c, 0, 64, 0
3, 9473, Note_on_c, 0, 50, 50
3, 9477, Note_on_c, 0, 61, 0
3, 9482, Note_on_c, 0, 57, 43
3, 9487, Note_on_c, 0, 62, 45
3, 9497, Note_on_c, 0, 65, 49
3, 9551, Note_on_c, 0, 49, 0
3, 9597, Control_c, 0, 64, 127
3, 9649, Note_on_c, 0, 50, 0
3, 9720, Note_on_c, 0, 57, 0
3, 9745, Note_on_c, 0, 62, 0
3, 9789, Note_on_c, 0, 65, 0
3, 10073, Control_c, 0, 64, 0
3, 10082, Note_on_c, 0, 61, 54
3, 10087, Note_on_c, 0, 32, 34
3, 10090, Note_on_c, 0, 60, 51
3, 10092, Note_on_c, 0, 59, 51
3, 10102, Note_on_c, 0, 44, 37
3, 10103, Note_on_c, 0, 34, 51
3, 10121, Note_on_c, 0, 60, 0
3, 10124, Note_on_c, 0, 59, 0
3, 10131, Note_on_c, 0, 62, 74
3, 10156, Note_on_c, 0, 61, 0
3, 10199, Note_on_c, 0, 32, 0
3, 10233, Note_on_c, 0, 44, 0
3, 10444, Note_on_c, 0, 46, 52
3, 10448, Note_on_c, 0, 65, 49
3, 10457, Note_on_c, 0, 53, 40
3, 10458, Note_on_c, 0, 58, 46
3, 10512, Note_on_c, 0, 53, 0
3, 10533, Note_on_c, 0, 65, 0
3, 10538, Note_on_c, 0, 58, 0
3, 10542, Note_on_c, 0, 46, 0
3, 10546, Note_on_c, 0, 62, 0
3, 10592, Note_on_c, 0, 34, 0
3, 10783, Note_on_c, 0, 65, 40
3, 10785, Note_on_c, 0, 58, 44
3, 10795, Note_on_c, 0, 53, 29
3, 10805, Note_on_c, 0, 62, 46
3, 10831, Control_c, 0, 64, 127
3, 10924, Note_on_c, 0, 62, 0
3, 10940, Note_on_c, 0, 53, 0
3, 10963, Note_on_c, 0, 65, 0
3, 11052, Note_on_c, 0, 58, 0
3, 11079, Note_on_c, 0, 34, 34
3, 11097, Note_on_c, 0, 46, 25
3, 11144, Note_on_c, 0, 34, 0
3, 11162, Note_on_c, 0, 46, 0
3, 11288, Note_on_c, 0, 44, 18
3, 11374, Control_c, 0, 64, 0
3, 11389, Note_on_c, 0, 48, 36
3, 11399, Note_on_c, 0, 57, 51
3, 11407, Note_on_c, 0, 65, 43
3, 11412, Note_on_c, 0, 60, 42
3, 11419, Note_on_c, 0, 36, 35
3, 11523, Note_on_c, 0, 57, 0
3, 11556, Note_on_c, 0, 60, 0
3, 11559, Note_on_c, 0, 65, 0
3, 11567, Note_on_c, 0, 44, 0
3, 11656, Control_c, 0, 64, 127
3, 11716, Note_on_c, 0, 60, 67
3, 11721, Note_on_c, 0, 69, 65
3, 11723, Note_on_c, 0, 65, 65
3, 11725, Control_c, 0, 64, 0
3, 11883, Control_c, 0, 64, 127
3, 12122, Note_on_c, 0, 36, 0
3, 12269, Note_on_c, 0, 69, 0
3, 12310, Note_on_c, 0, 60, 0
3, 12320, Note_on_c, 0, 65, 0
3, 12350, Control_c, 0, 64, 0
3, 12351, Note_on_c, 0, 69, 68
3, 12353, Note_on_c, 0, 36, 60
3, 12533, Control_c, 0, 64, 127
3, 12538, Note_on_c, 0, 69, 0
3, 12621, Note_on_c, 0, 65, 68
3, 12734, Note_on_c, 0, 65, 0
3, 12861, Note_on_c, 0, 60, 54
3, 12958, Note_on_c, 0, 60, 0
3, 13071, Note_on_c, 0, 59, 53
3, 13097, Note_on_c, 0, 48, 0
3, 13212, Note_on_c, 0, 36, 0
3, 13266, Control_c, 0, 64, 0
3, 13270, Note_on_c, 0, 59, 0
3, 13281, Note_on_c, 0, 58, 59
3, 13303, Note_on_c, 0, 48, 44
3, 13734, Control_c, 0, 64, 127
3, 13741, Control_c, 0, 64, 0
3, 13862, Note_on_c, 0, 69, 58
3, 13892, Control_c, 0, 64, 127
3, 14094, Note_on_c, 0, 69, 0
3, 14159, Control_c, 0, 64, 0
3, 14197, Note_on_c, 0, 36, 48
3, 14213, Note_on_c, 0, 67, 56
3, 14286, Note_on_c, 0, 58, 0
3, 14452, Note_on_c, 0, 67, 0
3, 14559, Control_c, 0, 64, 127
3, 14757, Note_on_c, 0, 36, 0
3, 14870, Note_on_c, 0, 48, 0
3, 14912, Note_on_c, 0, 60, 36
3, 14920, Note_on_c, 0, 59, 24
3, 14951, Note_on_c, 0, 59, 0
3, 15000, Note_on_c, 0, 60, 0
3, 15082, Note_on_c, 0, 58, 36
3, 15157, Note_on_c, 0, 58, 0
3, 15185, Control_c, 0, 64, 0
3, 15248, Note_on_c, 0, 48, 29
3, 15249, Note_on_c, 0, 41, 36
3, 15251, Note_on_c, 0, 56, 46
3, 15315, Note_on_c, 0, 56, 0
3, 15322, Note_on_c, 0, 57, 61
3, 15569, Note_on_c, 0, 65, 76
3, 15677, Control_c, 0, 64, 127
3, 15773, Note_on_c, 0, 57, 0
3, 15860, Note_on_c, 0, 65, 0
3, 16099, Note_on_c, 0, 41, 0
3, 16135, Control_c, 0, 64, 0
3, 16148, Note_on_c, 0, 67, 42
3, 16162, Note_on_c, 0, 45, 43
3, 16164, Note_on_c, 0, 48, 0
3, 16169, Note_on_c, 0, 68, 65
3, 16173, Note_on_c, 0, 53, 22
3, 16222, Note_on_c, 0, 67, 0
3, 16233, Note_on_c, 0, 68, 0
3, 16235, Note_on_c, 0, 69, 55
3, 16438, Note_on_c, 0, 69, 0
3, 16485, Control_c, 0, 64, 127
3, 16489, Note_on_c, 0, 72, 71
3, 16546, Note_on_c, 0, 45, 0
3, 16597, Note_on_c, 0, 72, 0
3, 16621, Note_on_c, 0, 53, 0
3, 16798, Note_on_c, 0, 74, 90
3, 16897, Note_on_c, 0, 74, 0
3, 17078, Control_c, 0, 64, 0
3, 17094, Note_on_c, 0, 72, 62
3, 17104, Note_on_c, 0, 48, 48
3, 17104, Note_on_c, 0, 58, 55
3, 17161, Note_on_c, 0, 72, 0
3, 17178, Note_on_c, 0, 58, 0
3, 17189, Note_on_c, 0, 48, 0
3, 17639, Note_on_c, 0, 60, 51
3, 17703, Control_c, 0, 64, 127
3, 17773, Note_on_c, 0, 60, 0
3, 17807, Note_on_c, 0, 59, 54
3, 17985, Note_on_c, 0, 59, 0
3, 18054, Control_c, 0, 64, 0
3, 18094, Note_on_c, 0, 48, 44
3, 18099, Note_on_c, 0, 58, 49
3, 18199, Note_on_c, 0, 58, 0
3, 18253, Control_c, 0, 64, 127
3, 18392, Note_on_c, 0, 48, 0
3, 18728, Note_on_c, 0, 68, 40
3, 18731, Note_on_c, 0, 58, 45
3, 18778, Note_on_c, 0, 62, 26
3, 18862, Note_on_c, 0, 58, 0
3, 18892, Note_on_c, 0, 62, 0
3, 19009, Note_on_c, 0, 68, 0
3, 19063, Control_c, 0, 64, 0
3, 19100, Note_on_c, 0, 29, 25
3, 19105, Note_on_c, 0, 60, 27
3, 19115, Note_on_c, 0, 57, 30
3, 19115, Note_on_c, 0, 65, 32
3, 19229, Control_c, 0, 64, 127
3, 19291, Note_on_c, 0, 60, 0
3, 19323, Note_on_c, 0, 29, 0
3, 19336, Note_on_c, 0, 57, 0
3, 19457, Note_on_c, 0, 65, 0
3, 19757, Note_on_c, 0, 65, 26
3, 19823, Note_on_c, 0, 65, 0
3, 20021, Control_c, 0, 64, 0
3, 20085, Note_on_c, 0, 45, 50
3, 20096, Note_on_c, 0, 68, 53
3, 20109, Note_on_c, 0, 74, 42
3, 20180, Note_on_c, 0, 45, 0
3, 20204, Note_on_c, 0, 74, 0
3, 20229, Note_on_c, 0, 68, 0
3, 20445, Note_on_c, 0, 65, 32
3, 20557, Note_on_c, 0, 65, 0
3, 20680, Control_c, 0, 64, 127
3, 20739, Note_on_c, 0, 74, 27
3, 20741, Note_on_c, 0, 67, 35
3, 20815, Note_on_c, 0, 74, 0
3, 20847, Note_on_c, 0, 67, 0
3, 21015, Control_c, 0, 64, 0
3, 21061, Note_on_c, 0, 65, 41
3, 21064, Note_on_c, 0, 62, 24
3, 21075, Note_on_c, 0, 46, 28
3, 21104, Note_on_c, 0, 53, 16
3, 21228, Note_on_c, 0, 62, 0
3, 21233, Note_on_c, 0, 65, 0
3, 21241, Note_on_c, 0, 46, 0
3, 21269, Note_on_c, 0, 53, 0
3, 21685, Note_on_c, 0, 60, 32
3, 21855, Note_on_c, 0, 60, 0
3, 21996, Note_on_c, 0, 46, 28
3, 21997, Note_on_c, 0, 61, 39
3, 22001, Note_on_c, 0, 56, 25
3, 22041, Note_on_c, 0, 56, 0
3, 22070, Note_on_c, 0, 46, 0
3, 22085, Note_on_c, 0, 61, 0
3, 22086, Note_on_c, 0, 62, 46
3, 22215, Note_on_c, 0, 62, 0
3, 22321, Note_on_c, 0, 65, 43
3, 22403, Note_on_c, 0, 65, 0
3, 22608, Note_on_c, 0, 67, 62
3, 22714, Note_on_c, 0, 67, 0
3, 22724, Control_c, 0, 64, 127
3, 22832, Control_c, 0, 64, 0
3, 22898, Note_on_c, 0, 67, 24
3, 22936, Note_on_c, 0, 57, 42
3, 22943, Note_on_c, 0, 48, 31
3, 22953, Note_on_c, 0, 68, 37
3, 22997, Note_on_c, 0, 67, 0
3, 23019, Note_on_c, 0, 68, 0
3, 23031, Note_on_c, 0, 69, 51
3, 23112, Note_on_c, 0, 69, 0
3, 23168, Note_on_c, 0, 72, 75
3, 23171, Note_on_c, 0, 60, 70
3, 23358, Control_c, 0, 64, 127
3, 23483, Note_on_c, 0, 72, 0
3, 23540, Note_on_c, 0, 57, 0
3, 23593, Note_on_c, 0, 60, 0
3, 23674, Note_on_c, 0, 48, 0
3, 23840, Note_on_c, 0, 72, 50
3, 23841, Note_on_c, 0, 67, 35
3, 23849, Control_c, 0, 64, 0
3, 23859, Note_on_c, 0, 52, 33
3, 23866, Note_on_c, 0, 64, 47
3, 23880, Note_on_c, 0, 58, 29
3, 24066, Control_c, 0, 64, 127
3, 24312, Note_on_c, 0, 52, 0
3, 24320, Note_on_c, 0, 72, 0
3, 24446, Note_on_c, 0, 58, 0
3, 24513, Note_on_c, 0, 74, 44
3, 24517, Note_on_c, 0, 67, 0
3, 24545, Note_on_c, 0, 64, 0
3, 24719, Note_on_c, 0, 74, 0
3, 24800, Control_c, 0, 64, 0
3, 24845, Note_on_c, 0, 64, 37
3, 24848, Note_on_c, 0, 60, 29
3, 24850, Note_on_c, 0, 50, 25
3, 24855, Note_on_c, 0, 69, 39
3, 24862, Note_on_c, 0, 65, 35
3, 24976, Note_on_c, 0, 60, 0
3, 25016, Note_on_c, 0, 50, 0
3, 25033, Control_c, 0, 64, 127
3, 25436, Note_on_c, 0, 26, 51
3, 25543, Control_c, 0, 64, 0
3, 25592, Control_c, 0, 64, 127
3, 25613, Note_on_c, 0, 26, 0
3, 25942, Note_on_c, 0, 64, 0
3, 26147, Note_on_c, 0, 65, 0
3, 26305, Note_on_c, 0, 69, 0
3, 26489, Note_on_c, 0, 65, 54
3, 26500, Note_on_c, 0, 54, 38
3, 26503, Note_on_c, 0, 44, 54
3, 26536, Note_on_c, 0, 60, 20
3, 26642, Note_on_c, 0, 60, 0
3, 26736, Note_on_c, 0, 65, 0
3, 26743, Note_on_c, 0, 44, 0
3, 26757, Note_on_c, 0, 54, 0
3, 26793, Control_c, 0, 64, 0
3, 26818, Note_on_c, 0, 64, 47
3, 26847, Note_on_c, 0, 53, 30
3, 26853, Note_on_c, 0, 59, 40
3, 26875, Note_on_c, 0, 43, 47
3, 26994, Control_c, 0, 64, 127
3, 27355, Note_on_c, 0, 43, 0
3, 27440, Note_on_c, 0, 64, 0
3, 27489, Note_on_c, 0, 53, 0
3, 27524, Note_on_c, 0, 59, 0
3, 27794, Control_c, 0, 64, 0
3, 27806, Note_on_c, 0, 80, 82
3, 27806, Note_on_c, 0, 59, 36
3, 27809, Note_on_c, 0, 62, 48
3, 27812, Note_on_c, 0, 74, 85
3, 27821, Note_on_c, 0, 53, 35
3, 27954, Note_on_c, 0, 74, 0
3, 27978, Note_on_c, 0, 80, 0
3, 27984, Note_on_c, 0, 77, 37
3, 28044, Control_c, 0, 64, 127
3, 28113, Note_on_c, 0, 77, 0
3, 28162, Note_on_c, 0, 74, 44
3, 28329, Note_on_c, 0, 53, 0
3, 28329, Note_on_c, 0, 62, 0
3, 28338, Note_on_c, 0, 59, 0
3, 28421, Note_on_c, 0, 74, 0
3, 28464, Note_on_c, 0, 71, 48
3, 28552, Note_on_c, 0, 71, 0
3, 28737, Control_c, 0, 64, 0
3, 28769, Note_on_c, 0, 77, 53
3, 28776, Note_on_c, 0, 70, 52
3, 28777, Note_on_c, 0, 65, 52
3, 28779, Note_on_c, 0, 74, 52
3, 28783, Note_on_c, 0, 62, 29
3, 28801, Note_on_c, 0, 58, 38
3, 28895, Control_c, 0, 64, 127
3, 28939, Note_on_c, 0, 65, 0
3, 28953, Note_on_c, 0, 74, 0
3, 28956, Note_on_c, 0, 70, 0
3, 28989, Note_on_c, 0, 77, 0
3, 29049, Note_on_c, 0, 62, 0
3, 29132, Note_on_c, 0, 58, 0
3, 29352, Note_on_c, 0, 81, 78
3, 29361, Note_on_c, 0, 69, 77
3, 29485, Note_on_c, 0, 81, 0
3, 29549, Note_on_c, 0, 69, 0
3, 29637, Control_c, 0, 64, 0
3, 29682, Note_on_c, 0, 79, 49
3, 29685, Note_on_c, 0, 48, 33
3, 29686, Note_on_c, 0, 67, 47
3, 29687, Note_on_c, 0, 58, 31
3, 29690, Note_on_c, 0, 76, 46
3, 29694, Note_on_c, 0, 73, 35
3, 29816, Note_on_c, 0, 76, 0
3, 29822, Control_c, 0, 64, 127
3, 29878, Note_on_c, 0, 58, 0
3, 29880, Note_on_c, 0, 48, 0
3, 29921, Note_on_c, 0, 79, 0
3, 30092, Note_on_c, 0, 73, 0
3, 30211, Note_on_c, 0, 67, 0
3, 30302, Note_on_c, 0, 74, 40
3, 30487, Note_on_c, 0, 74, 0
3, 30520, Note_on_c, 0, 45, 42
3, 30530, Note_on_c, 0, 46, 38
3, 30578, Note_on_c, 0, 47, 58
3, 30582, Control_c, 0, 64, 0
3, 30589, Note_on_c, 0, 45, 0
3, 30594, Note_on_c, 0, 46, 0
3, 30609, Note_on_c, 0, 48, 63
3, 30616, Note_on_c, 0, 77, 60
3, 30628, Note_on_c, 0, 69, 44
3, 30634, Note_on_c, 0, 72, 40
3, 30647, Note_on_c, 0, 47, 0
3, 30653, Note_on_c, 0, 77, 0
3, 30669, Note_on_c, 0, 72, 0
3, 30669, Note_on_c, 0, 69, 0
3, 30982, Control_c, 0, 64, 127
3, 31094, Note_on_c, 0, 45, 48
3, 31114, Note_on_c, 0, 48, 0
3, 31139, Note_on_c, 0, 46, 45
3, 31179, Note_on_c, 0, 47, 55
3, 31199, Note_on_c, 0, 45, 0
3, 31207, Control_c, 0, 64, 0
3, 31208, Note_on_c, 0, 46, 0
3, 31218, Note_on_c, 0, 65, 81
3, 31218, Note_on_c, 0, 48, 71
3, 31224, Note_on_c, 0, 60, 74
3, 31225, Note_on_c, 0, 57, 84
3, 31270, Note_on_c, 0, 47, 0
3, 31391, Control_c, 0, 64, 127
3, 31664, Note_on_c, 0, 57, 0
3, 31723, Note_on_c, 0, 48, 0
3, 31768, Note_on_c, 0, 65, 0
3, 31795, Note_on_c, 0, 60, 0
3, 31832, Control_c, 0, 64, 0
3, 31872, Note_on_c, 0, 61, 56
3, 31873, Note_on_c, 0, 47, 38
3, 31875, Note_on_c, 0, 56, 62
3, 31880, Note_on_c, 0, 65, 53
3, 32026, Control_c, 0, 64, 127
3, 32184, Note_on_c, 0, 47, 0
3, 32254, Note_on_c, 0, 56, 0
3, 32278, Note_on_c, 0, 65, 0
3, 32359, Note_on_c, 0, 61, 0
3, 32452, Control_c, 0, 64, 0
3, 32456, Note_on_c, 0, 56, 46
3, 32462, Note_on_c, 0, 46, 29
3, 32464, Note_on_c, 0, 62, 47
3, 32466, Note_on_c, 0, 65, 36
3, 32466, Note_on_c, 0, 34, 32
3, 32710, Control_c, 0, 64, 127
3, 33115, Note_on_c, 0, 62, 0
3, 33140, Note_on_c, 0, 56, 0
3, 33147, Note_on_c, 0, 46, 0
3, 33485, Note_on_c, 0, 56, 45
3, 33499, Note_on_c, 0, 62, 32
3, 33501, Note_on_c, 0, 34, 0
3, 33703, Control_c, 0, 64, 0
3, 33793, Note_on_c, 0, 47, 42
3, 34060, Note_on_c, 0, 47, 0
3, 34071, Note_on_c, 0, 62, 0
3, 34092, Note_on_c, 0, 46, 44
3, 34097, Note_on_c, 0, 56, 0
3, 34286, Note_on_c, 0, 65, 0
3, 34383, Note_on_c, 0, 46, 0
3, 34414, Note_on_c, 0, 61, 47
3, 34420, Note_on_c, 0, 45, 38
3, 34434, Note_on_c, 0, 55, 27
3, 34495, Control_c, 0, 64, 127
3, 34792, Note_on_c, 0, 55, 0
3, 34796, Note_on_c, 0, 45, 0
3, 35027, Note_on_c, 0, 61, 0
3, 35064, Note_on_c, 0, 55, 30
3, 35066, Note_on_c, 0, 45, 24
3, 35112, Note_on_c, 0, 55, 0
3, 35131, Note_on_c, 0, 45, 0
3, 35423, Note_on_c, 0, 69, 68
3, 35424, Note_on_c, 0, 61, 60
3, 35425, Note_on_c, 0, 64, 66
3, 35429, Control_c, 0, 64, 0
3, 35430, Note_on_c, 0, 57, 70
3, 35443, Note_on_c, 0, 49, 50
3, 35679, Control_c, 0, 64, 127
3, 35715, Note_on_c, 0, 69, 0
3, 35729, Note_on_c, 0, 64, 0
3, 35775, Note_on_c, 0, 67, 36
3, 35875, Note_on_c, 0, 57, 0
3, 35918, Note_on_c, 0, 67, 0
3, 35947, Note_on_c, 0, 49, 0
3, 36081, Note_on_c, 0, 69, 43
3, 36092, Note_on_c, 0, 49, 30
3, 36222, Note_on_c, 0, 69, 0
3, 36338, Control_c, 0, 64, 0
3, 36350, Note_on_c, 0, 61, 0
3, 36374, Note_on_c, 0, 49, 0
3, 36391, Note_on_c, 0, 62, 50
3, 36396, Note_on_c, 0, 57, 34
3, 36407, Note_on_c, 0, 50, 30
3, 36467, Note_on_c, 0, 65, 40
3, 36597, Control_c, 0, 64, 127
3, 37013, Control_c, 0, 64, 0
3, 37016, Note_on_c, 0, 38, 51
3, 37104, Note_on_c, 0, 38, 0
3, 37120, Note_on_c, 0, 57, 0
3, 37122, Note_on_c, 0, 50, 0
3, 37155, Control_c, 0, 64, 127
3, 37164, Control_c, 0, 64, 0
3, 37215, Note_on_c, 0, 62, 0
3, 37427, Note_on_c, 0, 65, 0
3, 37642, Note_on_c, 0, 65, 85
3, 37649, Note_on_c, 0, 60, 82
3, 37650, Note_on_c, 0, 57, 90
3, 37667, Note_on_c, 0, 41, 27
3, 37670, Note_on_c, 0, 43, 30
3, 37714, Control_c, 0, 64, 127
3, 37735, Note_on_c, 0, 43, 0
3, 37828, Note_on_c, 0, 41, 0
3, 37835, Note_on_c, 0, 57, 0
3, 37856, Note_on_c, 0, 60, 0
3, 37880, Note_on_c, 0, 65, 0
3, 37953, Note_on_c, 0, 64, 42
3, 37961, Note_on_c, 0, 60, 46
3, 37974, Note_on_c, 0, 55, 46
3, 38037, Note_on_c, 0, 55, 0
3, 38075, Note_on_c, 0, 60, 0
3, 38076, Note_on_c, 0, 64, 0
3, 38231, Control_c, 0, 64, 0
3, 38293, Note_on_c, 0, 55, 33
3, 38294, Note_on_c, 0, 63, 45
3, 38296, Note_on_c, 0, 41, 38
3, 38302, Note_on_c, 0, 58, 54
3, 38310, Note_on_c, 0, 29, 25
3, 38431, Control_c, 0, 64, 127
3, 38497, Note_on_c, 0, 55, 0
3, 38565, Note_on_c, 0, 58, 0
3, 38577, Note_on_c, 0, 29, 0
3, 38588, Note_on_c, 0, 63, 0
3, 38633, Note_on_c, 0, 41, 0
3, 38934, Note_on_c, 0, 67, 72
3, 39088, Note_on_c, 0, 67, 0
3, 39234, Note_on_c, 0, 67, 34
3, 39249, Control_c, 0, 64, 0
3, 39254, Note_on_c, 0, 68, 50
3, 39267, Note_on_c, 0, 65, 30
3, 39268, Note_on_c, 0, 63, 30
3, 39278, Note_on_c, 0, 57, 31
3, 39330, Note_on_c, 0, 68, 0
3, 39339, Note_on_c, 0, 69, 45
3, 39381, Note_on_c, 0, 67, 0
3, 39507, Control_c, 0, 64, 127
3, 39535, Note_on_c, 0, 69, 0
3, 39580, Note_on_c, 0, 65, 0
3, 39593, Note_on_c, 0, 72, 55
3, 39638, Note_on_c, 0, 63, 0
3, 39657, Note_on_c, 0, 57, 0
3, 39832, Note_on_c, 0, 72, 0
3, 39884, Note_on_c, 0, 74, 51
3, 39953, Note_on_c, 0, 74, 0
3, 40148, Control_c, 0, 64, 0
3, 40190, Note_on_c, 0, 77, 50
3, 40213, Note_on_c, 0, 65, 37
3, 40219, Note_on_c, 0, 58, 27
3, 40220, Note_on_c, 0, 50, 28
3, 40324, Control_c, 0, 64, 127
3, 40567, Note_on_c, 0, 50, 0
3, 40576, Note_on_c, 0, 65, 0
3, 40581, Note_on_c, 0, 77, 0
3, 40668, Note_on_c, 0, 58, 0
3, 41183, Control_c, 0, 64, 0
3, 41207, Note_on_c, 0, 74, 44
3, 41215, Note_on_c, 0, 62, 36
3, 41216, Note_on_c, 0, 68, 40
3, 41222, Note_on_c, 0, 71, 44
3, 41226, Note_on_c, 0, 56, 30
3, 41233, Note_on_c, 0, 47, 29
3, 41359, Control_c, 0, 64, 127
3, 41604, Note_on_c, 0, 71, 0
3, 41649, Note_on_c, 0, 47, 0
3, 41668, Note_on_c, 0, 74, 0
3, 41708, Note_on_c, 0, 56, 0
3, 41712, Note_on_c, 0, 68, 0
3, 41767, Note_on_c, 0, 62, 0
3, 41871, Note_on_c, 0, 47, 24
3, 41884, Note_on_c, 0, 56, 19
3, 41940, Note_on_c, 0, 47, 0
3, 42045, Note_on_c, 0, 56, 0
3, 42126, Control_c, 0, 64, 0
3, 42192, Note_on_c, 0, 60, 38
3, 42193, Note_on_c, 0, 65, 47
3, 42203, Note_on_c, 0, 48, 29
3, 42212, Note_on_c, 0, 57, 28
3, 42300, Control_c, 0, 64, 127
3, 42391, Note_on_c, 0, 60, 0
3, 42512, Note_on_c, 0, 65, 0
3, 42682, Note_on_c, 0, 48, 0
3, 42774, Note_on_c, 0, 57, 0
3, 43159, Control_c, 0, 64, 0
3, 43178, Note_on_c, 0, 49, 53
3, 43190, Note_on_c, 0, 74, 99
3, 43318, Control_c, 0, 64, 127
3, 43469, Note_on_c, 0, 72, 54
3, 43584, Note_on_c, 0, 74, 0
3, 43747, Note_on_c, 0, 72, 0
3, 43768, Note_on_c, 0, 65, 46
3, 43771, Note_on_c, 0, 49, 0
3, 43985, Note_on_c, 0, 65, 0
3, 44077, Control_c, 0, 64, 0
3, 44078, Note_on_c, 0, 68, 38
3, 44110, Note_on_c, 0, 60, 27
3, 44115, Note_on_c, 0, 50, 24
3, 44123, Note_on_c, 0, 57, 27
3, 44162, Note_on_c, 0, 68, 0
3, 44206, Note_on_c, 0, 69, 24
3, 44412, Note_on_c, 0, 72, 66
3, 44461, Control_c, 0, 64, 127
3, 44704, Note_on_c, 0, 69, 0
3, 44739, Note_on_c, 0, 72, 0
3, 44760, Note_on_c, 0, 60, 0
3, 44762, Note_on_c, 0, 57, 0
3, 45036, Control_c, 0, 64, 0
3, 45093, Note_on_c, 0, 60, 24
3, 45094, Note_on_c, 0, 57, 32
3, 45095, Note_on_c, 0, 65, 42
3, 45160, Note_on_c, 0, 65, 0
3, 45177, Note_on_c, 0, 67, 46
3, 45240, Note_on_c, 0, 65, 54
3, 45263, Note_on_c, 0, 67, 0
3, 45359, Note_on_c, 0, 65, 0
3, 45362, Note_on_c, 0, 64, 48
3, 45438, Control_c, 0, 64, 127
3, 45511, Note_on_c, 0, 60, 0
3, 45578, Note_on_c, 0, 64, 0
3, 45678, Note_on_c, 0, 57, 0
3, 45698, Note_on_c, 0, 65, 66
3, 45736, Note_on_c, 0, 50, 0
3, 45798, Note_on_c, 0, 65, 0
3, 45980, Note_on_c, 0, 43, 40
3, 46006, Control_c, 0, 64, 0
3, 46036, Note_on_c, 0, 69, 66
3, 46041, Note_on_c, 0, 60, 60
3, 46044, Note_on_c, 0, 65, 67
3, 46503, Note_on_c, 0, 60, 0
3, 46551, Note_on_c, 0, 69, 0
3, 46605, Control_c, 0, 64, 127
3, 46636, Note_on_c, 0, 65, 0
3, 46685, Note_on_c, 0, 43, 40
3, 46700, Note_on_c, 0, 43, 0
3, 46731, Note_on_c, 0, 69, 35
3, 46731, Note_on_c, 0, 64, 67
3, 46731, Note_on_c, 0, 59, 40
3, 46798, Control_c, 0, 64, 0
3, 46925, Note_on_c, 0, 43, 0
3, 47012, Note_on_c, 0, 43, 34
3, 47032, Note_on_c, 0, 53, 31
3, 47231, Control_c, 0, 64, 127
3, 47307, Note_on_c, 0, 67, 57
3, 47358, Note_on_c, 0, 64, 0
3, 47484, Note_on_c, 0, 59, 0
3, 47502, Note_on_c, 0, 53, 0
3, 47547, Note_on_c, 0, 43, 0
3, 47556, Note_on_c, 0, 67, 0
3, 47588, Note_on_c, 0, 65, 53
3, 47590, Note_on_c, 0, 50, 34
3, 47672, Note_on_c, 0, 50, 0
3, 47699, Note_on_c, 0, 69, 0
3, 47807, Control_c, 0, 64, 0
3, 47832, Note_on_c, 0, 46, 32
3, 47858, Note_on_c, 0, 65, 0
3, 47883, Note_on_c, 0, 47, 55
3, 47891, Note_on_c, 0, 67, 43
3, 47892, Note_on_c, 0, 58, 50
3, 47893, Note_on_c, 0, 46, 0
3, 47898, Note_on_c, 0, 48, 51
3, 47905, Note_on_c, 0, 62, 45
3, 47952, Note_on_c, 0, 47, 0
3, 48056, Control_c, 0, 64, 127
3, 48299, Note_on_c, 0, 58, 0
3, 48427, Note_on_c, 0, 67, 0
3, 48497, Note_on_c, 0, 36, 44
3, 48540, Note_on_c, 0, 48, 0
3, 48579, Note_on_c, 0, 36, 0
3, 48616, Note_on_c, 0, 62, 0
3, 48808, Control_c, 0, 64, 0
3, 48831, Note_on_c, 0, 34, 57
3, 48837, Note_on_c, 0, 46, 58
3, 48840, Note_on_c, 0, 65, 64
3, 48841, Note_on_c, 0, 56, 71
3, 48842, Note_on_c, 0, 62, 62
3, 48869, Note_on_c, 0, 62, 0
3, 48874, Note_on_c, 0, 56, 0
3, 48893, Note_on_c, 0, 46, 0
3, 48900, Note_on_c, 0, 34, 0
3, 48920, Note_on_c, 0, 65, 0
3, 49352, Control_c, 0, 64, 127
3, 49448, Note_on_c, 0, 46, 34
3, 49450, Note_on_c, 0, 56, 51
3, 49454, Note_on_c, 0, 34, 37
3, 49470, Note_on_c, 0, 65, 44
3, 49473, Note_on_c, 0, 62, 34
3, 49508, Note_on_c, 0, 62, 0
3, 49512, Note_on_c, 0, 65, 0
3, 49526, Note_on_c, 0, 56, 0
3, 49615, Note_on_c, 0, 46, 0
3, 49644, Note_on_c, 0, 34, 0
3, 49785, Control_c, 0, 64, 0
3, 49820, Note_on_c, 0, 33, 33
3, 49820, Note_on_c, 0, 45, 32
3, 49820, Note_on_c, 0, 64, 44
3, 49820, Note_on_c, 0, 69, 35
3, 49820, Note_on_c, 0, 61, 27
3, 49964, Note_on_c, 0, 69, 0
3, 49969, Note_on_c, 0, 64, 0
3, 49976, Note_on_c, 0, 33, 0
3, 49982, Note_on_c, 0, 61, 0
3, 49991, Note_on_c, 0, 45, 0
3, 50792, Note_on_c, 0, 61, 33
3, 50793, Note_on_c, 0, 67, 35
3, 50795, Note_on_c, 0, 55, 26
3, 50801, Note_on_c, 0, 37, 30
3, 50816, Note_on_c, 0, 49, 21
3, 50836, Note_on_c, 0, 64, 16
3, 50983, Note_on_c, 0, 64, 0
3, 51005, Note_on_c, 0, 55, 0
3, 51013, Note_on_c, 0, 49, 0
3, 51014, Note_on_c, 0, 37, 0
3, 51023, Note_on_c, 0, 67, 0
3, 51276, Note_on_c, 0, 61, 0
3, 51728, Note_on_c, 0, 38, 27
3, 51731, Note_on_c, 0, 50, 27
3, 51735, Note_on_c, 0, 65, 36
3, 51746, Note_on_c, 0, 57, 26
3, 51767, Note_on_c, 0, 60, 24
3, 51815, Note_on_c, 0, 57, 0
3, 51826, Note_on_c, 0, 60, 0
3, 51830, Note_on_c, 0, 38, 0
3, 51849, Note_on_c, 0, 65, 0
3, 51861, Note_on_c, 0, 50, 0
3, 52385, Note_on_c, 0, 72, 95
3, 52489, Note_on_c, 0, 72, 0
3, 52700, Note_on_c, 0, 68, 83
3, 52702, Note_on_c, 0, 74, 77
3, 52717, Note_on_c, 0, 46, 37
3, 52718, Note_on_c, 0, 56, 42
3, 52741, Note_on_c, 0, 68, 0
3, 52746, Note_on_c, 0, 67, 62
3, 53187, Control_c, 0, 64, 127
3, 53343, Note_on_c, 0, 65, 54
3, 53354, Note_on_c, 0, 74, 0
3, 53493, Note_on_c, 0, 67, 0
3, 53643, Note_on_c, 0, 56, 0
3, 53647, Note_on_c, 0, 46, 0
3, 53715, Note_on_c, 0, 65, 0
3, 53997, Control_c, 0, 64, 0
3, 54027, Note_on_c, 0, 70, 49
3, 54041, Note_on_c, 0, 61, 33
3, 54062, Note_on_c, 0, 68, 42
3, 54073, Note_on_c, 0, 65, 53
3, 54316, Note_on_c, 0, 51, 75
3, 54480, Control_c, 0, 64, 127
3, 54541, Note_on_c, 0, 51, 0
3, 54621, Note_on_c, 0, 51, 63
3, 54757, Note_on_c, 0, 65, 0
3, 54839, Note_on_c, 0, 61, 0
3, 54930, Note_on_c, 0, 61, 31
3, 54940, Note_on_c, 0, 65, 53
3, 54949, Note_on_c, 0, 39, 23
3, 55015, Note_on_c, 0, 39, 0
3, 55196, Note_on_c, 0, 68, 0
3, 55196, Note_on_c, 0, 70, 0
3, 55230, Note_on_c, 0, 67, 55
3, 55376, Note_on_c, 0, 61, 0
3, 55378, Note_on_c, 0, 65, 0
3, 55493, Note_on_c, 0, 51, 0
3, 55509, Note_on_c, 0, 67, 0
3, 55515, Control_c, 0, 64, 0
3, 55564, Note_on_c, 0, 39, 35
3, 55565, Note_on_c, 0, 61, 38
3, 55566, Note_on_c, 0, 51, 31
3, 55573, Note_on_c, 0, 68, 38
3, 55574, Note_on_c, 0, 65, 42
3, 55789, Control_c, 0, 64, 127
3, 55875, Note_on_c, 0, 67, 44
3, 55926, Note_on_c, 0, 65, 0
3, 56024, Note_on_c, 0, 51, 0
3, 56150, Note_on_c, 0, 67, 0
3, 56186, Note_on_c, 0, 65, 52
3, 56271, Note_on_c, 0, 61, 0
3, 56279, Note_on_c, 0, 39, 0
3, 56421, Note_on_c, 0, 65, 0
3, 56481, Note_on_c, 0, 68, 0
3, 56783, Control_c, 0, 64, 0
3, 56811, Note_on_c, 0, 65, 64
3, 56814, Note_on_c, 0, 58, 64
3, 56816, Note_on_c, 0, 36, 45
3, 56817, Note_on_c, 0, 24, 53
3, 56822, Note_on_c, 0, 62, 61
3, 56833, Note_on_c, 0, 53, 36
3, 56853, Note_on_c, 0, 64, 30
3, 56991, Control_c, 0, 64, 127
3, 57002, Note_on_c, 0, 64, 0
3, 57005, Note_on_c, 0, 24, 0
3, 57015, Note_on_c, 0, 65, 0
3, 57028, Note_on_c, 0, 53, 0
3, 57045, Note_on_c, 0, 62, 0
3, 57054, Note_on_c, 0, 36, 0
3, 57113, Note_on_c, 0, 65, 62
3, 57125, Note_on_c, 0, 62, 52
3, 57204, Note_on_c, 0, 58, 0
3, 57421, Note_on_c, 0, 62, 0
3, 57454, Note_on_c, 0, 65, 0
3, 57500, Note_on_c, 0, 29, 43
3, 57500, Control_c, 0, 64, 0
3, 57653, Control_c, 0, 64, 127
3, 57980, Note_on_c, 0, 29, 0
3, 58007, Control_c, 0, 64, 0
3, 58031, Note_on_c, 0, 69, 78
3, 58032, Note_on_c, 0, 65, 71
3, 58035, Note_on_c, 0, 60, 63
3, 58039, Note_on_c, 0, 41, 57
3, 58192, Control_c, 0, 64, 127
3, 58221, Note_on_c, 0, 60, 0
3, 58275, Note_on_c, 0, 72, 64
3, 58289, Note_on_c, 0, 41, 0
3, 58335, Note_on_c, 0, 69, 0
3, 58336, Note_on_c, 0, 65, 0
3, 58432, Note_on_c, 0, 72, 0
3, 58782, Note_on_c, 0, 72, 62
3, 58787, Note_on_c, 0, 51, 68
3, 58788, Note_on_c, 0, 61, 72
3, 58793, Note_on_c, 0, 65, 72
3, 58808, Note_on_c, 0, 69, 48
3, 58882, Note_on_c, 0, 61, 0
3, 58904, Note_on_c, 0, 72, 0
3, 58920, Note_on_c, 0, 65, 0
3, 58952, Note_on_c, 0, 69, 0
3, 59028, Note_on_c, 0, 51, 0
3, 59076, Note_on_c, 0, 74, 79
3, 59237, Note_on_c, 0, 74, 0
3, 59318, Control_c, 0, 64, 0
3, 59388, Note_on_c, 0, 74, 68
3, 59396, Note_on_c, 0, 54, 53
3, 59402, Note_on_c, 0, 60, 41
3, 59405, Note_on_c, 0, 66, 44
3, 59406, Note_on_c, 0, 50, 33
3, 59609, Control_c, 0, 64, 127
3, 59630, Note_on_c, 0, 74, 0
3, 59670, Note_on_c, 0, 66, 0
3, 59710, Note_on_c, 0, 60, 0
3, 59944, Note_on_c, 0, 54, 0
3, 59985, Note_on_c, 0, 50, 0
3, 59990, Note_on_c, 0, 65, 60
3, 60153, Note_on_c, 0, 65, 0
3, 60257, Note_on_c, 0, 48, 32
3, 60309, Control_c, 0, 64, 0
3, 60322, Note_on_c, 0, 48, 0
3, 60333, Note_on_c, 0, 49, 36
3, 60341, Note_on_c, 0, 65, 47
3, 60343, Note_on_c, 0, 50, 44
3, 60348, Note_on_c, 0, 54, 36
3, 60353, Note_on_c, 0, 60, 44
3, 60402, Note_on_c, 0, 49, 0
3, 60568, Control_c, 0, 64, 127
3, 60573, Note_on_c, 0, 54, 0
3, 60743, Note_on_c, 0, 65, 0
3, 60754, Note_on_c, 0, 60, 0
3, 60905, Note_on_c, 0, 50, 0
3, 60909, Note_on_c, 0, 38, 46
3, 60954, Note_on_c, 0, 38, 0
3, 61185, Control_c, 0, 64, 0
3, 61269, Note_on_c, 0, 68, 50
3, 61277, Note_on_c, 0, 53, 35
3, 61279, Note_on_c, 0, 62, 45
3, 61280, Note_on_c, 0, 59, 38
3, 61282, Note_on_c, 0, 43, 28
3, 61297, Note_on_c, 0, 65, 43
3, 61428, Control_c, 0, 64, 127
3, 61720, Note_on_c, 0, 65, 0
3, 61749, Note_on_c, 0, 62, 0
3, 61817, Note_on_c, 0, 59, 0
3, 61884, Note_on_c, 0, 53, 0
3, 61921, Note_on_c, 0, 62, 40
3, 61925, Note_on_c, 0, 68, 0
3, 62069, Note_on_c, 0, 62, 0
3, 62228, Control_c, 0, 64, 0
3, 62263, Note_on_c, 0, 67, 51
3, 62267, Note_on_c, 0, 53, 29
3, 62279, Note_on_c, 0, 59, 30
3, 62444, Control_c, 0, 64, 127
3, 62460, Note_on_c, 0, 43, 0
3, 62545, Note_on_c, 0, 53, 0
3, 62588, Note_on_c, 0, 67, 0
3, 62609, Note_on_c, 0, 62, 40
3, 62735, Note_on_c, 0, 59, 0
3, 62866, Note_on_c, 0, 62, 0
3, 62904, Note_on_c, 0, 65, 56
3, 63057, Note_on_c, 0, 65, 0
3, 63117, Note_on_c, 0, 45, 33
3, 63132, Note_on_c, 0, 46, 36
3, 63194, Note_on_c, 0, 47, 50
3, 63196, Control_c, 0, 64, 0
3, 63206, Note_on_c, 0, 45, 0
3, 63216, Note_on_c, 0, 46, 0
3, 63222, Note_on_c, 0, 48, 44
3, 63229, Note_on_c, 0, 65, 31
3, 63236, Note_on_c, 0, 58, 36
3, 63241, Note_on_c, 0, 62, 44
3, 63252, Note_on_c, 0, 55, 17
3, 63273, Note_on_c, 0, 47, 0
3, 63453, Control_c, 0, 64, 127
3, 63825, Note_on_c, 0, 36, 39
3, 63854, Note_on_c, 0, 62, 0
3, 63859, Note_on_c, 0, 55, 0
3, 63864, Note_on_c, 0, 36, 0
3, 63939, Note_on_c, 0, 48, 0
3, 63993, Note_on_c, 0, 58, 0
3, 64040, Note_on_c, 0, 65, 0
3, 64146, Control_c, 0, 64, 0
3, 64182, Note_on_c, 0, 65, 34
3, 64198, Note_on_c, 0, 61, 33
3, 64206, Note_on_c, 0, 58, 38
3, 64206, Note_on_c, 0, 55, 20
3, 64210, Note_on_c, 0, 49, 34
3, 64307, Note_on_c, 0, 55, 0
3, 64325, Note_on_c, 0, 58, 0
3, 64335, Note_on_c, 0, 65, 0
3, 64350, Note_on_c, 0, 61, 0
3, 64350, Note_on_c, 0, 49, 0
3, 64529, Control_c, 0, 64, 127
3, 64823, Note_on_c, 0, 58, 37
3, 64829, Note_on_c, 0, 65, 33
3, 64840, Note_on_c, 0, 49, 25
3, 64882, Note_on_c, 0, 58, 0
3, 64889, Note_on_c, 0, 65, 0
3, 65072, Control_c, 0, 64, 0
3, 65159, Note_on_c, 0, 70, 42
3, 65161, Note_on_c, 0, 50, 42
3, 65164, Note_on_c, 0, 58, 35
3, 65174, Note_on_c, 0, 62, 37
3, 65175, Note_on_c, 0, 49, 0
3, 65205, Control_c, 0, 64, 127
3, 65362, Note_on_c, 0, 58, 0
3, 65363, Note_on_c, 0, 62, 0
3, 65391, Note_on_c, 0, 50, 0
3, 65511, Note_on_c, 0, 70, 0
3, 66767, Note_on_c, 0, 74, 53
3, 66780, Note_on_c, 0, 70, 44
3, 66787, Note_on_c, 0, 62, 32
3, 66801, Note_on_c, 0, 58, 34
3, 66815, Note_on_c, 0, 73, 20
3, 66851, Note_on_c, 0, 73, 0
3, 66874, Note_on_c, 0, 74, 0
3, 66898, Note_on_c, 0, 62, 0
3, 66913, Note_on_c, 0, 70, 0
3, 67114, Note_on_c, 0, 58, 0
3, 67129, Note_on_c, 0, 57, 46
3, 67133, Note_on_c, 0, 72, 50
3, 67148, Note_on_c, 0, 60, 40
3, 67149, Note_on_c, 0, 69, 48
3, 67176, Note_on_c, 0, 57, 0
3, 67241, Note_on_c, 0, 69, 0
3, 67245, Note_on_c, 0, 72, 0
3, 67295, Note_on_c, 0, 60, 0
3, 67733, Note_on_c, 0, 70, 85
3, 67738, Note_on_c, 0, 65, 90
3, 67739, Note_on_c, 0, 62, 87
3, 67764, Note_on_c, 0, 48, 38
3, 67990, Note_on_c, 0, 62, 0
3, 68009, Note_on_c, 0, 65, 0
3, 68015, Note_on_c, 0, 70, 0
3, 68024, Note_on_c, 0, 48, 0
3, 68032, Control_c, 0, 64, 0
3, 68069, Note_on_c, 0, 69, 45
3, 68074, Note_on_c, 0, 53, 37
3, 68078, Note_on_c, 0, 65, 62
3, 68084, Note_on_c, 0, 60, 55
3, 68192, Note_on_c, 0, 69, 0
3, 68207, Control_c, 0, 64, 127
3, 68221, Note_on_c, 0, 65, 0
3, 68297, Note_on_c, 0, 60, 0
3, 68304, Note_on_c, 0, 53, 0
3, 68335, Note_on_c, 0, 41, 34
3, 68442, Note_on_c, 0, 41, 0
3, 68608, Control_c, 0, 64, 0
3, 68647, Note_on_c, 0, 35, 49
3, 68657, Note_on_c, 0, 66, 50
3, 68665, Note_on_c, 0, 57, 47
3, 68668, Note_on_c, 0, 62, 50
3, 68699, Control_c, 0, 64, 127
3, 68825, Note_on_c, 0, 57, 0
3, 68852, Note_on_c, 0, 35, 0
3, 68900, Note_on_c, 0, 66, 0
3, 68944, Note_on_c, 0, 62, 0
3, 68966, Control_c, 0, 64, 0
3, 68996, Note_on_c, 0, 56, 45
3, 69000, Note_on_c, 0, 65, 54
3, 69005, Note_on_c, 0, 62, 30
3, 69011, Note_on_c, 0, 34, 32
3, 69012, Note_on_c, 0, 22, 33
3, 69149, Control_c, 0, 64, 127
3, 69292, Note_on_c, 0, 56, 0
3, 69348, Note_on_c, 0, 62, 0
3, 69367, Note_on_c, 0, 65, 0
3, 69575, Note_on_c, 0, 22, 0
3, 69625, Note_on_c, 0, 34, 0
3, 69665, Note_on_c, 0, 62, 48
3, 69693, Note_on_c, 0, 62, 0
3, 69960, Note_on_c, 0, 77, 81
3, 69968, Note_on_c, 0, 65, 90
3, 70034, Note_on_c, 0, 65, 0
3, 70050, Note_on_c, 0, 77, 0
3, 70128, Note_on_c, 0, 73, 29
3, 70158, Note_on_c, 0, 73, 0
3, 70242, Control_c, 0, 64, 0
3, 70277, Note_on_c, 0, 74, 60
3, 70281, Note_on_c, 0, 71, 65
3, 70283, Note_on_c, 0, 68, 60
3, 70287, Note_on_c, 0, 47, 51
3, 70287, Note_on_c, 0, 62, 60
3, 70289, Note_on_c, 0, 56, 51
3, 70467, Control_c, 0, 64, 127
3, 70588, Note_on_c, 0, 71, 0
3, 70596, Note_on_c, 0, 47, 0
3, 70605, Note_on_c, 0, 62, 0
3, 70615, Note_on_c, 0, 74, 0
3, 70619, Note_on_c, 0, 68, 0
3, 70638, Note_on_c, 0, 56, 0
3, 70892, Control_c, 0, 64, 0
3, 70912, Note_on_c, 0, 72, 46
3, 70913, Note_on_c, 0, 69, 57
3, 70916, Note_on_c, 0, 60, 56
3, 70920, Note_on_c, 0, 65, 60
3, 70923, Note_on_c, 0, 57, 50
3, 70932, Note_on_c, 0, 48, 37
3, 71026, Control_c, 0, 64, 127
3, 71386, Note_on_c, 0, 69, 0
3, 71401, Note_on_c, 0, 72, 0
3, 71445, Note_on_c, 0, 48, 0
3, 71500, Note_on_c, 0, 60, 0
3, 71506, Note_on_c, 0, 57, 0
3, 71521, Note_on_c, 0, 65, 0
3, 71860, Control_c, 0, 64, 0
3, 71892, Note_on_c, 0, 69, 90
3, 71893, Note_on_c, 0, 49, 60
3, 71895, Note_on_c, 0, 64, 103
3, 71897, Note_on_c, 0, 57, 68
3, 72110, Control_c, 0, 64, 127
3, 72217, Note_on_c, 0, 67, 62
3, 72488, Note_on_c, 0, 64, 0
3, 72660, Note_on_c, 0, 49, 0
3, 72678, Note_on_c, 0, 69, 0
3, 72746, Note_on_c, 0, 57, 0
3, 72823, Note_on_c, 0, 67, 0
3, 72852, Control_c, 0, 64, 0
3, 72865, Note_on_c, 0, 64, 55
3, 72881, Note_on_c, 0, 65, 53
3, 72882, Note_on_c, 0, 57, 37
3, 72893, Note_on_c, 0, 50, 34
3, 73153, Control_c, 0, 64, 127
3, 73636, Note_on_c, 0, 57, 0
3, 73803, Control_c, 0, 64, 0
3, 73813, Note_on_c, 0, 64, 0
3, 73822, Note_on_c, 0, 62, 48
3, 73823, Note_on_c, 0, 60, 28
3, 73835, Note_on_c, 0, 57, 24
3, 73843, Note_on_c, 0, 65, 0
3, 73978, Control_c, 0, 64, 127
3, 74123, Note_on_c, 0, 65, 44
3, 74159, Note_on_c, 0, 60, 0
3, 74290, Note_on_c, 0, 57, 0
3, 74313, Note_on_c, 0, 62, 0
3, 74363, Note_on_c, 0, 50, 0
3, 74405, Note_on_c, 0, 65, 0
3, 74414, Note_on_c, 0, 67, 48
3, 74657, Note_on_c, 0, 67, 0
3, 74695, Control_c, 0, 64, 0
3, 74764, Note_on_c, 0, 46, 30
3, 74765, Note_on_c, 0, 68, 34
3, 74775, Note_on_c, 0, 56, 28
3, 74778, Note_on_c, 0, 65, 38
3, 74780, Note_on_c, 0, 62, 38
3, 74903, Note_on_c, 0, 62, 0
3, 74905, Note_on_c, 0, 56, 0
3, 74916, Note_on_c, 0, 46, 0
3, 74918, Note_on_c, 0, 65, 0
3, 74937, Note_on_c, 0, 68, 0
3, 75179, Control_c, 0, 64, 127
3, 75713, Control_c, 0, 64, 0
3, 75768, Note_on_c, 0, 74, 73
3, 75770, Note_on_c, 0, 56, 52
3, 75771, Note_on_c, 0, 47, 46
3, 75779, Note_on_c, 0, 62, 68
3, 75902, Note_on_c, 0, 62, 0
3, 75943, Note_on_c, 0, 74, 0
3, 76087, Note_on_c, 0, 72, 40
3, 76186, Note_on_c, 0, 72, 0
3, 76196, Note_on_c, 0, 47, 0
3, 76203, Note_on_c, 0, 56, 0
3, 76387, Note_on_c, 0, 65, 40
3, 76402, Note_on_c, 0, 47, 27
3, 76407, Note_on_c, 0, 56, 29
3, 76473, Note_on_c, 0, 65, 0
3, 76516, Note_on_c, 0, 47, 0
3, 76596, Note_on_c, 0, 56, 0
3, 76691, Note_on_c, 0, 74, 56
3, 76696, Note_on_c, 0, 62, 49
3, 76708, Note_on_c, 0, 48, 34
3, 76712, Note_on_c, 0, 57, 39
3, 76723, Note_on_c, 0, 73, 30
3, 76755, Note_on_c, 0, 73, 0
3, 76829, Note_on_c, 0, 74, 0
3, 76886, Note_on_c, 0, 62, 0
3, 77005, Note_on_c, 0, 72, 45
3, 77067, Note_on_c, 0, 48, 0
3, 77086, Note_on_c, 0, 72, 0
3, 77113, Note_on_c, 0, 57, 0
3, 77297, Control_c, 0, 64, 127
3, 77639, Control_c, 0, 64, 0
3, 77692, Note_on_c, 0, 70, 50
3, 77701, Note_on_c, 0, 61, 52
3, 77706, Note_on_c, 0, 49, 26
3, 77711, Note_on_c, 0, 58, 31
3, 77716, Note_on_c, 0, 64, 46
3, 77918, Note_on_c, 0, 70, 0
3, 77947, Note_on_c, 0, 61, 0
3, 77961, Note_on_c, 0, 58, 0
3, 77964, Note_on_c, 0, 64, 0
3, 77979, Note_on_c, 0, 49, 0
3, 77999, Note_on_c, 0, 69, 49
3, 78118, Note_on_c, 0, 69, 0
3, 78373, Control_c, 0, 64, 127
3, 78531, Control_c, 0, 64, 0
3, 78636, Note_on_c, 0, 60, 47
3, 78638, Note_on_c, 0, 67, 50
3, 78651, Note_on_c, 0, 65, 56
3, 78655, Note_on_c, 0, 57, 43
3, 78657, Control_c, 0, 64, 127
3, 78662, Note_on_c, 0, 50, 35
3, 78879, Note_on_c, 0, 65, 0
3, 79206, Note_on_c, 0, 65, 64
3, 79272, Note_on_c, 0, 50, 0
3, 79325, Note_on_c, 0, 57, 0
3, 79524, Note_on_c, 0, 60, 0
3, 79567, Note_on_c, 0, 65, 0
3, 79589, Note_on_c, 0, 67, 0
3, 79611, Control_c, 0, 64, 0
3, 79636, Note_on_c, 0, 62, 84
3, 79636, Note_on_c, 0, 65, 90
3, 79636, Note_on_c, 0, 70, 84
3, 79637, Note_on_c, 0, 34, 63
3, 79703, Control_c, 0, 64, 127
3, 80019, Note_on_c, 0, 34, 0
3, 80075, Note_on_c, 0, 62, 0
3, 80091, Note_on_c, 0, 65, 0
3, 80158, Note_on_c, 0, 70, 0
3, 80232, Note_on_c, 0, 36, 66
3, 80239, Note_on_c, 0, 24, 62
3, 80240, Note_on_c, 0, 60, 74
3, 80241, Note_on_c, 0, 69, 74
3, 80242, Note_on_c, 0, 65, 75
3, 80262, Control_c, 0, 64, 0
3, 80562, Control_c, 0, 64, 127
3, 81062, Note_on_c, 0, 60, 0
3, 81156, Note_on_c, 0, 65, 0
3, 81189, Note_on_c, 0, 69, 0
3, 81332, Note_on_c, 0, 36, 0
3, 81619, Note_on_c, 0, 69, 113
3, 81621, Control_c, 0, 64, 0
3, 81629, Note_on_c, 0, 36, 52
3, 81688, Control_c, 0, 64, 127
3, 81697, Note_on_c, 0, 24, 0
3, 81755, Note_on_c, 0, 36, 0
3, 81957, Note_on_c, 0, 69, 0
3, 82184, Note_on_c, 0, 72, 60
3, 82400, Note_on_c, 0, 72, 0
3, 82447, Control_c, 0, 64, 0
3, 82496, Note_on_c, 0, 64, 55
3, 82497, Note_on_c, 0, 69, 51
3, 82499, Note_on_c, 0, 59, 57
3, 82509, Note_on_c, 0, 53, 29
3, 82513, Note_on_c, 0, 43, 24
3, 82630, Control_c, 0, 64, 127
3, 82739, Note_on_c, 0, 59, 0
3, 82798, Note_on_c, 0, 64, 0
3, 82808, Note_on_c, 0, 72, 51
3, 82876, Note_on_c, 0, 53, 0
3, 82968, Note_on_c, 0, 72, 0
3, 83018, Note_on_c, 0, 69, 0
3, 83040, Note_on_c, 0, 43, 0
3, 83093, Note_on_c, 0, 60, 47
3, 83261, Note_on_c, 0, 60, 0
3, 83397, Control_c, 0, 64, 0
3, 83408, Note_on_c, 0, 48, 43
3, 83417, Note_on_c, 0, 58, 40
3, 83419, Note_on_c, 0, 68, 57
3, 83428, Note_on_c, 0, 62, 55
3, 83639, Control_c, 0, 64, 127
3, 83665, Note_on_c, 0, 68, 0
3, 83703, Note_on_c, 0, 62, 0
3, 83720, Note_on_c, 0, 67, 48
3, 83748, Note_on_c, 0, 58, 0
3, 83862, Note_on_c, 0, 48, 0
3, 83974, Note_on_c, 0, 67, 0
3, 84049, Note_on_c, 0, 62, 47
3, 84131, Note_on_c, 0, 62, 0
3, 84356, Control_c, 0, 64, 0
3, 84395, Note_on_c, 0, 41, 36
3, 84400, Note_on_c, 0, 57, 43
3, 84411, Note_on_c, 0, 65, 36
3, 84415, Note_on_c, 0, 53, 18
3, 84419, Note_on_c, 0, 48, 32
3, 84557, Note_on_c, 0, 57, 0
3, 84598, Control_c, 0, 64, 127
3, 84647, Note_on_c, 0, 65, 0
3, 85081, Note_on_c, 0, 80, 67
3, 85172, Note_on_c, 0, 80, 0
3, 85284, Note_on_c, 0, 53, 0
3, 85357, Control_c, 0, 64, 0
3, 85361, Note_on_c, 0, 41, 0
3, 85376, Note_on_c, 0, 80, 51
3, 85383, Note_on_c, 0, 53, 25
3, 85391, Note_on_c, 0, 45, 43
3, 85394, Note_on_c, 0, 48, 0
3, 85442, Note_on_c, 0, 81, 58
3, 85443, Note_on_c, 0, 80, 0
3, 85584, Note_on_c, 0, 81, 0
3, 85714, Note_on_c, 0, 84, 84
3, 85817, Note_on_c, 0, 84, 0
3, 85832, Control_c, 0, 64, 127
3, 85884, Note_on_c, 0, 53, 0
3, 85965, Note_on_c, 0, 45, 0
3, 86020, Note_on_c, 0, 86, 78
3, 86119, Note_on_c, 0, 86, 0
3, 86300, Control_c, 0, 64, 0
3, 86316, Note_on_c, 0, 84, 62
3, 86330, Note_on_c, 0, 48, 43
3, 86382, Note_on_c, 0, 84, 0
3, 86432, Note_on_c, 0, 48, 0
3, 86874, Note_on_c, 0, 60, 29
3, 87016, Note_on_c, 0, 60, 0
3, 87053, Note_on_c, 0, 59, 39
3, 87227, Note_on_c, 0, 59, 0
3, 87283, Note_on_c, 0, 58, 46
3, 87292, Note_on_c, 0, 48, 31
3, 87297, Note_on_c, 0, 36, 32
3, 87342, Control_c, 0, 64, 127
3, 87406, Note_on_c, 0, 58, 0
3, 87574, Note_on_c, 0, 36, 0
3, 87670, Note_on_c, 0, 48, 0
3, 87950, Note_on_c, 0, 48, 43
3, 87954, Note_on_c, 0, 68, 38
3, 87972, Note_on_c, 0, 64, 30
3, 87988, Note_on_c, 0, 58, 50
3, 88073, Note_on_c, 0, 68, 0
3, 88092, Note_on_c, 0, 64, 0
3, 88102, Note_on_c, 0, 48, 0
3, 88108, Note_on_c, 0, 58, 0
3, 88320, Note_on_c, 0, 41, 47
3, 88320, Note_on_c, 0, 65, 40
3, 88320, Note_on_c, 0, 57, 40
3, 88320, Note_on_c, 0, 48, 30
3, 88393, Control_c, 0, 64, 0
3, 88440, Note_on_c, 0, 48, 0
3, 88440, Note_on_c, 0, 57, 0
3, 88440, Note_on_c, 0, 65, 0
3, 88569, Note_on_c, 0, 41, 0
3, 88616, Control_c, 0, 64, 127
3, 88705, Note_on_c, 0, 60, 62
3, 88873, Note_on_c, 0, 60, 0
3, 89021, Note_on_c, 0, 65, 73
3, 89162, Note_on_c, 0, 65, 0
3, 89363, Note_on_c, 0, 62, 37
3, 89364, Note_on_c, 0, 69, 66
3, 89366, Note_on_c, 0, 60, 40
3, 89378, Control_c, 0, 64, 0
3, 89403, Note_on_c, 0, 62, 0
3, 89411, Note_on_c, 0, 60, 0
3, 89503, Control_c, 0, 64, 127
3, 89574, Note_on_c, 0, 69, 0
3, 89660, Note_on_c, 0, 72, 55
3, 89758, Note_on_c, 0, 72, 0
3, 89967, Note_on_c, 0, 74, 82
3, 90104, Note_on_c, 0, 74, 0
3, 90328, Note_on_c, 0, 72, 60
3, 90330, Note_on_c, 0, 48, 50
3, 90336, Note_on_c, 0, 67, 65
3, 90351, Note_on_c, 0, 58, 39
3, 90353, Note_on_c, 0, 62, 50
3, 90368, Control_c, 0, 64, 0
3, 90565, Control_c, 0, 64, 127
3, 90622, Note_on_c, 0, 48, 0
3, 90752, Note_on_c, 0, 58, 0
3, 90760, Note_on_c, 0, 62, 0
3, 90852, Note_on_c, 0, 67, 0
3, 90876, Note_on_c, 0, 72, 0
3, 91285, Control_c, 0, 64, 0
3, 91285, Note_on_c, 0, 58, 56
3, 91291, Note_on_c, 0, 68, 54
3, 91297, Note_on_c, 0, 74, 58
3, 91298, Note_on_c, 0, 64, 60
3, 91302, Note_on_c, 0, 70, 47
3, 91381, Note_on_c, 0, 58, 0
3, 91483, Control_c, 0, 64, 127
3, 91602, Note_on_c, 0, 68, 0
3, 91631, Note_on_c, 0, 74, 0
3, 91639, Note_on_c, 0, 70, 0
3, 91692, Note_on_c, 0, 64, 0
3, 91904, Note_on_c, 0, 65, 40
3, 91913, Note_on_c, 0, 60, 44
3, 92004, Note_on_c, 0, 60, 0
3, 92041, Note_on_c, 0, 65, 0
3, 92192, Control_c, 0, 64, 0
3, 92231, Note_on_c, 0, 48, 44
3, 92233, Note_on_c, 0, 41, 29
3, 92254, Note_on_c, 0, 57, 25
3, 92379, Control_c, 0, 64, 127
3, 92541, Note_on_c, 0, 41, 0
3, 92594, Note_on_c, 0, 48, 0
3, 92667, Note_on_c, 0, 57, 0
3, 93185, Note_on_c, 0, 62, 35
3, 93199, Note_on_c, 0, 72, 37
3, 93204, Note_on_c, 0, 57, 40
3, 93217, Note_on_c, 0, 60, 28
3, 93224, Control_c, 0, 64, 0
3, 93229, Note_on_c, 0, 53, 25
3, 93390, Control_c, 0, 64, 127
3, 93393, Note_on_c, 0, 60, 0
3, 93408, Note_on_c, 0, 62, 0
3, 93435, Note_on_c, 0, 57, 0
3, 93472, Note_on_c, 0, 72, 0
3, 93502, Note_on_c, 0, 53, 0
3, 93840, Note_on_c, 0, 43, 41
3, 94071, Note_on_c, 0, 43, 0
3, 94162, Control_c, 0, 64, 0
3, 94172, Note_on_c, 0, 36, 56
3, 94188, Note_on_c, 0, 48, 33
3, 94207, Note_on_c, 0, 72, 35
3, 94258, Note_on_c, 0, 73, 33
3, 94285, Note_on_c, 0, 36, 0
3, 94329, Note_on_c, 0, 72, 0
3, 94354, Note_on_c, 0, 48, 0
3, 94367, Note_on_c, 0, 73, 0
3, 94372, Note_on_c, 0, 74, 54
3, 94495, Note_on_c, 0, 74, 0
3, 94547, Note_on_c, 0, 77, 81
3, 94551, Note_on_c, 0, 65, 82
3, 94568, Control_c, 0, 64, 127
3, 94730, Note_on_c, 0, 65, 0
3, 94784, Note_on_c, 0, 77, 0
3, 95059, Control_c, 0, 64, 0
3, 95078, Note_on_c, 0, 62, 32
3, 95079, Note_on_c, 0, 52, 34
3, 95082, Note_on_c, 0, 58, 43
3, 95083, Note_on_c, 0, 77, 66
3, 95087, Note_on_c, 0, 65, 60
3, 95116, Note_on_c, 0, 62, 0
3, 95159, Note_on_c, 0, 58, 0
3, 95185, Note_on_c, 0, 52, 0
3, 95258, Note_on_c, 0, 65, 0
3, 95311, Note_on_c, 0, 77, 0
3, 95411, Note_on_c, 0, 74, 22
3, 95527, Note_on_c, 0, 74, 0
3, 95540, Control_c, 0, 64, 127
3, 95687, Note_on_c, 0, 77, 63
3, 95700, Note_on_c, 0, 65, 53
3, 95774, Note_on_c, 0, 65, 0
3, 95788, Note_on_c, 0, 77, 0
3, 95958, Control_c, 0, 64, 0
3, 96000, Note_on_c, 0, 57, 50
3, 96008, Note_on_c, 0, 48, 39
3, 96009, Note_on_c, 0, 41, 27
3, 96136, Control_c, 0, 64, 127
3, 96196, Note_on_c, 0, 57, 0
3, 96232, Note_on_c, 0, 41, 0
3, 96280, Note_on_c, 0, 48, 0
3, 96324, Note_on_c, 0, 60, 55
3, 96461, Note_on_c, 0, 60, 0
3, 96611, Note_on_c, 0, 62, 68
3, 96740, Note_on_c, 0, 62, 0
3, 96922, Note_on_c, 0, 63, 50
3, 96936, Note_on_c, 0, 65, 55
3, 96944, Note_on_c, 0, 57, 37
3, 96948, Control_c, 0, 64, 0
3, 97003, Note_on_c, 0, 63, 0
3, 97007, Note_on_c, 0, 57, 0
3, 97028, Note_on_c, 0, 65, 0
3, 97229, Note_on_c, 0, 69, 48
3, 97314, Note_on_c, 0, 69, 0
3, 97544, Note_on_c, 0, 68, 75
3, 97553, Note_on_c, 0, 74, 71
3, 97564, Note_on_c, 0, 64, 66
3, 97573, Note_on_c, 0, 58, 51
3, 97626, Control_c, 0, 64, 127
3, 97731, Note_on_c, 0, 74, 0
3, 97789, Note_on_c, 0, 64, 0
3, 97803, Control_c, 0, 64, 0
3, 97828, Note_on_c, 0, 68, 0
3, 97834, Note_on_c, 0, 58, 0
3, 97877, Note_on_c, 0, 72, 55
3, 97886, Note_on_c, 0, 67, 58
3, 97895, Note_on_c, 0, 57, 51
3, 97899, Note_on_c, 0, 62, 37
3, 98033, Control_c, 0, 64, 127
3, 98518, Note_on_c, 0, 62, 0
3, 98621, Note_on_c, 0, 57, 0
3, 98649, Note_on_c, 0, 72, 0
3, 98652, Note_on_c, 0, 67, 0
3, 98885, Note_on_c, 0, 74, 62
3, 98887, Control_c, 0, 64, 0
3, 98890, Note_on_c, 0, 65, 61
3, 98891, Note_on_c, 0, 69, 68
3, 98930, Note_on_c, 0, 65, 0
3, 98936, Note_on_c, 0, 69, 0
3, 98970, Note_on_c, 0, 74, 0
3, 99241, Control_c, 0, 64, 127
3, 99511, Note_on_c, 0, 48, 43
3, 99867, Control_c, 0, 64, 0
3, 99882, Note_on_c, 0, 60, 42
3, 99886, Note_on_c, 0, 65, 53
3, 99891, Note_on_c, 0, 41, 34
3, 99896, Note_on_c, 0, 62, 36
3, 99898, Note_on_c, 0, 53, 24
3, 100078, Control_c, 0, 64, 127
3, 100252, Note_on_c, 0, 48, 0
3, 100288, Note_on_c, 0, 53, 0
3, 100459, Note_on_c, 0, 65, 0
3, 100484, Note_on_c, 0, 62, 0
3, 100489, Note_on_c, 0, 60, 0
3, 100515, Note_on_c, 0, 48, 30
3, 100775, Note_on_c, 0, 48, 0
3, 100839, Control_c, 0, 64, 0
3, 100844, Note_on_c, 0, 64, 50
3, 100858, Note_on_c, 0, 60, 42
3, 100862, Note_on_c, 0, 55, 31
3, 100879, Note_on_c, 0, 53, 24
3, 100941, Note_on_c, 0, 53, 0
3, 101042, Note_on_c, 0, 41, 0
3, 101058, Control_c, 0, 64, 127
3, 101229, Note_on_c, 0, 64, 0
3, 101249, Note_on_c, 0, 55, 0
3, 101317, Note_on_c, 0, 60, 0
3, 101465, Note_on_c, 0, 55, 34
3, 101474, Note_on_c, 0, 63, 32
3, 101478, Note_on_c, 0, 29, 29
3, 101484, Control_c, 0, 64, 0
3, 101486, Note_on_c, 0, 41, 33
3, 101487, Note_on_c, 0, 58, 48
3, 101870, Control_c, 0, 64, 127
3, 102064, Note_on_c, 0, 29, 0
3, 102198, Note_on_c, 0, 29, 40
3, 102300, Note_on_c, 0, 29, 0
3, 102352, Note_on_c, 0, 41, 0
3, 102422, Note_on_c, 0, 55, 0
3, 102486, Note_on_c, 0, 29, 37
3, 102495, Note_on_c, 0, 58, 0
3, 102548, Note_on_c, 0, 63, 0
3, 102612, Note_on_c, 0, 29, 0
3, 102789, Control_c, 0, 64, 0
3, 102802, Note_on_c, 0, 63, 71
3, 102804, Note_on_c, 0, 66, 62
3, 102805, Note_on_c, 0, 57, 74
3, 102812, Note_on_c, 0, 47, 54
3, 102861, Note_on_c, 0, 57, 0
3, 102891, Note_on_c, 0, 66, 0
3, 102915, Note_on_c, 0, 63, 0
3, 103088, Note_on_c, 0, 35, 51
3, 103112, Control_c, 0, 64, 127
3, 103118, Note_on_c, 0, 47, 0
3, 103196, Note_on_c, 0, 35, 0
3, 103340, Control_c, 0, 64, 0
3, 103410, Note_on_c, 0, 65, 48
3, 103414, Note_on_c, 0, 62, 48
3, 103419, Note_on_c, 0, 56, 54
3, 103424, Note_on_c, 0, 34, 51
3, 103425, Note_on_c, 0, 46, 43
3, 103591, Control_c, 0, 64, 127
3, 103718, Note_on_c, 0, 56, 0
3, 103809, Note_on_c, 0, 34, 0
3, 103836, Note_on_c, 0, 62, 0
3, 103870, Note_on_c, 0, 46, 0
3, 103934, Note_on_c, 0, 65, 0
3, 104105, Note_on_c, 0, 65, 51
3, 104210, Note_on_c, 0, 65, 0
3, 104382, Note_on_c, 0, 70, 83
3, 104499, Note_on_c, 0, 70, 0
3, 104665, Control_c, 0, 64, 0
3, 104675, Note_on_c, 0, 67, 54
3, 104678, Note_on_c, 0, 56, 54
3, 104680, Note_on_c, 0, 74, 84
3, 104689, Note_on_c, 0, 62, 45
3, 104767, Note_on_c, 0, 67, 0
3, 104813, Note_on_c, 0, 56, 0
3, 104835, Note_on_c, 0, 62, 0
3, 104890, Note_on_c, 0, 74, 0
3, 104895, Control_c, 0, 64, 127
3, 104989, Note_on_c, 0, 77, 53
3, 105069, Note_on_c, 0, 77, 0
3, 105302, Note_on_c, 0, 79, 73
3, 105410, Note_on_c, 0, 79, 0
3, 105603, Control_c, 0, 64, 0
3, 105617, Note_on_c, 0, 77, 64
3, 105628, Note_on_c, 0, 46, 42
3, 105631, Note_on_c, 0, 56, 37
3, 105637, Note_on_c, 0, 65, 46
3, 105791, Control_c, 0, 64, 127
3, 105904, Note_on_c, 0, 46, 0
3, 105955, Note_on_c, 0, 56, 0
3, 106119, Note_on_c, 0, 65, 0
3, 106197, Note_on_c, 0, 77, 0
3, 106572, Control_c, 0, 64, 0
3, 106576, Note_on_c, 0, 79, 56
3, 106581, Note_on_c, 0, 56, 51
3, 106585, Note_on_c, 0, 62, 38
3, 106589, Note_on_c, 0, 74, 51
3, 106594, Note_on_c, 0, 67, 37
3, 106811, Control_c, 0, 64, 127
3, 106921, Note_on_c, 0, 62, 0
3, 106953, Note_on_c, 0, 79, 0
3, 107018, Note_on_c, 0, 74, 0
3, 107036, Note_on_c, 0, 56, 0
3, 107098, Note_on_c, 0, 67, 0
3, 107549, Note_on_c, 0, 70, 44
3, 107552, Control_c, 0, 64, 0
3, 107567, Note_on_c, 0, 65, 40
3, 107570, Note_on_c, 0, 62, 25
3, 107571, Note_on_c, 0, 56, 34
3, 107574, Note_on_c, 0, 46, 33
3, 107948, Control_c, 0, 64, 127
3, 108256, Note_on_c, 0, 56, 0
3, 108317, Note_on_c, 0, 62, 0
3, 108479, Note_on_c, 0, 62, 30
3, 108494, Note_on_c, 0, 56, 30
3, 108500, Note_on_c, 0, 65, 0
3, 108520, Note_on_c, 0, 70, 0
3, 108587, Note_on_c, 0, 62, 0
3, 108708, Note_on_c, 0, 46, 0
3, 108745, Note_on_c, 0, 56, 0
3, 109043, Control_c, 0, 64, 0
3, 109099, Note_on_c, 0, 74, 66
3, 109102, Note_on_c, 0, 71, 63
3, 109104, Note_on_c, 0, 47, 63
3, 109105, Note_on_c, 0, 56, 70
3, 109107, Note_on_c, 0, 62, 68
3, 109113, Note_on_c, 0, 68, 55
3, 109136, Note_on_c, 0, 72, 40
3, 109181, Note_on_c, 0, 72, 0
3, 109297, Note_on_c, 0, 62, 0
3, 109323, Note_on_c, 0, 56, 0
3, 109336, Note_on_c, 0, 47, 0
3, 109337, Note_on_c, 0, 74, 0
3, 109345, Note_on_c, 0, 71, 0
3, 109347, Note_on_c, 0, 68, 0
3, 110082, Note_on_c, 0, 46, 47
3, 110098, Note_on_c, 0, 68, 69
3, 110099, Note_on_c, 0, 62, 77
3, 110103, Note_on_c, 0, 74, 68
3, 110110, Note_on_c, 0, 71, 56
3, 110114, Note_on_c, 0, 56, 61
3, 110140, Note_on_c, 0, 72, 30
3, 110178, Note_on_c, 0, 72, 0
3, 110221, Note_on_c, 0, 46, 0
3, 110258, Note_on_c, 0, 47, 28
3, 110403, Note_on_c, 0, 62, 0
3, 110427, Note_on_c, 0, 74, 0
3, 110435, Note_on_c, 0, 56, 0
3, 110437, Note_on_c, 0, 71, 0
3, 110479, Note_on_c, 0, 72, 39
3, 110497, Note_on_c, 0, 56, 57
3, 110500, Note_on_c, 0, 62, 52
3, 110544, Control_c, 0, 64, 127
3, 110936, Note_on_c, 0, 47, 0
3, 111063, Note_on_c, 0, 68, 0
3, 111081, Note_on_c, 0, 47, 34
3, 111112, Note_on_c, 0, 62, 0
3, 111213, Note_on_c, 0, 72, 0
3, 111237, Note_on_c, 0, 47, 0
3, 111341, Note_on_c, 0, 56, 0
3, 111399, Control_c, 0, 64, 0
3, 111442, Note_on_c, 0, 57, 50
3, 111448, Note_on_c, 0, 65, 45
3, 111449, Note_on_c, 0, 60, 38
3, 111451, Note_on_c, 0, 48, 37
3, 111458, Note_on_c, 0, 69, 40
3, 111462, Note_on_c, 0, 72, 31
3, 111605, Note_on_c, 0, 60, 0
3, 111697, Note_on_c, 0, 72, 0
3, 111734, Note_on_c, 0, 69, 0
3, 111738, Note_on_c, 0, 65, 0
3, 111746, Note_on_c, 0, 60, 56
3, 111918, Note_on_c, 0, 60, 0
3, 111986, Note_on_c, 0, 57, 0
3, 112005, Control_c, 0, 64, 127
3, 112057, Note_on_c, 0, 65, 81
3, 112257, Note_on_c, 0, 65, 0
3, 112298, Control_c, 0, 64, 0
3, 112373, Note_on_c, 0, 69, 75
3, 112384, Note_on_c, 0, 57, 52
3, 112475, Control_c, 0, 64, 127
3, 112641, Note_on_c, 0, 69, 0
3, 112675, Note_on_c, 0, 72, 52
3, 112718, Note_on_c, 0, 57, 0
3, 112794, Note_on_c, 0, 72, 0
3, 112858, Note_on_c, 0, 48, 0
3, 112993, Note_on_c, 0, 74, 74
3, 113117, Note_on_c, 0, 74, 0
3, 113309, Control_c, 0, 64, 0
3, 113321, Note_on_c, 0, 46, 60
3, 113322, Note_on_c, 0, 72, 55
3, 113325, Note_on_c, 0, 60, 55
3, 113328, Note_on_c, 0, 55, 47
3, 113590, Control_c, 0, 64, 127
3, 113824, Note_on_c, 0, 55, 0
3, 113941, Note_on_c, 0, 60, 0
3, 114287, Note_on_c, 0, 55, 30
3, 114290, Control_c, 0, 64, 0
3, 114403, Note_on_c, 0, 72, 0
3, 114445, Control_c, 0, 64, 127
3, 114638, Note_on_c, 0, 46, 0
3, 114850, Note_on_c, 0, 55, 0
3, 114905, Note_on_c, 0, 74, 64
3, 114912, Note_on_c, 0, 46, 42
3, 114987, Note_on_c, 0, 74, 0
3, 115146, Note_on_c, 0, 46, 0
3, 115205, Control_c, 0, 64, 0
3, 115263, Note_on_c, 0, 45, 48
3, 115280, Note_on_c, 0, 55, 28
3, 115281, Note_on_c, 0, 60, 33
3, 115284, Note_on_c, 0, 65, 51
3, 115426, Control_c, 0, 64, 127
3, 115514, Note_on_c, 0, 45, 0
3, 115588, Note_on_c, 0, 55, 0
3, 115607, Note_on_c, 0, 60, 0
3, 115786, Note_on_c, 0, 65, 0
3, 116208, Note_on_c, 0, 63, 50
3, 116217, Control_c, 0, 64, 0
3, 116225, Note_on_c, 0, 55, 38
3, 116240, Note_on_c, 0, 60, 33
3, 116261, Note_on_c, 0, 57, 36
3, 116405, Control_c, 0, 64, 127
3, 116728, Note_on_c, 0, 55, 0
3, 116739, Note_on_c, 0, 57, 0
3, 116745, Note_on_c, 0, 63, 0
3, 116829, Note_on_c, 0, 82, 83
3, 116834, Note_on_c, 0, 86, 79
3, 116840, Note_on_c, 0, 74, 80
3, 116848, Note_on_c, 0, 60, 0
3, 117061, Control_c, 0, 64, 0
3, 117081, Note_on_c, 0, 86, 0
3, 117112, Note_on_c, 0, 82, 0
3, 117118, Note_on_c, 0, 65, 53
3, 117121, Note_on_c, 0, 60, 34
3, 117125, Note_on_c, 0, 54, 43
3, 117259, Control_c, 0, 64, 127
3, 117329, Note_on_c, 0, 74, 0
3, 117425, Note_on_c, 0, 82, 61
3, 117437, Note_on_c, 0, 77, 65
3, 117440, Note_on_c, 0, 65, 0
3, 117444, Note_on_c, 0, 60, 0
3, 117549, Note_on_c, 0, 54, 0
3, 117596, Note_on_c, 0, 82, 0
3, 117613, Note_on_c, 0, 77, 0
3, 117726, Note_on_c, 0, 69, 51
3, 117994, Note_on_c, 0, 69, 0
3, 118031, Control_c, 0, 64, 0
3, 118047, Note_on_c, 0, 73, 36
3, 118055, Note_on_c, 0, 60, 30
3, 118065, Note_on_c, 0, 50, 27
3, 118074, Note_on_c, 0, 77, 28
3, 118075, Note_on_c, 0, 54, 33
3, 118202, Note_on_c, 0, 60, 0
3, 118281, Control_c, 0, 64, 127
3, 118288, Note_on_c, 0, 77, 0
3, 118294, Note_on_c, 0, 54, 0
3, 118299, Note_on_c, 0, 50, 0
3, 118353, Note_on_c, 0, 73, 0
3, 118369, Note_on_c, 0, 74, 51
3, 118398, Note_on_c, 0, 77, 22
3, 118524, Note_on_c, 0, 77, 0
3, 118602, Note_on_c, 0, 74, 0
3, 118687, Note_on_c, 0, 65, 35
3, 118688, Note_on_c, 0, 44, 36
3, 118902, Note_on_c, 0, 65, 0
3, 118927, Note_on_c, 0, 44, 0
3, 119011, Control_c, 0, 64, 0
3, 119027, Note_on_c, 0, 43, 46
3, 119303, Control_c, 0, 64, 127
3, 119352, Note_on_c, 0, 77, 71
3, 119387, Note_on_c, 0, 43, 0
3, 119490, Note_on_c, 0, 77, 0
3, 119960, Control_c, 0, 64, 0
3, 119978, Note_on_c, 0, 75, 77
3, 119979, Note_on_c, 0, 58, 53
3, 119987, Note_on_c, 0, 55, 33
3, 119990, Note_on_c, 0, 62, 33
3, 120025, Note_on_c, 0, 62, 0
3, 120050, Note_on_c, 0, 55, 0
3, 120071, Note_on_c, 0, 58, 0
3, 120127, Note_on_c, 0, 75, 0
3, 120283, Note_on_c, 0, 72, 46
3, 120371, Note_on_c, 0, 72, 0
3, 120642, Note_on_c, 0, 50, 56
3, 120651, Note_on_c, 0, 65, 64
3, 120657, Note_on_c, 0, 72, 48
3, 120846, Note_on_c, 0, 72, 0
3, 120847, Note_on_c, 0, 65, 0
3, 120853, Note_on_c, 0, 50, 0
3, 121255, Note_on_c, 0, 43, 48
3, 121445, Note_on_c, 0, 43, 0
3, 121565, Note_on_c, 0, 38, 63
3, 121792, Note_on_c, 0, 38, 0
3, 121885, Note_on_c, 0, 31, 56
3, 122100, Note_on_c, 0, 31, 0
3, 122150, Note_on_c, 0, 25, 64
3, 122373, Note_on_c, 0, 25, 0
3, 122475, Note_on_c, 0, 24, 80
3, 122712, Control_c, 0, 64, 127
3, 122968, Note_on_c, 0, 24, 0
3, 123259, Note_on_c, 0, 77, 91
3, 123466, Note_on_c, 0, 77, 0
3, 123569, Note_on_c, 0, 75, 76
3, 123794, Note_on_c, 0, 75, 0
3, 123869, Control_c, 0, 64, 0
3, 123875, Note_on_c, 0, 64, 45
3, 123883, Note_on_c, 0, 72, 47
3, 123895, Note_on_c, 0, 58, 46
3, 123977, Note_on_c, 0, 64, 0
3, 124076, Note_on_c, 0, 58, 0
3, 124127, Note_on_c, 0, 72, 0
3, 124150, Control_c, 0, 64, 127
3, 124185, Note_on_c, 0, 75, 55
3, 124369, Note_on_c, 0, 75, 0
3, 124492, Note_on_c, 0, 72, 46
3, 124613, Note_on_c, 0, 72, 0
3, 124796, Control_c, 0, 64, 0
3, 124825, Note_on_c, 0, 58, 49
3, 124841, Note_on_c, 0, 48, 31
3, 124842, Note_on_c, 0, 75, 62
3, 124937, Note_on_c, 0, 58, 0
3, 124994, Note_on_c, 0, 48, 0
3, 125004, Control_c, 0, 64, 127
3, 125087, Note_on_c, 0, 75, 0
3, 125129, Note_on_c, 0, 77, 49
3, 125290, Note_on_c, 0, 77, 0
3, 125291, Note_on_c, 0, 75, 37
3, 125456, Note_on_c, 0, 72, 30
3, 125466, Note_on_c, 0, 75, 0
3, 125681, Note_on_c, 0, 72, 0
3, 125703, Control_c, 0, 64, 0
3, 125735, Note_on_c, 0, 42, 43
3, 125740, Note_on_c, 0, 76, 64
3, 125755, Note_on_c, 0, 52, 26
3, 125929, Note_on_c, 0, 42, 0
3, 125933, Control_c, 0, 64, 127
3, 125950, Note_on_c, 0, 52, 0
3, 126301, Note_on_c, 0, 76, 0
3, 126406, Note_on_c, 0, 77, 66
3, 126418, Note_on_c, 0, 65, 58
3, 126642, Control_c, 0, 64, 0
3, 126722, Note_on_c, 0, 41, 41
3, 126739, Note_on_c, 0, 57, 49
3, 126742, Note_on_c, 0, 48, 36
3, 126871, Control_c, 0, 64, 127
3, 127326, Note_on_c, 0, 57, 0
3, 127339, Note_on_c, 0, 41, 0
3, 127422, Note_on_c, 0, 48, 0
3, 127497, Note_on_c, 0, 77, 0
3, 127521, Note_on_c, 0, 65, 0
3, 127775, Note_on_c, 0, 55, 66
3, 127788, Control_c, 0, 64, 0
3, 127790, Note_on_c, 0, 39, 33
3, 127996, Control_c, 0, 64, 127
3, 128385, Note_on_c, 0, 45, 51
3, 128489, Note_on_c, 0, 39, 0
3, 128591, Control_c, 0, 64, 0
3, 128619, Note_on_c, 0, 45, 0
3, 128635, Note_on_c, 0, 55, 0
3, 128687, Note_on_c, 0, 54, 47
3, 128702, Note_on_c, 0, 38, 46
3, 128800, Control_c, 0, 64, 127
3, 128908, Note_on_c, 0, 54, 0
3, 129004, Note_on_c, 0, 38, 0
3, 129663, Note_on_c, 0, 54, 45
3, 129664, Note_on_c, 0, 65, 46
3, 129676, Note_on_c, 0, 60, 41
3, 129688, Control_c, 0, 64, 0
3, 129887, Control_c, 0, 64, 127
3, 129959, Note_on_c, 0, 72, 57
3, 130082, Note_on_c, 0, 72, 0
3, 130260, Note_on_c, 0, 60, 0
3, 130265, Note_on_c, 0, 65, 0
3, 130269, Note_on_c, 0, 77, 84
3, 130502, Note_on_c, 0, 54, 0
3, 130509, Note_on_c, 0, 77, 0
3, 130564, Control_c, 0, 64, 0
3, 130596, Note_on_c, 0, 64, 49
3, 130604, Note_on_c, 0, 81, 67
3, 130607, Note_on_c, 0, 59, 42
3, 130615, Note_on_c, 0, 53, 30
3, 130616, Note_on_c, 0, 69, 47
3, 130783, Control_c, 0, 64, 127
3, 130848, Note_on_c, 0, 64, 0
3, 130908, Note_on_c, 0, 59, 0
3, 130917, Note_on_c, 0, 81, 0
3, 130954, Note_on_c, 0, 77, 35
3, 130965, Note_on_c, 0, 69, 0
3, 130974, Note_on_c, 0, 53, 0
3, 131037, Note_on_c, 0, 77, 0
3, 131244, Note_on_c, 0, 68, 72
3, 131249, Note_on_c, 0, 80, 62
3, 131260, Note_on_c, 0, 74, 60
3, 131263, Note_on_c, 0, 77, 53
3, 131481, Control_c, 0, 64, 0
3, 131532, Note_on_c, 0, 43, 29
3, 131539, Note_on_c, 0, 53, 33
3, 131618, Note_on_c, 0, 43, 0
3, 131679, Control_c, 0, 64, 127
3, 131715, Note_on_c, 0, 53, 0
3, 131723, Note_on_c, 0, 77, 0
3, 131741, Note_on_c, 0, 74, 0
3, 131821, Note_on_c, 0, 80, 0
3, 131843, Note_on_c, 0, 68, 0
3, 131887, Note_on_c, 0, 76, 38
3, 132037, Note_on_c, 0, 76, 0
3, 132199, Note_on_c, 0, 67, 46
3, 132214, Note_on_c, 0, 79, 36
3, 132413, Note_on_c, 0, 67, 0
3, 132430, Control_c, 0, 64, 0
3, 132509, Note_on_c, 0, 36, 37
3, 132534, Note_on_c, 0, 52, 32
3, 132639, Control_c, 0, 64, 127
3, 132697, Note_on_c, 0, 79, 0
3, 132742, Note_on_c, 0, 36, 0
3, 132847, Note_on_c, 0, 72, 44
3, 132929, Note_on_c, 0, 52, 0
3, 133036, Note_on_c, 0, 72, 0
3, 133173, Note_on_c, 0, 74, 61
3, 133272, Note_on_c, 0, 74, 0
3, 133497, Note_on_c, 0, 67, 34
3, 133498, Note_on_c, 0, 80, 71
3, 133498, Note_on_c, 0, 63, 42
3, 133502, Note_on_c, 0, 86, 66
3, 133513, Control_c, 0, 64, 0
3, 133541, Note_on_c, 0, 67, 0
3, 133619, Note_on_c, 0, 63, 0
3, 133628, Note_on_c, 0, 80, 0
3, 133629, Note_on_c, 0, 81, 45
3, 133705, Note_on_c, 0, 86, 0
3, 133719, Note_on_c, 0, 81, 0
3, 133829, Note_on_c, 0, 86, 54
3, 133830, Note_on_c, 0, 80, 60
3, 133969, Note_on_c, 0, 80, 0
3, 133980, Note_on_c, 0, 81, 48
3, 134098, Control_c, 0, 64, 127
3, 134099, Note_on_c, 0, 81, 0
3, 134120, Note_on_c, 0, 86, 0
3, 134140, Note_on_c, 0, 77, 48
3, 134237, Note_on_c, 0, 77, 0
3, 134301, Note_on_c, 0, 74, 50
3, 134347, Control_c, 0, 64, 0
3, 134375, Note_on_c, 0, 74, 0
3, 134426, Note_on_c, 0, 41, 40
3, 134443, Note_on_c, 0, 77, 55
3, 134459, Note_on_c, 0, 57, 34
3, 134481, Note_on_c, 0, 48, 30
3, 134577, Control_c, 0, 64, 127
3, 134628, Note_on_c, 0, 77, 0
3, 134641, Note_on_c, 0, 79, 57
3, 134642, Note_on_c, 0, 41, 0
3, 134674, Note_on_c, 0, 48, 0
3, 134718, Note_on_c, 0, 57, 0
3, 134779, Note_on_c, 0, 77, 56
3, 134808, Note_on_c, 0, 79, 0
3, 134892, Note_on_c, 0, 77, 0
3, 134928, Note_on_c, 0, 74, 51
3, 134970, Note_on_c, 0, 74, 0
3, 135072, Note_on_c, 0, 77, 69
3, 135386, Note_on_c, 0, 77, 0
3, 135401, Control_c, 0, 64, 0
3, 135424, Note_on_c, 0, 63, 44
3, 135437, Note_on_c, 0, 67, 38
3, 135438, Note_on_c, 0, 62, 37
3, 135460, Note_on_c, 0, 57, 40
3, 135557, Control_c, 0, 64, 127
3, 136135, Note_on_c, 0, 62, 0
3, 136138, Note_on_c, 0, 63, 0
3, 136166, Note_on_c, 0, 67, 0
3, 136281, Note_on_c, 0, 57, 0
3, 136434, Control_c, 0, 64, 0
3, 136435, Note_on_c, 0, 63, 34
3, 136436, Note_on_c, 0, 57, 32
3, 136448, Note_on_c, 0, 67, 35
3, 136449, Note_on_c, 0, 62, 40
3, 136569, Control_c, 0, 64, 127
3, 136612, Note_on_c, 0, 67, 0
3, 136641, Note_on_c, 0, 62, 0
3, 136643, Note_on_c, 0, 63, 0
3, 136721, Note_on_c, 0, 57, 0
3, 137084, Note_on_c, 0, 43, 17
3, 137193, Note_on_c, 0, 43, 0
3, 137412, Control_c, 0, 64, 0
3, 137413, Note_on_c, 0, 47, 40
3, 137414, Note_on_c, 0, 62, 46
3, 137416, Note_on_c, 0, 66, 44
3, 137423, Note_on_c, 0, 57, 46
3, 137652, Note_on_c, 0, 47, 0
3, 137670, Note_on_c, 0, 57, 0
3, 137767, Control_c, 0, 64, 127
3, 137787, Note_on_c, 0, 66, 0
3, 137883, Note_on_c, 0, 62, 0
3, 138067, Note_on_c, 0, 56, 36
3, 138075, Note_on_c, 0, 62, 35
3, 138078, Note_on_c, 0, 65, 37
3, 138081, Control_c, 0, 64, 0
3, 138084, Note_on_c, 0, 34, 31
3, 138106, Note_on_c, 0, 46, 19
3, 138360, Note_on_c, 0, 56, 0
3, 138383, Control_c, 0, 64, 127
3, 138435, Note_on_c, 0, 65, 0
3, 138438, Note_on_c, 0, 62, 0
3, 138494, Note_on_c, 0, 34, 0
3, 138556, Note_on_c, 0, 46, 0
3, 138821, Note_on_c, 0, 65, 37
3, 138909, Note_on_c, 0, 65, 0
3, 139096, Note_on_c, 0, 70, 71
3, 139180, Note_on_c, 0, 70, 0
3, 139351, Control_c, 0, 64, 0
3, 139394, Note_on_c, 0, 56, 45
3, 139395, Note_on_c, 0, 74, 69
3, 139400, Note_on_c, 0, 67, 36
3, 139420, Note_on_c, 0, 62, 32
3, 139459, Note_on_c, 0, 67, 0
3, 139472, Note_on_c, 0, 62, 0
3, 139504, Note_on_c, 0, 74, 0
3, 139523, Note_on_c, 0, 56, 0
3, 139667, Note_on_c, 0, 77, 63
3, 139769, Note_on_c, 0, 77, 0
3, 139935, Note_on_c, 0, 80, 69
3, 139946, Control_c, 0, 64, 127
3, 140055, Note_on_c, 0, 80, 0
3, 140186, Control_c, 0, 64, 0
3, 140249, Note_on_c, 0, 47, 46
3, 140249, Note_on_c, 0, 56, 65
3, 140249, Note_on_c, 0, 74, 45
3, 140249, Note_on_c, 0, 76, 56
3, 140278, Note_on_c, 0, 88, 76
3, 140296, Note_on_c, 0, 74, 0
3, 140477, Control_c, 0, 64, 127
3, 140744, Note_on_c, 0, 47, 0
3, 140826, Note_on_c, 0, 56, 0
3, 141209, Note_on_c, 0, 76, 0
3, 141209, Note_on_c, 0, 62, 40
3, 141213, Note_on_c, 0, 56, 45
3, 141229, Note_on_c, 0, 88, 0
3, 141235, Note_on_c, 0, 59, 47
3, 141238, Control_c, 0, 64, 0
3, 141405, Control_c, 0, 64, 127
3, 141578, Note_on_c, 0, 62, 0
3, 141657, Note_on_c, 0, 59, 0
3, 141705, Note_on_c, 0, 56, 0
3, 141843, Note_on_c, 0, 86, 77
3, 141853, Note_on_c, 0, 74, 77
3, 141929, Note_on_c, 0, 74, 0
3, 141969, Note_on_c, 0, 86, 0
3, 142135, Control_c, 0, 64, 0
3, 142176, Note_on_c, 0, 48, 36
3, 142179, Note_on_c, 0, 57, 46
3, 142189, Note_on_c, 0, 81, 69
3, 142211, Note_on_c, 0, 72, 44
3, 142364, Note_on_c, 0, 81, 0
3, 142430, Note_on_c, 0, 72, 0
3, 142460, Note_on_c, 0, 84, 47
3, 142529, Note_on_c, 0, 81, 40
3, 142617, Note_on_c, 0, 57, 0
3, 142624, Note_on_c, 0, 77, 48
3, 142666, Control_c, 0, 64, 127
3, 142679, Note_on_c, 0, 84, 0
3, 142692, Note_on_c, 0, 81, 0
3, 142753, Note_on_c, 0, 77, 0
3, 142771, Note_on_c, 0, 72, 55
3, 142947, Note_on_c, 0, 72, 0
3, 143042, Control_c, 0, 64, 0
3, 143076, Note_on_c, 0, 57, 44
3, 143080, Note_on_c, 0, 71, 70
3, 143082, Note_on_c, 0, 77, 65
3, 143240, Note_on_c, 0, 77, 0
3, 143294, Note_on_c, 0, 71, 0
3, 143372, Note_on_c, 0, 65, 36
3, 143541, Note_on_c, 0, 65, 0
3, 143642, Note_on_c, 0, 57, 0
3, 143646, Control_c, 0, 64, 127
3, 143677, Note_on_c, 0, 74, 62
3, 143679, Note_on_c, 0, 48, 0
3, 143683, Note_on_c, 0, 70, 71
3, 143844, Note_on_c, 0, 74, 0
3, 143854, Note_on_c, 0, 70, 0
3, 144032, Control_c, 0, 64, 0
3, 144038, Note_on_c, 0, 72, 38
3, 144049, Note_on_c, 0, 67, 59
3, 144061, Note_on_c, 0, 58, 31
3, 144272, Note_on_c, 0, 67, 0
3, 144318, Note_on_c, 0, 62, 45
3, 144349, Note_on_c, 0, 58, 0
3, 144451, Note_on_c, 0, 72, 0
3, 144567, Note_on_c, 0, 62, 0
3, 144643, Note_on_c, 0, 48, 49
3, 144644, Note_on_c, 0, 65, 28
3, 144647, Control_c, 0, 64, 127
3, 144764, Note_on_c, 0, 65, 0
3, 144800, Note_on_c, 0, 48, 0
3, 144959, Control_c, 0, 64, 0
3, 144978, Note_on_c, 0, 58, 59
3, 144981, Note_on_c, 0, 52, 57
3, 144983, Note_on_c, 0, 64, 58
3, 145170, Note_on_c, 0, 64, 0
3, 145192, Note_on_c, 0, 52, 0
3, 145199, Note_on_c, 0, 58, 0
3, 145310, Note_on_c, 0, 49, 25
3, 145520, Note_on_c, 0, 49, 0
3, 145590, Note_on_c, 0, 42, 53
3, 145890, Note_on_c, 0, 42, 0
3, 145942, Note_on_c, 0, 60, 44
3, 145943, Note_on_c, 0, 57, 53
3, 145945, Note_on_c, 0, 41, 49
3, 145953, Note_on_c, 0, 53, 31
3, 145971, Control_c, 0, 64, 127
3, 146153, Note_on_c, 0, 53, 0
3, 146247, Note_on_c, 0, 57, 0
3, 146295, Note_on_c, 0, 60, 0
3, 146297, Note_on_c, 0, 41, 0
3, 146933, Note_on_c, 0, 63, 51
3, 146940, Control_c, 0, 64, 0
3, 146944, Note_on_c, 0, 57, 51
3, 146947, Note_on_c, 0, 67, 44
3, 147117, Control_c, 0, 64, 127
3, 147425, Note_on_c, 0, 57, 0
3, 147538, Note_on_c, 0, 67, 0
3, 147575, Note_on_c, 0, 63, 0
3, 147911, Note_on_c, 0, 64, 40
3, 147919, Note_on_c, 0, 68, 49
3, 147939, Note_on_c, 0, 58, 46
3, 147942, Control_c, 0, 64, 0
3, 148350, Note_on_c, 0, 91, 83
3, 148514, Note_on_c, 0, 91, 0
3, 148566, Control_c, 0, 64, 127
3, 148576, Note_on_c, 0, 64, 0
3, 148584, Note_on_c, 0, 87, 71
3, 148712, Note_on_c, 0, 68, 0
3, 148745, Note_on_c, 0, 84, 62
3, 148801, Note_on_c, 0, 87, 0
3, 148827, Note_on_c, 0, 58, 0
3, 148865, Note_on_c, 0, 84, 0
3, 148893, Note_on_c, 0, 81, 49
3, 148910, Control_c, 0, 64, 0
3, 148916, Note_on_c, 0, 63, 34
3, 148921, Note_on_c, 0, 57, 40
3, 148929, Note_on_c, 0, 67, 19
3, 149012, Note_on_c, 0, 81, 0
3, 149051, Note_on_c, 0, 80, 44
3, 149168, Note_on_c, 0, 80, 0
3, 149178, Note_on_c, 0, 79, 48
3, 149229, Note_on_c, 0, 67, 0
3, 149244, Control_c, 0, 64, 127
3, 149285, Note_on_c, 0, 79, 0
3, 149298, Note_on_c, 0, 78, 46
3, 149307, Note_on_c, 0, 63, 0
3, 149357, Note_on_c, 0, 57, 0
3, 149413, Note_on_c, 0, 78, 0
3, 149431, Note_on_c, 0, 77, 39
3, 149495, Note_on_c, 0, 77, 0
3, 149530, Note_on_c, 0, 76, 43
3, 149594, Note_on_c, 0, 76, 0
3, 149642, Note_on_c, 0, 75, 37
3, 149677, Note_on_c, 0, 75, 0
3, 149728, Note_on_c, 0, 74, 39
3, 149820, Note_on_c, 0, 74, 0
3, 149846, Note_on_c, 0, 72, 41
3, 149850, Control_c, 0, 64, 0
3, 149932, Note_on_c, 0, 72, 0
3, 149953, Note_on_c, 0, 58, 36
3, 149954, Note_on_c, 0, 74, 54
3, 149956, Note_on_c, 0, 50, 37
3, 150098, Control_c, 0, 64, 127
3, 150158, Note_on_c, 0, 74, 0
3, 150169, Note_on_c, 0, 77, 60
3, 150219, Note_on_c, 0, 50, 0
3, 150251, Note_on_c, 0, 58, 0
3, 150327, Note_on_c, 0, 77, 0
3, 150361, Note_on_c, 0, 74, 63
3, 150441, Note_on_c, 0, 74, 0
3, 150575, Note_on_c, 0, 65, 38
3, 150640, Note_on_c, 0, 65, 0
3, 150895, Note_on_c, 0, 58, 47
3, 150895, Note_on_c, 0, 62, 24
3, 150895, Note_on_c, 0, 65, 47
3, 150975, Control_c, 0, 64, 0
3, 150985, Note_on_c, 0, 65, 0
3, 150992, Note_on_c, 0, 62, 0
3, 151068, Note_on_c, 0, 58, 0
3, 151136, Note_on_c, 0, 67, 51
3, 151223, Note_on_c, 0, 65, 39
3, 151240, Note_on_c, 0, 67, 0
3, 151318, Note_on_c, 0, 65, 0
3, 151332, Note_on_c, 0, 64, 32
3, 151379, Note_on_c, 0, 64, 0
3, 151447, Note_on_c, 0, 65, 63
3, 151704, Control_c, 0, 64, 127
3, 151854, Note_on_c, 0, 58, 39
3, 151872, Note_on_c, 0, 50, 32
3, 152151, Note_on_c, 0, 50, 0
3, 152218, Note_on_c, 0, 58, 0
3, 152834, Note_on_c, 0, 62, 40
3, 152852, Note_on_c, 0, 58, 38
3, 152964, Note_on_c, 0, 58, 0
3, 153401, Note_on_c, 0, 54, 30
3, 153472, Note_on_c, 0, 65, 0
3, 153606, Note_on_c, 0, 54, 0
3, 153705, Note_on_c, 0, 62, 0
3, 153712, Note_on_c, 0, 47, 37
3, 153723, Note_on_c, 0, 56, 35
3, 153945, Control_c, 0, 64, 127
3, 154051, Note_on_c, 0, 47, 0
3, 154114, Note_on_c, 0, 56, 0
3, 154587, Note_on_c, 0, 62, 38
3, 154613, Control_c, 0, 64, 0
3, 154614, Note_on_c, 0, 56, 37
3, 154636, Note_on_c, 0, 59, 25
3, 154677, Note_on_c, 0, 62, 0
3, 154700, Note_on_c, 0, 59, 0
3, 154758, Note_on_c, 0, 56, 0
3, 154908, Note_on_c, 0, 65, 58
3, 154989, Note_on_c, 0, 65, 0
3, 155023, Note_on_c, 0, 67, 50
3, 155115, Note_on_c, 0, 65, 49
3, 155141, Note_on_c, 0, 67, 0
3, 155259, Note_on_c, 0, 65, 0
3, 155583, Note_on_c, 0, 47, 32
3, 155584, Note_on_c, 0, 56, 30
3, 155585, Note_on_c, 0, 65, 51
3, 155681, Note_on_c, 0, 68, 33
3, 155710, Note_on_c, 0, 65, 0
3, 155764, Note_on_c, 0, 68, 0
3, 155858, Note_on_c, 0, 71, 56
3, 155946, Note_on_c, 0, 71, 0
3, 156018, Note_on_c, 0, 56, 0
3, 156034, Note_on_c, 0, 74, 58
3, 156100, Note_on_c, 0, 74, 0
3, 156211, Note_on_c, 0, 77, 66
3, 156295, Note_on_c, 0, 77, 0
3, 156419, Note_on_c, 0, 80, 61
3, 156454, Note_on_c, 0, 56, 33
3, 156496, Note_on_c, 0, 80, 0
3, 156696, Note_on_c, 0, 88, 84
3, 156827, Note_on_c, 0, 88, 0
3, 156990, Note_on_c, 0, 86, 74
3, 157052, Control_c, 0, 64, 127
3, 157083, Note_on_c, 0, 47, 0
3, 157114, Note_on_c, 0, 86, 0
3, 157131, Note_on_c, 0, 56, 0
3, 157231, Note_on_c, 0, 83, 61
3, 157271, Control_c, 0, 64, 0
3, 157342, Note_on_c, 0, 83, 0
3, 157351, Note_on_c, 0, 57, 35
3, 157357, Note_on_c, 0, 48, 30
3, 157445, Note_on_c, 0, 80, 42
3, 157585, Note_on_c, 0, 80, 0
3, 157650, Note_on_c, 0, 86, 71
3, 157776, Note_on_c, 0, 86, 0
3, 157863, Note_on_c, 0, 84, 68
3, 157871, Note_on_c, 0, 57, 0
3, 157980, Note_on_c, 0, 84, 0
3, 158056, Note_on_c, 0, 81, 67
3, 158158, Note_on_c, 0, 81, 0
3, 158233, Note_on_c, 0, 77, 58
3, 158276, Note_on_c, 0, 57, 33
3, 158419, Note_on_c, 0, 77, 0
3, 158452, Note_on_c, 0, 72, 40
3, 158566, Note_on_c, 0, 72, 0
3, 158574, Control_c, 0, 64, 127
3, 158701, Note_on_c, 0, 82, 62
3, 158768, Note_on_c, 0, 57, 0
3, 158830, Note_on_c, 0, 82, 0
3, 159051, Note_on_c, 0, 48, 0
3, 159077, Note_on_c, 0, 81, 70
3, 159231, Control_c, 0, 64, 0
3, 159240, Note_on_c, 0, 81, 0
3, 159301, Note_on_c, 0, 76, 58
3, 159360, Note_on_c, 0, 46, 30
3, 159458, Note_on_c, 0, 76, 0
3, 159500, Note_on_c, 0, 72, 47
3, 159628, Note_on_c, 0, 72, 0
3, 159637, Control_c, 0, 64, 127
3, 159708, Note_on_c, 0, 69, 53
3, 159850, Note_on_c, 0, 69, 0
3, 159924, Note_on_c, 0, 67, 40
3, 160055, Note_on_c, 0, 67, 0
3, 160195, Note_on_c, 0, 46, 37
3, 160210, Control_c, 0, 64, 0
3, 160281, Note_on_c, 0, 56, 30
3, 160303, Note_on_c, 0, 67, 50
3, 160320, Note_on_c, 0, 46, 0
3, 160324, Note_on_c, 0, 64, 50
3, 160408, Control_c, 0, 64, 127
3, 160892, Note_on_c, 0, 67, 0
3, 160895, Note_on_c, 0, 52, 33
3, 160979, Note_on_c, 0, 56, 0
3, 161029, Note_on_c, 0, 64, 0
3, 161157, Note_on_c, 0, 46, 0
3, 161170, Note_on_c, 0, 52, 0
3, 161222, Control_c, 0, 64, 0
3, 161233, Note_on_c, 0, 64, 48
3, 161241, Note_on_c, 0, 60, 33
3, 161252, Note_on_c, 0, 45, 43
3, 161261, Note_on_c, 0, 55, 29
3, 161409, Control_c, 0, 64, 127
3, 161535, Note_on_c, 0, 60, 0
3, 161656, Note_on_c, 0, 45, 0
3, 161722, Note_on_c, 0, 55, 0
3, 161775, Note_on_c, 0, 64, 0
3, 162264, Note_on_c, 0, 63, 44
3, 162291, Note_on_c, 0, 57, 36
3, 162314, Note_on_c, 0, 60, 18
3, 162326, Control_c, 0, 64, 0
3, 162442, Note_on_c, 0, 67, 31
3, 162507, Note_on_c, 0, 67, 0
3, 162575, Note_on_c, 0, 72, 40
3, 162659, Note_on_c, 0, 72, 0
3, 162704, Note_on_c, 0, 74, 67
3, 162733, Note_on_c, 0, 63, 0
3, 162758, Note_on_c, 0, 60, 0
3, 162773, Note_on_c, 0, 57, 0
3, 162785, Note_on_c, 0, 74, 0
3, 162864, Note_on_c, 0, 75, 60
3, 162959, Note_on_c, 0, 75, 0
3, 163010, Note_on_c, 0, 77, 71
3, 163138, Note_on_c, 0, 75, 62
3, 163155, Note_on_c, 0, 77, 0
3, 163245, Note_on_c, 0, 75, 0
3, 163291, Note_on_c, 0, 74, 47
3, 163300, Note_on_c, 0, 54, 39
3, 163301, Note_on_c, 0, 50, 26
3, 163309, Note_on_c, 0, 60, 26
3, 163431, Note_on_c, 0, 74, 0
3, 163481, Note_on_c, 0, 72, 35
3, 163593, Note_on_c, 0, 72, 0
3, 163726, Note_on_c, 0, 70, 64
3, 163830, Note_on_c, 0, 70, 0
3, 163907, Note_on_c, 0, 72, 36
3, 163917, Note_on_c, 0, 60, 0
3, 163965, Note_on_c, 0, 70, 36
3, 164014, Note_on_c, 0, 72, 0
3, 164094, Note_on_c, 0, 70, 0
3, 164110, Note_on_c, 0, 69, 37
3, 164144, Note_on_c, 0, 54, 0
3, 164147, Note_on_c, 0, 50, 0
3, 164154, Note_on_c, 0, 50, 40
3, 164185, Note_on_c, 0, 54, 40
3, 164209, Note_on_c, 0, 69, 0
3, 164279, Note_on_c, 0, 60, 17
3, 164293, Note_on_c, 0, 67, 62
3, 164387, Note_on_c, 0, 67, 0
3, 164510, Note_on_c, 0, 66, 55
3, 164511, Note_on_c, 0, 60, 0
3, 164599, Note_on_c, 0, 66, 0
3, 164718, Note_on_c, 0, 63, 57
3, 164817, Note_on_c, 0, 63, 0
3, 164881, Note_on_c, 0, 62, 52
3, 165016, Note_on_c, 0, 62, 0
3, 165053, Note_on_c, 0, 60, 45
3, 165114, Note_on_c, 0, 50, 0
3, 165130, Note_on_c, 0, 54, 0
3, 165135, Note_on_c, 0, 43, 26
3, 165152, Note_on_c, 0, 53, 20
3, 165220, Note_on_c, 0, 60, 0
3, 165224, Note_on_c, 0, 58, 46
3, 165408, Note_on_c, 0, 58, 0
3, 165471, Note_on_c, 0, 57, 55
3, 165559, Note_on_c, 0, 57, 0
3, 165614, Note_on_c, 0, 60, 60
3, 165791, Note_on_c, 0, 60, 0
3, 165811, Note_on_c, 0, 53, 0
3, 165822, Note_on_c, 0, 57, 45
3, 165943, Note_on_c, 0, 57, 0
3, 165987, Note_on_c, 0, 58, 70
3, 166015, Note_on_c, 0, 53, 31
3, 166135, Note_on_c, 0, 53, 0
3, 166140, Note_on_c, 0, 58, 0
3, 166238, Note_on_c, 0, 54, 27
3, 166284, Note_on_c, 0, 54, 0
3, 166370, Note_on_c, 0, 43, 0
3, 166380, Note_on_c, 0, 57, 63
3, 166515, Note_on_c, 0, 57, 0
3, 166539, Note_on_c, 0, 54, 53
3, 166620, Note_on_c, 0, 54, 0
3, 166666, Note_on_c, 0, 55, 47
3, 166760, Note_on_c, 0, 55, 0
3, 166802, Note_on_c, 0, 57, 52
3, 166912, Note_on_c, 0, 57, 0
3, 166926, Note_on_c, 0, 58, 61
3, 166978, Note_on_c, 0, 58, 0
3, 166986, Note_on_c, 0, 53, 20
3, 167063, Note_on_c, 0, 62, 53
3, 167113, Note_on_c, 0, 53, 0
3, 167172, Note_on_c, 0, 62, 0
3, 167195, Note_on_c, 0, 66, 49
3, 167287, Note_on_c, 0, 66, 0
3, 167328, Note_on_c, 0, 69, 48
3, 167442, Note_on_c, 0, 69, 0
3, 167465, Note_on_c, 0, 66, 29
3, 167511, Note_on_c, 0, 66, 0
3, 167566, Note_on_c, 0, 67, 37
3, 167682, Note_on_c, 0, 67, 0
3, 167702, Note_on_c, 0, 69, 33
3, 167809, Note_on_c, 0, 69, 0
3, 167838, Note_on_c, 0, 70, 57
3, 167873, Note_on_c, 0, 70, 0
3, 167885, Note_on_c, 0, 62, 31
3, 167889, Note_on_c, 0, 58, 42
3, 167895, Note_on_c, 0, 57, 31
3, 167972, Note_on_c, 0, 62, 0
3, 168019, Note_on_c, 0, 58, 0
3, 168021, Note_on_c, 0, 57, 0
3, 168071, Control_c, 0, 64, 127
3, 168556, Note_on_c, 0, 43, 24
3, 168861, Note_on_c, 0, 43, 0
3, 168873, Control_c, 0, 64, 0
3, 168927, Note_on_c, 0, 36, 36
3, 168948, Note_on_c, 0, 52, 40
3, 169040, Control_c, 0, 64, 127
3, 169121, Note_on_c, 0, 36, 0
3, 169251, Note_on_c, 0, 52, 0
3, 169939, Note_on_c, 0, 64, 46
3, 169941, Note_on_c, 0, 58, 48
3, 169956, Note_on_c, 0, 60, 40
3, 169999, Control_c, 0, 64, 0
3, 170031, Note_on_c, 0, 64, 0
3, 170053, Note_on_c, 0, 60, 0
3, 170104, Control_c, 0, 64, 127
3, 170126, Note_on_c, 0, 58, 0
3, 170267, Note_on_c, 0, 83, 83
3, 170268, Note_on_c, 0, 79, 88
3, 170472, Note_on_c, 0, 79, 0
3, 170488, Note_on_c, 0, 83, 0
3, 170597, Note_on_c, 0, 80, 74
3, 170609, Note_on_c, 0, 83, 73
3, 170800, Note_on_c, 0, 83, 0
3, 170837, Note_on_c, 0, 80, 0
3, 170905, Control_c, 0, 64, 0
3, 170935, Note_on_c, 0, 79, 58
3, 170937, Note_on_c, 0, 83, 57
3, 170940, Note_on_c, 0, 58, 49
3, 170943, Note_on_c, 0, 48, 37
3, 171139, Note_on_c, 0, 79, 0
3, 171207, Note_on_c, 0, 81, 54
3, 171269, Note_on_c, 0, 83, 0
3, 171310, Note_on_c, 0, 77, 47
3, 171352, Note_on_c, 0, 58, 0
3, 171382, Note_on_c, 0, 81, 0
3, 171439, Note_on_c, 0, 77, 0
3, 171468, Note_on_c, 0, 72, 41
3, 171614, Note_on_c, 0, 72, 0
3, 171704, Note_on_c, 0, 71, 66
3, 171712, Note_on_c, 0, 77, 61
3, 171839, Note_on_c, 0, 77, 0
3, 171859, Note_on_c, 0, 71, 0
3, 171991, Note_on_c, 0, 58, 37
3, 172001, Note_on_c, 0, 74, 58
3, 172020, Note_on_c, 0, 70, 47
3, 172091, Note_on_c, 0, 58, 0
3, 172132, Note_on_c, 0, 74, 0
3, 172172, Note_on_c, 0, 70, 0
3, 172238, Note_on_c, 0, 48, 0
3, 172280, Note_on_c, 0, 68, 67
3, 172308, Note_on_c, 0, 72, 32
3, 172435, Note_on_c, 0, 68, 0
3, 172487, Note_on_c, 0, 69, 64
3, 172579, Note_on_c, 0, 72, 0
3, 172610, Note_on_c, 0, 65, 57
3, 172615, Note_on_c, 0, 69, 0
3, 172661, Note_on_c, 0, 65, 0
3, 172756, Note_on_c, 0, 60, 43
3, 172795, Note_on_c, 0, 60, 0
3, 172970, Note_on_c, 0, 41, 31
3, 172970, Note_on_c, 0, 48, 32
3, 172970, Note_on_c, 0, 56, 59
3, 173073, Note_on_c, 0, 65, 34
3, 173102, Note_on_c, 0, 56, 0
3, 173229, Note_on_c, 0, 57, 24
3, 173439, Control_c, 0, 64, 127
3, 173591, Note_on_c, 0, 48, 0
3, 173646, Note_on_c, 0, 65, 0
3, 173711, Note_on_c, 0, 41, 0
3, 173719, Note_on_c, 0, 57, 0
3, 173949, Control_c, 0, 64, 0
3, 173982, Note_on_c, 0, 68, 45
3, 173987, Note_on_c, 0, 63, 48
3, 173988, Note_on_c, 0, 57, 58
3, 173991, Note_on_c, 0, 45, 50
3, 174221, Control_c, 0, 64, 127
3, 174515, Note_on_c, 0, 45, 0
3, 174531, Note_on_c, 0, 57, 0
3, 174723, Note_on_c, 0, 63, 0
3, 174777, Note_on_c, 0, 68, 0
3, 174815, Control_c, 0, 64, 0
3, 174874, Note_on_c, 0, 56, 53
3, 174880, Note_on_c, 0, 34, 34
3, 174881, Note_on_c, 0, 65, 44
3, 174883, Note_on_c, 0, 46, 33
3, 174890, Note_on_c, 0, 62, 44
3, 175117, Control_c, 0, 64, 127
3, 175304, Note_on_c, 0, 65, 0
3, 175309, Note_on_c, 0, 62, 0
3, 175313, Note_on_c, 0, 56, 0
3, 175337, Note_on_c, 0, 34, 0
3, 175372, Note_on_c, 0, 46, 0
3, 175733, Control_c, 0, 64, 0
3, 175794, Note_on_c, 0, 53, 30
3, 175798, Note_on_c, 0, 59, 43
3, 175799, Note_on_c, 0, 62, 44
3, 175801, Note_on_c, 0, 35, 36
3, 175810, Note_on_c, 0, 47, 29
3, 175983, Control_c, 0, 64, 127
3, 176207, Note_on_c, 0, 53, 0
3, 176224, Note_on_c, 0, 59, 0
3, 176242, Note_on_c, 0, 35, 0
3, 176293, Note_on_c, 0, 47, 0
3, 176513, Note_on_c, 0, 62, 0
3, 176629, Control_c, 0, 64, 0
3, 176718, Note_on_c, 0, 60, 42
3, 176719, Note_on_c, 0, 57, 47
3, 176738, Note_on_c, 0, 36, 34
3, 176739, Note_on_c, 0, 48, 26
3, 176827, Control_c, 0, 64, 127
3, 176894, Note_on_c, 0, 36, 0
3, 176901, Note_on_c, 0, 57, 0
3, 176970, Note_on_c, 0, 60, 0
3, 176984, Note_on_c, 0, 48, 0
3, 177691, Note_on_c, 0, 48, 52
3, 177862, Note_on_c, 0, 48, 0
3, 177870, Control_c, 0, 64, 0
3, 178000, Note_on_c, 0, 76, 71
3, 178002, Note_on_c, 0, 64, 83
3, 178003, Note_on_c, 0, 72, 63
3, 178026, Control_c, 0, 64, 127
3, 178077, Note_on_c, 0, 64, 0
3, 178135, Note_on_c, 0, 72, 0
3, 178164, Note_on_c, 0, 76, 0
3, 178636, Note_on_c, 0, 48, 63
3, 178641, Control_c, 0, 64, 0
3, 178849, Control_c, 0, 64, 127
3, 179037, Control_c, 0, 64, 0
3, 179152, Control_c, 0, 64, 127
3, 179223, Note_on_c, 0, 75, 77
3, 179229, Note_on_c, 0, 63, 79
3, 179287, Note_on_c, 0, 48, 0
3, 179464, Note_on_c, 0, 63, 0
3, 179495, Note_on_c, 0, 75, 0
3, 179569, Control_c, 0, 64, 0
3, 179597, Note_on_c, 0, 74, 51
3, 179603, Note_on_c, 0, 62, 58
3, 179614, Note_on_c, 0, 70, 42
3, 179638, Note_on_c, 0, 49, 31
3, 179728, Note_on_c, 0, 74, 0
3, 179756, Control_c, 0, 64, 127
3, 179820, Note_on_c, 0, 62, 0
3, 179915, Note_on_c, 0, 70, 0
3, 179981, Note_on_c, 0, 49, 0
3, 180191, Note_on_c, 0, 73, 37
3, 180195, Note_on_c, 0, 61, 52
3, 180220, Note_on_c, 0, 68, 40
3, 180230, Note_on_c, 0, 49, 25
3, 180299, Note_on_c, 0, 42, 15
3, 180382, Note_on_c, 0, 73, 0
3, 180387, Note_on_c, 0, 42, 0
3, 180420, Note_on_c, 0, 61, 0
3, 180445, Note_on_c, 0, 68, 0
3, 180459, Note_on_c, 0, 49, 0
3, 180475, Control_c, 0, 64, 0
3, 180544, Note_on_c, 0, 41, 33
3, 180552, Note_on_c, 0, 60, 57
3, 180558, Note_on_c, 0, 48, 28
3, 180566, Note_on_c, 0, 72, 49
3, 180576, Note_on_c, 0, 69, 39
3, 180700, Note_on_c, 0, 69, 0
3, 180771, Note_on_c, 0, 60, 0
3, 180837, Note_on_c, 0, 69, 43
3, 180888, Note_on_c, 0, 72, 0
3, 180904, Note_on_c, 0, 65, 47
3, 180981, Note_on_c, 0, 69, 0
3, 181036, Note_on_c, 0, 60, 40
3, 181040, Note_on_c, 0, 65, 0
3, 181306, Note_on_c, 0, 60, 0
3, 181417, Note_on_c, 0, 59, 48
3, 181439, Note_on_c, 0, 53, 24
3, 181456, Note_on_c, 0, 65, 30
3, 181538, Note_on_c, 0, 48, 0
3, 181876, Note_on_c, 0, 65, 0
3, 182009, Note_on_c, 0, 59, 0
3, 182035, Note_on_c, 0, 56, 45
3, 182065, Note_on_c, 0, 65, 14
3, 182204, Note_on_c, 0, 53, 0
3, 182321, Note_on_c, 0, 41, 0
3, 182369, Note_on_c, 0, 56, 0
3, 182407, Note_on_c, 0, 57, 49
3, 182420, Note_on_c, 0, 53, 22
3, 182635, Note_on_c, 0, 53, 0
3, 182718, Note_on_c, 0, 45, 60
3, 182820, Note_on_c, 0, 45, 0
3, 182941, Note_on_c, 0, 65, 0
3, 182966, Note_on_c, 0, 57, 0
3, 183030, Note_on_c, 0, 33, 40
3, 183303, Note_on_c, 0, 33, 0
3, 183346, Note_on_c, 0, 43, 26
3, 183373, Note_on_c, 0, 66, 40
3, 183376, Note_on_c, 0, 57, 53
3, 183377, Note_on_c, 0, 61, 31
3, 183378, Note_on_c, 0, 63, 42
3, 183402, Note_on_c, 0, 43, 0
3, 183599, Note_on_c, 0, 57, 0
3, 183672, Note_on_c, 0, 61, 0
3, 183678, Note_on_c, 0, 21, 35
3, 183695, Note_on_c, 0, 63, 0
3, 183720, Note_on_c, 0, 66, 0
3, 183798, Note_on_c, 0, 21, 0
3, 183978, Note_on_c, 0, 56, 47
3, 183983, Note_on_c, 0, 34, 40
3, 183988, Note_on_c, 0, 65, 51
3, 184002, Note_on_c, 0, 62, 42
3, 184022, Note_on_c, 0, 22, 36
3, 184259, Control_c, 0, 64, 127
3, 184392, Note_on_c, 0, 56, 0
3, 184491, Note_on_c, 0, 22, 0
3, 184503, Note_on_c, 0, 62, 0
3, 184516, Note_on_c, 0, 65, 0
3, 184554, Note_on_c, 0, 34, 0
3, 184737, Note_on_c, 0, 65, 49
3, 184900, Note_on_c, 0, 65, 0
3, 185025, Note_on_c, 0, 70, 80
3, 185241, Note_on_c, 0, 70, 0
3, 185313, Control_c, 0, 64, 0
3, 185333, Note_on_c, 0, 74, 73
3, 185361, Note_on_c, 0, 58, 31
3, 185414, Note_on_c, 0, 58, 0
3, 185510, Control_c, 0, 64, 127
3, 185600, Note_on_c, 0, 74, 0
3, 185641, Note_on_c, 0, 77, 55
3, 185727, Note_on_c, 0, 77, 0
3, 185937, Note_on_c, 0, 83, 56
3, 186073, Note_on_c, 0, 83, 0
3, 186240, Control_c, 0, 64, 0
3, 186252, Note_on_c, 0, 47, 35
3, 186253, Note_on_c, 0, 86, 61
3, 186257, Note_on_c, 0, 56, 33
3, 186263, Note_on_c, 0, 74, 41
3, 186522, Control_c, 0, 64, 127
3, 186604, Note_on_c, 0, 74, 0
3, 186605, Note_on_c, 0, 47, 0
3, 186628, Note_on_c, 0, 80, 29
3, 186633, Note_on_c, 0, 86, 0
3, 186676, Note_on_c, 0, 56, 0
3, 186785, Note_on_c, 0, 80, 0
3, 186942, Note_on_c, 0, 83, 55
3, 187209, Control_c, 0, 64, 0
3, 187243, Note_on_c, 0, 62, 30
3, 187254, Note_on_c, 0, 56, 36
3, 187346, Note_on_c, 0, 62, 0
3, 187387, Control_c, 0, 64, 127
3, 187426, Note_on_c, 0, 56, 0
3, 187810, Note_on_c, 0, 83, 0
3, 187869, Note_on_c, 0, 56, 40
3, 188128, Note_on_c, 0, 56, 0
3, 188148, Control_c, 0, 64, 0
3, 188207, Note_on_c, 0, 84, 70
3, 188209, Note_on_c, 0, 57, 26
3, 188213, Note_on_c, 0, 72, 54
3, 188217, Note_on_c, 0, 48, 24
3, 188414, Note_on_c, 0, 84, 0
3, 188471, Control_c, 0, 64, 127
3, 188512, Note_on_c, 0, 48, 0
3, 188539, Note_on_c, 0, 77, 35
3, 188548, Note_on_c, 0, 72, 0
3, 188578, Note_on_c, 0, 57, 0
3, 188748, Note_on_c, 0, 77, 0
3, 188858, Note_on_c, 0, 81, 61
3, 188881, Note_on_c, 0, 72, 38
3, 189128, Control_c, 0, 64, 0
3, 189197, Note_on_c, 0, 62, 33
3, 189210, Note_on_c, 0, 57, 40
3, 189217, Note_on_c, 0, 60, 24
3, 189294, Note_on_c, 0, 62, 0
3, 189326, Control_c, 0, 64, 127
3, 189347, Note_on_c, 0, 60, 0
3, 189424, Note_on_c, 0, 57, 0
3, 189986, Note_on_c, 0, 72, 0
3, 190108, Control_c, 0, 64, 0
3, 190186, Note_on_c, 0, 58, 36
3, 190211, Note_on_c, 0, 48, 33
3, 190288, Note_on_c, 0, 81, 0
3, 190295, Control_c, 0, 64, 127
3, 190421, Note_on_c, 0, 48, 0
3, 190511, Note_on_c, 0, 58, 0
3, 191088, Control_c, 0, 64, 0
3, 191125, Note_on_c, 0, 64, 37
3, 191138, Note_on_c, 0, 58, 38
3, 191173, Note_on_c, 0, 60, 30
3, 191235, Note_on_c, 0, 60, 0
3, 191255, Note_on_c, 0, 64, 0
3, 191255, Control_c, 0, 64, 127
3, 191317, Note_on_c, 0, 58, 0
3, 191744, Note_on_c, 0, 48, 35
3, 192001, Note_on_c, 0, 48, 0
3, 192047, Control_c, 0, 64, 0
3, 192074, Note_on_c, 0, 41, 41
3, 192078, Note_on_c, 0, 82, 74
3, 192079, Note_on_c, 0, 86, 68
3, 192087, Note_on_c, 0, 50, 26
3, 192284, Note_on_c, 0, 82, 0
3, 192298, Note_on_c, 0, 83, 51
3, 192343, Note_on_c, 0, 50, 0
3, 192351, Note_on_c, 0, 82, 23
3, 192408, Note_on_c, 0, 83, 0
3, 192429, Note_on_c, 0, 86, 0
3, 192516, Note_on_c, 0, 77, 36
3, 192523, Note_on_c, 0, 82, 0
3, 192579, Note_on_c, 0, 77, 0
3, 192658, Note_on_c, 0, 84, 66
3, 192662, Note_on_c, 0, 80, 65
3, 192784, Note_on_c, 0, 84, 0
3, 192796, Note_on_c, 0, 80, 0
3, 192859, Note_on_c, 0, 84, 61
3, 192869, Note_on_c, 0, 81, 72
3, 192920, Note_on_c, 0, 55, 24
3, 192988, Note_on_c, 0, 41, 0
3, 192994, Note_on_c, 0, 84, 0
3, 193003, Note_on_c, 0, 81, 0
3, 193038, Note_on_c, 0, 55, 0
3, 193046, Note_on_c, 0, 77, 51
3, 193178, Note_on_c, 0, 77, 0
3, 193230, Note_on_c, 0, 72, 50
3, 193328, Note_on_c, 0, 72, 0
3, 193410, Note_on_c, 0, 71, 27
3, 193576, Note_on_c, 0, 71, 0
3, 193633, Note_on_c, 0, 65, 40
3, 193673, Control_c, 0, 64, 127
3, 193740, Note_on_c, 0, 65, 0
3, 193776, Control_c, 0, 64, 0
3, 193801, Note_on_c, 0, 74, 52
3, 193807, Note_on_c, 0, 70, 56
3, 193824, Note_on_c, 0, 63, 25
3, 193845, Note_on_c, 0, 57, 31
3, 193910, Note_on_c, 0, 63, 0
3, 193931, Note_on_c, 0, 74, 0
3, 193941, Note_on_c, 0, 70, 0
3, 193955, Note_on_c, 0, 57, 0
3, 194090, Note_on_c, 0, 65, 41
3, 194149, Note_on_c, 0, 65, 0
3, 194307, Note_on_c, 0, 68, 55
3, 194398, Note_on_c, 0, 68, 0
3, 194515, Note_on_c, 0, 69, 57
3, 194609, Note_on_c, 0, 69, 0
3, 194670, Note_on_c, 0, 65, 59
3, 194770, Note_on_c, 0, 65, 0
3, 194825, Note_on_c, 0, 60, 44
3, 194897, Note_on_c, 0, 60, 0
3, 195043, Note_on_c, 0, 63, 69
3, 195095, Note_on_c, 0, 47, 40
3, 195164, Note_on_c, 0, 47, 0
3, 195199, Note_on_c, 0, 63, 0
3, 195329, Note_on_c, 0, 66, 64
3, 195332, Note_on_c, 0, 57, 68
3, 195339, Note_on_c, 0, 47, 34
3, 195366, Note_on_c, 0, 62, 45
3, 195430, Note_on_c, 0, 62, 0
3, 195455, Note_on_c, 0, 57, 0
3, 195470, Note_on_c, 0, 47, 0
3, 195481, Note_on_c, 0, 66, 0
3, 195623, Note_on_c, 0, 47, 50
3, 195624, Note_on_c, 0, 66, 53
3, 195635, Note_on_c, 0, 57, 61
3, 195638, Note_on_c, 0, 62, 56
3, 195710, Note_on_c, 0, 57, 0
3, 195725, Note_on_c, 0, 62, 0
3, 195736, Note_on_c, 0, 66, 0
3, 195751, Note_on_c, 0, 47, 0
3, 195783, Note_on_c, 0, 35, 58
3, 195829, Note_on_c, 0, 35, 0
3, 195964, Note_on_c, 0, 56, 55
3, 195966, Note_on_c, 0, 62, 46
3, 195971, Note_on_c, 0, 65, 60
3, 195986, Note_on_c, 0, 46, 62
3, 195987, Note_on_c, 0, 34, 61
3, 196064, Note_on_c, 0, 34, 0
3, 196133, Control_c, 0, 64, 127
3, 196361, Note_on_c, 0, 56, 0
3, 196409, Note_on_c, 0, 46, 0
3, 196505, Note_on_c, 0, 65, 0
3, 196507, Note_on_c, 0, 62, 0
3, 196958, Note_on_c, 0, 71, 52
3, 196961, Note_on_c, 0, 77, 60
3, 196991, Note_on_c, 0, 68, 49
3, 196996, Note_on_c, 0, 63, 39
3, 197004, Note_on_c, 0, 57, 42
3, 197040, Control_c, 0, 64, 0
3, 197225, Note_on_c, 0, 68, 0
3, 197248, Control_c, 0, 64, 127
3, 197303, Note_on_c, 0, 71, 0
3, 197367, Note_on_c, 0, 57, 0
3, 197392, Note_on_c, 0, 77, 0
3, 197473, Note_on_c, 0, 63, 0
3, 197520, Note_on_c, 0, 70, 39
3, 197530, Control_c, 0, 64, 0
3, 197544, Note_on_c, 0, 65, 34
3, 197551, Note_on_c, 0, 56, 52
3, 197555, Note_on_c, 0, 62, 48
3, 197759, Control_c, 0, 64, 127
3, 197965, Note_on_c, 0, 62, 0
3, 198058, Note_on_c, 0, 56, 0
3, 198708, Control_c, 0, 64, 0
3, 198733, Note_on_c, 0, 56, 37
3, 198736, Note_on_c, 0, 46, 35
3, 198844, Control_c, 0, 64, 127
3, 199057, Note_on_c, 0, 70, 0
3, 199147, Note_on_c, 0, 65, 0
3, 199187, Note_on_c, 0, 46, 0
3, 199375, Note_on_c, 0, 46, 37
3, 199582, Note_on_c, 0, 46, 0
3, 199594, Note_on_c, 0, 56, 0
3, 199677, Control_c, 0, 64, 0
3, 199743, Note_on_c, 0, 56, 40
3, 199755, Note_on_c, 0, 47, 35
3, 199756, Note_on_c, 0, 62, 38
3, 199760, Note_on_c, 0, 59, 31
3, 199865, Control_c, 0, 64, 127
3, 199873, Note_on_c, 0, 59, 0
3, 199957, Note_on_c, 0, 62, 0
3, 200012, Note_on_c, 0, 47, 0
3, 200025, Note_on_c, 0, 56, 0
3, 200385, Note_on_c, 0, 70, 71
3, 200398, Note_on_c, 0, 76, 68
3, 200399, Note_on_c, 0, 68, 71
3, 200402, Note_on_c, 0, 65, 83
3, 200408, Note_on_c, 0, 64, 80
3, 200424, Note_on_c, 0, 71, 54
3, 200490, Control_c, 0, 64, 0
3, 200543, Note_on_c, 0, 70, 0
3, 200555, Note_on_c, 0, 65, 0
3, 200564, Note_on_c, 0, 71, 0
3, 200588, Note_on_c, 0, 76, 0
3, 200615, Note_on_c, 0, 68, 0
3, 200637, Note_on_c, 0, 64, 0
3, 200656, Note_on_c, 0, 62, 44
3, 200824, Control_c, 0, 64, 127
3, 200863, Note_on_c, 0, 62, 0
3, 200885, Control_c, 0, 64, 0
3, 200951, Note_on_c, 0, 71, 73
3, 200952, Note_on_c, 0, 79, 81
3, 200954, Note_on_c, 0, 68, 70
3, 200959, Note_on_c, 0, 67, 68
3, 200961, Note_on_c, 0, 78, 31
3, 200970, Note_on_c, 0, 74, 54
3, 201130, Note_on_c, 0, 79, 0
3, 201137, Control_c, 0, 64, 127
3, 201143, Note_on_c, 0, 78, 0
3, 201177, Note_on_c, 0, 68, 0
3, 201190, Note_on_c, 0, 74, 0
3, 201206, Note_on_c, 0, 71, 0
3, 201230, Control_c, 0, 64, 0
3, 201240, Note_on_c, 0, 77, 58
3, 201245, Note_on_c, 0, 67, 0
3, 201251, Note_on_c, 0, 68, 50
3, 201262, Note_on_c, 0, 65, 62
3, 201271, Note_on_c, 0, 71, 30
3, 201283, Control_c, 0, 64, 127
3, 201342, Note_on_c, 0, 71, 0
3, 201373, Note_on_c, 0, 65, 0
3, 201395, Note_on_c, 0, 77, 0
3, 201455, Note_on_c, 0, 68, 0
3, 201513, Control_c, 0, 64, 0
3, 201545, Note_on_c, 0, 76, 68
3, 201563, Note_on_c, 0, 68, 31
3, 201566, Note_on_c, 0, 67, 44
3, 201574, Note_on_c, 0, 64, 64
3, 201699, Control_c, 0, 64, 127
3, 201701, Note_on_c, 0, 67, 0
3, 201746, Note_on_c, 0, 68, 0
3, 201750, Note_on_c, 0, 76, 0
3, 201751, Note_on_c, 0, 64, 0
3, 201887, Control_c, 0, 64, 0
3, 201888, Note_on_c, 0, 74, 45
3, 201889, Note_on_c, 0, 68, 47
3, 201901, Note_on_c, 0, 62, 45
3, 201905, Note_on_c, 0, 71, 50
3, 201906, Note_on_c, 0, 65, 50
3, 201918, Note_on_c, 0, 73, 34
3, 202034, Control_c, 0, 64, 127
3, 202122, Note_on_c, 0, 71, 0
3, 202135, Note_on_c, 0, 62, 0
3, 202140, Note_on_c, 0, 74, 0
3, 202146, Note_on_c, 0, 73, 0
3, 202162, Note_on_c, 0, 68, 0
3, 202194, Note_on_c, 0, 65, 0
3, 202471, Control_c, 0, 64, 0
3, 202514, Note_on_c, 0, 68, 42
3, 202516, Note_on_c, 0, 71, 47
3, 202518, Note_on_c, 0, 62, 38
3, 202521, Note_on_c, 0, 65, 50
3, 202530, Note_on_c, 0, 59, 41
3, 202617, Control_c, 0, 64, 127
3, 202751, Note_on_c, 0, 59, 0
3, 202860, Note_on_c, 0, 65, 0
3, 202867, Note_on_c, 0, 68, 0
3, 202869, Note_on_c, 0, 62, 0
3, 203068, Note_on_c, 0, 71, 0
3, 203157, Note_on_c, 0, 68, 40
3, 203172, Note_on_c, 0, 62, 31
3, 203270, Note_on_c, 0, 62, 0
3, 203419, Note_on_c, 0, 68, 0
3, 203450, Control_c, 0, 64, 0
3, 203499, Note_on_c, 0, 69, 51
3, 203502, Note_on_c, 0, 57, 34
3, 203507, Note_on_c, 0, 60, 33
3, 203515, Note_on_c, 0, 65, 47
3, 203536, Note_on_c, 0, 48, 32
3, 203690, Control_c, 0, 64, 127
3, 203991, Note_on_c, 0, 60, 0
3, 204157, Note_on_c, 0, 65, 0
3, 204168, Note_on_c, 0, 60, 44
3, 204270, Note_on_c, 0, 48, 0
3, 204305, Note_on_c, 0, 57, 0
3, 204384, Note_on_c, 0, 60, 0
3, 204413, Note_on_c, 0, 69, 0
3, 204483, Control_c, 0, 64, 0
3, 204503, Note_on_c, 0, 57, 28
3, 204515, Note_on_c, 0, 65, 34
3, 204531, Note_on_c, 0, 48, 20
3, 204753, Control_c, 0, 64, 127
3, 204791, Note_on_c, 0, 65, 0
3, 204800, Note_on_c, 0, 69, 45
3, 205029, Note_on_c, 0, 69, 0
3, 205045, Note_on_c, 0, 57, 0
3, 205077, Note_on_c, 0, 48, 0
3, 205121, Note_on_c, 0, 72, 57
3, 205198, Note_on_c, 0, 72, 0
3, 205422, Control_c, 0, 64, 0
3, 205435, Note_on_c, 0, 72, 55
3, 205438, Note_on_c, 0, 79, 60
3, 205439, Note_on_c, 0, 46, 28
3, 205449, Note_on_c, 0, 67, 50
3, 205451, Note_on_c, 0, 56, 32
3, 205621, Note_on_c, 0, 67, 0
3, 205629, Note_on_c, 0, 56, 0
3, 205630, Note_on_c, 0, 46, 0
3, 205637, Note_on_c, 0, 79, 0
3, 205642, Note_on_c, 0, 72, 0
3, 205761, Note_on_c, 0, 79, 45
3, 205766, Note_on_c, 0, 46, 34
3, 205772, Note_on_c, 0, 56, 35
3, 205775, Note_on_c, 0, 72, 38
3, 205794, Note_on_c, 0, 67, 25
3, 205915, Note_on_c, 0, 67, 0
3, 205927, Note_on_c, 0, 72, 0
3, 205947, Note_on_c, 0, 56, 0
3, 205959, Note_on_c, 0, 79, 0
3, 205960, Note_on_c, 0, 46, 0
3, 206074, Note_on_c, 0, 76, 44
3, 206082, Note_on_c, 0, 56, 37
3, 206083, Note_on_c, 0, 67, 30
3, 206087, Note_on_c, 0, 46, 31
3, 206094, Note_on_c, 0, 72, 37
3, 206200, Note_on_c, 0, 72, 0
3, 206249, Note_on_c, 0, 67, 0
3, 206259, Note_on_c, 0, 76, 0
3, 206278, Note_on_c, 0, 56, 0
3, 206388, Note_on_c, 0, 56, 23
3, 206395, Note_on_c, 0, 76, 33
3, 206401, Control_c, 0, 64, 127
3, 206416, Note_on_c, 0, 67, 32
3, 206432, Control_c, 0, 64, 0
3, 206485, Note_on_c, 0, 76, 0
3, 206526, Note_on_c, 0, 67, 0
3, 206533, Note_on_c, 0, 56, 0
3, 206555, Note_on_c, 0, 46, 0
3, 206706, Note_on_c, 0, 46, 45
3, 206711, Note_on_c, 0, 64, 58
3, 206714, Note_on_c, 0, 72, 40
3, 206718, Note_on_c, 0, 56, 42
3, 206722, Note_on_c, 0, 67, 46
3, 206876, Note_on_c, 0, 67, 0
3, 206883, Note_on_c, 0, 72, 0
3, 206893, Note_on_c, 0, 56, 0
3, 206923, Note_on_c, 0, 46, 0
3, 206926, Note_on_c, 0, 64, 0
3, 206963, Control_c, 0, 64, 127
3, 207007, Note_on_c, 0, 72, 41
3, 207016, Note_on_c, 0, 46, 32
3, 207017, Note_on_c, 0, 64, 43
3, 207019, Note_on_c, 0, 67, 50
3, 207042, Note_on_c, 0, 56, 28
3, 207086, Note_on_c, 0, 72, 0
3, 207113, Note_on_c, 0, 67, 0
3, 207145, Note_on_c, 0, 56, 0
3, 207148, Note_on_c, 0, 64, 0
3, 207244, Note_on_c, 0, 46, 0
3, 207266, Control_c, 0, 64, 0
3, 207336, Note_on_c, 0, 55, 40
3, 207338, Note_on_c, 0, 45, 48
3, 207342, Note_on_c, 0, 64, 39
3, 207344, Note_on_c, 0, 60, 26
3, 207486, Note_on_c, 0, 55, 0
3, 207513, Note_on_c, 0, 45, 0
3, 207517, Control_c, 0, 64, 127
3, 207524, Note_on_c, 0, 64, 0
3, 207536, Note_on_c, 0, 60, 0
3, 207637, Note_on_c, 0, 64, 50
3, 207644, Note_on_c, 0, 45, 27
3, 207665, Note_on_c, 0, 55, 42
3, 207695, Note_on_c, 0, 45, 0
3, 207721, Note_on_c, 0, 64, 0
3, 207756, Note_on_c, 0, 55, 0
3, 208023, Note_on_c, 0, 72, 71
3, 208024, Note_on_c, 0, 76, 71
3, 208024, Note_on_c, 0, 67, 74
3, 208024, Note_on_c, 0, 65, 74
3, 208024, Note_on_c, 0, 61, 40
3, 208024, Note_on_c, 0, 55, 60
3, 208048, Control_c, 0, 64, 0
3, 208104, Note_on_c, 0, 65, 0
3, 208241, Note_on_c, 0, 72, 0
3, 208256, Note_on_c, 0, 61, 0
3, 208257, Note_on_c, 0, 55, 0
3, 208260, Note_on_c, 0, 67, 0
3, 208261, Note_on_c, 0, 76, 0
3, 208335, Note_on_c, 0, 55, 43
3, 208337, Note_on_c, 0, 76, 48
3, 208338, Note_on_c, 0, 61, 57
3, 208347, Note_on_c, 0, 67, 50
3, 208349, Note_on_c, 0, 72, 59
3, 208352, Control_c, 0, 64, 127
3, 208358, Note_on_c, 0, 65, 43
3, 208418, Note_on_c, 0, 67, 0
3, 208464, Note_on_c, 0, 65, 0
3, 208467, Note_on_c, 0, 55, 0
3, 208483, Note_on_c, 0, 72, 0
3, 208487, Note_on_c, 0, 76, 0
3, 208533, Note_on_c, 0, 61, 0
3, 208559, Control_c, 0, 64, 0
3, 208632, Note_on_c, 0, 55, 62
3, 208638, Note_on_c, 0, 77, 68
3, 208640, Note_on_c, 0, 61, 54
3, 208647, Note_on_c, 0, 65, 57
3, 208648, Note_on_c, 0, 72, 68
3, 208650, Note_on_c, 0, 69, 65
3, 208768, Control_c, 0, 64, 127
3, 208810, Note_on_c, 0, 65, 0
3, 208825, Note_on_c, 0, 77, 0
3, 208834, Note_on_c, 0, 72, 0
3, 208843, Note_on_c, 0, 69, 0
3, 208849, Note_on_c, 0, 55, 0
3, 208866, Note_on_c, 0, 61, 0
3, 208939, Note_on_c, 0, 77, 54
3, 208940, Note_on_c, 0, 55, 20
3, 208948, Note_on_c, 0, 61, 45
3, 208951, Note_on_c, 0, 72, 64
3, 208960, Note_on_c, 0, 65, 43
3, 208968, Note_on_c, 0, 69, 41
3, 209046, Note_on_c, 0, 77, 0
3, 209047, Note_on_c, 0, 72, 0
3, 209060, Note_on_c, 0, 65, 0
3, 209088, Note_on_c, 0, 69, 0
3, 209100, Note_on_c, 0, 55, 0
3, 209152, Control_c, 0, 64, 0
3, 209167, Note_on_c, 0, 61, 0
3, 209244, Note_on_c, 0, 74, 55
3, 209252, Note_on_c, 0, 70, 61
3, 209263, Note_on_c, 0, 54, 58
3, 209266, Note_on_c, 0, 60, 55
3, 209268, Note_on_c, 0, 65, 57
3, 209393, Control_c, 0, 64, 127
3, 209449, Note_on_c, 0, 54, 0
3, 209451, Note_on_c, 0, 74, 0
3, 209464, Note_on_c, 0, 70, 0
3, 209475, Note_on_c, 0, 65, 0
3, 209563, Note_on_c, 0, 74, 55
3, 209568, Note_on_c, 0, 70, 37
3, 209573, Note_on_c, 0, 54, 35
3, 209579, Note_on_c, 0, 65, 34
3, 209656, Note_on_c, 0, 65, 0
3, 209686, Note_on_c, 0, 54, 0
3, 209692, Note_on_c, 0, 70, 0
3, 209720, Note_on_c, 0, 74, 0
3, 209773, Note_on_c, 0, 60, 0
3, 209851, Control_c, 0, 64, 0
3, 209884, Note_on_c, 0, 54, 68
3, 209885, Note_on_c, 0, 60, 60
3, 209887, Note_on_c, 0, 76, 80
3, 209889, Note_on_c, 0, 67, 83
3, 209894, Note_on_c, 0, 72, 72
3, 209936, Control_c, 0, 64, 127
3, 209937, Note_on_c, 0, 74, 26
3, 210027, Note_on_c, 0, 60, 0
3, 210051, Note_on_c, 0, 72, 0
3, 210079, Note_on_c, 0, 76, 0
3, 210082, Note_on_c, 0, 74, 0
3, 210082, Note_on_c, 0, 54, 0
3, 210091, Note_on_c, 0, 67, 0
3, 210163, Control_c, 0, 64, 0
3, 210200, Note_on_c, 0, 54, 44
3, 210207, Note_on_c, 0, 60, 41
3, 210212, Note_on_c, 0, 74, 33
3, 210215, Note_on_c, 0, 70, 49
3, 210227, Note_on_c, 0, 64, 41
3, 210296, Note_on_c, 0, 70, 0
3, 210302, Note_on_c, 0, 60, 0
3, 210321, Note_on_c, 0, 74, 0
3, 210349, Note_on_c, 0, 64, 0
3, 210380, Note_on_c, 0, 54, 0
3, 210519, Note_on_c, 0, 54, 62
3, 210522, Note_on_c, 0, 69, 69
3, 210535, Note_on_c, 0, 65, 60
3, 210552, Note_on_c, 0, 60, 38
3, 210553, Note_on_c, 0, 62, 42
3, 210592, Note_on_c, 0, 62, 0
3, 210679, Note_on_c, 0, 69, 0
3, 210718, Note_on_c, 0, 65, 0
3, 210781, Note_on_c, 0, 60, 0
3, 210901, Control_c, 0, 64, 127
3, 210934, Note_on_c, 0, 44, 55
3, 211033, Note_on_c, 0, 54, 0
3, 211182, Control_c, 0, 64, 0
3, 211195, Note_on_c, 0, 44, 0
3, 211271, Note_on_c, 0, 43, 32
3, 211272, Note_on_c, 0, 65, 40
3, 211273, Note_on_c, 0, 62, 41
3, 211275, Note_on_c, 0, 53, 43
3, 211281, Note_on_c, 0, 58, 39
3, 211292, Note_on_c, 0, 57, 16
3, 211351, Control_c, 0, 64, 127
3, 212176, Note_on_c, 0, 57, 0
3, 212225, Note_on_c, 0, 43, 0
3, 212233, Note_on_c, 0, 46, 42
3, 212234, Note_on_c, 0, 57, 64
3, 212245, Control_c, 0, 64, 0
3, 212320, Note_on_c, 0, 57, 0
3, 212320, Note_on_c, 0, 58, 0
3, 212324, Note_on_c, 0, 62, 0
3, 212341, Note_on_c, 0, 65, 0
3, 212345, Note_on_c, 0, 53, 0
3, 212365, Note_on_c, 0, 58, 63
3, 212431, Note_on_c, 0, 58, 0
3, 212606, Note_on_c, 0, 65, 43
3, 212710, Note_on_c, 0, 65, 0
3, 212714, Note_on_c, 0, 69, 60
3, 212760, Note_on_c, 0, 69, 0
3, 212828, Note_on_c, 0, 72, 77
3, 212999, Note_on_c, 0, 72, 0
3, 213124, Note_on_c, 0, 69, 74
3, 213196, Note_on_c, 0, 53, 19
3, 213231, Note_on_c, 0, 69, 0
3, 213326, Note_on_c, 0, 65, 64
3, 213424, Note_on_c, 0, 65, 0
3, 213507, Note_on_c, 0, 62, 32
3, 213572, Note_on_c, 0, 62, 0
3, 213665, Note_on_c, 0, 58, 31
3, 213840, Note_on_c, 0, 58, 0
3, 213889, Note_on_c, 0, 57, 24
3, 213890, Note_on_c, 0, 53, 0
3, 213926, Note_on_c, 0, 57, 0
3, 214000, Note_on_c, 0, 60, 68
3, 214150, Note_on_c, 0, 60, 0
3, 214196, Note_on_c, 0, 57, 50
3, 214244, Note_on_c, 0, 57, 0
3, 214277, Note_on_c, 0, 53, 26
3, 214330, Note_on_c, 0, 58, 51
3, 214451, Note_on_c, 0, 46, 0
3, 214460, Note_on_c, 0, 58, 0
3, 214482, Note_on_c, 0, 59, 52
3, 214550, Note_on_c, 0, 53, 0
3, 214592, Note_on_c, 0, 59, 0
3, 214610, Note_on_c, 0, 60, 46
3, 214749, Note_on_c, 0, 60, 0
3, 214753, Note_on_c, 0, 61, 63
3, 214840, Note_on_c, 0, 61, 0
3, 214883, Note_on_c, 0, 62, 45
3, 214942, Note_on_c, 0, 62, 0
3, 214999, Note_on_c, 0, 63, 55
3, 215113, Note_on_c, 0, 63, 0
3, 215144, Note_on_c, 0, 64, 70
3, 215223, Note_on_c, 0, 36, 34
3, 215250, Note_on_c, 0, 52, 29
3, 215265, Note_on_c, 0, 64, 0
3, 215278, Note_on_c, 0, 67, 57
3, 215337, Control_c, 0, 64, 127
3, 215402, Note_on_c, 0, 36, 0
3, 215515, Note_on_c, 0, 52, 0
3, 215563, Note_on_c, 0, 72, 58
3, 215564, Note_on_c, 0, 67, 0
3, 215777, Note_on_c, 0, 72, 0
3, 216188, Note_on_c, 0, 64, 54
3, 216192, Control_c, 0, 64, 0
3, 216199, Note_on_c, 0, 58, 55
3, 216349, Control_c, 0, 64, 127
3, 216479, Note_on_c, 0, 64, 0
3, 216536, Note_on_c, 0, 58, 0
3, 216745, Note_on_c, 0, 75, 59
3, 216751, Note_on_c, 0, 64, 54
3, 216943, Control_c, 0, 64, 0
3, 217053, Note_on_c, 0, 58, 33
3, 217064, Note_on_c, 0, 48, 29
3, 217120, Control_c, 0, 64, 127
3, 217220, Note_on_c, 0, 48, 0
3, 217226, Note_on_c, 0, 58, 0
3, 217480, Note_on_c, 0, 64, 0
3, 217597, Note_on_c, 0, 75, 0
3, 217724, Note_on_c, 0, 70, 47
3, 217822, Note_on_c, 0, 70, 0
3, 217996, Control_c, 0, 64, 0
3, 218040, Note_on_c, 0, 42, 38
3, 218063, Note_on_c, 0, 76, 36
3, 218065, Note_on_c, 0, 70, 36
3, 218075, Note_on_c, 0, 64, 33
3, 218085, Note_on_c, 0, 52, 17
3, 218171, Note_on_c, 0, 52, 0
3, 218183, Control_c, 0, 64, 127
3, 218204, Note_on_c, 0, 42, 0
3, 218474, Note_on_c, 0, 64, 0
3, 218580, Note_on_c, 0, 70, 0
3, 218589, Note_on_c, 0, 76, 0
3, 219006, Control_c, 0, 64, 0
3, 219059, Note_on_c, 0, 77, 42
3, 219069, Note_on_c, 0, 65, 34
3, 219070, Note_on_c, 0, 41, 20
3, 219072, Note_on_c, 0, 48, 30
3, 219077, Note_on_c, 0, 72, 38
3, 219154, Note_on_c, 0, 77, 0
3, 219189, Note_on_c, 0, 72, 0
3, 219204, Note_on_c, 0, 65, 0
3, 219219, Note_on_c, 0, 48, 0
3, 219302, Note_on_c, 0, 41, 0
3, 219678, Note_on_c, 0, 33, 47
3, 219682, Note_on_c, 0, 68, 57
3, 219686, Note_on_c, 0, 45, 47
3, 219690, Note_on_c, 0, 63, 56
3, 219699, Note_on_c, 0, 57, 50
3, 219976, Control_c, 0, 64, 127
3, 220397, Note_on_c, 0, 33, 0
3, 220514, Note_on_c, 0, 45, 0
3, 220537, Note_on_c, 0, 57, 0
3, 220551, Note_on_c, 0, 68, 0
3, 220662, Note_on_c, 0, 63, 0
3, 220903, Control_c, 0, 64, 0
3, 220943, Note_on_c, 0, 56, 35
3, 220946, Note_on_c, 0, 46, 32
3, 220947, Note_on_c, 0, 67, 38
3, 220952, Note_on_c, 0, 34, 37
3, 220957, Note_on_c, 0, 62, 37
3, 221133, Control_c, 0, 64, 127
3, 221234, Note_on_c, 0, 67, 0
3, 221318, Note_on_c, 0, 62, 0
3, 221368, Note_on_c, 0, 34, 0
3, 221393, Note_on_c, 0, 56, 0
3, 221399, Note_on_c, 0, 46, 0
3, 221895, Control_c, 0, 64, 0
3, 221926, Note_on_c, 0, 56, 29
3, 221930, Note_on_c, 0, 35, 35
3, 221931, Note_on_c, 0, 65, 29
3, 221933, Note_on_c, 0, 47, 29
3, 221945, Note_on_c, 0, 59, 30
3, 222123, Control_c, 0, 64, 127
3, 222341, Note_on_c, 0, 56, 0
3, 222346, Note_on_c, 0, 59, 0
3, 222355, Note_on_c, 0, 35, 0
3, 222408, Note_on_c, 0, 47, 0
3, 222431, Note_on_c, 0, 65, 0
3, 222811, Control_c, 0, 64, 0
3, 222821, Note_on_c, 0, 60, 34
3, 222823, Note_on_c, 0, 57, 38
3, 222832, Note_on_c, 0, 65, 26
3, 222854, Note_on_c, 0, 48, 25
3, 222935, Note_on_c, 0, 57, 0
3, 222968, Note_on_c, 0, 60, 0
3, 223022, Note_on_c, 0, 48, 0
3, 223036, Note_on_c, 0, 65, 0
3, 223405, Note_on_c, 0, 47, 44
3, 223725, Note_on_c, 0, 47, 0
3, 223761, Note_on_c, 0, 48, 32
3, 223802, Control_c, 0, 64, 127
3, 223856, Note_on_c, 0, 48, 0
3, 224373, Note_on_c, 0, 35, 38
3, 224646, Control_c, 0, 64, 0
3, 224678, Note_on_c, 0, 35, 0
3, 224734, Note_on_c, 0, 36, 41
3, 225504, Note_on_c, 0, 36, 0
3, 225568, Note_on_c, 0, 24, 40
3, 226236, Note_on_c, 0, 74, 69
3, 226518, Note_on_c, 0, 74, 0
3, 226528, Note_on_c, 0, 24, 0
3, 226560, Note_on_c, 0, 48, 50
3, 226560, Note_on_c, 0, 41, 44
3, 226595, Note_on_c, 0, 77, 76
3, 226615, Control_c, 0, 64, 127
3, 227076, Note_on_c, 0, 77, 0
3, 227181, Note_on_c, 0, 79, 69
3, 227480, Control_c, 0, 64, 0
3, 227504, Note_on_c, 0, 63, 31
3, 227520, Note_on_c, 0, 41, 0
3, 227520, Note_on_c, 0, 48, 0
3, 227523, Note_on_c, 0, 74, 51
3, 227532, Note_on_c, 0, 67, 25
3, 227536, Note_on_c, 0, 62, 30
3, 227542, Note_on_c, 0, 57, 33
3, 227574, Note_on_c, 0, 79, 0
3, 227635, Note_on_c, 0, 67, 0
3, 227650, Note_on_c, 0, 62, 0
3, 227668, Control_c, 0, 64, 127
3, 227669, Note_on_c, 0, 63, 0
3, 227714, Note_on_c, 0, 57, 0
3, 228063, Note_on_c, 0, 74, 0
3, 228121, Note_on_c, 0, 77, 61
3, 228217, Note_on_c, 0, 77, 0
3, 228336, Control_c, 0, 64, 0
3, 228415, Note_on_c, 0, 41, 20
3, 228419, Note_on_c, 0, 48, 38
3, 228430, Note_on_c, 0, 57, 40
3, 228492, Control_c, 0, 64, 127
3, 228735, Note_on_c, 0, 57, 0
3, 228866, Note_on_c, 0, 48, 0
3, 228943, Note_on_c, 0, 41, 0
3, 229350, Note_on_c, 0, 43, 24
3, 229368, Control_c, 0, 64, 0
3, 229411, Note_on_c, 0, 66, 42
3, 229412, Note_on_c, 0, 47, 37
3, 229415, Note_on_c, 0, 63, 45
3, 229424, Note_on_c, 0, 61, 34
3, 229435, Note_on_c, 0, 57, 19
3, 229451, Note_on_c, 0, 43, 0
3, 229628, Control_c, 0, 64, 127
3, 229797, Note_on_c, 0, 47, 0
3, 229802, Note_on_c, 0, 57, 0
3, 229876, Note_on_c, 0, 66, 0
3, 229930, Note_on_c, 0, 61, 0
3, 229936, Note_on_c, 0, 63, 0
3, 230010, Note_on_c, 0, 56, 46
3, 230013, Note_on_c, 0, 65, 48
3, 230016, Control_c, 0, 64, 0
3, 230020, Note_on_c, 0, 34, 37
3, 230027, Note_on_c, 0, 62, 42
3, 230031, Note_on_c, 0, 46, 31
3, 230192, Control_c, 0, 64, 127
3, 230305, Note_on_c, 0, 56, 0
3, 230373, Note_on_c, 0, 34, 0
3, 230385, Note_on_c, 0, 65, 0
3, 230416, Note_on_c, 0, 62, 0
3, 230461, Note_on_c, 0, 46, 0
3, 230890, Control_c, 0, 64, 0
3, 230926, Note_on_c, 0, 63, 68
3, 230934, Note_on_c, 0, 75, 74
3, 230939, Note_on_c, 0, 68, 70
3, 230946, Note_on_c, 0, 65, 71
3, 230953, Note_on_c, 0, 71, 53
3, 231047, Control_c, 0, 64, 127
3, 231191, Control_c, 0, 64, 0
3, 231192, Note_on_c, 0, 63, 0
3, 231217, Note_on_c, 0, 75, 0
3, 231222, Note_on_c, 0, 68, 0
3, 231223, Note_on_c, 0, 65, 0
3, 231241, Note_on_c, 0, 71, 0
3, 231288, Note_on_c, 0, 74, 64
3, 231297, Note_on_c, 0, 62, 57
3, 231302, Note_on_c, 0, 68, 39
3, 231306, Note_on_c, 0, 71, 29
3, 231307, Note_on_c, 0, 65, 53
3, 231318, Note_on_c, 0, 73, 25
3, 231391, Control_c, 0, 64, 127
3, 231424, Note_on_c, 0, 74, 0
3, 231428, Note_on_c, 0, 71, 0
3, 231432, Note_on_c, 0, 65, 0
3, 231448, Note_on_c, 0, 68, 0
3, 231473, Note_on_c, 0, 73, 0
3, 231479, Note_on_c, 0, 62, 0
3, 231578, Note_on_c, 0, 75, 33
3, 231642, Note_on_c, 0, 75, 0
3, 231861, Note_on_c, 0, 68, 69
3, 231862, Note_on_c, 0, 77, 65
3, 231864, Note_on_c, 0, 71, 65
3, 231881, Note_on_c, 0, 65, 64
3, 231884, Note_on_c, 0, 74, 49
3, 231954, Note_on_c, 0, 77, 0
3, 232043, Note_on_c, 0, 68, 0
3, 232044, Note_on_c, 0, 74, 0
3, 232045, Note_on_c, 0, 65, 0
3, 232061, Note_on_c, 0, 71, 0
3, 232172, Control_c, 0, 64, 0
3, 232224, Note_on_c, 0, 79, 71
3, 232225, Note_on_c, 0, 71, 65
3, 232227, Note_on_c, 0, 67, 60
3, 232228, Note_on_c, 0, 68, 52
3, 232243, Note_on_c, 0, 74, 45
3, 232421, Note_on_c, 0, 79, 0
3, 232425, Note_on_c, 0, 68, 0
3, 232439, Note_on_c, 0, 67, 0
3, 232460, Note_on_c, 0, 71, 0
3, 232470, Note_on_c, 0, 74, 0
3, 232523, Note_on_c, 0, 67, 51
3, 232524, Note_on_c, 0, 68, 46
3, 232528, Note_on_c, 0, 79, 49
3, 232536, Note_on_c, 0, 71, 54
3, 232686, Note_on_c, 0, 79, 0
3, 232695, Note_on_c, 0, 68, 0
3, 232744, Note_on_c, 0, 71, 0
3, 232797, Control_c, 0, 64, 127
3, 232815, Note_on_c, 0, 67, 0
3, 232820, Note_on_c, 0, 68, 31
3, 232821, Note_on_c, 0, 65, 53
3, 232843, Note_on_c, 0, 77, 41
3, 232865, Note_on_c, 0, 71, 29
3, 232902, Control_c, 0, 64, 0
3, 232939, Note_on_c, 0, 71, 0
3, 232951, Note_on_c, 0, 68, 0
3, 233017, Note_on_c, 0, 77, 0
3, 233124, Note_on_c, 0, 68, 60
3, 233127, Note_on_c, 0, 65, 0
3, 233128, Note_on_c, 0, 67, 54
3, 233133, Note_on_c, 0, 71, 62
3, 233135, Note_on_c, 0, 79, 62
3, 233162, Note_on_c, 0, 74, 37
3, 233295, Note_on_c, 0, 67, 0
3, 233298, Note_on_c, 0, 79, 0
3, 233311, Note_on_c, 0, 68, 0
3, 233358, Note_on_c, 0, 71, 0
3, 233369, Note_on_c, 0, 74, 0
3, 233442, Note_on_c, 0, 67, 44
3, 233454, Note_on_c, 0, 68, 36
3, 233455, Note_on_c, 0, 71, 50
3, 233458, Note_on_c, 0, 79, 38
3, 233601, Note_on_c, 0, 68, 0
3, 233607, Note_on_c, 0, 79, 0
3, 233643, Control_c, 0, 64, 127
3, 233693, Note_on_c, 0, 67, 0
3, 233745, Note_on_c, 0, 77, 46
3, 233750, Note_on_c, 0, 68, 25
3, 233754, Note_on_c, 0, 65, 36
3, 233779, Note_on_c, 0, 71, 0
3, 233813, Note_on_c, 0, 68, 0
3, 233842, Note_on_c, 0, 65, 0
3, 233986, Control_c, 0, 64, 0
3, 234001, Note_on_c, 0, 77, 0
3, 234072, Note_on_c, 0, 79, 57
3, 234073, Note_on_c, 0, 65, 44
3, 234078, Note_on_c, 0, 69, 43
3, 234084, Note_on_c, 0, 72, 54
3, 234120, Note_on_c, 0, 65, 0
3, 234140, Note_on_c, 0, 69, 0
3, 234171, Note_on_c, 0, 72, 0
3, 234175, Note_on_c, 0, 79, 0
3, 234466, Control_c, 0, 64, 127
3, 234538, Control_c, 0, 64, 0
3, 234689, Note_on_c, 0, 62, 40
3, 234693, Note_on_c, 0, 77, 53
3, 234714, Note_on_c, 0, 72, 51
3, 234726, Control_c, 0, 64, 127
3, 234728, Note_on_c, 0, 69, 30
3, 234734, Note_on_c, 0, 62, 0
3, 234779, Note_on_c, 0, 77, 0
3, 234781, Note_on_c, 0, 72, 0
3, 234811, Note_on_c, 0, 69, 0
3, 234987, Control_c, 0, 64, 0
3, 235044, Note_on_c, 0, 74, 63
3, 235050, Note_on_c, 0, 68, 53
3, 235057, Note_on_c, 0, 64, 51
3, 235073, Note_on_c, 0, 58, 49
3, 235289, Control_c, 0, 64, 127
3, 235375, Note_on_c, 0, 74, 0
3, 235446, Note_on_c, 0, 64, 0
3, 235529, Note_on_c, 0, 68, 0
3, 235610, Note_on_c, 0, 58, 0
3, 235623, Control_c, 0, 64, 0
3, 235665, Note_on_c, 0, 72, 44
3, 235672, Note_on_c, 0, 67, 49
3, 235676, Note_on_c, 0, 57, 48
3, 235679, Note_on_c, 0, 62, 44
3, 236019, Control_c, 0, 64, 127
3, 236195, Note_on_c, 0, 72, 0
3, 236218, Note_on_c, 0, 67, 0
3, 236321, Note_on_c, 0, 62, 0
3, 236558, Note_on_c, 0, 57, 0
3, 236676, Note_on_c, 0, 64, 57
3, 236677, Note_on_c, 0, 69, 50
3, 236678, Note_on_c, 0, 60, 40
3, 236682, Note_on_c, 0, 53, 25
3, 236696, Control_c, 0, 64, 0
3, 236780, Control_c, 0, 64, 127
3, 237080, Note_on_c, 0, 53, 0
3, 237579, Note_on_c, 0, 60, 0
3, 237583, Note_on_c, 0, 64, 0
3, 237659, Note_on_c, 0, 48, 28
3, 237660, Note_on_c, 0, 69, 0
3, 237698, Note_on_c, 0, 60, 46
3, 237927, Note_on_c, 0, 48, 0
3, 237936, Note_on_c, 0, 60, 0
3, 237947, Control_c, 0, 64, 0
3, 237999, Note_on_c, 0, 41, 34
3, 238008, Note_on_c, 0, 50, 28
3, 238028, Note_on_c, 0, 62, 53
3, 238260, Control_c, 0, 64, 127
3, 238512, Note_on_c, 0, 62, 0
3, 238770, Note_on_c, 0, 50, 0
3, 239000, Control_c, 0, 64, 0
3, 239002, Note_on_c, 0, 59, 46
3, 239034, Note_on_c, 0, 50, 29
3, 239117, Note_on_c, 0, 50, 0
3, 239188, Control_c, 0, 64, 127
3, 239226, Note_on_c, 0, 41, 0
3, 239897, Note_on_c, 0, 29, 35
3, 239902, Note_on_c, 0, 41, 36
3, 239907, Control_c, 0, 64, 0
3, 240081, Note_on_c, 0, 29, 0
3, 240084, Control_c, 0, 64, 127
3, 240208, Note_on_c, 0, 41, 0
3, 240480, Note_on_c, 0, 59, 0
3, 240547, Note_on_c, 0, 45, 40
3, 240722, Note_on_c, 0, 45, 0
3, 240882, Note_on_c, 0, 47, 57
3, 240887, Control_c, 0, 64, 0
3, 241082, Note_on_c, 0, 47, 0
3, 241202, Note_on_c, 0, 36, 39
3, 241248, Note_on_c, 0, 36, 0
3, 241479, Note_on_c, 0, 47, 52
3, 241490, Note_on_c, 0, 57, 58
3, 241494, Note_on_c, 0, 61, 55
3, 241496, Note_on_c, 0, 68, 48
3, 241516, Note_on_c, 0, 65, 55
3, 241606, Control_c, 0, 64, 127
3, 241731, Note_on_c, 0, 57, 0
3, 241741, Note_on_c, 0, 47, 0
3, 241815, Note_on_c, 0, 61, 0
3, 241833, Note_on_c, 0, 65, 0
3, 241842, Note_on_c, 0, 68, 0
3, 241909, Control_c, 0, 64, 0
3, 242154, Note_on_c, 0, 56, 39
3, 242158, Note_on_c, 0, 46, 35
3, 242161, Note_on_c, 0, 60, 38
3, 242195, Note_on_c, 0, 64, 47
3, 242404, Note_on_c, 0, 60, 0
3, 242411, Note_on_c, 0, 46, 0
3, 242412, Note_on_c, 0, 64, 0
3, 242443, Note_on_c, 0, 56, 0
3, 242743, Note_on_c, 0, 56, 40
3, 242747, Note_on_c, 0, 60, 40
3, 242751, Note_on_c, 0, 64, 43
3, 242752, Note_on_c, 0, 46, 32
3, 242978, Note_on_c, 0, 46, 0
3, 242995, Note_on_c, 0, 56, 0
3, 243020, Note_on_c, 0, 64, 0
3, 243020, Note_on_c, 0, 60, 0
3, 243067, Note_on_c, 0, 62, 34
3, 243082, Note_on_c, 0, 56, 34
3, 243084, Note_on_c, 0, 65, 49
3, 243085, Note_on_c, 0, 46, 33
3, 243237, Note_on_c, 0, 62, 0
3, 243254, Note_on_c, 0, 46, 0
3, 243255, Note_on_c, 0, 56, 0
3, 243256, Note_on_c, 0, 65, 0
3, 243725, Note_on_c, 0, 65, 39
3, 243732, Note_on_c, 0, 46, 32
3, 243735, Note_on_c, 0, 62, 34
3, 243764, Control_c, 0, 64, 127
3, 243766, Note_on_c, 0, 56, 15
3, 243918, Note_on_c, 0, 56, 0
3, 243992, Note_on_c, 0, 46, 0
3, 244040, Note_on_c, 0, 62, 0
3, 244046, Note_on_c, 0, 65, 0
3, 244686, Note_on_c, 0, 62, 32
3, 244691, Note_on_c, 0, 74, 44
3, 244697, Note_on_c, 0, 70, 42
3, 244701, Note_on_c, 0, 65, 36
3, 244818, Note_on_c, 0, 62, 0
3, 244907, Note_on_c, 0, 74, 0
3, 244946, Note_on_c, 0, 70, 0
3, 244959, Note_on_c, 0, 65, 0
3, 245290, Note_on_c, 0, 46, 39
3, 245297, Note_on_c, 0, 56, 37
3, 245492, Note_on_c, 0, 46, 0
3, 245526, Note_on_c, 0, 56, 0
3, 245630, Control_c, 0, 64, 0
3, 245650, Note_on_c, 0, 47, 56
3, 245860, Control_c, 0, 64, 127
3, 246090, Note_on_c, 0, 47, 0
3, 246131, Control_c, 0, 64, 0
3, 246257, Note_on_c, 0, 62, 44
3, 246260, Note_on_c, 0, 47, 36
3, 246261, Note_on_c, 0, 59, 41
3, 246277, Note_on_c, 0, 56, 27
3, 246319, Note_on_c, 0, 59, 0
3, 246341, Note_on_c, 0, 62, 0
3, 246346, Note_on_c, 0, 56, 0
3, 246373, Note_on_c, 0, 47, 0
3, 246615, Note_on_c, 0, 47, 43
3, 246617, Note_on_c, 0, 62, 46
3, 246619, Note_on_c, 0, 59, 38
3, 246632, Note_on_c, 0, 56, 31
3, 246683, Control_c, 0, 64, 127
3, 246777, Control_c, 0, 64, 0
3, 246909, Note_on_c, 0, 65, 53
3, 246928, Note_on_c, 0, 59, 0
3, 246978, Note_on_c, 0, 62, 0
3, 247025, Note_on_c, 0, 65, 0
3, 247034, Note_on_c, 0, 56, 0
3, 247239, Note_on_c, 0, 59, 43
3, 247246, Note_on_c, 0, 65, 53
3, 247254, Note_on_c, 0, 62, 37
3, 247371, Note_on_c, 0, 47, 0
3, 247420, Note_on_c, 0, 65, 0
3, 247442, Note_on_c, 0, 59, 0
3, 247447, Note_on_c, 0, 62, 0
3, 247545, Note_on_c, 0, 65, 46
3, 247666, Note_on_c, 0, 65, 0
3, 247866, Note_on_c, 0, 68, 37
3, 247882, Note_on_c, 0, 64, 29
3, 247883, Note_on_c, 0, 62, 20
3, 247888, Note_on_c, 0, 56, 48
3, 247929, Note_on_c, 0, 64, 0
3, 247937, Note_on_c, 0, 62, 0
3, 248010, Note_on_c, 0, 68, 0
3, 248192, Note_on_c, 0, 68, 43
3, 248307, Note_on_c, 0, 68, 0
3, 248503, Note_on_c, 0, 68, 46
3, 248504, Note_on_c, 0, 71, 49
3, 248506, Note_on_c, 0, 56, 0
3, 248507, Note_on_c, 0, 59, 47
3, 248517, Note_on_c, 0, 65, 43
3, 248645, Note_on_c, 0, 71, 0
3, 248675, Note_on_c, 0, 65, 0
3, 248714, Note_on_c, 0, 68, 0
3, 248828, Note_on_c, 0, 68, 32
3, 248905, Note_on_c, 0, 68, 0
3, 249148, Note_on_c, 0, 62, 46
3, 249163, Note_on_c, 0, 74, 57
3, 249196, Note_on_c, 0, 71, 32
3, 249246, Note_on_c, 0, 62, 0
3, 249284, Note_on_c, 0, 74, 0
3, 249310, Note_on_c, 0, 59, 0
3, 249337, Note_on_c, 0, 71, 0
3, 249478, Control_c, 0, 64, 127
3, 249486, Note_on_c, 0, 74, 63
3, 249595, Note_on_c, 0, 74, 0
3, 249769, Control_c, 0, 64, 0
3, 249805, Note_on_c, 0, 72, 38
3, 249806, Note_on_c, 0, 48, 43
3, 249810, Note_on_c, 0, 65, 48
3, 249818, Note_on_c, 0, 57, 43
3, 249928, Note_on_c, 0, 57, 0
3, 249994, Note_on_c, 0, 72, 0
3, 250001, Note_on_c, 0, 65, 0
3, 250008, Control_c, 0, 64, 127
3, 250042, Note_on_c, 0, 48, 0
3, 250116, Note_on_c, 0, 65, 47
3, 250129, Note_on_c, 0, 72, 51
3, 250198, Note_on_c, 0, 65, 0
3, 250257, Note_on_c, 0, 72, 0
3, 250373, Control_c, 0, 64, 0
3, 250455, Note_on_c, 0, 57, 51
3, 250463, Note_on_c, 0, 65, 54
3, 250469, Note_on_c, 0, 81, 66
3, 250481, Note_on_c, 0, 72, 60
3, 250495, Note_on_c, 0, 77, 41
3, 250507, Note_on_c, 0, 60, 30
3, 250522, Note_on_c, 0, 65, 0
3, 250552, Note_on_c, 0, 77, 0
3, 250564, Note_on_c, 0, 60, 0
3, 250569, Note_on_c, 0, 72, 0
3, 250639, Note_on_c, 0, 57, 0
3, 250654, Note_on_c, 0, 81, 0
3, 250707, Control_c, 0, 64, 127
3, 250771, Note_on_c, 0, 81, 55
3, 250927, Note_on_c, 0, 81, 0
3, 250989, Control_c, 0, 64, 0
3, 251076, Note_on_c, 0, 46, 65
3, 251077, Note_on_c, 0, 76, 64
3, 251089, Note_on_c, 0, 72, 45
3, 251208, Note_on_c, 0, 46, 0
3, 251251, Note_on_c, 0, 76, 0
3, 251287, Note_on_c, 0, 72, 0
3, 251333, Control_c, 0, 64, 127
3, 251385, Note_on_c, 0, 76, 52
3, 251481, Note_on_c, 0, 76, 0
3, 251519, Control_c, 0, 64, 0
3, 251700, Note_on_c, 0, 65, 66
3, 251704, Note_on_c, 0, 60, 48
3, 251715, Note_on_c, 0, 84, 83
3, 251717, Note_on_c, 0, 72, 82
3, 251722, Note_on_c, 0, 54, 33
3, 251801, Note_on_c, 0, 65, 0
3, 251849, Note_on_c, 0, 60, 0
3, 251852, Note_on_c, 0, 54, 0
3, 251888, Note_on_c, 0, 84, 0
3, 251956, Note_on_c, 0, 72, 0
3, 252000, Note_on_c, 0, 84, 64
3, 252022, Note_on_c, 0, 72, 25
3, 252052, Control_c, 0, 64, 127
3, 252112, Note_on_c, 0, 84, 0
3, 252120, Note_on_c, 0, 72, 0
3, 252187, Control_c, 0, 64, 0
3, 252274, Note_on_c, 0, 46, 51
3, 252288, Note_on_c, 0, 56, 44
3, 252303, Note_on_c, 0, 76, 62
3, 252304, Note_on_c, 0, 72, 49
3, 252469, Note_on_c, 0, 76, 0
3, 252512, Note_on_c, 0, 72, 0
3, 252638, Note_on_c, 0, 76, 41
3, 252646, Control_c, 0, 64, 127
3, 252654, Note_on_c, 0, 72, 32
3, 252691, Note_on_c, 0, 56, 0
3, 252724, Note_on_c, 0, 72, 0
3, 252737, Note_on_c, 0, 76, 0
3, 252809, Note_on_c, 0, 46, 0
3, 252875, Control_c, 0, 64, 0
3, 252926, Note_on_c, 0, 75, 47
3, 252935, Note_on_c, 0, 67, 51
3, 252940, Note_on_c, 0, 72, 36
3, 252946, Note_on_c, 0, 55, 42
3, 252949, Note_on_c, 0, 45, 53
3, 252969, Note_on_c, 0, 71, 27
3, 253003, Note_on_c, 0, 71, 0
3, 253054, Note_on_c, 0, 45, 0
3, 253122, Note_on_c, 0, 55, 0
3, 253134, Note_on_c, 0, 72, 0
3, 253137, Note_on_c, 0, 75, 0
3, 253178, Note_on_c, 0, 67, 0
3, 253253, Note_on_c, 0, 75, 42
3, 253264, Note_on_c, 0, 72, 32
3, 253317, Note_on_c, 0, 72, 0
3, 253357, Note_on_c, 0, 75, 0
3, 253591, Note_on_c, 0, 87, 79
3, 253594, Note_on_c, 0, 63, 71
3, 253594, Note_on_c, 0, 77, 69
3, 253603, Note_on_c, 0, 84, 58
3, 253604, Note_on_c, 0, 83, 74
3, 253622, Note_on_c, 0, 60, 36
3, 253629, Note_on_c, 0, 55, 24
3, 253639, Note_on_c, 0, 83, 0
3, 253648, Note_on_c, 0, 57, 26
3, 253686, Note_on_c, 0, 60, 0
3, 253695, Note_on_c, 0, 84, 0
3, 253707, Note_on_c, 0, 63, 0
3, 253713, Note_on_c, 0, 77, 0
3, 253714, Note_on_c, 0, 57, 0
3, 253725, Note_on_c, 0, 55, 0
3, 253762, Note_on_c, 0, 87, 0
3, 253892, Note_on_c, 0, 87, 67
3, 253909, Note_on_c, 0, 84, 53
3, 253930, Note_on_c, 0, 79, 47
3, 253948, Note_on_c, 0, 84, 0
3, 253966, Note_on_c, 0, 79, 0
3, 253969, Note_on_c, 0, 87, 0
3, 254222, Note_on_c, 0, 55, 60
3, 254223, Note_on_c, 0, 67, 74
3, 254225, Note_on_c, 0, 75, 69
3, 254238, Note_on_c, 0, 45, 47
3, 254242, Note_on_c, 0, 72, 50
3, 254270, Note_on_c, 0, 55, 0
3, 254281, Note_on_c, 0, 72, 0
3, 254306, Note_on_c, 0, 67, 0
3, 254308, Note_on_c, 0, 45, 0
3, 254344, Note_on_c, 0, 75, 0
3, 254524, Note_on_c, 0, 75, 71
3, 254542, Note_on_c, 0, 67, 64
3, 254578, Note_on_c, 0, 67, 0
3, 254603, Note_on_c, 0, 75, 0
3, 254841, Note_on_c, 0, 55, 84
3, 254851, Note_on_c, 0, 39, 62
3, 254877, Note_on_c, 0, 28, 34
3, 254924, Note_on_c, 0, 28, 0
3, 254968, Note_on_c, 0, 39, 0
3, 255154, Note_on_c, 0, 26, 50
3, 255160, Note_on_c, 0, 38, 39
3, 255174, Note_on_c, 0, 55, 0
3, 255175, Note_on_c, 0, 54, 70
3, 255254, Control_c, 0, 64, 127
3, 255362, Note_on_c, 0, 54, 0
3, 255394, Note_on_c, 0, 26, 0
3, 255486, Note_on_c, 0, 38, 0
3, 256214, Control_c, 0, 64, 0
3, 256251, Note_on_c, 0, 54, 39
3, 256265, Note_on_c, 0, 64, 42
3, 256267, Note_on_c, 0, 72, 38
3, 256268, Note_on_c, 0, 60, 32
3, 256272, Note_on_c, 0, 66, 33
3, 256297, Note_on_c, 0, 69, 27
3, 256369, Control_c, 0, 64, 127
3, 256374, Note_on_c, 0, 60, 0
3, 256433, Note_on_c, 0, 72, 0
3, 256449, Note_on_c, 0, 69, 0
3, 256464, Note_on_c, 0, 54, 0
3, 256489, Note_on_c, 0, 66, 0
3, 256530, Note_on_c, 0, 64, 0
3, 256880, Note_on_c, 0, 59, 45
3, 256884, Note_on_c, 0, 54, 38
3, 256908, Note_on_c, 0, 44, 30
3, 257090, Note_on_c, 0, 54, 0
3, 257109, Note_on_c, 0, 44, 0
3, 257110, Note_on_c, 0, 59, 0
3, 257193, Control_c, 0, 64, 0
3, 257239, Note_on_c, 0, 58, 43
3, 257252, Note_on_c, 0, 53, 27
3, 257254, Note_on_c, 0, 43, 24
3, 257500, Note_on_c, 0, 58, 0
3, 257556, Note_on_c, 0, 60, 32
3, 257622, Note_on_c, 0, 58, 37
3, 257654, Note_on_c, 0, 53, 0
3, 257672, Note_on_c, 0, 60, 0
3, 257757, Note_on_c, 0, 57, 52
3, 257781, Note_on_c, 0, 58, 0
3, 257914, Note_on_c, 0, 57, 0
3, 257944, Note_on_c, 0, 58, 54
3, 258021, Note_on_c, 0, 58, 0
3, 258106, Note_on_c, 0, 62, 55
3, 258171, Note_on_c, 0, 43, 0
3, 258180, Note_on_c, 0, 53, 27
3, 258195, Note_on_c, 0, 62, 0
3, 258251, Note_on_c, 0, 66, 38
3, 258256, Note_on_c, 0, 53, 0
3, 258351, Note_on_c, 0, 66, 0
3, 258419, Note_on_c, 0, 69, 46
3, 258526, Note_on_c, 0, 69, 0
3, 258527, Note_on_c, 0, 66, 38
3, 258588, Note_on_c, 0, 66, 0
3, 258642, Note_on_c, 0, 67, 37
3, 258732, Note_on_c, 0, 67, 0
3, 258761, Note_on_c, 0, 69, 38
3, 258862, Note_on_c, 0, 69, 0
3, 258886, Note_on_c, 0, 70, 52
3, 258922, Note_on_c, 0, 70, 0
3, 259014, Note_on_c, 0, 74, 62
3, 259075, Note_on_c, 0, 58, 38
3, 259088, Note_on_c, 0, 57, 24
3, 259095, Note_on_c, 0, 62, 18
3, 259105, Note_on_c, 0, 74, 0
3, 259177, Note_on_c, 0, 78, 40
3, 259212, Note_on_c, 0, 78, 0
3, 259376, Note_on_c, 0, 84, 69
3, 259450, Note_on_c, 0, 62, 0
3, 259484, Note_on_c, 0, 84, 0
3, 259568, Note_on_c, 0, 58, 0
3, 259617, Note_on_c, 0, 84, 74
3, 259716, Note_on_c, 0, 84, 0
3, 259800, Note_on_c, 0, 57, 0
3, 259842, Note_on_c, 0, 84, 74
3, 259947, Note_on_c, 0, 84, 0
3, 260060, Note_on_c, 0, 84, 71
3, 260082, Note_on_c, 0, 58, 35
3, 260092, Note_on_c, 0, 57, 24
3, 260151, Note_on_c, 0, 57, 0
3, 260166, Note_on_c, 0, 58, 0
3, 260206, Control_c, 0, 64, 127
3, 260248, Note_on_c, 0, 84, 0
3, 260301, Note_on_c, 0, 81, 51
3, 260440, Note_on_c, 0, 81, 0
3, 260536, Note_on_c, 0, 78, 47
3, 260711, Note_on_c, 0, 78, 0
3, 260814, Note_on_c, 0, 81, 52
3, 260988, Control_c, 0, 64, 0
3, 261004, Note_on_c, 0, 81, 0
3, 261050, Note_on_c, 0, 78, 37
3, 261065, Note_on_c, 0, 36, 31
3, 261094, Note_on_c, 0, 52, 22
3, 261218, Note_on_c, 0, 36, 0
3, 261298, Note_on_c, 0, 78, 0
3, 261343, Control_c, 0, 64, 127
3, 261352, Note_on_c, 0, 79, 50
3, 261383, Note_on_c, 0, 52, 0
3, 261480, Note_on_c, 0, 79, 0
3, 261599, Note_on_c, 0, 76, 48
3, 261791, Note_on_c, 0, 76, 0
3, 261844, Note_on_c, 0, 73, 42
3, 261998, Control_c, 0, 64, 0
3, 262011, Note_on_c, 0, 73, 0
3, 262084, Note_on_c, 0, 61, 25
3, 262099, Note_on_c, 0, 58, 35
3, 262103, Note_on_c, 0, 72, 47
3, 262166, Control_c, 0, 64, 127
3, 262221, Note_on_c, 0, 61, 0
3, 262235, Note_on_c, 0, 58, 0
3, 262277, Note_on_c, 0, 72, 0
3, 262674, Note_on_c, 0, 70, 37
3, 262858, Note_on_c, 0, 70, 0
3, 263041, Control_c, 0, 64, 0
3, 263043, Note_on_c, 0, 70, 47
3, 263070, Note_on_c, 0, 65, 54
3, 263073, Note_on_c, 0, 48, 26
3, 263080, Note_on_c, 0, 58, 19
3, 263270, Control_c, 0, 64, 127
3, 263585, Note_on_c, 0, 65, 0
3, 263589, Note_on_c, 0, 58, 0
3, 263654, Note_on_c, 0, 60, 37
3, 263818, Note_on_c, 0, 60, 0
3, 263914, Note_on_c, 0, 48, 0
3, 263950, Note_on_c, 0, 70, 0
3, 263986, Note_on_c, 0, 63, 38
3, 264000, Control_c, 0, 64, 0
3, 264008, Note_on_c, 0, 60, 31
3, 264017, Note_on_c, 0, 51, 28
3, 264204, Note_on_c, 0, 60, 0
3, 264210, Note_on_c, 0, 63, 0
3, 264261, Control_c, 0, 64, 127
3, 264276, Note_on_c, 0, 64, 53
3, 264373, Note_on_c, 0, 64, 0
3, 264480, Control_c, 0, 64, 0
3, 264555, Note_on_c, 0, 51, 0
3, 264600, Note_on_c, 0, 74, 59
3, 264607, Note_on_c, 0, 52, 34
3, 264613, Note_on_c, 0, 70, 53
3, 264616, Control_c, 0, 64, 127
3, 264617, Note_on_c, 0, 62, 51
3, 264754, Note_on_c, 0, 74, 0
3, 264793, Control_c, 0, 64, 0
3, 264821, Note_on_c, 0, 62, 0
3, 264879, Note_on_c, 0, 70, 0
3, 264927, Note_on_c, 0, 69, 57
3, 264937, Note_on_c, 0, 52, 0
3, 264947, Note_on_c, 0, 53, 34
3, 265112, Note_on_c, 0, 69, 0
3, 265178, Note_on_c, 0, 72, 39
3, 265247, Note_on_c, 0, 69, 44
3, 265280, Note_on_c, 0, 65, 59
3, 265298, Note_on_c, 0, 72, 0
3, 265358, Note_on_c, 0, 69, 0
3, 265407, Note_on_c, 0, 65, 0
3, 265428, Note_on_c, 0, 60, 30
3, 265669, Note_on_c, 0, 60, 0
3, 265772, Note_on_c, 0, 45, 38
3, 265776, Note_on_c, 0, 59, 48
3, 265781, Note_on_c, 0, 65, 45
3, 265836, Note_on_c, 0, 53, 0
3, 265846, Control_c, 0, 64, 127
3, 266044, Note_on_c, 0, 45, 0
3, 266465, Note_on_c, 0, 59, 0
3, 266717, Note_on_c, 0, 65, 0
3, 266773, Control_c, 0, 64, 0
3, 266803, Note_on_c, 0, 46, 35
3, 266807, Note_on_c, 0, 34, 33
3, 266808, Note_on_c, 0, 53, 28
3, 266812, Note_on_c, 0, 58, 33
3, 266821, Note_on_c, 0, 62, 35
3, 266972, Control_c, 0, 64, 127
3, 267319, Note_on_c, 0, 53, 0
3, 267322, Note_on_c, 0, 34, 0
3, 267401, Note_on_c, 0, 46, 0
3, 267529, Note_on_c, 0, 58, 0
3, 267532, Note_on_c, 0, 62, 0
3, 267773, Control_c, 0, 64, 0
3, 267820, Note_on_c, 0, 56, 31
3, 267823, Note_on_c, 0, 35, 38
3, 267826, Note_on_c, 0, 47, 32
3, 267830, Note_on_c, 0, 59, 32
3, 267833, Note_on_c, 0, 62, 38
3, 267941, Control_c, 0, 64, 127
3, 268179, Note_on_c, 0, 35, 0
3, 268268, Note_on_c, 0, 59, 0
3, 268272, Note_on_c, 0, 47, 0
3, 268277, Note_on_c, 0, 56, 0
3, 268599, Note_on_c, 0, 62, 0
3, 268692, Control_c, 0, 64, 0
3, 268753, Note_on_c, 0, 60, 36
3, 268758, Note_on_c, 0, 48, 35
3, 268776, Note_on_c, 0, 57, 28
3, 268794, Note_on_c, 0, 36, 26
3, 268900, Control_c, 0, 64, 127
3, 269240, Note_on_c, 0, 36, 0
3, 269333, Note_on_c, 0, 57, 0
3, 269384, Note_on_c, 0, 36, 54
3, 269390, Note_on_c, 0, 60, 0
3, 269479, Note_on_c, 0, 48, 0
3, 269682, Control_c, 0, 64, 0
3, 269719, Note_on_c, 0, 48, 57
3, 269721, Note_on_c, 0, 69, 74
3, 269722, Note_on_c, 0, 72, 60
3, 269724, Note_on_c, 0, 60, 79
3, 269731, Note_on_c, 0, 66, 58
3, 269758, Note_on_c, 0, 71, 44
3, 269782, Note_on_c, 0, 66, 0
3, 269848, Control_c, 0, 64, 127
3, 269921, Note_on_c, 0, 60, 0
3, 269953, Note_on_c, 0, 69, 0
3, 269974, Note_on_c, 0, 71, 0
3, 269997, Note_on_c, 0, 72, 0
3, 270000, Note_on_c, 0, 48, 0
3, 270083, Note_on_c, 0, 36, 0
3, 270287, Note_on_c, 0, 74, 74
3, 270295, Note_on_c, 0, 70, 76
3, 270300, Note_on_c, 0, 64, 74
3, 270386, Note_on_c, 0, 64, 0
3, 270435, Note_on_c, 0, 74, 0
3, 270446, Note_on_c, 0, 70, 0
3, 270568, Control_c, 0, 64, 0
3, 270621, Note_on_c, 0, 24, 54
3, 270634, Note_on_c, 0, 36, 41
3, 270641, Note_on_c, 0, 68, 69
3, 270647, Note_on_c, 0, 72, 60
3, 270673, Note_on_c, 0, 60, 34
3, 270681, Note_on_c, 0, 62, 29
3, 270717, Note_on_c, 0, 62, 0
3, 270746, Note_on_c, 0, 60, 0
3, 270777, Note_on_c, 0, 68, 0
3, 270838, Control_c, 0, 64, 127
3, 270891, Note_on_c, 0, 71, 27
3, 270894, Note_on_c, 0, 69, 50
3, 270986, Note_on_c, 0, 24, 0
3, 270995, Note_on_c, 0, 65, 49
3, 270999, Note_on_c, 0, 72, 0
3, 271041, Note_on_c, 0, 71, 0
3, 271062, Note_on_c, 0, 69, 0
3, 271138, Note_on_c, 0, 65, 0
3, 271146, Note_on_c, 0, 36, 0
3, 271153, Note_on_c, 0, 60, 40
3, 271371, Control_c, 0, 64, 0
3, 271404, Note_on_c, 0, 60, 0
3, 271550, Note_on_c, 0, 59, 66
3, 271554, Note_on_c, 0, 65, 53
3, 271569, Control_c, 0, 64, 127
3, 271584, Note_on_c, 0, 36, 34
3, 271600, Control_c, 0, 64, 0
3, 271686, Note_on_c, 0, 36, 0
3, 271788, Control_c, 0, 64, 127
3, 272147, Note_on_c, 0, 59, 0
3, 272184, Note_on_c, 0, 56, 37
3, 272251, Note_on_c, 0, 65, 0
3, 272454, Control_c, 0, 64, 0
3, 272504, Note_on_c, 0, 56, 0
3, 272550, Note_on_c, 0, 41, 30
3, 272556, Note_on_c, 0, 29, 22
3, 272565, Note_on_c, 0, 57, 46
3, 272690, Note_on_c, 0, 29, 0
3, 272764, Note_on_c, 0, 41, 0
3, 272784, Note_on_c, 0, 57, 0
3, 272875, Note_on_c, 0, 60, 38
3, 273087, Note_on_c, 0, 60, 0
3, 273176, Note_on_c, 0, 62, 39
3, 273323, Note_on_c, 0, 62, 0
3, 273508, Note_on_c, 0, 57, 52
3, 273515, Note_on_c, 0, 65, 45
3, 273519, Note_on_c, 0, 60, 44
3, 273556, Note_on_c, 0, 62, 28
3, 273707, Note_on_c, 0, 62, 0
3, 273719, Note_on_c, 0, 57, 0
3, 273723, Note_on_c, 0, 60, 0
3, 273729, Note_on_c, 0, 65, 0
3, 274162, Note_on_c, 0, 50, 31
3, 274166, Note_on_c, 0, 41, 33
3, 274371, Note_on_c, 0, 41, 0
3, 274425, Note_on_c, 0, 50, 0
3, 274540, Note_on_c, 0, 48, 29
3, 274548, Note_on_c, 0, 41, 18
3, 274798, Note_on_c, 0, 48, 0
3, 274822, Note_on_c, 0, 41, 0
3, 275470, Note_on_c, 0, 47, 36
3, 275472, Note_on_c, 0, 61, 37
3, 275475, Note_on_c, 0, 66, 35
3, 275478, Note_on_c, 0, 57, 36
3, 275484, Note_on_c, 0, 63, 40
3, 275647, Note_on_c, 0, 57, 0
3, 275659, Note_on_c, 0, 47, 0
3, 275684, Note_on_c, 0, 63, 0
3, 275692, Note_on_c, 0, 61, 0
3, 275697, Note_on_c, 0, 66, 0
3, 275783, Note_on_c, 0, 41, 20
3, 275901, Note_on_c, 0, 41, 0
3, 276091, Note_on_c, 0, 34, 46
3, 276118, Note_on_c, 0, 65, 38
3, 276120, Note_on_c, 0, 56, 31
3, 276136, Note_on_c, 0, 62, 33
3, 276330, Note_on_c, 0, 56, 0
3, 276334, Note_on_c, 0, 34, 0
3, 276369, Note_on_c, 0, 62, 0
3, 276384, Note_on_c, 0, 65, 0
3, 276775, Note_on_c, 0, 77, 62
3, 277003, Note_on_c, 0, 77, 0
3, 277396, Note_on_c, 0, 68, 51
3, 277399, Note_on_c, 0, 65, 38
3, 277695, Note_on_c, 0, 65, 0
3, 277703, Note_on_c, 0, 64, 45
3, 277707, Note_on_c, 0, 68, 0
3, 277932, Note_on_c, 0, 64, 0
3, 278636, Note_on_c, 0, 62, 43
3, 278865, Note_on_c, 0, 62, 0
3, 278907, Note_on_c, 0, 65, 52
3, 279136, Note_on_c, 0, 65, 0
3, 279212, Note_on_c, 0, 56, 33
3, 279496, Note_on_c, 0, 56, 0
3, 279508, Note_on_c, 0, 74, 71
3, 279540, Note_on_c, 0, 59, 32
3, 279724, Note_on_c, 0, 59, 0
3, 279779, Note_on_c, 0, 74, 0
3, 279831, Note_on_c, 0, 56, 38
3, 280105, Note_on_c, 0, 56, 0
3, 280157, Note_on_c, 0, 57, 29
3, 280160, Note_on_c, 0, 72, 46
3, 280372, Note_on_c, 0, 72, 0
3, 280458, Note_on_c, 0, 60, 40
3, 280474, Note_on_c, 0, 48, 29
3, 280711, Control_c, 0, 64, 127
3, 280887, Note_on_c, 0, 57, 0
3, 280949, Note_on_c, 0, 60, 0
3, 281107, Control_c, 0, 64, 0
3, 281136, Note_on_c, 0, 57, 36
3, 281144, Note_on_c, 0, 60, 36
3, 281274, Control_c, 0, 64, 127
3, 281520, Note_on_c, 0, 57, 0
3, 281616, Note_on_c, 0, 48, 0
3, 281954, Note_on_c, 0, 60, 0
3, 282141, Note_on_c, 0, 60, 32
3, 282160, Control_c, 0, 64, 0
3, 282170, Note_on_c, 0, 36, 24
3, 282179, Note_on_c, 0, 61, 48
3, 282228, Note_on_c, 0, 36, 0
3, 282246, Note_on_c, 0, 61, 0
3, 282261, Note_on_c, 0, 60, 0
3, 282266, Note_on_c, 0, 62, 39
3, 282420, Note_on_c, 0, 62, 0
3, 282466, Note_on_c, 0, 65, 62
3, 282478, Note_on_c, 0, 36, 37
3, 282490, Note_on_c, 0, 58, 38
3, 282497, Note_on_c, 0, 62, 26
3, 282502, Note_on_c, 0, 53, 24
3, 282513, Note_on_c, 0, 24, 27
3, 282906, Note_on_c, 0, 53, 0
3, 282926, Note_on_c, 0, 62, 0
3, 282948, Note_on_c, 0, 58, 0
3, 282967, Note_on_c, 0, 65, 0
3, 282970, Note_on_c, 0, 36, 0
3, 283098, Control_c, 0, 64, 127
3, 283102, Note_on_c, 0, 58, 37
3, 283105, Note_on_c, 0, 65, 35
3, 283113, Note_on_c, 0, 53, 29
3, 283115, Note_on_c, 0, 62, 41
3, 283191, Note_on_c, 0, 24, 0
3, 283665, Note_on_c, 0, 53, 0
3, 283732, Note_on_c, 0, 36, 37
3, 283750, Note_on_c, 0, 58, 0
3, 283864, Note_on_c, 0, 65, 0
3, 283903, Note_on_c, 0, 62, 0
3, 284025, Control_c, 0, 64, 0
3, 284041, Note_on_c, 0, 36, 0
3, 284097, Note_on_c, 0, 29, 30
3, 284107, Note_on_c, 0, 41, 33
3, 284112, Note_on_c, 0, 65, 40
3, 284117, Note_on_c, 0, 57, 38
3, 284126, Note_on_c, 0, 60, 37
3, 284202, Control_c, 0, 64, 127
3, 284275, Note_on_c, 0, 29, 0
3, 284360, Note_on_c, 0, 41, 0
3, 284488, Note_on_c, 0, 57, 0
3, 284594, Note_on_c, 0, 65, 0
3, 284618, Note_on_c, 0, 60, 0
3, 284984, Control_c, 0, 64, 0
3, 285055, Note_on_c, 0, 65, 57
3, 285059, Note_on_c, 0, 61, 37
3, 285065, Note_on_c, 0, 51, 29
3, 285072, Note_on_c, 0, 47, 32
3, 285073, Note_on_c, 0, 57, 26
3, 285193, Control_c, 0, 64, 127
3, 285305, Note_on_c, 0, 68, 51
3, 285312, Note_on_c, 0, 61, 0
3, 285317, Note_on_c, 0, 65, 0
3, 285384, Note_on_c, 0, 68, 0
3, 285580, Note_on_c, 0, 80, 64
3, 285667, Note_on_c, 0, 80, 0
3, 286027, Note_on_c, 0, 80, 56
3, 286047, Note_on_c, 0, 68, 30
3, 286091, Note_on_c, 0, 68, 0
3, 286150, Note_on_c, 0, 80, 0
3, 286441, Note_on_c, 0, 80, 52
3, 286450, Note_on_c, 0, 92, 43
3, 286524, Note_on_c, 0, 80, 0
3, 286551, Note_on_c, 0, 92, 0
3, 286900, Note_on_c, 0, 92, 56
3, 286935, Note_on_c, 0, 92, 0
3, 287183, Note_on_c, 0, 57, 0
3, 287276, Note_on_c, 0, 47, 0
3, 287305, Note_on_c, 0, 51, 0
3, 287830, Control_c, 0, 64, 0
3, 287874, Note_on_c, 0, 34, 45
3, 287893, Note_on_c, 0, 89, 43
3, 287915, Note_on_c, 0, 101, 22
3, 287958, Note_on_c, 0, 89, 0
3, 287997, Note_on_c, 0, 101, 0
3, 288045, Note_on_c, 0, 34, 0
3, 288497, Control_c, 0, 64, 127
3, 288748, Control_c, 0, 64, 0
3, 288922, Note_on_c, 0, 58, 39
3, 288943, Note_on_c, 0, 62, 17
3, 289053, Note_on_c, 0, 62, 0
3, 289079, Note_on_c, 0, 58, 0
3, 289853, Note_on_c, 0, 47, 29
3, 289855, Note_on_c, 0, 56, 20
3, 290004, Note_on_c, 0, 47, 0
3, 290063, Note_on_c, 0, 56, 0
3, 290764, Note_on_c, 0, 46, 36
3, 290766, Note_on_c, 0, 56, 33
3, 290952, Note_on_c, 0, 56, 0
3, 290955, Note_on_c, 0, 46, 0
3, 291380, Note_on_c, 0, 86, 74
3, 291384, Note_on_c, 0, 74, 70
3, 291721, Note_on_c, 0, 56, 28
3, 291728, Note_on_c, 0, 47, 28
3, 291792, Note_on_c, 0, 47, 0
3, 291821, Note_on_c, 0, 56, 0
3, 292110, Note_on_c, 0, 74, 0
3, 292245, Note_on_c, 0, 86, 0
3, 292282, Note_on_c, 0, 83, 57
3, 292375, Note_on_c, 0, 83, 0
3, 292415, Note_on_c, 0, 80, 54
3, 292546, Note_on_c, 0, 80, 0
3, 292566, Note_on_c, 0, 77, 47
3, 292620, Note_on_c, 0, 77, 0
3, 292721, Note_on_c, 0, 56, 20
3, 292739, Note_on_c, 0, 74, 19
3, 292759, Note_on_c, 0, 59, 15
3, 292835, Note_on_c, 0, 74, 0
3, 292890, Note_on_c, 0, 71, 35
3, 293036, Note_on_c, 0, 68, 51
3, 293048, Note_on_c, 0, 71, 0
3, 293133, Note_on_c, 0, 68, 0
3, 293211, Note_on_c, 0, 59, 0
3, 293227, Note_on_c, 0, 65, 30
3, 293273, Note_on_c, 0, 65, 0
3, 293288, Note_on_c, 0, 56, 0
3, 294136, Note_on_c, 0, 56, 64
3, 294150, Note_on_c, 0, 47, 51
3, 294295, Note_on_c, 0, 56, 0
3, 294305, Note_on_c, 0, 47, 0
3, 294589, Note_on_c, 0, 56, 37
3, 294601, Note_on_c, 0, 47, 33
3, 294753, Note_on_c, 0, 56, 0
3, 294755, Note_on_c, 0, 47, 0
3, 295064, Note_on_c, 0, 56, 48
3, 295074, Note_on_c, 0, 47, 38
3, 295198, Note_on_c, 0, 47, 0
3, 295306, Note_on_c, 0, 56, 0
3, 295547, Note_on_c, 0, 57, 55
3, 295549, Note_on_c, 0, 48, 46
3, 295569, Note_on_c, 0, 86, 80
3, 295653, Note_on_c, 0, 48, 0
3, 295657, Note_on_c, 0, 57, 0
3, 295789, Note_on_c, 0, 86, 0
3, 295800, Note_on_c, 0, 84, 57
3, 295918, Note_on_c, 0, 84, 0
3, 295972, Note_on_c, 0, 81, 57
3, 296083, Note_on_c, 0, 81, 0
3, 296137, Note_on_c, 0, 77, 58
3, 296231, Note_on_c, 0, 77, 0
3, 296295, Note_on_c, 0, 72, 38
3, 296425, Note_on_c, 0, 72, 0
3, 296438, Note_on_c, 0, 70, 38
3, 296543, Note_on_c, 0, 57, 36
3, 296566, Note_on_c, 0, 48, 26
3, 296583, Note_on_c, 0, 70, 0
3, 296596, Note_on_c, 0, 69, 42
3, 296644, Note_on_c, 0, 48, 0
3, 296660, Note_on_c, 0, 57, 0
3, 296735, Note_on_c, 0, 69, 0
3, 297524, Note_on_c, 0, 57, 46
3, 297531, Note_on_c, 0, 48, 40
3, 297762, Note_on_c, 0, 57, 0
3, 297790, Note_on_c, 0, 48, 0
3, 298419, Note_on_c, 0, 55, 31
3, 298421, Note_on_c, 0, 46, 37
3, 298672, Note_on_c, 0, 55, 0
3, 298837, Note_on_c, 0, 46, 0
3, 299357, Note_on_c, 0, 45, 40
3, 299368, Note_on_c, 0, 55, 24
3, 299644, Note_on_c, 0, 45, 0
3, 299691, Note_on_c, 0, 55, 0
3, 299883, Note_on_c, 0, 91, 75
3, 300048, Note_on_c, 0, 91, 0
3, 300054, Note_on_c, 0, 87, 43
3, 300183, Note_on_c, 0, 84, 36
3, 300185, Note_on_c, 0, 87, 0
3, 300294, Note_on_c, 0, 84, 0
3, 300331, Note_on_c, 0, 81, 43
3, 300357, Note_on_c, 0, 63, 42
3, 300413, Note_on_c, 0, 81, 0
3, 300584, Note_on_c, 0, 63, 0
3, 300605, Note_on_c, 0, 77, 32
3, 300685, Note_on_c, 0, 77, 0
3, 301316, Note_on_c, 0, 54, 34
3, 301318, Note_on_c, 0, 60, 27
3, 301328, Note_on_c, 0, 78, 53
3, 301336, Note_on_c, 0, 50, 17
3, 301372, Note_on_c, 0, 78, 0
3, 301405, Note_on_c, 0, 82, 63
3, 301457, Note_on_c, 0, 60, 0
3, 301500, Note_on_c, 0, 78, 49
3, 301512, Note_on_c, 0, 50, 0
3, 301548, Note_on_c, 0, 82, 0
3, 301584, Note_on_c, 0, 78, 0
3, 301720, Note_on_c, 0, 75, 55
3, 301862, Note_on_c, 0, 74, 61
3, 301867, Note_on_c, 0, 75, 0
3, 301874, Note_on_c, 0, 54, 0
3, 301961, Note_on_c, 0, 74, 0
3, 302025, Note_on_c, 0, 72, 30
3, 302078, Note_on_c, 0, 72, 0
3, 302171, Note_on_c, 0, 70, 48
3, 302298, Note_on_c, 0, 54, 33
3, 302323, Note_on_c, 0, 70, 0
3, 302443, Note_on_c, 0, 54, 0
3, 302446, Note_on_c, 0, 64, 37
3, 302557, Note_on_c, 0, 64, 0
3, 302564, Note_on_c, 0, 63, 42
3, 302640, Note_on_c, 0, 63, 0
3, 302665, Note_on_c, 0, 62, 49
3, 302758, Note_on_c, 0, 62, 0
3, 302802, Note_on_c, 0, 61, 49
3, 302864, Note_on_c, 0, 61, 0
3, 302894, Note_on_c, 0, 60, 35
3, 303006, Note_on_c, 0, 60, 0
3, 303080, Note_on_c, 0, 44, 30
3, 303157, Note_on_c, 0, 57, 54
3, 303218, Note_on_c, 0, 57, 0
3, 303250, Note_on_c, 0, 44, 0
3, 303302, Note_on_c, 0, 58, 64
3, 303311, Note_on_c, 0, 43, 25
3, 303315, Note_on_c, 0, 53, 18
3, 303540, Note_on_c, 0, 53, 0
3, 303551, Note_on_c, 0, 58, 0
3, 303647, Note_on_c, 0, 58, 56
3, 303755, Note_on_c, 0, 57, 45
3, 303774, Note_on_c, 0, 58, 0
3, 303860, Note_on_c, 0, 57, 0
3, 303900, Note_on_c, 0, 55, 28
3, 304013, Note_on_c, 0, 55, 0
3, 304023, Note_on_c, 0, 54, 54
3, 304112, Note_on_c, 0, 54, 0
3, 304149, Note_on_c, 0, 57, 59
3, 304258, Note_on_c, 0, 54, 33
3, 304268, Note_on_c, 0, 57, 0
3, 304344, Note_on_c, 0, 54, 0
3, 304376, Note_on_c, 0, 55, 36
3, 304481, Note_on_c, 0, 55, 0
3, 304508, Note_on_c, 0, 57, 50
3, 304605, Note_on_c, 0, 57, 0
3, 304617, Note_on_c, 0, 43, 0
3, 304629, Note_on_c, 0, 58, 55
3, 304663, Note_on_c, 0, 58, 0
3, 304755, Note_on_c, 0, 62, 49
3, 304830, Note_on_c, 0, 62, 0
3, 304874, Note_on_c, 0, 66, 46
3, 304966, Note_on_c, 0, 66, 0
3, 305003, Note_on_c, 0, 69, 42
3, 305121, Note_on_c, 0, 66, 47
3, 305125, Note_on_c, 0, 69, 0
3, 305204, Note_on_c, 0, 66, 0
3, 305249, Note_on_c, 0, 67, 56
3, 305292, Note_on_c, 0, 57, 29
3, 305306, Note_on_c, 0, 62, 24
3, 305307, Note_on_c, 0, 58, 39
3, 305343, Note_on_c, 0, 67, 0
3, 305392, Note_on_c, 0, 62, 0
3, 305394, Note_on_c, 0, 69, 60
3, 305433, Note_on_c, 0, 58, 0
3, 305439, Note_on_c, 0, 69, 0
3, 305491, Note_on_c, 0, 57, 0
3, 305864, Control_c, 0, 64, 127
3, 306261, Control_c, 0, 64, 0
3, 306293, Note_on_c, 0, 58, 39
3, 306299, Note_on_c, 0, 57, 40
3, 306316, Note_on_c, 0, 50, 24
3, 306328, Note_on_c, 0, 53, 22
3, 306409, Note_on_c, 0, 50, 0
3, 306442, Note_on_c, 0, 53, 0
3, 306458, Control_c, 0, 64, 127
3, 306746, Note_on_c, 0, 57, 0
3, 306873, Note_on_c, 0, 58, 0
3, 306894, Note_on_c, 0, 43, 24
3, 307126, Control_c, 0, 64, 0
3, 307201, Note_on_c, 0, 43, 0
3, 307205, Note_on_c, 0, 58, 45
3, 307218, Note_on_c, 0, 52, 30
3, 307229, Note_on_c, 0, 36, 43
3, 307303, Control_c, 0, 64, 127
3, 307310, Note_on_c, 0, 58, 0
3, 307324, Note_on_c, 0, 52, 0
3, 307385, Note_on_c, 0, 36, 0
3, 308088, Note_on_c, 0, 51, 49
3, 308110, Note_on_c, 0, 36, 34
3, 308148, Control_c, 0, 64, 0
3, 308177, Note_on_c, 0, 51, 0
3, 308214, Note_on_c, 0, 36, 0
3, 308229, Note_on_c, 0, 52, 35
3, 308246, Note_on_c, 0, 37, 44
3, 308298, Note_on_c, 0, 52, 0
3, 308350, Note_on_c, 0, 37, 0
3, 308368, Note_on_c, 0, 39, 37
3, 308383, Note_on_c, 0, 54, 27
3, 308410, Note_on_c, 0, 39, 0
3, 308421, Note_on_c, 0, 54, 0
3, 308479, Note_on_c, 0, 55, 31
3, 308560, Note_on_c, 0, 55, 0
3, 308600, Note_on_c, 0, 57, 50
3, 308614, Note_on_c, 0, 42, 34
3, 308676, Note_on_c, 0, 57, 0
3, 308702, Note_on_c, 0, 58, 52
3, 308725, Note_on_c, 0, 43, 27
3, 308731, Note_on_c, 0, 42, 0
3, 308767, Note_on_c, 0, 43, 0
3, 308775, Note_on_c, 0, 45, 49
3, 308778, Note_on_c, 0, 58, 0
3, 308809, Note_on_c, 0, 60, 53
3, 308873, Note_on_c, 0, 45, 0
3, 308893, Note_on_c, 0, 60, 0
3, 308919, Note_on_c, 0, 61, 36
3, 308925, Note_on_c, 0, 47, 40
3, 308974, Note_on_c, 0, 47, 0
3, 309015, Note_on_c, 0, 63, 49
3, 309022, Note_on_c, 0, 61, 0
3, 309058, Note_on_c, 0, 48, 33
3, 309096, Note_on_c, 0, 63, 0
3, 309122, Note_on_c, 0, 64, 60
3, 309124, Note_on_c, 0, 48, 0
3, 309182, Note_on_c, 0, 64, 0
3, 309257, Note_on_c, 0, 66, 27
3, 309263, Note_on_c, 0, 52, 34
3, 309291, Note_on_c, 0, 66, 0
3, 309342, Note_on_c, 0, 67, 41
3, 309374, Note_on_c, 0, 52, 0
3, 309418, Note_on_c, 0, 67, 0
3, 309421, Note_on_c, 0, 54, 29
3, 309474, Note_on_c, 0, 69, 22
3, 309542, Note_on_c, 0, 54, 0
3, 309546, Note_on_c, 0, 70, 38
3, 309547, Note_on_c, 0, 69, 0
3, 309624, Note_on_c, 0, 70, 0
3, 309634, Note_on_c, 0, 71, 54
3, 309696, Note_on_c, 0, 71, 0
3, 309743, Note_on_c, 0, 60, 54
3, 309747, Note_on_c, 0, 72, 58
3, 309905, Note_on_c, 0, 60, 0
3, 309912, Note_on_c, 0, 72, 0
3, 310083, Note_on_c, 0, 48, 64
3, 310266, Note_on_c, 0, 48, 0
3, 310361, Note_on_c, 0, 73, 52
3, 310378, Note_on_c, 0, 64, 62
3, 310383, Note_on_c, 0, 58, 50
3, 310389, Note_on_c, 0, 68, 51
3, 310516, Note_on_c, 0, 64, 0
3, 310532, Note_on_c, 0, 58, 0
3, 310534, Note_on_c, 0, 73, 0
3, 310554, Note_on_c, 0, 68, 0
3, 310666, Note_on_c, 0, 56, 51
3, 310764, Control_c, 0, 64, 127
3, 310869, Control_c, 0, 64, 0
3, 310931, Note_on_c, 0, 56, 0
3, 310979, Note_on_c, 0, 72, 44
3, 310981, Note_on_c, 0, 67, 45
3, 310987, Note_on_c, 0, 57, 39
3, 310997, Note_on_c, 0, 62, 34
3, 311035, Control_c, 0, 64, 127
3, 311077, Note_on_c, 0, 72, 0
3, 311103, Note_on_c, 0, 67, 0
3, 311116, Note_on_c, 0, 57, 0
3, 311176, Note_on_c, 0, 62, 0
3, 311615, Note_on_c, 0, 69, 38
3, 311615, Note_on_c, 0, 60, 40
3, 311617, Note_on_c, 0, 64, 50
3, 312192, Control_c, 0, 64, 0
3, 312248, Note_on_c, 0, 52, 35
3, 312359, Note_on_c, 0, 52, 0
3, 312553, Note_on_c, 0, 39, 50
3, 312558, Control_c, 0, 64, 127
3, 312651, Control_c, 0, 64, 0
3, 312655, Note_on_c, 0, 60, 0
3, 312716, Note_on_c, 0, 39, 0
3, 312762, Note_on_c, 0, 64, 0
3, 312782, Note_on_c, 0, 69, 0
3, 312859, Control_c, 0, 64, 127
3, 312865, Note_on_c, 0, 38, 50
3, 312922, Note_on_c, 0, 38, 0
3, 313498, Note_on_c, 0, 65, 44
3, 313506, Note_on_c, 0, 60, 37
3, 313509, Note_on_c, 0, 54, 34
3, 313521, Note_on_c, 0, 58, 46
3, 313703, Control_c, 0, 64, 0
3, 313843, Note_on_c, 0, 81, 55
3, 313844, Note_on_c, 0, 93, 66
3, 313870, Control_c, 0, 64, 127
3, 313931, Note_on_c, 0, 81, 0
3, 313966, Note_on_c, 0, 93, 0
3, 314006, Control_c, 0, 64, 0
3, 314011, Note_on_c, 0, 65, 0
3, 314018, Note_on_c, 0, 58, 0
3, 314024, Note_on_c, 0, 54, 0
3, 314034, Note_on_c, 0, 60, 0
3, 314154, Note_on_c, 0, 54, 56
3, 314158, Note_on_c, 0, 60, 38
3, 314159, Note_on_c, 0, 96, 75
3, 314164, Note_on_c, 0, 65, 58
3, 314166, Note_on_c, 0, 58, 56
3, 314170, Note_on_c, 0, 84, 67
3, 314215, Control_c, 0, 64, 127
3, 314256, Note_on_c, 0, 84, 0
3, 314264, Note_on_c, 0, 96, 0
3, 314478, Note_on_c, 0, 92, 70
3, 314478, Note_on_c, 0, 80, 67
3, 314531, Note_on_c, 0, 80, 0
3, 314541, Note_on_c, 0, 81, 48
3, 314556, Note_on_c, 0, 93, 60
3, 314572, Note_on_c, 0, 86, 49
3, 314580, Note_on_c, 0, 92, 0
3, 314615, Note_on_c, 0, 93, 0
3, 314634, Note_on_c, 0, 60, 0
3, 314644, Note_on_c, 0, 65, 0
3, 314647, Note_on_c, 0, 81, 0
3, 314684, Control_c, 0, 64, 0
3, 314688, Note_on_c, 0, 86, 0
3, 314731, Note_on_c, 0, 54, 0
3, 314738, Note_on_c, 0, 58, 0
3, 314781, Note_on_c, 0, 64, 50
3, 314800, Note_on_c, 0, 59, 46
3, 314803, Note_on_c, 0, 53, 29
3, 314832, Note_on_c, 0, 86, 47
3, 314833, Note_on_c, 0, 74, 47
3, 314903, Control_c, 0, 64, 127
3, 314999, Note_on_c, 0, 86, 0
3, 315011, Note_on_c, 0, 74, 0
3, 315140, Note_on_c, 0, 74, 41
3, 315147, Note_on_c, 0, 86, 43
3, 315197, Note_on_c, 0, 74, 0
3, 315249, Note_on_c, 0, 86, 0
3, 315398, Note_on_c, 0, 64, 0
3, 315443, Note_on_c, 0, 89, 65
3, 315456, Note_on_c, 0, 77, 52
3, 315459, Note_on_c, 0, 84, 53
3, 315464, Note_on_c, 0, 59, 0
3, 315674, Control_c, 0, 64, 0
3, 315699, Note_on_c, 0, 77, 0
3, 315728, Note_on_c, 0, 64, 47
3, 315749, Note_on_c, 0, 59, 35
3, 315755, Note_on_c, 0, 84, 0
3, 315778, Note_on_c, 0, 89, 0
3, 315830, Control_c, 0, 64, 127
3, 316058, Note_on_c, 0, 95, 67
3, 316070, Note_on_c, 0, 87, 39
3, 316073, Note_on_c, 0, 83, 53
3, 316074, Note_on_c, 0, 59, 0
3, 316083, Note_on_c, 0, 90, 36
3, 316084, Note_on_c, 0, 64, 0
3, 316132, Control_c, 0, 64, 0
3, 316171, Note_on_c, 0, 83, 0
3, 316176, Note_on_c, 0, 53, 0
3, 316190, Note_on_c, 0, 95, 0
3, 316193, Note_on_c, 0, 87, 0
3, 316220, Note_on_c, 0, 90, 0
3, 316372, Note_on_c, 0, 94, 44
3, 316389, Note_on_c, 0, 87, 44
3, 316408, Note_on_c, 0, 82, 26
3, 316467, Note_on_c, 0, 82, 0
3, 316467, Note_on_c, 0, 94, 0
3, 316521, Note_on_c, 0, 87, 0
3, 316708, Note_on_c, 0, 58, 30
3, 316724, Note_on_c, 0, 92, 21
3, 316727, Control_c, 0, 64, 127
3, 316728, Note_on_c, 0, 52, 24
3, 316728, Note_on_c, 0, 80, 30
3, 316736, Note_on_c, 0, 87, 21
3, 316796, Note_on_c, 0, 92, 0
3, 316815, Note_on_c, 0, 87, 0
3, 316828, Note_on_c, 0, 58, 0
3, 316848, Note_on_c, 0, 80, 0
3, 316874, Note_on_c, 0, 52, 0
3, 317036, Note_on_c, 0, 89, 38
3, 317078, Note_on_c, 0, 77, 41
3, 317186, Note_on_c, 0, 77, 0
3, 317254, Note_on_c, 0, 89, 0
3, 317356, Note_on_c, 0, 83, 33
3, 317446, Note_on_c, 0, 83, 0
3, 317658, Note_on_c, 0, 42, 33
3, 317661, Note_on_c, 0, 82, 43
3, 317665, Control_c, 0, 64, 0
3, 317776, Note_on_c, 0, 42, 0
3, 317849, Note_on_c, 0, 82, 0
3, 317963, Note_on_c, 0, 77, 38
3, 318069, Note_on_c, 0, 77, 0
3, 318261, Note_on_c, 0, 80, 58
3, 318273, Note_on_c, 0, 84, 53
3, 318382, Note_on_c, 0, 80, 0
3, 318426, Note_on_c, 0, 81, 32
3, 318566, Note_on_c, 0, 84, 0
3, 318567, Note_on_c, 0, 77, 45
3, 318588, Note_on_c, 0, 81, 0
3, 318620, Note_on_c, 0, 77, 0
3, 318675, Note_on_c, 0, 41, 31
3, 318681, Note_on_c, 0, 72, 38
3, 318690, Note_on_c, 0, 48, 30
3, 318729, Note_on_c, 0, 72, 0
3, 319123, Note_on_c, 0, 70, 56
3, 319141, Note_on_c, 0, 77, 47
3, 319150, Note_on_c, 0, 41, 0
3, 319194, Note_on_c, 0, 77, 0
3, 319197, Note_on_c, 0, 48, 0
3, 319207, Note_on_c, 0, 70, 0
3, 319573, Note_on_c, 0, 68, 56
3, 319581, Note_on_c, 0, 77, 57
3, 319634, Note_on_c, 0, 57, 14
3, 319667, Note_on_c, 0, 68, 0
3, 319753, Note_on_c, 0, 77, 0
3, 319815, Note_on_c, 0, 57, 0
3, 319946, Note_on_c, 0, 41, 36
3, 320024, Note_on_c, 0, 41, 0
3, 320321, Note_on_c, 0, 57, 42
3, 320373, Note_on_c, 0, 57, 0
3, 320847, Note_on_c, 0, 45, 40
3, 320877, Note_on_c, 0, 68, 47
3, 320884, Note_on_c, 0, 63, 51
3, 320892, Note_on_c, 0, 57, 41
3, 320968, Note_on_c, 0, 57, 0
3, 320979, Note_on_c, 0, 68, 0
3, 321007, Note_on_c, 0, 63, 0
3, 321028, Note_on_c, 0, 45, 0
3, 321172, Note_on_c, 0, 38, 51
3, 321277, Note_on_c, 0, 38, 0
3, 321506, Note_on_c, 0, 56, 55
3, 321508, Note_on_c, 0, 33, 49
3, 321510, Note_on_c, 0, 61, 50
3, 321515, Note_on_c, 0, 66, 42
3, 321615, Note_on_c, 0, 56, 0
3, 321656, Note_on_c, 0, 66, 0
3, 321670, Note_on_c, 0, 61, 0
3, 321702, Note_on_c, 0, 33, 0
3, 321862, Note_on_c, 0, 24, 15
3, 321938, Note_on_c, 0, 24, 0
3, 322105, Note_on_c, 0, 21, 58
3, 322131, Note_on_c, 0, 62, 64
3, 322140, Note_on_c, 0, 58, 67
3, 322155, Note_on_c, 0, 55, 36
3, 322157, Note_on_c, 0, 53, 42
3, 322185, Note_on_c, 0, 21, 0
3, 322367, Note_on_c, 0, 55, 0
3, 322401, Note_on_c, 0, 53, 0
3, 322427, Note_on_c, 0, 58, 0
3, 322433, Note_on_c, 0, 22, 52
3, 322448, Note_on_c, 0, 62, 0
3, 322583, Note_on_c, 0, 22, 0
3, 323058, Note_on_c, 0, 58, 39
3, 323251, Note_on_c, 0, 58, 0
3, 323419, Note_on_c, 0, 55, 27
3, 323421, Note_on_c, 0, 46, 32
3, 323431, Note_on_c, 0, 62, 36
3, 323548, Note_on_c, 0, 55, 0
3, 323557, Note_on_c, 0, 62, 0
3, 323579, Note_on_c, 0, 46, 0
3, 323764, Note_on_c, 0, 62, 32
3, 323936, Note_on_c, 0, 62, 0
3, 324070, Note_on_c, 0, 58, 33
3, 324322, Note_on_c, 0, 58, 0
3, 324381, Note_on_c, 0, 56, 23
3, 324383, Note_on_c, 0, 59, 34
3, 324392, Note_on_c, 0, 47, 30
3, 324592, Note_on_c, 0, 59, 0
3, 324627, Note_on_c, 0, 62, 33
3, 324755, Note_on_c, 0, 56, 0
3, 324756, Note_on_c, 0, 62, 0
3, 324827, Note_on_c, 0, 65, 43
3, 324871, Note_on_c, 0, 65, 0
3, 325061, Note_on_c, 0, 68, 40
3, 325167, Note_on_c, 0, 68, 0
3, 325199, Note_on_c, 0, 47, 0
3, 325296, Note_on_c, 0, 76, 70
3, 325338, Note_on_c, 0, 65, 67
3, 325413, Note_on_c, 0, 76, 0
3, 325430, Note_on_c, 0, 65, 0
3, 325570, Note_on_c, 0, 75, 55
3, 325594, Note_on_c, 0, 63, 31
3, 325603, Note_on_c, 0, 68, 25
3, 325664, Note_on_c, 0, 75, 0
3, 325697, Note_on_c, 0, 68, 0
3, 325716, Note_on_c, 0, 63, 0
3, 325792, Note_on_c, 0, 74, 47
3, 325819, Note_on_c, 0, 62, 29
3, 325823, Note_on_c, 0, 65, 27
3, 325841, Note_on_c, 0, 68, 21
3, 325855, Note_on_c, 0, 74, 0
3, 325891, Note_on_c, 0, 65, 0
3, 325912, Note_on_c, 0, 68, 0
3, 325918, Note_on_c, 0, 62, 0
3, 326055, Note_on_c, 0, 61, 49
3, 326068, Note_on_c, 0, 73, 32
3, 326078, Note_on_c, 0, 68, 37
3, 326088, Note_on_c, 0, 65, 34
3, 326165, Note_on_c, 0, 65, 0
3, 326186, Note_on_c, 0, 73, 0
3, 326197, Note_on_c, 0, 61, 0
3, 326201, Note_on_c, 0, 68, 0
3, 326287, Note_on_c, 0, 60, 30
3, 326288, Note_on_c, 0, 72, 43
3, 326291, Note_on_c, 0, 64, 51
3, 326316, Note_on_c, 0, 67, 24
3, 326345, Note_on_c, 0, 72, 0
3, 326352, Note_on_c, 0, 67, 0
3, 326387, Note_on_c, 0, 64, 0
3, 326406, Note_on_c, 0, 60, 0
3, 326558, Note_on_c, 0, 69, 53
3, 326590, Note_on_c, 0, 57, 33
3, 326689, Note_on_c, 0, 69, 0
3, 326735, Note_on_c, 0, 57, 0
3, 326795, Note_on_c, 0, 53, 26
3, 326914, Note_on_c, 0, 53, 0
3, 327260, Note_on_c, 0, 67, 56
3, 327266, Note_on_c, 0, 60, 49
3, 327276, Note_on_c, 0, 55, 38
3, 327304, Note_on_c, 0, 57, 24
3, 327374, Note_on_c, 0, 67, 0
3, 327387, Note_on_c, 0, 57, 0
3, 327396, Note_on_c, 0, 60, 0
3, 327448, Note_on_c, 0, 55, 0
3, 327535, Note_on_c, 0, 66, 46
3, 327545, Note_on_c, 0, 60, 34
3, 327559, Note_on_c, 0, 54, 50
3, 327646, Note_on_c, 0, 66, 0
3, 327654, Note_on_c, 0, 60, 0
3, 327699, Note_on_c, 0, 54, 0
3, 327754, Note_on_c, 0, 60, 36
3, 327770, Note_on_c, 0, 65, 33
3, 327778, Note_on_c, 0, 57, 20
3, 327783, Note_on_c, 0, 53, 26
3, 327829, Note_on_c, 0, 65, 0
3, 327838, Note_on_c, 0, 57, 0
3, 327860, Note_on_c, 0, 60, 0
3, 327916, Note_on_c, 0, 53, 0
3, 328238, Note_on_c, 0, 62, 44
3, 328246, Note_on_c, 0, 50, 41
3, 328255, Note_on_c, 0, 56, 26
3, 328270, Note_on_c, 0, 49, 31
3, 328271, Note_on_c, 0, 57, 32
3, 328284, Note_on_c, 0, 53, 26
3, 328291, Note_on_c, 0, 56, 0
3, 328304, Note_on_c, 0, 49, 0
3, 328421, Note_on_c, 0, 53, 0
3, 328445, Note_on_c, 0, 62, 0
3, 328456, Note_on_c, 0, 57, 0
3, 328476, Note_on_c, 0, 50, 0
3, 328696, Note_on_c, 0, 60, 40
3, 328699, Note_on_c, 0, 48, 36
3, 328707, Note_on_c, 0, 57, 44
3, 328716, Note_on_c, 0, 53, 28
3, 328831, Note_on_c, 0, 53, 0
3, 328856, Note_on_c, 0, 48, 0
3, 328869, Note_on_c, 0, 57, 0
3, 328871, Note_on_c, 0, 60, 0
3, 329172, Note_on_c, 0, 67, 59
3, 329175, Note_on_c, 0, 55, 39
3, 329192, Note_on_c, 0, 59, 42
3, 329196, Note_on_c, 0, 62, 44
3, 329304, Note_on_c, 0, 62, 0
3, 329325, Note_on_c, 0, 67, 0
3, 329349, Note_on_c, 0, 59, 0
3, 329412, Note_on_c, 0, 55, 0
3, 329612, Note_on_c, 0, 65, 53
3, 329618, Note_on_c, 0, 60, 46
3, 329634, Note_on_c, 0, 57, 32
3, 329638, Note_on_c, 0, 53, 38
3, 329688, Note_on_c, 0, 57, 0
3, 329732, Note_on_c, 0, 53, 0
3, 329752, Note_on_c, 0, 60, 0
3, 329774, Note_on_c, 0, 65, 0
3, 330086, Note_on_c, 0, 70, 56
3, 330101, Note_on_c, 0, 65, 49
3, 330103, Note_on_c, 0, 58, 57
3, 330112, Note_on_c, 0, 62, 30
3, 330198, Note_on_c, 0, 58, 0
3, 330216, Note_on_c, 0, 65, 0
3, 330232, Note_on_c, 0, 62, 0
3, 330235, Note_on_c, 0, 70, 0
3, 330534, Note_on_c, 0, 60, 37
3, 330536, Note_on_c, 0, 69, 33
3, 330537, Note_on_c, 0, 65, 37
3, 330542, Note_on_c, 0, 57, 44
3, 330546, Note_on_c, 0, 62, 36
3, 330587, Note_on_c, 0, 60, 0
3, 330599, Note_on_c, 0, 62, 0
3, 330640, Note_on_c, 0, 57, 0
3, 330642, Note_on_c, 0, 65, 0
3, 330660, Note_on_c, 0, 69, 0
3, 331002, Note_on_c, 0, 74, 54
3, 331004, Note_on_c, 0, 62, 44
3, 331011, Note_on_c, 0, 68, 51
3, 331019, Note_on_c, 0, 65, 44
3, 331105, Note_on_c, 0, 62, 0
3, 331108, Note_on_c, 0, 74, 0
3, 331121, Note_on_c, 0, 65, 0
3, 331151, Note_on_c, 0, 68, 0
3, 331462, Note_on_c, 0, 72, 43
3, 331472, Note_on_c, 0, 67, 43
3, 331481, Note_on_c, 0, 60, 42
3, 331546, Note_on_c, 0, 60, 0
3, 331584, Note_on_c, 0, 67, 0
3, 331597, Note_on_c, 0, 72, 0
3, 331926, Note_on_c, 0, 79, 54
3, 331934, Note_on_c, 0, 74, 53
3, 331937, Note_on_c, 0, 67, 44
3, 331958, Note_on_c, 0, 72, 27
3, 332044, Note_on_c, 0, 67, 0
3, 332051, Note_on_c, 0, 72, 0
3, 332053, Note_on_c, 0, 74, 0
3, 332068, Note_on_c, 0, 79, 0
3, 332391, Note_on_c, 0, 77, 50
3, 332403, Note_on_c, 0, 65, 45
3, 332409, Note_on_c, 0, 72, 42
3, 332474, Note_on_c, 0, 65, 0
3, 332476, Note_on_c, 0, 77, 0
3, 332504, Note_on_c, 0, 72, 0
3, 332880, Note_on_c, 0, 61, 36
3, 332890, Note_on_c, 0, 68, 42
3, 332891, Note_on_c, 0, 65, 37
3, 332892, Note_on_c, 0, 57, 53
3, 333031, Note_on_c, 0, 65, 0
3, 333079, Note_on_c, 0, 68, 0
3, 333083, Note_on_c, 0, 61, 0
3, 333091, Note_on_c, 0, 57, 0
3, 333356, Note_on_c, 0, 63, 48
3, 333365, Note_on_c, 0, 47, 37
3, 333372, Note_on_c, 0, 60, 36
3, 333447, Control_c, 0, 64, 127
3, 333478, Note_on_c, 0, 47, 0
3, 333530, Note_on_c, 0, 60, 0
3, 333603, Control_c, 0, 64, 0
3, 333647, Note_on_c, 0, 63, 0
3, 333865, Note_on_c, 0, 62, 42
3, 333874, Note_on_c, 0, 58, 35
3, 333885, Note_on_c, 0, 56, 25
3, 333893, Note_on_c, 0, 46, 30
3, 333896, Control_c, 0, 64, 127
3, 333994, Note_on_c, 0, 58, 0
3, 334079, Note_on_c, 0, 62, 0
3, 334126, Note_on_c, 0, 46, 0
3, 334168, Note_on_c, 0, 56, 0
3, 334896, Control_c, 0, 64, 0
3, 334947, Note_on_c, 0, 70, 64
3, 334956, Note_on_c, 0, 62, 33
3, 334957, Note_on_c, 0, 58, 45
3, 335005, Note_on_c, 0, 62, 0
3, 335037, Note_on_c, 0, 70, 0
3, 335067, Note_on_c, 0, 72, 56
3, 335077, Note_on_c, 0, 58, 0
3, 335175, Note_on_c, 0, 70, 49
3, 335199, Note_on_c, 0, 72, 0
3, 335311, Note_on_c, 0, 70, 0
3, 335353, Note_on_c, 0, 69, 20
3, 335500, Control_c, 0, 64, 127
3, 335718, Note_on_c, 0, 70, 65
3, 335737, Note_on_c, 0, 69, 0
3, 335809, Note_on_c, 0, 70, 0
3, 335908, Control_c, 0, 64, 0
3, 335958, Note_on_c, 0, 58, 37
3, 335963, Note_on_c, 0, 74, 63
3, 335968, Note_on_c, 0, 62, 20
3, 336003, Note_on_c, 0, 62, 0
3, 336068, Note_on_c, 0, 58, 0
3, 336115, Note_on_c, 0, 74, 0
3, 336133, Note_on_c, 0, 76, 47
3, 336221, Note_on_c, 0, 74, 41
3, 336263, Note_on_c, 0, 76, 0
3, 336353, Note_on_c, 0, 73, 35
3, 336358, Note_on_c, 0, 74, 0
3, 336433, Note_on_c, 0, 73, 0
3, 336603, Note_on_c, 0, 74, 22
3, 336748, Note_on_c, 0, 74, 0
3, 336900, Note_on_c, 0, 77, 59
3, 336913, Note_on_c, 0, 58, 36
3, 336962, Note_on_c, 0, 58, 0
3, 336998, Note_on_c, 0, 77, 0
3, 337082, Note_on_c, 0, 79, 37
3, 337159, Note_on_c, 0, 77, 49
3, 337192, Note_on_c, 0, 79, 0
3, 337287, Note_on_c, 0, 77, 0
3, 337293, Note_on_c, 0, 76, 48
3, 337503, Note_on_c, 0, 77, 57
3, 337504, Note_on_c, 0, 76, 0
3, 337606, Note_on_c, 0, 77, 0
3, 337736, Note_on_c, 0, 87, 70
3, 337881, Note_on_c, 0, 87, 0
3, 337934, Note_on_c, 0, 46, 40
3, 337964, Note_on_c, 0, 86, 53
3, 337965, Note_on_c, 0, 58, 28
3, 337983, Note_on_c, 0, 74, 48
3, 338253, Control_c, 0, 64, 127
3, 338572, Note_on_c, 0, 58, 0
3, 338733, Control_c, 0, 64, 0
3, 338880, Note_on_c, 0, 56, 43
3, 338889, Control_c, 0, 64, 127
3, 339382, Note_on_c, 0, 46, 0
3, 339629, Control_c, 0, 64, 0
3, 339637, Note_on_c, 0, 56, 0
3, 339704, Note_on_c, 0, 56, 40
3, 339724, Note_on_c, 0, 47, 35
3, 339817, Control_c, 0, 64, 127
3, 339973, Note_on_c, 0, 47, 0
3, 340019, Note_on_c, 0, 56, 0
3, 340518, Note_on_c, 0, 74, 0
3, 340656, Note_on_c, 0, 86, 0
3, 340728, Note_on_c, 0, 56, 23
3, 340740, Note_on_c, 0, 62, 15
3, 340743, Note_on_c, 0, 53, 22
3, 340757, Note_on_c, 0, 59, 27
3, 340786, Control_c, 0, 64, 0
3, 340995, Note_on_c, 0, 83, 36
3, 341006, Note_on_c, 0, 84, 25
3, 341041, Note_on_c, 0, 84, 0
3, 341209, Note_on_c, 0, 62, 0
3, 341229, Note_on_c, 0, 85, 64
3, 341245, Note_on_c, 0, 83, 0
3, 341270, Note_on_c, 0, 85, 0
3, 341294, Note_on_c, 0, 59, 0
3, 341315, Note_on_c, 0, 53, 0
3, 341326, Note_on_c, 0, 56, 0
3, 341376, Note_on_c, 0, 85, 49
3, 341509, Note_on_c, 0, 86, 76
3, 341511, Note_on_c, 0, 85, 0
3, 341651, Note_on_c, 0, 86, 0
3, 341701, Note_on_c, 0, 84, 69
3, 341732, Note_on_c, 0, 57, 32
3, 341769, Note_on_c, 0, 48, 17
3, 341857, Note_on_c, 0, 84, 0
3, 342138, Note_on_c, 0, 81, 50
3, 342254, Note_on_c, 0, 81, 0
3, 342326, Note_on_c, 0, 77, 49
3, 342362, Note_on_c, 0, 57, 0
3, 342438, Note_on_c, 0, 77, 0
3, 342493, Note_on_c, 0, 72, 44
3, 342600, Note_on_c, 0, 72, 0
3, 342703, Note_on_c, 0, 57, 28
3, 342731, Note_on_c, 0, 72, 43
3, 342777, Control_c, 0, 64, 127
3, 343148, Note_on_c, 0, 57, 0
3, 343231, Note_on_c, 0, 48, 0
3, 343580, Control_c, 0, 64, 0
3, 343638, Note_on_c, 0, 46, 35
3, 343647, Note_on_c, 0, 55, 27
3, 343819, Control_c, 0, 64, 127
3, 344157, Note_on_c, 0, 55, 0
3, 344163, Note_on_c, 0, 72, 0
3, 344205, Note_on_c, 0, 46, 0
3, 344508, Control_c, 0, 64, 0
3, 344559, Note_on_c, 0, 46, 36
3, 344588, Note_on_c, 0, 55, 18
3, 344653, Control_c, 0, 64, 127
3, 345118, Note_on_c, 0, 55, 0
3, 345230, Note_on_c, 0, 52, 18
3, 345285, Note_on_c, 0, 46, 0
3, 345433, Note_on_c, 0, 52, 0
3, 345467, Control_c, 0, 64, 0
3, 345486, Note_on_c, 0, 55, 30
3, 345490, Note_on_c, 0, 88, 71
3, 345502, Note_on_c, 0, 45, 37
3, 345629, Note_on_c, 0, 88, 0
3, 345645, Note_on_c, 0, 83, 54
3, 345738, Note_on_c, 0, 83, 0
3, 345818, Note_on_c, 0, 86, 66
3, 345991, Note_on_c, 0, 84, 40
3, 346002, Note_on_c, 0, 86, 0
3, 346088, Note_on_c, 0, 55, 0
3, 346098, Note_on_c, 0, 84, 0
3, 346154, Note_on_c, 0, 81, 40
3, 346281, Note_on_c, 0, 81, 0
3, 346335, Note_on_c, 0, 76, 45
3, 346447, Note_on_c, 0, 76, 0
3, 346500, Note_on_c, 0, 55, 18
3, 346551, Note_on_c, 0, 72, 36
3, 346585, Note_on_c, 0, 45, 0
3, 346641, Note_on_c, 0, 55, 0
3, 346699, Note_on_c, 0, 72, 0
3, 346768, Note_on_c, 0, 67, 27
3, 346809, Note_on_c, 0, 67, 0
3, 347355, Note_on_c, 0, 54, 31
3, 347361, Note_on_c, 0, 65, 30
3, 347373, Note_on_c, 0, 60, 27
3, 348038, Note_on_c, 0, 65, 0
3, 348062, Note_on_c, 0, 87, 75
3, 348089, Note_on_c, 0, 60, 0
3, 348162, Note_on_c, 0, 54, 0
3, 348188, Note_on_c, 0, 87, 0
3, 348236, Note_on_c, 0, 89, 67
3, 348387, Note_on_c, 0, 89, 0
3, 348425, Note_on_c, 0, 86, 63
3, 348428, Note_on_c, 0, 50, 32
3, 348458, Note_on_c, 0, 54, 29
3, 348465, Note_on_c, 0, 60, 20
3, 348538, Note_on_c, 0, 86, 0
3, 348622, Note_on_c, 0, 87, 72
3, 348795, Note_on_c, 0, 87, 0
3, 348804, Note_on_c, 0, 84, 60
3, 348899, Note_on_c, 0, 84, 0
3, 348967, Note_on_c, 0, 82, 58
3, 348996, Note_on_c, 0, 50, 0
3, 349034, Note_on_c, 0, 54, 0
3, 349094, Note_on_c, 0, 82, 0
3, 349096, Note_on_c, 0, 60, 0
3, 349122, Note_on_c, 0, 81, 53
3, 349212, Note_on_c, 0, 81, 0
3, 349278, Note_on_c, 0, 84, 68
3, 349371, Note_on_c, 0, 57, 24
3, 349373, Note_on_c, 0, 58, 37
3, 349386, Note_on_c, 0, 62, 28
3, 349398, Note_on_c, 0, 53, 17
3, 349438, Note_on_c, 0, 84, 0
3, 349451, Note_on_c, 0, 81, 58
3, 349541, Note_on_c, 0, 81, 0
3, 349602, Note_on_c, 0, 82, 64
3, 349721, Note_on_c, 0, 82, 0
3, 349748, Note_on_c, 0, 78, 55
3, 349840, Note_on_c, 0, 78, 0
3, 349909, Note_on_c, 0, 81, 65
3, 349959, Note_on_c, 0, 62, 0
3, 350052, Note_on_c, 0, 79, 48
3, 350058, Note_on_c, 0, 58, 0
3, 350085, Note_on_c, 0, 81, 0
3, 350185, Note_on_c, 0, 79, 0
3, 350227, Note_on_c, 0, 74, 48
3, 350293, Note_on_c, 0, 74, 0
3, 350339, Note_on_c, 0, 53, 0
3, 350367, Note_on_c, 0, 72, 41
3, 350435, Note_on_c, 0, 58, 21
3, 350518, Note_on_c, 0, 72, 0
3, 350554, Note_on_c, 0, 70, 44
3, 350631, Note_on_c, 0, 70, 0
3, 350851, Note_on_c, 0, 74, 45
3, 350954, Note_on_c, 0, 74, 0
3, 351001, Note_on_c, 0, 69, 30
3, 351067, Note_on_c, 0, 69, 0
3, 351141, Note_on_c, 0, 72, 60
3, 351196, Note_on_c, 0, 57, 0
3, 351324, Note_on_c, 0, 58, 0
3, 351491, Note_on_c, 0, 62, 26
3, 351517, Note_on_c, 0, 55, 24
3, 351577, Note_on_c, 0, 62, 0
3, 351704, Note_on_c, 0, 55, 0
3, 351821, Note_on_c, 0, 65, 52
3, 351986, Note_on_c, 0, 72, 0
3, 352002, Control_c, 0, 64, 127
3, 352280, Note_on_c, 0, 65, 0
3, 352315, Control_c, 0, 64, 0
3, 352361, Note_on_c, 0, 62, 44
3, 352379, Note_on_c, 0, 59, 26
3, 352382, Note_on_c, 0, 49, 30
3, 352439, Note_on_c, 0, 59, 0
3, 352488, Note_on_c, 0, 49, 0
3, 352576, Control_c, 0, 64, 127
3, 352904, Note_on_c, 0, 62, 0
3, 352934, Note_on_c, 0, 63, 53
3, 352969, Note_on_c, 0, 43, 19
3, 353202, Control_c, 0, 64, 0
3, 353228, Note_on_c, 0, 63, 0
3, 353271, Note_on_c, 0, 64, 54
3, 353281, Note_on_c, 0, 36, 24
3, 353287, Note_on_c, 0, 52, 22
3, 353370, Note_on_c, 0, 43, 0
3, 353420, Control_c, 0, 64, 127
3, 353498, Note_on_c, 0, 36, 0
3, 353628, Note_on_c, 0, 52, 0
3, 353738, Note_on_c, 0, 64, 0
3, 353891, Note_on_c, 0, 76, 66
3, 353901, Note_on_c, 0, 72, 65
3, 353905, Note_on_c, 0, 64, 69
3, 354181, Control_c, 0, 64, 0
3, 354205, Note_on_c, 0, 58, 49
3, 354325, Note_on_c, 0, 58, 0
3, 354328, Control_c, 0, 64, 127
3, 354821, Note_on_c, 0, 43, 26
3, 354920, Note_on_c, 0, 76, 0
3, 354926, Note_on_c, 0, 72, 0
3, 354978, Note_on_c, 0, 64, 0
3, 355129, Control_c, 0, 64, 0
3, 355151, Note_on_c, 0, 43, 0
3, 355190, Note_on_c, 0, 74, 48
3, 355191, Note_on_c, 0, 36, 42
3, 355193, Note_on_c, 0, 70, 49
3, 355197, Note_on_c, 0, 62, 41
3, 355210, Note_on_c, 0, 48, 24
3, 355289, Control_c, 0, 64, 127
3, 355322, Note_on_c, 0, 36, 0
3, 355447, Note_on_c, 0, 48, 0
3, 355648, Note_on_c, 0, 74, 0
3, 355721, Note_on_c, 0, 62, 0
3, 355772, Note_on_c, 0, 70, 0
3, 356018, Control_c, 0, 64, 0
3, 356079, Note_on_c, 0, 42, 31
3, 356093, Note_on_c, 0, 61, 54
3, 356094, Note_on_c, 0, 73, 32
3, 356096, Note_on_c, 0, 49, 34
3, 356110, Note_on_c, 0, 70, 43
3, 356230, Note_on_c, 0, 42, 0
3, 356238, Control_c, 0, 64, 127
3, 356280, Note_on_c, 0, 49, 0
3, 356594, Note_on_c, 0, 61, 0
3, 356713, Note_on_c, 0, 73, 0
3, 356859, Note_on_c, 0, 70, 0
3, 356978, Control_c, 0, 64, 0
3, 357057, Note_on_c, 0, 48, 33
3, 357063, Note_on_c, 0, 41, 22
3, 357064, Note_on_c, 0, 60, 43
3, 357066, Note_on_c, 0, 57, 40
3, 357069, Note_on_c, 0, 72, 36
3, 357074, Note_on_c, 0, 69, 42
3, 357168, Control_c, 0, 64, 127
3, 357249, Note_on_c, 0, 57, 0
3, 357570, Note_on_c, 0, 69, 0
3, 357583, Note_on_c, 0, 72, 0
3, 357682, Note_on_c, 0, 60, 0
3, 357797, Note_on_c, 0, 41, 0
3, 357956, Note_on_c, 0, 48, 0
3, 357972, Control_c, 0, 64, 0
3, 357975, Note_on_c, 0, 69, 54
3, 357992, Note_on_c, 0, 64, 58
3, 357999, Note_on_c, 0, 45, 41
3, 358003, Note_on_c, 0, 57, 32
3, 358180, Control_c, 0, 64, 127
3, 358267, Note_on_c, 0, 64, 0
3, 358289, Note_on_c, 0, 69, 0
3, 358359, Note_on_c, 0, 45, 0
3, 358440, Note_on_c, 0, 57, 0
3, 358686, Note_on_c, 0, 65, 43
3, 358688, Note_on_c, 0, 46, 32
3, 358689, Note_on_c, 0, 58, 53
3, 358697, Note_on_c, 0, 53, 44
3, 358701, Control_c, 0, 64, 0
3, 358703, Note_on_c, 0, 62, 51
3, 358718, Note_on_c, 0, 34, 30
3, 359086, Control_c, 0, 64, 127
3, 359455, Note_on_c, 0, 53, 0
3, 359472, Note_on_c, 0, 34, 0
3, 359566, Note_on_c, 0, 62, 0
3, 359589, Note_on_c, 0, 46, 0
3, 359597, Note_on_c, 0, 58, 0
3, 359706, Note_on_c, 0, 65, 0
3, 359732, Control_c, 0, 64, 0
3, 359844, Note_on_c, 0, 56, 34
3, 359847, Note_on_c, 0, 35, 35
3, 359851, Note_on_c, 0, 47, 34
3, 359858, Note_on_c, 0, 62, 43
3, 359862, Note_on_c, 0, 59, 32
3, 359962, Control_c, 0, 64, 127
3, 360074, Note_on_c, 0, 35, 0
3, 360097, Note_on_c, 0, 59, 0
3, 360195, Note_on_c, 0, 47, 0
3, 360230, Note_on_c, 0, 56, 0
3, 360405, Note_on_c, 0, 62, 0
3, 360473, Control_c, 0, 64, 0
3, 360486, Note_on_c, 0, 57, 38
3, 360491, Note_on_c, 0, 60, 33
3, 360492, Note_on_c, 0, 48, 32
3, 360511, Note_on_c, 0, 36, 28
3, 360733, Control_c, 0, 64, 127
3, 361074, Note_on_c, 0, 57, 0
3, 361307, Note_on_c, 0, 36, 0
3, 361394, Note_on_c, 0, 60, 0
3, 362148, Note_on_c, 0, 48, 39
3, 362263, Note_on_c, 0, 64, 49
3, 362332, Note_on_c, 0, 68, 52
3, 362383, Note_on_c, 0, 58, 36
3, 362461, Note_on_c, 0, 74, 71
3, 362559, Control_c, 0, 64, 127
3, 362965, Note_on_c, 0, 48, 0
3, 363272, Note_on_c, 0, 58, 0
3, 363303, Note_on_c, 0, 48, 0
3, 363567, Note_on_c, 0, 74, 0
3, 363621, Note_on_c, 0, 72, 55
3, 364182, Note_on_c, 0, 72, 0
3, 364273, Note_on_c, 0, 68, 0
3, 364394, Note_on_c, 0, 64, 0
3, 365722, Note_on_c, 0, 57, 38
3, 365724, Control_c, 0, 64, 0
3, 365732, Note_on_c, 0, 62, 32
3, 365733, Note_on_c, 0, 67, 32
3, 365738, Note_on_c, 0, 29, 29
3, 365744, Note_on_c, 0, 63, 29
3, 365764, Note_on_c, 0, 41, 30
3, 366176, Note_on_c, 0, 57, 0
3, 366181, Control_c, 0, 64, 127
3, 366282, Note_on_c, 0, 62, 0
3, 366320, Note_on_c, 0, 29, 0
3, 366379, Note_on_c, 0, 67, 0
3, 366412, Note_on_c, 0, 41, 0
3, 366433, Note_on_c, 0, 63, 0
3, 367302, Note_on_c, 0, 74, 38
3, 367462, Note_on_c, 0, 75, 38
3, 367515, Note_on_c, 0, 79, 29
3, 367519, Note_on_c, 0, 83, 38
3, 367622, Note_on_c, 0, 84, 55
3, 367656, Note_on_c, 0, 83, 0
3, 367742, Note_on_c, 0, 86, 44
3, 367800, Note_on_c, 0, 86, 0
3, 367814, Note_on_c, 0, 84, 0
3, 367831, Note_on_c, 0, 87, 55
3, 367873, Note_on_c, 0, 87, 0
3, 367987, Note_on_c, 0, 91, 49
3, 368083, Note_on_c, 0, 91, 0
3, 368092, Note_on_c, 0, 94, 43
3, 368149, Note_on_c, 0, 94, 0
3, 368190, Note_on_c, 0, 95, 38
3, 368302, Note_on_c, 0, 95, 0
3, 368343, Note_on_c, 0, 98, 47
3, 368404, Note_on_c, 0, 98, 0
3, 368433, Note_on_c, 0, 95, 41
3, 368565, Note_on_c, 0, 95, 0
3, 368587, Note_on_c, 0, 96, 24
3, 368676, Note_on_c, 0, 98, 41
3, 368700, Note_on_c, 0, 96, 0
3, 368733, Note_on_c, 0, 98, 0
3, 368779, Note_on_c, 0, 99, 54
3, 368821, Note_on_c, 0, 99, 0
3, 368926, Note_on_c, 0, 100, 59
3, 369040, Note_on_c, 0, 100, 0
3, 369060, Note_on_c, 0, 101, 29
3, 369172, Note_on_c, 0, 101, 0
3, 369194, Note_on_c, 0, 102, 27
3, 369236, Note_on_c, 0, 102, 0
3, 369302, Note_on_c, 0, 103, 36
3, 369447, Note_on_c, 0, 103, 0
3, 369655, Note_on_c, 0, 106, 59
3, 369740, Note_on_c, 0, 106, 0
3, 369762, Note_on_c, 0, 107, 49
3, 369909, Note_on_c, 0, 108, 89
3, 369924, Note_on_c, 0, 107, 0
3, 369970, Control_c, 0, 64, 0
3, 369993, Control_c, 0, 64, 127
3, 370368, Note_on_c, 0, 79, 0
3, 370387, Note_on_c, 0, 74, 0
3, 370392, Note_on_c, 0, 75, 0
3, 370460, Note_on_c, 0, 108, 0
3, 371268, Note_on_c, 0, 29, 32
3, 371551, Note_on_c, 0, 29, 0
3, 373746, Control_c, 0, 64, 0
3, 373746, End_track
0, 0, End_of_file
