0, 0, Header, 1, 4, 960
1, 0, Start_track
1, 0, Title_t, "This Time The Dream's on Me"
1, 0, Text_t, "dougmck@pipeline.com.au. By Harold Arlen\012"
1, 0, Time_signature, 4, 2, 24, 8
1, 0, Key_signature, 1, "major"
1, 0, Tempo, 1333333
1, 172800, Tempo, 666667
1, 172800, End_track
2, 0, Start_track
2, 0, Title_t, "Piano"
2, 0, Program_c, 0, 0
2, 2354, Note_on_c, 0, 61, 49
2, 2373, Note_on_c, 0, 62, 80
2, 2413, Note_on_c, 0, 61, 0
2, 2745, Note_on_c, 0, 62, 0
2, 2789, Note_on_c, 0, 61, 39
2, 2832, Note_on_c, 0, 62, 48
2, 2868, Note_on_c, 0, 61, 0
2, 3139, Note_on_c, 0, 62, 0
2, 3174, Control_c, 0, 64, 127
2, 3265, Note_on_c, 0, 61, 18
2, 3327, Note_on_c, 0, 62, 69
2, 3361, Note_on_c, 0, 61, 0
2, 3562, Note_on_c, 0, 62, 0
2, 3780, Note_on_c, 0, 74, 49
2, 3781, Control_c, 0, 64, 0
2, 3795, Note_on_c, 0, 71, 55
2, 3813, Note_on_c, 0, 55, 33
2, 3821, Note_on_c, 0, 66, 38
2, 3865, Control_c, 0, 64, 127
2, 4690, Note_on_c, 0, 55, 0
2, 4693, Note_on_c, 0, 66, 0
2, 4702, Note_on_c, 0, 74, 0
2, 4719, Note_on_c, 0, 71, 0
2, 4825, Note_on_c, 0, 62, 31
2, 4827, Note_on_c, 0, 57, 29
2, 4832, Note_on_c, 0, 59, 31
2, 4837, Note_on_c, 0, 54, 25
2, 5064, Note_on_c, 0, 54, 0
2, 5170, Note_on_c, 0, 57, 0
2, 5194, Note_on_c, 0, 59, 0
2, 5246, Note_on_c, 0, 62, 0
2, 5502, Note_on_c, 0, 62, 81
2, 5577, Note_on_c, 0, 62, 0
2, 5635, Note_on_c, 0, 66, 85
2, 5756, Note_on_c, 0, 66, 0
2, 5776, Note_on_c, 0, 36, 53
2, 5794, Note_on_c, 0, 43, 45
2, 5834, Note_on_c, 0, 58, 73
2, 5837, Note_on_c, 0, 62, 70
2, 5842, Note_on_c, 0, 52, 46
2, 5843, Note_on_c, 0, 66, 57
2, 5844, Control_c, 0, 64, 0
2, 5865, Note_on_c, 0, 69, 60
2, 6072, Control_c, 0, 64, 127
2, 6403, Note_on_c, 0, 52, 0
2, 6514, Note_on_c, 0, 58, 0
2, 6532, Note_on_c, 0, 62, 0
2, 6551, Note_on_c, 0, 66, 0
2, 6572, Note_on_c, 0, 69, 0
2, 6725, Note_on_c, 0, 58, 35
2, 6728, Note_on_c, 0, 67, 47
2, 6733, Note_on_c, 0, 62, 42
2, 6736, Note_on_c, 0, 52, 29
2, 6738, Note_on_c, 0, 66, 42
2, 6907, Note_on_c, 0, 36, 0
2, 7000, Note_on_c, 0, 43, 0
2, 7060, Note_on_c, 0, 52, 0
2, 7208, Note_on_c, 0, 58, 0
2, 7211, Note_on_c, 0, 62, 0
2, 7241, Note_on_c, 0, 67, 0
2, 7382, Note_on_c, 0, 66, 0
2, 7394, Note_on_c, 0, 62, 18
2, 7460, Note_on_c, 0, 62, 0
2, 7652, Note_on_c, 0, 57, 42
2, 7658, Note_on_c, 0, 62, 41
2, 7661, Control_c, 0, 64, 0
2, 7662, Note_on_c, 0, 54, 33
2, 7674, Note_on_c, 0, 47, 32
2, 7849, Control_c, 0, 64, 127
2, 7937, Note_on_c, 0, 47, 0
2, 7991, Note_on_c, 0, 57, 0
2, 8011, Note_on_c, 0, 54, 0
2, 8157, Note_on_c, 0, 62, 0
2, 8581, Note_on_c, 0, 66, 30
2, 8588, Note_on_c, 0, 61, 34
2, 8595, Note_on_c, 0, 62, 49
2, 9180, Note_on_c, 0, 66, 0
2, 9251, Note_on_c, 0, 62, 0
2, 9293, Note_on_c, 0, 74, 108
2, 9304, Note_on_c, 0, 61, 0
2, 9431, Note_on_c, 0, 74, 0
2, 9440, Note_on_c, 0, 71, 73
2, 9534, Note_on_c, 0, 71, 0
2, 9589, Note_on_c, 0, 65, 41
2, 9590, Note_on_c, 0, 56, 50
2, 9590, Note_on_c, 0, 62, 49
2, 9603, Note_on_c, 0, 59, 46
2, 9614, Note_on_c, 0, 74, 77
2, 9616, Control_c, 0, 64, 0
2, 9618, Note_on_c, 0, 76, 74
2, 9700, Note_on_c, 0, 76, 0
2, 9895, Note_on_c, 0, 73, 37
2, 9940, Note_on_c, 0, 74, 0
2, 9951, Note_on_c, 0, 72, 44
2, 9998, Note_on_c, 0, 73, 0
2, 10051, Note_on_c, 0, 71, 46
2, 10065, Note_on_c, 0, 72, 0
2, 10433, Control_c, 0, 64, 127
2, 11022, Note_on_c, 0, 62, 0
2, 11081, Note_on_c, 0, 65, 0
2, 11108, Note_on_c, 0, 59, 0
2, 11148, Note_on_c, 0, 56, 0
2, 11206, Note_on_c, 0, 72, 57
2, 11228, Note_on_c, 0, 71, 0
2, 11299, Note_on_c, 0, 72, 0
2, 11351, Note_on_c, 0, 74, 62
2, 11436, Note_on_c, 0, 74, 0
2, 11465, Control_c, 0, 64, 0
2, 11510, Note_on_c, 0, 64, 24
2, 11511, Note_on_c, 0, 74, 42
2, 11523, Note_on_c, 0, 57, 28
2, 11529, Note_on_c, 0, 60, 36
2, 11534, Note_on_c, 0, 59, 29
2, 11574, Note_on_c, 0, 59, 0
2, 11584, Note_on_c, 0, 60, 0
2, 11588, Note_on_c, 0, 64, 0
2, 11596, Note_on_c, 0, 74, 0
2, 11600, Note_on_c, 0, 57, 0
2, 11680, Note_on_c, 0, 72, 37
2, 11742, Note_on_c, 0, 72, 0
2, 11818, Note_on_c, 0, 74, 51
2, 11845, Note_on_c, 0, 64, 15
2, 11849, Note_on_c, 0, 59, 30
2, 11858, Note_on_c, 0, 57, 27
2, 11859, Note_on_c, 0, 60, 25
2, 12454, Control_c, 0, 64, 127
2, 12730, Note_on_c, 0, 71, 36
2, 12764, Note_on_c, 0, 64, 0
2, 12792, Note_on_c, 0, 59, 0
2, 12796, Note_on_c, 0, 60, 0
2, 12802, Note_on_c, 0, 57, 0
2, 12907, Note_on_c, 0, 74, 0
2, 12918, Note_on_c, 0, 71, 0
2, 12938, Note_on_c, 0, 72, 50
2, 12958, Control_c, 0, 64, 0
2, 12961, Note_on_c, 0, 59, 32
2, 12978, Note_on_c, 0, 57, 30
2, 13005, Note_on_c, 0, 72, 0
2, 13012, Note_on_c, 0, 59, 0
2, 13013, Note_on_c, 0, 57, 0
2, 13190, Note_on_c, 0, 72, 51
2, 13213, Note_on_c, 0, 64, 36
2, 13228, Note_on_c, 0, 60, 32
2, 13234, Note_on_c, 0, 57, 30
2, 13241, Note_on_c, 0, 59, 24
2, 13258, Note_on_c, 0, 72, 0
2, 13279, Note_on_c, 0, 59, 0
2, 13285, Note_on_c, 0, 64, 0
2, 13288, Note_on_c, 0, 60, 0
2, 13288, Note_on_c, 0, 57, 0
2, 13434, Note_on_c, 0, 72, 48
2, 13452, Note_on_c, 0, 59, 39
2, 13454, Note_on_c, 0, 64, 22
2, 13454, Note_on_c, 0, 60, 36
2, 13463, Note_on_c, 0, 57, 40
2, 13609, Control_c, 0, 64, 127
2, 14160, Note_on_c, 0, 57, 0
2, 14165, Note_on_c, 0, 59, 0
2, 14167, Note_on_c, 0, 64, 0
2, 14182, Note_on_c, 0, 60, 0
2, 14384, Note_on_c, 0, 64, 29
2, 14394, Note_on_c, 0, 60, 35
2, 14394, Note_on_c, 0, 59, 42
2, 14398, Note_on_c, 0, 57, 33
2, 14781, Note_on_c, 0, 72, 0
2, 15128, Note_on_c, 0, 59, 0
2, 15129, Note_on_c, 0, 64, 0
2, 15134, Note_on_c, 0, 60, 0
2, 15176, Note_on_c, 0, 57, 0
2, 15756, Note_on_c, 0, 86, 87
2, 15764, Note_on_c, 0, 82, 82
2, 15766, Control_c, 0, 64, 0
2, 15769, Note_on_c, 0, 77, 80
2, 15771, Note_on_c, 0, 60, 53
2, 15777, Note_on_c, 0, 54, 61
2, 15780, Note_on_c, 0, 64, 60
2, 15946, Control_c, 0, 64, 127
2, 16311, Note_on_c, 0, 60, 0
2, 16522, Note_on_c, 0, 77, 0
2, 16704, Note_on_c, 0, 64, 0
2, 16766, Note_on_c, 0, 86, 0
2, 16772, Note_on_c, 0, 77, 33
2, 16778, Note_on_c, 0, 60, 26
2, 16792, Note_on_c, 0, 82, 0
2, 16813, Note_on_c, 0, 77, 0
2, 16992, Note_on_c, 0, 60, 0
2, 17264, Note_on_c, 0, 74, 57
2, 17269, Note_on_c, 0, 66, 47
2, 17276, Note_on_c, 0, 69, 50
2, 17278, Note_on_c, 0, 62, 40
2, 17325, Control_c, 0, 64, 0
2, 17492, Control_c, 0, 64, 127
2, 17528, Note_on_c, 0, 62, 0
2, 17643, Note_on_c, 0, 66, 0
2, 17706, Note_on_c, 0, 54, 0
2, 17714, Note_on_c, 0, 66, 31
2, 17739, Note_on_c, 0, 62, 37
2, 17996, Note_on_c, 0, 62, 0
2, 18058, Note_on_c, 0, 66, 0
2, 18083, Note_on_c, 0, 69, 0
2, 18195, Note_on_c, 0, 66, 46
2, 18203, Note_on_c, 0, 57, 35
2, 18203, Note_on_c, 0, 62, 45
2, 18213, Note_on_c, 0, 48, 43
2, 18214, Note_on_c, 0, 74, 0
2, 18233, Control_c, 0, 64, 0
2, 18436, Control_c, 0, 64, 127
2, 18769, Note_on_c, 0, 62, 0
2, 18776, Note_on_c, 0, 66, 0
2, 18777, Note_on_c, 0, 48, 0
2, 18839, Note_on_c, 0, 66, 52
2, 18924, Note_on_c, 0, 66, 0
2, 18990, Note_on_c, 0, 66, 43
2, 18996, Note_on_c, 0, 57, 0
2, 19094, Note_on_c, 0, 66, 0
2, 19165, Note_on_c, 0, 71, 52
2, 19171, Note_on_c, 0, 62, 38
2, 19174, Note_on_c, 0, 67, 49
2, 19179, Control_c, 0, 64, 0
2, 19193, Note_on_c, 0, 47, 29
2, 19193, Note_on_c, 0, 57, 24
2, 19355, Control_c, 0, 64, 127
2, 19449, Note_on_c, 0, 62, 0
2, 19469, Note_on_c, 0, 47, 0
2, 19510, Note_on_c, 0, 67, 0
2, 19536, Note_on_c, 0, 57, 0
2, 19544, Note_on_c, 0, 71, 0
2, 19917, Note_on_c, 0, 83, 83
2, 19931, Note_on_c, 0, 79, 81
2, 19937, Note_on_c, 0, 51, 59
2, 19941, Note_on_c, 0, 74, 76
2, 19945, Note_on_c, 0, 62, 59
2, 19948, Note_on_c, 0, 57, 53
2, 20099, Note_on_c, 0, 51, 0
2, 20104, Note_on_c, 0, 74, 0
2, 20116, Note_on_c, 0, 62, 0
2, 20130, Note_on_c, 0, 79, 0
2, 20137, Note_on_c, 0, 83, 0
2, 20147, Note_on_c, 0, 57, 0
2, 20205, Note_on_c, 0, 83, 60
2, 20220, Note_on_c, 0, 51, 42
2, 20221, Control_c, 0, 64, 0
2, 20225, Note_on_c, 0, 62, 43
2, 20225, Note_on_c, 0, 57, 37
2, 20227, Note_on_c, 0, 79, 62
2, 20233, Note_on_c, 0, 74, 56
2, 20286, Control_c, 0, 64, 127
2, 20739, Note_on_c, 0, 57, 0
2, 20761, Note_on_c, 0, 51, 0
2, 20834, Note_on_c, 0, 62, 0
2, 20861, Note_on_c, 0, 79, 0
2, 20865, Note_on_c, 0, 74, 0
2, 20940, Note_on_c, 0, 83, 0
2, 21179, Note_on_c, 0, 83, 37
2, 21195, Control_c, 0, 64, 0
2, 21219, Note_on_c, 0, 83, 0
2, 21642, Note_on_c, 0, 74, 28
2, 21643, Note_on_c, 0, 83, 30
2, 21645, Note_on_c, 0, 79, 27
2, 21649, Note_on_c, 0, 67, 29
2, 21654, Note_on_c, 0, 56, 26
2, 21669, Note_on_c, 0, 62, 25
2, 21707, Note_on_c, 0, 74, 0
2, 21714, Note_on_c, 0, 83, 0
2, 21715, Note_on_c, 0, 79, 0
2, 21726, Note_on_c, 0, 62, 0
2, 21727, Note_on_c, 0, 67, 0
2, 21737, Control_c, 0, 64, 127
2, 21753, Note_on_c, 0, 56, 0
2, 21794, Control_c, 0, 64, 0
2, 21902, Control_c, 0, 64, 127
2, 22074, Control_c, 0, 64, 0
2, 22118, Note_on_c, 0, 76, 43
2, 22118, Note_on_c, 0, 71, 38
2, 22126, Note_on_c, 0, 67, 34
2, 22128, Note_on_c, 0, 62, 43
2, 22132, Note_on_c, 0, 56, 30
2, 22287, Control_c, 0, 64, 127
2, 22586, Note_on_c, 0, 71, 0
2, 22648, Note_on_c, 0, 67, 0
2, 22665, Note_on_c, 0, 76, 0
2, 22686, Note_on_c, 0, 56, 0
2, 22740, Note_on_c, 0, 62, 0
2, 23073, Note_on_c, 0, 57, 46
2, 23077, Note_on_c, 0, 55, 66
2, 23080, Note_on_c, 0, 84, 85
2, 23085, Note_on_c, 0, 64, 64
2, 23085, Note_on_c, 0, 72, 78
2, 23087, Note_on_c, 0, 79, 74
2, 23089, Note_on_c, 0, 60, 60
2, 23095, Control_c, 0, 64, 0
2, 23261, Control_c, 0, 64, 127
2, 23480, Note_on_c, 0, 84, 0
2, 23519, Note_on_c, 0, 79, 0
2, 23593, Note_on_c, 0, 72, 0
2, 23616, Note_on_c, 0, 64, 0
2, 23706, Note_on_c, 0, 60, 0
2, 24029, Note_on_c, 0, 64, 40
2, 24031, Note_on_c, 0, 60, 35
2, 24201, Note_on_c, 0, 60, 0
2, 24271, Note_on_c, 0, 64, 0
2, 24348, Note_on_c, 0, 71, 68
2, 24517, Note_on_c, 0, 55, 0
2, 24518, Note_on_c, 0, 57, 0
2, 24551, Note_on_c, 0, 71, 0
2, 24664, Note_on_c, 0, 69, 61
2, 24745, Note_on_c, 0, 69, 0
2, 24972, Note_on_c, 0, 60, 40
2, 24978, Note_on_c, 0, 67, 40
2, 24978, Note_on_c, 0, 64, 46
2, 24981, Note_on_c, 0, 55, 38
2, 24991, Note_on_c, 0, 50, 36
2, 25006, Control_c, 0, 64, 0
2, 25237, Control_c, 0, 64, 127
2, 25638, Note_on_c, 0, 55, 0
2, 25877, Note_on_c, 0, 50, 0
2, 26179, Note_on_c, 0, 60, 0
2, 26271, Note_on_c, 0, 67, 0
2, 26397, Note_on_c, 0, 48, 39
2, 26411, Note_on_c, 0, 64, 0
2, 26417, Note_on_c, 0, 55, 27
2, 26654, Note_on_c, 0, 55, 0
2, 26661, Note_on_c, 0, 48, 0
2, 26667, Note_on_c, 0, 66, 83
2, 26843, Note_on_c, 0, 66, 0
2, 26897, Control_c, 0, 64, 0
2, 26929, Note_on_c, 0, 64, 53
2, 26932, Note_on_c, 0, 61, 46
2, 26933, Note_on_c, 0, 57, 48
2, 26936, Note_on_c, 0, 47, 45
2, 26999, Note_on_c, 0, 57, 0
2, 27034, Control_c, 0, 64, 127
2, 27041, Note_on_c, 0, 61, 0
2, 27054, Note_on_c, 0, 64, 0
2, 27124, Note_on_c, 0, 47, 0
2, 27213, Note_on_c, 0, 76, 75
2, 27324, Note_on_c, 0, 76, 0
2, 27480, Note_on_c, 0, 76, 90
2, 27608, Note_on_c, 0, 76, 0
2, 27698, Note_on_c, 0, 76, 76
2, 27817, Note_on_c, 0, 76, 0
2, 27910, Note_on_c, 0, 76, 57
2, 27923, Note_on_c, 0, 64, 38
2, 27926, Note_on_c, 0, 73, 37
2, 27932, Note_on_c, 0, 66, 33
2, 27941, Note_on_c, 0, 69, 42
2, 27954, Note_on_c, 0, 62, 29
2, 28108, Note_on_c, 0, 76, 0
2, 28196, Note_on_c, 0, 76, 49
2, 28310, Note_on_c, 0, 76, 0
2, 28316, Note_on_c, 0, 64, 0
2, 28361, Note_on_c, 0, 66, 0
2, 28391, Note_on_c, 0, 62, 0
2, 28394, Note_on_c, 0, 76, 41
2, 28410, Note_on_c, 0, 61, 18
2, 28437, Note_on_c, 0, 73, 0
2, 28446, Note_on_c, 0, 61, 0
2, 28505, Note_on_c, 0, 76, 0
2, 28573, Note_on_c, 0, 69, 0
2, 28606, Note_on_c, 0, 76, 54
2, 28711, Note_on_c, 0, 76, 0
2, 28793, Note_on_c, 0, 76, 35
2, 28811, Note_on_c, 0, 72, 37
2, 28817, Note_on_c, 0, 67, 33
2, 28824, Control_c, 0, 64, 0
2, 28825, Note_on_c, 0, 62, 30
2, 28830, Note_on_c, 0, 56, 39
2, 29034, Control_c, 0, 64, 127
2, 29283, Note_on_c, 0, 67, 0
2, 29341, Note_on_c, 0, 62, 0
2, 29364, Note_on_c, 0, 72, 0
2, 29407, Note_on_c, 0, 76, 0
2, 29798, Note_on_c, 0, 67, 27
2, 29811, Note_on_c, 0, 62, 24
2, 29945, Note_on_c, 0, 82, 43
2, 30034, Note_on_c, 0, 82, 0
2, 30063, Note_on_c, 0, 83, 56
2, 30095, Note_on_c, 0, 67, 0
2, 30111, Note_on_c, 0, 62, 0
2, 30174, Note_on_c, 0, 84, 71
2, 30185, Note_on_c, 0, 83, 0
2, 30224, Note_on_c, 0, 56, 0
2, 30243, Note_on_c, 0, 84, 0
2, 30287, Note_on_c, 0, 88, 65
2, 30344, Note_on_c, 0, 88, 0
2, 30406, Note_on_c, 0, 91, 66
2, 30464, Note_on_c, 0, 91, 0
2, 30539, Note_on_c, 0, 95, 82
2, 30629, Note_on_c, 0, 95, 0
2, 30662, Note_on_c, 0, 98, 85
2, 30693, Control_c, 0, 64, 0
2, 30694, Note_on_c, 0, 64, 43
2, 30697, Note_on_c, 0, 60, 48
2, 30714, Note_on_c, 0, 59, 44
2, 30771, Note_on_c, 0, 98, 0
2, 30817, Note_on_c, 0, 96, 64
2, 30924, Note_on_c, 0, 96, 0
2, 30949, Note_on_c, 0, 92, 47
2, 31022, Note_on_c, 0, 92, 0
2, 31054, Note_on_c, 0, 95, 68
2, 31171, Note_on_c, 0, 92, 49
2, 31185, Note_on_c, 0, 95, 0
2, 31249, Note_on_c, 0, 92, 0
2, 31298, Note_on_c, 0, 93, 62
2, 31388, Note_on_c, 0, 93, 0
2, 31414, Note_on_c, 0, 88, 43
2, 31457, Note_on_c, 0, 88, 0
2, 31504, Note_on_c, 0, 64, 0
2, 31542, Note_on_c, 0, 91, 81
2, 31650, Note_on_c, 0, 91, 0
2, 31668, Note_on_c, 0, 64, 32
2, 31684, Note_on_c, 0, 93, 55
2, 31743, Note_on_c, 0, 91, 40
2, 31756, Note_on_c, 0, 93, 0
2, 31833, Note_on_c, 0, 88, 34
2, 31845, Note_on_c, 0, 91, 0
2, 31905, Note_on_c, 0, 88, 0
2, 32023, Note_on_c, 0, 89, 34
2, 32079, Note_on_c, 0, 89, 0
2, 32503, Note_on_c, 0, 89, 40
2, 32597, Note_on_c, 0, 89, 0
2, 32608, Note_on_c, 0, 64, 0
2, 32616, Note_on_c, 0, 88, 38
2, 32694, Note_on_c, 0, 88, 0
2, 32738, Note_on_c, 0, 90, 51
2, 32749, Note_on_c, 0, 54, 25
2, 32756, Note_on_c, 0, 64, 16
2, 33175, Control_c, 0, 64, 127
2, 33224, Note_on_c, 0, 90, 0
2, 33358, Note_on_c, 0, 54, 0
2, 33403, Note_on_c, 0, 59, 0
2, 33440, Note_on_c, 0, 60, 0
2, 33442, Note_on_c, 0, 64, 0
2, 33485, Note_on_c, 0, 54, 44
2, 33523, Note_on_c, 0, 54, 0
2, 33631, Control_c, 0, 64, 0
2, 33635, Note_on_c, 0, 81, 80
2, 33636, Note_on_c, 0, 74, 89
2, 33638, Note_on_c, 0, 78, 70
2, 33640, Note_on_c, 0, 54, 79
2, 33641, Note_on_c, 0, 86, 78
2, 33644, Note_on_c, 0, 60, 79
2, 33646, Note_on_c, 0, 65, 82
2, 33656, Note_on_c, 0, 84, 48
2, 33828, Note_on_c, 0, 84, 0
2, 33833, Control_c, 0, 64, 127
2, 33856, Note_on_c, 0, 86, 0
2, 33862, Note_on_c, 0, 74, 0
2, 33876, Note_on_c, 0, 54, 0
2, 33878, Note_on_c, 0, 78, 0
2, 33880, Note_on_c, 0, 65, 0
2, 33886, Note_on_c, 0, 81, 0
2, 33913, Note_on_c, 0, 60, 0
2, 33941, Control_c, 0, 64, 0
2, 33942, Note_on_c, 0, 78, 70
2, 33946, Note_on_c, 0, 86, 79
2, 33947, Note_on_c, 0, 81, 53
2, 33948, Note_on_c, 0, 74, 80
2, 33953, Note_on_c, 0, 65, 74
2, 33954, Note_on_c, 0, 54, 81
2, 33961, Note_on_c, 0, 60, 83
2, 34036, Control_c, 0, 64, 127
2, 34062, Note_on_c, 0, 65, 0
2, 34063, Note_on_c, 0, 74, 0
2, 34065, Note_on_c, 0, 86, 0
2, 34070, Note_on_c, 0, 78, 0
2, 34072, Note_on_c, 0, 54, 0
2, 34078, Note_on_c, 0, 81, 0
2, 34085, Note_on_c, 0, 60, 0
2, 34120, Note_on_c, 0, 54, 65
2, 34123, Note_on_c, 0, 65, 62
2, 34126, Note_on_c, 0, 78, 64
2, 34127, Note_on_c, 0, 81, 57
2, 34128, Note_on_c, 0, 86, 64
2, 34129, Note_on_c, 0, 74, 64
2, 34131, Note_on_c, 0, 60, 71
2, 34267, Note_on_c, 0, 74, 0
2, 34273, Note_on_c, 0, 54, 0
2, 34278, Note_on_c, 0, 65, 0
2, 34280, Note_on_c, 0, 86, 0
2, 34284, Note_on_c, 0, 81, 0
2, 34286, Note_on_c, 0, 78, 0
2, 34315, Note_on_c, 0, 60, 0
2, 34386, Note_on_c, 0, 78, 62
2, 34393, Note_on_c, 0, 54, 67
2, 34394, Note_on_c, 0, 60, 58
2, 34394, Note_on_c, 0, 86, 64
2, 34396, Note_on_c, 0, 74, 67
2, 34400, Note_on_c, 0, 81, 53
2, 34458, Note_on_c, 0, 81, 0
2, 34479, Note_on_c, 0, 60, 0
2, 34486, Note_on_c, 0, 74, 0
2, 34502, Note_on_c, 0, 78, 0
2, 34507, Note_on_c, 0, 86, 0
2, 34522, Note_on_c, 0, 54, 0
2, 34571, Control_c, 0, 64, 0
2, 34588, Note_on_c, 0, 83, 70
2, 34589, Note_on_c, 0, 74, 70
2, 34591, Note_on_c, 0, 54, 43
2, 34599, Note_on_c, 0, 86, 53
2, 34600, Note_on_c, 0, 62, 53
2, 34605, Note_on_c, 0, 59, 54
2, 34773, Control_c, 0, 64, 127
2, 35035, Note_on_c, 0, 86, 0
2, 35066, Note_on_c, 0, 83, 0
2, 35098, Note_on_c, 0, 62, 0
2, 35116, Note_on_c, 0, 74, 0
2, 35207, Note_on_c, 0, 59, 0
2, 35535, Note_on_c, 0, 74, 50
2, 35559, Note_on_c, 0, 66, 31
2, 35561, Note_on_c, 0, 71, 41
2, 35563, Note_on_c, 0, 59, 28
2, 35570, Note_on_c, 0, 69, 35
2, 35585, Note_on_c, 0, 62, 24
2, 35699, Note_on_c, 0, 74, 0
2, 35700, Note_on_c, 0, 69, 0
2, 35716, Note_on_c, 0, 71, 0
2, 35768, Note_on_c, 0, 62, 0
2, 35771, Note_on_c, 0, 66, 0
2, 35800, Note_on_c, 0, 59, 0
2, 35834, Note_on_c, 0, 54, 0
2, 36154, Note_on_c, 0, 62, 35
2, 36222, Note_on_c, 0, 62, 0
2, 36294, Note_on_c, 0, 66, 57
2, 36379, Note_on_c, 0, 66, 0
2, 36473, Note_on_c, 0, 43, 30
2, 36476, Note_on_c, 0, 58, 37
2, 36477, Note_on_c, 0, 36, 34
2, 36479, Note_on_c, 0, 69, 44
2, 36491, Note_on_c, 0, 66, 36
2, 36495, Note_on_c, 0, 62, 46
2, 36497, Control_c, 0, 64, 0
2, 36499, Note_on_c, 0, 52, 37
2, 36712, Note_on_c, 0, 62, 0
2, 36713, Note_on_c, 0, 58, 0
2, 36724, Note_on_c, 0, 36, 0
2, 36725, Note_on_c, 0, 69, 0
2, 36731, Note_on_c, 0, 66, 0
2, 36731, Note_on_c, 0, 52, 0
2, 36737, Note_on_c, 0, 43, 0
2, 36955, Note_on_c, 0, 58, 37
2, 36963, Note_on_c, 0, 69, 37
2, 36966, Note_on_c, 0, 43, 34
2, 36967, Note_on_c, 0, 36, 44
2, 36976, Note_on_c, 0, 62, 47
2, 36988, Note_on_c, 0, 66, 36
2, 37141, Note_on_c, 0, 62, 0
2, 37148, Note_on_c, 0, 58, 0
2, 37149, Note_on_c, 0, 69, 0
2, 37153, Note_on_c, 0, 36, 0
2, 37160, Note_on_c, 0, 66, 0
2, 37171, Note_on_c, 0, 43, 0
2, 37416, Note_on_c, 0, 58, 56
2, 37429, Note_on_c, 0, 69, 46
2, 37431, Note_on_c, 0, 62, 43
2, 37438, Note_on_c, 0, 43, 35
2, 37438, Note_on_c, 0, 36, 33
2, 37444, Note_on_c, 0, 66, 33
2, 37531, Note_on_c, 0, 58, 0
2, 37542, Note_on_c, 0, 69, 0
2, 37549, Note_on_c, 0, 62, 0
2, 37572, Note_on_c, 0, 66, 0
2, 37580, Note_on_c, 0, 36, 0
2, 37595, Note_on_c, 0, 43, 0
2, 37870, Note_on_c, 0, 43, 37
2, 37871, Note_on_c, 0, 36, 24
2, 37879, Note_on_c, 0, 58, 29
2, 37891, Note_on_c, 0, 62, 42
2, 37893, Note_on_c, 0, 66, 39
2, 37910, Note_on_c, 0, 69, 16
2, 37966, Note_on_c, 0, 52, 4
2, 37969, Note_on_c, 0, 36, 0
2, 38007, Note_on_c, 0, 43, 0
2, 38018, Note_on_c, 0, 62, 0
2, 38057, Note_on_c, 0, 58, 0
2, 38068, Note_on_c, 0, 66, 0
2, 38076, Note_on_c, 0, 69, 0
2, 38082, Note_on_c, 0, 52, 0
2, 38215, Control_c, 0, 64, 127
2, 38302, Control_c, 0, 64, 0
2, 38359, Note_on_c, 0, 54, 35
2, 38364, Note_on_c, 0, 66, 45
2, 38369, Note_on_c, 0, 62, 29
2, 38370, Note_on_c, 0, 57, 29
2, 38380, Note_on_c, 0, 47, 32
2, 38482, Control_c, 0, 64, 127
2, 38776, Note_on_c, 0, 57, 0
2, 38923, Note_on_c, 0, 66, 0
2, 38929, Note_on_c, 0, 62, 0
2, 39367, Note_on_c, 0, 57, 45
2, 39386, Note_on_c, 0, 54, 0
2, 39664, Note_on_c, 0, 86, 99
2, 39687, Note_on_c, 0, 47, 0
2, 39843, Note_on_c, 0, 83, 35
2, 39845, Note_on_c, 0, 86, 0
2, 39871, Note_on_c, 0, 57, 0
2, 39905, Note_on_c, 0, 83, 0
2, 40146, Note_on_c, 0, 85, 58
2, 40259, Note_on_c, 0, 85, 0
2, 40316, Note_on_c, 0, 86, 67
2, 40318, Note_on_c, 0, 56, 31
2, 40324, Note_on_c, 0, 62, 33
2, 40330, Control_c, 0, 64, 0
2, 40339, Note_on_c, 0, 59, 34
2, 40394, Note_on_c, 0, 86, 0
2, 40989, Note_on_c, 0, 83, 61
2, 41067, Note_on_c, 0, 83, 0
2, 41113, Note_on_c, 0, 84, 68
2, 41174, Note_on_c, 0, 84, 0
2, 41251, Note_on_c, 0, 85, 48
2, 41333, Note_on_c, 0, 85, 0
2, 41386, Note_on_c, 0, 86, 58
2, 41437, Note_on_c, 0, 86, 0
2, 41783, Note_on_c, 0, 83, 60
2, 41821, Note_on_c, 0, 59, 0
2, 41854, Note_on_c, 0, 56, 0
2, 41902, Note_on_c, 0, 84, 55
2, 41936, Note_on_c, 0, 83, 0
2, 41979, Note_on_c, 0, 84, 0
2, 42024, Note_on_c, 0, 62, 0
2, 42065, Note_on_c, 0, 85, 58
2, 42196, Note_on_c, 0, 85, 0
2, 42232, Note_on_c, 0, 86, 57
2, 42243, Note_on_c, 0, 60, 30
2, 42244, Note_on_c, 0, 64, 27
2, 42251, Note_on_c, 0, 59, 34
2, 42260, Note_on_c, 0, 55, 40
2, 42332, Note_on_c, 0, 86, 0
2, 42394, Note_on_c, 0, 83, 41
2, 42476, Note_on_c, 0, 83, 0
2, 42550, Note_on_c, 0, 84, 22
2, 42612, Note_on_c, 0, 84, 0
2, 42692, Note_on_c, 0, 85, 46
2, 42790, Note_on_c, 0, 85, 0
2, 42830, Note_on_c, 0, 86, 56
2, 42890, Note_on_c, 0, 86, 0
2, 43180, Note_on_c, 0, 86, 53
2, 43289, Note_on_c, 0, 86, 0
2, 43522, Note_on_c, 0, 86, 55
2, 43683, Note_on_c, 0, 83, 36
2, 43714, Note_on_c, 0, 86, 0
2, 43936, Note_on_c, 0, 86, 56
2, 43953, Control_c, 0, 64, 127
2, 43970, Note_on_c, 0, 83, 0
2, 43989, Note_on_c, 0, 55, 0
2, 44020, Note_on_c, 0, 64, 0
2, 44031, Note_on_c, 0, 59, 0
2, 44039, Note_on_c, 0, 60, 0
2, 44058, Note_on_c, 0, 86, 0
2, 44100, Note_on_c, 0, 64, 29
2, 44105, Control_c, 0, 64, 0
2, 44118, Note_on_c, 0, 83, 35
2, 44120, Note_on_c, 0, 60, 22
2, 44137, Note_on_c, 0, 59, 30
2, 44141, Note_on_c, 0, 55, 36
2, 44215, Note_on_c, 0, 83, 0
2, 44222, Note_on_c, 0, 55, 0
2, 44235, Note_on_c, 0, 64, 0
2, 44236, Note_on_c, 0, 59, 0
2, 44240, Note_on_c, 0, 60, 0
2, 44604, Note_on_c, 0, 83, 37
2, 44605, Note_on_c, 0, 64, 26
2, 44611, Note_on_c, 0, 60, 29
2, 44625, Note_on_c, 0, 59, 36
2, 44631, Note_on_c, 0, 55, 32
2, 44673, Control_c, 0, 64, 127
2, 45241, Note_on_c, 0, 59, 0
2, 45253, Note_on_c, 0, 55, 0
2, 45258, Note_on_c, 0, 60, 0
2, 45268, Note_on_c, 0, 64, 0
2, 45566, Note_on_c, 0, 64, 24
2, 45567, Note_on_c, 0, 55, 30
2, 45569, Note_on_c, 0, 59, 34
2, 45575, Note_on_c, 0, 60, 37
2, 45713, Note_on_c, 0, 55, 0
2, 45801, Note_on_c, 0, 59, 0
2, 45817, Note_on_c, 0, 64, 0
2, 45822, Note_on_c, 0, 60, 0
2, 45873, Note_on_c, 0, 55, 36
2, 45909, Note_on_c, 0, 83, 0
2, 45932, Note_on_c, 0, 55, 0
2, 46040, Note_on_c, 0, 86, 78
2, 46042, Note_on_c, 0, 78, 68
2, 46043, Note_on_c, 0, 74, 78
2, 46050, Note_on_c, 0, 81, 62
2, 46053, Control_c, 0, 64, 0
2, 46053, Note_on_c, 0, 60, 68
2, 46054, Note_on_c, 0, 54, 71
2, 46056, Note_on_c, 0, 64, 71
2, 46197, Control_c, 0, 64, 127
2, 46397, Note_on_c, 0, 64, 0
2, 46419, Note_on_c, 0, 60, 0
2, 46420, Note_on_c, 0, 74, 0
2, 46423, Note_on_c, 0, 54, 0
2, 46434, Note_on_c, 0, 81, 0
2, 46436, Note_on_c, 0, 78, 0
2, 46449, Note_on_c, 0, 86, 0
2, 46524, Note_on_c, 0, 86, 65
2, 46528, Note_on_c, 0, 74, 63
2, 46529, Note_on_c, 0, 78, 50
2, 46533, Note_on_c, 0, 54, 64
2, 46536, Note_on_c, 0, 81, 58
2, 46540, Note_on_c, 0, 60, 60
2, 46541, Note_on_c, 0, 64, 60
2, 46673, Note_on_c, 0, 86, 0
2, 46688, Note_on_c, 0, 81, 0
2, 46709, Note_on_c, 0, 78, 0
2, 46711, Note_on_c, 0, 64, 0
2, 46713, Note_on_c, 0, 74, 0
2, 46783, Note_on_c, 0, 60, 0
2, 46886, Note_on_c, 0, 54, 0
2, 47013, Note_on_c, 0, 74, 75
2, 47020, Note_on_c, 0, 66, 77
2, 47022, Note_on_c, 0, 62, 76
2, 47029, Note_on_c, 0, 54, 52
2, 47030, Note_on_c, 0, 60, 61
2, 47035, Note_on_c, 0, 69, 52
2, 47273, Note_on_c, 0, 62, 0
2, 47278, Note_on_c, 0, 60, 0
2, 47307, Note_on_c, 0, 54, 0
2, 47309, Note_on_c, 0, 69, 0
2, 47321, Note_on_c, 0, 74, 0
2, 47328, Note_on_c, 0, 66, 0
2, 47467, Note_on_c, 0, 54, 65
2, 47467, Note_on_c, 0, 74, 68
2, 47469, Note_on_c, 0, 66, 75
2, 47475, Note_on_c, 0, 69, 62
2, 47477, Note_on_c, 0, 62, 70
2, 47478, Note_on_c, 0, 60, 52
2, 47537, Note_on_c, 0, 60, 0
2, 47609, Note_on_c, 0, 54, 0
2, 47632, Note_on_c, 0, 62, 0
2, 47671, Note_on_c, 0, 66, 0
2, 47712, Note_on_c, 0, 74, 0
2, 47737, Note_on_c, 0, 69, 0
2, 47915, Control_c, 0, 64, 0
2, 47916, Note_on_c, 0, 74, 74
2, 47916, Note_on_c, 0, 66, 83
2, 47922, Note_on_c, 0, 62, 82
2, 47924, Note_on_c, 0, 48, 68
2, 47925, Note_on_c, 0, 69, 64
2, 47928, Note_on_c, 0, 57, 68
2, 48138, Control_c, 0, 64, 127
2, 48158, Note_on_c, 0, 62, 0
2, 48215, Note_on_c, 0, 57, 0
2, 48231, Note_on_c, 0, 69, 0
2, 48233, Note_on_c, 0, 74, 0
2, 48239, Note_on_c, 0, 66, 0
2, 48390, Note_on_c, 0, 74, 53
2, 48392, Note_on_c, 0, 66, 56
2, 48403, Note_on_c, 0, 57, 47
2, 48406, Note_on_c, 0, 69, 45
2, 48408, Note_on_c, 0, 62, 52
2, 48639, Note_on_c, 0, 62, 0
2, 48653, Note_on_c, 0, 57, 0
2, 48670, Note_on_c, 0, 66, 0
2, 48689, Note_on_c, 0, 69, 0
2, 48872, Note_on_c, 0, 66, 33
2, 48878, Note_on_c, 0, 57, 40
2, 48881, Note_on_c, 0, 62, 33
2, 48889, Note_on_c, 0, 69, 24
2, 49083, Note_on_c, 0, 57, 0
2, 49136, Note_on_c, 0, 62, 0
2, 49151, Note_on_c, 0, 66, 0
2, 49335, Note_on_c, 0, 57, 34
2, 49343, Note_on_c, 0, 66, 37
2, 49348, Note_on_c, 0, 62, 32
2, 49444, Note_on_c, 0, 74, 0
2, 49493, Note_on_c, 0, 48, 0
2, 49499, Note_on_c, 0, 57, 0
2, 49583, Note_on_c, 0, 62, 0
2, 49634, Note_on_c, 0, 66, 0
2, 49671, Note_on_c, 0, 69, 0
2, 49823, Note_on_c, 0, 71, 35
2, 49827, Note_on_c, 0, 62, 28
2, 49833, Note_on_c, 0, 67, 38
2, 49834, Control_c, 0, 64, 0
2, 49838, Note_on_c, 0, 57, 27
2, 49839, Note_on_c, 0, 47, 34
2, 50066, Control_c, 0, 64, 127
2, 50278, Note_on_c, 0, 57, 0
2, 50492, Note_on_c, 0, 62, 0
2, 50529, Note_on_c, 0, 67, 0
2, 50839, Note_on_c, 0, 71, 0
2, 50882, Note_on_c, 0, 51, 29
2, 50884, Note_on_c, 0, 62, 25
2, 50884, Note_on_c, 0, 67, 34
2, 50895, Note_on_c, 0, 57, 28
2, 51369, Note_on_c, 0, 47, 0
2, 51400, Note_on_c, 0, 51, 0
2, 51428, Note_on_c, 0, 57, 0
2, 51517, Note_on_c, 0, 62, 0
2, 51604, Note_on_c, 0, 67, 0
2, 51810, Note_on_c, 0, 56, 37
2, 51817, Note_on_c, 0, 62, 32
2, 51820, Control_c, 0, 64, 0
2, 51829, Note_on_c, 0, 52, 32
2, 51999, Control_c, 0, 64, 127
2, 52136, Note_on_c, 0, 67, 49
2, 52189, Note_on_c, 0, 52, 0
2, 52191, Note_on_c, 0, 67, 0
2, 52216, Note_on_c, 0, 56, 0
2, 52239, Note_on_c, 0, 62, 0
2, 52269, Note_on_c, 0, 72, 64
2, 52343, Note_on_c, 0, 72, 0
2, 52414, Note_on_c, 0, 79, 53
2, 52447, Note_on_c, 0, 79, 0
2, 52547, Note_on_c, 0, 84, 88
2, 52640, Note_on_c, 0, 84, 0
2, 52684, Note_on_c, 0, 88, 80
2, 52792, Note_on_c, 0, 88, 0
2, 52846, Note_on_c, 0, 91, 79
2, 52917, Control_c, 0, 64, 0
2, 52925, Note_on_c, 0, 91, 0
2, 53011, Note_on_c, 0, 86, 62
2, 53016, Note_on_c, 0, 67, 36
2, 53017, Note_on_c, 0, 56, 39
2, 53031, Note_on_c, 0, 91, 36
2, 53032, Note_on_c, 0, 62, 45
2, 53059, Note_on_c, 0, 87, 37
2, 53138, Note_on_c, 0, 86, 0
2, 53148, Note_on_c, 0, 91, 0
2, 53161, Note_on_c, 0, 87, 0
2, 53168, Note_on_c, 0, 62, 0
2, 53177, Note_on_c, 0, 88, 20
2, 53217, Note_on_c, 0, 67, 0
2, 53220, Note_on_c, 0, 88, 0
2, 53243, Note_on_c, 0, 56, 0
2, 53409, Control_c, 0, 64, 127
2, 53451, Control_c, 0, 64, 0
2, 53495, Control_c, 0, 64, 127
2, 53502, Note_on_c, 0, 86, 62
2, 53515, Note_on_c, 0, 67, 32
2, 53525, Note_on_c, 0, 56, 31
2, 53531, Note_on_c, 0, 62, 36
2, 53559, Note_on_c, 0, 67, 0
2, 53561, Note_on_c, 0, 62, 0
2, 53595, Note_on_c, 0, 86, 0
2, 53620, Note_on_c, 0, 83, 36
2, 53639, Note_on_c, 0, 56, 0
2, 53688, Note_on_c, 0, 83, 0
2, 53718, Control_c, 0, 64, 0
2, 53731, Note_on_c, 0, 84, 57
2, 53737, Note_on_c, 0, 64, 20
2, 53759, Note_on_c, 0, 55, 22
2, 53761, Note_on_c, 0, 60, 34
2, 53762, Note_on_c, 0, 59, 31
2, 54058, Control_c, 0, 64, 127
2, 54408, Note_on_c, 0, 60, 0
2, 54416, Note_on_c, 0, 59, 0
2, 54427, Note_on_c, 0, 64, 0
2, 54431, Note_on_c, 0, 84, 0
2, 54713, Note_on_c, 0, 60, 40
2, 54720, Note_on_c, 0, 64, 34
2, 54720, Note_on_c, 0, 59, 26
2, 54985, Note_on_c, 0, 83, 94
2, 55006, Note_on_c, 0, 74, 89
2, 55169, Note_on_c, 0, 83, 0
2, 55169, Note_on_c, 0, 55, 0
2, 55195, Note_on_c, 0, 74, 0
2, 55223, Note_on_c, 0, 64, 0
2, 55287, Note_on_c, 0, 81, 79
2, 55310, Note_on_c, 0, 72, 75
2, 55315, Note_on_c, 0, 64, 39
2, 55325, Note_on_c, 0, 55, 34
2, 55421, Note_on_c, 0, 59, 0
2, 55423, Note_on_c, 0, 64, 0
2, 55423, Note_on_c, 0, 55, 0
2, 55446, Note_on_c, 0, 60, 0
2, 55460, Note_on_c, 0, 81, 0
2, 55502, Note_on_c, 0, 72, 0
2, 55621, Note_on_c, 0, 79, 60
2, 55631, Control_c, 0, 64, 0
2, 55633, Note_on_c, 0, 60, 46
2, 55640, Note_on_c, 0, 71, 54
2, 55642, Note_on_c, 0, 64, 44
2, 55647, Note_on_c, 0, 54, 38
2, 55848, Control_c, 0, 64, 127
2, 56247, Note_on_c, 0, 64, 0
2, 56310, Note_on_c, 0, 60, 0
2, 56390, Note_on_c, 0, 71, 0
2, 56543, Note_on_c, 0, 79, 0
2, 56598, Note_on_c, 0, 78, 39
2, 56601, Note_on_c, 0, 69, 42
2, 56606, Note_on_c, 0, 64, 29
2, 56610, Note_on_c, 0, 60, 31
2, 56856, Note_on_c, 0, 64, 0
2, 56887, Note_on_c, 0, 60, 0
2, 56995, Note_on_c, 0, 54, 0
2, 57019, Note_on_c, 0, 78, 0
2, 57070, Note_on_c, 0, 69, 0
2, 57411, Note_on_c, 0, 50, 37
2, 57543, Control_c, 0, 64, 0
2, 57557, Note_on_c, 0, 66, 42
2, 57566, Note_on_c, 0, 62, 48
2, 57567, Note_on_c, 0, 57, 28
2, 57569, Note_on_c, 0, 43, 24
2, 57570, Note_on_c, 0, 59, 47
2, 57575, Note_on_c, 0, 54, 34
2, 57631, Note_on_c, 0, 50, 0
2, 57642, Note_on_c, 0, 43, 0
2, 57652, Note_on_c, 0, 62, 0
2, 57653, Note_on_c, 0, 59, 0
2, 57666, Note_on_c, 0, 57, 0
2, 57688, Note_on_c, 0, 66, 0
2, 57732, Note_on_c, 0, 54, 0
2, 57885, Note_on_c, 0, 69, 54
2, 57887, Note_on_c, 0, 57, 43
2, 57891, Note_on_c, 0, 62, 54
2, 57894, Note_on_c, 0, 66, 53
2, 57897, Note_on_c, 0, 59, 41
2, 57963, Control_c, 0, 64, 127
2, 57993, Note_on_c, 0, 66, 0
2, 57998, Control_c, 0, 64, 0
2, 58010, Note_on_c, 0, 62, 0
2, 58034, Note_on_c, 0, 59, 0
2, 58061, Note_on_c, 0, 69, 0
2, 58062, Note_on_c, 0, 57, 0
2, 58074, Note_on_c, 0, 54, 35
2, 58301, Control_c, 0, 64, 127
2, 58390, Note_on_c, 0, 51, 29
2, 58445, Note_on_c, 0, 54, 0
2, 58489, Control_c, 0, 64, 0
2, 58529, Note_on_c, 0, 51, 0
2, 58532, Note_on_c, 0, 67, 49
2, 58535, Note_on_c, 0, 62, 32
2, 58544, Note_on_c, 0, 55, 29
2, 58549, Note_on_c, 0, 59, 26
2, 59033, Note_on_c, 0, 67, 0
2, 59038, Control_c, 0, 64, 127
2, 59052, Note_on_c, 0, 62, 0
2, 59100, Note_on_c, 0, 55, 0
2, 59101, Note_on_c, 0, 59, 0
2, 59343, Note_on_c, 0, 49, 48
2, 59345, Note_on_c, 0, 61, 44
2, 59365, Note_on_c, 0, 56, 38
2, 59370, Control_c, 0, 64, 0
2, 59375, Note_on_c, 0, 58, 35
2, 59460, Note_on_c, 0, 56, 0
2, 59481, Note_on_c, 0, 58, 0
2, 59516, Note_on_c, 0, 61, 0
2, 59542, Note_on_c, 0, 49, 0
2, 59557, Note_on_c, 0, 50, 40
2, 59567, Note_on_c, 0, 55, 39
2, 59572, Note_on_c, 0, 62, 51
2, 59574, Note_on_c, 0, 59, 33
2, 60021, Control_c, 0, 64, 127
2, 60255, Note_on_c, 0, 59, 0
2, 60345, Note_on_c, 0, 50, 0
2, 60396, Note_on_c, 0, 55, 0
2, 60470, Note_on_c, 0, 62, 0
2, 60882, Control_c, 0, 64, 0
2, 60916, Note_on_c, 0, 64, 60
2, 60920, Note_on_c, 0, 52, 51
2, 60927, Note_on_c, 0, 60, 54
2, 60935, Note_on_c, 0, 57, 29
2, 61010, Note_on_c, 0, 57, 0
2, 61019, Note_on_c, 0, 60, 0
2, 61045, Note_on_c, 0, 64, 0
2, 61183, Note_on_c, 0, 52, 0
2, 61200, Note_on_c, 0, 64, 52
2, 61201, Note_on_c, 0, 67, 62
2, 61204, Note_on_c, 0, 55, 62
2, 61205, Note_on_c, 0, 60, 66
2, 61206, Note_on_c, 0, 57, 69
2, 61219, Note_on_c, 0, 65, 43
2, 61260, Note_on_c, 0, 64, 0
2, 61287, Note_on_c, 0, 65, 0
2, 61292, Note_on_c, 0, 60, 0
2, 61292, Note_on_c, 0, 67, 0
2, 61311, Note_on_c, 0, 55, 0
2, 61326, Note_on_c, 0, 57, 0
2, 61426, Note_on_c, 0, 54, 54
2, 61430, Note_on_c, 0, 66, 55
2, 61431, Note_on_c, 0, 57, 56
2, 61438, Note_on_c, 0, 62, 45
2, 61439, Note_on_c, 0, 59, 41
2, 61787, Note_on_c, 0, 62, 0
2, 61837, Note_on_c, 0, 57, 0
2, 61850, Note_on_c, 0, 59, 0
2, 61917, Note_on_c, 0, 57, 36
2, 61922, Note_on_c, 0, 62, 48
2, 61926, Note_on_c, 0, 66, 0
2, 61929, Note_on_c, 0, 50, 47
2, 61936, Control_c, 0, 64, 127
2, 61937, Note_on_c, 0, 59, 28
2, 61939, Note_on_c, 0, 54, 0
2, 62133, Note_on_c, 0, 59, 0
2, 62135, Note_on_c, 0, 57, 0
2, 62209, Note_on_c, 0, 50, 0
2, 62311, Note_on_c, 0, 62, 0
2, 62384, Control_c, 0, 64, 0
2, 62387, Note_on_c, 0, 54, 33
2, 62399, Note_on_c, 0, 59, 48
2, 62407, Note_on_c, 0, 43, 36
2, 62408, Note_on_c, 0, 50, 39
2, 62722, Control_c, 0, 64, 127
2, 62793, Note_on_c, 0, 54, 0
2, 62888, Note_on_c, 0, 54, 36
2, 62946, Note_on_c, 0, 59, 0
2, 62965, Note_on_c, 0, 54, 0
2, 63004, Note_on_c, 0, 50, 0
2, 63320, Note_on_c, 0, 43, 0
2, 63340, Note_on_c, 0, 79, 84
2, 63350, Note_on_c, 0, 55, 73
2, 63352, Note_on_c, 0, 67, 80
2, 63355, Control_c, 0, 64, 0
2, 63362, Note_on_c, 0, 69, 66
2, 63389, Note_on_c, 0, 69, 0
2, 63407, Control_c, 0, 64, 127
2, 63707, Note_on_c, 0, 79, 0
2, 63722, Note_on_c, 0, 67, 0
2, 63856, Note_on_c, 0, 79, 60
2, 63860, Note_on_c, 0, 67, 52
2, 64112, Note_on_c, 0, 79, 0
2, 64130, Note_on_c, 0, 67, 0
2, 64278, Note_on_c, 0, 43, 35
2, 64284, Note_on_c, 0, 79, 46
2, 64293, Note_on_c, 0, 67, 33
2, 64366, Note_on_c, 0, 79, 0
2, 64408, Note_on_c, 0, 67, 0
2, 64684, Note_on_c, 0, 43, 0
2, 64779, Note_on_c, 0, 55, 0
2, 65217, Control_c, 0, 64, 0
2, 65238, Note_on_c, 0, 71, 40
2, 65248, Note_on_c, 0, 66, 32
2, 65248, Note_on_c, 0, 60, 30
2, 65257, Note_on_c, 0, 59, 33
2, 65260, Note_on_c, 0, 64, 44
2, 65322, Note_on_c, 0, 64, 0
2, 65330, Note_on_c, 0, 60, 0
2, 65343, Note_on_c, 0, 71, 0
2, 65343, Note_on_c, 0, 66, 0
2, 65355, Note_on_c, 0, 59, 0
2, 65554, Note_on_c, 0, 71, 41
2, 65565, Note_on_c, 0, 60, 30
2, 65569, Note_on_c, 0, 66, 33
2, 65579, Note_on_c, 0, 64, 42
2, 65592, Note_on_c, 0, 59, 20
2, 65613, Note_on_c, 0, 64, 0
2, 65630, Note_on_c, 0, 60, 0
2, 65639, Note_on_c, 0, 66, 0
2, 65652, Note_on_c, 0, 59, 0
2, 65655, Note_on_c, 0, 71, 0
2, 65891, Note_on_c, 0, 71, 36
2, 65919, Note_on_c, 0, 59, 28
2, 66010, Note_on_c, 0, 59, 0
2, 66013, Note_on_c, 0, 71, 0
2, 66070, Note_on_c, 0, 58, 30
2, 66153, Note_on_c, 0, 71, 35
2, 66164, Note_on_c, 0, 60, 26
2, 66169, Note_on_c, 0, 58, 0
2, 66170, Note_on_c, 0, 66, 31
2, 66172, Note_on_c, 0, 64, 45
2, 66196, Note_on_c, 0, 59, 31
2, 66747, Control_c, 0, 64, 127
2, 66859, Note_on_c, 0, 64, 0
2, 66887, Note_on_c, 0, 60, 0
2, 66923, Note_on_c, 0, 66, 0
2, 66961, Note_on_c, 0, 59, 0
2, 67121, Note_on_c, 0, 60, 36
2, 67122, Note_on_c, 0, 66, 20
2, 67125, Note_on_c, 0, 64, 38
2, 67130, Control_c, 0, 64, 0
2, 67146, Note_on_c, 0, 59, 33
2, 67678, Control_c, 0, 64, 127
2, 67735, Control_c, 0, 64, 0
2, 67765, Control_c, 0, 64, 127
2, 68027, Note_on_c, 0, 60, 0
2, 68063, Note_on_c, 0, 64, 0
2, 68081, Note_on_c, 0, 66, 0
2, 68103, Note_on_c, 0, 47, 32
2, 68127, Note_on_c, 0, 71, 0
2, 68387, Note_on_c, 0, 47, 0
2, 68437, Note_on_c, 0, 72, 69
2, 68454, Note_on_c, 0, 59, 0
2, 68530, Note_on_c, 0, 72, 0
2, 68586, Note_on_c, 0, 76, 80
2, 68680, Note_on_c, 0, 76, 0
2, 68730, Note_on_c, 0, 78, 82
2, 68823, Note_on_c, 0, 78, 0
2, 68889, Note_on_c, 0, 83, 95
2, 69050, Control_c, 0, 64, 0
2, 69088, Note_on_c, 0, 72, 24
2, 69127, Note_on_c, 0, 72, 0
2, 69287, Note_on_c, 0, 72, 44
2, 69290, Note_on_c, 0, 78, 33
2, 69307, Note_on_c, 0, 76, 34
2, 69340, Note_on_c, 0, 76, 0
2, 69341, Note_on_c, 0, 72, 0
2, 69361, Note_on_c, 0, 78, 0
2, 69605, Note_on_c, 0, 72, 46
2, 69606, Note_on_c, 0, 78, 33
2, 69617, Note_on_c, 0, 76, 41
2, 69649, Note_on_c, 0, 76, 0
2, 69656, Note_on_c, 0, 72, 0
2, 69680, Note_on_c, 0, 78, 0
2, 69910, Note_on_c, 0, 78, 31
2, 69911, Note_on_c, 0, 72, 40
2, 69924, Note_on_c, 0, 76, 40
2, 69959, Note_on_c, 0, 76, 0
2, 69964, Note_on_c, 0, 72, 0
2, 69999, Note_on_c, 0, 78, 0
2, 70199, Note_on_c, 0, 72, 46
2, 70200, Note_on_c, 0, 78, 31
2, 70213, Note_on_c, 0, 76, 45
2, 70262, Note_on_c, 0, 76, 0
2, 70267, Note_on_c, 0, 72, 0
2, 70308, Note_on_c, 0, 78, 0
2, 70516, Note_on_c, 0, 78, 32
2, 70517, Note_on_c, 0, 72, 45
2, 70527, Note_on_c, 0, 63, 21
2, 70528, Note_on_c, 0, 76, 49
2, 70529, Note_on_c, 0, 60, 35
2, 70546, Note_on_c, 0, 59, 36
2, 70574, Note_on_c, 0, 72, 0
2, 70575, Note_on_c, 0, 76, 0
2, 70592, Note_on_c, 0, 63, 0
2, 70599, Note_on_c, 0, 59, 0
2, 70600, Note_on_c, 0, 60, 0
2, 70608, Note_on_c, 0, 78, 0
2, 70821, Note_on_c, 0, 72, 44
2, 70821, Note_on_c, 0, 78, 31
2, 70823, Note_on_c, 0, 63, 35
2, 70830, Note_on_c, 0, 76, 46
2, 70836, Note_on_c, 0, 60, 41
2, 70842, Note_on_c, 0, 59, 43
2, 70871, Note_on_c, 0, 76, 0
2, 70877, Note_on_c, 0, 72, 0
2, 70898, Note_on_c, 0, 60, 0
2, 70902, Note_on_c, 0, 59, 0
2, 70903, Note_on_c, 0, 63, 0
2, 70903, Note_on_c, 0, 78, 0
2, 71038, Note_on_c, 0, 63, 43
2, 71039, Note_on_c, 0, 72, 47
2, 71039, Note_on_c, 0, 78, 31
2, 71049, Note_on_c, 0, 76, 48
2, 71057, Note_on_c, 0, 60, 44
2, 71062, Note_on_c, 0, 59, 42
2, 71351, Control_c, 0, 64, 127
2, 71660, Note_on_c, 0, 59, 0
2, 71689, Note_on_c, 0, 60, 0
2, 71716, Note_on_c, 0, 72, 0
2, 71724, Note_on_c, 0, 76, 0
2, 71785, Note_on_c, 0, 63, 0
2, 71803, Note_on_c, 0, 78, 0
2, 71868, Note_on_c, 0, 83, 0
2, 71932, Note_on_c, 0, 63, 32
2, 71953, Note_on_c, 0, 60, 40
2, 71960, Note_on_c, 0, 59, 35
2, 72109, Note_on_c, 0, 78, 52
2, 72212, Note_on_c, 0, 78, 0
2, 72264, Note_on_c, 0, 78, 31
2, 72266, Note_on_c, 0, 80, 63
2, 72298, Note_on_c, 0, 78, 0
2, 72380, Note_on_c, 0, 80, 0
2, 72425, Note_on_c, 0, 63, 0
2, 72449, Note_on_c, 0, 59, 0
2, 72459, Note_on_c, 0, 60, 0
2, 72620, Note_on_c, 0, 83, 25
2, 72647, Note_on_c, 0, 83, 0
2, 72747, Note_on_c, 0, 85, 48
2, 72834, Note_on_c, 0, 85, 0
2, 72904, Control_c, 0, 64, 0
2, 72911, Note_on_c, 0, 62, 29
2, 72911, Note_on_c, 0, 52, 32
2, 72917, Note_on_c, 0, 56, 37
2, 72927, Note_on_c, 0, 85, 45
2, 73099, Control_c, 0, 64, 127
2, 73214, Note_on_c, 0, 52, 0
2, 73230, Note_on_c, 0, 56, 0
2, 73237, Note_on_c, 0, 62, 0
2, 73237, Note_on_c, 0, 85, 0
2, 73418, Note_on_c, 0, 85, 30
2, 73448, Note_on_c, 0, 85, 0
2, 73708, Note_on_c, 0, 49, 12
2, 73764, Note_on_c, 0, 49, 0
2, 73844, Note_on_c, 0, 66, 61
2, 73847, Note_on_c, 0, 57, 65
2, 73847, Note_on_c, 0, 62, 66
2, 73850, Note_on_c, 0, 52, 53
2, 73863, Control_c, 0, 64, 0
2, 73896, Note_on_c, 0, 57, 0
2, 73901, Note_on_c, 0, 62, 0
2, 73905, Note_on_c, 0, 52, 0
2, 73926, Note_on_c, 0, 66, 0
2, 74141, Note_on_c, 0, 66, 70
2, 74147, Note_on_c, 0, 62, 73
2, 74148, Note_on_c, 0, 57, 71
2, 74149, Note_on_c, 0, 52, 55
2, 74240, Note_on_c, 0, 57, 0
2, 74248, Note_on_c, 0, 52, 0
2, 74254, Note_on_c, 0, 62, 0
2, 74264, Note_on_c, 0, 66, 0
2, 74333, Note_on_c, 0, 66, 56
2, 74338, Note_on_c, 0, 62, 54
2, 74340, Note_on_c, 0, 52, 49
2, 74341, Note_on_c, 0, 57, 58
2, 74368, Control_c, 0, 64, 127
2, 74410, Note_on_c, 0, 57, 0
2, 74459, Note_on_c, 0, 66, 0
2, 74465, Note_on_c, 0, 62, 0
2, 74474, Note_on_c, 0, 52, 0
2, 74592, Control_c, 0, 64, 0
2, 74616, Note_on_c, 0, 67, 60
2, 74624, Note_on_c, 0, 63, 60
2, 74628, Note_on_c, 0, 58, 64
2, 74632, Note_on_c, 0, 53, 43
2, 74734, Note_on_c, 0, 67, 0
2, 74770, Note_on_c, 0, 63, 0
2, 74776, Note_on_c, 0, 58, 0
2, 74825, Note_on_c, 0, 66, 52
2, 74826, Note_on_c, 0, 53, 0
2, 74829, Note_on_c, 0, 57, 48
2, 74833, Note_on_c, 0, 62, 46
2, 74835, Note_on_c, 0, 52, 36
2, 74971, Note_on_c, 0, 57, 0
2, 74986, Note_on_c, 0, 62, 0
2, 75035, Note_on_c, 0, 66, 0
2, 75107, Note_on_c, 0, 52, 0
2, 75118, Note_on_c, 0, 51, 36
2, 75125, Note_on_c, 0, 56, 42
2, 75128, Note_on_c, 0, 61, 39
2, 75130, Note_on_c, 0, 65, 35
2, 75196, Note_on_c, 0, 65, 0
2, 75209, Note_on_c, 0, 56, 0
2, 75218, Note_on_c, 0, 61, 0
2, 75303, Note_on_c, 0, 51, 0
2, 75317, Note_on_c, 0, 66, 44
2, 75318, Note_on_c, 0, 57, 38
2, 75320, Note_on_c, 0, 52, 37
2, 75332, Note_on_c, 0, 62, 33
2, 75790, Control_c, 0, 64, 127
2, 75867, Note_on_c, 0, 57, 0
2, 76004, Note_on_c, 0, 62, 0
2, 76065, Note_on_c, 0, 66, 0
2, 76077, Note_on_c, 0, 52, 0
2, 76737, Note_on_c, 0, 83, 85
2, 76749, Control_c, 0, 64, 0
2, 76751, Note_on_c, 0, 79, 80
2, 76760, Note_on_c, 0, 56, 65
2, 76761, Note_on_c, 0, 62, 53
2, 76761, Note_on_c, 0, 67, 66
2, 76762, Note_on_c, 0, 74, 73
2, 76930, Control_c, 0, 64, 127
2, 77404, Note_on_c, 0, 74, 0
2, 77406, Note_on_c, 0, 67, 0
2, 77421, Note_on_c, 0, 79, 0
2, 77448, Note_on_c, 0, 62, 0
2, 77479, Note_on_c, 0, 56, 0
2, 77517, Note_on_c, 0, 83, 0
2, 77715, Note_on_c, 0, 83, 58
2, 77728, Note_on_c, 0, 76, 46
2, 77730, Note_on_c, 0, 80, 36
2, 77736, Note_on_c, 0, 65, 32
2, 77738, Note_on_c, 0, 71, 34
2, 77740, Note_on_c, 0, 56, 34
2, 77742, Note_on_c, 0, 62, 30
2, 77746, Control_c, 0, 64, 0
2, 77801, Note_on_c, 0, 71, 0
2, 77816, Note_on_c, 0, 65, 0
2, 77816, Note_on_c, 0, 76, 0
2, 77818, Note_on_c, 0, 62, 0
2, 77823, Note_on_c, 0, 80, 0
2, 77832, Note_on_c, 0, 56, 0
2, 77839, Note_on_c, 0, 83, 0
2, 78184, Note_on_c, 0, 83, 53
2, 78193, Note_on_c, 0, 76, 44
2, 78196, Note_on_c, 0, 71, 40
2, 78202, Note_on_c, 0, 56, 42
2, 78211, Note_on_c, 0, 62, 36
2, 78217, Note_on_c, 0, 65, 27
2, 78298, Note_on_c, 0, 71, 0
2, 78305, Note_on_c, 0, 76, 0
2, 78309, Note_on_c, 0, 65, 0
2, 78318, Note_on_c, 0, 62, 0
2, 78325, Note_on_c, 0, 83, 0
2, 78331, Note_on_c, 0, 56, 0
2, 78605, Control_c, 0, 64, 127
2, 78671, Note_on_c, 0, 83, 58
2, 78671, Note_on_c, 0, 56, 50
2, 78680, Note_on_c, 0, 76, 48
2, 78681, Note_on_c, 0, 67, 42
2, 78682, Note_on_c, 0, 62, 40
2, 78685, Note_on_c, 0, 71, 38
2, 78892, Note_on_c, 0, 67, 0
2, 78901, Note_on_c, 0, 71, 0
2, 78903, Note_on_c, 0, 62, 0
2, 78915, Note_on_c, 0, 56, 0
2, 78918, Note_on_c, 0, 76, 0
2, 78918, Note_on_c, 0, 83, 0
2, 79144, Note_on_c, 0, 56, 83
2, 79145, Note_on_c, 0, 62, 70
2, 79147, Note_on_c, 0, 67, 80
2, 79148, Note_on_c, 0, 83, 84
2, 79152, Note_on_c, 0, 76, 85
2, 79155, Note_on_c, 0, 71, 84
2, 79353, Note_on_c, 0, 71, 0
2, 79364, Note_on_c, 0, 76, 0
2, 79366, Note_on_c, 0, 67, 0
2, 79366, Note_on_c, 0, 83, 0
2, 79373, Note_on_c, 0, 56, 0
2, 79399, Note_on_c, 0, 62, 0
2, 79466, Note_on_c, 0, 83, 78
2, 79469, Note_on_c, 0, 76, 84
2, 79470, Note_on_c, 0, 56, 83
2, 79471, Note_on_c, 0, 62, 71
2, 79471, Note_on_c, 0, 67, 81
2, 79474, Note_on_c, 0, 71, 80
2, 79566, Note_on_c, 0, 67, 0
2, 79570, Note_on_c, 0, 71, 0
2, 79579, Note_on_c, 0, 56, 0
2, 79587, Note_on_c, 0, 83, 0
2, 79587, Note_on_c, 0, 76, 0
2, 79588, Note_on_c, 0, 62, 0
2, 79627, Note_on_c, 0, 56, 70
2, 79631, Note_on_c, 0, 67, 66
2, 79631, Note_on_c, 0, 76, 72
2, 79633, Note_on_c, 0, 83, 74
2, 79637, Note_on_c, 0, 62, 80
2, 79638, Note_on_c, 0, 71, 55
2, 79831, Note_on_c, 0, 83, 0
2, 79834, Note_on_c, 0, 67, 0
2, 79836, Note_on_c, 0, 71, 0
2, 79843, Note_on_c, 0, 76, 0
2, 79844, Note_on_c, 0, 56, 0
2, 79861, Note_on_c, 0, 62, 0
2, 79947, Note_on_c, 0, 56, 75
2, 79947, Note_on_c, 0, 83, 71
2, 79950, Note_on_c, 0, 76, 72
2, 79953, Note_on_c, 0, 67, 70
2, 79954, Note_on_c, 0, 71, 71
2, 79954, Note_on_c, 0, 62, 70
2, 80038, Note_on_c, 0, 67, 0
2, 80057, Note_on_c, 0, 71, 0
2, 80059, Note_on_c, 0, 56, 0
2, 80062, Note_on_c, 0, 62, 0
2, 80066, Note_on_c, 0, 83, 0
2, 80075, Note_on_c, 0, 76, 0
2, 80115, Note_on_c, 0, 56, 62
2, 80116, Note_on_c, 0, 62, 70
2, 80117, Note_on_c, 0, 83, 68
2, 80117, Note_on_c, 0, 76, 77
2, 80119, Note_on_c, 0, 71, 53
2, 80120, Note_on_c, 0, 67, 66
2, 80266, Note_on_c, 0, 76, 0
2, 80271, Note_on_c, 0, 67, 0
2, 80273, Note_on_c, 0, 56, 0
2, 80275, Note_on_c, 0, 71, 0
2, 80285, Note_on_c, 0, 83, 0
2, 80287, Note_on_c, 0, 62, 0
2, 80398, Note_on_c, 0, 56, 69
2, 80399, Note_on_c, 0, 62, 60
2, 80419, Note_on_c, 0, 83, 79
2, 80420, Note_on_c, 0, 76, 69
2, 80420, Note_on_c, 0, 71, 76
2, 80423, Note_on_c, 0, 62, 0
2, 80480, Note_on_c, 0, 56, 0
2, 80489, Note_on_c, 0, 71, 0
2, 80492, Note_on_c, 0, 76, 0
2, 80512, Note_on_c, 0, 83, 0
2, 80600, Note_on_c, 0, 55, 74
2, 80607, Note_on_c, 0, 49, 71
2, 80608, Note_on_c, 0, 83, 81
2, 80609, Note_on_c, 0, 59, 69
2, 80609, Note_on_c, 0, 76, 80
2, 80613, Note_on_c, 0, 71, 79
2, 80626, Control_c, 0, 64, 0
2, 80834, Control_c, 0, 64, 127
2, 81241, Note_on_c, 0, 83, 0
2, 81248, Note_on_c, 0, 55, 0
2, 81290, Note_on_c, 0, 59, 0
2, 81298, Note_on_c, 0, 76, 0
2, 81366, Note_on_c, 0, 71, 0
2, 81577, Note_on_c, 0, 55, 31
2, 81593, Note_on_c, 0, 59, 20
2, 82366, Note_on_c, 0, 59, 0
2, 82398, Note_on_c, 0, 67, 40
2, 82458, Note_on_c, 0, 55, 0
2, 82500, Note_on_c, 0, 67, 0
2, 82538, Note_on_c, 0, 49, 0
2, 82582, Note_on_c, 0, 69, 53
2, 82583, Note_on_c, 0, 60, 42
2, 82590, Note_on_c, 0, 63, 38
2, 82595, Control_c, 0, 64, 0
2, 82599, Note_on_c, 0, 57, 30
2, 82605, Note_on_c, 0, 48, 39
2, 82863, Control_c, 0, 64, 127
2, 83148, Note_on_c, 0, 57, 0
2, 83223, Note_on_c, 0, 60, 0
2, 83260, Note_on_c, 0, 63, 0
2, 83538, Note_on_c, 0, 57, 28
2, 83540, Note_on_c, 0, 63, 25
2, 83541, Note_on_c, 0, 60, 37
2, 83614, Note_on_c, 0, 60, 0
2, 83647, Note_on_c, 0, 63, 0
2, 83670, Note_on_c, 0, 69, 0
2, 83806, Note_on_c, 0, 67, 80
2, 84094, Note_on_c, 0, 67, 0
2, 84100, Note_on_c, 0, 69, 36
2, 84161, Note_on_c, 0, 48, 0
2, 84188, Note_on_c, 0, 67, 56
2, 84200, Note_on_c, 0, 57, 0
2, 84210, Note_on_c, 0, 69, 0
2, 84280, Note_on_c, 0, 66, 60
2, 84284, Note_on_c, 0, 67, 0
2, 84333, Note_on_c, 0, 66, 0
2, 84374, Note_on_c, 0, 67, 44
2, 84465, Control_c, 0, 64, 0
2, 84466, Note_on_c, 0, 57, 36
2, 84470, Note_on_c, 0, 47, 35
2, 84493, Note_on_c, 0, 69, 51
2, 84494, Note_on_c, 0, 67, 0
2, 84554, Note_on_c, 0, 69, 0
2, 84612, Note_on_c, 0, 70, 57
2, 84686, Note_on_c, 0, 70, 0
2, 84736, Note_on_c, 0, 71, 60
2, 84817, Note_on_c, 0, 71, 0
2, 84915, Note_on_c, 0, 71, 53
2, 84971, Note_on_c, 0, 71, 0
2, 85084, Note_on_c, 0, 71, 47
2, 85157, Note_on_c, 0, 71, 0
2, 85212, Note_on_c, 0, 57, 0
2, 85239, Note_on_c, 0, 71, 47
2, 85313, Note_on_c, 0, 71, 0
2, 85399, Note_on_c, 0, 71, 52
2, 85406, Note_on_c, 0, 57, 30
2, 85452, Control_c, 0, 64, 127
2, 85514, Note_on_c, 0, 71, 0
2, 85602, Note_on_c, 0, 71, 44
2, 85697, Note_on_c, 0, 71, 0
2, 85769, Note_on_c, 0, 71, 50
2, 85866, Note_on_c, 0, 71, 0
2, 86033, Note_on_c, 0, 57, 0
2, 86072, Note_on_c, 0, 47, 0
2, 86166, Note_on_c, 0, 67, 62
2, 86200, Note_on_c, 0, 67, 0
2, 86377, Note_on_c, 0, 69, 66
2, 86383, Note_on_c, 0, 61, 47
2, 86387, Note_on_c, 0, 58, 47
2, 86388, Note_on_c, 0, 57, 51
2, 86391, Control_c, 0, 64, 0
2, 86396, Note_on_c, 0, 64, 46
2, 86557, Control_c, 0, 64, 127
2, 87108, Note_on_c, 0, 64, 0
2, 87127, Note_on_c, 0, 57, 0
2, 87134, Note_on_c, 0, 61, 0
2, 87151, Note_on_c, 0, 58, 0
2, 87189, Note_on_c, 0, 69, 0
2, 87312, Note_on_c, 0, 58, 37
2, 87313, Note_on_c, 0, 67, 48
2, 87326, Note_on_c, 0, 55, 34
2, 87327, Note_on_c, 0, 61, 34
2, 87334, Note_on_c, 0, 64, 48
2, 87337, Control_c, 0, 64, 0
2, 87502, Control_c, 0, 64, 127
2, 87595, Note_on_c, 0, 58, 0
2, 87638, Note_on_c, 0, 55, 0
2, 87703, Note_on_c, 0, 61, 0
2, 87737, Note_on_c, 0, 64, 0
2, 87737, Note_on_c, 0, 67, 0
2, 88251, Note_on_c, 0, 88, 51
2, 88268, Control_c, 0, 64, 0
2, 88276, Note_on_c, 0, 84, 59
2, 88282, Note_on_c, 0, 55, 37
2, 88284, Note_on_c, 0, 64, 39
2, 88290, Note_on_c, 0, 76, 51
2, 88298, Note_on_c, 0, 60, 38
2, 88299, Note_on_c, 0, 57, 36
2, 88391, Control_c, 0, 64, 127
2, 88474, Note_on_c, 0, 84, 0
2, 88479, Note_on_c, 0, 88, 0
2, 88502, Note_on_c, 0, 55, 0
2, 88510, Note_on_c, 0, 76, 0
2, 88515, Note_on_c, 0, 60, 0
2, 88530, Note_on_c, 0, 64, 0
2, 88540, Note_on_c, 0, 57, 0
2, 88737, Note_on_c, 0, 84, 50
2, 88765, Note_on_c, 0, 64, 29
2, 88767, Note_on_c, 0, 79, 43
2, 88778, Note_on_c, 0, 72, 37
2, 88788, Note_on_c, 0, 57, 26
2, 88790, Note_on_c, 0, 60, 32
2, 88800, Note_on_c, 0, 55, 18
2, 88878, Note_on_c, 0, 84, 0
2, 88893, Note_on_c, 0, 55, 0
2, 88904, Note_on_c, 0, 79, 0
2, 88904, Note_on_c, 0, 60, 0
2, 88914, Note_on_c, 0, 64, 0
2, 88934, Note_on_c, 0, 72, 0
2, 88956, Note_on_c, 0, 57, 0
2, 89191, Note_on_c, 0, 79, 44
2, 89201, Note_on_c, 0, 76, 46
2, 89221, Note_on_c, 0, 64, 28
2, 89226, Note_on_c, 0, 72, 36
2, 89240, Note_on_c, 0, 60, 35
2, 89243, Note_on_c, 0, 57, 24
2, 89248, Note_on_c, 0, 67, 38
2, 89254, Note_on_c, 0, 55, 20
2, 89336, Note_on_c, 0, 64, 0
2, 89340, Note_on_c, 0, 79, 0
2, 89351, Note_on_c, 0, 76, 0
2, 89364, Note_on_c, 0, 72, 0
2, 89366, Note_on_c, 0, 60, 0
2, 89401, Note_on_c, 0, 67, 0
2, 89422, Note_on_c, 0, 55, 0
2, 89436, Note_on_c, 0, 57, 0
2, 89657, Note_on_c, 0, 72, 44
2, 89680, Note_on_c, 0, 64, 24
2, 89681, Note_on_c, 0, 67, 43
2, 89694, Note_on_c, 0, 55, 24
2, 89695, Note_on_c, 0, 60, 25
2, 89696, Note_on_c, 0, 57, 32
2, 89700, Note_on_c, 0, 69, 33
2, 89844, Note_on_c, 0, 60, 0
2, 89846, Note_on_c, 0, 69, 0
2, 89854, Note_on_c, 0, 67, 0
2, 89876, Note_on_c, 0, 64, 0
2, 89899, Note_on_c, 0, 72, 0
2, 90011, Note_on_c, 0, 57, 0
2, 90052, Note_on_c, 0, 55, 0
2, 90133, Note_on_c, 0, 71, 43
2, 90145, Note_on_c, 0, 68, 36
2, 90153, Note_on_c, 0, 65, 43
2, 90155, Note_on_c, 0, 62, 33
2, 90173, Control_c, 0, 64, 0
2, 90440, Control_c, 0, 64, 127
2, 90599, Note_on_c, 0, 56, 37
2, 90632, Note_on_c, 0, 59, 42
2, 90894, Note_on_c, 0, 62, 0
2, 90969, Note_on_c, 0, 65, 0
2, 91018, Note_on_c, 0, 68, 0
2, 91049, Note_on_c, 0, 71, 0
2, 91127, Note_on_c, 0, 62, 24
2, 91416, Note_on_c, 0, 65, 77
2, 91520, Note_on_c, 0, 65, 0
2, 91573, Note_on_c, 0, 62, 0
2, 91624, Note_on_c, 0, 68, 76
2, 91682, Note_on_c, 0, 59, 0
2, 91729, Note_on_c, 0, 56, 0
2, 91736, Note_on_c, 0, 68, 0
2, 91850, Note_on_c, 0, 74, 92
2, 92017, Note_on_c, 0, 74, 0
2, 92107, Note_on_c, 0, 60, 43
2, 92111, Note_on_c, 0, 54, 44
2, 92112, Note_on_c, 0, 74, 74
2, 92114, Control_c, 0, 64, 0
2, 92118, Note_on_c, 0, 65, 67
2, 92119, Note_on_c, 0, 70, 58
2, 92273, Control_c, 0, 64, 127
2, 92413, Note_on_c, 0, 60, 0
2, 92476, Note_on_c, 0, 54, 0
2, 92516, Note_on_c, 0, 65, 0
2, 92537, Note_on_c, 0, 74, 0
2, 92554, Note_on_c, 0, 70, 0
2, 92565, Note_on_c, 0, 54, 28
2, 92585, Note_on_c, 0, 60, 30
2, 92600, Note_on_c, 0, 68, 53
2, 92603, Note_on_c, 0, 72, 50
2, 92603, Note_on_c, 0, 63, 52
2, 92611, Control_c, 0, 64, 0
2, 92793, Control_c, 0, 64, 127
2, 93046, Note_on_c, 0, 50, 36
2, 93213, Note_on_c, 0, 68, 0
2, 93235, Note_on_c, 0, 60, 0
2, 93244, Note_on_c, 0, 72, 0
2, 93251, Note_on_c, 0, 63, 0
2, 93271, Note_on_c, 0, 54, 0
2, 93540, Note_on_c, 0, 69, 46
2, 93544, Note_on_c, 0, 62, 33
2, 93546, Note_on_c, 0, 54, 34
2, 93547, Note_on_c, 0, 60, 28
2, 93550, Note_on_c, 0, 66, 39
2, 93676, Note_on_c, 0, 60, 0
2, 93718, Note_on_c, 0, 69, 0
2, 93769, Note_on_c, 0, 66, 0
2, 93773, Note_on_c, 0, 54, 0
2, 93775, Note_on_c, 0, 62, 0
2, 93871, Note_on_c, 0, 50, 0
2, 94022, Note_on_c, 0, 54, 42
2, 94023, Note_on_c, 0, 60, 32
2, 94024, Note_on_c, 0, 50, 41
2, 94026, Control_c, 0, 64, 0
2, 94027, Note_on_c, 0, 68, 36
2, 94028, Note_on_c, 0, 63, 36
2, 94036, Note_on_c, 0, 66, 47
2, 94207, Control_c, 0, 64, 127
2, 94359, Note_on_c, 0, 66, 0
2, 94362, Note_on_c, 0, 68, 0
2, 94370, Note_on_c, 0, 63, 0
2, 94380, Note_on_c, 0, 60, 0
2, 94502, Control_c, 0, 64, 0
2, 94516, Note_on_c, 0, 57, 33
2, 94519, Note_on_c, 0, 69, 36
2, 94524, Control_c, 0, 64, 127
2, 94524, Note_on_c, 0, 63, 37
2, 94529, Note_on_c, 0, 66, 39
2, 94533, Note_on_c, 0, 60, 30
2, 94551, Note_on_c, 0, 54, 0
2, 94689, Note_on_c, 0, 69, 0
2, 94727, Note_on_c, 0, 60, 0
2, 94738, Note_on_c, 0, 66, 0
2, 94753, Note_on_c, 0, 63, 0
2, 95010, Note_on_c, 0, 62, 123
2, 95061, Note_on_c, 0, 57, 0
2, 95261, Note_on_c, 0, 50, 0
2, 95271, Note_on_c, 0, 62, 0
2, 95321, Note_on_c, 0, 62, 76
2, 95467, Note_on_c, 0, 62, 0
2, 95515, Note_on_c, 0, 62, 54
2, 95625, Note_on_c, 0, 62, 0
2, 95791, Note_on_c, 0, 62, 49
2, 95872, Note_on_c, 0, 62, 0
2, 95971, Note_on_c, 0, 43, 43
2, 95990, Note_on_c, 0, 74, 57
2, 95994, Note_on_c, 0, 50, 30
2, 96018, Control_c, 0, 64, 0
2, 96242, Control_c, 0, 64, 127
2, 96555, Note_on_c, 0, 74, 0
2, 96632, Note_on_c, 0, 50, 0
2, 96999, Note_on_c, 0, 62, 34
2, 97002, Note_on_c, 0, 66, 40
2, 97013, Note_on_c, 0, 57, 30
2, 97020, Note_on_c, 0, 59, 32
2, 97021, Note_on_c, 0, 50, 28
2, 97029, Control_c, 0, 64, 0
2, 97187, Control_c, 0, 64, 127
2, 97352, Note_on_c, 0, 57, 0
2, 97353, Note_on_c, 0, 59, 0
2, 97369, Note_on_c, 0, 62, 0
2, 97400, Note_on_c, 0, 43, 0
2, 97414, Note_on_c, 0, 66, 0
2, 97464, Note_on_c, 0, 50, 0
2, 97650, Note_on_c, 0, 74, 46
2, 97732, Note_on_c, 0, 74, 0
2, 97806, Note_on_c, 0, 78, 46
2, 97859, Control_c, 0, 64, 0
2, 97895, Note_on_c, 0, 78, 0
2, 97947, Note_on_c, 0, 74, 59
2, 97953, Note_on_c, 0, 62, 36
2, 97962, Note_on_c, 0, 81, 34
2, 97968, Note_on_c, 0, 58, 18
2, 97970, Note_on_c, 0, 63, 29
2, 97988, Note_on_c, 0, 74, 0
2, 98000, Note_on_c, 0, 81, 0
2, 98004, Note_on_c, 0, 62, 0
2, 98012, Note_on_c, 0, 63, 0
2, 98016, Note_on_c, 0, 58, 0
2, 98223, Note_on_c, 0, 81, 50
2, 98229, Note_on_c, 0, 74, 48
2, 98233, Note_on_c, 0, 67, 35
2, 98242, Note_on_c, 0, 62, 31
2, 98251, Note_on_c, 0, 63, 29
2, 98262, Note_on_c, 0, 58, 21
2, 98290, Note_on_c, 0, 62, 0
2, 98293, Note_on_c, 0, 67, 0
2, 98295, Note_on_c, 0, 58, 0
2, 98306, Note_on_c, 0, 74, 0
2, 98307, Note_on_c, 0, 63, 0
2, 98313, Note_on_c, 0, 81, 0
2, 98860, Note_on_c, 0, 79, 57
2, 98864, Note_on_c, 0, 71, 55
2, 98867, Note_on_c, 0, 76, 49
2, 98868, Note_on_c, 0, 74, 55
2, 98871, Note_on_c, 0, 67, 45
2, 98873, Note_on_c, 0, 62, 51
2, 98873, Note_on_c, 0, 64, 47
2, 98896, Note_on_c, 0, 74, 0
2, 98897, Note_on_c, 0, 71, 0
2, 98898, Note_on_c, 0, 76, 0
2, 98901, Note_on_c, 0, 64, 0
2, 98903, Note_on_c, 0, 67, 0
2, 98906, Note_on_c, 0, 79, 0
2, 98907, Note_on_c, 0, 62, 0
2, 99165, Note_on_c, 0, 79, 55
2, 99169, Note_on_c, 0, 74, 54
2, 99175, Note_on_c, 0, 71, 49
2, 99179, Note_on_c, 0, 67, 43
2, 99182, Note_on_c, 0, 64, 47
2, 99189, Note_on_c, 0, 62, 43
2, 99215, Note_on_c, 0, 74, 0
2, 99222, Note_on_c, 0, 79, 0
2, 99223, Note_on_c, 0, 67, 0
2, 99247, Note_on_c, 0, 71, 0
2, 99251, Note_on_c, 0, 64, 0
2, 99266, Note_on_c, 0, 62, 0
2, 99266, Control_c, 0, 64, 127
2, 99420, Note_on_c, 0, 62, 50
2, 99433, Note_on_c, 0, 74, 57
2, 99441, Note_on_c, 0, 67, 51
2, 99447, Note_on_c, 0, 71, 50
2, 99454, Note_on_c, 0, 62, 0
2, 99490, Note_on_c, 0, 71, 0
2, 99519, Note_on_c, 0, 67, 0
2, 99603, Note_on_c, 0, 74, 0
2, 99735, Control_c, 0, 64, 0
2, 99749, Note_on_c, 0, 54, 25
2, 99749, Note_on_c, 0, 62, 43
2, 99750, Note_on_c, 0, 66, 52
2, 99757, Note_on_c, 0, 57, 37
2, 99757, Note_on_c, 0, 47, 39
2, 99966, Control_c, 0, 64, 127
2, 100327, Note_on_c, 0, 62, 0
2, 100330, Note_on_c, 0, 57, 0
2, 100343, Note_on_c, 0, 54, 0
2, 100381, Note_on_c, 0, 66, 0
2, 100700, Note_on_c, 0, 85, 75
2, 100702, Note_on_c, 0, 54, 50
2, 100708, Note_on_c, 0, 73, 69
2, 100711, Note_on_c, 0, 57, 50
2, 100716, Control_c, 0, 64, 0
2, 100742, Note_on_c, 0, 47, 0
2, 100744, Note_on_c, 0, 57, 0
2, 100795, Note_on_c, 0, 54, 0
2, 100865, Note_on_c, 0, 73, 0
2, 100869, Note_on_c, 0, 85, 0
2, 100880, Note_on_c, 0, 74, 49
2, 100881, Note_on_c, 0, 86, 49
2, 100954, Note_on_c, 0, 86, 0
2, 100959, Note_on_c, 0, 74, 0
2, 101018, Note_on_c, 0, 86, 53
2, 101027, Note_on_c, 0, 74, 58
2, 101061, Note_on_c, 0, 84, 28
2, 101094, Note_on_c, 0, 74, 0
2, 101103, Note_on_c, 0, 86, 0
2, 101133, Note_on_c, 0, 84, 0
2, 101177, Note_on_c, 0, 73, 37
2, 101270, Note_on_c, 0, 73, 0
2, 101323, Note_on_c, 0, 74, 46
2, 101330, Note_on_c, 0, 86, 43
2, 101403, Note_on_c, 0, 86, 0
2, 101406, Note_on_c, 0, 74, 0
2, 101473, Note_on_c, 0, 74, 55
2, 101475, Note_on_c, 0, 86, 55
2, 101549, Note_on_c, 0, 74, 0
2, 101560, Note_on_c, 0, 86, 0
2, 101630, Note_on_c, 0, 56, 55
2, 101631, Note_on_c, 0, 73, 40
2, 101632, Note_on_c, 0, 85, 49
2, 101638, Note_on_c, 0, 65, 45
2, 101639, Note_on_c, 0, 62, 46
2, 101678, Note_on_c, 0, 65, 0
2, 101693, Note_on_c, 0, 62, 0
2, 101702, Note_on_c, 0, 56, 0
2, 101772, Note_on_c, 0, 85, 0
2, 101773, Note_on_c, 0, 73, 0
2, 101792, Note_on_c, 0, 74, 51
2, 101796, Note_on_c, 0, 86, 48
2, 101867, Note_on_c, 0, 74, 0
2, 101873, Note_on_c, 0, 86, 0
2, 101945, Note_on_c, 0, 86, 49
2, 101951, Note_on_c, 0, 74, 42
2, 102028, Note_on_c, 0, 86, 0
2, 102038, Note_on_c, 0, 74, 0
2, 102127, Note_on_c, 0, 73, 51
2, 102141, Note_on_c, 0, 85, 31
2, 102220, Note_on_c, 0, 73, 0
2, 102221, Note_on_c, 0, 85, 0
2, 102470, Note_on_c, 0, 74, 57
2, 102471, Note_on_c, 0, 86, 61
2, 102528, Note_on_c, 0, 74, 0
2, 102548, Note_on_c, 0, 86, 0
2, 102994, Note_on_c, 0, 89, 79
2, 103002, Note_on_c, 0, 77, 74
2, 103009, Note_on_c, 0, 56, 54
2, 103009, Note_on_c, 0, 65, 58
2, 103018, Note_on_c, 0, 62, 53
2, 103023, Note_on_c, 0, 59, 44
2, 103046, Note_on_c, 0, 65, 0
2, 103047, Note_on_c, 0, 62, 0
2, 103050, Note_on_c, 0, 77, 0
2, 103069, Note_on_c, 0, 89, 0
2, 103070, Note_on_c, 0, 59, 0
2, 103077, Note_on_c, 0, 56, 0
2, 103201, Note_on_c, 0, 85, 23
2, 103220, Control_c, 0, 64, 127
2, 103228, Note_on_c, 0, 85, 0
2, 103340, Note_on_c, 0, 86, 62
2, 103342, Note_on_c, 0, 74, 62
2, 103370, Note_on_c, 0, 84, 33
2, 103372, Note_on_c, 0, 74, 0
2, 103398, Note_on_c, 0, 86, 0
2, 103402, Note_on_c, 0, 84, 0
2, 103481, Note_on_c, 0, 56, 52
2, 103488, Note_on_c, 0, 89, 68
2, 103491, Note_on_c, 0, 65, 42
2, 103495, Note_on_c, 0, 77, 58
2, 103523, Note_on_c, 0, 65, 0
2, 103534, Note_on_c, 0, 77, 0
2, 103543, Note_on_c, 0, 89, 0
2, 103575, Note_on_c, 0, 56, 0
2, 103653, Control_c, 0, 64, 0
2, 103680, Note_on_c, 0, 55, 47
2, 103681, Note_on_c, 0, 64, 55
2, 103684, Note_on_c, 0, 57, 53
2, 103684, Note_on_c, 0, 75, 69
2, 103692, Note_on_c, 0, 60, 54
2, 103694, Note_on_c, 0, 87, 40
2, 103714, Note_on_c, 0, 85, 29
2, 103751, Note_on_c, 0, 74, 34
2, 103774, Note_on_c, 0, 75, 0
2, 103820, Note_on_c, 0, 87, 0
2, 103821, Note_on_c, 0, 86, 59
2, 103943, Note_on_c, 0, 85, 0
2, 104015, Control_c, 0, 64, 127
2, 104101, Note_on_c, 0, 64, 0
2, 104103, Note_on_c, 0, 86, 0
2, 104108, Note_on_c, 0, 60, 0
2, 104109, Note_on_c, 0, 74, 0
2, 104121, Note_on_c, 0, 55, 0
2, 104125, Note_on_c, 0, 57, 0
2, 104177, Note_on_c, 0, 84, 58
2, 104181, Control_c, 0, 64, 0
2, 104182, Note_on_c, 0, 55, 26
2, 104186, Note_on_c, 0, 60, 37
2, 104190, Note_on_c, 0, 72, 30
2, 104190, Note_on_c, 0, 64, 26
2, 104200, Note_on_c, 0, 57, 39
2, 104347, Control_c, 0, 64, 127
2, 104501, Note_on_c, 0, 64, 0
2, 104512, Note_on_c, 0, 84, 0
2, 104528, Note_on_c, 0, 55, 0
2, 104530, Note_on_c, 0, 60, 0
2, 104533, Note_on_c, 0, 57, 0
2, 104537, Note_on_c, 0, 72, 0
2, 104620, Control_c, 0, 64, 0
2, 104660, Note_on_c, 0, 83, 49
2, 104666, Note_on_c, 0, 64, 34
2, 104668, Note_on_c, 0, 71, 39
2, 104671, Note_on_c, 0, 60, 35
2, 104673, Note_on_c, 0, 55, 27
2, 104687, Note_on_c, 0, 57, 37
2, 104699, Control_c, 0, 64, 127
2, 104802, Note_on_c, 0, 71, 0
2, 104812, Note_on_c, 0, 83, 0
2, 104815, Note_on_c, 0, 55, 0
2, 104830, Note_on_c, 0, 64, 0
2, 104834, Note_on_c, 0, 57, 0
2, 104834, Note_on_c, 0, 60, 0
2, 104968, Note_on_c, 0, 84, 70
2, 104974, Note_on_c, 0, 72, 51
2, 104976, Note_on_c, 0, 64, 41
2, 104977, Note_on_c, 0, 60, 40
2, 104982, Note_on_c, 0, 57, 43
2, 104985, Note_on_c, 0, 55, 36
2, 105027, Note_on_c, 0, 55, 0
2, 105041, Note_on_c, 0, 64, 0
2, 105045, Note_on_c, 0, 84, 0
2, 105046, Note_on_c, 0, 60, 0
2, 105050, Note_on_c, 0, 72, 0
2, 105063, Note_on_c, 0, 57, 0
2, 105156, Control_c, 0, 64, 0
2, 105461, Note_on_c, 0, 86, 74
2, 105463, Note_on_c, 0, 74, 67
2, 105466, Note_on_c, 0, 64, 51
2, 105466, Note_on_c, 0, 57, 48
2, 105469, Note_on_c, 0, 60, 44
2, 105496, Note_on_c, 0, 64, 0
2, 105504, Note_on_c, 0, 74, 0
2, 105510, Note_on_c, 0, 86, 0
2, 105512, Note_on_c, 0, 60, 0
2, 105530, Note_on_c, 0, 57, 0
2, 105772, Note_on_c, 0, 84, 65
2, 105782, Note_on_c, 0, 64, 48
2, 105788, Note_on_c, 0, 72, 36
2, 105790, Control_c, 0, 64, 127
2, 105792, Note_on_c, 0, 60, 38
2, 105794, Note_on_c, 0, 57, 31
2, 105802, Note_on_c, 0, 55, 34
2, 105970, Note_on_c, 0, 55, 0
2, 105974, Note_on_c, 0, 64, 0
2, 105978, Note_on_c, 0, 60, 0
2, 105987, Note_on_c, 0, 84, 0
2, 105998, Note_on_c, 0, 57, 0
2, 106014, Note_on_c, 0, 72, 0
2, 106057, Control_c, 0, 64, 0
2, 106095, Note_on_c, 0, 83, 59
2, 106096, Note_on_c, 0, 71, 50
2, 106106, Note_on_c, 0, 60, 35
2, 106107, Note_on_c, 0, 64, 37
2, 106108, Note_on_c, 0, 57, 38
2, 106112, Note_on_c, 0, 55, 33
2, 106150, Control_c, 0, 64, 127
2, 106250, Note_on_c, 0, 55, 0
2, 106259, Note_on_c, 0, 71, 0
2, 106262, Note_on_c, 0, 64, 0
2, 106272, Note_on_c, 0, 60, 0
2, 106278, Note_on_c, 0, 57, 0
2, 106280, Note_on_c, 0, 83, 0
2, 106389, Control_c, 0, 64, 0
2, 106394, Note_on_c, 0, 84, 60
2, 106399, Note_on_c, 0, 72, 45
2, 106408, Note_on_c, 0, 64, 40
2, 106416, Note_on_c, 0, 60, 35
2, 106417, Note_on_c, 0, 57, 36
2, 106418, Note_on_c, 0, 55, 34
2, 106490, Control_c, 0, 64, 127
2, 106971, Note_on_c, 0, 84, 0
2, 107029, Note_on_c, 0, 72, 0
2, 107153, Note_on_c, 0, 55, 0
2, 107162, Note_on_c, 0, 60, 0
2, 107168, Note_on_c, 0, 64, 0
2, 107205, Note_on_c, 0, 57, 0
2, 107389, Note_on_c, 0, 60, 24
2, 107428, Note_on_c, 0, 60, 0
2, 107507, Control_c, 0, 64, 0
2, 107518, Note_on_c, 0, 60, 31
2, 107520, Note_on_c, 0, 54, 35
2, 107521, Note_on_c, 0, 86, 71
2, 107522, Note_on_c, 0, 82, 57
2, 107523, Note_on_c, 0, 77, 60
2, 107525, Note_on_c, 0, 65, 36
2, 107541, Note_on_c, 0, 58, 30
2, 107564, Note_on_c, 0, 77, 0
2, 107568, Note_on_c, 0, 65, 0
2, 107577, Note_on_c, 0, 58, 0
2, 107580, Note_on_c, 0, 86, 0
2, 107589, Note_on_c, 0, 60, 0
2, 107596, Note_on_c, 0, 82, 0
2, 107608, Note_on_c, 0, 54, 0
2, 107815, Note_on_c, 0, 75, 43
2, 107821, Note_on_c, 0, 84, 53
2, 107829, Note_on_c, 0, 80, 37
2, 107834, Note_on_c, 0, 65, 30
2, 107839, Note_on_c, 0, 54, 28
2, 107843, Note_on_c, 0, 60, 37
2, 107846, Note_on_c, 0, 58, 32
2, 107892, Note_on_c, 0, 75, 0
2, 107893, Note_on_c, 0, 65, 0
2, 107910, Note_on_c, 0, 54, 0
2, 107910, Note_on_c, 0, 60, 0
2, 107932, Note_on_c, 0, 84, 0
2, 107938, Note_on_c, 0, 58, 0
2, 107944, Note_on_c, 0, 80, 0
2, 107984, Note_on_c, 0, 65, 31
2, 107993, Note_on_c, 0, 86, 55
2, 107994, Note_on_c, 0, 77, 33
2, 107997, Note_on_c, 0, 54, 23
2, 108003, Note_on_c, 0, 58, 26
2, 108005, Note_on_c, 0, 82, 37
2, 108009, Note_on_c, 0, 60, 38
2, 108044, Control_c, 0, 64, 127
2, 108094, Control_c, 0, 64, 0
2, 108101, Note_on_c, 0, 86, 0
2, 108116, Control_c, 0, 64, 127
2, 108117, Note_on_c, 0, 82, 0
2, 108122, Note_on_c, 0, 77, 0
2, 108162, Note_on_c, 0, 65, 0
2, 108173, Note_on_c, 0, 60, 0
2, 108375, Note_on_c, 0, 54, 0
2, 108394, Note_on_c, 0, 58, 0
2, 108459, Note_on_c, 0, 74, 47
2, 108461, Control_c, 0, 64, 0
2, 108464, Note_on_c, 0, 65, 37
2, 108472, Note_on_c, 0, 54, 25
2, 108476, Note_on_c, 0, 70, 40
2, 108478, Note_on_c, 0, 58, 20
2, 108489, Note_on_c, 0, 60, 35
2, 108585, Control_c, 0, 64, 127
2, 108592, Note_on_c, 0, 60, 0
2, 108616, Note_on_c, 0, 58, 0
2, 108645, Note_on_c, 0, 54, 0
2, 108935, Note_on_c, 0, 50, 81
2, 109031, Note_on_c, 0, 65, 0
2, 109082, Note_on_c, 0, 70, 0
2, 109115, Note_on_c, 0, 74, 0
2, 109381, Note_on_c, 0, 74, 82
2, 109389, Note_on_c, 0, 66, 75
2, 109390, Note_on_c, 0, 63, 71
2, 109392, Control_c, 0, 64, 0
2, 109396, Note_on_c, 0, 69, 66
2, 109397, Note_on_c, 0, 62, 78
2, 109588, Control_c, 0, 64, 127
2, 109738, Note_on_c, 0, 74, 0
2, 109745, Note_on_c, 0, 63, 0
2, 109760, Note_on_c, 0, 66, 0
2, 109760, Note_on_c, 0, 62, 0
2, 109763, Note_on_c, 0, 69, 0
2, 109854, Note_on_c, 0, 74, 74
2, 109860, Note_on_c, 0, 66, 72
2, 109860, Note_on_c, 0, 62, 68
2, 109862, Note_on_c, 0, 63, 67
2, 109871, Note_on_c, 0, 69, 57
2, 110130, Note_on_c, 0, 62, 0
2, 110148, Note_on_c, 0, 63, 0
2, 110195, Note_on_c, 0, 66, 0
2, 110199, Note_on_c, 0, 74, 0
2, 110214, Note_on_c, 0, 69, 0
2, 110310, Control_c, 0, 64, 0
2, 110316, Note_on_c, 0, 72, 64
2, 110319, Note_on_c, 0, 63, 71
2, 110324, Note_on_c, 0, 66, 67
2, 110326, Note_on_c, 0, 60, 59
2, 110328, Note_on_c, 0, 69, 58
2, 110441, Control_c, 0, 64, 127
2, 110498, Note_on_c, 0, 50, 0
2, 110589, Note_on_c, 0, 63, 0
2, 110590, Note_on_c, 0, 60, 0
2, 110639, Note_on_c, 0, 69, 0
2, 110643, Note_on_c, 0, 66, 0
2, 110669, Note_on_c, 0, 72, 0
2, 110784, Note_on_c, 0, 72, 62
2, 110788, Note_on_c, 0, 50, 66
2, 110796, Note_on_c, 0, 66, 64
2, 110799, Note_on_c, 0, 63, 52
2, 110801, Note_on_c, 0, 69, 61
2, 110881, Note_on_c, 0, 50, 0
2, 110925, Note_on_c, 0, 69, 0
2, 110926, Note_on_c, 0, 72, 0
2, 110929, Note_on_c, 0, 63, 0
2, 110965, Note_on_c, 0, 66, 0
2, 111228, Note_on_c, 0, 71, 73
2, 111235, Note_on_c, 0, 67, 65
2, 111239, Note_on_c, 0, 63, 74
2, 111250, Control_c, 0, 64, 0
2, 111252, Note_on_c, 0, 59, 71
2, 111254, Note_on_c, 0, 41, 60
2, 111495, Control_c, 0, 64, 127
2, 111659, Note_on_c, 0, 59, 0
2, 111761, Note_on_c, 0, 48, 30
2, 111881, Note_on_c, 0, 67, 0
2, 112020, Note_on_c, 0, 63, 0
2, 112203, Note_on_c, 0, 71, 0
2, 112236, Note_on_c, 0, 67, 29
2, 112241, Note_on_c, 0, 63, 21
2, 112262, Note_on_c, 0, 57, 36
2, 112275, Note_on_c, 0, 59, 18
2, 112625, Note_on_c, 0, 41, 0
2, 112655, Note_on_c, 0, 48, 0
2, 112659, Note_on_c, 0, 59, 0
2, 112710, Note_on_c, 0, 57, 0
2, 112780, Note_on_c, 0, 63, 0
2, 112801, Note_on_c, 0, 67, 0
2, 113226, Note_on_c, 0, 72, 44
2, 113270, Control_c, 0, 64, 0
2, 113273, Note_on_c, 0, 56, 34
2, 113278, Note_on_c, 0, 67, 24
2, 113295, Note_on_c, 0, 64, 31
2, 113306, Note_on_c, 0, 62, 25
2, 113493, Control_c, 0, 64, 127
2, 113495, Note_on_c, 0, 64, 0
2, 113527, Note_on_c, 0, 67, 0
2, 113548, Note_on_c, 0, 72, 0
2, 113801, Note_on_c, 0, 62, 0
2, 113838, Note_on_c, 0, 84, 54
2, 113907, Note_on_c, 0, 76, 36
2, 113924, Note_on_c, 0, 84, 0
2, 114015, Note_on_c, 0, 76, 0
2, 114211, Note_on_c, 0, 67, 24
2, 114223, Note_on_c, 0, 62, 28
2, 114501, Note_on_c, 0, 83, 57
2, 114502, Note_on_c, 0, 62, 0
2, 114507, Note_on_c, 0, 67, 0
2, 114581, Note_on_c, 0, 83, 0
2, 114648, Note_on_c, 0, 84, 42
2, 114700, Note_on_c, 0, 84, 0
2, 114764, Note_on_c, 0, 56, 0
2, 114945, Note_on_c, 0, 95, 74
2, 115062, Note_on_c, 0, 95, 0
2, 115099, Note_on_c, 0, 96, 40
2, 115103, Note_on_c, 0, 60, 36
2, 115105, Note_on_c, 0, 64, 22
2, 115111, Note_on_c, 0, 59, 33
2, 115146, Control_c, 0, 64, 0
2, 115242, Note_on_c, 0, 96, 0
2, 115304, Note_on_c, 0, 100, 58
2, 115404, Note_on_c, 0, 100, 0
2, 115435, Note_on_c, 0, 95, 53
2, 115506, Note_on_c, 0, 95, 0
2, 115573, Note_on_c, 0, 98, 55
2, 115657, Note_on_c, 0, 98, 0
2, 115720, Note_on_c, 0, 64, 0
2, 115864, Note_on_c, 0, 96, 66
2, 115951, Note_on_c, 0, 59, 0
2, 115963, Note_on_c, 0, 96, 0
2, 116055, Note_on_c, 0, 92, 69
2, 116066, Note_on_c, 0, 64, 29
2, 116071, Note_on_c, 0, 57, 33
2, 116145, Note_on_c, 0, 92, 0
2, 116215, Note_on_c, 0, 95, 66
2, 116330, Note_on_c, 0, 95, 0
2, 116338, Note_on_c, 0, 92, 55
2, 116402, Note_on_c, 0, 92, 0
2, 116469, Note_on_c, 0, 93, 66
2, 116556, Note_on_c, 0, 93, 0
2, 116562, Note_on_c, 0, 88, 46
2, 116596, Note_on_c, 0, 88, 0
2, 116690, Note_on_c, 0, 91, 78
2, 116779, Note_on_c, 0, 91, 0
2, 116803, Note_on_c, 0, 93, 49
2, 116834, Note_on_c, 0, 64, 0
2, 116848, Note_on_c, 0, 91, 35
2, 116853, Note_on_c, 0, 57, 0
2, 116875, Note_on_c, 0, 93, 0
2, 116889, Note_on_c, 0, 60, 0
2, 116937, Note_on_c, 0, 91, 0
2, 116937, Note_on_c, 0, 88, 42
2, 117011, Note_on_c, 0, 88, 0
2, 117053, Note_on_c, 0, 89, 64
2, 117113, Note_on_c, 0, 60, 19
2, 117122, Note_on_c, 0, 64, 30
2, 117125, Note_on_c, 0, 89, 0
2, 117135, Note_on_c, 0, 54, 31
2, 117188, Note_on_c, 0, 90, 54
2, 117430, Note_on_c, 0, 90, 0
2, 117431, Note_on_c, 0, 93, 50
2, 117708, Control_c, 0, 64, 127
2, 117850, Note_on_c, 0, 64, 0
2, 117860, Note_on_c, 0, 86, 43
2, 117888, Note_on_c, 0, 60, 0
2, 117955, Note_on_c, 0, 86, 0
2, 118038, Note_on_c, 0, 93, 0
2, 118067, Note_on_c, 0, 60, 36
2, 118068, Note_on_c, 0, 86, 49
2, 118071, Note_on_c, 0, 64, 29
2, 118151, Note_on_c, 0, 86, 0
2, 118864, Note_on_c, 0, 60, 0
2, 118877, Note_on_c, 0, 81, 76
2, 118918, Note_on_c, 0, 64, 0
2, 118975, Note_on_c, 0, 54, 0
2, 119026, Note_on_c, 0, 81, 0
2, 119072, Note_on_c, 0, 78, 50
2, 119101, Control_c, 0, 64, 0
2, 119354, Control_c, 0, 64, 127
2, 119359, Note_on_c, 0, 71, 40
2, 119382, Note_on_c, 0, 78, 0
2, 119386, Note_on_c, 0, 62, 24
2, 119435, Note_on_c, 0, 71, 0
2, 119477, Control_c, 0, 64, 0
2, 119538, Note_on_c, 0, 66, 36
2, 119642, Control_c, 0, 64, 127
2, 119773, Note_on_c, 0, 66, 0
2, 119800, Note_on_c, 0, 62, 0
2, 119989, Note_on_c, 0, 64, 43
2, 119997, Control_c, 0, 64, 0
2, 119999, Note_on_c, 0, 62, 32
2, 120012, Note_on_c, 0, 50, 26
2, 120023, Note_on_c, 0, 57, 25
2, 120069, Note_on_c, 0, 62, 0
2, 120071, Note_on_c, 0, 64, 0
2, 120310, Note_on_c, 0, 62, 37
2, 120313, Note_on_c, 0, 64, 48
2, 120379, Note_on_c, 0, 62, 0
2, 120387, Note_on_c, 0, 64, 0
2, 120485, Note_on_c, 0, 57, 0
2, 120493, Note_on_c, 0, 62, 27
2, 120499, Note_on_c, 0, 64, 36
2, 120695, Note_on_c, 0, 62, 0
2, 120710, Control_c, 0, 64, 127
2, 120729, Note_on_c, 0, 64, 0
2, 120761, Note_on_c, 0, 62, 27
2, 120773, Note_on_c, 0, 66, 39
2, 120806, Note_on_c, 0, 59, 13
2, 120878, Note_on_c, 0, 62, 0
2, 120904, Note_on_c, 0, 66, 0
2, 120919, Control_c, 0, 64, 0
2, 120920, Note_on_c, 0, 59, 0
2, 120938, Note_on_c, 0, 62, 33
2, 120946, Note_on_c, 0, 64, 51
2, 120963, Note_on_c, 0, 57, 33
2, 121490, Control_c, 0, 64, 127
2, 121635, Note_on_c, 0, 57, 0
2, 121735, Note_on_c, 0, 62, 0
2, 121752, Note_on_c, 0, 64, 0
2, 121880, Control_c, 0, 64, 0
2, 121911, Note_on_c, 0, 64, 44
2, 121912, Note_on_c, 0, 62, 43
2, 121918, Note_on_c, 0, 57, 36
2, 122198, Note_on_c, 0, 57, 0
2, 122203, Control_c, 0, 64, 127
2, 122208, Note_on_c, 0, 59, 46
2, 122210, Note_on_c, 0, 66, 65
2, 122247, Note_on_c, 0, 64, 0
2, 122323, Note_on_c, 0, 62, 0
2, 122341, Control_c, 0, 64, 0
2, 122348, Note_on_c, 0, 59, 0
2, 122380, Note_on_c, 0, 66, 0
2, 122387, Note_on_c, 0, 57, 44
2, 122388, Note_on_c, 0, 64, 57
2, 122394, Note_on_c, 0, 62, 37
2, 122486, Control_c, 0, 64, 127
2, 122488, Note_on_c, 0, 50, 0
2, 122633, Note_on_c, 0, 64, 0
2, 122648, Note_on_c, 0, 62, 0
2, 122670, Note_on_c, 0, 57, 0
2, 122687, Note_on_c, 0, 50, 58
2, 122762, Note_on_c, 0, 50, 0
2, 122840, Note_on_c, 0, 67, 58
2, 122842, Note_on_c, 0, 60, 65
2, 122843, Note_on_c, 0, 57, 66
2, 122847, Control_c, 0, 64, 0
2, 122848, Note_on_c, 0, 64, 59
2, 122861, Note_on_c, 0, 50, 68
2, 123111, Note_on_c, 0, 67, 0
2, 123134, Note_on_c, 0, 64, 0
2, 123142, Control_c, 0, 64, 127
2, 123176, Note_on_c, 0, 66, 46
2, 123250, Note_on_c, 0, 60, 0
2, 123252, Note_on_c, 0, 57, 0
2, 123273, Note_on_c, 0, 66, 0
2, 123316, Control_c, 0, 64, 0
2, 123346, Note_on_c, 0, 57, 28
2, 123349, Note_on_c, 0, 60, 48
2, 123350, Note_on_c, 0, 67, 40
2, 123353, Note_on_c, 0, 64, 47
2, 123445, Control_c, 0, 64, 127
2, 123459, Note_on_c, 0, 50, 0
2, 123659, Note_on_c, 0, 50, 60
2, 123687, Note_on_c, 0, 49, 38
2, 123691, Control_c, 0, 64, 0
2, 123720, Note_on_c, 0, 49, 0
2, 123835, Control_c, 0, 64, 127
2, 124098, Note_on_c, 0, 57, 0
2, 124117, Note_on_c, 0, 60, 0
2, 124128, Note_on_c, 0, 38, 43
2, 124238, Note_on_c, 0, 38, 0
2, 124258, Note_on_c, 0, 67, 0
2, 124268, Note_on_c, 0, 64, 0
2, 124304, Note_on_c, 0, 60, 33
2, 124309, Note_on_c, 0, 57, 24
2, 124427, Note_on_c, 0, 57, 0
2, 124441, Note_on_c, 0, 50, 0
2, 124490, Note_on_c, 0, 60, 0
2, 124620, Note_on_c, 0, 49, 31
2, 124746, Note_on_c, 0, 49, 0
2, 124759, Control_c, 0, 64, 0
2, 124779, Note_on_c, 0, 50, 54
2, 124787, Note_on_c, 0, 67, 56
2, 124787, Note_on_c, 0, 60, 64
2, 124787, Note_on_c, 0, 64, 55
2, 124788, Note_on_c, 0, 57, 65
2, 124866, Note_on_c, 0, 57, 0
2, 124884, Control_c, 0, 64, 127
2, 124906, Note_on_c, 0, 60, 0
2, 124921, Note_on_c, 0, 50, 0
2, 124934, Note_on_c, 0, 64, 0
2, 124947, Note_on_c, 0, 67, 0
2, 125592, Note_on_c, 0, 74, 77
2, 125677, Note_on_c, 0, 74, 0
2, 125829, Control_c, 0, 64, 0
2, 125836, Note_on_c, 0, 74, 85
2, 125849, Note_on_c, 0, 70, 76
2, 125852, Note_on_c, 0, 54, 57
2, 125853, Note_on_c, 0, 60, 48
2, 125870, Note_on_c, 0, 65, 53
2, 126002, Control_c, 0, 64, 127
2, 126135, Note_on_c, 0, 70, 0
2, 126183, Note_on_c, 0, 60, 0
2, 126227, Note_on_c, 0, 65, 0
2, 126250, Note_on_c, 0, 54, 0
2, 126253, Note_on_c, 0, 70, 64
2, 126265, Note_on_c, 0, 74, 0
2, 126367, Note_on_c, 0, 70, 0
2, 126616, Note_on_c, 0, 66, 52
2, 126626, Note_on_c, 0, 62, 30
2, 126649, Note_on_c, 0, 54, 33
2, 126652, Control_c, 0, 64, 0
2, 126653, Note_on_c, 0, 50, 37
2, 126667, Note_on_c, 0, 43, 37
2, 126853, Control_c, 0, 64, 127
2, 126992, Note_on_c, 0, 66, 0
2, 127037, Note_on_c, 0, 62, 0
2, 127108, Note_on_c, 0, 54, 0
2, 127213, Note_on_c, 0, 54, 33
2, 127225, Note_on_c, 0, 62, 37
2, 127230, Note_on_c, 0, 57, 27
2, 127243, Note_on_c, 0, 59, 24
2, 127539, Note_on_c, 0, 54, 0
2, 127693, Note_on_c, 0, 57, 0
2, 127706, Note_on_c, 0, 54, 30
2, 127707, Note_on_c, 0, 59, 0
2, 127733, Note_on_c, 0, 62, 0
2, 128022, Note_on_c, 0, 57, 25
2, 128030, Control_c, 0, 64, 0
2, 128052, Note_on_c, 0, 57, 0
2, 128076, Note_on_c, 0, 54, 0
2, 128087, Note_on_c, 0, 50, 0
2, 128115, Note_on_c, 0, 43, 0
2, 128169, Note_on_c, 0, 62, 48
2, 128279, Note_on_c, 0, 62, 0
2, 128301, Note_on_c, 0, 66, 60
2, 128362, Note_on_c, 0, 66, 0
2, 128440, Note_on_c, 0, 69, 78
2, 128520, Note_on_c, 0, 69, 0
2, 128562, Note_on_c, 0, 74, 84
2, 128603, Note_on_c, 0, 36, 42
2, 128654, Note_on_c, 0, 36, 0
2, 128691, Note_on_c, 0, 78, 70
2, 128723, Note_on_c, 0, 74, 0
2, 128787, Note_on_c, 0, 78, 0
2, 128818, Note_on_c, 0, 79, 71
2, 128925, Note_on_c, 0, 78, 55
2, 128935, Note_on_c, 0, 79, 0
2, 129056, Note_on_c, 0, 74, 59
2, 129110, Note_on_c, 0, 78, 0
2, 129133, Note_on_c, 0, 74, 0
2, 129175, Note_on_c, 0, 71, 45
2, 129271, Note_on_c, 0, 71, 0
2, 129611, Note_on_c, 0, 58, 39
2, 129618, Note_on_c, 0, 57, 24
2, 129620, Note_on_c, 0, 62, 24
2, 129707, Note_on_c, 0, 57, 0
2, 129714, Note_on_c, 0, 62, 0
2, 129717, Note_on_c, 0, 58, 0
2, 129897, Note_on_c, 0, 66, 56
2, 130003, Note_on_c, 0, 66, 0
2, 130054, Note_on_c, 0, 67, 50
2, 130144, Note_on_c, 0, 67, 0
2, 130209, Note_on_c, 0, 69, 52
2, 130273, Note_on_c, 0, 69, 0
2, 130344, Note_on_c, 0, 70, 69
2, 130479, Note_on_c, 0, 70, 0
2, 130485, Note_on_c, 0, 57, 43
2, 130495, Note_on_c, 0, 47, 30
2, 130496, Note_on_c, 0, 71, 57
2, 130556, Note_on_c, 0, 57, 0
2, 130559, Note_on_c, 0, 47, 0
2, 130618, Note_on_c, 0, 71, 0
2, 130654, Note_on_c, 0, 62, 47
2, 130723, Note_on_c, 0, 62, 0
2, 130825, Note_on_c, 0, 62, 36
2, 130868, Note_on_c, 0, 62, 0
2, 130977, Note_on_c, 0, 62, 34
2, 131069, Note_on_c, 0, 62, 0
2, 131437, Note_on_c, 0, 62, 55
2, 131520, Note_on_c, 0, 62, 0
2, 131529, Note_on_c, 0, 64, 55
2, 131604, Note_on_c, 0, 64, 0
2, 131613, Note_on_c, 0, 62, 32
2, 131666, Note_on_c, 0, 62, 0
2, 131674, Note_on_c, 0, 61, 40
2, 131705, Note_on_c, 0, 61, 0
2, 131758, Note_on_c, 0, 62, 58
2, 131846, Note_on_c, 0, 62, 0
2, 131852, Note_on_c, 0, 64, 51
2, 131932, Note_on_c, 0, 64, 0
2, 131947, Note_on_c, 0, 62, 24
2, 132005, Note_on_c, 0, 62, 0
2, 132020, Note_on_c, 0, 61, 40
2, 132072, Note_on_c, 0, 61, 0
2, 132114, Note_on_c, 0, 62, 62
2, 132213, Note_on_c, 0, 64, 60
2, 132216, Note_on_c, 0, 62, 0
2, 132292, Note_on_c, 0, 62, 32
2, 132299, Note_on_c, 0, 64, 0
2, 132341, Note_on_c, 0, 62, 0
2, 132353, Note_on_c, 0, 61, 46
2, 132406, Note_on_c, 0, 61, 0
2, 132432, Note_on_c, 0, 56, 45
2, 132438, Note_on_c, 0, 47, 41
2, 132440, Note_on_c, 0, 62, 35
2, 132959, Note_on_c, 0, 62, 0
2, 132963, Note_on_c, 0, 59, 53
2, 133366, Note_on_c, 0, 47, 0
2, 133424, Note_on_c, 0, 59, 0
2, 133433, Note_on_c, 0, 47, 34
2, 133443, Control_c, 0, 64, 127
2, 133509, Note_on_c, 0, 47, 0
2, 133546, Note_on_c, 0, 56, 0
2, 133683, Note_on_c, 0, 71, 68
2, 133693, Note_on_c, 0, 62, 71
2, 133696, Note_on_c, 0, 56, 56
2, 133697, Note_on_c, 0, 65, 63
2, 133710, Note_on_c, 0, 68, 37
2, 133795, Note_on_c, 0, 71, 0
2, 133808, Note_on_c, 0, 68, 0
2, 133831, Note_on_c, 0, 62, 0
2, 133847, Note_on_c, 0, 65, 0
2, 133854, Control_c, 0, 64, 0
2, 133881, Note_on_c, 0, 72, 67
2, 133885, Note_on_c, 0, 62, 54
2, 133891, Note_on_c, 0, 57, 70
2, 133892, Note_on_c, 0, 65, 51
2, 133926, Control_c, 0, 64, 127
2, 133962, Note_on_c, 0, 65, 0
2, 133985, Note_on_c, 0, 62, 0
2, 134019, Note_on_c, 0, 72, 0
2, 134091, Control_c, 0, 64, 0
2, 134145, Note_on_c, 0, 59, 67
2, 134147, Note_on_c, 0, 57, 0
2, 134147, Note_on_c, 0, 74, 81
2, 134150, Control_c, 0, 64, 127
2, 134157, Note_on_c, 0, 56, 0
2, 134211, Note_on_c, 0, 59, 0
2, 134235, Note_on_c, 0, 74, 0
2, 134258, Control_c, 0, 64, 0
2, 134340, Note_on_c, 0, 74, 72
2, 134347, Note_on_c, 0, 62, 60
2, 134352, Note_on_c, 0, 64, 54
2, 134355, Note_on_c, 0, 71, 53
2, 134359, Note_on_c, 0, 67, 53
2, 134619, Note_on_c, 0, 67, 0
2, 134626, Note_on_c, 0, 62, 0
2, 134627, Note_on_c, 0, 64, 0
2, 134649, Note_on_c, 0, 74, 0
2, 134700, Note_on_c, 0, 59, 35
2, 134771, Note_on_c, 0, 71, 0
2, 134831, Note_on_c, 0, 72, 31
2, 134832, Note_on_c, 0, 59, 0
2, 134843, Note_on_c, 0, 60, 53
2, 134854, Note_on_c, 0, 64, 16
2, 134863, Note_on_c, 0, 67, 30
2, 135042, Note_on_c, 0, 60, 0
2, 135051, Note_on_c, 0, 67, 0
2, 135063, Note_on_c, 0, 64, 0
2, 135096, Note_on_c, 0, 72, 0
2, 135122, Note_on_c, 0, 74, 61
2, 135132, Note_on_c, 0, 62, 42
2, 135135, Note_on_c, 0, 67, 44
2, 135136, Note_on_c, 0, 72, 33
2, 135148, Note_on_c, 0, 64, 28
2, 135187, Note_on_c, 0, 67, 0
2, 135200, Note_on_c, 0, 62, 0
2, 135202, Note_on_c, 0, 74, 0
2, 135209, Note_on_c, 0, 72, 0
2, 135232, Note_on_c, 0, 64, 0
2, 135312, Note_on_c, 0, 71, 41
2, 135323, Note_on_c, 0, 59, 39
2, 135325, Note_on_c, 0, 62, 18
2, 135343, Note_on_c, 0, 67, 27
2, 135369, Note_on_c, 0, 64, 19
2, 135370, Note_on_c, 0, 65, 18
2, 135473, Note_on_c, 0, 65, 0
2, 135536, Note_on_c, 0, 62, 0
2, 135631, Note_on_c, 0, 67, 0
2, 135667, Note_on_c, 0, 64, 0
2, 135809, Note_on_c, 0, 64, 34
2, 135816, Note_on_c, 0, 60, 24
2, 135819, Note_on_c, 0, 67, 36
2, 135838, Note_on_c, 0, 55, 33
2, 135841, Note_on_c, 0, 59, 0
2, 136123, Note_on_c, 0, 64, 0
2, 136127, Note_on_c, 0, 60, 0
2, 136205, Note_on_c, 0, 71, 0
2, 136207, Note_on_c, 0, 67, 0
2, 136271, Note_on_c, 0, 55, 0
2, 136288, Note_on_c, 0, 57, 40
2, 136292, Note_on_c, 0, 69, 34
2, 136294, Note_on_c, 0, 60, 25
2, 136304, Note_on_c, 0, 64, 34
2, 136618, Control_c, 0, 64, 127
2, 136731, Note_on_c, 0, 60, 0
2, 136765, Note_on_c, 0, 57, 0
2, 136783, Note_on_c, 0, 64, 0
2, 136841, Note_on_c, 0, 69, 0
2, 137079, Note_on_c, 0, 75, 78
2, 137082, Note_on_c, 0, 87, 73
2, 137084, Note_on_c, 0, 82, 73
2, 137084, Note_on_c, 0, 66, 83
2, 137085, Note_on_c, 0, 55, 77
2, 137086, Note_on_c, 0, 61, 68
2, 137096, Control_c, 0, 64, 0
2, 137183, Note_on_c, 0, 55, 0
2, 137191, Note_on_c, 0, 66, 0
2, 137249, Note_on_c, 0, 82, 0
2, 137254, Note_on_c, 0, 87, 0
2, 137255, Note_on_c, 0, 75, 0
2, 137273, Note_on_c, 0, 61, 0
2, 137285, Note_on_c, 0, 64, 60
2, 137289, Note_on_c, 0, 54, 56
2, 137295, Note_on_c, 0, 86, 58
2, 137296, Note_on_c, 0, 60, 50
2, 137305, Note_on_c, 0, 81, 34
2, 137312, Note_on_c, 0, 74, 32
2, 137371, Note_on_c, 0, 54, 0
2, 137375, Note_on_c, 0, 86, 0
2, 137377, Note_on_c, 0, 64, 0
2, 137379, Note_on_c, 0, 74, 0
2, 137384, Note_on_c, 0, 81, 0
2, 137398, Note_on_c, 0, 60, 0
2, 137500, Control_c, 0, 64, 127
2, 137593, Control_c, 0, 64, 0
2, 137732, Note_on_c, 0, 85, 52
2, 137742, Note_on_c, 0, 64, 49
2, 137742, Note_on_c, 0, 80, 42
2, 137744, Note_on_c, 0, 54, 44
2, 137750, Note_on_c, 0, 60, 46
2, 137751, Note_on_c, 0, 73, 25
2, 137767, Control_c, 0, 64, 127
2, 137811, Note_on_c, 0, 64, 0
2, 137824, Control_c, 0, 64, 0
2, 137832, Note_on_c, 0, 60, 0
2, 137832, Note_on_c, 0, 73, 0
2, 137853, Note_on_c, 0, 80, 0
2, 137868, Note_on_c, 0, 54, 0
2, 137873, Note_on_c, 0, 85, 0
2, 137948, Control_c, 0, 64, 127
2, 138135, Control_c, 0, 64, 0
2, 138177, Note_on_c, 0, 86, 58
2, 138184, Note_on_c, 0, 78, 31
2, 138185, Note_on_c, 0, 74, 43
2, 138197, Note_on_c, 0, 81, 43
2, 138200, Note_on_c, 0, 57, 37
2, 138208, Note_on_c, 0, 48, 40
2, 138344, Control_c, 0, 64, 127
2, 138419, Note_on_c, 0, 86, 0
2, 138460, Note_on_c, 0, 81, 0
2, 138484, Note_on_c, 0, 78, 0
2, 138489, Note_on_c, 0, 74, 0
2, 138814, Note_on_c, 0, 57, 0
2, 138953, Note_on_c, 0, 48, 0
2, 139103, Note_on_c, 0, 74, 69
2, 139110, Note_on_c, 0, 69, 59
2, 139111, Note_on_c, 0, 66, 67
2, 139138, Control_c, 0, 64, 0
2, 139445, Note_on_c, 0, 62, 77
2, 139493, Control_c, 0, 64, 127
2, 139622, Note_on_c, 0, 62, 0
2, 139672, Note_on_c, 0, 66, 0
2, 139748, Note_on_c, 0, 66, 60
2, 139775, Note_on_c, 0, 74, 0
2, 139842, Note_on_c, 0, 69, 0
2, 139888, Note_on_c, 0, 62, 44
2, 139926, Note_on_c, 0, 56, 31
2, 139975, Note_on_c, 0, 66, 0
2, 140000, Note_on_c, 0, 56, 0
2, 140000, Note_on_c, 0, 62, 0
2, 140076, Note_on_c, 0, 57, 39
2, 140077, Note_on_c, 0, 66, 58
2, 140090, Control_c, 0, 64, 0
2, 140093, Note_on_c, 0, 62, 48
2, 140095, Note_on_c, 0, 48, 46
2, 140435, Note_on_c, 0, 62, 0
2, 140488, Control_c, 0, 64, 127
2, 140551, Note_on_c, 0, 62, 46
2, 140608, Note_on_c, 0, 57, 0
2, 140864, Note_on_c, 0, 62, 0
2, 140942, Note_on_c, 0, 66, 0
2, 141015, Note_on_c, 0, 57, 37
2, 141376, Control_c, 0, 64, 0
2, 141385, Note_on_c, 0, 81, 49
2, 141529, Note_on_c, 0, 82, 56
2, 141548, Note_on_c, 0, 48, 0
2, 141556, Note_on_c, 0, 81, 0
2, 141670, Note_on_c, 0, 57, 0
2, 141694, Note_on_c, 0, 83, 50
2, 141696, Note_on_c, 0, 82, 0
2, 141787, Note_on_c, 0, 83, 0
2, 141841, Note_on_c, 0, 86, 72
2, 141960, Note_on_c, 0, 86, 0
2, 142002, Note_on_c, 0, 51, 32
2, 142002, Note_on_c, 0, 82, 55
2, 142006, Note_on_c, 0, 62, 27
2, 142013, Note_on_c, 0, 57, 37
2, 142152, Note_on_c, 0, 82, 0
2, 142170, Note_on_c, 0, 83, 38
2, 142283, Note_on_c, 0, 83, 0
2, 142327, Note_on_c, 0, 86, 68
2, 142423, Note_on_c, 0, 86, 0
2, 142507, Note_on_c, 0, 83, 51
2, 142542, Note_on_c, 0, 83, 0
2, 142551, Note_on_c, 0, 62, 0
2, 142566, Note_on_c, 0, 57, 0
2, 142619, Note_on_c, 0, 51, 0
2, 142825, Note_on_c, 0, 79, 38
2, 142906, Note_on_c, 0, 79, 0
2, 142982, Note_on_c, 0, 71, 32
2, 143255, Note_on_c, 0, 71, 0
2, 143344, Note_on_c, 0, 71, 48
2, 143385, Note_on_c, 0, 71, 0
2, 143573, Note_on_c, 0, 57, 27
2, 143600, Note_on_c, 0, 57, 0
2, 143888, Note_on_c, 0, 28, 30
2, 143896, Note_on_c, 0, 29, 35
2, 143929, Note_on_c, 0, 28, 0
2, 143939, Note_on_c, 0, 29, 0
2, 144366, Note_on_c, 0, 52, 45
2, 144428, Note_on_c, 0, 52, 0
2, 144505, Note_on_c, 0, 55, 50
2, 144585, Note_on_c, 0, 55, 0
2, 144618, Note_on_c, 0, 56, 69
2, 144719, Note_on_c, 0, 58, 81
2, 144755, Note_on_c, 0, 56, 0
2, 144816, Note_on_c, 0, 58, 0
2, 144824, Note_on_c, 0, 59, 77
2, 144906, Note_on_c, 0, 59, 0
2, 144932, Note_on_c, 0, 60, 77
2, 144960, Note_on_c, 0, 56, 42
2, 145019, Note_on_c, 0, 60, 0
2, 145057, Note_on_c, 0, 61, 60
2, 145144, Note_on_c, 0, 61, 0
2, 145177, Note_on_c, 0, 62, 57
2, 145249, Note_on_c, 0, 62, 0
2, 145294, Note_on_c, 0, 63, 44
2, 145355, Note_on_c, 0, 63, 0
2, 145418, Note_on_c, 0, 64, 54
2, 145482, Note_on_c, 0, 62, 33
2, 145485, Note_on_c, 0, 64, 0
2, 145524, Note_on_c, 0, 67, 57
2, 145590, Note_on_c, 0, 56, 0
2, 145598, Note_on_c, 0, 67, 0
2, 145644, Note_on_c, 0, 71, 72
2, 145724, Note_on_c, 0, 71, 0
2, 145760, Note_on_c, 0, 74, 90
2, 145768, Note_on_c, 0, 62, 0
2, 145881, Note_on_c, 0, 64, 37
2, 145887, Note_on_c, 0, 72, 67
2, 145900, Note_on_c, 0, 60, 40
2, 145916, Note_on_c, 0, 59, 27
2, 145917, Note_on_c, 0, 74, 0
2, 145995, Note_on_c, 0, 72, 0
2, 146032, Note_on_c, 0, 68, 38
2, 146096, Note_on_c, 0, 68, 0
2, 146148, Note_on_c, 0, 71, 54
2, 146254, Note_on_c, 0, 64, 0
2, 146283, Note_on_c, 0, 71, 0
2, 146284, Note_on_c, 0, 68, 39
2, 146313, Note_on_c, 0, 60, 0
2, 146367, Note_on_c, 0, 68, 0
2, 146416, Note_on_c, 0, 69, 48
2, 146417, Note_on_c, 0, 64, 34
2, 146437, Note_on_c, 0, 60, 42
2, 146459, Note_on_c, 0, 64, 0
2, 146511, Note_on_c, 0, 60, 0
2, 146524, Note_on_c, 0, 69, 0
2, 146552, Note_on_c, 0, 64, 34
2, 146642, Note_on_c, 0, 64, 0
2, 146717, Note_on_c, 0, 64, 35
2, 146819, Note_on_c, 0, 64, 0
2, 146875, Note_on_c, 0, 60, 29
2, 146900, Note_on_c, 0, 64, 28
2, 147204, Note_on_c, 0, 64, 0
2, 147325, Note_on_c, 0, 64, 41
2, 147438, Note_on_c, 0, 64, 0
2, 147538, Note_on_c, 0, 59, 0
2, 147544, Note_on_c, 0, 60, 0
2, 147590, Note_on_c, 0, 64, 50
2, 147645, Note_on_c, 0, 64, 0
2, 147743, Note_on_c, 0, 60, 34
2, 147748, Note_on_c, 0, 54, 36
2, 147749, Note_on_c, 0, 68, 70
2, 147838, Note_on_c, 0, 68, 0
2, 147848, Note_on_c, 0, 69, 43
2, 147916, Note_on_c, 0, 69, 0
2, 147922, Note_on_c, 0, 68, 37
2, 147977, Note_on_c, 0, 64, 50
2, 147986, Note_on_c, 0, 68, 0
2, 148016, Note_on_c, 0, 64, 0
2, 148067, Note_on_c, 0, 67, 70
2, 148145, Note_on_c, 0, 67, 0
2, 148149, Note_on_c, 0, 69, 54
2, 148206, Note_on_c, 0, 60, 0
2, 148241, Note_on_c, 0, 69, 0
2, 148241, Note_on_c, 0, 67, 35
2, 148313, Note_on_c, 0, 67, 0
2, 148321, Note_on_c, 0, 64, 40
2, 148373, Note_on_c, 0, 64, 0
2, 148415, Note_on_c, 0, 66, 68
2, 148498, Note_on_c, 0, 66, 0
2, 148725, Note_on_c, 0, 60, 31
2, 148807, Note_on_c, 0, 60, 0
2, 149180, Note_on_c, 0, 54, 0
2, 149236, Note_on_c, 0, 62, 30
2, 149286, Note_on_c, 0, 62, 0
2, 149355, Note_on_c, 0, 64, 50
2, 149432, Note_on_c, 0, 64, 0
2, 149486, Note_on_c, 0, 66, 71
2, 149626, Note_on_c, 0, 66, 0
2, 149648, Note_on_c, 0, 47, 39
2, 149649, Note_on_c, 0, 57, 41
2, 149653, Note_on_c, 0, 64, 50
2, 149713, Control_c, 0, 64, 127
2, 149752, Note_on_c, 0, 47, 0
2, 149773, Note_on_c, 0, 64, 0
2, 149809, Note_on_c, 0, 57, 0
2, 149989, Note_on_c, 0, 76, 75
2, 150073, Note_on_c, 0, 76, 0
2, 150126, Note_on_c, 0, 76, 67
2, 150159, Note_on_c, 0, 73, 55
2, 150167, Note_on_c, 0, 62, 52
2, 150167, Note_on_c, 0, 66, 45
2, 150172, Note_on_c, 0, 64, 52
2, 150178, Note_on_c, 0, 69, 58
2, 150239, Control_c, 0, 64, 0
2, 150304, Note_on_c, 0, 69, 0
2, 150306, Note_on_c, 0, 73, 0
2, 150311, Note_on_c, 0, 66, 0
2, 150322, Note_on_c, 0, 62, 0
2, 150330, Note_on_c, 0, 76, 0
2, 150337, Note_on_c, 0, 64, 0
2, 150429, Note_on_c, 0, 76, 54
2, 150448, Note_on_c, 0, 73, 48
2, 150462, Note_on_c, 0, 66, 36
2, 150463, Note_on_c, 0, 64, 40
2, 150469, Note_on_c, 0, 62, 41
2, 150475, Note_on_c, 0, 69, 36
2, 150510, Note_on_c, 0, 76, 0
2, 150516, Note_on_c, 0, 66, 0
2, 150547, Note_on_c, 0, 64, 0
2, 150553, Note_on_c, 0, 62, 0
2, 150554, Note_on_c, 0, 69, 0
2, 150560, Note_on_c, 0, 73, 0
2, 150615, Note_on_c, 0, 76, 58
2, 150631, Note_on_c, 0, 73, 35
2, 150638, Note_on_c, 0, 66, 37
2, 150649, Note_on_c, 0, 62, 26
2, 150650, Note_on_c, 0, 64, 28
2, 150657, Note_on_c, 0, 69, 26
2, 150730, Note_on_c, 0, 66, 0
2, 150734, Note_on_c, 0, 76, 0
2, 150742, Note_on_c, 0, 69, 0
2, 150745, Note_on_c, 0, 64, 0
2, 150750, Note_on_c, 0, 62, 0
2, 150751, Note_on_c, 0, 73, 0
2, 150880, Note_on_c, 0, 76, 46
2, 150898, Note_on_c, 0, 73, 43
2, 150921, Note_on_c, 0, 64, 34
2, 150922, Note_on_c, 0, 62, 37
2, 150925, Note_on_c, 0, 69, 34
2, 150934, Note_on_c, 0, 66, 20
2, 150967, Note_on_c, 0, 76, 0
2, 150970, Note_on_c, 0, 66, 0
2, 150988, Note_on_c, 0, 64, 0
2, 150995, Note_on_c, 0, 73, 0
2, 150998, Note_on_c, 0, 69, 0
2, 150999, Note_on_c, 0, 62, 0
2, 151078, Note_on_c, 0, 76, 44
2, 151093, Note_on_c, 0, 73, 39
2, 151160, Note_on_c, 0, 76, 0
2, 151176, Note_on_c, 0, 73, 0
2, 151369, Note_on_c, 0, 76, 51
2, 151373, Note_on_c, 0, 66, 48
2, 151375, Note_on_c, 0, 73, 39
2, 151387, Control_c, 0, 64, 127
2, 151397, Note_on_c, 0, 69, 36
2, 151443, Note_on_c, 0, 66, 0
2, 151449, Note_on_c, 0, 76, 0
2, 151456, Note_on_c, 0, 69, 0
2, 151499, Note_on_c, 0, 73, 0
2, 151553, Control_c, 0, 64, 0
2, 151567, Note_on_c, 0, 76, 53
2, 151580, Note_on_c, 0, 56, 38
2, 151585, Note_on_c, 0, 72, 41
2, 151588, Note_on_c, 0, 62, 34
2, 151594, Note_on_c, 0, 67, 38
2, 151741, Control_c, 0, 64, 127
2, 152248, Note_on_c, 0, 62, 0
2, 152343, Note_on_c, 0, 67, 0
2, 152443, Note_on_c, 0, 72, 0
2, 152519, Note_on_c, 0, 76, 0
2, 152578, Note_on_c, 0, 67, 39
2, 152581, Note_on_c, 0, 71, 36
2, 152582, Note_on_c, 0, 62, 39
2, 152593, Note_on_c, 0, 74, 35
2, 152708, Note_on_c, 0, 67, 0
2, 152783, Note_on_c, 0, 71, 0
2, 152821, Note_on_c, 0, 74, 0
2, 153069, Note_on_c, 0, 81, 67
2, 153088, Note_on_c, 0, 62, 0
2, 153200, Note_on_c, 0, 82, 64
2, 153238, Note_on_c, 0, 56, 0
2, 153248, Note_on_c, 0, 81, 0
2, 153289, Note_on_c, 0, 82, 0
2, 153334, Note_on_c, 0, 83, 68
2, 153415, Control_c, 0, 64, 0
2, 153441, Note_on_c, 0, 83, 0
2, 153497, Note_on_c, 0, 64, 35
2, 153503, Note_on_c, 0, 86, 80
2, 153510, Note_on_c, 0, 60, 35
2, 153517, Note_on_c, 0, 59, 33
2, 153517, Note_on_c, 0, 55, 27
2, 153616, Note_on_c, 0, 86, 0
2, 153675, Note_on_c, 0, 83, 29
2, 153747, Note_on_c, 0, 83, 0
2, 153817, Note_on_c, 0, 84, 74
2, 153974, Note_on_c, 0, 84, 0
2, 153983, Note_on_c, 0, 80, 42
2, 154286, Note_on_c, 0, 80, 0
2, 154327, Note_on_c, 0, 83, 67
2, 154402, Note_on_c, 0, 64, 0
2, 154425, Note_on_c, 0, 60, 0
2, 154450, Note_on_c, 0, 83, 0
2, 154495, Note_on_c, 0, 64, 32
2, 154507, Note_on_c, 0, 60, 31
2, 154513, Note_on_c, 0, 81, 58
2, 154593, Note_on_c, 0, 64, 0
2, 154596, Note_on_c, 0, 60, 0
2, 154621, Note_on_c, 0, 55, 0
2, 154626, Note_on_c, 0, 59, 0
2, 155328, Note_on_c, 0, 76, 45
2, 155338, Note_on_c, 0, 55, 35
2, 155393, Note_on_c, 0, 55, 0
2, 155474, Note_on_c, 0, 81, 0
2, 155488, Note_on_c, 0, 76, 0
2, 155521, Note_on_c, 0, 78, 39
2, 155523, Note_on_c, 0, 64, 25
2, 155539, Note_on_c, 0, 54, 32
2, 155539, Note_on_c, 0, 60, 22
2, 156006, Note_on_c, 0, 74, 28
2, 156086, Note_on_c, 0, 64, 0
2, 156137, Note_on_c, 0, 60, 0
2, 156179, Note_on_c, 0, 78, 0
2, 156201, Note_on_c, 0, 74, 0
2, 156483, Note_on_c, 0, 82, 75
2, 156491, Note_on_c, 0, 60, 32
2, 156530, Note_on_c, 0, 60, 0
2, 156573, Note_on_c, 0, 54, 0
2, 156776, Note_on_c, 0, 82, 0
2, 156820, Note_on_c, 0, 83, 47
2, 156901, Note_on_c, 0, 83, 0
2, 156959, Note_on_c, 0, 86, 88
2, 156961, Note_on_c, 0, 74, 82
2, 156976, Note_on_c, 0, 54, 39
2, 156977, Note_on_c, 0, 64, 33
2, 157007, Note_on_c, 0, 64, 0
2, 157042, Note_on_c, 0, 54, 0
2, 157388, Note_on_c, 0, 74, 0
2, 157398, Note_on_c, 0, 86, 0
2, 157433, Note_on_c, 0, 43, 49
2, 157450, Note_on_c, 0, 82, 45
2, 157511, Note_on_c, 0, 43, 0
2, 157743, Note_on_c, 0, 82, 0
2, 157759, Note_on_c, 0, 83, 43
2, 157835, Note_on_c, 0, 83, 0
2, 157892, Note_on_c, 0, 86, 88
2, 157895, Note_on_c, 0, 74, 83
2, 158183, Note_on_c, 0, 86, 0
2, 158211, Note_on_c, 0, 82, 40
2, 158263, Note_on_c, 0, 74, 0
2, 158355, Note_on_c, 0, 58, 49
2, 158358, Note_on_c, 0, 62, 47
2, 158360, Note_on_c, 0, 82, 0
2, 158368, Note_on_c, 0, 83, 59
2, 158378, Note_on_c, 0, 57, 34
2, 158388, Note_on_c, 0, 74, 29
2, 158391, Note_on_c, 0, 62, 0
2, 158407, Note_on_c, 0, 57, 0
2, 158422, Note_on_c, 0, 58, 0
2, 158570, Note_on_c, 0, 74, 0
2, 158638, Note_on_c, 0, 83, 0
2, 158679, Note_on_c, 0, 86, 66
2, 158682, Note_on_c, 0, 74, 28
2, 158782, Note_on_c, 0, 86, 0
2, 158835, Note_on_c, 0, 82, 48
2, 158977, Note_on_c, 0, 74, 0
2, 159054, Note_on_c, 0, 82, 0
2, 159130, Note_on_c, 0, 83, 47
2, 159233, Note_on_c, 0, 83, 0
2, 159263, Note_on_c, 0, 36, 49
2, 159274, Note_on_c, 0, 74, 61
2, 159275, Note_on_c, 0, 86, 71
2, 159291, Note_on_c, 0, 52, 35
2, 159343, Note_on_c, 0, 36, 0
2, 159425, Note_on_c, 0, 52, 0
2, 159499, Note_on_c, 0, 74, 0
2, 159508, Note_on_c, 0, 86, 0
2, 159617, Note_on_c, 0, 82, 23
2, 159652, Note_on_c, 0, 82, 0
2, 159692, Note_on_c, 0, 83, 34
2, 159775, Note_on_c, 0, 83, 0
2, 159794, Note_on_c, 0, 74, 64
2, 159798, Note_on_c, 0, 86, 60
2, 159875, Note_on_c, 0, 86, 0
2, 159900, Note_on_c, 0, 74, 0
2, 160291, Note_on_c, 0, 57, 47
2, 160308, Note_on_c, 0, 62, 34
2, 160327, Note_on_c, 0, 58, 36
2, 160344, Note_on_c, 0, 62, 0
2, 160361, Note_on_c, 0, 58, 0
2, 160362, Note_on_c, 0, 57, 0
2, 161225, Note_on_c, 0, 66, 46
2, 161228, Note_on_c, 0, 62, 37
2, 161241, Note_on_c, 0, 47, 31
2, 161243, Note_on_c, 0, 57, 28
2, 161266, Control_c, 0, 64, 127
2, 161531, Note_on_c, 0, 62, 0
2, 161575, Note_on_c, 0, 66, 0
2, 161639, Note_on_c, 0, 47, 0
2, 161671, Note_on_c, 0, 57, 0
2, 162190, Control_c, 0, 64, 0
2, 162198, Note_on_c, 0, 66, 92
2, 162199, Note_on_c, 0, 57, 77
2, 162204, Note_on_c, 0, 61, 70
2, 162205, Note_on_c, 0, 86, 95
2, 162207, Note_on_c, 0, 62, 73
2, 162207, Note_on_c, 0, 74, 99
2, 162328, Control_c, 0, 64, 127
2, 162429, Note_on_c, 0, 86, 0
2, 162466, Note_on_c, 0, 74, 0
2, 162732, Note_on_c, 0, 66, 0
2, 162733, Note_on_c, 0, 57, 0
2, 162752, Note_on_c, 0, 62, 0
2, 162766, Note_on_c, 0, 61, 0
2, 162850, Note_on_c, 0, 83, 51
2, 162852, Note_on_c, 0, 71, 50
2, 162885, Note_on_c, 0, 71, 0
2, 162903, Note_on_c, 0, 83, 0
2, 162961, Note_on_c, 0, 66, 56
2, 162973, Note_on_c, 0, 72, 73
2, 162975, Note_on_c, 0, 84, 80
2, 162994, Note_on_c, 0, 57, 22
2, 162998, Note_on_c, 0, 62, 43
2, 163022, Note_on_c, 0, 57, 0
2, 163040, Note_on_c, 0, 72, 0
2, 163050, Note_on_c, 0, 66, 0
2, 163065, Note_on_c, 0, 84, 0
2, 163079, Note_on_c, 0, 62, 0
2, 163127, Control_c, 0, 64, 0
2, 163131, Note_on_c, 0, 62, 65
2, 163132, Note_on_c, 0, 65, 70
2, 163138, Note_on_c, 0, 56, 60
2, 163139, Note_on_c, 0, 86, 87
2, 163140, Note_on_c, 0, 74, 85
2, 163143, Note_on_c, 0, 59, 68
2, 163417, Control_c, 0, 64, 127
2, 163652, Note_on_c, 0, 86, 0
2, 163661, Note_on_c, 0, 62, 0
2, 163667, Note_on_c, 0, 65, 0
2, 163677, Note_on_c, 0, 59, 0
2, 163685, Note_on_c, 0, 74, 0
2, 163739, Note_on_c, 0, 56, 0
2, 163908, Control_c, 0, 64, 0
2, 163920, Note_on_c, 0, 71, 68
2, 163924, Note_on_c, 0, 62, 73
2, 163924, Note_on_c, 0, 56, 60
2, 163925, Note_on_c, 0, 67, 72
2, 164009, Control_c, 0, 64, 127
2, 164039, Note_on_c, 0, 62, 0
2, 164089, Note_on_c, 0, 67, 0
2, 164092, Note_on_c, 0, 71, 0
2, 164096, Control_c, 0, 64, 0
2, 164125, Note_on_c, 0, 74, 71
2, 164133, Note_on_c, 0, 64, 71
2, 164136, Note_on_c, 0, 59, 66
2, 164140, Note_on_c, 0, 70, 56
2, 164189, Note_on_c, 0, 64, 0
2, 164195, Note_on_c, 0, 70, 0
2, 164233, Control_c, 0, 64, 127
2, 164234, Note_on_c, 0, 74, 0
2, 164375, Note_on_c, 0, 59, 0
2, 164387, Note_on_c, 0, 56, 0
2, 164390, Note_on_c, 0, 77, 71
2, 164390, Note_on_c, 0, 68, 74
2, 164395, Note_on_c, 0, 62, 70
2, 164466, Note_on_c, 0, 68, 0
2, 164475, Note_on_c, 0, 77, 0
2, 164521, Note_on_c, 0, 62, 0
2, 164529, Control_c, 0, 64, 0
2, 164578, Note_on_c, 0, 65, 55
2, 164588, Note_on_c, 0, 74, 53
2, 164615, Control_c, 0, 64, 127
2, 164621, Note_on_c, 0, 80, 19
2, 164639, Note_on_c, 0, 74, 0
2, 164651, Note_on_c, 0, 80, 0
2, 164791, Note_on_c, 0, 65, 0
2, 164804, Control_c, 0, 64, 0
2, 164825, Control_c, 0, 64, 127
2, 164834, Note_on_c, 0, 68, 63
2, 164843, Note_on_c, 0, 80, 43
2, 164846, Note_on_c, 0, 77, 54
2, 164872, Note_on_c, 0, 80, 0
2, 164881, Note_on_c, 0, 77, 0
2, 164969, Control_c, 0, 64, 0
2, 165023, Note_on_c, 0, 71, 67
2, 165024, Note_on_c, 0, 68, 0
2, 165026, Note_on_c, 0, 80, 57
2, 165027, Note_on_c, 0, 86, 70
2, 165028, Note_on_c, 0, 77, 65
2, 165042, Note_on_c, 0, 83, 49
2, 165052, Note_on_c, 0, 84, 48
2, 165129, Note_on_c, 0, 83, 0
2, 165167, Note_on_c, 0, 84, 0
2, 165179, Control_c, 0, 64, 127
2, 165184, Note_on_c, 0, 77, 0
2, 165198, Note_on_c, 0, 86, 0
2, 165210, Note_on_c, 0, 80, 0
2, 165258, Control_c, 0, 64, 0
2, 165290, Note_on_c, 0, 71, 0
2, 165316, Note_on_c, 0, 76, 57
2, 165316, Note_on_c, 0, 84, 62
2, 165328, Note_on_c, 0, 79, 49
2, 165330, Note_on_c, 0, 69, 42
2, 165360, Note_on_c, 0, 79, 0
2, 165372, Note_on_c, 0, 84, 0
2, 165385, Note_on_c, 0, 76, 0
2, 165438, Note_on_c, 0, 69, 0
2, 165497, Note_on_c, 0, 75, 28
2, 165522, Note_on_c, 0, 68, 37
2, 165522, Note_on_c, 0, 72, 44
2, 165528, Note_on_c, 0, 76, 31
2, 165631, Note_on_c, 0, 75, 0
2, 165635, Note_on_c, 0, 76, 0
2, 165683, Control_c, 0, 64, 127
2, 165684, Note_on_c, 0, 72, 0
2, 165779, Note_on_c, 0, 68, 0
2, 165793, Note_on_c, 0, 71, 49
2, 165802, Note_on_c, 0, 83, 64
2, 165812, Note_on_c, 0, 76, 50
2, 165815, Note_on_c, 0, 72, 45
2, 165908, Note_on_c, 0, 76, 0
2, 165914, Note_on_c, 0, 72, 0
2, 165936, Note_on_c, 0, 83, 0
2, 165936, Control_c, 0, 64, 0
2, 165967, Note_on_c, 0, 71, 0
2, 165985, Note_on_c, 0, 72, 44
2, 165989, Note_on_c, 0, 69, 44
2, 165991, Note_on_c, 0, 76, 36
2, 165995, Note_on_c, 0, 81, 37
2, 166044, Note_on_c, 0, 81, 0
2, 166049, Note_on_c, 0, 76, 0
2, 166056, Note_on_c, 0, 69, 0
2, 166072, Note_on_c, 0, 72, 0
2, 166239, Control_c, 0, 64, 127
2, 166375, Control_c, 0, 64, 0
2, 166443, Note_on_c, 0, 76, 50
2, 166459, Note_on_c, 0, 64, 43
2, 166466, Note_on_c, 0, 67, 34
2, 166473, Note_on_c, 0, 72, 37
2, 166531, Note_on_c, 0, 64, 0
2, 166537, Note_on_c, 0, 67, 0
2, 166541, Note_on_c, 0, 72, 0
2, 166552, Note_on_c, 0, 76, 0
2, 166737, Control_c, 0, 64, 127
2, 166780, Control_c, 0, 64, 0
2, 166915, Note_on_c, 0, 72, 38
2, 166921, Note_on_c, 0, 64, 35
2, 166927, Note_on_c, 0, 67, 38
2, 166928, Note_on_c, 0, 60, 38
2, 166956, Note_on_c, 0, 69, 22
2, 166982, Note_on_c, 0, 69, 0
2, 167003, Note_on_c, 0, 67, 0
2, 167016, Note_on_c, 0, 72, 0
2, 167046, Note_on_c, 0, 64, 0
2, 167115, Note_on_c, 0, 60, 0
2, 167272, Note_on_c, 0, 57, 46
2, 167277, Note_on_c, 0, 60, 24
2, 167278, Note_on_c, 0, 64, 25
2, 167328, Note_on_c, 0, 64, 0
2, 167329, Note_on_c, 0, 60, 0
2, 167354, Note_on_c, 0, 57, 0
2, 167404, Note_on_c, 0, 60, 50
2, 167414, Note_on_c, 0, 64, 54
2, 167416, Note_on_c, 0, 71, 46
2, 167426, Note_on_c, 0, 67, 50
2, 167697, Control_c, 0, 64, 127
2, 167729, Note_on_c, 0, 64, 0
2, 167733, Note_on_c, 0, 60, 0
2, 167771, Note_on_c, 0, 67, 0
2, 167825, Note_on_c, 0, 71, 0
2, 167878, Control_c, 0, 64, 0
2, 167900, Note_on_c, 0, 69, 49
2, 167903, Note_on_c, 0, 60, 31
2, 167907, Note_on_c, 0, 59, 44
2, 167910, Note_on_c, 0, 64, 40
2, 167919, Note_on_c, 0, 67, 42
2, 168210, Control_c, 0, 64, 127
2, 168246, Control_c, 0, 64, 0
2, 168318, Control_c, 0, 64, 127
2, 168565, Note_on_c, 0, 60, 0
2, 168582, Note_on_c, 0, 67, 0
2, 168583, Note_on_c, 0, 64, 0
2, 168584, Note_on_c, 0, 59, 0
2, 168647, Note_on_c, 0, 69, 0
2, 168741, Note_on_c, 0, 64, 27
2, 168745, Note_on_c, 0, 67, 24
2, 168747, Note_on_c, 0, 57, 32
2, 168777, Note_on_c, 0, 67, 0
2, 168781, Note_on_c, 0, 64, 0
2, 168851, Note_on_c, 0, 57, 0
2, 168903, Control_c, 0, 64, 0
2, 168905, Note_on_c, 0, 60, 36
2, 168908, Note_on_c, 0, 66, 47
2, 168913, Note_on_c, 0, 64, 46
2, 168924, Note_on_c, 0, 50, 28
2, 169162, Control_c, 0, 64, 127
2, 169560, Note_on_c, 0, 64, 0
2, 169613, Note_on_c, 0, 66, 0
2, 169640, Note_on_c, 0, 60, 0
2, 169877, Control_c, 0, 64, 0
2, 169880, Note_on_c, 0, 57, 40
2, 169884, Note_on_c, 0, 62, 54
2, 170021, Control_c, 0, 64, 127
2, 170229, Note_on_c, 0, 62, 0
2, 170379, Note_on_c, 0, 61, 68
2, 170484, Note_on_c, 0, 50, 0
2, 170545, Note_on_c, 0, 61, 0
2, 170642, Note_on_c, 0, 62, 69
2, 170660, Note_on_c, 0, 50, 52
2, 170695, Note_on_c, 0, 62, 0
2, 170741, Note_on_c, 0, 50, 0
2, 170747, Note_on_c, 0, 57, 0
2, 170858, Control_c, 0, 64, 0
2, 170860, Note_on_c, 0, 74, 92
2, 170870, Note_on_c, 0, 48, 65
2, 170875, Note_on_c, 0, 57, 39
2, 171117, Control_c, 0, 64, 127
2, 171119, Note_on_c, 0, 74, 0
2, 171181, Note_on_c, 0, 74, 64
2, 171316, Note_on_c, 0, 74, 0
2, 171502, Note_on_c, 0, 57, 0
2, 171731, Control_c, 0, 64, 0
2, 171732, Note_on_c, 0, 62, 70
2, 171736, Note_on_c, 0, 57, 44
2, 172076, Control_c, 0, 64, 127
2, 172299, Note_on_c, 0, 48, 0
2, 172303, Note_on_c, 0, 57, 0
2, 172354, Note_on_c, 0, 62, 0
2, 172356, Note_on_c, 0, 61, 47
2, 172447, Note_on_c, 0, 61, 0
2, 172492, Note_on_c, 0, 62, 50
2, 172552, Note_on_c, 0, 62, 0
2, 172662, Control_c, 0, 64, 0
2, 172683, Note_on_c, 0, 74, 63
2, 172686, Note_on_c, 0, 47, 34
2, 172796, Note_on_c, 0, 47, 0
2, 172799, Control_c, 0, 64, 127
2, 173035, Note_on_c, 0, 74, 0
2, 173214, Note_on_c, 0, 74, 51
2, 173232, Note_on_c, 0, 67, 58
2, 173245, Note_on_c, 0, 51, 35
2, 173260, Note_on_c, 0, 62, 28
2, 173289, Note_on_c, 0, 57, 28
2, 173363, Note_on_c, 0, 67, 0
2, 173398, Note_on_c, 0, 62, 0
2, 173433, Note_on_c, 0, 57, 0
2, 173452, Note_on_c, 0, 51, 0
2, 173460, Note_on_c, 0, 74, 0
2, 173576, Control_c, 0, 64, 0
2, 174141, Control_c, 0, 64, 127
2, 174212, Control_c, 0, 64, 0
2, 174606, Note_on_c, 0, 74, 49
2, 174616, Note_on_c, 0, 71, 41
2, 174621, Note_on_c, 0, 67, 45
2, 174632, Note_on_c, 0, 62, 37
2, 174645, Note_on_c, 0, 57, 44
2, 174649, Note_on_c, 0, 51, 35
2, 174703, Control_c, 0, 64, 127
2, 175708, Note_on_c, 0, 57, 0
2, 175730, Note_on_c, 0, 62, 0
2, 175742, Note_on_c, 0, 51, 0
2, 176021, Note_on_c, 0, 67, 0
2, 176043, Note_on_c, 0, 71, 0
2, 176131, Note_on_c, 0, 74, 0
2, 176579, Control_c, 0, 64, 0
2, 176580, Note_on_c, 0, 67, 38
2, 176590, Note_on_c, 0, 64, 34
2, 176591, Note_on_c, 0, 56, 38
2, 176601, Note_on_c, 0, 62, 31
2, 176640, Note_on_c, 0, 52, 24
2, 177010, Control_c, 0, 64, 127
2, 177285, Note_on_c, 0, 64, 0
2, 177416, Note_on_c, 0, 52, 0
2, 177513, Note_on_c, 0, 56, 0
2, 177531, Note_on_c, 0, 62, 0
2, 177577, Note_on_c, 0, 67, 0
2, 178469, Control_c, 0, 64, 0
2, 178471, Note_on_c, 0, 67, 40
2, 178482, Note_on_c, 0, 56, 37
2, 178507, Note_on_c, 0, 62, 40
2, 179497, Note_on_c, 0, 95, 79
2, 179502, Note_on_c, 0, 83, 75
2, 179597, Note_on_c, 0, 83, 0
2, 179617, Note_on_c, 0, 95, 0
2, 179625, Note_on_c, 0, 56, 0
2, 179649, Note_on_c, 0, 67, 0
2, 179721, Note_on_c, 0, 62, 0
2, 179780, Note_on_c, 0, 96, 64
2, 179808, Note_on_c, 0, 84, 43
2, 179876, Note_on_c, 0, 84, 0
2, 179890, Note_on_c, 0, 96, 0
2, 180050, Note_on_c, 0, 56, 70
2, 180068, Note_on_c, 0, 98, 84
2, 180080, Note_on_c, 0, 86, 83
2, 180083, Note_on_c, 0, 62, 35
2, 180111, Note_on_c, 0, 88, 54
2, 180150, Note_on_c, 0, 62, 0
2, 180172, Note_on_c, 0, 88, 0
2, 180187, Note_on_c, 0, 86, 0
2, 180243, Note_on_c, 0, 98, 0
2, 180276, Note_on_c, 0, 56, 0
2, 180380, Note_on_c, 0, 96, 71
2, 180383, Note_on_c, 0, 64, 58
2, 180388, Note_on_c, 0, 55, 54
2, 180390, Note_on_c, 0, 84, 71
2, 180412, Note_on_c, 0, 60, 54
2, 180413, Note_on_c, 0, 59, 51
2, 180592, Note_on_c, 0, 96, 0
2, 180613, Note_on_c, 0, 60, 0
2, 180621, Note_on_c, 0, 64, 0
2, 180625, Note_on_c, 0, 59, 0
2, 180640, Note_on_c, 0, 84, 0
2, 180641, Note_on_c, 0, 55, 0
2, 181421, Note_on_c, 0, 90, 64
2, 181432, Note_on_c, 0, 83, 66
2, 181433, Note_on_c, 0, 95, 66
2, 181434, Note_on_c, 0, 64, 43
2, 181448, Note_on_c, 0, 60, 46
2, 181474, Note_on_c, 0, 55, 37
2, 181476, Note_on_c, 0, 59, 35
2, 181675, Note_on_c, 0, 90, 0
2, 181692, Note_on_c, 0, 91, 33
2, 181821, Note_on_c, 0, 91, 0
2, 181855, Note_on_c, 0, 83, 0
2, 181878, Note_on_c, 0, 55, 0
2, 181888, Note_on_c, 0, 95, 0
2, 181894, Note_on_c, 0, 64, 0
2, 181927, Note_on_c, 0, 60, 0
2, 181934, Note_on_c, 0, 59, 0
2, 182091, Note_on_c, 0, 83, 50
2, 182094, Note_on_c, 0, 95, 55
2, 182097, Note_on_c, 0, 90, 47
2, 182113, Note_on_c, 0, 60, 34
2, 182120, Note_on_c, 0, 64, 27
2, 182121, Note_on_c, 0, 55, 33
2, 182140, Note_on_c, 0, 59, 33
2, 182287, Note_on_c, 0, 64, 0
2, 182288, Note_on_c, 0, 95, 0
2, 182297, Note_on_c, 0, 55, 0
2, 182334, Note_on_c, 0, 83, 0
2, 182343, Note_on_c, 0, 90, 0
2, 182355, Note_on_c, 0, 59, 0
2, 182448, Note_on_c, 0, 64, 28
2, 182451, Note_on_c, 0, 93, 50
2, 182462, Note_on_c, 0, 55, 19
2, 182487, Note_on_c, 0, 59, 16
2, 182490, Note_on_c, 0, 81, 30
2, 182808, Note_on_c, 0, 93, 0
2, 182819, Note_on_c, 0, 81, 0
2, 182883, Note_on_c, 0, 55, 0
2, 182897, Note_on_c, 0, 64, 0
2, 182927, Note_on_c, 0, 59, 0
2, 182952, Note_on_c, 0, 60, 0
2, 183061, Note_on_c, 0, 95, 56
2, 183071, Note_on_c, 0, 83, 40
2, 183077, Note_on_c, 0, 88, 43
2, 183120, Note_on_c, 0, 95, 0
2, 183145, Note_on_c, 0, 88, 0
2, 183175, Note_on_c, 0, 83, 0
2, 183416, Note_on_c, 0, 60, 27
2, 183418, Note_on_c, 0, 55, 31
2, 183429, Note_on_c, 0, 64, 18
2, 183439, Note_on_c, 0, 59, 29
2, 183667, Note_on_c, 0, 55, 0
2, 183762, Note_on_c, 0, 59, 0
2, 183989, Note_on_c, 0, 54, 69
2, 184101, Note_on_c, 0, 64, 0
2, 184115, Note_on_c, 0, 60, 0
2, 184990, Note_on_c, 0, 64, 34
2, 185002, Note_on_c, 0, 60, 36
2, 185119, Note_on_c, 0, 64, 0
2, 185295, Note_on_c, 0, 74, 49
2, 185502, Note_on_c, 0, 60, 0
2, 185670, Note_on_c, 0, 74, 0
2, 185910, Note_on_c, 0, 78, 77
2, 185943, Note_on_c, 0, 64, 32
2, 185950, Note_on_c, 0, 60, 40
2, 186022, Note_on_c, 0, 78, 0
2, 186052, Note_on_c, 0, 64, 0
2, 186141, Note_on_c, 0, 60, 0
2, 186282, Note_on_c, 0, 81, 91
2, 186456, Note_on_c, 0, 81, 0
2, 186571, Note_on_c, 0, 78, 62
2, 186753, Note_on_c, 0, 78, 0
2, 186848, Note_on_c, 0, 74, 53
2, 187021, Note_on_c, 0, 74, 0
2, 187043, Note_on_c, 0, 60, 26
2, 187118, Note_on_c, 0, 71, 45
2, 187182, Note_on_c, 0, 60, 0
2, 187282, Note_on_c, 0, 71, 0
2, 187328, Note_on_c, 0, 54, 0
2, 187438, Note_on_c, 0, 66, 49
2, 187677, Note_on_c, 0, 66, 0
2, 187714, Note_on_c, 0, 49, 32
2, 187738, Note_on_c, 0, 62, 58
2, 187777, Note_on_c, 0, 49, 0
2, 187871, Note_on_c, 0, 62, 0
2, 187910, Note_on_c, 0, 50, 22
2, 188096, Note_on_c, 0, 64, 74
2, 188103, Note_on_c, 0, 50, 0
2, 188123, Note_on_c, 0, 43, 41
2, 188129, Note_on_c, 0, 54, 38
2, 188318, Note_on_c, 0, 64, 0
2, 188401, Note_on_c, 0, 66, 48
2, 188502, Note_on_c, 0, 64, 41
2, 188610, Note_on_c, 0, 66, 0
2, 188697, Note_on_c, 0, 64, 0
2, 188709, Note_on_c, 0, 62, 40
2, 188954, Note_on_c, 0, 62, 0
2, 189126, Note_on_c, 0, 59, 50
2, 189772, Note_on_c, 0, 62, 58
2, 189853, Note_on_c, 0, 50, 24
2, 189886, Note_on_c, 0, 59, 0
2, 190083, Note_on_c, 0, 54, 0
2, 190377, Note_on_c, 0, 50, 0
2, 190834, Note_on_c, 0, 50, 35
2, 190909, Note_on_c, 0, 62, 0
2, 190916, Note_on_c, 0, 50, 0
2, 191073, Note_on_c, 0, 51, 40
2, 191091, Note_on_c, 0, 63, 39
2, 191093, Note_on_c, 0, 58, 49
2, 191179, Note_on_c, 0, 61, 25
2, 191660, Note_on_c, 0, 51, 0
2, 191732, Note_on_c, 0, 58, 0
2, 191733, Note_on_c, 0, 63, 0
2, 191736, Note_on_c, 0, 61, 0
2, 191738, Note_on_c, 0, 55, 31
2, 191739, Note_on_c, 0, 64, 55
2, 191755, Note_on_c, 0, 59, 51
2, 191756, Note_on_c, 0, 52, 34
2, 191808, Note_on_c, 0, 62, 30
2, 192611, Note_on_c, 0, 62, 0
2, 192675, Note_on_c, 0, 55, 0
2, 192676, Note_on_c, 0, 64, 0
2, 192731, Note_on_c, 0, 52, 0
2, 192761, Note_on_c, 0, 50, 34
2, 192786, Note_on_c, 0, 59, 0
2, 192860, Note_on_c, 0, 50, 0
2, 192971, Note_on_c, 0, 54, 62
2, 192988, Note_on_c, 0, 66, 54
2, 193017, Note_on_c, 0, 57, 35
2, 193018, Note_on_c, 0, 59, 39
2, 193025, Note_on_c, 0, 62, 45
2, 193493, Note_on_c, 0, 57, 0
2, 193500, Note_on_c, 0, 54, 0
2, 193521, Note_on_c, 0, 59, 0
2, 193539, Note_on_c, 0, 66, 0
2, 193549, Note_on_c, 0, 62, 0
2, 193581, Note_on_c, 0, 50, 24
2, 193638, Note_on_c, 0, 64, 50
2, 193654, Note_on_c, 0, 59, 39
2, 193656, Note_on_c, 0, 50, 0
2, 193664, Note_on_c, 0, 55, 36
2, 193686, Note_on_c, 0, 52, 42
2, 193820, Note_on_c, 0, 55, 0
2, 193832, Note_on_c, 0, 59, 0
2, 193922, Note_on_c, 0, 64, 0
2, 194527, Note_on_c, 0, 49, 59
2, 194580, Note_on_c, 0, 52, 0
2, 194820, Note_on_c, 0, 43, 0
2, 194828, Note_on_c, 0, 50, 77
2, 194889, Note_on_c, 0, 49, 0
2, 195718, Note_on_c, 0, 50, 0
2, 195743, Note_on_c, 0, 43, 57
2, 197384, Note_on_c, 0, 50, 22
2, 197456, Note_on_c, 0, 50, 0
2, 197691, Note_on_c, 0, 67, 113
2, 198382, Note_on_c, 0, 67, 0
2, 198676, Note_on_c, 0, 67, 80
2, 199306, Note_on_c, 0, 67, 0
2, 199341, Note_on_c, 0, 66, 31
2, 199342, Note_on_c, 0, 43, 0
2, 199408, Note_on_c, 0, 66, 0
2, 200285, Note_on_c, 0, 67, 92
2, 200541, Note_on_c, 0, 67, 0
2, 200666, Note_on_c, 0, 66, 40
2, 201174, Note_on_c, 0, 66, 0
2, 201240, Note_on_c, 0, 67, 74
2, 202508, Note_on_c, 0, 67, 0
2, 202577, Note_on_c, 0, 66, 42
2, 203054, Note_on_c, 0, 66, 0
2, 203150, Note_on_c, 0, 67, 37
2, 203280, Note_on_c, 0, 67, 0
2, 203454, Note_on_c, 0, 71, 53
2, 203460, Note_on_c, 0, 60, 47
2, 203516, Note_on_c, 0, 64, 35
2, 203522, Note_on_c, 0, 59, 33
2, 203864, Note_on_c, 0, 64, 0
2, 203924, Note_on_c, 0, 60, 0
2, 203962, Note_on_c, 0, 71, 0
2, 203986, Note_on_c, 0, 59, 0
2, 204176, Note_on_c, 0, 58, 21
2, 204340, Note_on_c, 0, 58, 0
2, 204400, Note_on_c, 0, 71, 37
2, 204408, Note_on_c, 0, 59, 32
2, 204410, Note_on_c, 0, 60, 30
2, 204441, Note_on_c, 0, 66, 29
2, 204454, Note_on_c, 0, 64, 44
2, 204824, Note_on_c, 0, 64, 0
2, 204852, Note_on_c, 0, 60, 0
2, 204905, Note_on_c, 0, 66, 0
2, 204967, Note_on_c, 0, 71, 0
2, 204972, Note_on_c, 0, 59, 0
2, 205160, Note_on_c, 0, 58, 18
2, 205311, Note_on_c, 0, 58, 0
2, 205380, Note_on_c, 0, 60, 33
2, 205392, Note_on_c, 0, 59, 32
2, 205395, Note_on_c, 0, 71, 32
2, 205396, Note_on_c, 0, 66, 30
2, 205424, Note_on_c, 0, 64, 44
2, 207902, Note_on_c, 0, 59, 0
2, 208095, Note_on_c, 0, 60, 0
2, 208301, Note_on_c, 0, 51, 44
2, 208315, Note_on_c, 0, 64, 0
2, 208333, Note_on_c, 0, 62, 37
2, 208337, Note_on_c, 0, 57, 51
2, 208359, Note_on_c, 0, 66, 0
2, 208464, Note_on_c, 0, 71, 0
2, 209254, Note_on_c, 0, 74, 43
2, 209331, Note_on_c, 0, 74, 0
2, 209535, Note_on_c, 0, 79, 43
2, 209595, Note_on_c, 0, 79, 0
2, 209745, Note_on_c, 0, 83, 87
2, 209935, Note_on_c, 0, 83, 0
2, 209974, Note_on_c, 0, 86, 85
2, 210224, Note_on_c, 0, 84, 71
2, 210266, Note_on_c, 0, 86, 0
2, 210426, Note_on_c, 0, 84, 0
2, 210495, Note_on_c, 0, 80, 33
2, 210607, Note_on_c, 0, 80, 0
2, 210693, Note_on_c, 0, 83, 65
2, 210956, Note_on_c, 0, 83, 0
2, 211322, Note_on_c, 0, 57, 0
2, 211459, Note_on_c, 0, 62, 0
2, 211468, Note_on_c, 0, 51, 0
2, 211800, Note_on_c, 0, 62, 33
2, 211809, Note_on_c, 0, 51, 31
2, 211818, Note_on_c, 0, 57, 41
2, 213636, Note_on_c, 0, 81, 82
2, 213850, Note_on_c, 0, 80, 58
2, 213959, Note_on_c, 0, 81, 0
2, 214073, Note_on_c, 0, 80, 0
2, 214125, Note_on_c, 0, 79, 49
2, 214307, Note_on_c, 0, 62, 0
2, 214311, Note_on_c, 0, 79, 0
2, 214395, Note_on_c, 0, 57, 0
2, 214495, Note_on_c, 0, 78, 57
2, 214605, Note_on_c, 0, 78, 0
2, 215055, Note_on_c, 0, 74, 60
2, 215244, Note_on_c, 0, 74, 0
2, 215340, Note_on_c, 0, 75, 39
2, 215501, Note_on_c, 0, 75, 0
2, 215570, Note_on_c, 0, 76, 59
2, 215728, Note_on_c, 0, 76, 0
2, 216029, Note_on_c, 0, 71, 48
2, 216351, Note_on_c, 0, 71, 0
2, 216933, Note_on_c, 0, 74, 78
2, 217102, Note_on_c, 0, 74, 0
2, 217193, Note_on_c, 0, 71, 71
2, 217347, Note_on_c, 0, 71, 0
2, 217628, Note_on_c, 0, 57, 45
2, 217841, Note_on_c, 0, 66, 69
2, 217858, Note_on_c, 0, 57, 0
2, 217891, Note_on_c, 0, 51, 0
2, 218031, Note_on_c, 0, 66, 0
2, 218087, Note_on_c, 0, 62, 45
2, 218225, Note_on_c, 0, 62, 0
2, 218656, Note_on_c, 0, 49, 31
2, 218663, Note_on_c, 0, 57, 31
2, 218772, Note_on_c, 0, 57, 0
2, 218829, Note_on_c, 0, 49, 0
2, 218852, Note_on_c, 0, 66, 55
2, 218895, Note_on_c, 0, 52, 32
2, 219129, Note_on_c, 0, 66, 0
2, 219207, Note_on_c, 0, 57, 24
2, 219276, Note_on_c, 0, 57, 0
2, 219435, Note_on_c, 0, 62, 20
2, 219596, Note_on_c, 0, 62, 0
2, 219648, Note_on_c, 0, 66, 67
2, 219750, Note_on_c, 0, 66, 0
2, 219865, Note_on_c, 0, 69, 76
2, 219944, Note_on_c, 0, 52, 0
2, 220103, Note_on_c, 0, 74, 75
2, 220155, Note_on_c, 0, 69, 0
2, 220345, Note_on_c, 0, 78, 67
2, 220509, Note_on_c, 0, 74, 0
2, 220567, Note_on_c, 0, 78, 0
2, 220615, Note_on_c, 0, 79, 62
2, 220764, Note_on_c, 0, 79, 0
2, 220856, Note_on_c, 0, 78, 38
2, 221116, Note_on_c, 0, 78, 0
2, 221790, Note_on_c, 0, 69, 29
2, 221980, Note_on_c, 0, 69, 0
2, 222622, Note_on_c, 0, 64, 47
2, 222625, Note_on_c, 0, 76, 37
2, 222634, Note_on_c, 0, 69, 32
2, 222642, Note_on_c, 0, 71, 34
2, 222758, Note_on_c, 0, 69, 0
2, 222777, Note_on_c, 0, 76, 0
2, 222804, Note_on_c, 0, 71, 0
2, 222826, Note_on_c, 0, 64, 0
2, 223224, Note_on_c, 0, 69, 47
2, 223225, Note_on_c, 0, 71, 44
2, 223265, Note_on_c, 0, 64, 41
2, 223303, Note_on_c, 0, 69, 0
2, 223304, Note_on_c, 0, 71, 0
2, 223330, Note_on_c, 0, 64, 0
2, 224244, Note_on_c, 0, 51, 34
2, 224453, Note_on_c, 0, 51, 0
2, 224526, Note_on_c, 0, 57, 33
2, 224549, Note_on_c, 0, 64, 30
2, 224563, Note_on_c, 0, 59, 39
2, 224565, Note_on_c, 0, 52, 30
2, 225372, Note_on_c, 0, 57, 0
2, 225624, Note_on_c, 0, 59, 0
2, 225768, Note_on_c, 0, 64, 0
2, 226010, Note_on_c, 0, 57, 31
2, 226158, Note_on_c, 0, 57, 0
2, 226169, Note_on_c, 0, 47, 24
2, 226239, Note_on_c, 0, 53, 24
2, 226365, Note_on_c, 0, 53, 0
2, 226498, Note_on_c, 0, 40, 40
2, 226513, Note_on_c, 0, 56, 53
2, 226545, Note_on_c, 0, 47, 0
2, 227337, Note_on_c, 0, 56, 0
2, 228282, Note_on_c, 0, 40, 0
2, 228389, Note_on_c, 0, 52, 0
2, 229089, Note_on_c, 0, 83, 76
2, 229092, Note_on_c, 0, 67, 71
2, 229095, Note_on_c, 0, 56, 68
2, 229096, Note_on_c, 0, 74, 76
2, 229099, Note_on_c, 0, 79, 66
2, 229109, Note_on_c, 0, 62, 53
2, 229156, Note_on_c, 0, 74, 0
2, 229170, Note_on_c, 0, 79, 0
2, 229189, Note_on_c, 0, 62, 0
2, 229196, Note_on_c, 0, 67, 0
2, 229198, Note_on_c, 0, 83, 0
2, 229214, Note_on_c, 0, 56, 0
2, 229644, Note_on_c, 0, 67, 68
2, 229649, Note_on_c, 0, 83, 76
2, 229651, Note_on_c, 0, 56, 60
2, 229659, Note_on_c, 0, 79, 66
2, 229660, Note_on_c, 0, 62, 45
2, 229673, Note_on_c, 0, 74, 44
2, 229692, Note_on_c, 0, 76, 41
2, 229731, Note_on_c, 0, 74, 0
2, 229759, Note_on_c, 0, 76, 0
2, 229777, Note_on_c, 0, 79, 0
2, 229783, Note_on_c, 0, 67, 0
2, 229785, Note_on_c, 0, 83, 0
2, 229813, Note_on_c, 0, 62, 0
2, 229823, Note_on_c, 0, 56, 0
2, 230288, Note_on_c, 0, 56, 53
2, 230289, Note_on_c, 0, 67, 50
2, 230312, Note_on_c, 0, 83, 57
2, 230318, Note_on_c, 0, 79, 47
2, 230324, Note_on_c, 0, 74, 49
2, 230328, Note_on_c, 0, 62, 30
2, 230407, Note_on_c, 0, 74, 0
2, 230480, Note_on_c, 0, 62, 0
2, 230481, Note_on_c, 0, 79, 0
2, 230497, Note_on_c, 0, 83, 0
2, 230506, Note_on_c, 0, 67, 0
2, 230543, Note_on_c, 0, 56, 0
2, 230997, Note_on_c, 0, 56, 40
2, 231001, Note_on_c, 0, 67, 38
2, 231007, Note_on_c, 0, 83, 36
2, 231014, Note_on_c, 0, 74, 39
2, 231018, Note_on_c, 0, 79, 33
2, 231029, Note_on_c, 0, 62, 33
2, 231118, Note_on_c, 0, 62, 0
2, 231125, Note_on_c, 0, 74, 0
2, 231135, Note_on_c, 0, 67, 0
2, 231137, Note_on_c, 0, 83, 0
2, 231138, Note_on_c, 0, 79, 0
2, 231171, Note_on_c, 0, 56, 0
2, 231659, Note_on_c, 0, 83, 28
2, 231660, Note_on_c, 0, 56, 28
2, 231662, Note_on_c, 0, 74, 27
2, 231665, Note_on_c, 0, 67, 24
2, 231685, Note_on_c, 0, 79, 34
2, 231704, Note_on_c, 0, 62, 32
2, 231859, Note_on_c, 0, 62, 0
2, 231879, Control_c, 0, 64, 127
2, 231895, Note_on_c, 0, 79, 0
2, 231898, Note_on_c, 0, 74, 0
2, 231943, Note_on_c, 0, 83, 0
2, 231946, Note_on_c, 0, 67, 0
2, 231967, Note_on_c, 0, 56, 0
2, 232009, Control_c, 0, 64, 0
2, 232308, Note_on_c, 0, 56, 34
2, 232326, Note_on_c, 0, 67, 24
2, 232331, Note_on_c, 0, 83, 34
2, 232346, Note_on_c, 0, 79, 31
2, 232348, Note_on_c, 0, 62, 33
2, 232377, Note_on_c, 0, 74, 13
2, 232459, Control_c, 0, 64, 127
2, 232602, Note_on_c, 0, 79, 0
2, 232618, Note_on_c, 0, 62, 0
2, 232619, Note_on_c, 0, 74, 0
2, 232629, Note_on_c, 0, 83, 0
2, 232634, Note_on_c, 0, 67, 0
2, 232683, Note_on_c, 0, 56, 0
2, 232950, Note_on_c, 0, 83, 47
2, 232953, Note_on_c, 0, 56, 37
2, 232956, Note_on_c, 0, 67, 36
2, 232958, Note_on_c, 0, 79, 43
2, 232963, Note_on_c, 0, 74, 39
2, 232991, Note_on_c, 0, 62, 44
2, 233259, Note_on_c, 0, 62, 0
2, 233269, Note_on_c, 0, 67, 0
2, 233273, Note_on_c, 0, 79, 0
2, 233300, Note_on_c, 0, 74, 0
2, 233329, Note_on_c, 0, 83, 0
2, 233331, Note_on_c, 0, 56, 0
2, 233546, Note_on_c, 0, 56, 52
2, 233550, Note_on_c, 0, 67, 37
2, 233555, Note_on_c, 0, 74, 64
2, 233561, Note_on_c, 0, 83, 59
2, 233563, Note_on_c, 0, 79, 59
2, 233577, Note_on_c, 0, 62, 40
2, 233616, Note_on_c, 0, 67, 0
2, 233632, Note_on_c, 0, 62, 0
2, 233748, Note_on_c, 0, 74, 0
2, 233756, Note_on_c, 0, 56, 0
2, 233870, Note_on_c, 0, 79, 0
2, 233908, Note_on_c, 0, 83, 0
2, 234160, Note_on_c, 0, 49, 52
2, 234175, Control_c, 0, 64, 0
2, 234178, Note_on_c, 0, 76, 55
2, 234179, Note_on_c, 0, 83, 61
2, 234190, Note_on_c, 0, 59, 40
2, 234193, Note_on_c, 0, 71, 46
2, 234666, Control_c, 0, 64, 127
2, 235043, Note_on_c, 0, 59, 0
2, 235612, Note_on_c, 0, 76, 0
2, 235619, Note_on_c, 0, 71, 0
2, 235764, Note_on_c, 0, 83, 0
2, 236106, Note_on_c, 0, 76, 36
2, 236142, Note_on_c, 0, 71, 40
2, 236169, Note_on_c, 0, 59, 22
2, 236173, Note_on_c, 0, 55, 14
2, 236239, Note_on_c, 0, 76, 0
2, 236288, Note_on_c, 0, 71, 0
2, 236875, Control_c, 0, 64, 0
2, 237104, Note_on_c, 0, 67, 95
2, 237409, Note_on_c, 0, 59, 0
2, 237497, Note_on_c, 0, 69, 44
2, 237518, Note_on_c, 0, 67, 0
2, 237619, Note_on_c, 0, 55, 0
2, 237645, Note_on_c, 0, 67, 47
2, 237682, Note_on_c, 0, 69, 0
2, 237850, Note_on_c, 0, 49, 0
2, 237873, Note_on_c, 0, 66, 38
2, 237888, Note_on_c, 0, 67, 0
2, 238029, Note_on_c, 0, 66, 0
2, 238136, Note_on_c, 0, 67, 60
2, 238198, Note_on_c, 0, 48, 24
2, 238212, Note_on_c, 0, 55, 7
2, 238379, Note_on_c, 0, 67, 0
2, 238503, Note_on_c, 0, 69, 59
2, 238616, Note_on_c, 0, 69, 0
2, 238887, Note_on_c, 0, 63, 46
2, 239041, Note_on_c, 0, 63, 0
2, 239301, Note_on_c, 0, 62, 34
2, 239494, Note_on_c, 0, 62, 0
2, 239564, Note_on_c, 0, 60, 37
2, 239647, Note_on_c, 0, 60, 0
2, 239833, Note_on_c, 0, 62, 45
2, 239982, Note_on_c, 0, 62, 0
2, 240104, Note_on_c, 0, 55, 0
2, 240165, Note_on_c, 0, 55, 29
2, 240294, Note_on_c, 0, 55, 0
2, 240460, Note_on_c, 0, 60, 43
2, 240618, Note_on_c, 0, 60, 0
2, 241060, Note_on_c, 0, 57, 22
2, 241061, Note_on_c, 0, 55, 24
2, 241214, Note_on_c, 0, 55, 0
2, 241342, Note_on_c, 0, 48, 0
2, 241575, Note_on_c, 0, 71, 51
2, 241588, Note_on_c, 0, 47, 37
2, 241727, Note_on_c, 0, 71, 0
2, 241913, Note_on_c, 0, 62, 48
2, 242023, Note_on_c, 0, 62, 0
2, 242181, Note_on_c, 0, 47, 0
2, 242188, Note_on_c, 0, 66, 59
2, 242293, Note_on_c, 0, 66, 0
2, 242313, Note_on_c, 0, 57, 0
2, 242511, Note_on_c, 0, 69, 36
2, 242581, Note_on_c, 0, 69, 0
2, 242786, Note_on_c, 0, 74, 45
2, 243008, Note_on_c, 0, 74, 0
2, 243060, Note_on_c, 0, 78, 50
2, 243168, Note_on_c, 0, 78, 0
2, 243359, Note_on_c, 0, 81, 54
2, 243519, Note_on_c, 0, 81, 0
2, 243690, Note_on_c, 0, 66, 42
2, 243695, Note_on_c, 0, 86, 63
2, 243725, Note_on_c, 0, 57, 39
2, 243745, Note_on_c, 0, 62, 35
2, 243833, Note_on_c, 0, 62, 0
2, 243852, Note_on_c, 0, 57, 0
2, 243868, Note_on_c, 0, 66, 0
2, 243903, Note_on_c, 0, 86, 0
2, 243961, Note_on_c, 0, 90, 47
2, 244187, Note_on_c, 0, 90, 0
2, 244307, Note_on_c, 0, 91, 53
2, 244308, Note_on_c, 0, 81, 44
2, 244310, Note_on_c, 0, 66, 33
2, 244367, Note_on_c, 0, 91, 0
2, 244377, Note_on_c, 0, 81, 0
2, 244489, Note_on_c, 0, 66, 0
2, 245772, Note_on_c, 0, 64, 37
2, 245777, Note_on_c, 0, 61, 33
2, 245783, Note_on_c, 0, 58, 36
2, 245796, Note_on_c, 0, 55, 33
2, 246766, Note_on_c, 0, 79, 48
2, 246774, Note_on_c, 0, 67, 68
2, 246786, Note_on_c, 0, 77, 51
2, 246842, Note_on_c, 0, 77, 0
2, 246877, Note_on_c, 0, 79, 0
2, 246879, Note_on_c, 0, 67, 0
2, 246995, Note_on_c, 0, 64, 0
2, 247046, Note_on_c, 0, 61, 0
2, 247065, Note_on_c, 0, 58, 0
2, 247073, Note_on_c, 0, 55, 0
2, 247734, Note_on_c, 0, 64, 38
2, 247739, Note_on_c, 0, 61, 33
2, 247741, Note_on_c, 0, 58, 44
2, 247752, Note_on_c, 0, 79, 48
2, 247767, Note_on_c, 0, 55, 35
2, 247778, Note_on_c, 0, 67, 54
2, 248055, Note_on_c, 0, 79, 0
2, 248153, Note_on_c, 0, 67, 0
2, 248186, Note_on_c, 0, 64, 0
2, 248220, Note_on_c, 0, 55, 0
2, 248248, Note_on_c, 0, 61, 0
2, 248307, Note_on_c, 0, 58, 0
2, 248361, Note_on_c, 0, 78, 47
2, 248363, Note_on_c, 0, 66, 59
2, 248371, Note_on_c, 0, 58, 19
2, 248376, Note_on_c, 0, 61, 38
2, 248388, Note_on_c, 0, 55, 30
2, 248417, Note_on_c, 0, 64, 31
2, 248477, Note_on_c, 0, 64, 0
2, 248533, Note_on_c, 0, 55, 0
2, 248546, Note_on_c, 0, 66, 0
2, 248555, Note_on_c, 0, 78, 0
2, 248575, Note_on_c, 0, 61, 0
2, 248679, Note_on_c, 0, 61, 25
2, 248680, Note_on_c, 0, 79, 55
2, 248694, Note_on_c, 0, 55, 32
2, 248699, Note_on_c, 0, 67, 44
2, 248710, Note_on_c, 0, 64, 29
2, 248801, Note_on_c, 0, 79, 0
2, 248835, Note_on_c, 0, 67, 0
2, 248866, Note_on_c, 0, 64, 0
2, 249088, Note_on_c, 0, 61, 0
2, 249108, Note_on_c, 0, 58, 0
2, 249161, Note_on_c, 0, 55, 0
2, 249284, Note_on_c, 0, 76, 60
2, 249290, Note_on_c, 0, 72, 57
2, 249292, Note_on_c, 0, 64, 59
2, 249303, Note_on_c, 0, 55, 20
2, 249322, Note_on_c, 0, 57, 48
2, 249331, Note_on_c, 0, 60, 48
2, 249668, Control_c, 0, 64, 127
2, 249846, Note_on_c, 0, 60, 0
2, 249889, Note_on_c, 0, 76, 0
2, 249920, Note_on_c, 0, 72, 0
2, 249948, Note_on_c, 0, 55, 0
2, 249948, Note_on_c, 0, 57, 0
2, 249994, Note_on_c, 0, 64, 0
2, 250548, Control_c, 0, 64, 0
2, 250594, Note_on_c, 0, 71, 66
2, 250600, Note_on_c, 0, 67, 61
2, 250603, Note_on_c, 0, 60, 66
2, 250605, Note_on_c, 0, 64, 64
2, 250618, Note_on_c, 0, 59, 60
2, 251161, Note_on_c, 0, 64, 0
2, 251163, Note_on_c, 0, 60, 0
2, 251204, Note_on_c, 0, 67, 0
2, 251233, Note_on_c, 0, 71, 0
2, 251274, Note_on_c, 0, 69, 54
2, 251293, Note_on_c, 0, 60, 54
2, 251297, Note_on_c, 0, 64, 43
2, 251310, Note_on_c, 0, 57, 54
2, 251357, Note_on_c, 0, 59, 0
2, 251702, Control_c, 0, 64, 127
2, 251802, Control_c, 0, 64, 0
2, 251859, Control_c, 0, 64, 127
2, 252228, Note_on_c, 0, 64, 0
2, 252232, Note_on_c, 0, 60, 0
2, 252401, Note_on_c, 0, 69, 0
2, 252453, Control_c, 0, 64, 0
2, 252512, Note_on_c, 0, 60, 36
2, 252521, Note_on_c, 0, 67, 44
2, 252529, Note_on_c, 0, 50, 38
2, 252537, Note_on_c, 0, 64, 44
2, 252879, Note_on_c, 0, 57, 0
2, 252942, Control_c, 0, 64, 127
2, 252987, Control_c, 0, 64, 0
2, 253028, Control_c, 0, 64, 127
2, 253042, Note_on_c, 0, 64, 0
2, 253122, Note_on_c, 0, 60, 0
2, 253194, Note_on_c, 0, 67, 0
2, 253397, Note_on_c, 0, 50, 0
2, 253465, Note_on_c, 0, 50, 18
2, 253475, Note_on_c, 0, 60, 44
2, 253501, Note_on_c, 0, 64, 46
2, 253830, Note_on_c, 0, 64, 0
2, 253904, Note_on_c, 0, 60, 0
2, 254396, Note_on_c, 0, 56, 50
2, 254400, Note_on_c, 0, 62, 64
2, 254407, Note_on_c, 0, 59, 56
2, 254416, Control_c, 0, 64, 0
2, 254876, Control_c, 0, 64, 127
2, 255116, Note_on_c, 0, 59, 0
2, 255162, Note_on_c, 0, 62, 0
2, 255163, Note_on_c, 0, 56, 0
2, 255268, Control_c, 0, 64, 0
2, 255363, Note_on_c, 0, 56, 48
2, 255376, Note_on_c, 0, 62, 60
2, 255395, Note_on_c, 0, 59, 55
2, 255498, Control_c, 0, 64, 127
2, 256559, Note_on_c, 0, 50, 0
2, 256640, Note_on_c, 0, 59, 0
2, 256882, Note_on_c, 0, 62, 0
2, 256981, Note_on_c, 0, 50, 40
2, 257068, Note_on_c, 0, 56, 0
2, 257083, Note_on_c, 0, 50, 0
2, 257245, Note_on_c, 0, 61, 30
2, 257286, Control_c, 0, 64, 0
2, 257301, Note_on_c, 0, 57, 51
2, 257306, Note_on_c, 0, 66, 49
2, 257307, Note_on_c, 0, 50, 47
2, 257433, Note_on_c, 0, 50, 0
2, 257454, Note_on_c, 0, 61, 0
2, 257926, Note_on_c, 0, 49, 64
2, 257934, Note_on_c, 0, 50, 71
2, 258013, Note_on_c, 0, 63, 1
2, 258055, Note_on_c, 0, 49, 0
2, 258597, Note_on_c, 0, 66, 0
2, 258679, Note_on_c, 0, 63, 0
2, 259042, Note_on_c, 0, 44, 19
2, 259063, Note_on_c, 0, 57, 0
2, 259225, Note_on_c, 0, 62, 89
2, 259248, Note_on_c, 0, 44, 0
2, 259756, Note_on_c, 0, 62, 0
2, 259852, Note_on_c, 0, 62, 80
2, 260172, Control_c, 0, 64, 127
2, 260459, Note_on_c, 0, 62, 0
2, 260748, Note_on_c, 0, 62, 64
2, 260952, Note_on_c, 0, 50, 0
2, 260990, Note_on_c, 0, 62, 0
2, 261041, Control_c, 0, 64, 0
2, 261107, Note_on_c, 0, 62, 66
2, 261121, Note_on_c, 0, 50, 46
2, 261185, Note_on_c, 0, 50, 0
2, 261216, Note_on_c, 0, 62, 0
2, 262051, Note_on_c, 0, 82, 73
2, 262056, Note_on_c, 0, 86, 74
2, 262059, Note_on_c, 0, 74, 68
2, 262066, Note_on_c, 0, 65, 64
2, 262069, Note_on_c, 0, 54, 57
2, 262085, Note_on_c, 0, 58, 56
2, 262092, Note_on_c, 0, 60, 55
2, 262196, Control_c, 0, 64, 127
2, 263552, Note_on_c, 0, 60, 0
2, 263593, Note_on_c, 0, 58, 0
2, 263620, Note_on_c, 0, 65, 0
2, 263695, Note_on_c, 0, 54, 0
2, 263715, Note_on_c, 0, 82, 0
2, 263747, Note_on_c, 0, 74, 0
2, 263772, Note_on_c, 0, 86, 0
2, 264060, Note_on_c, 0, 65, 37
2, 264072, Note_on_c, 0, 86, 60
2, 264080, Note_on_c, 0, 74, 42
2, 264085, Note_on_c, 0, 54, 29
2, 264086, Note_on_c, 0, 82, 42
2, 264094, Note_on_c, 0, 58, 38
2, 264111, Note_on_c, 0, 60, 37
2, 264275, Note_on_c, 0, 74, 0
2, 264346, Note_on_c, 0, 65, 0
2, 264361, Note_on_c, 0, 82, 0
2, 264368, Note_on_c, 0, 60, 0
2, 264380, Note_on_c, 0, 86, 0
2, 264460, Note_on_c, 0, 58, 0
2, 264504, Note_on_c, 0, 54, 0
2, 264974, Note_on_c, 0, 59, 80
2, 264976, Note_on_c, 0, 62, 80
2, 264979, Note_on_c, 0, 98, 83
2, 264983, Note_on_c, 0, 86, 90
2, 264985, Note_on_c, 0, 54, 77
2, 265082, Control_c, 0, 64, 0
2, 265816, Control_c, 0, 64, 127
2, 266361, Note_on_c, 0, 59, 0
2, 266373, Note_on_c, 0, 62, 0
2, 266718, Note_on_c, 0, 98, 0
2, 266765, Note_on_c, 0, 86, 0
2, 266867, Note_on_c, 0, 62, 29
2, 266870, Note_on_c, 0, 59, 38
2, 267095, Note_on_c, 0, 59, 0
2, 267113, Note_on_c, 0, 62, 0
2, 267253, Note_on_c, 0, 54, 0
2, 268773, Note_on_c, 0, 36, 36
2, 268778, Note_on_c, 0, 58, 21
2, 268792, Note_on_c, 0, 66, 35
2, 268797, Note_on_c, 0, 43, 29
2, 268804, Note_on_c, 0, 62, 37
2, 268818, Note_on_c, 0, 52, 29
2, 268823, Control_c, 0, 64, 0
2, 269714, Control_c, 0, 64, 127
2, 270002, Note_on_c, 0, 52, 0
2, 270235, Note_on_c, 0, 58, 0
2, 270297, Note_on_c, 0, 62, 0
2, 270706, Note_on_c, 0, 66, 0
2, 270763, Note_on_c, 0, 58, 32
2, 270774, Note_on_c, 0, 62, 39
2, 270797, Control_c, 0, 64, 0
2, 270798, Note_on_c, 0, 52, 27
2, 271054, Control_c, 0, 64, 127
2, 271207, Note_on_c, 0, 36, 0
2, 271334, Note_on_c, 0, 43, 0
2, 271453, Note_on_c, 0, 52, 0
2, 271733, Note_on_c, 0, 62, 0
2, 271739, Note_on_c, 0, 58, 0
2, 272628, Control_c, 0, 64, 0
2, 272632, Note_on_c, 0, 57, 32
2, 272643, Note_on_c, 0, 54, 30
2, 272648, Note_on_c, 0, 62, 35
2, 272677, Note_on_c, 0, 47, 30
2, 272961, Control_c, 0, 64, 127
2, 273019, Note_on_c, 0, 57, 0
2, 273156, Note_on_c, 0, 47, 0
2, 273168, Note_on_c, 0, 62, 0
2, 273272, Note_on_c, 0, 54, 0
2, 274463, Control_c, 0, 64, 0
2, 274503, Note_on_c, 0, 85, 86
2, 274509, Note_on_c, 0, 73, 83
2, 274515, Note_on_c, 0, 66, 79
2, 274525, Note_on_c, 0, 61, 51
2, 274526, Note_on_c, 0, 62, 66
2, 274529, Note_on_c, 0, 57, 63
2, 274766, Note_on_c, 0, 66, 0
2, 274899, Note_on_c, 0, 57, 0
2, 274910, Note_on_c, 0, 62, 0
2, 275016, Note_on_c, 0, 61, 0
2, 275064, Note_on_c, 0, 85, 0
2, 275070, Note_on_c, 0, 73, 0
2, 275122, Note_on_c, 0, 86, 64
2, 275137, Note_on_c, 0, 74, 63
2, 275191, Note_on_c, 0, 76, 31
2, 275240, Note_on_c, 0, 76, 0
2, 275258, Note_on_c, 0, 74, 0
2, 275285, Note_on_c, 0, 86, 0
2, 275458, Note_on_c, 0, 71, 26
2, 275471, Note_on_c, 0, 83, 29
2, 275945, Note_on_c, 0, 71, 0
2, 275973, Note_on_c, 0, 83, 0
2, 276408, Note_on_c, 0, 56, 31
2, 276430, Note_on_c, 0, 72, 42
2, 276433, Note_on_c, 0, 84, 50
2, 276450, Note_on_c, 0, 65, 22
2, 276459, Note_on_c, 0, 62, 27
2, 276500, Note_on_c, 0, 59, 20
2, 276589, Note_on_c, 0, 62, 0
2, 276598, Note_on_c, 0, 65, 0
2, 276636, Note_on_c, 0, 72, 0
2, 276644, Note_on_c, 0, 84, 0
2, 276645, Note_on_c, 0, 59, 0
2, 276648, Note_on_c, 0, 56, 0
2, 277373, Note_on_c, 0, 86, 63
2, 277388, Note_on_c, 0, 74, 47
2, 277399, Note_on_c, 0, 65, 36
2, 277414, Note_on_c, 0, 56, 25
2, 277439, Note_on_c, 0, 59, 47
2, 277442, Note_on_c, 0, 62, 36
2, 278329, Control_c, 0, 64, 127
2, 278439, Note_on_c, 0, 86, 0
2, 278505, Note_on_c, 0, 74, 0
2, 278530, Note_on_c, 0, 65, 0
2, 278632, Note_on_c, 0, 56, 0
2, 278642, Note_on_c, 0, 62, 0
2, 278648, Note_on_c, 0, 59, 0
2, 278989, Note_on_c, 0, 56, 51
2, 278992, Note_on_c, 0, 83, 70
2, 278997, Note_on_c, 0, 71, 68
2, 279004, Note_on_c, 0, 65, 54
2, 279024, Note_on_c, 0, 59, 50
2, 279027, Note_on_c, 0, 62, 45
2, 279336, Note_on_c, 0, 65, 0
2, 279343, Note_on_c, 0, 71, 0
2, 279370, Note_on_c, 0, 62, 0
2, 279386, Note_on_c, 0, 59, 0
2, 279388, Note_on_c, 0, 56, 0
2, 279421, Note_on_c, 0, 83, 0
2, 279602, Note_on_c, 0, 56, 62
2, 279617, Note_on_c, 0, 65, 55
2, 279622, Note_on_c, 0, 84, 82
2, 279626, Note_on_c, 0, 72, 78
2, 279627, Note_on_c, 0, 59, 50
2, 279632, Note_on_c, 0, 62, 54
2, 279846, Note_on_c, 0, 62, 0
2, 279873, Note_on_c, 0, 72, 0
2, 279912, Note_on_c, 0, 84, 0
2, 279917, Note_on_c, 0, 59, 0
2, 279945, Note_on_c, 0, 65, 0
2, 280010, Note_on_c, 0, 56, 0
2, 280324, Control_c, 0, 64, 0
2, 280347, Note_on_c, 0, 57, 51
2, 280352, Note_on_c, 0, 86, 72
2, 280354, Note_on_c, 0, 74, 64
2, 280358, Note_on_c, 0, 55, 46
2, 280362, Note_on_c, 0, 64, 49
2, 280373, Note_on_c, 0, 83, 43
2, 280379, Note_on_c, 0, 60, 48
2, 280380, Note_on_c, 0, 79, 39
2, 280987, Control_c, 0, 64, 127
2, 281313, Note_on_c, 0, 86, 0
2, 281337, Note_on_c, 0, 83, 0
2, 281360, Note_on_c, 0, 79, 0
2, 281404, Note_on_c, 0, 74, 0
2, 281548, Note_on_c, 0, 64, 0
2, 281600, Note_on_c, 0, 60, 0
2, 281607, Note_on_c, 0, 55, 0
2, 281659, Note_on_c, 0, 57, 0
2, 281928, Note_on_c, 0, 71, 43
2, 281933, Note_on_c, 0, 83, 42
2, 281941, Note_on_c, 0, 76, 32
2, 281948, Note_on_c, 0, 55, 34
2, 281969, Note_on_c, 0, 60, 29
2, 281983, Note_on_c, 0, 79, 32
2, 282009, Note_on_c, 0, 59, 28
2, 282066, Note_on_c, 0, 79, 0
2, 282085, Note_on_c, 0, 76, 0
2, 282087, Note_on_c, 0, 71, 0
2, 282105, Note_on_c, 0, 59, 0
2, 282118, Note_on_c, 0, 60, 0
2, 282127, Note_on_c, 0, 55, 0
2, 282139, Note_on_c, 0, 83, 0
2, 282301, Control_c, 0, 64, 0
2, 282303, Note_on_c, 0, 84, 57
2, 282314, Note_on_c, 0, 64, 31
2, 282328, Note_on_c, 0, 60, 30
2, 282377, Note_on_c, 0, 84, 0
2, 282425, Note_on_c, 0, 64, 0
2, 282435, Note_on_c, 0, 60, 0
2, 283167, Note_on_c, 0, 84, 54
2, 283170, Note_on_c, 0, 72, 41
2, 283188, Note_on_c, 0, 79, 38
2, 283204, Note_on_c, 0, 64, 26
2, 283240, Note_on_c, 0, 60, 32
2, 283241, Note_on_c, 0, 59, 32
2, 283257, Note_on_c, 0, 55, 13
2, 284091, Control_c, 0, 64, 127
2, 284478, Note_on_c, 0, 84, 0
2, 284520, Note_on_c, 0, 79, 0
2, 284713, Note_on_c, 0, 64, 0
2, 284795, Note_on_c, 0, 72, 0
2, 284862, Note_on_c, 0, 60, 0
2, 284936, Note_on_c, 0, 59, 0
2, 285092, Note_on_c, 0, 55, 0
2, 285891, Note_on_c, 0, 74, 88
2, 285898, Note_on_c, 0, 67, 88
2, 285900, Note_on_c, 0, 59, 78
2, 285901, Note_on_c, 0, 64, 90
2, 285904, Note_on_c, 0, 71, 72
2, 285910, Control_c, 0, 64, 0
2, 286156, Note_on_c, 0, 71, 0
2, 286168, Note_on_c, 0, 74, 0
2, 286199, Note_on_c, 0, 67, 0
2, 286230, Note_on_c, 0, 64, 0
2, 286397, Note_on_c, 0, 71, 58
2, 286437, Note_on_c, 0, 55, 60
2, 286438, Note_on_c, 0, 67, 43
2, 286440, Note_on_c, 0, 59, 0
2, 286451, Note_on_c, 0, 64, 38
2, 286460, Note_on_c, 0, 60, 32
2, 286631, Control_c, 0, 64, 127
2, 286650, Note_on_c, 0, 67, 0
2, 286657, Note_on_c, 0, 71, 0
2, 286671, Note_on_c, 0, 64, 0
2, 286729, Note_on_c, 0, 60, 0
2, 286949, Control_c, 0, 64, 0
2, 286984, Note_on_c, 0, 55, 0
2, 287066, Note_on_c, 0, 67, 41
2, 287091, Note_on_c, 0, 64, 39
2, 287096, Note_on_c, 0, 57, 26
2, 287098, Note_on_c, 0, 60, 36
2, 287104, Note_on_c, 0, 52, 35
2, 287357, Note_on_c, 0, 64, 0
2, 287476, Note_on_c, 0, 60, 0
2, 287482, Control_c, 0, 64, 127
2, 287484, Note_on_c, 0, 57, 0
2, 287549, Note_on_c, 0, 67, 0
2, 287655, Control_c, 0, 64, 0
2, 287723, Note_on_c, 0, 52, 0
2, 287723, Note_on_c, 0, 57, 33
2, 287725, Note_on_c, 0, 66, 35
2, 287752, Note_on_c, 0, 60, 33
2, 287773, Note_on_c, 0, 50, 38
2, 288017, Control_c, 0, 64, 127
2, 288107, Note_on_c, 0, 50, 0
2, 288603, Note_on_c, 0, 57, 0
2, 288619, Note_on_c, 0, 38, 41
2, 288620, Note_on_c, 0, 66, 0
2, 288644, Note_on_c, 0, 60, 0
2, 288765, Control_c, 0, 64, 0
2, 288835, Note_on_c, 0, 38, 0
2, 289576, Note_on_c, 0, 45, 42
2, 289681, Note_on_c, 0, 45, 0
2, 289865, Note_on_c, 0, 54, 35
2, 289881, Note_on_c, 0, 62, 47
2, 289886, Note_on_c, 0, 57, 36
2, 289887, Note_on_c, 0, 50, 51
2, 289929, Note_on_c, 0, 54, 0
2, 289956, Note_on_c, 0, 57, 0
2, 289961, Note_on_c, 0, 50, 0
2, 290027, Note_on_c, 0, 62, 0
2, 290813, Note_on_c, 0, 71, 65
2, 290824, Note_on_c, 0, 66, 50
2, 290830, Note_on_c, 0, 64, 62
2, 290831, Note_on_c, 0, 57, 45
2, 290833, Note_on_c, 0, 60, 55
2, 291048, Note_on_c, 0, 71, 0
2, 291051, Note_on_c, 0, 60, 0
2, 291061, Note_on_c, 0, 64, 0
2, 291086, Note_on_c, 0, 66, 0
2, 291096, Note_on_c, 0, 57, 0
2, 291767, Note_on_c, 0, 69, 57
2, 291781, Note_on_c, 0, 66, 40
2, 291784, Note_on_c, 0, 60, 53
2, 291792, Note_on_c, 0, 64, 58
2, 291913, Note_on_c, 0, 60, 0
2, 291921, Note_on_c, 0, 64, 0
2, 291960, Note_on_c, 0, 66, 0
2, 291972, Note_on_c, 0, 69, 0
2, 292722, Note_on_c, 0, 66, 49
2, 292741, Note_on_c, 0, 50, 41
2, 292767, Note_on_c, 0, 57, 26
2, 292768, Note_on_c, 0, 62, 39
2, 292774, Note_on_c, 0, 59, 29
2, 293369, Note_on_c, 0, 62, 0
2, 293499, Note_on_c, 0, 57, 0
2, 293540, Note_on_c, 0, 59, 0
2, 293678, Note_on_c, 0, 66, 0
2, 293706, Note_on_c, 0, 57, 47
2, 293716, Note_on_c, 0, 62, 51
2, 293730, Note_on_c, 0, 59, 34
2, 293831, Control_c, 0, 64, 127
2, 294014, Note_on_c, 0, 50, 0
2, 294657, Control_c, 0, 64, 0
2, 294688, Note_on_c, 0, 57, 0
2, 294714, Note_on_c, 0, 59, 0
2, 294729, Control_c, 0, 64, 127
2, 294750, Note_on_c, 0, 48, 35
2, 294755, Note_on_c, 0, 62, 0
2, 295101, Note_on_c, 0, 48, 0
2, 295372, Note_on_c, 0, 41, 36
2, 295536, Note_on_c, 0, 48, 22
2, 295624, Note_on_c, 0, 63, 40
2, 295637, Note_on_c, 0, 57, 37
2, 295650, Control_c, 0, 64, 0
2, 295651, Note_on_c, 0, 67, 46
2, 295674, Note_on_c, 0, 71, 63
2, 296141, Control_c, 0, 64, 127
2, 296719, Note_on_c, 0, 48, 0
2, 296722, Note_on_c, 0, 57, 0
2, 296924, Note_on_c, 0, 63, 0
2, 297008, Note_on_c, 0, 67, 0
2, 297503, Note_on_c, 0, 57, 34
2, 297504, Note_on_c, 0, 63, 30
2, 297506, Note_on_c, 0, 48, 36
2, 297510, Note_on_c, 0, 67, 41
2, 297958, Note_on_c, 0, 41, 0
2, 298036, Note_on_c, 0, 48, 0
2, 298172, Note_on_c, 0, 57, 0
2, 298262, Note_on_c, 0, 63, 0
2, 298943, Note_on_c, 0, 67, 0
2, 299317, Note_on_c, 0, 71, 0
2, 299383, Note_on_c, 0, 64, 38
2, 299394, Note_on_c, 0, 67, 37
2, 299403, Note_on_c, 0, 56, 40
2, 299405, Control_c, 0, 64, 0
2, 299419, Note_on_c, 0, 62, 34
2, 299749, Note_on_c, 0, 64, 0
2, 299766, Control_c, 0, 64, 127
2, 299792, Note_on_c, 0, 67, 0
2, 300399, Note_on_c, 0, 84, 90
2, 300463, Note_on_c, 0, 76, 72
2, 300549, Note_on_c, 0, 62, 0
2, 300688, Note_on_c, 0, 56, 0
2, 301356, Note_on_c, 0, 67, 31
2, 301361, Note_on_c, 0, 56, 28
2, 301409, Note_on_c, 0, 62, 30
2, 302246, Note_on_c, 0, 76, 0
2, 302474, Note_on_c, 0, 76, 27
2, 302479, Note_on_c, 0, 67, 0
2, 302566, Note_on_c, 0, 62, 0
2, 302803, Note_on_c, 0, 56, 0
2, 302863, Note_on_c, 0, 76, 0
2, 303070, Note_on_c, 0, 84, 0
2, 303423, Note_on_c, 0, 64, 26
2, 303447, Note_on_c, 0, 60, 27
2, 303459, Control_c, 0, 64, 0
2, 303470, Note_on_c, 0, 55, 19
2, 303486, Note_on_c, 0, 59, 22
2, 303791, Control_c, 0, 64, 127
2, 303940, Note_on_c, 0, 55, 0
2, 303979, Note_on_c, 0, 64, 0
2, 303994, Note_on_c, 0, 59, 0
2, 304011, Note_on_c, 0, 60, 0
2, 304904, Control_c, 0, 64, 0
2, 304955, Note_on_c, 0, 60, 67
2, 304959, Note_on_c, 0, 59, 62
2, 304963, Note_on_c, 0, 55, 68
2, 304963, Note_on_c, 0, 64, 72
2, 304965, Note_on_c, 0, 84, 95
2, 304966, Note_on_c, 0, 76, 94
2, 305066, Control_c, 0, 64, 127
2, 305255, Note_on_c, 0, 55, 0
2, 305277, Note_on_c, 0, 64, 0
2, 305302, Note_on_c, 0, 84, 0
2, 305311, Note_on_c, 0, 59, 0
2, 305317, Note_on_c, 0, 76, 0
2, 305328, Note_on_c, 0, 60, 0
2, 305355, Control_c, 0, 64, 0
2, 305449, Note_on_c, 0, 83, 69
2, 305457, Note_on_c, 0, 74, 64
2, 305464, Note_on_c, 0, 64, 54
2, 305465, Note_on_c, 0, 60, 58
2, 305467, Note_on_c, 0, 55, 53
2, 305477, Note_on_c, 0, 59, 34
2, 305616, Control_c, 0, 64, 127
2, 305754, Note_on_c, 0, 55, 0
2, 305822, Note_on_c, 0, 83, 0
2, 305843, Note_on_c, 0, 64, 0
2, 305848, Note_on_c, 0, 59, 0
2, 305858, Note_on_c, 0, 74, 0
2, 305878, Note_on_c, 0, 60, 0
2, 306002, Control_c, 0, 64, 0
2, 306051, Note_on_c, 0, 81, 54
2, 306055, Note_on_c, 0, 72, 50
2, 306064, Note_on_c, 0, 64, 47
2, 306078, Note_on_c, 0, 55, 44
2, 306091, Note_on_c, 0, 60, 31
2, 306119, Note_on_c, 0, 59, 27
2, 306177, Note_on_c, 0, 60, 0
2, 306190, Note_on_c, 0, 59, 0
2, 306198, Note_on_c, 0, 72, 0
2, 306200, Note_on_c, 0, 64, 0
2, 306203, Note_on_c, 0, 81, 0
2, 306240, Note_on_c, 0, 55, 0
2, 306408, Control_c, 0, 64, 127
2, 306856, Control_c, 0, 64, 0
2, 306861, Note_on_c, 0, 71, 51
2, 306864, Note_on_c, 0, 79, 51
2, 306889, Note_on_c, 0, 54, 40
2, 306890, Note_on_c, 0, 64, 38
2, 306897, Note_on_c, 0, 60, 33
2, 307243, Control_c, 0, 64, 127
2, 308218, Note_on_c, 0, 79, 0
2, 308337, Note_on_c, 0, 71, 0
2, 308489, Note_on_c, 0, 64, 0
2, 308544, Note_on_c, 0, 60, 0
2, 309191, Note_on_c, 0, 81, 68
2, 309213, Note_on_c, 0, 64, 38
2, 309221, Note_on_c, 0, 69, 62
2, 309234, Note_on_c, 0, 60, 34
2, 309705, Note_on_c, 0, 64, 0
2, 309761, Note_on_c, 0, 60, 0
2, 309917, Note_on_c, 0, 54, 0
2, 310397, Note_on_c, 0, 69, 0
2, 310543, Note_on_c, 0, 81, 0
2, 310925, Control_c, 0, 64, 0
2, 310993, Note_on_c, 0, 83, 53
2, 310997, Note_on_c, 0, 72, 41
2, 311000, Note_on_c, 0, 47, 39
2, 311156, Note_on_c, 0, 83, 0
2, 311188, Control_c, 0, 64, 127
2, 311232, Note_on_c, 0, 72, 0
2, 311721, Note_on_c, 0, 64, 43
2, 311723, Note_on_c, 0, 60, 37
2, 311724, Note_on_c, 0, 66, 53
2, 311746, Note_on_c, 0, 59, 50
2, 312209, Note_on_c, 0, 60, 0
2, 312224, Note_on_c, 0, 71, 57
2, 312260, Note_on_c, 0, 64, 0
2, 312283, Note_on_c, 0, 66, 0
2, 312377, Note_on_c, 0, 71, 0
2, 312801, Note_on_c, 0, 83, 84
2, 312935, Note_on_c, 0, 83, 0
2, 313344, Note_on_c, 0, 64, 68
2, 313351, Note_on_c, 0, 71, 58
2, 313558, Note_on_c, 0, 64, 0
2, 313595, Note_on_c, 0, 59, 0
2, 313603, Note_on_c, 0, 71, 0
2, 313914, Note_on_c, 0, 71, 60
2, 313925, Note_on_c, 0, 64, 62
2, 314190, Note_on_c, 0, 64, 0
2, 314446, Note_on_c, 0, 71, 0
2, 314521, Note_on_c, 0, 64, 42
2, 314533, Note_on_c, 0, 60, 40
2, 314594, Note_on_c, 0, 59, 22
2, 315180, Note_on_c, 0, 59, 0
2, 315906, Note_on_c, 0, 60, 0
2, 316169, Note_on_c, 0, 64, 0
2, 316197, Note_on_c, 0, 66, 61
2, 316337, Note_on_c, 0, 66, 0
2, 316465, Note_on_c, 0, 69, 63
2, 316615, Note_on_c, 0, 69, 0
2, 316950, Note_on_c, 0, 74, 83
2, 316973, Control_c, 0, 64, 0
2, 317008, Note_on_c, 0, 59, 22
2, 317170, Note_on_c, 0, 74, 0
2, 317221, Note_on_c, 0, 71, 53
2, 317352, Note_on_c, 0, 71, 0
2, 317445, Note_on_c, 0, 72, 65
2, 317522, Note_on_c, 0, 59, 0
2, 317592, Note_on_c, 0, 72, 0
2, 317678, Note_on_c, 0, 74, 66
2, 317830, Note_on_c, 0, 74, 0
2, 317905, Note_on_c, 0, 75, 52
2, 317955, Note_on_c, 0, 59, 24
2, 317970, Control_c, 0, 64, 127
2, 318002, Note_on_c, 0, 75, 0
2, 318090, Note_on_c, 0, 47, 0
2, 318161, Note_on_c, 0, 79, 57
2, 318184, Note_on_c, 0, 59, 0
2, 318259, Note_on_c, 0, 79, 0
2, 318376, Note_on_c, 0, 82, 51
2, 318571, Note_on_c, 0, 82, 0
2, 318620, Note_on_c, 0, 83, 58
2, 318719, Control_c, 0, 64, 0
2, 318771, Note_on_c, 0, 56, 35
2, 318783, Note_on_c, 0, 83, 0
2, 318821, Note_on_c, 0, 62, 15
2, 318824, Note_on_c, 0, 52, 35
2, 318858, Note_on_c, 0, 84, 49
2, 319086, Note_on_c, 0, 84, 0
2, 319126, Note_on_c, 0, 86, 62
2, 319313, Note_on_c, 0, 86, 0
2, 319453, Note_on_c, 0, 83, 53
2, 319692, Note_on_c, 0, 56, 0
2, 319741, Note_on_c, 0, 83, 0
2, 319751, Note_on_c, 0, 52, 0
2, 319831, Note_on_c, 0, 62, 0
2, 320731, Note_on_c, 0, 68, 55
2, 320739, Note_on_c, 0, 63, 50
2, 320761, Note_on_c, 0, 57, 36
2, 320942, Note_on_c, 0, 57, 0
2, 320999, Note_on_c, 0, 68, 0
2, 321161, Note_on_c, 0, 63, 0
2, 321365, Note_on_c, 0, 67, 49
2, 321371, Note_on_c, 0, 62, 51
2, 321398, Note_on_c, 0, 56, 39
2, 321787, Note_on_c, 0, 83, 53
2, 322032, Note_on_c, 0, 86, 73
2, 322104, Note_on_c, 0, 83, 0
2, 322240, Note_on_c, 0, 86, 0
2, 322327, Note_on_c, 0, 84, 71
2, 322553, Note_on_c, 0, 84, 0
2, 322618, Note_on_c, 0, 80, 40
2, 322918, Note_on_c, 0, 83, 62
2, 322923, Note_on_c, 0, 80, 0
2, 323135, Note_on_c, 0, 83, 0
2, 323241, Note_on_c, 0, 81, 44
2, 323331, Note_on_c, 0, 81, 0
2, 323603, Note_on_c, 0, 76, 12
2, 324035, Note_on_c, 0, 76, 0
2, 324153, Note_on_c, 0, 80, 49
2, 324414, Note_on_c, 0, 80, 0
2, 324472, Note_on_c, 0, 74, 36
2, 324513, Note_on_c, 0, 67, 0
2, 325012, Note_on_c, 0, 74, 0
2, 325116, Note_on_c, 0, 75, 50
2, 325135, Note_on_c, 0, 65, 35
2, 325313, Note_on_c, 0, 75, 0
2, 325442, Note_on_c, 0, 62, 0
2, 325453, Note_on_c, 0, 76, 40
2, 325547, Note_on_c, 0, 65, 0
2, 325629, Note_on_c, 0, 76, 0
2, 325656, Note_on_c, 0, 56, 0
2, 325740, Note_on_c, 0, 79, 47
2, 325889, Note_on_c, 0, 79, 0
2, 326054, Note_on_c, 0, 83, 44
2, 326235, Note_on_c, 0, 83, 0
2, 326349, Note_on_c, 0, 86, 68
2, 326355, Note_on_c, 0, 45, 24
2, 326360, Note_on_c, 0, 74, 48
2, 326467, Note_on_c, 0, 45, 0
2, 326546, Note_on_c, 0, 86, 0
2, 326547, Note_on_c, 0, 74, 0
2, 326997, Note_on_c, 0, 86, 64
2, 327015, Note_on_c, 0, 74, 46
2, 327085, Note_on_c, 0, 60, 22
2, 327137, Note_on_c, 0, 86, 0
2, 327148, Note_on_c, 0, 60, 0
2, 327154, Note_on_c, 0, 74, 0
2, 327357, Note_on_c, 0, 84, 46
2, 327372, Note_on_c, 0, 64, 24
2, 327392, Note_on_c, 0, 60, 24
2, 327394, Note_on_c, 0, 72, 24
2, 327482, Note_on_c, 0, 72, 0
2, 327484, Note_on_c, 0, 64, 0
2, 327492, Note_on_c, 0, 84, 0
2, 327500, Note_on_c, 0, 60, 0
2, 328018, Note_on_c, 0, 84, 60
2, 328059, Note_on_c, 0, 72, 29
2, 328061, Note_on_c, 0, 60, 22
2, 328109, Note_on_c, 0, 84, 0
2, 328137, Note_on_c, 0, 72, 0
2, 328178, Note_on_c, 0, 60, 0
2, 328355, Note_on_c, 0, 78, 46
2, 328391, Note_on_c, 0, 83, 42
2, 328423, Note_on_c, 0, 64, 20
2, 328437, Note_on_c, 0, 55, 25
2, 328439, Note_on_c, 0, 60, 22
2, 328466, Note_on_c, 0, 59, 30
2, 328647, Note_on_c, 0, 78, 0
2, 328673, Note_on_c, 0, 79, 31
2, 328963, Note_on_c, 0, 79, 0
2, 329106, Note_on_c, 0, 64, 0
2, 329143, Note_on_c, 0, 55, 0
2, 329151, Note_on_c, 0, 60, 0
2, 329170, Note_on_c, 0, 59, 0
2, 329179, Note_on_c, 0, 83, 0
2, 329356, Note_on_c, 0, 76, 36
2, 329409, Note_on_c, 0, 59, 16
2, 329428, Note_on_c, 0, 55, 24
2, 329461, Note_on_c, 0, 60, 13
2, 329592, Note_on_c, 0, 76, 0
2, 329635, Note_on_c, 0, 55, 0
2, 329671, Note_on_c, 0, 60, 0
2, 329764, Note_on_c, 0, 59, 0
2, 330336, Note_on_c, 0, 86, 76
2, 330339, Note_on_c, 0, 64, 43
2, 330346, Note_on_c, 0, 74, 68
2, 330351, Note_on_c, 0, 55, 39
2, 330353, Note_on_c, 0, 60, 43
2, 330379, Note_on_c, 0, 59, 31
2, 330609, Note_on_c, 0, 55, 0
2, 330655, Note_on_c, 0, 60, 0
2, 330659, Note_on_c, 0, 64, 0
2, 330682, Note_on_c, 0, 59, 0
2, 330721, Note_on_c, 0, 86, 0
2, 330757, Note_on_c, 0, 74, 0
2, 331251, Note_on_c, 0, 64, 37
2, 331261, Note_on_c, 0, 84, 71
2, 331288, Note_on_c, 0, 60, 31
2, 331290, Note_on_c, 0, 55, 27
2, 331291, Note_on_c, 0, 72, 34
2, 331323, Note_on_c, 0, 59, 29
2, 331733, Note_on_c, 0, 64, 0
2, 331745, Note_on_c, 0, 60, 0
2, 331748, Note_on_c, 0, 72, 0
2, 331752, Note_on_c, 0, 55, 0
2, 331758, Note_on_c, 0, 59, 0
2, 331815, Note_on_c, 0, 84, 0
2, 332215, Note_on_c, 0, 82, 64
2, 332236, Note_on_c, 0, 60, 34
2, 332239, Note_on_c, 0, 64, 24
2, 332248, Note_on_c, 0, 55, 28
2, 332253, Note_on_c, 0, 59, 30
2, 332497, Note_on_c, 0, 82, 0
2, 332501, Note_on_c, 0, 83, 41
2, 332707, Note_on_c, 0, 55, 0
2, 332714, Note_on_c, 0, 60, 0
2, 332734, Note_on_c, 0, 59, 0
2, 332740, Note_on_c, 0, 83, 0
2, 332741, Note_on_c, 0, 64, 0
2, 333142, Note_on_c, 0, 79, 63
2, 333190, Note_on_c, 0, 55, 20
2, 333210, Note_on_c, 0, 60, 30
2, 333217, Note_on_c, 0, 59, 26
2, 333245, Note_on_c, 0, 64, 8
2, 333418, Note_on_c, 0, 60, 0
2, 333442, Note_on_c, 0, 64, 0
2, 333454, Note_on_c, 0, 59, 0
2, 333480, Note_on_c, 0, 79, 0
2, 333608, Note_on_c, 0, 55, 0
2, 334124, Note_on_c, 0, 82, 68
2, 334145, Note_on_c, 0, 64, 51
2, 334157, Note_on_c, 0, 54, 37
2, 334163, Note_on_c, 0, 60, 34
2, 334468, Note_on_c, 0, 83, 40
2, 334478, Note_on_c, 0, 82, 0
2, 334654, Note_on_c, 0, 60, 0
2, 334669, Note_on_c, 0, 64, 0
2, 334697, Note_on_c, 0, 83, 0
2, 334736, Note_on_c, 0, 54, 0
2, 335057, Note_on_c, 0, 79, 49
2, 335071, Note_on_c, 0, 54, 30
2, 335074, Note_on_c, 0, 64, 26
2, 335095, Note_on_c, 0, 60, 35
2, 335375, Note_on_c, 0, 60, 0
2, 335441, Note_on_c, 0, 64, 0
2, 335449, Note_on_c, 0, 79, 0
2, 335464, Note_on_c, 0, 54, 0
2, 336000, Note_on_c, 0, 82, 72
2, 336010, Note_on_c, 0, 64, 40
2, 336011, Note_on_c, 0, 54, 39
2, 336030, Note_on_c, 0, 60, 41
2, 336126, Note_on_c, 0, 83, 51
2, 336132, Note_on_c, 0, 82, 0
2, 336537, Note_on_c, 0, 83, 0
2, 336671, Note_on_c, 0, 84, 90
2, 336869, Note_on_c, 0, 84, 0
2, 337028, Note_on_c, 0, 82, 79
2, 337189, Note_on_c, 0, 83, 58
2, 337191, Note_on_c, 0, 82, 0
2, 337244, Note_on_c, 0, 64, 0
2, 337290, Note_on_c, 0, 60, 0
2, 337404, Note_on_c, 0, 83, 0
2, 337420, Note_on_c, 0, 54, 0
2, 337659, Note_on_c, 0, 79, 78
2, 337660, Note_on_c, 0, 64, 54
2, 337679, Note_on_c, 0, 54, 39
2, 337686, Note_on_c, 0, 60, 51
2, 338291, Note_on_c, 0, 79, 0
2, 338303, Note_on_c, 0, 74, 56
2, 338491, Note_on_c, 0, 74, 0
2, 338568, Note_on_c, 0, 73, 48
2, 338668, Note_on_c, 0, 64, 0
2, 338856, Note_on_c, 0, 73, 0
2, 338886, Note_on_c, 0, 72, 51
2, 339453, Note_on_c, 0, 72, 0
2, 339814, Note_on_c, 0, 70, 74
2, 339817, Note_on_c, 0, 74, 71
2, 339862, Note_on_c, 0, 60, 0
2, 340048, Note_on_c, 0, 74, 0
2, 340076, Note_on_c, 0, 54, 0
2, 340110, Note_on_c, 0, 67, 60
2, 340183, Note_on_c, 0, 70, 0
2, 340367, Note_on_c, 0, 67, 0
2, 340448, Note_on_c, 0, 62, 37
2, 340683, Note_on_c, 0, 62, 0
2, 340805, Note_on_c, 0, 60, 13
2, 341103, Note_on_c, 0, 60, 0
2, 341122, Note_on_c, 0, 58, 45
2, 341300, Note_on_c, 0, 58, 0
2, 341413, Note_on_c, 0, 60, 62
2, 341452, Note_on_c, 0, 67, 32
2, 341535, Note_on_c, 0, 67, 0
2, 341678, Note_on_c, 0, 60, 0
2, 341691, Note_on_c, 0, 58, 47
2, 341790, Note_on_c, 0, 58, 0
2, 341834, Note_on_c, 0, 50, 18
2, 341841, Note_on_c, 0, 43, 24
2, 341963, Note_on_c, 0, 60, 54
2, 341966, Note_on_c, 0, 67, 47
2, 342111, Note_on_c, 0, 67, 0
2, 342248, Note_on_c, 0, 60, 0
2, 342264, Note_on_c, 0, 58, 33
2, 342344, Note_on_c, 0, 58, 0
2, 342536, Note_on_c, 0, 60, 43
2, 342539, Note_on_c, 0, 67, 47
2, 342690, Note_on_c, 0, 60, 0
2, 342765, Note_on_c, 0, 67, 0
2, 342843, Note_on_c, 0, 58, 47
2, 343433, Note_on_c, 0, 55, 28
2, 343536, Note_on_c, 0, 58, 0
2, 343631, Note_on_c, 0, 55, 0
2, 343731, Note_on_c, 0, 58, 42
2, 343939, Note_on_c, 0, 58, 0
2, 343961, Note_on_c, 0, 59, 27
2, 344633, Note_on_c, 0, 59, 0
2, 344720, Note_on_c, 0, 55, 29
2, 344775, Control_c, 0, 64, 127
2, 344853, Note_on_c, 0, 50, 0
2, 345028, Note_on_c, 0, 43, 0
2, 345106, Note_on_c, 0, 55, 0
2, 345294, Note_on_c, 0, 55, 46
2, 345369, Note_on_c, 0, 55, 0
2, 345683, Note_on_c, 0, 36, 51
2, 345743, Control_c, 0, 64, 0
2, 345794, Note_on_c, 0, 69, 66
2, 345833, Note_on_c, 0, 62, 52
2, 345834, Note_on_c, 0, 58, 43
2, 345851, Note_on_c, 0, 66, 59
2, 345859, Note_on_c, 0, 43, 24
2, 345896, Note_on_c, 0, 52, 43
2, 346147, Control_c, 0, 64, 127
2, 346456, Note_on_c, 0, 69, 0
2, 346504, Note_on_c, 0, 58, 0
2, 346531, Note_on_c, 0, 66, 0
2, 346553, Note_on_c, 0, 62, 0
2, 346671, Note_on_c, 0, 67, 62
2, 346724, Note_on_c, 0, 52, 0
2, 346892, Note_on_c, 0, 67, 0
2, 346961, Note_on_c, 0, 43, 0
2, 347467, Note_on_c, 0, 43, 33
2, 347641, Note_on_c, 0, 81, 71
2, 347664, Note_on_c, 0, 52, 35
2, 347684, Note_on_c, 0, 78, 46
2, 347685, Note_on_c, 0, 74, 61
2, 347710, Note_on_c, 0, 70, 46
2, 348129, Note_on_c, 0, 36, 0
2, 348178, Note_on_c, 0, 43, 0
2, 348319, Note_on_c, 0, 81, 0
2, 348372, Note_on_c, 0, 52, 0
2, 348377, Note_on_c, 0, 78, 0
2, 348456, Note_on_c, 0, 74, 0
2, 348458, Note_on_c, 0, 70, 0
2, 348576, Note_on_c, 0, 79, 54
2, 348708, Note_on_c, 0, 79, 0
2, 349537, Control_c, 0, 64, 0
2, 349562, Note_on_c, 0, 57, 35
2, 349564, Note_on_c, 0, 43, 36
2, 349567, Note_on_c, 0, 62, 44
2, 349578, Note_on_c, 0, 54, 34
2, 349582, Note_on_c, 0, 59, 36
2, 349583, Note_on_c, 0, 50, 41
2, 349870, Control_c, 0, 64, 127
2, 349924, Note_on_c, 0, 57, 0
2, 349951, Note_on_c, 0, 59, 0
2, 349975, Note_on_c, 0, 62, 0
2, 350135, Note_on_c, 0, 54, 0
2, 350163, Note_on_c, 0, 43, 0
2, 350505, Note_on_c, 0, 50, 0
2, 350583, Note_on_c, 0, 57, 40
2, 350584, Note_on_c, 0, 81, 34
2, 350806, Note_on_c, 0, 81, 0
2, 351487, Note_on_c, 0, 57, 0
2, 351536, Note_on_c, 0, 74, 43
2, 351537, Note_on_c, 0, 86, 44
2, 351545, Note_on_c, 0, 62, 38
2, 351678, Note_on_c, 0, 74, 0
2, 351743, Note_on_c, 0, 86, 0
2, 352367, Note_on_c, 0, 62, 0
2, 352457, Note_on_c, 0, 69, 47
2, 352478, Note_on_c, 0, 93, 55
2, 352488, Note_on_c, 0, 81, 40
2, 352822, Note_on_c, 0, 93, 0
2, 352946, Note_on_c, 0, 81, 0
2, 353375, Note_on_c, 0, 69, 0
2, 353422, Note_on_c, 0, 78, 30
2, 353430, Note_on_c, 0, 90, 33
2, 353442, Note_on_c, 0, 66, 39
2, 353562, Note_on_c, 0, 78, 0
2, 353656, Note_on_c, 0, 90, 0
2, 354095, Note_on_c, 0, 66, 0
2, 354533, Note_on_c, 0, 78, 34
2, 354543, Note_on_c, 0, 90, 35
2, 354551, Note_on_c, 0, 102, 44
2, 354916, Note_on_c, 0, 102, 0
2, 355044, Note_on_c, 0, 90, 0
2, 355182, Note_on_c, 0, 78, 0
2, 355589, Note_on_c, 0, 86, 42
2, 355602, Note_on_c, 0, 74, 43
2, 355641, Note_on_c, 0, 98, 15
2, 355810, Note_on_c, 0, 86, 0
2, 355817, Note_on_c, 0, 74, 0
2, 355894, Note_on_c, 0, 98, 0
2, 356729, Note_on_c, 0, 81, 38
2, 356743, Note_on_c, 0, 105, 42
2, 356751, Note_on_c, 0, 93, 36
2, 356884, Note_on_c, 0, 81, 0
2, 357175, Note_on_c, 0, 93, 0
2, 357892, Note_on_c, 0, 105, 0
2, 358612, Note_on_c, 0, 43, 35
2, 358613, Note_on_c, 0, 102, 32
2, 358617, Note_on_c, 0, 31, 37
2, 358632, Note_on_c, 0, 95, 24
2, 358664, Note_on_c, 0, 100, 28
2, 359086, Note_on_c, 0, 100, 0
2, 359119, Note_on_c, 0, 95, 0
2, 359158, Note_on_c, 0, 102, 0
2, 359351, Note_on_c, 0, 43, 0
2, 359374, Note_on_c, 0, 31, 0
2, 363020, Control_c, 0, 64, 0
2, 363020, End_track
3, 0, Start_track
3, 0, Title_t, "Bass"
3, 0, Program_c, 1, 32
3, 0, Control_c, 1, 7, 101
3, 3840, Note_on_c, 1, 31, 75
3, 5660, Note_on_c, 1, 31, 0
3, 5712, Note_on_c, 1, 36, 99
3, 7361, Note_on_c, 1, 33, 53
3, 7396, Note_on_c, 1, 36, 0
3, 7453, Note_on_c, 1, 33, 0
3, 7498, Note_on_c, 1, 34, 75
3, 7678, Note_on_c, 1, 34, 0
3, 7694, Note_on_c, 1, 35, 80
3, 8626, Note_on_c, 1, 47, 92
3, 9252, Note_on_c, 1, 35, 0
3, 9390, Note_on_c, 1, 35, 50
3, 9503, Note_on_c, 1, 35, 0
3, 9547, Note_on_c, 1, 44, 77
3, 9556, Note_on_c, 1, 47, 0
3, 11176, Note_on_c, 1, 35, 44
3, 11252, Note_on_c, 1, 35, 0
3, 11263, Note_on_c, 1, 44, 0
3, 11334, Note_on_c, 1, 34, 69
3, 11492, Note_on_c, 1, 34, 0
3, 11511, Note_on_c, 1, 33, 73
3, 14831, Note_on_c, 1, 33, 0
3, 14834, Note_on_c, 1, 38, 80
3, 16320, Note_on_c, 1, 50, 108
3, 16379, Note_on_c, 1, 38, 0
3, 16786, Note_on_c, 1, 50, 0
3, 16807, Note_on_c, 1, 50, 81
3, 17199, Note_on_c, 1, 48, 89
3, 17200, Note_on_c, 1, 50, 0
3, 18124, Note_on_c, 1, 48, 0
3, 18174, Note_on_c, 1, 48, 71
3, 19158, Note_on_c, 1, 48, 0
3, 19168, Note_on_c, 1, 47, 68
3, 20938, Note_on_c, 1, 35, 69
3, 21082, Note_on_c, 1, 47, 0
3, 21141, Note_on_c, 1, 35, 0
3, 21167, Note_on_c, 1, 35, 67
3, 21653, Note_on_c, 1, 40, 81
3, 21694, Note_on_c, 1, 35, 0
3, 23007, Note_on_c, 1, 33, 84
3, 23012, Note_on_c, 1, 40, 0
3, 25447, Note_on_c, 1, 38, 92
3, 25448, Note_on_c, 1, 33, 0
3, 26396, Note_on_c, 1, 36, 79
3, 26419, Note_on_c, 1, 38, 0
3, 26826, Note_on_c, 1, 36, 0
3, 26860, Note_on_c, 1, 35, 70
3, 28783, Note_on_c, 1, 35, 0
3, 28785, Note_on_c, 1, 40, 77
3, 29746, Note_on_c, 1, 52, 89
3, 30246, Note_on_c, 1, 46, 71
3, 30300, Note_on_c, 1, 52, 0
3, 30308, Note_on_c, 1, 40, 0
3, 30720, Note_on_c, 1, 45, 75
3, 30735, Note_on_c, 1, 46, 0
3, 31167, Note_on_c, 1, 45, 0
3, 31170, Note_on_c, 1, 33, 74
3, 33535, Note_on_c, 1, 38, 71
3, 33552, Note_on_c, 1, 33, 0
3, 34048, Note_on_c, 1, 31, 60
3, 34057, Note_on_c, 1, 38, 0
3, 34467, Note_on_c, 1, 31, 0
3, 34506, Note_on_c, 1, 31, 81
3, 36450, Note_on_c, 1, 36, 75
3, 36469, Note_on_c, 1, 31, 0
3, 38400, Note_on_c, 1, 35, 69
3, 38413, Note_on_c, 1, 36, 0
3, 38890, Note_on_c, 1, 47, 92
3, 38918, Note_on_c, 1, 35, 0
3, 40276, Note_on_c, 1, 44, 74
3, 40321, Note_on_c, 1, 47, 0
3, 41730, Note_on_c, 1, 32, 75
3, 41820, Note_on_c, 1, 44, 0
3, 42211, Note_on_c, 1, 33, 84
3, 42214, Note_on_c, 1, 32, 0
3, 45104, Note_on_c, 1, 39, 82
3, 45153, Note_on_c, 1, 33, 0
3, 46516, Note_on_c, 1, 39, 0
3, 46550, Note_on_c, 1, 38, 80
3, 47009, Note_on_c, 1, 50, 101
3, 47099, Note_on_c, 1, 38, 0
3, 47426, Note_on_c, 1, 50, 0
3, 47462, Note_on_c, 1, 50, 90
3, 47898, Note_on_c, 1, 50, 0
3, 47917, Note_on_c, 1, 48, 71
3, 48390, Note_on_c, 1, 36, 75
3, 48803, Note_on_c, 1, 36, 0
3, 48809, Note_on_c, 1, 48, 0
3, 48848, Note_on_c, 1, 36, 78
3, 49859, Note_on_c, 1, 35, 76
3, 49898, Note_on_c, 1, 36, 0
3, 51813, Note_on_c, 1, 40, 79
3, 51855, Note_on_c, 1, 35, 0
3, 53085, Note_on_c, 1, 35, 54
3, 53093, Note_on_c, 1, 40, 0
3, 53157, Note_on_c, 1, 35, 0
3, 53243, Note_on_c, 1, 32, 79
3, 53703, Note_on_c, 1, 32, 0
3, 53710, Note_on_c, 1, 33, 81
3, 54678, Note_on_c, 1, 33, 0
3, 54720, Note_on_c, 1, 39, 87
3, 55473, Note_on_c, 1, 37, 67
3, 55533, Note_on_c, 1, 39, 0
3, 55614, Note_on_c, 1, 37, 0
3, 55631, Note_on_c, 1, 38, 81
3, 56099, Note_on_c, 1, 30, 75
3, 56118, Note_on_c, 1, 38, 0
3, 57592, Note_on_c, 1, 31, 72
3, 57624, Note_on_c, 1, 30, 0
3, 58862, Note_on_c, 1, 43, 66
3, 58923, Note_on_c, 1, 31, 0
3, 58960, Note_on_c, 1, 43, 0
3, 59033, Note_on_c, 1, 35, 81
3, 59514, Note_on_c, 1, 36, 84
3, 59526, Note_on_c, 1, 35, 0
3, 60475, Note_on_c, 1, 37, 74
3, 60492, Note_on_c, 1, 36, 0
3, 61281, Note_on_c, 1, 36, 36
3, 61339, Note_on_c, 1, 37, 0
3, 61392, Note_on_c, 1, 36, 0
3, 61433, Note_on_c, 1, 38, 76
3, 62397, Note_on_c, 1, 31, 80
3, 62415, Note_on_c, 1, 38, 0
3, 63323, Note_on_c, 1, 31, 0
3, 63331, Note_on_c, 1, 43, 85
3, 64114, Note_on_c, 1, 38, 60
3, 64178, Note_on_c, 1, 43, 0
3, 64255, Note_on_c, 1, 38, 0
3, 64292, Note_on_c, 1, 31, 71
3, 64781, Note_on_c, 1, 34, 76
3, 64793, Note_on_c, 1, 31, 0
3, 65238, Note_on_c, 1, 34, 0
3, 65246, Note_on_c, 1, 35, 74
3, 66240, Note_on_c, 1, 47, 68
3, 66963, Note_on_c, 1, 48, 87
3, 67039, Note_on_c, 1, 47, 0
3, 67128, Note_on_c, 1, 48, 0
3, 67174, Note_on_c, 1, 47, 52
3, 67262, Note_on_c, 1, 35, 0
3, 67491, Note_on_c, 1, 47, 0
3, 67506, Note_on_c, 1, 35, 65
3, 68059, Note_on_c, 1, 35, 0
3, 68132, Note_on_c, 1, 35, 60
3, 68912, Note_on_c, 1, 34, 48
3, 68980, Note_on_c, 1, 35, 0
3, 69073, Note_on_c, 1, 34, 0
3, 69096, Note_on_c, 1, 35, 68
3, 70366, Note_on_c, 1, 47, 82
3, 70438, Note_on_c, 1, 47, 0
3, 70631, Note_on_c, 1, 47, 71
3, 70680, Note_on_c, 1, 47, 0
3, 70703, Note_on_c, 1, 46, 64
3, 70847, Note_on_c, 1, 46, 0
3, 70898, Note_on_c, 1, 47, 66
3, 71243, Note_on_c, 1, 35, 0
3, 71929, Note_on_c, 1, 35, 66
3, 72027, Note_on_c, 1, 47, 0
3, 72705, Note_on_c, 1, 39, 55
3, 72756, Note_on_c, 1, 35, 0
3, 72870, Note_on_c, 1, 39, 0
3, 72894, Note_on_c, 1, 40, 66
3, 74365, Note_on_c, 1, 45, 77
3, 74546, Note_on_c, 1, 40, 0
3, 74688, Note_on_c, 1, 40, 29
3, 74804, Note_on_c, 1, 45, 0
3, 74827, Note_on_c, 1, 40, 0
3, 74847, Note_on_c, 1, 44, 57
3, 75342, Note_on_c, 1, 40, 55
3, 75363, Note_on_c, 1, 44, 0
3, 76095, Note_on_c, 1, 35, 57
3, 76118, Note_on_c, 1, 40, 0
3, 76280, Note_on_c, 1, 35, 0
3, 76305, Note_on_c, 1, 28, 88
3, 77712, Note_on_c, 1, 35, 89
3, 77758, Note_on_c, 1, 28, 0
3, 78586, Note_on_c, 1, 35, 0
3, 78645, Note_on_c, 1, 35, 77
3, 79623, Note_on_c, 1, 40, 80
3, 79667, Note_on_c, 1, 35, 0
3, 80378, Note_on_c, 1, 40, 0
3, 80413, Note_on_c, 1, 38, 33
3, 80448, Note_on_c, 1, 38, 0
3, 80557, Note_on_c, 1, 37, 70
3, 82149, Note_on_c, 1, 37, 0
3, 82345, Note_on_c, 1, 37, 67
3, 82549, Note_on_c, 1, 37, 0
3, 82561, Note_on_c, 1, 36, 87
3, 83986, Note_on_c, 1, 48, 108
3, 84317, Note_on_c, 1, 36, 0
3, 84414, Note_on_c, 1, 48, 0
3, 84436, Note_on_c, 1, 47, 81
3, 85372, Note_on_c, 1, 35, 87
3, 85532, Note_on_c, 1, 47, 0
3, 86303, Note_on_c, 1, 35, 0
3, 86325, Note_on_c, 1, 34, 82
3, 87264, Note_on_c, 1, 46, 82
3, 87558, Note_on_c, 1, 34, 0
3, 88125, Note_on_c, 1, 37, 64
3, 88193, Note_on_c, 1, 46, 0
3, 88299, Note_on_c, 1, 38, 74
3, 88306, Note_on_c, 1, 37, 0
3, 90688, Note_on_c, 1, 50, 101
3, 91125, Note_on_c, 1, 50, 0
3, 91169, Note_on_c, 1, 50, 80
3, 91280, Note_on_c, 1, 38, 0
3, 91654, Note_on_c, 1, 38, 77
3, 91762, Note_on_c, 1, 50, 0
3, 92621, Note_on_c, 1, 50, 94
3, 92999, Note_on_c, 1, 50, 0
3, 93069, Note_on_c, 1, 50, 77
3, 93155, Note_on_c, 1, 38, 0
3, 93539, Note_on_c, 1, 38, 79
3, 93978, Note_on_c, 1, 38, 0
3, 94016, Note_on_c, 1, 38, 81
3, 94059, Note_on_c, 1, 50, 0
3, 95498, Note_on_c, 1, 32, 70
3, 95525, Note_on_c, 1, 38, 0
3, 95984, Note_on_c, 1, 31, 68
3, 96036, Note_on_c, 1, 32, 0
3, 97891, Note_on_c, 1, 36, 66
3, 97906, Note_on_c, 1, 31, 0
3, 99504, Note_on_c, 1, 33, 49
3, 99528, Note_on_c, 1, 36, 0
3, 99605, Note_on_c, 1, 33, 0
3, 99636, Note_on_c, 1, 34, 60
3, 99757, Note_on_c, 1, 34, 0
3, 99782, Note_on_c, 1, 35, 69
3, 101640, Note_on_c, 1, 32, 63
3, 101759, Note_on_c, 1, 35, 0
3, 103124, Note_on_c, 1, 32, 0
3, 103198, Note_on_c, 1, 35, 69
3, 103260, Note_on_c, 1, 35, 0
3, 103487, Note_on_c, 1, 32, 67
3, 103639, Note_on_c, 1, 32, 0
3, 103655, Note_on_c, 1, 33, 65
3, 103880, Note_on_c, 1, 33, 0
3, 103968, Note_on_c, 1, 35, 66
3, 104141, Note_on_c, 1, 36, 77
3, 104161, Note_on_c, 1, 35, 0
3, 105602, Note_on_c, 1, 33, 66
3, 105605, Note_on_c, 1, 36, 0
3, 106532, Note_on_c, 1, 33, 0
3, 106538, Note_on_c, 1, 40, 63
3, 106615, Note_on_c, 1, 40, 0
3, 106849, Note_on_c, 1, 39, 69
3, 107033, Note_on_c, 1, 39, 0
3, 107071, Note_on_c, 1, 38, 72
3, 108485, Note_on_c, 1, 50, 94
3, 108516, Note_on_c, 1, 38, 0
3, 109390, Note_on_c, 1, 38, 91
3, 109443, Note_on_c, 1, 50, 0
3, 111142, Note_on_c, 1, 30, 64
3, 111161, Note_on_c, 1, 38, 0
3, 111367, Note_on_c, 1, 30, 0
3, 111368, Note_on_c, 1, 29, 63
3, 112630, Note_on_c, 1, 41, 77
3, 112661, Note_on_c, 1, 29, 0
3, 112966, Note_on_c, 1, 29, 55
3, 113035, Note_on_c, 1, 29, 0
3, 113035, Note_on_c, 1, 41, 0
3, 113113, Note_on_c, 1, 29, 71
3, 113201, Note_on_c, 1, 29, 0
3, 113278, Note_on_c, 1, 28, 71
3, 114200, Note_on_c, 1, 40, 74
3, 114257, Note_on_c, 1, 28, 0
3, 114670, Note_on_c, 1, 32, 83
3, 114718, Note_on_c, 1, 40, 0
3, 115152, Note_on_c, 1, 32, 0
3, 115155, Note_on_c, 1, 33, 84
3, 116137, Note_on_c, 1, 35, 67
3, 116168, Note_on_c, 1, 33, 0
3, 116620, Note_on_c, 1, 36, 66
3, 116656, Note_on_c, 1, 35, 0
3, 117111, Note_on_c, 1, 38, 66
3, 117153, Note_on_c, 1, 36, 0
3, 118058, Note_on_c, 1, 38, 0
3, 118113, Note_on_c, 1, 38, 65
3, 118882, Note_on_c, 1, 37, 45
3, 118901, Note_on_c, 1, 38, 0
3, 119037, Note_on_c, 1, 37, 0
3, 119048, Note_on_c, 1, 38, 67
3, 120272, Note_on_c, 1, 50, 67
3, 120388, Note_on_c, 1, 50, 0
3, 120390, Note_on_c, 1, 49, 53
3, 120473, Note_on_c, 1, 49, 0
3, 120517, Note_on_c, 1, 50, 71
3, 120827, Note_on_c, 1, 38, 0
3, 121278, Note_on_c, 1, 38, 49
3, 121374, Note_on_c, 1, 38, 0
3, 121907, Note_on_c, 1, 38, 52
3, 121978, Note_on_c, 1, 50, 0
3, 122711, Note_on_c, 1, 37, 52
3, 122717, Note_on_c, 1, 38, 0
3, 122884, Note_on_c, 1, 38, 66
3, 122895, Note_on_c, 1, 37, 0
3, 123834, Note_on_c, 1, 50, 55
3, 124139, Note_on_c, 1, 50, 0
3, 124185, Note_on_c, 1, 50, 68
3, 124193, Note_on_c, 1, 38, 0
3, 124239, Note_on_c, 1, 50, 0
3, 124632, Note_on_c, 1, 50, 73
3, 124688, Note_on_c, 1, 50, 0
3, 125097, Note_on_c, 1, 37, 69
3, 125230, Note_on_c, 1, 37, 0
3, 125260, Note_on_c, 1, 38, 80
3, 126055, Note_on_c, 1, 33, 67
3, 126072, Note_on_c, 1, 38, 0
3, 126176, Note_on_c, 1, 33, 0
3, 126215, Note_on_c, 1, 30, 63
3, 126725, Note_on_c, 1, 30, 0
3, 126729, Note_on_c, 1, 31, 68
3, 127706, Note_on_c, 1, 38, 71
3, 127712, Note_on_c, 1, 31, 0
3, 128339, Note_on_c, 1, 34, 57
3, 128369, Note_on_c, 1, 38, 0
3, 128445, Note_on_c, 1, 34, 0
3, 128476, Note_on_c, 1, 35, 60
3, 128626, Note_on_c, 1, 35, 0
3, 128653, Note_on_c, 1, 36, 55
3, 128958, Note_on_c, 1, 50, 95
3, 128996, Note_on_c, 1, 36, 0
3, 129105, Note_on_c, 1, 50, 0
3, 129139, Note_on_c, 1, 48, 75
3, 129889, Note_on_c, 1, 48, 0
3, 129897, Note_on_c, 1, 36, 61
3, 129964, Note_on_c, 1, 36, 0
3, 130046, Note_on_c, 1, 34, 61
3, 130127, Note_on_c, 1, 34, 0
3, 130347, Note_on_c, 1, 34, 52
3, 130485, Note_on_c, 1, 34, 0
3, 130514, Note_on_c, 1, 35, 57
3, 131468, Note_on_c, 1, 47, 77
3, 131605, Note_on_c, 1, 47, 0
3, 131609, Note_on_c, 1, 46, 39
3, 131622, Note_on_c, 1, 35, 0
3, 131745, Note_on_c, 1, 46, 0
3, 131775, Note_on_c, 1, 47, 51
3, 132205, Note_on_c, 1, 46, 47
3, 132234, Note_on_c, 1, 47, 0
3, 132291, Note_on_c, 1, 46, 0
3, 132313, Note_on_c, 1, 45, 54
3, 132457, Note_on_c, 1, 45, 0
3, 132459, Note_on_c, 1, 44, 56
3, 133210, Note_on_c, 1, 38, 51
3, 133342, Note_on_c, 1, 38, 0
3, 133399, Note_on_c, 1, 35, 59
3, 133438, Note_on_c, 1, 44, 0
3, 133870, Note_on_c, 1, 35, 0
3, 133876, Note_on_c, 1, 32, 65
3, 134341, Note_on_c, 1, 32, 0
3, 134352, Note_on_c, 1, 33, 65
3, 135348, Note_on_c, 1, 35, 68
3, 135370, Note_on_c, 1, 33, 0
3, 136132, Note_on_c, 1, 33, 49
3, 136196, Note_on_c, 1, 35, 0
3, 136253, Note_on_c, 1, 33, 0
3, 136281, Note_on_c, 1, 36, 66
3, 136598, Note_on_c, 1, 37, 60
3, 136611, Note_on_c, 1, 36, 0
3, 136752, Note_on_c, 1, 38, 71
3, 136775, Note_on_c, 1, 37, 0
3, 137222, Note_on_c, 1, 50, 91
3, 137332, Note_on_c, 1, 38, 0
3, 138100, Note_on_c, 1, 50, 0
3, 138139, Note_on_c, 1, 38, 77
3, 139117, Note_on_c, 1, 50, 96
3, 139138, Note_on_c, 1, 38, 0
3, 140093, Note_on_c, 1, 48, 75
3, 140103, Note_on_c, 1, 50, 0
3, 140200, Note_on_c, 1, 48, 0
3, 140399, Note_on_c, 1, 35, 44
3, 140547, Note_on_c, 1, 35, 0
3, 140556, Note_on_c, 1, 36, 77
3, 141861, Note_on_c, 1, 34, 43
3, 141879, Note_on_c, 1, 36, 0
3, 142043, Note_on_c, 1, 34, 0
3, 142047, Note_on_c, 1, 35, 63
3, 143039, Note_on_c, 1, 47, 96
3, 143082, Note_on_c, 1, 35, 0
3, 143990, Note_on_c, 1, 28, 94
3, 143996, Note_on_c, 1, 47, 0
3, 144921, Note_on_c, 1, 32, 86
3, 144958, Note_on_c, 1, 28, 0
3, 145884, Note_on_c, 1, 33, 88
3, 145899, Note_on_c, 1, 32, 0
3, 146827, Note_on_c, 1, 35, 62
3, 146832, Note_on_c, 1, 33, 0
3, 146911, Note_on_c, 1, 35, 0
3, 147125, Note_on_c, 1, 36, 66
3, 147254, Note_on_c, 1, 36, 0
3, 147286, Note_on_c, 1, 37, 59
3, 147753, Note_on_c, 1, 38, 68
3, 147755, Note_on_c, 1, 37, 0
3, 148738, Note_on_c, 1, 45, 84
3, 148762, Note_on_c, 1, 38, 0
3, 149000, Note_on_c, 1, 45, 0
3, 149047, Note_on_c, 1, 38, 68
3, 149138, Note_on_c, 1, 38, 0
3, 149206, Note_on_c, 1, 36, 71
3, 149644, Note_on_c, 1, 36, 0
3, 149676, Note_on_c, 1, 35, 71
3, 150566, Note_on_c, 1, 35, 0
3, 150638, Note_on_c, 1, 35, 58
3, 151600, Note_on_c, 1, 47, 90
3, 151652, Note_on_c, 1, 35, 0
3, 153040, Note_on_c, 1, 40, 59
3, 153501, Note_on_c, 1, 40, 0
3, 153517, Note_on_c, 1, 33, 76
3, 153541, Note_on_c, 1, 47, 0
3, 154462, Note_on_c, 1, 33, 0
3, 154505, Note_on_c, 1, 33, 80
3, 155472, Note_on_c, 1, 33, 0
3, 155475, Note_on_c, 1, 38, 74
3, 156410, Note_on_c, 1, 32, 90
3, 156445, Note_on_c, 1, 38, 0
3, 157365, Note_on_c, 1, 32, 0
3, 157396, Note_on_c, 1, 31, 63
3, 159159, Note_on_c, 1, 35, 48
3, 159222, Note_on_c, 1, 31, 0
3, 159334, Note_on_c, 1, 35, 0
3, 159363, Note_on_c, 1, 38, 74
3, 159415, Note_on_c, 1, 38, 0
3, 159669, Note_on_c, 1, 35, 59
3, 159825, Note_on_c, 1, 35, 0
3, 159833, Note_on_c, 1, 36, 62
3, 160301, Note_on_c, 1, 50, 92
3, 160318, Note_on_c, 1, 36, 0
3, 160771, Note_on_c, 1, 48, 68
3, 160772, Note_on_c, 1, 50, 0
3, 161108, Note_on_c, 1, 35, 40
3, 161153, Note_on_c, 1, 35, 0
3, 161200, Note_on_c, 1, 48, 0
3, 161228, Note_on_c, 1, 47, 55
3, 162164, Note_on_c, 1, 35, 71
3, 162220, Note_on_c, 1, 47, 0
3, 163170, Note_on_c, 1, 32, 70
3, 163202, Note_on_c, 1, 35, 0
3, 164870, Note_on_c, 1, 32, 0
3, 164871, Note_on_c, 1, 35, 62
3, 164962, Note_on_c, 1, 32, 65
3, 164970, Note_on_c, 1, 35, 0
3, 165025, Note_on_c, 1, 32, 0
3, 165079, Note_on_c, 1, 33, 74
3, 166028, Note_on_c, 1, 45, 77
3, 166082, Note_on_c, 1, 33, 0
3, 167441, Note_on_c, 1, 45, 0
3, 167443, Note_on_c, 1, 40, 55
3, 168273, Note_on_c, 1, 40, 0
3, 168312, Note_on_c, 1, 36, 29
3, 168380, Note_on_c, 1, 36, 0
3, 168406, Note_on_c, 1, 39, 70
3, 168751, Note_on_c, 1, 37, 33
3, 168803, Note_on_c, 1, 39, 0
3, 168869, Note_on_c, 1, 37, 0
3, 168895, Note_on_c, 1, 38, 58
3, 169837, Note_on_c, 1, 38, 0
3, 169857, Note_on_c, 1, 50, 92
3, 170309, Note_on_c, 1, 50, 0
3, 170341, Note_on_c, 1, 50, 84
3, 170691, Note_on_c, 1, 50, 0
3, 170785, Note_on_c, 1, 48, 53
3, 170880, Note_on_c, 1, 48, 0
3, 171254, Note_on_c, 1, 48, 64
3, 171736, Note_on_c, 1, 36, 55
3, 171761, Note_on_c, 1, 48, 0
3, 172158, Note_on_c, 1, 36, 0
3, 172225, Note_on_c, 1, 36, 51
3, 172605, Note_on_c, 1, 36, 0
3, 172689, Note_on_c, 1, 35, 83
3, 174445, Note_on_c, 1, 35, 0
3, 174695, Note_on_c, 1, 35, 73
3, 176227, Note_on_c, 1, 29, 68
3, 176273, Note_on_c, 1, 35, 0
3, 176557, Note_on_c, 1, 29, 0
3, 176590, Note_on_c, 1, 28, 73
3, 179185, Note_on_c, 1, 35, 83
3, 179261, Note_on_c, 1, 28, 0
3, 179756, Note_on_c, 1, 34, 62
3, 179833, Note_on_c, 1, 35, 0
3, 179920, Note_on_c, 1, 34, 0
3, 180063, Note_on_c, 1, 32, 76
3, 180247, Note_on_c, 1, 32, 0
3, 180329, Note_on_c, 1, 32, 47
3, 180361, Note_on_c, 1, 33, 80
3, 180400, Note_on_c, 1, 32, 0
3, 182342, Note_on_c, 1, 33, 0
3, 182380, Note_on_c, 1, 35, 54
3, 182624, Note_on_c, 1, 35, 0
3, 183044, Note_on_c, 1, 36, 62
3, 183319, Note_on_c, 1, 36, 0
3, 183368, Note_on_c, 1, 37, 59
3, 183702, Note_on_c, 1, 37, 0
3, 184039, Note_on_c, 1, 37, 57
3, 184288, Note_on_c, 1, 37, 0
3, 184355, Note_on_c, 1, 38, 63
3, 185641, Note_on_c, 1, 49, 67
3, 185870, Note_on_c, 1, 49, 0
3, 185906, Note_on_c, 1, 50, 52
3, 186144, Note_on_c, 1, 50, 0
3, 186238, Note_on_c, 1, 50, 72
3, 186490, Note_on_c, 1, 38, 0
3, 187477, Note_on_c, 1, 41, 56
3, 187586, Note_on_c, 1, 50, 0
3, 187786, Note_on_c, 1, 42, 57
3, 187787, Note_on_c, 1, 41, 0
3, 188025, Note_on_c, 1, 42, 0
3, 188097, Note_on_c, 1, 43, 56
3, 188933, Note_on_c, 1, 42, 20
3, 189014, Note_on_c, 1, 42, 0
3, 189078, Note_on_c, 1, 55, 88
3, 189463, Note_on_c, 1, 43, 0
3, 189888, Note_on_c, 1, 42, 25
3, 189990, Note_on_c, 1, 42, 0
3, 190085, Note_on_c, 1, 54, 67
3, 190141, Note_on_c, 1, 55, 0
3, 191720, Note_on_c, 1, 50, 61
3, 191798, Note_on_c, 1, 54, 0
3, 192015, Note_on_c, 1, 50, 0
3, 192057, Note_on_c, 1, 47, 46
3, 193962, Note_on_c, 1, 42, 64
3, 194008, Note_on_c, 1, 47, 0
3, 194685, Note_on_c, 1, 42, 0
3, 194693, Note_on_c, 1, 43, 65
3, 194897, Note_on_c, 1, 43, 0
3, 195009, Note_on_c, 1, 37, 47
3, 195252, Note_on_c, 1, 37, 0
3, 195639, Note_on_c, 1, 38, 64
3, 195851, Note_on_c, 1, 38, 0
3, 195962, Note_on_c, 1, 31, 54
3, 197496, Note_on_c, 1, 37, 45
3, 197595, Note_on_c, 1, 31, 0
3, 197694, Note_on_c, 1, 37, 0
3, 197785, Note_on_c, 1, 38, 51
3, 199332, Note_on_c, 1, 34, 56
3, 199337, Note_on_c, 1, 38, 0
3, 199576, Note_on_c, 1, 34, 0
3, 199645, Note_on_c, 1, 35, 63
3, 201591, Note_on_c, 1, 35, 0
3, 201627, Note_on_c, 1, 31, 53
3, 201818, Note_on_c, 1, 31, 0
3, 202246, Note_on_c, 1, 33, 66
3, 202491, Note_on_c, 1, 33, 0
3, 202527, Note_on_c, 1, 34, 69
3, 203242, Note_on_c, 1, 32, 30
3, 203420, Note_on_c, 1, 34, 0
3, 203451, Note_on_c, 1, 32, 0
3, 203509, Note_on_c, 1, 35, 58
3, 205135, Note_on_c, 1, 46, 75
3, 205397, Note_on_c, 1, 46, 0
3, 205482, Note_on_c, 1, 47, 60
3, 205682, Note_on_c, 1, 35, 0
3, 207045, Note_on_c, 1, 35, 49
3, 207123, Note_on_c, 1, 47, 0
3, 207195, Note_on_c, 1, 35, 0
3, 207356, Note_on_c, 1, 47, 80
3, 207357, Note_on_c, 1, 48, 81
3, 207853, Note_on_c, 1, 48, 0
3, 207898, Note_on_c, 1, 35, 18
3, 207974, Note_on_c, 1, 48, 71
3, 208031, Note_on_c, 1, 35, 0
3, 208032, Note_on_c, 1, 47, 0
3, 208224, Note_on_c, 1, 48, 0
3, 208298, Note_on_c, 1, 47, 61
3, 208938, Note_on_c, 1, 34, 60
3, 208979, Note_on_c, 1, 47, 0
3, 209261, Note_on_c, 1, 34, 0
3, 209262, Note_on_c, 1, 35, 51
3, 210119, Note_on_c, 1, 35, 0
3, 210208, Note_on_c, 1, 34, 67
3, 210869, Note_on_c, 1, 35, 76
3, 210920, Note_on_c, 1, 34, 0
3, 212781, Note_on_c, 1, 47, 76
3, 213072, Note_on_c, 1, 47, 0
3, 213135, Note_on_c, 1, 48, 92
3, 213507, Note_on_c, 1, 35, 0
3, 213629, Note_on_c, 1, 48, 0
3, 213714, Note_on_c, 1, 48, 81
3, 214039, Note_on_c, 1, 48, 0
3, 214099, Note_on_c, 1, 47, 81
3, 214734, Note_on_c, 1, 34, 78
3, 214819, Note_on_c, 1, 47, 0
3, 215069, Note_on_c, 1, 35, 78
3, 215094, Note_on_c, 1, 34, 0
3, 216057, Note_on_c, 1, 47, 99
3, 217622, Note_on_c, 1, 47, 0
3, 217628, Note_on_c, 1, 46, 51
3, 217915, Note_on_c, 1, 46, 0
3, 217962, Note_on_c, 1, 35, 0
3, 218000, Note_on_c, 1, 47, 48
3, 218193, Note_on_c, 1, 47, 0
3, 218583, Note_on_c, 1, 39, 62
3, 218901, Note_on_c, 1, 39, 0
3, 218910, Note_on_c, 1, 40, 55
3, 220488, Note_on_c, 1, 39, 31
3, 220501, Note_on_c, 1, 44, 21
3, 220596, Note_on_c, 1, 44, 0
3, 220664, Note_on_c, 1, 39, 0
3, 220806, Note_on_c, 1, 45, 83
3, 221421, Note_on_c, 1, 45, 0
3, 221476, Note_on_c, 1, 39, 25
3, 221484, Note_on_c, 1, 44, 25
3, 221542, Note_on_c, 1, 39, 0
3, 221611, Note_on_c, 1, 44, 0
3, 221743, Note_on_c, 1, 45, 59
3, 222359, Note_on_c, 1, 45, 0
3, 222388, Note_on_c, 1, 44, 60
3, 222486, Note_on_c, 1, 40, 0
3, 223316, Note_on_c, 1, 40, 56
3, 223506, Note_on_c, 1, 44, 0
3, 223602, Note_on_c, 1, 40, 0
3, 223657, Note_on_c, 1, 28, 82
3, 225581, Note_on_c, 1, 35, 43
3, 225745, Note_on_c, 1, 35, 0
3, 226204, Note_on_c, 1, 39, 60
3, 226502, Note_on_c, 1, 39, 0
3, 226552, Note_on_c, 1, 40, 48
3, 226589, Note_on_c, 1, 28, 0
3, 228513, Note_on_c, 1, 35, 78
3, 228560, Note_on_c, 1, 40, 0
3, 230379, Note_on_c, 1, 35, 0
3, 230406, Note_on_c, 1, 28, 75
3, 231960, Note_on_c, 1, 28, 0
3, 232008, Note_on_c, 1, 34, 64
3, 232176, Note_on_c, 1, 34, 0
3, 232362, Note_on_c, 1, 35, 62
3, 232484, Note_on_c, 1, 35, 0
3, 232958, Note_on_c, 1, 40, 70
3, 233632, Note_on_c, 1, 39, 62
3, 233709, Note_on_c, 1, 40, 0
3, 233759, Note_on_c, 1, 39, 0
3, 233912, Note_on_c, 1, 38, 64
3, 234116, Note_on_c, 1, 38, 0
3, 234217, Note_on_c, 1, 37, 79
3, 236183, Note_on_c, 1, 49, 70
3, 237094, Note_on_c, 1, 37, 0
3, 237771, Note_on_c, 1, 35, 54
3, 237976, Note_on_c, 1, 49, 0
3, 238024, Note_on_c, 1, 35, 0
3, 238102, Note_on_c, 1, 36, 66
3, 239802, Note_on_c, 1, 34, 28
3, 239965, Note_on_c, 1, 36, 0
3, 240035, Note_on_c, 1, 48, 83
3, 240045, Note_on_c, 1, 34, 0
3, 240639, Note_on_c, 1, 39, 58
3, 240658, Note_on_c, 1, 48, 0
3, 240830, Note_on_c, 1, 39, 0
3, 240958, Note_on_c, 1, 36, 56
3, 241115, Note_on_c, 1, 36, 0
3, 241542, Note_on_c, 1, 34, 59
3, 241783, Note_on_c, 1, 34, 0
3, 241860, Note_on_c, 1, 35, 59
3, 243874, Note_on_c, 1, 47, 91
3, 244104, Note_on_c, 1, 35, 0
3, 245475, Note_on_c, 1, 35, 44
3, 245551, Note_on_c, 1, 35, 0
3, 245680, Note_on_c, 1, 47, 0
3, 245769, Note_on_c, 1, 46, 77
3, 247692, Note_on_c, 1, 46, 0
3, 247698, Note_on_c, 1, 43, 68
3, 248658, Note_on_c, 1, 43, 0
3, 248666, Note_on_c, 1, 37, 67
3, 249614, Note_on_c, 1, 37, 0
3, 249622, Note_on_c, 1, 38, 71
3, 251475, Note_on_c, 1, 38, 0
3, 251572, Note_on_c, 1, 38, 71
3, 253447, Note_on_c, 1, 38, 0
3, 253451, Note_on_c, 1, 35, 66
3, 255248, Note_on_c, 1, 35, 0
3, 255386, Note_on_c, 1, 35, 43
3, 256026, Note_on_c, 1, 35, 0
3, 256034, Note_on_c, 1, 36, 46
3, 256298, Note_on_c, 1, 37, 69
3, 256324, Note_on_c, 1, 36, 0
3, 257217, Note_on_c, 1, 37, 0
3, 257257, Note_on_c, 1, 38, 72
3, 257946, Note_on_c, 1, 51, 69
3, 258254, Note_on_c, 1, 51, 0
3, 258306, Note_on_c, 1, 50, 63
3, 261128, Note_on_c, 1, 38, 0
3, 261147, Note_on_c, 1, 32, 79
3, 261526, Note_on_c, 1, 50, 0
3, 263155, Note_on_c, 1, 44, 79
3, 263298, Note_on_c, 1, 32, 0
3, 264707, Note_on_c, 1, 32, 49
3, 264748, Note_on_c, 1, 44, 0
3, 264896, Note_on_c, 1, 32, 0
3, 265023, Note_on_c, 1, 31, 59
3, 266891, Note_on_c, 1, 38, 60
3, 266907, Note_on_c, 1, 31, 0
3, 268767, Note_on_c, 1, 38, 0
3, 268810, Note_on_c, 1, 36, 55
3, 270752, Note_on_c, 1, 48, 110
3, 270861, Note_on_c, 1, 36, 0
3, 272642, Note_on_c, 1, 47, 68
3, 272649, Note_on_c, 1, 48, 0
3, 272785, Note_on_c, 1, 47, 0
3, 273249, Note_on_c, 1, 42, 57
3, 273532, Note_on_c, 1, 42, 0
3, 273594, Note_on_c, 1, 35, 59
3, 275854, Note_on_c, 1, 35, 0
3, 275862, Note_on_c, 1, 34, 60
3, 276036, Note_on_c, 1, 34, 0
3, 276154, Note_on_c, 1, 33, 58
3, 276430, Note_on_c, 1, 33, 0
3, 276470, Note_on_c, 1, 32, 62
3, 278437, Note_on_c, 1, 35, 69
3, 278507, Note_on_c, 1, 32, 0
3, 279983, Note_on_c, 1, 32, 60
3, 280109, Note_on_c, 1, 35, 0
3, 280253, Note_on_c, 1, 32, 0
3, 280318, Note_on_c, 1, 33, 66
3, 282275, Note_on_c, 1, 35, 65
3, 282334, Note_on_c, 1, 33, 0
3, 284176, Note_on_c, 1, 36, 73
3, 284188, Note_on_c, 1, 35, 0
3, 285842, Note_on_c, 1, 33, 36
3, 285935, Note_on_c, 1, 36, 0
3, 286025, Note_on_c, 1, 33, 0
3, 286048, Note_on_c, 1, 37, 76
3, 287735, Note_on_c, 1, 34, 34
3, 287942, Note_on_c, 1, 37, 0
3, 287979, Note_on_c, 1, 34, 0
3, 288007, Note_on_c, 1, 38, 70
3, 288751, Note_on_c, 1, 37, 32
3, 288952, Note_on_c, 1, 37, 0
3, 288965, Note_on_c, 1, 50, 105
3, 289241, Note_on_c, 1, 38, 0
3, 290917, Note_on_c, 1, 38, 84
3, 291817, Note_on_c, 1, 38, 0
3, 291900, Note_on_c, 1, 38, 89
3, 292091, Note_on_c, 1, 50, 0
3, 293829, Note_on_c, 1, 36, 84
3, 293893, Note_on_c, 1, 38, 0
3, 295657, Note_on_c, 1, 36, 0
3, 295702, Note_on_c, 1, 35, 62
3, 295844, Note_on_c, 1, 35, 0
3, 296262, Note_on_c, 1, 30, 59
3, 296530, Note_on_c, 1, 30, 0
3, 296608, Note_on_c, 1, 29, 80
3, 298890, Note_on_c, 1, 40, 42
3, 298908, Note_on_c, 1, 29, 0
3, 299030, Note_on_c, 1, 40, 0
3, 299204, Note_on_c, 1, 29, 41
3, 299216, Note_on_c, 1, 31, 56
3, 299263, Note_on_c, 1, 31, 0
3, 299455, Note_on_c, 1, 29, 0
3, 299519, Note_on_c, 1, 28, 78
3, 299547, Note_on_c, 1, 29, 62
3, 299596, Note_on_c, 1, 29, 0
3, 301506, Note_on_c, 1, 28, 0
3, 301509, Note_on_c, 1, 32, 74
3, 303390, Note_on_c, 1, 32, 0
3, 303449, Note_on_c, 1, 33, 89
3, 305334, Note_on_c, 1, 35, 66
3, 305392, Note_on_c, 1, 33, 0
3, 305474, Note_on_c, 1, 35, 0
3, 305888, Note_on_c, 1, 35, 74
3, 306232, Note_on_c, 1, 35, 0
3, 306232, Note_on_c, 1, 36, 69
3, 306428, Note_on_c, 1, 36, 0
3, 306838, Note_on_c, 1, 37, 73
3, 307147, Note_on_c, 1, 37, 0
3, 307235, Note_on_c, 1, 38, 76
3, 308808, Note_on_c, 1, 50, 110
3, 309306, Note_on_c, 1, 50, 0
3, 309383, Note_on_c, 1, 50, 88
3, 309996, Note_on_c, 1, 38, 0
3, 310033, Note_on_c, 1, 50, 0
3, 310072, Note_on_c, 1, 48, 88
3, 310734, Note_on_c, 1, 48, 0
3, 310737, Note_on_c, 1, 47, 76
3, 312731, Note_on_c, 1, 40, 20
3, 312953, Note_on_c, 1, 40, 0
3, 313006, Note_on_c, 1, 41, 72
3, 314582, Note_on_c, 1, 34, 42
3, 314667, Note_on_c, 1, 41, 0
3, 314762, Note_on_c, 1, 34, 0
3, 314927, Note_on_c, 1, 35, 57
3, 317704, Note_on_c, 1, 47, 0
3, 317816, Note_on_c, 1, 29, 69
3, 317888, Note_on_c, 1, 35, 0
3, 318759, Note_on_c, 1, 29, 0
3, 318779, Note_on_c, 1, 28, 78
3, 320114, Note_on_c, 1, 31, 39
3, 320231, Note_on_c, 1, 31, 0
3, 320710, Note_on_c, 1, 31, 71
3, 320713, Note_on_c, 1, 28, 0
3, 322595, Note_on_c, 1, 31, 0
3, 322620, Note_on_c, 1, 32, 68
3, 323773, Note_on_c, 1, 32, 0
3, 323874, Note_on_c, 1, 33, 67
3, 324076, Note_on_c, 1, 33, 0
3, 324171, Note_on_c, 1, 34, 71
3, 324392, Note_on_c, 1, 34, 0
3, 324499, Note_on_c, 1, 35, 74
3, 326096, Note_on_c, 1, 34, 67
3, 326159, Note_on_c, 1, 35, 0
3, 326394, Note_on_c, 1, 34, 0
3, 326465, Note_on_c, 1, 33, 75
3, 328428, Note_on_c, 1, 33, 0
3, 328430, Note_on_c, 1, 40, 69
3, 330270, Note_on_c, 1, 40, 0
3, 330292, Note_on_c, 1, 45, 80
3, 331911, Note_on_c, 1, 40, 51
3, 332029, Note_on_c, 1, 45, 0
3, 332108, Note_on_c, 1, 40, 0
3, 332300, Note_on_c, 1, 40, 57
3, 333794, Note_on_c, 1, 39, 62
3, 333800, Note_on_c, 1, 40, 0
3, 334122, Note_on_c, 1, 39, 0
3, 334143, Note_on_c, 1, 38, 61
3, 339955, Note_on_c, 1, 32, 62
3, 339976, Note_on_c, 1, 38, 0
3, 341847, Note_on_c, 1, 32, 0
3, 341890, Note_on_c, 1, 31, 71
3, 350315, Note_on_c, 1, 31, 0
3, 350315, End_track
4, 0, Start_track
4, 0, Title_t, "Drums"
4, 0, Program_c, 9, 40
4, 0, Control_c, 9, 7, 97
4, 3877, Note_on_c, 9, 59, 52
4, 4063, Note_on_c, 9, 59, 0
4, 4828, Note_on_c, 9, 44, 38
4, 4840, Note_on_c, 9, 59, 63
4, 4946, Note_on_c, 9, 44, 0
4, 5210, Note_on_c, 9, 59, 0
4, 5792, Note_on_c, 9, 59, 56
4, 6530, Note_on_c, 9, 59, 0
4, 6723, Note_on_c, 9, 44, 64
4, 6739, Note_on_c, 9, 59, 74
4, 6860, Note_on_c, 9, 59, 0
4, 6873, Note_on_c, 9, 44, 0
4, 7442, Note_on_c, 9, 59, 59
4, 7494, Note_on_c, 9, 59, 0
4, 7559, Note_on_c, 9, 59, 68
4, 7642, Note_on_c, 9, 59, 0
4, 7727, Note_on_c, 9, 59, 80
4, 7874, Note_on_c, 9, 59, 0
4, 8113, Note_on_c, 9, 59, 63
4, 8226, Note_on_c, 9, 59, 0
4, 8643, Note_on_c, 9, 59, 51
4, 8646, Note_on_c, 9, 44, 70
4, 8808, Note_on_c, 9, 59, 0
4, 9126, Note_on_c, 9, 44, 0
4, 10574, Note_on_c, 9, 44, 60
4, 10840, Note_on_c, 9, 59, 57
4, 10893, Note_on_c, 9, 59, 0
4, 11235, Note_on_c, 9, 59, 74
4, 11314, Note_on_c, 9, 59, 0
4, 11438, Note_on_c, 9, 59, 76
4, 11534, Note_on_c, 9, 44, 0
4, 11604, Note_on_c, 9, 59, 0
4, 11959, Note_on_c, 9, 59, 60
4, 12079, Note_on_c, 9, 59, 0
4, 12443, Note_on_c, 9, 59, 53
4, 12568, Note_on_c, 9, 59, 0
4, 12869, Note_on_c, 9, 59, 37
4, 12968, Note_on_c, 9, 59, 0
4, 13315, Note_on_c, 9, 59, 43
4, 13453, Note_on_c, 9, 59, 0
4, 14308, Note_on_c, 9, 59, 47
4, 14360, Note_on_c, 9, 59, 0
4, 14505, Note_on_c, 9, 59, 29
4, 14562, Note_on_c, 9, 59, 0
4, 14677, Note_on_c, 9, 59, 44
4, 14767, Note_on_c, 9, 59, 0
4, 15961, Note_on_c, 9, 59, 50
4, 16003, Note_on_c, 9, 59, 0
4, 16098, Note_on_c, 9, 59, 68
4, 16183, Note_on_c, 9, 59, 0
4, 16241, Note_on_c, 9, 59, 66
4, 16278, Note_on_c, 9, 44, 53
4, 16370, Note_on_c, 9, 59, 0
4, 16387, Note_on_c, 9, 44, 0
4, 16549, Note_on_c, 9, 59, 44
4, 16645, Note_on_c, 9, 59, 0
4, 16781, Note_on_c, 9, 59, 47
4, 16874, Note_on_c, 9, 59, 0
4, 17037, Note_on_c, 9, 59, 49
4, 17104, Note_on_c, 9, 59, 0
4, 17166, Note_on_c, 9, 59, 57
4, 17234, Note_on_c, 9, 59, 0
4, 17299, Note_on_c, 9, 59, 64
4, 17473, Note_on_c, 9, 59, 0
4, 17992, Note_on_c, 9, 59, 53
4, 18086, Note_on_c, 9, 59, 0
4, 18213, Note_on_c, 9, 59, 52
4, 18501, Note_on_c, 9, 53, 54
4, 18532, Note_on_c, 9, 53, 0
4, 18732, Note_on_c, 9, 53, 44
4, 18834, Note_on_c, 9, 53, 0
4, 18857, Note_on_c, 9, 59, 0
4, 18990, Note_on_c, 9, 59, 62
4, 19076, Note_on_c, 9, 59, 0
4, 19215, Note_on_c, 9, 59, 60
4, 19353, Note_on_c, 9, 59, 0
4, 20171, Note_on_c, 9, 44, 50
4, 20301, Note_on_c, 9, 44, 0
4, 21132, Note_on_c, 9, 59, 40
4, 21216, Note_on_c, 9, 59, 0
4, 21845, Note_on_c, 9, 59, 34
4, 21922, Note_on_c, 9, 59, 0
4, 22075, Note_on_c, 9, 59, 28
4, 22101, Note_on_c, 9, 44, 44
4, 22174, Note_on_c, 9, 59, 0
4, 22196, Note_on_c, 9, 44, 0
4, 23045, Note_on_c, 9, 59, 52
4, 23138, Note_on_c, 9, 59, 0
4, 24014, Note_on_c, 9, 59, 42
4, 24016, Note_on_c, 9, 44, 60
4, 24425, Note_on_c, 9, 59, 0
4, 24458, Note_on_c, 9, 53, 46
4, 24638, Note_on_c, 9, 53, 0
4, 24976, Note_on_c, 9, 44, 0
4, 25777, Note_on_c, 9, 59, 44
4, 25897, Note_on_c, 9, 59, 0
4, 25989, Note_on_c, 9, 59, 43
4, 26367, Note_on_c, 9, 59, 0
4, 26466, Note_on_c, 9, 44, 37
4, 26540, Note_on_c, 9, 44, 0
4, 26723, Note_on_c, 9, 59, 32
4, 26774, Note_on_c, 9, 59, 0
4, 26918, Note_on_c, 9, 59, 64
4, 27117, Note_on_c, 9, 59, 0
4, 27341, Note_on_c, 9, 44, 34
4, 27364, Note_on_c, 9, 59, 47
4, 27438, Note_on_c, 9, 44, 0
4, 27512, Note_on_c, 9, 59, 0
4, 27815, Note_on_c, 9, 59, 49
4, 27965, Note_on_c, 9, 59, 0
4, 29478, Note_on_c, 9, 59, 32
4, 29518, Note_on_c, 9, 59, 0
4, 29607, Note_on_c, 9, 59, 68
4, 29688, Note_on_c, 9, 59, 0
4, 29737, Note_on_c, 9, 59, 74
4, 29766, Note_on_c, 9, 44, 60
4, 29911, Note_on_c, 9, 59, 0
4, 30366, Note_on_c, 9, 59, 58
4, 30424, Note_on_c, 9, 59, 0
4, 30482, Note_on_c, 9, 59, 58
4, 30578, Note_on_c, 9, 59, 0
4, 30646, Note_on_c, 9, 59, 53
4, 30726, Note_on_c, 9, 44, 0
4, 30774, Note_on_c, 9, 59, 0
4, 31116, Note_on_c, 9, 44, 43
4, 31187, Note_on_c, 9, 44, 0
4, 32250, Note_on_c, 9, 59, 51
4, 32310, Note_on_c, 9, 59, 0
4, 32437, Note_on_c, 9, 59, 53
4, 32613, Note_on_c, 9, 59, 0
4, 33642, Note_on_c, 9, 46, 34
4, 33792, Note_on_c, 9, 46, 0
4, 34362, Note_on_c, 9, 53, 57
4, 34391, Note_on_c, 9, 53, 0
4, 34592, Note_on_c, 9, 59, 53
4, 34768, Note_on_c, 9, 59, 0
4, 35148, Note_on_c, 9, 59, 38
4, 35271, Note_on_c, 9, 59, 0
4, 35542, Note_on_c, 9, 59, 43
4, 35549, Note_on_c, 9, 44, 39
4, 35639, Note_on_c, 9, 44, 0
4, 35819, Note_on_c, 9, 59, 0
4, 36462, Note_on_c, 9, 59, 48
4, 36567, Note_on_c, 9, 59, 0
4, 36635, Note_on_c, 9, 59, 64
4, 36796, Note_on_c, 9, 59, 0
4, 36883, Note_on_c, 9, 59, 44
4, 36976, Note_on_c, 9, 59, 0
4, 37462, Note_on_c, 9, 44, 43
4, 37488, Note_on_c, 9, 59, 33
4, 37574, Note_on_c, 9, 44, 0
4, 37887, Note_on_c, 9, 59, 0
4, 38161, Note_on_c, 9, 59, 34
4, 38201, Note_on_c, 9, 59, 0
4, 38278, Note_on_c, 9, 59, 57
4, 38363, Note_on_c, 9, 59, 0
4, 38436, Note_on_c, 9, 59, 76
4, 38684, Note_on_c, 9, 59, 0
4, 38908, Note_on_c, 9, 59, 46
4, 39108, Note_on_c, 9, 59, 0
4, 39384, Note_on_c, 9, 44, 44
4, 39385, Note_on_c, 9, 59, 38
4, 39451, Note_on_c, 9, 44, 0
4, 39810, Note_on_c, 9, 59, 0
4, 40865, Note_on_c, 9, 59, 43
4, 40957, Note_on_c, 9, 59, 0
4, 41313, Note_on_c, 9, 59, 32
4, 41463, Note_on_c, 9, 59, 0
4, 42037, Note_on_c, 9, 59, 80
4, 42173, Note_on_c, 9, 59, 0
4, 42261, Note_on_c, 9, 59, 83
4, 42466, Note_on_c, 9, 59, 0
4, 43204, Note_on_c, 9, 44, 52
4, 43273, Note_on_c, 9, 44, 0
4, 43860, Note_on_c, 9, 59, 62
4, 43922, Note_on_c, 9, 59, 0
4, 43993, Note_on_c, 9, 59, 63
4, 44110, Note_on_c, 9, 59, 0
4, 44178, Note_on_c, 9, 59, 68
4, 44367, Note_on_c, 9, 59, 0
4, 45736, Note_on_c, 9, 59, 54
4, 45801, Note_on_c, 9, 59, 0
4, 45877, Note_on_c, 9, 59, 58
4, 45961, Note_on_c, 9, 59, 0
4, 46051, Note_on_c, 9, 59, 74
4, 46216, Note_on_c, 9, 59, 0
4, 46559, Note_on_c, 9, 44, 27
4, 46672, Note_on_c, 9, 44, 0
4, 46833, Note_on_c, 9, 59, 47
4, 46909, Note_on_c, 9, 59, 0
4, 47041, Note_on_c, 9, 59, 44
4, 47192, Note_on_c, 9, 59, 0
4, 48865, Note_on_c, 9, 44, 60
4, 49683, Note_on_c, 9, 59, 45
4, 49744, Note_on_c, 9, 59, 0
4, 49813, Note_on_c, 9, 59, 60
4, 49825, Note_on_c, 9, 44, 0
4, 49939, Note_on_c, 9, 59, 0
4, 49989, Note_on_c, 9, 59, 66
4, 50110, Note_on_c, 9, 59, 0
4, 50404, Note_on_c, 9, 44, 37
4, 50421, Note_on_c, 9, 59, 44
4, 50551, Note_on_c, 9, 44, 0
4, 50586, Note_on_c, 9, 59, 0
4, 50844, Note_on_c, 9, 44, 31
4, 50895, Note_on_c, 9, 59, 50
4, 51004, Note_on_c, 9, 44, 0
4, 51130, Note_on_c, 9, 59, 0
4, 51318, Note_on_c, 9, 59, 53
4, 51325, Note_on_c, 9, 46, 38
4, 51614, Note_on_c, 9, 59, 0
4, 51826, Note_on_c, 9, 46, 0
4, 53591, Note_on_c, 9, 59, 34
4, 53665, Note_on_c, 9, 59, 0
4, 53814, Note_on_c, 9, 59, 31
4, 53946, Note_on_c, 9, 59, 0
4, 54242, Note_on_c, 9, 59, 38
4, 54405, Note_on_c, 9, 59, 0
4, 54720, Note_on_c, 9, 44, 44
4, 54845, Note_on_c, 9, 44, 0
4, 55474, Note_on_c, 9, 59, 40
4, 55555, Note_on_c, 9, 59, 0
4, 55681, Note_on_c, 9, 59, 48
4, 55888, Note_on_c, 9, 59, 0
4, 56134, Note_on_c, 9, 59, 54
4, 56429, Note_on_c, 9, 59, 0
4, 57602, Note_on_c, 9, 59, 48
4, 57699, Note_on_c, 9, 59, 0
4, 58069, Note_on_c, 9, 59, 49
4, 58314, Note_on_c, 9, 59, 0
4, 58561, Note_on_c, 9, 44, 34
4, 58579, Note_on_c, 9, 59, 37
4, 58689, Note_on_c, 9, 44, 0
4, 58844, Note_on_c, 9, 59, 0
4, 59284, Note_on_c, 9, 59, 42
4, 59344, Note_on_c, 9, 59, 0
4, 59411, Note_on_c, 9, 59, 62
4, 59540, Note_on_c, 9, 59, 0
4, 59621, Note_on_c, 9, 59, 68
4, 59806, Note_on_c, 9, 59, 0
4, 60537, Note_on_c, 9, 59, 47
4, 60673, Note_on_c, 9, 59, 0
4, 61465, Note_on_c, 9, 59, 58
4, 61593, Note_on_c, 9, 59, 0
4, 62239, Note_on_c, 9, 59, 39
4, 62330, Note_on_c, 9, 59, 0
4, 62416, Note_on_c, 9, 53, 41
4, 62559, Note_on_c, 9, 53, 0
4, 63146, Note_on_c, 9, 59, 47
4, 63220, Note_on_c, 9, 59, 0
4, 63362, Note_on_c, 9, 53, 64
4, 63456, Note_on_c, 9, 53, 0
4, 64332, Note_on_c, 9, 46, 30
4, 65000, Note_on_c, 9, 46, 0
4, 65280, Note_on_c, 9, 59, 44
4, 65354, Note_on_c, 9, 59, 0
4, 66240, Note_on_c, 9, 44, 33
4, 66345, Note_on_c, 9, 44, 0
4, 66952, Note_on_c, 9, 59, 50
4, 67101, Note_on_c, 9, 59, 0
4, 67196, Note_on_c, 9, 59, 36
4, 67382, Note_on_c, 9, 59, 0
4, 68192, Note_on_c, 9, 44, 48
4, 68195, Note_on_c, 9, 59, 50
4, 68317, Note_on_c, 9, 59, 0
4, 68890, Note_on_c, 9, 59, 58
4, 69014, Note_on_c, 9, 59, 0
4, 69109, Note_on_c, 9, 44, 0
4, 69115, Note_on_c, 9, 59, 42
4, 69302, Note_on_c, 9, 59, 0
4, 69423, Note_on_c, 9, 59, 44
4, 69539, Note_on_c, 9, 59, 0
4, 69665, Note_on_c, 9, 59, 41
4, 69858, Note_on_c, 9, 59, 0
4, 70073, Note_on_c, 9, 59, 41
4, 70112, Note_on_c, 9, 44, 33
4, 70299, Note_on_c, 9, 44, 0
4, 70329, Note_on_c, 9, 59, 0
4, 70501, Note_on_c, 9, 59, 45
4, 70738, Note_on_c, 9, 53, 45
4, 70804, Note_on_c, 9, 59, 0
4, 70922, Note_on_c, 9, 53, 0
4, 70993, Note_on_c, 9, 59, 26
4, 71173, Note_on_c, 9, 59, 0
4, 71451, Note_on_c, 9, 46, 29
4, 71466, Note_on_c, 9, 59, 41
4, 71516, Note_on_c, 9, 46, 0
4, 72206, Note_on_c, 9, 59, 0
4, 72218, Note_on_c, 9, 53, 32
4, 72443, Note_on_c, 9, 53, 0
4, 72474, Note_on_c, 9, 59, 52
4, 72808, Note_on_c, 9, 59, 0
4, 72942, Note_on_c, 9, 59, 84
4, 73520, Note_on_c, 9, 59, 0
4, 73814, Note_on_c, 9, 59, 47
4, 73923, Note_on_c, 9, 59, 0
4, 74028, Note_on_c, 9, 59, 51
4, 74631, Note_on_c, 9, 59, 0
4, 74748, Note_on_c, 9, 53, 34
4, 74918, Note_on_c, 9, 53, 0
4, 74957, Note_on_c, 9, 59, 60
4, 75154, Note_on_c, 9, 59, 0
4, 75304, Note_on_c, 9, 59, 58
4, 75570, Note_on_c, 9, 59, 0
4, 75780, Note_on_c, 9, 59, 47
4, 75798, Note_on_c, 9, 44, 34
4, 76022, Note_on_c, 9, 44, 0
4, 76613, Note_on_c, 9, 59, 0
4, 76789, Note_on_c, 9, 59, 72
4, 76941, Note_on_c, 9, 59, 0
4, 77241, Note_on_c, 9, 59, 62
4, 77522, Note_on_c, 9, 59, 0
4, 77723, Note_on_c, 9, 59, 50
4, 77984, Note_on_c, 9, 53, 43
4, 77989, Note_on_c, 9, 59, 0
4, 78151, Note_on_c, 9, 53, 0
4, 78222, Note_on_c, 9, 59, 30
4, 78351, Note_on_c, 9, 59, 0
4, 78448, Note_on_c, 9, 59, 53
4, 78579, Note_on_c, 9, 59, 0
4, 78706, Note_on_c, 9, 59, 55
4, 79333, Note_on_c, 9, 59, 0
4, 79678, Note_on_c, 9, 59, 50
4, 79680, Note_on_c, 9, 44, 39
4, 79779, Note_on_c, 9, 59, 0
4, 79885, Note_on_c, 9, 59, 45
4, 79945, Note_on_c, 9, 44, 0
4, 79990, Note_on_c, 9, 59, 0
4, 80562, Note_on_c, 9, 59, 58
4, 80664, Note_on_c, 9, 59, 0
4, 80762, Note_on_c, 9, 59, 66
4, 80920, Note_on_c, 9, 59, 0
4, 81762, Note_on_c, 9, 59, 38
4, 81844, Note_on_c, 9, 59, 0
4, 82485, Note_on_c, 9, 59, 53
4, 82553, Note_on_c, 9, 59, 0
4, 82639, Note_on_c, 9, 59, 48
4, 82826, Note_on_c, 9, 59, 0
4, 83513, Note_on_c, 9, 59, 54
4, 83738, Note_on_c, 9, 59, 0
4, 83935, Note_on_c, 9, 44, 45
4, 84050, Note_on_c, 9, 44, 0
4, 84436, Note_on_c, 9, 59, 41
4, 84517, Note_on_c, 9, 59, 0
4, 84910, Note_on_c, 9, 59, 30
4, 85109, Note_on_c, 9, 59, 0
4, 85698, Note_on_c, 9, 53, 50
4, 85792, Note_on_c, 9, 53, 0
4, 85902, Note_on_c, 9, 59, 45
4, 85996, Note_on_c, 9, 59, 0
4, 86380, Note_on_c, 9, 59, 45
4, 86518, Note_on_c, 9, 59, 0
4, 87360, Note_on_c, 9, 44, 49
4, 87367, Note_on_c, 9, 59, 40
4, 87442, Note_on_c, 9, 59, 0
4, 87635, Note_on_c, 9, 44, 0
4, 88142, Note_on_c, 9, 59, 44
4, 88229, Note_on_c, 9, 59, 0
4, 88321, Note_on_c, 9, 59, 44
4, 88410, Note_on_c, 9, 59, 0
4, 89193, Note_on_c, 9, 59, 42
4, 89219, Note_on_c, 9, 44, 48
4, 89270, Note_on_c, 9, 59, 0
4, 89409, Note_on_c, 9, 44, 0
4, 89985, Note_on_c, 9, 59, 50
4, 90094, Note_on_c, 9, 59, 0
4, 90189, Note_on_c, 9, 59, 54
4, 90335, Note_on_c, 9, 59, 0
4, 91148, Note_on_c, 9, 59, 37
4, 91225, Note_on_c, 9, 59, 0
4, 91917, Note_on_c, 9, 59, 56
4, 92035, Note_on_c, 9, 59, 0
4, 92164, Note_on_c, 9, 59, 48
4, 92281, Note_on_c, 9, 59, 0
4, 92935, Note_on_c, 9, 59, 44
4, 93032, Note_on_c, 9, 59, 0
4, 93108, Note_on_c, 9, 44, 51
4, 93117, Note_on_c, 9, 59, 48
4, 93261, Note_on_c, 9, 59, 0
4, 93261, Note_on_c, 9, 44, 0
4, 93880, Note_on_c, 9, 59, 41
4, 93975, Note_on_c, 9, 59, 0
4, 94068, Note_on_c, 9, 59, 64
4, 94254, Note_on_c, 9, 59, 0
4, 94544, Note_on_c, 9, 59, 61
4, 94752, Note_on_c, 9, 59, 0
4, 95027, Note_on_c, 9, 46, 55
4, 95657, Note_on_c, 9, 46, 0
4, 95796, Note_on_c, 9, 59, 47
4, 95882, Note_on_c, 9, 59, 0
4, 95999, Note_on_c, 9, 59, 49
4, 96275, Note_on_c, 9, 59, 0
4, 96310, Note_on_c, 9, 53, 34
4, 96383, Note_on_c, 9, 53, 0
4, 96526, Note_on_c, 9, 59, 36
4, 96619, Note_on_c, 9, 59, 0
4, 96742, Note_on_c, 9, 59, 37
4, 96847, Note_on_c, 9, 59, 0
4, 96956, Note_on_c, 9, 44, 45
4, 96969, Note_on_c, 9, 59, 38
4, 97081, Note_on_c, 9, 59, 0
4, 97130, Note_on_c, 9, 44, 0
4, 97434, Note_on_c, 9, 59, 29
4, 97601, Note_on_c, 9, 59, 0
4, 98379, Note_on_c, 9, 59, 27
4, 98549, Note_on_c, 9, 59, 0
4, 98814, Note_on_c, 9, 59, 39
4, 98945, Note_on_c, 9, 59, 0
4, 99039, Note_on_c, 9, 59, 43
4, 99142, Note_on_c, 9, 59, 0
4, 99275, Note_on_c, 9, 59, 44
4, 99353, Note_on_c, 9, 59, 0
4, 99515, Note_on_c, 9, 59, 47
4, 99608, Note_on_c, 9, 59, 0
4, 99757, Note_on_c, 9, 59, 44
4, 99973, Note_on_c, 9, 59, 0
4, 100016, Note_on_c, 9, 53, 36
4, 100188, Note_on_c, 9, 53, 0
4, 100257, Note_on_c, 9, 59, 46
4, 100489, Note_on_c, 9, 59, 0
4, 100792, Note_on_c, 9, 59, 44
4, 100800, Note_on_c, 9, 44, 47
4, 100953, Note_on_c, 9, 44, 0
4, 101442, Note_on_c, 9, 59, 0
4, 101508, Note_on_c, 9, 59, 44
4, 101641, Note_on_c, 9, 59, 0
4, 101734, Note_on_c, 9, 59, 42
4, 102005, Note_on_c, 9, 59, 0
4, 102221, Note_on_c, 9, 59, 49
4, 102737, Note_on_c, 9, 59, 0
4, 103061, Note_on_c, 9, 59, 52
4, 103240, Note_on_c, 9, 59, 0
4, 103409, Note_on_c, 9, 59, 36
4, 103442, Note_on_c, 9, 59, 0
4, 103540, Note_on_c, 9, 59, 65
4, 103622, Note_on_c, 9, 59, 0
4, 103679, Note_on_c, 9, 59, 68
4, 103830, Note_on_c, 9, 59, 0
4, 104157, Note_on_c, 9, 53, 50
4, 104264, Note_on_c, 9, 53, 0
4, 104423, Note_on_c, 9, 59, 46
4, 104531, Note_on_c, 9, 59, 0
4, 104638, Note_on_c, 9, 44, 49
4, 104645, Note_on_c, 9, 59, 51
4, 104817, Note_on_c, 9, 44, 0
4, 104876, Note_on_c, 9, 59, 0
4, 105139, Note_on_c, 9, 53, 40
4, 105251, Note_on_c, 9, 53, 0
4, 105603, Note_on_c, 9, 59, 57
4, 105845, Note_on_c, 9, 59, 0
4, 106549, Note_on_c, 9, 59, 45
4, 106599, Note_on_c, 9, 44, 46
4, 106678, Note_on_c, 9, 59, 0
4, 106764, Note_on_c, 9, 44, 0
4, 107516, Note_on_c, 9, 57, 30
4, 107527, Note_on_c, 9, 59, 25
4, 107599, Note_on_c, 9, 57, 0
4, 107612, Note_on_c, 9, 59, 0
4, 108018, Note_on_c, 9, 59, 37
4, 108163, Note_on_c, 9, 59, 0
4, 108505, Note_on_c, 9, 59, 34
4, 108630, Note_on_c, 9, 59, 0
4, 109257, Note_on_c, 9, 59, 46
4, 109347, Note_on_c, 9, 59, 0
4, 109447, Note_on_c, 9, 59, 55
4, 109691, Note_on_c, 9, 59, 0
4, 109876, Note_on_c, 9, 59, 51
4, 109930, Note_on_c, 9, 44, 44
4, 110158, Note_on_c, 9, 59, 0
4, 110680, Note_on_c, 9, 59, 41
4, 110812, Note_on_c, 9, 59, 0
4, 111019, Note_on_c, 9, 59, 55
4, 111025, Note_on_c, 9, 44, 0
4, 111080, Note_on_c, 9, 59, 0
4, 111146, Note_on_c, 9, 59, 54
4, 111238, Note_on_c, 9, 59, 0
4, 111303, Note_on_c, 9, 59, 67
4, 111602, Note_on_c, 9, 59, 0
4, 111834, Note_on_c, 9, 59, 49
4, 112025, Note_on_c, 9, 59, 0
4, 112318, Note_on_c, 9, 59, 47
4, 112329, Note_on_c, 9, 44, 47
4, 112579, Note_on_c, 9, 59, 0
4, 112583, Note_on_c, 9, 44, 0
4, 113006, Note_on_c, 9, 53, 38
4, 113127, Note_on_c, 9, 53, 0
4, 113230, Note_on_c, 9, 59, 47
4, 113418, Note_on_c, 9, 59, 0
4, 113724, Note_on_c, 9, 59, 42
4, 113831, Note_on_c, 9, 59, 0
4, 114259, Note_on_c, 9, 44, 38
4, 114466, Note_on_c, 9, 44, 0
4, 115194, Note_on_c, 9, 59, 54
4, 115339, Note_on_c, 9, 59, 0
4, 115529, Note_on_c, 9, 59, 56
4, 115607, Note_on_c, 9, 59, 0
4, 115939, Note_on_c, 9, 59, 44
4, 116012, Note_on_c, 9, 59, 0
4, 116178, Note_on_c, 9, 59, 42
4, 116186, Note_on_c, 9, 44, 35
4, 116298, Note_on_c, 9, 59, 0
4, 116399, Note_on_c, 9, 44, 0
4, 116850, Note_on_c, 9, 59, 50
4, 116938, Note_on_c, 9, 59, 0
4, 117106, Note_on_c, 9, 59, 61
4, 117232, Note_on_c, 9, 59, 0
4, 117489, Note_on_c, 9, 59, 47
4, 117603, Note_on_c, 9, 59, 0
4, 118029, Note_on_c, 9, 59, 32
4, 118122, Note_on_c, 9, 59, 0
4, 118800, Note_on_c, 9, 53, 42
4, 118901, Note_on_c, 9, 53, 0
4, 119009, Note_on_c, 9, 59, 36
4, 119112, Note_on_c, 9, 59, 0
4, 119472, Note_on_c, 9, 59, 32
4, 119580, Note_on_c, 9, 59, 0
4, 119940, Note_on_c, 9, 59, 34
4, 120428, Note_on_c, 9, 51, 34
4, 120462, Note_on_c, 9, 44, 55
4, 120549, Note_on_c, 9, 51, 0
4, 120573, Note_on_c, 9, 44, 0
4, 120619, Note_on_c, 9, 59, 0
4, 120969, Note_on_c, 9, 59, 25
4, 121043, Note_on_c, 9, 59, 0
4, 121432, Note_on_c, 9, 59, 32
4, 121440, Note_on_c, 9, 44, 50
4, 121557, Note_on_c, 9, 44, 0
4, 121669, Note_on_c, 9, 59, 0
4, 122403, Note_on_c, 9, 44, 58
4, 122405, Note_on_c, 9, 59, 36
4, 122501, Note_on_c, 9, 59, 0
4, 122516, Note_on_c, 9, 44, 0
4, 122722, Note_on_c, 9, 59, 59
4, 122823, Note_on_c, 9, 59, 0
4, 122937, Note_on_c, 9, 59, 38
4, 123036, Note_on_c, 9, 59, 0
4, 123353, Note_on_c, 9, 44, 52
4, 123381, Note_on_c, 9, 59, 41
4, 123447, Note_on_c, 9, 44, 0
4, 123473, Note_on_c, 9, 59, 0
4, 123691, Note_on_c, 9, 59, 34
4, 123764, Note_on_c, 9, 59, 0
4, 123848, Note_on_c, 9, 59, 37
4, 123995, Note_on_c, 9, 59, 0
4, 124128, Note_on_c, 9, 38, 48
4, 124173, Note_on_c, 9, 38, 0
4, 124300, Note_on_c, 9, 44, 52
4, 124307, Note_on_c, 9, 59, 70
4, 124381, Note_on_c, 9, 44, 0
4, 124435, Note_on_c, 9, 59, 0
4, 124620, Note_on_c, 9, 59, 64
4, 124715, Note_on_c, 9, 59, 0
4, 124785, Note_on_c, 9, 59, 54
4, 125073, Note_on_c, 9, 51, 55
4, 125129, Note_on_c, 9, 59, 0
4, 125190, Note_on_c, 9, 51, 0
4, 125238, Note_on_c, 9, 44, 46
4, 125253, Note_on_c, 9, 59, 37
4, 125322, Note_on_c, 9, 44, 0
4, 125433, Note_on_c, 9, 59, 0
4, 125745, Note_on_c, 9, 59, 54
4, 126033, Note_on_c, 9, 59, 0
4, 126045, Note_on_c, 9, 38, 54
4, 126119, Note_on_c, 9, 38, 0
4, 126238, Note_on_c, 9, 59, 65
4, 126242, Note_on_c, 9, 46, 51
4, 126278, Note_on_c, 9, 46, 0
4, 126361, Note_on_c, 9, 59, 0
4, 126396, Note_on_c, 9, 38, 51
4, 126487, Note_on_c, 9, 38, 0
4, 126551, Note_on_c, 9, 36, 61
4, 126578, Note_on_c, 9, 59, 64
4, 126612, Note_on_c, 9, 36, 0
4, 126650, Note_on_c, 9, 59, 0
4, 126728, Note_on_c, 9, 59, 55
4, 126788, Note_on_c, 9, 59, 0
4, 126791, Note_on_c, 9, 59, 79
4, 126970, Note_on_c, 9, 59, 0
4, 127683, Note_on_c, 9, 59, 88
4, 127704, Note_on_c, 9, 44, 46
4, 127842, Note_on_c, 9, 44, 0
4, 127953, Note_on_c, 9, 59, 0
4, 128353, Note_on_c, 9, 59, 60
4, 128443, Note_on_c, 9, 59, 0
4, 128572, Note_on_c, 9, 59, 62
4, 129208, Note_on_c, 9, 59, 0
4, 129537, Note_on_c, 9, 59, 81
4, 129590, Note_on_c, 9, 44, 57
4, 130035, Note_on_c, 9, 59, 0
4, 130110, Note_on_c, 9, 44, 0
4, 130267, Note_on_c, 9, 59, 56
4, 130346, Note_on_c, 9, 59, 0
4, 130494, Note_on_c, 9, 59, 64
4, 131195, Note_on_c, 9, 59, 0
4, 131460, Note_on_c, 9, 59, 80
4, 131478, Note_on_c, 9, 44, 61
4, 131668, Note_on_c, 9, 44, 0
4, 132113, Note_on_c, 9, 59, 0
4, 132433, Note_on_c, 9, 59, 68
4, 132810, Note_on_c, 9, 59, 0
4, 133111, Note_on_c, 9, 59, 52
4, 133236, Note_on_c, 9, 59, 0
4, 133356, Note_on_c, 9, 46, 47
4, 133362, Note_on_c, 9, 59, 75
4, 133630, Note_on_c, 9, 46, 0
4, 133946, Note_on_c, 9, 59, 0
4, 133999, Note_on_c, 9, 53, 68
4, 134213, Note_on_c, 9, 53, 0
4, 134302, Note_on_c, 9, 59, 58
4, 135058, Note_on_c, 9, 59, 0
4, 135308, Note_on_c, 9, 44, 77
4, 135330, Note_on_c, 9, 59, 80
4, 135574, Note_on_c, 9, 44, 0
4, 135978, Note_on_c, 9, 59, 0
4, 136310, Note_on_c, 9, 59, 79
4, 136964, Note_on_c, 9, 59, 0
4, 137243, Note_on_c, 9, 59, 70
4, 137266, Note_on_c, 9, 44, 63
4, 137609, Note_on_c, 9, 44, 0
4, 137717, Note_on_c, 9, 59, 0
4, 137921, Note_on_c, 9, 59, 62
4, 138036, Note_on_c, 9, 59, 0
4, 138150, Note_on_c, 9, 59, 68
4, 138838, Note_on_c, 9, 59, 0
4, 139124, Note_on_c, 9, 44, 44
4, 139134, Note_on_c, 9, 59, 90
4, 139392, Note_on_c, 9, 44, 0
4, 139588, Note_on_c, 9, 59, 0
4, 140061, Note_on_c, 9, 59, 77
4, 140452, Note_on_c, 9, 59, 0
4, 140746, Note_on_c, 9, 59, 51
4, 140914, Note_on_c, 9, 59, 0
4, 141006, Note_on_c, 9, 59, 77
4, 141699, Note_on_c, 9, 59, 0
4, 142007, Note_on_c, 9, 59, 82
4, 142641, Note_on_c, 9, 59, 0
4, 142990, Note_on_c, 9, 59, 83
4, 143040, Note_on_c, 9, 44, 76
4, 143352, Note_on_c, 9, 44, 0
4, 143464, Note_on_c, 9, 59, 0
4, 143700, Note_on_c, 9, 59, 51
4, 143817, Note_on_c, 9, 59, 0
4, 143950, Note_on_c, 9, 59, 71
4, 144563, Note_on_c, 9, 59, 0
4, 144960, Note_on_c, 9, 59, 82
4, 145453, Note_on_c, 9, 59, 0
4, 145654, Note_on_c, 9, 59, 49
4, 145725, Note_on_c, 9, 59, 0
4, 145904, Note_on_c, 9, 59, 76
4, 146418, Note_on_c, 9, 59, 0
4, 146831, Note_on_c, 9, 59, 87
4, 146843, Note_on_c, 9, 44, 52
4, 147121, Note_on_c, 9, 44, 0
4, 147424, Note_on_c, 9, 59, 0
4, 147853, Note_on_c, 9, 59, 81
4, 148335, Note_on_c, 9, 59, 0
4, 148529, Note_on_c, 9, 59, 47
4, 148589, Note_on_c, 9, 59, 0
4, 148778, Note_on_c, 9, 59, 82
4, 148801, Note_on_c, 9, 44, 52
4, 149079, Note_on_c, 9, 44, 0
4, 149413, Note_on_c, 9, 59, 0
4, 149740, Note_on_c, 9, 59, 83
4, 150276, Note_on_c, 9, 59, 0
4, 150586, Note_on_c, 9, 44, 48
4, 150709, Note_on_c, 9, 59, 82
4, 150925, Note_on_c, 9, 44, 0
4, 151264, Note_on_c, 9, 59, 0
4, 151386, Note_on_c, 9, 59, 49
4, 151492, Note_on_c, 9, 59, 0
4, 151621, Note_on_c, 9, 59, 70
4, 152222, Note_on_c, 9, 59, 0
4, 152583, Note_on_c, 9, 59, 92
4, 153115, Note_on_c, 9, 59, 0
4, 153286, Note_on_c, 9, 59, 75
4, 153953, Note_on_c, 9, 59, 0
4, 154083, Note_on_c, 9, 59, 28
4, 154209, Note_on_c, 9, 59, 0
4, 154326, Note_on_c, 9, 59, 74
4, 154447, Note_on_c, 9, 44, 46
4, 154483, Note_on_c, 9, 59, 0
4, 154607, Note_on_c, 9, 59, 83
4, 154800, Note_on_c, 9, 44, 0
4, 155367, Note_on_c, 9, 59, 0
4, 155545, Note_on_c, 9, 59, 84
4, 156079, Note_on_c, 9, 59, 0
4, 156460, Note_on_c, 9, 44, 60
4, 156478, Note_on_c, 9, 59, 85
4, 156769, Note_on_c, 9, 44, 0
4, 156956, Note_on_c, 9, 59, 0
4, 157178, Note_on_c, 9, 59, 51
4, 157244, Note_on_c, 9, 59, 0
4, 157409, Note_on_c, 9, 59, 81
4, 158131, Note_on_c, 9, 59, 0
4, 158366, Note_on_c, 9, 59, 74
4, 159033, Note_on_c, 9, 59, 0
4, 159350, Note_on_c, 9, 59, 71
4, 159967, Note_on_c, 9, 59, 0
4, 159983, Note_on_c, 9, 53, 60
4, 160168, Note_on_c, 9, 53, 0
4, 160345, Note_on_c, 9, 59, 35
4, 160823, Note_on_c, 9, 59, 0
4, 160959, Note_on_c, 9, 59, 79
4, 161191, Note_on_c, 9, 59, 0
4, 161303, Note_on_c, 9, 59, 71
4, 161912, Note_on_c, 9, 44, 38
4, 162077, Note_on_c, 9, 59, 0
4, 162151, Note_on_c, 9, 44, 0
4, 162235, Note_on_c, 9, 44, 23
4, 162266, Note_on_c, 9, 59, 80
4, 162565, Note_on_c, 9, 44, 0
4, 162970, Note_on_c, 9, 59, 0
4, 163185, Note_on_c, 9, 59, 76
4, 163699, Note_on_c, 9, 59, 0
4, 163870, Note_on_c, 9, 59, 36
4, 163935, Note_on_c, 9, 59, 0
4, 164099, Note_on_c, 9, 46, 40
4, 164131, Note_on_c, 9, 59, 81
4, 164443, Note_on_c, 9, 46, 0
4, 164820, Note_on_c, 9, 59, 0
4, 165070, Note_on_c, 9, 59, 83
4, 165815, Note_on_c, 9, 59, 0
4, 166042, Note_on_c, 9, 59, 83
4, 166086, Note_on_c, 9, 44, 48
4, 166378, Note_on_c, 9, 44, 0
4, 166598, Note_on_c, 9, 59, 0
4, 166761, Note_on_c, 9, 59, 54
4, 166883, Note_on_c, 9, 59, 0
4, 166993, Note_on_c, 9, 59, 71
4, 167748, Note_on_c, 9, 59, 0
4, 168004, Note_on_c, 9, 59, 84
4, 168612, Note_on_c, 9, 59, 0
4, 168721, Note_on_c, 9, 59, 58
4, 168783, Note_on_c, 9, 59, 0
4, 168933, Note_on_c, 9, 59, 82
4, 169606, Note_on_c, 9, 59, 0
4, 169904, Note_on_c, 9, 59, 87
4, 170456, Note_on_c, 9, 44, 37
4, 170618, Note_on_c, 9, 59, 0
4, 170662, Note_on_c, 9, 44, 0
4, 170895, Note_on_c, 9, 59, 81
4, 171450, Note_on_c, 9, 59, 0
4, 171598, Note_on_c, 9, 59, 32
4, 171693, Note_on_c, 9, 59, 0
4, 171859, Note_on_c, 9, 59, 91
4, 172621, Note_on_c, 9, 59, 0
4, 172683, Note_on_c, 9, 59, 78
4, 173328, Note_on_c, 9, 59, 0
4, 173767, Note_on_c, 9, 59, 74
4, 173782, Note_on_c, 9, 44, 37
4, 174091, Note_on_c, 9, 44, 0
4, 174259, Note_on_c, 9, 59, 0
4, 174482, Note_on_c, 9, 59, 46
4, 174552, Note_on_c, 9, 59, 0
4, 174718, Note_on_c, 9, 59, 65
4, 175350, Note_on_c, 9, 53, 66
4, 175353, Note_on_c, 9, 59, 0
4, 175561, Note_on_c, 9, 53, 0
4, 175667, Note_on_c, 9, 44, 46
4, 175689, Note_on_c, 9, 59, 39
4, 175885, Note_on_c, 9, 44, 0
4, 176140, Note_on_c, 9, 59, 0
4, 176281, Note_on_c, 9, 44, 56
4, 176323, Note_on_c, 9, 59, 77
4, 176530, Note_on_c, 9, 44, 0
4, 176549, Note_on_c, 9, 59, 0
4, 176656, Note_on_c, 9, 59, 64
4, 176870, Note_on_c, 9, 44, 36
4, 177145, Note_on_c, 9, 44, 0
4, 177304, Note_on_c, 9, 59, 0
4, 177542, Note_on_c, 9, 44, 40
4, 177633, Note_on_c, 9, 59, 82
4, 177829, Note_on_c, 9, 44, 0
4, 178235, Note_on_c, 9, 44, 37
4, 178248, Note_on_c, 9, 59, 0
4, 178491, Note_on_c, 9, 44, 0
4, 178570, Note_on_c, 9, 59, 85
4, 178781, Note_on_c, 9, 46, 37
4, 179035, Note_on_c, 9, 59, 0
4, 179042, Note_on_c, 9, 46, 0
4, 179251, Note_on_c, 9, 59, 48
4, 179316, Note_on_c, 9, 59, 0
4, 179505, Note_on_c, 9, 46, 39
4, 179544, Note_on_c, 9, 59, 71
4, 179876, Note_on_c, 9, 46, 0
4, 180034, Note_on_c, 9, 59, 0
4, 180126, Note_on_c, 9, 53, 46
4, 180297, Note_on_c, 9, 53, 0
4, 180519, Note_on_c, 9, 59, 38
4, 180842, Note_on_c, 9, 59, 0
4, 181113, Note_on_c, 9, 59, 65
4, 181305, Note_on_c, 9, 59, 0
4, 181475, Note_on_c, 9, 59, 62
4, 181901, Note_on_c, 9, 59, 0
4, 182085, Note_on_c, 9, 53, 74
4, 182233, Note_on_c, 9, 53, 0
4, 182482, Note_on_c, 9, 59, 43
4, 182806, Note_on_c, 9, 59, 0
4, 183042, Note_on_c, 9, 59, 61
4, 183209, Note_on_c, 9, 59, 0
4, 183383, Note_on_c, 9, 44, 46
4, 183399, Note_on_c, 9, 59, 68
4, 183680, Note_on_c, 9, 44, 0
4, 183847, Note_on_c, 9, 59, 0
4, 184022, Note_on_c, 9, 53, 49
4, 184085, Note_on_c, 9, 53, 0
4, 184400, Note_on_c, 9, 59, 49
4, 184702, Note_on_c, 9, 59, 0
4, 184982, Note_on_c, 9, 59, 55
4, 185135, Note_on_c, 9, 59, 0
4, 185287, Note_on_c, 9, 44, 46
4, 185335, Note_on_c, 9, 59, 61
4, 185465, Note_on_c, 9, 59, 0
4, 185590, Note_on_c, 9, 44, 0
4, 185902, Note_on_c, 9, 59, 95
4, 186759, Note_on_c, 9, 59, 0
4, 187196, Note_on_c, 9, 44, 57
4, 187206, Note_on_c, 9, 59, 91
4, 187481, Note_on_c, 9, 44, 0
4, 187733, Note_on_c, 9, 59, 0
4, 187877, Note_on_c, 9, 59, 60
4, 187960, Note_on_c, 9, 59, 0
4, 188179, Note_on_c, 9, 59, 94
4, 188863, Note_on_c, 9, 59, 0
4, 189126, Note_on_c, 9, 59, 75
4, 189139, Note_on_c, 9, 44, 52
4, 189396, Note_on_c, 9, 44, 0
4, 189703, Note_on_c, 9, 59, 0
4, 190081, Note_on_c, 9, 59, 79
4, 190451, Note_on_c, 9, 59, 0
4, 190768, Note_on_c, 9, 59, 39
4, 190830, Note_on_c, 9, 59, 0
4, 191009, Note_on_c, 9, 59, 84
4, 191141, Note_on_c, 9, 44, 54
4, 191379, Note_on_c, 9, 44, 0
4, 191664, Note_on_c, 9, 59, 0
4, 191973, Note_on_c, 9, 59, 82
4, 192562, Note_on_c, 9, 59, 0
4, 192966, Note_on_c, 9, 59, 85
4, 193044, Note_on_c, 9, 44, 60
4, 193305, Note_on_c, 9, 44, 0
4, 193548, Note_on_c, 9, 59, 0
4, 193952, Note_on_c, 9, 59, 50
4, 194049, Note_on_c, 9, 59, 0
4, 194211, Note_on_c, 9, 59, 80
4, 194673, Note_on_c, 9, 59, 0
4, 194853, Note_on_c, 9, 59, 87
4, 194883, Note_on_c, 9, 46, 55
4, 195062, Note_on_c, 9, 46, 0
4, 195402, Note_on_c, 9, 59, 0
4, 195525, Note_on_c, 9, 59, 60
4, 195652, Note_on_c, 9, 59, 0
4, 195799, Note_on_c, 9, 59, 72
4, 196503, Note_on_c, 9, 59, 0
4, 196746, Note_on_c, 9, 59, 87
4, 196802, Note_on_c, 9, 44, 63
4, 197006, Note_on_c, 9, 44, 0
4, 197320, Note_on_c, 9, 59, 0
4, 197450, Note_on_c, 9, 59, 45
4, 197532, Note_on_c, 9, 59, 0
4, 197715, Note_on_c, 9, 59, 80
4, 198344, Note_on_c, 9, 59, 0
4, 198701, Note_on_c, 9, 59, 90
4, 198747, Note_on_c, 9, 44, 59
4, 198918, Note_on_c, 9, 59, 0
4, 198964, Note_on_c, 9, 44, 0
4, 199015, Note_on_c, 9, 59, 77
4, 199472, Note_on_c, 9, 59, 0
4, 199674, Note_on_c, 9, 59, 80
4, 199913, Note_on_c, 9, 59, 0
4, 200001, Note_on_c, 9, 59, 78
4, 200442, Note_on_c, 9, 59, 0
4, 200648, Note_on_c, 9, 59, 87
4, 200668, Note_on_c, 9, 44, 51
4, 200912, Note_on_c, 9, 44, 0
4, 201229, Note_on_c, 9, 59, 0
4, 201320, Note_on_c, 9, 59, 62
4, 201397, Note_on_c, 9, 59, 0
4, 201596, Note_on_c, 9, 59, 84
4, 201970, Note_on_c, 9, 46, 43
4, 202108, Note_on_c, 9, 46, 0
4, 202225, Note_on_c, 9, 59, 0
4, 202542, Note_on_c, 9, 59, 87
4, 202575, Note_on_c, 9, 46, 53
4, 202756, Note_on_c, 9, 46, 0
4, 203092, Note_on_c, 9, 59, 0
4, 203197, Note_on_c, 9, 44, 58
4, 203214, Note_on_c, 9, 59, 39
4, 203361, Note_on_c, 9, 59, 0
4, 203381, Note_on_c, 9, 44, 0
4, 203518, Note_on_c, 9, 59, 83
4, 203555, Note_on_c, 9, 44, 57
4, 203790, Note_on_c, 9, 44, 0
4, 204088, Note_on_c, 9, 59, 0
4, 204478, Note_on_c, 9, 59, 90
4, 205006, Note_on_c, 9, 59, 0
4, 205447, Note_on_c, 9, 59, 87
4, 205953, Note_on_c, 9, 59, 0
4, 206386, Note_on_c, 9, 44, 49
4, 206395, Note_on_c, 9, 59, 87
4, 206616, Note_on_c, 9, 44, 0
4, 206859, Note_on_c, 9, 59, 0
4, 207060, Note_on_c, 9, 59, 60
4, 207138, Note_on_c, 9, 59, 0
4, 207334, Note_on_c, 9, 59, 81
4, 207843, Note_on_c, 9, 59, 0
4, 208316, Note_on_c, 9, 59, 96
4, 208375, Note_on_c, 9, 44, 56
4, 208602, Note_on_c, 9, 44, 0
4, 208826, Note_on_c, 9, 59, 0
4, 209254, Note_on_c, 9, 59, 91
4, 209771, Note_on_c, 9, 59, 0
4, 209930, Note_on_c, 9, 59, 48
4, 209994, Note_on_c, 9, 59, 0
4, 210214, Note_on_c, 9, 59, 88
4, 210252, Note_on_c, 9, 44, 39
4, 210501, Note_on_c, 9, 44, 0
4, 210666, Note_on_c, 9, 59, 0
4, 210898, Note_on_c, 9, 59, 71
4, 210980, Note_on_c, 9, 59, 0
4, 211158, Note_on_c, 9, 59, 89
4, 211796, Note_on_c, 9, 59, 0
4, 212170, Note_on_c, 9, 59, 89
4, 212496, Note_on_c, 9, 59, 0
4, 212834, Note_on_c, 9, 59, 44
4, 212909, Note_on_c, 9, 59, 0
4, 213100, Note_on_c, 9, 59, 83
4, 213689, Note_on_c, 9, 59, 0
4, 214131, Note_on_c, 9, 59, 87
4, 214162, Note_on_c, 9, 44, 60
4, 214392, Note_on_c, 9, 44, 0
4, 214662, Note_on_c, 9, 59, 0
4, 215090, Note_on_c, 9, 59, 85
4, 215552, Note_on_c, 9, 59, 0
4, 216015, Note_on_c, 9, 59, 79
4, 216391, Note_on_c, 9, 59, 0
4, 216693, Note_on_c, 9, 59, 45
4, 216752, Note_on_c, 9, 59, 0
4, 216947, Note_on_c, 9, 59, 82
4, 217560, Note_on_c, 9, 59, 0
4, 217941, Note_on_c, 9, 44, 57
4, 217944, Note_on_c, 9, 59, 91
4, 218206, Note_on_c, 9, 44, 0
4, 218314, Note_on_c, 9, 59, 0
4, 218594, Note_on_c, 9, 59, 49
4, 218670, Note_on_c, 9, 59, 0
4, 218868, Note_on_c, 9, 59, 74
4, 219356, Note_on_c, 9, 59, 0
4, 219852, Note_on_c, 9, 44, 53
4, 219858, Note_on_c, 9, 59, 89
4, 220176, Note_on_c, 9, 44, 0
4, 220300, Note_on_c, 9, 59, 0
4, 220803, Note_on_c, 9, 59, 82
4, 221215, Note_on_c, 9, 59, 0
4, 221754, Note_on_c, 9, 44, 60
4, 221760, Note_on_c, 9, 59, 70
4, 221995, Note_on_c, 9, 44, 0
4, 222113, Note_on_c, 9, 59, 0
4, 222446, Note_on_c, 9, 59, 71
4, 222631, Note_on_c, 9, 59, 0
4, 222745, Note_on_c, 9, 59, 67
4, 223254, Note_on_c, 9, 59, 0
4, 223692, Note_on_c, 9, 59, 91
4, 223717, Note_on_c, 9, 44, 60
4, 223975, Note_on_c, 9, 44, 0
4, 224100, Note_on_c, 9, 59, 0
4, 224339, Note_on_c, 9, 59, 71
4, 224511, Note_on_c, 9, 59, 0
4, 224669, Note_on_c, 9, 59, 75
4, 225068, Note_on_c, 9, 59, 0
4, 225598, Note_on_c, 9, 46, 46
4, 225604, Note_on_c, 9, 59, 87
4, 225788, Note_on_c, 9, 46, 0
4, 226029, Note_on_c, 9, 59, 0
4, 226300, Note_on_c, 9, 59, 40
4, 226364, Note_on_c, 9, 59, 0
4, 226580, Note_on_c, 9, 59, 87
4, 227086, Note_on_c, 9, 59, 0
4, 227485, Note_on_c, 9, 59, 88
4, 227556, Note_on_c, 9, 44, 52
4, 227790, Note_on_c, 9, 44, 0
4, 228037, Note_on_c, 9, 59, 0
4, 228479, Note_on_c, 9, 59, 74
4, 229027, Note_on_c, 9, 59, 0
4, 229073, Note_on_c, 9, 53, 62
4, 229212, Note_on_c, 9, 53, 0
4, 229462, Note_on_c, 9, 44, 57
4, 229463, Note_on_c, 9, 59, 50
4, 229691, Note_on_c, 9, 44, 0
4, 229836, Note_on_c, 9, 59, 0
4, 230070, Note_on_c, 9, 59, 73
4, 230263, Note_on_c, 9, 59, 0
4, 230405, Note_on_c, 9, 59, 68
4, 230927, Note_on_c, 9, 59, 0
4, 231358, Note_on_c, 9, 59, 85
4, 231405, Note_on_c, 9, 44, 49
4, 231634, Note_on_c, 9, 44, 0
4, 231645, Note_on_c, 9, 59, 0
4, 232265, Note_on_c, 9, 59, 74
4, 232574, Note_on_c, 9, 59, 0
4, 232890, Note_on_c, 9, 59, 70
4, 233031, Note_on_c, 9, 59, 0
4, 233224, Note_on_c, 9, 59, 72
4, 233348, Note_on_c, 9, 44, 47
4, 233619, Note_on_c, 9, 44, 0
4, 233735, Note_on_c, 9, 59, 0
4, 233849, Note_on_c, 9, 59, 73
4, 234052, Note_on_c, 9, 59, 0
4, 234203, Note_on_c, 9, 59, 88
4, 235186, Note_on_c, 9, 44, 33
4, 235438, Note_on_c, 9, 44, 0
4, 235491, Note_on_c, 9, 59, 0
4, 235800, Note_on_c, 9, 59, 84
4, 235997, Note_on_c, 9, 59, 0
4, 236195, Note_on_c, 9, 59, 76
4, 237046, Note_on_c, 9, 59, 0
4, 237184, Note_on_c, 9, 44, 33
4, 237414, Note_on_c, 9, 44, 0
4, 237758, Note_on_c, 9, 59, 69
4, 237922, Note_on_c, 9, 59, 0
4, 238117, Note_on_c, 9, 59, 80
4, 238778, Note_on_c, 9, 59, 0
4, 239071, Note_on_c, 9, 44, 42
4, 239087, Note_on_c, 9, 59, 81
4, 239244, Note_on_c, 9, 44, 0
4, 240470, Note_on_c, 9, 59, 0
4, 240611, Note_on_c, 9, 59, 45
4, 240745, Note_on_c, 9, 59, 0
4, 240921, Note_on_c, 9, 46, 33
4, 240995, Note_on_c, 9, 59, 70
4, 241075, Note_on_c, 9, 46, 0
4, 241120, Note_on_c, 9, 59, 0
4, 241447, Note_on_c, 9, 59, 75
4, 241535, Note_on_c, 9, 59, 0
4, 241879, Note_on_c, 9, 59, 92
4, 242902, Note_on_c, 9, 44, 42
4, 243259, Note_on_c, 9, 44, 0
4, 244817, Note_on_c, 9, 59, 0
4, 245847, Note_on_c, 9, 59, 37
4, 246003, Note_on_c, 9, 59, 0
4, 247351, Note_on_c, 9, 59, 42
4, 247543, Note_on_c, 9, 59, 0
4, 247724, Note_on_c, 9, 59, 27
4, 248207, Note_on_c, 9, 59, 0
4, 249262, Note_on_c, 9, 59, 46
4, 249423, Note_on_c, 9, 59, 0
4, 249582, Note_on_c, 9, 59, 33
4, 250030, Note_on_c, 9, 59, 0
4, 250573, Note_on_c, 9, 44, 42
4, 250577, Note_on_c, 9, 59, 51
4, 250656, Note_on_c, 9, 59, 0
4, 250658, Note_on_c, 9, 44, 0
4, 251584, Note_on_c, 9, 59, 48
4, 252202, Note_on_c, 9, 59, 0
4, 252515, Note_on_c, 9, 59, 51
4, 252952, Note_on_c, 9, 59, 0
4, 254121, Note_on_c, 9, 59, 46
4, 254279, Note_on_c, 9, 59, 0
4, 254508, Note_on_c, 9, 59, 15
4, 254917, Note_on_c, 9, 59, 0
4, 255004, Note_on_c, 9, 44, 55
4, 255174, Note_on_c, 9, 44, 0
4, 255451, Note_on_c, 9, 59, 17
4, 255922, Note_on_c, 9, 59, 0
4, 255996, Note_on_c, 9, 44, 43
4, 256161, Note_on_c, 9, 44, 0
4, 256377, Note_on_c, 9, 59, 30
4, 256711, Note_on_c, 9, 59, 0
4, 256969, Note_on_c, 9, 59, 52
4, 257180, Note_on_c, 9, 59, 0
4, 257333, Note_on_c, 9, 59, 40
4, 257606, Note_on_c, 9, 59, 0
4, 258266, Note_on_c, 9, 59, 64
4, 258452, Note_on_c, 9, 59, 0
4, 259234, Note_on_c, 9, 59, 57
4, 259707, Note_on_c, 9, 59, 0
4, 260821, Note_on_c, 9, 59, 71
4, 261035, Note_on_c, 9, 59, 0
4, 261673, Note_on_c, 9, 54, 52
4, 261814, Note_on_c, 9, 54, 0
4, 262047, Note_on_c, 9, 59, 36
4, 262142, Note_on_c, 9, 59, 0
4, 262665, Note_on_c, 9, 59, 69
4, 262782, Note_on_c, 9, 59, 0
4, 263278, Note_on_c, 9, 59, 36
4, 263433, Note_on_c, 9, 59, 0
4, 264099, Note_on_c, 9, 59, 56
4, 264181, Note_on_c, 9, 59, 0
4, 264673, Note_on_c, 9, 53, 43
4, 264764, Note_on_c, 9, 53, 0
4, 265039, Note_on_c, 9, 59, 25
4, 265346, Note_on_c, 9, 59, 0
4, 265971, Note_on_c, 9, 59, 51
4, 266151, Note_on_c, 9, 59, 0
4, 266960, Note_on_c, 9, 59, 24
4, 267827, Note_on_c, 9, 44, 50
4, 267831, Note_on_c, 9, 59, 0
4, 268147, Note_on_c, 9, 44, 0
4, 268789, Note_on_c, 9, 59, 38
4, 269252, Note_on_c, 9, 59, 0
4, 269769, Note_on_c, 9, 59, 56
4, 270209, Note_on_c, 9, 59, 0
4, 270729, Note_on_c, 9, 59, 33
4, 271252, Note_on_c, 9, 59, 0
4, 271665, Note_on_c, 9, 44, 38
4, 272025, Note_on_c, 9, 44, 0
4, 272641, Note_on_c, 9, 59, 49
4, 272972, Note_on_c, 9, 59, 0
4, 273156, Note_on_c, 9, 59, 48
4, 273461, Note_on_c, 9, 59, 0
4, 273597, Note_on_c, 9, 59, 37
4, 273919, Note_on_c, 9, 59, 0
4, 274101, Note_on_c, 9, 44, 27
4, 274382, Note_on_c, 9, 44, 0
4, 274518, Note_on_c, 9, 44, 29
4, 274816, Note_on_c, 9, 44, 0
4, 275472, Note_on_c, 9, 59, 43
4, 275761, Note_on_c, 9, 59, 0
4, 278396, Note_on_c, 9, 59, 55
4, 278728, Note_on_c, 9, 59, 0
4, 278990, Note_on_c, 9, 59, 45
4, 279150, Note_on_c, 9, 59, 0
4, 279386, Note_on_c, 9, 59, 33
4, 279572, Note_on_c, 9, 59, 0
4, 280978, Note_on_c, 9, 53, 28
4, 280991, Note_on_c, 9, 59, 55
4, 281109, Note_on_c, 9, 53, 0
4, 281243, Note_on_c, 9, 59, 0
4, 281630, Note_on_c, 9, 59, 54
4, 281969, Note_on_c, 9, 59, 0
4, 282269, Note_on_c, 9, 53, 31
4, 282332, Note_on_c, 9, 59, 45
4, 282416, Note_on_c, 9, 53, 0
4, 283051, Note_on_c, 9, 59, 0
4, 283261, Note_on_c, 9, 59, 37
4, 285673, Note_on_c, 9, 51, 54
4, 285830, Note_on_c, 9, 59, 0
4, 286082, Note_on_c, 9, 51, 0
4, 286196, Note_on_c, 9, 59, 63
4, 286569, Note_on_c, 9, 59, 0
4, 286687, Note_on_c, 9, 59, 65
4, 286989, Note_on_c, 9, 59, 0
4, 287151, Note_on_c, 9, 59, 60
4, 287625, Note_on_c, 9, 59, 0
4, 288564, Note_on_c, 9, 51, 52
4, 288884, Note_on_c, 9, 51, 0
4, 289088, Note_on_c, 9, 59, 54
4, 289428, Note_on_c, 9, 59, 0
4, 289552, Note_on_c, 9, 59, 62
4, 289793, Note_on_c, 9, 59, 0
4, 290016, Note_on_c, 9, 59, 55
4, 290507, Note_on_c, 9, 59, 0
4, 290888, Note_on_c, 9, 59, 36
4, 294673, Note_on_c, 9, 59, 0
4, 294761, Note_on_c, 9, 44, 63
4, 295109, Note_on_c, 9, 44, 0
4, 296615, Note_on_c, 9, 59, 30
4, 296987, Note_on_c, 9, 59, 0
4, 297625, Note_on_c, 9, 59, 26
4, 297950, Note_on_c, 9, 59, 0
4, 298539, Note_on_c, 9, 59, 26
4, 298955, Note_on_c, 9, 59, 0
4, 300476, Note_on_c, 9, 59, 28
4, 300758, Note_on_c, 9, 59, 0
4, 301398, Note_on_c, 9, 59, 30
4, 302296, Note_on_c, 9, 59, 0
4, 305287, Note_on_c, 9, 44, 43
4, 305500, Note_on_c, 9, 44, 0
4, 306248, Note_on_c, 9, 59, 72
4, 306638, Note_on_c, 9, 59, 0
4, 306846, Note_on_c, 9, 59, 38
4, 306959, Note_on_c, 9, 59, 0
4, 307147, Note_on_c, 9, 59, 42
4, 307507, Note_on_c, 9, 59, 0
4, 308163, Note_on_c, 9, 59, 34
4, 308415, Note_on_c, 9, 59, 0
4, 309139, Note_on_c, 9, 44, 77
4, 309423, Note_on_c, 9, 44, 0
4, 310150, Note_on_c, 9, 59, 33
4, 310445, Note_on_c, 9, 59, 0
4, 311042, Note_on_c, 9, 59, 33
4, 311593, Note_on_c, 9, 59, 0
4, 311969, Note_on_c, 9, 44, 46
4, 312228, Note_on_c, 9, 44, 0
4, 313960, Note_on_c, 9, 59, 44
4, 314296, Note_on_c, 9, 59, 0
4, 314529, Note_on_c, 9, 44, 44
4, 314738, Note_on_c, 9, 44, 0
4, 315910, Note_on_c, 9, 59, 55
4, 316370, Note_on_c, 9, 59, 0
4, 316827, Note_on_c, 9, 59, 40
4, 317183, Note_on_c, 9, 59, 0
4, 317481, Note_on_c, 9, 44, 40
4, 317654, Note_on_c, 9, 44, 0
4, 319711, Note_on_c, 9, 59, 63
4, 319822, Note_on_c, 9, 59, 0
4, 320677, Note_on_c, 9, 59, 57
4, 321172, Note_on_c, 9, 59, 0
4, 321315, Note_on_c, 9, 53, 32
4, 321389, Note_on_c, 9, 53, 0
4, 321607, Note_on_c, 9, 44, 43
4, 321845, Note_on_c, 9, 44, 0
4, 323500, Note_on_c, 9, 59, 43
4, 323662, Note_on_c, 9, 59, 0
4, 324466, Note_on_c, 9, 59, 40
4, 324763, Note_on_c, 9, 59, 0
4, 325100, Note_on_c, 9, 53, 42
4, 325199, Note_on_c, 9, 53, 0
4, 325391, Note_on_c, 9, 44, 38
4, 325628, Note_on_c, 9, 44, 0
4, 326985, Note_on_c, 9, 59, 57
4, 327043, Note_on_c, 9, 59, 0
4, 328019, Note_on_c, 9, 59, 71
4, 328138, Note_on_c, 9, 59, 0
4, 328382, Note_on_c, 9, 59, 47
4, 328444, Note_on_c, 9, 59, 0
4, 329001, Note_on_c, 9, 59, 58
4, 329106, Note_on_c, 9, 59, 0
4, 329354, Note_on_c, 9, 59, 69
4, 329436, Note_on_c, 9, 59, 0
4, 329913, Note_on_c, 9, 44, 39
4, 329954, Note_on_c, 9, 53, 54
4, 330047, Note_on_c, 9, 53, 0
4, 330062, Note_on_c, 9, 44, 0
4, 330286, Note_on_c, 9, 59, 54
4, 330433, Note_on_c, 9, 59, 0
4, 330941, Note_on_c, 9, 59, 41
4, 331062, Note_on_c, 9, 59, 0
4, 331312, Note_on_c, 9, 59, 60
4, 331375, Note_on_c, 9, 59, 0
4, 332279, Note_on_c, 9, 59, 37
4, 332418, Note_on_c, 9, 59, 0
4, 332818, Note_on_c, 9, 59, 55
4, 332989, Note_on_c, 9, 59, 0
4, 333186, Note_on_c, 9, 59, 30
4, 333309, Note_on_c, 9, 59, 0
4, 333756, Note_on_c, 9, 59, 80
4, 333916, Note_on_c, 9, 59, 0
4, 334424, Note_on_c, 9, 59, 33
4, 334519, Note_on_c, 9, 59, 0
4, 334745, Note_on_c, 9, 59, 49
4, 334885, Note_on_c, 9, 59, 0
4, 335089, Note_on_c, 9, 59, 38
4, 335165, Note_on_c, 9, 59, 0
4, 336035, Note_on_c, 9, 59, 36
4, 336733, Note_on_c, 9, 59, 0
4, 337014, Note_on_c, 9, 44, 67
4, 337248, Note_on_c, 9, 44, 0
4, 339487, Note_on_c, 9, 59, 66
4, 339658, Note_on_c, 9, 59, 0
4, 339847, Note_on_c, 9, 59, 40
4, 339992, Note_on_c, 9, 59, 0
4, 340409, Note_on_c, 9, 59, 53
4, 340527, Note_on_c, 9, 59, 0
4, 341126, Note_on_c, 9, 44, 55
4, 341291, Note_on_c, 9, 44, 0
4, 342479, Note_on_c, 9, 59, 32
4, 342535, Note_on_c, 9, 59, 0
4, 342781, Note_on_c, 9, 59, 53
4, 342894, Note_on_c, 9, 59, 0
4, 343764, Note_on_c, 9, 59, 49
4, 343938, Note_on_c, 9, 59, 0
4, 345324, Note_on_c, 9, 59, 30
4, 345443, Note_on_c, 9, 59, 0
4, 345666, Note_on_c, 9, 59, 35
4, 345845, Note_on_c, 9, 59, 0
4, 349541, Note_on_c, 9, 59, 49
4, 349974, Note_on_c, 9, 59, 0
4, 350604, Note_on_c, 9, 59, 31
4, 350897, Note_on_c, 9, 59, 0
4, 351540, Note_on_c, 9, 59, 30
4, 351891, Note_on_c, 9, 59, 0
4, 352580, Note_on_c, 9, 59, 26
4, 352809, Note_on_c, 9, 59, 0
4, 353474, Note_on_c, 9, 59, 27
4, 353775, Note_on_c, 9, 59, 0
4, 354432, Note_on_c, 9, 59, 24
4, 354770, Note_on_c, 9, 59, 0
4, 355539, Note_on_c, 9, 59, 26
4, 355819, Note_on_c, 9, 59, 0
4, 356648, Note_on_c, 9, 59, 30
4, 357022, Note_on_c, 9, 59, 0
4, 358549, Note_on_c, 9, 57, 26
4, 358996, Note_on_c, 9, 59, 36
4, 359873, Note_on_c, 9, 57, 0
4, 360517, Note_on_c, 9, 59, 0
4, 360517, End_track
0, 0, End_of_file
