0, 0, Header, 1, 4, 120
1, 0, Start_track
1, 0, Title_t, "This nearly was Mine"
1, 0, Text_t, "Rodgers and Hammerstein - Some excellent solo piano versions on CD by Fred Hersch, and Chick Corea. Bass notes (not always the root of the chord)  can be chosen to make logical lines that move around in whole or half steps making interesting bass lines a\012"
1, 0, Text_t, "From 'South Pacific'\012"
1, 0, Time_signature, 3, 2, 24, 8
1, 0, Key_signature, 0, "major"
1, 0, Tempo, 461538
1, 0, Marker_t, "First Time - played freely"
1, 38520, Marker_t, "More or Less in 3/4 time"
1, 61012, Marker_t, "Up Scale - each note played with thumb and index fingers alternately"
1, 71063, Marker_t, "AbMaj7 (#11)"
1, 72720, Marker_t, "Resolves to C Maj7 (#11) "
1, 72720, End_track
2, 0, Start_track
2, 0, Title_t, "Solo Piano in Real time"
2, 0, Control_c, 0, 7, 127
2, 0, Control_c, 0, 10, 65
2, 0, Control_c, 0, 64, 127
2, 152, Control_c, 0, 64, 0
2, 153, Note_on_c, 0, 36, 58
2, 174, Control_c, 0, 64, 127
2, 283, Note_on_c, 0, 43, 39
2, 471, Note_on_c, 0, 60, 71
2, 475, Note_on_c, 0, 57, 60
2, 478, Note_on_c, 0, 55, 52
2, 478, Note_on_c, 0, 52, 32
2, 530, Note_on_c, 0, 36, 0
2, 550, Note_on_c, 0, 43, 0
2, 574, Note_on_c, 0, 52, 0
2, 588, Note_on_c, 0, 60, 0
2, 589, Note_on_c, 0, 55, 0
2, 600, Note_on_c, 0, 57, 0
2, 631, Control_c, 0, 64, 0
2, 632, Note_on_c, 0, 60, 62
2, 636, Note_on_c, 0, 53, 60
2, 639, Note_on_c, 0, 38, 44
2, 671, Control_c, 0, 64, 127
2, 693, Note_on_c, 0, 53, 0
2, 706, Note_on_c, 0, 38, 0
2, 706, Note_on_c, 0, 60, 0
2, 830, Note_on_c, 0, 65, 37
2, 833, Note_on_c, 0, 60, 29
2, 836, Note_on_c, 0, 57, 35
2, 933, Note_on_c, 0, 60, 0
2, 953, Note_on_c, 0, 65, 0
2, 1000, Note_on_c, 0, 71, 74
2, 1062, Note_on_c, 0, 71, 0
2, 1082, Note_on_c, 0, 72, 77
2, 1137, Note_on_c, 0, 72, 0
2, 1148, Note_on_c, 0, 57, 0
2, 1193, Note_on_c, 0, 72, 57
2, 1200, Note_on_c, 0, 52, 38
2, 1203, Control_c, 0, 64, 0
2, 1203, Note_on_c, 0, 67, 34
2, 1204, Note_on_c, 0, 64, 28
2, 1257, Control_c, 0, 64, 127
2, 1288, Note_on_c, 0, 64, 0
2, 1297, Note_on_c, 0, 67, 0
2, 1330, Note_on_c, 0, 67, 39
2, 1330, Note_on_c, 0, 64, 33
2, 1336, Note_on_c, 0, 59, 15
2, 1401, Note_on_c, 0, 64, 0
2, 1411, Note_on_c, 0, 67, 0
2, 1419, Note_on_c, 0, 72, 0
2, 1464, Note_on_c, 0, 84, 84
2, 1579, Note_on_c, 0, 52, 0
2, 1580, Note_on_c, 0, 59, 0
2, 1586, Note_on_c, 0, 76, 35
2, 1588, Note_on_c, 0, 72, 24
2, 1589, Note_on_c, 0, 56, 34
2, 1590, Note_on_c, 0, 62, 32
2, 1598, Control_c, 0, 64, 0
2, 1636, Control_c, 0, 64, 127
2, 1685, Note_on_c, 0, 84, 0
2, 1788, Note_on_c, 0, 83, 54
2, 1790, Note_on_c, 0, 62, 0
2, 1806, Note_on_c, 0, 56, 0
2, 1864, Note_on_c, 0, 72, 0
2, 1937, Control_c, 0, 64, 0
2, 1941, Note_on_c, 0, 72, 20
2, 1941, Note_on_c, 0, 71, 24
2, 1942, Note_on_c, 0, 83, 0
2, 1943, Note_on_c, 0, 45, 26
2, 1975, Control_c, 0, 64, 127
2, 2023, Note_on_c, 0, 45, 0
2, 2026, Note_on_c, 0, 52, 53
2, 2076, Note_on_c, 0, 72, 0
2, 2085, Note_on_c, 0, 71, 0
2, 2104, Note_on_c, 0, 52, 0
2, 2107, Note_on_c, 0, 76, 0
2, 2114, Note_on_c, 0, 59, 38
2, 2194, Note_on_c, 0, 59, 0
2, 2202, Note_on_c, 0, 60, 41
2, 2285, Note_on_c, 0, 64, 57
2, 2378, Note_on_c, 0, 71, 57
2, 2399, Note_on_c, 0, 60, 0
2, 2464, Note_on_c, 0, 71, 0
2, 2468, Note_on_c, 0, 64, 0
2, 2471, Note_on_c, 0, 67, 40
2, 2473, Note_on_c, 0, 62, 32
2, 2475, Note_on_c, 0, 47, 32
2, 2482, Control_c, 0, 64, 0
2, 2524, Note_on_c, 0, 67, 0
2, 2546, Control_c, 0, 64, 127
2, 2556, Note_on_c, 0, 55, 52
2, 2604, Note_on_c, 0, 62, 0
2, 2638, Note_on_c, 0, 62, 56
2, 2642, Note_on_c, 0, 59, 35
2, 2663, Note_on_c, 0, 62, 0
2, 2707, Note_on_c, 0, 55, 0
2, 2731, Note_on_c, 0, 79, 90
2, 2802, Note_on_c, 0, 79, 0
2, 2817, Note_on_c, 0, 59, 0
2, 2822, Note_on_c, 0, 79, 58
2, 2828, Note_on_c, 0, 71, 74
2, 2832, Note_on_c, 0, 55, 37
2, 2833, Control_c, 0, 64, 0
2, 2857, Control_c, 0, 64, 127
2, 2882, Note_on_c, 0, 47, 0
2, 2914, Note_on_c, 0, 47, 34
2, 2920, Note_on_c, 0, 79, 0
2, 2934, Note_on_c, 0, 47, 0
2, 2944, Note_on_c, 0, 71, 0
2, 2960, Note_on_c, 0, 55, 0
2, 2999, Note_on_c, 0, 79, 66
2, 3006, Control_c, 0, 64, 0
2, 3006, Note_on_c, 0, 70, 61
2, 3009, Note_on_c, 0, 46, 37
2, 3066, Control_c, 0, 64, 127
2, 3071, Note_on_c, 0, 46, 0
2, 3081, Note_on_c, 0, 55, 49
2, 3155, Note_on_c, 0, 55, 0
2, 3163, Note_on_c, 0, 58, 44
2, 3235, Note_on_c, 0, 70, 0
2, 3253, Note_on_c, 0, 64, 24
2, 3325, Note_on_c, 0, 79, 0
2, 3338, Note_on_c, 0, 70, 34
2, 3339, Note_on_c, 0, 78, 43
2, 3342, Note_on_c, 0, 61, 29
2, 3377, Note_on_c, 0, 58, 0
2, 3426, Note_on_c, 0, 64, 0
2, 3427, Note_on_c, 0, 78, 0
2, 3438, Note_on_c, 0, 79, 48
2, 3450, Note_on_c, 0, 58, 25
2, 3484, Note_on_c, 0, 58, 0
2, 3486, Note_on_c, 0, 61, 0
2, 3490, Note_on_c, 0, 79, 0
2, 3516, Note_on_c, 0, 70, 0
2, 3546, Note_on_c, 0, 79, 45
2, 3549, Control_c, 0, 64, 0
2, 3552, Note_on_c, 0, 69, 34
2, 3555, Note_on_c, 0, 57, 43
2, 3579, Control_c, 0, 64, 127
2, 3633, Note_on_c, 0, 69, 0
2, 3656, Note_on_c, 0, 67, 47
2, 3756, Note_on_c, 0, 72, 42
2, 3795, Note_on_c, 0, 67, 0
2, 3797, Note_on_c, 0, 79, 0
2, 3849, Note_on_c, 0, 65, 48
2, 3938, Note_on_c, 0, 84, 90
2, 3942, Note_on_c, 0, 57, 0
2, 4021, Note_on_c, 0, 84, 0
2, 4026, Note_on_c, 0, 57, 54
2, 4028, Note_on_c, 0, 77, 65
2, 4061, Note_on_c, 0, 57, 0
2, 4116, Note_on_c, 0, 77, 0
2, 4121, Control_c, 0, 64, 0
2, 4122, Note_on_c, 0, 72, 0
2, 4127, Note_on_c, 0, 56, 42
2, 4128, Note_on_c, 0, 77, 59
2, 4145, Note_on_c, 0, 65, 0
2, 4181, Control_c, 0, 64, 127
2, 4222, Note_on_c, 0, 67, 57
2, 4314, Note_on_c, 0, 68, 48
2, 4381, Note_on_c, 0, 67, 0
2, 4413, Note_on_c, 0, 65, 50
2, 4473, Note_on_c, 0, 68, 0
2, 4515, Note_on_c, 0, 68, 29
2, 4537, Note_on_c, 0, 56, 0
2, 4614, Note_on_c, 0, 56, 34
2, 4647, Note_on_c, 0, 65, 0
2, 4682, Note_on_c, 0, 68, 0
2, 4693, Note_on_c, 0, 56, 0
2, 4716, Note_on_c, 0, 67, 36
2, 4722, Control_c, 0, 64, 0
2, 4723, Note_on_c, 0, 55, 40
2, 4729, Note_on_c, 0, 77, 0
2, 4779, Control_c, 0, 64, 127
2, 4802, Note_on_c, 0, 64, 46
2, 4877, Note_on_c, 0, 67, 0
2, 4884, Note_on_c, 0, 67, 45
2, 4886, Note_on_c, 0, 77, 88
2, 4891, Note_on_c, 0, 69, 36
2, 4898, Note_on_c, 0, 69, 0
2, 4906, Note_on_c, 0, 64, 0
2, 4974, Note_on_c, 0, 64, 35
2, 5037, Note_on_c, 0, 55, 0
2, 5054, Note_on_c, 0, 77, 0
2, 5067, Note_on_c, 0, 76, 68
2, 5152, Note_on_c, 0, 67, 0
2, 5153, Note_on_c, 0, 64, 0
2, 5160, Note_on_c, 0, 55, 36
2, 5176, Note_on_c, 0, 55, 0
2, 5266, Note_on_c, 0, 76, 0
2, 5288, Note_on_c, 0, 72, 29
2, 5289, Note_on_c, 0, 64, 35
2, 5290, Note_on_c, 0, 68, 28
2, 5294, Note_on_c, 0, 54, 37
2, 5296, Control_c, 0, 64, 0
2, 5296, Note_on_c, 0, 60, 30
2, 5354, Control_c, 0, 64, 127
2, 5495, Note_on_c, 0, 76, 80
2, 5566, Note_on_c, 0, 64, 0
2, 5570, Note_on_c, 0, 54, 0
2, 5588, Note_on_c, 0, 64, 54
2, 5630, Note_on_c, 0, 76, 0
2, 5668, Note_on_c, 0, 64, 0
2, 5669, Note_on_c, 0, 68, 0
2, 5674, Note_on_c, 0, 72, 0
2, 5678, Note_on_c, 0, 54, 42
2, 5681, Note_on_c, 0, 75, 64
2, 5683, Control_c, 0, 64, 0
2, 5684, Note_on_c, 0, 72, 35
2, 5684, Note_on_c, 0, 64, 51
2, 5684, Note_on_c, 0, 68, 43
2, 5707, Control_c, 0, 64, 127
2, 5755, Note_on_c, 0, 54, 0
2, 5756, Note_on_c, 0, 75, 0
2, 5766, Note_on_c, 0, 72, 0
2, 5766, Note_on_c, 0, 64, 0
2, 5774, Note_on_c, 0, 76, 81
2, 5775, Note_on_c, 0, 54, 31
2, 5784, Note_on_c, 0, 68, 0
2, 5839, Note_on_c, 0, 76, 0
2, 5848, Note_on_c, 0, 54, 0
2, 5869, Note_on_c, 0, 60, 0
2, 5870, Control_c, 0, 64, 0
2, 5878, Note_on_c, 0, 76, 66
2, 5883, Note_on_c, 0, 72, 40
2, 5885, Note_on_c, 0, 53, 32
2, 5886, Note_on_c, 0, 69, 45
2, 5888, Note_on_c, 0, 64, 45
2, 5908, Control_c, 0, 64, 127
2, 5951, Note_on_c, 0, 64, 0
2, 5976, Note_on_c, 0, 72, 0
2, 5976, Note_on_c, 0, 69, 0
2, 5979, Note_on_c, 0, 61, 51
2, 6016, Note_on_c, 0, 76, 0
2, 6084, Note_on_c, 0, 69, 42
2, 6084, Note_on_c, 0, 73, 29
2, 6085, Note_on_c, 0, 64, 37
2, 6191, Note_on_c, 0, 81, 56
2, 6203, Note_on_c, 0, 64, 0
2, 6242, Note_on_c, 0, 69, 0
2, 6261, Note_on_c, 0, 81, 0
2, 6264, Note_on_c, 0, 73, 0
2, 6304, Note_on_c, 0, 74, 44
2, 6307, Note_on_c, 0, 69, 36
2, 6307, Control_c, 0, 64, 0
2, 6309, Note_on_c, 0, 62, 34
2, 6313, Note_on_c, 0, 61, 0
2, 6323, Control_c, 0, 64, 127
2, 6332, Note_on_c, 0, 53, 0
2, 6332, Note_on_c, 0, 62, 0
2, 6395, Note_on_c, 0, 74, 0
2, 6413, Note_on_c, 0, 69, 0
2, 6416, Note_on_c, 0, 53, 41
2, 6469, Note_on_c, 0, 53, 0
2, 6538, Note_on_c, 0, 67, 57
2, 6546, Note_on_c, 0, 60, 46
2, 6546, Note_on_c, 0, 62, 34
2, 6548, Control_c, 0, 64, 0
2, 6552, Note_on_c, 0, 56, 25
2, 6556, Note_on_c, 0, 53, 20
2, 6659, Note_on_c, 0, 41, 41
2, 6680, Control_c, 0, 64, 127
2, 6753, Note_on_c, 0, 56, 0
2, 6762, Note_on_c, 0, 67, 0
2, 6776, Note_on_c, 0, 65, 55
2, 6889, Note_on_c, 0, 60, 0
2, 6891, Note_on_c, 0, 56, 25
2, 6911, Note_on_c, 0, 53, 0
2, 6931, Note_on_c, 0, 41, 0
2, 6956, Note_on_c, 0, 56, 0
2, 7138, Note_on_c, 0, 53, 35
2, 7143, Note_on_c, 0, 65, 0
2, 7143, Note_on_c, 0, 32, 31
2, 7146, Note_on_c, 0, 59, 34
2, 7147, Note_on_c, 0, 44, 18
2, 7189, Note_on_c, 0, 62, 0
2, 7190, Note_on_c, 0, 59, 0
2, 7190, Note_on_c, 0, 32, 0
2, 7195, Note_on_c, 0, 44, 0
2, 7204, Note_on_c, 0, 53, 0
2, 7262, Control_c, 0, 64, 0
2, 7266, Note_on_c, 0, 64, 35
2, 7269, Note_on_c, 0, 55, 32
2, 7270, Note_on_c, 0, 31, 37
2, 7272, Note_on_c, 0, 60, 35
2, 7274, Note_on_c, 0, 43, 18
2, 7288, Control_c, 0, 64, 127
2, 7309, Note_on_c, 0, 55, 0
2, 7319, Note_on_c, 0, 60, 0
2, 7323, Note_on_c, 0, 31, 0
2, 7324, Note_on_c, 0, 64, 0
2, 7347, Note_on_c, 0, 43, 0
2, 7377, Note_on_c, 0, 72, 66
2, 7426, Note_on_c, 0, 72, 0
2, 7476, Note_on_c, 0, 72, 70
2, 7484, Note_on_c, 0, 64, 69
2, 7571, Note_on_c, 0, 64, 0
2, 7574, Note_on_c, 0, 55, 80
2, 7672, Note_on_c, 0, 62, 60
2, 7672, Note_on_c, 0, 64, 57
2, 7674, Note_on_c, 0, 72, 0
2, 7686, Note_on_c, 0, 55, 0
2, 7774, Note_on_c, 0, 55, 44
2, 7795, Note_on_c, 0, 64, 0
2, 7804, Note_on_c, 0, 62, 0
2, 7837, Note_on_c, 0, 55, 0
2, 7874, Note_on_c, 0, 53, 27
2, 7876, Note_on_c, 0, 57, 40
2, 7876, Note_on_c, 0, 60, 47
2, 7878, Note_on_c, 0, 50, 34
2, 7879, Note_on_c, 0, 43, 34
2, 7883, Control_c, 0, 64, 0
2, 7926, Control_c, 0, 64, 127
2, 8026, Note_on_c, 0, 53, 0
2, 8033, Note_on_c, 0, 57, 0
2, 8036, Note_on_c, 0, 60, 0
2, 8136, Note_on_c, 0, 43, 0
2, 8176, Note_on_c, 0, 43, 46
2, 8305, Note_on_c, 0, 43, 0
2, 8362, Note_on_c, 0, 43, 40
2, 8395, Note_on_c, 0, 43, 0
2, 8438, Note_on_c, 0, 50, 0
2, 8545, Note_on_c, 0, 43, 41
2, 8642, Note_on_c, 0, 59, 74
2, 8643, Note_on_c, 0, 60, 77
2, 8646, Note_on_c, 0, 52, 33
2, 8648, Control_c, 0, 64, 0
2, 8726, Control_c, 0, 64, 127
2, 8730, Note_on_c, 0, 59, 0
2, 8732, Note_on_c, 0, 57, 59
2, 8742, Note_on_c, 0, 60, 0
2, 8811, Note_on_c, 0, 57, 0
2, 8829, Note_on_c, 0, 67, 89
2, 8922, Note_on_c, 0, 60, 68
2, 8937, Note_on_c, 0, 43, 0
2, 9012, Note_on_c, 0, 43, 35
2, 9024, Control_c, 0, 64, 0
2, 9044, Control_c, 0, 64, 127
2, 9108, Note_on_c, 0, 52, 0
2, 9112, Note_on_c, 0, 59, 45
2, 9120, Note_on_c, 0, 60, 0
2, 9122, Note_on_c, 0, 67, 0
2, 9162, Note_on_c, 0, 59, 0
2, 9210, Note_on_c, 0, 76, 79
2, 9309, Note_on_c, 0, 69, 58
2, 9314, Note_on_c, 0, 55, 33
2, 9323, Control_c, 0, 64, 0
2, 9334, Control_c, 0, 64, 127
2, 9367, Note_on_c, 0, 55, 0
2, 9408, Note_on_c, 0, 53, 44
2, 9486, Note_on_c, 0, 43, 0
2, 9502, Note_on_c, 0, 53, 0
2, 9508, Note_on_c, 0, 65, 47
2, 9520, Note_on_c, 0, 69, 0
2, 9522, Note_on_c, 0, 76, 0
2, 9548, Note_on_c, 0, 65, 0
2, 9598, Note_on_c, 0, 64, 55
2, 9600, Control_c, 0, 64, 0
2, 9606, Note_on_c, 0, 36, 42
2, 9622, Control_c, 0, 64, 127
2, 9624, Note_on_c, 0, 36, 0
2, 9694, Note_on_c, 0, 55, 43
2, 9721, Note_on_c, 0, 64, 0
2, 9787, Note_on_c, 0, 62, 60
2, 9851, Note_on_c, 0, 62, 0
2, 9888, Note_on_c, 0, 60, 58
2, 9976, Note_on_c, 0, 64, 61
2, 10021, Note_on_c, 0, 64, 0
2, 10069, Note_on_c, 0, 72, 80
2, 10070, Note_on_c, 0, 48, 37
2, 10096, Note_on_c, 0, 48, 0
2, 10137, Note_on_c, 0, 72, 0
2, 10158, Note_on_c, 0, 55, 0
2, 10162, Note_on_c, 0, 50, 41
2, 10162, Note_on_c, 0, 72, 55
2, 10165, Note_on_c, 0, 65, 71
2, 10172, Control_c, 0, 64, 0
2, 10226, Control_c, 0, 64, 127
2, 10235, Note_on_c, 0, 60, 0
2, 10247, Note_on_c, 0, 57, 39
2, 10310, Note_on_c, 0, 72, 0
2, 10318, Note_on_c, 0, 65, 0
2, 10322, Note_on_c, 0, 60, 54
2, 10336, Note_on_c, 0, 60, 0
2, 10412, Note_on_c, 0, 77, 83
2, 10417, Note_on_c, 0, 60, 42
2, 10487, Note_on_c, 0, 50, 0
2, 10502, Note_on_c, 0, 76, 81
2, 10518, Note_on_c, 0, 77, 0
2, 10588, Note_on_c, 0, 67, 60
2, 10596, Note_on_c, 0, 50, 15
2, 10615, Note_on_c, 0, 50, 0
2, 10660, Note_on_c, 0, 57, 0
2, 10673, Control_c, 0, 64, 0
2, 10674, Note_on_c, 0, 60, 0
2, 10680, Note_on_c, 0, 52, 30
2, 10697, Control_c, 0, 64, 127
2, 10741, Note_on_c, 0, 67, 0
2, 10761, Note_on_c, 0, 62, 39
2, 10767, Note_on_c, 0, 76, 0
2, 10847, Note_on_c, 0, 84, 76
2, 10868, Note_on_c, 0, 62, 0
2, 10934, Note_on_c, 0, 76, 57
2, 10946, Note_on_c, 0, 62, 31
2, 11012, Note_on_c, 0, 52, 0
2, 11032, Note_on_c, 0, 62, 0
2, 11062, Note_on_c, 0, 84, 0
2, 11063, Note_on_c, 0, 76, 0
2, 11118, Note_on_c, 0, 79, 67
2, 11120, Note_on_c, 0, 74, 78
2, 11121, Note_on_c, 0, 67, 55
2, 11122, Note_on_c, 0, 56, 39
2, 11126, Note_on_c, 0, 62, 44
2, 11128, Control_c, 0, 64, 0
2, 11152, Control_c, 0, 64, 127
2, 11184, Note_on_c, 0, 62, 0
2, 11184, Note_on_c, 0, 67, 0
2, 11196, Note_on_c, 0, 74, 0
2, 11207, Note_on_c, 0, 56, 0
2, 11213, Note_on_c, 0, 79, 0
2, 11222, Note_on_c, 0, 76, 64
2, 11226, Note_on_c, 0, 72, 39
2, 11228, Note_on_c, 0, 57, 49
2, 11231, Control_c, 0, 64, 0
2, 11236, Note_on_c, 0, 64, 29
2, 11277, Control_c, 0, 64, 127
2, 11316, Note_on_c, 0, 60, 44
2, 11340, Note_on_c, 0, 72, 0
2, 11347, Note_on_c, 0, 76, 0
2, 11356, Note_on_c, 0, 64, 0
2, 11408, Note_on_c, 0, 68, 39
2, 11416, Note_on_c, 0, 64, 25
2, 11534, Note_on_c, 0, 64, 0
2, 11534, Note_on_c, 0, 74, 65
2, 11549, Note_on_c, 0, 60, 0
2, 11620, Note_on_c, 0, 57, 0
2, 11642, Note_on_c, 0, 74, 0
2, 11658, Note_on_c, 0, 68, 0
2, 11659, Note_on_c, 0, 72, 51
2, 11735, Note_on_c, 0, 67, 64
2, 11834, Note_on_c, 0, 67, 0
2, 11850, Note_on_c, 0, 67, 40
2, 11855, Note_on_c, 0, 62, 51
2, 11859, Note_on_c, 0, 47, 33
2, 11867, Note_on_c, 0, 55, 24
2, 11870, Control_c, 0, 64, 0
2, 11910, Note_on_c, 0, 72, 0
2, 11914, Control_c, 0, 64, 127
2, 11970, Note_on_c, 0, 67, 0
2, 11976, Note_on_c, 0, 62, 0
2, 11985, Note_on_c, 0, 55, 0
2, 12052, Note_on_c, 0, 59, 47
2, 12153, Note_on_c, 0, 59, 0
2, 12246, Note_on_c, 0, 79, 85
2, 12270, Note_on_c, 0, 47, 0
2, 12304, Note_on_c, 0, 79, 0
2, 12330, Note_on_c, 0, 79, 71
2, 12372, Note_on_c, 0, 79, 0
2, 12410, Note_on_c, 0, 79, 66
2, 12413, Note_on_c, 0, 70, 55
2, 12422, Note_on_c, 0, 46, 28
2, 12422, Control_c, 0, 64, 0
2, 12431, Note_on_c, 0, 55, 17
2, 12448, Control_c, 0, 64, 127
2, 12450, Note_on_c, 0, 46, 0
2, 12476, Note_on_c, 0, 55, 0
2, 12511, Note_on_c, 0, 58, 29
2, 12662, Note_on_c, 0, 58, 0
2, 12703, Note_on_c, 0, 58, 29
2, 12738, Note_on_c, 0, 70, 0
2, 12766, Note_on_c, 0, 79, 0
2, 12783, Note_on_c, 0, 78, 46
2, 12787, Note_on_c, 0, 70, 42
2, 12791, Note_on_c, 0, 64, 28
2, 12801, Note_on_c, 0, 64, 0
2, 12812, Note_on_c, 0, 58, 0
2, 12856, Note_on_c, 0, 78, 0
2, 12866, Note_on_c, 0, 70, 0
2, 12875, Note_on_c, 0, 79, 57
2, 12907, Note_on_c, 0, 79, 0
2, 12969, Note_on_c, 0, 79, 54
2, 12974, Note_on_c, 0, 45, 43
2, 12974, Note_on_c, 0, 53, 31
2, 12975, Note_on_c, 0, 69, 45
2, 12978, Control_c, 0, 64, 0
2, 13010, Control_c, 0, 64, 127
2, 13016, Note_on_c, 0, 53, 0
2, 13045, Note_on_c, 0, 79, 0
2, 13061, Note_on_c, 0, 53, 43
2, 13065, Note_on_c, 0, 69, 0
2, 13148, Note_on_c, 0, 60, 55
2, 13185, Note_on_c, 0, 60, 0
2, 13236, Note_on_c, 0, 72, 89
2, 13237, Note_on_c, 0, 57, 44
2, 13276, Note_on_c, 0, 57, 0
2, 13319, Note_on_c, 0, 72, 0
2, 13329, Note_on_c, 0, 65, 73
2, 13334, Note_on_c, 0, 57, 36
2, 13357, Control_c, 0, 64, 0
2, 13369, Control_c, 0, 64, 127
2, 13390, Note_on_c, 0, 57, 0
2, 13391, Note_on_c, 0, 65, 0
2, 13394, Note_on_c, 0, 67, 57
2, 13415, Note_on_c, 0, 65, 66
2, 13420, Note_on_c, 0, 67, 0
2, 13434, Note_on_c, 0, 45, 0
2, 13446, Note_on_c, 0, 64, 68
2, 13450, Note_on_c, 0, 65, 0
2, 13454, Note_on_c, 0, 53, 0
2, 13491, Note_on_c, 0, 64, 0
2, 13500, Note_on_c, 0, 65, 78
2, 13501, Control_c, 0, 64, 0
2, 13501, Note_on_c, 0, 44, 39
2, 13505, Note_on_c, 0, 53, 24
2, 13549, Control_c, 0, 64, 127
2, 13592, Note_on_c, 0, 65, 0
2, 13594, Note_on_c, 0, 67, 68
2, 13616, Note_on_c, 0, 53, 0
2, 13694, Note_on_c, 0, 53, 31
2, 13697, Note_on_c, 0, 60, 44
2, 13753, Note_on_c, 0, 67, 0
2, 13769, Note_on_c, 0, 44, 0
2, 13794, Note_on_c, 0, 44, 30
2, 13842, Note_on_c, 0, 53, 0
2, 13896, Note_on_c, 0, 53, 39
2, 13954, Note_on_c, 0, 44, 0
2, 13981, Note_on_c, 0, 60, 0
2, 13986, Note_on_c, 0, 53, 0
2, 13993, Note_on_c, 0, 44, 29
2, 13995, Note_on_c, 0, 56, 31
2, 14084, Note_on_c, 0, 44, 0
2, 14092, Note_on_c, 0, 56, 0
2, 14097, Control_c, 0, 64, 0
2, 14099, Note_on_c, 0, 55, 17
2, 14100, Note_on_c, 0, 43, 25
2, 14107, Note_on_c, 0, 52, 12
2, 14125, Control_c, 0, 64, 127
2, 14159, Note_on_c, 0, 52, 0
2, 14186, Note_on_c, 0, 55, 0
2, 14189, Note_on_c, 0, 52, 46
2, 14275, Note_on_c, 0, 60, 66
2, 14276, Note_on_c, 0, 55, 44
2, 14288, Note_on_c, 0, 52, 0
2, 14354, Note_on_c, 0, 55, 0
2, 14355, Note_on_c, 0, 52, 53
2, 14358, Note_on_c, 0, 64, 77
2, 14363, Note_on_c, 0, 60, 0
2, 14382, Note_on_c, 0, 64, 0
2, 14409, Note_on_c, 0, 43, 0
2, 14444, Note_on_c, 0, 67, 80
2, 14450, Note_on_c, 0, 43, 35
2, 14466, Note_on_c, 0, 43, 0
2, 14509, Note_on_c, 0, 67, 0
2, 14509, Note_on_c, 0, 52, 0
2, 14532, Note_on_c, 0, 76, 92
2, 14590, Note_on_c, 0, 76, 0
2, 14619, Note_on_c, 0, 30, 54
2, 14621, Note_on_c, 0, 76, 81
2, 14622, Control_c, 0, 64, 0
2, 14623, Note_on_c, 0, 68, 77
2, 14634, Note_on_c, 0, 30, 0
2, 14642, Control_c, 0, 64, 127
2, 14704, Note_on_c, 0, 68, 0
2, 14713, Note_on_c, 0, 76, 0
2, 14718, Note_on_c, 0, 64, 60
2, 14718, Note_on_c, 0, 68, 25
2, 14719, Note_on_c, 0, 72, 46
2, 14725, Note_on_c, 0, 58, 51
2, 14735, Note_on_c, 0, 68, 0
2, 14736, Note_on_c, 0, 64, 0
2, 14749, Note_on_c, 0, 72, 0
2, 14827, Note_on_c, 0, 64, 42
2, 14827, Note_on_c, 0, 88, 65
2, 14832, Note_on_c, 0, 80, 33
2, 14872, Note_on_c, 0, 88, 0
2, 14887, Note_on_c, 0, 80, 0
2, 14887, Note_on_c, 0, 58, 0
2, 14921, Note_on_c, 0, 64, 0
2, 14934, Note_on_c, 0, 58, 29
2, 14984, Note_on_c, 0, 58, 0
2, 15033, Note_on_c, 0, 64, 39
2, 15034, Note_on_c, 0, 68, 32
2, 15035, Note_on_c, 0, 72, 29
2, 15039, Note_on_c, 0, 58, 39
2, 15132, Note_on_c, 0, 75, 62
2, 15171, Note_on_c, 0, 75, 0
2, 15173, Note_on_c, 0, 64, 0
2, 15177, Note_on_c, 0, 72, 0
2, 15180, Note_on_c, 0, 68, 0
2, 15186, Note_on_c, 0, 76, 74
2, 15233, Note_on_c, 0, 76, 0
2, 15242, Note_on_c, 0, 58, 0
2, 15251, Note_on_c, 0, 76, 60
2, 15256, Note_on_c, 0, 68, 40
2, 15256, Note_on_c, 0, 71, 54
2, 15258, Note_on_c, 0, 64, 44
2, 15260, Note_on_c, 0, 74, 22
2, 15260, Control_c, 0, 64, 0
2, 15265, Note_on_c, 0, 53, 22
2, 15269, Note_on_c, 0, 74, 0
2, 15286, Control_c, 0, 64, 127
2, 15293, Note_on_c, 0, 64, 0
2, 15298, Note_on_c, 0, 71, 0
2, 15300, Note_on_c, 0, 68, 0
2, 15306, Note_on_c, 0, 76, 0
2, 15348, Note_on_c, 0, 81, 64
2, 15352, Note_on_c, 0, 61, 35
2, 15443, Note_on_c, 0, 81, 0
2, 15447, Note_on_c, 0, 61, 0
2, 15448, Note_on_c, 0, 74, 49
2, 15448, Control_c, 0, 64, 0
2, 15450, Note_on_c, 0, 69, 44
2, 15454, Note_on_c, 0, 62, 39
2, 15478, Control_c, 0, 64, 127
2, 15527, Note_on_c, 0, 53, 0
2, 15555, Note_on_c, 0, 74, 0
2, 15558, Note_on_c, 0, 53, 40
2, 15574, Note_on_c, 0, 69, 0
2, 15664, Note_on_c, 0, 65, 48
2, 15667, Note_on_c, 0, 69, 50
2, 15692, Note_on_c, 0, 69, 0
2, 15715, Note_on_c, 0, 65, 0
2, 15729, Note_on_c, 0, 53, 0
2, 15771, Note_on_c, 0, 79, 84
2, 15774, Note_on_c, 0, 53, 36
2, 15778, Note_on_c, 0, 62, 0
2, 15840, Note_on_c, 0, 79, 0
2, 15872, Note_on_c, 0, 79, 60
2, 15879, Note_on_c, 0, 72, 62
2, 15880, Note_on_c, 0, 65, 50
2, 15882, Control_c, 0, 64, 0
2, 15885, Note_on_c, 0, 68, 30
2, 15934, Control_c, 0, 64, 127
2, 15957, Note_on_c, 0, 65, 0
2, 15990, Note_on_c, 0, 64, 34
2, 16002, Control_c, 0, 64, 0
2, 16020, Control_c, 0, 64, 127
2, 16065, Note_on_c, 0, 68, 0
2, 16067, Note_on_c, 0, 72, 0
2, 16071, Note_on_c, 0, 64, 0
2, 16099, Note_on_c, 0, 79, 0
2, 16120, Note_on_c, 0, 79, 42
2, 16120, Note_on_c, 0, 68, 27
2, 16122, Note_on_c, 0, 72, 34
2, 16125, Note_on_c, 0, 62, 28
2, 16130, Control_c, 0, 64, 0
2, 16170, Control_c, 0, 64, 127
2, 16300, Note_on_c, 0, 68, 0
2, 16310, Note_on_c, 0, 72, 0
2, 16445, Note_on_c, 0, 79, 0
2, 16453, Note_on_c, 0, 68, 29
2, 16646, Note_on_c, 0, 74, 32
2, 16670, Note_on_c, 0, 62, 0
2, 16671, Note_on_c, 0, 68, 0
2, 16672, Note_on_c, 0, 53, 0
2, 16727, Note_on_c, 0, 74, 0
2, 16741, Note_on_c, 0, 72, 49
2, 16744, Note_on_c, 0, 52, 34
2, 16749, Note_on_c, 0, 60, 22
2, 16750, Control_c, 0, 64, 0
2, 16780, Control_c, 0, 64, 127
2, 16807, Note_on_c, 0, 60, 0
2, 16851, Note_on_c, 0, 60, 46
2, 16887, Note_on_c, 0, 60, 0
2, 16922, Note_on_c, 0, 52, 0
2, 16946, Note_on_c, 0, 67, 57
2, 16946, Note_on_c, 0, 64, 51
2, 16997, Note_on_c, 0, 72, 0
2, 17028, Note_on_c, 0, 67, 0
2, 17042, Note_on_c, 0, 64, 0
2, 17044, Note_on_c, 0, 43, 60
2, 17148, Note_on_c, 0, 60, 61
2, 17149, Note_on_c, 0, 64, 47
2, 17149, Note_on_c, 0, 55, 54
2, 17150, Note_on_c, 0, 67, 51
2, 17190, Note_on_c, 0, 43, 0
2, 17235, Note_on_c, 0, 64, 0
2, 17246, Note_on_c, 0, 60, 0
2, 17249, Note_on_c, 0, 67, 0
2, 17250, Note_on_c, 0, 31, 51
2, 17260, Note_on_c, 0, 55, 0
2, 17352, Note_on_c, 0, 53, 60
2, 17354, Note_on_c, 0, 57, 66
2, 17354, Note_on_c, 0, 60, 68
2, 17356, Note_on_c, 0, 43, 41
2, 17362, Control_c, 0, 64, 0
2, 17408, Control_c, 0, 64, 127
2, 17434, Note_on_c, 0, 31, 0
2, 17468, Note_on_c, 0, 31, 91
2, 17478, Control_c, 0, 64, 0
2, 17484, Control_c, 0, 64, 127
2, 17528, Note_on_c, 0, 57, 0
2, 17529, Note_on_c, 0, 60, 0
2, 17544, Note_on_c, 0, 53, 0
2, 17560, Note_on_c, 0, 43, 0
2, 17574, Note_on_c, 0, 53, 54
2, 17575, Note_on_c, 0, 56, 53
2, 17576, Note_on_c, 0, 59, 64
2, 17579, Note_on_c, 0, 43, 44
2, 17590, Control_c, 0, 64, 0
2, 17657, Control_c, 0, 64, 127
2, 17664, Note_on_c, 0, 31, 0
2, 17681, Note_on_c, 0, 31, 57
2, 17724, Note_on_c, 0, 43, 0
2, 17741, Note_on_c, 0, 53, 0
2, 17754, Note_on_c, 0, 56, 0
2, 17790, Note_on_c, 0, 43, 36
2, 17832, Note_on_c, 0, 56, 1
2, 17944, Note_on_c, 0, 31, 0
2, 17976, Note_on_c, 0, 59, 0
2, 17976, Note_on_c, 0, 43, 0
2, 17992, Note_on_c, 0, 60, 50
2, 18008, Note_on_c, 0, 56, 0
2, 18038, Note_on_c, 0, 60, 0
2, 18110, Control_c, 0, 64, 0
2, 18120, Note_on_c, 0, 60, 49
2, 18121, Note_on_c, 0, 52, 36
2, 18124, Note_on_c, 0, 36, 41
2, 18146, Control_c, 0, 64, 127
2, 18160, Note_on_c, 0, 52, 0
2, 18173, Note_on_c, 0, 60, 0
2, 18249, Note_on_c, 0, 36, 0
2, 18250, Note_on_c, 0, 72, 35
2, 18251, Note_on_c, 0, 64, 47
2, 18254, Note_on_c, 0, 43, 35
2, 18263, Note_on_c, 0, 43, 0
2, 18357, Note_on_c, 0, 64, 0
2, 18360, Note_on_c, 0, 55, 36
2, 18372, Note_on_c, 0, 72, 0
2, 18460, Note_on_c, 0, 77, 74
2, 18467, Note_on_c, 0, 69, 73
2, 18470, Note_on_c, 0, 60, 34
2, 18518, Note_on_c, 0, 77, 0
2, 18526, Note_on_c, 0, 69, 0
2, 18536, Note_on_c, 0, 60, 0
2, 18569, Note_on_c, 0, 76, 66
2, 18571, Note_on_c, 0, 67, 50
2, 18577, Note_on_c, 0, 60, 33
2, 18600, Note_on_c, 0, 55, 0
2, 18674, Note_on_c, 0, 76, 0
2, 18674, Note_on_c, 0, 48, 34
2, 18700, Note_on_c, 0, 67, 0
2, 18748, Note_on_c, 0, 60, 0
2, 18782, Note_on_c, 0, 72, 24
2, 18784, Note_on_c, 0, 64, 24
2, 18785, Note_on_c, 0, 67, 33
2, 18786, Note_on_c, 0, 55, 31
2, 18788, Control_c, 0, 64, 0
2, 18812, Control_c, 0, 64, 127
2, 18908, Note_on_c, 0, 60, 30
2, 18959, Note_on_c, 0, 64, 0
2, 19015, Note_on_c, 0, 64, 39
2, 19018, Note_on_c, 0, 60, 0
2, 19031, Note_on_c, 0, 67, 0
2, 19046, Note_on_c, 0, 72, 0
2, 19068, Note_on_c, 0, 64, 0
2, 19096, Note_on_c, 0, 55, 0
2, 19124, Note_on_c, 0, 76, 80
2, 19260, Note_on_c, 0, 72, 29
2, 19263, Note_on_c, 0, 68, 28
2, 19265, Note_on_c, 0, 64, 35
2, 19272, Note_on_c, 0, 58, 23
2, 19279, Control_c, 0, 64, 0
2, 19303, Control_c, 0, 64, 127
2, 19424, Note_on_c, 0, 58, 0
2, 19452, Note_on_c, 0, 76, 0
2, 19459, Note_on_c, 0, 72, 0
2, 19460, Note_on_c, 0, 48, 0
2, 19474, Note_on_c, 0, 64, 0
2, 19477, Note_on_c, 0, 68, 0
2, 19670, Control_c, 0, 64, 0
2, 19676, Note_on_c, 0, 77, 87
2, 19677, Note_on_c, 0, 45, 53
2, 19690, Control_c, 0, 64, 127
2, 19698, Note_on_c, 0, 45, 0
2, 19807, Note_on_c, 0, 77, 0
2, 19809, Note_on_c, 0, 65, 36
2, 19810, Note_on_c, 0, 69, 45
2, 19812, Note_on_c, 0, 57, 36
2, 19814, Note_on_c, 0, 60, 28
2, 19939, Note_on_c, 0, 76, 60
2, 19957, Note_on_c, 0, 65, 0
2, 19968, Note_on_c, 0, 69, 0
2, 19976, Note_on_c, 0, 76, 0
2, 19988, Note_on_c, 0, 57, 0
2, 20009, Note_on_c, 0, 60, 0
2, 20010, Note_on_c, 0, 77, 69
2, 20041, Note_on_c, 0, 77, 0
2, 20114, Note_on_c, 0, 84, 83
2, 20114, Note_on_c, 0, 55, 48
2, 20124, Control_c, 0, 64, 0
2, 20148, Control_c, 0, 64, 127
2, 20183, Note_on_c, 0, 84, 0
2, 20271, Note_on_c, 0, 70, 31
2, 20276, Note_on_c, 0, 76, 31
2, 20282, Note_on_c, 0, 64, 22
2, 20502, Note_on_c, 0, 82, 61
2, 20536, Note_on_c, 0, 64, 0
2, 20540, Note_on_c, 0, 55, 0
2, 20560, Note_on_c, 0, 76, 0
2, 20564, Note_on_c, 0, 82, 0
2, 20566, Note_on_c, 0, 70, 0
2, 20674, Note_on_c, 0, 73, 32
2, 20676, Note_on_c, 0, 81, 51
2, 20681, Note_on_c, 0, 53, 32
2, 20685, Control_c, 0, 64, 0
2, 20725, Control_c, 0, 64, 127
2, 20767, Note_on_c, 0, 61, 33
2, 20785, Note_on_c, 0, 81, 0
2, 20862, Note_on_c, 0, 69, 42
2, 20866, Note_on_c, 0, 64, 24
2, 20956, Note_on_c, 0, 79, 63
2, 21008, Note_on_c, 0, 64, 0
2, 21028, Note_on_c, 0, 79, 0
2, 21036, Note_on_c, 0, 73, 0
2, 21036, Note_on_c, 0, 69, 0
2, 21040, Note_on_c, 0, 61, 0
2, 21040, Note_on_c, 0, 77, 73
2, 21046, Note_on_c, 0, 79, 28
2, 21047, Note_on_c, 0, 62, 45
2, 21054, Note_on_c, 0, 79, 0
2, 21117, Note_on_c, 0, 77, 0
2, 21137, Note_on_c, 0, 65, 49
2, 21222, Note_on_c, 0, 65, 0
2, 21228, Note_on_c, 0, 69, 50
2, 21316, Note_on_c, 0, 62, 0
2, 21318, Note_on_c, 0, 76, 62
2, 21379, Note_on_c, 0, 69, 0
2, 21410, Note_on_c, 0, 76, 0
2, 21422, Note_on_c, 0, 74, 41
2, 21425, Note_on_c, 0, 69, 39
2, 21428, Note_on_c, 0, 65, 22
2, 21431, Note_on_c, 0, 60, 27
2, 21437, Control_c, 0, 64, 0
2, 21465, Control_c, 0, 64, 127
2, 21492, Note_on_c, 0, 65, 0
2, 21528, Note_on_c, 0, 65, 22
2, 21541, Note_on_c, 0, 53, 0
2, 21545, Note_on_c, 0, 69, 0
2, 21598, Note_on_c, 0, 74, 0
2, 21627, Note_on_c, 0, 69, 54
2, 21708, Note_on_c, 0, 69, 0
2, 21738, Note_on_c, 0, 65, 0
2, 21849, Note_on_c, 0, 72, 41
2, 21899, Note_on_c, 0, 65, 1
2, 21920, Note_on_c, 0, 72, 0
2, 21922, Note_on_c, 0, 65, 0
2, 21967, Note_on_c, 0, 60, 0
2, 21978, Note_on_c, 0, 72, 32
2, 21982, Note_on_c, 0, 64, 26
2, 21986, Note_on_c, 0, 52, 34
2, 21993, Control_c, 0, 64, 0
2, 22025, Control_c, 0, 64, 127
2, 22060, Note_on_c, 0, 64, 0
2, 22084, Note_on_c, 0, 72, 0
2, 22096, Note_on_c, 0, 71, 56
2, 22099, Note_on_c, 0, 67, 60
2, 22099, Note_on_c, 0, 62, 47
2, 22104, Note_on_c, 0, 60, 30
2, 22165, Note_on_c, 0, 52, 0
2, 22174, Note_on_c, 0, 62, 0
2, 22189, Note_on_c, 0, 71, 0
2, 22210, Note_on_c, 0, 72, 55
2, 22212, Note_on_c, 0, 52, 37
2, 22236, Note_on_c, 0, 67, 0
2, 22246, Note_on_c, 0, 72, 0
2, 22249, Note_on_c, 0, 60, 0
2, 22278, Note_on_c, 0, 52, 0
2, 22332, Note_on_c, 0, 71, 57
2, 22333, Note_on_c, 0, 79, 64
2, 22336, Note_on_c, 0, 50, 35
2, 22339, Note_on_c, 0, 59, 32
2, 22340, Control_c, 0, 64, 0
2, 22384, Control_c, 0, 64, 127
2, 22416, Note_on_c, 0, 59, 0
2, 22450, Note_on_c, 0, 71, 0
2, 22458, Note_on_c, 0, 79, 0
2, 22469, Note_on_c, 0, 71, 28
2, 22472, Note_on_c, 0, 59, 37
2, 22474, Note_on_c, 0, 67, 39
2, 22481, Note_on_c, 0, 62, 30
2, 22530, Note_on_c, 0, 67, 0
2, 22562, Note_on_c, 0, 62, 0
2, 22682, Note_on_c, 0, 71, 0
2, 22707, Note_on_c, 0, 59, 0
2, 22750, Note_on_c, 0, 77, 55
2, 22757, Note_on_c, 0, 65, 71
2, 22759, Note_on_c, 0, 62, 24
2, 22791, Note_on_c, 0, 62, 0
2, 22810, Note_on_c, 0, 50, 0
2, 22818, Note_on_c, 0, 77, 0
2, 22826, Note_on_c, 0, 65, 0
2, 22960, Note_on_c, 0, 76, 55
2, 22964, Note_on_c, 0, 48, 31
2, 22968, Note_on_c, 0, 64, 30
2, 22982, Control_c, 0, 64, 0
2, 22998, Control_c, 0, 64, 127
2, 23059, Note_on_c, 0, 64, 0
2, 23101, Note_on_c, 0, 76, 0
2, 23109, Note_on_c, 0, 64, 32
2, 23109, Note_on_c, 0, 67, 45
2, 23137, Note_on_c, 0, 60, 6
2, 23153, Note_on_c, 0, 48, 0
2, 23194, Note_on_c, 0, 64, 0
2, 23197, Note_on_c, 0, 60, 0
2, 23209, Note_on_c, 0, 67, 0
2, 23254, Note_on_c, 0, 72, 44
2, 23334, Note_on_c, 0, 72, 0
2, 23422, Note_on_c, 0, 76, 48
2, 23425, Note_on_c, 0, 68, 31
2, 23426, Note_on_c, 0, 64, 37
2, 23426, Note_on_c, 0, 72, 31
2, 23431, Note_on_c, 0, 58, 33
2, 23445, Control_c, 0, 64, 0
2, 23469, Control_c, 0, 64, 127
2, 23492, Note_on_c, 0, 64, 0
2, 23502, Note_on_c, 0, 68, 0
2, 23508, Note_on_c, 0, 72, 0
2, 23515, Note_on_c, 0, 76, 0
2, 23595, Note_on_c, 0, 84, 51
2, 23599, Note_on_c, 0, 76, 32
2, 23626, Note_on_c, 0, 76, 0
2, 23629, Note_on_c, 0, 84, 0
2, 23792, Note_on_c, 0, 100, 35
2, 23826, Note_on_c, 0, 100, 0
2, 23958, Note_on_c, 0, 58, 0
2, 24068, Note_on_c, 0, 77, 75
2, 24072, Note_on_c, 0, 57, 52
2, 24081, Control_c, 0, 64, 0
2, 24101, Control_c, 0, 64, 127
2, 24156, Note_on_c, 0, 77, 0
2, 24169, Note_on_c, 0, 60, 37
2, 24170, Note_on_c, 0, 76, 76
2, 24170, Note_on_c, 0, 65, 36
2, 24215, Note_on_c, 0, 57, 0
2, 24243, Note_on_c, 0, 76, 0
2, 24259, Note_on_c, 0, 57, 48
2, 24260, Note_on_c, 0, 77, 67
2, 24285, Note_on_c, 0, 77, 0
2, 24350, Note_on_c, 0, 57, 0
2, 24354, Note_on_c, 0, 65, 0
2, 24359, Note_on_c, 0, 60, 0
2, 24362, Note_on_c, 0, 84, 76
2, 24364, Control_c, 0, 64, 0
2, 24364, Note_on_c, 0, 55, 44
2, 24404, Control_c, 0, 64, 127
2, 24492, Note_on_c, 0, 84, 0
2, 24496, Note_on_c, 0, 76, 35
2, 24498, Note_on_c, 0, 72, 28
2, 24498, Note_on_c, 0, 60, 28
2, 24500, Note_on_c, 0, 64, 24
2, 24661, Note_on_c, 0, 64, 0
2, 24665, Note_on_c, 0, 82, 57
2, 24666, Note_on_c, 0, 60, 0
2, 24672, Note_on_c, 0, 55, 0
2, 24724, Note_on_c, 0, 82, 0
2, 24734, Note_on_c, 0, 72, 0
2, 24734, Note_on_c, 0, 76, 0
2, 24838, Note_on_c, 0, 81, 65
2, 24839, Control_c, 0, 64, 0
2, 24840, Note_on_c, 0, 69, 44
2, 24843, Note_on_c, 0, 41, 47
2, 24851, Control_c, 0, 64, 127
2, 24868, Note_on_c, 0, 41, 0
2, 24964, Note_on_c, 0, 81, 0
2, 24993, Note_on_c, 0, 62, 27
2, 24994, Note_on_c, 0, 60, 37
2, 24994, Note_on_c, 0, 57, 38
2, 24995, Note_on_c, 0, 53, 22
2, 25003, Note_on_c, 0, 69, 0
2, 25066, Note_on_c, 0, 57, 0
2, 25067, Note_on_c, 0, 62, 0
2, 25072, Note_on_c, 0, 60, 0
2, 25072, Note_on_c, 0, 53, 0
2, 25258, Note_on_c, 0, 86, 92
2, 25313, Note_on_c, 0, 86, 0
2, 25377, Note_on_c, 0, 78, 46
2, 25377, Note_on_c, 0, 86, 73
2, 25379, Note_on_c, 0, 74, 46
2, 25379, Note_on_c, 0, 26, 49
2, 25382, Note_on_c, 0, 38, 30
2, 25388, Control_c, 0, 64, 0
2, 25390, Control_c, 0, 64, 127
2, 25399, Note_on_c, 0, 26, 0
2, 25414, Note_on_c, 0, 38, 0
2, 25441, Note_on_c, 0, 86, 0
2, 25455, Note_on_c, 0, 78, 0
2, 25463, Note_on_c, 0, 74, 0
2, 25558, Note_on_c, 0, 66, 52
2, 25560, Note_on_c, 0, 62, 39
2, 25564, Note_on_c, 0, 54, 35
2, 25566, Note_on_c, 0, 60, 30
2, 25589, Note_on_c, 0, 60, 0
2, 25601, Note_on_c, 0, 54, 0
2, 25638, Note_on_c, 0, 62, 0
2, 25648, Note_on_c, 0, 66, 0
2, 25765, Note_on_c, 0, 66, 60
2, 25765, Note_on_c, 0, 74, 66
2, 25767, Note_on_c, 0, 69, 65
2, 25767, Note_on_c, 0, 62, 66
2, 25769, Note_on_c, 0, 54, 38
2, 25829, Note_on_c, 0, 54, 0
2, 25858, Note_on_c, 0, 62, 0
2, 25874, Note_on_c, 0, 74, 0
2, 25875, Note_on_c, 0, 69, 0
2, 25876, Note_on_c, 0, 66, 0
2, 25976, Note_on_c, 0, 74, 62
2, 25979, Note_on_c, 0, 70, 44
2, 25979, Note_on_c, 0, 65, 58
2, 25980, Note_on_c, 0, 32, 52
2, 25984, Control_c, 0, 64, 0
2, 25985, Note_on_c, 0, 44, 26
2, 26010, Control_c, 0, 64, 127
2, 26036, Note_on_c, 0, 32, 0
2, 26051, Note_on_c, 0, 44, 0
2, 26096, Note_on_c, 0, 70, 0
2, 26100, Note_on_c, 0, 65, 0
2, 26156, Note_on_c, 0, 74, 0
2, 26164, Note_on_c, 0, 70, 33
2, 26168, Note_on_c, 0, 65, 34
2, 26170, Note_on_c, 0, 54, 27
2, 26172, Note_on_c, 0, 60, 36
2, 26197, Note_on_c, 0, 65, 0
2, 26207, Note_on_c, 0, 70, 0
2, 26325, Note_on_c, 0, 86, 50
2, 26327, Note_on_c, 0, 77, 41
2, 26328, Note_on_c, 0, 82, 32
2, 26357, Note_on_c, 0, 77, 0
2, 26366, Note_on_c, 0, 86, 0
2, 26366, Note_on_c, 0, 82, 0
2, 26494, Note_on_c, 0, 98, 44
2, 26498, Note_on_c, 0, 94, 43
2, 26500, Note_on_c, 0, 89, 35
2, 26501, Note_on_c, 0, 65, 29
2, 26540, Note_on_c, 0, 98, 0
2, 26558, Note_on_c, 0, 89, 0
2, 26560, Note_on_c, 0, 94, 0
2, 26620, Note_on_c, 0, 65, 0
2, 26637, Note_on_c, 0, 60, 0
2, 26641, Note_on_c, 0, 54, 0
2, 26767, Note_on_c, 0, 62, 46
2, 26843, Note_on_c, 0, 62, 0
2, 26870, Note_on_c, 0, 62, 58
2, 26930, Note_on_c, 0, 62, 0
2, 26974, Note_on_c, 0, 62, 50
2, 26976, Note_on_c, 0, 53, 36
2, 26977, Note_on_c, 0, 60, 53
2, 26978, Note_on_c, 0, 57, 45
2, 26979, Control_c, 0, 64, 0
2, 26981, Note_on_c, 0, 43, 32
2, 26982, Note_on_c, 0, 50, 25
2, 27019, Control_c, 0, 64, 127
2, 27050, Note_on_c, 0, 62, 0
2, 27077, Note_on_c, 0, 62, 58
2, 27150, Note_on_c, 0, 62, 0
2, 27180, Note_on_c, 0, 62, 54
2, 27270, Note_on_c, 0, 62, 0
2, 27292, Note_on_c, 0, 62, 54
2, 27350, Note_on_c, 0, 62, 0
2, 27385, Note_on_c, 0, 53, 0
2, 27385, Note_on_c, 0, 57, 0
2, 27385, Note_on_c, 0, 43, 0
2, 27395, Note_on_c, 0, 50, 0
2, 27406, Note_on_c, 0, 60, 0
2, 27416, Note_on_c, 0, 62, 61
2, 27425, Note_on_c, 0, 60, 29
2, 27436, Note_on_c, 0, 60, 0
2, 27508, Note_on_c, 0, 62, 0
2, 27553, Note_on_c, 0, 60, 53
2, 27555, Note_on_c, 0, 56, 39
2, 27555, Note_on_c, 0, 62, 35
2, 27556, Note_on_c, 0, 55, 35
2, 27558, Note_on_c, 0, 43, 35
2, 27561, Control_c, 0, 64, 0
2, 27571, Note_on_c, 0, 53, 14
2, 27607, Control_c, 0, 64, 127
2, 27634, Note_on_c, 0, 62, 0
2, 27676, Note_on_c, 0, 62, 48
2, 27757, Note_on_c, 0, 62, 0
2, 27795, Note_on_c, 0, 62, 52
2, 27852, Note_on_c, 0, 62, 0
2, 27854, Note_on_c, 0, 53, 0
2, 27855, Note_on_c, 0, 43, 0
2, 27862, Note_on_c, 0, 55, 0
2, 27877, Note_on_c, 0, 56, 0
2, 27904, Note_on_c, 0, 60, 0
2, 27962, Note_on_c, 0, 62, 51
2, 28040, Note_on_c, 0, 62, 0
2, 28151, Note_on_c, 0, 60, 37
2, 28152, Note_on_c, 0, 62, 29
2, 28153, Note_on_c, 0, 53, 24
2, 28154, Note_on_c, 0, 56, 30
2, 28156, Note_on_c, 0, 43, 33
2, 28172, Control_c, 0, 64, 0
2, 28208, Control_c, 0, 64, 127
2, 28323, Note_on_c, 0, 62, 0
2, 28362, Note_on_c, 0, 53, 0
2, 28368, Note_on_c, 0, 43, 0
2, 28369, Note_on_c, 0, 60, 0
2, 28372, Note_on_c, 0, 56, 0
2, 28483, Note_on_c, 0, 74, 61
2, 28544, Note_on_c, 0, 74, 0
2, 28758, Note_on_c, 0, 72, 53
2, 28764, Note_on_c, 0, 48, 30
2, 28784, Control_c, 0, 64, 0
2, 28796, Control_c, 0, 64, 127
2, 28892, Note_on_c, 0, 64, 36
2, 28902, Note_on_c, 0, 60, 20
2, 28905, Note_on_c, 0, 55, 28
2, 28989, Note_on_c, 0, 64, 0
2, 28992, Note_on_c, 0, 72, 0
2, 29105, Note_on_c, 0, 72, 78
2, 29148, Note_on_c, 0, 48, 0
2, 29157, Note_on_c, 0, 74, 53
2, 29158, Note_on_c, 0, 72, 0
2, 29192, Note_on_c, 0, 72, 33
2, 29194, Note_on_c, 0, 74, 0
2, 29216, Note_on_c, 0, 72, 0
2, 29216, Note_on_c, 0, 71, 65
2, 29239, Note_on_c, 0, 71, 0
2, 29243, Note_on_c, 0, 55, 0
2, 29248, Note_on_c, 0, 50, 32
2, 29249, Note_on_c, 0, 72, 65
2, 29255, Control_c, 0, 64, 0
2, 29294, Note_on_c, 0, 60, 0
2, 29300, Control_c, 0, 64, 127
2, 29460, Note_on_c, 0, 65, 47
2, 29467, Note_on_c, 0, 60, 24
2, 29470, Note_on_c, 0, 57, 27
2, 29582, Note_on_c, 0, 65, 0
2, 29596, Note_on_c, 0, 72, 0
2, 29601, Note_on_c, 0, 71, 71
2, 29678, Note_on_c, 0, 71, 0
2, 29690, Note_on_c, 0, 50, 0
2, 29690, Note_on_c, 0, 72, 76
2, 29758, Note_on_c, 0, 72, 0
2, 29807, Note_on_c, 0, 57, 0
2, 29809, Note_on_c, 0, 72, 53
2, 29810, Note_on_c, 0, 60, 0
2, 29813, Note_on_c, 0, 64, 27
2, 29814, Note_on_c, 0, 52, 35
2, 29823, Control_c, 0, 64, 0
2, 29857, Control_c, 0, 64, 127
2, 29898, Note_on_c, 0, 64, 0
2, 29946, Note_on_c, 0, 72, 0
2, 29950, Note_on_c, 0, 67, 37
2, 29951, Note_on_c, 0, 62, 30
2, 29951, Note_on_c, 0, 64, 25
2, 29953, Note_on_c, 0, 59, 22
2, 30108, Note_on_c, 0, 64, 0
2, 30124, Note_on_c, 0, 67, 0
2, 30179, Note_on_c, 0, 52, 0
2, 30182, Note_on_c, 0, 59, 0
2, 30184, Note_on_c, 0, 62, 0
2, 30324, Note_on_c, 0, 76, 63
2, 30325, Note_on_c, 0, 72, 42
2, 30325, Note_on_c, 0, 67, 54
2, 30327, Note_on_c, 0, 62, 40
2, 30328, Note_on_c, 0, 56, 34
2, 30349, Control_c, 0, 64, 0
2, 30351, Control_c, 0, 64, 127
2, 30424, Note_on_c, 0, 62, 0
2, 30429, Note_on_c, 0, 72, 0
2, 30430, Note_on_c, 0, 76, 0
2, 30438, Note_on_c, 0, 67, 0
2, 30448, Note_on_c, 0, 56, 0
2, 30565, Note_on_c, 0, 64, 47
2, 30568, Note_on_c, 0, 45, 36
2, 30570, Note_on_c, 0, 59, 27
2, 30571, Control_c, 0, 64, 0
2, 30579, Note_on_c, 0, 52, 15
2, 30591, Control_c, 0, 64, 127
2, 30618, Note_on_c, 0, 59, 0
2, 30619, Note_on_c, 0, 45, 0
2, 30625, Note_on_c, 0, 64, 0
2, 30628, Note_on_c, 0, 52, 0
2, 30672, Note_on_c, 0, 83, 57
2, 30763, Note_on_c, 0, 83, 0
2, 30771, Note_on_c, 0, 76, 40
2, 30773, Note_on_c, 0, 71, 30
2, 30776, Note_on_c, 0, 72, 31
2, 30780, Note_on_c, 0, 60, 31
2, 30781, Note_on_c, 0, 59, 22
2, 30785, Note_on_c, 0, 64, 24
2, 30843, Note_on_c, 0, 71, 0
2, 30844, Note_on_c, 0, 72, 0
2, 30858, Note_on_c, 0, 76, 0
2, 30865, Note_on_c, 0, 84, 72
2, 30903, Note_on_c, 0, 64, 0
2, 30950, Note_on_c, 0, 84, 0
2, 30970, Note_on_c, 0, 76, 28
2, 30971, Note_on_c, 0, 64, 25
2, 30971, Note_on_c, 0, 71, 33
2, 30972, Note_on_c, 0, 72, 29
2, 31012, Note_on_c, 0, 71, 0
2, 31014, Note_on_c, 0, 72, 0
2, 31022, Note_on_c, 0, 76, 0
2, 31052, Note_on_c, 0, 59, 0
2, 31123, Note_on_c, 0, 95, 53
2, 31125, Note_on_c, 0, 64, 0
2, 31126, Note_on_c, 0, 93, 38
2, 31132, Note_on_c, 0, 60, 0
2, 31134, Note_on_c, 0, 93, 0
2, 31147, Note_on_c, 0, 95, 0
2, 31234, Note_on_c, 0, 91, 60
2, 31236, Note_on_c, 0, 47, 40
2, 31243, Control_c, 0, 64, 0
2, 31265, Control_c, 0, 64, 127
2, 31289, Note_on_c, 0, 91, 0
2, 31328, Note_on_c, 0, 55, 38
2, 31420, Note_on_c, 0, 59, 34
2, 31424, Note_on_c, 0, 62, 34
2, 31468, Note_on_c, 0, 59, 0
2, 31514, Note_on_c, 0, 59, 46
2, 31516, Note_on_c, 0, 62, 0
2, 31564, Note_on_c, 0, 55, 0
2, 31610, Note_on_c, 0, 67, 33
2, 31611, Note_on_c, 0, 55, 39
2, 31645, Note_on_c, 0, 67, 0
2, 31647, Note_on_c, 0, 59, 0
2, 31671, Note_on_c, 0, 47, 0
2, 31705, Note_on_c, 0, 47, 29
2, 31707, Note_on_c, 0, 79, 80
2, 31730, Note_on_c, 0, 47, 0
2, 31748, Note_on_c, 0, 79, 0
2, 31786, Note_on_c, 0, 55, 0
2, 31804, Note_on_c, 0, 79, 74
2, 31806, Note_on_c, 0, 70, 57
2, 31807, Control_c, 0, 64, 0
2, 31809, Note_on_c, 0, 73, 33
2, 31810, Note_on_c, 0, 55, 41
2, 31810, Note_on_c, 0, 46, 36
2, 31813, Note_on_c, 0, 78, 21
2, 31820, Note_on_c, 0, 78, 0
2, 31844, Note_on_c, 0, 46, 0
2, 31853, Control_c, 0, 64, 127
2, 31904, Note_on_c, 0, 57, 46
2, 31909, Note_on_c, 0, 55, 0
2, 32000, Note_on_c, 0, 57, 0
2, 32002, Note_on_c, 0, 58, 50
2, 32013, Control_c, 0, 64, 0
2, 32030, Control_c, 0, 64, 127
2, 32063, Note_on_c, 0, 70, 0
2, 32095, Note_on_c, 0, 70, 34
2, 32130, Note_on_c, 0, 79, 0
2, 32181, Note_on_c, 0, 78, 67
2, 32182, Note_on_c, 0, 61, 39
2, 32207, Note_on_c, 0, 58, 0
2, 32224, Note_on_c, 0, 61, 0
2, 32247, Note_on_c, 0, 78, 0
2, 32252, Note_on_c, 0, 70, 0
2, 32262, Note_on_c, 0, 79, 68
2, 32278, Note_on_c, 0, 73, 0
2, 32315, Note_on_c, 0, 79, 0
2, 32345, Note_on_c, 0, 79, 57
2, 32346, Note_on_c, 0, 45, 35
2, 32350, Note_on_c, 0, 72, 33
2, 32350, Note_on_c, 0, 69, 38
2, 32352, Control_c, 0, 64, 0
2, 32374, Control_c, 0, 64, 127
2, 32420, Note_on_c, 0, 69, 0
2, 32426, Note_on_c, 0, 53, 38
2, 32428, Note_on_c, 0, 72, 0
2, 32430, Note_on_c, 0, 79, 0
2, 32504, Note_on_c, 0, 45, 0
2, 32504, Note_on_c, 0, 53, 0
2, 32505, Note_on_c, 0, 84, 75
2, 32508, Note_on_c, 0, 57, 52
2, 32566, Note_on_c, 0, 57, 0
2, 32588, Note_on_c, 0, 60, 46
2, 32594, Note_on_c, 0, 84, 0
2, 32668, Note_on_c, 0, 60, 0
2, 32672, Note_on_c, 0, 77, 50
2, 32673, Note_on_c, 0, 69, 33
2, 32678, Note_on_c, 0, 62, 40
2, 32742, Note_on_c, 0, 62, 0
2, 32750, Note_on_c, 0, 69, 0
2, 32758, Note_on_c, 0, 65, 57
2, 32777, Note_on_c, 0, 65, 0
2, 32854, Note_on_c, 0, 68, 47
2, 32856, Note_on_c, 0, 72, 35
2, 32858, Note_on_c, 0, 67, 68
2, 32870, Control_c, 0, 64, 0
2, 32924, Control_c, 0, 64, 127
2, 32950, Note_on_c, 0, 67, 0
2, 32957, Note_on_c, 0, 65, 39
2, 32981, Note_on_c, 0, 65, 0
2, 33004, Note_on_c, 0, 68, 0
2, 33014, Note_on_c, 0, 72, 0
2, 33047, Note_on_c, 0, 68, 31
2, 33048, Note_on_c, 0, 72, 26
2, 33054, Note_on_c, 0, 64, 31
2, 33100, Note_on_c, 0, 64, 0
2, 33140, Note_on_c, 0, 72, 0
2, 33146, Note_on_c, 0, 77, 0
2, 33150, Note_on_c, 0, 68, 0
2, 33154, Note_on_c, 0, 60, 26
2, 33202, Note_on_c, 0, 60, 0
2, 33247, Note_on_c, 0, 65, 35
2, 33248, Note_on_c, 0, 68, 32
2, 33253, Note_on_c, 0, 56, 27
2, 33315, Note_on_c, 0, 60, 1
2, 33324, Note_on_c, 0, 56, 0
2, 33326, Note_on_c, 0, 65, 0
2, 33336, Note_on_c, 0, 68, 0
2, 33345, Note_on_c, 0, 53, 38
2, 33352, Note_on_c, 0, 60, 0
2, 33359, Note_on_c, 0, 53, 0
2, 33445, Note_on_c, 0, 43, 33
2, 33445, Note_on_c, 0, 64, 36
2, 33446, Note_on_c, 0, 55, 30
2, 33446, Note_on_c, 0, 52, 24
2, 33448, Note_on_c, 0, 60, 36
2, 33454, Control_c, 0, 64, 0
2, 33490, Control_c, 0, 64, 127
2, 33522, Note_on_c, 0, 55, 0
2, 33546, Note_on_c, 0, 55, 45
2, 33552, Note_on_c, 0, 60, 0
2, 33598, Note_on_c, 0, 55, 0
2, 33608, Note_on_c, 0, 64, 0
2, 33638, Note_on_c, 0, 60, 65
2, 33659, Note_on_c, 0, 60, 0
2, 33712, Note_on_c, 0, 52, 0
2, 33725, Note_on_c, 0, 76, 85
2, 33727, Note_on_c, 0, 69, 89
2, 33799, Note_on_c, 0, 76, 0
2, 33804, Note_on_c, 0, 69, 0
2, 33814, Note_on_c, 0, 72, 54
2, 33816, Note_on_c, 0, 64, 56
2, 33836, Note_on_c, 0, 72, 0
2, 33846, Note_on_c, 0, 64, 0
2, 33890, Note_on_c, 0, 52, 36
2, 33899, Note_on_c, 0, 52, 0
2, 33914, Note_on_c, 0, 43, 0
2, 33972, Note_on_c, 0, 52, 51
2, 33974, Note_on_c, 0, 57, 52
2, 33975, Note_on_c, 0, 42, 28
2, 33975, Note_on_c, 0, 30, 37
2, 33987, Note_on_c, 0, 52, 0
2, 33993, Note_on_c, 0, 30, 0
2, 33995, Note_on_c, 0, 57, 0
2, 33999, Note_on_c, 0, 42, 0
2, 34056, Note_on_c, 0, 64, 69
2, 34101, Note_on_c, 0, 64, 0
2, 34130, Note_on_c, 0, 69, 78
2, 34166, Note_on_c, 0, 69, 0
2, 34220, Note_on_c, 0, 54, 37
2, 34220, Note_on_c, 0, 76, 67
2, 34220, Control_c, 0, 64, 0
2, 34222, Note_on_c, 0, 69, 56
2, 34225, Note_on_c, 0, 64, 49
2, 34240, Control_c, 0, 64, 127
2, 34284, Note_on_c, 0, 69, 0
2, 34284, Note_on_c, 0, 76, 0
2, 34294, Note_on_c, 0, 64, 0
2, 34312, Note_on_c, 0, 75, 58
2, 34314, Note_on_c, 0, 64, 29
2, 34314, Note_on_c, 0, 69, 54
2, 34318, Note_on_c, 0, 60, 28
2, 34351, Note_on_c, 0, 64, 0
2, 34371, Note_on_c, 0, 75, 0
2, 34386, Note_on_c, 0, 60, 0
2, 34397, Note_on_c, 0, 76, 60
2, 34399, Note_on_c, 0, 64, 37
2, 34403, Note_on_c, 0, 60, 13
2, 34418, Note_on_c, 0, 64, 0
2, 34424, Note_on_c, 0, 69, 0
2, 34444, Note_on_c, 0, 76, 0
2, 34455, Note_on_c, 0, 54, 0
2, 34478, Note_on_c, 0, 60, 0
2, 34486, Note_on_c, 0, 76, 44
2, 34486, Control_c, 0, 64, 0
2, 34488, Note_on_c, 0, 64, 39
2, 34489, Note_on_c, 0, 69, 48
2, 34496, Note_on_c, 0, 53, 29
2, 34508, Control_c, 0, 64, 127
2, 34534, Note_on_c, 0, 64, 0
2, 34568, Note_on_c, 0, 69, 0
2, 34580, Note_on_c, 0, 76, 0
2, 34580, Note_on_c, 0, 60, 31
2, 34669, Note_on_c, 0, 81, 53
2, 34674, Note_on_c, 0, 69, 32
2, 34675, Note_on_c, 0, 64, 14
2, 34681, Note_on_c, 0, 60, 0
2, 34714, Note_on_c, 0, 69, 0
2, 34739, Note_on_c, 0, 81, 0
2, 34764, Note_on_c, 0, 60, 33
2, 34866, Note_on_c, 0, 84, 57
2, 34876, Note_on_c, 0, 72, 26
2, 34898, Note_on_c, 0, 53, 0
2, 34959, Note_on_c, 0, 53, 26
2, 34994, Note_on_c, 0, 53, 0
2, 34998, Note_on_c, 0, 72, 0
2, 35010, Note_on_c, 0, 84, 0
2, 35069, Note_on_c, 0, 64, 0
2, 35076, Note_on_c, 0, 60, 0
2, 35076, Note_on_c, 0, 54, 36
2, 35080, Note_on_c, 0, 84, 49
2, 35080, Control_c, 0, 64, 0
2, 35110, Control_c, 0, 64, 127
2, 35132, Note_on_c, 0, 84, 0
2, 35294, Note_on_c, 0, 64, 32
2, 35297, Note_on_c, 0, 69, 30
2, 35325, Note_on_c, 0, 64, 0
2, 35346, Note_on_c, 0, 69, 0
2, 35411, Note_on_c, 0, 64, 24
2, 35476, Note_on_c, 0, 64, 0
2, 35536, Note_on_c, 0, 81, 39
2, 35541, Note_on_c, 0, 69, 33
2, 35552, Note_on_c, 0, 64, 24
2, 35739, Note_on_c, 0, 81, 0
2, 35755, Note_on_c, 0, 69, 0
2, 35832, Note_on_c, 0, 64, 0
2, 35859, Note_on_c, 0, 54, 0
2, 35930, Note_on_c, 0, 72, 72
2, 35983, Note_on_c, 0, 72, 0
2, 36146, Note_on_c, 0, 72, 46
2, 36150, Note_on_c, 0, 67, 62
2, 36154, Note_on_c, 0, 64, 63
2, 36159, Note_on_c, 0, 62, 58
2, 36161, Control_c, 0, 64, 0
2, 36161, Note_on_c, 0, 43, 32
2, 36199, Control_c, 0, 64, 127
2, 36270, Note_on_c, 0, 55, 38
2, 36283, Note_on_c, 0, 62, 0
2, 36297, Note_on_c, 0, 64, 0
2, 36300, Note_on_c, 0, 67, 0
2, 36357, Note_on_c, 0, 72, 0
2, 36365, Note_on_c, 0, 67, 32
2, 36366, Note_on_c, 0, 62, 40
2, 36369, Note_on_c, 0, 64, 34
2, 36409, Note_on_c, 0, 55, 0
2, 36475, Note_on_c, 0, 55, 31
2, 36513, Note_on_c, 0, 62, 0
2, 36553, Note_on_c, 0, 64, 0
2, 36570, Note_on_c, 0, 62, 24
2, 36595, Note_on_c, 0, 43, 0
2, 36632, Note_on_c, 0, 67, 0
2, 36654, Note_on_c, 0, 43, 34
2, 36662, Note_on_c, 0, 62, 0
2, 36682, Note_on_c, 0, 55, 0
2, 36704, Note_on_c, 0, 43, 0
2, 36752, Note_on_c, 0, 57, 56
2, 36753, Note_on_c, 0, 65, 60
2, 36755, Note_on_c, 0, 43, 36
2, 36755, Note_on_c, 0, 62, 63
2, 36755, Note_on_c, 0, 60, 58
2, 36765, Control_c, 0, 64, 0
2, 36766, Note_on_c, 0, 53, 28
2, 36809, Control_c, 0, 64, 127
2, 36839, Note_on_c, 0, 43, 0
2, 36859, Note_on_c, 0, 43, 36
2, 36921, Note_on_c, 0, 43, 0
2, 36954, Note_on_c, 0, 43, 40
2, 36962, Note_on_c, 0, 62, 0
2, 36965, Note_on_c, 0, 60, 0
2, 36972, Note_on_c, 0, 65, 0
2, 36987, Note_on_c, 0, 57, 0
2, 36992, Note_on_c, 0, 53, 0
2, 37027, Note_on_c, 0, 43, 0
2, 37055, Note_on_c, 0, 53, 53
2, 37055, Note_on_c, 0, 62, 67
2, 37056, Note_on_c, 0, 56, 37
2, 37058, Note_on_c, 0, 59, 61
2, 37059, Note_on_c, 0, 43, 44
2, 37070, Control_c, 0, 64, 0
2, 37102, Control_c, 0, 64, 127
2, 37157, Note_on_c, 0, 43, 0
2, 37254, Note_on_c, 0, 43, 47
2, 37320, Note_on_c, 0, 43, 0
2, 37344, Note_on_c, 0, 43, 47
2, 37375, Note_on_c, 0, 59, 0
2, 37378, Note_on_c, 0, 53, 0
2, 37396, Note_on_c, 0, 56, 0
2, 37413, Note_on_c, 0, 62, 0
2, 37439, Note_on_c, 0, 64, 68
2, 37439, Note_on_c, 0, 52, 36
2, 37440, Note_on_c, 0, 57, 66
2, 37440, Note_on_c, 0, 60, 66
2, 37441, Note_on_c, 0, 55, 61
2, 37477, Note_on_c, 0, 60, 0
2, 37480, Note_on_c, 0, 64, 0
2, 37487, Note_on_c, 0, 57, 0
2, 37491, Note_on_c, 0, 55, 0
2, 37494, Note_on_c, 0, 52, 0
2, 37504, Note_on_c, 0, 43, 0
2, 37531, Note_on_c, 0, 60, 50
2, 37532, Note_on_c, 0, 43, 50
2, 37532, Note_on_c, 0, 57, 64
2, 37532, Note_on_c, 0, 55, 66
2, 37532, Note_on_c, 0, 52, 51
2, 37535, Control_c, 0, 64, 0
2, 37565, Control_c, 0, 64, 127
2, 37574, Note_on_c, 0, 52, 0
2, 37599, Note_on_c, 0, 55, 0
2, 37604, Note_on_c, 0, 57, 0
2, 37605, Note_on_c, 0, 60, 0
2, 37631, Note_on_c, 0, 55, 74
2, 37721, Note_on_c, 0, 72, 68
2, 37722, Note_on_c, 0, 69, 79
2, 37722, Note_on_c, 0, 67, 80
2, 37723, Note_on_c, 0, 64, 79
2, 37750, Note_on_c, 0, 43, 0
2, 37817, Note_on_c, 0, 43, 45
2, 37820, Note_on_c, 0, 72, 0
2, 37824, Note_on_c, 0, 69, 0
2, 37825, Note_on_c, 0, 67, 0
2, 37834, Note_on_c, 0, 64, 0
2, 37861, Note_on_c, 0, 55, 0
2, 37902, Note_on_c, 0, 43, 0
2, 38008, Note_on_c, 0, 53, 37
2, 38010, Note_on_c, 0, 57, 40
2, 38010, Note_on_c, 0, 43, 36
2, 38011, Note_on_c, 0, 60, 43
2, 38022, Control_c, 0, 64, 0
2, 38036, Control_c, 0, 64, 127
2, 38181, Note_on_c, 0, 53, 0
2, 38198, Note_on_c, 0, 57, 0
2, 38210, Note_on_c, 0, 60, 0
2, 38227, Note_on_c, 0, 43, 0
2, 38541, Note_on_c, 0, 72, 53
2, 38543, Note_on_c, 0, 48, 37
2, 38556, Control_c, 0, 64, 0
2, 38580, Control_c, 0, 64, 127
2, 38634, Note_on_c, 0, 67, 38
2, 38636, Note_on_c, 0, 64, 29
2, 38642, Note_on_c, 0, 55, 32
2, 38643, Note_on_c, 0, 60, 20
2, 38757, Note_on_c, 0, 64, 0
2, 38774, Note_on_c, 0, 67, 0
2, 38779, Note_on_c, 0, 72, 0
2, 38821, Note_on_c, 0, 48, 0
2, 38867, Note_on_c, 0, 60, 0
2, 38894, Note_on_c, 0, 48, 34
2, 38900, Note_on_c, 0, 55, 0
2, 38944, Note_on_c, 0, 84, 62
2, 38947, Note_on_c, 0, 77, 44
2, 38949, Control_c, 0, 64, 0
2, 38952, Note_on_c, 0, 72, 35
2, 38958, Note_on_c, 0, 57, 24
2, 38964, Note_on_c, 0, 60, 24
2, 38987, Control_c, 0, 64, 127
2, 39048, Note_on_c, 0, 57, 0
2, 39067, Note_on_c, 0, 72, 0
2, 39084, Note_on_c, 0, 77, 0
2, 39102, Note_on_c, 0, 84, 0
2, 39125, Note_on_c, 0, 60, 0
2, 39242, Note_on_c, 0, 48, 0
2, 39284, Note_on_c, 0, 83, 51
2, 39314, Note_on_c, 0, 83, 0
2, 39324, Note_on_c, 0, 86, 74
2, 39346, Note_on_c, 0, 86, 0
2, 39358, Control_c, 0, 64, 0
2, 39365, Note_on_c, 0, 52, 37
2, 39367, Note_on_c, 0, 84, 57
2, 39384, Control_c, 0, 64, 127
2, 39404, Note_on_c, 0, 84, 0
2, 39464, Note_on_c, 0, 67, 40
2, 39466, Note_on_c, 0, 62, 32
2, 39468, Note_on_c, 0, 59, 28
2, 39584, Note_on_c, 0, 52, 0
2, 39586, Note_on_c, 0, 59, 0
2, 39588, Note_on_c, 0, 67, 0
2, 39590, Note_on_c, 0, 62, 0
2, 39603, Note_on_c, 0, 62, 54
2, 39604, Note_on_c, 0, 56, 39
2, 39604, Note_on_c, 0, 67, 47
2, 39631, Note_on_c, 0, 62, 0
2, 39634, Note_on_c, 0, 67, 0
2, 39651, Control_c, 0, 64, 0
2, 39654, Note_on_c, 0, 56, 0
2, 39671, Note_on_c, 0, 83, 78
2, 39698, Note_on_c, 0, 83, 0
2, 39710, Note_on_c, 0, 86, 90
2, 39734, Note_on_c, 0, 86, 0
2, 39753, Note_on_c, 0, 84, 82
2, 39760, Note_on_c, 0, 64, 36
2, 39761, Note_on_c, 0, 57, 36
2, 39761, Note_on_c, 0, 60, 40
2, 39783, Note_on_c, 0, 84, 0
2, 39802, Note_on_c, 0, 80, 26
2, 39826, Note_on_c, 0, 80, 0
2, 39844, Note_on_c, 0, 83, 62
2, 39874, Note_on_c, 0, 83, 0
2, 39888, Note_on_c, 0, 81, 53
2, 39926, Control_c, 0, 64, 127
2, 39927, Note_on_c, 0, 81, 0
2, 39936, Note_on_c, 0, 76, 42
2, 39956, Note_on_c, 0, 76, 0
2, 39980, Note_on_c, 0, 74, 48
2, 39994, Control_c, 0, 64, 0
2, 40013, Note_on_c, 0, 64, 0
2, 40015, Note_on_c, 0, 74, 0
2, 40023, Note_on_c, 0, 72, 27
2, 40054, Note_on_c, 0, 72, 0
2, 40058, Control_c, 0, 64, 127
2, 40064, Note_on_c, 0, 60, 0
2, 40069, Note_on_c, 0, 71, 50
2, 40084, Note_on_c, 0, 57, 0
2, 40109, Note_on_c, 0, 71, 0
2, 40113, Note_on_c, 0, 74, 60
2, 40142, Note_on_c, 0, 74, 0
2, 40161, Note_on_c, 0, 72, 45
2, 40191, Note_on_c, 0, 72, 0
2, 40205, Control_c, 0, 64, 0
2, 40208, Note_on_c, 0, 47, 30
2, 40208, Note_on_c, 0, 71, 57
2, 40218, Note_on_c, 0, 55, 19
2, 40239, Control_c, 0, 64, 127
2, 40292, Note_on_c, 0, 55, 0
2, 40311, Note_on_c, 0, 71, 0
2, 40360, Note_on_c, 0, 62, 35
2, 40369, Note_on_c, 0, 55, 24
2, 40506, Note_on_c, 0, 62, 0
2, 40512, Note_on_c, 0, 67, 46
2, 40536, Note_on_c, 0, 67, 0
2, 40564, Note_on_c, 0, 47, 0
2, 40576, Note_on_c, 0, 55, 0
2, 40596, Note_on_c, 0, 74, 71
2, 40617, Note_on_c, 0, 74, 0
2, 40650, Control_c, 0, 64, 0
2, 40655, Note_on_c, 0, 79, 65
2, 40658, Note_on_c, 0, 46, 31
2, 40659, Note_on_c, 0, 55, 34
2, 40670, Control_c, 0, 64, 127
2, 40682, Note_on_c, 0, 46, 0
2, 40686, Note_on_c, 0, 55, 0
2, 40793, Note_on_c, 0, 70, 34
2, 40796, Note_on_c, 0, 61, 23
2, 40802, Note_on_c, 0, 64, 24
2, 40803, Note_on_c, 0, 58, 25
2, 40841, Note_on_c, 0, 70, 0
2, 40845, Note_on_c, 0, 79, 0
2, 40981, Note_on_c, 0, 64, 0
2, 40995, Note_on_c, 0, 61, 0
2, 41008, Note_on_c, 0, 58, 0
2, 41095, Note_on_c, 0, 45, 50
2, 41102, Control_c, 0, 64, 0
2, 41113, Control_c, 0, 64, 127
2, 41116, Note_on_c, 0, 45, 0
2, 41332, Note_on_c, 0, 64, 40
2, 41335, Note_on_c, 0, 57, 33
2, 41345, Note_on_c, 0, 60, 28
2, 41408, Note_on_c, 0, 76, 64
2, 41444, Note_on_c, 0, 76, 0
2, 41462, Note_on_c, 0, 64, 0
2, 41464, Note_on_c, 0, 57, 0
2, 41474, Note_on_c, 0, 60, 0
2, 41482, Note_on_c, 0, 84, 88
2, 41511, Note_on_c, 0, 84, 0
2, 41551, Note_on_c, 0, 60, 48
2, 41551, Note_on_c, 0, 91, 90
2, 41551, Note_on_c, 0, 56, 39
2, 41552, Control_c, 0, 64, 0
2, 41553, Note_on_c, 0, 64, 35
2, 41599, Control_c, 0, 64, 127
2, 41628, Note_on_c, 0, 89, 64
2, 41638, Note_on_c, 0, 91, 0
2, 41648, Note_on_c, 0, 64, 0
2, 41705, Note_on_c, 0, 80, 36
2, 41710, Note_on_c, 0, 56, 0
2, 41714, Note_on_c, 0, 60, 0
2, 41778, Note_on_c, 0, 62, 35
2, 41779, Note_on_c, 0, 53, 30
2, 41793, Control_c, 0, 64, 0
2, 41803, Control_c, 0, 64, 127
2, 41831, Note_on_c, 0, 89, 0
2, 41840, Note_on_c, 0, 80, 0
2, 41861, Note_on_c, 0, 79, 46
2, 41901, Note_on_c, 0, 79, 0
2, 41916, Note_on_c, 0, 53, 0
2, 41917, Note_on_c, 0, 62, 0
2, 41936, Note_on_c, 0, 77, 70
2, 41962, Note_on_c, 0, 77, 0
2, 41963, Note_on_c, 0, 79, 56
2, 41986, Note_on_c, 0, 77, 47
2, 41988, Note_on_c, 0, 79, 0
2, 42011, Note_on_c, 0, 77, 0
2, 42012, Note_on_c, 0, 74, 35
2, 42028, Note_on_c, 0, 74, 0
2, 42036, Note_on_c, 0, 52, 24
2, 42038, Control_c, 0, 64, 0
2, 42042, Note_on_c, 0, 76, 50
2, 42080, Control_c, 0, 64, 127
2, 42115, Note_on_c, 0, 67, 40
2, 42127, Note_on_c, 0, 76, 0
2, 42127, Note_on_c, 0, 60, 29
2, 42177, Note_on_c, 0, 67, 0
2, 42202, Note_on_c, 0, 67, 39
2, 42230, Note_on_c, 0, 60, 0
2, 42292, Note_on_c, 0, 60, 26
2, 42343, Note_on_c, 0, 52, 0
2, 42372, Note_on_c, 0, 76, 77
2, 42385, Note_on_c, 0, 67, 0
2, 42436, Note_on_c, 0, 76, 0
2, 42443, Note_on_c, 0, 72, 44
2, 42490, Note_on_c, 0, 72, 0
2, 42513, Note_on_c, 0, 60, 0
2, 42517, Note_on_c, 0, 54, 36
2, 42518, Note_on_c, 0, 64, 45
2, 42519, Note_on_c, 0, 72, 36
2, 42524, Note_on_c, 0, 68, 31
2, 42525, Control_c, 0, 64, 0
2, 42568, Control_c, 0, 64, 127
2, 42587, Note_on_c, 0, 64, 0
2, 42633, Note_on_c, 0, 68, 0
2, 42686, Note_on_c, 0, 64, 29
2, 42687, Note_on_c, 0, 68, 20
2, 42698, Note_on_c, 0, 60, 20
2, 42743, Note_on_c, 0, 72, 0
2, 42784, Note_on_c, 0, 60, 0
2, 42825, Note_on_c, 0, 64, 0
2, 42832, Note_on_c, 0, 68, 0
2, 42858, Note_on_c, 0, 60, 20
2, 42918, Note_on_c, 0, 75, 62
2, 42946, Note_on_c, 0, 75, 0
2, 42958, Note_on_c, 0, 54, 0
2, 42958, Note_on_c, 0, 76, 80
2, 42990, Note_on_c, 0, 76, 0
2, 42995, Note_on_c, 0, 60, 0
2, 43007, Control_c, 0, 64, 0
2, 43008, Note_on_c, 0, 81, 77
2, 43014, Note_on_c, 0, 79, 35
2, 43014, Note_on_c, 0, 53, 31
2, 43021, Note_on_c, 0, 79, 0
2, 43039, Note_on_c, 0, 81, 0
2, 43045, Control_c, 0, 64, 127
2, 43057, Note_on_c, 0, 69, 44
2, 43097, Note_on_c, 0, 69, 0
2, 43106, Note_on_c, 0, 73, 37
2, 43114, Note_on_c, 0, 61, 31
2, 43124, Note_on_c, 0, 64, 19
2, 43163, Control_c, 0, 64, 0
2, 43181, Control_c, 0, 64, 127
2, 43249, Note_on_c, 0, 76, 66
2, 43260, Note_on_c, 0, 73, 0
2, 43275, Note_on_c, 0, 64, 0
2, 43290, Note_on_c, 0, 73, 25
2, 43291, Note_on_c, 0, 76, 0
2, 43322, Note_on_c, 0, 73, 0
2, 43332, Control_c, 0, 64, 0
2, 43337, Note_on_c, 0, 62, 50
2, 43337, Note_on_c, 0, 74, 74
2, 43340, Note_on_c, 0, 61, 0
2, 43354, Control_c, 0, 64, 127
2, 43387, Note_on_c, 0, 53, 0
2, 43395, Note_on_c, 0, 67, 31
2, 43397, Note_on_c, 0, 69, 26
2, 43404, Note_on_c, 0, 74, 0
2, 43411, Note_on_c, 0, 69, 0
2, 43465, Note_on_c, 0, 67, 0
2, 43475, Note_on_c, 0, 62, 0
2, 43489, Note_on_c, 0, 67, 62
2, 43492, Note_on_c, 0, 53, 36
2, 43501, Note_on_c, 0, 62, 29
2, 43504, Control_c, 0, 64, 0
2, 43546, Control_c, 0, 64, 127
2, 43594, Note_on_c, 0, 62, 0
2, 43612, Note_on_c, 0, 67, 0
2, 43637, Note_on_c, 0, 65, 36
2, 43644, Note_on_c, 0, 60, 19
2, 43668, Note_on_c, 0, 60, 0
2, 43719, Note_on_c, 0, 53, 0
2, 43788, Note_on_c, 0, 65, 0
2, 43792, Note_on_c, 0, 53, 26
2, 43795, Note_on_c, 0, 60, 25
2, 43810, Note_on_c, 0, 53, 0
2, 43844, Note_on_c, 0, 60, 0
2, 43943, Control_c, 0, 64, 0
2, 43945, Note_on_c, 0, 40, 26
2, 43947, Note_on_c, 0, 64, 34
2, 43949, Note_on_c, 0, 55, 24
2, 43952, Note_on_c, 0, 60, 30
2, 43954, Note_on_c, 0, 52, 17
2, 43963, Control_c, 0, 64, 127
2, 43969, Note_on_c, 0, 40, 0
2, 43984, Note_on_c, 0, 52, 0
2, 43990, Note_on_c, 0, 55, 0
2, 44020, Note_on_c, 0, 60, 0
2, 44027, Note_on_c, 0, 64, 0
2, 44109, Note_on_c, 0, 52, 39
2, 44112, Note_on_c, 0, 62, 28
2, 44185, Note_on_c, 0, 81, 87
2, 44200, Note_on_c, 0, 62, 0
2, 44220, Note_on_c, 0, 81, 0
2, 44233, Note_on_c, 0, 79, 55
2, 44238, Note_on_c, 0, 81, 33
2, 44248, Note_on_c, 0, 81, 0
2, 44264, Note_on_c, 0, 79, 0
2, 44277, Note_on_c, 0, 62, 32
2, 44280, Note_on_c, 0, 71, 37
2, 44290, Control_c, 0, 64, 0
2, 44306, Control_c, 0, 64, 127
2, 44328, Note_on_c, 0, 71, 0
2, 44336, Note_on_c, 0, 72, 50
2, 44385, Note_on_c, 0, 52, 0
2, 44408, Note_on_c, 0, 62, 0
2, 44424, Note_on_c, 0, 72, 0
2, 44430, Note_on_c, 0, 77, 67
2, 44432, Note_on_c, 0, 55, 56
2, 44439, Control_c, 0, 64, 0
2, 44465, Control_c, 0, 64, 127
2, 44526, Note_on_c, 0, 77, 0
2, 44611, Note_on_c, 0, 65, 29
2, 44650, Note_on_c, 0, 65, 0
2, 44687, Note_on_c, 0, 76, 58
2, 44688, Note_on_c, 0, 55, 0
2, 44704, Note_on_c, 0, 76, 0
2, 44768, Note_on_c, 0, 69, 47
2, 44770, Note_on_c, 0, 60, 32
2, 44770, Note_on_c, 0, 65, 34
2, 44776, Control_c, 0, 64, 0
2, 44776, Note_on_c, 0, 55, 18
2, 44798, Control_c, 0, 64, 127
2, 44846, Note_on_c, 0, 69, 0
2, 44848, Note_on_c, 0, 43, 36
2, 44855, Note_on_c, 0, 65, 0
2, 44862, Note_on_c, 0, 55, 0
2, 44869, Note_on_c, 0, 60, 0
2, 44935, Note_on_c, 0, 67, 45
2, 44938, Note_on_c, 0, 64, 40
2, 44938, Note_on_c, 0, 52, 24
2, 44940, Note_on_c, 0, 57, 29
2, 44941, Note_on_c, 0, 62, 45
2, 44950, Control_c, 0, 64, 0
2, 44996, Control_c, 0, 64, 127
2, 45036, Note_on_c, 0, 57, 0
2, 45053, Note_on_c, 0, 64, 0
2, 45064, Note_on_c, 0, 52, 0
2, 45069, Note_on_c, 0, 62, 0
2, 45082, Note_on_c, 0, 67, 0
2, 45094, Note_on_c, 0, 62, 24
2, 45095, Note_on_c, 0, 64, 22
2, 45096, Note_on_c, 0, 57, 31
2, 45099, Note_on_c, 0, 52, 24
2, 45146, Note_on_c, 0, 43, 0
2, 45181, Note_on_c, 0, 43, 45
2, 45190, Note_on_c, 0, 64, 0
2, 45204, Note_on_c, 0, 57, 0
2, 45210, Note_on_c, 0, 62, 0
2, 45211, Note_on_c, 0, 52, 0
2, 45255, Control_c, 0, 64, 0
2, 45259, Note_on_c, 0, 57, 65
2, 45260, Note_on_c, 0, 62, 60
2, 45260, Note_on_c, 0, 67, 52
2, 45261, Note_on_c, 0, 52, 32
2, 45262, Note_on_c, 0, 64, 55
2, 45271, Control_c, 0, 64, 127
2, 45288, Note_on_c, 0, 67, 0
2, 45288, Note_on_c, 0, 57, 0
2, 45292, Note_on_c, 0, 62, 0
2, 45293, Note_on_c, 0, 64, 0
2, 45302, Note_on_c, 0, 52, 0
2, 45342, Note_on_c, 0, 68, 64
2, 45342, Note_on_c, 0, 58, 64
2, 45343, Control_c, 0, 64, 0
2, 45344, Note_on_c, 0, 63, 62
2, 45344, Note_on_c, 0, 53, 44
2, 45358, Control_c, 0, 64, 127
2, 45372, Note_on_c, 0, 63, 0
2, 45376, Note_on_c, 0, 68, 0
2, 45380, Note_on_c, 0, 58, 0
2, 45392, Note_on_c, 0, 53, 0
2, 45424, Control_c, 0, 64, 0
2, 45425, Note_on_c, 0, 67, 62
2, 45427, Note_on_c, 0, 65, 55
2, 45429, Note_on_c, 0, 60, 58
2, 45429, Note_on_c, 0, 57, 44
2, 45430, Note_on_c, 0, 55, 52
2, 45478, Control_c, 0, 64, 127
2, 45485, Note_on_c, 0, 43, 0
2, 45507, Note_on_c, 0, 43, 37
2, 45510, Note_on_c, 0, 55, 0
2, 45525, Note_on_c, 0, 60, 0
2, 45541, Note_on_c, 0, 65, 0
2, 45542, Note_on_c, 0, 67, 0
2, 45551, Note_on_c, 0, 57, 0
2, 45594, Note_on_c, 0, 57, 31
2, 45594, Note_on_c, 0, 60, 38
2, 45595, Note_on_c, 0, 53, 36
2, 45650, Note_on_c, 0, 43, 0
2, 45678, Note_on_c, 0, 60, 0
2, 45678, Note_on_c, 0, 43, 41
2, 45698, Note_on_c, 0, 57, 0
2, 45703, Note_on_c, 0, 53, 0
2, 45758, Note_on_c, 0, 64, 48
2, 45760, Note_on_c, 0, 56, 30
2, 45761, Note_on_c, 0, 59, 47
2, 45761, Note_on_c, 0, 53, 25
2, 45764, Note_on_c, 0, 43, 0
2, 45814, Note_on_c, 0, 53, 0
2, 45817, Note_on_c, 0, 59, 0
2, 45821, Note_on_c, 0, 56, 0
2, 45827, Note_on_c, 0, 64, 0
2, 45837, Note_on_c, 0, 43, 30
2, 45912, Note_on_c, 0, 36, 36
2, 45913, Control_c, 0, 64, 0
2, 45914, Note_on_c, 0, 67, 38
2, 45920, Note_on_c, 0, 62, 34
2, 45921, Note_on_c, 0, 57, 38
2, 45922, Note_on_c, 0, 52, 30
2, 45922, Note_on_c, 0, 59, 36
2, 45947, Control_c, 0, 64, 127
2, 45953, Note_on_c, 0, 59, 0
2, 45954, Note_on_c, 0, 57, 0
2, 45956, Note_on_c, 0, 36, 0
2, 45967, Note_on_c, 0, 43, 0
2, 45973, Note_on_c, 0, 62, 0
2, 45975, Note_on_c, 0, 52, 0
2, 45991, Note_on_c, 0, 67, 0
2, 46070, Note_on_c, 0, 64, 37
2, 46071, Note_on_c, 0, 60, 43
2, 46072, Note_on_c, 0, 59, 38
2, 46078, Note_on_c, 0, 72, 41
2, 46081, Control_c, 0, 64, 0
2, 46132, Note_on_c, 0, 72, 0
2, 46144, Note_on_c, 0, 74, 44
2, 46154, Note_on_c, 0, 72, 35
2, 46164, Note_on_c, 0, 74, 0
2, 46179, Note_on_c, 0, 71, 66
2, 46183, Note_on_c, 0, 72, 0
2, 46194, Note_on_c, 0, 64, 0
2, 46201, Note_on_c, 0, 60, 0
2, 46203, Note_on_c, 0, 71, 0
2, 46215, Note_on_c, 0, 59, 0
2, 46230, Note_on_c, 0, 72, 74
2, 46232, Control_c, 0, 64, 127
2, 46234, Note_on_c, 0, 60, 48
2, 46236, Note_on_c, 0, 64, 43
2, 46240, Note_on_c, 0, 59, 33
2, 46274, Note_on_c, 0, 64, 0
2, 46281, Note_on_c, 0, 72, 0
2, 46282, Note_on_c, 0, 59, 0
2, 46285, Note_on_c, 0, 60, 0
2, 46324, Note_on_c, 0, 72, 52
2, 46361, Note_on_c, 0, 72, 0
2, 46382, Note_on_c, 0, 72, 29
2, 46384, Control_c, 0, 64, 0
2, 46384, Note_on_c, 0, 69, 50
2, 46384, Note_on_c, 0, 65, 36
2, 46386, Note_on_c, 0, 57, 30
2, 46387, Note_on_c, 0, 60, 26
2, 46390, Note_on_c, 0, 50, 24
2, 46422, Control_c, 0, 64, 127
2, 46455, Note_on_c, 0, 60, 0
2, 46476, Note_on_c, 0, 57, 0
2, 46514, Note_on_c, 0, 65, 0
2, 46525, Note_on_c, 0, 69, 0
2, 46535, Note_on_c, 0, 72, 0
2, 46538, Note_on_c, 0, 57, 27
2, 46590, Note_on_c, 0, 50, 0
2, 46594, Note_on_c, 0, 57, 0
2, 46630, Note_on_c, 0, 83, 68
2, 46631, Note_on_c, 0, 75, 71
2, 46632, Note_on_c, 0, 71, 76
2, 46632, Note_on_c, 0, 78, 50
2, 46634, Note_on_c, 0, 82, 46
2, 46641, Note_on_c, 0, 82, 0
2, 46666, Note_on_c, 0, 75, 0
2, 46669, Note_on_c, 0, 83, 0
2, 46670, Note_on_c, 0, 71, 0
2, 46671, Note_on_c, 0, 78, 0
2, 46693, Note_on_c, 0, 50, 29
2, 46694, Note_on_c, 0, 71, 62
2, 46694, Note_on_c, 0, 57, 35
2, 46694, Note_on_c, 0, 75, 57
2, 46695, Note_on_c, 0, 78, 48
2, 46695, Note_on_c, 0, 83, 45
2, 46728, Note_on_c, 0, 75, 0
2, 46730, Note_on_c, 0, 71, 0
2, 46732, Note_on_c, 0, 78, 0
2, 46738, Note_on_c, 0, 83, 0
2, 46763, Note_on_c, 0, 50, 0
2, 46789, Note_on_c, 0, 84, 74
2, 46789, Note_on_c, 0, 72, 55
2, 46814, Note_on_c, 0, 84, 0
2, 46827, Note_on_c, 0, 72, 0
2, 46837, Note_on_c, 0, 57, 0
2, 46846, Control_c, 0, 64, 0
2, 46850, Note_on_c, 0, 84, 62
2, 46851, Note_on_c, 0, 72, 33
2, 46854, Note_on_c, 0, 51, 26
2, 46854, Note_on_c, 0, 54, 23
2, 46856, Note_on_c, 0, 60, 24
2, 46858, Note_on_c, 0, 78, 25
2, 46874, Control_c, 0, 64, 127
2, 46886, Note_on_c, 0, 84, 0
2, 46891, Note_on_c, 0, 78, 0
2, 46905, Note_on_c, 0, 72, 0
2, 46914, Note_on_c, 0, 60, 0
2, 46995, Note_on_c, 0, 74, 58
2, 46996, Note_on_c, 0, 63, 42
2, 46998, Note_on_c, 0, 66, 39
2, 47000, Note_on_c, 0, 62, 40
2, 47080, Note_on_c, 0, 62, 0
2, 47094, Note_on_c, 0, 63, 0
2, 47103, Note_on_c, 0, 66, 0
2, 47112, Note_on_c, 0, 74, 0
2, 47147, Note_on_c, 0, 66, 39
2, 47147, Note_on_c, 0, 63, 33
2, 47151, Note_on_c, 0, 69, 41
2, 47152, Note_on_c, 0, 72, 26
2, 47156, Note_on_c, 0, 60, 25
2, 47180, Note_on_c, 0, 51, 0
2, 47188, Note_on_c, 0, 72, 0
2, 47189, Note_on_c, 0, 69, 0
2, 47194, Note_on_c, 0, 63, 0
2, 47207, Note_on_c, 0, 66, 0
2, 47210, Note_on_c, 0, 60, 0
2, 47248, Note_on_c, 0, 51, 42
2, 47263, Note_on_c, 0, 54, 0
2, 47275, Note_on_c, 0, 51, 0
2, 47302, Note_on_c, 0, 59, 38
2, 47304, Note_on_c, 0, 67, 33
2, 47304, Note_on_c, 0, 62, 41
2, 47305, Control_c, 0, 64, 0
2, 47306, Note_on_c, 0, 52, 36
2, 47306, Note_on_c, 0, 64, 42
2, 47345, Control_c, 0, 64, 127
2, 47363, Note_on_c, 0, 64, 0
2, 47371, Note_on_c, 0, 67, 0
2, 47372, Note_on_c, 0, 62, 0
2, 47379, Note_on_c, 0, 59, 0
2, 47450, Note_on_c, 0, 57, 37
2, 47451, Note_on_c, 0, 60, 46
2, 47451, Note_on_c, 0, 55, 35
2, 47454, Note_on_c, 0, 52, 0
2, 47507, Note_on_c, 0, 55, 0
2, 47542, Note_on_c, 0, 60, 0
2, 47544, Note_on_c, 0, 57, 0
2, 47670, Note_on_c, 0, 74, 89
2, 47690, Note_on_c, 0, 74, 0
2, 47711, Note_on_c, 0, 74, 54
2, 47738, Note_on_c, 0, 74, 0
2, 47754, Note_on_c, 0, 71, 27
2, 47757, Note_on_c, 0, 67, 50
2, 47759, Note_on_c, 0, 47, 34
2, 47759, Note_on_c, 0, 62, 36
2, 47762, Note_on_c, 0, 55, 27
2, 47764, Control_c, 0, 64, 0
2, 47806, Control_c, 0, 64, 127
2, 47839, Note_on_c, 0, 55, 0
2, 47861, Note_on_c, 0, 67, 0
2, 47862, Note_on_c, 0, 62, 0
2, 47911, Note_on_c, 0, 67, 51
2, 47912, Note_on_c, 0, 62, 38
2, 47921, Note_on_c, 0, 55, 24
2, 47929, Note_on_c, 0, 62, 0
2, 47937, Note_on_c, 0, 67, 0
2, 47942, Note_on_c, 0, 71, 0
2, 47962, Note_on_c, 0, 55, 0
2, 48062, Note_on_c, 0, 59, 36
2, 48063, Note_on_c, 0, 55, 40
2, 48095, Note_on_c, 0, 59, 0
2, 48111, Note_on_c, 0, 47, 0
2, 48131, Note_on_c, 0, 55, 0
2, 48157, Note_on_c, 0, 79, 80
2, 48187, Note_on_c, 0, 79, 0
2, 48215, Control_c, 0, 64, 0
2, 48218, Note_on_c, 0, 79, 65
2, 48220, Note_on_c, 0, 46, 31
2, 48221, Note_on_c, 0, 55, 40
2, 48221, Note_on_c, 0, 70, 48
2, 48238, Control_c, 0, 64, 127
2, 48252, Note_on_c, 0, 46, 0
2, 48259, Note_on_c, 0, 55, 0
2, 48358, Note_on_c, 0, 61, 35
2, 48360, Note_on_c, 0, 64, 28
2, 48361, Note_on_c, 0, 58, 32
2, 48429, Note_on_c, 0, 64, 0
2, 48452, Note_on_c, 0, 70, 0
2, 48462, Note_on_c, 0, 61, 0
2, 48476, Note_on_c, 0, 79, 0
2, 48506, Note_on_c, 0, 58, 0
2, 48555, Note_on_c, 0, 78, 58
2, 48581, Note_on_c, 0, 78, 0
2, 48599, Note_on_c, 0, 79, 64
2, 48625, Note_on_c, 0, 79, 0
2, 48645, Control_c, 0, 64, 0
2, 48649, Note_on_c, 0, 45, 34
2, 48652, Note_on_c, 0, 79, 47
2, 48658, Control_c, 0, 64, 127
2, 48659, Note_on_c, 0, 45, 0
2, 48892, Note_on_c, 0, 65, 34
2, 48894, Note_on_c, 0, 62, 32
2, 48897, Note_on_c, 0, 60, 24
2, 48898, Note_on_c, 0, 79, 0
2, 48975, Note_on_c, 0, 65, 0
2, 48975, Note_on_c, 0, 84, 88
2, 48981, Note_on_c, 0, 62, 0
2, 48983, Note_on_c, 0, 60, 0
2, 49048, Note_on_c, 0, 84, 0
2, 49052, Note_on_c, 0, 77, 61
2, 49121, Note_on_c, 0, 56, 30
2, 49122, Note_on_c, 0, 60, 39
2, 49123, Note_on_c, 0, 64, 24
2, 49124, Note_on_c, 0, 53, 36
2, 49128, Control_c, 0, 64, 0
2, 49174, Control_c, 0, 64, 127
2, 49200, Note_on_c, 0, 77, 0
2, 49205, Note_on_c, 0, 80, 67
2, 49215, Note_on_c, 0, 64, 0
2, 49234, Note_on_c, 0, 80, 0
2, 49258, Note_on_c, 0, 60, 0
2, 49277, Note_on_c, 0, 56, 0
2, 49283, Note_on_c, 0, 68, 40
2, 49349, Note_on_c, 0, 68, 0
2, 49360, Note_on_c, 0, 67, 53
2, 49443, Note_on_c, 0, 60, 20
2, 49454, Note_on_c, 0, 60, 0
2, 49490, Note_on_c, 0, 53, 0
2, 49515, Note_on_c, 0, 67, 0
2, 49518, Note_on_c, 0, 79, 76
2, 49550, Note_on_c, 0, 67, 14
2, 49557, Note_on_c, 0, 79, 0
2, 49584, Note_on_c, 0, 67, 0
2, 49587, Control_c, 0, 64, 0
2, 49592, Note_on_c, 0, 77, 65
2, 49592, Note_on_c, 0, 43, 37
2, 49595, Note_on_c, 0, 52, 34
2, 49614, Note_on_c, 0, 43, 0
2, 49617, Control_c, 0, 64, 127
2, 49622, Note_on_c, 0, 52, 0
2, 49658, Note_on_c, 0, 77, 0
2, 49672, Note_on_c, 0, 76, 69
2, 49749, Note_on_c, 0, 67, 52
2, 49751, Note_on_c, 0, 76, 0
2, 49829, Note_on_c, 0, 64, 35
2, 49900, Note_on_c, 0, 64, 0
2, 49910, Note_on_c, 0, 60, 25
2, 49974, Note_on_c, 0, 67, 0
2, 49984, Note_on_c, 0, 76, 77
2, 50053, Note_on_c, 0, 60, 0
2, 50058, Note_on_c, 0, 54, 37
2, 50061, Note_on_c, 0, 72, 30
2, 50062, Note_on_c, 0, 64, 28
2, 50067, Note_on_c, 0, 68, 17
2, 50068, Control_c, 0, 64, 0
2, 50115, Control_c, 0, 64, 127
2, 50140, Note_on_c, 0, 64, 0
2, 50140, Note_on_c, 0, 60, 39
2, 50190, Note_on_c, 0, 68, 0
2, 50219, Note_on_c, 0, 64, 54
2, 50219, Note_on_c, 0, 68, 31
2, 50249, Note_on_c, 0, 60, 0
2, 50271, Note_on_c, 0, 76, 0
2, 50276, Note_on_c, 0, 54, 0
2, 50298, Note_on_c, 0, 54, 33
2, 50306, Note_on_c, 0, 64, 0
2, 50347, Note_on_c, 0, 72, 0
2, 50350, Note_on_c, 0, 68, 0
2, 50375, Note_on_c, 0, 75, 52
2, 50376, Note_on_c, 0, 63, 50
2, 50377, Note_on_c, 0, 68, 51
2, 50379, Note_on_c, 0, 60, 35
2, 50389, Note_on_c, 0, 72, 15
2, 50419, Note_on_c, 0, 54, 0
2, 50437, Note_on_c, 0, 72, 0
2, 50438, Note_on_c, 0, 75, 0
2, 50438, Note_on_c, 0, 63, 0
2, 50448, Note_on_c, 0, 68, 0
2, 50455, Note_on_c, 0, 75, 31
2, 50455, Note_on_c, 0, 54, 50
2, 50460, Note_on_c, 0, 76, 79
2, 50462, Note_on_c, 0, 75, 0
2, 50490, Note_on_c, 0, 76, 0
2, 50511, Note_on_c, 0, 54, 0
2, 50532, Control_c, 0, 64, 0
2, 50535, Note_on_c, 0, 76, 69
2, 50537, Note_on_c, 0, 69, 66
2, 50538, Note_on_c, 0, 53, 48
2, 50538, Note_on_c, 0, 64, 59
2, 50540, Note_on_c, 0, 72, 35
2, 50554, Control_c, 0, 64, 127
2, 50556, Note_on_c, 0, 64, 0
2, 50563, Note_on_c, 0, 69, 0
2, 50568, Note_on_c, 0, 72, 0
2, 50572, Note_on_c, 0, 76, 0
2, 50592, Note_on_c, 0, 75, 37
2, 50602, Note_on_c, 0, 75, 0
2, 50619, Note_on_c, 0, 81, 80
2, 50620, Note_on_c, 0, 64, 50
2, 50624, Note_on_c, 0, 72, 44
2, 50644, Note_on_c, 0, 81, 0
2, 50645, Note_on_c, 0, 72, 0
2, 50648, Note_on_c, 0, 64, 0
2, 50693, Note_on_c, 0, 60, 0
2, 50700, Note_on_c, 0, 65, 43
2, 50700, Note_on_c, 0, 74, 55
2, 50701, Note_on_c, 0, 69, 47
2, 50704, Note_on_c, 0, 62, 43
2, 50710, Control_c, 0, 64, 0
2, 50778, Note_on_c, 0, 61, 48
2, 50780, Note_on_c, 0, 62, 0
2, 50796, Control_c, 0, 64, 127
2, 50829, Control_c, 0, 64, 0
2, 50857, Note_on_c, 0, 61, 0
2, 50865, Note_on_c, 0, 60, 38
2, 50867, Note_on_c, 0, 53, 0
2, 50879, Control_c, 0, 64, 127
2, 50934, Note_on_c, 0, 69, 0
2, 50938, Note_on_c, 0, 65, 0
2, 50945, Note_on_c, 0, 53, 33
2, 50976, Note_on_c, 0, 53, 0
2, 50978, Note_on_c, 0, 60, 0
2, 51020, Note_on_c, 0, 68, 38
2, 51022, Note_on_c, 0, 62, 40
2, 51023, Control_c, 0, 64, 0
2, 51026, Note_on_c, 0, 53, 30
2, 51054, Control_c, 0, 64, 127
2, 51085, Note_on_c, 0, 62, 0
2, 51117, Note_on_c, 0, 62, 20
2, 51132, Note_on_c, 0, 62, 0
2, 51141, Note_on_c, 0, 68, 0
2, 51245, Note_on_c, 0, 53, 0
2, 51277, Note_on_c, 0, 74, 0
2, 51282, Note_on_c, 0, 53, 45
2, 51427, Note_on_c, 0, 53, 0
2, 51437, Note_on_c, 0, 77, 89
2, 51516, Note_on_c, 0, 77, 0
2, 51520, Note_on_c, 0, 76, 68
2, 51524, Note_on_c, 0, 52, 34
2, 51527, Control_c, 0, 64, 0
2, 51529, Note_on_c, 0, 60, 31
2, 51581, Control_c, 0, 64, 127
2, 51605, Note_on_c, 0, 67, 38
2, 51609, Note_on_c, 0, 76, 0
2, 51627, Note_on_c, 0, 60, 0
2, 51632, Note_on_c, 0, 67, 0
2, 51688, Note_on_c, 0, 72, 29
2, 51694, Note_on_c, 0, 60, 31
2, 51714, Note_on_c, 0, 64, 1
2, 51777, Note_on_c, 0, 64, 0
2, 51848, Note_on_c, 0, 64, 41
2, 51853, Note_on_c, 0, 60, 0
2, 51870, Note_on_c, 0, 64, 0
2, 51876, Note_on_c, 0, 72, 0
2, 51880, Note_on_c, 0, 52, 0
2, 51936, Note_on_c, 0, 72, 40
2, 51936, Control_c, 0, 64, 0
2, 51937, Note_on_c, 0, 65, 56
2, 51938, Note_on_c, 0, 60, 45
2, 51939, Note_on_c, 0, 69, 54
2, 51939, Note_on_c, 0, 43, 40
2, 51947, Note_on_c, 0, 69, 0
2, 51947, Note_on_c, 0, 60, 0
2, 51951, Note_on_c, 0, 65, 0
2, 51955, Note_on_c, 0, 72, 0
2, 51958, Note_on_c, 0, 43, 0
2, 52002, Control_c, 0, 64, 127
2, 52042, Control_c, 0, 64, 0
2, 52067, Note_on_c, 0, 53, 38
2, 52068, Note_on_c, 0, 57, 45
2, 52070, Note_on_c, 0, 31, 45
2, 52070, Note_on_c, 0, 60, 53
2, 52080, Note_on_c, 0, 53, 0
2, 52081, Note_on_c, 0, 57, 0
2, 52084, Note_on_c, 0, 60, 0
2, 52088, Note_on_c, 0, 31, 0
2, 52174, Control_c, 0, 64, 127
2, 52181, Note_on_c, 0, 60, 48
2, 52182, Note_on_c, 0, 53, 31
2, 52183, Note_on_c, 0, 31, 33
2, 52183, Note_on_c, 0, 57, 44
2, 52184, Note_on_c, 0, 43, 26
2, 52350, Note_on_c, 0, 31, 0
2, 52372, Note_on_c, 0, 60, 0
2, 52380, Note_on_c, 0, 43, 0
2, 52427, Note_on_c, 0, 57, 0
2, 52441, Note_on_c, 0, 53, 0
2, 52441, Note_on_c, 0, 59, 34
2, 52503, Note_on_c, 0, 59, 0
2, 52513, Control_c, 0, 64, 0
2, 52522, Note_on_c, 0, 60, 45
2, 52523, Note_on_c, 0, 36, 33
2, 52548, Control_c, 0, 64, 127
2, 52600, Note_on_c, 0, 60, 0
2, 52603, Note_on_c, 0, 43, 31
2, 52658, Note_on_c, 0, 36, 0
2, 52674, Note_on_c, 0, 43, 0
2, 52676, Note_on_c, 0, 62, 48
2, 52677, Note_on_c, 0, 57, 44
2, 52682, Note_on_c, 0, 52, 34
2, 52714, Note_on_c, 0, 52, 0
2, 52747, Note_on_c, 0, 57, 0
2, 52756, Note_on_c, 0, 55, 45
2, 52757, Note_on_c, 0, 62, 0
2, 52833, Note_on_c, 0, 67, 67
2, 52834, Note_on_c, 0, 62, 54
2, 52836, Note_on_c, 0, 60, 45
2, 52884, Note_on_c, 0, 55, 0
2, 52910, Note_on_c, 0, 72, 70
2, 52922, Note_on_c, 0, 62, 0
2, 52932, Note_on_c, 0, 67, 0
2, 52944, Note_on_c, 0, 72, 0
2, 52982, Note_on_c, 0, 60, 0
2, 52989, Note_on_c, 0, 72, 38
2, 52990, Note_on_c, 0, 68, 39
2, 52991, Note_on_c, 0, 64, 51
2, 52996, Note_on_c, 0, 58, 39
2, 52999, Control_c, 0, 64, 0
2, 53037, Control_c, 0, 64, 127
2, 53050, Note_on_c, 0, 64, 0
2, 53064, Note_on_c, 0, 68, 0
2, 53070, Note_on_c, 0, 72, 0
2, 53070, Note_on_c, 0, 64, 41
2, 53147, Note_on_c, 0, 76, 64
2, 53148, Note_on_c, 0, 88, 68
2, 53164, Note_on_c, 0, 64, 0
2, 53179, Note_on_c, 0, 88, 0
2, 53198, Note_on_c, 0, 76, 0
2, 53380, Note_on_c, 0, 58, 0
2, 53467, Note_on_c, 0, 57, 36
2, 53480, Control_c, 0, 64, 0
2, 53490, Control_c, 0, 64, 127
2, 53618, Control_c, 0, 64, 0
2, 53623, Note_on_c, 0, 60, 34
2, 53623, Note_on_c, 0, 65, 29
2, 53630, Note_on_c, 0, 77, 48
2, 53682, Note_on_c, 0, 77, 0
2, 53694, Note_on_c, 0, 79, 36
2, 53702, Note_on_c, 0, 77, 60
2, 53706, Note_on_c, 0, 79, 0
2, 53726, Note_on_c, 0, 77, 0
2, 53728, Note_on_c, 0, 76, 37
2, 53740, Note_on_c, 0, 76, 0
2, 53772, Note_on_c, 0, 65, 0
2, 53783, Control_c, 0, 64, 127
2, 53790, Note_on_c, 0, 77, 48
2, 53800, Note_on_c, 0, 77, 0
2, 53800, Note_on_c, 0, 65, 20
2, 53813, Note_on_c, 0, 65, 0
2, 53867, Note_on_c, 0, 89, 95
2, 53937, Note_on_c, 0, 57, 0
2, 53940, Note_on_c, 0, 55, 50
2, 53944, Control_c, 0, 64, 0
2, 53953, Note_on_c, 0, 60, 0
2, 54024, Note_on_c, 0, 64, 26
2, 54024, Note_on_c, 0, 88, 69
2, 54028, Note_on_c, 0, 60, 36
2, 54030, Note_on_c, 0, 89, 0
2, 54064, Control_c, 0, 64, 127
2, 54102, Note_on_c, 0, 79, 54
2, 54122, Note_on_c, 0, 60, 0
2, 54148, Note_on_c, 0, 64, 0
2, 54201, Note_on_c, 0, 88, 0
2, 54262, Note_on_c, 0, 60, 34
2, 54263, Note_on_c, 0, 64, 20
2, 54326, Note_on_c, 0, 79, 0
2, 54345, Note_on_c, 0, 55, 0
2, 54345, Note_on_c, 0, 82, 76
2, 54402, Note_on_c, 0, 82, 0
2, 54415, Note_on_c, 0, 64, 0
2, 54420, Note_on_c, 0, 60, 0
2, 54420, Note_on_c, 0, 81, 60
2, 54421, Control_c, 0, 64, 0
2, 54428, Note_on_c, 0, 57, 32
2, 54453, Control_c, 0, 64, 127
2, 54504, Note_on_c, 0, 65, 28
2, 54506, Note_on_c, 0, 60, 32
2, 54581, Note_on_c, 0, 72, 42
2, 54584, Note_on_c, 0, 60, 0
2, 54585, Note_on_c, 0, 65, 0
2, 54599, Note_on_c, 0, 57, 0
2, 54644, Note_on_c, 0, 72, 0
2, 54653, Note_on_c, 0, 81, 0
2, 54660, Note_on_c, 0, 77, 36
2, 54692, Note_on_c, 0, 77, 0
2, 54724, Control_c, 0, 64, 0
2, 54733, Note_on_c, 0, 77, 74
2, 54734, Note_on_c, 0, 84, 74
2, 54734, Note_on_c, 0, 61, 50
2, 54735, Note_on_c, 0, 72, 67
2, 54735, Note_on_c, 0, 66, 50
2, 54736, Note_on_c, 0, 55, 57
2, 54736, Note_on_c, 0, 81, 59
2, 54746, Control_c, 0, 64, 127
2, 54776, Note_on_c, 0, 72, 0
2, 54777, Note_on_c, 0, 77, 0
2, 54785, Note_on_c, 0, 84, 0
2, 54786, Note_on_c, 0, 81, 0
2, 54802, Note_on_c, 0, 55, 0
2, 54802, Note_on_c, 0, 66, 0
2, 54810, Note_on_c, 0, 61, 0
2, 54817, Note_on_c, 0, 88, 87
2, 54848, Note_on_c, 0, 88, 0
2, 54891, Control_c, 0, 64, 0
2, 54896, Note_on_c, 0, 77, 67
2, 54896, Note_on_c, 0, 84, 76
2, 54899, Note_on_c, 0, 50, 55
2, 54900, Note_on_c, 0, 72, 40
2, 54923, Control_c, 0, 64, 127
2, 54928, Note_on_c, 0, 84, 0
2, 54936, Note_on_c, 0, 77, 0
2, 54946, Note_on_c, 0, 72, 0
2, 54977, Note_on_c, 0, 76, 63
2, 54977, Note_on_c, 0, 61, 56
2, 54978, Note_on_c, 0, 69, 64
2, 54979, Note_on_c, 0, 65, 60
2, 55046, Note_on_c, 0, 65, 0
2, 55046, Note_on_c, 0, 61, 0
2, 55050, Note_on_c, 0, 69, 0
2, 55056, Note_on_c, 0, 76, 0
2, 55059, Control_c, 0, 64, 0
2, 55062, Note_on_c, 0, 74, 54
2, 55065, Note_on_c, 0, 65, 47
2, 55065, Note_on_c, 0, 69, 39
2, 55066, Note_on_c, 0, 60, 48
2, 55089, Control_c, 0, 64, 127
2, 55127, Note_on_c, 0, 69, 0
2, 55127, Note_on_c, 0, 74, 0
2, 55138, Note_on_c, 0, 65, 0
2, 55140, Note_on_c, 0, 60, 0
2, 55144, Note_on_c, 0, 57, 32
2, 55172, Note_on_c, 0, 50, 0
2, 55224, Note_on_c, 0, 60, 37
2, 55224, Note_on_c, 0, 69, 51
2, 55227, Note_on_c, 0, 65, 35
2, 55280, Note_on_c, 0, 65, 0
2, 55280, Note_on_c, 0, 69, 0
2, 55294, Note_on_c, 0, 60, 0
2, 55294, Note_on_c, 0, 57, 0
2, 55298, Note_on_c, 0, 50, 33
2, 55315, Note_on_c, 0, 50, 0
2, 55380, Note_on_c, 0, 43, 32
2, 55382, Note_on_c, 0, 64, 36
2, 55383, Note_on_c, 0, 55, 22
2, 55384, Note_on_c, 0, 60, 33
2, 55386, Note_on_c, 0, 52, 22
2, 55386, Control_c, 0, 64, 0
2, 55428, Control_c, 0, 64, 127
2, 55446, Note_on_c, 0, 43, 0
2, 55463, Note_on_c, 0, 52, 0
2, 55476, Note_on_c, 0, 40, 50
2, 55494, Note_on_c, 0, 55, 0
2, 55520, Note_on_c, 0, 60, 0
2, 55553, Control_c, 0, 64, 0
2, 55558, Note_on_c, 0, 55, 50
2, 55559, Note_on_c, 0, 60, 54
2, 55565, Control_c, 0, 64, 127
2, 55598, Note_on_c, 0, 55, 0
2, 55635, Note_on_c, 0, 60, 0
2, 55638, Note_on_c, 0, 40, 0
2, 55644, Note_on_c, 0, 64, 0
2, 55650, Note_on_c, 0, 40, 20
2, 55818, Note_on_c, 0, 40, 0
2, 55885, Note_on_c, 0, 67, 101
2, 56044, Note_on_c, 0, 67, 0
2, 56047, Note_on_c, 0, 62, 28
2, 56049, Note_on_c, 0, 59, 36
2, 56050, Note_on_c, 0, 57, 44
2, 56050, Control_c, 0, 64, 0
2, 56056, Note_on_c, 0, 50, 30
2, 56090, Control_c, 0, 64, 127
2, 56143, Note_on_c, 0, 55, 43
2, 56216, Note_on_c, 0, 55, 0
2, 56223, Note_on_c, 0, 50, 0
2, 56295, Note_on_c, 0, 57, 0
2, 56296, Note_on_c, 0, 65, 56
2, 56312, Note_on_c, 0, 62, 0
2, 56316, Note_on_c, 0, 59, 0
2, 56318, Note_on_c, 0, 65, 0
2, 56384, Note_on_c, 0, 36, 61
2, 56389, Control_c, 0, 64, 0
2, 56405, Control_c, 0, 64, 127
2, 56420, Note_on_c, 0, 36, 0
2, 56471, Note_on_c, 0, 76, 85
2, 56544, Note_on_c, 0, 76, 0
2, 56550, Note_on_c, 0, 71, 57
2, 56552, Note_on_c, 0, 58, 49
2, 56552, Note_on_c, 0, 68, 31
2, 56553, Note_on_c, 0, 64, 50
2, 56605, Note_on_c, 0, 64, 0
2, 56637, Note_on_c, 0, 64, 53
2, 56643, Note_on_c, 0, 68, 0
2, 56707, Note_on_c, 0, 71, 0
2, 56722, Note_on_c, 0, 69, 85
2, 56774, Note_on_c, 0, 64, 0
2, 56787, Note_on_c, 0, 69, 0
2, 56795, Note_on_c, 0, 58, 0
2, 56802, Note_on_c, 0, 72, 85
2, 56877, Note_on_c, 0, 68, 55
2, 56880, Note_on_c, 0, 64, 54
2, 56881, Note_on_c, 0, 58, 33
2, 56894, Control_c, 0, 64, 0
2, 56952, Control_c, 0, 64, 127
2, 56964, Note_on_c, 0, 48, 52
2, 57008, Note_on_c, 0, 64, 0
2, 57022, Note_on_c, 0, 68, 0
2, 57044, Note_on_c, 0, 72, 0
2, 57047, Note_on_c, 0, 67, 50
2, 57048, Note_on_c, 0, 64, 36
2, 57070, Note_on_c, 0, 58, 0
2, 57088, Note_on_c, 0, 48, 0
2, 57107, Note_on_c, 0, 64, 0
2, 57114, Note_on_c, 0, 67, 0
2, 57123, Note_on_c, 0, 72, 67
2, 57135, Note_on_c, 0, 48, 22
2, 57148, Note_on_c, 0, 48, 0
2, 57203, Note_on_c, 0, 66, 60
2, 57205, Note_on_c, 0, 63, 51
2, 57211, Control_c, 0, 64, 0
2, 57214, Note_on_c, 0, 58, 25
2, 57239, Control_c, 0, 64, 127
2, 57264, Note_on_c, 0, 58, 0
2, 57267, Note_on_c, 0, 63, 0
2, 57268, Note_on_c, 0, 66, 0
2, 57273, Note_on_c, 0, 72, 0
2, 57285, Note_on_c, 0, 65, 47
2, 57286, Note_on_c, 0, 62, 34
2, 57316, Note_on_c, 0, 65, 0
2, 57332, Note_on_c, 0, 62, 0
2, 57369, Note_on_c, 0, 64, 38
2, 57371, Note_on_c, 0, 60, 32
2, 57372, Control_c, 0, 64, 0
2, 57381, Note_on_c, 0, 45, 33
2, 57447, Note_on_c, 0, 53, 31
2, 57462, Control_c, 0, 64, 127
2, 57476, Note_on_c, 0, 60, 0
2, 57517, Note_on_c, 0, 64, 0
2, 57526, Note_on_c, 0, 60, 41
2, 57527, Note_on_c, 0, 57, 30
2, 57546, Note_on_c, 0, 60, 0
2, 57566, Note_on_c, 0, 57, 0
2, 57606, Note_on_c, 0, 65, 77
2, 57606, Note_on_c, 0, 60, 79
2, 57607, Note_on_c, 0, 57, 73
2, 57633, Note_on_c, 0, 53, 0
2, 57671, Note_on_c, 0, 65, 0
2, 57683, Note_on_c, 0, 64, 62
2, 57688, Note_on_c, 0, 53, 39
2, 57711, Note_on_c, 0, 45, 0
2, 57735, Note_on_c, 0, 64, 0
2, 57756, Note_on_c, 0, 45, 43
2, 57757, Note_on_c, 0, 65, 57
2, 57758, Note_on_c, 0, 57, 0
2, 57760, Note_on_c, 0, 53, 0
2, 57764, Note_on_c, 0, 60, 0
2, 57768, Note_on_c, 0, 65, 0
2, 57779, Note_on_c, 0, 45, 0
2, 57825, Control_c, 0, 64, 0
2, 57832, Note_on_c, 0, 72, 71
2, 57832, Note_on_c, 0, 43, 48
2, 57871, Control_c, 0, 64, 127
2, 57877, Note_on_c, 0, 43, 0
2, 57924, Note_on_c, 0, 57, 73
2, 58000, Note_on_c, 0, 57, 0
2, 58007, Note_on_c, 0, 58, 60
2, 58016, Control_c, 0, 64, 0
2, 58064, Control_c, 0, 64, 127
2, 58094, Note_on_c, 0, 60, 53
2, 58172, Note_on_c, 0, 64, 57
2, 58174, Note_on_c, 0, 72, 0
2, 58188, Note_on_c, 0, 58, 0
2, 58250, Note_on_c, 0, 70, 69
2, 58260, Note_on_c, 0, 60, 0
2, 58304, Note_on_c, 0, 64, 0
2, 58308, Note_on_c, 0, 70, 0
2, 58331, Note_on_c, 0, 69, 65
2, 58333, Note_on_c, 0, 41, 48
2, 58342, Control_c, 0, 64, 0
2, 58408, Note_on_c, 0, 49, 63
2, 58443, Control_c, 0, 64, 127
2, 58484, Note_on_c, 0, 49, 0
2, 58484, Note_on_c, 0, 61, 40
2, 58486, Note_on_c, 0, 52, 56
2, 58487, Control_c, 0, 64, 0
2, 58490, Note_on_c, 0, 57, 33
2, 58557, Note_on_c, 0, 52, 0
2, 58574, Note_on_c, 0, 50, 80
2, 58616, Note_on_c, 0, 57, 0
2, 58634, Note_on_c, 0, 61, 0
2, 58651, Note_on_c, 0, 62, 51
2, 58655, Note_on_c, 0, 57, 44
2, 58673, Note_on_c, 0, 41, 0
2, 58685, Control_c, 0, 64, 127
2, 58729, Note_on_c, 0, 41, 62
2, 58756, Note_on_c, 0, 57, 0
2, 58760, Note_on_c, 0, 62, 0
2, 58763, Note_on_c, 0, 41, 0
2, 58796, Note_on_c, 0, 69, 0
2, 58806, Note_on_c, 0, 50, 0
2, 58806, Control_c, 0, 64, 0
2, 58809, Note_on_c, 0, 42, 69
2, 58811, Note_on_c, 0, 66, 50
2, 58812, Note_on_c, 0, 62, 70
2, 58813, Note_on_c, 0, 57, 58
2, 58850, Control_c, 0, 64, 127
2, 58864, Note_on_c, 0, 57, 0
2, 58889, Note_on_c, 0, 62, 0
2, 58897, Note_on_c, 0, 50, 62
2, 58901, Note_on_c, 0, 66, 0
2, 58902, Note_on_c, 0, 42, 0
2, 58913, Note_on_c, 0, 50, 0
2, 58981, Note_on_c, 0, 62, 82
2, 59064, Note_on_c, 0, 66, 88
2, 59064, Note_on_c, 0, 74, 81
2, 59117, Note_on_c, 0, 62, 0
2, 59128, Note_on_c, 0, 74, 0
2, 59141, Note_on_c, 0, 66, 0
2, 59155, Note_on_c, 0, 66, 59
2, 59157, Note_on_c, 0, 74, 76
2, 59157, Note_on_c, 0, 62, 48
2, 59192, Note_on_c, 0, 62, 0
2, 59202, Note_on_c, 0, 74, 0
2, 59245, Note_on_c, 0, 74, 68
2, 59292, Note_on_c, 0, 74, 0
2, 59306, Note_on_c, 0, 66, 0
2, 59331, Note_on_c, 0, 74, 69
2, 59332, Note_on_c, 0, 65, 63
2, 59332, Note_on_c, 0, 70, 62
2, 59333, Note_on_c, 0, 32, 53
2, 59334, Control_c, 0, 64, 0
2, 59335, Note_on_c, 0, 44, 45
2, 59350, Note_on_c, 0, 32, 0
2, 59355, Control_c, 0, 64, 127
2, 59356, Note_on_c, 0, 44, 0
2, 59390, Note_on_c, 0, 74, 0
2, 59426, Note_on_c, 0, 54, 48
2, 59426, Note_on_c, 0, 74, 60
2, 59428, Note_on_c, 0, 65, 0
2, 59438, Note_on_c, 0, 70, 0
2, 59448, Note_on_c, 0, 74, 0
2, 59516, Note_on_c, 0, 86, 70
2, 59517, Note_on_c, 0, 65, 45
2, 59518, Note_on_c, 0, 77, 38
2, 59520, Note_on_c, 0, 60, 47
2, 59520, Note_on_c, 0, 82, 38
2, 59556, Note_on_c, 0, 60, 0
2, 59563, Note_on_c, 0, 65, 0
2, 59572, Note_on_c, 0, 86, 0
2, 59573, Note_on_c, 0, 82, 0
2, 59577, Note_on_c, 0, 54, 0
2, 59580, Note_on_c, 0, 77, 0
2, 59614, Note_on_c, 0, 86, 61
2, 59614, Note_on_c, 0, 77, 48
2, 59632, Note_on_c, 0, 60, 32
2, 59632, Note_on_c, 0, 82, 35
2, 59632, Note_on_c, 0, 54, 33
2, 59632, Note_on_c, 0, 65, 32
2, 59634, Note_on_c, 0, 65, 0
2, 59634, Note_on_c, 0, 77, 0
2, 59635, Note_on_c, 0, 60, 0
2, 59639, Note_on_c, 0, 82, 0
2, 59641, Note_on_c, 0, 86, 0
2, 59647, Note_on_c, 0, 54, 0
2, 59712, Note_on_c, 0, 54, 37
2, 59713, Note_on_c, 0, 89, 37
2, 59714, Note_on_c, 0, 98, 48
2, 59715, Note_on_c, 0, 65, 33
2, 59716, Note_on_c, 0, 94, 48
2, 59720, Note_on_c, 0, 60, 36
2, 59744, Note_on_c, 0, 60, 0
2, 59757, Note_on_c, 0, 65, 0
2, 59759, Note_on_c, 0, 54, 0
2, 59759, Note_on_c, 0, 94, 0
2, 59763, Note_on_c, 0, 98, 0
2, 59763, Note_on_c, 0, 89, 0
2, 59818, Note_on_c, 0, 54, 26
2, 59819, Note_on_c, 0, 89, 31
2, 59819, Note_on_c, 0, 94, 35
2, 59820, Note_on_c, 0, 98, 39
2, 59820, Note_on_c, 0, 65, 36
2, 59825, Note_on_c, 0, 60, 35
2, 59855, Note_on_c, 0, 60, 0
2, 59861, Note_on_c, 0, 65, 0
2, 59865, Note_on_c, 0, 54, 0
2, 59868, Note_on_c, 0, 89, 0
2, 59869, Note_on_c, 0, 94, 0
2, 59872, Note_on_c, 0, 98, 0
2, 59930, Note_on_c, 0, 98, 34
2, 59930, Note_on_c, 0, 54, 26
2, 59932, Note_on_c, 0, 89, 32
2, 59932, Note_on_c, 0, 65, 30
2, 59933, Note_on_c, 0, 94, 33
2, 59936, Note_on_c, 0, 60, 39
2, 60035, Note_on_c, 0, 98, 0
2, 60045, Note_on_c, 0, 94, 0
2, 60052, Note_on_c, 0, 89, 0
2, 60054, Note_on_c, 0, 60, 0
2, 60057, Note_on_c, 0, 65, 0
2, 60061, Note_on_c, 0, 54, 0
2, 60292, Control_c, 0, 64, 0
2, 60390, Control_c, 0, 64, 127
2, 60427, Note_on_c, 0, 62, 51
2, 60463, Note_on_c, 0, 62, 0
2, 60510, Note_on_c, 0, 53, 29
2, 60510, Note_on_c, 0, 43, 31
2, 60511, Note_on_c, 0, 62, 38
2, 60513, Note_on_c, 0, 50, 34
2, 60514, Note_on_c, 0, 60, 39
2, 60515, Note_on_c, 0, 57, 34
2, 60516, Control_c, 0, 64, 0
2, 60530, Control_c, 0, 64, 127
2, 60620, Note_on_c, 0, 53, 0
2, 60628, Note_on_c, 0, 57, 0
2, 60710, Note_on_c, 0, 60, 0
2, 60778, Note_on_c, 0, 55, 62
2, 60834, Note_on_c, 0, 55, 0
2, 60836, Note_on_c, 0, 62, 0
2, 60842, Note_on_c, 0, 57, 76
2, 60879, Note_on_c, 0, 57, 0
2, 60888, Note_on_c, 0, 57, 66
2, 60924, Note_on_c, 0, 57, 0
2, 60928, Note_on_c, 0, 59, 75
2, 60929, Note_on_c, 0, 50, 0
2, 60960, Note_on_c, 0, 59, 0
2, 60971, Note_on_c, 0, 59, 79
2, 61005, Note_on_c, 0, 59, 0
2, 61012, Note_on_c, 0, 60, 72
2, 61042, Note_on_c, 0, 60, 0
2, 61058, Note_on_c, 0, 60, 64
2, 61066, Note_on_c, 0, 55, 38
2, 61074, Control_c, 0, 64, 0
2, 61103, Note_on_c, 0, 62, 67
2, 61104, Note_on_c, 0, 60, 0
2, 61112, Control_c, 0, 64, 127
2, 61142, Note_on_c, 0, 62, 0
2, 61152, Note_on_c, 0, 62, 51
2, 61177, Note_on_c, 0, 55, 0
2, 61190, Note_on_c, 0, 62, 0
2, 61200, Note_on_c, 0, 64, 65
2, 61205, Note_on_c, 0, 43, 0
2, 61232, Note_on_c, 0, 64, 0
2, 61253, Note_on_c, 0, 64, 55
2, 61255, Note_on_c, 0, 43, 40
2, 61257, Note_on_c, 0, 53, 31
2, 61264, Control_c, 0, 64, 0
2, 61293, Control_c, 0, 64, 127
2, 61298, Note_on_c, 0, 43, 0
2, 61308, Note_on_c, 0, 65, 62
2, 61311, Note_on_c, 0, 53, 0
2, 61314, Note_on_c, 0, 64, 0
2, 61340, Note_on_c, 0, 65, 0
2, 61373, Note_on_c, 0, 65, 20
2, 61400, Note_on_c, 0, 65, 0
2, 61430, Note_on_c, 0, 67, 50
2, 61471, Note_on_c, 0, 67, 0
2, 61506, Note_on_c, 0, 67, 47
2, 61516, Note_on_c, 0, 60, 20
2, 61519, Note_on_c, 0, 65, 18
2, 61566, Note_on_c, 0, 60, 0
2, 61571, Note_on_c, 0, 67, 0
2, 61572, Note_on_c, 0, 69, 49
2, 61576, Note_on_c, 0, 65, 0
2, 61613, Note_on_c, 0, 69, 0
2, 61650, Note_on_c, 0, 69, 49
2, 61720, Note_on_c, 0, 71, 57
2, 61728, Note_on_c, 0, 69, 0
2, 61767, Note_on_c, 0, 71, 0
2, 61798, Note_on_c, 0, 64, 33
2, 61798, Note_on_c, 0, 71, 55
2, 61800, Control_c, 0, 64, 0
2, 61800, Note_on_c, 0, 67, 24
2, 61804, Note_on_c, 0, 62, 24
2, 61826, Control_c, 0, 64, 127
2, 61841, Note_on_c, 0, 67, 0
2, 61848, Note_on_c, 0, 64, 0
2, 61855, Note_on_c, 0, 62, 0
2, 61863, Note_on_c, 0, 71, 0
2, 61865, Note_on_c, 0, 72, 47
2, 61901, Note_on_c, 0, 72, 0
2, 61939, Note_on_c, 0, 72, 51
2, 62081, Note_on_c, 0, 67, 41
2, 62082, Note_on_c, 0, 64, 30
2, 62090, Note_on_c, 0, 55, 29
2, 62129, Note_on_c, 0, 72, 0
2, 62167, Note_on_c, 0, 72, 67
2, 62177, Note_on_c, 0, 67, 0
2, 62179, Note_on_c, 0, 64, 0
2, 62200, Note_on_c, 0, 72, 0
2, 62211, Note_on_c, 0, 55, 0
2, 62224, Note_on_c, 0, 50, 33
2, 62225, Note_on_c, 0, 65, 65
2, 62225, Note_on_c, 0, 72, 36
2, 62228, Note_on_c, 0, 60, 54
2, 62247, Control_c, 0, 64, 0
2, 62286, Control_c, 0, 64, 127
2, 62302, Note_on_c, 0, 60, 0
2, 62358, Note_on_c, 0, 65, 0
2, 62373, Note_on_c, 0, 57, 27
2, 62373, Note_on_c, 0, 60, 22
2, 62431, Note_on_c, 0, 72, 0
2, 62520, Note_on_c, 0, 60, 0
2, 62524, Note_on_c, 0, 50, 0
2, 62544, Note_on_c, 0, 57, 0
2, 62548, Note_on_c, 0, 71, 54
2, 62591, Note_on_c, 0, 72, 45
2, 62597, Note_on_c, 0, 71, 0
2, 62627, Note_on_c, 0, 72, 0
2, 62642, Control_c, 0, 64, 0
2, 62646, Note_on_c, 0, 74, 42
2, 62646, Note_on_c, 0, 52, 39
2, 62683, Control_c, 0, 64, 127
2, 62706, Note_on_c, 0, 74, 0
2, 62758, Note_on_c, 0, 72, 48
2, 62762, Note_on_c, 0, 62, 28
2, 62765, Note_on_c, 0, 59, 29
2, 62839, Note_on_c, 0, 62, 0
2, 62841, Note_on_c, 0, 59, 0
2, 62918, Note_on_c, 0, 72, 0
2, 62924, Note_on_c, 0, 52, 0
2, 62995, Note_on_c, 0, 76, 75
2, 62996, Control_c, 0, 64, 0
2, 63000, Note_on_c, 0, 72, 54
2, 63001, Note_on_c, 0, 56, 43
2, 63001, Note_on_c, 0, 62, 50
2, 63001, Note_on_c, 0, 67, 76
2, 63016, Control_c, 0, 64, 127
2, 63034, Note_on_c, 0, 72, 0
2, 63036, Note_on_c, 0, 67, 0
2, 63045, Note_on_c, 0, 76, 0
2, 63046, Note_on_c, 0, 56, 0
2, 63054, Note_on_c, 0, 62, 0
2, 63144, Control_c, 0, 64, 0
2, 63148, Note_on_c, 0, 71, 49
2, 63150, Note_on_c, 0, 64, 55
2, 63150, Note_on_c, 0, 68, 45
2, 63153, Note_on_c, 0, 60, 30
2, 63154, Note_on_c, 0, 56, 33
2, 63174, Control_c, 0, 64, 127
2, 63206, Note_on_c, 0, 60, 0
2, 63210, Note_on_c, 0, 64, 0
2, 63217, Note_on_c, 0, 56, 0
2, 63217, Note_on_c, 0, 68, 0
2, 63224, Note_on_c, 0, 71, 0
2, 63234, Note_on_c, 0, 69, 53
2, 63237, Note_on_c, 0, 60, 34
2, 63237, Note_on_c, 0, 64, 49
2, 63242, Note_on_c, 0, 55, 35
2, 63244, Control_c, 0, 64, 0
2, 63266, Control_c, 0, 64, 127
2, 63326, Note_on_c, 0, 64, 0
2, 63342, Note_on_c, 0, 60, 0
2, 63428, Note_on_c, 0, 69, 0
2, 63441, Note_on_c, 0, 55, 0
2, 63477, Note_on_c, 0, 52, 27
2, 63495, Note_on_c, 0, 52, 0
2, 63538, Note_on_c, 0, 59, 44
2, 63542, Note_on_c, 0, 55, 31
2, 63542, Note_on_c, 0, 47, 32
2, 63545, Control_c, 0, 64, 0
2, 63593, Control_c, 0, 64, 127
2, 63635, Note_on_c, 0, 55, 0
2, 63683, Note_on_c, 0, 55, 32
2, 63695, Note_on_c, 0, 59, 0
2, 63866, Note_on_c, 0, 47, 0
2, 63875, Note_on_c, 0, 55, 0
2, 63889, Note_on_c, 0, 79, 64
2, 63912, Note_on_c, 0, 79, 0
2, 63923, Note_on_c, 0, 78, 48
2, 63953, Note_on_c, 0, 78, 0
2, 63966, Note_on_c, 0, 79, 53
2, 63972, Note_on_c, 0, 58, 37
2, 63976, Control_c, 0, 64, 0
2, 64008, Control_c, 0, 64, 127
2, 64100, Note_on_c, 0, 61, 28
2, 64102, Note_on_c, 0, 67, 31
2, 64103, Note_on_c, 0, 64, 28
2, 64131, Note_on_c, 0, 67, 0
2, 64155, Note_on_c, 0, 79, 0
2, 64252, Note_on_c, 0, 78, 62
2, 64309, Note_on_c, 0, 78, 0
2, 64329, Note_on_c, 0, 79, 77
2, 64381, Note_on_c, 0, 79, 0
2, 64400, Note_on_c, 0, 64, 0
2, 64402, Note_on_c, 0, 58, 0
2, 64402, Note_on_c, 0, 79, 60
2, 64403, Note_on_c, 0, 61, 0
2, 64406, Control_c, 0, 64, 0
2, 64408, Note_on_c, 0, 57, 40
2, 64438, Control_c, 0, 64, 127
2, 64475, Note_on_c, 0, 79, 0
2, 64482, Note_on_c, 0, 84, 61
2, 64483, Note_on_c, 0, 65, 27
2, 64486, Note_on_c, 0, 60, 32
2, 64531, Note_on_c, 0, 84, 0
2, 64550, Note_on_c, 0, 77, 65
2, 64609, Note_on_c, 0, 77, 0
2, 64612, Note_on_c, 0, 79, 54
2, 64624, Control_c, 0, 64, 0
2, 64626, Note_on_c, 0, 77, 42
2, 64631, Note_on_c, 0, 79, 0
2, 64648, Note_on_c, 0, 77, 0
2, 64648, Note_on_c, 0, 76, 64
2, 64668, Note_on_c, 0, 76, 0
2, 64700, Note_on_c, 0, 77, 60
2, 64715, Note_on_c, 0, 77, 0
2, 64764, Note_on_c, 0, 84, 70
2, 64770, Note_on_c, 0, 84, 0
2, 64776, Note_on_c, 0, 65, 0
2, 64799, Note_on_c, 0, 57, 0
2, 64814, Note_on_c, 0, 89, 72
2, 64816, Note_on_c, 0, 60, 0
2, 64818, Note_on_c, 0, 88, 60
2, 64824, Control_c, 0, 64, 127
2, 64825, Note_on_c, 0, 88, 0
2, 64834, Note_on_c, 0, 89, 0
2, 64863, Control_c, 0, 64, 0
2, 64864, Note_on_c, 0, 56, 37
2, 64866, Note_on_c, 0, 91, 79
2, 64868, Note_on_c, 0, 65, 35
2, 64871, Note_on_c, 0, 60, 46
2, 64920, Note_on_c, 0, 91, 0
2, 64923, Note_on_c, 0, 89, 64
2, 64952, Note_on_c, 0, 89, 0
2, 64978, Note_on_c, 0, 80, 39
2, 65005, Note_on_c, 0, 80, 0
2, 65026, Note_on_c, 0, 65, 0
2, 65028, Note_on_c, 0, 79, 40
2, 65035, Control_c, 0, 64, 127
2, 65058, Note_on_c, 0, 79, 0
2, 65059, Control_c, 0, 64, 0
2, 65074, Note_on_c, 0, 84, 59
2, 65075, Control_c, 0, 64, 127
2, 65095, Note_on_c, 0, 84, 0
2, 65116, Control_c, 0, 64, 0
2, 65160, Control_c, 0, 64, 127
2, 65177, Note_on_c, 0, 65, 25
2, 65241, Note_on_c, 0, 56, 0
2, 65259, Note_on_c, 0, 56, 44
2, 65300, Note_on_c, 0, 65, 0
2, 65314, Note_on_c, 0, 56, 0
2, 65334, Note_on_c, 0, 67, 46
2, 65338, Control_c, 0, 64, 0
2, 65339, Note_on_c, 0, 55, 30
2, 65350, Note_on_c, 0, 64, 15
2, 65366, Control_c, 0, 64, 127
2, 65409, Note_on_c, 0, 76, 73
2, 65458, Note_on_c, 0, 76, 0
2, 65473, Note_on_c, 0, 67, 0
2, 65485, Note_on_c, 0, 64, 0
2, 65486, Note_on_c, 0, 76, 73
2, 65494, Note_on_c, 0, 60, 0
2, 65561, Note_on_c, 0, 67, 56
2, 65566, Note_on_c, 0, 60, 30
2, 65569, Note_on_c, 0, 64, 20
2, 65603, Note_on_c, 0, 67, 0
2, 65639, Note_on_c, 0, 76, 0
2, 65641, Note_on_c, 0, 67, 68
2, 65670, Note_on_c, 0, 55, 0
2, 65678, Note_on_c, 0, 67, 0
2, 65680, Note_on_c, 0, 64, 0
2, 65719, Note_on_c, 0, 76, 74
2, 65720, Note_on_c, 0, 55, 35
2, 65735, Note_on_c, 0, 55, 0
2, 65761, Note_on_c, 0, 76, 0
2, 65787, Note_on_c, 0, 60, 0
2, 65797, Note_on_c, 0, 76, 64
2, 65798, Note_on_c, 0, 68, 49
2, 65800, Note_on_c, 0, 54, 38
2, 65800, Note_on_c, 0, 72, 38
2, 65803, Note_on_c, 0, 64, 43
2, 65804, Control_c, 0, 64, 0
2, 65848, Control_c, 0, 64, 127
2, 65887, Note_on_c, 0, 58, 32
2, 65911, Note_on_c, 0, 64, 0
2, 65959, Note_on_c, 0, 64, 58
2, 65964, Note_on_c, 0, 76, 0
2, 66000, Note_on_c, 0, 64, 0
2, 66008, Note_on_c, 0, 72, 0
2, 66028, Note_on_c, 0, 68, 0
2, 66035, Note_on_c, 0, 75, 83
2, 66038, Note_on_c, 0, 64, 31
2, 66042, Note_on_c, 0, 68, 35
2, 66048, Note_on_c, 0, 68, 0
2, 66081, Note_on_c, 0, 54, 0
2, 66084, Note_on_c, 0, 75, 0
2, 66113, Note_on_c, 0, 75, 77
2, 66140, Note_on_c, 0, 64, 0
2, 66162, Note_on_c, 0, 75, 0
2, 66190, Note_on_c, 0, 76, 79
2, 66191, Note_on_c, 0, 54, 34
2, 66199, Note_on_c, 0, 75, 35
2, 66206, Note_on_c, 0, 75, 0
2, 66222, Note_on_c, 0, 76, 0
2, 66243, Note_on_c, 0, 54, 0
2, 66256, Note_on_c, 0, 58, 0
2, 66269, Control_c, 0, 64, 0
2, 66272, Note_on_c, 0, 76, 58
2, 66272, Note_on_c, 0, 68, 50
2, 66274, Note_on_c, 0, 71, 56
2, 66274, Note_on_c, 0, 53, 41
2, 66276, Note_on_c, 0, 64, 47
2, 66287, Note_on_c, 0, 60, 27
2, 66294, Note_on_c, 0, 64, 0
2, 66295, Control_c, 0, 64, 127
2, 66306, Note_on_c, 0, 71, 0
2, 66308, Note_on_c, 0, 68, 0
2, 66314, Note_on_c, 0, 76, 0
2, 66358, Note_on_c, 0, 81, 64
2, 66359, Note_on_c, 0, 73, 55
2, 66362, Note_on_c, 0, 69, 38
2, 66375, Note_on_c, 0, 73, 0
2, 66382, Note_on_c, 0, 81, 0
2, 66400, Note_on_c, 0, 69, 0
2, 66448, Note_on_c, 0, 74, 47
2, 66448, Note_on_c, 0, 84, 60
2, 66449, Note_on_c, 0, 64, 27
2, 66450, Note_on_c, 0, 79, 48
2, 66453, Control_c, 0, 64, 0
2, 66473, Control_c, 0, 64, 127
2, 66476, Note_on_c, 0, 60, 0
2, 66524, Note_on_c, 0, 84, 0
2, 66528, Note_on_c, 0, 79, 0
2, 66537, Note_on_c, 0, 60, 33
2, 66538, Note_on_c, 0, 74, 0
2, 66564, Note_on_c, 0, 64, 0
2, 66622, Note_on_c, 0, 76, 33
2, 66626, Note_on_c, 0, 69, 24
2, 66628, Note_on_c, 0, 72, 25
2, 66655, Note_on_c, 0, 53, 0
2, 66706, Note_on_c, 0, 76, 0
2, 66712, Note_on_c, 0, 72, 0
2, 66714, Note_on_c, 0, 53, 29
2, 66724, Note_on_c, 0, 69, 0
2, 66734, Note_on_c, 0, 53, 0
2, 66798, Note_on_c, 0, 60, 0
2, 66804, Control_c, 0, 64, 0
2, 66810, Note_on_c, 0, 72, 29
2, 66812, Note_on_c, 0, 54, 30
2, 66813, Note_on_c, 0, 69, 39
2, 66813, Note_on_c, 0, 64, 34
2, 66832, Control_c, 0, 64, 127
2, 66842, Note_on_c, 0, 64, 0
2, 66849, Note_on_c, 0, 69, 0
2, 66854, Note_on_c, 0, 72, 0
2, 66915, Note_on_c, 0, 84, 40
2, 66957, Note_on_c, 0, 84, 0
2, 67028, Note_on_c, 0, 84, 49
2, 67035, Note_on_c, 0, 64, 22
2, 67035, Note_on_c, 0, 72, 26
2, 67160, Note_on_c, 0, 64, 0
2, 67174, Note_on_c, 0, 72, 0
2, 67180, Note_on_c, 0, 84, 0
2, 67321, Note_on_c, 0, 72, 44
2, 67333, Note_on_c, 0, 54, 0
2, 67358, Note_on_c, 0, 72, 0
2, 67463, Note_on_c, 0, 72, 36
2, 67464, Control_c, 0, 64, 0
2, 67467, Note_on_c, 0, 64, 42
2, 67467, Note_on_c, 0, 67, 45
2, 67472, Note_on_c, 0, 62, 34
2, 67473, Note_on_c, 0, 43, 34
2, 67477, Note_on_c, 0, 52, 15
2, 67486, Control_c, 0, 64, 127
2, 67524, Note_on_c, 0, 72, 0
2, 67528, Note_on_c, 0, 52, 0
2, 67531, Note_on_c, 0, 67, 0
2, 67536, Note_on_c, 0, 64, 0
2, 67538, Note_on_c, 0, 62, 0
2, 67623, Note_on_c, 0, 64, 48
2, 67626, Note_on_c, 0, 59, 38
2, 67626, Note_on_c, 0, 60, 52
2, 67632, Note_on_c, 0, 55, 28
2, 67730, Note_on_c, 0, 55, 0
2, 67791, Note_on_c, 0, 59, 0
2, 67792, Note_on_c, 0, 64, 0
2, 67794, Note_on_c, 0, 60, 0
2, 67794, Note_on_c, 0, 55, 42
2, 67881, Note_on_c, 0, 65, 92
2, 67885, Note_on_c, 0, 55, 0
2, 67913, Note_on_c, 0, 43, 0
2, 67923, Note_on_c, 0, 65, 0
2, 67974, Note_on_c, 0, 65, 78
2, 67979, Note_on_c, 0, 43, 37
2, 67980, Control_c, 0, 64, 0
2, 67980, Note_on_c, 0, 60, 61
2, 67980, Note_on_c, 0, 57, 65
2, 67982, Note_on_c, 0, 53, 32
2, 68018, Control_c, 0, 64, 127
2, 68078, Note_on_c, 0, 60, 0
2, 68088, Note_on_c, 0, 53, 0
2, 68090, Note_on_c, 0, 65, 0
2, 68093, Note_on_c, 0, 57, 0
2, 68146, Note_on_c, 0, 43, 0
2, 68165, Note_on_c, 0, 62, 47
2, 68169, Note_on_c, 0, 59, 41
2, 68170, Note_on_c, 0, 43, 32
2, 68170, Note_on_c, 0, 56, 25
2, 68171, Note_on_c, 0, 53, 17
2, 68184, Control_c, 0, 64, 0
2, 68220, Control_c, 0, 64, 127
2, 68232, Note_on_c, 0, 53, 0
2, 68299, Note_on_c, 0, 56, 0
2, 68348, Note_on_c, 0, 56, 31
2, 68352, Note_on_c, 0, 53, 31
2, 68388, Note_on_c, 0, 59, 0
2, 68392, Note_on_c, 0, 56, 0
2, 68394, Note_on_c, 0, 62, 0
2, 68433, Note_on_c, 0, 43, 0
2, 68456, Note_on_c, 0, 67, 72
2, 68462, Note_on_c, 0, 43, 36
2, 68505, Note_on_c, 0, 53, 0
2, 68515, Note_on_c, 0, 43, 0
2, 68523, Note_on_c, 0, 67, 0
2, 68559, Note_on_c, 0, 64, 68
2, 68560, Note_on_c, 0, 59, 53
2, 68560, Control_c, 0, 64, 0
2, 68560, Note_on_c, 0, 43, 35
2, 68561, Note_on_c, 0, 62, 61
2, 68566, Note_on_c, 0, 52, 26
2, 68593, Control_c, 0, 64, 127
2, 68633, Note_on_c, 0, 62, 0
2, 68643, Note_on_c, 0, 64, 0
2, 68647, Note_on_c, 0, 59, 0
2, 68653, Note_on_c, 0, 52, 0
2, 68722, Note_on_c, 0, 55, 64
2, 68725, Note_on_c, 0, 52, 31
2, 68786, Note_on_c, 0, 43, 0
2, 68822, Note_on_c, 0, 55, 0
2, 68882, Note_on_c, 0, 43, 40
2, 68922, Note_on_c, 0, 52, 0
2, 68949, Note_on_c, 0, 43, 0
2, 68972, Note_on_c, 0, 74, 87
2, 68979, Note_on_c, 0, 43, 53
2, 69003, Note_on_c, 0, 74, 0
2, 69062, Note_on_c, 0, 72, 54
2, 69064, Note_on_c, 0, 69, 62
2, 69067, Control_c, 0, 64, 0
2, 69067, Note_on_c, 0, 65, 57
2, 69070, Note_on_c, 0, 55, 48
2, 69070, Note_on_c, 0, 60, 47
2, 69101, Control_c, 0, 64, 127
2, 69134, Note_on_c, 0, 69, 0
2, 69142, Note_on_c, 0, 65, 0
2, 69142, Note_on_c, 0, 72, 0
2, 69156, Note_on_c, 0, 60, 0
2, 69171, Note_on_c, 0, 55, 0
2, 69232, Note_on_c, 0, 69, 58
2, 69232, Note_on_c, 0, 65, 54
2, 69234, Note_on_c, 0, 60, 47
2, 69240, Note_on_c, 0, 55, 20
2, 69282, Note_on_c, 0, 60, 0
2, 69291, Note_on_c, 0, 43, 0
2, 69339, Note_on_c, 0, 69, 0
2, 69350, Note_on_c, 0, 65, 0
2, 69401, Note_on_c, 0, 43, 43
2, 69443, Note_on_c, 0, 55, 0
2, 69494, Note_on_c, 0, 77, 66
2, 69517, Note_on_c, 0, 77, 0
2, 69583, Note_on_c, 0, 76, 60
2, 69586, Note_on_c, 0, 67, 50
2, 69588, Note_on_c, 0, 72, 30
2, 69589, Note_on_c, 0, 55, 34
2, 69590, Control_c, 0, 64, 0
2, 69614, Control_c, 0, 64, 127
2, 69636, Note_on_c, 0, 43, 0
2, 69652, Note_on_c, 0, 72, 0
2, 69654, Note_on_c, 0, 76, 0
2, 69660, Note_on_c, 0, 67, 0
2, 69758, Note_on_c, 0, 67, 29
2, 69759, Note_on_c, 0, 59, 35
2, 69760, Note_on_c, 0, 62, 36
2, 69762, Note_on_c, 0, 64, 36
2, 69766, Note_on_c, 0, 43, 24
2, 69778, Note_on_c, 0, 43, 0
2, 69781, Control_c, 0, 64, 0
2, 69802, Control_c, 0, 64, 127
2, 69848, Note_on_c, 0, 59, 0
2, 69903, Note_on_c, 0, 62, 0
2, 69906, Note_on_c, 0, 67, 0
2, 69911, Note_on_c, 0, 64, 0
2, 69934, Note_on_c, 0, 43, 33
2, 69982, Note_on_c, 0, 43, 0
2, 69995, Note_on_c, 0, 55, 0
2, 70154, Note_on_c, 0, 77, 59
2, 70156, Note_on_c, 0, 69, 42
2, 70157, Note_on_c, 0, 72, 34
2, 70157, Note_on_c, 0, 55, 39
2, 70158, Note_on_c, 0, 65, 43
2, 70160, Control_c, 0, 64, 0
2, 70186, Control_c, 0, 64, 127
2, 70269, Note_on_c, 0, 65, 0
2, 70276, Note_on_c, 0, 72, 0
2, 70277, Note_on_c, 0, 69, 0
2, 70364, Note_on_c, 0, 69, 36
2, 70366, Note_on_c, 0, 65, 33
2, 70368, Note_on_c, 0, 72, 24
2, 70434, Note_on_c, 0, 65, 0
2, 70440, Note_on_c, 0, 77, 0
2, 70440, Note_on_c, 0, 72, 0
2, 70458, Note_on_c, 0, 69, 0
2, 70594, Note_on_c, 0, 74, 59
2, 70597, Note_on_c, 0, 71, 43
2, 70601, Note_on_c, 0, 65, 24
2, 70602, Note_on_c, 0, 68, 30
2, 70603, Note_on_c, 0, 62, 31
2, 70784, Note_on_c, 0, 76, 54
2, 70839, Note_on_c, 0, 62, 0
2, 70860, Note_on_c, 0, 55, 0
2, 70874, Note_on_c, 0, 74, 0
2, 70874, Note_on_c, 0, 76, 0
2, 70882, Note_on_c, 0, 71, 0
2, 70884, Note_on_c, 0, 65, 0
2, 70888, Note_on_c, 0, 68, 0
2, 71093, Note_on_c, 0, 72, 26
2, 71094, Note_on_c, 0, 65, 30
2, 71096, Note_on_c, 0, 44, 28
2, 71096, Note_on_c, 0, 60, 32
2, 71106, Control_c, 0, 64, 0
2, 71144, Control_c, 0, 64, 127
2, 71201, Note_on_c, 0, 44, 0
2, 71204, Note_on_c, 0, 55, 33
2, 71271, Note_on_c, 0, 60, 0
2, 71276, Note_on_c, 0, 55, 0
2, 71284, Note_on_c, 0, 56, 36
2, 71286, Note_on_c, 0, 65, 0
2, 71343, Note_on_c, 0, 60, 42
2, 71344, Note_on_c, 0, 72, 0
2, 71406, Note_on_c, 0, 70, 50
2, 71408, Note_on_c, 0, 65, 31
2, 71426, Note_on_c, 0, 60, 0
2, 71454, Note_on_c, 0, 70, 0
2, 71466, Note_on_c, 0, 72, 40
2, 71471, Note_on_c, 0, 60, 34
2, 71511, Note_on_c, 0, 60, 0
2, 71528, Note_on_c, 0, 77, 57
2, 71530, Note_on_c, 0, 72, 0
2, 71542, Note_on_c, 0, 60, 27
2, 71552, Note_on_c, 0, 56, 0
2, 71589, Note_on_c, 0, 82, 59
2, 71590, Note_on_c, 0, 77, 0
2, 71607, Note_on_c, 0, 82, 0
2, 71652, Note_on_c, 0, 84, 56
2, 71654, Note_on_c, 0, 65, 0
2, 71654, Note_on_c, 0, 56, 34
2, 71658, Note_on_c, 0, 60, 0
2, 71674, Note_on_c, 0, 56, 0
2, 71711, Note_on_c, 0, 96, 55
2, 71762, Note_on_c, 0, 96, 0
2, 71776, Note_on_c, 0, 44, 37
2, 71777, Note_on_c, 0, 94, 52
2, 71794, Control_c, 0, 64, 0
2, 71822, Control_c, 0, 64, 127
2, 71848, Note_on_c, 0, 44, 0
2, 71852, Note_on_c, 0, 55, 37
2, 71917, Note_on_c, 0, 55, 0
2, 71920, Note_on_c, 0, 89, 42
2, 71929, Note_on_c, 0, 56, 27
2, 72001, Note_on_c, 0, 89, 0
2, 72004, Note_on_c, 0, 94, 0
2, 72005, Note_on_c, 0, 84, 0
2, 72008, Note_on_c, 0, 60, 26
2, 72111, Note_on_c, 0, 67, 30
2, 72112, Note_on_c, 0, 72, 27
2, 72114, Note_on_c, 0, 65, 26
2, 72289, Note_on_c, 0, 65, 0
2, 72327, Note_on_c, 0, 60, 0
2, 72328, Note_on_c, 0, 67, 0
2, 72345, Note_on_c, 0, 56, 0
2, 72369, Note_on_c, 0, 67, 46
2, 72433, Note_on_c, 0, 72, 0
2, 72449, Note_on_c, 0, 72, 49
2, 72540, Note_on_c, 0, 67, 0
2, 72710, Note_on_c, 0, 79, 49
2, 72755, Note_on_c, 0, 72, 0
2, 72830, Note_on_c, 0, 79, 0
2, 72878, Note_on_c, 0, 78, 50
2, 72883, Note_on_c, 0, 69, 44
2, 72884, Note_on_c, 0, 36, 37
2, 72898, Control_c, 0, 64, 0
2, 72934, Control_c, 0, 64, 127
2, 72955, Note_on_c, 0, 78, 0
2, 72962, Note_on_c, 0, 69, 0
2, 72967, Note_on_c, 0, 43, 39
2, 72978, Note_on_c, 0, 36, 0
2, 73025, Note_on_c, 0, 43, 0
2, 73044, Note_on_c, 0, 62, 62
2, 73051, Note_on_c, 0, 52, 32
2, 73124, Note_on_c, 0, 54, 35
2, 73134, Note_on_c, 0, 52, 0
2, 73136, Note_on_c, 0, 62, 0
2, 73206, Note_on_c, 0, 69, 55
2, 73222, Note_on_c, 0, 57, 28
2, 73285, Note_on_c, 0, 57, 0
2, 73289, Note_on_c, 0, 81, 57
2, 73295, Note_on_c, 0, 62, 42
2, 73299, Note_on_c, 0, 54, 0
2, 73379, Note_on_c, 0, 69, 0
2, 73380, Note_on_c, 0, 81, 0
2, 73384, Note_on_c, 0, 62, 0
2, 73386, Note_on_c, 0, 66, 33
2, 73387, Note_on_c, 0, 78, 34
2, 73408, Note_on_c, 0, 78, 0
2, 73473, Note_on_c, 0, 93, 58
2, 73477, Note_on_c, 0, 69, 22
2, 73552, Note_on_c, 0, 93, 0
2, 73558, Note_on_c, 0, 69, 0
2, 73563, Note_on_c, 0, 90, 39
2, 73567, Note_on_c, 0, 66, 0
2, 73570, Note_on_c, 0, 81, 30
2, 73573, Note_on_c, 0, 74, 41
2, 73603, Note_on_c, 0, 81, 0
2, 73616, Note_on_c, 0, 90, 0
2, 73662, Note_on_c, 0, 78, 23
2, 73664, Note_on_c, 0, 74, 0
2, 73678, Note_on_c, 0, 105, 19
2, 73752, Note_on_c, 0, 105, 0
2, 73757, Note_on_c, 0, 102, 46
2, 73761, Note_on_c, 0, 93, 43
2, 73765, Note_on_c, 0, 81, 35
2, 73846, Note_on_c, 0, 93, 0
2, 73864, Note_on_c, 0, 81, 0
2, 73864, Note_on_c, 0, 86, 44
2, 73880, Note_on_c, 0, 78, 0
2, 73964, Note_on_c, 0, 102, 0
2, 74156, Note_on_c, 0, 86, 0
2, 74156, End_track
3, 0, Start_track
3, 0, Title_t, "Solo Piano in Real time"
3, 0, End_track
4, 0, Start_track
4, 0, End_track
0, 0, End_of_file
