0, 0, Header, 1, 4, 120
1, 0, Start_track
1, 0, Title_t, "untitled"
1, 0, Text_t, "Doug McK\012"
1, 0, Time_signature, 4, 2, 24, 8
1, 0, Key_signature, 0, "major"
1, 0, Tempo, 845070
1, 0, End_track
2, 0, Start_track
2, 0, Title_t, ""
2, 0, Program_c, 1, 32
2, 8641, Note_on_c, 1, 35, 83
2, 8884, Note_on_c, 1, 35, 0
2, 8890, Note_on_c, 1, 36, 87
2, 9124, Note_on_c, 1, 41, 90
2, 9126, Note_on_c, 1, 36, 0
2, 9339, Note_on_c, 1, 53, 74
2, 9359, Note_on_c, 1, 41, 0
2, 9362, Note_on_c, 1, 53, 0
2, 9367, Note_on_c, 1, 52, 87
2, 9481, Note_on_c, 1, 40, 94
2, 9487, Note_on_c, 1, 52, 0
2, 9599, Note_on_c, 1, 40, 0
2, 9602, Note_on_c, 1, 45, 103
2, 9730, Note_on_c, 1, 50, 105
2, 9761, Note_on_c, 1, 45, 0
2, 9854, Note_on_c, 1, 50, 0
2, 9856, Note_on_c, 1, 43, 57
2, 10066, Note_on_c, 1, 38, 53
2, 10073, Note_on_c, 1, 43, 0
2, 10088, Note_on_c, 1, 38, 0
2, 10094, Note_on_c, 1, 39, 67
2, 10200, Note_on_c, 1, 57, 69
2, 10379, Note_on_c, 1, 44, 84
2, 10382, Note_on_c, 1, 39, 0
2, 10386, Note_on_c, 1, 57, 0
2, 10568, Note_on_c, 1, 44, 0
2, 10572, Note_on_c, 1, 33, 78
2, 10787, Note_on_c, 1, 40, 67
2, 10805, Note_on_c, 1, 40, 0
2, 10806, Note_on_c, 1, 33, 0
2, 10813, Note_on_c, 1, 38, 85
2, 11021, Note_on_c, 1, 45, 96
2, 11032, Note_on_c, 1, 38, 0
2, 11041, Note_on_c, 1, 45, 0
2, 11047, Note_on_c, 1, 43, 81
2, 11247, Note_on_c, 1, 38, 64
2, 11258, Note_on_c, 1, 38, 0
2, 11267, Note_on_c, 1, 35, 64
2, 11273, Note_on_c, 1, 43, 0
2, 11279, Note_on_c, 1, 35, 0
2, 11288, Note_on_c, 1, 36, 85
2, 11414, Note_on_c, 1, 50, 96
2, 11422, Note_on_c, 1, 36, 0
2, 11477, Note_on_c, 1, 41, 96
2, 11480, Note_on_c, 1, 50, 0
2, 11481, Note_on_c, 1, 40, 44
2, 11485, Note_on_c, 1, 40, 0
2, 11534, Note_on_c, 1, 29, 80
2, 11703, Note_on_c, 1, 41, 0
2, 11713, Note_on_c, 1, 29, 0
2, 11713, Note_on_c, 1, 40, 99
2, 11768, Note_on_c, 1, 54, 83
2, 11944, Note_on_c, 1, 40, 0
2, 11948, Note_on_c, 1, 35, 89
2, 11961, Note_on_c, 1, 54, 0
2, 12156, Note_on_c, 1, 35, 0
2, 12191, Note_on_c, 1, 49, 95
2, 12222, Pitch_bend_c, 1, 8192
2, 12224, Pitch_bend_c, 1, 8192
2, 12225, Pitch_bend_c, 1, 7680
2, 12226, Pitch_bend_c, 1, 7552
2, 12227, Pitch_bend_c, 1, 7296
2, 12228, Pitch_bend_c, 1, 7040
2, 12229, Pitch_bend_c, 1, 6784
2, 12230, Pitch_bend_c, 1, 6528
2, 12231, Note_on_c, 1, 49, 0
2, 12231, Pitch_bend_c, 1, 6400
2, 12232, Pitch_bend_c, 1, 6144
2, 12233, Pitch_bend_c, 1, 5888
2, 12234, Pitch_bend_c, 1, 5760
2, 12235, Pitch_bend_c, 1, 5504
2, 12236, Pitch_bend_c, 1, 5376
2, 12237, Pitch_bend_c, 1, 5120
2, 12238, Pitch_bend_c, 1, 4736
2, 12239, Pitch_bend_c, 1, 4608
2, 12240, Pitch_bend_c, 1, 4352
2, 12241, Pitch_bend_c, 1, 3968
2, 12242, Pitch_bend_c, 1, 3712
2, 12243, Pitch_bend_c, 1, 3456
2, 12244, Pitch_bend_c, 1, 3200
2, 12245, Pitch_bend_c, 1, 2944
2, 12246, Pitch_bend_c, 1, 2688
2, 12247, Pitch_bend_c, 1, 2432
2, 12248, Pitch_bend_c, 1, 2304
2, 12249, Pitch_bend_c, 1, 2176
2, 12251, Pitch_bend_c, 1, 2048
2, 12255, Pitch_bend_c, 1, 2304
2, 12256, Pitch_bend_c, 1, 2560
2, 12257, Pitch_bend_c, 1, 2816
2, 12258, Pitch_bend_c, 1, 3200
2, 12259, Pitch_bend_c, 1, 3712
2, 12260, Pitch_bend_c, 1, 4224
2, 12261, Pitch_bend_c, 1, 4736
2, 12262, Pitch_bend_c, 1, 5504
2, 12263, Pitch_bend_c, 1, 6016
2, 12264, Pitch_bend_c, 1, 6656
2, 12265, Pitch_bend_c, 1, 7168
2, 12266, Pitch_bend_c, 1, 7680
2, 12266, Note_on_c, 1, 49, 74
2, 12267, Pitch_bend_c, 1, 8192
2, 12268, Pitch_bend_c, 1, 8192
2, 12290, Pitch_bend_c, 1, 8192
2, 12292, Pitch_bend_c, 1, 8192
2, 12293, Pitch_bend_c, 1, 8192
2, 12295, Pitch_bend_c, 1, 7680
2, 12296, Pitch_bend_c, 1, 7552
2, 12297, Pitch_bend_c, 1, 7424
2, 12298, Pitch_bend_c, 1, 7296
2, 12300, Pitch_bend_c, 1, 7040
2, 12301, Pitch_bend_c, 1, 6912
2, 12302, Pitch_bend_c, 1, 6784
2, 12303, Pitch_bend_c, 1, 6528
2, 12304, Pitch_bend_c, 1, 6400
2, 12305, Pitch_bend_c, 1, 6144
2, 12306, Pitch_bend_c, 1, 5888
2, 12307, Pitch_bend_c, 1, 5760
2, 12308, Pitch_bend_c, 1, 5632
2, 12309, Pitch_bend_c, 1, 5376
2, 12310, Pitch_bend_c, 1, 5120
2, 12311, Pitch_bend_c, 1, 4864
2, 12312, Pitch_bend_c, 1, 4736
2, 12313, Pitch_bend_c, 1, 4608
2, 12314, Pitch_bend_c, 1, 4480
2, 12315, Pitch_bend_c, 1, 4352
2, 12316, Pitch_bend_c, 1, 4224
2, 12317, Pitch_bend_c, 1, 4096
2, 12319, Pitch_bend_c, 1, 3840
2, 12328, Pitch_bend_c, 1, 4096
2, 12329, Pitch_bend_c, 1, 4352
2, 12330, Pitch_bend_c, 1, 4608
2, 12331, Pitch_bend_c, 1, 5120
2, 12332, Pitch_bend_c, 1, 6016
2, 12333, Pitch_bend_c, 1, 6784
2, 12334, Pitch_bend_c, 1, 7552
2, 12335, Note_on_c, 1, 49, 0
2, 12335, Pitch_bend_c, 1, 8192
2, 12477, Note_on_c, 1, 40, 77
2, 12502, Note_on_c, 1, 40, 0
2, 12502, Note_on_c, 1, 39, 83
2, 12673, Note_on_c, 1, 46, 98
2, 12694, Note_on_c, 1, 39, 0
2, 12726, Note_on_c, 1, 46, 0
2, 12729, Note_on_c, 1, 45, 76
2, 12844, Note_on_c, 1, 40, 94
2, 12853, Note_on_c, 1, 45, 0
2, 12903, Note_on_c, 1, 40, 0
2, 12905, Note_on_c, 1, 35, 69
2, 12958, Note_on_c, 1, 35, 0
2, 12963, Note_on_c, 1, 36, 95
2, 13027, Note_on_c, 1, 50, 95
2, 13083, Note_on_c, 1, 50, 0
2, 13088, Note_on_c, 1, 51, 78
2, 13203, Note_on_c, 1, 36, 0
2, 13211, Note_on_c, 1, 42, 98
2, 13217, Note_on_c, 1, 51, 0
2, 13438, Note_on_c, 1, 42, 0
2, 13444, Note_on_c, 1, 35, 74
2, 13515, Note_on_c, 1, 50, 82
2, 13702, Note_on_c, 1, 43, 81
2, 13703, Note_on_c, 1, 35, 0
2, 13705, Note_on_c, 1, 50, 0
2, 13870, Note_on_c, 1, 43, 0
2, 13873, Note_on_c, 1, 38, 59
2, 13923, Note_on_c, 1, 38, 0
2, 13935, Note_on_c, 1, 39, 77
2, 13986, Note_on_c, 1, 57, 58
2, 14048, Note_on_c, 1, 57, 0
2, 14053, Note_on_c, 1, 55, 54
2, 14168, Note_on_c, 1, 39, 0
2, 14169, Note_on_c, 1, 55, 0
2, 14174, Note_on_c, 1, 38, 66
2, 14399, Note_on_c, 1, 38, 0
2, 14405, Note_on_c, 1, 36, 80
2, 14831, Note_on_c, 1, 48, 67
2, 14854, Note_on_c, 1, 36, 0
2, 14865, Note_on_c, 1, 36, 65
2, 14883, Note_on_c, 1, 36, 0
2, 14887, Note_on_c, 1, 48, 0
2, 14894, Note_on_c, 1, 47, 79
2, 15067, Note_on_c, 1, 42, 61
2, 15084, Note_on_c, 1, 42, 0
2, 15102, Note_on_c, 1, 35, 47
2, 15102, Note_on_c, 1, 33, 47
2, 15115, Note_on_c, 1, 33, 0
2, 15118, Note_on_c, 1, 35, 0
2, 15130, Note_on_c, 1, 36, 75
2, 15145, Note_on_c, 1, 47, 0
2, 15368, Note_on_c, 1, 36, 0
2, 15368, Note_on_c, 1, 41, 81
2, 15548, Note_on_c, 1, 40, 89
2, 15553, Note_on_c, 1, 41, 0
2, 15612, Note_on_c, 1, 54, 87
2, 15645, Note_on_c, 1, 55, 68
2, 15646, Note_on_c, 1, 54, 0
2, 15676, Note_on_c, 1, 54, 71
2, 15678, Note_on_c, 1, 55, 0
2, 15731, Note_on_c, 1, 54, 0
2, 15732, Note_on_c, 1, 52, 71
2, 15744, Note_on_c, 1, 40, 0
2, 15792, Note_on_c, 1, 45, 96
2, 15807, Note_on_c, 1, 52, 0
2, 15911, Note_on_c, 1, 45, 0
2, 15912, Note_on_c, 1, 40, 62
2, 15970, Note_on_c, 1, 40, 0
2, 15972, Note_on_c, 1, 38, 80
2, 16035, Note_on_c, 1, 45, 89
2, 16081, Note_on_c, 1, 45, 0
2, 16081, Note_on_c, 1, 38, 0
2, 16088, Note_on_c, 1, 43, 88
2, 16267, Note_on_c, 1, 38, 69
2, 16286, Note_on_c, 1, 38, 0
2, 16330, Note_on_c, 1, 39, 81
2, 16339, Note_on_c, 1, 43, 0
2, 16523, Note_on_c, 1, 32, 81
2, 16527, Note_on_c, 1, 39, 0
2, 16591, Note_on_c, 1, 48, 62
2, 16811, Note_on_c, 1, 32, 0
2, 16817, Note_on_c, 1, 33, 80
2, 16818, Note_on_c, 1, 48, 0
2, 16823, Note_on_c, 1, 34, 49
2, 16828, Note_on_c, 1, 34, 0
2, 16998, Note_on_c, 1, 40, 71
2, 17012, Note_on_c, 1, 33, 0
2, 17028, Note_on_c, 1, 40, 0
2, 17032, Note_on_c, 1, 37, 75
2, 17062, Note_on_c, 1, 37, 0
2, 17064, Note_on_c, 1, 38, 88
2, 17232, Note_on_c, 1, 50, 94
2, 17234, Note_on_c, 1, 38, 0
2, 17250, Note_on_c, 1, 50, 0
2, 17263, Note_on_c, 1, 42, 76
2, 17291, Note_on_c, 1, 42, 0
2, 17294, Note_on_c, 1, 43, 77
2, 17329, Note_on_c, 1, 43, 0
2, 17329, Note_on_c, 1, 38, 59
2, 17348, Note_on_c, 1, 38, 0
2, 17353, Note_on_c, 1, 31, 74
2, 17499, Note_on_c, 1, 35, 61
2, 17502, Note_on_c, 1, 31, 0
2, 17518, Note_on_c, 1, 35, 0
2, 17525, Note_on_c, 1, 36, 81
2, 17558, Note_on_c, 1, 50, 71
2, 17575, Note_on_c, 1, 50, 0
2, 17586, Note_on_c, 1, 48, 79
2, 17634, Note_on_c, 1, 36, 0
2, 17645, Note_on_c, 1, 41, 62
2, 17657, Note_on_c, 1, 41, 0
2, 17707, Note_on_c, 1, 41, 47
2, 17712, Note_on_c, 1, 41, 0
2, 17764, Note_on_c, 1, 41, 84
2, 17818, Note_on_c, 1, 29, 66
2, 17871, Note_on_c, 1, 29, 0
2, 17882, Note_on_c, 1, 29, 67
2, 17885, Note_on_c, 1, 48, 0
2, 17929, Note_on_c, 1, 41, 0
2, 17942, Note_on_c, 1, 41, 82
2, 17953, Note_on_c, 1, 29, 0
2, 17997, Note_on_c, 1, 41, 0
2, 18004, Note_on_c, 1, 40, 94
2, 18063, Note_on_c, 1, 54, 93
2, 18119, Note_on_c, 1, 54, 0
2, 18127, Note_on_c, 1, 54, 81
2, 18223, Note_on_c, 1, 40, 0
2, 18223, Note_on_c, 1, 52, 66
2, 18249, Note_on_c, 1, 50, 68
2, 18253, Note_on_c, 1, 54, 0
2, 18254, Note_on_c, 1, 52, 0
2, 18261, Note_on_c, 1, 50, 0
2, 18270, Note_on_c, 1, 47, 80
2, 18662, Note_on_c, 1, 35, 37
2, 18723, Note_on_c, 1, 35, 0
2, 18725, Note_on_c, 1, 39, 67
2, 18728, Note_on_c, 1, 47, 0
2, 18785, Note_on_c, 1, 54, 54
2, 18843, Note_on_c, 1, 54, 0
2, 18851, Note_on_c, 1, 54, 55
2, 18969, Note_on_c, 1, 39, 0
2, 18969, Note_on_c, 1, 45, 80
2, 18978, Note_on_c, 1, 54, 0
2, 19004, Note_on_c, 1, 54, 13
2, 19023, Note_on_c, 1, 54, 0
2, 19088, Note_on_c, 1, 59, 94
2, 19147, Note_on_c, 1, 57, 75
2, 19153, Note_on_c, 1, 59, 0
2, 19206, Note_on_c, 1, 45, 0
2, 19209, Note_on_c, 1, 36, 77
2, 19227, Note_on_c, 1, 57, 0
2, 19269, Note_on_c, 1, 51, 93
2, 19368, Note_on_c, 1, 36, 0
2, 19389, Note_on_c, 1, 50, 64
2, 19407, Note_on_c, 1, 50, 0
2, 19409, Note_on_c, 1, 51, 0
2, 19418, Note_on_c, 1, 48, 73
2, 19424, Note_on_c, 1, 48, 0
2, 19446, Note_on_c, 1, 42, 74
2, 19626, Note_on_c, 1, 42, 0
2, 19689, Note_on_c, 1, 47, 91
2, 19701, Pitch_bend_c, 1, 8192
2, 19702, Pitch_bend_c, 1, 8192
2, 19704, Pitch_bend_c, 1, 8192
2, 19706, Pitch_bend_c, 1, 7552
2, 19707, Pitch_bend_c, 1, 7424
2, 19708, Pitch_bend_c, 1, 7168
2, 19709, Pitch_bend_c, 1, 6912
2, 19710, Pitch_bend_c, 1, 6784
2, 19711, Pitch_bend_c, 1, 6528
2, 19712, Pitch_bend_c, 1, 6272
2, 19713, Pitch_bend_c, 1, 6016
2, 19714, Pitch_bend_c, 1, 5888
2, 19715, Pitch_bend_c, 1, 5632
2, 19716, Pitch_bend_c, 1, 5504
2, 19717, Pitch_bend_c, 1, 5120
2, 19718, Pitch_bend_c, 1, 4992
2, 19719, Pitch_bend_c, 1, 4864
2, 19720, Pitch_bend_c, 1, 4736
2, 19721, Pitch_bend_c, 1, 4480
2, 19722, Pitch_bend_c, 1, 4352
2, 19723, Pitch_bend_c, 1, 4096
2, 19724, Pitch_bend_c, 1, 3968
2, 19725, Pitch_bend_c, 1, 3840
2, 19726, Pitch_bend_c, 1, 3712
2, 19727, Pitch_bend_c, 1, 3456
2, 19728, Pitch_bend_c, 1, 3328
2, 19729, Pitch_bend_c, 1, 3200
2, 19730, Pitch_bend_c, 1, 2944
2, 19731, Pitch_bend_c, 1, 2816
2, 19732, Pitch_bend_c, 1, 2688
2, 19733, Pitch_bend_c, 1, 2560
2, 19735, Pitch_bend_c, 1, 2304
2, 19736, Pitch_bend_c, 1, 2176
2, 19738, Pitch_bend_c, 1, 2048
2, 19740, Pitch_bend_c, 1, 1920
2, 19742, Pitch_bend_c, 1, 1792
2, 19750, Note_on_c, 1, 47, 0
2, 19752, Pitch_bend_c, 1, 1920
2, 19753, Pitch_bend_c, 1, 2176
2, 19754, Pitch_bend_c, 1, 2304
2, 19755, Pitch_bend_c, 1, 2560
2, 19757, Pitch_bend_c, 1, 2816
2, 19758, Pitch_bend_c, 1, 3200
2, 19759, Pitch_bend_c, 1, 3584
2, 19760, Pitch_bend_c, 1, 3840
2, 19761, Pitch_bend_c, 1, 4224
2, 19762, Pitch_bend_c, 1, 4608
2, 19763, Pitch_bend_c, 1, 4992
2, 19764, Pitch_bend_c, 1, 5504
2, 19765, Pitch_bend_c, 1, 5760
2, 19766, Pitch_bend_c, 1, 6272
2, 19767, Pitch_bend_c, 1, 6528
2, 19768, Pitch_bend_c, 1, 6912
2, 19769, Pitch_bend_c, 1, 7168
2, 19770, Pitch_bend_c, 1, 7424
2, 19771, Pitch_bend_c, 1, 7680
2, 19772, Pitch_bend_c, 1, 8192
2, 19772, Pitch_bend_c, 1, 8192
2, 19774, Pitch_bend_c, 1, 8192
2, 19867, Note_on_c, 1, 47, 94
2, 19898, Note_on_c, 1, 47, 0
2, 19914, Note_on_c, 1, 44, 74
2, 19927, Note_on_c, 1, 44, 0
2, 19944, Note_on_c, 1, 43, 62
2, 19977, Pitch_bend_c, 1, 8192
2, 19979, Pitch_bend_c, 1, 8192
2, 19979, Pitch_bend_c, 1, 8192
2, 19981, Pitch_bend_c, 1, 7680
2, 19982, Pitch_bend_c, 1, 7552
2, 19983, Pitch_bend_c, 1, 7424
2, 19984, Pitch_bend_c, 1, 7296
2, 19985, Pitch_bend_c, 1, 7040
2, 19986, Pitch_bend_c, 1, 6912
2, 19987, Pitch_bend_c, 1, 6784
2, 19988, Pitch_bend_c, 1, 6656
2, 19989, Pitch_bend_c, 1, 6400
2, 19990, Pitch_bend_c, 1, 6272
2, 19992, Pitch_bend_c, 1, 6016
2, 19993, Pitch_bend_c, 1, 5888
2, 19994, Pitch_bend_c, 1, 5760
2, 19995, Pitch_bend_c, 1, 5632
2, 19996, Pitch_bend_c, 1, 5504
2, 19997, Pitch_bend_c, 1, 5376
2, 19998, Pitch_bend_c, 1, 4992
2, 19999, Pitch_bend_c, 1, 4864
2, 20001, Pitch_bend_c, 1, 4608
2, 20003, Pitch_bend_c, 1, 4352
2, 20004, Pitch_bend_c, 1, 4224
2, 20005, Pitch_bend_c, 1, 4096
2, 20007, Pitch_bend_c, 1, 3968
2, 20017, Pitch_bend_c, 1, 4096
2, 20018, Pitch_bend_c, 1, 4224
2, 20019, Pitch_bend_c, 1, 4352
2, 20020, Pitch_bend_c, 1, 4480
2, 20021, Pitch_bend_c, 1, 4736
2, 20022, Pitch_bend_c, 1, 4864
2, 20023, Pitch_bend_c, 1, 5376
2, 20024, Pitch_bend_c, 1, 5760
2, 20025, Pitch_bend_c, 1, 6144
2, 20026, Pitch_bend_c, 1, 6528
2, 20027, Pitch_bend_c, 1, 6784
2, 20028, Pitch_bend_c, 1, 7296
2, 20029, Pitch_bend_c, 1, 7680
2, 20030, Pitch_bend_c, 1, 8192
2, 20032, Note_on_c, 1, 43, 0
2, 20107, Note_on_c, 1, 43, 67
2, 20124, Note_on_c, 1, 43, 0
2, 20135, Note_on_c, 1, 38, 58
2, 20166, Note_on_c, 1, 38, 0
2, 20166, Note_on_c, 1, 39, 81
2, 20348, Note_on_c, 1, 50, 79
2, 20355, Note_on_c, 1, 39, 0
2, 20364, Note_on_c, 1, 50, 0
2, 20376, Note_on_c, 1, 39, 60
2, 20403, Note_on_c, 1, 39, 0
2, 20406, Note_on_c, 1, 38, 87
2, 20543, Note_on_c, 1, 36, 92
2, 20548, Note_on_c, 1, 38, 0
2, 20643, Note_on_c, 1, 36, 0
2, 20651, Note_on_c, 1, 36, 94
2, 21034, Note_on_c, 1, 36, 0
2, 21034, End_track
3, 0, Start_track
3, 0, Title_t, ""
3, 0, Program_c, 0, 0
3, 4, Note_on_c, 0, 78, 42
3, 6, Note_on_c, 0, 66, 27
3, 19, Note_on_c, 0, 66, 0
3, 23, Note_on_c, 0, 76, 54
3, 24, Control_c, 0, 64, 127
3, 26, Note_on_c, 0, 78, 0
3, 30, Note_on_c, 0, 64, 32
3, 39, Control_c, 0, 64, 0
3, 40, Note_on_c, 0, 76, 0
3, 46, Note_on_c, 0, 64, 0
3, 46, Note_on_c, 0, 66, 46
3, 47, Note_on_c, 0, 78, 54
3, 73, Control_c, 0, 64, 127
3, 154, Note_on_c, 0, 66, 0
3, 210, Note_on_c, 0, 76, 22
3, 230, Note_on_c, 0, 78, 0
3, 230, Note_on_c, 0, 72, 45
3, 234, Note_on_c, 0, 71, 43
3, 242, Note_on_c, 0, 48, 30
3, 247, Control_c, 0, 64, 0
3, 248, Control_c, 0, 64, 127
3, 293, Note_on_c, 0, 72, 0
3, 294, Note_on_c, 0, 76, 0
3, 300, Note_on_c, 0, 71, 0
3, 302, Note_on_c, 0, 55, 19
3, 377, Note_on_c, 0, 59, 28
3, 378, Note_on_c, 0, 64, 29
3, 380, Note_on_c, 0, 60, 24
3, 459, Note_on_c, 0, 59, 0
3, 462, Note_on_c, 0, 60, 0
3, 480, Note_on_c, 0, 64, 0
3, 518, Note_on_c, 0, 48, 0
3, 521, Note_on_c, 0, 55, 0
3, 559, Note_on_c, 0, 79, 61
3, 608, Note_on_c, 0, 79, 0
3, 613, Note_on_c, 0, 76, 46
3, 615, Control_c, 0, 64, 0
3, 617, Note_on_c, 0, 53, 28
3, 628, Control_c, 0, 64, 127
3, 666, Note_on_c, 0, 76, 0
3, 670, Note_on_c, 0, 83, 52
3, 671, Note_on_c, 0, 60, 39
3, 698, Note_on_c, 0, 83, 0
3, 737, Note_on_c, 0, 65, 36
3, 757, Note_on_c, 0, 74, 8
3, 768, Note_on_c, 0, 53, 0
3, 778, Note_on_c, 0, 86, 73
3, 787, Note_on_c, 0, 53, 31
3, 805, Note_on_c, 0, 53, 0
3, 808, Note_on_c, 0, 65, 0
3, 809, Note_on_c, 0, 60, 0
3, 820, Note_on_c, 0, 86, 0
3, 829, Note_on_c, 0, 74, 0
3, 833, Note_on_c, 0, 85, 78
3, 835, Note_on_c, 0, 52, 55
3, 845, Control_c, 0, 64, 0
3, 872, Control_c, 0, 64, 127
3, 886, Note_on_c, 0, 85, 0
3, 888, Note_on_c, 0, 81, 46
3, 894, Note_on_c, 0, 81, 0
3, 894, Note_on_c, 0, 59, 17
3, 913, Note_on_c, 0, 52, 0
3, 954, Note_on_c, 0, 83, 39
3, 958, Note_on_c, 0, 78, 42
3, 963, Note_on_c, 0, 66, 21
3, 985, Note_on_c, 0, 71, 1
3, 996, Note_on_c, 0, 59, 0
3, 1070, Note_on_c, 0, 66, 0
3, 1079, Note_on_c, 0, 71, 0
3, 1103, Note_on_c, 0, 83, 0
3, 1112, Note_on_c, 0, 78, 0
3, 1203, Note_on_c, 0, 67, 25
3, 1207, Note_on_c, 0, 64, 39
3, 1210, Note_on_c, 0, 60, 39
3, 1216, Note_on_c, 0, 59, 39
3, 1227, Note_on_c, 0, 45, 36
3, 1227, Note_on_c, 0, 52, 24
3, 1229, Control_c, 0, 64, 0
3, 1230, Note_on_c, 0, 55, 22
3, 1278, Control_c, 0, 64, 127
3, 1321, Note_on_c, 0, 60, 0
3, 1321, Note_on_c, 0, 64, 0
3, 1327, Note_on_c, 0, 59, 0
3, 1346, Note_on_c, 0, 67, 0
3, 1361, Note_on_c, 0, 45, 0
3, 1365, Note_on_c, 0, 52, 0
3, 1372, Note_on_c, 0, 55, 0
3, 1513, Note_on_c, 0, 72, 83
3, 1519, Note_on_c, 0, 50, 60
3, 1523, Note_on_c, 0, 57, 39
3, 1529, Note_on_c, 0, 57, 0
3, 1556, Note_on_c, 0, 50, 0
3, 1556, Note_on_c, 0, 72, 0
3, 1564, Note_on_c, 0, 79, 82
3, 1614, Note_on_c, 0, 79, 0
3, 1618, Note_on_c, 0, 58, 49
3, 1618, Note_on_c, 0, 62, 50
3, 1619, Note_on_c, 0, 76, 77
3, 1619, Note_on_c, 0, 57, 36
3, 1625, Control_c, 0, 64, 0
3, 1652, Control_c, 0, 64, 127
3, 1667, Note_on_c, 0, 76, 0
3, 1671, Note_on_c, 0, 77, 71
3, 1712, Note_on_c, 0, 57, 0
3, 1718, Note_on_c, 0, 77, 0
3, 1726, Note_on_c, 0, 72, 57
3, 1727, Note_on_c, 0, 55, 32
3, 1752, Note_on_c, 0, 62, 0
3, 1762, Note_on_c, 0, 58, 0
3, 1770, Note_on_c, 0, 55, 0
3, 1779, Note_on_c, 0, 74, 50
3, 1780, Note_on_c, 0, 72, 0
3, 1793, Note_on_c, 0, 74, 0
3, 1846, Note_on_c, 0, 81, 36
3, 1847, Note_on_c, 0, 74, 32
3, 1848, Note_on_c, 0, 67, 34
3, 1850, Note_on_c, 0, 69, 30
3, 1850, Note_on_c, 0, 39, 39
3, 1856, Control_c, 0, 64, 0
3, 1884, Control_c, 0, 64, 127
3, 1907, Note_on_c, 0, 39, 0
3, 1914, Note_on_c, 0, 46, 46
3, 1966, Note_on_c, 0, 69, 0
3, 1968, Note_on_c, 0, 67, 0
3, 1975, Note_on_c, 0, 81, 0
3, 1977, Note_on_c, 0, 74, 0
3, 1982, Note_on_c, 0, 55, 35
3, 2003, Note_on_c, 0, 55, 0
3, 2049, Control_c, 0, 64, 0
3, 2050, Note_on_c, 0, 46, 0
3, 2052, Note_on_c, 0, 74, 33
3, 2054, Note_on_c, 0, 44, 33
3, 2054, Note_on_c, 0, 70, 36
3, 2055, Note_on_c, 0, 65, 40
3, 2059, Note_on_c, 0, 54, 25
3, 2068, Control_c, 0, 64, 127
3, 2205, Note_on_c, 0, 65, 0
3, 2222, Note_on_c, 0, 65, 16
3, 2225, Note_on_c, 0, 67, 32
3, 2363, Note_on_c, 0, 44, 0
3, 2366, Note_on_c, 0, 54, 0
3, 2376, Note_on_c, 0, 67, 0
3, 2379, Note_on_c, 0, 74, 0
3, 2380, Note_on_c, 0, 70, 0
3, 2381, Note_on_c, 0, 65, 0
3, 2520, Note_on_c, 0, 59, 25
3, 2521, Note_on_c, 0, 64, 46
3, 2521, Note_on_c, 0, 66, 26
3, 2522, Note_on_c, 0, 60, 37
3, 2523, Note_on_c, 0, 52, 34
3, 2524, Note_on_c, 0, 45, 35
3, 2525, Control_c, 0, 64, 0
3, 2526, Note_on_c, 0, 55, 22
3, 2552, Control_c, 0, 64, 127
3, 2566, Note_on_c, 0, 60, 0
3, 2567, Note_on_c, 0, 59, 0
3, 2576, Note_on_c, 0, 45, 0
3, 2578, Note_on_c, 0, 64, 0
3, 2580, Note_on_c, 0, 52, 0
3, 2584, Note_on_c, 0, 66, 0
3, 2586, Note_on_c, 0, 55, 0
3, 2648, Note_on_c, 0, 76, 95
3, 2649, Note_on_c, 0, 64, 44
3, 2650, Note_on_c, 0, 60, 39
3, 2652, Note_on_c, 0, 59, 32
3, 2715, Note_on_c, 0, 69, 89
3, 2720, Note_on_c, 0, 59, 0
3, 2720, Note_on_c, 0, 64, 0
3, 2721, Note_on_c, 0, 60, 0
3, 2774, Note_on_c, 0, 50, 74
3, 2782, Control_c, 0, 64, 0
3, 2787, Note_on_c, 0, 76, 0
3, 2794, Control_c, 0, 64, 127
3, 2801, Note_on_c, 0, 69, 0
3, 2835, Note_on_c, 0, 71, 71
3, 2836, Note_on_c, 0, 62, 75
3, 2838, Note_on_c, 0, 57, 57
3, 2866, Note_on_c, 0, 62, 0
3, 2881, Note_on_c, 0, 71, 0
3, 2888, Note_on_c, 0, 57, 0
3, 2888, Note_on_c, 0, 64, 83
3, 2888, Note_on_c, 0, 72, 80
3, 2889, Note_on_c, 0, 60, 61
3, 2904, Note_on_c, 0, 64, 0
3, 2908, Note_on_c, 0, 72, 0
3, 2916, Note_on_c, 0, 50, 0
3, 2935, Note_on_c, 0, 76, 71
3, 2936, Note_on_c, 0, 67, 75
3, 2939, Note_on_c, 0, 50, 50
3, 2940, Note_on_c, 0, 60, 0
3, 2951, Note_on_c, 0, 50, 0
3, 2963, Note_on_c, 0, 76, 0
3, 2971, Note_on_c, 0, 67, 0
3, 2986, Note_on_c, 0, 74, 81
3, 2987, Note_on_c, 0, 43, 63
3, 2988, Note_on_c, 0, 65, 80
3, 2990, Control_c, 0, 64, 0
3, 3017, Control_c, 0, 64, 127
3, 3035, Note_on_c, 0, 65, 0
3, 3038, Note_on_c, 0, 50, 47
3, 3053, Note_on_c, 0, 50, 0
3, 3078, Note_on_c, 0, 43, 0
3, 3093, Note_on_c, 0, 55, 46
3, 3094, Note_on_c, 0, 67, 44
3, 3094, Note_on_c, 0, 62, 44
3, 3110, Note_on_c, 0, 55, 0
3, 3122, Note_on_c, 0, 62, 0
3, 3124, Note_on_c, 0, 74, 0
3, 3126, Note_on_c, 0, 67, 0
3, 3165, Note_on_c, 0, 67, 43
3, 3165, Note_on_c, 0, 63, 47
3, 3166, Note_on_c, 0, 62, 50
3, 3167, Note_on_c, 0, 58, 33
3, 3169, Note_on_c, 0, 48, 43
3, 3176, Control_c, 0, 64, 0
3, 3207, Control_c, 0, 64, 127
3, 3233, Note_on_c, 0, 67, 0
3, 3246, Note_on_c, 0, 55, 22
3, 3249, Note_on_c, 0, 67, 33
3, 3258, Note_on_c, 0, 67, 0
3, 3259, Note_on_c, 0, 58, 0
3, 3265, Note_on_c, 0, 63, 0
3, 3276, Note_on_c, 0, 62, 0
3, 3310, Note_on_c, 0, 60, 57
3, 3311, Note_on_c, 0, 69, 55
3, 3312, Note_on_c, 0, 55, 0
3, 3314, Note_on_c, 0, 58, 25
3, 3346, Note_on_c, 0, 69, 0
3, 3350, Note_on_c, 0, 60, 0
3, 3359, Note_on_c, 0, 70, 69
3, 3363, Note_on_c, 0, 55, 39
3, 3368, Note_on_c, 0, 70, 0
3, 3417, Note_on_c, 0, 74, 63
3, 3452, Note_on_c, 0, 74, 0
3, 3456, Note_on_c, 0, 78, 69
3, 3457, Note_on_c, 0, 48, 0
3, 3460, Note_on_c, 0, 55, 0
3, 3472, Note_on_c, 0, 58, 0
3, 3483, Note_on_c, 0, 78, 0
3, 3496, Note_on_c, 0, 79, 70
3, 3515, Note_on_c, 0, 79, 0
3, 3543, Note_on_c, 0, 75, 57
3, 3543, Note_on_c, 0, 82, 53
3, 3545, Note_on_c, 0, 53, 33
3, 3546, Note_on_c, 0, 68, 30
3, 3555, Control_c, 0, 64, 0
3, 3596, Control_c, 0, 64, 127
3, 3603, Note_on_c, 0, 60, 33
3, 3629, Note_on_c, 0, 75, 0
3, 3643, Note_on_c, 0, 68, 0
3, 3659, Note_on_c, 0, 53, 0
3, 3682, Note_on_c, 0, 75, 46
3, 3685, Note_on_c, 0, 68, 36
3, 3688, Note_on_c, 0, 82, 0
3, 3699, Note_on_c, 0, 75, 0
3, 3699, Note_on_c, 0, 67, 2
3, 3740, Note_on_c, 0, 67, 0
3, 3758, Note_on_c, 0, 68, 0
3, 3760, Note_on_c, 0, 75, 58
3, 3769, Note_on_c, 0, 60, 0
3, 3785, Note_on_c, 0, 75, 0
3, 3829, Note_on_c, 0, 78, 42
3, 3830, Note_on_c, 0, 62, 28
3, 3831, Note_on_c, 0, 52, 46
3, 3832, Note_on_c, 0, 71, 40
3, 3837, Control_c, 0, 64, 0
3, 3862, Control_c, 0, 64, 127
3, 3867, Note_on_c, 0, 71, 0
3, 3881, Note_on_c, 0, 62, 0
3, 3881, Note_on_c, 0, 71, 46
3, 3886, Note_on_c, 0, 78, 0
3, 3886, Note_on_c, 0, 59, 30
3, 3925, Note_on_c, 0, 71, 0
3, 3930, Note_on_c, 0, 73, 47
3, 3931, Note_on_c, 0, 67, 38
3, 3931, Note_on_c, 0, 62, 35
3, 3952, Note_on_c, 0, 62, 0
3, 3952, Note_on_c, 0, 59, 0
3, 3957, Note_on_c, 0, 52, 0
3, 3970, Note_on_c, 0, 67, 0
3, 3971, Note_on_c, 0, 73, 0
3, 3974, Note_on_c, 0, 74, 55
3, 4010, Note_on_c, 0, 74, 0
3, 4025, Note_on_c, 0, 76, 44
3, 4026, Note_on_c, 0, 47, 34
3, 4030, Note_on_c, 0, 62, 29
3, 4030, Note_on_c, 0, 69, 24
3, 4030, Note_on_c, 0, 64, 27
3, 4032, Control_c, 0, 64, 0
3, 4056, Note_on_c, 0, 64, 0
3, 4057, Note_on_c, 0, 62, 0
3, 4060, Control_c, 0, 64, 127
3, 4071, Note_on_c, 0, 69, 0
3, 4072, Note_on_c, 0, 76, 0
3, 4078, Note_on_c, 0, 74, 37
3, 4084, Note_on_c, 0, 54, 25
3, 4086, Note_on_c, 0, 74, 0
3, 4128, Note_on_c, 0, 47, 0
3, 4140, Note_on_c, 0, 54, 0
3, 4141, Note_on_c, 0, 85, 62
3, 4146, Note_on_c, 0, 74, 30
3, 4146, Note_on_c, 0, 59, 33
3, 4147, Note_on_c, 0, 78, 32
3, 4200, Note_on_c, 0, 59, 0
3, 4200, Note_on_c, 0, 61, 36
3, 4212, Note_on_c, 0, 74, 0
3, 4213, Note_on_c, 0, 78, 0
3, 4228, Note_on_c, 0, 85, 0
3, 4260, Note_on_c, 0, 85, 49
3, 4263, Note_on_c, 0, 62, 36
3, 4267, Note_on_c, 0, 78, 36
3, 4269, Note_on_c, 0, 61, 0
3, 4270, Note_on_c, 0, 74, 29
3, 4329, Note_on_c, 0, 62, 0
3, 4335, Note_on_c, 0, 64, 32
3, 4374, Note_on_c, 0, 74, 0
3, 4375, Note_on_c, 0, 78, 0
3, 4383, Note_on_c, 0, 85, 0
3, 4419, Note_on_c, 0, 85, 37
3, 4428, Note_on_c, 0, 78, 21
3, 4429, Note_on_c, 0, 74, 28
3, 4430, Note_on_c, 0, 64, 0
3, 4434, Note_on_c, 0, 66, 28
3, 4515, Note_on_c, 0, 66, 0
3, 4558, Note_on_c, 0, 85, 0
3, 4570, Note_on_c, 0, 78, 0
3, 4572, Note_on_c, 0, 74, 0
3, 4878, Note_on_c, 0, 49, 34
3, 4898, Note_on_c, 0, 49, 0
3, 4899, Note_on_c, 0, 56, 48
3, 4917, Note_on_c, 0, 65, 46
3, 4922, Note_on_c, 0, 68, 51
3, 4926, Note_on_c, 0, 66, 59
3, 4928, Note_on_c, 0, 73, 46
3, 5129, Note_on_c, 0, 68, 0
3, 5166, Note_on_c, 0, 66, 0
3, 5174, Note_on_c, 0, 68, 61
3, 5177, Note_on_c, 0, 73, 0
3, 5207, Note_on_c, 0, 56, 0
3, 5208, Note_on_c, 0, 65, 0
3, 5211, Note_on_c, 0, 68, 0
3, 5216, Note_on_c, 0, 70, 74
3, 5244, Note_on_c, 0, 70, 0
3, 5266, Note_on_c, 0, 55, 33
3, 5267, Note_on_c, 0, 64, 64
3, 5267, Note_on_c, 0, 45, 30
3, 5267, Note_on_c, 0, 71, 58
3, 5275, Control_c, 0, 64, 0
3, 5298, Control_c, 0, 64, 127
3, 5305, Note_on_c, 0, 71, 0
3, 5312, Note_on_c, 0, 55, 0
3, 5312, Note_on_c, 0, 67, 60
3, 5314, Note_on_c, 0, 64, 0
3, 5317, Note_on_c, 0, 52, 37
3, 5319, Note_on_c, 0, 67, 0
3, 5367, Note_on_c, 0, 52, 0
3, 5367, Note_on_c, 0, 78, 64
3, 5369, Note_on_c, 0, 45, 0
3, 5372, Note_on_c, 0, 55, 48
3, 5377, Note_on_c, 0, 55, 0
3, 5422, Note_on_c, 0, 59, 36
3, 5485, Note_on_c, 0, 60, 38
3, 5545, Note_on_c, 0, 64, 40
3, 5555, Note_on_c, 0, 64, 0
3, 5562, Note_on_c, 0, 60, 0
3, 5563, Note_on_c, 0, 59, 0
3, 5604, Note_on_c, 0, 70, 46
3, 5606, Note_on_c, 0, 67, 34
3, 5606, Note_on_c, 0, 58, 25
3, 5609, Note_on_c, 0, 48, 44
3, 5617, Note_on_c, 0, 78, 0
3, 5620, Control_c, 0, 64, 0
3, 5641, Control_c, 0, 64, 127
3, 5659, Note_on_c, 0, 55, 46
3, 5660, Note_on_c, 0, 70, 0
3, 5672, Note_on_c, 0, 58, 0
3, 5693, Note_on_c, 0, 67, 0
3, 5696, Note_on_c, 0, 70, 81
3, 5701, Note_on_c, 0, 58, 42
3, 5721, Note_on_c, 0, 48, 0
3, 5741, Note_on_c, 0, 65, 74
3, 5742, Note_on_c, 0, 55, 0
3, 5764, Note_on_c, 0, 58, 0
3, 5780, Note_on_c, 0, 70, 0
3, 5782, Note_on_c, 0, 65, 0
3, 5785, Note_on_c, 0, 67, 69
3, 5798, Note_on_c, 0, 67, 0
3, 5894, Note_on_c, 0, 68, 45
3, 5895, Note_on_c, 0, 57, 38
3, 5896, Note_on_c, 0, 61, 37
3, 5898, Note_on_c, 0, 42, 36
3, 5899, Note_on_c, 0, 64, 45
3, 5903, Control_c, 0, 64, 0
3, 5921, Note_on_c, 0, 64, 0
3, 5929, Control_c, 0, 64, 127
3, 5957, Note_on_c, 0, 57, 0
3, 5959, Note_on_c, 0, 68, 0
3, 5961, Note_on_c, 0, 64, 50
3, 5966, Note_on_c, 0, 61, 0
3, 5967, Note_on_c, 0, 64, 0
3, 5970, Note_on_c, 0, 42, 0
3, 6036, Note_on_c, 0, 75, 68
3, 6038, Note_on_c, 0, 68, 58
3, 6038, Note_on_c, 0, 71, 64
3, 6038, Note_on_c, 0, 64, 66
3, 6039, Note_on_c, 0, 63, 53
3, 6042, Control_c, 0, 64, 0
3, 6045, Note_on_c, 0, 73, 20
3, 6067, Control_c, 0, 64, 127
3, 6128, Note_on_c, 0, 71, 0
3, 6134, Note_on_c, 0, 64, 0
3, 6134, Note_on_c, 0, 68, 0
3, 6170, Note_on_c, 0, 64, 36
3, 6170, Note_on_c, 0, 68, 37
3, 6172, Note_on_c, 0, 63, 0
3, 6172, Note_on_c, 0, 71, 29
3, 6199, Note_on_c, 0, 71, 0
3, 6201, Note_on_c, 0, 64, 0
3, 6208, Note_on_c, 0, 68, 0
3, 6209, Note_on_c, 0, 75, 0
3, 6221, Note_on_c, 0, 73, 0
3, 6253, Note_on_c, 0, 66, 43
3, 6256, Note_on_c, 0, 62, 38
3, 6257, Control_c, 0, 64, 0
3, 6258, Note_on_c, 0, 57, 30
3, 6258, Note_on_c, 0, 47, 28
3, 6272, Control_c, 0, 64, 127
3, 6276, Note_on_c, 0, 62, 0
3, 6280, Note_on_c, 0, 47, 0
3, 6281, Note_on_c, 0, 66, 0
3, 6289, Note_on_c, 0, 57, 0
3, 6495, Note_on_c, 0, 66, 38
3, 6498, Note_on_c, 0, 80, 69
3, 6499, Note_on_c, 0, 62, 43
3, 6500, Note_on_c, 0, 61, 36
3, 6550, Note_on_c, 0, 80, 0
3, 6556, Note_on_c, 0, 76, 58
3, 6585, Note_on_c, 0, 66, 0
3, 6588, Note_on_c, 0, 62, 0
3, 6595, Note_on_c, 0, 61, 0
3, 6595, Note_on_c, 0, 76, 0
3, 6598, Note_on_c, 0, 73, 37
3, 6651, Note_on_c, 0, 73, 0
3, 6651, Note_on_c, 0, 69, 43
3, 6652, Note_on_c, 0, 43, 35
3, 6655, Control_c, 0, 64, 0
3, 6674, Control_c, 0, 64, 127
3, 6693, Note_on_c, 0, 43, 0
3, 6694, Note_on_c, 0, 50, 35
3, 6699, Note_on_c, 0, 50, 0
3, 6736, Note_on_c, 0, 57, 24
3, 6774, Note_on_c, 0, 58, 39
3, 6818, Note_on_c, 0, 62, 30
3, 6821, Note_on_c, 0, 81, 44
3, 6835, Note_on_c, 0, 81, 0
3, 6875, Note_on_c, 0, 76, 52
3, 6886, Note_on_c, 0, 57, 0
3, 6914, Note_on_c, 0, 69, 0
3, 6932, Note_on_c, 0, 76, 0
3, 6932, Note_on_c, 0, 72, 36
3, 6940, Note_on_c, 0, 62, 0
3, 6945, Note_on_c, 0, 58, 0
3, 6968, Note_on_c, 0, 72, 0
3, 6977, Note_on_c, 0, 69, 41
3, 6983, Note_on_c, 0, 69, 0
3, 7038, Note_on_c, 0, 39, 28
3, 7038, Note_on_c, 0, 65, 30
3, 7050, Control_c, 0, 64, 0
3, 7074, Control_c, 0, 64, 127
3, 7088, Note_on_c, 0, 62, 31
3, 7090, Note_on_c, 0, 39, 0
3, 7090, Note_on_c, 0, 46, 40
3, 7092, Note_on_c, 0, 58, 46
3, 7092, Note_on_c, 0, 57, 37
3, 7121, Note_on_c, 0, 57, 0
3, 7135, Note_on_c, 0, 58, 0
3, 7138, Note_on_c, 0, 46, 0
3, 7140, Note_on_c, 0, 62, 0
3, 7144, Note_on_c, 0, 55, 54
3, 7146, Note_on_c, 0, 65, 0
3, 7190, Note_on_c, 0, 55, 0
3, 7198, Note_on_c, 0, 58, 42
3, 7256, Note_on_c, 0, 62, 35
3, 7307, Note_on_c, 0, 74, 48
3, 7335, Note_on_c, 0, 74, 0
3, 7372, Note_on_c, 0, 67, 32
3, 7373, Note_on_c, 0, 81, 66
3, 7383, Note_on_c, 0, 67, 0
3, 7406, Note_on_c, 0, 62, 0
3, 7417, Note_on_c, 0, 81, 0
3, 7418, Note_on_c, 0, 58, 0
3, 7429, Note_on_c, 0, 81, 48
3, 7467, Note_on_c, 0, 81, 0
3, 7487, Note_on_c, 0, 81, 47
3, 7491, Note_on_c, 0, 60, 28
3, 7491, Note_on_c, 0, 72, 31
3, 7491, Note_on_c, 0, 50, 39
3, 7494, Control_c, 0, 64, 0
3, 7514, Control_c, 0, 64, 127
3, 7527, Note_on_c, 0, 81, 0
3, 7537, Note_on_c, 0, 72, 0
3, 7560, Note_on_c, 0, 67, 74
3, 7565, Note_on_c, 0, 57, 32
3, 7575, Note_on_c, 0, 60, 0
3, 7602, Note_on_c, 0, 67, 0
3, 7625, Note_on_c, 0, 72, 82
3, 7625, Note_on_c, 0, 60, 53
3, 7626, Note_on_c, 0, 67, 90
3, 7630, Note_on_c, 0, 57, 0
3, 7693, Note_on_c, 0, 72, 0
3, 7707, Note_on_c, 0, 71, 61
3, 7716, Note_on_c, 0, 60, 0
3, 7730, Note_on_c, 0, 50, 0
3, 7743, Note_on_c, 0, 67, 0
3, 7743, Note_on_c, 0, 71, 0
3, 7925, Note_on_c, 0, 69, 45
3, 7925, Note_on_c, 0, 63, 30
3, 7927, Note_on_c, 0, 58, 20
3, 7927, Note_on_c, 0, 53, 36
3, 7930, Note_on_c, 0, 48, 25
3, 7934, Control_c, 0, 64, 0
3, 7965, Control_c, 0, 64, 127
3, 8136, Note_on_c, 0, 63, 0
3, 8142, Note_on_c, 0, 69, 0
3, 8208, Note_on_c, 0, 67, 44
3, 8262, Note_on_c, 0, 67, 0
3, 8266, Note_on_c, 0, 74, 63
3, 8270, Note_on_c, 0, 53, 0
3, 8285, Note_on_c, 0, 58, 0
3, 8289, Note_on_c, 0, 48, 0
3, 8320, Note_on_c, 0, 74, 0
3, 8334, Note_on_c, 0, 70, 37
3, 8384, Note_on_c, 0, 70, 0
3, 8386, Note_on_c, 0, 66, 35
3, 8387, Control_c, 0, 64, 0
3, 8391, Note_on_c, 0, 47, 30
3, 8410, Control_c, 0, 64, 127
3, 8420, Note_on_c, 0, 66, 0
3, 8443, Note_on_c, 0, 47, 0
3, 8640, Control_c, 0, 64, 127
3, 8640, Control_c, 0, 64, 0
3, 8644, Note_on_c, 0, 78, 53
3, 8645, Note_on_c, 0, 47, 41
3, 8653, Note_on_c, 0, 47, 0
3, 8657, Note_on_c, 0, 78, 0
3, 8660, Note_on_c, 0, 79, 50
3, 8665, Control_c, 0, 64, 127
3, 8679, Note_on_c, 0, 78, 58
3, 8683, Note_on_c, 0, 79, 0
3, 8766, Note_on_c, 0, 66, 27
3, 8767, Note_on_c, 0, 62, 34
3, 8769, Note_on_c, 0, 61, 39
3, 8807, Note_on_c, 0, 62, 0
3, 8819, Note_on_c, 0, 61, 0
3, 8819, Note_on_c, 0, 66, 0
3, 8890, Note_on_c, 0, 64, 49
3, 8892, Note_on_c, 0, 60, 46
3, 8893, Note_on_c, 0, 59, 40
3, 8893, Control_c, 0, 64, 0
3, 8946, Control_c, 0, 64, 127
3, 9011, Note_on_c, 0, 78, 0
3, 9093, Note_on_c, 0, 59, 0
3, 9102, Note_on_c, 0, 79, 94
3, 9104, Note_on_c, 0, 60, 0
3, 9105, Note_on_c, 0, 64, 0
3, 9141, Note_on_c, 0, 79, 0
3, 9141, Note_on_c, 0, 53, 27
3, 9142, Note_on_c, 0, 60, 33
3, 9143, Note_on_c, 0, 64, 36
3, 9144, Note_on_c, 0, 76, 73
3, 9144, Control_c, 0, 64, 0
3, 9147, Note_on_c, 0, 57, 34
3, 9184, Note_on_c, 0, 76, 0
3, 9186, Note_on_c, 0, 83, 70
3, 9209, Control_c, 0, 64, 127
3, 9227, Note_on_c, 0, 71, 43
3, 9280, Note_on_c, 0, 71, 0
3, 9287, Note_on_c, 0, 83, 0
3, 9320, Note_on_c, 0, 60, 0
3, 9322, Note_on_c, 0, 64, 0
3, 9324, Note_on_c, 0, 57, 0
3, 9328, Note_on_c, 0, 86, 66
3, 9332, Note_on_c, 0, 53, 0
3, 9335, Note_on_c, 0, 74, 63
3, 9336, Note_on_c, 0, 85, 31
3, 9350, Note_on_c, 0, 86, 0
3, 9351, Note_on_c, 0, 74, 0
3, 9353, Note_on_c, 0, 85, 0
3, 9376, Note_on_c, 0, 85, 62
3, 9379, Control_c, 0, 64, 0
3, 9381, Note_on_c, 0, 52, 46
3, 9382, Note_on_c, 0, 73, 28
3, 9402, Control_c, 0, 64, 127
3, 9416, Note_on_c, 0, 85, 0
3, 9423, Note_on_c, 0, 73, 0
3, 9433, Note_on_c, 0, 59, 36
3, 9470, Note_on_c, 0, 64, 35
3, 9500, Note_on_c, 0, 83, 66
3, 9506, Note_on_c, 0, 78, 53
3, 9511, Note_on_c, 0, 74, 64
3, 9528, Note_on_c, 0, 64, 0
3, 9563, Note_on_c, 0, 52, 0
3, 9566, Note_on_c, 0, 59, 0
3, 9568, Note_on_c, 0, 74, 0
3, 9595, Note_on_c, 0, 78, 0
3, 9611, Note_on_c, 0, 71, 46
3, 9611, Note_on_c, 0, 76, 30
3, 9617, Note_on_c, 0, 64, 27
3, 9618, Note_on_c, 0, 59, 30
3, 9619, Note_on_c, 0, 60, 35
3, 9623, Control_c, 0, 64, 0
3, 9623, Note_on_c, 0, 57, 33
3, 9667, Control_c, 0, 64, 127
3, 9687, Note_on_c, 0, 71, 0
3, 9701, Note_on_c, 0, 64, 0
3, 9702, Note_on_c, 0, 59, 0
3, 9702, Note_on_c, 0, 76, 0
3, 9706, Note_on_c, 0, 60, 0
3, 9710, Note_on_c, 0, 83, 0
3, 9732, Note_on_c, 0, 64, 22
3, 9735, Note_on_c, 0, 60, 20
3, 9738, Note_on_c, 0, 59, 18
3, 9794, Note_on_c, 0, 64, 0
3, 9796, Note_on_c, 0, 59, 0
3, 9801, Note_on_c, 0, 60, 0
3, 9803, Note_on_c, 0, 57, 0
3, 9815, Note_on_c, 0, 84, 38
3, 9825, Note_on_c, 0, 84, 0
3, 9837, Note_on_c, 0, 91, 79
3, 9851, Note_on_c, 0, 91, 0
3, 9853, Control_c, 0, 64, 0
3, 9856, Note_on_c, 0, 62, 36
3, 9856, Note_on_c, 0, 58, 38
3, 9858, Note_on_c, 0, 57, 35
3, 9859, Note_on_c, 0, 88, 68
3, 9896, Note_on_c, 0, 88, 0
3, 9901, Note_on_c, 0, 89, 78
3, 9918, Note_on_c, 0, 89, 0
3, 10016, Note_on_c, 0, 84, 64
3, 10027, Note_on_c, 0, 84, 0
3, 10031, Note_on_c, 0, 57, 0
3, 10031, Note_on_c, 0, 62, 0
3, 10042, Note_on_c, 0, 58, 0
3, 10055, Note_on_c, 0, 86, 61
3, 10057, Control_c, 0, 64, 127
3, 10065, Note_on_c, 0, 86, 0
3, 10094, Control_c, 0, 64, 0
3, 10094, Note_on_c, 0, 62, 38
3, 10095, Note_on_c, 0, 58, 31
3, 10096, Note_on_c, 0, 51, 37
3, 10099, Note_on_c, 0, 80, 55
3, 10100, Note_on_c, 0, 55, 39
3, 10102, Note_on_c, 0, 86, 35
3, 10107, Note_on_c, 0, 92, 9
3, 10116, Note_on_c, 0, 80, 0
3, 10117, Note_on_c, 0, 92, 0
3, 10121, Note_on_c, 0, 81, 37
3, 10141, Note_on_c, 0, 93, 1
3, 10144, Control_c, 0, 64, 127
3, 10154, Note_on_c, 0, 81, 0
3, 10179, Note_on_c, 0, 93, 0
3, 10183, Note_on_c, 0, 81, 24
3, 10192, Note_on_c, 0, 86, 0
3, 10215, Note_on_c, 0, 55, 0
3, 10220, Note_on_c, 0, 51, 0
3, 10221, Note_on_c, 0, 81, 0
3, 10222, Note_on_c, 0, 58, 0
3, 10224, Note_on_c, 0, 62, 0
3, 10271, Note_on_c, 0, 82, 60
3, 10271, Note_on_c, 0, 86, 59
3, 10272, Note_on_c, 0, 74, 55
3, 10274, Note_on_c, 0, 65, 62
3, 10276, Note_on_c, 0, 60, 44
3, 10277, Note_on_c, 0, 54, 32
3, 10277, Note_on_c, 0, 58, 27
3, 10283, Control_c, 0, 64, 0
3, 10316, Control_c, 0, 64, 127
3, 10401, Note_on_c, 0, 60, 0
3, 10402, Note_on_c, 0, 65, 0
3, 10423, Note_on_c, 0, 58, 0
3, 10517, Note_on_c, 0, 54, 0
3, 10535, Note_on_c, 0, 86, 0
3, 10556, Note_on_c, 0, 74, 0
3, 10563, Note_on_c, 0, 82, 0
3, 10570, Note_on_c, 0, 55, 38
3, 10570, Note_on_c, 0, 60, 38
3, 10571, Note_on_c, 0, 64, 33
3, 10572, Note_on_c, 0, 59, 33
3, 10577, Control_c, 0, 64, 0
3, 10687, Note_on_c, 0, 74, 92
3, 10691, Note_on_c, 0, 75, 68
3, 10691, Note_on_c, 0, 79, 58
3, 10706, Note_on_c, 0, 74, 0
3, 10708, Note_on_c, 0, 76, 55
3, 10709, Note_on_c, 0, 75, 0
3, 10714, Note_on_c, 0, 79, 0
3, 10721, Note_on_c, 0, 76, 0
3, 10751, Note_on_c, 0, 69, 48
3, 10766, Note_on_c, 0, 64, 0
3, 10767, Note_on_c, 0, 59, 0
3, 10770, Note_on_c, 0, 60, 0
3, 10773, Note_on_c, 0, 55, 0
3, 10810, Note_on_c, 0, 50, 33
3, 10811, Note_on_c, 0, 57, 34
3, 10812, Note_on_c, 0, 60, 33
3, 10844, Note_on_c, 0, 69, 0
3, 10853, Control_c, 0, 64, 127
3, 10871, Note_on_c, 0, 60, 0
3, 10907, Note_on_c, 0, 71, 81
3, 10908, Note_on_c, 0, 62, 90
3, 10913, Note_on_c, 0, 70, 37
3, 10918, Note_on_c, 0, 70, 0
3, 10923, Note_on_c, 0, 62, 0
3, 10928, Note_on_c, 0, 71, 0
3, 10939, Note_on_c, 0, 72, 90
3, 10939, Note_on_c, 0, 64, 103
3, 10941, Note_on_c, 0, 60, 58
3, 10956, Note_on_c, 0, 64, 0
3, 10961, Note_on_c, 0, 72, 0
3, 10977, Note_on_c, 0, 50, 0
3, 10977, Note_on_c, 0, 57, 0
3, 10978, Note_on_c, 0, 76, 88
3, 10979, Note_on_c, 0, 67, 89
3, 10982, Note_on_c, 0, 60, 0
3, 11000, Note_on_c, 0, 67, 0
3, 11000, Note_on_c, 0, 76, 0
3, 11024, Note_on_c, 0, 74, 76
3, 11024, Control_c, 0, 64, 0
3, 11025, Note_on_c, 0, 65, 84
3, 11028, Note_on_c, 0, 62, 55
3, 11028, Note_on_c, 0, 57, 44
3, 11029, Note_on_c, 0, 58, 43
3, 11070, Control_c, 0, 64, 127
3, 11144, Note_on_c, 0, 65, 0
3, 11161, Note_on_c, 0, 62, 0
3, 11163, Note_on_c, 0, 67, 47
3, 11167, Note_on_c, 0, 57, 0
3, 11175, Note_on_c, 0, 58, 0
3, 11189, Note_on_c, 0, 74, 0
3, 11198, Note_on_c, 0, 67, 0
3, 11275, Control_c, 0, 64, 0
3, 11277, Note_on_c, 0, 63, 35
3, 11277, Note_on_c, 0, 62, 32
3, 11278, Note_on_c, 0, 58, 26
3, 11279, Note_on_c, 0, 55, 34
3, 11280, Note_on_c, 0, 48, 32
3, 11305, Control_c, 0, 64, 127
3, 11310, Note_on_c, 0, 62, 0
3, 11319, Note_on_c, 0, 63, 0
3, 11392, Note_on_c, 0, 69, 75
3, 11408, Note_on_c, 0, 69, 0
3, 11419, Note_on_c, 0, 70, 69
3, 11426, Control_c, 0, 64, 0
3, 11430, Note_on_c, 0, 70, 0
3, 11452, Note_on_c, 0, 74, 73
3, 11465, Note_on_c, 0, 74, 0
3, 11475, Note_on_c, 0, 48, 0
3, 11475, Note_on_c, 0, 55, 0
3, 11477, Note_on_c, 0, 77, 58
3, 11480, Control_c, 0, 64, 127
3, 11487, Note_on_c, 0, 77, 0
3, 11491, Note_on_c, 0, 58, 0
3, 11510, Note_on_c, 0, 81, 64
3, 11519, Note_on_c, 0, 81, 0
3, 11531, Control_c, 0, 64, 0
3, 11540, Note_on_c, 0, 70, 74
3, 11540, Note_on_c, 0, 82, 70
3, 11545, Note_on_c, 0, 63, 26
3, 11546, Note_on_c, 0, 60, 42
3, 11551, Note_on_c, 0, 56, 26
3, 11552, Note_on_c, 0, 53, 18
3, 11573, Note_on_c, 0, 60, 0
3, 11576, Note_on_c, 0, 63, 0
3, 11578, Note_on_c, 0, 70, 0
3, 11583, Note_on_c, 0, 82, 0
3, 11585, Control_c, 0, 64, 127
3, 11587, Note_on_c, 0, 53, 0
3, 11592, Note_on_c, 0, 82, 35
3, 11593, Note_on_c, 0, 60, 36
3, 11631, Note_on_c, 0, 82, 0
3, 11646, Note_on_c, 0, 82, 43
3, 11649, Note_on_c, 0, 68, 35
3, 11649, Note_on_c, 0, 75, 55
3, 11652, Note_on_c, 0, 67, 31
3, 11679, Note_on_c, 0, 60, 0
3, 11688, Note_on_c, 0, 82, 0
3, 11695, Note_on_c, 0, 67, 0
3, 11697, Note_on_c, 0, 75, 0
3, 11709, Note_on_c, 0, 60, 36
3, 11721, Note_on_c, 0, 60, 0
3, 11727, Note_on_c, 0, 68, 0
3, 11732, Note_on_c, 0, 56, 0
3, 11742, Note_on_c, 0, 75, 64
3, 11763, Note_on_c, 0, 75, 0
3, 11772, Note_on_c, 0, 62, 33
3, 11773, Note_on_c, 0, 52, 49
3, 11773, Control_c, 0, 64, 0
3, 11774, Note_on_c, 0, 78, 67
3, 11776, Note_on_c, 0, 71, 63
3, 11809, Control_c, 0, 64, 127
3, 11810, Note_on_c, 0, 71, 0
3, 11827, Note_on_c, 0, 62, 0
3, 11829, Note_on_c, 0, 71, 45
3, 11830, Note_on_c, 0, 59, 33
3, 11832, Note_on_c, 0, 78, 0
3, 11885, Note_on_c, 0, 62, 45
3, 11905, Note_on_c, 0, 52, 0
3, 11908, Note_on_c, 0, 59, 0
3, 11917, Note_on_c, 0, 62, 0
3, 11922, Note_on_c, 0, 71, 0
3, 11927, Note_on_c, 0, 73, 52
3, 11959, Note_on_c, 0, 73, 0
3, 11968, Note_on_c, 0, 74, 70
3, 11992, Note_on_c, 0, 74, 0
3, 12009, Note_on_c, 0, 66, 33
3, 12010, Control_c, 0, 64, 0
3, 12011, Note_on_c, 0, 76, 56
3, 12012, Note_on_c, 0, 61, 32
3, 12013, Note_on_c, 0, 57, 35
3, 12013, Note_on_c, 0, 62, 29
3, 12031, Control_c, 0, 64, 127
3, 12050, Note_on_c, 0, 76, 0
3, 12050, Note_on_c, 0, 74, 35
3, 12056, Note_on_c, 0, 74, 0
3, 12064, Note_on_c, 0, 66, 0
3, 12080, Note_on_c, 0, 85, 78
3, 12084, Note_on_c, 0, 62, 0
3, 12112, Note_on_c, 0, 74, 55
3, 12115, Note_on_c, 0, 66, 30
3, 12116, Note_on_c, 0, 62, 40
3, 12133, Note_on_c, 0, 74, 0
3, 12140, Note_on_c, 0, 85, 0
3, 12144, Note_on_c, 0, 78, 52
3, 12165, Note_on_c, 0, 66, 0
3, 12170, Note_on_c, 0, 85, 71
3, 12173, Note_on_c, 0, 78, 0
3, 12179, Note_on_c, 0, 85, 0
3, 12199, Note_on_c, 0, 90, 61
3, 12205, Note_on_c, 0, 62, 0
3, 12222, Note_on_c, 0, 90, 0
3, 12230, Note_on_c, 0, 95, 75
3, 12230, Note_on_c, 0, 96, 35
3, 12236, Note_on_c, 0, 96, 0
3, 12256, Note_on_c, 0, 66, 35
3, 12257, Note_on_c, 0, 90, 38
3, 12257, Note_on_c, 0, 62, 32
3, 12259, Control_c, 0, 64, 0
3, 12274, Note_on_c, 0, 95, 0
3, 12283, Note_on_c, 0, 90, 0
3, 12284, Control_c, 0, 64, 127
3, 12287, Note_on_c, 0, 95, 70
3, 12311, Note_on_c, 0, 95, 0
3, 12316, Note_on_c, 0, 88, 51
3, 12324, Note_on_c, 0, 66, 0
3, 12331, Note_on_c, 0, 62, 0
3, 12373, Note_on_c, 0, 66, 28
3, 12396, Note_on_c, 0, 57, 0
3, 12407, Note_on_c, 0, 66, 0
3, 12412, Note_on_c, 0, 61, 0
3, 12492, Note_on_c, 0, 88, 0
3, 12497, Note_on_c, 0, 61, 36
3, 12497, Note_on_c, 0, 65, 36
3, 12497, Note_on_c, 0, 54, 31
3, 12499, Note_on_c, 0, 58, 35
3, 12502, Control_c, 0, 64, 0
3, 12538, Control_c, 0, 64, 127
3, 12646, Note_on_c, 0, 65, 0
3, 12712, Note_on_c, 0, 54, 0
3, 12717, Note_on_c, 0, 61, 0
3, 12740, Note_on_c, 0, 54, 35
3, 12741, Note_on_c, 0, 65, 52
3, 12742, Note_on_c, 0, 60, 46
3, 12743, Control_c, 0, 64, 0
3, 12776, Control_c, 0, 64, 127
3, 12783, Note_on_c, 0, 68, 76
3, 12807, Note_on_c, 0, 68, 0
3, 12816, Note_on_c, 0, 70, 79
3, 12823, Note_on_c, 0, 65, 0
3, 12829, Note_on_c, 0, 60, 0
3, 12841, Note_on_c, 0, 54, 0
3, 12844, Note_on_c, 0, 58, 0
3, 12849, Note_on_c, 0, 70, 0
3, 12857, Control_c, 0, 64, 0
3, 12858, Note_on_c, 0, 64, 54
3, 12859, Note_on_c, 0, 71, 83
3, 12860, Note_on_c, 0, 60, 50
3, 12861, Note_on_c, 0, 55, 37
3, 12862, Note_on_c, 0, 59, 48
3, 12880, Control_c, 0, 64, 127
3, 12894, Note_on_c, 0, 71, 0
3, 12902, Note_on_c, 0, 74, 65
3, 12920, Note_on_c, 0, 74, 0
3, 12943, Note_on_c, 0, 64, 0
3, 12943, Note_on_c, 0, 78, 77
3, 12946, Note_on_c, 0, 59, 0
3, 12947, Note_on_c, 0, 55, 0
3, 12947, Note_on_c, 0, 60, 0
3, 12983, Note_on_c, 0, 78, 0
3, 12992, Control_c, 0, 64, 0
3, 13026, Note_on_c, 0, 48, 54
3, 13049, Control_c, 0, 64, 127
3, 13090, Note_on_c, 0, 63, 42
3, 13090, Control_c, 0, 64, 0
3, 13090, Note_on_c, 0, 67, 44
3, 13092, Note_on_c, 0, 58, 46
3, 13099, Control_c, 0, 64, 127
3, 13160, Note_on_c, 0, 58, 0
3, 13161, Note_on_c, 0, 48, 0
3, 13167, Note_on_c, 0, 63, 0
3, 13176, Note_on_c, 0, 70, 67
3, 13184, Note_on_c, 0, 67, 0
3, 13200, Note_on_c, 0, 65, 67
3, 13214, Note_on_c, 0, 65, 0
3, 13224, Note_on_c, 0, 67, 56
3, 13228, Note_on_c, 0, 70, 0
3, 13238, Control_c, 0, 64, 0
3, 13245, Note_on_c, 0, 67, 0
3, 13282, Note_on_c, 0, 68, 74
3, 13289, Note_on_c, 0, 60, 35
3, 13293, Note_on_c, 0, 53, 24
3, 13294, Note_on_c, 0, 56, 23
3, 13306, Note_on_c, 0, 68, 0
3, 13307, Note_on_c, 0, 63, 1
3, 13310, Control_c, 0, 64, 127
3, 13312, Note_on_c, 0, 65, 58
3, 13330, Note_on_c, 0, 65, 0
3, 13333, Note_on_c, 0, 63, 0
3, 13339, Note_on_c, 0, 60, 0
3, 13343, Note_on_c, 0, 53, 0
3, 13347, Note_on_c, 0, 75, 71
3, 13349, Note_on_c, 0, 68, 59
3, 13350, Note_on_c, 0, 71, 65
3, 13350, Note_on_c, 0, 64, 71
3, 13351, Note_on_c, 0, 63, 64
3, 13354, Control_c, 0, 64, 0
3, 13363, Note_on_c, 0, 56, 0
3, 13382, Control_c, 0, 64, 127
3, 13411, Note_on_c, 0, 64, 0
3, 13416, Note_on_c, 0, 63, 0
3, 13421, Note_on_c, 0, 68, 0
3, 13422, Note_on_c, 0, 71, 0
3, 13426, Note_on_c, 0, 75, 0
3, 13468, Note_on_c, 0, 78, 70
3, 13470, Note_on_c, 0, 47, 58
3, 13470, Note_on_c, 0, 69, 77
3, 13476, Control_c, 0, 64, 0
3, 13508, Control_c, 0, 64, 127
3, 13529, Note_on_c, 0, 59, 39
3, 13543, Note_on_c, 0, 78, 0
3, 13579, Note_on_c, 0, 69, 0
3, 13588, Note_on_c, 0, 69, 20
3, 13601, Note_on_c, 0, 69, 0
3, 13618, Note_on_c, 0, 76, 68
3, 13628, Note_on_c, 0, 47, 0
3, 13635, Note_on_c, 0, 76, 0
3, 13646, Note_on_c, 0, 59, 0
3, 13657, Note_on_c, 0, 73, 44
3, 13668, Note_on_c, 0, 73, 0
3, 13704, Note_on_c, 0, 69, 57
3, 13706, Note_on_c, 0, 58, 50
3, 13707, Note_on_c, 0, 62, 47
3, 13711, Control_c, 0, 64, 0
3, 13757, Note_on_c, 0, 57, 46
3, 13762, Note_on_c, 0, 57, 0
3, 13799, Note_on_c, 0, 50, 36
3, 13811, Control_c, 0, 64, 127
3, 13817, Note_on_c, 0, 58, 0
3, 13818, Note_on_c, 0, 62, 0
3, 13828, Note_on_c, 0, 69, 0
3, 13832, Note_on_c, 0, 57, 53
3, 13834, Note_on_c, 0, 62, 37
3, 13840, Note_on_c, 0, 62, 0
3, 13872, Note_on_c, 0, 57, 0
3, 13879, Note_on_c, 0, 57, 19
3, 13879, Note_on_c, 0, 75, 49
3, 13883, Note_on_c, 0, 50, 0
3, 13884, Note_on_c, 0, 75, 0
3, 13884, Note_on_c, 0, 76, 52
3, 13893, Note_on_c, 0, 57, 0
3, 13910, Note_on_c, 0, 76, 0
3, 13921, Note_on_c, 0, 72, 59
3, 13936, Note_on_c, 0, 72, 0
3, 13948, Note_on_c, 0, 69, 47
3, 13962, Note_on_c, 0, 69, 0
3, 13962, Note_on_c, 0, 51, 29
3, 13963, Control_c, 0, 64, 0
3, 13966, Note_on_c, 0, 65, 43
3, 13968, Note_on_c, 0, 62, 26
3, 13970, Note_on_c, 0, 58, 37
3, 13972, Note_on_c, 0, 55, 27
3, 14009, Note_on_c, 0, 62, 0
3, 14009, Control_c, 0, 64, 127
3, 14024, Note_on_c, 0, 65, 0
3, 14034, Note_on_c, 0, 62, 38
3, 14058, Note_on_c, 0, 58, 0
3, 14061, Note_on_c, 0, 62, 0
3, 14066, Note_on_c, 0, 69, 53
3, 14071, Note_on_c, 0, 58, 19
3, 14094, Note_on_c, 0, 58, 0
3, 14112, Note_on_c, 0, 55, 0
3, 14131, Note_on_c, 0, 51, 0
3, 14174, Control_c, 0, 64, 0
3, 14175, Note_on_c, 0, 50, 28
3, 14175, Note_on_c, 0, 57, 26
3, 14203, Note_on_c, 0, 69, 0
3, 14205, Control_c, 0, 64, 127
3, 14277, Note_on_c, 0, 79, 62
3, 14289, Note_on_c, 0, 79, 0
3, 14304, Control_c, 0, 64, 0
3, 14305, Note_on_c, 0, 84, 85
3, 14308, Note_on_c, 0, 60, 28
3, 14317, Note_on_c, 0, 84, 0
3, 14344, Control_c, 0, 64, 127
3, 14348, Note_on_c, 0, 84, 77
3, 14350, Note_on_c, 0, 50, 0
3, 14351, Note_on_c, 0, 57, 0
3, 14364, Note_on_c, 0, 60, 0
3, 14365, Note_on_c, 0, 84, 0
3, 14389, Note_on_c, 0, 83, 55
3, 14422, Note_on_c, 0, 83, 0
3, 14427, Note_on_c, 0, 81, 56
3, 14429, Control_c, 0, 64, 0
3, 14457, Control_c, 0, 64, 127
3, 14465, Note_on_c, 0, 48, 41
3, 14501, Note_on_c, 0, 48, 0
3, 14502, Note_on_c, 0, 55, 52
3, 14507, Note_on_c, 0, 55, 0
3, 14509, Note_on_c, 0, 81, 0
3, 14584, Note_on_c, 0, 65, 59
3, 14586, Note_on_c, 0, 62, 27
3, 14602, Note_on_c, 0, 65, 0
3, 14614, Note_on_c, 0, 62, 0
3, 14646, Note_on_c, 0, 62, 32
3, 14646, Note_on_c, 0, 63, 39
3, 14648, Note_on_c, 0, 65, 40
3, 14683, Note_on_c, 0, 63, 0
3, 14684, Note_on_c, 0, 65, 0
3, 14690, Note_on_c, 0, 62, 0
3, 14708, Note_on_c, 0, 65, 35
3, 14709, Note_on_c, 0, 63, 34
3, 14711, Note_on_c, 0, 62, 27
3, 14765, Note_on_c, 0, 79, 74
3, 14780, Note_on_c, 0, 65, 0
3, 14789, Note_on_c, 0, 79, 0
3, 14793, Note_on_c, 0, 62, 0
3, 14795, Note_on_c, 0, 63, 0
3, 14809, Note_on_c, 0, 86, 92
3, 14839, Note_on_c, 0, 86, 0
3, 14850, Note_on_c, 0, 85, 75
3, 14885, Note_on_c, 0, 85, 0
3, 14892, Note_on_c, 0, 61, 35
3, 14893, Note_on_c, 0, 78, 52
3, 14895, Note_on_c, 0, 66, 36
3, 14897, Note_on_c, 0, 57, 44
3, 14898, Note_on_c, 0, 62, 30
3, 14899, Control_c, 0, 64, 0
3, 14941, Control_c, 0, 64, 127
3, 15003, Note_on_c, 0, 78, 0
3, 15014, Note_on_c, 0, 74, 39
3, 15026, Note_on_c, 0, 74, 0
3, 15037, Note_on_c, 0, 66, 0
3, 15039, Note_on_c, 0, 76, 69
3, 15042, Note_on_c, 0, 57, 0
3, 15047, Note_on_c, 0, 62, 0
3, 15052, Note_on_c, 0, 61, 0
3, 15052, Note_on_c, 0, 76, 0
3, 15063, Note_on_c, 0, 78, 81
3, 15084, Note_on_c, 0, 78, 0
3, 15091, Note_on_c, 0, 79, 68
3, 15113, Note_on_c, 0, 79, 0
3, 15115, Control_c, 0, 64, 0
3, 15119, Note_on_c, 0, 48, 51
3, 15120, Note_on_c, 0, 55, 32
3, 15123, Note_on_c, 0, 76, 29
3, 15175, Control_c, 0, 64, 127
3, 15178, Note_on_c, 0, 71, 34
3, 15217, Note_on_c, 0, 71, 0
3, 15260, Note_on_c, 0, 48, 0
3, 15261, Note_on_c, 0, 71, 19
3, 15263, Note_on_c, 0, 60, 24
3, 15265, Note_on_c, 0, 55, 0
3, 15290, Note_on_c, 0, 60, 0
3, 15311, Note_on_c, 0, 71, 0
3, 15312, Note_on_c, 0, 76, 0
3, 15363, Control_c, 0, 64, 0
3, 15366, Note_on_c, 0, 60, 33
3, 15367, Note_on_c, 0, 64, 22
3, 15368, Note_on_c, 0, 57, 31
3, 15369, Note_on_c, 0, 53, 27
3, 15411, Note_on_c, 0, 83, 44
3, 15419, Note_on_c, 0, 83, 0
3, 15452, Note_on_c, 0, 81, 58
3, 15467, Note_on_c, 0, 81, 0
3, 15470, Note_on_c, 0, 79, 36
3, 15479, Note_on_c, 0, 79, 0
3, 15507, Note_on_c, 0, 81, 33
3, 15518, Note_on_c, 0, 81, 0
3, 15545, Note_on_c, 0, 64, 0
3, 15546, Note_on_c, 0, 60, 0
3, 15550, Note_on_c, 0, 79, 48
3, 15551, Note_on_c, 0, 57, 0
3, 15562, Note_on_c, 0, 79, 0
3, 15563, Note_on_c, 0, 53, 0
3, 15564, Note_on_c, 0, 78, 47
3, 15582, Note_on_c, 0, 78, 0
3, 15610, Note_on_c, 0, 78, 55
3, 15614, Note_on_c, 0, 62, 35
3, 15616, Note_on_c, 0, 59, 32
3, 15617, Note_on_c, 0, 52, 33
3, 15620, Note_on_c, 0, 55, 31
3, 15626, Note_on_c, 0, 78, 0
3, 15637, Note_on_c, 0, 76, 54
3, 15652, Note_on_c, 0, 76, 0
3, 15654, Note_on_c, 0, 74, 35
3, 15662, Note_on_c, 0, 74, 0
3, 15687, Note_on_c, 0, 76, 51
3, 15696, Note_on_c, 0, 74, 62
3, 15698, Note_on_c, 0, 76, 0
3, 15709, Note_on_c, 0, 74, 0
3, 15714, Note_on_c, 0, 72, 44
3, 15725, Note_on_c, 0, 72, 0
3, 15751, Note_on_c, 0, 74, 65
3, 15764, Note_on_c, 0, 74, 0
3, 15765, Note_on_c, 0, 72, 55
3, 15779, Note_on_c, 0, 72, 0
3, 15779, Note_on_c, 0, 71, 51
3, 15791, Note_on_c, 0, 71, 0
3, 15792, Note_on_c, 0, 55, 0
3, 15800, Note_on_c, 0, 52, 0
3, 15800, Note_on_c, 0, 59, 0
3, 15803, Note_on_c, 0, 72, 68
3, 15811, Note_on_c, 0, 62, 0
3, 15816, Note_on_c, 0, 72, 0
3, 15816, Note_on_c, 0, 71, 48
3, 15831, Note_on_c, 0, 71, 0
3, 15833, Note_on_c, 0, 69, 51
3, 15843, Note_on_c, 0, 69, 0
3, 15854, Note_on_c, 0, 71, 56
3, 15858, Note_on_c, 0, 64, 33
3, 15861, Note_on_c, 0, 60, 38
3, 15862, Note_on_c, 0, 59, 30
3, 15864, Note_on_c, 0, 55, 26
3, 15898, Control_c, 0, 64, 127
3, 15925, Note_on_c, 0, 67, 38
3, 15926, Note_on_c, 0, 64, 0
3, 15934, Note_on_c, 0, 59, 0
3, 15937, Note_on_c, 0, 60, 0
3, 15941, Note_on_c, 0, 55, 0
3, 15954, Note_on_c, 0, 67, 0
3, 15954, Note_on_c, 0, 64, 36
3, 15961, Note_on_c, 0, 64, 0
3, 15967, Note_on_c, 0, 71, 0
3, 15973, Control_c, 0, 64, 0
3, 15977, Note_on_c, 0, 69, 76
3, 15982, Note_on_c, 0, 50, 34
3, 15984, Note_on_c, 0, 57, 41
3, 15984, Note_on_c, 0, 60, 36
3, 15986, Note_on_c, 0, 53, 43
3, 16011, Control_c, 0, 64, 127
3, 16022, Note_on_c, 0, 60, 0
3, 16025, Note_on_c, 0, 53, 0
3, 16029, Note_on_c, 0, 57, 0
3, 16034, Note_on_c, 0, 65, 62
3, 16037, Note_on_c, 0, 69, 0
3, 16041, Note_on_c, 0, 50, 0
3, 16052, Note_on_c, 0, 65, 0
3, 16071, Note_on_c, 0, 60, 4
3, 16077, Note_on_c, 0, 60, 0
3, 16090, Note_on_c, 0, 69, 67
3, 16090, Note_on_c, 0, 43, 42
3, 16091, Note_on_c, 0, 50, 38
3, 16092, Control_c, 0, 64, 0
3, 16117, Note_on_c, 0, 43, 0
3, 16126, Note_on_c, 0, 67, 60
3, 16131, Note_on_c, 0, 57, 60
3, 16132, Note_on_c, 0, 50, 0
3, 16132, Note_on_c, 0, 69, 0
3, 16145, Control_c, 0, 64, 127
3, 16161, Note_on_c, 0, 57, 0
3, 16165, Note_on_c, 0, 58, 55
3, 16166, Note_on_c, 0, 62, 59
3, 16172, Control_c, 0, 64, 0
3, 16181, Note_on_c, 0, 50, 1
3, 16186, Control_c, 0, 64, 127
3, 16189, Note_on_c, 0, 58, 0
3, 16194, Note_on_c, 0, 62, 0
3, 16207, Control_c, 0, 64, 0
3, 16208, Note_on_c, 0, 62, 54
3, 16210, Note_on_c, 0, 58, 35
3, 16212, Note_on_c, 0, 55, 41
3, 16217, Control_c, 0, 64, 127
3, 16226, Note_on_c, 0, 50, 0
3, 16251, Note_on_c, 0, 58, 0
3, 16256, Note_on_c, 0, 55, 0
3, 16265, Note_on_c, 0, 50, 39
3, 16272, Note_on_c, 0, 50, 0
3, 16275, Note_on_c, 0, 62, 0
3, 16283, Note_on_c, 0, 67, 0
3, 16326, Control_c, 0, 64, 0
3, 16326, Note_on_c, 0, 69, 47
3, 16327, Note_on_c, 0, 62, 47
3, 16329, Note_on_c, 0, 39, 37
3, 16331, Note_on_c, 0, 46, 34
3, 16331, Note_on_c, 0, 55, 29
3, 16332, Note_on_c, 0, 57, 25
3, 16342, Note_on_c, 0, 69, 0
3, 16343, Control_c, 0, 64, 127
3, 16346, Note_on_c, 0, 62, 0
3, 16348, Note_on_c, 0, 55, 0
3, 16348, Note_on_c, 0, 57, 0
3, 16378, Note_on_c, 0, 53, 50
3, 16390, Note_on_c, 0, 53, 0
3, 16390, Note_on_c, 0, 39, 0
3, 16391, Note_on_c, 0, 55, 52
3, 16403, Note_on_c, 0, 55, 0
3, 16405, Note_on_c, 0, 58, 64
3, 16416, Note_on_c, 0, 58, 0
3, 16422, Note_on_c, 0, 60, 73
3, 16434, Note_on_c, 0, 60, 0
3, 16435, Note_on_c, 0, 62, 54
3, 16441, Note_on_c, 0, 62, 0
3, 16451, Note_on_c, 0, 65, 80
3, 16466, Note_on_c, 0, 67, 44
3, 16467, Note_on_c, 0, 65, 0
3, 16475, Note_on_c, 0, 70, 69
3, 16476, Note_on_c, 0, 67, 0
3, 16485, Note_on_c, 0, 70, 0
3, 16492, Note_on_c, 0, 71, 41
3, 16493, Note_on_c, 0, 72, 47
3, 16497, Note_on_c, 0, 71, 0
3, 16502, Note_on_c, 0, 72, 0
3, 16502, Note_on_c, 0, 74, 68
3, 16508, Note_on_c, 0, 74, 0
3, 16521, Note_on_c, 0, 77, 42
3, 16523, Note_on_c, 0, 79, 37
3, 16533, Note_on_c, 0, 46, 0
3, 16538, Note_on_c, 0, 77, 0
3, 16544, Note_on_c, 0, 82, 51
3, 16547, Note_on_c, 0, 79, 0
3, 16562, Note_on_c, 0, 86, 77
3, 16563, Note_on_c, 0, 82, 0
3, 16577, Note_on_c, 0, 84, 73
3, 16583, Control_c, 0, 64, 0
3, 16590, Note_on_c, 0, 86, 0
3, 16632, Control_c, 0, 64, 127
3, 16666, Note_on_c, 0, 77, 8
3, 16676, Note_on_c, 0, 77, 0
3, 16702, Note_on_c, 0, 65, 36
3, 16705, Note_on_c, 0, 54, 23
3, 16706, Note_on_c, 0, 58, 30
3, 16708, Note_on_c, 0, 60, 37
3, 16759, Note_on_c, 0, 60, 0
3, 16767, Note_on_c, 0, 54, 0
3, 16770, Note_on_c, 0, 65, 0
3, 16778, Note_on_c, 0, 58, 0
3, 16816, Note_on_c, 0, 84, 0
3, 16819, Note_on_c, 0, 64, 30
3, 16821, Control_c, 0, 64, 0
3, 16823, Note_on_c, 0, 60, 39
3, 16823, Note_on_c, 0, 59, 32
3, 16824, Note_on_c, 0, 55, 36
3, 16843, Control_c, 0, 64, 127
3, 16902, Note_on_c, 0, 99, 74
3, 16902, Note_on_c, 0, 87, 77
3, 16904, Control_c, 0, 64, 0
3, 16907, Note_on_c, 0, 100, 74
3, 16911, Note_on_c, 0, 98, 40
3, 16912, Note_on_c, 0, 99, 0
3, 16913, Note_on_c, 0, 87, 0
3, 16913, Note_on_c, 0, 88, 74
3, 16929, Note_on_c, 0, 98, 0
3, 16929, Note_on_c, 0, 100, 0
3, 16932, Note_on_c, 0, 88, 0
3, 16940, Note_on_c, 0, 64, 0
3, 16940, Note_on_c, 0, 60, 0
3, 16941, Note_on_c, 0, 59, 0
3, 16945, Note_on_c, 0, 55, 0
3, 16962, Note_on_c, 0, 96, 81
3, 16964, Note_on_c, 0, 84, 58
3, 16974, Note_on_c, 0, 96, 0
3, 16975, Note_on_c, 0, 84, 0
3, 17013, Note_on_c, 0, 64, 35
3, 17017, Note_on_c, 0, 55, 29
3, 17018, Note_on_c, 0, 64, 0
3, 17023, Note_on_c, 0, 55, 0
3, 17045, Control_c, 0, 64, 127
3, 17059, Control_c, 0, 64, 0
3, 17065, Note_on_c, 0, 60, 39
3, 17068, Note_on_c, 0, 57, 35
3, 17068, Note_on_c, 0, 50, 25
3, 17070, Note_on_c, 0, 53, 39
3, 17095, Control_c, 0, 64, 127
3, 17154, Note_on_c, 0, 60, 0
3, 17159, Note_on_c, 0, 57, 0
3, 17199, Note_on_c, 0, 60, 48
3, 17199, Note_on_c, 0, 57, 1
3, 17231, Note_on_c, 0, 71, 66
3, 17246, Note_on_c, 0, 71, 0
3, 17251, Note_on_c, 0, 60, 0
3, 17252, Note_on_c, 0, 53, 0
3, 17254, Note_on_c, 0, 50, 0
3, 17256, Note_on_c, 0, 57, 0
3, 17259, Note_on_c, 0, 72, 74
3, 17275, Note_on_c, 0, 72, 0
3, 17298, Note_on_c, 0, 76, 53
3, 17299, Note_on_c, 0, 74, 33
3, 17304, Note_on_c, 0, 74, 0
3, 17308, Control_c, 0, 64, 0
3, 17312, Note_on_c, 0, 76, 0
3, 17330, Note_on_c, 0, 62, 36
3, 17330, Note_on_c, 0, 58, 37
3, 17332, Note_on_c, 0, 53, 35
3, 17341, Note_on_c, 0, 81, 80
3, 17364, Note_on_c, 0, 81, 0
3, 17381, Note_on_c, 0, 79, 63
3, 17395, Note_on_c, 0, 79, 0
3, 17404, Note_on_c, 0, 57, 1
3, 17407, Note_on_c, 0, 74, 69
3, 17421, Note_on_c, 0, 74, 0
3, 17429, Note_on_c, 0, 62, 0
3, 17430, Note_on_c, 0, 70, 58
3, 17434, Note_on_c, 0, 58, 0
3, 17440, Note_on_c, 0, 70, 0
3, 17454, Note_on_c, 0, 69, 48
3, 17465, Note_on_c, 0, 69, 0
3, 17476, Note_on_c, 0, 74, 76
3, 17477, Note_on_c, 0, 57, 0
3, 17491, Note_on_c, 0, 74, 0
3, 17492, Note_on_c, 0, 53, 0
3, 17499, Note_on_c, 0, 70, 69
3, 17515, Note_on_c, 0, 70, 0
3, 17522, Note_on_c, 0, 67, 56
3, 17536, Note_on_c, 0, 67, 0
3, 17537, Note_on_c, 0, 58, 48
3, 17537, Note_on_c, 0, 55, 29
3, 17546, Note_on_c, 0, 65, 52
3, 17567, Note_on_c, 0, 65, 0
3, 17575, Note_on_c, 0, 64, 54
3, 17578, Note_on_c, 0, 48, 1
3, 17592, Note_on_c, 0, 64, 0
3, 17646, Note_on_c, 0, 62, 51
3, 17662, Note_on_c, 0, 62, 0
3, 17666, Note_on_c, 0, 58, 0
3, 17678, Note_on_c, 0, 58, 31
3, 17680, Note_on_c, 0, 63, 79
3, 17700, Note_on_c, 0, 63, 0
3, 17701, Note_on_c, 0, 58, 0
3, 17707, Note_on_c, 0, 60, 64
3, 17715, Note_on_c, 0, 55, 0
3, 17717, Note_on_c, 0, 60, 0
3, 17726, Note_on_c, 0, 62, 69
3, 17729, Note_on_c, 0, 48, 0
3, 17740, Note_on_c, 0, 62, 0
3, 17751, Note_on_c, 0, 63, 62
3, 17760, Control_c, 0, 64, 127
3, 17764, Note_on_c, 0, 63, 0
3, 17777, Control_c, 0, 64, 0
3, 17778, Note_on_c, 0, 63, 74
3, 17780, Note_on_c, 0, 70, 76
3, 17782, Note_on_c, 0, 58, 60
3, 17802, Note_on_c, 0, 63, 0
3, 17809, Note_on_c, 0, 70, 0
3, 17814, Note_on_c, 0, 58, 0
3, 17814, Note_on_c, 0, 67, 61
3, 17815, Note_on_c, 0, 56, 44
3, 17817, Note_on_c, 0, 60, 45
3, 17820, Note_on_c, 0, 63, 20
3, 17830, Note_on_c, 0, 60, 0
3, 17831, Note_on_c, 0, 63, 0
3, 17834, Note_on_c, 0, 67, 0
3, 17843, Note_on_c, 0, 70, 56
3, 17846, Note_on_c, 0, 63, 45
3, 17847, Note_on_c, 0, 60, 50
3, 17848, Note_on_c, 0, 56, 0
3, 17849, Note_on_c, 0, 58, 35
3, 17863, Note_on_c, 0, 60, 0
3, 17865, Note_on_c, 0, 70, 0
3, 17867, Note_on_c, 0, 63, 0
3, 17872, Note_on_c, 0, 58, 0
3, 17874, Note_on_c, 0, 67, 42
3, 17875, Note_on_c, 0, 56, 35
3, 17893, Note_on_c, 0, 67, 0
3, 17901, Note_on_c, 0, 56, 0
3, 17904, Note_on_c, 0, 70, 62
3, 17906, Note_on_c, 0, 58, 37
3, 17907, Note_on_c, 0, 60, 42
3, 17907, Note_on_c, 0, 63, 29
3, 17915, Control_c, 0, 64, 127
3, 17917, Note_on_c, 0, 63, 0
3, 17925, Note_on_c, 0, 60, 0
3, 17926, Note_on_c, 0, 70, 0
3, 17929, Note_on_c, 0, 58, 0
3, 17933, Note_on_c, 0, 56, 31
3, 17933, Note_on_c, 0, 67, 28
3, 17934, Note_on_c, 0, 63, 52
3, 17948, Note_on_c, 0, 67, 0
3, 17957, Note_on_c, 0, 63, 0
3, 17962, Note_on_c, 0, 60, 54
3, 17972, Note_on_c, 0, 60, 0
3, 17979, Note_on_c, 0, 56, 0
3, 17989, Note_on_c, 0, 59, 30
3, 17991, Note_on_c, 0, 54, 31
3, 17995, Note_on_c, 0, 59, 0
3, 18008, Note_on_c, 0, 54, 0
3, 18009, Note_on_c, 0, 59, 58
3, 18010, Control_c, 0, 64, 0
3, 18010, Note_on_c, 0, 69, 62
3, 18012, Note_on_c, 0, 62, 60
3, 18014, Note_on_c, 0, 66, 45
3, 18014, Note_on_c, 0, 57, 48
3, 18019, Note_on_c, 0, 66, 0
3, 18028, Note_on_c, 0, 62, 0
3, 18036, Note_on_c, 0, 59, 0
3, 18036, Note_on_c, 0, 69, 0
3, 18037, Note_on_c, 0, 57, 0
3, 18041, Note_on_c, 0, 66, 37
3, 18044, Note_on_c, 0, 54, 28
3, 18057, Note_on_c, 0, 66, 0
3, 18062, Note_on_c, 0, 54, 0
3, 18070, Note_on_c, 0, 69, 55
3, 18071, Note_on_c, 0, 59, 36
3, 18071, Note_on_c, 0, 57, 35
3, 18072, Note_on_c, 0, 62, 40
3, 18081, Note_on_c, 0, 59, 0
3, 18086, Note_on_c, 0, 57, 0
3, 18090, Note_on_c, 0, 62, 0
3, 18091, Note_on_c, 0, 69, 0
3, 18095, Note_on_c, 0, 54, 36
3, 18106, Control_c, 0, 64, 127
3, 18120, Control_c, 0, 64, 0
3, 18125, Note_on_c, 0, 54, 0
3, 18128, Note_on_c, 0, 57, 45
3, 18129, Note_on_c, 0, 69, 47
3, 18130, Note_on_c, 0, 62, 53
3, 18135, Note_on_c, 0, 66, 32
3, 18139, Note_on_c, 0, 66, 0
3, 18140, Control_c, 0, 64, 127
3, 18147, Note_on_c, 0, 62, 0
3, 18148, Note_on_c, 0, 57, 0
3, 18159, Note_on_c, 0, 66, 54
3, 18161, Note_on_c, 0, 54, 23
3, 18165, Note_on_c, 0, 69, 0
3, 18177, Note_on_c, 0, 54, 0
3, 18190, Note_on_c, 0, 62, 40
3, 18192, Note_on_c, 0, 66, 0
3, 18214, Note_on_c, 0, 62, 0
3, 18219, Note_on_c, 0, 57, 54
3, 18230, Note_on_c, 0, 57, 0
3, 18242, Control_c, 0, 64, 0
3, 18249, Note_on_c, 0, 61, 50
3, 18250, Note_on_c, 0, 47, 43
3, 18250, Note_on_c, 0, 64, 49
3, 18257, Note_on_c, 0, 64, 0
3, 18257, Note_on_c, 0, 61, 0
3, 18261, Control_c, 0, 64, 127
3, 18281, Note_on_c, 0, 47, 0
3, 18286, Note_on_c, 0, 76, 68
3, 18286, Note_on_c, 0, 69, 67
3, 18290, Note_on_c, 0, 57, 24
3, 18295, Note_on_c, 0, 57, 0
3, 18310, Note_on_c, 0, 69, 0
3, 18315, Note_on_c, 0, 76, 0
3, 18320, Note_on_c, 0, 73, 30
3, 18323, Note_on_c, 0, 59, 32
3, 18324, Note_on_c, 0, 64, 24
3, 18328, Note_on_c, 0, 64, 0
3, 18337, Note_on_c, 0, 73, 0
3, 18383, Note_on_c, 0, 81, 53
3, 18384, Note_on_c, 0, 73, 20
3, 18389, Note_on_c, 0, 63, 28
3, 18396, Note_on_c, 0, 63, 0
3, 18422, Note_on_c, 0, 73, 0
3, 18432, Note_on_c, 0, 69, 50
3, 18433, Note_on_c, 0, 76, 36
3, 18434, Note_on_c, 0, 73, 20
3, 18438, Note_on_c, 0, 63, 27
3, 18445, Note_on_c, 0, 63, 0
3, 18462, Note_on_c, 0, 69, 0
3, 18465, Note_on_c, 0, 73, 0
3, 18489, Note_on_c, 0, 76, 0
3, 18503, Note_on_c, 0, 73, 28
3, 18503, Note_on_c, 0, 69, 37
3, 18506, Note_on_c, 0, 63, 25
3, 18508, Note_on_c, 0, 76, 13
3, 18516, Note_on_c, 0, 63, 0
3, 18580, Note_on_c, 0, 69, 0
3, 18597, Note_on_c, 0, 73, 0
3, 18616, Note_on_c, 0, 76, 0
3, 18621, Note_on_c, 0, 73, 25
3, 18622, Note_on_c, 0, 69, 33
3, 18642, Note_on_c, 0, 59, 0
3, 18650, Note_on_c, 0, 69, 0
3, 18671, Note_on_c, 0, 73, 0
3, 18676, Note_on_c, 0, 81, 0
3, 18749, Control_c, 0, 64, 0
3, 18762, Control_c, 0, 64, 127
3, 18852, Note_on_c, 0, 61, 97
3, 18852, Note_on_c, 0, 68, 90
3, 18853, Note_on_c, 0, 65, 90
3, 18853, Control_c, 0, 64, 0
3, 18854, Note_on_c, 0, 58, 85
3, 18855, Note_on_c, 0, 51, 75
3, 18855, Note_on_c, 0, 54, 65
3, 18879, Control_c, 0, 64, 127
3, 18895, Note_on_c, 0, 51, 0
3, 18896, Note_on_c, 0, 68, 0
3, 18897, Note_on_c, 0, 61, 0
3, 18897, Note_on_c, 0, 65, 0
3, 18900, Note_on_c, 0, 58, 0
3, 18903, Note_on_c, 0, 54, 0
3, 18913, Control_c, 0, 64, 0
3, 18918, Note_on_c, 0, 61, 74
3, 18918, Note_on_c, 0, 68, 75
3, 18918, Note_on_c, 0, 58, 72
3, 18918, Note_on_c, 0, 65, 83
3, 18919, Note_on_c, 0, 51, 57
3, 18919, Note_on_c, 0, 54, 56
3, 18932, Control_c, 0, 64, 127
3, 18950, Note_on_c, 0, 58, 0
3, 18953, Note_on_c, 0, 51, 0
3, 18953, Note_on_c, 0, 54, 0
3, 18962, Note_on_c, 0, 61, 0
3, 18967, Note_on_c, 0, 65, 0
3, 18975, Note_on_c, 0, 68, 0
3, 18985, Note_on_c, 0, 64, 80
3, 18986, Note_on_c, 0, 60, 74
3, 18986, Note_on_c, 0, 55, 64
3, 18987, Control_c, 0, 64, 0
3, 18987, Note_on_c, 0, 45, 58
3, 19017, Control_c, 0, 64, 127
3, 19035, Note_on_c, 0, 55, 0
3, 19038, Note_on_c, 0, 52, 62
3, 19048, Note_on_c, 0, 60, 0
3, 19058, Note_on_c, 0, 45, 0
3, 19075, Note_on_c, 0, 64, 0
3, 19095, Note_on_c, 0, 59, 80
3, 19097, Note_on_c, 0, 64, 105
3, 19097, Note_on_c, 0, 71, 87
3, 19099, Note_on_c, 0, 60, 96
3, 19124, Note_on_c, 0, 59, 0
3, 19142, Note_on_c, 0, 60, 0
3, 19146, Note_on_c, 0, 71, 0
3, 19153, Note_on_c, 0, 69, 77
3, 19153, Note_on_c, 0, 60, 79
3, 19154, Note_on_c, 0, 57, 70
3, 19160, Note_on_c, 0, 52, 0
3, 19175, Note_on_c, 0, 60, 0
3, 19177, Note_on_c, 0, 64, 0
3, 19182, Note_on_c, 0, 57, 0
3, 19192, Note_on_c, 0, 69, 0
3, 19214, Note_on_c, 0, 63, 90
3, 19215, Note_on_c, 0, 65, 89
3, 19215, Note_on_c, 0, 62, 91
3, 19216, Note_on_c, 0, 58, 84
3, 19217, Note_on_c, 0, 48, 74
3, 19219, Control_c, 0, 64, 0
3, 19234, Note_on_c, 0, 62, 0
3, 19246, Note_on_c, 0, 62, 26
3, 19255, Control_c, 0, 64, 127
3, 19294, Note_on_c, 0, 55, 28
3, 19306, Note_on_c, 0, 62, 0
3, 19312, Note_on_c, 0, 58, 0
3, 19323, Note_on_c, 0, 63, 0
3, 19333, Note_on_c, 0, 63, 50
3, 19336, Note_on_c, 0, 60, 63
3, 19338, Note_on_c, 0, 58, 42
3, 19349, Note_on_c, 0, 48, 0
3, 19363, Note_on_c, 0, 58, 0
3, 19379, Note_on_c, 0, 65, 0
3, 19382, Note_on_c, 0, 55, 0
3, 19393, Note_on_c, 0, 48, 49
3, 19397, Note_on_c, 0, 60, 0
3, 19408, Note_on_c, 0, 48, 0
3, 19417, Note_on_c, 0, 63, 0
3, 19453, Note_on_c, 0, 42, 56
3, 19457, Note_on_c, 0, 61, 43
3, 19458, Note_on_c, 0, 68, 44
3, 19458, Note_on_c, 0, 64, 53
3, 19458, Note_on_c, 0, 57, 49
3, 19460, Control_c, 0, 64, 0
3, 19500, Note_on_c, 0, 42, 0
3, 19503, Control_c, 0, 64, 127
3, 19517, Note_on_c, 0, 56, 45
3, 19518, Note_on_c, 0, 57, 0
3, 19525, Note_on_c, 0, 64, 0
3, 19527, Note_on_c, 0, 61, 0
3, 19531, Note_on_c, 0, 68, 0
3, 19537, Note_on_c, 0, 56, 0
3, 19627, Note_on_c, 0, 75, 82
3, 19628, Note_on_c, 0, 68, 83
3, 19629, Note_on_c, 0, 71, 81
3, 19629, Note_on_c, 0, 63, 86
3, 19629, Note_on_c, 0, 64, 90
3, 19632, Note_on_c, 0, 73, 33
3, 19632, Control_c, 0, 64, 0
3, 19640, Note_on_c, 0, 73, 0
3, 19651, Control_c, 0, 64, 127
3, 19670, Note_on_c, 0, 63, 0
3, 19698, Note_on_c, 0, 71, 0
3, 19700, Note_on_c, 0, 75, 0
3, 19701, Note_on_c, 0, 64, 0
3, 19711, Note_on_c, 0, 68, 0
3, 19746, Note_on_c, 0, 74, 66
3, 19746, Note_on_c, 0, 66, 57
3, 19746, Note_on_c, 0, 57, 43
3, 19747, Note_on_c, 0, 62, 67
3, 19747, Note_on_c, 0, 47, 45
3, 19751, Control_c, 0, 64, 0
3, 19791, Control_c, 0, 64, 127
3, 19814, Note_on_c, 0, 54, 46
3, 19817, Note_on_c, 0, 57, 0
3, 19828, Note_on_c, 0, 66, 0
3, 19841, Note_on_c, 0, 62, 0
3, 19864, Note_on_c, 0, 54, 0
3, 19867, Note_on_c, 0, 47, 0
3, 19875, Note_on_c, 0, 74, 0
3, 19875, Note_on_c, 0, 66, 69
3, 19898, Note_on_c, 0, 66, 0
3, 19904, Note_on_c, 0, 62, 53
3, 19926, Note_on_c, 0, 62, 0
3, 19934, Control_c, 0, 64, 0
3, 19936, Note_on_c, 0, 69, 79
3, 19937, Note_on_c, 0, 43, 50
3, 19967, Control_c, 0, 64, 127
3, 19985, Note_on_c, 0, 50, 38
3, 20021, Note_on_c, 0, 65, 71
3, 20023, Note_on_c, 0, 67, 17
3, 20024, Note_on_c, 0, 62, 61
3, 20026, Note_on_c, 0, 69, 0
3, 20035, Note_on_c, 0, 67, 0
3, 20036, Note_on_c, 0, 58, 52
3, 20085, Note_on_c, 0, 55, 50
3, 20089, Note_on_c, 0, 55, 0
3, 20096, Note_on_c, 0, 50, 0
3, 20104, Note_on_c, 0, 43, 0
3, 20104, Note_on_c, 0, 58, 0
3, 20117, Note_on_c, 0, 58, 39
3, 20118, Note_on_c, 0, 62, 0
3, 20118, Note_on_c, 0, 65, 0
3, 20139, Note_on_c, 0, 58, 0
3, 20150, Note_on_c, 0, 55, 42
3, 20159, Note_on_c, 0, 55, 0
3, 20169, Note_on_c, 0, 58, 49
3, 20171, Note_on_c, 0, 65, 64
3, 20172, Note_on_c, 0, 39, 47
3, 20173, Note_on_c, 0, 46, 46
3, 20175, Control_c, 0, 64, 0
3, 20206, Control_c, 0, 64, 127
3, 20214, Note_on_c, 0, 39, 0
3, 20235, Note_on_c, 0, 65, 0
3, 20235, Note_on_c, 0, 55, 53
3, 20238, Note_on_c, 0, 58, 0
3, 20270, Note_on_c, 0, 55, 0
3, 20303, Note_on_c, 0, 57, 37
3, 20311, Note_on_c, 0, 57, 0
3, 20316, Note_on_c, 0, 46, 0
3, 20330, Note_on_c, 0, 62, 62
3, 20347, Note_on_c, 0, 62, 0
3, 20357, Note_on_c, 0, 64, 68
3, 20359, Note_on_c, 0, 62, 17
3, 20364, Note_on_c, 0, 62, 0
3, 20379, Note_on_c, 0, 64, 0
3, 20385, Note_on_c, 0, 67, 60
3, 20405, Note_on_c, 0, 67, 0
3, 20415, Note_on_c, 0, 50, 39
3, 20416, Note_on_c, 0, 65, 70
3, 20416, Control_c, 0, 64, 0
3, 20416, Note_on_c, 0, 60, 34
3, 20417, Note_on_c, 0, 64, 52
3, 20441, Control_c, 0, 64, 127
3, 20460, Note_on_c, 0, 64, 0
3, 20465, Note_on_c, 0, 65, 0
3, 20471, Note_on_c, 0, 57, 42
3, 20485, Note_on_c, 0, 60, 0
3, 20529, Note_on_c, 0, 67, 74
3, 20530, Note_on_c, 0, 60, 50
3, 20537, Note_on_c, 0, 67, 0
3, 20571, Note_on_c, 0, 72, 108
3, 20587, Note_on_c, 0, 57, 0
3, 20594, Note_on_c, 0, 60, 0
3, 20603, Note_on_c, 0, 50, 0
3, 20609, Note_on_c, 0, 72, 0
3, 20614, Note_on_c, 0, 71, 73
3, 20650, Note_on_c, 0, 71, 0
3, 20652, Control_c, 0, 64, 0
3, 20659, Note_on_c, 0, 69, 52
3, 20660, Note_on_c, 0, 48, 37
3, 20675, Control_c, 0, 64, 127
3, 20683, Note_on_c, 0, 69, 0
3, 20698, Note_on_c, 0, 55, 42
3, 20706, Note_on_c, 0, 48, 0
3, 20710, Note_on_c, 0, 55, 0
3, 20736, Note_on_c, 0, 81, 74
3, 20776, Note_on_c, 0, 74, 53
3, 20778, Note_on_c, 0, 63, 39
3, 20778, Note_on_c, 0, 67, 45
3, 20787, Note_on_c, 0, 74, 0
3, 20790, Note_on_c, 0, 75, 54
3, 20794, Note_on_c, 0, 67, 0
3, 20802, Note_on_c, 0, 75, 0
3, 20802, Note_on_c, 0, 74, 37
3, 20805, Note_on_c, 0, 63, 0
3, 20814, Note_on_c, 0, 74, 0
3, 20819, Note_on_c, 0, 75, 37
3, 20825, Note_on_c, 0, 75, 0
3, 20826, Note_on_c, 0, 74, 41
3, 20840, Note_on_c, 0, 74, 0
3, 20843, Note_on_c, 0, 75, 46
3, 20851, Note_on_c, 0, 75, 0
3, 20853, Note_on_c, 0, 74, 44
3, 20856, Note_on_c, 0, 81, 0
3, 20867, Note_on_c, 0, 74, 0
3, 20869, Note_on_c, 0, 81, 24
3, 20870, Note_on_c, 0, 75, 49
3, 20880, Note_on_c, 0, 75, 0
3, 20881, Note_on_c, 0, 74, 35
3, 20894, Note_on_c, 0, 74, 0
3, 20895, Note_on_c, 0, 75, 46
3, 20899, Note_on_c, 0, 63, 32
3, 20900, Note_on_c, 0, 67, 45
3, 20905, Note_on_c, 0, 75, 0
3, 20907, Note_on_c, 0, 74, 49
3, 20910, Note_on_c, 0, 81, 0
3, 20920, Note_on_c, 0, 74, 0
3, 20922, Note_on_c, 0, 75, 49
3, 20923, Note_on_c, 0, 81, 6
3, 20933, Note_on_c, 0, 81, 0
3, 20933, Note_on_c, 0, 75, 0
3, 20933, Note_on_c, 0, 74, 44
3, 20946, Note_on_c, 0, 74, 0
3, 20946, Note_on_c, 0, 67, 0
3, 20947, Note_on_c, 0, 81, 17
3, 20948, Note_on_c, 0, 75, 36
3, 20957, Note_on_c, 0, 75, 0
3, 20958, Note_on_c, 0, 81, 0
3, 20958, Note_on_c, 0, 74, 44
3, 20971, Note_on_c, 0, 63, 0
3, 20972, Note_on_c, 0, 74, 0
3, 20974, Note_on_c, 0, 81, 25
3, 20975, Note_on_c, 0, 75, 37
3, 20981, Note_on_c, 0, 75, 0
3, 20982, Note_on_c, 0, 81, 0
3, 20982, Note_on_c, 0, 74, 37
3, 20997, Note_on_c, 0, 74, 0
3, 21000, Note_on_c, 0, 75, 44
3, 21001, Note_on_c, 0, 81, 30
3, 21008, Note_on_c, 0, 81, 0
3, 21009, Note_on_c, 0, 63, 35
3, 21010, Note_on_c, 0, 74, 41
3, 21018, Note_on_c, 0, 75, 0
3, 21020, Note_on_c, 0, 63, 0
3, 21067, Note_on_c, 0, 86, 70
3, 21088, Note_on_c, 0, 74, 0
3, 21097, Note_on_c, 0, 84, 54
3, 21099, Note_on_c, 0, 86, 0
3, 21119, Note_on_c, 0, 84, 0
3, 21128, Control_c, 0, 64, 0
3, 21128, End_track
4, 0, Start_track
4, 0, Title_t, ""
4, 8647, Note_on_c, 9, 53, 36
4, 8649, Note_on_c, 9, 59, 58
4, 8652, Note_on_c, 9, 53, 0
4, 8665, Note_on_c, 9, 59, 0
4, 8681, Note_on_c, 9, 59, 19
4, 8701, Note_on_c, 9, 59, 0
4, 8759, Note_on_c, 9, 59, 53
4, 8773, Note_on_c, 9, 59, 0
4, 8949, Note_on_c, 9, 59, 57
4, 8954, Note_on_c, 9, 59, 0
4, 9009, Note_on_c, 9, 59, 53
4, 9014, Note_on_c, 9, 59, 0
4, 9115, Note_on_c, 9, 59, 51
4, 9121, Note_on_c, 9, 59, 0
4, 9140, Note_on_c, 9, 59, 60
4, 9152, Note_on_c, 9, 59, 0
4, 9259, Note_on_c, 9, 59, 63
4, 9271, Note_on_c, 9, 59, 0
4, 9432, Note_on_c, 9, 59, 74
4, 9443, Note_on_c, 9, 59, 0
4, 9490, Note_on_c, 9, 59, 66
4, 9497, Note_on_c, 9, 59, 0
4, 9547, Note_on_c, 9, 51, 69
4, 9549, Note_on_c, 9, 53, 74
4, 9561, Note_on_c, 9, 51, 0
4, 9578, Note_on_c, 9, 53, 0
4, 9609, Note_on_c, 9, 51, 67
4, 9613, Note_on_c, 9, 53, 66
4, 9623, Note_on_c, 9, 51, 0
4, 9644, Note_on_c, 9, 53, 0
4, 9675, Note_on_c, 9, 59, 56
4, 9694, Note_on_c, 9, 59, 0
4, 9734, Note_on_c, 9, 59, 44
4, 9752, Note_on_c, 9, 59, 0
4, 9791, Note_on_c, 9, 59, 54
4, 9806, Note_on_c, 9, 59, 0
4, 9854, Note_on_c, 9, 59, 53
4, 9891, Note_on_c, 9, 59, 0
4, 10097, Note_on_c, 9, 46, 61
4, 10098, Note_on_c, 9, 59, 63
4, 10102, Note_on_c, 9, 46, 0
4, 10104, Note_on_c, 9, 59, 0
4, 10229, Note_on_c, 9, 59, 47
4, 10235, Note_on_c, 9, 59, 0
4, 10386, Note_on_c, 9, 59, 60
4, 10402, Note_on_c, 9, 59, 0
4, 10444, Note_on_c, 9, 59, 95
4, 10460, Note_on_c, 9, 59, 0
4, 10475, Note_on_c, 9, 59, 69
4, 10490, Note_on_c, 9, 59, 0
4, 10505, Note_on_c, 9, 59, 80
4, 10545, Note_on_c, 9, 59, 0
4, 10569, Note_on_c, 9, 59, 87
4, 10605, Note_on_c, 9, 59, 0
4, 10630, Note_on_c, 9, 59, 80
4, 10665, Note_on_c, 9, 59, 0
4, 10693, Note_on_c, 9, 59, 90
4, 10732, Note_on_c, 9, 59, 0
4, 10817, Note_on_c, 9, 59, 77
4, 10829, Note_on_c, 9, 59, 0
4, 10872, Note_on_c, 9, 59, 99
4, 10894, Note_on_c, 9, 59, 0
4, 10931, Note_on_c, 9, 59, 115
4, 10982, Note_on_c, 9, 59, 0
4, 11055, Note_on_c, 9, 53, 74
4, 11061, Note_on_c, 9, 59, 101
4, 11065, Note_on_c, 9, 53, 0
4, 11083, Note_on_c, 9, 59, 0
4, 11136, Note_on_c, 9, 53, 68
4, 11136, Note_on_c, 9, 59, 88
4, 11141, Note_on_c, 9, 53, 0
4, 11164, Note_on_c, 9, 59, 0
4, 11223, Note_on_c, 9, 59, 70
4, 11235, Note_on_c, 9, 59, 0
4, 11254, Note_on_c, 9, 59, 73
4, 11261, Note_on_c, 9, 59, 0
4, 11278, Note_on_c, 9, 59, 99
4, 11323, Note_on_c, 9, 59, 0
4, 11343, Note_on_c, 9, 59, 53
4, 11350, Note_on_c, 9, 59, 0
4, 11368, Note_on_c, 9, 59, 67
4, 11381, Note_on_c, 9, 59, 0
4, 11401, Note_on_c, 9, 59, 113
4, 11445, Note_on_c, 9, 59, 0
4, 11474, Note_on_c, 9, 59, 78
4, 11500, Note_on_c, 9, 59, 0
4, 11536, Note_on_c, 9, 59, 101
4, 11587, Note_on_c, 9, 59, 0
4, 11636, Note_on_c, 9, 59, 62
4, 11643, Note_on_c, 9, 59, 0
4, 11660, Note_on_c, 9, 59, 94
4, 11697, Note_on_c, 9, 59, 0
4, 11753, Note_on_c, 9, 59, 65
4, 11762, Note_on_c, 9, 59, 0
4, 11777, Note_on_c, 9, 59, 71
4, 11811, Note_on_c, 9, 59, 0
4, 11833, Note_on_c, 9, 51, 63
4, 11834, Note_on_c, 9, 53, 63
4, 11847, Note_on_c, 9, 53, 0
4, 11848, Note_on_c, 9, 51, 0
4, 11898, Note_on_c, 9, 59, 82
4, 11910, Note_on_c, 9, 59, 0
4, 11926, Note_on_c, 9, 59, 67
4, 11936, Note_on_c, 9, 59, 0
4, 11951, Note_on_c, 9, 51, 82
4, 11953, Note_on_c, 9, 53, 71
4, 11980, Note_on_c, 9, 53, 0
4, 11981, Note_on_c, 9, 51, 0
4, 12015, Note_on_c, 9, 59, 47
4, 12022, Note_on_c, 9, 59, 0
4, 12040, Note_on_c, 9, 59, 64
4, 12051, Note_on_c, 9, 59, 0
4, 12066, Note_on_c, 9, 51, 85
4, 12067, Note_on_c, 9, 53, 82
4, 12088, Note_on_c, 9, 53, 0
4, 12090, Note_on_c, 9, 51, 0
4, 12131, Note_on_c, 9, 59, 52
4, 12141, Note_on_c, 9, 59, 0
4, 12187, Note_on_c, 9, 59, 60
4, 12193, Note_on_c, 9, 59, 0
4, 12249, Note_on_c, 9, 59, 82
4, 12318, Note_on_c, 9, 46, 33
4, 12327, Note_on_c, 9, 59, 0
4, 12329, Note_on_c, 9, 46, 0
4, 12375, Note_on_c, 9, 46, 46
4, 12404, Note_on_c, 9, 46, 0
4, 12432, Note_on_c, 9, 46, 82
4, 12455, Note_on_c, 9, 46, 0
4, 12493, Note_on_c, 9, 57, 76
4, 12494, Note_on_c, 9, 46, 76
4, 12505, Note_on_c, 9, 57, 0
4, 12507, Note_on_c, 9, 46, 0
4, 12593, Note_on_c, 9, 59, 58
4, 12601, Note_on_c, 9, 59, 0
4, 12621, Note_on_c, 9, 59, 57
4, 12652, Note_on_c, 9, 59, 0
4, 12673, Note_on_c, 9, 52, 54
4, 12679, Note_on_c, 9, 52, 0
4, 12740, Note_on_c, 9, 59, 38
4, 12750, Note_on_c, 9, 59, 0
4, 12798, Note_on_c, 9, 59, 62
4, 12809, Note_on_c, 9, 59, 0
4, 12859, Note_on_c, 9, 59, 94
4, 12876, Note_on_c, 9, 59, 0
4, 12889, Note_on_c, 9, 59, 72
4, 12903, Note_on_c, 9, 59, 0
4, 12917, Note_on_c, 9, 59, 82
4, 12946, Note_on_c, 9, 59, 0
4, 12975, Note_on_c, 9, 59, 81
4, 13004, Note_on_c, 9, 59, 0
4, 13118, Note_on_c, 9, 59, 62
4, 13130, Note_on_c, 9, 59, 0
4, 13146, Note_on_c, 9, 59, 73
4, 13164, Note_on_c, 9, 59, 0
4, 13178, Note_on_c, 9, 59, 74
4, 13192, Note_on_c, 9, 59, 0
4, 13209, Note_on_c, 9, 59, 105
4, 13240, Note_on_c, 9, 59, 0
4, 13278, Note_on_c, 9, 59, 40
4, 13284, Note_on_c, 9, 59, 0
4, 13309, Note_on_c, 9, 59, 53
4, 13315, Note_on_c, 9, 59, 0
4, 13339, Note_on_c, 9, 59, 63
4, 13347, Note_on_c, 9, 59, 0
4, 13370, Note_on_c, 9, 59, 62
4, 13376, Note_on_c, 9, 59, 0
4, 13401, Note_on_c, 9, 53, 74
4, 13401, Note_on_c, 9, 59, 90
4, 13428, Note_on_c, 9, 53, 0
4, 13429, Note_on_c, 9, 59, 0
4, 13458, Note_on_c, 9, 59, 34
4, 13470, Note_on_c, 9, 59, 0
4, 13489, Note_on_c, 9, 59, 58
4, 13498, Note_on_c, 9, 59, 0
4, 13516, Note_on_c, 9, 59, 78
4, 13546, Note_on_c, 9, 59, 0
4, 13576, Note_on_c, 9, 59, 89
4, 13612, Note_on_c, 9, 59, 0
4, 13638, Note_on_c, 9, 59, 30
4, 13645, Note_on_c, 9, 59, 0
4, 13796, Note_on_c, 9, 59, 60
4, 13808, Note_on_c, 9, 59, 0
4, 13825, Note_on_c, 9, 59, 53
4, 13851, Note_on_c, 9, 59, 0
4, 13919, Note_on_c, 9, 59, 53
4, 13927, Note_on_c, 9, 59, 0
4, 13948, Note_on_c, 9, 59, 46
4, 13969, Note_on_c, 9, 59, 0
4, 14039, Note_on_c, 9, 59, 39
4, 14048, Note_on_c, 9, 59, 0
4, 14065, Note_on_c, 9, 59, 57
4, 14091, Note_on_c, 9, 59, 0
4, 14155, Note_on_c, 9, 59, 44
4, 14162, Note_on_c, 9, 59, 0
4, 14184, Note_on_c, 9, 57, 50
4, 14185, Note_on_c, 9, 59, 53
4, 14204, Note_on_c, 9, 59, 0
4, 14205, Note_on_c, 9, 57, 0
4, 14407, Note_on_c, 9, 59, 28
4, 14412, Note_on_c, 9, 59, 0
4, 14428, Note_on_c, 9, 59, 55
4, 14440, Note_on_c, 9, 59, 0
4, 14511, Note_on_c, 9, 59, 50
4, 14520, Note_on_c, 9, 59, 0
4, 14535, Note_on_c, 9, 59, 56
4, 14554, Note_on_c, 9, 59, 0
4, 14589, Note_on_c, 9, 59, 36
4, 14595, Note_on_c, 9, 59, 0
4, 14619, Note_on_c, 9, 59, 50
4, 14626, Note_on_c, 9, 59, 0
4, 14650, Note_on_c, 9, 59, 68
4, 14673, Note_on_c, 9, 59, 0
4, 14741, Note_on_c, 9, 59, 40
4, 14747, Note_on_c, 9, 59, 0
4, 14859, Note_on_c, 9, 57, 46
4, 14860, Note_on_c, 9, 59, 28
4, 14864, Note_on_c, 9, 57, 0
4, 14867, Note_on_c, 9, 59, 0
4, 14890, Note_on_c, 9, 59, 62
4, 14922, Note_on_c, 9, 59, 0
4, 14958, Note_on_c, 9, 59, 32
4, 14967, Note_on_c, 9, 59, 0
4, 14990, Note_on_c, 9, 59, 53
4, 15000, Note_on_c, 9, 59, 0
4, 15016, Note_on_c, 9, 59, 66
4, 15042, Note_on_c, 9, 59, 0
4, 15164, Note_on_c, 9, 59, 55
4, 15172, Note_on_c, 9, 59, 0
4, 15219, Note_on_c, 9, 59, 69
4, 15229, Note_on_c, 9, 59, 0
4, 15240, Note_on_c, 9, 59, 71
4, 15245, Note_on_c, 9, 59, 0
4, 15256, Note_on_c, 9, 59, 90
4, 15289, Note_on_c, 9, 59, 0
4, 15305, Note_on_c, 9, 59, 46
4, 15313, Note_on_c, 9, 59, 0
4, 15335, Note_on_c, 9, 59, 74
4, 15346, Note_on_c, 9, 59, 0
4, 15355, Note_on_c, 9, 59, 87
4, 15367, Note_on_c, 9, 59, 0
4, 15374, Note_on_c, 9, 59, 87
4, 15406, Note_on_c, 9, 59, 0
4, 15429, Note_on_c, 9, 59, 63
4, 15438, Note_on_c, 9, 59, 0
4, 15460, Note_on_c, 9, 59, 76
4, 15470, Note_on_c, 9, 59, 0
4, 15483, Note_on_c, 9, 59, 80
4, 15522, Note_on_c, 9, 59, 0
4, 15543, Note_on_c, 9, 59, 57
4, 15549, Note_on_c, 9, 59, 0
4, 15575, Note_on_c, 9, 59, 60
4, 15580, Note_on_c, 9, 59, 0
4, 15602, Note_on_c, 9, 59, 88
4, 15651, Note_on_c, 9, 59, 0
4, 15701, Note_on_c, 9, 59, 57
4, 15709, Note_on_c, 9, 59, 0
4, 15729, Note_on_c, 9, 59, 62
4, 15755, Note_on_c, 9, 59, 0
4, 15850, Note_on_c, 9, 51, 55
4, 15852, Note_on_c, 9, 53, 69
4, 15869, Note_on_c, 9, 51, 0
4, 15871, Note_on_c, 9, 53, 0
4, 15910, Note_on_c, 9, 51, 59
4, 15914, Note_on_c, 9, 53, 63
4, 15929, Note_on_c, 9, 51, 0
4, 15947, Note_on_c, 9, 53, 0
4, 16032, Note_on_c, 9, 51, 58
4, 16035, Note_on_c, 9, 53, 66
4, 16051, Note_on_c, 9, 51, 0
4, 16068, Note_on_c, 9, 53, 0
4, 16185, Note_on_c, 9, 51, 59
4, 16187, Note_on_c, 9, 53, 61
4, 16195, Note_on_c, 9, 51, 0
4, 16198, Note_on_c, 9, 53, 0
4, 16213, Note_on_c, 9, 59, 80
4, 16250, Note_on_c, 9, 59, 0
4, 16271, Note_on_c, 9, 59, 81
4, 16305, Note_on_c, 9, 59, 0
4, 16363, Note_on_c, 9, 51, 74
4, 16365, Note_on_c, 9, 53, 72
4, 16368, Note_on_c, 9, 52, 48
4, 16373, Note_on_c, 9, 52, 0
4, 16380, Note_on_c, 9, 51, 0
4, 16381, Note_on_c, 9, 53, 0
4, 16391, Note_on_c, 9, 59, 73
4, 16431, Note_on_c, 9, 59, 0
4, 16445, Note_on_c, 9, 59, 74
4, 16483, Note_on_c, 9, 59, 0
4, 16606, Note_on_c, 9, 53, 58
4, 16607, Note_on_c, 9, 51, 37
4, 16611, Note_on_c, 9, 53, 0
4, 16613, Note_on_c, 9, 51, 0
4, 16798, Note_on_c, 9, 53, 26
4, 16806, Note_on_c, 9, 53, 0
4, 16823, Note_on_c, 9, 59, 51
4, 16829, Note_on_c, 9, 52, 37
4, 16917, Note_on_c, 9, 59, 0
4, 16940, Note_on_c, 9, 52, 0
4, 16944, Note_on_c, 9, 59, 44
4, 16958, Note_on_c, 9, 59, 0
4, 16982, Note_on_c, 9, 59, 71
4, 16992, Note_on_c, 9, 59, 0
4, 17016, Note_on_c, 9, 59, 92
4, 17053, Note_on_c, 9, 59, 0
4, 17125, Note_on_c, 9, 59, 59
4, 17137, Note_on_c, 9, 59, 0
4, 17155, Note_on_c, 9, 59, 61
4, 17168, Note_on_c, 9, 59, 0
4, 17184, Note_on_c, 9, 59, 81
4, 17211, Note_on_c, 9, 59, 0
4, 17272, Note_on_c, 9, 59, 59
4, 17281, Note_on_c, 9, 59, 0
4, 17296, Note_on_c, 9, 59, 80
4, 17333, Note_on_c, 9, 59, 0
4, 17387, Note_on_c, 9, 59, 53
4, 17397, Note_on_c, 9, 59, 0
4, 17412, Note_on_c, 9, 59, 74
4, 17450, Note_on_c, 9, 59, 0
4, 17587, Note_on_c, 9, 59, 46
4, 17597, Note_on_c, 9, 59, 0
4, 17620, Note_on_c, 9, 59, 69
4, 17635, Note_on_c, 9, 59, 0
4, 17650, Note_on_c, 9, 59, 81
4, 17674, Note_on_c, 9, 59, 0
4, 17681, Note_on_c, 9, 59, 71
4, 17693, Note_on_c, 9, 59, 0
4, 17711, Note_on_c, 9, 59, 94
4, 17746, Note_on_c, 9, 59, 0
4, 17765, Note_on_c, 9, 59, 44
4, 17779, Note_on_c, 9, 59, 0
4, 17799, Note_on_c, 9, 59, 71
4, 17810, Note_on_c, 9, 59, 0
4, 17830, Note_on_c, 9, 59, 66
4, 17850, Note_on_c, 9, 59, 0
4, 17888, Note_on_c, 9, 59, 70
4, 17921, Note_on_c, 9, 59, 0
4, 18011, Note_on_c, 9, 51, 43
4, 18012, Note_on_c, 9, 53, 44
4, 18023, Note_on_c, 9, 53, 0
4, 18024, Note_on_c, 9, 51, 0
4, 18099, Note_on_c, 9, 59, 60
4, 18110, Note_on_c, 9, 59, 0
4, 18125, Note_on_c, 9, 59, 58
4, 18145, Note_on_c, 9, 59, 0
4, 18216, Note_on_c, 9, 51, 50
4, 18231, Note_on_c, 9, 51, 0
4, 18245, Note_on_c, 9, 51, 50
4, 18276, Note_on_c, 9, 51, 0
4, 18281, Note_on_c, 9, 59, 66
4, 18295, Note_on_c, 9, 59, 0
4, 18312, Note_on_c, 9, 59, 60
4, 18331, Note_on_c, 9, 59, 0
4, 18370, Note_on_c, 9, 51, 46
4, 18382, Note_on_c, 9, 51, 0
4, 18402, Note_on_c, 9, 51, 52
4, 18422, Note_on_c, 9, 51, 0
4, 18432, Note_on_c, 9, 59, 91
4, 18472, Note_on_c, 9, 59, 0
4, 18496, Note_on_c, 9, 51, 46
4, 18506, Note_on_c, 9, 51, 0
4, 18526, Note_on_c, 9, 51, 51
4, 18537, Note_on_c, 9, 51, 0
4, 18554, Note_on_c, 9, 59, 80
4, 18587, Note_on_c, 9, 59, 0
4, 18617, Note_on_c, 9, 51, 74
4, 18619, Note_on_c, 9, 53, 69
4, 18648, Note_on_c, 9, 53, 0
4, 18651, Note_on_c, 9, 51, 0
4, 18673, Note_on_c, 9, 51, 82
4, 18673, Note_on_c, 9, 53, 80
4, 18699, Note_on_c, 9, 53, 0
4, 18705, Note_on_c, 9, 51, 0
4, 18735, Note_on_c, 9, 59, 108
4, 18782, Note_on_c, 9, 59, 0
4, 18828, Note_on_c, 9, 51, 49
4, 18830, Note_on_c, 9, 53, 43
4, 18835, Note_on_c, 9, 53, 0
4, 18841, Note_on_c, 9, 51, 0
4, 18853, Note_on_c, 9, 59, 88
4, 18897, Note_on_c, 9, 59, 0
4, 18977, Note_on_c, 9, 59, 77
4, 19016, Note_on_c, 9, 59, 0
4, 19073, Note_on_c, 9, 51, 27
4, 19079, Note_on_c, 9, 51, 0
4, 19097, Note_on_c, 9, 59, 67
4, 19137, Note_on_c, 9, 59, 0
4, 19187, Note_on_c, 9, 51, 37
4, 19192, Note_on_c, 9, 51, 0
4, 19212, Note_on_c, 9, 51, 62
4, 19213, Note_on_c, 9, 53, 58
4, 19226, Note_on_c, 9, 53, 0
4, 19229, Note_on_c, 9, 51, 0
4, 19303, Note_on_c, 9, 59, 54
4, 19310, Note_on_c, 9, 59, 0
4, 19333, Note_on_c, 9, 59, 80
4, 19352, Note_on_c, 9, 59, 0
4, 19363, Note_on_c, 9, 59, 74
4, 19379, Note_on_c, 9, 59, 0
4, 19393, Note_on_c, 9, 59, 95
4, 19436, Note_on_c, 9, 59, 0
4, 19451, Note_on_c, 9, 51, 61
4, 19453, Note_on_c, 9, 53, 59
4, 19458, Note_on_c, 9, 53, 0
4, 19463, Note_on_c, 9, 51, 0
4, 19486, Note_on_c, 9, 59, 64
4, 19498, Note_on_c, 9, 59, 0
4, 19540, Note_on_c, 9, 59, 70
4, 19550, Note_on_c, 9, 59, 0
4, 19574, Note_on_c, 9, 59, 85
4, 19610, Note_on_c, 9, 59, 0
4, 19631, Note_on_c, 9, 51, 27
4, 19632, Note_on_c, 9, 53, 31
4, 19637, Note_on_c, 9, 53, 0
4, 19639, Note_on_c, 9, 51, 0
4, 19663, Note_on_c, 9, 59, 64
4, 19674, Note_on_c, 9, 59, 0
4, 19696, Note_on_c, 9, 59, 74
4, 19734, Note_on_c, 9, 59, 0
4, 19757, Note_on_c, 9, 53, 33
4, 19763, Note_on_c, 9, 53, 0
4, 19792, Note_on_c, 9, 59, 45
4, 19799, Note_on_c, 9, 59, 0
4, 19824, Note_on_c, 9, 59, 68
4, 19854, Note_on_c, 9, 59, 0
4, 19872, Note_on_c, 9, 53, 35
4, 19878, Note_on_c, 9, 53, 0
4, 19970, Note_on_c, 9, 59, 54
4, 19981, Note_on_c, 9, 59, 0
4, 20013, Note_on_c, 9, 59, 64
4, 20030, Note_on_c, 9, 59, 0
4, 20054, Note_on_c, 9, 59, 91
4, 20084, Note_on_c, 9, 59, 0
4, 20097, Note_on_c, 9, 51, 42
4, 20097, Note_on_c, 9, 53, 39
4, 20102, Note_on_c, 9, 53, 0
4, 20107, Note_on_c, 9, 51, 0
4, 20137, Note_on_c, 9, 59, 64
4, 20145, Note_on_c, 9, 59, 0
4, 20171, Note_on_c, 9, 59, 88
4, 20198, Note_on_c, 9, 59, 0
4, 20212, Note_on_c, 9, 51, 39
4, 20213, Note_on_c, 9, 53, 41
4, 20218, Note_on_c, 9, 53, 0
4, 20218, Note_on_c, 9, 51, 0
4, 20251, Note_on_c, 9, 59, 53
4, 20257, Note_on_c, 9, 59, 0
4, 20286, Note_on_c, 9, 59, 62
4, 20296, Note_on_c, 9, 59, 0
4, 20328, Note_on_c, 9, 59, 49
4, 20337, Note_on_c, 9, 59, 0
4, 20372, Note_on_c, 9, 59, 68
4, 20382, Note_on_c, 9, 59, 0
4, 20410, Note_on_c, 9, 51, 83
4, 20411, Note_on_c, 9, 53, 82
4, 20428, Note_on_c, 9, 53, 0
4, 20436, Note_on_c, 9, 51, 0
4, 20450, Note_on_c, 9, 59, 60
4, 20467, Note_on_c, 9, 59, 0
4, 20509, Note_on_c, 9, 59, 59
4, 20518, Note_on_c, 9, 59, 0
4, 20544, Note_on_c, 9, 59, 64
4, 20580, Note_on_c, 9, 59, 0
4, 20594, Note_on_c, 9, 51, 33
4, 20596, Note_on_c, 9, 53, 28
4, 20599, Note_on_c, 9, 51, 0
4, 20601, Note_on_c, 9, 53, 0
4, 20624, Note_on_c, 9, 59, 62
4, 20638, Note_on_c, 9, 59, 0
4, 20659, Note_on_c, 9, 51, 64
4, 20659, Note_on_c, 9, 53, 71
4, 20671, Note_on_c, 9, 53, 0
4, 20673, Note_on_c, 9, 51, 0
4, 20699, Note_on_c, 9, 59, 49
4, 20710, Note_on_c, 9, 59, 0
4, 20746, Note_on_c, 9, 59, 50
4, 20754, Note_on_c, 9, 59, 0
4, 20782, Note_on_c, 9, 59, 55
4, 20796, Note_on_c, 9, 59, 0
4, 20819, Note_on_c, 9, 59, 49
4, 20830, Note_on_c, 9, 59, 0
4, 20856, Note_on_c, 9, 59, 42
4, 20871, Note_on_c, 9, 59, 0
4, 20896, Note_on_c, 9, 59, 47
4, 20912, Note_on_c, 9, 59, 0
4, 20938, Note_on_c, 9, 59, 45
4, 20950, Note_on_c, 9, 59, 0
4, 20984, Note_on_c, 9, 59, 53
4, 20998, Note_on_c, 9, 59, 0
4, 21019, Note_on_c, 9, 59, 54
4, 21019, Note_on_c, 9, 57, 53
4, 21037, Note_on_c, 9, 57, 0
4, 21039, Note_on_c, 9, 59, 0
4, 21074, Note_on_c, 9, 57, 53
4, 21075, Note_on_c, 9, 59, 46
4, 21085, Note_on_c, 9, 57, 0
4, 21089, Note_on_c, 9, 59, 0
4, 21089, End_track
0, 0, End_of_file
