0, 0, Header, 1, 9, 384
1, 0, Start_track
1, 0, Title_t, "Time After Time"
1, 0, Text_t, "       dougmck@pipeline.com.au\012"
1, 0, Text_t, "     \012"
1, 0, SMPTE_offset, 96, 0, 3, 0, 0
1, 0, System_exclusive, 10, 65, 16, 66, 18, 64, 0, 127, 0, 65, 247
1, 0, System_exclusive, 8, 67, 115, 1, 17, 15, 89, 3, 247
1, 0, Time_signature, 4, 2, 24, 8
1, 0, Key_signature, 0, "major"
1, 0, Tempo, 600000
1, 0, Marker_t, "Starts in C Major"
1, 1, Tempo, 461538
1, 38400, Key_signature, -3, "major"
1, 38407, Marker_t, "To Eb"
1, 42542, Marker_t, "Series of #9 chords instead of minor 7ths"
1, 79838, Marker_t, "In tempo - back to C Major"
1, 79872, Key_signature, 0, "major"
1, 83023, Marker_t, "On these big chords, slide off black notes to white chord tones - possible because this in key of C"
1, 88627, Marker_t, "White note glissando finishing on target melody tone"
1, 125829, Marker_t, "Blues Scale lick (= Eb pentatonic scale)"
1, 133506, Marker_t, "More bluesy licks"
1, 136990, Marker_t, "Sequence of notes from C major scale"
1, 141878, Marker_t, "Oscar Peterson-like blues phrase"
1, 151989, Marker_t, "On G7 RH plays  chromatic octaves -"
1, 153540, Marker_t, "The phrase continues across the double barlines into the second 16"
1, 155903, Marker_t, "A 4 note repeated chromatic phrase but played in triplet rhythm"
1, 158209, Marker_t, "Lots of blues scale notes in this descending run."
1, 163435, Marker_t, "Notes of F triad surrounded"
1, 170316, Marker_t, "Big 2 handed chord is 'shaken' (tremolo)"
1, 170952, Marker_t, "Lots of slides from black to white on these chords to 'dirty' up the sound!"
1, 180803, Marker_t, "Very common bluesy descending 3 note line - 6,b3,Root"
1, 186526, Marker_t, "Quite common line of arpeggiated tones on tonic chord (C)"
1, 206358, Marker_t, "Block chords"
1, 207217, Marker_t, "Drop off with brief descending glissando"
1, 227329, Marker_t, "More bluesy licks "
1, 227329, End_track
2, 0, Start_track
2, 0, Title_t, ""
2, 0, Program_c, 0, 0
2, 0, Note_on_c, 0, 71, 72
2, 13, Control_c, 0, 64, 0
2, 19, Note_on_c, 0, 68, 50
2, 35, Note_on_c, 0, 65, 47
2, 41, Note_on_c, 0, 56, 37
2, 45, Note_on_c, 0, 62, 40
2, 128, Control_c, 0, 64, 127
2, 243, Note_on_c, 0, 65, 0
2, 253, Note_on_c, 0, 62, 0
2, 259, Note_on_c, 0, 71, 0
2, 441, Note_on_c, 0, 68, 0
2, 1110, Note_on_c, 0, 72, 48
2, 1126, Note_on_c, 0, 69, 55
2, 1129, Control_c, 0, 64, 0
2, 1133, Note_on_c, 0, 67, 47
2, 1136, Note_on_c, 0, 64, 44
2, 1149, Note_on_c, 0, 57, 46
2, 1161, Note_on_c, 0, 56, 0
2, 1238, Control_c, 0, 64, 127
2, 1312, Note_on_c, 0, 69, 0
2, 1319, Note_on_c, 0, 67, 0
2, 1331, Note_on_c, 0, 64, 0
2, 1337, Note_on_c, 0, 72, 0
2, 1478, Note_on_c, 0, 74, 62
2, 1488, Note_on_c, 0, 71, 61
2, 1488, Control_c, 0, 64, 0
2, 1504, Note_on_c, 0, 65, 55
2, 1507, Note_on_c, 0, 59, 46
2, 1510, Note_on_c, 0, 68, 34
2, 1514, Note_on_c, 0, 57, 0
2, 1593, Control_c, 0, 64, 127
2, 1680, Note_on_c, 0, 65, 0
2, 1705, Note_on_c, 0, 74, 0
2, 1705, Note_on_c, 0, 68, 0
2, 1709, Note_on_c, 0, 71, 0
2, 1753, Note_on_c, 0, 59, 0
2, 1843, Note_on_c, 0, 76, 62
2, 1853, Note_on_c, 0, 72, 51
2, 1856, Control_c, 0, 64, 0
2, 1872, Note_on_c, 0, 69, 54
2, 1881, Note_on_c, 0, 67, 47
2, 1888, Note_on_c, 0, 60, 28
2, 2022, Control_c, 0, 64, 127
2, 2272, Note_on_c, 0, 60, 0
2, 2365, Note_on_c, 0, 76, 0
2, 2365, Note_on_c, 0, 69, 0
2, 2365, Note_on_c, 0, 72, 0
2, 2406, Note_on_c, 0, 67, 0
2, 3001, Note_on_c, 0, 72, 33
2, 3008, Note_on_c, 0, 65, 44
2, 3008, Note_on_c, 0, 69, 48
2, 3024, Note_on_c, 0, 61, 23
2, 3030, Control_c, 0, 64, 0
2, 3030, Note_on_c, 0, 45, 32
2, 3037, Note_on_c, 0, 55, 25
2, 3152, Control_c, 0, 64, 127
2, 3344, Note_on_c, 0, 61, 0
2, 3423, Note_on_c, 0, 72, 0
2, 3462, Note_on_c, 0, 69, 0
2, 3485, Note_on_c, 0, 65, 0
2, 3625, Note_on_c, 0, 45, 0
2, 3760, Note_on_c, 0, 55, 0
2, 3814, Note_on_c, 0, 74, 74
2, 3984, Note_on_c, 0, 74, 0
2, 4582, Note_on_c, 0, 72, 42
2, 4589, Note_on_c, 0, 69, 61
2, 4605, Note_on_c, 0, 65, 44
2, 4608, Note_on_c, 0, 55, 42
2, 4614, Note_on_c, 0, 64, 32
2, 4640, Control_c, 0, 64, 0
2, 4749, Control_c, 0, 64, 127
2, 4848, Note_on_c, 0, 55, 0
2, 4970, Note_on_c, 0, 69, 0
2, 4979, Note_on_c, 0, 55, 43
2, 5008, Note_on_c, 0, 72, 0
2, 5021, Note_on_c, 0, 65, 0
2, 5049, Note_on_c, 0, 64, 0
2, 5088, Note_on_c, 0, 55, 0
2, 5350, Note_on_c, 0, 65, 53
2, 5353, Note_on_c, 0, 55, 46
2, 5357, Note_on_c, 0, 67, 41
2, 5370, Note_on_c, 0, 72, 40
2, 5699, Note_on_c, 0, 43, 40
2, 5754, Note_on_c, 0, 72, 0
2, 5807, Note_on_c, 0, 55, 0
2, 5843, Note_on_c, 0, 67, 0
2, 5875, Note_on_c, 0, 65, 0
2, 6083, Note_on_c, 0, 43, 0
2, 6387, Note_on_c, 0, 62, 55
2, 6387, Note_on_c, 0, 43, 42
2, 6387, Note_on_c, 0, 56, 44
2, 6393, Note_on_c, 0, 59, 57
2, 6406, Note_on_c, 0, 53, 29
2, 6425, Control_c, 0, 64, 0
2, 6541, Control_c, 0, 64, 127
2, 6655, Note_on_c, 0, 59, 0
2, 6656, Note_on_c, 0, 56, 0
2, 6659, Note_on_c, 0, 53, 0
2, 6761, Note_on_c, 0, 62, 0
2, 6832, Note_on_c, 0, 64, 71
2, 6838, Note_on_c, 0, 59, 66
2, 6845, Note_on_c, 0, 55, 68
2, 6845, Note_on_c, 0, 52, 49
2, 6848, Note_on_c, 0, 62, 59
2, 6854, Control_c, 0, 64, 0
2, 6950, Control_c, 0, 64, 127
2, 7015, Note_on_c, 0, 55, 0
2, 7046, Note_on_c, 0, 59, 0
2, 7091, Note_on_c, 0, 62, 0
2, 7123, Note_on_c, 0, 64, 0
2, 7808, Note_on_c, 0, 43, 0
2, 7933, Note_on_c, 0, 52, 0
2, 8000, Note_on_c, 0, 61, 49
2, 8003, Note_on_c, 0, 65, 60
2, 8003, Note_on_c, 0, 69, 55
2, 8013, Note_on_c, 0, 51, 46
2, 8022, Control_c, 0, 64, 0
2, 8093, Control_c, 0, 64, 127
2, 8211, Note_on_c, 0, 61, 0
2, 8214, Note_on_c, 0, 65, 0
2, 8278, Note_on_c, 0, 69, 0
2, 8336, Note_on_c, 0, 51, 0
2, 8365, Note_on_c, 0, 67, 55
2, 8371, Control_c, 0, 64, 0
2, 8374, Note_on_c, 0, 59, 32
2, 8377, Note_on_c, 0, 52, 37
2, 8377, Note_on_c, 0, 62, 45
2, 8377, Note_on_c, 0, 64, 46
2, 8518, Control_c, 0, 64, 127
2, 8700, Note_on_c, 0, 59, 0
2, 8716, Note_on_c, 0, 52, 0
2, 8745, Note_on_c, 0, 64, 0
2, 8745, Note_on_c, 0, 62, 0
2, 8765, Note_on_c, 0, 67, 0
2, 9315, Note_on_c, 0, 76, 71
2, 9325, Note_on_c, 0, 72, 57
2, 9331, Note_on_c, 0, 64, 36
2, 9337, Note_on_c, 0, 67, 47
2, 9475, Note_on_c, 0, 64, 0
2, 9529, Note_on_c, 0, 76, 0
2, 9555, Note_on_c, 0, 72, 0
2, 9567, Note_on_c, 0, 67, 0
2, 9894, Note_on_c, 0, 72, 48
2, 9901, Note_on_c, 0, 69, 60
2, 9907, Note_on_c, 0, 65, 55
2, 9907, Note_on_c, 0, 64, 40
2, 9968, Control_c, 0, 64, 0
2, 10089, Control_c, 0, 64, 127
2, 10294, Note_on_c, 0, 64, 0
2, 10301, Note_on_c, 0, 62, 46
2, 10368, Note_on_c, 0, 62, 0
2, 10384, Note_on_c, 0, 72, 0
2, 10400, Note_on_c, 0, 69, 0
2, 10448, Note_on_c, 0, 65, 0
2, 10835, Note_on_c, 0, 53, 35
2, 10838, Note_on_c, 0, 57, 41
2, 10838, Note_on_c, 0, 60, 48
2, 10845, Note_on_c, 0, 43, 35
2, 10845, Note_on_c, 0, 50, 30
2, 10899, Control_c, 0, 64, 0
2, 11040, Control_c, 0, 64, 127
2, 11366, Note_on_c, 0, 53, 0
2, 11424, Note_on_c, 0, 57, 0
2, 11468, Note_on_c, 0, 60, 0
2, 11568, Note_on_c, 0, 50, 0
2, 12090, Note_on_c, 0, 43, 0
2, 12109, Note_on_c, 0, 62, 58
2, 12109, Note_on_c, 0, 56, 47
2, 12115, Note_on_c, 0, 59, 58
2, 12118, Note_on_c, 0, 47, 35
2, 12121, Note_on_c, 0, 53, 44
2, 12131, Control_c, 0, 64, 0
2, 12201, Control_c, 0, 64, 127
2, 12262, Note_on_c, 0, 59, 0
2, 12319, Note_on_c, 0, 53, 0
2, 12336, Note_on_c, 0, 56, 0
2, 12397, Note_on_c, 0, 62, 0
2, 12445, Control_c, 0, 64, 0
2, 12451, Note_on_c, 0, 47, 0
2, 12454, Note_on_c, 0, 57, 66
2, 12454, Note_on_c, 0, 60, 68
2, 12454, Note_on_c, 0, 48, 55
2, 12457, Note_on_c, 0, 64, 66
2, 12457, Note_on_c, 0, 55, 65
2, 12541, Control_c, 0, 64, 127
2, 12550, Note_on_c, 0, 55, 0
2, 12563, Note_on_c, 0, 48, 0
2, 12595, Note_on_c, 0, 57, 0
2, 12620, Note_on_c, 0, 60, 0
2, 12630, Note_on_c, 0, 64, 0
2, 13241, Note_on_c, 0, 71, 57
2, 13241, Note_on_c, 0, 68, 43
2, 13245, Note_on_c, 0, 64, 55
2, 13251, Note_on_c, 0, 56, 33
2, 13254, Note_on_c, 0, 59, 43
2, 13280, Control_c, 0, 64, 0
2, 13382, Control_c, 0, 64, 127
2, 13468, Note_on_c, 0, 59, 0
2, 13530, Note_on_c, 0, 64, 0
2, 13583, Note_on_c, 0, 68, 0
2, 13615, Note_on_c, 0, 71, 0
2, 13699, Note_on_c, 0, 69, 50
2, 13702, Note_on_c, 0, 56, 0
2, 13712, Note_on_c, 0, 64, 43
2, 13712, Note_on_c, 0, 60, 33
2, 13715, Note_on_c, 0, 57, 41
2, 13734, Control_c, 0, 64, 0
2, 13849, Control_c, 0, 64, 127
2, 14003, Note_on_c, 0, 69, 0
2, 14016, Note_on_c, 0, 64, 0
2, 14157, Note_on_c, 0, 60, 0
2, 14393, Note_on_c, 0, 64, 51
2, 14409, Note_on_c, 0, 57, 0
2, 14662, Note_on_c, 0, 64, 0
2, 14973, Note_on_c, 0, 62, 48
2, 14973, Note_on_c, 0, 57, 34
2, 14979, Note_on_c, 0, 58, 35
2, 14982, Note_on_c, 0, 43, 37
2, 15001, Note_on_c, 0, 53, 22
2, 15005, Control_c, 0, 64, 0
2, 15101, Control_c, 0, 64, 127
2, 15245, Note_on_c, 0, 57, 0
2, 15254, Note_on_c, 0, 53, 0
2, 15261, Note_on_c, 0, 50, 42
2, 15558, Note_on_c, 0, 58, 0
2, 15613, Note_on_c, 0, 62, 0
2, 15846, Note_on_c, 0, 62, 56
2, 15913, Note_on_c, 0, 43, 0
2, 15923, Note_on_c, 0, 50, 0
2, 16035, Note_on_c, 0, 72, 81
2, 16208, Note_on_c, 0, 62, 0
2, 16256, Note_on_c, 0, 72, 0
2, 16336, Note_on_c, 0, 72, 44
2, 16336, Note_on_c, 0, 48, 40
2, 16342, Note_on_c, 0, 64, 48
2, 16345, Note_on_c, 0, 58, 27
2, 16349, Control_c, 0, 64, 0
2, 16349, Note_on_c, 0, 68, 35
2, 16464, Control_c, 0, 64, 127
2, 16586, Note_on_c, 0, 48, 0
2, 16694, Note_on_c, 0, 48, 48
2, 16780, Note_on_c, 0, 58, 0
2, 16880, Note_on_c, 0, 64, 0
2, 17052, Note_on_c, 0, 48, 0
2, 17235, Note_on_c, 0, 48, 48
2, 17392, Note_on_c, 0, 68, 0
2, 17459, Note_on_c, 0, 72, 0
2, 17856, Note_on_c, 0, 72, 39
2, 17859, Note_on_c, 0, 64, 44
2, 17862, Note_on_c, 0, 69, 56
2, 17869, Note_on_c, 0, 48, 0
2, 17869, Note_on_c, 0, 57, 36
2, 17888, Control_c, 0, 64, 0
2, 18003, Control_c, 0, 64, 127
2, 18163, Note_on_c, 0, 69, 0
2, 18182, Note_on_c, 0, 53, 35
2, 18198, Note_on_c, 0, 72, 0
2, 18217, Note_on_c, 0, 64, 0
2, 18423, Note_on_c, 0, 57, 0
2, 18518, Note_on_c, 0, 53, 0
2, 18781, Note_on_c, 0, 64, 46
2, 18803, Note_on_c, 0, 60, 27
2, 18806, Note_on_c, 0, 55, 24
2, 18976, Note_on_c, 0, 55, 0
2, 19008, Note_on_c, 0, 64, 0
2, 19053, Note_on_c, 0, 65, 68
2, 19085, Note_on_c, 0, 60, 0
2, 19171, Note_on_c, 0, 65, 0
2, 19270, Note_on_c, 0, 69, 85
2, 19376, Note_on_c, 0, 69, 0
2, 19488, Note_on_c, 0, 72, 79
2, 19715, Note_on_c, 0, 79, 70
2, 19920, Note_on_c, 0, 72, 0
2, 19923, Note_on_c, 0, 79, 0
2, 20013, Note_on_c, 0, 79, 57
2, 20029, Note_on_c, 0, 72, 44
2, 20038, Note_on_c, 0, 53, 32
2, 20041, Note_on_c, 0, 68, 28
2, 20048, Note_on_c, 0, 62, 31
2, 20070, Control_c, 0, 64, 0
2, 20192, Control_c, 0, 64, 127
2, 20368, Note_on_c, 0, 62, 0
2, 20371, Note_on_c, 0, 79, 0
2, 20390, Note_on_c, 0, 77, 51
2, 20393, Note_on_c, 0, 60, 36
2, 20525, Note_on_c, 0, 72, 0
2, 20534, Note_on_c, 0, 68, 0
2, 20540, Note_on_c, 0, 77, 0
2, 20803, Note_on_c, 0, 65, 40
2, 20803, Note_on_c, 0, 68, 36
2, 20931, Note_on_c, 0, 64, 1
2, 21254, Note_on_c, 0, 64, 0
2, 21693, Note_on_c, 0, 62, 30
2, 22051, Note_on_c, 0, 65, 0
2, 22093, Note_on_c, 0, 68, 0
2, 22320, Note_on_c, 0, 72, 85
2, 22726, Note_on_c, 0, 73, 57
2, 22768, Note_on_c, 0, 72, 0
2, 22851, Note_on_c, 0, 73, 0
2, 22861, Note_on_c, 0, 74, 69
2, 22889, Note_on_c, 0, 53, 0
2, 22895, Note_on_c, 0, 60, 0
2, 22935, Note_on_c, 0, 62, 0
2, 22951, Note_on_c, 0, 74, 0
2, 22982, Note_on_c, 0, 75, 76
2, 23068, Note_on_c, 0, 75, 0
2, 23126, Note_on_c, 0, 76, 83
2, 23133, Note_on_c, 0, 55, 55
2, 23139, Note_on_c, 0, 64, 51
2, 23145, Note_on_c, 0, 60, 58
2, 23177, Control_c, 0, 64, 0
2, 23293, Control_c, 0, 64, 127
2, 23501, Note_on_c, 0, 67, 45
2, 23510, Note_on_c, 0, 64, 0
2, 23561, Note_on_c, 0, 60, 0
2, 23593, Note_on_c, 0, 76, 0
2, 23619, Note_on_c, 0, 67, 0
2, 23869, Note_on_c, 0, 72, 45
2, 23881, Note_on_c, 0, 64, 39
2, 23933, Note_on_c, 0, 60, 9
2, 24016, Note_on_c, 0, 55, 0
2, 24135, Note_on_c, 0, 72, 0
2, 24160, Note_on_c, 0, 74, 65
2, 24163, Note_on_c, 0, 55, 37
2, 24211, Note_on_c, 0, 55, 0
2, 24275, Note_on_c, 0, 60, 0
2, 24317, Note_on_c, 0, 74, 0
2, 24335, Note_on_c, 0, 64, 0
2, 24752, Note_on_c, 0, 72, 58
2, 24761, Note_on_c, 0, 57, 39
2, 24781, Control_c, 0, 64, 0
2, 24883, Control_c, 0, 64, 127
2, 25168, Note_on_c, 0, 69, 44
2, 25171, Note_on_c, 0, 60, 27
2, 25177, Note_on_c, 0, 64, 28
2, 25395, Note_on_c, 0, 69, 0
2, 25405, Note_on_c, 0, 60, 0
2, 25436, Note_on_c, 0, 64, 0
2, 25449, Note_on_c, 0, 57, 0
2, 25827, Note_on_c, 0, 72, 0
2, 25885, Note_on_c, 0, 72, 24
2, 25904, Note_on_c, 0, 54, 23
2, 25907, Note_on_c, 0, 65, 37
2, 25913, Note_on_c, 0, 44, 32
2, 25913, Note_on_c, 0, 60, 25
2, 25936, Control_c, 0, 64, 0
2, 26064, Control_c, 0, 64, 127
2, 26083, Note_on_c, 0, 68, 1
2, 26508, Note_on_c, 0, 60, 0
2, 26541, Note_on_c, 0, 65, 0
2, 26563, Note_on_c, 0, 72, 0
2, 26573, Note_on_c, 0, 68, 0
2, 26813, Note_on_c, 0, 74, 88
2, 26858, Note_on_c, 0, 54, 0
2, 26860, Note_on_c, 0, 44, 0
2, 26976, Note_on_c, 0, 74, 0
2, 27241, Note_on_c, 0, 74, 78
2, 27257, Control_c, 0, 64, 0
2, 27261, Note_on_c, 0, 67, 84
2, 27267, Note_on_c, 0, 43, 45
2, 27270, Note_on_c, 0, 64, 74
2, 27277, Note_on_c, 0, 52, 37
2, 27341, Control_c, 0, 64, 127
2, 27443, Note_on_c, 0, 43, 0
2, 27498, Note_on_c, 0, 52, 0
2, 27516, Note_on_c, 0, 64, 0
2, 27527, Note_on_c, 0, 67, 0
2, 27548, Note_on_c, 0, 74, 0
2, 27747, Note_on_c, 0, 76, 74
2, 27763, Note_on_c, 0, 68, 73
2, 27776, Note_on_c, 0, 56, 44
2, 27776, Note_on_c, 0, 65, 67
2, 27792, Control_c, 0, 64, 0
2, 27888, Control_c, 0, 64, 127
2, 28080, Note_on_c, 0, 76, 0
2, 28122, Note_on_c, 0, 65, 0
2, 28179, Note_on_c, 0, 68, 0
2, 28381, Note_on_c, 0, 56, 0
2, 28390, Note_on_c, 0, 72, 41
2, 28413, Note_on_c, 0, 67, 44
2, 28416, Note_on_c, 0, 64, 34
2, 28429, Note_on_c, 0, 57, 36
2, 28451, Control_c, 0, 64, 0
2, 28541, Control_c, 0, 64, 127
2, 29021, Note_on_c, 0, 64, 0
2, 29034, Note_on_c, 0, 57, 0
2, 29085, Note_on_c, 0, 67, 0
2, 29104, Note_on_c, 0, 72, 0
2, 29673, Note_on_c, 0, 74, 45
2, 29680, Note_on_c, 0, 70, 40
2, 29686, Note_on_c, 0, 65, 42
2, 29689, Control_c, 0, 64, 0
2, 29693, Note_on_c, 0, 51, 30
2, 29696, Note_on_c, 0, 62, 31
2, 29715, Note_on_c, 0, 58, 26
2, 29785, Control_c, 0, 64, 127
2, 29843, Note_on_c, 0, 62, 0
2, 29862, Note_on_c, 0, 65, 0
2, 29865, Note_on_c, 0, 58, 0
2, 29872, Note_on_c, 0, 51, 0
2, 29898, Note_on_c, 0, 70, 0
2, 29903, Note_on_c, 0, 74, 0
2, 30128, Note_on_c, 0, 64, 40
2, 30131, Note_on_c, 0, 72, 29
2, 30137, Note_on_c, 0, 50, 34
2, 30137, Note_on_c, 0, 69, 38
2, 30141, Note_on_c, 0, 67, 44
2, 30147, Control_c, 0, 64, 0
2, 30147, Note_on_c, 0, 60, 34
2, 30269, Control_c, 0, 64, 127
2, 30451, Note_on_c, 0, 67, 0
2, 30477, Note_on_c, 0, 64, 0
2, 30483, Note_on_c, 0, 60, 0
2, 30569, Note_on_c, 0, 69, 0
2, 30573, Note_on_c, 0, 67, 54
2, 30576, Note_on_c, 0, 64, 47
2, 30595, Note_on_c, 0, 60, 33
2, 30832, Note_on_c, 0, 60, 0
2, 30835, Note_on_c, 0, 64, 0
2, 30861, Note_on_c, 0, 67, 0
2, 31280, Note_on_c, 0, 68, 36
2, 31283, Note_on_c, 0, 64, 39
2, 31315, Note_on_c, 0, 60, 25
2, 31328, Control_c, 0, 64, 0
2, 31462, Control_c, 0, 64, 127
2, 31501, Note_on_c, 0, 60, 0
2, 31551, Note_on_c, 0, 50, 0
2, 31859, Note_on_c, 0, 72, 0
2, 31881, Note_on_c, 0, 64, 0
2, 31904, Note_on_c, 0, 68, 0
2, 32185, Note_on_c, 0, 71, 14
2, 32208, Note_on_c, 0, 68, 29
2, 32211, Note_on_c, 0, 64, 28
2, 32221, Note_on_c, 0, 38, 25
2, 32230, Note_on_c, 0, 26, 26
2, 32265, Control_c, 0, 64, 0
2, 32317, Control_c, 0, 64, 127
2, 32480, Note_on_c, 0, 26, 0
2, 32522, Note_on_c, 0, 38, 0
2, 32582, Note_on_c, 0, 71, 0
2, 32720, Note_on_c, 0, 64, 0
2, 32755, Note_on_c, 0, 68, 0
2, 32825, Note_on_c, 0, 74, 84
2, 33222, Note_on_c, 0, 74, 0
2, 33568, Note_on_c, 0, 74, 67
2, 33600, Control_c, 0, 64, 0
2, 33600, Note_on_c, 0, 69, 55
2, 33603, Note_on_c, 0, 65, 54
2, 33606, Note_on_c, 0, 50, 32
2, 33613, Note_on_c, 0, 57, 35
2, 33616, Note_on_c, 0, 60, 32
2, 33677, Control_c, 0, 64, 127
2, 33760, Note_on_c, 0, 57, 0
2, 33766, Note_on_c, 0, 50, 0
2, 33773, Note_on_c, 0, 65, 0
2, 33805, Note_on_c, 0, 69, 0
2, 33811, Note_on_c, 0, 74, 0
2, 33818, Note_on_c, 0, 60, 0
2, 33977, Note_on_c, 0, 76, 68
2, 33990, Note_on_c, 0, 52, 52
2, 33993, Note_on_c, 0, 67, 68
2, 33997, Control_c, 0, 64, 0
2, 34000, Note_on_c, 0, 59, 46
2, 34003, Note_on_c, 0, 62, 33
2, 34080, Control_c, 0, 64, 127
2, 34163, Note_on_c, 0, 52, 0
2, 34166, Note_on_c, 0, 59, 0
2, 34198, Note_on_c, 0, 67, 0
2, 34240, Note_on_c, 0, 62, 0
2, 34307, Note_on_c, 0, 76, 0
2, 34614, Note_on_c, 0, 72, 34
2, 34621, Note_on_c, 0, 65, 31
2, 34624, Note_on_c, 0, 60, 34
2, 34627, Note_on_c, 0, 53, 31
2, 34627, Note_on_c, 0, 64, 29
2, 34630, Note_on_c, 0, 69, 37
2, 34640, Control_c, 0, 64, 0
2, 34749, Control_c, 0, 64, 127
2, 34896, Note_on_c, 0, 53, 0
2, 34928, Note_on_c, 0, 60, 0
2, 34941, Note_on_c, 0, 64, 0
2, 35021, Note_on_c, 0, 65, 0
2, 35075, Note_on_c, 0, 69, 0
2, 35097, Note_on_c, 0, 72, 0
2, 35280, Note_on_c, 0, 66, 36
2, 35283, Note_on_c, 0, 74, 53
2, 35286, Note_on_c, 0, 54, 35
2, 35289, Note_on_c, 0, 69, 49
2, 35289, Note_on_c, 0, 63, 34
2, 35302, Note_on_c, 0, 60, 37
2, 35305, Control_c, 0, 64, 0
2, 35401, Control_c, 0, 64, 127
2, 35472, Note_on_c, 0, 60, 0
2, 35497, Note_on_c, 0, 74, 0
2, 35507, Note_on_c, 0, 54, 0
2, 35510, Note_on_c, 0, 63, 0
2, 35516, Note_on_c, 0, 69, 0
2, 35523, Note_on_c, 0, 66, 0
2, 35968, Note_on_c, 0, 72, 32
2, 35974, Note_on_c, 0, 55, 47
2, 35977, Note_on_c, 0, 65, 38
2, 35977, Note_on_c, 0, 69, 46
2, 35984, Note_on_c, 0, 60, 30
2, 35987, Control_c, 0, 64, 0
2, 36083, Control_c, 0, 64, 127
2, 36172, Note_on_c, 0, 55, 0
2, 36822, Note_on_c, 0, 31, 45
2, 37091, Note_on_c, 0, 31, 0
2, 37149, Note_on_c, 0, 60, 0
2, 37350, Note_on_c, 0, 69, 0
2, 37356, Note_on_c, 0, 65, 0
2, 37494, Note_on_c, 0, 72, 0
2, 38205, Note_on_c, 0, 65, 44
2, 38243, Note_on_c, 0, 68, 33
2, 38246, Note_on_c, 0, 71, 60
2, 38265, Note_on_c, 0, 62, 52
2, 38301, Note_on_c, 0, 74, 46
2, 38688, Control_c, 0, 64, 127
2, 38828, Note_on_c, 0, 71, 0
2, 38858, Note_on_c, 0, 74, 0
2, 38870, Note_on_c, 0, 68, 0
2, 38989, Note_on_c, 0, 65, 0
2, 39021, Note_on_c, 0, 75, 75
2, 39132, Note_on_c, 0, 62, 0
2, 39251, Note_on_c, 0, 75, 0
2, 39305, Note_on_c, 0, 77, 84
2, 39503, Note_on_c, 0, 77, 0
2, 39613, Control_c, 0, 64, 0
2, 39619, Note_on_c, 0, 79, 71
2, 39622, Note_on_c, 0, 39, 59
2, 39625, Note_on_c, 0, 74, 72
2, 39629, Note_on_c, 0, 67, 66
2, 39792, Control_c, 0, 64, 127
2, 39885, Note_on_c, 0, 46, 59
2, 39887, Note_on_c, 0, 74, 0
2, 39891, Note_on_c, 0, 39, 0
2, 39907, Note_on_c, 0, 79, 0
2, 39911, Note_on_c, 0, 67, 0
2, 40128, Note_on_c, 0, 46, 0
2, 40141, Note_on_c, 0, 70, 48
2, 40147, Note_on_c, 0, 67, 54
2, 40150, Note_on_c, 0, 62, 47
2, 40157, Note_on_c, 0, 55, 43
2, 40384, Note_on_c, 0, 62, 0
2, 40413, Note_on_c, 0, 55, 0
2, 40425, Note_on_c, 0, 58, 54
2, 40448, Note_on_c, 0, 67, 0
2, 40543, Note_on_c, 0, 58, 0
2, 40669, Note_on_c, 0, 70, 0
2, 40867, Note_on_c, 0, 67, 40
2, 40873, Note_on_c, 0, 62, 33
2, 40877, Note_on_c, 0, 63, 39
2, 40883, Note_on_c, 0, 48, 41
2, 40889, Note_on_c, 0, 58, 33
2, 40928, Control_c, 0, 64, 0
2, 41261, Note_on_c, 0, 55, 37
2, 41360, Control_c, 0, 64, 127
2, 41449, Note_on_c, 0, 62, 0
2, 41495, Note_on_c, 0, 63, 0
2, 41574, Note_on_c, 0, 63, 34
2, 41593, Note_on_c, 0, 60, 32
2, 41597, Note_on_c, 0, 67, 0
2, 41641, Note_on_c, 0, 60, 0
2, 41676, Note_on_c, 0, 63, 0
2, 41895, Note_on_c, 0, 55, 0
2, 41901, Note_on_c, 0, 48, 0
2, 41974, Note_on_c, 0, 75, 79
2, 42111, Note_on_c, 0, 58, 0
2, 42124, Note_on_c, 0, 75, 0
2, 42173, Note_on_c, 0, 77, 84
2, 42816, Note_on_c, 0, 77, 0
2, 42877, Note_on_c, 0, 75, 90
2, 42880, Note_on_c, 0, 57, 76
2, 42880, Note_on_c, 0, 63, 73
2, 42883, Note_on_c, 0, 68, 74
2, 42918, Control_c, 0, 64, 0
2, 43072, Control_c, 0, 64, 127
2, 43213, Note_on_c, 0, 75, 0
2, 43283, Note_on_c, 0, 75, 69
2, 43462, Note_on_c, 0, 57, 0
2, 43488, Note_on_c, 0, 68, 0
2, 43517, Note_on_c, 0, 63, 0
2, 43536, Note_on_c, 0, 75, 0
2, 43657, Note_on_c, 0, 75, 59
2, 43670, Note_on_c, 0, 67, 54
2, 43677, Note_on_c, 0, 62, 50
2, 43677, Note_on_c, 0, 56, 36
2, 43689, Control_c, 0, 64, 0
2, 43824, Control_c, 0, 64, 127
2, 43923, Note_on_c, 0, 67, 0
2, 43952, Note_on_c, 0, 62, 0
2, 43991, Note_on_c, 0, 56, 0
2, 44243, Note_on_c, 0, 34, 53
2, 44256, Note_on_c, 0, 77, 60
2, 44259, Note_on_c, 0, 75, 0
2, 44307, Note_on_c, 0, 34, 0
2, 45216, Note_on_c, 0, 77, 0
2, 45293, Note_on_c, 0, 79, 54
2, 45296, Note_on_c, 0, 51, 36
2, 45302, Note_on_c, 0, 67, 51
2, 45305, Note_on_c, 0, 74, 55
2, 45309, Note_on_c, 0, 62, 36
2, 45331, Control_c, 0, 64, 0
2, 45433, Control_c, 0, 64, 127
2, 45452, Note_on_c, 0, 67, 0
2, 45478, Note_on_c, 0, 74, 0
2, 45491, Note_on_c, 0, 79, 0
2, 45575, Note_on_c, 0, 62, 0
2, 45725, Note_on_c, 0, 59, 47
2, 45731, Note_on_c, 0, 84, 80
2, 45741, Note_on_c, 0, 79, 68
2, 45747, Note_on_c, 0, 72, 59
2, 45760, Control_c, 0, 64, 0
2, 45814, Control_c, 0, 64, 127
2, 45881, Note_on_c, 0, 84, 0
2, 45882, Note_on_c, 0, 79, 0
2, 45955, Note_on_c, 0, 72, 0
2, 46016, Note_on_c, 0, 59, 0
2, 46217, Note_on_c, 0, 82, 50
2, 46227, Note_on_c, 0, 74, 49
2, 46230, Note_on_c, 0, 79, 42
2, 46233, Note_on_c, 0, 70, 31
2, 46246, Note_on_c, 0, 60, 28
2, 46249, Control_c, 0, 64, 0
2, 46390, Control_c, 0, 64, 127
2, 46428, Note_on_c, 0, 79, 0
2, 46454, Note_on_c, 0, 51, 0
2, 46464, Note_on_c, 0, 60, 0
2, 46467, Note_on_c, 0, 74, 0
2, 46479, Note_on_c, 0, 82, 0
2, 46534, Note_on_c, 0, 70, 0
2, 46729, Note_on_c, 0, 75, 45
2, 46733, Note_on_c, 0, 79, 47
2, 46739, Note_on_c, 0, 67, 37
2, 46742, Note_on_c, 0, 48, 32
2, 46749, Note_on_c, 0, 58, 25
2, 46761, Control_c, 0, 64, 0
2, 46889, Control_c, 0, 64, 127
2, 47043, Note_on_c, 0, 48, 0
2, 47114, Note_on_c, 0, 79, 0
2, 47127, Note_on_c, 0, 58, 0
2, 47267, Note_on_c, 0, 67, 0
2, 47411, Note_on_c, 0, 75, 0
2, 47593, Note_on_c, 0, 75, 67
2, 47603, Note_on_c, 0, 68, 38
2, 47606, Note_on_c, 0, 57, 54
2, 47606, Note_on_c, 0, 63, 42
2, 47629, Control_c, 0, 64, 0
2, 47910, Control_c, 0, 64, 127
2, 47977, Note_on_c, 0, 75, 0
2, 48022, Note_on_c, 0, 75, 46
2, 48131, Note_on_c, 0, 57, 0
2, 48163, Note_on_c, 0, 68, 0
2, 48179, Note_on_c, 0, 63, 0
2, 48390, Note_on_c, 0, 67, 42
2, 48393, Control_c, 0, 64, 0
2, 48403, Note_on_c, 0, 56, 25
2, 48403, Note_on_c, 0, 62, 43
2, 48502, Control_c, 0, 64, 127
2, 48544, Note_on_c, 0, 67, 0
2, 48566, Note_on_c, 0, 62, 0
2, 48608, Note_on_c, 0, 56, 0
2, 48828, Note_on_c, 0, 75, 0
2, 48867, Note_on_c, 0, 34, 38
2, 48870, Note_on_c, 0, 77, 52
2, 48925, Note_on_c, 0, 34, 0
2, 49193, Note_on_c, 0, 77, 0
2, 49920, Note_on_c, 0, 67, 66
2, 49923, Note_on_c, 0, 63, 51
2, 49929, Note_on_c, 0, 62, 57
2, 49933, Note_on_c, 0, 46, 32
2, 49933, Control_c, 0, 64, 0
2, 49949, Note_on_c, 0, 55, 31
2, 50029, Control_c, 0, 64, 127
2, 50151, Note_on_c, 0, 46, 0
2, 50163, Note_on_c, 0, 62, 0
2, 50186, Note_on_c, 0, 55, 0
2, 50201, Note_on_c, 0, 63, 0
2, 50227, Note_on_c, 0, 67, 0
2, 50662, Note_on_c, 0, 74, 74
2, 50669, Note_on_c, 0, 67, 74
2, 50678, Note_on_c, 0, 63, 57
2, 50688, Note_on_c, 0, 59, 36
2, 50691, Control_c, 0, 64, 0
2, 50800, Control_c, 0, 64, 127
2, 51088, Note_on_c, 0, 63, 0
2, 51088, Note_on_c, 0, 67, 0
2, 51174, Note_on_c, 0, 74, 0
2, 51280, Note_on_c, 0, 63, 46
2, 51286, Note_on_c, 0, 59, 0
2, 51293, Note_on_c, 0, 67, 47
2, 51296, Note_on_c, 0, 72, 36
2, 51309, Note_on_c, 0, 60, 32
2, 51318, Control_c, 0, 64, 0
2, 51414, Control_c, 0, 64, 127
2, 52131, Note_on_c, 0, 72, 0
2, 52189, Note_on_c, 0, 67, 0
2, 52214, Note_on_c, 0, 63, 0
2, 52489, Note_on_c, 0, 78, 36
2, 52499, Note_on_c, 0, 77, 81
2, 52563, Note_on_c, 0, 78, 0
2, 52730, Note_on_c, 0, 60, 0
2, 52835, Note_on_c, 0, 77, 0
2, 53001, Note_on_c, 0, 77, 67
2, 53011, Note_on_c, 0, 72, 54
2, 53017, Note_on_c, 0, 65, 41
2, 53017, Note_on_c, 0, 61, 31
2, 53027, Note_on_c, 0, 60, 44
2, 53046, Control_c, 0, 64, 0
2, 53168, Control_c, 0, 64, 127
2, 53321, Note_on_c, 0, 58, 51
2, 53328, Control_c, 0, 64, 0
2, 53369, Note_on_c, 0, 60, 0
2, 53398, Control_c, 0, 64, 127
2, 53475, Note_on_c, 0, 72, 0
2, 53558, Note_on_c, 0, 65, 0
2, 53593, Note_on_c, 0, 58, 0
2, 53609, Note_on_c, 0, 61, 0
2, 53702, Note_on_c, 0, 55, 47
2, 53705, Note_on_c, 0, 61, 39
2, 53811, Note_on_c, 0, 77, 0
2, 53820, Note_on_c, 0, 61, 0
2, 53836, Note_on_c, 0, 55, 0
2, 54240, Note_on_c, 0, 61, 34
2, 54240, Note_on_c, 0, 59, 43
2, 54243, Note_on_c, 0, 27, 40
2, 54246, Note_on_c, 0, 39, 31
2, 54256, Note_on_c, 0, 55, 17
2, 54272, Control_c, 0, 64, 0
2, 54361, Control_c, 0, 64, 127
2, 54409, Note_on_c, 0, 27, 0
2, 54464, Note_on_c, 0, 39, 0
2, 54496, Note_on_c, 0, 55, 0
2, 54506, Note_on_c, 0, 59, 0
2, 54598, Note_on_c, 0, 61, 0
2, 55366, Note_on_c, 0, 72, 46
2, 55379, Note_on_c, 0, 64, 55
2, 55385, Note_on_c, 0, 60, 59
2, 55385, Note_on_c, 0, 44, 44
2, 55389, Note_on_c, 0, 67, 40
2, 55395, Note_on_c, 0, 52, 37
2, 55427, Control_c, 0, 64, 0
2, 55581, Control_c, 0, 64, 127
2, 55696, Note_on_c, 0, 55, 60
2, 55728, Control_c, 0, 64, 0
2, 55785, Control_c, 0, 64, 127
2, 55862, Note_on_c, 0, 64, 0
2, 55907, Note_on_c, 0, 55, 0
2, 55955, Note_on_c, 0, 60, 0
2, 55991, Note_on_c, 0, 67, 0
2, 56009, Note_on_c, 0, 53, 50
2, 56019, Note_on_c, 0, 65, 53
2, 56025, Note_on_c, 0, 60, 48
2, 56041, Note_on_c, 0, 52, 0
2, 56051, Control_c, 0, 64, 0
2, 56269, Control_c, 0, 64, 127
2, 56323, Note_on_c, 0, 44, 0
2, 56505, Note_on_c, 0, 53, 0
2, 56637, Note_on_c, 0, 44, 32
2, 56637, Note_on_c, 0, 52, 47
2, 56704, Control_c, 0, 64, 0
2, 56736, Control_c, 0, 64, 127
2, 56797, Note_on_c, 0, 65, 0
2, 56822, Note_on_c, 0, 60, 0
2, 56844, Note_on_c, 0, 72, 0
2, 57021, Note_on_c, 0, 44, 0
2, 57088, Note_on_c, 0, 52, 0
2, 57104, Note_on_c, 0, 51, 42
2, 57104, Note_on_c, 0, 63, 35
2, 57107, Note_on_c, 0, 59, 46
2, 57113, Note_on_c, 0, 44, 37
2, 57126, Control_c, 0, 64, 0
2, 57296, Control_c, 0, 64, 127
2, 57549, Note_on_c, 0, 56, 56
2, 57603, Control_c, 0, 64, 0
2, 57648, Control_c, 0, 64, 127
2, 57843, Note_on_c, 0, 56, 0
2, 57853, Note_on_c, 0, 59, 0
2, 57901, Note_on_c, 0, 63, 0
2, 58064, Note_on_c, 0, 54, 37
2, 58067, Note_on_c, 0, 63, 30
2, 58070, Note_on_c, 0, 59, 38
2, 58115, Control_c, 0, 64, 0
2, 58294, Control_c, 0, 64, 127
2, 58406, Note_on_c, 0, 59, 0
2, 58438, Note_on_c, 0, 63, 0
2, 58617, Note_on_c, 0, 44, 0
2, 58829, Note_on_c, 0, 44, 31
2, 59309, Note_on_c, 0, 75, 74
2, 59517, Note_on_c, 0, 51, 0
2, 59523, Note_on_c, 0, 75, 0
2, 59523, Note_on_c, 0, 44, 0
2, 59539, Note_on_c, 0, 77, 79
2, 59562, Note_on_c, 0, 54, 0
2, 59741, Note_on_c, 0, 77, 0
2, 59865, Note_on_c, 0, 79, 78
2, 59875, Note_on_c, 0, 55, 49
2, 59885, Note_on_c, 0, 46, 32
2, 59888, Control_c, 0, 64, 0
2, 60022, Control_c, 0, 64, 127
2, 60071, Note_on_c, 0, 46, 0
2, 60112, Note_on_c, 0, 55, 0
2, 60320, Note_on_c, 0, 58, 34
2, 60704, Note_on_c, 0, 70, 28
2, 60710, Note_on_c, 0, 67, 26
2, 60723, Note_on_c, 0, 62, 24
2, 60726, Note_on_c, 0, 79, 0
2, 61024, Note_on_c, 0, 75, 69
2, 61034, Note_on_c, 0, 70, 0
2, 61526, Note_on_c, 0, 77, 62
2, 61555, Note_on_c, 0, 67, 0
2, 61574, Note_on_c, 0, 75, 0
2, 61584, Note_on_c, 0, 62, 0
2, 61590, Note_on_c, 0, 58, 0
2, 61904, Note_on_c, 0, 77, 0
2, 62025, Note_on_c, 0, 75, 51
2, 62029, Note_on_c, 0, 60, 48
2, 62077, Control_c, 0, 64, 0
2, 62173, Control_c, 0, 64, 127
2, 62361, Note_on_c, 0, 67, 45
2, 62371, Note_on_c, 0, 63, 32
2, 62639, Note_on_c, 0, 67, 0
2, 62678, Note_on_c, 0, 75, 0
2, 62698, Note_on_c, 0, 60, 0
2, 62733, Note_on_c, 0, 63, 0
2, 62742, Note_on_c, 0, 59, 37
2, 62790, Control_c, 0, 64, 0
2, 62877, Control_c, 0, 64, 127
2, 62937, Note_on_c, 0, 75, 1
2, 63177, Note_on_c, 0, 75, 0
2, 63203, Note_on_c, 0, 68, 21
2, 63209, Note_on_c, 0, 71, 34
2, 63216, Note_on_c, 0, 65, 20
2, 63516, Note_on_c, 0, 71, 0
2, 63616, Note_on_c, 0, 68, 0
2, 63629, Note_on_c, 0, 77, 62
2, 63840, Note_on_c, 0, 59, 0
2, 63933, Note_on_c, 0, 65, 0
2, 63939, Note_on_c, 0, 77, 0
2, 64240, Note_on_c, 0, 77, 57
2, 64262, Note_on_c, 0, 58, 37
2, 64265, Note_on_c, 0, 70, 58
2, 64272, Note_on_c, 0, 67, 36
2, 64278, Control_c, 0, 64, 0
2, 64349, Control_c, 0, 64, 127
2, 64499, Note_on_c, 0, 67, 0
2, 64502, Note_on_c, 0, 77, 0
2, 64540, Note_on_c, 0, 70, 0
2, 64547, Note_on_c, 0, 58, 0
2, 64713, Note_on_c, 0, 79, 63
2, 64729, Note_on_c, 0, 74, 66
2, 64736, Note_on_c, 0, 59, 54
2, 64742, Note_on_c, 0, 71, 53
2, 64749, Note_on_c, 0, 68, 26
2, 64758, Control_c, 0, 64, 0
2, 64848, Control_c, 0, 64, 127
2, 64983, Note_on_c, 0, 68, 0
2, 65049, Note_on_c, 0, 79, 0
2, 65069, Note_on_c, 0, 59, 0
2, 65075, Note_on_c, 0, 71, 0
2, 65078, Note_on_c, 0, 74, 0
2, 65328, Note_on_c, 0, 75, 46
2, 65344, Note_on_c, 0, 70, 37
2, 65357, Note_on_c, 0, 67, 33
2, 65363, Note_on_c, 0, 60, 36
2, 65369, Control_c, 0, 64, 0
2, 65472, Control_c, 0, 64, 127
2, 66032, Note_on_c, 0, 60, 0
2, 66115, Note_on_c, 0, 67, 0
2, 66160, Note_on_c, 0, 70, 0
2, 66301, Note_on_c, 0, 75, 0
2, 66713, Note_on_c, 0, 77, 48
2, 67385, Note_on_c, 0, 77, 0
2, 67523, Note_on_c, 0, 75, 46
2, 67533, Note_on_c, 0, 71, 38
2, 67542, Note_on_c, 0, 67, 29
2, 67545, Note_on_c, 0, 63, 25
2, 67549, Note_on_c, 0, 53, 35
2, 67577, Control_c, 0, 64, 0
2, 67693, Control_c, 0, 64, 127
2, 67865, Note_on_c, 0, 60, 30
2, 67926, Note_on_c, 0, 67, 0
2, 68109, Note_on_c, 0, 75, 0
2, 68320, Note_on_c, 0, 74, 48
2, 68323, Note_on_c, 0, 71, 0
2, 68403, Note_on_c, 0, 74, 0
2, 68512, Note_on_c, 0, 79, 50
2, 68656, Note_on_c, 0, 79, 0
2, 68678, Note_on_c, 0, 83, 61
2, 68832, Note_on_c, 0, 83, 0
2, 68861, Note_on_c, 0, 86, 84
2, 68889, Note_on_c, 0, 63, 0
2, 69050, Note_on_c, 0, 86, 0
2, 69056, Note_on_c, 0, 83, 57
2, 69245, Note_on_c, 0, 83, 0
2, 69299, Note_on_c, 0, 79, 37
2, 69302, Note_on_c, 0, 84, 60
2, 69305, Note_on_c, 0, 63, 21
2, 69328, Control_c, 0, 64, 0
2, 69398, Control_c, 0, 64, 127
2, 69613, Note_on_c, 0, 53, 0
2, 69645, Note_on_c, 0, 79, 0
2, 69753, Note_on_c, 0, 77, 24
2, 69760, Note_on_c, 0, 53, 37
2, 69769, Note_on_c, 0, 84, 0
2, 69775, Note_on_c, 0, 60, 0
2, 70934, Note_on_c, 0, 77, 0
2, 70953, Note_on_c, 0, 76, 14
2, 71183, Note_on_c, 0, 76, 0
2, 71379, Note_on_c, 0, 77, 64
2, 71430, Note_on_c, 0, 53, 0
2, 71481, Note_on_c, 0, 63, 0
2, 72381, Note_on_c, 0, 77, 0
2, 72435, Note_on_c, 0, 65, 50
2, 72697, Note_on_c, 0, 65, 69
2, 72819, Note_on_c, 0, 65, 0
2, 72921, Note_on_c, 0, 65, 0
2, 73378, Note_on_c, 0, 65, 40
2, 73762, Note_on_c, 0, 65, 0
2, 73817, Note_on_c, 0, 67, 55
2, 73817, Note_on_c, 0, 47, 32
2, 73824, Note_on_c, 0, 63, 38
2, 73827, Control_c, 0, 64, 0
2, 73872, Control_c, 0, 64, 127
2, 73977, Note_on_c, 0, 47, 0
2, 73983, Note_on_c, 0, 67, 0
2, 74045, Note_on_c, 0, 63, 0
2, 74269, Note_on_c, 0, 63, 42
2, 74285, Note_on_c, 0, 48, 35
2, 74291, Note_on_c, 0, 58, 31
2, 74301, Note_on_c, 0, 55, 24
2, 75017, Note_on_c, 0, 65, 39
2, 75283, Note_on_c, 0, 48, 0
2, 75407, Note_on_c, 0, 65, 0
2, 75533, Note_on_c, 0, 63, 0
2, 75536, Note_on_c, 0, 55, 0
2, 75609, Note_on_c, 0, 58, 0
2, 76147, Note_on_c, 0, 63, 34
2, 76151, Control_c, 0, 64, 0
2, 76163, Note_on_c, 0, 22, 30
2, 76163, Note_on_c, 0, 34, 25
2, 76166, Note_on_c, 0, 53, 24
2, 76173, Note_on_c, 0, 56, 29
2, 76176, Note_on_c, 0, 60, 34
2, 76185, Control_c, 0, 64, 0
2, 76297, Control_c, 0, 64, 127
2, 76371, Note_on_c, 0, 22, 0
2, 76377, Note_on_c, 0, 53, 0
2, 76390, Note_on_c, 0, 60, 0
2, 76416, Note_on_c, 0, 34, 0
2, 76429, Note_on_c, 0, 56, 0
2, 76521, Note_on_c, 0, 63, 0
2, 77005, Note_on_c, 0, 63, 31
2, 77011, Note_on_c, 0, 60, 31
2, 77024, Note_on_c, 0, 58, 25
2, 77446, Note_on_c, 0, 46, 46
2, 77642, Note_on_c, 0, 58, 0
2, 77795, Note_on_c, 0, 60, 0
2, 77869, Note_on_c, 0, 63, 0
2, 78092, Note_on_c, 0, 46, 0
2, 78116, Note_on_c, 0, 31, 60
2, 78217, Note_on_c, 0, 43, 40
2, 78345, Note_on_c, 0, 53, 25
2, 78348, Note_on_c, 0, 60, 28
2, 78373, Note_on_c, 0, 67, 48
2, 78393, Note_on_c, 0, 65, 51
2, 78393, Control_c, 0, 64, 0
2, 78396, Note_on_c, 0, 59, 28
2, 78500, Note_on_c, 0, 31, 0
2, 78524, Control_c, 0, 64, 127
2, 78601, Note_on_c, 0, 43, 0
2, 79154, Note_on_c, 0, 67, 0
2, 79266, Note_on_c, 0, 60, 0
2, 79266, Note_on_c, 0, 59, 0
2, 79267, Note_on_c, 0, 65, 0
2, 79635, Note_on_c, 0, 53, 0
2, 79868, Control_c, 0, 64, 0
2, 79872, Note_on_c, 0, 59, 41
2, 79872, Note_on_c, 0, 64, 35
2, 79872, Note_on_c, 0, 76, 64
2, 79872, Note_on_c, 0, 88, 70
2, 79872, Note_on_c, 0, 60, 34
2, 79936, Control_c, 0, 64, 127
2, 80196, Note_on_c, 0, 60, 0
2, 80196, Note_on_c, 0, 59, 0
2, 80236, Note_on_c, 0, 88, 0
2, 80240, Note_on_c, 0, 64, 0
2, 80288, Note_on_c, 0, 76, 0
2, 80872, Note_on_c, 0, 72, 83
2, 80872, Note_on_c, 0, 84, 88
2, 80876, Control_c, 0, 64, 0
2, 80880, Note_on_c, 0, 61, 44
2, 80884, Note_on_c, 0, 65, 63
2, 80884, Note_on_c, 0, 60, 55
2, 80888, Note_on_c, 0, 55, 57
2, 80952, Control_c, 0, 64, 127
2, 80992, Note_on_c, 0, 55, 0
2, 80992, Note_on_c, 0, 72, 0
2, 81004, Note_on_c, 0, 65, 0
2, 81008, Note_on_c, 0, 60, 0
2, 81020, Note_on_c, 0, 84, 0
2, 81048, Note_on_c, 0, 61, 0
2, 81116, Note_on_c, 0, 61, 44
2, 81120, Note_on_c, 0, 65, 64
2, 81124, Note_on_c, 0, 86, 82
2, 81124, Note_on_c, 0, 60, 53
2, 81128, Note_on_c, 0, 74, 82
2, 81132, Note_on_c, 0, 55, 64
2, 81244, Note_on_c, 0, 86, 0
2, 81260, Note_on_c, 0, 65, 0
2, 81264, Note_on_c, 0, 55, 0
2, 81276, Note_on_c, 0, 60, 0
2, 81280, Note_on_c, 0, 74, 0
2, 81300, Note_on_c, 0, 61, 0
2, 81384, Control_c, 0, 64, 0
2, 81408, Note_on_c, 0, 64, 57
2, 81409, System_exclusive, 8, 67, 115, 1, 17, 15, 89, 0, 247
2, 81412, Note_on_c, 0, 60, 51
2, 81412, Note_on_c, 0, 84, 64
2, 81412, Note_on_c, 0, 72, 63
2, 81420, Note_on_c, 0, 54, 37
2, 81548, Control_c, 0, 64, 127
2, 81772, Note_on_c, 0, 60, 0
2, 81872, Note_on_c, 0, 64, 0
2, 81884, Note_on_c, 0, 54, 0
2, 82104, Control_c, 0, 64, 0
2, 82140, Note_on_c, 0, 64, 31
2, 82148, Note_on_c, 0, 59, 35
2, 82156, Note_on_c, 0, 53, 29
2, 82224, Control_c, 0, 64, 127
2, 82508, Note_on_c, 0, 72, 0
2, 82528, Note_on_c, 0, 84, 0
2, 82596, Note_on_c, 0, 64, 0
2, 82612, Note_on_c, 0, 59, 0
2, 82612, Note_on_c, 0, 53, 0
2, 82776, Note_on_c, 0, 64, 42
2, 82776, Note_on_c, 0, 59, 57
2, 82788, Note_on_c, 0, 74, 74
2, 82792, Note_on_c, 0, 86, 75
2, 82808, Note_on_c, 0, 64, 0
2, 82812, Note_on_c, 0, 59, 0
2, 82816, Note_on_c, 0, 74, 0
2, 82824, Note_on_c, 0, 86, 0
2, 82880, Control_c, 0, 64, 0
2, 82896, Note_on_c, 0, 59, 43
2, 82896, Note_on_c, 0, 62, 63
2, 82900, Note_on_c, 0, 52, 45
2, 82912, Note_on_c, 0, 55, 54
2, 82912, Note_on_c, 0, 76, 60
2, 82920, Note_on_c, 0, 62, 0
2, 82924, Note_on_c, 0, 88, 50
2, 82928, Note_on_c, 0, 59, 0
2, 82932, Note_on_c, 0, 52, 0
2, 82936, Note_on_c, 0, 55, 0
2, 82936, Note_on_c, 0, 76, 0
2, 82948, Note_on_c, 0, 88, 0
2, 83288, Note_on_c, 0, 93, 87
2, 83292, Note_on_c, 0, 87, 80
2, 83292, Note_on_c, 0, 81, 83
2, 83300, Note_on_c, 0, 59, 53
2, 83304, Note_on_c, 0, 55, 55
2, 83304, Note_on_c, 0, 62, 72
2, 83308, Note_on_c, 0, 52, 62
2, 83440, Note_on_c, 0, 52, 0
2, 83468, Note_on_c, 0, 55, 0
2, 83480, Note_on_c, 0, 59, 0
2, 83484, Note_on_c, 0, 88, 44
2, 83492, Note_on_c, 0, 93, 0
2, 83500, Note_on_c, 0, 87, 0
2, 83516, Note_on_c, 0, 88, 0
2, 83516, Note_on_c, 0, 81, 0
2, 83580, Note_on_c, 0, 62, 0
2, 83700, Note_on_c, 0, 79, 74
2, 83704, Note_on_c, 0, 87, 59
2, 83704, Note_on_c, 0, 91, 68
2, 83708, Note_on_c, 0, 65, 51
2, 83712, Note_on_c, 0, 61, 51
2, 83712, Note_on_c, 0, 58, 39
2, 83712, Note_on_c, 0, 55, 45
2, 83904, Note_on_c, 0, 91, 0
2, 83908, Note_on_c, 0, 87, 0
2, 83924, Note_on_c, 0, 55, 0
2, 83928, Note_on_c, 0, 65, 0
2, 83928, Note_on_c, 0, 79, 0
2, 83932, Note_on_c, 0, 58, 0
2, 83940, Note_on_c, 0, 61, 0
2, 84296, Note_on_c, 0, 80, 75
2, 84300, Note_on_c, 0, 76, 80
2, 84300, Note_on_c, 0, 55, 70
2, 84304, Note_on_c, 0, 88, 72
2, 84304, Note_on_c, 0, 61, 63
2, 84312, Note_on_c, 0, 58, 48
2, 84312, Note_on_c, 0, 65, 66
2, 84324, Note_on_c, 0, 84, 48
2, 84416, Note_on_c, 0, 81, 64
2, 84420, Note_on_c, 0, 80, 0
2, 84444, Note_on_c, 0, 65, 0
2, 84444, Note_on_c, 0, 55, 0
2, 84452, Note_on_c, 0, 84, 0
2, 84456, Note_on_c, 0, 81, 0
2, 84456, Note_on_c, 0, 88, 0
2, 84464, Note_on_c, 0, 76, 0
2, 84492, Note_on_c, 0, 61, 0
2, 84524, Note_on_c, 0, 58, 0
2, 84568, Note_on_c, 0, 84, 64
2, 84572, Note_on_c, 0, 80, 52
2, 84576, Note_on_c, 0, 64, 51
2, 84576, Note_on_c, 0, 78, 46
2, 84576, Note_on_c, 0, 72, 51
2, 84580, Note_on_c, 0, 60, 49
2, 84580, Note_on_c, 0, 54, 47
2, 84708, Note_on_c, 0, 78, 0
2, 84724, Note_on_c, 0, 72, 0
2, 84732, Note_on_c, 0, 60, 0
2, 84736, Note_on_c, 0, 80, 0
2, 84740, Note_on_c, 0, 64, 0
2, 84744, Note_on_c, 0, 84, 0
2, 84748, Note_on_c, 0, 54, 0
2, 85092, Note_on_c, 0, 78, 46
2, 85092, Note_on_c, 0, 75, 46
2, 85092, Note_on_c, 0, 59, 67
2, 85096, Note_on_c, 0, 71, 46
2, 85100, Note_on_c, 0, 64, 60
2, 85100, Note_on_c, 0, 83, 43
2, 85104, Note_on_c, 0, 53, 62
2, 85104, Note_on_c, 0, 69, 44
2, 85128, Note_on_c, 0, 69, 0
2, 85184, Note_on_c, 0, 64, 0
2, 85188, Note_on_c, 0, 78, 0
2, 85188, Note_on_c, 0, 53, 0
2, 85192, Note_on_c, 0, 75, 0
2, 85204, Note_on_c, 0, 79, 36
2, 85212, Note_on_c, 0, 59, 0
2, 85216, Note_on_c, 0, 71, 0
2, 85232, Note_on_c, 0, 79, 0
2, 85244, Note_on_c, 0, 83, 0
2, 85360, Note_on_c, 0, 71, 62
2, 85384, Note_on_c, 0, 59, 54
2, 85416, Note_on_c, 0, 71, 0
2, 85448, Note_on_c, 0, 59, 0
2, 85592, Note_on_c, 0, 63, 50
2, 85604, Note_on_c, 0, 59, 48
2, 85608, Note_on_c, 0, 71, 50
2, 85616, Note_on_c, 0, 53, 34
2, 85628, Note_on_c, 0, 56, 33
2, 85636, Control_c, 0, 64, 127
2, 85724, Note_on_c, 0, 53, 0
2, 85724, Note_on_c, 0, 71, 0
2, 85772, Note_on_c, 0, 63, 0
2, 85776, Note_on_c, 0, 56, 0
2, 85800, Note_on_c, 0, 59, 0
2, 85860, Note_on_c, 0, 59, 16
2, 85860, Note_on_c, 0, 62, 34
2, 85860, Note_on_c, 0, 67, 43
2, 85868, Control_c, 0, 64, 0
2, 85884, Note_on_c, 0, 52, 32
2, 85892, Note_on_c, 0, 55, 36
2, 85976, Control_c, 0, 64, 127
2, 85996, Note_on_c, 0, 67, 0
2, 86060, Note_on_c, 0, 59, 0
2, 86064, Note_on_c, 0, 62, 0
2, 86088, Note_on_c, 0, 55, 0
2, 86968, Note_on_c, 0, 52, 0
2, 87004, Note_on_c, 0, 72, 80
2, 87008, Note_on_c, 0, 64, 88
2, 87008, Note_on_c, 0, 67, 77
2, 87008, Note_on_c, 0, 59, 72
2, 87016, Note_on_c, 0, 69, 62
2, 87040, Note_on_c, 0, 69, 0
2, 87064, Note_on_c, 0, 67, 0
2, 87072, Note_on_c, 0, 72, 0
2, 87080, Note_on_c, 0, 64, 0
2, 87144, Control_c, 0, 64, 0
2, 87148, Note_on_c, 0, 59, 0
2, 87184, Note_on_c, 0, 62, 49
2, 87188, Note_on_c, 0, 71, 30
2, 87208, Note_on_c, 0, 62, 0
2, 87224, Note_on_c, 0, 71, 0
2, 87420, Note_on_c, 0, 64, 55
2, 87420, Note_on_c, 0, 59, 53
2, 87428, Note_on_c, 0, 52, 59
2, 87444, Note_on_c, 0, 60, 36
2, 87456, Note_on_c, 0, 52, 0
2, 87468, Note_on_c, 0, 60, 0
2, 87476, Note_on_c, 0, 59, 0
2, 87480, Note_on_c, 0, 64, 0
2, 87708, Note_on_c, 0, 62, 47
2, 87712, Note_on_c, 0, 57, 53
2, 87712, Note_on_c, 0, 55, 31
2, 87724, Note_on_c, 0, 60, 36
2, 87728, Note_on_c, 0, 50, 30
2, 87860, Note_on_c, 0, 57, 0
2, 87872, Note_on_c, 0, 60, 0
2, 87872, Note_on_c, 0, 62, 0
2, 87872, Note_on_c, 0, 55, 0
2, 87884, Note_on_c, 0, 50, 0
2, 87952, Note_on_c, 0, 62, 49
2, 87960, Note_on_c, 0, 55, 44
2, 87964, Note_on_c, 0, 49, 27
2, 87968, Note_on_c, 0, 50, 38
2, 87968, Note_on_c, 0, 57, 51
2, 87992, Control_c, 0, 64, 127
2, 88000, Note_on_c, 0, 49, 0
2, 88128, Note_on_c, 0, 55, 0
2, 88132, Note_on_c, 0, 57, 0
2, 88136, Note_on_c, 0, 50, 0
2, 88164, Note_on_c, 0, 62, 0
2, 88192, Control_c, 0, 64, 0
2, 88224, Note_on_c, 0, 60, 44
2, 88228, Note_on_c, 0, 55, 50
2, 88232, Note_on_c, 0, 57, 36
2, 88236, Note_on_c, 0, 48, 38
2, 88324, Control_c, 0, 64, 127
2, 88500, Note_on_c, 0, 55, 0
2, 88508, Note_on_c, 0, 60, 0
2, 88524, Note_on_c, 0, 57, 0
2, 88560, Note_on_c, 0, 48, 0
2, 88684, Control_c, 0, 64, 0
2, 88716, Note_on_c, 0, 48, 69
2, 88740, Note_on_c, 0, 48, 0
2, 88780, Note_on_c, 0, 50, 27
2, 88804, Note_on_c, 0, 50, 0
2, 88820, Note_on_c, 0, 52, 40
2, 88844, Note_on_c, 0, 52, 0
2, 88864, Note_on_c, 0, 53, 48
2, 88888, Note_on_c, 0, 53, 0
2, 88904, Note_on_c, 0, 55, 53
2, 88928, Note_on_c, 0, 55, 0
2, 88948, Note_on_c, 0, 57, 44
2, 88972, Note_on_c, 0, 57, 0
2, 88988, Note_on_c, 0, 59, 44
2, 89012, Note_on_c, 0, 59, 0
2, 89032, Note_on_c, 0, 60, 50
2, 89056, Note_on_c, 0, 60, 0
2, 89072, Note_on_c, 0, 62, 43
2, 89096, Note_on_c, 0, 62, 0
2, 89120, Note_on_c, 0, 64, 48
2, 89144, Note_on_c, 0, 64, 0
2, 89172, Note_on_c, 0, 65, 44
2, 89200, Note_on_c, 0, 65, 0
2, 89216, Note_on_c, 0, 67, 39
2, 89240, Note_on_c, 0, 67, 0
2, 89272, Note_on_c, 0, 69, 45
2, 89296, Note_on_c, 0, 69, 0
2, 89320, Note_on_c, 0, 71, 41
2, 89348, Note_on_c, 0, 71, 0
2, 89368, Note_on_c, 0, 72, 46
2, 89392, Note_on_c, 0, 72, 0
2, 89408, Note_on_c, 0, 74, 47
2, 89432, Note_on_c, 0, 74, 0
2, 89444, Note_on_c, 0, 76, 64
2, 90180, Control_c, 0, 64, 127
2, 90180, Note_on_c, 0, 65, 61
2, 90188, Note_on_c, 0, 57, 48
2, 90196, Note_on_c, 0, 62, 40
2, 90312, Note_on_c, 0, 57, 0
2, 90364, Note_on_c, 0, 65, 0
2, 90388, Note_on_c, 0, 62, 0
2, 90448, Note_on_c, 0, 67, 82
2, 90448, Note_on_c, 0, 62, 70
2, 90452, Note_on_c, 0, 56, 80
2, 90464, Note_on_c, 0, 76, 0
2, 90476, Control_c, 0, 64, 0
2, 90632, Control_c, 0, 64, 127
2, 90784, Note_on_c, 0, 67, 0
2, 90792, Note_on_c, 0, 56, 0
2, 90804, Note_on_c, 0, 62, 0
2, 90852, Note_on_c, 0, 65, 78
2, 90852, Note_on_c, 0, 56, 62
2, 90860, Note_on_c, 0, 88, 87
2, 90860, Note_on_c, 0, 62, 68
2, 90868, Note_on_c, 0, 76, 87
2, 90944, Control_c, 0, 64, 0
2, 90980, Note_on_c, 0, 76, 0
2, 90992, Note_on_c, 0, 88, 0
2, 91036, Note_on_c, 0, 84, 55
2, 91100, Note_on_c, 0, 84, 0
2, 91112, Control_c, 0, 64, 127
2, 91188, Note_on_c, 0, 65, 0
2, 91188, Note_on_c, 0, 56, 0
2, 91228, Note_on_c, 0, 62, 0
2, 91256, Note_on_c, 0, 62, 36
2, 91260, Note_on_c, 0, 65, 64
2, 91260, Note_on_c, 0, 56, 60
2, 91260, Note_on_c, 0, 84, 71
2, 91272, Note_on_c, 0, 72, 64
2, 91324, Note_on_c, 0, 84, 0
2, 91332, Note_on_c, 0, 72, 0
2, 91332, Control_c, 0, 64, 0
2, 91356, Note_on_c, 0, 65, 0
2, 91364, Note_on_c, 0, 56, 0
2, 91376, Note_on_c, 0, 62, 0
2, 91412, Note_on_c, 0, 56, 34
2, 91420, Note_on_c, 0, 65, 47
2, 91436, Note_on_c, 0, 62, 42
2, 91440, Note_on_c, 0, 79, 51
2, 91552, Note_on_c, 0, 79, 0
2, 91560, Note_on_c, 0, 65, 0
2, 91568, Note_on_c, 0, 56, 0
2, 91572, Note_on_c, 0, 62, 0
2, 91628, Control_c, 0, 64, 127
2, 91648, Note_on_c, 0, 79, 74
2, 91656, Note_on_c, 0, 56, 64
2, 91664, Note_on_c, 0, 65, 60
2, 91664, Note_on_c, 0, 62, 43
2, 91668, Note_on_c, 0, 67, 46
2, 91720, Note_on_c, 0, 67, 0
2, 91732, Control_c, 0, 64, 0
2, 91736, Note_on_c, 0, 65, 0
2, 91760, Note_on_c, 0, 56, 0
2, 91776, Note_on_c, 0, 79, 0
2, 91788, Note_on_c, 0, 56, 21
2, 91800, Note_on_c, 0, 65, 48
2, 91800, Note_on_c, 0, 76, 47
2, 91880, Note_on_c, 0, 76, 0
2, 91880, Note_on_c, 0, 65, 0
2, 91888, Note_on_c, 0, 62, 0
2, 91916, Note_on_c, 0, 56, 0
2, 92000, Note_on_c, 0, 56, 44
2, 92000, Control_c, 0, 64, 127
2, 92024, Note_on_c, 0, 67, 57
2, 92028, Note_on_c, 0, 65, 27
2, 92052, Note_on_c, 0, 65, 0
2, 92052, Note_on_c, 0, 67, 0
2, 92088, Note_on_c, 0, 56, 0
2, 92108, Control_c, 0, 64, 0
2, 92140, Note_on_c, 0, 64, 55
2, 92148, Note_on_c, 0, 57, 48
2, 92156, Note_on_c, 0, 72, 47
2, 92184, Note_on_c, 0, 60, 26
2, 92544, Control_c, 0, 64, 127
2, 92612, Note_on_c, 0, 72, 0
2, 92736, Note_on_c, 0, 64, 0
2, 92768, Note_on_c, 0, 60, 0
2, 92788, Note_on_c, 0, 57, 0
2, 92876, Control_c, 0, 64, 0
2, 92912, Control_c, 0, 64, 127
2, 93164, Note_on_c, 0, 64, 63
2, 93164, Note_on_c, 0, 60, 62
2, 93168, Note_on_c, 0, 93, 83
2, 93168, Note_on_c, 0, 81, 80
2, 93168, Note_on_c, 0, 55, 55
2, 93192, Note_on_c, 0, 55, 0
2, 93192, Note_on_c, 0, 64, 0
2, 93192, Note_on_c, 0, 60, 0
2, 93200, Control_c, 0, 64, 0
2, 93212, Note_on_c, 0, 81, 0
2, 93216, Note_on_c, 0, 93, 0
2, 93312, Note_on_c, 0, 64, 57
2, 93312, Note_on_c, 0, 95, 71
2, 93320, Note_on_c, 0, 60, 37
2, 93328, Note_on_c, 0, 83, 35
2, 93336, Note_on_c, 0, 95, 0
2, 93340, Note_on_c, 0, 64, 0
2, 93348, Note_on_c, 0, 60, 0
2, 93356, Note_on_c, 0, 83, 0
2, 93552, Note_on_c, 0, 93, 74
2, 93556, Note_on_c, 0, 60, 62
2, 93556, Note_on_c, 0, 81, 66
2, 93556, Note_on_c, 0, 64, 71
2, 93564, Note_on_c, 0, 54, 53
2, 93564, Note_on_c, 0, 79, 31
2, 93592, Note_on_c, 0, 79, 0
2, 93608, Note_on_c, 0, 93, 0
2, 93608, Note_on_c, 0, 60, 0
2, 93612, Note_on_c, 0, 64, 0
2, 93612, Note_on_c, 0, 81, 0
2, 93620, Note_on_c, 0, 54, 0
2, 93920, Control_c, 0, 64, 127
2, 94000, Control_c, 0, 64, 0
2, 94076, Control_c, 0, 64, 127
2, 94132, Note_on_c, 0, 92, 30
2, 94164, Note_on_c, 0, 92, 0
2, 94316, Note_on_c, 0, 86, 80
2, 94316, Note_on_c, 0, 98, 87
2, 94320, Note_on_c, 0, 51, 82
2, 94324, Control_c, 0, 64, 0
2, 94324, Note_on_c, 0, 84, 53
2, 94324, Note_on_c, 0, 62, 87
2, 94328, Note_on_c, 0, 57, 77
2, 94332, Note_on_c, 0, 93, 59
2, 94332, Note_on_c, 0, 96, 47
2, 94392, Note_on_c, 0, 84, 0
2, 94412, Note_on_c, 0, 93, 0
2, 94420, Note_on_c, 0, 62, 0
2, 94420, Note_on_c, 0, 86, 0
2, 94428, Note_on_c, 0, 96, 0
2, 94432, Note_on_c, 0, 98, 0
2, 94440, Note_on_c, 0, 51, 0
2, 94440, Note_on_c, 0, 57, 0
2, 94524, Note_on_c, 0, 83, 77
2, 94528, Note_on_c, 0, 95, 71
2, 94532, Note_on_c, 0, 51, 73
2, 94532, Note_on_c, 0, 90, 54
2, 94536, Note_on_c, 0, 62, 72
2, 94536, Control_c, 0, 64, 127
2, 94536, Note_on_c, 0, 57, 70
2, 94676, Note_on_c, 0, 91, 38
2, 94684, Note_on_c, 0, 90, 0
2, 94712, Note_on_c, 0, 91, 0
2, 94724, Note_on_c, 0, 62, 0
2, 94724, Note_on_c, 0, 51, 0
2, 94724, Note_on_c, 0, 83, 0
2, 94732, Note_on_c, 0, 95, 0
2, 94748, Note_on_c, 0, 57, 0
2, 94776, Control_c, 0, 64, 0
2, 94816, Note_on_c, 0, 57, 55
2, 94820, Note_on_c, 0, 51, 61
2, 94820, Note_on_c, 0, 62, 57
2, 94832, Note_on_c, 0, 93, 42
2, 94832, Note_on_c, 0, 81, 50
2, 94836, Note_on_c, 0, 91, 44
2, 94848, Control_c, 0, 64, 127
2, 94952, Note_on_c, 0, 57, 0
2, 94972, Note_on_c, 0, 93, 0
2, 94984, Note_on_c, 0, 91, 0
2, 94992, Note_on_c, 0, 51, 0
2, 95000, Note_on_c, 0, 62, 0
2, 95004, Note_on_c, 0, 81, 0
2, 95104, Note_on_c, 0, 62, 70
2, 95108, Note_on_c, 0, 81, 63
2, 95108, Note_on_c, 0, 58, 52
2, 95112, Note_on_c, 0, 93, 61
2, 95112, Note_on_c, 0, 55, 57
2, 95124, Control_c, 0, 64, 0
2, 95128, Note_on_c, 0, 62, 0
2, 95132, Note_on_c, 0, 81, 0
2, 95136, Note_on_c, 0, 93, 0
2, 95144, Note_on_c, 0, 55, 0
2, 95152, Note_on_c, 0, 58, 0
2, 95472, Note_on_c, 0, 91, 68
2, 95476, Note_on_c, 0, 57, 66
2, 95476, Note_on_c, 0, 79, 68
2, 95480, Note_on_c, 0, 62, 67
2, 95480, Note_on_c, 0, 58, 51
2, 95488, Note_on_c, 0, 86, 53
2, 95492, Note_on_c, 0, 52, 57
2, 95516, Note_on_c, 0, 86, 0
2, 95540, Note_on_c, 0, 62, 0
2, 95544, Note_on_c, 0, 79, 0
2, 95544, Note_on_c, 0, 52, 0
2, 95548, Note_on_c, 0, 91, 0
2, 95548, Note_on_c, 0, 57, 0
2, 95556, Note_on_c, 0, 58, 0
2, 95856, Note_on_c, 0, 90, 72
2, 95860, Note_on_c, 0, 78, 65
2, 95860, Note_on_c, 0, 58, 58
2, 95860, Note_on_c, 0, 85, 71
2, 95864, Note_on_c, 0, 62, 73
2, 95864, Note_on_c, 0, 57, 68
2, 95876, Note_on_c, 0, 52, 59
2, 95988, Control_c, 0, 64, 127
2, 96200, Note_on_c, 0, 85, 0
2, 96212, Note_on_c, 0, 57, 0
2, 96212, Note_on_c, 0, 52, 0
2, 96220, Note_on_c, 0, 62, 0
2, 96224, Note_on_c, 0, 58, 0
2, 96228, Note_on_c, 0, 90, 0
2, 96232, Note_on_c, 0, 78, 0
2, 96360, Control_c, 0, 64, 0
2, 96388, Note_on_c, 0, 58, 59
2, 96392, Note_on_c, 0, 91, 64
2, 96396, Note_on_c, 0, 57, 54
2, 96396, Note_on_c, 0, 62, 64
2, 96400, Note_on_c, 0, 79, 60
2, 96404, Note_on_c, 0, 86, 64
2, 96408, Note_on_c, 0, 52, 40
2, 96436, Note_on_c, 0, 52, 0
2, 96436, Note_on_c, 0, 57, 0
2, 96460, Note_on_c, 0, 62, 0
2, 96460, Note_on_c, 0, 91, 0
2, 96468, Note_on_c, 0, 86, 0
2, 96476, Note_on_c, 0, 79, 0
2, 96480, Note_on_c, 0, 58, 0
2, 96488, Control_c, 0, 64, 127
2, 96712, Control_c, 0, 64, 0
2, 96756, Note_on_c, 0, 88, 68
2, 96756, Note_on_c, 0, 65, 64
2, 96756, Note_on_c, 0, 61, 48
2, 96760, Note_on_c, 0, 60, 45
2, 96764, Note_on_c, 0, 76, 58
2, 96772, Note_on_c, 0, 55, 55
2, 96784, Note_on_c, 0, 58, 30
2, 96792, Control_c, 0, 64, 127
2, 96828, Note_on_c, 0, 88, 0
2, 96832, Note_on_c, 0, 60, 0
2, 96832, Note_on_c, 0, 65, 0
2, 96840, Note_on_c, 0, 55, 0
2, 96844, Note_on_c, 0, 58, 0
2, 96844, Note_on_c, 0, 76, 0
2, 96860, Note_on_c, 0, 61, 0
2, 97016, Note_on_c, 0, 61, 77
2, 97020, Note_on_c, 0, 65, 80
2, 97024, Note_on_c, 0, 84, 101
2, 97028, Note_on_c, 0, 55, 75
2, 97116, Note_on_c, 0, 55, 0
2, 97116, Note_on_c, 0, 65, 0
2, 97136, Note_on_c, 0, 84, 0
2, 97152, Note_on_c, 0, 61, 0
2, 97152, Control_c, 0, 64, 0
2, 97236, Note_on_c, 0, 81, 62
2, 97360, Note_on_c, 0, 81, 0
2, 97400, Note_on_c, 0, 61, 65
2, 97408, Note_on_c, 0, 65, 54
2, 97408, Note_on_c, 0, 77, 72
2, 97412, Note_on_c, 0, 55, 58
2, 97444, Note_on_c, 0, 65, 0
2, 97452, Note_on_c, 0, 55, 0
2, 97512, Note_on_c, 0, 61, 0
2, 97524, Note_on_c, 0, 77, 0
2, 97576, Note_on_c, 0, 73, 42
2, 97704, Note_on_c, 0, 73, 0
2, 97776, Note_on_c, 0, 61, 71
2, 97780, Note_on_c, 0, 72, 78
2, 97784, Note_on_c, 0, 65, 75
2, 97788, Note_on_c, 0, 55, 71
2, 97808, Control_c, 0, 64, 127
2, 97848, Control_c, 0, 64, 0
2, 97860, Note_on_c, 0, 65, 0
2, 97900, Note_on_c, 0, 72, 0
2, 97960, Note_on_c, 0, 70, 38
2, 98012, Note_on_c, 0, 61, 0
2, 98032, Note_on_c, 0, 55, 0
2, 98140, Control_c, 0, 64, 127
2, 98148, Note_on_c, 0, 70, 0
2, 98168, Note_on_c, 0, 55, 55
2, 98180, Note_on_c, 0, 65, 55
2, 98200, Note_on_c, 0, 55, 0
2, 98208, Note_on_c, 0, 65, 0
2, 98272, Control_c, 0, 64, 0
2, 98524, Note_on_c, 0, 55, 68
2, 98544, Note_on_c, 0, 69, 79
2, 98548, Note_on_c, 0, 57, 68
2, 98548, Note_on_c, 0, 64, 78
2, 98552, Note_on_c, 0, 60, 62
2, 98560, Note_on_c, 0, 62, 59
2, 98580, Note_on_c, 0, 55, 0
2, 98584, Note_on_c, 0, 62, 0
2, 98624, Note_on_c, 0, 69, 0
2, 98632, Note_on_c, 0, 64, 0
2, 98632, Note_on_c, 0, 60, 0
2, 98640, Note_on_c, 0, 57, 0
2, 98740, Note_on_c, 0, 55, 62
2, 98740, Note_on_c, 0, 67, 58
2, 98744, Note_on_c, 0, 57, 51
2, 98752, Note_on_c, 0, 60, 42
2, 98752, Note_on_c, 0, 64, 43
2, 98860, Control_c, 0, 64, 127
2, 98872, Note_on_c, 0, 64, 0
2, 98900, Note_on_c, 0, 67, 0
2, 98904, Note_on_c, 0, 60, 0
2, 98904, Note_on_c, 0, 57, 0
2, 98916, Note_on_c, 0, 55, 0
2, 98972, Control_c, 0, 64, 0
2, 99044, Note_on_c, 0, 57, 53
2, 99048, Note_on_c, 0, 52, 38
2, 99048, Note_on_c, 0, 65, 42
2, 99052, Note_on_c, 0, 60, 58
2, 99056, Note_on_c, 0, 62, 48
2, 99056, Note_on_c, 0, 53, 53
2, 99076, Note_on_c, 0, 52, 0
2, 99144, Note_on_c, 0, 62, 0
2, 99160, Note_on_c, 0, 65, 0
2, 99168, Note_on_c, 0, 60, 0
2, 99192, Note_on_c, 0, 57, 0
2, 99192, Control_c, 0, 64, 127
2, 99200, Note_on_c, 0, 53, 0
2, 99296, Note_on_c, 0, 64, 68
2, 99308, Note_on_c, 0, 52, 54
2, 99312, Note_on_c, 0, 57, 62
2, 99312, Note_on_c, 0, 53, 54
2, 99316, Note_on_c, 0, 60, 51
2, 99356, Note_on_c, 0, 60, 0
2, 99376, Control_c, 0, 64, 0
2, 99400, Note_on_c, 0, 53, 0
2, 99404, Note_on_c, 0, 57, 0
2, 99424, Note_on_c, 0, 64, 0
2, 99452, Note_on_c, 0, 52, 0
2, 99456, Note_on_c, 0, 50, 42
2, 99464, Note_on_c, 0, 57, 24
2, 99556, Note_on_c, 0, 57, 0
2, 99648, Note_on_c, 0, 50, 0
2, 99688, Note_on_c, 0, 49, 50
2, 99812, Note_on_c, 0, 49, 0
2, 99812, Note_on_c, 0, 64, 66
2, 99816, Note_on_c, 0, 61, 67
2, 99820, Note_on_c, 0, 52, 71
2, 99824, Note_on_c, 0, 53, 45
2, 99972, Note_on_c, 0, 53, 0
2, 100008, Note_on_c, 0, 64, 0
2, 100012, Note_on_c, 0, 61, 0
2, 100040, Note_on_c, 0, 52, 0
2, 100072, Note_on_c, 0, 49, 47
2, 100160, Note_on_c, 0, 49, 0
2, 100172, Note_on_c, 0, 62, 58
2, 100176, Note_on_c, 0, 50, 58
2, 100192, Note_on_c, 0, 57, 54
2, 100200, Note_on_c, 0, 53, 42
2, 100216, Control_c, 0, 64, 127
2, 100280, Note_on_c, 0, 53, 0
2, 100292, Note_on_c, 0, 57, 0
2, 100356, Note_on_c, 0, 62, 0
2, 100440, Note_on_c, 0, 50, 0
2, 100444, Note_on_c, 0, 65, 71
2, 100448, Note_on_c, 0, 52, 66
2, 100456, Note_on_c, 0, 60, 50
2, 100456, Note_on_c, 0, 57, 62
2, 100496, Note_on_c, 0, 57, 0
2, 100516, Control_c, 0, 64, 0
2, 100524, Note_on_c, 0, 60, 0
2, 100524, Note_on_c, 0, 65, 0
2, 100576, Note_on_c, 0, 52, 0
2, 100600, Note_on_c, 0, 53, 46
2, 100604, Note_on_c, 0, 67, 43
2, 100608, Note_on_c, 0, 59, 36
2, 100636, Control_c, 0, 64, 127
2, 100680, Note_on_c, 0, 67, 0
2, 100684, Note_on_c, 0, 59, 0
2, 100808, Note_on_c, 0, 53, 0
2, 100848, Note_on_c, 0, 71, 39
2, 100852, Note_on_c, 0, 69, 37
2, 100856, Note_on_c, 0, 57, 38
2, 100860, Note_on_c, 0, 55, 42
2, 100880, Note_on_c, 0, 69, 0
2, 100884, Note_on_c, 0, 71, 0
2, 100892, Note_on_c, 0, 55, 0
2, 100892, Control_c, 0, 64, 0
2, 100944, Note_on_c, 0, 57, 0
2, 100960, Note_on_c, 0, 72, 58
2, 100976, Note_on_c, 0, 59, 48
2, 100992, Control_c, 0, 64, 127
2, 101028, Note_on_c, 0, 72, 0
2, 101132, Note_on_c, 0, 59, 0
2, 101216, Note_on_c, 0, 74, 78
2, 101220, Note_on_c, 0, 70, 72
2, 101224, Note_on_c, 0, 65, 68
2, 101224, Note_on_c, 0, 54, 51
2, 101232, Note_on_c, 0, 60, 59
2, 101244, Control_c, 0, 64, 0
2, 101336, Control_c, 0, 64, 127
2, 101344, Note_on_c, 0, 65, 0
2, 101384, Note_on_c, 0, 70, 0
2, 101404, Note_on_c, 0, 74, 0
2, 101436, Note_on_c, 0, 54, 0
2, 101452, Note_on_c, 0, 60, 0
2, 101596, Note_on_c, 0, 86, 74
2, 101600, Note_on_c, 0, 82, 62
2, 101604, Note_on_c, 0, 65, 71
2, 101608, Note_on_c, 0, 58, 50
2, 101612, Note_on_c, 0, 60, 57
2, 101612, Note_on_c, 0, 77, 44
2, 101616, Note_on_c, 0, 54, 47
2, 101620, Note_on_c, 0, 79, 51
2, 101644, Note_on_c, 0, 79, 0
2, 101660, Note_on_c, 0, 77, 0
2, 101660, Note_on_c, 0, 65, 0
2, 101668, Note_on_c, 0, 82, 0
2, 101680, Note_on_c, 0, 86, 0
2, 101680, Note_on_c, 0, 60, 0
2, 101684, Note_on_c, 0, 54, 0
2, 101696, Note_on_c, 0, 58, 0
2, 101696, Control_c, 0, 64, 0
2, 101744, Note_on_c, 0, 65, 58
2, 101752, Note_on_c, 0, 82, 57
2, 101752, Note_on_c, 0, 54, 38
2, 101756, Note_on_c, 0, 60, 38
2, 101760, Note_on_c, 0, 58, 36
2, 101772, Note_on_c, 0, 74, 40
2, 101816, Control_c, 0, 64, 127
2, 101908, Note_on_c, 0, 74, 0
2, 101908, Note_on_c, 0, 65, 0
2, 101912, Note_on_c, 0, 54, 0
2, 101920, Note_on_c, 0, 60, 0
2, 101940, Note_on_c, 0, 58, 0
2, 101948, Note_on_c, 0, 82, 0
2, 101988, Note_on_c, 0, 77, 66
2, 101988, Note_on_c, 0, 74, 50
2, 101996, Note_on_c, 0, 65, 58
2, 102000, Note_on_c, 0, 60, 45
2, 102004, Note_on_c, 0, 58, 35
2, 102004, Note_on_c, 0, 54, 46
2, 102012, Control_c, 0, 64, 0
2, 102084, Note_on_c, 0, 77, 0
2, 102096, Note_on_c, 0, 65, 0
2, 102104, Note_on_c, 0, 74, 0
2, 102104, Control_c, 0, 64, 127
2, 102112, Note_on_c, 0, 60, 0
2, 102152, Note_on_c, 0, 54, 0
2, 102156, Note_on_c, 0, 58, 0
2, 102352, Note_on_c, 0, 70, 62
2, 102360, Note_on_c, 0, 74, 57
2, 102364, Note_on_c, 0, 65, 58
2, 102368, Note_on_c, 0, 58, 48
2, 102376, Note_on_c, 0, 54, 38
2, 102376, Note_on_c, 0, 60, 48
2, 102404, Note_on_c, 0, 65, 0
2, 102412, Note_on_c, 0, 60, 0
2, 102424, Control_c, 0, 64, 0
2, 102432, Note_on_c, 0, 54, 0
2, 102440, Note_on_c, 0, 58, 0
2, 102464, Note_on_c, 0, 74, 0
2, 102488, Note_on_c, 0, 54, 40
2, 102492, Note_on_c, 0, 58, 33
2, 102500, Note_on_c, 0, 60, 36
2, 102520, Control_c, 0, 64, 127
2, 102524, Note_on_c, 0, 60, 0
2, 102544, Note_on_c, 0, 58, 0
2, 102568, Note_on_c, 0, 54, 0
2, 102580, Note_on_c, 0, 70, 0
2, 102736, Note_on_c, 0, 54, 82
2, 102740, Note_on_c, 0, 55, 88
2, 102744, Note_on_c, 0, 69, 76
2, 102744, Note_on_c, 0, 72, 72
2, 102748, Note_on_c, 0, 65, 60
2, 102768, Note_on_c, 0, 69, 0
2, 102772, Note_on_c, 0, 65, 0
2, 102784, Note_on_c, 0, 72, 0
2, 102804, Control_c, 0, 64, 0
2, 102832, Note_on_c, 0, 54, 0
2, 103108, Note_on_c, 0, 43, 88
2, 103440, Control_c, 0, 64, 127
2, 103548, Note_on_c, 0, 55, 0
2, 103548, Note_on_c, 0, 50, 45
2, 103576, Note_on_c, 0, 50, 0
2, 103584, Note_on_c, 0, 43, 0
2, 103608, Control_c, 0, 64, 0
2, 103648, Note_on_c, 0, 55, 62
2, 103888, Note_on_c, 0, 55, 0
2, 103904, Note_on_c, 0, 57, 68
2, 103968, Note_on_c, 0, 57, 0
2, 104040, Note_on_c, 0, 59, 57
2, 104280, Note_on_c, 0, 59, 0
2, 104292, Note_on_c, 0, 60, 58
2, 104372, Note_on_c, 0, 60, 0
2, 104452, Note_on_c, 0, 62, 56
2, 104532, Note_on_c, 0, 62, 0
2, 104672, Note_on_c, 0, 51, 59
2, 104676, Note_on_c, 0, 63, 67
2, 104776, Note_on_c, 0, 63, 0
2, 104804, Note_on_c, 0, 51, 0
2, 104816, Note_on_c, 0, 64, 57
2, 104820, Note_on_c, 0, 52, 57
2, 104828, Control_c, 0, 64, 127
2, 104884, Control_c, 0, 64, 0
2, 105104, Note_on_c, 0, 64, 0
2, 105132, Note_on_c, 0, 52, 0
2, 105176, Note_on_c, 0, 48, 40
2, 105180, Note_on_c, 0, 60, 50
2, 105184, Note_on_c, 0, 55, 24
2, 105332, Note_on_c, 0, 55, 0
2, 105376, Note_on_c, 0, 60, 0
2, 105396, Note_on_c, 0, 48, 0
2, 105544, Note_on_c, 0, 57, 69
2, 105548, Note_on_c, 0, 62, 58
2, 105552, Note_on_c, 0, 50, 54
2, 105584, Note_on_c, 0, 50, 0
2, 105672, Note_on_c, 0, 57, 0
2, 105712, Note_on_c, 0, 62, 0
2, 105712, Control_c, 0, 64, 127
2, 105880, Control_c, 0, 64, 0
2, 105944, Note_on_c, 0, 66, 40
2, 105948, Note_on_c, 0, 60, 46
2, 105948, Note_on_c, 0, 72, 50
2, 105948, Note_on_c, 0, 64, 59
2, 105952, Note_on_c, 0, 69, 48
2, 105956, Note_on_c, 0, 54, 42
2, 105980, Control_c, 0, 64, 127
2, 106048, Note_on_c, 0, 64, 0
2, 106092, Note_on_c, 0, 69, 0
2, 106092, Note_on_c, 0, 72, 0
2, 106096, Note_on_c, 0, 54, 0
2, 106112, Note_on_c, 0, 66, 0
2, 106120, Note_on_c, 0, 60, 0
2, 106216, Note_on_c, 0, 54, 55
2, 106220, Note_on_c, 0, 64, 60
2, 106220, Note_on_c, 0, 60, 50
2, 106220, Note_on_c, 0, 76, 74
2, 106220, Note_on_c, 0, 69, 78
2, 106264, Control_c, 0, 64, 0
2, 106272, Note_on_c, 0, 64, 0
2, 106304, Note_on_c, 0, 69, 0
2, 106324, Note_on_c, 0, 76, 0
2, 106344, Control_c, 0, 64, 127
2, 106348, Note_on_c, 0, 64, 53
2, 106404, Note_on_c, 0, 76, 44
2, 106476, Note_on_c, 0, 76, 0
2, 106476, Note_on_c, 0, 60, 0
2, 106500, Note_on_c, 0, 64, 0
2, 106544, Note_on_c, 0, 54, 0
2, 106592, Note_on_c, 0, 79, 65
2, 106592, Note_on_c, 0, 75, 63
2, 106596, Note_on_c, 0, 59, 70
2, 106596, Note_on_c, 0, 67, 59
2, 106600, Note_on_c, 0, 64, 68
2, 106604, Note_on_c, 0, 53, 64
2, 106608, Control_c, 0, 64, 0
2, 106672, Note_on_c, 0, 75, 0
2, 106672, Note_on_c, 0, 76, 62
2, 106692, Note_on_c, 0, 67, 0
2, 106728, Control_c, 0, 64, 127
2, 106736, Note_on_c, 0, 76, 0
2, 106748, Note_on_c, 0, 79, 0
2, 106784, Note_on_c, 0, 53, 0
2, 106796, Note_on_c, 0, 64, 0
2, 106832, Note_on_c, 0, 59, 0
2, 106960, Note_on_c, 0, 75, 69
2, 106964, Note_on_c, 0, 83, 66
2, 106968, Note_on_c, 0, 71, 70
2, 106972, Control_c, 0, 64, 0
2, 106972, Note_on_c, 0, 63, 79
2, 106976, Note_on_c, 0, 59, 66
2, 106984, Note_on_c, 0, 75, 0
2, 106988, Note_on_c, 0, 56, 45
2, 106988, Note_on_c, 0, 53, 61
2, 106992, Note_on_c, 0, 79, 44
2, 107100, Control_c, 0, 64, 127
2, 107244, Note_on_c, 0, 71, 0
2, 107260, Note_on_c, 0, 79, 0
2, 107284, Note_on_c, 0, 83, 0
2, 107308, Note_on_c, 0, 53, 0
2, 107340, Note_on_c, 0, 63, 0
2, 107436, Note_on_c, 0, 56, 0
2, 107480, Control_c, 0, 64, 0
2, 107484, Note_on_c, 0, 62, 50
2, 107500, Note_on_c, 0, 52, 48
2, 107500, Note_on_c, 0, 55, 51
2, 107504, Note_on_c, 0, 76, 45
2, 107508, Note_on_c, 0, 88, 39
2, 107512, Note_on_c, 0, 83, 39
2, 107564, Note_on_c, 0, 76, 0
2, 107564, Note_on_c, 0, 52, 0
2, 107564, Note_on_c, 0, 62, 0
2, 107584, Note_on_c, 0, 55, 0
2, 107592, Note_on_c, 0, 59, 0
2, 107592, Note_on_c, 0, 83, 0
2, 107608, Note_on_c, 0, 88, 0
2, 107892, Control_c, 0, 64, 127
2, 108208, Control_c, 0, 64, 0
2, 108264, Note_on_c, 0, 65, 60
2, 108264, Note_on_c, 0, 81, 49
2, 108268, Note_on_c, 0, 93, 50
2, 108268, Note_on_c, 0, 61, 56
2, 108272, Note_on_c, 0, 87, 46
2, 108276, Note_on_c, 0, 55, 49
2, 108276, Note_on_c, 0, 58, 42
2, 108324, Note_on_c, 0, 87, 0
2, 108336, Control_c, 0, 64, 127
2, 108340, Note_on_c, 0, 88, 47
2, 108388, Note_on_c, 0, 88, 0
2, 108388, Note_on_c, 0, 55, 0
2, 108396, Note_on_c, 0, 93, 0
2, 108400, Note_on_c, 0, 81, 0
2, 108412, Note_on_c, 0, 65, 0
2, 108424, Note_on_c, 0, 58, 0
2, 108452, Note_on_c, 0, 61, 0
2, 108532, Note_on_c, 0, 61, 52
2, 108536, Note_on_c, 0, 55, 55
2, 108540, Note_on_c, 0, 79, 65
2, 108540, Note_on_c, 0, 91, 63
2, 108544, Note_on_c, 0, 58, 37
2, 108544, Note_on_c, 0, 65, 42
2, 108564, Note_on_c, 0, 91, 0
2, 108568, Note_on_c, 0, 55, 0
2, 108572, Note_on_c, 0, 79, 0
2, 108576, Note_on_c, 0, 65, 0
2, 108580, Note_on_c, 0, 58, 0
2, 108604, Control_c, 0, 64, 0
2, 108608, Note_on_c, 0, 61, 0
2, 108664, Note_on_c, 0, 61, 55
2, 108668, Note_on_c, 0, 88, 70
2, 108668, Note_on_c, 0, 55, 50
2, 108672, Note_on_c, 0, 76, 62
2, 108676, Note_on_c, 0, 65, 50
2, 108676, Note_on_c, 0, 58, 42
2, 108708, Control_c, 0, 64, 127
2, 108788, Note_on_c, 0, 88, 0
2, 108800, Note_on_c, 0, 76, 0
2, 108812, Note_on_c, 0, 55, 0
2, 108824, Note_on_c, 0, 65, 0
2, 108884, Note_on_c, 0, 58, 0
2, 108884, Note_on_c, 0, 61, 0
2, 108904, Note_on_c, 0, 84, 76
2, 108908, Note_on_c, 0, 81, 66
2, 108908, Note_on_c, 0, 72, 72
2, 108928, Note_on_c, 0, 64, 71
2, 108928, Note_on_c, 0, 60, 64
2, 108932, Note_on_c, 0, 54, 60
2, 108944, Control_c, 0, 64, 0
2, 108956, Note_on_c, 0, 72, 0
2, 108988, Note_on_c, 0, 64, 0
2, 108992, Note_on_c, 0, 60, 0
2, 109008, Note_on_c, 0, 81, 0
2, 109016, Note_on_c, 0, 84, 0
2, 109032, Note_on_c, 0, 72, 64
2, 109056, Control_c, 0, 64, 127
2, 109084, Note_on_c, 0, 60, 32
2, 109092, Note_on_c, 0, 64, 42
2, 109096, Note_on_c, 0, 72, 0
2, 109100, Note_on_c, 0, 54, 0
2, 109100, Note_on_c, 0, 81, 43
2, 109136, Note_on_c, 0, 60, 0
2, 109152, Note_on_c, 0, 64, 0
2, 109164, Note_on_c, 0, 81, 0
2, 109164, Note_on_c, 0, 72, 58
2, 109192, Note_on_c, 0, 54, 36
2, 109204, Note_on_c, 0, 72, 0
2, 109208, Control_c, 0, 64, 0
2, 109216, Note_on_c, 0, 54, 0
2, 109700, Note_on_c, 0, 59, 72
2, 109704, Note_on_c, 0, 80, 71
2, 109708, Note_on_c, 0, 84, 84
2, 109708, Note_on_c, 0, 72, 81
2, 109708, Note_on_c, 0, 64, 69
2, 109720, Note_on_c, 0, 53, 64
2, 109728, Note_on_c, 0, 78, 33
2, 109752, Note_on_c, 0, 78, 0
2, 109796, Note_on_c, 0, 81, 58
2, 109808, Note_on_c, 0, 80, 0
2, 109820, Note_on_c, 0, 81, 0
2, 109824, Note_on_c, 0, 72, 0
2, 109832, Note_on_c, 0, 84, 0
2, 109840, Note_on_c, 0, 53, 0
2, 109840, Note_on_c, 0, 64, 0
2, 109880, Note_on_c, 0, 59, 0
2, 109928, Note_on_c, 0, 59, 53
2, 109928, Note_on_c, 0, 71, 67
2, 109932, Note_on_c, 0, 64, 45
2, 109936, Note_on_c, 0, 83, 48
2, 109936, Note_on_c, 0, 53, 48
2, 109940, Note_on_c, 0, 78, 49
2, 109996, Control_c, 0, 64, 127
2, 110040, Note_on_c, 0, 79, 55
2, 110044, Note_on_c, 0, 78, 0
2, 110044, Note_on_c, 0, 71, 0
2, 110056, Note_on_c, 0, 53, 0
2, 110064, Note_on_c, 0, 64, 0
2, 110064, Note_on_c, 0, 79, 0
2, 110068, Note_on_c, 0, 83, 0
2, 110116, Note_on_c, 0, 59, 0
2, 110124, Control_c, 0, 64, 0
2, 110196, Note_on_c, 0, 79, 66
2, 110196, Note_on_c, 0, 59, 55
2, 110200, Note_on_c, 0, 75, 59
2, 110200, Note_on_c, 0, 63, 55
2, 110204, Note_on_c, 0, 67, 48
2, 110212, Note_on_c, 0, 53, 41
2, 110232, Note_on_c, 0, 67, 0
2, 110232, Note_on_c, 0, 56, 23
2, 110260, Control_c, 0, 64, 127
2, 110304, Note_on_c, 0, 75, 0
2, 110320, Note_on_c, 0, 76, 35
2, 110364, Note_on_c, 0, 53, 0
2, 110388, Note_on_c, 0, 63, 0
2, 110392, Note_on_c, 0, 76, 0
2, 110400, Note_on_c, 0, 56, 0
2, 110404, Note_on_c, 0, 79, 0
2, 110448, Control_c, 0, 64, 0
2, 110452, Note_on_c, 0, 76, 61
2, 110460, Note_on_c, 0, 62, 52
2, 110472, Note_on_c, 0, 67, 48
2, 110480, Note_on_c, 0, 52, 36
2, 110484, Note_on_c, 0, 55, 44
2, 110612, Control_c, 0, 64, 127
2, 110732, Note_on_c, 0, 67, 0
2, 110744, Note_on_c, 0, 76, 0
2, 110784, Note_on_c, 0, 59, 0
2, 110792, Note_on_c, 0, 62, 0
2, 110948, Control_c, 0, 64, 0
2, 110980, Note_on_c, 0, 55, 0
2, 111012, Control_c, 0, 64, 127
2, 111276, Control_c, 0, 64, 0
2, 111332, Control_c, 0, 64, 127
2, 111600, Note_on_c, 0, 52, 0
2, 111684, Control_c, 0, 64, 0
2, 111692, Note_on_c, 0, 71, 77
2, 111692, Note_on_c, 0, 57, 66
2, 111700, Note_on_c, 0, 59, 72
2, 111704, Note_on_c, 0, 60, 71
2, 111704, Note_on_c, 0, 64, 71
2, 111708, Note_on_c, 0, 67, 53
2, 111720, Note_on_c, 0, 57, 0
2, 111728, Note_on_c, 0, 54, 36
2, 111788, Note_on_c, 0, 54, 0
2, 111876, Control_c, 0, 64, 127
2, 111908, Note_on_c, 0, 60, 0
2, 111912, Note_on_c, 0, 64, 0
2, 111924, Note_on_c, 0, 67, 0
2, 111928, Note_on_c, 0, 71, 0
2, 111960, Control_c, 0, 64, 0
2, 111984, Note_on_c, 0, 69, 75
2, 111988, Note_on_c, 0, 64, 71
2, 111992, Note_on_c, 0, 60, 66
2, 112000, Note_on_c, 0, 57, 72
2, 112016, Note_on_c, 0, 59, 0
2, 112088, Note_on_c, 0, 69, 0
2, 112096, Note_on_c, 0, 64, 0
2, 112104, Note_on_c, 0, 57, 0
2, 112120, Note_on_c, 0, 60, 0
2, 112240, Note_on_c, 0, 67, 67
2, 112240, Note_on_c, 0, 55, 60
2, 112260, Note_on_c, 0, 57, 49
2, 112260, Note_on_c, 0, 60, 50
2, 112260, Note_on_c, 0, 64, 43
2, 112280, Control_c, 0, 64, 127
2, 112300, Note_on_c, 0, 64, 0
2, 112324, Note_on_c, 0, 67, 0
2, 112324, Note_on_c, 0, 60, 0
2, 112328, Note_on_c, 0, 57, 0
2, 112344, Note_on_c, 0, 55, 0
2, 112460, Control_c, 0, 64, 0
2, 112504, Note_on_c, 0, 64, 44
2, 112508, Note_on_c, 0, 52, 45
2, 112520, Note_on_c, 0, 53, 22
2, 112540, Note_on_c, 0, 52, 0
2, 112580, Control_c, 0, 64, 127
2, 112604, Note_on_c, 0, 52, 13
2, 112620, Note_on_c, 0, 53, 0
2, 112640, Note_on_c, 0, 52, 0
2, 112656, Note_on_c, 0, 64, 0
2, 112744, Note_on_c, 0, 57, 59
2, 112744, Control_c, 0, 64, 0
2, 112752, Note_on_c, 0, 53, 57
2, 112752, Note_on_c, 0, 50, 58
2, 112752, Note_on_c, 0, 62, 63
2, 112928, Note_on_c, 0, 53, 0
2, 112940, Note_on_c, 0, 57, 0
2, 112956, Note_on_c, 0, 50, 0
2, 112968, Note_on_c, 0, 62, 0
2, 112992, Control_c, 0, 64, 127
2, 113012, Note_on_c, 0, 60, 55
2, 113020, Note_on_c, 0, 53, 38
2, 113036, Note_on_c, 0, 57, 19
2, 113040, Note_on_c, 0, 48, 45
2, 113120, Note_on_c, 0, 57, 0
2, 113120, Note_on_c, 0, 53, 0
2, 113152, Control_c, 0, 64, 0
2, 113160, Note_on_c, 0, 48, 0
2, 113164, Note_on_c, 0, 60, 0
2, 113224, Note_on_c, 0, 42, 67
2, 113240, Control_c, 0, 64, 127
2, 113364, Note_on_c, 0, 42, 0
2, 113480, Control_c, 0, 64, 0
2, 113508, Note_on_c, 0, 62, 61
2, 113512, Note_on_c, 0, 72, 62
2, 113512, Note_on_c, 0, 67, 66
2, 113516, Note_on_c, 0, 41, 70
2, 113532, Note_on_c, 0, 62, 0
2, 113540, Note_on_c, 0, 67, 0
2, 113544, Note_on_c, 0, 41, 0
2, 113572, Note_on_c, 0, 72, 0
2, 113720, Note_on_c, 0, 84, 89
2, 113888, Note_on_c, 0, 84, 0
2, 114012, Note_on_c, 0, 60, 36
2, 114016, Note_on_c, 0, 64, 24
2, 114020, Note_on_c, 0, 81, 82
2, 114020, Note_on_c, 0, 57, 40
2, 114040, Note_on_c, 0, 64, 0
2, 114064, Note_on_c, 0, 60, 0
2, 114072, Note_on_c, 0, 57, 0
2, 114208, Note_on_c, 0, 81, 0
2, 114292, Note_on_c, 0, 76, 75
2, 114388, Note_on_c, 0, 76, 0
2, 114464, Note_on_c, 0, 72, 36
2, 114596, Note_on_c, 0, 72, 0
2, 114660, Note_on_c, 0, 69, 62
2, 114664, Note_on_c, 0, 64, 36
2, 114664, Note_on_c, 0, 60, 34
2, 114668, Note_on_c, 0, 57, 38
2, 114692, Note_on_c, 0, 64, 0
2, 114740, Note_on_c, 0, 69, 0
2, 114748, Note_on_c, 0, 60, 0
2, 114792, Note_on_c, 0, 57, 0
2, 114816, Note_on_c, 0, 65, 31
2, 114988, Control_c, 0, 64, 127
2, 115016, Note_on_c, 0, 65, 0
2, 115072, Note_on_c, 0, 62, 35
2, 115076, Note_on_c, 0, 56, 35
2, 115084, Note_on_c, 0, 60, 35
2, 115100, Note_on_c, 0, 62, 0
2, 115116, Note_on_c, 0, 60, 0
2, 115140, Note_on_c, 0, 56, 0
2, 115144, Control_c, 0, 64, 0
2, 115188, Note_on_c, 0, 67, 51
2, 115276, Note_on_c, 0, 67, 0
2, 115284, Note_on_c, 0, 68, 39
2, 115372, Note_on_c, 0, 68, 0
2, 115372, Note_on_c, 0, 67, 38
2, 115456, Note_on_c, 0, 67, 0
2, 115472, Note_on_c, 0, 65, 49
2, 115500, Note_on_c, 0, 65, 0
2, 115568, Note_on_c, 0, 67, 95
2, 115808, Note_on_c, 0, 67, 0
2, 115808, Note_on_c, 0, 68, 68
2, 115888, Note_on_c, 0, 68, 0
2, 115888, Note_on_c, 0, 67, 54
2, 115964, Note_on_c, 0, 67, 0
2, 115976, Note_on_c, 0, 65, 36
2, 116136, Note_on_c, 0, 65, 0
2, 116204, Note_on_c, 0, 56, 30
2, 116208, Note_on_c, 0, 60, 72
2, 116208, Note_on_c, 0, 53, 45
2, 116232, Note_on_c, 0, 56, 0
2, 116240, Note_on_c, 0, 53, 0
2, 116316, Note_on_c, 0, 60, 0
2, 116344, Note_on_c, 0, 56, 54
2, 116456, Control_c, 0, 64, 127
2, 116556, Note_on_c, 0, 56, 0
2, 116568, Note_on_c, 0, 43, 54
2, 116612, Control_c, 0, 64, 0
2, 116688, Note_on_c, 0, 52, 48
2, 116708, Note_on_c, 0, 55, 62
2, 116720, Note_on_c, 0, 43, 0
2, 116720, Control_c, 0, 64, 127
2, 116744, Note_on_c, 0, 52, 0
2, 116768, Note_on_c, 0, 55, 0
2, 116968, Note_on_c, 0, 76, 94
2, 116972, Note_on_c, 0, 64, 63
2, 116980, Note_on_c, 0, 55, 33
2, 116984, Note_on_c, 0, 60, 36
2, 116996, Note_on_c, 0, 64, 0
2, 117008, Note_on_c, 0, 55, 0
2, 117012, Note_on_c, 0, 60, 0
2, 117024, Control_c, 0, 64, 0
2, 117112, Note_on_c, 0, 76, 0
2, 117124, Note_on_c, 0, 67, 32
2, 117296, Note_on_c, 0, 67, 0
2, 117376, Note_on_c, 0, 67, 41
2, 117408, Note_on_c, 0, 67, 0
2, 117484, Note_on_c, 0, 72, 75
2, 117708, Note_on_c, 0, 72, 0
2, 117748, Note_on_c, 0, 74, 74
2, 117840, Note_on_c, 0, 74, 0
2, 117844, Note_on_c, 0, 72, 52
2, 117880, Note_on_c, 0, 72, 0
2, 117916, Note_on_c, 0, 71, 25
2, 118100, Note_on_c, 0, 71, 0
2, 118136, Note_on_c, 0, 72, 70
2, 118144, Note_on_c, 0, 60, 58
2, 118148, Note_on_c, 0, 64, 48
2, 118176, Note_on_c, 0, 64, 0
2, 118180, Note_on_c, 0, 60, 0
2, 118280, Note_on_c, 0, 72, 0
2, 118412, Note_on_c, 0, 69, 43
2, 118536, Note_on_c, 0, 69, 0
2, 118612, Note_on_c, 0, 62, 45
2, 118644, Control_c, 0, 64, 127
2, 118800, Note_on_c, 0, 62, 0
2, 118936, Control_c, 0, 64, 0
2, 118988, Note_on_c, 0, 63, 46
2, 118988, Note_on_c, 0, 62, 52
2, 119000, Note_on_c, 0, 67, 76
2, 119008, Note_on_c, 0, 57, 70
2, 119212, Note_on_c, 0, 57, 0
2, 119224, Note_on_c, 0, 62, 0
2, 119232, Note_on_c, 0, 67, 0
2, 119236, Note_on_c, 0, 63, 0
2, 119392, Note_on_c, 0, 63, 52
2, 119392, Note_on_c, 0, 62, 48
2, 119396, Note_on_c, 0, 67, 72
2, 119416, Note_on_c, 0, 57, 41
2, 119456, Control_c, 0, 64, 127
2, 119572, Note_on_c, 0, 62, 0
2, 119604, Note_on_c, 0, 63, 0
2, 119604, Note_on_c, 0, 57, 0
2, 119616, Note_on_c, 0, 67, 0
2, 119712, Control_c, 0, 64, 0
2, 119780, Note_on_c, 0, 62, 55
2, 119780, Note_on_c, 0, 67, 59
2, 119792, Note_on_c, 0, 56, 45
2, 119948, Note_on_c, 0, 62, 0
2, 119980, Note_on_c, 0, 67, 0
2, 119988, Note_on_c, 0, 56, 0
2, 120052, Note_on_c, 0, 74, 127
2, 120176, Note_on_c, 0, 74, 0
2, 120232, Note_on_c, 0, 76, 92
2, 120368, Note_on_c, 0, 76, 0
2, 120444, Note_on_c, 0, 76, 91
2, 120472, Note_on_c, 0, 65, 65
2, 120476, Note_on_c, 0, 61, 47
2, 120480, Note_on_c, 0, 60, 45
2, 120496, Note_on_c, 0, 55, 30
2, 120508, Note_on_c, 0, 60, 0
2, 120520, Note_on_c, 0, 65, 0
2, 120528, Note_on_c, 0, 55, 0
2, 120544, Note_on_c, 0, 76, 0
2, 120556, Note_on_c, 0, 61, 0
2, 120676, Note_on_c, 0, 71, 72
2, 120744, Note_on_c, 0, 72, 73
2, 120752, Note_on_c, 0, 71, 0
2, 120872, Note_on_c, 0, 72, 0
2, 120872, Note_on_c, 0, 61, 33
2, 120896, Note_on_c, 0, 61, 0
2, 120940, Note_on_c, 0, 69, 74
2, 121008, Control_c, 0, 64, 127
2, 121152, Note_on_c, 0, 69, 0
2, 121180, Note_on_c, 0, 65, 74
2, 121188, Note_on_c, 0, 72, 74
2, 121192, Control_c, 0, 64, 0
2, 121192, Note_on_c, 0, 61, 52
2, 121196, Note_on_c, 0, 60, 54
2, 121204, Note_on_c, 0, 55, 39
2, 121216, Note_on_c, 0, 58, 26
2, 121236, Note_on_c, 0, 55, 0
2, 121256, Note_on_c, 0, 65, 0
2, 121272, Control_c, 0, 64, 127
2, 121284, Note_on_c, 0, 60, 0
2, 121292, Note_on_c, 0, 72, 0
2, 121320, Note_on_c, 0, 61, 0
2, 121332, Note_on_c, 0, 58, 0
2, 121564, Note_on_c, 0, 61, 69
2, 121572, Note_on_c, 0, 65, 69
2, 121572, Note_on_c, 0, 60, 68
2, 121576, Note_on_c, 0, 84, 81
2, 121580, Note_on_c, 0, 72, 58
2, 121592, Note_on_c, 0, 60, 0
2, 121596, Note_on_c, 0, 65, 0
2, 121604, Note_on_c, 0, 72, 0
2, 121620, Note_on_c, 0, 61, 0
2, 121628, Note_on_c, 0, 84, 0
2, 121660, Control_c, 0, 64, 0
2, 121700, Control_c, 0, 64, 127
2, 121708, Note_on_c, 0, 89, 85
2, 121708, Note_on_c, 0, 61, 67
2, 121712, Note_on_c, 0, 65, 80
2, 121712, Note_on_c, 0, 60, 71
2, 121712, Note_on_c, 0, 77, 82
2, 121720, Note_on_c, 0, 55, 73
2, 121728, Note_on_c, 0, 58, 39
2, 121840, Note_on_c, 0, 77, 0
2, 121856, Note_on_c, 0, 55, 0
2, 121868, Note_on_c, 0, 60, 0
2, 121868, Note_on_c, 0, 65, 0
2, 121876, Note_on_c, 0, 89, 0
2, 121876, Note_on_c, 0, 58, 0
2, 121880, Note_on_c, 0, 61, 0
2, 121960, Note_on_c, 0, 61, 74
2, 121964, Control_c, 0, 64, 0
2, 121964, Note_on_c, 0, 65, 82
2, 121964, Note_on_c, 0, 55, 73
2, 121964, Note_on_c, 0, 60, 74
2, 121968, Note_on_c, 0, 81, 91
2, 121968, Note_on_c, 0, 93, 89
2, 121980, Note_on_c, 0, 58, 37
2, 122056, Control_c, 0, 64, 127
2, 122084, Note_on_c, 0, 81, 0
2, 122096, Note_on_c, 0, 93, 0
2, 122140, Note_on_c, 0, 65, 0
2, 122144, Note_on_c, 0, 55, 0
2, 122164, Note_on_c, 0, 60, 0
2, 122176, Note_on_c, 0, 58, 0
2, 122184, Note_on_c, 0, 61, 0
2, 122328, Note_on_c, 0, 61, 62
2, 122332, Note_on_c, 0, 60, 54
2, 122344, Note_on_c, 0, 96, 61
2, 122348, Note_on_c, 0, 65, 33
2, 122360, Note_on_c, 0, 60, 0
2, 122368, Note_on_c, 0, 96, 0
2, 122376, Note_on_c, 0, 65, 0
2, 122388, Note_on_c, 0, 61, 0
2, 122416, Control_c, 0, 64, 0
2, 122464, Note_on_c, 0, 87, 74
2, 122464, Note_on_c, 0, 61, 60
2, 122472, Note_on_c, 0, 99, 60
2, 122472, Note_on_c, 0, 65, 75
2, 122480, Note_on_c, 0, 55, 66
2, 122484, Note_on_c, 0, 58, 33
2, 122492, Control_c, 0, 64, 127
2, 122620, Note_on_c, 0, 55, 0
2, 122620, Note_on_c, 0, 65, 0
2, 122636, Note_on_c, 0, 99, 0
2, 122656, Note_on_c, 0, 87, 0
2, 122656, Note_on_c, 0, 58, 0
2, 122688, Note_on_c, 0, 61, 0
2, 122728, Note_on_c, 0, 64, 66
2, 122728, Note_on_c, 0, 60, 70
2, 122732, Note_on_c, 0, 86, 66
2, 122736, Note_on_c, 0, 98, 63
2, 122736, Note_on_c, 0, 54, 62
2, 122748, Control_c, 0, 64, 0
2, 122756, Note_on_c, 0, 93, 41
2, 122868, Control_c, 0, 64, 127
2, 123044, Note_on_c, 0, 98, 0
2, 123060, Note_on_c, 0, 86, 0
2, 123072, Note_on_c, 0, 93, 0
2, 123096, Note_on_c, 0, 64, 0
2, 123096, Note_on_c, 0, 54, 0
2, 123100, Note_on_c, 0, 60, 0
2, 123236, Control_c, 0, 64, 0
2, 123244, Note_on_c, 0, 64, 60
2, 123244, Note_on_c, 0, 99, 50
2, 123244, Note_on_c, 0, 87, 56
2, 123248, Note_on_c, 0, 54, 59
2, 123248, Note_on_c, 0, 60, 58
2, 123272, Note_on_c, 0, 93, 33
2, 123372, Note_on_c, 0, 99, 0
2, 123396, Note_on_c, 0, 88, 49
2, 123400, Note_on_c, 0, 87, 0
2, 123404, Note_on_c, 0, 64, 0
2, 123408, Note_on_c, 0, 54, 0
2, 123416, Note_on_c, 0, 60, 0
2, 123428, Note_on_c, 0, 88, 0
2, 123444, Note_on_c, 0, 93, 0
2, 123612, Note_on_c, 0, 84, 61
2, 123616, Note_on_c, 0, 92, 45
2, 123620, Note_on_c, 0, 96, 40
2, 123624, Note_on_c, 0, 54, 55
2, 123628, Note_on_c, 0, 64, 53
2, 123628, Note_on_c, 0, 60, 51
2, 123628, Control_c, 0, 64, 127
2, 123796, Note_on_c, 0, 96, 0
2, 123808, Note_on_c, 0, 84, 0
2, 123808, Note_on_c, 0, 92, 0
2, 123812, Note_on_c, 0, 60, 0
2, 123840, Note_on_c, 0, 64, 0
2, 123844, Note_on_c, 0, 54, 0
2, 123968, Control_c, 0, 64, 0
2, 124016, Note_on_c, 0, 92, 46
2, 124016, Note_on_c, 0, 80, 51
2, 124024, Note_on_c, 0, 64, 57
2, 124024, Note_on_c, 0, 54, 53
2, 124028, Note_on_c, 0, 60, 52
2, 124040, Note_on_c, 0, 86, 42
2, 124064, Note_on_c, 0, 89, 33
2, 124096, Note_on_c, 0, 92, 0
2, 124140, Note_on_c, 0, 80, 0
2, 124180, Note_on_c, 0, 86, 0
2, 124180, Note_on_c, 0, 89, 0
2, 124200, Note_on_c, 0, 54, 0
2, 124200, Control_c, 0, 64, 127
2, 124212, Note_on_c, 0, 60, 0
2, 124248, Note_on_c, 0, 64, 0
2, 124320, Control_c, 0, 64, 0
2, 124388, Note_on_c, 0, 65, 64
2, 124392, Note_on_c, 0, 60, 53
2, 124392, Note_on_c, 0, 92, 64
2, 124392, Note_on_c, 0, 55, 57
2, 124400, Note_on_c, 0, 96, 65
2, 124400, Note_on_c, 0, 84, 67
2, 124404, Note_on_c, 0, 57, 41
2, 124412, Note_on_c, 0, 90, 37
2, 124440, Note_on_c, 0, 90, 0
2, 124468, Note_on_c, 0, 65, 0
2, 124492, Note_on_c, 0, 60, 0
2, 124508, Note_on_c, 0, 57, 0
2, 124516, Note_on_c, 0, 55, 0
2, 124544, Note_on_c, 0, 96, 0
2, 124552, Note_on_c, 0, 92, 0
2, 124552, Note_on_c, 0, 93, 63
2, 124568, Note_on_c, 0, 84, 0
2, 124576, Note_on_c, 0, 93, 0
2, 124656, Note_on_c, 0, 55, 88
2, 124660, Note_on_c, 0, 43, 85
2, 124988, Control_c, 0, 64, 127
2, 125084, Note_on_c, 0, 50, 52
2, 125108, Control_c, 0, 64, 0
2, 125136, Note_on_c, 0, 43, 0
2, 125156, Note_on_c, 0, 50, 0
2, 125172, Note_on_c, 0, 55, 0
2, 125176, Note_on_c, 0, 72, 64
2, 125184, Note_on_c, 0, 60, 62
2, 125184, Note_on_c, 0, 69, 53
2, 125188, Note_on_c, 0, 65, 55
2, 125384, Note_on_c, 0, 60, 0
2, 125400, Note_on_c, 0, 65, 0
2, 125404, Note_on_c, 0, 69, 0
2, 125412, Note_on_c, 0, 72, 0
2, 125436, Note_on_c, 0, 54, 76
2, 125436, Note_on_c, 0, 55, 94
2, 125580, Note_on_c, 0, 54, 0
2, 125816, Note_on_c, 0, 54, 42
2, 125828, Control_c, 0, 64, 127
2, 125840, Note_on_c, 0, 54, 0
2, 125860, Control_c, 0, 64, 0
2, 125944, Note_on_c, 0, 72, 105
2, 126096, Note_on_c, 0, 72, 0
2, 126356, Note_on_c, 0, 70, 83
2, 126500, Note_on_c, 0, 70, 0
2, 126604, Note_on_c, 0, 72, 85
2, 126636, Note_on_c, 0, 55, 0
2, 126680, Note_on_c, 0, 72, 0
2, 126772, Note_on_c, 0, 66, 60
2, 126824, Note_on_c, 0, 67, 50
2, 126852, Note_on_c, 0, 66, 0
2, 126936, Note_on_c, 0, 67, 0
2, 127004, Note_on_c, 0, 60, 52
2, 127064, Note_on_c, 0, 60, 0
2, 127136, Note_on_c, 0, 63, 50
2, 127276, Note_on_c, 0, 63, 0
2, 127348, Note_on_c, 0, 65, 83
2, 127428, Note_on_c, 0, 65, 0
2, 127512, Note_on_c, 0, 63, 54
2, 127668, Note_on_c, 0, 63, 0
2, 127728, Note_on_c, 0, 55, 62
2, 127772, Note_on_c, 0, 55, 0
2, 127840, Note_on_c, 0, 60, 79
2, 128060, Note_on_c, 0, 60, 0
2, 128221, Note_on_c, 0, 75, 80
2, 128389, Note_on_c, 0, 75, 0
2, 128467, Note_on_c, 0, 74, 77
2, 128557, Note_on_c, 0, 74, 0
2, 128620, Note_on_c, 0, 72, 46
2, 128821, Note_on_c, 0, 72, 0
2, 128868, Note_on_c, 0, 67, 63
2, 128956, Note_on_c, 0, 67, 0
2, 129000, Note_on_c, 0, 65, 65
2, 129186, Note_on_c, 0, 65, 0
2, 129264, Note_on_c, 0, 60, 43
2, 129309, Note_on_c, 0, 60, 0
2, 129355, Note_on_c, 0, 63, 62
2, 129420, Note_on_c, 0, 64, 69
2, 129449, Note_on_c, 0, 63, 0
2, 129703, Note_on_c, 0, 64, 0
2, 129736, Note_on_c, 0, 61, 48
2, 129740, Note_on_c, 0, 65, 61
2, 129740, Note_on_c, 0, 60, 62
2, 129744, Note_on_c, 0, 55, 55
2, 129776, Note_on_c, 0, 60, 44
2, 129808, Note_on_c, 0, 65, 0
2, 129812, Note_on_c, 0, 60, 0
2, 129840, Note_on_c, 0, 61, 0
2, 129840, Note_on_c, 0, 55, 0
2, 129964, Note_on_c, 0, 60, 0
2, 130392, Note_on_c, 0, 60, 46
2, 130396, Note_on_c, 0, 64, 48
2, 130412, Note_on_c, 0, 54, 26
2, 130432, Note_on_c, 0, 64, 0
2, 130436, Note_on_c, 0, 60, 0
2, 130448, Note_on_c, 0, 54, 0
2, 130800, Note_on_c, 0, 84, 105
2, 130880, Note_on_c, 0, 84, 0
2, 131076, Note_on_c, 0, 81, 45
2, 131112, Note_on_c, 0, 81, 0
2, 131184, Note_on_c, 0, 84, 101
2, 131192, Note_on_c, 0, 59, 60
2, 131192, Note_on_c, 0, 64, 61
2, 131208, Note_on_c, 0, 53, 55
2, 131256, Note_on_c, 0, 64, 0
2, 131276, Note_on_c, 0, 53, 0
2, 131280, Note_on_c, 0, 84, 0
2, 131288, Note_on_c, 0, 59, 0
2, 131324, Note_on_c, 0, 53, 32
2, 131328, Note_on_c, 0, 83, 85
2, 131332, Note_on_c, 0, 64, 45
2, 131332, Note_on_c, 0, 59, 53
2, 131332, Control_c, 0, 64, 127
2, 131460, Note_on_c, 0, 53, 0
2, 131476, Note_on_c, 0, 64, 0
2, 131488, Note_on_c, 0, 59, 0
2, 131520, Note_on_c, 0, 83, 0
2, 131556, Note_on_c, 0, 81, 90
2, 131560, Note_on_c, 0, 53, 65
2, 131560, Note_on_c, 0, 59, 59
2, 131564, Note_on_c, 0, 64, 65
2, 131624, Note_on_c, 0, 64, 0
2, 131632, Note_on_c, 0, 53, 0
2, 131656, Note_on_c, 0, 59, 0
2, 131668, Note_on_c, 0, 81, 0
2, 131672, Control_c, 0, 64, 0
2, 131696, Note_on_c, 0, 59, 48
2, 131696, Note_on_c, 0, 53, 55
2, 131700, Note_on_c, 0, 64, 34
2, 131704, Note_on_c, 0, 79, 71
2, 131712, Control_c, 0, 64, 127
2, 131752, Note_on_c, 0, 64, 0
2, 131804, Note_on_c, 0, 59, 0
2, 131840, Note_on_c, 0, 79, 0
2, 131916, Note_on_c, 0, 59, 40
2, 131928, Note_on_c, 0, 77, 71
2, 131944, Note_on_c, 0, 53, 0
2, 131980, Note_on_c, 0, 77, 0
2, 132004, Note_on_c, 0, 59, 0
2, 132048, Note_on_c, 0, 62, 43
2, 132052, Note_on_c, 0, 59, 18
2, 132052, Note_on_c, 0, 52, 33
2, 132052, Control_c, 0, 64, 0
2, 132060, Note_on_c, 0, 76, 62
2, 132068, Note_on_c, 0, 55, 41
2, 132116, Note_on_c, 0, 76, 0
2, 132160, Note_on_c, 0, 59, 0
2, 132176, Note_on_c, 0, 62, 0
2, 132188, Note_on_c, 0, 77, 68
2, 132248, Note_on_c, 0, 77, 0
2, 132272, Note_on_c, 0, 55, 0
2, 132308, Note_on_c, 0, 79, 81
2, 132312, Note_on_c, 0, 59, 54
2, 132316, Note_on_c, 0, 62, 41
2, 132320, Control_c, 0, 64, 127
2, 132356, Note_on_c, 0, 62, 0
2, 132368, Note_on_c, 0, 59, 0
2, 132380, Note_on_c, 0, 79, 0
2, 132412, Control_c, 0, 64, 0
2, 132456, Note_on_c, 0, 72, 65
2, 132464, Note_on_c, 0, 62, 35
2, 132512, Control_c, 0, 64, 127
2, 132560, Note_on_c, 0, 52, 0
2, 132596, Note_on_c, 0, 62, 0
2, 132608, Control_c, 0, 64, 0
2, 132616, Note_on_c, 0, 72, 0
2, 132636, Control_c, 0, 64, 127
2, 132704, Note_on_c, 0, 55, 71
2, 132712, Note_on_c, 0, 61, 62
2, 132716, Note_on_c, 0, 72, 80
2, 132716, Note_on_c, 0, 65, 64
2, 132808, Control_c, 0, 64, 0
2, 132956, Control_c, 0, 64, 127
2, 133140, Note_on_c, 0, 65, 0
2, 133192, Note_on_c, 0, 55, 0
2, 133200, Note_on_c, 0, 61, 0
2, 133412, Note_on_c, 0, 72, 0
2, 133524, Note_on_c, 0, 64, 54
2, 133528, Note_on_c, 0, 54, 37
2, 133528, Note_on_c, 0, 60, 50
2, 133548, Note_on_c, 0, 64, 0
2, 133556, Note_on_c, 0, 60, 0
2, 133584, Note_on_c, 0, 54, 0
2, 133604, Control_c, 0, 64, 0
2, 133628, Note_on_c, 0, 75, 91
2, 133628, Note_on_c, 0, 81, 84
2, 133736, Note_on_c, 0, 81, 0
2, 133756, Note_on_c, 0, 75, 0
2, 133768, Note_on_c, 0, 72, 30
2, 133792, Note_on_c, 0, 72, 0
2, 133880, Note_on_c, 0, 74, 89
2, 133880, Note_on_c, 0, 81, 79
2, 133880, Note_on_c, 0, 64, 54
2, 133888, Note_on_c, 0, 54, 37
2, 133888, Note_on_c, 0, 60, 43
2, 133988, Note_on_c, 0, 81, 0
2, 134000, Note_on_c, 0, 74, 0
2, 134032, Note_on_c, 0, 72, 57
2, 134040, Note_on_c, 0, 60, 0
2, 134072, Note_on_c, 0, 64, 0
2, 134084, Note_on_c, 0, 72, 0
2, 134152, Note_on_c, 0, 70, 59
2, 134156, Note_on_c, 0, 54, 0
2, 134276, Note_on_c, 0, 70, 0
2, 134276, Note_on_c, 0, 67, 64
2, 134336, Note_on_c, 0, 67, 0
2, 134340, Control_c, 0, 64, 127
2, 134348, Control_c, 0, 64, 0
2, 134404, Note_on_c, 0, 66, 68
2, 134412, Note_on_c, 0, 55, 68
2, 134416, Note_on_c, 0, 54, 40
2, 134424, Note_on_c, 0, 74, 40
2, 134424, Note_on_c, 0, 72, 41
2, 134444, Note_on_c, 0, 54, 0
2, 134448, Note_on_c, 0, 74, 0
2, 134488, Note_on_c, 0, 72, 0
2, 134500, Note_on_c, 0, 66, 0
2, 134512, Note_on_c, 0, 62, 33
2, 134544, Note_on_c, 0, 62, 0
2, 134632, Note_on_c, 0, 65, 79
2, 134636, Note_on_c, 0, 72, 70
2, 134692, Note_on_c, 0, 72, 0
2, 134744, Note_on_c, 0, 65, 0
2, 134768, Note_on_c, 0, 60, 52
2, 134824, Note_on_c, 0, 60, 0
2, 134876, Note_on_c, 0, 63, 55
2, 134900, Note_on_c, 0, 55, 0
2, 134936, Note_on_c, 0, 63, 0
2, 135000, Note_on_c, 0, 64, 78
2, 135084, Note_on_c, 0, 64, 0
2, 135120, Note_on_c, 0, 62, 36
2, 135124, Note_on_c, 0, 65, 66
2, 135152, Note_on_c, 0, 55, 31
2, 135156, Note_on_c, 0, 62, 0
2, 135192, Note_on_c, 0, 55, 0
2, 135212, Note_on_c, 0, 65, 0
2, 135260, Note_on_c, 0, 67, 81
2, 135340, Note_on_c, 0, 67, 0
2, 135388, Note_on_c, 0, 64, 71
2, 135456, Note_on_c, 0, 64, 0
2, 135540, Note_on_c, 0, 55, 24
2, 135568, Note_on_c, 0, 55, 0
2, 135676, Note_on_c, 0, 59, 24
2, 135720, Note_on_c, 0, 59, 0
2, 135800, Note_on_c, 0, 62, 85
2, 135908, Note_on_c, 0, 62, 0
2, 135924, Note_on_c, 0, 59, 58
2, 136048, Note_on_c, 0, 59, 0
2, 136064, Note_on_c, 0, 60, 75
2, 136152, Note_on_c, 0, 60, 0
2, 136172, Note_on_c, 0, 55, 72
2, 136276, Note_on_c, 0, 55, 0
2, 136312, Note_on_c, 0, 55, 78
2, 136496, Note_on_c, 0, 55, 0
2, 136536, Note_on_c, 0, 55, 84
2, 136632, Note_on_c, 0, 55, 0
2, 136980, Note_on_c, 0, 55, 27
2, 137008, Note_on_c, 0, 55, 0
2, 137064, Note_on_c, 0, 62, 105
2, 137156, Note_on_c, 0, 62, 0
2, 137180, Note_on_c, 0, 59, 63
2, 137244, Note_on_c, 0, 59, 0
2, 137308, Note_on_c, 0, 60, 66
2, 137376, Note_on_c, 0, 60, 0
2, 137412, Note_on_c, 0, 62, 68
2, 137492, Note_on_c, 0, 62, 0
2, 137524, Note_on_c, 0, 64, 65
2, 137600, Note_on_c, 0, 64, 0
2, 137616, Note_on_c, 0, 60, 55
2, 137668, Note_on_c, 0, 60, 0
2, 137720, Note_on_c, 0, 62, 60
2, 137744, Note_on_c, 0, 55, 27
2, 137780, Note_on_c, 0, 55, 0
2, 137784, Note_on_c, 0, 62, 0
2, 137820, Note_on_c, 0, 64, 74
2, 137884, Note_on_c, 0, 64, 0
2, 137916, Note_on_c, 0, 65, 60
2, 137976, Note_on_c, 0, 65, 0
2, 138000, Note_on_c, 0, 62, 46
2, 138052, Note_on_c, 0, 62, 0
2, 138100, Note_on_c, 0, 64, 68
2, 138188, Note_on_c, 0, 65, 78
2, 138196, Note_on_c, 0, 64, 0
2, 138228, Note_on_c, 0, 57, 28
2, 138260, Note_on_c, 0, 57, 0
2, 138272, Note_on_c, 0, 65, 0
2, 138284, Note_on_c, 0, 67, 64
2, 138348, Note_on_c, 0, 67, 0
2, 138376, Note_on_c, 0, 64, 43
2, 138448, Note_on_c, 0, 64, 0
2, 138464, Note_on_c, 0, 65, 68
2, 138564, Note_on_c, 0, 67, 72
2, 138572, Note_on_c, 0, 65, 0
2, 138632, Note_on_c, 0, 67, 0
2, 138656, Note_on_c, 0, 69, 64
2, 138712, Note_on_c, 0, 69, 0
2, 138748, Note_on_c, 0, 65, 44
2, 138784, Note_on_c, 0, 65, 0
2, 138836, Note_on_c, 0, 67, 49
2, 138920, Note_on_c, 0, 67, 0
2, 138932, Note_on_c, 0, 69, 55
2, 138992, Note_on_c, 0, 69, 0
2, 139020, Note_on_c, 0, 70, 71
2, 139080, Note_on_c, 0, 70, 0
2, 139124, Note_on_c, 0, 71, 58
2, 139152, Note_on_c, 0, 71, 0
2, 139208, Note_on_c, 0, 72, 39
2, 139248, Control_c, 0, 64, 127
2, 139280, Control_c, 0, 64, 0
2, 139284, Note_on_c, 0, 72, 0
2, 139312, Note_on_c, 0, 73, 63
2, 139364, Note_on_c, 0, 73, 0
2, 139404, Note_on_c, 0, 74, 53
2, 139456, Note_on_c, 0, 74, 0
2, 139500, Note_on_c, 0, 75, 47
2, 139540, Note_on_c, 0, 75, 0
2, 139576, Note_on_c, 0, 76, 68
2, 139600, Control_c, 0, 64, 127
2, 139624, Note_on_c, 0, 76, 0
2, 139672, Control_c, 0, 64, 0
2, 139676, Note_on_c, 0, 80, 55
2, 139728, Note_on_c, 0, 62, 24
2, 139752, Note_on_c, 0, 80, 0
2, 139760, Note_on_c, 0, 82, 29
2, 139776, Note_on_c, 0, 62, 0
2, 139776, Note_on_c, 0, 83, 70
2, 139780, Note_on_c, 0, 82, 0
2, 139844, Note_on_c, 0, 83, 0
2, 139876, Note_on_c, 0, 86, 85
2, 139972, Note_on_c, 0, 86, 0
2, 139980, Note_on_c, 0, 84, 58
2, 140008, Note_on_c, 0, 84, 0
2, 140072, Note_on_c, 0, 80, 59
2, 140116, Note_on_c, 0, 80, 0
2, 140160, Note_on_c, 0, 83, 66
2, 140228, Note_on_c, 0, 83, 0
2, 140452, Note_on_c, 0, 67, 64
2, 140456, Note_on_c, 0, 62, 54
2, 140476, Note_on_c, 0, 56, 25
2, 140492, Note_on_c, 0, 67, 0
2, 140496, Note_on_c, 0, 62, 0
2, 140500, Note_on_c, 0, 56, 0
2, 140804, Note_on_c, 0, 62, 64
2, 140808, Note_on_c, 0, 65, 64
2, 140812, Note_on_c, 0, 56, 62
2, 140956, Control_c, 0, 64, 127
2, 141080, Note_on_c, 0, 62, 0
2, 141172, Note_on_c, 0, 65, 0
2, 141240, Note_on_c, 0, 56, 0
2, 141248, Control_c, 0, 64, 0
2, 141284, Note_on_c, 0, 64, 46
2, 141300, Note_on_c, 0, 60, 40
2, 141308, Note_on_c, 0, 57, 31
2, 141668, Note_on_c, 0, 64, 0
2, 141732, Note_on_c, 0, 60, 0
2, 141780, Note_on_c, 0, 57, 0
2, 141920, Note_on_c, 0, 84, 60
2, 141948, Note_on_c, 0, 84, 0
2, 142060, Note_on_c, 0, 86, 96
2, 142076, Note_on_c, 0, 93, 77
2, 142100, Note_on_c, 0, 93, 0
2, 142152, Note_on_c, 0, 93, 13
2, 142184, Note_on_c, 0, 87, 67
2, 142192, Note_on_c, 0, 86, 0
2, 142224, Note_on_c, 0, 93, 0
2, 142280, Note_on_c, 0, 86, 48
2, 142284, Note_on_c, 0, 87, 0
2, 142332, Note_on_c, 0, 86, 0
2, 142348, Note_on_c, 0, 84, 60
2, 142372, Note_on_c, 0, 84, 0
2, 142408, Note_on_c, 0, 57, 19
2, 142452, Note_on_c, 0, 57, 0
2, 142464, Note_on_c, 0, 86, 103
2, 142472, Note_on_c, 0, 93, 88
2, 142592, Note_on_c, 0, 86, 0
2, 142604, Note_on_c, 0, 87, 57
2, 142660, Note_on_c, 0, 93, 0
2, 142680, Note_on_c, 0, 86, 61
2, 142708, Note_on_c, 0, 87, 0
2, 142748, Note_on_c, 0, 86, 0
2, 142768, Note_on_c, 0, 84, 71
2, 142832, Note_on_c, 0, 84, 0
2, 142896, Note_on_c, 0, 81, 58
2, 143028, Note_on_c, 0, 81, 0
2, 143060, Control_c, 0, 64, 127
2, 143108, Note_on_c, 0, 74, 52
2, 143160, Control_c, 0, 64, 0
2, 143208, Note_on_c, 0, 74, 0
2, 143472, Note_on_c, 0, 62, 54
2, 143480, Note_on_c, 0, 57, 51
2, 143480, Note_on_c, 0, 51, 35
2, 143492, Note_on_c, 0, 62, 0
2, 143508, Note_on_c, 0, 57, 0
2, 143512, Note_on_c, 0, 51, 0
2, 143732, Note_on_c, 0, 74, 68
2, 143772, Note_on_c, 0, 74, 0
2, 143852, Note_on_c, 0, 79, 84
2, 143912, Note_on_c, 0, 79, 0
2, 143976, Note_on_c, 0, 83, 89
2, 144032, Note_on_c, 0, 83, 0
2, 144096, Note_on_c, 0, 84, 79
2, 144156, Note_on_c, 0, 84, 0
2, 144224, Note_on_c, 0, 86, 101
2, 144264, Control_c, 0, 64, 127
2, 144308, Note_on_c, 0, 86, 0
2, 144316, Control_c, 0, 64, 0
2, 144352, Note_on_c, 0, 84, 73
2, 144412, Note_on_c, 0, 84, 0
2, 144484, Note_on_c, 0, 82, 71
2, 144496, Note_on_c, 0, 52, 34
2, 144504, Note_on_c, 0, 62, 24
2, 144504, Note_on_c, 0, 58, 25
2, 144528, Note_on_c, 0, 52, 0
2, 144532, Note_on_c, 0, 58, 0
2, 144532, Note_on_c, 0, 62, 0
2, 144552, Note_on_c, 0, 82, 0
2, 144608, Note_on_c, 0, 81, 71
2, 144620, Note_on_c, 0, 58, 31
2, 144620, Note_on_c, 0, 62, 34
2, 144656, Note_on_c, 0, 62, 0
2, 144668, Note_on_c, 0, 58, 0
2, 144704, Note_on_c, 0, 81, 0
2, 144728, Control_c, 0, 64, 127
2, 144736, Note_on_c, 0, 79, 66
2, 144740, Note_on_c, 0, 62, 33
2, 144744, Note_on_c, 0, 58, 27
2, 144788, Note_on_c, 0, 58, 0
2, 144788, Note_on_c, 0, 62, 0
2, 144804, Control_c, 0, 64, 0
2, 144844, Note_on_c, 0, 79, 0
2, 145004, Note_on_c, 0, 58, 42
2, 145004, Note_on_c, 0, 74, 38
2, 145012, Note_on_c, 0, 62, 36
2, 145012, Note_on_c, 0, 76, 32
2, 145036, Note_on_c, 0, 62, 0
2, 145040, Note_on_c, 0, 76, 0
2, 145052, Note_on_c, 0, 58, 0
2, 145064, Note_on_c, 0, 74, 0
2, 145388, Note_on_c, 0, 58, 43
2, 145388, Note_on_c, 0, 62, 50
2, 145404, Note_on_c, 0, 52, 29
2, 145416, Note_on_c, 0, 62, 0
2, 145432, Note_on_c, 0, 52, 0
2, 145456, Note_on_c, 0, 58, 0
2, 145524, Note_on_c, 0, 70, 51
2, 145600, Note_on_c, 0, 70, 0
2, 145652, Note_on_c, 0, 67, 32
2, 145680, Note_on_c, 0, 67, 0
2, 145776, Note_on_c, 0, 69, 90
2, 145776, Note_on_c, 0, 55, 68
2, 145776, Note_on_c, 0, 61, 60
2, 145780, Note_on_c, 0, 65, 62
2, 145968, Note_on_c, 0, 69, 0
2, 145980, Note_on_c, 0, 70, 86
2, 145992, Note_on_c, 0, 69, 43
2, 146012, Note_on_c, 0, 69, 0
2, 146132, Control_c, 0, 64, 127
2, 146192, Note_on_c, 0, 65, 0
2, 146208, Note_on_c, 0, 55, 0
2, 146212, Note_on_c, 0, 61, 0
2, 146236, Note_on_c, 0, 70, 0
2, 146248, Control_c, 0, 64, 0
2, 146268, Note_on_c, 0, 61, 51
2, 146272, Note_on_c, 0, 55, 55
2, 146276, Note_on_c, 0, 69, 80
2, 146276, Note_on_c, 0, 65, 52
2, 146344, Control_c, 0, 64, 127
2, 146412, Note_on_c, 0, 55, 0
2, 146452, Note_on_c, 0, 65, 0
2, 146464, Note_on_c, 0, 69, 0
2, 146472, Note_on_c, 0, 61, 0
2, 146544, Note_on_c, 0, 67, 71
2, 146552, Note_on_c, 0, 61, 48
2, 146552, Note_on_c, 0, 65, 58
2, 146556, Note_on_c, 0, 55, 56
2, 146600, Note_on_c, 0, 65, 0
2, 146620, Note_on_c, 0, 55, 0
2, 146620, Note_on_c, 0, 67, 0
2, 146624, Note_on_c, 0, 61, 0
2, 146656, Control_c, 0, 64, 0
2, 146692, Note_on_c, 0, 61, 34
2, 146696, Note_on_c, 0, 55, 37
2, 146696, Note_on_c, 0, 65, 54
2, 146740, Note_on_c, 0, 65, 0
2, 146744, Note_on_c, 0, 55, 0
2, 146772, Note_on_c, 0, 61, 0
2, 146924, Note_on_c, 0, 61, 50
2, 146932, Note_on_c, 0, 64, 51
2, 146936, Note_on_c, 0, 62, 46
2, 146952, Note_on_c, 0, 55, 30
2, 146980, Note_on_c, 0, 55, 0
2, 146984, Note_on_c, 0, 62, 0
2, 146984, Note_on_c, 0, 61, 0
2, 146988, Note_on_c, 0, 64, 0
2, 147072, Note_on_c, 0, 55, 41
2, 147076, Note_on_c, 0, 61, 46
2, 147112, Note_on_c, 0, 55, 0
2, 147188, Note_on_c, 0, 61, 0
2, 147324, Note_on_c, 0, 64, 35
2, 147352, Control_c, 0, 64, 127
2, 147404, Note_on_c, 0, 64, 0
2, 147420, Control_c, 0, 64, 0
2, 147464, Note_on_c, 0, 62, 56
2, 147528, Note_on_c, 0, 62, 0
2, 147692, Note_on_c, 0, 57, 49
2, 147692, Note_on_c, 0, 60, 56
2, 147716, Note_on_c, 0, 60, 0
2, 147720, Note_on_c, 0, 53, 24
2, 147724, Note_on_c, 0, 57, 0
2, 147744, Note_on_c, 0, 53, 0
2, 148128, Control_c, 0, 64, 127
2, 148164, Control_c, 0, 64, 0
2, 148456, Control_c, 0, 64, 127
2, 148492, Note_on_c, 0, 61, 70
2, 148504, Note_on_c, 0, 57, 58
2, 148528, Note_on_c, 0, 57, 0
2, 148528, Note_on_c, 0, 61, 0
2, 148548, Control_c, 0, 64, 0
2, 148624, Note_on_c, 0, 64, 108
2, 148744, Note_on_c, 0, 64, 0
2, 148748, Note_on_c, 0, 61, 68
2, 148836, Note_on_c, 0, 61, 0
2, 148844, Note_on_c, 0, 62, 71
2, 148928, Note_on_c, 0, 62, 0
2, 149000, Note_on_c, 0, 63, 37
2, 149072, Note_on_c, 0, 63, 0
2, 149104, Note_on_c, 0, 64, 73
2, 149172, Note_on_c, 0, 64, 0
2, 149208, Note_on_c, 0, 61, 50
2, 149216, Note_on_c, 0, 65, 58
2, 149228, Note_on_c, 0, 57, 36
2, 149256, Note_on_c, 0, 61, 0
2, 149260, Note_on_c, 0, 57, 0
2, 149288, Note_on_c, 0, 65, 0
2, 149336, Note_on_c, 0, 69, 56
2, 149416, Note_on_c, 0, 69, 0
2, 149460, Note_on_c, 0, 72, 72
2, 149500, Note_on_c, 0, 72, 0
2, 149500, Control_c, 0, 64, 127
2, 149592, Note_on_c, 0, 76, 90
2, 149600, Note_on_c, 0, 60, 60
2, 149608, Note_on_c, 0, 57, 47
2, 149612, Note_on_c, 0, 64, 49
2, 149636, Note_on_c, 0, 64, 0
2, 149652, Note_on_c, 0, 57, 0
2, 149660, Note_on_c, 0, 60, 0
2, 149676, Note_on_c, 0, 76, 0
2, 149700, Control_c, 0, 64, 0
2, 149724, Note_on_c, 0, 79, 89
2, 149724, Note_on_c, 0, 67, 88
2, 149740, Note_on_c, 0, 64, 55
2, 149740, Note_on_c, 0, 60, 55
2, 149748, Note_on_c, 0, 57, 40
2, 149764, Note_on_c, 0, 64, 0
2, 149808, Note_on_c, 0, 60, 0
2, 149812, Note_on_c, 0, 79, 0
2, 149828, Note_on_c, 0, 57, 0
2, 149832, Note_on_c, 0, 67, 0
2, 149836, Note_on_c, 0, 78, 72
2, 149908, Control_c, 0, 64, 127
2, 149932, Note_on_c, 0, 78, 0
2, 149968, Note_on_c, 0, 77, 74
2, 149968, Note_on_c, 0, 64, 58
2, 149972, Note_on_c, 0, 60, 49
2, 149976, Note_on_c, 0, 57, 41
2, 150004, Control_c, 0, 64, 0
2, 150024, Note_on_c, 0, 64, 0
2, 150048, Note_on_c, 0, 60, 0
2, 150068, Note_on_c, 0, 77, 0
2, 150068, Note_on_c, 0, 57, 0
2, 150108, Note_on_c, 0, 76, 66
2, 150116, Note_on_c, 0, 60, 40
2, 150120, Control_c, 0, 64, 127
2, 150124, Note_on_c, 0, 64, 35
2, 150144, Note_on_c, 0, 60, 0
2, 150152, Note_on_c, 0, 64, 0
2, 150160, Control_c, 0, 64, 0
2, 150188, Note_on_c, 0, 76, 0
2, 150216, Control_c, 0, 64, 127
2, 150228, Note_on_c, 0, 72, 66
2, 150244, Note_on_c, 0, 60, 24
2, 150268, Note_on_c, 0, 60, 0
2, 150300, Control_c, 0, 64, 0
2, 150308, Note_on_c, 0, 72, 0
2, 150332, Control_c, 0, 64, 127
2, 150348, Note_on_c, 0, 60, 43
2, 150356, Note_on_c, 0, 64, 32
2, 150384, Note_on_c, 0, 64, 0
2, 150404, Note_on_c, 0, 60, 0
2, 150448, Control_c, 0, 64, 0
2, 150492, Note_on_c, 0, 65, 37
2, 150496, Note_on_c, 0, 54, 25
2, 150500, Note_on_c, 0, 60, 28
2, 150528, Note_on_c, 0, 65, 0
2, 150536, Note_on_c, 0, 60, 0
2, 150540, Control_c, 0, 64, 127
2, 150544, Note_on_c, 0, 54, 0
2, 150656, Note_on_c, 0, 64, 53
2, 150660, Note_on_c, 0, 60, 60
2, 150664, Note_on_c, 0, 65, 50
2, 150668, Note_on_c, 0, 54, 39
2, 150672, Control_c, 0, 64, 0
2, 150680, Note_on_c, 0, 58, 27
2, 150688, Note_on_c, 0, 65, 0
2, 150700, Note_on_c, 0, 64, 0
2, 150704, Note_on_c, 0, 58, 0
2, 150716, Note_on_c, 0, 60, 0
2, 150720, Note_on_c, 0, 54, 0
2, 150764, Note_on_c, 0, 60, 52
2, 150764, Note_on_c, 0, 54, 38
2, 150776, Note_on_c, 0, 58, 36
2, 150816, Note_on_c, 0, 54, 0
2, 150828, Note_on_c, 0, 60, 0
2, 150832, Note_on_c, 0, 58, 0
2, 150832, Control_c, 0, 64, 127
2, 150916, Control_c, 0, 64, 0
2, 151052, Note_on_c, 0, 69, 83
2, 151052, Note_on_c, 0, 71, 78
2, 151056, Note_on_c, 0, 60, 62
2, 151056, Note_on_c, 0, 65, 75
2, 151060, Note_on_c, 0, 58, 53
2, 151060, Note_on_c, 0, 54, 59
2, 151120, Note_on_c, 0, 65, 0
2, 151132, Note_on_c, 0, 54, 0
2, 151140, Note_on_c, 0, 60, 0
2, 151144, Note_on_c, 0, 69, 0
2, 151144, Note_on_c, 0, 71, 0
2, 151148, Note_on_c, 0, 58, 0
2, 151172, Control_c, 0, 64, 127
2, 151188, Note_on_c, 0, 70, 42
2, 151188, Note_on_c, 0, 65, 68
2, 151192, Note_on_c, 0, 60, 63
2, 151192, Note_on_c, 0, 71, 68
2, 151192, Note_on_c, 0, 54, 52
2, 151196, Note_on_c, 0, 58, 57
2, 151252, Note_on_c, 0, 65, 0
2, 151268, Note_on_c, 0, 54, 0
2, 151280, Note_on_c, 0, 71, 0
2, 151280, Note_on_c, 0, 60, 0
2, 151284, Note_on_c, 0, 70, 0
2, 151288, Note_on_c, 0, 58, 0
2, 151340, Control_c, 0, 64, 0
2, 151436, Note_on_c, 0, 72, 68
2, 151444, Note_on_c, 0, 65, 74
2, 151444, Note_on_c, 0, 58, 56
2, 151448, Note_on_c, 0, 54, 61
2, 151448, Note_on_c, 0, 60, 71
2, 151512, Note_on_c, 0, 65, 0
2, 151516, Note_on_c, 0, 72, 0
2, 151540, Note_on_c, 0, 60, 0
2, 151548, Note_on_c, 0, 74, 78
2, 151564, Note_on_c, 0, 65, 45
2, 151576, Note_on_c, 0, 60, 25
2, 151600, Note_on_c, 0, 65, 0
2, 151608, Note_on_c, 0, 60, 0
2, 151612, Note_on_c, 0, 54, 0
2, 151616, Note_on_c, 0, 58, 0
2, 151636, Note_on_c, 0, 74, 0
2, 151680, Note_on_c, 0, 75, 86
2, 151688, Note_on_c, 0, 54, 69
2, 151688, Note_on_c, 0, 65, 79
2, 151688, Note_on_c, 0, 60, 68
2, 151688, Note_on_c, 0, 58, 64
2, 151736, Note_on_c, 0, 65, 0
2, 151784, Note_on_c, 0, 75, 0
2, 151796, Note_on_c, 0, 76, 78
2, 151804, Note_on_c, 0, 65, 53
2, 151840, Control_c, 0, 64, 127
2, 151848, Note_on_c, 0, 65, 0
2, 151860, Note_on_c, 0, 76, 0
2, 151868, Note_on_c, 0, 60, 0
2, 151888, Note_on_c, 0, 54, 0
2, 151892, Note_on_c, 0, 58, 0
2, 151892, Control_c, 0, 64, 0
2, 151928, Note_on_c, 0, 64, 74
2, 151932, Note_on_c, 0, 77, 87
2, 151936, Note_on_c, 0, 53, 73
2, 151936, Note_on_c, 0, 59, 68
2, 152020, Control_c, 0, 64, 127
2, 152048, Note_on_c, 0, 77, 0
2, 152076, Note_on_c, 0, 78, 60
2, 152088, Note_on_c, 0, 59, 0
2, 152112, Note_on_c, 0, 53, 0
2, 152120, Note_on_c, 0, 64, 0
2, 152132, Note_on_c, 0, 78, 0
2, 152196, Note_on_c, 0, 80, 76
2, 152196, Note_on_c, 0, 68, 79
2, 152200, Control_c, 0, 64, 0
2, 152204, Note_on_c, 0, 59, 73
2, 152204, Note_on_c, 0, 64, 74
2, 152208, Note_on_c, 0, 53, 71
2, 152308, Control_c, 0, 64, 127
2, 152312, Note_on_c, 0, 68, 0
2, 152328, Note_on_c, 0, 80, 0
2, 152336, Note_on_c, 0, 75, 45
2, 152344, Note_on_c, 0, 53, 0
2, 152344, Note_on_c, 0, 59, 0
2, 152352, Note_on_c, 0, 64, 0
2, 152392, Control_c, 0, 64, 0
2, 152400, Note_on_c, 0, 75, 0
2, 152432, Note_on_c, 0, 59, 71
2, 152432, Note_on_c, 0, 64, 73
2, 152432, Note_on_c, 0, 81, 83
2, 152436, Note_on_c, 0, 69, 85
2, 152440, Note_on_c, 0, 53, 68
2, 152500, Control_c, 0, 64, 127
2, 152564, Note_on_c, 0, 81, 0
2, 152572, Note_on_c, 0, 75, 53
2, 152576, Note_on_c, 0, 69, 0
2, 152576, Note_on_c, 0, 59, 0
2, 152580, Note_on_c, 0, 53, 0
2, 152588, Note_on_c, 0, 64, 0
2, 152632, Note_on_c, 0, 75, 0
2, 152644, Control_c, 0, 64, 0
2, 152672, Note_on_c, 0, 70, 87
2, 152676, Note_on_c, 0, 82, 86
2, 152680, Note_on_c, 0, 59, 71
2, 152680, Note_on_c, 0, 75, 48
2, 152680, Note_on_c, 0, 53, 71
2, 152684, Note_on_c, 0, 64, 72
2, 152704, Note_on_c, 0, 75, 0
2, 152760, Control_c, 0, 64, 127
2, 152780, Note_on_c, 0, 64, 0
2, 152784, Note_on_c, 0, 70, 0
2, 152792, Note_on_c, 0, 82, 0
2, 152808, Note_on_c, 0, 53, 0
2, 152820, Note_on_c, 0, 59, 0
2, 152820, Note_on_c, 0, 75, 37
2, 152880, Note_on_c, 0, 75, 0
2, 152904, Control_c, 0, 64, 0
2, 152908, Note_on_c, 0, 83, 83
2, 152912, Note_on_c, 0, 53, 71
2, 152912, Note_on_c, 0, 71, 85
2, 152916, Note_on_c, 0, 64, 72
2, 152916, Note_on_c, 0, 59, 74
2, 152984, Control_c, 0, 64, 127
2, 153028, Note_on_c, 0, 64, 0
2, 153032, Note_on_c, 0, 83, 0
2, 153044, Note_on_c, 0, 76, 52
2, 153048, Note_on_c, 0, 53, 0
2, 153052, Note_on_c, 0, 71, 0
2, 153100, Note_on_c, 0, 59, 0
2, 153104, Note_on_c, 0, 76, 0
2, 153136, Control_c, 0, 64, 0
2, 153152, Note_on_c, 0, 59, 74
2, 153156, Note_on_c, 0, 72, 87
2, 153156, Note_on_c, 0, 63, 77
2, 153160, Note_on_c, 0, 53, 72
2, 153160, Note_on_c, 0, 84, 90
2, 153172, Note_on_c, 0, 56, 39
2, 153208, Note_on_c, 0, 63, 0
2, 153220, Control_c, 0, 64, 127
2, 153224, Note_on_c, 0, 53, 0
2, 153240, Note_on_c, 0, 56, 0
2, 153260, Note_on_c, 0, 72, 0
2, 153272, Note_on_c, 0, 59, 0
2, 153308, Note_on_c, 0, 59, 15
2, 153312, Note_on_c, 0, 63, 26
2, 153312, Note_on_c, 0, 79, 40
2, 153328, Note_on_c, 0, 84, 0
2, 153328, Note_on_c, 0, 56, 25
2, 153332, Note_on_c, 0, 59, 0
2, 153332, Note_on_c, 0, 63, 0
2, 153360, Note_on_c, 0, 56, 0
2, 153372, Note_on_c, 0, 79, 0
2, 153428, Note_on_c, 0, 79, 76
2, 153428, Note_on_c, 0, 59, 76
2, 153428, Note_on_c, 0, 86, 90
2, 153428, Note_on_c, 0, 62, 82
2, 153432, Note_on_c, 0, 74, 91
2, 153436, Note_on_c, 0, 55, 65
2, 153440, Note_on_c, 0, 82, 54
2, 153440, Note_on_c, 0, 52, 71
2, 153456, Control_c, 0, 64, 0
2, 153460, Note_on_c, 0, 82, 0
2, 153460, Note_on_c, 0, 54, 27
2, 153480, Note_on_c, 0, 79, 0
2, 153556, Note_on_c, 0, 86, 0
2, 153560, Control_c, 0, 64, 127
2, 153572, Note_on_c, 0, 74, 0
2, 153572, Note_on_c, 0, 79, 50
2, 153576, Note_on_c, 0, 55, 0
2, 153580, Note_on_c, 0, 54, 0
2, 153588, Note_on_c, 0, 82, 42
2, 153592, Note_on_c, 0, 62, 0
2, 153592, Note_on_c, 0, 52, 0
2, 153604, Note_on_c, 0, 59, 0
2, 153608, Note_on_c, 0, 79, 0
2, 153648, Note_on_c, 0, 82, 0
2, 153688, Note_on_c, 0, 59, 59
2, 153688, Note_on_c, 0, 88, 89
2, 153692, Note_on_c, 0, 76, 82
2, 153696, Note_on_c, 0, 52, 63
2, 153696, Note_on_c, 0, 62, 73
2, 153696, Note_on_c, 0, 55, 57
2, 153700, Control_c, 0, 64, 0
2, 153780, Control_c, 0, 64, 127
2, 153788, Note_on_c, 0, 62, 0
2, 153792, Note_on_c, 0, 76, 0
2, 153804, Note_on_c, 0, 52, 0
2, 153812, Note_on_c, 0, 55, 0
2, 153816, Note_on_c, 0, 82, 64
2, 153824, Note_on_c, 0, 88, 0
2, 153872, Note_on_c, 0, 82, 0
2, 153876, Note_on_c, 0, 59, 0
2, 153944, Control_c, 0, 64, 0
2, 153952, Note_on_c, 0, 78, 83
2, 153956, Note_on_c, 0, 90, 85
2, 153976, Note_on_c, 0, 52, 42
2, 154000, Note_on_c, 0, 52, 0
2, 154028, Control_c, 0, 64, 127
2, 154060, Note_on_c, 0, 78, 0
2, 154072, Note_on_c, 0, 90, 0
2, 154092, Note_on_c, 0, 85, 47
2, 154116, Note_on_c, 0, 85, 0
2, 154200, Note_on_c, 0, 63, 68
2, 154200, Control_c, 0, 64, 0
2, 154204, Note_on_c, 0, 53, 70
2, 154204, Note_on_c, 0, 58, 49
2, 154204, Note_on_c, 0, 92, 83
2, 154204, Note_on_c, 0, 80, 79
2, 154224, Note_on_c, 0, 82, 33
2, 154244, Note_on_c, 0, 82, 0
2, 154288, Note_on_c, 0, 92, 0
2, 154292, Control_c, 0, 64, 127
2, 154296, Note_on_c, 0, 80, 0
2, 154300, Note_on_c, 0, 53, 0
2, 154336, Note_on_c, 0, 58, 0
2, 154356, Note_on_c, 0, 63, 0
2, 154392, Note_on_c, 0, 94, 62
2, 154424, Note_on_c, 0, 94, 0
2, 154480, Note_on_c, 0, 61, 69
2, 154480, Note_on_c, 0, 65, 75
2, 154480, Note_on_c, 0, 55, 73
2, 154492, Note_on_c, 0, 82, 82
2, 154492, Control_c, 0, 64, 0
2, 154500, Note_on_c, 0, 94, 73
2, 154512, Note_on_c, 0, 95, 60
2, 154516, Note_on_c, 0, 96, 68
2, 154540, Note_on_c, 0, 96, 0
2, 154584, Note_on_c, 0, 95, 0
2, 154612, Note_on_c, 0, 94, 0
2, 154640, Note_on_c, 0, 55, 0
2, 154644, Note_on_c, 0, 82, 0
2, 154644, Note_on_c, 0, 65, 0
2, 154656, Note_on_c, 0, 61, 0
2, 154684, Note_on_c, 0, 61, 52
2, 154684, Note_on_c, 0, 55, 73
2, 154688, Note_on_c, 0, 96, 81
2, 154688, Note_on_c, 0, 84, 79
2, 154688, Note_on_c, 0, 65, 74
2, 154724, Note_on_c, 0, 94, 23
2, 154756, Note_on_c, 0, 94, 0
2, 154784, Note_on_c, 0, 84, 0
2, 154796, Note_on_c, 0, 96, 0
2, 154804, Note_on_c, 0, 65, 0
2, 154808, Note_on_c, 0, 55, 0
2, 154848, Note_on_c, 0, 61, 0
2, 154896, Note_on_c, 0, 87, 77
2, 154896, Note_on_c, 0, 99, 79
2, 154900, Note_on_c, 0, 61, 60
2, 154904, Note_on_c, 0, 55, 76
2, 154908, Note_on_c, 0, 65, 75
2, 154908, Note_on_c, 0, 94, 63
2, 154932, Note_on_c, 0, 58, 32
2, 154936, Note_on_c, 0, 94, 0
2, 155020, Note_on_c, 0, 55, 0
2, 155036, Note_on_c, 0, 65, 0
2, 155036, Note_on_c, 0, 87, 0
2, 155044, Note_on_c, 0, 99, 0
2, 155076, Note_on_c, 0, 58, 0
2, 155092, Note_on_c, 0, 61, 0
2, 155108, Note_on_c, 0, 98, 71
2, 155112, Note_on_c, 0, 64, 61
2, 155112, Note_on_c, 0, 86, 63
2, 155112, Note_on_c, 0, 92, 64
2, 155116, Note_on_c, 0, 54, 44
2, 155120, Note_on_c, 0, 60, 55
2, 155240, Note_on_c, 0, 92, 0
2, 155240, Note_on_c, 0, 93, 61
2, 155260, Note_on_c, 0, 60, 0
2, 155268, Note_on_c, 0, 98, 0
2, 155272, Note_on_c, 0, 54, 0
2, 155272, Note_on_c, 0, 86, 0
2, 155276, Note_on_c, 0, 64, 0
2, 155276, Note_on_c, 0, 93, 0
2, 155736, Note_on_c, 0, 64, 66
2, 155744, Note_on_c, 0, 59, 56
2, 155760, Note_on_c, 0, 53, 26
2, 155784, Note_on_c, 0, 53, 0
2, 155784, Note_on_c, 0, 59, 0
2, 155788, Note_on_c, 0, 64, 0
2, 155988, Note_on_c, 0, 99, 74
2, 156052, Note_on_c, 0, 99, 0
2, 156104, Note_on_c, 0, 100, 82
2, 156176, Note_on_c, 0, 100, 0
2, 156212, Note_on_c, 0, 63, 48
2, 156224, Note_on_c, 0, 101, 68
2, 156232, Note_on_c, 0, 59, 40
2, 156240, Note_on_c, 0, 53, 20
2, 156252, Note_on_c, 0, 56, 25
2, 156300, Note_on_c, 0, 101, 0
2, 156344, Note_on_c, 0, 53, 0
2, 156352, Note_on_c, 0, 102, 64
2, 156380, Note_on_c, 0, 63, 0
2, 156384, Note_on_c, 0, 56, 0
2, 156432, Note_on_c, 0, 59, 0
2, 156432, Note_on_c, 0, 102, 0
2, 156488, Note_on_c, 0, 103, 79
2, 156488, Note_on_c, 0, 59, 40
2, 156492, Note_on_c, 0, 62, 57
2, 156504, Note_on_c, 0, 55, 48
2, 156520, Note_on_c, 0, 52, 28
2, 156548, Note_on_c, 0, 52, 0
2, 156560, Note_on_c, 0, 62, 0
2, 156572, Note_on_c, 0, 103, 0
2, 156588, Note_on_c, 0, 55, 0
2, 156644, Note_on_c, 0, 59, 0
2, 156648, Note_on_c, 0, 99, 31
2, 156700, Note_on_c, 0, 99, 0
2, 156760, Note_on_c, 0, 100, 53
2, 156820, Note_on_c, 0, 100, 0
2, 156884, Note_on_c, 0, 101, 77
2, 156956, Note_on_c, 0, 101, 0
2, 157012, Note_on_c, 0, 102, 64
2, 157092, Note_on_c, 0, 102, 0
2, 157148, Note_on_c, 0, 103, 79
2, 157256, Note_on_c, 0, 103, 0
2, 157260, Note_on_c, 0, 61, 63
2, 157268, Note_on_c, 0, 99, 75
2, 157268, Note_on_c, 0, 65, 71
2, 157276, Note_on_c, 0, 55, 63
2, 157364, Note_on_c, 0, 99, 0
2, 157420, Note_on_c, 0, 100, 49
2, 157492, Note_on_c, 0, 100, 0
2, 157544, Note_on_c, 0, 101, 61
2, 157596, Note_on_c, 0, 101, 0
2, 157676, Note_on_c, 0, 102, 67
2, 157744, Note_on_c, 0, 102, 0
2, 157804, Note_on_c, 0, 103, 78
2, 157852, Note_on_c, 0, 65, 0
2, 157856, Note_on_c, 0, 55, 0
2, 157892, Note_on_c, 0, 103, 0
2, 157928, Note_on_c, 0, 61, 0
2, 157952, Note_on_c, 0, 98, 89
2, 157980, Note_on_c, 0, 54, 63
2, 157984, Note_on_c, 0, 64, 49
2, 157984, Note_on_c, 0, 60, 55
2, 158024, Note_on_c, 0, 99, 67
2, 158040, Note_on_c, 0, 98, 0
2, 158044, Note_on_c, 0, 64, 0
2, 158116, Note_on_c, 0, 98, 52
2, 158136, Note_on_c, 0, 60, 0
2, 158144, Note_on_c, 0, 99, 0
2, 158180, Note_on_c, 0, 98, 0
2, 158192, Note_on_c, 0, 96, 65
2, 158236, Note_on_c, 0, 96, 0
2, 158292, Note_on_c, 0, 94, 71
2, 158364, Note_on_c, 0, 94, 0
2, 158396, Note_on_c, 0, 54, 0
2, 158408, Note_on_c, 0, 91, 68
2, 158464, Note_on_c, 0, 91, 0
2, 158516, Note_on_c, 0, 90, 76
2, 158604, Note_on_c, 0, 90, 0
2, 158628, Note_on_c, 0, 89, 66
2, 158680, Note_on_c, 0, 89, 0
2, 158728, Note_on_c, 0, 87, 50
2, 158804, Note_on_c, 0, 87, 0
2, 158832, Note_on_c, 0, 84, 48
2, 158864, Note_on_c, 0, 84, 0
2, 158936, Note_on_c, 0, 87, 48
2, 158972, Note_on_c, 0, 87, 0
2, 159032, Note_on_c, 0, 88, 66
2, 159088, Note_on_c, 0, 88, 0
2, 159128, Note_on_c, 0, 89, 63
2, 159192, Note_on_c, 0, 89, 0
2, 159220, Note_on_c, 0, 90, 69
2, 159272, Note_on_c, 0, 90, 0
2, 159312, Note_on_c, 0, 91, 68
2, 159332, Note_on_c, 0, 63, 23
2, 159344, Note_on_c, 0, 59, 32
2, 159356, Note_on_c, 0, 53, 19
2, 159364, Note_on_c, 0, 91, 0
2, 159412, Note_on_c, 0, 87, 74
2, 159428, Note_on_c, 0, 59, 0
2, 159436, Note_on_c, 0, 53, 0
2, 159444, Note_on_c, 0, 63, 0
2, 159456, Note_on_c, 0, 87, 0
2, 159516, Note_on_c, 0, 88, 34
2, 159564, Note_on_c, 0, 88, 0
2, 159584, Note_on_c, 0, 84, 65
2, 159628, Note_on_c, 0, 84, 0
2, 159688, Note_on_c, 0, 79, 33
2, 159712, Note_on_c, 0, 79, 0
2, 159744, Note_on_c, 0, 84, 80
2, 159848, Note_on_c, 0, 84, 0
2, 159912, Note_on_c, 0, 84, 72
2, 159968, Note_on_c, 0, 84, 0
2, 160112, Note_on_c, 0, 84, 80
2, 160192, Note_on_c, 0, 84, 0
2, 160224, Note_on_c, 0, 81, 50
2, 160256, Note_on_c, 0, 81, 0
2, 160332, Note_on_c, 0, 84, 84
2, 160408, Note_on_c, 0, 84, 0
2, 161288, Note_on_c, 0, 58, 34
2, 161312, Note_on_c, 0, 58, 0
2, 163056, Note_on_c, 0, 93, 66
2, 163072, Control_c, 0, 64, 127
2, 163080, Note_on_c, 0, 93, 0
2, 163100, Control_c, 0, 64, 0
2, 163260, Control_c, 0, 64, 127
2, 163448, Note_on_c, 0, 62, 44
2, 163460, Note_on_c, 0, 60, 40
2, 163472, Note_on_c, 0, 62, 0
2, 163480, Note_on_c, 0, 57, 29
2, 163488, Note_on_c, 0, 60, 0
2, 163524, Control_c, 0, 64, 0
2, 163536, Note_on_c, 0, 57, 0
2, 163564, Note_on_c, 0, 67, 62
2, 163636, Note_on_c, 0, 67, 0
2, 163664, Note_on_c, 0, 65, 67
2, 163724, Note_on_c, 0, 65, 0
2, 163816, Note_on_c, 0, 64, 15
2, 163860, Control_c, 0, 64, 127
2, 163864, Note_on_c, 0, 64, 0
2, 163884, Note_on_c, 0, 65, 38
2, 163912, Note_on_c, 0, 65, 0
2, 163940, Note_on_c, 0, 57, 19
2, 163952, Control_c, 0, 64, 0
2, 163980, Note_on_c, 0, 70, 67
2, 163988, Note_on_c, 0, 57, 0
2, 164064, Note_on_c, 0, 69, 64
2, 164088, Note_on_c, 0, 70, 0
2, 164144, Note_on_c, 0, 69, 0
2, 164164, Note_on_c, 0, 68, 55
2, 164236, Note_on_c, 0, 68, 0
2, 164264, Note_on_c, 0, 69, 44
2, 164292, Note_on_c, 0, 69, 0
2, 164380, Note_on_c, 0, 75, 69
2, 164472, Note_on_c, 0, 75, 0
2, 164612, Note_on_c, 0, 60, 57
2, 164616, Note_on_c, 0, 62, 49
2, 164616, Note_on_c, 0, 56, 38
2, 164640, Note_on_c, 0, 62, 0
2, 164652, Note_on_c, 0, 60, 0
2, 164680, Note_on_c, 0, 56, 0
2, 164892, Note_on_c, 0, 72, 62
2, 164924, Note_on_c, 0, 72, 0
2, 165008, Note_on_c, 0, 76, 88
2, 165020, Control_c, 0, 64, 127
2, 165024, Note_on_c, 0, 64, 33
2, 165060, Note_on_c, 0, 64, 0
2, 165076, Note_on_c, 0, 76, 0
2, 165084, Control_c, 0, 64, 0
2, 165124, Note_on_c, 0, 64, 60
2, 165132, Note_on_c, 0, 79, 91
2, 165136, Note_on_c, 0, 67, 61
2, 165144, Note_on_c, 0, 56, 36
2, 165148, Note_on_c, 0, 60, 47
2, 165224, Control_c, 0, 64, 127
2, 165236, Note_on_c, 0, 60, 0
2, 165252, Note_on_c, 0, 67, 0
2, 165256, Note_on_c, 0, 64, 0
2, 165256, Note_on_c, 0, 79, 0
2, 165268, Note_on_c, 0, 76, 43
2, 165304, Note_on_c, 0, 76, 0
2, 165328, Note_on_c, 0, 64, 9
2, 165360, Note_on_c, 0, 77, 80
2, 165412, Note_on_c, 0, 64, 0
2, 165428, Note_on_c, 0, 77, 0
2, 165444, Control_c, 0, 64, 0
2, 165456, Note_on_c, 0, 67, 35
2, 165460, Note_on_c, 0, 64, 17
2, 165468, Note_on_c, 0, 79, 78
2, 165500, Note_on_c, 0, 67, 0
2, 165500, Control_c, 0, 64, 127
2, 165516, Note_on_c, 0, 64, 0
2, 165536, Note_on_c, 0, 56, 0
2, 165548, Note_on_c, 0, 79, 0
2, 165560, Control_c, 0, 64, 0
2, 165600, Note_on_c, 0, 80, 54
2, 165648, Note_on_c, 0, 80, 0
2, 165648, Control_c, 0, 64, 127
2, 165728, Note_on_c, 0, 81, 57
2, 165784, Note_on_c, 0, 81, 0
2, 165828, Note_on_c, 0, 84, 80
2, 165880, Control_c, 0, 64, 0
2, 165900, Note_on_c, 0, 84, 0
2, 165964, Note_on_c, 0, 79, 64
2, 165964, Note_on_c, 0, 62, 36
2, 165976, Note_on_c, 0, 59, 32
2, 165996, Note_on_c, 0, 55, 24
2, 166032, Note_on_c, 0, 62, 0
2, 166060, Note_on_c, 0, 55, 0
2, 166060, Note_on_c, 0, 59, 0
2, 166112, Note_on_c, 0, 79, 0
2, 166160, Note_on_c, 0, 62, 40
2, 166160, Note_on_c, 0, 76, 62
2, 166164, Note_on_c, 0, 59, 38
2, 166184, Note_on_c, 0, 55, 24
2, 166196, Note_on_c, 0, 62, 0
2, 166212, Note_on_c, 0, 59, 0
2, 166220, Note_on_c, 0, 55, 0
2, 166224, Note_on_c, 0, 76, 0
2, 166320, Note_on_c, 0, 59, 27
2, 166324, Control_c, 0, 64, 127
2, 166328, Note_on_c, 0, 72, 32
2, 166364, Note_on_c, 0, 72, 0
2, 166368, Note_on_c, 0, 59, 0
2, 166532, Note_on_c, 0, 59, 43
2, 166540, Note_on_c, 0, 62, 40
2, 166544, Note_on_c, 0, 67, 64
2, 166568, Note_on_c, 0, 62, 0
2, 166596, Note_on_c, 0, 59, 0
2, 166612, Control_c, 0, 64, 0
2, 166620, Note_on_c, 0, 67, 0
2, 166688, Note_on_c, 0, 59, 41
2, 166720, Note_on_c, 0, 59, 0
2, 166732, Control_c, 0, 64, 127
2, 166740, Note_on_c, 0, 64, 75
2, 166852, Note_on_c, 0, 64, 0
2, 166932, Control_c, 0, 64, 0
2, 167000, Note_on_c, 0, 55, 54
2, 167008, Note_on_c, 0, 59, 31
2, 167028, Note_on_c, 0, 55, 0
2, 167036, Note_on_c, 0, 59, 0
2, 167072, Control_c, 0, 64, 127
2, 167304, Control_c, 0, 64, 0
2, 167308, Note_on_c, 0, 54, 76
2, 167308, Note_on_c, 0, 64, 84
2, 167308, Note_on_c, 0, 60, 77
2, 167332, Note_on_c, 0, 84, 99
2, 167336, Note_on_c, 0, 72, 83
2, 167344, Note_on_c, 0, 74, 80
2, 167368, Note_on_c, 0, 74, 0
2, 167420, Control_c, 0, 64, 127
2, 167524, Note_on_c, 0, 72, 0
2, 167532, Note_on_c, 0, 64, 0
2, 167536, Note_on_c, 0, 84, 0
2, 167552, Note_on_c, 0, 54, 0
2, 167560, Note_on_c, 0, 60, 0
2, 167684, Note_on_c, 0, 74, 65
2, 167688, Note_on_c, 0, 86, 66
2, 167692, Note_on_c, 0, 60, 54
2, 167704, Note_on_c, 0, 85, 40
2, 167708, Note_on_c, 0, 74, 0
2, 167712, Note_on_c, 0, 86, 0
2, 167720, Note_on_c, 0, 60, 0
2, 167728, Note_on_c, 0, 85, 0
2, 167736, Control_c, 0, 64, 0
2, 167800, Note_on_c, 0, 54, 49
2, 167808, Note_on_c, 0, 87, 72
2, 167812, Note_on_c, 0, 60, 48
2, 167812, Note_on_c, 0, 64, 51
2, 167812, Note_on_c, 0, 75, 65
2, 167852, Note_on_c, 0, 87, 0
2, 167852, Note_on_c, 0, 88, 53
2, 167872, Control_c, 0, 64, 127
2, 167880, Note_on_c, 0, 75, 0
2, 167892, Note_on_c, 0, 76, 57
2, 167896, Note_on_c, 0, 60, 0
2, 167932, Note_on_c, 0, 88, 0
2, 167936, Note_on_c, 0, 54, 0
2, 167976, Note_on_c, 0, 76, 0
2, 168032, Note_on_c, 0, 64, 0
2, 168124, Control_c, 0, 64, 0
2, 168180, Note_on_c, 0, 63, 47
2, 168188, Note_on_c, 0, 67, 55
2, 168192, Note_on_c, 0, 85, 53
2, 168192, Note_on_c, 0, 62, 36
2, 168200, Note_on_c, 0, 73, 30
2, 168200, Note_on_c, 0, 57, 44
2, 168224, Note_on_c, 0, 73, 0
2, 168224, Note_on_c, 0, 72, 51
2, 168252, Note_on_c, 0, 85, 0
2, 168276, Note_on_c, 0, 84, 35
2, 168344, Control_c, 0, 64, 127
2, 168368, Note_on_c, 0, 84, 0
2, 168376, Note_on_c, 0, 57, 0
2, 168388, Note_on_c, 0, 72, 0
2, 168392, Note_on_c, 0, 67, 0
2, 168408, Note_on_c, 0, 62, 0
2, 168412, Note_on_c, 0, 63, 0
2, 168484, Control_c, 0, 64, 0
2, 168560, Note_on_c, 0, 63, 46
2, 168564, Note_on_c, 0, 62, 44
2, 168568, Note_on_c, 0, 67, 54
2, 168568, Note_on_c, 0, 82, 47
2, 168576, Note_on_c, 0, 70, 37
2, 168592, Note_on_c, 0, 67, 0
2, 168604, Note_on_c, 0, 62, 0
2, 168612, Control_c, 0, 64, 127
2, 168644, Note_on_c, 0, 63, 0
2, 168672, Note_on_c, 0, 70, 0
2, 168672, Note_on_c, 0, 82, 0
2, 168880, Control_c, 0, 64, 0
2, 168940, Note_on_c, 0, 56, 51
2, 168940, Note_on_c, 0, 62, 53
2, 168944, Note_on_c, 0, 67, 44
2, 168952, Note_on_c, 0, 74, 55
2, 168952, Note_on_c, 0, 86, 51
2, 168960, Note_on_c, 0, 81, 54
2, 168988, Control_c, 0, 64, 127
2, 169044, Note_on_c, 0, 67, 0
2, 169072, Note_on_c, 0, 74, 0
2, 169080, Note_on_c, 0, 56, 0
2, 169088, Note_on_c, 0, 81, 0
2, 169092, Note_on_c, 0, 86, 0
2, 169100, Note_on_c, 0, 62, 0
2, 169208, Note_on_c, 0, 56, 65
2, 169208, Note_on_c, 0, 88, 78
2, 169212, Note_on_c, 0, 67, 67
2, 169212, Note_on_c, 0, 81, 77
2, 169216, Note_on_c, 0, 76, 71
2, 169216, Note_on_c, 0, 62, 62
2, 169264, Note_on_c, 0, 67, 0
2, 169268, Control_c, 0, 64, 0
2, 169284, Note_on_c, 0, 88, 0
2, 169288, Note_on_c, 0, 56, 0
2, 169288, Note_on_c, 0, 76, 0
2, 169300, Note_on_c, 0, 62, 0
2, 169312, Note_on_c, 0, 81, 0
2, 169360, Note_on_c, 0, 56, 50
2, 169364, Note_on_c, 0, 86, 54
2, 169368, Note_on_c, 0, 67, 48
2, 169368, Note_on_c, 0, 62, 64
2, 169376, Note_on_c, 0, 74, 53
2, 169380, Note_on_c, 0, 81, 57
2, 169404, Control_c, 0, 64, 127
2, 169420, Note_on_c, 0, 67, 0
2, 169440, Note_on_c, 0, 74, 0
2, 169460, Note_on_c, 0, 81, 0
2, 169464, Note_on_c, 0, 56, 0
2, 169464, Note_on_c, 0, 62, 0
2, 169468, Note_on_c, 0, 86, 0
2, 169616, Control_c, 0, 64, 0
2, 169620, Note_on_c, 0, 84, 87
2, 169628, Note_on_c, 0, 72, 79
2, 169632, Note_on_c, 0, 62, 72
2, 169632, Note_on_c, 0, 56, 70
2, 169636, Note_on_c, 0, 67, 78
2, 169652, Note_on_c, 0, 78, 32
2, 169676, Note_on_c, 0, 78, 0
2, 169708, Note_on_c, 0, 67, 0
2, 169712, Note_on_c, 0, 72, 0
2, 169732, Note_on_c, 0, 84, 0
2, 169748, Note_on_c, 0, 62, 0
2, 169776, Note_on_c, 0, 56, 0
2, 169776, Control_c, 0, 64, 127
2, 169932, Control_c, 0, 64, 0
2, 169972, Note_on_c, 0, 81, 68
2, 169972, Note_on_c, 0, 62, 69
2, 169972, Note_on_c, 0, 56, 64
2, 169976, Note_on_c, 0, 67, 74
2, 169976, Note_on_c, 0, 69, 75
2, 170024, Note_on_c, 0, 67, 0
2, 170028, Note_on_c, 0, 69, 0
2, 170060, Note_on_c, 0, 62, 0
2, 170068, Note_on_c, 0, 81, 0
2, 170088, Note_on_c, 0, 56, 0
2, 170100, Control_c, 0, 64, 127
2, 170328, Note_on_c, 0, 61, 72
2, 170328, Note_on_c, 0, 60, 74
2, 170328, Control_c, 0, 64, 0
2, 170336, Note_on_c, 0, 84, 90
2, 170336, Note_on_c, 0, 65, 83
2, 170336, Note_on_c, 0, 72, 94
2, 170336, Note_on_c, 0, 77, 90
2, 170344, Note_on_c, 0, 58, 43
2, 170344, Note_on_c, 0, 55, 68
2, 170344, Note_on_c, 0, 81, 74
2, 170380, Note_on_c, 0, 58, 0
2, 170380, Note_on_c, 0, 72, 0
2, 170384, Note_on_c, 0, 60, 0
2, 170400, Note_on_c, 0, 77, 0
2, 170424, Note_on_c, 0, 61, 0
2, 170432, Note_on_c, 0, 84, 0
2, 170432, Note_on_c, 0, 81, 0
2, 170432, Note_on_c, 0, 65, 0
2, 170452, Note_on_c, 0, 72, 54
2, 170468, Control_c, 0, 64, 127
2, 170484, Note_on_c, 0, 60, 58
2, 170496, Note_on_c, 0, 58, 21
2, 170504, Note_on_c, 0, 84, 41
2, 170508, Note_on_c, 0, 61, 53
2, 170512, Note_on_c, 0, 81, 46
2, 170516, Note_on_c, 0, 55, 0
2, 170520, Note_on_c, 0, 72, 0
2, 170520, Control_c, 0, 64, 0
2, 170520, Note_on_c, 0, 65, 47
2, 170524, Note_on_c, 0, 77, 50
2, 170536, Note_on_c, 0, 58, 0
2, 170536, Note_on_c, 0, 60, 0
2, 170564, Note_on_c, 0, 77, 0
2, 170580, Note_on_c, 0, 61, 0
2, 170580, Note_on_c, 0, 72, 56
2, 170584, Note_on_c, 0, 84, 0
2, 170588, Note_on_c, 0, 81, 0
2, 170604, Note_on_c, 0, 65, 0
2, 170636, Note_on_c, 0, 55, 43
2, 170644, Control_c, 0, 64, 127
2, 170648, Note_on_c, 0, 60, 46
2, 170652, Note_on_c, 0, 84, 40
2, 170656, Note_on_c, 0, 58, 29
2, 170664, Note_on_c, 0, 72, 0
2, 170676, Note_on_c, 0, 55, 0
2, 170684, Note_on_c, 0, 77, 58
2, 170692, Note_on_c, 0, 61, 46
2, 170720, Note_on_c, 0, 60, 0
2, 170728, Note_on_c, 0, 58, 0
2, 170728, Note_on_c, 0, 84, 0
2, 170736, Control_c, 0, 64, 0
2, 170740, Note_on_c, 0, 61, 0
2, 170752, Note_on_c, 0, 77, 0
2, 171092, Note_on_c, 0, 61, 69
2, 171096, Note_on_c, 0, 65, 79
2, 171096, Note_on_c, 0, 60, 67
2, 171100, Note_on_c, 0, 69, 69
2, 171104, Note_on_c, 0, 74, 64
2, 171108, Note_on_c, 0, 58, 33
2, 171108, Note_on_c, 0, 81, 53
2, 171112, Note_on_c, 0, 77, 40
2, 171120, Note_on_c, 0, 60, 0
2, 171120, Note_on_c, 0, 65, 0
2, 171124, Note_on_c, 0, 69, 0
2, 171132, Note_on_c, 0, 74, 0
2, 171136, Note_on_c, 0, 58, 0
2, 171144, Note_on_c, 0, 77, 0
2, 171144, Note_on_c, 0, 61, 0
2, 171148, Note_on_c, 0, 81, 0
2, 171256, Note_on_c, 0, 72, 74
2, 171260, Note_on_c, 0, 80, 59
2, 171264, Note_on_c, 0, 61, 55
2, 171264, Note_on_c, 0, 84, 65
2, 171268, Note_on_c, 0, 65, 70
2, 171272, Note_on_c, 0, 60, 54
2, 171280, Note_on_c, 0, 55, 55
2, 171288, Note_on_c, 0, 58, 32
2, 171328, Note_on_c, 0, 55, 0
2, 171336, Note_on_c, 0, 72, 0
2, 171336, Note_on_c, 0, 65, 0
2, 171336, Note_on_c, 0, 60, 0
2, 171348, Note_on_c, 0, 80, 0
2, 171356, Note_on_c, 0, 81, 55
2, 171360, Note_on_c, 0, 58, 0
2, 171368, Note_on_c, 0, 61, 0
2, 171384, Note_on_c, 0, 81, 0
2, 171384, Note_on_c, 0, 83, 33
2, 171396, Note_on_c, 0, 84, 0
2, 171412, Note_on_c, 0, 83, 0
2, 171496, Note_on_c, 0, 87, 79
2, 171500, Note_on_c, 0, 75, 74
2, 171504, Note_on_c, 0, 80, 63
2, 171504, Note_on_c, 0, 61, 64
2, 171508, Note_on_c, 0, 65, 75
2, 171508, Note_on_c, 0, 60, 64
2, 171524, Note_on_c, 0, 55, 48
2, 171524, Note_on_c, 0, 58, 32
2, 171532, Note_on_c, 0, 85, 29
2, 171536, Note_on_c, 0, 65, 0
2, 171548, Note_on_c, 0, 55, 0
2, 171552, Note_on_c, 0, 58, 0
2, 171552, Note_on_c, 0, 60, 0
2, 171568, Note_on_c, 0, 80, 0
2, 171580, Note_on_c, 0, 87, 0
2, 171580, Note_on_c, 0, 75, 0
2, 171584, Note_on_c, 0, 61, 0
2, 171600, Note_on_c, 0, 85, 0
2, 171692, Note_on_c, 0, 61, 25
2, 171696, Note_on_c, 0, 84, 60
2, 171700, Note_on_c, 0, 55, 33
2, 171700, Note_on_c, 0, 65, 28
2, 171708, Note_on_c, 0, 60, 24
2, 171708, Note_on_c, 0, 72, 62
2, 171728, Note_on_c, 0, 65, 0
2, 171744, Note_on_c, 0, 84, 0
2, 171748, Note_on_c, 0, 60, 0
2, 171752, Note_on_c, 0, 55, 0
2, 171756, Note_on_c, 0, 72, 0
2, 171760, Note_on_c, 0, 61, 0
2, 171856, Note_on_c, 0, 55, 40
2, 171860, Note_on_c, 0, 61, 47
2, 171884, Note_on_c, 0, 81, 48
2, 171884, Note_on_c, 0, 58, 25
2, 171888, Note_on_c, 0, 67, 44
2, 171892, Note_on_c, 0, 69, 53
2, 171916, Note_on_c, 0, 69, 0
2, 171916, Note_on_c, 0, 67, 0
2, 171920, Note_on_c, 0, 55, 0
2, 171932, Note_on_c, 0, 61, 0
2, 171932, Note_on_c, 0, 58, 0
2, 171944, Note_on_c, 0, 81, 0
2, 172016, Note_on_c, 0, 64, 47
2, 172020, Note_on_c, 0, 80, 53
2, 172020, Note_on_c, 0, 72, 68
2, 172020, Note_on_c, 0, 60, 49
2, 172032, Note_on_c, 0, 84, 68
2, 172036, Note_on_c, 0, 54, 43
2, 172108, Note_on_c, 0, 72, 0
2, 172128, Note_on_c, 0, 81, 40
2, 172140, Note_on_c, 0, 80, 0
2, 172160, Note_on_c, 0, 81, 0
2, 172172, Note_on_c, 0, 84, 0
2, 172176, Note_on_c, 0, 64, 0
2, 172180, Note_on_c, 0, 60, 0
2, 172196, Note_on_c, 0, 54, 0
2, 172360, Note_on_c, 0, 80, 45
2, 172364, Note_on_c, 0, 54, 54
2, 172364, Note_on_c, 0, 68, 57
2, 172372, Note_on_c, 0, 64, 52
2, 172392, Note_on_c, 0, 60, 42
2, 172400, Note_on_c, 0, 74, 39
2, 172408, Note_on_c, 0, 77, 30
2, 172440, Note_on_c, 0, 80, 0
2, 172448, Note_on_c, 0, 68, 0
2, 172464, Note_on_c, 0, 69, 48
2, 172492, Note_on_c, 0, 69, 0
2, 172504, Note_on_c, 0, 60, 0
2, 172528, Note_on_c, 0, 74, 0
2, 172532, Note_on_c, 0, 77, 0
2, 172548, Note_on_c, 0, 64, 0
2, 172556, Note_on_c, 0, 54, 0
2, 172780, Note_on_c, 0, 54, 61
2, 172784, Note_on_c, 0, 64, 62
2, 172784, Note_on_c, 0, 80, 60
2, 172788, Note_on_c, 0, 72, 70
2, 172792, Note_on_c, 0, 84, 67
2, 172800, Note_on_c, 0, 60, 32
2, 172800, Note_on_c, 0, 78, 39
2, 172872, Note_on_c, 0, 60, 0
2, 172888, Note_on_c, 0, 78, 0
2, 172896, Note_on_c, 0, 54, 0
2, 172912, Note_on_c, 0, 72, 0
2, 172928, Note_on_c, 0, 80, 0
2, 172928, Note_on_c, 0, 81, 58
2, 172948, Note_on_c, 0, 64, 0
2, 172964, Note_on_c, 0, 81, 0
2, 172968, Note_on_c, 0, 84, 0
2, 173152, Note_on_c, 0, 87, 78
2, 173156, Note_on_c, 0, 60, 59
2, 173156, Note_on_c, 0, 75, 81
2, 173156, Note_on_c, 0, 54, 70
2, 173164, Note_on_c, 0, 64, 71
2, 173176, Note_on_c, 0, 81, 52
2, 173264, Note_on_c, 0, 87, 0
2, 173280, Note_on_c, 0, 83, 7
2, 173296, Note_on_c, 0, 75, 0
2, 173296, Note_on_c, 0, 76, 49
2, 173320, Note_on_c, 0, 60, 0
2, 173340, Note_on_c, 0, 83, 0
2, 173360, Note_on_c, 0, 56, 19
2, 173368, Note_on_c, 0, 81, 0
2, 173376, Note_on_c, 0, 76, 0
2, 173400, Note_on_c, 0, 54, 0
2, 173404, Note_on_c, 0, 64, 0
2, 173416, Note_on_c, 0, 56, 0
2, 173524, Note_on_c, 0, 59, 64
2, 173528, Note_on_c, 0, 64, 62
2, 173532, Note_on_c, 0, 72, 70
2, 173536, Note_on_c, 0, 84, 63
2, 173536, Note_on_c, 0, 80, 47
2, 173540, Note_on_c, 0, 53, 44
2, 173548, Note_on_c, 0, 78, 37
2, 173668, Note_on_c, 0, 78, 0
2, 173668, Note_on_c, 0, 59, 0
2, 173704, Note_on_c, 0, 80, 0
2, 173708, Note_on_c, 0, 84, 0
2, 173708, Note_on_c, 0, 81, 55
2, 173728, Note_on_c, 0, 64, 0
2, 173736, Note_on_c, 0, 81, 0
2, 173736, Note_on_c, 0, 53, 0
2, 173748, Note_on_c, 0, 72, 0
2, 173900, Note_on_c, 0, 64, 72
2, 173904, Note_on_c, 0, 59, 68
2, 173912, Note_on_c, 0, 80, 42
2, 173920, Note_on_c, 0, 53, 48
2, 173924, Note_on_c, 0, 68, 62
2, 173944, Note_on_c, 0, 74, 42
2, 173952, Note_on_c, 0, 64, 0
2, 173964, Note_on_c, 0, 77, 34
2, 173972, Note_on_c, 0, 59, 0
2, 174000, Note_on_c, 0, 80, 0
2, 174000, Note_on_c, 0, 81, 49
2, 174004, Note_on_c, 0, 68, 0
2, 174016, Note_on_c, 0, 53, 0
2, 174016, Note_on_c, 0, 69, 55
2, 174056, Note_on_c, 0, 69, 0
2, 174100, Note_on_c, 0, 74, 0
2, 174116, Note_on_c, 0, 77, 0
2, 174144, Note_on_c, 0, 81, 0
2, 174188, Note_on_c, 0, 55, 101
2, 174192, Note_on_c, 0, 54, 75
2, 174268, Note_on_c, 0, 54, 0
2, 174340, Note_on_c, 0, 86, 50
2, 174340, Note_on_c, 0, 84, 49
2, 174364, Note_on_c, 0, 72, 17
2, 174384, Note_on_c, 0, 81, 22
2, 174428, Note_on_c, 0, 72, 0
2, 174440, Note_on_c, 0, 86, 0
2, 174484, Note_on_c, 0, 81, 0
2, 174484, Note_on_c, 0, 84, 0
2, 174520, Control_c, 0, 64, 127
2, 174568, Note_on_c, 0, 43, 66
2, 174572, Control_c, 0, 64, 0
2, 174596, Note_on_c, 0, 43, 0
2, 174620, Note_on_c, 0, 55, 0
2, 174688, Note_on_c, 0, 87, 83
2, 174692, Note_on_c, 0, 75, 79
2, 174708, Note_on_c, 0, 81, 58
2, 174732, Control_c, 0, 64, 127
2, 174800, Note_on_c, 0, 87, 0
2, 174816, Note_on_c, 0, 88, 24
2, 174824, Note_on_c, 0, 75, 0
2, 174824, Note_on_c, 0, 76, 44
2, 174844, Note_on_c, 0, 88, 0
2, 174876, Note_on_c, 0, 76, 0
2, 174884, Note_on_c, 0, 81, 0
2, 174932, Note_on_c, 0, 58, 53
2, 174956, Note_on_c, 0, 58, 0
2, 175000, Control_c, 0, 64, 0
2, 175068, Note_on_c, 0, 84, 76
2, 175072, Note_on_c, 0, 72, 68
2, 175076, Note_on_c, 0, 78, 61
2, 175176, Control_c, 0, 64, 127
2, 175200, Note_on_c, 0, 78, 0
2, 175212, Note_on_c, 0, 79, 43
2, 175228, Note_on_c, 0, 72, 0
2, 175248, Note_on_c, 0, 79, 0
2, 175252, Note_on_c, 0, 84, 0
2, 175320, Note_on_c, 0, 62, 87
2, 175320, Note_on_c, 0, 59, 68
2, 175328, Note_on_c, 0, 55, 56
2, 175328, Note_on_c, 0, 52, 73
2, 175332, Control_c, 0, 64, 0
2, 175600, Control_c, 0, 64, 127
2, 175812, Control_c, 0, 64, 0
2, 175816, Note_on_c, 0, 62, 0
2, 175844, Note_on_c, 0, 59, 0
2, 175868, Note_on_c, 0, 79, 69
2, 175868, Note_on_c, 0, 75, 62
2, 175884, Note_on_c, 0, 55, 0
2, 175912, Note_on_c, 0, 52, 0
2, 175932, Note_on_c, 0, 75, 0
2, 175948, Note_on_c, 0, 76, 49
2, 176004, Note_on_c, 0, 79, 0
2, 176024, Note_on_c, 0, 76, 0
2, 176104, Note_on_c, 0, 55, 94
2, 176108, Note_on_c, 0, 54, 71
2, 176132, Note_on_c, 0, 81, 80
2, 176136, Note_on_c, 0, 77, 75
2, 176192, Note_on_c, 0, 77, 0
2, 176200, Note_on_c, 0, 81, 0
2, 176204, Note_on_c, 0, 54, 0
2, 176288, Note_on_c, 0, 76, 62
2, 176308, Note_on_c, 0, 79, 57
2, 176384, Note_on_c, 0, 76, 0
2, 176404, Note_on_c, 0, 79, 0
2, 176504, Note_on_c, 0, 72, 78
2, 176580, Note_on_c, 0, 72, 0
2, 176640, Note_on_c, 0, 67, 44
2, 176800, Note_on_c, 0, 67, 0
2, 176876, Note_on_c, 0, 65, 71
2, 176880, Note_on_c, 0, 43, 55
2, 176932, Note_on_c, 0, 43, 0
2, 176952, Note_on_c, 0, 65, 0
2, 177032, Note_on_c, 0, 64, 14
2, 177100, Note_on_c, 0, 55, 0
2, 177160, Control_c, 0, 64, 127
2, 177220, Note_on_c, 0, 64, 0
2, 177248, Note_on_c, 0, 55, 76
2, 177256, Note_on_c, 0, 54, 51
2, 177288, Note_on_c, 0, 54, 0
2, 177292, Note_on_c, 0, 55, 0
2, 177336, Control_c, 0, 64, 0
2, 177380, Note_on_c, 0, 66, 75
2, 177392, Note_on_c, 0, 72, 67
2, 177428, Note_on_c, 0, 66, 0
2, 177440, Note_on_c, 0, 65, 64
2, 177620, Note_on_c, 0, 72, 0
2, 177632, Note_on_c, 0, 55, 54
2, 177644, Note_on_c, 0, 54, 35
2, 177660, Note_on_c, 0, 55, 0
2, 177668, Note_on_c, 0, 54, 0
2, 177672, Note_on_c, 0, 65, 0
2, 177744, Note_on_c, 0, 63, 53
2, 177996, Note_on_c, 0, 63, 0
2, 178004, Note_on_c, 0, 60, 51
2, 178092, Note_on_c, 0, 60, 0
2, 178144, Note_on_c, 0, 58, 46
2, 178512, Note_on_c, 0, 58, 0
2, 178536, Note_on_c, 0, 60, 83
2, 178800, Note_on_c, 0, 60, 0
2, 178948, Note_on_c, 0, 58, 46
2, 179248, Note_on_c, 0, 58, 0
2, 179304, Note_on_c, 0, 60, 82
2, 179496, Note_on_c, 0, 60, 0
2, 179708, Note_on_c, 0, 55, 69
2, 179712, Note_on_c, 0, 65, 62
2, 179716, Note_on_c, 0, 61, 43
2, 179836, Note_on_c, 0, 65, 0
2, 179836, Note_on_c, 0, 55, 0
2, 179892, Note_on_c, 0, 61, 0
2, 180076, Note_on_c, 0, 60, 53
2, 180076, Note_on_c, 0, 64, 51
2, 180088, Note_on_c, 0, 54, 44
2, 180244, Note_on_c, 0, 60, 0
2, 180256, Note_on_c, 0, 64, 0
2, 180292, Note_on_c, 0, 54, 0
2, 180464, Note_on_c, 0, 63, 51
2, 180476, Note_on_c, 0, 59, 49
2, 180484, Note_on_c, 0, 53, 38
2, 180644, Note_on_c, 0, 59, 0
2, 180668, Control_c, 0, 64, 127
2, 180760, Note_on_c, 0, 59, 37
2, 180772, Control_c, 0, 64, 0
2, 180800, Note_on_c, 0, 63, 0
2, 180840, Note_on_c, 0, 59, 0
2, 180852, Note_on_c, 0, 93, 113
2, 180900, Note_on_c, 0, 53, 0
2, 180956, Control_c, 0, 64, 127
2, 181072, Note_on_c, 0, 93, 0
2, 181120, Note_on_c, 0, 87, 98
2, 181132, Control_c, 0, 64, 0
2, 181140, Note_on_c, 0, 62, 43
2, 181148, Note_on_c, 0, 58, 29
2, 181168, Note_on_c, 0, 62, 0
2, 181188, Note_on_c, 0, 58, 0
2, 181332, Control_c, 0, 64, 127
2, 181356, Note_on_c, 0, 87, 0
2, 181372, Note_on_c, 0, 84, 92
2, 181504, Note_on_c, 0, 84, 0
2, 181528, Note_on_c, 0, 62, 62
2, 181532, Note_on_c, 0, 58, 51
2, 181560, Note_on_c, 0, 62, 0
2, 181592, Note_on_c, 0, 58, 0
2, 181620, Control_c, 0, 64, 0
2, 181624, Note_on_c, 0, 81, 91
2, 181836, Note_on_c, 0, 81, 0
2, 181880, Note_on_c, 0, 75, 91
2, 182072, Note_on_c, 0, 75, 0
2, 182112, Note_on_c, 0, 72, 80
2, 182136, Control_c, 0, 64, 127
2, 182212, Note_on_c, 0, 72, 0
2, 182260, Note_on_c, 0, 65, 73
2, 182268, Note_on_c, 0, 61, 58
2, 182280, Note_on_c, 0, 55, 44
2, 182284, Note_on_c, 0, 65, 0
2, 182308, Note_on_c, 0, 55, 0
2, 182340, Note_on_c, 0, 61, 0
2, 182356, Control_c, 0, 64, 0
2, 182380, Note_on_c, 0, 69, 84
2, 182592, Note_on_c, 0, 69, 0
2, 182640, Note_on_c, 0, 63, 82
2, 182832, Note_on_c, 0, 63, 0
2, 182892, Note_on_c, 0, 60, 50
2, 183004, Note_on_c, 0, 54, 61
2, 183012, Note_on_c, 0, 60, 0
2, 183012, Note_on_c, 0, 55, 61
2, 183036, Note_on_c, 0, 55, 0
2, 183048, Note_on_c, 0, 54, 0
2, 183076, Control_c, 0, 64, 127
2, 183108, Control_c, 0, 64, 0
2, 183144, Note_on_c, 0, 57, 57
2, 183320, Note_on_c, 0, 57, 0
2, 183424, Note_on_c, 0, 51, 77
2, 183584, Note_on_c, 0, 51, 0
2, 183632, Note_on_c, 0, 48, 66
2, 183772, Note_on_c, 0, 42, 62
2, 183784, Note_on_c, 0, 43, 47
2, 183792, Note_on_c, 0, 48, 0
2, 183808, Note_on_c, 0, 43, 0
2, 183820, Note_on_c, 0, 42, 0
2, 183908, Note_on_c, 0, 46, 61
2, 183972, Control_c, 0, 64, 127
2, 184112, Note_on_c, 0, 46, 0
2, 184172, Note_on_c, 0, 43, 61
2, 184176, Note_on_c, 0, 24, 99
2, 184180, Note_on_c, 0, 45, 60
2, 184180, Note_on_c, 0, 36, 103
2, 184188, Control_c, 0, 64, 0
2, 184192, Note_on_c, 0, 35, 49
2, 184204, Note_on_c, 0, 43, 0
2, 184212, Note_on_c, 0, 45, 0
2, 184220, Note_on_c, 0, 35, 0
2, 184308, Note_on_c, 0, 24, 0
2, 184340, Note_on_c, 0, 36, 0
2, 185060, Note_on_c, 0, 62, 60
2, 185064, Note_on_c, 0, 59, 50
2, 185080, Note_on_c, 0, 55, 48
2, 185084, Note_on_c, 0, 62, 0
2, 185112, Note_on_c, 0, 55, 0
2, 185124, Note_on_c, 0, 59, 0
2, 185652, Control_c, 0, 64, 127
2, 185756, Control_c, 0, 64, 0
2, 185988, Control_c, 0, 64, 127
2, 186096, Note_on_c, 0, 62, 51
2, 186116, Note_on_c, 0, 59, 27
2, 186120, Note_on_c, 0, 62, 0
2, 186144, Note_on_c, 0, 59, 0
2, 186152, Control_c, 0, 64, 0
2, 186440, Control_c, 0, 64, 127
2, 186560, Control_c, 0, 64, 0
2, 186632, Note_on_c, 0, 52, 62
2, 186684, Note_on_c, 0, 52, 0
2, 186748, Note_on_c, 0, 55, 51
2, 186788, Note_on_c, 0, 55, 0
2, 186828, Note_on_c, 0, 59, 71
2, 186920, Note_on_c, 0, 59, 0
2, 186932, Note_on_c, 0, 62, 78
2, 186988, Note_on_c, 0, 62, 0
2, 187016, Note_on_c, 0, 59, 54
2, 187104, Note_on_c, 0, 59, 0
2, 187120, Note_on_c, 0, 60, 57
2, 187196, Note_on_c, 0, 60, 0
2, 187228, Note_on_c, 0, 64, 58
2, 187292, Note_on_c, 0, 64, 0
2, 187320, Note_on_c, 0, 67, 59
2, 187344, Note_on_c, 0, 67, 0
2, 187448, Note_on_c, 0, 69, 20
2, 187544, Note_on_c, 0, 69, 0
2, 187676, Note_on_c, 0, 65, 49
2, 187696, Note_on_c, 0, 62, 33
2, 187704, Note_on_c, 0, 65, 0
2, 187724, Note_on_c, 0, 62, 0
2, 188032, Note_on_c, 0, 65, 48
2, 188060, Note_on_c, 0, 65, 0
2, 188164, Note_on_c, 0, 69, 59
2, 188172, Note_on_c, 0, 67, 62
2, 188192, Note_on_c, 0, 67, 0
2, 188208, Note_on_c, 0, 69, 0
2, 188280, Note_on_c, 0, 71, 74
2, 188352, Control_c, 0, 64, 127
2, 188356, Note_on_c, 0, 71, 0
2, 188392, Note_on_c, 0, 76, 71
2, 188440, Note_on_c, 0, 76, 0
2, 188532, Note_on_c, 0, 81, 66
2, 188568, Note_on_c, 0, 81, 0
2, 188664, Note_on_c, 0, 83, 74
2, 188724, Note_on_c, 0, 83, 0
2, 188784, Note_on_c, 0, 88, 96
2, 188788, Note_on_c, 0, 57, 32
2, 188796, Note_on_c, 0, 65, 37
2, 188808, Note_on_c, 0, 62, 32
2, 188816, Note_on_c, 0, 57, 0
2, 188828, Note_on_c, 0, 65, 0
2, 188840, Note_on_c, 0, 62, 0
2, 188876, Note_on_c, 0, 88, 0
2, 188876, Control_c, 0, 64, 0
2, 188908, Note_on_c, 0, 56, 67
2, 188908, Note_on_c, 0, 62, 53
2, 188912, Note_on_c, 0, 67, 62
2, 188920, Note_on_c, 0, 86, 72
2, 189036, Control_c, 0, 64, 127
2, 189176, Note_on_c, 0, 67, 0
2, 189192, Note_on_c, 0, 56, 0
2, 189200, Note_on_c, 0, 62, 0
2, 189200, Note_on_c, 0, 86, 0
2, 189236, Control_c, 0, 64, 0
2, 189312, Note_on_c, 0, 56, 55
2, 189316, Note_on_c, 0, 65, 50
2, 189316, Note_on_c, 0, 84, 79
2, 189324, Note_on_c, 0, 62, 47
2, 189368, Note_on_c, 0, 62, 0
2, 189368, Note_on_c, 0, 65, 0
2, 189376, Note_on_c, 0, 84, 0
2, 189388, Note_on_c, 0, 86, 64
2, 189476, Note_on_c, 0, 84, 70
2, 189484, Note_on_c, 0, 86, 0
2, 189532, Note_on_c, 0, 56, 0
2, 189544, Control_c, 0, 64, 127
2, 189580, Note_on_c, 0, 83, 64
2, 189584, Note_on_c, 0, 56, 15
2, 189588, Note_on_c, 0, 84, 0
2, 189592, Note_on_c, 0, 65, 41
2, 189608, Note_on_c, 0, 62, 35
2, 189628, Note_on_c, 0, 65, 0
2, 189644, Note_on_c, 0, 83, 0
2, 189652, Control_c, 0, 64, 0
2, 189656, Note_on_c, 0, 62, 0
2, 189688, Note_on_c, 0, 56, 0
2, 189712, Note_on_c, 0, 81, 75
2, 189856, Note_on_c, 0, 81, 0
2, 189928, Note_on_c, 0, 80, 64
2, 189940, Control_c, 0, 64, 127
2, 189948, Note_on_c, 0, 65, 60
2, 189952, Note_on_c, 0, 62, 52
2, 189960, Note_on_c, 0, 56, 36
2, 190000, Note_on_c, 0, 65, 0
2, 190020, Note_on_c, 0, 62, 0
2, 190032, Control_c, 0, 64, 0
2, 190052, Note_on_c, 0, 80, 0
2, 190072, Note_on_c, 0, 56, 0
2, 190104, Note_on_c, 0, 83, 74
2, 190316, Note_on_c, 0, 83, 0
2, 190320, Note_on_c, 0, 77, 64
2, 190320, Note_on_c, 0, 64, 52
2, 190324, Note_on_c, 0, 60, 43
2, 190328, Note_on_c, 0, 57, 38
2, 190368, Note_on_c, 0, 60, 0
2, 190372, Note_on_c, 0, 64, 0
2, 190404, Note_on_c, 0, 77, 0
2, 190464, Note_on_c, 0, 84, 72
2, 190464, Note_on_c, 0, 64, 40
2, 190468, Note_on_c, 0, 60, 44
2, 190468, Note_on_c, 0, 59, 48
2, 190500, Note_on_c, 0, 57, 0
2, 190504, Note_on_c, 0, 84, 0
2, 190584, Note_on_c, 0, 59, 0
2, 190588, Note_on_c, 0, 60, 0
2, 190600, Note_on_c, 0, 64, 0
2, 192000, Note_on_c, 0, 64, 62
2, 192004, Note_on_c, 0, 60, 54
2, 192004, Note_on_c, 0, 54, 52
2, 192008, Note_on_c, 0, 84, 88
2, 192124, Note_on_c, 0, 54, 0
2, 192124, Note_on_c, 0, 64, 0
2, 192128, Note_on_c, 0, 60, 0
2, 192140, Note_on_c, 0, 84, 0
2, 192732, Note_on_c, 0, 62, 47
2, 192740, Note_on_c, 0, 57, 50
2, 192740, Note_on_c, 0, 51, 39
2, 192816, Note_on_c, 0, 57, 0
2, 192816, Note_on_c, 0, 62, 0
2, 192832, Note_on_c, 0, 51, 0
2, 193380, Note_on_c, 0, 59, 52
2, 193388, Note_on_c, 0, 62, 51
2, 193408, Note_on_c, 0, 62, 0
2, 193408, Note_on_c, 0, 55, 33
2, 193440, Note_on_c, 0, 55, 0
2, 193444, Note_on_c, 0, 59, 0
2, 193508, Note_on_c, 0, 81, 105
2, 193704, Note_on_c, 0, 81, 0
2, 193732, Note_on_c, 0, 82, 51
2, 193776, Note_on_c, 0, 81, 66
2, 193804, Note_on_c, 0, 82, 0
2, 193876, Note_on_c, 0, 81, 0
2, 193908, Note_on_c, 0, 79, 38
2, 194084, Note_on_c, 0, 79, 0
2, 194152, Note_on_c, 0, 62, 51
2, 194164, Note_on_c, 0, 59, 46
2, 194172, Note_on_c, 0, 62, 0
2, 194172, Note_on_c, 0, 55, 37
2, 194180, Note_on_c, 0, 78, 78
2, 194208, Note_on_c, 0, 59, 0
2, 194212, Note_on_c, 0, 55, 0
2, 194288, Note_on_c, 0, 78, 0
2, 194368, Note_on_c, 0, 79, 79
2, 194476, Note_on_c, 0, 79, 0
2, 194568, Note_on_c, 0, 80, 81
2, 194660, Note_on_c, 0, 80, 0
2, 194728, Note_on_c, 0, 81, 78
2, 194840, Note_on_c, 0, 81, 0
2, 194936, Note_on_c, 0, 65, 66
2, 194940, Note_on_c, 0, 76, 73
2, 194944, Note_on_c, 0, 55, 47
2, 194948, Note_on_c, 0, 61, 51
2, 194980, Note_on_c, 0, 65, 0
2, 195008, Note_on_c, 0, 55, 0
2, 195020, Note_on_c, 0, 76, 0
2, 195068, Note_on_c, 0, 61, 0
2, 195132, Note_on_c, 0, 73, 33
2, 195288, Note_on_c, 0, 73, 0
2, 195312, Note_on_c, 0, 72, 58
2, 195364, Note_on_c, 0, 61, 30
2, 195396, Note_on_c, 0, 61, 0
2, 195404, Note_on_c, 0, 72, 0
2, 195468, Note_on_c, 0, 70, 37
2, 195664, Note_on_c, 0, 70, 0
2, 195704, Note_on_c, 0, 67, 36
2, 195716, Note_on_c, 0, 61, 30
2, 195748, Note_on_c, 0, 61, 0
2, 195764, Note_on_c, 0, 67, 0
2, 195848, Note_on_c, 0, 66, 56
2, 195916, Note_on_c, 0, 66, 0
2, 195956, Note_on_c, 0, 67, 71
2, 196028, Note_on_c, 0, 67, 0
2, 196068, Note_on_c, 0, 69, 77
2, 196136, Note_on_c, 0, 61, 37
2, 196168, Note_on_c, 0, 69, 0
2, 196184, Note_on_c, 0, 61, 0
2, 196196, Note_on_c, 0, 64, 49
2, 196292, Note_on_c, 0, 64, 0
2, 196320, Note_on_c, 0, 66, 57
2, 196380, Note_on_c, 0, 66, 0
2, 196432, Note_on_c, 0, 67, 66
2, 196496, Note_on_c, 0, 67, 0
2, 196700, Note_on_c, 0, 64, 43
2, 196740, Note_on_c, 0, 64, 0
2, 196804, Note_on_c, 0, 65, 67
2, 196880, Note_on_c, 0, 65, 0
2, 196904, Note_on_c, 0, 61, 47
2, 196976, Note_on_c, 0, 61, 0
2, 197020, Note_on_c, 0, 64, 61
2, 197092, Note_on_c, 0, 64, 0
2, 197128, Note_on_c, 0, 61, 38
2, 197196, Note_on_c, 0, 61, 0
2, 197228, Note_on_c, 0, 62, 75
2, 197308, Note_on_c, 0, 62, 0
2, 197340, Note_on_c, 0, 57, 49
2, 197372, Note_on_c, 0, 57, 0
2, 197440, Note_on_c, 0, 60, 51
2, 197552, Note_on_c, 0, 60, 0
2, 198120, Note_on_c, 0, 61, 46
2, 198128, Note_on_c, 0, 57, 33
2, 198156, Note_on_c, 0, 57, 0
2, 198156, Note_on_c, 0, 61, 0
2, 198520, Note_on_c, 0, 69, 89
2, 198608, Note_on_c, 0, 69, 0
2, 198640, Note_on_c, 0, 64, 44
2, 198680, Note_on_c, 0, 64, 0
2, 198756, Note_on_c, 0, 67, 77
2, 198768, Note_on_c, 0, 60, 49
2, 198784, Note_on_c, 0, 57, 32
2, 198796, Note_on_c, 0, 60, 0
2, 198828, Note_on_c, 0, 57, 0
2, 198860, Note_on_c, 0, 67, 0
2, 198928, Note_on_c, 0, 64, 33
2, 199000, Note_on_c, 0, 64, 0
2, 199048, Note_on_c, 0, 65, 70
2, 199140, Note_on_c, 0, 65, 0
2, 199188, Note_on_c, 0, 60, 47
2, 199288, Note_on_c, 0, 60, 0
2, 199356, Note_on_c, 0, 62, 19
2, 199412, Note_on_c, 0, 62, 0
2, 199452, Note_on_c, 0, 63, 49
2, 199516, Note_on_c, 0, 63, 0
2, 199568, Note_on_c, 0, 65, 58
2, 199648, Note_on_c, 0, 65, 0
2, 199688, Note_on_c, 0, 70, 60
2, 199780, Note_on_c, 0, 70, 0
2, 199808, Note_on_c, 0, 74, 74
2, 199872, Note_on_c, 0, 74, 0
2, 199948, Note_on_c, 0, 65, 39
2, 199952, Note_on_c, 0, 74, 60
2, 199976, Note_on_c, 0, 65, 0
2, 200004, Note_on_c, 0, 74, 0
2, 200076, Note_on_c, 0, 77, 65
2, 200168, Note_on_c, 0, 77, 0
2, 200200, Note_on_c, 0, 82, 78
2, 200212, Note_on_c, 0, 65, 58
2, 200236, Note_on_c, 0, 65, 0
2, 200284, Note_on_c, 0, 82, 0
2, 200348, Note_on_c, 0, 77, 46
2, 200368, Note_on_c, 0, 79, 24
2, 200392, Note_on_c, 0, 79, 0
2, 200404, Note_on_c, 0, 77, 0
2, 200460, Note_on_c, 0, 82, 67
2, 200544, Note_on_c, 0, 82, 0
2, 200584, Note_on_c, 0, 86, 76
2, 200596, Note_on_c, 0, 60, 27
2, 200596, Note_on_c, 0, 54, 23
2, 200600, Note_on_c, 0, 65, 25
2, 200624, Note_on_c, 0, 65, 0
2, 200636, Note_on_c, 0, 60, 0
2, 200644, Note_on_c, 0, 54, 0
2, 200648, Note_on_c, 0, 86, 0
2, 200712, Note_on_c, 0, 86, 70
2, 200728, Note_on_c, 0, 65, 42
2, 200736, Note_on_c, 0, 54, 31
2, 200736, Note_on_c, 0, 60, 42
2, 200756, Note_on_c, 0, 65, 0
2, 200764, Note_on_c, 0, 60, 0
2, 200776, Note_on_c, 0, 54, 0
2, 200780, Note_on_c, 0, 86, 0
2, 200840, Note_on_c, 0, 89, 76
2, 200908, Note_on_c, 0, 89, 0
2, 200960, Note_on_c, 0, 94, 74
2, 201024, Note_on_c, 0, 94, 0
2, 201080, Note_on_c, 0, 60, 46
2, 201084, Note_on_c, 0, 54, 46
2, 201088, Note_on_c, 0, 96, 83
2, 201088, Note_on_c, 0, 65, 44
2, 201156, Note_on_c, 0, 65, 0
2, 201156, Note_on_c, 0, 96, 0
2, 201184, Note_on_c, 0, 60, 0
2, 201252, Note_on_c, 0, 54, 0
2, 201252, Note_on_c, 0, 97, 46
2, 201276, Note_on_c, 0, 97, 0
2, 201352, Note_on_c, 0, 64, 62
2, 201352, Note_on_c, 0, 59, 61
2, 201356, Note_on_c, 0, 53, 57
2, 201360, Note_on_c, 0, 86, 84
2, 201360, Note_on_c, 0, 97, 62
2, 201360, Note_on_c, 0, 98, 84
2, 201380, Note_on_c, 0, 97, 0
2, 201384, Note_on_c, 0, 96, 57
2, 201404, Note_on_c, 0, 96, 0
2, 201516, Note_on_c, 0, 98, 0
2, 201516, Note_on_c, 0, 86, 0
2, 201528, Note_on_c, 0, 53, 0
2, 201540, Note_on_c, 0, 64, 0
2, 201544, Note_on_c, 0, 59, 0
2, 201592, Note_on_c, 0, 64, 68
2, 201596, Note_on_c, 0, 59, 77
2, 201596, Note_on_c, 0, 53, 60
2, 201600, Note_on_c, 0, 99, 81
2, 201600, Note_on_c, 0, 87, 79
2, 201748, Note_on_c, 0, 53, 0
2, 201768, Note_on_c, 0, 87, 0
2, 201768, Note_on_c, 0, 64, 0
2, 201772, Note_on_c, 0, 99, 0
2, 201776, Note_on_c, 0, 59, 0
2, 201844, Note_on_c, 0, 59, 65
2, 201848, Note_on_c, 0, 100, 69
2, 201848, Note_on_c, 0, 53, 75
2, 201848, Note_on_c, 0, 64, 71
2, 201852, Note_on_c, 0, 88, 79
2, 201860, Note_on_c, 0, 98, 64
2, 201860, Note_on_c, 0, 94, 50
2, 201920, Note_on_c, 0, 98, 0
2, 201948, Note_on_c, 0, 94, 0
2, 201968, Note_on_c, 0, 88, 0
2, 201976, Note_on_c, 0, 53, 0
2, 201984, Note_on_c, 0, 64, 0
2, 202000, Note_on_c, 0, 100, 0
2, 202008, Note_on_c, 0, 59, 0
2, 202056, Note_on_c, 0, 59, 62
2, 202060, Note_on_c, 0, 53, 73
2, 202064, Note_on_c, 0, 64, 60
2, 202064, Note_on_c, 0, 89, 82
2, 202064, Note_on_c, 0, 101, 83
2, 202204, Note_on_c, 0, 64, 0
2, 202204, Note_on_c, 0, 53, 0
2, 202208, Note_on_c, 0, 101, 0
2, 202220, Note_on_c, 0, 89, 0
2, 202268, Note_on_c, 0, 59, 0
2, 202308, Note_on_c, 0, 53, 67
2, 202312, Note_on_c, 0, 102, 75
2, 202312, Note_on_c, 0, 63, 71
2, 202316, Note_on_c, 0, 90, 71
2, 202320, Note_on_c, 0, 59, 72
2, 202332, Note_on_c, 0, 56, 42
2, 202456, Note_on_c, 0, 63, 0
2, 202460, Note_on_c, 0, 53, 0
2, 202468, Note_on_c, 0, 90, 0
2, 202472, Note_on_c, 0, 102, 0
2, 202476, Note_on_c, 0, 56, 0
2, 202484, Note_on_c, 0, 59, 0
2, 202568, Note_on_c, 0, 53, 64
2, 202568, Note_on_c, 0, 63, 60
2, 202572, Note_on_c, 0, 59, 54
2, 202584, Note_on_c, 0, 103, 76
2, 202588, Note_on_c, 0, 56, 43
2, 202588, Note_on_c, 0, 91, 70
2, 202656, Note_on_c, 0, 53, 0
2, 202668, Note_on_c, 0, 103, 0
2, 202676, Note_on_c, 0, 63, 0
2, 202680, Note_on_c, 0, 91, 0
2, 202696, Note_on_c, 0, 56, 0
2, 202744, Note_on_c, 0, 62, 44
2, 202748, Note_on_c, 0, 100, 64
2, 202748, Note_on_c, 0, 88, 66
2, 202756, Note_on_c, 0, 55, 49
2, 202764, Note_on_c, 0, 52, 39
2, 202860, Note_on_c, 0, 100, 0
2, 202896, Note_on_c, 0, 55, 0
2, 202900, Note_on_c, 0, 59, 0
2, 202900, Note_on_c, 0, 52, 0
2, 202904, Note_on_c, 0, 88, 0
2, 202912, Note_on_c, 0, 62, 0
2, 203476, Note_on_c, 0, 65, 39
2, 203480, Note_on_c, 0, 61, 43
2, 203480, Note_on_c, 0, 60, 42
2, 203484, Note_on_c, 0, 55, 46
2, 203504, Note_on_c, 0, 58, 28
2, 203632, Note_on_c, 0, 55, 0
2, 203640, Note_on_c, 0, 60, 0
2, 203652, Note_on_c, 0, 65, 0
2, 203660, Note_on_c, 0, 61, 0
2, 203660, Note_on_c, 0, 58, 0
2, 203864, Note_on_c, 0, 84, 85
2, 203864, Note_on_c, 0, 60, 65
2, 203864, Note_on_c, 0, 65, 73
2, 203864, Note_on_c, 0, 61, 56
2, 203868, Note_on_c, 0, 72, 73
2, 203872, Note_on_c, 0, 55, 62
2, 203872, Note_on_c, 0, 77, 70
2, 203884, Note_on_c, 0, 81, 51
2, 203888, Note_on_c, 0, 58, 28
2, 203988, Note_on_c, 0, 77, 0
2, 203988, Note_on_c, 0, 72, 0
2, 203996, Note_on_c, 0, 84, 0
2, 204000, Note_on_c, 0, 65, 0
2, 204004, Note_on_c, 0, 81, 0
2, 204004, Note_on_c, 0, 55, 0
2, 204012, Note_on_c, 0, 60, 0
2, 204024, Note_on_c, 0, 58, 0
2, 204024, Note_on_c, 0, 61, 0
2, 204152, Note_on_c, 0, 61, 65
2, 204152, Note_on_c, 0, 80, 77
2, 204156, Note_on_c, 0, 74, 80
2, 204156, Note_on_c, 0, 86, 83
2, 204160, Note_on_c, 0, 55, 72
2, 204160, Note_on_c, 0, 65, 73
2, 204188, Note_on_c, 0, 58, 23
2, 204260, Note_on_c, 0, 65, 0
2, 204264, Note_on_c, 0, 55, 0
2, 204276, Note_on_c, 0, 80, 0
2, 204284, Note_on_c, 0, 81, 36
2, 204288, Note_on_c, 0, 58, 0
2, 204296, Note_on_c, 0, 86, 0
2, 204300, Note_on_c, 0, 74, 0
2, 204308, Note_on_c, 0, 81, 0
2, 204316, Note_on_c, 0, 61, 0
2, 204380, Note_on_c, 0, 60, 49
2, 204380, Note_on_c, 0, 64, 54
2, 204384, Note_on_c, 0, 72, 66
2, 204384, Note_on_c, 0, 84, 68
2, 204388, Note_on_c, 0, 80, 58
2, 204388, Note_on_c, 0, 54, 40
2, 204396, Note_on_c, 0, 78, 48
2, 204524, Note_on_c, 0, 78, 0
2, 204540, Note_on_c, 0, 80, 0
2, 204556, Note_on_c, 0, 81, 34
2, 204560, Note_on_c, 0, 72, 0
2, 204564, Note_on_c, 0, 84, 0
2, 204568, Note_on_c, 0, 60, 0
2, 204576, Note_on_c, 0, 64, 0
2, 204584, Note_on_c, 0, 81, 0
2, 204588, Note_on_c, 0, 54, 0
2, 204936, Note_on_c, 0, 73, 50
2, 204940, Note_on_c, 0, 64, 60
2, 204940, Note_on_c, 0, 59, 61
2, 204944, Note_on_c, 0, 81, 48
2, 204944, Note_on_c, 0, 69, 51
2, 204956, Note_on_c, 0, 53, 39
2, 204960, Note_on_c, 0, 76, 50
2, 205024, Note_on_c, 0, 73, 0
2, 205032, Note_on_c, 0, 74, 33
2, 205036, Note_on_c, 0, 69, 0
2, 205040, Note_on_c, 0, 81, 0
2, 205048, Note_on_c, 0, 64, 0
2, 205052, Note_on_c, 0, 53, 0
2, 205056, Note_on_c, 0, 74, 0
2, 205056, Note_on_c, 0, 76, 0
2, 205064, Note_on_c, 0, 59, 0
2, 205164, Note_on_c, 0, 67, 56
2, 205164, Note_on_c, 0, 79, 48
2, 205168, Note_on_c, 0, 64, 48
2, 205168, Note_on_c, 0, 53, 46
2, 205168, Note_on_c, 0, 75, 49
2, 205172, Note_on_c, 0, 59, 55
2, 205276, Note_on_c, 0, 75, 0
2, 205276, Note_on_c, 0, 64, 0
2, 205280, Note_on_c, 0, 79, 0
2, 205284, Note_on_c, 0, 76, 50
2, 205304, Note_on_c, 0, 67, 0
2, 205304, Note_on_c, 0, 53, 0
2, 205308, Note_on_c, 0, 76, 0
2, 205316, Note_on_c, 0, 59, 0
2, 205440, Note_on_c, 0, 53, 50
2, 205440, Note_on_c, 0, 65, 35
2, 205444, Note_on_c, 0, 59, 47
2, 205444, Note_on_c, 0, 63, 40
2, 205448, Note_on_c, 0, 76, 36
2, 205448, Note_on_c, 0, 68, 40
2, 205528, Note_on_c, 0, 76, 0
2, 205532, Note_on_c, 0, 68, 0
2, 205540, Note_on_c, 0, 65, 0
2, 205588, Note_on_c, 0, 53, 0
2, 205600, Note_on_c, 0, 63, 0
2, 205632, Note_on_c, 0, 59, 0
2, 205692, Note_on_c, 0, 62, 28
2, 205696, Note_on_c, 0, 67, 58
2, 205700, Note_on_c, 0, 72, 40
2, 205704, Note_on_c, 0, 55, 49
2, 205704, Note_on_c, 0, 59, 37
2, 205708, Note_on_c, 0, 52, 45
2, 205736, Note_on_c, 0, 72, 0
2, 205744, Note_on_c, 0, 62, 0
2, 205752, Note_on_c, 0, 67, 0
2, 205768, Note_on_c, 0, 52, 0
2, 205784, Note_on_c, 0, 59, 0
2, 205796, Note_on_c, 0, 55, 0
2, 206408, Note_on_c, 0, 54, 39
2, 206436, Note_on_c, 0, 54, 0
2, 206440, Note_on_c, 0, 55, 65
2, 206444, Note_on_c, 0, 69, 80
2, 206452, Note_on_c, 0, 64, 71
2, 206452, Note_on_c, 0, 58, 74
2, 206460, Note_on_c, 0, 61, 67
2, 206464, Note_on_c, 0, 57, 73
2, 206488, Note_on_c, 0, 55, 0
2, 206560, Note_on_c, 0, 61, 0
2, 206560, Note_on_c, 0, 69, 0
2, 206564, Note_on_c, 0, 58, 0
2, 206576, Note_on_c, 0, 64, 0
2, 206616, Note_on_c, 0, 57, 0
2, 206632, Note_on_c, 0, 58, 44
2, 206640, Note_on_c, 0, 67, 43
2, 206640, Note_on_c, 0, 64, 40
2, 206644, Note_on_c, 0, 61, 45
2, 206648, Note_on_c, 0, 55, 55
2, 206676, Note_on_c, 0, 55, 0
2, 206676, Note_on_c, 0, 67, 0
2, 206696, Note_on_c, 0, 64, 0
2, 206724, Note_on_c, 0, 58, 0
2, 206728, Note_on_c, 0, 61, 0
2, 206812, Note_on_c, 0, 61, 18
2, 206884, Note_on_c, 0, 61, 0
2, 206956, Note_on_c, 0, 52, 48
2, 206964, Note_on_c, 0, 58, 35
2, 206964, Note_on_c, 0, 64, 46
2, 206972, Note_on_c, 0, 55, 32
2, 206972, Note_on_c, 0, 60, 36
2, 207116, Note_on_c, 0, 64, 0
2, 207128, Note_on_c, 0, 60, 0
2, 207152, Note_on_c, 0, 55, 0
2, 207156, Note_on_c, 0, 58, 0
2, 207172, Note_on_c, 0, 52, 0
2, 207264, Note_on_c, 0, 49, 31
2, 207308, Note_on_c, 0, 49, 0
2, 207320, Note_on_c, 0, 54, 60
2, 207324, Note_on_c, 0, 50, 70
2, 207332, Note_on_c, 0, 52, 74
2, 207336, Note_on_c, 0, 60, 55
2, 207336, Note_on_c, 0, 57, 58
2, 207392, Note_on_c, 0, 60, 0
2, 207392, Note_on_c, 0, 50, 0
2, 207404, Note_on_c, 0, 57, 0
2, 207428, Note_on_c, 0, 54, 0
2, 207480, Note_on_c, 0, 52, 0
2, 207492, Note_on_c, 0, 50, 50
2, 207516, Note_on_c, 0, 50, 0
2, 207540, Note_on_c, 0, 48, 36
2, 207568, Note_on_c, 0, 48, 0
2, 207980, Note_on_c, 0, 63, 63
2, 207984, Note_on_c, 0, 58, 59
2, 207984, Note_on_c, 0, 56, 60
2, 207996, Note_on_c, 0, 53, 37
2, 208072, Note_on_c, 0, 53, 0
2, 208100, Note_on_c, 0, 63, 0
2, 208104, Note_on_c, 0, 56, 0
2, 208152, Note_on_c, 0, 53, 17
2, 208156, Note_on_c, 0, 64, 55
2, 208172, Note_on_c, 0, 57, 48
2, 208176, Note_on_c, 0, 59, 42
2, 208180, Note_on_c, 0, 58, 0
2, 208184, Note_on_c, 0, 62, 31
2, 208236, Note_on_c, 0, 53, 0
2, 208256, Note_on_c, 0, 57, 0
2, 208260, Note_on_c, 0, 59, 0
2, 208264, Note_on_c, 0, 64, 0
2, 208280, Note_on_c, 0, 62, 0
2, 208404, Note_on_c, 0, 67, 73
2, 208408, Note_on_c, 0, 59, 76
2, 208412, Note_on_c, 0, 61, 54
2, 208412, Note_on_c, 0, 63, 51
2, 208412, Note_on_c, 0, 55, 68
2, 208496, Note_on_c, 0, 61, 0
2, 208536, Note_on_c, 0, 59, 0
2, 208540, Note_on_c, 0, 63, 0
2, 208552, Note_on_c, 0, 55, 0
2, 208560, Note_on_c, 0, 67, 0
2, 208584, Note_on_c, 0, 53, 44
2, 208612, Note_on_c, 0, 53, 0
2, 208804, Note_on_c, 0, 51, 48
2, 208808, Note_on_c, 0, 55, 56
2, 208812, Note_on_c, 0, 61, 42
2, 208816, Note_on_c, 0, 58, 33
2, 208820, Note_on_c, 0, 49, 32
2, 208868, Note_on_c, 0, 55, 0
2, 208888, Note_on_c, 0, 58, 0
2, 208916, Note_on_c, 0, 61, 0
2, 208928, Note_on_c, 0, 51, 0
2, 208936, Note_on_c, 0, 49, 0
2, 208952, Note_on_c, 0, 52, 43
2, 208952, Note_on_c, 0, 55, 38
2, 208960, Note_on_c, 0, 64, 41
2, 208976, Note_on_c, 0, 55, 0
2, 208976, Note_on_c, 0, 57, 30
2, 209012, Note_on_c, 0, 57, 0
2, 209036, Note_on_c, 0, 64, 0
2, 209044, Note_on_c, 0, 52, 0
2, 209660, Note_on_c, 0, 64, 75
2, 209660, Note_on_c, 0, 59, 62
2, 209664, Note_on_c, 0, 71, 70
2, 209664, Note_on_c, 0, 60, 70
2, 209668, Note_on_c, 0, 67, 58
2, 209736, Note_on_c, 0, 59, 0
2, 209752, Note_on_c, 0, 67, 0
2, 209760, Note_on_c, 0, 71, 0
2, 209784, Note_on_c, 0, 64, 0
2, 209788, Note_on_c, 0, 60, 0
2, 209920, Note_on_c, 0, 57, 54
2, 209928, Note_on_c, 0, 69, 75
2, 209936, Note_on_c, 0, 60, 72
2, 209936, Note_on_c, 0, 64, 70
2, 209980, Note_on_c, 0, 64, 0
2, 209980, Note_on_c, 0, 69, 0
2, 209996, Note_on_c, 0, 60, 0
2, 210000, Note_on_c, 0, 57, 0
2, 210104, Note_on_c, 0, 55, 61
2, 210108, Note_on_c, 0, 64, 47
2, 210112, Note_on_c, 0, 52, 37
2, 210128, Note_on_c, 0, 60, 30
2, 210128, Note_on_c, 0, 57, 33
2, 210180, Note_on_c, 0, 52, 0
2, 210208, Note_on_c, 0, 60, 0
2, 210212, Note_on_c, 0, 57, 0
2, 210224, Note_on_c, 0, 55, 0
2, 210232, Note_on_c, 0, 64, 0
2, 210716, Note_on_c, 0, 66, 83
2, 210720, Note_on_c, 0, 74, 90
2, 210720, Note_on_c, 0, 64, 89
2, 210724, Note_on_c, 0, 69, 74
2, 210732, Note_on_c, 0, 58, 65
2, 210740, Note_on_c, 0, 70, 34
2, 210760, Note_on_c, 0, 70, 0
2, 211188, Control_c, 0, 64, 127
2, 211200, Control_c, 0, 64, 0
2, 211420, Note_on_c, 0, 74, 0
2, 211432, Note_on_c, 0, 64, 0
2, 211460, Note_on_c, 0, 66, 0
2, 211488, Note_on_c, 0, 69, 0
2, 211516, Note_on_c, 0, 72, 53
2, 211516, Note_on_c, 0, 66, 46
2, 211528, Note_on_c, 0, 69, 26
2, 211532, Note_on_c, 0, 62, 34
2, 211548, Note_on_c, 0, 57, 33
2, 211564, Note_on_c, 0, 58, 0
2, 211672, Note_on_c, 0, 69, 0
2, 211688, Note_on_c, 0, 57, 0
2, 211692, Note_on_c, 0, 62, 0
2, 211720, Note_on_c, 0, 66, 0
2, 211736, Note_on_c, 0, 72, 0
2, 211788, Note_on_c, 0, 69, 52
2, 211788, Note_on_c, 0, 62, 48
2, 211792, Note_on_c, 0, 57, 43
2, 211792, Note_on_c, 0, 60, 30
2, 211796, Note_on_c, 0, 67, 54
2, 211816, Note_on_c, 0, 62, 0
2, 211832, Note_on_c, 0, 67, 0
2, 211840, Note_on_c, 0, 69, 0
2, 211844, Note_on_c, 0, 57, 0
2, 211844, Note_on_c, 0, 60, 0
2, 212200, Note_on_c, 0, 80, 75
2, 212204, Note_on_c, 0, 86, 84
2, 212204, Note_on_c, 0, 60, 54
2, 212204, Note_on_c, 0, 74, 79
2, 212208, Note_on_c, 0, 64, 66
2, 212212, Note_on_c, 0, 57, 59
2, 212220, Note_on_c, 0, 53, 40
2, 212260, Note_on_c, 0, 86, 0
2, 212260, Note_on_c, 0, 81, 73
2, 212264, Note_on_c, 0, 80, 0
2, 212280, Note_on_c, 0, 64, 0
2, 212292, Note_on_c, 0, 74, 0
2, 212300, Note_on_c, 0, 53, 0
2, 212308, Note_on_c, 0, 57, 0
2, 212312, Note_on_c, 0, 81, 0
2, 212316, Note_on_c, 0, 60, 0
2, 212388, Note_on_c, 0, 60, 36
2, 212392, Note_on_c, 0, 64, 36
2, 212392, Note_on_c, 0, 57, 39
2, 212392, Note_on_c, 0, 79, 54
2, 212400, Note_on_c, 0, 84, 68
2, 212412, Note_on_c, 0, 72, 25
2, 212452, Note_on_c, 0, 79, 0
2, 212460, Note_on_c, 0, 84, 0
2, 212472, Note_on_c, 0, 72, 0
2, 212476, Note_on_c, 0, 64, 0
2, 212484, Note_on_c, 0, 60, 0
2, 212488, Note_on_c, 0, 57, 0
2, 212592, Note_on_c, 0, 73, 50
2, 212604, Note_on_c, 0, 64, 55
2, 212608, Note_on_c, 0, 60, 42
2, 212608, Note_on_c, 0, 81, 53
2, 212612, Note_on_c, 0, 69, 57
2, 212616, Note_on_c, 0, 73, 0
2, 212616, Note_on_c, 0, 57, 45
2, 212620, Note_on_c, 0, 53, 30
2, 212628, Note_on_c, 0, 74, 59
2, 212672, Note_on_c, 0, 64, 0
2, 212684, Note_on_c, 0, 69, 0
2, 212684, Note_on_c, 0, 81, 0
2, 212688, Note_on_c, 0, 74, 0
2, 212692, Note_on_c, 0, 53, 0
2, 212692, Note_on_c, 0, 60, 0
2, 212696, Note_on_c, 0, 57, 0
2, 212780, Note_on_c, 0, 77, 48
2, 212800, Note_on_c, 0, 60, 24
2, 212804, Note_on_c, 0, 57, 30
2, 212812, Note_on_c, 0, 65, 25
2, 212812, Note_on_c, 0, 53, 16
2, 212892, Note_on_c, 0, 60, 0
2, 212904, Note_on_c, 0, 53, 0
2, 212904, Note_on_c, 0, 57, 0
2, 212928, Note_on_c, 0, 65, 0
2, 212956, Note_on_c, 0, 77, 0
2, 213080, Note_on_c, 0, 60, 31
2, 213088, Note_on_c, 0, 57, 37
2, 213104, Note_on_c, 0, 53, 20
2, 213112, Note_on_c, 0, 65, 28
2, 213216, Note_on_c, 0, 65, 0
2, 213232, Note_on_c, 0, 53, 0
2, 213232, Note_on_c, 0, 57, 0
2, 213244, Note_on_c, 0, 60, 0
2, 213476, Note_on_c, 0, 79, 67
2, 213484, Note_on_c, 0, 67, 46
2, 213488, Note_on_c, 0, 75, 36
2, 213492, Note_on_c, 0, 72, 39
2, 213496, Note_on_c, 0, 56, 36
2, 213496, Note_on_c, 0, 60, 36
2, 213500, Note_on_c, 0, 64, 38
2, 213508, Note_on_c, 0, 53, 35
2, 213600, Note_on_c, 0, 75, 0
2, 213600, Note_on_c, 0, 76, 36
2, 214000, Note_on_c, 0, 64, 0
2, 214004, Note_on_c, 0, 76, 0
2, 214004, Note_on_c, 0, 67, 0
2, 214016, Note_on_c, 0, 79, 0
2, 214044, Note_on_c, 0, 53, 0
2, 214048, Note_on_c, 0, 60, 0
2, 214052, Note_on_c, 0, 72, 0
2, 214060, Note_on_c, 0, 56, 0
2, 214136, Note_on_c, 0, 62, 34
2, 214136, Note_on_c, 0, 56, 31
2, 214140, Note_on_c, 0, 77, 44
2, 214140, Note_on_c, 0, 60, 35
2, 214140, Note_on_c, 0, 65, 46
2, 214140, Note_on_c, 0, 72, 38
2, 214148, Note_on_c, 0, 53, 26
2, 214328, Note_on_c, 0, 65, 0
2, 214332, Control_c, 0, 64, 127
2, 214408, Note_on_c, 0, 72, 0
2, 214428, Note_on_c, 0, 77, 0
2, 214460, Note_on_c, 0, 60, 0
2, 214480, Note_on_c, 0, 56, 0
2, 214496, Note_on_c, 0, 62, 0
2, 214500, Note_on_c, 0, 53, 0
2, 214672, Note_on_c, 0, 72, 64
2, 214680, Note_on_c, 0, 84, 56
2, 214696, Note_on_c, 0, 72, 0
2, 214704, Note_on_c, 0, 84, 0
2, 214780, Note_on_c, 0, 56, 38
2, 214788, Note_on_c, 0, 60, 44
2, 214788, Note_on_c, 0, 86, 73
2, 214792, Note_on_c, 0, 74, 60
2, 214792, Note_on_c, 0, 62, 38
2, 214812, Note_on_c, 0, 86, 0
2, 214816, Note_on_c, 0, 74, 0
2, 214816, Note_on_c, 0, 62, 0
2, 214820, Note_on_c, 0, 60, 0
2, 214848, Note_on_c, 0, 56, 0
2, 214892, Note_on_c, 0, 56, 50
2, 214900, Note_on_c, 0, 60, 48
2, 214900, Note_on_c, 0, 62, 51
2, 214904, Note_on_c, 0, 53, 47
2, 214904, Note_on_c, 0, 75, 81
2, 214908, Note_on_c, 0, 82, 71
2, 214908, Note_on_c, 0, 87, 69
2, 214920, Note_on_c, 0, 88, 70
2, 214928, Note_on_c, 0, 82, 0
2, 214932, Note_on_c, 0, 53, 0
2, 214940, Note_on_c, 0, 88, 0
2, 214952, Note_on_c, 0, 62, 0
2, 214952, Note_on_c, 0, 60, 0
2, 214964, Note_on_c, 0, 75, 0
2, 214972, Note_on_c, 0, 56, 0
2, 214972, Note_on_c, 0, 87, 0
2, 214996, Control_c, 0, 64, 0
2, 215020, Note_on_c, 0, 87, 57
2, 215024, Note_on_c, 0, 62, 53
2, 215028, Note_on_c, 0, 59, 58
2, 215028, Note_on_c, 0, 75, 52
2, 215036, Note_on_c, 0, 55, 60
2, 215036, Note_on_c, 0, 52, 51
2, 215052, Note_on_c, 0, 81, 44
2, 215060, Note_on_c, 0, 88, 54
2, 215072, Note_on_c, 0, 84, 43
2, 215100, Note_on_c, 0, 87, 0
2, 215104, Note_on_c, 0, 75, 0
2, 215104, Note_on_c, 0, 76, 57
2, 215180, Note_on_c, 0, 52, 0
2, 215184, Note_on_c, 0, 76, 0
2, 215184, Note_on_c, 0, 84, 0
2, 215188, Note_on_c, 0, 88, 0
2, 215188, Note_on_c, 0, 62, 0
2, 215192, Note_on_c, 0, 55, 0
2, 215196, Note_on_c, 0, 59, 0
2, 215200, Note_on_c, 0, 81, 0
2, 216044, Note_on_c, 0, 60, 48
2, 216044, Note_on_c, 0, 84, 77
2, 216044, Note_on_c, 0, 64, 51
2, 216048, Note_on_c, 0, 79, 61
2, 216052, Note_on_c, 0, 72, 57
2, 216060, Note_on_c, 0, 59, 26
2, 216064, Note_on_c, 0, 55, 28
2, 216072, Note_on_c, 0, 72, 0
2, 216072, Note_on_c, 0, 79, 0
2, 216072, Note_on_c, 0, 64, 0
2, 216080, Note_on_c, 0, 60, 0
2, 216084, Note_on_c, 0, 59, 0
2, 216088, Note_on_c, 0, 55, 0
2, 216096, Note_on_c, 0, 84, 0
2, 216164, Note_on_c, 0, 60, 43
2, 216164, Note_on_c, 0, 64, 61
2, 216168, Note_on_c, 0, 86, 66
2, 216172, Note_on_c, 0, 55, 45
2, 216176, Note_on_c, 0, 81, 56
2, 216176, Note_on_c, 0, 74, 57
2, 216180, Note_on_c, 0, 59, 40
2, 216196, Note_on_c, 0, 86, 0
2, 216200, Note_on_c, 0, 81, 0
2, 216208, Note_on_c, 0, 74, 0
2, 216208, Note_on_c, 0, 59, 0
2, 216216, Note_on_c, 0, 64, 0
2, 216224, Note_on_c, 0, 60, 0
2, 216236, Note_on_c, 0, 55, 0
2, 216416, Note_on_c, 0, 84, 82
2, 216420, Note_on_c, 0, 80, 69
2, 216420, Note_on_c, 0, 72, 80
2, 216428, Note_on_c, 0, 64, 77
2, 216428, Note_on_c, 0, 54, 71
2, 216428, Note_on_c, 0, 78, 53
2, 216432, Note_on_c, 0, 60, 68
2, 216468, Note_on_c, 0, 78, 0
2, 216516, Note_on_c, 0, 72, 0
2, 216536, Note_on_c, 0, 64, 0
2, 216536, Note_on_c, 0, 84, 0
2, 216536, Note_on_c, 0, 80, 0
2, 216544, Note_on_c, 0, 60, 0
2, 216548, Note_on_c, 0, 54, 0
2, 216640, Note_on_c, 0, 72, 70
2, 216640, Note_on_c, 0, 80, 64
2, 216648, Note_on_c, 0, 84, 72
2, 216656, Note_on_c, 0, 54, 59
2, 216656, Note_on_c, 0, 60, 49
2, 216656, Note_on_c, 0, 64, 57
2, 216752, Note_on_c, 0, 72, 0
2, 216768, Note_on_c, 0, 80, 0
2, 216780, Note_on_c, 0, 60, 0
2, 216788, Note_on_c, 0, 54, 0
2, 216796, Note_on_c, 0, 64, 0
2, 216796, Note_on_c, 0, 84, 0
2, 216928, Note_on_c, 0, 64, 31
2, 216956, Note_on_c, 0, 64, 0
2, 217168, Note_on_c, 0, 63, 51
2, 217176, Note_on_c, 0, 67, 62
2, 217176, Note_on_c, 0, 57, 62
2, 217184, Note_on_c, 0, 84, 79
2, 217188, Note_on_c, 0, 72, 69
2, 217200, Note_on_c, 0, 77, 64
2, 217688, Control_c, 0, 64, 127
2, 217704, Note_on_c, 0, 84, 0
2, 217708, Note_on_c, 0, 72, 0
2, 217748, Note_on_c, 0, 57, 0
2, 217748, Note_on_c, 0, 77, 0
2, 217780, Note_on_c, 0, 67, 0
2, 217796, Note_on_c, 0, 63, 0
2, 217932, Note_on_c, 0, 71, 60
2, 217936, Note_on_c, 0, 63, 46
2, 217940, Note_on_c, 0, 83, 50
2, 217956, Note_on_c, 0, 57, 30
2, 217960, Note_on_c, 0, 71, 0
2, 217980, Note_on_c, 0, 57, 0
2, 217988, Note_on_c, 0, 83, 0
2, 218000, Note_on_c, 0, 63, 0
2, 218036, Control_c, 0, 64, 0
2, 218064, Note_on_c, 0, 56, 71
2, 218064, Note_on_c, 0, 67, 74
2, 218068, Note_on_c, 0, 74, 82
2, 218068, Note_on_c, 0, 62, 67
2, 218072, Note_on_c, 0, 86, 82
2, 218104, Control_c, 0, 64, 127
2, 218236, Note_on_c, 0, 74, 0
2, 218244, Note_on_c, 0, 56, 0
2, 218248, Note_on_c, 0, 67, 0
2, 218252, Note_on_c, 0, 86, 0
2, 218268, Note_on_c, 0, 62, 0
2, 218336, Note_on_c, 0, 62, 64
2, 218336, Note_on_c, 0, 56, 77
2, 218336, Note_on_c, 0, 88, 91
2, 218336, Note_on_c, 0, 67, 81
2, 218340, Note_on_c, 0, 76, 90
2, 218352, Control_c, 0, 64, 0
2, 218440, Control_c, 0, 64, 127
2, 218652, Note_on_c, 0, 88, 0
2, 218708, Note_on_c, 0, 76, 0
2, 218732, Note_on_c, 0, 67, 0
2, 218740, Note_on_c, 0, 56, 0
2, 218748, Note_on_c, 0, 62, 0
2, 218832, Note_on_c, 0, 80, 43
2, 218832, Note_on_c, 0, 72, 51
2, 218832, Control_c, 0, 64, 0
2, 218836, Note_on_c, 0, 62, 38
2, 218836, Note_on_c, 0, 56, 43
2, 218840, Note_on_c, 0, 65, 53
2, 218844, Note_on_c, 0, 84, 38
2, 218992, Note_on_c, 0, 81, 40
2, 219000, Note_on_c, 0, 80, 0
2, 219004, Note_on_c, 0, 65, 0
2, 219004, Note_on_c, 0, 56, 0
2, 219004, Note_on_c, 0, 84, 0
2, 219008, Note_on_c, 0, 62, 0
2, 219016, Note_on_c, 0, 72, 0
2, 219020, Note_on_c, 0, 81, 0
2, 219212, Control_c, 0, 64, 127
2, 219452, Note_on_c, 0, 56, 46
2, 219460, Note_on_c, 0, 69, 64
2, 219472, Note_on_c, 0, 81, 50
2, 219496, Note_on_c, 0, 69, 0
2, 219504, Note_on_c, 0, 81, 0
2, 219508, Note_on_c, 0, 56, 0
2, 219628, Control_c, 0, 64, 0
2, 219668, Note_on_c, 0, 61, 43
2, 219668, Note_on_c, 0, 60, 43
2, 219676, Note_on_c, 0, 77, 78
2, 219676, Note_on_c, 0, 65, 58
2, 219676, Note_on_c, 0, 84, 78
2, 219680, Note_on_c, 0, 55, 45
2, 219688, Note_on_c, 0, 58, 29
2, 219720, Note_on_c, 0, 84, 0
2, 219720, Note_on_c, 0, 77, 0
2, 219724, Note_on_c, 0, 55, 0
2, 219724, Note_on_c, 0, 65, 0
2, 219724, Note_on_c, 0, 58, 0
2, 219728, Note_on_c, 0, 60, 0
2, 219736, Note_on_c, 0, 61, 0
2, 219792, Note_on_c, 0, 84, 72
2, 219796, Note_on_c, 0, 77, 67
2, 219800, Note_on_c, 0, 55, 48
2, 219800, Note_on_c, 0, 60, 43
2, 219800, Note_on_c, 0, 61, 37
2, 219804, Note_on_c, 0, 65, 51
2, 219824, Note_on_c, 0, 58, 25
2, 219892, Note_on_c, 0, 65, 0
2, 219900, Note_on_c, 0, 55, 0
2, 219904, Note_on_c, 0, 60, 0
2, 219904, Note_on_c, 0, 77, 0
2, 219916, Note_on_c, 0, 58, 0
2, 219924, Note_on_c, 0, 61, 0
2, 219928, Note_on_c, 0, 84, 0
2, 220016, Note_on_c, 0, 61, 46
2, 220020, Note_on_c, 0, 72, 49
2, 220020, Note_on_c, 0, 81, 66
2, 220024, Note_on_c, 0, 60, 58
2, 220028, Note_on_c, 0, 65, 56
2, 220028, Note_on_c, 0, 55, 53
2, 220028, Note_on_c, 0, 77, 53
2, 220048, Note_on_c, 0, 58, 23
2, 220064, Note_on_c, 0, 65, 0
2, 220072, Note_on_c, 0, 58, 0
2, 220076, Note_on_c, 0, 77, 0
2, 220084, Note_on_c, 0, 55, 0
2, 220088, Note_on_c, 0, 60, 0
2, 220096, Note_on_c, 0, 81, 0
2, 220096, Note_on_c, 0, 72, 0
2, 220104, Note_on_c, 0, 61, 0
2, 220140, Control_c, 0, 64, 127
2, 220148, Note_on_c, 0, 81, 61
2, 220156, Note_on_c, 0, 72, 55
2, 220160, Note_on_c, 0, 61, 42
2, 220160, Note_on_c, 0, 77, 49
2, 220164, Note_on_c, 0, 65, 46
2, 220164, Note_on_c, 0, 60, 47
2, 220172, Note_on_c, 0, 55, 30
2, 220204, Note_on_c, 0, 77, 0
2, 220216, Note_on_c, 0, 81, 0
2, 220228, Note_on_c, 0, 65, 0
2, 220240, Note_on_c, 0, 72, 0
2, 220260, Note_on_c, 0, 55, 0
2, 220264, Note_on_c, 0, 60, 0
2, 220280, Note_on_c, 0, 61, 0
2, 220332, Control_c, 0, 64, 0
2, 220376, Note_on_c, 0, 77, 66
2, 220384, Note_on_c, 0, 65, 53
2, 220384, Note_on_c, 0, 69, 56
2, 220388, Note_on_c, 0, 61, 39
2, 220388, Note_on_c, 0, 72, 59
2, 220400, Note_on_c, 0, 60, 38
2, 220404, Note_on_c, 0, 55, 34
2, 220420, Note_on_c, 0, 72, 0
2, 220432, Note_on_c, 0, 69, 0
2, 220432, Note_on_c, 0, 60, 0
2, 220436, Note_on_c, 0, 55, 0
2, 220444, Note_on_c, 0, 77, 0
2, 220444, Note_on_c, 0, 65, 0
2, 220468, Note_on_c, 0, 61, 0
2, 220496, Note_on_c, 0, 77, 63
2, 220500, Control_c, 0, 64, 127
2, 220512, Note_on_c, 0, 69, 40
2, 220512, Note_on_c, 0, 72, 47
2, 220516, Note_on_c, 0, 61, 37
2, 220516, Note_on_c, 0, 65, 31
2, 220524, Note_on_c, 0, 60, 33
2, 220528, Note_on_c, 0, 55, 35
2, 220560, Note_on_c, 0, 72, 0
2, 220588, Note_on_c, 0, 77, 0
2, 220612, Note_on_c, 0, 69, 0
2, 220636, Note_on_c, 0, 65, 0
2, 220640, Note_on_c, 0, 60, 0
2, 220644, Note_on_c, 0, 55, 0
2, 220656, Note_on_c, 0, 61, 0
2, 220744, Control_c, 0, 64, 0
2, 220760, Note_on_c, 0, 72, 60
2, 220760, Note_on_c, 0, 65, 38
2, 220772, Note_on_c, 0, 61, 25
2, 220772, Note_on_c, 0, 60, 32
2, 220780, Note_on_c, 0, 69, 35
2, 220788, Note_on_c, 0, 55, 24
2, 220804, Note_on_c, 0, 60, 0
2, 220808, Note_on_c, 0, 69, 0
2, 220812, Note_on_c, 0, 65, 0
2, 220812, Note_on_c, 0, 55, 0
2, 220820, Note_on_c, 0, 61, 0
2, 220824, Note_on_c, 0, 72, 0
2, 220872, Control_c, 0, 64, 127
2, 220876, Note_on_c, 0, 61, 47
2, 220880, Note_on_c, 0, 55, 52
2, 220888, Note_on_c, 0, 65, 33
2, 220892, Note_on_c, 0, 60, 40
2, 220892, Note_on_c, 0, 72, 33
2, 220900, Note_on_c, 0, 69, 35
2, 220936, Note_on_c, 0, 69, 0
2, 220968, Note_on_c, 0, 55, 0
2, 220984, Note_on_c, 0, 65, 0
2, 220988, Note_on_c, 0, 60, 0
2, 221000, Note_on_c, 0, 61, 0
2, 221008, Note_on_c, 0, 72, 0
2, 221064, Note_on_c, 0, 74, 82
2, 221072, Note_on_c, 0, 65, 80
2, 221072, Note_on_c, 0, 54, 69
2, 221072, Note_on_c, 0, 64, 73
2, 221076, Note_on_c, 0, 70, 80
2, 221080, Note_on_c, 0, 60, 62
2, 221096, Control_c, 0, 64, 0
2, 221224, Control_c, 0, 64, 127
2, 221432, Note_on_c, 0, 64, 0
2, 221440, Note_on_c, 0, 54, 0
2, 221444, Note_on_c, 0, 60, 0
2, 221452, Note_on_c, 0, 65, 0
2, 221472, Note_on_c, 0, 74, 0
2, 221496, Note_on_c, 0, 70, 0
2, 221528, Note_on_c, 0, 54, 56
2, 221528, Note_on_c, 0, 70, 42
2, 221532, Note_on_c, 0, 76, 66
2, 221532, Note_on_c, 0, 64, 58
2, 221536, Note_on_c, 0, 60, 49
2, 221540, Note_on_c, 0, 65, 41
2, 221544, Control_c, 0, 64, 0
2, 221644, Note_on_c, 0, 76, 0
2, 221660, Note_on_c, 0, 60, 0
2, 221660, Note_on_c, 0, 65, 0
2, 221668, Note_on_c, 0, 70, 0
2, 221668, Note_on_c, 0, 64, 0
2, 221680, Note_on_c, 0, 54, 0
2, 221904, Note_on_c, 0, 54, 46
2, 221908, Note_on_c, 0, 64, 44
2, 221908, Note_on_c, 0, 68, 48
2, 221912, Note_on_c, 0, 72, 50
2, 221920, Note_on_c, 0, 65, 35
2, 221920, Note_on_c, 0, 60, 39
2, 222044, Note_on_c, 0, 65, 0
2, 222052, Note_on_c, 0, 60, 0
2, 222068, Note_on_c, 0, 64, 0
2, 222080, Note_on_c, 0, 68, 0
2, 222084, Note_on_c, 0, 54, 0
2, 222096, Note_on_c, 0, 72, 0
2, 222292, Note_on_c, 0, 54, 47
2, 222300, Note_on_c, 0, 64, 36
2, 222304, Note_on_c, 0, 60, 38
2, 222308, Note_on_c, 0, 69, 43
2, 222312, Note_on_c, 0, 65, 33
2, 222392, Control_c, 0, 64, 127
2, 222404, Note_on_c, 0, 60, 0
2, 222416, Note_on_c, 0, 64, 0
2, 222444, Note_on_c, 0, 65, 0
2, 222472, Note_on_c, 0, 69, 0
2, 222488, Note_on_c, 0, 54, 0
2, 222648, Control_c, 0, 64, 0
2, 222708, Note_on_c, 0, 64, 36
2, 222712, Note_on_c, 0, 65, 44
2, 222712, Note_on_c, 0, 69, 43
2, 222712, Note_on_c, 0, 59, 46
2, 222716, Note_on_c, 0, 72, 46
2, 222724, Note_on_c, 0, 53, 25
2, 222872, Control_c, 0, 64, 127
2, 223040, Note_on_c, 0, 59, 0
2, 223040, Note_on_c, 0, 64, 0
2, 223044, Note_on_c, 0, 53, 0
2, 223048, Note_on_c, 0, 65, 0
2, 223068, Note_on_c, 0, 69, 0
2, 223072, Note_on_c, 0, 72, 0
2, 223724, Note_on_c, 0, 59, 58
2, 223728, Note_on_c, 0, 64, 60
2, 223732, Control_c, 0, 64, 0
2, 223736, Note_on_c, 0, 95, 70
2, 223740, Note_on_c, 0, 53, 30
2, 223744, Note_on_c, 0, 83, 50
2, 223752, Note_on_c, 0, 64, 0
2, 223768, Note_on_c, 0, 53, 0
2, 223768, Note_on_c, 0, 83, 0
2, 223772, Note_on_c, 0, 95, 0
2, 223772, Note_on_c, 0, 59, 0
2, 223856, Note_on_c, 0, 53, 71
2, 223856, Note_on_c, 0, 59, 66
2, 223860, Note_on_c, 0, 64, 71
2, 223860, Note_on_c, 0, 86, 80
2, 223864, Note_on_c, 0, 98, 79
2, 223892, Note_on_c, 0, 98, 0
2, 223960, Note_on_c, 0, 86, 0
2, 223980, Note_on_c, 0, 64, 0
2, 223980, Note_on_c, 0, 53, 0
2, 224028, Note_on_c, 0, 59, 0
2, 224124, Note_on_c, 0, 59, 70
2, 224128, Note_on_c, 0, 105, 90
2, 224128, Note_on_c, 0, 93, 87
2, 224132, Note_on_c, 0, 62, 80
2, 224132, Note_on_c, 0, 52, 72
2, 224132, Note_on_c, 0, 55, 66
2, 224136, Note_on_c, 0, 100, 72
2, 224144, Note_on_c, 0, 102, 39
2, 224164, Note_on_c, 0, 102, 0
2, 224244, Note_on_c, 0, 62, 0
2, 224248, Note_on_c, 0, 52, 0
2, 224248, Note_on_c, 0, 105, 0
2, 224252, Note_on_c, 0, 100, 0
2, 224256, Note_on_c, 0, 55, 0
2, 224260, Note_on_c, 0, 93, 0
2, 224272, Note_on_c, 0, 59, 0
2, 224348, Note_on_c, 0, 103, 74
2, 224352, Note_on_c, 0, 55, 58
2, 224352, Note_on_c, 0, 59, 53
2, 224352, Note_on_c, 0, 91, 62
2, 224356, Note_on_c, 0, 62, 64
2, 224356, Note_on_c, 0, 52, 57
2, 224360, Note_on_c, 0, 98, 68
2, 224472, Note_on_c, 0, 103, 0
2, 224484, Note_on_c, 0, 98, 0
2, 224504, Note_on_c, 0, 91, 0
2, 224508, Note_on_c, 0, 52, 0
2, 224512, Note_on_c, 0, 62, 0
2, 224524, Note_on_c, 0, 55, 0
2, 224536, Note_on_c, 0, 59, 0
2, 224620, Note_on_c, 0, 59, 44
2, 224620, Note_on_c, 0, 62, 65
2, 224620, Note_on_c, 0, 87, 77
2, 224624, Note_on_c, 0, 52, 54
2, 224624, Note_on_c, 0, 99, 71
2, 224628, Note_on_c, 0, 55, 64
2, 224652, Note_on_c, 0, 93, 32
2, 224656, Note_on_c, 0, 100, 43
2, 224676, Note_on_c, 0, 99, 0
2, 224688, Note_on_c, 0, 88, 57
2, 224692, Note_on_c, 0, 87, 0
2, 224724, Note_on_c, 0, 88, 0
2, 224732, Note_on_c, 0, 100, 0
2, 224756, Note_on_c, 0, 93, 0
2, 224792, Note_on_c, 0, 52, 0
2, 224800, Note_on_c, 0, 55, 0
2, 224800, Note_on_c, 0, 62, 0
2, 224812, Note_on_c, 0, 59, 0
2, 224880, Note_on_c, 0, 82, 69
2, 224884, Note_on_c, 0, 59, 40
2, 224884, Note_on_c, 0, 94, 62
2, 224888, Note_on_c, 0, 62, 55
2, 224892, Note_on_c, 0, 52, 54
2, 224896, Note_on_c, 0, 55, 60
2, 224896, Note_on_c, 0, 90, 46
2, 224908, Note_on_c, 0, 88, 48
2, 224916, Note_on_c, 0, 90, 0
2, 224916, Note_on_c, 0, 95, 58
2, 224924, Note_on_c, 0, 82, 0
2, 224944, Note_on_c, 0, 83, 31
2, 224948, Note_on_c, 0, 94, 0
2, 224972, Note_on_c, 0, 95, 0
2, 224988, Note_on_c, 0, 83, 0
2, 225004, Note_on_c, 0, 88, 0
2, 225032, Note_on_c, 0, 55, 0
2, 225032, Note_on_c, 0, 52, 0
2, 225036, Note_on_c, 0, 62, 0
2, 225044, Note_on_c, 0, 59, 0
2, 225120, Note_on_c, 0, 79, 56
2, 225120, Note_on_c, 0, 91, 55
2, 225128, Note_on_c, 0, 59, 30
2, 225132, Note_on_c, 0, 62, 46
2, 225132, Note_on_c, 0, 52, 41
2, 225140, Note_on_c, 0, 90, 30
2, 225140, Note_on_c, 0, 86, 50
2, 225140, Note_on_c, 0, 55, 56
2, 225212, Note_on_c, 0, 90, 0
2, 225220, Note_on_c, 0, 91, 0
2, 225224, Note_on_c, 0, 62, 0
2, 225224, Note_on_c, 0, 86, 0
2, 225232, Note_on_c, 0, 79, 0
2, 225240, Note_on_c, 0, 55, 0
2, 225240, Note_on_c, 0, 59, 0
2, 225256, Note_on_c, 0, 52, 0
2, 225372, Note_on_c, 0, 88, 59
2, 225380, Note_on_c, 0, 76, 61
2, 225380, Note_on_c, 0, 59, 53
2, 225380, Note_on_c, 0, 52, 37
2, 225384, Note_on_c, 0, 55, 43
2, 225388, Note_on_c, 0, 62, 40
2, 225408, Note_on_c, 0, 52, 0
2, 225428, Note_on_c, 0, 55, 0
2, 225440, Note_on_c, 0, 59, 0
2, 225452, Note_on_c, 0, 62, 0
2, 225544, Note_on_c, 0, 88, 0
2, 225544, Note_on_c, 0, 76, 0
2, 226012, Note_on_c, 0, 61, 40
2, 226016, Note_on_c, 0, 60, 47
2, 226020, Note_on_c, 0, 65, 62
2, 226028, Note_on_c, 0, 55, 54
2, 226320, Note_on_c, 0, 84, 101
2, 226392, Note_on_c, 0, 84, 0
2, 226456, Note_on_c, 0, 82, 45
2, 226484, Note_on_c, 0, 82, 0
2, 226576, Note_on_c, 0, 84, 94
2, 226628, Note_on_c, 0, 65, 0
2, 226632, Note_on_c, 0, 60, 0
2, 226664, Note_on_c, 0, 84, 0
2, 226684, Note_on_c, 0, 55, 0
2, 226692, Note_on_c, 0, 61, 0
2, 226804, Note_on_c, 0, 82, 83
2, 226808, Note_on_c, 0, 61, 45
2, 226812, Note_on_c, 0, 65, 65
2, 226824, Note_on_c, 0, 55, 44
2, 226824, Note_on_c, 0, 60, 41
2, 226888, Note_on_c, 0, 82, 0
2, 226956, Note_on_c, 0, 77, 64
2, 226996, Note_on_c, 0, 65, 0
2, 227000, Note_on_c, 0, 60, 0
2, 227040, Note_on_c, 0, 55, 0
2, 227068, Note_on_c, 0, 77, 0
2, 227080, Note_on_c, 0, 61, 0
2, 227176, Note_on_c, 0, 73, 68
2, 227200, Note_on_c, 0, 54, 36
2, 227204, Note_on_c, 0, 64, 33
2, 227204, Note_on_c, 0, 60, 31
2, 227248, Note_on_c, 0, 73, 0
2, 227372, Note_on_c, 0, 74, 70
2, 227416, Note_on_c, 0, 64, 0
2, 227432, Note_on_c, 0, 60, 0
2, 227440, Note_on_c, 0, 74, 0
2, 227448, Note_on_c, 0, 75, 48
2, 227532, Note_on_c, 0, 74, 44
2, 227564, Note_on_c, 0, 75, 0
2, 227604, Note_on_c, 0, 74, 0
2, 227636, Note_on_c, 0, 72, 41
2, 227640, Note_on_c, 0, 60, 20
2, 227680, Note_on_c, 0, 72, 0
2, 227708, Note_on_c, 0, 60, 0
2, 227712, Note_on_c, 0, 54, 0
2, 227736, Note_on_c, 0, 70, 52
2, 227940, Note_on_c, 0, 70, 0
2, 227948, Note_on_c, 0, 67, 63
2, 227956, Note_on_c, 0, 64, 54
2, 227960, Note_on_c, 0, 60, 54
2, 227968, Note_on_c, 0, 54, 34
2, 227980, Note_on_c, 0, 64, 0
2, 228012, Note_on_c, 0, 60, 0
2, 228024, Note_on_c, 0, 67, 0
2, 228028, Note_on_c, 0, 54, 0
2, 228100, Note_on_c, 0, 66, 32
2, 228204, Note_on_c, 0, 66, 0
2, 228336, Note_on_c, 0, 65, 69
2, 228344, Note_on_c, 0, 54, 46
2, 228416, Note_on_c, 0, 65, 0
2, 228440, Note_on_c, 0, 54, 0
2, 228716, Note_on_c, 0, 43, 46
2, 228752, Note_on_c, 0, 43, 0
2, 228868, Note_on_c, 0, 63, 76
2, 228868, Note_on_c, 0, 67, 75
2, 228972, Note_on_c, 0, 67, 0
2, 228972, Note_on_c, 0, 63, 0
2, 229100, Note_on_c, 0, 42, 67
2, 229104, Note_on_c, 0, 43, 79
2, 229108, Note_on_c, 0, 64, 89
2, 229116, Note_on_c, 0, 67, 70
2, 229156, Note_on_c, 0, 42, 0
2, 229172, Note_on_c, 0, 67, 0
2, 229192, Note_on_c, 0, 64, 0
2, 229276, Note_on_c, 0, 60, 40
2, 229460, Note_on_c, 0, 60, 0
2, 229496, Note_on_c, 0, 31, 64
2, 229504, Control_c, 0, 64, 127
2, 229512, Note_on_c, 0, 55, 54
2, 229540, Note_on_c, 0, 31, 0
2, 229556, Note_on_c, 0, 55, 0
2, 229608, Control_c, 0, 64, 0
2, 229636, Note_on_c, 0, 53, 52
2, 229640, Note_on_c, 0, 60, 32
2, 229664, Note_on_c, 0, 43, 0
2, 229672, Note_on_c, 0, 60, 0
2, 229708, Note_on_c, 0, 53, 0
2, 229772, Note_on_c, 0, 48, 59
2, 229852, Note_on_c, 0, 48, 0
2, 229896, Note_on_c, 0, 51, 60
2, 230000, Note_on_c, 0, 51, 0
2, 230024, Note_on_c, 0, 52, 59
2, 230088, Note_on_c, 0, 52, 0
2, 230144, Note_on_c, 0, 53, 55
2, 230188, Note_on_c, 0, 53, 0
2, 230276, Note_on_c, 0, 54, 71
2, 230352, Note_on_c, 0, 54, 0
2, 230400, Note_on_c, 0, 55, 69
2, 230452, Note_on_c, 0, 55, 0
2, 230528, Note_on_c, 0, 51, 69
2, 230592, Note_on_c, 0, 51, 0
2, 230640, Note_on_c, 0, 52, 71
2, 230716, Note_on_c, 0, 52, 0
2, 230776, Note_on_c, 0, 48, 74
2, 230852, Note_on_c, 0, 48, 0
2, 230900, Note_on_c, 0, 43, 51
2, 230952, Note_on_c, 0, 43, 0
2, 231184, Note_on_c, 0, 46, 90
2, 231424, Note_on_c, 0, 46, 0
2, 231432, Note_on_c, 0, 43, 72
2, 231576, Note_on_c, 0, 43, 0
2, 231860, Note_on_c, 0, 41, 83
2, 231956, Note_on_c, 0, 41, 0
2, 232044, Note_on_c, 0, 39, 73
2, 232216, Note_on_c, 0, 39, 0
2, 232308, Note_on_c, 0, 34, 57
2, 232388, Note_on_c, 0, 34, 0
2, 232480, Note_on_c, 0, 35, 63
2, 232540, Note_on_c, 0, 35, 0
2, 232764, Note_on_c, 0, 24, 46
2, 232772, Note_on_c, 0, 36, 44
2, 233048, Control_c, 0, 64, 127
2, 234668, Control_c, 0, 64, 0
2, 235564, Note_on_c, 0, 24, 0
2, 235580, Note_on_c, 0, 36, 0
2, 235580, End_track
3, 0, Start_track
3, 0, Title_t, "'Time After Time'"
3, 0, End_track
4, 0, Start_track
4, 0, Title_t, "by Sammy Cahn"
4, 0, Program_c, 1, 32
4, 79872, Control_c, 1, 0, 0
4, 79872, Note_on_c, 1, 48, 83
4, 80240, Note_on_c, 1, 44, 66
4, 80264, Note_on_c, 1, 48, 0
4, 80600, Note_on_c, 1, 44, 0
4, 80628, Note_on_c, 1, 45, 54
4, 80868, Note_on_c, 1, 45, 0
4, 80876, Note_on_c, 1, 36, 72
4, 80936, Note_on_c, 1, 36, 0
4, 80996, Note_on_c, 1, 37, 59
4, 81368, Note_on_c, 1, 37, 0
4, 81380, Note_on_c, 1, 38, 66
4, 81464, Note_on_c, 1, 38, 0
4, 81480, Note_on_c, 1, 45, 81
4, 81556, Note_on_c, 1, 45, 0
4, 81592, Note_on_c, 1, 44, 79
4, 81640, Note_on_c, 1, 44, 0
4, 81712, Note_on_c, 1, 42, 70
4, 81780, Note_on_c, 1, 42, 0
4, 81836, Note_on_c, 1, 43, 82
4, 81888, Note_on_c, 1, 43, 0
4, 81980, Note_on_c, 1, 38, 98
4, 82244, Note_on_c, 1, 38, 0
4, 82256, Note_on_c, 1, 35, 48
4, 82288, Note_on_c, 1, 35, 0
4, 82360, Note_on_c, 1, 32, 81
4, 82492, Note_on_c, 1, 32, 0
4, 82512, Note_on_c, 1, 31, 82
4, 82784, Note_on_c, 1, 31, 0
4, 82784, Note_on_c, 1, 29, 79
4, 82844, Note_on_c, 1, 29, 0
4, 82908, Note_on_c, 1, 28, 89
4, 83276, Note_on_c, 1, 36, 90
4, 83292, Note_on_c, 1, 28, 0
4, 83640, Note_on_c, 1, 36, 0
4, 83660, Note_on_c, 1, 33, 68
4, 84024, Note_on_c, 1, 33, 0
4, 84036, Note_on_c, 1, 39, 88
4, 84392, Note_on_c, 1, 39, 0
4, 84436, Note_on_c, 1, 38, 68
4, 84708, Note_on_c, 1, 45, 100
4, 84816, Note_on_c, 1, 45, 0
4, 84820, Note_on_c, 1, 38, 0
4, 84840, Note_on_c, 1, 44, 72
4, 85096, Note_on_c, 1, 42, 63
4, 85104, Note_on_c, 1, 44, 0
4, 85104, Note_on_c, 1, 34, 42
4, 85128, Note_on_c, 1, 34, 0
4, 85176, Note_on_c, 1, 42, 0
4, 85216, Note_on_c, 1, 43, 65
4, 85276, Note_on_c, 1, 43, 0
4, 85464, Note_on_c, 1, 38, 85
4, 85516, Note_on_c, 1, 38, 0
4, 85576, Note_on_c, 1, 35, 81
4, 85932, Note_on_c, 1, 35, 0
4, 85952, Note_on_c, 1, 36, 79
4, 86300, Note_on_c, 1, 36, 0
4, 86352, Note_on_c, 1, 36, 75
4, 86716, Note_on_c, 1, 36, 0
4, 86748, Note_on_c, 1, 31, 57
4, 87088, Note_on_c, 1, 31, 0
4, 87120, Note_on_c, 1, 35, 94
4, 87496, Note_on_c, 1, 35, 0
4, 87512, Note_on_c, 1, 36, 89
4, 87888, Note_on_c, 1, 36, 0
4, 87896, Note_on_c, 1, 38, 86
4, 88280, Note_on_c, 1, 40, 80
4, 88284, Note_on_c, 1, 38, 0
4, 88584, Note_on_c, 1, 38, 63
4, 88604, Note_on_c, 1, 40, 0
4, 88636, Note_on_c, 1, 38, 0
4, 88680, Note_on_c, 1, 48, 122
4, 88932, Note_on_c, 1, 48, 0
4, 88932, Note_on_c, 1, 38, 49
4, 88940, Note_on_c, 1, 46, 71
4, 88960, Note_on_c, 1, 38, 0
4, 89016, Note_on_c, 1, 46, 0
4, 89056, Note_on_c, 1, 47, 66
4, 89308, Note_on_c, 1, 41, 85
4, 89316, Note_on_c, 1, 47, 0
4, 89400, Note_on_c, 1, 41, 0
4, 89436, Note_on_c, 1, 38, 91
4, 89788, Note_on_c, 1, 41, 91
4, 89796, Note_on_c, 1, 38, 0
4, 90060, Note_on_c, 1, 38, 72
4, 90084, Note_on_c, 1, 38, 0
4, 90144, Note_on_c, 1, 41, 0
4, 90176, Note_on_c, 1, 39, 85
4, 90500, Note_on_c, 1, 39, 0
4, 90580, Note_on_c, 1, 40, 99
4, 90740, Pitch_bend_c, 1, 8192
4, 90744, Pitch_bend_c, 1, 8712
4, 90748, Pitch_bend_c, 1, 9232
4, 90752, Pitch_bend_c, 1, 9882
4, 90756, Pitch_bend_c, 1, 10402
4, 90760, Pitch_bend_c, 1, 11052
4, 90764, Pitch_bend_c, 1, 11832
4, 90768, Pitch_bend_c, 1, 12352
4, 90772, Pitch_bend_c, 1, 12872
4, 90776, Pitch_bend_c, 1, 13522
4, 90780, Pitch_bend_c, 1, 14042
4, 90788, Pitch_bend_c, 1, 14432
4, 90792, Pitch_bend_c, 1, 14822
4, 90796, Pitch_bend_c, 1, 15082
4, 90800, Pitch_bend_c, 1, 15212
4, 90808, Pitch_bend_c, 1, 15342
4, 90816, Pitch_bend_c, 1, 15212
4, 90824, Pitch_bend_c, 1, 15082
4, 90828, Pitch_bend_c, 1, 14968
4, 90832, Pitch_bend_c, 1, 14692
4, 90836, Pitch_bend_c, 1, 14432
4, 90840, Pitch_bend_c, 1, 14172
4, 90844, Pitch_bend_c, 1, 13912
4, 90848, Pitch_bend_c, 1, 13652
4, 90852, Pitch_bend_c, 1, 13132
4, 90856, Pitch_bend_c, 1, 12742
4, 90860, Pitch_bend_c, 1, 12222
4, 90864, Pitch_bend_c, 1, 11702
4, 90868, Pitch_bend_c, 1, 11312
4, 90876, Pitch_bend_c, 1, 10662
4, 90880, Pitch_bend_c, 1, 10142
4, 90884, Pitch_bend_c, 1, 9752
4, 90888, Pitch_bend_c, 1, 9232
4, 90892, Pitch_bend_c, 1, 8842
4, 90896, Pitch_bend_c, 1, 8192
4, 90900, Pitch_bend_c, 1, 8192
4, 90900, Pitch_bend_c, 1, 8192
4, 90968, Pitch_bend_c, 1, 8192
4, 90976, Pitch_bend_c, 1, 8712
4, 90976, Pitch_bend_c, 1, 9232
4, 90980, Pitch_bend_c, 1, 9882
4, 90988, Pitch_bend_c, 1, 10272
4, 90988, Pitch_bend_c, 1, 10922
4, 90996, Pitch_bend_c, 1, 11442
4, 91000, Pitch_bend_c, 1, 11962
4, 91004, Pitch_bend_c, 1, 12352
4, 91008, Pitch_bend_c, 1, 12742
4, 91012, Pitch_bend_c, 1, 13002
4, 91020, Pitch_bend_c, 1, 13262
4, 91020, Pitch_bend_c, 1, 13522
4, 91028, Pitch_bend_c, 1, 13652
4, 91044, Pitch_bend_c, 1, 13392
4, 91052, Pitch_bend_c, 1, 13002
4, 91056, Pitch_bend_c, 1, 12742
4, 91060, Pitch_bend_c, 1, 12222
4, 91064, Pitch_bend_c, 1, 11832
4, 91068, Pitch_bend_c, 1, 11052
4, 91072, Pitch_bend_c, 1, 10402
4, 91076, Pitch_bend_c, 1, 9752
4, 91080, Pitch_bend_c, 1, 8842
4, 91212, Pitch_bend_c, 1, 8192
4, 91604, Note_on_c, 1, 35, 81
4, 91656, Note_on_c, 1, 35, 0
4, 91732, Note_on_c, 1, 32, 89
4, 91736, Note_on_c, 1, 40, 0
4, 92084, Note_on_c, 1, 32, 0
4, 92108, Note_on_c, 1, 33, 72
4, 92500, Note_on_c, 1, 35, 78
4, 92504, Note_on_c, 1, 33, 0
4, 92892, Note_on_c, 1, 35, 0
4, 92900, Note_on_c, 1, 36, 72
4, 93284, Note_on_c, 1, 36, 0
4, 93284, Note_on_c, 1, 40, 79
4, 93564, Note_on_c, 1, 36, 46
4, 93620, Note_on_c, 1, 36, 0
4, 93620, Note_on_c, 1, 40, 0
4, 93656, Note_on_c, 1, 42, 88
4, 93992, Note_on_c, 1, 42, 0
4, 94032, Note_on_c, 1, 42, 81
4, 94400, Note_on_c, 1, 42, 0
4, 94412, Note_on_c, 1, 47, 83
4, 94728, Note_on_c, 1, 47, 0
4, 94804, Note_on_c, 1, 39, 84
4, 95136, Note_on_c, 1, 39, 0
4, 95200, Note_on_c, 1, 40, 107
4, 95864, Note_on_c, 1, 35, 97
4, 95888, Note_on_c, 1, 40, 0
4, 96528, Note_on_c, 1, 34, 82
4, 96548, Note_on_c, 1, 35, 0
4, 96580, Note_on_c, 1, 34, 0
4, 96628, Note_on_c, 1, 32, 69
4, 96680, Note_on_c, 1, 32, 0
4, 96740, Note_on_c, 1, 33, 93
4, 97104, Note_on_c, 1, 33, 0
4, 97108, Note_on_c, 1, 35, 78
4, 97480, Note_on_c, 1, 35, 0
4, 97500, Note_on_c, 1, 36, 59
4, 97848, Note_on_c, 1, 36, 0
4, 97864, Note_on_c, 1, 40, 77
4, 98140, Note_on_c, 1, 37, 59
4, 98152, Note_on_c, 1, 40, 0
4, 98220, Note_on_c, 1, 37, 0
4, 98252, Note_on_c, 1, 38, 81
4, 98632, Note_on_c, 1, 45, 81
4, 98660, Note_on_c, 1, 38, 0
4, 98904, Note_on_c, 1, 38, 65
4, 98952, Note_on_c, 1, 38, 0
4, 98996, Note_on_c, 1, 45, 0
4, 99024, Note_on_c, 1, 52, 85
4, 99360, Note_on_c, 1, 52, 0
4, 99404, Note_on_c, 1, 51, 88
4, 99936, Note_on_c, 1, 50, 90
4, 99956, Note_on_c, 1, 51, 0
4, 99992, Note_on_c, 1, 50, 0
4, 100040, Note_on_c, 1, 48, 65
4, 100120, Note_on_c, 1, 48, 0
4, 100184, Note_on_c, 1, 45, 89
4, 100516, Note_on_c, 1, 45, 0
4, 100584, Note_on_c, 1, 38, 65
4, 100924, Note_on_c, 1, 38, 0
4, 100944, Note_on_c, 1, 33, 81
4, 101316, Note_on_c, 1, 33, 0
4, 101336, Note_on_c, 1, 32, 76
4, 101384, Note_on_c, 1, 32, 0
4, 101608, Note_on_c, 1, 34, 86
4, 101720, Note_on_c, 1, 36, 94
4, 101728, Note_on_c, 1, 34, 0
4, 101964, Note_on_c, 1, 36, 0
4, 101964, Note_on_c, 1, 32, 68
4, 102036, Note_on_c, 1, 32, 0
4, 102080, Note_on_c, 1, 34, 78
4, 102448, Note_on_c, 1, 34, 0
4, 102468, Note_on_c, 1, 32, 77
4, 102844, Note_on_c, 1, 32, 0
4, 102872, Note_on_c, 1, 31, 76
4, 103124, Note_on_c, 1, 45, 106
4, 103168, Note_on_c, 1, 31, 0
4, 103240, Note_on_c, 1, 45, 0
4, 103264, Note_on_c, 1, 43, 83
4, 103520, Note_on_c, 1, 38, 92
4, 103556, Note_on_c, 1, 43, 0
4, 103604, Note_on_c, 1, 38, 0
4, 103644, Note_on_c, 1, 35, 77
4, 104012, Note_on_c, 1, 35, 0
4, 104020, Note_on_c, 1, 31, 80
4, 104248, Note_on_c, 1, 31, 0
4, 104268, Note_on_c, 1, 35, 77
4, 104372, Note_on_c, 1, 35, 0
4, 104400, Note_on_c, 1, 36, 76
4, 104676, Note_on_c, 1, 34, 54
4, 104752, Note_on_c, 1, 36, 0
4, 104772, Note_on_c, 1, 34, 0
4, 104776, Note_on_c, 1, 45, 100
4, 105040, Note_on_c, 1, 38, 45
4, 105072, Note_on_c, 1, 38, 0
4, 105164, Note_on_c, 1, 45, 0
4, 105172, Note_on_c, 1, 43, 74
4, 105568, Note_on_c, 1, 43, 0
4, 105572, Note_on_c, 1, 33, 68
4, 105928, Note_on_c, 1, 33, 0
4, 105928, Note_on_c, 1, 38, 71
4, 106224, Note_on_c, 1, 33, 48
4, 106300, Note_on_c, 1, 33, 0
4, 106312, Note_on_c, 1, 45, 96
4, 106348, Note_on_c, 1, 38, 0
4, 106592, Note_on_c, 1, 33, 57
4, 106644, Note_on_c, 1, 33, 0
4, 106824, Note_on_c, 1, 45, 0
4, 106828, Note_on_c, 1, 43, 88
4, 106876, Note_on_c, 1, 43, 0
4, 106952, Note_on_c, 1, 38, 86
4, 107076, Note_on_c, 1, 38, 0
4, 107096, Note_on_c, 1, 31, 81
4, 107344, Note_on_c, 1, 31, 0
4, 107344, Note_on_c, 1, 35, 82
4, 107452, Note_on_c, 1, 35, 0
4, 107472, Note_on_c, 1, 36, 78
4, 107832, Note_on_c, 1, 36, 0
4, 107852, Note_on_c, 1, 34, 68
4, 108220, Note_on_c, 1, 34, 0
4, 108228, Note_on_c, 1, 33, 67
4, 108496, Note_on_c, 1, 34, 72
4, 108516, Note_on_c, 1, 33, 0
4, 108544, Note_on_c, 1, 34, 0
4, 108620, Note_on_c, 1, 39, 72
4, 108988, Note_on_c, 1, 39, 0
4, 109020, Note_on_c, 1, 38, 91
4, 109148, Pitch_bend_c, 1, 8192
4, 109152, Pitch_bend_c, 1, 8192
4, 109156, Pitch_bend_c, 1, 8842
4, 109160, Pitch_bend_c, 1, 9362
4, 109168, Pitch_bend_c, 1, 9882
4, 109168, Pitch_bend_c, 1, 10402
4, 109176, Pitch_bend_c, 1, 10792
4, 109176, Pitch_bend_c, 1, 11312
4, 109180, Pitch_bend_c, 1, 11702
4, 109184, Pitch_bend_c, 1, 11962
4, 109188, Pitch_bend_c, 1, 12092
4, 109196, Pitch_bend_c, 1, 12222
4, 109208, Pitch_bend_c, 1, 11962
4, 109212, Pitch_bend_c, 1, 11572
4, 109216, Pitch_bend_c, 1, 11052
4, 109220, Pitch_bend_c, 1, 10532
4, 109224, Pitch_bend_c, 1, 9882
4, 109228, Pitch_bend_c, 1, 9362
4, 109236, Pitch_bend_c, 1, 8842
4, 109240, Pitch_bend_c, 1, 8192
4, 109240, Pitch_bend_c, 1, 8192
4, 109316, Pitch_bend_c, 1, 8192
4, 109320, Pitch_bend_c, 1, 8842
4, 109324, Pitch_bend_c, 1, 9362
4, 109328, Pitch_bend_c, 1, 9882
4, 109332, Pitch_bend_c, 1, 10402
4, 109336, Pitch_bend_c, 1, 10792
4, 109340, Pitch_bend_c, 1, 11312
4, 109344, Pitch_bend_c, 1, 11572
4, 109348, Pitch_bend_c, 1, 11832
4, 109352, Pitch_bend_c, 1, 12092
4, 109360, Pitch_bend_c, 1, 12222
4, 109368, Pitch_bend_c, 1, 12352
4, 109376, Pitch_bend_c, 1, 12092
4, 109384, Pitch_bend_c, 1, 11832
4, 109388, Pitch_bend_c, 1, 11572
4, 109392, Pitch_bend_c, 1, 11052
4, 109396, Pitch_bend_c, 1, 10402
4, 109400, Pitch_bend_c, 1, 9882
4, 109408, Pitch_bend_c, 1, 9232
4, 109412, Pitch_bend_c, 1, 8192
4, 109416, Pitch_bend_c, 1, 8192
4, 109656, Note_on_c, 1, 32, 82
4, 109720, Note_on_c, 1, 38, 0
4, 109760, Note_on_c, 1, 32, 0
4, 109784, Note_on_c, 1, 31, 76
4, 110148, Note_on_c, 1, 31, 0
4, 110168, Note_on_c, 1, 35, 72
4, 110432, Note_on_c, 1, 35, 0
4, 110432, Note_on_c, 1, 34, 59
4, 110524, Note_on_c, 1, 34, 0
4, 110544, Note_on_c, 1, 36, 68
4, 110856, Note_on_c, 1, 40, 46
4, 110892, Note_on_c, 1, 36, 0
4, 110900, Note_on_c, 1, 40, 0
4, 110928, Note_on_c, 1, 45, 92
4, 111300, Note_on_c, 1, 45, 0
4, 111324, Note_on_c, 1, 43, 74
4, 111684, Note_on_c, 1, 43, 0
4, 111696, Note_on_c, 1, 50, 90
4, 112040, Note_on_c, 1, 50, 0
4, 112076, Note_on_c, 1, 48, 79
4, 112120, Note_on_c, 1, 48, 0
4, 112212, Note_on_c, 1, 36, 91
4, 112304, Note_on_c, 1, 36, 0
4, 112324, Note_on_c, 1, 51, 86
4, 112440, Note_on_c, 1, 51, 0
4, 112472, Note_on_c, 1, 52, 95
4, 112964, Note_on_c, 1, 52, 0
4, 112976, Note_on_c, 1, 48, 79
4, 113020, Note_on_c, 1, 48, 0
4, 113096, Note_on_c, 1, 43, 77
4, 113208, Note_on_c, 1, 43, 0
4, 113236, Note_on_c, 1, 40, 75
4, 113596, Note_on_c, 1, 40, 0
4, 113624, Note_on_c, 1, 41, 70
4, 114004, Note_on_c, 1, 45, 70
4, 114048, Note_on_c, 1, 41, 0
4, 114256, Note_on_c, 1, 41, 73
4, 114304, Note_on_c, 1, 41, 0
4, 114340, Note_on_c, 1, 45, 0
4, 114380, Note_on_c, 1, 50, 81
4, 114760, Note_on_c, 1, 50, 0
4, 114784, Note_on_c, 1, 48, 77
4, 115036, Note_on_c, 1, 45, 51
4, 115060, Note_on_c, 1, 45, 0
4, 115132, Note_on_c, 1, 48, 0
4, 115160, Note_on_c, 1, 56, 100
4, 115524, Note_on_c, 1, 56, 0
4, 115568, Note_on_c, 1, 55, 81
4, 115916, Note_on_c, 1, 55, 0
4, 115936, Note_on_c, 1, 53, 70
4, 116160, Note_on_c, 1, 47, 51
4, 116184, Note_on_c, 1, 47, 0
4, 116308, Note_on_c, 1, 48, 68
4, 116320, Note_on_c, 1, 53, 0
4, 116712, Note_on_c, 1, 40, 66
4, 116756, Note_on_c, 1, 48, 0
4, 117040, Note_on_c, 1, 40, 0
4, 117076, Note_on_c, 1, 40, 84
4, 117448, Note_on_c, 1, 40, 0
4, 117460, Note_on_c, 1, 43, 83
4, 117848, Note_on_c, 1, 48, 97
4, 117860, Note_on_c, 1, 43, 0
4, 118076, Note_on_c, 1, 48, 0
4, 118100, Note_on_c, 1, 43, 80
4, 118196, Note_on_c, 1, 43, 0
4, 118228, Note_on_c, 1, 42, 77
4, 118568, Note_on_c, 1, 42, 0
4, 118608, Note_on_c, 1, 42, 76
4, 118928, Note_on_c, 1, 39, 37
4, 118976, Note_on_c, 1, 39, 0
4, 118992, Note_on_c, 1, 42, 0
4, 119000, Note_on_c, 1, 41, 83
4, 119336, Note_on_c, 1, 41, 0
4, 119340, Note_on_c, 1, 39, 47
4, 119400, Note_on_c, 1, 41, 81
4, 119404, Note_on_c, 1, 39, 0
4, 119736, Note_on_c, 1, 41, 0
4, 119760, Note_on_c, 1, 40, 82
4, 120152, Note_on_c, 1, 47, 87
4, 120168, Note_on_c, 1, 40, 0
4, 120432, Note_on_c, 1, 40, 57
4, 120460, Note_on_c, 1, 40, 0
4, 120520, Note_on_c, 1, 47, 0
4, 120532, Note_on_c, 1, 46, 75
4, 120812, Note_on_c, 1, 40, 57
4, 120852, Note_on_c, 1, 40, 0
4, 120920, Note_on_c, 1, 44, 76
4, 120928, Note_on_c, 1, 46, 0
4, 121184, Note_on_c, 1, 44, 0
4, 121184, Note_on_c, 1, 45, 93
4, 121436, Note_on_c, 1, 40, 79
4, 121500, Note_on_c, 1, 40, 0
4, 121548, Note_on_c, 1, 45, 0
4, 121560, Note_on_c, 1, 34, 70
4, 121680, Note_on_c, 1, 34, 0
4, 121700, Note_on_c, 1, 33, 83
4, 122064, Note_on_c, 1, 33, 0
4, 122076, Note_on_c, 1, 40, 81
4, 122440, Note_on_c, 1, 40, 0
4, 122456, Note_on_c, 1, 39, 79
4, 122816, Note_on_c, 1, 39, 0
4, 122840, Note_on_c, 1, 38, 77
4, 123096, Note_on_c, 1, 54, 72
4, 123860, Note_on_c, 1, 53, 72
4, 123884, Note_on_c, 1, 54, 0
4, 123940, Note_on_c, 1, 53, 0
4, 123996, Note_on_c, 1, 38, 0
4, 124020, Note_on_c, 1, 50, 49
4, 124112, Note_on_c, 1, 50, 0
4, 124256, Note_on_c, 1, 42, 76
4, 124364, Note_on_c, 1, 42, 0
4, 124400, Note_on_c, 1, 43, 68
4, 124548, Note_on_c, 1, 43, 0
4, 124636, Note_on_c, 1, 38, 72
4, 124724, Note_on_c, 1, 38, 0
4, 124760, Note_on_c, 1, 31, 82
4, 125500, Note_on_c, 1, 31, 0
4, 125536, Note_on_c, 1, 35, 76
4, 125924, Note_on_c, 1, 35, 0
4, 125940, Note_on_c, 1, 36, 78
4, 126196, Note_on_c, 1, 43, 104
4, 126228, Note_on_c, 1, 36, 0
4, 126812, Note_on_c, 1, 33, 74
4, 126848, Note_on_c, 1, 43, 0
4, 126888, Note_on_c, 1, 33, 0
4, 126920, Note_on_c, 1, 32, 70
4, 127024, Note_on_c, 1, 32, 0
4, 127052, Note_on_c, 1, 31, 84
4, 127584, Note_on_c, 1, 43, 83
4, 127676, Note_on_c, 1, 43, 0
4, 127700, Note_on_c, 1, 42, 68
4, 127756, Note_on_c, 1, 42, 0
4, 127808, Note_on_c, 1, 31, 0
4, 127836, Note_on_c, 1, 43, 81
4, 127984, Pitch_bend_c, 1, 8712
4, 127988, Pitch_bend_c, 1, 9232
4, 127992, Pitch_bend_c, 1, 9752
4, 127996, Pitch_bend_c, 1, 10142
4, 128000, Pitch_bend_c, 1, 10532
4, 128004, Pitch_bend_c, 1, 10922
4, 128004, Pitch_bend_c, 1, 11312
4, 128012, Pitch_bend_c, 1, 11572
4, 128016, Pitch_bend_c, 1, 11832
4, 128020, Pitch_bend_c, 1, 12092
4, 128024, Pitch_bend_c, 1, 12352
4, 128028, Pitch_bend_c, 1, 12612
4, 128036, Pitch_bend_c, 1, 12872
4, 128040, Pitch_bend_c, 1, 13002
4, 128048, Pitch_bend_c, 1, 13132
4, 128064, Pitch_bend_c, 1, 12872
4, 128064, Pitch_bend_c, 1, 12612
4, 128068, Pitch_bend_c, 1, 12222
4, 128072, Pitch_bend_c, 1, 11832
4, 128080, Pitch_bend_c, 1, 11442
4, 128080, Pitch_bend_c, 1, 10922
4, 128084, Pitch_bend_c, 1, 10272
4, 128092, Pitch_bend_c, 1, 9752
4, 128096, Pitch_bend_c, 1, 9102
4, 128100, Pitch_bend_c, 1, 8192
4, 128104, Pitch_bend_c, 1, 8192
4, 128180, Pitch_bend_c, 1, 8192
4, 128184, Pitch_bend_c, 1, 8842
4, 128188, Pitch_bend_c, 1, 9362
4, 128192, Pitch_bend_c, 1, 9882
4, 128196, Pitch_bend_c, 1, 10402
4, 128200, Pitch_bend_c, 1, 10922
4, 128208, Pitch_bend_c, 1, 11442
4, 128212, Pitch_bend_c, 1, 11832
4, 128216, Pitch_bend_c, 1, 12222
4, 128216, Pitch_bend_c, 1, 12612
4, 128220, Pitch_bend_c, 1, 12872
4, 128224, Pitch_bend_c, 1, 13132
4, 128228, Pitch_bend_c, 1, 13392
4, 128236, Pitch_bend_c, 1, 13652
4, 128240, Pitch_bend_c, 1, 13782
4, 128244, Pitch_bend_c, 1, 13912
4, 128248, Pitch_bend_c, 1, 14042
4, 128280, Pitch_bend_c, 1, 13782
4, 128280, Pitch_bend_c, 1, 13652
4, 128284, Pitch_bend_c, 1, 13262
4, 128288, Pitch_bend_c, 1, 13002
4, 128292, Pitch_bend_c, 1, 12742
4, 128300, Pitch_bend_c, 1, 12352
4, 128304, Pitch_bend_c, 1, 12092
4, 128308, Pitch_bend_c, 1, 11702
4, 128312, Pitch_bend_c, 1, 11442
4, 128316, Pitch_bend_c, 1, 11052
4, 128320, Pitch_bend_c, 1, 10792
4, 128324, Pitch_bend_c, 1, 10532
4, 128328, Pitch_bend_c, 1, 10272
4, 128332, Pitch_bend_c, 1, 10142
4, 128348, Pitch_bend_c, 1, 10012
4, 128368, Pitch_bend_c, 1, 10142
4, 128368, Pitch_bend_c, 1, 10402
4, 128372, Pitch_bend_c, 1, 10662
4, 128376, Pitch_bend_c, 1, 10922
4, 128384, Pitch_bend_c, 1, 11312
4, 128388, Pitch_bend_c, 1, 11702
4, 128392, Pitch_bend_c, 1, 12092
4, 128396, Pitch_bend_c, 1, 12482
4, 128400, Pitch_bend_c, 1, 12872
4, 128408, Pitch_bend_c, 1, 13262
4, 128408, Pitch_bend_c, 1, 13652
4, 128412, Pitch_bend_c, 1, 14042
4, 128416, Pitch_bend_c, 1, 14302
4, 128416, Pitch_bend_c, 1, 14562
4, 128420, Pitch_bend_c, 1, 14822
4, 128428, Pitch_bend_c, 1, 15082
4, 128436, Pitch_bend_c, 1, 15212
4, 128444, Pitch_bend_c, 1, 15342
4, 128464, Pitch_bend_c, 1, 15212
4, 128472, Pitch_bend_c, 1, 14968
4, 128476, Pitch_bend_c, 1, 14692
4, 128480, Pitch_bend_c, 1, 14562
4, 128484, Pitch_bend_c, 1, 14302
4, 128484, Pitch_bend_c, 1, 14042
4, 128492, Pitch_bend_c, 1, 13782
4, 128496, Pitch_bend_c, 1, 13392
4, 128500, Pitch_bend_c, 1, 13002
4, 128504, Pitch_bend_c, 1, 12612
4, 128508, Pitch_bend_c, 1, 12222
4, 128512, Pitch_bend_c, 1, 11832
4, 128520, Pitch_bend_c, 1, 11312
4, 128520, Pitch_bend_c, 1, 10792
4, 128528, Pitch_bend_c, 1, 10272
4, 128532, Pitch_bend_c, 1, 9752
4, 128536, Pitch_bend_c, 1, 9362
4, 128540, Pitch_bend_c, 1, 8972
4, 128544, Pitch_bend_c, 1, 8192
4, 128548, Pitch_bend_c, 1, 8192
4, 128548, Pitch_bend_c, 1, 8192
4, 128548, Pitch_bend_c, 1, 8192
4, 128924, Note_on_c, 1, 35, 79
4, 129032, Note_on_c, 1, 35, 0
4, 129032, Note_on_c, 1, 43, 0
4, 129056, Note_on_c, 1, 36, 84
4, 129360, Note_on_c, 1, 36, 0
4, 129376, Note_on_c, 1, 34, 64
4, 129720, Note_on_c, 1, 34, 0
4, 129744, Note_on_c, 1, 33, 63
4, 130144, Note_on_c, 1, 33, 0
4, 130144, Note_on_c, 1, 37, 88
4, 130496, Note_on_c, 1, 37, 0
4, 130516, Note_on_c, 1, 38, 81
4, 130900, Note_on_c, 1, 48, 91
4, 130924, Note_on_c, 1, 38, 0
4, 131184, Note_on_c, 1, 38, 63
4, 131220, Note_on_c, 1, 38, 0
4, 131264, Note_on_c, 1, 48, 0
4, 131288, Note_on_c, 1, 43, 77
4, 131668, Note_on_c, 1, 43, 0
4, 131668, Note_on_c, 1, 31, 101
4, 132032, Note_on_c, 1, 31, 0
4, 132044, Note_on_c, 1, 36, 79
4, 132432, Note_on_c, 1, 36, 0
4, 132436, Note_on_c, 1, 34, 87
4, 132796, Note_on_c, 1, 34, 0
4, 132828, Note_on_c, 1, 33, 74
4, 133072, Note_on_c, 1, 33, 0
4, 133092, Note_on_c, 1, 40, 98
4, 133204, Note_on_c, 1, 40, 0
4, 133220, Note_on_c, 1, 39, 87
4, 133480, Note_on_c, 1, 37, 85
4, 133500, Note_on_c, 1, 39, 0
4, 133576, Note_on_c, 1, 37, 0
4, 133600, Note_on_c, 1, 38, 83
4, 133848, Note_on_c, 1, 44, 99
4, 133932, Note_on_c, 1, 38, 0
4, 133956, Note_on_c, 1, 44, 0
4, 133980, Note_on_c, 1, 43, 76
4, 134252, Note_on_c, 1, 32, 88
4, 134292, Note_on_c, 1, 43, 0
4, 134328, Note_on_c, 1, 32, 0
4, 134360, Note_on_c, 1, 31, 92
4, 134720, Note_on_c, 1, 31, 0
4, 134740, Note_on_c, 1, 35, 83
4, 135016, Note_on_c, 1, 34, 42
4, 135092, Note_on_c, 1, 35, 0
4, 135120, Note_on_c, 1, 34, 0
4, 135128, Note_on_c, 1, 36, 79
4, 135472, Note_on_c, 1, 36, 0
4, 135520, Note_on_c, 1, 36, 90
4, 135856, Note_on_c, 1, 36, 0
4, 135876, Note_on_c, 1, 31, 75
4, 136152, Note_on_c, 1, 36, 74
4, 136188, Note_on_c, 1, 36, 0
4, 136232, Note_on_c, 1, 31, 0
4, 136272, Note_on_c, 1, 45, 108
4, 136636, Note_on_c, 1, 45, 0
4, 136660, Note_on_c, 1, 43, 80
4, 137012, Note_on_c, 1, 43, 0
4, 137044, Note_on_c, 1, 35, 86
4, 137416, Note_on_c, 1, 35, 0
4, 137416, Note_on_c, 1, 36, 80
4, 137692, Note_on_c, 1, 35, 62
4, 137776, Note_on_c, 1, 35, 0
4, 137800, Note_on_c, 1, 50, 91
4, 137804, Note_on_c, 1, 36, 0
4, 138048, Note_on_c, 1, 50, 0
4, 138072, Note_on_c, 1, 48, 105
4, 138180, Note_on_c, 1, 48, 0
4, 138204, Note_on_c, 1, 47, 86
4, 138268, Note_on_c, 1, 47, 0
4, 138448, Note_on_c, 1, 41, 92
4, 138540, Note_on_c, 1, 41, 0
4, 138576, Note_on_c, 1, 35, 76
4, 138948, Note_on_c, 1, 35, 0
4, 138964, Note_on_c, 1, 41, 92
4, 139328, Note_on_c, 1, 41, 0
4, 139352, Note_on_c, 1, 39, 77
4, 139732, Note_on_c, 1, 40, 79
4, 139740, Note_on_c, 1, 39, 0
4, 140164, Note_on_c, 1, 56, 100
4, 140632, Note_on_c, 1, 56, 0
4, 140660, Note_on_c, 1, 52, 77
4, 140716, Note_on_c, 1, 52, 0
4, 140788, Note_on_c, 1, 47, 66
4, 140824, Note_on_c, 1, 40, 0
4, 141032, Note_on_c, 1, 44, 73
4, 141040, Note_on_c, 1, 47, 0
4, 141108, Note_on_c, 1, 44, 0
4, 141136, Note_on_c, 1, 39, 68
4, 141184, Note_on_c, 1, 39, 0
4, 141260, Note_on_c, 1, 45, 69
4, 141524, Note_on_c, 1, 40, 81
4, 141544, Note_on_c, 1, 45, 0
4, 141600, Note_on_c, 1, 40, 0
4, 141668, Note_on_c, 1, 36, 75
4, 141984, Note_on_c, 1, 36, 0
4, 142032, Note_on_c, 1, 33, 67
4, 142408, Note_on_c, 1, 33, 0
4, 142424, Note_on_c, 1, 31, 79
4, 142772, Note_on_c, 1, 31, 0
4, 142808, Note_on_c, 1, 30, 77
4, 143348, Note_on_c, 1, 48, 80
4, 143396, Note_on_c, 1, 48, 0
4, 143396, Note_on_c, 1, 30, 0
4, 143456, Note_on_c, 1, 30, 70
4, 143552, Note_on_c, 1, 30, 0
4, 143580, Note_on_c, 1, 47, 91
4, 143936, Note_on_c, 1, 47, 0
4, 143956, Note_on_c, 1, 39, 81
4, 144340, Note_on_c, 1, 39, 0
4, 144344, Note_on_c, 1, 40, 80
4, 144720, Note_on_c, 1, 40, 0
4, 144728, Note_on_c, 1, 43, 75
4, 145004, Note_on_c, 1, 38, 74
4, 145028, Note_on_c, 1, 38, 0
4, 145060, Note_on_c, 1, 43, 0
4, 145108, Note_on_c, 1, 35, 83
4, 145468, Note_on_c, 1, 35, 0
4, 145484, Note_on_c, 1, 34, 70
4, 145852, Note_on_c, 1, 34, 0
4, 145880, Note_on_c, 1, 33, 83
4, 146272, Note_on_c, 1, 40, 84
4, 146280, Note_on_c, 1, 33, 0
4, 146520, Note_on_c, 1, 33, 61
4, 146560, Note_on_c, 1, 33, 0
4, 146640, Note_on_c, 1, 40, 0
4, 146660, Note_on_c, 1, 49, 74
4, 147024, Note_on_c, 1, 49, 0
4, 147024, Note_on_c, 1, 39, 74
4, 147356, Note_on_c, 1, 37, 45
4, 147396, Note_on_c, 1, 37, 0
4, 147408, Note_on_c, 1, 39, 0
4, 147416, Note_on_c, 1, 38, 79
4, 147788, Note_on_c, 1, 40, 72
4, 147796, Note_on_c, 1, 38, 0
4, 148176, Note_on_c, 1, 40, 0
4, 148180, Note_on_c, 1, 41, 66
4, 148448, Note_on_c, 1, 38, 45
4, 148476, Note_on_c, 1, 38, 0
4, 148524, Note_on_c, 1, 41, 0
4, 148548, Note_on_c, 1, 45, 72
4, 148868, Note_on_c, 1, 38, 47
4, 148888, Note_on_c, 1, 45, 0
4, 148896, Note_on_c, 1, 38, 0
4, 148948, Note_on_c, 1, 52, 92
4, 149192, Note_on_c, 1, 39, 50
4, 149216, Note_on_c, 1, 39, 0
4, 149308, Note_on_c, 1, 52, 0
4, 149332, Note_on_c, 1, 51, 81
4, 149672, Note_on_c, 1, 51, 0
4, 149696, Note_on_c, 1, 50, 70
4, 150060, Note_on_c, 1, 50, 0
4, 150088, Note_on_c, 1, 57, 89
4, 150376, Note_on_c, 1, 45, 45
4, 150400, Note_on_c, 1, 45, 0
4, 150456, Note_on_c, 1, 57, 0
4, 150488, Note_on_c, 1, 56, 74
4, 150548, Note_on_c, 1, 56, 0
4, 150608, Note_on_c, 1, 51, 55
4, 150628, Note_on_c, 1, 51, 0
4, 150728, Note_on_c, 1, 48, 83
4, 150880, Note_on_c, 1, 44, 81
4, 150908, Note_on_c, 1, 48, 0
4, 151400, Note_on_c, 1, 39, 73
4, 151424, Note_on_c, 1, 44, 0
4, 151524, Note_on_c, 1, 34, 55
4, 151580, Note_on_c, 1, 39, 0
4, 151584, Note_on_c, 1, 34, 0
4, 151660, Note_on_c, 1, 30, 84
4, 151996, Note_on_c, 1, 30, 0
4, 152020, Note_on_c, 1, 31, 75
4, 152392, Note_on_c, 1, 31, 0
4, 152404, Note_on_c, 1, 33, 88
4, 152772, Note_on_c, 1, 33, 0
4, 152784, Note_on_c, 1, 34, 94
4, 153188, Note_on_c, 1, 35, 88
4, 153200, Note_on_c, 1, 34, 0
4, 153576, Note_on_c, 1, 36, 95
4, 153584, Note_on_c, 1, 35, 0
4, 153940, Note_on_c, 1, 36, 0
4, 153944, Note_on_c, 1, 34, 95
4, 154316, Note_on_c, 1, 34, 0
4, 154320, Note_on_c, 1, 33, 79
4, 154596, Note_on_c, 1, 40, 118
4, 154676, Note_on_c, 1, 33, 0
4, 154712, Note_on_c, 1, 40, 0
4, 154724, Note_on_c, 1, 39, 70
4, 154968, Note_on_c, 1, 33, 67
4, 155016, Note_on_c, 1, 33, 0
4, 155076, Note_on_c, 1, 39, 0
4, 155080, Note_on_c, 1, 38, 77
4, 155332, Note_on_c, 1, 38, 0
4, 155332, Note_on_c, 1, 45, 83
4, 155448, Note_on_c, 1, 45, 0
4, 155460, Note_on_c, 1, 44, 80
4, 155708, Note_on_c, 1, 32, 69
4, 155712, Note_on_c, 1, 44, 0
4, 155716, Note_on_c, 1, 42, 79
4, 155756, Note_on_c, 1, 32, 0
4, 155796, Note_on_c, 1, 42, 0
4, 155840, Note_on_c, 1, 43, 77
4, 155896, Note_on_c, 1, 43, 0
4, 155956, Note_on_c, 1, 40, 73
4, 155988, Note_on_c, 1, 40, 0
4, 156100, Note_on_c, 1, 32, 94
4, 156352, Note_on_c, 1, 32, 0
4, 156376, Note_on_c, 1, 31, 90
4, 156456, Note_on_c, 1, 31, 0
4, 156496, Note_on_c, 1, 35, 90
4, 156600, Note_on_c, 1, 35, 0
4, 156640, Note_on_c, 1, 36, 102
4, 157248, Note_on_c, 1, 36, 0
4, 157260, Note_on_c, 1, 34, 79
4, 157388, Note_on_c, 1, 34, 0
4, 157392, Note_on_c, 1, 33, 82
4, 157660, Note_on_c, 1, 32, 45
4, 157724, Note_on_c, 1, 33, 0
4, 157772, Note_on_c, 1, 32, 0
4, 157772, Note_on_c, 1, 40, 88
4, 158024, Note_on_c, 1, 33, 49
4, 158064, Note_on_c, 1, 33, 0
4, 158128, Note_on_c, 1, 40, 0
4, 158152, Note_on_c, 1, 38, 75
4, 158420, Note_on_c, 1, 38, 0
4, 158428, Note_on_c, 1, 30, 86
4, 158520, Note_on_c, 1, 30, 0
4, 158556, Note_on_c, 1, 31, 92
4, 158920, Note_on_c, 1, 40, 81
4, 158940, Note_on_c, 1, 31, 0
4, 159172, Note_on_c, 1, 31, 61
4, 159224, Note_on_c, 1, 40, 0
4, 159256, Note_on_c, 1, 31, 0
4, 159320, Note_on_c, 1, 35, 93
4, 159604, Note_on_c, 1, 34, 43
4, 159648, Note_on_c, 1, 34, 0
4, 159684, Note_on_c, 1, 35, 0
4, 159712, Note_on_c, 1, 36, 82
4, 159936, Note_on_c, 1, 36, 0
4, 159972, Note_on_c, 1, 36, 94
4, 160020, Note_on_c, 1, 36, 0
4, 160076, Note_on_c, 1, 38, 65
4, 160440, Note_on_c, 1, 38, 0
4, 160448, Note_on_c, 1, 40, 77
4, 160736, Note_on_c, 1, 36, 74
4, 160788, Note_on_c, 1, 40, 0
4, 160792, Note_on_c, 1, 36, 0
4, 160848, Note_on_c, 1, 50, 83
4, 161192, Note_on_c, 1, 50, 0
4, 161232, Note_on_c, 1, 48, 78
4, 161576, Note_on_c, 1, 48, 0
4, 161608, Note_on_c, 1, 46, 71
4, 161972, Note_on_c, 1, 46, 0
4, 161988, Note_on_c, 1, 43, 76
4, 162356, Note_on_c, 1, 43, 0
4, 162368, Note_on_c, 1, 42, 44
4, 162756, Note_on_c, 1, 42, 0
4, 162792, Note_on_c, 1, 41, 67
4, 163044, Note_on_c, 1, 36, 79
4, 163092, Note_on_c, 1, 36, 0
4, 163100, Note_on_c, 1, 41, 0
4, 163156, Note_on_c, 1, 33, 81
4, 163528, Note_on_c, 1, 33, 0
4, 163548, Note_on_c, 1, 31, 74
4, 163908, Note_on_c, 1, 31, 0
4, 163924, Note_on_c, 1, 29, 74
4, 164296, Note_on_c, 1, 29, 0
4, 164312, Note_on_c, 1, 32, 81
4, 164668, Note_on_c, 1, 32, 0
4, 164700, Note_on_c, 1, 36, 93
4, 164956, Note_on_c, 1, 32, 67
4, 165032, Note_on_c, 1, 32, 0
4, 165056, Note_on_c, 1, 36, 0
4, 165060, Note_on_c, 1, 44, 95
4, 165364, Note_on_c, 1, 36, 48
4, 165400, Note_on_c, 1, 36, 0
4, 165612, Note_on_c, 1, 41, 70
4, 165628, Note_on_c, 1, 44, 0
4, 165660, Note_on_c, 1, 41, 0
4, 165716, Note_on_c, 1, 42, 84
4, 165764, Note_on_c, 1, 36, 41
4, 165788, Note_on_c, 1, 36, 0
4, 165832, Note_on_c, 1, 42, 0
4, 165864, Note_on_c, 1, 43, 94
4, 166256, Note_on_c, 1, 31, 107
4, 166268, Note_on_c, 1, 43, 0
4, 166916, Note_on_c, 1, 40, 41
4, 166976, Note_on_c, 1, 40, 0
4, 167024, Note_on_c, 1, 43, 107
4, 167028, Note_on_c, 1, 31, 0
4, 167268, Note_on_c, 1, 31, 83
4, 167332, Note_on_c, 1, 31, 0
4, 167368, Note_on_c, 1, 43, 0
4, 167396, Note_on_c, 1, 42, 96
4, 167760, Note_on_c, 1, 42, 0
4, 167764, Note_on_c, 1, 30, 100
4, 168148, Note_on_c, 1, 30, 0
4, 168168, Note_on_c, 1, 41, 109
4, 168500, Note_on_c, 1, 41, 0
4, 168528, Note_on_c, 1, 29, 91
4, 168824, Note_on_c, 1, 28, 47
4, 168856, Note_on_c, 1, 28, 0
4, 168868, Note_on_c, 1, 29, 0
4, 168904, Note_on_c, 1, 40, 108
4, 169592, Note_on_c, 1, 32, 52
4, 169640, Note_on_c, 1, 32, 0
4, 169960, Note_on_c, 1, 35, 94
4, 169984, Note_on_c, 1, 40, 0
4, 170032, Note_on_c, 1, 35, 0
4, 170072, Note_on_c, 1, 34, 77
4, 170340, Note_on_c, 1, 32, 66
4, 170352, Note_on_c, 1, 34, 0
4, 170436, Note_on_c, 1, 32, 0
4, 170456, Note_on_c, 1, 33, 83
4, 170720, Note_on_c, 1, 32, 50
4, 170788, Note_on_c, 1, 33, 0
4, 170840, Note_on_c, 1, 40, 75
4, 170844, Note_on_c, 1, 32, 0
4, 171204, Note_on_c, 1, 40, 0
4, 171228, Note_on_c, 1, 48, 82
4, 171488, Note_on_c, 1, 48, 0
4, 171592, Note_on_c, 1, 49, 96
4, 171868, Note_on_c, 1, 37, 55
4, 171888, Note_on_c, 1, 37, 0
4, 171944, Note_on_c, 1, 49, 0
4, 171992, Note_on_c, 1, 50, 94
4, 172260, Note_on_c, 1, 37, 52
4, 172284, Note_on_c, 1, 37, 0
4, 172352, Note_on_c, 1, 50, 0
4, 172372, Note_on_c, 1, 45, 84
4, 172616, Note_on_c, 1, 37, 53
4, 172640, Note_on_c, 1, 37, 0
4, 172744, Note_on_c, 1, 45, 0
4, 172748, Note_on_c, 1, 42, 73
4, 173008, Note_on_c, 1, 32, 97
4, 173056, Note_on_c, 1, 42, 0
4, 173112, Note_on_c, 1, 32, 0
4, 173148, Note_on_c, 1, 31, 97
4, 173668, Note_on_c, 1, 45, 84
4, 173748, Note_on_c, 1, 45, 0
4, 173792, Note_on_c, 1, 44, 69
4, 173844, Note_on_c, 1, 44, 0
4, 173920, Note_on_c, 1, 43, 85
4, 173968, Note_on_c, 1, 31, 0
4, 174268, Note_on_c, 1, 43, 0
4, 174308, Note_on_c, 1, 31, 85
4, 174560, Note_on_c, 1, 34, 70
4, 174568, Note_on_c, 1, 31, 0
4, 174636, Note_on_c, 1, 34, 0
4, 174676, Note_on_c, 1, 35, 81
4, 174960, Note_on_c, 1, 34, 37
4, 175028, Note_on_c, 1, 35, 0
4, 175056, Note_on_c, 1, 34, 0
4, 175080, Note_on_c, 1, 36, 85
4, 175356, Note_on_c, 1, 43, 112
4, 175756, Note_on_c, 1, 36, 0
4, 176176, Note_on_c, 1, 43, 0
4, 176192, Note_on_c, 1, 43, 66
4, 176468, Note_on_c, 1, 55, 91
4, 176864, Note_on_c, 1, 38, 52
4, 176928, Note_on_c, 1, 38, 0
4, 177508, Note_on_c, 1, 55, 0
4, 177512, Note_on_c, 1, 48, 85
4, 177588, Note_on_c, 1, 48, 0
4, 177604, Note_on_c, 1, 43, 0
4, 177644, Note_on_c, 1, 45, 61
4, 177740, Note_on_c, 1, 45, 0
4, 177772, Note_on_c, 1, 46, 68
4, 177844, Note_on_c, 1, 46, 0
4, 177888, Note_on_c, 1, 47, 63
4, 177972, Note_on_c, 1, 47, 0
4, 178016, Note_on_c, 1, 50, 92
4, 178100, Note_on_c, 1, 50, 0
4, 178148, Note_on_c, 1, 48, 85
4, 178780, Note_on_c, 1, 43, 62
4, 178840, Note_on_c, 1, 43, 0
4, 178868, Note_on_c, 1, 48, 0
4, 178904, Note_on_c, 1, 45, 65
4, 179296, Note_on_c, 1, 45, 0
4, 179296, Note_on_c, 1, 33, 66
4, 179668, Note_on_c, 1, 33, 0
4, 179672, Note_on_c, 1, 38, 71
4, 180040, Note_on_c, 1, 38, 0
4, 180048, Note_on_c, 1, 32, 71
4, 180432, Note_on_c, 1, 32, 0
4, 180448, Note_on_c, 1, 31, 70
4, 180828, Note_on_c, 1, 41, 90
4, 180844, Note_on_c, 1, 31, 0
4, 181180, Note_on_c, 1, 41, 0
4, 181208, Note_on_c, 1, 40, 85
4, 181572, Note_on_c, 1, 40, 0
4, 181608, Note_on_c, 1, 35, 50
4, 181972, Note_on_c, 1, 35, 0
4, 181984, Note_on_c, 1, 36, 77
4, 182368, Note_on_c, 1, 33, 65
4, 182384, Note_on_c, 1, 36, 0
4, 182728, Note_on_c, 1, 33, 0
4, 182752, Note_on_c, 1, 38, 81
4, 183144, Note_on_c, 1, 32, 79
4, 183160, Note_on_c, 1, 38, 0
4, 183528, Note_on_c, 1, 32, 0
4, 183528, Note_on_c, 1, 31, 74
4, 183772, Note_on_c, 1, 45, 104
4, 183852, Note_on_c, 1, 31, 0
4, 183888, Note_on_c, 1, 45, 0
4, 183908, Note_on_c, 1, 43, 59
4, 184140, Note_on_c, 1, 43, 0
4, 184148, Note_on_c, 1, 41, 74
4, 184228, Note_on_c, 1, 41, 0
4, 184276, Note_on_c, 1, 40, 64
4, 184616, Note_on_c, 1, 40, 0
4, 184656, Note_on_c, 1, 40, 81
4, 185008, Note_on_c, 1, 40, 0
4, 185052, Note_on_c, 1, 36, 75
4, 185408, Note_on_c, 1, 36, 0
4, 185424, Note_on_c, 1, 33, 83
4, 185812, Note_on_c, 1, 31, 77
4, 185816, Note_on_c, 1, 33, 0
4, 186164, Note_on_c, 1, 31, 0
4, 186212, Note_on_c, 1, 31, 88
4, 186588, Note_on_c, 1, 36, 81
4, 186596, Note_on_c, 1, 31, 0
4, 186884, Note_on_c, 1, 34, 48
4, 186924, Note_on_c, 1, 34, 0
4, 186964, Note_on_c, 1, 48, 93
4, 186968, Note_on_c, 1, 36, 0
4, 187348, Note_on_c, 1, 48, 0
4, 187372, Note_on_c, 1, 47, 76
4, 187720, Note_on_c, 1, 47, 0
4, 187748, Note_on_c, 1, 41, 85
4, 188100, Note_on_c, 1, 41, 0
4, 188128, Note_on_c, 1, 35, 71
4, 188508, Note_on_c, 1, 39, 84
4, 188536, Note_on_c, 1, 35, 0
4, 188816, Note_on_c, 1, 35, 45
4, 188844, Note_on_c, 1, 35, 0
4, 188896, Note_on_c, 1, 40, 81
4, 188900, Note_on_c, 1, 39, 0
4, 189264, Note_on_c, 1, 40, 0
4, 189280, Note_on_c, 1, 46, 88
4, 189628, Note_on_c, 1, 46, 0
4, 189660, Note_on_c, 1, 34, 68
4, 190052, Note_on_c, 1, 28, 81
4, 190064, Note_on_c, 1, 34, 0
4, 190424, Note_on_c, 1, 33, 85
4, 190436, Note_on_c, 1, 28, 0
4, 190832, Note_on_c, 1, 33, 0
4, 190832, Note_on_c, 1, 35, 89
4, 191204, Note_on_c, 1, 36, 88
4, 191208, Note_on_c, 1, 35, 0
4, 191472, Note_on_c, 1, 45, 118
4, 191508, Note_on_c, 1, 36, 0
4, 191572, Note_on_c, 1, 45, 0
4, 191600, Note_on_c, 1, 43, 96
4, 191908, Note_on_c, 1, 43, 0
4, 191968, Note_on_c, 1, 42, 76
4, 192304, Note_on_c, 1, 42, 0
4, 192344, Note_on_c, 1, 42, 91
4, 192712, Note_on_c, 1, 42, 0
4, 192728, Note_on_c, 1, 41, 67
4, 193072, Note_on_c, 1, 41, 0
4, 193112, Note_on_c, 1, 41, 108
4, 193464, Note_on_c, 1, 41, 0
4, 193496, Note_on_c, 1, 40, 74
4, 193840, Note_on_c, 1, 40, 0
4, 193876, Note_on_c, 1, 40, 94
4, 194264, Note_on_c, 1, 40, 0
4, 194276, Note_on_c, 1, 35, 84
4, 194620, Note_on_c, 1, 35, 0
4, 194636, Note_on_c, 1, 34, 88
4, 195016, Note_on_c, 1, 34, 0
4, 195028, Note_on_c, 1, 33, 82
4, 195388, Note_on_c, 1, 33, 0
4, 195432, Note_on_c, 1, 33, 94
4, 195844, Note_on_c, 1, 33, 0
4, 195844, Note_on_c, 1, 40, 58
4, 196164, Note_on_c, 1, 40, 0
4, 196196, Note_on_c, 1, 40, 116
4, 196568, Note_on_c, 1, 40, 0
4, 196580, Note_on_c, 1, 38, 81
4, 196860, Note_on_c, 1, 37, 47
4, 196936, Note_on_c, 1, 37, 0
4, 196948, Note_on_c, 1, 45, 98
4, 196972, Note_on_c, 1, 38, 0
4, 197292, Note_on_c, 1, 45, 0
4, 197316, Note_on_c, 1, 41, 57
4, 197604, Note_on_c, 1, 38, 72
4, 197648, Note_on_c, 1, 41, 0
4, 197704, Note_on_c, 1, 38, 0
4, 197720, Note_on_c, 1, 33, 85
4, 198100, Note_on_c, 1, 36, 92
4, 198116, Note_on_c, 1, 33, 0
4, 198500, Note_on_c, 1, 33, 77
4, 198512, Note_on_c, 1, 36, 0
4, 198864, Note_on_c, 1, 33, 0
4, 198868, Note_on_c, 1, 29, 75
4, 199236, Note_on_c, 1, 29, 0
4, 199260, Note_on_c, 1, 31, 92
4, 199612, Note_on_c, 1, 31, 0
4, 199648, Note_on_c, 1, 32, 87
4, 199908, Note_on_c, 1, 34, 77
4, 199968, Note_on_c, 1, 34, 0
4, 199968, Note_on_c, 1, 32, 0
4, 200016, Note_on_c, 1, 36, 98
4, 200268, Note_on_c, 1, 30, 72
4, 200288, Note_on_c, 1, 36, 0
4, 200316, Note_on_c, 1, 30, 0
4, 200380, Note_on_c, 1, 34, 91
4, 200764, Note_on_c, 1, 32, 91
4, 200784, Note_on_c, 1, 34, 0
4, 201044, Note_on_c, 1, 30, 79
4, 201076, Note_on_c, 1, 32, 0
4, 201124, Note_on_c, 1, 30, 0
4, 201176, Note_on_c, 1, 31, 85
4, 201428, Note_on_c, 1, 45, 106
4, 201528, Note_on_c, 1, 45, 0
4, 201536, Note_on_c, 1, 31, 0
4, 201560, Note_on_c, 1, 43, 69
4, 201784, Note_on_c, 1, 43, 0
4, 201788, Note_on_c, 1, 31, 73
4, 201804, Note_on_c, 1, 52, 84
4, 201812, Note_on_c, 1, 31, 0
4, 201928, Note_on_c, 1, 52, 0
4, 201944, Note_on_c, 1, 50, 77
4, 202284, Note_on_c, 1, 50, 0
4, 202304, Note_on_c, 1, 47, 62
4, 202576, Note_on_c, 1, 38, 56
4, 202600, Note_on_c, 1, 38, 0
4, 202680, Note_on_c, 1, 47, 0
4, 202704, Note_on_c, 1, 48, 83
4, 202956, Note_on_c, 1, 48, 0
4, 202964, Note_on_c, 1, 44, 76
4, 203076, Note_on_c, 1, 44, 0
4, 203096, Note_on_c, 1, 45, 81
4, 203748, Note_on_c, 1, 38, 93
4, 203800, Note_on_c, 1, 38, 0
4, 203880, Note_on_c, 1, 37, 82
4, 203896, Note_on_c, 1, 38, 78
4, 203920, Note_on_c, 1, 38, 0
4, 204228, Note_on_c, 1, 37, 0
4, 204268, Note_on_c, 1, 38, 81
4, 204396, Note_on_c, 1, 45, 0
4, 204516, Note_on_c, 1, 45, 91
4, 204592, Note_on_c, 1, 38, 0
4, 204620, Note_on_c, 1, 45, 0
4, 204652, Note_on_c, 1, 44, 60
4, 204888, Note_on_c, 1, 34, 66
4, 204940, Note_on_c, 1, 34, 0
4, 204988, Note_on_c, 1, 44, 0
4, 205024, Note_on_c, 1, 43, 82
4, 205068, Note_on_c, 1, 43, 0
4, 205140, Note_on_c, 1, 38, 89
4, 205372, Note_on_c, 1, 38, 0
4, 205392, Note_on_c, 1, 32, 70
4, 205644, Note_on_c, 1, 32, 0
4, 205660, Note_on_c, 1, 31, 74
4, 205740, Note_on_c, 1, 31, 0
4, 205776, Note_on_c, 1, 36, 91
4, 206120, Note_on_c, 1, 36, 0
4, 206160, Note_on_c, 1, 34, 81
4, 206504, Note_on_c, 1, 34, 0
4, 206536, Note_on_c, 1, 33, 79
4, 206660, Note_on_c, 1, 40, 83
4, 206720, Note_on_c, 1, 33, 0
4, 206752, Note_on_c, 1, 40, 0
4, 206784, Note_on_c, 1, 39, 73
4, 206892, Note_on_c, 1, 39, 0
4, 206916, Note_on_c, 1, 37, 72
4, 207008, Note_on_c, 1, 37, 0
4, 207076, Note_on_c, 1, 39, 64
4, 207156, Note_on_c, 1, 39, 0
4, 207200, Note_on_c, 1, 38, 104
4, 207208, Note_on_c, 1, 39, 52
4, 207232, Note_on_c, 1, 39, 0
4, 207468, Note_on_c, 1, 33, 80
4, 207472, Note_on_c, 1, 38, 0
4, 207540, Note_on_c, 1, 33, 0
4, 207576, Note_on_c, 1, 32, 87
4, 207656, Note_on_c, 1, 32, 0
4, 207704, Note_on_c, 1, 30, 84
4, 208052, Note_on_c, 1, 30, 0
4, 208068, Note_on_c, 1, 31, 85
4, 208444, Note_on_c, 1, 31, 0
4, 208456, Note_on_c, 1, 35, 76
4, 208796, Note_on_c, 1, 34, 36
4, 208856, Note_on_c, 1, 34, 0
4, 208856, Note_on_c, 1, 35, 0
4, 208864, Note_on_c, 1, 36, 80
4, 209548, Note_on_c, 1, 53, 97
4, 209596, Note_on_c, 1, 36, 0
4, 209656, Note_on_c, 1, 53, 0
4, 209668, Note_on_c, 1, 52, 74
4, 209992, Note_on_c, 1, 52, 0
4, 210024, Note_on_c, 1, 50, 76
4, 210244, Note_on_c, 1, 43, 47
4, 210280, Note_on_c, 1, 43, 0
4, 210376, Note_on_c, 1, 50, 0
4, 210392, Note_on_c, 1, 48, 75
4, 210748, Note_on_c, 1, 46, 63
4, 210776, Note_on_c, 1, 48, 0
4, 211012, Note_on_c, 1, 40, 61
4, 211052, Note_on_c, 1, 40, 0
4, 211120, Note_on_c, 1, 46, 0
4, 211128, Note_on_c, 1, 43, 64
4, 211476, Note_on_c, 1, 43, 0
4, 211512, Note_on_c, 1, 44, 67
4, 211916, Note_on_c, 1, 44, 0
4, 211940, Note_on_c, 1, 45, 75
4, 212000, Note_on_c, 1, 45, 0
4, 212048, Note_on_c, 1, 41, 83
4, 212088, Note_on_c, 1, 41, 0
4, 212176, Note_on_c, 1, 36, 89
4, 212260, Note_on_c, 1, 36, 0
4, 212324, Note_on_c, 1, 32, 77
4, 212556, Note_on_c, 1, 31, 72
4, 212652, Note_on_c, 1, 32, 0
4, 212664, Note_on_c, 1, 31, 0
4, 212704, Note_on_c, 1, 29, 85
4, 213076, Note_on_c, 1, 36, 80
4, 213088, Note_on_c, 1, 29, 0
4, 213352, Note_on_c, 1, 34, 45
4, 213416, Note_on_c, 1, 34, 0
4, 213420, Note_on_c, 1, 36, 0
4, 213464, Note_on_c, 1, 44, 73
4, 213824, Note_on_c, 1, 44, 0
4, 213848, Note_on_c, 1, 43, 70
4, 214216, Note_on_c, 1, 43, 0
4, 214236, Note_on_c, 1, 41, 72
4, 214600, Note_on_c, 1, 41, 0
4, 214600, Note_on_c, 1, 42, 84
4, 214956, Note_on_c, 1, 42, 0
4, 214992, Note_on_c, 1, 43, 64
4, 215372, Note_on_c, 1, 43, 0
4, 215384, Note_on_c, 1, 55, 90
4, 216020, Note_on_c, 1, 38, 71
4, 216040, Note_on_c, 1, 38, 0
4, 216132, Note_on_c, 1, 55, 0
4, 216160, Note_on_c, 1, 43, 63
4, 216400, Note_on_c, 1, 31, 53
4, 216432, Note_on_c, 1, 31, 0
4, 216532, Note_on_c, 1, 43, 0
4, 216536, Note_on_c, 1, 54, 88
4, 216868, Note_on_c, 1, 54, 0
4, 216904, Note_on_c, 1, 42, 71
4, 217264, Note_on_c, 1, 42, 0
4, 217284, Note_on_c, 1, 41, 74
4, 217556, Note_on_c, 1, 36, 59
4, 217596, Note_on_c, 1, 36, 0
4, 217648, Note_on_c, 1, 41, 0
4, 217660, Note_on_c, 1, 53, 85
4, 217972, Note_on_c, 1, 37, 32
4, 217996, Note_on_c, 1, 37, 0
4, 218016, Note_on_c, 1, 53, 0
4, 218064, Note_on_c, 1, 52, 69
4, 218428, Note_on_c, 1, 52, 0
4, 218444, Note_on_c, 1, 47, 66
4, 218832, Note_on_c, 1, 47, 0
4, 218836, Note_on_c, 1, 43, 68
4, 218860, Note_on_c, 1, 43, 0
4, 218952, Note_on_c, 1, 40, 70
4, 218976, Note_on_c, 1, 40, 0
4, 219072, Note_on_c, 1, 35, 89
4, 219152, Note_on_c, 1, 35, 0
4, 219212, Note_on_c, 1, 34, 86
4, 219576, Note_on_c, 1, 34, 0
4, 219592, Note_on_c, 1, 33, 84
4, 219860, Note_on_c, 1, 34, 70
4, 219920, Note_on_c, 1, 33, 0
4, 219928, Note_on_c, 1, 34, 0
4, 219980, Note_on_c, 1, 40, 72
4, 220232, Note_on_c, 1, 34, 51
4, 220288, Note_on_c, 1, 34, 0
4, 220348, Note_on_c, 1, 40, 0
4, 220368, Note_on_c, 1, 49, 65
4, 220648, Note_on_c, 1, 36, 70
4, 220692, Note_on_c, 1, 36, 0
4, 220744, Note_on_c, 1, 49, 0
4, 220744, Note_on_c, 1, 37, 87
4, 221020, Note_on_c, 1, 34, 46
4, 221120, Note_on_c, 1, 37, 0
4, 221144, Note_on_c, 1, 34, 0
4, 221144, Note_on_c, 1, 38, 78
4, 221396, Note_on_c, 1, 37, 62
4, 221460, Note_on_c, 1, 37, 0
4, 221512, Note_on_c, 1, 40, 69
4, 221532, Note_on_c, 1, 38, 0
4, 221792, Note_on_c, 1, 38, 59
4, 221800, Note_on_c, 1, 37, 50
4, 221820, Note_on_c, 1, 38, 0
4, 221828, Note_on_c, 1, 37, 0
4, 221880, Note_on_c, 1, 40, 0
4, 221912, Note_on_c, 1, 41, 69
4, 222180, Note_on_c, 1, 37, 66
4, 222228, Note_on_c, 1, 37, 0
4, 222260, Note_on_c, 1, 41, 0
4, 222292, Note_on_c, 1, 42, 69
4, 222556, Note_on_c, 1, 38, 56
4, 222584, Note_on_c, 1, 38, 0
4, 222644, Note_on_c, 1, 42, 0
4, 222684, Note_on_c, 1, 43, 79
4, 223340, Note_on_c, 1, 38, 66
4, 223360, Note_on_c, 1, 38, 0
4, 223448, Note_on_c, 1, 43, 0
4, 223456, Note_on_c, 1, 41, 89
4, 223944, Note_on_c, 1, 38, 78
4, 223952, Note_on_c, 1, 41, 0
4, 224060, Note_on_c, 1, 38, 0
4, 224072, Note_on_c, 1, 39, 76
4, 224184, Note_on_c, 1, 39, 0
4, 224216, Note_on_c, 1, 40, 79
4, 224452, Note_on_c, 1, 39, 55
4, 224540, Note_on_c, 1, 39, 0
4, 224580, Note_on_c, 1, 40, 0
4, 224600, Note_on_c, 1, 52, 113
4, 225076, Note_on_c, 1, 52, 0
4, 225104, Note_on_c, 1, 46, 74
4, 225196, Note_on_c, 1, 46, 0
4, 225232, Note_on_c, 1, 43, 81
4, 225280, Note_on_c, 1, 43, 0
4, 225372, Note_on_c, 1, 40, 78
4, 225436, Note_on_c, 1, 40, 0
4, 225496, Note_on_c, 1, 34, 70
4, 225548, Note_on_c, 1, 34, 0
4, 225608, Note_on_c, 1, 32, 88
4, 225708, Note_on_c, 1, 32, 0
4, 225744, Note_on_c, 1, 33, 91
4, 225868, Note_on_c, 1, 33, 0
4, 226000, Note_on_c, 1, 33, 76
4, 226008, Note_on_c, 1, 35, 66
4, 226036, Note_on_c, 1, 35, 0
4, 226104, Note_on_c, 1, 33, 0
4, 226128, Note_on_c, 1, 35, 86
4, 226208, Note_on_c, 1, 35, 0
4, 226360, Note_on_c, 1, 35, 93
4, 226488, Note_on_c, 1, 35, 0
4, 226504, Note_on_c, 1, 36, 88
4, 226580, Note_on_c, 1, 36, 0
4, 226764, Note_on_c, 1, 36, 91
4, 226856, Note_on_c, 1, 36, 0
4, 226904, Note_on_c, 1, 37, 88
4, 227224, Note_on_c, 1, 37, 0
4, 227284, Note_on_c, 1, 38, 79
4, 227624, Note_on_c, 1, 38, 0
4, 227660, Note_on_c, 1, 40, 82
4, 228044, Note_on_c, 1, 40, 0
4, 228056, Note_on_c, 1, 41, 72
4, 228328, Note_on_c, 1, 37, 59
4, 228364, Note_on_c, 1, 37, 0
4, 228408, Note_on_c, 1, 41, 0
4, 228452, Note_on_c, 1, 42, 60
4, 228688, Note_on_c, 1, 42, 0
4, 228692, Note_on_c, 1, 43, 78
4, 228836, Note_on_c, 1, 43, 0
4, 229108, Note_on_c, 1, 30, 60
4, 229224, Note_on_c, 1, 30, 0
4, 229248, Note_on_c, 1, 31, 88
4, 229484, Note_on_c, 1, 31, 0
4, 229488, Pitch_bend_c, 1, 8192
4, 229488, Control_c, 1, 64, 0
4, 229492, Control_c, 1, 121, 0
4, 229492, End_track
5, 0, Start_track
5, 0, Title_t, "and Julie Stein"
5, 0, End_track
6, 0, Start_track
6, 0, Title_t, "Sequenced by"
6, 0, End_track
7, 0, Start_track
7, 0, Title_t, "Doug McKenzie"
7, 0, End_track
8, 0, Start_track
8, 0, Title_t, ""
8, 0, End_track
9, 0, Start_track
9, 0, Title_t, "Needs GS brush set drums to sound OK"
9, 0, Program_c, 9, 40
9, 79872, Control_c, 9, 0, 127
9, 79872, Note_on_c, 9, 38, 67
9, 79872, Note_on_c, 9, 35, 53
9, 79873, Control_c, 9, 32, 0
9, 79880, Note_on_c, 9, 35, 0
9, 79892, Note_on_c, 9, 38, 0
9, 80084, Note_on_c, 9, 40, 45
9, 80132, Note_on_c, 9, 40, 0
9, 80220, Note_on_c, 9, 44, 60
9, 80220, Note_on_c, 9, 35, 60
9, 80220, Note_on_c, 9, 38, 67
9, 80224, Note_on_c, 9, 44, 0
9, 80228, Note_on_c, 9, 35, 0
9, 80232, Note_on_c, 9, 38, 0
9, 80476, Note_on_c, 9, 40, 45
9, 80524, Note_on_c, 9, 40, 0
9, 80604, Note_on_c, 9, 38, 67
9, 80604, Note_on_c, 9, 35, 60
9, 80620, Note_on_c, 9, 35, 0
9, 80620, Note_on_c, 9, 38, 0
9, 80852, Note_on_c, 9, 40, 45
9, 80896, Note_on_c, 9, 40, 0
9, 80984, Note_on_c, 9, 35, 60
9, 80988, Note_on_c, 9, 44, 60
9, 80988, Note_on_c, 9, 38, 86
9, 80992, Note_on_c, 9, 35, 0
9, 80996, Note_on_c, 9, 38, 0
9, 80996, Note_on_c, 9, 44, 0
9, 81236, Note_on_c, 9, 40, 45
9, 81284, Note_on_c, 9, 40, 0
9, 81368, Note_on_c, 9, 35, 60
9, 81368, Note_on_c, 9, 38, 67
9, 81372, Note_on_c, 9, 35, 0
9, 81376, Note_on_c, 9, 38, 0
9, 81620, Note_on_c, 9, 40, 45
9, 81668, Note_on_c, 9, 40, 0
9, 81752, Note_on_c, 9, 35, 60
9, 81752, Note_on_c, 9, 35, 0
9, 81752, Note_on_c, 9, 38, 67
9, 81756, Note_on_c, 9, 38, 0
9, 81756, Note_on_c, 9, 44, 60
9, 81756, Note_on_c, 9, 44, 0
9, 82004, Note_on_c, 9, 40, 45
9, 82052, Note_on_c, 9, 40, 0
9, 82132, Note_on_c, 9, 38, 67
9, 82136, Note_on_c, 9, 38, 0
9, 82136, Note_on_c, 9, 35, 60
9, 82140, Note_on_c, 9, 35, 0
9, 82388, Note_on_c, 9, 40, 60
9, 82408, Note_on_c, 9, 40, 0
9, 82520, Note_on_c, 9, 44, 60
9, 82520, Note_on_c, 9, 38, 86
9, 82524, Note_on_c, 9, 35, 60
9, 82532, Note_on_c, 9, 35, 0
9, 82536, Note_on_c, 9, 38, 0
9, 82536, Note_on_c, 9, 44, 0
9, 82772, Note_on_c, 9, 40, 60
9, 82780, Note_on_c, 9, 40, 0
9, 82780, Note_on_c, 9, 39, 52
9, 82824, Note_on_c, 9, 39, 0
9, 82900, Note_on_c, 9, 35, 60
9, 82904, Note_on_c, 9, 38, 67
9, 82912, Note_on_c, 9, 38, 0
9, 82912, Note_on_c, 9, 35, 0
9, 83156, Note_on_c, 9, 40, 60
9, 83172, Note_on_c, 9, 40, 0
9, 83284, Note_on_c, 9, 44, 60
9, 83288, Note_on_c, 9, 38, 67
9, 83292, Note_on_c, 9, 35, 60
9, 83296, Note_on_c, 9, 35, 0
9, 83296, Note_on_c, 9, 38, 0
9, 83296, Note_on_c, 9, 44, 0
9, 83540, Note_on_c, 9, 40, 60
9, 83556, Note_on_c, 9, 40, 0
9, 83668, Note_on_c, 9, 38, 67
9, 83672, Note_on_c, 9, 35, 60
9, 83676, Note_on_c, 9, 35, 0
9, 83680, Note_on_c, 9, 38, 0
9, 83924, Note_on_c, 9, 40, 60
9, 83944, Note_on_c, 9, 40, 0
9, 84052, Note_on_c, 9, 35, 60
9, 84056, Note_on_c, 9, 44, 60
9, 84060, Note_on_c, 9, 35, 0
9, 84060, Note_on_c, 9, 38, 86
9, 84064, Note_on_c, 9, 38, 0
9, 84064, Note_on_c, 9, 44, 0
9, 84301, Note_on_c, 9, 39, 48
9, 84312, Note_on_c, 9, 40, 60
9, 84320, Note_on_c, 9, 40, 0
9, 84344, Note_on_c, 9, 38, 90
9, 84344, Note_on_c, 9, 38, 90
9, 84388, Note_on_c, 9, 38, 0
9, 84388, Note_on_c, 9, 38, 0
9, 84391, Note_on_c, 9, 39, 0
9, 84440, Note_on_c, 9, 38, 90
9, 84440, Note_on_c, 9, 35, 60
9, 84444, Note_on_c, 9, 38, 67
9, 84452, Note_on_c, 9, 35, 0
9, 84452, Note_on_c, 9, 38, 0
9, 84455, Note_on_c, 9, 36, 29
9, 84480, Note_on_c, 9, 38, 0
9, 84604, Note_on_c, 9, 36, 0
9, 84696, Note_on_c, 9, 40, 60
9, 84708, Note_on_c, 9, 40, 0
9, 84820, Note_on_c, 9, 35, 60
9, 84824, Note_on_c, 9, 38, 67
9, 84824, Note_on_c, 9, 44, 60
9, 84828, Note_on_c, 9, 44, 0
9, 84832, Note_on_c, 9, 38, 0
9, 84832, Note_on_c, 9, 35, 0
9, 85076, Note_on_c, 9, 40, 60
9, 85092, Note_on_c, 9, 40, 0
9, 85204, Note_on_c, 9, 35, 60
9, 85208, Note_on_c, 9, 38, 67
9, 85212, Note_on_c, 9, 38, 0
9, 85212, Note_on_c, 9, 35, 0
9, 85460, Note_on_c, 9, 40, 60
9, 85464, Note_on_c, 9, 40, 0
9, 85588, Note_on_c, 9, 46, 60
9, 85592, Note_on_c, 9, 35, 60
9, 85596, Note_on_c, 9, 38, 86
9, 85600, Note_on_c, 9, 38, 0
9, 85600, Note_on_c, 9, 35, 0
9, 85600, Note_on_c, 9, 46, 0
9, 85844, Note_on_c, 9, 36, 96
9, 85848, Note_on_c, 9, 40, 60
9, 85864, Note_on_c, 9, 40, 0
9, 85976, Note_on_c, 9, 38, 67
9, 85976, Note_on_c, 9, 35, 60
9, 85980, Note_on_c, 9, 38, 0
9, 85984, Note_on_c, 9, 35, 0
9, 86174, Note_on_c, 9, 36, 0
9, 86232, Note_on_c, 9, 40, 60
9, 86244, Note_on_c, 9, 40, 0
9, 86360, Note_on_c, 9, 35, 60
9, 86360, Note_on_c, 9, 44, 60
9, 86364, Note_on_c, 9, 38, 67
9, 86372, Note_on_c, 9, 38, 0
9, 86376, Note_on_c, 9, 44, 0
9, 86376, Note_on_c, 9, 35, 0
9, 86612, Note_on_c, 9, 40, 60
9, 86628, Note_on_c, 9, 40, 0
9, 86740, Note_on_c, 9, 38, 67
9, 86744, Note_on_c, 9, 35, 60
9, 86748, Note_on_c, 9, 38, 0
9, 86752, Note_on_c, 9, 35, 0
9, 86986, Note_on_c, 9, 39, 56
9, 86996, Note_on_c, 9, 40, 60
9, 87012, Note_on_c, 9, 40, 0
9, 87063, Note_on_c, 9, 39, 0
9, 87118, Note_on_c, 9, 36, 70
9, 87128, Note_on_c, 9, 44, 60
9, 87128, Note_on_c, 9, 38, 86
9, 87128, Note_on_c, 9, 35, 60
9, 87140, Note_on_c, 9, 35, 0
9, 87144, Note_on_c, 9, 44, 0
9, 87148, Note_on_c, 9, 38, 0
9, 87380, Note_on_c, 9, 40, 60
9, 87384, Note_on_c, 9, 36, 0
9, 87396, Note_on_c, 9, 40, 0
9, 87508, Note_on_c, 9, 38, 67
9, 87512, Note_on_c, 9, 35, 60
9, 87520, Note_on_c, 9, 35, 0
9, 87524, Note_on_c, 9, 38, 0
9, 87764, Note_on_c, 9, 40, 60
9, 87780, Note_on_c, 9, 40, 0
9, 87892, Note_on_c, 9, 38, 67
9, 87896, Note_on_c, 9, 35, 60
9, 87896, Note_on_c, 9, 44, 60
9, 87904, Note_on_c, 9, 44, 0
9, 87908, Note_on_c, 9, 35, 0
9, 87908, Note_on_c, 9, 38, 0
9, 88152, Note_on_c, 9, 40, 60
9, 88164, Note_on_c, 9, 40, 0
9, 88280, Note_on_c, 9, 38, 67
9, 88280, Note_on_c, 9, 35, 60
9, 88288, Note_on_c, 9, 35, 0
9, 88288, Note_on_c, 9, 38, 0
9, 88532, Note_on_c, 9, 40, 60
9, 88548, Note_on_c, 9, 40, 0
9, 88560, Note_on_c, 9, 36, 87
9, 88634, Note_on_c, 9, 36, 0
9, 88660, Note_on_c, 9, 38, 86
9, 88664, Note_on_c, 9, 35, 60
9, 88664, Note_on_c, 9, 44, 60
9, 88676, Note_on_c, 9, 44, 0
9, 88676, Note_on_c, 9, 35, 0
9, 88676, Note_on_c, 9, 38, 0
9, 88916, Note_on_c, 9, 40, 60
9, 88928, Note_on_c, 9, 40, 0
9, 89044, Note_on_c, 9, 38, 67
9, 89048, Note_on_c, 9, 35, 60
9, 89052, Note_on_c, 9, 35, 0
9, 89052, Note_on_c, 9, 38, 0
9, 89300, Note_on_c, 9, 40, 60
9, 89308, Note_on_c, 9, 40, 0
9, 89432, Note_on_c, 9, 38, 67
9, 89432, Note_on_c, 9, 44, 60
9, 89436, Note_on_c, 9, 35, 60
9, 89440, Note_on_c, 9, 35, 0
9, 89440, Note_on_c, 9, 44, 0
9, 89440, Note_on_c, 9, 38, 0
9, 89669, Note_on_c, 9, 39, 46
9, 89684, Note_on_c, 9, 40, 60
9, 89704, Note_on_c, 9, 40, 0
9, 89710, Note_on_c, 9, 39, 0
9, 89812, Note_on_c, 9, 35, 60
9, 89816, Note_on_c, 9, 38, 67
9, 89824, Note_on_c, 9, 38, 0
9, 89824, Note_on_c, 9, 35, 0
9, 90072, Note_on_c, 9, 40, 60
9, 90080, Note_on_c, 9, 40, 0
9, 90200, Note_on_c, 9, 38, 86
9, 90200, Note_on_c, 9, 35, 60
9, 90204, Note_on_c, 9, 44, 60
9, 90212, Note_on_c, 9, 44, 0
9, 90216, Note_on_c, 9, 35, 0
9, 90216, Note_on_c, 9, 38, 0
9, 90452, Note_on_c, 9, 40, 60
9, 90468, Note_on_c, 9, 40, 0
9, 90580, Note_on_c, 9, 38, 67
9, 90580, Note_on_c, 9, 35, 60
9, 90588, Note_on_c, 9, 35, 0
9, 90588, Note_on_c, 9, 38, 0
9, 90836, Note_on_c, 9, 40, 60
9, 90844, Note_on_c, 9, 40, 0
9, 90968, Note_on_c, 9, 35, 60
9, 90968, Note_on_c, 9, 38, 67
9, 90968, Note_on_c, 9, 44, 60
9, 90976, Note_on_c, 9, 44, 0
9, 90976, Note_on_c, 9, 38, 0
9, 90976, Note_on_c, 9, 35, 0
9, 91220, Note_on_c, 9, 40, 60
9, 91240, Note_on_c, 9, 40, 0
9, 91348, Note_on_c, 9, 35, 60
9, 91352, Note_on_c, 9, 38, 67
9, 91356, Note_on_c, 9, 38, 0
9, 91356, Note_on_c, 9, 35, 0
9, 91608, Note_on_c, 9, 40, 60
9, 91620, Note_on_c, 9, 40, 0
9, 91736, Note_on_c, 9, 35, 60
9, 91736, Note_on_c, 9, 46, 60
9, 91740, Note_on_c, 9, 38, 86
9, 91748, Note_on_c, 9, 38, 0
9, 91752, Note_on_c, 9, 46, 0
9, 91752, Note_on_c, 9, 35, 0
9, 91916, Note_on_c, 9, 39, 75
9, 91973, Note_on_c, 9, 39, 0
9, 91992, Note_on_c, 9, 40, 60
9, 92004, Note_on_c, 9, 40, 0
9, 92013, Note_on_c, 9, 39, 79
9, 92099, Note_on_c, 9, 39, 0
9, 92124, Note_on_c, 9, 38, 67
9, 92124, Note_on_c, 9, 35, 53
9, 92135, Note_on_c, 9, 36, 81
9, 92140, Note_on_c, 9, 35, 0
9, 92140, Note_on_c, 9, 38, 0
9, 92148, Note_on_c, 9, 57, 77
9, 92208, Note_on_c, 9, 57, 0
9, 92271, Note_on_c, 9, 36, 0
9, 92372, Note_on_c, 9, 40, 45
9, 92420, Note_on_c, 9, 40, 0
9, 92508, Note_on_c, 9, 44, 60
9, 92508, Note_on_c, 9, 35, 60
9, 92508, Note_on_c, 9, 38, 67
9, 92524, Note_on_c, 9, 35, 0
9, 92524, Note_on_c, 9, 44, 0
9, 92528, Note_on_c, 9, 38, 0
9, 92764, Note_on_c, 9, 40, 45
9, 92812, Note_on_c, 9, 40, 0
9, 92892, Note_on_c, 9, 38, 67
9, 92892, Note_on_c, 9, 35, 60
9, 92900, Note_on_c, 9, 35, 0
9, 92900, Note_on_c, 9, 38, 0
9, 93140, Note_on_c, 9, 40, 45
9, 93141, Note_on_c, 9, 39, 78
9, 93188, Note_on_c, 9, 40, 0
9, 93212, Note_on_c, 9, 39, 0
9, 93268, Note_on_c, 9, 35, 60
9, 93276, Note_on_c, 9, 44, 60
9, 93276, Note_on_c, 9, 38, 86
9, 93280, Note_on_c, 9, 35, 0
9, 93284, Note_on_c, 9, 38, 0
9, 93284, Note_on_c, 9, 44, 0
9, 93285, Note_on_c, 9, 36, 83
9, 93511, Note_on_c, 9, 36, 0
9, 93524, Note_on_c, 9, 40, 45
9, 93572, Note_on_c, 9, 40, 0
9, 93656, Note_on_c, 9, 35, 60
9, 93656, Note_on_c, 9, 38, 67
9, 93660, Note_on_c, 9, 35, 0
9, 93664, Note_on_c, 9, 38, 0
9, 93908, Note_on_c, 9, 40, 45
9, 93956, Note_on_c, 9, 40, 0
9, 94036, Note_on_c, 9, 35, 60
9, 94040, Note_on_c, 9, 38, 67
9, 94044, Note_on_c, 9, 35, 0
9, 94044, Note_on_c, 9, 44, 60
9, 94048, Note_on_c, 9, 44, 0
9, 94048, Note_on_c, 9, 38, 0
9, 94292, Note_on_c, 9, 40, 45
9, 94340, Note_on_c, 9, 40, 0
9, 94420, Note_on_c, 9, 38, 67
9, 94424, Note_on_c, 9, 38, 0
9, 94424, Note_on_c, 9, 35, 60
9, 94428, Note_on_c, 9, 35, 0
9, 94676, Note_on_c, 9, 40, 60
9, 94692, Note_on_c, 9, 40, 0
9, 94812, Note_on_c, 9, 44, 60
9, 94812, Note_on_c, 9, 38, 86
9, 94812, Note_on_c, 9, 35, 60
9, 94824, Note_on_c, 9, 35, 0
9, 94824, Note_on_c, 9, 38, 0
9, 94824, Note_on_c, 9, 44, 0
9, 95060, Note_on_c, 9, 40, 60
9, 95080, Note_on_c, 9, 40, 0
9, 95188, Note_on_c, 9, 35, 60
9, 95188, Note_on_c, 9, 38, 67
9, 95196, Note_on_c, 9, 38, 0
9, 95200, Note_on_c, 9, 35, 0
9, 95448, Note_on_c, 9, 40, 60
9, 95452, Note_on_c, 9, 40, 0
9, 95572, Note_on_c, 9, 44, 60
9, 95572, Note_on_c, 9, 38, 67
9, 95580, Note_on_c, 9, 35, 60
9, 95584, Note_on_c, 9, 35, 0
9, 95584, Note_on_c, 9, 38, 0
9, 95584, Note_on_c, 9, 44, 0
9, 95828, Note_on_c, 9, 40, 60
9, 95841, Note_on_c, 9, 39, 51
9, 95844, Note_on_c, 9, 40, 0
9, 95905, Note_on_c, 9, 39, 0
9, 95960, Note_on_c, 9, 38, 67
9, 95960, Note_on_c, 9, 35, 60
9, 95968, Note_on_c, 9, 35, 0
9, 95968, Note_on_c, 9, 38, 0
9, 95969, Note_on_c, 9, 39, 46
9, 96153, Note_on_c, 9, 39, 0
9, 96212, Note_on_c, 9, 40, 60
9, 96225, Note_on_c, 9, 39, 47
9, 96228, Note_on_c, 9, 40, 0
9, 96270, Note_on_c, 9, 39, 0
9, 96340, Note_on_c, 9, 35, 60
9, 96344, Note_on_c, 9, 44, 60
9, 96348, Note_on_c, 9, 35, 0
9, 96348, Note_on_c, 9, 38, 86
9, 96352, Note_on_c, 9, 38, 0
9, 96352, Note_on_c, 9, 44, 0
9, 96596, Note_on_c, 9, 40, 60
9, 96616, Note_on_c, 9, 40, 0
9, 96632, Note_on_c, 9, 38, 90
9, 96632, Note_on_c, 9, 38, 90
9, 96676, Note_on_c, 9, 38, 0
9, 96676, Note_on_c, 9, 38, 0
9, 96724, Note_on_c, 9, 38, 90
9, 96728, Note_on_c, 9, 35, 60
9, 96732, Note_on_c, 9, 38, 67
9, 96736, Note_on_c, 9, 35, 0
9, 96736, Note_on_c, 9, 38, 0
9, 96772, Note_on_c, 9, 38, 0
9, 96980, Note_on_c, 9, 40, 60
9, 96996, Note_on_c, 9, 40, 0
9, 97022, Note_on_c, 9, 39, 75
9, 97063, Note_on_c, 9, 39, 0
9, 97108, Note_on_c, 9, 35, 60
9, 97108, Note_on_c, 9, 38, 67
9, 97116, Note_on_c, 9, 44, 60
9, 97120, Note_on_c, 9, 44, 0
9, 97120, Note_on_c, 9, 38, 0
9, 97120, Note_on_c, 9, 35, 0
9, 97124, Note_on_c, 9, 36, 68
9, 97197, Note_on_c, 9, 36, 0
9, 97368, Note_on_c, 9, 40, 60
9, 97384, Note_on_c, 9, 40, 0
9, 97386, Note_on_c, 9, 39, 82
9, 97442, Note_on_c, 9, 39, 0
9, 97492, Note_on_c, 9, 35, 60
9, 97492, Note_on_c, 9, 38, 67
9, 97496, Note_on_c, 9, 38, 0
9, 97500, Note_on_c, 9, 35, 0
9, 97508, Note_on_c, 9, 36, 64
9, 97591, Note_on_c, 9, 36, 0
9, 97748, Note_on_c, 9, 40, 60
9, 97764, Note_on_c, 9, 40, 0
9, 97775, Note_on_c, 9, 39, 85
9, 97831, Note_on_c, 9, 39, 0
9, 97876, Note_on_c, 9, 44, 60
9, 97876, Note_on_c, 9, 35, 60
9, 97884, Note_on_c, 9, 38, 86
9, 97888, Note_on_c, 9, 38, 0
9, 97888, Note_on_c, 9, 35, 0
9, 97888, Note_on_c, 9, 44, 0
9, 97891, Note_on_c, 9, 36, 69
9, 98054, Note_on_c, 9, 36, 0
9, 98132, Note_on_c, 9, 40, 60
9, 98144, Note_on_c, 9, 40, 0
9, 98164, Note_on_c, 9, 39, 86
9, 98215, Note_on_c, 9, 39, 0
9, 98260, Note_on_c, 9, 38, 67
9, 98264, Note_on_c, 9, 35, 60
9, 98268, Note_on_c, 9, 35, 0
9, 98268, Note_on_c, 9, 38, 0
9, 98288, Note_on_c, 9, 36, 59
9, 98358, Note_on_c, 9, 36, 0
9, 98516, Note_on_c, 9, 40, 60
9, 98536, Note_on_c, 9, 40, 0
9, 98644, Note_on_c, 9, 35, 60
9, 98644, Note_on_c, 9, 44, 60
9, 98644, Note_on_c, 9, 38, 67
9, 98656, Note_on_c, 9, 38, 0
9, 98660, Note_on_c, 9, 44, 0
9, 98660, Note_on_c, 9, 35, 0
9, 98904, Note_on_c, 9, 40, 60
9, 98904, Note_on_c, 9, 40, 0
9, 99032, Note_on_c, 9, 38, 67
9, 99032, Note_on_c, 9, 35, 60
9, 99036, Note_on_c, 9, 38, 0
9, 99040, Note_on_c, 9, 35, 0
9, 99288, Note_on_c, 9, 40, 60
9, 99300, Note_on_c, 9, 40, 0
9, 99304, Note_on_c, 9, 39, 39
9, 99332, Note_on_c, 9, 39, 0
9, 99362, Note_on_c, 9, 36, 36
9, 99412, Note_on_c, 9, 44, 60
9, 99416, Note_on_c, 9, 38, 86
9, 99416, Note_on_c, 9, 35, 60
9, 99428, Note_on_c, 9, 35, 0
9, 99432, Note_on_c, 9, 38, 0
9, 99432, Note_on_c, 9, 44, 0
9, 99461, Note_on_c, 9, 36, 0
9, 99668, Note_on_c, 9, 40, 60
9, 99684, Note_on_c, 9, 40, 0
9, 99796, Note_on_c, 9, 38, 67
9, 99800, Note_on_c, 9, 35, 60
9, 99804, Note_on_c, 9, 35, 0
9, 99804, Note_on_c, 9, 38, 0
9, 100052, Note_on_c, 9, 40, 60
9, 100068, Note_on_c, 9, 40, 0
9, 100184, Note_on_c, 9, 38, 67
9, 100184, Note_on_c, 9, 35, 60
9, 100184, Note_on_c, 9, 44, 60
9, 100200, Note_on_c, 9, 44, 0
9, 100200, Note_on_c, 9, 38, 0
9, 100204, Note_on_c, 9, 35, 0
9, 100436, Note_on_c, 9, 40, 60
9, 100456, Note_on_c, 9, 40, 0
9, 100564, Note_on_c, 9, 38, 67
9, 100572, Note_on_c, 9, 35, 60
9, 100576, Note_on_c, 9, 35, 0
9, 100576, Note_on_c, 9, 38, 0
9, 100824, Note_on_c, 9, 40, 60
9, 100838, Note_on_c, 9, 38, 99
9, 100840, Note_on_c, 9, 40, 0
9, 100873, Note_on_c, 9, 38, 0
9, 100943, Note_on_c, 9, 36, 65
9, 100952, Note_on_c, 9, 38, 86
9, 100952, Note_on_c, 9, 35, 60
9, 100952, Note_on_c, 9, 44, 60
9, 100964, Note_on_c, 9, 44, 0
9, 100968, Note_on_c, 9, 35, 0
9, 100968, Note_on_c, 9, 38, 0
9, 100979, Note_on_c, 9, 36, 0
9, 101204, Note_on_c, 9, 40, 60
9, 101220, Note_on_c, 9, 40, 0
9, 101332, Note_on_c, 9, 38, 67
9, 101336, Note_on_c, 9, 35, 60
9, 101344, Note_on_c, 9, 35, 0
9, 101344, Note_on_c, 9, 38, 0
9, 101588, Note_on_c, 9, 40, 60
9, 101604, Note_on_c, 9, 40, 0
9, 101716, Note_on_c, 9, 38, 67
9, 101716, Note_on_c, 9, 44, 60
9, 101728, Note_on_c, 9, 44, 0
9, 101728, Note_on_c, 9, 38, 0
9, 101728, Note_on_c, 9, 35, 60
9, 101728, Note_on_c, 9, 35, 0
9, 101972, Note_on_c, 9, 40, 60
9, 101992, Note_on_c, 9, 40, 0
9, 102002, Note_on_c, 9, 39, 83
9, 102069, Note_on_c, 9, 39, 0
9, 102100, Note_on_c, 9, 35, 60
9, 102104, Note_on_c, 9, 38, 67
9, 102112, Note_on_c, 9, 38, 0
9, 102112, Note_on_c, 9, 35, 0
9, 102144, Note_on_c, 9, 36, 68
9, 102185, Note_on_c, 9, 36, 0
9, 102356, Note_on_c, 9, 40, 60
9, 102376, Note_on_c, 9, 40, 0
9, 102484, Note_on_c, 9, 38, 86
9, 102488, Note_on_c, 9, 35, 60
9, 102492, Note_on_c, 9, 46, 60
9, 102504, Note_on_c, 9, 46, 0
9, 102504, Note_on_c, 9, 35, 0
9, 102504, Note_on_c, 9, 38, 0
9, 102744, Note_on_c, 9, 40, 60
9, 102756, Note_on_c, 9, 40, 0
9, 102872, Note_on_c, 9, 38, 67
9, 102872, Note_on_c, 9, 35, 60
9, 102880, Note_on_c, 9, 35, 0
9, 102880, Note_on_c, 9, 38, 0
9, 103124, Note_on_c, 9, 40, 60
9, 103140, Note_on_c, 9, 40, 0
9, 103252, Note_on_c, 9, 35, 60
9, 103252, Note_on_c, 9, 38, 67
9, 103260, Note_on_c, 9, 44, 60
9, 103264, Note_on_c, 9, 44, 0
9, 103268, Note_on_c, 9, 38, 0
9, 103268, Note_on_c, 9, 35, 0
9, 103508, Note_on_c, 9, 40, 60
9, 103520, Note_on_c, 9, 40, 0
9, 103640, Note_on_c, 9, 35, 60
9, 103640, Note_on_c, 9, 38, 67
9, 103644, Note_on_c, 9, 38, 0
9, 103644, Note_on_c, 9, 35, 0
9, 103892, Note_on_c, 9, 40, 60
9, 103912, Note_on_c, 9, 40, 0
9, 103918, Note_on_c, 9, 39, 77
9, 103983, Note_on_c, 9, 39, 0
9, 104028, Note_on_c, 9, 35, 60
9, 104028, Note_on_c, 9, 44, 60
9, 104028, Note_on_c, 9, 38, 86
9, 104040, Note_on_c, 9, 38, 0
9, 104040, Note_on_c, 9, 44, 0
9, 104040, Note_on_c, 9, 35, 0
9, 104067, Note_on_c, 9, 36, 63
9, 104099, Note_on_c, 9, 36, 0
9, 104276, Note_on_c, 9, 40, 60
9, 104284, Note_on_c, 9, 46, 95
9, 104290, Note_on_c, 9, 39, 88
9, 104296, Note_on_c, 9, 40, 0
9, 104322, Note_on_c, 9, 46, 0
9, 104398, Note_on_c, 9, 39, 0
9, 104412, Note_on_c, 9, 38, 67
9, 104412, Note_on_c, 9, 35, 53
9, 104428, Note_on_c, 9, 35, 0
9, 104428, Note_on_c, 9, 38, 0
9, 104429, Note_on_c, 9, 36, 52
9, 104595, Note_on_c, 9, 36, 0
9, 104660, Note_on_c, 9, 40, 45
9, 104708, Note_on_c, 9, 40, 0
9, 104796, Note_on_c, 9, 44, 60
9, 104796, Note_on_c, 9, 35, 60
9, 104796, Note_on_c, 9, 38, 67
9, 104812, Note_on_c, 9, 38, 0
9, 104812, Note_on_c, 9, 35, 0
9, 104812, Note_on_c, 9, 44, 0
9, 105052, Note_on_c, 9, 40, 45
9, 105056, Note_on_c, 9, 39, 67
9, 105100, Note_on_c, 9, 40, 0
9, 105116, Note_on_c, 9, 39, 0
9, 105180, Note_on_c, 9, 38, 67
9, 105180, Note_on_c, 9, 35, 60
9, 105196, Note_on_c, 9, 35, 0
9, 105196, Note_on_c, 9, 38, 0
9, 105211, Note_on_c, 9, 36, 33
9, 105250, Note_on_c, 9, 36, 0
9, 105428, Note_on_c, 9, 40, 45
9, 105476, Note_on_c, 9, 40, 0
9, 105556, Note_on_c, 9, 35, 60
9, 105564, Note_on_c, 9, 44, 60
9, 105564, Note_on_c, 9, 38, 86
9, 105568, Note_on_c, 9, 35, 0
9, 105572, Note_on_c, 9, 38, 0
9, 105572, Note_on_c, 9, 44, 0
9, 105812, Note_on_c, 9, 40, 45
9, 105860, Note_on_c, 9, 40, 0
9, 105940, Note_on_c, 9, 35, 60
9, 105940, Note_on_c, 9, 38, 67
9, 105948, Note_on_c, 9, 38, 0
9, 105948, Note_on_c, 9, 35, 0
9, 106196, Note_on_c, 9, 40, 45
9, 106244, Note_on_c, 9, 40, 0
9, 106324, Note_on_c, 9, 35, 60
9, 106328, Note_on_c, 9, 35, 0
9, 106328, Note_on_c, 9, 38, 67
9, 106332, Note_on_c, 9, 38, 0
9, 106332, Note_on_c, 9, 44, 60
9, 106332, Note_on_c, 9, 44, 0
9, 106584, Note_on_c, 9, 40, 45
9, 106628, Note_on_c, 9, 40, 0
9, 106708, Note_on_c, 9, 38, 67
9, 106712, Note_on_c, 9, 38, 0
9, 106712, Note_on_c, 9, 35, 60
9, 106716, Note_on_c, 9, 35, 0
9, 106964, Note_on_c, 9, 40, 60
9, 106980, Note_on_c, 9, 40, 0
9, 107092, Note_on_c, 9, 46, 60
9, 107096, Note_on_c, 9, 38, 86
9, 107096, Note_on_c, 9, 35, 60
9, 107108, Note_on_c, 9, 35, 0
9, 107108, Note_on_c, 9, 38, 0
9, 107108, Note_on_c, 9, 46, 0
9, 107352, Note_on_c, 9, 40, 60
9, 107364, Note_on_c, 9, 40, 0
9, 107476, Note_on_c, 9, 35, 60
9, 107480, Note_on_c, 9, 38, 67
9, 107484, Note_on_c, 9, 38, 0
9, 107484, Note_on_c, 9, 35, 0
9, 107732, Note_on_c, 9, 40, 60
9, 107752, Note_on_c, 9, 40, 0
9, 107860, Note_on_c, 9, 44, 60
9, 107864, Note_on_c, 9, 38, 67
9, 107868, Note_on_c, 9, 44, 0
9, 107868, Note_on_c, 9, 35, 60
9, 107868, Note_on_c, 9, 35, 0
9, 107872, Note_on_c, 9, 38, 0
9, 108120, Note_on_c, 9, 40, 60
9, 108132, Note_on_c, 9, 40, 0
9, 108244, Note_on_c, 9, 38, 67
9, 108248, Note_on_c, 9, 35, 60
9, 108256, Note_on_c, 9, 35, 0
9, 108256, Note_on_c, 9, 38, 0
9, 108504, Note_on_c, 9, 40, 60
9, 108516, Note_on_c, 9, 40, 0
9, 108628, Note_on_c, 9, 35, 60
9, 108632, Note_on_c, 9, 44, 60
9, 108636, Note_on_c, 9, 35, 0
9, 108636, Note_on_c, 9, 38, 86
9, 108640, Note_on_c, 9, 38, 0
9, 108640, Note_on_c, 9, 44, 0
9, 108884, Note_on_c, 9, 40, 60
9, 108900, Note_on_c, 9, 40, 0
9, 108920, Note_on_c, 9, 38, 90
9, 108920, Note_on_c, 9, 38, 90
9, 108964, Note_on_c, 9, 38, 0
9, 108964, Note_on_c, 9, 38, 0
9, 109016, Note_on_c, 9, 38, 90
9, 109016, Note_on_c, 9, 35, 60
9, 109020, Note_on_c, 9, 38, 67
9, 109024, Note_on_c, 9, 35, 0
9, 109024, Note_on_c, 9, 38, 0
9, 109060, Note_on_c, 9, 38, 0
9, 109202, Note_on_c, 9, 39, 55
9, 109254, Note_on_c, 9, 39, 0
9, 109268, Note_on_c, 9, 40, 60
9, 109284, Note_on_c, 9, 40, 0
9, 109306, Note_on_c, 9, 39, 67
9, 109334, Note_on_c, 9, 39, 0
9, 109396, Note_on_c, 9, 35, 60
9, 109400, Note_on_c, 9, 38, 67
9, 109404, Note_on_c, 9, 44, 60
9, 109412, Note_on_c, 9, 44, 0
9, 109412, Note_on_c, 9, 38, 0
9, 109412, Note_on_c, 9, 35, 0
9, 109440, Note_on_c, 9, 36, 57
9, 109524, Note_on_c, 9, 36, 0
9, 109652, Note_on_c, 9, 40, 60
9, 109668, Note_on_c, 9, 40, 0
9, 109780, Note_on_c, 9, 35, 60
9, 109784, Note_on_c, 9, 38, 67
9, 109784, Note_on_c, 9, 38, 0
9, 109788, Note_on_c, 9, 39, 40
9, 109792, Note_on_c, 9, 35, 0
9, 109818, Note_on_c, 9, 39, 0
9, 109896, Note_on_c, 9, 39, 51
9, 109955, Note_on_c, 9, 39, 0
9, 110040, Note_on_c, 9, 40, 60
9, 110052, Note_on_c, 9, 40, 0
9, 110056, Note_on_c, 9, 36, 65
9, 110133, Note_on_c, 9, 36, 0
9, 110164, Note_on_c, 9, 44, 60
9, 110168, Note_on_c, 9, 35, 60
9, 110172, Note_on_c, 9, 38, 86
9, 110176, Note_on_c, 9, 38, 0
9, 110176, Note_on_c, 9, 35, 0
9, 110176, Note_on_c, 9, 44, 0
9, 110345, Note_on_c, 9, 39, 67
9, 110397, Note_on_c, 9, 39, 0
9, 110420, Note_on_c, 9, 40, 60
9, 110428, Note_on_c, 9, 40, 0
9, 110445, Note_on_c, 9, 39, 64
9, 110473, Note_on_c, 9, 39, 0
9, 110548, Note_on_c, 9, 38, 67
9, 110552, Note_on_c, 9, 35, 60
9, 110556, Note_on_c, 9, 35, 0
9, 110556, Note_on_c, 9, 38, 0
9, 110557, Note_on_c, 9, 36, 71
9, 110632, Note_on_c, 9, 36, 0
9, 110804, Note_on_c, 9, 40, 60
9, 110820, Note_on_c, 9, 40, 0
9, 110932, Note_on_c, 9, 35, 60
9, 110932, Note_on_c, 9, 44, 60
9, 110936, Note_on_c, 9, 38, 67
9, 110948, Note_on_c, 9, 38, 0
9, 110952, Note_on_c, 9, 35, 0
9, 110956, Note_on_c, 9, 44, 0
9, 111188, Note_on_c, 9, 40, 60
9, 111204, Note_on_c, 9, 40, 0
9, 111206, Note_on_c, 9, 36, 90
9, 111282, Note_on_c, 9, 36, 0
9, 111316, Note_on_c, 9, 38, 67
9, 111316, Note_on_c, 9, 35, 60
9, 111324, Note_on_c, 9, 35, 0
9, 111324, Note_on_c, 9, 38, 0
9, 111572, Note_on_c, 9, 40, 60
9, 111592, Note_on_c, 9, 40, 0
9, 111704, Note_on_c, 9, 44, 60
9, 111704, Note_on_c, 9, 38, 86
9, 111704, Note_on_c, 9, 35, 60
9, 111720, Note_on_c, 9, 35, 0
9, 111720, Note_on_c, 9, 38, 0
9, 111720, Note_on_c, 9, 44, 0
9, 111960, Note_on_c, 9, 40, 60
9, 111972, Note_on_c, 9, 40, 0
9, 112088, Note_on_c, 9, 38, 67
9, 112088, Note_on_c, 9, 35, 60
9, 112092, Note_on_c, 9, 35, 0
9, 112096, Note_on_c, 9, 38, 0
9, 112340, Note_on_c, 9, 40, 60
9, 112352, Note_on_c, 9, 35, 76
9, 112360, Note_on_c, 9, 40, 0
9, 112409, Note_on_c, 9, 35, 0
9, 112468, Note_on_c, 9, 38, 67
9, 112472, Note_on_c, 9, 35, 60
9, 112472, Note_on_c, 9, 44, 60
9, 112488, Note_on_c, 9, 44, 0
9, 112488, Note_on_c, 9, 35, 0
9, 112488, Note_on_c, 9, 38, 0
9, 112724, Note_on_c, 9, 40, 60
9, 112740, Note_on_c, 9, 40, 0
9, 112852, Note_on_c, 9, 38, 67
9, 112856, Note_on_c, 9, 35, 60
9, 112860, Note_on_c, 9, 35, 0
9, 112864, Note_on_c, 9, 38, 0
9, 113108, Note_on_c, 9, 40, 60
9, 113128, Note_on_c, 9, 40, 0
9, 113240, Note_on_c, 9, 38, 86
9, 113244, Note_on_c, 9, 35, 60
9, 113244, Note_on_c, 9, 44, 60
9, 113252, Note_on_c, 9, 44, 0
9, 113252, Note_on_c, 9, 38, 0
9, 113256, Note_on_c, 9, 35, 0
9, 113492, Note_on_c, 9, 40, 60
9, 113512, Note_on_c, 9, 40, 0
9, 113624, Note_on_c, 9, 38, 67
9, 113624, Note_on_c, 9, 35, 60
9, 113632, Note_on_c, 9, 35, 0
9, 113632, Note_on_c, 9, 38, 0
9, 113876, Note_on_c, 9, 40, 60
9, 113896, Note_on_c, 9, 40, 0
9, 114004, Note_on_c, 9, 38, 67
9, 114012, Note_on_c, 9, 44, 60
9, 114012, Note_on_c, 9, 35, 60
9, 114016, Note_on_c, 9, 35, 0
9, 114020, Note_on_c, 9, 44, 0
9, 114020, Note_on_c, 9, 38, 0
9, 114260, Note_on_c, 9, 40, 60
9, 114276, Note_on_c, 9, 40, 0
9, 114292, Note_on_c, 9, 35, 73
9, 114387, Note_on_c, 9, 35, 0
9, 114388, Note_on_c, 9, 35, 60
9, 114388, Note_on_c, 9, 38, 67
9, 114400, Note_on_c, 9, 38, 0
9, 114400, Note_on_c, 9, 35, 0
9, 114446, Note_on_c, 9, 35, 63
9, 114636, Note_on_c, 9, 35, 0
9, 114644, Note_on_c, 9, 40, 60
9, 114660, Note_on_c, 9, 40, 0
9, 114685, Note_on_c, 9, 35, 60
9, 114750, Note_on_c, 9, 35, 0
9, 114772, Note_on_c, 9, 38, 86
9, 114772, Note_on_c, 9, 35, 60
9, 114776, Note_on_c, 9, 44, 60
9, 114780, Note_on_c, 9, 44, 0
9, 114784, Note_on_c, 9, 35, 0
9, 114784, Note_on_c, 9, 38, 0
9, 115028, Note_on_c, 9, 40, 60
9, 115036, Note_on_c, 9, 40, 0
9, 115156, Note_on_c, 9, 38, 67
9, 115160, Note_on_c, 9, 35, 60
9, 115172, Note_on_c, 9, 35, 0
9, 115172, Note_on_c, 9, 38, 0
9, 115416, Note_on_c, 9, 40, 60
9, 115428, Note_on_c, 9, 40, 0
9, 115540, Note_on_c, 9, 35, 60
9, 115544, Note_on_c, 9, 38, 67
9, 115548, Note_on_c, 9, 38, 0
9, 115548, Note_on_c, 9, 44, 60
9, 115548, Note_on_c, 9, 44, 0
9, 115552, Note_on_c, 9, 35, 0
9, 115800, Note_on_c, 9, 40, 60
9, 115812, Note_on_c, 9, 40, 0
9, 115924, Note_on_c, 9, 35, 60
9, 115924, Note_on_c, 9, 38, 67
9, 115928, Note_on_c, 9, 38, 0
9, 115932, Note_on_c, 9, 35, 0
9, 116180, Note_on_c, 9, 40, 60
9, 116184, Note_on_c, 9, 40, 0
9, 116312, Note_on_c, 9, 35, 60
9, 116312, Note_on_c, 9, 46, 60
9, 116312, Note_on_c, 9, 38, 86
9, 116320, Note_on_c, 9, 38, 0
9, 116320, Note_on_c, 9, 46, 0
9, 116320, Note_on_c, 9, 35, 0
9, 116564, Note_on_c, 9, 40, 60
9, 116580, Note_on_c, 9, 40, 0
9, 116592, Note_on_c, 9, 39, 67
9, 116620, Note_on_c, 9, 39, 0
9, 116700, Note_on_c, 9, 38, 67
9, 116700, Note_on_c, 9, 35, 53
9, 116708, Note_on_c, 9, 35, 0
9, 116712, Note_on_c, 9, 38, 0
9, 116722, Note_on_c, 9, 36, 45
9, 116756, Note_on_c, 9, 36, 0
9, 116948, Note_on_c, 9, 40, 45
9, 116996, Note_on_c, 9, 40, 0
9, 117022, Note_on_c, 9, 39, 65
9, 117050, Note_on_c, 9, 39, 0
9, 117084, Note_on_c, 9, 44, 60
9, 117092, Note_on_c, 9, 35, 60
9, 117092, Note_on_c, 9, 38, 67
9, 117100, Note_on_c, 9, 38, 0
9, 117100, Note_on_c, 9, 35, 0
9, 117100, Note_on_c, 9, 44, 0
9, 117145, Note_on_c, 9, 36, 57
9, 117173, Note_on_c, 9, 36, 0
9, 117340, Note_on_c, 9, 40, 45
9, 117388, Note_on_c, 9, 40, 0
9, 117468, Note_on_c, 9, 38, 67
9, 117468, Note_on_c, 9, 35, 60
9, 117484, Note_on_c, 9, 35, 0
9, 117484, Note_on_c, 9, 38, 0
9, 117716, Note_on_c, 9, 40, 45
9, 117764, Note_on_c, 9, 40, 0
9, 117844, Note_on_c, 9, 35, 60
9, 117856, Note_on_c, 9, 35, 0
9, 117856, Note_on_c, 9, 44, 60
9, 117856, Note_on_c, 9, 38, 86
9, 117860, Note_on_c, 9, 38, 0
9, 117860, Note_on_c, 9, 44, 0
9, 118100, Note_on_c, 9, 40, 45
9, 118148, Note_on_c, 9, 40, 0
9, 118232, Note_on_c, 9, 35, 60
9, 118232, Note_on_c, 9, 38, 67
9, 118236, Note_on_c, 9, 35, 0
9, 118240, Note_on_c, 9, 38, 0
9, 118484, Note_on_c, 9, 40, 45
9, 118532, Note_on_c, 9, 40, 0
9, 118616, Note_on_c, 9, 35, 60
9, 118616, Note_on_c, 9, 38, 67
9, 118620, Note_on_c, 9, 35, 0
9, 118620, Note_on_c, 9, 44, 60
9, 118628, Note_on_c, 9, 44, 0
9, 118628, Note_on_c, 9, 38, 0
9, 118868, Note_on_c, 9, 40, 45
9, 118916, Note_on_c, 9, 40, 0
9, 119000, Note_on_c, 9, 38, 67
9, 119000, Note_on_c, 9, 38, 0
9, 119004, Note_on_c, 9, 35, 60
9, 119008, Note_on_c, 9, 35, 0
9, 119256, Note_on_c, 9, 40, 60
9, 119268, Note_on_c, 9, 40, 0
9, 119273, Note_on_c, 9, 39, 60
9, 119335, Note_on_c, 9, 39, 0
9, 119384, Note_on_c, 9, 44, 60
9, 119384, Note_on_c, 9, 38, 86
9, 119384, Note_on_c, 9, 35, 60
9, 119396, Note_on_c, 9, 35, 0
9, 119396, Note_on_c, 9, 38, 0
9, 119396, Note_on_c, 9, 44, 0
9, 119402, Note_on_c, 9, 51, 48
9, 119419, Note_on_c, 9, 36, 44
9, 119500, Note_on_c, 9, 51, 0
9, 119517, Note_on_c, 9, 36, 0
9, 119636, Note_on_c, 9, 40, 60
9, 119642, Note_on_c, 9, 51, 83
9, 119652, Note_on_c, 9, 40, 0
9, 119661, Note_on_c, 9, 36, 80
9, 119712, Note_on_c, 9, 51, 0
9, 119768, Note_on_c, 9, 35, 60
9, 119768, Note_on_c, 9, 38, 67
9, 119772, Note_on_c, 9, 38, 0
9, 119772, Note_on_c, 9, 35, 0
9, 119788, Note_on_c, 9, 36, 0
9, 120020, Note_on_c, 9, 40, 60
9, 120036, Note_on_c, 9, 40, 0
9, 120148, Note_on_c, 9, 44, 60
9, 120152, Note_on_c, 9, 38, 67
9, 120160, Note_on_c, 9, 35, 60
9, 120160, Note_on_c, 9, 35, 0
9, 120164, Note_on_c, 9, 38, 0
9, 120164, Note_on_c, 9, 44, 0
9, 120404, Note_on_c, 9, 40, 60
9, 120420, Note_on_c, 9, 40, 0
9, 120536, Note_on_c, 9, 38, 67
9, 120536, Note_on_c, 9, 35, 60
9, 120540, Note_on_c, 9, 35, 0
9, 120544, Note_on_c, 9, 38, 0
9, 120792, Note_on_c, 9, 40, 60
9, 120808, Note_on_c, 9, 40, 0
9, 120920, Note_on_c, 9, 35, 60
9, 120924, Note_on_c, 9, 35, 0
9, 120924, Note_on_c, 9, 44, 60
9, 120924, Note_on_c, 9, 38, 86
9, 120928, Note_on_c, 9, 38, 0
9, 120928, Note_on_c, 9, 44, 0
9, 121176, Note_on_c, 9, 40, 60
9, 121180, Note_on_c, 9, 40, 0
9, 121204, Note_on_c, 9, 38, 90
9, 121204, Note_on_c, 9, 38, 90
9, 121248, Note_on_c, 9, 38, 0
9, 121248, Note_on_c, 9, 38, 0
9, 121300, Note_on_c, 9, 38, 90
9, 121304, Note_on_c, 9, 35, 60
9, 121304, Note_on_c, 9, 38, 67
9, 121308, Note_on_c, 9, 35, 0
9, 121312, Note_on_c, 9, 38, 0
9, 121348, Note_on_c, 9, 38, 0
9, 121556, Note_on_c, 9, 40, 60
9, 121564, Note_on_c, 9, 40, 0
9, 121684, Note_on_c, 9, 35, 60
9, 121688, Note_on_c, 9, 38, 67
9, 121692, Note_on_c, 9, 44, 60
9, 121692, Note_on_c, 9, 44, 0
9, 121696, Note_on_c, 9, 38, 0
9, 121696, Note_on_c, 9, 35, 0
9, 121944, Note_on_c, 9, 40, 60
9, 121956, Note_on_c, 9, 40, 0
9, 122068, Note_on_c, 9, 35, 60
9, 122072, Note_on_c, 9, 38, 67
9, 122072, Note_on_c, 9, 38, 0
9, 122076, Note_on_c, 9, 35, 0
9, 122324, Note_on_c, 9, 40, 60
9, 122344, Note_on_c, 9, 40, 0
9, 122362, Note_on_c, 9, 39, 55
9, 122392, Note_on_c, 9, 39, 0
9, 122452, Note_on_c, 9, 44, 60
9, 122456, Note_on_c, 9, 35, 60
9, 122460, Note_on_c, 9, 38, 86
9, 122468, Note_on_c, 9, 38, 0
9, 122468, Note_on_c, 9, 35, 0
9, 122468, Note_on_c, 9, 44, 0
9, 122712, Note_on_c, 9, 40, 60
9, 122724, Note_on_c, 9, 40, 0
9, 122840, Note_on_c, 9, 38, 67
9, 122840, Note_on_c, 9, 38, 0
9, 122840, Note_on_c, 9, 35, 60
9, 122844, Note_on_c, 9, 35, 0
9, 122880, Note_on_c, 9, 38, 67
9, 122880, Note_on_c, 9, 35, 53
9, 122888, Note_on_c, 9, 35, 0
9, 122900, Note_on_c, 9, 38, 0
9, 123092, Note_on_c, 9, 40, 45
9, 123140, Note_on_c, 9, 40, 0
9, 123228, Note_on_c, 9, 44, 60
9, 123228, Note_on_c, 9, 35, 60
9, 123228, Note_on_c, 9, 38, 67
9, 123232, Note_on_c, 9, 44, 0
9, 123236, Note_on_c, 9, 35, 0
9, 123240, Note_on_c, 9, 38, 0
9, 123484, Note_on_c, 9, 40, 45
9, 123514, Note_on_c, 9, 36, 50
9, 123532, Note_on_c, 9, 40, 0
9, 123544, Note_on_c, 9, 36, 0
9, 123612, Note_on_c, 9, 38, 67
9, 123612, Note_on_c, 9, 35, 60
9, 123626, Note_on_c, 9, 36, 54
9, 123628, Note_on_c, 9, 35, 0
9, 123628, Note_on_c, 9, 38, 0
9, 123707, Note_on_c, 9, 36, 0
9, 123860, Note_on_c, 9, 40, 45
9, 123884, Note_on_c, 9, 36, 53
9, 123904, Note_on_c, 9, 40, 0
9, 123915, Note_on_c, 9, 36, 0
9, 123992, Note_on_c, 9, 35, 60
9, 123996, Note_on_c, 9, 44, 60
9, 123996, Note_on_c, 9, 38, 86
9, 124000, Note_on_c, 9, 35, 0
9, 124004, Note_on_c, 9, 38, 0
9, 124004, Note_on_c, 9, 44, 0
9, 124244, Note_on_c, 9, 40, 45
9, 124292, Note_on_c, 9, 40, 0
9, 124376, Note_on_c, 9, 35, 60
9, 124376, Note_on_c, 9, 38, 67
9, 124380, Note_on_c, 9, 35, 0
9, 124384, Note_on_c, 9, 38, 0
9, 124628, Note_on_c, 9, 40, 45
9, 124639, Note_on_c, 9, 39, 69
9, 124676, Note_on_c, 9, 40, 0
9, 124694, Note_on_c, 9, 39, 0
9, 124760, Note_on_c, 9, 35, 60
9, 124760, Note_on_c, 9, 35, 0
9, 124760, Note_on_c, 9, 38, 67
9, 124764, Note_on_c, 9, 38, 0
9, 124764, Note_on_c, 9, 44, 60
9, 124764, Note_on_c, 9, 44, 0
9, 124772, Note_on_c, 9, 36, 42
9, 124824, Note_on_c, 9, 36, 0
9, 125012, Note_on_c, 9, 40, 45
9, 125060, Note_on_c, 9, 40, 0
9, 125140, Note_on_c, 9, 38, 67
9, 125144, Note_on_c, 9, 38, 0
9, 125144, Note_on_c, 9, 35, 60
9, 125148, Note_on_c, 9, 35, 0
9, 125396, Note_on_c, 9, 40, 60
9, 125416, Note_on_c, 9, 40, 0
9, 125528, Note_on_c, 9, 44, 60
9, 125528, Note_on_c, 9, 38, 86
9, 125532, Note_on_c, 9, 35, 60
9, 125540, Note_on_c, 9, 35, 0
9, 125544, Note_on_c, 9, 38, 0
9, 125544, Note_on_c, 9, 44, 0
9, 125780, Note_on_c, 9, 40, 60
9, 125788, Note_on_c, 9, 40, 0
9, 125805, Note_on_c, 9, 39, 67
9, 125841, Note_on_c, 9, 39, 0
9, 125908, Note_on_c, 9, 35, 60
9, 125912, Note_on_c, 9, 38, 67
9, 125920, Note_on_c, 9, 38, 0
9, 125920, Note_on_c, 9, 35, 0
9, 126164, Note_on_c, 9, 40, 60
9, 126180, Note_on_c, 9, 40, 0
9, 126292, Note_on_c, 9, 44, 60
9, 126296, Note_on_c, 9, 38, 67
9, 126300, Note_on_c, 9, 35, 60
9, 126304, Note_on_c, 9, 35, 0
9, 126304, Note_on_c, 9, 38, 0
9, 126304, Note_on_c, 9, 44, 0
9, 126548, Note_on_c, 9, 40, 60
9, 126564, Note_on_c, 9, 40, 0
9, 126676, Note_on_c, 9, 38, 67
9, 126680, Note_on_c, 9, 35, 60
9, 126684, Note_on_c, 9, 35, 0
9, 126688, Note_on_c, 9, 38, 0
9, 126932, Note_on_c, 9, 40, 60
9, 126952, Note_on_c, 9, 40, 0
9, 127060, Note_on_c, 9, 35, 60
9, 127064, Note_on_c, 9, 44, 60
9, 127068, Note_on_c, 9, 35, 0
9, 127068, Note_on_c, 9, 38, 86
9, 127072, Note_on_c, 9, 38, 0
9, 127072, Note_on_c, 9, 44, 0
9, 127320, Note_on_c, 9, 40, 60
9, 127328, Note_on_c, 9, 40, 0
9, 127352, Note_on_c, 9, 38, 90
9, 127352, Note_on_c, 9, 38, 90
9, 127396, Note_on_c, 9, 38, 0
9, 127396, Note_on_c, 9, 38, 0
9, 127448, Note_on_c, 9, 38, 90
9, 127448, Note_on_c, 9, 35, 60
9, 127452, Note_on_c, 9, 38, 67
9, 127460, Note_on_c, 9, 35, 0
9, 127460, Note_on_c, 9, 38, 0
9, 127488, Note_on_c, 9, 38, 0
9, 127704, Note_on_c, 9, 40, 60
9, 127716, Note_on_c, 9, 40, 0
9, 127828, Note_on_c, 9, 35, 60
9, 127832, Note_on_c, 9, 38, 67
9, 127832, Note_on_c, 9, 44, 60
9, 127836, Note_on_c, 9, 44, 0
9, 127840, Note_on_c, 9, 38, 0
9, 127840, Note_on_c, 9, 35, 0
9, 128084, Note_on_c, 9, 40, 60
9, 128100, Note_on_c, 9, 40, 0
9, 128212, Note_on_c, 9, 35, 60
9, 128216, Note_on_c, 9, 38, 67
9, 128220, Note_on_c, 9, 38, 0
9, 128220, Note_on_c, 9, 35, 0
9, 128468, Note_on_c, 9, 40, 60
9, 128470, Note_on_c, 9, 39, 59
9, 128472, Note_on_c, 9, 40, 0
9, 128501, Note_on_c, 9, 39, 0
9, 128596, Note_on_c, 9, 46, 60
9, 128600, Note_on_c, 9, 35, 60
9, 128604, Note_on_c, 9, 38, 86
9, 128608, Note_on_c, 9, 38, 0
9, 128608, Note_on_c, 9, 35, 0
9, 128608, Note_on_c, 9, 46, 0
9, 128764, Note_on_c, 9, 39, 81
9, 128822, Note_on_c, 9, 39, 0
9, 128856, Note_on_c, 9, 40, 60
9, 128872, Note_on_c, 9, 40, 0
9, 128874, Note_on_c, 9, 39, 69
9, 128961, Note_on_c, 9, 39, 0
9, 128984, Note_on_c, 9, 38, 67
9, 128984, Note_on_c, 9, 35, 60
9, 128988, Note_on_c, 9, 38, 0
9, 128992, Note_on_c, 9, 35, 0
9, 129007, Note_on_c, 9, 36, 62
9, 129011, Note_on_c, 9, 57, 70
9, 129038, Note_on_c, 9, 57, 0
9, 129095, Note_on_c, 9, 36, 0
9, 129240, Note_on_c, 9, 40, 60
9, 129252, Note_on_c, 9, 40, 0
9, 129368, Note_on_c, 9, 35, 60
9, 129368, Note_on_c, 9, 44, 60
9, 129372, Note_on_c, 9, 38, 67
9, 129380, Note_on_c, 9, 38, 0
9, 129384, Note_on_c, 9, 44, 0
9, 129384, Note_on_c, 9, 35, 0
9, 129620, Note_on_c, 9, 40, 60
9, 129636, Note_on_c, 9, 40, 0
9, 129748, Note_on_c, 9, 38, 67
9, 129752, Note_on_c, 9, 35, 60
9, 129756, Note_on_c, 9, 38, 0
9, 129760, Note_on_c, 9, 35, 0
9, 130001, Note_on_c, 9, 39, 75
9, 130004, Note_on_c, 9, 40, 60
9, 130015, Note_on_c, 9, 57, 74
9, 130020, Note_on_c, 9, 40, 0
9, 130043, Note_on_c, 9, 57, 0
9, 130077, Note_on_c, 9, 39, 0
9, 130136, Note_on_c, 9, 44, 60
9, 130136, Note_on_c, 9, 38, 86
9, 130136, Note_on_c, 9, 35, 60
9, 130148, Note_on_c, 9, 35, 0
9, 130149, Note_on_c, 9, 36, 55
9, 130152, Note_on_c, 9, 44, 0
9, 130156, Note_on_c, 9, 38, 0
9, 130262, Note_on_c, 9, 36, 0
9, 130388, Note_on_c, 9, 40, 60
9, 130404, Note_on_c, 9, 40, 0
9, 130516, Note_on_c, 9, 38, 67
9, 130520, Note_on_c, 9, 35, 60
9, 130528, Note_on_c, 9, 35, 0
9, 130532, Note_on_c, 9, 38, 0
9, 130772, Note_on_c, 9, 40, 60
9, 130788, Note_on_c, 9, 40, 0
9, 130900, Note_on_c, 9, 38, 67
9, 130904, Note_on_c, 9, 35, 60
9, 130904, Note_on_c, 9, 44, 60
9, 130912, Note_on_c, 9, 44, 0
9, 130916, Note_on_c, 9, 35, 0
9, 130916, Note_on_c, 9, 38, 0
9, 131160, Note_on_c, 9, 40, 60
9, 131172, Note_on_c, 9, 40, 0
9, 131288, Note_on_c, 9, 38, 67
9, 131288, Note_on_c, 9, 35, 60
9, 131296, Note_on_c, 9, 35, 0
9, 131296, Note_on_c, 9, 38, 0
9, 131540, Note_on_c, 9, 40, 60
9, 131556, Note_on_c, 9, 40, 0
9, 131668, Note_on_c, 9, 38, 86
9, 131672, Note_on_c, 9, 35, 60
9, 131672, Note_on_c, 9, 44, 60
9, 131684, Note_on_c, 9, 44, 0
9, 131684, Note_on_c, 9, 35, 0
9, 131684, Note_on_c, 9, 38, 0
9, 131924, Note_on_c, 9, 40, 60
9, 131936, Note_on_c, 9, 40, 0
9, 132052, Note_on_c, 9, 38, 67
9, 132056, Note_on_c, 9, 35, 60
9, 132060, Note_on_c, 9, 35, 0
9, 132060, Note_on_c, 9, 38, 0
9, 132308, Note_on_c, 9, 40, 60
9, 132316, Note_on_c, 9, 40, 0
9, 132440, Note_on_c, 9, 38, 67
9, 132440, Note_on_c, 9, 44, 60
9, 132444, Note_on_c, 9, 35, 60
9, 132448, Note_on_c, 9, 35, 0
9, 132448, Note_on_c, 9, 44, 0
9, 132448, Note_on_c, 9, 38, 0
9, 132681, Note_on_c, 9, 39, 60
9, 132692, Note_on_c, 9, 40, 60
9, 132712, Note_on_c, 9, 40, 0
9, 132721, Note_on_c, 9, 39, 0
9, 132820, Note_on_c, 9, 35, 60
9, 132824, Note_on_c, 9, 38, 67
9, 132832, Note_on_c, 9, 38, 0
9, 132832, Note_on_c, 9, 35, 0
9, 133080, Note_on_c, 9, 40, 60
9, 133088, Note_on_c, 9, 40, 0
9, 133094, Note_on_c, 9, 39, 60
9, 133137, Note_on_c, 9, 39, 0
9, 133208, Note_on_c, 9, 38, 86
9, 133208, Note_on_c, 9, 35, 60
9, 133212, Note_on_c, 9, 44, 60
9, 133220, Note_on_c, 9, 44, 0
9, 133224, Note_on_c, 9, 35, 0
9, 133224, Note_on_c, 9, 38, 0
9, 133460, Note_on_c, 9, 40, 60
9, 133476, Note_on_c, 9, 40, 0
9, 133498, Note_on_c, 9, 39, 63
9, 133548, Note_on_c, 9, 39, 0
9, 133588, Note_on_c, 9, 38, 67
9, 133588, Note_on_c, 9, 35, 60
9, 133596, Note_on_c, 9, 35, 0
9, 133596, Note_on_c, 9, 38, 0
9, 133623, Note_on_c, 9, 36, 46
9, 133660, Note_on_c, 9, 36, 0
9, 133844, Note_on_c, 9, 40, 60
9, 133852, Note_on_c, 9, 40, 0
9, 133976, Note_on_c, 9, 35, 60
9, 133976, Note_on_c, 9, 38, 67
9, 133976, Note_on_c, 9, 44, 60
9, 133984, Note_on_c, 9, 44, 0
9, 133984, Note_on_c, 9, 38, 0
9, 133984, Note_on_c, 9, 35, 0
9, 134228, Note_on_c, 9, 40, 60
9, 134248, Note_on_c, 9, 40, 0
9, 134356, Note_on_c, 9, 35, 60
9, 134360, Note_on_c, 9, 38, 67
9, 134364, Note_on_c, 9, 38, 0
9, 134364, Note_on_c, 9, 35, 0
9, 134616, Note_on_c, 9, 40, 60
9, 134628, Note_on_c, 9, 40, 0
9, 134744, Note_on_c, 9, 35, 60
9, 134744, Note_on_c, 9, 46, 60
9, 134748, Note_on_c, 9, 38, 86
9, 134756, Note_on_c, 9, 38, 0
9, 134760, Note_on_c, 9, 46, 0
9, 134760, Note_on_c, 9, 35, 0
9, 134783, Note_on_c, 9, 39, 43
9, 134822, Note_on_c, 9, 39, 0
9, 134889, Note_on_c, 9, 39, 57
9, 134939, Note_on_c, 9, 39, 0
9, 135000, Note_on_c, 9, 40, 60
9, 135012, Note_on_c, 9, 40, 0
9, 135050, Note_on_c, 9, 36, 33
9, 135086, Note_on_c, 9, 36, 0
9, 135132, Note_on_c, 9, 38, 67
9, 135132, Note_on_c, 9, 35, 53
9, 135146, Note_on_c, 9, 39, 49
9, 135148, Note_on_c, 9, 35, 0
9, 135148, Note_on_c, 9, 38, 0
9, 135198, Note_on_c, 9, 39, 0
9, 135263, Note_on_c, 9, 39, 51
9, 135336, Note_on_c, 9, 39, 0
9, 135369, Note_on_c, 9, 39, 53
9, 135380, Note_on_c, 9, 40, 45
9, 135397, Note_on_c, 9, 39, 0
9, 135428, Note_on_c, 9, 40, 0
9, 135516, Note_on_c, 9, 44, 60
9, 135516, Note_on_c, 9, 35, 60
9, 135516, Note_on_c, 9, 38, 67
9, 135532, Note_on_c, 9, 35, 0
9, 135532, Note_on_c, 9, 44, 0
9, 135536, Note_on_c, 9, 38, 0
9, 135772, Note_on_c, 9, 40, 45
9, 135820, Note_on_c, 9, 40, 0
9, 135900, Note_on_c, 9, 38, 67
9, 135900, Note_on_c, 9, 35, 60
9, 135908, Note_on_c, 9, 35, 0
9, 135908, Note_on_c, 9, 38, 0
9, 136148, Note_on_c, 9, 40, 45
9, 136196, Note_on_c, 9, 40, 0
9, 136276, Note_on_c, 9, 35, 60
9, 136284, Note_on_c, 9, 44, 60
9, 136284, Note_on_c, 9, 38, 86
9, 136288, Note_on_c, 9, 35, 0
9, 136292, Note_on_c, 9, 38, 0
9, 136292, Note_on_c, 9, 44, 0
9, 136532, Note_on_c, 9, 40, 45
9, 136580, Note_on_c, 9, 40, 0
9, 136664, Note_on_c, 9, 35, 60
9, 136664, Note_on_c, 9, 38, 67
9, 136668, Note_on_c, 9, 35, 0
9, 136672, Note_on_c, 9, 38, 0
9, 136916, Note_on_c, 9, 40, 45
9, 136964, Note_on_c, 9, 40, 0
9, 137044, Note_on_c, 9, 35, 60
9, 137048, Note_on_c, 9, 38, 67
9, 137052, Note_on_c, 9, 35, 0
9, 137052, Note_on_c, 9, 44, 60
9, 137056, Note_on_c, 9, 44, 0
9, 137056, Note_on_c, 9, 38, 0
9, 137300, Note_on_c, 9, 40, 45
9, 137348, Note_on_c, 9, 40, 0
9, 137428, Note_on_c, 9, 38, 67
9, 137432, Note_on_c, 9, 38, 0
9, 137432, Note_on_c, 9, 35, 60
9, 137436, Note_on_c, 9, 35, 0
9, 137659, Note_on_c, 9, 38, 71
9, 137684, Note_on_c, 9, 40, 60
9, 137695, Note_on_c, 9, 38, 0
9, 137700, Note_on_c, 9, 40, 0
9, 137784, Note_on_c, 9, 36, 40
9, 137820, Note_on_c, 9, 44, 60
9, 137820, Note_on_c, 9, 38, 86
9, 137820, Note_on_c, 9, 35, 60
9, 137823, Note_on_c, 9, 36, 0
9, 137832, Note_on_c, 9, 44, 0
9, 137832, Note_on_c, 9, 38, 0
9, 137832, Note_on_c, 9, 35, 0
9, 138047, Note_on_c, 9, 38, 84
9, 138068, Note_on_c, 9, 40, 60
9, 138088, Note_on_c, 9, 40, 0
9, 138100, Note_on_c, 9, 38, 0
9, 138175, Note_on_c, 9, 36, 46
9, 138196, Note_on_c, 9, 35, 60
9, 138196, Note_on_c, 9, 38, 67
9, 138204, Note_on_c, 9, 38, 0
9, 138208, Note_on_c, 9, 35, 0
9, 138216, Note_on_c, 9, 36, 0
9, 138456, Note_on_c, 9, 40, 60
9, 138460, Note_on_c, 9, 40, 0
9, 138580, Note_on_c, 9, 44, 60
9, 138580, Note_on_c, 9, 38, 67
9, 138588, Note_on_c, 9, 35, 60
9, 138592, Note_on_c, 9, 35, 0
9, 138592, Note_on_c, 9, 38, 0
9, 138592, Note_on_c, 9, 44, 0
9, 138836, Note_on_c, 9, 40, 60
9, 138852, Note_on_c, 9, 40, 0
9, 138968, Note_on_c, 9, 38, 67
9, 138968, Note_on_c, 9, 35, 60
9, 138976, Note_on_c, 9, 35, 0
9, 138976, Note_on_c, 9, 38, 0
9, 139220, Note_on_c, 9, 40, 60
9, 139236, Note_on_c, 9, 40, 0
9, 139348, Note_on_c, 9, 35, 60
9, 139352, Note_on_c, 9, 44, 60
9, 139356, Note_on_c, 9, 35, 0
9, 139356, Note_on_c, 9, 38, 86
9, 139360, Note_on_c, 9, 38, 0
9, 139360, Note_on_c, 9, 44, 0
9, 139604, Note_on_c, 9, 40, 60
9, 139624, Note_on_c, 9, 40, 0
9, 139640, Note_on_c, 9, 38, 90
9, 139640, Note_on_c, 9, 38, 90
9, 139684, Note_on_c, 9, 38, 0
9, 139684, Note_on_c, 9, 38, 0
9, 139732, Note_on_c, 9, 38, 90
9, 139736, Note_on_c, 9, 35, 60
9, 139740, Note_on_c, 9, 38, 67
9, 139744, Note_on_c, 9, 35, 0
9, 139744, Note_on_c, 9, 38, 0
9, 139780, Note_on_c, 9, 38, 0
9, 139988, Note_on_c, 9, 40, 60
9, 140004, Note_on_c, 9, 40, 0
9, 140116, Note_on_c, 9, 35, 60
9, 140116, Note_on_c, 9, 38, 67
9, 140124, Note_on_c, 9, 44, 60
9, 140128, Note_on_c, 9, 44, 0
9, 140128, Note_on_c, 9, 38, 0
9, 140128, Note_on_c, 9, 35, 0
9, 140376, Note_on_c, 9, 40, 60
9, 140392, Note_on_c, 9, 40, 0
9, 140500, Note_on_c, 9, 35, 60
9, 140500, Note_on_c, 9, 38, 67
9, 140504, Note_on_c, 9, 38, 0
9, 140508, Note_on_c, 9, 35, 0
9, 140756, Note_on_c, 9, 40, 60
9, 140772, Note_on_c, 9, 40, 0
9, 140884, Note_on_c, 9, 44, 60
9, 140884, Note_on_c, 9, 35, 60
9, 140892, Note_on_c, 9, 38, 86
9, 140896, Note_on_c, 9, 38, 0
9, 140896, Note_on_c, 9, 35, 0
9, 140896, Note_on_c, 9, 44, 0
9, 141140, Note_on_c, 9, 40, 60
9, 141152, Note_on_c, 9, 40, 0
9, 141182, Note_on_c, 9, 36, 50
9, 141214, Note_on_c, 9, 36, 0
9, 141268, Note_on_c, 9, 38, 67
9, 141272, Note_on_c, 9, 35, 60
9, 141276, Note_on_c, 9, 35, 0
9, 141276, Note_on_c, 9, 38, 0
9, 141294, Note_on_c, 9, 36, 50
9, 141376, Note_on_c, 9, 36, 0
9, 141524, Note_on_c, 9, 40, 60
9, 141544, Note_on_c, 9, 40, 0
9, 141652, Note_on_c, 9, 35, 60
9, 141652, Note_on_c, 9, 44, 60
9, 141652, Note_on_c, 9, 38, 67
9, 141664, Note_on_c, 9, 38, 0
9, 141668, Note_on_c, 9, 44, 0
9, 141668, Note_on_c, 9, 35, 0
9, 141912, Note_on_c, 9, 40, 60
9, 141912, Note_on_c, 9, 40, 0
9, 142040, Note_on_c, 9, 38, 67
9, 142040, Note_on_c, 9, 35, 60
9, 142044, Note_on_c, 9, 38, 0
9, 142048, Note_on_c, 9, 35, 0
9, 142296, Note_on_c, 9, 40, 60
9, 142308, Note_on_c, 9, 40, 0
9, 142319, Note_on_c, 9, 36, 73
9, 142349, Note_on_c, 9, 36, 0
9, 142420, Note_on_c, 9, 44, 60
9, 142424, Note_on_c, 9, 38, 86
9, 142424, Note_on_c, 9, 35, 60
9, 142436, Note_on_c, 9, 35, 0
9, 142440, Note_on_c, 9, 38, 0
9, 142440, Note_on_c, 9, 44, 0
9, 142676, Note_on_c, 9, 40, 60
9, 142692, Note_on_c, 9, 40, 0
9, 142804, Note_on_c, 9, 38, 67
9, 142808, Note_on_c, 9, 35, 60
9, 142812, Note_on_c, 9, 35, 0
9, 142812, Note_on_c, 9, 38, 0
9, 143060, Note_on_c, 9, 40, 60
9, 143076, Note_on_c, 9, 40, 0
9, 143192, Note_on_c, 9, 38, 67
9, 143192, Note_on_c, 9, 35, 60
9, 143192, Note_on_c, 9, 44, 60
9, 143208, Note_on_c, 9, 44, 0
9, 143208, Note_on_c, 9, 38, 0
9, 143212, Note_on_c, 9, 35, 0
9, 143444, Note_on_c, 9, 40, 60
9, 143464, Note_on_c, 9, 40, 0
9, 143572, Note_on_c, 9, 38, 67
9, 143580, Note_on_c, 9, 35, 60
9, 143584, Note_on_c, 9, 35, 0
9, 143584, Note_on_c, 9, 38, 0
9, 143832, Note_on_c, 9, 40, 60
9, 143848, Note_on_c, 9, 40, 0
9, 143870, Note_on_c, 9, 36, 94
9, 143936, Note_on_c, 9, 36, 0
9, 143960, Note_on_c, 9, 38, 86
9, 143960, Note_on_c, 9, 35, 60
9, 143960, Note_on_c, 9, 44, 60
9, 143972, Note_on_c, 9, 44, 0
9, 143976, Note_on_c, 9, 35, 0
9, 143976, Note_on_c, 9, 38, 0
9, 144212, Note_on_c, 9, 40, 60
9, 144228, Note_on_c, 9, 40, 0
9, 144340, Note_on_c, 9, 38, 67
9, 144344, Note_on_c, 9, 35, 60
9, 144352, Note_on_c, 9, 35, 0
9, 144352, Note_on_c, 9, 38, 0
9, 144365, Note_on_c, 9, 36, 91
9, 144535, Note_on_c, 9, 36, 0
9, 144596, Note_on_c, 9, 40, 60
9, 144612, Note_on_c, 9, 40, 0
9, 144724, Note_on_c, 9, 38, 67
9, 144724, Note_on_c, 9, 44, 60
9, 144736, Note_on_c, 9, 44, 0
9, 144736, Note_on_c, 9, 38, 0
9, 144736, Note_on_c, 9, 35, 60
9, 144736, Note_on_c, 9, 35, 0
9, 144980, Note_on_c, 9, 40, 60
9, 145000, Note_on_c, 9, 40, 0
9, 145108, Note_on_c, 9, 35, 60
9, 145112, Note_on_c, 9, 38, 67
9, 145120, Note_on_c, 9, 38, 0
9, 145120, Note_on_c, 9, 35, 0
9, 145364, Note_on_c, 9, 40, 60
9, 145384, Note_on_c, 9, 40, 0
9, 145492, Note_on_c, 9, 38, 86
9, 145496, Note_on_c, 9, 35, 60
9, 145500, Note_on_c, 9, 46, 60
9, 145512, Note_on_c, 9, 46, 0
9, 145512, Note_on_c, 9, 35, 0
9, 145512, Note_on_c, 9, 38, 0
9, 145752, Note_on_c, 9, 40, 60
9, 145764, Note_on_c, 9, 40, 0
9, 145880, Note_on_c, 9, 38, 67
9, 145880, Note_on_c, 9, 35, 60
9, 145888, Note_on_c, 9, 35, 0
9, 145888, Note_on_c, 9, 38, 0
9, 146132, Note_on_c, 9, 40, 60
9, 146148, Note_on_c, 9, 40, 0
9, 146260, Note_on_c, 9, 35, 60
9, 146260, Note_on_c, 9, 38, 67
9, 146268, Note_on_c, 9, 44, 60
9, 146272, Note_on_c, 9, 44, 0
9, 146276, Note_on_c, 9, 38, 0
9, 146276, Note_on_c, 9, 35, 0
9, 146516, Note_on_c, 9, 40, 60
9, 146528, Note_on_c, 9, 40, 0
9, 146648, Note_on_c, 9, 35, 60
9, 146648, Note_on_c, 9, 38, 67
9, 146652, Note_on_c, 9, 38, 0
9, 146652, Note_on_c, 9, 35, 0
9, 146900, Note_on_c, 9, 40, 60
9, 146914, Note_on_c, 9, 39, 78
9, 146920, Note_on_c, 9, 40, 0
9, 146965, Note_on_c, 9, 39, 0
9, 147036, Note_on_c, 9, 35, 60
9, 147036, Note_on_c, 9, 44, 60
9, 147036, Note_on_c, 9, 38, 86
9, 147048, Note_on_c, 9, 38, 0
9, 147048, Note_on_c, 9, 44, 0
9, 147048, Note_on_c, 9, 35, 0
9, 147054, Note_on_c, 9, 36, 62
9, 147087, Note_on_c, 9, 36, 0
9, 147284, Note_on_c, 9, 40, 60
9, 147298, Note_on_c, 9, 39, 83
9, 147304, Note_on_c, 9, 40, 0
9, 147364, Note_on_c, 9, 39, 0
9, 147420, Note_on_c, 9, 38, 67
9, 147420, Note_on_c, 9, 35, 53
9, 147423, Note_on_c, 9, 36, 50
9, 147436, Note_on_c, 9, 35, 0
9, 147436, Note_on_c, 9, 38, 0
9, 147462, Note_on_c, 9, 36, 0
9, 147668, Note_on_c, 9, 40, 45
9, 147716, Note_on_c, 9, 40, 0
9, 147804, Note_on_c, 9, 44, 60
9, 147804, Note_on_c, 9, 35, 60
9, 147804, Note_on_c, 9, 38, 67
9, 147820, Note_on_c, 9, 38, 0
9, 147820, Note_on_c, 9, 35, 0
9, 147820, Note_on_c, 9, 44, 0
9, 148060, Note_on_c, 9, 40, 45
9, 148108, Note_on_c, 9, 40, 0
9, 148188, Note_on_c, 9, 38, 67
9, 148188, Note_on_c, 9, 35, 60
9, 148204, Note_on_c, 9, 35, 0
9, 148204, Note_on_c, 9, 38, 0
9, 148436, Note_on_c, 9, 40, 45
9, 148484, Note_on_c, 9, 40, 0
9, 148564, Note_on_c, 9, 35, 60
9, 148572, Note_on_c, 9, 44, 60
9, 148572, Note_on_c, 9, 38, 86
9, 148576, Note_on_c, 9, 35, 0
9, 148580, Note_on_c, 9, 38, 0
9, 148580, Note_on_c, 9, 44, 0
9, 148820, Note_on_c, 9, 40, 45
9, 148868, Note_on_c, 9, 40, 0
9, 148948, Note_on_c, 9, 35, 60
9, 148948, Note_on_c, 9, 38, 67
9, 148956, Note_on_c, 9, 38, 0
9, 148956, Note_on_c, 9, 35, 0
9, 149204, Note_on_c, 9, 40, 45
9, 149252, Note_on_c, 9, 40, 0
9, 149332, Note_on_c, 9, 35, 60
9, 149336, Note_on_c, 9, 35, 0
9, 149336, Note_on_c, 9, 38, 67
9, 149340, Note_on_c, 9, 38, 0
9, 149340, Note_on_c, 9, 44, 60
9, 149340, Note_on_c, 9, 44, 0
9, 149592, Note_on_c, 9, 40, 45
9, 149636, Note_on_c, 9, 40, 0
9, 149716, Note_on_c, 9, 38, 67
9, 149720, Note_on_c, 9, 38, 0
9, 149720, Note_on_c, 9, 35, 60
9, 149724, Note_on_c, 9, 35, 0
9, 149972, Note_on_c, 9, 40, 60
9, 149988, Note_on_c, 9, 40, 0
9, 150100, Note_on_c, 9, 46, 60
9, 150104, Note_on_c, 9, 38, 86
9, 150104, Note_on_c, 9, 35, 60
9, 150116, Note_on_c, 9, 35, 0
9, 150116, Note_on_c, 9, 38, 0
9, 150116, Note_on_c, 9, 46, 0
9, 150358, Note_on_c, 9, 39, 52
9, 150360, Note_on_c, 9, 40, 60
9, 150372, Note_on_c, 9, 40, 0
9, 150407, Note_on_c, 9, 39, 0
9, 150484, Note_on_c, 9, 35, 60
9, 150488, Note_on_c, 9, 38, 67
9, 150492, Note_on_c, 9, 38, 0
9, 150492, Note_on_c, 9, 35, 0
9, 150740, Note_on_c, 9, 40, 60
9, 150760, Note_on_c, 9, 40, 0
9, 150763, Note_on_c, 9, 39, 42
9, 150802, Note_on_c, 9, 39, 0
9, 150868, Note_on_c, 9, 44, 60
9, 150872, Note_on_c, 9, 38, 67
9, 150876, Note_on_c, 9, 44, 0
9, 150876, Note_on_c, 9, 35, 60
9, 150876, Note_on_c, 9, 35, 0
9, 150880, Note_on_c, 9, 38, 0
9, 151128, Note_on_c, 9, 40, 60
9, 151140, Note_on_c, 9, 40, 0
9, 151252, Note_on_c, 9, 38, 67
9, 151256, Note_on_c, 9, 35, 60
9, 151264, Note_on_c, 9, 35, 0
9, 151264, Note_on_c, 9, 38, 0
9, 151512, Note_on_c, 9, 40, 60
9, 151524, Note_on_c, 9, 40, 0
9, 151636, Note_on_c, 9, 35, 60
9, 151640, Note_on_c, 9, 44, 60
9, 151644, Note_on_c, 9, 35, 0
9, 151644, Note_on_c, 9, 38, 86
9, 151648, Note_on_c, 9, 38, 0
9, 151648, Note_on_c, 9, 44, 0
9, 151892, Note_on_c, 9, 40, 60
9, 151908, Note_on_c, 9, 40, 0
9, 151928, Note_on_c, 9, 38, 90
9, 151928, Note_on_c, 9, 38, 90
9, 151972, Note_on_c, 9, 38, 0
9, 151972, Note_on_c, 9, 38, 0
9, 152024, Note_on_c, 9, 38, 90
9, 152024, Note_on_c, 9, 35, 60
9, 152028, Note_on_c, 9, 38, 67
9, 152032, Note_on_c, 9, 35, 0
9, 152032, Note_on_c, 9, 38, 0
9, 152068, Note_on_c, 9, 38, 0
9, 152276, Note_on_c, 9, 40, 60
9, 152292, Note_on_c, 9, 40, 0
9, 152404, Note_on_c, 9, 35, 60
9, 152408, Note_on_c, 9, 38, 67
9, 152412, Note_on_c, 9, 44, 60
9, 152420, Note_on_c, 9, 44, 0
9, 152420, Note_on_c, 9, 38, 0
9, 152420, Note_on_c, 9, 35, 0
9, 152660, Note_on_c, 9, 40, 60
9, 152676, Note_on_c, 9, 40, 0
9, 152788, Note_on_c, 9, 35, 60
9, 152792, Note_on_c, 9, 38, 67
9, 152792, Note_on_c, 9, 38, 0
9, 152800, Note_on_c, 9, 35, 0
9, 153048, Note_on_c, 9, 40, 60
9, 153060, Note_on_c, 9, 40, 0
9, 153172, Note_on_c, 9, 44, 60
9, 153176, Note_on_c, 9, 35, 60
9, 153180, Note_on_c, 9, 38, 86
9, 153184, Note_on_c, 9, 38, 0
9, 153184, Note_on_c, 9, 35, 0
9, 153184, Note_on_c, 9, 44, 0
9, 153411, Note_on_c, 9, 36, 46
9, 153428, Note_on_c, 9, 40, 60
9, 153436, Note_on_c, 9, 40, 0
9, 153490, Note_on_c, 9, 36, 0
9, 153506, Note_on_c, 9, 39, 69
9, 153523, Note_on_c, 9, 46, 67
9, 153556, Note_on_c, 9, 38, 67
9, 153560, Note_on_c, 9, 35, 60
9, 153564, Note_on_c, 9, 35, 0
9, 153564, Note_on_c, 9, 38, 0
9, 153577, Note_on_c, 9, 39, 0
9, 153584, Note_on_c, 9, 46, 0
9, 153812, Note_on_c, 9, 40, 60
9, 153828, Note_on_c, 9, 40, 0
9, 153940, Note_on_c, 9, 35, 60
9, 153940, Note_on_c, 9, 44, 60
9, 153944, Note_on_c, 9, 38, 67
9, 153956, Note_on_c, 9, 38, 0
9, 153960, Note_on_c, 9, 35, 0
9, 153964, Note_on_c, 9, 44, 0
9, 154196, Note_on_c, 9, 40, 60
9, 154212, Note_on_c, 9, 40, 0
9, 154324, Note_on_c, 9, 38, 67
9, 154324, Note_on_c, 9, 35, 60
9, 154332, Note_on_c, 9, 35, 0
9, 154332, Note_on_c, 9, 38, 0
9, 154580, Note_on_c, 9, 40, 60
9, 154600, Note_on_c, 9, 40, 0
9, 154712, Note_on_c, 9, 44, 60
9, 154712, Note_on_c, 9, 38, 86
9, 154712, Note_on_c, 9, 35, 60
9, 154728, Note_on_c, 9, 35, 0
9, 154728, Note_on_c, 9, 38, 0
9, 154728, Note_on_c, 9, 44, 0
9, 154955, Note_on_c, 9, 36, 60
9, 154968, Note_on_c, 9, 40, 60
9, 154980, Note_on_c, 9, 40, 0
9, 155035, Note_on_c, 9, 36, 0
9, 155089, Note_on_c, 9, 39, 43
9, 155091, Note_on_c, 9, 46, 47
9, 155096, Note_on_c, 9, 38, 67
9, 155096, Note_on_c, 9, 35, 60
9, 155100, Note_on_c, 9, 35, 0
9, 155104, Note_on_c, 9, 38, 0
9, 155127, Note_on_c, 9, 46, 0
9, 155152, Note_on_c, 9, 39, 0
9, 155348, Note_on_c, 9, 40, 60
9, 155368, Note_on_c, 9, 40, 0
9, 155476, Note_on_c, 9, 38, 67
9, 155480, Note_on_c, 9, 35, 60
9, 155480, Note_on_c, 9, 44, 60
9, 155496, Note_on_c, 9, 44, 0
9, 155496, Note_on_c, 9, 35, 0
9, 155496, Note_on_c, 9, 38, 0
9, 155732, Note_on_c, 9, 40, 60
9, 155748, Note_on_c, 9, 40, 0
9, 155860, Note_on_c, 9, 38, 67
9, 155864, Note_on_c, 9, 35, 60
9, 155868, Note_on_c, 9, 35, 0
9, 155872, Note_on_c, 9, 38, 0
9, 156112, Note_on_c, 9, 36, 46
9, 156116, Note_on_c, 9, 40, 60
9, 156136, Note_on_c, 9, 40, 0
9, 156156, Note_on_c, 9, 36, 0
9, 156248, Note_on_c, 9, 38, 86
9, 156252, Note_on_c, 9, 35, 60
9, 156252, Note_on_c, 9, 44, 60
9, 156260, Note_on_c, 9, 44, 0
9, 156260, Note_on_c, 9, 38, 0
9, 156264, Note_on_c, 9, 35, 0
9, 156500, Note_on_c, 9, 40, 60
9, 156520, Note_on_c, 9, 40, 0
9, 156632, Note_on_c, 9, 38, 67
9, 156632, Note_on_c, 9, 35, 60
9, 156640, Note_on_c, 9, 35, 0
9, 156640, Note_on_c, 9, 38, 0
9, 156884, Note_on_c, 9, 40, 60
9, 156904, Note_on_c, 9, 40, 0
9, 157012, Note_on_c, 9, 38, 67
9, 157020, Note_on_c, 9, 44, 60
9, 157020, Note_on_c, 9, 35, 60
9, 157024, Note_on_c, 9, 35, 0
9, 157028, Note_on_c, 9, 44, 0
9, 157028, Note_on_c, 9, 38, 0
9, 157264, Note_on_c, 9, 36, 62
9, 157268, Note_on_c, 9, 40, 60
9, 157284, Note_on_c, 9, 40, 0
9, 157321, Note_on_c, 9, 36, 0
9, 157396, Note_on_c, 9, 35, 60
9, 157396, Note_on_c, 9, 38, 67
9, 157404, Note_on_c, 9, 36, 45
9, 157408, Note_on_c, 9, 38, 0
9, 157408, Note_on_c, 9, 35, 0
9, 157602, Note_on_c, 9, 36, 0
9, 157652, Note_on_c, 9, 40, 60
9, 157668, Note_on_c, 9, 40, 0
9, 157670, Note_on_c, 9, 36, 62
9, 157711, Note_on_c, 9, 36, 0
9, 157780, Note_on_c, 9, 38, 86
9, 157780, Note_on_c, 9, 35, 60
9, 157784, Note_on_c, 9, 44, 60
9, 157788, Note_on_c, 9, 44, 0
9, 157792, Note_on_c, 9, 35, 0
9, 157792, Note_on_c, 9, 38, 0
9, 158036, Note_on_c, 9, 40, 60
9, 158044, Note_on_c, 9, 40, 0
9, 158164, Note_on_c, 9, 38, 67
9, 158168, Note_on_c, 9, 35, 60
9, 158180, Note_on_c, 9, 35, 0
9, 158180, Note_on_c, 9, 38, 0
9, 158424, Note_on_c, 9, 40, 60
9, 158436, Note_on_c, 9, 40, 0
9, 158548, Note_on_c, 9, 35, 60
9, 158552, Note_on_c, 9, 38, 67
9, 158556, Note_on_c, 9, 38, 0
9, 158556, Note_on_c, 9, 44, 60
9, 158556, Note_on_c, 9, 44, 0
9, 158560, Note_on_c, 9, 35, 0
9, 158808, Note_on_c, 9, 40, 60
9, 158820, Note_on_c, 9, 40, 0
9, 158932, Note_on_c, 9, 35, 60
9, 158932, Note_on_c, 9, 38, 67
9, 158936, Note_on_c, 9, 38, 0
9, 158940, Note_on_c, 9, 35, 0
9, 159188, Note_on_c, 9, 40, 60
9, 159192, Note_on_c, 9, 40, 0
9, 159320, Note_on_c, 9, 35, 60
9, 159320, Note_on_c, 9, 46, 60
9, 159320, Note_on_c, 9, 38, 86
9, 159328, Note_on_c, 9, 38, 0
9, 159328, Note_on_c, 9, 46, 0
9, 159328, Note_on_c, 9, 35, 0
9, 159559, Note_on_c, 9, 39, 55
9, 159572, Note_on_c, 9, 40, 60
9, 159588, Note_on_c, 9, 40, 0
9, 159601, Note_on_c, 9, 39, 0
9, 159658, Note_on_c, 9, 39, 67
9, 159708, Note_on_c, 9, 38, 67
9, 159708, Note_on_c, 9, 35, 53
9, 159711, Note_on_c, 9, 39, 0
9, 159716, Note_on_c, 9, 35, 0
9, 159720, Note_on_c, 9, 38, 0
9, 159956, Note_on_c, 9, 40, 45
9, 160004, Note_on_c, 9, 40, 0
9, 160092, Note_on_c, 9, 44, 60
9, 160100, Note_on_c, 9, 35, 60
9, 160100, Note_on_c, 9, 38, 67
9, 160108, Note_on_c, 9, 38, 0
9, 160108, Note_on_c, 9, 35, 0
9, 160108, Note_on_c, 9, 44, 0
9, 160348, Note_on_c, 9, 40, 45
9, 160364, Note_on_c, 9, 39, 67
9, 160391, Note_on_c, 9, 39, 0
9, 160396, Note_on_c, 9, 40, 0
9, 160471, Note_on_c, 9, 36, 57
9, 160476, Note_on_c, 9, 38, 67
9, 160476, Note_on_c, 9, 35, 60
9, 160492, Note_on_c, 9, 35, 0
9, 160492, Note_on_c, 9, 38, 0
9, 160544, Note_on_c, 9, 36, 0
9, 160716, Note_on_c, 9, 39, 70
9, 160724, Note_on_c, 9, 40, 45
9, 160770, Note_on_c, 9, 39, 0
9, 160772, Note_on_c, 9, 40, 0
9, 160835, Note_on_c, 9, 36, 48
9, 160852, Note_on_c, 9, 35, 60
9, 160864, Note_on_c, 9, 35, 0
9, 160864, Note_on_c, 9, 44, 60
9, 160864, Note_on_c, 9, 38, 86
9, 160868, Note_on_c, 9, 38, 0
9, 160868, Note_on_c, 9, 44, 0
9, 160868, Note_on_c, 9, 36, 0
9, 161094, Note_on_c, 9, 39, 71
9, 161108, Note_on_c, 9, 40, 45
9, 161139, Note_on_c, 9, 39, 0
9, 161156, Note_on_c, 9, 40, 0
9, 161223, Note_on_c, 9, 36, 64
9, 161240, Note_on_c, 9, 35, 60
9, 161240, Note_on_c, 9, 38, 67
9, 161244, Note_on_c, 9, 35, 0
9, 161248, Note_on_c, 9, 38, 0
9, 161258, Note_on_c, 9, 36, 0
9, 161492, Note_on_c, 9, 40, 45
9, 161540, Note_on_c, 9, 40, 0
9, 161624, Note_on_c, 9, 35, 60
9, 161624, Note_on_c, 9, 38, 67
9, 161628, Note_on_c, 9, 35, 0
9, 161628, Note_on_c, 9, 44, 60
9, 161636, Note_on_c, 9, 44, 0
9, 161636, Note_on_c, 9, 38, 0
9, 161876, Note_on_c, 9, 40, 45
9, 161924, Note_on_c, 9, 40, 0
9, 162008, Note_on_c, 9, 38, 67
9, 162008, Note_on_c, 9, 38, 0
9, 162012, Note_on_c, 9, 35, 60
9, 162016, Note_on_c, 9, 35, 0
9, 162264, Note_on_c, 9, 40, 60
9, 162276, Note_on_c, 9, 40, 0
9, 162392, Note_on_c, 9, 44, 60
9, 162392, Note_on_c, 9, 38, 86
9, 162392, Note_on_c, 9, 35, 60
9, 162404, Note_on_c, 9, 35, 0
9, 162404, Note_on_c, 9, 38, 0
9, 162404, Note_on_c, 9, 44, 0
9, 162644, Note_on_c, 9, 40, 60
9, 162660, Note_on_c, 9, 40, 0
9, 162667, Note_on_c, 9, 36, 35
9, 162702, Note_on_c, 9, 36, 0
9, 162776, Note_on_c, 9, 35, 60
9, 162776, Note_on_c, 9, 38, 67
9, 162780, Note_on_c, 9, 38, 0
9, 162780, Note_on_c, 9, 35, 0
9, 163028, Note_on_c, 9, 40, 60
9, 163044, Note_on_c, 9, 40, 0
9, 163156, Note_on_c, 9, 44, 60
9, 163160, Note_on_c, 9, 38, 67
9, 163168, Note_on_c, 9, 35, 60
9, 163168, Note_on_c, 9, 35, 0
9, 163172, Note_on_c, 9, 38, 0
9, 163172, Note_on_c, 9, 44, 0
9, 163412, Note_on_c, 9, 40, 60
9, 163428, Note_on_c, 9, 40, 0
9, 163544, Note_on_c, 9, 38, 67
9, 163544, Note_on_c, 9, 35, 60
9, 163548, Note_on_c, 9, 35, 0
9, 163552, Note_on_c, 9, 38, 0
9, 163800, Note_on_c, 9, 40, 60
9, 163816, Note_on_c, 9, 40, 0
9, 163928, Note_on_c, 9, 35, 60
9, 163932, Note_on_c, 9, 35, 0
9, 163932, Note_on_c, 9, 44, 60
9, 163932, Note_on_c, 9, 38, 86
9, 163936, Note_on_c, 9, 38, 0
9, 163936, Note_on_c, 9, 44, 0
9, 164184, Note_on_c, 9, 40, 60
9, 164188, Note_on_c, 9, 40, 0
9, 164212, Note_on_c, 9, 38, 90
9, 164212, Note_on_c, 9, 38, 90
9, 164256, Note_on_c, 9, 38, 0
9, 164256, Note_on_c, 9, 38, 0
9, 164308, Note_on_c, 9, 38, 90
9, 164312, Note_on_c, 9, 35, 60
9, 164312, Note_on_c, 9, 38, 67
9, 164316, Note_on_c, 9, 35, 0
9, 164320, Note_on_c, 9, 38, 0
9, 164356, Note_on_c, 9, 38, 0
9, 164564, Note_on_c, 9, 40, 60
9, 164572, Note_on_c, 9, 40, 0
9, 164692, Note_on_c, 9, 35, 60
9, 164696, Note_on_c, 9, 38, 67
9, 164700, Note_on_c, 9, 44, 60
9, 164700, Note_on_c, 9, 44, 0
9, 164704, Note_on_c, 9, 38, 0
9, 164704, Note_on_c, 9, 35, 0
9, 164952, Note_on_c, 9, 40, 60
9, 164964, Note_on_c, 9, 40, 0
9, 165076, Note_on_c, 9, 35, 60
9, 165080, Note_on_c, 9, 38, 67
9, 165080, Note_on_c, 9, 38, 0
9, 165084, Note_on_c, 9, 35, 0
9, 165332, Note_on_c, 9, 40, 60
9, 165352, Note_on_c, 9, 40, 0
9, 165460, Note_on_c, 9, 44, 60
9, 165464, Note_on_c, 9, 35, 60
9, 165468, Note_on_c, 9, 38, 86
9, 165476, Note_on_c, 9, 38, 0
9, 165476, Note_on_c, 9, 35, 0
9, 165476, Note_on_c, 9, 44, 0
9, 165720, Note_on_c, 9, 40, 60
9, 165732, Note_on_c, 9, 40, 0
9, 165848, Note_on_c, 9, 38, 67
9, 165848, Note_on_c, 9, 38, 0
9, 165848, Note_on_c, 9, 35, 60
9, 165852, Note_on_c, 9, 35, 0
9, 165888, Note_on_c, 9, 38, 67
9, 165888, Note_on_c, 9, 35, 53
9, 165896, Note_on_c, 9, 35, 0
9, 165908, Note_on_c, 9, 38, 0
9, 166100, Note_on_c, 9, 40, 45
9, 166148, Note_on_c, 9, 40, 0
9, 166236, Note_on_c, 9, 44, 60
9, 166236, Note_on_c, 9, 35, 60
9, 166236, Note_on_c, 9, 38, 67
9, 166240, Note_on_c, 9, 44, 0
9, 166244, Note_on_c, 9, 35, 0
9, 166248, Note_on_c, 9, 38, 0
9, 166492, Note_on_c, 9, 40, 45
9, 166540, Note_on_c, 9, 40, 0
9, 166620, Note_on_c, 9, 38, 67
9, 166620, Note_on_c, 9, 35, 60
9, 166636, Note_on_c, 9, 35, 0
9, 166636, Note_on_c, 9, 38, 0
9, 166868, Note_on_c, 9, 40, 45
9, 166912, Note_on_c, 9, 40, 0
9, 167000, Note_on_c, 9, 35, 60
9, 167004, Note_on_c, 9, 44, 60
9, 167004, Note_on_c, 9, 38, 86
9, 167008, Note_on_c, 9, 35, 0
9, 167012, Note_on_c, 9, 38, 0
9, 167012, Note_on_c, 9, 44, 0
9, 167252, Note_on_c, 9, 40, 45
9, 167300, Note_on_c, 9, 40, 0
9, 167384, Note_on_c, 9, 35, 60
9, 167384, Note_on_c, 9, 38, 67
9, 167388, Note_on_c, 9, 35, 0
9, 167392, Note_on_c, 9, 38, 0
9, 167636, Note_on_c, 9, 40, 45
9, 167684, Note_on_c, 9, 40, 0
9, 167768, Note_on_c, 9, 35, 60
9, 167768, Note_on_c, 9, 35, 0
9, 167768, Note_on_c, 9, 38, 67
9, 167772, Note_on_c, 9, 38, 0
9, 167772, Note_on_c, 9, 44, 60
9, 167772, Note_on_c, 9, 44, 0
9, 168020, Note_on_c, 9, 40, 45
9, 168068, Note_on_c, 9, 40, 0
9, 168148, Note_on_c, 9, 38, 67
9, 168152, Note_on_c, 9, 38, 0
9, 168152, Note_on_c, 9, 35, 60
9, 168156, Note_on_c, 9, 35, 0
9, 168404, Note_on_c, 9, 40, 60
9, 168424, Note_on_c, 9, 40, 0
9, 168436, Note_on_c, 9, 36, 66
9, 168464, Note_on_c, 9, 36, 0
9, 168536, Note_on_c, 9, 44, 60
9, 168536, Note_on_c, 9, 38, 86
9, 168540, Note_on_c, 9, 35, 60
9, 168548, Note_on_c, 9, 35, 0
9, 168552, Note_on_c, 9, 38, 0
9, 168552, Note_on_c, 9, 44, 0
9, 168788, Note_on_c, 9, 40, 60
9, 168796, Note_on_c, 9, 40, 0
9, 168916, Note_on_c, 9, 35, 60
9, 168920, Note_on_c, 9, 38, 67
9, 168928, Note_on_c, 9, 38, 0
9, 168928, Note_on_c, 9, 35, 0
9, 169172, Note_on_c, 9, 40, 60
9, 169188, Note_on_c, 9, 40, 0
9, 169300, Note_on_c, 9, 44, 60
9, 169304, Note_on_c, 9, 38, 67
9, 169308, Note_on_c, 9, 35, 60
9, 169312, Note_on_c, 9, 35, 0
9, 169312, Note_on_c, 9, 38, 0
9, 169312, Note_on_c, 9, 44, 0
9, 169556, Note_on_c, 9, 40, 60
9, 169572, Note_on_c, 9, 40, 0
9, 169684, Note_on_c, 9, 38, 67
9, 169688, Note_on_c, 9, 35, 60
9, 169692, Note_on_c, 9, 35, 0
9, 169696, Note_on_c, 9, 38, 0
9, 169940, Note_on_c, 9, 40, 60
9, 169960, Note_on_c, 9, 40, 0
9, 170068, Note_on_c, 9, 35, 60
9, 170072, Note_on_c, 9, 44, 60
9, 170076, Note_on_c, 9, 35, 0
9, 170076, Note_on_c, 9, 38, 86
9, 170080, Note_on_c, 9, 38, 0
9, 170080, Note_on_c, 9, 44, 0
9, 170328, Note_on_c, 9, 40, 60
9, 170336, Note_on_c, 9, 40, 0
9, 170360, Note_on_c, 9, 38, 90
9, 170360, Note_on_c, 9, 38, 90
9, 170404, Note_on_c, 9, 38, 0
9, 170404, Note_on_c, 9, 38, 0
9, 170456, Note_on_c, 9, 38, 90
9, 170456, Note_on_c, 9, 35, 60
9, 170460, Note_on_c, 9, 38, 67
9, 170468, Note_on_c, 9, 35, 0
9, 170468, Note_on_c, 9, 38, 0
9, 170496, Note_on_c, 9, 38, 0
9, 170712, Note_on_c, 9, 40, 60
9, 170724, Note_on_c, 9, 40, 0
9, 170836, Note_on_c, 9, 35, 60
9, 170840, Note_on_c, 9, 38, 67
9, 170840, Note_on_c, 9, 44, 60
9, 170844, Note_on_c, 9, 44, 0
9, 170848, Note_on_c, 9, 38, 0
9, 170848, Note_on_c, 9, 35, 0
9, 171092, Note_on_c, 9, 40, 60
9, 171108, Note_on_c, 9, 40, 0
9, 171220, Note_on_c, 9, 35, 60
9, 171224, Note_on_c, 9, 38, 67
9, 171228, Note_on_c, 9, 38, 0
9, 171228, Note_on_c, 9, 35, 0
9, 171465, Note_on_c, 9, 39, 59
9, 171476, Note_on_c, 9, 40, 60
9, 171480, Note_on_c, 9, 40, 0
9, 171526, Note_on_c, 9, 39, 0
9, 171594, Note_on_c, 9, 46, 57
9, 171604, Note_on_c, 9, 46, 60
9, 171608, Note_on_c, 9, 35, 60
9, 171612, Note_on_c, 9, 38, 86
9, 171616, Note_on_c, 9, 38, 0
9, 171616, Note_on_c, 9, 35, 0
9, 171616, Note_on_c, 9, 46, 0
9, 171618, Note_on_c, 9, 36, 54
9, 171633, Note_on_c, 9, 46, 0
9, 171717, Note_on_c, 9, 36, 0
9, 171864, Note_on_c, 9, 40, 60
9, 171880, Note_on_c, 9, 40, 0
9, 171992, Note_on_c, 9, 38, 67
9, 171992, Note_on_c, 9, 35, 60
9, 171996, Note_on_c, 9, 38, 0
9, 172000, Note_on_c, 9, 35, 0
9, 172248, Note_on_c, 9, 40, 60
9, 172260, Note_on_c, 9, 40, 0
9, 172376, Note_on_c, 9, 35, 60
9, 172376, Note_on_c, 9, 44, 60
9, 172380, Note_on_c, 9, 38, 67
9, 172388, Note_on_c, 9, 38, 0
9, 172392, Note_on_c, 9, 44, 0
9, 172392, Note_on_c, 9, 35, 0
9, 172628, Note_on_c, 9, 40, 60
9, 172644, Note_on_c, 9, 40, 0
9, 172756, Note_on_c, 9, 38, 67
9, 172760, Note_on_c, 9, 35, 60
9, 172764, Note_on_c, 9, 38, 0
9, 172768, Note_on_c, 9, 35, 0
9, 173012, Note_on_c, 9, 40, 60
9, 173028, Note_on_c, 9, 40, 0
9, 173144, Note_on_c, 9, 44, 60
9, 173144, Note_on_c, 9, 38, 86
9, 173144, Note_on_c, 9, 35, 60
9, 173156, Note_on_c, 9, 35, 0
9, 173160, Note_on_c, 9, 44, 0
9, 173164, Note_on_c, 9, 38, 0
9, 173396, Note_on_c, 9, 40, 60
9, 173412, Note_on_c, 9, 40, 0
9, 173524, Note_on_c, 9, 38, 67
9, 173528, Note_on_c, 9, 35, 60
9, 173536, Note_on_c, 9, 35, 0
9, 173540, Note_on_c, 9, 38, 0
9, 173780, Note_on_c, 9, 40, 60
9, 173796, Note_on_c, 9, 40, 0
9, 173908, Note_on_c, 9, 38, 67
9, 173912, Note_on_c, 9, 35, 60
9, 173912, Note_on_c, 9, 44, 60
9, 173920, Note_on_c, 9, 44, 0
9, 173924, Note_on_c, 9, 35, 0
9, 173924, Note_on_c, 9, 38, 0
9, 174168, Note_on_c, 9, 40, 60
9, 174180, Note_on_c, 9, 40, 0
9, 174296, Note_on_c, 9, 38, 67
9, 174296, Note_on_c, 9, 35, 60
9, 174304, Note_on_c, 9, 35, 0
9, 174304, Note_on_c, 9, 38, 0
9, 174548, Note_on_c, 9, 40, 60
9, 174564, Note_on_c, 9, 40, 0
9, 174599, Note_on_c, 9, 39, 62
9, 174664, Note_on_c, 9, 39, 0
9, 174676, Note_on_c, 9, 38, 86
9, 174680, Note_on_c, 9, 35, 60
9, 174680, Note_on_c, 9, 44, 60
9, 174692, Note_on_c, 9, 44, 0
9, 174692, Note_on_c, 9, 35, 0
9, 174692, Note_on_c, 9, 38, 0
9, 174717, Note_on_c, 9, 51, 51
9, 174719, Note_on_c, 9, 46, 55
9, 174738, Note_on_c, 9, 36, 57
9, 174745, Note_on_c, 9, 51, 0
9, 174753, Note_on_c, 9, 46, 0
9, 174817, Note_on_c, 9, 36, 0
9, 174932, Note_on_c, 9, 40, 60
9, 174944, Note_on_c, 9, 40, 0
9, 175060, Note_on_c, 9, 38, 67
9, 175064, Note_on_c, 9, 35, 60
9, 175068, Note_on_c, 9, 35, 0
9, 175068, Note_on_c, 9, 38, 0
9, 175316, Note_on_c, 9, 40, 60
9, 175324, Note_on_c, 9, 40, 0
9, 175448, Note_on_c, 9, 38, 67
9, 175448, Note_on_c, 9, 44, 60
9, 175452, Note_on_c, 9, 35, 60
9, 175456, Note_on_c, 9, 35, 0
9, 175456, Note_on_c, 9, 44, 0
9, 175456, Note_on_c, 9, 38, 0
9, 175700, Note_on_c, 9, 40, 60
9, 175720, Note_on_c, 9, 40, 0
9, 175828, Note_on_c, 9, 35, 60
9, 175832, Note_on_c, 9, 38, 67
9, 175840, Note_on_c, 9, 38, 0
9, 175840, Note_on_c, 9, 35, 0
9, 176088, Note_on_c, 9, 40, 60
9, 176096, Note_on_c, 9, 40, 0
9, 176104, Note_on_c, 9, 39, 62
9, 176158, Note_on_c, 9, 39, 0
9, 176216, Note_on_c, 9, 38, 86
9, 176216, Note_on_c, 9, 35, 60
9, 176220, Note_on_c, 9, 44, 60
9, 176228, Note_on_c, 9, 44, 0
9, 176232, Note_on_c, 9, 35, 0
9, 176232, Note_on_c, 9, 38, 0
9, 176233, Note_on_c, 9, 57, 29
9, 176240, Note_on_c, 9, 36, 47
9, 176263, Note_on_c, 9, 57, 0
9, 176274, Note_on_c, 9, 36, 0
9, 176468, Note_on_c, 9, 40, 60
9, 176484, Note_on_c, 9, 40, 0
9, 176596, Note_on_c, 9, 38, 67
9, 176596, Note_on_c, 9, 35, 60
9, 176604, Note_on_c, 9, 35, 0
9, 176604, Note_on_c, 9, 38, 0
9, 176852, Note_on_c, 9, 40, 60
9, 176860, Note_on_c, 9, 40, 0
9, 176984, Note_on_c, 9, 35, 60
9, 176984, Note_on_c, 9, 38, 67
9, 176984, Note_on_c, 9, 44, 60
9, 176992, Note_on_c, 9, 44, 0
9, 176992, Note_on_c, 9, 38, 0
9, 176992, Note_on_c, 9, 35, 0
9, 177236, Note_on_c, 9, 40, 60
9, 177256, Note_on_c, 9, 40, 0
9, 177364, Note_on_c, 9, 35, 60
9, 177368, Note_on_c, 9, 38, 67
9, 177372, Note_on_c, 9, 38, 0
9, 177372, Note_on_c, 9, 35, 0
9, 177624, Note_on_c, 9, 40, 60
9, 177636, Note_on_c, 9, 40, 0
9, 177752, Note_on_c, 9, 35, 60
9, 177752, Note_on_c, 9, 46, 60
9, 177756, Note_on_c, 9, 38, 86
9, 177764, Note_on_c, 9, 38, 0
9, 177768, Note_on_c, 9, 46, 0
9, 177768, Note_on_c, 9, 35, 0
9, 178008, Note_on_c, 9, 40, 60
9, 178020, Note_on_c, 9, 40, 0
9, 178036, Note_on_c, 9, 39, 80
9, 178110, Note_on_c, 9, 39, 0
9, 178140, Note_on_c, 9, 38, 67
9, 178140, Note_on_c, 9, 35, 53
9, 178147, Note_on_c, 9, 36, 69
9, 178156, Note_on_c, 9, 35, 0
9, 178156, Note_on_c, 9, 38, 0
9, 178203, Note_on_c, 9, 36, 0
9, 178388, Note_on_c, 9, 40, 45
9, 178436, Note_on_c, 9, 40, 0
9, 178524, Note_on_c, 9, 44, 60
9, 178524, Note_on_c, 9, 35, 60
9, 178524, Note_on_c, 9, 38, 67
9, 178540, Note_on_c, 9, 35, 0
9, 178540, Note_on_c, 9, 44, 0
9, 178544, Note_on_c, 9, 38, 0
9, 178780, Note_on_c, 9, 40, 45
9, 178828, Note_on_c, 9, 40, 0
9, 178908, Note_on_c, 9, 38, 67
9, 178908, Note_on_c, 9, 35, 60
9, 178916, Note_on_c, 9, 35, 0
9, 178916, Note_on_c, 9, 38, 0
9, 179156, Note_on_c, 9, 40, 45
9, 179163, Note_on_c, 9, 39, 59
9, 179204, Note_on_c, 9, 40, 0
9, 179220, Note_on_c, 9, 39, 0
9, 179284, Note_on_c, 9, 35, 60
9, 179287, Note_on_c, 9, 57, 47
9, 179289, Note_on_c, 9, 36, 46
9, 179292, Note_on_c, 9, 44, 60
9, 179292, Note_on_c, 9, 38, 86
9, 179296, Note_on_c, 9, 35, 0
9, 179300, Note_on_c, 9, 44, 0
9, 179300, Note_on_c, 9, 38, 0
9, 179319, Note_on_c, 9, 57, 0
9, 179327, Note_on_c, 9, 36, 0
9, 179540, Note_on_c, 9, 40, 45
9, 179588, Note_on_c, 9, 40, 0
9, 179672, Note_on_c, 9, 35, 60
9, 179672, Note_on_c, 9, 38, 67
9, 179676, Note_on_c, 9, 35, 0
9, 179680, Note_on_c, 9, 38, 0
9, 179924, Note_on_c, 9, 40, 45
9, 179972, Note_on_c, 9, 40, 0
9, 180052, Note_on_c, 9, 35, 60
9, 180056, Note_on_c, 9, 38, 67
9, 180060, Note_on_c, 9, 35, 0
9, 180060, Note_on_c, 9, 44, 60
9, 180064, Note_on_c, 9, 44, 0
9, 180064, Note_on_c, 9, 38, 0
9, 180308, Note_on_c, 9, 40, 45
9, 180356, Note_on_c, 9, 40, 0
9, 180436, Note_on_c, 9, 38, 67
9, 180440, Note_on_c, 9, 38, 0
9, 180440, Note_on_c, 9, 35, 60
9, 180444, Note_on_c, 9, 35, 0
9, 180692, Note_on_c, 9, 40, 60
9, 180708, Note_on_c, 9, 40, 0
9, 180828, Note_on_c, 9, 44, 60
9, 180828, Note_on_c, 9, 38, 86
9, 180828, Note_on_c, 9, 35, 60
9, 180840, Note_on_c, 9, 35, 0
9, 180840, Note_on_c, 9, 38, 0
9, 180840, Note_on_c, 9, 44, 0
9, 181076, Note_on_c, 9, 40, 60
9, 181096, Note_on_c, 9, 40, 0
9, 181204, Note_on_c, 9, 35, 60
9, 181204, Note_on_c, 9, 38, 67
9, 181212, Note_on_c, 9, 38, 0
9, 181216, Note_on_c, 9, 35, 0
9, 181464, Note_on_c, 9, 40, 60
9, 181468, Note_on_c, 9, 40, 0
9, 181588, Note_on_c, 9, 44, 60
9, 181588, Note_on_c, 9, 38, 67
9, 181596, Note_on_c, 9, 35, 60
9, 181600, Note_on_c, 9, 35, 0
9, 181600, Note_on_c, 9, 38, 0
9, 181600, Note_on_c, 9, 44, 0
9, 181844, Note_on_c, 9, 40, 60
9, 181860, Note_on_c, 9, 40, 0
9, 181976, Note_on_c, 9, 38, 67
9, 181976, Note_on_c, 9, 35, 60
9, 181984, Note_on_c, 9, 35, 0
9, 181984, Note_on_c, 9, 38, 0
9, 182228, Note_on_c, 9, 40, 60
9, 182244, Note_on_c, 9, 40, 0
9, 182356, Note_on_c, 9, 35, 60
9, 182360, Note_on_c, 9, 44, 60
9, 182364, Note_on_c, 9, 35, 0
9, 182364, Note_on_c, 9, 38, 86
9, 182368, Note_on_c, 9, 38, 0
9, 182368, Note_on_c, 9, 44, 0
9, 182612, Note_on_c, 9, 40, 60
9, 182632, Note_on_c, 9, 40, 0
9, 182636, Note_on_c, 9, 39, 36
9, 182648, Note_on_c, 9, 38, 90
9, 182648, Note_on_c, 9, 38, 90
9, 182665, Note_on_c, 9, 39, 0
9, 182692, Note_on_c, 9, 38, 0
9, 182692, Note_on_c, 9, 38, 0
9, 182740, Note_on_c, 9, 38, 90
9, 182744, Note_on_c, 9, 35, 60
9, 182748, Note_on_c, 9, 38, 67
9, 182752, Note_on_c, 9, 35, 0
9, 182752, Note_on_c, 9, 38, 0
9, 182788, Note_on_c, 9, 38, 0
9, 182866, Note_on_c, 9, 46, 71
9, 182923, Note_on_c, 9, 46, 0
9, 182996, Note_on_c, 9, 40, 60
9, 183012, Note_on_c, 9, 40, 0
9, 183124, Note_on_c, 9, 35, 60
9, 183124, Note_on_c, 9, 38, 67
9, 183132, Note_on_c, 9, 44, 60
9, 183136, Note_on_c, 9, 44, 0
9, 183136, Note_on_c, 9, 38, 0
9, 183136, Note_on_c, 9, 35, 0
9, 183136, Note_on_c, 9, 46, 85
9, 183267, Note_on_c, 9, 46, 0
9, 183384, Note_on_c, 9, 40, 60
9, 183387, Note_on_c, 9, 46, 82
9, 183400, Note_on_c, 9, 40, 0
9, 183494, Note_on_c, 9, 46, 0
9, 183508, Note_on_c, 9, 35, 60
9, 183508, Note_on_c, 9, 38, 67
9, 183512, Note_on_c, 9, 38, 0
9, 183516, Note_on_c, 9, 35, 0
9, 183628, Note_on_c, 9, 46, 80
9, 183743, Note_on_c, 9, 46, 0
9, 183764, Note_on_c, 9, 40, 60
9, 183780, Note_on_c, 9, 40, 0
9, 183884, Note_on_c, 9, 46, 83
9, 183889, Note_on_c, 9, 39, 68
9, 183892, Note_on_c, 9, 44, 60
9, 183892, Note_on_c, 9, 35, 60
9, 183900, Note_on_c, 9, 38, 86
9, 183904, Note_on_c, 9, 38, 0
9, 183904, Note_on_c, 9, 44, 0
9, 183904, Note_on_c, 9, 35, 0
9, 183985, Note_on_c, 9, 46, 0
9, 184066, Note_on_c, 9, 39, 0
9, 184142, Note_on_c, 9, 46, 93
9, 184143, Note_on_c, 9, 39, 74
9, 184148, Note_on_c, 9, 40, 60
9, 184160, Note_on_c, 9, 40, 0
9, 184241, Note_on_c, 9, 46, 0
9, 184273, Note_on_c, 9, 39, 0
9, 184276, Note_on_c, 9, 38, 67
9, 184280, Note_on_c, 9, 35, 60
9, 184284, Note_on_c, 9, 35, 0
9, 184284, Note_on_c, 9, 38, 0
9, 184292, Note_on_c, 9, 46, 62
9, 184294, Note_on_c, 9, 36, 72
9, 184341, Note_on_c, 9, 46, 0
9, 184407, Note_on_c, 9, 36, 0
9, 184532, Note_on_c, 9, 40, 60
9, 184552, Note_on_c, 9, 40, 0
9, 184660, Note_on_c, 9, 35, 60
9, 184660, Note_on_c, 9, 44, 60
9, 184660, Note_on_c, 9, 38, 67
9, 184672, Note_on_c, 9, 38, 0
9, 184676, Note_on_c, 9, 44, 0
9, 184676, Note_on_c, 9, 35, 0
9, 184920, Note_on_c, 9, 40, 60
9, 184920, Note_on_c, 9, 40, 0
9, 185048, Note_on_c, 9, 38, 67
9, 185048, Note_on_c, 9, 35, 60
9, 185052, Note_on_c, 9, 38, 0
9, 185056, Note_on_c, 9, 35, 0
9, 185304, Note_on_c, 9, 40, 60
9, 185316, Note_on_c, 9, 40, 0
9, 185428, Note_on_c, 9, 44, 60
9, 185432, Note_on_c, 9, 38, 86
9, 185432, Note_on_c, 9, 35, 60
9, 185444, Note_on_c, 9, 35, 0
9, 185448, Note_on_c, 9, 38, 0
9, 185448, Note_on_c, 9, 44, 0
9, 185684, Note_on_c, 9, 40, 60
9, 185700, Note_on_c, 9, 40, 0
9, 185812, Note_on_c, 9, 38, 67
9, 185816, Note_on_c, 9, 35, 60
9, 185820, Note_on_c, 9, 35, 0
9, 185820, Note_on_c, 9, 38, 0
9, 186068, Note_on_c, 9, 40, 60
9, 186084, Note_on_c, 9, 40, 0
9, 186200, Note_on_c, 9, 38, 67
9, 186200, Note_on_c, 9, 35, 60
9, 186200, Note_on_c, 9, 44, 60
9, 186216, Note_on_c, 9, 44, 0
9, 186216, Note_on_c, 9, 38, 0
9, 186220, Note_on_c, 9, 35, 0
9, 186452, Note_on_c, 9, 40, 60
9, 186472, Note_on_c, 9, 40, 0
9, 186580, Note_on_c, 9, 38, 67
9, 186588, Note_on_c, 9, 35, 60
9, 186592, Note_on_c, 9, 35, 0
9, 186592, Note_on_c, 9, 38, 0
9, 186840, Note_on_c, 9, 40, 60
9, 186851, Note_on_c, 9, 39, 58
9, 186856, Note_on_c, 9, 40, 0
9, 186913, Note_on_c, 9, 39, 0
9, 186968, Note_on_c, 9, 38, 86
9, 186968, Note_on_c, 9, 35, 60
9, 186968, Note_on_c, 9, 44, 60
9, 186980, Note_on_c, 9, 44, 0
9, 186984, Note_on_c, 9, 35, 0
9, 186984, Note_on_c, 9, 38, 0
9, 186985, Note_on_c, 9, 36, 30
9, 187042, Note_on_c, 9, 36, 0
9, 187220, Note_on_c, 9, 40, 60
9, 187236, Note_on_c, 9, 40, 0
9, 187348, Note_on_c, 9, 38, 67
9, 187352, Note_on_c, 9, 35, 60
9, 187360, Note_on_c, 9, 35, 0
9, 187360, Note_on_c, 9, 38, 0
9, 187604, Note_on_c, 9, 40, 60
9, 187620, Note_on_c, 9, 40, 0
9, 187732, Note_on_c, 9, 38, 67
9, 187732, Note_on_c, 9, 44, 60
9, 187744, Note_on_c, 9, 44, 0
9, 187744, Note_on_c, 9, 38, 0
9, 187744, Note_on_c, 9, 35, 60
9, 187744, Note_on_c, 9, 35, 0
9, 187988, Note_on_c, 9, 40, 60
9, 188008, Note_on_c, 9, 40, 0
9, 188116, Note_on_c, 9, 35, 60
9, 188120, Note_on_c, 9, 38, 67
9, 188128, Note_on_c, 9, 38, 0
9, 188128, Note_on_c, 9, 35, 0
9, 188372, Note_on_c, 9, 40, 60
9, 188392, Note_on_c, 9, 40, 0
9, 188500, Note_on_c, 9, 38, 86
9, 188504, Note_on_c, 9, 35, 60
9, 188508, Note_on_c, 9, 46, 60
9, 188520, Note_on_c, 9, 46, 0
9, 188520, Note_on_c, 9, 35, 0
9, 188520, Note_on_c, 9, 38, 0
9, 188760, Note_on_c, 9, 40, 60
9, 188772, Note_on_c, 9, 40, 0
9, 188888, Note_on_c, 9, 38, 67
9, 188888, Note_on_c, 9, 35, 60
9, 188896, Note_on_c, 9, 35, 0
9, 188896, Note_on_c, 9, 38, 0
9, 189140, Note_on_c, 9, 40, 60
9, 189156, Note_on_c, 9, 40, 0
9, 189268, Note_on_c, 9, 35, 60
9, 189268, Note_on_c, 9, 38, 67
9, 189276, Note_on_c, 9, 44, 60
9, 189280, Note_on_c, 9, 44, 0
9, 189284, Note_on_c, 9, 38, 0
9, 189284, Note_on_c, 9, 35, 0
9, 189524, Note_on_c, 9, 40, 60
9, 189536, Note_on_c, 9, 40, 0
9, 189656, Note_on_c, 9, 35, 60
9, 189656, Note_on_c, 9, 38, 67
9, 189660, Note_on_c, 9, 38, 0
9, 189660, Note_on_c, 9, 35, 0
9, 189908, Note_on_c, 9, 40, 60
9, 189928, Note_on_c, 9, 40, 0
9, 190044, Note_on_c, 9, 35, 60
9, 190044, Note_on_c, 9, 44, 60
9, 190044, Note_on_c, 9, 38, 86
9, 190056, Note_on_c, 9, 38, 0
9, 190056, Note_on_c, 9, 44, 0
9, 190056, Note_on_c, 9, 35, 0
9, 190292, Note_on_c, 9, 40, 60
9, 190312, Note_on_c, 9, 40, 0
9, 190338, Note_on_c, 9, 36, 85
9, 190414, Note_on_c, 9, 36, 0
9, 190428, Note_on_c, 9, 38, 67
9, 190428, Note_on_c, 9, 35, 53
9, 190444, Note_on_c, 9, 35, 0
9, 190444, Note_on_c, 9, 38, 0
9, 190676, Note_on_c, 9, 40, 45
9, 190724, Note_on_c, 9, 40, 0
9, 190812, Note_on_c, 9, 44, 60
9, 190812, Note_on_c, 9, 35, 60
9, 190812, Note_on_c, 9, 38, 67
9, 190828, Note_on_c, 9, 38, 0
9, 190828, Note_on_c, 9, 35, 0
9, 190828, Note_on_c, 9, 44, 0
9, 191068, Note_on_c, 9, 40, 45
9, 191116, Note_on_c, 9, 40, 0
9, 191196, Note_on_c, 9, 38, 67
9, 191196, Note_on_c, 9, 35, 60
9, 191212, Note_on_c, 9, 35, 0
9, 191212, Note_on_c, 9, 38, 0
9, 191442, Note_on_c, 9, 36, 80
9, 191444, Note_on_c, 9, 40, 45
9, 191492, Note_on_c, 9, 40, 0
9, 191572, Note_on_c, 9, 36, 0
9, 191572, Note_on_c, 9, 35, 60
9, 191580, Note_on_c, 9, 44, 60
9, 191580, Note_on_c, 9, 38, 86
9, 191584, Note_on_c, 9, 35, 0
9, 191588, Note_on_c, 9, 38, 0
9, 191588, Note_on_c, 9, 44, 0
9, 191828, Note_on_c, 9, 40, 45
9, 191876, Note_on_c, 9, 40, 0
9, 191956, Note_on_c, 9, 35, 60
9, 191956, Note_on_c, 9, 38, 67
9, 191964, Note_on_c, 9, 38, 0
9, 191964, Note_on_c, 9, 35, 0
9, 192212, Note_on_c, 9, 40, 45
9, 192260, Note_on_c, 9, 40, 0
9, 192340, Note_on_c, 9, 35, 60
9, 192344, Note_on_c, 9, 35, 0
9, 192344, Note_on_c, 9, 38, 67
9, 192348, Note_on_c, 9, 38, 0
9, 192348, Note_on_c, 9, 44, 60
9, 192348, Note_on_c, 9, 44, 0
9, 192600, Note_on_c, 9, 40, 45
9, 192633, Note_on_c, 9, 36, 64
9, 192644, Note_on_c, 9, 40, 0
9, 192708, Note_on_c, 9, 36, 0
9, 192724, Note_on_c, 9, 38, 67
9, 192728, Note_on_c, 9, 38, 0
9, 192728, Note_on_c, 9, 35, 60
9, 192732, Note_on_c, 9, 35, 0
9, 192750, Note_on_c, 9, 36, 39
9, 192941, Note_on_c, 9, 36, 0
9, 192980, Note_on_c, 9, 40, 60
9, 192996, Note_on_c, 9, 40, 0
9, 193005, Note_on_c, 9, 36, 60
9, 193047, Note_on_c, 9, 36, 0
9, 193108, Note_on_c, 9, 46, 60
9, 193112, Note_on_c, 9, 38, 86
9, 193112, Note_on_c, 9, 35, 60
9, 193124, Note_on_c, 9, 35, 0
9, 193124, Note_on_c, 9, 38, 0
9, 193124, Note_on_c, 9, 46, 0
9, 193368, Note_on_c, 9, 40, 60
9, 193380, Note_on_c, 9, 40, 0
9, 193492, Note_on_c, 9, 35, 60
9, 193496, Note_on_c, 9, 38, 67
9, 193500, Note_on_c, 9, 38, 0
9, 193500, Note_on_c, 9, 35, 0
9, 193748, Note_on_c, 9, 40, 60
9, 193768, Note_on_c, 9, 40, 0
9, 193876, Note_on_c, 9, 44, 60
9, 193880, Note_on_c, 9, 38, 67
9, 193884, Note_on_c, 9, 44, 0
9, 193884, Note_on_c, 9, 35, 60
9, 193884, Note_on_c, 9, 35, 0
9, 193888, Note_on_c, 9, 38, 0
9, 194136, Note_on_c, 9, 40, 60
9, 194148, Note_on_c, 9, 40, 0
9, 194260, Note_on_c, 9, 38, 67
9, 194264, Note_on_c, 9, 35, 60
9, 194272, Note_on_c, 9, 35, 0
9, 194272, Note_on_c, 9, 38, 0
9, 194520, Note_on_c, 9, 40, 60
9, 194532, Note_on_c, 9, 40, 0
9, 194644, Note_on_c, 9, 35, 60
9, 194648, Note_on_c, 9, 44, 60
9, 194652, Note_on_c, 9, 35, 0
9, 194652, Note_on_c, 9, 38, 86
9, 194656, Note_on_c, 9, 38, 0
9, 194656, Note_on_c, 9, 44, 0
9, 194900, Note_on_c, 9, 40, 60
9, 194916, Note_on_c, 9, 40, 0
9, 194936, Note_on_c, 9, 38, 90
9, 194936, Note_on_c, 9, 38, 90
9, 194980, Note_on_c, 9, 38, 0
9, 194980, Note_on_c, 9, 38, 0
9, 195032, Note_on_c, 9, 38, 90
9, 195032, Note_on_c, 9, 35, 60
9, 195036, Note_on_c, 9, 38, 67
9, 195040, Note_on_c, 9, 35, 0
9, 195040, Note_on_c, 9, 38, 0
9, 195076, Note_on_c, 9, 38, 0
9, 195284, Note_on_c, 9, 40, 60
9, 195300, Note_on_c, 9, 40, 0
9, 195311, Note_on_c, 9, 39, 54
9, 195340, Note_on_c, 9, 39, 0
9, 195412, Note_on_c, 9, 35, 60
9, 195416, Note_on_c, 9, 38, 67
9, 195420, Note_on_c, 9, 44, 60
9, 195428, Note_on_c, 9, 44, 0
9, 195428, Note_on_c, 9, 38, 0
9, 195428, Note_on_c, 9, 35, 0
9, 195668, Note_on_c, 9, 40, 60
9, 195684, Note_on_c, 9, 40, 0
9, 195697, Note_on_c, 9, 39, 57
9, 195725, Note_on_c, 9, 39, 0
9, 195796, Note_on_c, 9, 35, 60
9, 195800, Note_on_c, 9, 38, 67
9, 195800, Note_on_c, 9, 38, 0
9, 195808, Note_on_c, 9, 35, 0
9, 195819, Note_on_c, 9, 36, 51
9, 195850, Note_on_c, 9, 36, 0
9, 196056, Note_on_c, 9, 40, 60
9, 196068, Note_on_c, 9, 40, 0
9, 196084, Note_on_c, 9, 39, 63
9, 196113, Note_on_c, 9, 39, 0
9, 196180, Note_on_c, 9, 44, 60
9, 196184, Note_on_c, 9, 35, 60
9, 196188, Note_on_c, 9, 38, 86
9, 196192, Note_on_c, 9, 38, 0
9, 196192, Note_on_c, 9, 35, 0
9, 196192, Note_on_c, 9, 44, 0
9, 196436, Note_on_c, 9, 40, 60
9, 196444, Note_on_c, 9, 40, 0
9, 196454, Note_on_c, 9, 39, 70
9, 196492, Note_on_c, 9, 39, 0
9, 196564, Note_on_c, 9, 38, 67
9, 196568, Note_on_c, 9, 35, 60
9, 196572, Note_on_c, 9, 35, 0
9, 196572, Note_on_c, 9, 38, 0
9, 196589, Note_on_c, 9, 36, 27
9, 196626, Note_on_c, 9, 36, 0
9, 196820, Note_on_c, 9, 40, 60
9, 196836, Note_on_c, 9, 40, 0
9, 196948, Note_on_c, 9, 35, 60
9, 196948, Note_on_c, 9, 44, 60
9, 196952, Note_on_c, 9, 38, 67
9, 196964, Note_on_c, 9, 38, 0
9, 196968, Note_on_c, 9, 35, 0
9, 196972, Note_on_c, 9, 44, 0
9, 197204, Note_on_c, 9, 40, 60
9, 197220, Note_on_c, 9, 40, 0
9, 197332, Note_on_c, 9, 38, 67
9, 197332, Note_on_c, 9, 35, 60
9, 197340, Note_on_c, 9, 35, 0
9, 197340, Note_on_c, 9, 38, 0
9, 197588, Note_on_c, 9, 40, 60
9, 197608, Note_on_c, 9, 40, 0
9, 197720, Note_on_c, 9, 44, 60
9, 197720, Note_on_c, 9, 38, 86
9, 197720, Note_on_c, 9, 35, 60
9, 197736, Note_on_c, 9, 35, 0
9, 197736, Note_on_c, 9, 38, 0
9, 197736, Note_on_c, 9, 44, 0
9, 197976, Note_on_c, 9, 40, 60
9, 197988, Note_on_c, 9, 40, 0
9, 198104, Note_on_c, 9, 38, 67
9, 198104, Note_on_c, 9, 35, 60
9, 198108, Note_on_c, 9, 35, 0
9, 198112, Note_on_c, 9, 38, 0
9, 198356, Note_on_c, 9, 40, 60
9, 198376, Note_on_c, 9, 40, 0
9, 198484, Note_on_c, 9, 38, 67
9, 198488, Note_on_c, 9, 35, 60
9, 198488, Note_on_c, 9, 44, 60
9, 198504, Note_on_c, 9, 44, 0
9, 198504, Note_on_c, 9, 35, 0
9, 198504, Note_on_c, 9, 38, 0
9, 198740, Note_on_c, 9, 40, 60
9, 198756, Note_on_c, 9, 40, 0
9, 198756, Note_on_c, 9, 39, 71
9, 198804, Note_on_c, 9, 39, 0
9, 198868, Note_on_c, 9, 38, 67
9, 198872, Note_on_c, 9, 35, 60
9, 198876, Note_on_c, 9, 35, 0
9, 198880, Note_on_c, 9, 38, 0
9, 199124, Note_on_c, 9, 40, 60
9, 199137, Note_on_c, 9, 39, 77
9, 199144, Note_on_c, 9, 40, 0
9, 199181, Note_on_c, 9, 39, 0
9, 199256, Note_on_c, 9, 38, 86
9, 199260, Note_on_c, 9, 35, 60
9, 199260, Note_on_c, 9, 44, 60
9, 199268, Note_on_c, 9, 44, 0
9, 199268, Note_on_c, 9, 38, 0
9, 199272, Note_on_c, 9, 35, 0
9, 199508, Note_on_c, 9, 40, 60
9, 199526, Note_on_c, 9, 39, 70
9, 199528, Note_on_c, 9, 40, 0
9, 199574, Note_on_c, 9, 39, 0
9, 199640, Note_on_c, 9, 38, 67
9, 199640, Note_on_c, 9, 35, 60
9, 199647, Note_on_c, 9, 35, 46
9, 199648, Note_on_c, 9, 35, 0
9, 199648, Note_on_c, 9, 38, 0
9, 199739, Note_on_c, 9, 35, 0
9, 199886, Note_on_c, 9, 39, 74
9, 199892, Note_on_c, 9, 40, 60
9, 199912, Note_on_c, 9, 40, 0
9, 199936, Note_on_c, 9, 39, 0
9, 200017, Note_on_c, 9, 35, 43
9, 200020, Note_on_c, 9, 38, 67
9, 200028, Note_on_c, 9, 44, 60
9, 200028, Note_on_c, 9, 35, 60
9, 200032, Note_on_c, 9, 35, 0
9, 200036, Note_on_c, 9, 38, 0
9, 200036, Note_on_c, 9, 44, 0
9, 200118, Note_on_c, 9, 35, 0
9, 200276, Note_on_c, 9, 40, 60
9, 200292, Note_on_c, 9, 40, 0
9, 200404, Note_on_c, 9, 35, 60
9, 200404, Note_on_c, 9, 38, 67
9, 200416, Note_on_c, 9, 38, 0
9, 200416, Note_on_c, 9, 35, 0
9, 200660, Note_on_c, 9, 40, 60
9, 200676, Note_on_c, 9, 40, 0
9, 200788, Note_on_c, 9, 38, 86
9, 200788, Note_on_c, 9, 35, 60
9, 200792, Note_on_c, 9, 44, 60
9, 200796, Note_on_c, 9, 44, 0
9, 200800, Note_on_c, 9, 35, 0
9, 200800, Note_on_c, 9, 38, 0
9, 201044, Note_on_c, 9, 40, 60
9, 201052, Note_on_c, 9, 40, 0
9, 201172, Note_on_c, 9, 38, 67
9, 201176, Note_on_c, 9, 35, 60
9, 201188, Note_on_c, 9, 35, 0
9, 201188, Note_on_c, 9, 38, 0
9, 201432, Note_on_c, 9, 40, 60
9, 201444, Note_on_c, 9, 40, 0
9, 201556, Note_on_c, 9, 35, 60
9, 201560, Note_on_c, 9, 38, 67
9, 201564, Note_on_c, 9, 38, 0
9, 201564, Note_on_c, 9, 44, 60
9, 201564, Note_on_c, 9, 44, 0
9, 201568, Note_on_c, 9, 35, 0
9, 201816, Note_on_c, 9, 40, 60
9, 201828, Note_on_c, 9, 40, 0
9, 201940, Note_on_c, 9, 35, 60
9, 201940, Note_on_c, 9, 38, 67
9, 201944, Note_on_c, 9, 38, 0
9, 201948, Note_on_c, 9, 35, 0
9, 202196, Note_on_c, 9, 40, 60
9, 202200, Note_on_c, 9, 40, 0
9, 202328, Note_on_c, 9, 35, 60
9, 202328, Note_on_c, 9, 46, 60
9, 202328, Note_on_c, 9, 38, 86
9, 202336, Note_on_c, 9, 38, 0
9, 202336, Note_on_c, 9, 46, 0
9, 202336, Note_on_c, 9, 35, 0
9, 202580, Note_on_c, 9, 40, 60
9, 202593, Note_on_c, 9, 39, 69
9, 202596, Note_on_c, 9, 40, 0
9, 202641, Note_on_c, 9, 39, 0
9, 202716, Note_on_c, 9, 38, 67
9, 202716, Note_on_c, 9, 35, 53
9, 202718, Note_on_c, 9, 35, 27
9, 202724, Note_on_c, 9, 35, 0
9, 202728, Note_on_c, 9, 38, 0
9, 202747, Note_on_c, 9, 35, 0
9, 202964, Note_on_c, 9, 40, 45
9, 203012, Note_on_c, 9, 40, 0
9, 203100, Note_on_c, 9, 44, 60
9, 203108, Note_on_c, 9, 35, 60
9, 203108, Note_on_c, 9, 38, 67
9, 203116, Note_on_c, 9, 38, 0
9, 203116, Note_on_c, 9, 35, 0
9, 203116, Note_on_c, 9, 44, 0
9, 203356, Note_on_c, 9, 40, 45
9, 203362, Note_on_c, 9, 39, 77
9, 203404, Note_on_c, 9, 40, 0
9, 203450, Note_on_c, 9, 39, 0
9, 203484, Note_on_c, 9, 38, 67
9, 203484, Note_on_c, 9, 35, 60
9, 203500, Note_on_c, 9, 35, 0
9, 203500, Note_on_c, 9, 38, 0
9, 203512, Note_on_c, 9, 34, 25
9, 203541, Note_on_c, 9, 34, 0
9, 203732, Note_on_c, 9, 40, 45
9, 203780, Note_on_c, 9, 40, 0
9, 203860, Note_on_c, 9, 35, 60
9, 203872, Note_on_c, 9, 35, 0
9, 203872, Note_on_c, 9, 44, 60
9, 203872, Note_on_c, 9, 38, 86
9, 203876, Note_on_c, 9, 38, 0
9, 203876, Note_on_c, 9, 44, 0
9, 204116, Note_on_c, 9, 40, 45
9, 204164, Note_on_c, 9, 40, 0
9, 204248, Note_on_c, 9, 35, 60
9, 204248, Note_on_c, 9, 38, 67
9, 204252, Note_on_c, 9, 35, 0
9, 204256, Note_on_c, 9, 38, 0
9, 204500, Note_on_c, 9, 40, 45
9, 204548, Note_on_c, 9, 40, 0
9, 204632, Note_on_c, 9, 35, 60
9, 204632, Note_on_c, 9, 38, 67
9, 204636, Note_on_c, 9, 35, 0
9, 204636, Note_on_c, 9, 44, 60
9, 204644, Note_on_c, 9, 44, 0
9, 204644, Note_on_c, 9, 38, 0
9, 204884, Note_on_c, 9, 40, 45
9, 204932, Note_on_c, 9, 40, 0
9, 205016, Note_on_c, 9, 38, 67
9, 205016, Note_on_c, 9, 38, 0
9, 205020, Note_on_c, 9, 35, 60
9, 205024, Note_on_c, 9, 35, 0
9, 205272, Note_on_c, 9, 40, 60
9, 205284, Note_on_c, 9, 40, 0
9, 205400, Note_on_c, 9, 44, 60
9, 205400, Note_on_c, 9, 38, 86
9, 205400, Note_on_c, 9, 35, 60
9, 205412, Note_on_c, 9, 35, 0
9, 205412, Note_on_c, 9, 38, 0
9, 205412, Note_on_c, 9, 44, 0
9, 205652, Note_on_c, 9, 40, 60
9, 205668, Note_on_c, 9, 40, 0
9, 205784, Note_on_c, 9, 35, 60
9, 205784, Note_on_c, 9, 38, 67
9, 205788, Note_on_c, 9, 38, 0
9, 205788, Note_on_c, 9, 35, 0
9, 206036, Note_on_c, 9, 40, 60
9, 206052, Note_on_c, 9, 40, 0
9, 206164, Note_on_c, 9, 44, 60
9, 206168, Note_on_c, 9, 38, 67
9, 206176, Note_on_c, 9, 35, 60
9, 206176, Note_on_c, 9, 35, 0
9, 206180, Note_on_c, 9, 38, 0
9, 206180, Note_on_c, 9, 44, 0
9, 206420, Note_on_c, 9, 40, 60
9, 206436, Note_on_c, 9, 40, 0
9, 206552, Note_on_c, 9, 38, 67
9, 206552, Note_on_c, 9, 35, 60
9, 206556, Note_on_c, 9, 35, 0
9, 206560, Note_on_c, 9, 38, 0
9, 206808, Note_on_c, 9, 40, 60
9, 206824, Note_on_c, 9, 40, 0
9, 206936, Note_on_c, 9, 35, 60
9, 206940, Note_on_c, 9, 35, 0
9, 206940, Note_on_c, 9, 44, 60
9, 206940, Note_on_c, 9, 38, 86
9, 206944, Note_on_c, 9, 38, 0
9, 206944, Note_on_c, 9, 44, 0
9, 207192, Note_on_c, 9, 40, 60
9, 207196, Note_on_c, 9, 40, 0
9, 207220, Note_on_c, 9, 38, 90
9, 207220, Note_on_c, 9, 38, 90
9, 207264, Note_on_c, 9, 38, 0
9, 207264, Note_on_c, 9, 38, 0
9, 207316, Note_on_c, 9, 38, 90
9, 207320, Note_on_c, 9, 35, 60
9, 207320, Note_on_c, 9, 38, 67
9, 207324, Note_on_c, 9, 35, 0
9, 207328, Note_on_c, 9, 38, 0
9, 207364, Note_on_c, 9, 38, 0
9, 207572, Note_on_c, 9, 40, 60
9, 207580, Note_on_c, 9, 40, 0
9, 207700, Note_on_c, 9, 35, 60
9, 207704, Note_on_c, 9, 38, 67
9, 207708, Note_on_c, 9, 44, 60
9, 207708, Note_on_c, 9, 44, 0
9, 207712, Note_on_c, 9, 38, 0
9, 207712, Note_on_c, 9, 35, 0
9, 207960, Note_on_c, 9, 40, 60
9, 207972, Note_on_c, 9, 40, 0
9, 208084, Note_on_c, 9, 35, 60
9, 208088, Note_on_c, 9, 38, 67
9, 208088, Note_on_c, 9, 38, 0
9, 208092, Note_on_c, 9, 35, 0
9, 208340, Note_on_c, 9, 40, 60
9, 208360, Note_on_c, 9, 40, 0
9, 208375, Note_on_c, 9, 39, 28
9, 208414, Note_on_c, 9, 39, 0
9, 208468, Note_on_c, 9, 44, 60
9, 208472, Note_on_c, 9, 35, 60
9, 208476, Note_on_c, 9, 38, 86
9, 208484, Note_on_c, 9, 38, 0
9, 208484, Note_on_c, 9, 35, 0
9, 208484, Note_on_c, 9, 44, 0
9, 208728, Note_on_c, 9, 40, 60
9, 208740, Note_on_c, 9, 40, 0
9, 208856, Note_on_c, 9, 38, 67
9, 208856, Note_on_c, 9, 38, 0
9, 208856, Note_on_c, 9, 35, 60
9, 208860, Note_on_c, 9, 35, 0
9, 208894, Note_on_c, 9, 40, 22
9, 208896, Note_on_c, 9, 38, 67
9, 208896, Note_on_c, 9, 35, 53
9, 208904, Note_on_c, 9, 35, 0
9, 208916, Note_on_c, 9, 38, 0
9, 208938, Note_on_c, 9, 40, 0
9, 209108, Note_on_c, 9, 40, 45
9, 209156, Note_on_c, 9, 40, 0
9, 209244, Note_on_c, 9, 44, 60
9, 209244, Note_on_c, 9, 35, 60
9, 209244, Note_on_c, 9, 38, 67
9, 209248, Note_on_c, 9, 44, 0
9, 209252, Note_on_c, 9, 35, 0
9, 209256, Note_on_c, 9, 38, 0
9, 209500, Note_on_c, 9, 40, 45
9, 209523, Note_on_c, 9, 40, 27
9, 209548, Note_on_c, 9, 40, 0
9, 209553, Note_on_c, 9, 40, 0
9, 209628, Note_on_c, 9, 38, 67
9, 209628, Note_on_c, 9, 35, 60
9, 209644, Note_on_c, 9, 35, 0
9, 209644, Note_on_c, 9, 38, 0
9, 209649, Note_on_c, 9, 40, 27
9, 209694, Note_on_c, 9, 40, 0
9, 209876, Note_on_c, 9, 40, 45
9, 209920, Note_on_c, 9, 40, 0
9, 210008, Note_on_c, 9, 35, 60
9, 210012, Note_on_c, 9, 44, 60
9, 210012, Note_on_c, 9, 38, 86
9, 210016, Note_on_c, 9, 35, 0
9, 210020, Note_on_c, 9, 38, 0
9, 210020, Note_on_c, 9, 44, 0
9, 210021, Note_on_c, 9, 40, 40
9, 210192, Note_on_c, 9, 40, 0
9, 210260, Note_on_c, 9, 40, 45
9, 210308, Note_on_c, 9, 40, 0
9, 210392, Note_on_c, 9, 35, 60
9, 210392, Note_on_c, 9, 38, 67
9, 210396, Note_on_c, 9, 35, 0
9, 210400, Note_on_c, 9, 38, 0
9, 210406, Note_on_c, 9, 40, 33
9, 210510, Note_on_c, 9, 40, 0
9, 210644, Note_on_c, 9, 40, 45
9, 210692, Note_on_c, 9, 40, 0
9, 210758, Note_on_c, 9, 40, 49
9, 210776, Note_on_c, 9, 35, 60
9, 210776, Note_on_c, 9, 35, 0
9, 210776, Note_on_c, 9, 38, 67
9, 210780, Note_on_c, 9, 38, 0
9, 210780, Note_on_c, 9, 44, 60
9, 210780, Note_on_c, 9, 44, 0
9, 210860, Note_on_c, 9, 40, 0
9, 211028, Note_on_c, 9, 40, 45
9, 211076, Note_on_c, 9, 40, 0
9, 211156, Note_on_c, 9, 38, 67
9, 211160, Note_on_c, 9, 38, 0
9, 211160, Note_on_c, 9, 35, 60
9, 211164, Note_on_c, 9, 35, 0
9, 211412, Note_on_c, 9, 40, 60
9, 211432, Note_on_c, 9, 40, 0
9, 211540, Note_on_c, 9, 39, 47
9, 211544, Note_on_c, 9, 44, 60
9, 211544, Note_on_c, 9, 38, 86
9, 211548, Note_on_c, 9, 35, 60
9, 211556, Note_on_c, 9, 35, 0
9, 211560, Note_on_c, 9, 38, 0
9, 211560, Note_on_c, 9, 44, 0
9, 211713, Note_on_c, 9, 39, 0
9, 211796, Note_on_c, 9, 40, 60
9, 211798, Note_on_c, 9, 39, 40
9, 211804, Note_on_c, 9, 40, 0
9, 211847, Note_on_c, 9, 39, 0
9, 211924, Note_on_c, 9, 35, 60
9, 211928, Note_on_c, 9, 38, 67
9, 211936, Note_on_c, 9, 38, 0
9, 211936, Note_on_c, 9, 35, 0
9, 212180, Note_on_c, 9, 40, 60
9, 212196, Note_on_c, 9, 40, 0
9, 212308, Note_on_c, 9, 44, 60
9, 212312, Note_on_c, 9, 38, 67
9, 212316, Note_on_c, 9, 35, 60
9, 212320, Note_on_c, 9, 35, 0
9, 212320, Note_on_c, 9, 38, 0
9, 212320, Note_on_c, 9, 44, 0
9, 212564, Note_on_c, 9, 40, 60
9, 212580, Note_on_c, 9, 40, 0
9, 212692, Note_on_c, 9, 38, 67
9, 212696, Note_on_c, 9, 35, 60
9, 212700, Note_on_c, 9, 35, 0
9, 212704, Note_on_c, 9, 38, 0
9, 212948, Note_on_c, 9, 40, 60
9, 212968, Note_on_c, 9, 40, 0
9, 213076, Note_on_c, 9, 35, 60
9, 213080, Note_on_c, 9, 44, 60
9, 213084, Note_on_c, 9, 35, 0
9, 213084, Note_on_c, 9, 38, 86
9, 213088, Note_on_c, 9, 38, 0
9, 213088, Note_on_c, 9, 44, 0
9, 213336, Note_on_c, 9, 40, 60
9, 213344, Note_on_c, 9, 40, 0
9, 213368, Note_on_c, 9, 38, 90
9, 213368, Note_on_c, 9, 38, 90
9, 213412, Note_on_c, 9, 38, 0
9, 213412, Note_on_c, 9, 38, 0
9, 213464, Note_on_c, 9, 38, 90
9, 213464, Note_on_c, 9, 35, 60
9, 213468, Note_on_c, 9, 38, 67
9, 213476, Note_on_c, 9, 35, 0
9, 213476, Note_on_c, 9, 38, 0
9, 213504, Note_on_c, 9, 38, 0
9, 213720, Note_on_c, 9, 40, 60
9, 213732, Note_on_c, 9, 40, 0
9, 213844, Note_on_c, 9, 35, 60
9, 213848, Note_on_c, 9, 38, 67
9, 213848, Note_on_c, 9, 44, 60
9, 213852, Note_on_c, 9, 44, 0
9, 213856, Note_on_c, 9, 38, 0
9, 213856, Note_on_c, 9, 35, 0
9, 214100, Note_on_c, 9, 40, 60
9, 214114, Note_on_c, 9, 39, 58
9, 214116, Note_on_c, 9, 40, 0
9, 214143, Note_on_c, 9, 39, 0
9, 214228, Note_on_c, 9, 35, 60
9, 214232, Note_on_c, 9, 38, 67
9, 214236, Note_on_c, 9, 38, 0
9, 214236, Note_on_c, 9, 35, 0
9, 214484, Note_on_c, 9, 40, 60
9, 214488, Note_on_c, 9, 40, 0
9, 214612, Note_on_c, 9, 46, 60
9, 214616, Note_on_c, 9, 35, 60
9, 214620, Note_on_c, 9, 38, 86
9, 214624, Note_on_c, 9, 38, 0
9, 214624, Note_on_c, 9, 35, 0
9, 214624, Note_on_c, 9, 46, 0
9, 214668, Note_on_c, 9, 39, 44
9, 214807, Note_on_c, 9, 39, 0
9, 214872, Note_on_c, 9, 40, 60
9, 214888, Note_on_c, 9, 40, 0
9, 214890, Note_on_c, 9, 39, 55
9, 214943, Note_on_c, 9, 39, 0
9, 215000, Note_on_c, 9, 38, 67
9, 215000, Note_on_c, 9, 35, 60
9, 215004, Note_on_c, 9, 38, 0
9, 215008, Note_on_c, 9, 35, 0
9, 215256, Note_on_c, 9, 40, 60
9, 215268, Note_on_c, 9, 40, 0
9, 215384, Note_on_c, 9, 35, 60
9, 215384, Note_on_c, 9, 44, 60
9, 215388, Note_on_c, 9, 38, 67
9, 215396, Note_on_c, 9, 38, 0
9, 215400, Note_on_c, 9, 44, 0
9, 215400, Note_on_c, 9, 35, 0
9, 215636, Note_on_c, 9, 40, 60
9, 215652, Note_on_c, 9, 40, 0
9, 215764, Note_on_c, 9, 38, 67
9, 215768, Note_on_c, 9, 35, 60
9, 215772, Note_on_c, 9, 38, 0
9, 215776, Note_on_c, 9, 35, 0
9, 216020, Note_on_c, 9, 40, 60
9, 216036, Note_on_c, 9, 40, 0
9, 216152, Note_on_c, 9, 44, 60
9, 216152, Note_on_c, 9, 38, 86
9, 216152, Note_on_c, 9, 35, 60
9, 216164, Note_on_c, 9, 35, 0
9, 216168, Note_on_c, 9, 44, 0
9, 216172, Note_on_c, 9, 38, 0
9, 216404, Note_on_c, 9, 40, 60
9, 216420, Note_on_c, 9, 40, 0
9, 216428, Note_on_c, 9, 39, 69
9, 216482, Note_on_c, 9, 39, 0
9, 216532, Note_on_c, 9, 38, 67
9, 216536, Note_on_c, 9, 35, 60
9, 216544, Note_on_c, 9, 35, 0
9, 216548, Note_on_c, 9, 38, 0
9, 216788, Note_on_c, 9, 40, 60
9, 216804, Note_on_c, 9, 40, 0
9, 216810, Note_on_c, 9, 39, 61
9, 216858, Note_on_c, 9, 39, 0
9, 216916, Note_on_c, 9, 38, 67
9, 216920, Note_on_c, 9, 35, 60
9, 216920, Note_on_c, 9, 44, 60
9, 216928, Note_on_c, 9, 44, 0
9, 216932, Note_on_c, 9, 35, 0
9, 216932, Note_on_c, 9, 38, 0
9, 216937, Note_on_c, 9, 35, 38
9, 217070, Note_on_c, 9, 35, 0
9, 217176, Note_on_c, 9, 40, 60
9, 217188, Note_on_c, 9, 40, 0
9, 217304, Note_on_c, 9, 38, 67
9, 217304, Note_on_c, 9, 35, 60
9, 217312, Note_on_c, 9, 35, 0
9, 217312, Note_on_c, 9, 38, 0
9, 217556, Note_on_c, 9, 40, 60
9, 217562, Note_on_c, 9, 39, 59
9, 217572, Note_on_c, 9, 40, 0
9, 217617, Note_on_c, 9, 39, 0
9, 217683, Note_on_c, 9, 35, 37
9, 217684, Note_on_c, 9, 38, 86
9, 217688, Note_on_c, 9, 35, 60
9, 217688, Note_on_c, 9, 44, 60
9, 217700, Note_on_c, 9, 44, 0
9, 217700, Note_on_c, 9, 35, 0
9, 217700, Note_on_c, 9, 38, 0
9, 217732, Note_on_c, 9, 35, 0
9, 217940, Note_on_c, 9, 40, 60
9, 217952, Note_on_c, 9, 40, 0
9, 218068, Note_on_c, 9, 38, 67
9, 218072, Note_on_c, 9, 35, 60
9, 218076, Note_on_c, 9, 35, 0
9, 218076, Note_on_c, 9, 38, 0
9, 218324, Note_on_c, 9, 40, 60
9, 218332, Note_on_c, 9, 40, 0
9, 218456, Note_on_c, 9, 38, 67
9, 218456, Note_on_c, 9, 44, 60
9, 218460, Note_on_c, 9, 35, 60
9, 218464, Note_on_c, 9, 35, 0
9, 218464, Note_on_c, 9, 44, 0
9, 218464, Note_on_c, 9, 38, 0
9, 218708, Note_on_c, 9, 40, 60
9, 218728, Note_on_c, 9, 40, 0
9, 218836, Note_on_c, 9, 35, 60
9, 218840, Note_on_c, 9, 38, 67
9, 218848, Note_on_c, 9, 38, 0
9, 218848, Note_on_c, 9, 35, 0
9, 219096, Note_on_c, 9, 40, 60
9, 219104, Note_on_c, 9, 40, 0
9, 219224, Note_on_c, 9, 38, 86
9, 219224, Note_on_c, 9, 35, 60
9, 219228, Note_on_c, 9, 44, 60
9, 219236, Note_on_c, 9, 44, 0
9, 219240, Note_on_c, 9, 35, 0
9, 219240, Note_on_c, 9, 38, 0
9, 219476, Note_on_c, 9, 40, 60
9, 219492, Note_on_c, 9, 40, 0
9, 219604, Note_on_c, 9, 38, 67
9, 219604, Note_on_c, 9, 35, 60
9, 219612, Note_on_c, 9, 35, 0
9, 219612, Note_on_c, 9, 38, 0
9, 219860, Note_on_c, 9, 40, 60
9, 219868, Note_on_c, 9, 40, 0
9, 219992, Note_on_c, 9, 35, 60
9, 219992, Note_on_c, 9, 38, 67
9, 219992, Note_on_c, 9, 44, 60
9, 220000, Note_on_c, 9, 44, 0
9, 220000, Note_on_c, 9, 38, 0
9, 220000, Note_on_c, 9, 35, 0
9, 220244, Note_on_c, 9, 40, 60
9, 220264, Note_on_c, 9, 40, 0
9, 220372, Note_on_c, 9, 35, 60
9, 220376, Note_on_c, 9, 38, 67
9, 220380, Note_on_c, 9, 38, 0
9, 220380, Note_on_c, 9, 35, 0
9, 220632, Note_on_c, 9, 40, 60
9, 220644, Note_on_c, 9, 40, 0
9, 220760, Note_on_c, 9, 35, 60
9, 220760, Note_on_c, 9, 46, 60
9, 220764, Note_on_c, 9, 38, 86
9, 220772, Note_on_c, 9, 38, 0
9, 220776, Note_on_c, 9, 46, 0
9, 220776, Note_on_c, 9, 35, 0
9, 221016, Note_on_c, 9, 40, 60
9, 221028, Note_on_c, 9, 40, 0
9, 221148, Note_on_c, 9, 38, 67
9, 221148, Note_on_c, 9, 35, 53
9, 221164, Note_on_c, 9, 35, 0
9, 221164, Note_on_c, 9, 38, 0
9, 221396, Note_on_c, 9, 40, 45
9, 221444, Note_on_c, 9, 40, 0
9, 221532, Note_on_c, 9, 44, 60
9, 221532, Note_on_c, 9, 35, 60
9, 221532, Note_on_c, 9, 38, 67
9, 221536, Note_on_c, 9, 51, 87
9, 221548, Note_on_c, 9, 35, 0
9, 221548, Note_on_c, 9, 44, 0
9, 221552, Note_on_c, 9, 38, 0
9, 221722, Note_on_c, 9, 51, 0
9, 221788, Note_on_c, 9, 40, 45
9, 221836, Note_on_c, 9, 40, 0
9, 221916, Note_on_c, 9, 38, 67
9, 221916, Note_on_c, 9, 35, 60
9, 221924, Note_on_c, 9, 35, 0
9, 221924, Note_on_c, 9, 38, 0
9, 222164, Note_on_c, 9, 40, 45
9, 222198, Note_on_c, 9, 39, 59
9, 222212, Note_on_c, 9, 40, 0
9, 222226, Note_on_c, 9, 39, 0
9, 222292, Note_on_c, 9, 35, 60
9, 222300, Note_on_c, 9, 44, 60
9, 222300, Note_on_c, 9, 38, 86
9, 222304, Note_on_c, 9, 35, 0
9, 222304, Note_on_c, 9, 51, 85
9, 222308, Note_on_c, 9, 38, 0
9, 222308, Note_on_c, 9, 44, 0
9, 222544, Note_on_c, 9, 51, 0
9, 222548, Note_on_c, 9, 40, 45
9, 222596, Note_on_c, 9, 40, 0
9, 222680, Note_on_c, 9, 35, 60
9, 222680, Note_on_c, 9, 38, 67
9, 222684, Note_on_c, 9, 35, 0
9, 222688, Note_on_c, 9, 38, 0
9, 222932, Note_on_c, 9, 40, 45
9, 222970, Note_on_c, 9, 39, 82
9, 222980, Note_on_c, 9, 40, 0
9, 223023, Note_on_c, 9, 39, 0
9, 223060, Note_on_c, 9, 35, 60
9, 223064, Note_on_c, 9, 38, 67
9, 223068, Note_on_c, 9, 35, 0
9, 223068, Note_on_c, 9, 44, 60
9, 223072, Note_on_c, 9, 44, 0
9, 223072, Note_on_c, 9, 38, 0
9, 223086, Note_on_c, 9, 51, 57
9, 223316, Note_on_c, 9, 40, 45
9, 223332, Note_on_c, 9, 51, 0
9, 223364, Note_on_c, 9, 40, 0
9, 223444, Note_on_c, 9, 38, 67
9, 223448, Note_on_c, 9, 38, 0
9, 223448, Note_on_c, 9, 35, 60
9, 223452, Note_on_c, 9, 35, 0
9, 223700, Note_on_c, 9, 40, 60
9, 223716, Note_on_c, 9, 40, 0
9, 223735, Note_on_c, 9, 39, 78
9, 223782, Note_on_c, 9, 39, 0
9, 223836, Note_on_c, 9, 44, 60
9, 223836, Note_on_c, 9, 38, 86
9, 223836, Note_on_c, 9, 35, 60
9, 223848, Note_on_c, 9, 35, 0
9, 223848, Note_on_c, 9, 38, 0
9, 223848, Note_on_c, 9, 44, 0
9, 223856, Note_on_c, 9, 51, 37
9, 224032, Note_on_c, 9, 51, 0
9, 224084, Note_on_c, 9, 40, 60
9, 224102, Note_on_c, 9, 51, 52
9, 224104, Note_on_c, 9, 40, 0
9, 224152, Note_on_c, 9, 51, 0
9, 224212, Note_on_c, 9, 35, 60
9, 224212, Note_on_c, 9, 38, 67
9, 224220, Note_on_c, 9, 38, 0
9, 224224, Note_on_c, 9, 35, 0
9, 224472, Note_on_c, 9, 40, 60
9, 224476, Note_on_c, 9, 40, 0
9, 224491, Note_on_c, 9, 39, 70
9, 224569, Note_on_c, 9, 39, 0
9, 224596, Note_on_c, 9, 44, 60
9, 224596, Note_on_c, 9, 38, 67
9, 224596, Note_on_c, 9, 51, 61
9, 224604, Note_on_c, 9, 35, 60
9, 224604, Note_on_c, 9, 35, 68
9, 224608, Note_on_c, 9, 35, 0
9, 224608, Note_on_c, 9, 38, 0
9, 224608, Note_on_c, 9, 44, 0
9, 224659, Note_on_c, 9, 51, 0
9, 224664, Note_on_c, 9, 35, 0
9, 224852, Note_on_c, 9, 40, 60
9, 224868, Note_on_c, 9, 40, 0
9, 224984, Note_on_c, 9, 38, 67
9, 224984, Note_on_c, 9, 35, 60
9, 224992, Note_on_c, 9, 35, 0
9, 224992, Note_on_c, 9, 38, 0
9, 225236, Note_on_c, 9, 40, 60
9, 225252, Note_on_c, 9, 40, 0
9, 225364, Note_on_c, 9, 35, 60
9, 225368, Note_on_c, 9, 44, 60
9, 225372, Note_on_c, 9, 35, 0
9, 225372, Note_on_c, 9, 38, 86
9, 225376, Note_on_c, 9, 38, 0
9, 225376, Note_on_c, 9, 44, 0
9, 225391, Note_on_c, 9, 51, 79
9, 225395, Note_on_c, 9, 35, 66
9, 225400, Note_on_c, 9, 39, 74
9, 225527, Note_on_c, 9, 51, 0
9, 225551, Note_on_c, 9, 39, 0
9, 225553, Note_on_c, 9, 35, 0
9, 225620, Note_on_c, 9, 40, 60
9, 225640, Note_on_c, 9, 40, 0
9, 225656, Note_on_c, 9, 38, 90
9, 225656, Note_on_c, 9, 38, 90
9, 225700, Note_on_c, 9, 38, 0
9, 225700, Note_on_c, 9, 38, 0
9, 225748, Note_on_c, 9, 38, 90
9, 225752, Note_on_c, 9, 35, 60
9, 225756, Note_on_c, 9, 38, 67
9, 225760, Note_on_c, 9, 35, 0
9, 225760, Note_on_c, 9, 38, 0
9, 225796, Note_on_c, 9, 38, 0
9, 226004, Note_on_c, 9, 40, 60
9, 226020, Note_on_c, 9, 40, 0
9, 226128, Note_on_c, 9, 51, 74
9, 226132, Note_on_c, 9, 35, 60
9, 226132, Note_on_c, 9, 38, 67
9, 226140, Note_on_c, 9, 44, 60
9, 226142, Note_on_c, 9, 39, 73
9, 226144, Note_on_c, 9, 44, 0
9, 226144, Note_on_c, 9, 38, 0
9, 226144, Note_on_c, 9, 35, 0
9, 226297, Note_on_c, 9, 51, 0
9, 226312, Note_on_c, 9, 39, 0
9, 226392, Note_on_c, 9, 40, 60
9, 226408, Note_on_c, 9, 40, 0
9, 226516, Note_on_c, 9, 35, 60
9, 226516, Note_on_c, 9, 38, 67
9, 226520, Note_on_c, 9, 38, 0
9, 226524, Note_on_c, 9, 35, 0
9, 226772, Note_on_c, 9, 40, 60
9, 226788, Note_on_c, 9, 40, 0
9, 226801, Note_on_c, 9, 39, 56
9, 226827, Note_on_c, 9, 39, 0
9, 226900, Note_on_c, 9, 44, 60
9, 226900, Note_on_c, 9, 35, 60
9, 226908, Note_on_c, 9, 38, 86
9, 226912, Note_on_c, 9, 38, 0
9, 226912, Note_on_c, 9, 35, 0
9, 226912, Note_on_c, 9, 44, 0
9, 226920, Note_on_c, 9, 39, 77
9, 227102, Note_on_c, 9, 39, 0
9, 227156, Note_on_c, 9, 40, 60
9, 227168, Note_on_c, 9, 40, 0
9, 227284, Note_on_c, 9, 38, 67
9, 227288, Note_on_c, 9, 35, 60
9, 227292, Note_on_c, 9, 35, 0
9, 227292, Note_on_c, 9, 38, 0
9, 227540, Note_on_c, 9, 40, 60
9, 227560, Note_on_c, 9, 40, 0
9, 227576, Note_on_c, 9, 39, 30
9, 227605, Note_on_c, 9, 39, 0
9, 227668, Note_on_c, 9, 35, 60
9, 227668, Note_on_c, 9, 44, 60
9, 227668, Note_on_c, 9, 38, 67
9, 227680, Note_on_c, 9, 38, 0
9, 227684, Note_on_c, 9, 44, 0
9, 227684, Note_on_c, 9, 35, 0
9, 227688, Note_on_c, 9, 39, 70
9, 227837, Note_on_c, 9, 39, 0
9, 227928, Note_on_c, 9, 40, 60
9, 227928, Note_on_c, 9, 40, 0
9, 227928, Note_on_c, 9, 35, 72
9, 228001, Note_on_c, 9, 35, 0
9, 228056, Note_on_c, 9, 38, 67
9, 228056, Note_on_c, 9, 35, 60
9, 228060, Note_on_c, 9, 38, 0
9, 228064, Note_on_c, 9, 35, 0
9, 228312, Note_on_c, 9, 40, 60
9, 228324, Note_on_c, 9, 40, 0
9, 228436, Note_on_c, 9, 44, 60
9, 228440, Note_on_c, 9, 38, 86
9, 228440, Note_on_c, 9, 35, 60
9, 228452, Note_on_c, 9, 35, 0
9, 228456, Note_on_c, 9, 38, 0
9, 228456, Note_on_c, 9, 44, 0
9, 228692, Note_on_c, 9, 40, 60
9, 228708, Note_on_c, 9, 40, 0
9, 228708, Note_on_c, 9, 39, 51
9, 228737, Note_on_c, 9, 39, 0
9, 228820, Note_on_c, 9, 38, 67
9, 228824, Note_on_c, 9, 35, 60
9, 228828, Note_on_c, 9, 35, 0
9, 228828, Note_on_c, 9, 38, 0
9, 229076, Note_on_c, 9, 40, 60
9, 229092, Note_on_c, 9, 40, 0
9, 229109, Note_on_c, 9, 39, 34
9, 229137, Note_on_c, 9, 39, 0
9, 229208, Note_on_c, 9, 38, 67
9, 229208, Note_on_c, 9, 35, 60
9, 229208, Note_on_c, 9, 44, 60
9, 229224, Note_on_c, 9, 44, 0
9, 229224, Note_on_c, 9, 38, 0
9, 229228, Note_on_c, 9, 35, 0
9, 229460, Note_on_c, 9, 40, 60
9, 229480, Note_on_c, 9, 40, 0
9, 229588, Note_on_c, 9, 38, 67
9, 229596, Note_on_c, 9, 35, 60
9, 229600, Note_on_c, 9, 35, 0
9, 229600, Note_on_c, 9, 38, 0
9, 229848, Note_on_c, 9, 40, 60
9, 229864, Note_on_c, 9, 40, 0
9, 229976, Note_on_c, 9, 38, 86
9, 229976, Note_on_c, 9, 35, 60
9, 229976, Note_on_c, 9, 44, 60
9, 229988, Note_on_c, 9, 44, 0
9, 229992, Note_on_c, 9, 35, 0
9, 229992, Note_on_c, 9, 38, 0
9, 230228, Note_on_c, 9, 40, 60
9, 230244, Note_on_c, 9, 40, 0
9, 230356, Note_on_c, 9, 38, 67
9, 230360, Note_on_c, 9, 35, 60
9, 230368, Note_on_c, 9, 35, 0
9, 230368, Note_on_c, 9, 38, 0
9, 230612, Note_on_c, 9, 40, 60
9, 230628, Note_on_c, 9, 40, 0
9, 230740, Note_on_c, 9, 38, 67
9, 230740, Note_on_c, 9, 44, 60
9, 230751, Note_on_c, 9, 39, 56
9, 230752, Note_on_c, 9, 44, 0
9, 230752, Note_on_c, 9, 38, 0
9, 230752, Note_on_c, 9, 35, 60
9, 230752, Note_on_c, 9, 35, 0
9, 230801, Note_on_c, 9, 39, 0
9, 230996, Note_on_c, 9, 40, 60
9, 231016, Note_on_c, 9, 40, 0
9, 231017, Note_on_c, 9, 39, 71
9, 231074, Note_on_c, 9, 39, 0
9, 231124, Note_on_c, 9, 35, 60
9, 231128, Note_on_c, 9, 38, 67
9, 231136, Note_on_c, 9, 38, 0
9, 231136, Note_on_c, 9, 35, 0
9, 231380, Note_on_c, 9, 40, 60
9, 231400, Note_on_c, 9, 40, 0
9, 231508, Note_on_c, 9, 38, 86
9, 231512, Note_on_c, 9, 35, 60
9, 231516, Note_on_c, 9, 46, 60
9, 231528, Note_on_c, 9, 46, 0
9, 231528, Note_on_c, 9, 35, 0
9, 231528, Note_on_c, 9, 38, 0
9, 231768, Note_on_c, 9, 40, 60
9, 231780, Note_on_c, 9, 40, 0
9, 231896, Note_on_c, 9, 38, 67
9, 231896, Note_on_c, 9, 35, 60
9, 231903, Note_on_c, 9, 39, 57
9, 231904, Note_on_c, 9, 35, 0
9, 231904, Note_on_c, 9, 38, 0
9, 231955, Note_on_c, 9, 39, 0
9, 232148, Note_on_c, 9, 40, 60
9, 232164, Note_on_c, 9, 40, 0
9, 232172, Note_on_c, 9, 39, 57
9, 232272, Note_on_c, 9, 39, 0
9, 232276, Note_on_c, 9, 35, 60
9, 232276, Note_on_c, 9, 38, 67
9, 232284, Note_on_c, 9, 44, 60
9, 232288, Note_on_c, 9, 44, 0
9, 232292, Note_on_c, 9, 38, 0
9, 232292, Note_on_c, 9, 35, 0
9, 232532, Note_on_c, 9, 40, 60
9, 232544, Note_on_c, 9, 40, 0
9, 232664, Note_on_c, 9, 35, 60
9, 232664, Note_on_c, 9, 38, 67
9, 232668, Note_on_c, 9, 38, 0
9, 232668, Note_on_c, 9, 35, 0
9, 232751, Note_on_c, 9, 35, 58
9, 232782, Note_on_c, 9, 46, 100
9, 232830, Note_on_c, 9, 46, 0
9, 233878, Note_on_c, 9, 35, 0
9, 233878, End_track
0, 0, End_of_file
