0, 0, Header, 1, 2, 120
1, 0, Start_track
1, 0, Title_t, "untitled"
1, 0, Text_t, "Doug McK"
1, 0, Time_signature, 4, 2, 24, 8
1, 0, Key_signature, 0, "major"
1, 0, Tempo, 600000
1, 0, End_track
2, 0, Start_track
2, 0, Title_t, ""
2, 0, Program_c, 0, 0
2, 100, Control_c, 0, 64, 127
2, 241, Note_on_c, 0, 78, 51
2, 242, Control_c, 0, 64, 0
2, 244, Note_on_c, 0, 47, 32
2, 260, Control_c, 0, 64, 127
2, 295, Note_on_c, 0, 78, 0
2, 304, Note_on_c, 0, 54, 26
2, 349, Note_on_c, 0, 59, 38
2, 392, Note_on_c, 0, 64, 36
2, 413, Note_on_c, 0, 64, 0
2, 416, Note_on_c, 0, 66, 36
2, 420, Note_on_c, 0, 59, 0
2, 430, Note_on_c, 0, 71, 36
2, 441, Note_on_c, 0, 66, 0
2, 451, Note_on_c, 0, 64, 41
2, 479, Note_on_c, 0, 59, 26
2, 558, Note_on_c, 0, 54, 0
2, 588, Note_on_c, 0, 64, 0
2, 591, Note_on_c, 0, 59, 0
2, 608, Note_on_c, 0, 71, 0
2, 615, Note_on_c, 0, 54, 20
2, 665, Note_on_c, 0, 47, 0
2, 668, Note_on_c, 0, 64, 46
2, 687, Note_on_c, 0, 66, 40
2, 695, Note_on_c, 0, 64, 0
2, 706, Note_on_c, 0, 71, 62
2, 716, Note_on_c, 0, 66, 0
2, 733, Note_on_c, 0, 54, 0
2, 737, Note_on_c, 0, 67, 51
2, 739, Note_on_c, 0, 71, 0
2, 739, Note_on_c, 0, 48, 32
2, 754, Control_c, 0, 64, 0
2, 788, Control_c, 0, 64, 127
2, 802, Note_on_c, 0, 67, 0
2, 808, Note_on_c, 0, 55, 33
2, 876, Note_on_c, 0, 55, 0
2, 876, Note_on_c, 0, 48, 0
2, 878, Note_on_c, 0, 59, 36
2, 888, Note_on_c, 0, 59, 0
2, 965, Note_on_c, 0, 59, 35
2, 966, Note_on_c, 0, 64, 33
2, 970, Note_on_c, 0, 60, 33
2, 1158, Note_on_c, 0, 64, 0
2, 1161, Note_on_c, 0, 59, 0
2, 1165, Note_on_c, 0, 60, 0
2, 1165, Note_on_c, 0, 79, 80
2, 1167, Note_on_c, 0, 77, 80
2, 1209, Note_on_c, 0, 77, 0
2, 1209, Note_on_c, 0, 79, 0
2, 1234, Note_on_c, 0, 76, 53
2, 1238, Note_on_c, 0, 72, 71
2, 1239, Note_on_c, 0, 67, 66
2, 1241, Control_c, 0, 64, 0
2, 1243, Note_on_c, 0, 53, 33
2, 1275, Control_c, 0, 64, 127
2, 1288, Note_on_c, 0, 67, 0
2, 1294, Note_on_c, 0, 72, 0
2, 1297, Note_on_c, 0, 60, 52
2, 1299, Note_on_c, 0, 76, 0
2, 1362, Note_on_c, 0, 83, 84
2, 1362, Note_on_c, 0, 76, 89
2, 1365, Note_on_c, 0, 64, 51
2, 1370, Note_on_c, 0, 60, 0
2, 1395, Note_on_c, 0, 76, 0
2, 1402, Note_on_c, 0, 83, 0
2, 1440, Note_on_c, 0, 86, 85
2, 1440, Note_on_c, 0, 60, 57
2, 1450, Note_on_c, 0, 64, 0
2, 1480, Note_on_c, 0, 60, 0
2, 1487, Note_on_c, 0, 53, 0
2, 1494, Note_on_c, 0, 86, 0
2, 1522, Note_on_c, 0, 85, 60
2, 1531, Note_on_c, 0, 52, 45
2, 1532, Control_c, 0, 64, 0
2, 1532, Note_on_c, 0, 76, 29
2, 1564, Control_c, 0, 64, 127
2, 1616, Note_on_c, 0, 59, 38
2, 1628, Note_on_c, 0, 85, 0
2, 1666, Note_on_c, 0, 76, 0
2, 1720, Note_on_c, 0, 64, 32
2, 1773, Note_on_c, 0, 64, 0
2, 1779, Note_on_c, 0, 52, 0
2, 1809, Note_on_c, 0, 81, 47
2, 1847, Note_on_c, 0, 81, 0
2, 1889, Note_on_c, 0, 83, 32
2, 1892, Note_on_c, 0, 78, 39
2, 1901, Note_on_c, 0, 66, 29
2, 2003, Note_on_c, 0, 59, 0
2, 2091, Note_on_c, 0, 59, 31
2, 2161, Note_on_c, 0, 66, 0
2, 2187, Note_on_c, 0, 78, 0
2, 2212, Note_on_c, 0, 83, 0
2, 2312, Note_on_c, 0, 59, 0
2, 2319, Note_on_c, 0, 76, 64
2, 2330, Note_on_c, 0, 72, 67
2, 2353, Note_on_c, 0, 71, 75
2, 2356, Note_on_c, 0, 72, 0
2, 2438, Note_on_c, 0, 76, 0
2, 2442, Note_on_c, 0, 71, 0
2, 2451, Note_on_c, 0, 45, 29
2, 2491, Note_on_c, 0, 71, 24
2, 2499, Note_on_c, 0, 67, 32
2, 2504, Note_on_c, 0, 64, 54
2, 2517, Note_on_c, 0, 52, 19
2, 2529, Note_on_c, 0, 59, 43
2, 2624, Note_on_c, 0, 52, 0
2, 2754, Note_on_c, 0, 59, 0
2, 2779, Note_on_c, 0, 64, 0
2, 2810, Note_on_c, 0, 67, 0
2, 2814, Note_on_c, 0, 52, 34
2, 2850, Note_on_c, 0, 71, 0
2, 2895, Note_on_c, 0, 45, 0
2, 2902, Note_on_c, 0, 52, 0
2, 3001, Note_on_c, 0, 69, 71
2, 3003, Note_on_c, 0, 65, 71
2, 3006, Note_on_c, 0, 57, 47
2, 3020, Note_on_c, 0, 65, 0
2, 3024, Note_on_c, 0, 69, 0
2, 3056, Note_on_c, 0, 78, 25
2, 3069, Note_on_c, 0, 78, 0
2, 3089, Note_on_c, 0, 79, 82
2, 3094, Note_on_c, 0, 57, 0
2, 3120, Note_on_c, 0, 79, 0
2, 3179, Note_on_c, 0, 76, 55
2, 3183, Note_on_c, 0, 70, 50
2, 3184, Note_on_c, 0, 43, 43
2, 3194, Control_c, 0, 64, 0
2, 3225, Control_c, 0, 64, 127
2, 3273, Note_on_c, 0, 50, 34
2, 3275, Note_on_c, 0, 76, 0
2, 3287, Note_on_c, 0, 70, 0
2, 3329, Note_on_c, 0, 43, 0
2, 3342, Note_on_c, 0, 50, 0
2, 3347, Note_on_c, 0, 77, 53
2, 3351, Note_on_c, 0, 57, 46
2, 3354, Note_on_c, 0, 69, 47
2, 3379, Note_on_c, 0, 77, 0
2, 3392, Note_on_c, 0, 69, 0
2, 3433, Note_on_c, 0, 72, 60
2, 3438, Note_on_c, 0, 65, 49
2, 3443, Note_on_c, 0, 58, 48
2, 3444, Note_on_c, 0, 57, 0
2, 3466, Note_on_c, 0, 72, 0
2, 3480, Note_on_c, 0, 65, 0
2, 3507, Note_on_c, 0, 67, 65
2, 3507, Note_on_c, 0, 74, 70
2, 3509, Note_on_c, 0, 62, 58
2, 3526, Note_on_c, 0, 62, 0
2, 3526, Note_on_c, 0, 67, 0
2, 3532, Note_on_c, 0, 74, 0
2, 3535, Note_on_c, 0, 58, 0
2, 3599, Note_on_c, 0, 81, 69
2, 3601, Note_on_c, 0, 74, 62
2, 3601, Note_on_c, 0, 69, 58
2, 3602, Note_on_c, 0, 67, 68
2, 3603, Note_on_c, 0, 39, 57
2, 3620, Control_c, 0, 64, 0
2, 3662, Control_c, 0, 64, 127
2, 3674, Note_on_c, 0, 39, 0
2, 3679, Note_on_c, 0, 46, 58
2, 3718, Note_on_c, 0, 67, 0
2, 3727, Note_on_c, 0, 74, 0
2, 3731, Note_on_c, 0, 69, 0
2, 3753, Note_on_c, 0, 81, 0
2, 3761, Note_on_c, 0, 46, 0
2, 3764, Note_on_c, 0, 74, 54
2, 3765, Note_on_c, 0, 81, 30
2, 3765, Note_on_c, 0, 57, 62
2, 3765, Note_on_c, 0, 69, 55
2, 3766, Note_on_c, 0, 67, 60
2, 3824, Note_on_c, 0, 67, 0
2, 3842, Note_on_c, 0, 69, 0
2, 3843, Note_on_c, 0, 57, 0
2, 3848, Note_on_c, 0, 58, 74
2, 3850, Note_on_c, 0, 74, 0
2, 3857, Note_on_c, 0, 81, 0
2, 3873, Note_on_c, 0, 58, 0
2, 3938, Note_on_c, 0, 44, 76
2, 3939, Note_on_c, 0, 51, 77
2, 3940, Note_on_c, 0, 86, 80
2, 3940, Note_on_c, 0, 79, 77
2, 3942, Note_on_c, 0, 74, 76
2, 3942, Note_on_c, 0, 72, 79
2, 3946, Note_on_c, 0, 84, 48
2, 3949, Control_c, 0, 64, 0
2, 3953, Note_on_c, 0, 84, 0
2, 3989, Control_c, 0, 64, 127
2, 4022, Note_on_c, 0, 44, 0
2, 4025, Note_on_c, 0, 51, 0
2, 4552, Note_on_c, 0, 86, 0
2, 4558, Note_on_c, 0, 79, 0
2, 4568, Note_on_c, 0, 74, 0
2, 4572, Note_on_c, 0, 72, 0
2, 4728, Note_on_c, 0, 66, 30
2, 4732, Note_on_c, 0, 64, 48
2, 4743, Note_on_c, 0, 60, 28
2, 4745, Note_on_c, 0, 59, 41
2, 4751, Note_on_c, 0, 45, 37
2, 4752, Note_on_c, 0, 52, 22
2, 4767, Control_c, 0, 64, 0
2, 4812, Control_c, 0, 64, 127
2, 4846, Note_on_c, 0, 45, 0
2, 4858, Note_on_c, 0, 52, 0
2, 4898, Note_on_c, 0, 59, 0
2, 4909, Note_on_c, 0, 60, 0
2, 4914, Note_on_c, 0, 64, 0
2, 4928, Note_on_c, 0, 66, 0
2, 5037, Note_on_c, 0, 64, 44
2, 5041, Note_on_c, 0, 60, 37
2, 5041, Note_on_c, 0, 59, 34
2, 5119, Note_on_c, 0, 88, 90
2, 5124, Note_on_c, 0, 79, 80
2, 5145, Note_on_c, 0, 88, 0
2, 5151, Note_on_c, 0, 79, 0
2, 5167, Note_on_c, 0, 64, 0
2, 5225, Note_on_c, 0, 81, 70
2, 5226, Note_on_c, 0, 72, 70
2, 5234, Note_on_c, 0, 64, 31
2, 5243, Note_on_c, 0, 64, 0
2, 5247, Note_on_c, 0, 60, 0
2, 5248, Note_on_c, 0, 59, 0
2, 5331, Note_on_c, 0, 50, 64
2, 5337, Note_on_c, 0, 81, 0
2, 5343, Control_c, 0, 64, 0
2, 5365, Control_c, 0, 64, 127
2, 5378, Note_on_c, 0, 72, 0
2, 5398, Note_on_c, 0, 83, 76
2, 5400, Note_on_c, 0, 57, 58
2, 5400, Note_on_c, 0, 74, 83
2, 5408, Note_on_c, 0, 82, 33
2, 5415, Note_on_c, 0, 82, 0
2, 5435, Note_on_c, 0, 83, 0
2, 5441, Note_on_c, 0, 74, 0
2, 5467, Note_on_c, 0, 84, 80
2, 5469, Note_on_c, 0, 76, 74
2, 5470, Note_on_c, 0, 62, 62
2, 5488, Note_on_c, 0, 76, 0
2, 5493, Note_on_c, 0, 57, 0
2, 5497, Note_on_c, 0, 84, 0
2, 5542, Note_on_c, 0, 62, 0
2, 5546, Note_on_c, 0, 57, 46
2, 5552, Note_on_c, 0, 88, 72
2, 5554, Note_on_c, 0, 79, 60
2, 5555, Note_on_c, 0, 57, 0
2, 5566, Note_on_c, 0, 50, 0
2, 5596, Note_on_c, 0, 88, 0
2, 5617, Note_on_c, 0, 79, 0
2, 5647, Note_on_c, 0, 86, 57
2, 5648, Control_c, 0, 64, 0
2, 5649, Note_on_c, 0, 77, 39
2, 5650, Note_on_c, 0, 43, 51
2, 5670, Note_on_c, 0, 43, 0
2, 5670, Control_c, 0, 64, 127
2, 5762, Note_on_c, 0, 62, 26
2, 5763, Note_on_c, 0, 57, 36
2, 5764, Note_on_c, 0, 58, 27
2, 5767, Note_on_c, 0, 53, 22
2, 5823, Note_on_c, 0, 57, 0
2, 5827, Note_on_c, 0, 62, 0
2, 5828, Note_on_c, 0, 58, 0
2, 5834, Note_on_c, 0, 53, 0
2, 5872, Note_on_c, 0, 53, 30
2, 5874, Note_on_c, 0, 62, 30
2, 5877, Note_on_c, 0, 58, 31
2, 5880, Note_on_c, 0, 57, 33
2, 5934, Note_on_c, 0, 86, 0
2, 5936, Note_on_c, 0, 57, 0
2, 5937, Note_on_c, 0, 62, 0
2, 5947, Note_on_c, 0, 53, 0
2, 5949, Note_on_c, 0, 58, 0
2, 5957, Note_on_c, 0, 77, 0
2, 6002, Note_on_c, 0, 62, 24
2, 6003, Note_on_c, 0, 53, 18
2, 6005, Note_on_c, 0, 58, 23
2, 6007, Note_on_c, 0, 57, 28
2, 6056, Note_on_c, 0, 62, 0
2, 6059, Note_on_c, 0, 57, 0
2, 6063, Note_on_c, 0, 58, 0
2, 6068, Note_on_c, 0, 53, 0
2, 6130, Note_on_c, 0, 79, 46
2, 6131, Note_on_c, 0, 48, 40
2, 6139, Note_on_c, 0, 67, 27
2, 6139, Control_c, 0, 64, 0
2, 6165, Control_c, 0, 64, 127
2, 6199, Note_on_c, 0, 79, 0
2, 6203, Note_on_c, 0, 55, 29
2, 6220, Note_on_c, 0, 67, 0
2, 6241, Note_on_c, 0, 48, 0
2, 6254, Note_on_c, 0, 55, 0
2, 6261, Note_on_c, 0, 70, 45
2, 6267, Note_on_c, 0, 67, 35
2, 6267, Note_on_c, 0, 62, 44
2, 6278, Note_on_c, 0, 67, 0
2, 6280, Note_on_c, 0, 70, 0
2, 6448, Note_on_c, 0, 81, 66
2, 6452, Note_on_c, 0, 72, 76
2, 6452, Note_on_c, 0, 63, 36
2, 6458, Note_on_c, 0, 80, 28
2, 6465, Note_on_c, 0, 80, 0
2, 6465, Note_on_c, 0, 62, 0
2, 6469, Note_on_c, 0, 72, 0
2, 6474, Note_on_c, 0, 81, 0
2, 6530, Note_on_c, 0, 82, 68
2, 6532, Note_on_c, 0, 74, 60
2, 6536, Note_on_c, 0, 67, 38
2, 6545, Note_on_c, 0, 74, 0
2, 6547, Note_on_c, 0, 82, 0
2, 6603, Note_on_c, 0, 67, 0
2, 6614, Note_on_c, 0, 72, 43
2, 6614, Note_on_c, 0, 76, 51
2, 6615, Note_on_c, 0, 86, 49
2, 6623, Note_on_c, 0, 76, 0
2, 6628, Note_on_c, 0, 86, 0
2, 6701, Note_on_c, 0, 72, 0
2, 6702, Note_on_c, 0, 67, 45
2, 6703, Note_on_c, 0, 89, 61
2, 6707, Note_on_c, 0, 77, 35
2, 6713, Note_on_c, 0, 63, 0
2, 6725, Note_on_c, 0, 77, 0
2, 6727, Note_on_c, 0, 89, 0
2, 6789, Note_on_c, 0, 63, 33
2, 6790, Note_on_c, 0, 67, 0
2, 6790, Note_on_c, 0, 91, 62
2, 6792, Note_on_c, 0, 79, 43
2, 6805, Note_on_c, 0, 63, 0
2, 6808, Note_on_c, 0, 79, 0
2, 6814, Note_on_c, 0, 91, 0
2, 6922, Note_on_c, 0, 94, 59
2, 6923, Note_on_c, 0, 80, 48
2, 6924, Note_on_c, 0, 41, 53
2, 6926, Note_on_c, 0, 87, 50
2, 6929, Control_c, 0, 64, 0
2, 6946, Control_c, 0, 64, 127
2, 6953, Note_on_c, 0, 94, 0
2, 6961, Note_on_c, 0, 87, 0
2, 6974, Note_on_c, 0, 80, 0
2, 7016, Note_on_c, 0, 48, 38
2, 7045, Note_on_c, 0, 41, 0
2, 7065, Note_on_c, 0, 48, 0
2, 7073, Note_on_c, 0, 55, 47
2, 7125, Note_on_c, 0, 56, 50
2, 7134, Note_on_c, 0, 55, 0
2, 7174, Note_on_c, 0, 60, 38
2, 7186, Note_on_c, 0, 58, 36
2, 7211, Note_on_c, 0, 60, 0
2, 7216, Note_on_c, 0, 62, 59
2, 7245, Note_on_c, 0, 62, 0
2, 7246, Note_on_c, 0, 58, 0
2, 7246, Note_on_c, 0, 56, 0
2, 7248, Note_on_c, 0, 63, 59
2, 7251, Note_on_c, 0, 60, 38
2, 7267, Note_on_c, 0, 63, 0
2, 7277, Note_on_c, 0, 65, 78
2, 7303, Note_on_c, 0, 67, 76
2, 7306, Note_on_c, 0, 65, 0
2, 7306, Note_on_c, 0, 60, 0
2, 7306, Note_on_c, 0, 63, 32
2, 7323, Note_on_c, 0, 68, 60
2, 7334, Note_on_c, 0, 67, 0
2, 7347, Note_on_c, 0, 70, 65
2, 7353, Note_on_c, 0, 68, 0
2, 7361, Note_on_c, 0, 70, 0
2, 7369, Note_on_c, 0, 72, 77
2, 7378, Note_on_c, 0, 67, 31
2, 7393, Note_on_c, 0, 74, 62
2, 7395, Note_on_c, 0, 72, 0
2, 7416, Note_on_c, 0, 74, 0
2, 7416, Note_on_c, 0, 75, 72
2, 7429, Note_on_c, 0, 75, 0
2, 7437, Note_on_c, 0, 77, 59
2, 7439, Note_on_c, 0, 67, 0
2, 7464, Note_on_c, 0, 79, 33
2, 7469, Note_on_c, 0, 77, 0
2, 7473, Note_on_c, 0, 63, 0
2, 7481, Note_on_c, 0, 80, 46
2, 7489, Note_on_c, 0, 79, 0
2, 7503, Note_on_c, 0, 80, 0
2, 7513, Note_on_c, 0, 82, 46
2, 7520, Note_on_c, 0, 82, 0
2, 7532, Note_on_c, 0, 84, 50
2, 7557, Note_on_c, 0, 84, 0
2, 7559, Note_on_c, 0, 86, 53
2, 7579, Note_on_c, 0, 86, 0
2, 7587, Note_on_c, 0, 87, 55
2, 7601, Note_on_c, 0, 87, 0
2, 7614, Note_on_c, 0, 89, 61
2, 7648, Note_on_c, 0, 89, 0
2, 7648, Note_on_c, 0, 90, 36
2, 7664, Note_on_c, 0, 90, 0
2, 7687, Note_on_c, 0, 91, 33
2, 7709, Note_on_c, 0, 91, 0
2, 7718, Note_on_c, 0, 93, 39
2, 7743, Note_on_c, 0, 94, 59
2, 7747, Note_on_c, 0, 93, 0
2, 7767, Note_on_c, 0, 94, 0
2, 7775, Note_on_c, 0, 95, 50
2, 7777, Note_on_c, 0, 52, 39
2, 7786, Control_c, 0, 64, 0
2, 7828, Control_c, 0, 64, 127
2, 7858, Note_on_c, 0, 59, 33
2, 7961, Note_on_c, 0, 91, 31
2, 7961, Note_on_c, 0, 88, 44
2, 7963, Note_on_c, 0, 64, 30
2, 7965, Note_on_c, 0, 83, 24
2, 8030, Note_on_c, 0, 59, 0
2, 8085, Note_on_c, 0, 83, 0
2, 8090, Note_on_c, 0, 59, 19
2, 8092, Note_on_c, 0, 88, 0
2, 8103, Note_on_c, 0, 64, 0
2, 8108, Note_on_c, 0, 95, 0
2, 8149, Note_on_c, 0, 91, 0
2, 8216, Note_on_c, 0, 64, 32
2, 8322, Note_on_c, 0, 90, 73
2, 8345, Note_on_c, 0, 59, 0
2, 8406, Note_on_c, 0, 83, 54
2, 8409, Note_on_c, 0, 90, 0
2, 8411, Note_on_c, 0, 59, 32
2, 8484, Note_on_c, 0, 85, 69
2, 8490, Note_on_c, 0, 64, 0
2, 8496, Note_on_c, 0, 59, 0
2, 8512, Note_on_c, 0, 52, 0
2, 8514, Note_on_c, 0, 83, 0
2, 8537, Note_on_c, 0, 85, 0
2, 8545, Note_on_c, 0, 86, 54
2, 8602, Note_on_c, 0, 86, 0
2, 8685, Note_on_c, 0, 88, 49
2, 8689, Note_on_c, 0, 81, 33
2, 8690, Note_on_c, 0, 74, 32
2, 8692, Note_on_c, 0, 76, 29
2, 8692, Note_on_c, 0, 47, 37
2, 8713, Control_c, 0, 64, 0
2, 8755, Control_c, 0, 64, 127
2, 8787, Note_on_c, 0, 54, 34
2, 8810, Note_on_c, 0, 76, 0
2, 8817, Note_on_c, 0, 74, 0
2, 8832, Note_on_c, 0, 81, 0
2, 8843, Note_on_c, 0, 47, 0
2, 8852, Note_on_c, 0, 88, 0
2, 8862, Note_on_c, 0, 54, 0
2, 8862, Note_on_c, 0, 86, 37
2, 8863, Note_on_c, 0, 81, 33
2, 8864, Note_on_c, 0, 59, 38
2, 8866, Note_on_c, 0, 74, 24
2, 8867, Note_on_c, 0, 76, 20
2, 8922, Note_on_c, 0, 81, 0
2, 8924, Note_on_c, 0, 86, 0
2, 8930, Note_on_c, 0, 76, 0
2, 8936, Note_on_c, 0, 61, 46
2, 8939, Note_on_c, 0, 74, 0
2, 8952, Note_on_c, 0, 59, 0
2, 9049, Note_on_c, 0, 61, 0
2, 9090, Note_on_c, 0, 61, 45
2, 9198, Note_on_c, 0, 61, 0
2, 9254, Note_on_c, 0, 61, 30
2, 9322, Note_on_c, 0, 61, 0
2, 9333, Note_on_c, 0, 73, 35
2, 9338, Note_on_c, 0, 66, 51
2, 9341, Note_on_c, 0, 61, 37
2, 9342, Note_on_c, 0, 62, 37
2, 9398, Note_on_c, 0, 61, 0
2, 9437, Note_on_c, 0, 61, 36
2, 9449, Note_on_c, 0, 62, 0
2, 9545, Note_on_c, 0, 66, 0
2, 9546, Note_on_c, 0, 61, 0
2, 9602, Note_on_c, 0, 61, 30
2, 9664, Note_on_c, 0, 61, 0
2, 9703, Note_on_c, 0, 61, 29
2, 9704, Note_on_c, 0, 66, 32
2, 9705, Note_on_c, 0, 62, 25
2, 9758, Note_on_c, 0, 61, 0
2, 9816, Note_on_c, 0, 61, 30
2, 9832, Note_on_c, 0, 61, 0
2, 9923, Note_on_c, 0, 62, 0
2, 9954, Note_on_c, 0, 66, 0
2, 10059, Note_on_c, 0, 62, 24
2, 10061, Note_on_c, 0, 66, 30
2, 10197, Note_on_c, 0, 62, 0
2, 10246, Note_on_c, 0, 73, 0
2, 10255, Note_on_c, 0, 66, 0
2, 10318, Note_on_c, 0, 54, 46
2, 10327, Note_on_c, 0, 56, 35
2, 10328, Note_on_c, 0, 61, 42
2, 10336, Note_on_c, 0, 58, 30
2, 10342, Note_on_c, 0, 65, 60
2, 10350, Note_on_c, 0, 68, 50
2, 10359, Note_on_c, 0, 73, 34
2, 10367, Control_c, 0, 64, 0
2, 10423, Control_c, 0, 64, 127
2, 10567, Note_on_c, 0, 51, 27
2, 10616, Note_on_c, 0, 61, 0
2, 10617, Note_on_c, 0, 65, 0
2, 10636, Note_on_c, 0, 68, 0
2, 10653, Note_on_c, 0, 73, 0
2, 10666, Note_on_c, 0, 56, 0
2, 10760, Note_on_c, 0, 58, 0
2, 10860, Note_on_c, 0, 85, 83
2, 10929, Note_on_c, 0, 85, 0
2, 10940, Note_on_c, 0, 80, 51
2, 10989, Note_on_c, 0, 80, 0
2, 10990, Note_on_c, 0, 51, 0
2, 10991, Note_on_c, 0, 54, 0
2, 11002, Note_on_c, 0, 82, 56
2, 11043, Note_on_c, 0, 82, 0
2, 11064, Note_on_c, 0, 45, 45
2, 11067, Note_on_c, 0, 83, 50
2, 11073, Control_c, 0, 64, 0
2, 11101, Control_c, 0, 64, 127
2, 11126, Note_on_c, 0, 76, 44
2, 11129, Note_on_c, 0, 83, 0
2, 11130, Note_on_c, 0, 45, 0
2, 11130, Note_on_c, 0, 52, 37
2, 11136, Note_on_c, 0, 76, 0
2, 11139, Note_on_c, 0, 52, 0
2, 11209, Note_on_c, 0, 90, 43
2, 11210, Note_on_c, 0, 59, 53
2, 11295, Note_on_c, 0, 60, 43
2, 11378, Note_on_c, 0, 88, 60
2, 11385, Note_on_c, 0, 90, 0
2, 11387, Note_on_c, 0, 84, 58
2, 11388, Note_on_c, 0, 64, 47
2, 11391, Note_on_c, 0, 83, 61
2, 11467, Note_on_c, 0, 60, 0
2, 11543, Note_on_c, 0, 84, 0
2, 11546, Note_on_c, 0, 64, 0
2, 11547, Note_on_c, 0, 88, 0
2, 11549, Note_on_c, 0, 83, 0
2, 11554, Note_on_c, 0, 60, 34
2, 11659, Note_on_c, 0, 64, 50
2, 11702, Note_on_c, 0, 64, 0
2, 11729, Note_on_c, 0, 60, 0
2, 11765, Note_on_c, 0, 59, 0
2, 11825, Note_on_c, 0, 69, 62
2, 11833, Note_on_c, 0, 67, 42
2, 11841, Note_on_c, 0, 63, 50
2, 11865, Note_on_c, 0, 62, 58
2, 11945, Note_on_c, 0, 58, 40
2, 11952, Note_on_c, 0, 48, 40
2, 11958, Control_c, 0, 64, 0
2, 11996, Control_c, 0, 64, 127
2, 12057, Note_on_c, 0, 55, 33
2, 12064, Note_on_c, 0, 62, 0
2, 12105, Note_on_c, 0, 58, 0
2, 12116, Note_on_c, 0, 63, 0
2, 12148, Note_on_c, 0, 63, 34
2, 12154, Note_on_c, 0, 69, 0
2, 12156, Note_on_c, 0, 60, 38
2, 12171, Note_on_c, 0, 67, 0
2, 12199, Note_on_c, 0, 63, 0
2, 12202, Note_on_c, 0, 60, 0
2, 12228, Note_on_c, 0, 58, 64
2, 12230, Note_on_c, 0, 70, 87
2, 12235, Note_on_c, 0, 55, 0
2, 12296, Note_on_c, 0, 58, 0
2, 12298, Note_on_c, 0, 70, 0
2, 12305, Note_on_c, 0, 53, 64
2, 12306, Note_on_c, 0, 65, 87
2, 12350, Note_on_c, 0, 65, 0
2, 12372, Note_on_c, 0, 55, 59
2, 12373, Note_on_c, 0, 67, 91
2, 12376, Note_on_c, 0, 48, 0
2, 12380, Note_on_c, 0, 53, 0
2, 12387, Note_on_c, 0, 55, 0
2, 12400, Note_on_c, 0, 67, 0
2, 12467, Note_on_c, 0, 68, 70
2, 12469, Note_on_c, 0, 61, 62
2, 12469, Note_on_c, 0, 42, 67
2, 12471, Note_on_c, 0, 57, 67
2, 12479, Control_c, 0, 64, 0
2, 12519, Control_c, 0, 64, 127
2, 12541, Note_on_c, 0, 57, 0
2, 12559, Note_on_c, 0, 61, 0
2, 12567, Note_on_c, 0, 68, 0
2, 12573, Note_on_c, 0, 61, 43
2, 12575, Note_on_c, 0, 57, 50
2, 12576, Note_on_c, 0, 64, 58
2, 12577, Note_on_c, 0, 54, 42
2, 12590, Note_on_c, 0, 57, 0
2, 12596, Note_on_c, 0, 42, 0
2, 12608, Note_on_c, 0, 64, 0
2, 12609, Note_on_c, 0, 61, 0
2, 12612, Note_on_c, 0, 54, 0
2, 12782, Note_on_c, 0, 75, 50
2, 12785, Note_on_c, 0, 68, 40
2, 12785, Note_on_c, 0, 64, 42
2, 12786, Note_on_c, 0, 71, 40
2, 12787, Note_on_c, 0, 63, 33
2, 12852, Note_on_c, 0, 63, 0
2, 12903, Note_on_c, 0, 63, 40
2, 12956, Note_on_c, 0, 64, 0
2, 12961, Note_on_c, 0, 68, 0
2, 12968, Note_on_c, 0, 71, 0
2, 12977, Note_on_c, 0, 63, 0
2, 13005, Note_on_c, 0, 75, 0
2, 13033, Note_on_c, 0, 75, 32
2, 13039, Note_on_c, 0, 63, 36
2, 13040, Note_on_c, 0, 64, 28
2, 13041, Note_on_c, 0, 68, 28
2, 13043, Note_on_c, 0, 71, 25
2, 13052, Note_on_c, 0, 54, 19
2, 13131, Note_on_c, 0, 54, 0
2, 13167, Note_on_c, 0, 54, 26
2, 13183, Note_on_c, 0, 64, 0
2, 13200, Note_on_c, 0, 68, 0
2, 13203, Note_on_c, 0, 71, 0
2, 13227, Note_on_c, 0, 63, 0
2, 13308, Note_on_c, 0, 68, 28
2, 13313, Note_on_c, 0, 64, 32
2, 13360, Note_on_c, 0, 63, 1
2, 13410, Note_on_c, 0, 64, 0
2, 13456, Note_on_c, 0, 68, 0
2, 13515, Note_on_c, 0, 75, 0
2, 13539, Note_on_c, 0, 63, 0
2, 13540, Note_on_c, 0, 54, 0
2, 13784, Note_on_c, 0, 66, 32
2, 13785, Note_on_c, 0, 92, 65
2, 13788, Note_on_c, 0, 57, 44
2, 13790, Note_on_c, 0, 61, 31
2, 13792, Note_on_c, 0, 62, 29
2, 13799, Control_c, 0, 64, 0
2, 13833, Control_c, 0, 64, 127
2, 13868, Note_on_c, 0, 92, 0
2, 13892, Note_on_c, 0, 88, 70
2, 13944, Note_on_c, 0, 85, 56
2, 13984, Note_on_c, 0, 62, 0
2, 13985, Note_on_c, 0, 57, 0
2, 13988, Note_on_c, 0, 66, 0
2, 13992, Note_on_c, 0, 61, 0
2, 14127, Note_on_c, 0, 85, 0
2, 14130, Note_on_c, 0, 88, 0
2, 14132, Note_on_c, 0, 62, 27
2, 14133, Note_on_c, 0, 58, 37
2, 14135, Note_on_c, 0, 81, 40
2, 14135, Note_on_c, 0, 53, 30
2, 14137, Note_on_c, 0, 57, 37
2, 14150, Control_c, 0, 64, 0
2, 14186, Control_c, 0, 64, 127
2, 14224, Note_on_c, 0, 62, 0
2, 14231, Note_on_c, 0, 57, 0
2, 14232, Note_on_c, 0, 58, 0
2, 14244, Note_on_c, 0, 53, 0
2, 14379, Note_on_c, 0, 38, 48
2, 14380, Note_on_c, 0, 31, 55
2, 14549, Note_on_c, 0, 81, 0
2, 14717, Note_on_c, 0, 76, 105
2, 14724, Note_on_c, 0, 31, 0
2, 14728, Note_on_c, 0, 38, 0
2, 14789, Note_on_c, 0, 76, 0
2, 14792, Note_on_c, 0, 72, 83
2, 14803, Note_on_c, 0, 74, 24
2, 14850, Note_on_c, 0, 74, 0
2, 14850, Note_on_c, 0, 72, 0
2, 14857, Note_on_c, 0, 69, 72
2, 14870, Note_on_c, 0, 69, 0
2, 14941, Note_on_c, 0, 65, 78
2, 14945, Note_on_c, 0, 62, 68
2, 14947, Note_on_c, 0, 64, 66
2, 14951, Note_on_c, 0, 39, 55
2, 14952, Note_on_c, 0, 58, 71
2, 14958, Note_on_c, 0, 57, 58
2, 14960, Control_c, 0, 64, 0
2, 15016, Control_c, 0, 64, 127
2, 15053, Note_on_c, 0, 46, 53
2, 15058, Note_on_c, 0, 57, 0
2, 15060, Note_on_c, 0, 39, 0
2, 15097, Note_on_c, 0, 62, 0
2, 15103, Note_on_c, 0, 58, 0
2, 15134, Note_on_c, 0, 65, 0
2, 15135, Note_on_c, 0, 64, 0
2, 15139, Note_on_c, 0, 62, 56
2, 15140, Note_on_c, 0, 58, 55
2, 15145, Note_on_c, 0, 55, 44
2, 15173, Note_on_c, 0, 58, 0
2, 15174, Note_on_c, 0, 62, 0
2, 15197, Note_on_c, 0, 46, 0
2, 15200, Note_on_c, 0, 55, 0
2, 15224, Note_on_c, 0, 46, 37
2, 15303, Note_on_c, 0, 46, 0
2, 15314, Note_on_c, 0, 69, 60
2, 15316, Note_on_c, 0, 62, 50
2, 15319, Note_on_c, 0, 57, 44
2, 15319, Note_on_c, 0, 55, 53
2, 15320, Note_on_c, 0, 46, 35
2, 15405, Note_on_c, 0, 46, 0
2, 15442, Note_on_c, 0, 46, 39
2, 15491, Note_on_c, 0, 55, 0
2, 15497, Note_on_c, 0, 62, 0
2, 15498, Note_on_c, 0, 57, 0
2, 15539, Note_on_c, 0, 62, 50
2, 15543, Note_on_c, 0, 55, 36
2, 15543, Note_on_c, 0, 57, 31
2, 15553, Note_on_c, 0, 46, 0
2, 15572, Note_on_c, 0, 69, 0
2, 15585, Note_on_c, 0, 55, 0
2, 15587, Note_on_c, 0, 57, 0
2, 15594, Note_on_c, 0, 69, 55
2, 15611, Note_on_c, 0, 62, 0
2, 15641, Note_on_c, 0, 69, 0
2, 15652, Note_on_c, 0, 60, 48
2, 15653, Note_on_c, 0, 64, 53
2, 15659, Note_on_c, 0, 50, 47
2, 15670, Control_c, 0, 64, 0
2, 15710, Control_c, 0, 64, 127
2, 15723, Note_on_c, 0, 57, 54
2, 15724, Note_on_c, 0, 60, 0
2, 15736, Note_on_c, 0, 64, 0
2, 15789, Note_on_c, 0, 60, 72
2, 15861, Note_on_c, 0, 67, 115
2, 15873, Note_on_c, 0, 57, 0
2, 15917, Note_on_c, 0, 67, 0
2, 15936, Note_on_c, 0, 57, 64
2, 15937, Note_on_c, 0, 72, 95
2, 15949, Note_on_c, 0, 60, 0
2, 15998, Note_on_c, 0, 72, 0
2, 16021, Note_on_c, 0, 72, 73
2, 16084, Note_on_c, 0, 72, 0
2, 16099, Note_on_c, 0, 71, 62
2, 16125, Note_on_c, 0, 50, 0
2, 16139, Note_on_c, 0, 71, 0
2, 16178, Note_on_c, 0, 71, 53
2, 16186, Note_on_c, 0, 50, 24
2, 16197, Note_on_c, 0, 71, 0
2, 16197, Note_on_c, 0, 57, 0
2, 16212, Note_on_c, 0, 50, 0
2, 16270, Note_on_c, 0, 69, 54
2, 16274, Note_on_c, 0, 67, 45
2, 16277, Note_on_c, 0, 62, 36
2, 16278, Note_on_c, 0, 63, 27
2, 16281, Note_on_c, 0, 48, 27
2, 16284, Control_c, 0, 64, 0
2, 16330, Control_c, 0, 64, 127
2, 16349, Note_on_c, 0, 62, 0
2, 16359, Note_on_c, 0, 55, 35
2, 16384, Note_on_c, 0, 63, 0
2, 16400, Note_on_c, 0, 67, 0
2, 16403, Note_on_c, 0, 69, 0
2, 16438, Note_on_c, 0, 67, 43
2, 16439, Note_on_c, 0, 69, 34
2, 16443, Note_on_c, 0, 63, 25
2, 16447, Note_on_c, 0, 62, 22
2, 16449, Note_on_c, 0, 48, 0
2, 16468, Note_on_c, 0, 62, 0
2, 16515, Note_on_c, 0, 62, 38
2, 16545, Note_on_c, 0, 63, 0
2, 16551, Note_on_c, 0, 67, 0
2, 16562, Note_on_c, 0, 69, 0
2, 16573, Note_on_c, 0, 62, 0
2, 16609, Note_on_c, 0, 69, 36
2, 16611, Note_on_c, 0, 67, 35
2, 16616, Note_on_c, 0, 62, 27
2, 16644, Note_on_c, 0, 55, 0
2, 16686, Note_on_c, 0, 55, 43
2, 16726, Note_on_c, 0, 62, 0
2, 16796, Note_on_c, 0, 55, 0
2, 16954, Note_on_c, 0, 67, 0
2, 16989, Note_on_c, 0, 69, 0
2, 17013, Note_on_c, 0, 55, 36
2, 17092, Note_on_c, 0, 67, 36
2, 17115, Note_on_c, 0, 67, 0
2, 17172, Note_on_c, 0, 74, 80
2, 17190, Note_on_c, 0, 55, 0
2, 17240, Note_on_c, 0, 55, 32
2, 17251, Note_on_c, 0, 55, 0
2, 17266, Note_on_c, 0, 74, 0
2, 17318, Note_on_c, 0, 70, 63
2, 17367, Note_on_c, 0, 67, 49
2, 17394, Note_on_c, 0, 67, 0
2, 17412, Note_on_c, 0, 70, 0
2, 17417, Note_on_c, 0, 66, 47
2, 17419, Note_on_c, 0, 47, 38
2, 17421, Control_c, 0, 64, 0
2, 17447, Control_c, 0, 64, 127
2, 17466, Note_on_c, 0, 66, 0
2, 17479, Note_on_c, 0, 54, 38
2, 17483, Note_on_c, 0, 47, 0
2, 17496, Note_on_c, 0, 54, 0
2, 17537, Note_on_c, 0, 78, 55
2, 17580, Note_on_c, 0, 69, 36
2, 17621, Note_on_c, 0, 66, 33
2, 17623, Note_on_c, 0, 61, 35
2, 17761, Note_on_c, 0, 66, 0
2, 17765, Note_on_c, 0, 61, 0
2, 17875, Note_on_c, 0, 69, 0
2, 17891, Note_on_c, 0, 47, 36
2, 17900, Note_on_c, 0, 47, 0
2, 18066, Note_on_c, 0, 78, 0
2, 18074, Note_on_c, 0, 55, 25
2, 18075, Note_on_c, 0, 64, 30
2, 18077, Note_on_c, 0, 59, 34
2, 18077, Note_on_c, 0, 60, 38
2, 18131, Note_on_c, 0, 64, 0
2, 18136, Note_on_c, 0, 60, 0
2, 18139, Note_on_c, 0, 59, 0
2, 18146, Note_on_c, 0, 55, 0
2, 18174, Note_on_c, 0, 79, 69
2, 18204, Note_on_c, 0, 79, 0
2, 18210, Control_c, 0, 64, 0
2, 18214, Note_on_c, 0, 41, 46
2, 18215, Note_on_c, 0, 76, 57
2, 18220, Note_on_c, 0, 48, 24
2, 18226, Control_c, 0, 64, 127
2, 18237, Note_on_c, 0, 76, 0
2, 18244, Note_on_c, 0, 41, 0
2, 18253, Note_on_c, 0, 48, 0
2, 18281, Note_on_c, 0, 83, 64
2, 18359, Note_on_c, 0, 83, 0
2, 18373, Note_on_c, 0, 71, 35
2, 18376, Note_on_c, 0, 57, 40
2, 18378, Note_on_c, 0, 53, 19
2, 18380, Note_on_c, 0, 60, 36
2, 18382, Note_on_c, 0, 64, 24
2, 18413, Note_on_c, 0, 71, 0
2, 18518, Note_on_c, 0, 60, 0
2, 18518, Note_on_c, 0, 64, 0
2, 18531, Note_on_c, 0, 57, 0
2, 18544, Note_on_c, 0, 53, 0
2, 18572, Note_on_c, 0, 86, 89
2, 18598, Note_on_c, 0, 86, 0
2, 18614, Note_on_c, 0, 85, 74
2, 18615, Note_on_c, 0, 52, 41
2, 18617, Control_c, 0, 64, 0
2, 18647, Note_on_c, 0, 85, 0
2, 18671, Note_on_c, 0, 78, 31
2, 18690, Note_on_c, 0, 78, 0
2, 18756, Note_on_c, 0, 83, 75
2, 18778, Note_on_c, 0, 83, 0
2, 18788, Note_on_c, 0, 64, 28
2, 18789, Note_on_c, 0, 59, 31
2, 18821, Note_on_c, 0, 81, 63
2, 18843, Note_on_c, 0, 81, 0
2, 18854, Control_c, 0, 64, 127
2, 18874, Control_c, 0, 64, 0
2, 18881, Note_on_c, 0, 78, 57
2, 18896, Note_on_c, 0, 64, 0
2, 18909, Note_on_c, 0, 59, 0
2, 18914, Note_on_c, 0, 76, 49
2, 18918, Note_on_c, 0, 52, 0
2, 18920, Note_on_c, 0, 78, 0
2, 18926, Control_c, 0, 64, 127
2, 18937, Note_on_c, 0, 76, 0
2, 18948, Note_on_c, 0, 71, 41
2, 18965, Note_on_c, 0, 71, 0
2, 18982, Note_on_c, 0, 69, 41
2, 18994, Control_c, 0, 64, 0
2, 18994, Note_on_c, 0, 45, 33
2, 18999, Note_on_c, 0, 52, 28
2, 19022, Note_on_c, 0, 45, 0
2, 19024, Control_c, 0, 64, 127
2, 19031, Note_on_c, 0, 52, 0
2, 19154, Note_on_c, 0, 69, 0
2, 19161, Note_on_c, 0, 64, 40
2, 19167, Note_on_c, 0, 60, 41
2, 19168, Note_on_c, 0, 59, 40
2, 19169, Note_on_c, 0, 55, 36
2, 19178, Control_c, 0, 64, 0
2, 19192, Control_c, 0, 64, 127
2, 19270, Note_on_c, 0, 64, 0
2, 19275, Note_on_c, 0, 60, 0
2, 19275, Note_on_c, 0, 59, 0
2, 19282, Note_on_c, 0, 55, 0
2, 19295, Note_on_c, 0, 72, 77
2, 19327, Note_on_c, 0, 72, 0
2, 19327, Control_c, 0, 64, 0
2, 19348, Note_on_c, 0, 50, 48
2, 19355, Note_on_c, 0, 50, 0
2, 19356, Note_on_c, 0, 79, 83
2, 19365, Control_c, 0, 64, 127
2, 19388, Note_on_c, 0, 79, 0
2, 19399, Control_c, 0, 64, 0
2, 19418, Note_on_c, 0, 58, 42
2, 19418, Note_on_c, 0, 76, 78
2, 19419, Note_on_c, 0, 57, 54
2, 19420, Note_on_c, 0, 53, 22
2, 19423, Note_on_c, 0, 62, 45
2, 19453, Control_c, 0, 64, 127
2, 19476, Note_on_c, 0, 76, 0
2, 19483, Note_on_c, 0, 77, 64
2, 19509, Note_on_c, 0, 77, 0
2, 19526, Note_on_c, 0, 62, 0
2, 19531, Note_on_c, 0, 58, 0
2, 19535, Note_on_c, 0, 57, 0
2, 19561, Note_on_c, 0, 72, 63
2, 19568, Note_on_c, 0, 62, 38
2, 19570, Note_on_c, 0, 57, 24
2, 19572, Control_c, 0, 64, 0
2, 19572, Note_on_c, 0, 58, 21
2, 19586, Control_c, 0, 64, 127
2, 19590, Note_on_c, 0, 53, 0
2, 19642, Note_on_c, 0, 62, 0
2, 19645, Note_on_c, 0, 57, 0
2, 19646, Note_on_c, 0, 74, 55
2, 19647, Note_on_c, 0, 53, 41
2, 19649, Note_on_c, 0, 72, 0
2, 19657, Note_on_c, 0, 58, 0
2, 19668, Note_on_c, 0, 53, 0
2, 19674, Note_on_c, 0, 74, 0
2, 19729, Note_on_c, 0, 81, 72
2, 19729, Note_on_c, 0, 74, 70
2, 19752, Note_on_c, 0, 74, 0
2, 19760, Note_on_c, 0, 69, 49
2, 19770, Note_on_c, 0, 81, 0
2, 19773, Note_on_c, 0, 77, 36
2, 19788, Note_on_c, 0, 69, 0
2, 19798, Note_on_c, 0, 39, 47
2, 19798, Control_c, 0, 64, 0
2, 19799, Note_on_c, 0, 77, 0
2, 19808, Control_c, 0, 64, 127
2, 19851, Note_on_c, 0, 39, 0
2, 19860, Note_on_c, 0, 46, 37
2, 19964, Note_on_c, 0, 62, 36
2, 19965, Note_on_c, 0, 69, 36
2, 19965, Note_on_c, 0, 60, 39
2, 19965, Note_on_c, 0, 65, 37
2, 19982, Note_on_c, 0, 57, 9
2, 20025, Note_on_c, 0, 46, 0
2, 20059, Note_on_c, 0, 46, 32
2, 20068, Note_on_c, 0, 60, 0
2, 20086, Note_on_c, 0, 62, 0
2, 20089, Note_on_c, 0, 65, 0
2, 20109, Note_on_c, 0, 69, 0
2, 20119, Note_on_c, 0, 57, 0
2, 20159, Note_on_c, 0, 51, 47
2, 20169, Note_on_c, 0, 46, 0
2, 20185, Control_c, 0, 64, 0
2, 20186, Note_on_c, 0, 51, 0
2, 20197, Note_on_c, 0, 44, 42
2, 20203, Control_c, 0, 64, 127
2, 20204, Note_on_c, 0, 44, 0
2, 20460, Note_on_c, 0, 65, 33
2, 20462, Note_on_c, 0, 60, 30
2, 20463, Note_on_c, 0, 58, 31
2, 20464, Note_on_c, 0, 54, 26
2, 20466, Control_c, 0, 64, 0
2, 20480, Control_c, 0, 64, 127
2, 20531, Note_on_c, 0, 60, 0
2, 20532, Note_on_c, 0, 72, 37
2, 20540, Note_on_c, 0, 65, 0
2, 20543, Note_on_c, 0, 54, 0
2, 20544, Note_on_c, 0, 58, 0
2, 20544, Note_on_c, 0, 72, 0
2, 20562, Note_on_c, 0, 83, 83
2, 20592, Note_on_c, 0, 83, 0
2, 20596, Note_on_c, 0, 64, 43
2, 20597, Note_on_c, 0, 79, 53
2, 20599, Note_on_c, 0, 55, 35
2, 20600, Control_c, 0, 64, 0
2, 20601, Note_on_c, 0, 59, 31
2, 20611, Note_on_c, 0, 60, 30
2, 20663, Note_on_c, 0, 76, 41
2, 20670, Note_on_c, 0, 79, 0
2, 20674, Note_on_c, 0, 76, 0
2, 20690, Note_on_c, 0, 60, 0
2, 20694, Note_on_c, 0, 64, 0
2, 20703, Note_on_c, 0, 59, 0
2, 20729, Control_c, 0, 64, 127
2, 20756, Note_on_c, 0, 64, 41
2, 20762, Note_on_c, 0, 59, 27
2, 20763, Note_on_c, 0, 60, 35
2, 20848, Note_on_c, 0, 69, 76
2, 20864, Note_on_c, 0, 64, 0
2, 20874, Note_on_c, 0, 60, 0
2, 20874, Note_on_c, 0, 69, 0
2, 20878, Note_on_c, 0, 59, 0
2, 20886, Note_on_c, 0, 55, 0
2, 20889, Control_c, 0, 64, 0
2, 20931, Control_c, 0, 64, 127
2, 20933, Control_c, 0, 64, 0
2, 20937, Note_on_c, 0, 50, 58
2, 20982, Control_c, 0, 64, 127
2, 21030, Note_on_c, 0, 71, 72
2, 21033, Note_on_c, 0, 62, 68
2, 21033, Note_on_c, 0, 67, 69
2, 21038, Control_c, 0, 64, 0
2, 21041, Note_on_c, 0, 55, 38
2, 21066, Control_c, 0, 64, 127
2, 21134, Note_on_c, 0, 62, 0
2, 21140, Note_on_c, 0, 55, 0
2, 21142, Note_on_c, 0, 71, 0
2, 21142, Control_c, 0, 64, 0
2, 21150, Note_on_c, 0, 62, 60
2, 21152, Note_on_c, 0, 57, 53
2, 21153, Note_on_c, 0, 72, 60
2, 21156, Note_on_c, 0, 50, 0
2, 21156, Control_c, 0, 64, 127
2, 21166, Note_on_c, 0, 62, 0
2, 21178, Note_on_c, 0, 67, 0
2, 21179, Note_on_c, 0, 72, 0
2, 21205, Note_on_c, 0, 57, 0
2, 21222, Note_on_c, 0, 76, 62
2, 21224, Control_c, 0, 64, 0
2, 21225, Note_on_c, 0, 58, 49
2, 21225, Note_on_c, 0, 69, 64
2, 21226, Note_on_c, 0, 72, 60
2, 21229, Note_on_c, 0, 65, 43
2, 21236, Note_on_c, 0, 65, 0
2, 21242, Note_on_c, 0, 69, 0
2, 21242, Note_on_c, 0, 72, 0
2, 21249, Note_on_c, 0, 76, 0
2, 21262, Control_c, 0, 64, 127
2, 21298, Control_c, 0, 64, 0
2, 21302, Note_on_c, 0, 58, 0
2, 21307, Note_on_c, 0, 74, 64
2, 21308, Note_on_c, 0, 70, 62
2, 21310, Note_on_c, 0, 65, 64
2, 21333, Control_c, 0, 64, 127
2, 21385, Note_on_c, 0, 74, 0
2, 21387, Note_on_c, 0, 70, 0
2, 21391, Note_on_c, 0, 65, 0
2, 21399, Note_on_c, 0, 43, 42
2, 21428, Note_on_c, 0, 43, 0
2, 21437, Control_c, 0, 64, 0
2, 21439, Note_on_c, 0, 50, 38
2, 21443, Control_c, 0, 64, 127
2, 21504, Note_on_c, 0, 62, 40
2, 21504, Note_on_c, 0, 58, 29
2, 21505, Note_on_c, 0, 65, 51
2, 21505, Note_on_c, 0, 57, 43
2, 21506, Note_on_c, 0, 50, 0
2, 21507, Control_c, 0, 64, 0
2, 21531, Control_c, 0, 64, 127
2, 21557, Note_on_c, 0, 62, 0
2, 21558, Note_on_c, 0, 57, 0
2, 21571, Note_on_c, 0, 58, 0
2, 21583, Note_on_c, 0, 65, 0
2, 21594, Note_on_c, 0, 63, 52
2, 21594, Note_on_c, 0, 58, 40
2, 21596, Note_on_c, 0, 67, 50
2, 21597, Note_on_c, 0, 55, 24
2, 21605, Control_c, 0, 64, 0
2, 21631, Control_c, 0, 64, 127
2, 21669, Note_on_c, 0, 55, 0
2, 21676, Note_on_c, 0, 58, 0
2, 21677, Note_on_c, 0, 48, 55
2, 21686, Note_on_c, 0, 67, 0
2, 21695, Note_on_c, 0, 63, 0
2, 21764, Note_on_c, 0, 48, 0
2, 21764, Note_on_c, 0, 57, 53
2, 21780, Note_on_c, 0, 57, 0
2, 21852, Note_on_c, 0, 58, 40
2, 21853, Note_on_c, 0, 69, 64
2, 21854, Note_on_c, 0, 62, 39
2, 21856, Note_on_c, 0, 57, 36
2, 21866, Control_c, 0, 64, 0
2, 21868, Note_on_c, 0, 57, 0
2, 21880, Note_on_c, 0, 69, 0
2, 21884, Note_on_c, 0, 57, 9
2, 21895, Note_on_c, 0, 70, 40
2, 21914, Note_on_c, 0, 70, 0
2, 21924, Note_on_c, 0, 62, 0
2, 21938, Control_c, 0, 64, 127
2, 21947, Note_on_c, 0, 62, 33
2, 21947, Note_on_c, 0, 74, 57
2, 21965, Note_on_c, 0, 74, 0
2, 21966, Note_on_c, 0, 62, 0
2, 21968, Control_c, 0, 64, 0
2, 21984, Note_on_c, 0, 58, 0
2, 21990, Note_on_c, 0, 57, 0
2, 22008, Control_c, 0, 64, 127
2, 22037, Note_on_c, 0, 84, 94
2, 22063, Note_on_c, 0, 84, 0
2, 22075, Control_c, 0, 64, 0
2, 22078, Note_on_c, 0, 53, 45
2, 22081, Note_on_c, 0, 82, 56
2, 22107, Control_c, 0, 64, 127
2, 22134, Note_on_c, 0, 60, 42
2, 22153, Note_on_c, 0, 53, 0
2, 22230, Note_on_c, 0, 68, 48
2, 22231, Note_on_c, 0, 75, 56
2, 22235, Note_on_c, 0, 67, 36
2, 22282, Note_on_c, 0, 60, 0
2, 22293, Note_on_c, 0, 82, 0
2, 22315, Note_on_c, 0, 75, 0
2, 22321, Note_on_c, 0, 60, 37
2, 22341, Note_on_c, 0, 67, 0
2, 22354, Note_on_c, 0, 75, 70
2, 22360, Note_on_c, 0, 60, 0
2, 22378, Note_on_c, 0, 68, 0
2, 22397, Note_on_c, 0, 75, 0
2, 22411, Note_on_c, 0, 78, 70
2, 22412, Note_on_c, 0, 71, 79
2, 22414, Note_on_c, 0, 52, 51
2, 22416, Control_c, 0, 64, 0
2, 22454, Control_c, 0, 64, 127
2, 22496, Note_on_c, 0, 71, 0
2, 22498, Note_on_c, 0, 59, 37
2, 22548, Note_on_c, 0, 67, 29
2, 22550, Note_on_c, 0, 52, 0
2, 22559, Note_on_c, 0, 67, 0
2, 22573, Note_on_c, 0, 78, 0
2, 22598, Note_on_c, 0, 71, 57
2, 22603, Note_on_c, 0, 67, 37
2, 22605, Note_on_c, 0, 66, 33
2, 22625, Note_on_c, 0, 66, 0
2, 22638, Note_on_c, 0, 67, 0
2, 22649, Note_on_c, 0, 59, 0
2, 22662, Note_on_c, 0, 73, 37
2, 22662, Note_on_c, 0, 67, 42
2, 22696, Note_on_c, 0, 59, 24
2, 22705, Note_on_c, 0, 67, 0
2, 22706, Note_on_c, 0, 71, 0
2, 22708, Note_on_c, 0, 59, 0
2, 22713, Note_on_c, 0, 73, 0
2, 22718, Note_on_c, 0, 74, 51
2, 22766, Note_on_c, 0, 74, 0
2, 22778, Note_on_c, 0, 76, 48
2, 22783, Note_on_c, 0, 69, 43
2, 22785, Control_c, 0, 64, 0
2, 22785, Note_on_c, 0, 47, 43
2, 22789, Note_on_c, 0, 62, 24
2, 22789, Note_on_c, 0, 64, 27
2, 22815, Control_c, 0, 64, 127
2, 22832, Note_on_c, 0, 62, 0
2, 22833, Note_on_c, 0, 64, 0
2, 22847, Note_on_c, 0, 76, 0
2, 22861, Note_on_c, 0, 74, 42
2, 22864, Note_on_c, 0, 54, 32
2, 22877, Note_on_c, 0, 69, 0
2, 22887, Note_on_c, 0, 74, 0
2, 22922, Note_on_c, 0, 47, 0
2, 22946, Note_on_c, 0, 75, 50
2, 22947, Note_on_c, 0, 54, 0
2, 22951, Note_on_c, 0, 68, 37
2, 22953, Note_on_c, 0, 64, 37
2, 22955, Note_on_c, 0, 71, 33
2, 22983, Control_c, 0, 64, 0
2, 22996, Note_on_c, 0, 63, 45
2, 23013, Note_on_c, 0, 63, 0
2, 23023, Control_c, 0, 64, 127
2, 23068, Note_on_c, 0, 63, 37
2, 23106, Note_on_c, 0, 75, 0
2, 23106, Note_on_c, 0, 68, 0
2, 23108, Note_on_c, 0, 64, 0
2, 23111, Note_on_c, 0, 71, 0
2, 23122, Note_on_c, 0, 63, 0
2, 23132, Note_on_c, 0, 73, 25
2, 23133, Note_on_c, 0, 64, 50
2, 23134, Note_on_c, 0, 61, 43
2, 23134, Note_on_c, 0, 68, 39
2, 23141, Note_on_c, 0, 61, 0
2, 23201, Note_on_c, 0, 73, 0
2, 23203, Note_on_c, 0, 47, 24
2, 23205, Note_on_c, 0, 68, 0
2, 23231, Note_on_c, 0, 47, 0
2, 23258, Note_on_c, 0, 47, 36
2, 23282, Note_on_c, 0, 64, 0
2, 23315, Note_on_c, 0, 47, 0
2, 23338, Note_on_c, 0, 47, 34
2, 23391, Note_on_c, 0, 66, 51
2, 23393, Note_on_c, 0, 61, 37
2, 23396, Note_on_c, 0, 57, 40
2, 23407, Note_on_c, 0, 54, 15
2, 23427, Note_on_c, 0, 54, 0
2, 23464, Note_on_c, 0, 54, 35
2, 23479, Note_on_c, 0, 54, 0
2, 23483, Note_on_c, 0, 47, 0
2, 23489, Note_on_c, 0, 57, 0
2, 23503, Note_on_c, 0, 66, 0
2, 23505, Note_on_c, 0, 61, 0
2, 23550, Note_on_c, 0, 54, 46
2, 23552, Note_on_c, 0, 65, 39
2, 23553, Control_c, 0, 64, 0
2, 23553, Note_on_c, 0, 58, 45
2, 23554, Note_on_c, 0, 39, 47
2, 23555, Note_on_c, 0, 61, 33
2, 23575, Control_c, 0, 64, 127
2, 23585, Note_on_c, 0, 54, 0
2, 23601, Note_on_c, 0, 65, 0
2, 23601, Note_on_c, 0, 58, 0
2, 23615, Note_on_c, 0, 61, 0
2, 23629, Note_on_c, 0, 46, 51
2, 23675, Note_on_c, 0, 60, 24
2, 23682, Note_on_c, 0, 60, 0
2, 23687, Note_on_c, 0, 39, 0
2, 23689, Note_on_c, 0, 61, 38
2, 23698, Note_on_c, 0, 46, 0
2, 23703, Note_on_c, 0, 61, 0
2, 23706, Note_on_c, 0, 63, 45
2, 23713, Note_on_c, 0, 63, 0
2, 23721, Control_c, 0, 64, 0
2, 23723, Note_on_c, 0, 65, 69
2, 23736, Note_on_c, 0, 65, 0
2, 23740, Note_on_c, 0, 66, 38
2, 23756, Note_on_c, 0, 68, 44
2, 23765, Note_on_c, 0, 66, 0
2, 23766, Note_on_c, 0, 70, 56
2, 23771, Note_on_c, 0, 68, 0
2, 23776, Note_on_c, 0, 70, 0
2, 23783, Control_c, 0, 64, 127
2, 23788, Note_on_c, 0, 72, 65
2, 23802, Note_on_c, 0, 72, 0
2, 23804, Note_on_c, 0, 73, 39
2, 23822, Control_c, 0, 64, 0
2, 23823, Note_on_c, 0, 75, 57
2, 23826, Note_on_c, 0, 73, 0
2, 23837, Note_on_c, 0, 75, 0
2, 23841, Note_on_c, 0, 61, 35
2, 23845, Note_on_c, 0, 65, 24
2, 23846, Control_c, 0, 64, 127
2, 23846, Note_on_c, 0, 77, 47
2, 23848, Note_on_c, 0, 58, 23
2, 23848, Note_on_c, 0, 54, 25
2, 23862, Note_on_c, 0, 78, 50
2, 23863, Note_on_c, 0, 77, 0
2, 23887, Note_on_c, 0, 78, 0
2, 23887, Note_on_c, 0, 80, 26
2, 23889, Note_on_c, 0, 65, 0
2, 23902, Note_on_c, 0, 82, 25
2, 23903, Note_on_c, 0, 80, 0
2, 23909, Note_on_c, 0, 82, 0
2, 23911, Note_on_c, 0, 54, 0
2, 23917, Note_on_c, 0, 58, 0
2, 23919, Note_on_c, 0, 83, 43
2, 23925, Note_on_c, 0, 61, 0
2, 23928, Note_on_c, 0, 83, 0
2, 23942, Note_on_c, 0, 84, 32
2, 23955, Note_on_c, 0, 84, 0
2, 23962, Note_on_c, 0, 86, 48
2, 23966, Control_c, 0, 64, 0
2, 23977, Note_on_c, 0, 86, 0
2, 24030, Note_on_c, 0, 45, 38
2, 24038, Note_on_c, 0, 45, 0
2, 24066, Control_c, 0, 64, 127
2, 24097, Note_on_c, 0, 78, 74
2, 24097, Note_on_c, 0, 90, 58
2, 24137, Note_on_c, 0, 78, 0
2, 24139, Note_on_c, 0, 90, 0
2, 24151, Note_on_c, 0, 91, 74
2, 24154, Note_on_c, 0, 62, 55
2, 24154, Note_on_c, 0, 79, 28
2, 24158, Control_c, 0, 64, 0
2, 24159, Note_on_c, 0, 59, 24
2, 24159, Note_on_c, 0, 81, 29
2, 24159, Note_on_c, 0, 52, 36
2, 24166, Note_on_c, 0, 81, 0
2, 24179, Control_c, 0, 64, 127
2, 24198, Note_on_c, 0, 91, 0
2, 24210, Note_on_c, 0, 79, 0
2, 24229, Note_on_c, 0, 83, 71
2, 24261, Note_on_c, 0, 52, 0
2, 24266, Note_on_c, 0, 62, 0
2, 24278, Note_on_c, 0, 59, 0
2, 24280, Note_on_c, 0, 83, 0
2, 24293, Note_on_c, 0, 85, 57
2, 24313, Note_on_c, 0, 85, 0
2, 24326, Note_on_c, 0, 86, 65
2, 24344, Note_on_c, 0, 86, 0
2, 24349, Control_c, 0, 64, 0
2, 24362, Note_on_c, 0, 88, 77
2, 24370, Note_on_c, 0, 88, 0
2, 24397, Control_c, 0, 64, 127
2, 24549, Note_on_c, 0, 74, 81
2, 24552, Note_on_c, 0, 63, 77
2, 24553, Note_on_c, 0, 67, 82
2, 24559, Note_on_c, 0, 70, 33
2, 24560, Control_c, 0, 64, 0
2, 24568, Note_on_c, 0, 70, 0
2, 24615, Note_on_c, 0, 62, 82
2, 24640, Control_c, 0, 64, 127
2, 24686, Note_on_c, 0, 74, 0
2, 24690, Note_on_c, 0, 62, 0
2, 24695, Note_on_c, 0, 72, 66
2, 24700, Note_on_c, 0, 60, 60
2, 24723, Note_on_c, 0, 67, 0
2, 24768, Note_on_c, 0, 60, 0
2, 24774, Note_on_c, 0, 72, 0
2, 24781, Note_on_c, 0, 63, 0
2, 24799, Note_on_c, 0, 70, 69
2, 24827, Note_on_c, 0, 70, 0
2, 24830, Note_on_c, 0, 63, 51
2, 24846, Note_on_c, 0, 63, 0
2, 24873, Control_c, 0, 64, 0
2, 24873, Note_on_c, 0, 70, 52
2, 24874, Note_on_c, 0, 66, 60
2, 24876, Note_on_c, 0, 63, 54
2, 24882, Note_on_c, 0, 58, 19
2, 24894, Note_on_c, 0, 63, 0
2, 24906, Note_on_c, 0, 66, 0
2, 24917, Note_on_c, 0, 58, 0
2, 24917, Control_c, 0, 64, 127
2, 24928, Note_on_c, 0, 70, 0
2, 24946, Note_on_c, 0, 68, 49
2, 24947, Note_on_c, 0, 61, 48
2, 24948, Note_on_c, 0, 58, 54
2, 24949, Control_c, 0, 64, 0
2, 24958, Note_on_c, 0, 64, 27
2, 24968, Note_on_c, 0, 58, 0
2, 24973, Control_c, 0, 64, 127
2, 24976, Note_on_c, 0, 68, 0
2, 24983, Note_on_c, 0, 64, 0
2, 24985, Note_on_c, 0, 61, 0
2, 25033, Note_on_c, 0, 61, 49
2, 25035, Note_on_c, 0, 57, 41
2, 25037, Note_on_c, 0, 64, 52
2, 25039, Control_c, 0, 64, 0
2, 25065, Control_c, 0, 64, 127
2, 25071, Note_on_c, 0, 66, 13
2, 25089, Note_on_c, 0, 57, 0
2, 25106, Note_on_c, 0, 61, 0
2, 25107, Note_on_c, 0, 64, 0
2, 25108, Note_on_c, 0, 66, 0
2, 25130, Note_on_c, 0, 62, 50
2, 25131, Note_on_c, 0, 66, 39
2, 25132, Note_on_c, 0, 47, 47
2, 25135, Control_c, 0, 64, 0
2, 25136, Note_on_c, 0, 57, 33
2, 25153, Note_on_c, 0, 57, 0
2, 25157, Control_c, 0, 64, 127
2, 25176, Note_on_c, 0, 62, 0
2, 25189, Note_on_c, 0, 66, 0
2, 25219, Note_on_c, 0, 54, 53
2, 25221, Note_on_c, 0, 47, 0
2, 25235, Note_on_c, 0, 54, 0
2, 25366, Note_on_c, 0, 80, 87
2, 25367, Note_on_c, 0, 66, 62
2, 25368, Note_on_c, 0, 61, 57
2, 25370, Note_on_c, 0, 62, 52
2, 25371, Note_on_c, 0, 81, 74
2, 25372, Control_c, 0, 64, 0
2, 25386, Control_c, 0, 64, 127
2, 25399, Note_on_c, 0, 81, 0
2, 25415, Note_on_c, 0, 80, 0
2, 25441, Note_on_c, 0, 76, 76
2, 25463, Note_on_c, 0, 66, 0
2, 25468, Note_on_c, 0, 62, 0
2, 25484, Note_on_c, 0, 61, 0
2, 25490, Note_on_c, 0, 76, 0
2, 25501, Note_on_c, 0, 73, 53
2, 25540, Note_on_c, 0, 73, 0
2, 25542, Note_on_c, 0, 69, 29
2, 25553, Note_on_c, 0, 69, 0
2, 25573, Note_on_c, 0, 69, 59
2, 25575, Note_on_c, 0, 57, 49
2, 25578, Note_on_c, 0, 62, 35
2, 25578, Note_on_c, 0, 58, 46
2, 25580, Note_on_c, 0, 53, 24
2, 25580, Control_c, 0, 64, 0
2, 25630, Note_on_c, 0, 81, 64
2, 25647, Control_c, 0, 64, 127
2, 25660, Note_on_c, 0, 81, 0
2, 25662, Note_on_c, 0, 69, 0
2, 25666, Note_on_c, 0, 58, 0
2, 25666, Note_on_c, 0, 62, 0
2, 25684, Note_on_c, 0, 57, 0
2, 25729, Note_on_c, 0, 74, 63
2, 25731, Note_on_c, 0, 57, 40
2, 25734, Note_on_c, 0, 62, 32
2, 25735, Note_on_c, 0, 58, 39
2, 25752, Note_on_c, 0, 74, 0
2, 25764, Note_on_c, 0, 69, 37
2, 25767, Control_c, 0, 64, 0
2, 25788, Note_on_c, 0, 69, 0
2, 25796, Note_on_c, 0, 62, 0
2, 25799, Note_on_c, 0, 76, 70
2, 25800, Note_on_c, 0, 58, 0
2, 25827, Control_c, 0, 64, 127
2, 25837, Note_on_c, 0, 76, 0
2, 25857, Control_c, 0, 64, 0
2, 25862, Note_on_c, 0, 72, 68
2, 25867, Note_on_c, 0, 58, 33
2, 25867, Note_on_c, 0, 62, 30
2, 25876, Note_on_c, 0, 62, 0
2, 25882, Note_on_c, 0, 72, 0
2, 25893, Note_on_c, 0, 57, 0
2, 25894, Note_on_c, 0, 58, 0
2, 25897, Control_c, 0, 64, 127
2, 25902, Note_on_c, 0, 69, 55
2, 25906, Note_on_c, 0, 53, 0
2, 25922, Note_on_c, 0, 69, 0
2, 25940, Note_on_c, 0, 65, 43
2, 25953, Note_on_c, 0, 65, 0
2, 25977, Note_on_c, 0, 62, 38
2, 25981, Note_on_c, 0, 46, 46
2, 25984, Control_c, 0, 64, 0
2, 25987, Note_on_c, 0, 39, 38
2, 26028, Control_c, 0, 64, 127
2, 26074, Note_on_c, 0, 62, 0
2, 26087, Note_on_c, 0, 39, 0
2, 26118, Note_on_c, 0, 57, 55
2, 26142, Note_on_c, 0, 57, 0
2, 26154, Note_on_c, 0, 58, 57
2, 26180, Note_on_c, 0, 58, 0
2, 26188, Note_on_c, 0, 57, 61
2, 26200, Control_c, 0, 64, 0
2, 26226, Control_c, 0, 64, 127
2, 26237, Note_on_c, 0, 46, 0
2, 26265, Note_on_c, 0, 55, 43
2, 26272, Note_on_c, 0, 55, 0
2, 26278, Control_c, 0, 64, 0
2, 26302, Control_c, 0, 64, 127
2, 26336, Note_on_c, 0, 57, 0
2, 26337, Note_on_c, 0, 58, 61
2, 26343, Note_on_c, 0, 51, 38
2, 26362, Note_on_c, 0, 58, 0
2, 26375, Note_on_c, 0, 51, 0
2, 26379, Note_on_c, 0, 49, 34
2, 26398, Note_on_c, 0, 49, 0
2, 26405, Control_c, 0, 64, 0
2, 26409, Note_on_c, 0, 60, 48
2, 26413, Note_on_c, 0, 50, 37
2, 26413, Note_on_c, 0, 57, 39
2, 26417, Note_on_c, 0, 53, 17
2, 26435, Control_c, 0, 64, 127
2, 26453, Note_on_c, 0, 53, 0
2, 26465, Note_on_c, 0, 57, 0
2, 26469, Note_on_c, 0, 38, 58
2, 26475, Note_on_c, 0, 60, 0
2, 26481, Note_on_c, 0, 38, 0
2, 26493, Note_on_c, 0, 50, 0
2, 26562, Note_on_c, 0, 50, 53
2, 26566, Note_on_c, 0, 67, 59
2, 26580, Note_on_c, 0, 67, 0
2, 26604, Note_on_c, 0, 72, 71
2, 26604, Note_on_c, 0, 67, 59
2, 26606, Note_on_c, 0, 64, 66
2, 26608, Note_on_c, 0, 60, 56
2, 26609, Control_c, 0, 64, 0
2, 26614, Note_on_c, 0, 57, 34
2, 26633, Control_c, 0, 64, 127
2, 26648, Note_on_c, 0, 72, 0
2, 26655, Note_on_c, 0, 50, 0
2, 26680, Note_on_c, 0, 71, 61
2, 26685, Note_on_c, 0, 50, 59
2, 26722, Note_on_c, 0, 67, 0
2, 26728, Note_on_c, 0, 57, 0
2, 26729, Note_on_c, 0, 60, 0
2, 26730, Note_on_c, 0, 64, 0
2, 26749, Note_on_c, 0, 50, 0
2, 26789, Note_on_c, 0, 71, 0
2, 26795, Note_on_c, 0, 55, 28
2, 26803, Note_on_c, 0, 55, 0
2, 26818, Note_on_c, 0, 69, 57
2, 26824, Note_on_c, 0, 67, 58
2, 26826, Control_c, 0, 64, 0
2, 26834, Note_on_c, 0, 63, 42
2, 26840, Note_on_c, 0, 62, 51
2, 26889, Note_on_c, 0, 60, 66
2, 26934, Control_c, 0, 64, 127
2, 27088, Note_on_c, 0, 55, 42
2, 27134, Note_on_c, 0, 62, 0
2, 27193, Note_on_c, 0, 63, 0
2, 27273, Note_on_c, 0, 63, 45
2, 27279, Note_on_c, 0, 48, 37
2, 27284, Note_on_c, 0, 62, 22
2, 27287, Control_c, 0, 64, 0
2, 27299, Control_c, 0, 64, 127
2, 27310, Note_on_c, 0, 55, 0
2, 27313, Note_on_c, 0, 67, 0
2, 27316, Note_on_c, 0, 63, 0
2, 27321, Note_on_c, 0, 69, 0
2, 27342, Note_on_c, 0, 62, 0
2, 27376, Note_on_c, 0, 67, 31
2, 27377, Note_on_c, 0, 60, 0
2, 27377, Note_on_c, 0, 55, 32
2, 27391, Note_on_c, 0, 67, 0
2, 27412, Control_c, 0, 64, 0
2, 27416, Note_on_c, 0, 74, 70
2, 27418, Note_on_c, 0, 67, 54
2, 27421, Note_on_c, 0, 63, 45
2, 27422, Note_on_c, 0, 60, 54
2, 27426, Control_c, 0, 64, 127
2, 27498, Note_on_c, 0, 60, 0
2, 27511, Note_on_c, 0, 48, 0
2, 27528, Note_on_c, 0, 74, 0
2, 27529, Note_on_c, 0, 55, 0
2, 27533, Note_on_c, 0, 63, 0
2, 27537, Note_on_c, 0, 67, 0
2, 27567, Note_on_c, 0, 72, 55
2, 27575, Note_on_c, 0, 72, 0
2, 27639, Note_on_c, 0, 66, 49
2, 27639, Note_on_c, 0, 62, 57
2, 27641, Note_on_c, 0, 61, 49
2, 27642, Note_on_c, 0, 57, 45
2, 27650, Note_on_c, 0, 57, 0
2, 27664, Control_c, 0, 64, 0
2, 27672, Note_on_c, 0, 62, 0
2, 27680, Note_on_c, 0, 57, 36
2, 27682, Note_on_c, 0, 66, 0
2, 27684, Control_c, 0, 64, 127
2, 27698, Note_on_c, 0, 57, 0
2, 27705, Note_on_c, 0, 62, 26
2, 27709, Note_on_c, 0, 66, 3
2, 27723, Note_on_c, 0, 61, 0
2, 27724, Note_on_c, 0, 62, 0
2, 27725, Note_on_c, 0, 66, 0
2, 27728, Note_on_c, 0, 57, 27
2, 27744, Note_on_c, 0, 57, 0
2, 27747, Note_on_c, 0, 61, 36
2, 27747, Note_on_c, 0, 62, 33
2, 27769, Note_on_c, 0, 61, 0
2, 27771, Note_on_c, 0, 62, 0
2, 27773, Note_on_c, 0, 57, 25
2, 27791, Note_on_c, 0, 57, 0
2, 27793, Note_on_c, 0, 61, 33
2, 27794, Note_on_c, 0, 62, 35
2, 27819, Note_on_c, 0, 62, 0
2, 27820, Note_on_c, 0, 61, 0
2, 27821, Note_on_c, 0, 57, 51
2, 27832, Note_on_c, 0, 66, 21
2, 27835, Note_on_c, 0, 61, 27
2, 27838, Note_on_c, 0, 54, 83
2, 27839, Note_on_c, 0, 57, 0
2, 27839, Note_on_c, 0, 62, 54
2, 27849, Control_c, 0, 64, 0
2, 27857, Note_on_c, 0, 62, 0
2, 27857, Note_on_c, 0, 66, 0
2, 27860, Note_on_c, 0, 61, 0
2, 27860, Note_on_c, 0, 57, 44
2, 27875, Note_on_c, 0, 66, 23
2, 27877, Note_on_c, 0, 57, 0
2, 27877, Note_on_c, 0, 61, 31
2, 27880, Note_on_c, 0, 62, 45
2, 27881, Control_c, 0, 64, 127
2, 27892, Note_on_c, 0, 62, 0
2, 27896, Note_on_c, 0, 66, 0
2, 27898, Note_on_c, 0, 61, 0
2, 27899, Note_on_c, 0, 57, 36
2, 27916, Note_on_c, 0, 57, 0
2, 27916, Note_on_c, 0, 66, 14
2, 27918, Note_on_c, 0, 61, 35
2, 27919, Note_on_c, 0, 62, 37
2, 27937, Note_on_c, 0, 61, 0
2, 27939, Note_on_c, 0, 62, 0
2, 27939, Note_on_c, 0, 57, 32
2, 27958, Note_on_c, 0, 57, 0
2, 27962, Note_on_c, 0, 62, 44
2, 27963, Note_on_c, 0, 61, 36
2, 27983, Note_on_c, 0, 66, 0
2, 27988, Note_on_c, 0, 57, 32
2, 27993, Note_on_c, 0, 62, 0
2, 28003, Note_on_c, 0, 66, 34
2, 28004, Note_on_c, 0, 57, 0
2, 28023, Note_on_c, 0, 61, 0
2, 28032, Note_on_c, 0, 59, 66
2, 28039, Note_on_c, 0, 64, 51
2, 28041, Control_c, 0, 64, 0
2, 28050, Note_on_c, 0, 60, 10
2, 28051, Note_on_c, 0, 59, 0
2, 28064, Note_on_c, 0, 66, 0
2, 28070, Note_on_c, 0, 59, 47
2, 28072, Note_on_c, 0, 64, 0
2, 28080, Note_on_c, 0, 66, 9
2, 28082, Control_c, 0, 64, 127
2, 28084, Note_on_c, 0, 64, 26
2, 28088, Note_on_c, 0, 59, 0
2, 28110, Note_on_c, 0, 59, 36
2, 28112, Note_on_c, 0, 64, 0
2, 28116, Note_on_c, 0, 60, 0
2, 28129, Note_on_c, 0, 59, 0
2, 28133, Note_on_c, 0, 60, 20
2, 28133, Note_on_c, 0, 64, 47
2, 28148, Note_on_c, 0, 66, 0
2, 28155, Note_on_c, 0, 64, 0
2, 28156, Note_on_c, 0, 59, 42
2, 28163, Note_on_c, 0, 60, 0
2, 28171, Note_on_c, 0, 66, 25
2, 28172, Note_on_c, 0, 59, 0
2, 28176, Note_on_c, 0, 54, 0
2, 28177, Note_on_c, 0, 64, 42
2, 28177, Note_on_c, 0, 60, 15
2, 28191, Note_on_c, 0, 66, 0
2, 28195, Note_on_c, 0, 59, 54
2, 28199, Note_on_c, 0, 64, 0
2, 28201, Note_on_c, 0, 60, 0
2, 28207, Note_on_c, 0, 55, 108
2, 28210, Note_on_c, 0, 66, 25
2, 28215, Note_on_c, 0, 59, 0
2, 28215, Note_on_c, 0, 60, 20
2, 28215, Note_on_c, 0, 64, 38
2, 28226, Control_c, 0, 64, 0
2, 28233, Note_on_c, 0, 66, 0
2, 28234, Note_on_c, 0, 59, 50
2, 28237, Note_on_c, 0, 60, 0
2, 28239, Note_on_c, 0, 64, 0
2, 28253, Note_on_c, 0, 66, 20
2, 28254, Note_on_c, 0, 59, 0
2, 28259, Note_on_c, 0, 64, 39
2, 28259, Note_on_c, 0, 60, 24
2, 28260, Control_c, 0, 64, 127
2, 28273, Note_on_c, 0, 66, 0
2, 28273, Note_on_c, 0, 59, 41
2, 28276, Note_on_c, 0, 60, 0
2, 28276, Note_on_c, 0, 64, 0
2, 28285, Note_on_c, 0, 66, 13
2, 28293, Note_on_c, 0, 59, 0
2, 28295, Note_on_c, 0, 64, 36
2, 28298, Note_on_c, 0, 60, 14
2, 28313, Note_on_c, 0, 66, 0
2, 28316, Note_on_c, 0, 59, 47
2, 28319, Note_on_c, 0, 64, 0
2, 28322, Note_on_c, 0, 60, 0
2, 28333, Note_on_c, 0, 66, 25
2, 28338, Note_on_c, 0, 59, 0
2, 28343, Note_on_c, 0, 60, 15
2, 28344, Note_on_c, 0, 64, 28
2, 28357, Note_on_c, 0, 60, 0
2, 28369, Note_on_c, 0, 59, 32
2, 28389, Note_on_c, 0, 66, 0
2, 28390, Note_on_c, 0, 55, 0
2, 28391, Note_on_c, 0, 59, 0
2, 28402, Note_on_c, 0, 64, 0
2, 28422, Note_on_c, 0, 65, 51
2, 28423, Control_c, 0, 64, 0
2, 28426, Note_on_c, 0, 53, 77
2, 28427, Note_on_c, 0, 59, 24
2, 28427, Note_on_c, 0, 60, 32
2, 28451, Control_c, 0, 64, 127
2, 28471, Note_on_c, 0, 60, 0
2, 28504, Note_on_c, 0, 65, 0
2, 28519, Note_on_c, 0, 59, 0
2, 28557, Note_on_c, 0, 53, 0
2, 28575, Note_on_c, 0, 71, 54
2, 28577, Note_on_c, 0, 67, 46
2, 28577, Note_on_c, 0, 64, 57
2, 28581, Note_on_c, 0, 59, 24
2, 28587, Control_c, 0, 64, 0
2, 28593, Control_c, 0, 64, 127
2, 28603, Note_on_c, 0, 59, 0
2, 28623, Note_on_c, 0, 64, 0
2, 28623, Note_on_c, 0, 67, 0
2, 28638, Note_on_c, 0, 71, 0
2, 28643, Note_on_c, 0, 60, 60
2, 28712, Note_on_c, 0, 64, 46
2, 28772, Note_on_c, 0, 60, 0
2, 28780, Note_on_c, 0, 86, 78
2, 28805, Note_on_c, 0, 64, 0
2, 28813, Note_on_c, 0, 86, 0
2, 28834, Note_on_c, 0, 85, 61
2, 28839, Note_on_c, 0, 52, 46
2, 28842, Control_c, 0, 64, 0
2, 28876, Note_on_c, 0, 85, 0
2, 28896, Note_on_c, 0, 78, 42
2, 28897, Note_on_c, 0, 59, 31
2, 28915, Note_on_c, 0, 78, 0
2, 28973, Note_on_c, 0, 83, 62
2, 28975, Note_on_c, 0, 64, 33
2, 29003, Note_on_c, 0, 83, 0
2, 29040, Note_on_c, 0, 81, 51
2, 29060, Control_c, 0, 64, 127
2, 29061, Note_on_c, 0, 64, 0
2, 29069, Note_on_c, 0, 81, 0
2, 29070, Note_on_c, 0, 59, 0
2, 29081, Note_on_c, 0, 76, 53
2, 29082, Note_on_c, 0, 52, 0
2, 29102, Note_on_c, 0, 76, 0
2, 29104, Control_c, 0, 64, 0
2, 29112, Note_on_c, 0, 72, 46
2, 29116, Control_c, 0, 64, 127
2, 29137, Note_on_c, 0, 72, 0
2, 29149, Note_on_c, 0, 71, 43
2, 29185, Control_c, 0, 64, 0
2, 29200, Note_on_c, 0, 45, 44
2, 29203, Control_c, 0, 64, 127
2, 29203, Note_on_c, 0, 52, 35
2, 29218, Note_on_c, 0, 45, 0
2, 29225, Note_on_c, 0, 52, 0
2, 29336, Note_on_c, 0, 71, 0
2, 29366, Note_on_c, 0, 64, 50
2, 29368, Note_on_c, 0, 59, 40
2, 29369, Note_on_c, 0, 55, 37
2, 29371, Note_on_c, 0, 60, 39
2, 29382, Note_on_c, 0, 60, 0
2, 29384, Note_on_c, 0, 64, 0
2, 29385, Note_on_c, 0, 59, 0
2, 29387, Control_c, 0, 64, 0
2, 29390, Note_on_c, 0, 55, 0
2, 29440, Note_on_c, 0, 50, 56
2, 29457, Control_c, 0, 64, 127
2, 29471, Note_on_c, 0, 50, 0
2, 29504, Note_on_c, 0, 72, 62
2, 29524, Note_on_c, 0, 72, 0
2, 29540, Note_on_c, 0, 81, 73
2, 29573, Note_on_c, 0, 76, 60
2, 29576, Note_on_c, 0, 62, 42
2, 29578, Note_on_c, 0, 81, 0
2, 29579, Note_on_c, 0, 58, 39
2, 29579, Note_on_c, 0, 57, 42
2, 29580, Control_c, 0, 64, 0
2, 29581, Note_on_c, 0, 53, 26
2, 29658, Control_c, 0, 64, 127
2, 29660, Control_c, 0, 64, 0
2, 29666, Note_on_c, 0, 76, 0
2, 29681, Note_on_c, 0, 77, 49
2, 29690, Note_on_c, 0, 62, 0
2, 29690, Note_on_c, 0, 58, 0
2, 29704, Note_on_c, 0, 77, 0
2, 29718, Control_c, 0, 64, 127
2, 29718, Note_on_c, 0, 74, 61
2, 29730, Note_on_c, 0, 74, 0
2, 29738, Control_c, 0, 64, 0
2, 29758, Note_on_c, 0, 58, 38
2, 29758, Note_on_c, 0, 62, 44
2, 29780, Control_c, 0, 64, 127
2, 29832, Note_on_c, 0, 72, 35
2, 29836, Note_on_c, 0, 62, 0
2, 29844, Note_on_c, 0, 57, 0
2, 29847, Note_on_c, 0, 58, 0
2, 29849, Note_on_c, 0, 72, 0
2, 29855, Note_on_c, 0, 53, 0
2, 29864, Note_on_c, 0, 74, 53
2, 29881, Note_on_c, 0, 74, 0
2, 29897, Note_on_c, 0, 76, 61
2, 29913, Note_on_c, 0, 76, 0
2, 29930, Note_on_c, 0, 79, 85
2, 29948, Note_on_c, 0, 79, 0
2, 29965, Note_on_c, 0, 81, 91
2, 29969, Note_on_c, 0, 39, 59
2, 29972, Note_on_c, 0, 74, 53
2, 29973, Control_c, 0, 64, 0
2, 29980, Note_on_c, 0, 74, 0
2, 30012, Note_on_c, 0, 77, 64
2, 30014, Note_on_c, 0, 69, 66
2, 30019, Note_on_c, 0, 46, 64
2, 30023, Control_c, 0, 64, 127
2, 30029, Note_on_c, 0, 39, 0
2, 30070, Note_on_c, 0, 46, 0
2, 30082, Note_on_c, 0, 57, 44
2, 30124, Note_on_c, 0, 69, 0
2, 30142, Note_on_c, 0, 57, 0
2, 30142, Note_on_c, 0, 58, 52
2, 30213, Note_on_c, 0, 77, 0
2, 30216, Note_on_c, 0, 81, 0
2, 30228, Note_on_c, 0, 69, 55
2, 30229, Note_on_c, 0, 62, 35
2, 30236, Note_on_c, 0, 69, 0
2, 30238, Note_on_c, 0, 62, 0
2, 30254, Note_on_c, 0, 58, 0
2, 30265, Note_on_c, 0, 74, 36
2, 30277, Note_on_c, 0, 74, 0
2, 30295, Note_on_c, 0, 77, 43
2, 30313, Note_on_c, 0, 77, 0
2, 30325, Note_on_c, 0, 81, 65
2, 30339, Note_on_c, 0, 81, 0
2, 30346, Control_c, 0, 64, 0
2, 30351, Note_on_c, 0, 44, 67
2, 30358, Note_on_c, 0, 86, 83
2, 30368, Control_c, 0, 64, 127
2, 30370, Note_on_c, 0, 44, 0
2, 30427, Note_on_c, 0, 65, 60
2, 30428, Note_on_c, 0, 82, 48
2, 30429, Note_on_c, 0, 77, 34
2, 30431, Note_on_c, 0, 58, 33
2, 30433, Note_on_c, 0, 60, 32
2, 30434, Note_on_c, 0, 54, 20
2, 30478, Note_on_c, 0, 82, 0
2, 30480, Note_on_c, 0, 86, 0
2, 30516, Note_on_c, 0, 89, 69
2, 30537, Note_on_c, 0, 65, 0
2, 30543, Note_on_c, 0, 77, 0
2, 30543, Note_on_c, 0, 54, 0
2, 30551, Note_on_c, 0, 58, 0
2, 30553, Note_on_c, 0, 60, 0
2, 30569, Note_on_c, 0, 89, 0
2, 30615, Note_on_c, 0, 65, 62
2, 30617, Note_on_c, 0, 60, 53
2, 30618, Note_on_c, 0, 54, 30
2, 30620, Note_on_c, 0, 58, 30
2, 30621, Note_on_c, 0, 65, 0
2, 30631, Note_on_c, 0, 60, 0
2, 30641, Note_on_c, 0, 54, 0
2, 30641, Note_on_c, 0, 58, 0
2, 30643, Control_c, 0, 64, 0
2, 30651, Note_on_c, 0, 93, 29
2, 30666, Note_on_c, 0, 94, 36
2, 30674, Note_on_c, 0, 93, 0
2, 30684, Note_on_c, 0, 94, 0
2, 30688, Note_on_c, 0, 95, 54
2, 30703, Note_on_c, 0, 95, 0
2, 30707, Control_c, 0, 64, 127
2, 30714, Note_on_c, 0, 98, 84
2, 30732, Note_on_c, 0, 45, 43
2, 30734, Note_on_c, 0, 52, 44
2, 30739, Note_on_c, 0, 45, 0
2, 30744, Note_on_c, 0, 98, 0
2, 30746, Note_on_c, 0, 52, 0
2, 30760, Note_on_c, 0, 95, 54
2, 30793, Note_on_c, 0, 95, 0
2, 30808, Note_on_c, 0, 61, 26
2, 30811, Note_on_c, 0, 92, 59
2, 30816, Note_on_c, 0, 64, 52
2, 30822, Note_on_c, 0, 59, 37
2, 30824, Note_on_c, 0, 61, 0
2, 30824, Note_on_c, 0, 60, 41
2, 30825, Note_on_c, 0, 55, 34
2, 30827, Control_c, 0, 64, 0
2, 30869, Control_c, 0, 64, 127
2, 30890, Note_on_c, 0, 92, 0
2, 30900, Note_on_c, 0, 64, 0
2, 30905, Note_on_c, 0, 95, 78
2, 30907, Note_on_c, 0, 60, 0
2, 30912, Note_on_c, 0, 59, 0
2, 30915, Note_on_c, 0, 55, 0
2, 30929, Note_on_c, 0, 95, 0
2, 30947, Note_on_c, 0, 93, 68
2, 30950, Note_on_c, 0, 95, 28
2, 30972, Note_on_c, 0, 93, 0
2, 30975, Note_on_c, 0, 95, 0
2, 30995, Note_on_c, 0, 45, 59
2, 30996, Note_on_c, 0, 52, 58
2, 31000, Note_on_c, 0, 88, 38
2, 31001, Note_on_c, 0, 89, 33
2, 31010, Note_on_c, 0, 89, 0
2, 31012, Control_c, 0, 64, 0
2, 31019, Note_on_c, 0, 88, 0
2, 31028, Note_on_c, 0, 45, 0
2, 31035, Note_on_c, 0, 52, 0
2, 31043, Note_on_c, 0, 84, 36
2, 31062, Control_c, 0, 64, 127
2, 31072, Note_on_c, 0, 84, 0
2, 31093, Note_on_c, 0, 91, 77
2, 31094, Note_on_c, 0, 60, 61
2, 31095, Note_on_c, 0, 57, 42
2, 31095, Note_on_c, 0, 50, 33
2, 31097, Note_on_c, 0, 53, 39
2, 31100, Control_c, 0, 64, 0
2, 31116, Note_on_c, 0, 91, 0
2, 31139, Note_on_c, 0, 60, 0
2, 31141, Note_on_c, 0, 89, 65
2, 31154, Note_on_c, 0, 57, 0
2, 31158, Note_on_c, 0, 89, 0
2, 31191, Note_on_c, 0, 85, 73
2, 31191, Note_on_c, 0, 57, 38
2, 31214, Note_on_c, 0, 85, 0
2, 31218, Note_on_c, 0, 57, 0
2, 31234, Note_on_c, 0, 81, 33
2, 31258, Note_on_c, 0, 81, 0
2, 31285, Note_on_c, 0, 88, 84
2, 31288, Note_on_c, 0, 53, 0
2, 31291, Note_on_c, 0, 60, 40
2, 31292, Note_on_c, 0, 57, 30
2, 31298, Note_on_c, 0, 60, 0
2, 31298, Note_on_c, 0, 50, 0
2, 31300, Note_on_c, 0, 57, 0
2, 31304, Note_on_c, 0, 88, 0
2, 31329, Note_on_c, 0, 86, 44
2, 31345, Control_c, 0, 64, 127
2, 31352, Note_on_c, 0, 86, 0
2, 31377, Control_c, 0, 64, 0
2, 31378, Note_on_c, 0, 81, 68
2, 31382, Note_on_c, 0, 64, 49
2, 31383, Note_on_c, 0, 53, 26
2, 31385, Note_on_c, 0, 57, 41
2, 31387, Note_on_c, 0, 60, 33
2, 31390, Note_on_c, 0, 64, 0
2, 31395, Note_on_c, 0, 60, 0
2, 31403, Note_on_c, 0, 81, 0
2, 31403, Note_on_c, 0, 57, 0
2, 31411, Note_on_c, 0, 53, 0
2, 31425, Control_c, 0, 64, 127
2, 31425, Note_on_c, 0, 77, 33
2, 31457, Note_on_c, 0, 77, 0
2, 31476, Note_on_c, 0, 43, 52
2, 31476, Note_on_c, 0, 86, 74
2, 31477, Note_on_c, 0, 50, 57
2, 31483, Note_on_c, 0, 43, 0
2, 31487, Control_c, 0, 64, 0
2, 31495, Note_on_c, 0, 50, 0
2, 31495, Note_on_c, 0, 86, 0
2, 31523, Note_on_c, 0, 84, 54
2, 31540, Note_on_c, 0, 84, 0
2, 31557, Control_c, 0, 64, 127
2, 31563, Control_c, 0, 64, 0
2, 31571, Note_on_c, 0, 81, 68
2, 31572, Note_on_c, 0, 57, 46
2, 31573, Note_on_c, 0, 58, 33
2, 31575, Note_on_c, 0, 62, 40
2, 31576, Note_on_c, 0, 53, 29
2, 31588, Note_on_c, 0, 62, 0
2, 31590, Note_on_c, 0, 57, 0
2, 31592, Note_on_c, 0, 81, 0
2, 31593, Note_on_c, 0, 58, 0
2, 31602, Note_on_c, 0, 53, 0
2, 31611, Note_on_c, 0, 77, 46
2, 31651, Note_on_c, 0, 77, 0
2, 31666, Note_on_c, 0, 74, 74
2, 31668, Note_on_c, 0, 50, 66
2, 31668, Note_on_c, 0, 43, 48
2, 31676, Note_on_c, 0, 43, 0
2, 31686, Note_on_c, 0, 50, 0
2, 31688, Note_on_c, 0, 74, 0
2, 31705, Note_on_c, 0, 70, 37
2, 31728, Control_c, 0, 64, 127
2, 31762, Note_on_c, 0, 69, 24
2, 31769, Note_on_c, 0, 69, 0
2, 31769, Note_on_c, 0, 70, 0
2, 31778, Control_c, 0, 64, 0
2, 31781, Note_on_c, 0, 58, 46
2, 31784, Note_on_c, 0, 53, 28
2, 31785, Note_on_c, 0, 62, 22
2, 31790, Note_on_c, 0, 74, 85
2, 31791, Note_on_c, 0, 62, 0
2, 31796, Note_on_c, 0, 58, 0
2, 31803, Note_on_c, 0, 53, 0
2, 31834, Note_on_c, 0, 74, 0
2, 31834, Control_c, 0, 64, 127
2, 31849, Note_on_c, 0, 72, 75
2, 31854, Note_on_c, 0, 55, 50
2, 31872, Note_on_c, 0, 72, 0
2, 31876, Control_c, 0, 64, 0
2, 31884, Note_on_c, 0, 70, 69
2, 31898, Note_on_c, 0, 55, 0
2, 31898, Note_on_c, 0, 48, 34
2, 31919, Note_on_c, 0, 70, 0
2, 31935, Note_on_c, 0, 58, 1
2, 31941, Note_on_c, 0, 72, 33
2, 31941, Note_on_c, 0, 70, 48
2, 31956, Note_on_c, 0, 72, 0
2, 31956, Note_on_c, 0, 58, 0
2, 31971, Note_on_c, 0, 69, 54
2, 31974, Note_on_c, 0, 70, 0
2, 31999, Control_c, 0, 64, 127
2, 32010, Note_on_c, 0, 69, 0
2, 32030, Note_on_c, 0, 67, 71
2, 32034, Note_on_c, 0, 58, 52
2, 32047, Control_c, 0, 64, 0
2, 32058, Note_on_c, 0, 58, 0
2, 32073, Note_on_c, 0, 67, 0
2, 32081, Control_c, 0, 64, 127
2, 32084, Note_on_c, 0, 55, 1
2, 32086, Note_on_c, 0, 63, 39
2, 32116, Note_on_c, 0, 63, 0
2, 32135, Note_on_c, 0, 62, 42
2, 32138, Note_on_c, 0, 58, 30
2, 32153, Note_on_c, 0, 62, 0
2, 32157, Note_on_c, 0, 55, 0
2, 32157, Control_c, 0, 64, 0
2, 32158, Note_on_c, 0, 58, 0
2, 32171, Note_on_c, 0, 65, 80
2, 32181, Note_on_c, 0, 48, 0
2, 32191, Control_c, 0, 64, 127
2, 32221, Note_on_c, 0, 65, 0
2, 32228, Note_on_c, 0, 63, 59
2, 32258, Note_on_c, 0, 63, 0
2, 32286, Note_on_c, 0, 58, 59
2, 32299, Control_c, 0, 64, 0
2, 32338, Note_on_c, 0, 41, 52
2, 32350, Control_c, 0, 64, 127
2, 32363, Note_on_c, 0, 58, 0
2, 32413, Note_on_c, 0, 55, 46
2, 32413, Note_on_c, 0, 56, 62
2, 32414, Note_on_c, 0, 70, 42
2, 32414, Note_on_c, 0, 63, 55
2, 32426, Control_c, 0, 64, 0
2, 32470, Control_c, 0, 64, 127
2, 32477, Note_on_c, 0, 55, 0
2, 32505, Note_on_c, 0, 53, 75
2, 32508, Control_c, 0, 64, 0
2, 32532, Control_c, 0, 64, 127
2, 32546, Note_on_c, 0, 63, 0
2, 32557, Note_on_c, 0, 56, 0
2, 32572, Note_on_c, 0, 70, 0
2, 32573, Note_on_c, 0, 63, 48
2, 32587, Note_on_c, 0, 53, 0
2, 32593, Note_on_c, 0, 41, 0
2, 32602, Note_on_c, 0, 63, 0
2, 32602, Note_on_c, 0, 56, 56
2, 32604, Note_on_c, 0, 48, 36
2, 32611, Note_on_c, 0, 48, 0
2, 32623, Note_on_c, 0, 56, 0
2, 32630, Control_c, 0, 64, 0
2, 32635, Note_on_c, 0, 66, 52
2, 32637, Note_on_c, 0, 59, 60
2, 32642, Note_on_c, 0, 40, 71
2, 32658, Control_c, 0, 64, 127
2, 32669, Note_on_c, 0, 59, 0
2, 32678, Note_on_c, 0, 66, 0
2, 32701, Note_on_c, 0, 40, 0
2, 32701, Note_on_c, 0, 47, 62
2, 32709, Note_on_c, 0, 47, 0
2, 32798, Note_on_c, 0, 78, 72
2, 32800, Note_on_c, 0, 71, 82
2, 32801, Note_on_c, 0, 66, 75
2, 32801, Note_on_c, 0, 67, 82
2, 32875, Note_on_c, 0, 67, 0
2, 32878, Note_on_c, 0, 71, 0
2, 32885, Note_on_c, 0, 66, 0
2, 32891, Note_on_c, 0, 74, 64
2, 32891, Note_on_c, 0, 62, 54
2, 32912, Note_on_c, 0, 62, 0
2, 32936, Note_on_c, 0, 78, 0
2, 32951, Note_on_c, 0, 71, 52
2, 32979, Note_on_c, 0, 74, 0
2, 32988, Note_on_c, 0, 71, 0
2, 32989, Note_on_c, 0, 67, 50
2, 33002, Note_on_c, 0, 67, 0
2, 33024, Note_on_c, 0, 47, 66
2, 33026, Control_c, 0, 64, 0
2, 33040, Control_c, 0, 64, 127
2, 33057, Note_on_c, 0, 47, 0
2, 33092, Note_on_c, 0, 73, 47
2, 33092, Note_on_c, 0, 66, 58
2, 33094, Note_on_c, 0, 62, 67
2, 33095, Note_on_c, 0, 69, 58
2, 33095, Note_on_c, 0, 61, 69
2, 33108, Control_c, 0, 64, 0
2, 33109, Note_on_c, 0, 62, 0
2, 33114, Note_on_c, 0, 66, 0
2, 33116, Note_on_c, 0, 61, 0
2, 33116, Note_on_c, 0, 69, 0
2, 33118, Note_on_c, 0, 73, 0
2, 33150, Note_on_c, 0, 71, 46
2, 33156, Note_on_c, 0, 59, 27
2, 33170, Note_on_c, 0, 71, 0
2, 33177, Note_on_c, 0, 59, 0
2, 33179, Note_on_c, 0, 73, 53
2, 33180, Note_on_c, 0, 62, 68
2, 33181, Note_on_c, 0, 66, 54
2, 33182, Note_on_c, 0, 61, 71
2, 33183, Note_on_c, 0, 69, 58
2, 33206, Note_on_c, 0, 61, 0
2, 33210, Note_on_c, 0, 62, 0
2, 33211, Note_on_c, 0, 69, 0
2, 33214, Note_on_c, 0, 73, 0
2, 33215, Note_on_c, 0, 59, 49
2, 33224, Note_on_c, 0, 71, 49
2, 33226, Note_on_c, 0, 62, 38
2, 33256, Control_c, 0, 64, 127
2, 33281, Note_on_c, 0, 62, 0
2, 33286, Note_on_c, 0, 59, 0
2, 33287, Note_on_c, 0, 66, 0
2, 33318, Note_on_c, 0, 62, 30
2, 33332, Note_on_c, 0, 62, 0
2, 33377, Note_on_c, 0, 66, 57
2, 33379, Note_on_c, 0, 62, 53
2, 33381, Note_on_c, 0, 47, 41
2, 33389, Note_on_c, 0, 47, 0
2, 33433, Note_on_c, 0, 62, 0
2, 33439, Note_on_c, 0, 66, 0
2, 33447, Note_on_c, 0, 71, 0
2, 33457, Note_on_c, 0, 66, 53
2, 33457, Note_on_c, 0, 73, 31
2, 33458, Note_on_c, 0, 62, 43
2, 33459, Note_on_c, 0, 61, 64
2, 33465, Note_on_c, 0, 62, 0
2, 33469, Note_on_c, 0, 73, 0
2, 33470, Note_on_c, 0, 66, 0
2, 33475, Note_on_c, 0, 61, 0
2, 33494, Note_on_c, 0, 59, 51
2, 33505, Control_c, 0, 64, 0
2, 33514, Note_on_c, 0, 59, 0
2, 33519, Note_on_c, 0, 61, 81
2, 33520, Note_on_c, 0, 73, 60
2, 33521, Note_on_c, 0, 66, 74
2, 33523, Note_on_c, 0, 62, 80
2, 33523, Note_on_c, 0, 69, 72
2, 33559, Control_c, 0, 64, 127
2, 33575, Note_on_c, 0, 62, 0
2, 33582, Note_on_c, 0, 66, 0
2, 33583, Note_on_c, 0, 73, 0
2, 33584, Note_on_c, 0, 69, 0
2, 33589, Note_on_c, 0, 61, 0
2, 33591, Control_c, 0, 64, 0
2, 33591, Note_on_c, 0, 71, 59
2, 33592, Note_on_c, 0, 66, 47
2, 33592, Note_on_c, 0, 62, 64
2, 33596, Note_on_c, 0, 59, 57
2, 33613, Control_c, 0, 64, 127
2, 33636, Note_on_c, 0, 66, 0
2, 33646, Note_on_c, 0, 59, 0
2, 33653, Note_on_c, 0, 62, 0
2, 33681, Note_on_c, 0, 66, 64
2, 33684, Note_on_c, 0, 62, 61
2, 33712, Note_on_c, 0, 71, 0
2, 33718, Note_on_c, 0, 62, 0
2, 33743, Note_on_c, 0, 66, 0
2, 33775, Note_on_c, 0, 68, 80
2, 33776, Note_on_c, 0, 61, 85
2, 33776, Note_on_c, 0, 65, 88
2, 33777, Note_on_c, 0, 39, 49
2, 33778, Note_on_c, 0, 54, 48
2, 33784, Control_c, 0, 64, 0
2, 33812, Control_c, 0, 64, 127
2, 33846, Note_on_c, 0, 65, 0
2, 33847, Note_on_c, 0, 61, 0
2, 33857, Note_on_c, 0, 54, 0
2, 33857, Note_on_c, 0, 68, 0
2, 33859, Note_on_c, 0, 46, 55
2, 33878, Note_on_c, 0, 60, 34
2, 33879, Note_on_c, 0, 39, 0
2, 33888, Note_on_c, 0, 61, 55
2, 33889, Note_on_c, 0, 60, 0
2, 33890, Note_on_c, 0, 54, 32
2, 33905, Note_on_c, 0, 46, 0
2, 33908, Note_on_c, 0, 63, 57
2, 33910, Note_on_c, 0, 61, 0
2, 33917, Note_on_c, 0, 54, 0
2, 33919, Note_on_c, 0, 63, 0
2, 33926, Note_on_c, 0, 65, 79
2, 33943, Note_on_c, 0, 65, 0
2, 33943, Note_on_c, 0, 66, 39
2, 33956, Note_on_c, 0, 68, 60
2, 33963, Note_on_c, 0, 66, 0
2, 33970, Note_on_c, 0, 70, 50
2, 33972, Note_on_c, 0, 68, 0
2, 33978, Note_on_c, 0, 70, 0
2, 33988, Note_on_c, 0, 72, 59
2, 34003, Note_on_c, 0, 72, 0
2, 34004, Note_on_c, 0, 73, 37
2, 34022, Note_on_c, 0, 75, 62
2, 34025, Note_on_c, 0, 73, 0
2, 34037, Note_on_c, 0, 75, 0
2, 34046, Note_on_c, 0, 77, 49
2, 34061, Note_on_c, 0, 78, 38
2, 34063, Note_on_c, 0, 77, 0
2, 34079, Note_on_c, 0, 80, 43
2, 34084, Note_on_c, 0, 65, 35
2, 34086, Note_on_c, 0, 78, 0
2, 34086, Note_on_c, 0, 61, 33
2, 34090, Note_on_c, 0, 58, 35
2, 34091, Note_on_c, 0, 54, 36
2, 34095, Note_on_c, 0, 82, 49
2, 34102, Note_on_c, 0, 82, 0
2, 34102, Note_on_c, 0, 80, 0
2, 34118, Note_on_c, 0, 84, 58
2, 34126, Note_on_c, 0, 65, 0
2, 34127, Note_on_c, 0, 84, 0
2, 34137, Note_on_c, 0, 61, 0
2, 34141, Note_on_c, 0, 58, 0
2, 34143, Note_on_c, 0, 54, 0
2, 34161, Note_on_c, 0, 87, 53
2, 34191, Note_on_c, 0, 87, 0
2, 34191, Note_on_c, 0, 88, 28
2, 34197, Note_on_c, 0, 88, 0
2, 34198, Note_on_c, 0, 91, 72
2, 34203, Control_c, 0, 64, 0
2, 34205, Note_on_c, 0, 45, 58
2, 34214, Note_on_c, 0, 45, 0
2, 34219, Note_on_c, 0, 91, 0
2, 34223, Note_on_c, 0, 88, 46
2, 34225, Control_c, 0, 64, 127
2, 34266, Note_on_c, 0, 88, 0
2, 34277, Note_on_c, 0, 83, 31
2, 34286, Note_on_c, 0, 83, 0
2, 34311, Control_c, 0, 64, 0
2, 34317, Note_on_c, 0, 88, 79
2, 34317, Note_on_c, 0, 95, 78
2, 34318, Note_on_c, 0, 64, 54
2, 34322, Note_on_c, 0, 55, 44
2, 34323, Note_on_c, 0, 59, 40
2, 34326, Note_on_c, 0, 60, 38
2, 34337, Control_c, 0, 64, 127
2, 34343, Note_on_c, 0, 88, 0
2, 34345, Note_on_c, 0, 95, 0
2, 34358, Note_on_c, 0, 91, 35
2, 34360, Note_on_c, 0, 83, 27
2, 34370, Note_on_c, 0, 83, 0
2, 34373, Note_on_c, 0, 91, 0
2, 34385, Control_c, 0, 64, 0
2, 34387, Note_on_c, 0, 95, 74
2, 34387, Note_on_c, 0, 83, 53
2, 34390, Note_on_c, 0, 88, 66
2, 34410, Note_on_c, 0, 88, 0
2, 34413, Control_c, 0, 64, 127
2, 34415, Note_on_c, 0, 83, 0
2, 34418, Note_on_c, 0, 64, 0
2, 34420, Note_on_c, 0, 60, 0
2, 34421, Note_on_c, 0, 95, 0
2, 34421, Note_on_c, 0, 59, 0
2, 34429, Note_on_c, 0, 91, 41
2, 34463, Note_on_c, 0, 91, 0
2, 34484, Note_on_c, 0, 64, 63
2, 34487, Note_on_c, 0, 59, 45
2, 34488, Note_on_c, 0, 60, 55
2, 34499, Note_on_c, 0, 55, 0
2, 34502, Control_c, 0, 64, 0
2, 34522, Control_c, 0, 64, 127
2, 34568, Note_on_c, 0, 64, 0
2, 34575, Note_on_c, 0, 60, 0
2, 34576, Note_on_c, 0, 59, 0
2, 34580, Note_on_c, 0, 55, 61
2, 34587, Note_on_c, 0, 55, 0
2, 34616, Control_c, 0, 64, 0
2, 34620, Note_on_c, 0, 48, 71
2, 34641, Control_c, 0, 64, 127
2, 34679, Note_on_c, 0, 74, 70
2, 34683, Note_on_c, 0, 67, 78
2, 34684, Note_on_c, 0, 63, 75
2, 34686, Note_on_c, 0, 62, 57
2, 34687, Note_on_c, 0, 60, 47
2, 34689, Control_c, 0, 64, 0
2, 34689, Note_on_c, 0, 70, 38
2, 34694, Note_on_c, 0, 60, 0
2, 34727, Control_c, 0, 64, 127
2, 34752, Note_on_c, 0, 62, 0
2, 34802, Note_on_c, 0, 63, 0
2, 34805, Note_on_c, 0, 67, 0
2, 34807, Note_on_c, 0, 74, 0
2, 34811, Note_on_c, 0, 70, 0
2, 34823, Note_on_c, 0, 63, 57
2, 34824, Note_on_c, 0, 67, 63
2, 34825, Control_c, 0, 64, 0
2, 34827, Note_on_c, 0, 72, 59
2, 34827, Note_on_c, 0, 60, 41
2, 34844, Control_c, 0, 64, 127
2, 34850, Note_on_c, 0, 60, 0
2, 34890, Note_on_c, 0, 59, 49
2, 34902, Note_on_c, 0, 48, 0
2, 34908, Note_on_c, 0, 63, 0
2, 34927, Note_on_c, 0, 67, 0
2, 34929, Note_on_c, 0, 72, 0
2, 34932, Note_on_c, 0, 59, 0
2, 34933, Note_on_c, 0, 48, 34
2, 34941, Note_on_c, 0, 48, 0
2, 34992, Note_on_c, 0, 42, 79
2, 35015, Note_on_c, 0, 42, 0
2, 35022, Control_c, 0, 64, 0
2, 35050, Note_on_c, 0, 56, 69
2, 35054, Note_on_c, 0, 68, 59
2, 35056, Note_on_c, 0, 61, 55
2, 35058, Note_on_c, 0, 64, 55
2, 35059, Note_on_c, 0, 57, 44
2, 35084, Control_c, 0, 64, 127
2, 35100, Control_c, 0, 64, 0
2, 35105, Note_on_c, 0, 57, 0
2, 35107, Note_on_c, 0, 56, 0
2, 35114, Note_on_c, 0, 68, 0
2, 35116, Note_on_c, 0, 64, 0
2, 35127, Note_on_c, 0, 66, 39
2, 35128, Control_c, 0, 64, 127
2, 35146, Note_on_c, 0, 61, 0
2, 35152, Note_on_c, 0, 66, 0
2, 35194, Note_on_c, 0, 42, 52
2, 35195, Note_on_c, 0, 73, 51
2, 35199, Control_c, 0, 64, 0
2, 35215, Note_on_c, 0, 42, 0
2, 35217, Control_c, 0, 64, 127
2, 35233, Note_on_c, 0, 73, 0
2, 35289, Note_on_c, 0, 66, 46
2, 35290, Note_on_c, 0, 59, 45
2, 35293, Note_on_c, 0, 64, 47
2, 35295, Control_c, 0, 64, 0
2, 35306, Note_on_c, 0, 64, 0
2, 35309, Control_c, 0, 64, 127
2, 35347, Note_on_c, 0, 59, 0
2, 35354, Note_on_c, 0, 66, 0
2, 35375, Control_c, 0, 64, 0
2, 35380, Note_on_c, 0, 62, 59
2, 35380, Note_on_c, 0, 66, 36
2, 35385, Note_on_c, 0, 47, 57
2, 35400, Note_on_c, 0, 62, 0
2, 35406, Note_on_c, 0, 66, 0
2, 35407, Control_c, 0, 64, 127
2, 35427, Note_on_c, 0, 47, 0
2, 35478, Note_on_c, 0, 80, 71
2, 35508, Note_on_c, 0, 80, 0
2, 35531, Note_on_c, 0, 80, 60
2, 35532, Note_on_c, 0, 66, 50
2, 35538, Note_on_c, 0, 71, 38
2, 35590, Note_on_c, 0, 80, 0
2, 35594, Note_on_c, 0, 71, 0
2, 35625, Note_on_c, 0, 80, 62
2, 35629, Note_on_c, 0, 71, 55
2, 35661, Note_on_c, 0, 71, 0
2, 35662, Note_on_c, 0, 80, 0
2, 35678, Note_on_c, 0, 66, 0
2, 35693, Note_on_c, 0, 76, 57
2, 35696, Note_on_c, 0, 64, 49
2, 35721, Note_on_c, 0, 64, 0
2, 35721, Note_on_c, 0, 76, 0
2, 35755, Note_on_c, 0, 73, 38
2, 35770, Note_on_c, 0, 73, 0
2, 35828, Note_on_c, 0, 57, 53
2, 35830, Note_on_c, 0, 53, 30
2, 35832, Note_on_c, 0, 62, 41
2, 35834, Note_on_c, 0, 58, 39
2, 35842, Control_c, 0, 64, 0
2, 35901, Note_on_c, 0, 69, 71
2, 35926, Note_on_c, 0, 69, 0
2, 35937, Note_on_c, 0, 68, 46
2, 35950, Note_on_c, 0, 62, 0
2, 35951, Note_on_c, 0, 68, 0
2, 35961, Note_on_c, 0, 58, 0
2, 35970, Note_on_c, 0, 69, 67
2, 35995, Note_on_c, 0, 69, 0
2, 36036, Note_on_c, 0, 74, 94
2, 36051, Control_c, 0, 64, 127
2, 36061, Note_on_c, 0, 74, 0
2, 36102, Note_on_c, 0, 62, 40
2, 36104, Note_on_c, 0, 69, 74
2, 36109, Note_on_c, 0, 57, 0
2, 36109, Control_c, 0, 64, 0
2, 36111, Note_on_c, 0, 62, 0
2, 36127, Note_on_c, 0, 69, 0
2, 36131, Note_on_c, 0, 53, 0
2, 36135, Control_c, 0, 64, 127
2, 36149, Note_on_c, 0, 65, 35
2, 36175, Note_on_c, 0, 65, 0
2, 36182, Note_on_c, 0, 62, 58
2, 36199, Note_on_c, 0, 62, 0
2, 36224, Note_on_c, 0, 39, 39
2, 36226, Control_c, 0, 64, 0
2, 36227, Note_on_c, 0, 46, 29
2, 36262, Control_c, 0, 64, 127
2, 36276, Note_on_c, 0, 46, 0
2, 36305, Note_on_c, 0, 46, 47
2, 36326, Note_on_c, 0, 39, 0
2, 36356, Note_on_c, 0, 55, 70
2, 36426, Note_on_c, 0, 58, 87
2, 36457, Note_on_c, 0, 55, 0
2, 36464, Note_on_c, 0, 58, 0
2, 36488, Note_on_c, 0, 62, 80
2, 36495, Note_on_c, 0, 55, 64
2, 36544, Note_on_c, 0, 62, 0
2, 36554, Note_on_c, 0, 69, 80
2, 36557, Note_on_c, 0, 62, 29
2, 36564, Note_on_c, 0, 62, 0
2, 36564, Note_on_c, 0, 46, 0
2, 36578, Note_on_c, 0, 69, 0
2, 36615, Note_on_c, 0, 74, 89
2, 36666, Note_on_c, 0, 74, 0
2, 36673, Control_c, 0, 64, 0
2, 36674, Note_on_c, 0, 55, 0
2, 36674, Note_on_c, 0, 69, 63
2, 36677, Note_on_c, 0, 65, 45
2, 36679, Note_on_c, 0, 50, 34
2, 36707, Control_c, 0, 64, 127
2, 36726, Note_on_c, 0, 65, 0
2, 36741, Note_on_c, 0, 69, 0
2, 36742, Note_on_c, 0, 57, 39
2, 36826, Note_on_c, 0, 60, 48
2, 36883, Note_on_c, 0, 72, 72
2, 36886, Note_on_c, 0, 65, 74
2, 36917, Note_on_c, 0, 50, 0
2, 36979, Note_on_c, 0, 50, 16
2, 37007, Note_on_c, 0, 60, 0
2, 37010, Note_on_c, 0, 72, 0
2, 37013, Note_on_c, 0, 65, 0
2, 37016, Note_on_c, 0, 57, 0
2, 37026, Note_on_c, 0, 50, 0
2, 37040, Note_on_c, 0, 71, 38
2, 37050, Note_on_c, 0, 71, 0
2, 37070, Control_c, 0, 64, 0
2, 37118, Note_on_c, 0, 69, 57
2, 37119, Note_on_c, 0, 63, 36
2, 37120, Note_on_c, 0, 62, 29
2, 37124, Note_on_c, 0, 48, 33
2, 37130, Note_on_c, 0, 62, 0
2, 37130, Control_c, 0, 64, 127
2, 37166, Note_on_c, 0, 63, 0
2, 37172, Note_on_c, 0, 69, 0
2, 37192, Note_on_c, 0, 55, 37
2, 37231, Note_on_c, 0, 48, 0
2, 37252, Note_on_c, 0, 63, 45
2, 37253, Note_on_c, 0, 69, 43
2, 37254, Note_on_c, 0, 62, 33
2, 37292, Note_on_c, 0, 55, 0
2, 37345, Note_on_c, 0, 55, 47
2, 37361, Note_on_c, 0, 55, 0
2, 37381, Note_on_c, 0, 62, 0
2, 37406, Note_on_c, 0, 63, 0
2, 37434, Note_on_c, 0, 63, 36
2, 37438, Note_on_c, 0, 60, 41
2, 37450, Note_on_c, 0, 48, 30
2, 37455, Control_c, 0, 64, 0
2, 37465, Control_c, 0, 64, 127
2, 37488, Note_on_c, 0, 60, 0
2, 37502, Note_on_c, 0, 63, 0
2, 37510, Note_on_c, 0, 69, 0
2, 37534, Note_on_c, 0, 55, 37
2, 37604, Note_on_c, 0, 48, 0
2, 37621, Note_on_c, 0, 62, 55
2, 37625, Note_on_c, 0, 79, 64
2, 37637, Note_on_c, 0, 79, 0
2, 37675, Note_on_c, 0, 86, 76
2, 37686, Control_c, 0, 64, 0
2, 37692, Note_on_c, 0, 86, 0
2, 37698, Control_c, 0, 64, 127
2, 37712, Note_on_c, 0, 62, 0
2, 37733, Note_on_c, 0, 86, 75
2, 37750, Note_on_c, 0, 86, 0
2, 37760, Control_c, 0, 64, 0
2, 37764, Note_on_c, 0, 48, 37
2, 37766, Control_c, 0, 64, 127
2, 37773, Note_on_c, 0, 82, 53
2, 37778, Note_on_c, 0, 55, 0
2, 37793, Note_on_c, 0, 82, 0
2, 37793, Note_on_c, 0, 48, 0
2, 37832, Note_on_c, 0, 82, 60
2, 37857, Note_on_c, 0, 82, 0
2, 37878, Note_on_c, 0, 81, 68
2, 37894, Control_c, 0, 64, 0
2, 37935, Note_on_c, 0, 47, 48
2, 37938, Control_c, 0, 64, 127
2, 37940, Note_on_c, 0, 81, 0
2, 37984, Note_on_c, 0, 54, 34
2, 38044, Note_on_c, 0, 61, 53
2, 38044, Note_on_c, 0, 64, 61
2, 38049, Note_on_c, 0, 59, 31
2, 38063, Control_c, 0, 64, 0
2, 38069, Control_c, 0, 64, 127
2, 38083, Note_on_c, 0, 59, 0
2, 38105, Note_on_c, 0, 54, 0
2, 38122, Note_on_c, 0, 61, 0
2, 38123, Note_on_c, 0, 64, 0
2, 38136, Note_on_c, 0, 66, 62
2, 38136, Note_on_c, 0, 62, 73
2, 38142, Note_on_c, 0, 59, 28
2, 38144, Note_on_c, 0, 54, 25
2, 38145, Control_c, 0, 64, 0
2, 38169, Control_c, 0, 64, 127
2, 38173, Note_on_c, 0, 47, 0
2, 38226, Note_on_c, 0, 47, 45
2, 38228, Note_on_c, 0, 62, 0
2, 38246, Note_on_c, 0, 47, 0
2, 38258, Note_on_c, 0, 59, 0
2, 38271, Note_on_c, 0, 66, 0
2, 38272, Note_on_c, 0, 54, 0
2, 38273, Control_c, 0, 64, 0
2, 38275, Note_on_c, 0, 64, 61
2, 38277, Note_on_c, 0, 60, 37
2, 38278, Note_on_c, 0, 48, 45
2, 38293, Control_c, 0, 64, 127
2, 38322, Note_on_c, 0, 60, 0
2, 38330, Note_on_c, 0, 64, 0
2, 38346, Note_on_c, 0, 71, 71
2, 38347, Control_c, 0, 64, 0
2, 38348, Note_on_c, 0, 64, 81
2, 38351, Note_on_c, 0, 55, 44
2, 38357, Control_c, 0, 64, 127
2, 38403, Note_on_c, 0, 64, 0
2, 38404, Note_on_c, 0, 71, 0
2, 38417, Note_on_c, 0, 55, 0
2, 38425, Note_on_c, 0, 67, 62
2, 38426, Note_on_c, 0, 64, 46
2, 38430, Note_on_c, 0, 60, 39
2, 38439, Note_on_c, 0, 60, 0
2, 38445, Note_on_c, 0, 64, 0
2, 38453, Note_on_c, 0, 67, 0
2, 38497, Note_on_c, 0, 74, 74
2, 38497, Note_on_c, 0, 55, 43
2, 38501, Note_on_c, 0, 67, 77
2, 38547, Note_on_c, 0, 74, 0
2, 38549, Note_on_c, 0, 67, 0
2, 38565, Note_on_c, 0, 71, 59
2, 38569, Note_on_c, 0, 55, 0
2, 38570, Note_on_c, 0, 67, 36
2, 38570, Note_on_c, 0, 64, 49
2, 38571, Note_on_c, 0, 59, 28
2, 38583, Note_on_c, 0, 59, 0
2, 38583, Note_on_c, 0, 67, 0
2, 38586, Note_on_c, 0, 48, 0
2, 38588, Note_on_c, 0, 64, 0
2, 38599, Note_on_c, 0, 71, 0
2, 38633, Note_on_c, 0, 76, 58
2, 38634, Note_on_c, 0, 69, 66
2, 38657, Note_on_c, 0, 76, 0
2, 38659, Note_on_c, 0, 69, 0
2, 38670, Note_on_c, 0, 72, 54
2, 38673, Note_on_c, 0, 64, 44
2, 38686, Note_on_c, 0, 64, 0
2, 38696, Control_c, 0, 64, 0
2, 38702, Note_on_c, 0, 72, 0
2, 38707, Note_on_c, 0, 41, 51
2, 38712, Control_c, 0, 64, 127
2, 38770, Note_on_c, 0, 41, 0
2, 38848, Note_on_c, 0, 88, 82
2, 38850, Note_on_c, 0, 81, 73
2, 38874, Note_on_c, 0, 88, 0
2, 38877, Note_on_c, 0, 84, 49
2, 38893, Note_on_c, 0, 76, 30
2, 38905, Note_on_c, 0, 81, 0
2, 38909, Note_on_c, 0, 76, 0
2, 38915, Note_on_c, 0, 84, 0
2, 38927, Note_on_c, 0, 64, 46
2, 38927, Note_on_c, 0, 57, 56
2, 38928, Note_on_c, 0, 53, 31
2, 38928, Note_on_c, 0, 60, 40
2, 38982, Note_on_c, 0, 64, 0
2, 38990, Note_on_c, 0, 60, 0
2, 38996, Note_on_c, 0, 57, 0
2, 39004, Note_on_c, 0, 93, 89
2, 39005, Note_on_c, 0, 53, 0
2, 39005, Note_on_c, 0, 86, 79
2, 39034, Note_on_c, 0, 93, 0
2, 39035, Note_on_c, 0, 86, 0
2, 39038, Note_on_c, 0, 89, 55
2, 39047, Note_on_c, 0, 83, 42
2, 39057, Note_on_c, 0, 89, 0
2, 39062, Note_on_c, 0, 83, 0
2, 39078, Control_c, 0, 64, 0
2, 39082, Note_on_c, 0, 40, 66
2, 39083, Note_on_c, 0, 47, 58
2, 39086, Note_on_c, 0, 84, 57
2, 39086, Note_on_c, 0, 83, 39
2, 39092, Note_on_c, 0, 91, 30
2, 39099, Note_on_c, 0, 91, 0
2, 39100, Control_c, 0, 64, 127
2, 39110, Note_on_c, 0, 84, 0
2, 39111, Note_on_c, 0, 40, 0
2, 39113, Note_on_c, 0, 83, 0
2, 39119, Note_on_c, 0, 47, 0
2, 39132, Note_on_c, 0, 83, 31
2, 39142, Note_on_c, 0, 86, 24
2, 39154, Note_on_c, 0, 86, 0
2, 39161, Note_on_c, 0, 83, 0
2, 39171, Note_on_c, 0, 79, 46
2, 39195, Note_on_c, 0, 79, 0
2, 39219, Note_on_c, 0, 78, 77
2, 39220, Note_on_c, 0, 86, 81
2, 39250, Note_on_c, 0, 86, 0
2, 39255, Note_on_c, 0, 78, 0
2, 39256, Note_on_c, 0, 76, 58
2, 39273, Note_on_c, 0, 76, 0
2, 39295, Note_on_c, 0, 83, 60
2, 39298, Note_on_c, 0, 76, 57
2, 39299, Note_on_c, 0, 64, 51
2, 39305, Note_on_c, 0, 59, 38
2, 39326, Note_on_c, 0, 83, 0
2, 39329, Note_on_c, 0, 76, 0
2, 39339, Note_on_c, 0, 72, 22
2, 39348, Note_on_c, 0, 72, 0
2, 39369, Note_on_c, 0, 52, 59
2, 39369, Note_on_c, 0, 74, 69
2, 39370, Note_on_c, 0, 81, 70
2, 39370, Control_c, 0, 64, 0
2, 39388, Control_c, 0, 64, 127
2, 39402, Note_on_c, 0, 64, 0
2, 39403, Note_on_c, 0, 81, 0
2, 39403, Note_on_c, 0, 78, 48
2, 39418, Note_on_c, 0, 59, 0
2, 39428, Note_on_c, 0, 52, 0
2, 39433, Note_on_c, 0, 74, 0
2, 39442, Note_on_c, 0, 71, 50
2, 39451, Note_on_c, 0, 78, 0
2, 39464, Note_on_c, 0, 71, 0
2, 39482, Note_on_c, 0, 71, 60
2, 39483, Note_on_c, 0, 77, 58
2, 39506, Note_on_c, 0, 77, 0
2, 39517, Control_c, 0, 64, 0
2, 39518, Note_on_c, 0, 71, 0
2, 39519, Note_on_c, 0, 74, 58
2, 39525, Note_on_c, 0, 67, 64
2, 39526, Note_on_c, 0, 45, 46
2, 39528, Note_on_c, 0, 55, 44
2, 39530, Note_on_c, 0, 52, 33
2, 39540, Note_on_c, 0, 45, 0
2, 39541, Control_c, 0, 64, 127
2, 39545, Note_on_c, 0, 52, 0
2, 39551, Note_on_c, 0, 55, 0
2, 39625, Note_on_c, 0, 59, 37
2, 39625, Note_on_c, 0, 64, 57
2, 39629, Note_on_c, 0, 60, 42
2, 39632, Note_on_c, 0, 55, 42
2, 39660, Note_on_c, 0, 60, 0
2, 39662, Note_on_c, 0, 64, 0
2, 39663, Note_on_c, 0, 59, 0
2, 39670, Note_on_c, 0, 55, 0
2, 39671, Note_on_c, 0, 67, 0
2, 39696, Note_on_c, 0, 65, 61
2, 39698, Note_on_c, 0, 69, 58
2, 39704, Note_on_c, 0, 50, 43
2, 39705, Note_on_c, 0, 52, 45
2, 39709, Control_c, 0, 64, 0
2, 39734, Note_on_c, 0, 52, 0
2, 39739, Control_c, 0, 64, 127
2, 39796, Note_on_c, 0, 57, 60
2, 39797, Note_on_c, 0, 60, 54
2, 39804, Note_on_c, 0, 60, 0
2, 39808, Note_on_c, 0, 65, 0
2, 39808, Note_on_c, 0, 57, 0
2, 39819, Note_on_c, 0, 50, 0
2, 39822, Note_on_c, 0, 69, 0
2, 39831, Note_on_c, 0, 74, 0
2, 39888, Control_c, 0, 64, 0
2, 39889, Note_on_c, 0, 43, 70
2, 39905, Note_on_c, 0, 43, 0
2, 39906, Control_c, 0, 64, 127
2, 39986, Note_on_c, 0, 62, 57
2, 39988, Note_on_c, 0, 58, 46
2, 39988, Note_on_c, 0, 57, 68
2, 39991, Note_on_c, 0, 53, 39
2, 40033, Note_on_c, 0, 81, 80
2, 40033, Note_on_c, 0, 74, 91
2, 40037, Note_on_c, 0, 78, 39
2, 40056, Note_on_c, 0, 81, 0
2, 40059, Note_on_c, 0, 74, 0
2, 40064, Note_on_c, 0, 62, 0
2, 40071, Note_on_c, 0, 58, 0
2, 40074, Note_on_c, 0, 78, 0
2, 40077, Note_on_c, 0, 77, 60
2, 40079, Note_on_c, 0, 69, 32
2, 40083, Note_on_c, 0, 57, 0
2, 40087, Note_on_c, 0, 69, 0
2, 40095, Note_on_c, 0, 77, 0
2, 40108, Control_c, 0, 64, 0
2, 40111, Note_on_c, 0, 58, 61
2, 40112, Note_on_c, 0, 62, 62
2, 40114, Note_on_c, 0, 57, 37
2, 40115, Note_on_c, 0, 84, 92
2, 40115, Note_on_c, 0, 77, 77
2, 40133, Control_c, 0, 64, 127
2, 40151, Note_on_c, 0, 77, 0
2, 40152, Note_on_c, 0, 84, 0
2, 40162, Note_on_c, 0, 62, 0
2, 40175, Note_on_c, 0, 58, 0
2, 40191, Note_on_c, 0, 57, 0
2, 40197, Note_on_c, 0, 74, 87
2, 40198, Note_on_c, 0, 81, 78
2, 40202, Note_on_c, 0, 62, 53
2, 40202, Note_on_c, 0, 58, 44
2, 40203, Control_c, 0, 64, 0
2, 40209, Note_on_c, 0, 62, 0
2, 40220, Note_on_c, 0, 58, 0
2, 40225, Control_c, 0, 64, 127
2, 40228, Note_on_c, 0, 74, 0
2, 40229, Note_on_c, 0, 53, 0
2, 40231, Note_on_c, 0, 77, 56
2, 40232, Note_on_c, 0, 81, 0
2, 40264, Note_on_c, 0, 77, 0
2, 40294, Note_on_c, 0, 79, 85
2, 40295, Note_on_c, 0, 88, 83
2, 40297, Note_on_c, 0, 86, 72
2, 40304, Note_on_c, 0, 86, 0
2, 40332, Note_on_c, 0, 88, 0
2, 40340, Note_on_c, 0, 79, 0
2, 40354, Note_on_c, 0, 39, 67
2, 40354, Note_on_c, 0, 46, 69
2, 40357, Note_on_c, 0, 86, 40
2, 40358, Note_on_c, 0, 77, 48
2, 40359, Control_c, 0, 64, 0
2, 40359, Note_on_c, 0, 84, 49
2, 40377, Note_on_c, 0, 86, 0
2, 40377, Note_on_c, 0, 39, 0
2, 40377, Control_c, 0, 64, 127
2, 40384, Note_on_c, 0, 46, 0
2, 40422, Note_on_c, 0, 77, 0
2, 40433, Note_on_c, 0, 84, 0
2, 40439, Note_on_c, 0, 81, 52
2, 40440, Note_on_c, 0, 58, 26
2, 40441, Note_on_c, 0, 74, 57
2, 40442, Note_on_c, 0, 65, 60
2, 40442, Note_on_c, 0, 77, 40
2, 40448, Note_on_c, 0, 60, 33
2, 40448, Note_on_c, 0, 55, 27
2, 40450, Note_on_c, 0, 81, 0
2, 40452, Note_on_c, 0, 77, 0
2, 40463, Note_on_c, 0, 74, 0
2, 40475, Note_on_c, 0, 65, 0
2, 40488, Note_on_c, 0, 60, 0
2, 40516, Note_on_c, 0, 74, 55
2, 40519, Note_on_c, 0, 69, 32
2, 40520, Note_on_c, 0, 65, 50
2, 40524, Control_c, 0, 64, 0
2, 40524, Note_on_c, 0, 60, 34
2, 40534, Control_c, 0, 64, 127
2, 40563, Note_on_c, 0, 60, 0
2, 40569, Note_on_c, 0, 65, 0
2, 40575, Note_on_c, 0, 69, 0
2, 40583, Note_on_c, 0, 58, 0
2, 40589, Note_on_c, 0, 55, 0
2, 40596, Note_on_c, 0, 74, 0
2, 40615, Note_on_c, 0, 58, 42
2, 40615, Note_on_c, 0, 55, 48
2, 40615, Note_on_c, 0, 65, 61
2, 40617, Note_on_c, 0, 60, 56
2, 40622, Note_on_c, 0, 65, 0
2, 40626, Note_on_c, 0, 60, 0
2, 40637, Note_on_c, 0, 55, 0
2, 40639, Note_on_c, 0, 58, 0
2, 40709, Note_on_c, 0, 44, 82
2, 40709, Note_on_c, 0, 51, 83
2, 40709, Note_on_c, 0, 89, 92
2, 40711, Note_on_c, 0, 82, 88
2, 40734, Control_c, 0, 64, 0
2, 40750, Control_c, 0, 64, 127
2, 40751, Note_on_c, 0, 82, 0
2, 40756, Note_on_c, 0, 89, 0
2, 40756, Note_on_c, 0, 44, 0
2, 40763, Note_on_c, 0, 51, 0
2, 40769, Note_on_c, 0, 86, 60
2, 40769, Note_on_c, 0, 82, 47
2, 40774, Note_on_c, 0, 77, 55
2, 40791, Note_on_c, 0, 86, 0
2, 40800, Note_on_c, 0, 82, 0
2, 40812, Note_on_c, 0, 77, 0
2, 40852, Note_on_c, 0, 58, 42
2, 40853, Note_on_c, 0, 65, 38
2, 40853, Note_on_c, 0, 60, 40
2, 40854, Note_on_c, 0, 86, 37
2, 40873, Note_on_c, 0, 86, 0
2, 40885, Note_on_c, 0, 65, 0
2, 40894, Note_on_c, 0, 60, 0
2, 40922, Note_on_c, 0, 79, 52
2, 40923, Note_on_c, 0, 82, 55
2, 40925, Note_on_c, 0, 65, 53
2, 40926, Note_on_c, 0, 60, 40
2, 40928, Note_on_c, 0, 74, 32
2, 40930, Note_on_c, 0, 72, 26
2, 40941, Note_on_c, 0, 74, 0
2, 40942, Note_on_c, 0, 72, 0
2, 40964, Note_on_c, 0, 60, 0
2, 40968, Note_on_c, 0, 79, 0
2, 40977, Note_on_c, 0, 82, 0
2, 40983, Note_on_c, 0, 65, 0
2, 41002, Note_on_c, 0, 58, 0
2, 41023, Note_on_c, 0, 65, 66
2, 41024, Note_on_c, 0, 58, 43
2, 41025, Note_on_c, 0, 60, 67
2, 41031, Note_on_c, 0, 65, 0
2, 41042, Note_on_c, 0, 60, 0
2, 41052, Note_on_c, 0, 58, 0
2, 41057, Control_c, 0, 64, 0
2, 41063, Note_on_c, 0, 93, 35
2, 41065, Control_c, 0, 64, 127
2, 41081, Note_on_c, 0, 94, 42
2, 41092, Note_on_c, 0, 93, 0
2, 41093, Note_on_c, 0, 94, 0
2, 41096, Note_on_c, 0, 95, 63
2, 41114, Note_on_c, 0, 95, 0
2, 41125, Note_on_c, 0, 98, 92
2, 41139, Control_c, 0, 64, 0
2, 41142, Note_on_c, 0, 45, 57
2, 41146, Note_on_c, 0, 55, 35
2, 41148, Note_on_c, 0, 52, 25
2, 41149, Note_on_c, 0, 45, 0
2, 41151, Note_on_c, 0, 98, 0
2, 41157, Control_c, 0, 64, 127
2, 41159, Note_on_c, 0, 52, 0
2, 41160, Note_on_c, 0, 55, 0
2, 41164, Note_on_c, 0, 95, 72
2, 41178, Note_on_c, 0, 96, 24
2, 41198, Note_on_c, 0, 96, 0
2, 41207, Note_on_c, 0, 95, 0
2, 41223, Note_on_c, 0, 64, 49
2, 41224, Note_on_c, 0, 91, 58
2, 41227, Note_on_c, 0, 59, 40
2, 41228, Note_on_c, 0, 60, 43
2, 41234, Note_on_c, 0, 55, 37
2, 41238, Control_c, 0, 64, 0
2, 41249, Note_on_c, 0, 91, 0
2, 41260, Control_c, 0, 64, 127
2, 41270, Note_on_c, 0, 88, 44
2, 41281, Note_on_c, 0, 64, 0
2, 41286, Note_on_c, 0, 60, 0
2, 41296, Note_on_c, 0, 59, 0
2, 41297, Note_on_c, 0, 88, 0
2, 41324, Note_on_c, 0, 83, 54
2, 41327, Note_on_c, 0, 64, 29
2, 41328, Note_on_c, 0, 59, 33
2, 41332, Note_on_c, 0, 60, 24
2, 41334, Note_on_c, 0, 64, 0
2, 41334, Control_c, 0, 64, 0
2, 41339, Note_on_c, 0, 60, 0
2, 41340, Note_on_c, 0, 59, 0
2, 41348, Note_on_c, 0, 55, 0
2, 41349, Note_on_c, 0, 83, 0
2, 41371, Note_on_c, 0, 81, 36
2, 41390, Control_c, 0, 64, 127
2, 41397, Note_on_c, 0, 81, 0
2, 41424, Note_on_c, 0, 86, 76
2, 41425, Note_on_c, 0, 52, 57
2, 41426, Note_on_c, 0, 55, 58
2, 41427, Note_on_c, 0, 45, 40
2, 41432, Note_on_c, 0, 55, 0
2, 41433, Note_on_c, 0, 52, 0
2, 41438, Control_c, 0, 64, 0
2, 41444, Note_on_c, 0, 86, 0
2, 41444, Note_on_c, 0, 45, 0
2, 41470, Note_on_c, 0, 84, 48
2, 41484, Note_on_c, 0, 84, 0
2, 41488, Control_c, 0, 64, 127
2, 41520, Control_c, 0, 64, 0
2, 41524, Note_on_c, 0, 81, 69
2, 41525, Note_on_c, 0, 45, 64
2, 41525, Note_on_c, 0, 38, 54
2, 41543, Note_on_c, 0, 38, 0
2, 41549, Note_on_c, 0, 45, 0
2, 41553, Note_on_c, 0, 81, 0
2, 41553, Control_c, 0, 64, 127
2, 41576, Note_on_c, 0, 77, 27
2, 41601, Note_on_c, 0, 77, 0
2, 41623, Note_on_c, 0, 76, 68
2, 41645, Note_on_c, 0, 76, 0
2, 41656, Note_on_c, 0, 60, 57
2, 41657, Control_c, 0, 64, 0
2, 41658, Note_on_c, 0, 57, 50
2, 41660, Note_on_c, 0, 79, 81
2, 41661, Note_on_c, 0, 53, 36
2, 41662, Note_on_c, 0, 50, 34
2, 41698, Note_on_c, 0, 79, 0
2, 41698, Note_on_c, 0, 57, 0
2, 41702, Note_on_c, 0, 60, 0
2, 41727, Note_on_c, 0, 76, 28
2, 41731, Note_on_c, 0, 57, 28
2, 41740, Note_on_c, 0, 76, 0
2, 41749, Note_on_c, 0, 57, 0
2, 41759, Note_on_c, 0, 77, 78
2, 41763, Control_c, 0, 64, 127
2, 41768, Note_on_c, 0, 53, 0
2, 41785, Note_on_c, 0, 50, 0
2, 41795, Note_on_c, 0, 76, 33
2, 41799, Note_on_c, 0, 74, 34
2, 41810, Note_on_c, 0, 74, 0
2, 41810, Note_on_c, 0, 77, 0
2, 41814, Note_on_c, 0, 76, 0
2, 41831, Note_on_c, 0, 57, 59
2, 41832, Note_on_c, 0, 60, 58
2, 41834, Note_on_c, 0, 53, 50
2, 41835, Note_on_c, 0, 50, 38
2, 41835, Control_c, 0, 64, 0
2, 41839, Note_on_c, 0, 60, 0
2, 41848, Note_on_c, 0, 57, 0
2, 41862, Note_on_c, 0, 72, 77
2, 41863, Note_on_c, 0, 53, 0
2, 41866, Note_on_c, 0, 50, 0
2, 41881, Control_c, 0, 64, 127
2, 41882, Note_on_c, 0, 72, 0
2, 41896, Note_on_c, 0, 69, 55
2, 41914, Note_on_c, 0, 69, 0
2, 41937, Note_on_c, 0, 43, 73
2, 41938, Note_on_c, 0, 50, 75
2, 41948, Control_c, 0, 64, 0
2, 41959, Note_on_c, 0, 43, 0
2, 41966, Control_c, 0, 64, 127
2, 41968, Note_on_c, 0, 50, 0
2, 41977, Note_on_c, 0, 70, 90
2, 42008, Note_on_c, 0, 66, 58
2, 42010, Note_on_c, 0, 70, 0
2, 42022, Note_on_c, 0, 66, 0
2, 42046, Note_on_c, 0, 58, 55
2, 42047, Note_on_c, 0, 62, 50
2, 42048, Note_on_c, 0, 57, 58
2, 42050, Control_c, 0, 64, 0
2, 42050, Note_on_c, 0, 53, 33
2, 42055, Note_on_c, 0, 62, 0
2, 42059, Note_on_c, 0, 57, 0
2, 42063, Note_on_c, 0, 58, 0
2, 42072, Note_on_c, 0, 53, 0
2, 42076, Note_on_c, 0, 69, 88
2, 42100, Note_on_c, 0, 69, 0
2, 42112, Note_on_c, 0, 65, 70
2, 42118, Control_c, 0, 64, 127
2, 42129, Note_on_c, 0, 65, 0
2, 42142, Note_on_c, 0, 50, 63
2, 42146, Control_c, 0, 64, 0
2, 42151, Note_on_c, 0, 43, 29
2, 42159, Note_on_c, 0, 43, 0
2, 42166, Note_on_c, 0, 50, 0
2, 42176, Note_on_c, 0, 62, 60
2, 42194, Control_c, 0, 64, 127
2, 42201, Note_on_c, 0, 62, 0
2, 42208, Note_on_c, 0, 58, 71
2, 42232, Note_on_c, 0, 58, 0
2, 42247, Note_on_c, 0, 50, 60
2, 42256, Control_c, 0, 64, 0
2, 42259, Note_on_c, 0, 50, 0
2, 42275, Note_on_c, 0, 57, 54
2, 42295, Control_c, 0, 64, 127
2, 42297, Note_on_c, 0, 57, 0
2, 42308, Note_on_c, 0, 58, 62
2, 42334, Note_on_c, 0, 58, 0
2, 42348, Note_on_c, 0, 36, 62
2, 42361, Control_c, 0, 64, 0
2, 42385, Note_on_c, 0, 60, 74
2, 42388, Note_on_c, 0, 55, 69
2, 42401, Control_c, 0, 64, 127
2, 42438, Note_on_c, 0, 55, 0
2, 42447, Note_on_c, 0, 62, 68
2, 42455, Note_on_c, 0, 55, 63
2, 42455, Note_on_c, 0, 58, 33
2, 42457, Control_c, 0, 64, 0
2, 42460, Note_on_c, 0, 36, 0
2, 42461, Note_on_c, 0, 48, 55
2, 42473, Note_on_c, 0, 60, 0
2, 42473, Control_c, 0, 64, 127
2, 42508, Note_on_c, 0, 55, 0
2, 42511, Note_on_c, 0, 58, 0
2, 42527, Note_on_c, 0, 62, 0
2, 42531, Note_on_c, 0, 48, 0
2, 42540, Note_on_c, 0, 63, 49
2, 42541, Control_c, 0, 64, 0
2, 42542, Note_on_c, 0, 58, 60
2, 42544, Note_on_c, 0, 55, 63
2, 42549, Note_on_c, 0, 50, 33
2, 42555, Note_on_c, 0, 60, 24
2, 42557, Control_c, 0, 64, 127
2, 42561, Note_on_c, 0, 60, 0
2, 42565, Note_on_c, 0, 55, 0
2, 42573, Note_on_c, 0, 63, 0
2, 42582, Note_on_c, 0, 58, 0
2, 42597, Note_on_c, 0, 50, 0
2, 42626, Note_on_c, 0, 65, 62
2, 42627, Note_on_c, 0, 51, 51
2, 42629, Note_on_c, 0, 62, 54
2, 42629, Note_on_c, 0, 58, 51
2, 42630, Control_c, 0, 64, 0
2, 42640, Control_c, 0, 64, 127
2, 42644, Note_on_c, 0, 65, 0
2, 42645, Note_on_c, 0, 62, 0
2, 42655, Note_on_c, 0, 58, 0
2, 42688, Control_c, 0, 64, 0
2, 42692, Note_on_c, 0, 51, 0
2, 42692, Note_on_c, 0, 67, 61
2, 42696, Note_on_c, 0, 60, 53
2, 42696, Note_on_c, 0, 53, 50
2, 42696, Note_on_c, 0, 63, 35
2, 42703, Note_on_c, 0, 60, 0
2, 42704, Note_on_c, 0, 53, 0
2, 42708, Note_on_c, 0, 63, 0
2, 42709, Note_on_c, 0, 67, 0
2, 42716, Control_c, 0, 64, 127
2, 42725, Note_on_c, 0, 55, 74
2, 42750, Note_on_c, 0, 55, 0
2, 42767, Note_on_c, 0, 70, 56
2, 42768, Note_on_c, 0, 67, 51
2, 42769, Note_on_c, 0, 63, 45
2, 42770, Note_on_c, 0, 60, 57
2, 42771, Note_on_c, 0, 58, 72
2, 42772, Control_c, 0, 64, 0
2, 42802, Control_c, 0, 64, 127
2, 42814, Note_on_c, 0, 58, 0
2, 42846, Note_on_c, 0, 41, 58
2, 42853, Note_on_c, 0, 60, 0
2, 42866, Note_on_c, 0, 63, 0
2, 42880, Note_on_c, 0, 67, 0
2, 42901, Note_on_c, 0, 70, 0
2, 42938, Control_c, 0, 64, 0
2, 42939, Note_on_c, 0, 48, 36
2, 42939, Note_on_c, 0, 56, 63
2, 42939, Note_on_c, 0, 63, 54
2, 42942, Note_on_c, 0, 55, 42
2, 42943, Note_on_c, 0, 68, 1
2, 42960, Note_on_c, 0, 41, 0
2, 42966, Control_c, 0, 64, 127
2, 43029, Note_on_c, 0, 41, 70
2, 43039, Note_on_c, 0, 56, 0
2, 43039, Control_c, 0, 64, 0
2, 43047, Control_c, 0, 64, 127
2, 43050, Note_on_c, 0, 48, 0
2, 43051, Note_on_c, 0, 63, 0
2, 43056, Note_on_c, 0, 41, 0
2, 43059, Note_on_c, 0, 55, 0
2, 43077, Note_on_c, 0, 68, 0
2, 43099, Note_on_c, 0, 63, 59
2, 43122, Note_on_c, 0, 63, 0
2, 43130, Note_on_c, 0, 70, 82
2, 43160, Note_on_c, 0, 70, 0
2, 43163, Control_c, 0, 64, 0
2, 43169, Note_on_c, 0, 66, 63
2, 43173, Note_on_c, 0, 52, 64
2, 43195, Control_c, 0, 64, 127
2, 43219, Note_on_c, 0, 66, 0
2, 43237, Note_on_c, 0, 59, 47
2, 43327, Note_on_c, 0, 78, 50
2, 43328, Note_on_c, 0, 64, 49
2, 43330, Note_on_c, 0, 74, 38
2, 43332, Note_on_c, 0, 69, 46
2, 43361, Note_on_c, 0, 52, 0
2, 43402, Note_on_c, 0, 69, 0
2, 43406, Note_on_c, 0, 78, 0
2, 43419, Note_on_c, 0, 52, 50
2, 43420, Note_on_c, 0, 79, 61
2, 43435, Note_on_c, 0, 52, 0
2, 43443, Note_on_c, 0, 59, 0
2, 43450, Note_on_c, 0, 64, 0
2, 43460, Note_on_c, 0, 74, 0
2, 43468, Note_on_c, 0, 79, 0
2, 43487, Note_on_c, 0, 78, 62
2, 43524, Note_on_c, 0, 74, 61
2, 43530, Note_on_c, 0, 78, 0
2, 43543, Note_on_c, 0, 74, 0
2, 43559, Note_on_c, 0, 66, 42
2, 43561, Note_on_c, 0, 61, 43
2, 43562, Note_on_c, 0, 57, 40
2, 43564, Control_c, 0, 64, 0
2, 43564, Note_on_c, 0, 62, 33
2, 43565, Note_on_c, 0, 73, 55
2, 43600, Control_c, 0, 64, 127
2, 43628, Control_c, 0, 64, 0
2, 43640, Note_on_c, 0, 66, 0
2, 43642, Control_c, 0, 64, 127
2, 43650, Note_on_c, 0, 69, 39
2, 43659, Note_on_c, 0, 69, 0
2, 43659, Note_on_c, 0, 62, 0
2, 43661, Note_on_c, 0, 73, 0
2, 43674, Note_on_c, 0, 57, 0
2, 43677, Note_on_c, 0, 61, 0
2, 43716, Note_on_c, 0, 85, 64
2, 43717, Note_on_c, 0, 66, 42
2, 43721, Note_on_c, 0, 61, 35
2, 43722, Note_on_c, 0, 57, 36
2, 43724, Note_on_c, 0, 62, 25
2, 43726, Note_on_c, 0, 85, 0
2, 43754, Note_on_c, 0, 66, 0
2, 43757, Note_on_c, 0, 62, 0
2, 43770, Note_on_c, 0, 57, 0
2, 43771, Note_on_c, 0, 61, 0
2, 43902, Note_on_c, 0, 66, 62
2, 43903, Note_on_c, 0, 61, 44
2, 43907, Note_on_c, 0, 57, 48
2, 43908, Note_on_c, 0, 62, 38
2, 43918, Control_c, 0, 64, 0
2, 43924, Note_on_c, 0, 66, 0
2, 43946, Control_c, 0, 64, 127
2, 43949, Note_on_c, 0, 97, 91
2, 43949, Note_on_c, 0, 85, 91
2, 43958, Note_on_c, 0, 57, 0
2, 43961, Note_on_c, 0, 85, 0
2, 43962, Note_on_c, 0, 62, 0
2, 43968, Note_on_c, 0, 97, 0
2, 43970, Control_c, 0, 64, 0
2, 43974, Note_on_c, 0, 61, 0
2, 44000, Control_c, 0, 64, 127
2, 44010, Note_on_c, 0, 97, 77
2, 44012, Note_on_c, 0, 85, 79
2, 44023, Note_on_c, 0, 85, 0
2, 44023, Note_on_c, 0, 97, 0
2, 44042, Control_c, 0, 64, 0
2, 44047, Note_on_c, 0, 66, 52
2, 44048, Note_on_c, 0, 61, 46
2, 44049, Note_on_c, 0, 82, 42
2, 44049, Note_on_c, 0, 94, 50
2, 44051, Note_on_c, 0, 57, 51
2, 44053, Note_on_c, 0, 62, 34
2, 44065, Note_on_c, 0, 92, 32
2, 44072, Control_c, 0, 64, 127
2, 44091, Note_on_c, 0, 94, 0
2, 44094, Note_on_c, 0, 95, 46
2, 44097, Note_on_c, 0, 83, 39
2, 44099, Note_on_c, 0, 82, 0
2, 44107, Note_on_c, 0, 95, 0
2, 44110, Control_c, 0, 64, 0
2, 44114, Note_on_c, 0, 92, 0
2, 44117, Note_on_c, 0, 83, 0
2, 44132, Control_c, 0, 64, 127
2, 44140, Note_on_c, 0, 66, 0
2, 44151, Note_on_c, 0, 90, 36
2, 44152, Note_on_c, 0, 78, 48
2, 44162, Note_on_c, 0, 57, 0
2, 44165, Note_on_c, 0, 62, 0
2, 44167, Note_on_c, 0, 78, 0
2, 44170, Note_on_c, 0, 90, 0
2, 44170, Note_on_c, 0, 61, 0
2, 44204, Note_on_c, 0, 66, 59
2, 44206, Note_on_c, 0, 61, 39
2, 44207, Note_on_c, 0, 57, 53
2, 44208, Note_on_c, 0, 78, 52
2, 44209, Note_on_c, 0, 62, 48
2, 44209, Note_on_c, 0, 90, 31
2, 44213, Control_c, 0, 64, 0
2, 44216, Note_on_c, 0, 90, 0
2, 44218, Note_on_c, 0, 78, 0
2, 44240, Note_on_c, 0, 66, 0
2, 44245, Control_c, 0, 64, 127
2, 44252, Note_on_c, 0, 74, 29
2, 44257, Note_on_c, 0, 57, 0
2, 44262, Note_on_c, 0, 86, 17
2, 44264, Note_on_c, 0, 62, 0
2, 44272, Note_on_c, 0, 61, 0
2, 44286, Note_on_c, 0, 86, 0
2, 44300, Note_on_c, 0, 74, 0
2, 44319, Note_on_c, 0, 54, 75
2, 44361, Control_c, 0, 64, 0
2, 44375, Control_c, 0, 64, 127
2, 44400, Control_c, 0, 64, 0
2, 44404, Note_on_c, 0, 77, 75
2, 44404, Note_on_c, 0, 66, 83
2, 44405, Note_on_c, 0, 54, 0
2, 44405, Note_on_c, 0, 65, 71
2, 44405, Note_on_c, 0, 70, 74
2, 44407, Note_on_c, 0, 73, 38
2, 44422, Note_on_c, 0, 70, 0
2, 44425, Note_on_c, 0, 66, 0
2, 44426, Note_on_c, 0, 73, 0
2, 44428, Note_on_c, 0, 77, 0
2, 44431, Note_on_c, 0, 65, 0
2, 44435, Note_on_c, 0, 63, 31
2, 44469, Note_on_c, 0, 63, 0
2, 44475, Note_on_c, 0, 70, 80
2, 44476, Note_on_c, 0, 66, 83
2, 44476, Note_on_c, 0, 73, 52
2, 44476, Note_on_c, 0, 77, 74
2, 44479, Note_on_c, 0, 65, 78
2, 44524, Note_on_c, 0, 66, 0
2, 44524, Note_on_c, 0, 70, 0
2, 44527, Note_on_c, 0, 77, 0
2, 44530, Note_on_c, 0, 73, 0
2, 44533, Note_on_c, 0, 65, 0
2, 44537, Note_on_c, 0, 63, 34
2, 44540, Note_on_c, 0, 70, 59
2, 44541, Note_on_c, 0, 66, 53
2, 44542, Control_c, 0, 64, 127
2, 44542, Note_on_c, 0, 73, 51
2, 44542, Note_on_c, 0, 75, 69
2, 44544, Note_on_c, 0, 63, 0
2, 44598, Note_on_c, 0, 73, 0
2, 44598, Note_on_c, 0, 70, 0
2, 44599, Note_on_c, 0, 75, 0
2, 44604, Note_on_c, 0, 66, 0
2, 44611, Note_on_c, 0, 39, 73
2, 44686, Note_on_c, 0, 51, 56
2, 44686, Note_on_c, 0, 65, 66
2, 44687, Note_on_c, 0, 58, 74
2, 44688, Note_on_c, 0, 61, 54
2, 44692, Note_on_c, 0, 54, 53
2, 44696, Note_on_c, 0, 39, 0
2, 44708, Note_on_c, 0, 51, 0
2, 44718, Note_on_c, 0, 54, 0
2, 44739, Note_on_c, 0, 58, 0
2, 44745, Note_on_c, 0, 65, 0
2, 44748, Note_on_c, 0, 61, 0
2, 44757, Note_on_c, 0, 64, 65
2, 44759, Note_on_c, 0, 60, 80
2, 44760, Note_on_c, 0, 59, 74
2, 44761, Note_on_c, 0, 45, 78
2, 44769, Control_c, 0, 64, 0
2, 44799, Control_c, 0, 64, 127
2, 44819, Note_on_c, 0, 59, 0
2, 44829, Note_on_c, 0, 52, 74
2, 44830, Note_on_c, 0, 60, 0
2, 44839, Note_on_c, 0, 64, 0
2, 44843, Note_on_c, 0, 45, 0
2, 44852, Note_on_c, 0, 52, 0
2, 44903, Note_on_c, 0, 61, 9
2, 44909, Note_on_c, 0, 60, 53
2, 44909, Note_on_c, 0, 55, 73
2, 44910, Note_on_c, 0, 64, 74
2, 44911, Note_on_c, 0, 59, 62
2, 44912, Note_on_c, 0, 62, 44
2, 44913, Note_on_c, 0, 61, 0
2, 44918, Note_on_c, 0, 62, 0
2, 44979, Note_on_c, 0, 90, 80
2, 44979, Note_on_c, 0, 78, 87
2, 44979, Control_c, 0, 64, 0
2, 44987, Control_c, 0, 64, 127
2, 44997, Note_on_c, 0, 64, 0
2, 45003, Note_on_c, 0, 60, 0
2, 45022, Note_on_c, 0, 59, 0
2, 45032, Note_on_c, 0, 78, 0
2, 45035, Note_on_c, 0, 90, 0
2, 45047, Note_on_c, 0, 91, 71
2, 45048, Note_on_c, 0, 64, 61
2, 45049, Note_on_c, 0, 59, 49
2, 45050, Note_on_c, 0, 79, 79
2, 45051, Control_c, 0, 64, 0
2, 45052, Note_on_c, 0, 60, 57
2, 45052, Note_on_c, 0, 89, 62
2, 45059, Note_on_c, 0, 89, 0
2, 45071, Control_c, 0, 64, 127
2, 45081, Note_on_c, 0, 91, 0
2, 45085, Note_on_c, 0, 79, 0
2, 45085, Note_on_c, 0, 55, 0
2, 45086, Note_on_c, 0, 64, 0
2, 45106, Note_on_c, 0, 60, 0
2, 45108, Note_on_c, 0, 59, 0
2, 45116, Note_on_c, 0, 90, 48
2, 45120, Note_on_c, 0, 78, 64
2, 45146, Note_on_c, 0, 90, 0
2, 45156, Note_on_c, 0, 78, 0
2, 45184, Note_on_c, 0, 88, 56
2, 45188, Note_on_c, 0, 76, 48
2, 45191, Note_on_c, 0, 48, 61
2, 45192, Control_c, 0, 64, 0
2, 45219, Note_on_c, 0, 88, 0
2, 45230, Control_c, 0, 64, 127
2, 45234, Note_on_c, 0, 76, 0
2, 45257, Note_on_c, 0, 55, 57
2, 45330, Note_on_c, 0, 75, 64
2, 45333, Note_on_c, 0, 63, 53
2, 45335, Note_on_c, 0, 58, 42
2, 45351, Note_on_c, 0, 55, 0
2, 45395, Note_on_c, 0, 63, 0
2, 45402, Note_on_c, 0, 67, 53
2, 45405, Note_on_c, 0, 63, 25
2, 45412, Note_on_c, 0, 55, 40
2, 45413, Note_on_c, 0, 58, 0
2, 45414, Control_c, 0, 64, 0
2, 45424, Control_c, 0, 64, 127
2, 45435, Note_on_c, 0, 63, 0
2, 45445, Note_on_c, 0, 75, 0
2, 45463, Note_on_c, 0, 67, 0
2, 45473, Note_on_c, 0, 63, 25
2, 45475, Note_on_c, 0, 58, 20
2, 45487, Note_on_c, 0, 48, 0
2, 45489, Note_on_c, 0, 58, 0
2, 45499, Note_on_c, 0, 63, 0
2, 45523, Note_on_c, 0, 55, 0
2, 45535, Note_on_c, 0, 48, 40
2, 45550, Note_on_c, 0, 48, 0
2, 45597, Note_on_c, 0, 42, 36
2, 45603, Note_on_c, 0, 68, 43
2, 45605, Note_on_c, 0, 42, 0
2, 45607, Note_on_c, 0, 61, 34
2, 45608, Note_on_c, 0, 57, 34
2, 45609, Control_c, 0, 64, 0
2, 45611, Note_on_c, 0, 64, 34
2, 45667, Note_on_c, 0, 56, 57
2, 45678, Note_on_c, 0, 56, 0
2, 45730, Note_on_c, 0, 56, 63
2, 45749, Control_c, 0, 64, 127
2, 45751, Note_on_c, 0, 56, 0
2, 45768, Note_on_c, 0, 54, 37
2, 45773, Note_on_c, 0, 57, 0
2, 45776, Note_on_c, 0, 64, 0
2, 45781, Note_on_c, 0, 61, 0
2, 45784, Note_on_c, 0, 68, 0
2, 45789, Control_c, 0, 64, 0
2, 45802, Note_on_c, 0, 54, 0
2, 45803, Note_on_c, 0, 68, 43
2, 45808, Note_on_c, 0, 57, 40
2, 45808, Note_on_c, 0, 56, 45
2, 45809, Note_on_c, 0, 61, 29
2, 45813, Note_on_c, 0, 64, 22
2, 45821, Note_on_c, 0, 57, 0
2, 45824, Note_on_c, 0, 64, 0
2, 45826, Note_on_c, 0, 61, 0
2, 45831, Note_on_c, 0, 68, 0
2, 45840, Note_on_c, 0, 56, 0
2, 45840, Control_c, 0, 64, 127
2, 45874, Note_on_c, 0, 56, 52
2, 45875, Note_on_c, 0, 68, 56
2, 45878, Control_c, 0, 64, 0
2, 45878, Note_on_c, 0, 61, 39
2, 45879, Note_on_c, 0, 57, 46
2, 45883, Note_on_c, 0, 64, 35
2, 45888, Note_on_c, 0, 57, 0
2, 45893, Note_on_c, 0, 64, 0
2, 45894, Note_on_c, 0, 61, 0
2, 45896, Note_on_c, 0, 68, 0
2, 45899, Note_on_c, 0, 56, 0
2, 45937, Note_on_c, 0, 56, 37
2, 45938, Note_on_c, 0, 68, 54
2, 45951, Note_on_c, 0, 56, 0
2, 45952, Control_c, 0, 64, 127
2, 45959, Note_on_c, 0, 68, 0
2, 45968, Note_on_c, 0, 54, 31
2, 45982, Note_on_c, 0, 54, 0
2, 45994, Control_c, 0, 64, 0
2, 46004, Note_on_c, 0, 66, 48
2, 46005, Note_on_c, 0, 62, 55
2, 46009, Note_on_c, 0, 57, 38
2, 46009, Note_on_c, 0, 47, 41
2, 46022, Control_c, 0, 64, 127
2, 46027, Note_on_c, 0, 57, 0
2, 46043, Note_on_c, 0, 62, 0
2, 46059, Note_on_c, 0, 66, 0
2, 46074, Note_on_c, 0, 54, 46
2, 46164, Note_on_c, 0, 73, 67
2, 46167, Note_on_c, 0, 69, 76
2, 46168, Note_on_c, 0, 54, 0
2, 46169, Note_on_c, 0, 57, 52
2, 46188, Note_on_c, 0, 69, 0
2, 46207, Control_c, 0, 64, 0
2, 46215, Note_on_c, 0, 71, 67
2, 46217, Note_on_c, 0, 74, 67
2, 46219, Control_c, 0, 64, 127
2, 46231, Note_on_c, 0, 73, 0
2, 46259, Note_on_c, 0, 71, 0
2, 46268, Note_on_c, 0, 74, 0
2, 46270, Note_on_c, 0, 57, 0
2, 46280, Note_on_c, 0, 73, 52
2, 46281, Note_on_c, 0, 76, 64
2, 46283, Note_on_c, 0, 54, 37
2, 46294, Note_on_c, 0, 54, 0
2, 46296, Note_on_c, 0, 47, 0
2, 46310, Note_on_c, 0, 76, 0
2, 46320, Note_on_c, 0, 73, 0
2, 46361, Control_c, 0, 64, 0
2, 46364, Note_on_c, 0, 74, 68
2, 46364, Note_on_c, 0, 77, 64
2, 46368, Note_on_c, 0, 43, 54
2, 46375, Note_on_c, 0, 43, 0
2, 46385, Control_c, 0, 64, 127
2, 46446, Note_on_c, 0, 74, 0
2, 46452, Note_on_c, 0, 77, 0
2, 46452, Note_on_c, 0, 57, 53
2, 46455, Note_on_c, 0, 62, 31
2, 46455, Note_on_c, 0, 58, 37
2, 46459, Note_on_c, 0, 53, 43
2, 46541, Note_on_c, 0, 62, 0
2, 46553, Note_on_c, 0, 58, 0
2, 46559, Note_on_c, 0, 79, 67
2, 46562, Note_on_c, 0, 76, 74
2, 46565, Note_on_c, 0, 57, 0
2, 46589, Note_on_c, 0, 76, 0
2, 46604, Note_on_c, 0, 79, 0
2, 46612, Control_c, 0, 64, 0
2, 46618, Note_on_c, 0, 77, 70
2, 46618, Note_on_c, 0, 81, 76
2, 46619, Note_on_c, 0, 57, 37
2, 46620, Note_on_c, 0, 62, 56
2, 46621, Note_on_c, 0, 58, 46
2, 46625, Note_on_c, 0, 53, 0
2, 46630, Control_c, 0, 64, 127
2, 46660, Note_on_c, 0, 77, 0
2, 46672, Note_on_c, 0, 81, 0
2, 46687, Note_on_c, 0, 82, 83
2, 46690, Note_on_c, 0, 79, 71
2, 46691, Note_on_c, 0, 53, 44
2, 46703, Note_on_c, 0, 62, 0
2, 46706, Note_on_c, 0, 57, 0
2, 46712, Note_on_c, 0, 58, 0
2, 46718, Note_on_c, 0, 53, 0
2, 46724, Note_on_c, 0, 79, 0
2, 46742, Note_on_c, 0, 82, 0
2, 46765, Note_on_c, 0, 79, 78
2, 46765, Note_on_c, 0, 84, 76
2, 46766, Control_c, 0, 64, 0
2, 46770, Note_on_c, 0, 39, 37
2, 46770, Note_on_c, 0, 72, 64
2, 46773, Note_on_c, 0, 74, 43
2, 46777, Note_on_c, 0, 39, 0
2, 46781, Note_on_c, 0, 74, 0
2, 46792, Control_c, 0, 64, 127
2, 46816, Note_on_c, 0, 84, 0
2, 46824, Note_on_c, 0, 72, 0
2, 46835, Note_on_c, 0, 79, 0
2, 46840, Note_on_c, 0, 46, 46
2, 46847, Note_on_c, 0, 86, 69
2, 46849, Note_on_c, 0, 82, 59
2, 46849, Note_on_c, 0, 79, 64
2, 46849, Note_on_c, 0, 74, 61
2, 46873, Note_on_c, 0, 74, 0
2, 46877, Note_on_c, 0, 79, 0
2, 46881, Note_on_c, 0, 86, 0
2, 46887, Note_on_c, 0, 82, 0
2, 46920, Note_on_c, 0, 55, 61
2, 46923, Note_on_c, 0, 46, 0
2, 46924, Note_on_c, 0, 87, 69
2, 46925, Note_on_c, 0, 75, 74
2, 46928, Note_on_c, 0, 82, 53
2, 46932, Note_on_c, 0, 55, 0
2, 46936, Note_on_c, 0, 82, 0
2, 46945, Note_on_c, 0, 75, 0
2, 46953, Note_on_c, 0, 87, 0
2, 46987, Note_on_c, 0, 89, 74
2, 46989, Note_on_c, 0, 77, 64
2, 46990, Note_on_c, 0, 84, 62
2, 47018, Note_on_c, 0, 89, 0
2, 47022, Note_on_c, 0, 84, 0
2, 47023, Note_on_c, 0, 77, 0
2, 47054, Note_on_c, 0, 79, 60
2, 47054, Note_on_c, 0, 91, 63
2, 47055, Note_on_c, 0, 62, 32
2, 47057, Note_on_c, 0, 58, 39
2, 47058, Note_on_c, 0, 87, 42
2, 47061, Note_on_c, 0, 84, 32
2, 47066, Note_on_c, 0, 62, 0
2, 47068, Note_on_c, 0, 84, 0
2, 47077, Note_on_c, 0, 79, 0
2, 47082, Note_on_c, 0, 87, 0
2, 47082, Note_on_c, 0, 91, 0
2, 47108, Note_on_c, 0, 58, 0
2, 47134, Note_on_c, 0, 93, 62
2, 47136, Note_on_c, 0, 50, 47
2, 47138, Control_c, 0, 64, 0
2, 47139, Note_on_c, 0, 86, 39
2, 47140, Note_on_c, 0, 81, 28
2, 47141, Note_on_c, 0, 89, 34
2, 47154, Control_c, 0, 64, 127
2, 47160, Note_on_c, 0, 86, 0
2, 47161, Note_on_c, 0, 81, 0
2, 47164, Note_on_c, 0, 89, 0
2, 47172, Note_on_c, 0, 93, 0
2, 47221, Note_on_c, 0, 96, 58
2, 47221, Note_on_c, 0, 57, 35
2, 47223, Note_on_c, 0, 60, 32
2, 47224, Note_on_c, 0, 84, 34
2, 47234, Note_on_c, 0, 84, 0
2, 47243, Note_on_c, 0, 96, 0
2, 47256, Note_on_c, 0, 60, 0
2, 47282, Note_on_c, 0, 57, 0
2, 47310, Note_on_c, 0, 57, 26
2, 47311, Note_on_c, 0, 100, 38
2, 47312, Note_on_c, 0, 60, 32
2, 47313, Note_on_c, 0, 50, 0
2, 47313, Note_on_c, 0, 88, 29
2, 47320, Note_on_c, 0, 88, 0
2, 47324, Note_on_c, 0, 100, 0
2, 47325, Note_on_c, 0, 53, 15
2, 47372, Note_on_c, 0, 103, 55
2, 47374, Note_on_c, 0, 91, 53
2, 47394, Note_on_c, 0, 91, 0
2, 47397, Note_on_c, 0, 103, 0
2, 47444, Note_on_c, 0, 50, 26
2, 47446, Note_on_c, 0, 104, 50
2, 47448, Note_on_c, 0, 92, 36
2, 47450, Note_on_c, 0, 60, 0
2, 47450, Note_on_c, 0, 57, 0
2, 47457, Note_on_c, 0, 53, 0
2, 47464, Note_on_c, 0, 50, 0
2, 47482, Note_on_c, 0, 104, 0
2, 47483, Note_on_c, 0, 92, 0
2, 47517, Note_on_c, 0, 105, 50
2, 47517, Note_on_c, 0, 93, 57
2, 47520, Note_on_c, 0, 48, 45
2, 47529, Control_c, 0, 64, 0
2, 47543, Note_on_c, 0, 105, 0
2, 47549, Control_c, 0, 64, 127
2, 47559, Note_on_c, 0, 93, 0
2, 47609, Note_on_c, 0, 55, 44
2, 47692, Note_on_c, 0, 69, 62
2, 47700, Note_on_c, 0, 63, 40
2, 47711, Note_on_c, 0, 62, 29
2, 47715, Note_on_c, 0, 55, 0
2, 47799, Note_on_c, 0, 55, 37
2, 47804, Note_on_c, 0, 62, 0
2, 47808, Note_on_c, 0, 55, 0
2, 47815, Note_on_c, 0, 63, 0
2, 47820, Note_on_c, 0, 69, 0
2, 47878, Note_on_c, 0, 69, 51
2, 47882, Note_on_c, 0, 63, 34
2, 47887, Note_on_c, 0, 62, 36
2, 47888, Note_on_c, 0, 55, 35
2, 47926, Note_on_c, 0, 62, 0
2, 47926, Note_on_c, 0, 48, 0
2, 47939, Note_on_c, 0, 69, 0
2, 47939, Note_on_c, 0, 63, 0
2, 47972, Note_on_c, 0, 48, 44
2, 48029, Note_on_c, 0, 55, 0
2, 48067, Note_on_c, 0, 79, 62
2, 48072, Note_on_c, 0, 55, 33
2, 48076, Note_on_c, 0, 79, 0
2, 48083, Note_on_c, 0, 55, 0
2, 48100, Control_c, 0, 64, 0
2, 48118, Note_on_c, 0, 86, 77
2, 48134, Note_on_c, 0, 86, 0
2, 48155, Control_c, 0, 64, 127
2, 48175, Note_on_c, 0, 86, 77
2, 48187, Note_on_c, 0, 55, 2
2, 48197, Note_on_c, 0, 86, 0
2, 48205, Note_on_c, 0, 55, 0
2, 48220, Note_on_c, 0, 48, 0
2, 48220, Note_on_c, 0, 82, 57
2, 48231, Note_on_c, 0, 82, 0
2, 48277, Note_on_c, 0, 82, 68
2, 48313, Note_on_c, 0, 47, 53
2, 48315, Control_c, 0, 64, 0
2, 48318, Note_on_c, 0, 78, 54
2, 48321, Note_on_c, 0, 47, 0
2, 48323, Control_c, 0, 64, 127
2, 48353, Note_on_c, 0, 78, 0
2, 48379, Note_on_c, 0, 78, 54
2, 48399, Note_on_c, 0, 82, 0
2, 48405, Note_on_c, 0, 78, 0
2, 48417, Note_on_c, 0, 74, 48
2, 48427, Note_on_c, 0, 74, 0
2, 48473, Note_on_c, 0, 74, 66
2, 48475, Control_c, 0, 64, 0
2, 48489, Note_on_c, 0, 74, 0
2, 48506, Note_on_c, 0, 66, 39
2, 48510, Note_on_c, 0, 61, 36
2, 48511, Note_on_c, 0, 76, 56
2, 48513, Note_on_c, 0, 57, 47
2, 48515, Note_on_c, 0, 62, 35
2, 48520, Note_on_c, 0, 76, 0
2, 48562, Control_c, 0, 64, 127
2, 48571, Note_on_c, 0, 76, 71
2, 48589, Note_on_c, 0, 76, 0
2, 48605, Note_on_c, 0, 66, 0
2, 48614, Note_on_c, 0, 71, 36
2, 48623, Note_on_c, 0, 62, 0
2, 48633, Note_on_c, 0, 71, 0
2, 48634, Note_on_c, 0, 61, 0
2, 48636, Note_on_c, 0, 57, 0
2, 48669, Note_on_c, 0, 71, 54
2, 48686, Note_on_c, 0, 71, 0
2, 48707, Note_on_c, 0, 48, 46
2, 48707, Note_on_c, 0, 74, 57
2, 48708, Note_on_c, 0, 55, 39
2, 48708, Control_c, 0, 64, 0
2, 48721, Note_on_c, 0, 74, 0
2, 48768, Note_on_c, 0, 74, 66
2, 48781, Note_on_c, 0, 74, 0
2, 48806, Note_on_c, 0, 71, 36
2, 48823, Note_on_c, 0, 71, 0
2, 48843, Control_c, 0, 64, 127
2, 48865, Note_on_c, 0, 71, 62
2, 48882, Note_on_c, 0, 71, 0
2, 48887, Control_c, 0, 64, 0
2, 48897, Note_on_c, 0, 60, 32
2, 48903, Note_on_c, 0, 67, 44
2, 48909, Control_c, 0, 64, 127
2, 48926, Note_on_c, 0, 67, 0
2, 48939, Note_on_c, 0, 48, 0
2, 48957, Note_on_c, 0, 67, 51
2, 48970, Note_on_c, 0, 60, 0
2, 48981, Note_on_c, 0, 67, 0
2, 48995, Note_on_c, 0, 48, 32
2, 48998, Note_on_c, 0, 64, 47
2, 49003, Note_on_c, 0, 55, 0
2, 49013, Note_on_c, 0, 64, 0
2, 49018, Note_on_c, 0, 48, 0
2, 49050, Note_on_c, 0, 64, 58
2, 49069, Note_on_c, 0, 64, 0
2, 49093, Note_on_c, 0, 62, 65
2, 49096, Note_on_c, 0, 64, 46
2, 49097, Control_c, 0, 64, 0
2, 49100, Note_on_c, 0, 41, 47
2, 49133, Control_c, 0, 64, 127
2, 49161, Note_on_c, 0, 57, 48
2, 49185, Note_on_c, 0, 62, 0
2, 49187, Note_on_c, 0, 64, 0
2, 49187, Note_on_c, 0, 57, 0
2, 49235, Note_on_c, 0, 48, 55
2, 49248, Note_on_c, 0, 41, 0
2, 49275, Note_on_c, 0, 48, 0
2, 49290, Note_on_c, 0, 57, 55
2, 49308, Note_on_c, 0, 57, 0
2, 49366, Note_on_c, 0, 81, 85
2, 49367, Note_on_c, 0, 74, 91
2, 49367, Note_on_c, 0, 60, 53
2, 49399, Note_on_c, 0, 60, 0
2, 49424, Note_on_c, 0, 74, 0
2, 49424, Note_on_c, 0, 81, 0
2, 49426, Note_on_c, 0, 79, 57
2, 49464, Note_on_c, 0, 76, 47
2, 49470, Note_on_c, 0, 79, 0
2, 49481, Note_on_c, 0, 76, 0
2, 49505, Note_on_c, 0, 52, 57
2, 49506, Control_c, 0, 64, 0
2, 49566, Note_on_c, 0, 85, 86
2, 49566, Note_on_c, 0, 73, 63
2, 49570, Note_on_c, 0, 59, 50
2, 49595, Note_on_c, 0, 73, 0
2, 49599, Note_on_c, 0, 85, 0
2, 49605, Note_on_c, 0, 81, 58
2, 49634, Note_on_c, 0, 81, 0
2, 49639, Note_on_c, 0, 78, 53
2, 49651, Control_c, 0, 64, 127
2, 49663, Note_on_c, 0, 78, 0
2, 49689, Note_on_c, 0, 52, 0
2, 49699, Control_c, 0, 64, 0
2, 49720, Note_on_c, 0, 52, 54
2, 49735, Control_c, 0, 64, 127
2, 49781, Note_on_c, 0, 90, 72
2, 49787, Note_on_c, 0, 64, 64
2, 49797, Note_on_c, 0, 64, 0
2, 49799, Control_c, 0, 64, 0
2, 49803, Control_c, 0, 64, 127
2, 49813, Note_on_c, 0, 59, 0
2, 49814, Note_on_c, 0, 86, 59
2, 49816, Note_on_c, 0, 90, 0
2, 49824, Note_on_c, 0, 52, 0
2, 49843, Note_on_c, 0, 86, 0
2, 49845, Note_on_c, 0, 83, 37
2, 49866, Note_on_c, 0, 83, 0
2, 49876, Note_on_c, 0, 79, 36
2, 49892, Note_on_c, 0, 45, 54
2, 49894, Note_on_c, 0, 79, 0
2, 49895, Control_c, 0, 64, 0
2, 49896, Note_on_c, 0, 52, 49
2, 49901, Note_on_c, 0, 45, 0
2, 49908, Note_on_c, 0, 88, 79
2, 49910, Control_c, 0, 64, 127
2, 49913, Note_on_c, 0, 52, 0
2, 49940, Note_on_c, 0, 88, 0
2, 49952, Note_on_c, 0, 83, 52
2, 49979, Note_on_c, 0, 83, 0
2, 49979, Note_on_c, 0, 79, 39
2, 50000, Note_on_c, 0, 79, 0
2, 50004, Note_on_c, 0, 76, 45
2, 50012, Control_c, 0, 64, 0
2, 50014, Note_on_c, 0, 76, 0
2, 50052, Control_c, 0, 64, 127
2, 50070, Control_c, 0, 64, 0
2, 50072, Note_on_c, 0, 64, 51
2, 50074, Note_on_c, 0, 60, 55
2, 50075, Note_on_c, 0, 59, 45
2, 50076, Note_on_c, 0, 55, 49
2, 50144, Note_on_c, 0, 84, 76
2, 50144, Control_c, 0, 64, 127
2, 50150, Note_on_c, 0, 64, 0
2, 50154, Note_on_c, 0, 60, 0
2, 50155, Note_on_c, 0, 59, 0
2, 50162, Note_on_c, 0, 55, 0
2, 50162, Note_on_c, 0, 81, 37
2, 50175, Note_on_c, 0, 84, 0
2, 50200, Note_on_c, 0, 81, 0
2, 50202, Note_on_c, 0, 77, 15
2, 50221, Note_on_c, 0, 77, 0
2, 50223, Note_on_c, 0, 72, 41
2, 50235, Note_on_c, 0, 72, 0
2, 50253, Control_c, 0, 64, 0
2, 50254, Note_on_c, 0, 81, 80
2, 50254, Note_on_c, 0, 43, 44
2, 50255, Note_on_c, 0, 41, 44
2, 50262, Note_on_c, 0, 41, 0
2, 50270, Note_on_c, 0, 43, 0
2, 50283, Control_c, 0, 64, 127
2, 50291, Note_on_c, 0, 77, 50
2, 50312, Note_on_c, 0, 81, 0
2, 50315, Note_on_c, 0, 74, 33
2, 50322, Note_on_c, 0, 77, 0
2, 50340, Note_on_c, 0, 74, 0
2, 50350, Note_on_c, 0, 69, 30
2, 50364, Note_on_c, 0, 69, 0
2, 50377, Control_c, 0, 64, 0
2, 50378, Note_on_c, 0, 77, 67
2, 50380, Note_on_c, 0, 62, 37
2, 50381, Note_on_c, 0, 58, 40
2, 50382, Note_on_c, 0, 57, 34
2, 50384, Note_on_c, 0, 53, 33
2, 50421, Control_c, 0, 64, 127
2, 50429, Note_on_c, 0, 77, 0
2, 50461, Control_c, 0, 64, 0
2, 50469, Note_on_c, 0, 74, 75
2, 50485, Control_c, 0, 64, 127
2, 50493, Note_on_c, 0, 62, 0
2, 50507, Note_on_c, 0, 58, 0
2, 50516, Note_on_c, 0, 57, 0
2, 50519, Note_on_c, 0, 74, 0
2, 50538, Note_on_c, 0, 70, 68
2, 50545, Note_on_c, 0, 58, 37
2, 50547, Note_on_c, 0, 62, 31
2, 50551, Control_c, 0, 64, 0
2, 50554, Note_on_c, 0, 62, 0
2, 50565, Note_on_c, 0, 58, 0
2, 50565, Note_on_c, 0, 69, 43
2, 50571, Control_c, 0, 64, 127
2, 50573, Note_on_c, 0, 53, 0
2, 50576, Note_on_c, 0, 70, 0
2, 50587, Note_on_c, 0, 69, 0
2, 50595, Note_on_c, 0, 65, 43
2, 50615, Note_on_c, 0, 65, 0
2, 50629, Note_on_c, 0, 62, 40
2, 50650, Note_on_c, 0, 62, 0
2, 50666, Note_on_c, 0, 39, 38
2, 50667, Note_on_c, 0, 69, 64
2, 50668, Control_c, 0, 64, 0
2, 50668, Note_on_c, 0, 62, 45
2, 50669, Note_on_c, 0, 46, 37
2, 50690, Control_c, 0, 64, 127
2, 50722, Note_on_c, 0, 62, 0
2, 50731, Note_on_c, 0, 62, 20
2, 50736, Control_c, 0, 64, 0
2, 50736, Note_on_c, 0, 55, 47
2, 50738, Note_on_c, 0, 57, 38
2, 50754, Control_c, 0, 64, 127
2, 50787, Note_on_c, 0, 46, 0
2, 50816, Note_on_c, 0, 55, 0
2, 50822, Note_on_c, 0, 57, 0
2, 50831, Note_on_c, 0, 46, 60
2, 50839, Note_on_c, 0, 39, 0
2, 50869, Note_on_c, 0, 62, 0
2, 50917, Note_on_c, 0, 69, 0
2, 50928, Note_on_c, 0, 55, 54
2, 50945, Note_on_c, 0, 55, 0
2, 51008, Note_on_c, 0, 46, 0
2, 51021, Control_c, 0, 64, 0
2, 51024, Note_on_c, 0, 74, 63
2, 51025, Note_on_c, 0, 62, 59
2, 51026, Note_on_c, 0, 60, 65
2, 51026, Note_on_c, 0, 67, 53
2, 51028, Note_on_c, 0, 44, 42
2, 51029, Note_on_c, 0, 51, 43
2, 51043, Note_on_c, 0, 60, 0
2, 51045, Control_c, 0, 64, 127
2, 51051, Note_on_c, 0, 62, 0
2, 51054, Note_on_c, 0, 67, 0
2, 51059, Note_on_c, 0, 51, 0
2, 51061, Note_on_c, 0, 44, 0
2, 51066, Note_on_c, 0, 74, 0
2, 51131, Note_on_c, 0, 86, 74
2, 51157, Note_on_c, 0, 86, 0
2, 51161, Control_c, 0, 64, 0
2, 51171, Note_on_c, 0, 72, 36
2, 51172, Note_on_c, 0, 74, 39
2, 51176, Note_on_c, 0, 79, 36
2, 51182, Note_on_c, 0, 82, 19
2, 51189, Note_on_c, 0, 82, 0
2, 51190, Note_on_c, 0, 72, 0
2, 51190, Note_on_c, 0, 74, 0
2, 51194, Note_on_c, 0, 79, 0
2, 51232, Note_on_c, 0, 51, 53
2, 51232, Note_on_c, 0, 44, 46
2, 51239, Note_on_c, 0, 51, 0
2, 51241, Note_on_c, 0, 44, 0
2, 51274, Note_on_c, 0, 79, 48
2, 51277, Note_on_c, 0, 74, 36
2, 51278, Note_on_c, 0, 72, 33
2, 51299, Note_on_c, 0, 72, 0
2, 51302, Note_on_c, 0, 74, 0
2, 51311, Note_on_c, 0, 79, 0
2, 51326, Note_on_c, 0, 86, 72
2, 51347, Note_on_c, 0, 86, 0
2, 51357, Note_on_c, 0, 44, 36
2, 51358, Note_on_c, 0, 51, 43
2, 51359, Note_on_c, 0, 74, 42
2, 51360, Note_on_c, 0, 72, 38
2, 51361, Note_on_c, 0, 79, 47
2, 51378, Note_on_c, 0, 72, 0
2, 51379, Note_on_c, 0, 74, 0
2, 51379, Note_on_c, 0, 44, 0
2, 51380, Note_on_c, 0, 51, 0
2, 51380, Note_on_c, 0, 79, 0
2, 51425, Note_on_c, 0, 45, 76
2, 51441, Note_on_c, 0, 45, 0
2, 51466, Note_on_c, 0, 83, 42
2, 51467, Note_on_c, 0, 72, 36
2, 51467, Note_on_c, 0, 79, 40
2, 51467, Note_on_c, 0, 74, 42
2, 51483, Note_on_c, 0, 72, 0
2, 51486, Note_on_c, 0, 74, 0
2, 51486, Note_on_c, 0, 79, 0
2, 51501, Note_on_c, 0, 83, 0
2, 51520, Note_on_c, 0, 64, 52
2, 51522, Note_on_c, 0, 60, 49
2, 51525, Note_on_c, 0, 86, 50
2, 51525, Note_on_c, 0, 88, 54
2, 51527, Note_on_c, 0, 64, 0
2, 51527, Note_on_c, 0, 59, 32
2, 51532, Note_on_c, 0, 88, 0
2, 51532, Note_on_c, 0, 55, 20
2, 51534, Note_on_c, 0, 60, 0
2, 51535, Note_on_c, 0, 59, 0
2, 51539, Note_on_c, 0, 55, 0
2, 51542, Note_on_c, 0, 86, 0
2, 51564, Note_on_c, 0, 83, 52
2, 51570, Note_on_c, 0, 79, 28
2, 51571, Note_on_c, 0, 76, 20
2, 51579, Note_on_c, 0, 76, 0
2, 51581, Note_on_c, 0, 79, 0
2, 51593, Note_on_c, 0, 83, 0
2, 51616, Note_on_c, 0, 45, 59
2, 51623, Note_on_c, 0, 45, 0
2, 51650, Note_on_c, 0, 83, 46
2, 51682, Note_on_c, 0, 83, 0
2, 51687, Control_c, 0, 64, 127
2, 51708, Note_on_c, 0, 88, 78
2, 51708, Note_on_c, 0, 64, 69
2, 51711, Note_on_c, 0, 55, 45
2, 51712, Note_on_c, 0, 60, 54
2, 51713, Note_on_c, 0, 59, 46
2, 51715, Note_on_c, 0, 64, 0
2, 51719, Control_c, 0, 64, 0
2, 51720, Note_on_c, 0, 60, 0
2, 51721, Note_on_c, 0, 59, 0
2, 51728, Note_on_c, 0, 88, 0
2, 51732, Note_on_c, 0, 55, 0
2, 51748, Note_on_c, 0, 84, 44
2, 51753, Note_on_c, 0, 77, 17
2, 51757, Control_c, 0, 64, 127
2, 51765, Note_on_c, 0, 77, 0
2, 51776, Note_on_c, 0, 84, 0
2, 51800, Note_on_c, 0, 38, 66
2, 51807, Control_c, 0, 64, 0
2, 51814, Note_on_c, 0, 38, 0
2, 51838, Note_on_c, 0, 84, 60
2, 51840, Note_on_c, 0, 77, 52
2, 51843, Control_c, 0, 64, 127
2, 51860, Note_on_c, 0, 77, 0
2, 51868, Note_on_c, 0, 84, 0
2, 51891, Note_on_c, 0, 60, 74
2, 51893, Note_on_c, 0, 57, 55
2, 51894, Note_on_c, 0, 89, 66
2, 51895, Note_on_c, 0, 91, 60
2, 51895, Note_on_c, 0, 77, 42
2, 51896, Note_on_c, 0, 53, 40
2, 51898, Note_on_c, 0, 60, 0
2, 51900, Note_on_c, 0, 57, 0
2, 51901, Note_on_c, 0, 91, 0
2, 51912, Note_on_c, 0, 53, 0
2, 51913, Note_on_c, 0, 89, 0
2, 51913, Note_on_c, 0, 77, 0
2, 51919, Control_c, 0, 64, 0
2, 51957, Control_c, 0, 64, 127
2, 51980, Note_on_c, 0, 38, 65
2, 51981, Control_c, 0, 64, 0
2, 51996, Note_on_c, 0, 38, 0
2, 52018, Note_on_c, 0, 89, 25
2, 52019, Control_c, 0, 64, 127
2, 52023, Note_on_c, 0, 77, 49
2, 52043, Note_on_c, 0, 89, 0
2, 52046, Note_on_c, 0, 77, 0
2, 52073, Note_on_c, 0, 93, 80
2, 52075, Note_on_c, 0, 81, 65
2, 52080, Note_on_c, 0, 60, 26
2, 52081, Note_on_c, 0, 91, 27
2, 52087, Note_on_c, 0, 60, 0
2, 52089, Note_on_c, 0, 91, 0
2, 52091, Note_on_c, 0, 81, 0
2, 52091, Note_on_c, 0, 93, 0
2, 52098, Control_c, 0, 64, 0
2, 52120, Note_on_c, 0, 77, 44
2, 52122, Control_c, 0, 64, 127
2, 52139, Note_on_c, 0, 77, 0
2, 52166, Note_on_c, 0, 43, 76
2, 52172, Control_c, 0, 64, 0
2, 52183, Note_on_c, 0, 43, 0
2, 52198, Control_c, 0, 64, 127
2, 52204, Note_on_c, 0, 88, 61
2, 52206, Note_on_c, 0, 76, 62
2, 52228, Note_on_c, 0, 76, 0
2, 52236, Note_on_c, 0, 88, 0
2, 52255, Note_on_c, 0, 58, 67
2, 52256, Note_on_c, 0, 62, 71
2, 52256, Note_on_c, 0, 53, 58
2, 52259, Note_on_c, 0, 93, 82
2, 52259, Note_on_c, 0, 57, 66
2, 52260, Note_on_c, 0, 81, 72
2, 52266, Note_on_c, 0, 57, 0
2, 52268, Note_on_c, 0, 62, 0
2, 52268, Note_on_c, 0, 81, 0
2, 52270, Control_c, 0, 64, 0
2, 52273, Note_on_c, 0, 58, 0
2, 52274, Note_on_c, 0, 93, 0
2, 52281, Note_on_c, 0, 53, 0
2, 52302, Control_c, 0, 64, 127
2, 52313, Note_on_c, 0, 49, 33
2, 52319, Note_on_c, 0, 49, 0
2, 52346, Control_c, 0, 64, 0
2, 52347, Note_on_c, 0, 43, 80
2, 52355, Note_on_c, 0, 50, 44
2, 52362, Note_on_c, 0, 50, 0
2, 52368, Note_on_c, 0, 43, 0
2, 52371, Control_c, 0, 64, 127
2, 52438, Note_on_c, 0, 62, 69
2, 52439, Note_on_c, 0, 53, 62
2, 52439, Note_on_c, 0, 58, 56
2, 52440, Note_on_c, 0, 86, 69
2, 52440, Note_on_c, 0, 77, 80
2, 52441, Note_on_c, 0, 57, 68
2, 52441, Note_on_c, 0, 89, 71
2, 52443, Control_c, 0, 64, 0
2, 52455, Note_on_c, 0, 77, 0
2, 52461, Note_on_c, 0, 89, 0
2, 52462, Note_on_c, 0, 86, 0
2, 52469, Control_c, 0, 64, 127
2, 52490, Note_on_c, 0, 53, 0
2, 52515, Note_on_c, 0, 57, 0
2, 52526, Note_on_c, 0, 53, 42
2, 52527, Note_on_c, 0, 62, 0
2, 52533, Note_on_c, 0, 58, 0
2, 52536, Note_on_c, 0, 53, 0
2, 52558, Control_c, 0, 64, 0
2, 52564, Note_on_c, 0, 87, 83
2, 52566, Note_on_c, 0, 48, 83
2, 52566, Note_on_c, 0, 91, 74
2, 52567, Note_on_c, 0, 79, 78
2, 52573, Note_on_c, 0, 89, 39
2, 52580, Control_c, 0, 64, 127
2, 52583, Note_on_c, 0, 89, 0
2, 52590, Note_on_c, 0, 91, 0
2, 52596, Note_on_c, 0, 87, 0
2, 52601, Note_on_c, 0, 79, 0
2, 52621, Note_on_c, 0, 55, 71
2, 52638, Note_on_c, 0, 55, 0
2, 52658, Note_on_c, 0, 55, 58
2, 52676, Note_on_c, 0, 48, 0
2, 52716, Note_on_c, 0, 62, 91
2, 52716, Note_on_c, 0, 67, 94
2, 52717, Note_on_c, 0, 74, 87
2, 52717, Note_on_c, 0, 63, 91
2, 52717, Note_on_c, 0, 70, 78
2, 52721, Note_on_c, 0, 64, 82
2, 52728, Control_c, 0, 64, 0
2, 52736, Note_on_c, 0, 64, 0
2, 52743, Note_on_c, 0, 63, 0
2, 52754, Control_c, 0, 64, 127
2, 52779, Note_on_c, 0, 62, 0
2, 52789, Note_on_c, 0, 67, 0
2, 52806, Note_on_c, 0, 70, 0
2, 52813, Note_on_c, 0, 60, 87
2, 52818, Note_on_c, 0, 74, 0
2, 52857, Note_on_c, 0, 69, 75
2, 52878, Note_on_c, 0, 60, 0
2, 52880, Note_on_c, 0, 69, 0
2, 52882, Note_on_c, 0, 55, 0
2, 52883, Note_on_c, 0, 70, 74
2, 52908, Note_on_c, 0, 70, 0
2, 52912, Note_on_c, 0, 74, 62
2, 52936, Note_on_c, 0, 74, 0
2, 52941, Note_on_c, 0, 77, 66
2, 52955, Note_on_c, 0, 77, 0
2, 52966, Note_on_c, 0, 60, 72
2, 52966, Note_on_c, 0, 53, 78
2, 52971, Note_on_c, 0, 70, 84
2, 52973, Control_c, 0, 64, 0
2, 52973, Note_on_c, 0, 82, 82
2, 53003, Control_c, 0, 64, 127
2, 53036, Note_on_c, 0, 70, 0
2, 53046, Note_on_c, 0, 53, 0
2, 53052, Note_on_c, 0, 67, 53
2, 53103, Note_on_c, 0, 67, 0
2, 53125, Note_on_c, 0, 75, 62
2, 53125, Note_on_c, 0, 68, 61
2, 53132, Note_on_c, 0, 65, 51
2, 53208, Note_on_c, 0, 82, 0
2, 53214, Note_on_c, 0, 75, 0
2, 53217, Note_on_c, 0, 53, 52
2, 53237, Note_on_c, 0, 65, 0
2, 53272, Note_on_c, 0, 60, 0
2, 53278, Note_on_c, 0, 53, 0
2, 53289, Note_on_c, 0, 68, 0
2, 53313, Note_on_c, 0, 75, 64
2, 53330, Note_on_c, 0, 75, 0
2, 53360, Note_on_c, 0, 78, 53
2, 53362, Control_c, 0, 64, 0
2, 53363, Note_on_c, 0, 52, 49
2, 53363, Note_on_c, 0, 71, 55
2, 53396, Control_c, 0, 64, 127
2, 53429, Note_on_c, 0, 59, 34
2, 53457, Note_on_c, 0, 71, 0
2, 53457, Note_on_c, 0, 52, 0
2, 53485, Note_on_c, 0, 78, 0
2, 53511, Note_on_c, 0, 66, 35
2, 53512, Note_on_c, 0, 71, 46
2, 53516, Note_on_c, 0, 67, 33
2, 53552, Note_on_c, 0, 59, 0
2, 53558, Note_on_c, 0, 66, 0
2, 53602, Note_on_c, 0, 59, 43
2, 53628, Note_on_c, 0, 59, 0
2, 53671, Note_on_c, 0, 67, 0
2, 53673, Note_on_c, 0, 74, 34
2, 53690, Note_on_c, 0, 71, 0
2, 53702, Note_on_c, 0, 74, 0
2, 53704, Note_on_c, 0, 78, 37
2, 53726, Note_on_c, 0, 78, 0
2, 53735, Note_on_c, 0, 76, 38
2, 53741, Note_on_c, 0, 47, 42
2, 53745, Control_c, 0, 64, 0
2, 53779, Control_c, 0, 64, 127
2, 53781, Note_on_c, 0, 76, 0
2, 53806, Note_on_c, 0, 54, 30
2, 53886, Note_on_c, 0, 64, 52
2, 53886, Note_on_c, 0, 66, 38
2, 53892, Note_on_c, 0, 59, 32
2, 53903, Note_on_c, 0, 64, 0
2, 53906, Note_on_c, 0, 66, 0
2, 53914, Note_on_c, 0, 59, 0
2, 53923, Note_on_c, 0, 66, 38
2, 53925, Note_on_c, 0, 64, 45
2, 53941, Note_on_c, 0, 64, 0
2, 53944, Note_on_c, 0, 62, 49
2, 53948, Note_on_c, 0, 66, 0
2, 53964, Note_on_c, 0, 62, 0
2, 53966, Control_c, 0, 64, 0
2, 53974, Note_on_c, 0, 59, 35
2, 53979, Note_on_c, 0, 66, 30
2, 53979, Note_on_c, 0, 64, 48
2, 54008, Control_c, 0, 64, 127
2, 54039, Note_on_c, 0, 59, 0
2, 54045, Note_on_c, 0, 64, 0
2, 54048, Note_on_c, 0, 66, 0
2, 54068, Note_on_c, 0, 59, 33
2, 54068, Note_on_c, 0, 66, 33
2, 54068, Note_on_c, 0, 64, 41
2, 54078, Note_on_c, 0, 64, 0
2, 54081, Note_on_c, 0, 66, 0
2, 54105, Note_on_c, 0, 59, 0
2, 54138, Control_c, 0, 64, 0
2, 54151, Note_on_c, 0, 59, 46
2, 54151, Note_on_c, 0, 64, 62
2, 54151, Note_on_c, 0, 66, 38
2, 54158, Note_on_c, 0, 64, 0
2, 54159, Note_on_c, 0, 66, 0
2, 54187, Note_on_c, 0, 59, 0
2, 54216, Note_on_c, 0, 66, 47
2, 54218, Note_on_c, 0, 64, 50
2, 54225, Note_on_c, 0, 64, 0
2, 54226, Control_c, 0, 64, 127
2, 54229, Note_on_c, 0, 59, 25
2, 54231, Note_on_c, 0, 66, 0
2, 54240, Note_on_c, 0, 66, 29
2, 54243, Note_on_c, 0, 64, 63
2, 54251, Note_on_c, 0, 47, 0
2, 54262, Note_on_c, 0, 66, 0
2, 54262, Note_on_c, 0, 64, 0
2, 54267, Note_on_c, 0, 62, 74
2, 54278, Note_on_c, 0, 62, 0
2, 54282, Control_c, 0, 64, 0
2, 54285, Note_on_c, 0, 47, 46
2, 54288, Note_on_c, 0, 64, 59
2, 54289, Note_on_c, 0, 66, 45
2, 54318, Control_c, 0, 64, 127
2, 54329, Note_on_c, 0, 59, 0
2, 54338, Note_on_c, 0, 64, 0
2, 54342, Note_on_c, 0, 66, 0
2, 54371, Note_on_c, 0, 66, 37
2, 54371, Note_on_c, 0, 64, 55
2, 54374, Note_on_c, 0, 59, 27
2, 54383, Note_on_c, 0, 64, 0
2, 54387, Note_on_c, 0, 66, 0
2, 54388, Note_on_c, 0, 59, 0
2, 54441, Note_on_c, 0, 47, 0
2, 54441, Note_on_c, 0, 66, 56
2, 54441, Note_on_c, 0, 64, 71
2, 54449, Note_on_c, 0, 54, 0
2, 54450, Note_on_c, 0, 64, 0
2, 54471, Note_on_c, 0, 66, 0
2, 54477, Note_on_c, 0, 62, 57
2, 54490, Note_on_c, 0, 62, 0
2, 54509, Control_c, 0, 64, 0
2, 54509, Note_on_c, 0, 39, 56
2, 54513, Note_on_c, 0, 65, 68
2, 54533, Control_c, 0, 64, 127
2, 54572, Note_on_c, 0, 46, 45
2, 54582, Note_on_c, 0, 65, 0
2, 54588, Note_on_c, 0, 39, 0
2, 54597, Note_on_c, 0, 54, 56
2, 54600, Note_on_c, 0, 46, 0
2, 54613, Note_on_c, 0, 54, 0
2, 54617, Note_on_c, 0, 58, 52
2, 54634, Note_on_c, 0, 58, 0
2, 54635, Note_on_c, 0, 65, 60
2, 54641, Note_on_c, 0, 65, 0
2, 54665, Note_on_c, 0, 66, 29
2, 54676, Note_on_c, 0, 70, 63
2, 54682, Note_on_c, 0, 66, 0
2, 54694, Note_on_c, 0, 70, 0
2, 54701, Note_on_c, 0, 77, 71
2, 54703, Note_on_c, 0, 70, 51
2, 54704, Note_on_c, 0, 65, 78
2, 54710, Note_on_c, 0, 66, 70
2, 54716, Control_c, 0, 64, 0
2, 54740, Control_c, 0, 64, 127
2, 54753, Note_on_c, 0, 73, 59
2, 54755, Note_on_c, 0, 63, 64
2, 54759, Note_on_c, 0, 75, 42
2, 54760, Note_on_c, 0, 77, 0
2, 54767, Note_on_c, 0, 65, 0
2, 54820, Note_on_c, 0, 70, 0
2, 54831, Note_on_c, 0, 66, 0
2, 54843, Note_on_c, 0, 70, 53
2, 54843, Note_on_c, 0, 66, 23
2, 54857, Note_on_c, 0, 63, 0
2, 54868, Note_on_c, 0, 66, 0
2, 54908, Note_on_c, 0, 70, 0
2, 54909, Note_on_c, 0, 75, 0
2, 54909, Note_on_c, 0, 66, 55
2, 54910, Note_on_c, 0, 73, 0
2, 54924, Note_on_c, 0, 66, 0
2, 54934, Note_on_c, 0, 52, 25
2, 54968, Note_on_c, 0, 63, 32
2, 54971, Note_on_c, 0, 52, 0
2, 54972, Control_c, 0, 64, 0
2, 54973, Note_on_c, 0, 71, 60
2, 54973, Note_on_c, 0, 60, 60
2, 54977, Note_on_c, 0, 64, 62
2, 54978, Note_on_c, 0, 45, 60
2, 54983, Note_on_c, 0, 63, 0
2, 55000, Control_c, 0, 64, 127
2, 55042, Note_on_c, 0, 52, 68
2, 55043, Note_on_c, 0, 45, 0
2, 55055, Note_on_c, 0, 60, 0
2, 55057, Note_on_c, 0, 64, 0
2, 55058, Note_on_c, 0, 52, 0
2, 55095, Note_on_c, 0, 71, 0
2, 55125, Note_on_c, 0, 64, 74
2, 55125, Note_on_c, 0, 59, 67
2, 55126, Note_on_c, 0, 60, 72
2, 55131, Note_on_c, 0, 55, 55
2, 55165, Note_on_c, 0, 55, 0
2, 55190, Note_on_c, 0, 83, 90
2, 55190, Note_on_c, 0, 76, 101
2, 55195, Note_on_c, 0, 82, 37
2, 55202, Note_on_c, 0, 82, 0
2, 55222, Note_on_c, 0, 64, 0
2, 55222, Note_on_c, 0, 83, 0
2, 55225, Note_on_c, 0, 76, 0
2, 55227, Note_on_c, 0, 72, 46
2, 55228, Note_on_c, 0, 79, 36
2, 55247, Note_on_c, 0, 72, 0
2, 55248, Note_on_c, 0, 60, 0
2, 55255, Note_on_c, 0, 79, 0
2, 55264, Note_on_c, 0, 60, 36
2, 55266, Note_on_c, 0, 76, 77
2, 55266, Note_on_c, 0, 64, 62
2, 55266, Note_on_c, 0, 83, 71
2, 55271, Control_c, 0, 64, 0
2, 55291, Control_c, 0, 64, 127
2, 55294, Note_on_c, 0, 76, 0
2, 55298, Note_on_c, 0, 83, 0
2, 55305, Note_on_c, 0, 79, 55
2, 55330, Note_on_c, 0, 79, 0
2, 55332, Note_on_c, 0, 64, 0
2, 55342, Note_on_c, 0, 76, 83
2, 55343, Note_on_c, 0, 83, 74
2, 55348, Note_on_c, 0, 55, 42
2, 55350, Note_on_c, 0, 60, 0
2, 55352, Note_on_c, 0, 59, 0
2, 55357, Note_on_c, 0, 55, 0
2, 55376, Note_on_c, 0, 83, 0
2, 55380, Note_on_c, 0, 76, 0
2, 55420, Control_c, 0, 64, 0
2, 55421, Note_on_c, 0, 48, 58
2, 55421, Note_on_c, 0, 86, 72
2, 55426, Note_on_c, 0, 79, 51
2, 55444, Note_on_c, 0, 79, 0
2, 55446, Control_c, 0, 64, 127
2, 55452, Note_on_c, 0, 86, 0
2, 55465, Note_on_c, 0, 82, 37
2, 55471, Note_on_c, 0, 55, 45
2, 55474, Note_on_c, 0, 48, 0
2, 55480, Note_on_c, 0, 55, 0
2, 55486, Note_on_c, 0, 82, 0
2, 55501, Note_on_c, 0, 75, 52
2, 55501, Note_on_c, 0, 86, 56
2, 55505, Note_on_c, 0, 79, 35
2, 55508, Note_on_c, 0, 82, 20
2, 55515, Note_on_c, 0, 82, 0
2, 55516, Note_on_c, 0, 79, 0
2, 55528, Note_on_c, 0, 86, 0
2, 55528, Note_on_c, 0, 75, 0
2, 55541, Note_on_c, 0, 82, 48
2, 55568, Note_on_c, 0, 82, 0
2, 55583, Note_on_c, 0, 86, 66
2, 55584, Note_on_c, 0, 75, 59
2, 55586, Note_on_c, 0, 62, 47
2, 55587, Note_on_c, 0, 63, 31
2, 55588, Note_on_c, 0, 79, 25
2, 55588, Note_on_c, 0, 58, 46
2, 55589, Note_on_c, 0, 67, 45
2, 55596, Note_on_c, 0, 79, 0
2, 55610, Note_on_c, 0, 75, 0
2, 55612, Note_on_c, 0, 86, 0
2, 55624, Note_on_c, 0, 82, 42
2, 55626, Note_on_c, 0, 67, 0
2, 55643, Note_on_c, 0, 63, 0
2, 55645, Note_on_c, 0, 62, 0
2, 55650, Note_on_c, 0, 82, 0
2, 55665, Note_on_c, 0, 86, 66
2, 55667, Note_on_c, 0, 75, 53
2, 55691, Note_on_c, 0, 75, 0
2, 55695, Note_on_c, 0, 86, 0
2, 55706, Note_on_c, 0, 82, 49
2, 55725, Note_on_c, 0, 82, 0
2, 55749, Note_on_c, 0, 63, 48
2, 55751, Note_on_c, 0, 80, 51
2, 55751, Note_on_c, 0, 92, 80
2, 55754, Note_on_c, 0, 67, 24
2, 55757, Note_on_c, 0, 81, 58
2, 55758, Note_on_c, 0, 80, 0
2, 55761, Note_on_c, 0, 67, 0
2, 55765, Note_on_c, 0, 81, 0
2, 55769, Note_on_c, 0, 63, 0
2, 55773, Note_on_c, 0, 58, 0
2, 55780, Note_on_c, 0, 92, 0
2, 55799, Note_on_c, 0, 88, 37
2, 55814, Note_on_c, 0, 88, 0
2, 55833, Note_on_c, 0, 92, 74
2, 55834, Note_on_c, 0, 42, 47
2, 55837, Control_c, 0, 64, 0
2, 55837, Note_on_c, 0, 85, 51
2, 55838, Note_on_c, 0, 81, 54
2, 55840, Note_on_c, 0, 30, 61
2, 55844, Note_on_c, 0, 85, 0
2, 55863, Note_on_c, 0, 81, 0
2, 55863, Control_c, 0, 64, 127
2, 55864, Note_on_c, 0, 42, 0
2, 55867, Note_on_c, 0, 92, 0
2, 55867, Note_on_c, 0, 30, 0
2, 55881, Note_on_c, 0, 88, 40
2, 55904, Note_on_c, 0, 88, 0
2, 55917, Note_on_c, 0, 92, 69
2, 55922, Note_on_c, 0, 81, 36
2, 55924, Note_on_c, 0, 85, 33
2, 55932, Note_on_c, 0, 85, 0
2, 55941, Note_on_c, 0, 92, 0
2, 55942, Note_on_c, 0, 81, 0
2, 55959, Note_on_c, 0, 88, 39
2, 55983, Note_on_c, 0, 88, 0
2, 55996, Note_on_c, 0, 92, 65
2, 55998, Note_on_c, 0, 64, 57
2, 56000, Note_on_c, 0, 81, 38
2, 56000, Note_on_c, 0, 85, 47
2, 56007, Note_on_c, 0, 64, 0
2, 56015, Note_on_c, 0, 85, 0
2, 56020, Note_on_c, 0, 81, 0
2, 56024, Note_on_c, 0, 92, 0
2, 56041, Note_on_c, 0, 88, 32
2, 56063, Note_on_c, 0, 88, 0
2, 56077, Note_on_c, 0, 92, 63
2, 56078, Note_on_c, 0, 68, 57
2, 56079, Note_on_c, 0, 85, 52
2, 56079, Note_on_c, 0, 81, 46
2, 56082, Note_on_c, 0, 64, 54
2, 56082, Note_on_c, 0, 61, 35
2, 56107, Note_on_c, 0, 81, 0
2, 56107, Note_on_c, 0, 85, 0
2, 56115, Note_on_c, 0, 92, 0
2, 56120, Note_on_c, 0, 68, 0
2, 56126, Note_on_c, 0, 88, 27
2, 56140, Note_on_c, 0, 88, 0
2, 56159, Note_on_c, 0, 64, 0
2, 56160, Note_on_c, 0, 92, 60
2, 56163, Note_on_c, 0, 85, 51
2, 56165, Note_on_c, 0, 81, 32
2, 56182, Note_on_c, 0, 85, 0
2, 56184, Note_on_c, 0, 81, 0
2, 56189, Note_on_c, 0, 92, 0
2, 56198, Note_on_c, 0, 64, 34
2, 56207, Note_on_c, 0, 64, 0
2, 56209, Note_on_c, 0, 88, 31
2, 56224, Note_on_c, 0, 88, 0
2, 56230, Note_on_c, 0, 61, 0
2, 56238, Note_on_c, 0, 92, 65
2, 56245, Note_on_c, 0, 81, 24
2, 56259, Note_on_c, 0, 81, 0
2, 56263, Note_on_c, 0, 92, 0
2, 56283, Note_on_c, 0, 90, 23
2, 56298, Note_on_c, 0, 90, 0
2, 56315, Note_on_c, 0, 93, 60
2, 56320, Control_c, 0, 64, 0
2, 56321, Note_on_c, 0, 86, 36
2, 56322, Note_on_c, 0, 47, 31
2, 56324, Note_on_c, 0, 79, 19
2, 56346, Control_c, 0, 64, 127
2, 56351, Note_on_c, 0, 93, 0
2, 56354, Note_on_c, 0, 79, 0
2, 56355, Note_on_c, 0, 86, 0
2, 56384, Note_on_c, 0, 54, 34
2, 56429, Note_on_c, 0, 47, 0
2, 56430, Note_on_c, 0, 54, 0
2, 56432, Note_on_c, 0, 57, 46
2, 56442, Note_on_c, 0, 57, 0
2, 56493, Note_on_c, 0, 66, 54
2, 56495, Note_on_c, 0, 74, 64
2, 56496, Note_on_c, 0, 62, 55
2, 56499, Note_on_c, 0, 61, 67
2, 56500, Note_on_c, 0, 69, 41
2, 56608, Note_on_c, 0, 59, 57
2, 56611, Note_on_c, 0, 61, 0
2, 56612, Note_on_c, 0, 69, 0
2, 56619, Note_on_c, 0, 74, 0
2, 56639, Note_on_c, 0, 66, 0
2, 56655, Note_on_c, 0, 59, 0
2, 56656, Note_on_c, 0, 62, 0
2, 56691, Note_on_c, 0, 69, 69
2, 56723, Note_on_c, 0, 66, 57
2, 56743, Note_on_c, 0, 69, 0
2, 56753, Note_on_c, 0, 66, 0
2, 56766, Note_on_c, 0, 43, 58
2, 56767, Note_on_c, 0, 69, 75
2, 56769, Control_c, 0, 64, 0
2, 56809, Control_c, 0, 64, 127
2, 56837, Note_on_c, 0, 67, 13
2, 56843, Note_on_c, 0, 50, 46
2, 56852, Note_on_c, 0, 43, 0
2, 56920, Note_on_c, 0, 69, 0
2, 56936, Note_on_c, 0, 67, 0
2, 56951, Note_on_c, 0, 62, 48
2, 56953, Note_on_c, 0, 65, 49
2, 56954, Note_on_c, 0, 58, 32
2, 56961, Note_on_c, 0, 57, 33
2, 56980, Note_on_c, 0, 58, 0
2, 56997, Note_on_c, 0, 62, 0
2, 57002, Note_on_c, 0, 65, 0
2, 57016, Note_on_c, 0, 50, 0
2, 57067, Note_on_c, 0, 50, 44
2, 57088, Note_on_c, 0, 57, 0
2, 57115, Note_on_c, 0, 50, 0
2, 57116, Note_on_c, 0, 76, 84
2, 57148, Note_on_c, 0, 72, 69
2, 57152, Note_on_c, 0, 76, 0
2, 57178, Note_on_c, 0, 72, 0
2, 57182, Note_on_c, 0, 69, 55
2, 57198, Note_on_c, 0, 69, 0
2, 57208, Note_on_c, 0, 65, 55
2, 57225, Note_on_c, 0, 65, 0
2, 57239, Note_on_c, 0, 39, 39
2, 57241, Note_on_c, 0, 62, 47
2, 57243, Note_on_c, 0, 46, 38
2, 57251, Control_c, 0, 64, 0
2, 57279, Control_c, 0, 64, 127
2, 57282, Note_on_c, 0, 39, 0
2, 57314, Note_on_c, 0, 46, 0
2, 57315, Note_on_c, 0, 62, 0
2, 57320, Note_on_c, 0, 55, 50
2, 57333, Note_on_c, 0, 55, 0
2, 57429, Note_on_c, 0, 65, 49
2, 57430, Note_on_c, 0, 58, 42
2, 57432, Note_on_c, 0, 60, 40
2, 57537, Note_on_c, 0, 65, 0
2, 57557, Note_on_c, 0, 60, 0
2, 57563, Note_on_c, 0, 58, 0
2, 57575, Note_on_c, 0, 88, 103
2, 57607, Note_on_c, 0, 84, 76
2, 57620, Note_on_c, 0, 88, 0
2, 57639, Note_on_c, 0, 81, 63
2, 57647, Note_on_c, 0, 84, 0
2, 57659, Note_on_c, 0, 81, 0
2, 57667, Note_on_c, 0, 77, 49
2, 57688, Note_on_c, 0, 77, 0
2, 57690, Control_c, 0, 64, 0
2, 57690, Note_on_c, 0, 45, 45
2, 57691, Note_on_c, 0, 38, 42
2, 57695, Note_on_c, 0, 76, 53
2, 57706, Control_c, 0, 64, 127
2, 57710, Note_on_c, 0, 38, 0
2, 57717, Note_on_c, 0, 45, 0
2, 57790, Note_on_c, 0, 50, 27
2, 57790, Note_on_c, 0, 60, 24
2, 57791, Note_on_c, 0, 53, 28
2, 57792, Note_on_c, 0, 57, 31
2, 57922, Note_on_c, 0, 60, 0
2, 57927, Note_on_c, 0, 57, 0
2, 57937, Note_on_c, 0, 76, 0
2, 57957, Note_on_c, 0, 53, 0
2, 57988, Note_on_c, 0, 57, 35
2, 57989, Note_on_c, 0, 60, 33
2, 57995, Note_on_c, 0, 53, 8
2, 58002, Note_on_c, 0, 60, 0
2, 58006, Note_on_c, 0, 50, 0
2, 58015, Note_on_c, 0, 57, 0
2, 58042, Note_on_c, 0, 53, 0
2, 58051, Note_on_c, 0, 88, 62
2, 58073, Note_on_c, 0, 84, 31
2, 58078, Note_on_c, 0, 88, 0
2, 58096, Note_on_c, 0, 81, 44
2, 58110, Note_on_c, 0, 84, 0
2, 58125, Note_on_c, 0, 48, 34
2, 58127, Note_on_c, 0, 81, 0
2, 58127, Note_on_c, 0, 55, 34
2, 58129, Control_c, 0, 64, 0
2, 58134, Note_on_c, 0, 79, 25
2, 58155, Control_c, 0, 64, 127
2, 58168, Note_on_c, 0, 79, 0
2, 58205, Note_on_c, 0, 60, 58
2, 58209, Note_on_c, 0, 48, 0
2, 58226, Note_on_c, 0, 55, 0
2, 58232, Note_on_c, 0, 60, 0
2, 58311, Note_on_c, 0, 62, 36
2, 58314, Note_on_c, 0, 67, 47
2, 58315, Note_on_c, 0, 63, 36
2, 58353, Note_on_c, 0, 67, 0
2, 58367, Note_on_c, 0, 62, 0
2, 58369, Note_on_c, 0, 63, 0
2, 58419, Note_on_c, 0, 67, 46
2, 58420, Note_on_c, 0, 63, 33
2, 58421, Note_on_c, 0, 62, 46
2, 58431, Note_on_c, 0, 67, 0
2, 58442, Note_on_c, 0, 62, 0
2, 58443, Note_on_c, 0, 63, 0
2, 58519, Note_on_c, 0, 55, 51
2, 58560, Note_on_c, 0, 55, 0
2, 58569, Note_on_c, 0, 74, 36
2, 58570, Note_on_c, 0, 48, 50
2, 58574, Note_on_c, 0, 67, 33
2, 58574, Note_on_c, 0, 63, 32
2, 58650, Note_on_c, 0, 55, 44
2, 58652, Note_on_c, 0, 63, 0
2, 58652, Note_on_c, 0, 67, 0
2, 58685, Note_on_c, 0, 74, 0
2, 58711, Note_on_c, 0, 48, 0
2, 58759, Note_on_c, 0, 62, 36
2, 58760, Note_on_c, 0, 67, 91
2, 58786, Note_on_c, 0, 67, 0
2, 58799, Note_on_c, 0, 62, 0
2, 58828, Note_on_c, 0, 74, 105
2, 58836, Note_on_c, 0, 62, 43
2, 58868, Note_on_c, 0, 62, 0
2, 58877, Note_on_c, 0, 74, 0
2, 58894, Note_on_c, 0, 55, 0
2, 58910, Note_on_c, 0, 74, 82
2, 58911, Note_on_c, 0, 62, 35
2, 58911, Note_on_c, 0, 55, 15
2, 58933, Note_on_c, 0, 62, 0
2, 58962, Note_on_c, 0, 55, 0
2, 58981, Note_on_c, 0, 74, 0
2, 58999, Note_on_c, 0, 66, 46
2, 59045, Note_on_c, 0, 66, 0
2, 59065, Note_on_c, 0, 66, 37
2, 59071, Note_on_c, 0, 47, 41
2, 59080, Control_c, 0, 64, 0
2, 59103, Note_on_c, 0, 74, 1
2, 59128, Control_c, 0, 64, 127
2, 59141, Note_on_c, 0, 54, 26
2, 59168, Note_on_c, 0, 47, 0
2, 59168, Note_on_c, 0, 66, 0
2, 59232, Note_on_c, 0, 66, 35
2, 59235, Note_on_c, 0, 64, 46
2, 59236, Note_on_c, 0, 61, 36
2, 59265, Note_on_c, 0, 66, 0
2, 59270, Note_on_c, 0, 64, 0
2, 59279, Note_on_c, 0, 61, 0
2, 59306, Note_on_c, 0, 64, 42
2, 59307, Note_on_c, 0, 66, 35
2, 59311, Note_on_c, 0, 61, 31
2, 59349, Note_on_c, 0, 54, 0
2, 59382, Note_on_c, 0, 64, 0
2, 59384, Note_on_c, 0, 54, 36
2, 59387, Note_on_c, 0, 61, 0
2, 59397, Note_on_c, 0, 66, 0
2, 59404, Note_on_c, 0, 74, 0
2, 59464, Note_on_c, 0, 66, 48
2, 59473, Note_on_c, 0, 64, 54
2, 59499, Note_on_c, 0, 59, 38
2, 59507, Note_on_c, 0, 64, 0
2, 59516, Note_on_c, 0, 66, 0
2, 59522, Note_on_c, 0, 59, 0
2, 59526, Note_on_c, 0, 54, 0
2, 59529, Note_on_c, 0, 64, 71
2, 59533, Note_on_c, 0, 48, 53
2, 59535, Control_c, 0, 64, 0
2, 59539, Note_on_c, 0, 59, 18
2, 59586, Note_on_c, 0, 59, 0
2, 59587, Control_c, 0, 64, 127
2, 59610, Note_on_c, 0, 55, 40
2, 59627, Note_on_c, 0, 64, 0
2, 59708, Note_on_c, 0, 60, 66
2, 59785, Note_on_c, 0, 48, 0
2, 59806, Note_on_c, 0, 67, 123
2, 59847, Note_on_c, 0, 60, 0
2, 59852, Note_on_c, 0, 55, 0
2, 59856, Note_on_c, 0, 67, 0
2, 59882, Note_on_c, 0, 67, 105
2, 59951, Note_on_c, 0, 67, 0
2, 59954, Note_on_c, 0, 64, 82
2, 59954, Note_on_c, 0, 53, 58
2, 59958, Control_c, 0, 64, 0
2, 59990, Control_c, 0, 64, 127
2, 60013, Note_on_c, 0, 64, 0
2, 60030, Note_on_c, 0, 60, 57
2, 60103, Note_on_c, 0, 83, 78
2, 60108, Note_on_c, 0, 79, 77
2, 60109, Note_on_c, 0, 76, 77
2, 60113, Note_on_c, 0, 64, 58
2, 60118, Note_on_c, 0, 71, 48
2, 60120, Note_on_c, 0, 60, 0
2, 60174, Note_on_c, 0, 71, 0
2, 60179, Note_on_c, 0, 64, 0
2, 60181, Note_on_c, 0, 76, 0
2, 60183, Note_on_c, 0, 79, 0
2, 60186, Note_on_c, 0, 83, 0
2, 60188, Note_on_c, 0, 60, 34
2, 60252, Note_on_c, 0, 86, 66
2, 60259, Note_on_c, 0, 79, 70
2, 60262, Note_on_c, 0, 74, 62
2, 60263, Note_on_c, 0, 83, 35
2, 60263, Note_on_c, 0, 64, 42
2, 60278, Note_on_c, 0, 53, 0
2, 60319, Note_on_c, 0, 83, 0
2, 60327, Note_on_c, 0, 79, 0
2, 60332, Note_on_c, 0, 86, 0
2, 60334, Note_on_c, 0, 53, 37
2, 60342, Note_on_c, 0, 74, 0
2, 60356, Note_on_c, 0, 60, 0
2, 60371, Note_on_c, 0, 53, 0
2, 60384, Note_on_c, 0, 64, 0
2, 60400, Note_on_c, 0, 85, 60
2, 60406, Note_on_c, 0, 79, 46
2, 60408, Note_on_c, 0, 73, 25
2, 60413, Note_on_c, 0, 52, 42
2, 60414, Control_c, 0, 64, 0
2, 60428, Control_c, 0, 64, 127
2, 60439, Note_on_c, 0, 79, 0
2, 60443, Note_on_c, 0, 85, 0
2, 60461, Note_on_c, 0, 73, 0
2, 60487, Note_on_c, 0, 59, 28
2, 60561, Note_on_c, 0, 64, 37
2, 60561, Note_on_c, 0, 81, 46
2, 60564, Note_on_c, 0, 69, 47
2, 60583, Note_on_c, 0, 69, 0
2, 60590, Note_on_c, 0, 81, 0
2, 60600, Note_on_c, 0, 64, 0
2, 60691, Note_on_c, 0, 83, 42
2, 60693, Note_on_c, 0, 76, 38
2, 60694, Note_on_c, 0, 71, 37
2, 60694, Note_on_c, 0, 64, 36
2, 60720, Note_on_c, 0, 64, 0
2, 60730, Note_on_c, 0, 59, 0
2, 60749, Note_on_c, 0, 52, 0
2, 60813, Note_on_c, 0, 52, 28
2, 60843, Note_on_c, 0, 52, 0
2, 60861, Control_c, 0, 64, 0
2, 60870, Note_on_c, 0, 45, 34
2, 60878, Note_on_c, 0, 45, 0
2, 60879, Control_c, 0, 64, 127
2, 60946, Note_on_c, 0, 64, 40
2, 60951, Note_on_c, 0, 59, 32
2, 60954, Note_on_c, 0, 60, 33
2, 60954, Note_on_c, 0, 55, 26
2, 60977, Note_on_c, 0, 60, 0
2, 60986, Note_on_c, 0, 59, 0
2, 60988, Note_on_c, 0, 64, 0
2, 60996, Note_on_c, 0, 55, 0
2, 61051, Note_on_c, 0, 55, 30
2, 61055, Note_on_c, 0, 64, 35
2, 61057, Note_on_c, 0, 59, 33
2, 61061, Note_on_c, 0, 60, 35
2, 61085, Note_on_c, 0, 59, 0
2, 61089, Note_on_c, 0, 55, 0
2, 61097, Note_on_c, 0, 71, 0
2, 61110, Note_on_c, 0, 60, 0
2, 61112, Note_on_c, 0, 64, 0
2, 61117, Note_on_c, 0, 76, 0
2, 61126, Control_c, 0, 64, 0
2, 61129, Note_on_c, 0, 53, 35
2, 61132, Note_on_c, 0, 83, 0
2, 61140, Control_c, 0, 64, 127
2, 61200, Note_on_c, 0, 84, 88
2, 61200, Note_on_c, 0, 64, 53
2, 61203, Note_on_c, 0, 60, 53
2, 61205, Note_on_c, 0, 57, 42
2, 61230, Note_on_c, 0, 53, 0
2, 61260, Note_on_c, 0, 84, 0
2, 61269, Note_on_c, 0, 64, 0
2, 61282, Note_on_c, 0, 60, 0
2, 61283, Note_on_c, 0, 53, 28
2, 61288, Note_on_c, 0, 57, 0
2, 61289, Note_on_c, 0, 91, 95
2, 61294, Note_on_c, 0, 53, 0
2, 61355, Note_on_c, 0, 91, 0
2, 61358, Control_c, 0, 64, 0
2, 61359, Note_on_c, 0, 43, 53
2, 61364, Note_on_c, 0, 50, 54
2, 61364, Note_on_c, 0, 89, 75
2, 61370, Note_on_c, 0, 43, 0
2, 61376, Control_c, 0, 64, 127
2, 61381, Note_on_c, 0, 50, 0
2, 61442, Note_on_c, 0, 57, 53
2, 61443, Note_on_c, 0, 62, 37
2, 61446, Note_on_c, 0, 53, 25
2, 61448, Note_on_c, 0, 58, 31
2, 61474, Note_on_c, 0, 58, 0
2, 61477, Note_on_c, 0, 62, 0
2, 61481, Note_on_c, 0, 57, 0
2, 61503, Note_on_c, 0, 53, 0
2, 61540, Note_on_c, 0, 89, 0
2, 61551, Note_on_c, 0, 62, 56
2, 61552, Note_on_c, 0, 57, 56
2, 61553, Note_on_c, 0, 53, 36
2, 61554, Note_on_c, 0, 58, 53
2, 61615, Note_on_c, 0, 88, 115
2, 61630, Note_on_c, 0, 58, 0
2, 61635, Note_on_c, 0, 62, 0
2, 61661, Note_on_c, 0, 57, 0
2, 61663, Note_on_c, 0, 88, 0
2, 61679, Note_on_c, 0, 89, 92
2, 61721, Note_on_c, 0, 62, 42
2, 61721, Note_on_c, 0, 58, 37
2, 61724, Note_on_c, 0, 57, 22
2, 61737, Note_on_c, 0, 62, 0
2, 61742, Note_on_c, 0, 57, 0
2, 61750, Note_on_c, 0, 58, 0
2, 61761, Note_on_c, 0, 53, 0
2, 61775, Note_on_c, 0, 84, 62
2, 61776, Note_on_c, 0, 89, 0
2, 61793, Note_on_c, 0, 84, 0
2, 61806, Note_on_c, 0, 86, 66
2, 61827, Note_on_c, 0, 86, 0
2, 61842, Note_on_c, 0, 86, 67
2, 61843, Note_on_c, 0, 39, 69
2, 61843, Note_on_c, 0, 93, 89
2, 61844, Control_c, 0, 64, 0
2, 61845, Note_on_c, 0, 81, 66
2, 61846, Note_on_c, 0, 79, 70
2, 61848, Note_on_c, 0, 92, 45
2, 61872, Control_c, 0, 64, 127
2, 61902, Note_on_c, 0, 92, 0
2, 61902, Note_on_c, 0, 39, 0
2, 61905, Note_on_c, 0, 93, 0
2, 61911, Note_on_c, 0, 86, 0
2, 61913, Note_on_c, 0, 46, 50
2, 61915, Note_on_c, 0, 79, 0
2, 61915, Note_on_c, 0, 81, 0
2, 61978, Note_on_c, 0, 55, 30
2, 61979, Note_on_c, 0, 46, 0
2, 61991, Note_on_c, 0, 55, 0
2, 62045, Note_on_c, 0, 58, 51
2, 62065, Note_on_c, 0, 58, 0
2, 62152, Note_on_c, 0, 74, 44
2, 62153, Note_on_c, 0, 44, 40
2, 62155, Note_on_c, 0, 62, 44
2, 62155, Note_on_c, 0, 60, 48
2, 62156, Note_on_c, 0, 67, 41
2, 62159, Control_c, 0, 64, 0
2, 62160, Note_on_c, 0, 54, 23
2, 62195, Control_c, 0, 64, 127
2, 62201, Note_on_c, 0, 60, 0
2, 62204, Note_on_c, 0, 62, 0
2, 62209, Note_on_c, 0, 67, 0
2, 62220, Note_on_c, 0, 74, 0
2, 62228, Note_on_c, 0, 44, 0
2, 62231, Note_on_c, 0, 54, 0
2, 62267, Note_on_c, 0, 86, 60
2, 62299, Note_on_c, 0, 86, 0
2, 62331, Note_on_c, 0, 86, 46
2, 62332, Note_on_c, 0, 74, 36
2, 62334, Note_on_c, 0, 72, 36
2, 62335, Note_on_c, 0, 79, 30
2, 62335, Note_on_c, 0, 65, 40
2, 62338, Note_on_c, 0, 54, 30
2, 62339, Note_on_c, 0, 60, 33
2, 62344, Note_on_c, 0, 58, 28
2, 62359, Note_on_c, 0, 72, 0
2, 62364, Note_on_c, 0, 74, 0
2, 62368, Note_on_c, 0, 79, 0
2, 62378, Note_on_c, 0, 86, 0
2, 62419, Note_on_c, 0, 98, 60
2, 62433, Note_on_c, 0, 65, 0
2, 62440, Note_on_c, 0, 60, 0
2, 62450, Note_on_c, 0, 58, 0
2, 62451, Note_on_c, 0, 98, 0
2, 62517, Note_on_c, 0, 98, 50
2, 62520, Note_on_c, 0, 60, 34
2, 62523, Note_on_c, 0, 65, 35
2, 62523, Note_on_c, 0, 84, 33
2, 62524, Note_on_c, 0, 86, 32
2, 62524, Note_on_c, 0, 91, 34
2, 62525, Note_on_c, 0, 58, 23
2, 62576, Note_on_c, 0, 91, 0
2, 62576, Note_on_c, 0, 98, 0
2, 62589, Note_on_c, 0, 86, 0
2, 62599, Note_on_c, 0, 84, 0
2, 62619, Note_on_c, 0, 54, 0
2, 62644, Note_on_c, 0, 54, 37
2, 62684, Note_on_c, 0, 65, 0
2, 62688, Note_on_c, 0, 60, 0
2, 62697, Note_on_c, 0, 58, 0
2, 62702, Note_on_c, 0, 54, 0
2, 62827, Note_on_c, 0, 64, 52
2, 62829, Note_on_c, 0, 45, 42
2, 62830, Note_on_c, 0, 59, 36
2, 62834, Note_on_c, 0, 52, 36
2, 62836, Control_c, 0, 64, 0
2, 62837, Note_on_c, 0, 55, 30
2, 62837, Note_on_c, 0, 60, 33
2, 62873, Control_c, 0, 64, 127
2, 62887, Note_on_c, 0, 45, 0
2, 62895, Note_on_c, 0, 52, 0
2, 62900, Note_on_c, 0, 55, 0
2, 62902, Note_on_c, 0, 59, 0
2, 62918, Note_on_c, 0, 60, 0
2, 62930, Note_on_c, 0, 64, 0
2, 63006, Note_on_c, 0, 64, 41
2, 63009, Note_on_c, 0, 59, 36
2, 63011, Note_on_c, 0, 60, 43
2, 63012, Note_on_c, 0, 55, 36
2, 63026, Note_on_c, 0, 60, 0
2, 63026, Note_on_c, 0, 64, 0
2, 63031, Note_on_c, 0, 59, 0
2, 63035, Note_on_c, 0, 55, 0
2, 63117, Note_on_c, 0, 64, 64
2, 63120, Note_on_c, 0, 59, 55
2, 63121, Note_on_c, 0, 60, 58
2, 63121, Note_on_c, 0, 55, 38
2, 63176, Note_on_c, 0, 88, 105
2, 63179, Note_on_c, 0, 64, 0
2, 63184, Note_on_c, 0, 59, 0
2, 63184, Note_on_c, 0, 60, 0
2, 63186, Note_on_c, 0, 55, 0
2, 63240, Note_on_c, 0, 81, 78
2, 63276, Control_c, 0, 64, 0
2, 63287, Note_on_c, 0, 50, 50
2, 63291, Note_on_c, 0, 81, 0
2, 63298, Control_c, 0, 64, 127
2, 63301, Note_on_c, 0, 50, 0
2, 63305, Note_on_c, 0, 81, 28
2, 63363, Note_on_c, 0, 64, 49
2, 63368, Note_on_c, 0, 57, 43
2, 63372, Note_on_c, 0, 60, 24
2, 63384, Note_on_c, 0, 64, 0
2, 63390, Note_on_c, 0, 60, 0
2, 63396, Note_on_c, 0, 57, 0
2, 63414, Note_on_c, 0, 81, 0
2, 63453, Note_on_c, 0, 88, 0
2, 63471, Note_on_c, 0, 64, 48
2, 63475, Note_on_c, 0, 60, 42
2, 63476, Note_on_c, 0, 57, 43
2, 63476, Note_on_c, 0, 53, 26
2, 63498, Note_on_c, 0, 64, 0
2, 63510, Note_on_c, 0, 57, 0
2, 63519, Note_on_c, 0, 53, 0
2, 63534, Note_on_c, 0, 60, 0
2, 63578, Note_on_c, 0, 83, 68
2, 63579, Note_on_c, 0, 64, 56
2, 63580, Note_on_c, 0, 74, 74
2, 63582, Note_on_c, 0, 53, 29
2, 63584, Note_on_c, 0, 60, 47
2, 63584, Note_on_c, 0, 57, 45
2, 63602, Note_on_c, 0, 64, 0
2, 63604, Note_on_c, 0, 74, 0
2, 63612, Note_on_c, 0, 83, 0
2, 63630, Note_on_c, 0, 60, 0
2, 63639, Note_on_c, 0, 57, 0
2, 63642, Note_on_c, 0, 84, 74
2, 63642, Note_on_c, 0, 76, 75
2, 63654, Note_on_c, 0, 53, 0
2, 63661, Note_on_c, 0, 76, 0
2, 63671, Note_on_c, 0, 84, 0
2, 63701, Note_on_c, 0, 88, 87
2, 63702, Note_on_c, 0, 79, 82
2, 63708, Note_on_c, 0, 53, 24
2, 63715, Note_on_c, 0, 53, 0
2, 63728, Note_on_c, 0, 88, 0
2, 63730, Note_on_c, 0, 79, 0
2, 63761, Control_c, 0, 64, 0
2, 63763, Note_on_c, 0, 86, 80
2, 63764, Note_on_c, 0, 77, 72
2, 63771, Note_on_c, 0, 50, 40
2, 63772, Note_on_c, 0, 45, 31
2, 63772, Note_on_c, 0, 43, 31
2, 63780, Note_on_c, 0, 43, 0
2, 63780, Note_on_c, 0, 45, 0
2, 63788, Note_on_c, 0, 50, 0
2, 63789, Control_c, 0, 64, 127
2, 63834, Note_on_c, 0, 62, 37
2, 63834, Note_on_c, 0, 57, 36
2, 63836, Note_on_c, 0, 53, 25
2, 63837, Note_on_c, 0, 58, 36
2, 63851, Note_on_c, 0, 62, 0
2, 63857, Note_on_c, 0, 58, 0
2, 63859, Note_on_c, 0, 57, 0
2, 63862, Note_on_c, 0, 53, 0
2, 63942, Note_on_c, 0, 86, 0
2, 63943, Note_on_c, 0, 62, 46
2, 63946, Note_on_c, 0, 57, 47
2, 63948, Note_on_c, 0, 53, 34
2, 63948, Note_on_c, 0, 58, 36
2, 63951, Note_on_c, 0, 77, 0
2, 63962, Note_on_c, 0, 62, 0
2, 63973, Note_on_c, 0, 58, 0
2, 63973, Note_on_c, 0, 57, 0
2, 63976, Note_on_c, 0, 53, 0
2, 64062, Note_on_c, 0, 62, 41
2, 64064, Note_on_c, 0, 58, 39
2, 64069, Note_on_c, 0, 53, 32
2, 64070, Note_on_c, 0, 62, 0
2, 64077, Note_on_c, 0, 53, 0
2, 64082, Note_on_c, 0, 58, 0
2, 64128, Note_on_c, 0, 79, 62
2, 64128, Note_on_c, 0, 67, 64
2, 64130, Note_on_c, 0, 48, 57
2, 64132, Control_c, 0, 64, 0
2, 64166, Control_c, 0, 64, 127
2, 64194, Note_on_c, 0, 55, 53
2, 64197, Note_on_c, 0, 48, 0
2, 64220, Note_on_c, 0, 67, 0
2, 64246, Note_on_c, 0, 55, 0
2, 64249, Note_on_c, 0, 79, 0
2, 64253, Note_on_c, 0, 70, 72
2, 64253, Note_on_c, 0, 67, 68
2, 64255, Note_on_c, 0, 62, 54
2, 64256, Note_on_c, 0, 75, 53
2, 64297, Note_on_c, 0, 62, 0
2, 64328, Note_on_c, 0, 62, 71
2, 64350, Note_on_c, 0, 75, 0
2, 64354, Note_on_c, 0, 67, 0
2, 64366, Note_on_c, 0, 70, 0
2, 64396, Note_on_c, 0, 62, 0
2, 64437, Note_on_c, 0, 69, 103
2, 64437, Note_on_c, 0, 71, 99
2, 64437, Note_on_c, 0, 62, 71
2, 64487, Note_on_c, 0, 62, 0
2, 64488, Note_on_c, 0, 71, 0
2, 64491, Note_on_c, 0, 69, 0
2, 64503, Note_on_c, 0, 70, 80
2, 64503, Note_on_c, 0, 62, 68
2, 64505, Note_on_c, 0, 68, 31
2, 64517, Note_on_c, 0, 68, 0
2, 64534, Note_on_c, 0, 70, 0
2, 64561, Note_on_c, 0, 74, 75
2, 64600, Note_on_c, 0, 74, 0
2, 64605, Note_on_c, 0, 62, 0
2, 64619, Note_on_c, 0, 77, 60
2, 64659, Note_on_c, 0, 77, 0
2, 64679, Note_on_c, 0, 81, 68
2, 64696, Note_on_c, 0, 81, 0
2, 64741, Note_on_c, 0, 82, 38
2, 64745, Note_on_c, 0, 75, 50
2, 64753, Note_on_c, 0, 53, 30
2, 64764, Note_on_c, 0, 68, 10
2, 64766, Control_c, 0, 64, 0
2, 64808, Control_c, 0, 64, 127
2, 64812, Note_on_c, 0, 60, 43
2, 64836, Note_on_c, 0, 75, 0
2, 64844, Note_on_c, 0, 68, 0
2, 64857, Note_on_c, 0, 53, 0
2, 64872, Note_on_c, 0, 68, 40
2, 64872, Note_on_c, 0, 75, 40
2, 64922, Note_on_c, 0, 68, 0
2, 64926, Note_on_c, 0, 75, 0
2, 64935, Note_on_c, 0, 67, 85
2, 65005, Note_on_c, 0, 75, 43
2, 65007, Note_on_c, 0, 68, 36
2, 65012, Note_on_c, 0, 67, 0
2, 65021, Note_on_c, 0, 82, 0
2, 65067, Note_on_c, 0, 65, 65
2, 65070, Note_on_c, 0, 75, 0
2, 65102, Note_on_c, 0, 68, 0
2, 65120, Note_on_c, 0, 60, 0
2, 65129, Note_on_c, 0, 68, 52
2, 65136, Note_on_c, 0, 75, 36
2, 65148, Note_on_c, 0, 75, 0
2, 65155, Note_on_c, 0, 68, 0
2, 65184, Note_on_c, 0, 65, 0
2, 65188, Note_on_c, 0, 60, 47
2, 65217, Note_on_c, 0, 60, 0
2, 65253, Note_on_c, 0, 52, 58
2, 65253, Note_on_c, 0, 78, 69
2, 65254, Note_on_c, 0, 71, 74
2, 65265, Control_c, 0, 64, 0
2, 65307, Control_c, 0, 64, 127
2, 65315, Note_on_c, 0, 59, 45
2, 65336, Note_on_c, 0, 71, 0
2, 65368, Note_on_c, 0, 78, 0
2, 65384, Note_on_c, 0, 67, 24
2, 65385, Note_on_c, 0, 59, 0
2, 65396, Note_on_c, 0, 67, 0
2, 65444, Note_on_c, 0, 71, 44
2, 65446, Note_on_c, 0, 59, 35
2, 65451, Note_on_c, 0, 67, 20
2, 65480, Note_on_c, 0, 52, 0
2, 65500, Note_on_c, 0, 67, 0
2, 65550, Note_on_c, 0, 66, 34
2, 65551, Note_on_c, 0, 73, 36
2, 65555, Note_on_c, 0, 67, 36
2, 65576, Note_on_c, 0, 59, 0
2, 65585, Note_on_c, 0, 66, 0
2, 65609, Note_on_c, 0, 67, 0
2, 65619, Note_on_c, 0, 71, 0
2, 65620, Note_on_c, 0, 73, 0
2, 65638, Note_on_c, 0, 74, 48
2, 65640, Note_on_c, 0, 59, 27
2, 65649, Note_on_c, 0, 59, 0
2, 65704, Note_on_c, 0, 74, 0
2, 65723, Note_on_c, 0, 76, 44
2, 65726, Note_on_c, 0, 54, 31
2, 65726, Note_on_c, 0, 47, 35
2, 65727, Control_c, 0, 64, 0
2, 65730, Note_on_c, 0, 69, 32
2, 65747, Note_on_c, 0, 47, 0
2, 65747, Control_c, 0, 64, 127
2, 65761, Note_on_c, 0, 54, 0
2, 65777, Note_on_c, 0, 69, 0
2, 65784, Note_on_c, 0, 76, 0
2, 65804, Note_on_c, 0, 72, 36
2, 65812, Note_on_c, 0, 72, 0
2, 65888, Note_on_c, 0, 66, 37
2, 65889, Note_on_c, 0, 85, 57
2, 65892, Note_on_c, 0, 73, 25
2, 65894, Note_on_c, 0, 61, 29
2, 65894, Note_on_c, 0, 62, 26
2, 65905, Note_on_c, 0, 62, 0
2, 65908, Note_on_c, 0, 66, 0
2, 65924, Note_on_c, 0, 61, 0
2, 65969, Note_on_c, 0, 66, 28
2, 65970, Note_on_c, 0, 61, 25
2, 65974, Note_on_c, 0, 62, 28
2, 65993, Note_on_c, 0, 62, 0
2, 65997, Note_on_c, 0, 66, 0
2, 66009, Note_on_c, 0, 61, 0
2, 66060, Note_on_c, 0, 66, 33
2, 66062, Note_on_c, 0, 61, 30
2, 66063, Note_on_c, 0, 62, 34
2, 66085, Note_on_c, 0, 62, 0
2, 66085, Note_on_c, 0, 66, 0
2, 66105, Note_on_c, 0, 61, 0
2, 66156, Note_on_c, 0, 66, 28
2, 66156, Note_on_c, 0, 61, 30
2, 66160, Note_on_c, 0, 62, 32
2, 66224, Note_on_c, 0, 57, 55
2, 66256, Note_on_c, 0, 62, 0
2, 66279, Note_on_c, 0, 61, 0
2, 66281, Note_on_c, 0, 66, 0
2, 66303, Note_on_c, 0, 66, 27
2, 66308, Note_on_c, 0, 61, 20
2, 66360, Note_on_c, 0, 66, 0
2, 66408, Note_on_c, 0, 66, 34
2, 66464, Note_on_c, 0, 57, 0
2, 66465, Note_on_c, 0, 66, 0
2, 66468, Note_on_c, 0, 61, 0
2, 66482, Note_on_c, 0, 61, 67
2, 66561, Note_on_c, 0, 62, 49
2, 66561, Note_on_c, 0, 66, 31
2, 66606, Note_on_c, 0, 62, 0
2, 66612, Note_on_c, 0, 66, 0
2, 66652, Note_on_c, 0, 85, 0
2, 66660, Note_on_c, 0, 73, 0
2, 66660, Note_on_c, 0, 66, 37
2, 66665, Note_on_c, 0, 62, 30
2, 66667, Note_on_c, 0, 66, 0
2, 66672, Note_on_c, 0, 62, 0
2, 66682, Note_on_c, 0, 61, 0
2, 66736, Note_on_c, 0, 51, 33
2, 66736, Note_on_c, 0, 66, 50
2, 66737, Note_on_c, 0, 70, 59
2, 66737, Note_on_c, 0, 77, 47
2, 66741, Note_on_c, 0, 73, 33
2, 66748, Control_c, 0, 64, 0
2, 66788, Control_c, 0, 64, 127
2, 66807, Note_on_c, 0, 39, 49
2, 66813, Note_on_c, 0, 39, 0
2, 66823, Note_on_c, 0, 51, 0
2, 66852, Note_on_c, 0, 70, 0
2, 66889, Note_on_c, 0, 66, 0
2, 66912, Note_on_c, 0, 66, 36
2, 66913, Note_on_c, 0, 51, 45
2, 66915, Note_on_c, 0, 73, 0
2, 66918, Note_on_c, 0, 77, 0
2, 66918, Note_on_c, 0, 70, 38
2, 66971, Note_on_c, 0, 66, 0
2, 66975, Note_on_c, 0, 70, 0
2, 66982, Note_on_c, 0, 61, 54
2, 66984, Note_on_c, 0, 73, 69
2, 66987, Note_on_c, 0, 58, 48
2, 67064, Note_on_c, 0, 51, 0
2, 67070, Note_on_c, 0, 73, 0
2, 67159, Note_on_c, 0, 61, 0
2, 67160, Note_on_c, 0, 68, 82
2, 67169, Note_on_c, 0, 58, 0
2, 67184, Note_on_c, 0, 68, 0
2, 67197, Note_on_c, 0, 70, 79
2, 67229, Note_on_c, 0, 70, 0
2, 67241, Note_on_c, 0, 64, 66
2, 67241, Note_on_c, 0, 55, 61
2, 67242, Note_on_c, 0, 71, 71
2, 67242, Note_on_c, 0, 60, 62
2, 67242, Note_on_c, 0, 45, 39
2, 67247, Control_c, 0, 64, 0
2, 67281, Control_c, 0, 64, 127
2, 67319, Note_on_c, 0, 55, 0
2, 67320, Note_on_c, 0, 71, 0
2, 67322, Note_on_c, 0, 67, 69
2, 67324, Note_on_c, 0, 52, 45
2, 67325, Note_on_c, 0, 45, 0
2, 67325, Note_on_c, 0, 60, 0
2, 67328, Note_on_c, 0, 64, 0
2, 67336, Note_on_c, 0, 67, 0
2, 67407, Note_on_c, 0, 52, 0
2, 67408, Note_on_c, 0, 78, 60
2, 67410, Note_on_c, 0, 76, 78
2, 67413, Note_on_c, 0, 72, 80
2, 67415, Note_on_c, 0, 71, 74
2, 67416, Note_on_c, 0, 59, 53
2, 67476, Note_on_c, 0, 59, 0
2, 67495, Note_on_c, 0, 60, 45
2, 67496, Note_on_c, 0, 59, 50
2, 67551, Note_on_c, 0, 59, 0
2, 67582, Note_on_c, 0, 64, 69
2, 67629, Note_on_c, 0, 71, 0
2, 67634, Note_on_c, 0, 72, 0
2, 67645, Note_on_c, 0, 64, 0
2, 67655, Note_on_c, 0, 60, 0
2, 67674, Note_on_c, 0, 72, 58
2, 67704, Note_on_c, 0, 76, 0
2, 67708, Note_on_c, 0, 72, 0
2, 67710, Note_on_c, 0, 71, 44
2, 67718, Note_on_c, 0, 78, 0
2, 67737, Note_on_c, 0, 71, 0
2, 67750, Note_on_c, 0, 70, 46
2, 67752, Note_on_c, 0, 75, 44
2, 67753, Note_on_c, 0, 58, 45
2, 67757, Note_on_c, 0, 48, 39
2, 67767, Control_c, 0, 64, 0
2, 67813, Control_c, 0, 64, 127
2, 67826, Note_on_c, 0, 58, 0
2, 67828, Note_on_c, 0, 55, 44
2, 67890, Note_on_c, 0, 70, 0
2, 67934, Note_on_c, 0, 70, 25
2, 67938, Note_on_c, 0, 67, 40
2, 67951, Note_on_c, 0, 67, 0
2, 67953, Note_on_c, 0, 70, 0
2, 67957, Note_on_c, 0, 75, 0
2, 68021, Note_on_c, 0, 82, 87
2, 68108, Note_on_c, 0, 77, 48
2, 68109, Note_on_c, 0, 48, 0
2, 68110, Note_on_c, 0, 58, 31
2, 68127, Note_on_c, 0, 55, 0
2, 68144, Note_on_c, 0, 58, 0
2, 68171, Note_on_c, 0, 82, 0
2, 68175, Note_on_c, 0, 77, 0
2, 68191, Note_on_c, 0, 79, 55
2, 68209, Note_on_c, 0, 79, 0
2, 68264, Note_on_c, 0, 80, 64
2, 68270, Note_on_c, 0, 78, 45
2, 68273, Note_on_c, 0, 76, 76
2, 68278, Note_on_c, 0, 73, 54
2, 68286, Control_c, 0, 64, 0
2, 68288, Note_on_c, 0, 68, 44
2, 68306, Note_on_c, 0, 69, 13
2, 68320, Control_c, 0, 64, 127
2, 68358, Note_on_c, 0, 73, 0
2, 68366, Note_on_c, 0, 69, 0
2, 68378, Note_on_c, 0, 68, 0
2, 68391, Note_on_c, 0, 73, 34
2, 68445, Note_on_c, 0, 80, 0
2, 68450, Note_on_c, 0, 73, 0
2, 68450, Note_on_c, 0, 76, 0
2, 68451, Note_on_c, 0, 78, 0
2, 68483, Note_on_c, 0, 87, 81
2, 68544, Note_on_c, 0, 87, 0
2, 68556, Note_on_c, 0, 54, 34
2, 68630, Note_on_c, 0, 75, 53
2, 68635, Note_on_c, 0, 71, 37
2, 68635, Note_on_c, 0, 68, 37
2, 68635, Note_on_c, 0, 63, 28
2, 68640, Note_on_c, 0, 64, 27
2, 68714, Note_on_c, 0, 68, 0
2, 68735, Note_on_c, 0, 63, 0
2, 68736, Note_on_c, 0, 64, 0
2, 68750, Note_on_c, 0, 54, 0
2, 68753, Note_on_c, 0, 68, 30
2, 68814, Note_on_c, 0, 71, 0
2, 68815, Note_on_c, 0, 68, 0
2, 68817, Note_on_c, 0, 47, 54
2, 68822, Note_on_c, 0, 75, 0
2, 68822, Control_c, 0, 64, 0
2, 68825, Note_on_c, 0, 47, 0
2, 68828, Control_c, 0, 64, 127
2, 69009, Note_on_c, 0, 80, 67
2, 69011, Note_on_c, 0, 66, 52
2, 69012, Note_on_c, 0, 76, 58
2, 69012, Note_on_c, 0, 71, 63
2, 69016, Note_on_c, 0, 78, 28
2, 69019, Note_on_c, 0, 76, 0
2, 69020, Control_c, 0, 64, 0
2, 69023, Note_on_c, 0, 71, 0
2, 69023, Note_on_c, 0, 78, 0
2, 69024, Note_on_c, 0, 66, 0
2, 69028, Note_on_c, 0, 80, 0
2, 69052, Note_on_c, 0, 75, 32
2, 69063, Note_on_c, 0, 75, 0
2, 69087, Note_on_c, 0, 76, 54
2, 69088, Note_on_c, 0, 73, 37
2, 69089, Note_on_c, 0, 69, 61
2, 69090, Note_on_c, 0, 61, 52
2, 69101, Note_on_c, 0, 76, 0
2, 69101, Control_c, 0, 64, 127
2, 69102, Note_on_c, 0, 73, 0
2, 69103, Note_on_c, 0, 69, 0
2, 69152, Note_on_c, 0, 61, 0
2, 69164, Note_on_c, 0, 73, 36
2, 69167, Note_on_c, 0, 57, 45
2, 69170, Note_on_c, 0, 64, 42
2, 69171, Note_on_c, 0, 69, 24
2, 69178, Note_on_c, 0, 69, 0
2, 69179, Note_on_c, 0, 57, 0
2, 69183, Note_on_c, 0, 73, 0
2, 69184, Note_on_c, 0, 64, 0
2, 69259, Note_on_c, 0, 43, 40
2, 69260, Note_on_c, 0, 62, 46
2, 69261, Note_on_c, 0, 69, 33
2, 69262, Note_on_c, 0, 50, 33
2, 69262, Note_on_c, 0, 58, 30
2, 69265, Control_c, 0, 64, 0
2, 69267, Note_on_c, 0, 65, 38
2, 69289, Control_c, 0, 64, 127
2, 69305, Note_on_c, 0, 58, 0
2, 69308, Note_on_c, 0, 62, 0
2, 69309, Note_on_c, 0, 65, 0
2, 69311, Note_on_c, 0, 43, 0
2, 69315, Note_on_c, 0, 69, 0
2, 69320, Note_on_c, 0, 50, 0
2, 69374, Note_on_c, 0, 81, 60
2, 69375, Note_on_c, 0, 74, 54
2, 69401, Note_on_c, 0, 74, 0
2, 69402, Note_on_c, 0, 81, 0
2, 69406, Note_on_c, 0, 69, 38
2, 69414, Note_on_c, 0, 77, 31
2, 69421, Note_on_c, 0, 69, 0
2, 69428, Note_on_c, 0, 77, 0
2, 69441, Note_on_c, 0, 81, 66
2, 69442, Note_on_c, 0, 74, 72
2, 69518, Note_on_c, 0, 57, 54
2, 69518, Note_on_c, 0, 58, 51
2, 69518, Note_on_c, 0, 62, 44
2, 69535, Note_on_c, 0, 81, 0
2, 69566, Note_on_c, 0, 74, 0
2, 69583, Note_on_c, 0, 62, 0
2, 69640, Note_on_c, 0, 57, 0
2, 69653, Note_on_c, 0, 58, 0
2, 69667, Note_on_c, 0, 76, 88
2, 69668, Note_on_c, 0, 72, 88
2, 69669, Note_on_c, 0, 67, 95
2, 69671, Note_on_c, 0, 60, 76
2, 69682, Control_c, 0, 64, 0
2, 69696, Control_c, 0, 64, 127
2, 69704, Note_on_c, 0, 72, 0
2, 69708, Note_on_c, 0, 76, 0
2, 69713, Note_on_c, 0, 67, 0
2, 69745, Note_on_c, 0, 60, 0
2, 69749, Note_on_c, 0, 72, 66
2, 69752, Note_on_c, 0, 56, 57
2, 69752, Control_c, 0, 64, 0
2, 69753, Note_on_c, 0, 63, 63
2, 69754, Note_on_c, 0, 68, 50
2, 69770, Note_on_c, 0, 72, 0
2, 69772, Note_on_c, 0, 68, 0
2, 69773, Note_on_c, 0, 63, 0
2, 69791, Note_on_c, 0, 56, 0
2, 69807, Control_c, 0, 64, 127
2, 69808, Note_on_c, 0, 53, 61
2, 69819, Note_on_c, 0, 53, 0
2, 69876, Note_on_c, 0, 58, 54
2, 69877, Note_on_c, 0, 53, 44
2, 69877, Note_on_c, 0, 39, 50
2, 69877, Note_on_c, 0, 65, 51
2, 69880, Note_on_c, 0, 62, 46
2, 69884, Note_on_c, 0, 55, 28
2, 69889, Control_c, 0, 64, 0
2, 69929, Control_c, 0, 64, 127
2, 69945, Note_on_c, 0, 55, 0
2, 69948, Note_on_c, 0, 53, 0
2, 69950, Note_on_c, 0, 46, 59
2, 69963, Note_on_c, 0, 39, 0
2, 69969, Note_on_c, 0, 62, 0
2, 69987, Note_on_c, 0, 58, 0
2, 70006, Note_on_c, 0, 65, 0
2, 70013, Note_on_c, 0, 62, 44
2, 70017, Note_on_c, 0, 55, 45
2, 70024, Note_on_c, 0, 62, 0
2, 70039, Note_on_c, 0, 55, 0
2, 70078, Note_on_c, 0, 46, 0
2, 70086, Note_on_c, 0, 69, 72
2, 70087, Note_on_c, 0, 62, 68
2, 70091, Note_on_c, 0, 46, 60
2, 70091, Note_on_c, 0, 57, 64
2, 70091, Note_on_c, 0, 55, 74
2, 70101, Control_c, 0, 64, 0
2, 70139, Control_c, 0, 64, 127
2, 70228, Note_on_c, 0, 46, 0
2, 70236, Note_on_c, 0, 55, 0
2, 70244, Note_on_c, 0, 57, 0
2, 70277, Note_on_c, 0, 62, 0
2, 70281, Note_on_c, 0, 69, 0
2, 70417, Note_on_c, 0, 67, 36
2, 70419, Note_on_c, 0, 57, 31
2, 70419, Note_on_c, 0, 60, 44
2, 70421, Note_on_c, 0, 45, 36
2, 70422, Note_on_c, 0, 38, 46
2, 70424, Note_on_c, 0, 50, 31
2, 70425, Control_c, 0, 64, 0
2, 70454, Control_c, 0, 64, 127
2, 70467, Note_on_c, 0, 57, 0
2, 70479, Note_on_c, 0, 60, 0
2, 70497, Note_on_c, 0, 38, 0
2, 70498, Note_on_c, 0, 67, 0
2, 70501, Note_on_c, 0, 45, 0
2, 70511, Note_on_c, 0, 50, 0
2, 70655, Note_on_c, 0, 55, 73
2, 70655, Note_on_c, 0, 79, 89
2, 70686, Note_on_c, 0, 79, 0
2, 70730, Note_on_c, 0, 55, 0
2, 70734, Note_on_c, 0, 60, 82
2, 70734, Note_on_c, 0, 84, 95
2, 70780, Note_on_c, 0, 84, 0
2, 70790, Note_on_c, 0, 60, 0
2, 70816, Note_on_c, 0, 60, 64
2, 70817, Note_on_c, 0, 84, 82
2, 70878, Note_on_c, 0, 84, 0
2, 70888, Note_on_c, 0, 60, 0
2, 70900, Note_on_c, 0, 83, 69
2, 70900, Note_on_c, 0, 59, 45
2, 70948, Note_on_c, 0, 83, 0
2, 70952, Note_on_c, 0, 59, 0
2, 70985, Note_on_c, 0, 83, 68
2, 71005, Note_on_c, 0, 83, 0
2, 71092, Note_on_c, 0, 81, 54
2, 71092, Control_c, 0, 64, 0
2, 71093, Note_on_c, 0, 45, 50
2, 71094, Note_on_c, 0, 76, 45
2, 71098, Note_on_c, 0, 71, 38
2, 71114, Control_c, 0, 64, 127
2, 71132, Note_on_c, 0, 81, 0
2, 71139, Note_on_c, 0, 76, 0
2, 71151, Note_on_c, 0, 71, 0
2, 71176, Note_on_c, 0, 52, 43
2, 71241, Note_on_c, 0, 45, 0
2, 71249, Note_on_c, 0, 52, 0
2, 71257, Note_on_c, 0, 76, 41
2, 71258, Note_on_c, 0, 66, 35
2, 71258, Note_on_c, 0, 57, 47
2, 71260, Note_on_c, 0, 71, 43
2, 71353, Note_on_c, 0, 61, 44
2, 71363, Note_on_c, 0, 57, 0
2, 71374, Note_on_c, 0, 71, 0
2, 71382, Note_on_c, 0, 66, 0
2, 71422, Note_on_c, 0, 76, 0
2, 71457, Note_on_c, 0, 64, 30
2, 71548, Note_on_c, 0, 64, 0
2, 71552, Note_on_c, 0, 81, 32
2, 71555, Note_on_c, 0, 69, 36
2, 71557, Note_on_c, 0, 73, 13
2, 71596, Note_on_c, 0, 81, 0
2, 71603, Note_on_c, 0, 73, 0
2, 71624, Note_on_c, 0, 69, 0
2, 71652, Note_on_c, 0, 76, 42
2, 71652, Note_on_c, 0, 64, 32
2, 71656, Note_on_c, 0, 71, 32
2, 71658, Note_on_c, 0, 66, 21
2, 71662, Note_on_c, 0, 64, 0
2, 71675, Note_on_c, 0, 61, 0
2, 71708, Note_on_c, 0, 76, 0
2, 71718, Note_on_c, 0, 71, 0
2, 71747, Note_on_c, 0, 66, 0
2, 71753, Note_on_c, 0, 52, 31
2, 71860, Note_on_c, 0, 64, 43
2, 71861, Note_on_c, 0, 59, 36
2, 71862, Note_on_c, 0, 61, 36
2, 71869, Note_on_c, 0, 52, 0
2, 71870, Note_on_c, 0, 45, 36
2, 71982, Note_on_c, 0, 59, 0
2, 71984, Note_on_c, 0, 52, 17
2, 71996, Note_on_c, 0, 61, 0
2, 72059, Note_on_c, 0, 64, 0
2, 72079, Note_on_c, 0, 52, 0
2, 72090, Note_on_c, 0, 45, 0
2, 72091, Note_on_c, 0, 61, 25
2, 72093, Note_on_c, 0, 56, 31
2, 72094, Note_on_c, 0, 64, 34
2, 72099, Note_on_c, 0, 59, 39
2, 72202, Note_on_c, 0, 56, 0
2, 72205, Note_on_c, 0, 59, 0
2, 72211, Note_on_c, 0, 40, 38
2, 72216, Note_on_c, 0, 64, 0
2, 72222, Note_on_c, 0, 61, 0
2, 72365, Note_on_c, 0, 40, 0
2, 72424, Note_on_c, 0, 40, 38
2, 72545, Note_on_c, 0, 40, 0
2, 72635, Note_on_c, 0, 40, 39
2, 72792, Note_on_c, 0, 33, 48
2, 72796, Note_on_c, 0, 105, 51
2, 72852, Note_on_c, 0, 105, 0
2, 72856, Note_on_c, 0, 40, 0
2, 72859, Note_on_c, 0, 33, 0
2, 73341, Control_c, 0, 64, 0
2, 73341, End_track
0, 0, End_of_file
