0, 0, Header, 0, 1, 960
1, 0, Start_track
1, 0, Title_t, "Too Young to Go Steady"
1, 0, Text_t, "Jimmy McHugh\012"
1, 0, Text_t, "Played in Real time - solo jazz piano.\012"
1, 0, Time_signature, 4, 2, 24, 8
1, 0, Key_signature, 0, "major"
1, 0, Tempo, 845070
1, 0, Marker_t, "First Chorus Rubato"
1, 0, Control_c, 0, 64, 127
1, 256, Note_on_c, 0, 74, 75
1, 582, Note_on_c, 0, 74, 0
1, 795, Note_on_c, 0, 41, 38
1, 856, Note_on_c, 0, 72, 46
1, 871, Note_on_c, 0, 48, 26
1, 922, Note_on_c, 0, 67, 49
1, 944, Note_on_c, 0, 57, 29
1, 964, Note_on_c, 0, 62, 33
1, 990, Control_c, 0, 64, 0
1, 1241, Control_c, 0, 64, 127
1, 1522, Note_on_c, 0, 72, 0
1, 1630, Note_on_c, 0, 72, 56
1, 2070, Note_on_c, 0, 72, 0
1, 2135, Note_on_c, 0, 41, 0
1, 2197, Note_on_c, 0, 48, 0
1, 2276, Note_on_c, 0, 72, 46
1, 2415, Note_on_c, 0, 57, 0
1, 2534, Note_on_c, 0, 72, 0
1, 2753, Note_on_c, 0, 62, 0
1, 2810, Note_on_c, 0, 72, 38
1, 2933, Note_on_c, 0, 67, 0
1, 3070, Note_on_c, 0, 72, 0
1, 3392, Note_on_c, 0, 72, 33
1, 3402, Note_on_c, 0, 64, 33
1, 3408, Note_on_c, 0, 65, 32
1, 3428, Control_c, 0, 64, 0
1, 3429, Note_on_c, 0, 69, 37
1, 3442, Note_on_c, 0, 50, 24
1, 3712, Control_c, 0, 64, 127
1, 4196, Note_on_c, 0, 64, 0
1, 4363, Note_on_c, 0, 57, 50
1, 4398, Note_on_c, 0, 50, 0
1, 4398, Note_on_c, 0, 65, 0
1, 4483, Note_on_c, 0, 69, 0
1, 4565, Note_on_c, 0, 72, 0
1, 5149, Note_on_c, 0, 81, 76
1, 5161, Note_on_c, 0, 77, 80
1, 5167, Note_on_c, 0, 69, 79
1, 5173, Note_on_c, 0, 64, 54
1, 5474, Note_on_c, 0, 77, 0
1, 5477, Note_on_c, 0, 81, 0
1, 5562, Note_on_c, 0, 69, 0
1, 5669, Note_on_c, 0, 64, 0
1, 5895, Note_on_c, 0, 77, 55
1, 5898, Note_on_c, 0, 74, 54
1, 5907, Note_on_c, 0, 62, 29
1, 5909, Note_on_c, 0, 65, 50
1, 6161, Note_on_c, 0, 62, 0
1, 6212, Note_on_c, 0, 57, 0
1, 6218, Note_on_c, 0, 77, 0
1, 6230, Note_on_c, 0, 74, 0
1, 6363, Note_on_c, 0, 65, 0
1, 7386, Note_on_c, 0, 69, 61
1, 7397, Note_on_c, 0, 58, 53
1, 7398, Note_on_c, 0, 43, 32
1, 7401, Note_on_c, 0, 62, 41
1, 7424, Control_c, 0, 64, 0
1, 7641, Control_c, 0, 64, 127
1, 7887, Note_on_c, 0, 49, 77
1, 7902, Control_c, 0, 64, 0
1, 8050, Control_c, 0, 64, 127
1, 8332, Note_on_c, 0, 49, 0
1, 8370, Control_c, 0, 64, 0
1, 8371, Note_on_c, 0, 50, 74
1, 8517, Control_c, 0, 64, 127
1, 8697, Note_on_c, 0, 62, 0
1, 8718, Note_on_c, 0, 58, 0
1, 8825, Control_c, 0, 64, 0
1, 8880, Note_on_c, 0, 58, 50
1, 8888, Note_on_c, 0, 62, 32
1, 8897, Note_on_c, 0, 53, 36
1, 8898, Note_on_c, 0, 65, 44
1, 8911, Note_on_c, 0, 43, 0
1, 8921, Note_on_c, 0, 50, 0
1, 8961, Control_c, 0, 64, 127
1, 9250, Note_on_c, 0, 65, 0
1, 9322, Note_on_c, 0, 58, 0
1, 9323, Note_on_c, 0, 62, 0
1, 9375, Note_on_c, 0, 69, 0
1, 9484, Control_c, 0, 64, 0
1, 9486, Note_on_c, 0, 53, 0
1, 9498, Note_on_c, 0, 67, 44
1, 9512, Note_on_c, 0, 58, 36
1, 9523, Note_on_c, 0, 64, 40
1, 9531, Note_on_c, 0, 48, 38
1, 9668, Control_c, 0, 64, 127
1, 9700, Note_on_c, 0, 58, 0
1, 9729, Note_on_c, 0, 64, 0
1, 9755, Note_on_c, 0, 67, 0
1, 10075, Note_on_c, 0, 48, 0
1, 10152, Note_on_c, 0, 72, 48
1, 10272, Note_on_c, 0, 72, 0
1, 10835, Note_on_c, 0, 84, 17
1, 10849, Note_on_c, 0, 72, 44
1, 10859, Note_on_c, 0, 60, 28
1, 11029, Note_on_c, 0, 60, 0
1, 11223, Note_on_c, 0, 72, 0
1, 11475, Note_on_c, 0, 84, 0
1, 11818, Note_on_c, 0, 80, 37
1, 11829, Note_on_c, 0, 76, 27
1, 11835, Note_on_c, 0, 84, 24
1, 11839, Note_on_c, 0, 70, 33
1, 12650, Note_on_c, 0, 70, 0
1, 12925, Control_c, 0, 64, 0
1, 12967, Note_on_c, 0, 74, 66
1, 12979, Note_on_c, 0, 68, 71
1, 12981, Note_on_c, 0, 64, 69
1, 12992, Note_on_c, 0, 58, 63
1, 13084, Control_c, 0, 64, 127
1, 13120, Note_on_c, 0, 84, 0
1, 13250, Note_on_c, 0, 76, 0
1, 13265, Note_on_c, 0, 80, 0
1, 13309, Note_on_c, 0, 74, 0
1, 13402, Note_on_c, 0, 64, 0
1, 13473, Note_on_c, 0, 68, 0
1, 13484, Control_c, 0, 64, 0
1, 13503, Note_on_c, 0, 58, 0
1, 13522, Note_on_c, 0, 72, 60
1, 13522, Note_on_c, 0, 57, 66
1, 13531, Note_on_c, 0, 67, 67
1, 13540, Note_on_c, 0, 62, 48
1, 13676, Control_c, 0, 64, 127
1, 13844, Note_on_c, 0, 57, 0
1, 14050, Note_on_c, 0, 41, 51
1, 14120, Note_on_c, 0, 72, 0
1, 14134, Note_on_c, 0, 67, 0
1, 14336, Note_on_c, 0, 62, 0
1, 14506, Note_on_c, 0, 60, 52
1, 14519, Note_on_c, 0, 64, 53
1, 14529, Note_on_c, 0, 48, 40
1, 14817, Note_on_c, 0, 60, 0
1, 14835, Note_on_c, 0, 41, 0
1, 14865, Note_on_c, 0, 69, 70
1, 14884, Note_on_c, 0, 48, 0
1, 14969, Note_on_c, 0, 64, 0
1, 15023, Note_on_c, 0, 69, 0
1, 15269, Note_on_c, 0, 76, 57
1, 15273, Note_on_c, 0, 69, 64
1, 15282, Note_on_c, 0, 65, 64
1, 15293, Control_c, 0, 64, 0
1, 15296, Note_on_c, 0, 61, 37
1, 15498, Control_c, 0, 64, 127
1, 15647, Note_on_c, 0, 61, 0
1, 15694, Note_on_c, 0, 76, 0
1, 15720, Note_on_c, 0, 57, 44
1, 15725, Note_on_c, 0, 74, 45
1, 15945, Note_on_c, 0, 74, 0
1, 16046, Note_on_c, 0, 65, 0
1, 16067, Note_on_c, 0, 69, 0
1, 16323, Note_on_c, 0, 69, 39
1, 16324, Note_on_c, 0, 77, 46
1, 16338, Note_on_c, 0, 65, 33
1, 16339, Note_on_c, 0, 60, 31
1, 16350, Note_on_c, 0, 72, 33
1, 16382, Note_on_c, 0, 57, 0
1, 16384, Note_on_c, 0, 50, 29
1, 16398, Control_c, 0, 64, 0
1, 16568, Control_c, 0, 64, 127
1, 16782, Note_on_c, 0, 72, 0
1, 17083, Note_on_c, 0, 69, 0
1, 17107, Note_on_c, 0, 77, 0
1, 17209, Note_on_c, 0, 65, 0
1, 17311, Note_on_c, 0, 69, 57
1, 17667, Note_on_c, 0, 60, 0
1, 17711, Note_on_c, 0, 65, 36
1, 17777, Note_on_c, 0, 69, 0
1, 17782, Note_on_c, 0, 50, 0
1, 17838, Note_on_c, 0, 65, 0
1, 18361, Note_on_c, 0, 67, 51
1, 18406, Note_on_c, 0, 62, 42
1, 18447, Note_on_c, 0, 58, 18
1, 18504, Control_c, 0, 64, 0
1, 18577, Note_on_c, 0, 57, 26
1, 19002, Note_on_c, 0, 50, 33
1, 19085, Control_c, 0, 64, 127
1, 19394, Note_on_c, 0, 57, 0
1, 19543, Note_on_c, 0, 67, 0
1, 19572, Note_on_c, 0, 57, 46
1, 19684, Note_on_c, 0, 53, 2
1, 19814, Note_on_c, 0, 58, 0
1, 20007, Note_on_c, 0, 50, 0
1, 20043, Note_on_c, 0, 58, 58
1, 20050, Note_on_c, 0, 57, 0
1, 20080, Note_on_c, 0, 62, 0
1, 20092, Note_on_c, 0, 53, 0
1, 20289, Note_on_c, 0, 58, 0
1, 20578, Note_on_c, 0, 60, 45
1, 20587, Note_on_c, 0, 48, 33
1, 20589, Note_on_c, 0, 58, 30
1, 20644, Control_c, 0, 64, 0
1, 20804, Control_c, 0, 64, 127
1, 21060, Note_on_c, 0, 58, 0
1, 21062, Note_on_c, 0, 62, 53
1, 21069, Note_on_c, 0, 55, 31
1, 21151, Note_on_c, 0, 60, 0
1, 21462, Note_on_c, 0, 55, 0
1, 21533, Note_on_c, 0, 62, 0
1, 21622, Note_on_c, 0, 61, 51
1, 21626, Note_on_c, 0, 64, 30
1, 21635, Note_on_c, 0, 58, 50
1, 21668, Note_on_c, 0, 55, 18
1, 22010, Note_on_c, 0, 58, 0
1, 22070, Note_on_c, 0, 64, 0
1, 22098, Note_on_c, 0, 61, 0
1, 22441, Note_on_c, 0, 48, 0
1, 22478, Note_on_c, 0, 55, 0
1, 23175, Note_on_c, 0, 76, 80
1, 23186, Control_c, 0, 64, 0
1, 23187, Note_on_c, 0, 67, 78
1, 23188, Note_on_c, 0, 62, 54
1, 23188, Note_on_c, 0, 72, 70
1, 23196, Note_on_c, 0, 56, 62
1, 23343, Control_c, 0, 64, 127
1, 23518, Note_on_c, 0, 62, 0
1, 23548, Note_on_c, 0, 72, 0
1, 23579, Note_on_c, 0, 76, 0
1, 23589, Note_on_c, 0, 67, 0
1, 23751, Note_on_c, 0, 56, 0
1, 23909, Note_on_c, 0, 72, 60
1, 23913, Control_c, 0, 64, 0
1, 23914, Note_on_c, 0, 62, 53
1, 23917, Note_on_c, 0, 67, 60
1, 23927, Note_on_c, 0, 57, 52
1, 24130, Control_c, 0, 64, 127
1, 24279, Note_on_c, 0, 57, 0
1, 24345, Note_on_c, 0, 67, 0
1, 24381, Note_on_c, 0, 72, 0
1, 24466, Note_on_c, 0, 62, 0
1, 24654, Note_on_c, 0, 64, 57
1, 24665, Control_c, 0, 64, 0
1, 24667, Note_on_c, 0, 45, 43
1, 24668, Note_on_c, 0, 60, 43
1, 24679, Note_on_c, 0, 55, 35
1, 24801, Control_c, 0, 64, 127
1, 24951, Note_on_c, 0, 60, 0
1, 24985, Note_on_c, 0, 45, 0
1, 25030, Note_on_c, 0, 64, 0
1, 25114, Note_on_c, 0, 55, 0
1, 25910, Note_on_c, 0, 50, 54
1, 25929, Control_c, 0, 64, 0
1, 26065, Control_c, 0, 64, 127
1, 26170, Note_on_c, 0, 50, 0
1, 26708, Note_on_c, 0, 89, 36
1, 26717, Note_on_c, 0, 77, 34
1, 26721, Note_on_c, 0, 82, 35
1, 26722, Note_on_c, 0, 54, 37
1, 26733, Note_on_c, 0, 86, 50
1, 26736, Note_on_c, 0, 65, 29
1, 26753, Note_on_c, 0, 60, 31
1, 27794, Note_on_c, 0, 77, 0
1, 27873, Note_on_c, 0, 86, 0
1, 27885, Note_on_c, 0, 82, 0
1, 27923, Note_on_c, 0, 89, 0
1, 28085, Note_on_c, 0, 65, 0
1, 28141, Note_on_c, 0, 60, 0
1, 28357, Note_on_c, 0, 54, 0
1, 28601, Note_on_c, 0, 93, 74
1, 28602, Note_on_c, 0, 57, 60
1, 28618, Note_on_c, 0, 81, 65
1, 29022, Note_on_c, 0, 93, 0
1, 29052, Note_on_c, 0, 89, 61
1, 29072, Note_on_c, 0, 53, 29
1, 29094, Note_on_c, 0, 57, 0
1, 29242, Note_on_c, 0, 53, 0
1, 29443, Note_on_c, 0, 81, 0
1, 29561, Note_on_c, 0, 89, 0
1, 29742, Control_c, 0, 64, 0
1, 29795, Note_on_c, 0, 93, 71
1, 29808, Note_on_c, 0, 81, 50
1, 29811, Note_on_c, 0, 86, 55
1, 29819, Note_on_c, 0, 43, 33
1, 29903, Control_c, 0, 64, 127
1, 30338, Note_on_c, 0, 50, 46
1, 30549, Note_on_c, 0, 81, 0
1, 30674, Note_on_c, 0, 93, 0
1, 30764, Note_on_c, 0, 86, 0
1, 30906, Note_on_c, 0, 91, 52
1, 30919, Note_on_c, 0, 86, 44
1, 30927, Note_on_c, 0, 79, 30
1, 30930, Note_on_c, 0, 55, 40
1, 30947, Note_on_c, 0, 50, 0
1, 30948, Note_on_c, 0, 43, 0
1, 31445, Note_on_c, 0, 57, 57
1, 31489, Note_on_c, 0, 91, 0
1, 31493, Note_on_c, 0, 86, 0
1, 31494, Note_on_c, 0, 55, 0
1, 31560, Note_on_c, 0, 79, 0
1, 32091, Note_on_c, 0, 62, 37
1, 32092, Note_on_c, 0, 67, 44
1, 32130, Note_on_c, 0, 58, 53
1, 32135, Note_on_c, 0, 57, 0
1, 32145, Control_c, 0, 64, 0
1, 32317, Control_c, 0, 64, 127
1, 32765, Note_on_c, 0, 69, 70
1, 32881, Note_on_c, 0, 58, 0
1, 33023, Note_on_c, 0, 62, 0
1, 33208, Note_on_c, 0, 69, 0
1, 33237, Note_on_c, 0, 67, 0
1, 33449, Note_on_c, 0, 61, 43
1, 33455, Control_c, 0, 64, 0
1, 33458, Note_on_c, 0, 70, 48
1, 33463, Note_on_c, 0, 55, 30
1, 33472, Note_on_c, 0, 45, 36
1, 33478, Note_on_c, 0, 66, 46
1, 33625, Control_c, 0, 64, 127
1, 33843, Note_on_c, 0, 70, 0
1, 33873, Note_on_c, 0, 55, 0
1, 33909, Note_on_c, 0, 66, 0
1, 33973, Note_on_c, 0, 61, 0
1, 34601, Note_on_c, 0, 67, 53
1, 34605, Control_c, 0, 64, 0
1, 34615, Note_on_c, 0, 61, 42
1, 34616, Note_on_c, 0, 58, 36
1, 34618, Note_on_c, 0, 49, 42
1, 34624, Note_on_c, 0, 64, 47
1, 34627, Note_on_c, 0, 45, 0
1, 34631, Note_on_c, 0, 55, 29
1, 34752, Control_c, 0, 64, 127
1, 35006, Note_on_c, 0, 69, 65
1, 35033, Note_on_c, 0, 49, 0
1, 35045, Note_on_c, 0, 64, 0
1, 35068, Note_on_c, 0, 58, 0
1, 35124, Note_on_c, 0, 61, 0
1, 35434, Note_on_c, 0, 69, 0
1, 35446, Note_on_c, 0, 67, 0
1, 35517, Note_on_c, 0, 62, 47
1, 35518, Note_on_c, 0, 55, 0
1, 35521, Note_on_c, 0, 65, 44
1, 35527, Note_on_c, 0, 50, 37
1, 35540, Control_c, 0, 64, 0
1, 35686, Control_c, 0, 64, 127
1, 35993, Note_on_c, 0, 62, 0
1, 36048, Note_on_c, 0, 65, 0
1, 36073, Note_on_c, 0, 57, 46
1, 36079, Note_on_c, 0, 50, 0
1, 36924, Note_on_c, 0, 69, 46
1, 36940, Note_on_c, 0, 65, 33
1, 36957, Note_on_c, 0, 64, 40
1, 37726, Note_on_c, 0, 69, 0
1, 37963, Note_on_c, 0, 65, 0
1, 38201, Note_on_c, 0, 67, 60
1, 38426, Note_on_c, 0, 64, 0
1, 38537, Note_on_c, 0, 57, 0
1, 38552, Note_on_c, 0, 69, 64
1, 38724, Note_on_c, 0, 69, 0
1, 38770, Note_on_c, 0, 67, 0
1, 39347, Note_on_c, 0, 63, 59
1, 39353, Note_on_c, 0, 59, 46
1, 39356, Note_on_c, 0, 71, 34
1, 39395, Note_on_c, 0, 43, 28
1, 39399, Note_on_c, 0, 53, 29
1, 39427, Note_on_c, 0, 63, 0
1, 39444, Control_c, 0, 64, 0
1, 39453, Note_on_c, 0, 64, 34
1, 39740, Control_c, 0, 64, 127
1, 39878, Note_on_c, 0, 64, 0
1, 39990, Control_c, 0, 64, 0
1, 40004, Note_on_c, 0, 63, 45
1, 40093, Control_c, 0, 64, 127
1, 40322, Note_on_c, 0, 71, 0
1, 40505, Note_on_c, 0, 53, 0
1, 40612, Note_on_c, 0, 63, 0
1, 40678, Note_on_c, 0, 62, 34
1, 40719, Note_on_c, 0, 53, 19
1, 40762, Note_on_c, 0, 59, 0
1, 40870, Note_on_c, 0, 62, 0
1, 41221, Note_on_c, 0, 72, 55
1, 41461, Note_on_c, 0, 72, 0
1, 41672, Note_on_c, 0, 43, 0
1, 41745, Note_on_c, 0, 74, 44
1, 41825, Note_on_c, 0, 53, 0
1, 41948, Note_on_c, 0, 74, 0
1, 42512, Note_on_c, 0, 76, 41
1, 42533, Note_on_c, 0, 65, 30
1, 42534, Note_on_c, 0, 70, 35
1, 42540, Note_on_c, 0, 67, 27
1, 42632, Control_c, 0, 64, 0
1, 42883, Control_c, 0, 64, 127
1, 43342, Note_on_c, 0, 60, 32
1, 43385, Control_c, 0, 64, 0
1, 43452, Control_c, 0, 64, 127
1, 43714, Note_on_c, 0, 60, 0
1, 43967, Note_on_c, 0, 65, 0
1, 43975, Note_on_c, 0, 60, 31
1, 43977, Note_on_c, 0, 67, 0
1, 44062, Note_on_c, 0, 70, 0
1, 44074, Note_on_c, 0, 76, 0
1, 44641, Note_on_c, 0, 84, 47
1, 44991, Note_on_c, 0, 84, 0
1, 45017, Note_on_c, 0, 60, 0
1, 45564, Note_on_c, 0, 81, 30
1, 45603, Note_on_c, 0, 73, 23
1, 45606, Note_on_c, 0, 76, 42
1, 45635, Note_on_c, 0, 69, 33
1, 45639, Control_c, 0, 64, 0
1, 45641, Note_on_c, 0, 58, 38
1, 45648, Note_on_c, 0, 64, 24
1, 45799, Control_c, 0, 64, 127
1, 45904, Note_on_c, 0, 69, 0
1, 45938, Note_on_c, 0, 76, 0
1, 45952, Note_on_c, 0, 73, 0
1, 46003, Note_on_c, 0, 81, 0
1, 46386, Note_on_c, 0, 96, 36
1, 46435, Note_on_c, 0, 84, 42
1, 46695, Note_on_c, 0, 84, 0
1, 46735, Note_on_c, 0, 96, 0
1, 47310, Note_on_c, 0, 108, 71
1, 47351, Note_on_c, 0, 96, 22
1, 47563, Note_on_c, 0, 108, 0
1, 47682, Note_on_c, 0, 96, 0
1, 48423, Note_on_c, 0, 64, 0
1, 48536, Note_on_c, 0, 58, 0
1, 49681, Marker_t, "Nice V-I voicings using 4ths in RH"
1, 49829, Control_c, 0, 64, 0
1, 49850, Note_on_c, 0, 74, 68
1, 49852, Note_on_c, 0, 69, 74
1, 49858, Note_on_c, 0, 64, 71
1, 49884, Note_on_c, 0, 58, 57
1, 49930, Control_c, 0, 64, 127
1, 49987, Note_on_c, 0, 58, 0
1, 50340, Note_on_c, 0, 74, 0
1, 50415, Note_on_c, 0, 64, 0
1, 50794, Note_on_c, 0, 69, 0
1, 51323, Note_on_c, 0, 72, 43
1, 51328, Note_on_c, 0, 62, 32
1, 51331, Note_on_c, 0, 67, 35
1, 51347, Note_on_c, 0, 48, 31
1, 51354, Control_c, 0, 64, 0
1, 51358, Note_on_c, 0, 57, 43
1, 51369, Note_on_c, 0, 41, 22
1, 51559, Control_c, 0, 64, 127
1, 51716, Note_on_c, 0, 62, 0
1, 51790, Note_on_c, 0, 67, 0
1, 51799, Note_on_c, 0, 72, 0
1, 51953, Marker_t, "Nice melodic idea- each note (mostly chord tones) played twice"
1, 52105, Note_on_c, 0, 79, 82
1, 52309, Note_on_c, 0, 79, 0
1, 52491, Note_on_c, 0, 79, 81
1, 52703, Note_on_c, 0, 41, 0
1, 52734, Note_on_c, 0, 48, 0
1, 52764, Note_on_c, 0, 79, 0
1, 52801, Note_on_c, 0, 72, 57
1, 52881, Note_on_c, 0, 57, 0
1, 53010, Note_on_c, 0, 72, 0
1, 53136, Note_on_c, 0, 72, 57
1, 53380, Note_on_c, 0, 72, 0
1, 53467, Note_on_c, 0, 77, 66
1, 53648, Note_on_c, 0, 77, 0
1, 53814, Control_c, 0, 64, 0
1, 53837, Note_on_c, 0, 77, 59
1, 53858, Note_on_c, 0, 50, 26
1, 54007, Control_c, 0, 64, 127
1, 54156, Note_on_c, 0, 69, 60
1, 54397, Note_on_c, 0, 69, 0
1, 54443, Note_on_c, 0, 77, 0
1, 54566, Note_on_c, 0, 69, 36
1, 54571, Note_on_c, 0, 65, 39
1, 54582, Note_on_c, 0, 61, 36
1, 54600, Control_c, 0, 64, 0
1, 54748, Control_c, 0, 64, 127
1, 54949, Note_on_c, 0, 76, 53
1, 55179, Note_on_c, 0, 61, 0
1, 55200, Note_on_c, 0, 76, 0
1, 55418, Note_on_c, 0, 76, 44
1, 55431, Note_on_c, 0, 60, 31
1, 55454, Control_c, 0, 64, 0
1, 55590, Control_c, 0, 64, 127
1, 55634, Note_on_c, 0, 69, 0
1, 55736, Note_on_c, 0, 65, 0
1, 55869, Note_on_c, 0, 69, 38
1, 55945, Note_on_c, 0, 57, 24
1, 56201, Note_on_c, 0, 57, 0
1, 56258, Note_on_c, 0, 69, 0
1, 56420, Note_on_c, 0, 76, 0
1, 56439, Note_on_c, 0, 69, 32
1, 56473, Note_on_c, 0, 65, 26
1, 56608, Note_on_c, 0, 69, 0
1, 56914, Note_on_c, 0, 65, 0
1, 57039, Note_on_c, 0, 69, 73
1, 57242, Note_on_c, 0, 60, 0
1, 57363, Note_on_c, 0, 50, 0
1, 57367, Note_on_c, 0, 69, 0
1, 57375, Note_on_c, 0, 65, 68
1, 57718, Note_on_c, 0, 65, 0
1, 57773, Note_on_c, 0, 69, 63
1, 57781, Note_on_c, 0, 43, 35
1, 57799, Control_c, 0, 64, 0
1, 57993, Control_c, 0, 64, 127
1, 58131, Note_on_c, 0, 50, 39
1, 58275, Note_on_c, 0, 43, 0
1, 58505, Note_on_c, 0, 62, 37
1, 58511, Note_on_c, 0, 58, 49
1, 58520, Note_on_c, 0, 50, 0
1, 58526, Note_on_c, 0, 57, 44
1, 58586, Control_c, 0, 64, 0
1, 58676, Control_c, 0, 64, 127
1, 58904, Control_c, 0, 64, 0
1, 58927, Note_on_c, 0, 57, 0
1, 58934, Note_on_c, 0, 55, 61
1, 59064, Control_c, 0, 64, 127
1, 59335, Note_on_c, 0, 58, 0
1, 59336, Note_on_c, 0, 62, 0
1, 59476, Note_on_c, 0, 69, 0
1, 59786, Note_on_c, 0, 55, 0
1, 59867, Note_on_c, 0, 55, 55
1, 60328, Note_on_c, 0, 67, 47
1, 60332, Note_on_c, 0, 58, 46
1, 60353, Note_on_c, 0, 62, 31
1, 60677, Note_on_c, 0, 58, 0
1, 60703, Control_c, 0, 64, 0
1, 60764, Note_on_c, 0, 48, 62
1, 60812, Note_on_c, 0, 62, 0
1, 60863, Control_c, 0, 64, 127
1, 60864, Note_on_c, 0, 55, 0
1, 60871, Note_on_c, 0, 67, 0
1, 61329, Note_on_c, 0, 74, 63
1, 61343, Note_on_c, 0, 68, 70
1, 61345, Note_on_c, 0, 64, 63
1, 61352, Control_c, 0, 64, 0
1, 61353, Note_on_c, 0, 58, 51
1, 61462, Note_on_c, 0, 48, 0
1, 61488, Control_c, 0, 64, 127
1, 61497, Note_on_c, 0, 64, 0
1, 61553, Note_on_c, 0, 68, 0
1, 61578, Note_on_c, 0, 74, 0
1, 61816, Note_on_c, 0, 86, 82
1, 62129, Note_on_c, 0, 86, 0
1, 62332, Note_on_c, 0, 86, 77
1, 62806, Note_on_c, 0, 76, 44
1, 62935, Note_on_c, 0, 58, 0
1, 62977, Note_on_c, 0, 86, 0
1, 63158, Note_on_c, 0, 76, 0
1, 63387, Note_on_c, 0, 76, 47
1, 63399, Note_on_c, 0, 64, 35
1, 63403, Note_on_c, 0, 80, 36
1, 63414, Control_c, 0, 64, 0
1, 63415, Note_on_c, 0, 58, 38
1, 63571, Control_c, 0, 64, 127
1, 63997, Note_on_c, 0, 84, 25
1, 64129, Note_on_c, 0, 64, 0
1, 64130, Note_on_c, 0, 80, 0
1, 64133, Note_on_c, 0, 84, 0
1, 64191, Note_on_c, 0, 76, 0
1, 64288, Note_on_c, 0, 58, 0
1, 65168, Control_c, 0, 64, 0
1, 65219, Note_on_c, 0, 74, 50
1, 65231, Note_on_c, 0, 64, 40
1, 65232, Note_on_c, 0, 69, 46
1, 65299, Note_on_c, 0, 58, 26
1, 65325, Control_c, 0, 64, 127
1, 65367, Note_on_c, 0, 58, 0
1, 65496, Note_on_c, 0, 74, 0
1, 65672, Note_on_c, 0, 64, 0
1, 65715, Note_on_c, 0, 69, 0
1, 65938, Note_on_c, 0, 72, 44
1, 65941, Control_c, 0, 64, 0
1, 65942, Note_on_c, 0, 67, 40
1, 65945, Note_on_c, 0, 62, 32
1, 65971, Note_on_c, 0, 41, 22
1, 65985, Note_on_c, 0, 57, 32
1, 66168, Control_c, 0, 64, 127
1, 66426, Note_on_c, 0, 48, 48
1, 66457, Note_on_c, 0, 72, 0
1, 66458, Note_on_c, 0, 67, 0
1, 66469, Note_on_c, 0, 57, 0
1, 66511, Note_on_c, 0, 41, 0
1, 66705, Note_on_c, 0, 62, 0
1, 66847, Note_on_c, 0, 64, 58
1, 66852, Note_on_c, 0, 60, 51
1, 66856, Note_on_c, 0, 57, 53
1, 67173, Note_on_c, 0, 60, 0
1, 67218, Note_on_c, 0, 48, 0
1, 67262, Note_on_c, 0, 69, 60
1, 67349, Note_on_c, 0, 64, 0
1, 67378, Note_on_c, 0, 57, 0
1, 67424, Note_on_c, 0, 69, 0
1, 68211, Note_on_c, 0, 51, 51
1, 68234, Note_on_c, 0, 61, 59
1, 68235, Note_on_c, 0, 69, 54
1, 68239, Note_on_c, 0, 60, 40
1, 68245, Note_on_c, 0, 65, 56
1, 68287, Control_c, 0, 64, 0
1, 68436, Control_c, 0, 64, 127
1, 68555, Note_on_c, 0, 61, 0
1, 68571, Note_on_c, 0, 69, 0
1, 68586, Note_on_c, 0, 60, 0
1, 68590, Note_on_c, 0, 65, 0
1, 68681, Note_on_c, 0, 51, 0
1, 68741, Control_c, 0, 64, 0
1, 68770, Note_on_c, 0, 65, 59
1, 68773, Note_on_c, 0, 69, 54
1, 68775, Note_on_c, 0, 60, 58
1, 68793, Note_on_c, 0, 50, 57
1, 68970, Control_c, 0, 64, 127
1, 69163, Note_on_c, 0, 60, 0
1, 69241, Note_on_c, 0, 57, 75
1, 69284, Note_on_c, 0, 65, 0
1, 69334, Note_on_c, 0, 69, 0
1, 69718, Note_on_c, 0, 65, 91
1, 69721, Note_on_c, 0, 72, 77
1, 69729, Note_on_c, 0, 60, 51
1, 69861, Note_on_c, 0, 57, 0
1, 70210, Note_on_c, 0, 72, 0
1, 70256, Note_on_c, 0, 57, 53
1, 70260, Note_on_c, 0, 60, 0
1, 70264, Note_on_c, 0, 69, 61
1, 70365, Note_on_c, 0, 57, 0
1, 70415, Note_on_c, 0, 65, 0
1, 70420, Note_on_c, 0, 50, 0
1, 70453, Note_on_c, 0, 69, 0
1, 70837, Control_c, 0, 64, 0
1, 70886, Note_on_c, 0, 77, 67
1, 70890, Note_on_c, 0, 70, 70
1, 70893, Note_on_c, 0, 43, 30
1, 70899, Note_on_c, 0, 50, 35
1, 71008, Control_c, 0, 64, 127
1, 71071, Note_on_c, 0, 43, 0
1, 71119, Note_on_c, 0, 50, 0
1, 71498, Note_on_c, 0, 58, 53
1, 71501, Note_on_c, 0, 62, 30
1, 71504, Note_on_c, 0, 57, 32
1, 71829, Note_on_c, 0, 58, 0
1, 71861, Note_on_c, 0, 62, 0
1, 71974, Note_on_c, 0, 57, 0
1, 72138, Note_on_c, 0, 62, 24
1, 72145, Note_on_c, 0, 57, 13
1, 72153, Note_on_c, 0, 58, 36
1, 72371, Note_on_c, 0, 58, 0
1, 72430, Note_on_c, 0, 62, 0
1, 72634, Note_on_c, 0, 70, 0
1, 72756, Note_on_c, 0, 70, 29
1, 72779, Note_on_c, 0, 65, 36
1, 72780, Note_on_c, 0, 62, 20
1, 72786, Note_on_c, 0, 58, 34
1, 72999, Note_on_c, 0, 62, 0
1, 73025, Note_on_c, 0, 65, 0
1, 73028, Note_on_c, 0, 57, 0
1, 73037, Note_on_c, 0, 58, 0
1, 73193, Note_on_c, 0, 70, 0
1, 73260, Note_on_c, 0, 77, 0
1, 73433, Control_c, 0, 64, 0
1, 73456, Note_on_c, 0, 70, 42
1, 73458, Note_on_c, 0, 77, 40
1, 73471, Note_on_c, 0, 58, 29
1, 73473, Note_on_c, 0, 65, 48
1, 73476, Note_on_c, 0, 48, 33
1, 73615, Control_c, 0, 64, 127
1, 73948, Note_on_c, 0, 77, 0
1, 73994, Note_on_c, 0, 58, 0
1, 74053, Note_on_c, 0, 55, 24
1, 74091, Note_on_c, 0, 48, 0
1, 74111, Note_on_c, 0, 65, 0
1, 74167, Note_on_c, 0, 70, 0
1, 74182, Note_on_c, 0, 55, 0
1, 74752, Note_on_c, 0, 76, 52
1, 74755, Control_c, 0, 64, 0
1, 74766, Note_on_c, 0, 68, 64
1, 74774, Note_on_c, 0, 73, 43
1, 74775, Note_on_c, 0, 64, 62
1, 74776, Note_on_c, 0, 61, 42
1, 74788, Note_on_c, 0, 58, 46
1, 74905, Control_c, 0, 64, 127
1, 75183, Note_on_c, 0, 61, 0
1, 75210, Note_on_c, 0, 58, 0
1, 75248, Note_on_c, 0, 76, 0
1, 75259, Note_on_c, 0, 73, 0
1, 75271, Note_on_c, 0, 64, 0
1, 75350, Note_on_c, 0, 68, 0
1, 75527, Note_on_c, 0, 74, 55
1, 75544, Note_on_c, 0, 68, 58
1, 75546, Note_on_c, 0, 64, 58
1, 75585, Note_on_c, 0, 58, 54
1, 75777, Note_on_c, 0, 58, 0
1, 75858, Note_on_c, 0, 64, 0
1, 75874, Note_on_c, 0, 74, 0
1, 76066, Note_on_c, 0, 68, 0
1, 76396, Control_c, 0, 64, 0
1, 76431, Note_on_c, 0, 72, 48
1, 76434, Note_on_c, 0, 67, 56
1, 76445, Note_on_c, 0, 60, 52
1, 76448, Note_on_c, 0, 45, 47
1, 76455, Note_on_c, 0, 55, 35
1, 76580, Control_c, 0, 64, 127
1, 76802, Note_on_c, 0, 72, 0
1, 76850, Note_on_c, 0, 55, 0
1, 76986, Note_on_c, 0, 72, 63
1, 77004, Note_on_c, 0, 45, 0
1, 77241, Note_on_c, 0, 67, 0
1, 77267, Note_on_c, 0, 60, 0
1, 77302, Note_on_c, 0, 72, 0
1, 77665, Note_on_c, 0, 61, 52
1, 77668, Note_on_c, 0, 72, 49
1, 77679, Note_on_c, 0, 65, 43
1, 77694, Control_c, 0, 64, 0
1, 77702, Note_on_c, 0, 69, 38
1, 77715, Note_on_c, 0, 39, 36
1, 77934, Control_c, 0, 64, 127
1, 78059, Note_on_c, 0, 72, 0
1, 78328, Note_on_c, 0, 72, 51
1, 78399, Note_on_c, 0, 65, 0
1, 78424, Note_on_c, 0, 61, 0
1, 78578, Note_on_c, 0, 69, 0
1, 78658, Note_on_c, 0, 72, 0
1, 79073, Note_on_c, 0, 39, 0
1, 79095, Control_c, 0, 64, 0
1, 79130, Note_on_c, 0, 72, 41
1, 79143, Note_on_c, 0, 64, 34
1, 79149, Note_on_c, 0, 66, 42
1, 79173, Note_on_c, 0, 38, 39
1, 79323, Control_c, 0, 64, 127
1, 79614, Note_on_c, 0, 64, 0
1, 79708, Note_on_c, 0, 38, 0
1, 79715, Note_on_c, 0, 66, 0
1, 79834, Note_on_c, 0, 72, 0
1, 80694, Marker_t, "Red Garland voicings-RH plays octaves with pfct 5th, LH plays rootless voicings"
1, 80860, Control_c, 0, 64, 0
1, 80888, Note_on_c, 0, 60, 50
1, 80890, Note_on_c, 0, 65, 60
1, 80900, Note_on_c, 0, 93, 78
1, 80907, Note_on_c, 0, 54, 52
1, 80910, Note_on_c, 0, 88, 66
1, 80914, Note_on_c, 0, 81, 66
1, 80997, Control_c, 0, 64, 127
1, 81248, Note_on_c, 0, 88, 0
1, 81269, Note_on_c, 0, 93, 0
1, 81298, Note_on_c, 0, 81, 0
1, 81379, Note_on_c, 0, 60, 0
1, 81426, Note_on_c, 0, 65, 0
1, 81431, Note_on_c, 0, 54, 0
1, 81648, Note_on_c, 0, 89, 62
1, 81651, Note_on_c, 0, 65, 52
1, 81652, Note_on_c, 0, 84, 58
1, 81658, Note_on_c, 0, 60, 38
1, 81660, Note_on_c, 0, 77, 51
1, 81661, Note_on_c, 0, 54, 42
1, 81875, Note_on_c, 0, 65, 0
1, 81876, Note_on_c, 0, 60, 0
1, 81894, Note_on_c, 0, 77, 0
1, 81950, Note_on_c, 0, 84, 0
1, 81955, Note_on_c, 0, 54, 0
1, 81975, Note_on_c, 0, 89, 0
1, 82318, Control_c, 0, 64, 0
1, 82371, Note_on_c, 0, 93, 69
1, 82372, Note_on_c, 0, 62, 37
1, 82377, Note_on_c, 0, 58, 53
1, 82379, Note_on_c, 0, 86, 55
1, 82388, Note_on_c, 0, 81, 49
1, 82389, Note_on_c, 0, 57, 44
1, 82390, Note_on_c, 0, 53, 31
1, 82392, Note_on_c, 0, 89, 43
1, 82468, Control_c, 0, 64, 127
1, 82588, Note_on_c, 0, 62, 0
1, 82611, Note_on_c, 0, 57, 0
1, 82622, Note_on_c, 0, 58, 0
1, 82654, Note_on_c, 0, 53, 0
1, 82711, Note_on_c, 0, 93, 0
1, 82780, Note_on_c, 0, 89, 0
1, 82794, Note_on_c, 0, 86, 0
1, 82865, Note_on_c, 0, 81, 0
1, 82968, Note_on_c, 0, 43, 54
1, 83603, Note_on_c, 0, 70, 53
1, 83628, Note_on_c, 0, 58, 51
1, 83632, Note_on_c, 0, 55, 38
1, 83634, Note_on_c, 0, 62, 32
1, 83647, Note_on_c, 0, 65, 34
1, 83664, Control_c, 0, 64, 0
1, 83868, Control_c, 0, 64, 127
1, 84130, Note_on_c, 0, 43, 0
1, 84426, Note_on_c, 0, 43, 32
1, 84582, Note_on_c, 0, 55, 0
1, 84658, Note_on_c, 0, 43, 0
1, 85238, Marker_t, "Catch a very low root note with sus pedal& add  rootless chords  in middle register"
1, 85315, Control_c, 0, 64, 0
1, 85353, Note_on_c, 0, 24, 53
1, 85444, Note_on_c, 0, 58, 0
1, 85500, Note_on_c, 0, 62, 0
1, 85530, Control_c, 0, 64, 127
1, 85538, Note_on_c, 0, 65, 0
1, 85761, Note_on_c, 0, 24, 0
1, 85817, Note_on_c, 0, 70, 0
1, 86433, Note_on_c, 0, 58, 29
1, 87364, Note_on_c, 0, 61, 25
1, 87379, Note_on_c, 0, 64, 31
1, 87388, Note_on_c, 0, 68, 32
1, 87398, Note_on_c, 0, 72, 33
1, 87710, Note_on_c, 0, 64, 0
1, 87782, Note_on_c, 0, 68, 0
1, 87791, Note_on_c, 0, 72, 0
1, 88034, Note_on_c, 0, 61, 0
1, 88134, Note_on_c, 0, 58, 0
1, 88857, Control_c, 0, 64, 0
1, 88890, Note_on_c, 0, 73, 42
1, 88892, Note_on_c, 0, 79, 50
1, 88893, Note_on_c, 0, 69, 57
1, 88896, Note_on_c, 0, 76, 49
1, 88908, Note_on_c, 0, 58, 53
1, 88911, Note_on_c, 0, 64, 38
1, 88959, Control_c, 0, 64, 127
1, 89269, Note_on_c, 0, 79, 0
1, 89276, Note_on_c, 0, 76, 0
1, 89306, Note_on_c, 0, 64, 0
1, 89311, Note_on_c, 0, 69, 0
1, 89348, Note_on_c, 0, 73, 0
1, 89485, Note_on_c, 0, 58, 0
1, 90144, Control_c, 0, 64, 0
1, 90212, Note_on_c, 0, 77, 64
1, 90215, Note_on_c, 0, 62, 35
1, 90222, Note_on_c, 0, 57, 51
1, 90225, Note_on_c, 0, 72, 56
1, 90228, Note_on_c, 0, 67, 53
1, 90394, Control_c, 0, 64, 127
1, 90576, Note_on_c, 0, 77, 0
1, 90716, Note_on_c, 0, 77, 67
1, 90931, Note_on_c, 0, 77, 0
1, 91084, Note_on_c, 0, 62, 0
1, 91158, Note_on_c, 0, 77, 71
1, 91238, Note_on_c, 0, 57, 0
1, 91365, Note_on_c, 0, 77, 0
1, 91607, Note_on_c, 0, 77, 60
1, 91672, Note_on_c, 0, 67, 0
1, 91767, Note_on_c, 0, 72, 0
1, 91786, Note_on_c, 0, 77, 0
1, 92129, Note_on_c, 0, 77, 53
1, 92136, Control_c, 0, 64, 0
1, 92137, Note_on_c, 0, 72, 49
1, 92146, Note_on_c, 0, 65, 37
1, 92159, Note_on_c, 0, 39, 48
1, 92386, Control_c, 0, 64, 127
1, 92525, Note_on_c, 0, 77, 0
1, 92594, Note_on_c, 0, 39, 0
1, 92663, Note_on_c, 0, 46, 37
1, 92677, Note_on_c, 0, 77, 46
1, 92889, Note_on_c, 0, 72, 0
1, 92926, Note_on_c, 0, 77, 0
1, 92947, Note_on_c, 0, 65, 0
1, 93226, Note_on_c, 0, 77, 36
1, 93244, Note_on_c, 0, 72, 37
1, 93247, Note_on_c, 0, 65, 25
1, 93251, Note_on_c, 0, 55, 26
1, 93779, Note_on_c, 0, 77, 0
1, 93934, Note_on_c, 0, 77, 36
1, 94032, Note_on_c, 0, 55, 0
1, 94113, Note_on_c, 0, 46, 0
1, 94276, Note_on_c, 0, 65, 0
1, 94446, Note_on_c, 0, 77, 0
1, 94462, Note_on_c, 0, 72, 0
1, 94687, Control_c, 0, 64, 0
1, 94712, Note_on_c, 0, 77, 48
1, 94716, Note_on_c, 0, 67, 40
1, 94717, Note_on_c, 0, 41, 45
1, 94727, Note_on_c, 0, 72, 42
1, 94891, Control_c, 0, 64, 127
1, 95030, Note_on_c, 0, 77, 0
1, 95257, Note_on_c, 0, 48, 39
1, 95259, Note_on_c, 0, 77, 60
1, 95358, Note_on_c, 0, 41, 0
1, 95524, Note_on_c, 0, 77, 0
1, 95541, Note_on_c, 0, 67, 0
1, 95603, Note_on_c, 0, 72, 0
1, 95725, Note_on_c, 0, 48, 0
1, 95750, Note_on_c, 0, 77, 57
1, 95763, Note_on_c, 0, 57, 52
1, 95765, Note_on_c, 0, 72, 47
1, 95766, Note_on_c, 0, 67, 37
1, 95886, Note_on_c, 0, 57, 0
1, 96004, Note_on_c, 0, 77, 0
1, 96228, Note_on_c, 0, 60, 40
1, 96237, Note_on_c, 0, 77, 66
1, 96326, Note_on_c, 0, 60, 0
1, 96347, Note_on_c, 0, 67, 0
1, 96598, Note_on_c, 0, 77, 0
1, 96648, Note_on_c, 0, 72, 0
1, 96906, Control_c, 0, 64, 0
1, 96922, Note_on_c, 0, 77, 55
1, 96923, Note_on_c, 0, 74, 47
1, 96929, Note_on_c, 0, 69, 41
1, 96930, Note_on_c, 0, 47, 38
1, 96941, Note_on_c, 0, 57, 38
1, 97170, Control_c, 0, 64, 127
1, 97474, Note_on_c, 0, 69, 0
1, 97498, Note_on_c, 0, 74, 0
1, 97513, Note_on_c, 0, 47, 0
1, 97591, Note_on_c, 0, 77, 0
1, 97801, Note_on_c, 0, 57, 0
1, 97888, Note_on_c, 0, 52, 44
1, 97890, Note_on_c, 0, 76, 69
1, 97976, Control_c, 0, 64, 0
1, 98068, Control_c, 0, 64, 127
1, 98240, Note_on_c, 0, 76, 0
1, 98491, Note_on_c, 0, 52, 0
1, 98508, Note_on_c, 0, 78, 59
1, 98517, Note_on_c, 0, 54, 43
1, 98648, Note_on_c, 0, 54, 0
1, 99683, Note_on_c, 0, 81, 61
1, 99709, Note_on_c, 0, 67, 37
1, 99725, Note_on_c, 0, 62, 28
1, 99726, Note_on_c, 0, 56, 34
1, 99742, Control_c, 0, 64, 0
1, 99923, Control_c, 0, 64, 127
1, 100265, Note_on_c, 0, 67, 0
1, 100677, Note_on_c, 0, 84, 36
1, 100683, Note_on_c, 0, 65, 28
1, 100710, Note_on_c, 0, 81, 0
1, 100772, Note_on_c, 0, 78, 0
1, 101000, Note_on_c, 0, 62, 0
1, 101096, Note_on_c, 0, 65, 0
1, 101182, Note_on_c, 0, 56, 0
1, 101242, Note_on_c, 0, 84, 0
1, 101786, Marker_t, "For contrast root note of chord played this time just below very simple chords."
1, 101871, Control_c, 0, 64, 0
1, 101888, Note_on_c, 0, 88, 57
1, 101890, Note_on_c, 0, 57, 39
1, 102065, Control_c, 0, 64, 127
1, 102460, Note_on_c, 0, 64, 34
1, 102485, Note_on_c, 0, 60, 27
1, 102810, Note_on_c, 0, 64, 0
1, 102811, Note_on_c, 0, 60, 0
1, 103012, Note_on_c, 0, 64, 34
1, 103037, Note_on_c, 0, 60, 26
1, 103228, Note_on_c, 0, 60, 0
1, 103257, Note_on_c, 0, 64, 0
1, 103520, Note_on_c, 0, 64, 35
1, 103539, Note_on_c, 0, 60, 30
1, 103723, Note_on_c, 0, 88, 0
1, 103873, Note_on_c, 0, 57, 0
1, 104030, Note_on_c, 0, 88, 81
1, 104047, Note_on_c, 0, 57, 60
1, 104059, Note_on_c, 0, 60, 0
1, 104060, Note_on_c, 0, 64, 0
1, 104507, Note_on_c, 0, 64, 30
1, 104538, Note_on_c, 0, 60, 31
1, 104744, Note_on_c, 0, 60, 0
1, 104781, Note_on_c, 0, 64, 0
1, 105021, Note_on_c, 0, 64, 29
1, 105030, Note_on_c, 0, 76, 35
1, 105057, Note_on_c, 0, 60, 20
1, 105193, Note_on_c, 0, 60, 0
1, 105197, Note_on_c, 0, 64, 0
1, 105200, Note_on_c, 0, 88, 0
1, 105513, Note_on_c, 0, 88, 58
1, 105521, Note_on_c, 0, 64, 35
1, 105700, Note_on_c, 0, 57, 0
1, 105794, Note_on_c, 0, 88, 0
1, 106087, Note_on_c, 0, 88, 58
1, 106095, Note_on_c, 0, 57, 37
1, 106182, Note_on_c, 0, 64, 0
1, 106183, Note_on_c, 0, 76, 0
1, 106266, Control_c, 0, 64, 0
1, 106369, Control_c, 0, 64, 127
1, 106443, Marker_t, "Sort of naive child-like style for this 4 bars"
1, 106601, Note_on_c, 0, 64, 36
1, 106608, Control_c, 0, 64, 0
1, 106612, Note_on_c, 0, 62, 36
1, 106802, Control_c, 0, 64, 127
1, 106849, Note_on_c, 0, 62, 0
1, 106920, Note_on_c, 0, 64, 0
1, 107131, Control_c, 0, 64, 0
1, 107137, Note_on_c, 0, 64, 47
1, 107165, Note_on_c, 0, 62, 39
1, 107222, Control_c, 0, 64, 127
1, 107347, Note_on_c, 0, 62, 0
1, 107393, Note_on_c, 0, 64, 0
1, 107672, Note_on_c, 0, 64, 34
1, 107691, Note_on_c, 0, 62, 35
1, 108019, Note_on_c, 0, 57, 0
1, 108220, Note_on_c, 0, 56, 59
1, 108224, Control_c, 0, 64, 0
1, 108390, Note_on_c, 0, 62, 0
1, 108395, Control_c, 0, 64, 127
1, 108488, Note_on_c, 0, 64, 0
1, 108746, Note_on_c, 0, 64, 34
1, 108782, Note_on_c, 0, 62, 24
1, 108940, Note_on_c, 0, 62, 0
1, 109001, Note_on_c, 0, 64, 0
1, 109224, Note_on_c, 0, 88, 0
1, 109269, Note_on_c, 0, 86, 61
1, 109285, Note_on_c, 0, 64, 36
1, 109309, Note_on_c, 0, 62, 26
1, 109557, Note_on_c, 0, 62, 0
1, 109624, Note_on_c, 0, 84, 63
1, 109633, Note_on_c, 0, 64, 0
1, 109691, Note_on_c, 0, 86, 0
1, 109928, Note_on_c, 0, 64, 41
1, 109973, Note_on_c, 0, 83, 77
1, 110040, Note_on_c, 0, 84, 0
1, 110291, Note_on_c, 0, 56, 0
1, 110308, Note_on_c, 0, 84, 72
1, 110395, Note_on_c, 0, 83, 0
1, 110627, Control_c, 0, 64, 0
1, 110629, Note_on_c, 0, 86, 75
1, 110639, Note_on_c, 0, 57, 61
1, 110663, Note_on_c, 0, 84, 0
1, 110667, Note_on_c, 0, 64, 0
1, 110832, Control_c, 0, 64, 127
1, 111068, Note_on_c, 0, 64, 28
1, 111090, Note_on_c, 0, 60, 35
1, 111263, Note_on_c, 0, 60, 0
1, 111348, Note_on_c, 0, 64, 0
1, 111619, Note_on_c, 0, 64, 37
1, 111635, Note_on_c, 0, 60, 37
1, 111642, Note_on_c, 0, 84, 52
1, 111691, Note_on_c, 0, 86, 0
1, 111790, Note_on_c, 0, 57, 0
1, 112098, Note_on_c, 0, 57, 50
1, 112304, Note_on_c, 0, 57, 0
1, 112586, Control_c, 0, 64, 0
1, 112596, Note_on_c, 0, 54, 47
1, 112706, Note_on_c, 0, 60, 0
1, 112744, Control_c, 0, 64, 127
1, 112753, Note_on_c, 0, 64, 0
1, 113135, Note_on_c, 0, 60, 27
1, 113688, Note_on_c, 0, 64, 32
1, 113691, Note_on_c, 0, 76, 24
1, 113960, Note_on_c, 0, 84, 0
1, 113980, Note_on_c, 0, 54, 0
1, 114016, Note_on_c, 0, 76, 0
1, 114103, Note_on_c, 0, 64, 0
1, 114219, Note_on_c, 0, 54, 37
1, 114253, Note_on_c, 0, 60, 0
1, 114363, Note_on_c, 0, 54, 0
1, 115160, Control_c, 0, 64, 0
1, 115234, Note_on_c, 0, 41, 47
1, 115375, Control_c, 0, 64, 127
1, 115817, Note_on_c, 0, 48, 36
1, 116386, Note_on_c, 0, 62, 30
1, 116391, Note_on_c, 0, 63, 34
1, 116401, Note_on_c, 0, 57, 20
1, 116720, Note_on_c, 0, 57, 0
1, 116791, Note_on_c, 0, 63, 0
1, 116865, Note_on_c, 0, 48, 0
1, 116966, Note_on_c, 0, 41, 0
1, 117002, Note_on_c, 0, 63, 48
1, 117083, Note_on_c, 0, 62, 0
1, 117521, Note_on_c, 0, 63, 0
1, 117576, Marker_t, "Pedal catches low notes as 10th-hold down as Octaves added right to top of piano"
1, 117630, Control_c, 0, 64, 0
1, 117685, Note_on_c, 0, 56, 43
1, 117697, Note_on_c, 0, 28, 28
1, 117700, Note_on_c, 0, 62, 30
1, 117705, Note_on_c, 0, 40, 30
1, 117790, Control_c, 0, 64, 127
1, 117797, Note_on_c, 0, 56, 0
1, 117830, Note_on_c, 0, 62, 0
1, 117854, Note_on_c, 0, 28, 0
1, 117965, Note_on_c, 0, 40, 0
1, 118440, Note_on_c, 0, 76, 36
1, 118441, Note_on_c, 0, 64, 35
1, 118464, Note_on_c, 0, 52, 20
1, 118555, Note_on_c, 0, 64, 0
1, 118649, Note_on_c, 0, 76, 0
1, 119249, Note_on_c, 0, 88, 38
1, 119257, Note_on_c, 0, 76, 34
1, 119260, Note_on_c, 0, 64, 31
1, 119335, Note_on_c, 0, 52, 0
1, 119401, Note_on_c, 0, 76, 0
1, 119487, Note_on_c, 0, 64, 0
1, 119525, Note_on_c, 0, 88, 0
1, 120308, Note_on_c, 0, 100, 36
1, 120334, Note_on_c, 0, 88, 27
1, 120371, Note_on_c, 0, 76, 18
1, 120695, Note_on_c, 0, 76, 0
1, 120715, Note_on_c, 0, 100, 0
1, 121316, Note_on_c, 0, 88, 0
1, 123682, Note_on_c, 0, 64, 47
1, 124093, Note_on_c, 0, 64, 0
1, 124134, Note_on_c, 0, 66, 67
1, 124451, Note_on_c, 0, 66, 0
1, 124516, Note_on_c, 0, 69, 71
1, 124811, Note_on_c, 0, 69, 0
1, 124918, Note_on_c, 0, 72, 57
1, 125082, Note_on_c, 0, 72, 0
1, 125807, Note_on_c, 0, 77, 51
1, 126109, Note_on_c, 0, 77, 0
1, 126147, Control_c, 0, 64, 0
1, 126172, Note_on_c, 0, 45, 40
1, 126173, Note_on_c, 0, 76, 51
1, 126364, Control_c, 0, 64, 127
1, 126589, Note_on_c, 0, 52, 26
1, 126591, Note_on_c, 0, 76, 0
1, 127002, Note_on_c, 0, 45, 0
1, 127015, Note_on_c, 0, 52, 0
1, 127035, Note_on_c, 0, 76, 49
1, 127049, Note_on_c, 0, 57, 42
1, 127197, Note_on_c, 0, 57, 0
1, 127373, Note_on_c, 0, 76, 0
1, 127471, Note_on_c, 0, 60, 36
1, 127479, Note_on_c, 0, 76, 45
1, 127690, Note_on_c, 0, 76, 0
1, 128004, Note_on_c, 0, 64, 32
1, 128016, Note_on_c, 0, 76, 57
1, 128020, Note_on_c, 0, 56, 37
1, 128072, Control_c, 0, 64, 0
1, 128254, Control_c, 0, 64, 127
1, 128477, Note_on_c, 0, 76, 0
1, 128575, Note_on_c, 0, 76, 55
1, 128881, Note_on_c, 0, 76, 0
1, 128930, Note_on_c, 0, 64, 0
1, 128968, Note_on_c, 0, 56, 0
1, 129107, Note_on_c, 0, 64, 30
1, 129108, Note_on_c, 0, 55, 27
1, 129110, Note_on_c, 0, 76, 51
1, 129120, Control_c, 0, 64, 0
1, 129233, Control_c, 0, 64, 127
1, 129514, Note_on_c, 0, 64, 0
1, 129523, Note_on_c, 0, 60, 0
1, 129524, Note_on_c, 0, 76, 0
1, 129659, Note_on_c, 0, 76, 35
1, 129663, Note_on_c, 0, 55, 0
1, 130171, Note_on_c, 0, 76, 0
1, 130383, Control_c, 0, 64, 0
1, 130392, Note_on_c, 0, 62, 34
1, 130393, Note_on_c, 0, 76, 33
1, 130397, Note_on_c, 0, 47, 38
1, 130408, Note_on_c, 0, 69, 41
1, 130611, Control_c, 0, 64, 127
1, 130820, Note_on_c, 0, 62, 0
1, 130914, Note_on_c, 0, 57, 50
1, 130954, Note_on_c, 0, 47, 0
1, 130970, Note_on_c, 0, 69, 0
1, 131020, Note_on_c, 0, 57, 0
1, 131060, Note_on_c, 0, 76, 0
1, 131499, Control_c, 0, 64, 0
1, 131540, Note_on_c, 0, 76, 74
1, 131549, Note_on_c, 0, 65, 57
1, 131551, Note_on_c, 0, 69, 74
1, 131553, Note_on_c, 0, 62, 42
1, 131554, Note_on_c, 0, 64, 41
1, 131555, Note_on_c, 0, 73, 57
1, 131650, Control_c, 0, 64, 127
1, 131933, Note_on_c, 0, 76, 0
1, 132322, Note_on_c, 0, 76, 57
1, 132435, Note_on_c, 0, 64, 0
1, 132487, Note_on_c, 0, 62, 0
1, 132636, Note_on_c, 0, 65, 0
1, 132760, Note_on_c, 0, 69, 0
1, 132775, Note_on_c, 0, 73, 0
1, 132936, Note_on_c, 0, 76, 0
1, 133188, Note_on_c, 0, 71, 37
1, 133190, Note_on_c, 0, 76, 38
1, 133196, Note_on_c, 0, 68, 27
1, 133199, Control_c, 0, 64, 0
1, 133208, Note_on_c, 0, 65, 28
1, 133213, Note_on_c, 0, 62, 24
1, 133222, Note_on_c, 0, 56, 35
1, 133392, Control_c, 0, 64, 127
1, 133805, Note_on_c, 0, 74, 61
1, 133865, Note_on_c, 0, 71, 0
1, 133896, Note_on_c, 0, 76, 0
1, 134153, Note_on_c, 0, 68, 0
1, 134207, Note_on_c, 0, 72, 57
1, 134448, Note_on_c, 0, 62, 0
1, 134511, Note_on_c, 0, 65, 0
1, 134676, Note_on_c, 0, 72, 0
1, 134707, Note_on_c, 0, 71, 55
1, 134725, Note_on_c, 0, 65, 33
1, 134726, Note_on_c, 0, 74, 0
1, 134734, Note_on_c, 0, 62, 25
1, 135268, Note_on_c, 0, 74, 55
1, 135341, Note_on_c, 0, 62, 0
1, 135462, Note_on_c, 0, 56, 0
1, 135635, Note_on_c, 0, 74, 0
1, 135647, Note_on_c, 0, 71, 0
1, 135696, Note_on_c, 0, 65, 0
1, 136143, Note_on_c, 0, 72, 44
1, 136144, Note_on_c, 0, 64, 42
1, 136160, Control_c, 0, 64, 0
1, 136170, Note_on_c, 0, 55, 28
1, 136186, Note_on_c, 0, 45, 35
1, 136330, Control_c, 0, 64, 127
1, 136647, Note_on_c, 0, 55, 0
1, 136690, Note_on_c, 0, 64, 0
1, 136736, Note_on_c, 0, 52, 26
1, 137333, Note_on_c, 0, 64, 33
1, 137337, Note_on_c, 0, 67, 24
1, 137339, Note_on_c, 0, 60, 34
1, 137384, Note_on_c, 0, 45, 0
1, 137975, Note_on_c, 0, 57, 70
1, 138276, Note_on_c, 0, 64, 0
1, 138295, Note_on_c, 0, 67, 0
1, 138308, Note_on_c, 0, 57, 0
1, 138367, Note_on_c, 0, 52, 0
1, 138410, Note_on_c, 0, 60, 0
1, 138597, Note_on_c, 0, 72, 0
1, 138687, Note_on_c, 0, 72, 28
1, 138703, Note_on_c, 0, 65, 58
1, 138713, Note_on_c, 0, 60, 53
1, 138728, Note_on_c, 0, 44, 45
1, 138728, Note_on_c, 0, 54, 49
1, 138732, Control_c, 0, 64, 0
1, 138983, Control_c, 0, 64, 127
1, 139167, Note_on_c, 0, 72, 0
1, 139339, Note_on_c, 0, 72, 65
1, 139758, Note_on_c, 0, 60, 0
1, 139766, Note_on_c, 0, 65, 0
1, 139857, Note_on_c, 0, 72, 0
1, 139888, Note_on_c, 0, 54, 0
1, 140103, Note_on_c, 0, 72, 39
1, 140116, Note_on_c, 0, 60, 50
1, 140129, Note_on_c, 0, 65, 52
1, 140169, Note_on_c, 0, 54, 27
1, 140819, Note_on_c, 0, 72, 0
1, 141096, Note_on_c, 0, 72, 44
1, 142543, Note_on_c, 0, 65, 0
1, 142560, Note_on_c, 0, 60, 0
1, 142613, Note_on_c, 0, 54, 0
1, 142634, Note_on_c, 0, 72, 0
1, 142742, Note_on_c, 0, 44, 0
1, 143560, Control_c, 0, 64, 0
1, 143565, Note_on_c, 0, 74, 38
1, 143573, Note_on_c, 0, 62, 36
1, 143605, Note_on_c, 0, 43, 24
1, 143777, Control_c, 0, 64, 127
1, 144143, Note_on_c, 0, 57, 53
1, 144154, Note_on_c, 0, 43, 0
1, 144591, Note_on_c, 0, 62, 0
1, 144713, Note_on_c, 0, 58, 48
1, 144722, Note_on_c, 0, 74, 0
1, 144723, Note_on_c, 0, 57, 0
1, 145293, Note_on_c, 0, 77, 38
1, 145300, Note_on_c, 0, 70, 34
1, 145304, Note_on_c, 0, 62, 20
1, 145306, Note_on_c, 0, 65, 31
1, 145311, Note_on_c, 0, 74, 39
1, 145437, Note_on_c, 0, 65, 0
1, 145510, Note_on_c, 0, 62, 0
1, 145519, Note_on_c, 0, 74, 0
1, 145535, Note_on_c, 0, 70, 0
1, 145598, Note_on_c, 0, 77, 0
1, 146043, Control_c, 0, 64, 0
1, 146050, Note_on_c, 0, 86, 54
1, 146066, Note_on_c, 0, 76, 33
1, 146071, Note_on_c, 0, 80, 44
1, 146080, Note_on_c, 0, 64, 28
1, 146192, Control_c, 0, 64, 127
1, 146300, Note_on_c, 0, 64, 0
1, 146337, Note_on_c, 0, 58, 0
1, 146971, Note_on_c, 0, 36, 36
1, 147191, Note_on_c, 0, 36, 0
1, 147194, Note_on_c, 0, 76, 0
1, 147254, Note_on_c, 0, 80, 0
1, 147341, Note_on_c, 0, 86, 0
1, 148417, Note_on_c, 0, 100, 46
1, 148431, Note_on_c, 0, 64, 27
1, 148432, Note_on_c, 0, 97, 31
1, 148432, Note_on_c, 0, 61, 26
1, 148439, Note_on_c, 0, 92, 36
1, 148444, Note_on_c, 0, 88, 30
1, 148455, Note_on_c, 0, 58, 39
1, 149227, Note_on_c, 0, 100, 0
1, 149245, Note_on_c, 0, 97, 0
1, 149297, Note_on_c, 0, 92, 0
1, 149416, Note_on_c, 0, 88, 0
1, 150197, Note_on_c, 0, 64, 0
1, 150334, Note_on_c, 0, 61, 0
1, 150594, Note_on_c, 0, 58, 0
1, 151744, Control_c, 0, 64, 0
1, 151941, Note_on_c, 0, 74, 57
1, 151944, Note_on_c, 0, 64, 55
1, 151950, Note_on_c, 0, 48, 39
1, 151951, Note_on_c, 0, 68, 56
1, 151959, Note_on_c, 0, 58, 32
1, 152019, Control_c, 0, 64, 127
1, 152072, Note_on_c, 0, 58, 0
1, 152076, Note_on_c, 0, 48, 0
1, 152231, Note_on_c, 0, 74, 0
1, 152259, Note_on_c, 0, 64, 0
1, 152373, Note_on_c, 0, 68, 0
1, 152560, Control_c, 0, 64, 0
1, 152611, Note_on_c, 0, 41, 14
1, 152632, Note_on_c, 0, 72, 53
1, 152634, Note_on_c, 0, 62, 42
1, 152638, Note_on_c, 0, 67, 49
1, 152648, Note_on_c, 0, 57, 58
1, 152659, Note_on_c, 0, 48, 33
1, 152852, Control_c, 0, 64, 127
1, 152989, Note_on_c, 0, 72, 0
1, 153027, Note_on_c, 0, 67, 0
1, 153150, Note_on_c, 0, 62, 0
1, 153348, Note_on_c, 0, 69, 66
1, 153356, Note_on_c, 0, 64, 64
1, 153359, Note_on_c, 0, 60, 58
1, 153394, Note_on_c, 0, 57, 0
1, 153439, Note_on_c, 0, 48, 0
1, 153638, Note_on_c, 0, 69, 0
1, 153639, Note_on_c, 0, 60, 0
1, 153671, Note_on_c, 0, 64, 0
1, 154139, Control_c, 0, 64, 0
1, 154152, Note_on_c, 0, 60, 48
1, 154154, Note_on_c, 0, 65, 46
1, 154156, Note_on_c, 0, 62, 36
1, 154168, Note_on_c, 0, 50, 43
1, 154170, Note_on_c, 0, 57, 48
1, 154329, Note_on_c, 0, 41, 0
1, 154355, Control_c, 0, 64, 127
1, 154480, Note_on_c, 0, 57, 0
1, 154632, Note_on_c, 0, 62, 0
1, 154634, Note_on_c, 0, 60, 0
1, 154662, Note_on_c, 0, 65, 0
1, 155174, Note_on_c, 0, 69, 67
1, 155549, Note_on_c, 0, 69, 0
1, 155563, Note_on_c, 0, 65, 58
1, 155656, Note_on_c, 0, 50, 0
1, 155970, Note_on_c, 0, 65, 0
1, 156198, Note_on_c, 0, 69, 44
1, 156210, Note_on_c, 0, 62, 33
1, 156211, Note_on_c, 0, 43, 31
1, 156215, Note_on_c, 0, 58, 33
1, 156223, Control_c, 0, 64, 0
1, 156224, Note_on_c, 0, 65, 39
1, 156232, Note_on_c, 0, 53, 24
1, 156450, Control_c, 0, 64, 127
1, 156631, Note_on_c, 0, 53, 0
1, 156810, Note_on_c, 0, 62, 0
1, 156851, Note_on_c, 0, 58, 0
1, 156890, Note_on_c, 0, 65, 0
1, 157335, Note_on_c, 0, 43, 0
1, 157537, Note_on_c, 0, 69, 0
1, 157977, Control_c, 0, 64, 0
1, 157997, Note_on_c, 0, 67, 48
1, 158004, Note_on_c, 0, 37, 37
1, 158008, Note_on_c, 0, 59, 38
1, 158009, Note_on_c, 0, 63, 42
1, 158014, Note_on_c, 0, 44, 31
1, 158149, Control_c, 0, 64, 127
1, 158176, Note_on_c, 0, 37, 0
1, 158220, Note_on_c, 0, 44, 0
1, 158351, Note_on_c, 0, 59, 0
1, 158482, Note_on_c, 0, 67, 0
1, 158495, Note_on_c, 0, 63, 0
1, 158822, Control_c, 0, 64, 0
1, 158892, Note_on_c, 0, 43, 24
1, 158901, Note_on_c, 0, 67, 37
1, 158908, Note_on_c, 0, 58, 33
1, 158913, Note_on_c, 0, 64, 41
1, 158923, Note_on_c, 0, 36, 33
1, 159049, Control_c, 0, 64, 127
1, 159269, Note_on_c, 0, 36, 0
1, 159309, Note_on_c, 0, 43, 0
1, 159328, Note_on_c, 0, 67, 0
1, 159329, Note_on_c, 0, 64, 0
1, 159394, Note_on_c, 0, 58, 0
1, 159940, Note_on_c, 0, 61, 35
1, 159971, Control_c, 0, 64, 0
1, 159976, Note_on_c, 0, 52, 26
1, 159978, Note_on_c, 0, 42, 42
1, 159979, Note_on_c, 0, 56, 49
1, 159986, Note_on_c, 0, 58, 44
1, 160026, Note_on_c, 0, 49, 30
1, 160188, Control_c, 0, 64, 127
1, 160638, Note_on_c, 0, 52, 0
1, 160646, Note_on_c, 0, 42, 0
1, 160673, Note_on_c, 0, 61, 0
1, 160692, Note_on_c, 0, 49, 0
1, 160793, Note_on_c, 0, 56, 0
1, 160809, Note_on_c, 0, 58, 0
1, 161076, Control_c, 0, 64, 0
1, 161157, Note_on_c, 0, 60, 36
1, 161166, Note_on_c, 0, 52, 30
1, 161174, Note_on_c, 0, 41, 27
1, 161180, Note_on_c, 0, 48, 30
1, 161181, Note_on_c, 0, 55, 24
1, 161198, Note_on_c, 0, 57, 30
1, 161293, Control_c, 0, 64, 127
1, 161369, Note_on_c, 0, 52, 0
1, 161386, Note_on_c, 0, 57, 0
1, 161408, Note_on_c, 0, 55, 0
1, 161457, Note_on_c, 0, 60, 0
1, 161497, Note_on_c, 0, 41, 0
1, 161806, Note_on_c, 0, 48, 0
1, 161817, Note_on_c, 0, 74, 80
1, 162142, Note_on_c, 0, 74, 0
1, 162338, Note_on_c, 0, 72, 57
1, 162352, Note_on_c, 0, 69, 68
1, 162359, Note_on_c, 0, 65, 68
1, 162360, Note_on_c, 0, 64, 70
1, 162891, Note_on_c, 0, 62, 77
1, 163052, Note_on_c, 0, 69, 0
1, 163098, Note_on_c, 0, 72, 0
1, 163106, Note_on_c, 0, 65, 0
1, 163177, Note_on_c, 0, 64, 0
1, 163517, Note_on_c, 0, 62, 0
1, 163588, Note_on_c, 0, 60, 66
1, 164165, Note_on_c, 0, 57, 84
1, 164201, Note_on_c, 0, 60, 0
1, 164998, Note_on_c, 0, 57, 0
1, 165326, Note_on_c, 0, 61, 74
1, 165329, Note_on_c, 0, 64, 67
1, 165330, Note_on_c, 0, 69, 68
1, 165338, Note_on_c, 0, 45, 51
1, 165347, Note_on_c, 0, 55, 40
1, 165357, Control_c, 0, 64, 0
1, 165573, Control_c, 0, 64, 127
1, 165685, Note_on_c, 0, 64, 0
1, 165999, Note_on_c, 0, 61, 0
1, 166053, Note_on_c, 0, 49, 35
1, 166058, Note_on_c, 0, 55, 0
1, 166063, Note_on_c, 0, 65, 60
1, 166172, Note_on_c, 0, 45, 0
1, 166211, Note_on_c, 0, 49, 0
1, 166267, Note_on_c, 0, 69, 0
1, 166392, Note_on_c, 0, 65, 0
1, 166986, Control_c, 0, 64, 0
1, 166991, Note_on_c, 0, 69, 44
1, 166993, Note_on_c, 0, 77, 61
1, 167009, Note_on_c, 0, 65, 47
1, 167016, Note_on_c, 0, 72, 38
1, 167024, Note_on_c, 0, 50, 31
1, 167027, Note_on_c, 0, 57, 25
1, 167247, Control_c, 0, 64, 127
1, 167450, Note_on_c, 0, 50, 0
1, 167656, Note_on_c, 0, 64, 50
1, 168111, Note_on_c, 0, 77, 0
1, 168137, Note_on_c, 0, 64, 0
1, 168170, Note_on_c, 0, 69, 0
1, 168188, Note_on_c, 0, 65, 0
1, 168268, Note_on_c, 0, 72, 0
1, 168439, Note_on_c, 0, 76, 34
1, 168448, Note_on_c, 0, 65, 29
1, 168450, Note_on_c, 0, 69, 38
1, 168454, Note_on_c, 0, 62, 31
1, 168455, Note_on_c, 0, 72, 27
1, 169156, Note_on_c, 0, 62, 0
1, 169208, Note_on_c, 0, 76, 0
1, 169210, Note_on_c, 0, 74, 40
1, 169229, Note_on_c, 0, 50, 30
1, 169313, Note_on_c, 0, 72, 0
1, 169394, Note_on_c, 0, 57, 0
1, 169524, Note_on_c, 0, 50, 0
1, 169640, Note_on_c, 0, 69, 0
1, 169682, Note_on_c, 0, 65, 0
1, 169826, Note_on_c, 0, 74, 0
1, 170140, Control_c, 0, 64, 0
1, 170152, Note_on_c, 0, 76, 33
1, 170162, Note_on_c, 0, 68, 25
1, 170164, Note_on_c, 0, 71, 40
1, 170173, Note_on_c, 0, 56, 35
1, 170176, Note_on_c, 0, 65, 24
1, 170191, Note_on_c, 0, 46, 25
1, 170367, Control_c, 0, 64, 127
1, 170498, Note_on_c, 0, 46, 0
1, 170557, Note_on_c, 0, 56, 0
1, 170902, Note_on_c, 0, 59, 51
1, 171405, Note_on_c, 0, 71, 0
1, 171406, Note_on_c, 0, 65, 0
1, 171472, Note_on_c, 0, 68, 0
1, 171638, Note_on_c, 0, 76, 0
1, 171690, Note_on_c, 0, 65, 34
1, 171694, Note_on_c, 0, 64, 43
1, 171696, Note_on_c, 0, 68, 29
1, 171701, Note_on_c, 0, 71, 40
1, 172217, Note_on_c, 0, 64, 0
1, 172341, Note_on_c, 0, 65, 0
1, 172407, Note_on_c, 0, 68, 0
1, 172450, Note_on_c, 0, 71, 0
1, 172518, Note_on_c, 0, 74, 54
1, 172526, Note_on_c, 0, 68, 44
1, 172528, Note_on_c, 0, 71, 54
1, 172529, Note_on_c, 0, 65, 52
1, 172542, Note_on_c, 0, 62, 32
1, 172679, Note_on_c, 0, 62, 0
1, 172732, Note_on_c, 0, 59, 0
1, 172790, Note_on_c, 0, 74, 0
1, 172818, Note_on_c, 0, 65, 0
1, 172838, Note_on_c, 0, 71, 0
1, 172935, Note_on_c, 0, 68, 0
1, 173180, Control_c, 0, 64, 0
1, 173225, Note_on_c, 0, 67, 54
1, 173228, Note_on_c, 0, 72, 47
1, 173235, Note_on_c, 0, 60, 54
1, 173245, Note_on_c, 0, 55, 33
1, 173247, Note_on_c, 0, 45, 51
1, 173385, Control_c, 0, 64, 127
1, 173644, Note_on_c, 0, 55, 0
1, 173677, Note_on_c, 0, 45, 0
1, 173717, Note_on_c, 0, 52, 61
1, 173765, Note_on_c, 0, 67, 0
1, 173769, Note_on_c, 0, 72, 0
1, 173975, Note_on_c, 0, 60, 0
1, 174144, Note_on_c, 0, 52, 0
1, 174159, Note_on_c, 0, 64, 76
1, 174174, Note_on_c, 0, 60, 66
1, 174177, Note_on_c, 0, 59, 55
1, 174621, Note_on_c, 0, 59, 0
1, 174677, Note_on_c, 0, 55, 72
1, 175018, Note_on_c, 0, 64, 0
1, 175087, Note_on_c, 0, 60, 0
1, 175194, Note_on_c, 0, 60, 45
1, 175199, Note_on_c, 0, 63, 54
1, 175219, Control_c, 0, 64, 0
1, 175237, Note_on_c, 0, 54, 69
1, 175238, Note_on_c, 0, 55, 0
1, 175469, Control_c, 0, 64, 127
1, 175660, Note_on_c, 0, 60, 0
1, 175742, Note_on_c, 0, 63, 0
1, 175759, Note_on_c, 0, 50, 58
1, 175784, Note_on_c, 0, 54, 0
1, 175875, Note_on_c, 0, 50, 0
1, 176391, Control_c, 0, 64, 0
1, 176416, Note_on_c, 0, 93, 83
1, 176418, Note_on_c, 0, 54, 82
1, 176422, Note_on_c, 0, 64, 82
1, 176423, Note_on_c, 0, 60, 66
1, 176430, Note_on_c, 0, 88, 78
1, 176435, Note_on_c, 0, 81, 71
1, 176561, Control_c, 0, 64, 127
1, 176952, Note_on_c, 0, 93, 0
1, 176953, Note_on_c, 0, 88, 0
1, 177024, Note_on_c, 0, 81, 0
1, 177066, Note_on_c, 0, 64, 0
1, 177143, Note_on_c, 0, 60, 0
1, 177317, Note_on_c, 0, 54, 0
1, 178736, Control_c, 0, 64, 0
1, 178776, Note_on_c, 0, 54, 52
1, 178780, Note_on_c, 0, 89, 44
1, 178781, Note_on_c, 0, 77, 38
1, 178784, Note_on_c, 0, 44, 44
1, 178786, Note_on_c, 0, 84, 35
1, 178873, Control_c, 0, 64, 127
1, 179075, Note_on_c, 0, 77, 0
1, 179111, Note_on_c, 0, 54, 0
1, 179121, Note_on_c, 0, 44, 0
1, 179140, Note_on_c, 0, 84, 0
1, 179172, Note_on_c, 0, 89, 0
1, 179692, Control_c, 0, 64, 0
1, 179741, Note_on_c, 0, 101, 62
1, 179745, Note_on_c, 0, 89, 51
1, 179748, Note_on_c, 0, 43, 33
1, 179766, Note_on_c, 0, 53, 28
1, 179766, Note_on_c, 0, 98, 54
1, 179841, Control_c, 0, 64, 127
1, 180006, Note_on_c, 0, 43, 0
1, 180066, Note_on_c, 0, 101, 0
1, 180075, Note_on_c, 0, 98, 0
1, 180100, Note_on_c, 0, 53, 0
1, 180114, Note_on_c, 0, 89, 0
1, 180987, Note_on_c, 0, 77, 40
1, 181007, Note_on_c, 0, 65, 36
1, 181023, Note_on_c, 0, 53, 20
1, 181024, Note_on_c, 0, 58, 30
1, 181026, Note_on_c, 0, 62, 13
1, 181048, Note_on_c, 0, 55, 22
1, 181458, Note_on_c, 0, 65, 0
1, 181466, Note_on_c, 0, 77, 0
1, 181666, Note_on_c, 0, 77, 37
1, 181681, Note_on_c, 0, 65, 32
1, 181987, Note_on_c, 0, 77, 0
1, 182067, Note_on_c, 0, 65, 0
1, 182117, Note_on_c, 0, 77, 39
1, 182174, Note_on_c, 0, 65, 17
1, 182340, Note_on_c, 0, 77, 0
1, 182524, Note_on_c, 0, 77, 40
1, 182688, Note_on_c, 0, 77, 0
1, 182756, Note_on_c, 0, 53, 0
1, 182824, Note_on_c, 0, 55, 0
1, 182866, Note_on_c, 0, 58, 0
1, 182890, Note_on_c, 0, 65, 0
1, 182942, Note_on_c, 0, 77, 43
1, 182964, Note_on_c, 0, 62, 0
1, 183126, Note_on_c, 0, 77, 0
1, 183410, Note_on_c, 0, 77, 33
1, 183430, Note_on_c, 0, 61, 32
1, 183452, Note_on_c, 0, 65, 22
1, 183454, Note_on_c, 0, 70, 26
1, 183462, Control_c, 0, 64, 0
1, 183467, Note_on_c, 0, 58, 34
1, 183575, Control_c, 0, 64, 127
1, 183773, Note_on_c, 0, 61, 0
1, 183786, Note_on_c, 0, 58, 0
1, 184075, Note_on_c, 0, 77, 0
1, 184320, Note_on_c, 0, 77, 41
1, 184621, Note_on_c, 0, 77, 0
1, 184626, Note_on_c, 0, 65, 0
1, 184684, Note_on_c, 0, 70, 0
1, 184877, Note_on_c, 0, 77, 30
1, 184886, Note_on_c, 0, 70, 28
1, 184888, Note_on_c, 0, 65, 24
1, 184894, Note_on_c, 0, 36, 25
1, 184930, Control_c, 0, 64, 0
1, 185033, Control_c, 0, 64, 127
1, 185462, Note_on_c, 0, 36, 0
1, 185604, Note_on_c, 0, 65, 0
1, 185701, Note_on_c, 0, 70, 0
1, 185896, Note_on_c, 0, 77, 0
1, 186383, Note_on_c, 0, 77, 66
1, 186481, Note_on_c, 0, 77, 0
1, 186505, Note_on_c, 0, 79, 52
1, 186649, Note_on_c, 0, 79, 0
1, 186662, Note_on_c, 0, 77, 42
1, 186723, Note_on_c, 0, 77, 0
1, 186884, Note_on_c, 0, 77, 33
1, 186934, Note_on_c, 0, 77, 0
1, 187158, Note_on_c, 0, 79, 36
1, 187289, Note_on_c, 0, 77, 37
1, 187311, Note_on_c, 0, 79, 0
1, 187409, Note_on_c, 0, 77, 0
1, 187427, Note_on_c, 0, 76, 36
1, 187592, Note_on_c, 0, 76, 0
1, 187641, Note_on_c, 0, 77, 56
1, 187750, Note_on_c, 0, 77, 0
1, 187809, Note_on_c, 0, 79, 45
1, 187981, Note_on_c, 0, 79, 0
1, 188050, Control_c, 0, 64, 0
1, 188059, Note_on_c, 0, 77, 46
1, 188091, Note_on_c, 0, 41, 20
1, 188210, Control_c, 0, 64, 127
1, 188422, Note_on_c, 0, 41, 0
1, 189243, Note_on_c, 0, 60, 27
1, 189255, Note_on_c, 0, 57, 35
1, 189262, Note_on_c, 0, 53, 20
1, 189643, Note_on_c, 0, 77, 0
1, 189665, Note_on_c, 0, 60, 0
1, 189772, Note_on_c, 0, 57, 0
1, 189830, Note_on_c, 0, 53, 0
1, 190509, Note_on_c, 0, 70, 37
1, 190510, Control_c, 0, 64, 0
1, 190518, Note_on_c, 0, 60, 28
1, 190525, Note_on_c, 0, 65, 33
1, 190530, Note_on_c, 0, 54, 33
1, 190531, Note_on_c, 0, 44, 33
1, 190669, Control_c, 0, 64, 127
1, 190777, Note_on_c, 0, 60, 0
1, 190833, Note_on_c, 0, 65, 0
1, 190915, Note_on_c, 0, 70, 0
1, 191025, Note_on_c, 0, 44, 0
1, 191069, Note_on_c, 0, 54, 0
1, 191236, Note_on_c, 0, 84, 74
1, 191675, Note_on_c, 0, 84, 0
1, 191723, Note_on_c, 0, 65, 38
1, 191732, Note_on_c, 0, 54, 30
1, 191749, Note_on_c, 0, 60, 32
1, 191776, Note_on_c, 0, 84, 67
1, 191984, Marker_t, "Into slow tempo"
1, 192054, Note_on_c, 0, 84, 0
1, 192161, Note_on_c, 0, 84, 63
1, 192280, Note_on_c, 0, 65, 0
1, 192339, Note_on_c, 0, 60, 0
1, 192343, Note_on_c, 0, 84, 0
1, 192363, Note_on_c, 0, 54, 0
1, 192561, Note_on_c, 0, 84, 74
1, 192785, Note_on_c, 0, 84, 0
1, 192920, Note_on_c, 0, 84, 56
1, 192946, Note_on_c, 0, 44, 53
1, 192947, Note_on_c, 0, 37, 53
1, 192959, Control_c, 0, 64, 0
1, 193118, Note_on_c, 0, 84, 0
1, 193141, Control_c, 0, 64, 127
1, 193294, Note_on_c, 0, 84, 55
1, 193341, Note_on_c, 0, 37, 0
1, 193377, Note_on_c, 0, 44, 0
1, 193634, Note_on_c, 0, 72, 45
1, 194104, Note_on_c, 0, 63, 38
1, 194162, Note_on_c, 0, 58, 36
1, 194287, Note_on_c, 0, 63, 0
1, 194298, Note_on_c, 0, 58, 0
1, 195225, Note_on_c, 0, 72, 0
1, 195350, Control_c, 0, 64, 0
1, 195351, Note_on_c, 0, 36, 36
1, 195366, Note_on_c, 0, 52, 34
1, 195519, Control_c, 0, 64, 127
1, 195652, Note_on_c, 0, 36, 0
1, 195821, Note_on_c, 0, 52, 0
1, 196252, Note_on_c, 0, 84, 0
1, 196534, Control_c, 0, 64, 0
1, 196576, Note_on_c, 0, 64, 28
1, 196590, Note_on_c, 0, 61, 26
1, 196618, Note_on_c, 0, 58, 44
1, 196619, Note_on_c, 0, 54, 18
1, 196648, Control_c, 0, 64, 127
1, 196790, Note_on_c, 0, 61, 0
1, 196802, Note_on_c, 0, 64, 0
1, 196813, Note_on_c, 0, 58, 0
1, 196857, Note_on_c, 0, 54, 0
1, 197323, Marker_t, "Playing very high in the piano's range with RH"
1, 197474, Note_on_c, 0, 97, 47
1, 197516, Note_on_c, 0, 98, 44
1, 197577, Note_on_c, 0, 97, 0
1, 197742, Note_on_c, 0, 98, 0
1, 197798, Control_c, 0, 64, 0
1, 197879, Note_on_c, 0, 96, 41
1, 197880, Note_on_c, 0, 48, 34
1, 197882, Note_on_c, 0, 41, 25
1, 197888, Note_on_c, 0, 57, 40
1, 198264, Control_c, 0, 64, 127
1, 198285, Note_on_c, 0, 41, 0
1, 198324, Note_on_c, 0, 48, 0
1, 198481, Note_on_c, 0, 57, 0
1, 198993, Control_c, 0, 64, 0
1, 199060, Note_on_c, 0, 62, 30
1, 199074, Note_on_c, 0, 57, 38
1, 199084, Note_on_c, 0, 60, 19
1, 199145, Note_on_c, 0, 60, 0
1, 199159, Note_on_c, 0, 62, 0
1, 199185, Note_on_c, 0, 57, 0
1, 199802, Control_c, 0, 64, 127
1, 200189, Control_c, 0, 64, 0
1, 200271, Note_on_c, 0, 38, 31
1, 200360, Control_c, 0, 64, 127
1, 200521, Note_on_c, 0, 38, 0
1, 200921, Marker_t, "LH plays very deliberately root/chord type stride"
1, 200980, Note_on_c, 0, 96, 0
1, 201054, Note_on_c, 0, 92, 54
1, 201252, Note_on_c, 0, 92, 0
1, 201326, Note_on_c, 0, 93, 76
1, 201558, Note_on_c, 0, 57, 49
1, 201563, Note_on_c, 0, 60, 41
1, 201564, Note_on_c, 0, 93, 0
1, 201586, Note_on_c, 0, 53, 27
1, 201588, Note_on_c, 0, 50, 20
1, 201658, Control_c, 0, 64, 0
1, 201817, Note_on_c, 0, 100, 91
1, 201942, Control_c, 0, 64, 127
1, 202110, Note_on_c, 0, 60, 0
1, 202154, Note_on_c, 0, 57, 0
1, 202236, Note_on_c, 0, 53, 0
1, 202258, Note_on_c, 0, 96, 71
1, 202267, Note_on_c, 0, 100, 0
1, 202290, Note_on_c, 0, 50, 0
1, 202588, Note_on_c, 0, 96, 0
1, 202602, Note_on_c, 0, 93, 72
1, 202717, Control_c, 0, 64, 0
1, 202764, Note_on_c, 0, 50, 33
1, 202793, Note_on_c, 0, 43, 20
1, 202829, Note_on_c, 0, 93, 0
1, 202937, Note_on_c, 0, 91, 52
1, 203023, Control_c, 0, 64, 127
1, 203187, Note_on_c, 0, 43, 0
1, 203214, Note_on_c, 0, 91, 0
1, 203219, Note_on_c, 0, 50, 0
1, 203240, Note_on_c, 0, 89, 54
1, 203423, Note_on_c, 0, 89, 0
1, 203520, Note_on_c, 0, 86, 57
1, 203816, Note_on_c, 0, 82, 29
1, 203818, Note_on_c, 0, 86, 0
1, 203902, Control_c, 0, 64, 0
1, 203927, Note_on_c, 0, 62, 22
1, 203933, Note_on_c, 0, 55, 15
1, 203938, Note_on_c, 0, 58, 34
1, 204038, Note_on_c, 0, 82, 0
1, 204078, Note_on_c, 0, 81, 44
1, 204152, Control_c, 0, 64, 127
1, 204304, Note_on_c, 0, 62, 0
1, 204323, Note_on_c, 0, 58, 0
1, 204328, Note_on_c, 0, 89, 64
1, 204369, Note_on_c, 0, 55, 0
1, 204434, Note_on_c, 0, 81, 0
1, 204571, Note_on_c, 0, 89, 0
1, 204596, Note_on_c, 0, 86, 51
1, 204756, Note_on_c, 0, 86, 0
1, 204838, Note_on_c, 0, 88, 59
1, 205058, Note_on_c, 0, 88, 0
1, 205084, Note_on_c, 0, 36, 37
1, 205086, Control_c, 0, 64, 0
1, 205113, Note_on_c, 0, 85, 56
1, 205117, Note_on_c, 0, 52, 34
1, 205347, Control_c, 0, 64, 127
1, 205418, Note_on_c, 0, 36, 0
1, 205494, Note_on_c, 0, 85, 0
1, 205582, Note_on_c, 0, 52, 0
1, 205653, Note_on_c, 0, 86, 68
1, 205907, Note_on_c, 0, 86, 0
1, 205929, Note_on_c, 0, 82, 62
1, 206207, Note_on_c, 0, 82, 0
1, 206259, Control_c, 0, 64, 0
1, 206269, Note_on_c, 0, 64, 39
1, 206270, Note_on_c, 0, 61, 38
1, 206284, Note_on_c, 0, 85, 57
1, 206297, Note_on_c, 0, 58, 47
1, 206313, Note_on_c, 0, 80, 63
1, 206321, Note_on_c, 0, 85, 0
1, 206395, Note_on_c, 0, 80, 0
1, 206399, Note_on_c, 0, 81, 72
1, 206497, Control_c, 0, 64, 127
1, 206708, Note_on_c, 0, 64, 0
1, 206710, Note_on_c, 0, 61, 0
1, 206739, Note_on_c, 0, 58, 0
1, 206788, Note_on_c, 0, 84, 62
1, 206853, Note_on_c, 0, 81, 0
1, 207129, Note_on_c, 0, 81, 58
1, 207144, Note_on_c, 0, 84, 0
1, 207362, Control_c, 0, 64, 0
1, 207403, Note_on_c, 0, 41, 44
1, 207425, Note_on_c, 0, 76, 51
1, 207427, Note_on_c, 0, 48, 33
1, 207428, Note_on_c, 0, 81, 0
1, 207579, Control_c, 0, 64, 127
1, 207699, Note_on_c, 0, 76, 0
1, 207795, Note_on_c, 0, 76, 55
1, 207870, Note_on_c, 0, 41, 0
1, 207901, Note_on_c, 0, 48, 0
1, 208038, Note_on_c, 0, 76, 0
1, 208076, Note_on_c, 0, 79, 44
1, 208337, Note_on_c, 0, 72, 39
1, 208544, Note_on_c, 0, 64, 53
1, 208548, Control_c, 0, 64, 0
1, 208586, Note_on_c, 0, 60, 26
1, 208590, Note_on_c, 0, 57, 34
1, 208665, Note_on_c, 0, 64, 0
1, 208666, Note_on_c, 0, 60, 0
1, 208684, Note_on_c, 0, 57, 0
1, 208718, Control_c, 0, 64, 127
1, 209496, Note_on_c, 0, 72, 0
1, 209560, Note_on_c, 0, 79, 0
1, 209730, Control_c, 0, 64, 0
1, 209800, Note_on_c, 0, 38, 30
1, 209959, Control_c, 0, 64, 127
1, 210066, Note_on_c, 0, 38, 0
1, 210997, Note_on_c, 0, 60, 25
1, 211018, Control_c, 0, 64, 0
1, 211031, Note_on_c, 0, 57, 34
1, 211043, Note_on_c, 0, 53, 20
1, 211116, Note_on_c, 0, 57, 0
1, 211122, Note_on_c, 0, 60, 0
1, 211160, Note_on_c, 0, 53, 0
1, 211386, Note_on_c, 0, 93, 47
1, 211579, Note_on_c, 0, 93, 0
1, 211792, Note_on_c, 0, 96, 62
1, 211859, Control_c, 0, 64, 127
1, 212030, Note_on_c, 0, 96, 0
1, 212054, Control_c, 0, 64, 0
1, 212152, Note_on_c, 0, 94, 45
1, 212155, Note_on_c, 0, 50, 31
1, 212156, Note_on_c, 0, 43, 27
1, 212328, Note_on_c, 0, 43, 0
1, 212372, Note_on_c, 0, 50, 0
1, 212390, Note_on_c, 0, 94, 0
1, 212432, Marker_t, "High notes in treble almost staccato - no pedal"
1, 212463, Note_on_c, 0, 95, 47
1, 212581, Note_on_c, 0, 95, 0
1, 212628, Note_on_c, 0, 96, 37
1, 212743, Note_on_c, 0, 96, 0
1, 212762, Note_on_c, 0, 97, 57
1, 212882, Note_on_c, 0, 97, 0
1, 212965, Note_on_c, 0, 98, 57
1, 213082, Note_on_c, 0, 98, 0
1, 213161, Note_on_c, 0, 101, 76
1, 213334, Note_on_c, 0, 101, 0
1, 213345, Note_on_c, 0, 62, 29
1, 213358, Note_on_c, 0, 57, 30
1, 213367, Note_on_c, 0, 58, 44
1, 213407, Note_on_c, 0, 98, 64
1, 213464, Note_on_c, 0, 62, 0
1, 213493, Note_on_c, 0, 57, 0
1, 213495, Note_on_c, 0, 58, 0
1, 213543, Note_on_c, 0, 98, 0
1, 213663, Note_on_c, 0, 99, 60
1, 213795, Note_on_c, 0, 99, 0
1, 213884, Note_on_c, 0, 100, 64
1, 214009, Note_on_c, 0, 100, 0
1, 214067, Note_on_c, 0, 101, 57
1, 214156, Note_on_c, 0, 101, 0
1, 214286, Note_on_c, 0, 102, 28
1, 214361, Note_on_c, 0, 102, 0
1, 214464, Note_on_c, 0, 103, 76
1, 214569, Note_on_c, 0, 36, 35
1, 214589, Note_on_c, 0, 52, 30
1, 214604, Note_on_c, 0, 103, 0
1, 214698, Note_on_c, 0, 36, 0
1, 214782, Note_on_c, 0, 103, 60
1, 214795, Note_on_c, 0, 100, 55
1, 214830, Note_on_c, 0, 52, 0
1, 214884, Note_on_c, 0, 103, 0
1, 214909, Note_on_c, 0, 100, 0
1, 215026, Note_on_c, 0, 96, 58
1, 215151, Note_on_c, 0, 96, 0
1, 215267, Note_on_c, 0, 94, 28
1, 215360, Note_on_c, 0, 94, 0
1, 215458, Note_on_c, 0, 93, 56
1, 215592, Note_on_c, 0, 93, 0
1, 215679, Note_on_c, 0, 96, 57
1, 215749, Note_on_c, 0, 64, 37
1, 215769, Note_on_c, 0, 58, 36
1, 215796, Note_on_c, 0, 60, 27
1, 215850, Note_on_c, 0, 96, 0
1, 215900, Note_on_c, 0, 93, 24
1, 216010, Note_on_c, 0, 93, 0
1, 216031, Note_on_c, 0, 64, 0
1, 216093, Note_on_c, 0, 94, 61
1, 216098, Note_on_c, 0, 60, 0
1, 216120, Note_on_c, 0, 58, 0
1, 216285, Note_on_c, 0, 94, 0
1, 216326, Note_on_c, 0, 91, 42
1, 216442, Note_on_c, 0, 91, 0
1, 216553, Note_on_c, 0, 92, 56
1, 216698, Note_on_c, 0, 92, 0
1, 216766, Note_on_c, 0, 93, 69
1, 216917, Note_on_c, 0, 93, 0
1, 216922, Note_on_c, 0, 55, 37
1, 216937, Note_on_c, 0, 45, 38
1, 217000, Note_on_c, 0, 88, 61
1, 217131, Note_on_c, 0, 45, 0
1, 217177, Note_on_c, 0, 88, 0
1, 217255, Note_on_c, 0, 84, 37
1, 217256, Note_on_c, 0, 55, 0
1, 217375, Note_on_c, 0, 84, 0
1, 217507, Note_on_c, 0, 81, 40
1, 217651, Note_on_c, 0, 81, 0
1, 217781, Note_on_c, 0, 72, 22
1, 217859, Note_on_c, 0, 72, 0
1, 218080, Note_on_c, 0, 64, 32
1, 218102, Note_on_c, 0, 72, 45
1, 218120, Note_on_c, 0, 60, 25
1, 218150, Note_on_c, 0, 59, 17
1, 218180, Control_c, 0, 64, 127
1, 218237, Note_on_c, 0, 64, 0
1, 218253, Note_on_c, 0, 60, 0
1, 218292, Note_on_c, 0, 59, 0
1, 218629, Note_on_c, 0, 72, 0
1, 218832, Note_on_c, 0, 74, 45
1, 219152, Note_on_c, 0, 74, 0
1, 219216, Control_c, 0, 64, 0
1, 219275, Note_on_c, 0, 74, 38
1, 219297, Note_on_c, 0, 38, 35
1, 219432, Control_c, 0, 64, 127
1, 219655, Note_on_c, 0, 38, 0
1, 219804, Note_on_c, 0, 74, 0
1, 220533, Note_on_c, 0, 54, 38
1, 220535, Note_on_c, 0, 64, 32
1, 220546, Note_on_c, 0, 60, 33
1, 220549, Control_c, 0, 64, 0
1, 220600, Note_on_c, 0, 64, 0
1, 220601, Note_on_c, 0, 60, 0
1, 220662, Note_on_c, 0, 54, 0
1, 220956, Note_on_c, 0, 93, 78
1, 220968, Note_on_c, 0, 81, 62
1, 221079, Note_on_c, 0, 81, 0
1, 221095, Note_on_c, 0, 93, 0
1, 221296, Note_on_c, 0, 89, 50
1, 221436, Note_on_c, 0, 89, 0
1, 221739, Note_on_c, 0, 43, 26
1, 221752, Note_on_c, 0, 50, 38
1, 221823, Marker_t, "Tremolo in octaves to sustain a note"
1, 221916, Note_on_c, 0, 43, 0
1, 221992, Note_on_c, 0, 50, 0
1, 222003, Note_on_c, 0, 80, 50
1, 222007, Note_on_c, 0, 92, 26
1, 222100, Note_on_c, 0, 92, 0
1, 222150, Note_on_c, 0, 81, 57
1, 222151, Note_on_c, 0, 80, 0
1, 222282, Note_on_c, 0, 81, 0
1, 222318, Note_on_c, 0, 93, 36
1, 222409, Note_on_c, 0, 93, 0
1, 222420, Note_on_c, 0, 81, 42
1, 222549, Note_on_c, 0, 93, 36
1, 222566, Note_on_c, 0, 81, 0
1, 222675, Note_on_c, 0, 93, 0
1, 222690, Note_on_c, 0, 81, 44
1, 222835, Note_on_c, 0, 93, 48
1, 222838, Note_on_c, 0, 62, 28
1, 222841, Note_on_c, 0, 81, 0
1, 222850, Note_on_c, 0, 57, 33
1, 222869, Note_on_c, 0, 58, 37
1, 222965, Note_on_c, 0, 93, 0
1, 222967, Note_on_c, 0, 81, 32
1, 223118, Note_on_c, 0, 93, 44
1, 223248, Note_on_c, 0, 81, 0
1, 223276, Note_on_c, 0, 93, 0
1, 223394, Note_on_c, 0, 79, 43
1, 223404, Note_on_c, 0, 91, 53
1, 223754, Note_on_c, 0, 62, 0
1, 223767, Note_on_c, 0, 57, 0
1, 223840, Note_on_c, 0, 58, 0
1, 223943, Note_on_c, 0, 52, 40
1, 223960, Note_on_c, 0, 62, 30
1, 223974, Note_on_c, 0, 58, 33
1, 223976, Control_c, 0, 64, 127
1, 224314, Note_on_c, 0, 62, 0
1, 224345, Note_on_c, 0, 58, 0
1, 224386, Note_on_c, 0, 52, 0
1, 224659, Note_on_c, 0, 79, 0
1, 224771, Note_on_c, 0, 91, 0
1, 225091, Control_c, 0, 64, 0
1, 225135, Note_on_c, 0, 45, 47
1, 225137, Note_on_c, 0, 55, 32
1, 225262, Control_c, 0, 64, 127
1, 225361, Note_on_c, 0, 45, 0
1, 225405, Note_on_c, 0, 55, 0
1, 225616, Note_on_c, 0, 91, 59
1, 225809, Note_on_c, 0, 91, 0
1, 225967, Note_on_c, 0, 93, 80
1, 226189, Note_on_c, 0, 93, 0
1, 226298, Control_c, 0, 64, 0
1, 226325, Note_on_c, 0, 45, 34
1, 226333, Note_on_c, 0, 38, 26
1, 226343, Note_on_c, 0, 53, 24
1, 226497, Note_on_c, 0, 89, 6
1, 226842, Note_on_c, 0, 38, 0
1, 226885, Note_on_c, 0, 89, 0
1, 226936, Note_on_c, 0, 45, 0
1, 226994, Note_on_c, 0, 89, 69
1, 227066, Note_on_c, 0, 53, 0
1, 227162, Note_on_c, 0, 91, 60
1, 227167, Note_on_c, 0, 89, 0
1, 227279, Note_on_c, 0, 89, 44
1, 227326, Note_on_c, 0, 91, 0
1, 227418, Note_on_c, 0, 88, 56
1, 227445, Note_on_c, 0, 89, 0
1, 227567, Note_on_c, 0, 88, 0
1, 227580, Note_on_c, 0, 57, 39
1, 227582, Note_on_c, 0, 60, 39
1, 227607, Note_on_c, 0, 53, 24
1, 227621, Note_on_c, 0, 89, 67
1, 227637, Note_on_c, 0, 50, 17
1, 227783, Note_on_c, 0, 89, 0
1, 227941, Note_on_c, 0, 93, 80
1, 228058, Note_on_c, 0, 93, 0
1, 228176, Note_on_c, 0, 57, 0
1, 228184, Note_on_c, 0, 60, 0
1, 228236, Note_on_c, 0, 53, 0
1, 228236, Note_on_c, 0, 96, 73
1, 228279, Note_on_c, 0, 50, 0
1, 228390, Note_on_c, 0, 96, 0
1, 228504, Note_on_c, 0, 97, 31
1, 228516, Note_on_c, 0, 98, 71
1, 228543, Note_on_c, 0, 97, 0
1, 228714, Note_on_c, 0, 98, 0
1, 228886, Note_on_c, 0, 99, 62
1, 228914, Note_on_c, 0, 43, 26
1, 229150, Note_on_c, 0, 99, 0
1, 229213, Control_c, 0, 64, 127
1, 229215, Note_on_c, 0, 100, 75
1, 229408, Note_on_c, 0, 100, 0
1, 229409, Note_on_c, 0, 43, 0
1, 229504, Note_on_c, 0, 100, 62
1, 229676, Note_on_c, 0, 100, 0
1, 229793, Note_on_c, 0, 100, 78
1, 229993, Note_on_c, 0, 100, 0
1, 230067, Control_c, 0, 64, 0
1, 230082, Note_on_c, 0, 64, 38
1, 230089, Note_on_c, 0, 99, 74
1, 230093, Note_on_c, 0, 59, 41
1, 230108, Note_on_c, 0, 53, 26
1, 230307, Control_c, 0, 64, 127
1, 230318, Note_on_c, 0, 99, 0
1, 230384, Note_on_c, 0, 100, 68
1, 230559, Note_on_c, 0, 64, 0
1, 230604, Note_on_c, 0, 59, 0
1, 230626, Note_on_c, 0, 100, 0
1, 230649, Note_on_c, 0, 53, 0
1, 230684, Note_on_c, 0, 96, 53
1, 230855, Note_on_c, 0, 96, 0
1, 230999, Note_on_c, 0, 50, 42
1, 231239, Control_c, 0, 64, 0
1, 231299, Note_on_c, 0, 98, 80
1, 231309, Note_on_c, 0, 53, 36
1, 231311, Note_on_c, 0, 43, 37
1, 231328, Note_on_c, 0, 50, 0
1, 231502, Control_c, 0, 64, 127
1, 231600, Note_on_c, 0, 43, 0
1, 231655, Note_on_c, 0, 94, 62
1, 231686, Note_on_c, 0, 53, 0
1, 231736, Note_on_c, 0, 98, 0
1, 231914, Note_on_c, 0, 94, 0
1, 231965, Note_on_c, 0, 89, 47
1, 232129, Note_on_c, 0, 89, 0
1, 232248, Note_on_c, 0, 86, 58
1, 232499, Note_on_c, 0, 86, 0
1, 232515, Control_c, 0, 64, 0
1, 232554, Note_on_c, 0, 82, 35
1, 232562, Note_on_c, 0, 62, 33
1, 232584, Note_on_c, 0, 55, 20
1, 232588, Note_on_c, 0, 58, 38
1, 232683, Note_on_c, 0, 62, 0
1, 232714, Note_on_c, 0, 58, 0
1, 232742, Control_c, 0, 64, 127
1, 232754, Note_on_c, 0, 55, 0
1, 232781, Note_on_c, 0, 82, 0
1, 232873, Note_on_c, 0, 81, 47
1, 233112, Note_on_c, 0, 81, 0
1, 233166, Note_on_c, 0, 93, 68
1, 233393, Note_on_c, 0, 93, 0
1, 233480, Note_on_c, 0, 89, 48
1, 233666, Note_on_c, 0, 89, 0
1, 233744, Control_c, 0, 64, 0
1, 233786, Note_on_c, 0, 36, 32
1, 233794, Note_on_c, 0, 91, 57
1, 233805, Note_on_c, 0, 52, 33
1, 233850, Note_on_c, 0, 79, 24
1, 233962, Control_c, 0, 64, 127
1, 233991, Note_on_c, 0, 36, 0
1, 234052, Note_on_c, 0, 79, 0
1, 234134, Note_on_c, 0, 52, 0
1, 234141, Note_on_c, 0, 91, 0
1, 234164, Note_on_c, 0, 79, 29
1, 234271, Note_on_c, 0, 79, 0
1, 234478, Note_on_c, 0, 85, 64
1, 234757, Note_on_c, 0, 76, 35
1, 234794, Note_on_c, 0, 85, 0
1, 235066, Control_c, 0, 64, 0
1, 235078, Note_on_c, 0, 80, 55
1, 235089, Note_on_c, 0, 64, 33
1, 235096, Note_on_c, 0, 61, 29
1, 235104, Note_on_c, 0, 58, 45
1, 235227, Note_on_c, 0, 64, 0
1, 235260, Control_c, 0, 64, 127
1, 235261, Note_on_c, 0, 61, 0
1, 235304, Note_on_c, 0, 76, 0
1, 235310, Note_on_c, 0, 58, 0
1, 235430, Note_on_c, 0, 80, 0
1, 235476, Note_on_c, 0, 76, 32
1, 235548, Note_on_c, 0, 76, 0
1, 235829, Note_on_c, 0, 82, 25
1, 235902, Note_on_c, 0, 82, 0
1, 236047, Note_on_c, 0, 69, 26
1, 236291, Note_on_c, 0, 69, 0
1, 236364, Note_on_c, 0, 81, 47
1, 236366, Note_on_c, 0, 41, 28
1, 236376, Control_c, 0, 64, 0
1, 236396, Note_on_c, 0, 57, 33
1, 236409, Note_on_c, 0, 48, 33
1, 236554, Note_on_c, 0, 81, 0
1, 236638, Control_c, 0, 64, 127
1, 236760, Note_on_c, 0, 41, 0
1, 236766, Note_on_c, 0, 69, 16
1, 236814, Note_on_c, 0, 48, 0
1, 236926, Note_on_c, 0, 57, 0
1, 236927, Note_on_c, 0, 69, 0
1, 237036, Note_on_c, 0, 72, 47
1, 237594, Control_c, 0, 64, 0
1, 237616, Note_on_c, 0, 62, 34
1, 237660, Note_on_c, 0, 62, 0
1, 237670, Note_on_c, 0, 57, 28
1, 237716, Note_on_c, 0, 57, 0
1, 237946, Control_c, 0, 64, 127
1, 238474, Note_on_c, 0, 72, 0
1, 238812, Control_c, 0, 64, 0
1, 238829, Note_on_c, 0, 38, 39
1, 239052, Marker_t, "Phrase  basically use chord tones with upper and lower  neighbor tones"
1, 239092, Note_on_c, 0, 38, 0
1, 239109, Note_on_c, 0, 80, 51
1, 239330, Note_on_c, 0, 80, 0
1, 239332, Note_on_c, 0, 81, 63
1, 239502, Note_on_c, 0, 81, 0
1, 239558, Note_on_c, 0, 89, 75
1, 239728, Note_on_c, 0, 89, 0
1, 239763, Note_on_c, 0, 86, 64
1, 239917, Note_on_c, 0, 86, 0
1, 239972, Note_on_c, 0, 88, 71
1, 239991, Note_on_c, 0, 60, 41
1, 239997, Note_on_c, 0, 57, 38
1, 240003, Note_on_c, 0, 53, 29
1, 240023, Note_on_c, 0, 50, 24
1, 240165, Note_on_c, 0, 88, 0
1, 240197, Note_on_c, 0, 85, 40
1, 240352, Note_on_c, 0, 85, 0
1, 240389, Note_on_c, 0, 86, 71
1, 240549, Note_on_c, 0, 86, 0
1, 240550, Note_on_c, 0, 57, 0
1, 240558, Note_on_c, 0, 60, 0
1, 240607, Note_on_c, 0, 81, 49
1, 240627, Note_on_c, 0, 53, 0
1, 240656, Note_on_c, 0, 50, 0
1, 240728, Note_on_c, 0, 81, 0
1, 240808, Note_on_c, 0, 77, 55
1, 240884, Control_c, 0, 64, 127
1, 241022, Note_on_c, 0, 77, 0
1, 241024, Note_on_c, 0, 74, 39
1, 241032, Control_c, 0, 64, 0
1, 241147, Note_on_c, 0, 43, 20
1, 241174, Note_on_c, 0, 53, 18
1, 241176, Note_on_c, 0, 50, 24
1, 241191, Note_on_c, 0, 74, 0
1, 241270, Note_on_c, 0, 81, 64
1, 241519, Note_on_c, 0, 77, 36
1, 241536, Note_on_c, 0, 81, 0
1, 241643, Note_on_c, 0, 43, 0
1, 241646, Note_on_c, 0, 77, 0
1, 241683, Note_on_c, 0, 50, 0
1, 241736, Note_on_c, 0, 79, 52
1, 241754, Note_on_c, 0, 53, 0
1, 242113, Control_c, 0, 64, 127
1, 242351, Note_on_c, 0, 62, 31
1, 242384, Note_on_c, 0, 58, 36
1, 242388, Note_on_c, 0, 57, 24
1, 242520, Note_on_c, 0, 62, 0
1, 242524, Note_on_c, 0, 58, 0
1, 242547, Note_on_c, 0, 57, 0
1, 243119, Note_on_c, 0, 79, 0
1, 243492, Control_c, 0, 64, 0
1, 243609, Note_on_c, 0, 36, 22
1, 243833, Control_c, 0, 64, 127
1, 243944, Note_on_c, 0, 36, 0
1, 244382, Note_on_c, 0, 96, 64
1, 244393, Note_on_c, 0, 84, 51
1, 244660, Note_on_c, 0, 96, 0
1, 244661, Note_on_c, 0, 84, 0
1, 244779, Control_c, 0, 64, 0
1, 244790, Note_on_c, 0, 64, 36
1, 244810, Note_on_c, 0, 58, 44
1, 244833, Note_on_c, 0, 60, 34
1, 244844, Note_on_c, 0, 98, 69
1, 244856, Note_on_c, 0, 86, 67
1, 244871, Note_on_c, 0, 96, 34
1, 245003, Note_on_c, 0, 96, 0
1, 245040, Control_c, 0, 64, 127
1, 245074, Note_on_c, 0, 98, 0
1, 245116, Note_on_c, 0, 86, 0
1, 245246, Note_on_c, 0, 98, 54
1, 245247, Note_on_c, 0, 86, 51
1, 245347, Note_on_c, 0, 86, 0
1, 245377, Note_on_c, 0, 60, 0
1, 245399, Note_on_c, 0, 98, 0
1, 245427, Note_on_c, 0, 64, 0
1, 245464, Note_on_c, 0, 58, 0
1, 245669, Note_on_c, 0, 103, 60
1, 245672, Note_on_c, 0, 101, 71
1, 245679, Note_on_c, 0, 89, 61
1, 245684, Note_on_c, 0, 91, 60
1, 245804, Note_on_c, 0, 103, 0
1, 245822, Note_on_c, 0, 91, 0
1, 245834, Note_on_c, 0, 101, 0
1, 245894, Note_on_c, 0, 89, 0
1, 246054, Control_c, 0, 64, 0
1, 246078, Note_on_c, 0, 57, 47
1, 246080, Note_on_c, 0, 64, 41
1, 246082, Note_on_c, 0, 67, 49
1, 246085, Note_on_c, 0, 100, 67
1, 246093, Note_on_c, 0, 60, 43
1, 246105, Note_on_c, 0, 88, 55
1, 246106, Note_on_c, 0, 93, 59
1, 246131, Note_on_c, 0, 96, 41
1, 246270, Control_c, 0, 64, 127
1, 246343, Note_on_c, 0, 96, 0
1, 246345, Note_on_c, 0, 100, 0
1, 246348, Note_on_c, 0, 93, 0
1, 246408, Note_on_c, 0, 88, 0
1, 246604, Note_on_c, 0, 96, 64
1, 246618, Note_on_c, 0, 84, 61
1, 246677, Note_on_c, 0, 64, 0
1, 246798, Note_on_c, 0, 67, 0
1, 246816, Note_on_c, 0, 96, 0
1, 246855, Note_on_c, 0, 57, 0
1, 246866, Note_on_c, 0, 84, 0
1, 246909, Note_on_c, 0, 60, 0
1, 246981, Note_on_c, 0, 96, 75
1, 247188, Note_on_c, 0, 96, 0
1, 247295, Control_c, 0, 64, 0
1, 247343, Note_on_c, 0, 96, 76
1, 247356, Note_on_c, 0, 61, 64
1, 247358, Note_on_c, 0, 55, 60
1, 247362, Note_on_c, 0, 65, 71
1, 247374, Note_on_c, 0, 89, 69
1, 247375, Note_on_c, 0, 93, 64
1, 247382, Note_on_c, 0, 84, 70
1, 247523, Control_c, 0, 64, 127
1, 247724, Note_on_c, 0, 96, 0
1, 247810, Note_on_c, 0, 96, 62
1, 248050, Note_on_c, 0, 96, 0
1, 248178, Note_on_c, 0, 93, 0
1, 248217, Note_on_c, 0, 96, 64
1, 248231, Note_on_c, 0, 89, 0
1, 248270, Note_on_c, 0, 84, 0
1, 248343, Note_on_c, 0, 55, 0
1, 248381, Note_on_c, 0, 65, 0
1, 248498, Note_on_c, 0, 96, 0
1, 248553, Note_on_c, 0, 61, 0
1, 248583, Control_c, 0, 64, 0
1, 248629, Note_on_c, 0, 96, 55
1, 248648, Note_on_c, 0, 90, 40
1, 248650, Note_on_c, 0, 64, 44
1, 248653, Note_on_c, 0, 60, 38
1, 248659, Note_on_c, 0, 84, 41
1, 248662, Note_on_c, 0, 93, 56
1, 248678, Note_on_c, 0, 54, 47
1, 248765, Control_c, 0, 64, 127
1, 249033, Note_on_c, 0, 96, 0
1, 249077, Note_on_c, 0, 93, 0
1, 249085, Note_on_c, 0, 90, 0
1, 249106, Note_on_c, 0, 64, 0
1, 249110, Note_on_c, 0, 60, 0
1, 249192, Note_on_c, 0, 54, 0
1, 249234, Note_on_c, 0, 84, 0
1, 249413, Note_on_c, 0, 50, 48
1, 249535, Note_on_c, 0, 50, 0
1, 249880, Control_c, 0, 64, 0
1, 249938, Note_on_c, 0, 84, 80
1, 249946, Note_on_c, 0, 77, 85
1, 249948, Note_on_c, 0, 72, 80
1, 249952, Note_on_c, 0, 62, 64
1, 249957, Note_on_c, 0, 81, 68
1, 249972, Note_on_c, 0, 80, 32
1, 250062, Control_c, 0, 64, 127
1, 250105, Note_on_c, 0, 80, 0
1, 250118, Note_on_c, 0, 81, 0
1, 250127, Note_on_c, 0, 77, 0
1, 250136, Note_on_c, 0, 84, 0
1, 250199, Note_on_c, 0, 72, 0
1, 250324, Control_c, 0, 64, 0
1, 250353, Note_on_c, 0, 81, 58
1, 250373, Note_on_c, 0, 74, 49
1, 250383, Note_on_c, 0, 69, 47
1, 250386, Note_on_c, 0, 57, 56
1, 250389, Note_on_c, 0, 77, 36
1, 250396, Note_on_c, 0, 80, 34
1, 250400, Note_on_c, 0, 62, 0
1, 250434, Note_on_c, 0, 80, 0
1, 250519, Control_c, 0, 64, 127
1, 250565, Note_on_c, 0, 69, 0
1, 250598, Note_on_c, 0, 57, 0
1, 250621, Note_on_c, 0, 74, 0
1, 250637, Note_on_c, 0, 77, 0
1, 250668, Note_on_c, 0, 81, 0
1, 250738, Note_on_c, 0, 53, 30
1, 250788, Note_on_c, 0, 53, 0
1, 251088, Control_c, 0, 64, 0
1, 251164, Note_on_c, 0, 89, 59
1, 251166, Note_on_c, 0, 82, 47
1, 251168, Note_on_c, 0, 77, 52
1, 251171, Note_on_c, 0, 43, 34
1, 251174, Note_on_c, 0, 86, 55
1, 251190, Note_on_c, 0, 50, 43
1, 251306, Note_on_c, 0, 77, 0
1, 251325, Control_c, 0, 64, 127
1, 251406, Note_on_c, 0, 77, 30
1, 251407, Note_on_c, 0, 43, 0
1, 251438, Note_on_c, 0, 89, 0
1, 251459, Note_on_c, 0, 86, 0
1, 251481, Note_on_c, 0, 50, 0
1, 251532, Note_on_c, 0, 77, 0
1, 251561, Note_on_c, 0, 89, 27
1, 251600, Note_on_c, 0, 86, 26
1, 251668, Note_on_c, 0, 89, 0
1, 251673, Note_on_c, 0, 77, 36
1, 251701, Note_on_c, 0, 86, 0
1, 251745, Note_on_c, 0, 82, 0
1, 251798, Note_on_c, 0, 77, 0
1, 251819, Note_on_c, 0, 89, 31
1, 251933, Note_on_c, 0, 77, 35
1, 251944, Note_on_c, 0, 89, 0
1, 252056, Note_on_c, 0, 77, 0
1, 252071, Note_on_c, 0, 89, 34
1, 252190, Note_on_c, 0, 77, 38
1, 252199, Note_on_c, 0, 89, 0
1, 252354, Note_on_c, 0, 89, 41
1, 252355, Note_on_c, 0, 77, 0
1, 252442, Control_c, 0, 64, 0
1, 252461, Note_on_c, 0, 62, 29
1, 252483, Note_on_c, 0, 57, 29
1, 252484, Note_on_c, 0, 89, 0
1, 252485, Note_on_c, 0, 77, 37
1, 252495, Note_on_c, 0, 58, 49
1, 252612, Control_c, 0, 64, 127
1, 252629, Note_on_c, 0, 77, 0
1, 252631, Note_on_c, 0, 89, 36
1, 252662, Note_on_c, 0, 62, 0
1, 252692, Note_on_c, 0, 58, 0
1, 252709, Note_on_c, 0, 57, 0
1, 252762, Note_on_c, 0, 89, 0
1, 252763, Note_on_c, 0, 77, 37
1, 252902, Note_on_c, 0, 89, 35
1, 252905, Note_on_c, 0, 77, 0
1, 253034, Note_on_c, 0, 89, 0
1, 253035, Note_on_c, 0, 77, 34
1, 253169, Note_on_c, 0, 77, 0
1, 253173, Note_on_c, 0, 89, 38
1, 253296, Note_on_c, 0, 77, 33
1, 253297, Note_on_c, 0, 89, 0
1, 253428, Note_on_c, 0, 89, 42
1, 253429, Note_on_c, 0, 77, 0
1, 253557, Note_on_c, 0, 89, 0
1, 253570, Note_on_c, 0, 77, 35
1, 253683, Control_c, 0, 64, 0
1, 253724, Note_on_c, 0, 89, 34
1, 253765, Note_on_c, 0, 36, 26
1, 253766, Note_on_c, 0, 52, 26
1, 253881, Note_on_c, 0, 77, 0
1, 253911, Control_c, 0, 64, 127
1, 254008, Note_on_c, 0, 36, 0
1, 254251, Note_on_c, 0, 52, 0
1, 254389, Note_on_c, 0, 89, 0
1, 255049, Control_c, 0, 64, 0
1, 255051, Note_on_c, 0, 64, 38
1, 255070, Note_on_c, 0, 58, 34
1, 255108, Note_on_c, 0, 60, 24
1, 255198, Control_c, 0, 64, 127
1, 255402, Note_on_c, 0, 107, 87
1, 255433, Note_on_c, 0, 64, 0
1, 255452, Note_on_c, 0, 60, 0
1, 255481, Note_on_c, 0, 58, 0
1, 255760, Note_on_c, 0, 106, 39
1, 255824, Note_on_c, 0, 107, 0
1, 255853, Note_on_c, 0, 106, 0
1, 255885, Note_on_c, 0, 105, 44
1, 256041, Note_on_c, 0, 105, 0
1, 256070, Note_on_c, 0, 104, 39
1, 256236, Note_on_c, 0, 104, 0
1, 256281, Note_on_c, 0, 105, 54
1, 256393, Control_c, 0, 64, 0
1, 256395, Marker_t, "Uses repeated note being played below melody"
1, 256463, Note_on_c, 0, 105, 0
1, 256487, Note_on_c, 0, 45, 40
1, 256488, Note_on_c, 0, 108, 91
1, 256493, Note_on_c, 0, 55, 38
1, 256497, Note_on_c, 0, 52, 33
1, 256678, Control_c, 0, 64, 127
1, 256770, Note_on_c, 0, 108, 0
1, 256813, Note_on_c, 0, 96, 46
1, 256884, Note_on_c, 0, 45, 0
1, 256920, Note_on_c, 0, 52, 0
1, 256981, Note_on_c, 0, 55, 0
1, 256993, Note_on_c, 0, 96, 0
1, 257156, Note_on_c, 0, 96, 50
1, 257273, Note_on_c, 0, 96, 0
1, 257496, Note_on_c, 0, 96, 41
1, 257672, Note_on_c, 0, 96, 0
1, 257778, Note_on_c, 0, 64, 28
1, 257793, Control_c, 0, 64, 0
1, 257808, Note_on_c, 0, 60, 30
1, 257815, Note_on_c, 0, 55, 17
1, 257832, Note_on_c, 0, 59, 30
1, 257873, Note_on_c, 0, 96, 26
1, 257954, Control_c, 0, 64, 127
1, 257972, Note_on_c, 0, 96, 0
1, 258310, Note_on_c, 0, 108, 89
1, 258352, Note_on_c, 0, 64, 0
1, 258359, Note_on_c, 0, 60, 0
1, 258386, Note_on_c, 0, 59, 0
1, 258427, Note_on_c, 0, 55, 0
1, 258513, Note_on_c, 0, 108, 0
1, 258594, Note_on_c, 0, 96, 48
1, 258741, Note_on_c, 0, 96, 0
1, 258844, Note_on_c, 0, 96, 49
1, 259026, Note_on_c, 0, 96, 0
1, 259069, Control_c, 0, 64, 0
1, 259095, Note_on_c, 0, 54, 55
1, 259107, Note_on_c, 0, 60, 40
1, 259108, Note_on_c, 0, 108, 89
1, 259126, Note_on_c, 0, 50, 32
1, 259321, Note_on_c, 0, 108, 0
1, 259365, Control_c, 0, 64, 127
1, 259402, Note_on_c, 0, 96, 40
1, 259478, Note_on_c, 0, 96, 0
1, 259661, Note_on_c, 0, 96, 53
1, 259786, Note_on_c, 0, 96, 0
1, 259892, Note_on_c, 0, 50, 0
1, 259930, Note_on_c, 0, 54, 0
1, 259948, Note_on_c, 0, 96, 40
1, 260017, Note_on_c, 0, 60, 0
1, 260093, Note_on_c, 0, 96, 0
1, 260288, Note_on_c, 0, 96, 53
1, 260374, Note_on_c, 0, 64, 54
1, 260389, Note_on_c, 0, 54, 40
1, 260395, Note_on_c, 0, 60, 32
1, 260516, Note_on_c, 0, 60, 0
1, 260516, Note_on_c, 0, 64, 0
1, 260606, Note_on_c, 0, 54, 0
1, 261247, Note_on_c, 0, 108, 89
1, 261491, Note_on_c, 0, 108, 0
1, 261549, Note_on_c, 0, 105, 64
1, 261665, Control_c, 0, 64, 0
1, 261752, Note_on_c, 0, 50, 32
1, 261771, Note_on_c, 0, 43, 24
1, 261785, Note_on_c, 0, 96, 0
1, 261866, Note_on_c, 0, 101, 55
1, 261868, Note_on_c, 0, 105, 0
1, 261961, Control_c, 0, 64, 127
1, 262121, Note_on_c, 0, 43, 0
1, 262175, Note_on_c, 0, 50, 0
1, 262180, Note_on_c, 0, 101, 0
1, 262233, Note_on_c, 0, 105, 68
1, 262442, Note_on_c, 0, 105, 0
1, 262545, Note_on_c, 0, 106, 64
1, 262779, Note_on_c, 0, 106, 0
1, 262848, Note_on_c, 0, 103, 64
1, 263030, Control_c, 0, 64, 0
1, 263080, Note_on_c, 0, 62, 22
1, 263085, Note_on_c, 0, 58, 39
1, 263094, Note_on_c, 0, 57, 32
1, 263139, Note_on_c, 0, 53, 18
1, 263179, Control_c, 0, 64, 127
1, 263325, Note_on_c, 0, 62, 0
1, 263327, Note_on_c, 0, 58, 0
1, 263345, Note_on_c, 0, 57, 0
1, 263400, Note_on_c, 0, 53, 0
1, 263470, Note_on_c, 0, 103, 0
1, 264318, Control_c, 0, 64, 0
1, 264364, Note_on_c, 0, 36, 36
1, 264398, Note_on_c, 0, 52, 31
1, 264489, Control_c, 0, 64, 127
1, 264629, Note_on_c, 0, 36, 0
1, 264916, Note_on_c, 0, 52, 0
1, 265605, Control_c, 0, 64, 0
1, 265632, Note_on_c, 0, 79, 44
1, 265646, Note_on_c, 0, 69, 39
1, 265647, Note_on_c, 0, 73, 32
1, 265651, Note_on_c, 0, 76, 33
1, 265659, Note_on_c, 0, 64, 38
1, 265707, Control_c, 0, 64, 127
1, 266392, Note_on_c, 0, 64, 0
1, 266400, Note_on_c, 0, 76, 0
1, 266480, Note_on_c, 0, 79, 0
1, 266482, Note_on_c, 0, 69, 0
1, 266642, Note_on_c, 0, 73, 0
1, 266892, Control_c, 0, 64, 0
1, 266963, Note_on_c, 0, 77, 38
1, 266978, Note_on_c, 0, 67, 30
1, 266986, Note_on_c, 0, 62, 32
1, 266996, Note_on_c, 0, 72, 36
1, 267051, Control_c, 0, 64, 127
1, 267276, Note_on_c, 0, 77, 0
1, 267317, Note_on_c, 0, 62, 0
1, 267359, Note_on_c, 0, 72, 0
1, 267437, Note_on_c, 0, 67, 0
1, 267837, Control_c, 0, 64, 0
1, 267950, Control_c, 0, 64, 127
1, 267983, Note_on_c, 0, 74, 51
1, 267996, Note_on_c, 0, 64, 47
1, 267996, Note_on_c, 0, 68, 51
1, 268006, Note_on_c, 0, 58, 35
1, 268137, Note_on_c, 0, 74, 0
1, 268189, Control_c, 0, 64, 0
1, 268191, Note_on_c, 0, 64, 0
1, 268254, Note_on_c, 0, 68, 0
1, 268276, Note_on_c, 0, 58, 0
1, 268311, Note_on_c, 0, 72, 44
1, 268332, Note_on_c, 0, 57, 38
1, 268333, Note_on_c, 0, 67, 41
1, 268351, Note_on_c, 0, 62, 31
1, 268395, Control_c, 0, 64, 127
1, 268562, Note_on_c, 0, 72, 0
1, 268591, Note_on_c, 0, 67, 0
1, 268690, Note_on_c, 0, 62, 0
1, 268812, Note_on_c, 0, 57, 0
1, 268907, Control_c, 0, 64, 0
1, 268937, Note_on_c, 0, 64, 36
1, 268943, Note_on_c, 0, 60, 34
1, 268948, Note_on_c, 0, 53, 24
1, 268952, Note_on_c, 0, 67, 36
1, 269101, Note_on_c, 0, 64, 0
1, 269113, Note_on_c, 0, 53, 0
1, 269115, Note_on_c, 0, 67, 0
1, 269161, Note_on_c, 0, 60, 0
1, 269236, Control_c, 0, 64, 127
1, 269487, Control_c, 0, 64, 0
1, 269658, Control_c, 0, 64, 127
1, 269875, Control_c, 0, 64, 0
1, 269927, Note_on_c, 0, 64, 37
1, 269943, Note_on_c, 0, 50, 42
1, 269944, Note_on_c, 0, 53, 32
1, 269946, Note_on_c, 0, 57, 51
1, 269949, Note_on_c, 0, 60, 36
1, 270135, Note_on_c, 0, 57, 0
1, 270136, Note_on_c, 0, 64, 0
1, 270147, Note_on_c, 0, 53, 0
1, 270149, Note_on_c, 0, 60, 0
1, 270166, Note_on_c, 0, 50, 0
1, 270246, Note_on_c, 0, 62, 32
1, 270258, Note_on_c, 0, 57, 44
1, 270258, Note_on_c, 0, 53, 25
1, 270267, Note_on_c, 0, 48, 37
1, 270686, Note_on_c, 0, 57, 0
1, 270731, Note_on_c, 0, 53, 0
1, 270847, Note_on_c, 0, 62, 0
1, 270904, Note_on_c, 0, 48, 0
1, 270927, Note_on_c, 0, 57, 35
1, 270930, Note_on_c, 0, 53, 24
1, 270930, Note_on_c, 0, 60, 28
1, 270947, Note_on_c, 0, 41, 20
1, 271035, Note_on_c, 0, 53, 0
1, 271063, Note_on_c, 0, 57, 0
1, 271096, Note_on_c, 0, 41, 0
1, 271110, Note_on_c, 0, 60, 0
1, 271770, Note_on_c, 0, 76, 60
1, 272038, Control_c, 0, 64, 127
1, 272040, Note_on_c, 0, 71, 46
1, 272049, Note_on_c, 0, 65, 40
1, 272054, Note_on_c, 0, 64, 45
1, 272063, Note_on_c, 0, 69, 41
1, 272895, Note_on_c, 0, 69, 0
1, 272918, Note_on_c, 0, 65, 0
1, 273184, Note_on_c, 0, 64, 0
1, 273223, Note_on_c, 0, 71, 0
1, 273236, Note_on_c, 0, 62, 28
1, 273239, Note_on_c, 0, 65, 32
1, 273244, Note_on_c, 0, 69, 33
1, 273420, Note_on_c, 0, 62, 0
1, 274088, Note_on_c, 0, 69, 0
1, 274104, Note_on_c, 0, 65, 0
1, 274295, Note_on_c, 0, 76, 0
1, 274440, Control_c, 0, 64, 0
1, 274518, Note_on_c, 0, 56, 34
1, 274528, Note_on_c, 0, 68, 23
1, 274529, Note_on_c, 0, 65, 22
1, 274535, Note_on_c, 0, 62, 20
1, 274536, Note_on_c, 0, 52, 17
1, 274680, Control_c, 0, 64, 127
1, 274712, Note_on_c, 0, 65, 0
1, 274782, Note_on_c, 0, 68, 0
1, 275146, Control_c, 0, 64, 0
1, 275198, Note_on_c, 0, 76, 57
1, 275221, Note_on_c, 0, 62, 0
1, 275325, Note_on_c, 0, 76, 0
1, 275617, Note_on_c, 0, 78, 59
1, 275730, Note_on_c, 0, 78, 0
1, 275847, Note_on_c, 0, 62, 24
1, 276417, Note_on_c, 0, 81, 46
1, 276502, Control_c, 0, 64, 127
1, 276551, Note_on_c, 0, 81, 0
1, 276615, Note_on_c, 0, 62, 0
1, 276825, Note_on_c, 0, 56, 0
1, 276862, Note_on_c, 0, 52, 0
1, 276934, Note_on_c, 0, 84, 66
1, 277112, Note_on_c, 0, 84, 0
1, 277140, Control_c, 0, 64, 0
1, 277249, Note_on_c, 0, 45, 36
1, 277250, Note_on_c, 0, 52, 33
1, 277378, Note_on_c, 0, 87, 52
1, 277409, Note_on_c, 0, 75, 57
1, 277500, Note_on_c, 0, 45, 0
1, 277552, Note_on_c, 0, 87, 0
1, 277556, Note_on_c, 0, 52, 0
1, 277581, Note_on_c, 0, 75, 0
1, 277602, Note_on_c, 0, 76, 37
1, 277737, Note_on_c, 0, 76, 0
1, 277743, Note_on_c, 0, 88, 33
1, 277844, Note_on_c, 0, 76, 44
1, 277853, Note_on_c, 0, 88, 0
1, 278002, Note_on_c, 0, 88, 25
1, 278005, Note_on_c, 0, 76, 0
1, 278111, Note_on_c, 0, 76, 34
1, 278115, Note_on_c, 0, 88, 0
1, 278260, Note_on_c, 0, 76, 0
1, 278261, Note_on_c, 0, 88, 31
1, 278376, Note_on_c, 0, 76, 38
1, 278386, Note_on_c, 0, 88, 0
1, 278396, Note_on_c, 0, 64, 36
1, 278429, Note_on_c, 0, 57, 32
1, 278449, Note_on_c, 0, 60, 29
1, 278528, Note_on_c, 0, 76, 0
1, 278532, Note_on_c, 0, 88, 27
1, 278633, Note_on_c, 0, 76, 37
1, 278645, Note_on_c, 0, 88, 0
1, 278777, Note_on_c, 0, 88, 26
1, 278786, Note_on_c, 0, 76, 0
1, 278904, Note_on_c, 0, 76, 43
1, 278905, Note_on_c, 0, 88, 0
1, 278917, Note_on_c, 0, 57, 0
1, 278981, Note_on_c, 0, 56, 68
1, 279046, Note_on_c, 0, 88, 27
1, 279051, Note_on_c, 0, 76, 0
1, 279199, Note_on_c, 0, 88, 0
1, 279200, Note_on_c, 0, 76, 51
1, 279329, Note_on_c, 0, 88, 35
1, 279350, Note_on_c, 0, 76, 0
1, 279463, Note_on_c, 0, 76, 42
1, 279473, Note_on_c, 0, 88, 0
1, 279513, Note_on_c, 0, 56, 0
1, 279560, Note_on_c, 0, 55, 35
1, 279585, Note_on_c, 0, 88, 31
1, 279589, Control_c, 0, 64, 127
1, 279615, Note_on_c, 0, 76, 0
1, 279730, Note_on_c, 0, 88, 0
1, 279736, Note_on_c, 0, 76, 40
1, 279857, Note_on_c, 0, 88, 24
1, 279867, Note_on_c, 0, 60, 0
1, 279874, Note_on_c, 0, 64, 0
1, 279883, Note_on_c, 0, 76, 0
1, 279948, Note_on_c, 0, 55, 0
1, 279995, Note_on_c, 0, 88, 0
1, 280001, Note_on_c, 0, 76, 38
1, 280132, Note_on_c, 0, 88, 25
1, 280157, Note_on_c, 0, 76, 0
1, 280275, Note_on_c, 0, 88, 0
1, 280277, Note_on_c, 0, 76, 34
1, 280390, Note_on_c, 0, 88, 28
1, 280425, Note_on_c, 0, 76, 0
1, 280542, Note_on_c, 0, 76, 30
1, 280549, Note_on_c, 0, 88, 0
1, 280635, Control_c, 0, 64, 0
1, 280685, Note_on_c, 0, 55, 28
1, 280690, Note_on_c, 0, 88, 26
1, 280702, Note_on_c, 0, 45, 29
1, 280710, Note_on_c, 0, 52, 28
1, 280840, Control_c, 0, 64, 127
1, 280903, Note_on_c, 0, 45, 0
1, 280949, Note_on_c, 0, 52, 0
1, 281029, Note_on_c, 0, 55, 0
1, 281233, Note_on_c, 0, 76, 0
1, 281380, Note_on_c, 0, 88, 0
1, 281797, Control_c, 0, 64, 0
1, 281905, Note_on_c, 0, 57, 45
1, 281907, Note_on_c, 0, 88, 43
1, 281908, Note_on_c, 0, 47, 37
1, 281923, Note_on_c, 0, 74, 32
1, 281935, Note_on_c, 0, 81, 39
1, 281968, Control_c, 0, 64, 127
1, 282123, Note_on_c, 0, 47, 0
1, 282219, Note_on_c, 0, 57, 0
1, 282411, Note_on_c, 0, 88, 0
1, 282425, Note_on_c, 0, 81, 0
1, 282465, Note_on_c, 0, 74, 0
1, 282782, Note_on_c, 0, 65, 41
1, 282789, Note_on_c, 0, 71, 50
1, 282790, Note_on_c, 0, 69, 46
1, 283094, Control_c, 0, 64, 0
1, 283155, Note_on_c, 0, 64, 57
1, 283196, Note_on_c, 0, 64, 0
1, 283534, Note_on_c, 0, 62, 45
1, 283618, Control_c, 0, 64, 127
1, 283843, Note_on_c, 0, 62, 0
1, 284257, Control_c, 0, 64, 0
1, 284304, Note_on_c, 0, 40, 35
1, 284416, Control_c, 0, 64, 127
1, 284430, Note_on_c, 0, 40, 0
1, 285599, Note_on_c, 0, 52, 51
1, 285656, Control_c, 0, 64, 0
1, 285694, Note_on_c, 0, 69, 0
1, 285808, Note_on_c, 0, 71, 0
1, 285948, Note_on_c, 0, 65, 0
1, 285986, Note_on_c, 0, 52, 0
1, 286005, Note_on_c, 0, 65, 45
1, 286007, Note_on_c, 0, 68, 57
1, 286020, Note_on_c, 0, 70, 54
1, 286362, Note_on_c, 0, 74, 51
1, 286367, Note_on_c, 0, 46, 42
1, 286397, Control_c, 0, 64, 127
1, 286407, Note_on_c, 0, 65, 0
1, 286584, Note_on_c, 0, 74, 0
1, 286612, Note_on_c, 0, 68, 0
1, 286677, Note_on_c, 0, 70, 0
1, 286683, Note_on_c, 0, 46, 0
1, 286716, Control_c, 0, 64, 0
1, 286777, Note_on_c, 0, 72, 38
1, 286798, Note_on_c, 0, 60, 33
1, 286799, Note_on_c, 0, 45, 43
1, 286801, Note_on_c, 0, 67, 29
1, 286808, Note_on_c, 0, 55, 29
1, 286919, Control_c, 0, 64, 127
1, 287155, Note_on_c, 0, 60, 0
1, 287206, Note_on_c, 0, 45, 0
1, 287308, Note_on_c, 0, 55, 0
1, 287554, Note_on_c, 0, 67, 0
1, 287658, Note_on_c, 0, 72, 0
1, 288033, Note_on_c, 0, 64, 31
1, 288059, Note_on_c, 0, 59, 31
1, 288064, Note_on_c, 0, 60, 30
1, 288393, Marker_t, "2 chord tones (C and A) with chromatic passing notes (B,Bb)"
1, 288434, Note_on_c, 0, 84, 89
1, 288802, Note_on_c, 0, 83, 53
1, 288809, Note_on_c, 0, 59, 0
1, 288852, Note_on_c, 0, 64, 0
1, 288898, Note_on_c, 0, 84, 0
1, 288961, Note_on_c, 0, 60, 0
1, 288962, Note_on_c, 0, 82, 49
1, 288963, Note_on_c, 0, 83, 0
1, 289068, Note_on_c, 0, 81, 51
1, 289112, Note_on_c, 0, 82, 0
1, 289178, Note_on_c, 0, 81, 0
1, 289241, Note_on_c, 0, 84, 85
1, 289254, Control_c, 0, 64, 0
1, 289354, Note_on_c, 0, 54, 47
1, 289356, Note_on_c, 0, 64, 39
1, 289367, Note_on_c, 0, 60, 36
1, 289600, Note_on_c, 0, 83, 53
1, 289671, Note_on_c, 0, 84, 0
1, 289733, Control_c, 0, 64, 127
1, 289770, Note_on_c, 0, 82, 34
1, 289771, Note_on_c, 0, 83, 0
1, 289848, Note_on_c, 0, 81, 53
1, 289862, Note_on_c, 0, 82, 0
1, 289962, Note_on_c, 0, 81, 0
1, 289999, Note_on_c, 0, 64, 0
1, 290047, Note_on_c, 0, 84, 80
1, 290049, Note_on_c, 0, 60, 0
1, 290164, Note_on_c, 0, 54, 0
1, 290342, Note_on_c, 0, 76, 61
1, 290575, Control_c, 0, 64, 0
1, 290583, Note_on_c, 0, 76, 0
1, 290631, Note_on_c, 0, 42, 44
1, 290649, Note_on_c, 0, 52, 32
1, 290708, Note_on_c, 0, 76, 57
1, 290758, Control_c, 0, 64, 127
1, 290764, Note_on_c, 0, 84, 0
1, 290974, Note_on_c, 0, 42, 0
1, 291037, Note_on_c, 0, 52, 0
1, 291443, Note_on_c, 0, 76, 0
1, 291873, Control_c, 0, 64, 0
1, 291876, Marker_t, "Same idea basically, but up a tone"
1, 291980, Note_on_c, 0, 86, 89
1, 291988, Note_on_c, 0, 47, 58
1, 292136, Control_c, 0, 64, 127
1, 292279, Note_on_c, 0, 47, 0
1, 292430, Note_on_c, 0, 85, 35
1, 292537, Note_on_c, 0, 86, 0
1, 292551, Note_on_c, 0, 84, 37
1, 292618, Note_on_c, 0, 85, 0
1, 292649, Note_on_c, 0, 83, 57
1, 292661, Note_on_c, 0, 84, 0
1, 292852, Note_on_c, 0, 83, 0
1, 292983, Note_on_c, 0, 83, 68
1, 293161, Note_on_c, 0, 83, 0
1, 293195, Control_c, 0, 64, 0
1, 293240, Note_on_c, 0, 65, 30
1, 293256, Note_on_c, 0, 57, 40
1, 293265, Note_on_c, 0, 62, 24
1, 293298, Note_on_c, 0, 83, 66
1, 293610, Note_on_c, 0, 84, 47
1, 293659, Note_on_c, 0, 83, 0
1, 293715, Note_on_c, 0, 85, 56
1, 293757, Note_on_c, 0, 84, 0
1, 293841, Note_on_c, 0, 85, 0
1, 293857, Note_on_c, 0, 86, 75
1, 294084, Note_on_c, 0, 85, 49
1, 294122, Note_on_c, 0, 57, 0
1, 294149, Note_on_c, 0, 65, 0
1, 294208, Note_on_c, 0, 84, 49
1, 294209, Note_on_c, 0, 86, 0
1, 294227, Note_on_c, 0, 62, 0
1, 294294, Note_on_c, 0, 85, 0
1, 294337, Note_on_c, 0, 83, 56
1, 294339, Note_on_c, 0, 84, 0
1, 294462, Note_on_c, 0, 83, 0
1, 294472, Note_on_c, 0, 82, 55
1, 294565, Note_on_c, 0, 65, 22
1, 294569, Note_on_c, 0, 56, 36
1, 294587, Note_on_c, 0, 62, 26
1, 294614, Note_on_c, 0, 82, 0
1, 294625, Note_on_c, 0, 81, 47
1, 294775, Note_on_c, 0, 80, 64
1, 294796, Note_on_c, 0, 81, 0
1, 294949, Control_c, 0, 64, 127
1, 295155, Note_on_c, 0, 86, 63
1, 295312, Note_on_c, 0, 65, 0
1, 295352, Note_on_c, 0, 62, 0
1, 295421, Note_on_c, 0, 86, 0
1, 295423, Note_on_c, 0, 77, 57
1, 295492, Note_on_c, 0, 80, 0
1, 295530, Note_on_c, 0, 56, 0
1, 295683, Note_on_c, 0, 77, 0
1, 295710, Note_on_c, 0, 76, 65
1, 295801, Note_on_c, 0, 67, 33
1, 295814, Control_c, 0, 64, 0
1, 295818, Note_on_c, 0, 56, 28
1, 295826, Note_on_c, 0, 62, 27
1, 295996, Control_c, 0, 64, 127
1, 296064, Note_on_c, 0, 74, 40
1, 296076, Note_on_c, 0, 76, 0
1, 296199, Note_on_c, 0, 67, 0
1, 296294, Note_on_c, 0, 74, 0
1, 296429, Note_on_c, 0, 56, 0
1, 296442, Note_on_c, 0, 62, 0
1, 296460, Note_on_c, 0, 72, 50
1, 296705, Note_on_c, 0, 71, 55
1, 296717, Note_on_c, 0, 72, 0
1, 296964, Note_on_c, 0, 71, 0
1, 297012, Note_on_c, 0, 77, 55
1, 297055, Control_c, 0, 64, 0
1, 297212, Note_on_c, 0, 45, 34
1, 297218, Note_on_c, 0, 52, 27
1, 297255, Note_on_c, 0, 77, 0
1, 297284, Note_on_c, 0, 71, 36
1, 297362, Control_c, 0, 64, 127
1, 297543, Note_on_c, 0, 45, 0
1, 297575, Note_on_c, 0, 76, 40
1, 297597, Note_on_c, 0, 52, 0
1, 297641, Note_on_c, 0, 71, 0
1, 297842, Note_on_c, 0, 76, 0
1, 297862, Note_on_c, 0, 69, 35
1, 298101, Note_on_c, 0, 69, 0
1, 298127, Note_on_c, 0, 71, 45
1, 298306, Note_on_c, 0, 71, 0
1, 298421, Control_c, 0, 64, 0
1, 298433, Note_on_c, 0, 64, 44
1, 298475, Note_on_c, 0, 59, 31
1, 298501, Note_on_c, 0, 60, 17
1, 298570, Control_c, 0, 64, 127
1, 298728, Note_on_c, 0, 64, 0
1, 298785, Note_on_c, 0, 60, 0
1, 298813, Note_on_c, 0, 64, 48
1, 298870, Note_on_c, 0, 59, 0
1, 298950, Note_on_c, 0, 64, 0
1, 299115, Control_c, 0, 64, 0
1, 299170, Note_on_c, 0, 64, 53
1, 299172, Note_on_c, 0, 60, 40
1, 299183, Note_on_c, 0, 56, 63
1, 299331, Control_c, 0, 64, 127
1, 299489, Note_on_c, 0, 64, 0
1, 299501, Note_on_c, 0, 60, 0
1, 299574, Note_on_c, 0, 56, 0
1, 299594, Control_c, 0, 64, 0
1, 299634, Note_on_c, 0, 64, 36
1, 299635, Note_on_c, 0, 60, 41
1, 299640, Note_on_c, 0, 71, 58
1, 299663, Note_on_c, 0, 55, 38
1, 299764, Control_c, 0, 64, 127
1, 300463, Note_on_c, 0, 60, 0
1, 300662, Note_on_c, 0, 64, 0
1, 300938, Control_c, 0, 64, 0
1, 300960, Note_on_c, 0, 45, 50
1, 301074, Control_c, 0, 64, 127
1, 301455, Note_on_c, 0, 45, 0
1, 301618, Note_on_c, 0, 71, 0
1, 301661, Note_on_c, 0, 55, 0
1, 301776, Note_on_c, 0, 69, 29
1, 301875, Note_on_c, 0, 69, 0
1, 302282, Note_on_c, 0, 76, 47
1, 302291, Note_on_c, 0, 65, 33
1, 302300, Note_on_c, 0, 69, 34
1, 302303, Control_c, 0, 64, 0
1, 302305, Note_on_c, 0, 64, 39
1, 302307, Note_on_c, 0, 73, 26
1, 302324, Note_on_c, 0, 62, 27
1, 302543, Control_c, 0, 64, 127
1, 302811, Note_on_c, 0, 76, 0
1, 303032, Note_on_c, 0, 69, 0
1, 303087, Note_on_c, 0, 73, 0
1, 303089, Note_on_c, 0, 77, 45
1, 303243, Note_on_c, 0, 65, 0
1, 303272, Note_on_c, 0, 62, 0
1, 303278, Note_on_c, 0, 77, 0
1, 303306, Note_on_c, 0, 64, 0
1, 303556, Note_on_c, 0, 76, 51
1, 303567, Control_c, 0, 64, 0
1, 303581, Note_on_c, 0, 64, 31
1, 303590, Note_on_c, 0, 65, 25
1, 303590, Note_on_c, 0, 73, 30
1, 303591, Note_on_c, 0, 69, 34
1, 303594, Note_on_c, 0, 62, 27
1, 303692, Control_c, 0, 64, 127
1, 303715, Note_on_c, 0, 76, 0
1, 303874, Note_on_c, 0, 73, 0
1, 303901, Note_on_c, 0, 77, 50
1, 304029, Note_on_c, 0, 69, 0
1, 304051, Note_on_c, 0, 77, 0
1, 304095, Note_on_c, 0, 65, 0
1, 304116, Note_on_c, 0, 64, 0
1, 304149, Note_on_c, 0, 62, 0
1, 304259, Note_on_c, 0, 76, 62
1, 304272, Note_on_c, 0, 69, 49
1, 304274, Note_on_c, 0, 73, 37
1, 304440, Note_on_c, 0, 76, 0
1, 304505, Note_on_c, 0, 69, 0
1, 304534, Note_on_c, 0, 73, 0
1, 304585, Note_on_c, 0, 77, 53
1, 304750, Note_on_c, 0, 77, 0
1, 304889, Control_c, 0, 64, 0
1, 304920, Note_on_c, 0, 76, 54
1, 304940, Note_on_c, 0, 62, 25
1, 304942, Note_on_c, 0, 67, 32
1, 304948, Note_on_c, 0, 56, 35
1, 304953, Note_on_c, 0, 72, 32
1, 305082, Control_c, 0, 64, 127
1, 305183, Note_on_c, 0, 76, 0
1, 305201, Note_on_c, 0, 67, 0
1, 305268, Note_on_c, 0, 77, 34
1, 305345, Note_on_c, 0, 72, 0
1, 305357, Note_on_c, 0, 62, 0
1, 305362, Note_on_c, 0, 77, 0
1, 305992, Note_on_c, 0, 56, 0
1, 306231, Control_c, 0, 64, 0
1, 306283, Note_on_c, 0, 74, 45
1, 306296, Note_on_c, 0, 56, 35
1, 306308, Note_on_c, 0, 65, 26
1, 306311, Note_on_c, 0, 70, 35
1, 306329, Note_on_c, 0, 62, 18
1, 306392, Control_c, 0, 64, 127
1, 306623, Note_on_c, 0, 76, 39
1, 306793, Note_on_c, 0, 65, 0
1, 306824, Note_on_c, 0, 74, 0
1, 306855, Note_on_c, 0, 76, 0
1, 306897, Note_on_c, 0, 70, 0
1, 306912, Note_on_c, 0, 62, 0
1, 306950, Note_on_c, 0, 71, 53
1, 306977, Note_on_c, 0, 56, 0
1, 307225, Note_on_c, 0, 71, 0
1, 307252, Note_on_c, 0, 74, 38
1, 307423, Note_on_c, 0, 74, 0
1, 307508, Control_c, 0, 64, 0
1, 307542, Note_on_c, 0, 72, 50
1, 307580, Note_on_c, 0, 45, 31
1, 307922, Note_on_c, 0, 52, 36
1, 307940, Control_c, 0, 64, 127
1, 307943, Note_on_c, 0, 45, 0
1, 308241, Note_on_c, 0, 52, 0
1, 308280, Note_on_c, 0, 59, 41
1, 308393, Note_on_c, 0, 59, 0
1, 308583, Note_on_c, 0, 72, 0
1, 308660, Note_on_c, 0, 61, 20
1, 308691, Note_on_c, 0, 60, 61
1, 308701, Note_on_c, 0, 61, 0
1, 309019, Note_on_c, 0, 65, 58
1, 309034, Note_on_c, 0, 72, 70
1, 309276, Note_on_c, 0, 65, 0
1, 309286, Note_on_c, 0, 79, 66
1, 309336, Note_on_c, 0, 72, 0
1, 309351, Note_on_c, 0, 60, 0
1, 309496, Note_on_c, 0, 84, 73
1, 309520, Note_on_c, 0, 79, 0
1, 309602, Note_on_c, 0, 84, 0
1, 309719, Note_on_c, 0, 91, 77
1, 309913, Note_on_c, 0, 91, 0
1, 309968, Control_c, 0, 64, 0
1, 309969, Note_on_c, 0, 98, 67
1, 310014, Note_on_c, 0, 44, 52
1, 310160, Control_c, 0, 64, 127
1, 310173, Note_on_c, 0, 44, 0
1, 310228, Note_on_c, 0, 98, 0
1, 310295, Note_on_c, 0, 94, 40
1, 310543, Note_on_c, 0, 94, 0
1, 311281, Note_on_c, 0, 65, 43
1, 311288, Note_on_c, 0, 54, 35
1, 311300, Note_on_c, 0, 58, 49
1, 311305, Note_on_c, 0, 60, 34
1, 312131, Control_c, 0, 64, 0
1, 312145, Note_on_c, 0, 84, 48
1, 312192, Note_on_c, 0, 96, 33
1, 312261, Note_on_c, 0, 65, 0
1, 312368, Note_on_c, 0, 60, 0
1, 312521, Note_on_c, 0, 58, 0
1, 312526, Note_on_c, 0, 84, 0
1, 312540, Note_on_c, 0, 96, 0
1, 312560, Note_on_c, 0, 54, 0
1, 312661, Note_on_c, 0, 53, 33
1, 312674, Note_on_c, 0, 96, 36
1, 312675, Note_on_c, 0, 55, 27
1, 312684, Note_on_c, 0, 84, 44
1, 312687, Note_on_c, 0, 62, 30
1, 312972, Control_c, 0, 64, 127
1, 312995, Note_on_c, 0, 96, 0
1, 313074, Note_on_c, 0, 84, 0
1, 313360, Control_c, 0, 64, 0
1, 313478, Note_on_c, 0, 86, 44
1, 313493, Note_on_c, 0, 82, 36
1, 313503, Note_on_c, 0, 74, 31
1, 313517, Note_on_c, 0, 76, 26
1, 313548, Note_on_c, 0, 62, 0
1, 313573, Note_on_c, 0, 76, 0
1, 313872, Control_c, 0, 64, 127
1, 313921, Note_on_c, 0, 58, 42
1, 313923, Note_on_c, 0, 62, 25
1, 313963, Control_c, 0, 64, 0
1, 314123, Control_c, 0, 64, 127
1, 314298, Note_on_c, 0, 86, 0
1, 314416, Note_on_c, 0, 86, 55
1, 314474, Note_on_c, 0, 62, 0
1, 314487, Note_on_c, 0, 58, 0
1, 314572, Note_on_c, 0, 53, 0
1, 314575, Note_on_c, 0, 55, 0
1, 314671, Note_on_c, 0, 86, 0
1, 314748, Note_on_c, 0, 74, 0
1, 314765, Note_on_c, 0, 86, 52
1, 314992, Note_on_c, 0, 86, 0
1, 315113, Note_on_c, 0, 82, 0
1, 315177, Note_on_c, 0, 86, 47
1, 315193, Control_c, 0, 64, 0
1, 315197, Note_on_c, 0, 76, 45
1, 315207, Note_on_c, 0, 58, 35
1, 315209, Note_on_c, 0, 80, 39
1, 315215, Note_on_c, 0, 48, 27
1, 315443, Control_c, 0, 64, 127
1, 315558, Note_on_c, 0, 86, 0
1, 315647, Note_on_c, 0, 80, 0
1, 315681, Note_on_c, 0, 76, 0
1, 315756, Note_on_c, 0, 58, 0
1, 316082, Note_on_c, 0, 74, 69
1, 316092, Control_c, 0, 64, 0
1, 316094, Note_on_c, 0, 64, 74
1, 316096, Note_on_c, 0, 68, 74
1, 316103, Note_on_c, 0, 48, 0
1, 316104, Note_on_c, 0, 58, 65
1, 316252, Control_c, 0, 64, 127
1, 316570, Note_on_c, 0, 58, 0
1, 316972, Note_on_c, 0, 64, 0
1, 317080, Note_on_c, 0, 68, 0
1, 317154, Note_on_c, 0, 74, 0
1, 318142, Control_c, 0, 64, 0
1, 318157, Note_on_c, 0, 84, 40
1, 318184, Note_on_c, 0, 72, 28
1, 318195, Note_on_c, 0, 41, 25
1, 318205, Note_on_c, 0, 48, 35
1, 318221, Note_on_c, 0, 57, 44
1, 318460, Control_c, 0, 64, 127
1, 318596, Note_on_c, 0, 41, 0
1, 318666, Note_on_c, 0, 48, 0
1, 318814, Note_on_c, 0, 57, 0
1, 319267, Note_on_c, 0, 72, 0
1, 319499, Note_on_c, 0, 64, 26
1, 319514, Note_on_c, 0, 60, 28
1, 319520, Note_on_c, 0, 57, 36
1, 319542, Note_on_c, 0, 53, 24
1, 319585, Note_on_c, 0, 84, 0
1, 320163, Marker_t, "More 'extreme' treble single note lines"
1, 320299, Note_on_c, 0, 64, 0
1, 320341, Note_on_c, 0, 60, 0
1, 320363, Note_on_c, 0, 57, 0
1, 320364, Note_on_c, 0, 103, 87
1, 320408, Note_on_c, 0, 53, 0
1, 320799, Note_on_c, 0, 96, 62
1, 320805, Note_on_c, 0, 60, 44
1, 320815, Note_on_c, 0, 57, 38
1, 320819, Note_on_c, 0, 53, 31
1, 320829, Note_on_c, 0, 50, 29
1, 320840, Control_c, 0, 64, 0
1, 320867, Note_on_c, 0, 103, 0
1, 321078, Note_on_c, 0, 96, 0
1, 321262, Note_on_c, 0, 96, 49
1, 321296, Control_c, 0, 64, 127
1, 321322, Note_on_c, 0, 96, 0
1, 321651, Note_on_c, 0, 100, 91
1, 321779, Note_on_c, 0, 60, 0
1, 321831, Note_on_c, 0, 53, 0
1, 321865, Note_on_c, 0, 57, 0
1, 322037, Control_c, 0, 64, 0
1, 322046, Note_on_c, 0, 57, 28
1, 322051, Note_on_c, 0, 60, 32
1, 322070, Note_on_c, 0, 100, 0
1, 322083, Note_on_c, 0, 53, 19
1, 322088, Note_on_c, 0, 93, 38
1, 322230, Control_c, 0, 64, 127
1, 322332, Note_on_c, 0, 93, 0
1, 322453, Note_on_c, 0, 60, 0
1, 322473, Note_on_c, 0, 57, 0
1, 322499, Note_on_c, 0, 93, 40
1, 322526, Note_on_c, 0, 53, 0
1, 322590, Note_on_c, 0, 93, 0
1, 322609, Note_on_c, 0, 50, 0
1, 322875, Note_on_c, 0, 96, 73
1, 323176, Control_c, 0, 64, 0
1, 323177, Note_on_c, 0, 96, 0
1, 323233, Note_on_c, 0, 50, 36
1, 323237, Note_on_c, 0, 43, 27
1, 323268, Note_on_c, 0, 94, 39
1, 323328, Note_on_c, 0, 43, 0
1, 323346, Note_on_c, 0, 50, 0
1, 323432, Note_on_c, 0, 94, 0
1, 323622, Note_on_c, 0, 86, 45
1, 323822, Note_on_c, 0, 86, 0
1, 323893, Control_c, 0, 64, 127
1, 324034, Note_on_c, 0, 86, 42
1, 324236, Note_on_c, 0, 86, 0
1, 324405, Control_c, 0, 64, 0
1, 324424, Note_on_c, 0, 86, 44
1, 324460, Note_on_c, 0, 58, 29
1, 324464, Note_on_c, 0, 62, 14
1, 324474, Note_on_c, 0, 53, 14
1, 324597, Note_on_c, 0, 58, 0
1, 324621, Control_c, 0, 64, 127
1, 324624, Note_on_c, 0, 62, 0
1, 324689, Note_on_c, 0, 53, 0
1, 324843, Note_on_c, 0, 96, 34
1, 324852, Note_on_c, 0, 86, 0
1, 325031, Note_on_c, 0, 96, 0
1, 325320, Note_on_c, 0, 82, 51
1, 325670, Control_c, 0, 64, 0
1, 325727, Note_on_c, 0, 36, 29
1, 325731, Note_on_c, 0, 52, 30
1, 325885, Control_c, 0, 64, 127
1, 325994, Note_on_c, 0, 36, 0
1, 326116, Note_on_c, 0, 82, 0
1, 326165, Note_on_c, 0, 96, 42
1, 326183, Note_on_c, 0, 52, 0
1, 326449, Note_on_c, 0, 96, 0
1, 327103, Note_on_c, 0, 64, 36
1, 327105, Note_on_c, 0, 61, 29
1, 327149, Note_on_c, 0, 58, 34
1, 327380, Note_on_c, 0, 64, 0
1, 327400, Note_on_c, 0, 61, 0
1, 327436, Note_on_c, 0, 58, 0
1, 327480, Note_on_c, 0, 98, 53
1, 327683, Note_on_c, 0, 99, 65
1, 327690, Note_on_c, 0, 98, 0
1, 327838, Note_on_c, 0, 99, 0
1, 327949, Note_on_c, 0, 100, 39
1, 328088, Note_on_c, 0, 100, 0
1, 328095, Note_on_c, 0, 101, 51
1, 328229, Note_on_c, 0, 102, 64
1, 328241, Note_on_c, 0, 101, 0
1, 328353, Note_on_c, 0, 102, 0
1, 328377, Note_on_c, 0, 103, 64
1, 328525, Control_c, 0, 64, 0
1, 328529, Note_on_c, 0, 41, 30
1, 328539, Note_on_c, 0, 48, 34
1, 328542, Note_on_c, 0, 105, 71
1, 328547, Note_on_c, 0, 57, 47
1, 328563, Note_on_c, 0, 103, 0
1, 328708, Note_on_c, 0, 105, 0
1, 328914, Note_on_c, 0, 100, 73
1, 329016, Control_c, 0, 64, 127
1, 329151, Note_on_c, 0, 41, 0
1, 329187, Note_on_c, 0, 100, 0
1, 329193, Note_on_c, 0, 48, 0
1, 329215, Note_on_c, 0, 96, 68
1, 329318, Note_on_c, 0, 57, 0
1, 329500, Note_on_c, 0, 96, 0
1, 329535, Note_on_c, 0, 93, 60
1, 329748, Note_on_c, 0, 64, 39
1, 329791, Note_on_c, 0, 60, 28
1, 329806, Note_on_c, 0, 57, 34
1, 329828, Note_on_c, 0, 53, 24
1, 329836, Control_c, 0, 64, 0
1, 329951, Control_c, 0, 64, 127
1, 330187, Note_on_c, 0, 64, 0
1, 330233, Note_on_c, 0, 60, 0
1, 330268, Note_on_c, 0, 57, 0
1, 330317, Note_on_c, 0, 53, 0
1, 331789, Note_on_c, 0, 48, 75
1, 331961, Note_on_c, 0, 48, 0
1, 332421, Note_on_c, 0, 93, 0
1, 332447, Note_on_c, 0, 55, 57
1, 332456, Control_c, 0, 64, 0
1, 332464, Note_on_c, 0, 49, 46
1, 332467, Note_on_c, 0, 45, 49
1, 332638, Control_c, 0, 64, 127
1, 332938, Note_on_c, 0, 105, 83
1, 332947, Note_on_c, 0, 93, 82
1, 333094, Note_on_c, 0, 45, 0
1, 333182, Note_on_c, 0, 49, 0
1, 333211, Note_on_c, 0, 55, 0
1, 333251, Note_on_c, 0, 105, 0
1, 333252, Note_on_c, 0, 93, 0
1, 333322, Note_on_c, 0, 101, 71
1, 333499, Note_on_c, 0, 101, 0
1, 333708, Control_c, 0, 64, 0
1, 333742, Note_on_c, 0, 103, 74
1, 333749, Note_on_c, 0, 100, 74
1, 333751, Note_on_c, 0, 60, 47
1, 333752, Note_on_c, 0, 57, 44
1, 333756, Note_on_c, 0, 91, 68
1, 333771, Note_on_c, 0, 53, 29
1, 333778, Note_on_c, 0, 50, 24
1, 333916, Control_c, 0, 64, 127
1, 333924, Note_on_c, 0, 100, 0
1, 333951, Note_on_c, 0, 103, 0
1, 334003, Note_on_c, 0, 91, 0
1, 334098, Marker_t, "Line harmonised with 6ths"
1, 334158, Note_on_c, 0, 102, 67
1, 334168, Note_on_c, 0, 90, 70
1, 334171, Note_on_c, 0, 99, 64
1, 334357, Note_on_c, 0, 99, 0
1, 334357, Note_on_c, 0, 90, 0
1, 334383, Note_on_c, 0, 102, 0
1, 334446, Note_on_c, 0, 60, 0
1, 334541, Note_on_c, 0, 101, 74
1, 334552, Note_on_c, 0, 89, 64
1, 334562, Note_on_c, 0, 57, 0
1, 334566, Note_on_c, 0, 98, 55
1, 334581, Note_on_c, 0, 53, 0
1, 334719, Note_on_c, 0, 98, 0
1, 334734, Note_on_c, 0, 101, 0
1, 334745, Note_on_c, 0, 89, 0
1, 334887, Note_on_c, 0, 100, 71
1, 334906, Note_on_c, 0, 88, 62
1, 334926, Note_on_c, 0, 96, 50
1, 335053, Note_on_c, 0, 88, 0
1, 335081, Note_on_c, 0, 96, 0
1, 335114, Note_on_c, 0, 57, 57
1, 335115, Note_on_c, 0, 100, 0
1, 335124, Note_on_c, 0, 60, 46
1, 335135, Note_on_c, 0, 53, 30
1, 335302, Note_on_c, 0, 101, 76
1, 335315, Note_on_c, 0, 89, 76
1, 335319, Note_on_c, 0, 98, 74
1, 335461, Note_on_c, 0, 60, 0
1, 335495, Note_on_c, 0, 98, 0
1, 335516, Note_on_c, 0, 89, 0
1, 335540, Note_on_c, 0, 101, 0
1, 335635, Note_on_c, 0, 100, 60
1, 335658, Note_on_c, 0, 96, 66
1, 335660, Note_on_c, 0, 88, 70
1, 335695, Note_on_c, 0, 57, 0
1, 335782, Note_on_c, 0, 96, 0
1, 335819, Note_on_c, 0, 100, 0
1, 335845, Note_on_c, 0, 50, 0
1, 335850, Note_on_c, 0, 88, 0
1, 335851, Note_on_c, 0, 53, 0
1, 335953, Note_on_c, 0, 98, 56
1, 335975, Note_on_c, 0, 86, 60
1, 335990, Note_on_c, 0, 95, 43
1, 336073, Note_on_c, 0, 95, 0
1, 336079, Note_on_c, 0, 86, 0
1, 336133, Note_on_c, 0, 98, 0
1, 336240, Note_on_c, 0, 100, 52
1, 336245, Note_on_c, 0, 98, 60
1, 336255, Note_on_c, 0, 88, 65
1, 336377, Note_on_c, 0, 88, 0
1, 336396, Note_on_c, 0, 98, 0
1, 336405, Note_on_c, 0, 100, 0
1, 336500, Control_c, 0, 64, 0
1, 336535, Note_on_c, 0, 100, 71
1, 336540, Note_on_c, 0, 46, 56
1, 336544, Note_on_c, 0, 56, 55
1, 336556, Note_on_c, 0, 96, 63
1, 336565, Note_on_c, 0, 88, 58
1, 336660, Control_c, 0, 64, 127
1, 336727, Note_on_c, 0, 46, 0
1, 336774, Note_on_c, 0, 56, 0
1, 336928, Note_on_c, 0, 100, 0
1, 336943, Note_on_c, 0, 88, 0
1, 336960, Note_on_c, 0, 96, 0
1, 337001, Note_on_c, 0, 56, 67
1, 337383, Note_on_c, 0, 62, 59
1, 337846, Note_on_c, 0, 79, 83
1, 337852, Note_on_c, 0, 76, 81
1, 337853, Note_on_c, 0, 72, 84
1, 337862, Note_on_c, 0, 67, 68
1, 338151, Note_on_c, 0, 79, 0
1, 338166, Note_on_c, 0, 67, 0
1, 338246, Note_on_c, 0, 76, 0
1, 338312, Note_on_c, 0, 77, 60
1, 338317, Note_on_c, 0, 65, 60
1, 338420, Note_on_c, 0, 65, 0
1, 338472, Note_on_c, 0, 62, 0
1, 338486, Note_on_c, 0, 77, 0
1, 338505, Note_on_c, 0, 56, 0
1, 338524, Note_on_c, 0, 72, 0
1, 338635, Note_on_c, 0, 76, 71
1, 338782, Note_on_c, 0, 76, 0
1, 338886, Note_on_c, 0, 46, 55
1, 338953, Note_on_c, 0, 74, 39
1, 338960, Note_on_c, 0, 72, 41
1, 339048, Note_on_c, 0, 74, 0
1, 339092, Note_on_c, 0, 72, 0
1, 339158, Note_on_c, 0, 46, 0
1, 339225, Note_on_c, 0, 72, 40
1, 339245, Control_c, 0, 64, 0
1, 339255, Note_on_c, 0, 45, 52
1, 339265, Note_on_c, 0, 55, 31
1, 339273, Note_on_c, 0, 60, 47
1, 339329, Note_on_c, 0, 67, 28
1, 339483, Control_c, 0, 64, 127
1, 339747, Note_on_c, 0, 67, 0
1, 339771, Note_on_c, 0, 55, 0
1, 339774, Note_on_c, 0, 52, 32
1, 340104, Note_on_c, 0, 60, 0
1, 340656, Note_on_c, 0, 64, 37
1, 340661, Note_on_c, 0, 60, 37
1, 340686, Note_on_c, 0, 55, 24
1, 340984, Note_on_c, 0, 55, 0
1, 341000, Note_on_c, 0, 52, 0
1, 341085, Note_on_c, 0, 45, 0
1, 341217, Note_on_c, 0, 72, 0
1, 341337, Note_on_c, 0, 64, 0
1, 341483, Note_on_c, 0, 60, 0
1, 342122, Note_on_c, 0, 60, 37
1, 342134, Note_on_c, 0, 63, 35
1, 342155, Note_on_c, 0, 50, 24
1, 342160, Control_c, 0, 64, 0
1, 342354, Control_c, 0, 64, 127
1, 342994, Note_on_c, 0, 50, 0
1, 343091, Note_on_c, 0, 60, 0
1, 343196, Note_on_c, 0, 63, 0
1, 343902, Control_c, 0, 64, 0
1, 343930, Note_on_c, 0, 63, 48
1, 343932, Note_on_c, 0, 69, 48
1, 343948, Note_on_c, 0, 54, 36
1, 343950, Note_on_c, 0, 59, 36
1, 343958, Note_on_c, 0, 44, 32
1, 344118, Control_c, 0, 64, 127
1, 344195, Note_on_c, 0, 59, 0
1, 344236, Note_on_c, 0, 69, 0
1, 344325, Note_on_c, 0, 65, 41
1, 344352, Note_on_c, 0, 63, 0
1, 344356, Note_on_c, 0, 54, 0
1, 344407, Note_on_c, 0, 44, 0
1, 344418, Note_on_c, 0, 65, 0
1, 344447, Control_c, 0, 64, 127
1, 344971, Control_c, 0, 64, 0
1, 345004, Note_on_c, 0, 77, 66
1, 345007, Note_on_c, 0, 43, 32
1, 345013, Note_on_c, 0, 65, 60
1, 345016, Note_on_c, 0, 70, 56
1, 345027, Control_c, 0, 64, 0
1, 345072, Note_on_c, 0, 65, 0
1, 345084, Note_on_c, 0, 70, 0
1, 345109, Control_c, 0, 64, 127
1, 345239, Note_on_c, 0, 43, 0
1, 345241, Note_on_c, 0, 77, 0
1, 345791, Note_on_c, 0, 89, 67
1, 345804, Note_on_c, 0, 65, 40
1, 345805, Note_on_c, 0, 77, 54
1, 346141, Note_on_c, 0, 77, 0
1, 346146, Note_on_c, 0, 65, 0
1, 346156, Note_on_c, 0, 89, 0
1, 346528, Note_on_c, 0, 89, 56
1, 346531, Note_on_c, 0, 65, 30
1, 346550, Note_on_c, 0, 77, 39
1, 346805, Note_on_c, 0, 65, 0
1, 346867, Note_on_c, 0, 77, 0
1, 346873, Note_on_c, 0, 89, 0
1, 347281, Note_on_c, 0, 65, 32
1, 347301, Note_on_c, 0, 89, 46
1, 347328, Note_on_c, 0, 77, 32
1, 347398, Note_on_c, 0, 65, 0
1, 347422, Note_on_c, 0, 89, 0
1, 347441, Control_c, 0, 64, 127
1, 347485, Note_on_c, 0, 77, 0
1, 348157, Note_on_c, 0, 77, 36
1, 348178, Note_on_c, 0, 70, 36
1, 348179, Note_on_c, 0, 74, 37
1, 348184, Note_on_c, 0, 65, 34
1, 348198, Note_on_c, 0, 58, 31
1, 348216, Control_c, 0, 64, 0
1, 348229, Note_on_c, 0, 48, 22
1, 348251, Control_c, 0, 64, 127
1, 348453, Control_c, 0, 64, 0
1, 348591, Control_c, 0, 64, 127
1, 348638, Note_on_c, 0, 77, 0
1, 348639, Note_on_c, 0, 58, 0
1, 349003, Note_on_c, 0, 77, 46
1, 349046, Note_on_c, 0, 58, 34
1, 349337, Note_on_c, 0, 58, 0
1, 349547, Note_on_c, 0, 65, 0
1, 349562, Note_on_c, 0, 74, 0
1, 349594, Note_on_c, 0, 70, 0
1, 349624, Note_on_c, 0, 77, 0
1, 349835, Note_on_c, 0, 77, 34
1, 349857, Note_on_c, 0, 70, 30
1, 349880, Note_on_c, 0, 65, 19
1, 349882, Note_on_c, 0, 58, 25
1, 349895, Note_on_c, 0, 74, 24
1, 350195, Note_on_c, 0, 77, 0
1, 350262, Note_on_c, 0, 48, 0
1, 350614, Note_on_c, 0, 77, 37
1, 350616, Note_on_c, 0, 48, 33
1, 350712, Note_on_c, 0, 74, 0
1, 350764, Note_on_c, 0, 58, 0
1, 350941, Note_on_c, 0, 65, 0
1, 350999, Note_on_c, 0, 77, 0
1, 351022, Note_on_c, 0, 70, 0
1, 351214, Marker_t, "Use of pedal tone on chords in 2 bar turn-around"
1, 351406, Control_c, 0, 64, 0
1, 351457, Note_on_c, 0, 77, 57
1, 351470, Note_on_c, 0, 72, 44
1, 351474, Note_on_c, 0, 69, 37
1, 351477, Note_on_c, 0, 57, 42
1, 351487, Note_on_c, 0, 67, 40
1, 351565, Control_c, 0, 64, 127
1, 351734, Note_on_c, 0, 77, 0
1, 351958, Note_on_c, 0, 48, 0
1, 352085, Note_on_c, 0, 67, 0
1, 352120, Note_on_c, 0, 77, 65
1, 352125, Note_on_c, 0, 48, 50
1, 352391, Note_on_c, 0, 57, 0
1, 352462, Note_on_c, 0, 77, 0
1, 352473, Note_on_c, 0, 72, 0
1, 352490, Note_on_c, 0, 69, 0
1, 352519, Control_c, 0, 64, 0
1, 352685, Note_on_c, 0, 77, 61
1, 352688, Note_on_c, 0, 69, 50
1, 352697, Note_on_c, 0, 72, 45
1, 352709, Note_on_c, 0, 67, 49
1, 352928, Note_on_c, 0, 77, 0
1, 353090, Note_on_c, 0, 48, 0
1, 353189, Note_on_c, 0, 67, 0
1, 353227, Note_on_c, 0, 72, 0
1, 353246, Note_on_c, 0, 77, 68
1, 353277, Note_on_c, 0, 48, 49
1, 353278, Note_on_c, 0, 69, 0
1, 353445, Note_on_c, 0, 77, 0
1, 353486, Control_c, 0, 64, 127
1, 353817, Note_on_c, 0, 77, 63
1, 353831, Control_c, 0, 64, 0
1, 353833, Note_on_c, 0, 66, 68
1, 353837, Note_on_c, 0, 70, 62
1, 353842, Note_on_c, 0, 72, 54
1, 353847, Note_on_c, 0, 60, 47
1, 353866, Note_on_c, 0, 75, 32
1, 353987, Control_c, 0, 64, 0
1, 354093, Control_c, 0, 64, 127
1, 354269, Note_on_c, 0, 77, 0
1, 354290, Note_on_c, 0, 48, 0
1, 354438, Note_on_c, 0, 77, 55
1, 354472, Note_on_c, 0, 48, 47
1, 354925, Note_on_c, 0, 60, 0
1, 354937, Note_on_c, 0, 77, 0
1, 355027, Note_on_c, 0, 66, 0
1, 355066, Note_on_c, 0, 75, 0
1, 355094, Note_on_c, 0, 48, 0
1, 355127, Note_on_c, 0, 77, 45
1, 355173, Note_on_c, 0, 48, 65
1, 355643, Note_on_c, 0, 77, 0
1, 355813, Note_on_c, 0, 72, 0
1, 355833, Note_on_c, 0, 77, 47
1, 355846, Note_on_c, 0, 60, 42
1, 356088, Note_on_c, 0, 70, 0
1, 356160, Note_on_c, 0, 60, 0
1, 356286, Note_on_c, 0, 77, 0
1, 356518, Control_c, 0, 64, 0
1, 356555, Note_on_c, 0, 73, 38
1, 356562, Note_on_c, 0, 77, 46
1, 356565, Note_on_c, 0, 60, 35
1, 356572, Note_on_c, 0, 68, 36
1, 356689, Control_c, 0, 64, 127
1, 356850, Note_on_c, 0, 48, 0
1, 357188, Note_on_c, 0, 77, 0
1, 357233, Note_on_c, 0, 48, 38
1, 357446, Note_on_c, 0, 60, 0
1, 357523, Note_on_c, 0, 68, 0
1, 357541, Note_on_c, 0, 73, 0
1, 357933, Note_on_c, 0, 73, 26
1, 357936, Note_on_c, 0, 68, 34
1, 357940, Note_on_c, 0, 65, 30
1, 357947, Note_on_c, 0, 60, 28
1, 358245, Note_on_c, 0, 48, 0
1, 358636, Note_on_c, 0, 48, 40
1, 358718, Note_on_c, 0, 60, 0
1, 358841, Control_c, 0, 64, 0
1, 358937, Note_on_c, 0, 68, 0
1, 358957, Note_on_c, 0, 73, 0
1, 359016, Note_on_c, 0, 65, 0
1, 359046, Control_c, 0, 64, 127
1, 359437, Note_on_c, 0, 70, 43
1, 359451, Note_on_c, 0, 62, 29
1, 359454, Note_on_c, 0, 72, 37
1, 359464, Note_on_c, 0, 65, 32
1, 359476, Note_on_c, 0, 58, 32
1, 360337, Control_c, 0, 64, 0
1, 361216, Note_on_c, 0, 58, 0
1, 361233, Note_on_c, 0, 62, 0
1, 361239, Note_on_c, 0, 65, 0
1, 361290, Note_on_c, 0, 48, 0
1, 361362, Note_on_c, 0, 72, 0
1, 361375, Note_on_c, 0, 70, 0
1, 361426, Note_on_c, 0, 98, 58
1, 361665, Note_on_c, 0, 98, 0
1, 361693, Note_on_c, 0, 96, 47
1, 361701, Note_on_c, 0, 41, 27
1, 361715, Note_on_c, 0, 48, 30
1, 361734, Note_on_c, 0, 57, 28
1, 361742, Control_c, 0, 64, 127
1, 361874, Note_on_c, 0, 41, 0
1, 361888, Note_on_c, 0, 48, 0
1, 361999, Note_on_c, 0, 57, 0
1, 362324, Note_on_c, 0, 67, 33
1, 362332, Note_on_c, 0, 65, 37
1, 362378, Note_on_c, 0, 67, 0
1, 362423, Note_on_c, 0, 65, 0
1, 362608, Control_c, 0, 64, 0
1, 362619, Control_c, 0, 64, 127
1, 363216, Note_on_c, 0, 65, 51
1, 363225, Note_on_c, 0, 61, 30
1, 363233, Note_on_c, 0, 60, 34
1, 363237, Note_on_c, 0, 55, 26
1, 363360, Note_on_c, 0, 60, 0
1, 363412, Note_on_c, 0, 55, 0
1, 363446, Note_on_c, 0, 65, 0
1, 363521, Note_on_c, 0, 61, 0
1, 363564, Control_c, 0, 64, 0
1, 363601, Note_on_c, 0, 64, 50
1, 363602, Note_on_c, 0, 54, 45
1, 363610, Note_on_c, 0, 60, 33
1, 363736, Control_c, 0, 64, 127
1, 363921, Note_on_c, 0, 64, 0
1, 363931, Note_on_c, 0, 60, 0
1, 363978, Note_on_c, 0, 54, 0
1, 364443, Note_on_c, 0, 96, 0
1, 364535, Note_on_c, 0, 60, 25
1, 364540, Note_on_c, 0, 54, 35
1, 364557, Note_on_c, 0, 50, 22
1, 364579, Control_c, 0, 64, 0
1, 364690, Note_on_c, 0, 54, 0
1, 364697, Note_on_c, 0, 60, 0
1, 364720, Note_on_c, 0, 50, 0
1, 364863, Note_on_c, 0, 93, 56
1, 364898, Control_c, 0, 64, 127
1, 365045, Note_on_c, 0, 93, 0
1, 365111, Note_on_c, 0, 89, 45
1, 365222, Note_on_c, 0, 89, 0
1, 365388, Control_c, 0, 64, 0
1, 365401, Note_on_c, 0, 43, 30
1, 365462, Note_on_c, 0, 92, 52
1, 365581, Note_on_c, 0, 93, 70
1, 365607, Note_on_c, 0, 92, 0
1, 365673, Note_on_c, 0, 43, 0
1, 365732, Note_on_c, 0, 93, 0
1, 365785, Control_c, 0, 64, 127
1, 365963, Note_on_c, 0, 93, 66
1, 366227, Note_on_c, 0, 93, 0
1, 366311, Note_on_c, 0, 92, 45
1, 366322, Control_c, 0, 64, 0
1, 366341, Note_on_c, 0, 62, 24
1, 366348, Note_on_c, 0, 58, 35
1, 366365, Note_on_c, 0, 53, 19
1, 366367, Note_on_c, 0, 57, 20
1, 366418, Note_on_c, 0, 93, 44
1, 366420, Note_on_c, 0, 57, 0
1, 366425, Note_on_c, 0, 62, 0
1, 366451, Note_on_c, 0, 58, 0
1, 366476, Note_on_c, 0, 53, 0
1, 366494, Note_on_c, 0, 92, 0
1, 366608, Control_c, 0, 64, 127
1, 366613, Note_on_c, 0, 93, 0
1, 366650, Note_on_c, 0, 91, 56
1, 366746, Note_on_c, 0, 91, 0
1, 367211, Note_on_c, 0, 36, 29
1, 367234, Note_on_c, 0, 52, 27
1, 367236, Control_c, 0, 64, 0
1, 367347, Note_on_c, 0, 36, 0
1, 367360, Control_c, 0, 64, 127
1, 367463, Note_on_c, 0, 52, 0
1, 368096, Note_on_c, 0, 61, 43
1, 368104, Note_on_c, 0, 58, 45
1, 368105, Note_on_c, 0, 64, 34
1, 368157, Control_c, 0, 64, 0
1, 368339, Control_c, 0, 64, 127
1, 368626, Note_on_c, 0, 61, 0
1, 368682, Note_on_c, 0, 64, 0
1, 368726, Note_on_c, 0, 58, 0
1, 368954, Control_c, 0, 64, 0
1, 368992, Note_on_c, 0, 64, 38
1, 369024, Note_on_c, 0, 57, 29
1, 369032, Note_on_c, 0, 60, 35
1, 369137, Control_c, 0, 64, 127
1, 369189, Note_on_c, 0, 60, 0
1, 369192, Note_on_c, 0, 64, 0
1, 369267, Note_on_c, 0, 57, 0
1, 369618, Note_on_c, 0, 96, 91
1, 369833, Note_on_c, 0, 96, 0
1, 369909, Note_on_c, 0, 41, 22
1, 369934, Control_c, 0, 64, 0
1, 369935, Note_on_c, 0, 84, 51
1, 369953, Note_on_c, 0, 57, 36
1, 370039, Note_on_c, 0, 84, 0
1, 370100, Note_on_c, 0, 41, 0
1, 370138, Control_c, 0, 64, 127
1, 370221, Note_on_c, 0, 84, 37
1, 370284, Note_on_c, 0, 57, 0
1, 370407, Note_on_c, 0, 84, 0
1, 370538, Note_on_c, 0, 96, 83
1, 370727, Note_on_c, 0, 96, 0
1, 370834, Control_c, 0, 64, 0
1, 370850, Note_on_c, 0, 45, 46
1, 370853, Note_on_c, 0, 96, 66
1, 370869, Note_on_c, 0, 55, 28
1, 371011, Note_on_c, 0, 45, 0
1, 371037, Control_c, 0, 64, 127
1, 371135, Note_on_c, 0, 86, 56
1, 371167, Note_on_c, 0, 55, 0
1, 371321, Note_on_c, 0, 86, 0
1, 371365, Note_on_c, 0, 96, 0
1, 371462, Note_on_c, 0, 86, 58
1, 371779, Note_on_c, 0, 60, 30
1, 371796, Note_on_c, 0, 53, 29
1, 371797, Note_on_c, 0, 57, 34
1, 371800, Control_c, 0, 64, 0
1, 371817, Note_on_c, 0, 50, 17
1, 371952, Note_on_c, 0, 57, 0
1, 371972, Control_c, 0, 64, 127
1, 371992, Note_on_c, 0, 60, 0
1, 372007, Note_on_c, 0, 53, 0
1, 372078, Note_on_c, 0, 50, 0
1, 372372, Note_on_c, 0, 50, 33
1, 372665, Note_on_c, 0, 50, 0
1, 372679, Control_c, 0, 64, 0
1, 372729, Note_on_c, 0, 43, 38
1, 372849, Control_c, 0, 64, 127
1, 372868, Note_on_c, 0, 43, 0
1, 373172, Note_on_c, 0, 86, 0
1, 373344, Note_on_c, 0, 96, 88
1, 373645, Control_c, 0, 64, 0
1, 373662, Note_on_c, 0, 57, 41
1, 373670, Note_on_c, 0, 62, 30
1, 373681, Note_on_c, 0, 87, 75
1, 373688, Note_on_c, 0, 58, 49
1, 373805, Control_c, 0, 64, 127
1, 373876, Note_on_c, 0, 87, 0
1, 373943, Note_on_c, 0, 96, 0
1, 373946, Note_on_c, 0, 62, 0
1, 373979, Note_on_c, 0, 57, 0
1, 374007, Note_on_c, 0, 58, 0
1, 374010, Note_on_c, 0, 87, 44
1, 374222, Note_on_c, 0, 87, 0
1, 374319, Note_on_c, 0, 88, 77
1, 374500, Control_c, 0, 64, 0
1, 374534, Note_on_c, 0, 58, 44
1, 374554, Note_on_c, 0, 88, 0
1, 374590, Note_on_c, 0, 48, 20
1, 374651, Note_on_c, 0, 88, 52
1, 374750, Control_c, 0, 64, 127
1, 374837, Note_on_c, 0, 48, 0
1, 374902, Note_on_c, 0, 88, 0
1, 374949, Note_on_c, 0, 89, 68
1, 374953, Note_on_c, 0, 58, 0
1, 375145, Note_on_c, 0, 89, 0
1, 375193, Note_on_c, 0, 90, 69
1, 375345, Note_on_c, 0, 90, 0
1, 375353, Note_on_c, 0, 91, 70
1, 375449, Note_on_c, 0, 58, 37
1, 375456, Control_c, 0, 64, 0
1, 375462, Note_on_c, 0, 52, 31
1, 375473, Note_on_c, 0, 62, 17
1, 375477, Note_on_c, 0, 91, 0
1, 375491, Note_on_c, 0, 92, 62
1, 375553, Note_on_c, 0, 62, 0
1, 375582, Note_on_c, 0, 58, 0
1, 375615, Note_on_c, 0, 92, 0
1, 375624, Note_on_c, 0, 52, 0
1, 375638, Control_c, 0, 64, 127
1, 375662, Note_on_c, 0, 93, 60
1, 375790, Note_on_c, 0, 93, 0
1, 375813, Note_on_c, 0, 94, 57
1, 375915, Note_on_c, 0, 94, 0
1, 375968, Note_on_c, 0, 95, 64
1, 376064, Note_on_c, 0, 95, 0
1, 376159, Note_on_c, 0, 97, 49
1, 376298, Note_on_c, 0, 97, 0
1, 376343, Note_on_c, 0, 99, 56
1, 376475, Note_on_c, 0, 99, 0
1, 376481, Control_c, 0, 64, 0
1, 376482, Note_on_c, 0, 100, 53
1, 376534, Note_on_c, 0, 45, 37
1, 376546, Note_on_c, 0, 55, 24
1, 376719, Control_c, 0, 64, 127
1, 376728, Note_on_c, 0, 96, 63
1, 376798, Note_on_c, 0, 45, 0
1, 376878, Note_on_c, 0, 55, 0
1, 376893, Note_on_c, 0, 96, 0
1, 376923, Note_on_c, 0, 100, 0
1, 377490, Note_on_c, 0, 65, 48
1, 377502, Note_on_c, 0, 60, 38
1, 377503, Note_on_c, 0, 61, 42
1, 377507, Control_c, 0, 64, 0
1, 377512, Note_on_c, 0, 55, 27
1, 377619, Control_c, 0, 64, 127
1, 378109, Note_on_c, 0, 55, 0
1, 378167, Note_on_c, 0, 60, 0
1, 378188, Note_on_c, 0, 65, 0
1, 378198, Note_on_c, 0, 96, 75
1, 378200, Note_on_c, 0, 89, 77
1, 378317, Note_on_c, 0, 61, 0
1, 378464, Control_c, 0, 64, 0
1, 378505, Note_on_c, 0, 96, 0
1, 378514, Note_on_c, 0, 64, 44
1, 378537, Note_on_c, 0, 54, 33
1, 378544, Note_on_c, 0, 93, 57
1, 378547, Note_on_c, 0, 60, 30
1, 378574, Note_on_c, 0, 84, 30
1, 378647, Control_c, 0, 64, 127
1, 378822, Note_on_c, 0, 93, 0
1, 378840, Note_on_c, 0, 64, 0
1, 378847, Note_on_c, 0, 60, 0
1, 378866, Note_on_c, 0, 89, 0
1, 378914, Note_on_c, 0, 54, 0
1, 378915, Note_on_c, 0, 84, 0
1, 379172, Note_on_c, 0, 93, 66
1, 379181, Note_on_c, 0, 81, 51
1, 379409, Control_c, 0, 64, 0
1, 379462, Note_on_c, 0, 60, 30
1, 379471, Note_on_c, 0, 54, 30
1, 379487, Note_on_c, 0, 50, 22
1, 379557, Note_on_c, 0, 60, 0
1, 379590, Note_on_c, 0, 50, 0
1, 379599, Note_on_c, 0, 54, 0
1, 379603, Control_c, 0, 64, 127
1, 379724, Note_on_c, 0, 81, 0
1, 379777, Note_on_c, 0, 89, 54
1, 379781, Note_on_c, 0, 93, 0
1, 379842, Control_c, 0, 64, 0
1, 379960, Note_on_c, 0, 89, 0
1, 379968, Control_c, 0, 64, 127
1, 380078, Note_on_c, 0, 86, 49
1, 380105, Note_on_c, 0, 50, 25
1, 380132, Note_on_c, 0, 86, 0
1, 380333, Control_c, 0, 64, 0
1, 380411, Note_on_c, 0, 92, 43
1, 380416, Note_on_c, 0, 50, 0
1, 380422, Note_on_c, 0, 80, 55
1, 380432, Note_on_c, 0, 43, 24
1, 380467, Note_on_c, 0, 86, 25
1, 380531, Note_on_c, 0, 86, 0
1, 380548, Note_on_c, 0, 92, 0
1, 380557, Note_on_c, 0, 43, 0
1, 380583, Control_c, 0, 64, 127
1, 380598, Note_on_c, 0, 80, 0
1, 380607, Note_on_c, 0, 81, 48
1, 380617, Control_c, 0, 64, 0
1, 380748, Note_on_c, 0, 81, 0
1, 380758, Note_on_c, 0, 93, 38
1, 380823, Control_c, 0, 64, 127
1, 380873, Note_on_c, 0, 93, 0
1, 380898, Note_on_c, 0, 81, 38
1, 381028, Note_on_c, 0, 93, 40
1, 381029, Note_on_c, 0, 81, 0
1, 381144, Note_on_c, 0, 93, 0
1, 381167, Note_on_c, 0, 81, 43
1, 381312, Note_on_c, 0, 81, 0
1, 381314, Note_on_c, 0, 93, 40
1, 381322, Control_c, 0, 64, 0
1, 381344, Note_on_c, 0, 62, 24
1, 381359, Note_on_c, 0, 57, 29
1, 381376, Note_on_c, 0, 58, 42
1, 381444, Note_on_c, 0, 81, 32
1, 381456, Note_on_c, 0, 93, 0
1, 381606, Note_on_c, 0, 81, 0
1, 381630, Control_c, 0, 64, 127
1, 381693, Note_on_c, 0, 91, 42
1, 381729, Note_on_c, 0, 79, 36
1, 381840, Note_on_c, 0, 79, 0
1, 381895, Note_on_c, 0, 91, 0
1, 381899, Note_on_c, 0, 57, 0
1, 381909, Note_on_c, 0, 62, 0
1, 381927, Note_on_c, 0, 58, 0
1, 382198, Control_c, 0, 64, 0
1, 382230, Note_on_c, 0, 62, 28
1, 382253, Note_on_c, 0, 58, 37
1, 382257, Note_on_c, 0, 52, 24
1, 382393, Control_c, 0, 64, 127
1, 382562, Note_on_c, 0, 52, 0
1, 382600, Note_on_c, 0, 58, 0
1, 382648, Note_on_c, 0, 62, 0
1, 383168, Note_on_c, 0, 61, 33
1, 383176, Note_on_c, 0, 64, 33
1, 383191, Control_c, 0, 64, 0
1, 383192, Note_on_c, 0, 58, 49
1, 383192, Note_on_c, 0, 55, 33
1, 383429, Control_c, 0, 64, 127
1, 383515, Note_on_c, 0, 91, 101
1, 383579, Note_on_c, 0, 64, 0
1, 383614, Note_on_c, 0, 58, 0
1, 383618, Note_on_c, 0, 61, 0
1, 383635, Note_on_c, 0, 55, 0
1, 383705, Note_on_c, 0, 91, 0
1, 383832, Note_on_c, 0, 93, 99
1, 384001, Note_on_c, 0, 93, 0
1, 384101, Control_c, 0, 64, 0
1, 384116, Note_on_c, 0, 57, 40
1, 384127, Note_on_c, 0, 89, 74
1, 384128, Note_on_c, 0, 60, 33
1, 384139, Note_on_c, 0, 53, 26
1, 384156, Note_on_c, 0, 50, 22
1, 384278, Note_on_c, 0, 91, 51
1, 384290, Note_on_c, 0, 89, 0
1, 384423, Note_on_c, 0, 89, 41
1, 384436, Note_on_c, 0, 91, 0
1, 384549, Note_on_c, 0, 88, 53
1, 384552, Note_on_c, 0, 89, 0
1, 384694, Note_on_c, 0, 88, 0
1, 384716, Control_c, 0, 64, 127
1, 384787, Note_on_c, 0, 89, 67
1, 384789, Note_on_c, 0, 60, 0
1, 384812, Note_on_c, 0, 57, 0
1, 384919, Note_on_c, 0, 89, 0
1, 384978, Control_c, 0, 64, 0
1, 385026, Note_on_c, 0, 57, 44
1, 385029, Note_on_c, 0, 93, 79
1, 385044, Note_on_c, 0, 60, 29
1, 385171, Note_on_c, 0, 93, 0
1, 385218, Control_c, 0, 64, 127
1, 385246, Note_on_c, 0, 57, 0
1, 385258, Note_on_c, 0, 60, 0
1, 385286, Note_on_c, 0, 97, 70
1, 385297, Note_on_c, 0, 53, 0
1, 385340, Note_on_c, 0, 50, 0
1, 385452, Note_on_c, 0, 97, 0
1, 385517, Note_on_c, 0, 100, 74
1, 385668, Note_on_c, 0, 100, 0
1, 385741, Note_on_c, 0, 103, 81
1, 385945, Control_c, 0, 64, 0
1, 385957, Note_on_c, 0, 100, 61
1, 385969, Note_on_c, 0, 43, 31
1, 385982, Note_on_c, 0, 103, 0
1, 386140, Note_on_c, 0, 100, 0
1, 386197, Control_c, 0, 64, 127
1, 386199, Note_on_c, 0, 101, 73
1, 386273, Note_on_c, 0, 43, 0
1, 386411, Note_on_c, 0, 101, 0
1, 386445, Note_on_c, 0, 97, 63
1, 386612, Note_on_c, 0, 97, 0
1, 386930, Note_on_c, 0, 64, 46
1, 386948, Control_c, 0, 64, 0
1, 386951, Note_on_c, 0, 97, 68
1, 386954, Note_on_c, 0, 53, 26
1, 386957, Note_on_c, 0, 59, 36
1, 387130, Control_c, 0, 64, 127
1, 387458, Note_on_c, 0, 97, 0
1, 387534, Note_on_c, 0, 59, 0
1, 387574, Note_on_c, 0, 64, 0
1, 387583, Note_on_c, 0, 98, 71
1, 387725, Note_on_c, 0, 53, 0
1, 387860, Note_on_c, 0, 98, 0
1, 387904, Control_c, 0, 64, 0
1, 387926, Note_on_c, 0, 62, 26
1, 387932, Note_on_c, 0, 57, 24
1, 387942, Note_on_c, 0, 58, 52
1, 387965, Note_on_c, 0, 100, 74
1, 388132, Control_c, 0, 64, 127
1, 388236, Note_on_c, 0, 62, 0
1, 388269, Note_on_c, 0, 57, 0
1, 388279, Note_on_c, 0, 58, 0
1, 388451, Note_on_c, 0, 100, 0
1, 388554, Note_on_c, 0, 101, 67
1, 388865, Note_on_c, 0, 101, 0
1, 388884, Control_c, 0, 64, 0
1, 388886, Note_on_c, 0, 43, 28
1, 388911, Note_on_c, 0, 98, 58
1, 388915, Note_on_c, 0, 53, 20
1, 389018, Note_on_c, 0, 43, 0
1, 389065, Control_c, 0, 64, 127
1, 389203, Note_on_c, 0, 53, 0
1, 389490, Note_on_c, 0, 98, 0
1, 389548, Note_on_c, 0, 100, 59
1, 389828, Control_c, 0, 64, 0
1, 389864, Note_on_c, 0, 100, 0
1, 389876, Note_on_c, 0, 36, 26
1, 389884, Note_on_c, 0, 52, 27
1, 389886, Note_on_c, 0, 97, 39
1, 390008, Note_on_c, 0, 36, 0
1, 390056, Control_c, 0, 64, 127
1, 390159, Note_on_c, 0, 52, 0
1, 390479, Note_on_c, 0, 97, 0
1, 390534, Note_on_c, 0, 99, 46
1, 390831, Control_c, 0, 64, 0
1, 390848, Note_on_c, 0, 64, 51
1, 390850, Note_on_c, 0, 61, 42
1, 390873, Note_on_c, 0, 58, 37
1, 390899, Note_on_c, 0, 64, 0
1, 390957, Note_on_c, 0, 61, 0
1, 390969, Note_on_c, 0, 58, 0
1, 391184, Control_c, 0, 64, 127
1, 391242, Note_on_c, 0, 95, 30
1, 391285, Note_on_c, 0, 99, 0
1, 391438, Note_on_c, 0, 95, 0
1, 391511, Note_on_c, 0, 97, 58
1, 391542, Marker_t, "Phrases here are chords (sometimes with upper neighbors) arpeggiated downwards"
1, 391719, Note_on_c, 0, 97, 0
1, 391787, Control_c, 0, 64, 0
1, 391822, Note_on_c, 0, 41, 29
1, 391832, Note_on_c, 0, 57, 35
1, 391839, Note_on_c, 0, 96, 46
1, 391966, Note_on_c, 0, 96, 0
1, 391981, Note_on_c, 0, 41, 0
1, 392088, Note_on_c, 0, 57, 0
1, 392151, Note_on_c, 0, 93, 48
1, 392231, Control_c, 0, 64, 127
1, 392252, Note_on_c, 0, 93, 0
1, 392443, Note_on_c, 0, 89, 40
1, 392557, Note_on_c, 0, 89, 0
1, 392731, Note_on_c, 0, 84, 35
1, 392749, Note_on_c, 0, 64, 30
1, 392766, Control_c, 0, 64, 0
1, 392771, Note_on_c, 0, 57, 36
1, 392777, Note_on_c, 0, 60, 24
1, 392948, Note_on_c, 0, 84, 0
1, 392960, Control_c, 0, 64, 127
1, 393012, Note_on_c, 0, 64, 0
1, 393053, Note_on_c, 0, 79, 42
1, 393238, Note_on_c, 0, 60, 0
1, 393245, Note_on_c, 0, 79, 0
1, 393250, Note_on_c, 0, 57, 0
1, 393678, Control_c, 0, 64, 0
1, 393706, Note_on_c, 0, 57, 36
1, 393708, Note_on_c, 0, 60, 41
1, 393717, Note_on_c, 0, 100, 88
1, 393726, Note_on_c, 0, 53, 26
1, 393730, Note_on_c, 0, 50, 24
1, 393939, Note_on_c, 0, 60, 0
1, 393948, Note_on_c, 0, 96, 57
1, 393955, Note_on_c, 0, 100, 0
1, 393984, Control_c, 0, 64, 127
1, 394106, Note_on_c, 0, 96, 0
1, 394121, Note_on_c, 0, 93, 58
1, 394216, Note_on_c, 0, 93, 0
1, 394255, Note_on_c, 0, 89, 41
1, 394302, Note_on_c, 0, 57, 0
1, 394321, Note_on_c, 0, 89, 0
1, 394409, Note_on_c, 0, 88, 48
1, 394549, Note_on_c, 0, 88, 0
1, 394611, Control_c, 0, 64, 0
1, 394644, Note_on_c, 0, 57, 34
1, 394661, Note_on_c, 0, 60, 39
1, 394816, Control_c, 0, 64, 127
1, 395073, Note_on_c, 0, 57, 0
1, 395077, Note_on_c, 0, 53, 0
1, 395093, Note_on_c, 0, 50, 0
1, 395158, Note_on_c, 0, 60, 0
1, 395601, Control_c, 0, 64, 0
1, 395639, Note_on_c, 0, 62, 24
1, 395649, Note_on_c, 0, 58, 36
1, 395661, Note_on_c, 0, 57, 32
1, 395671, Note_on_c, 0, 53, 19
1, 395795, Control_c, 0, 64, 127
1, 395943, Note_on_c, 0, 62, 0
1, 395976, Note_on_c, 0, 58, 0
1, 395977, Note_on_c, 0, 57, 0
1, 396046, Note_on_c, 0, 53, 0
1, 396118, Note_on_c, 0, 105, 85
1, 396310, Note_on_c, 0, 105, 0
1, 396379, Note_on_c, 0, 101, 68
1, 396570, Control_c, 0, 64, 0
1, 396654, Note_on_c, 0, 43, 30
1, 396665, Note_on_c, 0, 53, 30
1, 396682, Note_on_c, 0, 98, 62
1, 396786, Control_c, 0, 64, 127
1, 396878, Note_on_c, 0, 43, 0
1, 396889, Note_on_c, 0, 101, 0
1, 396908, Note_on_c, 0, 98, 0
1, 396956, Note_on_c, 0, 93, 47
1, 396979, Note_on_c, 0, 53, 0
1, 397071, Note_on_c, 0, 93, 0
1, 397184, Note_on_c, 0, 91, 38
1, 397350, Note_on_c, 0, 91, 0
1, 397398, Note_on_c, 0, 88, 51
1, 397579, Note_on_c, 0, 88, 0
1, 397634, Note_on_c, 0, 99, 70
1, 397640, Control_c, 0, 64, 0
1, 397651, Note_on_c, 0, 63, 38
1, 397664, Note_on_c, 0, 58, 48
1, 397710, Note_on_c, 0, 52, 18
1, 397800, Note_on_c, 0, 99, 0
1, 397857, Control_c, 0, 64, 127
1, 397863, Note_on_c, 0, 97, 63
1, 397882, Note_on_c, 0, 63, 0
1, 397894, Note_on_c, 0, 52, 0
1, 397960, Note_on_c, 0, 58, 0
1, 398053, Note_on_c, 0, 97, 0
1, 398057, Note_on_c, 0, 94, 57
1, 398177, Note_on_c, 0, 94, 0
1, 398203, Note_on_c, 0, 88, 47
1, 398244, Marker_t, "Descending 'altered' scale on C7"
1, 398314, Note_on_c, 0, 88, 0
1, 398369, Note_on_c, 0, 87, 46
1, 398493, Control_c, 0, 64, 0
1, 398516, Note_on_c, 0, 85, 33
1, 398543, Note_on_c, 0, 58, 29
1, 398559, Note_on_c, 0, 87, 0
1, 398581, Note_on_c, 0, 48, 24
1, 398635, Note_on_c, 0, 85, 0
1, 398643, Note_on_c, 0, 84, 47
1, 398710, Control_c, 0, 64, 127
1, 398736, Note_on_c, 0, 84, 0
1, 398765, Note_on_c, 0, 48, 0
1, 398771, Note_on_c, 0, 58, 0
1, 398827, Note_on_c, 0, 82, 57
1, 398964, Note_on_c, 0, 80, 40
1, 399021, Note_on_c, 0, 82, 0
1, 399083, Note_on_c, 0, 78, 49
1, 399125, Note_on_c, 0, 80, 0
1, 399178, Note_on_c, 0, 78, 0
1, 399216, Note_on_c, 0, 76, 40
1, 399279, Note_on_c, 0, 76, 0
1, 399327, Note_on_c, 0, 75, 25
1, 399444, Note_on_c, 0, 75, 0
1, 399461, Note_on_c, 0, 74, 40
1, 399522, Note_on_c, 0, 74, 0
1, 399537, Note_on_c, 0, 73, 42
1, 399632, Control_c, 0, 64, 0
1, 399652, Note_on_c, 0, 41, 33
1, 399662, Note_on_c, 0, 73, 0
1, 399704, Note_on_c, 0, 72, 35
1, 399707, Note_on_c, 0, 57, 26
1, 399734, Note_on_c, 0, 48, 24
1, 399895, Control_c, 0, 64, 127
1, 400018, Note_on_c, 0, 41, 0
1, 400052, Note_on_c, 0, 48, 0
1, 400080, Note_on_c, 0, 72, 0
1, 400105, Note_on_c, 0, 69, 36
1, 400137, Note_on_c, 0, 57, 0
1, 400269, Note_on_c, 0, 69, 0
1, 400366, Note_on_c, 0, 69, 53
1, 400562, Note_on_c, 0, 69, 0
1, 400630, Note_on_c, 0, 62, 29
1, 400658, Control_c, 0, 64, 0
1, 400661, Note_on_c, 0, 60, 24
1, 400668, Note_on_c, 0, 57, 30
1, 400687, Note_on_c, 0, 69, 39
1, 400689, Note_on_c, 0, 53, 14
1, 400741, Note_on_c, 0, 62, 0
1, 400797, Note_on_c, 0, 60, 0
1, 400805, Control_c, 0, 64, 127
1, 400806, Note_on_c, 0, 53, 0
1, 400864, Note_on_c, 0, 57, 0
1, 400945, Note_on_c, 0, 69, 0
1, 400985, Note_on_c, 0, 72, 58
1, 401183, Note_on_c, 0, 72, 0
1, 401283, Note_on_c, 0, 76, 87
1, 401497, Note_on_c, 0, 76, 0
1, 401594, Note_on_c, 0, 79, 68
1, 401601, Note_on_c, 0, 61, 57
1, 401605, Note_on_c, 0, 72, 53
1, 401607, Note_on_c, 0, 69, 50
1, 401609, Note_on_c, 0, 73, 30
1, 401614, Control_c, 0, 64, 0
1, 401657, Note_on_c, 0, 73, 0
1, 401764, Note_on_c, 0, 79, 0
1, 401772, Note_on_c, 0, 72, 0
1, 401812, Note_on_c, 0, 69, 0
1, 401840, Note_on_c, 0, 61, 0
1, 401909, Note_on_c, 0, 57, 38
1, 402200, Note_on_c, 0, 76, 55
1, 402223, Note_on_c, 0, 69, 36
1, 402225, Note_on_c, 0, 60, 34
1, 402228, Note_on_c, 0, 57, 0
1, 402236, Note_on_c, 0, 65, 34
1, 402400, Control_c, 0, 64, 127
1, 402477, Note_on_c, 0, 65, 0
1, 402536, Note_on_c, 0, 60, 0
1, 402555, Note_on_c, 0, 57, 60
1, 402599, Note_on_c, 0, 69, 0
1, 402694, Note_on_c, 0, 57, 0
1, 402731, Note_on_c, 0, 76, 0
1, 403214, Note_on_c, 0, 50, 34
1, 403481, Control_c, 0, 64, 0
1, 403494, Note_on_c, 0, 50, 0
1, 403580, Note_on_c, 0, 43, 29
1, 403699, Note_on_c, 0, 43, 0
1, 403917, Note_on_c, 0, 101, 64
1, 403924, Control_c, 0, 64, 127
1, 404167, Note_on_c, 0, 101, 0
1, 404229, Note_on_c, 0, 98, 43
1, 404391, Note_on_c, 0, 98, 0
1, 404529, Control_c, 0, 64, 0
1, 404556, Note_on_c, 0, 62, 27
1, 404570, Note_on_c, 0, 101, 66
1, 404585, Note_on_c, 0, 58, 35
1, 404587, Note_on_c, 0, 89, 43
1, 404608, Note_on_c, 0, 57, 15
1, 404656, Note_on_c, 0, 58, 0
1, 404663, Note_on_c, 0, 62, 0
1, 404702, Note_on_c, 0, 57, 0
1, 404723, Control_c, 0, 64, 127
1, 404866, Note_on_c, 0, 89, 0
1, 404871, Note_on_c, 0, 101, 0
1, 404918, Note_on_c, 0, 98, 32
1, 405023, Note_on_c, 0, 98, 0
1, 405239, Note_on_c, 0, 101, 63
1, 405437, Note_on_c, 0, 101, 0
1, 405553, Control_c, 0, 64, 0
1, 405569, Note_on_c, 0, 36, 30
1, 405579, Note_on_c, 0, 100, 69
1, 405683, Note_on_c, 0, 36, 0
1, 405759, Control_c, 0, 64, 127
1, 405879, Note_on_c, 0, 99, 35
1, 405911, Note_on_c, 0, 100, 0
1, 405976, Note_on_c, 0, 99, 0
1, 406007, Note_on_c, 0, 98, 39
1, 406077, Control_c, 0, 64, 0
1, 406100, Note_on_c, 0, 97, 51
1, 406104, Note_on_c, 0, 98, 0
1, 406201, Note_on_c, 0, 97, 0
1, 406220, Note_on_c, 0, 96, 51
1, 406226, Control_c, 0, 64, 127
1, 406589, Control_c, 0, 64, 0
1, 406590, Note_on_c, 0, 64, 36
1, 406602, Note_on_c, 0, 61, 28
1, 406603, Note_on_c, 0, 58, 37
1, 406738, Control_c, 0, 64, 127
1, 407212, Note_on_c, 0, 64, 0
1, 407224, Note_on_c, 0, 61, 0
1, 407293, Note_on_c, 0, 58, 0
1, 407356, Note_on_c, 0, 95, 49
1, 407415, Note_on_c, 0, 96, 0
1, 407436, Note_on_c, 0, 94, 68
1, 407461, Note_on_c, 0, 95, 0
1, 407578, Note_on_c, 0, 93, 70
1, 407605, Note_on_c, 0, 94, 0
1, 407625, Control_c, 0, 64, 0
1, 407632, Note_on_c, 0, 64, 37
1, 407645, Note_on_c, 0, 57, 42
1, 407659, Note_on_c, 0, 60, 34
1, 407680, Note_on_c, 0, 93, 0
1, 407725, Note_on_c, 0, 96, 74
1, 407864, Control_c, 0, 64, 127
1, 407990, Note_on_c, 0, 64, 0
1, 408004, Note_on_c, 0, 60, 0
1, 408023, Note_on_c, 0, 93, 69
1, 408071, Note_on_c, 0, 96, 0
1, 408090, Note_on_c, 0, 57, 0
1, 408167, Note_on_c, 0, 93, 0
1, 408240, Note_on_c, 0, 84, 53
1, 408414, Note_on_c, 0, 84, 0
1, 408507, Note_on_c, 0, 84, 61
1, 408650, Note_on_c, 0, 84, 0
1, 408723, Note_on_c, 0, 55, 30
1, 408727, Note_on_c, 0, 45, 44
1, 408742, Control_c, 0, 64, 0
1, 408750, Note_on_c, 0, 84, 53
1, 408891, Control_c, 0, 64, 127
1, 409111, Note_on_c, 0, 45, 0
1, 409226, Note_on_c, 0, 55, 0
1, 409744, Control_c, 0, 64, 0
1, 409774, Note_on_c, 0, 60, 45
1, 409775, Note_on_c, 0, 54, 47
1, 409793, Note_on_c, 0, 50, 32
1, 409914, Control_c, 0, 64, 127
1, 410310, Note_on_c, 0, 84, 0
1, 410360, Note_on_c, 0, 50, 0
1, 410421, Note_on_c, 0, 54, 0
1, 410449, Note_on_c, 0, 60, 0
1, 410456, Note_on_c, 0, 93, 83
1, 410825, Control_c, 0, 64, 0
1, 410829, Note_on_c, 0, 64, 41
1, 410843, Note_on_c, 0, 54, 35
1, 410860, Note_on_c, 0, 60, 26
1, 410985, Control_c, 0, 64, 127
1, 411343, Note_on_c, 0, 93, 0
1, 411447, Note_on_c, 0, 64, 0
1, 411448, Note_on_c, 0, 60, 0
1, 411535, Note_on_c, 0, 89, 53
1, 411595, Note_on_c, 0, 54, 0
1, 411629, Note_on_c, 0, 89, 0
1, 411896, Control_c, 0, 64, 0
1, 411909, Note_on_c, 0, 62, 18
1, 411910, Note_on_c, 0, 58, 35
1, 411929, Note_on_c, 0, 55, 18
1, 411939, Note_on_c, 0, 57, 17
1, 411981, Note_on_c, 0, 92, 46
1, 412071, Note_on_c, 0, 92, 0
1, 412081, Note_on_c, 0, 93, 62
1, 412227, Note_on_c, 0, 93, 0
1, 412611, Note_on_c, 0, 94, 67
1, 412617, Note_on_c, 0, 58, 0
1, 412620, Note_on_c, 0, 62, 0
1, 412676, Note_on_c, 0, 57, 0
1, 412721, Note_on_c, 0, 94, 0
1, 412990, Note_on_c, 0, 57, 30
1, 413000, Note_on_c, 0, 62, 24
1, 413007, Note_on_c, 0, 58, 37
1, 413010, Note_on_c, 0, 91, 57
1, 413085, Note_on_c, 0, 91, 0
1, 413279, Note_on_c, 0, 93, 55
1, 413330, Note_on_c, 0, 93, 0
1, 413675, Note_on_c, 0, 62, 0
1, 413690, Note_on_c, 0, 57, 0
1, 413745, Note_on_c, 0, 58, 0
1, 413838, Note_on_c, 0, 88, 35
1, 413844, Note_on_c, 0, 55, 0
1, 414074, Note_on_c, 0, 62, 32
1, 414084, Note_on_c, 0, 58, 25
1, 414087, Note_on_c, 0, 52, 33
1, 414115, Control_c, 0, 64, 127
1, 414220, Note_on_c, 0, 52, 0
1, 414223, Note_on_c, 0, 62, 0
1, 414241, Note_on_c, 0, 58, 0
1, 414663, Note_on_c, 0, 88, 0
1, 414854, Note_on_c, 0, 91, 72
1, 415130, Control_c, 0, 64, 0
1, 415167, Note_on_c, 0, 58, 39
1, 415170, Note_on_c, 0, 48, 35
1, 415279, Note_on_c, 0, 58, 0
1, 415300, Control_c, 0, 64, 127
1, 415310, Note_on_c, 0, 48, 0
1, 415538, Note_on_c, 0, 79, 29
1, 415688, Note_on_c, 0, 91, 0
1, 415717, Note_on_c, 0, 79, 0
1, 415881, Note_on_c, 0, 85, 52
1, 416106, Note_on_c, 0, 85, 0
1, 416189, Control_c, 0, 64, 0
1, 416243, Note_on_c, 0, 41, 29
1, 416249, Note_on_c, 0, 89, 43
1, 416258, Note_on_c, 0, 84, 38
1, 416267, Note_on_c, 0, 77, 29
1, 416271, Note_on_c, 0, 48, 35
1, 416278, Note_on_c, 0, 57, 32
1, 416348, Control_c, 0, 64, 127
1, 416528, Note_on_c, 0, 89, 0
1, 416576, Note_on_c, 0, 84, 0
1, 416612, Note_on_c, 0, 41, 0
1, 416654, Note_on_c, 0, 48, 0
1, 416718, Note_on_c, 0, 77, 0
1, 416774, Note_on_c, 0, 57, 0
1, 417372, Control_c, 0, 64, 0
1, 417385, Note_on_c, 0, 62, 36
1, 417394, Note_on_c, 0, 77, 46
1, 417397, Note_on_c, 0, 72, 48
1, 417402, Note_on_c, 0, 67, 33
1, 417521, Control_c, 0, 64, 127
1, 417802, Note_on_c, 0, 62, 0
1, 417814, Note_on_c, 0, 67, 0
1, 417887, Note_on_c, 0, 72, 0
1, 417890, Note_on_c, 0, 77, 0
1, 418472, Note_on_c, 0, 84, 47
1, 418483, Note_on_c, 0, 61, 38
1, 418500, Note_on_c, 0, 81, 50
1, 418506, Note_on_c, 0, 77, 48
1, 418508, Note_on_c, 0, 65, 36
1, 418513, Control_c, 0, 64, 0
1, 418529, Note_on_c, 0, 72, 40
1, 418531, Note_on_c, 0, 55, 19
1, 418732, Note_on_c, 0, 55, 0
1, 418739, Note_on_c, 0, 77, 0
1, 418739, Note_on_c, 0, 72, 0
1, 418745, Note_on_c, 0, 65, 0
1, 418762, Note_on_c, 0, 61, 0
1, 418776, Note_on_c, 0, 81, 0
1, 418779, Note_on_c, 0, 84, 0
1, 419054, Note_on_c, 0, 61, 38
1, 419063, Note_on_c, 0, 84, 36
1, 419068, Note_on_c, 0, 65, 42
1, 419071, Control_c, 0, 64, 127
1, 419088, Note_on_c, 0, 72, 30
1, 419090, Note_on_c, 0, 55, 24
1, 419092, Note_on_c, 0, 77, 43
1, 419096, Note_on_c, 0, 81, 41
1, 419318, Note_on_c, 0, 55, 0
1, 419333, Note_on_c, 0, 77, 0
1, 419349, Note_on_c, 0, 72, 0
1, 419355, Note_on_c, 0, 65, 0
1, 419358, Note_on_c, 0, 61, 0
1, 419359, Note_on_c, 0, 84, 0
1, 419365, Note_on_c, 0, 81, 0
1, 419480, Control_c, 0, 64, 0
1, 419627, Control_c, 0, 64, 127
1, 419633, Note_on_c, 0, 84, 46
1, 419642, Note_on_c, 0, 61, 42
1, 419651, Note_on_c, 0, 72, 33
1, 419654, Note_on_c, 0, 65, 36
1, 419658, Note_on_c, 0, 81, 38
1, 419659, Note_on_c, 0, 77, 40
1, 419665, Note_on_c, 0, 55, 26
1, 419942, Note_on_c, 0, 84, 0
1, 420237, Note_on_c, 0, 81, 0
1, 420263, Note_on_c, 0, 77, 0
1, 420295, Note_on_c, 0, 65, 0
1, 420311, Note_on_c, 0, 72, 0
1, 420343, Note_on_c, 0, 55, 0
1, 420369, Note_on_c, 0, 61, 0
1, 420835, Note_on_c, 0, 77, 41
1, 420846, Control_c, 0, 64, 0
1, 420864, Note_on_c, 0, 72, 36
1, 420865, Note_on_c, 0, 62, 24
1, 420876, Note_on_c, 0, 67, 22
1, 420887, Note_on_c, 0, 60, 29
1, 420893, Note_on_c, 0, 53, 17
1, 421017, Note_on_c, 0, 72, 0
1, 421029, Note_on_c, 0, 53, 0
1, 421037, Note_on_c, 0, 67, 0
1, 421047, Note_on_c, 0, 77, 0
1, 421048, Note_on_c, 0, 62, 0
1, 421054, Note_on_c, 0, 60, 0
1, 421386, Note_on_c, 0, 62, 29
1, 421388, Note_on_c, 0, 77, 35
1, 421390, Note_on_c, 0, 60, 26
1, 421403, Note_on_c, 0, 53, 22
1, 421406, Note_on_c, 0, 72, 36
1, 421415, Note_on_c, 0, 67, 20
1, 421420, Note_on_c, 0, 69, 22
1, 421564, Control_c, 0, 64, 127
1, 421652, Note_on_c, 0, 77, 0
1, 421661, Note_on_c, 0, 53, 0
1, 421673, Note_on_c, 0, 69, 0
1, 421674, Note_on_c, 0, 67, 0
1, 421674, Note_on_c, 0, 62, 0
1, 421677, Note_on_c, 0, 72, 0
1, 421690, Note_on_c, 0, 60, 0
1, 421979, Note_on_c, 0, 77, 35
1, 421982, Note_on_c, 0, 53, 24
1, 421983, Note_on_c, 0, 60, 22
1, 421984, Note_on_c, 0, 72, 44
1, 422009, Note_on_c, 0, 62, 25
1, 422012, Note_on_c, 0, 67, 30
1, 422125, Note_on_c, 0, 53, 0
1, 422140, Note_on_c, 0, 77, 0
1, 422147, Note_on_c, 0, 72, 0
1, 422154, Note_on_c, 0, 60, 0
1, 422191, Note_on_c, 0, 62, 0
1, 422246, Note_on_c, 0, 67, 0
1, 422509, Control_c, 0, 64, 0
1, 422510, Note_on_c, 0, 69, 67
1, 422513, Note_on_c, 0, 71, 60
1, 422515, Note_on_c, 0, 65, 64
1, 422518, Note_on_c, 0, 64, 81
1, 422633, Control_c, 0, 64, 127
1, 422901, Note_on_c, 0, 64, 0
1, 422950, Note_on_c, 0, 65, 0
1, 423060, Note_on_c, 0, 64, 56
1, 423062, Note_on_c, 0, 62, 37
1, 423076, Control_c, 0, 64, 0
1, 423097, Note_on_c, 0, 56, 48
1, 423215, Control_c, 0, 64, 127
1, 423348, Note_on_c, 0, 71, 0
1, 423356, Note_on_c, 0, 69, 0
1, 423610, Note_on_c, 0, 66, 65
1, 423646, Note_on_c, 0, 52, 35
1, 423684, Note_on_c, 0, 64, 0
1, 423989, Note_on_c, 0, 66, 0
1, 424179, Note_on_c, 0, 69, 89
1, 424440, Note_on_c, 0, 62, 0
1, 424545, Note_on_c, 0, 69, 0
1, 424579, Note_on_c, 0, 52, 0
1, 424587, Note_on_c, 0, 56, 0
1, 424739, Note_on_c, 0, 72, 70
1, 425089, Note_on_c, 0, 72, 0
1, 425264, Control_c, 0, 64, 0
1, 425284, Note_on_c, 0, 74, 46
1, 425298, Note_on_c, 0, 52, 27
1, 425302, Note_on_c, 0, 45, 36
1, 425331, Note_on_c, 0, 75, 47
1, 425481, Note_on_c, 0, 75, 0
1, 425483, Note_on_c, 0, 76, 44
1, 425503, Note_on_c, 0, 45, 0
1, 425555, Note_on_c, 0, 52, 0
1, 425601, Note_on_c, 0, 74, 0
1, 425692, Note_on_c, 0, 76, 0
1, 425757, Note_on_c, 0, 81, 71
1, 425904, Note_on_c, 0, 81, 0
1, 425982, Note_on_c, 0, 74, 53
1, 426050, Note_on_c, 0, 81, 15
1, 426080, Note_on_c, 0, 75, 31
1, 426185, Note_on_c, 0, 76, 40
1, 426190, Note_on_c, 0, 75, 0
1, 426197, Note_on_c, 0, 74, 0
1, 426264, Note_on_c, 0, 81, 0
1, 426288, Note_on_c, 0, 76, 0
1, 426308, Note_on_c, 0, 64, 33
1, 426327, Note_on_c, 0, 59, 29
1, 426338, Note_on_c, 0, 60, 31
1, 426870, Note_on_c, 0, 59, 0
1, 427000, Note_on_c, 0, 56, 64
1, 427211, Control_c, 0, 64, 127
1, 427229, Note_on_c, 0, 56, 0
1, 427359, Control_c, 0, 64, 0
1, 427376, Note_on_c, 0, 57, 62
1, 427597, Control_c, 0, 64, 127
1, 427696, Note_on_c, 0, 64, 0
1, 427702, Note_on_c, 0, 60, 0
1, 428081, Note_on_c, 0, 72, 36
1, 428164, Note_on_c, 0, 72, 0
1, 428441, Control_c, 0, 64, 0
1, 428456, Note_on_c, 0, 64, 42
1, 428478, Note_on_c, 0, 60, 39
1, 428480, Note_on_c, 0, 76, 99
1, 428483, Note_on_c, 0, 59, 30
1, 428669, Control_c, 0, 64, 127
1, 428724, Note_on_c, 0, 76, 0
1, 428821, Note_on_c, 0, 76, 80
1, 429098, Note_on_c, 0, 57, 0
1, 429114, Note_on_c, 0, 59, 0
1, 429140, Note_on_c, 0, 60, 0
1, 429167, Note_on_c, 0, 74, 74
1, 429223, Note_on_c, 0, 76, 0
1, 429484, Note_on_c, 0, 74, 0
1, 429532, Control_c, 0, 64, 0
1, 429537, Note_on_c, 0, 64, 0
1, 429539, Note_on_c, 0, 57, 78
1, 429549, Note_on_c, 0, 76, 89
1, 429750, Control_c, 0, 64, 127
1, 429868, Note_on_c, 0, 76, 0
1, 429903, Note_on_c, 0, 76, 54
1, 430130, Note_on_c, 0, 76, 0
1, 430274, Note_on_c, 0, 76, 60
1, 430534, Note_on_c, 0, 76, 0
1, 430626, Control_c, 0, 64, 0
1, 430649, Note_on_c, 0, 62, 33
1, 430651, Note_on_c, 0, 74, 47
1, 430654, Note_on_c, 0, 76, 46
1, 430661, Note_on_c, 0, 65, 33
1, 430809, Control_c, 0, 64, 127
1, 430909, Note_on_c, 0, 76, 0
1, 431025, Note_on_c, 0, 76, 40
1, 431250, Note_on_c, 0, 76, 0
1, 431279, Note_on_c, 0, 57, 0
1, 431293, Note_on_c, 0, 74, 0
1, 431366, Note_on_c, 0, 56, 82
1, 431378, Note_on_c, 0, 76, 53
1, 431528, Note_on_c, 0, 62, 0
1, 431538, Note_on_c, 0, 65, 0
1, 431550, Control_c, 0, 64, 0
1, 431669, Note_on_c, 0, 76, 0
1, 431755, Control_c, 0, 64, 127
1, 431764, Note_on_c, 0, 76, 27
1, 432267, Note_on_c, 0, 76, 0
1, 432490, Note_on_c, 0, 76, 57
1, 432732, Note_on_c, 0, 76, 0
1, 432841, Note_on_c, 0, 76, 32
1, 432847, Control_c, 0, 64, 0
1, 432876, Note_on_c, 0, 64, 44
1, 432881, Note_on_c, 0, 68, 27
1, 432885, Note_on_c, 0, 65, 27
1, 432887, Note_on_c, 0, 71, 36
1, 432995, Control_c, 0, 64, 127
1, 433038, Note_on_c, 0, 64, 0
1, 433102, Note_on_c, 0, 56, 0
1, 433478, Note_on_c, 0, 76, 0
1, 433523, Note_on_c, 0, 65, 0
1, 433534, Note_on_c, 0, 71, 0
1, 433591, Note_on_c, 0, 74, 34
1, 433600, Note_on_c, 0, 52, 24
1, 433732, Note_on_c, 0, 68, 0
1, 433890, Note_on_c, 0, 74, 0
1, 433907, Control_c, 0, 64, 0
1, 433961, Note_on_c, 0, 45, 36
1, 433969, Note_on_c, 0, 64, 43
1, 433979, Note_on_c, 0, 72, 44
1, 433986, Note_on_c, 0, 57, 33
1, 434088, Control_c, 0, 64, 127
1, 434235, Note_on_c, 0, 45, 0
1, 434267, Note_on_c, 0, 52, 0
1, 434359, Note_on_c, 0, 57, 0
1, 434463, Note_on_c, 0, 64, 0
1, 434731, Note_on_c, 0, 72, 0
1, 435059, Note_on_c, 0, 64, 44
1, 435076, Note_on_c, 0, 60, 25
1, 435077, Note_on_c, 0, 59, 29
1, 435079, Note_on_c, 0, 69, 39
1, 435404, Note_on_c, 0, 60, 0
1, 435477, Note_on_c, 0, 59, 0
1, 435503, Note_on_c, 0, 69, 0
1, 435578, Note_on_c, 0, 64, 0
1, 436175, Control_c, 0, 64, 0
1, 436176, Note_on_c, 0, 42, 37
1, 436189, Note_on_c, 0, 60, 39
1, 436192, Note_on_c, 0, 57, 50
1, 436195, Note_on_c, 0, 52, 25
1, 436368, Control_c, 0, 64, 127
1, 436529, Note_on_c, 0, 57, 0
1, 436560, Note_on_c, 0, 60, 0
1, 436570, Note_on_c, 0, 42, 0
1, 436610, Note_on_c, 0, 52, 0
1, 437336, Note_on_c, 0, 64, 37
1, 437341, Note_on_c, 0, 69, 40
1, 437353, Note_on_c, 0, 54, 32
1, 437362, Note_on_c, 0, 60, 20
1, 437651, Note_on_c, 0, 64, 0
1, 437660, Note_on_c, 0, 60, 0
1, 437695, Note_on_c, 0, 54, 0
1, 437729, Note_on_c, 0, 69, 0
1, 438179, Note_on_c, 0, 65, 78
1, 438183, Note_on_c, 0, 69, 72
1, 438184, Note_on_c, 0, 71, 71
1, 438194, Note_on_c, 0, 64, 90
1, 438259, Control_c, 0, 64, 0
1, 438714, Control_c, 0, 64, 127
1, 439694, Note_on_c, 0, 65, 0
1, 439803, Note_on_c, 0, 62, 35
1, 439817, Note_on_c, 0, 69, 0
1, 439850, Note_on_c, 0, 71, 0
1, 440005, Note_on_c, 0, 64, 0
1, 440142, Note_on_c, 0, 62, 0
1, 440422, Control_c, 0, 64, 0
1, 440466, Control_c, 0, 64, 127
1, 440472, Note_on_c, 0, 52, 36
1, 440560, Note_on_c, 0, 52, 0
1, 440899, Note_on_c, 0, 76, 53
1, 440925, Note_on_c, 0, 67, 32
1, 440932, Note_on_c, 0, 56, 28
1, 440958, Control_c, 0, 64, 0
1, 440967, Note_on_c, 0, 62, 29
1, 441106, Control_c, 0, 64, 127
1, 441355, Note_on_c, 0, 76, 0
1, 441602, Note_on_c, 0, 67, 0
1, 441608, Note_on_c, 0, 62, 0
1, 441624, Note_on_c, 0, 78, 74
1, 441696, Note_on_c, 0, 56, 0
1, 442017, Note_on_c, 0, 56, 36
1, 442036, Note_on_c, 0, 62, 20
1, 442413, Note_on_c, 0, 62, 0
1, 442426, Note_on_c, 0, 81, 53
1, 442457, Note_on_c, 0, 78, 0
1, 442507, Note_on_c, 0, 56, 0
1, 442596, Note_on_c, 0, 81, 0
1, 442787, Note_on_c, 0, 84, 51
1, 442882, Note_on_c, 0, 84, 0
1, 442964, Marker_t, "Rhythmically repeated note (E) with lower neighbor (Eb)"
1, 443075, Control_c, 0, 64, 0
1, 443109, Note_on_c, 0, 75, 46
1, 443119, Note_on_c, 0, 87, 46
1, 443120, Note_on_c, 0, 52, 27
1, 443121, Note_on_c, 0, 45, 37
1, 443305, Control_c, 0, 64, 127
1, 443403, Note_on_c, 0, 87, 0
1, 443416, Note_on_c, 0, 75, 0
1, 443448, Note_on_c, 0, 76, 50
1, 443467, Note_on_c, 0, 88, 54
1, 443473, Note_on_c, 0, 45, 0
1, 443513, Note_on_c, 0, 52, 0
1, 443631, Note_on_c, 0, 88, 0
1, 443635, Note_on_c, 0, 76, 0
1, 443772, Note_on_c, 0, 88, 60
1, 443777, Note_on_c, 0, 76, 58
1, 443891, Note_on_c, 0, 88, 0
1, 443951, Note_on_c, 0, 76, 0
1, 444010, Note_on_c, 0, 88, 54
1, 444022, Note_on_c, 0, 76, 40
1, 444193, Note_on_c, 0, 64, 34
1, 444195, Note_on_c, 0, 88, 0
1, 444228, Note_on_c, 0, 59, 29
1, 444231, Note_on_c, 0, 60, 28
1, 444240, Control_c, 0, 64, 0
1, 444273, Note_on_c, 0, 87, 49
1, 444402, Note_on_c, 0, 76, 0
1, 444475, Note_on_c, 0, 87, 0
1, 444515, Note_on_c, 0, 88, 60
1, 444541, Note_on_c, 0, 76, 26
1, 444592, Control_c, 0, 64, 127
1, 444639, Note_on_c, 0, 88, 0
1, 444760, Note_on_c, 0, 88, 57
1, 444878, Note_on_c, 0, 88, 0
1, 445018, Note_on_c, 0, 88, 60
1, 445170, Note_on_c, 0, 88, 0
1, 445227, Note_on_c, 0, 59, 0
1, 445238, Note_on_c, 0, 56, 46
1, 445253, Control_c, 0, 64, 0
1, 445263, Note_on_c, 0, 87, 60
1, 445446, Control_c, 0, 64, 127
1, 445466, Note_on_c, 0, 87, 0
1, 445513, Note_on_c, 0, 88, 50
1, 445630, Note_on_c, 0, 88, 0
1, 445765, Note_on_c, 0, 88, 56
1, 445865, Note_on_c, 0, 88, 0
1, 446011, Note_on_c, 0, 88, 66
1, 446152, Note_on_c, 0, 88, 0
1, 446218, Note_on_c, 0, 56, 0
1, 446247, Note_on_c, 0, 55, 35
1, 446260, Note_on_c, 0, 87, 55
1, 446266, Control_c, 0, 64, 0
1, 446418, Note_on_c, 0, 87, 0
1, 446448, Control_c, 0, 64, 127
1, 446494, Note_on_c, 0, 88, 54
1, 446614, Note_on_c, 0, 88, 0
1, 446619, Note_on_c, 0, 64, 0
1, 446653, Note_on_c, 0, 60, 0
1, 446702, Note_on_c, 0, 76, 0
1, 446730, Note_on_c, 0, 55, 0
1, 446737, Note_on_c, 0, 88, 52
1, 446861, Note_on_c, 0, 88, 0
1, 446996, Note_on_c, 0, 88, 51
1, 447185, Note_on_c, 0, 88, 0
1, 447234, Control_c, 0, 64, 0
1, 447240, Note_on_c, 0, 47, 34
1, 447258, Note_on_c, 0, 57, 41
1, 447262, Note_on_c, 0, 88, 58
1, 447319, Note_on_c, 0, 76, 24
1, 447393, Control_c, 0, 64, 127
1, 447600, Note_on_c, 0, 47, 0
1, 447694, Note_on_c, 0, 57, 0
1, 448356, Note_on_c, 0, 57, 39
1, 448360, Note_on_c, 0, 65, 20
1, 448366, Note_on_c, 0, 62, 29
1, 448946, Note_on_c, 0, 62, 0
1, 448991, Note_on_c, 0, 57, 0
1, 449000, Note_on_c, 0, 65, 0
1, 449455, Control_c, 0, 64, 0
1, 449472, Note_on_c, 0, 67, 30
1, 449474, Note_on_c, 0, 56, 34
1, 449494, Note_on_c, 0, 62, 24
1, 449626, Control_c, 0, 64, 127
1, 449715, Note_on_c, 0, 88, 0
1, 449719, Note_on_c, 0, 76, 0
1, 449977, Note_on_c, 0, 67, 0
1, 450041, Note_on_c, 0, 62, 0
1, 450172, Note_on_c, 0, 56, 0
1, 450199, Note_on_c, 0, 86, 82
1, 450211, Note_on_c, 0, 74, 81
1, 450415, Note_on_c, 0, 86, 0
1, 450455, Note_on_c, 0, 74, 0
1, 450555, Note_on_c, 0, 84, 65
1, 450563, Note_on_c, 0, 72, 66
1, 450603, Note_on_c, 0, 56, 45
1, 450604, Note_on_c, 0, 62, 29
1, 450607, Control_c, 0, 64, 0
1, 450776, Control_c, 0, 64, 127
1, 450784, Note_on_c, 0, 84, 0
1, 450829, Note_on_c, 0, 72, 0
1, 450958, Note_on_c, 0, 83, 60
1, 450967, Note_on_c, 0, 71, 57
1, 451086, Note_on_c, 0, 71, 0
1, 451104, Note_on_c, 0, 62, 0
1, 451129, Note_on_c, 0, 83, 0
1, 451190, Note_on_c, 0, 56, 0
1, 451308, Note_on_c, 0, 86, 74
1, 451323, Note_on_c, 0, 74, 59
1, 451462, Note_on_c, 0, 86, 0
1, 451519, Note_on_c, 0, 74, 0
1, 451595, Control_c, 0, 64, 0
1, 451656, Note_on_c, 0, 45, 40
1, 451665, Note_on_c, 0, 52, 31
1, 451674, Note_on_c, 0, 84, 66
1, 451689, Note_on_c, 0, 72, 53
1, 451767, Control_c, 0, 64, 127
1, 451856, Note_on_c, 0, 45, 0
1, 451920, Note_on_c, 0, 52, 0
1, 451943, Note_on_c, 0, 84, 0
1, 452002, Note_on_c, 0, 72, 0
1, 452062, Note_on_c, 0, 84, 51
1, 452070, Note_on_c, 0, 72, 42
1, 452249, Note_on_c, 0, 84, 0
1, 452255, Note_on_c, 0, 72, 0
1, 452752, Note_on_c, 0, 64, 45
1, 452793, Note_on_c, 0, 60, 30
1, 452796, Note_on_c, 0, 59, 31
1, 452808, Note_on_c, 0, 55, 24
1, 453063, Note_on_c, 0, 64, 0
1, 453115, Note_on_c, 0, 60, 0
1, 453147, Note_on_c, 0, 59, 0
1, 453179, Note_on_c, 0, 55, 0
1, 453413, Note_on_c, 0, 84, 69
1, 453537, Note_on_c, 0, 84, 0
1, 453607, Note_on_c, 0, 84, 79
1, 453777, Note_on_c, 0, 84, 0
1, 453839, Control_c, 0, 64, 0
1, 453875, Note_on_c, 0, 44, 62
1, 453888, Note_on_c, 0, 84, 75
1, 453914, Note_on_c, 0, 72, 71
1, 454031, Note_on_c, 0, 44, 0
1, 454045, Control_c, 0, 64, 127
1, 454272, Note_on_c, 0, 72, 0
1, 454279, Note_on_c, 0, 84, 0
1, 454504, Note_on_c, 0, 84, 79
1, 454508, Note_on_c, 0, 60, 56
1, 454510, Note_on_c, 0, 58, 70
1, 454512, Note_on_c, 0, 65, 74
1, 454513, Note_on_c, 0, 54, 71
1, 454515, Note_on_c, 0, 77, 80
1, 454516, Note_on_c, 0, 72, 76
1, 454877, Note_on_c, 0, 77, 0
1, 454889, Note_on_c, 0, 72, 0
1, 454902, Note_on_c, 0, 84, 0
1, 454906, Note_on_c, 0, 65, 0
1, 454917, Note_on_c, 0, 54, 0
1, 454919, Note_on_c, 0, 58, 0
1, 454933, Note_on_c, 0, 60, 0
1, 455076, Note_on_c, 0, 84, 69
1, 455081, Note_on_c, 0, 65, 73
1, 455086, Note_on_c, 0, 54, 71
1, 455091, Note_on_c, 0, 58, 67
1, 455091, Note_on_c, 0, 60, 35
1, 455092, Note_on_c, 0, 77, 67
1, 455095, Note_on_c, 0, 72, 59
1, 455354, Note_on_c, 0, 60, 0
1, 455375, Note_on_c, 0, 65, 0
1, 455386, Note_on_c, 0, 58, 0
1, 455404, Note_on_c, 0, 77, 0
1, 455418, Note_on_c, 0, 72, 0
1, 455427, Note_on_c, 0, 54, 0
1, 455451, Note_on_c, 0, 84, 0
1, 455675, Note_on_c, 0, 84, 52
1, 455782, Note_on_c, 0, 84, 0
1, 455937, Note_on_c, 0, 84, 66
1, 455958, Note_on_c, 0, 72, 50
1, 456061, Note_on_c, 0, 72, 0
1, 456113, Note_on_c, 0, 84, 0
1, 456193, Control_c, 0, 64, 0
1, 456234, Note_on_c, 0, 31, 49
1, 456248, Note_on_c, 0, 86, 69
1, 456250, Note_on_c, 0, 43, 36
1, 456262, Note_on_c, 0, 74, 62
1, 456287, Note_on_c, 0, 82, 34
1, 456352, Control_c, 0, 64, 127
1, 456360, Note_on_c, 0, 31, 0
1, 456417, Note_on_c, 0, 43, 0
1, 456695, Note_on_c, 0, 74, 0
1, 456713, Note_on_c, 0, 86, 0
1, 456732, Note_on_c, 0, 82, 0
1, 456870, Note_on_c, 0, 86, 57
1, 456881, Note_on_c, 0, 62, 35
1, 456882, Note_on_c, 0, 74, 51
1, 456890, Note_on_c, 0, 58, 42
1, 456902, Note_on_c, 0, 57, 40
1, 456908, Note_on_c, 0, 82, 37
1, 456910, Note_on_c, 0, 53, 20
1, 457221, Note_on_c, 0, 58, 0
1, 457250, Note_on_c, 0, 62, 0
1, 457257, Note_on_c, 0, 57, 0
1, 457260, Note_on_c, 0, 53, 0
1, 457263, Note_on_c, 0, 82, 0
1, 457277, Note_on_c, 0, 74, 0
1, 457279, Note_on_c, 0, 86, 0
1, 457467, Note_on_c, 0, 86, 47
1, 457487, Note_on_c, 0, 62, 27
1, 457490, Note_on_c, 0, 74, 36
1, 457503, Note_on_c, 0, 57, 35
1, 457506, Note_on_c, 0, 58, 40
1, 457522, Note_on_c, 0, 53, 18
1, 457742, Note_on_c, 0, 58, 0
1, 457762, Note_on_c, 0, 53, 0
1, 457775, Note_on_c, 0, 62, 0
1, 457795, Note_on_c, 0, 57, 0
1, 457825, Note_on_c, 0, 74, 0
1, 457857, Note_on_c, 0, 86, 0
1, 458072, Note_on_c, 0, 86, 44
1, 458107, Note_on_c, 0, 74, 29
1, 458248, Note_on_c, 0, 86, 0
1, 458258, Note_on_c, 0, 74, 0
1, 458416, Note_on_c, 0, 86, 45
1, 458444, Note_on_c, 0, 74, 27
1, 458573, Note_on_c, 0, 86, 0
1, 458600, Note_on_c, 0, 74, 0
1, 458641, Marker_t, "Ral - back to rubato to finish"
1, 458720, Control_c, 0, 64, 0
1, 458782, Note_on_c, 0, 36, 39
1, 458784, Note_on_c, 0, 86, 45
1, 458801, Note_on_c, 0, 48, 29
1, 458804, Note_on_c, 0, 74, 36
1, 458845, Control_c, 0, 64, 127
1, 458915, Note_on_c, 0, 36, 0
1, 458988, Note_on_c, 0, 48, 0
1, 459017, Note_on_c, 0, 86, 0
1, 459088, Note_on_c, 0, 74, 0
1, 459656, Note_on_c, 0, 76, 24
1, 459659, Note_on_c, 0, 64, 34
1, 459667, Note_on_c, 0, 68, 28
1, 459670, Note_on_c, 0, 61, 29
1, 459672, Note_on_c, 0, 72, 34
1, 459675, Note_on_c, 0, 58, 39
1, 460105, Note_on_c, 0, 72, 0
1, 460114, Note_on_c, 0, 61, 0
1, 460121, Note_on_c, 0, 58, 0
1, 460135, Note_on_c, 0, 64, 0
1, 460174, Note_on_c, 0, 76, 0
1, 460277, Note_on_c, 0, 68, 0
1, 460663, Note_on_c, 0, 73, 31
1, 460672, Note_on_c, 0, 64, 32
1, 460677, Note_on_c, 0, 61, 23
1, 460681, Note_on_c, 0, 58, 38
1, 460688, Note_on_c, 0, 68, 34
1, 461340, Note_on_c, 0, 61, 0
1, 461407, Note_on_c, 0, 58, 0
1, 461443, Note_on_c, 0, 64, 0
1, 461476, Note_on_c, 0, 68, 0
1, 462101, Note_on_c, 0, 64, 30
1, 462115, Note_on_c, 0, 68, 34
1, 462120, Note_on_c, 0, 61, 23
1, 462130, Note_on_c, 0, 58, 37
1, 462512, Note_on_c, 0, 61, 0
1, 462551, Note_on_c, 0, 58, 0
1, 462817, Note_on_c, 0, 73, 0
1, 462983, Note_on_c, 0, 64, 0
1, 463061, Note_on_c, 0, 68, 0
1, 463096, Note_on_c, 0, 74, 73
1, 463371, Note_on_c, 0, 74, 0
1, 463807, Note_on_c, 0, 41, 53
1, 463821, Note_on_c, 0, 72, 56
1, 463834, Control_c, 0, 64, 0
1, 463855, Note_on_c, 0, 67, 67
1, 463871, Note_on_c, 0, 62, 49
1, 464004, Control_c, 0, 64, 127
1, 464238, Note_on_c, 0, 48, 64
1, 464239, Note_on_c, 0, 41, 0
1, 464589, Note_on_c, 0, 48, 0
1, 464615, Note_on_c, 0, 57, 77
1, 464930, Note_on_c, 0, 57, 0
1, 465000, Note_on_c, 0, 58, 64
1, 465004, Note_on_c, 0, 67, 0
1, 465016, Note_on_c, 0, 62, 0
1, 465385, Note_on_c, 0, 72, 0
1, 465443, Note_on_c, 0, 61, 55
1, 465446, Note_on_c, 0, 69, 57
1, 465455, Note_on_c, 0, 65, 54
1, 465484, Control_c, 0, 64, 0
1, 465485, Note_on_c, 0, 60, 47
1, 465492, Note_on_c, 0, 58, 0
1, 465769, Control_c, 0, 64, 127
1, 465989, Note_on_c, 0, 51, 35
1, 466007, Note_on_c, 0, 60, 0
1, 466117, Note_on_c, 0, 69, 0
1, 466166, Note_on_c, 0, 61, 0
1, 466218, Note_on_c, 0, 65, 0
1, 466384, Note_on_c, 0, 51, 0
1, 466597, Note_on_c, 0, 65, 40
1, 466600, Note_on_c, 0, 60, 33
1, 466632, Note_on_c, 0, 50, 36
1, 466637, Control_c, 0, 64, 0
1, 466652, Note_on_c, 0, 57, 32
1, 466877, Control_c, 0, 64, 127
1, 467109, Note_on_c, 0, 57, 0
1, 467195, Note_on_c, 0, 60, 0
1, 467315, Note_on_c, 0, 57, 36
1, 467334, Note_on_c, 0, 65, 0
1, 467945, Note_on_c, 0, 77, 52
1, 467957, Note_on_c, 0, 69, 48
1, 467978, Note_on_c, 0, 60, 28
1, 467982, Note_on_c, 0, 72, 30
1, 467983, Note_on_c, 0, 65, 33
1, 468029, Note_on_c, 0, 57, 0
1, 468951, Note_on_c, 0, 65, 0
1, 468960, Note_on_c, 0, 69, 0
1, 468994, Note_on_c, 0, 72, 0
1, 469022, Note_on_c, 0, 77, 0
1, 469361, Note_on_c, 0, 81, 79
1, 469425, Note_on_c, 0, 60, 0
1, 469511, Note_on_c, 0, 50, 0
1, 469640, Note_on_c, 0, 81, 0
1, 469646, Note_on_c, 0, 77, 70
1, 469900, Note_on_c, 0, 77, 0
1, 470010, Note_on_c, 0, 81, 55
1, 470019, Control_c, 0, 64, 0
1, 470020, Note_on_c, 0, 74, 48
1, 470024, Note_on_c, 0, 77, 34
1, 470043, Note_on_c, 0, 69, 25
1, 470044, Note_on_c, 0, 43, 28
1, 470201, Control_c, 0, 64, 127
1, 470372, Note_on_c, 0, 50, 36
1, 470597, Note_on_c, 0, 43, 0
1, 470660, Note_on_c, 0, 50, 0
1, 470701, Note_on_c, 0, 57, 46
1, 471040, Note_on_c, 0, 69, 0
1, 471041, Note_on_c, 0, 81, 0
1, 471043, Note_on_c, 0, 57, 0
1, 471049, Note_on_c, 0, 58, 35
1, 471090, Note_on_c, 0, 77, 0
1, 471148, Note_on_c, 0, 74, 0
1, 471403, Note_on_c, 0, 74, 44
1, 471405, Note_on_c, 0, 79, 38
1, 471408, Control_c, 0, 64, 0
1, 471412, Note_on_c, 0, 62, 33
1, 471431, Note_on_c, 0, 67, 24
1, 471522, Control_c, 0, 64, 127
1, 471640, Note_on_c, 0, 67, 0
1, 471696, Note_on_c, 0, 62, 0
1, 471751, Note_on_c, 0, 74, 0
1, 471774, Note_on_c, 0, 67, 33
1, 471828, Note_on_c, 0, 79, 0
1, 471895, Note_on_c, 0, 67, 0
1, 472193, Note_on_c, 0, 64, 37
1, 472197, Note_on_c, 0, 74, 42
1, 472205, Control_c, 0, 64, 0
1, 472208, Note_on_c, 0, 67, 28
1, 472209, Note_on_c, 0, 70, 39
1, 472212, Note_on_c, 0, 77, 41
1, 472244, Note_on_c, 0, 58, 0
1, 472354, Control_c, 0, 64, 127
1, 472561, Note_on_c, 0, 74, 0
1, 472618, Note_on_c, 0, 77, 0
1, 472776, Note_on_c, 0, 70, 0
1, 472799, Note_on_c, 0, 67, 0
1, 472822, Note_on_c, 0, 64, 0
1, 472997, Note_on_c, 0, 76, 35
1, 473025, Control_c, 0, 64, 0
1, 473027, Note_on_c, 0, 61, 42
1, 473044, Note_on_c, 0, 64, 33
1, 473056, Note_on_c, 0, 68, 25
1, 473162, Control_c, 0, 64, 127
1, 473288, Note_on_c, 0, 76, 0
1, 473357, Note_on_c, 0, 68, 0
1, 473407, Note_on_c, 0, 64, 0
1, 473515, Control_c, 0, 64, 0
1, 473516, Note_on_c, 0, 74, 53
1, 473527, Note_on_c, 0, 64, 44
1, 473542, Note_on_c, 0, 68, 34
1, 473551, Note_on_c, 0, 58, 39
1, 473558, Note_on_c, 0, 61, 0
1, 473617, Control_c, 0, 64, 127
1, 473720, Note_on_c, 0, 68, 0
1, 473769, Note_on_c, 0, 74, 0
1, 473821, Note_on_c, 0, 64, 0
1, 473849, Note_on_c, 0, 58, 0
1, 473988, Note_on_c, 0, 73, 47
1, 474010, Note_on_c, 0, 64, 46
1, 474012, Note_on_c, 0, 68, 55
1, 474301, Note_on_c, 0, 73, 0
1, 474319, Note_on_c, 0, 64, 0
1, 474403, Note_on_c, 0, 68, 0
1, 474495, Control_c, 0, 64, 0
1, 474505, Note_on_c, 0, 72, 49
1, 474526, Note_on_c, 0, 67, 41
1, 474536, Note_on_c, 0, 62, 27
1, 474537, Note_on_c, 0, 41, 39
1, 474640, Control_c, 0, 64, 127
1, 474796, Note_on_c, 0, 72, 0
1, 474814, Note_on_c, 0, 67, 0
1, 474998, Note_on_c, 0, 62, 0
1, 475070, Note_on_c, 0, 48, 48
1, 475609, Note_on_c, 0, 64, 58
1, 475622, Note_on_c, 0, 60, 45
1, 475631, Note_on_c, 0, 57, 44
1, 476071, Note_on_c, 0, 48, 0
1, 476122, Note_on_c, 0, 57, 0
1, 476199, Note_on_c, 0, 48, 38
1, 476230, Note_on_c, 0, 64, 0
1, 476333, Note_on_c, 0, 60, 0
1, 476681, Note_on_c, 0, 48, 0
1, 476811, Note_on_c, 0, 60, 40
1, 476815, Note_on_c, 0, 41, 0
1, 476816, Note_on_c, 0, 57, 49
1, 477027, Note_on_c, 0, 57, 0
1, 477077, Note_on_c, 0, 60, 0
1, 477496, Note_on_c, 0, 72, 81
1, 477953, Note_on_c, 0, 72, 0
1, 478223, Note_on_c, 0, 69, 74
1, 478232, Note_on_c, 0, 65, 76
1, 478263, Control_c, 0, 64, 0
1, 478264, Note_on_c, 0, 49, 37
1, 478265, Note_on_c, 0, 57, 53
1, 478524, Control_c, 0, 64, 127
1, 478911, Note_on_c, 0, 65, 0
1, 479130, Note_on_c, 0, 65, 45
1, 479331, Note_on_c, 0, 69, 0
1, 479334, Note_on_c, 0, 65, 0
1, 479348, Note_on_c, 0, 49, 0
1, 479584, Note_on_c, 0, 57, 0
1, 479914, Control_c, 0, 64, 0
1, 479920, Note_on_c, 0, 77, 55
1, 479922, Note_on_c, 0, 69, 37
1, 479939, Note_on_c, 0, 65, 36
1, 479974, Note_on_c, 0, 50, 30
1, 480131, Control_c, 0, 64, 127
1, 480574, Note_on_c, 0, 57, 41
1, 480625, Note_on_c, 0, 50, 0
1, 480996, Note_on_c, 0, 65, 0
1, 481041, Note_on_c, 0, 69, 0
1, 481201, Note_on_c, 0, 69, 43
1, 481203, Note_on_c, 0, 64, 48
1, 481214, Note_on_c, 0, 65, 33
1, 481582, Note_on_c, 0, 64, 0
1, 481919, Note_on_c, 0, 62, 36
1, 481995, Note_on_c, 0, 65, 0
1, 482023, Note_on_c, 0, 62, 0
1, 482047, Note_on_c, 0, 69, 0
1, 482108, Note_on_c, 0, 57, 0
1, 482169, Note_on_c, 0, 77, 0
1, 482846, Note_on_c, 0, 34, 65
1, 482864, Control_c, 0, 64, 0
1, 483011, Control_c, 0, 64, 127
1, 483069, Note_on_c, 0, 34, 0
1, 483673, Control_c, 0, 64, 0
1, 483694, Note_on_c, 0, 77, 70
1, 483708, Note_on_c, 0, 56, 57
1, 483709, Note_on_c, 0, 72, 64
1, 483710, Note_on_c, 0, 67, 56
1, 483727, Note_on_c, 0, 62, 29
1, 483796, Control_c, 0, 64, 127
1, 484197, Note_on_c, 0, 62, 0
1, 484251, Note_on_c, 0, 56, 0
1, 484312, Note_on_c, 0, 67, 0
1, 484369, Note_on_c, 0, 72, 0
1, 484445, Note_on_c, 0, 77, 0
1, 484733, Note_on_c, 0, 76, 45
1, 484754, Control_c, 0, 64, 0
1, 484756, Note_on_c, 0, 72, 43
1, 484761, Note_on_c, 0, 67, 33
1, 484770, Note_on_c, 0, 62, 32
1, 484793, Note_on_c, 0, 56, 43
1, 484923, Control_c, 0, 64, 127
1, 485390, Note_on_c, 0, 56, 0
1, 485398, Note_on_c, 0, 67, 0
1, 485403, Note_on_c, 0, 62, 0
1, 485404, Note_on_c, 0, 72, 0
1, 485578, Note_on_c, 0, 76, 0
1, 485847, Note_on_c, 0, 74, 38
1, 485864, Note_on_c, 0, 67, 26
1, 485870, Note_on_c, 0, 56, 37
1, 485889, Note_on_c, 0, 62, 27
1, 486129, Note_on_c, 0, 62, 0
1, 486222, Note_on_c, 0, 56, 0
1, 486426, Note_on_c, 0, 74, 0
1, 486481, Note_on_c, 0, 67, 0
1, 487053, Control_c, 0, 64, 0
1, 487161, Note_on_c, 0, 45, 64
1, 487168, Control_c, 0, 64, 127
1, 487293, Note_on_c, 0, 45, 0
1, 487782, Note_on_c, 0, 84, 76
1, 487791, Note_on_c, 0, 61, 61
1, 487793, Note_on_c, 0, 60, 62
1, 487795, Note_on_c, 0, 77, 76
1, 487796, Note_on_c, 0, 65, 75
1, 487797, Note_on_c, 0, 72, 68
1, 487799, Note_on_c, 0, 81, 70
1, 487799, Note_on_c, 0, 55, 55
1, 488192, Note_on_c, 0, 72, 0
1, 488196, Note_on_c, 0, 55, 0
1, 488197, Note_on_c, 0, 77, 0
1, 488204, Note_on_c, 0, 65, 0
1, 488205, Note_on_c, 0, 60, 0
1, 488208, Note_on_c, 0, 84, 0
1, 488225, Note_on_c, 0, 61, 0
1, 488231, Note_on_c, 0, 81, 0
1, 488412, Note_on_c, 0, 84, 65
1, 488420, Note_on_c, 0, 61, 59
1, 488422, Note_on_c, 0, 72, 60
1, 488423, Note_on_c, 0, 77, 63
1, 488425, Note_on_c, 0, 81, 62
1, 488427, Note_on_c, 0, 65, 71
1, 488428, Note_on_c, 0, 60, 54
1, 488437, Note_on_c, 0, 55, 44
1, 488751, Note_on_c, 0, 61, 0
1, 488773, Note_on_c, 0, 55, 0
1, 488780, Note_on_c, 0, 77, 0
1, 488784, Note_on_c, 0, 60, 0
1, 488787, Note_on_c, 0, 72, 0
1, 488802, Note_on_c, 0, 65, 0
1, 488803, Note_on_c, 0, 81, 0
1, 488830, Note_on_c, 0, 84, 0
1, 489065, Note_on_c, 0, 84, 50
1, 489068, Note_on_c, 0, 61, 49
1, 489074, Note_on_c, 0, 72, 49
1, 489077, Note_on_c, 0, 65, 50
1, 489079, Note_on_c, 0, 81, 53
1, 489080, Note_on_c, 0, 77, 54
1, 489094, Note_on_c, 0, 55, 34
1, 489175, Note_on_c, 0, 65, 0
1, 489206, Note_on_c, 0, 61, 0
1, 489280, Note_on_c, 0, 55, 0
1, 489528, Note_on_c, 0, 77, 0
1, 489563, Note_on_c, 0, 72, 0
1, 489579, Note_on_c, 0, 81, 0
1, 489608, Note_on_c, 0, 84, 0
1, 489787, Control_c, 0, 64, 0
1, 489815, Note_on_c, 0, 38, 38
1, 489816, Note_on_c, 0, 26, 40
1, 489825, Note_on_c, 0, 84, 37
1, 489829, Note_on_c, 0, 72, 36
1, 489831, Note_on_c, 0, 77, 42
1, 489832, Note_on_c, 0, 81, 50
1, 489935, Note_on_c, 0, 26, 0
1, 489946, Control_c, 0, 64, 127
1, 490016, Note_on_c, 0, 38, 0
1, 490101, Note_on_c, 0, 77, 0
1, 490277, Note_on_c, 0, 72, 0
1, 490390, Note_on_c, 0, 81, 0
1, 490438, Note_on_c, 0, 84, 0
1, 490648, Note_on_c, 0, 54, 39
1, 490665, Note_on_c, 0, 84, 20
1, 490667, Note_on_c, 0, 78, 34
1, 490673, Note_on_c, 0, 65, 31
1, 490678, Note_on_c, 0, 72, 20
1, 490684, Note_on_c, 0, 60, 24
1, 491026, Note_on_c, 0, 60, 0
1, 491046, Note_on_c, 0, 65, 0
1, 491088, Note_on_c, 0, 54, 0
1, 491108, Note_on_c, 0, 72, 0
1, 491129, Note_on_c, 0, 78, 0
1, 491159, Note_on_c, 0, 84, 0
1, 491512, Note_on_c, 0, 84, 19
1, 491518, Note_on_c, 0, 78, 32
1, 491529, Note_on_c, 0, 65, 29
1, 491534, Note_on_c, 0, 72, 28
1, 491550, Note_on_c, 0, 54, 21
1, 491552, Note_on_c, 0, 60, 24
1, 491836, Note_on_c, 0, 72, 0
1, 491838, Note_on_c, 0, 65, 0
1, 491858, Note_on_c, 0, 60, 0
1, 491906, Note_on_c, 0, 78, 0
1, 492011, Note_on_c, 0, 54, 0
1, 492020, Note_on_c, 0, 84, 0
1, 492689, Note_on_c, 0, 93, 70
1, 492712, Note_on_c, 0, 81, 37
1, 492714, Note_on_c, 0, 57, 48
1, 493517, Note_on_c, 0, 81, 0
1, 493593, Note_on_c, 0, 57, 0
1, 493621, Note_on_c, 0, 93, 0
1, 493644, Note_on_c, 0, 89, 44
1, 493660, Note_on_c, 0, 53, 24
1, 494499, Note_on_c, 0, 89, 0
1, 494603, Note_on_c, 0, 53, 0
1, 495501, Note_on_c, 0, 101, 74
1, 495510, Note_on_c, 0, 65, 67
1, 495536, Control_c, 0, 64, 0
1, 495776, Control_c, 0, 64, 127
1, 496166, Note_on_c, 0, 101, 0
1, 496866, Note_on_c, 0, 65, 0
1, 497715, Note_on_c, 0, 48, 36
1, 497720, Marker_t, "Chord quickly rolled downwards"
1, 497776, Note_on_c, 0, 77, 37
1, 497834, Note_on_c, 0, 74, 38
1, 497867, Note_on_c, 0, 70, 49
1, 497926, Note_on_c, 0, 58, 29
1, 497989, Note_on_c, 0, 65, 43
1, 498485, Note_on_c, 0, 48, 0
1, 498514, Note_on_c, 0, 58, 0
1, 499842, Note_on_c, 0, 24, 33
1, 500300, Note_on_c, 0, 24, 0
1, 500716, Note_on_c, 0, 65, 0
1, 500847, Note_on_c, 0, 70, 0
1, 501065, Note_on_c, 0, 74, 0
1, 501169, Note_on_c, 0, 77, 0
1, 502043, Note_on_c, 0, 58, 37
1, 502178, Note_on_c, 0, 64, 44
1, 502359, Note_on_c, 0, 69, 34
1, 502510, Note_on_c, 0, 73, 33
1, 502680, Note_on_c, 0, 79, 54
1, 504701, Note_on_c, 0, 64, 0
1, 504799, Note_on_c, 0, 69, 0
1, 504834, Note_on_c, 0, 58, 0
1, 504880, Note_on_c, 0, 79, 0
1, 504996, Note_on_c, 0, 73, 0
1, 505558, Marker_t, "Finish  - Major 7th chords down (F - Eb -Db) to C7 sus for simple finish on F"
1, 505579, Control_c, 0, 64, 0
1, 505588, Note_on_c, 0, 77, 47
1, 505593, Note_on_c, 0, 62, 24
1, 505596, Note_on_c, 0, 57, 42
1, 505601, Note_on_c, 0, 72, 34
1, 505602, Note_on_c, 0, 67, 28
1, 505693, Control_c, 0, 64, 127
1, 505935, Note_on_c, 0, 77, 0
1, 506079, Note_on_c, 0, 77, 55
1, 506164, Marker_t, "The common tone (F) is repeated as the topmost note through the sequence of chords"
1, 506362, Note_on_c, 0, 77, 0
1, 506613, Note_on_c, 0, 77, 49
1, 506980, Note_on_c, 0, 77, 0
1, 507312, Note_on_c, 0, 77, 39
1, 507792, Note_on_c, 0, 77, 0
1, 507911, Note_on_c, 0, 77, 44
1, 508247, Note_on_c, 0, 77, 0
1, 508469, Note_on_c, 0, 77, 45
1, 508793, Note_on_c, 0, 77, 0
1, 508971, Note_on_c, 0, 77, 50
1, 509193, Note_on_c, 0, 77, 0
1, 509358, Note_on_c, 0, 77, 51
1, 509427, Note_on_c, 0, 62, 0
1, 509444, Note_on_c, 0, 67, 0
1, 509453, Note_on_c, 0, 57, 0
1, 509525, Note_on_c, 0, 72, 0
1, 509552, Note_on_c, 0, 77, 0
1, 509804, Control_c, 0, 64, 0
1, 509809, Note_on_c, 0, 77, 54
1, 509821, Note_on_c, 0, 72, 50
1, 509836, Note_on_c, 0, 51, 42
1, 509839, Note_on_c, 0, 65, 29
1, 510009, Control_c, 0, 64, 127
1, 510121, Note_on_c, 0, 77, 0
1, 510228, Note_on_c, 0, 77, 44
1, 510237, Note_on_c, 0, 65, 0
1, 510276, Note_on_c, 0, 58, 39
1, 510377, Note_on_c, 0, 51, 0
1, 510424, Note_on_c, 0, 77, 0
1, 510431, Note_on_c, 0, 72, 0
1, 510650, Note_on_c, 0, 58, 0
1, 510658, Note_on_c, 0, 65, 37
1, 510661, Note_on_c, 0, 77, 39
1, 510664, Note_on_c, 0, 72, 34
1, 510856, Note_on_c, 0, 77, 0
1, 511023, Note_on_c, 0, 65, 0
1, 511080, Note_on_c, 0, 77, 38
1, 511087, Note_on_c, 0, 70, 53
1, 511215, Note_on_c, 0, 72, 0
1, 511351, Note_on_c, 0, 77, 0
1, 511556, Note_on_c, 0, 72, 47
1, 511557, Note_on_c, 0, 70, 0
1, 511560, Note_on_c, 0, 77, 44
1, 512008, Note_on_c, 0, 70, 33
1, 512307, Note_on_c, 0, 72, 0
1, 512316, Note_on_c, 0, 77, 0
1, 512318, Note_on_c, 0, 70, 0
1, 512504, Note_on_c, 0, 72, 31
1, 512510, Note_on_c, 0, 77, 31
1, 513186, Note_on_c, 0, 72, 0
1, 513275, Note_on_c, 0, 77, 0
1, 513760, Note_on_c, 0, 77, 37
1, 513763, Note_on_c, 0, 72, 40
1, 513770, Note_on_c, 0, 65, 29
1, 513788, Control_c, 0, 64, 0
1, 513813, Note_on_c, 0, 49, 23
1, 513982, Control_c, 0, 64, 127
1, 514128, Note_on_c, 0, 77, 0
1, 514255, Note_on_c, 0, 77, 36
1, 514277, Note_on_c, 0, 56, 43
1, 514518, Note_on_c, 0, 77, 0
1, 514556, Note_on_c, 0, 72, 0
1, 514571, Note_on_c, 0, 65, 0
1, 514745, Note_on_c, 0, 77, 32
1, 514746, Note_on_c, 0, 60, 41
1, 514759, Note_on_c, 0, 72, 36
1, 514770, Note_on_c, 0, 65, 24
1, 514776, Note_on_c, 0, 49, 0
1, 514779, Control_c, 0, 64, 0
1, 514801, Note_on_c, 0, 56, 0
1, 514905, Control_c, 0, 64, 127
1, 515205, Note_on_c, 0, 61, 44
1, 515265, Note_on_c, 0, 60, 0
1, 515313, Note_on_c, 0, 65, 0
1, 515461, Note_on_c, 0, 77, 0
1, 515464, Note_on_c, 0, 72, 0
1, 515723, Note_on_c, 0, 65, 40
1, 515725, Control_c, 0, 64, 0
1, 515731, Note_on_c, 0, 77, 38
1, 515745, Note_on_c, 0, 72, 26
1, 515804, Control_c, 0, 64, 127
1, 515812, Note_on_c, 0, 61, 0
1, 516220, Note_on_c, 0, 68, 36
1, 516224, Note_on_c, 0, 65, 0
1, 516492, Note_on_c, 0, 77, 0
1, 516585, Note_on_c, 0, 72, 0
1, 516784, Note_on_c, 0, 68, 0
1, 516811, Note_on_c, 0, 72, 30
1, 516818, Note_on_c, 0, 77, 24
1, 516827, Note_on_c, 0, 65, 18
1, 516959, Note_on_c, 0, 65, 0
1, 517521, Note_on_c, 0, 49, 19
1, 517545, Note_on_c, 0, 72, 0
1, 517974, Note_on_c, 0, 49, 0
1, 517983, Note_on_c, 0, 77, 0
1, 518594, Control_c, 0, 64, 0
1, 518596, Note_on_c, 0, 77, 46
1, 518607, Note_on_c, 0, 70, 44
1, 518613, Note_on_c, 0, 65, 32
1, 518643, Note_on_c, 0, 58, 23
1, 518654, Note_on_c, 0, 48, 24
1, 518776, Control_c, 0, 64, 127
1, 519103, Note_on_c, 0, 58, 0
1, 519153, Note_on_c, 0, 48, 0
1, 519218, Note_on_c, 0, 55, 30
1, 519821, Note_on_c, 0, 60, 33
1, 519858, Note_on_c, 0, 55, 0
1, 520415, Note_on_c, 0, 60, 0
1, 520621, Note_on_c, 0, 62, 30
1, 521124, Note_on_c, 0, 62, 0
1, 521210, Note_on_c, 0, 65, 0
1, 521320, Note_on_c, 0, 70, 0
1, 521589, Note_on_c, 0, 77, 0
1, 521784, Note_on_c, 0, 77, 36
1, 521798, Note_on_c, 0, 64, 34
1, 521800, Note_on_c, 0, 60, 25
1, 521803, Note_on_c, 0, 70, 34
1, 521816, Control_c, 0, 64, 0
1, 522240, Control_c, 0, 64, 127
1, 522468, Note_on_c, 0, 60, 0
1, 522544, Note_on_c, 0, 48, 32
1, 522717, Note_on_c, 0, 48, 0
1, 523428, Note_on_c, 0, 36, 25
1, 524480, Note_on_c, 0, 36, 0
1, 524596, Note_on_c, 0, 24, 40
1, 525279, Note_on_c, 0, 24, 0
1, 525449, Note_on_c, 0, 64, 0
1, 525537, Note_on_c, 0, 77, 0
1, 525977, Note_on_c, 0, 70, 0
1, 527640, Note_on_c, 0, 29, 40
1, 527640, Control_c, 0, 64, 0
1, 533400, Note_on_c, 0, 29, 0
1, 533400, End_track
0, 0, End_of_file
