0, 0, Header, 1, 7, 120
1, 0, Start_track
1, 0, Title_t, "Try To Remember"
1, 0, Text_t, "Played in real time - not edited - using Steinberg's 'The Grand'. The idea for this treatment came from Kenny Werner's performance on his Maybeck Hall solo piano CD\012"
1, 0, Time_signature, 3, 2, 24, 8
1, 0, Key_signature, 0, "major"
1, 0, Tempo, 400000
1, 0, Marker_t, "Very simple LH repetitive figure - 'Music Box'-style high in the treble register"
1, 7549, Marker_t, "Contrasts with 'lusher' more complex harmonies through the bridge played rubato"
1, 14895, Marker_t, "Back to the music box!"
1, 19117, Marker_t, "Improvised solo section - simple folk-like lines over the A section"
1, 27822, Marker_t, "Again the bridge played with more complex chords/harmonies out of tempo"
1, 35267, Marker_t, "Back in tempo"
1, 35267, End_track
2, 0, Start_track
2, 0, End_track
3, 0, Start_track
3, 0, Title_t, "Solo Piano in Real time"
3, 0, Control_c, 0, 7, 127
3, 0, Control_c, 0, 10, 63
3, 0, Control_c, 0, 64, 127
3, 206, Note_on_c, 0, 67, 32
3, 210, Note_on_c, 0, 88, 42
3, 211, Control_c, 0, 64, 0
3, 247, Control_c, 0, 64, 127
3, 309, Note_on_c, 0, 72, 20
3, 381, Note_on_c, 0, 72, 0
3, 387, Note_on_c, 0, 74, 45
3, 459, Note_on_c, 0, 74, 0
3, 466, Note_on_c, 0, 76, 40
3, 498, Note_on_c, 0, 88, 0
3, 537, Note_on_c, 0, 71, 48
3, 538, Note_on_c, 0, 76, 0
3, 539, Note_on_c, 0, 88, 79
3, 541, Control_c, 0, 64, 0
3, 560, Control_c, 0, 64, 127
3, 613, Note_on_c, 0, 72, 40
3, 617, Note_on_c, 0, 88, 0
3, 664, Note_on_c, 0, 67, 0
3, 680, Note_on_c, 0, 71, 0
3, 685, Control_c, 0, 64, 0
3, 686, Note_on_c, 0, 88, 91
3, 692, Note_on_c, 0, 67, 30
3, 698, Note_on_c, 0, 72, 0
3, 726, Control_c, 0, 64, 127
3, 766, Note_on_c, 0, 72, 24
3, 839, Note_on_c, 0, 72, 0
3, 846, Note_on_c, 0, 74, 32
3, 919, Note_on_c, 0, 74, 0
3, 933, Note_on_c, 0, 76, 20
3, 993, Note_on_c, 0, 76, 0
3, 997, Note_on_c, 0, 71, 37
3, 1008, Control_c, 0, 64, 0
3, 1010, Note_on_c, 0, 86, 48
3, 1027, Control_c, 0, 64, 127
3, 1089, Note_on_c, 0, 71, 0
3, 1090, Note_on_c, 0, 86, 0
3, 1091, Note_on_c, 0, 88, 0
3, 1092, Note_on_c, 0, 72, 28
3, 1093, Note_on_c, 0, 84, 48
3, 1133, Note_on_c, 0, 67, 0
3, 1165, Note_on_c, 0, 84, 0
3, 1170, Note_on_c, 0, 72, 0
3, 1171, Note_on_c, 0, 77, 40
3, 1176, Control_c, 0, 64, 0
3, 1179, Note_on_c, 0, 67, 26
3, 1224, Control_c, 0, 64, 127
3, 1249, Note_on_c, 0, 77, 0
3, 1250, Note_on_c, 0, 74, 49
3, 1303, Note_on_c, 0, 74, 0
3, 1327, Note_on_c, 0, 76, 61
3, 1395, Note_on_c, 0, 76, 0
3, 1401, Note_on_c, 0, 77, 58
3, 1465, Note_on_c, 0, 77, 0
3, 1472, Control_c, 0, 64, 0
3, 1474, Note_on_c, 0, 72, 34
3, 1501, Control_c, 0, 64, 127
3, 1547, Note_on_c, 0, 72, 0
3, 1550, Note_on_c, 0, 77, 42
3, 1552, Note_on_c, 0, 74, 39
3, 1596, Note_on_c, 0, 67, 0
3, 1609, Note_on_c, 0, 77, 0
3, 1621, Control_c, 0, 64, 0
3, 1631, Note_on_c, 0, 77, 34
3, 1632, Note_on_c, 0, 67, 40
3, 1639, Note_on_c, 0, 74, 0
3, 1654, Control_c, 0, 64, 127
3, 1717, Note_on_c, 0, 74, 42
3, 1743, Note_on_c, 0, 74, 0
3, 1761, Note_on_c, 0, 74, 11
3, 1794, Note_on_c, 0, 74, 0
3, 1796, Note_on_c, 0, 76, 60
3, 1796, Note_on_c, 0, 77, 0
3, 1854, Note_on_c, 0, 76, 0
3, 1874, Note_on_c, 0, 77, 48
3, 1927, Note_on_c, 0, 77, 0
3, 1949, Note_on_c, 0, 77, 41
3, 1952, Note_on_c, 0, 72, 26
3, 1955, Control_c, 0, 64, 0
3, 1977, Control_c, 0, 64, 127
3, 2030, Note_on_c, 0, 72, 0
3, 2033, Note_on_c, 0, 74, 40
3, 2034, Note_on_c, 0, 79, 62
3, 2046, Note_on_c, 0, 77, 0
3, 2071, Note_on_c, 0, 67, 0
3, 2077, Note_on_c, 0, 81, 76
3, 2084, Note_on_c, 0, 79, 0
3, 2091, Note_on_c, 0, 83, 24
3, 2104, Note_on_c, 0, 83, 0
3, 2109, Control_c, 0, 64, 0
3, 2111, Note_on_c, 0, 81, 0
3, 2115, Note_on_c, 0, 79, 60
3, 2118, Note_on_c, 0, 67, 48
3, 2121, Note_on_c, 0, 74, 0
3, 2155, Control_c, 0, 64, 127
3, 2194, Note_on_c, 0, 72, 31
3, 2255, Note_on_c, 0, 72, 0
3, 2271, Note_on_c, 0, 74, 31
3, 2328, Note_on_c, 0, 79, 0
3, 2336, Note_on_c, 0, 74, 0
3, 2341, Note_on_c, 0, 76, 37
3, 2415, Note_on_c, 0, 71, 39
3, 2417, Note_on_c, 0, 76, 0
3, 2417, Control_c, 0, 64, 0
3, 2434, Control_c, 0, 64, 127
3, 2491, Note_on_c, 0, 88, 46
3, 2492, Note_on_c, 0, 72, 28
3, 2504, Note_on_c, 0, 71, 0
3, 2523, Note_on_c, 0, 67, 0
3, 2539, Note_on_c, 0, 88, 0
3, 2559, Control_c, 0, 64, 0
3, 2564, Note_on_c, 0, 72, 0
3, 2568, Note_on_c, 0, 67, 39
3, 2570, Note_on_c, 0, 96, 42
3, 2598, Control_c, 0, 64, 127
3, 2655, Note_on_c, 0, 74, 24
3, 2720, Note_on_c, 0, 74, 0
3, 2727, Note_on_c, 0, 76, 38
3, 2800, Note_on_c, 0, 76, 0
3, 2803, Note_on_c, 0, 79, 32
3, 2860, Note_on_c, 0, 67, 0
3, 2880, Note_on_c, 0, 91, 46
3, 2881, Note_on_c, 0, 67, 44
3, 2905, Note_on_c, 0, 67, 0
3, 2944, Note_on_c, 0, 91, 0
3, 2946, Note_on_c, 0, 96, 0
3, 2954, Note_on_c, 0, 79, 0
3, 2962, Note_on_c, 0, 67, 45
3, 3016, Note_on_c, 0, 67, 0
3, 3045, Note_on_c, 0, 105, 78
3, 3048, Note_on_c, 0, 96, 60
3, 3048, Note_on_c, 0, 67, 58
3, 3050, Control_c, 0, 64, 0
3, 3086, Control_c, 0, 64, 127
3, 3125, Note_on_c, 0, 74, 49
3, 3189, Note_on_c, 0, 74, 0
3, 3202, Note_on_c, 0, 76, 40
3, 3273, Note_on_c, 0, 76, 0
3, 3281, Note_on_c, 0, 77, 46
3, 3358, Note_on_c, 0, 77, 0
3, 3360, Note_on_c, 0, 72, 29
3, 3431, Note_on_c, 0, 74, 50
3, 3436, Note_on_c, 0, 105, 0
3, 3456, Note_on_c, 0, 96, 0
3, 3478, Note_on_c, 0, 67, 0
3, 3503, Note_on_c, 0, 72, 0
3, 3507, Note_on_c, 0, 67, 37
3, 3514, Control_c, 0, 64, 0
3, 3515, Note_on_c, 0, 74, 0
3, 3538, Control_c, 0, 64, 127
3, 3656, Note_on_c, 0, 74, 32
3, 3657, Note_on_c, 0, 76, 38
3, 3691, Note_on_c, 0, 76, 0
3, 3719, Note_on_c, 0, 74, 0
3, 3735, Note_on_c, 0, 77, 44
3, 3809, Note_on_c, 0, 72, 36
3, 3820, Note_on_c, 0, 77, 0
3, 3880, Note_on_c, 0, 72, 0
3, 3886, Note_on_c, 0, 74, 48
3, 3931, Note_on_c, 0, 67, 0
3, 3967, Note_on_c, 0, 100, 52
3, 3968, Note_on_c, 0, 67, 26
3, 3970, Note_on_c, 0, 74, 0
3, 3971, Control_c, 0, 64, 0
3, 3972, Note_on_c, 0, 91, 42
3, 4014, Control_c, 0, 64, 127
3, 4048, Note_on_c, 0, 72, 24
3, 4115, Note_on_c, 0, 72, 0
3, 4121, Note_on_c, 0, 74, 55
3, 4168, Note_on_c, 0, 91, 0
3, 4171, Note_on_c, 0, 100, 0
3, 4197, Note_on_c, 0, 74, 0
3, 4200, Note_on_c, 0, 76, 62
3, 4200, Note_on_c, 0, 100, 87
3, 4267, Note_on_c, 0, 71, 49
3, 4272, Control_c, 0, 64, 0
3, 4273, Note_on_c, 0, 76, 0
3, 4301, Control_c, 0, 64, 127
3, 4332, Note_on_c, 0, 100, 0
3, 4346, Note_on_c, 0, 72, 65
3, 4397, Note_on_c, 0, 67, 0
3, 4403, Note_on_c, 0, 71, 0
3, 4423, Note_on_c, 0, 67, 47
3, 4424, Note_on_c, 0, 100, 88
3, 4426, Control_c, 0, 64, 0
3, 4432, Note_on_c, 0, 72, 0
3, 4479, Control_c, 0, 64, 127
3, 4500, Note_on_c, 0, 71, 36
3, 4528, Note_on_c, 0, 71, 0
3, 4585, Note_on_c, 0, 72, 22
3, 4608, Note_on_c, 0, 72, 0
3, 4653, Note_on_c, 0, 98, 60
3, 4667, Note_on_c, 0, 76, 37
3, 4680, Note_on_c, 0, 100, 0
3, 4719, Note_on_c, 0, 76, 0
3, 4740, Note_on_c, 0, 72, 29
3, 4770, Note_on_c, 0, 67, 0
3, 4819, Note_on_c, 0, 96, 40
3, 4820, Note_on_c, 0, 67, 32
3, 4863, Note_on_c, 0, 67, 0
3, 4888, Note_on_c, 0, 72, 0
3, 4891, Note_on_c, 0, 96, 0
3, 4899, Note_on_c, 0, 98, 0
3, 4900, Note_on_c, 0, 93, 40
3, 4902, Control_c, 0, 64, 0
3, 4902, Note_on_c, 0, 67, 33
3, 4948, Control_c, 0, 64, 127
3, 4970, Note_on_c, 0, 93, 0
3, 4975, Note_on_c, 0, 74, 34
3, 4976, Note_on_c, 0, 89, 44
3, 5052, Note_on_c, 0, 76, 61
3, 5070, Note_on_c, 0, 74, 0
3, 5128, Note_on_c, 0, 77, 58
3, 5133, Note_on_c, 0, 76, 0
3, 5180, Note_on_c, 0, 89, 0
3, 5198, Note_on_c, 0, 72, 26
3, 5200, Control_c, 0, 64, 0
3, 5204, Note_on_c, 0, 89, 35
3, 5207, Note_on_c, 0, 77, 0
3, 5239, Control_c, 0, 64, 127
3, 5278, Note_on_c, 0, 72, 0
3, 5279, Note_on_c, 0, 74, 41
3, 5316, Note_on_c, 0, 67, 0
3, 5320, Note_on_c, 0, 89, 0
3, 5347, Control_c, 0, 64, 0
3, 5351, Note_on_c, 0, 89, 40
3, 5356, Note_on_c, 0, 67, 41
3, 5358, Note_on_c, 0, 74, 0
3, 5383, Control_c, 0, 64, 127
3, 5430, Note_on_c, 0, 74, 39
3, 5499, Note_on_c, 0, 91, 49
3, 5500, Note_on_c, 0, 74, 0
3, 5501, Note_on_c, 0, 76, 44
3, 5509, Note_on_c, 0, 89, 0
3, 5571, Note_on_c, 0, 77, 51
3, 5574, Note_on_c, 0, 76, 0
3, 5646, Note_on_c, 0, 93, 75
3, 5657, Note_on_c, 0, 91, 0
3, 5662, Note_on_c, 0, 77, 0
3, 5711, Note_on_c, 0, 93, 0
3, 5722, Note_on_c, 0, 72, 24
3, 5766, Note_on_c, 0, 67, 0
3, 5796, Note_on_c, 0, 91, 34
3, 5799, Note_on_c, 0, 72, 0
3, 5803, Note_on_c, 0, 67, 24
3, 5807, Note_on_c, 0, 79, 28
3, 5814, Control_c, 0, 64, 0
3, 5871, Control_c, 0, 64, 127
3, 5881, Note_on_c, 0, 72, 26
3, 5950, Note_on_c, 0, 72, 0
3, 5956, Note_on_c, 0, 74, 38
3, 6018, Note_on_c, 0, 74, 0
3, 6034, Note_on_c, 0, 76, 27
3, 6060, Note_on_c, 0, 79, 0
3, 6085, Control_c, 0, 64, 0
3, 6100, Note_on_c, 0, 71, 46
3, 6108, Note_on_c, 0, 76, 0
3, 6117, Control_c, 0, 64, 127
3, 6173, Note_on_c, 0, 91, 0
3, 6175, Note_on_c, 0, 88, 62
3, 6177, Note_on_c, 0, 72, 43
3, 6218, Note_on_c, 0, 67, 0
3, 6228, Note_on_c, 0, 71, 0
3, 6229, Note_on_c, 0, 88, 0
3, 6258, Note_on_c, 0, 67, 51
3, 6258, Note_on_c, 0, 96, 71
3, 6258, Note_on_c, 0, 72, 0
3, 6266, Control_c, 0, 64, 0
3, 6297, Control_c, 0, 64, 127
3, 6322, Note_on_c, 0, 72, 26
3, 6396, Note_on_c, 0, 72, 0
3, 6396, Note_on_c, 0, 74, 57
3, 6461, Note_on_c, 0, 74, 0
3, 6466, Note_on_c, 0, 76, 67
3, 6540, Note_on_c, 0, 76, 0
3, 6542, Note_on_c, 0, 71, 54
3, 6545, Note_on_c, 0, 91, 68
3, 6595, Note_on_c, 0, 96, 0
3, 6627, Note_on_c, 0, 72, 54
3, 6640, Note_on_c, 0, 67, 0
3, 6690, Note_on_c, 0, 71, 0
3, 6702, Note_on_c, 0, 91, 0
3, 6705, Note_on_c, 0, 93, 71
3, 6707, Note_on_c, 0, 72, 0
3, 6708, Note_on_c, 0, 67, 44
3, 6713, Control_c, 0, 64, 0
3, 6766, Control_c, 0, 64, 127
3, 6784, Note_on_c, 0, 74, 50
3, 6858, Note_on_c, 0, 74, 0
3, 6863, Note_on_c, 0, 76, 55
3, 6925, Note_on_c, 0, 76, 0
3, 6939, Note_on_c, 0, 77, 40
3, 7009, Control_c, 0, 64, 0
3, 7011, Note_on_c, 0, 72, 22
3, 7024, Control_c, 0, 64, 127
3, 7028, Note_on_c, 0, 77, 0
3, 7063, Note_on_c, 0, 93, 0
3, 7096, Note_on_c, 0, 74, 50
3, 7104, Note_on_c, 0, 72, 0
3, 7117, Note_on_c, 0, 67, 0
3, 7187, Note_on_c, 0, 74, 0
3, 7197, Control_c, 0, 64, 0
3, 7197, Note_on_c, 0, 86, 60
3, 7200, Note_on_c, 0, 67, 33
3, 7216, Control_c, 0, 64, 127
3, 7302, Note_on_c, 0, 67, 0
3, 7303, Note_on_c, 0, 74, 34
3, 7346, Note_on_c, 0, 74, 0
3, 7349, Note_on_c, 0, 86, 0
3, 7419, Note_on_c, 0, 88, 40
3, 7426, Note_on_c, 0, 66, 37
3, 7430, Note_on_c, 0, 76, 24
3, 7433, Control_c, 0, 64, 0
3, 7466, Control_c, 0, 64, 127
3, 7500, Note_on_c, 0, 76, 0
3, 7544, Note_on_c, 0, 76, 41
3, 7576, Note_on_c, 0, 76, 0
3, 7606, Note_on_c, 0, 88, 0
3, 7644, Note_on_c, 0, 66, 0
3, 7790, Note_on_c, 0, 89, 33
3, 7791, Note_on_c, 0, 65, 34
3, 7796, Note_on_c, 0, 79, 27
3, 7799, Note_on_c, 0, 74, 24
3, 7801, Note_on_c, 0, 83, 31
3, 7808, Control_c, 0, 64, 0
3, 7875, Control_c, 0, 64, 127
3, 7971, Note_on_c, 0, 71, 26
3, 7985, Note_on_c, 0, 74, 0
3, 7988, Note_on_c, 0, 89, 0
3, 7992, Note_on_c, 0, 83, 0
3, 8027, Note_on_c, 0, 71, 0
3, 8035, Note_on_c, 0, 79, 0
3, 8037, Note_on_c, 0, 65, 0
3, 8340, Control_c, 0, 64, 0
3, 8347, Note_on_c, 0, 28, 36
3, 8364, Control_c, 0, 64, 127
3, 8390, Note_on_c, 0, 28, 0
3, 8537, Note_on_c, 0, 91, 50
3, 8544, Note_on_c, 0, 56, 36
3, 8544, Note_on_c, 0, 67, 35
3, 8545, Note_on_c, 0, 88, 53
3, 8546, Note_on_c, 0, 84, 36
3, 8549, Note_on_c, 0, 62, 38
3, 8555, Note_on_c, 0, 79, 22
3, 8716, Note_on_c, 0, 91, 0
3, 8778, Note_on_c, 0, 91, 58
3, 8864, Note_on_c, 0, 67, 0
3, 8876, Note_on_c, 0, 56, 0
3, 8888, Note_on_c, 0, 62, 0
3, 8896, Note_on_c, 0, 91, 0
3, 8927, Note_on_c, 0, 91, 42
3, 8966, Note_on_c, 0, 79, 0
3, 8987, Note_on_c, 0, 91, 0
3, 9033, Note_on_c, 0, 84, 0
3, 9033, Note_on_c, 0, 88, 0
3, 9045, Control_c, 0, 64, 0
3, 9047, Note_on_c, 0, 33, 44
3, 9048, Note_on_c, 0, 91, 48
3, 9081, Control_c, 0, 64, 127
3, 9086, Note_on_c, 0, 33, 0
3, 9214, Note_on_c, 0, 61, 50
3, 9217, Note_on_c, 0, 60, 36
3, 9219, Note_on_c, 0, 65, 27
3, 9221, Note_on_c, 0, 55, 31
3, 9306, Note_on_c, 0, 65, 0
3, 9307, Note_on_c, 0, 91, 0
3, 9312, Note_on_c, 0, 61, 0
3, 9320, Note_on_c, 0, 89, 72
3, 9320, Note_on_c, 0, 86, 87
3, 9392, Note_on_c, 0, 86, 0
3, 9395, Note_on_c, 0, 89, 0
3, 9426, Note_on_c, 0, 89, 61
3, 9427, Note_on_c, 0, 61, 37
3, 9427, Note_on_c, 0, 86, 72
3, 9432, Note_on_c, 0, 65, 34
3, 9518, Note_on_c, 0, 65, 0
3, 9524, Note_on_c, 0, 86, 0
3, 9525, Note_on_c, 0, 60, 0
3, 9528, Note_on_c, 0, 88, 63
3, 9529, Note_on_c, 0, 89, 0
3, 9534, Note_on_c, 0, 84, 34
3, 9535, Note_on_c, 0, 61, 0
3, 9536, Note_on_c, 0, 55, 0
3, 9545, Note_on_c, 0, 89, 14
3, 9563, Note_on_c, 0, 88, 0
3, 9564, Note_on_c, 0, 84, 0
3, 9574, Note_on_c, 0, 89, 0
3, 9646, Note_on_c, 0, 89, 51
3, 9647, Note_on_c, 0, 44, 52
3, 9650, Note_on_c, 0, 32, 44
3, 9651, Note_on_c, 0, 86, 60
3, 9653, Note_on_c, 0, 82, 32
3, 9654, Note_on_c, 0, 77, 34
3, 9656, Control_c, 0, 64, 0
3, 9663, Control_c, 0, 64, 127
3, 9688, Note_on_c, 0, 32, 0
3, 9698, Note_on_c, 0, 44, 0
3, 9878, Note_on_c, 0, 66, 34
3, 9958, Note_on_c, 0, 77, 0
3, 9969, Note_on_c, 0, 82, 0
3, 9975, Note_on_c, 0, 86, 0
3, 9980, Note_on_c, 0, 89, 0
3, 9996, Note_on_c, 0, 72, 26
3, 9999, Note_on_c, 0, 82, 28
3, 10006, Note_on_c, 0, 77, 29
3, 10079, Note_on_c, 0, 77, 0
3, 10142, Note_on_c, 0, 82, 0
3, 10153, Note_on_c, 0, 77, 19
3, 10217, Note_on_c, 0, 77, 0
3, 10278, Note_on_c, 0, 77, 24
3, 10359, Note_on_c, 0, 66, 0
3, 10382, Note_on_c, 0, 89, 55
3, 10384, Note_on_c, 0, 72, 0
3, 10416, Note_on_c, 0, 77, 0
3, 10448, Note_on_c, 0, 89, 0
3, 10645, Note_on_c, 0, 77, 48
3, 10650, Note_on_c, 0, 72, 31
3, 10655, Note_on_c, 0, 69, 28
3, 10657, Control_c, 0, 64, 0
3, 10658, Note_on_c, 0, 65, 33
3, 10659, Note_on_c, 0, 55, 34
3, 10713, Control_c, 0, 64, 127
3, 10792, Note_on_c, 0, 69, 0
3, 10793, Note_on_c, 0, 65, 0
3, 10794, Note_on_c, 0, 72, 0
3, 10828, Note_on_c, 0, 77, 0
3, 10852, Note_on_c, 0, 71, 52
3, 10853, Note_on_c, 0, 68, 37
3, 10853, Note_on_c, 0, 76, 57
3, 10854, Note_on_c, 0, 64, 35
3, 10881, Control_c, 0, 64, 0
3, 10895, Control_c, 0, 64, 127
3, 11051, Note_on_c, 0, 64, 0
3, 11095, Note_on_c, 0, 62, 58
3, 11115, Note_on_c, 0, 62, 0
3, 11117, Note_on_c, 0, 55, 0
3, 11216, Note_on_c, 0, 74, 74
3, 11216, Note_on_c, 0, 43, 68
3, 11217, Note_on_c, 0, 71, 0
3, 11221, Note_on_c, 0, 68, 0
3, 11230, Note_on_c, 0, 76, 0
3, 11250, Note_on_c, 0, 43, 0
3, 11256, Note_on_c, 0, 74, 0
3, 11342, Control_c, 0, 64, 0
3, 11343, Note_on_c, 0, 76, 62
3, 11345, Note_on_c, 0, 72, 39
3, 11346, Note_on_c, 0, 68, 49
3, 11348, Note_on_c, 0, 42, 39
3, 11348, Note_on_c, 0, 64, 54
3, 11349, Note_on_c, 0, 30, 46
3, 11390, Note_on_c, 0, 64, 0
3, 11396, Control_c, 0, 64, 127
3, 11401, Note_on_c, 0, 68, 0
3, 11405, Note_on_c, 0, 72, 0
3, 11414, Note_on_c, 0, 76, 0
3, 11420, Note_on_c, 0, 30, 0
3, 11434, Note_on_c, 0, 42, 0
3, 11467, Note_on_c, 0, 88, 79
3, 11543, Note_on_c, 0, 88, 0
3, 11578, Note_on_c, 0, 88, 65
3, 11584, Note_on_c, 0, 84, 62
3, 11585, Note_on_c, 0, 80, 49
3, 11586, Note_on_c, 0, 86, 40
3, 11587, Note_on_c, 0, 76, 57
3, 11590, Note_on_c, 0, 64, 47
3, 11626, Note_on_c, 0, 84, 0
3, 11629, Note_on_c, 0, 88, 0
3, 11633, Note_on_c, 0, 86, 0
3, 11641, Note_on_c, 0, 80, 0
3, 11649, Note_on_c, 0, 76, 0
3, 11683, Note_on_c, 0, 64, 0
3, 11697, Note_on_c, 0, 58, 54
3, 11797, Note_on_c, 0, 68, 48
3, 11797, Note_on_c, 0, 58, 0
3, 11798, Note_on_c, 0, 72, 36
3, 11801, Note_on_c, 0, 64, 47
3, 11898, Note_on_c, 0, 48, 58
3, 11924, Note_on_c, 0, 64, 0
3, 11959, Note_on_c, 0, 72, 0
3, 11961, Note_on_c, 0, 68, 0
3, 12004, Note_on_c, 0, 48, 0
3, 12006, Control_c, 0, 64, 0
3, 12007, Note_on_c, 0, 76, 63
3, 12007, Note_on_c, 0, 69, 69
3, 12009, Note_on_c, 0, 64, 59
3, 12011, Note_on_c, 0, 41, 40
3, 12020, Note_on_c, 0, 57, 30
3, 12052, Control_c, 0, 64, 127
3, 12054, Note_on_c, 0, 64, 0
3, 12082, Note_on_c, 0, 69, 0
3, 12102, Note_on_c, 0, 76, 0
3, 12117, Note_on_c, 0, 57, 0
3, 12119, Note_on_c, 0, 48, 53
3, 12127, Note_on_c, 0, 41, 0
3, 12142, Note_on_c, 0, 48, 0
3, 12232, Note_on_c, 0, 88, 81
3, 12233, Note_on_c, 0, 84, 76
3, 12233, Note_on_c, 0, 60, 49
3, 12234, Note_on_c, 0, 81, 78
3, 12234, Note_on_c, 0, 76, 76
3, 12353, Note_on_c, 0, 64, 37
3, 12368, Note_on_c, 0, 88, 0
3, 12370, Note_on_c, 0, 76, 0
3, 12376, Note_on_c, 0, 84, 0
3, 12393, Note_on_c, 0, 81, 0
3, 12430, Note_on_c, 0, 64, 0
3, 12465, Note_on_c, 0, 86, 60
3, 12469, Note_on_c, 0, 74, 46
3, 12470, Note_on_c, 0, 64, 34
3, 12518, Note_on_c, 0, 86, 0
3, 12530, Note_on_c, 0, 64, 0
3, 12537, Note_on_c, 0, 74, 0
3, 12545, Note_on_c, 0, 60, 0
3, 12583, Note_on_c, 0, 84, 48
3, 12588, Note_on_c, 0, 72, 27
3, 12592, Note_on_c, 0, 60, 26
3, 12605, Note_on_c, 0, 60, 0
3, 12620, Note_on_c, 0, 72, 0
3, 12634, Note_on_c, 0, 84, 0
3, 12712, Note_on_c, 0, 86, 54
3, 12714, Control_c, 0, 64, 0
3, 12716, Note_on_c, 0, 81, 47
3, 12717, Note_on_c, 0, 77, 30
3, 12717, Note_on_c, 0, 74, 33
3, 12719, Note_on_c, 0, 34, 28
3, 12757, Control_c, 0, 64, 127
3, 12763, Note_on_c, 0, 34, 0
3, 12881, Note_on_c, 0, 74, 0
3, 12927, Note_on_c, 0, 77, 0
3, 13143, Note_on_c, 0, 65, 33
3, 13153, Note_on_c, 0, 62, 24
3, 13153, Note_on_c, 0, 60, 22
3, 13196, Note_on_c, 0, 62, 0
3, 13201, Note_on_c, 0, 60, 0
3, 13202, Note_on_c, 0, 65, 0
3, 13287, Note_on_c, 0, 65, 24
3, 13291, Note_on_c, 0, 62, 28
3, 13292, Note_on_c, 0, 60, 26
3, 13305, Note_on_c, 0, 86, 0
3, 13322, Note_on_c, 0, 65, 0
3, 13323, Note_on_c, 0, 60, 0
3, 13324, Note_on_c, 0, 62, 0
3, 13325, Note_on_c, 0, 81, 0
3, 13415, Note_on_c, 0, 77, 38
3, 13417, Note_on_c, 0, 72, 28
3, 13417, Note_on_c, 0, 54, 28
3, 13422, Note_on_c, 0, 44, 25
3, 13468, Note_on_c, 0, 54, 0
3, 13469, Note_on_c, 0, 44, 0
3, 13479, Note_on_c, 0, 72, 0
3, 13485, Note_on_c, 0, 77, 0
3, 13551, Control_c, 0, 64, 0
3, 13551, Note_on_c, 0, 71, 36
3, 13555, Note_on_c, 0, 43, 34
3, 13555, Note_on_c, 0, 76, 47
3, 13557, Note_on_c, 0, 53, 29
3, 13589, Control_c, 0, 64, 127
3, 13620, Note_on_c, 0, 43, 0
3, 13631, Note_on_c, 0, 71, 0
3, 13634, Note_on_c, 0, 53, 0
3, 13636, Note_on_c, 0, 76, 0
3, 13700, Note_on_c, 0, 95, 64
3, 13778, Note_on_c, 0, 95, 0
3, 13842, Note_on_c, 0, 95, 35
3, 13845, Note_on_c, 0, 83, 33
3, 13847, Note_on_c, 0, 53, 25
3, 13848, Note_on_c, 0, 59, 30
3, 13848, Note_on_c, 0, 64, 17
3, 13991, Note_on_c, 0, 91, 34
3, 13998, Note_on_c, 0, 95, 0
3, 14004, Note_on_c, 0, 83, 0
3, 14026, Note_on_c, 0, 91, 0
3, 14050, Note_on_c, 0, 64, 0
3, 14145, Note_on_c, 0, 107, 64
3, 14154, Note_on_c, 0, 64, 17
3, 14166, Note_on_c, 0, 107, 0
3, 14253, Note_on_c, 0, 53, 0
3, 14366, Note_on_c, 0, 53, 25
3, 14401, Note_on_c, 0, 59, 0
3, 14407, Note_on_c, 0, 53, 0
3, 14423, Note_on_c, 0, 64, 0
3, 14912, Note_on_c, 0, 67, 30
3, 14917, Note_on_c, 0, 88, 40
3, 14929, Control_c, 0, 64, 0
3, 14965, Control_c, 0, 64, 127
3, 15008, Note_on_c, 0, 72, 26
3, 15078, Note_on_c, 0, 72, 0
3, 15096, Note_on_c, 0, 74, 34
3, 15169, Note_on_c, 0, 74, 0
3, 15185, Note_on_c, 0, 76, 28
3, 15239, Note_on_c, 0, 88, 0
3, 15261, Note_on_c, 0, 76, 0
3, 15266, Note_on_c, 0, 71, 38
3, 15268, Control_c, 0, 64, 0
3, 15271, Note_on_c, 0, 88, 42
3, 15297, Control_c, 0, 64, 127
3, 15353, Note_on_c, 0, 72, 36
3, 15357, Note_on_c, 0, 88, 0
3, 15360, Note_on_c, 0, 71, 0
3, 15401, Note_on_c, 0, 67, 0
3, 15439, Note_on_c, 0, 72, 0
3, 15440, Note_on_c, 0, 88, 75
3, 15442, Note_on_c, 0, 67, 39
3, 15446, Control_c, 0, 64, 0
3, 15482, Control_c, 0, 64, 127
3, 15521, Note_on_c, 0, 72, 27
3, 15586, Note_on_c, 0, 72, 0
3, 15602, Note_on_c, 0, 74, 34
3, 15676, Note_on_c, 0, 74, 0
3, 15683, Note_on_c, 0, 86, 57
3, 15687, Note_on_c, 0, 76, 36
3, 15695, Note_on_c, 0, 88, 0
3, 15758, Note_on_c, 0, 76, 0
3, 15759, Control_c, 0, 64, 0
3, 15760, Note_on_c, 0, 71, 43
3, 15790, Control_c, 0, 64, 127
3, 15844, Note_on_c, 0, 72, 33
3, 15845, Note_on_c, 0, 84, 58
3, 15853, Note_on_c, 0, 71, 0
3, 15854, Note_on_c, 0, 86, 0
3, 15890, Note_on_c, 0, 67, 0
3, 15924, Note_on_c, 0, 84, 0
3, 15926, Note_on_c, 0, 72, 0
3, 15932, Note_on_c, 0, 77, 40
3, 15932, Control_c, 0, 64, 0
3, 15933, Note_on_c, 0, 67, 33
3, 15973, Control_c, 0, 64, 127
3, 16017, Note_on_c, 0, 74, 32
3, 16019, Note_on_c, 0, 77, 0
3, 16100, Note_on_c, 0, 76, 43
3, 16108, Note_on_c, 0, 74, 0
3, 16173, Note_on_c, 0, 76, 0
3, 16180, Note_on_c, 0, 77, 30
3, 16257, Note_on_c, 0, 72, 24
3, 16265, Note_on_c, 0, 77, 0
3, 16338, Note_on_c, 0, 72, 0
3, 16340, Note_on_c, 0, 77, 44
3, 16343, Note_on_c, 0, 74, 30
3, 16387, Note_on_c, 0, 67, 0
3, 16403, Note_on_c, 0, 77, 0
3, 16423, Note_on_c, 0, 77, 42
3, 16425, Note_on_c, 0, 67, 33
3, 16426, Note_on_c, 0, 74, 0
3, 16428, Control_c, 0, 64, 0
3, 16457, Control_c, 0, 64, 127
3, 16510, Note_on_c, 0, 72, 18
3, 16537, Note_on_c, 0, 72, 0
3, 16591, Note_on_c, 0, 79, 40
3, 16591, Note_on_c, 0, 74, 32
3, 16600, Note_on_c, 0, 77, 0
3, 16608, Note_on_c, 0, 74, 0
3, 16790, Note_on_c, 0, 67, 0
3, 16850, Note_on_c, 0, 81, 32
3, 16861, Note_on_c, 0, 79, 0
3, 16863, Note_on_c, 0, 81, 0
3, 17050, Note_on_c, 0, 88, 40
3, 17053, Note_on_c, 0, 48, 29
3, 17097, Note_on_c, 0, 88, 0
3, 17151, Note_on_c, 0, 55, 24
3, 17216, Note_on_c, 0, 55, 0
3, 17219, Note_on_c, 0, 48, 0
3, 17235, Note_on_c, 0, 67, 37
3, 17243, Note_on_c, 0, 60, 19
3, 17277, Note_on_c, 0, 60, 0
3, 17287, Note_on_c, 0, 67, 0
3, 17315, Note_on_c, 0, 67, 36
3, 17402, Note_on_c, 0, 79, 37
3, 17410, Note_on_c, 0, 72, 17
3, 17459, Note_on_c, 0, 79, 0
3, 17460, Note_on_c, 0, 67, 0
3, 17485, Note_on_c, 0, 88, 67
3, 17574, Note_on_c, 0, 88, 0
3, 17580, Note_on_c, 0, 79, 24
3, 17663, Note_on_c, 0, 67, 30
3, 17681, Note_on_c, 0, 79, 0
3, 17757, Note_on_c, 0, 88, 69
3, 17759, Note_on_c, 0, 60, 32
3, 17761, Note_on_c, 0, 79, 46
3, 17762, Note_on_c, 0, 67, 0
3, 17831, Note_on_c, 0, 88, 0
3, 17832, Note_on_c, 0, 79, 0
3, 17846, Note_on_c, 0, 67, 31
3, 17847, Note_on_c, 0, 72, 0
3, 17848, Note_on_c, 0, 84, 29
3, 17917, Note_on_c, 0, 84, 0
3, 17932, Note_on_c, 0, 88, 63
3, 17932, Note_on_c, 0, 72, 19
3, 17934, Note_on_c, 0, 79, 44
3, 17951, Note_on_c, 0, 60, 0
3, 18007, Note_on_c, 0, 88, 0
3, 18015, Note_on_c, 0, 60, 34
3, 18019, Note_on_c, 0, 84, 46
3, 18026, Note_on_c, 0, 79, 0
3, 18065, Note_on_c, 0, 60, 0
3, 18086, Note_on_c, 0, 84, 0
3, 18108, Note_on_c, 0, 88, 57
3, 18109, Note_on_c, 0, 60, 36
3, 18112, Note_on_c, 0, 77, 34
3, 18112, Note_on_c, 0, 67, 0
3, 18119, Control_c, 0, 64, 0
3, 18123, Note_on_c, 0, 81, 30
3, 18184, Control_c, 0, 64, 127
3, 18199, Note_on_c, 0, 69, 42
3, 18206, Note_on_c, 0, 72, 0
3, 18231, Note_on_c, 0, 81, 0
3, 18255, Note_on_c, 0, 77, 0
3, 18284, Note_on_c, 0, 81, 36
3, 18285, Note_on_c, 0, 72, 25
3, 18289, Note_on_c, 0, 77, 15
3, 18298, Note_on_c, 0, 69, 0
3, 18361, Note_on_c, 0, 77, 0
3, 18369, Note_on_c, 0, 81, 0
3, 18373, Note_on_c, 0, 69, 32
3, 18380, Note_on_c, 0, 88, 0
3, 18427, Note_on_c, 0, 69, 0
3, 18456, Note_on_c, 0, 69, 29
3, 18516, Note_on_c, 0, 72, 0
3, 18521, Note_on_c, 0, 69, 0
3, 18533, Note_on_c, 0, 96, 54
3, 18537, Note_on_c, 0, 69, 16
3, 18545, Note_on_c, 0, 89, 60
3, 18575, Note_on_c, 0, 69, 0
3, 18598, Note_on_c, 0, 60, 0
3, 18624, Control_c, 0, 64, 0
3, 18627, Note_on_c, 0, 60, 22
3, 18646, Control_c, 0, 64, 127
3, 18698, Note_on_c, 0, 89, 0
3, 18711, Note_on_c, 0, 67, 36
3, 18733, Note_on_c, 0, 96, 0
3, 18795, Note_on_c, 0, 95, 66
3, 18799, Note_on_c, 0, 86, 72
3, 18824, Note_on_c, 0, 67, 0
3, 18873, Note_on_c, 0, 67, 39
3, 18890, Note_on_c, 0, 95, 0
3, 18890, Note_on_c, 0, 86, 0
3, 18985, Note_on_c, 0, 67, 0
3, 19041, Note_on_c, 0, 91, 46
3, 19050, Note_on_c, 0, 67, 30
3, 19096, Note_on_c, 0, 60, 0
3, 19098, Note_on_c, 0, 91, 0
3, 19126, Note_on_c, 0, 67, 0
3, 19130, Note_on_c, 0, 88, 42
3, 19134, Control_c, 0, 64, 0
3, 19139, Note_on_c, 0, 60, 13
3, 19180, Control_c, 0, 64, 127
3, 19218, Note_on_c, 0, 67, 32
3, 19300, Note_on_c, 0, 72, 19
3, 19301, Note_on_c, 0, 79, 34
3, 19308, Note_on_c, 0, 88, 0
3, 19347, Note_on_c, 0, 60, 0
3, 19384, Note_on_c, 0, 60, 28
3, 19450, Note_on_c, 0, 79, 0
3, 19467, Note_on_c, 0, 83, 71
3, 19487, Note_on_c, 0, 67, 0
3, 19490, Note_on_c, 0, 72, 0
3, 19511, Note_on_c, 0, 84, 75
3, 19535, Note_on_c, 0, 83, 0
3, 19540, Note_on_c, 0, 84, 0
3, 19550, Note_on_c, 0, 86, 82
3, 19585, Note_on_c, 0, 86, 0
3, 19589, Control_c, 0, 64, 0
3, 19592, Note_on_c, 0, 83, 64
3, 19605, Note_on_c, 0, 71, 40
3, 19613, Note_on_c, 0, 67, 28
3, 19622, Control_c, 0, 64, 127
3, 19628, Note_on_c, 0, 83, 0
3, 19634, Note_on_c, 0, 79, 46
3, 19670, Note_on_c, 0, 79, 0
3, 19679, Note_on_c, 0, 60, 0
3, 19683, Note_on_c, 0, 76, 47
3, 19708, Note_on_c, 0, 76, 0
3, 19729, Note_on_c, 0, 74, 22
3, 19757, Note_on_c, 0, 74, 0
3, 19763, Note_on_c, 0, 71, 0
3, 19766, Note_on_c, 0, 72, 30
3, 19799, Note_on_c, 0, 72, 0
3, 19803, Note_on_c, 0, 71, 37
3, 19815, Control_c, 0, 64, 0
3, 19829, Note_on_c, 0, 60, 10
3, 19844, Control_c, 0, 64, 127
3, 19859, Note_on_c, 0, 67, 0
3, 19885, Note_on_c, 0, 72, 57
3, 19891, Note_on_c, 0, 71, 0
3, 19893, Note_on_c, 0, 67, 28
3, 19923, Note_on_c, 0, 67, 0
3, 19939, Note_on_c, 0, 60, 0
3, 19975, Note_on_c, 0, 69, 47
3, 20051, Note_on_c, 0, 54, 29
3, 20059, Note_on_c, 0, 54, 0
3, 20113, Note_on_c, 0, 69, 0
3, 20138, Note_on_c, 0, 48, 41
3, 20139, Note_on_c, 0, 69, 45
3, 20142, Note_on_c, 0, 65, 35
3, 20147, Control_c, 0, 64, 0
3, 20202, Control_c, 0, 64, 127
3, 20224, Note_on_c, 0, 60, 33
3, 20228, Note_on_c, 0, 48, 0
3, 20254, Note_on_c, 0, 60, 0
3, 20263, Note_on_c, 0, 65, 0
3, 20286, Note_on_c, 0, 69, 0
3, 20288, Note_on_c, 0, 72, 0
3, 20298, Note_on_c, 0, 65, 29
3, 20316, Note_on_c, 0, 65, 0
3, 20396, Note_on_c, 0, 77, 71
3, 20396, Note_on_c, 0, 60, 33
3, 20473, Note_on_c, 0, 76, 80
3, 20480, Note_on_c, 0, 69, 33
3, 20521, Note_on_c, 0, 76, 0
3, 20528, Note_on_c, 0, 77, 0
3, 20531, Note_on_c, 0, 60, 0
3, 20562, Note_on_c, 0, 84, 88
3, 20563, Note_on_c, 0, 60, 32
3, 20571, Note_on_c, 0, 69, 0
3, 20633, Control_c, 0, 64, 0
3, 20649, Note_on_c, 0, 69, 31
3, 20657, Control_c, 0, 64, 127
3, 20734, Note_on_c, 0, 84, 0
3, 20737, Note_on_c, 0, 77, 41
3, 20809, Note_on_c, 0, 77, 0
3, 20826, Note_on_c, 0, 91, 59
3, 20827, Note_on_c, 0, 72, 18
3, 20907, Note_on_c, 0, 91, 0
3, 20913, Note_on_c, 0, 88, 31
3, 20949, Note_on_c, 0, 60, 0
3, 20992, Note_on_c, 0, 60, 37
3, 21024, Note_on_c, 0, 60, 0
3, 21078, Note_on_c, 0, 89, 60
3, 21118, Note_on_c, 0, 88, 0
3, 21120, Note_on_c, 0, 69, 0
3, 21123, Note_on_c, 0, 91, 51
3, 21136, Note_on_c, 0, 89, 0
3, 21148, Note_on_c, 0, 72, 0
3, 21161, Note_on_c, 0, 91, 0
3, 21169, Control_c, 0, 64, 0
3, 21175, Note_on_c, 0, 60, 19
3, 21175, Note_on_c, 0, 88, 44
3, 21206, Control_c, 0, 64, 127
3, 21255, Note_on_c, 0, 67, 36
3, 21333, Note_on_c, 0, 88, 0
3, 21337, Note_on_c, 0, 83, 29
3, 21338, Note_on_c, 0, 72, 22
3, 21338, Note_on_c, 0, 79, 29
3, 21378, Note_on_c, 0, 67, 0
3, 21410, Note_on_c, 0, 79, 0
3, 21412, Note_on_c, 0, 83, 0
3, 21419, Note_on_c, 0, 67, 34
3, 21498, Note_on_c, 0, 60, 0
3, 21513, Note_on_c, 0, 91, 80
3, 21515, Note_on_c, 0, 79, 78
3, 21577, Note_on_c, 0, 91, 0
3, 21603, Note_on_c, 0, 79, 0
3, 21608, Note_on_c, 0, 60, 16
3, 21627, Note_on_c, 0, 67, 0
3, 21630, Note_on_c, 0, 72, 0
3, 21662, Note_on_c, 0, 60, 0
3, 21683, Note_on_c, 0, 88, 60
3, 21686, Note_on_c, 0, 76, 53
3, 21688, Note_on_c, 0, 80, 34
3, 21692, Control_c, 0, 64, 0
3, 21704, Note_on_c, 0, 60, 29
3, 21735, Control_c, 0, 64, 127
3, 21784, Note_on_c, 0, 68, 25
3, 21799, Note_on_c, 0, 86, 1
3, 21812, Note_on_c, 0, 80, 0
3, 21817, Note_on_c, 0, 76, 0
3, 21842, Note_on_c, 0, 88, 0
3, 21853, Note_on_c, 0, 86, 0
3, 21865, Note_on_c, 0, 76, 37
3, 21866, Note_on_c, 0, 71, 37
3, 21927, Note_on_c, 0, 68, 0
3, 21941, Note_on_c, 0, 76, 0
3, 21954, Note_on_c, 0, 80, 70
3, 21961, Note_on_c, 0, 68, 34
3, 21977, Note_on_c, 0, 71, 0
3, 22008, Note_on_c, 0, 83, 73
3, 22012, Note_on_c, 0, 80, 0
3, 22051, Note_on_c, 0, 83, 0
3, 22059, Note_on_c, 0, 69, 53
3, 22060, Note_on_c, 0, 86, 91
3, 22122, Note_on_c, 0, 86, 0
3, 22141, Note_on_c, 0, 84, 80
3, 22157, Note_on_c, 0, 60, 0
3, 22194, Note_on_c, 0, 68, 0
3, 22197, Note_on_c, 0, 81, 62
3, 22218, Note_on_c, 0, 84, 0
3, 22227, Note_on_c, 0, 69, 0
3, 22252, Note_on_c, 0, 77, 60
3, 22255, Control_c, 0, 64, 0
3, 22258, Note_on_c, 0, 72, 31
3, 22263, Note_on_c, 0, 67, 41
3, 22303, Control_c, 0, 64, 127
3, 22334, Note_on_c, 0, 81, 0
3, 22343, Note_on_c, 0, 77, 0
3, 22345, Note_on_c, 0, 62, 31
3, 22346, Note_on_c, 0, 67, 0
3, 22359, Note_on_c, 0, 72, 0
3, 22428, Note_on_c, 0, 62, 0
3, 22429, Note_on_c, 0, 65, 34
3, 22432, Note_on_c, 0, 69, 44
3, 22433, Note_on_c, 0, 55, 27
3, 22467, Note_on_c, 0, 55, 0
3, 22696, Note_on_c, 0, 50, 31
3, 22705, Note_on_c, 0, 50, 0
3, 22784, Note_on_c, 0, 43, 33
3, 22789, Control_c, 0, 64, 0
3, 22808, Control_c, 0, 64, 127
3, 22848, Note_on_c, 0, 65, 0
3, 22862, Note_on_c, 0, 69, 0
3, 22867, Note_on_c, 0, 43, 0
3, 22873, Note_on_c, 0, 31, 54
3, 22950, Note_on_c, 0, 31, 0
3, 23054, Note_on_c, 0, 103, 69
3, 23063, Note_on_c, 0, 95, 64
3, 23114, Note_on_c, 0, 103, 0
3, 23119, Note_on_c, 0, 95, 0
3, 23238, Note_on_c, 0, 101, 64
3, 23242, Note_on_c, 0, 93, 52
3, 23279, Note_on_c, 0, 101, 0
3, 23305, Note_on_c, 0, 93, 0
3, 23411, Note_on_c, 0, 100, 68
3, 23417, Note_on_c, 0, 91, 49
3, 23430, Note_on_c, 0, 72, 26
3, 23430, Note_on_c, 0, 71, 29
3, 23433, Note_on_c, 0, 76, 24
3, 23469, Note_on_c, 0, 72, 0
3, 23471, Note_on_c, 0, 76, 0
3, 23474, Note_on_c, 0, 71, 0
3, 23522, Note_on_c, 0, 71, 24
3, 23523, Note_on_c, 0, 76, 38
3, 23529, Note_on_c, 0, 72, 22
3, 23603, Note_on_c, 0, 67, 36
3, 23624, Note_on_c, 0, 71, 0
3, 23645, Note_on_c, 0, 72, 0
3, 23651, Note_on_c, 0, 76, 0
3, 23684, Note_on_c, 0, 67, 0
3, 23769, Note_on_c, 0, 91, 0
3, 23783, Note_on_c, 0, 67, 42
3, 23789, Note_on_c, 0, 100, 0
3, 23863, Note_on_c, 0, 100, 85
3, 23869, Note_on_c, 0, 76, 50
3, 23870, Note_on_c, 0, 72, 33
3, 23872, Note_on_c, 0, 91, 79
3, 23930, Note_on_c, 0, 67, 0
3, 23951, Note_on_c, 0, 67, 44
3, 23972, Note_on_c, 0, 100, 0
3, 23987, Note_on_c, 0, 91, 0
3, 24000, Note_on_c, 0, 76, 0
3, 24002, Note_on_c, 0, 72, 0
3, 24038, Note_on_c, 0, 98, 53
3, 24040, Note_on_c, 0, 89, 48
3, 24043, Note_on_c, 0, 76, 27
3, 24073, Note_on_c, 0, 76, 0
3, 24109, Note_on_c, 0, 98, 0
3, 24121, Note_on_c, 0, 89, 0
3, 24228, Note_on_c, 0, 76, 22
3, 24242, Note_on_c, 0, 72, 8
3, 24242, Note_on_c, 0, 67, 0
3, 24304, Note_on_c, 0, 96, 65
3, 24306, Note_on_c, 0, 88, 58
3, 24307, Note_on_c, 0, 67, 37
3, 24332, Note_on_c, 0, 96, 0
3, 24349, Note_on_c, 0, 88, 0
3, 24359, Note_on_c, 0, 76, 0
3, 24370, Note_on_c, 0, 72, 0
3, 24392, Note_on_c, 0, 93, 60
3, 24397, Note_on_c, 0, 69, 37
3, 24398, Note_on_c, 0, 84, 43
3, 24398, Control_c, 0, 64, 0
3, 24409, Note_on_c, 0, 77, 12
3, 24422, Note_on_c, 0, 67, 0
3, 24429, Note_on_c, 0, 72, 4
3, 24434, Control_c, 0, 64, 127
3, 24470, Note_on_c, 0, 69, 0
3, 24472, Note_on_c, 0, 93, 0
3, 24476, Note_on_c, 0, 67, 40
3, 24477, Note_on_c, 0, 72, 0
3, 24481, Note_on_c, 0, 77, 0
3, 24482, Note_on_c, 0, 84, 0
3, 24503, Note_on_c, 0, 67, 0
3, 24555, Note_on_c, 0, 89, 45
3, 24561, Note_on_c, 0, 81, 37
3, 24561, Note_on_c, 0, 67, 43
3, 24647, Note_on_c, 0, 55, 42
3, 24653, Note_on_c, 0, 89, 0
3, 24662, Note_on_c, 0, 81, 0
3, 24737, Note_on_c, 0, 77, 33
3, 24774, Note_on_c, 0, 55, 0
3, 24786, Note_on_c, 0, 77, 0
3, 24812, Note_on_c, 0, 67, 0
3, 24826, Note_on_c, 0, 55, 32
3, 24852, Note_on_c, 0, 55, 0
3, 24913, Note_on_c, 0, 55, 43
3, 24930, Note_on_c, 0, 55, 0
3, 25005, Note_on_c, 0, 65, 54
3, 25006, Note_on_c, 0, 43, 35
3, 25007, Note_on_c, 0, 60, 52
3, 25009, Note_on_c, 0, 57, 44
3, 25011, Note_on_c, 0, 62, 40
3, 25012, Note_on_c, 0, 55, 34
3, 25014, Control_c, 0, 64, 0
3, 25062, Control_c, 0, 64, 127
3, 25093, Note_on_c, 0, 57, 0
3, 25102, Note_on_c, 0, 62, 0
3, 25105, Note_on_c, 0, 60, 0
3, 25108, Note_on_c, 0, 65, 0
3, 25111, Note_on_c, 0, 55, 0
3, 25133, Note_on_c, 0, 43, 0
3, 25190, Note_on_c, 0, 67, 61
3, 25193, Note_on_c, 0, 43, 33
3, 25195, Note_on_c, 0, 62, 59
3, 25195, Note_on_c, 0, 59, 52
3, 25197, Note_on_c, 0, 64, 41
3, 25198, Note_on_c, 0, 53, 33
3, 25199, Control_c, 0, 64, 0
3, 25243, Control_c, 0, 64, 127
3, 25253, Note_on_c, 0, 59, 0
3, 25266, Note_on_c, 0, 64, 0
3, 25267, Note_on_c, 0, 62, 0
3, 25269, Note_on_c, 0, 67, 0
3, 25273, Note_on_c, 0, 43, 0
3, 25283, Note_on_c, 0, 53, 0
3, 25324, Note_on_c, 0, 69, 58
3, 25327, Note_on_c, 0, 64, 55
3, 25327, Note_on_c, 0, 60, 44
3, 25330, Note_on_c, 0, 65, 51
3, 25332, Note_on_c, 0, 53, 32
3, 25358, Note_on_c, 0, 53, 0
3, 25373, Note_on_c, 0, 65, 0
3, 25377, Note_on_c, 0, 60, 0
3, 25379, Note_on_c, 0, 64, 0
3, 25400, Note_on_c, 0, 69, 0
3, 25452, Control_c, 0, 64, 0
3, 25452, Note_on_c, 0, 43, 34
3, 25457, Note_on_c, 0, 67, 55
3, 25459, Note_on_c, 0, 59, 34
3, 25460, Note_on_c, 0, 36, 39
3, 25460, Note_on_c, 0, 52, 45
3, 25460, Note_on_c, 0, 64, 50
3, 25461, Note_on_c, 0, 62, 41
3, 25464, Note_on_c, 0, 57, 32
3, 25503, Note_on_c, 0, 57, 0
3, 25507, Control_c, 0, 64, 127
3, 25520, Note_on_c, 0, 36, 0
3, 25520, Note_on_c, 0, 59, 0
3, 25537, Note_on_c, 0, 43, 0
3, 25541, Note_on_c, 0, 62, 0
3, 25546, Note_on_c, 0, 64, 0
3, 25551, Note_on_c, 0, 52, 0
3, 25559, Note_on_c, 0, 67, 0
3, 25649, Note_on_c, 0, 79, 44
3, 25649, Note_on_c, 0, 71, 54
3, 25651, Note_on_c, 0, 64, 38
3, 25651, Note_on_c, 0, 74, 48
3, 25652, Note_on_c, 0, 76, 43
3, 25652, Note_on_c, 0, 67, 32
3, 25655, Note_on_c, 0, 62, 25
3, 25758, Note_on_c, 0, 67, 0
3, 25770, Note_on_c, 0, 64, 0
3, 25770, Note_on_c, 0, 74, 0
3, 25770, Note_on_c, 0, 71, 0
3, 25777, Note_on_c, 0, 76, 0
3, 25777, Note_on_c, 0, 62, 0
3, 25782, Note_on_c, 0, 79, 0
3, 25836, Note_on_c, 0, 67, 36
3, 25839, Note_on_c, 0, 62, 32
3, 25844, Note_on_c, 0, 64, 35
3, 25938, Note_on_c, 0, 67, 0
3, 25939, Note_on_c, 0, 64, 0
3, 25953, Note_on_c, 0, 62, 0
3, 25990, Note_on_c, 0, 91, 87
3, 26024, Note_on_c, 0, 91, 0
3, 26052, Note_on_c, 0, 61, 45
3, 26052, Note_on_c, 0, 96, 74
3, 26054, Note_on_c, 0, 60, 55
3, 26054, Note_on_c, 0, 55, 60
3, 26054, Note_on_c, 0, 65, 58
3, 26054, Note_on_c, 0, 89, 79
3, 26055, Note_on_c, 0, 84, 74
3, 26057, Note_on_c, 0, 92, 42
3, 26057, Note_on_c, 0, 93, 74
3, 26062, Control_c, 0, 64, 0
3, 26079, Note_on_c, 0, 92, 0
3, 26107, Control_c, 0, 64, 127
3, 26191, Note_on_c, 0, 84, 0
3, 26195, Note_on_c, 0, 55, 0
3, 26196, Note_on_c, 0, 65, 0
3, 26197, Note_on_c, 0, 60, 0
3, 26201, Note_on_c, 0, 89, 0
3, 26209, Note_on_c, 0, 96, 0
3, 26211, Note_on_c, 0, 61, 0
3, 26211, Note_on_c, 0, 93, 0
3, 26504, Note_on_c, 0, 91, 38
3, 26507, Note_on_c, 0, 86, 51
3, 26507, Note_on_c, 0, 79, 39
3, 26509, Note_on_c, 0, 61, 23
3, 26512, Note_on_c, 0, 55, 24
3, 26515, Note_on_c, 0, 65, 16
3, 26539, Note_on_c, 0, 79, 0
3, 26540, Note_on_c, 0, 65, 0
3, 26549, Note_on_c, 0, 86, 0
3, 26551, Note_on_c, 0, 91, 0
3, 26554, Note_on_c, 0, 61, 0
3, 26562, Note_on_c, 0, 55, 0
3, 26590, Note_on_c, 0, 55, 26
3, 26595, Note_on_c, 0, 89, 49
3, 26597, Note_on_c, 0, 93, 53
3, 26598, Note_on_c, 0, 81, 42
3, 26601, Note_on_c, 0, 65, 38
3, 26602, Note_on_c, 0, 57, 34
3, 26603, Control_c, 0, 64, 0
3, 26606, Note_on_c, 0, 60, 32
3, 26651, Control_c, 0, 64, 127
3, 26656, Note_on_c, 0, 65, 0
3, 26662, Note_on_c, 0, 60, 0
3, 26669, Note_on_c, 0, 57, 0
3, 26671, Note_on_c, 0, 55, 0
3, 26783, Note_on_c, 0, 43, 34
3, 26786, Note_on_c, 0, 55, 34
3, 26864, Note_on_c, 0, 55, 0
3, 26872, Note_on_c, 0, 43, 0
3, 26903, Note_on_c, 0, 93, 0
3, 26920, Note_on_c, 0, 89, 0
3, 26936, Note_on_c, 0, 81, 0
3, 27089, Note_on_c, 0, 65, 69
3, 27114, Note_on_c, 0, 65, 0
3, 27202, Note_on_c, 0, 74, 76
3, 27205, Note_on_c, 0, 69, 78
3, 27210, Note_on_c, 0, 55, 45
3, 27211, Note_on_c, 0, 65, 57
3, 27211, Control_c, 0, 64, 0
3, 27214, Note_on_c, 0, 62, 48
3, 27219, Note_on_c, 0, 65, 0
3, 27265, Control_c, 0, 64, 127
3, 27309, Note_on_c, 0, 60, 29
3, 27317, Note_on_c, 0, 65, 35
3, 27318, Note_on_c, 0, 62, 0
3, 27328, Note_on_c, 0, 74, 0
3, 27331, Note_on_c, 0, 65, 0
3, 27337, Note_on_c, 0, 69, 0
3, 27355, Note_on_c, 0, 60, 0
3, 27384, Note_on_c, 0, 55, 0
3, 27391, Control_c, 0, 64, 0
3, 27416, Note_on_c, 0, 64, 40
3, 27420, Control_c, 0, 64, 127
3, 27426, Note_on_c, 0, 76, 55
3, 27429, Note_on_c, 0, 69, 54
3, 27527, Note_on_c, 0, 54, 31
3, 27535, Note_on_c, 0, 69, 0
3, 27536, Note_on_c, 0, 64, 0
3, 27557, Note_on_c, 0, 76, 0
3, 27575, Note_on_c, 0, 54, 0
3, 27666, Note_on_c, 0, 77, 40
3, 27667, Note_on_c, 0, 67, 34
3, 27669, Note_on_c, 0, 53, 45
3, 27669, Note_on_c, 0, 71, 42
3, 27671, Note_on_c, 0, 62, 32
3, 27678, Control_c, 0, 64, 0
3, 27719, Control_c, 0, 64, 127
3, 27746, Note_on_c, 0, 67, 0
3, 27748, Note_on_c, 0, 77, 0
3, 27751, Note_on_c, 0, 71, 0
3, 27772, Note_on_c, 0, 62, 0
3, 27816, Note_on_c, 0, 65, 30
3, 27831, Note_on_c, 0, 65, 0
3, 27849, Note_on_c, 0, 53, 0
3, 27850, Note_on_c, 0, 67, 26
3, 27860, Note_on_c, 0, 67, 0
3, 27873, Note_on_c, 0, 69, 31
3, 27883, Note_on_c, 0, 69, 0
3, 27889, Note_on_c, 0, 71, 40
3, 27899, Note_on_c, 0, 71, 0
3, 27909, Note_on_c, 0, 72, 31
3, 27918, Note_on_c, 0, 72, 0
3, 27925, Note_on_c, 0, 74, 29
3, 27935, Note_on_c, 0, 74, 0
3, 27941, Note_on_c, 0, 76, 34
3, 27951, Note_on_c, 0, 76, 0
3, 27961, Note_on_c, 0, 77, 25
3, 27973, Note_on_c, 0, 77, 0
3, 27976, Note_on_c, 0, 79, 31
3, 27986, Note_on_c, 0, 79, 0
3, 27993, Note_on_c, 0, 81, 30
3, 28004, Note_on_c, 0, 81, 0
3, 28006, Note_on_c, 0, 83, 33
3, 28016, Note_on_c, 0, 83, 0
3, 28021, Note_on_c, 0, 84, 42
3, 28030, Note_on_c, 0, 84, 0
3, 28035, Note_on_c, 0, 86, 43
3, 28044, Note_on_c, 0, 86, 0
3, 28051, Note_on_c, 0, 91, 32
3, 28061, Note_on_c, 0, 28, 45
3, 28063, Note_on_c, 0, 40, 38
3, 28065, Control_c, 0, 64, 0
3, 28114, Control_c, 0, 64, 127
3, 28114, Note_on_c, 0, 28, 0
3, 28130, Note_on_c, 0, 40, 0
3, 28182, Note_on_c, 0, 91, 0
3, 28253, Note_on_c, 0, 56, 33
3, 28284, Note_on_c, 0, 62, 28
3, 28302, Note_on_c, 0, 67, 40
3, 28323, Note_on_c, 0, 72, 40
3, 28325, Note_on_c, 0, 67, 0
3, 28346, Note_on_c, 0, 72, 0
3, 28346, Note_on_c, 0, 75, 40
3, 28351, Note_on_c, 0, 76, 80
3, 28354, Note_on_c, 0, 75, 0
3, 28359, Note_on_c, 0, 76, 0
3, 28380, Note_on_c, 0, 79, 55
3, 28400, Note_on_c, 0, 84, 52
3, 28400, Note_on_c, 0, 79, 0
3, 28409, Note_on_c, 0, 84, 0
3, 28418, Note_on_c, 0, 88, 34
3, 28423, Note_on_c, 0, 89, 34
3, 28428, Note_on_c, 0, 88, 0
3, 28433, Note_on_c, 0, 89, 0
3, 28440, Note_on_c, 0, 91, 54
3, 28461, Note_on_c, 0, 91, 0
3, 28478, Note_on_c, 0, 100, 66
3, 28506, Note_on_c, 0, 100, 0
3, 28507, Note_on_c, 0, 103, 79
3, 28524, Note_on_c, 0, 67, 57
3, 28531, Note_on_c, 0, 100, 73
3, 28738, Note_on_c, 0, 103, 0
3, 28768, Note_on_c, 0, 100, 0
3, 28799, Note_on_c, 0, 91, 43
3, 28801, Note_on_c, 0, 103, 40
3, 28843, Note_on_c, 0, 67, 0
3, 28861, Note_on_c, 0, 62, 0
3, 28881, Note_on_c, 0, 56, 0
3, 28913, Note_on_c, 0, 91, 0
3, 28936, Note_on_c, 0, 103, 0
3, 29025, Control_c, 0, 64, 0
3, 29027, Note_on_c, 0, 33, 45
3, 29028, Note_on_c, 0, 103, 38
3, 29030, Note_on_c, 0, 91, 31
3, 29056, Control_c, 0, 64, 127
3, 29060, Note_on_c, 0, 33, 0
3, 29094, Note_on_c, 0, 103, 0
3, 29113, Note_on_c, 0, 91, 0
3, 29487, Note_on_c, 0, 89, 64
3, 29489, Note_on_c, 0, 77, 53
3, 29489, Note_on_c, 0, 84, 68
3, 29490, Note_on_c, 0, 81, 59
3, 29491, Note_on_c, 0, 65, 60
3, 29492, Note_on_c, 0, 61, 43
3, 29493, Note_on_c, 0, 60, 58
3, 29494, Note_on_c, 0, 55, 54
3, 29584, Note_on_c, 0, 61, 0
3, 29586, Note_on_c, 0, 65, 0
3, 29589, Note_on_c, 0, 55, 0
3, 29591, Note_on_c, 0, 60, 0
3, 29636, Note_on_c, 0, 65, 33
3, 29640, Note_on_c, 0, 60, 35
3, 29640, Note_on_c, 0, 61, 30
3, 29641, Note_on_c, 0, 55, 31
3, 29682, Note_on_c, 0, 55, 0
3, 29684, Note_on_c, 0, 60, 0
3, 29688, Note_on_c, 0, 65, 0
3, 29689, Note_on_c, 0, 89, 0
3, 29690, Note_on_c, 0, 77, 0
3, 29692, Note_on_c, 0, 61, 0
3, 29700, Note_on_c, 0, 84, 0
3, 29705, Note_on_c, 0, 81, 0
3, 29754, Note_on_c, 0, 88, 47
3, 29755, Note_on_c, 0, 61, 36
3, 29755, Note_on_c, 0, 65, 36
3, 29756, Note_on_c, 0, 60, 45
3, 29756, Note_on_c, 0, 81, 41
3, 29757, Note_on_c, 0, 84, 46
3, 29758, Note_on_c, 0, 55, 40
3, 29760, Note_on_c, 0, 76, 28
3, 29801, Note_on_c, 0, 55, 0
3, 29802, Note_on_c, 0, 65, 0
3, 29803, Note_on_c, 0, 60, 0
3, 29813, Note_on_c, 0, 61, 0
3, 29858, Note_on_c, 0, 76, 0
3, 29864, Note_on_c, 0, 61, 42
3, 29865, Note_on_c, 0, 65, 44
3, 29866, Note_on_c, 0, 81, 0
3, 29868, Note_on_c, 0, 84, 0
3, 29870, Note_on_c, 0, 60, 34
3, 29870, Note_on_c, 0, 55, 38
3, 29875, Note_on_c, 0, 88, 0
3, 29884, Note_on_c, 0, 60, 0
3, 29888, Note_on_c, 0, 65, 0
3, 29895, Note_on_c, 0, 61, 0
3, 29904, Note_on_c, 0, 55, 0
3, 29971, Note_on_c, 0, 54, 42
3, 29971, Note_on_c, 0, 44, 57
3, 29976, Control_c, 0, 64, 0
3, 29976, Note_on_c, 0, 89, 60
3, 29977, Note_on_c, 0, 86, 65
3, 29978, Note_on_c, 0, 82, 46
3, 29978, Note_on_c, 0, 77, 44
3, 30005, Control_c, 0, 64, 127
3, 30007, Note_on_c, 0, 44, 0
3, 30014, Note_on_c, 0, 54, 0
3, 30075, Note_on_c, 0, 54, 44
3, 30080, Note_on_c, 0, 65, 49
3, 30081, Note_on_c, 0, 60, 28
3, 30084, Note_on_c, 0, 58, 40
3, 30134, Note_on_c, 0, 60, 0
3, 30141, Note_on_c, 0, 65, 0
3, 30145, Note_on_c, 0, 58, 0
3, 30145, Note_on_c, 0, 54, 0
3, 30180, Note_on_c, 0, 54, 53
3, 30182, Note_on_c, 0, 58, 49
3, 30182, Note_on_c, 0, 65, 57
3, 30185, Note_on_c, 0, 60, 55
3, 30220, Note_on_c, 0, 60, 0
3, 30225, Note_on_c, 0, 58, 0
3, 30233, Note_on_c, 0, 65, 0
3, 30237, Note_on_c, 0, 54, 0
3, 30278, Note_on_c, 0, 54, 58
3, 30279, Note_on_c, 0, 65, 66
3, 30280, Note_on_c, 0, 60, 61
3, 30328, Note_on_c, 0, 60, 0
3, 30331, Note_on_c, 0, 65, 0
3, 30333, Note_on_c, 0, 77, 0
3, 30335, Note_on_c, 0, 82, 0
3, 30339, Note_on_c, 0, 54, 0
3, 30341, Note_on_c, 0, 86, 0
3, 30342, Note_on_c, 0, 89, 0
3, 30375, Control_c, 0, 64, 0
3, 30376, Note_on_c, 0, 54, 61
3, 30380, Note_on_c, 0, 65, 64
3, 30380, Note_on_c, 0, 86, 68
3, 30380, Note_on_c, 0, 89, 66
3, 30381, Note_on_c, 0, 60, 60
3, 30381, Note_on_c, 0, 77, 61
3, 30382, Note_on_c, 0, 82, 51
3, 30409, Control_c, 0, 64, 127
3, 30428, Note_on_c, 0, 60, 0
3, 30430, Note_on_c, 0, 65, 0
3, 30437, Note_on_c, 0, 54, 0
3, 30483, Note_on_c, 0, 54, 45
3, 30487, Note_on_c, 0, 65, 26
3, 30487, Note_on_c, 0, 60, 45
3, 30495, Note_on_c, 0, 65, 0
3, 30496, Note_on_c, 0, 60, 0
3, 30506, Note_on_c, 0, 82, 0
3, 30508, Note_on_c, 0, 86, 0
3, 30511, Note_on_c, 0, 54, 0
3, 30514, Note_on_c, 0, 77, 0
3, 30536, Note_on_c, 0, 89, 0
3, 30611, Control_c, 0, 64, 0
3, 30618, Note_on_c, 0, 31, 68
3, 30618, Note_on_c, 0, 43, 57
3, 30640, Control_c, 0, 64, 127
3, 30645, Note_on_c, 0, 31, 0
3, 30658, Note_on_c, 0, 43, 0
3, 30768, Note_on_c, 0, 89, 68
3, 30768, Note_on_c, 0, 85, 60
3, 30769, Note_on_c, 0, 80, 61
3, 30770, Note_on_c, 0, 74, 52
3, 30916, Note_on_c, 0, 74, 0
3, 30958, Note_on_c, 0, 85, 0
3, 30959, Note_on_c, 0, 80, 0
3, 30960, Note_on_c, 0, 89, 0
3, 30973, Note_on_c, 0, 88, 49
3, 30975, Note_on_c, 0, 79, 34
3, 30978, Note_on_c, 0, 84, 40
3, 30981, Note_on_c, 0, 76, 39
3, 30996, Control_c, 0, 64, 0
3, 31008, Control_c, 0, 64, 127
3, 31101, Note_on_c, 0, 76, 0
3, 31108, Note_on_c, 0, 74, 35
3, 31121, Note_on_c, 0, 88, 0
3, 31130, Note_on_c, 0, 84, 0
3, 31166, Note_on_c, 0, 79, 0
3, 31223, Note_on_c, 0, 74, 0
3, 31232, Note_on_c, 0, 77, 32
3, 31233, Note_on_c, 0, 86, 44
3, 31235, Note_on_c, 0, 82, 34
3, 31237, Note_on_c, 0, 72, 22
3, 31241, Control_c, 0, 64, 0
3, 31263, Control_c, 0, 64, 127
3, 31364, Note_on_c, 0, 69, 35
3, 31365, Note_on_c, 0, 72, 0
3, 31398, Note_on_c, 0, 82, 0
3, 31406, Note_on_c, 0, 77, 0
3, 31416, Note_on_c, 0, 69, 0
3, 31463, Note_on_c, 0, 86, 0
3, 31612, Note_on_c, 0, 42, 28
3, 31613, Note_on_c, 0, 76, 44
3, 31614, Note_on_c, 0, 88, 27
3, 31615, Note_on_c, 0, 80, 29
3, 31615, Note_on_c, 0, 84, 39
3, 31629, Control_c, 0, 64, 0
3, 31644, Note_on_c, 0, 30, 8
3, 31684, Control_c, 0, 64, 127
3, 31690, Note_on_c, 0, 30, 0
3, 31720, Note_on_c, 0, 42, 0
3, 31810, Note_on_c, 0, 58, 18
3, 31887, Note_on_c, 0, 88, 0
3, 31890, Note_on_c, 0, 84, 0
3, 31893, Note_on_c, 0, 60, 35
3, 31903, Note_on_c, 0, 76, 0
3, 31905, Note_on_c, 0, 80, 0
3, 31940, Note_on_c, 0, 60, 0
3, 31955, Note_on_c, 0, 58, 0
3, 31960, Note_on_c, 0, 64, 33
3, 32012, Note_on_c, 0, 64, 0
3, 32016, Note_on_c, 0, 66, 40
3, 32027, Note_on_c, 0, 72, 29
3, 32040, Note_on_c, 0, 72, 0
3, 32082, Note_on_c, 0, 76, 62
3, 32087, Note_on_c, 0, 71, 31
3, 32108, Note_on_c, 0, 71, 0
3, 32130, Note_on_c, 0, 76, 0
3, 32146, Note_on_c, 0, 82, 57
3, 32179, Note_on_c, 0, 82, 0
3, 32209, Note_on_c, 0, 84, 62
3, 32246, Note_on_c, 0, 66, 0
3, 32256, Note_on_c, 0, 84, 0
3, 32275, Note_on_c, 0, 88, 51
3, 32340, Note_on_c, 0, 91, 47
3, 32340, Note_on_c, 0, 88, 0
3, 32398, Note_on_c, 0, 91, 0
3, 32412, Note_on_c, 0, 53, 30
3, 32415, Note_on_c, 0, 88, 31
3, 32420, Control_c, 0, 64, 0
3, 32463, Control_c, 0, 64, 127
3, 32488, Note_on_c, 0, 88, 0
3, 32491, Note_on_c, 0, 60, 36
3, 32528, Note_on_c, 0, 53, 0
3, 32546, Note_on_c, 0, 60, 0
3, 32571, Note_on_c, 0, 86, 55
3, 32575, Note_on_c, 0, 69, 27
3, 32616, Note_on_c, 0, 69, 0
3, 32665, Note_on_c, 0, 69, 40
3, 32680, Note_on_c, 0, 86, 0
3, 32744, Note_on_c, 0, 69, 0
3, 32775, Note_on_c, 0, 84, 58
3, 32877, Note_on_c, 0, 69, 38
3, 32894, Note_on_c, 0, 69, 0
3, 32912, Note_on_c, 0, 84, 0
3, 33053, Note_on_c, 0, 86, 48
3, 33054, Note_on_c, 0, 46, 32
3, 33055, Note_on_c, 0, 78, 25
3, 33056, Note_on_c, 0, 74, 32
3, 33056, Note_on_c, 0, 81, 43
3, 33062, Control_c, 0, 64, 0
3, 33103, Control_c, 0, 64, 127
3, 33113, Note_on_c, 0, 86, 0
3, 33127, Note_on_c, 0, 81, 0
3, 33129, Note_on_c, 0, 78, 0
3, 33139, Note_on_c, 0, 74, 0
3, 33142, Note_on_c, 0, 54, 37
3, 33226, Note_on_c, 0, 46, 0
3, 33230, Note_on_c, 0, 54, 0
3, 33239, Note_on_c, 0, 57, 36
3, 33240, Note_on_c, 0, 66, 35
3, 33241, Note_on_c, 0, 62, 34
3, 33306, Note_on_c, 0, 62, 0
3, 33313, Note_on_c, 0, 57, 0
3, 33332, Note_on_c, 0, 66, 0
3, 33337, Note_on_c, 0, 62, 42
3, 33437, Note_on_c, 0, 74, 32
3, 33438, Note_on_c, 0, 66, 34
3, 33442, Note_on_c, 0, 69, 32
3, 33457, Note_on_c, 0, 62, 0
3, 33534, Note_on_c, 0, 74, 0
3, 33553, Note_on_c, 0, 69, 0
3, 33573, Note_on_c, 0, 62, 31
3, 33580, Note_on_c, 0, 66, 0
3, 33625, Note_on_c, 0, 62, 0
3, 33707, Note_on_c, 0, 62, 1
3, 33810, Note_on_c, 0, 69, 40
3, 33832, Note_on_c, 0, 62, 0
3, 33884, Note_on_c, 0, 69, 0
3, 34075, Note_on_c, 0, 71, 36
3, 34084, Note_on_c, 0, 43, 27
3, 34086, Note_on_c, 0, 59, 31
3, 34090, Note_on_c, 0, 65, 29
3, 34093, Note_on_c, 0, 53, 20
3, 34097, Control_c, 0, 64, 0
3, 34140, Control_c, 0, 64, 127
3, 34153, Note_on_c, 0, 53, 0
3, 34165, Note_on_c, 0, 43, 0
3, 34201, Note_on_c, 0, 59, 0
3, 34250, Note_on_c, 0, 65, 0
3, 34258, Note_on_c, 0, 31, 34
3, 34277, Note_on_c, 0, 31, 0
3, 34291, Note_on_c, 0, 71, 0
3, 34508, Note_on_c, 0, 80, 36
3, 34522, Note_on_c, 0, 82, 33
3, 34524, Note_on_c, 0, 80, 0
3, 34532, Note_on_c, 0, 82, 0
3, 34534, Note_on_c, 0, 83, 34
3, 34553, Note_on_c, 0, 86, 59
3, 34566, Note_on_c, 0, 83, 0
3, 34576, Note_on_c, 0, 88, 35
3, 34588, Note_on_c, 0, 86, 0
3, 34592, Note_on_c, 0, 91, 53
3, 34595, Note_on_c, 0, 88, 0
3, 34602, Note_on_c, 0, 91, 0
3, 34609, Note_on_c, 0, 92, 52
3, 34633, Note_on_c, 0, 92, 0
3, 34634, Note_on_c, 0, 95, 40
3, 34661, Note_on_c, 0, 95, 0
3, 34662, Note_on_c, 0, 98, 41
3, 34667, Note_on_c, 0, 100, 64
3, 34684, Note_on_c, 0, 98, 0
3, 34689, Note_on_c, 0, 100, 0
3, 34692, Note_on_c, 0, 103, 57
3, 34711, Note_on_c, 0, 103, 0
3, 35225, Note_on_c, 0, 67, 15
3, 35229, Note_on_c, 0, 88, 37
3, 35249, Control_c, 0, 64, 0
3, 35288, Control_c, 0, 64, 127
3, 35322, Note_on_c, 0, 72, 20
3, 35368, Note_on_c, 0, 72, 0
3, 35402, Note_on_c, 0, 74, 36
3, 35469, Note_on_c, 0, 74, 0
3, 35492, Note_on_c, 0, 76, 19
3, 35541, Note_on_c, 0, 88, 0
3, 35561, Note_on_c, 0, 76, 0
3, 35567, Note_on_c, 0, 71, 33
3, 35572, Note_on_c, 0, 88, 33
3, 35574, Control_c, 0, 64, 0
3, 35617, Control_c, 0, 64, 127
3, 35645, Note_on_c, 0, 72, 26
3, 35645, Note_on_c, 0, 71, 0
3, 35657, Note_on_c, 0, 88, 0
3, 35689, Note_on_c, 0, 67, 0
3, 35731, Note_on_c, 0, 72, 0
3, 35735, Note_on_c, 0, 88, 53
3, 35735, Note_on_c, 0, 67, 28
3, 35738, Control_c, 0, 64, 0
3, 35771, Control_c, 0, 64, 127
3, 35824, Note_on_c, 0, 72, 19
3, 35885, Note_on_c, 0, 72, 0
3, 35902, Note_on_c, 0, 74, 33
3, 35902, Note_on_c, 0, 88, 0
3, 35904, Note_on_c, 0, 86, 55
3, 35973, Note_on_c, 0, 74, 0
3, 35991, Note_on_c, 0, 76, 24
3, 36055, Note_on_c, 0, 76, 0
3, 36070, Note_on_c, 0, 71, 29
3, 36138, Note_on_c, 0, 71, 0
3, 36158, Note_on_c, 0, 84, 35
3, 36163, Note_on_c, 0, 72, 14
3, 36186, Note_on_c, 0, 67, 0
3, 36223, Note_on_c, 0, 84, 0
3, 36228, Note_on_c, 0, 72, 0
3, 36238, Note_on_c, 0, 67, 26
3, 36240, Control_c, 0, 64, 0
3, 36243, Note_on_c, 0, 77, 31
3, 36286, Control_c, 0, 64, 127
3, 36324, Note_on_c, 0, 74, 33
3, 36350, Note_on_c, 0, 77, 0
3, 36361, Note_on_c, 0, 86, 0
3, 36384, Note_on_c, 0, 74, 0
3, 36403, Note_on_c, 0, 76, 36
3, 36475, Note_on_c, 0, 76, 0
3, 36477, Note_on_c, 0, 77, 48
3, 36535, Note_on_c, 0, 77, 0
3, 36560, Note_on_c, 0, 72, 27
3, 36636, Note_on_c, 0, 74, 36
3, 36638, Note_on_c, 0, 72, 0
3, 36640, Note_on_c, 0, 77, 39
3, 36680, Note_on_c, 0, 67, 0
3, 36696, Note_on_c, 0, 77, 0
3, 36721, Note_on_c, 0, 77, 46
3, 36721, Control_c, 0, 64, 0
3, 36726, Note_on_c, 0, 74, 0
3, 36727, Note_on_c, 0, 67, 30
3, 36748, Control_c, 0, 64, 127
3, 36806, Note_on_c, 0, 77, 0
3, 36808, Note_on_c, 0, 74, 42
3, 36884, Note_on_c, 0, 74, 0
3, 36896, Note_on_c, 0, 76, 53
3, 36968, Note_on_c, 0, 76, 0
3, 36971, Note_on_c, 0, 77, 54
3, 37028, Note_on_c, 0, 77, 0
3, 37053, Note_on_c, 0, 79, 45
3, 37058, Note_on_c, 0, 72, 17
3, 37104, Note_on_c, 0, 72, 0
3, 37116, Note_on_c, 0, 79, 0
3, 37141, Note_on_c, 0, 81, 37
3, 37142, Note_on_c, 0, 76, 16
3, 37153, Note_on_c, 0, 67, 0
3, 37216, Note_on_c, 0, 81, 0
3, 37218, Note_on_c, 0, 76, 0
3, 37219, Control_c, 0, 64, 0
3, 37222, Note_on_c, 0, 88, 45
3, 37224, Note_on_c, 0, 67, 30
3, 37260, Control_c, 0, 64, 127
3, 37306, Note_on_c, 0, 72, 20
3, 37359, Note_on_c, 0, 72, 0
3, 37386, Note_on_c, 0, 74, 31
3, 37388, Note_on_c, 0, 84, 39
3, 37434, Note_on_c, 0, 74, 0
3, 37467, Note_on_c, 0, 76, 20
3, 37538, Note_on_c, 0, 71, 39
3, 37540, Note_on_c, 0, 76, 0
3, 37611, Note_on_c, 0, 72, 40
3, 37629, Note_on_c, 0, 67, 0
3, 37631, Note_on_c, 0, 71, 0
3, 37683, Control_c, 0, 64, 0
3, 37687, Note_on_c, 0, 72, 0
3, 37688, Note_on_c, 0, 67, 46
3, 37692, Note_on_c, 0, 84, 0
3, 37698, Control_c, 0, 64, 127
3, 37710, Note_on_c, 0, 88, 0
3, 37773, Note_on_c, 0, 72, 22
3, 37832, Note_on_c, 0, 72, 0
3, 37846, Note_on_c, 0, 74, 36
3, 37922, Note_on_c, 0, 74, 0
3, 37925, Note_on_c, 0, 76, 48
3, 37933, Note_on_c, 0, 100, 80
3, 38008, Note_on_c, 0, 71, 43
3, 38009, Note_on_c, 0, 76, 0
3, 38010, Note_on_c, 0, 100, 0
3, 38012, Note_on_c, 0, 95, 52
3, 38090, Note_on_c, 0, 72, 30
3, 38091, Note_on_c, 0, 96, 60
3, 38096, Note_on_c, 0, 95, 0
3, 38130, Note_on_c, 0, 67, 0
3, 38148, Note_on_c, 0, 71, 0
3, 38172, Control_c, 0, 64, 0
3, 38173, Note_on_c, 0, 67, 45
3, 38175, Note_on_c, 0, 72, 0
3, 38201, Control_c, 0, 64, 127
3, 38258, Note_on_c, 0, 74, 46
3, 38328, Note_on_c, 0, 74, 0
3, 38336, Note_on_c, 0, 76, 46
3, 38376, Note_on_c, 0, 76, 0
3, 38419, Note_on_c, 0, 77, 44
3, 38435, Note_on_c, 0, 96, 0
3, 38497, Note_on_c, 0, 72, 33
3, 38497, Note_on_c, 0, 100, 83
3, 38499, Note_on_c, 0, 77, 0
3, 38578, Note_on_c, 0, 74, 34
3, 38578, Note_on_c, 0, 72, 0
3, 38585, Note_on_c, 0, 95, 36
3, 38645, Note_on_c, 0, 100, 0
3, 38653, Note_on_c, 0, 76, 37
3, 38653, Note_on_c, 0, 74, 0
3, 38663, Note_on_c, 0, 96, 45
3, 38664, Note_on_c, 0, 95, 0
3, 38675, Note_on_c, 0, 67, 0
3, 38711, Control_c, 0, 64, 0
3, 38730, Control_c, 0, 64, 127
3, 38733, Note_on_c, 0, 67, 30
3, 38740, Note_on_c, 0, 76, 0
3, 38816, Note_on_c, 0, 89, 33
3, 38944, Note_on_c, 0, 67, 0
3, 39029, Note_on_c, 0, 96, 0
3, 39039, Note_on_c, 0, 89, 0
3, 39053, Note_on_c, 0, 72, 16
3, 39112, Note_on_c, 0, 72, 0
3, 39134, Note_on_c, 0, 88, 36
3, 39137, Note_on_c, 0, 67, 17
3, 39149, Control_c, 0, 64, 0
3, 39192, Control_c, 0, 64, 127
3, 39214, Note_on_c, 0, 72, 20
3, 39289, Note_on_c, 0, 72, 0
3, 39295, Note_on_c, 0, 74, 35
3, 39358, Note_on_c, 0, 74, 0
3, 39371, Note_on_c, 0, 76, 42
3, 39446, Note_on_c, 0, 71, 44
3, 39448, Note_on_c, 0, 76, 0
3, 39459, Control_c, 0, 64, 0
3, 39487, Control_c, 0, 64, 127
3, 39523, Note_on_c, 0, 72, 35
3, 39524, Note_on_c, 0, 67, 0
3, 39594, Note_on_c, 0, 71, 0
3, 39600, Note_on_c, 0, 67, 34
3, 39601, Note_on_c, 0, 72, 0
3, 39610, Control_c, 0, 64, 0
3, 39666, Control_c, 0, 64, 127
3, 39683, Note_on_c, 0, 72, 26
3, 39753, Note_on_c, 0, 88, 0
3, 39759, Note_on_c, 0, 79, 47
3, 39760, Note_on_c, 0, 76, 28
3, 39803, Note_on_c, 0, 67, 0
3, 39837, Note_on_c, 0, 91, 74
3, 39838, Note_on_c, 0, 67, 44
3, 39920, Note_on_c, 0, 88, 41
3, 39930, Note_on_c, 0, 67, 0
3, 39968, Note_on_c, 0, 79, 0
3, 39991, Note_on_c, 0, 91, 0
3, 39996, Note_on_c, 0, 67, 28
3, 39999, Note_on_c, 0, 88, 0
3, 40011, Note_on_c, 0, 79, 15
3, 40017, Note_on_c, 0, 67, 0
3, 40077, Control_c, 0, 64, 0
3, 40079, Note_on_c, 0, 89, 53
3, 40083, Note_on_c, 0, 67, 27
3, 40091, Note_on_c, 0, 72, 0
3, 40100, Note_on_c, 0, 76, 0
3, 40113, Control_c, 0, 64, 127
3, 40162, Note_on_c, 0, 74, 54
3, 40171, Note_on_c, 0, 79, 0
3, 40241, Note_on_c, 0, 76, 56
3, 40292, Note_on_c, 0, 76, 0
3, 40314, Note_on_c, 0, 74, 0
3, 40320, Note_on_c, 0, 77, 44
3, 40379, Note_on_c, 0, 77, 0
3, 40395, Note_on_c, 0, 72, 30
3, 40399, Control_c, 0, 64, 0
3, 40419, Control_c, 0, 64, 127
3, 40476, Note_on_c, 0, 72, 0
3, 40476, Note_on_c, 0, 89, 0
3, 40480, Note_on_c, 0, 77, 32
3, 40484, Note_on_c, 0, 67, 0
3, 40556, Note_on_c, 0, 77, 0
3, 40561, Note_on_c, 0, 55, 42
3, 40645, Note_on_c, 0, 62, 39
3, 40659, Note_on_c, 0, 62, 0
3, 40671, Note_on_c, 0, 55, 0
3, 40725, Note_on_c, 0, 65, 38
3, 40780, Note_on_c, 0, 65, 0
3, 40808, Note_on_c, 0, 50, 31
3, 40821, Note_on_c, 0, 50, 0
3, 40900, Note_on_c, 0, 57, 45
3, 40904, Note_on_c, 0, 43, 24
3, 40965, Note_on_c, 0, 43, 0
3, 40994, Note_on_c, 0, 36, 24
3, 41003, Note_on_c, 0, 36, 0
3, 41029, Note_on_c, 0, 57, 0
3, 41079, Note_on_c, 0, 55, 41
3, 41081, Note_on_c, 0, 24, 32
3, 41090, Control_c, 0, 64, 0
3, 41092, Note_on_c, 0, 36, 15
3, 41117, Note_on_c, 0, 24, 0
3, 41123, Note_on_c, 0, 55, 0
3, 41136, Control_c, 0, 64, 127
3, 41161, Note_on_c, 0, 24, 40
3, 41172, Note_on_c, 0, 36, 0
3, 41174, Note_on_c, 0, 24, 0
3, 41242, Note_on_c, 0, 67, 34
3, 41321, Note_on_c, 0, 67, 0
3, 41327, Note_on_c, 0, 60, 30
3, 41402, Note_on_c, 0, 60, 0
3, 41410, Note_on_c, 0, 64, 24
3, 41420, Note_on_c, 0, 64, 0
3, 41486, Note_on_c, 0, 67, 32
3, 41569, Note_on_c, 0, 88, 36
3, 41574, Note_on_c, 0, 79, 27
3, 41574, Note_on_c, 0, 67, 0
3, 41575, Note_on_c, 0, 72, 17
3, 41622, Note_on_c, 0, 79, 0
3, 41655, Note_on_c, 0, 72, 0
3, 41655, Note_on_c, 0, 88, 0
3, 41664, Note_on_c, 0, 67, 17
3, 41735, Note_on_c, 0, 72, 17
3, 41776, Note_on_c, 0, 67, 0
3, 41824, Note_on_c, 0, 91, 38
3, 41830, Note_on_c, 0, 84, 19
3, 41903, Note_on_c, 0, 84, 0
3, 41909, Note_on_c, 0, 91, 0
3, 42005, Note_on_c, 0, 60, 22
3, 42032, Note_on_c, 0, 72, 0
3, 42077, Note_on_c, 0, 89, 39
3, 42081, Control_c, 0, 64, 0
3, 42083, Note_on_c, 0, 69, 33
3, 42088, Note_on_c, 0, 77, 22
3, 42092, Note_on_c, 0, 81, 17
3, 42112, Note_on_c, 0, 69, 0
3, 42117, Control_c, 0, 64, 127
3, 42146, Note_on_c, 0, 89, 0
3, 42151, Note_on_c, 0, 77, 0
3, 42158, Note_on_c, 0, 81, 0
3, 42165, Note_on_c, 0, 69, 24
3, 42241, Note_on_c, 0, 93, 45
3, 42242, Note_on_c, 0, 101, 50
3, 42247, Note_on_c, 0, 69, 0
3, 42288, Note_on_c, 0, 101, 0
3, 42306, Note_on_c, 0, 93, 0
3, 42338, Note_on_c, 0, 69, 17
3, 42404, Note_on_c, 0, 93, 48
3, 42410, Note_on_c, 0, 72, 20
3, 42411, Note_on_c, 0, 84, 31
3, 42420, Note_on_c, 0, 69, 0
3, 42453, Note_on_c, 0, 93, 0
3, 42465, Note_on_c, 0, 84, 0
3, 42491, Note_on_c, 0, 69, 24
3, 42522, Note_on_c, 0, 60, 0
3, 42542, Note_on_c, 0, 72, 0
3, 42566, Note_on_c, 0, 89, 35
3, 42571, Note_on_c, 0, 77, 22
3, 42586, Note_on_c, 0, 69, 0
3, 42628, Note_on_c, 0, 89, 0
3, 42644, Note_on_c, 0, 60, 1
3, 42646, Note_on_c, 0, 69, 34
3, 42662, Note_on_c, 0, 77, 0
3, 42734, Note_on_c, 0, 84, 34
3, 42742, Note_on_c, 0, 77, 15
3, 42766, Note_on_c, 0, 60, 0
3, 42792, Note_on_c, 0, 84, 0
3, 42807, Note_on_c, 0, 77, 0
3, 42813, Note_on_c, 0, 69, 0
3, 42917, Note_on_c, 0, 72, 24
3, 42921, Note_on_c, 0, 77, 29
3, 43027, Note_on_c, 0, 55, 17
3, 43132, Note_on_c, 0, 77, 0
3, 43194, Note_on_c, 0, 72, 0
3, 43200, Control_c, 0, 64, 0
3, 43201, Note_on_c, 0, 48, 29
3, 43205, Note_on_c, 0, 76, 32
3, 43211, Note_on_c, 0, 55, 0
3, 43255, Control_c, 0, 64, 127
3, 43308, Note_on_c, 0, 55, 31
3, 43383, Note_on_c, 0, 48, 0
3, 43394, Note_on_c, 0, 55, 0
3, 43398, Note_on_c, 0, 72, 30
3, 43416, Note_on_c, 0, 62, 28
3, 43491, Note_on_c, 0, 62, 0
3, 43504, Note_on_c, 0, 64, 36
3, 43529, Note_on_c, 0, 72, 0
3, 43563, Note_on_c, 0, 76, 0
3, 43591, Note_on_c, 0, 64, 0
3, 43609, Note_on_c, 0, 67, 24
3, 43686, Note_on_c, 0, 67, 0
3, 43700, Note_on_c, 0, 72, 33
3, 43789, Note_on_c, 0, 76, 37
3, 43869, Note_on_c, 0, 76, 0
3, 43884, Note_on_c, 0, 83, 44
3, 43936, Note_on_c, 0, 83, 0
3, 43983, Note_on_c, 0, 86, 48
3, 44066, Note_on_c, 0, 86, 0
3, 44075, Note_on_c, 0, 88, 40
3, 44095, Note_on_c, 0, 88, 0
3, 44172, Note_on_c, 0, 91, 38
3, 44258, Note_on_c, 0, 91, 0
3, 44264, Note_on_c, 0, 95, 33
3, 44288, Note_on_c, 0, 95, 0
3, 44359, Note_on_c, 0, 98, 42
3, 44460, Note_on_c, 0, 103, 32
3, 44547, Note_on_c, 0, 103, 0
3, 44586, Note_on_c, 0, 103, 30
3, 44630, Note_on_c, 0, 98, 0
3, 44639, Note_on_c, 0, 103, 0
3, 44646, Note_on_c, 0, 72, 0
3, 44951, Control_c, 0, 64, 0
3, 44951, End_track
4, 0, Start_track
4, 0, Title_t, "Solo Piano in Real time"
4, 0, End_track
5, 0, Start_track
5, 0, Title_t, "Solo Piano in Real time"
5, 0, End_track
6, 0, Start_track
6, 0, Title_t, "Solo Piano in Real time"
6, 0, End_track
7, 0, Start_track
7, 0, Title_t, "Solo Piano in Real time"
7, 0, End_track
0, 0, End_of_file
