0, 0, Header, 0, 1, 384
1, 0, Start_track
1, 0, Title_t, "untitled"
1, 0, SMPTE_offset, 96, 0, 3, 0, 0
1, 0, System_exclusive, 5, 126, 127, 9, 1, 247
1, 0, Time_signature, 4, 2, 24, 8
1, 0, Key_signature, -1, "major"
1, 0, Tempo, 545455
1, 0, Sequencer_specific, 21, 67, 115, 10, 0, 5, 75, 90, 79, 79, 79, 79, 79, 79, 79, 90, 79, 79, 79, 79, 79, 79
1, 0, Sequencer_specific, 6, 67, 115, 10, 0, 4, 1
1, 0, Sequencer_specific, 9, 67, 123, 0, 88, 70, 48, 50, 0, 0
1, 384, Program_c, 0, 0
1, 385, Control_c, 0, 7, 100
1, 386, Control_c, 1, 0, 0
1, 386, Control_c, 1, 32, 0
1, 386, Program_c, 1, 32
1, 387, Control_c, 1, 7, 127
1, 387, Control_c, 1, 10, 64
1, 387, Control_c, 1, 91, 16
1, 387, Control_c, 1, 93, 0
1, 402, Program_c, 9, 40
1, 403, Control_c, 9, 7, 63
1, 768, Control_c, 1, 11, 127
1, 768, Control_c, 1, 94, 0
1, 768, Control_c, 1, 101, 0
1, 769, Control_c, 1, 100, 1
1, 770, Control_c, 1, 6, 64
1, 771, Control_c, 1, 38, 0
1, 772, Control_c, 1, 71, 64
1, 772, Control_c, 1, 74, 64
1, 1536, Note_on_c, 9, 42, 75
1, 1920, Note_on_c, 9, 42, 0
1, 1920, Note_on_c, 9, 42, 52
1, 2304, Note_on_c, 9, 42, 0
1, 2322, Note_on_c, 9, 42, 63
1, 2706, Note_on_c, 9, 42, 0
1, 2716, Note_on_c, 9, 42, 52
1, 3071, Control_c, 0, 0, 0
1, 3071, Control_c, 0, 32, 122
1, 3072, Note_on_c, 9, 42, 0
1, 3072, Program_c, 0, 0
1, 3072, Control_c, 0, 7, 99
1, 3072, Control_c, 0, 10, 64
1, 3072, Control_c, 0, 11, 127
1, 3072, Control_c, 0, 91, 10
1, 3072, Control_c, 0, 93, 0
1, 3072, Control_c, 0, 94, 0
1, 3072, Control_c, 0, 101, 0
1, 3073, Control_c, 0, 100, 1
1, 3074, Control_c, 0, 6, 64
1, 3075, Control_c, 0, 38, 0
1, 3076, Pitch_bend_c, 0, 8192
1, 3076, Control_c, 0, 64, 0
1, 3076, Control_c, 0, 71, 43
1, 3076, Control_c, 0, 74, 46
1, 3076, Note_on_c, 0, 57, 76
1, 3076, Note_on_c, 0, 64, 73
1, 3076, Note_on_c, 0, 60, 64
1, 3076, Note_on_c, 0, 55, 75
1, 3076, Note_on_c, 9, 51, 105
1, 3088, Note_on_c, 0, 52, 75
1, 3124, Note_on_c, 1, 36, 57
1, 3446, Note_on_c, 9, 51, 66
1, 3450, Note_on_c, 9, 44, 101
1, 3460, Note_on_c, 9, 51, 0
1, 3468, Control_c, 0, 64, 127
1, 3584, Note_on_c, 0, 55, 0
1, 3596, Note_on_c, 0, 64, 0
1, 3600, Note_on_c, 0, 60, 0
1, 3612, Note_on_c, 0, 57, 0
1, 3620, Note_on_c, 0, 62, 57
1, 3628, Note_on_c, 0, 52, 0
1, 3632, Note_on_c, 0, 50, 54
1, 3636, Note_on_c, 9, 44, 0
1, 3648, Control_c, 0, 64, 0
1, 3700, Note_on_c, 0, 62, 0
1, 3706, Note_on_c, 9, 36, 42
1, 3732, Note_on_c, 9, 36, 0
1, 3744, Note_on_c, 0, 55, 61
1, 3744, Note_on_c, 0, 64, 60
1, 3752, Note_on_c, 0, 50, 0
1, 3752, Note_on_c, 0, 52, 68
1, 3752, Note_on_c, 0, 57, 63
1, 3756, Note_on_c, 0, 60, 62
1, 3756, Note_on_c, 1, 43, 40
1, 3816, Note_on_c, 1, 36, 0
1, 3830, Note_on_c, 9, 51, 63
1, 3832, Note_on_c, 0, 55, 0
1, 3840, Note_on_c, 0, 60, 0
1, 3844, Note_on_c, 9, 51, 0
1, 3848, Note_on_c, 1, 43, 0
1, 3860, Note_on_c, 0, 64, 0
1, 3864, Note_on_c, 0, 57, 0
1, 3868, Note_on_c, 1, 45, 54
1, 3888, Note_on_c, 0, 62, 56
1, 3892, Control_c, 0, 64, 127
1, 3892, Note_on_c, 0, 55, 32
1, 3896, Note_on_c, 0, 50, 49
1, 3896, Note_on_c, 0, 57, 30
1, 3904, Note_on_c, 0, 52, 0
1, 4000, Note_on_c, 0, 55, 0
1, 4012, Note_on_c, 0, 57, 0
1, 4064, Control_c, 0, 64, 0
1, 4080, Note_on_c, 0, 62, 0
1, 4128, Note_on_c, 0, 60, 57
1, 4132, Note_on_c, 0, 48, 60
1, 4140, Note_on_c, 0, 57, 52
1, 4144, Note_on_c, 0, 50, 0
1, 4144, Note_on_c, 0, 53, 42
1, 4172, Note_on_c, 0, 53, 0
1, 4184, Note_on_c, 0, 57, 0
1, 4196, Note_on_c, 0, 60, 0
1, 4214, Note_on_c, 9, 51, 63
1, 4218, Note_on_c, 0, 48, 0
1, 4218, Note_on_c, 9, 44, 98
1, 4228, Note_on_c, 9, 51, 0
1, 4272, Control_c, 0, 64, 127
1, 4308, Note_on_c, 9, 44, 0
1, 4468, Control_c, 0, 64, 0
1, 4504, Note_on_c, 0, 62, 79
1, 4508, Note_on_c, 0, 48, 65
1, 4508, Note_on_c, 0, 53, 72
1, 4508, Note_on_c, 0, 57, 72
1, 4556, Note_on_c, 1, 45, 0
1, 4598, Note_on_c, 9, 51, 77
1, 4600, Control_c, 0, 64, 127
1, 4612, Note_on_c, 9, 51, 0
1, 4612, Note_on_c, 1, 50, 68
1, 4612, Note_on_c, 9, 51, 105
1, 4684, Note_on_c, 0, 57, 0
1, 4696, Note_on_c, 0, 53, 0
1, 4800, Note_on_c, 0, 62, 0
1, 4856, Note_on_c, 0, 49, 65
1, 4864, Note_on_c, 0, 64, 71
1, 4868, Note_on_c, 0, 61, 69
1, 4868, Note_on_c, 1, 44, 59
1, 4880, Note_on_c, 0, 58, 63
1, 4888, Note_on_c, 0, 62, 43
1, 4904, Note_on_c, 1, 50, 0
1, 4924, Note_on_c, 0, 62, 0
1, 4940, Note_on_c, 0, 48, 0
1, 4944, Note_on_c, 0, 64, 0
1, 4952, Note_on_c, 0, 58, 0
1, 4960, Control_c, 0, 64, 0
1, 4972, Note_on_c, 1, 44, 0
1, 4982, Note_on_c, 9, 51, 66
1, 4984, Note_on_c, 0, 61, 0
1, 4986, Note_on_c, 9, 44, 101
1, 4996, Note_on_c, 9, 51, 0
1, 4996, Note_on_c, 9, 51, 0
1, 5008, Note_on_c, 1, 43, 52
1, 5020, Note_on_c, 0, 49, 0
1, 5032, Note_on_c, 0, 65, 75
1, 5032, Note_on_c, 0, 50, 63
1, 5032, Note_on_c, 0, 60, 68
1, 5036, Note_on_c, 0, 57, 68
1, 5152, Control_c, 0, 64, 127
1, 5168, Note_on_c, 0, 65, 0
1, 5172, Note_on_c, 9, 44, 0
1, 5192, Note_on_c, 0, 57, 0
1, 5200, Note_on_c, 0, 60, 0
1, 5242, Note_on_c, 9, 36, 42
1, 5244, Note_on_c, 0, 50, 0
1, 5264, Note_on_c, 0, 52, 79
1, 5264, Note_on_c, 0, 67, 77
1, 5268, Note_on_c, 9, 36, 0
1, 5276, Note_on_c, 0, 62, 70
1, 5284, Note_on_c, 0, 59, 56
1, 5308, Note_on_c, 0, 59, 0
1, 5336, Control_c, 0, 64, 0
1, 5360, Note_on_c, 1, 43, 0
1, 5360, Note_on_c, 0, 62, 0
1, 5364, Note_on_c, 0, 67, 0
1, 5366, Note_on_c, 9, 51, 63
1, 5380, Note_on_c, 9, 51, 0
1, 5384, Note_on_c, 1, 38, 47
1, 5444, Note_on_c, 0, 69, 54
1, 5452, Note_on_c, 0, 52, 0
1, 5452, Note_on_c, 0, 67, 48
1, 5452, Note_on_c, 0, 64, 63
1, 5456, Control_c, 0, 64, 127
1, 5456, Note_on_c, 0, 53, 59
1, 5456, Note_on_c, 0, 60, 57
1, 5476, Note_on_c, 0, 67, 0
1, 5532, Note_on_c, 0, 69, 0
1, 5536, Note_on_c, 0, 60, 0
1, 5568, Note_on_c, 0, 64, 0
1, 5732, Note_on_c, 1, 38, 0
1, 5744, Note_on_c, 0, 53, 0
1, 5750, Note_on_c, 9, 51, 63
1, 5754, Note_on_c, 9, 44, 98
1, 5760, Note_on_c, 1, 35, 44
1, 5764, Note_on_c, 9, 51, 0
1, 5784, Control_c, 0, 64, 0
1, 5800, Note_on_c, 0, 71, 85
1, 5804, Note_on_c, 0, 68, 75
1, 5804, Note_on_c, 0, 56, 81
1, 5804, Note_on_c, 0, 65, 81
1, 5804, Note_on_c, 0, 62, 82
1, 5844, Note_on_c, 9, 44, 0
1, 5868, Control_c, 0, 64, 127
1, 5972, Note_on_c, 0, 71, 0
1, 5988, Note_on_c, 0, 62, 0
1, 5992, Note_on_c, 0, 65, 0
1, 6024, Control_c, 0, 64, 0
1, 6040, Note_on_c, 0, 68, 0
1, 6072, Note_on_c, 0, 57, 85
1, 6072, Note_on_c, 0, 72, 86
1, 6076, Note_on_c, 0, 67, 81
1, 6080, Note_on_c, 0, 64, 82
1, 6084, Note_on_c, 0, 69, 73
1, 6108, Note_on_c, 0, 56, 0
1, 6120, Note_on_c, 1, 35, 0
1, 6134, Note_on_c, 9, 51, 77
1, 6148, Note_on_c, 9, 51, 0
1, 6148, Note_on_c, 1, 36, 48
1, 6180, Control_c, 0, 64, 127
1, 6280, Note_on_c, 0, 64, 0
1, 6304, Note_on_c, 0, 67, 0
1, 6308, Note_on_c, 0, 71, 22
1, 6312, Note_on_c, 0, 57, 0
1, 6320, Note_on_c, 0, 72, 0
1, 6324, Note_on_c, 0, 69, 0
1, 6352, Note_on_c, 0, 71, 0
1, 6436, Note_on_c, 0, 74, 79
1, 6444, Note_on_c, 0, 69, 68
1, 6444, Note_on_c, 0, 65, 72
1, 6444, Note_on_c, 0, 60, 50
1, 6468, Note_on_c, 0, 71, 53
1, 6492, Note_on_c, 0, 71, 0
1, 6516, Note_on_c, 0, 74, 0
1, 6516, Control_c, 0, 64, 0
1, 6518, Note_on_c, 9, 51, 47
1, 6520, Note_on_c, 0, 65, 0
1, 6522, Note_on_c, 9, 44, 91
1, 6528, Note_on_c, 0, 69, 0
1, 6576, Note_on_c, 0, 60, 0
1, 6600, Note_on_c, 0, 72, 64
1, 6604, Control_c, 0, 64, 127
1, 6604, Note_on_c, 0, 59, 66
1, 6612, Note_on_c, 0, 64, 53
1, 6612, Note_on_c, 0, 67, 57
1, 6664, Note_on_c, 0, 67, 0
1, 6672, Note_on_c, 0, 59, 0
1, 6676, Note_on_c, 9, 44, 0
1, 6680, Note_on_c, 0, 64, 0
1, 6696, Note_on_c, 0, 72, 0
1, 6772, Note_on_c, 9, 36, 35
1, 6804, Note_on_c, 9, 36, 0
1, 6836, Control_c, 0, 64, 0
1, 6844, Note_on_c, 0, 60, 57
1, 6848, Note_on_c, 0, 67, 61
1, 6852, Note_on_c, 0, 64, 61
1, 6856, Note_on_c, 0, 46, 57
1, 6860, Note_on_c, 0, 56, 57
1, 6906, Note_on_c, 9, 51, 56
1, 6908, Note_on_c, 1, 50, 75
1, 6916, Note_on_c, 9, 51, 0
1, 6916, Note_on_c, 9, 51, 0
1, 6928, Note_on_c, 1, 36, 0
1, 6928, Note_on_c, 1, 34, 57
1, 6968, Control_c, 0, 64, 127
1, 7100, Note_on_c, 0, 46, 0
1, 7116, Note_on_c, 0, 60, 0
1, 7116, Note_on_c, 0, 64, 0
1, 7128, Note_on_c, 0, 56, 0
1, 7148, Note_on_c, 0, 67, 0
1, 7204, Note_on_c, 0, 46, 58
1, 7204, Note_on_c, 0, 56, 54
1, 7208, Note_on_c, 0, 69, 60
1, 7212, Note_on_c, 0, 64, 54
1, 7216, Note_on_c, 0, 60, 55
1, 7256, Control_c, 0, 64, 0
1, 7268, Note_on_c, 0, 56, 0
1, 7284, Note_on_c, 0, 60, 0
1, 7284, Note_on_c, 0, 46, 0
1, 7284, Note_on_c, 0, 69, 0
1, 7290, Note_on_c, 9, 51, 54
1, 7296, Note_on_c, 0, 64, 0
1, 7300, Note_on_c, 9, 51, 0
1, 7300, Note_on_c, 9, 44, 80
1, 7356, Note_on_c, 0, 56, 30
1, 7360, Control_c, 0, 64, 127
1, 7364, Note_on_c, 0, 46, 36
1, 7400, Note_on_c, 0, 56, 0
1, 7478, Note_on_c, 9, 44, 0
1, 7488, Note_on_c, 0, 46, 0
1, 7568, Control_c, 0, 64, 0
1, 7584, Note_on_c, 0, 55, 44
1, 7584, Note_on_c, 0, 52, 54
1, 7584, Note_on_c, 0, 64, 39
1, 7584, Note_on_c, 0, 58, 51
1, 7596, Note_on_c, 0, 45, 41
1, 7596, Note_on_c, 0, 61, 46
1, 7664, Note_on_c, 1, 34, 0
1, 7668, Note_on_c, 1, 50, 0
1, 7670, Note_on_c, 9, 51, 64
1, 7684, Note_on_c, 9, 51, 0
1, 7684, Note_on_c, 1, 49, 41
1, 7696, Control_c, 0, 64, 127
1, 7708, Note_on_c, 1, 33, 39
1, 7844, Note_on_c, 0, 55, 0
1, 7852, Note_on_c, 0, 61, 0
1, 7872, Note_on_c, 0, 58, 0
1, 7920, Note_on_c, 0, 64, 0
1, 7924, Note_on_c, 0, 52, 0
1, 7928, Note_on_c, 1, 49, 0
1, 7960, Note_on_c, 1, 33, 0
1, 7960, Note_on_c, 1, 50, 43
1, 7964, Note_on_c, 0, 49, 50
1, 7964, Note_on_c, 1, 35, 41
1, 7972, Note_on_c, 0, 61, 52
1, 7980, Note_on_c, 0, 55, 36
1, 7984, Control_c, 0, 64, 0
1, 7988, Note_on_c, 0, 58, 38
1, 8016, Note_on_c, 0, 55, 0
1, 8020, Note_on_c, 0, 58, 0
1, 8020, Note_on_c, 1, 50, 0
1, 8024, Note_on_c, 1, 35, 0
1, 8032, Note_on_c, 0, 45, 0
1, 8048, Note_on_c, 0, 61, 0
1, 8054, Note_on_c, 9, 51, 64
1, 8056, Note_on_c, 1, 36, 50
1, 8058, Note_on_c, 9, 44, 84
1, 8068, Note_on_c, 9, 51, 0
1, 8088, Note_on_c, 0, 49, 0
1, 8088, Control_c, 0, 64, 127
1, 8092, Note_on_c, 1, 51, 54
1, 8116, Note_on_c, 0, 52, 56
1, 8148, Note_on_c, 0, 52, 0
1, 8314, Note_on_c, 9, 44, 0
1, 8330, Note_on_c, 9, 36, 28
1, 8348, Note_on_c, 9, 36, 0
1, 8348, Control_c, 0, 64, 0
1, 8348, Note_on_c, 0, 72, 75
1, 8356, Note_on_c, 0, 60, 74
1, 8356, Note_on_c, 0, 61, 72
1, 8356, Note_on_c, 0, 64, 71
1, 8388, Note_on_c, 0, 70, 36
1, 8392, Note_on_c, 0, 67, 33
1, 8424, Note_on_c, 0, 70, 0
1, 8432, Note_on_c, 1, 36, 0
1, 8438, Note_on_c, 9, 51, 47
1, 8452, Note_on_c, 9, 51, 0
1, 8452, Note_on_c, 1, 37, 49
1, 8468, Note_on_c, 1, 51, 0
1, 8472, Note_on_c, 1, 52, 54
1, 8632, Note_on_c, 0, 72, 0
1, 8652, Note_on_c, 0, 64, 0
1, 8656, Note_on_c, 0, 61, 0
1, 8668, Note_on_c, 0, 67, 0
1, 8668, Control_c, 0, 64, 127
1, 8672, Control_c, 0, 64, 0
1, 8704, Note_on_c, 0, 60, 0
1, 8720, Note_on_c, 0, 58, 61
1, 8724, Note_on_c, 0, 70, 52
1, 8724, Note_on_c, 0, 61, 57
1, 8744, Note_on_c, 0, 64, 48
1, 8752, Note_on_c, 0, 67, 40
1, 8808, Note_on_c, 0, 61, 0
1, 8812, Note_on_c, 0, 70, 0
1, 8822, Note_on_c, 9, 51, 91
1, 8826, Note_on_c, 9, 46, 36
1, 8836, Note_on_c, 9, 51, 0
1, 8840, Note_on_c, 0, 67, 0
1, 8844, Note_on_c, 0, 58, 0
1, 8856, Note_on_c, 0, 64, 0
1, 8880, Note_on_c, 0, 57, 54
1, 8884, Note_on_c, 0, 61, 39
1, 8892, Control_c, 0, 64, 127
1, 8916, Control_c, 0, 64, 0
1, 8932, Note_on_c, 9, 46, 0
1, 8952, Control_c, 0, 64, 127
1, 8970, Note_on_c, 9, 51, 49
1, 8992, Note_on_c, 9, 51, 0
1, 9028, Note_on_c, 0, 57, 0
1, 9040, Note_on_c, 0, 61, 0
1, 9094, Note_on_c, 9, 36, 52
1, 9132, Note_on_c, 9, 36, 0
1, 9132, Note_on_c, 1, 34, 40
1, 9140, Note_on_c, 0, 48, 48
1, 9144, Note_on_c, 1, 37, 0
1, 9184, Control_c, 0, 64, 0
1, 9196, Note_on_c, 1, 52, 0
1, 9206, Note_on_c, 9, 51, 94
1, 9216, Note_on_c, 0, 48, 0
1, 9220, Note_on_c, 9, 51, 0
1, 9224, Note_on_c, 1, 53, 38
1, 9228, Note_on_c, 1, 38, 41
1, 9228, Note_on_c, 9, 36, 35
1, 9236, Note_on_c, 0, 50, 50
1, 9240, Note_on_c, 1, 34, 0
1, 9240, Note_on_c, 0, 54, 78
1, 9244, Note_on_c, 0, 64, 68
1, 9252, Note_on_c, 0, 60, 60
1, 9252, Note_on_c, 0, 57, 68
1, 9256, Note_on_c, 0, 52, 69
1, 9264, Note_on_c, 0, 50, 0
1, 9296, Note_on_c, 9, 36, 0
1, 9324, Note_on_c, 1, 53, 0
1, 9460, Note_on_c, 0, 64, 0
1, 9476, Note_on_c, 0, 54, 0
1, 9484, Note_on_c, 0, 57, 0
1, 9484, Note_on_c, 0, 60, 0
1, 9528, Note_on_c, 0, 52, 0
1, 9540, Note_on_c, 0, 50, 56
1, 9540, Note_on_c, 0, 62, 38
1, 9588, Note_on_c, 0, 62, 0
1, 9590, Note_on_c, 9, 51, 84
1, 9594, Note_on_c, 9, 44, 89
1, 9604, Note_on_c, 9, 51, 0
1, 9648, Note_on_c, 0, 54, 77
1, 9652, Note_on_c, 0, 50, 0
1, 9656, Note_on_c, 0, 64, 69
1, 9656, Note_on_c, 0, 57, 69
1, 9660, Note_on_c, 0, 52, 70
1, 9660, Note_on_c, 0, 60, 60
1, 9690, Note_on_c, 9, 44, 0
1, 9836, Note_on_c, 9, 36, 38
1, 9868, Note_on_c, 9, 36, 0
1, 9924, Note_on_c, 0, 64, 0
1, 9936, Note_on_c, 0, 54, 0
1, 9972, Note_on_c, 1, 38, 0
1, 9972, Note_on_c, 0, 57, 0
1, 9974, Note_on_c, 9, 51, 80
1, 9976, Note_on_c, 0, 60, 0
1, 9988, Note_on_c, 9, 51, 0
1, 10004, Note_on_c, 0, 52, 0
1, 10008, Note_on_c, 1, 45, 57
1, 10024, Note_on_c, 0, 54, 37
1, 10028, Note_on_c, 0, 62, 57
1, 10032, Note_on_c, 0, 50, 52
1, 10052, Note_on_c, 0, 57, 35
1, 10104, Control_c, 0, 64, 127
1, 10172, Note_on_c, 0, 54, 0
1, 10196, Note_on_c, 0, 57, 0
1, 10220, Control_c, 0, 64, 0
1, 10232, Note_on_c, 0, 62, 0
1, 10256, Note_on_c, 1, 38, 26
1, 10272, Note_on_c, 0, 54, 63
1, 10280, Note_on_c, 0, 50, 0
1, 10280, Note_on_c, 0, 60, 63
1, 10280, Note_on_c, 0, 48, 56
1, 10300, Note_on_c, 1, 38, 0
1, 10320, Note_on_c, 0, 48, 0
1, 10328, Note_on_c, 1, 45, 0
1, 10336, Note_on_c, 0, 54, 0
1, 10356, Note_on_c, 0, 60, 0
1, 10356, Note_on_c, 1, 44, 63
1, 10358, Note_on_c, 9, 51, 71
1, 10362, Note_on_c, 9, 44, 87
1, 10372, Note_on_c, 9, 51, 0
1, 10500, Note_on_c, 9, 44, 0
1, 10620, Note_on_c, 9, 36, 36
1, 10644, Note_on_c, 0, 62, 76
1, 10648, Note_on_c, 0, 53, 72
1, 10648, Note_on_c, 0, 57, 72
1, 10648, Note_on_c, 0, 48, 71
1, 10688, Note_on_c, 9, 36, 0
1, 10740, Control_c, 0, 64, 127
1, 10742, Note_on_c, 9, 51, 68
1, 10756, Note_on_c, 9, 51, 0
1, 10762, Note_on_c, 0, 57, 0
1, 10762, Note_on_c, 9, 36, 33
1, 10848, Note_on_c, 0, 53, 0
1, 10848, Note_on_c, 1, 44, 0
1, 10876, Note_on_c, 1, 43, 58
1, 10912, Note_on_c, 1, 43, 0
1, 10940, Note_on_c, 9, 36, 0
1, 10948, Note_on_c, 0, 62, 0
1, 10984, Note_on_c, 1, 38, 48
1, 10996, Note_on_c, 0, 49, 67
1, 11004, Note_on_c, 0, 64, 69
1, 11004, Note_on_c, 0, 58, 71
1, 11008, Note_on_c, 0, 55, 74
1, 11008, Note_on_c, 0, 61, 65
1, 11012, Note_on_c, 0, 48, 0
1, 11032, Note_on_c, 0, 62, 36
1, 11064, Note_on_c, 1, 38, 0
1, 11072, Note_on_c, 0, 62, 0
1, 11072, Note_on_c, 0, 55, 0
1, 11084, Control_c, 0, 64, 0
1, 11088, Note_on_c, 0, 64, 0
1, 11108, Note_on_c, 0, 58, 0
1, 11124, Note_on_c, 1, 32, 54
1, 11126, Note_on_c, 9, 51, 61
1, 11130, Note_on_c, 9, 44, 68
1, 11140, Note_on_c, 0, 61, 0
1, 11140, Note_on_c, 9, 51, 0
1, 11176, Note_on_c, 0, 49, 0
1, 11188, Note_on_c, 0, 50, 57
1, 11192, Note_on_c, 0, 65, 74
1, 11192, Note_on_c, 0, 60, 70
1, 11192, Note_on_c, 0, 57, 72
1, 11236, Control_c, 0, 64, 127
1, 11290, Note_on_c, 9, 44, 0
1, 11312, Note_on_c, 0, 65, 0
1, 11312, Note_on_c, 0, 57, 0
1, 11332, Note_on_c, 0, 60, 0
1, 11388, Note_on_c, 0, 50, 0
1, 11400, Note_on_c, 0, 52, 70
1, 11404, Control_c, 0, 64, 0
1, 11404, Note_on_c, 0, 67, 76
1, 11412, Note_on_c, 0, 62, 72
1, 11412, Note_on_c, 0, 59, 72
1, 11428, Note_on_c, 0, 63, 45
1, 11460, Note_on_c, 0, 63, 0
1, 11460, Note_on_c, 1, 32, 0
1, 11480, Note_on_c, 0, 59, 0
1, 11504, Note_on_c, 0, 67, 0
1, 11504, Note_on_c, 1, 31, 56
1, 11510, Note_on_c, 9, 51, 66
1, 11512, Note_on_c, 0, 62, 0
1, 11524, Note_on_c, 9, 51, 0
1, 11588, Note_on_c, 0, 52, 0
1, 11600, Note_on_c, 0, 69, 68
1, 11608, Note_on_c, 0, 53, 55
1, 11608, Note_on_c, 0, 64, 63
1, 11612, Note_on_c, 0, 60, 57
1, 11616, Control_c, 0, 64, 127
1, 11748, Note_on_c, 0, 60, 0
1, 11760, Note_on_c, 0, 64, 0
1, 11772, Note_on_c, 0, 69, 0
1, 11856, Note_on_c, 0, 53, 0
1, 11860, Note_on_c, 1, 31, 0
1, 11892, Note_on_c, 9, 51, 75
1, 11898, Note_on_c, 9, 44, 82
1, 11908, Note_on_c, 9, 51, 0
1, 11908, Note_on_c, 1, 29, 58
1, 12010, Note_on_c, 9, 44, 0
1, 12152, Note_on_c, 0, 56, 56
1, 12156, Note_on_c, 9, 36, 54
1, 12164, Note_on_c, 0, 68, 58
1, 12172, Note_on_c, 0, 71, 56
1, 12176, Note_on_c, 0, 62, 55
1, 12176, Note_on_c, 0, 65, 52
1, 12188, Note_on_c, 9, 36, 0
1, 12224, Note_on_c, 0, 65, 0
1, 12232, Note_on_c, 0, 62, 0
1, 12272, Note_on_c, 1, 28, 72
1, 12276, Note_on_c, 0, 71, 0
1, 12278, Note_on_c, 9, 51, 78
1, 12288, Note_on_c, 1, 29, 0
1, 12292, Note_on_c, 9, 51, 0
1, 12304, Note_on_c, 0, 68, 0
1, 12312, Note_on_c, 0, 56, 0
1, 12324, Control_c, 0, 64, 0
1, 12392, Note_on_c, 0, 55, 45
1, 12412, Note_on_c, 0, 64, 46
1, 12416, Note_on_c, 0, 62, 31
1, 12416, Note_on_c, 0, 67, 44
1, 12528, Note_on_c, 0, 64, 0
1, 12536, Note_on_c, 0, 55, 0
1, 12540, Note_on_c, 0, 62, 0
1, 12548, Note_on_c, 0, 67, 0
1, 12620, Note_on_c, 0, 62, 50
1, 12624, Note_on_c, 0, 67, 56
1, 12628, Note_on_c, 0, 55, 41
1, 12628, Note_on_c, 0, 64, 50
1, 12644, Note_on_c, 0, 62, 0
1, 12656, Note_on_c, 0, 64, 0
1, 12662, Note_on_c, 9, 51, 70
1, 12666, Note_on_c, 9, 44, 87
1, 12672, Note_on_c, 0, 55, 0
1, 12676, Note_on_c, 9, 51, 0
1, 12684, Note_on_c, 0, 67, 0
1, 12800, Note_on_c, 9, 44, 0
1, 13040, Note_on_c, 1, 39, 73
1, 13046, Note_on_c, 9, 51, 59
1, 13060, Note_on_c, 9, 51, 0
1, 13068, Note_on_c, 1, 28, 0
1, 13068, Note_on_c, 0, 61, 50
1, 13068, Note_on_c, 0, 72, 82
1, 13068, Note_on_c, 0, 84, 89
1, 13068, Note_on_c, 0, 65, 61
1, 13068, Note_on_c, 0, 77, 76
1, 13068, Note_on_c, 0, 55, 57
1, 13080, Note_on_c, 0, 60, 57
1, 13084, Note_on_c, 0, 58, 42
1, 13224, Note_on_c, 0, 55, 0
1, 13228, Note_on_c, 0, 72, 0
1, 13232, Note_on_c, 0, 84, 0
1, 13232, Note_on_c, 0, 65, 0
1, 13240, Note_on_c, 0, 60, 0
1, 13240, Note_on_c, 0, 77, 0
1, 13244, Note_on_c, 0, 58, 0
1, 13248, Note_on_c, 0, 61, 0
1, 13296, Note_on_c, 0, 65, 60
1, 13296, Note_on_c, 0, 84, 60
1, 13308, Note_on_c, 0, 61, 52
1, 13308, Note_on_c, 0, 77, 57
1, 13312, Note_on_c, 0, 72, 41
1, 13316, Note_on_c, 0, 60, 48
1, 13324, Note_on_c, 0, 58, 42
1, 13328, Note_on_c, 0, 84, 0
1, 13332, Note_on_c, 0, 77, 0
1, 13344, Note_on_c, 0, 60, 0
1, 13344, Note_on_c, 0, 65, 0
1, 13344, Note_on_c, 0, 72, 0
1, 13352, Note_on_c, 0, 61, 0
1, 13364, Note_on_c, 0, 58, 0
1, 13382, Note_on_c, 9, 51, 77
1, 13386, Note_on_c, 9, 44, 87
1, 13396, Note_on_c, 9, 51, 0
1, 13508, Note_on_c, 9, 44, 0
1, 13656, Note_on_c, 1, 34, 48
1, 13716, Note_on_c, 1, 39, 0
1, 13766, Note_on_c, 9, 51, 70
1, 13772, Note_on_c, 0, 53, 39
1, 13772, Note_on_c, 0, 76, 54
1, 13780, Note_on_c, 9, 51, 0
1, 13784, Note_on_c, 0, 69, 45
1, 13788, Note_on_c, 0, 72, 41
1, 13788, Note_on_c, 0, 60, 45
1, 13792, Note_on_c, 0, 64, 34
1, 13796, Note_on_c, 1, 38, 55
1, 13804, Note_on_c, 1, 34, 0
1, 13808, Note_on_c, 0, 65, 12
1, 13828, Note_on_c, 0, 57, 22
1, 13940, Note_on_c, 0, 64, 0
1, 13948, Note_on_c, 0, 76, 0
1, 13956, Note_on_c, 0, 65, 0
1, 13964, Note_on_c, 0, 60, 0
1, 13968, Note_on_c, 0, 69, 0
1, 13976, Note_on_c, 0, 57, 0
1, 13976, Note_on_c, 0, 53, 0
1, 13980, Note_on_c, 0, 72, 0
1, 14036, Note_on_c, 0, 64, 48
1, 14040, Note_on_c, 0, 65, 51
1, 14044, Note_on_c, 0, 69, 57
1, 14044, Note_on_c, 0, 76, 59
1, 14048, Note_on_c, 0, 60, 41
1, 14064, Note_on_c, 0, 69, 0
1, 14064, Note_on_c, 0, 65, 0
1, 14064, Note_on_c, 0, 64, 0
1, 14068, Note_on_c, 0, 57, 32
1, 14072, Note_on_c, 0, 60, 0
1, 14084, Note_on_c, 0, 76, 0
1, 14104, Note_on_c, 0, 57, 0
1, 14112, Note_on_c, 1, 38, 0
1, 14150, Note_on_c, 9, 51, 80
1, 14154, Note_on_c, 9, 44, 105
1, 14164, Note_on_c, 9, 51, 0
1, 14164, Note_on_c, 1, 45, 85
1, 14260, Note_on_c, 9, 44, 0
1, 14534, Note_on_c, 9, 51, 71
1, 14548, Note_on_c, 9, 51, 0
1, 14548, Note_on_c, 0, 82, 90
1, 14552, Note_on_c, 0, 70, 111
1, 14552, Note_on_c, 0, 63, 87
1, 14552, Note_on_c, 0, 75, 88
1, 14560, Note_on_c, 0, 56, 65
1, 14560, Note_on_c, 0, 53, 75
1, 14564, Note_on_c, 0, 80, 66
1, 14564, Note_on_c, 0, 59, 71
1, 14580, Note_on_c, 0, 75, 0
1, 14584, Note_on_c, 0, 82, 0
1, 14600, Note_on_c, 0, 81, 57
1, 14600, Note_on_c, 0, 78, 30
1, 14608, Note_on_c, 0, 74, 39
1, 14608, Control_c, 0, 64, 127
1, 14640, Note_on_c, 0, 74, 0
1, 14676, Note_on_c, 0, 81, 0
1, 14688, Note_on_c, 1, 38, 68
1, 14740, Note_on_c, 0, 53, 0
1, 14748, Note_on_c, 1, 38, 0
1, 14768, Note_on_c, 0, 80, 0
1, 14768, Note_on_c, 0, 63, 0
1, 14772, Note_on_c, 0, 70, 0
1, 14780, Note_on_c, 0, 59, 0
1, 14784, Note_on_c, 1, 45, 0
1, 14788, Note_on_c, 0, 78, 0
1, 14792, Control_c, 0, 64, 0
1, 14796, Note_on_c, 0, 56, 0
1, 14806, Note_on_c, 9, 36, 52
1, 14824, Note_on_c, 0, 63, 75
1, 14824, Note_on_c, 0, 82, 76
1, 14824, Note_on_c, 1, 44, 72
1, 14832, Note_on_c, 0, 70, 60
1, 14836, Note_on_c, 0, 53, 58
1, 14840, Note_on_c, 0, 75, 65
1, 14848, Note_on_c, 9, 36, 0
1, 14848, Note_on_c, 0, 59, 63
1, 14852, Note_on_c, 0, 82, 0
1, 14852, Note_on_c, 0, 56, 39
1, 14864, Note_on_c, 0, 75, 0
1, 14864, Note_on_c, 0, 53, 0
1, 14872, Note_on_c, 0, 59, 0
1, 14876, Note_on_c, 0, 63, 0
1, 14880, Note_on_c, 0, 70, 0
1, 14900, Control_c, 0, 64, 127
1, 14916, Note_on_c, 0, 56, 0
1, 14918, Note_on_c, 9, 51, 64
1, 14922, Note_on_c, 9, 44, 103
1, 14928, Note_on_c, 1, 44, 0
1, 14932, Note_on_c, 9, 51, 0
1, 14934, Note_on_c, 9, 36, 28
1, 14940, Note_on_c, 1, 43, 76
1, 15050, Note_on_c, 9, 44, 0
1, 15082, Note_on_c, 9, 36, 0
1, 15172, Note_on_c, 1, 43, 0
1, 15174, Note_on_c, 9, 36, 42
1, 15180, Note_on_c, 1, 35, 54
1, 15188, Note_on_c, 0, 56, 66
1, 15192, Note_on_c, 0, 63, 57
1, 15196, Note_on_c, 0, 51, 82
1, 15204, Note_on_c, 0, 55, 63
1, 15210, Note_on_c, 9, 36, 0
1, 15212, Control_c, 0, 64, 0
1, 15248, Note_on_c, 0, 61, 31
1, 15284, Note_on_c, 1, 35, 0
1, 15292, Note_on_c, 1, 36, 66
1, 15302, Note_on_c, 9, 51, 70
1, 15312, Note_on_c, 0, 63, 0
1, 15316, Note_on_c, 9, 51, 0
1, 15316, Note_on_c, 0, 56, 0
1, 15324, Note_on_c, 0, 61, 0
1, 15368, Note_on_c, 0, 52, 43
1, 15376, Note_on_c, 0, 51, 0
1, 15380, Note_on_c, 0, 64, 55
1, 15380, Note_on_c, 0, 60, 32
1, 15396, Note_on_c, 0, 57, 44
1, 15576, Note_on_c, 0, 64, 0
1, 15588, Note_on_c, 0, 60, 0
1, 15588, Note_on_c, 0, 57, 0
1, 15604, Note_on_c, 0, 55, 0
1, 15664, Note_on_c, 0, 52, 0
1, 15686, Note_on_c, 9, 51, 91
1, 15690, Note_on_c, 9, 44, 80
1, 15700, Note_on_c, 9, 51, 0
1, 15716, Note_on_c, 0, 50, 50
1, 15732, Note_on_c, 0, 53, 52
1, 15740, Note_on_c, 0, 62, 46
1, 15748, Note_on_c, 0, 56, 51
1, 15834, Note_on_c, 9, 44, 0
1, 15844, Note_on_c, 0, 53, 0
1, 15896, Note_on_c, 0, 56, 0
1, 15908, Note_on_c, 0, 62, 0
1, 15960, Note_on_c, 0, 50, 0
1, 15972, Note_on_c, 0, 52, 65
1, 15976, Note_on_c, 0, 56, 55
1, 15976, Note_on_c, 0, 64, 56
1, 15984, Note_on_c, 0, 55, 60
1, 15984, Note_on_c, 0, 59, 55
1, 16008, Note_on_c, 0, 64, 0
1, 16024, Note_on_c, 0, 59, 0
1, 16044, Note_on_c, 0, 55, 0
1, 16048, Note_on_c, 0, 52, 0
1, 16056, Note_on_c, 0, 56, 0
1, 16070, Note_on_c, 9, 51, 54
1, 16084, Note_on_c, 9, 51, 0
1, 16084, Note_on_c, 1, 48, 79
1, 16116, Note_on_c, 0, 50, 50
1, 16156, Note_on_c, 1, 36, 0
1, 16172, Note_on_c, 0, 53, 31
1, 16268, Note_on_c, 0, 53, 0
1, 16348, Note_on_c, 0, 50, 0
1, 16372, Note_on_c, 0, 48, 63
1, 16376, Note_on_c, 0, 55, 63
1, 16376, Note_on_c, 0, 52, 52
1, 16376, Note_on_c, 0, 60, 52
1, 16404, Note_on_c, 0, 52, 0
1, 16432, Note_on_c, 0, 48, 0
1, 16436, Note_on_c, 0, 60, 0
1, 16440, Note_on_c, 0, 55, 0
1, 16454, Note_on_c, 9, 51, 89
1, 16458, Note_on_c, 9, 44, 92
1, 16468, Note_on_c, 9, 51, 0
1, 16588, Note_on_c, 9, 44, 0
1, 16728, Note_on_c, 1, 38, 54
1, 16800, Note_on_c, 1, 48, 0
1, 16816, Note_on_c, 1, 38, 0
1, 16832, Note_on_c, 1, 50, 70
1, 16838, Note_on_c, 9, 51, 84
1, 16852, Note_on_c, 9, 51, 0
1, 17000, Note_on_c, 0, 62, 64
1, 17024, Note_on_c, 0, 53, 40
1, 17024, Note_on_c, 0, 48, 56
1, 17024, Note_on_c, 0, 57, 44
1, 17052, Note_on_c, 0, 53, 0
1, 17064, Note_on_c, 0, 62, 0
1, 17076, Note_on_c, 0, 57, 0
1, 17104, Note_on_c, 0, 48, 0
1, 17128, Note_on_c, 0, 49, 52
1, 17152, Note_on_c, 0, 63, 66
1, 17164, Note_on_c, 0, 53, 50
1, 17164, Note_on_c, 0, 57, 42
1, 17188, Note_on_c, 0, 53, 0
1, 17204, Note_on_c, 0, 57, 0
1, 17222, Note_on_c, 9, 51, 94
1, 17226, Note_on_c, 9, 44, 84
1, 17228, Note_on_c, 0, 63, 0
1, 17236, Note_on_c, 9, 51, 0
1, 17260, Note_on_c, 0, 49, 0
1, 17288, Note_on_c, 0, 50, 52
1, 17292, Note_on_c, 0, 64, 57
1, 17308, Note_on_c, 0, 57, 37
1, 17340, Note_on_c, 0, 57, 0
1, 17360, Note_on_c, 0, 64, 0
1, 17370, Note_on_c, 9, 44, 0
1, 17370, Note_on_c, 9, 37, 64
1, 17392, Note_on_c, 0, 50, 0
1, 17396, Note_on_c, 9, 37, 0
1, 17432, Note_on_c, 0, 52, 54
1, 17480, Note_on_c, 1, 42, 46
1, 17484, Note_on_c, 9, 37, 84
1, 17512, Note_on_c, 0, 52, 0
1, 17524, Note_on_c, 9, 37, 0
1, 17544, Note_on_c, 0, 67, 78
1, 17556, Note_on_c, 0, 62, 67
1, 17560, Note_on_c, 0, 53, 73
1, 17560, Note_on_c, 0, 59, 61
1, 17572, Note_on_c, 1, 42, 0
1, 17584, Note_on_c, 0, 59, 0
1, 17584, Note_on_c, 1, 43, 54
1, 17600, Note_on_c, 1, 50, 0
1, 17606, Note_on_c, 9, 51, 82
1, 17620, Note_on_c, 0, 62, 0
1, 17620, Note_on_c, 9, 51, 0
1, 17624, Note_on_c, 0, 67, 0
1, 17632, Note_on_c, 0, 53, 0
1, 17712, Note_on_c, 0, 69, 68
1, 17716, Note_on_c, 0, 60, 66
1, 17716, Note_on_c, 0, 64, 58
1, 17716, Note_on_c, 0, 55, 65
1, 17728, Note_on_c, 0, 65, 49
1, 17816, Control_c, 0, 64, 127
1, 17840, Control_c, 0, 64, 0
1, 17864, Note_on_c, 0, 60, 0
1, 17864, Note_on_c, 1, 43, 0
1, 17868, Note_on_c, 1, 39, 44
1, 17880, Note_on_c, 0, 65, 0
1, 17880, Control_c, 0, 64, 127
1, 17884, Note_on_c, 0, 64, 0
1, 17892, Note_on_c, 0, 69, 0
1, 17900, Note_on_c, 0, 55, 0
1, 17924, Control_c, 0, 64, 0
1, 17956, Note_on_c, 1, 39, 0
1, 17980, Note_on_c, 1, 41, 43
1, 17990, Note_on_c, 9, 51, 85
1, 17994, Note_on_c, 9, 44, 99
1, 18004, Note_on_c, 9, 51, 0
1, 18020, Note_on_c, 0, 71, 66
1, 18024, Note_on_c, 0, 56, 66
1, 18024, Control_c, 0, 64, 127
1, 18028, Note_on_c, 0, 68, 57
1, 18032, Note_on_c, 0, 66, 47
1, 18032, Note_on_c, 0, 62, 57
1, 18032, Note_on_c, 0, 65, 60
1, 18128, Note_on_c, 0, 66, 0
1, 18132, Note_on_c, 0, 65, 0
1, 18148, Note_on_c, 0, 62, 0
1, 18148, Note_on_c, 9, 44, 0
1, 18180, Note_on_c, 0, 71, 0
1, 18224, Note_on_c, 0, 68, 0
1, 18246, Note_on_c, 9, 51, 82
1, 18252, Note_on_c, 1, 41, 0
1, 18252, Control_c, 0, 64, 0
1, 18264, Note_on_c, 0, 56, 0
1, 18276, Note_on_c, 0, 72, 85
1, 18276, Note_on_c, 1, 39, 45
1, 18280, Note_on_c, 0, 67, 81
1, 18280, Note_on_c, 0, 64, 80
1, 18284, Note_on_c, 0, 57, 77
1, 18356, Note_on_c, 1, 39, 0
1, 18372, Note_on_c, 1, 40, 41
1, 18374, Note_on_c, 9, 51, 82
1, 18388, Note_on_c, 9, 51, 0
1, 18392, Control_c, 0, 64, 127
1, 18472, Note_on_c, 0, 64, 0
1, 18508, Note_on_c, 0, 67, 0
1, 18516, Note_on_c, 0, 57, 0
1, 18528, Note_on_c, 0, 72, 0
1, 18620, Note_on_c, 0, 60, 63
1, 18620, Note_on_c, 0, 74, 81
1, 18628, Note_on_c, 0, 69, 74
1, 18628, Note_on_c, 0, 65, 76
1, 18668, Control_c, 0, 64, 0
1, 18700, Note_on_c, 0, 74, 0
1, 18716, Note_on_c, 0, 69, 0
1, 18716, Note_on_c, 0, 65, 0
1, 18740, Note_on_c, 1, 40, 0
1, 18740, Note_on_c, 1, 35, 58
1, 18758, Note_on_c, 9, 51, 96
1, 18762, Note_on_c, 9, 44, 98
1, 18772, Note_on_c, 9, 51, 0
1, 18772, Note_on_c, 9, 51, 0
1, 18772, Control_c, 0, 64, 127
1, 18784, Note_on_c, 0, 60, 0
1, 18788, Note_on_c, 0, 59, 60
1, 18792, Note_on_c, 0, 74, 50
1, 18792, Note_on_c, 0, 72, 50
1, 18824, Note_on_c, 0, 59, 0
1, 18868, Note_on_c, 0, 74, 0
1, 18890, Note_on_c, 9, 44, 0
1, 18900, Note_on_c, 0, 72, 0
1, 18996, Note_on_c, 9, 37, 59
1, 19004, Control_c, 0, 64, 0
1, 19014, Note_on_c, 9, 37, 0
1, 19020, Note_on_c, 0, 67, 57
1, 19024, Note_on_c, 0, 64, 48
1, 19024, Note_on_c, 0, 56, 48
1, 19040, Note_on_c, 0, 62, 59
1, 19116, Control_c, 0, 64, 127
1, 19142, Note_on_c, 9, 51, 91
1, 19144, Note_on_c, 1, 35, 0
1, 19152, Note_on_c, 0, 64, 0
1, 19156, Note_on_c, 9, 51, 0
1, 19160, Note_on_c, 1, 34, 66
1, 19192, Note_on_c, 0, 67, 0
1, 19240, Note_on_c, 0, 56, 0
1, 19248, Note_on_c, 0, 62, 0
1, 19428, Note_on_c, 0, 62, 49
1, 19428, Note_on_c, 0, 56, 42
1, 19452, Control_c, 0, 64, 0
1, 19524, Note_on_c, 0, 62, 0
1, 19526, Note_on_c, 9, 51, 84
1, 19528, Control_c, 0, 64, 127
1, 19530, Note_on_c, 9, 44, 94
1, 19540, Note_on_c, 9, 51, 0
1, 19548, Note_on_c, 0, 56, 0
1, 19604, Note_on_c, 9, 44, 0
1, 19676, Note_on_c, 0, 72, 58
1, 19720, Note_on_c, 0, 72, 0
1, 19800, Note_on_c, 0, 76, 64
1, 19824, Note_on_c, 0, 76, 0
1, 19904, Control_c, 0, 64, 0
1, 19908, Note_on_c, 1, 34, 0
1, 19910, Note_on_c, 9, 51, 70
1, 19912, Note_on_c, 1, 33, 65
1, 19924, Note_on_c, 9, 51, 0
1, 19936, Note_on_c, 0, 80, 68
1, 19940, Note_on_c, 0, 72, 83
1, 19940, Note_on_c, 0, 73, 75
1, 19944, Note_on_c, 0, 84, 86
1, 19948, Note_on_c, 0, 77, 57
1, 19972, Note_on_c, 0, 77, 0
1, 20080, Note_on_c, 0, 80, 0
1, 20080, Note_on_c, 0, 84, 0
1, 20120, Note_on_c, 0, 72, 0
1, 20140, Note_on_c, 0, 73, 0
1, 20294, Note_on_c, 9, 51, 84
1, 20298, Note_on_c, 9, 44, 105
1, 20308, Note_on_c, 9, 51, 0
1, 20320, Note_on_c, 0, 81, 68
1, 20320, Note_on_c, 0, 69, 59
1, 20324, Note_on_c, 0, 73, 53
1, 20340, Note_on_c, 0, 70, 47
1, 20388, Note_on_c, 9, 44, 0
1, 20392, Note_on_c, 0, 76, 22
1, 20472, Control_c, 0, 64, 88
1, 20476, Control_c, 0, 64, 127
1, 20484, Note_on_c, 0, 81, 0
1, 20504, Note_on_c, 0, 76, 0
1, 20516, Note_on_c, 0, 73, 0
1, 20544, Note_on_c, 0, 70, 0
1, 20572, Note_on_c, 0, 69, 0
1, 20600, Control_c, 0, 64, 0
1, 20678, Note_on_c, 9, 51, 61
1, 20692, Note_on_c, 9, 51, 0
1, 20700, Note_on_c, 0, 78, 57
1, 20720, Note_on_c, 0, 66, 46
1, 20724, Control_c, 0, 64, 127
1, 20724, Note_on_c, 0, 67, 42
1, 20724, Note_on_c, 0, 70, 54
1, 20740, Note_on_c, 0, 73, 42
1, 20848, Note_on_c, 0, 73, 0
1, 20880, Note_on_c, 0, 67, 0
1, 20884, Note_on_c, 0, 70, 0
1, 20896, Note_on_c, 0, 78, 0
1, 20912, Note_on_c, 0, 66, 0
1, 20934, Note_on_c, 9, 37, 49
1, 20936, Note_on_c, 1, 40, 38
1, 20976, Note_on_c, 0, 75, 51
1, 20976, Note_on_c, 0, 63, 48
1, 20980, Note_on_c, 0, 70, 56
1, 20992, Note_on_c, 0, 73, 51
1, 21008, Note_on_c, 1, 40, 0
1, 21014, Note_on_c, 9, 37, 0
1, 21020, Note_on_c, 0, 63, 0
1, 21028, Control_c, 0, 64, 0
1, 21060, Note_on_c, 1, 49, 56
1, 21062, Note_on_c, 9, 51, 75
1, 21064, Note_on_c, 0, 73, 0
1, 21066, Note_on_c, 0, 75, 0
1, 21066, Note_on_c, 9, 46, 63
1, 21076, Note_on_c, 9, 51, 0
1, 21112, Note_on_c, 0, 65, 48
1, 21120, Note_on_c, 0, 60, 57
1, 21160, Control_c, 0, 64, 127
1, 21164, Note_on_c, 0, 70, 0
1, 21200, Note_on_c, 0, 65, 0
1, 21204, Note_on_c, 9, 46, 0
1, 21292, Control_c, 0, 64, 24
1, 21296, Control_c, 0, 64, 0
1, 21348, Note_on_c, 0, 60, 0
1, 21352, Note_on_c, 0, 66, 78
1, 21356, Note_on_c, 0, 76, 75
1, 21364, Note_on_c, 0, 64, 69
1, 21376, Note_on_c, 0, 72, 57
1, 21392, Note_on_c, 0, 69, 45
1, 21400, Note_on_c, 1, 33, 0
1, 21416, Note_on_c, 1, 49, 0
1, 21446, Note_on_c, 9, 51, 112
1, 21456, Note_on_c, 1, 50, 50
1, 21460, Note_on_c, 9, 51, 0
1, 21480, Control_c, 0, 64, 127
1, 21594, Note_on_c, 9, 37, 73
1, 21644, Note_on_c, 9, 37, 0
1, 21676, Note_on_c, 0, 76, 0
1, 21688, Note_on_c, 0, 66, 0
1, 21720, Note_on_c, 0, 72, 0
1, 21732, Note_on_c, 0, 69, 0
1, 21740, Note_on_c, 0, 64, 0
1, 21740, Note_on_c, 0, 62, 57
1, 21740, Note_on_c, 0, 74, 65
1, 21752, Note_on_c, 0, 66, 42
1, 21776, Control_c, 0, 64, 0
1, 21788, Note_on_c, 0, 66, 0
1, 21820, Note_on_c, 1, 50, 0
1, 21830, Note_on_c, 9, 51, 61
1, 21834, Note_on_c, 9, 37, 56
1, 21834, Note_on_c, 9, 44, 82
1, 21840, Note_on_c, 1, 45, 58
1, 21844, Note_on_c, 9, 51, 0
1, 21852, Note_on_c, 0, 74, 0
1, 21864, Note_on_c, 0, 62, 0
1, 21884, Note_on_c, 0, 76, 69
1, 21888, Note_on_c, 0, 66, 57
1, 21888, Note_on_c, 0, 64, 63
1, 21900, Note_on_c, 9, 37, 0
1, 21900, Note_on_c, 0, 69, 54
1, 21924, Note_on_c, 0, 72, 36
1, 21940, Control_c, 0, 64, 127
1, 21946, Note_on_c, 9, 44, 0
1, 22036, Note_on_c, 0, 76, 0
1, 22052, Note_on_c, 0, 66, 0
1, 22060, Note_on_c, 0, 72, 0
1, 22068, Note_on_c, 9, 37, 64
1, 22100, Note_on_c, 0, 69, 0
1, 22104, Note_on_c, 0, 64, 0
1, 22128, Control_c, 0, 64, 0
1, 22134, Note_on_c, 9, 37, 0
1, 22144, Note_on_c, 0, 74, 58
1, 22144, Note_on_c, 0, 66, 52
1, 22144, Note_on_c, 0, 62, 60
1, 22144, Note_on_c, 0, 69, 33
1, 22188, Note_on_c, 0, 69, 0
1, 22196, Note_on_c, 0, 74, 0
1, 22214, Note_on_c, 9, 51, 64
1, 22224, Note_on_c, 0, 62, 0
1, 22228, Note_on_c, 9, 51, 0
1, 22248, Note_on_c, 0, 66, 0
1, 22352, Control_c, 0, 64, 127
1, 22392, Note_on_c, 0, 72, 57
1, 22396, Note_on_c, 0, 66, 56
1, 22400, Note_on_c, 0, 60, 54
1, 22412, Note_on_c, 0, 63, 55
1, 22476, Note_on_c, 0, 63, 0
1, 22476, Note_on_c, 1, 45, 0
1, 22488, Note_on_c, 1, 38, 49
1, 22496, Note_on_c, 0, 72, 0
1, 22508, Note_on_c, 0, 66, 0
1, 22532, Note_on_c, 0, 60, 0
1, 22532, Note_on_c, 0, 57, 64
1, 22544, Note_on_c, 0, 66, 22
1, 22552, Note_on_c, 0, 69, 46
1, 22572, Control_c, 0, 64, 0
1, 22584, Note_on_c, 1, 38, 0
1, 22598, Note_on_c, 9, 51, 71
1, 22602, Note_on_c, 9, 44, 87
1, 22612, Note_on_c, 9, 51, 0
1, 22612, Note_on_c, 1, 44, 69
1, 22632, Note_on_c, 0, 69, 0
1, 22644, Note_on_c, 0, 57, 0
1, 22676, Note_on_c, 0, 66, 0
1, 22704, Note_on_c, 0, 53, 49
1, 22708, Control_c, 0, 64, 127
1, 22714, Note_on_c, 9, 44, 0
1, 22864, Note_on_c, 1, 42, 50
1, 22896, Note_on_c, 0, 53, 0
1, 22920, Note_on_c, 1, 44, 0
1, 22928, Note_on_c, 0, 70, 68
1, 22932, Control_c, 0, 64, 0
1, 22936, Note_on_c, 0, 59, 52
1, 22940, Note_on_c, 0, 63, 56
1, 22948, Note_on_c, 0, 67, 49
1, 22952, Note_on_c, 0, 58, 67
1, 22964, Note_on_c, 1, 42, 0
1, 22964, Note_on_c, 0, 60, 36
1, 22980, Note_on_c, 1, 43, 57
1, 22982, Note_on_c, 9, 51, 78
1, 22988, Note_on_c, 9, 37, 43
1, 22996, Note_on_c, 0, 60, 0
1, 22996, Note_on_c, 9, 51, 0
1, 23068, Note_on_c, 9, 37, 0
1, 23104, Note_on_c, 0, 67, 0
1, 23116, Note_on_c, 0, 59, 0
1, 23136, Note_on_c, 0, 70, 0
1, 23148, Note_on_c, 0, 58, 0
1, 23164, Note_on_c, 0, 68, 58
1, 23172, Note_on_c, 0, 56, 54
1, 23256, Note_on_c, 0, 56, 0
1, 23260, Note_on_c, 0, 63, 0
1, 23260, Note_on_c, 1, 42, 46
1, 23272, Note_on_c, 0, 68, 0
1, 23312, Note_on_c, 1, 43, 0
1, 23328, Note_on_c, 0, 53, 41
1, 23352, Note_on_c, 1, 57, 64
1, 23366, Note_on_c, 9, 51, 64
1, 23370, Note_on_c, 9, 44, 108
1, 23380, Note_on_c, 9, 51, 0
1, 23384, Note_on_c, 1, 42, 0
1, 23400, Note_on_c, 0, 53, 0
1, 23428, Note_on_c, 0, 59, 57
1, 23432, Note_on_c, 0, 63, 52
1, 23436, Note_on_c, 0, 67, 50
1, 23460, Note_on_c, 9, 44, 0
1, 23460, Note_on_c, 0, 55, 53
1, 23608, Note_on_c, 0, 59, 0
1, 23612, Note_on_c, 0, 55, 0
1, 23616, Note_on_c, 0, 67, 0
1, 23620, Note_on_c, 0, 63, 0
1, 23626, Note_on_c, 9, 37, 66
1, 23652, Note_on_c, 0, 65, 58
1, 23652, Note_on_c, 0, 59, 46
1, 23676, Note_on_c, 9, 37, 0
1, 23688, Note_on_c, 0, 53, 48
1, 23712, Note_on_c, 1, 57, 0
1, 23720, Note_on_c, 0, 59, 0
1, 23728, Note_on_c, 0, 65, 0
1, 23736, Note_on_c, 1, 55, 55
1, 23750, Note_on_c, 9, 51, 56
1, 23764, Note_on_c, 9, 51, 0
1, 23772, Control_c, 0, 64, 127
1, 23844, Note_on_c, 0, 53, 0
1, 23876, Note_on_c, 0, 56, 56
1, 23880, Note_on_c, 0, 62, 54
1, 23892, Note_on_c, 0, 50, 44
1, 23896, Note_on_c, 0, 59, 54
1, 23988, Note_on_c, 1, 46, 49
1, 24004, Control_c, 0, 64, 0
1, 24020, Note_on_c, 0, 59, 0
1, 24024, Note_on_c, 0, 62, 0
1, 24028, Note_on_c, 0, 56, 0
1, 24044, Note_on_c, 0, 50, 0
1, 24048, Note_on_c, 1, 55, 0
1, 24048, Note_on_c, 1, 46, 0
1, 24108, Note_on_c, 1, 47, 52
1, 24132, Note_on_c, 0, 63, 54
1, 24134, Note_on_c, 9, 51, 73
1, 24138, Note_on_c, 9, 44, 103
1, 24144, Control_c, 0, 64, 127
1, 24144, Note_on_c, 0, 54, 48
1, 24148, Note_on_c, 9, 51, 0
1, 24156, Note_on_c, 0, 58, 49
1, 24156, Note_on_c, 0, 47, 35
1, 24292, Control_c, 0, 64, 0
1, 24314, Note_on_c, 9, 44, 0
1, 24332, Note_on_c, 0, 54, 0
1, 24348, Note_on_c, 0, 58, 0
1, 24362, Note_on_c, 9, 37, 56
1, 24372, Note_on_c, 0, 47, 0
1, 24384, Note_on_c, 0, 64, 60
1, 24388, Note_on_c, 0, 63, 0
1, 24388, Note_on_c, 0, 55, 53
1, 24388, Note_on_c, 0, 59, 57
1, 24388, Note_on_c, 1, 46, 33
1, 24392, Note_on_c, 0, 48, 55
1, 24452, Note_on_c, 9, 37, 0
1, 24460, Control_c, 0, 64, 127
1, 24464, Note_on_c, 1, 47, 0
1, 24472, Note_on_c, 1, 46, 0
1, 24504, Note_on_c, 1, 48, 52
1, 24518, Note_on_c, 9, 51, 80
1, 24532, Note_on_c, 9, 51, 0
1, 24616, Note_on_c, 0, 64, 0
1, 24616, Note_on_c, 0, 55, 0
1, 24672, Note_on_c, 0, 59, 0
1, 24728, Note_on_c, 0, 48, 0
1, 24764, Note_on_c, 0, 54, 52
1, 24768, Note_on_c, 0, 47, 39
1, 24788, Control_c, 0, 64, 0
1, 24796, Note_on_c, 0, 58, 39
1, 24832, Note_on_c, 0, 54, 0
1, 24840, Note_on_c, 0, 58, 0
1, 24868, Note_on_c, 0, 47, 0
1, 24902, Note_on_c, 9, 51, 57
1, 24904, Note_on_c, 0, 48, 45
1, 24906, Note_on_c, 9, 44, 103
1, 24916, Note_on_c, 9, 51, 0
1, 24916, Note_on_c, 0, 64, 46
1, 24920, Control_c, 0, 64, 127
1, 24924, Note_on_c, 0, 55, 37
1, 24944, Note_on_c, 0, 64, 0
1, 24956, Note_on_c, 0, 55, 0
1, 24980, Note_on_c, 0, 48, 0
1, 25082, Note_on_c, 9, 44, 0
1, 25156, Note_on_c, 0, 52, 68
1, 25156, Note_on_c, 0, 64, 77
1, 25164, Note_on_c, 0, 56, 70
1, 25174, Note_on_c, 9, 37, 56
1, 25212, Note_on_c, 9, 37, 0
1, 25220, Note_on_c, 0, 56, 0
1, 25224, Control_c, 0, 64, 0
1, 25272, Note_on_c, 0, 64, 0
1, 25284, Note_on_c, 0, 52, 0
1, 25286, Note_on_c, 9, 51, 68
1, 25292, Note_on_c, 1, 41, 72
1, 25300, Note_on_c, 9, 51, 0
1, 25308, Note_on_c, 1, 48, 0
1, 25320, Note_on_c, 0, 67, 88
1, 25320, Note_on_c, 0, 56, 83
1, 25324, Note_on_c, 0, 55, 92
1, 25324, Note_on_c, 0, 60, 82
1, 25324, Note_on_c, 0, 63, 66
1, 25444, Note_on_c, 0, 67, 0
1, 25500, Note_on_c, 0, 56, 0
1, 25508, Note_on_c, 0, 60, 0
1, 25532, Note_on_c, 0, 63, 0
1, 25532, Note_on_c, 9, 33, 87
1, 25552, Note_on_c, 0, 55, 0
1, 25556, Note_on_c, 0, 66, 72
1, 25564, Note_on_c, 0, 54, 73
1, 25568, Note_on_c, 0, 56, 57
1, 25572, Note_on_c, 0, 60, 68
1, 25574, Note_on_c, 9, 33, 0
1, 25588, Note_on_c, 0, 63, 46
1, 25652, Note_on_c, 0, 66, 0
1, 25668, Note_on_c, 0, 56, 0
1, 25670, Note_on_c, 9, 51, 56
1, 25674, Note_on_c, 9, 44, 92
1, 25684, Note_on_c, 9, 51, 0
1, 25688, Note_on_c, 0, 54, 0
1, 25692, Note_on_c, 0, 63, 0
1, 25716, Note_on_c, 0, 56, 55
1, 25716, Note_on_c, 0, 65, 51
1, 25716, Note_on_c, 0, 55, 43
1, 25720, Note_on_c, 0, 53, 41
1, 25784, Note_on_c, 0, 65, 0
1, 25820, Note_on_c, 0, 60, 0
1, 25836, Note_on_c, 9, 44, 0
1, 25840, Note_on_c, 0, 55, 0
1, 25852, Note_on_c, 0, 53, 0
1, 25860, Note_on_c, 0, 56, 0
1, 25930, Note_on_c, 9, 37, 66
1, 25940, Note_on_c, 0, 54, 57
1, 25944, Note_on_c, 0, 51, 61
1, 25944, Note_on_c, 0, 63, 50
1, 25944, Note_on_c, 0, 58, 61
1, 25962, Note_on_c, 9, 37, 0
1, 26008, Note_on_c, 1, 41, 0
1, 26016, Note_on_c, 0, 54, 0
1, 26036, Note_on_c, 0, 63, 0
1, 26054, Note_on_c, 9, 51, 64
1, 26060, Note_on_c, 1, 36, 61
1, 26068, Note_on_c, 9, 51, 0
1, 26068, Note_on_c, 0, 51, 0
1, 26092, Note_on_c, 0, 52, 49
1, 26104, Control_c, 0, 64, 127
1, 26108, Note_on_c, 0, 64, 43
1, 26108, Note_on_c, 0, 55, 38
1, 26112, Note_on_c, 0, 58, 0
1, 26156, Note_on_c, 0, 55, 0
1, 26204, Note_on_c, 0, 64, 0
1, 26248, Note_on_c, 0, 52, 0
1, 26340, Note_on_c, 9, 35, 49
1, 26388, Note_on_c, 9, 35, 0
1, 26438, Note_on_c, 9, 51, 63
1, 26442, Note_on_c, 9, 44, 108
1, 26452, Note_on_c, 9, 51, 0
1, 26504, Note_on_c, 0, 69, 75
1, 26596, Note_on_c, 0, 69, 0
1, 26628, Note_on_c, 9, 44, 0
1, 26628, Note_on_c, 0, 71, 77
1, 26708, Note_on_c, 0, 71, 0
1, 26714, Note_on_c, 9, 37, 54
1, 26744, Control_c, 0, 64, 0
1, 26748, Note_on_c, 9, 37, 0
1, 26760, Note_on_c, 0, 72, 84
1, 26764, Note_on_c, 0, 68, 75
1, 26764, Note_on_c, 0, 64, 75
1, 26776, Note_on_c, 0, 58, 68
1, 26822, Note_on_c, 9, 51, 66
1, 26832, Note_on_c, 1, 42, 63
1, 26836, Note_on_c, 9, 51, 0
1, 26852, Note_on_c, 1, 36, 0
1, 26916, Control_c, 0, 64, 127
1, 27056, Note_on_c, 0, 72, 0
1, 27132, Note_on_c, 0, 68, 0
1, 27206, Note_on_c, 9, 51, 75
1, 27210, Note_on_c, 9, 44, 75
1, 27220, Note_on_c, 9, 51, 0
1, 27244, Note_on_c, 9, 46, 22
1, 27268, Note_on_c, 9, 46, 0
1, 27284, Note_on_c, 0, 64, 0
1, 27328, Note_on_c, 1, 42, 0
1, 27344, Note_on_c, 1, 39, 56
1, 27354, Note_on_c, 9, 44, 0
1, 27400, Note_on_c, 0, 58, 0
1, 27400, Note_on_c, 1, 39, 0
1, 27462, Note_on_c, 9, 35, 31
1, 27462, Note_on_c, 9, 51, 66
1, 27468, Note_on_c, 1, 40, 57
1, 27472, Note_on_c, 0, 75, 61
1, 27488, Note_on_c, 9, 35, 0
1, 27564, Note_on_c, 1, 40, 0
1, 27580, Control_c, 0, 64, 0
1, 27590, Note_on_c, 0, 75, 0
1, 27590, Note_on_c, 9, 51, 85
1, 27600, Note_on_c, 1, 41, 56
1, 27604, Note_on_c, 9, 51, 0
1, 27608, Note_on_c, 0, 53, 39
1, 27616, Note_on_c, 0, 64, 40
1, 27628, Note_on_c, 0, 60, 36
1, 27632, Note_on_c, 0, 69, 55
1, 27660, Note_on_c, 0, 57, 22
1, 27732, Note_on_c, 0, 69, 0
1, 27748, Note_on_c, 0, 71, 49
1, 27796, Note_on_c, 0, 71, 0
1, 27816, Note_on_c, 0, 69, 38
1, 27896, Note_on_c, 0, 68, 52
1, 27908, Note_on_c, 0, 69, 0
1, 27972, Note_on_c, 0, 68, 0
1, 27974, Note_on_c, 9, 51, 66
1, 27978, Note_on_c, 9, 44, 89
1, 27988, Note_on_c, 9, 51, 0
1, 27988, Note_on_c, 9, 51, 0
1, 28008, Note_on_c, 0, 64, 0
1, 28028, Note_on_c, 0, 69, 57
1, 28040, Note_on_c, 0, 60, 0
1, 28164, Note_on_c, 9, 44, 0
1, 28188, Note_on_c, 0, 57, 0
1, 28224, Note_on_c, 1, 36, 54
1, 28232, Note_on_c, 1, 41, 0
1, 28244, Note_on_c, 0, 69, 0
1, 28280, Note_on_c, 0, 53, 0
1, 28280, Note_on_c, 0, 68, 38
1, 28316, Note_on_c, 1, 36, 0
1, 28340, Note_on_c, 0, 68, 0
1, 28356, Note_on_c, 1, 33, 55
1, 28358, Note_on_c, 9, 51, 61
1, 28372, Note_on_c, 9, 51, 0
1, 28376, Control_c, 0, 64, 127
1, 28392, Note_on_c, 0, 69, 40
1, 28404, Control_c, 0, 64, 0
1, 28528, Note_on_c, 0, 69, 0
1, 28628, Note_on_c, 9, 37, 63
1, 28650, Note_on_c, 9, 37, 0
1, 28652, Note_on_c, 0, 64, 52
1, 28664, Note_on_c, 0, 60, 39
1, 28680, Note_on_c, 0, 64, 0
1, 28696, Note_on_c, 0, 60, 0
1, 28696, Note_on_c, 0, 53, 18
1, 28728, Note_on_c, 0, 53, 0
1, 28742, Note_on_c, 9, 51, 70
1, 28744, Note_on_c, 1, 33, 0
1, 28746, Note_on_c, 9, 44, 84
1, 28756, Note_on_c, 9, 51, 0
1, 28756, Note_on_c, 1, 41, 83
1, 28764, Note_on_c, 9, 37, 52
1, 28788, Note_on_c, 9, 37, 0
1, 28940, Note_on_c, 9, 44, 0
1, 29002, Note_on_c, 9, 37, 77
1, 29044, Note_on_c, 9, 37, 0
1, 29126, Note_on_c, 9, 51, 73
1, 29140, Note_on_c, 9, 51, 0
1, 29300, Note_on_c, 1, 41, 0
1, 29364, Note_on_c, 1, 40, 66
1, 29388, Note_on_c, 9, 35, 29
1, 29404, Note_on_c, 0, 56, 57
1, 29404, Note_on_c, 0, 67, 62
1, 29414, Note_on_c, 9, 35, 0
1, 29420, Note_on_c, 0, 62, 48
1, 29476, Note_on_c, 1, 40, 0
1, 29510, Note_on_c, 9, 51, 77
1, 29514, Note_on_c, 9, 44, 103
1, 29520, Note_on_c, 1, 35, 48
1, 29524, Note_on_c, 9, 51, 0
1, 29540, Note_on_c, 9, 35, 47
1, 29672, Note_on_c, 0, 62, 0
1, 29716, Note_on_c, 9, 44, 0
1, 29732, Note_on_c, 9, 35, 0
1, 29772, Note_on_c, 0, 62, 46
1, 29780, Note_on_c, 9, 35, 54
1, 29828, Note_on_c, 9, 35, 0
1, 29876, Note_on_c, 1, 35, 0
1, 29880, Note_on_c, 1, 32, 57
1, 29894, Note_on_c, 0, 83, 127
1, 29894, Note_on_c, 9, 51, 70
1, 29908, Note_on_c, 9, 51, 0
1, 29956, Note_on_c, 0, 62, 0
1, 29960, Note_on_c, 0, 67, 0
1, 30012, Note_on_c, 9, 37, 66
1, 30052, Note_on_c, 9, 37, 0
1, 30068, Note_on_c, 0, 83, 0
1, 30152, Note_on_c, 0, 76, 77
1, 30160, Note_on_c, 0, 67, 50
1, 30180, Note_on_c, 0, 62, 48
1, 30228, Note_on_c, 0, 67, 0
1, 30236, Note_on_c, 1, 32, 0
1, 30252, Note_on_c, 1, 28, 68
1, 30266, Note_on_c, 0, 62, 0
1, 30266, Note_on_c, 9, 37, 78
1, 30278, Note_on_c, 9, 51, 66
1, 30282, Note_on_c, 9, 44, 82
1, 30292, Note_on_c, 9, 51, 0
1, 30300, Note_on_c, 0, 76, 0
1, 30316, Note_on_c, 9, 37, 0
1, 30364, Note_on_c, 0, 75, 29
1, 30400, Note_on_c, 0, 56, 0
1, 30460, Note_on_c, 9, 44, 0
1, 30508, Note_on_c, 0, 75, 0
1, 30532, Note_on_c, 9, 37, 64
1, 30584, Note_on_c, 0, 76, 56
1, 30602, Note_on_c, 9, 37, 0
1, 30612, Note_on_c, 0, 76, 0
1, 30652, Note_on_c, 0, 64, 48
1, 30652, Note_on_c, 1, 33, 76
1, 30662, Note_on_c, 9, 51, 77
1, 30668, Note_on_c, 1, 28, 0
1, 30668, Note_on_c, 0, 60, 47
1, 30676, Note_on_c, 9, 51, 0
1, 30700, Note_on_c, 0, 57, 35
1, 30704, Note_on_c, 0, 59, 25
1, 30712, Note_on_c, 0, 84, 85
1, 30760, Note_on_c, 0, 59, 0
1, 30904, Note_on_c, 0, 60, 0
1, 30936, Note_on_c, 0, 84, 0
1, 30960, Note_on_c, 0, 60, 32
1, 30988, Note_on_c, 0, 64, 0
1, 31008, Note_on_c, 0, 57, 0
1, 31046, Note_on_c, 9, 51, 66
1, 31050, Note_on_c, 9, 44, 91
1, 31060, Note_on_c, 9, 51, 0
1, 31064, Note_on_c, 0, 60, 0
1, 31084, Note_on_c, 0, 84, 92
1, 31162, Note_on_c, 9, 44, 0
1, 31316, Note_on_c, 0, 84, 0
1, 31332, Note_on_c, 0, 83, 56
1, 31368, Note_on_c, 0, 64, 31
1, 31404, Note_on_c, 1, 33, 0
1, 31404, Note_on_c, 0, 59, 31
1, 31404, Note_on_c, 0, 60, 39
1, 31408, Note_on_c, 0, 57, 25
1, 31416, Note_on_c, 1, 35, 63
1, 31430, Note_on_c, 9, 51, 63
1, 31444, Note_on_c, 9, 51, 0
1, 31448, Note_on_c, 0, 83, 0
1, 31480, Note_on_c, 0, 84, 57
1, 31528, Note_on_c, 1, 35, 0
1, 31568, Control_c, 0, 64, 127
1, 31632, Control_c, 0, 64, 0
1, 31664, Note_on_c, 0, 84, 0
1, 31680, Note_on_c, 1, 36, 74
1, 31716, Note_on_c, 0, 88, 81
1, 31760, Note_on_c, 1, 36, 0
1, 31812, Note_on_c, 0, 88, 0
1, 31812, Note_on_c, 1, 37, 63
1, 31814, Note_on_c, 9, 51, 63
1, 31818, Note_on_c, 9, 44, 89
1, 31828, Note_on_c, 9, 51, 0
1, 31836, Note_on_c, 0, 60, 0
1, 31836, Note_on_c, 0, 59, 0
1, 31840, Note_on_c, 0, 64, 0
1, 31856, Note_on_c, 0, 57, 0
1, 31900, Note_on_c, 0, 84, 39
1, 31914, Note_on_c, 9, 44, 0
1, 32056, Note_on_c, 0, 84, 0
1, 32104, Note_on_c, 1, 34, 31
1, 32112, Note_on_c, 0, 81, 63
1, 32132, Note_on_c, 0, 64, 34
1, 32136, Note_on_c, 0, 60, 39
1, 32140, Note_on_c, 0, 54, 34
1, 32148, Note_on_c, 1, 37, 0
1, 32168, Note_on_c, 1, 34, 0
1, 32180, Note_on_c, 1, 38, 60
1, 32198, Note_on_c, 9, 51, 52
1, 32212, Note_on_c, 9, 51, 0
1, 32236, Note_on_c, 0, 81, 0
1, 32300, Note_on_c, 0, 76, 49
1, 32454, Note_on_c, 9, 35, 31
1, 32492, Note_on_c, 9, 35, 0
1, 32582, Note_on_c, 9, 51, 89
1, 32586, Note_on_c, 9, 35, 33
1, 32586, Note_on_c, 9, 44, 87
1, 32596, Note_on_c, 9, 51, 0
1, 32628, Note_on_c, 9, 35, 0
1, 32672, Note_on_c, 0, 64, 0
1, 32682, Note_on_c, 9, 44, 0
1, 32688, Note_on_c, 0, 60, 0
1, 32696, Note_on_c, 0, 54, 0
1, 32840, Note_on_c, 1, 37, 39
1, 32864, Note_on_c, 0, 64, 36
1, 32872, Note_on_c, 0, 60, 44
1, 32872, Note_on_c, 0, 54, 33
1, 32928, Note_on_c, 1, 37, 0
1, 32956, Note_on_c, 1, 50, 57
1, 32966, Note_on_c, 9, 51, 63
1, 32980, Note_on_c, 9, 51, 0
1, 33076, Note_on_c, 0, 64, 0
1, 33076, Note_on_c, 0, 60, 0
1, 33092, Note_on_c, 0, 54, 0
1, 33238, Note_on_c, 9, 35, 24
1, 33244, Note_on_c, 1, 37, 41
1, 33256, Note_on_c, 1, 50, 0
1, 33274, Note_on_c, 9, 35, 0
1, 33328, Note_on_c, 1, 52, 63
1, 33350, Note_on_c, 9, 51, 85
1, 33354, Note_on_c, 9, 44, 82
1, 33360, Note_on_c, 1, 37, 0
1, 33364, Note_on_c, 9, 51, 0
1, 33368, Note_on_c, 0, 54, 48
1, 33372, Note_on_c, 0, 64, 48
1, 33380, Note_on_c, 0, 60, 45
1, 33492, Note_on_c, 9, 44, 0
1, 33536, Note_on_c, 0, 64, 0
1, 33544, Note_on_c, 0, 60, 0
1, 33560, Note_on_c, 0, 54, 0
1, 33592, Note_on_c, 1, 37, 42
1, 33628, Note_on_c, 0, 76, 0
1, 33632, Note_on_c, 1, 38, 0
1, 33680, Note_on_c, 1, 52, 0
1, 33704, Note_on_c, 1, 37, 0
1, 33720, Note_on_c, 1, 53, 69
1, 33734, Note_on_c, 9, 51, 70
1, 33744, Note_on_c, 0, 60, 39
1, 33748, Note_on_c, 9, 51, 0
1, 33752, Note_on_c, 0, 64, 36
1, 33756, Note_on_c, 0, 53, 26
1, 33756, Note_on_c, 9, 35, 42
1, 33760, Note_on_c, 0, 57, 41
1, 33764, Note_on_c, 9, 46, 26
1, 33796, Note_on_c, 9, 46, 0
1, 33798, Note_on_c, 9, 35, 0
1, 33944, Note_on_c, 0, 64, 0
1, 33960, Note_on_c, 0, 60, 0
1, 33992, Note_on_c, 0, 57, 0
1, 34028, Note_on_c, 0, 53, 0
1, 34118, Note_on_c, 9, 51, 61
1, 34122, Note_on_c, 9, 44, 99
1, 34132, Note_on_c, 9, 51, 0
1, 34250, Note_on_c, 9, 44, 0
1, 34378, Note_on_c, 9, 35, 38
1, 34416, Note_on_c, 9, 35, 0
1, 34424, Note_on_c, 0, 61, 31
1, 34440, Note_on_c, 0, 62, 50
1, 34460, Note_on_c, 0, 61, 0
1, 34502, Note_on_c, 9, 51, 57
1, 34504, Note_on_c, 0, 77, 92
1, 34508, Note_on_c, 0, 69, 82
1, 34508, Note_on_c, 0, 72, 78
1, 34508, Note_on_c, 0, 64, 60
1, 34516, Note_on_c, 0, 62, 0
1, 34516, Note_on_c, 9, 51, 0
1, 34516, Note_on_c, 9, 35, 35
1, 34564, Note_on_c, 9, 35, 0
1, 34716, Note_on_c, 0, 77, 0
1, 34720, Note_on_c, 0, 72, 0
1, 34732, Note_on_c, 0, 69, 0
1, 34758, Note_on_c, 9, 51, 52
1, 34764, Note_on_c, 0, 64, 0
1, 34764, Note_on_c, 0, 76, 49
1, 34764, Note_on_c, 1, 45, 57
1, 34800, Note_on_c, 0, 62, 41
1, 34812, Note_on_c, 1, 45, 0
1, 34844, Note_on_c, 0, 76, 0
1, 34848, Note_on_c, 1, 53, 0
1, 34886, Note_on_c, 9, 51, 64
1, 34888, Note_on_c, 0, 77, 71
1, 34888, Note_on_c, 1, 50, 49
1, 34890, Note_on_c, 9, 44, 110
1, 34892, Note_on_c, 0, 72, 72
1, 34892, Note_on_c, 0, 64, 58
1, 34896, Note_on_c, 0, 69, 62
1, 34900, Note_on_c, 9, 51, 0
1, 34900, Note_on_c, 0, 62, 0
1, 35052, Note_on_c, 9, 44, 0
1, 35140, Note_on_c, 0, 69, 0
1, 35140, Note_on_c, 9, 35, 43
1, 35172, Note_on_c, 9, 35, 0
1, 35180, Note_on_c, 0, 72, 0
1, 35188, Note_on_c, 0, 64, 0
1, 35196, Note_on_c, 0, 77, 0
1, 35224, Note_on_c, 1, 50, 0
1, 35270, Note_on_c, 9, 51, 84
1, 35276, Note_on_c, 1, 52, 60
1, 35284, Note_on_c, 9, 51, 0
1, 35284, Note_on_c, 9, 51, 0
1, 35504, Note_on_c, 1, 44, 42
1, 35516, Note_on_c, 1, 52, 0
1, 35536, Note_on_c, 1, 44, 0
1, 35548, Note_on_c, 0, 78, 68
1, 35548, Note_on_c, 0, 62, 65
1, 35548, Note_on_c, 0, 58, 60
1, 35548, Note_on_c, 0, 52, 68
1, 35548, Note_on_c, 0, 81, 74
1, 35556, Note_on_c, 0, 69, 64
1, 35556, Note_on_c, 0, 74, 71
1, 35632, Note_on_c, 1, 46, 51
1, 35654, Note_on_c, 9, 51, 68
1, 35658, Note_on_c, 9, 44, 92
1, 35668, Note_on_c, 9, 51, 0
1, 35672, Note_on_c, 0, 69, 0
1, 35676, Note_on_c, 0, 62, 0
1, 35688, Note_on_c, 0, 52, 0
1, 35692, Note_on_c, 0, 81, 0
1, 35692, Control_c, 0, 64, 127
1, 35696, Note_on_c, 0, 74, 0
1, 35704, Note_on_c, 0, 58, 0
1, 35728, Note_on_c, 0, 78, 0
1, 35796, Note_on_c, 0, 78, 58
1, 35796, Note_on_c, 0, 58, 57
1, 35800, Note_on_c, 0, 62, 57
1, 35800, Note_on_c, 0, 81, 72
1, 35800, Note_on_c, 0, 52, 49
1, 35804, Note_on_c, 9, 44, 0
1, 35808, Note_on_c, 0, 74, 72
1, 35812, Note_on_c, 0, 69, 54
1, 35844, Note_on_c, 0, 52, 0
1, 35864, Note_on_c, 0, 69, 0
1, 35884, Note_on_c, 0, 74, 0
1, 35912, Note_on_c, 0, 58, 0
1, 35920, Note_on_c, 0, 62, 0
1, 35928, Note_on_c, 0, 81, 0
1, 35932, Note_on_c, 0, 78, 0
1, 36004, Note_on_c, 1, 46, 0
1, 36024, Control_c, 0, 64, 0
1, 36032, Note_on_c, 1, 45, 51
1, 36038, Note_on_c, 9, 51, 68
1, 36052, Note_on_c, 9, 51, 0
1, 36052, Note_on_c, 0, 55, 65
1, 36056, Note_on_c, 0, 84, 81
1, 36060, Note_on_c, 0, 77, 79
1, 36060, Note_on_c, 0, 61, 67
1, 36060, Note_on_c, 0, 72, 71
1, 36060, Note_on_c, 0, 81, 69
1, 36068, Note_on_c, 0, 65, 68
1, 36240, Control_c, 0, 64, 127
1, 36256, Note_on_c, 0, 55, 0
1, 36260, Note_on_c, 0, 65, 0
1, 36260, Note_on_c, 0, 72, 0
1, 36272, Note_on_c, 0, 84, 0
1, 36276, Note_on_c, 0, 77, 0
1, 36280, Note_on_c, 0, 81, 0
1, 36280, Note_on_c, 0, 61, 0
1, 36292, Note_on_c, 1, 45, 0
1, 36292, Note_on_c, 1, 40, 56
1, 36332, Note_on_c, 0, 84, 63
1, 36340, Note_on_c, 0, 77, 57
1, 36344, Note_on_c, 0, 72, 40
1, 36348, Note_on_c, 0, 61, 50
1, 36352, Note_on_c, 0, 55, 54
1, 36352, Note_on_c, 0, 65, 48
1, 36364, Note_on_c, 0, 84, 0
1, 36384, Note_on_c, 0, 65, 0
1, 36388, Note_on_c, 0, 77, 0
1, 36388, Note_on_c, 1, 40, 0
1, 36404, Note_on_c, 0, 72, 0
1, 36422, Note_on_c, 1, 37, 56
1, 36422, Note_on_c, 9, 51, 82
1, 36426, Note_on_c, 9, 44, 105
1, 36432, Note_on_c, 0, 61, 0
1, 36436, Note_on_c, 9, 51, 0
1, 36456, Note_on_c, 0, 55, 0
1, 36554, Note_on_c, 9, 44, 0
1, 36616, Note_on_c, 0, 60, 65
1, 36652, Note_on_c, 0, 60, 0
1, 36678, Note_on_c, 9, 51, 49
1, 36716, Note_on_c, 9, 35, 35
1, 36728, Control_c, 0, 64, 0
1, 36732, Note_on_c, 0, 62, 61
1, 36748, Note_on_c, 9, 35, 0
1, 36800, Note_on_c, 1, 37, 0
1, 36800, Note_on_c, 0, 62, 0
1, 36804, Note_on_c, 1, 38, 63
1, 36806, Note_on_c, 9, 51, 70
1, 36820, Note_on_c, 9, 51, 0
1, 36996, Note_on_c, 0, 65, 82
1, 37004, Note_on_c, 0, 50, 65
1, 37004, Note_on_c, 0, 60, 75
1, 37008, Note_on_c, 0, 57, 73
1, 37148, Note_on_c, 0, 57, 0
1, 37156, Note_on_c, 0, 65, 0
1, 37164, Note_on_c, 0, 60, 0
1, 37190, Note_on_c, 9, 51, 66
1, 37192, Note_on_c, 1, 40, 68
1, 37194, Note_on_c, 9, 44, 98
1, 37204, Note_on_c, 9, 51, 0
1, 37204, Note_on_c, 9, 51, 0
1, 37204, Note_on_c, 1, 38, 0
1, 37208, Note_on_c, 0, 50, 0
1, 37228, Note_on_c, 0, 67, 78
1, 37228, Note_on_c, 0, 59, 72
1, 37232, Control_c, 0, 64, 127
1, 37232, Note_on_c, 0, 62, 73
1, 37232, Note_on_c, 0, 52, 68
1, 37316, Note_on_c, 9, 44, 0
1, 37372, Note_on_c, 0, 59, 0
1, 37392, Note_on_c, 0, 62, 0
1, 37396, Note_on_c, 0, 67, 0
1, 37428, Control_c, 0, 64, 0
1, 37448, Note_on_c, 0, 52, 0
1, 37476, Note_on_c, 0, 69, 83
1, 37488, Note_on_c, 0, 62, 72
1, 37488, Note_on_c, 0, 60, 72
1, 37492, Note_on_c, 0, 53, 63
1, 37496, Note_on_c, 1, 39, 46
1, 37504, Note_on_c, 1, 40, 0
1, 37564, Control_c, 0, 64, 127
1, 37574, Note_on_c, 9, 51, 68
1, 37576, Note_on_c, 1, 41, 60
1, 37584, Note_on_c, 1, 39, 0
1, 37588, Note_on_c, 9, 51, 0
1, 37664, Note_on_c, 0, 62, 0
1, 37680, Note_on_c, 0, 60, 0
1, 37732, Note_on_c, 0, 53, 0
1, 37744, Note_on_c, 0, 69, 0
1, 37956, Note_on_c, 9, 51, 66
1, 37962, Note_on_c, 9, 44, 105
1, 37972, Note_on_c, 9, 51, 0
1, 38052, Note_on_c, 9, 44, 0
1, 38204, Note_on_c, 0, 72, 68
1, 38212, Note_on_c, 0, 44, 54
1, 38212, Note_on_c, 0, 65, 68
1, 38212, Note_on_c, 0, 54, 50
1, 38224, Note_on_c, 0, 60, 58
1, 38268, Note_on_c, 0, 72, 0
1, 38272, Note_on_c, 0, 65, 0
1, 38272, Note_on_c, 1, 41, 0
1, 38272, Note_on_c, 1, 39, 23
1, 38276, Note_on_c, 0, 60, 0
1, 38276, Control_c, 0, 64, 0
1, 38288, Note_on_c, 0, 54, 0
1, 38342, Note_on_c, 9, 51, 78
1, 38352, Note_on_c, 1, 43, 69
1, 38356, Note_on_c, 1, 39, 0
1, 38356, Note_on_c, 9, 51, 0
1, 38380, Note_on_c, 0, 44, 0
1, 38454, Note_on_c, 9, 46, 26
1, 38480, Note_on_c, 9, 46, 0
1, 38488, Note_on_c, 0, 62, 60
1, 38492, Note_on_c, 0, 60, 56
1, 38496, Note_on_c, 0, 53, 46
1, 38496, Note_on_c, 0, 57, 48
1, 38504, Note_on_c, 0, 43, 52
1, 38512, Note_on_c, 0, 50, 44
1, 38582, Note_on_c, 9, 35, 45
1, 38620, Note_on_c, 9, 35, 0
1, 38624, Note_on_c, 0, 53, 0
1, 38636, Note_on_c, 0, 50, 0
1, 38640, Note_on_c, 0, 57, 0
1, 38640, Note_on_c, 0, 43, 0
1, 38652, Note_on_c, 0, 62, 0
1, 38656, Note_on_c, 0, 60, 0
1, 38696, Control_c, 0, 64, 127
1, 38726, Note_on_c, 9, 46, 22
1, 38726, Note_on_c, 9, 51, 63
1, 38730, Note_on_c, 9, 44, 108
1, 38740, Note_on_c, 9, 51, 0
1, 38740, Note_on_c, 1, 31, 80
1, 38756, Note_on_c, 0, 62, 49
1, 38764, Note_on_c, 0, 43, 46
1, 38764, Note_on_c, 0, 57, 50
1, 38768, Note_on_c, 0, 53, 45
1, 38774, Note_on_c, 9, 46, 0
1, 38776, Note_on_c, 0, 50, 40
1, 38780, Note_on_c, 1, 43, 0
1, 38780, Note_on_c, 0, 60, 39
1, 38828, Note_on_c, 0, 53, 0
1, 38836, Note_on_c, 9, 44, 0
1, 38848, Note_on_c, 0, 57, 0
1, 38868, Note_on_c, 0, 60, 0
1, 38880, Note_on_c, 0, 43, 0
1, 38932, Note_on_c, 0, 62, 0
1, 38960, Control_c, 0, 64, 0
1, 38964, Note_on_c, 0, 50, 0
1, 39002, Note_on_c, 9, 46, 63
1, 39012, Note_on_c, 0, 43, 47
1, 39020, Note_on_c, 0, 62, 57
1, 39020, Note_on_c, 0, 56, 60
1, 39028, Note_on_c, 0, 59, 62
1, 39032, Note_on_c, 0, 53, 41
1, 39052, Note_on_c, 9, 46, 0
1, 39110, Note_on_c, 9, 51, 75
1, 39124, Note_on_c, 9, 51, 0
1, 39128, Control_c, 0, 64, 127
1, 39290, Note_on_c, 9, 46, 57
1, 39338, Note_on_c, 9, 46, 0
1, 39376, Note_on_c, 0, 56, 0
1, 39380, Note_on_c, 0, 59, 0
1, 39420, Note_on_c, 0, 43, 0
1, 39436, Note_on_c, 9, 35, 36
1, 39444, Note_on_c, 0, 53, 0
1, 39448, Note_on_c, 0, 62, 0
1, 39468, Note_on_c, 9, 35, 0
1, 39494, Note_on_c, 9, 51, 61
1, 39496, Note_on_c, 1, 43, 63
1, 39498, Note_on_c, 9, 46, 54
1, 39508, Note_on_c, 9, 51, 0
1, 39524, Note_on_c, 1, 43, 0
1, 39524, Control_c, 0, 64, 0
1, 39540, Note_on_c, 0, 63, 71
1, 39544, Note_on_c, 0, 51, 69
1, 39544, Note_on_c, 0, 58, 74
1, 39544, Note_on_c, 0, 54, 64
1, 39552, Note_on_c, 1, 31, 0
1, 39564, Note_on_c, 9, 35, 47
1, 39580, Note_on_c, 9, 46, 0
1, 39588, Control_c, 0, 64, 127
1, 39590, Note_on_c, 9, 35, 0
1, 39648, Note_on_c, 1, 34, 57
1, 39676, Note_on_c, 1, 34, 0
1, 39712, Note_on_c, 0, 54, 0
1, 39740, Note_on_c, 0, 63, 0
1, 39744, Note_on_c, 0, 49, 54
1, 39750, Note_on_c, 9, 51, 82
1, 39756, Note_on_c, 0, 58, 0
1, 39776, Note_on_c, 1, 35, 72
1, 39786, Note_on_c, 9, 35, 42
1, 39792, Control_c, 0, 64, 0
1, 39808, Note_on_c, 0, 64, 76
1, 39816, Note_on_c, 0, 57, 68
1, 39820, Note_on_c, 0, 55, 72
1, 39820, Note_on_c, 0, 52, 77
1, 39824, Note_on_c, 0, 60, 64
1, 39828, Note_on_c, 9, 35, 0
1, 39848, Note_on_c, 0, 51, 0
1, 39864, Note_on_c, 1, 35, 0
1, 39868, Note_on_c, 0, 49, 0
1, 39878, Note_on_c, 9, 51, 87
1, 39892, Note_on_c, 9, 51, 0
1, 39916, Note_on_c, 1, 36, 63
1, 39924, Control_c, 0, 64, 127
1, 40132, Note_on_c, 0, 60, 0
1, 40156, Note_on_c, 0, 57, 0
1, 40172, Note_on_c, 0, 64, 0
1, 40200, Note_on_c, 0, 55, 0
1, 40220, Control_c, 0, 64, 0
1, 40262, Note_on_c, 9, 51, 77
1, 40266, Note_on_c, 9, 44, 96
1, 40276, Note_on_c, 9, 51, 0
1, 40276, Note_on_c, 9, 51, 0
1, 40296, Note_on_c, 0, 52, 0
1, 40296, Note_on_c, 0, 50, 46
1, 40300, Note_on_c, 0, 56, 50
1, 40304, Note_on_c, 0, 62, 52
1, 40316, Note_on_c, 0, 61, 31
1, 40320, Note_on_c, 0, 53, 31
1, 40340, Note_on_c, 0, 59, 32
1, 40388, Note_on_c, 9, 44, 0
1, 40400, Control_c, 0, 64, 127
1, 40448, Note_on_c, 0, 53, 0
1, 40472, Note_on_c, 0, 61, 0
1, 40480, Note_on_c, 0, 62, 0
1, 40488, Note_on_c, 0, 56, 0
1, 40492, Note_on_c, 0, 59, 0
1, 40540, Note_on_c, 1, 34, 40
1, 40552, Note_on_c, 0, 50, 0
1, 40556, Note_on_c, 0, 52, 63
1, 40564, Note_on_c, 0, 64, 47
1, 40564, Note_on_c, 0, 55, 52
1, 40564, Note_on_c, 0, 59, 50
1, 40576, Note_on_c, 0, 57, 50
1, 40592, Note_on_c, 0, 64, 0
1, 40596, Note_on_c, 0, 59, 0
1, 40604, Control_c, 0, 64, 0
1, 40608, Note_on_c, 1, 36, 0
1, 40620, Note_on_c, 0, 57, 0
1, 40620, Note_on_c, 0, 52, 0
1, 40620, Note_on_c, 0, 55, 0
1, 40646, Note_on_c, 9, 51, 66
1, 40660, Note_on_c, 9, 51, 0
1, 40668, Note_on_c, 1, 34, 0
1, 40668, Note_on_c, 1, 45, 55
1, 40668, Note_on_c, 9, 35, 33
1, 40700, Note_on_c, 9, 35, 0
1, 40700, Note_on_c, 0, 50, 45
1, 40708, Note_on_c, 0, 62, 38
1, 40728, Note_on_c, 0, 57, 37
1, 40744, Note_on_c, 0, 53, 25
1, 40744, Control_c, 0, 64, 104
1, 40748, Control_c, 0, 64, 127
1, 40804, Note_on_c, 0, 57, 0
1, 40812, Note_on_c, 0, 62, 0
1, 40856, Note_on_c, 0, 53, 0
1, 40908, Control_c, 0, 64, 0
1, 40924, Note_on_c, 0, 50, 0
1, 40964, Note_on_c, 0, 48, 56
1, 40964, Note_on_c, 0, 60, 60
1, 40976, Note_on_c, 0, 55, 57
1, 40984, Note_on_c, 0, 52, 34
1, 41004, Note_on_c, 0, 55, 0
1, 41016, Note_on_c, 0, 52, 0
1, 41020, Note_on_c, 0, 48, 0
1, 41030, Note_on_c, 9, 51, 71
1, 41034, Note_on_c, 9, 44, 87
1, 41044, Note_on_c, 0, 60, 0
1, 41044, Note_on_c, 9, 51, 0
1, 41172, Note_on_c, 9, 44, 0
1, 41272, Note_on_c, 1, 37, 50
1, 41332, Note_on_c, 0, 62, 65
1, 41332, Note_on_c, 0, 48, 57
1, 41344, Note_on_c, 0, 57, 56
1, 41348, Note_on_c, 0, 53, 48
1, 41356, Note_on_c, 1, 37, 0
1, 41400, Note_on_c, 1, 45, 0
1, 41408, Note_on_c, 1, 50, 58
1, 41414, Note_on_c, 9, 51, 77
1, 41428, Note_on_c, 9, 51, 0
1, 41532, Note_on_c, 0, 62, 0
1, 41556, Note_on_c, 0, 57, 0
1, 41558, Note_on_c, 0, 53, 0
1, 41656, Note_on_c, 0, 48, 0
1, 41660, Note_on_c, 1, 38, 47
1, 41672, Note_on_c, 0, 49, 61
1, 41676, Note_on_c, 0, 64, 72
1, 41700, Note_on_c, 1, 38, 0
1, 41700, Note_on_c, 0, 59, 48
1, 41740, Note_on_c, 1, 50, 0
1, 41772, Note_on_c, 0, 59, 0
1, 41776, Note_on_c, 0, 64, 0
1, 41780, Note_on_c, 1, 44, 61
1, 41798, Note_on_c, 9, 51, 70
1, 41802, Note_on_c, 9, 44, 96
1, 41812, Note_on_c, 9, 51, 0
1, 41828, Note_on_c, 0, 49, 0
1, 41852, Note_on_c, 0, 50, 48
1, 41860, Note_on_c, 0, 65, 72
1, 41872, Note_on_c, 0, 57, 56
1, 41876, Note_on_c, 0, 60, 60
1, 41892, Note_on_c, 9, 44, 0
1, 41928, Note_on_c, 0, 57, 0
1, 41952, Note_on_c, 0, 60, 0
1, 41964, Note_on_c, 0, 65, 0
1, 42024, Note_on_c, 0, 50, 0
1, 42058, Note_on_c, 9, 35, 35
1, 42060, Note_on_c, 0, 67, 74
1, 42072, Note_on_c, 0, 52, 54
1, 42080, Note_on_c, 0, 62, 63
1, 42088, Note_on_c, 0, 59, 40
1, 42090, Note_on_c, 9, 35, 0
1, 42120, Note_on_c, 0, 59, 0
1, 42136, Note_on_c, 0, 62, 0
1, 42152, Note_on_c, 0, 67, 0
1, 42182, Note_on_c, 9, 51, 66
1, 42192, Note_on_c, 0, 52, 0
1, 42196, Note_on_c, 9, 51, 0
1, 42240, Note_on_c, 0, 69, 55
1, 42248, Note_on_c, 0, 53, 57
1, 42248, Note_on_c, 0, 60, 43
1, 42260, Note_on_c, 0, 64, 45
1, 42260, Note_on_c, 0, 65, 49
1, 42344, Note_on_c, 0, 65, 0
1, 42352, Control_c, 0, 64, 127
1, 42356, Note_on_c, 0, 60, 0
1, 42356, Note_on_c, 0, 69, 0
1, 42356, Note_on_c, 0, 64, 0
1, 42424, Note_on_c, 1, 38, 49
1, 42444, Control_c, 0, 64, 0
1, 42460, Note_on_c, 1, 38, 0
1, 42496, Note_on_c, 1, 44, 0
1, 42516, Note_on_c, 0, 53, 0
1, 42536, Note_on_c, 1, 43, 54
1, 42540, Note_on_c, 0, 71, 66
1, 42548, Note_on_c, 0, 56, 49
1, 42552, Note_on_c, 0, 68, 56
1, 42556, Control_c, 0, 64, 127
1, 42556, Note_on_c, 0, 62, 50
1, 42566, Note_on_c, 9, 51, 75
1, 42570, Note_on_c, 9, 44, 96
1, 42572, Note_on_c, 0, 65, 46
1, 42580, Note_on_c, 9, 51, 0
1, 42664, Note_on_c, 0, 65, 0
1, 42664, Note_on_c, 0, 62, 0
1, 42682, Note_on_c, 9, 44, 0
1, 42700, Note_on_c, 0, 71, 0
1, 42760, Note_on_c, 0, 68, 0
1, 42772, Control_c, 0, 64, 0
1, 42812, Note_on_c, 0, 72, 77
1, 42820, Note_on_c, 0, 56, 0
1, 42820, Note_on_c, 0, 67, 71
1, 42820, Note_on_c, 0, 57, 61
1, 42820, Note_on_c, 0, 64, 64
1, 42836, Note_on_c, 9, 35, 35
1, 42868, Note_on_c, 9, 35, 0
1, 42908, Control_c, 0, 64, 127
1, 42950, Note_on_c, 9, 51, 63
1, 42964, Note_on_c, 9, 51, 0
1, 43004, Note_on_c, 0, 72, 0
1, 43008, Note_on_c, 0, 57, 0
1, 43052, Note_on_c, 0, 67, 0
1, 43064, Note_on_c, 0, 64, 0
1, 43188, Note_on_c, 0, 74, 74
1, 43188, Note_on_c, 1, 36, 80
1, 43204, Note_on_c, 0, 60, 48
1, 43208, Note_on_c, 0, 67, 53
1, 43208, Note_on_c, 0, 64, 57
1, 43252, Note_on_c, 1, 43, 0
1, 43260, Control_c, 0, 64, 0
1, 43288, Note_on_c, 0, 64, 0
1, 43300, Note_on_c, 0, 74, 0
1, 43312, Note_on_c, 0, 67, 0
1, 43334, Note_on_c, 9, 51, 73
1, 43336, Note_on_c, 0, 60, 0
1, 43338, Note_on_c, 9, 44, 89
1, 43344, Control_c, 0, 64, 127
1, 43348, Note_on_c, 9, 51, 0
1, 43360, Note_on_c, 0, 59, 52
1, 43360, Note_on_c, 0, 72, 56
1, 43376, Note_on_c, 0, 64, 39
1, 43380, Note_on_c, 0, 59, 0
1, 43428, Note_on_c, 0, 72, 0
1, 43436, Note_on_c, 0, 64, 0
1, 43466, Note_on_c, 9, 44, 0
1, 43578, Note_on_c, 9, 35, 42
1, 43580, Control_c, 0, 64, 0
1, 43600, Note_on_c, 0, 46, 54
1, 43604, Note_on_c, 9, 35, 0
1, 43608, Note_on_c, 0, 67, 55
1, 43608, Note_on_c, 0, 56, 46
1, 43612, Note_on_c, 0, 60, 54
1, 43612, Note_on_c, 0, 64, 57
1, 43660, Note_on_c, 1, 36, 0
1, 43708, Control_c, 0, 64, 127
1, 43708, Note_on_c, 1, 34, 66
1, 43718, Note_on_c, 9, 51, 75
1, 43732, Note_on_c, 9, 51, 0
1, 43864, Note_on_c, 0, 60, 0
1, 43872, Note_on_c, 0, 46, 0
1, 43900, Note_on_c, 0, 56, 0
1, 43912, Note_on_c, 0, 64, 0
1, 43912, Note_on_c, 0, 67, 0
1, 43988, Note_on_c, 0, 69, 63
1, 44000, Note_on_c, 0, 46, 48
1, 44004, Note_on_c, 0, 60, 41
1, 44008, Note_on_c, 0, 64, 41
1, 44008, Control_c, 0, 64, 0
1, 44012, Note_on_c, 0, 56, 40
1, 44060, Note_on_c, 0, 56, 0
1, 44060, Note_on_c, 0, 46, 0
1, 44064, Note_on_c, 0, 64, 0
1, 44068, Note_on_c, 1, 34, 0
1, 44068, Note_on_c, 0, 60, 0
1, 44080, Note_on_c, 0, 69, 0
1, 44096, Note_on_c, 1, 32, 63
1, 44102, Note_on_c, 9, 51, 75
1, 44106, Note_on_c, 9, 44, 87
1, 44116, Note_on_c, 9, 51, 0
1, 44116, Control_c, 0, 64, 127
1, 44128, Note_on_c, 0, 56, 32
1, 44144, Note_on_c, 0, 46, 37
1, 44204, Note_on_c, 0, 56, 0
1, 44244, Note_on_c, 9, 44, 0
1, 44292, Note_on_c, 0, 46, 0
1, 44356, Note_on_c, 9, 51, 77
1, 44368, Control_c, 0, 64, 0
1, 44376, Note_on_c, 0, 58, 50
1, 44384, Note_on_c, 0, 61, 48
1, 44388, Note_on_c, 0, 64, 39
1, 44392, Note_on_c, 0, 55, 33
1, 44392, Note_on_c, 0, 52, 42
1, 44392, Note_on_c, 0, 45, 42
1, 44460, Note_on_c, 1, 32, 0
1, 44468, Control_c, 0, 64, 127
1, 44468, Note_on_c, 1, 33, 63
1, 44486, Note_on_c, 9, 51, 49
1, 44500, Note_on_c, 9, 51, 0
1, 44508, Note_on_c, 0, 55, 0
1, 44524, Note_on_c, 9, 35, 22
1, 44544, Note_on_c, 9, 35, 0
1, 44604, Note_on_c, 0, 58, 0
1, 44616, Note_on_c, 0, 64, 0
1, 44624, Note_on_c, 0, 61, 0
1, 44656, Note_on_c, 0, 45, 0
1, 44668, Note_on_c, 0, 52, 0
1, 44870, Note_on_c, 9, 51, 73
1, 44874, Note_on_c, 9, 44, 87
1, 44884, Note_on_c, 9, 51, 0
1, 44884, Note_on_c, 9, 51, 0
1, 45018, Note_on_c, 9, 44, 0
1, 45248, Control_c, 0, 64, 0
1, 45248, Note_on_c, 1, 40, 65
1, 45254, Note_on_c, 9, 51, 80
1, 45256, Note_on_c, 0, 72, 68
1, 45260, Note_on_c, 0, 61, 61
1, 45268, Note_on_c, 9, 51, 0
1, 45276, Note_on_c, 1, 33, 0
1, 45284, Note_on_c, 0, 64, 46
1, 45284, Note_on_c, 0, 60, 50
1, 45380, Note_on_c, 1, 40, 0
1, 45500, Note_on_c, 0, 64, 0
1, 45508, Note_on_c, 0, 72, 0
1, 45512, Note_on_c, 0, 61, 0
1, 45520, Note_on_c, 1, 36, 54
1, 45532, Note_on_c, 9, 35, 36
1, 45574, Note_on_c, 9, 35, 0
1, 45576, Note_on_c, 1, 36, 0
1, 45584, Note_on_c, 0, 60, 0
1, 45632, Note_on_c, 1, 37, 58
1, 45638, Note_on_c, 9, 51, 70
1, 45642, Note_on_c, 9, 44, 84
1, 45644, Note_on_c, 0, 61, 54
1, 45648, Note_on_c, 0, 70, 55
1, 45652, Note_on_c, 9, 51, 0
1, 45660, Note_on_c, 0, 58, 44
1, 45672, Control_c, 0, 64, 127
1, 45684, Note_on_c, 9, 35, 49
1, 45692, Note_on_c, 0, 64, 26
1, 45712, Note_on_c, 0, 67, 19
1, 45780, Note_on_c, 9, 44, 0
1, 45784, Note_on_c, 0, 64, 0
1, 45804, Note_on_c, 9, 35, 0
1, 45812, Note_on_c, 0, 67, 0
1, 45828, Note_on_c, 0, 70, 0
1, 45840, Note_on_c, 0, 61, 0
1, 45900, Control_c, 0, 64, 40
1, 45904, Control_c, 0, 64, 0
1, 45916, Note_on_c, 1, 34, 38
1, 45916, Note_on_c, 9, 35, 57
1, 45968, Note_on_c, 9, 35, 0
1, 45984, Note_on_c, 1, 37, 0
1, 46008, Note_on_c, 0, 58, 0
1, 46012, Note_on_c, 1, 34, 0
1, 46012, Note_on_c, 1, 38, 60
1, 46022, Note_on_c, 9, 51, 89
1, 46036, Note_on_c, 9, 51, 0
1, 46036, Note_on_c, 0, 69, 52
1, 46036, Note_on_c, 0, 60, 39
1, 46048, Control_c, 0, 64, 127
1, 46048, Note_on_c, 0, 57, 39
1, 46052, Note_on_c, 0, 64, 41
1, 46068, Note_on_c, 0, 60, 0
1, 46100, Note_on_c, 0, 64, 0
1, 46116, Note_on_c, 0, 57, 0
1, 46136, Note_on_c, 0, 69, 0
1, 46284, Note_on_c, 1, 37, 49
1, 46304, Control_c, 0, 64, 0
1, 46308, Note_on_c, 0, 64, 58
1, 46308, Note_on_c, 0, 69, 79
1, 46308, Note_on_c, 0, 76, 80
1, 46340, Note_on_c, 1, 38, 0
1, 46388, Note_on_c, 1, 37, 0
1, 46400, Note_on_c, 1, 45, 63
1, 46406, Note_on_c, 9, 51, 68
1, 46410, Note_on_c, 9, 44, 85
1, 46420, Note_on_c, 9, 51, 0
1, 46456, Control_c, 0, 64, 127
1, 46506, Note_on_c, 9, 44, 0
1, 46544, Note_on_c, 0, 76, 0
1, 46548, Note_on_c, 0, 69, 0
1, 46592, Note_on_c, 0, 64, 0
1, 46592, Note_on_c, 0, 74, 63
1, 46604, Note_on_c, 0, 66, 46
1, 46616, Note_on_c, 0, 62, 46
1, 46636, Note_on_c, 0, 66, 0
1, 46662, Note_on_c, 9, 51, 73
1, 46672, Note_on_c, 1, 38, 48
1, 46676, Note_on_c, 0, 62, 0
1, 46688, Note_on_c, 0, 74, 0
1, 46704, Control_c, 0, 64, 0
1, 46712, Note_on_c, 0, 66, 54
1, 46712, Note_on_c, 0, 76, 80
1, 46716, Note_on_c, 0, 69, 61
1, 46716, Note_on_c, 0, 64, 62
1, 46740, Note_on_c, 1, 38, 0
1, 46772, Note_on_c, 1, 45, 0
1, 46780, Note_on_c, 0, 66, 0
1, 46788, Note_on_c, 1, 52, 62
1, 46790, Note_on_c, 9, 51, 85
1, 46800, Note_on_c, 0, 76, 0
1, 46804, Note_on_c, 9, 51, 0
1, 46812, Note_on_c, 0, 69, 0
1, 46824, Note_on_c, 0, 64, 0
1, 46836, Control_c, 0, 64, 127
1, 46856, Note_on_c, 0, 74, 62
1, 46860, Note_on_c, 0, 62, 48
1, 46868, Note_on_c, 0, 66, 35
1, 46872, Note_on_c, 0, 69, 39
1, 46960, Note_on_c, 0, 66, 0
1, 46972, Note_on_c, 0, 69, 0
1, 47012, Note_on_c, 0, 62, 0
1, 47036, Note_on_c, 0, 74, 0
1, 47052, Note_on_c, 1, 38, 46
1, 47064, Control_c, 0, 64, 0
1, 47076, Note_on_c, 0, 72, 59
1, 47084, Note_on_c, 1, 52, 0
1, 47088, Note_on_c, 0, 60, 49
1, 47092, Note_on_c, 1, 38, 0
1, 47092, Note_on_c, 0, 65, 48
1, 47100, Note_on_c, 0, 69, 45
1, 47164, Control_c, 0, 64, 127
1, 47164, Note_on_c, 1, 44, 56
1, 47174, Note_on_c, 9, 51, 92
1, 47178, Note_on_c, 9, 44, 82
1, 47188, Note_on_c, 9, 51, 0
1, 47188, Note_on_c, 9, 51, 0
1, 47296, Note_on_c, 0, 69, 0
1, 47306, Note_on_c, 9, 44, 0
1, 47324, Note_on_c, 0, 72, 0
1, 47356, Note_on_c, 0, 60, 0
1, 47408, Note_on_c, 0, 65, 0
1, 47416, Note_on_c, 1, 38, 43
1, 47446, Note_on_c, 9, 35, 59
1, 47464, Note_on_c, 1, 38, 0
1, 47488, Control_c, 0, 64, 0
1, 47514, Note_on_c, 9, 35, 0
1, 47558, Note_on_c, 9, 51, 85
1, 47572, Note_on_c, 9, 51, 0
1, 47572, Note_on_c, 1, 44, 0
1, 47572, Note_on_c, 0, 74, 61
1, 47572, Note_on_c, 0, 60, 48
1, 47576, Note_on_c, 1, 43, 51
1, 47580, Note_on_c, 0, 65, 43
1, 47584, Note_on_c, 0, 69, 49
1, 47604, Control_c, 0, 64, 127
1, 47668, Note_on_c, 0, 74, 0
1, 47776, Note_on_c, 0, 65, 0
1, 47820, Note_on_c, 0, 60, 0
1, 47820, Note_on_c, 0, 61, 58
1, 47820, Note_on_c, 0, 76, 68
1, 47864, Note_on_c, 0, 69, 0
1, 47884, Control_c, 0, 64, 0
1, 47908, Note_on_c, 0, 76, 0
1, 47942, Note_on_c, 9, 51, 84
1, 47946, Note_on_c, 9, 44, 70
1, 47956, Note_on_c, 9, 51, 0
1, 47968, Note_on_c, 0, 61, 0
1, 47988, Note_on_c, 0, 62, 48
1, 47992, Note_on_c, 0, 77, 52
1, 48004, Note_on_c, 9, 44, 0
1, 48008, Note_on_c, 0, 72, 43
1, 48028, Control_c, 0, 64, 127
1, 48088, Note_on_c, 0, 72, 0
1, 48116, Note_on_c, 0, 77, 0
1, 48168, Note_on_c, 0, 62, 0
1, 48208, Note_on_c, 0, 79, 72
1, 48212, Note_on_c, 1, 38, 52
1, 48216, Note_on_c, 0, 64, 54
1, 48228, Note_on_c, 0, 74, 57
1, 48248, Control_c, 0, 64, 0
1, 48252, Note_on_c, 0, 74, 0
1, 48284, Note_on_c, 1, 38, 0
1, 48288, Note_on_c, 0, 79, 0
1, 48326, Note_on_c, 9, 51, 71
1, 48340, Note_on_c, 9, 51, 0
1, 48344, Note_on_c, 0, 64, 0
1, 48352, Note_on_c, 1, 35, 64
1, 48380, Note_on_c, 0, 81, 66
1, 48384, Note_on_c, 0, 76, 58
1, 48392, Control_c, 0, 64, 127
1, 48396, Note_on_c, 0, 71, 44
1, 48404, Note_on_c, 0, 65, 32
1, 48424, Note_on_c, 0, 76, 0
1, 48424, Control_c, 0, 64, 0
1, 48428, Note_on_c, 0, 71, 0
1, 48432, Note_on_c, 0, 81, 0
1, 48436, Note_on_c, 0, 65, 0
1, 48710, Note_on_c, 9, 51, 66
1, 48714, Note_on_c, 9, 44, 66
1, 48720, Control_c, 0, 64, 127
1, 48724, Note_on_c, 9, 51, 0
1, 48740, Note_on_c, 9, 35, 31
1, 48778, Note_on_c, 9, 35, 0
1, 48820, Note_on_c, 9, 44, 0
1, 48966, Note_on_c, 9, 51, 75
1, 48976, Note_on_c, 0, 63, 55
1, 48984, Note_on_c, 0, 83, 56
1, 48984, Note_on_c, 0, 59, 47
1, 48988, Note_on_c, 0, 71, 39
1, 48988, Note_on_c, 1, 34, 36
1, 48988, Note_on_c, 9, 35, 52
1, 49004, Note_on_c, 0, 53, 37
1, 49012, Note_on_c, 0, 59, 0
1, 49012, Note_on_c, 0, 80, 16
1, 49014, Note_on_c, 9, 35, 0
1, 49040, Note_on_c, 0, 53, 0
1, 49052, Note_on_c, 0, 63, 0
1, 49056, Note_on_c, 0, 71, 0
1, 49060, Note_on_c, 1, 43, 0
1, 49072, Note_on_c, 0, 83, 0
1, 49072, Note_on_c, 1, 35, 0
1, 49084, Note_on_c, 1, 36, 67
1, 49092, Note_on_c, 0, 80, 0
1, 49094, Note_on_c, 9, 51, 71
1, 49104, Note_on_c, 1, 34, 0
1, 49108, Note_on_c, 9, 51, 0
1, 49120, Control_c, 0, 64, 0
1, 49148, Note_on_c, 0, 62, 56
1, 49168, Note_on_c, 0, 84, 66
1, 49172, Note_on_c, 0, 72, 48
1, 49176, Note_on_c, 0, 52, 37
1, 49216, Note_on_c, 0, 57, 31
1, 49478, Note_on_c, 9, 51, 63
1, 49482, Note_on_c, 9, 44, 80
1, 49488, Control_c, 0, 64, 127
1, 49492, Note_on_c, 9, 51, 0
1, 49492, Note_on_c, 9, 51, 0
1, 49496, Note_on_c, 0, 57, 0
1, 49524, Note_on_c, 0, 52, 0
1, 49600, Note_on_c, 9, 44, 0
1, 49608, Note_on_c, 0, 62, 0
1, 49750, Note_on_c, 9, 35, 33
1, 49782, Note_on_c, 9, 35, 0
1, 49862, Note_on_c, 9, 51, 63
1, 49876, Note_on_c, 9, 51, 0
1, 49996, Note_on_c, 0, 72, 0
1, 50116, Note_on_c, 9, 37, 35
1, 50138, Note_on_c, 9, 37, 0
1, 50140, Note_on_c, 0, 61, 48
1, 50148, Note_on_c, 0, 65, 45
1, 50148, Note_on_c, 1, 34, 45
1, 50152, Note_on_c, 0, 60, 52
1, 50152, Control_c, 0, 64, 0
1, 50156, Note_on_c, 0, 55, 48
1, 50220, Note_on_c, 0, 84, 0
1, 50236, Note_on_c, 1, 36, 0
1, 50240, Note_on_c, 1, 45, 81
1, 50246, Note_on_c, 9, 51, 73
1, 50250, Note_on_c, 9, 44, 78
1, 50260, Note_on_c, 9, 51, 0
1, 50304, Note_on_c, 1, 34, 0
1, 50362, Note_on_c, 9, 44, 0
1, 50512, Note_on_c, 0, 55, 0
1, 50532, Note_on_c, 0, 65, 0
1, 50544, Note_on_c, 0, 60, 0
1, 50608, Note_on_c, 0, 61, 0
1, 50630, Note_on_c, 9, 51, 73
1, 50636, Note_on_c, 0, 54, 50
1, 50636, Note_on_c, 0, 64, 49
1, 50644, Note_on_c, 9, 51, 0
1, 50644, Note_on_c, 0, 60, 43
1, 50884, Note_on_c, 1, 38, 50
1, 50912, Note_on_c, 1, 38, 0
1, 50916, Note_on_c, 9, 35, 29
1, 50940, Note_on_c, 9, 35, 0
1, 50956, Note_on_c, 1, 45, 0
1, 50972, Note_on_c, 1, 44, 67
1, 51014, Note_on_c, 9, 51, 73
1, 51018, Note_on_c, 9, 44, 85
1, 51020, Note_on_c, 0, 81, 120
1, 51028, Note_on_c, 9, 51, 0
1, 51040, Note_on_c, 0, 64, 0
1, 51056, Note_on_c, 0, 60, 0
1, 51146, Note_on_c, 9, 44, 0
1, 51180, Note_on_c, 0, 54, 0
1, 51270, Note_on_c, 9, 51, 71
1, 51276, Note_on_c, 0, 84, 86
1, 51280, Note_on_c, 0, 59, 60
1, 51280, Note_on_c, 0, 63, 64
1, 51296, Note_on_c, 0, 53, 48
1, 51300, Note_on_c, 0, 81, 0
1, 51396, Note_on_c, 9, 51, 64
1, 51402, Note_on_c, 9, 29, 64
1, 51412, Note_on_c, 9, 51, 0
1, 51420, Note_on_c, 0, 84, 0
1, 51480, Note_on_c, 0, 83, 54
1, 51608, Note_on_c, 0, 83, 0
1, 51652, Note_on_c, 1, 44, 0
1, 51652, Note_on_c, 1, 43, 75
1, 51668, Note_on_c, 0, 80, 79
1, 51732, Note_on_c, 1, 43, 0
1, 51780, Note_on_c, 1, 35, 63
1, 51782, Note_on_c, 9, 51, 85
1, 51786, Note_on_c, 9, 44, 85
1, 51788, Note_on_c, 0, 59, 0
1, 51796, Note_on_c, 9, 51, 0
1, 51796, Note_on_c, 9, 51, 0
1, 51796, Note_on_c, 0, 63, 0
1, 51808, Note_on_c, 0, 80, 0
1, 51856, Note_on_c, 0, 53, 0
1, 51856, Note_on_c, 0, 79, 56
1, 51914, Note_on_c, 9, 44, 0
1, 52068, Note_on_c, 0, 77, 75
1, 52076, Note_on_c, 0, 79, 0
1, 52080, Note_on_c, 0, 57, 45
1, 52080, Note_on_c, 0, 62, 41
1, 52088, Note_on_c, 1, 34, 39
1, 52104, Note_on_c, 0, 52, 41
1, 52140, Note_on_c, 1, 34, 0
1, 52148, Note_on_c, 1, 35, 0
1, 52160, Note_on_c, 0, 77, 0
1, 52160, Note_on_c, 1, 36, 57
1, 52166, Note_on_c, 9, 59, 127
1, 52170, Note_on_c, 9, 29, 0
1, 52172, Note_on_c, 9, 57, 19
1, 52180, Note_on_c, 9, 51, 0
1, 52232, Note_on_c, 0, 76, 48
1, 52244, Note_on_c, 9, 59, 0
1, 52260, Note_on_c, 9, 35, 40
1, 52284, Note_on_c, 9, 35, 0
1, 52356, Note_on_c, 0, 76, 0
1, 52392, Note_on_c, 0, 77, 57
1, 52432, Note_on_c, 0, 77, 0
1, 52444, Note_on_c, 0, 76, 68
1, 52448, Note_on_c, 1, 34, 48
1, 52508, Note_on_c, 1, 36, 0
1, 52540, Note_on_c, 0, 76, 0
1, 52544, Note_on_c, 0, 75, 54
1, 52544, Note_on_c, 1, 46, 68
1, 52550, Note_on_c, 9, 59, 64
1, 52552, Note_on_c, 1, 34, 0
1, 52554, Note_on_c, 9, 44, 91
1, 52584, Note_on_c, 0, 75, 0
1, 52592, Note_on_c, 0, 57, 0
1, 52612, Note_on_c, 0, 76, 60
1, 52624, Note_on_c, 0, 62, 0
1, 52672, Note_on_c, 0, 52, 0
1, 52692, Note_on_c, 9, 44, 0
1, 52792, Note_on_c, 0, 76, 0
1, 52840, Note_on_c, 0, 84, 92
1, 52844, Note_on_c, 1, 36, 32
1, 52876, Note_on_c, 9, 59, 0
1, 52884, Note_on_c, 1, 36, 0
1, 52904, Note_on_c, 1, 46, 0
1, 52934, Note_on_c, 9, 59, 98
1, 52940, Note_on_c, 1, 45, 44
1, 52960, Note_on_c, 0, 84, 0
1, 53004, Note_on_c, 9, 57, 0
1, 53012, Note_on_c, 1, 45, 0
1, 53012, Note_on_c, 0, 73, 50
1, 53184, Note_on_c, 1, 40, 63
1, 53192, Note_on_c, 0, 73, 0
1, 53254, Note_on_c, 9, 59, 0
1, 53256, Note_on_c, 1, 40, 0
1, 53304, Note_on_c, 0, 65, 39
1, 53308, Note_on_c, 0, 61, 46
1, 53312, Note_on_c, 0, 55, 40
1, 53312, Note_on_c, 1, 37, 56
1, 53318, Note_on_c, 9, 59, 59
1, 53322, Note_on_c, 9, 44, 98
1, 53434, Note_on_c, 9, 44, 0
1, 53484, Note_on_c, 0, 55, 0
1, 53492, Note_on_c, 0, 65, 0
1, 53532, Note_on_c, 9, 59, 0
1, 53564, Note_on_c, 0, 61, 0
1, 53574, Note_on_c, 9, 59, 75
1, 53584, Note_on_c, 1, 34, 41
1, 53596, Note_on_c, 9, 35, 28
1, 53642, Note_on_c, 9, 59, 0
1, 53654, Note_on_c, 9, 35, 0
1, 53660, Note_on_c, 1, 37, 0
1, 53684, Note_on_c, 1, 34, 0
1, 53692, Note_on_c, 1, 38, 55
1, 53702, Note_on_c, 9, 59, 66
1, 53716, Note_on_c, 9, 35, 24
1, 53898, Note_on_c, 9, 35, 0
1, 53960, Note_on_c, 1, 37, 48
1, 53980, Note_on_c, 0, 64, 55
1, 53990, Note_on_c, 9, 59, 0
1, 53992, Note_on_c, 0, 57, 50
1, 53994, Note_on_c, 0, 60, 39
1, 53994, Note_on_c, 9, 35, 31
1, 54004, Note_on_c, 1, 38, 0
1, 54020, Note_on_c, 0, 64, 0
1, 54026, Note_on_c, 9, 35, 0
1, 54056, Note_on_c, 0, 60, 0
1, 54056, Note_on_c, 1, 48, 73
1, 54060, Note_on_c, 1, 37, 0
1, 54076, Note_on_c, 0, 57, 0
1, 54086, Note_on_c, 9, 59, 64
1, 54090, Note_on_c, 9, 44, 84
1, 54112, Note_on_c, 0, 74, 43
1, 54236, Note_on_c, 9, 44, 0
1, 54268, Note_on_c, 9, 59, 0
1, 54304, Note_on_c, 0, 74, 0
1, 54342, Note_on_c, 9, 59, 82
1, 54352, Note_on_c, 0, 76, 117
1, 54364, Note_on_c, 0, 64, 72
1, 54368, Note_on_c, 0, 59, 68
1, 54372, Note_on_c, 0, 53, 56
1, 54376, Note_on_c, 0, 74, 44
1, 54404, Note_on_c, 0, 74, 0
1, 54406, Note_on_c, 9, 59, 0
1, 54408, Note_on_c, 1, 48, 0
1, 54448, Note_on_c, 1, 47, 64
1, 54470, Note_on_c, 9, 59, 47
1, 54488, Note_on_c, 0, 76, 0
1, 54544, Note_on_c, 0, 77, 82
1, 54632, Note_on_c, 0, 59, 0
1, 54684, Note_on_c, 0, 77, 0
1, 54698, Note_on_c, 9, 59, 0
1, 54712, Note_on_c, 0, 59, 43
1, 54720, Control_c, 0, 64, 127
1, 54726, Note_on_c, 9, 53, 64
1, 54728, Note_on_c, 0, 79, 79
1, 54728, Note_on_c, 1, 39, 55
1, 54736, Note_on_c, 0, 67, 71
1, 54748, Control_c, 0, 64, 0
1, 54756, Note_on_c, 1, 47, 0
1, 54760, Note_on_c, 0, 77, 35
1, 54788, Note_on_c, 1, 39, 0
1, 54796, Note_on_c, 0, 77, 0
1, 54796, Note_on_c, 0, 67, 0
1, 54806, Note_on_c, 9, 53, 0
1, 54808, Note_on_c, 0, 79, 0
1, 54812, Note_on_c, 0, 64, 0
1, 54824, Note_on_c, 1, 45, 61
1, 54854, Note_on_c, 9, 59, 78
1, 54858, Note_on_c, 9, 44, 91
1, 54876, Note_on_c, 0, 69, 61
1, 54876, Note_on_c, 0, 81, 61
1, 54880, Note_on_c, 0, 53, 0
1, 54892, Control_c, 0, 64, 127
1, 54896, Note_on_c, 0, 59, 0
1, 54952, Note_on_c, 0, 69, 0
1, 54952, Note_on_c, 0, 81, 0
1, 54968, Note_on_c, 0, 80, 41
1, 55000, Note_on_c, 0, 80, 0
1, 55002, Note_on_c, 9, 44, 0
1, 55002, Note_on_c, 9, 34, 66
1, 55040, Note_on_c, 9, 34, 0
1, 55116, Note_on_c, 0, 82, 90
1, 55116, Note_on_c, 0, 70, 87
1, 55140, Control_c, 0, 64, 0
1, 55180, Note_on_c, 9, 59, 0
1, 55188, Note_on_c, 1, 45, 0
1, 55216, Note_on_c, 1, 43, 56
1, 55220, Note_on_c, 0, 70, 0
1, 55236, Note_on_c, 0, 82, 0
1, 55238, Note_on_c, 9, 59, 84
1, 55336, Note_on_c, 0, 83, 72
1, 55336, Note_on_c, 0, 71, 76
1, 55344, Note_on_c, 0, 62, 57
1, 55352, Note_on_c, 0, 57, 56
1, 55364, Note_on_c, 0, 52, 45
1, 55464, Note_on_c, 0, 71, 0
1, 55500, Note_on_c, 0, 83, 0
1, 55528, Note_on_c, 0, 71, 52
1, 55562, Note_on_c, 9, 59, 0
1, 55592, Note_on_c, 0, 83, 36
1, 55600, Note_on_c, 0, 71, 0
1, 55600, Note_on_c, 1, 36, 66
1, 55622, Note_on_c, 9, 59, 75
1, 55626, Note_on_c, 9, 44, 99
1, 55644, Note_on_c, 9, 35, 17
1, 55652, Note_on_c, 1, 43, 0
1, 55680, Note_on_c, 0, 71, 45
1, 55692, Note_on_c, 0, 57, 0
1, 55692, Note_on_c, 0, 83, 0
1, 55704, Control_c, 0, 64, 127
1, 55724, Note_on_c, 0, 52, 0
1, 55728, Note_on_c, 0, 62, 0
1, 55748, Note_on_c, 9, 44, 0
1, 55784, Note_on_c, 0, 71, 0
1, 55784, Note_on_c, 0, 83, 46
1, 55798, Note_on_c, 9, 35, 0
1, 55830, Note_on_c, 9, 59, 0
1, 55876, Note_on_c, 9, 59, 75
1, 55894, Note_on_c, 9, 35, 26
1, 55900, Note_on_c, 0, 71, 37
1, 55926, Note_on_c, 9, 35, 0
1, 55930, Note_on_c, 9, 59, 0
1, 55940, Note_on_c, 0, 83, 0
1, 55948, Control_c, 0, 64, 0
1, 55960, Note_on_c, 0, 71, 0
1, 56000, Note_on_c, 0, 79, 68
1, 56000, Note_on_c, 1, 34, 70
1, 56004, Note_on_c, 1, 36, 0
1, 56006, Note_on_c, 9, 59, 87
1, 56012, Note_on_c, 0, 67, 56
1, 56020, Note_on_c, 0, 56, 52
1, 56040, Note_on_c, 0, 62, 46
1, 56220, Note_on_c, 0, 67, 0
1, 56228, Note_on_c, 0, 79, 0
1, 56236, Note_on_c, 0, 62, 0
1, 56284, Note_on_c, 0, 67, 45
1, 56284, Note_on_c, 0, 79, 54
1, 56304, Note_on_c, 0, 62, 38
1, 56308, Note_on_c, 0, 79, 0
1, 56310, Note_on_c, 9, 59, 0
1, 56320, Note_on_c, 1, 36, 38
1, 56332, Note_on_c, 0, 67, 0
1, 56340, Note_on_c, 0, 62, 0
1, 56364, Note_on_c, 1, 36, 0
1, 56384, Note_on_c, 1, 46, 77
1, 56388, Note_on_c, 0, 56, 0
1, 56390, Note_on_c, 9, 59, 73
1, 56394, Note_on_c, 9, 44, 96
1, 56424, Note_on_c, 1, 34, 0
1, 56564, Note_on_c, 9, 44, 0
1, 56614, Note_on_c, 9, 59, 0
1, 56646, Note_on_c, 9, 59, 75
1, 56650, Note_on_c, 9, 35, 24
1, 56656, Note_on_c, 0, 61, 56
1, 56660, Note_on_c, 0, 60, 57
1, 56672, Note_on_c, 0, 65, 57
1, 56680, Note_on_c, 0, 55, 54
1, 56692, Note_on_c, 9, 35, 0
1, 56698, Note_on_c, 9, 59, 0
1, 56704, Note_on_c, 0, 58, 25
1, 56748, Note_on_c, 1, 46, 0
1, 56768, Note_on_c, 1, 45, 62
1, 56772, Note_on_c, 9, 35, 33
1, 56774, Note_on_c, 9, 59, 77
1, 56972, Note_on_c, 9, 35, 0
1, 57046, Note_on_c, 9, 35, 36
1, 57068, Note_on_c, 9, 59, 0
1, 57072, Note_on_c, 9, 35, 0
1, 57128, Note_on_c, 0, 65, 0
1, 57132, Note_on_c, 1, 45, 0
1, 57144, Note_on_c, 1, 40, 62
1, 57158, Note_on_c, 9, 59, 87
1, 57162, Note_on_c, 9, 44, 98
1, 57216, Note_on_c, 0, 60, 0
1, 57228, Note_on_c, 0, 55, 0
1, 57240, Note_on_c, 0, 58, 0
1, 57248, Note_on_c, 0, 61, 0
1, 57322, Note_on_c, 9, 44, 0
1, 57372, Note_on_c, 9, 59, 0
1, 57414, Note_on_c, 9, 59, 70
1, 57424, Note_on_c, 0, 61, 48
1, 57428, Note_on_c, 0, 65, 52
1, 57436, Note_on_c, 0, 60, 47
1, 57444, Note_on_c, 0, 55, 45
1, 57450, Note_on_c, 9, 59, 0
1, 57488, Note_on_c, 0, 58, 20
1, 57540, Note_on_c, 1, 32, 57
1, 57542, Note_on_c, 9, 59, 75
1, 57600, Note_on_c, 1, 40, 0
1, 57722, Note_on_c, 9, 59, 0
1, 57798, Note_on_c, 9, 59, 77
1, 57816, Note_on_c, 0, 91, 120
1, 57820, Note_on_c, 9, 59, 0
1, 57848, Note_on_c, 0, 90, 44
1, 57868, Note_on_c, 0, 65, 0
1, 57868, Note_on_c, 1, 32, 0
1, 57880, Note_on_c, 0, 90, 0
1, 57900, Note_on_c, 1, 33, 68
1, 57924, Note_on_c, 9, 51, 59
1, 57926, Note_on_c, 9, 59, 112
1, 57930, Note_on_c, 9, 46, 42
1, 57942, Note_on_c, 9, 51, 0
1, 57948, Note_on_c, 0, 60, 0
1, 57968, Note_on_c, 0, 61, 0
1, 57996, Note_on_c, 0, 91, 0
1, 58008, Note_on_c, 0, 55, 0
1, 58012, Note_on_c, 0, 58, 0
1, 58042, Note_on_c, 9, 46, 0
1, 58072, Note_on_c, 0, 90, 87
1, 58140, Note_on_c, 9, 59, 0
1, 58156, Note_on_c, 9, 51, 70
1, 58204, Note_on_c, 9, 51, 0
1, 58208, Note_on_c, 0, 90, 0
1, 58256, Note_on_c, 1, 33, 0
1, 58276, Note_on_c, 0, 60, 51
1, 58276, Note_on_c, 0, 88, 48
1, 58276, Note_on_c, 0, 54, 49
1, 58280, Note_on_c, 1, 38, 60
1, 58284, Note_on_c, 0, 64, 41
1, 58284, Note_on_c, 0, 89, 54
1, 58310, Note_on_c, 0, 89, 0
1, 58310, Note_on_c, 9, 59, 99
1, 58332, Note_on_c, 0, 88, 0
1, 58404, Note_on_c, 9, 35, 40
1, 58428, Note_on_c, 9, 35, 0
1, 58552, Note_on_c, 1, 33, 57
1, 58568, Note_on_c, 0, 84, 85
1, 58596, Note_on_c, 1, 38, 0
1, 58602, Note_on_c, 9, 59, 0
1, 58636, Note_on_c, 1, 33, 0
1, 58656, Note_on_c, 1, 45, 71
1, 58680, Note_on_c, 0, 84, 0
1, 58694, Note_on_c, 9, 59, 64
1, 58698, Note_on_c, 9, 44, 91
1, 58708, Note_on_c, 0, 64, 0
1, 58816, Note_on_c, 0, 81, 81
1, 58828, Note_on_c, 0, 54, 0
1, 58836, Note_on_c, 9, 44, 0
1, 58840, Note_on_c, 0, 60, 0
1, 58888, Note_on_c, 0, 81, 0
1, 58976, Note_on_c, 0, 54, 32
1, 58976, Note_on_c, 0, 60, 36
1, 58996, Note_on_c, 0, 77, 26
1, 58996, Note_on_c, 1, 36, 38
1, 59016, Note_on_c, 1, 45, 0
1, 59020, Note_on_c, 9, 59, 0
1, 59036, Note_on_c, 0, 77, 0
1, 59036, Note_on_c, 1, 36, 0
1, 59060, Note_on_c, 1, 53, 71
1, 59078, Note_on_c, 9, 59, 98
1, 59120, Note_on_c, 0, 72, 43
1, 59132, Note_on_c, 0, 54, 0
1, 59208, Note_on_c, 0, 60, 0
1, 59268, Note_on_c, 0, 72, 0
1, 59344, Note_on_c, 0, 69, 36
1, 59360, Note_on_c, 0, 54, 42
1, 59368, Note_on_c, 0, 64, 31
1, 59368, Note_on_c, 0, 60, 39
1, 59384, Note_on_c, 0, 69, 0
1, 59398, Note_on_c, 9, 59, 0
1, 59404, Note_on_c, 1, 53, 0
1, 59432, Note_on_c, 0, 64, 0
1, 59448, Note_on_c, 1, 44, 65
1, 59462, Note_on_c, 9, 59, 59
1, 59466, Note_on_c, 9, 44, 98
1, 59578, Note_on_c, 9, 44, 0
1, 59588, Note_on_c, 0, 54, 0
1, 59592, Note_on_c, 0, 60, 0
1, 59676, Note_on_c, 9, 59, 0
1, 59696, Note_on_c, 1, 42, 43
1, 59718, Note_on_c, 9, 59, 75
1, 59728, Note_on_c, 1, 42, 0
1, 59736, Note_on_c, 0, 60, 42
1, 59740, Note_on_c, 9, 35, 28
1, 59744, Note_on_c, 0, 64, 40
1, 59752, Note_on_c, 0, 53, 35
1, 59760, Note_on_c, 0, 57, 37
1, 59786, Note_on_c, 9, 59, 0
1, 59798, Note_on_c, 9, 35, 0
1, 59836, Note_on_c, 1, 43, 63
1, 59846, Note_on_c, 9, 59, 66
1, 59860, Note_on_c, 9, 35, 24
1, 59884, Note_on_c, 1, 44, 0
1, 60020, Note_on_c, 0, 64, 0
1, 60032, Note_on_c, 0, 60, 0
1, 60042, Note_on_c, 9, 35, 0
1, 60064, Note_on_c, 0, 57, 0
1, 60112, Note_on_c, 0, 60, 43
1, 60134, Note_on_c, 9, 59, 0
1, 60138, Note_on_c, 9, 35, 31
1, 60140, Note_on_c, 0, 57, 22
1, 60170, Note_on_c, 9, 35, 0
1, 60200, Note_on_c, 0, 60, 0
1, 60216, Note_on_c, 0, 75, 50
1, 60220, Note_on_c, 1, 37, 65
1, 60224, Note_on_c, 1, 43, 0
1, 60230, Note_on_c, 9, 59, 64
1, 60234, Note_on_c, 9, 44, 84
1, 60264, Note_on_c, 0, 53, 0
1, 60272, Note_on_c, 0, 75, 0
1, 60316, Note_on_c, 0, 57, 0
1, 60368, Note_on_c, 0, 76, 57
1, 60380, Note_on_c, 9, 44, 0
1, 60412, Note_on_c, 9, 59, 0
1, 60424, Note_on_c, 0, 76, 0
1, 60484, Note_on_c, 0, 77, 96
1, 60486, Note_on_c, 9, 59, 82
1, 60550, Note_on_c, 9, 59, 0
1, 60588, Note_on_c, 0, 77, 0
1, 60604, Note_on_c, 0, 59, 50
1, 60604, Note_on_c, 1, 38, 67
1, 60608, Note_on_c, 1, 37, 0
1, 60614, Note_on_c, 0, 64, 35
1, 60614, Note_on_c, 9, 59, 47
1, 60632, Note_on_c, 0, 53, 32
1, 60644, Note_on_c, 0, 76, 52
1, 60700, Note_on_c, 0, 76, 0
1, 60720, Note_on_c, 0, 64, 0
1, 60720, Note_on_c, 0, 77, 60
1, 60740, Note_on_c, 0, 59, 0
1, 60808, Note_on_c, 0, 76, 50
1, 60842, Note_on_c, 9, 59, 0
1, 60844, Note_on_c, 0, 77, 0
1, 60870, Note_on_c, 9, 53, 64
1, 60876, Note_on_c, 0, 76, 0
1, 60880, Note_on_c, 0, 72, 57
1, 60916, Note_on_c, 0, 72, 0
1, 60928, Note_on_c, 0, 59, 43
1, 60950, Note_on_c, 9, 53, 0
1, 60956, Note_on_c, 1, 38, 0
1, 60956, Note_on_c, 0, 67, 63
1, 60968, Note_on_c, 1, 35, 69
1, 60998, Note_on_c, 9, 59, 78
1, 61002, Note_on_c, 9, 44, 91
1, 61020, Note_on_c, 0, 67, 0
1, 61068, Note_on_c, 0, 65, 56
1, 61100, Note_on_c, 0, 53, 0
1, 61146, Note_on_c, 9, 44, 0
1, 61146, Note_on_c, 9, 34, 66
1, 61184, Note_on_c, 9, 34, 0
1, 61228, Note_on_c, 0, 59, 0
1, 61268, Note_on_c, 0, 65, 0
1, 61288, Note_on_c, 0, 63, 63
1, 61292, Note_on_c, 0, 59, 30
1, 61316, Note_on_c, 0, 52, 40
1, 61320, Note_on_c, 1, 35, 0
1, 61324, Note_on_c, 9, 59, 0
1, 61344, Note_on_c, 1, 36, 63
1, 61376, Note_on_c, 0, 63, 0
1, 61382, Note_on_c, 9, 59, 84
1, 61400, Note_on_c, 0, 59, 0
1, 61456, Note_on_c, 0, 64, 36
1, 61572, Note_on_c, 0, 64, 0
1, 61660, Note_on_c, 0, 67, 62
1, 61660, Note_on_c, 0, 62, 37
1, 61668, Note_on_c, 0, 59, 44
1, 61696, Note_on_c, 0, 52, 0
1, 61706, Note_on_c, 9, 59, 0
1, 61712, Note_on_c, 1, 36, 0
1, 61720, Note_on_c, 0, 67, 0
1, 61740, Note_on_c, 0, 59, 0
1, 61744, Note_on_c, 0, 62, 0
1, 61756, Note_on_c, 1, 36, 71
1, 61766, Note_on_c, 9, 59, 75
1, 61770, Note_on_c, 9, 44, 99
1, 61772, Note_on_c, 0, 69, 78
1, 61788, Note_on_c, 9, 35, 17
1, 61892, Note_on_c, 9, 44, 0
1, 61942, Note_on_c, 9, 35, 0
1, 61974, Note_on_c, 9, 59, 0
1, 62016, Note_on_c, 0, 69, 0
1, 62020, Note_on_c, 9, 59, 75
1, 62038, Note_on_c, 9, 35, 26
1, 62052, Note_on_c, 0, 67, 45
1, 62070, Note_on_c, 9, 35, 0
1, 62074, Note_on_c, 9, 59, 0
1, 62104, Note_on_c, 0, 67, 0
1, 62116, Note_on_c, 1, 36, 0
1, 62132, Note_on_c, 1, 39, 65
1, 62132, Note_on_c, 1, 55, 68
1, 62150, Note_on_c, 9, 59, 87
1, 62172, Note_on_c, 0, 65, 48
1, 62172, Note_on_c, 0, 61, 50
1, 62172, Note_on_c, 0, 55, 43
1, 62184, Note_on_c, 0, 72, 57
1, 62364, Note_on_c, 0, 65, 0
1, 62372, Note_on_c, 0, 72, 0
1, 62376, Note_on_c, 0, 61, 0
1, 62428, Note_on_c, 0, 72, 75
1, 62444, Note_on_c, 0, 61, 48
1, 62444, Note_on_c, 0, 65, 43
1, 62454, Note_on_c, 9, 59, 0
1, 62534, Note_on_c, 9, 59, 73
1, 62538, Note_on_c, 9, 44, 96
1, 62540, Note_on_c, 0, 72, 0
1, 62584, Note_on_c, 0, 69, 39
1, 62588, Note_on_c, 0, 65, 0
1, 62680, Note_on_c, 0, 55, 0
1, 62708, Note_on_c, 9, 44, 0
1, 62758, Note_on_c, 9, 59, 0
1, 62760, Note_on_c, 0, 61, 0
1, 62780, Note_on_c, 0, 69, 0
1, 62790, Note_on_c, 9, 59, 75
1, 62794, Note_on_c, 9, 35, 24
1, 62800, Note_on_c, 1, 37, 43
1, 62824, Note_on_c, 0, 60, 54
1, 62828, Note_on_c, 0, 72, 81
1, 62832, Note_on_c, 0, 64, 52
1, 62836, Note_on_c, 9, 35, 0
1, 62836, Note_on_c, 0, 53, 44
1, 62840, Note_on_c, 0, 57, 44
1, 62842, Note_on_c, 9, 59, 0
1, 62892, Note_on_c, 1, 39, 0
1, 62900, Note_on_c, 1, 37, 0
1, 62912, Note_on_c, 1, 38, 57
1, 62916, Note_on_c, 9, 35, 33
1, 62918, Note_on_c, 9, 59, 77
1, 62948, Control_c, 0, 64, 127
1, 63104, Note_on_c, 0, 64, 0
1, 63108, Note_on_c, 0, 60, 0
1, 63116, Note_on_c, 9, 35, 0
1, 63168, Note_on_c, 0, 72, 0
1, 63190, Note_on_c, 9, 35, 36
1, 63212, Note_on_c, 9, 59, 0
1, 63212, Note_on_c, 0, 65, 61
1, 63216, Note_on_c, 9, 35, 0
1, 63240, Note_on_c, 1, 55, 0
1, 63240, Control_c, 0, 64, 0
1, 63252, Note_on_c, 0, 65, 0
1, 63276, Note_on_c, 1, 54, 54
1, 63280, Note_on_c, 1, 38, 0
1, 63280, Note_on_c, 1, 32, 56
1, 63302, Note_on_c, 9, 59, 87
1, 63306, Note_on_c, 9, 44, 98
1, 63364, Note_on_c, 0, 57, 0
1, 63400, Note_on_c, 0, 53, 0
1, 63466, Note_on_c, 9, 44, 0
1, 63468, Note_on_c, 0, 67, 59
1, 63504, Note_on_c, 0, 67, 0
1, 63516, Note_on_c, 9, 59, 0
1, 63544, Note_on_c, 1, 38, 52
1, 63558, Note_on_c, 9, 59, 70
1, 63568, Note_on_c, 0, 69, 70
1, 63592, Note_on_c, 1, 32, 0
1, 63594, Note_on_c, 9, 59, 0
1, 63616, Note_on_c, 1, 54, 0
1, 63636, Note_on_c, 0, 69, 0
1, 63648, Note_on_c, 1, 38, 0
1, 63656, Note_on_c, 1, 31, 58
1, 63668, Note_on_c, 1, 53, 48
1, 63684, Note_on_c, 0, 64, 34
1, 63686, Note_on_c, 0, 72, 68
1, 63686, Note_on_c, 0, 59, 47
1, 63686, Note_on_c, 9, 59, 75
1, 63728, Note_on_c, 0, 64, 0
1, 63756, Note_on_c, 0, 72, 0
1, 63772, Note_on_c, 0, 59, 0
1, 63836, Note_on_c, 0, 74, 70
1, 63866, Note_on_c, 9, 59, 0
1, 63912, Note_on_c, 0, 74, 0
1, 63942, Note_on_c, 9, 59, 77
1, 63952, Note_on_c, 1, 34, 61
1, 63964, Note_on_c, 9, 59, 0
1, 63964, Note_on_c, 0, 75, 83
1, 63976, Note_on_c, 0, 63, 56
1, 63984, Note_on_c, 0, 53, 52
1, 63988, Note_on_c, 1, 31, 0
1, 63988, Note_on_c, 0, 59, 50
1, 64036, Note_on_c, 0, 75, 0
1, 64036, Note_on_c, 1, 34, 0
1, 64048, Note_on_c, 1, 35, 62
1, 64052, Note_on_c, 0, 63, 0
1, 64068, Note_on_c, 9, 51, 59
1, 64070, Note_on_c, 9, 59, 112
1, 64074, Note_on_c, 9, 46, 42
1, 64086, Note_on_c, 9, 51, 0
1, 64108, Note_on_c, 0, 76, 74
1, 64168, Note_on_c, 0, 59, 0
1, 64180, Note_on_c, 0, 76, 0
1, 64184, Note_on_c, 0, 53, 0
1, 64186, Note_on_c, 9, 46, 0
1, 64220, Note_on_c, 0, 77, 69
1, 64272, Note_on_c, 0, 77, 0
1, 64284, Note_on_c, 9, 59, 0
1, 64300, Note_on_c, 9, 51, 70
1, 64328, Note_on_c, 1, 34, 39
1, 64336, Note_on_c, 0, 78, 89
1, 64348, Note_on_c, 9, 51, 0
1, 64356, Note_on_c, 0, 62, 61
1, 64364, Note_on_c, 0, 59, 41
1, 64384, Note_on_c, 0, 55, 45
1, 64392, Note_on_c, 0, 52, 34
1, 64412, Note_on_c, 1, 53, 0
1, 64424, Note_on_c, 0, 78, 0
1, 64424, Note_on_c, 1, 34, 0
1, 64432, Note_on_c, 1, 35, 0
1, 64440, Note_on_c, 1, 36, 47
1, 64454, Note_on_c, 9, 59, 99
1, 64460, Note_on_c, 0, 79, 82
1, 64474, Note_on_c, 9, 35, 22
1, 64480, Note_on_c, 1, 52, 30
1, 64504, Note_on_c, 0, 62, 0
1, 64512, Note_on_c, 9, 35, 0
1, 64516, Note_on_c, 1, 52, 0
1, 64516, Note_on_c, 0, 59, 0
1, 64540, Note_on_c, 0, 79, 0
1, 64600, Note_on_c, 0, 75, 79
1, 64604, Note_on_c, 0, 55, 0
1, 64620, Note_on_c, 0, 73, 39
1, 64652, Note_on_c, 0, 73, 0
1, 64672, Note_on_c, 0, 75, 0
1, 64672, Note_on_c, 0, 76, 72
1, 64700, Note_on_c, 1, 32, 61
1, 64732, Note_on_c, 0, 59, 22
1, 64736, Note_on_c, 1, 36, 0
1, 64746, Note_on_c, 9, 59, 0
1, 64752, Note_on_c, 0, 76, 0
1, 64792, Note_on_c, 0, 59, 0
1, 64808, Note_on_c, 1, 34, 68
1, 64812, Note_on_c, 1, 32, 0
1, 64822, Note_on_c, 9, 35, 36
1, 64824, Note_on_c, 0, 52, 0
1, 64824, Note_on_c, 0, 72, 75
1, 64838, Note_on_c, 9, 59, 73
1, 64842, Note_on_c, 9, 44, 70
1, 64928, Note_on_c, 0, 72, 0
1, 64964, Note_on_c, 0, 69, 48
1, 65000, Note_on_c, 0, 69, 0
1, 65012, Note_on_c, 9, 44, 0
1, 65036, Note_on_c, 9, 35, 0
1, 65052, Note_on_c, 9, 59, 0
1, 65084, Note_on_c, 1, 32, 55
1, 65094, Note_on_c, 9, 59, 56
1, 65096, Note_on_c, 0, 72, 76
1, 65108, Note_on_c, 0, 64, 52
1, 65108, Note_on_c, 0, 60, 54
1, 65116, Note_on_c, 0, 59, 43
1, 65152, Note_on_c, 1, 34, 0
1, 65164, Note_on_c, 9, 59, 0
1, 65200, Note_on_c, 1, 32, 0
1, 65220, Note_on_c, 1, 33, 67
1, 65222, Note_on_c, 9, 59, 82
1, 65264, Note_on_c, 0, 72, 0
1, 65284, Note_on_c, 0, 74, 54
1, 65356, Note_on_c, 0, 72, 49
1, 65376, Note_on_c, 0, 74, 0
1, 65382, Note_on_c, 9, 59, 0
1, 65464, Note_on_c, 1, 32, 52
1, 65472, Note_on_c, 0, 69, 54
1, 65478, Note_on_c, 9, 59, 75
1, 65480, Note_on_c, 0, 72, 0
1, 65482, Note_on_c, 9, 35, 24
1, 65488, Note_on_c, 0, 64, 0
1, 65498, Note_on_c, 9, 59, 0
1, 65500, Note_on_c, 1, 33, 0
1, 65504, Note_on_c, 9, 35, 0
1, 65524, Note_on_c, 0, 69, 0
1, 65548, Note_on_c, 1, 38, 18
1, 65556, Note_on_c, 1, 32, 0
1, 65560, Note_on_c, 0, 59, 0
1, 65572, Note_on_c, 0, 60, 0
1, 65588, Note_on_c, 0, 72, 75
1, 65600, Note_on_c, 1, 45, 60
1, 65604, Note_on_c, 9, 35, 54
1, 65606, Note_on_c, 9, 59, 124
1, 65610, Note_on_c, 9, 44, 82
1, 65636, Note_on_c, 1, 38, 0
1, 65656, Control_c, 0, 64, 127
1, 65676, Note_on_c, 0, 72, 0
1, 65764, Note_on_c, 9, 44, 0
1, 65814, Note_on_c, 9, 35, 0
1, 65836, Control_c, 0, 64, 0
1, 65844, Note_on_c, 0, 65, 70
1, 65860, Note_on_c, 9, 35, 54
1, 65864, Note_on_c, 1, 38, 55
1, 65884, Note_on_c, 9, 59, 0
1, 65908, Note_on_c, 0, 65, 0
1, 65920, Note_on_c, 1, 45, 0
1, 65930, Note_on_c, 9, 35, 0
1, 65984, Note_on_c, 1, 50, 73
1, 65988, Note_on_c, 1, 38, 0
1, 65990, Note_on_c, 9, 59, 91
1, 66112, Note_on_c, 0, 60, 39
1, 66120, Note_on_c, 0, 74, 81
1, 66124, Note_on_c, 0, 65, 66
1, 66136, Note_on_c, 0, 69, 65
1, 66244, Note_on_c, 0, 65, 0
1, 66248, Note_on_c, 0, 69, 0
1, 66248, Note_on_c, 1, 38, 51
1, 66284, Note_on_c, 9, 59, 0
1, 66300, Note_on_c, 1, 38, 0
1, 66336, Note_on_c, 0, 74, 0
1, 66340, Note_on_c, 1, 50, 0
1, 66344, Note_on_c, 0, 60, 0
1, 66364, Note_on_c, 1, 45, 57
1, 66374, Note_on_c, 9, 59, 78
1, 66378, Note_on_c, 9, 44, 91
1, 66380, Note_on_c, 0, 61, 64
1, 66384, Note_on_c, 0, 76, 71
1, 66392, Note_on_c, 0, 69, 66
1, 66404, Note_on_c, 0, 65, 56
1, 66420, Note_on_c, 0, 74, 35
1, 66424, Control_c, 0, 64, 127
1, 66496, Note_on_c, 0, 69, 0
1, 66500, Note_on_c, 9, 44, 0
1, 66512, Note_on_c, 0, 65, 0
1, 66582, Note_on_c, 9, 59, 0
1, 66584, Note_on_c, 0, 76, 0
1, 66596, Control_c, 0, 64, 0
1, 66600, Note_on_c, 0, 74, 0
1, 66616, Note_on_c, 0, 61, 0
1, 66630, Note_on_c, 9, 59, 82
1, 66644, Note_on_c, 1, 38, 51
1, 66656, Note_on_c, 0, 77, 70
1, 66660, Note_on_c, 0, 72, 63
1, 66664, Note_on_c, 0, 69, 56
1, 66668, Note_on_c, 0, 62, 59
1, 66678, Note_on_c, 9, 59, 0
1, 66704, Note_on_c, 1, 38, 0
1, 66732, Note_on_c, 1, 45, 0
1, 66752, Note_on_c, 1, 43, 57
1, 66758, Note_on_c, 9, 59, 56
1, 66784, Note_on_c, 0, 72, 0
1, 66788, Note_on_c, 0, 77, 0
1, 66788, Note_on_c, 0, 69, 0
1, 66824, Control_c, 0, 64, 127
1, 66860, Note_on_c, 9, 34, 40
1, 66902, Note_on_c, 9, 34, 0
1, 66904, Note_on_c, 0, 62, 0
1, 66908, Note_on_c, 0, 79, 72
1, 66916, Note_on_c, 0, 74, 72
1, 66924, Note_on_c, 0, 64, 58
1, 66966, Note_on_c, 9, 59, 0
1, 67002, Note_on_c, 9, 35, 36
1, 67008, Note_on_c, 0, 74, 0
1, 67008, Note_on_c, 0, 79, 0
1, 67012, Note_on_c, 1, 38, 68
1, 67014, Note_on_c, 9, 59, 50
1, 67024, Note_on_c, 0, 64, 0
1, 67034, Note_on_c, 9, 35, 0
1, 67046, Note_on_c, 9, 59, 0
1, 67084, Note_on_c, 1, 43, 0
1, 67092, Note_on_c, 1, 38, 0
1, 67108, Control_c, 0, 64, 0
1, 67124, Note_on_c, 1, 35, 72
1, 67132, Note_on_c, 9, 34, 28
1, 67142, Note_on_c, 9, 59, 85
1, 67146, Note_on_c, 9, 44, 89
1, 67168, Note_on_c, 0, 81, 74
1, 67172, Control_c, 0, 64, 127
1, 67184, Note_on_c, 0, 59, 40
1, 67188, Note_on_c, 9, 34, 0
1, 67192, Note_on_c, 0, 71, 50
1, 67192, Note_on_c, 0, 60, 35
1, 67228, Note_on_c, 0, 60, 0
1, 67232, Note_on_c, 0, 59, 0
1, 67260, Note_on_c, 0, 81, 0
1, 67268, Note_on_c, 9, 44, 0
1, 67270, Note_on_c, 9, 35, 54
1, 67276, Note_on_c, 0, 71, 0
1, 67292, Note_on_c, 9, 35, 0
1, 67368, Control_c, 0, 64, 0
1, 67380, Note_on_c, 9, 34, 52
1, 67420, Note_on_c, 9, 34, 0
1, 67420, Note_on_c, 9, 59, 0
1, 67428, Note_on_c, 0, 59, 54
1, 67432, Note_on_c, 0, 83, 61
1, 67436, Note_on_c, 0, 53, 50
1, 67436, Note_on_c, 0, 63, 52
1, 67444, Note_on_c, 0, 76, 51
1, 67448, Note_on_c, 0, 79, 47
1, 67448, Note_on_c, 0, 71, 36
1, 67480, Note_on_c, 1, 35, 0
1, 67500, Note_on_c, 1, 36, 63
1, 67516, Control_c, 0, 64, 127
1, 67524, Note_on_c, 0, 59, 0
1, 67526, Note_on_c, 9, 59, 94
1, 67532, Note_on_c, 0, 71, 0
1, 67532, Note_on_c, 0, 76, 0
1, 67552, Note_on_c, 0, 79, 0
1, 67568, Note_on_c, 0, 63, 0
1, 67572, Note_on_c, 0, 53, 0
1, 67592, Note_on_c, 0, 83, 0
1, 67680, Note_on_c, 0, 84, 65
1, 67684, Note_on_c, 0, 62, 49
1, 67688, Note_on_c, 0, 72, 56
1, 67688, Note_on_c, 0, 79, 63
1, 67700, Note_on_c, 0, 52, 39
1, 67708, Note_on_c, 0, 57, 48
1, 67726, Note_on_c, 9, 38, 46
1, 67792, Note_on_c, 0, 72, 0
1, 67812, Note_on_c, 0, 79, 0
1, 67816, Note_on_c, 0, 57, 0
1, 67824, Note_on_c, 0, 52, 0
1, 67826, Note_on_c, 9, 38, 0
1, 67832, Note_on_c, 1, 36, 0
1, 67832, Note_on_c, 0, 62, 0
1, 67834, Note_on_c, 9, 59, 0
1, 67836, Note_on_c, 0, 84, 0
1, 67844, Control_c, 0, 64, 0
1, 67880, Note_on_c, 1, 36, 72
1, 67910, Note_on_c, 9, 59, 68
1, 67914, Note_on_c, 9, 44, 80
1, 67932, Control_c, 0, 64, 127
1, 67932, Note_on_c, 0, 52, 51
1, 67932, Note_on_c, 0, 86, 73
1, 67936, Note_on_c, 0, 62, 50
1, 67936, Note_on_c, 0, 81, 68
1, 67940, Note_on_c, 0, 74, 66
1, 67944, Note_on_c, 0, 57, 50
1, 67958, Note_on_c, 9, 38, 31
1, 67960, Note_on_c, 0, 52, 0
1, 67968, Note_on_c, 0, 57, 0
1, 68016, Note_on_c, 0, 74, 0
1, 68040, Note_on_c, 0, 62, 0
1, 68052, Note_on_c, 9, 44, 0
1, 68056, Note_on_c, 0, 86, 0
1, 68060, Note_on_c, 0, 81, 0
1, 68088, Note_on_c, 9, 38, 0
1, 68134, Note_on_c, 9, 59, 0
1, 68152, Control_c, 0, 64, 0
1, 68166, Note_on_c, 9, 59, 59
1, 68180, Note_on_c, 9, 38, 54
1, 68188, Note_on_c, 0, 56, 68
1, 68192, Note_on_c, 0, 67, 68
1, 68196, Note_on_c, 0, 88, 61
1, 68196, Note_on_c, 0, 76, 59
1, 68204, Note_on_c, 0, 84, 46
1, 68208, Note_on_c, 0, 62, 55
1, 68230, Note_on_c, 9, 59, 0
1, 68232, Note_on_c, 0, 86, 32
1, 68264, Control_c, 0, 64, 127
1, 68284, Note_on_c, 1, 34, 60
1, 68288, Note_on_c, 0, 76, 0
1, 68294, Note_on_c, 9, 59, 73
1, 68300, Note_on_c, 1, 36, 0
1, 68322, Note_on_c, 9, 38, 0
1, 68328, Note_on_c, 0, 67, 0
1, 68332, Note_on_c, 0, 84, 0
1, 68332, Note_on_c, 0, 88, 0
1, 68340, Note_on_c, 0, 56, 0
1, 68348, Note_on_c, 0, 86, 0
1, 68368, Note_on_c, 0, 62, 0
1, 68406, Note_on_c, 9, 38, 65
1, 68420, Note_on_c, 0, 89, 62
1, 68428, Note_on_c, 0, 86, 41
1, 68428, Note_on_c, 0, 77, 62
1, 68428, Note_on_c, 0, 56, 52
1, 68448, Note_on_c, 0, 67, 49
1, 68452, Note_on_c, 0, 62, 54
1, 68524, Note_on_c, 0, 77, 0
1, 68540, Note_on_c, 9, 35, 75
1, 68548, Note_on_c, 0, 67, 0
1, 68564, Note_on_c, 0, 86, 0
1, 68568, Note_on_c, 0, 62, 0
1, 68572, Note_on_c, 0, 89, 0
1, 68572, Note_on_c, 0, 56, 0
1, 68598, Note_on_c, 9, 38, 0
1, 68614, Note_on_c, 9, 59, 0
1, 68644, Note_on_c, 9, 35, 0
1, 68652, Note_on_c, 9, 38, 75
1, 68660, Note_on_c, 0, 91, 67
1, 68660, Note_on_c, 0, 56, 53
1, 68664, Note_on_c, 1, 34, 0
1, 68668, Note_on_c, 1, 40, 72
1, 68672, Note_on_c, 0, 67, 46
1, 68676, Note_on_c, 0, 88, 49
1, 68678, Note_on_c, 9, 59, 87
1, 68680, Note_on_c, 0, 79, 49
1, 68682, Note_on_c, 9, 44, 98
1, 68692, Note_on_c, 0, 62, 31
1, 68694, Note_on_c, 9, 35, 26
1, 68728, Note_on_c, 0, 62, 0
1, 68736, Note_on_c, 0, 67, 0
1, 68746, Note_on_c, 9, 35, 0
1, 68748, Note_on_c, 0, 79, 0
1, 68776, Note_on_c, 0, 88, 0
1, 68796, Note_on_c, 0, 91, 0
1, 68820, Note_on_c, 9, 44, 0
1, 68828, Note_on_c, 9, 38, 0
1, 68832, Note_on_c, 0, 56, 0
1, 68882, Note_on_c, 9, 38, 85
1, 68892, Note_on_c, 9, 59, 0
1, 68900, Control_c, 0, 64, 0
1, 68916, Note_on_c, 0, 93, 58
1, 68928, Note_on_c, 0, 81, 48
1, 68928, Note_on_c, 0, 55, 49
1, 68928, Note_on_c, 0, 65, 50
1, 68934, Note_on_c, 9, 59, 57
1, 68936, Note_on_c, 0, 61, 49
1, 68948, Note_on_c, 1, 37, 46
1, 68988, Note_on_c, 1, 39, 31
1, 69002, Note_on_c, 9, 59, 0
1, 69004, Note_on_c, 1, 40, 0
1, 69008, Note_on_c, 0, 93, 0
1, 69016, Note_on_c, 0, 81, 0
1, 69032, Note_on_c, 0, 55, 0
1, 69032, Control_c, 0, 64, 127
1, 69036, Note_on_c, 1, 39, 0
1, 69040, Note_on_c, 0, 65, 0
1, 69044, Note_on_c, 9, 38, 0
1, 69056, Note_on_c, 0, 61, 0
1, 69062, Note_on_c, 1, 37, 0
1, 69062, Note_on_c, 1, 45, 66
1, 69062, Note_on_c, 9, 59, 94
1, 69112, Note_on_c, 9, 38, 74
1, 69172, Note_on_c, 0, 94, 57
1, 69192, Note_on_c, 0, 82, 37
1, 69196, Note_on_c, 0, 61, 47
1, 69196, Note_on_c, 0, 55, 41
1, 69200, Note_on_c, 0, 65, 38
1, 69260, Note_on_c, 0, 65, 0
1, 69264, Note_on_c, 0, 55, 0
1, 69274, Note_on_c, 9, 59, 0
1, 69288, Note_on_c, 0, 82, 0
1, 69296, Note_on_c, 0, 61, 0
1, 69298, Note_on_c, 9, 38, 0
1, 69304, Note_on_c, 0, 94, 0
1, 69318, Note_on_c, 9, 59, 61
1, 69344, Note_on_c, 1, 39, 39
1, 69370, Note_on_c, 9, 59, 0
1, 69372, Control_c, 0, 64, 0
1, 69384, Note_on_c, 9, 38, 45
1, 69400, Note_on_c, 1, 39, 0
1, 69412, Note_on_c, 1, 45, 0
1, 69432, Note_on_c, 0, 61, 48
1, 69432, Note_on_c, 0, 96, 56
1, 69436, Note_on_c, 0, 55, 46
1, 69436, Note_on_c, 0, 84, 55
1, 69436, Note_on_c, 0, 64, 45
1, 69444, Control_c, 0, 64, 127
1, 69446, Note_on_c, 1, 49, 65
1, 69446, Note_on_c, 9, 59, 98
1, 69450, Note_on_c, 9, 44, 80
1, 69512, Note_on_c, 9, 38, 0
1, 69516, Note_on_c, 0, 55, 0
1, 69528, Note_on_c, 0, 64, 0
1, 69532, Note_on_c, 0, 84, 0
1, 69556, Note_on_c, 0, 61, 0
1, 69556, Note_on_c, 0, 96, 0
1, 69604, Note_on_c, 9, 44, 0
1, 69676, Control_c, 0, 64, 0
1, 69698, Note_on_c, 9, 38, 38
1, 69706, Note_on_c, 9, 35, 54
1, 69712, Note_on_c, 0, 98, 65
1, 69716, Note_on_c, 0, 61, 49
1, 69720, Note_on_c, 0, 86, 50
1, 69720, Note_on_c, 0, 55, 50
1, 69728, Note_on_c, 0, 64, 43
1, 69734, Note_on_c, 9, 59, 0
1, 69738, Note_on_c, 9, 35, 0
1, 69772, Note_on_c, 1, 49, 0
1, 69796, Control_c, 0, 64, 127
1, 69800, Note_on_c, 9, 38, 0
1, 69828, Note_on_c, 1, 52, 70
1, 69830, Note_on_c, 9, 59, 70
1, 69834, Note_on_c, 9, 35, 36
1, 69836, Note_on_c, 0, 86, 0
1, 69844, Note_on_c, 1, 49, 41
1, 69868, Note_on_c, 9, 35, 0
1, 69876, Note_on_c, 0, 98, 0
1, 69880, Note_on_c, 1, 49, 0
1, 69928, Note_on_c, 0, 55, 0
1, 69932, Note_on_c, 0, 64, 0
1, 69940, Note_on_c, 0, 61, 0
1, 69990, Note_on_c, 9, 38, 32
1, 70070, Note_on_c, 9, 59, 0
1, 70086, Note_on_c, 9, 59, 45
1, 70100, Note_on_c, 0, 61, 54
1, 70100, Note_on_c, 0, 55, 52
1, 70100, Note_on_c, 1, 42, 49
1, 70102, Note_on_c, 9, 38, 0
1, 70104, Note_on_c, 0, 64, 49
1, 70104, Note_on_c, 0, 99, 68
1, 70128, Note_on_c, 1, 42, 0
1, 70154, Note_on_c, 9, 59, 0
1, 70164, Note_on_c, 1, 52, 0
1, 70176, Control_c, 0, 64, 72
1, 70180, Control_c, 0, 64, 0
1, 70204, Note_on_c, 1, 49, 63
1, 70214, Note_on_c, 9, 59, 80
1, 70218, Note_on_c, 9, 44, 87
1, 70244, Note_on_c, 0, 99, 0
1, 70268, Note_on_c, 9, 38, 36
1, 70284, Note_on_c, 0, 55, 0
1, 70292, Note_on_c, 0, 64, 0
1, 70300, Note_on_c, 0, 100, 59
1, 70346, Note_on_c, 9, 44, 0
1, 70356, Note_on_c, 9, 35, 52
1, 70378, Note_on_c, 9, 35, 0
1, 70386, Note_on_c, 9, 38, 0
1, 70392, Note_on_c, 0, 61, 0
1, 70412, Note_on_c, 9, 59, 0
1, 70432, Note_on_c, 0, 100, 0
1, 70470, Note_on_c, 9, 59, 47
1, 70474, Note_on_c, 9, 35, 47
1, 70500, Note_on_c, 9, 35, 0
1, 70500, Note_on_c, 0, 64, 54
1, 70500, Note_on_c, 0, 54, 51
1, 70504, Note_on_c, 0, 60, 51
1, 70508, Note_on_c, 0, 103, 81
1, 70510, Note_on_c, 9, 38, 34
1, 70518, Note_on_c, 9, 59, 0
1, 70564, Note_on_c, 1, 49, 0
1, 70588, Note_on_c, 1, 50, 63
1, 70598, Note_on_c, 9, 59, 108
1, 70602, Note_on_c, 9, 38, 0
1, 70612, Note_on_c, 0, 103, 0
1, 70700, Note_on_c, 0, 99, 40
1, 70740, Note_on_c, 0, 60, 0
1, 70824, Note_on_c, 0, 99, 0
1, 70824, Note_on_c, 0, 100, 70
1, 70884, Note_on_c, 0, 100, 0
1, 70892, Note_on_c, 0, 60, 35
1, 70934, Note_on_c, 9, 59, 0
1, 70964, Note_on_c, 1, 50, 0
1, 70968, Note_on_c, 0, 64, 0
1, 70968, Note_on_c, 1, 45, 68
1, 70976, Note_on_c, 0, 103, 67
1, 70980, Note_on_c, 0, 101, 68
1, 70980, Note_on_c, 9, 59, 68
1, 70986, Note_on_c, 9, 44, 89
1, 71008, Note_on_c, 0, 101, 0
1, 71060, Note_on_c, 0, 60, 0
1, 71076, Note_on_c, 9, 44, 0
1, 71080, Note_on_c, 0, 54, 0
1, 71096, Note_on_c, 0, 103, 0
1, 71124, Note_on_c, 0, 99, 47
1, 71180, Note_on_c, 9, 59, 0
1, 71236, Note_on_c, 9, 59, 64
1, 71244, Note_on_c, 0, 99, 0
1, 71252, Note_on_c, 0, 100, 50
1, 71288, Note_on_c, 0, 100, 0
1, 71308, Note_on_c, 9, 59, 0
1, 71308, Note_on_c, 0, 54, 36
1, 71312, Note_on_c, 0, 103, 69
1, 71316, Note_on_c, 0, 60, 44
1, 71344, Note_on_c, 1, 38, 68
1, 71352, Note_on_c, 1, 45, 0
1, 71366, Note_on_c, 9, 59, 77
1, 71372, Note_on_c, 0, 54, 0
1, 71412, Note_on_c, 0, 103, 0
1, 71452, Note_on_c, 0, 99, 42
1, 71488, Note_on_c, 0, 60, 0
1, 71548, Note_on_c, 0, 99, 0
1, 71568, Note_on_c, 0, 100, 46
1, 71594, Note_on_c, 9, 35, 57
1, 71616, Note_on_c, 0, 100, 0
1, 71620, Note_on_c, 9, 35, 0
1, 71636, Note_on_c, 0, 103, 83
1, 71644, Note_on_c, 9, 59, 0
1, 71696, Note_on_c, 0, 60, 50
1, 71700, Note_on_c, 0, 54, 39
1, 71708, Note_on_c, 0, 64, 31
1, 71724, Note_on_c, 1, 44, 88
1, 71744, Note_on_c, 0, 103, 0
1, 71748, Note_on_c, 0, 64, 0
1, 71750, Note_on_c, 9, 59, 64
1, 71754, Note_on_c, 9, 44, 117
1, 71760, Note_on_c, 1, 38, 0
1, 71768, Note_on_c, 0, 100, 57
1, 71772, Note_on_c, 0, 54, 0
1, 71840, Note_on_c, 9, 44, 0
1, 71852, Note_on_c, 0, 60, 0
1, 71916, Note_on_c, 9, 59, 0
1, 71962, Note_on_c, 9, 35, 68
1, 71972, Note_on_c, 0, 100, 0
1, 72000, Note_on_c, 9, 35, 0
1, 72006, Note_on_c, 9, 59, 84
1, 72012, Note_on_c, 0, 96, 68
1, 72024, Note_on_c, 0, 59, 57
1, 72024, Note_on_c, 0, 64, 47
1, 72036, Note_on_c, 0, 53, 44
1, 72074, Note_on_c, 9, 59, 0
1, 72092, Note_on_c, 9, 46, 52
1, 72100, Note_on_c, 9, 35, 64
1, 72134, Note_on_c, 9, 59, 87
1, 72156, Note_on_c, 0, 96, 0
1, 72176, Note_on_c, 9, 46, 0
1, 72218, Note_on_c, 9, 35, 0
1, 72236, Note_on_c, 1, 43, 65
1, 72272, Note_on_c, 1, 43, 0
1, 72284, Note_on_c, 1, 44, 0
1, 72376, Note_on_c, 1, 38, 63
1, 72422, Note_on_c, 9, 59, 0
1, 72440, Note_on_c, 0, 64, 0
1, 72452, Note_on_c, 1, 38, 0
1, 72484, Note_on_c, 0, 53, 0
1, 72504, Note_on_c, 1, 30, 75
1, 72516, Note_on_c, 0, 59, 0
1, 72518, Note_on_c, 9, 59, 87
1, 72522, Note_on_c, 9, 44, 112
1, 72612, Note_on_c, 9, 44, 0
1, 72774, Note_on_c, 9, 35, 47
1, 72776, Note_on_c, 0, 63, 75
1, 72784, Note_on_c, 0, 59, 63
1, 72788, Note_on_c, 0, 53, 65
1, 72792, Note_on_c, 0, 101, 115
1, 72796, Note_on_c, 0, 89, 90
1, 72806, Note_on_c, 9, 35, 0
1, 72828, Note_on_c, 9, 59, 0
1, 72856, Note_on_c, 1, 30, 0
1, 72888, Note_on_c, 1, 31, 58
1, 72902, Note_on_c, 9, 59, 82
1, 73076, Note_on_c, 0, 59, 0
1, 73120, Note_on_c, 0, 101, 0
1, 73132, Note_on_c, 0, 89, 0
1, 73168, Note_on_c, 0, 100, 85
1, 73172, Note_on_c, 0, 59, 46
1, 73222, Note_on_c, 9, 59, 0
1, 73232, Note_on_c, 1, 31, 0
1, 73276, Note_on_c, 0, 100, 0
1, 73280, Note_on_c, 1, 35, 66
1, 73286, Note_on_c, 9, 59, 73
1, 73290, Note_on_c, 9, 44, 105
1, 73344, Note_on_c, 0, 63, 0
1, 73402, Note_on_c, 9, 44, 0
1, 73432, Note_on_c, 0, 53, 0
1, 73500, Note_on_c, 0, 59, 0
1, 73504, Note_on_c, 0, 96, 36
1, 73536, Note_on_c, 1, 34, 48
1, 73558, Note_on_c, 9, 35, 49
1, 73600, Note_on_c, 0, 96, 0
1, 73600, Note_on_c, 0, 62, 21
1, 73606, Note_on_c, 9, 59, 0
1, 73608, Note_on_c, 0, 55, 36
1, 73620, Note_on_c, 1, 35, 0
1, 73622, Note_on_c, 9, 35, 0
1, 73628, Note_on_c, 0, 52, 32
1, 73632, Note_on_c, 1, 34, 0
1, 73632, Note_on_c, 0, 59, 5
1, 73644, Note_on_c, 0, 91, 65
1, 73660, Note_on_c, 1, 36, 54
1, 73670, Note_on_c, 9, 59, 73
1, 73702, Note_on_c, 9, 35, 24
1, 73712, Note_on_c, 0, 91, 0
1, 73750, Note_on_c, 9, 35, 0
1, 73764, Note_on_c, 0, 59, 0
1, 73768, Note_on_c, 0, 62, 0
1, 73848, Note_on_c, 0, 89, 60
1, 73880, Note_on_c, 0, 55, 0
1, 73924, Note_on_c, 1, 34, 54
1, 73992, Note_on_c, 1, 36, 0
1, 73994, Note_on_c, 9, 59, 0
1, 73996, Note_on_c, 0, 89, 0
1, 74040, Note_on_c, 0, 55, 10
1, 74052, Note_on_c, 1, 43, 57
1, 74054, Note_on_c, 9, 59, 80
1, 74058, Note_on_c, 9, 44, 101
1, 74080, Note_on_c, 0, 52, 0
1, 74092, Note_on_c, 0, 87, 76
1, 74128, Note_on_c, 0, 55, 0
1, 74136, Note_on_c, 1, 34, 0
1, 74140, Note_on_c, 0, 87, 0
1, 74180, Note_on_c, 0, 88, 41
1, 74184, Note_on_c, 0, 89, 38
1, 74186, Note_on_c, 9, 44, 0
1, 74224, Note_on_c, 0, 89, 0
1, 74262, Note_on_c, 9, 59, 0
1, 74276, Note_on_c, 0, 88, 0
1, 74298, Note_on_c, 9, 35, 49
1, 74310, Note_on_c, 9, 59, 68
1, 74324, Note_on_c, 1, 36, 38
1, 74330, Note_on_c, 9, 35, 0
1, 74336, Note_on_c, 0, 84, 54
1, 74372, Note_on_c, 1, 36, 0
1, 74394, Note_on_c, 9, 59, 0
1, 74412, Note_on_c, 1, 43, 0
1, 74420, Note_on_c, 0, 84, 0
1, 74420, Note_on_c, 1, 41, 60
1, 74438, Note_on_c, 9, 59, 85
1, 74536, Note_on_c, 0, 84, 41
1, 74656, Note_on_c, 0, 84, 0
1, 74676, Note_on_c, 1, 36, 52
1, 74740, Note_on_c, 0, 84, 60
1, 74744, Note_on_c, 0, 60, 40
1, 74744, Note_on_c, 0, 56, 42
1, 74756, Note_on_c, 1, 36, 0
1, 74758, Note_on_c, 9, 59, 0
1, 74768, Note_on_c, 0, 53, 36
1, 74772, Note_on_c, 1, 41, 0
1, 74792, Note_on_c, 0, 84, 0
1, 74804, Note_on_c, 1, 35, 66
1, 74822, Note_on_c, 9, 59, 63
1, 74826, Note_on_c, 9, 44, 103
1, 74864, Note_on_c, 0, 60, 0
1, 74872, Note_on_c, 0, 84, 46
1, 74896, Control_c, 0, 64, 127
1, 74928, Note_on_c, 0, 53, 0
1, 74944, Note_on_c, 0, 56, 0
1, 74972, Note_on_c, 9, 44, 0
1, 74980, Note_on_c, 0, 84, 0
1, 75064, Control_c, 0, 64, 0
1, 75084, Note_on_c, 0, 84, 68
1, 75112, Note_on_c, 0, 59, 40
1, 75128, Note_on_c, 0, 62, 33
1, 75132, Note_on_c, 9, 59, 0
1, 75140, Note_on_c, 0, 52, 25
1, 75152, Note_on_c, 0, 55, 27
1, 75156, Note_on_c, 0, 84, 0
1, 75160, Note_on_c, 1, 35, 0
1, 75172, Note_on_c, 1, 36, 63
1, 75206, Note_on_c, 9, 59, 85
1, 75220, Note_on_c, 9, 35, 35
1, 75240, Note_on_c, 0, 84, 54
1, 75254, Note_on_c, 9, 35, 0
1, 75372, Note_on_c, 0, 84, 0
1, 75420, Note_on_c, 0, 86, 56
1, 75424, Note_on_c, 0, 55, 0
1, 75468, Note_on_c, 1, 34, 49
1, 75472, Note_on_c, 0, 84, 52
1, 75484, Note_on_c, 0, 62, 0
1, 75504, Note_on_c, 0, 52, 0
1, 75512, Note_on_c, 0, 86, 0
1, 75524, Note_on_c, 0, 59, 0
1, 75526, Note_on_c, 9, 59, 0
1, 75548, Note_on_c, 1, 36, 0
1, 75572, Note_on_c, 1, 48, 69
1, 75580, Note_on_c, 0, 84, 0
1, 75590, Note_on_c, 9, 59, 75
1, 75594, Note_on_c, 9, 44, 106
1, 75600, Note_on_c, 1, 34, 0
1, 75600, Note_on_c, 0, 83, 39
1, 75716, Note_on_c, 9, 44, 0
1, 75728, Note_on_c, 0, 81, 5
1, 75740, Note_on_c, 0, 83, 0
1, 75768, Note_on_c, 0, 81, 0
1, 75844, Note_on_c, 0, 84, 75
1, 75852, Note_on_c, 1, 36, 43
1, 75884, Note_on_c, 9, 35, 29
1, 75896, Note_on_c, 0, 61, 41
1, 75900, Note_on_c, 1, 36, 0
1, 75900, Note_on_c, 9, 59, 0
1, 75912, Note_on_c, 0, 58, 38
1, 75920, Note_on_c, 9, 35, 0
1, 75920, Note_on_c, 0, 54, 17
1, 75964, Note_on_c, 0, 58, 0
1, 75974, Note_on_c, 9, 59, 70
1, 75980, Note_on_c, 1, 42, 54
1, 75984, Note_on_c, 0, 54, 0
1, 75984, Note_on_c, 0, 61, 0
1, 76000, Note_on_c, 1, 48, 0
1, 76012, Note_on_c, 0, 82, 54
1, 76044, Note_on_c, 0, 84, 0
1, 76060, Note_on_c, 0, 80, 54
1, 76108, Note_on_c, 0, 82, 0
1, 76112, Note_on_c, 0, 78, 53
1, 76140, Note_on_c, 0, 80, 0
1, 76196, Note_on_c, 0, 78, 0
1, 76198, Note_on_c, 9, 59, 0
1, 76200, Note_on_c, 0, 76, 49
1, 76224, Note_on_c, 0, 76, 0
1, 76230, Note_on_c, 9, 59, 84
1, 76262, Note_on_c, 9, 34, 36
1, 76272, Note_on_c, 0, 75, 56
1, 76298, Note_on_c, 9, 34, 0
1, 76298, Note_on_c, 9, 59, 0
1, 76312, Note_on_c, 0, 58, 22
1, 76344, Note_on_c, 1, 42, 0
1, 76344, Note_on_c, 0, 75, 0
1, 76344, Note_on_c, 1, 30, 66
1, 76358, Note_on_c, 9, 59, 91
1, 76360, Note_on_c, 0, 73, 48
1, 76362, Note_on_c, 9, 44, 110
1, 76424, Note_on_c, 0, 58, 0
1, 76444, Note_on_c, 0, 73, 0
1, 76476, Note_on_c, 0, 71, 38
1, 76496, Note_on_c, 9, 44, 0
1, 76512, Note_on_c, 0, 71, 0
1, 76532, Note_on_c, 9, 34, 43
1, 76536, Note_on_c, 0, 70, 49
1, 76550, Note_on_c, 9, 34, 0
1, 76568, Note_on_c, 0, 70, 0
1, 76576, Note_on_c, 0, 68, 41
1, 76620, Note_on_c, 9, 36, 72
1, 76634, Note_on_c, 9, 34, 43
1, 76652, Note_on_c, 0, 67, 39
1, 76660, Note_on_c, 0, 68, 0
1, 76662, Note_on_c, 9, 59, 0
1, 76688, Note_on_c, 0, 67, 0
1, 76720, Note_on_c, 1, 30, 0
1, 76720, Note_on_c, 9, 36, 0
1, 76736, Note_on_c, 1, 29, 72
1, 76740, Note_on_c, 9, 34, 0
1, 76742, Note_on_c, 9, 59, 92
1, 76762, Note_on_c, 9, 57, 19
1, 76774, Note_on_c, 9, 35, 63
1, 76780, Note_on_c, 9, 57, 0
1, 76832, Note_on_c, 9, 35, 0
1, 76840, Note_on_c, 0, 67, 56
1, 76872, Note_on_c, 0, 68, 52
1, 76908, Note_on_c, 0, 68, 0
1, 76932, Note_on_c, 0, 67, 0
1, 76944, Note_on_c, 0, 69, 50
1, 77028, Note_on_c, 0, 69, 0
1, 77034, Note_on_c, 9, 59, 0
1, 77040, Note_on_c, 0, 67, 48
1, 77088, Note_on_c, 0, 67, 0
1, 77104, Note_on_c, 1, 29, 0
1, 77104, Note_on_c, 0, 65, 46
1, 77126, Note_on_c, 9, 59, 82
1, 77128, Note_on_c, 1, 31, 66
1, 77130, Note_on_c, 9, 44, 112
1, 77148, Note_on_c, 0, 65, 0
1, 77192, Note_on_c, 0, 67, 61
1, 77268, Note_on_c, 9, 44, 0
1, 77292, Note_on_c, 9, 59, 0
1, 77380, Note_on_c, 9, 35, 49
1, 77382, Note_on_c, 9, 59, 68
1, 77400, Note_on_c, 0, 67, 0
1, 77402, Note_on_c, 9, 35, 0
1, 77428, Note_on_c, 0, 69, 32
1, 77436, Note_on_c, 0, 62, 55
1, 77462, Note_on_c, 9, 59, 0
1, 77476, Note_on_c, 0, 62, 0
1, 77476, Note_on_c, 0, 69, 0
1, 77480, Note_on_c, 0, 57, 34
1, 77492, Note_on_c, 1, 31, 0
1, 77508, Note_on_c, 1, 33, 60
1, 77510, Note_on_c, 9, 59, 80
1, 77532, Note_on_c, 0, 57, 0
1, 77564, Note_on_c, 0, 65, 60
1, 77688, Note_on_c, 0, 65, 0
1, 77756, Note_on_c, 0, 67, 37
1, 77768, Note_on_c, 0, 65, 54
1, 77796, Note_on_c, 0, 67, 0
1, 77814, Note_on_c, 9, 59, 0
1, 77824, Note_on_c, 0, 57, 33
1, 77844, Note_on_c, 0, 65, 0
1, 77856, Note_on_c, 1, 33, 0
1, 77860, Note_on_c, 0, 62, 36
1, 77868, Note_on_c, 0, 57, 0
1, 77868, Note_on_c, 1, 29, 63
1, 77894, Note_on_c, 9, 59, 80
1, 77898, Note_on_c, 9, 44, 117
1, 77900, Note_on_c, 0, 62, 0
1, 77936, Note_on_c, 0, 65, 54
1, 77988, Note_on_c, 9, 44, 0
1, 78062, Note_on_c, 9, 38, 36
1, 78112, Note_on_c, 0, 65, 0
1, 78164, Note_on_c, 1, 35, 54
1, 78172, Note_on_c, 9, 38, 0
1, 78182, Note_on_c, 9, 59, 0
1, 78192, Note_on_c, 1, 29, 0
1, 78208, Note_on_c, 9, 36, 56
1, 78234, Note_on_c, 9, 36, 0
1, 78252, Note_on_c, 1, 35, 0
1, 78264, Note_on_c, 1, 47, 69
1, 78278, Note_on_c, 9, 59, 89
1, 78278, Note_on_c, 9, 35, 45
1, 78316, Note_on_c, 9, 35, 0
1, 78334, Note_on_c, 9, 45, 36
1, 78396, Note_on_c, 9, 45, 0
1, 78556, Note_on_c, 1, 38, 47
1, 78570, Note_on_c, 9, 59, 0
1, 78596, Note_on_c, 1, 38, 0
1, 78628, Note_on_c, 1, 47, 0
1, 78662, Note_on_c, 9, 59, 61
1, 78664, Note_on_c, 0, 56, 51
1, 78664, Note_on_c, 0, 68, 52
1, 78666, Note_on_c, 1, 41, 64
1, 78666, Note_on_c, 9, 44, 110
1, 78668, Note_on_c, 0, 62, 45
1, 78688, Note_on_c, 0, 65, 39
1, 78744, Control_c, 0, 64, 127
1, 78778, Note_on_c, 9, 44, 0
1, 78796, Note_on_c, 0, 62, 0
1, 78816, Note_on_c, 0, 65, 0
1, 78836, Note_on_c, 0, 68, 0
1, 78844, Note_on_c, 9, 59, 0
1, 78872, Note_on_c, 0, 56, 0
1, 78890, Note_on_c, 9, 35, 50
1, 78916, Note_on_c, 0, 68, 55
1, 78918, Note_on_c, 9, 59, 68
1, 78932, Note_on_c, 9, 35, 0
1, 78936, Note_on_c, 0, 59, 63
1, 78936, Note_on_c, 0, 71, 51
1, 78936, Note_on_c, 1, 35, 32
1, 78954, Note_on_c, 9, 59, 0
1, 78964, Note_on_c, 0, 71, 0
1, 78968, Note_on_c, 0, 68, 0
1, 78992, Note_on_c, 1, 35, 0
1, 79024, Control_c, 0, 64, 0
1, 79040, Note_on_c, 1, 41, 0
1, 79044, Note_on_c, 0, 59, 0
1, 79046, Note_on_c, 1, 40, 60
1, 79046, Note_on_c, 9, 59, 75
1, 79056, Note_on_c, 0, 76, 86
1, 79056, Note_on_c, 0, 74, 89
1, 79060, Note_on_c, 0, 65, 80
1, 79064, Note_on_c, 0, 62, 92
1, 79064, Note_on_c, 0, 67, 83
1, 79076, Note_on_c, 0, 69, 59
1, 79076, Note_on_c, 0, 73, 42
1, 79084, Note_on_c, 0, 68, 38
1, 79104, Note_on_c, 0, 69, 0
1, 79124, Note_on_c, 0, 68, 0
1, 79152, Note_on_c, 0, 67, 0
1, 79164, Control_c, 0, 64, 127
1, 79192, Note_on_c, 0, 76, 0
1, 79204, Note_on_c, 0, 73, 0
1, 79220, Note_on_c, 0, 74, 0
1, 79260, Note_on_c, 0, 65, 0
1, 79268, Note_on_c, 0, 62, 0
1, 79324, Note_on_c, 0, 74, 81
1, 79324, Note_on_c, 0, 62, 72
1, 79328, Control_c, 0, 64, 0
1, 79332, Note_on_c, 0, 68, 79
1, 79332, Note_on_c, 1, 35, 66
1, 79340, Note_on_c, 0, 65, 66
1, 79354, Note_on_c, 9, 59, 0
1, 79364, Note_on_c, 1, 40, 0
1, 79392, Note_on_c, 1, 35, 0
1, 79420, Note_on_c, 0, 65, 0
1, 79430, Note_on_c, 9, 59, 73
1, 79434, Note_on_c, 0, 68, 0
1, 79434, Note_on_c, 9, 44, 101
1, 79444, Note_on_c, 1, 32, 59
1, 79460, Note_on_c, 0, 74, 0
1, 79476, Note_on_c, 0, 62, 0
1, 79480, Note_on_c, 0, 59, 49
1, 79496, Control_c, 0, 64, 127
1, 79508, Note_on_c, 0, 68, 42
1, 79520, Note_on_c, 0, 71, 39
1, 79520, Note_on_c, 0, 65, 21
1, 79562, Note_on_c, 9, 44, 0
1, 79580, Note_on_c, 0, 65, 0
1, 79606, Note_on_c, 9, 59, 0
1, 79612, Note_on_c, 0, 68, 0
1, 79620, Note_on_c, 0, 71, 0
1, 79686, Note_on_c, 9, 59, 84
1, 79696, Note_on_c, 9, 38, 76
1, 79720, Note_on_c, 0, 59, 0
1, 79720, Note_on_c, 0, 74, 68
1, 79720, Note_on_c, 0, 62, 65
1, 79720, Note_on_c, 0, 68, 79
1, 79736, Note_on_c, 0, 65, 72
1, 79754, Note_on_c, 9, 59, 0
1, 79760, Control_c, 0, 64, 24
1, 79764, Control_c, 0, 64, 0
1, 79780, Note_on_c, 0, 62, 0
1, 79782, Note_on_c, 9, 38, 0
1, 79792, Note_on_c, 0, 74, 0
1, 79796, Note_on_c, 0, 65, 0
1, 79808, Note_on_c, 1, 32, 0
1, 79814, Note_on_c, 9, 59, 96
1, 79820, Note_on_c, 1, 33, 63
1, 79830, Note_on_c, 9, 35, 33
1, 79832, Note_on_c, 0, 68, 0
1, 79872, Note_on_c, 0, 72, 52
1, 79876, Note_on_c, 0, 60, 45
1, 79878, Note_on_c, 9, 36, 26
1, 79888, Note_on_c, 0, 64, 39
1, 79888, Note_on_c, 0, 67, 49
1, 79932, Note_on_c, 9, 36, 0
1, 79940, Note_on_c, 0, 60, 0
1, 79948, Control_c, 0, 64, 127
1, 79956, Note_on_c, 0, 72, 0
1, 79968, Note_on_c, 0, 67, 0
1, 80006, Note_on_c, 9, 35, 0
1, 80032, Note_on_c, 0, 64, 0
1, 80060, Control_c, 0, 64, 0
1, 80076, Note_on_c, 1, 32, 48
1, 80106, Note_on_c, 9, 35, 33
1, 80110, Note_on_c, 9, 36, 30
1, 80124, Note_on_c, 9, 59, 0
1, 80140, Note_on_c, 9, 35, 0
1, 80148, Note_on_c, 1, 33, 0
1, 80158, Note_on_c, 9, 36, 0
1, 80180, Note_on_c, 1, 35, 59
1, 80188, Note_on_c, 1, 32, 0
1, 80198, Note_on_c, 9, 59, 73
1, 80202, Note_on_c, 9, 44, 99
1, 80208, Control_c, 0, 64, 127
1, 80244, Note_on_c, 0, 71, 60
1, 80244, Note_on_c, 0, 59, 58
1, 80256, Note_on_c, 0, 64, 54
1, 80256, Note_on_c, 0, 60, 47
1, 80262, Note_on_c, 9, 36, 24
1, 80298, Note_on_c, 9, 36, 0
1, 80324, Note_on_c, 9, 44, 0
1, 80468, Note_on_c, 1, 35, 0
1, 80468, Note_on_c, 1, 34, 49
1, 80472, Note_on_c, 0, 60, 0
1, 80476, Note_on_c, 0, 59, 0
1, 80476, Note_on_c, 0, 64, 0
1, 80484, Note_on_c, 9, 36, 29
1, 80486, Note_on_c, 9, 59, 0
1, 80516, Note_on_c, 0, 71, 0
1, 80524, Control_c, 0, 64, 0
1, 80524, Note_on_c, 0, 54, 35
1, 80526, Note_on_c, 9, 36, 0
1, 80564, Note_on_c, 0, 54, 0
1, 80564, Note_on_c, 1, 36, 61
1, 80582, Note_on_c, 9, 59, 89
1, 80584, Note_on_c, 1, 34, 0
1, 80604, Note_on_c, 0, 57, 51
1, 80628, Note_on_c, 0, 60, 38
1, 80632, Note_on_c, 0, 69, 45
1, 80636, Control_c, 0, 64, 127
1, 80652, Note_on_c, 0, 64, 34
1, 80700, Note_on_c, 0, 64, 0
1, 80760, Note_on_c, 0, 60, 0
1, 80840, Control_c, 0, 64, 0
1, 80848, Note_on_c, 0, 57, 0
1, 80852, Note_on_c, 0, 69, 0
1, 80860, Note_on_c, 9, 59, 0
1, 80860, Note_on_c, 1, 34, 41
1, 80872, Note_on_c, 1, 36, 0
1, 80880, Note_on_c, 0, 64, 49
1, 80880, Note_on_c, 0, 60, 38
1, 80884, Note_on_c, 0, 52, 39
1, 80920, Note_on_c, 1, 34, 0
1, 80936, Control_c, 0, 64, 127
1, 80944, Note_on_c, 1, 37, 60
1, 80966, Note_on_c, 9, 59, 92
1, 80970, Note_on_c, 9, 44, 98
1, 80988, Note_on_c, 0, 52, 0
1, 81092, Note_on_c, 9, 44, 0
1, 81112, Note_on_c, 0, 60, 0
1, 81148, Note_on_c, 9, 59, 0
1, 81222, Note_on_c, 9, 36, 56
1, 81222, Note_on_c, 9, 59, 89
1, 81228, Note_on_c, 0, 64, 0
1, 81270, Note_on_c, 9, 59, 0
1, 81280, Note_on_c, 1, 34, 23
1, 81312, Note_on_c, 9, 36, 0
1, 81320, Control_c, 0, 64, 0
1, 81336, Note_on_c, 1, 34, 0
1, 81340, Note_on_c, 1, 37, 0
1, 81340, Note_on_c, 1, 38, 60
1, 81344, Note_on_c, 0, 60, 47
1, 81350, Note_on_c, 9, 59, 91
1, 81360, Note_on_c, 0, 50, 39
1, 81364, Note_on_c, 0, 54, 39
1, 81370, Note_on_c, 9, 35, 31
1, 81396, Note_on_c, 9, 35, 0
1, 81406, Note_on_c, 9, 36, 32
1, 81536, Note_on_c, 9, 36, 0
1, 81576, Note_on_c, 0, 60, 0
1, 81626, Note_on_c, 1, 37, 54
1, 81626, Note_on_c, 9, 35, 47
1, 81632, Note_on_c, 0, 57, 46
1, 81636, Note_on_c, 1, 38, 0
1, 81652, Note_on_c, 9, 35, 0
1, 81658, Note_on_c, 9, 59, 0
1, 81668, Note_on_c, 0, 57, 0
1, 81720, Note_on_c, 1, 40, 57
1, 81732, Note_on_c, 1, 37, 0
1, 81732, Note_on_c, 0, 62, 62
1, 81734, Note_on_c, 9, 59, 64
1, 81738, Note_on_c, 9, 44, 96
1, 81804, Note_on_c, 0, 62, 0
1, 81840, Note_on_c, 0, 60, 46
1, 81860, Note_on_c, 9, 44, 0
1, 81884, Note_on_c, 0, 60, 0
1, 81916, Note_on_c, 9, 59, 0
1, 81940, Note_on_c, 0, 61, 39
1, 81990, Note_on_c, 9, 59, 56
1, 81992, Note_on_c, 1, 37, 39
1, 82004, Note_on_c, 1, 40, 0
1, 82016, Note_on_c, 0, 61, 0
1, 82032, Note_on_c, 0, 62, 62
1, 82042, Note_on_c, 9, 59, 0
1, 82088, Note_on_c, 1, 37, 0
1, 82088, Note_on_c, 1, 41, 58
1, 82100, Note_on_c, 0, 62, 0
1, 82118, Note_on_c, 9, 59, 52
1, 82134, Note_on_c, 0, 63, 66
1, 82134, Note_on_c, 9, 35, 33
1, 82188, Note_on_c, 0, 63, 0
1, 82228, Note_on_c, 0, 64, 57
1, 82266, Note_on_c, 9, 59, 0
1, 82276, Note_on_c, 0, 64, 0
1, 82294, Note_on_c, 9, 38, 50
1, 82300, Note_on_c, 0, 66, 58
1, 82314, Note_on_c, 9, 35, 0
1, 82322, Note_on_c, 9, 38, 0
1, 82356, Note_on_c, 0, 68, 61
1, 82374, Note_on_c, 9, 59, 112
1, 82376, Note_on_c, 0, 66, 0
1, 82380, Note_on_c, 1, 39, 46
1, 82388, Note_on_c, 9, 35, 31
1, 82404, Note_on_c, 1, 41, 0
1, 82420, Note_on_c, 9, 35, 0
1, 82428, Note_on_c, 0, 70, 48
1, 82432, Note_on_c, 0, 68, 0
1, 82434, Note_on_c, 9, 38, 54
1, 82438, Note_on_c, 9, 59, 0
1, 82456, Note_on_c, 0, 70, 0
1, 82462, Note_on_c, 9, 38, 0
1, 82476, Note_on_c, 1, 42, 52
1, 82480, Note_on_c, 1, 39, 0
1, 82484, Note_on_c, 0, 72, 66
1, 82502, Note_on_c, 9, 59, 84
1, 82506, Note_on_c, 9, 44, 94
1, 82544, Note_on_c, 0, 72, 0
1, 82576, Note_on_c, 0, 50, 0
1, 82588, Note_on_c, 0, 73, 61
1, 82596, Note_on_c, 0, 54, 0
1, 82612, Note_on_c, 0, 73, 0
1, 82618, Note_on_c, 9, 44, 0
1, 82668, Note_on_c, 0, 74, 51
1, 82692, Note_on_c, 0, 74, 0
1, 82704, Note_on_c, 0, 75, 56
1, 82708, Note_on_c, 9, 38, 57
1, 82712, Note_on_c, 1, 42, 0
1, 82728, Note_on_c, 1, 51, 65
1, 82756, Note_on_c, 9, 38, 0
1, 82788, Note_on_c, 0, 75, 0
1, 82796, Note_on_c, 0, 76, 60
1, 82812, Note_on_c, 9, 59, 0
1, 82836, Note_on_c, 1, 51, 0
1, 82856, Note_on_c, 0, 76, 0
1, 82868, Note_on_c, 1, 50, 55
1, 82872, Note_on_c, 0, 79, 82
1, 82886, Note_on_c, 9, 59, 96
1, 82964, Note_on_c, 0, 79, 0
1, 82972, Note_on_c, 0, 77, 68
1, 82972, Note_on_c, 9, 38, 64
1, 83010, Note_on_c, 9, 38, 0
1, 83060, Note_on_c, 0, 77, 0
1, 83116, Note_on_c, 9, 36, 58
1, 83124, Note_on_c, 0, 76, 69
1, 83140, Note_on_c, 9, 36, 0
1, 83184, Note_on_c, 0, 76, 0
1, 83192, Note_on_c, 1, 50, 0
1, 83194, Note_on_c, 9, 59, 0
1, 83236, Note_on_c, 0, 72, 58
1, 83258, Note_on_c, 9, 36, 48
1, 83270, Note_on_c, 9, 59, 63
1, 83274, Note_on_c, 9, 44, 91
1, 83284, Note_on_c, 1, 44, 33
1, 83324, Note_on_c, 0, 72, 0
1, 83360, Note_on_c, 0, 69, 28
1, 83370, Note_on_c, 9, 44, 0
1, 83378, Note_on_c, 9, 36, 0
1, 83408, Note_on_c, 0, 69, 0
1, 83462, Note_on_c, 9, 59, 0
1, 83476, Note_on_c, 0, 69, 49
1, 83526, Note_on_c, 9, 59, 50
1, 83526, Note_on_c, 9, 36, 55
1, 83530, Note_on_c, 9, 35, 68
1, 83560, Note_on_c, 0, 69, 0
1, 83596, Note_on_c, 9, 35, 0
1, 83602, Note_on_c, 9, 36, 0
1, 83606, Note_on_c, 9, 59, 0
1, 83608, Note_on_c, 1, 44, 0
1, 83616, Note_on_c, 0, 65, 43
1, 83636, Note_on_c, 1, 45, 48
1, 83654, Note_on_c, 9, 59, 96
1, 83656, Note_on_c, 0, 65, 0
1, 83668, Note_on_c, 9, 35, 43
1, 83724, Note_on_c, 0, 76, 76
1, 83732, Note_on_c, 0, 69, 68
1, 83740, Note_on_c, 0, 65, 46
1, 83756, Note_on_c, 0, 64, 57
1, 83852, Note_on_c, 0, 65, 0
1, 83856, Note_on_c, 0, 76, 0
1, 83864, Note_on_c, 0, 64, 0
1, 83868, Note_on_c, 0, 69, 0
1, 83876, Note_on_c, 9, 35, 0
1, 83936, Note_on_c, 0, 65, 51
1, 83936, Note_on_c, 0, 74, 66
1, 83936, Note_on_c, 0, 69, 57
1, 83956, Note_on_c, 0, 62, 48
1, 83972, Note_on_c, 1, 45, 0
1, 83990, Note_on_c, 9, 59, 0
1, 84008, Note_on_c, 1, 41, 55
1, 84028, Note_on_c, 0, 65, 0
1, 84038, Note_on_c, 9, 59, 68
1, 84042, Note_on_c, 9, 44, 73
1, 84048, Note_on_c, 0, 74, 0
1, 84056, Note_on_c, 0, 69, 0
1, 84068, Note_on_c, 0, 62, 0
1, 84104, Control_c, 0, 64, 127
1, 84112, Note_on_c, 0, 72, 52
1, 84116, Note_on_c, 0, 60, 37
1, 84140, Note_on_c, 9, 44, 0
1, 84220, Note_on_c, 0, 60, 0
1, 84294, Note_on_c, 9, 53, 124
1, 84296, Note_on_c, 1, 39, 48
1, 84310, Note_on_c, 9, 59, 0
1, 84320, Note_on_c, 1, 41, 0
1, 84340, Note_on_c, 0, 65, 38
1, 84372, Note_on_c, 1, 39, 0
1, 84390, Note_on_c, 9, 53, 0
1, 84400, Note_on_c, 0, 65, 0
1, 84404, Note_on_c, 1, 45, 56
1, 84412, Control_c, 0, 64, 0
1, 84422, Note_on_c, 9, 59, 54
1, 84436, Note_on_c, 0, 72, 0
1, 84484, Note_on_c, 0, 69, 57
1, 84564, Note_on_c, 0, 69, 0
1, 84580, Note_on_c, 0, 70, 50
1, 84648, Note_on_c, 0, 69, 45
1, 84684, Note_on_c, 0, 70, 0
1, 84732, Note_on_c, 0, 69, 0
1, 84740, Note_on_c, 0, 67, 54
1, 84748, Note_on_c, 9, 59, 0
1, 84760, Note_on_c, 1, 45, 0
1, 84772, Note_on_c, 1, 40, 68
1, 84792, Note_on_c, 0, 67, 0
1, 84792, Note_on_c, 0, 58, 40
1, 84806, Note_on_c, 9, 59, 80
1, 84810, Note_on_c, 9, 44, 70
1, 84812, Note_on_c, 0, 62, 36
1, 84856, Note_on_c, 0, 69, 52
1, 84892, Note_on_c, 0, 58, 0
1, 84900, Note_on_c, 9, 44, 0
1, 84996, Note_on_c, 0, 62, 0
1, 85056, Note_on_c, 0, 69, 0
1, 85072, Note_on_c, 0, 70, 61
1, 85080, Note_on_c, 0, 61, 42
1, 85116, Note_on_c, 0, 55, 24
1, 85132, Note_on_c, 9, 59, 0
1, 85152, Note_on_c, 0, 70, 0
1, 85172, Note_on_c, 1, 40, 0
1, 85176, Note_on_c, 1, 33, 63
1, 85190, Note_on_c, 9, 59, 80
1, 85208, Note_on_c, 0, 72, 44
1, 85244, Note_on_c, 0, 72, 0
1, 85256, Note_on_c, 0, 61, 0
1, 85300, Note_on_c, 0, 75, 45
1, 85348, Note_on_c, 0, 75, 0
1, 85400, Note_on_c, 0, 77, 71
1, 85468, Note_on_c, 9, 35, 52
1, 85488, Note_on_c, 0, 77, 0
1, 85494, Note_on_c, 9, 35, 0
1, 85500, Note_on_c, 0, 61, 39
1, 85508, Note_on_c, 1, 33, 0
1, 85508, Note_on_c, 0, 82, 60
1, 85526, Note_on_c, 9, 59, 0
1, 85556, Note_on_c, 1, 33, 68
1, 85560, Note_on_c, 0, 82, 0
1, 85574, Note_on_c, 9, 59, 63
1, 85578, Note_on_c, 9, 44, 110
1, 85636, Note_on_c, 0, 84, 42
1, 85636, Note_on_c, 0, 83, 42
1, 85664, Note_on_c, 0, 83, 0
1, 85668, Note_on_c, 9, 44, 0
1, 85672, Note_on_c, 0, 84, 0
1, 85708, Note_on_c, 0, 87, 42
1, 85720, Note_on_c, 0, 55, 0
1, 85766, Note_on_c, 9, 59, 0
1, 85784, Note_on_c, 0, 61, 0
1, 85800, Note_on_c, 0, 87, 0
1, 85816, Note_on_c, 0, 89, 51
1, 85828, Note_on_c, 0, 88, 34
1, 85828, Note_on_c, 1, 37, 52
1, 85830, Note_on_c, 9, 59, 57
1, 85850, Note_on_c, 9, 35, 56
1, 85860, Note_on_c, 0, 88, 0
1, 85872, Note_on_c, 0, 89, 0
1, 85880, Note_on_c, 1, 33, 0
1, 85888, Note_on_c, 9, 35, 0
1, 85894, Note_on_c, 9, 59, 0
1, 85900, Note_on_c, 0, 91, 79
1, 85944, Note_on_c, 1, 37, 0
1, 85956, Note_on_c, 1, 38, 57
1, 85958, Note_on_c, 9, 59, 68
1, 85984, Note_on_c, 0, 91, 0
1, 86020, Note_on_c, 0, 86, 66
1, 86152, Note_on_c, 0, 86, 0
1, 86228, Note_on_c, 1, 37, 61
1, 86236, Note_on_c, 1, 38, 0
1, 86246, Note_on_c, 9, 59, 0
1, 86256, Note_on_c, 0, 86, 50
1, 86304, Note_on_c, 0, 86, 0
1, 86308, Note_on_c, 1, 37, 0
1, 86340, Note_on_c, 1, 40, 69
1, 86342, Note_on_c, 9, 59, 75
1, 86346, Note_on_c, 9, 44, 106
1, 86380, Control_c, 0, 64, 127
1, 86388, Note_on_c, 0, 86, 51
1, 86468, Note_on_c, 9, 44, 0
1, 86480, Note_on_c, 0, 86, 0
1, 86628, Note_on_c, 9, 38, 39
1, 86630, Note_on_c, 9, 59, 0
1, 86660, Note_on_c, 1, 40, 0
1, 86668, Note_on_c, 9, 38, 0
1, 86720, Note_on_c, 1, 41, 67
1, 86726, Note_on_c, 9, 59, 59
1, 86972, Note_on_c, 9, 35, 31
1, 87012, Note_on_c, 9, 35, 0
1, 87018, Note_on_c, 9, 59, 0
1, 87022, Note_on_c, 9, 36, 25
1, 87062, Note_on_c, 9, 36, 0
1, 87084, Note_on_c, 1, 41, 0
1, 87084, Control_c, 0, 64, 0
1, 87110, Note_on_c, 9, 59, 103
1, 87114, Note_on_c, 9, 44, 103
1, 87124, Note_on_c, 9, 51, 29
1, 87128, Note_on_c, 1, 42, 38
1, 87140, Note_on_c, 1, 43, 65
1, 87144, Note_on_c, 0, 80, 87
1, 87144, Note_on_c, 0, 92, 86
1, 87144, Note_on_c, 0, 87, 85
1, 87144, Note_on_c, 0, 54, 68
1, 87144, Note_on_c, 0, 58, 57
1, 87146, Note_on_c, 9, 51, 0
1, 87152, Note_on_c, 0, 65, 73
1, 87160, Note_on_c, 0, 60, 64
1, 87176, Control_c, 0, 64, 127
1, 87192, Note_on_c, 1, 42, 0
1, 87226, Note_on_c, 9, 44, 0
1, 87238, Note_on_c, 9, 51, 49
1, 87260, Note_on_c, 9, 51, 0
1, 87304, Note_on_c, 0, 65, 0
1, 87308, Note_on_c, 0, 60, 0
1, 87308, Note_on_c, 9, 59, 0
1, 87356, Note_on_c, 0, 92, 0
1, 87366, Note_on_c, 0, 80, 0
1, 87366, Note_on_c, 9, 59, 57
1, 87372, Note_on_c, 0, 58, 0
1, 87372, Note_on_c, 0, 87, 0
1, 87380, Control_c, 0, 64, 0
1, 87382, Note_on_c, 9, 35, 33
1, 87384, Note_on_c, 0, 54, 0
1, 87390, Note_on_c, 9, 38, 42
1, 87408, Note_on_c, 1, 43, 0
1, 87418, Note_on_c, 9, 35, 0
1, 87424, Note_on_c, 0, 64, 70
1, 87424, Note_on_c, 0, 91, 75
1, 87424, Note_on_c, 0, 86, 73
1, 87432, Note_on_c, 0, 59, 66
1, 87434, Note_on_c, 9, 59, 0
1, 87436, Note_on_c, 0, 53, 61
1, 87440, Note_on_c, 0, 79, 52
1, 87448, Note_on_c, 9, 38, 0
1, 87494, Note_on_c, 9, 59, 73
1, 87496, Control_c, 0, 64, 127
1, 87500, Note_on_c, 1, 43, 68
1, 87500, Note_on_c, 9, 51, 47
1, 87540, Note_on_c, 9, 51, 0
1, 87550, Note_on_c, 9, 38, 39
1, 87616, Note_on_c, 0, 79, 0
1, 87620, Note_on_c, 9, 51, 47
1, 87624, Note_on_c, 9, 38, 0
1, 87628, Note_on_c, 0, 59, 0
1, 87642, Note_on_c, 9, 51, 0
1, 87664, Note_on_c, 0, 86, 0
1, 87696, Note_on_c, 0, 64, 0
1, 87712, Note_on_c, 0, 53, 0
1, 87712, Note_on_c, 0, 91, 0
1, 87750, Note_on_c, 9, 35, 42
1, 87776, Note_on_c, 9, 35, 0
1, 87814, Note_on_c, 9, 59, 0
1, 87844, Note_on_c, 0, 59, 43
1, 87866, Note_on_c, 9, 51, 45
1, 87872, Note_on_c, 1, 31, 63
1, 87876, Note_on_c, 0, 59, 0
1, 87878, Note_on_c, 9, 59, 52
1, 87882, Note_on_c, 9, 44, 105
1, 87898, Note_on_c, 9, 51, 0
1, 88020, Note_on_c, 9, 44, 0
1, 88148, Note_on_c, 1, 38, 57
1, 88168, Note_on_c, 1, 43, 0
1, 88182, Note_on_c, 9, 59, 0
1, 88220, Note_on_c, 0, 63, 82
1, 88220, Note_on_c, 0, 102, 73
1, 88220, Note_on_c, 0, 90, 80
1, 88224, Note_on_c, 0, 56, 56
1, 88232, Note_on_c, 0, 59, 62
1, 88232, Note_on_c, 0, 103, 74
1, 88232, Note_on_c, 0, 92, 65
1, 88236, Control_c, 0, 64, 0
1, 88236, Note_on_c, 0, 53, 50
1, 88252, Note_on_c, 1, 55, 90
1, 88262, Note_on_c, 9, 59, 68
1, 88272, Note_on_c, 1, 38, 0
1, 88320, Note_on_c, 0, 92, 0
1, 88336, Note_on_c, 0, 103, 0
1, 88364, Control_c, 0, 64, 127
1, 88368, Note_on_c, 0, 53, 0
1, 88400, Note_on_c, 0, 63, 0
1, 88408, Note_on_c, 0, 102, 0
1, 88408, Note_on_c, 0, 59, 0
1, 88408, Note_on_c, 0, 56, 0
1, 88416, Note_on_c, 0, 90, 0
1, 88476, Note_on_c, 0, 63, 80
1, 88480, Note_on_c, 0, 103, 74
1, 88480, Note_on_c, 0, 91, 79
1, 88480, Note_on_c, 0, 59, 61
1, 88484, Note_on_c, 0, 56, 53
1, 88488, Note_on_c, 0, 53, 68
1, 88488, Note_on_c, 0, 98, 68
1, 88496, Note_on_c, 0, 101, 50
1, 88498, Note_on_c, 9, 38, 63
1, 88524, Note_on_c, 9, 35, 36
1, 88554, Note_on_c, 9, 59, 0
1, 88560, Note_on_c, 9, 35, 0
1, 88564, Control_c, 0, 64, 0
1, 88574, Note_on_c, 9, 38, 0
1, 88596, Note_on_c, 0, 91, 0
1, 88604, Note_on_c, 0, 103, 0
1, 88612, Note_on_c, 0, 63, 0
1, 88628, Note_on_c, 0, 53, 0
1, 88632, Note_on_c, 0, 98, 0
1, 88644, Note_on_c, 0, 59, 0
1, 88646, Note_on_c, 9, 59, 63
1, 88648, Note_on_c, 0, 56, 0
1, 88650, Note_on_c, 0, 101, 0
1, 88650, Note_on_c, 9, 44, 117
1, 88708, Control_c, 0, 64, 127
1, 88716, Note_on_c, 0, 63, 79
1, 88716, Note_on_c, 0, 103, 76
1, 88716, Note_on_c, 0, 98, 68
1, 88716, Note_on_c, 0, 56, 53
1, 88716, Note_on_c, 0, 59, 60
1, 88724, Note_on_c, 0, 91, 73
1, 88724, Note_on_c, 0, 53, 64
1, 88732, Note_on_c, 0, 101, 42
1, 88778, Note_on_c, 9, 35, 50
1, 88798, Note_on_c, 9, 38, 49
1, 88800, Note_on_c, 9, 35, 0
1, 88810, Note_on_c, 9, 44, 0
1, 88820, Note_on_c, 0, 98, 0
1, 88824, Note_on_c, 0, 53, 0
1, 88830, Note_on_c, 9, 38, 0
1, 88832, Note_on_c, 0, 103, 0
1, 88836, Note_on_c, 0, 101, 0
1, 88852, Note_on_c, 0, 91, 0
1, 88852, Note_on_c, 0, 63, 0
1, 88864, Note_on_c, 0, 56, 0
1, 88896, Note_on_c, 0, 59, 0
1, 88900, Note_on_c, 9, 35, 70
1, 88900, Note_on_c, 9, 38, 68
1, 88904, Note_on_c, 1, 43, 52
1, 88924, Control_c, 0, 64, 0
1, 88948, Note_on_c, 1, 31, 0
1, 88948, Note_on_c, 1, 55, 0
1, 88950, Note_on_c, 9, 59, 0
1, 88956, Note_on_c, 0, 88, 78
1, 88956, Note_on_c, 0, 100, 75
1, 88956, Note_on_c, 1, 38, 22
1, 88968, Note_on_c, 0, 59, 61
1, 88968, Note_on_c, 0, 62, 79
1, 88968, Note_on_c, 0, 97, 43
1, 88968, Note_on_c, 0, 95, 72
1, 88968, Note_on_c, 0, 52, 66
1, 88968, Note_on_c, 0, 55, 60
1, 88988, Note_on_c, 9, 35, 0
1, 89000, Note_on_c, 1, 38, 0
1, 89004, Note_on_c, 1, 43, 0
1, 89004, Note_on_c, 0, 54, 34
1, 89008, Note_on_c, 0, 97, 0
1, 89010, Note_on_c, 9, 38, 0
1, 89020, Note_on_c, 1, 52, 71
1, 89030, Note_on_c, 9, 59, 87
1, 89032, Note_on_c, 9, 36, 75
1, 89046, Note_on_c, 9, 35, 38
1, 89048, Note_on_c, 9, 57, 72
1, 89060, Control_c, 0, 64, 127
1, 89084, Note_on_c, 9, 35, 0
1, 89140, Note_on_c, 0, 95, 0
1, 89140, Note_on_c, 0, 100, 0
1, 89164, Note_on_c, 0, 54, 0
1, 89176, Note_on_c, 0, 55, 0
1, 89184, Note_on_c, 0, 59, 0
1, 89188, Note_on_c, 0, 62, 0
1, 89192, Note_on_c, 0, 88, 0
1, 89192, Note_on_c, 0, 52, 0
1, 89300, Note_on_c, 1, 45, 36
1, 89336, Note_on_c, 1, 45, 0
1, 89340, Note_on_c, 9, 59, 0
1, 89372, Note_on_c, 1, 52, 0
1, 89404, Note_on_c, 1, 48, 63
1, 89414, Note_on_c, 9, 59, 59
1, 89418, Note_on_c, 9, 44, 117
1, 89588, Note_on_c, 9, 44, 0
1, 89596, Note_on_c, 9, 59, 0
1, 89670, Note_on_c, 9, 59, 68
1, 89676, Note_on_c, 1, 44, 49
1, 89696, Note_on_c, 0, 59, 56
1, 89720, Note_on_c, 0, 59, 0
1, 89738, Note_on_c, 9, 59, 0
1, 89752, Note_on_c, 1, 48, 0
1, 89768, Note_on_c, 1, 44, 0
1, 89784, Control_c, 0, 64, 0
1, 89788, Note_on_c, 1, 45, 55
1, 89798, Note_on_c, 9, 59, 61
1, 89816, Note_on_c, 0, 96, 102
1, 89820, Note_on_c, 0, 84, 94
1, 89820, Note_on_c, 0, 93, 83
1, 89824, Note_on_c, 0, 89, 86
1, 89824, Note_on_c, 0, 61, 75
1, 89824, Note_on_c, 0, 55, 79
1, 89828, Note_on_c, 0, 65, 68
1, 89828, Note_on_c, 0, 58, 61
1, 89856, Note_on_c, 0, 95, 27
1, 89894, Note_on_c, 9, 57, 0
1, 89980, Note_on_c, 0, 58, 0
1, 89984, Note_on_c, 0, 93, 0
1, 89988, Note_on_c, 0, 96, 0
1, 90008, Note_on_c, 0, 95, 0
1, 90012, Note_on_c, 0, 89, 0
1, 90012, Note_on_c, 0, 65, 0
1, 90012, Note_on_c, 0, 84, 0
1, 90016, Note_on_c, 9, 36, 0
1, 90020, Note_on_c, 0, 61, 0
1, 90044, Note_on_c, 0, 55, 0
1, 90070, Note_on_c, 9, 34, 40
1, 90102, Note_on_c, 9, 59, 0
1, 90156, Note_on_c, 9, 34, 0
1, 90176, Note_on_c, 1, 45, 0
1, 90176, Note_on_c, 1, 37, 62
1, 90182, Note_on_c, 9, 59, 75
1, 90186, Note_on_c, 9, 44, 110
1, 90200, Note_on_c, 0, 55, 71
1, 90208, Note_on_c, 0, 61, 61
1, 90208, Note_on_c, 0, 65, 72
1, 90212, Note_on_c, 0, 93, 57
1, 90216, Note_on_c, 0, 91, 68
1, 90216, Note_on_c, 0, 58, 58
1, 90218, Note_on_c, 0, 86, 56
1, 90218, Note_on_c, 9, 35, 40
1, 90224, Note_on_c, 0, 81, 48
1, 90224, Note_on_c, 0, 89, 46
1, 90228, Note_on_c, 0, 88, 51
1, 90228, Note_on_c, 0, 79, 48
1, 90272, Note_on_c, 9, 35, 0
1, 90288, Note_on_c, 0, 79, 0
1, 90352, Note_on_c, 0, 93, 0
1, 90356, Note_on_c, 0, 89, 0
1, 90356, Note_on_c, 0, 88, 0
1, 90364, Note_on_c, 0, 86, 0
1, 90368, Note_on_c, 0, 91, 0
1, 90378, Note_on_c, 9, 44, 0
1, 90384, Note_on_c, 0, 81, 0
1, 90416, Note_on_c, 0, 65, 0
1, 90420, Note_on_c, 0, 55, 0
1, 90422, Note_on_c, 9, 59, 0
1, 90468, Note_on_c, 0, 58, 0
1, 90524, Note_on_c, 0, 61, 0
1, 90564, Note_on_c, 1, 37, 0
1, 90566, Note_on_c, 9, 59, 87
1, 90568, Note_on_c, 1, 38, 67
1, 90588, Note_on_c, 0, 60, 58
1, 90600, Note_on_c, 0, 53, 54
1, 90600, Note_on_c, 0, 64, 56
1, 90604, Note_on_c, 0, 88, 58
1, 90612, Note_on_c, 0, 76, 48
1, 90612, Note_on_c, 0, 81, 54
1, 90616, Note_on_c, 0, 84, 49
1, 90628, Note_on_c, 0, 57, 34
1, 90648, Control_c, 0, 64, 127
1, 90740, Note_on_c, 0, 88, 0
1, 90752, Note_on_c, 0, 84, 0
1, 90760, Note_on_c, 0, 81, 0
1, 90784, Note_on_c, 0, 76, 0
1, 90796, Note_on_c, 0, 64, 0
1, 90804, Note_on_c, 0, 57, 0
1, 90824, Note_on_c, 0, 53, 0
1, 90826, Note_on_c, 9, 59, 0
1, 90832, Note_on_c, 0, 60, 0
1, 90864, Note_on_c, 1, 37, 49
1, 90888, Control_c, 0, 64, 0
1, 90944, Note_on_c, 1, 38, 0
1, 90948, Note_on_c, 1, 44, 66
1, 90950, Note_on_c, 9, 59, 80
1, 90954, Note_on_c, 9, 44, 106
1, 90960, Note_on_c, 1, 37, 0
1, 90976, Note_on_c, 0, 60, 52
1, 90976, Note_on_c, 0, 53, 51
1, 90976, Note_on_c, 0, 64, 57
1, 90976, Note_on_c, 0, 84, 56
1, 90984, Note_on_c, 0, 72, 54
1, 90996, Note_on_c, 0, 57, 49
1, 90996, Note_on_c, 0, 77, 54
1, 91000, Note_on_c, 0, 81, 46
1, 91016, Control_c, 0, 64, 127
1, 91016, Note_on_c, 0, 83, 29
1, 91068, Note_on_c, 0, 81, 0
1, 91084, Note_on_c, 0, 84, 0
1, 91108, Note_on_c, 0, 83, 0
1, 91112, Note_on_c, 0, 64, 0
1, 91112, Note_on_c, 0, 60, 0
1, 91116, Note_on_c, 0, 77, 0
1, 91140, Note_on_c, 9, 44, 0
1, 91140, Note_on_c, 0, 72, 0
1, 91144, Note_on_c, 0, 57, 0
1, 91180, Note_on_c, 9, 59, 0
1, 91188, Note_on_c, 0, 53, 0
1, 91192, Note_on_c, 1, 38, 25
1, 91206, Note_on_c, 9, 59, 94
1, 91226, Note_on_c, 9, 35, 36
1, 91244, Note_on_c, 1, 38, 0
1, 91264, Note_on_c, 9, 35, 0
1, 91276, Control_c, 0, 64, 0
1, 91302, Note_on_c, 9, 59, 0
1, 91324, Note_on_c, 1, 44, 0
1, 91334, Note_on_c, 9, 59, 61
1, 91336, Note_on_c, 1, 43, 66
1, 91364, Note_on_c, 9, 35, 31
1, 91368, Note_on_c, 0, 74, 55
1, 91368, Note_on_c, 0, 81, 55
1, 91368, Note_on_c, 0, 53, 52
1, 91368, Note_on_c, 0, 64, 50
1, 91368, Note_on_c, 0, 69, 43
1, 91368, Note_on_c, 0, 59, 52
1, 91368, Note_on_c, 0, 77, 50
1, 91388, Control_c, 0, 64, 127
1, 91404, Note_on_c, 9, 35, 0
1, 91516, Note_on_c, 0, 64, 0
1, 91532, Note_on_c, 0, 59, 0
1, 91536, Note_on_c, 0, 81, 0
1, 91552, Note_on_c, 0, 53, 0
1, 91564, Note_on_c, 0, 74, 0
1, 91576, Note_on_c, 0, 69, 0
1, 91588, Note_on_c, 0, 77, 0
1, 91604, Note_on_c, 1, 38, 49
1, 91628, Note_on_c, 9, 37, 48
1, 91644, Note_on_c, 9, 59, 0
1, 91648, Note_on_c, 1, 38, 0
1, 91664, Control_c, 0, 64, 0
1, 91668, Note_on_c, 1, 43, 0
1, 91712, Note_on_c, 1, 41, 60
1, 91716, Note_on_c, 9, 37, 0
1, 91718, Note_on_c, 9, 59, 68
1, 91722, Note_on_c, 9, 44, 110
1, 91744, Note_on_c, 0, 80, 56
1, 91752, Note_on_c, 0, 63, 54
1, 91756, Control_c, 0, 64, 127
1, 91760, Note_on_c, 0, 75, 62
1, 91760, Note_on_c, 0, 68, 50
1, 91764, Note_on_c, 0, 59, 44
1, 91772, Note_on_c, 0, 53, 28
1, 91780, Note_on_c, 0, 56, 35
1, 91840, Note_on_c, 0, 59, 0
1, 91856, Note_on_c, 0, 63, 0
1, 91860, Note_on_c, 0, 53, 0
1, 91876, Note_on_c, 0, 56, 0
1, 91882, Note_on_c, 9, 44, 0
1, 91928, Note_on_c, 0, 80, 0
1, 91940, Note_on_c, 0, 68, 0
1, 91948, Note_on_c, 0, 75, 0
1, 91960, Note_on_c, 1, 38, 27
1, 91972, Note_on_c, 9, 35, 38
1, 91978, Note_on_c, 9, 59, 0
1, 91988, Control_c, 0, 64, 0
1, 92006, Note_on_c, 9, 35, 0
1, 92008, Note_on_c, 1, 38, 0
1, 92020, Note_on_c, 0, 62, 51
1, 92024, Note_on_c, 0, 52, 51
1, 92032, Note_on_c, 0, 79, 53
1, 92036, Note_on_c, 0, 59, 41
1, 92040, Note_on_c, 0, 55, 45
1, 92040, Note_on_c, 0, 67, 52
1, 92044, Note_on_c, 0, 74, 54
1, 92080, Note_on_c, 1, 41, 0
1, 92100, Control_c, 0, 64, 127
1, 92100, Note_on_c, 1, 40, 61
1, 92102, Note_on_c, 9, 59, 77
1, 92156, Note_on_c, 0, 67, 0
1, 92176, Note_on_c, 0, 59, 0
1, 92176, Note_on_c, 0, 55, 0
1, 92184, Note_on_c, 0, 62, 0
1, 92224, Note_on_c, 0, 52, 0
1, 92244, Note_on_c, 0, 74, 0
1, 92320, Note_on_c, 0, 79, 0
1, 92358, Note_on_c, 9, 59, 0
1, 92400, Note_on_c, 0, 62, 63
1, 92408, Note_on_c, 0, 52, 48
1, 92416, Note_on_c, 0, 59, 41
1, 92432, Note_on_c, 0, 55, 46
1, 92452, Note_on_c, 1, 40, 0
1, 92486, Note_on_c, 9, 59, 64
1, 92488, Note_on_c, 1, 36, 68
1, 92490, Note_on_c, 9, 44, 92
1, 92540, Note_on_c, 0, 59, 0
1, 92540, Note_on_c, 0, 55, 0
1, 92560, Note_on_c, 0, 52, 0
1, 92612, Note_on_c, 0, 62, 0
1, 92650, Note_on_c, 9, 44, 0
1, 92684, Note_on_c, 0, 81, 76
1, 92726, Note_on_c, 9, 59, 0
1, 92746, Note_on_c, 9, 35, 38
1, 92756, Note_on_c, 0, 81, 0
1, 92778, Note_on_c, 9, 35, 0
1, 92812, Note_on_c, 0, 83, 77
1, 92844, Note_on_c, 1, 36, 0
1, 92864, Note_on_c, 1, 34, 69
1, 92868, Note_on_c, 9, 59, 78
1, 92872, Control_c, 0, 64, 0
1, 92908, Note_on_c, 0, 83, 0
1, 92936, Note_on_c, 0, 56, 56
1, 92944, Note_on_c, 0, 67, 50
1, 92952, Note_on_c, 0, 84, 84
1, 92956, Note_on_c, 0, 62, 55
1, 93104, Note_on_c, 0, 62, 0
1, 93148, Note_on_c, 0, 84, 0
1, 93190, Note_on_c, 9, 59, 0
1, 93192, Note_on_c, 1, 34, 0
1, 93204, Note_on_c, 0, 62, 28
1, 93228, Note_on_c, 0, 67, 0
1, 93240, Note_on_c, 1, 34, 75
1, 93254, Note_on_c, 9, 59, 64
1, 93258, Note_on_c, 9, 44, 113
1, 93272, Note_on_c, 0, 76, 57
1, 93304, Note_on_c, 0, 62, 0
1, 93332, Note_on_c, 0, 76, 0
1, 93418, Note_on_c, 9, 44, 0
1, 93420, Note_on_c, 0, 78, 56
1, 93432, Note_on_c, 0, 56, 0
1, 93492, Note_on_c, 0, 78, 0
1, 93532, Note_on_c, 0, 79, 80
1, 93540, Note_on_c, 0, 66, 59
1, 93542, Note_on_c, 9, 59, 0
1, 93544, Note_on_c, 0, 61, 57
1, 93548, Note_on_c, 0, 55, 52
1, 93632, Note_on_c, 1, 33, 68
1, 93638, Note_on_c, 9, 59, 68
1, 93648, Note_on_c, 1, 34, 0
1, 93708, Note_on_c, 0, 79, 0
1, 93780, Note_on_c, 0, 72, 43
1, 93812, Note_on_c, 0, 72, 0
1, 93892, Note_on_c, 0, 66, 0
1, 93894, Note_on_c, 9, 53, 85
1, 93896, Note_on_c, 0, 73, 56
1, 93898, Note_on_c, 9, 59, 0
1, 93976, Note_on_c, 0, 73, 0
1, 93984, Note_on_c, 1, 33, 0
1, 93994, Note_on_c, 9, 53, 0
1, 94012, Note_on_c, 1, 40, 80
1, 94022, Note_on_c, 9, 59, 64
1, 94024, Note_on_c, 0, 75, 66
1, 94026, Note_on_c, 9, 44, 108
1, 94112, Note_on_c, 0, 55, 0
1, 94176, Note_on_c, 0, 61, 0
1, 94180, Note_on_c, 9, 44, 0
1, 94236, Note_on_c, 0, 75, 0
1, 94248, Note_on_c, 0, 61, 47
1, 94264, Note_on_c, 0, 64, 44
1, 94264, Note_on_c, 0, 69, 48
1, 94276, Note_on_c, 0, 55, 36
1, 94292, Note_on_c, 9, 35, 42
1, 94332, Note_on_c, 9, 59, 0
1, 94368, Note_on_c, 1, 40, 0
1, 94380, Note_on_c, 9, 35, 0
1, 94384, Note_on_c, 0, 69, 0
1, 94388, Note_on_c, 1, 37, 64
1, 94404, Note_on_c, 0, 64, 0
1, 94406, Note_on_c, 9, 59, 68
1, 94428, Note_on_c, 9, 35, 38
1, 94500, Note_on_c, 0, 61, 0
1, 94568, Note_on_c, 0, 70, 66
1, 94612, Note_on_c, 9, 35, 0
1, 94644, Note_on_c, 9, 35, 69
1, 94660, Note_on_c, 0, 70, 0
1, 94682, Note_on_c, 9, 59, 0
1, 94684, Note_on_c, 0, 72, 66
1, 94684, Note_on_c, 9, 35, 33
1, 94696, Note_on_c, 0, 61, 44
1, 94708, Note_on_c, 0, 64, 29
1, 94716, Note_on_c, 9, 35, 0
1, 94718, Note_on_c, 9, 35, 0
1, 94740, Note_on_c, 1, 37, 0
1, 94748, Note_on_c, 0, 64, 0
1, 94772, Note_on_c, 1, 39, 73
1, 94776, Note_on_c, 0, 72, 0
1, 94790, Note_on_c, 9, 59, 80
1, 94794, Note_on_c, 9, 46, 57
1, 94836, Note_on_c, 0, 55, 0
1, 94840, Note_on_c, 0, 68, 40
1, 94852, Note_on_c, 9, 46, 0
1, 94940, Note_on_c, 0, 68, 0
1, 94952, Note_on_c, 0, 61, 0
1, 94968, Note_on_c, 0, 69, 54
1, 95030, Note_on_c, 9, 59, 0
1, 95044, Note_on_c, 0, 69, 0
1, 95044, Note_on_c, 9, 35, 66
1, 95046, Note_on_c, 9, 59, 54
1, 95080, Note_on_c, 0, 72, 74
1, 95110, Note_on_c, 9, 59, 0
1, 95112, Note_on_c, 0, 64, 39
1, 95120, Note_on_c, 0, 54, 39
1, 95132, Note_on_c, 0, 60, 43
1, 95136, Note_on_c, 1, 39, 0
1, 95152, Note_on_c, 1, 38, 68
1, 95164, Note_on_c, 9, 35, 0
1, 95172, Note_on_c, 0, 64, 0
1, 95174, Note_on_c, 9, 59, 101
1, 95184, Note_on_c, 0, 72, 0
1, 95202, Note_on_c, 9, 36, 36
1, 95220, Note_on_c, 0, 60, 0
1, 95232, Note_on_c, 0, 69, 46
1, 95328, Note_on_c, 9, 36, 0
1, 95434, Note_on_c, 9, 36, 43
1, 95448, Note_on_c, 1, 37, 45
1, 95468, Note_on_c, 0, 60, 23
1, 95480, Note_on_c, 0, 69, 0
1, 95494, Note_on_c, 9, 59, 0
1, 95496, Note_on_c, 0, 64, 68
1, 95512, Note_on_c, 0, 60, 0
1, 95524, Note_on_c, 9, 36, 0
1, 95528, Note_on_c, 1, 38, 0
1, 95548, Note_on_c, 1, 37, 0
1, 95548, Note_on_c, 1, 50, 83
1, 95558, Note_on_c, 9, 59, 80
1, 95562, Note_on_c, 9, 44, 108
1, 95580, Note_on_c, 0, 64, 0
1, 95620, Note_on_c, 9, 36, 20
1, 95652, Note_on_c, 0, 64, 35
1, 95672, Note_on_c, 9, 36, 0
1, 95684, Note_on_c, 9, 44, 0
1, 95776, Note_on_c, 0, 64, 0
1, 95802, Note_on_c, 9, 35, 45
1, 95804, Note_on_c, 9, 59, 0
1, 95814, Note_on_c, 9, 59, 56
1, 95868, Note_on_c, 0, 60, 45
1, 95894, Note_on_c, 9, 59, 0
1, 95898, Note_on_c, 9, 35, 0
1, 95920, Note_on_c, 1, 50, 0
1, 95928, Note_on_c, 0, 60, 0
1, 95940, Note_on_c, 9, 35, 26
1, 95942, Note_on_c, 9, 59, 66
1, 95948, Note_on_c, 1, 45, 66
1, 95966, Note_on_c, 9, 36, 34
1, 95988, Note_on_c, 0, 62, 48
1, 96038, Note_on_c, 9, 36, 0
1, 96052, Note_on_c, 9, 35, 0
1, 96060, Note_on_c, 0, 67, 39
1, 96064, Note_on_c, 0, 62, 0
1, 96084, Note_on_c, 0, 63, 58
1, 96112, Note_on_c, 0, 67, 0
1, 96132, Note_on_c, 0, 54, 0
1, 96168, Note_on_c, 0, 62, 37
1, 96182, Note_on_c, 9, 59, 0
1, 96196, Note_on_c, 9, 59, 43
1, 96216, Note_on_c, 0, 63, 0
1, 96240, Note_on_c, 0, 62, 0
1, 96240, Note_on_c, 0, 60, 55
1, 96244, Note_on_c, 1, 41, 28
1, 96262, Note_on_c, 9, 59, 0
1, 96268, Note_on_c, 0, 54, 39
1, 96280, Note_on_c, 1, 45, 0
1, 96280, Note_on_c, 1, 41, 0
1, 96292, Note_on_c, 0, 60, 0
1, 96316, Note_on_c, 1, 44, 62
1, 96326, Note_on_c, 9, 59, 106
1, 96330, Note_on_c, 9, 44, 117
1, 96356, Note_on_c, 0, 67, 64
1, 96360, Note_on_c, 0, 62, 68
1, 96420, Note_on_c, 0, 54, 0
1, 96458, Note_on_c, 9, 44, 0
1, 96524, Note_on_c, 0, 62, 0
1, 96628, Note_on_c, 0, 57, 50
1, 96630, Note_on_c, 9, 59, 0
1, 96660, Note_on_c, 1, 44, 0
1, 96676, Note_on_c, 0, 67, 0
1, 96692, Note_on_c, 0, 57, 0
1, 96696, Note_on_c, 1, 43, 63
1, 96710, Note_on_c, 9, 59, 85
1, 96740, Note_on_c, 0, 60, 54
1, 96838, Note_on_c, 9, 31, 42
1, 96880, Note_on_c, 9, 31, 0
1, 96924, Note_on_c, 9, 59, 0
1, 96972, Note_on_c, 1, 38, 52
1, 96976, Note_on_c, 0, 31, 66
1, 96980, Note_on_c, 0, 43, 57
1, 97008, Note_on_c, 1, 43, 0
1, 97028, Note_on_c, 0, 60, 0
1, 97036, Control_c, 0, 64, 127
1, 97094, Note_on_c, 1, 32, 85
1, 97094, Note_on_c, 9, 59, 64
1, 97098, Note_on_c, 9, 44, 110
1, 97100, Note_on_c, 9, 31, 31
1, 97120, Note_on_c, 1, 38, 0
1, 97142, Note_on_c, 9, 31, 0
1, 97204, Note_on_c, 9, 44, 0
1, 97350, Note_on_c, 9, 59, 43
1, 97354, Note_on_c, 9, 59, 0
1, 97354, Note_on_c, 9, 35, 57
1, 97384, Note_on_c, 0, 34, 45
1, 97386, Note_on_c, 9, 35, 0
1, 97396, Note_on_c, 0, 31, 0
1, 97400, Note_on_c, 0, 43, 0
1, 97416, Note_on_c, 0, 34, 0
1, 97424, Control_c, 0, 64, 0
1, 97434, Note_on_c, 9, 59, 0
1, 97440, Note_on_c, 1, 32, 0
1, 97468, Note_on_c, 1, 31, 75
1, 97478, Note_on_c, 9, 59, 92
1, 97492, Note_on_c, 0, 60, 60
1, 97492, Note_on_c, 0, 53, 54
1, 97496, Note_on_c, 0, 57, 52
1, 97620, Note_on_c, 9, 31, 57
1, 97658, Note_on_c, 9, 31, 0
1, 97672, Note_on_c, 0, 53, 0
1, 97692, Note_on_c, 0, 57, 0
1, 97712, Note_on_c, 0, 60, 0
1, 97768, Note_on_c, 0, 62, 50
1, 97776, Note_on_c, 0, 50, 47
1, 97798, Note_on_c, 9, 59, 0
1, 97828, Note_on_c, 0, 50, 0
1, 97836, Note_on_c, 1, 35, 75
1, 97844, Note_on_c, 1, 31, 0
1, 97852, Note_on_c, 9, 31, 57
1, 97862, Note_on_c, 0, 64, 70
1, 97862, Note_on_c, 9, 59, 59
1, 97866, Note_on_c, 9, 44, 113
1, 97872, Note_on_c, 0, 53, 65
1, 97880, Note_on_c, 0, 57, 47
1, 97884, Note_on_c, 0, 52, 57
1, 97900, Note_on_c, 0, 60, 50
1, 97910, Note_on_c, 9, 31, 0
1, 97978, Note_on_c, 9, 44, 0
1, 98056, Note_on_c, 0, 64, 0
1, 98064, Note_on_c, 0, 62, 0
1, 98080, Note_on_c, 0, 57, 0
1, 98084, Note_on_c, 0, 60, 0
1, 98096, Note_on_c, 1, 34, 44
1, 98122, Note_on_c, 9, 35, 40
1, 98134, Note_on_c, 9, 59, 0
1, 98140, Note_on_c, 0, 52, 0
1, 98144, Note_on_c, 0, 53, 0
1, 98168, Note_on_c, 0, 46, 45
1, 98192, Note_on_c, 9, 35, 0
1, 98196, Note_on_c, 1, 35, 0
1, 98212, Note_on_c, 1, 34, 0
1, 98216, Note_on_c, 1, 36, 63
1, 98244, Note_on_c, 0, 60, 48
1, 98246, Note_on_c, 9, 59, 89
1, 98252, Note_on_c, 0, 46, 0
1, 98252, Note_on_c, 0, 48, 51
1, 98260, Note_on_c, 0, 52, 57
1, 98264, Note_on_c, 0, 55, 48
1, 98266, Note_on_c, 9, 35, 36
1, 98276, Note_on_c, 0, 57, 36
1, 98436, Note_on_c, 9, 35, 0
1, 98460, Note_on_c, 0, 52, 0
1, 98476, Note_on_c, 0, 57, 0
1, 98480, Note_on_c, 0, 55, 0
1, 98484, Note_on_c, 0, 60, 0
1, 98502, Note_on_c, 9, 35, 47
1, 98522, Note_on_c, 9, 34, 36
1, 98528, Note_on_c, 9, 35, 0
1, 98532, Note_on_c, 0, 48, 0
1, 98544, Note_on_c, 0, 59, 38
1, 98566, Note_on_c, 9, 34, 0
1, 98572, Note_on_c, 9, 59, 0
1, 98588, Note_on_c, 0, 59, 0
1, 98588, Note_on_c, 0, 47, 22
1, 98604, Note_on_c, 1, 43, 70
1, 98628, Control_c, 0, 64, 127
1, 98630, Note_on_c, 9, 59, 56
1, 98634, Note_on_c, 9, 44, 119
1, 98636, Note_on_c, 0, 47, 0
1, 98648, Note_on_c, 0, 52, 57
1, 98648, Note_on_c, 0, 60, 61
1, 98648, Note_on_c, 0, 48, 49
1, 98652, Note_on_c, 0, 55, 52
1, 98656, Note_on_c, 0, 59, 25
1, 98736, Note_on_c, 0, 52, 0
1, 98740, Note_on_c, 9, 44, 0
1, 98764, Note_on_c, 0, 55, 0
1, 98768, Note_on_c, 0, 48, 0
1, 98820, Note_on_c, 0, 59, 0
1, 98824, Note_on_c, 0, 60, 0
1, 98886, Note_on_c, 9, 59, 54
1, 98890, Note_on_c, 9, 59, 0
1, 98932, Note_on_c, 9, 36, 36
1, 98940, Note_on_c, 1, 43, 0
1, 98948, Note_on_c, 1, 36, 0
1, 98976, Note_on_c, 9, 36, 0
1, 98982, Note_on_c, 9, 59, 0
1, 98992, Note_on_c, 1, 51, 66
1, 99008, Control_c, 0, 64, 0
1, 99014, Note_on_c, 9, 59, 75
1, 99048, Note_on_c, 0, 61, 61
1, 99048, Note_on_c, 0, 58, 63
1, 99052, Note_on_c, 0, 67, 55
1, 99052, Note_on_c, 0, 53, 58
1, 99060, Note_on_c, 0, 64, 52
1, 99232, Note_on_c, 0, 53, 0
1, 99232, Note_on_c, 0, 67, 0
1, 99254, Note_on_c, 9, 32, 40
1, 99268, Note_on_c, 0, 58, 0
1, 99268, Note_on_c, 9, 34, 60
1, 99276, Note_on_c, 9, 32, 0
1, 99280, Note_on_c, 0, 61, 0
1, 99292, Note_on_c, 0, 64, 0
1, 99302, Note_on_c, 9, 59, 0
1, 99304, Note_on_c, 0, 52, 41
1, 99360, Note_on_c, 9, 34, 0
1, 99364, Note_on_c, 1, 39, 66
1, 99398, Note_on_c, 9, 59, 82
1, 99402, Note_on_c, 9, 44, 113
1, 99404, Note_on_c, 0, 52, 0
1, 99412, Note_on_c, 0, 55, 58
1, 99412, Note_on_c, 0, 58, 68
1, 99416, Note_on_c, 0, 61, 63
1, 99416, Note_on_c, 0, 67, 57
1, 99436, Note_on_c, 0, 64, 41
1, 99452, Note_on_c, 1, 51, 0
1, 99492, Note_on_c, 9, 44, 0
1, 99500, Control_c, 0, 64, 127
1, 99552, Note_on_c, 0, 67, 0
1, 99596, Note_on_c, 0, 64, 0
1, 99644, Note_on_c, 9, 59, 0
1, 99654, Note_on_c, 9, 59, 49
1, 99672, Note_on_c, 1, 37, 50
1, 99680, Control_c, 0, 64, 0
1, 99688, Note_on_c, 0, 58, 0
1, 99696, Note_on_c, 0, 55, 0
1, 99712, Note_on_c, 0, 51, 42
1, 99716, Note_on_c, 0, 61, 0
1, 99738, Note_on_c, 9, 59, 0
1, 99752, Note_on_c, 0, 51, 0
1, 99782, Note_on_c, 9, 59, 98
1, 99788, Note_on_c, 1, 50, 71
1, 99792, Note_on_c, 0, 53, 48
1, 99796, Note_on_c, 0, 65, 55
1, 99800, Note_on_c, 0, 62, 50
1, 99800, Note_on_c, 0, 60, 50
1, 99800, Note_on_c, 0, 57, 43
1, 99816, Note_on_c, 1, 39, 0
1, 99828, Note_on_c, 1, 37, 0
1, 99832, Control_c, 0, 64, 127
1, 99912, Note_on_c, 0, 57, 0
1, 99952, Note_on_c, 0, 62, 0
1, 99956, Note_on_c, 0, 65, 0
1, 99972, Note_on_c, 0, 60, 0
1, 100034, Note_on_c, 9, 34, 58
1, 100038, Note_on_c, 9, 35, 42
1, 100048, Note_on_c, 0, 53, 0
1, 100064, Note_on_c, 0, 51, 39
1, 100076, Note_on_c, 9, 35, 0
1, 100084, Control_c, 0, 64, 0
1, 100108, Note_on_c, 9, 59, 0
1, 100124, Note_on_c, 9, 34, 0
1, 100148, Note_on_c, 0, 51, 0
1, 100160, Note_on_c, 1, 50, 0
1, 100166, Note_on_c, 9, 59, 73
1, 100166, Note_on_c, 9, 35, 33
1, 100170, Note_on_c, 9, 44, 122
1, 100172, Control_c, 0, 64, 127
1, 100172, Note_on_c, 0, 69, 71
1, 100176, Note_on_c, 0, 57, 63
1, 100176, Note_on_c, 1, 42, 67
1, 100180, Note_on_c, 0, 60, 66
1, 100180, Note_on_c, 0, 62, 63
1, 100180, Note_on_c, 0, 65, 51
1, 100266, Note_on_c, 9, 44, 0
1, 100276, Note_on_c, 0, 65, 0
1, 100276, Note_on_c, 0, 62, 0
1, 100276, Note_on_c, 0, 60, 0
1, 100292, Note_on_c, 0, 69, 0
1, 100344, Note_on_c, 0, 57, 0
1, 100358, Note_on_c, 9, 35, 0
1, 100364, Note_on_c, 0, 58, 44
1, 100408, Control_c, 0, 64, 0
1, 100414, Note_on_c, 9, 36, 56
1, 100440, Note_on_c, 0, 72, 81
1, 100442, Note_on_c, 9, 36, 0
1, 100448, Note_on_c, 0, 58, 0
1, 100452, Note_on_c, 0, 65, 76
1, 100452, Note_on_c, 0, 62, 78
1, 100456, Note_on_c, 0, 69, 66
1, 100456, Note_on_c, 0, 60, 81
1, 100470, Note_on_c, 9, 59, 0
1, 100524, Note_on_c, 1, 42, 0
1, 100528, Note_on_c, 0, 62, 0
1, 100536, Note_on_c, 0, 65, 0
1, 100536, Note_on_c, 0, 60, 0
1, 100550, Note_on_c, 1, 43, 72
1, 100550, Note_on_c, 9, 59, 64
1, 100560, Note_on_c, 0, 72, 0
1, 100564, Note_on_c, 0, 69, 0
1, 100628, Control_c, 0, 64, 127
1, 100656, Note_on_c, 0, 68, 77
1, 100656, Note_on_c, 0, 64, 75
1, 100660, Note_on_c, 0, 73, 57
1, 100660, Note_on_c, 0, 76, 71
1, 100668, Note_on_c, 0, 65, 74
1, 100672, Note_on_c, 0, 74, 73
1, 100672, Note_on_c, 0, 71, 61
1, 100672, Note_on_c, 0, 70, 43
1, 100694, Note_on_c, 9, 35, 42
1, 100696, Note_on_c, 0, 74, 0
1, 100700, Note_on_c, 0, 71, 0
1, 100732, Note_on_c, 9, 35, 0
1, 100792, Note_on_c, 0, 64, 0
1, 100800, Note_on_c, 1, 43, 0
1, 100800, Note_on_c, 9, 36, 59
1, 100808, Note_on_c, 1, 38, 66
1, 100810, Note_on_c, 9, 35, 33
1, 100812, Note_on_c, 0, 73, 0
1, 100816, Note_on_c, 0, 76, 0
1, 100824, Note_on_c, 0, 70, 0
1, 100828, Control_c, 0, 64, 0
1, 100844, Note_on_c, 9, 35, 0
1, 100848, Note_on_c, 0, 65, 0
1, 100856, Note_on_c, 1, 38, 0
1, 100864, Note_on_c, 9, 36, 0
1, 100864, Note_on_c, 0, 68, 0
1, 100876, Note_on_c, 9, 59, 0
1, 100916, Note_on_c, 1, 35, 67
1, 100928, Control_c, 0, 64, 127
1, 100934, Note_on_c, 9, 59, 78
1, 100936, Note_on_c, 0, 63, 66
1, 100938, Note_on_c, 9, 44, 117
1, 100940, Note_on_c, 0, 75, 75
1, 100940, Note_on_c, 0, 68, 58
1, 100940, Note_on_c, 0, 53, 57
1, 100940, Note_on_c, 9, 35, 52
1, 100956, Note_on_c, 0, 59, 48
1, 100964, Note_on_c, 0, 65, 54
1, 100968, Note_on_c, 0, 56, 36
1, 100988, Note_on_c, 0, 59, 0
1, 101028, Note_on_c, 9, 44, 0
1, 101064, Note_on_c, 0, 65, 0
1, 101088, Note_on_c, 0, 53, 0
1, 101092, Note_on_c, 0, 63, 0
1, 101100, Note_on_c, 9, 35, 0
1, 101116, Note_on_c, 0, 56, 0
1, 101128, Note_on_c, 0, 75, 0
1, 101136, Note_on_c, 0, 68, 0
1, 101176, Control_c, 0, 64, 0
1, 101178, Note_on_c, 9, 35, 59
1, 101198, Note_on_c, 9, 34, 66
1, 101210, Note_on_c, 9, 35, 0
1, 101212, Note_on_c, 0, 62, 64
1, 101212, Note_on_c, 0, 76, 69
1, 101220, Note_on_c, 0, 72, 61
1, 101220, Note_on_c, 0, 52, 50
1, 101220, Note_on_c, 0, 67, 59
1, 101220, Note_on_c, 0, 69, 61
1, 101220, Note_on_c, 0, 57, 57
1, 101254, Note_on_c, 9, 34, 0
1, 101260, Note_on_c, 1, 35, 0
1, 101286, Note_on_c, 9, 59, 0
1, 101292, Control_c, 0, 64, 127
1, 101304, Note_on_c, 0, 67, 0
1, 101304, Note_on_c, 1, 36, 65
1, 101318, Note_on_c, 9, 59, 70
1, 101348, Note_on_c, 0, 69, 0
1, 101354, Note_on_c, 9, 36, 81
1, 101360, Note_on_c, 0, 72, 0
1, 101364, Note_on_c, 9, 57, 57
1, 101372, Note_on_c, 0, 57, 0
1, 101392, Note_on_c, 0, 76, 0
1, 101396, Note_on_c, 0, 62, 0
1, 101416, Note_on_c, 0, 52, 0
1, 101600, Note_on_c, 0, 88, 89
1, 101600, Note_on_c, 0, 62, 75
1, 101604, Note_on_c, 0, 76, 81
1, 101604, Note_on_c, 0, 57, 70
1, 101608, Note_on_c, 0, 52, 66
1, 101654, Note_on_c, 9, 59, 0
1, 101664, Note_on_c, 0, 76, 0
1, 101680, Note_on_c, 1, 36, 0
1, 101684, Note_on_c, 1, 34, 68
1, 101688, Note_on_c, 0, 88, 0
1, 101692, Note_on_c, 0, 62, 0
1, 101696, Note_on_c, 0, 52, 0
1, 101702, Note_on_c, 9, 59, 84
1, 101706, Note_on_c, 9, 44, 120
1, 101712, Note_on_c, 0, 57, 0
1, 101760, Note_on_c, 0, 91, 102
1, 101760, Note_on_c, 0, 52, 61
1, 101764, Note_on_c, 0, 62, 61
1, 101768, Note_on_c, 0, 57, 61
1, 101768, Note_on_c, 0, 79, 68
1, 101784, Note_on_c, 0, 81, 66
1, 101792, Note_on_c, 9, 44, 0
1, 101804, Note_on_c, 0, 81, 0
1, 101828, Note_on_c, 0, 79, 0
1, 101832, Note_on_c, 0, 52, 0
1, 101852, Note_on_c, 0, 57, 0
1, 101860, Note_on_c, 0, 91, 0
1, 101868, Note_on_c, 0, 62, 0
1, 101900, Note_on_c, 9, 59, 0
1, 101958, Note_on_c, 9, 59, 84
1, 101978, Note_on_c, 9, 35, 68
1, 102000, Note_on_c, 0, 65, 94
1, 102000, Note_on_c, 0, 55, 81
1, 102000, Note_on_c, 0, 93, 99
1, 102000, Note_on_c, 0, 81, 96
1, 102000, Note_on_c, 0, 58, 67
1, 102000, Note_on_c, 0, 90, 78
1, 102000, Note_on_c, 0, 61, 66
1, 102000, Note_on_c, 0, 88, 81
1, 102026, Note_on_c, 9, 35, 0
1, 102032, Note_on_c, 0, 90, 0
1, 102036, Note_on_c, 1, 34, 0
1, 102036, Note_on_c, 9, 57, 0
1, 102038, Note_on_c, 9, 59, 0
1, 102056, Note_on_c, 0, 81, 0
1, 102068, Note_on_c, 1, 33, 67
1, 102086, Note_on_c, 0, 88, 0
1, 102086, Note_on_c, 9, 59, 73
1, 102096, Note_on_c, 0, 93, 0
1, 102100, Note_on_c, 0, 65, 0
1, 102104, Control_c, 0, 64, 0
1, 102112, Note_on_c, 0, 55, 0
1, 102124, Note_on_c, 0, 61, 0
1, 102128, Note_on_c, 0, 58, 0
1, 102164, Note_on_c, 0, 96, 107
1, 102164, Note_on_c, 0, 65, 80
1, 102164, Note_on_c, 0, 91, 98
1, 102164, Note_on_c, 0, 55, 75
1, 102164, Note_on_c, 0, 61, 75
1, 102164, Note_on_c, 0, 84, 85
1, 102164, Note_on_c, 0, 58, 84
1, 102228, Control_c, 0, 64, 127
1, 102302, Note_on_c, 9, 36, 0
1, 102352, Note_on_c, 0, 96, 0
1, 102364, Note_on_c, 0, 91, 0
1, 102364, Note_on_c, 1, 34, 48
1, 102392, Note_on_c, 0, 65, 0
1, 102396, Note_on_c, 1, 33, 0
1, 102396, Control_c, 0, 64, 0
1, 102400, Note_on_c, 0, 55, 0
1, 102400, Note_on_c, 0, 84, 0
1, 102408, Note_on_c, 0, 58, 0
1, 102410, Note_on_c, 9, 59, 0
1, 102416, Note_on_c, 0, 61, 0
1, 102448, Note_on_c, 1, 34, 0
1, 102468, Note_on_c, 1, 39, 63
1, 102470, Note_on_c, 9, 59, 103
1, 102474, Note_on_c, 9, 44, 112
1, 102500, Note_on_c, 0, 93, 80
1, 102504, Note_on_c, 0, 55, 61
1, 102504, Note_on_c, 0, 88, 74
1, 102504, Note_on_c, 0, 61, 60
1, 102504, Note_on_c, 0, 81, 70
1, 102504, Note_on_c, 0, 65, 63
1, 102516, Control_c, 0, 64, 127
1, 102520, Note_on_c, 0, 58, 58
1, 102576, Note_on_c, 0, 81, 0
1, 102580, Note_on_c, 9, 44, 0
1, 102600, Note_on_c, 0, 88, 0
1, 102608, Note_on_c, 0, 93, 0
1, 102612, Note_on_c, 0, 65, 0
1, 102624, Note_on_c, 0, 55, 0
1, 102644, Note_on_c, 0, 58, 0
1, 102692, Note_on_c, 0, 61, 0
1, 102694, Note_on_c, 9, 59, 0
1, 102724, Control_c, 0, 64, 0
1, 102726, Note_on_c, 9, 59, 63
1, 102748, Note_on_c, 1, 39, 0
1, 102756, Note_on_c, 1, 34, 41
1, 102760, Note_on_c, 0, 60, 74
1, 102760, Note_on_c, 0, 96, 79
1, 102764, Note_on_c, 0, 53, 69
1, 102764, Note_on_c, 0, 64, 80
1, 102768, Note_on_c, 0, 57, 70
1, 102768, Note_on_c, 0, 91, 80
1, 102772, Note_on_c, 0, 84, 74
1, 102810, Note_on_c, 9, 59, 0
1, 102844, Control_c, 0, 64, 127
1, 102848, Note_on_c, 1, 34, 0
1, 102852, Note_on_c, 1, 38, 70
1, 102854, Note_on_c, 9, 59, 56
1, 102876, Note_on_c, 9, 35, 28
1, 102916, Note_on_c, 9, 35, 0
1, 103120, Note_on_c, 1, 34, 48
1, 103180, Note_on_c, 1, 38, 0
1, 103190, Note_on_c, 9, 59, 0
1, 103220, Note_on_c, 0, 84, 0
1, 103224, Note_on_c, 0, 64, 0
1, 103232, Note_on_c, 1, 34, 0
1, 103236, Note_on_c, 9, 59, 92
1, 103240, Note_on_c, 1, 45, 68
1, 103242, Note_on_c, 9, 44, 120
1, 103256, Note_on_c, 0, 60, 0
1, 103256, Note_on_c, 1, 46, 39
1, 103260, Note_on_c, 0, 91, 0
1, 103268, Note_on_c, 0, 57, 0
1, 103284, Note_on_c, 0, 96, 0
1, 103296, Note_on_c, 1, 46, 0
1, 103312, Note_on_c, 0, 53, 0
1, 103338, Note_on_c, 9, 44, 0
1, 103452, Note_on_c, 9, 59, 0
1, 103494, Note_on_c, 9, 59, 59
1, 103500, Note_on_c, 9, 35, 29
1, 103532, Note_on_c, 9, 35, 0
1, 103574, Note_on_c, 9, 59, 0
1, 103584, Note_on_c, 1, 45, 0
1, 103612, Note_on_c, 1, 43, 60
1, 103620, Note_on_c, 9, 59, 68
1, 103636, Control_c, 0, 64, 0
1, 103664, Note_on_c, 0, 106, 96
1, 103664, Note_on_c, 0, 94, 90
1, 103664, Note_on_c, 0, 64, 85
1, 103668, Note_on_c, 0, 59, 76
1, 103668, Note_on_c, 0, 53, 80
1, 103760, Note_on_c, 0, 64, 0
1, 103764, Note_on_c, 0, 94, 0
1, 103768, Note_on_c, 0, 53, 0
1, 103776, Note_on_c, 0, 106, 0
1, 103792, Note_on_c, 0, 59, 0
1, 103800, Note_on_c, 0, 105, 79
1, 103812, Note_on_c, 0, 93, 72
1, 103812, Note_on_c, 0, 59, 35
1, 103812, Note_on_c, 0, 53, 65
1, 103812, Note_on_c, 0, 64, 75
1, 103820, Note_on_c, 0, 99, 60
1, 103824, Note_on_c, 0, 104, 52
1, 103860, Note_on_c, 0, 104, 0
1, 103860, Note_on_c, 0, 93, 0
1, 103868, Note_on_c, 0, 105, 0
1, 103876, Note_on_c, 0, 64, 0
1, 103880, Note_on_c, 0, 53, 0
1, 103900, Note_on_c, 0, 99, 0
1, 103908, Note_on_c, 0, 59, 0
1, 103936, Note_on_c, 0, 104, 77
1, 103940, Note_on_c, 0, 92, 75
1, 103944, Note_on_c, 0, 99, 70
1, 103944, Note_on_c, 0, 53, 67
1, 103944, Note_on_c, 0, 64, 65
1, 103944, Note_on_c, 0, 59, 74
1, 103946, Note_on_c, 9, 59, 0
1, 103972, Note_on_c, 1, 35, 69
1, 104006, Note_on_c, 9, 59, 92
1, 104010, Note_on_c, 9, 44, 119
1, 104012, Note_on_c, 1, 43, 0
1, 104020, Note_on_c, 0, 92, 0
1, 104020, Note_on_c, 0, 99, 0
1, 104028, Note_on_c, 0, 64, 0
1, 104032, Note_on_c, 0, 104, 0
1, 104036, Note_on_c, 0, 53, 0
1, 104084, Note_on_c, 0, 102, 66
1, 104088, Note_on_c, 0, 90, 68
1, 104096, Note_on_c, 0, 53, 58
1, 104104, Note_on_c, 0, 64, 54
1, 104148, Note_on_c, 9, 44, 0
1, 104148, Note_on_c, 0, 97, 26
1, 104214, Note_on_c, 9, 59, 0
1, 104232, Note_on_c, 0, 64, 0
1, 104236, Note_on_c, 0, 53, 0
1, 104248, Note_on_c, 0, 97, 0
1, 104252, Note_on_c, 0, 90, 0
1, 104256, Note_on_c, 0, 102, 0
1, 104262, Note_on_c, 9, 59, 52
1, 104272, Note_on_c, 0, 59, 0
1, 104308, Note_on_c, 0, 59, 40
1, 104324, Note_on_c, 0, 62, 71
1, 104324, Note_on_c, 0, 52, 61
1, 104324, Note_on_c, 0, 103, 82
1, 104324, Note_on_c, 0, 98, 76
1, 104330, Note_on_c, 9, 59, 0
1, 104332, Note_on_c, 0, 91, 71
1, 104336, Note_on_c, 0, 55, 65
1, 104356, Note_on_c, 0, 101, 39
1, 104360, Note_on_c, 0, 54, 31
1, 104372, Note_on_c, 1, 35, 0
1, 104388, Note_on_c, 1, 36, 68
1, 104390, Note_on_c, 9, 59, 66
1, 104422, Note_on_c, 9, 35, 22
1, 104456, Note_on_c, 0, 98, 0
1, 104458, Note_on_c, 9, 35, 0
1, 104468, Note_on_c, 0, 103, 0
1, 104468, Control_c, 0, 64, 127
1, 104472, Note_on_c, 0, 101, 0
1, 104504, Note_on_c, 0, 54, 0
1, 104504, Note_on_c, 0, 52, 0
1, 104504, Note_on_c, 0, 91, 0
1, 104512, Note_on_c, 0, 62, 0
1, 104520, Note_on_c, 0, 55, 0
1, 104540, Note_on_c, 0, 59, 0
1, 104576, Note_on_c, 0, 100, 73
1, 104588, Note_on_c, 0, 95, 57
1, 104592, Note_on_c, 0, 88, 48
1, 104592, Note_on_c, 0, 62, 61
1, 104596, Note_on_c, 0, 59, 51
1, 104600, Note_on_c, 0, 55, 42
1, 104600, Note_on_c, 0, 97, 39
1, 104608, Note_on_c, 0, 52, 39
1, 104652, Note_on_c, 0, 97, 0
1, 104676, Note_on_c, 0, 95, 0
1, 104676, Note_on_c, 0, 100, 0
1, 104692, Note_on_c, 0, 62, 0
1, 104696, Note_on_c, 1, 34, 35
1, 104704, Note_on_c, 0, 52, 0
1, 104708, Note_on_c, 0, 88, 0
1, 104710, Note_on_c, 9, 59, 0
1, 104716, Note_on_c, 0, 55, 0
1, 104728, Note_on_c, 0, 59, 0
1, 104764, Note_on_c, 1, 36, 0
1, 104768, Control_c, 0, 64, 0
1, 104768, Note_on_c, 1, 48, 85
1, 104774, Note_on_c, 9, 59, 61
1, 104778, Note_on_c, 9, 44, 112
1, 104792, Note_on_c, 1, 34, 0
1, 104804, Control_c, 0, 64, 127
1, 104812, Note_on_c, 0, 96, 47
1, 104816, Note_on_c, 0, 91, 62
1, 104816, Note_on_c, 0, 62, 56
1, 104816, Note_on_c, 0, 84, 52
1, 104820, Note_on_c, 0, 59, 42
1, 104832, Note_on_c, 0, 55, 39
1, 104888, Note_on_c, 0, 55, 0
1, 104892, Note_on_c, 0, 59, 0
1, 104906, Note_on_c, 9, 44, 0
1, 104912, Note_on_c, 0, 91, 0
1, 104920, Note_on_c, 0, 96, 0
1, 104940, Note_on_c, 9, 59, 0
1, 104952, Note_on_c, 0, 62, 0
1, 104956, Note_on_c, 0, 84, 0
1, 105030, Note_on_c, 9, 59, 49
1, 105044, Control_c, 0, 64, 0
1, 105050, Note_on_c, 9, 35, 29
1, 105076, Note_on_c, 0, 93, 49
1, 105088, Note_on_c, 9, 35, 0
1, 105088, Note_on_c, 0, 56, 68
1, 105088, Note_on_c, 0, 67, 68
1, 105096, Note_on_c, 0, 62, 57
1, 105100, Note_on_c, 0, 81, 38
1, 105140, Note_on_c, 1, 48, 0
1, 105160, Note_on_c, 1, 46, 76
1, 105164, Note_on_c, 0, 93, 0
1, 105172, Note_on_c, 0, 81, 0
1, 105248, Control_c, 0, 64, 127
1, 105284, Note_on_c, 9, 34, 33
1, 105324, Note_on_c, 9, 34, 0
1, 105370, Note_on_c, 9, 59, 0
1, 105404, Note_on_c, 9, 35, 42
1, 105444, Note_on_c, 9, 35, 0
1, 105528, Note_on_c, 1, 34, 85
1, 105532, Note_on_c, 1, 46, 0
1, 105532, Note_on_c, 9, 34, 31
1, 105542, Note_on_c, 9, 59, 119
1, 105546, Note_on_c, 9, 44, 113
1, 105596, Note_on_c, 9, 34, 0
1, 105596, Note_on_c, 0, 62, 0
1, 105620, Note_on_c, 0, 67, 0
1, 105652, Note_on_c, 9, 44, 0
1, 105718, Note_on_c, 9, 59, 0
1, 105752, Note_on_c, 0, 56, 0
1, 105798, Note_on_c, 9, 59, 66
1, 105812, Control_c, 0, 64, 0
1, 105812, Note_on_c, 0, 61, 58
1, 105812, Note_on_c, 0, 55, 57
1, 105820, Note_on_c, 0, 65, 54
1, 105840, Note_on_c, 0, 60, 39
1, 105846, Note_on_c, 9, 59, 0
1, 105860, Note_on_c, 0, 58, 27
1, 105876, Note_on_c, 1, 34, 0
1, 105926, Note_on_c, 9, 59, 77
1, 105928, Note_on_c, 1, 33, 82
1, 105940, Note_on_c, 1, 34, 39
1, 105976, Note_on_c, 1, 34, 0
1, 106068, Note_on_c, 0, 61, 0
1, 106148, Note_on_c, 0, 61, 42
1, 106182, Note_on_c, 9, 59, 0
1, 106184, Note_on_c, 0, 96, 111
1, 106192, Note_on_c, 1, 34, 66
1, 106236, Note_on_c, 1, 33, 0
1, 106284, Note_on_c, 1, 34, 0
1, 106284, Note_on_c, 0, 65, 0
1, 106296, Note_on_c, 0, 96, 0
1, 106300, Note_on_c, 1, 46, 75
1, 106310, Note_on_c, 9, 59, 124
1, 106314, Note_on_c, 9, 44, 106
1, 106340, Note_on_c, 0, 94, 61
1, 106388, Note_on_c, 0, 60, 0
1, 106396, Note_on_c, 0, 61, 0
1, 106436, Note_on_c, 9, 44, 0
1, 106486, Note_on_c, 9, 59, 0
1, 106492, Note_on_c, 0, 55, 0
1, 106516, Note_on_c, 0, 58, 0
1, 106540, Note_on_c, 0, 94, 0
1, 106566, Note_on_c, 9, 59, 103
1, 106572, Note_on_c, 0, 96, 84
1, 106592, Note_on_c, 0, 61, 50
1, 106592, Note_on_c, 0, 65, 57
1, 106600, Note_on_c, 0, 55, 46
1, 106618, Note_on_c, 9, 59, 0
1, 106676, Note_on_c, 1, 45, 71
1, 106680, Note_on_c, 1, 46, 0
1, 106688, Note_on_c, 0, 96, 0
1, 106694, Note_on_c, 9, 59, 75
1, 106704, Note_on_c, 0, 65, 0
1, 106710, Note_on_c, 9, 31, 70
1, 106742, Note_on_c, 9, 31, 0
1, 106756, Note_on_c, 0, 94, 63
1, 106784, Note_on_c, 0, 61, 0
1, 106790, Note_on_c, 9, 59, 0
1, 106868, Note_on_c, 0, 94, 0
1, 106888, Note_on_c, 0, 55, 0
1, 106918, Note_on_c, 9, 31, 87
1, 106948, Note_on_c, 1, 40, 70
1, 106950, Note_on_c, 9, 31, 0
1, 106950, Note_on_c, 9, 53, 127
1, 106960, Note_on_c, 0, 55, 39
1, 106968, Note_on_c, 0, 89, 73
1, 106976, Note_on_c, 0, 61, 54
1, 106980, Note_on_c, 0, 65, 48
1, 106984, Note_on_c, 1, 45, 0
1, 107018, Note_on_c, 9, 53, 0
1, 107032, Note_on_c, 0, 89, 0
1, 107052, Note_on_c, 0, 65, 0
1, 107060, Note_on_c, 1, 40, 0
1, 107064, Note_on_c, 1, 37, 81
1, 107078, Note_on_c, 9, 59, 52
1, 107082, Note_on_c, 9, 44, 108
1, 107144, Note_on_c, 0, 87, 53
1, 107190, Note_on_c, 9, 59, 0
1, 107192, Note_on_c, 0, 55, 0
1, 107196, Note_on_c, 9, 44, 0
1, 107204, Note_on_c, 0, 88, 46
1, 107236, Note_on_c, 9, 31, 77
1, 107260, Note_on_c, 0, 87, 0
1, 107276, Note_on_c, 9, 31, 0
1, 107284, Note_on_c, 0, 88, 0
1, 107332, Note_on_c, 0, 61, 0
1, 107334, Note_on_c, 9, 59, 127
1, 107334, Note_on_c, 9, 31, 71
1, 107360, Note_on_c, 0, 85, 66
1, 107366, Note_on_c, 9, 59, 0
1, 107388, Note_on_c, 0, 54, 50
1, 107392, Note_on_c, 9, 31, 0
1, 107396, Note_on_c, 0, 64, 41
1, 107412, Note_on_c, 1, 37, 0
1, 107416, Note_on_c, 0, 60, 46
1, 107444, Note_on_c, 0, 85, 0
1, 107448, Note_on_c, 1, 38, 74
1, 107452, Note_on_c, 9, 35, 59
1, 107462, Note_on_c, 9, 59, 96
1, 107470, Note_on_c, 9, 38, 30
1, 107578, Note_on_c, 9, 38, 0
1, 107584, Note_on_c, 0, 84, 48
1, 107596, Note_on_c, 9, 35, 0
1, 107648, Note_on_c, 0, 60, 0
1, 107676, Note_on_c, 0, 84, 0
1, 107698, Note_on_c, 9, 36, 36
1, 107704, Note_on_c, 1, 37, 57
1, 107734, Note_on_c, 9, 59, 0
1, 107748, Note_on_c, 0, 84, 63
1, 107754, Note_on_c, 9, 36, 0
1, 107756, Note_on_c, 0, 60, 35
1, 107760, Note_on_c, 0, 64, 0
1, 107824, Note_on_c, 1, 55, 71
1, 107846, Note_on_c, 1, 38, 0
1, 107846, Note_on_c, 9, 59, 78
1, 107850, Note_on_c, 0, 84, 0
1, 107850, Note_on_c, 9, 44, 105
1, 107864, Note_on_c, 1, 37, 0
1, 107904, Note_on_c, 0, 81, 49
1, 107962, Note_on_c, 9, 44, 0
1, 107964, Note_on_c, 0, 81, 0
1, 108008, Note_on_c, 0, 54, 0
1, 108008, Note_on_c, 0, 60, 0
1, 108104, Note_on_c, 0, 81, 61
1, 108118, Note_on_c, 9, 59, 0
1, 108120, Note_on_c, 0, 54, 45
1, 108132, Note_on_c, 0, 60, 42
1, 108140, Note_on_c, 0, 81, 0
1, 108144, Note_on_c, 0, 64, 31
1, 108188, Note_on_c, 0, 64, 0
1, 108220, Note_on_c, 1, 55, 0
1, 108230, Note_on_c, 9, 59, 61
1, 108232, Note_on_c, 1, 53, 49
1, 108260, Note_on_c, 0, 75, 55
1, 108292, Note_on_c, 0, 75, 0
1, 108300, Note_on_c, 0, 54, 0
1, 108328, Note_on_c, 0, 76, 38
1, 108332, Note_on_c, 0, 60, 0
1, 108400, Note_on_c, 0, 76, 0
1, 108480, Note_on_c, 1, 49, 48
1, 108488, Note_on_c, 0, 76, 66
1, 108492, Note_on_c, 9, 51, 45
1, 108496, Note_on_c, 0, 54, 49
1, 108522, Note_on_c, 9, 59, 0
1, 108528, Note_on_c, 0, 60, 39
1, 108540, Note_on_c, 9, 51, 0
1, 108556, Note_on_c, 1, 53, 0
1, 108560, Note_on_c, 1, 49, 0
1, 108564, Note_on_c, 0, 76, 0
1, 108608, Note_on_c, 1, 52, 63
1, 108614, Note_on_c, 9, 59, 47
1, 108618, Note_on_c, 9, 44, 112
1, 108624, Note_on_c, 9, 36, 42
1, 108644, Note_on_c, 0, 72, 43
1, 108676, Note_on_c, 0, 54, 0
1, 108682, Note_on_c, 9, 36, 0
1, 108740, Note_on_c, 9, 44, 0
1, 108776, Note_on_c, 0, 60, 0
1, 108796, Note_on_c, 0, 72, 0
1, 108806, Note_on_c, 9, 59, 0
1, 108864, Note_on_c, 9, 36, 46
1, 108870, Note_on_c, 9, 59, 127
1, 108884, Note_on_c, 1, 49, 46
1, 108888, Note_on_c, 0, 72, 62
1, 108896, Note_on_c, 0, 60, 49
1, 108900, Note_on_c, 0, 64, 52
1, 108912, Note_on_c, 1, 46, 31
1, 108916, Note_on_c, 0, 57, 48
1, 108920, Note_on_c, 1, 49, 0
1, 108928, Note_on_c, 9, 36, 0
1, 108932, Note_on_c, 0, 64, 0
1, 108952, Note_on_c, 1, 46, 0
1, 108954, Note_on_c, 9, 59, 0
1, 108964, Note_on_c, 1, 52, 0
1, 108972, Note_on_c, 0, 53, 17
1, 108984, Note_on_c, 0, 72, 0
1, 108998, Note_on_c, 9, 59, 85
1, 109004, Note_on_c, 1, 50, 62
1, 109010, Note_on_c, 9, 36, 45
1, 109028, Note_on_c, 0, 53, 0
1, 109032, Note_on_c, 0, 60, 0
1, 109044, Note_on_c, 0, 57, 0
1, 109056, Note_on_c, 0, 69, 43
1, 109100, Note_on_c, 9, 36, 0
1, 109126, Note_on_c, 9, 34, 43
1, 109178, Note_on_c, 9, 34, 0
1, 109196, Note_on_c, 0, 69, 0
1, 109252, Note_on_c, 9, 35, 45
1, 109284, Note_on_c, 9, 35, 0
1, 109292, Note_on_c, 0, 72, 69
1, 109296, Note_on_c, 9, 59, 0
1, 109340, Note_on_c, 0, 59, 46
1, 109372, Note_on_c, 1, 50, 0
1, 109376, Note_on_c, 1, 42, 66
1, 109382, Note_on_c, 9, 59, 84
1, 109382, Note_on_c, 9, 34, 35
1, 109386, Note_on_c, 9, 44, 108
1, 109396, Note_on_c, 0, 72, 0
1, 109416, Note_on_c, 0, 59, 0
1, 109456, Note_on_c, 9, 34, 0
1, 109472, Note_on_c, 0, 69, 34
1, 109482, Note_on_c, 9, 44, 0
1, 109588, Note_on_c, 0, 69, 0
1, 109628, Note_on_c, 9, 34, 36
1, 109654, Note_on_c, 9, 59, 0
1, 109660, Note_on_c, 0, 71, 67
1, 109676, Note_on_c, 1, 39, 31
1, 109684, Note_on_c, 0, 59, 57
1, 109692, Note_on_c, 0, 64, 45
1, 109700, Note_on_c, 9, 34, 0
1, 109724, Note_on_c, 0, 64, 0
1, 109748, Note_on_c, 1, 39, 0
1, 109752, Note_on_c, 1, 42, 0
1, 109752, Note_on_c, 1, 43, 67
1, 109766, Note_on_c, 9, 59, 59
1, 109772, Note_on_c, 0, 71, 0
1, 109788, Note_on_c, 9, 35, 33
1, 109830, Note_on_c, 9, 35, 0
1, 109840, Note_on_c, 0, 59, 0
1, 109996, Note_on_c, 9, 59, 0
1, 110022, Note_on_c, 9, 59, 35
1, 110028, Note_on_c, 1, 43, 0
1, 110028, Note_on_c, 0, 74, 98
1, 110028, Note_on_c, 1, 39, 49
1, 110028, Note_on_c, 9, 35, 75
1, 110056, Note_on_c, 0, 64, 57
1, 110060, Note_on_c, 0, 59, 55
1, 110068, Note_on_c, 0, 53, 44
1, 110074, Note_on_c, 9, 59, 0
1, 110096, Note_on_c, 9, 35, 0
1, 110112, Note_on_c, 1, 39, 0
1, 110120, Note_on_c, 1, 41, 57
1, 110136, Note_on_c, 0, 64, 0
1, 110148, Note_on_c, 0, 74, 0
1, 110150, Note_on_c, 9, 59, 99
1, 110154, Note_on_c, 9, 44, 101
1, 110208, Note_on_c, 0, 71, 47
1, 110216, Note_on_c, 0, 59, 0
1, 110224, Note_on_c, 0, 53, 0
1, 110260, Note_on_c, 9, 44, 0
1, 110360, Note_on_c, 0, 71, 0
1, 110396, Note_on_c, 9, 35, 38
1, 110412, Note_on_c, 1, 39, 51
1, 110416, Note_on_c, 1, 41, 0
1, 110428, Note_on_c, 9, 59, 0
1, 110436, Note_on_c, 0, 72, 78
1, 110448, Note_on_c, 0, 59, 48
1, 110452, Note_on_c, 9, 35, 0
1, 110452, Note_on_c, 0, 62, 54
1, 110464, Note_on_c, 0, 55, 48
1, 110512, Note_on_c, 0, 62, 0
1, 110512, Note_on_c, 1, 39, 0
1, 110528, Note_on_c, 1, 40, 56
1, 110534, Note_on_c, 9, 59, 120
1, 110548, Note_on_c, 0, 72, 0
1, 110550, Note_on_c, 9, 35, 31
1, 110560, Note_on_c, 0, 55, 0
1, 110588, Note_on_c, 0, 59, 0
1, 110592, Note_on_c, 9, 35, 0
1, 110600, Note_on_c, 1, 40, 0
1, 110620, Note_on_c, 0, 74, 71
1, 110768, Note_on_c, 0, 74, 0
1, 110784, Note_on_c, 1, 40, 57
1, 110816, Note_on_c, 1, 40, 0
1, 110842, Note_on_c, 9, 59, 0
1, 110844, Note_on_c, 0, 77, 71
1, 110848, Note_on_c, 0, 62, 46
1, 110848, Note_on_c, 0, 59, 40
1, 110876, Note_on_c, 0, 62, 0
1, 110884, Note_on_c, 0, 55, 31
1, 110916, Note_on_c, 0, 77, 0
1, 110918, Note_on_c, 9, 59, 59
1, 110922, Note_on_c, 9, 44, 99
1, 110932, Note_on_c, 1, 33, 67
1, 110936, Note_on_c, 0, 55, 0
1, 110940, Note_on_c, 0, 59, 0
1, 111020, Note_on_c, 9, 44, 0
1, 111148, Note_on_c, 9, 59, 0
1, 111174, Note_on_c, 9, 59, 59
1, 111178, Note_on_c, 9, 35, 47
1, 111226, Note_on_c, 9, 59, 0
1, 111228, Note_on_c, 9, 35, 0
1, 111256, Note_on_c, 1, 33, 0
1, 111280, Note_on_c, 1, 39, 68
1, 111302, Note_on_c, 9, 59, 64
1, 111384, Note_on_c, 0, 75, 31
1, 111428, Note_on_c, 0, 75, 0
1, 111572, Note_on_c, 0, 76, 81
1, 111576, Note_on_c, 0, 70, 75
1, 111588, Note_on_c, 0, 67, 63
1, 111588, Note_on_c, 0, 64, 66
1, 111594, Note_on_c, 9, 59, 0
1, 111632, Note_on_c, 1, 39, 0
1, 111648, Note_on_c, 1, 33, 70
1, 111660, Note_on_c, 0, 67, 0
1, 111664, Note_on_c, 0, 64, 0
1, 111686, Note_on_c, 9, 59, 113
1, 111690, Note_on_c, 9, 44, 112
1, 111696, Note_on_c, 0, 76, 0
1, 111696, Note_on_c, 0, 61, 45
1, 111748, Note_on_c, 0, 73, 42
1, 111802, Note_on_c, 9, 44, 0
1, 111880, Note_on_c, 0, 70, 0
1, 111896, Note_on_c, 0, 73, 0
1, 111910, Note_on_c, 9, 59, 0
1, 111932, Note_on_c, 9, 35, 52
1, 111942, Note_on_c, 9, 59, 64
1, 111960, Note_on_c, 0, 74, 74
1, 111968, Note_on_c, 0, 69, 69
1, 111972, Note_on_c, 0, 65, 57
1, 111976, Note_on_c, 0, 62, 63
1, 111980, Note_on_c, 0, 61, 0
1, 112000, Note_on_c, 9, 35, 0
1, 112012, Note_on_c, 9, 59, 0
1, 112040, Note_on_c, 1, 33, 0
1, 112044, Note_on_c, 1, 38, 68
1, 112064, Note_on_c, 0, 74, 0
1, 112064, Note_on_c, 0, 69, 0
1, 112070, Note_on_c, 9, 59, 91
1, 112072, Control_c, 0, 64, 127
1, 112092, Note_on_c, 0, 65, 0
1, 112108, Note_on_c, 0, 62, 0
1, 112328, Control_c, 0, 64, 0
1, 112332, Note_on_c, 0, 60, 66
1, 112344, Note_on_c, 0, 72, 52
1, 112344, Note_on_c, 0, 69, 57
1, 112344, Note_on_c, 0, 62, 67
1, 112352, Note_on_c, 0, 65, 54
1, 112364, Note_on_c, 9, 59, 0
1, 112412, Note_on_c, 0, 65, 0
1, 112424, Note_on_c, 1, 38, 0
1, 112432, Note_on_c, 1, 32, 68
1, 112452, Note_on_c, 0, 62, 0
1, 112454, Note_on_c, 9, 59, 99
1, 112456, Note_on_c, 0, 60, 0
1, 112458, Note_on_c, 9, 44, 112
1, 112468, Note_on_c, 0, 72, 0
1, 112472, Note_on_c, 0, 69, 0
1, 112480, Control_c, 0, 64, 127
1, 112488, Note_on_c, 0, 57, 54
1, 112492, Note_on_c, 0, 65, 42
1, 112520, Note_on_c, 0, 62, 22
1, 112570, Note_on_c, 9, 44, 0
1, 112596, Note_on_c, 0, 62, 0
1, 112640, Note_on_c, 0, 65, 0
1, 112680, Note_on_c, 0, 57, 0
1, 112724, Control_c, 0, 64, 0
1, 112758, Note_on_c, 9, 59, 0
1, 112760, Note_on_c, 0, 53, 45
1, 112792, Note_on_c, 1, 32, 0
1, 112824, Note_on_c, 0, 53, 0
1, 112824, Note_on_c, 1, 31, 61
1, 112838, Note_on_c, 9, 59, 77
1, 112852, Note_on_c, 0, 70, 66
1, 112864, Note_on_c, 0, 63, 60
1, 112868, Note_on_c, 0, 59, 45
1, 112872, Note_on_c, 0, 55, 50
1, 113100, Note_on_c, 0, 59, 0
1, 113106, Note_on_c, 9, 51, 64
1, 113110, Note_on_c, 9, 37, 50
1, 113116, Note_on_c, 0, 63, 0
1, 113126, Note_on_c, 9, 59, 0
1, 113152, Note_on_c, 0, 55, 0
1, 113156, Note_on_c, 0, 70, 0
1, 113156, Note_on_c, 0, 51, 38
1, 113184, Note_on_c, 9, 51, 0
1, 113190, Note_on_c, 9, 37, 0
1, 113200, Note_on_c, 0, 51, 0
1, 113216, Note_on_c, 1, 35, 72
1, 113222, Note_on_c, 9, 59, 89
1, 113226, Note_on_c, 9, 46, 21
1, 113232, Note_on_c, 1, 31, 0
1, 113236, Note_on_c, 0, 54, 52
1, 113244, Note_on_c, 0, 68, 57
1, 113252, Note_on_c, 0, 63, 56
1, 113252, Note_on_c, 0, 59, 46
1, 113258, Note_on_c, 9, 35, 24
1, 113260, Note_on_c, 9, 36, 39
1, 113306, Note_on_c, 9, 35, 0
1, 113308, Note_on_c, 9, 36, 0
1, 113348, Note_on_c, 9, 46, 0
1, 113412, Note_on_c, 0, 68, 0
1, 113430, Note_on_c, 9, 59, 0
1, 113478, Note_on_c, 9, 59, 68
1, 113484, Note_on_c, 9, 37, 59
1, 113484, Note_on_c, 9, 36, 68
1, 113500, Note_on_c, 0, 63, 0
1, 113500, Note_on_c, 1, 34, 42
1, 113508, Note_on_c, 0, 59, 0
1, 113512, Note_on_c, 0, 54, 0
1, 113512, Note_on_c, 0, 51, 49
1, 113546, Note_on_c, 9, 59, 0
1, 113584, Note_on_c, 1, 34, 0
1, 113590, Note_on_c, 9, 37, 0
1, 113592, Note_on_c, 1, 35, 0
1, 113596, Note_on_c, 0, 51, 0
1, 113604, Note_on_c, 1, 36, 60
1, 113606, Note_on_c, 9, 36, 0
1, 113606, Note_on_c, 0, 52, 48
1, 113606, Note_on_c, 9, 59, 96
1, 113612, Note_on_c, 0, 67, 49
1, 113616, Note_on_c, 0, 57, 41
1, 113620, Note_on_c, 0, 62, 47
1, 113628, Note_on_c, 9, 35, 28
1, 113644, Note_on_c, 9, 36, 50
1, 113680, Note_on_c, 9, 35, 0
1, 113804, Note_on_c, 0, 67, 0
1, 113804, Note_on_c, 0, 57, 0
1, 113812, Note_on_c, 9, 36, 0
1, 113832, Note_on_c, 0, 62, 0
1, 113852, Note_on_c, 0, 52, 0
1, 113888, Note_on_c, 0, 51, 45
1, 113900, Note_on_c, 1, 34, 50
1, 113914, Note_on_c, 9, 59, 0
1, 113990, Note_on_c, 9, 59, 91
1, 113992, Note_on_c, 1, 36, 0
1, 113994, Note_on_c, 1, 48, 72
1, 113994, Note_on_c, 9, 44, 117
1, 114004, Note_on_c, 0, 52, 49
1, 114004, Note_on_c, 0, 67, 45
1, 114008, Note_on_c, 1, 34, 0
1, 114008, Note_on_c, 0, 62, 41
1, 114016, Note_on_c, 0, 57, 37
1, 114020, Note_on_c, 0, 51, 0
1, 114108, Note_on_c, 0, 62, 0
1, 114120, Note_on_c, 0, 67, 0
1, 114138, Note_on_c, 9, 44, 0
1, 114232, Note_on_c, 0, 57, 0
1, 114268, Note_on_c, 9, 35, 28
1, 114304, Note_on_c, 0, 52, 0
1, 114308, Note_on_c, 9, 35, 0
1, 114316, Note_on_c, 9, 59, 0
1, 114348, Note_on_c, 1, 48, 0
1, 114368, Note_on_c, 1, 45, 66
1, 114374, Note_on_c, 9, 59, 80
1, 114544, Note_on_c, 0, 64, 52
1, 114544, Note_on_c, 0, 55, 52
1, 114552, Note_on_c, 0, 58, 56
1, 114560, Note_on_c, 0, 61, 51
1, 114560, Note_on_c, 0, 52, 58
1, 114616, Note_on_c, 0, 55, 0
1, 114648, Note_on_c, 0, 61, 0
1, 114652, Note_on_c, 0, 58, 0
1, 114652, Note_on_c, 0, 64, 0
1, 114678, Note_on_c, 9, 59, 0
1, 114680, Note_on_c, 0, 52, 0
1, 114692, Note_on_c, 0, 49, 51
1, 114704, Note_on_c, 1, 45, 0
1, 114748, Note_on_c, 1, 37, 64
1, 114758, Note_on_c, 9, 59, 78
1, 114762, Note_on_c, 9, 44, 119
1, 114796, Note_on_c, 0, 49, 0
1, 114804, Note_on_c, 0, 58, 63
1, 114812, Note_on_c, 0, 52, 54
1, 114812, Note_on_c, 0, 64, 41
1, 114812, Note_on_c, 0, 61, 52
1, 114820, Note_on_c, 0, 55, 51
1, 114852, Note_on_c, 9, 44, 0
1, 114944, Note_on_c, 0, 55, 0
1, 114948, Note_on_c, 0, 64, 0
1, 114976, Note_on_c, 0, 58, 0
1, 114984, Note_on_c, 0, 61, 0
1, 114988, Note_on_c, 0, 52, 0
1, 115014, Note_on_c, 9, 59, 68
1, 115018, Note_on_c, 9, 59, 0
1, 115020, Note_on_c, 9, 35, 35
1, 115036, Note_on_c, 0, 57, 60
1, 115040, Note_on_c, 0, 65, 54
1, 115044, Note_on_c, 0, 60, 56
1, 115052, Note_on_c, 9, 35, 0
1, 115056, Note_on_c, 0, 50, 56
1, 115082, Note_on_c, 9, 59, 0
1, 115096, Note_on_c, 0, 57, 0
1, 115100, Note_on_c, 1, 37, 0
1, 115128, Note_on_c, 0, 60, 0
1, 115132, Note_on_c, 0, 65, 0
1, 115132, Note_on_c, 1, 38, 63
1, 115136, Note_on_c, 0, 50, 0
1, 115142, Note_on_c, 9, 59, 73
1, 115196, Note_on_c, 0, 50, 12
1, 115270, Note_on_c, 9, 34, 43
1, 115308, Note_on_c, 0, 65, 57
1, 115316, Note_on_c, 0, 60, 65
1, 115322, Note_on_c, 9, 34, 0
1, 115328, Note_on_c, 0, 57, 47
1, 115396, Note_on_c, 9, 35, 45
1, 115400, Note_on_c, 0, 57, 0
1, 115408, Note_on_c, 1, 45, 54
1, 115412, Note_on_c, 0, 60, 0
1, 115428, Note_on_c, 9, 35, 0
1, 115440, Note_on_c, 0, 65, 0
1, 115452, Note_on_c, 1, 45, 0
1, 115464, Note_on_c, 0, 50, 0
1, 115466, Note_on_c, 9, 59, 0
1, 115496, Note_on_c, 1, 57, 66
1, 115504, Note_on_c, 1, 38, 0
1, 115526, Note_on_c, 9, 59, 84
1, 115526, Note_on_c, 9, 34, 35
1, 115530, Note_on_c, 9, 44, 108
1, 115544, Note_on_c, 0, 67, 63
1, 115556, Note_on_c, 0, 59, 46
1, 115560, Note_on_c, 0, 52, 60
1, 115568, Note_on_c, 0, 62, 48
1, 115600, Note_on_c, 0, 59, 0
1, 115600, Note_on_c, 9, 34, 0
1, 115612, Note_on_c, 0, 62, 0
1, 115626, Note_on_c, 9, 44, 0
1, 115628, Note_on_c, 0, 67, 0
1, 115672, Note_on_c, 0, 52, 0
1, 115708, Note_on_c, 0, 51, 46
1, 115748, Note_on_c, 0, 51, 0
1, 115772, Note_on_c, 9, 34, 36
1, 115780, Note_on_c, 0, 67, 62
1, 115788, Note_on_c, 0, 52, 54
1, 115788, Note_on_c, 0, 62, 61
1, 115798, Note_on_c, 9, 59, 0
1, 115800, Note_on_c, 0, 59, 50
1, 115844, Note_on_c, 9, 34, 0
1, 115860, Note_on_c, 1, 57, 0
1, 115876, Note_on_c, 0, 59, 0
1, 115888, Note_on_c, 1, 55, 64
1, 115892, Note_on_c, 0, 67, 0
1, 115900, Note_on_c, 0, 62, 0
1, 115910, Note_on_c, 9, 59, 59
1, 115928, Note_on_c, 0, 52, 0
1, 115932, Note_on_c, 9, 35, 33
1, 115974, Note_on_c, 9, 35, 0
1, 116020, Note_on_c, 0, 69, 61
1, 116028, Note_on_c, 0, 63, 56
1, 116028, Note_on_c, 0, 60, 55
1, 116028, Note_on_c, 0, 53, 61
1, 116036, Note_on_c, 0, 65, 48
1, 116088, Note_on_c, 0, 60, 0
1, 116124, Note_on_c, 0, 69, 0
1, 116140, Note_on_c, 0, 63, 0
1, 116140, Note_on_c, 9, 59, 0
1, 116144, Note_on_c, 0, 53, 0
1, 116148, Note_on_c, 0, 65, 0
1, 116166, Note_on_c, 9, 59, 35
1, 116172, Note_on_c, 1, 48, 50
1, 116172, Note_on_c, 9, 35, 75
1, 116200, Note_on_c, 0, 51, 41
1, 116218, Note_on_c, 9, 59, 0
1, 116224, Note_on_c, 1, 48, 0
1, 116236, Note_on_c, 0, 51, 0
1, 116236, Note_on_c, 1, 55, 0
1, 116240, Note_on_c, 9, 35, 0
1, 116244, Note_on_c, 0, 63, 46
1, 116252, Note_on_c, 0, 69, 32
1, 116268, Note_on_c, 1, 53, 57
1, 116280, Note_on_c, 0, 53, 33
1, 116292, Note_on_c, 0, 69, 0
1, 116294, Note_on_c, 9, 59, 99
1, 116298, Note_on_c, 9, 44, 101
1, 116328, Note_on_c, 0, 63, 0
1, 116404, Note_on_c, 9, 44, 0
1, 116420, Note_on_c, 0, 53, 0
1, 116496, Note_on_c, 1, 48, 24
1, 116520, Note_on_c, 0, 70, 68
1, 116524, Note_on_c, 0, 63, 63
1, 116528, Note_on_c, 0, 54, 58
1, 116540, Note_on_c, 1, 48, 0
1, 116540, Note_on_c, 9, 35, 38
1, 116548, Note_on_c, 0, 60, 31
1, 116572, Note_on_c, 9, 59, 0
1, 116580, Note_on_c, 0, 60, 0
1, 116596, Note_on_c, 9, 35, 0
1, 116612, Note_on_c, 0, 63, 0
1, 116628, Note_on_c, 0, 70, 0
1, 116636, Note_on_c, 1, 53, 0
1, 116678, Note_on_c, 1, 52, 56
1, 116678, Note_on_c, 9, 59, 120
1, 116684, Note_on_c, 0, 54, 0
1, 116694, Note_on_c, 9, 35, 31
1, 116708, Note_on_c, 0, 71, 60
1, 116712, Note_on_c, 0, 55, 56
1, 116720, Note_on_c, 0, 62, 49
1, 116720, Note_on_c, 0, 64, 51
1, 116728, Note_on_c, 0, 67, 43
1, 116736, Note_on_c, 9, 35, 0
1, 116828, Note_on_c, 0, 71, 0
1, 116864, Note_on_c, 0, 62, 0
1, 116880, Note_on_c, 0, 64, 0
1, 116900, Note_on_c, 0, 67, 0
1, 116940, Note_on_c, 0, 55, 0
1, 116960, Note_on_c, 0, 70, 61
1, 116964, Note_on_c, 0, 54, 58
1, 116976, Note_on_c, 0, 64, 35
1, 116986, Note_on_c, 9, 59, 0
1, 117020, Note_on_c, 0, 64, 0
1, 117040, Note_on_c, 0, 70, 0
1, 117062, Note_on_c, 9, 59, 59
1, 117066, Note_on_c, 9, 44, 99
1, 117080, Note_on_c, 0, 54, 0
1, 117088, Note_on_c, 1, 48, 69
1, 117096, Note_on_c, 0, 55, 55
1, 117108, Note_on_c, 0, 71, 51
1, 117112, Note_on_c, 0, 62, 31
1, 117112, Note_on_c, 0, 64, 48
1, 117136, Note_on_c, 0, 67, 23
1, 117164, Note_on_c, 9, 44, 0
1, 117180, Note_on_c, 0, 64, 0
1, 117184, Note_on_c, 0, 67, 0
1, 117212, Note_on_c, 0, 62, 0
1, 117220, Control_c, 0, 64, 127
1, 117244, Note_on_c, 1, 48, 0
1, 117248, Note_on_c, 0, 71, 0
1, 117264, Note_on_c, 1, 52, 0
1, 117280, Note_on_c, 0, 55, 0
1, 117292, Note_on_c, 9, 59, 0
1, 117304, Control_c, 0, 64, 0
1, 117318, Note_on_c, 9, 59, 59
1, 117322, Note_on_c, 9, 35, 47
1, 117344, Note_on_c, 1, 47, 68
1, 117352, Note_on_c, 0, 72, 69
1, 117356, Note_on_c, 0, 67, 66
1, 117360, Note_on_c, 0, 64, 58
1, 117368, Note_on_c, 0, 56, 57
1, 117370, Note_on_c, 9, 59, 0
1, 117372, Note_on_c, 9, 35, 0
1, 117404, Note_on_c, 1, 47, 0
1, 117446, Note_on_c, 9, 59, 64
1, 117460, Control_c, 0, 64, 127
1, 117468, Note_on_c, 1, 46, 68
1, 117520, Note_on_c, 0, 56, 0
1, 117616, Note_on_c, 0, 64, 0
1, 117636, Note_on_c, 0, 67, 0
1, 117652, Note_on_c, 0, 72, 0
1, 117720, Note_on_c, 0, 71, 43
1, 117738, Note_on_c, 9, 59, 0
1, 117760, Control_c, 0, 64, 0
1, 117768, Note_on_c, 1, 46, 0
1, 117808, Note_on_c, 0, 71, 0
1, 117820, Note_on_c, 1, 46, 68
1, 117830, Note_on_c, 9, 59, 113
1, 117834, Note_on_c, 9, 44, 112
1, 117852, Note_on_c, 0, 72, 57
1, 117860, Note_on_c, 0, 56, 39
1, 117860, Control_c, 0, 64, 127
1, 117864, Note_on_c, 0, 64, 36
1, 117868, Note_on_c, 0, 46, 41
1, 117884, Note_on_c, 0, 67, 38
1, 117924, Note_on_c, 0, 67, 0
1, 117928, Note_on_c, 0, 72, 0
1, 117932, Note_on_c, 0, 64, 0
1, 117946, Note_on_c, 9, 44, 0
1, 118008, Note_on_c, 0, 56, 0
1, 118028, Note_on_c, 0, 46, 0
1, 118054, Note_on_c, 9, 59, 0
1, 118068, Control_c, 0, 64, 0
1, 118072, Note_on_c, 9, 36, 74
1, 118076, Note_on_c, 9, 35, 52
1, 118086, Note_on_c, 9, 59, 64
1, 118108, Note_on_c, 0, 73, 67
1, 118120, Note_on_c, 0, 61, 65
1, 118120, Note_on_c, 0, 55, 57
1, 118128, Note_on_c, 0, 69, 58
1, 118140, Note_on_c, 0, 45, 41
1, 118144, Note_on_c, 9, 35, 0
1, 118156, Note_on_c, 9, 59, 0
1, 118180, Note_on_c, 1, 46, 0
1, 118204, Control_c, 0, 64, 127
1, 118204, Note_on_c, 1, 45, 66
1, 118214, Note_on_c, 9, 59, 91
1, 118228, Note_on_c, 9, 36, 0
1, 118440, Note_on_c, 0, 73, 0
1, 118448, Note_on_c, 0, 55, 0
1, 118464, Note_on_c, 0, 61, 0
1, 118466, Note_on_c, 9, 36, 63
1, 118468, Note_on_c, 0, 69, 0
1, 118496, Note_on_c, 0, 52, 44
1, 118508, Note_on_c, 9, 59, 0
1, 118532, Control_c, 0, 64, 0
1, 118548, Note_on_c, 9, 36, 0
1, 118576, Note_on_c, 0, 52, 0
1, 118584, Note_on_c, 1, 40, 66
1, 118588, Note_on_c, 1, 45, 0
1, 118598, Note_on_c, 9, 59, 99
1, 118602, Note_on_c, 9, 44, 112
1, 118608, Note_on_c, 0, 45, 0
1, 118608, Note_on_c, 0, 74, 63
1, 118620, Note_on_c, 0, 62, 52
1, 118632, Control_c, 0, 64, 127
1, 118632, Note_on_c, 0, 57, 52
1, 118696, Note_on_c, 0, 57, 0
1, 118696, Note_on_c, 0, 62, 0
1, 118714, Note_on_c, 9, 44, 0
1, 118720, Note_on_c, 0, 74, 0
1, 118852, Control_c, 0, 64, 0
1, 118876, Note_on_c, 0, 73, 62
1, 118876, Note_on_c, 0, 70, 64
1, 118880, Note_on_c, 0, 67, 63
1, 118884, Note_on_c, 0, 76, 55
1, 118896, Note_on_c, 0, 64, 32
1, 118902, Note_on_c, 9, 59, 0
1, 118908, Note_on_c, 0, 61, 40
1, 118936, Note_on_c, 0, 64, 0
1, 118948, Note_on_c, 0, 67, 0
1, 118960, Control_c, 0, 64, 127
1, 118964, Note_on_c, 1, 40, 0
1, 118972, Note_on_c, 1, 37, 60
1, 118976, Note_on_c, 0, 73, 0
1, 118982, Note_on_c, 0, 70, 0
1, 118982, Note_on_c, 9, 59, 77
1, 118988, Note_on_c, 0, 76, 0
1, 118996, Note_on_c, 0, 61, 0
1, 119064, Note_on_c, 1, 37, 0
1, 119076, Note_on_c, 9, 38, 21
1, 119198, Note_on_c, 9, 38, 0
1, 119232, Note_on_c, 1, 37, 64
1, 119240, Control_c, 0, 64, 0
1, 119248, Note_on_c, 9, 38, 62
1, 119254, Note_on_c, 9, 37, 50
1, 119256, Note_on_c, 0, 64, 78
1, 119256, Note_on_c, 0, 62, 23
1, 119260, Note_on_c, 0, 79, 85
1, 119260, Note_on_c, 0, 73, 80
1, 119264, Note_on_c, 0, 70, 80
1, 119264, Note_on_c, 0, 78, 32
1, 119270, Note_on_c, 9, 59, 0
1, 119292, Note_on_c, 0, 62, 0
1, 119320, Note_on_c, 1, 37, 0
1, 119334, Note_on_c, 9, 37, 0
1, 119354, Note_on_c, 9, 38, 0
1, 119360, Note_on_c, 1, 40, 63
1, 119366, Note_on_c, 9, 59, 89
1, 119370, Note_on_c, 9, 46, 21
1, 119380, Control_c, 0, 64, 127
1, 119402, Note_on_c, 9, 35, 24
1, 119408, Note_on_c, 9, 38, 40
1, 119450, Note_on_c, 9, 35, 0
1, 119460, Note_on_c, 1, 40, 0
1, 119492, Note_on_c, 9, 46, 0
1, 119568, Note_on_c, 0, 70, 0
1, 119574, Note_on_c, 9, 59, 0
1, 119580, Note_on_c, 9, 38, 0
1, 119580, Note_on_c, 0, 79, 0
1, 119588, Note_on_c, 0, 78, 0
1, 119592, Note_on_c, 0, 73, 0
1, 119616, Note_on_c, 1, 37, 64
1, 119618, Note_on_c, 9, 36, 72
1, 119622, Note_on_c, 9, 59, 68
1, 119628, Note_on_c, 9, 37, 59
1, 119652, Note_on_c, 0, 60, 47
1, 119690, Note_on_c, 9, 59, 0
1, 119692, Note_on_c, 0, 64, 0
1, 119704, Note_on_c, 1, 37, 0
1, 119706, Note_on_c, 9, 36, 0
1, 119716, Note_on_c, 0, 60, 0
1, 119734, Note_on_c, 9, 37, 0
1, 119740, Control_c, 0, 64, 0
1, 119748, Note_on_c, 1, 38, 51
1, 119750, Note_on_c, 9, 59, 96
1, 119750, Note_on_c, 9, 36, 44
1, 119772, Note_on_c, 0, 75, 54
1, 119772, Note_on_c, 9, 35, 28
1, 119784, Note_on_c, 0, 64, 33
1, 119824, Note_on_c, 9, 35, 0
1, 119828, Note_on_c, 0, 60, 24
1, 119840, Note_on_c, 0, 64, 0
1, 119848, Note_on_c, 9, 36, 0
1, 119880, Note_on_c, 0, 60, 0
1, 119900, Note_on_c, 1, 38, 0
1, 119916, Note_on_c, 0, 76, 66
1, 119920, Note_on_c, 0, 75, 0
1, 119992, Note_on_c, 0, 76, 0
1, 120004, Note_on_c, 1, 38, 56
1, 120036, Note_on_c, 0, 81, 84
1, 120058, Note_on_c, 9, 59, 0
1, 120076, Note_on_c, 0, 54, 42
1, 120092, Note_on_c, 0, 60, 33
1, 120128, Note_on_c, 0, 81, 0
1, 120128, Note_on_c, 1, 38, 0
1, 120128, Note_on_c, 1, 40, 69
1, 120134, Note_on_c, 9, 59, 91
1, 120138, Note_on_c, 9, 44, 117
1, 120144, Note_on_c, 0, 60, 0
1, 120160, Note_on_c, 0, 54, 0
1, 120282, Note_on_c, 9, 44, 0
1, 120296, Note_on_c, 0, 76, 43
1, 120368, Note_on_c, 0, 76, 0
1, 120392, Note_on_c, 9, 38, 46
1, 120404, Note_on_c, 0, 81, 83
1, 120412, Note_on_c, 9, 35, 28
1, 120448, Note_on_c, 0, 54, 41
1, 120452, Note_on_c, 9, 35, 0
1, 120460, Note_on_c, 9, 59, 0
1, 120464, Note_on_c, 0, 60, 37
1, 120474, Note_on_c, 9, 38, 0
1, 120480, Note_on_c, 1, 40, 0
1, 120492, Note_on_c, 0, 81, 0
1, 120504, Note_on_c, 1, 41, 60
1, 120518, Note_on_c, 9, 59, 80
1, 120544, Note_on_c, 0, 54, 0
1, 120564, Note_on_c, 0, 74, 46
1, 120584, Note_on_c, 0, 60, 0
1, 120600, Note_on_c, 0, 74, 0
1, 120600, Note_on_c, 0, 75, 62
1, 120684, Note_on_c, 0, 74, 46
1, 120696, Note_on_c, 0, 75, 0
1, 120712, Note_on_c, 1, 41, 0
1, 120776, Note_on_c, 0, 74, 0
1, 120776, Note_on_c, 0, 72, 40
1, 120778, Note_on_c, 9, 38, 58
1, 120796, Note_on_c, 1, 41, 63
1, 120822, Note_on_c, 9, 59, 0
1, 120836, Note_on_c, 0, 72, 0
1, 120856, Note_on_c, 1, 41, 0
1, 120860, Note_on_c, 0, 64, 40
1, 120864, Note_on_c, 0, 54, 41
1, 120866, Note_on_c, 9, 38, 0
1, 120902, Note_on_c, 9, 59, 78
1, 120904, Note_on_c, 0, 69, 31
1, 120904, Note_on_c, 1, 42, 75
1, 120906, Note_on_c, 9, 44, 119
1, 120924, Note_on_c, 0, 60, 20
1, 120968, Note_on_c, 0, 64, 0
1, 120996, Note_on_c, 9, 44, 0
1, 121052, Note_on_c, 0, 54, 0
1, 121076, Note_on_c, 0, 60, 0
1, 121132, Note_on_c, 0, 69, 0
1, 121156, Note_on_c, 9, 36, 54
1, 121158, Note_on_c, 9, 59, 68
1, 121162, Note_on_c, 9, 59, 0
1, 121164, Note_on_c, 9, 35, 35
1, 121172, Note_on_c, 0, 60, 46
1, 121172, Note_on_c, 0, 76, 73
1, 121180, Note_on_c, 0, 64, 48
1, 121184, Note_on_c, 0, 53, 34
1, 121188, Note_on_c, 0, 57, 48
1, 121196, Note_on_c, 9, 35, 0
1, 121226, Note_on_c, 9, 59, 0
1, 121238, Note_on_c, 9, 36, 0
1, 121286, Note_on_c, 9, 59, 73
1, 121300, Note_on_c, 9, 35, 21
1, 121316, Note_on_c, 9, 36, 42
1, 121354, Note_on_c, 9, 35, 0
1, 121392, Note_on_c, 1, 42, 0
1, 121392, Note_on_c, 1, 43, 50
1, 121416, Note_on_c, 1, 43, 0
1, 121430, Note_on_c, 9, 36, 0
1, 121456, Note_on_c, 0, 60, 0
1, 121508, Note_on_c, 1, 38, 61
1, 121526, Note_on_c, 9, 31, 50
1, 121548, Note_on_c, 1, 38, 0
1, 121552, Note_on_c, 9, 36, 50
1, 121564, Note_on_c, 0, 64, 0
1, 121564, Note_on_c, 0, 60, 35
1, 121584, Note_on_c, 9, 31, 0
1, 121610, Note_on_c, 9, 59, 0
1, 121620, Note_on_c, 0, 76, 0
1, 121620, Note_on_c, 9, 36, 0
1, 121660, Note_on_c, 1, 35, 51
1, 121670, Note_on_c, 9, 59, 98
1, 121674, Note_on_c, 9, 44, 117
1, 121688, Note_on_c, 0, 60, 0
1, 121688, Note_on_c, 0, 74, 63
1, 121700, Note_on_c, 9, 36, 37
1, 121732, Note_on_c, 0, 53, 0
1, 121754, Note_on_c, 9, 44, 0
1, 121808, Note_on_c, 0, 57, 0
1, 121832, Note_on_c, 9, 36, 0
1, 121872, Note_on_c, 0, 74, 0
1, 121932, Note_on_c, 0, 76, 77
1, 121944, Note_on_c, 0, 59, 57
1, 121948, Note_on_c, 0, 64, 40
1, 121972, Note_on_c, 0, 53, 31
1, 121990, Note_on_c, 9, 59, 0
1, 122008, Note_on_c, 0, 64, 0
1, 122008, Note_on_c, 1, 35, 0
1, 122048, Note_on_c, 0, 76, 0
1, 122048, Note_on_c, 1, 31, 57
1, 122054, Note_on_c, 9, 59, 80
1, 122116, Note_on_c, 0, 74, 54
1, 122164, Note_on_c, 0, 59, 0
1, 122168, Note_on_c, 0, 53, 0
1, 122264, Note_on_c, 0, 74, 0
1, 122304, Note_on_c, 1, 35, 56
1, 122316, Note_on_c, 1, 31, 0
1, 122324, Note_on_c, 0, 72, 66
1, 122340, Note_on_c, 0, 59, 54
1, 122340, Note_on_c, 0, 53, 41
1, 122346, Note_on_c, 9, 59, 0
1, 122376, Note_on_c, 1, 35, 0
1, 122416, Note_on_c, 0, 59, 0
1, 122436, Note_on_c, 0, 72, 0
1, 122438, Note_on_c, 9, 59, 84
1, 122442, Note_on_c, 0, 53, 0
1, 122442, Note_on_c, 9, 44, 110
1, 122452, Note_on_c, 1, 40, 68
1, 122500, Note_on_c, 0, 71, 54
1, 122512, Note_on_c, 1, 40, 0
1, 122528, Note_on_c, 1, 36, 48
1, 122570, Note_on_c, 9, 44, 0
1, 122580, Note_on_c, 9, 31, 45
1, 122628, Note_on_c, 0, 71, 0
1, 122634, Note_on_c, 9, 31, 0
1, 122678, Note_on_c, 9, 59, 0
1, 122694, Note_on_c, 9, 59, 59
1, 122700, Note_on_c, 9, 37, 35
1, 122708, Note_on_c, 0, 74, 65
1, 122740, Note_on_c, 0, 52, 40
1, 122744, Note_on_c, 0, 62, 32
1, 122746, Note_on_c, 9, 59, 0
1, 122752, Note_on_c, 0, 57, 43
1, 122776, Note_on_c, 1, 36, 0
1, 122780, Note_on_c, 9, 37, 0
1, 122822, Note_on_c, 9, 59, 66
1, 122828, Note_on_c, 0, 74, 0
1, 122836, Note_on_c, 1, 36, 66
1, 122836, Note_on_c, 9, 35, 52
1, 122888, Note_on_c, 0, 62, 0
1, 122888, Note_on_c, 0, 72, 55
1, 122904, Note_on_c, 0, 57, 0
1, 123014, Note_on_c, 9, 35, 0
1, 123060, Note_on_c, 0, 72, 0
1, 123100, Note_on_c, 9, 59, 0
1, 123112, Note_on_c, 0, 67, 57
1, 123128, Note_on_c, 0, 70, 34
1, 123140, Note_on_c, 0, 57, 38
1, 123164, Note_on_c, 0, 70, 0
1, 123164, Note_on_c, 1, 36, 0
1, 123176, Note_on_c, 0, 57, 0
1, 123206, Note_on_c, 9, 59, 103
1, 123210, Note_on_c, 9, 44, 108
1, 123216, Note_on_c, 1, 36, 60
1, 123220, Note_on_c, 0, 52, 0
1, 123332, Note_on_c, 9, 44, 0
1, 123392, Note_on_c, 0, 67, 0
1, 123432, Note_on_c, 0, 69, 49
1, 123436, Note_on_c, 9, 59, 0
1, 123462, Note_on_c, 9, 59, 64
1, 123468, Note_on_c, 9, 35, 47
1, 123484, Note_on_c, 0, 67, 56
1, 123500, Note_on_c, 9, 35, 0
1, 123508, Note_on_c, 0, 69, 0
1, 123510, Note_on_c, 9, 59, 0
1, 123524, Note_on_c, 0, 56, 36
1, 123532, Note_on_c, 1, 36, 0
1, 123536, Note_on_c, 0, 60, 38
1, 123556, Note_on_c, 0, 67, 0
1, 123556, Note_on_c, 0, 65, 58
1, 123588, Note_on_c, 1, 36, 73
1, 123590, Note_on_c, 9, 59, 84
1, 123592, Note_on_c, 0, 60, 0
1, 123592, Note_on_c, 0, 53, 14
1, 123608, Note_on_c, 0, 65, 0
1, 123624, Note_on_c, 0, 56, 0
1, 123660, Note_on_c, 0, 53, 0
1, 123676, Note_on_c, 0, 67, 75
1, 123840, Note_on_c, 0, 67, 0
1, 123878, Note_on_c, 9, 36, 27
1, 123882, Note_on_c, 9, 59, 0
1, 123888, Note_on_c, 0, 68, 72
1, 123916, Note_on_c, 0, 62, 42
1, 123920, Note_on_c, 0, 60, 46
1, 123920, Note_on_c, 0, 56, 47
1, 123928, Note_on_c, 9, 36, 0
1, 123936, Note_on_c, 0, 53, 36
1, 123952, Note_on_c, 0, 62, 0
1, 123960, Note_on_c, 1, 36, 0
1, 123972, Note_on_c, 9, 37, 68
1, 123974, Note_on_c, 9, 59, 99
1, 123978, Note_on_c, 9, 44, 110
1, 123984, Note_on_c, 1, 35, 67
1, 123988, Note_on_c, 0, 53, 0
1, 124000, Note_on_c, 0, 60, 0
1, 124032, Note_on_c, 0, 68, 0
1, 124032, Note_on_c, 0, 56, 0
1, 124052, Note_on_c, 0, 67, 48
1, 124124, Note_on_c, 9, 44, 0
1, 124176, Note_on_c, 9, 37, 0
1, 124260, Note_on_c, 0, 52, 50
1, 124268, Note_on_c, 9, 59, 0
1, 124272, Note_on_c, 0, 67, 0
1, 124284, Note_on_c, 0, 64, 37
1, 124292, Note_on_c, 0, 57, 31
1, 124320, Note_on_c, 0, 64, 0
1, 124356, Note_on_c, 1, 35, 0
1, 124358, Note_on_c, 9, 59, 68
1, 124368, Note_on_c, 1, 36, 68
1, 124378, Note_on_c, 9, 35, 28
1, 124384, Note_on_c, 0, 67, 58
1, 124400, Note_on_c, 0, 57, 0
1, 124412, Note_on_c, 0, 52, 0
1, 124420, Control_c, 0, 64, 127
1, 124432, Note_on_c, 9, 35, 0
1, 124600, Control_c, 0, 64, 0
1, 124640, Note_on_c, 0, 52, 50
1, 124648, Note_on_c, 0, 62, 38
1, 124652, Note_on_c, 9, 59, 0
1, 124652, Note_on_c, 0, 57, 48
1, 124660, Control_c, 0, 64, 127
1, 124680, Note_on_c, 0, 57, 0
1, 124680, Note_on_c, 0, 62, 0
1, 124700, Note_on_c, 0, 52, 0
1, 124724, Note_on_c, 0, 67, 0
1, 124728, Note_on_c, 1, 43, 69
1, 124740, Note_on_c, 9, 59, 82
1, 124746, Note_on_c, 9, 44, 98
1, 124752, Note_on_c, 1, 36, 0
1, 124916, Note_on_c, 9, 44, 0
1, 124960, Note_on_c, 1, 36, 39
1, 124972, Control_c, 0, 64, 0
1, 124982, Note_on_c, 9, 59, 0
1, 124998, Note_on_c, 9, 59, 54
1, 125002, Note_on_c, 9, 35, 28
1, 125008, Note_on_c, 0, 68, 72
1, 125012, Note_on_c, 0, 64, 68
1, 125012, Note_on_c, 0, 62, 49
1, 125012, Note_on_c, 0, 72, 68
1, 125020, Note_on_c, 0, 58, 55
1, 125032, Note_on_c, 1, 36, 0
1, 125034, Note_on_c, 9, 35, 0
1, 125042, Note_on_c, 9, 36, 17
1, 125044, Note_on_c, 0, 62, 0
1, 125050, Note_on_c, 9, 59, 0
1, 125090, Note_on_c, 9, 36, 0
1, 125096, Control_c, 0, 64, 127
1, 125100, Note_on_c, 1, 43, 0
1, 125126, Note_on_c, 1, 42, 57
1, 125126, Note_on_c, 9, 59, 84
1, 125162, Note_on_c, 9, 36, 48
1, 125200, Note_on_c, 9, 36, 0
1, 125276, Note_on_c, 0, 72, 0
1, 125300, Note_on_c, 0, 64, 0
1, 125308, Note_on_c, 0, 68, 0
1, 125372, Note_on_c, 9, 31, 49
1, 125388, Note_on_c, 1, 37, 59
1, 125398, Note_on_c, 9, 31, 0
1, 125436, Note_on_c, 9, 59, 0
1, 125444, Note_on_c, 1, 37, 0
1, 125476, Note_on_c, 1, 42, 0
1, 125510, Note_on_c, 9, 59, 106
1, 125512, Control_c, 0, 64, 0
1, 125514, Note_on_c, 9, 44, 101
1, 125528, Note_on_c, 0, 62, 71
1, 125532, Note_on_c, 1, 31, 55
1, 125544, Note_on_c, 9, 37, 75
1, 125580, Note_on_c, 0, 58, 0
1, 125604, Note_on_c, 1, 31, 0
1, 125608, Note_on_c, 0, 62, 0
1, 125624, Note_on_c, 0, 61, 58
1, 125626, Note_on_c, 9, 44, 0
1, 125648, Note_on_c, 1, 37, 41
1, 125660, Note_on_c, 9, 31, 64
1, 125704, Note_on_c, 9, 37, 0
1, 125718, Note_on_c, 9, 31, 0
1, 125718, Note_on_c, 9, 59, 0
1, 125744, Note_on_c, 0, 61, 0
1, 125752, Note_on_c, 0, 60, 48
1, 125764, Note_on_c, 0, 59, 31
1, 125766, Note_on_c, 9, 59, 56
1, 125780, Note_on_c, 9, 34, 54
1, 125788, Note_on_c, 1, 37, 0
1, 125796, Note_on_c, 0, 59, 0
1, 125800, Note_on_c, 0, 60, 0
1, 125816, Note_on_c, 1, 30, 82
1, 125818, Note_on_c, 9, 59, 0
1, 125860, Note_on_c, 0, 64, 68
1, 125876, Note_on_c, 9, 34, 0
1, 125894, Note_on_c, 9, 59, 98
1, 125924, Note_on_c, 9, 35, 33
1, 125932, Note_on_c, 0, 64, 0
1, 125934, Note_on_c, 9, 36, 14
1, 125948, Note_on_c, 0, 63, 46
1, 125952, Note_on_c, 1, 29, 62
1, 125972, Note_on_c, 1, 30, 0
1, 125994, Note_on_c, 9, 36, 0
1, 126060, Note_on_c, 0, 63, 0
1, 126064, Note_on_c, 0, 62, 57
1, 126118, Note_on_c, 9, 35, 0
1, 126124, Note_on_c, 0, 62, 0
1, 126152, Note_on_c, 0, 67, 78
1, 126186, Note_on_c, 9, 59, 0
1, 126236, Note_on_c, 0, 67, 0
1, 126252, Note_on_c, 0, 66, 56
1, 126278, Note_on_c, 9, 59, 87
1, 126282, Note_on_c, 9, 44, 87
1, 126288, Note_on_c, 1, 36, 70
1, 126312, Note_on_c, 1, 29, 0
1, 126356, Note_on_c, 0, 65, 49
1, 126360, Note_on_c, 0, 66, 0
1, 126404, Note_on_c, 9, 44, 0
1, 126424, Note_on_c, 0, 65, 0
1, 126452, Note_on_c, 0, 69, 82
1, 126492, Note_on_c, 0, 60, 40
1, 126524, Note_on_c, 0, 60, 0
1, 126538, Note_on_c, 9, 35, 28
1, 126548, Note_on_c, 0, 69, 0
1, 126548, Note_on_c, 0, 68, 57
1, 126568, Note_on_c, 1, 34, 46
1, 126572, Note_on_c, 9, 59, 0
1, 126592, Note_on_c, 9, 35, 0
1, 126644, Note_on_c, 0, 68, 0
1, 126648, Note_on_c, 0, 67, 54
1, 126656, Note_on_c, 1, 36, 0
1, 126656, Note_on_c, 1, 34, 0
1, 126660, Note_on_c, 9, 35, 29
1, 126662, Note_on_c, 1, 41, 66
1, 126662, Note_on_c, 9, 59, 68
1, 126688, Note_on_c, 0, 67, 0
1, 126728, Note_on_c, 0, 71, 75
1, 126788, Note_on_c, 9, 35, 0
1, 126832, Note_on_c, 0, 71, 0
1, 126836, Note_on_c, 0, 70, 50
1, 126874, Note_on_c, 9, 59, 0
1, 126920, Note_on_c, 0, 70, 0
1, 126920, Note_on_c, 0, 69, 57
1, 126976, Note_on_c, 0, 69, 0
1, 127012, Note_on_c, 0, 74, 81
1, 127030, Note_on_c, 9, 37, 68
1, 127040, Note_on_c, 1, 39, 63
1, 127046, Note_on_c, 9, 59, 96
1, 127048, Note_on_c, 1, 41, 0
1, 127050, Note_on_c, 9, 44, 96
1, 127104, Note_on_c, 0, 74, 0
1, 127116, Note_on_c, 0, 73, 48
1, 127178, Note_on_c, 9, 44, 0
1, 127188, Note_on_c, 9, 37, 0
1, 127212, Note_on_c, 0, 73, 0
1, 127220, Note_on_c, 0, 72, 50
1, 127268, Note_on_c, 0, 72, 0
1, 127286, Note_on_c, 9, 59, 0
1, 127300, Note_on_c, 0, 76, 81
1, 127302, Note_on_c, 9, 59, 66
1, 127310, Note_on_c, 9, 36, 31
1, 127316, Note_on_c, 0, 57, 36
1, 127320, Note_on_c, 1, 37, 40
1, 127352, Note_on_c, 0, 57, 0
1, 127354, Note_on_c, 9, 59, 0
1, 127364, Note_on_c, 9, 36, 0
1, 127392, Note_on_c, 1, 39, 0
1, 127396, Note_on_c, 0, 76, 0
1, 127416, Note_on_c, 0, 75, 58
1, 127420, Note_on_c, 1, 37, 0
1, 127424, Note_on_c, 1, 40, 62
1, 127430, Note_on_c, 9, 59, 98
1, 127486, Note_on_c, 9, 36, 31
1, 127488, Note_on_c, 0, 75, 0
1, 127508, Note_on_c, 0, 76, 62
1, 127568, Note_on_c, 0, 76, 0
1, 127574, Note_on_c, 9, 36, 0
1, 127700, Note_on_c, 1, 39, 49
1, 127734, Note_on_c, 9, 59, 0
1, 127764, Note_on_c, 1, 40, 0
1, 127796, Note_on_c, 1, 52, 84
1, 127804, Note_on_c, 1, 39, 0
1, 127814, Note_on_c, 9, 59, 103
1, 127818, Note_on_c, 9, 44, 101
1, 127972, Note_on_c, 9, 44, 0
1, 128006, Note_on_c, 9, 59, 0
1, 128060, Note_on_c, 9, 35, 54
1, 128070, Note_on_c, 9, 36, 43
1, 128070, Note_on_c, 9, 59, 84
1, 128076, Note_on_c, 0, 62, 59
1, 128080, Note_on_c, 0, 56, 49
1, 128096, Note_on_c, 1, 40, 31
1, 128104, Note_on_c, 0, 62, 0
1, 128106, Note_on_c, 9, 59, 0
1, 128112, Note_on_c, 9, 36, 0
1, 128128, Note_on_c, 0, 56, 0
1, 128144, Note_on_c, 1, 40, 0
1, 128156, Note_on_c, 1, 52, 0
1, 128160, Note_on_c, 9, 35, 0
1, 128188, Note_on_c, 1, 44, 57
1, 128198, Note_on_c, 9, 59, 99
1, 128218, Note_on_c, 9, 35, 26
1, 128232, Note_on_c, 9, 36, 25
1, 128304, Note_on_c, 9, 36, 0
1, 128356, Note_on_c, 0, 64, 54
1, 128388, Note_on_c, 0, 64, 0
1, 128404, Note_on_c, 9, 35, 0
1, 128458, Note_on_c, 9, 59, 0
1, 128468, Note_on_c, 0, 67, 72
1, 128468, Note_on_c, 9, 35, 49
1, 128472, Note_on_c, 1, 40, 48
1, 128476, Note_on_c, 0, 56, 56
1, 128484, Note_on_c, 0, 62, 57
1, 128500, Note_on_c, 9, 35, 0
1, 128548, Note_on_c, 0, 67, 0
1, 128552, Note_on_c, 1, 40, 0
1, 128564, Note_on_c, 1, 47, 73
1, 128568, Note_on_c, 0, 62, 0
1, 128582, Note_on_c, 9, 59, 108
1, 128586, Note_on_c, 9, 46, 45
1, 128588, Note_on_c, 0, 68, 74
1, 128612, Note_on_c, 1, 44, 0
1, 128652, Note_on_c, 0, 56, 0
1, 128684, Note_on_c, 0, 68, 0
1, 128716, Note_on_c, 0, 70, 76
1, 128732, Note_on_c, 9, 46, 0
1, 128812, Note_on_c, 0, 70, 0
1, 128844, Note_on_c, 0, 71, 87
1, 128854, Note_on_c, 9, 59, 0
1, 128860, Note_on_c, 0, 60, 68
1, 128864, Note_on_c, 0, 64, 68
1, 128872, Note_on_c, 0, 59, 57
1, 128884, Note_on_c, 0, 55, 41
1, 128948, Note_on_c, 1, 47, 0
1, 128952, Note_on_c, 0, 71, 0
1, 128952, Note_on_c, 1, 45, 66
1, 128966, Note_on_c, 9, 59, 112
1, 128984, Note_on_c, 0, 74, 73
1, 129104, Note_on_c, 0, 74, 0
1, 129140, Note_on_c, 0, 71, 45
1, 129172, Note_on_c, 0, 71, 0
1, 129244, Note_on_c, 0, 64, 0
1, 129248, Note_on_c, 0, 72, 59
1, 129260, Note_on_c, 9, 59, 0
1, 129332, Note_on_c, 1, 45, 0
1, 129344, Note_on_c, 0, 72, 0
1, 129350, Note_on_c, 1, 39, 68
1, 129350, Note_on_c, 9, 59, 61
1, 129354, Note_on_c, 9, 44, 96
1, 129368, Note_on_c, 0, 59, 0
1, 129376, Note_on_c, 0, 60, 0
1, 129412, Note_on_c, 0, 55, 0
1, 129500, Note_on_c, 9, 44, 0
1, 129558, Note_on_c, 9, 59, 0
1, 129590, Note_on_c, 9, 35, 59
1, 129606, Note_on_c, 9, 59, 68
1, 129616, Note_on_c, 9, 35, 0
1, 129636, Note_on_c, 0, 64, 48
1, 129636, Note_on_c, 0, 60, 56
1, 129642, Note_on_c, 9, 59, 0
1, 129652, Note_on_c, 0, 59, 48
1, 129668, Note_on_c, 0, 64, 0
1, 129716, Note_on_c, 1, 39, 0
1, 129720, Note_on_c, 0, 60, 0
1, 129732, Note_on_c, 0, 59, 0
1, 129734, Note_on_c, 9, 59, 75
1, 129744, Note_on_c, 1, 40, 64
1, 129894, Note_on_c, 9, 38, 46
1, 129932, Note_on_c, 9, 59, 0
1, 129946, Note_on_c, 9, 38, 0
1, 130032, Note_on_c, 0, 60, 57
1, 130032, Note_on_c, 0, 75, 66
1, 130034, Note_on_c, 9, 38, 31
1, 130036, Note_on_c, 0, 59, 55
1, 130036, Note_on_c, 0, 64, 48
1, 130048, Note_on_c, 0, 55, 41
1, 130068, Note_on_c, 0, 64, 0
1, 130074, Note_on_c, 9, 38, 0
1, 130096, Note_on_c, 1, 40, 0
1, 130112, Note_on_c, 1, 33, 68
1, 130118, Note_on_c, 9, 59, 117
1, 130122, Note_on_c, 9, 44, 94
1, 130124, Note_on_c, 0, 60, 0
1, 130128, Note_on_c, 0, 75, 0
1, 130144, Note_on_c, 0, 59, 0
1, 130144, Note_on_c, 0, 55, 0
1, 130180, Note_on_c, 0, 76, 40
1, 130220, Note_on_c, 0, 76, 0
1, 130268, Note_on_c, 9, 44, 0
1, 130288, Note_on_c, 0, 78, 65
1, 130332, Note_on_c, 9, 38, 38
1, 130360, Note_on_c, 0, 78, 0
1, 130364, Note_on_c, 9, 59, 0
1, 130370, Note_on_c, 9, 38, 0
1, 130374, Note_on_c, 9, 59, 35
1, 130420, Note_on_c, 0, 80, 70
1, 130438, Note_on_c, 9, 59, 0
1, 130444, Note_on_c, 0, 60, 50
1, 130444, Note_on_c, 0, 54, 51
1, 130448, Note_on_c, 9, 38, 39
1, 130452, Note_on_c, 0, 64, 46
1, 130486, Note_on_c, 9, 38, 0
1, 130500, Note_on_c, 1, 33, 0
1, 130502, Note_on_c, 9, 59, 78
1, 130508, Note_on_c, 0, 80, 0
1, 130512, Note_on_c, 1, 38, 60
1, 130564, Note_on_c, 0, 82, 56
1, 130596, Note_on_c, 0, 82, 0
1, 130608, Note_on_c, 0, 64, 0
1, 130628, Note_on_c, 0, 60, 0
1, 130656, Note_on_c, 0, 54, 0
1, 130668, Note_on_c, 0, 84, 61
1, 130720, Note_on_c, 0, 84, 0
1, 130750, Note_on_c, 9, 38, 36
1, 130788, Note_on_c, 9, 38, 0
1, 130796, Note_on_c, 0, 86, 58
1, 130796, Note_on_c, 1, 33, 47
1, 130806, Note_on_c, 9, 59, 0
1, 130836, Note_on_c, 0, 86, 0
1, 130868, Note_on_c, 1, 38, 0
1, 130884, Note_on_c, 1, 46, 57
1, 130886, Note_on_c, 9, 59, 87
1, 130890, Note_on_c, 1, 33, 0
1, 130890, Note_on_c, 9, 44, 105
1, 130928, Note_on_c, 0, 88, 47
1, 130968, Note_on_c, 0, 88, 0
1, 131040, Note_on_c, 0, 90, 65
1, 131052, Note_on_c, 9, 44, 0
1, 131092, Note_on_c, 0, 90, 0
1, 131110, Note_on_c, 9, 59, 0
1, 131142, Note_on_c, 9, 59, 75
1, 131168, Note_on_c, 0, 92, 73
1, 131184, Note_on_c, 0, 64, 47
1, 131192, Note_on_c, 0, 60, 48
1, 131196, Note_on_c, 9, 59, 0
1, 131220, Note_on_c, 0, 64, 0
1, 131228, Note_on_c, 0, 92, 0
1, 131252, Note_on_c, 0, 60, 0
1, 131264, Note_on_c, 1, 45, 51
1, 131270, Note_on_c, 9, 59, 57
1, 131274, Note_on_c, 9, 34, 31
1, 131304, Note_on_c, 0, 94, 60
1, 131344, Note_on_c, 9, 34, 0
1, 131380, Note_on_c, 0, 94, 0
1, 131416, Note_on_c, 0, 96, 68
1, 131432, Note_on_c, 1, 46, 0
1, 131478, Note_on_c, 9, 59, 0
1, 131484, Note_on_c, 0, 96, 0
1, 131526, Note_on_c, 9, 53, 80
1, 131530, Note_on_c, 9, 36, 43
1, 131536, Note_on_c, 1, 38, 33
1, 131544, Note_on_c, 0, 92, 70
1, 131552, Note_on_c, 1, 36, 39
1, 131566, Note_on_c, 9, 36, 0
1, 131578, Note_on_c, 9, 53, 0
1, 131584, Note_on_c, 0, 64, 38
1, 131588, Note_on_c, 1, 36, 0
1, 131588, Note_on_c, 0, 60, 41
1, 131600, Note_on_c, 0, 54, 31
1, 131616, Note_on_c, 1, 38, 0
1, 131620, Note_on_c, 1, 45, 0
1, 131628, Note_on_c, 0, 92, 0
1, 131632, Note_on_c, 0, 64, 0
1, 131652, Note_on_c, 0, 54, 0
1, 131654, Note_on_c, 9, 59, 43
1, 131658, Note_on_c, 9, 44, 96
1, 131664, Note_on_c, 0, 94, 57
1, 131664, Note_on_c, 1, 44, 64
1, 131668, Note_on_c, 0, 60, 0
1, 131676, Note_on_c, 9, 38, 37
1, 131710, Note_on_c, 9, 38, 0
1, 131756, Note_on_c, 0, 94, 0
1, 131790, Note_on_c, 9, 38, 32
1, 131800, Note_on_c, 0, 90, 68
1, 131820, Note_on_c, 0, 54, 42
1, 131820, Note_on_c, 0, 64, 34
1, 131820, Note_on_c, 0, 60, 39
1, 131828, Note_on_c, 9, 44, 0
1, 131832, Note_on_c, 9, 38, 0
1, 131868, Note_on_c, 0, 64, 0
1, 131880, Note_on_c, 0, 90, 0
1, 131912, Note_on_c, 0, 60, 0
1, 131912, Note_on_c, 9, 36, 58
1, 131916, Note_on_c, 0, 92, 60
1, 131920, Note_on_c, 0, 54, 0
1, 131924, Note_on_c, 1, 38, 50
1, 131932, Note_on_c, 9, 59, 0
1, 131934, Note_on_c, 9, 36, 0
1, 131972, Note_on_c, 1, 38, 0
1, 131996, Note_on_c, 1, 44, 0
1, 132024, Note_on_c, 0, 92, 0
1, 132038, Note_on_c, 9, 59, 84
1, 132048, Note_on_c, 1, 45, 58
1, 132060, Note_on_c, 0, 88, 55
1, 132068, Note_on_c, 0, 53, 33
1, 132072, Note_on_c, 0, 64, 37
1, 132072, Note_on_c, 0, 60, 41
1, 132076, Note_on_c, 0, 57, 40
1, 132080, Note_on_c, 9, 38, 37
1, 132124, Note_on_c, 9, 38, 0
1, 132136, Note_on_c, 0, 88, 0
1, 132172, Note_on_c, 0, 64, 0
1, 132172, Note_on_c, 0, 60, 0
1, 132188, Note_on_c, 0, 91, 66
1, 132200, Note_on_c, 9, 38, 45
1, 132212, Note_on_c, 0, 53, 0
1, 132216, Note_on_c, 0, 57, 0
1, 132246, Note_on_c, 9, 38, 0
1, 132276, Note_on_c, 0, 91, 0
1, 132312, Note_on_c, 0, 89, 71
1, 132316, Note_on_c, 9, 59, 0
1, 132328, Note_on_c, 9, 36, 64
1, 132356, Note_on_c, 9, 36, 0
1, 132380, Note_on_c, 0, 89, 0
1, 132412, Note_on_c, 1, 38, 62
1, 132422, Note_on_c, 9, 59, 84
1, 132426, Note_on_c, 9, 44, 105
1, 132466, Note_on_c, 9, 38, 47
1, 132468, Note_on_c, 0, 87, 51
1, 132498, Note_on_c, 9, 38, 0
1, 132548, Note_on_c, 0, 88, 54
1, 132572, Note_on_c, 0, 87, 0
1, 132574, Note_on_c, 9, 38, 41
1, 132586, Note_on_c, 9, 44, 0
1, 132604, Note_on_c, 1, 45, 0
1, 132604, Note_on_c, 9, 59, 0
1, 132604, Note_on_c, 9, 38, 0
1, 132624, Note_on_c, 0, 88, 0
1, 132678, Note_on_c, 9, 59, 52
1, 132696, Note_on_c, 9, 36, 60
1, 132714, Note_on_c, 9, 59, 0
1, 132772, Note_on_c, 9, 36, 0
1, 132806, Note_on_c, 9, 59, 66
1, 132820, Note_on_c, 1, 50, 67
1, 132896, Note_on_c, 1, 38, 0
1, 133060, Note_on_c, 9, 31, 40
1, 133084, Note_on_c, 9, 31, 0
1, 133084, Note_on_c, 0, 64, 63
1, 133092, Note_on_c, 0, 60, 54
1, 133094, Note_on_c, 9, 59, 0
1, 133100, Note_on_c, 1, 38, 57
1, 133104, Note_on_c, 0, 57, 44
1, 133108, Note_on_c, 0, 64, 0
1, 133176, Note_on_c, 1, 50, 0
1, 133190, Note_on_c, 9, 59, 87
1, 133194, Note_on_c, 1, 46, 76
1, 133194, Note_on_c, 9, 44, 98
1, 133196, Note_on_c, 0, 60, 0
1, 133200, Note_on_c, 1, 38, 0
1, 133220, Note_on_c, 0, 57, 0
1, 133228, Note_on_c, 9, 31, 59
1, 133276, Note_on_c, 9, 31, 0
1, 133322, Note_on_c, 9, 31, 50
1, 133340, Note_on_c, 9, 44, 0
1, 133376, Note_on_c, 9, 31, 0
1, 133376, Note_on_c, 0, 84, 48
1, 133398, Note_on_c, 9, 59, 0
1, 133404, Note_on_c, 0, 84, 0
1, 133446, Note_on_c, 9, 59, 56
1, 133480, Note_on_c, 0, 86, 66
1, 133498, Note_on_c, 9, 59, 0
1, 133504, Note_on_c, 0, 86, 0
1, 133560, Note_on_c, 1, 46, 0
1, 133568, Note_on_c, 1, 40, 77
1, 133574, Note_on_c, 9, 59, 92
1, 133788, Note_on_c, 0, 95, 79
1, 133800, Note_on_c, 0, 58, 61
1, 133804, Note_on_c, 0, 92, 39
1, 133804, Note_on_c, 0, 52, 56
1, 133808, Note_on_c, 0, 62, 51
1, 133812, Note_on_c, 0, 83, 32
1, 133824, Note_on_c, 0, 88, 31
1, 133832, Note_on_c, 0, 52, 0
1, 133836, Note_on_c, 0, 92, 0
1, 133856, Note_on_c, 0, 62, 0
1, 133860, Note_on_c, 0, 88, 0
1, 133860, Note_on_c, 0, 83, 0
1, 133862, Note_on_c, 9, 59, 0
1, 133868, Note_on_c, 0, 95, 0
1, 133876, Note_on_c, 0, 58, 0
1, 133956, Note_on_c, 1, 52, 71
1, 133958, Note_on_c, 9, 59, 98
1, 133962, Note_on_c, 9, 44, 98
1, 133984, Note_on_c, 1, 40, 0
1, 134116, Note_on_c, 9, 44, 0
1, 134200, Note_on_c, 0, 90, 59
1, 134200, Note_on_c, 0, 81, 71
1, 134204, Note_on_c, 0, 58, 72
1, 134204, Note_on_c, 0, 62, 70
1, 134204, Note_on_c, 0, 93, 60
1, 134208, Note_on_c, 0, 52, 64
1, 134208, Note_on_c, 0, 86, 57
1, 134212, Note_on_c, 9, 31, 50
1, 134216, Note_on_c, 1, 40, 48
1, 134228, Note_on_c, 0, 93, 0
1, 134228, Note_on_c, 0, 62, 0
1, 134228, Note_on_c, 0, 81, 0
1, 134232, Note_on_c, 0, 86, 0
1, 134232, Note_on_c, 0, 52, 0
1, 134236, Note_on_c, 9, 31, 0
1, 134244, Note_on_c, 0, 90, 0
1, 134256, Note_on_c, 1, 52, 0
1, 134268, Note_on_c, 0, 58, 0
1, 134268, Note_on_c, 9, 59, 0
1, 134296, Note_on_c, 1, 40, 0
1, 134304, Note_on_c, 0, 90, 56
1, 134304, Note_on_c, 0, 58, 54
1, 134308, Note_on_c, 0, 81, 49
1, 134312, Note_on_c, 0, 93, 45
1, 134312, Note_on_c, 0, 62, 41
1, 134316, Note_on_c, 0, 52, 39
1, 134324, Note_on_c, 0, 86, 39
1, 134328, Note_on_c, 0, 60, 31
1, 134332, Note_on_c, 0, 81, 0
1, 134342, Note_on_c, 9, 59, 82
1, 134344, Note_on_c, 0, 62, 0
1, 134344, Note_on_c, 0, 52, 0
1, 134344, Note_on_c, 1, 45, 64
1, 134356, Note_on_c, 0, 86, 0
1, 134360, Note_on_c, 0, 93, 0
1, 134364, Note_on_c, 0, 60, 0
1, 134368, Note_on_c, 0, 90, 0
1, 134368, Note_on_c, 0, 58, 0
1, 134444, Note_on_c, 0, 96, 107
1, 134448, Note_on_c, 0, 55, 83
1, 134452, Note_on_c, 0, 65, 86
1, 134452, Note_on_c, 0, 90, 52
1, 134452, Note_on_c, 0, 61, 74
1, 134456, Note_on_c, 0, 89, 77
1, 134456, Note_on_c, 0, 84, 67
1, 134456, Note_on_c, 0, 58, 64
1, 134472, Note_on_c, 0, 93, 54
1, 134472, Note_on_c, 0, 86, 56
1, 134496, Note_on_c, 0, 86, 0
1, 134520, Control_c, 0, 64, 127
1, 134600, Note_on_c, 0, 90, 0
1, 134636, Note_on_c, 9, 59, 0
1, 134656, Note_on_c, 1, 45, 0
1, 134668, Note_on_c, 0, 84, 0
1, 134668, Note_on_c, 0, 65, 0
1, 134668, Note_on_c, 0, 96, 0
1, 134676, Note_on_c, 0, 55, 0
1, 134676, Note_on_c, 0, 93, 0
1, 134684, Note_on_c, 0, 61, 0
1, 134700, Note_on_c, 0, 58, 0
1, 134704, Note_on_c, 0, 89, 0
1, 134720, Note_on_c, 1, 45, 68
1, 134726, Note_on_c, 9, 59, 63
1, 134730, Note_on_c, 9, 46, 36
1, 134776, Note_on_c, 0, 55, 58
1, 134776, Note_on_c, 0, 65, 69
1, 134776, Note_on_c, 0, 58, 51
1, 134780, Note_on_c, 0, 96, 78
1, 134780, Note_on_c, 0, 61, 68
1, 134784, Note_on_c, 0, 84, 68
1, 134784, Note_on_c, 0, 89, 65
1, 134796, Note_on_c, 0, 93, 66
1, 134852, Note_on_c, 9, 46, 0
1, 134908, Note_on_c, 0, 96, 0
1, 134912, Note_on_c, 0, 93, 0
1, 134916, Note_on_c, 0, 65, 0
1, 134952, Note_on_c, 0, 89, 0
1, 134960, Note_on_c, 0, 84, 0
1, 134960, Note_on_c, 0, 55, 0
1, 134976, Note_on_c, 0, 61, 0
1, 134982, Note_on_c, 1, 39, 63
1, 134982, Note_on_c, 9, 35, 50
1, 134984, Note_on_c, 1, 45, 0
1, 134996, Note_on_c, 0, 58, 0
1, 134998, Note_on_c, 9, 59, 0
1, 135004, Note_on_c, 9, 35, 0
1, 135064, Note_on_c, 1, 39, 0
1, 135110, Note_on_c, 9, 59, 78
1, 135112, Note_on_c, 1, 38, 65
1, 135300, Note_on_c, 1, 38, 0
1, 135308, Control_c, 0, 64, 0
1, 135338, Note_on_c, 9, 59, 0
1, 135348, Note_on_c, 0, 65, 79
1, 135352, Note_on_c, 0, 50, 66
1, 135356, Note_on_c, 0, 60, 82
1, 135360, Note_on_c, 0, 57, 80
1, 135364, Note_on_c, 1, 38, 65
1, 135366, Note_on_c, 9, 59, 82
1, 135418, Note_on_c, 9, 59, 0
1, 135444, Control_c, 0, 64, 127
1, 135468, Note_on_c, 0, 57, 0
1, 135472, Note_on_c, 0, 65, 0
1, 135476, Note_on_c, 0, 60, 0
1, 135480, Note_on_c, 1, 40, 68
1, 135488, Note_on_c, 1, 38, 0
1, 135492, Note_on_c, 9, 59, 47
1, 135498, Note_on_c, 9, 44, 87
1, 135564, Note_on_c, 0, 50, 0
1, 135564, Note_on_c, 0, 67, 78
1, 135568, Note_on_c, 0, 59, 73
1, 135572, Note_on_c, 0, 52, 80
1, 135576, Note_on_c, 0, 62, 73
1, 135660, Note_on_c, 9, 44, 0
1, 135672, Note_on_c, 0, 59, 0
1, 135696, Note_on_c, 0, 62, 0
1, 135700, Note_on_c, 0, 67, 0
1, 135724, Control_c, 0, 64, 0
1, 135738, Note_on_c, 9, 35, 26
1, 135788, Note_on_c, 9, 35, 0
1, 135788, Note_on_c, 9, 59, 0
1, 135792, Note_on_c, 0, 69, 78
1, 135796, Note_on_c, 0, 64, 78
1, 135800, Note_on_c, 0, 60, 72
1, 135808, Note_on_c, 0, 53, 72
1, 135824, Note_on_c, 0, 52, 0
1, 135864, Note_on_c, 1, 41, 62
1, 135878, Note_on_c, 9, 35, 26
1, 135878, Note_on_c, 9, 59, 63
1, 135884, Control_c, 0, 64, 127
1, 135924, Note_on_c, 1, 40, 0
1, 135958, Note_on_c, 9, 35, 0
1, 136000, Note_on_c, 0, 60, 0
1, 136028, Note_on_c, 0, 64, 0
1, 136028, Note_on_c, 0, 69, 0
1, 136040, Note_on_c, 1, 41, 0
1, 136056, Note_on_c, 0, 53, 0
1, 136124, Note_on_c, 1, 41, 54
1, 136156, Note_on_c, 9, 59, 0
1, 136236, Note_on_c, 1, 42, 66
1, 136262, Note_on_c, 9, 59, 70
1, 136264, Note_on_c, 1, 41, 0
1, 136266, Note_on_c, 9, 44, 92
1, 136270, Note_on_c, 9, 37, 39
1, 136408, Note_on_c, 9, 37, 0
1, 136420, Note_on_c, 9, 44, 0
1, 136480, Note_on_c, 0, 44, 50
1, 136480, Note_on_c, 0, 54, 47
1, 136484, Note_on_c, 0, 72, 51
1, 136492, Note_on_c, 0, 61, 57
1, 136502, Note_on_c, 9, 59, 0
1, 136512, Note_on_c, 0, 72, 0
1, 136516, Note_on_c, 1, 39, 46
1, 136518, Note_on_c, 9, 59, 61
1, 136520, Note_on_c, 0, 44, 0
1, 136520, Note_on_c, 0, 61, 0
1, 136532, Note_on_c, 9, 35, 38
1, 136556, Note_on_c, 0, 54, 0
1, 136564, Note_on_c, 9, 35, 0
1, 136596, Note_on_c, 1, 42, 0
1, 136598, Note_on_c, 9, 59, 0
1, 136604, Note_on_c, 1, 39, 0
1, 136632, Control_c, 0, 64, 0
1, 136632, Note_on_c, 1, 43, 63
1, 136646, Note_on_c, 9, 59, 92
1, 136696, Note_on_c, 0, 74, 73
1, 136696, Note_on_c, 0, 65, 80
1, 136704, Note_on_c, 0, 72, 56
1, 136704, Note_on_c, 0, 69, 72
1, 136712, Note_on_c, 0, 64, 77
1, 136728, Note_on_c, 0, 72, 0
1, 136732, Note_on_c, 0, 70, 34
1, 136764, Note_on_c, 0, 70, 0
1, 136764, Control_c, 0, 64, 127
1, 136966, Note_on_c, 9, 59, 0
1, 136976, Note_on_c, 1, 43, 0
1, 137012, Note_on_c, 1, 38, 71
1, 137030, Note_on_c, 9, 59, 105
1, 137030, Note_on_c, 9, 37, 56
1, 137034, Note_on_c, 9, 44, 106
1, 137128, Note_on_c, 0, 69, 0
1, 137148, Note_on_c, 0, 64, 0
1, 137154, Note_on_c, 9, 37, 0
1, 137172, Note_on_c, 9, 44, 0
1, 137180, Note_on_c, 0, 65, 0
1, 137292, Note_on_c, 0, 74, 0
1, 137292, Note_on_c, 9, 35, 43
1, 137308, Control_c, 0, 64, 0
1, 137324, Note_on_c, 0, 63, 55
1, 137324, Note_on_c, 0, 68, 58
1, 137324, Note_on_c, 0, 65, 57
1, 137332, Note_on_c, 9, 35, 0
1, 137336, Note_on_c, 0, 71, 54
1, 137344, Note_on_c, 0, 59, 48
1, 137348, Note_on_c, 0, 53, 35
1, 137356, Note_on_c, 9, 59, 0
1, 137400, Note_on_c, 1, 38, 0
1, 137412, Note_on_c, 1, 31, 62
1, 137414, Note_on_c, 9, 59, 75
1, 137424, Control_c, 0, 64, 127
1, 137600, Note_on_c, 0, 53, 0
1, 137644, Note_on_c, 0, 65, 0
1, 137652, Note_on_c, 1, 31, 0
1, 137658, Note_on_c, 9, 59, 0
1, 137664, Note_on_c, 1, 34, 60
1, 137670, Note_on_c, 9, 59, 64
1, 137680, Note_on_c, 0, 71, 0
1, 137684, Note_on_c, 0, 68, 0
1, 137688, Note_on_c, 9, 38, 74
1, 137716, Note_on_c, 0, 59, 0
1, 137724, Note_on_c, 0, 63, 0
1, 137744, Note_on_c, 1, 34, 0
1, 137750, Note_on_c, 9, 59, 0
1, 137776, Note_on_c, 9, 38, 0
1, 137776, Note_on_c, 1, 35, 68
1, 137798, Note_on_c, 9, 59, 110
1, 137802, Note_on_c, 9, 44, 94
1, 137852, Note_on_c, 9, 38, 63
1, 137940, Note_on_c, 9, 44, 0
1, 137982, Note_on_c, 9, 38, 0
1, 138048, Note_on_c, 1, 34, 39
1, 138058, Note_on_c, 9, 35, 36
1, 138070, Note_on_c, 9, 36, 72
1, 138102, Note_on_c, 9, 59, 0
1, 138122, Note_on_c, 9, 35, 0
1, 138132, Note_on_c, 1, 34, 0
1, 138140, Note_on_c, 1, 35, 0
1, 138148, Control_c, 0, 64, 0
1, 138152, Note_on_c, 1, 36, 66
1, 138164, Note_on_c, 9, 36, 0
1, 138182, Note_on_c, 9, 59, 117
1, 138184, Note_on_c, 0, 52, 43
1, 138188, Note_on_c, 9, 35, 38
1, 138204, Note_on_c, 0, 57, 49
1, 138204, Note_on_c, 0, 88, 68
1, 138204, Note_on_c, 0, 62, 47
1, 138212, Note_on_c, 0, 83, 58
1, 138216, Note_on_c, 0, 76, 48
1, 138228, Note_on_c, 9, 36, 57
1, 138240, Control_c, 0, 64, 127
1, 138260, Note_on_c, 9, 35, 0
1, 138340, Note_on_c, 0, 83, 0
1, 138340, Note_on_c, 0, 88, 0
1, 138362, Note_on_c, 9, 36, 0
1, 138364, Note_on_c, 0, 52, 0
1, 138376, Note_on_c, 0, 62, 0
1, 138376, Note_on_c, 0, 76, 0
1, 138384, Note_on_c, 0, 57, 0
1, 138464, Note_on_c, 0, 86, 60
1, 138468, Note_on_c, 0, 74, 57
1, 138480, Note_on_c, 0, 81, 54
1, 138480, Note_on_c, 0, 62, 49
1, 138480, Note_on_c, 0, 52, 47
1, 138480, Note_on_c, 0, 57, 45
1, 138492, Note_on_c, 0, 74, 0
1, 138492, Note_on_c, 1, 34, 31
1, 138508, Note_on_c, 0, 81, 0
1, 138508, Note_on_c, 0, 52, 0
1, 138508, Note_on_c, 0, 62, 0
1, 138524, Note_on_c, 9, 59, 0
1, 138528, Note_on_c, 0, 86, 0
1, 138540, Note_on_c, 0, 57, 0
1, 138548, Control_c, 0, 64, 0
1, 138548, Note_on_c, 1, 48, 92
1, 138564, Note_on_c, 1, 34, 0
1, 138566, Note_on_c, 9, 59, 87
1, 138570, Note_on_c, 9, 44, 99
1, 138580, Note_on_c, 1, 36, 0
1, 138596, Note_on_c, 0, 88, 63
1, 138596, Note_on_c, 0, 52, 49
1, 138596, Note_on_c, 0, 62, 57
1, 138604, Note_on_c, 0, 83, 56
1, 138604, Note_on_c, 0, 57, 50
1, 138608, Note_on_c, 0, 76, 52
1, 138624, Control_c, 0, 64, 127
1, 138676, Note_on_c, 0, 57, 0
1, 138676, Note_on_c, 0, 52, 0
1, 138692, Note_on_c, 9, 44, 0
1, 138724, Note_on_c, 0, 88, 0
1, 138724, Note_on_c, 0, 62, 0
1, 138744, Note_on_c, 0, 83, 0
1, 138756, Note_on_c, 0, 76, 0
1, 138796, Note_on_c, 9, 59, 0
1, 138820, Control_c, 0, 64, 0
1, 138820, Note_on_c, 1, 36, 45
1, 138820, Note_on_c, 9, 59, 56
1, 138820, Note_on_c, 9, 35, 40
1, 138836, Note_on_c, 0, 64, 59
1, 138848, Note_on_c, 0, 60, 54
1, 138852, Note_on_c, 0, 55, 41
1, 138852, Note_on_c, 0, 86, 64
1, 138858, Note_on_c, 9, 35, 0
1, 138860, Note_on_c, 0, 59, 36
1, 138864, Note_on_c, 0, 74, 43
1, 138864, Note_on_c, 0, 81, 53
1, 138876, Note_on_c, 1, 36, 0
1, 138896, Note_on_c, 0, 81, 0
1, 138902, Note_on_c, 9, 59, 0
1, 138912, Note_on_c, 0, 64, 0
1, 138912, Note_on_c, 1, 48, 0
1, 138916, Note_on_c, 0, 74, 0
1, 138916, Note_on_c, 0, 86, 0
1, 138932, Note_on_c, 0, 55, 0
1, 138936, Note_on_c, 0, 60, 0
1, 138940, Note_on_c, 1, 45, 61
1, 138948, Note_on_c, 0, 59, 0
1, 138950, Note_on_c, 9, 59, 84
1, 139180, Note_on_c, 9, 59, 0
1, 139206, Note_on_c, 9, 59, 61
1, 139216, Note_on_c, 0, 64, 48
1, 139224, Note_on_c, 0, 84, 57
1, 139224, Note_on_c, 0, 60, 49
1, 139228, Note_on_c, 0, 79, 60
1, 139232, Note_on_c, 0, 55, 31
1, 139236, Note_on_c, 0, 72, 39
1, 139270, Note_on_c, 9, 59, 0
1, 139288, Control_c, 0, 64, 127
1, 139320, Note_on_c, 1, 45, 0
1, 139320, Note_on_c, 1, 39, 58
1, 139334, Note_on_c, 9, 59, 120
1, 139338, Note_on_c, 9, 44, 94
1, 139364, Note_on_c, 0, 64, 0
1, 139376, Note_on_c, 0, 60, 0
1, 139400, Note_on_c, 0, 55, 0
1, 139416, Note_on_c, 0, 72, 0
1, 139450, Note_on_c, 9, 44, 0
1, 139452, Note_on_c, 0, 79, 0
1, 139476, Note_on_c, 0, 84, 0
1, 139606, Note_on_c, 9, 35, 43
1, 139628, Note_on_c, 9, 59, 0
1, 139648, Note_on_c, 9, 35, 0
1, 139656, Note_on_c, 1, 37, 25
1, 139660, Control_c, 0, 64, 0
1, 139688, Note_on_c, 1, 39, 0
1, 139696, Note_on_c, 1, 37, 0
1, 139712, Note_on_c, 1, 38, 66
1, 139718, Note_on_c, 9, 59, 108
1, 139720, Note_on_c, 0, 60, 43
1, 139740, Note_on_c, 0, 57, 37
1, 139740, Note_on_c, 0, 74, 42
1, 139740, Note_on_c, 0, 86, 48
1, 139744, Note_on_c, 0, 53, 43
1, 139748, Note_on_c, 0, 81, 51
1, 139752, Control_c, 0, 64, 127
1, 139756, Note_on_c, 0, 50, 26
1, 139816, Note_on_c, 0, 50, 0
1, 139820, Note_on_c, 0, 74, 0
1, 139824, Note_on_c, 0, 53, 0
1, 139828, Note_on_c, 0, 57, 0
1, 139836, Note_on_c, 0, 60, 0
1, 139852, Note_on_c, 0, 81, 0
1, 139872, Note_on_c, 0, 86, 0
1, 139984, Note_on_c, 0, 88, 72
1, 139996, Note_on_c, 0, 76, 57
1, 140000, Note_on_c, 0, 83, 60
1, 140028, Note_on_c, 0, 76, 0
1, 140044, Note_on_c, 0, 83, 0
1, 140054, Note_on_c, 9, 59, 0
1, 140064, Note_on_c, 0, 88, 0
1, 140102, Note_on_c, 9, 59, 64
1, 140106, Note_on_c, 9, 44, 85
1, 140160, Note_on_c, 0, 89, 68
1, 140168, Note_on_c, 0, 84, 51
1, 140172, Note_on_c, 0, 77, 46
1, 140200, Note_on_c, 0, 77, 0
1, 140204, Note_on_c, 0, 84, 0
1, 140208, Note_on_c, 1, 45, 61
1, 140224, Note_on_c, 0, 89, 0
1, 140236, Note_on_c, 9, 44, 0
1, 140236, Note_on_c, 1, 38, 0
1, 140260, Note_on_c, 1, 45, 0
1, 140326, Note_on_c, 9, 59, 0
1, 140344, Note_on_c, 1, 38, 55
1, 140356, Note_on_c, 9, 35, 54
1, 140358, Note_on_c, 9, 59, 73
1, 140372, Note_on_c, 0, 91, 63
1, 140376, Note_on_c, 0, 60, 53
1, 140376, Note_on_c, 0, 86, 68
1, 140380, Note_on_c, 0, 79, 59
1, 140384, Note_on_c, 0, 64, 48
1, 140384, Note_on_c, 0, 57, 50
1, 140388, Note_on_c, 0, 53, 39
1, 140394, Note_on_c, 9, 35, 0
1, 140404, Note_on_c, 0, 60, 0
1, 140408, Note_on_c, 0, 79, 0
1, 140412, Note_on_c, 0, 64, 0
1, 140420, Note_on_c, 0, 53, 0
1, 140424, Note_on_c, 1, 38, 0
1, 140426, Note_on_c, 9, 59, 0
1, 140436, Note_on_c, 0, 86, 0
1, 140436, Note_on_c, 0, 91, 0
1, 140440, Control_c, 0, 64, 0
1, 140448, Note_on_c, 0, 57, 0
1, 140480, Note_on_c, 1, 43, 71
1, 140486, Note_on_c, 9, 59, 56
1, 140520, Note_on_c, 0, 93, 78
1, 140524, Note_on_c, 0, 88, 71
1, 140524, Note_on_c, 0, 53, 63
1, 140524, Note_on_c, 0, 64, 68
1, 140528, Note_on_c, 0, 81, 58
1, 140532, Note_on_c, 0, 59, 61
1, 140564, Control_c, 0, 64, 127
1, 140618, Note_on_c, 9, 59, 0
1, 140660, Note_on_c, 0, 81, 0
1, 140684, Note_on_c, 0, 88, 0
1, 140688, Note_on_c, 0, 53, 0
1, 140688, Note_on_c, 0, 64, 0
1, 140692, Note_on_c, 0, 93, 0
1, 140708, Note_on_c, 0, 59, 0
1, 140742, Note_on_c, 9, 59, 119
1, 140760, Control_c, 0, 64, 0
1, 140778, Note_on_c, 9, 59, 0
1, 140780, Note_on_c, 0, 95, 84
1, 140780, Note_on_c, 0, 53, 71
1, 140780, Note_on_c, 0, 59, 66
1, 140780, Note_on_c, 0, 64, 75
1, 140780, Note_on_c, 0, 88, 81
1, 140792, Note_on_c, 0, 83, 66
1, 140870, Note_on_c, 9, 59, 75
1, 140874, Note_on_c, 9, 44, 84
1, 140960, Control_c, 0, 64, 127
1, 140996, Note_on_c, 9, 44, 0
1, 141004, Note_on_c, 0, 88, 0
1, 141008, Note_on_c, 0, 59, 0
1, 141012, Note_on_c, 0, 83, 0
1, 141020, Note_on_c, 0, 64, 0
1, 141036, Note_on_c, 0, 95, 0
1, 141040, Note_on_c, 0, 53, 0
1, 141076, Control_c, 0, 64, 0
1, 141078, Note_on_c, 9, 59, 0
1, 141108, Note_on_c, 1, 34, 49
1, 141124, Note_on_c, 0, 96, 90
1, 141126, Note_on_c, 9, 59, 64
1, 141128, Note_on_c, 0, 62, 81
1, 141128, Note_on_c, 0, 91, 85
1, 141128, Note_on_c, 0, 84, 78
1, 141128, Note_on_c, 0, 52, 76
1, 141140, Note_on_c, 0, 57, 71
1, 141158, Note_on_c, 9, 59, 0
1, 141204, Control_c, 0, 64, 127
1, 141220, Note_on_c, 1, 34, 0
1, 141220, Note_on_c, 1, 43, 0
1, 141240, Note_on_c, 1, 36, 74
1, 141244, Note_on_c, 9, 35, 36
1, 141254, Note_on_c, 9, 59, 112
1, 141296, Note_on_c, 9, 35, 0
1, 141332, Note_on_c, 0, 84, 0
1, 141340, Note_on_c, 0, 52, 0
1, 141348, Note_on_c, 0, 57, 0
1, 141348, Note_on_c, 0, 62, 0
1, 141352, Note_on_c, 0, 91, 0
1, 141372, Note_on_c, 0, 96, 0
1, 141500, Note_on_c, 0, 98, 89
1, 141500, Note_on_c, 0, 62, 80
1, 141504, Note_on_c, 0, 93, 81
1, 141508, Note_on_c, 0, 86, 75
1, 141512, Note_on_c, 0, 52, 65
1, 141512, Note_on_c, 0, 57, 69
1, 141546, Note_on_c, 9, 59, 0
1, 141584, Control_c, 0, 64, 0
1, 141604, Note_on_c, 0, 98, 0
1, 141612, Note_on_c, 0, 62, 0
1, 141616, Note_on_c, 0, 93, 0
1, 141616, Control_c, 0, 64, 127
1, 141620, Note_on_c, 0, 52, 0
1, 141628, Note_on_c, 0, 86, 0
1, 141638, Note_on_c, 9, 59, 96
1, 141642, Note_on_c, 9, 44, 89
1, 141644, Note_on_c, 0, 57, 0
1, 141696, Note_on_c, 0, 62, 54
1, 141700, Note_on_c, 0, 96, 75
1, 141704, Note_on_c, 0, 52, 45
1, 141716, Note_on_c, 0, 91, 69
1, 141716, Note_on_c, 0, 84, 65
1, 141724, Note_on_c, 0, 57, 39
1, 141732, Note_on_c, 0, 52, 0
1, 141748, Note_on_c, 9, 44, 0
1, 141752, Note_on_c, 0, 57, 0
1, 141768, Note_on_c, 0, 91, 0
1, 141776, Note_on_c, 0, 96, 0
1, 141776, Note_on_c, 0, 62, 0
1, 141796, Note_on_c, 0, 84, 0
1, 141852, Note_on_c, 9, 59, 0
1, 141894, Note_on_c, 9, 59, 68
1, 141908, Note_on_c, 9, 35, 36
1, 141936, Note_on_c, 9, 59, 0
1, 141940, Note_on_c, 9, 35, 0
1, 141992, Control_c, 0, 64, 0
1, 142020, Note_on_c, 9, 59, 87
1, 142036, Note_on_c, 0, 56, 58
1, 142044, Note_on_c, 0, 67, 54
1, 142044, Note_on_c, 0, 91, 68
1, 142044, Note_on_c, 1, 50, 92
1, 142048, Note_on_c, 0, 62, 56
1, 142048, Note_on_c, 0, 88, 57
1, 142048, Note_on_c, 1, 34, 66
1, 142052, Note_on_c, 0, 79, 56
1, 142092, Note_on_c, 1, 36, 0
1, 142144, Control_c, 0, 64, 127
1, 142212, Note_on_c, 0, 79, 0
1, 142224, Note_on_c, 0, 67, 0
1, 142224, Note_on_c, 0, 91, 0
1, 142228, Note_on_c, 0, 56, 0
1, 142240, Note_on_c, 0, 62, 0
1, 142264, Note_on_c, 0, 88, 0
1, 142278, Note_on_c, 9, 59, 0
1, 142332, Note_on_c, 0, 93, 78
1, 142332, Note_on_c, 0, 56, 65
1, 142344, Note_on_c, 0, 81, 61
1, 142348, Note_on_c, 0, 67, 53
1, 142356, Note_on_c, 0, 62, 55
1, 142406, Note_on_c, 9, 59, 96
1, 142410, Note_on_c, 9, 44, 99
1, 142412, Note_on_c, 0, 67, 0
1, 142428, Note_on_c, 0, 93, 0
1, 142436, Note_on_c, 0, 81, 0
1, 142440, Note_on_c, 0, 56, 0
1, 142444, Note_on_c, 0, 62, 0
1, 142540, Note_on_c, 9, 44, 0
1, 142552, Note_on_c, 0, 56, 57
1, 142564, Note_on_c, 0, 91, 57
1, 142580, Note_on_c, 0, 79, 50
1, 142580, Note_on_c, 0, 67, 33
1, 142614, Note_on_c, 9, 59, 0
1, 142616, Note_on_c, 0, 67, 0
1, 142628, Note_on_c, 0, 91, 0
1, 142652, Note_on_c, 0, 79, 0
1, 142662, Note_on_c, 9, 59, 56
1, 142708, Note_on_c, 0, 56, 0
1, 142742, Note_on_c, 9, 59, 0
1, 142756, Control_c, 0, 64, 0
1, 142790, Note_on_c, 9, 59, 68
1, 142790, Note_on_c, 9, 35, 29
1, 142816, Note_on_c, 1, 49, 60
1, 142820, Note_on_c, 0, 88, 57
1, 142820, Note_on_c, 1, 33, 57
1, 142824, Note_on_c, 1, 50, 0
1, 142824, Note_on_c, 1, 34, 0
1, 142828, Note_on_c, 0, 55, 41
1, 142828, Note_on_c, 0, 61, 53
1, 142832, Note_on_c, 9, 35, 0
1, 142832, Note_on_c, 0, 82, 50
1, 142832, Note_on_c, 0, 76, 46
1, 142832, Note_on_c, 0, 65, 47
1, 142880, Control_c, 0, 64, 127
1, 143014, Note_on_c, 9, 59, 0
1, 143046, Note_on_c, 9, 59, 57
1, 143066, Note_on_c, 9, 59, 0
1, 143174, Note_on_c, 9, 59, 127
1, 143178, Note_on_c, 9, 44, 98
1, 143228, Note_on_c, 0, 65, 0
1, 143268, Note_on_c, 0, 61, 0
1, 143276, Note_on_c, 0, 55, 0
1, 143324, Note_on_c, 9, 44, 0
1, 143328, Note_on_c, 0, 82, 0
1, 143340, Note_on_c, 0, 76, 0
1, 143348, Note_on_c, 0, 88, 0
1, 143424, Control_c, 0, 64, 0
1, 143434, Note_on_c, 9, 59, 0
1, 143456, Note_on_c, 0, 88, 57
1, 143468, Note_on_c, 0, 55, 46
1, 143472, Note_on_c, 0, 61, 45
1, 143476, Note_on_c, 0, 76, 42
1, 143480, Note_on_c, 0, 64, 41
1, 143524, Control_c, 0, 64, 56
1, 143528, Control_c, 0, 64, 127
1, 143558, Note_on_c, 9, 59, 117
1, 143558, Note_on_c, 9, 34, 31
1, 143568, Note_on_c, 1, 52, 63
1, 143580, Note_on_c, 1, 37, 49
1, 143596, Note_on_c, 1, 49, 0
1, 143606, Note_on_c, 9, 34, 0
1, 143612, Note_on_c, 1, 33, 0
1, 143688, Note_on_c, 0, 88, 0
1, 143782, Note_on_c, 9, 59, 0
1, 143792, Note_on_c, 0, 76, 0
1, 143814, Note_on_c, 9, 59, 36
1, 143836, Note_on_c, 9, 34, 29
1, 143868, Note_on_c, 9, 34, 0
1, 143892, Note_on_c, 0, 64, 0
1, 143910, Note_on_c, 9, 59, 0
1, 143942, Note_on_c, 9, 59, 63
1, 143946, Note_on_c, 9, 44, 91
1, 143972, Note_on_c, 0, 55, 0
1, 143976, Note_on_c, 0, 61, 0
1, 143990, Note_on_c, 9, 38, 22
1, 144018, Note_on_c, 9, 38, 0
1, 144070, Note_on_c, 9, 59, 0
1, 144148, Note_on_c, 9, 44, 0
1, 144180, Note_on_c, 9, 34, 43
1, 144198, Note_on_c, 9, 59, 126
1, 144220, Note_on_c, 1, 34, 45
1, 144222, Note_on_c, 9, 36, 39
1, 144232, Note_on_c, 1, 52, 0
1, 144264, Note_on_c, 9, 36, 0
1, 144284, Note_on_c, 9, 34, 0
1, 144298, Note_on_c, 9, 35, 52
1, 144298, Note_on_c, 9, 57, 29
1, 144324, Control_c, 0, 64, 0
1, 144336, Note_on_c, 1, 37, 0
1, 144348, Note_on_c, 1, 38, 48
1, 144356, Note_on_c, 9, 57, 0
1, 144364, Note_on_c, 9, 35, 0
1, 144380, Note_on_c, 1, 34, 0
1, 144380, Note_on_c, 9, 36, 27
1, 144444, Note_on_c, 9, 36, 0
1, 144556, Note_on_c, 9, 59, 0
1, 144556, Note_on_c, 0, 80, 72
1, 144568, Note_on_c, 0, 76, 71
1, 144572, Note_on_c, 0, 88, 59
1, 144576, Note_on_c, 0, 84, 49
1, 144580, Note_on_c, 0, 54, 55
1, 144582, Note_on_c, 9, 59, 40
1, 144588, Note_on_c, 0, 64, 52
1, 144588, Note_on_c, 0, 60, 49
1, 144644, Note_on_c, 0, 80, 0
1, 144648, Note_on_c, 0, 81, 39
1, 144666, Note_on_c, 9, 59, 0
1, 144710, Note_on_c, 9, 59, 91
1, 144714, Note_on_c, 9, 44, 94
1, 144728, Note_on_c, 0, 64, 0
1, 144736, Note_on_c, 0, 88, 0
1, 144736, Note_on_c, 0, 76, 0
1, 144760, Note_on_c, 0, 84, 0
1, 144760, Note_on_c, 0, 54, 0
1, 144764, Note_on_c, 0, 81, 0
1, 144772, Note_on_c, 0, 60, 0
1, 144836, Note_on_c, 0, 86, 66
1, 144848, Note_on_c, 0, 64, 54
1, 144848, Note_on_c, 0, 74, 39
1, 144848, Note_on_c, 0, 54, 49
1, 144848, Note_on_c, 0, 60, 49
1, 144856, Note_on_c, 0, 81, 43
1, 144868, Note_on_c, 0, 86, 0
1, 144884, Note_on_c, 0, 81, 0
1, 144884, Note_on_c, 0, 64, 0
1, 144884, Note_on_c, 0, 74, 0
1, 144884, Note_on_c, 0, 54, 0
1, 144896, Note_on_c, 0, 60, 0
1, 144900, Note_on_c, 9, 44, 0
1, 144928, Note_on_c, 1, 38, 0
1, 144972, Note_on_c, 0, 54, 48
1, 144972, Note_on_c, 9, 35, 50
1, 144980, Note_on_c, 0, 60, 49
1, 144988, Note_on_c, 9, 59, 0
1, 144988, Note_on_c, 0, 64, 44
1, 144988, Note_on_c, 0, 88, 79
1, 144996, Note_on_c, 0, 76, 45
1, 144996, Note_on_c, 1, 40, 80
1, 144998, Note_on_c, 9, 35, 0
1, 145016, Note_on_c, 0, 81, 48
1, 145032, Note_on_c, 0, 64, 0
1, 145044, Note_on_c, 0, 76, 0
1, 145048, Note_on_c, 0, 60, 0
1, 145048, Note_on_c, 0, 54, 0
1, 145056, Note_on_c, 0, 81, 0
1, 145080, Note_on_c, 0, 88, 0
1, 145094, Note_on_c, 9, 59, 99
1, 145100, Note_on_c, 0, 64, 55
1, 145104, Note_on_c, 0, 54, 55
1, 145112, Note_on_c, 0, 86, 56
1, 145120, Note_on_c, 0, 74, 40
1, 145124, Note_on_c, 0, 60, 52
1, 145132, Note_on_c, 0, 81, 41
1, 145220, Note_on_c, 0, 74, 0
1, 145260, Note_on_c, 0, 86, 0
1, 145288, Note_on_c, 0, 64, 0
1, 145296, Note_on_c, 0, 54, 0
1, 145300, Note_on_c, 0, 81, 0
1, 145320, Note_on_c, 0, 60, 0
1, 145352, Note_on_c, 0, 84, 63
1, 145360, Note_on_c, 0, 54, 57
1, 145360, Note_on_c, 1, 41, 68
1, 145364, Note_on_c, 1, 40, 0
1, 145368, Note_on_c, 0, 64, 46
1, 145384, Note_on_c, 0, 60, 45
1, 145414, Note_on_c, 9, 59, 0
1, 145420, Note_on_c, 0, 64, 0
1, 145432, Note_on_c, 0, 60, 0
1, 145452, Note_on_c, 0, 84, 0
1, 145472, Note_on_c, 0, 54, 0
1, 145478, Note_on_c, 1, 41, 0
1, 145478, Note_on_c, 9, 59, 75
1, 145482, Note_on_c, 9, 44, 98
1, 145504, Note_on_c, 1, 42, 65
1, 145532, Control_c, 0, 64, 127
1, 145652, Note_on_c, 9, 44, 0
1, 145724, Note_on_c, 9, 59, 0
1, 145732, Control_c, 0, 64, 0
1, 145734, Note_on_c, 9, 59, 59
1, 145804, Note_on_c, 1, 42, 0
1, 145820, Control_c, 0, 64, 127
1, 145824, Note_on_c, 0, 60, 41
1, 145824, Note_on_c, 0, 53, 49
1, 145830, Note_on_c, 9, 59, 0
1, 145836, Note_on_c, 0, 64, 43
1, 145848, Note_on_c, 0, 57, 41
1, 145856, Note_on_c, 1, 43, 64
1, 145862, Note_on_c, 9, 59, 92
1, 145864, Note_on_c, 0, 86, 41
1, 145864, Note_on_c, 0, 81, 49
1, 145872, Note_on_c, 0, 74, 41
1, 145956, Note_on_c, 0, 74, 0
1, 145984, Note_on_c, 0, 81, 0
1, 145984, Note_on_c, 0, 64, 0
1, 145988, Note_on_c, 0, 53, 0
1, 145996, Note_on_c, 0, 60, 0
1, 145996, Note_on_c, 0, 57, 0
1, 146000, Note_on_c, 0, 86, 0
1, 146116, Note_on_c, 0, 88, 75
1, 146124, Note_on_c, 0, 64, 60
1, 146128, Note_on_c, 0, 76, 66
1, 146128, Note_on_c, 0, 60, 54
1, 146128, Note_on_c, 0, 83, 68
1, 146128, Note_on_c, 0, 53, 48
1, 146144, Note_on_c, 0, 57, 45
1, 146172, Note_on_c, 0, 53, 0
1, 146180, Note_on_c, 0, 76, 0
1, 146182, Note_on_c, 9, 59, 0
1, 146188, Note_on_c, 0, 64, 0
1, 146192, Note_on_c, 0, 83, 0
1, 146204, Note_on_c, 0, 60, 0
1, 146208, Note_on_c, 0, 57, 0
1, 146208, Note_on_c, 0, 88, 0
1, 146212, Control_c, 0, 64, 0
1, 146240, Control_c, 0, 64, 127
1, 146246, Note_on_c, 9, 59, 106
1, 146250, Note_on_c, 9, 44, 99
1, 146276, Note_on_c, 0, 60, 57
1, 146276, Note_on_c, 0, 64, 61
1, 146276, Note_on_c, 0, 89, 85
1, 146284, Note_on_c, 0, 84, 77
1, 146284, Note_on_c, 0, 57, 51
1, 146284, Note_on_c, 0, 53, 55
1, 146284, Note_on_c, 0, 77, 75
1, 146348, Note_on_c, 0, 77, 0
1, 146360, Note_on_c, 0, 53, 0
1, 146368, Note_on_c, 0, 64, 0
1, 146384, Note_on_c, 0, 84, 0
1, 146396, Note_on_c, 0, 89, 0
1, 146400, Note_on_c, 0, 60, 0
1, 146400, Note_on_c, 0, 57, 0
1, 146404, Note_on_c, 9, 44, 0
1, 146500, Note_on_c, 0, 91, 79
1, 146502, Note_on_c, 9, 59, 26
1, 146508, Note_on_c, 0, 64, 61
1, 146508, Note_on_c, 0, 86, 80
1, 146508, Note_on_c, 0, 79, 78
1, 146508, Note_on_c, 0, 53, 52
1, 146516, Note_on_c, 0, 60, 55
1, 146516, Note_on_c, 9, 35, 35
1, 146518, Note_on_c, 9, 59, 0
1, 146520, Note_on_c, 0, 57, 49
1, 146532, Note_on_c, 0, 87, 45
1, 146536, Note_on_c, 1, 38, 50
1, 146540, Note_on_c, 1, 43, 0
1, 146548, Note_on_c, 0, 60, 0
1, 146554, Note_on_c, 9, 35, 0
1, 146572, Note_on_c, 0, 79, 0
1, 146576, Note_on_c, 0, 64, 0
1, 146584, Note_on_c, 0, 53, 0
1, 146596, Note_on_c, 0, 87, 0
1, 146596, Control_c, 0, 64, 0
1, 146600, Note_on_c, 0, 86, 0
1, 146604, Note_on_c, 0, 91, 0
1, 146616, Note_on_c, 0, 57, 0
1, 146618, Note_on_c, 9, 59, 0
1, 146624, Note_on_c, 1, 41, 78
1, 146630, Note_on_c, 9, 59, 64
1, 146644, Note_on_c, 1, 38, 0
1, 146688, Note_on_c, 0, 53, 61
1, 146692, Note_on_c, 0, 64, 63
1, 146696, Note_on_c, 0, 59, 64
1, 146700, Note_on_c, 0, 93, 68
1, 146704, Note_on_c, 0, 88, 66
1, 146708, Note_on_c, 0, 81, 64
1, 146720, Control_c, 0, 64, 127
1, 146950, Note_on_c, 9, 59, 0
1, 147014, Note_on_c, 9, 59, 106
1, 147018, Note_on_c, 9, 44, 89
1, 147092, Note_on_c, 0, 81, 0
1, 147116, Note_on_c, 0, 93, 0
1, 147132, Note_on_c, 0, 88, 0
1, 147136, Note_on_c, 0, 64, 0
1, 147164, Note_on_c, 0, 59, 0
1, 147188, Note_on_c, 9, 44, 0
1, 147188, Note_on_c, 0, 53, 0
1, 147244, Note_on_c, 0, 53, 22
1, 147260, Note_on_c, 9, 59, 0
1, 147270, Note_on_c, 9, 59, 68
1, 147272, Note_on_c, 0, 59, 52
1, 147274, Note_on_c, 9, 35, 47
1, 147276, Note_on_c, 0, 64, 36
1, 147300, Note_on_c, 1, 38, 54
1, 147304, Note_on_c, 0, 59, 0
1, 147316, Note_on_c, 0, 64, 0
1, 147320, Note_on_c, 1, 41, 0
1, 147332, Note_on_c, 0, 53, 0
1, 147338, Note_on_c, 9, 59, 0
1, 147348, Control_c, 0, 64, 0
1, 147370, Note_on_c, 9, 35, 0
1, 147392, Note_on_c, 1, 40, 76
1, 147398, Note_on_c, 9, 59, 91
1, 147400, Note_on_c, 1, 38, 0
1, 147430, Note_on_c, 9, 35, 40
1, 147472, Note_on_c, 0, 59, 46
1, 147476, Note_on_c, 0, 62, 59
1, 147476, Note_on_c, 0, 52, 49
1, 147476, Note_on_c, 0, 95, 83
1, 147488, Note_on_c, 0, 55, 58
1, 147488, Note_on_c, 0, 83, 73
1, 147498, Note_on_c, 9, 35, 0
1, 147516, Note_on_c, 0, 54, 26
1, 147722, Note_on_c, 9, 59, 0
1, 147780, Note_on_c, 9, 59, 105
1, 147784, Control_c, 0, 64, 127
1, 147786, Note_on_c, 9, 44, 91
1, 147840, Note_on_c, 0, 95, 0
1, 147856, Note_on_c, 0, 83, 0
1, 147876, Note_on_c, 0, 62, 0
1, 147888, Note_on_c, 0, 54, 0
1, 147892, Note_on_c, 0, 59, 0
1, 147900, Note_on_c, 0, 52, 0
1, 147904, Note_on_c, 0, 55, 0
1, 147940, Note_on_c, 9, 44, 0
1, 147996, Control_c, 0, 64, 0
1, 148022, Note_on_c, 9, 35, 36
1, 148038, Note_on_c, 9, 59, 59
1, 148040, Note_on_c, 0, 91, 56
1, 148042, Note_on_c, 9, 59, 0
1, 148044, Note_on_c, 0, 79, 50
1, 148052, Note_on_c, 0, 86, 57
1, 148052, Note_on_c, 0, 62, 45
1, 148052, Note_on_c, 0, 52, 40
1, 148060, Note_on_c, 9, 35, 0
1, 148064, Note_on_c, 0, 55, 46
1, 148064, Note_on_c, 0, 59, 41
1, 148116, Control_c, 0, 64, 127
1, 148138, Note_on_c, 9, 59, 0
1, 148144, Note_on_c, 0, 79, 0
1, 148166, Note_on_c, 9, 59, 85
1, 148168, Note_on_c, 1, 34, 81
1, 148176, Note_on_c, 1, 40, 0
1, 148196, Note_on_c, 0, 86, 0
1, 148204, Note_on_c, 0, 62, 0
1, 148212, Note_on_c, 0, 55, 0
1, 148228, Note_on_c, 0, 59, 0
1, 148240, Note_on_c, 0, 91, 0
1, 148248, Note_on_c, 0, 52, 0
1, 148432, Note_on_c, 9, 38, 50
1, 148492, Note_on_c, 9, 38, 0
1, 148502, Note_on_c, 9, 59, 0
1, 148550, Note_on_c, 9, 59, 98
1, 148554, Note_on_c, 9, 44, 87
1, 148572, Note_on_c, 9, 38, 35
1, 148676, Note_on_c, 9, 44, 0
1, 148710, Note_on_c, 9, 38, 0
1, 148760, Note_on_c, 1, 34, 0
1, 148806, Note_on_c, 9, 36, 60
1, 148806, Note_on_c, 9, 59, 43
1, 148810, Note_on_c, 9, 59, 0
1, 148810, Note_on_c, 1, 33, 78
1, 148816, Control_c, 0, 64, 0
1, 148816, Note_on_c, 0, 100, 122
1, 148820, Note_on_c, 1, 35, 61
1, 148824, Note_on_c, 1, 34, 43
1, 148828, Note_on_c, 0, 61, 62
1, 148828, Note_on_c, 0, 65, 72
1, 148832, Note_on_c, 0, 55, 64
1, 148848, Note_on_c, 1, 35, 0
1, 148856, Note_on_c, 1, 34, 0
1, 148894, Note_on_c, 9, 36, 0
1, 148902, Note_on_c, 9, 59, 0
1, 148934, Note_on_c, 9, 59, 57
1, 148948, Note_on_c, 9, 59, 0
1, 148968, Note_on_c, 9, 36, 46
1, 149020, Note_on_c, 0, 100, 0
1, 149028, Note_on_c, 9, 35, 40
1, 149052, Note_on_c, 9, 35, 0
1, 149084, Note_on_c, 0, 99, 88
1, 149118, Note_on_c, 9, 36, 0
1, 149188, Note_on_c, 1, 40, 50
1, 149216, Note_on_c, 1, 40, 0
1, 149284, Note_on_c, 0, 99, 0
1, 149304, Note_on_c, 1, 51, 57
1, 149318, Note_on_c, 9, 59, 64
1, 149322, Note_on_c, 9, 44, 91
1, 149332, Note_on_c, 0, 65, 0
1, 149344, Note_on_c, 0, 98, 99
1, 149452, Note_on_c, 0, 61, 0
1, 149460, Note_on_c, 9, 44, 0
1, 149464, Note_on_c, 0, 55, 0
1, 149532, Note_on_c, 0, 98, 0
1, 149578, Note_on_c, 9, 38, 66
1, 149604, Note_on_c, 0, 97, 89
1, 149608, Note_on_c, 0, 55, 54
1, 149616, Note_on_c, 0, 61, 57
1, 149620, Note_on_c, 0, 64, 54
1, 149644, Note_on_c, 9, 59, 0
1, 149668, Note_on_c, 9, 38, 0
1, 149702, Note_on_c, 9, 59, 98
1, 149760, Note_on_c, 0, 97, 0
1, 149812, Note_on_c, 0, 64, 0
1, 149820, Note_on_c, 0, 61, 0
1, 149852, Note_on_c, 0, 55, 0
1, 149860, Note_on_c, 0, 96, 82
1, 149904, Note_on_c, 0, 55, 54
1, 149920, Note_on_c, 1, 51, 0
1, 149920, Note_on_c, 0, 64, 45
1, 149928, Note_on_c, 0, 61, 44
1, 149948, Note_on_c, 1, 52, 46
1, 149956, Note_on_c, 9, 38, 78
1, 149964, Note_on_c, 0, 64, 0
1, 149964, Note_on_c, 0, 96, 0
1, 149992, Note_on_c, 0, 61, 0
1, 150022, Note_on_c, 9, 59, 0
1, 150024, Note_on_c, 1, 33, 0
1, 150032, Note_on_c, 1, 52, 0
1, 150052, Note_on_c, 1, 37, 61
1, 150082, Note_on_c, 9, 38, 0
1, 150086, Note_on_c, 9, 59, 59
1, 150090, Note_on_c, 9, 44, 98
1, 150096, Note_on_c, 0, 61, 48
1, 150104, Note_on_c, 0, 92, 75
1, 150116, Note_on_c, 0, 64, 39
1, 150124, Note_on_c, 0, 93, 73
1, 150156, Note_on_c, 0, 64, 0
1, 150156, Note_on_c, 0, 55, 0
1, 150160, Note_on_c, 0, 92, 0
1, 150202, Note_on_c, 9, 44, 0
1, 150236, Note_on_c, 0, 61, 0
1, 150240, Note_on_c, 0, 93, 0
1, 150300, Note_on_c, 9, 59, 0
1, 150330, Note_on_c, 9, 38, 73
1, 150336, Note_on_c, 1, 34, 42
1, 150342, Note_on_c, 9, 59, 75
1, 150348, Note_on_c, 0, 87, 77
1, 150356, Note_on_c, 0, 54, 54
1, 150356, Note_on_c, 0, 64, 50
1, 150360, Note_on_c, 0, 60, 53
1, 150364, Note_on_c, 9, 35, 28
1, 150372, Note_on_c, 0, 88, 63
1, 150404, Note_on_c, 9, 38, 0
1, 150410, Note_on_c, 9, 59, 0
1, 150422, Note_on_c, 9, 35, 0
1, 150424, Note_on_c, 1, 37, 0
1, 150440, Note_on_c, 0, 87, 0
1, 150440, Note_on_c, 1, 34, 0
1, 150460, Note_on_c, 1, 38, 57
1, 150470, Note_on_c, 9, 59, 66
1, 150480, Note_on_c, 9, 36, 56
1, 150484, Note_on_c, 9, 35, 24
1, 150484, Note_on_c, 9, 57, 42
1, 150552, Note_on_c, 0, 60, 0
1, 150560, Note_on_c, 0, 88, 0
1, 150608, Note_on_c, 0, 84, 57
1, 150666, Note_on_c, 9, 35, 0
1, 150672, Note_on_c, 0, 60, 31
1, 150728, Note_on_c, 0, 84, 0
1, 150732, Note_on_c, 1, 34, 43
1, 150758, Note_on_c, 9, 59, 0
1, 150762, Note_on_c, 9, 35, 31
1, 150780, Note_on_c, 1, 38, 0
1, 150794, Note_on_c, 9, 35, 0
1, 150824, Note_on_c, 1, 45, 72
1, 150854, Note_on_c, 9, 59, 64
1, 150858, Note_on_c, 9, 44, 84
1, 150860, Note_on_c, 1, 34, 0
1, 150868, Note_on_c, 0, 84, 72
1, 150880, Note_on_c, 0, 64, 0
1, 150988, Note_on_c, 0, 54, 0
1, 151000, Note_on_c, 0, 60, 0
1, 151004, Note_on_c, 9, 44, 0
1, 151012, Note_on_c, 0, 84, 0
1, 151036, Note_on_c, 9, 59, 0
1, 151052, Note_on_c, 0, 86, 46
1, 151104, Note_on_c, 0, 84, 59
1, 151108, Note_on_c, 0, 54, 39
1, 151110, Note_on_c, 9, 59, 82
1, 151120, Note_on_c, 0, 86, 0
1, 151124, Note_on_c, 0, 60, 35
1, 151160, Note_on_c, 0, 81, 39
1, 151164, Note_on_c, 0, 84, 0
1, 151174, Note_on_c, 9, 59, 0
1, 151184, Note_on_c, 1, 45, 0
1, 151192, Note_on_c, 0, 81, 0
1, 151228, Note_on_c, 0, 54, 0
1, 151232, Note_on_c, 1, 41, 57
1, 151238, Note_on_c, 9, 59, 47
1, 151244, Note_on_c, 0, 84, 66
1, 151368, Note_on_c, 0, 60, 0
1, 151466, Note_on_c, 9, 59, 0
1, 151494, Note_on_c, 9, 53, 64
1, 151508, Note_on_c, 1, 38, 40
1, 151556, Note_on_c, 1, 38, 0
1, 151574, Note_on_c, 9, 53, 0
1, 151582, Note_on_c, 9, 57, 0
1, 151616, Note_on_c, 0, 54, 50
1, 151616, Note_on_c, 1, 42, 60
1, 151622, Note_on_c, 9, 59, 78
1, 151624, Note_on_c, 1, 41, 0
1, 151626, Note_on_c, 9, 44, 91
1, 151628, Note_on_c, 0, 64, 38
1, 151632, Note_on_c, 0, 81, 45
1, 151632, Note_on_c, 0, 60, 31
1, 151690, Note_on_c, 9, 36, 0
1, 151720, Note_on_c, 0, 81, 0
1, 151740, Note_on_c, 0, 60, 0
1, 151770, Note_on_c, 9, 44, 0
1, 151770, Note_on_c, 9, 34, 66
1, 151772, Note_on_c, 0, 84, 0
1, 151776, Note_on_c, 0, 64, 0
1, 151808, Note_on_c, 9, 34, 0
1, 151858, Note_on_c, 9, 38, 48
1, 151900, Note_on_c, 0, 79, 54
1, 151906, Note_on_c, 9, 38, 0
1, 151928, Note_on_c, 0, 79, 0
1, 151944, Note_on_c, 0, 54, 0
1, 151948, Note_on_c, 9, 59, 0
1, 151988, Note_on_c, 1, 43, 72
1, 151992, Note_on_c, 1, 42, 0
1, 152006, Note_on_c, 9, 59, 84
1, 152024, Note_on_c, 0, 59, 47
1, 152026, Note_on_c, 9, 36, 42
1, 152028, Note_on_c, 0, 53, 37
1, 152032, Note_on_c, 0, 64, 36
1, 152036, Note_on_c, 0, 87, 68
1, 152060, Note_on_c, 9, 36, 0
1, 152120, Note_on_c, 0, 87, 0
1, 152288, Note_on_c, 0, 88, 98
1, 152304, Note_on_c, 0, 64, 0
1, 152330, Note_on_c, 9, 59, 0
1, 152356, Note_on_c, 0, 88, 0
1, 152390, Note_on_c, 9, 59, 75
1, 152394, Note_on_c, 9, 44, 99
1, 152412, Note_on_c, 9, 35, 17
1, 152456, Note_on_c, 0, 59, 0
1, 152456, Note_on_c, 0, 93, 87
1, 152456, Note_on_c, 0, 91, 90
1, 152516, Note_on_c, 9, 44, 0
1, 152524, Note_on_c, 0, 93, 0
1, 152540, Note_on_c, 0, 91, 0
1, 152566, Note_on_c, 9, 35, 0
1, 152580, Note_on_c, 0, 53, 0
1, 152598, Note_on_c, 9, 59, 0
1, 152644, Note_on_c, 1, 38, 54
1, 152644, Note_on_c, 9, 59, 75
1, 152662, Note_on_c, 9, 35, 26
1, 152672, Note_on_c, 1, 38, 0
1, 152676, Note_on_c, 0, 88, 102
1, 152694, Note_on_c, 9, 35, 0
1, 152698, Note_on_c, 9, 59, 0
1, 152744, Note_on_c, 1, 43, 0
1, 152752, Note_on_c, 1, 35, 68
1, 152774, Note_on_c, 9, 59, 87
1, 152812, Note_on_c, 0, 88, 0
1, 152860, Note_on_c, 0, 91, 66
1, 152928, Note_on_c, 0, 88, 64
1, 152936, Note_on_c, 0, 89, 39
1, 152952, Note_on_c, 0, 91, 0
1, 152972, Note_on_c, 0, 89, 0
1, 153004, Note_on_c, 0, 88, 0
1, 153004, Note_on_c, 0, 84, 48
1, 153032, Note_on_c, 0, 84, 0
1, 153056, Note_on_c, 0, 79, 72
1, 153076, Note_on_c, 0, 55, 31
1, 153078, Note_on_c, 9, 59, 0
1, 153108, Note_on_c, 0, 79, 0
1, 153132, Note_on_c, 0, 55, 0
1, 153158, Note_on_c, 9, 59, 73
1, 153162, Note_on_c, 9, 44, 96
1, 153168, Note_on_c, 0, 77, 60
1, 153252, Note_on_c, 0, 77, 0
1, 153332, Note_on_c, 9, 44, 0
1, 153356, Note_on_c, 0, 72, 59
1, 153382, Note_on_c, 9, 59, 0
1, 153396, Note_on_c, 1, 35, 0
1, 153400, Note_on_c, 0, 72, 0
1, 153414, Note_on_c, 9, 59, 75
1, 153418, Note_on_c, 9, 35, 24
1, 153420, Note_on_c, 1, 36, 84
1, 153448, Note_on_c, 0, 75, 83
1, 153460, Note_on_c, 9, 35, 0
1, 153460, Note_on_c, 0, 79, 73
1, 153466, Note_on_c, 9, 59, 0
1, 153540, Note_on_c, 9, 35, 33
1, 153542, Note_on_c, 9, 59, 77
1, 153544, Note_on_c, 0, 75, 0
1, 153580, Note_on_c, 0, 76, 71
1, 153652, Note_on_c, 0, 79, 0
1, 153664, Note_on_c, 0, 76, 0
1, 153700, Note_on_c, 0, 72, 63
1, 153740, Note_on_c, 9, 35, 0
1, 153772, Note_on_c, 0, 72, 0
1, 153812, Note_on_c, 1, 36, 0
1, 153814, Note_on_c, 9, 35, 36
1, 153820, Note_on_c, 1, 31, 73
1, 153824, Note_on_c, 0, 67, 55
1, 153836, Note_on_c, 9, 59, 0
1, 153840, Note_on_c, 9, 35, 0
1, 153884, Note_on_c, 1, 31, 0
1, 153888, Note_on_c, 0, 67, 0
1, 153926, Note_on_c, 9, 59, 87
1, 153930, Note_on_c, 9, 44, 98
1, 153936, Note_on_c, 1, 28, 86
1, 153948, Note_on_c, 0, 65, 54
1, 154056, Note_on_c, 0, 65, 0
1, 154090, Note_on_c, 9, 44, 0
1, 154140, Note_on_c, 9, 59, 0
1, 154182, Note_on_c, 9, 59, 70
1, 154208, Note_on_c, 0, 63, 66
1, 154212, Note_on_c, 0, 67, 66
1, 154218, Note_on_c, 9, 59, 0
1, 154310, Note_on_c, 9, 59, 75
1, 154312, Note_on_c, 0, 63, 0
1, 154316, Note_on_c, 1, 28, 0
1, 154320, Note_on_c, 0, 67, 0
1, 154340, Note_on_c, 1, 29, 58
1, 154352, Note_on_c, 0, 64, 64
1, 154420, Note_on_c, 0, 64, 0
1, 154452, Note_on_c, 1, 29, 0
1, 154484, Note_on_c, 0, 60, 53
1, 154490, Note_on_c, 9, 59, 0
1, 154544, Note_on_c, 0, 60, 0
1, 154566, Note_on_c, 9, 59, 77
1, 154588, Note_on_c, 9, 59, 0
1, 154602, Note_on_c, 9, 38, 31
1, 154608, Note_on_c, 0, 55, 53
1, 154648, Note_on_c, 9, 38, 0
1, 154680, Note_on_c, 0, 55, 0
1, 154692, Note_on_c, 9, 51, 59
1, 154694, Note_on_c, 1, 30, 53
1, 154694, Note_on_c, 9, 59, 112
1, 154698, Note_on_c, 9, 46, 42
1, 154710, Note_on_c, 9, 51, 0
1, 154748, Note_on_c, 0, 60, 39
1, 154748, Note_on_c, 0, 53, 41
1, 154810, Note_on_c, 9, 46, 0
1, 154856, Note_on_c, 0, 60, 0
1, 154860, Note_on_c, 0, 53, 0
1, 154884, Note_on_c, 1, 30, 0
1, 154908, Note_on_c, 9, 59, 0
1, 154912, Note_on_c, 0, 50, 28
1, 154924, Note_on_c, 9, 51, 70
1, 154948, Note_on_c, 0, 50, 0
1, 154962, Note_on_c, 9, 38, 44
1, 154972, Note_on_c, 9, 51, 0
1, 155004, Note_on_c, 9, 38, 0
1, 155004, Note_on_c, 0, 51, 67
1, 155078, Note_on_c, 9, 59, 99
1, 155092, Note_on_c, 0, 51, 0
1, 155096, Note_on_c, 1, 31, 49
1, 155140, Note_on_c, 0, 52, 54
1, 155172, Note_on_c, 9, 35, 40
1, 155196, Note_on_c, 9, 35, 0
1, 155204, Note_on_c, 1, 31, 0
1, 155220, Note_on_c, 0, 52, 0
1, 155280, Note_on_c, 0, 53, 47
1, 155320, Note_on_c, 1, 33, 52
1, 155332, Note_on_c, 0, 53, 0
1, 155354, Note_on_c, 9, 38, 52
1, 155370, Note_on_c, 9, 59, 0
1, 155396, Note_on_c, 9, 38, 0
1, 155404, Note_on_c, 0, 54, 55
1, 155436, Note_on_c, 1, 33, 0
1, 155462, Note_on_c, 1, 35, 56
1, 155462, Note_on_c, 9, 59, 64
1, 155466, Note_on_c, 9, 44, 91
1, 155500, Note_on_c, 0, 54, 0
1, 155560, Note_on_c, 0, 55, 42
1, 155604, Note_on_c, 9, 44, 0
1, 155708, Note_on_c, 1, 35, 0
1, 155720, Note_on_c, 1, 36, 60
1, 155722, Note_on_c, 9, 57, 55
1, 155740, Note_on_c, 9, 36, 56
1, 155788, Note_on_c, 9, 59, 0
1, 155788, Note_on_c, 0, 48, 55
1, 155808, Note_on_c, 0, 55, 0
1, 155824, Note_on_c, 0, 24, 38
1, 155832, Note_on_c, 0, 36, 26
1, 155868, Control_c, 0, 64, 127
1, 155956, Note_on_c, 0, 48, 0
1, 156008, Note_on_c, 0, 24, 0
1, 156044, Note_on_c, 0, 36, 0
1, 156192, Note_on_c, 9, 57, 0
1, 156218, Note_on_c, 9, 36, 0
1, 156472, Note_on_c, 0, 58, 43
1, 156588, Note_on_c, 0, 64, 49
1, 156692, Note_on_c, 0, 67, 30
1, 156752, Note_on_c, 0, 67, 0
1, 156760, Note_on_c, 0, 69, 49
1, 156820, Note_on_c, 0, 69, 0
1, 156836, Note_on_c, 0, 70, 52
1, 156864, Note_on_c, 0, 70, 0
1, 156944, Note_on_c, 0, 74, 60
1, 157012, Note_on_c, 0, 74, 0
1, 157028, Note_on_c, 0, 78, 56
1, 157096, Note_on_c, 0, 78, 0
1, 157108, Note_on_c, 1, 36, 0
1, 157124, Note_on_c, 0, 81, 57
1, 157168, Note_on_c, 0, 81, 0
1, 157200, Note_on_c, 0, 78, 39
1, 157232, Note_on_c, 0, 78, 0
1, 157248, Note_on_c, 0, 79, 51
1, 157328, Note_on_c, 0, 79, 0
1, 157348, Note_on_c, 0, 81, 36
1, 157388, Note_on_c, 0, 81, 0
1, 157400, Note_on_c, 0, 82, 60
1, 157424, Note_on_c, 0, 82, 0
1, 157508, Note_on_c, 0, 86, 57
1, 157560, Note_on_c, 0, 86, 0
1, 157592, Note_on_c, 0, 90, 51
1, 157660, Note_on_c, 0, 90, 0
1, 157680, Note_on_c, 0, 93, 60
1, 157750, Note_on_c, 0, 93, 0
1, 157788, Note_on_c, 0, 90, 51
1, 157816, Note_on_c, 0, 90, 0
1, 157848, Note_on_c, 0, 91, 50
1, 157948, Note_on_c, 0, 91, 0
1, 157960, Note_on_c, 0, 93, 50
1, 158040, Note_on_c, 0, 93, 0
1, 158048, Note_on_c, 0, 94, 57
1, 158072, Note_on_c, 0, 94, 0
1, 158156, Note_on_c, 0, 98, 64
1, 158228, Note_on_c, 0, 98, 0
1, 158260, Note_on_c, 0, 102, 60
1, 158368, Note_on_c, 0, 102, 0
1, 158388, Note_on_c, 0, 105, 72
1, 158484, Note_on_c, 0, 105, 0
1, 158572, Note_on_c, 0, 105, 69
1, 158676, Note_on_c, 0, 105, 0
1, 158780, Note_on_c, 0, 105, 66
1, 158836, Note_on_c, 0, 64, 0
1, 158864, Note_on_c, 0, 58, 0
1, 158884, Note_on_c, 0, 105, 0
1, 159008, Note_on_c, 0, 105, 63
1, 159124, Note_on_c, 0, 105, 0
1, 159244, Note_on_c, 0, 105, 61
1, 159376, Note_on_c, 0, 105, 0
1, 159568, Note_on_c, 0, 105, 66
1, 159592, Note_on_c, 0, 24, 45
1, 160860, Note_on_c, 0, 105, 0
1, 160972, Note_on_c, 0, 24, 0
1, 161064, Control_c, 0, 64, 0
1, 161064, End_track
0, 0, End_of_file
