0, 0, Header, 1, 8, 120
1, 0, Start_track
1, 0, Title_t, "Turn Out The Stars"
1, 0, Text_t, "Bill Evans -instruments played in real time\012"
1, 0, Text_t, "Doug McKenzie (dougmck@pipeline.com.au)\012"
1, 0, Time_signature, 4, 2, 24, 8
1, 0, Key_signature, 0, "major"
1, 0, Tempo, 500000
1, 0, Marker_t, """Turn Out the Stars"" by Bill Evans"
1, 67633, Tempo, 508475
1, 67669, Tempo, 512821
1, 67681, Tempo, 517241
1, 67693, Tempo, 521739
1, 67717, Tempo, 526316
1, 67741, Tempo, 535714
1, 67753, Tempo, 540541
1, 67777, Tempo, 545455
1, 67789, Tempo, 555556
1, 67825, Tempo, 566038
1, 67849, Tempo, 576923
1, 67873, Tempo, 582524
1, 67897, Tempo, 588235
1, 67909, Tempo, 600000
1, 67933, Tempo, 606061
1, 67945, Tempo, 612245
1, 67969, Tempo, 618557
1, 67981, Tempo, 631579
1, 67993, Tempo, 638298
1, 68017, Tempo, 645161
1, 68029, Tempo, 652174
1, 68041, Tempo, 659341
1, 68053, Tempo, 666667
1, 68065, Tempo, 674157
1, 68077, Tempo, 681818
1, 68101, Tempo, 689655
1, 68113, Tempo, 697674
1, 68125, Tempo, 705882
1, 68137, Tempo, 714286
1, 68149, Tempo, 722892
1, 68161, Tempo, 731707
1, 68185, Tempo, 740741
1, 68197, Tempo, 750000
1, 68209, Tempo, 759494
1, 68221, Tempo, 779221
1, 68245, Tempo, 789474
1, 68269, Tempo, 810811
1, 68293, Tempo, 833333
1, 68317, Tempo, 857143
1, 68353, Tempo, 869565
1, 68365, Tempo, 882353
1, 68377, Tempo, 909091
1, 68449, Tempo, 937500
1, 68461, Tempo, 952381
1, 68473, Tempo, 967742
1, 68497, Tempo, 983607
1, 68509, Tempo, 1000000
1, 68533, Tempo, 1016949
1, 68545, Tempo, 1034483
1, 68569, Tempo, 1071429
1, 68593, Tempo, 1090909
1, 68617, Tempo, 1111111
1, 68629, Tempo, 1153846
1, 68653, Tempo, 1176471
1, 68677, Tempo, 1224490
1, 68689, Tempo, 1250000
1, 68701, Tempo, 1304348
1, 68713, Tempo, 1333333
1, 68725, Tempo, 1395349
1, 68737, Tempo, 1463415
1, 68749, Tempo, 1500000
1, 68761, Tempo, 1538462
1, 68773, Tempo, 1621622
1, 68785, Tempo, 1666667
1, 68797, Tempo, 1764706
1, 68809, Tempo, 1818182
1, 68821, Tempo, 2000000
1, 68833, Tempo, 2068966
1, 68845, Tempo, 2307692
1, 68857, Tempo, 2500000
1, 68869, Tempo, 3529412
1, 68881, Tempo, 4000000
1, 68893, Tempo, 4615385
1, 68905, Tempo, 5000000
1, 68917, Tempo, 6666667
1, 68929, Tempo, 7500000
1, 68941, Tempo, 7500000
1, 68953, Tempo, 7500000
1, 68965, Tempo, 7500000
1, 69013, Tempo, 7500000
1, 69037, Tempo, 7500000
1, 69120, Tempo, 500000
1, 69120, End_track
2, 0, Start_track
2, 0, Title_t, "Piano or Rhodes"
2, 0, Program_c, 0, 0
2, 0, Control_c, 0, 7, 90
2, 2, Control_c, 0, 64, 127
2, 59, Note_on_c, 0, 77, 87
2, 63, Note_on_c, 0, 47, 65
2, 87, Note_on_c, 0, 47, 0
2, 148, Note_on_c, 0, 57, 43
2, 230, Note_on_c, 0, 62, 33
2, 237, Note_on_c, 0, 69, 54
2, 357, Note_on_c, 0, 62, 0
2, 374, Note_on_c, 0, 57, 0
2, 431, Note_on_c, 0, 77, 0
2, 448, Note_on_c, 0, 69, 0
2, 452, Note_on_c, 0, 77, 59
2, 485, Note_on_c, 0, 77, 0
2, 511, Note_on_c, 0, 28, 58
2, 515, Note_on_c, 0, 77, 61
2, 516, Control_c, 0, 64, 0
2, 521, Note_on_c, 0, 28, 0
2, 528, Control_c, 0, 64, 127
2, 591, Note_on_c, 0, 77, 0
2, 593, Note_on_c, 0, 56, 48
2, 679, Note_on_c, 0, 67, 39
2, 680, Note_on_c, 0, 72, 51
2, 680, Note_on_c, 0, 62, 40
2, 758, Note_on_c, 0, 62, 0
2, 764, Note_on_c, 0, 76, 57
2, 777, Note_on_c, 0, 56, 0
2, 806, Note_on_c, 0, 72, 0
2, 837, Note_on_c, 0, 76, 0
2, 855, Note_on_c, 0, 67, 0
2, 874, Note_on_c, 0, 45, 46
2, 874, Note_on_c, 0, 76, 41
2, 881, Control_c, 0, 64, 0
2, 907, Control_c, 0, 64, 127
2, 919, Note_on_c, 0, 76, 0
2, 936, Note_on_c, 0, 52, 33
2, 965, Note_on_c, 0, 45, 0
2, 974, Note_on_c, 0, 63, 6
2, 985, Note_on_c, 0, 64, 60
2, 986, Note_on_c, 0, 52, 0
2, 987, Note_on_c, 0, 63, 0
2, 1001, Note_on_c, 0, 59, 12
2, 1019, Note_on_c, 0, 59, 0
2, 1037, Note_on_c, 0, 64, 0
2, 1037, Note_on_c, 0, 71, 57
2, 1048, Note_on_c, 0, 60, 15
2, 1055, Note_on_c, 0, 71, 0
2, 1095, Note_on_c, 0, 76, 66
2, 1103, Note_on_c, 0, 64, 31
2, 1116, Note_on_c, 0, 64, 0
2, 1139, Note_on_c, 0, 60, 0
2, 1145, Note_on_c, 0, 76, 0
2, 1148, Note_on_c, 0, 83, 82
2, 1195, Note_on_c, 0, 83, 0
2, 1214, Note_on_c, 0, 61, 32
2, 1216, Note_on_c, 0, 55, 42
2, 1216, Note_on_c, 0, 83, 51
2, 1217, Note_on_c, 0, 60, 36
2, 1218, Note_on_c, 0, 65, 37
2, 1230, Control_c, 0, 64, 0
2, 1308, Control_c, 0, 64, 127
2, 1309, Note_on_c, 0, 73, 27
2, 1379, Note_on_c, 0, 65, 0
2, 1387, Note_on_c, 0, 73, 0
2, 1417, Note_on_c, 0, 73, 32
2, 1419, Note_on_c, 0, 65, 44
2, 1507, Note_on_c, 0, 73, 0
2, 1520, Note_on_c, 0, 83, 0
2, 1521, Note_on_c, 0, 72, 37
2, 1553, Note_on_c, 0, 65, 0
2, 1567, Note_on_c, 0, 72, 0
2, 1658, Note_on_c, 0, 60, 0
2, 1660, Note_on_c, 0, 61, 0
2, 1661, Note_on_c, 0, 65, 53
2, 1662, Note_on_c, 0, 69, 52
2, 1663, Note_on_c, 0, 55, 0
2, 1665, Note_on_c, 0, 64, 35
2, 1677, Control_c, 0, 64, 0
2, 1709, Control_c, 0, 64, 127
2, 1743, Note_on_c, 0, 64, 0
2, 1746, Note_on_c, 0, 63, 48
2, 1766, Note_on_c, 0, 63, 0
2, 1772, Note_on_c, 0, 62, 45
2, 1803, Note_on_c, 0, 62, 0
2, 1809, Note_on_c, 0, 61, 33
2, 1822, Note_on_c, 0, 65, 0
2, 1833, Control_c, 0, 64, 0
2, 1835, Note_on_c, 0, 61, 0
2, 1836, Note_on_c, 0, 69, 0
2, 1841, Note_on_c, 0, 60, 55
2, 1842, Note_on_c, 0, 69, 24
2, 1843, Note_on_c, 0, 77, 53
2, 1844, Note_on_c, 0, 65, 48
2, 1881, Control_c, 0, 64, 127
2, 1922, Note_on_c, 0, 77, 0
2, 1948, Note_on_c, 0, 77, 62
2, 1951, Note_on_c, 0, 60, 0
2, 2089, Note_on_c, 0, 31, 67
2, 2098, Note_on_c, 0, 69, 0
2, 2099, Note_on_c, 0, 77, 0
2, 2131, Note_on_c, 0, 65, 0
2, 2132, Note_on_c, 0, 31, 0
2, 2247, Note_on_c, 0, 43, 50
2, 2247, Note_on_c, 0, 59, 73
2, 2248, Note_on_c, 0, 56, 64
2, 2249, Note_on_c, 0, 53, 49
2, 2263, Control_c, 0, 64, 0
2, 2279, Control_c, 0, 64, 127
2, 2325, Note_on_c, 0, 56, 0
2, 2338, Note_on_c, 0, 59, 0
2, 2345, Note_on_c, 0, 53, 0
2, 2362, Note_on_c, 0, 65, 74
2, 2363, Note_on_c, 0, 59, 71
2, 2364, Note_on_c, 0, 56, 64
2, 2365, Note_on_c, 0, 62, 66
2, 2365, Note_on_c, 0, 50, 59
2, 2376, Note_on_c, 0, 43, 0
2, 2381, Note_on_c, 0, 56, 0
2, 2387, Note_on_c, 0, 50, 0
2, 2392, Note_on_c, 0, 59, 0
2, 2397, Note_on_c, 0, 62, 0
2, 2402, Note_on_c, 0, 65, 0
2, 2621, Note_on_c, 0, 76, 80
2, 2623, Note_on_c, 0, 71, 78
2, 2623, Note_on_c, 0, 68, 83
2, 2624, Note_on_c, 0, 65, 96
2, 2625, Note_on_c, 0, 59, 87
2, 2626, Note_on_c, 0, 74, 54
2, 2644, Control_c, 0, 64, 0
2, 2658, Control_c, 0, 64, 127
2, 2680, Note_on_c, 0, 65, 0
2, 2687, Note_on_c, 0, 68, 0
2, 2687, Note_on_c, 0, 71, 0
2, 2700, Note_on_c, 0, 74, 0
2, 2704, Note_on_c, 0, 76, 0
2, 2731, Note_on_c, 0, 76, 77
2, 2733, Note_on_c, 0, 59, 0
2, 2734, Note_on_c, 0, 67, 82
2, 2734, Note_on_c, 0, 72, 72
2, 2735, Note_on_c, 0, 60, 75
2, 2735, Note_on_c, 0, 69, 74
2, 2738, Control_c, 0, 64, 0
2, 2774, Control_c, 0, 64, 127
2, 2801, Note_on_c, 0, 60, 0
2, 2804, Note_on_c, 0, 72, 0
2, 2809, Note_on_c, 0, 69, 0
2, 2810, Note_on_c, 0, 55, 76
2, 2813, Note_on_c, 0, 67, 0
2, 2813, Note_on_c, 0, 76, 0
2, 2878, Note_on_c, 0, 67, 88
2, 2880, Note_on_c, 0, 64, 81
2, 2887, Note_on_c, 0, 59, 24
2, 2895, Note_on_c, 0, 59, 0
2, 2951, Note_on_c, 0, 64, 0
2, 2952, Note_on_c, 0, 67, 0
2, 2953, Note_on_c, 0, 55, 0
2, 2956, Note_on_c, 0, 72, 83
2, 2958, Note_on_c, 0, 64, 36
2, 2970, Note_on_c, 0, 64, 0
2, 2998, Note_on_c, 0, 72, 0
2, 3043, Note_on_c, 0, 60, 53
2, 3043, Note_on_c, 0, 45, 43
2, 3044, Note_on_c, 0, 64, 64
2, 3061, Control_c, 0, 64, 0
2, 3105, Control_c, 0, 64, 127
2, 3123, Note_on_c, 0, 52, 41
2, 3124, Note_on_c, 0, 60, 0
2, 3142, Note_on_c, 0, 64, 0
2, 3199, Note_on_c, 0, 59, 36
2, 3199, Note_on_c, 0, 64, 44
2, 3202, Note_on_c, 0, 60, 32
2, 3204, Note_on_c, 0, 57, 39
2, 3292, Note_on_c, 0, 67, 59
2, 3293, Note_on_c, 0, 57, 0
2, 3305, Note_on_c, 0, 52, 0
2, 3318, Note_on_c, 0, 60, 0
2, 3319, Note_on_c, 0, 45, 0
2, 3327, Note_on_c, 0, 59, 0
2, 3331, Note_on_c, 0, 64, 0
2, 3365, Note_on_c, 0, 67, 0
2, 3399, Note_on_c, 0, 68, 32
2, 3401, Note_on_c, 0, 56, 25
2, 3402, Note_on_c, 0, 63, 36
2, 3402, Note_on_c, 0, 51, 34
2, 3405, Note_on_c, 0, 41, 40
2, 3410, Control_c, 0, 64, 0
2, 3450, Control_c, 0, 64, 127
2, 3479, Note_on_c, 0, 56, 0
2, 3485, Note_on_c, 0, 41, 0
2, 3501, Note_on_c, 0, 51, 0
2, 3513, Note_on_c, 0, 63, 0
2, 3522, Note_on_c, 0, 68, 0
2, 3594, Note_on_c, 0, 72, 79
2, 3595, Note_on_c, 0, 68, 69
2, 3596, Note_on_c, 0, 63, 65
2, 3654, Note_on_c, 0, 68, 0
2, 3676, Note_on_c, 0, 63, 0
2, 3684, Note_on_c, 0, 72, 0
2, 3703, Note_on_c, 0, 74, 57
2, 3706, Note_on_c, 0, 70, 60
2, 3707, Note_on_c, 0, 65, 54
2, 3709, Note_on_c, 0, 62, 49
2, 3719, Control_c, 0, 64, 0
2, 3737, Control_c, 0, 64, 127
2, 3758, Note_on_c, 0, 62, 0
2, 3776, Note_on_c, 0, 65, 0
2, 3785, Note_on_c, 0, 70, 0
2, 3788, Note_on_c, 0, 74, 0
2, 3842, Note_on_c, 0, 75, 53
2, 3842, Note_on_c, 0, 56, 42
2, 3844, Note_on_c, 0, 68, 42
2, 3845, Note_on_c, 0, 46, 39
2, 3846, Note_on_c, 0, 63, 31
2, 3847, Note_on_c, 0, 72, 44
2, 3853, Control_c, 0, 64, 0
2, 3883, Control_c, 0, 64, 127
2, 3916, Note_on_c, 0, 56, 0
2, 3919, Note_on_c, 0, 72, 0
2, 3933, Note_on_c, 0, 46, 0
2, 3933, Note_on_c, 0, 75, 0
2, 3938, Note_on_c, 0, 63, 0
2, 3940, Note_on_c, 0, 68, 0
2, 4090, Note_on_c, 0, 65, 75
2, 4091, Note_on_c, 0, 39, 54
2, 4092, Note_on_c, 0, 57, 77
2, 4093, Note_on_c, 0, 54, 71
2, 4093, Note_on_c, 0, 62, 53
2, 4095, Note_on_c, 0, 47, 48
2, 4098, Control_c, 0, 64, 0
2, 4128, Control_c, 0, 64, 127
2, 4143, Note_on_c, 0, 57, 0
2, 4153, Note_on_c, 0, 62, 0
2, 4153, Note_on_c, 0, 65, 0
2, 4159, Note_on_c, 0, 54, 0
2, 4206, Note_on_c, 0, 63, 64
2, 4206, Note_on_c, 0, 67, 80
2, 4208, Note_on_c, 0, 58, 67
2, 4209, Note_on_c, 0, 47, 0
2, 4210, Note_on_c, 0, 48, 73
2, 4212, Control_c, 0, 64, 0
2, 4238, Control_c, 0, 64, 127
2, 4267, Note_on_c, 0, 58, 0
2, 4269, Note_on_c, 0, 67, 0
2, 4274, Note_on_c, 0, 39, 0
2, 4280, Note_on_c, 0, 48, 0
2, 4282, Note_on_c, 0, 63, 0
2, 4431, Note_on_c, 0, 68, 55
2, 4434, Note_on_c, 0, 63, 59
2, 4437, Note_on_c, 0, 58, 39
2, 4439, Note_on_c, 0, 60, 52
2, 4480, Note_on_c, 0, 68, 0
2, 4497, Note_on_c, 0, 60, 0
2, 4504, Note_on_c, 0, 63, 0
2, 4507, Note_on_c, 0, 58, 0
2, 4528, Note_on_c, 0, 70, 67
2, 4528, Note_on_c, 0, 55, 57
2, 4528, Note_on_c, 0, 63, 56
2, 4531, Note_on_c, 0, 67, 57
2, 4534, Note_on_c, 0, 60, 46
2, 4535, Control_c, 0, 64, 0
2, 4553, Control_c, 0, 64, 127
2, 4562, Note_on_c, 0, 60, 0
2, 4564, Note_on_c, 0, 67, 0
2, 4568, Note_on_c, 0, 55, 0
2, 4570, Note_on_c, 0, 63, 0
2, 4578, Note_on_c, 0, 70, 0
2, 4617, Control_c, 0, 64, 0
2, 4617, Note_on_c, 0, 72, 69
2, 4618, Note_on_c, 0, 67, 73
2, 4619, Note_on_c, 0, 45, 37
2, 4619, Note_on_c, 0, 55, 51
2, 4640, Control_c, 0, 64, 127
2, 4650, Note_on_c, 0, 45, 0
2, 4651, Note_on_c, 0, 67, 0
2, 4656, Note_on_c, 0, 72, 0
2, 4661, Note_on_c, 0, 55, 0
2, 4719, Note_on_c, 0, 84, 74
2, 4720, Note_on_c, 0, 79, 75
2, 4721, Note_on_c, 0, 60, 71
2, 4722, Note_on_c, 0, 72, 74
2, 4754, Note_on_c, 0, 60, 0
2, 4777, Note_on_c, 0, 79, 0
2, 4796, Note_on_c, 0, 84, 0
2, 4806, Note_on_c, 0, 72, 0
2, 4829, Note_on_c, 0, 76, 39
2, 4830, Note_on_c, 0, 72, 40
2, 4830, Note_on_c, 0, 54, 51
2, 4833, Note_on_c, 0, 60, 46
2, 4840, Control_c, 0, 64, 0
2, 4878, Control_c, 0, 64, 127
2, 4937, Note_on_c, 0, 50, 66
2, 5022, Note_on_c, 0, 78, 69
2, 5053, Note_on_c, 0, 50, 0
2, 5062, Note_on_c, 0, 60, 0
2, 5062, Note_on_c, 0, 54, 0
2, 5072, Note_on_c, 0, 76, 0
2, 5074, Note_on_c, 0, 72, 0
2, 5082, Note_on_c, 0, 79, 74
2, 5097, Note_on_c, 0, 78, 0
2, 5132, Note_on_c, 0, 79, 0
2, 5147, Note_on_c, 0, 81, 66
2, 5149, Note_on_c, 0, 78, 49
2, 5150, Note_on_c, 0, 54, 43
2, 5151, Note_on_c, 0, 74, 66
2, 5151, Note_on_c, 0, 64, 53
2, 5153, Note_on_c, 0, 69, 63
2, 5153, Note_on_c, 0, 59, 47
2, 5153, Control_c, 0, 64, 0
2, 5185, Control_c, 0, 64, 127
2, 5228, Note_on_c, 0, 81, 0
2, 5254, Note_on_c, 0, 74, 0
2, 5258, Note_on_c, 0, 78, 0
2, 5261, Note_on_c, 0, 69, 0
2, 5361, Note_on_c, 0, 83, 78
2, 5366, Note_on_c, 0, 71, 78
2, 5370, Note_on_c, 0, 64, 0
2, 5391, Note_on_c, 0, 71, 0
2, 5400, Note_on_c, 0, 83, 0
2, 5435, Note_on_c, 0, 84, 81
2, 5438, Note_on_c, 0, 72, 84
2, 5439, Note_on_c, 0, 62, 43
2, 5480, Note_on_c, 0, 72, 0
2, 5482, Note_on_c, 0, 84, 0
2, 5490, Note_on_c, 0, 62, 0
2, 5503, Note_on_c, 0, 59, 0
2, 5509, Note_on_c, 0, 86, 81
2, 5510, Note_on_c, 0, 54, 0
2, 5510, Note_on_c, 0, 74, 83
2, 5545, Note_on_c, 0, 86, 0
2, 5557, Note_on_c, 0, 74, 0
2, 5623, Note_on_c, 0, 37, 67
2, 5624, Note_on_c, 0, 49, 64
2, 5625, Note_on_c, 0, 76, 83
2, 5626, Control_c, 0, 64, 0
2, 5627, Note_on_c, 0, 88, 38
2, 5665, Control_c, 0, 64, 127
2, 5693, Note_on_c, 0, 37, 0
2, 5701, Note_on_c, 0, 49, 0
2, 5746, Note_on_c, 0, 76, 0
2, 5748, Note_on_c, 0, 88, 0
2, 5873, Note_on_c, 0, 88, 90
2, 5874, Note_on_c, 0, 68, 76
2, 5876, Note_on_c, 0, 63, 56
2, 5876, Note_on_c, 0, 76, 91
2, 5876, Note_on_c, 0, 64, 67
2, 5925, Note_on_c, 0, 68, 0
2, 5934, Note_on_c, 0, 64, 0
2, 5942, Note_on_c, 0, 63, 0
2, 6007, Note_on_c, 0, 76, 0
2, 6060, Note_on_c, 0, 88, 0
2, 6107, Note_on_c, 0, 88, 67
2, 6108, Note_on_c, 0, 30, 46
2, 6110, Note_on_c, 0, 42, 36
2, 6110, Note_on_c, 0, 76, 54
2, 6114, Control_c, 0, 64, 0
2, 6134, Control_c, 0, 64, 127
2, 6148, Note_on_c, 0, 30, 0
2, 6158, Note_on_c, 0, 42, 0
2, 6286, Note_on_c, 0, 76, 0
2, 6291, Note_on_c, 0, 88, 0
2, 6298, Note_on_c, 0, 88, 66
2, 6299, Note_on_c, 0, 76, 53
2, 6382, Note_on_c, 0, 76, 0
2, 6387, Note_on_c, 0, 88, 0
2, 6424, Note_on_c, 0, 76, 39
2, 6430, Note_on_c, 0, 63, 34
2, 6432, Note_on_c, 0, 58, 39
2, 6433, Note_on_c, 0, 52, 38
2, 6434, Note_on_c, 0, 88, 60
2, 6537, Note_on_c, 0, 88, 0
2, 6552, Note_on_c, 0, 76, 0
2, 6566, Note_on_c, 0, 63, 0
2, 6581, Note_on_c, 0, 52, 0
2, 6610, Note_on_c, 0, 58, 0
2, 6624, Note_on_c, 0, 87, 64
2, 6624, Note_on_c, 0, 75, 42
2, 6656, Note_on_c, 0, 75, 0
2, 6670, Note_on_c, 0, 87, 0
2, 6701, Note_on_c, 0, 87, 59
2, 6706, Note_on_c, 0, 47, 40
2, 6707, Note_on_c, 0, 80, 31
2, 6710, Control_c, 0, 64, 0
2, 6714, Note_on_c, 0, 82, 30
2, 6734, Note_on_c, 0, 87, 0
2, 6740, Control_c, 0, 64, 127
2, 6741, Note_on_c, 0, 82, 0
2, 6741, Note_on_c, 0, 80, 0
2, 6762, Note_on_c, 0, 54, 36
2, 6804, Note_on_c, 0, 47, 0
2, 6814, Note_on_c, 0, 63, 45
2, 6816, Note_on_c, 0, 68, 48
2, 6818, Note_on_c, 0, 54, 0
2, 6819, Note_on_c, 0, 59, 36
2, 6820, Note_on_c, 0, 73, 15
2, 6836, Note_on_c, 0, 63, 0
2, 6840, Note_on_c, 0, 68, 0
2, 6846, Note_on_c, 0, 73, 0
2, 6872, Note_on_c, 0, 61, 34
2, 6880, Note_on_c, 0, 75, 49
2, 6881, Note_on_c, 0, 70, 54
2, 6882, Note_on_c, 0, 59, 0
2, 6882, Note_on_c, 0, 78, 32
2, 6883, Note_on_c, 0, 80, 29
2, 6896, Note_on_c, 0, 70, 0
2, 6901, Note_on_c, 0, 75, 0
2, 6906, Note_on_c, 0, 78, 0
2, 6907, Note_on_c, 0, 80, 0
2, 6949, Note_on_c, 0, 63, 39
2, 6952, Note_on_c, 0, 85, 63
2, 6953, Note_on_c, 0, 82, 54
2, 6954, Note_on_c, 0, 78, 50
2, 6954, Note_on_c, 0, 87, 57
2, 6962, Note_on_c, 0, 61, 0
2, 6974, Note_on_c, 0, 78, 0
2, 6975, Note_on_c, 0, 82, 0
2, 6980, Note_on_c, 0, 85, 0
2, 6980, Note_on_c, 0, 87, 0
2, 7025, Note_on_c, 0, 68, 42
2, 7029, Note_on_c, 0, 63, 0
2, 7031, Note_on_c, 0, 90, 38
2, 7032, Note_on_c, 0, 92, 44
2, 7032, Note_on_c, 0, 94, 48
2, 7034, Note_on_c, 0, 85, 40
2, 7045, Note_on_c, 0, 85, 0
2, 7051, Note_on_c, 0, 68, 0
2, 7056, Note_on_c, 0, 90, 0
2, 7056, Note_on_c, 0, 92, 0
2, 7057, Note_on_c, 0, 94, 0
2, 7109, Note_on_c, 0, 94, 58
2, 7109, Note_on_c, 0, 73, 29
2, 7111, Note_on_c, 0, 97, 35
2, 7113, Note_on_c, 0, 99, 52
2, 7115, Note_on_c, 0, 92, 37
2, 7121, Note_on_c, 0, 92, 0
2, 7136, Note_on_c, 0, 73, 0
2, 7137, Note_on_c, 0, 94, 0
2, 7137, Note_on_c, 0, 97, 0
2, 7140, Note_on_c, 0, 99, 0
2, 7213, Note_on_c, 0, 104, 57
2, 7235, Note_on_c, 0, 104, 0
2, 7399, Note_on_c, 0, 37, 68
2, 7411, Control_c, 0, 64, 0
2, 7434, Control_c, 0, 64, 127
2, 7453, Note_on_c, 0, 37, 0
2, 7601, Note_on_c, 0, 68, 46
2, 7605, Note_on_c, 0, 59, 43
2, 7607, Note_on_c, 0, 64, 47
2, 7610, Note_on_c, 0, 63, 27
2, 7917, Note_on_c, 0, 73, 88
2, 7961, Note_on_c, 0, 73, 0
2, 7988, Note_on_c, 0, 75, 95
2, 8037, Note_on_c, 0, 75, 0
2, 8068, Note_on_c, 0, 76, 92
2, 8082, Note_on_c, 0, 68, 0
2, 8090, Note_on_c, 0, 64, 0
2, 8106, Note_on_c, 0, 59, 0
2, 8117, Note_on_c, 0, 63, 0
2, 8137, Note_on_c, 0, 76, 0
2, 8347, Note_on_c, 0, 34, 53
2, 8364, Control_c, 0, 64, 0
2, 8372, Control_c, 0, 64, 127
2, 8397, Note_on_c, 0, 34, 0
2, 8484, Note_on_c, 0, 75, 71
2, 8484, Note_on_c, 0, 70, 64
2, 8486, Note_on_c, 0, 64, 54
2, 8487, Note_on_c, 0, 63, 44
2, 8487, Note_on_c, 0, 67, 54
2, 8557, Note_on_c, 0, 64, 0
2, 8558, Note_on_c, 0, 67, 0
2, 8567, Note_on_c, 0, 70, 0
2, 8570, Note_on_c, 0, 75, 0
2, 8579, Note_on_c, 0, 63, 0
2, 8579, Note_on_c, 0, 64, 50
2, 8581, Note_on_c, 0, 70, 34
2, 8582, Note_on_c, 0, 73, 36
2, 8583, Note_on_c, 0, 67, 37
2, 8583, Note_on_c, 0, 61, 46
2, 8694, Note_on_c, 0, 67, 0
2, 8701, Note_on_c, 0, 64, 0
2, 8735, Note_on_c, 0, 70, 0
2, 8740, Note_on_c, 0, 73, 0
2, 8826, Note_on_c, 0, 61, 0
2, 8912, Note_on_c, 0, 39, 52
2, 8932, Control_c, 0, 64, 0
2, 8936, Control_c, 0, 64, 127
2, 8939, Note_on_c, 0, 39, 0
2, 9062, Note_on_c, 0, 75, 68
2, 9062, Note_on_c, 0, 66, 59
2, 9064, Note_on_c, 0, 70, 64
2, 9066, Note_on_c, 0, 61, 31
2, 9067, Note_on_c, 0, 55, 51
2, 9146, Note_on_c, 0, 61, 0
2, 9147, Note_on_c, 0, 55, 0
2, 9152, Note_on_c, 0, 70, 0
2, 9153, Note_on_c, 0, 66, 0
2, 9163, Note_on_c, 0, 75, 0
2, 9412, Note_on_c, 0, 71, 73
2, 9415, Note_on_c, 0, 67, 73
2, 9415, Note_on_c, 0, 62, 75
2, 9416, Note_on_c, 0, 61, 59
2, 9420, Note_on_c, 0, 55, 63
2, 9420, Control_c, 0, 64, 0
2, 9438, Control_c, 0, 64, 127
2, 9444, Note_on_c, 0, 61, 0
2, 9451, Note_on_c, 0, 55, 0
2, 9462, Note_on_c, 0, 67, 0
2, 9464, Note_on_c, 0, 71, 0
2, 9493, Note_on_c, 0, 62, 0
2, 9604, Note_on_c, 0, 73, 51
2, 9604, Note_on_c, 0, 44, 51
2, 9613, Control_c, 0, 64, 0
2, 9651, Control_c, 0, 64, 127
2, 9666, Note_on_c, 0, 54, 59
2, 9678, Note_on_c, 0, 44, 0
2, 9682, Note_on_c, 0, 54, 0
2, 9736, Note_on_c, 0, 58, 59
2, 9802, Note_on_c, 0, 59, 68
2, 9882, Note_on_c, 0, 63, 74
2, 9957, Note_on_c, 0, 59, 0
2, 9968, Note_on_c, 0, 68, 80
2, 9976, Note_on_c, 0, 73, 0
2, 10101, Note_on_c, 0, 70, 32
2, 10102, Note_on_c, 0, 59, 43
2, 10103, Note_on_c, 0, 71, 76
2, 10121, Note_on_c, 0, 68, 0
2, 10167, Note_on_c, 0, 59, 0
2, 10168, Note_on_c, 0, 70, 0
2, 10173, Note_on_c, 0, 71, 0
2, 10184, Note_on_c, 0, 73, 72
2, 10188, Note_on_c, 0, 59, 50
2, 10210, Note_on_c, 0, 63, 0
2, 10245, Note_on_c, 0, 73, 0
2, 10257, Note_on_c, 0, 75, 81
2, 10268, Note_on_c, 0, 73, 18
2, 10285, Note_on_c, 0, 59, 0
2, 10298, Note_on_c, 0, 58, 0
2, 10320, Control_c, 0, 64, 0
2, 10352, Note_on_c, 0, 73, 0
2, 10439, Note_on_c, 0, 73, 69
2, 10441, Note_on_c, 0, 41, 72
2, 10462, Note_on_c, 0, 75, 0
2, 10473, Control_c, 0, 64, 127
2, 10556, Note_on_c, 0, 53, 45
2, 10589, Note_on_c, 0, 41, 0
2, 10620, Note_on_c, 0, 73, 0
2, 10626, Note_on_c, 0, 59, 45
2, 10628, Note_on_c, 0, 71, 65
2, 10628, Note_on_c, 0, 62, 66
2, 10630, Note_on_c, 0, 67, 64
2, 10637, Note_on_c, 0, 53, 0
2, 10692, Note_on_c, 0, 53, 52
2, 10695, Note_on_c, 0, 59, 0
2, 10702, Note_on_c, 0, 62, 0
2, 10709, Note_on_c, 0, 71, 0
2, 10711, Note_on_c, 0, 53, 0
2, 10715, Note_on_c, 0, 67, 0
2, 10773, Note_on_c, 0, 70, 76
2, 10775, Note_on_c, 0, 61, 71
2, 10776, Note_on_c, 0, 66, 64
2, 10777, Note_on_c, 0, 56, 51
2, 10779, Note_on_c, 0, 46, 50
2, 10784, Control_c, 0, 64, 0
2, 10846, Control_c, 0, 64, 127
2, 10853, Note_on_c, 0, 46, 0
2, 10872, Note_on_c, 0, 46, 59
2, 10895, Note_on_c, 0, 56, 0
2, 10918, Note_on_c, 0, 70, 0
2, 10922, Note_on_c, 0, 61, 0
2, 10929, Note_on_c, 0, 66, 0
2, 10968, Note_on_c, 0, 73, 60
2, 10968, Note_on_c, 0, 61, 83
2, 10969, Note_on_c, 0, 66, 75
2, 10970, Note_on_c, 0, 70, 60
2, 10971, Note_on_c, 0, 56, 57
2, 10979, Control_c, 0, 64, 0
2, 10993, Control_c, 0, 64, 127
2, 11038, Note_on_c, 0, 70, 0
2, 11039, Note_on_c, 0, 61, 0
2, 11039, Note_on_c, 0, 46, 0
2, 11044, Note_on_c, 0, 56, 0
2, 11044, Note_on_c, 0, 66, 0
2, 11048, Note_on_c, 0, 73, 0
2, 11067, Note_on_c, 0, 71, 54
2, 11067, Note_on_c, 0, 56, 40
2, 11068, Note_on_c, 0, 67, 57
2, 11069, Note_on_c, 0, 62, 59
2, 11069, Note_on_c, 0, 46, 40
2, 11104, Note_on_c, 0, 56, 0
2, 11111, Note_on_c, 0, 46, 0
2, 11118, Note_on_c, 0, 71, 0
2, 11122, Note_on_c, 0, 62, 0
2, 11133, Note_on_c, 0, 67, 0
2, 11188, Note_on_c, 0, 70, 54
2, 11189, Note_on_c, 0, 61, 43
2, 11192, Note_on_c, 0, 66, 42
2, 11193, Note_on_c, 0, 39, 51
2, 11200, Control_c, 0, 64, 0
2, 11268, Note_on_c, 0, 46, 54
2, 11290, Note_on_c, 0, 39, 0
2, 11298, Control_c, 0, 64, 127
2, 11315, Note_on_c, 0, 66, 0
2, 11321, Note_on_c, 0, 61, 0
2, 11345, Note_on_c, 0, 66, 50
2, 11348, Note_on_c, 0, 54, 37
2, 11349, Note_on_c, 0, 61, 34
2, 11376, Note_on_c, 0, 46, 0
2, 11545, Note_on_c, 0, 70, 0
2, 11547, Note_on_c, 0, 68, 54
2, 11594, Note_on_c, 0, 66, 0
2, 11733, Note_on_c, 0, 68, 0
2, 11740, Note_on_c, 0, 61, 0
2, 11901, Note_on_c, 0, 54, 0
2, 11925, Note_on_c, 0, 68, 35
2, 11926, Note_on_c, 0, 66, 38
2, 11930, Note_on_c, 0, 61, 35
2, 11930, Note_on_c, 0, 58, 23
2, 11932, Note_on_c, 0, 49, 32
2, 11940, Control_c, 0, 64, 0
2, 11988, Control_c, 0, 64, 127
2, 12011, Note_on_c, 0, 49, 0
2, 12026, Note_on_c, 0, 49, 56
2, 12050, Note_on_c, 0, 61, 0
2, 12060, Note_on_c, 0, 58, 0
2, 12103, Note_on_c, 0, 61, 52
2, 12104, Note_on_c, 0, 58, 44
2, 12114, Note_on_c, 0, 49, 0
2, 12169, Note_on_c, 0, 49, 50
2, 12172, Note_on_c, 0, 58, 0
2, 12184, Note_on_c, 0, 61, 0
2, 12212, Note_on_c, 0, 49, 0
2, 12221, Note_on_c, 0, 68, 0
2, 12222, Note_on_c, 0, 66, 0
2, 12242, Note_on_c, 0, 66, 36
2, 12246, Note_on_c, 0, 59, 50
2, 12247, Note_on_c, 0, 63, 36
2, 12250, Note_on_c, 0, 47, 55
2, 12257, Control_c, 0, 64, 0
2, 12301, Control_c, 0, 64, 127
2, 12321, Note_on_c, 0, 54, 65
2, 12323, Note_on_c, 0, 59, 0
2, 12337, Note_on_c, 0, 63, 0
2, 12347, Note_on_c, 0, 66, 0
2, 12385, Note_on_c, 0, 54, 0
2, 12435, Note_on_c, 0, 47, 0
2, 12483, Note_on_c, 0, 68, 64
2, 12485, Note_on_c, 0, 56, 64
2, 12487, Note_on_c, 0, 47, 67
2, 12531, Note_on_c, 0, 56, 0
2, 12534, Note_on_c, 0, 68, 0
2, 12659, Note_on_c, 0, 47, 0
2, 12730, Note_on_c, 0, 70, 61
2, 12732, Note_on_c, 0, 63, 58
2, 12734, Note_on_c, 0, 58, 53
2, 12735, Note_on_c, 0, 46, 53
2, 12746, Control_c, 0, 64, 0
2, 12782, Control_c, 0, 64, 127
2, 12819, Note_on_c, 0, 46, 0
2, 12834, Note_on_c, 0, 58, 0
2, 12835, Note_on_c, 0, 46, 59
2, 12846, Note_on_c, 0, 63, 0
2, 12853, Note_on_c, 0, 70, 0
2, 12953, Note_on_c, 0, 73, 46
2, 12955, Note_on_c, 0, 61, 57
2, 12957, Note_on_c, 0, 70, 46
2, 12957, Note_on_c, 0, 66, 49
2, 12960, Note_on_c, 0, 56, 37
2, 13039, Note_on_c, 0, 46, 0
2, 13073, Note_on_c, 0, 46, 46
2, 13079, Note_on_c, 0, 61, 0
2, 13091, Note_on_c, 0, 66, 0
2, 13092, Note_on_c, 0, 56, 0
2, 13096, Note_on_c, 0, 70, 0
2, 13109, Note_on_c, 0, 73, 0
2, 13115, Note_on_c, 0, 46, 0
2, 13246, Note_on_c, 0, 90, 80
2, 13249, Note_on_c, 0, 45, 71
2, 13255, Control_c, 0, 64, 0
2, 13272, Control_c, 0, 64, 127
2, 13322, Note_on_c, 0, 45, 0
2, 13371, Note_on_c, 0, 64, 43
2, 13372, Note_on_c, 0, 55, 38
2, 13372, Note_on_c, 0, 61, 36
2, 13374, Note_on_c, 0, 59, 42
2, 13469, Note_on_c, 0, 64, 0
2, 13474, Note_on_c, 0, 59, 0
2, 13477, Note_on_c, 0, 61, 0
2, 13488, Note_on_c, 0, 55, 0
2, 13556, Note_on_c, 0, 90, 0
2, 13560, Note_on_c, 0, 81, 69
2, 13563, Note_on_c, 0, 52, 57
2, 13608, Note_on_c, 0, 81, 0
2, 13615, Note_on_c, 0, 52, 0
2, 13621, Note_on_c, 0, 45, 74
2, 13624, Note_on_c, 0, 82, 86
2, 13627, Control_c, 0, 64, 0
2, 13645, Control_c, 0, 64, 127
2, 13678, Note_on_c, 0, 45, 0
2, 13718, Note_on_c, 0, 61, 57
2, 13720, Note_on_c, 0, 66, 54
2, 13720, Note_on_c, 0, 55, 57
2, 13810, Note_on_c, 0, 66, 0
2, 13813, Note_on_c, 0, 55, 0
2, 13820, Note_on_c, 0, 61, 0
2, 13884, Note_on_c, 0, 82, 0
2, 13921, Note_on_c, 0, 45, 79
2, 13961, Note_on_c, 0, 45, 0
2, 13985, Note_on_c, 0, 45, 67
2, 13999, Note_on_c, 0, 45, 0
2, 14083, Note_on_c, 0, 61, 50
2, 14086, Note_on_c, 0, 54, 51
2, 14086, Note_on_c, 0, 64, 60
2, 14088, Note_on_c, 0, 59, 51
2, 14164, Note_on_c, 0, 93, 115
2, 14190, Note_on_c, 0, 93, 0
2, 14199, Note_on_c, 0, 64, 0
2, 14203, Note_on_c, 0, 59, 0
2, 14208, Note_on_c, 0, 61, 0
2, 14216, Note_on_c, 0, 54, 0
2, 14218, Note_on_c, 0, 90, 80
2, 14255, Note_on_c, 0, 90, 0
2, 14276, Note_on_c, 0, 81, 80
2, 14276, Note_on_c, 0, 45, 68
2, 14279, Note_on_c, 0, 52, 74
2, 14284, Control_c, 0, 64, 0
2, 14306, Control_c, 0, 64, 127
2, 14328, Note_on_c, 0, 81, 0
2, 14333, Note_on_c, 0, 88, 88
2, 14342, Note_on_c, 0, 45, 0
2, 14349, Note_on_c, 0, 52, 0
2, 14364, Note_on_c, 0, 88, 0
2, 14388, Note_on_c, 0, 85, 80
2, 14425, Note_on_c, 0, 85, 0
2, 14442, Note_on_c, 0, 78, 60
2, 14461, Note_on_c, 0, 78, 0
2, 14502, Note_on_c, 0, 54, 46
2, 14505, Note_on_c, 0, 61, 36
2, 14506, Note_on_c, 0, 64, 40
2, 14512, Note_on_c, 0, 59, 26
2, 14585, Note_on_c, 0, 64, 0
2, 14588, Note_on_c, 0, 73, 53
2, 14589, Note_on_c, 0, 59, 0
2, 14594, Note_on_c, 0, 61, 0
2, 14601, Note_on_c, 0, 54, 0
2, 14642, Note_on_c, 0, 73, 0
2, 14642, Note_on_c, 0, 69, 34
2, 14646, Note_on_c, 0, 71, 20
2, 14653, Note_on_c, 0, 71, 0
2, 14658, Note_on_c, 0, 69, 0
2, 14693, Note_on_c, 0, 78, 64
2, 14696, Note_on_c, 0, 71, 68
2, 14697, Note_on_c, 0, 45, 63
2, 14704, Control_c, 0, 64, 0
2, 14731, Note_on_c, 0, 78, 0
2, 14732, Control_c, 0, 64, 127
2, 14734, Note_on_c, 0, 71, 0
2, 14756, Note_on_c, 0, 52, 43
2, 14805, Note_on_c, 0, 62, 62
2, 14808, Note_on_c, 0, 55, 49
2, 14808, Note_on_c, 0, 59, 52
2, 14815, Note_on_c, 0, 55, 0
2, 14816, Note_on_c, 0, 59, 0
2, 14824, Note_on_c, 0, 62, 0
2, 14839, Note_on_c, 0, 45, 0
2, 14846, Note_on_c, 0, 52, 0
2, 14860, Note_on_c, 0, 78, 80
2, 14897, Note_on_c, 0, 78, 0
2, 14911, Note_on_c, 0, 74, 58
2, 14912, Note_on_c, 0, 67, 60
2, 14914, Note_on_c, 0, 71, 66
2, 14916, Note_on_c, 0, 66, 64
2, 14952, Note_on_c, 0, 66, 0
2, 14963, Note_on_c, 0, 67, 0
2, 14966, Note_on_c, 0, 74, 0
2, 14969, Note_on_c, 0, 71, 0
2, 14979, Note_on_c, 0, 78, 70
2, 14981, Note_on_c, 0, 74, 50
2, 14992, Note_on_c, 0, 74, 0
2, 15022, Note_on_c, 0, 78, 0
2, 15044, Note_on_c, 0, 78, 77
2, 15076, Note_on_c, 0, 78, 0
2, 15105, Note_on_c, 0, 78, 71
2, 15107, Note_on_c, 0, 45, 69
2, 15107, Note_on_c, 0, 73, 58
2, 15110, Note_on_c, 0, 71, 68
2, 15111, Note_on_c, 0, 67, 66
2, 15113, Control_c, 0, 64, 0
2, 15115, Note_on_c, 0, 45, 0
2, 15137, Control_c, 0, 64, 127
2, 15183, Note_on_c, 0, 64, 69
2, 15256, Note_on_c, 0, 71, 0
2, 15270, Note_on_c, 0, 67, 0
2, 15280, Note_on_c, 0, 73, 0
2, 15307, Note_on_c, 0, 73, 27
2, 15309, Note_on_c, 0, 67, 37
2, 15310, Note_on_c, 0, 71, 44
2, 15349, Note_on_c, 0, 64, 0
2, 15354, Note_on_c, 0, 67, 0
2, 15370, Note_on_c, 0, 71, 0
2, 15371, Note_on_c, 0, 78, 0
2, 15376, Note_on_c, 0, 73, 0
2, 15378, Note_on_c, 0, 67, 63
2, 15378, Note_on_c, 0, 61, 30
2, 15396, Note_on_c, 0, 61, 0
2, 15411, Note_on_c, 0, 67, 0
2, 15433, Note_on_c, 0, 69, 58
2, 15454, Note_on_c, 0, 69, 0
2, 15467, Note_on_c, 0, 74, 79
2, 15500, Note_on_c, 0, 74, 0
2, 15511, Note_on_c, 0, 73, 56
2, 15512, Note_on_c, 0, 45, 62
2, 15514, Control_c, 0, 64, 0
2, 15522, Note_on_c, 0, 45, 0
2, 15534, Control_c, 0, 64, 127
2, 15603, Note_on_c, 0, 54, 33
2, 15605, Note_on_c, 0, 64, 33
2, 15605, Note_on_c, 0, 61, 28
2, 15608, Note_on_c, 0, 59, 35
2, 15649, Note_on_c, 0, 64, 0
2, 15698, Note_on_c, 0, 66, 53
2, 15703, Note_on_c, 0, 73, 0
2, 15728, Note_on_c, 0, 66, 0
2, 15735, Note_on_c, 0, 64, 48
2, 15757, Note_on_c, 0, 64, 0
2, 15776, Note_on_c, 0, 59, 0
2, 15777, Note_on_c, 0, 66, 58
2, 15781, Note_on_c, 0, 61, 0
2, 15796, Note_on_c, 0, 54, 0
2, 15867, Note_on_c, 0, 45, 45
2, 15873, Note_on_c, 0, 52, 40
2, 15882, Note_on_c, 0, 45, 0
2, 15888, Note_on_c, 0, 52, 0
2, 15981, Note_on_c, 0, 66, 0
2, 15982, Note_on_c, 0, 54, 37
2, 15985, Note_on_c, 0, 64, 34
2, 15990, Note_on_c, 0, 61, 28
2, 15991, Note_on_c, 0, 59, 30
2, 16113, Note_on_c, 0, 67, 71
2, 16145, Note_on_c, 0, 67, 0
2, 16155, Note_on_c, 0, 68, 51
2, 16161, Note_on_c, 0, 64, 0
2, 16167, Note_on_c, 0, 59, 0
2, 16171, Note_on_c, 0, 68, 0
2, 16174, Note_on_c, 0, 61, 0
2, 16174, Note_on_c, 0, 54, 0
2, 16176, Note_on_c, 0, 69, 68
2, 16192, Note_on_c, 0, 69, 0
2, 16204, Note_on_c, 0, 70, 67
2, 16219, Note_on_c, 0, 71, 65
2, 16220, Note_on_c, 0, 70, 0
2, 16236, Note_on_c, 0, 71, 0
2, 16241, Note_on_c, 0, 72, 59
2, 16256, Note_on_c, 0, 72, 0
2, 16256, Note_on_c, 0, 74, 54
2, 16280, Note_on_c, 0, 74, 0
2, 16281, Note_on_c, 0, 75, 75
2, 16305, Note_on_c, 0, 75, 0
2, 16306, Control_c, 0, 64, 0
2, 16308, Note_on_c, 0, 76, 66
2, 16311, Note_on_c, 0, 43, 57
2, 16334, Control_c, 0, 64, 127
2, 16335, Note_on_c, 0, 43, 0
2, 16413, Note_on_c, 0, 65, 44
2, 16415, Note_on_c, 0, 55, 20
2, 16416, Note_on_c, 0, 60, 32
2, 16417, Note_on_c, 0, 57, 42
2, 16519, Note_on_c, 0, 65, 0
2, 16530, Note_on_c, 0, 60, 0
2, 16536, Note_on_c, 0, 57, 0
2, 16540, Note_on_c, 0, 55, 0
2, 16594, Note_on_c, 0, 67, 46
2, 16598, Note_on_c, 0, 76, 0
2, 16605, Note_on_c, 0, 67, 0
2, 16641, Note_on_c, 0, 50, 40
2, 16688, Note_on_c, 0, 50, 0
2, 16707, Note_on_c, 0, 43, 55
2, 16719, Control_c, 0, 64, 0
2, 16733, Control_c, 0, 64, 127
2, 16744, Note_on_c, 0, 43, 0
2, 16813, Note_on_c, 0, 68, 64
2, 16815, Note_on_c, 0, 62, 70
2, 16817, Note_on_c, 0, 59, 60
2, 16818, Note_on_c, 0, 53, 54
2, 16819, Note_on_c, 0, 65, 61
2, 16828, Note_on_c, 0, 59, 0
2, 16833, Note_on_c, 0, 53, 0
2, 16837, Note_on_c, 0, 62, 0
2, 16839, Note_on_c, 0, 65, 0
2, 16845, Note_on_c, 0, 68, 0
2, 16909, Note_on_c, 0, 76, 76
2, 16910, Note_on_c, 0, 64, 71
2, 16910, Note_on_c, 0, 68, 76
2, 16911, Note_on_c, 0, 71, 74
2, 16911, Note_on_c, 0, 65, 90
2, 16917, Note_on_c, 0, 74, 31
2, 16922, Control_c, 0, 64, 0
2, 16936, Control_c, 0, 64, 127
2, 16976, Note_on_c, 0, 64, 0
2, 16977, Note_on_c, 0, 65, 0
2, 16979, Note_on_c, 0, 74, 0
2, 16980, Note_on_c, 0, 68, 0
2, 16982, Note_on_c, 0, 76, 0
2, 16986, Note_on_c, 0, 71, 0
2, 16999, Note_on_c, 0, 64, 50
2, 17001, Note_on_c, 0, 76, 47
2, 17002, Note_on_c, 0, 68, 69
2, 17004, Note_on_c, 0, 65, 72
2, 17004, Note_on_c, 0, 71, 46
2, 17017, Note_on_c, 0, 64, 0
2, 17029, Note_on_c, 0, 76, 0
2, 17031, Note_on_c, 0, 65, 0
2, 17040, Note_on_c, 0, 68, 0
2, 17041, Note_on_c, 0, 71, 0
2, 17093, Note_on_c, 0, 74, 80
2, 17096, Note_on_c, 0, 71, 77
2, 17098, Note_on_c, 0, 62, 60
2, 17099, Note_on_c, 0, 67, 74
2, 17108, Control_c, 0, 64, 0
2, 17150, Control_c, 0, 64, 127
2, 17177, Note_on_c, 0, 67, 0
2, 17185, Note_on_c, 0, 71, 0
2, 17186, Note_on_c, 0, 74, 0
2, 17191, Note_on_c, 0, 62, 0
2, 17192, Note_on_c, 0, 55, 52
2, 17277, Note_on_c, 0, 79, 62
2, 17281, Note_on_c, 0, 62, 20
2, 17282, Note_on_c, 0, 64, 36
2, 17283, Note_on_c, 0, 67, 60
2, 17284, Note_on_c, 0, 76, 58
2, 17284, Note_on_c, 0, 74, 64
2, 17287, Note_on_c, 0, 71, 62
2, 17324, Note_on_c, 0, 67, 0
2, 17346, Note_on_c, 0, 76, 0
2, 17351, Note_on_c, 0, 55, 0
2, 17354, Note_on_c, 0, 74, 0
2, 17362, Note_on_c, 0, 79, 0
2, 17372, Note_on_c, 0, 71, 0
2, 17433, Note_on_c, 0, 71, 74
2, 17462, Note_on_c, 0, 71, 0
2, 17479, Note_on_c, 0, 55, 54
2, 17480, Note_on_c, 0, 67, 36
2, 17493, Note_on_c, 0, 64, 0
2, 17493, Control_c, 0, 64, 0
2, 17496, Note_on_c, 0, 62, 0
2, 17511, Control_c, 0, 64, 127
2, 17542, Note_on_c, 0, 67, 0
2, 17566, Note_on_c, 0, 67, 35
2, 17571, Note_on_c, 0, 64, 34
2, 17571, Note_on_c, 0, 62, 30
2, 17605, Note_on_c, 0, 67, 0
2, 17645, Note_on_c, 0, 64, 0
2, 17674, Note_on_c, 0, 84, 80
2, 17674, Note_on_c, 0, 64, 48
2, 17676, Note_on_c, 0, 77, 79
2, 17717, Note_on_c, 0, 84, 0
2, 17723, Note_on_c, 0, 81, 43
2, 17725, Note_on_c, 0, 72, 52
2, 17729, Note_on_c, 0, 77, 0
2, 17734, Note_on_c, 0, 72, 0
2, 17737, Note_on_c, 0, 55, 0
2, 17749, Note_on_c, 0, 81, 0
2, 17766, Note_on_c, 0, 84, 69
2, 17769, Note_on_c, 0, 77, 58
2, 17798, Note_on_c, 0, 84, 0
2, 17804, Note_on_c, 0, 77, 0
2, 17815, Note_on_c, 0, 81, 35
2, 17817, Note_on_c, 0, 72, 25
2, 17830, Note_on_c, 0, 62, 0
2, 17836, Note_on_c, 0, 64, 0
2, 17841, Note_on_c, 0, 72, 0
2, 17846, Note_on_c, 0, 55, 5
2, 17852, Note_on_c, 0, 81, 0
2, 17867, Note_on_c, 0, 84, 73
2, 17870, Note_on_c, 0, 77, 52
2, 17888, Control_c, 0, 64, 0
2, 17907, Control_c, 0, 64, 127
2, 17908, Note_on_c, 0, 77, 0
2, 17911, Note_on_c, 0, 84, 0
2, 17919, Note_on_c, 0, 81, 43
2, 17921, Note_on_c, 0, 72, 44
2, 17924, Note_on_c, 0, 77, 27
2, 17924, Note_on_c, 0, 65, 38
2, 17928, Note_on_c, 0, 60, 35
2, 17929, Note_on_c, 0, 57, 28
2, 17953, Note_on_c, 0, 77, 0
2, 17957, Control_c, 0, 64, 0
2, 17963, Note_on_c, 0, 72, 0
2, 17963, Control_c, 0, 64, 127
2, 17969, Note_on_c, 0, 81, 0
2, 17972, Note_on_c, 0, 84, 50
2, 17974, Note_on_c, 0, 77, 34
2, 18000, Note_on_c, 0, 72, 9
2, 18003, Note_on_c, 0, 55, 0
2, 18040, Note_on_c, 0, 55, 54
2, 18106, Note_on_c, 0, 72, 0
2, 18115, Note_on_c, 0, 77, 0
2, 18117, Note_on_c, 0, 84, 0
2, 18130, Note_on_c, 0, 72, 35
2, 18133, Note_on_c, 0, 81, 50
2, 18134, Note_on_c, 0, 77, 36
2, 18156, Note_on_c, 0, 72, 0
2, 18158, Note_on_c, 0, 77, 0
2, 18162, Note_on_c, 0, 55, 0
2, 18165, Note_on_c, 0, 81, 0
2, 18180, Note_on_c, 0, 57, 0
2, 18194, Note_on_c, 0, 55, 57
2, 18194, Note_on_c, 0, 84, 74
2, 18195, Note_on_c, 0, 77, 74
2, 18198, Note_on_c, 0, 72, 69
2, 18221, Note_on_c, 0, 65, 0
2, 18222, Note_on_c, 0, 60, 0
2, 18224, Note_on_c, 0, 84, 0
2, 18227, Note_on_c, 0, 72, 0
2, 18229, Note_on_c, 0, 77, 0
2, 18231, Note_on_c, 0, 55, 0
2, 18264, Note_on_c, 0, 75, 70
2, 18265, Note_on_c, 0, 83, 57
2, 18266, Note_on_c, 0, 71, 55
2, 18267, Note_on_c, 0, 64, 51
2, 18268, Control_c, 0, 64, 0
2, 18269, Note_on_c, 0, 59, 42
2, 18273, Note_on_c, 0, 53, 29
2, 18285, Note_on_c, 0, 75, 0
2, 18288, Note_on_c, 0, 76, 36
2, 18306, Control_c, 0, 64, 127
2, 18307, Note_on_c, 0, 64, 0
2, 18309, Note_on_c, 0, 59, 0
2, 18316, Note_on_c, 0, 53, 0
2, 18353, Note_on_c, 0, 43, 33
2, 18361, Note_on_c, 0, 43, 0
2, 18372, Note_on_c, 0, 83, 0
2, 18385, Note_on_c, 0, 76, 0
2, 18398, Note_on_c, 0, 71, 0
2, 18461, Note_on_c, 0, 59, 53
2, 18461, Note_on_c, 0, 72, 79
2, 18463, Note_on_c, 0, 69, 78
2, 18464, Note_on_c, 0, 65, 80
2, 18545, Note_on_c, 0, 53, 71
2, 18562, Note_on_c, 0, 59, 0
2, 18576, Note_on_c, 0, 53, 0
2, 18580, Note_on_c, 0, 65, 0
2, 18593, Note_on_c, 0, 69, 0
2, 18615, Note_on_c, 0, 72, 0
2, 18654, Note_on_c, 0, 74, 81
2, 18657, Note_on_c, 0, 71, 74
2, 18658, Note_on_c, 0, 59, 67
2, 18658, Note_on_c, 0, 67, 81
2, 18660, Note_on_c, 0, 64, 82
2, 18677, Control_c, 0, 64, 0
2, 18717, Control_c, 0, 64, 127
2, 18741, Note_on_c, 0, 48, 78
2, 18742, Note_on_c, 0, 59, 0
2, 18776, Note_on_c, 0, 64, 0
2, 18785, Note_on_c, 0, 71, 0
2, 18789, Note_on_c, 0, 67, 0
2, 18795, Note_on_c, 0, 74, 0
2, 18829, Note_on_c, 0, 67, 63
2, 18829, Note_on_c, 0, 62, 68
2, 18837, Note_on_c, 0, 55, 48
2, 18852, Note_on_c, 0, 62, 0
2, 18856, Note_on_c, 0, 48, 0
2, 18858, Note_on_c, 0, 55, 0
2, 18864, Note_on_c, 0, 67, 0
2, 18921, Note_on_c, 0, 74, 80
2, 18924, Note_on_c, 0, 55, 99
2, 18961, Note_on_c, 0, 74, 0
2, 18966, Note_on_c, 0, 55, 0
2, 19112, Note_on_c, 0, 74, 78
2, 19113, Note_on_c, 0, 70, 79
2, 19114, Note_on_c, 0, 58, 72
2, 19115, Note_on_c, 0, 64, 80
2, 19124, Control_c, 0, 64, 0
2, 19145, Control_c, 0, 64, 127
2, 19170, Note_on_c, 0, 74, 0
2, 19184, Note_on_c, 0, 70, 0
2, 19189, Note_on_c, 0, 64, 0
2, 19205, Note_on_c, 0, 52, 60
2, 19207, Note_on_c, 0, 76, 71
2, 19213, Note_on_c, 0, 74, 26
2, 19214, Note_on_c, 0, 58, 0
2, 19216, Note_on_c, 0, 52, 0
2, 19220, Note_on_c, 0, 74, 0
2, 19287, Note_on_c, 0, 48, 44
2, 19288, Note_on_c, 0, 76, 0
2, 19305, Note_on_c, 0, 48, 0
2, 19406, Note_on_c, 0, 78, 60
2, 19409, Note_on_c, 0, 47, 57
2, 19413, Control_c, 0, 64, 0
2, 19443, Control_c, 0, 64, 127
2, 19445, Note_on_c, 0, 47, 0
2, 19521, Note_on_c, 0, 63, 37
2, 19632, Note_on_c, 0, 72, 33
2, 19634, Note_on_c, 0, 65, 40
2, 19634, Note_on_c, 0, 69, 33
2, 19640, Note_on_c, 0, 67, 27
2, 19721, Note_on_c, 0, 78, 0
2, 19744, Note_on_c, 0, 79, 63
2, 19748, Note_on_c, 0, 67, 0
2, 19750, Note_on_c, 0, 65, 0
2, 19763, Note_on_c, 0, 63, 0
2, 19783, Note_on_c, 0, 79, 0
2, 19789, Note_on_c, 0, 72, 0
2, 19800, Note_on_c, 0, 69, 0
2, 19854, Note_on_c, 0, 62, 57
2, 19856, Note_on_c, 0, 71, 41
2, 19856, Note_on_c, 0, 67, 55
2, 19859, Note_on_c, 0, 56, 30
2, 19885, Note_on_c, 0, 62, 0
2, 19889, Note_on_c, 0, 71, 0
2, 19902, Note_on_c, 0, 67, 0
2, 19915, Note_on_c, 0, 75, 73
2, 19957, Note_on_c, 0, 75, 0
2, 19969, Note_on_c, 0, 56, 0
2, 19978, Note_on_c, 0, 76, 57
2, 19984, Note_on_c, 0, 52, 36
2, 19997, Control_c, 0, 64, 0
2, 20029, Control_c, 0, 64, 127
2, 20044, Note_on_c, 0, 59, 44
2, 20065, Note_on_c, 0, 59, 0
2, 20079, Note_on_c, 0, 76, 0
2, 20080, Note_on_c, 0, 67, 51
2, 20081, Note_on_c, 0, 52, 0
2, 20085, Note_on_c, 0, 71, 46
2, 20114, Note_on_c, 0, 67, 0
2, 20116, Note_on_c, 0, 71, 0
2, 20124, Note_on_c, 0, 76, 62
2, 20159, Note_on_c, 0, 76, 0
2, 20162, Note_on_c, 0, 46, 56
2, 20167, Note_on_c, 0, 67, 47
2, 20168, Note_on_c, 0, 72, 48
2, 20169, Control_c, 0, 64, 0
2, 20180, Note_on_c, 0, 46, 0
2, 20193, Control_c, 0, 64, 127
2, 20215, Note_on_c, 0, 67, 0
2, 20220, Note_on_c, 0, 56, 52
2, 20221, Note_on_c, 0, 72, 0
2, 20268, Note_on_c, 0, 72, 60
2, 20271, Note_on_c, 0, 62, 49
2, 20280, Note_on_c, 0, 62, 0
2, 20293, Note_on_c, 0, 56, 0
2, 20310, Note_on_c, 0, 72, 0
2, 20315, Note_on_c, 0, 79, 53
2, 20364, Note_on_c, 0, 45, 68
2, 20366, Control_c, 0, 64, 0
2, 20371, Note_on_c, 0, 45, 0
2, 20390, Control_c, 0, 64, 127
2, 20423, Note_on_c, 0, 79, 0
2, 20504, Note_on_c, 0, 77, 51
2, 20578, Note_on_c, 0, 55, 50
2, 20627, Note_on_c, 0, 77, 0
2, 20663, Note_on_c, 0, 69, 43
2, 20663, Note_on_c, 0, 61, 45
2, 20705, Note_on_c, 0, 55, 0
2, 20811, Note_on_c, 0, 61, 0
2, 20898, Note_on_c, 0, 69, 0
2, 20902, Note_on_c, 0, 73, 39
2, 20956, Note_on_c, 0, 73, 0
2, 21148, Note_on_c, 0, 74, 63
2, 21151, Note_on_c, 0, 65, 60
2, 21152, Note_on_c, 0, 69, 67
2, 21153, Note_on_c, 0, 64, 62
2, 21180, Control_c, 0, 64, 0
2, 21206, Note_on_c, 0, 64, 0
2, 21208, Note_on_c, 0, 63, 51
2, 21251, Note_on_c, 0, 63, 0
2, 21264, Note_on_c, 0, 62, 38
2, 21317, Note_on_c, 0, 62, 0
2, 21325, Control_c, 0, 64, 127
2, 21325, Note_on_c, 0, 61, 44
2, 21351, Note_on_c, 0, 61, 0
2, 21364, Note_on_c, 0, 65, 0
2, 21380, Note_on_c, 0, 69, 0
2, 21396, Note_on_c, 0, 65, 54
2, 21397, Note_on_c, 0, 74, 0
2, 21397, Note_on_c, 0, 70, 49
2, 21398, Note_on_c, 0, 54, 34
2, 21406, Note_on_c, 0, 74, 24
2, 21409, Control_c, 0, 64, 0
2, 21441, Control_c, 0, 64, 127
2, 21454, Note_on_c, 0, 65, 0
2, 21462, Note_on_c, 0, 44, 37
2, 21463, Note_on_c, 0, 70, 0
2, 21467, Note_on_c, 0, 74, 0
2, 21470, Note_on_c, 0, 54, 0
2, 21476, Note_on_c, 0, 44, 0
2, 21540, Note_on_c, 0, 86, 51
2, 21542, Note_on_c, 0, 77, 35
2, 21545, Note_on_c, 0, 54, 9
2, 21564, Note_on_c, 0, 86, 0
2, 21572, Note_on_c, 0, 77, 0
2, 21629, Note_on_c, 0, 60, 41
2, 21632, Note_on_c, 0, 82, 34
2, 21634, Note_on_c, 0, 74, 31
2, 21708, Note_on_c, 0, 60, 0
2, 21712, Note_on_c, 0, 82, 0
2, 21720, Note_on_c, 0, 54, 0
2, 21733, Note_on_c, 0, 74, 0
2, 21805, Note_on_c, 0, 31, 80
2, 21816, Control_c, 0, 64, 0
2, 21848, Control_c, 0, 64, 127
2, 21877, Note_on_c, 0, 31, 0
2, 21985, Note_on_c, 0, 75, 84
2, 21987, Note_on_c, 0, 68, 78
2, 21987, Note_on_c, 0, 65, 90
2, 21988, Note_on_c, 0, 71, 80
2, 21989, Note_on_c, 0, 59, 79
2, 21992, Note_on_c, 0, 73, 27
2, 22005, Control_c, 0, 64, 0
2, 22013, Control_c, 0, 64, 127
2, 22075, Note_on_c, 0, 71, 0
2, 22076, Note_on_c, 0, 73, 0
2, 22078, Note_on_c, 0, 75, 0
2, 22081, Note_on_c, 0, 68, 0
2, 22091, Note_on_c, 0, 65, 0
2, 22095, Note_on_c, 0, 59, 0
2, 22196, Note_on_c, 0, 67, 63
2, 22198, Note_on_c, 0, 59, 59
2, 22199, Note_on_c, 0, 56, 54
2, 22201, Note_on_c, 0, 62, 45
2, 22202, Note_on_c, 0, 50, 35
2, 22209, Control_c, 0, 64, 0
2, 22215, Control_c, 0, 64, 127
2, 22219, Note_on_c, 0, 56, 0
2, 22220, Note_on_c, 0, 50, 0
2, 22220, Note_on_c, 0, 59, 0
2, 22222, Note_on_c, 0, 62, 0
2, 22227, Note_on_c, 0, 67, 0
2, 22282, Note_on_c, 0, 71, 58
2, 22284, Note_on_c, 0, 62, 64
2, 22285, Note_on_c, 0, 68, 62
2, 22286, Note_on_c, 0, 56, 61
2, 22287, Note_on_c, 0, 65, 68
2, 22307, Note_on_c, 0, 62, 0
2, 22309, Note_on_c, 0, 65, 0
2, 22313, Note_on_c, 0, 71, 0
2, 22317, Note_on_c, 0, 68, 0
2, 22333, Note_on_c, 0, 56, 0
2, 22473, Note_on_c, 0, 74, 78
2, 22474, Note_on_c, 0, 58, 71
2, 22476, Note_on_c, 0, 67, 77
2, 22476, Note_on_c, 0, 63, 62
2, 22496, Control_c, 0, 64, 0
2, 22526, Control_c, 0, 64, 127
2, 22572, Note_on_c, 0, 67, 0
2, 22574, Note_on_c, 0, 63, 0
2, 22574, Note_on_c, 0, 74, 0
2, 22586, Note_on_c, 0, 63, 34
2, 22588, Note_on_c, 0, 72, 62
2, 22589, Note_on_c, 0, 58, 0
2, 22589, Note_on_c, 0, 55, 46
2, 22589, Note_on_c, 0, 67, 51
2, 22617, Note_on_c, 0, 67, 0
2, 22623, Note_on_c, 0, 72, 0
2, 22637, Note_on_c, 0, 63, 0
2, 22672, Note_on_c, 0, 55, 0
2, 22685, Note_on_c, 0, 51, 42
2, 22686, Note_on_c, 0, 72, 48
2, 22687, Note_on_c, 0, 65, 55
2, 22688, Note_on_c, 0, 61, 37
2, 22694, Note_on_c, 0, 69, 35
2, 22697, Control_c, 0, 64, 0
2, 22725, Control_c, 0, 64, 127
2, 22728, Note_on_c, 0, 69, 0
2, 22731, Note_on_c, 0, 72, 0
2, 22748, Note_on_c, 0, 58, 46
2, 22751, Note_on_c, 0, 70, 62
2, 22759, Note_on_c, 0, 58, 0
2, 22763, Note_on_c, 0, 65, 0
2, 22766, Note_on_c, 0, 51, 0
2, 22785, Note_on_c, 0, 70, 0
2, 22786, Note_on_c, 0, 61, 0
2, 22822, Note_on_c, 0, 70, 48
2, 22825, Note_on_c, 0, 67, 45
2, 22825, Note_on_c, 0, 63, 40
2, 22825, Note_on_c, 0, 44, 42
2, 22827, Note_on_c, 0, 60, 37
2, 22835, Control_c, 0, 64, 0
2, 22866, Note_on_c, 0, 67, 0
2, 22867, Control_c, 0, 64, 127
2, 22874, Note_on_c, 0, 70, 0
2, 22885, Note_on_c, 0, 60, 0
2, 22890, Note_on_c, 0, 68, 57
2, 22891, Note_on_c, 0, 51, 36
2, 22931, Note_on_c, 0, 68, 0
2, 22932, Note_on_c, 0, 63, 0
2, 22944, Note_on_c, 0, 44, 0
2, 22958, Note_on_c, 0, 51, 0
2, 22977, Note_on_c, 0, 68, 47
2, 22979, Note_on_c, 0, 48, 46
2, 22980, Note_on_c, 0, 61, 37
2, 22983, Note_on_c, 0, 64, 45
2, 22983, Note_on_c, 0, 58, 26
2, 22989, Control_c, 0, 64, 0
2, 23014, Note_on_c, 0, 48, 0
2, 23021, Note_on_c, 0, 48, 27
2, 23022, Control_c, 0, 64, 127
2, 23037, Note_on_c, 0, 68, 0
2, 23039, Note_on_c, 0, 64, 0
2, 23070, Note_on_c, 0, 36, 48
2, 23070, Note_on_c, 0, 67, 49
2, 23076, Control_c, 0, 64, 0
2, 23079, Note_on_c, 0, 36, 0
2, 23082, Control_c, 0, 64, 127
2, 23107, Note_on_c, 0, 48, 0
2, 23125, Note_on_c, 0, 67, 0
2, 23128, Note_on_c, 0, 58, 0
2, 23137, Note_on_c, 0, 61, 0
2, 23188, Note_on_c, 0, 56, 35
2, 23190, Note_on_c, 0, 67, 26
2, 23191, Note_on_c, 0, 60, 45
2, 23192, Note_on_c, 0, 63, 33
2, 23194, Note_on_c, 0, 41, 43
2, 23194, Control_c, 0, 64, 0
2, 23222, Control_c, 0, 64, 127
2, 23239, Note_on_c, 0, 67, 0
2, 23259, Note_on_c, 0, 60, 0
2, 23262, Note_on_c, 0, 56, 0
2, 23274, Note_on_c, 0, 63, 0
2, 23291, Note_on_c, 0, 55, 57
2, 23292, Note_on_c, 0, 48, 24
2, 23353, Note_on_c, 0, 48, 0
2, 23355, Note_on_c, 0, 55, 0
2, 23359, Note_on_c, 0, 56, 80
2, 23361, Note_on_c, 0, 51, 37
2, 23396, Note_on_c, 0, 56, 0
2, 23412, Note_on_c, 0, 60, 88
2, 23447, Note_on_c, 0, 60, 0
2, 23468, Note_on_c, 0, 63, 85
2, 23507, Note_on_c, 0, 63, 0
2, 23521, Note_on_c, 0, 67, 87
2, 23531, Control_c, 0, 64, 0
2, 23567, Note_on_c, 0, 67, 0
2, 23569, Control_c, 0, 64, 127
2, 23574, Note_on_c, 0, 64, 74
2, 23592, Note_on_c, 0, 41, 0
2, 23604, Note_on_c, 0, 51, 0
2, 23610, Note_on_c, 0, 64, 0
2, 23625, Note_on_c, 0, 65, 88
2, 23671, Note_on_c, 0, 65, 0
2, 23686, Note_on_c, 0, 67, 64
2, 23690, Note_on_c, 0, 50, 37
2, 23690, Note_on_c, 0, 60, 40
2, 23693, Control_c, 0, 64, 0
2, 23725, Control_c, 0, 64, 127
2, 23741, Note_on_c, 0, 67, 0
2, 23754, Note_on_c, 0, 68, 60
2, 23761, Note_on_c, 0, 56, 33
2, 23767, Note_on_c, 0, 68, 0
2, 23768, Note_on_c, 0, 60, 0
2, 23831, Note_on_c, 0, 72, 49
2, 23834, Note_on_c, 0, 60, 44
2, 23886, Note_on_c, 0, 72, 0
2, 23917, Note_on_c, 0, 77, 78
2, 23924, Note_on_c, 0, 50, 0
2, 23934, Note_on_c, 0, 56, 0
2, 23942, Note_on_c, 0, 60, 0
2, 24004, Note_on_c, 0, 65, 67
2, 24004, Note_on_c, 0, 79, 80
2, 24007, Note_on_c, 0, 60, 58
2, 24011, Note_on_c, 0, 54, 52
2, 24012, Control_c, 0, 64, 0
2, 24013, Note_on_c, 0, 77, 0
2, 24034, Control_c, 0, 64, 127
2, 24080, Note_on_c, 0, 79, 0
2, 24092, Note_on_c, 0, 80, 75
2, 24117, Note_on_c, 0, 60, 0
2, 24118, Note_on_c, 0, 65, 0
2, 24160, Note_on_c, 0, 54, 0
2, 24166, Note_on_c, 0, 80, 0
2, 24186, Note_on_c, 0, 82, 62
2, 24187, Note_on_c, 0, 64, 34
2, 24189, Note_on_c, 0, 70, 50
2, 24190, Note_on_c, 0, 59, 38
2, 24191, Control_c, 0, 64, 0
2, 24191, Note_on_c, 0, 53, 24
2, 24223, Control_c, 0, 64, 127
2, 24262, Note_on_c, 0, 82, 0
2, 24266, Note_on_c, 0, 70, 0
2, 24284, Note_on_c, 0, 80, 52
2, 24285, Note_on_c, 0, 64, 0
2, 24286, Note_on_c, 0, 68, 52
2, 24291, Note_on_c, 0, 59, 0
2, 24303, Note_on_c, 0, 53, 0
2, 24342, Note_on_c, 0, 80, 0
2, 24346, Note_on_c, 0, 68, 0
2, 24381, Note_on_c, 0, 48, 49
2, 24383, Note_on_c, 0, 79, 43
2, 24384, Note_on_c, 0, 75, 44
2, 24389, Note_on_c, 0, 67, 24
2, 24389, Control_c, 0, 64, 0
2, 24427, Note_on_c, 0, 79, 0
2, 24429, Note_on_c, 0, 67, 0
2, 24429, Control_c, 0, 64, 127
2, 24450, Note_on_c, 0, 75, 0
2, 24472, Note_on_c, 0, 80, 59
2, 24475, Note_on_c, 0, 60, 40
2, 24477, Note_on_c, 0, 68, 48
2, 24479, Note_on_c, 0, 48, 0
2, 24495, Note_on_c, 0, 68, 0
2, 24497, Note_on_c, 0, 60, 0
2, 24530, Note_on_c, 0, 80, 0
2, 24624, Note_on_c, 0, 80, 50
2, 24628, Note_on_c, 0, 73, 33
2, 24631, Note_on_c, 0, 65, 37
2, 24631, Note_on_c, 0, 55, 28
2, 24634, Note_on_c, 0, 77, 30
2, 24635, Note_on_c, 0, 61, 30
2, 24642, Control_c, 0, 64, 0
2, 24672, Control_c, 0, 64, 127
2, 24687, Note_on_c, 0, 65, 0
2, 24693, Note_on_c, 0, 55, 0
2, 24699, Note_on_c, 0, 61, 0
2, 24700, Note_on_c, 0, 73, 0
2, 24702, Note_on_c, 0, 77, 0
2, 24708, Note_on_c, 0, 80, 0
2, 24761, Note_on_c, 0, 79, 55
2, 24765, Note_on_c, 0, 67, 47
2, 24767, Note_on_c, 0, 61, 23
2, 24785, Note_on_c, 0, 61, 0
2, 24811, Note_on_c, 0, 67, 0
2, 24813, Note_on_c, 0, 79, 0
2, 24859, Note_on_c, 0, 79, 48
2, 24861, Note_on_c, 0, 72, 54
2, 24863, Note_on_c, 0, 67, 44
2, 24864, Note_on_c, 0, 44, 46
2, 24869, Control_c, 0, 64, 0
2, 24899, Control_c, 0, 64, 127
2, 24923, Note_on_c, 0, 79, 0
2, 24935, Note_on_c, 0, 67, 0
2, 24946, Note_on_c, 0, 72, 0
2, 24968, Note_on_c, 0, 44, 0
2, 24977, Note_on_c, 0, 77, 50
2, 25061, Note_on_c, 0, 77, 0
2, 25236, Note_on_c, 0, 77, 39
2, 25237, Note_on_c, 0, 63, 32
2, 25239, Note_on_c, 0, 65, 39
2, 25239, Note_on_c, 0, 59, 37
2, 25240, Note_on_c, 0, 71, 39
2, 25248, Note_on_c, 0, 53, 26
2, 25256, Control_c, 0, 64, 0
2, 25286, Control_c, 0, 64, 127
2, 25297, Note_on_c, 0, 63, 0
2, 25299, Note_on_c, 0, 59, 0
2, 25301, Note_on_c, 0, 53, 0
2, 25403, Note_on_c, 0, 43, 38
2, 25437, Note_on_c, 0, 43, 0
2, 25485, Note_on_c, 0, 77, 0
2, 25509, Note_on_c, 0, 71, 0
2, 25518, Note_on_c, 0, 65, 0
2, 25520, Note_on_c, 0, 76, 52
2, 25579, Note_on_c, 0, 76, 0
2, 25648, Note_on_c, 0, 76, 45
2, 25651, Note_on_c, 0, 48, 31
2, 25655, Control_c, 0, 64, 0
2, 25683, Control_c, 0, 64, 127
2, 25710, Note_on_c, 0, 76, 0
2, 25715, Note_on_c, 0, 55, 30
2, 25780, Note_on_c, 0, 64, 45
2, 25797, Note_on_c, 0, 60, 14
2, 25834, Note_on_c, 0, 48, 0
2, 25838, Note_on_c, 0, 64, 0
2, 25839, Note_on_c, 0, 55, 0
2, 25845, Note_on_c, 0, 76, 45
2, 25878, Note_on_c, 0, 60, 0
2, 25889, Note_on_c, 0, 76, 0
2, 25935, Note_on_c, 0, 76, 37
2, 25937, Note_on_c, 0, 68, 37
2, 25938, Note_on_c, 0, 64, 33
2, 25939, Note_on_c, 0, 58, 37
2, 25939, Note_on_c, 0, 72, 44
2, 25944, Control_c, 0, 64, 0
2, 25964, Control_c, 0, 64, 127
2, 25966, Note_on_c, 0, 58, 0
2, 26056, Note_on_c, 0, 64, 0
2, 26065, Note_on_c, 0, 72, 0
2, 26068, Note_on_c, 0, 68, 0
2, 26171, Note_on_c, 0, 30, 37
2, 26219, Note_on_c, 0, 30, 0
2, 26386, Note_on_c, 0, 76, 0
2, 26526, Note_on_c, 0, 62, 40
2, 26531, Note_on_c, 0, 47, 47
2, 26533, Note_on_c, 0, 57, 29
2, 26545, Control_c, 0, 64, 0
2, 26574, Control_c, 0, 64, 127
2, 26597, Note_on_c, 0, 57, 0
2, 26610, Note_on_c, 0, 62, 0
2, 26628, Note_on_c, 0, 47, 0
2, 26713, Note_on_c, 0, 77, 80
2, 26719, Note_on_c, 0, 74, 79
2, 26724, Note_on_c, 0, 69, 79
2, 26778, Note_on_c, 0, 69, 0
2, 26781, Note_on_c, 0, 74, 0
2, 26783, Note_on_c, 0, 77, 0
2, 26800, Note_on_c, 0, 77, 71
2, 26807, Note_on_c, 0, 74, 66
2, 26816, Note_on_c, 0, 65, 57
2, 26817, Note_on_c, 0, 69, 58
2, 26852, Note_on_c, 0, 69, 0
2, 26853, Note_on_c, 0, 74, 0
2, 26866, Note_on_c, 0, 77, 0
2, 26875, Note_on_c, 0, 65, 0
2, 26897, Note_on_c, 0, 77, 57
2, 26904, Note_on_c, 0, 72, 65
2, 26906, Note_on_c, 0, 56, 45
2, 26907, Note_on_c, 0, 62, 41
2, 26909, Note_on_c, 0, 67, 60
2, 26922, Control_c, 0, 64, 0
2, 26971, Control_c, 0, 64, 127
2, 27039, Note_on_c, 0, 62, 0
2, 27051, Note_on_c, 0, 56, 0
2, 27087, Note_on_c, 0, 76, 65
2, 27088, Note_on_c, 0, 77, 0
2, 27089, Note_on_c, 0, 67, 0
2, 27101, Note_on_c, 0, 72, 0
2, 27128, Note_on_c, 0, 76, 0
2, 27144, Note_on_c, 0, 76, 63
2, 27148, Note_on_c, 0, 45, 51
2, 27153, Control_c, 0, 64, 0
2, 27175, Note_on_c, 0, 76, 0
2, 27179, Control_c, 0, 64, 127
2, 27198, Note_on_c, 0, 52, 43
2, 27249, Note_on_c, 0, 59, 45
2, 27250, Note_on_c, 0, 64, 50
2, 27251, Note_on_c, 0, 60, 46
2, 27287, Note_on_c, 0, 60, 0
2, 27288, Note_on_c, 0, 59, 0
2, 27295, Note_on_c, 0, 64, 0
2, 27306, Note_on_c, 0, 57, 48
2, 27322, Note_on_c, 0, 57, 0
2, 27373, Note_on_c, 0, 64, 46
2, 27374, Note_on_c, 0, 59, 32
2, 27376, Note_on_c, 0, 60, 32
2, 27414, Note_on_c, 0, 60, 0
2, 27418, Note_on_c, 0, 59, 0
2, 27425, Note_on_c, 0, 64, 0
2, 27443, Note_on_c, 0, 55, 64
2, 27525, Note_on_c, 0, 59, 44
2, 27526, Note_on_c, 0, 64, 50
2, 27527, Note_on_c, 0, 60, 38
2, 27541, Note_on_c, 0, 45, 0
2, 27605, Note_on_c, 0, 55, 0
2, 27613, Note_on_c, 0, 45, 58
2, 27625, Note_on_c, 0, 52, 0
2, 27632, Note_on_c, 0, 64, 0
2, 27665, Note_on_c, 0, 60, 0
2, 27679, Note_on_c, 0, 59, 0
2, 27733, Note_on_c, 0, 45, 0
2, 27946, Note_on_c, 0, 65, 87
2, 27947, Note_on_c, 0, 54, 82
2, 27948, Note_on_c, 0, 61, 61
2, 27949, Note_on_c, 0, 58, 70
2, 27951, Note_on_c, 0, 44, 58
2, 27951, Note_on_c, 0, 32, 59
2, 27971, Control_c, 0, 64, 0
2, 28006, Control_c, 0, 64, 127
2, 28139, Note_on_c, 0, 65, 0
2, 28186, Note_on_c, 0, 65, 84
2, 28246, Note_on_c, 0, 61, 0
2, 28265, Note_on_c, 0, 44, 0
2, 28303, Note_on_c, 0, 54, 0
2, 28306, Note_on_c, 0, 32, 0
2, 28310, Note_on_c, 0, 65, 0
2, 28313, Note_on_c, 0, 58, 0
2, 28418, Note_on_c, 0, 65, 80
2, 28420, Note_on_c, 0, 61, 67
2, 28420, Note_on_c, 0, 54, 76
2, 28421, Note_on_c, 0, 57, 80
2, 28423, Note_on_c, 0, 44, 52
2, 28443, Control_c, 0, 64, 0
2, 28541, Control_c, 0, 64, 127
2, 28681, Note_on_c, 0, 57, 0
2, 28710, Note_on_c, 0, 54, 0
2, 28768, Note_on_c, 0, 54, 18
2, 28774, Note_on_c, 0, 32, 37
2, 28866, Note_on_c, 0, 65, 0
2, 28873, Note_on_c, 0, 61, 0
2, 28895, Note_on_c, 0, 32, 0
2, 28931, Note_on_c, 0, 63, 40
2, 28961, Note_on_c, 0, 44, 0
2, 29042, Note_on_c, 0, 54, 0
2, 29145, Note_on_c, 0, 63, 0
2, 29240, Note_on_c, 0, 64, 50
2, 29243, Note_on_c, 0, 52, 46
2, 29247, Note_on_c, 0, 37, 37
2, 29249, Control_c, 0, 64, 0
2, 29277, Control_c, 0, 64, 127
2, 29286, Note_on_c, 0, 52, 0
2, 29320, Note_on_c, 0, 64, 0
2, 29336, Note_on_c, 0, 44, 40
2, 29345, Note_on_c, 0, 37, 0
2, 29351, Note_on_c, 0, 44, 0
2, 29482, Note_on_c, 0, 76, 46
2, 29483, Note_on_c, 0, 68, 39
2, 29485, Note_on_c, 0, 63, 32
2, 29486, Note_on_c, 0, 64, 40
2, 29570, Note_on_c, 0, 68, 0
2, 29578, Note_on_c, 0, 76, 0
2, 29586, Note_on_c, 0, 64, 0
2, 29596, Note_on_c, 0, 63, 0
2, 29601, Note_on_c, 0, 76, 34
2, 29653, Note_on_c, 0, 76, 0
2, 29765, Note_on_c, 0, 76, 39
2, 29768, Note_on_c, 0, 64, 42
2, 29770, Note_on_c, 0, 42, 37
2, 29770, Note_on_c, 0, 30, 38
2, 29783, Control_c, 0, 64, 0
2, 29815, Control_c, 0, 64, 127
2, 29831, Note_on_c, 0, 30, 0
2, 29842, Note_on_c, 0, 42, 0
2, 29884, Note_on_c, 0, 64, 0
2, 30017, Note_on_c, 0, 63, 29
2, 30023, Note_on_c, 0, 58, 30
2, 30025, Note_on_c, 0, 52, 34
2, 30154, Note_on_c, 0, 63, 0
2, 30158, Note_on_c, 0, 52, 0
2, 30167, Note_on_c, 0, 58, 0
2, 30182, Note_on_c, 0, 76, 0
2, 30727, Note_on_c, 0, 77, 61
2, 30727, Note_on_c, 0, 62, 38
2, 30729, Note_on_c, 0, 65, 48
2, 30732, Note_on_c, 0, 57, 42
2, 30789, Control_c, 0, 64, 127
2, 30866, Note_on_c, 0, 57, 0
2, 30868, Note_on_c, 0, 65, 0
2, 30881, Note_on_c, 0, 62, 0
2, 30957, Note_on_c, 0, 62, 34
2, 30957, Note_on_c, 0, 67, 39
2, 30960, Note_on_c, 0, 56, 32
2, 30966, Control_c, 0, 64, 0
2, 30992, Note_on_c, 0, 77, 0
2, 31074, Control_c, 0, 64, 127
2, 31115, Note_on_c, 0, 62, 0
2, 31115, Note_on_c, 0, 67, 0
2, 31123, Note_on_c, 0, 77, 103
2, 31134, Control_c, 0, 64, 0
2, 31147, Note_on_c, 0, 77, 0
2, 31148, Note_on_c, 0, 56, 0
2, 31159, Note_on_c, 0, 76, 91
2, 31161, Note_on_c, 0, 77, 68
2, 31164, Control_c, 0, 64, 127
2, 31167, Note_on_c, 0, 77, 0
2, 31190, Control_c, 0, 64, 0
2, 31191, Note_on_c, 0, 76, 0
2, 31206, Note_on_c, 0, 64, 44
2, 31207, Note_on_c, 0, 74, 90
2, 31209, Note_on_c, 0, 60, 46
2, 31210, Note_on_c, 0, 59, 33
2, 31210, Note_on_c, 0, 57, 29
2, 31235, Note_on_c, 0, 74, 0
2, 31248, Note_on_c, 0, 71, 36
2, 31269, Note_on_c, 0, 71, 0
2, 31286, Note_on_c, 0, 74, 83
2, 31315, Note_on_c, 0, 74, 0
2, 31333, Note_on_c, 0, 72, 51
2, 31390, Control_c, 0, 64, 127
2, 31437, Note_on_c, 0, 59, 0
2, 31437, Note_on_c, 0, 60, 0
2, 31439, Note_on_c, 0, 64, 0
2, 31440, Note_on_c, 0, 57, 0
2, 31563, Control_c, 0, 64, 0
2, 31569, Note_on_c, 0, 66, 52
2, 31571, Note_on_c, 0, 55, 58
2, 31571, Note_on_c, 0, 61, 48
2, 31601, Note_on_c, 0, 72, 0
2, 31614, Control_c, 0, 64, 127
2, 31643, Note_on_c, 0, 55, 0
2, 31645, Control_c, 0, 64, 0
2, 31651, Note_on_c, 0, 66, 0
2, 31669, Note_on_c, 0, 61, 0
2, 31691, Note_on_c, 0, 64, 47
2, 31693, Note_on_c, 0, 53, 45
2, 31693, Note_on_c, 0, 57, 45
2, 31694, Note_on_c, 0, 60, 45
2, 31850, Note_on_c, 0, 76, 105
2, 31874, Note_on_c, 0, 76, 0
2, 31887, Note_on_c, 0, 64, 0
2, 31888, Note_on_c, 0, 60, 0
2, 31889, Note_on_c, 0, 53, 0
2, 31889, Note_on_c, 0, 79, 94
2, 31898, Note_on_c, 0, 57, 0
2, 31912, Note_on_c, 0, 79, 0
2, 31925, Note_on_c, 0, 77, 76
2, 31951, Note_on_c, 0, 77, 0
2, 31961, Note_on_c, 0, 73, 43
2, 31985, Note_on_c, 0, 73, 0
2, 31996, Note_on_c, 0, 76, 76
2, 32019, Note_on_c, 0, 76, 0
2, 32030, Note_on_c, 0, 74, 69
2, 32033, Note_on_c, 0, 76, 35
2, 32034, Note_on_c, 0, 64, 40
2, 32035, Note_on_c, 0, 59, 43
2, 32042, Note_on_c, 0, 76, 0
2, 32043, Note_on_c, 0, 53, 22
2, 32057, Note_on_c, 0, 74, 0
2, 32069, Note_on_c, 0, 69, 49
2, 32084, Note_on_c, 0, 69, 0
2, 32099, Note_on_c, 0, 71, 70
2, 32112, Note_on_c, 0, 59, 0
2, 32113, Note_on_c, 0, 64, 0
2, 32116, Note_on_c, 0, 71, 0
2, 32123, Note_on_c, 0, 53, 0
2, 32132, Note_on_c, 0, 72, 89
2, 32156, Note_on_c, 0, 72, 0
2, 32163, Note_on_c, 0, 74, 73
2, 32168, Note_on_c, 0, 62, 38
2, 32169, Note_on_c, 0, 57, 46
2, 32170, Note_on_c, 0, 52, 33
2, 32185, Note_on_c, 0, 74, 0
2, 32201, Note_on_c, 0, 71, 54
2, 32229, Note_on_c, 0, 71, 0
2, 32240, Note_on_c, 0, 67, 40
2, 32250, Note_on_c, 0, 67, 0
2, 32266, Note_on_c, 0, 69, 68
2, 32286, Note_on_c, 0, 69, 0
2, 32290, Note_on_c, 0, 62, 0
2, 32301, Note_on_c, 0, 64, 36
2, 32313, Note_on_c, 0, 64, 0
2, 32331, Note_on_c, 0, 67, 47
2, 32410, Control_c, 0, 64, 127
2, 32509, Note_on_c, 0, 52, 0
2, 32510, Note_on_c, 0, 57, 0
2, 32635, Note_on_c, 0, 67, 0
2, 32651, Note_on_c, 0, 63, 30
2, 32652, Control_c, 0, 64, 0
2, 32653, Note_on_c, 0, 60, 37
2, 32653, Note_on_c, 0, 68, 44
2, 32656, Note_on_c, 0, 56, 27
2, 32657, Note_on_c, 0, 53, 25
2, 32704, Control_c, 0, 64, 127
2, 32747, Note_on_c, 0, 68, 0
2, 32750, Note_on_c, 0, 53, 0
2, 32754, Note_on_c, 0, 60, 0
2, 32764, Note_on_c, 0, 63, 0
2, 32767, Note_on_c, 0, 56, 0
2, 32884, Note_on_c, 0, 62, 58
2, 32885, Note_on_c, 0, 79, 79
2, 32885, Note_on_c, 0, 66, 53
2, 32888, Control_c, 0, 64, 0
2, 32889, Note_on_c, 0, 56, 46
2, 32916, Note_on_c, 0, 79, 0
2, 32920, Note_on_c, 0, 82, 83
2, 32951, Note_on_c, 0, 78, 64
2, 32964, Note_on_c, 0, 82, 0
2, 32975, Note_on_c, 0, 78, 0
2, 33014, Note_on_c, 0, 77, 51
2, 33036, Note_on_c, 0, 77, 0
2, 33043, Note_on_c, 0, 81, 71
2, 33063, Note_on_c, 0, 81, 0
2, 33067, Note_on_c, 0, 66, 0
2, 33072, Note_on_c, 0, 62, 0
2, 33103, Note_on_c, 0, 56, 0
2, 33107, Control_c, 0, 64, 127
2, 33117, Control_c, 0, 64, 0
2, 33127, Note_on_c, 0, 65, 39
2, 33128, Note_on_c, 0, 62, 35
2, 33130, Note_on_c, 0, 60, 44
2, 33131, Note_on_c, 0, 55, 30
2, 33283, Note_on_c, 0, 75, 77
2, 33305, Note_on_c, 0, 75, 0
2, 33308, Note_on_c, 0, 65, 0
2, 33327, Control_c, 0, 64, 127
2, 33336, Control_c, 0, 64, 0
2, 33349, Note_on_c, 0, 74, 81
2, 33372, Note_on_c, 0, 74, 0
2, 33381, Note_on_c, 0, 79, 76
2, 33412, Note_on_c, 0, 73, 50
2, 33419, Note_on_c, 0, 79, 0
2, 33433, Note_on_c, 0, 62, 0
2, 33436, Note_on_c, 0, 73, 0
2, 33436, Note_on_c, 0, 60, 0
2, 33446, Note_on_c, 0, 67, 39
2, 33453, Note_on_c, 0, 55, 0
2, 33454, Note_on_c, 0, 67, 0
2, 33474, Note_on_c, 0, 72, 74
2, 33498, Note_on_c, 0, 72, 0
2, 33508, Note_on_c, 0, 75, 74
2, 33526, Note_on_c, 0, 75, 0
2, 33541, Note_on_c, 0, 72, 72
2, 33542, Note_on_c, 0, 58, 44
2, 33544, Note_on_c, 0, 48, 46
2, 33554, Note_on_c, 0, 48, 0
2, 33559, Note_on_c, 0, 58, 0
2, 33564, Note_on_c, 0, 72, 0
2, 33580, Note_on_c, 0, 67, 47
2, 33598, Note_on_c, 0, 67, 0
2, 33624, Note_on_c, 0, 72, 83
2, 33652, Note_on_c, 0, 72, 0
2, 33664, Note_on_c, 0, 69, 79
2, 33679, Note_on_c, 0, 69, 0
2, 33697, Note_on_c, 0, 64, 75
2, 33714, Note_on_c, 0, 64, 0
2, 33736, Note_on_c, 0, 60, 45
2, 33753, Note_on_c, 0, 60, 0
2, 33768, Note_on_c, 0, 57, 33
2, 33787, Note_on_c, 0, 57, 0
2, 33806, Note_on_c, 0, 55, 55
2, 33821, Control_c, 0, 64, 127
2, 33829, Control_c, 0, 64, 0
2, 33839, Note_on_c, 0, 55, 0
2, 33850, Note_on_c, 0, 54, 32
2, 33939, Control_c, 0, 64, 127
2, 34022, Note_on_c, 0, 54, 0
2, 34074, Control_c, 0, 64, 0
2, 34076, Note_on_c, 0, 43, 51
2, 34078, Note_on_c, 0, 54, 35
2, 34085, Note_on_c, 0, 43, 0
2, 34093, Note_on_c, 0, 54, 0
2, 34119, Note_on_c, 0, 59, 40
2, 34127, Note_on_c, 0, 59, 0
2, 34157, Note_on_c, 0, 62, 66
2, 34177, Note_on_c, 0, 62, 0
2, 34194, Note_on_c, 0, 66, 62
2, 34214, Note_on_c, 0, 66, 0
2, 34234, Note_on_c, 0, 67, 74
2, 34235, Note_on_c, 0, 69, 71
2, 34236, Note_on_c, 0, 54, 40
2, 34236, Note_on_c, 0, 64, 50
2, 34238, Note_on_c, 0, 59, 54
2, 34253, Note_on_c, 0, 69, 0
2, 34257, Note_on_c, 0, 67, 0
2, 34276, Note_on_c, 0, 66, 50
2, 34300, Note_on_c, 0, 66, 0
2, 34314, Note_on_c, 0, 67, 71
2, 34336, Note_on_c, 0, 67, 0
2, 34344, Note_on_c, 0, 64, 0
2, 34352, Note_on_c, 0, 69, 81
2, 34377, Note_on_c, 0, 69, 0
2, 34391, Note_on_c, 0, 70, 76
2, 34394, Note_on_c, 0, 62, 60
2, 34397, Control_c, 0, 64, 127
2, 34416, Note_on_c, 0, 70, 0
2, 34433, Note_on_c, 0, 71, 50
2, 34455, Note_on_c, 0, 71, 0
2, 34462, Note_on_c, 0, 59, 0
2, 34467, Note_on_c, 0, 62, 0
2, 34469, Note_on_c, 0, 54, 0
2, 34473, Note_on_c, 0, 74, 53
2, 34495, Note_on_c, 0, 74, 0
2, 34516, Note_on_c, 0, 76, 56
2, 34542, Note_on_c, 0, 76, 0
2, 34564, Note_on_c, 0, 68, 44
2, 34569, Note_on_c, 0, 63, 34
2, 34571, Control_c, 0, 64, 0
2, 34571, Note_on_c, 0, 78, 23
2, 34571, Note_on_c, 0, 64, 39
2, 34577, Note_on_c, 0, 78, 0
2, 34610, Note_on_c, 0, 59, 1
2, 34636, Control_c, 0, 64, 127
2, 34664, Note_on_c, 0, 64, 0
2, 34665, Note_on_c, 0, 68, 0
2, 34669, Note_on_c, 0, 63, 0
2, 34671, Note_on_c, 0, 59, 0
2, 34679, Control_c, 0, 64, 0
2, 34685, Note_on_c, 0, 68, 50
2, 34687, Note_on_c, 0, 75, 77
2, 34690, Note_on_c, 0, 64, 39
2, 34690, Note_on_c, 0, 63, 34
2, 34690, Note_on_c, 0, 59, 39
2, 34690, Note_on_c, 0, 76, 85
2, 34698, Note_on_c, 0, 75, 0
2, 34723, Note_on_c, 0, 75, 48
2, 34724, Note_on_c, 0, 76, 0
2, 34741, Note_on_c, 0, 75, 0
2, 34755, Note_on_c, 0, 76, 69
2, 34772, Note_on_c, 0, 59, 0
2, 34780, Note_on_c, 0, 68, 0
2, 34782, Note_on_c, 0, 76, 0
2, 34784, Note_on_c, 0, 63, 0
2, 34784, Control_c, 0, 64, 127
2, 34784, Note_on_c, 0, 75, 42
2, 34786, Note_on_c, 0, 64, 0
2, 34806, Note_on_c, 0, 75, 0
2, 34809, Note_on_c, 0, 68, 52
2, 34811, Control_c, 0, 64, 0
2, 34811, Note_on_c, 0, 64, 36
2, 34812, Note_on_c, 0, 76, 43
2, 34813, Note_on_c, 0, 58, 42
2, 34814, Note_on_c, 0, 63, 25
2, 34842, Note_on_c, 0, 76, 0
2, 34851, Note_on_c, 0, 82, 74
2, 34874, Control_c, 0, 64, 127
2, 34889, Note_on_c, 0, 82, 0
2, 34900, Note_on_c, 0, 68, 0
2, 34901, Note_on_c, 0, 64, 0
2, 34901, Control_c, 0, 64, 0
2, 34903, Note_on_c, 0, 58, 0
2, 34905, Note_on_c, 0, 63, 0
2, 34924, Note_on_c, 0, 68, 47
2, 34925, Note_on_c, 0, 82, 76
2, 34927, Note_on_c, 0, 63, 30
2, 34928, Note_on_c, 0, 64, 36
2, 34928, Note_on_c, 0, 58, 36
2, 34946, Control_c, 0, 64, 127
2, 34968, Note_on_c, 0, 64, 0
2, 34976, Note_on_c, 0, 63, 0
2, 34981, Note_on_c, 0, 68, 0
2, 34999, Note_on_c, 0, 58, 0
2, 35000, Note_on_c, 0, 82, 0
2, 35005, Note_on_c, 0, 78, 71
2, 35037, Note_on_c, 0, 78, 0
2, 35047, Control_c, 0, 64, 0
2, 35048, Note_on_c, 0, 66, 38
2, 35050, Note_on_c, 0, 63, 35
2, 35050, Note_on_c, 0, 56, 36
2, 35051, Note_on_c, 0, 75, 58
2, 35052, Note_on_c, 0, 61, 34
2, 35109, Note_on_c, 0, 75, 0
2, 35128, Note_on_c, 0, 75, 53
2, 35162, Note_on_c, 0, 75, 0
2, 35180, Note_on_c, 0, 73, 30
2, 35195, Control_c, 0, 64, 127
2, 35217, Note_on_c, 0, 73, 0
2, 35230, Note_on_c, 0, 66, 0
2, 35239, Note_on_c, 0, 63, 0
2, 35239, Note_on_c, 0, 61, 0
2, 35240, Note_on_c, 0, 73, 33
2, 35247, Note_on_c, 0, 56, 0
2, 35270, Note_on_c, 0, 73, 0
2, 35280, Control_c, 0, 64, 0
2, 35286, Note_on_c, 0, 71, 38
2, 35338, Control_c, 0, 64, 127
2, 35355, Note_on_c, 0, 63, 42
2, 35360, Note_on_c, 0, 59, 47
2, 35362, Note_on_c, 0, 58, 34
2, 35363, Control_c, 0, 64, 0
2, 35364, Note_on_c, 0, 54, 26
2, 35401, Control_c, 0, 64, 127
2, 35425, Note_on_c, 0, 59, 0
2, 35429, Note_on_c, 0, 54, 0
2, 35430, Note_on_c, 0, 58, 0
2, 35436, Note_on_c, 0, 63, 0
2, 35511, Note_on_c, 0, 71, 0
2, 35517, Note_on_c, 0, 68, 35
2, 35520, Note_on_c, 0, 59, 34
2, 35521, Note_on_c, 0, 63, 35
2, 35522, Note_on_c, 0, 64, 42
2, 35524, Control_c, 0, 64, 0
2, 35571, Note_on_c, 0, 71, 59
2, 35601, Note_on_c, 0, 71, 0
2, 35604, Note_on_c, 0, 70, 58
2, 35619, Note_on_c, 0, 70, 0
2, 35643, Note_on_c, 0, 71, 80
2, 35674, Note_on_c, 0, 71, 0
2, 35679, Note_on_c, 0, 75, 80
2, 35712, Note_on_c, 0, 75, 0
2, 35722, Note_on_c, 0, 71, 69
2, 35757, Note_on_c, 0, 71, 0
2, 35770, Note_on_c, 0, 70, 45
2, 35818, Control_c, 0, 64, 127
2, 35822, Note_on_c, 0, 70, 0
2, 35842, Note_on_c, 0, 70, 40
2, 35848, Note_on_c, 0, 68, 0
2, 35878, Note_on_c, 0, 70, 0
2, 35901, Note_on_c, 0, 59, 0
2, 35949, Note_on_c, 0, 64, 0
2, 35952, Note_on_c, 0, 68, 51
2, 35975, Note_on_c, 0, 63, 0
2, 35978, Note_on_c, 0, 68, 0
2, 36004, Control_c, 0, 64, 0
2, 36012, Note_on_c, 0, 75, 82
2, 36012, Note_on_c, 0, 68, 75
2, 36013, Note_on_c, 0, 64, 84
2, 36013, Note_on_c, 0, 63, 80
2, 36014, Note_on_c, 0, 70, 67
2, 36038, Note_on_c, 0, 64, 0
2, 36040, Note_on_c, 0, 68, 0
2, 36041, Note_on_c, 0, 75, 0
2, 36042, Note_on_c, 0, 70, 0
2, 36043, Note_on_c, 0, 63, 0
2, 36054, Note_on_c, 0, 61, 46
2, 36091, Note_on_c, 0, 61, 0
2, 36093, Note_on_c, 0, 75, 74
2, 36093, Note_on_c, 0, 63, 69
2, 36094, Note_on_c, 0, 70, 64
2, 36094, Note_on_c, 0, 68, 62
2, 36095, Note_on_c, 0, 64, 71
2, 36116, Note_on_c, 0, 70, 0
2, 36118, Note_on_c, 0, 68, 0
2, 36120, Note_on_c, 0, 64, 0
2, 36126, Note_on_c, 0, 75, 0
2, 36129, Note_on_c, 0, 63, 0
2, 36145, Note_on_c, 0, 61, 46
2, 36146, Note_on_c, 0, 73, 34
2, 36147, Note_on_c, 0, 70, 44
2, 36148, Note_on_c, 0, 64, 40
2, 36150, Note_on_c, 0, 68, 35
2, 36157, Control_c, 0, 64, 127
2, 36170, Note_on_c, 0, 70, 0
2, 36172, Note_on_c, 0, 73, 0
2, 36173, Note_on_c, 0, 68, 0
2, 36180, Note_on_c, 0, 61, 0
2, 36181, Note_on_c, 0, 64, 0
2, 36215, Note_on_c, 0, 61, 34
2, 36216, Note_on_c, 0, 58, 30
2, 36227, Note_on_c, 0, 61, 0
2, 36238, Control_c, 0, 64, 0
2, 36254, Note_on_c, 0, 58, 0
2, 36258, Note_on_c, 0, 72, 77
2, 36258, Note_on_c, 0, 61, 80
2, 36259, Note_on_c, 0, 60, 78
2, 36259, Note_on_c, 0, 64, 75
2, 36263, Note_on_c, 0, 67, 51
2, 36265, Note_on_c, 0, 70, 33
2, 36273, Note_on_c, 0, 70, 0
2, 36313, Note_on_c, 0, 67, 0
2, 36314, Note_on_c, 0, 60, 0
2, 36316, Note_on_c, 0, 59, 51
2, 36317, Note_on_c, 0, 72, 0
2, 36329, Control_c, 0, 64, 127
2, 36332, Note_on_c, 0, 64, 0
2, 36333, Note_on_c, 0, 61, 0
2, 36335, Note_on_c, 0, 59, 0
2, 36337, Note_on_c, 0, 58, 47
2, 36361, Note_on_c, 0, 58, 0
2, 36367, Control_c, 0, 64, 0
2, 36369, Note_on_c, 0, 57, 50
2, 36371, Note_on_c, 0, 61, 52
2, 36373, Note_on_c, 0, 67, 48
2, 36377, Note_on_c, 0, 64, 49
2, 36427, Note_on_c, 0, 64, 0
2, 36447, Control_c, 0, 64, 127
2, 36458, Note_on_c, 0, 57, 0
2, 36471, Note_on_c, 0, 64, 66
2, 36481, Note_on_c, 0, 61, 0
2, 36494, Note_on_c, 0, 67, 0
2, 36497, Note_on_c, 0, 64, 0
2, 36528, Control_c, 0, 64, 0
2, 36532, Note_on_c, 0, 63, 51
2, 36534, Note_on_c, 0, 59, 49
2, 36535, Note_on_c, 0, 54, 28
2, 36586, Control_c, 0, 64, 127
2, 36593, Note_on_c, 0, 44, 38
2, 36598, Note_on_c, 0, 54, 0
2, 36600, Note_on_c, 0, 44, 0
2, 36616, Note_on_c, 0, 59, 0
2, 36640, Note_on_c, 0, 63, 0
2, 36670, Note_on_c, 0, 63, 37
2, 36673, Note_on_c, 0, 59, 46
2, 36675, Note_on_c, 0, 58, 37
2, 36675, Note_on_c, 0, 54, 25
2, 36676, Control_c, 0, 64, 0
2, 36724, Control_c, 0, 64, 127
2, 36797, Note_on_c, 0, 82, 87
2, 36804, Control_c, 0, 64, 0
2, 36828, Note_on_c, 0, 82, 0
2, 36830, Note_on_c, 0, 80, 57
2, 36844, Note_on_c, 0, 80, 0
2, 36862, Note_on_c, 0, 82, 88
2, 36882, Control_c, 0, 64, 127
2, 36891, Note_on_c, 0, 82, 0
2, 36902, Note_on_c, 0, 58, 0
2, 36902, Note_on_c, 0, 59, 0
2, 36902, Note_on_c, 0, 80, 68
2, 36903, Note_on_c, 0, 82, 50
2, 36903, Control_c, 0, 64, 0
2, 36914, Note_on_c, 0, 63, 0
2, 36919, Control_c, 0, 64, 127
2, 36924, Note_on_c, 0, 80, 0
2, 36926, Note_on_c, 0, 54, 0
2, 36927, Note_on_c, 0, 82, 0
2, 36935, Note_on_c, 0, 75, 59
2, 36957, Control_c, 0, 64, 0
2, 36960, Note_on_c, 0, 75, 0
2, 36970, Note_on_c, 0, 63, 31
2, 36972, Note_on_c, 0, 71, 34
2, 36974, Note_on_c, 0, 60, 39
2, 36979, Note_on_c, 0, 53, 34
2, 36980, Note_on_c, 0, 56, 20
2, 36983, Note_on_c, 0, 71, 0
2, 37021, Note_on_c, 0, 78, 69
2, 37024, Note_on_c, 0, 80, 26
2, 37030, Note_on_c, 0, 80, 0
2, 37052, Note_on_c, 0, 78, 0
2, 37105, Control_c, 0, 64, 127
2, 37142, Note_on_c, 0, 80, 79
2, 37162, Note_on_c, 0, 53, 0
2, 37165, Note_on_c, 0, 60, 0
2, 37175, Note_on_c, 0, 63, 0
2, 37176, Control_c, 0, 64, 0
2, 37177, Note_on_c, 0, 56, 0
2, 37178, Note_on_c, 0, 75, 74
2, 37190, Note_on_c, 0, 80, 0
2, 37198, Control_c, 0, 64, 127
2, 37200, Note_on_c, 0, 75, 0
2, 37203, Control_c, 0, 64, 0
2, 37210, Note_on_c, 0, 71, 34
2, 37225, Note_on_c, 0, 71, 0
2, 37312, Note_on_c, 0, 62, 59
2, 37312, Note_on_c, 0, 66, 62
2, 37312, Note_on_c, 0, 82, 86
2, 37315, Note_on_c, 0, 56, 49
2, 37335, Note_on_c, 0, 82, 0
2, 37348, Note_on_c, 0, 78, 69
2, 37364, Note_on_c, 0, 66, 0
2, 37369, Note_on_c, 0, 78, 0
2, 37395, Note_on_c, 0, 56, 0
2, 37410, Control_c, 0, 64, 127
2, 37425, Note_on_c, 0, 62, 0
2, 37441, Control_c, 0, 64, 0
2, 37519, Note_on_c, 0, 78, 82
2, 37524, Note_on_c, 0, 70, 73
2, 37525, Note_on_c, 0, 67, 46
2, 37526, Note_on_c, 0, 65, 49
2, 37535, Note_on_c, 0, 67, 0
2, 37536, Note_on_c, 0, 70, 0
2, 37543, Note_on_c, 0, 78, 0
2, 37543, Note_on_c, 0, 65, 0
2, 37553, Note_on_c, 0, 63, 52
2, 37554, Note_on_c, 0, 75, 47
2, 37577, Note_on_c, 0, 75, 0
2, 37589, Note_on_c, 0, 63, 0
2, 37591, Note_on_c, 0, 70, 73
2, 37592, Note_on_c, 0, 77, 71
2, 37594, Note_on_c, 0, 66, 56
2, 37595, Note_on_c, 0, 65, 63
2, 37629, Control_c, 0, 64, 127
2, 37637, Note_on_c, 0, 66, 0
2, 37638, Note_on_c, 0, 77, 0
2, 37640, Note_on_c, 0, 70, 0
2, 37650, Note_on_c, 0, 65, 0
2, 37651, Note_on_c, 0, 75, 69
2, 37655, Note_on_c, 0, 66, 47
2, 37655, Note_on_c, 0, 63, 50
2, 37677, Note_on_c, 0, 66, 0
2, 37689, Note_on_c, 0, 63, 0
2, 37698, Note_on_c, 0, 75, 0
2, 37708, Note_on_c, 0, 70, 67
2, 37709, Note_on_c, 0, 66, 31
2, 37712, Control_c, 0, 64, 0
2, 37725, Control_c, 0, 64, 127
2, 37802, Control_c, 0, 64, 0
2, 37808, Note_on_c, 0, 51, 50
2, 37820, Control_c, 0, 64, 127
2, 37842, Note_on_c, 0, 51, 0
2, 37861, Note_on_c, 0, 66, 0
2, 37865, Note_on_c, 0, 70, 0
2, 37926, Note_on_c, 0, 58, 44
2, 37927, Note_on_c, 0, 66, 43
2, 37927, Control_c, 0, 64, 0
2, 37928, Note_on_c, 0, 63, 37
2, 37930, Note_on_c, 0, 59, 39
2, 38035, Control_c, 0, 64, 127
2, 38056, Note_on_c, 0, 59, 0
2, 38085, Note_on_c, 0, 59, 58
2, 38087, Note_on_c, 0, 63, 0
2, 38104, Note_on_c, 0, 66, 0
2, 38107, Note_on_c, 0, 59, 0
2, 38114, Note_on_c, 0, 58, 0
2, 38120, Note_on_c, 0, 63, 60
2, 38152, Note_on_c, 0, 63, 0
2, 38173, Note_on_c, 0, 61, 49
2, 38173, Note_on_c, 0, 65, 72
2, 38174, Control_c, 0, 64, 0
2, 38175, Note_on_c, 0, 68, 62
2, 38234, Control_c, 0, 64, 127
2, 38240, Note_on_c, 0, 68, 0
2, 38241, Control_c, 0, 64, 0
2, 38247, Note_on_c, 0, 65, 0
2, 38248, Note_on_c, 0, 61, 0
2, 38255, Note_on_c, 0, 68, 60
2, 38256, Note_on_c, 0, 65, 64
2, 38256, Note_on_c, 0, 61, 23
2, 38279, Control_c, 0, 64, 127
2, 38301, Note_on_c, 0, 65, 0
2, 38308, Note_on_c, 0, 61, 0
2, 38321, Note_on_c, 0, 68, 0
2, 38331, Note_on_c, 0, 61, 47
2, 38332, Note_on_c, 0, 66, 54
2, 38358, Note_on_c, 0, 61, 0
2, 38363, Note_on_c, 0, 66, 0
2, 38396, Control_c, 0, 64, 0
2, 38404, Note_on_c, 0, 59, 44
2, 38405, Note_on_c, 0, 62, 39
2, 38406, Note_on_c, 0, 67, 53
2, 38409, Note_on_c, 0, 64, 47
2, 38438, Control_c, 0, 64, 127
2, 38475, Note_on_c, 0, 59, 0
2, 38500, Note_on_c, 0, 62, 0
2, 38512, Note_on_c, 0, 64, 0
2, 38538, Note_on_c, 0, 67, 0
2, 38655, Note_on_c, 0, 67, 50
2, 38660, Control_c, 0, 64, 0
2, 38672, Note_on_c, 0, 67, 0
2, 38688, Note_on_c, 0, 69, 60
2, 38709, Note_on_c, 0, 69, 0
2, 38716, Note_on_c, 0, 70, 73
2, 38735, Note_on_c, 0, 70, 0
2, 38746, Note_on_c, 0, 72, 75
2, 38770, Note_on_c, 0, 72, 0
2, 38808, Note_on_c, 0, 76, 54
2, 38820, Note_on_c, 0, 61, 42
2, 38821, Note_on_c, 0, 66, 45
2, 38826, Note_on_c, 0, 55, 35
2, 38832, Note_on_c, 0, 76, 0
2, 38840, Note_on_c, 0, 81, 57
2, 38855, Note_on_c, 0, 55, 0
2, 38856, Control_c, 0, 64, 127
2, 38859, Note_on_c, 0, 81, 0
2, 38867, Note_on_c, 0, 85, 75
2, 38874, Note_on_c, 0, 66, 0
2, 38885, Note_on_c, 0, 85, 0
2, 38894, Control_c, 0, 64, 0
2, 38896, Note_on_c, 0, 64, 66
2, 38897, Note_on_c, 0, 88, 89
2, 38899, Note_on_c, 0, 59, 43
2, 38902, Note_on_c, 0, 54, 29
2, 38932, Note_on_c, 0, 88, 0
2, 38954, Note_on_c, 0, 85, 84
2, 38975, Note_on_c, 0, 85, 0
2, 38999, Note_on_c, 0, 59, 0
2, 39002, Note_on_c, 0, 81, 68
2, 39023, Note_on_c, 0, 81, 0
2, 39037, Note_on_c, 0, 78, 34
2, 39046, Note_on_c, 0, 64, 0
2, 39048, Note_on_c, 0, 78, 0
2, 39048, Control_c, 0, 64, 127
2, 39063, Note_on_c, 0, 61, 0
2, 39075, Control_c, 0, 64, 0
2, 39075, Note_on_c, 0, 76, 36
2, 39087, Note_on_c, 0, 54, 0
2, 39090, Note_on_c, 0, 76, 0
2, 39268, Note_on_c, 0, 76, 71
2, 39275, Note_on_c, 0, 64, 49
2, 39275, Note_on_c, 0, 61, 29
2, 39280, Note_on_c, 0, 59, 30
2, 39284, Note_on_c, 0, 64, 0
2, 39284, Note_on_c, 0, 76, 0
2, 39298, Note_on_c, 0, 61, 0
2, 39302, Note_on_c, 0, 78, 74
2, 39315, Note_on_c, 0, 59, 0
2, 39319, Note_on_c, 0, 78, 0
2, 39331, Note_on_c, 0, 79, 80
2, 39352, Note_on_c, 0, 79, 0
2, 39354, Control_c, 0, 64, 127
2, 39365, Note_on_c, 0, 81, 91
2, 39385, Note_on_c, 0, 81, 0
2, 39389, Control_c, 0, 64, 0
2, 39392, Note_on_c, 0, 66, 39
2, 39393, Note_on_c, 0, 62, 37
2, 39393, Note_on_c, 0, 59, 44
2, 39398, Note_on_c, 0, 55, 20
2, 39400, Note_on_c, 0, 78, 59
2, 39426, Note_on_c, 0, 78, 0
2, 39444, Note_on_c, 0, 74, 53
2, 39462, Note_on_c, 0, 74, 0
2, 39485, Note_on_c, 0, 74, 58
2, 39500, Note_on_c, 0, 74, 0
2, 39527, Note_on_c, 0, 74, 64
2, 39557, Note_on_c, 0, 74, 0
2, 39557, Control_c, 0, 64, 127
2, 39567, Note_on_c, 0, 71, 42
2, 39577, Note_on_c, 0, 71, 0
2, 39591, Control_c, 0, 64, 0
2, 39600, Note_on_c, 0, 74, 61
2, 39621, Note_on_c, 0, 74, 0
2, 39632, Note_on_c, 0, 62, 0
2, 39639, Note_on_c, 0, 55, 0
2, 39640, Note_on_c, 0, 59, 0
2, 39651, Note_on_c, 0, 66, 0
2, 39751, Note_on_c, 0, 61, 50
2, 39751, Note_on_c, 0, 66, 52
2, 39761, Note_on_c, 0, 55, 24
2, 39777, Note_on_c, 0, 55, 0
2, 39782, Note_on_c, 0, 66, 0
2, 39784, Note_on_c, 0, 61, 0
2, 39833, Note_on_c, 0, 61, 36
2, 39838, Note_on_c, 0, 64, 46
2, 39839, Note_on_c, 0, 54, 38
2, 39844, Note_on_c, 0, 59, 20
2, 39940, Note_on_c, 0, 73, 48
2, 39954, Control_c, 0, 64, 127
2, 39970, Note_on_c, 0, 74, 80
2, 39977, Note_on_c, 0, 73, 0
2, 39986, Control_c, 0, 64, 0
2, 39992, Note_on_c, 0, 74, 0
2, 40002, Note_on_c, 0, 76, 84
2, 40055, Note_on_c, 0, 76, 0
2, 40069, Note_on_c, 0, 73, 62
2, 40076, Note_on_c, 0, 75, 30
2, 40078, Control_c, 0, 64, 127
2, 40100, Note_on_c, 0, 75, 0
2, 40107, Note_on_c, 0, 73, 0
2, 40111, Control_c, 0, 64, 0
2, 40113, Note_on_c, 0, 69, 65
2, 40136, Control_c, 0, 64, 127
2, 40241, Note_on_c, 0, 64, 0
2, 40242, Note_on_c, 0, 59, 0
2, 40254, Note_on_c, 0, 61, 0
2, 40257, Note_on_c, 0, 54, 0
2, 40267, Note_on_c, 0, 69, 0
2, 40275, Note_on_c, 0, 66, 56
2, 40319, Note_on_c, 0, 66, 0
2, 40330, Note_on_c, 0, 65, 53
2, 40331, Control_c, 0, 64, 0
2, 40331, Note_on_c, 0, 57, 39
2, 40332, Note_on_c, 0, 55, 22
2, 40333, Note_on_c, 0, 60, 36
2, 40393, Note_on_c, 0, 76, 72
2, 40400, Note_on_c, 0, 65, 0
2, 40420, Control_c, 0, 64, 127
2, 40442, Note_on_c, 0, 76, 0
2, 40446, Note_on_c, 0, 69, 47
2, 40485, Note_on_c, 0, 69, 0
2, 40489, Note_on_c, 0, 72, 74
2, 40511, Note_on_c, 0, 72, 0
2, 40516, Note_on_c, 0, 60, 0
2, 40519, Note_on_c, 0, 76, 78
2, 40524, Note_on_c, 0, 57, 0
2, 40527, Note_on_c, 0, 55, 0
2, 40541, Note_on_c, 0, 76, 0
2, 40550, Note_on_c, 0, 79, 77
2, 40562, Note_on_c, 0, 78, 35
2, 40566, Note_on_c, 0, 79, 0
2, 40569, Note_on_c, 0, 78, 0
2, 40580, Control_c, 0, 64, 0
2, 40581, Note_on_c, 0, 59, 53
2, 40583, Note_on_c, 0, 68, 65
2, 40584, Note_on_c, 0, 64, 60
2, 40585, Note_on_c, 0, 53, 55
2, 40586, Note_on_c, 0, 80, 72
2, 40613, Control_c, 0, 64, 127
2, 40617, Note_on_c, 0, 80, 0
2, 40620, Note_on_c, 0, 68, 0
2, 40636, Note_on_c, 0, 82, 77
2, 40636, Note_on_c, 0, 70, 65
2, 40641, Control_c, 0, 64, 0
2, 40667, Note_on_c, 0, 82, 0
2, 40671, Note_on_c, 0, 70, 0
2, 40673, Note_on_c, 0, 64, 0
2, 40685, Note_on_c, 0, 80, 60
2, 40686, Note_on_c, 0, 68, 50
2, 40686, Note_on_c, 0, 64, 50
2, 40694, Control_c, 0, 64, 127
2, 40711, Note_on_c, 0, 68, 0
2, 40712, Note_on_c, 0, 80, 0
2, 40720, Note_on_c, 0, 64, 0
2, 40730, Note_on_c, 0, 82, 77
2, 40731, Note_on_c, 0, 70, 67
2, 40733, Note_on_c, 0, 64, 29
2, 40748, Note_on_c, 0, 64, 0
2, 40750, Note_on_c, 0, 82, 0
2, 40752, Note_on_c, 0, 70, 0
2, 40770, Note_on_c, 0, 80, 53
2, 40770, Note_on_c, 0, 64, 31
2, 40772, Note_on_c, 0, 68, 51
2, 40780, Note_on_c, 0, 59, 0
2, 40782, Note_on_c, 0, 53, 0
2, 40786, Note_on_c, 0, 80, 0
2, 40788, Note_on_c, 0, 68, 0
2, 40800, Note_on_c, 0, 64, 0
2, 40808, Note_on_c, 0, 82, 64
2, 40811, Note_on_c, 0, 70, 53
2, 40812, Note_on_c, 0, 80, 40
2, 40819, Note_on_c, 0, 80, 0
2, 40820, Note_on_c, 0, 70, 0
2, 40828, Note_on_c, 0, 82, 0
2, 40840, Note_on_c, 0, 82, 37
2, 40841, Note_on_c, 0, 67, 53
2, 40841, Note_on_c, 0, 62, 27
2, 40842, Control_c, 0, 64, 0
2, 40842, Note_on_c, 0, 70, 69
2, 40845, Note_on_c, 0, 64, 38
2, 40855, Note_on_c, 0, 83, 44
2, 40859, Note_on_c, 0, 70, 0
2, 40866, Note_on_c, 0, 71, 24
2, 40875, Note_on_c, 0, 83, 0
2, 40876, Note_on_c, 0, 67, 0
2, 40878, Note_on_c, 0, 82, 0
2, 40878, Control_c, 0, 64, 127
2, 40883, Note_on_c, 0, 71, 0
2, 40889, Control_c, 0, 64, 0
2, 40906, Note_on_c, 0, 79, 36
2, 40907, Note_on_c, 0, 81, 36
2, 40907, Note_on_c, 0, 67, 50
2, 40908, Note_on_c, 0, 55, 44
2, 40914, Note_on_c, 0, 81, 0
2, 40923, Control_c, 0, 64, 127
2, 40937, Note_on_c, 0, 67, 0
2, 40944, Note_on_c, 0, 64, 0
2, 40960, Note_on_c, 0, 76, 45
2, 40986, Note_on_c, 0, 62, 0
2, 40988, Note_on_c, 0, 79, 0
2, 41005, Note_on_c, 0, 71, 33
2, 41012, Note_on_c, 0, 64, 38
2, 41013, Note_on_c, 0, 62, 31
2, 41015, Note_on_c, 0, 67, 20
2, 41024, Note_on_c, 0, 67, 0
2, 41032, Note_on_c, 0, 71, 0
2, 41037, Note_on_c, 0, 64, 0
2, 41046, Note_on_c, 0, 62, 0
2, 41057, Note_on_c, 0, 67, 47
2, 41061, Note_on_c, 0, 64, 40
2, 41069, Note_on_c, 0, 62, 29
2, 41124, Note_on_c, 0, 55, 0
2, 41150, Note_on_c, 0, 76, 0
2, 41157, Note_on_c, 0, 55, 43
2, 41208, Note_on_c, 0, 67, 0
2, 41210, Note_on_c, 0, 62, 0
2, 41212, Note_on_c, 0, 64, 0
2, 41348, Note_on_c, 0, 65, 56
2, 41351, Note_on_c, 0, 60, 50
2, 41354, Note_on_c, 0, 57, 37
2, 41409, Note_on_c, 0, 81, 94
2, 41411, Note_on_c, 0, 72, 96
2, 41442, Note_on_c, 0, 55, 0
2, 41456, Note_on_c, 0, 57, 0
2, 41462, Note_on_c, 0, 81, 0
2, 41468, Note_on_c, 0, 55, 38
2, 41469, Note_on_c, 0, 77, 67
2, 41491, Note_on_c, 0, 60, 0
2, 41492, Note_on_c, 0, 65, 0
2, 41503, Note_on_c, 0, 72, 0
2, 41528, Note_on_c, 0, 55, 0
2, 41533, Note_on_c, 0, 77, 0
2, 41591, Note_on_c, 0, 59, 40
2, 41592, Note_on_c, 0, 64, 46
2, 41597, Note_on_c, 0, 53, 35
2, 41600, Control_c, 0, 64, 0
2, 41629, Control_c, 0, 64, 127
2, 41662, Note_on_c, 0, 53, 0
2, 41663, Note_on_c, 0, 59, 0
2, 41677, Note_on_c, 0, 64, 0
2, 41693, Note_on_c, 0, 80, 74
2, 41724, Note_on_c, 0, 80, 0
2, 41727, Note_on_c, 0, 76, 53
2, 41751, Note_on_c, 0, 76, 0
2, 41762, Control_c, 0, 64, 0
2, 41763, Note_on_c, 0, 79, 59
2, 41764, Note_on_c, 0, 67, 39
2, 41767, Note_on_c, 0, 64, 35
2, 41769, Note_on_c, 0, 62, 30
2, 41790, Note_on_c, 0, 79, 0
2, 41793, Note_on_c, 0, 67, 0
2, 41809, Note_on_c, 0, 77, 58
2, 41838, Note_on_c, 0, 77, 0
2, 41842, Note_on_c, 0, 67, 62
2, 41851, Note_on_c, 0, 55, 36
2, 41874, Control_c, 0, 64, 127
2, 41894, Note_on_c, 0, 64, 0
2, 41899, Note_on_c, 0, 62, 0
2, 41913, Note_on_c, 0, 55, 0
2, 42006, Note_on_c, 0, 57, 32
2, 42008, Note_on_c, 0, 62, 34
2, 42008, Control_c, 0, 64, 0
2, 42009, Note_on_c, 0, 58, 33
2, 42051, Control_c, 0, 64, 127
2, 42094, Note_on_c, 0, 69, 34
2, 42108, Note_on_c, 0, 67, 0
2, 42119, Note_on_c, 0, 69, 0
2, 42125, Note_on_c, 0, 70, 67
2, 42128, Note_on_c, 0, 57, 0
2, 42134, Note_on_c, 0, 62, 0
2, 42135, Note_on_c, 0, 58, 0
2, 42150, Note_on_c, 0, 70, 0
2, 42161, Note_on_c, 0, 71, 75
2, 42172, Control_c, 0, 64, 0
2, 42183, Note_on_c, 0, 71, 0
2, 42192, Note_on_c, 0, 72, 67
2, 42213, Note_on_c, 0, 72, 0
2, 42221, Note_on_c, 0, 74, 66
2, 42241, Note_on_c, 0, 74, 0
2, 42253, Note_on_c, 0, 75, 63
2, 42255, Note_on_c, 0, 62, 34
2, 42258, Note_on_c, 0, 63, 23
2, 42261, Note_on_c, 0, 57, 34
2, 42261, Note_on_c, 0, 67, 24
2, 42277, Note_on_c, 0, 75, 0
2, 42299, Note_on_c, 0, 76, 16
2, 42320, Note_on_c, 0, 76, 0
2, 42375, Note_on_c, 0, 67, 0
2, 42403, Note_on_c, 0, 63, 0
2, 42414, Note_on_c, 0, 62, 0
2, 42414, Note_on_c, 0, 79, 62
2, 42427, Note_on_c, 0, 79, 0
2, 42442, Note_on_c, 0, 83, 83
2, 42460, Note_on_c, 0, 83, 0
2, 42472, Note_on_c, 0, 86, 90
2, 42492, Note_on_c, 0, 86, 0
2, 42504, Note_on_c, 0, 62, 32
2, 42505, Note_on_c, 0, 83, 73
2, 42505, Note_on_c, 0, 63, 38
2, 42506, Note_on_c, 0, 67, 38
2, 42522, Note_on_c, 0, 83, 0
2, 42551, Note_on_c, 0, 67, 0
2, 42564, Note_on_c, 0, 63, 0
2, 42573, Note_on_c, 0, 62, 0
2, 42593, Control_c, 0, 64, 127
2, 42649, Note_on_c, 0, 57, 0
2, 42660, Control_c, 0, 64, 0
2, 42695, Note_on_c, 0, 79, 38
2, 42703, Note_on_c, 0, 79, 0
2, 42717, Note_on_c, 0, 83, 81
2, 42721, Control_c, 0, 64, 127
2, 42742, Note_on_c, 0, 83, 0
2, 42743, Control_c, 0, 64, 0
2, 42745, Note_on_c, 0, 81, 61
2, 42747, Note_on_c, 0, 59, 29
2, 42747, Note_on_c, 0, 62, 34
2, 42750, Note_on_c, 0, 55, 40
2, 42751, Note_on_c, 0, 52, 36
2, 42762, Note_on_c, 0, 81, 0
2, 42905, Note_on_c, 0, 78, 69
2, 42921, Note_on_c, 0, 78, 0
2, 42932, Note_on_c, 0, 79, 74
2, 42949, Note_on_c, 0, 79, 0
2, 42949, Note_on_c, 0, 55, 0
2, 42950, Note_on_c, 0, 52, 0
2, 42953, Note_on_c, 0, 62, 0
2, 42954, Note_on_c, 0, 59, 0
2, 42961, Note_on_c, 0, 78, 65
2, 42981, Note_on_c, 0, 78, 0
2, 42988, Note_on_c, 0, 75, 49
2, 42993, Note_on_c, 0, 76, 61
2, 42998, Note_on_c, 0, 75, 0
2, 43011, Note_on_c, 0, 76, 0
2, 43026, Note_on_c, 0, 74, 61
2, 43052, Note_on_c, 0, 74, 0
2, 43061, Note_on_c, 0, 72, 63
2, 43073, Note_on_c, 0, 67, 36
2, 43077, Note_on_c, 0, 72, 0
2, 43078, Note_on_c, 0, 62, 30
2, 43078, Note_on_c, 0, 56, 26
2, 43094, Note_on_c, 0, 67, 0
2, 43128, Note_on_c, 0, 62, 0
2, 43151, Note_on_c, 0, 72, 78
2, 43152, Note_on_c, 0, 62, 24
2, 43162, Note_on_c, 0, 62, 0
2, 43174, Note_on_c, 0, 72, 0
2, 43178, Note_on_c, 0, 56, 0
2, 43234, Control_c, 0, 64, 127
2, 43257, Control_c, 0, 64, 0
2, 43270, Note_on_c, 0, 58, 67
2, 43270, Note_on_c, 0, 69, 68
2, 43272, Note_on_c, 0, 62, 58
2, 43277, Note_on_c, 0, 64, 36
2, 43278, Note_on_c, 0, 57, 46
2, 43279, Note_on_c, 0, 62, 0
2, 43283, Note_on_c, 0, 58, 0
2, 43286, Note_on_c, 0, 69, 0
2, 43286, Note_on_c, 0, 64, 0
2, 43288, Note_on_c, 0, 57, 0
2, 43331, Note_on_c, 0, 56, 40
2, 43336, Note_on_c, 0, 58, 26
2, 43338, Note_on_c, 0, 66, 25
2, 43345, Note_on_c, 0, 58, 0
2, 43348, Note_on_c, 0, 66, 0
2, 43361, Note_on_c, 0, 56, 0
2, 43421, Control_c, 0, 64, 127
2, 43439, Control_c, 0, 64, 0
2, 43451, Note_on_c, 0, 64, 59
2, 43453, Note_on_c, 0, 55, 43
2, 43453, Note_on_c, 0, 61, 45
2, 43454, Note_on_c, 0, 58, 34
2, 43513, Note_on_c, 0, 67, 66
2, 43535, Note_on_c, 0, 64, 0
2, 43535, Control_c, 0, 64, 127
2, 43544, Note_on_c, 0, 52, 1
2, 43552, Note_on_c, 0, 67, 0
2, 43557, Note_on_c, 0, 58, 0
2, 43565, Note_on_c, 0, 61, 0
2, 43571, Note_on_c, 0, 65, 70
2, 43584, Control_c, 0, 64, 0
2, 43588, Note_on_c, 0, 52, 0
2, 43600, Note_on_c, 0, 65, 0
2, 43605, Note_on_c, 0, 61, 45
2, 43628, Note_on_c, 0, 61, 0
2, 43638, Note_on_c, 0, 64, 76
2, 43640, Note_on_c, 0, 55, 0
2, 43667, Note_on_c, 0, 61, 59
2, 43669, Note_on_c, 0, 64, 0
2, 43688, Note_on_c, 0, 61, 0
2, 43695, Note_on_c, 0, 50, 32
2, 43701, Note_on_c, 0, 62, 57
2, 43727, Note_on_c, 0, 62, 0
2, 43737, Note_on_c, 0, 57, 43
2, 43748, Note_on_c, 0, 57, 0
2, 43768, Note_on_c, 0, 60, 39
2, 43786, Note_on_c, 0, 60, 0
2, 43797, Note_on_c, 0, 62, 61
2, 43817, Note_on_c, 0, 62, 0
2, 43831, Note_on_c, 0, 63, 46
2, 43832, Note_on_c, 0, 57, 9
2, 43837, Note_on_c, 0, 63, 0
2, 43854, Note_on_c, 0, 65, 74
2, 43872, Note_on_c, 0, 65, 0
2, 43879, Note_on_c, 0, 70, 62
2, 43886, Note_on_c, 0, 50, 0
2, 43891, Note_on_c, 0, 57, 0
2, 43892, Note_on_c, 0, 70, 0
2, 43894, Control_c, 0, 64, 127
2, 43910, Note_on_c, 0, 74, 58
2, 43914, Control_c, 0, 64, 0
2, 43927, Note_on_c, 0, 74, 0
2, 43933, Note_on_c, 0, 77, 57
2, 43948, Note_on_c, 0, 77, 0
2, 43967, Note_on_c, 0, 81, 40
2, 43974, Note_on_c, 0, 81, 0
2, 43979, Note_on_c, 0, 86, 74
2, 44005, Note_on_c, 0, 82, 67
2, 44011, Note_on_c, 0, 86, 0
2, 44020, Note_on_c, 0, 82, 0
2, 44072, Note_on_c, 0, 65, 43
2, 44075, Note_on_c, 0, 54, 25
2, 44075, Note_on_c, 0, 60, 46
2, 44078, Note_on_c, 0, 58, 35
2, 44090, Note_on_c, 0, 65, 0
2, 44093, Note_on_c, 0, 60, 0
2, 44096, Note_on_c, 0, 58, 0
2, 44100, Note_on_c, 0, 54, 0
2, 44128, Note_on_c, 0, 54, 36
2, 44129, Note_on_c, 0, 65, 49
2, 44131, Control_c, 0, 64, 127
2, 44131, Note_on_c, 0, 60, 46
2, 44133, Note_on_c, 0, 58, 34
2, 44156, Note_on_c, 0, 60, 0
2, 44158, Note_on_c, 0, 65, 0
2, 44173, Note_on_c, 0, 58, 0
2, 44179, Note_on_c, 0, 54, 0
2, 44194, Note_on_c, 0, 63, 61
2, 44196, Control_c, 0, 64, 0
2, 44196, Note_on_c, 0, 59, 57
2, 44199, Note_on_c, 0, 53, 51
2, 44264, Control_c, 0, 64, 127
2, 44346, Note_on_c, 0, 53, 0
2, 44387, Note_on_c, 0, 63, 0
2, 44421, Note_on_c, 0, 75, 90
2, 44423, Note_on_c, 0, 63, 57
2, 44425, Control_c, 0, 64, 0
2, 44430, Note_on_c, 0, 53, 30
2, 44462, Note_on_c, 0, 75, 0
2, 44473, Note_on_c, 0, 71, 48
2, 44510, Note_on_c, 0, 71, 0
2, 44531, Note_on_c, 0, 74, 73
2, 44544, Note_on_c, 0, 53, 0
2, 44553, Note_on_c, 0, 59, 0
2, 44555, Note_on_c, 0, 74, 0
2, 44556, Note_on_c, 0, 63, 0
2, 44570, Note_on_c, 0, 77, 82
2, 44591, Note_on_c, 0, 77, 0
2, 44613, Note_on_c, 0, 75, 80
2, 44640, Note_on_c, 0, 75, 0
2, 44647, Note_on_c, 0, 67, 35
2, 44648, Note_on_c, 0, 71, 54
2, 44648, Note_on_c, 0, 63, 32
2, 44650, Note_on_c, 0, 62, 34
2, 44657, Note_on_c, 0, 60, 24
2, 44672, Note_on_c, 0, 71, 0
2, 44685, Note_on_c, 0, 74, 70
2, 44704, Note_on_c, 0, 74, 0
2, 44705, Note_on_c, 0, 67, 0
2, 44719, Note_on_c, 0, 72, 69
2, 44742, Note_on_c, 0, 72, 0
2, 44758, Note_on_c, 0, 67, 48
2, 44768, Control_c, 0, 64, 127
2, 44774, Note_on_c, 0, 67, 0
2, 44795, Note_on_c, 0, 67, 34
2, 44809, Note_on_c, 0, 62, 0
2, 44814, Note_on_c, 0, 63, 0
2, 44835, Note_on_c, 0, 60, 0
2, 44836, Note_on_c, 0, 67, 0
2, 44851, Note_on_c, 0, 65, 61
2, 44898, Note_on_c, 0, 65, 0
2, 44908, Note_on_c, 0, 63, 40
2, 44910, Note_on_c, 0, 55, 29
2, 44910, Note_on_c, 0, 61, 29
2, 44912, Control_c, 0, 64, 0
2, 44957, Control_c, 0, 64, 127
2, 45036, Note_on_c, 0, 55, 0
2, 45039, Note_on_c, 0, 63, 0
2, 45045, Note_on_c, 0, 61, 0
2, 45305, Note_on_c, 0, 63, 57
2, 45306, Note_on_c, 0, 60, 60
2, 45309, Note_on_c, 0, 58, 43
2, 45333, Note_on_c, 0, 60, 0
2, 45355, Note_on_c, 0, 58, 0
2, 45356, Note_on_c, 0, 63, 0
2, 45379, Note_on_c, 0, 65, 84
2, 45380, Note_on_c, 0, 51, 45
2, 45380, Note_on_c, 0, 73, 44
2, 45380, Control_c, 0, 64, 0
2, 45381, Note_on_c, 0, 63, 64
2, 45382, Note_on_c, 0, 58, 54
2, 45382, Note_on_c, 0, 76, 63
2, 45383, Note_on_c, 0, 75, 36
2, 45390, Note_on_c, 0, 51, 0
2, 45398, Note_on_c, 0, 73, 0
2, 45403, Note_on_c, 0, 76, 0
2, 45420, Note_on_c, 0, 52, 24
2, 45422, Note_on_c, 0, 75, 0
2, 45441, Note_on_c, 0, 65, 0
2, 45443, Note_on_c, 0, 73, 63
2, 45451, Note_on_c, 0, 65, 28
2, 45460, Control_c, 0, 64, 127
2, 45485, Note_on_c, 0, 65, 0
2, 45489, Note_on_c, 0, 73, 0
2, 45501, Note_on_c, 0, 72, 62
2, 45547, Note_on_c, 0, 52, 0
2, 45552, Note_on_c, 0, 72, 0
2, 45557, Note_on_c, 0, 67, 54
2, 45560, Note_on_c, 0, 58, 0
2, 45579, Note_on_c, 0, 63, 0
2, 45594, Note_on_c, 0, 67, 0
2, 45613, Note_on_c, 0, 67, 45
2, 45615, Note_on_c, 0, 70, 54
2, 45616, Note_on_c, 0, 63, 26
2, 45619, Control_c, 0, 64, 0
2, 45619, Note_on_c, 0, 60, 36
2, 45620, Note_on_c, 0, 53, 24
2, 45625, Note_on_c, 0, 56, 23
2, 45662, Note_on_c, 0, 67, 0
2, 45675, Note_on_c, 0, 65, 57
2, 45676, Note_on_c, 0, 68, 55
2, 45689, Control_c, 0, 64, 127
2, 45704, Note_on_c, 0, 65, 0
2, 45723, Note_on_c, 0, 68, 0
2, 45731, Note_on_c, 0, 70, 0
2, 45733, Note_on_c, 0, 67, 31
2, 45733, Note_on_c, 0, 64, 48
2, 45738, Note_on_c, 0, 63, 0
2, 45752, Control_c, 0, 64, 0
2, 45753, Note_on_c, 0, 64, 0
2, 45768, Control_c, 0, 64, 127
2, 45782, Note_on_c, 0, 67, 0
2, 45788, Note_on_c, 0, 63, 31
2, 45789, Note_on_c, 0, 68, 49
2, 45790, Note_on_c, 0, 65, 36
2, 45800, Note_on_c, 0, 65, 0
2, 45808, Note_on_c, 0, 63, 0
2, 45821, Note_on_c, 0, 60, 0
2, 45832, Note_on_c, 0, 53, 0
2, 45834, Note_on_c, 0, 68, 0
2, 45850, Note_on_c, 0, 67, 40
2, 45852, Note_on_c, 0, 63, 33
2, 45853, Control_c, 0, 64, 0
2, 45855, Note_on_c, 0, 60, 29
2, 45860, Note_on_c, 0, 53, 25
2, 45883, Note_on_c, 0, 67, 0
2, 45884, Control_c, 0, 64, 127
2, 45906, Note_on_c, 0, 63, 0
2, 45911, Note_on_c, 0, 60, 0
2, 45971, Note_on_c, 0, 60, 30
2, 45973, Note_on_c, 0, 65, 34
2, 45980, Note_on_c, 0, 53, 0
2, 45982, Note_on_c, 0, 56, 0
2, 46034, Note_on_c, 0, 60, 0
2, 46061, Note_on_c, 0, 65, 0
2, 46085, Note_on_c, 0, 56, 26
2, 46086, Note_on_c, 0, 60, 32
2, 46090, Control_c, 0, 64, 0
2, 46090, Note_on_c, 0, 50, 29
2, 46141, Note_on_c, 0, 67, 43
2, 46155, Note_on_c, 0, 67, 0
2, 46184, Note_on_c, 0, 68, 46
2, 46189, Note_on_c, 0, 67, 55
2, 46200, Note_on_c, 0, 68, 0
2, 46210, Note_on_c, 0, 67, 0
2, 46214, Note_on_c, 0, 64, 46
2, 46224, Note_on_c, 0, 64, 0
2, 46245, Note_on_c, 0, 56, 0
2, 46246, Note_on_c, 0, 60, 0
2, 46248, Note_on_c, 0, 50, 0
2, 46248, Note_on_c, 0, 65, 64
2, 46263, Note_on_c, 0, 65, 0
2, 46278, Note_on_c, 0, 67, 62
2, 46291, Note_on_c, 0, 67, 0
2, 46310, Note_on_c, 0, 68, 78
2, 46327, Note_on_c, 0, 68, 0
2, 46343, Note_on_c, 0, 70, 84
2, 46358, Note_on_c, 0, 70, 0
2, 46377, Note_on_c, 0, 71, 80
2, 46395, Note_on_c, 0, 71, 0
2, 46417, Note_on_c, 0, 68, 63
2, 46435, Note_on_c, 0, 68, 0
2, 46472, Note_on_c, 0, 66, 34
2, 46478, Note_on_c, 0, 66, 0
2, 46480, Note_on_c, 0, 67, 55
2, 46499, Note_on_c, 0, 67, 0
2, 46514, Note_on_c, 0, 65, 60
2, 46528, Note_on_c, 0, 65, 0
2, 46545, Note_on_c, 0, 63, 40
2, 46572, Note_on_c, 0, 63, 0
2, 46576, Note_on_c, 0, 62, 47
2, 46595, Note_on_c, 0, 58, 23
2, 46595, Note_on_c, 0, 55, 24
2, 46599, Note_on_c, 0, 62, 0
2, 46602, Note_on_c, 0, 48, 22
2, 46607, Note_on_c, 0, 65, 71
2, 46629, Note_on_c, 0, 58, 0
2, 46632, Note_on_c, 0, 65, 0
2, 46642, Note_on_c, 0, 62, 28
2, 46655, Note_on_c, 0, 62, 0
2, 46667, Note_on_c, 0, 63, 55
2, 46698, Note_on_c, 0, 63, 0
2, 46703, Note_on_c, 0, 60, 51
2, 46707, Note_on_c, 0, 55, 0
2, 46714, Note_on_c, 0, 60, 0
2, 46736, Note_on_c, 0, 48, 0
2, 46737, Note_on_c, 0, 60, 62
2, 46759, Note_on_c, 0, 60, 0
2, 46767, Note_on_c, 0, 62, 57
2, 46788, Note_on_c, 0, 62, 0
2, 46801, Note_on_c, 0, 62, 74
2, 46834, Note_on_c, 0, 63, 71
2, 46836, Note_on_c, 0, 62, 0
2, 46852, Note_on_c, 0, 63, 0
2, 46865, Note_on_c, 0, 63, 70
2, 46866, Control_c, 0, 64, 127
2, 46869, Note_on_c, 0, 55, 55
2, 46869, Note_on_c, 0, 61, 53
2, 46891, Note_on_c, 0, 63, 0
2, 46899, Note_on_c, 0, 65, 73
2, 46918, Note_on_c, 0, 65, 0
2, 46930, Note_on_c, 0, 65, 83
2, 46956, Note_on_c, 0, 65, 0
2, 46959, Note_on_c, 0, 55, 0
2, 46963, Note_on_c, 0, 61, 0
2, 46966, Note_on_c, 0, 67, 80
2, 46987, Note_on_c, 0, 67, 0
2, 46999, Note_on_c, 0, 67, 75
2, 47027, Note_on_c, 0, 67, 0
2, 47034, Note_on_c, 0, 68, 75
2, 47046, Control_c, 0, 64, 0
2, 47059, Note_on_c, 0, 68, 0
2, 47065, Note_on_c, 0, 68, 70
2, 47068, Note_on_c, 0, 60, 49
2, 47070, Note_on_c, 0, 63, 28
2, 47072, Note_on_c, 0, 53, 31
2, 47093, Control_c, 0, 64, 127
2, 47098, Note_on_c, 0, 68, 0
2, 47103, Note_on_c, 0, 70, 64
2, 47119, Note_on_c, 0, 70, 0
2, 47130, Note_on_c, 0, 70, 57
2, 47151, Note_on_c, 0, 70, 0
2, 47162, Note_on_c, 0, 72, 71
2, 47183, Note_on_c, 0, 72, 0
2, 47193, Note_on_c, 0, 72, 68
2, 47198, Note_on_c, 0, 63, 0
2, 47209, Note_on_c, 0, 60, 0
2, 47214, Note_on_c, 0, 72, 0
2, 47224, Note_on_c, 0, 74, 73
2, 47242, Note_on_c, 0, 74, 0
2, 47244, Note_on_c, 0, 53, 0
2, 47255, Note_on_c, 0, 74, 62
2, 47277, Note_on_c, 0, 74, 0
2, 47288, Note_on_c, 0, 75, 84
2, 47307, Note_on_c, 0, 63, 19
2, 47309, Note_on_c, 0, 75, 0
2, 47310, Note_on_c, 0, 59, 43
2, 47314, Note_on_c, 0, 56, 30
2, 47317, Control_c, 0, 64, 0
2, 47317, Note_on_c, 0, 53, 38
2, 47320, Note_on_c, 0, 75, 62
2, 47351, Control_c, 0, 64, 127
2, 47359, Note_on_c, 0, 75, 0
2, 47369, Note_on_c, 0, 77, 63
2, 47401, Note_on_c, 0, 77, 0
2, 47411, Note_on_c, 0, 80, 69
2, 47423, Note_on_c, 0, 53, 0
2, 47434, Note_on_c, 0, 59, 0
2, 47436, Note_on_c, 0, 63, 0
2, 47436, Note_on_c, 0, 80, 0
2, 47438, Note_on_c, 0, 56, 0
2, 47446, Note_on_c, 0, 82, 74
2, 47472, Note_on_c, 0, 82, 0
2, 47481, Note_on_c, 0, 83, 80
2, 47504, Note_on_c, 0, 83, 0
2, 47516, Note_on_c, 0, 86, 85
2, 47517, Note_on_c, 0, 74, 78
2, 47521, Note_on_c, 0, 76, 60
2, 47527, Note_on_c, 0, 76, 0
2, 47540, Note_on_c, 0, 86, 0
2, 47541, Note_on_c, 0, 74, 0
2, 47555, Control_c, 0, 64, 0
2, 47556, Note_on_c, 0, 62, 43
2, 47557, Note_on_c, 0, 74, 65
2, 47557, Note_on_c, 0, 86, 66
2, 47558, Note_on_c, 0, 67, 44
2, 47558, Note_on_c, 0, 64, 47
2, 47607, Note_on_c, 0, 85, 57
2, 47608, Note_on_c, 0, 86, 0
2, 47616, Note_on_c, 0, 85, 0
2, 47619, Note_on_c, 0, 84, 60
2, 47625, Note_on_c, 0, 74, 0
2, 47646, Note_on_c, 0, 84, 0
2, 47649, Note_on_c, 0, 83, 53
2, 47672, Note_on_c, 0, 83, 0
2, 47698, Note_on_c, 0, 79, 64
2, 47705, Control_c, 0, 64, 127
2, 47715, Note_on_c, 0, 79, 0
2, 47740, Note_on_c, 0, 79, 53
2, 47749, Note_on_c, 0, 67, 0
2, 47756, Note_on_c, 0, 64, 0
2, 47758, Note_on_c, 0, 62, 0
2, 47765, Note_on_c, 0, 79, 0
2, 47767, Note_on_c, 0, 74, 42
2, 47781, Note_on_c, 0, 74, 0
2, 47796, Note_on_c, 0, 79, 53
2, 47797, Control_c, 0, 64, 0
2, 47832, Control_c, 0, 64, 127
2, 47853, Note_on_c, 0, 63, 59
2, 47854, Note_on_c, 0, 58, 58
2, 47857, Control_c, 0, 64, 0
2, 47858, Note_on_c, 0, 52, 38
2, 47865, Note_on_c, 0, 52, 0
2, 47865, Note_on_c, 0, 63, 0
2, 47871, Note_on_c, 0, 58, 0
2, 47913, Control_c, 0, 64, 127
2, 47924, Note_on_c, 0, 58, 48
2, 47924, Note_on_c, 0, 63, 35
2, 47926, Note_on_c, 0, 52, 34
2, 47933, Note_on_c, 0, 52, 0
2, 47945, Note_on_c, 0, 58, 0
2, 47947, Note_on_c, 0, 63, 0
2, 47999, Control_c, 0, 64, 0
2, 48001, Note_on_c, 0, 62, 31
2, 48002, Note_on_c, 0, 65, 47
2, 48003, Note_on_c, 0, 57, 44
2, 48030, Note_on_c, 0, 79, 0
2, 48045, Control_c, 0, 64, 127
2, 48130, Note_on_c, 0, 65, 0
2, 48137, Note_on_c, 0, 62, 0
2, 48139, Note_on_c, 0, 57, 0
2, 48180, Note_on_c, 0, 89, 90
2, 48184, Note_on_c, 0, 84, 83
2, 48184, Note_on_c, 0, 87, 49
2, 48186, Note_on_c, 0, 57, 72
2, 48186, Note_on_c, 0, 77, 77
2, 48187, Note_on_c, 0, 65, 72
2, 48187, Note_on_c, 0, 62, 50
2, 48190, Note_on_c, 0, 87, 0
2, 48219, Note_on_c, 0, 84, 0
2, 48220, Note_on_c, 0, 57, 0
2, 48222, Note_on_c, 0, 77, 0
2, 48227, Note_on_c, 0, 89, 0
2, 48229, Note_on_c, 0, 62, 0
2, 48230, Note_on_c, 0, 65, 0
2, 48255, Note_on_c, 0, 91, 80
2, 48259, Note_on_c, 0, 88, 81
2, 48259, Note_on_c, 0, 84, 82
2, 48261, Control_c, 0, 64, 0
2, 48262, Note_on_c, 0, 62, 68
2, 48262, Note_on_c, 0, 79, 71
2, 48262, Note_on_c, 0, 56, 71
2, 48263, Note_on_c, 0, 67, 80
2, 48286, Control_c, 0, 64, 127
2, 48294, Note_on_c, 0, 88, 0
2, 48296, Note_on_c, 0, 91, 0
2, 48297, Note_on_c, 0, 84, 0
2, 48308, Note_on_c, 0, 79, 0
2, 48316, Note_on_c, 0, 67, 0
2, 48322, Note_on_c, 0, 56, 0
2, 48329, Note_on_c, 0, 62, 0
2, 48341, Note_on_c, 0, 88, 67
2, 48344, Note_on_c, 0, 84, 56
2, 48345, Note_on_c, 0, 56, 48
2, 48346, Note_on_c, 0, 65, 62
2, 48346, Note_on_c, 0, 62, 47
2, 48346, Note_on_c, 0, 76, 52
2, 48347, Note_on_c, 0, 81, 55
2, 48350, Control_c, 0, 64, 0
2, 48366, Control_c, 0, 64, 127
2, 48372, Note_on_c, 0, 84, 0
2, 48373, Note_on_c, 0, 81, 0
2, 48374, Note_on_c, 0, 88, 0
2, 48381, Note_on_c, 0, 76, 0
2, 48394, Note_on_c, 0, 65, 0
2, 48400, Note_on_c, 0, 56, 0
2, 48406, Note_on_c, 0, 62, 0
2, 48421, Note_on_c, 0, 83, 53
2, 48422, Note_on_c, 0, 56, 40
2, 48422, Note_on_c, 0, 76, 46
2, 48423, Note_on_c, 0, 71, 55
2, 48425, Note_on_c, 0, 62, 36
2, 48425, Note_on_c, 0, 65, 44
2, 48437, Note_on_c, 0, 62, 0
2, 48440, Note_on_c, 0, 65, 0
2, 48443, Note_on_c, 0, 71, 0
2, 48446, Note_on_c, 0, 76, 0
2, 48453, Note_on_c, 0, 83, 0
2, 48458, Note_on_c, 0, 56, 0
2, 48500, Note_on_c, 0, 74, 54
2, 48503, Control_c, 0, 64, 0
2, 48504, Note_on_c, 0, 64, 53
2, 48506, Note_on_c, 0, 79, 47
2, 48507, Note_on_c, 0, 60, 39
2, 48508, Note_on_c, 0, 59, 36
2, 48508, Note_on_c, 0, 55, 27
2, 48514, Note_on_c, 0, 83, 55
2, 48515, Note_on_c, 0, 86, 55
2, 48538, Control_c, 0, 64, 127
2, 48546, Note_on_c, 0, 83, 0
2, 48556, Note_on_c, 0, 79, 0
2, 48557, Note_on_c, 0, 74, 0
2, 48559, Note_on_c, 0, 86, 0
2, 48565, Note_on_c, 0, 59, 0
2, 48565, Note_on_c, 0, 55, 0
2, 48566, Note_on_c, 0, 64, 0
2, 48568, Note_on_c, 0, 60, 0
2, 48580, Note_on_c, 0, 84, 63
2, 48590, Note_on_c, 0, 64, 22
2, 48590, Note_on_c, 0, 60, 31
2, 48592, Note_on_c, 0, 81, 20
2, 48592, Note_on_c, 0, 59, 19
2, 48594, Note_on_c, 0, 77, 25
2, 48595, Note_on_c, 0, 55, 14
2, 48597, Note_on_c, 0, 72, 24
2, 48610, Note_on_c, 0, 81, 0
2, 48613, Note_on_c, 0, 77, 0
2, 48614, Note_on_c, 0, 84, 0
2, 48619, Note_on_c, 0, 59, 0
2, 48620, Note_on_c, 0, 60, 0
2, 48623, Note_on_c, 0, 72, 0
2, 48623, Note_on_c, 0, 64, 0
2, 48624, Note_on_c, 0, 55, 0
2, 48650, Note_on_c, 0, 83, 57
2, 48655, Note_on_c, 0, 64, 34
2, 48656, Note_on_c, 0, 79, 49
2, 48657, Note_on_c, 0, 76, 44
2, 48659, Note_on_c, 0, 60, 27
2, 48661, Note_on_c, 0, 59, 24
2, 48673, Note_on_c, 0, 71, 9
2, 48676, Note_on_c, 0, 79, 0
2, 48676, Note_on_c, 0, 83, 0
2, 48678, Note_on_c, 0, 76, 0
2, 48682, Note_on_c, 0, 60, 0
2, 48683, Note_on_c, 0, 64, 0
2, 48685, Note_on_c, 0, 71, 0
2, 48686, Note_on_c, 0, 59, 0
2, 48724, Note_on_c, 0, 79, 36
2, 48726, Note_on_c, 0, 76, 41
2, 48732, Control_c, 0, 64, 0
2, 48734, Note_on_c, 0, 72, 36
2, 48735, Note_on_c, 0, 55, 18
2, 48736, Note_on_c, 0, 64, 24
2, 48736, Note_on_c, 0, 60, 25
2, 48739, Note_on_c, 0, 59, 17
2, 48740, Note_on_c, 0, 67, 20
2, 48752, Note_on_c, 0, 72, 0
2, 48752, Note_on_c, 0, 76, 0
2, 48754, Control_c, 0, 64, 127
2, 48756, Note_on_c, 0, 79, 0
2, 48763, Note_on_c, 0, 67, 0
2, 48764, Note_on_c, 0, 64, 0
2, 48771, Note_on_c, 0, 60, 0
2, 48778, Note_on_c, 0, 59, 0
2, 48782, Note_on_c, 0, 55, 0
2, 48804, Note_on_c, 0, 76, 32
2, 48806, Note_on_c, 0, 72, 42
2, 48808, Note_on_c, 0, 69, 37
2, 48809, Note_on_c, 0, 60, 34
2, 48811, Note_on_c, 0, 64, 36
2, 48813, Note_on_c, 0, 59, 29
2, 48813, Note_on_c, 0, 55, 22
2, 48817, Control_c, 0, 64, 0
2, 48830, Control_c, 0, 64, 127
2, 48877, Note_on_c, 0, 64, 0
2, 48884, Note_on_c, 0, 72, 0
2, 48885, Note_on_c, 0, 69, 0
2, 48888, Note_on_c, 0, 59, 0
2, 48889, Note_on_c, 0, 76, 0
2, 48890, Note_on_c, 0, 55, 0
2, 48890, Note_on_c, 0, 60, 0
2, 48964, Note_on_c, 0, 77, 80
2, 48969, Note_on_c, 0, 73, 50
2, 48969, Note_on_c, 0, 63, 36
2, 48970, Note_on_c, 0, 76, 36
2, 48972, Note_on_c, 0, 65, 82
2, 48973, Note_on_c, 0, 70, 69
2, 48976, Control_c, 0, 64, 0
2, 48977, Note_on_c, 0, 63, 0
2, 48982, Note_on_c, 0, 66, 44
2, 48983, Note_on_c, 0, 76, 0
2, 49001, Control_c, 0, 64, 127
2, 49018, Note_on_c, 0, 77, 0
2, 49019, Note_on_c, 0, 73, 0
2, 49022, Note_on_c, 0, 70, 0
2, 49024, Note_on_c, 0, 65, 0
2, 49025, Note_on_c, 0, 66, 0
2, 49034, Note_on_c, 0, 77, 71
2, 49039, Note_on_c, 0, 73, 51
2, 49039, Note_on_c, 0, 70, 55
2, 49042, Note_on_c, 0, 65, 54
2, 49043, Control_c, 0, 64, 0
2, 49044, Note_on_c, 0, 66, 54
2, 49048, Control_c, 0, 64, 127
2, 49070, Note_on_c, 0, 77, 0
2, 49071, Note_on_c, 0, 65, 0
2, 49074, Note_on_c, 0, 73, 0
2, 49075, Note_on_c, 0, 70, 0
2, 49079, Note_on_c, 0, 66, 0
2, 49088, Note_on_c, 0, 63, 27
2, 49093, Note_on_c, 0, 77, 54
2, 49096, Note_on_c, 0, 73, 40
2, 49099, Note_on_c, 0, 70, 67
2, 49101, Note_on_c, 0, 65, 49
2, 49106, Note_on_c, 0, 66, 32
2, 49107, Note_on_c, 0, 63, 0
2, 49130, Note_on_c, 0, 66, 0
2, 49133, Note_on_c, 0, 65, 0
2, 49134, Note_on_c, 0, 77, 0
2, 49134, Note_on_c, 0, 73, 0
2, 49137, Note_on_c, 0, 70, 0
2, 49161, Note_on_c, 0, 65, 35
2, 49172, Note_on_c, 0, 65, 0
2, 49195, Note_on_c, 0, 60, 24
2, 49200, Note_on_c, 0, 63, 31
2, 49205, Note_on_c, 0, 77, 68
2, 49206, Note_on_c, 0, 60, 0
2, 49206, Note_on_c, 0, 74, 57
2, 49209, Control_c, 0, 64, 0
2, 49209, Note_on_c, 0, 76, 60
2, 49210, Note_on_c, 0, 69, 69
2, 49211, Note_on_c, 0, 65, 64
2, 49211, Note_on_c, 0, 75, 15
2, 49217, Note_on_c, 0, 66, 35
2, 49218, Note_on_c, 0, 63, 0
2, 49234, Control_c, 0, 64, 127
2, 49239, Note_on_c, 0, 76, 0
2, 49245, Note_on_c, 0, 77, 0
2, 49248, Note_on_c, 0, 75, 0
2, 49254, Note_on_c, 0, 65, 0
2, 49254, Note_on_c, 0, 74, 0
2, 49257, Note_on_c, 0, 69, 0
2, 49260, Note_on_c, 0, 66, 0
2, 49269, Note_on_c, 0, 77, 71
2, 49270, Note_on_c, 0, 74, 41
2, 49272, Control_c, 0, 64, 0
2, 49273, Note_on_c, 0, 65, 52
2, 49274, Note_on_c, 0, 75, 23
2, 49274, Note_on_c, 0, 69, 47
2, 49275, Note_on_c, 0, 76, 43
2, 49276, Note_on_c, 0, 66, 34
2, 49284, Note_on_c, 0, 76, 0
2, 49288, Control_c, 0, 64, 127
2, 49298, Note_on_c, 0, 65, 0
2, 49301, Note_on_c, 0, 77, 0
2, 49305, Note_on_c, 0, 75, 0
2, 49307, Note_on_c, 0, 66, 0
2, 49308, Note_on_c, 0, 74, 0
2, 49311, Note_on_c, 0, 69, 0
2, 49327, Note_on_c, 0, 77, 61
2, 49329, Note_on_c, 0, 74, 40
2, 49330, Note_on_c, 0, 65, 63
2, 49332, Note_on_c, 0, 69, 41
2, 49332, Note_on_c, 0, 66, 48
2, 49336, Note_on_c, 0, 76, 24
2, 49345, Note_on_c, 0, 65, 0
2, 49366, Note_on_c, 0, 66, 0
2, 49374, Note_on_c, 0, 76, 0
2, 49378, Note_on_c, 0, 69, 0
2, 49382, Note_on_c, 0, 74, 0
2, 49386, Note_on_c, 0, 66, 37
2, 49387, Note_on_c, 0, 77, 0
2, 49407, Note_on_c, 0, 66, 0
2, 49447, Note_on_c, 0, 75, 59
2, 49449, Note_on_c, 0, 64, 51
2, 49451, Note_on_c, 0, 68, 39
2, 49454, Note_on_c, 0, 49, 35
2, 49454, Control_c, 0, 64, 0
2, 49455, Note_on_c, 0, 71, 38
2, 49487, Control_c, 0, 64, 127
2, 49508, Note_on_c, 0, 56, 37
2, 49525, Note_on_c, 0, 68, 0
2, 49535, Note_on_c, 0, 71, 0
2, 49538, Note_on_c, 0, 64, 0
2, 49563, Note_on_c, 0, 75, 0
2, 49564, Note_on_c, 0, 49, 0
2, 49566, Note_on_c, 0, 71, 31
2, 49567, Note_on_c, 0, 68, 33
2, 49569, Note_on_c, 0, 64, 28
2, 49584, Note_on_c, 0, 56, 0
2, 49619, Note_on_c, 0, 64, 0
2, 49624, Note_on_c, 0, 71, 0
2, 49624, Note_on_c, 0, 75, 58
2, 49641, Note_on_c, 0, 68, 0
2, 49650, Note_on_c, 0, 75, 0
2, 49684, Note_on_c, 0, 75, 45
2, 49685, Note_on_c, 0, 70, 32
2, 49686, Note_on_c, 0, 68, 36
2, 49688, Note_on_c, 0, 64, 29
2, 49688, Note_on_c, 0, 63, 34
2, 49691, Control_c, 0, 64, 0
2, 49725, Control_c, 0, 64, 127
2, 49779, Note_on_c, 0, 63, 0
2, 49838, Note_on_c, 0, 64, 0
2, 49852, Note_on_c, 0, 75, 0
2, 49858, Note_on_c, 0, 70, 0
2, 49862, Note_on_c, 0, 68, 0
2, 49873, Note_on_c, 0, 73, 32
2, 49892, Note_on_c, 0, 73, 0
2, 49913, Control_c, 0, 64, 0
2, 49914, Note_on_c, 0, 57, 37
2, 49916, Note_on_c, 0, 62, 31
2, 49916, Note_on_c, 0, 65, 36
2, 49921, Note_on_c, 0, 77, 34
2, 49926, Note_on_c, 0, 65, 0
2, 49928, Note_on_c, 0, 62, 0
2, 49931, Note_on_c, 0, 57, 0
2, 49941, Note_on_c, 0, 77, 0
2, 50005, Note_on_c, 0, 69, 24
2, 50013, Note_on_c, 0, 69, 0
2, 50042, Note_on_c, 0, 74, 60
2, 50056, Note_on_c, 0, 74, 0
2, 50078, Note_on_c, 0, 76, 59
2, 50094, Note_on_c, 0, 76, 0
2, 50113, Note_on_c, 0, 77, 88
2, 50142, Note_on_c, 0, 77, 0
2, 50154, Note_on_c, 0, 67, 54
2, 50155, Note_on_c, 0, 76, 62
2, 50157, Note_on_c, 0, 56, 32
2, 50158, Note_on_c, 0, 62, 40
2, 50168, Note_on_c, 0, 67, 0
2, 50169, Note_on_c, 0, 62, 0
2, 50174, Note_on_c, 0, 56, 0
2, 50179, Note_on_c, 0, 76, 0
2, 50195, Note_on_c, 0, 74, 47
2, 50215, Note_on_c, 0, 74, 0
2, 50232, Note_on_c, 0, 72, 49
2, 50265, Note_on_c, 0, 72, 0
2, 50276, Note_on_c, 0, 71, 31
2, 50294, Note_on_c, 0, 71, 0
2, 50314, Note_on_c, 0, 69, 45
2, 50334, Note_on_c, 0, 69, 0
2, 50356, Note_on_c, 0, 68, 68
2, 50361, Note_on_c, 0, 64, 53
2, 50367, Note_on_c, 0, 57, 22
2, 50367, Note_on_c, 0, 60, 27
2, 50367, Note_on_c, 0, 59, 43
2, 50390, Note_on_c, 0, 68, 0
2, 50396, Note_on_c, 0, 59, 0
2, 50399, Note_on_c, 0, 71, 42
2, 50402, Note_on_c, 0, 64, 0
2, 50402, Note_on_c, 0, 57, 0
2, 50407, Note_on_c, 0, 60, 0
2, 50420, Note_on_c, 0, 71, 0
2, 50437, Note_on_c, 0, 69, 51
2, 50462, Note_on_c, 0, 69, 0
2, 50474, Note_on_c, 0, 64, 52
2, 50493, Note_on_c, 0, 64, 0
2, 50515, Note_on_c, 0, 62, 32
2, 50546, Note_on_c, 0, 62, 0
2, 50557, Note_on_c, 0, 60, 30
2, 50577, Note_on_c, 0, 60, 0
2, 50600, Note_on_c, 0, 59, 28
2, 50686, Note_on_c, 0, 59, 0
2, 50692, Note_on_c, 0, 57, 47
2, 50705, Note_on_c, 0, 45, 26
2, 50709, Note_on_c, 0, 57, 0
2, 50720, Note_on_c, 0, 58, 36
2, 50722, Note_on_c, 0, 45, 0
2, 50733, Note_on_c, 0, 58, 0
2, 50737, Note_on_c, 0, 60, 59
2, 50752, Note_on_c, 0, 60, 0
2, 50758, Note_on_c, 0, 61, 32
2, 50772, Note_on_c, 0, 63, 47
2, 50773, Note_on_c, 0, 61, 0
2, 50785, Note_on_c, 0, 63, 0
2, 50794, Note_on_c, 0, 64, 53
2, 50809, Note_on_c, 0, 64, 0
2, 50810, Note_on_c, 0, 58, 18
2, 50815, Note_on_c, 0, 65, 61
2, 50821, Note_on_c, 0, 58, 0
2, 50834, Note_on_c, 0, 65, 0
2, 50838, Note_on_c, 0, 66, 39
2, 50846, Note_on_c, 0, 66, 0
2, 50853, Note_on_c, 0, 67, 60
2, 50865, Note_on_c, 0, 67, 0
2, 50875, Note_on_c, 0, 68, 35
2, 50883, Note_on_c, 0, 68, 0
2, 50892, Note_on_c, 0, 69, 40
2, 50900, Note_on_c, 0, 57, 28
2, 50901, Note_on_c, 0, 50, 20
2, 50920, Note_on_c, 0, 69, 0
2, 50928, Note_on_c, 0, 72, 61
2, 50947, Note_on_c, 0, 72, 0
2, 50948, Note_on_c, 0, 57, 0
2, 50953, Note_on_c, 0, 76, 70
2, 50969, Note_on_c, 0, 76, 0
2, 50978, Note_on_c, 0, 79, 80
2, 51005, Note_on_c, 0, 79, 0
2, 51005, Note_on_c, 0, 77, 66
2, 51023, Note_on_c, 0, 77, 0
2, 51030, Note_on_c, 0, 73, 44
2, 51040, Note_on_c, 0, 50, 0
2, 51041, Note_on_c, 0, 73, 0
2, 51055, Note_on_c, 0, 76, 64
2, 51077, Note_on_c, 0, 76, 0
2, 51080, Note_on_c, 0, 69, 54
2, 51087, Note_on_c, 0, 69, 0
2, 51104, Note_on_c, 0, 72, 68
2, 51122, Note_on_c, 0, 72, 0
2, 51125, Note_on_c, 0, 74, 57
2, 51147, Note_on_c, 0, 74, 0
2, 51147, Note_on_c, 0, 72, 40
2, 51162, Note_on_c, 0, 72, 0
2, 51166, Note_on_c, 0, 69, 52
2, 51181, Note_on_c, 0, 69, 0
2, 51191, Note_on_c, 0, 70, 65
2, 51209, Note_on_c, 0, 70, 0
2, 51222, Note_on_c, 0, 71, 60
2, 51239, Note_on_c, 0, 71, 0
2, 51261, Note_on_c, 0, 83, 81
2, 51282, Note_on_c, 0, 83, 0
2, 51302, Note_on_c, 0, 63, 54
2, 51304, Note_on_c, 0, 82, 74
2, 51308, Note_on_c, 0, 56, 33
2, 51309, Note_on_c, 0, 59, 34
2, 51323, Note_on_c, 0, 59, 0
2, 51323, Note_on_c, 0, 82, 0
2, 51325, Note_on_c, 0, 63, 0
2, 51332, Note_on_c, 0, 56, 0
2, 51343, Note_on_c, 0, 80, 63
2, 51368, Note_on_c, 0, 80, 0
2, 51376, Note_on_c, 0, 79, 54
2, 51394, Note_on_c, 0, 79, 0
2, 51404, Note_on_c, 0, 57, 33
2, 51406, Note_on_c, 0, 52, 29
2, 51406, Note_on_c, 0, 62, 20
2, 51408, Note_on_c, 0, 77, 46
2, 51439, Note_on_c, 0, 77, 0
2, 51447, Note_on_c, 0, 76, 44
2, 51467, Note_on_c, 0, 76, 0
2, 51516, Control_c, 0, 64, 127
2, 51560, Note_on_c, 0, 67, 50
2, 51570, Note_on_c, 0, 67, 0
2, 51593, Note_on_c, 0, 69, 64
2, 51594, Note_on_c, 0, 57, 0
2, 51598, Note_on_c, 0, 52, 0
2, 51610, Note_on_c, 0, 62, 0
2, 51610, Note_on_c, 0, 69, 0
2, 51613, Control_c, 0, 64, 0
2, 51626, Note_on_c, 0, 74, 80
2, 51657, Note_on_c, 0, 74, 0
2, 51690, Note_on_c, 0, 74, 73
2, 51691, Note_on_c, 0, 64, 46
2, 51695, Note_on_c, 0, 60, 36
2, 51697, Note_on_c, 0, 59, 32
2, 51713, Note_on_c, 0, 74, 0
2, 51732, Note_on_c, 0, 72, 57
2, 51739, Note_on_c, 0, 64, 0
2, 51752, Note_on_c, 0, 72, 0
2, 51757, Note_on_c, 0, 60, 0
2, 51765, Note_on_c, 0, 59, 0
2, 51766, Note_on_c, 0, 71, 54
2, 51769, Control_c, 0, 64, 127
2, 51787, Control_c, 0, 64, 0
2, 51788, Note_on_c, 0, 71, 0
2, 51801, Note_on_c, 0, 69, 62
2, 51810, Control_c, 0, 64, 127
2, 51818, Note_on_c, 0, 69, 0
2, 51842, Note_on_c, 0, 68, 52
2, 51844, Control_c, 0, 64, 0
2, 51848, Note_on_c, 0, 63, 28
2, 51850, Note_on_c, 0, 60, 40
2, 51852, Note_on_c, 0, 56, 29
2, 51857, Note_on_c, 0, 53, 31
2, 51913, Control_c, 0, 64, 127
2, 51928, Note_on_c, 0, 65, 55
2, 51941, Note_on_c, 0, 68, 0
2, 51955, Note_on_c, 0, 65, 0
2, 51967, Note_on_c, 0, 67, 46
2, 51981, Note_on_c, 0, 53, 0
2, 51984, Note_on_c, 0, 67, 0
2, 51988, Note_on_c, 0, 60, 0
2, 52001, Note_on_c, 0, 63, 0
2, 52001, Note_on_c, 0, 68, 69
2, 52005, Note_on_c, 0, 56, 0
2, 52025, Note_on_c, 0, 68, 0
2, 52036, Note_on_c, 0, 70, 76
2, 52059, Note_on_c, 0, 70, 0
2, 52078, Note_on_c, 0, 68, 63
2, 52078, Note_on_c, 0, 72, 57
2, 52081, Control_c, 0, 64, 0
2, 52082, Note_on_c, 0, 62, 44
2, 52085, Note_on_c, 0, 56, 35
2, 52086, Note_on_c, 0, 60, 47
2, 52110, Note_on_c, 0, 68, 0
2, 52117, Note_on_c, 0, 70, 58
2, 52118, Note_on_c, 0, 74, 66
2, 52120, Control_c, 0, 64, 127
2, 52126, Note_on_c, 0, 72, 0
2, 52169, Note_on_c, 0, 70, 0
2, 52171, Note_on_c, 0, 74, 0
2, 52172, Note_on_c, 0, 60, 0
2, 52177, Note_on_c, 0, 62, 0
2, 52188, Note_on_c, 0, 56, 0
2, 52197, Note_on_c, 0, 56, 18
2, 52197, Note_on_c, 0, 75, 67
2, 52198, Note_on_c, 0, 72, 71
2, 52200, Control_c, 0, 64, 0
2, 52202, Note_on_c, 0, 66, 34
2, 52202, Note_on_c, 0, 61, 32
2, 52208, Note_on_c, 0, 63, 33
2, 52222, Note_on_c, 0, 72, 0
2, 52229, Control_c, 0, 64, 127
2, 52238, Note_on_c, 0, 77, 63
2, 52246, Note_on_c, 0, 75, 0
2, 52273, Note_on_c, 0, 66, 0
2, 52286, Note_on_c, 0, 61, 0
2, 52289, Note_on_c, 0, 63, 0
2, 52295, Note_on_c, 0, 56, 0
2, 52301, Note_on_c, 0, 77, 0
2, 52317, Control_c, 0, 64, 0
2, 52320, Note_on_c, 0, 65, 32
2, 52320, Note_on_c, 0, 74, 34
2, 52322, Note_on_c, 0, 70, 35
2, 52323, Note_on_c, 0, 62, 25
2, 52323, Note_on_c, 0, 60, 34
2, 52326, Note_on_c, 0, 55, 28
2, 52343, Note_on_c, 0, 70, 0
2, 52355, Note_on_c, 0, 65, 0
2, 52356, Note_on_c, 0, 74, 0
2, 52363, Note_on_c, 0, 72, 51
2, 52363, Note_on_c, 0, 75, 53
2, 52366, Control_c, 0, 64, 127
2, 52367, Note_on_c, 0, 65, 28
2, 52404, Note_on_c, 0, 62, 0
2, 52407, Note_on_c, 0, 60, 0
2, 52419, Note_on_c, 0, 65, 0
2, 52433, Note_on_c, 0, 72, 0
2, 52434, Note_on_c, 0, 75, 0
2, 52442, Control_c, 0, 64, 0
2, 52447, Note_on_c, 0, 74, 55
2, 52447, Note_on_c, 0, 65, 42
2, 52448, Note_on_c, 0, 77, 52
2, 52449, Note_on_c, 0, 62, 34
2, 52457, Note_on_c, 0, 65, 0
2, 52474, Note_on_c, 0, 62, 0
2, 52475, Control_c, 0, 64, 127
2, 52479, Note_on_c, 0, 77, 0
2, 52486, Note_on_c, 0, 75, 37
2, 52488, Note_on_c, 0, 79, 68
2, 52492, Note_on_c, 0, 55, 0
2, 52521, Note_on_c, 0, 74, 0
2, 52527, Note_on_c, 0, 75, 0
2, 52532, Note_on_c, 0, 79, 0
2, 52570, Control_c, 0, 64, 0
2, 52639, Control_c, 0, 64, 127
2, 52643, Note_on_c, 0, 62, 47
2, 52645, Note_on_c, 0, 58, 34
2, 52652, Note_on_c, 0, 55, 28
2, 52655, Note_on_c, 0, 62, 0
2, 52657, Control_c, 0, 64, 0
2, 52661, Note_on_c, 0, 55, 0
2, 52676, Note_on_c, 0, 58, 0
2, 52692, Note_on_c, 0, 80, 56
2, 52709, Note_on_c, 0, 80, 0
2, 52724, Note_on_c, 0, 82, 77
2, 52742, Note_on_c, 0, 82, 0
2, 52755, Note_on_c, 0, 83, 79
2, 52774, Note_on_c, 0, 83, 0
2, 52788, Note_on_c, 0, 86, 87
2, 52807, Note_on_c, 0, 64, 37
2, 52810, Note_on_c, 0, 55, 34
2, 52810, Note_on_c, 0, 60, 38
2, 52812, Note_on_c, 0, 59, 32
2, 52823, Note_on_c, 0, 84, 41
2, 52828, Note_on_c, 0, 86, 0
2, 52842, Note_on_c, 0, 84, 0
2, 52915, Note_on_c, 0, 64, 0
2, 52972, Note_on_c, 0, 55, 0
2, 52975, Note_on_c, 0, 59, 0
2, 52983, Note_on_c, 0, 60, 0
2, 53118, Note_on_c, 0, 64, 47
2, 53119, Note_on_c, 0, 60, 38
2, 53123, Note_on_c, 0, 54, 32
2, 53144, Note_on_c, 0, 60, 0
2, 53145, Note_on_c, 0, 64, 0
2, 53152, Note_on_c, 0, 54, 0
2, 53184, Note_on_c, 0, 76, 51
2, 53193, Note_on_c, 0, 76, 0
2, 53209, Note_on_c, 0, 80, 73
2, 53226, Note_on_c, 0, 80, 0
2, 53236, Note_on_c, 0, 83, 79
2, 53255, Note_on_c, 0, 83, 0
2, 53266, Note_on_c, 0, 84, 82
2, 53286, Note_on_c, 0, 84, 0
2, 53295, Note_on_c, 0, 62, 53
2, 53295, Note_on_c, 0, 86, 83
2, 53298, Note_on_c, 0, 57, 35
2, 53298, Note_on_c, 0, 59, 33
2, 53300, Note_on_c, 0, 54, 30
2, 53317, Note_on_c, 0, 86, 0
2, 53319, Note_on_c, 0, 62, 0
2, 53324, Note_on_c, 0, 57, 0
2, 53329, Note_on_c, 0, 59, 0
2, 53334, Note_on_c, 0, 84, 60
2, 53335, Note_on_c, 0, 54, 0
2, 53336, Note_on_c, 0, 83, 34
2, 53343, Note_on_c, 0, 83, 0
2, 53348, Note_on_c, 0, 84, 0
2, 53371, Note_on_c, 0, 78, 70
2, 53389, Note_on_c, 0, 78, 0
2, 53448, Note_on_c, 0, 74, 57
2, 53450, Note_on_c, 0, 62, 39
2, 53455, Note_on_c, 0, 59, 29
2, 53459, Note_on_c, 0, 62, 0
2, 53460, Note_on_c, 0, 74, 0
2, 53470, Note_on_c, 0, 59, 0
2, 53480, Note_on_c, 0, 78, 68
2, 53503, Note_on_c, 0, 78, 0
2, 53580, Note_on_c, 0, 78, 75
2, 53601, Note_on_c, 0, 78, 0
2, 53610, Note_on_c, 0, 79, 69
2, 53629, Note_on_c, 0, 79, 0
2, 53641, Note_on_c, 0, 81, 87
2, 53649, Note_on_c, 0, 62, 44
2, 53655, Note_on_c, 0, 59, 25
2, 53656, Note_on_c, 0, 62, 0
2, 53661, Note_on_c, 0, 55, 24
2, 53664, Note_on_c, 0, 81, 0
2, 53671, Note_on_c, 0, 79, 64
2, 53672, Note_on_c, 0, 55, 0
2, 53673, Note_on_c, 0, 59, 0
2, 53703, Note_on_c, 0, 78, 65
2, 53707, Note_on_c, 0, 79, 0
2, 53724, Note_on_c, 0, 78, 0
2, 53739, Note_on_c, 0, 76, 58
2, 53754, Note_on_c, 0, 76, 0
2, 53777, Note_on_c, 0, 59, 31
2, 53778, Note_on_c, 0, 76, 57
2, 53779, Note_on_c, 0, 49, 31
2, 53821, Note_on_c, 0, 71, 49
2, 53828, Note_on_c, 0, 76, 0
2, 53829, Control_c, 0, 64, 127
2, 53844, Note_on_c, 0, 71, 0
2, 53866, Note_on_c, 0, 71, 55
2, 53877, Note_on_c, 0, 49, 0
2, 53890, Note_on_c, 0, 59, 0
2, 53917, Note_on_c, 0, 71, 0
2, 53924, Note_on_c, 0, 76, 66
2, 53945, Note_on_c, 0, 76, 0
2, 53964, Note_on_c, 0, 76, 56
2, 53990, Note_on_c, 0, 76, 0
2, 54012, Note_on_c, 0, 75, 71
2, 54020, Control_c, 0, 64, 0
2, 54054, Control_c, 0, 64, 127
2, 54058, Note_on_c, 0, 70, 38
2, 54067, Control_c, 0, 64, 0
2, 54081, Note_on_c, 0, 75, 0
2, 54089, Note_on_c, 0, 70, 0
2, 54094, Control_c, 0, 64, 127
2, 54116, Note_on_c, 0, 70, 51
2, 54184, Note_on_c, 0, 70, 0
2, 54191, Note_on_c, 0, 78, 68
2, 54230, Note_on_c, 0, 78, 0
2, 54237, Note_on_c, 0, 66, 32
2, 54240, Note_on_c, 0, 63, 31
2, 54244, Note_on_c, 0, 75, 55
2, 54245, Note_on_c, 0, 61, 23
2, 54246, Control_c, 0, 64, 0
2, 54290, Note_on_c, 0, 70, 39
2, 54292, Control_c, 0, 64, 127
2, 54294, Note_on_c, 0, 75, 0
2, 54324, Note_on_c, 0, 70, 0
2, 54330, Note_on_c, 0, 82, 73
2, 54360, Note_on_c, 0, 82, 0
2, 54368, Note_on_c, 0, 80, 60
2, 54399, Note_on_c, 0, 80, 0
2, 54406, Note_on_c, 0, 75, 62
2, 54429, Note_on_c, 0, 75, 0
2, 54440, Note_on_c, 0, 70, 35
2, 54460, Note_on_c, 0, 70, 0
2, 54479, Note_on_c, 0, 70, 44
2, 54495, Note_on_c, 0, 70, 0
2, 54511, Note_on_c, 0, 61, 0
2, 54513, Note_on_c, 0, 70, 37
2, 54517, Note_on_c, 0, 66, 0
2, 54525, Note_on_c, 0, 63, 0
2, 54531, Note_on_c, 0, 70, 0
2, 54551, Note_on_c, 0, 70, 38
2, 54568, Note_on_c, 0, 70, 0
2, 54587, Note_on_c, 0, 70, 37
2, 54603, Note_on_c, 0, 70, 0
2, 54617, Control_c, 0, 64, 0
2, 54618, Note_on_c, 0, 63, 44
2, 54620, Note_on_c, 0, 70, 45
2, 54623, Note_on_c, 0, 59, 46
2, 54623, Note_on_c, 0, 58, 33
2, 54648, Control_c, 0, 64, 127
2, 54659, Note_on_c, 0, 70, 0
2, 54669, Note_on_c, 0, 59, 0
2, 54673, Note_on_c, 0, 58, 0
2, 54678, Note_on_c, 0, 63, 0
2, 54679, Note_on_c, 0, 70, 47
2, 54707, Note_on_c, 0, 70, 0
2, 54740, Note_on_c, 0, 70, 60
2, 54742, Note_on_c, 0, 64, 45
2, 54742, Note_on_c, 0, 59, 47
2, 54744, Note_on_c, 0, 68, 44
2, 54744, Note_on_c, 0, 63, 35
2, 54746, Control_c, 0, 64, 0
2, 54811, Control_c, 0, 64, 127
2, 54852, Note_on_c, 0, 70, 0
2, 54855, Note_on_c, 0, 68, 0
2, 54867, Note_on_c, 0, 64, 0
2, 54868, Note_on_c, 0, 63, 0
2, 54876, Note_on_c, 0, 59, 0
2, 54913, Note_on_c, 0, 68, 53
2, 54918, Note_on_c, 0, 59, 31
2, 54919, Note_on_c, 0, 63, 31
2, 54923, Note_on_c, 0, 64, 30
2, 54929, Note_on_c, 0, 59, 0
2, 54931, Note_on_c, 0, 68, 0
2, 54932, Note_on_c, 0, 64, 0
2, 54938, Note_on_c, 0, 63, 0
2, 54974, Note_on_c, 0, 85, 92
2, 54976, Note_on_c, 0, 68, 77
2, 54977, Control_c, 0, 64, 0
2, 54977, Note_on_c, 0, 58, 72
2, 54977, Note_on_c, 0, 64, 71
2, 54978, Note_on_c, 0, 80, 77
2, 54978, Note_on_c, 0, 63, 46
2, 54978, Note_on_c, 0, 73, 77
2, 55002, Control_c, 0, 64, 127
2, 55021, Note_on_c, 0, 73, 0
2, 55021, Note_on_c, 0, 85, 0
2, 55023, Note_on_c, 0, 68, 0
2, 55025, Note_on_c, 0, 80, 0
2, 55026, Note_on_c, 0, 64, 0
2, 55026, Note_on_c, 0, 58, 0
2, 55029, Note_on_c, 0, 63, 0
2, 55039, Note_on_c, 0, 75, 79
2, 55040, Note_on_c, 0, 87, 88
2, 55040, Note_on_c, 0, 80, 63
2, 55040, Note_on_c, 0, 68, 69
2, 55040, Note_on_c, 0, 58, 67
2, 55041, Note_on_c, 0, 64, 71
2, 55043, Note_on_c, 0, 63, 57
2, 55068, Note_on_c, 0, 87, 0
2, 55072, Note_on_c, 0, 75, 0
2, 55074, Note_on_c, 0, 68, 0
2, 55078, Note_on_c, 0, 58, 0
2, 55081, Note_on_c, 0, 80, 0
2, 55082, Note_on_c, 0, 64, 0
2, 55084, Note_on_c, 0, 63, 0
2, 55097, Note_on_c, 0, 85, 57
2, 55097, Note_on_c, 0, 68, 53
2, 55097, Note_on_c, 0, 58, 52
2, 55101, Note_on_c, 0, 64, 48
2, 55101, Note_on_c, 0, 63, 30
2, 55101, Note_on_c, 0, 73, 42
2, 55103, Note_on_c, 0, 80, 45
2, 55125, Note_on_c, 0, 73, 0
2, 55125, Note_on_c, 0, 58, 0
2, 55126, Note_on_c, 0, 80, 0
2, 55127, Note_on_c, 0, 85, 0
2, 55128, Note_on_c, 0, 64, 0
2, 55129, Note_on_c, 0, 68, 0
2, 55132, Note_on_c, 0, 63, 0
2, 55156, Note_on_c, 0, 75, 74
2, 55157, Note_on_c, 0, 87, 78
2, 55158, Note_on_c, 0, 80, 62
2, 55180, Note_on_c, 0, 80, 0
2, 55194, Note_on_c, 0, 75, 0
2, 55197, Note_on_c, 0, 87, 0
2, 55216, Control_c, 0, 64, 0
2, 55221, Note_on_c, 0, 88, 77
2, 55222, Note_on_c, 0, 82, 69
2, 55223, Note_on_c, 0, 76, 62
2, 55251, Note_on_c, 0, 88, 0
2, 55260, Note_on_c, 0, 76, 0
2, 55264, Note_on_c, 0, 82, 0
2, 55311, Control_c, 0, 64, 127
2, 55355, Control_c, 0, 64, 0
2, 55385, Note_on_c, 0, 68, 53
2, 55387, Note_on_c, 0, 58, 45
2, 55389, Note_on_c, 0, 61, 34
2, 55394, Control_c, 0, 64, 127
2, 55396, Note_on_c, 0, 68, 0
2, 55404, Note_on_c, 0, 61, 0
2, 55406, Note_on_c, 0, 58, 0
2, 55447, Control_c, 0, 64, 0
2, 55460, Control_c, 0, 64, 127
2, 55532, Note_on_c, 0, 80, 57
2, 55559, Note_on_c, 0, 80, 0
2, 55577, Control_c, 0, 64, 0
2, 55579, Note_on_c, 0, 75, 86
2, 55580, Note_on_c, 0, 87, 87
2, 55580, Note_on_c, 0, 82, 75
2, 55581, Note_on_c, 0, 79, 78
2, 55581, Note_on_c, 0, 76, 85
2, 55611, Note_on_c, 0, 87, 0
2, 55612, Note_on_c, 0, 75, 0
2, 55613, Note_on_c, 0, 79, 0
2, 55613, Control_c, 0, 64, 127
2, 55619, Note_on_c, 0, 82, 0
2, 55621, Note_on_c, 0, 76, 0
2, 55629, Control_c, 0, 64, 0
2, 55640, Note_on_c, 0, 82, 75
2, 55642, Note_on_c, 0, 85, 71
2, 55642, Note_on_c, 0, 73, 53
2, 55643, Note_on_c, 0, 76, 56
2, 55644, Note_on_c, 0, 79, 58
2, 55658, Note_on_c, 0, 79, 0
2, 55658, Note_on_c, 0, 85, 0
2, 55658, Control_c, 0, 64, 127
2, 55663, Note_on_c, 0, 82, 0
2, 55664, Note_on_c, 0, 73, 0
2, 55669, Note_on_c, 0, 76, 0
2, 55701, Control_c, 0, 64, 0
2, 55714, Note_on_c, 0, 82, 74
2, 55716, Note_on_c, 0, 70, 75
2, 55716, Note_on_c, 0, 75, 80
2, 55718, Note_on_c, 0, 71, 74
2, 55719, Note_on_c, 0, 78, 52
2, 55750, Control_c, 0, 64, 127
2, 55754, Note_on_c, 0, 75, 0
2, 55760, Note_on_c, 0, 82, 0
2, 55761, Note_on_c, 0, 78, 0
2, 55761, Note_on_c, 0, 71, 0
2, 55761, Control_c, 0, 64, 0
2, 55762, Note_on_c, 0, 70, 0
2, 55770, Note_on_c, 0, 80, 52
2, 55774, Note_on_c, 0, 68, 53
2, 55775, Note_on_c, 0, 78, 38
2, 55775, Note_on_c, 0, 71, 49
2, 55776, Note_on_c, 0, 75, 47
2, 55783, Note_on_c, 0, 78, 0
2, 55784, Note_on_c, 0, 75, 0
2, 55789, Note_on_c, 0, 80, 0
2, 55791, Note_on_c, 0, 68, 0
2, 55792, Note_on_c, 0, 71, 0
2, 55808, Control_c, 0, 64, 127
2, 55820, Control_c, 0, 64, 0
2, 55860, Control_c, 0, 64, 127
2, 55875, Control_c, 0, 64, 0
2, 55880, Note_on_c, 0, 75, 73
2, 55880, Note_on_c, 0, 71, 71
2, 55880, Note_on_c, 0, 63, 62
2, 55881, Note_on_c, 0, 68, 57
2, 55896, Note_on_c, 0, 71, 0
2, 55900, Control_c, 0, 64, 127
2, 55906, Note_on_c, 0, 68, 0
2, 55906, Note_on_c, 0, 63, 0
2, 55909, Note_on_c, 0, 75, 0
2, 55932, Control_c, 0, 64, 0
2, 55938, Note_on_c, 0, 60, 51
2, 55940, Note_on_c, 0, 71, 64
2, 55943, Note_on_c, 0, 68, 45
2, 55947, Note_on_c, 0, 65, 38
2, 55950, Note_on_c, 0, 68, 0
2, 55954, Note_on_c, 0, 71, 0
2, 55961, Note_on_c, 0, 65, 0
2, 55961, Control_c, 0, 64, 127
2, 55963, Note_on_c, 0, 60, 0
2, 56004, Note_on_c, 0, 68, 52
2, 56005, Note_on_c, 0, 63, 34
2, 56006, Control_c, 0, 64, 0
2, 56010, Note_on_c, 0, 60, 36
2, 56011, Note_on_c, 0, 56, 37
2, 56035, Control_c, 0, 64, 127
2, 56046, Note_on_c, 0, 63, 0
2, 56048, Note_on_c, 0, 56, 0
2, 56054, Note_on_c, 0, 60, 0
2, 56087, Note_on_c, 0, 63, 53
2, 56110, Note_on_c, 0, 63, 0
2, 56119, Note_on_c, 0, 60, 34
2, 56121, Note_on_c, 0, 68, 0
2, 56138, Note_on_c, 0, 60, 0
2, 56140, Note_on_c, 0, 54, 14
2, 56157, Note_on_c, 0, 54, 0
2, 56165, Note_on_c, 0, 63, 37
2, 56166, Note_on_c, 0, 59, 45
2, 56166, Note_on_c, 0, 70, 43
2, 56166, Note_on_c, 0, 65, 44
2, 56166, Note_on_c, 0, 58, 37
2, 56168, Control_c, 0, 64, 0
2, 56227, Note_on_c, 0, 70, 0
2, 56232, Note_on_c, 0, 68, 59
2, 56258, Note_on_c, 0, 65, 0
2, 56272, Control_c, 0, 64, 127
2, 56275, Note_on_c, 0, 63, 0
2, 56285, Note_on_c, 0, 59, 0
2, 56292, Note_on_c, 0, 65, 50
2, 56317, Note_on_c, 0, 58, 0
2, 56350, Note_on_c, 0, 63, 50
2, 56363, Note_on_c, 0, 65, 0
2, 56386, Note_on_c, 0, 68, 0
2, 56404, Note_on_c, 0, 63, 0
2, 56413, Note_on_c, 0, 59, 42
2, 56414, Note_on_c, 0, 62, 50
2, 56416, Note_on_c, 0, 56, 26
2, 56418, Note_on_c, 0, 46, 36
2, 56418, Control_c, 0, 64, 0
2, 56492, Control_c, 0, 64, 127
2, 56523, Note_on_c, 0, 56, 0
2, 56530, Note_on_c, 0, 46, 0
2, 56550, Note_on_c, 0, 59, 0
2, 56578, Note_on_c, 0, 59, 46
2, 56585, Note_on_c, 0, 62, 0
2, 56592, Note_on_c, 0, 59, 0
2, 56640, Note_on_c, 0, 39, 35
2, 56643, Note_on_c, 0, 66, 52
2, 56644, Note_on_c, 0, 61, 28
2, 56645, Note_on_c, 0, 54, 31
2, 56650, Control_c, 0, 64, 0
2, 56678, Control_c, 0, 64, 127
2, 56708, Note_on_c, 0, 66, 0
2, 56715, Note_on_c, 0, 61, 0
2, 56717, Note_on_c, 0, 46, 50
2, 56740, Note_on_c, 0, 54, 0
2, 56772, Note_on_c, 0, 39, 0
2, 56773, Note_on_c, 0, 54, 46
2, 56787, Note_on_c, 0, 46, 0
2, 56791, Note_on_c, 0, 54, 0
2, 56815, Note_on_c, 0, 60, 57
2, 56832, Note_on_c, 0, 60, 0
2, 56835, Note_on_c, 0, 61, 39
2, 56852, Note_on_c, 0, 63, 54
2, 56854, Note_on_c, 0, 61, 0
2, 56867, Note_on_c, 0, 63, 0
2, 56873, Note_on_c, 0, 65, 73
2, 56888, Note_on_c, 0, 66, 61
2, 56889, Note_on_c, 0, 65, 0
2, 56903, Note_on_c, 0, 68, 64
2, 56908, Note_on_c, 0, 66, 0
2, 56917, Control_c, 0, 64, 0
2, 56920, Note_on_c, 0, 70, 60
2, 56922, Note_on_c, 0, 68, 0
2, 56929, Note_on_c, 0, 70, 0
2, 56939, Note_on_c, 0, 72, 59
2, 56949, Note_on_c, 0, 72, 0
2, 56954, Note_on_c, 0, 73, 36
2, 56971, Note_on_c, 0, 73, 0
2, 56971, Note_on_c, 0, 75, 48
2, 56986, Note_on_c, 0, 75, 0
2, 56995, Note_on_c, 0, 77, 41
2, 57010, Note_on_c, 0, 77, 0
2, 57017, Note_on_c, 0, 78, 57
2, 57028, Note_on_c, 0, 58, 39
2, 57030, Note_on_c, 0, 78, 0
2, 57031, Note_on_c, 0, 49, 33
2, 57060, Note_on_c, 0, 80, 47
2, 57070, Note_on_c, 0, 80, 0
2, 57091, Note_on_c, 0, 82, 60
2, 57107, Note_on_c, 0, 82, 0
2, 57121, Note_on_c, 0, 84, 57
2, 57127, Note_on_c, 0, 49, 0
2, 57135, Control_c, 0, 64, 127
2, 57139, Note_on_c, 0, 84, 0
2, 57145, Note_on_c, 0, 58, 0
2, 57162, Control_c, 0, 64, 0
2, 57165, Note_on_c, 0, 85, 67
2, 57211, Note_on_c, 0, 87, 70
2, 57215, Note_on_c, 0, 85, 0
2, 57227, Note_on_c, 0, 87, 0
2, 57269, Control_c, 0, 64, 127
2, 57433, Control_c, 0, 64, 0
2, 57453, Control_c, 0, 64, 127
2, 57666, Note_on_c, 0, 69, 64
2, 57667, Note_on_c, 0, 59, 51
2, 57667, Note_on_c, 0, 62, 55
2, 57668, Note_on_c, 0, 64, 57
2, 57670, Note_on_c, 0, 55, 46
2, 57673, Control_c, 0, 64, 0
2, 57697, Control_c, 0, 64, 127
2, 57710, Note_on_c, 0, 55, 0
2, 57712, Note_on_c, 0, 69, 0
2, 57716, Note_on_c, 0, 59, 0
2, 57719, Note_on_c, 0, 62, 0
2, 57719, Note_on_c, 0, 64, 0
2, 57728, Note_on_c, 0, 69, 48
2, 57729, Note_on_c, 0, 55, 50
2, 57730, Note_on_c, 0, 62, 40
2, 57731, Note_on_c, 0, 59, 58
2, 57731, Note_on_c, 0, 64, 38
2, 57761, Note_on_c, 0, 59, 0
2, 57776, Note_on_c, 0, 62, 0
2, 57780, Note_on_c, 0, 64, 0
2, 57782, Note_on_c, 0, 69, 0
2, 57787, Note_on_c, 0, 45, 66
2, 57792, Note_on_c, 0, 55, 0
2, 57793, Note_on_c, 0, 45, 0
2, 57855, Note_on_c, 0, 62, 56
2, 57856, Note_on_c, 0, 81, 78
2, 57858, Note_on_c, 0, 55, 53
2, 57859, Note_on_c, 0, 76, 71
2, 57861, Note_on_c, 0, 74, 68
2, 57861, Note_on_c, 0, 69, 72
2, 57864, Note_on_c, 0, 79, 32
2, 57877, Note_on_c, 0, 69, 0
2, 57880, Note_on_c, 0, 74, 0
2, 57883, Note_on_c, 0, 76, 0
2, 57884, Note_on_c, 0, 62, 0
2, 57884, Note_on_c, 0, 79, 0
2, 57887, Note_on_c, 0, 55, 0
2, 57889, Note_on_c, 0, 81, 0
2, 57931, Note_on_c, 0, 84, 79
2, 57932, Note_on_c, 0, 55, 71
2, 57933, Note_on_c, 0, 61, 69
2, 57934, Note_on_c, 0, 66, 71
2, 57934, Note_on_c, 0, 81, 68
2, 57934, Note_on_c, 0, 77, 73
2, 57935, Control_c, 0, 64, 0
2, 57939, Note_on_c, 0, 72, 64
2, 57959, Control_c, 0, 64, 127
2, 57962, Note_on_c, 0, 72, 0
2, 57965, Note_on_c, 0, 77, 0
2, 57968, Note_on_c, 0, 81, 0
2, 57972, Note_on_c, 0, 84, 0
2, 57974, Note_on_c, 0, 55, 0
2, 57984, Note_on_c, 0, 66, 0
2, 57992, Note_on_c, 0, 61, 0
2, 58015, Note_on_c, 0, 88, 75
2, 58017, Note_on_c, 0, 66, 60
2, 58018, Note_on_c, 0, 61, 56
2, 58018, Note_on_c, 0, 55, 70
2, 58018, Note_on_c, 0, 85, 61
2, 58019, Note_on_c, 0, 81, 64
2, 58020, Control_c, 0, 64, 0
2, 58021, Note_on_c, 0, 76, 64
2, 58033, Control_c, 0, 64, 127
2, 58045, Note_on_c, 0, 81, 0
2, 58045, Note_on_c, 0, 88, 0
2, 58045, Note_on_c, 0, 66, 0
2, 58047, Note_on_c, 0, 85, 0
2, 58047, Note_on_c, 0, 55, 0
2, 58049, Note_on_c, 0, 76, 0
2, 58075, Note_on_c, 0, 61, 0
2, 58090, Note_on_c, 0, 61, 53
2, 58091, Note_on_c, 0, 85, 57
2, 58095, Note_on_c, 0, 54, 39
2, 58096, Control_c, 0, 64, 0
2, 58096, Note_on_c, 0, 81, 44
2, 58096, Note_on_c, 0, 64, 54
2, 58096, Note_on_c, 0, 59, 55
2, 58098, Note_on_c, 0, 73, 33
2, 58126, Control_c, 0, 64, 127
2, 58150, Note_on_c, 0, 85, 0
2, 58151, Note_on_c, 0, 81, 0
2, 58170, Note_on_c, 0, 59, 0
2, 58176, Note_on_c, 0, 73, 0
2, 58183, Note_on_c, 0, 54, 0
2, 58186, Note_on_c, 0, 64, 0
2, 58204, Note_on_c, 0, 61, 0
2, 58264, Note_on_c, 0, 78, 46
2, 58264, Note_on_c, 0, 81, 48
2, 58266, Note_on_c, 0, 73, 38
2, 58266, Note_on_c, 0, 61, 36
2, 58268, Note_on_c, 0, 54, 31
2, 58269, Note_on_c, 0, 64, 38
2, 58270, Note_on_c, 0, 69, 50
2, 58274, Note_on_c, 0, 59, 22
2, 58275, Control_c, 0, 64, 0
2, 58300, Control_c, 0, 64, 127
2, 58320, Note_on_c, 0, 69, 0
2, 58326, Note_on_c, 0, 59, 0
2, 58333, Note_on_c, 0, 73, 0
2, 58333, Note_on_c, 0, 64, 0
2, 58338, Note_on_c, 0, 61, 0
2, 58341, Note_on_c, 0, 78, 0
2, 58350, Note_on_c, 0, 81, 0
2, 58395, Note_on_c, 0, 61, 37
2, 58395, Note_on_c, 0, 64, 50
2, 58400, Note_on_c, 0, 59, 30
2, 58454, Note_on_c, 0, 90, 87
2, 58455, Control_c, 0, 64, 0
2, 58479, Note_on_c, 0, 90, 0
2, 58487, Note_on_c, 0, 54, 0
2, 58488, Note_on_c, 0, 91, 45
2, 58505, Note_on_c, 0, 64, 0
2, 58507, Note_on_c, 0, 91, 0
2, 58508, Note_on_c, 0, 61, 0
2, 58511, Note_on_c, 0, 59, 0
2, 58514, Note_on_c, 0, 93, 80
2, 58529, Note_on_c, 0, 93, 0
2, 58547, Note_on_c, 0, 90, 64
2, 58570, Note_on_c, 0, 90, 0
2, 58575, Note_on_c, 0, 66, 47
2, 58576, Note_on_c, 0, 62, 36
2, 58580, Note_on_c, 0, 86, 31
2, 58582, Note_on_c, 0, 59, 34
2, 58583, Note_on_c, 0, 55, 22
2, 58589, Note_on_c, 0, 86, 0
2, 58611, Note_on_c, 0, 88, 66
2, 58624, Note_on_c, 0, 88, 0
2, 58637, Note_on_c, 0, 90, 60
2, 58651, Note_on_c, 0, 90, 0
2, 58687, Note_on_c, 0, 86, 64
2, 58699, Note_on_c, 0, 86, 0
2, 58728, Note_on_c, 0, 83, 48
2, 58737, Note_on_c, 0, 83, 0
2, 58810, Note_on_c, 0, 62, 0
2, 58823, Note_on_c, 0, 59, 0
2, 58824, Note_on_c, 0, 55, 0
2, 58835, Note_on_c, 0, 66, 0
2, 58870, Note_on_c, 0, 66, 44
2, 58872, Note_on_c, 0, 61, 50
2, 58875, Note_on_c, 0, 55, 37
2, 58936, Note_on_c, 0, 83, 61
2, 58951, Note_on_c, 0, 83, 0
2, 58968, Note_on_c, 0, 84, 60
2, 58973, Note_on_c, 0, 66, 0
2, 58974, Note_on_c, 0, 84, 0
2, 58982, Note_on_c, 0, 55, 0
2, 58989, Note_on_c, 0, 86, 74
2, 59011, Note_on_c, 0, 86, 0
2, 59019, Note_on_c, 0, 88, 87
2, 59040, Note_on_c, 0, 88, 0
2, 59045, Note_on_c, 0, 64, 36
2, 59046, Note_on_c, 0, 54, 34
2, 59048, Note_on_c, 0, 85, 73
2, 59049, Note_on_c, 0, 59, 33
2, 59076, Note_on_c, 0, 85, 0
2, 59089, Note_on_c, 0, 81, 41
2, 59097, Note_on_c, 0, 81, 0
2, 59111, Note_on_c, 0, 83, 71
2, 59131, Note_on_c, 0, 83, 0
2, 59140, Note_on_c, 0, 85, 77
2, 59156, Note_on_c, 0, 85, 0
2, 59168, Note_on_c, 0, 81, 57
2, 59181, Note_on_c, 0, 81, 0
2, 59194, Note_on_c, 0, 59, 0
2, 59196, Note_on_c, 0, 64, 0
2, 59199, Note_on_c, 0, 54, 0
2, 59203, Note_on_c, 0, 61, 0
2, 59218, Note_on_c, 0, 81, 67
2, 59220, Note_on_c, 0, 61, 35
2, 59220, Note_on_c, 0, 64, 42
2, 59221, Note_on_c, 0, 54, 42
2, 59225, Note_on_c, 0, 59, 40
2, 59233, Note_on_c, 0, 81, 0
2, 59235, Note_on_c, 0, 59, 0
2, 59239, Note_on_c, 0, 64, 0
2, 59244, Note_on_c, 0, 61, 0
2, 59248, Note_on_c, 0, 54, 0
2, 59278, Note_on_c, 0, 81, 60
2, 59280, Note_on_c, 0, 61, 35
2, 59281, Note_on_c, 0, 64, 38
2, 59283, Note_on_c, 0, 54, 25
2, 59283, Note_on_c, 0, 59, 48
2, 59299, Note_on_c, 0, 81, 0
2, 59310, Note_on_c, 0, 78, 49
2, 59344, Note_on_c, 0, 78, 0
2, 59347, Note_on_c, 0, 74, 17
2, 59355, Note_on_c, 0, 64, 0
2, 59361, Note_on_c, 0, 59, 0
2, 59370, Control_c, 0, 64, 127
2, 59375, Note_on_c, 0, 61, 0
2, 59382, Note_on_c, 0, 74, 0
2, 59411, Note_on_c, 0, 64, 58
2, 59412, Note_on_c, 0, 81, 81
2, 59413, Note_on_c, 0, 61, 37
2, 59415, Control_c, 0, 64, 0
2, 59418, Note_on_c, 0, 59, 24
2, 59446, Note_on_c, 0, 64, 0
2, 59447, Note_on_c, 0, 77, 51
2, 59454, Note_on_c, 0, 81, 0
2, 59460, Control_c, 0, 64, 127
2, 59469, Note_on_c, 0, 77, 0
2, 59471, Note_on_c, 0, 72, 54
2, 59483, Note_on_c, 0, 72, 0
2, 59493, Control_c, 0, 64, 0
2, 59522, Note_on_c, 0, 59, 0
2, 59526, Note_on_c, 0, 84, 92
2, 59529, Note_on_c, 0, 54, 0
2, 59551, Note_on_c, 0, 81, 53
2, 59554, Note_on_c, 0, 61, 0
2, 59561, Note_on_c, 0, 84, 0
2, 59568, Note_on_c, 0, 77, 55
2, 59577, Note_on_c, 0, 81, 0
2, 59580, Control_c, 0, 64, 127
2, 59586, Note_on_c, 0, 72, 51
2, 59587, Note_on_c, 0, 77, 0
2, 59596, Note_on_c, 0, 72, 0
2, 59599, Control_c, 0, 64, 0
2, 59655, Note_on_c, 0, 88, 92
2, 59667, Note_on_c, 0, 84, 57
2, 59688, Note_on_c, 0, 81, 57
2, 59690, Note_on_c, 0, 88, 0
2, 59696, Note_on_c, 0, 84, 0
2, 59703, Note_on_c, 0, 81, 0
2, 59707, Note_on_c, 0, 77, 26
2, 59718, Note_on_c, 0, 77, 0
2, 59771, Note_on_c, 0, 64, 59
2, 59771, Note_on_c, 0, 91, 83
2, 59776, Note_on_c, 0, 56, 28
2, 59776, Note_on_c, 0, 59, 41
2, 59779, Note_on_c, 0, 90, 30
2, 59784, Note_on_c, 0, 53, 18
2, 59785, Note_on_c, 0, 90, 0
2, 59789, Note_on_c, 0, 64, 0
2, 59791, Note_on_c, 0, 53, 0
2, 59795, Note_on_c, 0, 87, 53
2, 59798, Note_on_c, 0, 59, 0
2, 59802, Note_on_c, 0, 56, 0
2, 59803, Control_c, 0, 64, 127
2, 59813, Note_on_c, 0, 91, 0
2, 59815, Note_on_c, 0, 83, 30
2, 59818, Control_c, 0, 64, 0
2, 59820, Control_c, 0, 64, 127
2, 59821, Note_on_c, 0, 87, 0
2, 59828, Note_on_c, 0, 79, 56
2, 59829, Note_on_c, 0, 83, 0
2, 59839, Note_on_c, 0, 79, 0
2, 59847, Control_c, 0, 64, 0
2, 59909, Note_on_c, 0, 56, 56
2, 59909, Note_on_c, 0, 64, 76
2, 59909, Note_on_c, 0, 94, 93
2, 59910, Note_on_c, 0, 59, 66
2, 59912, Note_on_c, 0, 82, 79
2, 59913, Note_on_c, 0, 53, 57
2, 59916, Note_on_c, 0, 87, 42
2, 59922, Note_on_c, 0, 87, 0
2, 59928, Control_c, 0, 64, 127
2, 59958, Note_on_c, 0, 64, 0
2, 59959, Note_on_c, 0, 82, 0
2, 59959, Note_on_c, 0, 53, 0
2, 59963, Note_on_c, 0, 92, 47
2, 59969, Note_on_c, 0, 56, 0
2, 59969, Note_on_c, 0, 90, 49
2, 59970, Note_on_c, 0, 59, 0
2, 59977, Control_c, 0, 64, 0
2, 59978, Note_on_c, 0, 94, 0
2, 59978, Note_on_c, 0, 87, 64
2, 59982, Note_on_c, 0, 63, 59
2, 59986, Note_on_c, 0, 56, 28
2, 59989, Note_on_c, 0, 59, 44
2, 59989, Note_on_c, 0, 80, 46
2, 59992, Note_on_c, 0, 63, 0
2, 59998, Note_on_c, 0, 92, 0
2, 59998, Control_c, 0, 64, 127
2, 59999, Note_on_c, 0, 59, 0
2, 60004, Note_on_c, 0, 87, 0
2, 60005, Note_on_c, 0, 90, 0
2, 60013, Note_on_c, 0, 56, 0
2, 60016, Note_on_c, 0, 80, 0
2, 60027, Control_c, 0, 64, 0
2, 60041, Note_on_c, 0, 92, 23
2, 60048, Note_on_c, 0, 92, 0
2, 60122, Note_on_c, 0, 95, 95
2, 60122, Note_on_c, 0, 67, 76
2, 60123, Note_on_c, 0, 83, 80
2, 60124, Note_on_c, 0, 62, 59
2, 60124, Note_on_c, 0, 88, 74
2, 60124, Note_on_c, 0, 64, 60
2, 60130, Note_on_c, 0, 88, 0
2, 60141, Note_on_c, 0, 67, 0
2, 60141, Control_c, 0, 64, 127
2, 60148, Note_on_c, 0, 93, 20
2, 60149, Note_on_c, 0, 83, 0
2, 60151, Note_on_c, 0, 91, 55
2, 60170, Note_on_c, 0, 95, 0
2, 60171, Note_on_c, 0, 88, 62
2, 60183, Note_on_c, 0, 93, 0
2, 60184, Note_on_c, 0, 91, 0
2, 60186, Note_on_c, 0, 55, 60
2, 60186, Note_on_c, 0, 83, 49
2, 60193, Note_on_c, 0, 88, 0
2, 60193, Control_c, 0, 64, 0
2, 60194, Note_on_c, 0, 83, 0
2, 60201, Note_on_c, 0, 64, 0
2, 60203, Note_on_c, 0, 62, 0
2, 60205, Note_on_c, 0, 55, 0
2, 60232, Note_on_c, 0, 91, 78
2, 60232, Note_on_c, 0, 64, 33
2, 60233, Note_on_c, 0, 62, 35
2, 60235, Note_on_c, 0, 86, 68
2, 60235, Note_on_c, 0, 67, 56
2, 60235, Note_on_c, 0, 79, 53
2, 60247, Note_on_c, 0, 67, 0
2, 60250, Note_on_c, 0, 86, 0
2, 60251, Note_on_c, 0, 79, 0
2, 60254, Note_on_c, 0, 91, 0
2, 60254, Note_on_c, 0, 62, 0
2, 60256, Note_on_c, 0, 64, 0
2, 60280, Note_on_c, 0, 82, 27
2, 60288, Note_on_c, 0, 82, 0
2, 60297, Note_on_c, 0, 88, 74
2, 60300, Note_on_c, 0, 83, 67
2, 60300, Note_on_c, 0, 62, 35
2, 60300, Note_on_c, 0, 67, 48
2, 60303, Note_on_c, 0, 64, 36
2, 60313, Note_on_c, 0, 67, 0
2, 60313, Note_on_c, 0, 83, 0
2, 60320, Note_on_c, 0, 88, 0
2, 60320, Control_c, 0, 64, 127
2, 60323, Note_on_c, 0, 62, 0
2, 60324, Note_on_c, 0, 64, 0
2, 60348, Control_c, 0, 64, 0
2, 60358, Note_on_c, 0, 86, 72
2, 60360, Control_c, 0, 64, 127
2, 60362, Note_on_c, 0, 67, 48
2, 60362, Note_on_c, 0, 64, 60
2, 60364, Note_on_c, 0, 74, 54
2, 60366, Note_on_c, 0, 62, 31
2, 60378, Note_on_c, 0, 74, 0
2, 60383, Note_on_c, 0, 62, 0
2, 60387, Note_on_c, 0, 83, 46
2, 60393, Note_on_c, 0, 86, 0
2, 60393, Note_on_c, 0, 84, 24
2, 60404, Note_on_c, 0, 67, 0
2, 60415, Note_on_c, 0, 79, 50
2, 60416, Note_on_c, 0, 84, 0
2, 60416, Note_on_c, 0, 64, 0
2, 60425, Note_on_c, 0, 83, 0
2, 60438, Note_on_c, 0, 79, 0
2, 60461, Note_on_c, 0, 74, 35
2, 60469, Note_on_c, 0, 74, 0
2, 60488, Note_on_c, 0, 84, 53
2, 60490, Note_on_c, 0, 65, 57
2, 60490, Control_c, 0, 64, 0
2, 60491, Note_on_c, 0, 72, 62
2, 60492, Note_on_c, 0, 57, 41
2, 60492, Note_on_c, 0, 60, 44
2, 60494, Note_on_c, 0, 55, 39
2, 60530, Control_c, 0, 64, 127
2, 60580, Note_on_c, 0, 57, 0
2, 60580, Note_on_c, 0, 65, 0
2, 60588, Note_on_c, 0, 60, 0
2, 60611, Note_on_c, 0, 60, 38
2, 60612, Note_on_c, 0, 65, 55
2, 60613, Note_on_c, 0, 57, 34
2, 60633, Note_on_c, 0, 55, 0
2, 60668, Note_on_c, 0, 72, 0
2, 60671, Note_on_c, 0, 57, 0
2, 60673, Note_on_c, 0, 84, 0
2, 60675, Note_on_c, 0, 81, 56
2, 60686, Note_on_c, 0, 55, 37
2, 60698, Note_on_c, 0, 65, 0
2, 60701, Note_on_c, 0, 60, 0
2, 60701, Note_on_c, 0, 81, 0
2, 60704, Note_on_c, 0, 77, 43
2, 60708, Note_on_c, 0, 55, 0
2, 60724, Note_on_c, 0, 77, 0
2, 60733, Note_on_c, 0, 64, 47
2, 60734, Note_on_c, 0, 59, 40
2, 60735, Note_on_c, 0, 83, 55
2, 60736, Note_on_c, 0, 71, 51
2, 60739, Note_on_c, 0, 53, 33
2, 60739, Control_c, 0, 64, 0
2, 60777, Control_c, 0, 64, 127
2, 60857, Note_on_c, 0, 53, 0
2, 60864, Note_on_c, 0, 64, 0
2, 60864, Note_on_c, 0, 59, 0
2, 60902, Note_on_c, 0, 71, 0
2, 60912, Note_on_c, 0, 83, 0
2, 60914, Note_on_c, 0, 79, 48
2, 60937, Note_on_c, 0, 79, 0
2, 60946, Note_on_c, 0, 71, 38
2, 60961, Note_on_c, 0, 71, 0
2, 60976, Note_on_c, 0, 74, 61
2, 60976, Note_on_c, 0, 64, 44
2, 60977, Note_on_c, 0, 55, 36
2, 60978, Note_on_c, 0, 60, 43
2, 60983, Control_c, 0, 64, 0
2, 61024, Control_c, 0, 64, 127
2, 61068, Note_on_c, 0, 64, 0
2, 61081, Note_on_c, 0, 60, 0
2, 61127, Note_on_c, 0, 60, 24
2, 61139, Note_on_c, 0, 74, 0
2, 61141, Note_on_c, 0, 60, 0
2, 61145, Note_on_c, 0, 72, 85
2, 61151, Note_on_c, 0, 74, 50
2, 61157, Note_on_c, 0, 55, 0
2, 61159, Note_on_c, 0, 74, 0
2, 61166, Note_on_c, 0, 72, 0
2, 61211, Note_on_c, 0, 74, 64
2, 61215, Note_on_c, 0, 70, 60
2, 61217, Note_on_c, 0, 67, 65
2, 61220, Note_on_c, 0, 62, 68
2, 61221, Control_c, 0, 64, 0
2, 61222, Note_on_c, 0, 64, 61
2, 61228, Note_on_c, 0, 64, 0
2, 61237, Note_on_c, 0, 64, 15
2, 61254, Control_c, 0, 64, 127
2, 61278, Note_on_c, 0, 64, 0
2, 61279, Note_on_c, 0, 67, 0
2, 61285, Note_on_c, 0, 74, 0
2, 61286, Note_on_c, 0, 70, 0
2, 61294, Note_on_c, 0, 62, 0
2, 61326, Note_on_c, 0, 76, 58
2, 61328, Note_on_c, 0, 68, 63
2, 61329, Note_on_c, 0, 72, 64
2, 61333, Note_on_c, 0, 64, 60
2, 61333, Note_on_c, 0, 60, 58
2, 61335, Control_c, 0, 64, 0
2, 61360, Control_c, 0, 64, 127
2, 61366, Note_on_c, 0, 60, 0
2, 61374, Note_on_c, 0, 64, 0
2, 61386, Note_on_c, 0, 72, 0
2, 61387, Note_on_c, 0, 68, 0
2, 61398, Note_on_c, 0, 76, 0
2, 61458, Note_on_c, 0, 66, 33
2, 61459, Note_on_c, 0, 78, 51
2, 61460, Note_on_c, 0, 69, 48
2, 61460, Note_on_c, 0, 62, 27
2, 61462, Note_on_c, 0, 57, 35
2, 61463, Control_c, 0, 64, 0
2, 61489, Control_c, 0, 64, 127
2, 61494, Note_on_c, 0, 62, 0
2, 61506, Note_on_c, 0, 78, 0
2, 61508, Note_on_c, 0, 66, 0
2, 61508, Note_on_c, 0, 57, 0
2, 61512, Note_on_c, 0, 69, 0
2, 61557, Control_c, 0, 64, 0
2, 61559, Note_on_c, 0, 71, 72
2, 61559, Note_on_c, 0, 63, 59
2, 61559, Note_on_c, 0, 61, 56
2, 61560, Note_on_c, 0, 67, 67
2, 61561, Note_on_c, 0, 65, 70
2, 61562, Note_on_c, 0, 69, 60
2, 61569, Note_on_c, 0, 67, 0
2, 61571, Note_on_c, 0, 69, 0
2, 61572, Note_on_c, 0, 65, 0
2, 61573, Note_on_c, 0, 61, 0
2, 61574, Note_on_c, 0, 63, 0
2, 61582, Note_on_c, 0, 71, 0
2, 61626, Note_on_c, 0, 75, 67
2, 61629, Note_on_c, 0, 73, 30
2, 61631, Note_on_c, 0, 83, 69
2, 61631, Note_on_c, 0, 79, 57
2, 61631, Note_on_c, 0, 77, 64
2, 61632, Note_on_c, 0, 81, 60
2, 61638, Note_on_c, 0, 81, 0
2, 61640, Note_on_c, 0, 79, 0
2, 61641, Note_on_c, 0, 75, 0
2, 61642, Note_on_c, 0, 73, 0
2, 61644, Note_on_c, 0, 77, 0
2, 61647, Note_on_c, 0, 83, 0
2, 61752, Note_on_c, 0, 71, 52
2, 61753, Note_on_c, 0, 65, 55
2, 61754, Note_on_c, 0, 63, 37
2, 61754, Note_on_c, 0, 67, 47
2, 61754, Note_on_c, 0, 69, 46
2, 61755, Note_on_c, 0, 61, 39
2, 61787, Control_c, 0, 64, 127
2, 61813, Note_on_c, 0, 69, 0
2, 61825, Note_on_c, 0, 63, 0
2, 61832, Note_on_c, 0, 61, 0
2, 61835, Note_on_c, 0, 65, 0
2, 61836, Note_on_c, 0, 67, 0
2, 61841, Note_on_c, 0, 71, 0
2, 61853, Note_on_c, 0, 69, 62
2, 61882, Note_on_c, 0, 69, 0
2, 61886, Note_on_c, 0, 67, 60
2, 61906, Note_on_c, 0, 67, 0
2, 61919, Control_c, 0, 64, 0
2, 61923, Note_on_c, 0, 52, 29
2, 61924, Note_on_c, 0, 66, 46
2, 61924, Note_on_c, 0, 62, 16
2, 61925, Note_on_c, 0, 57, 35
2, 61962, Note_on_c, 0, 69, 58
2, 61966, Note_on_c, 0, 66, 0
2, 61983, Note_on_c, 0, 62, 0
2, 61993, Note_on_c, 0, 67, 36
2, 62011, Note_on_c, 0, 67, 0
2, 62015, Note_on_c, 0, 69, 0
2, 62018, Note_on_c, 0, 57, 0
2, 62028, Note_on_c, 0, 64, 58
2, 62043, Note_on_c, 0, 64, 0
2, 62063, Note_on_c, 0, 57, 53
2, 62088, Note_on_c, 0, 52, 0
2, 62092, Note_on_c, 0, 57, 0
2, 62111, Note_on_c, 0, 57, 58
2, 62132, Control_c, 0, 64, 127
2, 62133, Note_on_c, 0, 57, 0
2, 62161, Control_c, 0, 64, 0
2, 62166, Note_on_c, 0, 46, 50
2, 62167, Note_on_c, 0, 56, 34
2, 62214, Note_on_c, 0, 57, 38
2, 62221, Note_on_c, 0, 57, 0
2, 62237, Note_on_c, 0, 60, 66
2, 62242, Note_on_c, 0, 46, 0
2, 62249, Note_on_c, 0, 56, 0
2, 62257, Note_on_c, 0, 60, 0
2, 62263, Note_on_c, 0, 67, 67
2, 62271, Note_on_c, 0, 67, 0
2, 62282, Note_on_c, 0, 67, 75
2, 62287, Note_on_c, 0, 61, 19
2, 62300, Note_on_c, 0, 61, 0
2, 62300, Note_on_c, 0, 67, 0
2, 62305, Note_on_c, 0, 72, 32
2, 62320, Note_on_c, 0, 72, 0
2, 62325, Note_on_c, 0, 79, 56
2, 62330, Note_on_c, 0, 62, 38
2, 62335, Note_on_c, 0, 56, 21
2, 62336, Note_on_c, 0, 79, 0
2, 62340, Note_on_c, 0, 67, 11
2, 62349, Note_on_c, 0, 79, 51
2, 62366, Note_on_c, 0, 84, 47
2, 62369, Note_on_c, 0, 67, 0
2, 62374, Note_on_c, 0, 79, 0
2, 62380, Note_on_c, 0, 62, 0
2, 62380, Note_on_c, 0, 88, 45
2, 62390, Note_on_c, 0, 84, 0
2, 62403, Note_on_c, 0, 88, 0
2, 62403, Note_on_c, 0, 91, 82
2, 62405, Note_on_c, 0, 56, 0
2, 62424, Note_on_c, 0, 91, 0
2, 62476, Note_on_c, 0, 66, 63
2, 62476, Note_on_c, 0, 61, 62
2, 62477, Note_on_c, 0, 55, 64
2, 62581, Note_on_c, 0, 55, 0
2, 62592, Note_on_c, 0, 66, 0
2, 62605, Note_on_c, 0, 61, 0
2, 62692, Note_on_c, 0, 66, 81
2, 62693, Note_on_c, 0, 61, 68
2, 62693, Note_on_c, 0, 89, 90
2, 62694, Note_on_c, 0, 55, 80
2, 62697, Control_c, 0, 64, 127
2, 62717, Note_on_c, 0, 55, 0
2, 62718, Note_on_c, 0, 89, 0
2, 62718, Note_on_c, 0, 66, 0
2, 62725, Note_on_c, 0, 61, 0
2, 62733, Note_on_c, 0, 89, 80
2, 62733, Note_on_c, 0, 66, 61
2, 62735, Note_on_c, 0, 55, 62
2, 62735, Note_on_c, 0, 61, 67
2, 62755, Note_on_c, 0, 66, 0
2, 62756, Note_on_c, 0, 55, 0
2, 62764, Note_on_c, 0, 89, 0
2, 62767, Note_on_c, 0, 81, 71
2, 62767, Note_on_c, 0, 66, 53
2, 62771, Note_on_c, 0, 55, 55
2, 62783, Note_on_c, 0, 81, 0
2, 62784, Note_on_c, 0, 66, 0
2, 62786, Note_on_c, 0, 55, 0
2, 62793, Note_on_c, 0, 61, 0
2, 62799, Note_on_c, 0, 66, 51
2, 62801, Note_on_c, 0, 61, 25
2, 62802, Note_on_c, 0, 81, 67
2, 62803, Note_on_c, 0, 55, 33
2, 62815, Note_on_c, 0, 55, 0
2, 62819, Note_on_c, 0, 81, 0
2, 62827, Note_on_c, 0, 66, 0
2, 62832, Note_on_c, 0, 85, 86
2, 62847, Note_on_c, 0, 85, 0
2, 62851, Note_on_c, 0, 61, 0
2, 62862, Note_on_c, 0, 85, 74
2, 62864, Note_on_c, 0, 61, 39
2, 62866, Note_on_c, 0, 54, 39
2, 62867, Note_on_c, 0, 64, 44
2, 62882, Note_on_c, 0, 64, 0
2, 62885, Note_on_c, 0, 85, 0
2, 62894, Control_c, 0, 64, 0
2, 62894, Note_on_c, 0, 64, 57
2, 62895, Note_on_c, 0, 88, 83
2, 62899, Note_on_c, 0, 59, 37
2, 62919, Note_on_c, 0, 88, 0
2, 62921, Control_c, 0, 64, 127
2, 62923, Note_on_c, 0, 64, 0
2, 62924, Note_on_c, 0, 59, 0
2, 62927, Note_on_c, 0, 54, 0
2, 62927, Note_on_c, 0, 61, 0
2, 62940, Note_on_c, 0, 88, 75
2, 62943, Note_on_c, 0, 54, 53
2, 62943, Note_on_c, 0, 64, 44
2, 62944, Note_on_c, 0, 61, 33
2, 62956, Note_on_c, 0, 64, 0
2, 62957, Note_on_c, 0, 61, 0
2, 62963, Note_on_c, 0, 54, 0
2, 62974, Note_on_c, 0, 88, 0
2, 62993, Note_on_c, 0, 88, 49
2, 62997, Control_c, 0, 64, 0
2, 62997, Note_on_c, 0, 57, 51
2, 62997, Note_on_c, 0, 64, 38
2, 62999, Note_on_c, 0, 53, 27
2, 62999, Note_on_c, 0, 60, 33
2, 63018, Control_c, 0, 64, 127
2, 63027, Note_on_c, 0, 57, 0
2, 63027, Note_on_c, 0, 88, 0
2, 63030, Note_on_c, 0, 64, 0
2, 63032, Note_on_c, 0, 53, 0
2, 63033, Note_on_c, 0, 60, 0
2, 63049, Note_on_c, 0, 88, 70
2, 63049, Note_on_c, 0, 64, 35
2, 63051, Note_on_c, 0, 60, 50
2, 63052, Note_on_c, 0, 57, 39
2, 63053, Note_on_c, 0, 53, 34
2, 63071, Note_on_c, 0, 64, 0
2, 63076, Note_on_c, 0, 60, 0
2, 63078, Note_on_c, 0, 88, 0
2, 63080, Note_on_c, 0, 57, 0
2, 63082, Note_on_c, 0, 86, 46
2, 63086, Note_on_c, 0, 64, 27
2, 63095, Note_on_c, 0, 53, 0
2, 63097, Note_on_c, 0, 64, 0
2, 63103, Note_on_c, 0, 86, 0
2, 63120, Note_on_c, 0, 86, 55
2, 63122, Note_on_c, 0, 65, 64
2, 63123, Note_on_c, 0, 60, 39
2, 63124, Note_on_c, 0, 58, 44
2, 63124, Note_on_c, 0, 77, 45
2, 63124, Note_on_c, 0, 54, 37
2, 63127, Control_c, 0, 64, 0
2, 63152, Control_c, 0, 64, 127
2, 63183, Note_on_c, 0, 86, 0
2, 63184, Note_on_c, 0, 77, 0
2, 63191, Note_on_c, 0, 60, 0
2, 63201, Note_on_c, 0, 58, 0
2, 63204, Note_on_c, 0, 54, 0
2, 63207, Note_on_c, 0, 65, 0
2, 63293, Note_on_c, 0, 82, 59
2, 63294, Note_on_c, 0, 65, 58
2, 63295, Note_on_c, 0, 74, 52
2, 63296, Note_on_c, 0, 77, 43
2, 63298, Note_on_c, 0, 58, 29
2, 63300, Note_on_c, 0, 60, 29
2, 63301, Note_on_c, 0, 54, 29
2, 63307, Note_on_c, 0, 77, 0
2, 63311, Note_on_c, 0, 82, 0
2, 63313, Note_on_c, 0, 74, 0
2, 63320, Note_on_c, 0, 65, 0
2, 63325, Note_on_c, 0, 60, 0
2, 63345, Note_on_c, 0, 58, 0
2, 63349, Note_on_c, 0, 54, 0
2, 63365, Note_on_c, 0, 75, 64
2, 63369, Note_on_c, 0, 68, 44
2, 63370, Note_on_c, 0, 65, 47
2, 63370, Note_on_c, 0, 71, 47
2, 63371, Note_on_c, 0, 63, 46
2, 63376, Control_c, 0, 64, 0
2, 63405, Control_c, 0, 64, 127
2, 63472, Note_on_c, 0, 63, 0
2, 63481, Note_on_c, 0, 75, 0
2, 63484, Note_on_c, 0, 71, 0
2, 63493, Note_on_c, 0, 65, 0
2, 63515, Note_on_c, 0, 68, 0
2, 63545, Note_on_c, 0, 55, 69
2, 63546, Note_on_c, 0, 67, 76
2, 63547, Note_on_c, 0, 63, 68
2, 63595, Note_on_c, 0, 63, 0
2, 63595, Note_on_c, 0, 59, 57
2, 63596, Note_on_c, 0, 67, 0
2, 63599, Note_on_c, 0, 55, 0
2, 63611, Note_on_c, 0, 59, 0
2, 63614, Note_on_c, 0, 74, 89
2, 63614, Note_on_c, 0, 67, 76
2, 63615, Note_on_c, 0, 63, 83
2, 63616, Note_on_c, 0, 62, 90
2, 63619, Control_c, 0, 64, 0
2, 63654, Control_c, 0, 64, 127
2, 63675, Note_on_c, 0, 74, 0
2, 63678, Note_on_c, 0, 62, 0
2, 63683, Note_on_c, 0, 63, 0
2, 63690, Note_on_c, 0, 67, 0
2, 63695, Control_c, 0, 64, 0
2, 63697, Note_on_c, 0, 74, 68
2, 63699, Note_on_c, 0, 63, 64
2, 63699, Note_on_c, 0, 62, 44
2, 63699, Note_on_c, 0, 67, 56
2, 63715, Control_c, 0, 64, 127
2, 63755, Note_on_c, 0, 62, 0
2, 63768, Note_on_c, 0, 74, 0
2, 63778, Note_on_c, 0, 67, 0
2, 63782, Note_on_c, 0, 72, 66
2, 63798, Note_on_c, 0, 63, 0
2, 63811, Note_on_c, 0, 72, 0
2, 63813, Note_on_c, 0, 67, 52
2, 63839, Note_on_c, 0, 67, 0
2, 63852, Control_c, 0, 64, 0
2, 63854, Note_on_c, 0, 55, 36
2, 63854, Note_on_c, 0, 58, 37
2, 63855, Note_on_c, 0, 48, 36
2, 63858, Note_on_c, 0, 62, 58
2, 63923, Control_c, 0, 64, 127
2, 63965, Note_on_c, 0, 62, 0
2, 63970, Note_on_c, 0, 65, 62
2, 63983, Note_on_c, 0, 58, 0
2, 63986, Note_on_c, 0, 48, 0
2, 63987, Note_on_c, 0, 55, 0
2, 63997, Note_on_c, 0, 65, 0
2, 64000, Control_c, 0, 64, 0
2, 64002, Note_on_c, 0, 62, 46
2, 64022, Note_on_c, 0, 62, 0
2, 64034, Note_on_c, 0, 63, 62
2, 64058, Note_on_c, 0, 63, 0
2, 64068, Note_on_c, 0, 65, 57
2, 64087, Note_on_c, 0, 65, 0
2, 64097, Note_on_c, 0, 51, 35
2, 64102, Note_on_c, 0, 58, 17
2, 64102, Note_on_c, 0, 60, 38
2, 64131, Note_on_c, 0, 60, 0
2, 64131, Note_on_c, 0, 61, 51
2, 64153, Note_on_c, 0, 61, 0
2, 64155, Note_on_c, 0, 58, 0
2, 64158, Note_on_c, 0, 63, 62
2, 64183, Note_on_c, 0, 63, 0
2, 64221, Note_on_c, 0, 57, 30
2, 64231, Note_on_c, 0, 57, 0
2, 64247, Note_on_c, 0, 58, 42
2, 64251, Note_on_c, 0, 51, 0
2, 64270, Note_on_c, 0, 58, 0
2, 64278, Note_on_c, 0, 60, 58
2, 64308, Note_on_c, 0, 60, 0
2, 64330, Note_on_c, 0, 55, 48
2, 64335, Note_on_c, 0, 51, 29
2, 64335, Note_on_c, 0, 44, 23
2, 64362, Note_on_c, 0, 55, 0
2, 64364, Note_on_c, 0, 56, 47
2, 64373, Note_on_c, 0, 51, 0
2, 64386, Note_on_c, 0, 56, 0
2, 64390, Note_on_c, 0, 58, 53
2, 64413, Note_on_c, 0, 58, 0
2, 64446, Note_on_c, 0, 53, 49
2, 64461, Note_on_c, 0, 53, 0
2, 64469, Note_on_c, 0, 44, 0
2, 64476, Note_on_c, 0, 55, 44
2, 64491, Note_on_c, 0, 55, 0
2, 64496, Note_on_c, 0, 56, 49
2, 64519, Note_on_c, 0, 58, 53
2, 64522, Note_on_c, 0, 56, 0
2, 64525, Note_on_c, 0, 58, 0
2, 64539, Note_on_c, 0, 60, 58
2, 64553, Note_on_c, 0, 60, 0
2, 64556, Note_on_c, 0, 61, 43
2, 64556, Note_on_c, 0, 48, 36
2, 64569, Note_on_c, 0, 58, 6
2, 64570, Note_on_c, 0, 61, 0
2, 64574, Note_on_c, 0, 63, 42
2, 64584, Note_on_c, 0, 63, 0
2, 64593, Note_on_c, 0, 64, 59
2, 64607, Note_on_c, 0, 64, 0
2, 64615, Note_on_c, 0, 66, 42
2, 64616, Note_on_c, 0, 48, 0
2, 64621, Note_on_c, 0, 66, 0
2, 64631, Note_on_c, 0, 67, 63
2, 64638, Note_on_c, 0, 58, 0
2, 64646, Note_on_c, 0, 68, 36
2, 64650, Note_on_c, 0, 67, 0
2, 64652, Note_on_c, 0, 68, 0
2, 64656, Note_on_c, 0, 69, 38
2, 64669, Note_on_c, 0, 69, 0
2, 64669, Note_on_c, 0, 70, 64
2, 64682, Note_on_c, 0, 70, 0
2, 64690, Note_on_c, 0, 72, 58
2, 64690, Note_on_c, 0, 58, 32
2, 64693, Note_on_c, 0, 52, 32
2, 64704, Note_on_c, 0, 72, 0
2, 64707, Note_on_c, 0, 73, 31
2, 64710, Note_on_c, 0, 63, 1
2, 64728, Note_on_c, 0, 75, 38
2, 64729, Note_on_c, 0, 73, 0
2, 64735, Note_on_c, 0, 75, 0
2, 64742, Note_on_c, 0, 76, 41
2, 64745, Note_on_c, 0, 52, 0
2, 64756, Note_on_c, 0, 58, 0
2, 64757, Note_on_c, 0, 76, 0
2, 64761, Note_on_c, 0, 63, 0
2, 64762, Note_on_c, 0, 79, 82
2, 64778, Note_on_c, 0, 60, 34
2, 64780, Note_on_c, 0, 56, 31
2, 64784, Note_on_c, 0, 53, 35
2, 64790, Note_on_c, 0, 77, 60
2, 64793, Note_on_c, 0, 79, 0
2, 64811, Note_on_c, 0, 77, 0
2, 64816, Note_on_c, 0, 72, 53
2, 64829, Note_on_c, 0, 72, 0
2, 64839, Note_on_c, 0, 68, 33
2, 64856, Note_on_c, 0, 68, 0
2, 64882, Note_on_c, 0, 70, 64
2, 64891, Note_on_c, 0, 63, 29
2, 64901, Note_on_c, 0, 70, 0
2, 64909, Note_on_c, 0, 68, 68
2, 64936, Note_on_c, 0, 68, 0
2, 64943, Note_on_c, 0, 70, 42
2, 64954, Note_on_c, 0, 63, 0
2, 64960, Note_on_c, 0, 68, 38
2, 64964, Note_on_c, 0, 70, 0
2, 64969, Note_on_c, 0, 67, 47
2, 64976, Note_on_c, 0, 68, 0
2, 64982, Note_on_c, 0, 67, 0
2, 65003, Note_on_c, 0, 60, 0
2, 65008, Note_on_c, 0, 56, 0
2, 65011, Note_on_c, 0, 53, 0
2, 65167, Note_on_c, 0, 65, 63
2, 65169, Note_on_c, 0, 63, 28
2, 65171, Note_on_c, 0, 60, 37
2, 65177, Note_on_c, 0, 63, 0
2, 65178, Note_on_c, 0, 56, 23
2, 65182, Note_on_c, 0, 65, 0
2, 65186, Note_on_c, 0, 60, 0
2, 65198, Note_on_c, 0, 67, 62
2, 65211, Note_on_c, 0, 56, 0
2, 65216, Note_on_c, 0, 67, 0
2, 65221, Note_on_c, 0, 68, 63
2, 65242, Note_on_c, 0, 68, 0
2, 65250, Note_on_c, 0, 70, 70
2, 65265, Note_on_c, 0, 70, 0
2, 65275, Note_on_c, 0, 56, 35
2, 65277, Note_on_c, 0, 60, 46
2, 65278, Note_on_c, 0, 72, 73
2, 65283, Note_on_c, 0, 50, 24
2, 65300, Note_on_c, 0, 72, 0
2, 65313, Note_on_c, 0, 76, 66
2, 65330, Note_on_c, 0, 76, 0
2, 65341, Note_on_c, 0, 79, 88
2, 65366, Note_on_c, 0, 79, 0
2, 65374, Note_on_c, 0, 60, 0
2, 65374, Note_on_c, 0, 77, 64
2, 65378, Note_on_c, 0, 56, 0
2, 65398, Note_on_c, 0, 77, 0
2, 65400, Note_on_c, 0, 72, 49
2, 65421, Control_c, 0, 64, 127
2, 65428, Note_on_c, 0, 72, 0
2, 65428, Note_on_c, 0, 50, 0
2, 65438, Note_on_c, 0, 68, 51
2, 65445, Note_on_c, 0, 60, 36
2, 65447, Note_on_c, 0, 56, 25
2, 65453, Control_c, 0, 64, 0
2, 65454, Note_on_c, 0, 68, 0
2, 65459, Note_on_c, 0, 60, 0
2, 65471, Note_on_c, 0, 67, 40
2, 65477, Note_on_c, 0, 56, 0
2, 65495, Note_on_c, 0, 67, 0
2, 65501, Note_on_c, 0, 70, 60
2, 65530, Note_on_c, 0, 70, 0
2, 65533, Note_on_c, 0, 68, 40
2, 65560, Note_on_c, 0, 68, 0
2, 65563, Note_on_c, 0, 63, 47
2, 65589, Note_on_c, 0, 63, 0
2, 65590, Note_on_c, 0, 59, 28
2, 65627, Note_on_c, 0, 59, 0
2, 65650, Note_on_c, 0, 59, 40
2, 65652, Note_on_c, 0, 53, 24
2, 65679, Control_c, 0, 64, 127
2, 65690, Control_c, 0, 64, 0
2, 65703, Note_on_c, 0, 59, 0
2, 65704, Note_on_c, 0, 53, 0
2, 65704, Note_on_c, 0, 50, 32
2, 65706, Note_on_c, 0, 58, 47
2, 65717, Control_c, 0, 64, 127
2, 65752, Note_on_c, 0, 58, 0
2, 65754, Note_on_c, 0, 50, 0
2, 65764, Control_c, 0, 64, 0
2, 65765, Note_on_c, 0, 56, 37
2, 65767, Note_on_c, 0, 48, 34
2, 65816, Note_on_c, 0, 56, 0
2, 65829, Note_on_c, 0, 55, 38
2, 65840, Control_c, 0, 64, 127
2, 65869, Note_on_c, 0, 55, 0
2, 65889, Note_on_c, 0, 55, 51
2, 65906, Note_on_c, 0, 48, 0
2, 65936, Note_on_c, 0, 55, 0
2, 65946, Note_on_c, 0, 56, 58
2, 65962, Note_on_c, 0, 56, 0
2, 66005, Note_on_c, 0, 61, 56
2, 66005, Note_on_c, 0, 65, 69
2, 66008, Note_on_c, 0, 51, 50
2, 66017, Control_c, 0, 64, 0
2, 66049, Control_c, 0, 64, 127
2, 66062, Note_on_c, 0, 61, 0
2, 66067, Note_on_c, 0, 68, 77
2, 66069, Note_on_c, 0, 61, 34
2, 66069, Note_on_c, 0, 58, 53
2, 66104, Note_on_c, 0, 65, 0
2, 66110, Note_on_c, 0, 61, 0
2, 66110, Note_on_c, 0, 58, 0
2, 66116, Note_on_c, 0, 68, 0
2, 66132, Note_on_c, 0, 68, 71
2, 66133, Note_on_c, 0, 65, 82
2, 66133, Note_on_c, 0, 58, 64
2, 66133, Note_on_c, 0, 61, 70
2, 66134, Control_c, 0, 64, 0
2, 66139, Control_c, 0, 64, 127
2, 66163, Note_on_c, 0, 58, 0
2, 66183, Note_on_c, 0, 61, 0
2, 66185, Note_on_c, 0, 68, 0
2, 66190, Note_on_c, 0, 65, 0
2, 66193, Note_on_c, 0, 70, 76
2, 66194, Note_on_c, 0, 61, 67
2, 66195, Note_on_c, 0, 51, 0
2, 66197, Note_on_c, 0, 65, 30
2, 66198, Note_on_c, 0, 68, 55
2, 66212, Note_on_c, 0, 65, 0
2, 66228, Note_on_c, 0, 70, 0
2, 66232, Note_on_c, 0, 61, 0
2, 66239, Note_on_c, 0, 68, 0
2, 66257, Note_on_c, 0, 67, 62
2, 66258, Note_on_c, 0, 44, 54
2, 66259, Note_on_c, 0, 63, 49
2, 66260, Control_c, 0, 64, 0
2, 66260, Note_on_c, 0, 60, 49
2, 66298, Control_c, 0, 64, 127
2, 66301, Note_on_c, 0, 60, 0
2, 66310, Note_on_c, 0, 63, 0
2, 66310, Note_on_c, 0, 67, 0
2, 66314, Note_on_c, 0, 51, 58
2, 66323, Note_on_c, 0, 44, 0
2, 66331, Note_on_c, 0, 51, 0
2, 66380, Note_on_c, 0, 75, 70
2, 66383, Note_on_c, 0, 60, 65
2, 66384, Note_on_c, 0, 67, 59
2, 66385, Note_on_c, 0, 72, 45
2, 66429, Note_on_c, 0, 67, 0
2, 66438, Note_on_c, 0, 63, 58
2, 66439, Note_on_c, 0, 79, 74
2, 66449, Note_on_c, 0, 72, 0
2, 66453, Note_on_c, 0, 60, 0
2, 66464, Note_on_c, 0, 79, 0
2, 66466, Note_on_c, 0, 63, 0
2, 66467, Note_on_c, 0, 75, 0
2, 66503, Note_on_c, 0, 77, 57
2, 66504, Note_on_c, 0, 74, 60
2, 66507, Note_on_c, 0, 71, 54
2, 66509, Control_c, 0, 64, 0
2, 66510, Note_on_c, 0, 63, 39
2, 66511, Note_on_c, 0, 65, 50
2, 66554, Control_c, 0, 64, 127
2, 66597, Note_on_c, 0, 74, 0
2, 66599, Note_on_c, 0, 65, 0
2, 66600, Note_on_c, 0, 71, 0
2, 66604, Note_on_c, 0, 63, 0
2, 66618, Note_on_c, 0, 77, 0
2, 66624, Note_on_c, 0, 74, 36
2, 66625, Note_on_c, 0, 59, 38
2, 66626, Note_on_c, 0, 65, 43
2, 66631, Note_on_c, 0, 71, 22
2, 66683, Note_on_c, 0, 65, 0
2, 66687, Note_on_c, 0, 77, 58
2, 66710, Note_on_c, 0, 74, 0
2, 66711, Note_on_c, 0, 71, 0
2, 66715, Note_on_c, 0, 77, 0
2, 66728, Note_on_c, 0, 59, 0
2, 66745, Note_on_c, 0, 76, 47
2, 66748, Note_on_c, 0, 67, 34
2, 66748, Note_on_c, 0, 71, 33
2, 66751, Control_c, 0, 64, 0
2, 66752, Note_on_c, 0, 60, 28
2, 66787, Control_c, 0, 64, 127
2, 66794, Note_on_c, 0, 60, 0
2, 66802, Note_on_c, 0, 71, 0
2, 66807, Note_on_c, 0, 76, 0
2, 66808, Note_on_c, 0, 55, 37
2, 66809, Note_on_c, 0, 67, 0
2, 66863, Note_on_c, 0, 67, 40
2, 66868, Note_on_c, 0, 60, 43
2, 66870, Note_on_c, 0, 62, 14
2, 66916, Note_on_c, 0, 72, 66
2, 66939, Note_on_c, 0, 55, 0
2, 66940, Note_on_c, 0, 62, 0
2, 66945, Note_on_c, 0, 72, 0
2, 66951, Note_on_c, 0, 67, 0
2, 66957, Note_on_c, 0, 60, 0
2, 66981, Note_on_c, 0, 75, 88
2, 66983, Note_on_c, 0, 68, 80
2, 66985, Note_on_c, 0, 73, 50
2, 66985, Note_on_c, 0, 63, 80
2, 66986, Note_on_c, 0, 64, 57
2, 66991, Control_c, 0, 64, 0
2, 66992, Note_on_c, 0, 64, 0
2, 66993, Note_on_c, 0, 65, 25
2, 66999, Note_on_c, 0, 65, 0
2, 66999, Note_on_c, 0, 64, 28
2, 67031, Note_on_c, 0, 73, 0
2, 67035, Control_c, 0, 64, 127
2, 67053, Control_c, 0, 64, 0
2, 67060, Note_on_c, 0, 75, 0
2, 67066, Note_on_c, 0, 73, 50
2, 67071, Note_on_c, 0, 61, 56
2, 67076, Control_c, 0, 64, 127
2, 67079, Note_on_c, 0, 63, 0
2, 67118, Note_on_c, 0, 73, 0
2, 67123, Note_on_c, 0, 61, 0
2, 67133, Note_on_c, 0, 64, 0
2, 67140, Note_on_c, 0, 68, 0
2, 67146, Note_on_c, 0, 72, 64
2, 67172, Note_on_c, 0, 72, 0
2, 67182, Note_on_c, 0, 71, 38
2, 67193, Note_on_c, 0, 71, 0
2, 67219, Note_on_c, 0, 77, 48
2, 67222, Control_c, 0, 64, 0
2, 67223, Note_on_c, 0, 47, 44
2, 67258, Control_c, 0, 64, 127
2, 67272, Note_on_c, 0, 47, 0
2, 67351, Note_on_c, 0, 65, 43
2, 67354, Note_on_c, 0, 57, 31
2, 67355, Note_on_c, 0, 62, 29
2, 67427, Note_on_c, 0, 65, 0
2, 67427, Note_on_c, 0, 69, 44
2, 67430, Note_on_c, 0, 62, 0
2, 67430, Note_on_c, 0, 57, 0
2, 67431, Note_on_c, 0, 77, 0
2, 67448, Note_on_c, 0, 69, 0
2, 67448, Note_on_c, 0, 74, 55
2, 67463, Note_on_c, 0, 74, 0
2, 67469, Note_on_c, 0, 77, 80
2, 67479, Note_on_c, 0, 67, 51
2, 67479, Note_on_c, 0, 56, 39
2, 67480, Note_on_c, 0, 62, 42
2, 67482, Control_c, 0, 64, 0
2, 67497, Note_on_c, 0, 76, 66
2, 67509, Note_on_c, 0, 77, 0
2, 67535, Control_c, 0, 64, 127
2, 67592, Note_on_c, 0, 67, 0
2, 67623, Note_on_c, 0, 62, 0
2, 67642, Note_on_c, 0, 65, 22
2, 67648, Note_on_c, 0, 65, 0
2, 67669, Note_on_c, 0, 56, 0
2, 67676, Note_on_c, 0, 74, 48
2, 67694, Note_on_c, 0, 72, 45
2, 67705, Note_on_c, 0, 74, 0
2, 67712, Note_on_c, 0, 76, 0
2, 67714, Note_on_c, 0, 72, 0
2, 67717, Note_on_c, 0, 71, 48
2, 67726, Note_on_c, 0, 64, 31
2, 67729, Control_c, 0, 64, 0
2, 67730, Note_on_c, 0, 57, 33
2, 67730, Note_on_c, 0, 60, 36
2, 67731, Note_on_c, 0, 71, 0
2, 67731, Note_on_c, 0, 59, 26
2, 67739, Note_on_c, 0, 72, 42
2, 67782, Control_c, 0, 64, 127
2, 67901, Note_on_c, 0, 59, 0
2, 67912, Note_on_c, 0, 64, 0
2, 67915, Note_on_c, 0, 60, 0
2, 67929, Note_on_c, 0, 57, 0
2, 67965, Note_on_c, 0, 72, 0
2, 67999, Note_on_c, 0, 64, 38
2, 68004, Note_on_c, 0, 57, 33
2, 68006, Note_on_c, 0, 59, 27
2, 68008, Note_on_c, 0, 60, 27
2, 68077, Note_on_c, 0, 64, 0
2, 68079, Note_on_c, 0, 60, 0
2, 68084, Note_on_c, 0, 59, 0
2, 68091, Note_on_c, 0, 57, 0
2, 68098, Note_on_c, 0, 83, 73
2, 68101, Note_on_c, 0, 71, 61
2, 68102, Note_on_c, 0, 76, 51
2, 68111, Note_on_c, 0, 76, 0
2, 68116, Note_on_c, 0, 71, 0
2, 68123, Note_on_c, 0, 83, 0
2, 68131, Note_on_c, 0, 81, 53
2, 68143, Note_on_c, 0, 81, 0
2, 68161, Control_c, 0, 64, 0
2, 68161, Note_on_c, 0, 61, 46
2, 68162, Note_on_c, 0, 58, 45
2, 68163, Note_on_c, 0, 65, 54
2, 68164, Note_on_c, 0, 54, 38
2, 68199, Control_c, 0, 64, 127
2, 68233, Note_on_c, 0, 65, 0
2, 68237, Note_on_c, 0, 54, 0
2, 68238, Note_on_c, 0, 58, 0
2, 68242, Note_on_c, 0, 61, 0
2, 68283, Note_on_c, 0, 89, 87
2, 68284, Note_on_c, 0, 82, 81
2, 68284, Note_on_c, 0, 77, 84
2, 68284, Note_on_c, 0, 61, 74
2, 68285, Note_on_c, 0, 65, 88
2, 68285, Note_on_c, 0, 54, 77
2, 68285, Note_on_c, 0, 58, 62
2, 68293, Control_c, 0, 64, 0
2, 68302, Control_c, 0, 64, 127
2, 68338, Note_on_c, 0, 82, 0
2, 68343, Note_on_c, 0, 89, 0
2, 68345, Note_on_c, 0, 77, 0
2, 68347, Note_on_c, 0, 65, 0
2, 68348, Note_on_c, 0, 61, 0
2, 68352, Note_on_c, 0, 54, 0
2, 68353, Note_on_c, 0, 58, 0
2, 68411, Note_on_c, 0, 89, 80
2, 68412, Note_on_c, 0, 65, 90
2, 68413, Note_on_c, 0, 77, 76
2, 68413, Note_on_c, 0, 81, 74
2, 68413, Note_on_c, 0, 58, 67
2, 68413, Note_on_c, 0, 54, 71
2, 68414, Note_on_c, 0, 60, 78
2, 68418, Control_c, 0, 64, 0
2, 68459, Control_c, 0, 64, 127
2, 68537, Note_on_c, 0, 89, 0
2, 68543, Note_on_c, 0, 77, 0
2, 68550, Note_on_c, 0, 58, 0
2, 68552, Note_on_c, 0, 65, 0
2, 68552, Note_on_c, 0, 54, 0
2, 68554, Note_on_c, 0, 60, 0
2, 68562, Note_on_c, 0, 81, 0
2, 68659, Note_on_c, 0, 68, 69
2, 68660, Note_on_c, 0, 87, 84
2, 68661, Note_on_c, 0, 59, 65
2, 68661, Note_on_c, 0, 64, 64
2, 68661, Note_on_c, 0, 63, 60
2, 68662, Note_on_c, 0, 75, 81
2, 68669, Control_c, 0, 64, 0
2, 68703, Control_c, 0, 64, 127
2, 68723, Note_on_c, 0, 64, 0
2, 68725, Note_on_c, 0, 59, 0
2, 68726, Note_on_c, 0, 63, 0
2, 68726, Note_on_c, 0, 68, 0
2, 68726, Note_on_c, 0, 87, 0
2, 68729, Note_on_c, 0, 75, 0
2, 68747, Note_on_c, 0, 68, 59
2, 68748, Note_on_c, 0, 87, 67
2, 68750, Note_on_c, 0, 64, 44
2, 68751, Note_on_c, 0, 63, 32
2, 68751, Note_on_c, 0, 59, 36
2, 68752, Note_on_c, 0, 75, 59
2, 68789, Note_on_c, 0, 64, 0
2, 68790, Note_on_c, 0, 59, 0
2, 68792, Note_on_c, 0, 63, 0
2, 68794, Note_on_c, 0, 68, 0
2, 68795, Note_on_c, 0, 75, 0
2, 68796, Note_on_c, 0, 87, 0
2, 68825, Note_on_c, 0, 68, 52
2, 68827, Note_on_c, 0, 87, 64
2, 68829, Note_on_c, 0, 63, 36
2, 68830, Note_on_c, 0, 75, 48
2, 68831, Note_on_c, 0, 59, 24
2, 68831, Note_on_c, 0, 64, 29
2, 68832, Note_on_c, 0, 68, 0
2, 68838, Note_on_c, 0, 63, 0
2, 68838, Note_on_c, 0, 64, 0
2, 68842, Note_on_c, 0, 59, 0
2, 68848, Note_on_c, 0, 75, 0
2, 68860, Note_on_c, 0, 87, 0
2, 69060, Control_c, 0, 64, 0
2, 69060, End_track
3, 0, Start_track
3, 0, Title_t, "Bass"
3, 0, Program_c, 1, 32
3, 0, Control_c, 1, 7, 115
3, 30725, Note_on_c, 1, 47, 74
3, 31086, Note_on_c, 1, 40, 88
3, 31089, Note_on_c, 1, 47, 0
3, 31312, Note_on_c, 1, 40, 0
3, 31322, Note_on_c, 1, 33, 80
3, 31561, Note_on_c, 1, 49, 87
3, 31586, Note_on_c, 1, 33, 0
3, 31650, Note_on_c, 1, 33, 51
3, 31660, Note_on_c, 1, 33, 0
3, 31663, Note_on_c, 1, 49, 0
3, 31685, Note_on_c, 1, 50, 94
3, 31880, Note_on_c, 1, 50, 0
3, 31883, Note_on_c, 1, 45, 65
3, 31905, Note_on_c, 1, 45, 0
3, 31930, Note_on_c, 1, 43, 70
3, 31990, Note_on_c, 1, 43, 0
3, 32008, Note_on_c, 1, 38, 47
3, 32029, Note_on_c, 1, 38, 0
3, 32045, Note_on_c, 1, 31, 68
3, 32046, Note_on_c, 1, 29, 74
3, 32096, Note_on_c, 1, 29, 0
3, 32279, Note_on_c, 1, 36, 87
3, 32280, Note_on_c, 1, 31, 0
3, 32481, Note_on_c, 1, 50, 94
3, 32527, Note_on_c, 1, 36, 0
3, 32555, Note_on_c, 1, 50, 0
3, 32565, Note_on_c, 1, 48, 87
3, 32643, Note_on_c, 1, 48, 0
3, 32648, Note_on_c, 1, 41, 73
3, 32886, Note_on_c, 1, 46, 77
3, 32893, Note_on_c, 1, 41, 0
3, 32956, Note_on_c, 1, 46, 0
3, 32968, Note_on_c, 1, 46, 67
3, 33226, Note_on_c, 1, 46, 0
3, 33240, Note_on_c, 1, 39, 64
3, 33304, Note_on_c, 1, 39, 0
3, 33317, Note_on_c, 1, 39, 80
3, 33477, Note_on_c, 1, 48, 115
3, 33483, Note_on_c, 1, 39, 0
3, 33675, Note_on_c, 1, 45, 90
3, 33688, Note_on_c, 1, 48, 0
3, 33835, Note_on_c, 1, 50, 113
3, 33842, Note_on_c, 1, 45, 0
3, 34039, Note_on_c, 1, 50, 0
3, 34041, Note_on_c, 1, 42, 55
3, 34081, Note_on_c, 1, 42, 0
3, 34082, Note_on_c, 1, 43, 49
3, 34158, Note_on_c, 1, 55, 72
3, 34174, Note_on_c, 1, 43, 0
3, 34184, Note_on_c, 1, 55, 0
3, 34206, Note_on_c, 1, 54, 74
3, 34392, Note_on_c, 1, 43, 46
3, 34410, Note_on_c, 1, 43, 0
3, 34416, Note_on_c, 1, 54, 0
3, 34429, Note_on_c, 1, 52, 69
3, 34454, Note_on_c, 1, 52, 0
3, 34512, Note_on_c, 1, 50, 65
3, 34540, Note_on_c, 1, 50, 0
3, 34556, Note_on_c, 1, 49, 78
3, 34916, Note_on_c, 1, 49, 0
3, 34924, Note_on_c, 1, 42, 78
3, 35168, Note_on_c, 1, 35, 64
3, 35176, Note_on_c, 1, 42, 0
3, 35479, Note_on_c, 1, 44, 76
3, 35522, Note_on_c, 1, 44, 0
3, 35545, Note_on_c, 1, 49, 77
3, 35578, Note_on_c, 1, 35, 0
3, 36122, Note_on_c, 1, 46, 91
3, 36123, Note_on_c, 1, 49, 0
3, 36377, Note_on_c, 1, 46, 0
3, 36381, Note_on_c, 1, 39, 60
3, 36464, Note_on_c, 1, 45, 105
3, 36482, Note_on_c, 1, 39, 0
3, 36518, Note_on_c, 1, 45, 0
3, 36541, Note_on_c, 1, 44, 78
3, 36601, Note_on_c, 1, 44, 0
3, 36621, Note_on_c, 1, 44, 69
3, 36690, Note_on_c, 1, 44, 0
3, 36707, Note_on_c, 1, 44, 67
3, 36968, Note_on_c, 1, 44, 0
3, 37092, Note_on_c, 1, 53, 99
3, 37098, Pitch_bend_c, 1, 8192
3, 37100, Pitch_bend_c, 1, 8192
3, 37103, Pitch_bend_c, 1, 8192
3, 37107, Pitch_bend_c, 1, 7552
3, 37109, Pitch_bend_c, 1, 7424
3, 37110, Pitch_bend_c, 1, 7296
3, 37112, Pitch_bend_c, 1, 7168
3, 37114, Pitch_bend_c, 1, 6912
3, 37116, Pitch_bend_c, 1, 6784
3, 37117, Pitch_bend_c, 1, 6528
3, 37119, Pitch_bend_c, 1, 6400
3, 37121, Pitch_bend_c, 1, 6144
3, 37122, Pitch_bend_c, 1, 6016
3, 37124, Pitch_bend_c, 1, 5888
3, 37126, Pitch_bend_c, 1, 5760
3, 37128, Pitch_bend_c, 1, 5632
3, 37129, Pitch_bend_c, 1, 5504
3, 37131, Pitch_bend_c, 1, 5376
3, 37134, Pitch_bend_c, 1, 4992
3, 37136, Pitch_bend_c, 1, 4864
3, 37138, Pitch_bend_c, 1, 4736
3, 37140, Pitch_bend_c, 1, 4608
3, 37141, Pitch_bend_c, 1, 4480
3, 37143, Pitch_bend_c, 1, 4224
3, 37145, Pitch_bend_c, 1, 4096
3, 37146, Pitch_bend_c, 1, 3840
3, 37148, Pitch_bend_c, 1, 3712
3, 37150, Pitch_bend_c, 1, 3584
3, 37152, Pitch_bend_c, 1, 3328
3, 37153, Pitch_bend_c, 1, 3200
3, 37155, Pitch_bend_c, 1, 2944
3, 37157, Pitch_bend_c, 1, 2816
3, 37158, Pitch_bend_c, 1, 2688
3, 37160, Pitch_bend_c, 1, 2560
3, 37162, Pitch_bend_c, 1, 2304
3, 37164, Pitch_bend_c, 1, 2176
3, 37165, Pitch_bend_c, 1, 2048
3, 37167, Pitch_bend_c, 1, 1920
3, 37169, Pitch_bend_c, 1, 1792
3, 37173, Pitch_bend_c, 1, 1664
3, 37181, Note_on_c, 1, 53, 0
3, 37183, Pitch_bend_c, 1, 2048
3, 37185, Pitch_bend_c, 1, 2944
3, 37187, Pitch_bend_c, 1, 3712
3, 37188, Pitch_bend_c, 1, 4608
3, 37190, Pitch_bend_c, 1, 5504
3, 37192, Pitch_bend_c, 1, 6144
3, 37194, Pitch_bend_c, 1, 6784
3, 37195, Pitch_bend_c, 1, 7424
3, 37197, Pitch_bend_c, 1, 8192
3, 37198, Pitch_bend_c, 1, 8192
3, 37281, Note_on_c, 1, 46, 86
3, 37283, Pitch_bend_c, 1, 8192
3, 37283, Pitch_bend_c, 1, 8192
3, 37284, Pitch_bend_c, 1, 8192
3, 37286, Pitch_bend_c, 1, 7680
3, 37288, Pitch_bend_c, 1, 7424
3, 37289, Pitch_bend_c, 1, 7040
3, 37291, Pitch_bend_c, 1, 6656
3, 37293, Pitch_bend_c, 1, 6400
3, 37295, Pitch_bend_c, 1, 6016
3, 37296, Pitch_bend_c, 1, 5760
3, 37298, Pitch_bend_c, 1, 5376
3, 37300, Pitch_bend_c, 1, 4992
3, 37302, Pitch_bend_c, 1, 4736
3, 37303, Pitch_bend_c, 1, 4608
3, 37305, Pitch_bend_c, 1, 4352
3, 37307, Pitch_bend_c, 1, 4224
3, 37308, Pitch_bend_c, 1, 4096
3, 37338, Pitch_bend_c, 1, 4224
3, 37349, Pitch_bend_c, 1, 4352
3, 37353, Pitch_bend_c, 1, 4480
3, 37355, Pitch_bend_c, 1, 4608
3, 37356, Pitch_bend_c, 1, 4736
3, 37358, Pitch_bend_c, 1, 4992
3, 37360, Pitch_bend_c, 1, 5376
3, 37362, Pitch_bend_c, 1, 5632
3, 37363, Pitch_bend_c, 1, 6016
3, 37365, Pitch_bend_c, 1, 6400
3, 37367, Pitch_bend_c, 1, 6784
3, 37368, Pitch_bend_c, 1, 7168
3, 37370, Pitch_bend_c, 1, 7552
3, 37372, Pitch_bend_c, 1, 8192
3, 37373, Pitch_bend_c, 1, 8192
3, 37374, Pitch_bend_c, 1, 8192
3, 37379, Note_on_c, 1, 46, 0
3, 37449, Note_on_c, 1, 39, 69
3, 37693, Note_on_c, 1, 37, 87
3, 37706, Note_on_c, 1, 39, 0
3, 37919, Note_on_c, 1, 37, 0
3, 37930, Note_on_c, 1, 35, 96
3, 38154, Note_on_c, 1, 35, 0
3, 38162, Note_on_c, 1, 34, 87
3, 38397, Note_on_c, 1, 34, 0
3, 38411, Note_on_c, 1, 33, 108
3, 38638, Note_on_c, 1, 45, 118
3, 38732, Note_on_c, 1, 33, 0
3, 39000, Note_on_c, 1, 45, 0
3, 39078, Note_on_c, 1, 33, 56
3, 39090, Note_on_c, 1, 33, 0
3, 39242, Note_on_c, 1, 45, 118
3, 39252, Pitch_bend_c, 1, 8192
3, 39254, Pitch_bend_c, 1, 8192
3, 39256, Pitch_bend_c, 1, 7680
3, 39258, Pitch_bend_c, 1, 7552
3, 39259, Pitch_bend_c, 1, 7296
3, 39261, Pitch_bend_c, 1, 7168
3, 39264, Pitch_bend_c, 1, 7040
3, 39286, Pitch_bend_c, 1, 6784
3, 39290, Pitch_bend_c, 1, 6656
3, 39291, Pitch_bend_c, 1, 6400
3, 39293, Pitch_bend_c, 1, 6272
3, 39295, Pitch_bend_c, 1, 6016
3, 39297, Pitch_bend_c, 1, 5888
3, 39298, Pitch_bend_c, 1, 5760
3, 39300, Pitch_bend_c, 1, 5504
3, 39302, Pitch_bend_c, 1, 5376
3, 39303, Pitch_bend_c, 1, 5120
3, 39305, Pitch_bend_c, 1, 4864
3, 39307, Pitch_bend_c, 1, 4736
3, 39309, Pitch_bend_c, 1, 4480
3, 39310, Pitch_bend_c, 1, 4352
3, 39312, Pitch_bend_c, 1, 4096
3, 39314, Pitch_bend_c, 1, 3968
3, 39316, Pitch_bend_c, 1, 3840
3, 39319, Pitch_bend_c, 1, 3712
3, 39320, Note_on_c, 1, 45, 0
3, 39328, Pitch_bend_c, 1, 3968
3, 39329, Pitch_bend_c, 1, 4352
3, 39331, Pitch_bend_c, 1, 4608
3, 39333, Pitch_bend_c, 1, 4992
3, 39334, Pitch_bend_c, 1, 5504
3, 39336, Pitch_bend_c, 1, 6016
3, 39338, Pitch_bend_c, 1, 6528
3, 39340, Pitch_bend_c, 1, 7040
3, 39341, Pitch_bend_c, 1, 7552
3, 39343, Pitch_bend_c, 1, 8192
3, 39344, Pitch_bend_c, 1, 8192
3, 39350, Note_on_c, 1, 45, 99
3, 39384, Pitch_bend_c, 1, 8192
3, 39388, Pitch_bend_c, 1, 8192
3, 39392, Pitch_bend_c, 1, 8192
3, 39397, Pitch_bend_c, 1, 7680
3, 39399, Pitch_bend_c, 1, 7552
3, 39403, Pitch_bend_c, 1, 7296
3, 39407, Pitch_bend_c, 1, 7168
3, 39408, Pitch_bend_c, 1, 7040
3, 39410, Pitch_bend_c, 1, 6912
3, 39414, Pitch_bend_c, 1, 6784
3, 39415, Pitch_bend_c, 1, 6656
3, 39419, Pitch_bend_c, 1, 6400
3, 39420, Pitch_bend_c, 1, 6272
3, 39422, Pitch_bend_c, 1, 6144
3, 39424, Pitch_bend_c, 1, 6016
3, 39438, Pitch_bend_c, 1, 6272
3, 39440, Pitch_bend_c, 1, 6400
3, 39443, Pitch_bend_c, 1, 6528
3, 39445, Pitch_bend_c, 1, 6656
3, 39447, Pitch_bend_c, 1, 6912
3, 39449, Pitch_bend_c, 1, 7296
3, 39450, Pitch_bend_c, 1, 7552
3, 39452, Pitch_bend_c, 1, 8192
3, 39453, Note_on_c, 1, 45, 0
3, 39453, Pitch_bend_c, 1, 8192
3, 39669, Note_on_c, 1, 33, 90
3, 39954, Note_on_c, 1, 45, 123
3, 40077, Note_on_c, 1, 33, 0
3, 40279, Note_on_c, 1, 42, 70
3, 40296, Note_on_c, 1, 45, 0
3, 40317, Note_on_c, 1, 42, 0
3, 40328, Note_on_c, 1, 43, 65
3, 40519, Note_on_c, 1, 57, 92
3, 40567, Note_on_c, 1, 57, 0
3, 40582, Note_on_c, 1, 55, 89
3, 40695, Note_on_c, 1, 43, 0
3, 40767, Note_on_c, 1, 43, 92
3, 40771, Note_on_c, 1, 55, 0
3, 41102, Note_on_c, 1, 43, 0
3, 41114, Note_on_c, 1, 55, 90
3, 41129, Note_on_c, 1, 55, 0
3, 41201, Note_on_c, 1, 55, 108
3, 41256, Note_on_c, 1, 55, 0
3, 41290, Note_on_c, 1, 55, 108
3, 41373, Note_on_c, 1, 43, 90
3, 41378, Note_on_c, 1, 55, 0
3, 41726, Note_on_c, 1, 55, 99
3, 41732, Note_on_c, 1, 43, 0
3, 41756, Note_on_c, 1, 55, 0
3, 41802, Note_on_c, 1, 55, 103
3, 41858, Pitch_bend_c, 1, 8192
3, 41859, Pitch_bend_c, 1, 8192
3, 41860, Pitch_bend_c, 1, 8192
3, 41861, Pitch_bend_c, 1, 7552
3, 41863, Pitch_bend_c, 1, 7296
3, 41865, Pitch_bend_c, 1, 6912
3, 41867, Pitch_bend_c, 1, 6528
3, 41868, Pitch_bend_c, 1, 6144
3, 41870, Pitch_bend_c, 1, 5760
3, 41872, Pitch_bend_c, 1, 5504
3, 41873, Pitch_bend_c, 1, 4992
3, 41875, Pitch_bend_c, 1, 4736
3, 41877, Pitch_bend_c, 1, 4480
3, 41879, Pitch_bend_c, 1, 4096
3, 41880, Pitch_bend_c, 1, 3968
3, 41882, Pitch_bend_c, 1, 3712
3, 41884, Pitch_bend_c, 1, 3456
3, 41885, Pitch_bend_c, 1, 3328
3, 41887, Pitch_bend_c, 1, 3200
3, 41891, Pitch_bend_c, 1, 3072
3, 41896, Pitch_bend_c, 1, 3328
3, 41897, Pitch_bend_c, 1, 3456
3, 41899, Pitch_bend_c, 1, 3712
3, 41901, Pitch_bend_c, 1, 3968
3, 41903, Pitch_bend_c, 1, 4352
3, 41904, Pitch_bend_c, 1, 4736
3, 41906, Pitch_bend_c, 1, 5120
3, 41908, Pitch_bend_c, 1, 5760
3, 41909, Pitch_bend_c, 1, 6272
3, 41911, Pitch_bend_c, 1, 6656
3, 41913, Pitch_bend_c, 1, 7168
3, 41915, Pitch_bend_c, 1, 7552
3, 41916, Pitch_bend_c, 1, 8192
3, 41917, Pitch_bend_c, 1, 8192
3, 41918, Pitch_bend_c, 1, 8192
3, 41938, Pitch_bend_c, 1, 8192
3, 41939, Pitch_bend_c, 1, 8192
3, 41940, Pitch_bend_c, 1, 8192
3, 41942, Pitch_bend_c, 1, 7680
3, 41943, Pitch_bend_c, 1, 7296
3, 41945, Pitch_bend_c, 1, 6912
3, 41947, Pitch_bend_c, 1, 6656
3, 41948, Pitch_bend_c, 1, 6272
3, 41950, Pitch_bend_c, 1, 5888
3, 41952, Pitch_bend_c, 1, 5504
3, 41954, Pitch_bend_c, 1, 5120
3, 41955, Pitch_bend_c, 1, 4736
3, 41957, Pitch_bend_c, 1, 4480
3, 41959, Pitch_bend_c, 1, 4096
3, 41961, Pitch_bend_c, 1, 3840
3, 41962, Pitch_bend_c, 1, 3584
3, 41964, Pitch_bend_c, 1, 3456
3, 41966, Pitch_bend_c, 1, 3200
3, 41967, Pitch_bend_c, 1, 2944
3, 41969, Pitch_bend_c, 1, 2688
3, 41971, Pitch_bend_c, 1, 2560
3, 41973, Pitch_bend_c, 1, 2432
3, 41974, Pitch_bend_c, 1, 2304
3, 41976, Pitch_bend_c, 1, 2176
3, 41978, Pitch_bend_c, 1, 2048
3, 41981, Pitch_bend_c, 1, 1920
3, 41988, Pitch_bend_c, 1, 2048
3, 41990, Pitch_bend_c, 1, 2304
3, 41991, Pitch_bend_c, 1, 2560
3, 41993, Pitch_bend_c, 1, 2816
3, 41995, Pitch_bend_c, 1, 3200
3, 41996, Pitch_bend_c, 1, 3456
3, 41998, Pitch_bend_c, 1, 3968
3, 42000, Pitch_bend_c, 1, 4480
3, 42002, Pitch_bend_c, 1, 4992
3, 42003, Pitch_bend_c, 1, 5632
3, 42005, Pitch_bend_c, 1, 6400
3, 42007, Pitch_bend_c, 1, 7296
3, 42009, Pitch_bend_c, 1, 8192
3, 42009, Pitch_bend_c, 1, 8192
3, 42324, Note_on_c, 1, 55, 0
3, 42327, Note_on_c, 1, 47, 75
3, 42564, Note_on_c, 1, 47, 0
3, 42565, Note_on_c, 1, 35, 57
3, 42590, Note_on_c, 1, 35, 0
3, 42607, Note_on_c, 1, 39, 58
3, 42713, Note_on_c, 1, 39, 0
3, 42723, Note_on_c, 1, 40, 44
3, 42925, Note_on_c, 1, 48, 76
3, 42929, Note_on_c, 1, 40, 0
3, 42949, Note_on_c, 1, 48, 0
3, 42974, Note_on_c, 1, 47, 70
3, 43165, Note_on_c, 1, 47, 0
3, 43165, Note_on_c, 1, 46, 59
3, 43195, Note_on_c, 1, 46, 0
3, 43208, Note_on_c, 1, 45, 60
3, 43436, Note_on_c, 1, 45, 0
3, 43443, Note_on_c, 1, 33, 66
3, 43652, Note_on_c, 1, 33, 0
3, 43806, Note_on_c, 1, 38, 59
3, 44004, Note_on_c, 1, 38, 0
3, 44009, Note_on_c, 1, 44, 93
3, 44158, Note_on_c, 1, 44, 0
3, 44174, Note_on_c, 1, 43, 68
3, 44259, Note_on_c, 1, 57, 71
3, 44299, Note_on_c, 1, 57, 0
3, 44305, Note_on_c, 1, 43, 0
3, 44316, Note_on_c, 1, 55, 68
3, 44605, Note_on_c, 1, 55, 0
3, 44607, Note_on_c, 1, 43, 45
3, 44618, Note_on_c, 1, 43, 0
3, 44648, Note_on_c, 1, 48, 64
3, 44844, Note_on_c, 1, 43, 37
3, 44858, Note_on_c, 1, 43, 0
3, 44885, Note_on_c, 1, 39, 81
3, 44894, Note_on_c, 1, 48, 0
3, 45129, Note_on_c, 1, 32, 95
3, 45142, Note_on_c, 1, 39, 0
3, 45368, Note_on_c, 1, 32, 0
3, 45372, Note_on_c, 1, 36, 101
3, 45602, Note_on_c, 1, 36, 0
3, 45617, Note_on_c, 1, 29, 99
3, 45972, Note_on_c, 1, 41, 108
3, 45973, Note_on_c, 1, 40, 95
3, 45977, Note_on_c, 1, 29, 0
3, 46004, Note_on_c, 1, 40, 0
3, 46091, Note_on_c, 1, 38, 101
3, 46104, Note_on_c, 1, 41, 0
3, 46281, Note_on_c, 1, 44, 95
3, 46294, Note_on_c, 1, 38, 0
3, 46305, Note_on_c, 1, 44, 0
3, 46336, Note_on_c, 1, 44, 97
3, 46434, Note_on_c, 1, 44, 0
3, 46442, Note_on_c, 1, 43, 89
3, 46627, Note_on_c, 1, 35, 55
3, 46666, Note_on_c, 1, 35, 0
3, 46668, Note_on_c, 1, 43, 0
3, 46677, Note_on_c, 1, 36, 91
3, 46862, Note_on_c, 1, 39, 84
3, 46890, Note_on_c, 1, 36, 0
3, 46901, Note_on_c, 1, 39, 0
3, 46916, Note_on_c, 1, 39, 83
3, 47026, Note_on_c, 1, 39, 0
3, 47033, Note_on_c, 1, 32, 82
3, 47102, Note_on_c, 1, 32, 0
3, 47117, Note_on_c, 1, 32, 71
3, 47214, Note_on_c, 1, 44, 83
3, 47257, Note_on_c, 1, 32, 0
3, 47264, Note_on_c, 1, 44, 0
3, 47282, Note_on_c, 1, 43, 94
3, 47363, Note_on_c, 1, 43, 0
3, 47401, Note_on_c, 1, 43, 89
3, 47654, Note_on_c, 1, 43, 0
3, 47655, Note_on_c, 1, 36, 99
3, 47884, Note_on_c, 1, 42, 88
3, 47901, Note_on_c, 1, 36, 0
3, 47970, Note_on_c, 1, 36, 57
3, 47985, Note_on_c, 1, 42, 0
3, 47987, Note_on_c, 1, 36, 0
3, 48007, Note_on_c, 1, 47, 90
3, 48246, Note_on_c, 1, 28, 101
3, 48321, Note_on_c, 1, 47, 0
3, 48481, Note_on_c, 1, 28, 0
3, 48488, Note_on_c, 1, 33, 105
3, 48729, Note_on_c, 1, 40, 80
3, 48750, Note_on_c, 1, 33, 0
3, 48960, Note_on_c, 1, 40, 0
3, 48960, Note_on_c, 1, 44, 93
3, 49201, Note_on_c, 1, 44, 0
3, 49212, Note_on_c, 1, 32, 74
3, 49446, Note_on_c, 1, 37, 74
3, 49458, Note_on_c, 1, 32, 0
3, 49687, Note_on_c, 1, 42, 76
3, 49705, Note_on_c, 1, 37, 0
3, 49907, Note_on_c, 1, 42, 0
3, 49921, Note_on_c, 1, 47, 72
3, 50122, Note_on_c, 1, 41, 77
3, 50123, Note_on_c, 1, 47, 0
3, 50146, Note_on_c, 1, 41, 0
3, 50166, Note_on_c, 1, 40, 68
3, 50333, Note_on_c, 1, 40, 0
3, 50354, Note_on_c, 1, 35, 62
3, 50363, Note_on_c, 1, 35, 0
3, 50393, Note_on_c, 1, 33, 60
3, 50410, Note_on_c, 1, 33, 0
3, 50476, Note_on_c, 1, 47, 74
3, 50492, Note_on_c, 1, 47, 0
3, 50516, Note_on_c, 1, 45, 88
3, 50747, Note_on_c, 1, 45, 0
3, 50758, Note_on_c, 1, 40, 54
3, 50844, Note_on_c, 1, 52, 84
3, 50849, Note_on_c, 1, 40, 0
3, 50872, Note_on_c, 1, 52, 0
3, 50888, Note_on_c, 1, 50, 82
3, 51141, Note_on_c, 1, 50, 0
3, 51210, Note_on_c, 1, 55, 103
3, 51258, Pitch_bend_c, 1, 8192
3, 51260, Pitch_bend_c, 1, 8192
3, 51263, Pitch_bend_c, 1, 8192
3, 51266, Pitch_bend_c, 1, 7552
3, 51268, Pitch_bend_c, 1, 7296
3, 51270, Pitch_bend_c, 1, 7040
3, 51271, Pitch_bend_c, 1, 6912
3, 51273, Pitch_bend_c, 1, 6656
3, 51275, Pitch_bend_c, 1, 6528
3, 51276, Pitch_bend_c, 1, 6272
3, 51278, Pitch_bend_c, 1, 6016
3, 51280, Pitch_bend_c, 1, 5888
3, 51282, Pitch_bend_c, 1, 5632
3, 51283, Pitch_bend_c, 1, 5504
3, 51285, Pitch_bend_c, 1, 5376
3, 51287, Pitch_bend_c, 1, 5120
3, 51288, Pitch_bend_c, 1, 4992
3, 51290, Pitch_bend_c, 1, 4864
3, 51292, Pitch_bend_c, 1, 4736
3, 51294, Pitch_bend_c, 1, 4480
3, 51295, Pitch_bend_c, 1, 4352
3, 51297, Pitch_bend_c, 1, 4224
3, 51299, Pitch_bend_c, 1, 4096
3, 51300, Pitch_bend_c, 1, 3968
3, 51304, Pitch_bend_c, 1, 3840
3, 51306, Pitch_bend_c, 1, 3712
3, 51316, Pitch_bend_c, 1, 3968
3, 51317, Pitch_bend_c, 1, 4096
3, 51319, Pitch_bend_c, 1, 4224
3, 51321, Pitch_bend_c, 1, 4352
3, 51326, Pitch_bend_c, 1, 4480
3, 51328, Note_on_c, 1, 55, 0
3, 51339, Pitch_bend_c, 1, 4736
3, 51340, Pitch_bend_c, 1, 4992
3, 51342, Pitch_bend_c, 1, 5504
3, 51344, Pitch_bend_c, 1, 6144
3, 51346, Pitch_bend_c, 1, 7040
3, 51347, Pitch_bend_c, 1, 8192
3, 51348, Pitch_bend_c, 1, 8192
3, 51558, Note_on_c, 1, 47, 66
3, 51567, Note_on_c, 1, 47, 0
3, 51602, Note_on_c, 1, 50, 92
3, 51626, Note_on_c, 1, 50, 0
3, 51677, Note_on_c, 1, 49, 78
3, 51698, Note_on_c, 1, 49, 0
3, 51718, Note_on_c, 1, 48, 66
3, 51727, Note_on_c, 1, 48, 0
3, 51796, Note_on_c, 1, 40, 71
3, 51807, Note_on_c, 1, 40, 0
3, 51839, Note_on_c, 1, 41, 81
3, 51868, Pitch_bend_c, 1, 8192
3, 51869, Pitch_bend_c, 1, 8192
3, 51872, Pitch_bend_c, 1, 8192
3, 51874, Pitch_bend_c, 1, 7680
3, 51876, Pitch_bend_c, 1, 7552
3, 51877, Pitch_bend_c, 1, 7424
3, 51879, Pitch_bend_c, 1, 7168
3, 51881, Pitch_bend_c, 1, 6912
3, 51882, Pitch_bend_c, 1, 6656
3, 51884, Pitch_bend_c, 1, 6528
3, 51886, Pitch_bend_c, 1, 6144
3, 51888, Pitch_bend_c, 1, 5888
3, 51889, Pitch_bend_c, 1, 5632
3, 51891, Pitch_bend_c, 1, 5376
3, 51893, Pitch_bend_c, 1, 4864
3, 51894, Pitch_bend_c, 1, 4608
3, 51896, Pitch_bend_c, 1, 4352
3, 51898, Pitch_bend_c, 1, 3968
3, 51900, Pitch_bend_c, 1, 3840
3, 51901, Pitch_bend_c, 1, 3584
3, 51903, Pitch_bend_c, 1, 3456
3, 51905, Pitch_bend_c, 1, 3200
3, 51907, Pitch_bend_c, 1, 3072
3, 51916, Pitch_bend_c, 1, 3328
3, 51918, Pitch_bend_c, 1, 3584
3, 51919, Pitch_bend_c, 1, 3840
3, 51921, Pitch_bend_c, 1, 4096
3, 51923, Pitch_bend_c, 1, 4480
3, 51924, Pitch_bend_c, 1, 4736
3, 51926, Pitch_bend_c, 1, 4992
3, 51928, Pitch_bend_c, 1, 5504
3, 51930, Pitch_bend_c, 1, 5888
3, 51931, Pitch_bend_c, 1, 6272
3, 51933, Pitch_bend_c, 1, 6656
3, 51935, Pitch_bend_c, 1, 7040
3, 51936, Pitch_bend_c, 1, 7424
3, 51938, Pitch_bend_c, 1, 8192
3, 51939, Pitch_bend_c, 1, 8192
3, 51940, Pitch_bend_c, 1, 8192
3, 51964, Pitch_bend_c, 1, 8192
3, 51965, Pitch_bend_c, 1, 8192
3, 51967, Pitch_bend_c, 1, 7680
3, 51969, Pitch_bend_c, 1, 7296
3, 51971, Pitch_bend_c, 1, 6912
3, 51972, Pitch_bend_c, 1, 6528
3, 51974, Pitch_bend_c, 1, 6144
3, 51976, Pitch_bend_c, 1, 5760
3, 51977, Pitch_bend_c, 1, 5504
3, 51979, Pitch_bend_c, 1, 4992
3, 51981, Pitch_bend_c, 1, 4736
3, 51983, Pitch_bend_c, 1, 4608
3, 51984, Pitch_bend_c, 1, 4480
3, 51988, Pitch_bend_c, 1, 4352
3, 51993, Pitch_bend_c, 1, 4608
3, 51994, Pitch_bend_c, 1, 4864
3, 51996, Pitch_bend_c, 1, 5120
3, 51998, Pitch_bend_c, 1, 5760
3, 52000, Pitch_bend_c, 1, 6400
3, 52001, Pitch_bend_c, 1, 7168
3, 52003, Pitch_bend_c, 1, 8192
3, 52004, Pitch_bend_c, 1, 8192
3, 52204, Note_on_c, 1, 34, 84
3, 52216, Note_on_c, 1, 41, 0
3, 52435, Note_on_c, 1, 34, 0
3, 52440, Note_on_c, 1, 39, 92
3, 52563, Note_on_c, 1, 51, 87
3, 52564, Note_on_c, 1, 39, 0
3, 52651, Note_on_c, 1, 37, 50
3, 52669, Note_on_c, 1, 37, 0
3, 52669, Note_on_c, 1, 51, 0
3, 52682, Note_on_c, 1, 48, 89
3, 52798, Note_on_c, 1, 48, 0
3, 52803, Note_on_c, 1, 45, 91
3, 53032, Note_on_c, 1, 45, 0
3, 53043, Note_on_c, 1, 38, 82
3, 53281, Note_on_c, 1, 38, 0
3, 53283, Note_on_c, 1, 45, 110
3, 53300, Note_on_c, 1, 45, 0
3, 53366, Note_on_c, 1, 44, 80
3, 53389, Note_on_c, 1, 44, 0
3, 53407, Note_on_c, 1, 43, 78
3, 53580, Note_on_c, 1, 43, 0
3, 53598, Note_on_c, 1, 42, 64
3, 53620, Note_on_c, 1, 42, 0
3, 53639, Note_on_c, 1, 40, 72
3, 53718, Note_on_c, 1, 38, 63
3, 53732, Note_on_c, 1, 38, 0
3, 53733, Note_on_c, 1, 40, 0
3, 53764, Note_on_c, 1, 37, 73
3, 53977, Note_on_c, 1, 37, 0
3, 54123, Note_on_c, 1, 30, 60
3, 54233, Note_on_c, 1, 30, 0
3, 54240, Note_on_c, 1, 35, 75
3, 54360, Note_on_c, 1, 47, 115
3, 54371, Note_on_c, 1, 35, 0
3, 54468, Note_on_c, 1, 47, 0
3, 54482, Note_on_c, 1, 47, 88
3, 54691, Note_on_c, 1, 44, 83
3, 54721, Note_on_c, 1, 47, 0
3, 54850, Note_on_c, 1, 44, 0
3, 54858, Note_on_c, 1, 37, 81
3, 54978, Note_on_c, 1, 49, 93
3, 54989, Note_on_c, 1, 37, 0
3, 55178, Note_on_c, 1, 37, 52
3, 55203, Note_on_c, 1, 37, 0
3, 55211, Note_on_c, 1, 49, 0
3, 55222, Note_on_c, 1, 46, 97
3, 55447, Note_on_c, 1, 39, 87
3, 55455, Note_on_c, 1, 46, 0
3, 55681, Note_on_c, 1, 39, 0
3, 55687, Note_on_c, 1, 32, 86
3, 55923, Note_on_c, 1, 44, 93
3, 55944, Note_on_c, 1, 32, 0
3, 56142, Note_on_c, 1, 44, 0
3, 56285, Note_on_c, 1, 41, 94
3, 56405, Note_on_c, 1, 47, 110
3, 56409, Note_on_c, 1, 41, 0
3, 56490, Note_on_c, 1, 41, 62
3, 56504, Note_on_c, 1, 41, 0
3, 56513, Note_on_c, 1, 47, 0
3, 56524, Note_on_c, 1, 46, 91
3, 56641, Note_on_c, 1, 46, 0
3, 56642, Note_on_c, 1, 39, 81
3, 56759, Note_on_c, 1, 51, 91
3, 56866, Note_on_c, 1, 51, 0
3, 56882, Note_on_c, 1, 49, 92
3, 56883, Note_on_c, 1, 39, 0
3, 56997, Note_on_c, 1, 49, 0
3, 57001, Note_on_c, 1, 37, 86
3, 57112, Note_on_c, 1, 37, 0
3, 57127, Note_on_c, 1, 35, 83
3, 57246, Note_on_c, 1, 47, 113
3, 57266, Note_on_c, 1, 35, 0
3, 57448, Note_on_c, 1, 35, 64
3, 57466, Note_on_c, 1, 35, 0
3, 57467, Note_on_c, 1, 47, 0
3, 57482, Note_on_c, 1, 46, 94
3, 57585, Note_on_c, 1, 46, 0
3, 57602, Note_on_c, 1, 45, 82
3, 57629, Note_on_c, 1, 45, 0
3, 57689, Note_on_c, 1, 40, 53
3, 57697, Note_on_c, 1, 40, 0
3, 57723, Note_on_c, 1, 33, 79
3, 57961, Note_on_c, 1, 45, 96
3, 57982, Note_on_c, 1, 45, 0
3, 58044, Note_on_c, 1, 45, 88
3, 58071, Note_on_c, 1, 33, 0
3, 58176, Note_on_c, 1, 45, 0
3, 58189, Note_on_c, 1, 33, 79
3, 58407, Note_on_c, 1, 40, 40
3, 58418, Note_on_c, 1, 40, 0
3, 58441, Note_on_c, 1, 45, 101
3, 58511, Note_on_c, 1, 45, 0
3, 58529, Note_on_c, 1, 45, 91
3, 58754, Note_on_c, 1, 57, 96
3, 58814, Note_on_c, 1, 57, 0
3, 58834, Note_on_c, 1, 57, 80
3, 58891, Note_on_c, 1, 45, 0
3, 59002, Note_on_c, 1, 33, 0
3, 59008, Note_on_c, 1, 45, 84
3, 59025, Note_on_c, 1, 45, 0
3, 59071, Note_on_c, 1, 45, 89
3, 59110, Note_on_c, 1, 57, 0
3, 59348, Note_on_c, 1, 33, 71
3, 59382, Note_on_c, 1, 33, 0
3, 59401, Note_on_c, 1, 33, 71
3, 59519, Note_on_c, 1, 45, 0
3, 59604, Note_on_c, 1, 33, 0
3, 59604, Note_on_c, 1, 43, 103
3, 59613, Note_on_c, 1, 39, 33
3, 59621, Note_on_c, 1, 39, 0
3, 59839, Note_on_c, 1, 55, 94
3, 60096, Note_on_c, 1, 55, 0
3, 60101, Note_on_c, 1, 31, 85
3, 60313, Note_on_c, 1, 43, 0
3, 60341, Note_on_c, 1, 31, 0
3, 60345, Note_on_c, 1, 43, 79
3, 60594, Note_on_c, 1, 31, 82
3, 60751, Note_on_c, 1, 43, 0
3, 60843, Note_on_c, 1, 43, 96
3, 60859, Note_on_c, 1, 31, 0
3, 61188, Note_on_c, 1, 38, 24
3, 61199, Note_on_c, 1, 38, 0
3, 61209, Note_on_c, 1, 50, 81
3, 61212, Note_on_c, 1, 43, 0
3, 61222, Note_on_c, 1, 50, 0
3, 61335, Note_on_c, 1, 48, 88
3, 61446, Note_on_c, 1, 48, 0
3, 61449, Note_on_c, 1, 47, 81
3, 61677, Note_on_c, 1, 47, 0
3, 61683, Note_on_c, 1, 35, 62
3, 61839, Note_on_c, 1, 35, 0
3, 61849, Note_on_c, 1, 38, 63
3, 61876, Note_on_c, 1, 38, 0
3, 61887, Note_on_c, 1, 39, 69
3, 61907, Note_on_c, 1, 39, 0
3, 61927, Note_on_c, 1, 40, 75
3, 62121, Note_on_c, 1, 47, 50
3, 62138, Note_on_c, 1, 47, 0
3, 62164, Note_on_c, 1, 46, 74
3, 62165, Note_on_c, 1, 40, 0
3, 62357, Note_on_c, 1, 39, 38
3, 62377, Note_on_c, 1, 39, 0
3, 62382, Note_on_c, 1, 46, 0
3, 62393, Note_on_c, 1, 33, 73
3, 62476, Note_on_c, 1, 49, 81
3, 62668, Note_on_c, 1, 49, 0
3, 62743, Note_on_c, 1, 33, 0
3, 62759, Note_on_c, 1, 38, 88
3, 62996, Note_on_c, 1, 50, 105
3, 63006, Note_on_c, 1, 38, 0
3, 63109, Note_on_c, 1, 50, 0
3, 63117, Note_on_c, 1, 44, 91
3, 63355, Note_on_c, 1, 44, 0
3, 63359, Note_on_c, 1, 43, 77
3, 63595, Note_on_c, 1, 43, 0
3, 63597, Note_on_c, 1, 31, 81
3, 63755, Note_on_c, 1, 31, 0
3, 63769, Note_on_c, 1, 34, 61
3, 63792, Note_on_c, 1, 34, 0
3, 63810, Note_on_c, 1, 35, 69
3, 63837, Note_on_c, 1, 35, 0
3, 63850, Note_on_c, 1, 36, 79
3, 64048, Note_on_c, 1, 51, 74
3, 64064, Note_on_c, 1, 51, 0
3, 64095, Note_on_c, 1, 51, 80
3, 64122, Note_on_c, 1, 36, 0
3, 64281, Note_on_c, 1, 39, 31
3, 64295, Note_on_c, 1, 39, 0
3, 64325, Note_on_c, 1, 44, 76
3, 64329, Note_on_c, 1, 51, 0
3, 64545, Note_on_c, 1, 44, 0
3, 64556, Note_on_c, 1, 36, 80
3, 64751, Note_on_c, 1, 36, 0
3, 64762, Note_on_c, 1, 40, 62
3, 64792, Note_on_c, 1, 40, 0
3, 64801, Note_on_c, 1, 41, 74
3, 64889, Note_on_c, 1, 40, 32
3, 64903, Note_on_c, 1, 40, 0
3, 64908, Note_on_c, 1, 41, 0
3, 64913, Note_on_c, 1, 46, 87
3, 65004, Note_on_c, 1, 40, 34
3, 65024, Note_on_c, 1, 40, 0
3, 65032, Note_on_c, 1, 46, 0
3, 65038, Note_on_c, 1, 44, 69
3, 65151, Note_on_c, 1, 44, 0
3, 65155, Note_on_c, 1, 37, 69
3, 65166, Note_on_c, 1, 36, 31
3, 65174, Note_on_c, 1, 36, 0
3, 65272, Note_on_c, 1, 37, 0
3, 65274, Note_on_c, 1, 38, 70
3, 65366, Note_on_c, 1, 37, 55
3, 65377, Note_on_c, 1, 38, 0
3, 65392, Note_on_c, 1, 37, 0
3, 65397, Note_on_c, 1, 44, 84
3, 65604, Note_on_c, 1, 38, 69
3, 65616, Note_on_c, 1, 38, 0
3, 65631, Note_on_c, 1, 44, 0
3, 65644, Note_on_c, 1, 43, 50
3, 65661, Note_on_c, 1, 43, 0
3, 65725, Note_on_c, 1, 35, 65
3, 65751, Note_on_c, 1, 35, 0
3, 65768, Note_on_c, 1, 36, 77
3, 65881, Note_on_c, 1, 48, 99
3, 65888, Note_on_c, 1, 36, 0
3, 65980, Note_on_c, 1, 48, 0
3, 66000, Note_on_c, 1, 51, 87
3, 66120, Note_on_c, 1, 51, 0
3, 66122, Note_on_c, 1, 39, 80
3, 66240, Note_on_c, 1, 39, 0
3, 66245, Note_on_c, 1, 44, 85
3, 66442, Note_on_c, 1, 32, 67
3, 66469, Note_on_c, 1, 44, 0
3, 66472, Note_on_c, 1, 32, 0
3, 66492, Note_on_c, 1, 31, 76
3, 66671, Note_on_c, 1, 31, 0
3, 66690, Note_on_c, 1, 35, 63
3, 66710, Note_on_c, 1, 35, 0
3, 66732, Note_on_c, 1, 36, 76
3, 66853, Note_on_c, 1, 42, 82
3, 66866, Note_on_c, 1, 36, 0
3, 67194, Note_on_c, 1, 42, 0
3, 67202, Note_on_c, 1, 35, 81
3, 67323, Note_on_c, 1, 35, 0
3, 67327, Note_on_c, 1, 41, 96
3, 67434, Note_on_c, 1, 41, 0
3, 67446, Note_on_c, 1, 40, 92
3, 67686, Note_on_c, 1, 33, 88
3, 67697, Note_on_c, 1, 40, 0
3, 68001, Note_on_c, 1, 40, 31
3, 68018, Note_on_c, 1, 40, 0
3, 68036, Note_on_c, 1, 33, 0
3, 68040, Note_on_c, 1, 48, 105
3, 68157, Note_on_c, 1, 48, 0
3, 68164, Note_on_c, 1, 44, 94
3, 68401, Note_on_c, 1, 32, 86
3, 68447, Note_on_c, 1, 44, 0
3, 68627, Note_on_c, 1, 39, 38
3, 68650, Note_on_c, 1, 49, 98
3, 68656, Note_on_c, 1, 39, 0
3, 68662, Note_on_c, 1, 32, 0
3, 68895, Note_on_c, 1, 49, 0
3, 68895, End_track
4, 0, Start_track
4, 0, Title_t, "Jazz kit"
4, 0, Program_c, 9, 32
4, 0, Control_c, 9, 7, 127
4, 30920, Note_on_c, 9, 59, 51
4, 30929, Note_on_c, 9, 59, 0
4, 30964, Note_on_c, 9, 59, 35
4, 30987, Note_on_c, 9, 59, 0
4, 31167, Note_on_c, 9, 59, 30
4, 31177, Note_on_c, 9, 59, 0
4, 31206, Note_on_c, 9, 59, 68
4, 31225, Note_on_c, 9, 59, 0
4, 31403, Note_on_c, 9, 59, 72
4, 31415, Note_on_c, 9, 59, 0
4, 31520, Note_on_c, 9, 38, 23
4, 31527, Note_on_c, 9, 59, 38
4, 31532, Note_on_c, 9, 38, 0
4, 31554, Note_on_c, 9, 59, 0
4, 31574, Note_on_c, 9, 59, 60
4, 31633, Note_on_c, 9, 59, 0
4, 31649, Note_on_c, 9, 59, 74
4, 31661, Note_on_c, 9, 59, 0
4, 31888, Note_on_c, 9, 59, 68
4, 31908, Note_on_c, 9, 59, 0
4, 31931, Note_on_c, 9, 59, 53
4, 31955, Note_on_c, 9, 59, 0
4, 31997, Note_on_c, 9, 38, 37
4, 32007, Note_on_c, 9, 38, 0
4, 32034, Note_on_c, 9, 36, 22
4, 32068, Note_on_c, 9, 36, 0
4, 32114, Note_on_c, 9, 36, 33
4, 32127, Note_on_c, 9, 36, 0
4, 32241, Note_on_c, 9, 59, 48
4, 32250, Note_on_c, 9, 59, 0
4, 32350, Note_on_c, 9, 44, 18
4, 32364, Note_on_c, 9, 44, 0
4, 32430, Note_on_c, 9, 44, 22
4, 32470, Note_on_c, 9, 44, 0
4, 32530, Note_on_c, 9, 59, 31
4, 32533, Note_on_c, 9, 44, 17
4, 32540, Note_on_c, 9, 59, 0
4, 32558, Note_on_c, 9, 44, 0
4, 32601, Note_on_c, 9, 53, 81
4, 32608, Note_on_c, 9, 36, 23
4, 32616, Note_on_c, 9, 53, 0
4, 32624, Note_on_c, 9, 36, 0
4, 32648, Note_on_c, 9, 59, 38
4, 32654, Note_on_c, 9, 36, 31
4, 32683, Note_on_c, 9, 36, 0
4, 32692, Note_on_c, 9, 59, 0
4, 32736, Note_on_c, 9, 59, 30
4, 32755, Note_on_c, 9, 59, 0
4, 32781, Note_on_c, 9, 59, 33
4, 32795, Note_on_c, 9, 59, 0
4, 32850, Note_on_c, 9, 59, 65
4, 32858, Note_on_c, 9, 59, 0
4, 32893, Note_on_c, 9, 59, 80
4, 32906, Note_on_c, 9, 59, 0
4, 33090, Note_on_c, 9, 59, 54
4, 33100, Note_on_c, 9, 59, 0
4, 33177, Note_on_c, 9, 59, 62
4, 33188, Note_on_c, 9, 59, 0
4, 33208, Note_on_c, 9, 59, 66
4, 33230, Note_on_c, 9, 59, 0
4, 33249, Note_on_c, 9, 59, 69
4, 33271, Note_on_c, 9, 59, 0
4, 33366, Note_on_c, 9, 59, 50
4, 33376, Note_on_c, 9, 59, 0
4, 33406, Note_on_c, 9, 59, 63
4, 33415, Note_on_c, 9, 59, 0
4, 33443, Note_on_c, 9, 36, 18
4, 33453, Note_on_c, 9, 36, 0
4, 33482, Note_on_c, 9, 36, 27
4, 33493, Note_on_c, 9, 59, 82
4, 33497, Note_on_c, 9, 36, 0
4, 33555, Note_on_c, 9, 59, 0
4, 33715, Note_on_c, 9, 59, 67
4, 33743, Note_on_c, 9, 59, 0
4, 33808, Note_on_c, 9, 59, 53
4, 33831, Note_on_c, 9, 59, 0
4, 33851, Note_on_c, 9, 59, 38
4, 33867, Note_on_c, 9, 59, 0
4, 33962, Note_on_c, 9, 38, 36
4, 33967, Note_on_c, 9, 59, 99
4, 33971, Note_on_c, 9, 38, 0
4, 34026, Note_on_c, 9, 38, 52
4, 34027, Note_on_c, 9, 59, 0
4, 34034, Note_on_c, 9, 38, 0
4, 34096, Note_on_c, 9, 38, 38
4, 34104, Note_on_c, 9, 38, 0
4, 34117, Note_on_c, 9, 38, 29
4, 34127, Note_on_c, 9, 38, 0
4, 34198, Note_on_c, 9, 36, 35
4, 34205, Note_on_c, 9, 59, 49
4, 34211, Note_on_c, 9, 36, 0
4, 34244, Note_on_c, 9, 59, 0
4, 34267, Note_on_c, 9, 36, 28
4, 34286, Note_on_c, 9, 36, 0
4, 34328, Note_on_c, 9, 59, 22
4, 34340, Note_on_c, 9, 59, 0
4, 34392, Note_on_c, 9, 44, 38
4, 34423, Note_on_c, 9, 44, 0
4, 34472, Note_on_c, 9, 44, 51
4, 34520, Note_on_c, 9, 44, 0
4, 34563, Note_on_c, 9, 44, 38
4, 34575, Note_on_c, 9, 44, 0
4, 34650, Note_on_c, 9, 59, 41
4, 34659, Note_on_c, 9, 59, 0
4, 34686, Note_on_c, 9, 59, 38
4, 34705, Note_on_c, 9, 59, 0
4, 34763, Note_on_c, 9, 38, 30
4, 34767, Note_on_c, 9, 59, 96
4, 34784, Note_on_c, 9, 38, 0
4, 34809, Note_on_c, 9, 59, 0
4, 34819, Note_on_c, 9, 36, 15
4, 34839, Note_on_c, 9, 59, 45
4, 34848, Note_on_c, 9, 36, 0
4, 34871, Note_on_c, 9, 59, 0
4, 34883, Note_on_c, 9, 36, 18
4, 34895, Note_on_c, 9, 36, 0
4, 34941, Note_on_c, 9, 59, 67
4, 34958, Note_on_c, 9, 59, 0
4, 35015, Note_on_c, 9, 59, 96
4, 35040, Note_on_c, 9, 59, 0
4, 35131, Note_on_c, 9, 59, 34
4, 35147, Note_on_c, 9, 59, 0
4, 35174, Note_on_c, 9, 59, 49
4, 35197, Note_on_c, 9, 59, 0
4, 35250, Note_on_c, 9, 59, 54
4, 35261, Note_on_c, 9, 59, 0
4, 35294, Note_on_c, 9, 59, 50
4, 35305, Note_on_c, 9, 59, 0
4, 35355, Note_on_c, 9, 38, 36
4, 35363, Note_on_c, 9, 38, 0
4, 35400, Note_on_c, 9, 36, 18
4, 35426, Note_on_c, 9, 36, 0
4, 35476, Note_on_c, 9, 36, 28
4, 35484, Note_on_c, 9, 59, 58
4, 35488, Note_on_c, 9, 36, 0
4, 35500, Note_on_c, 9, 59, 0
4, 35524, Note_on_c, 9, 59, 42
4, 35548, Note_on_c, 9, 59, 0
4, 35721, Note_on_c, 9, 59, 58
4, 35734, Note_on_c, 9, 59, 0
4, 35763, Note_on_c, 9, 59, 44
4, 35802, Note_on_c, 9, 59, 0
4, 35834, Note_on_c, 9, 38, 33
4, 35843, Note_on_c, 9, 38, 0
4, 35877, Note_on_c, 9, 59, 89
4, 35916, Note_on_c, 9, 59, 0
4, 35955, Note_on_c, 9, 36, 33
4, 35965, Note_on_c, 9, 36, 0
4, 35970, Note_on_c, 9, 59, 51
4, 35981, Note_on_c, 9, 59, 0
4, 36215, Note_on_c, 9, 53, 35
4, 36224, Note_on_c, 9, 53, 0
4, 36258, Note_on_c, 9, 59, 69
4, 36267, Note_on_c, 9, 59, 0
4, 36292, Note_on_c, 9, 59, 62
4, 36309, Note_on_c, 9, 59, 0
4, 36355, Note_on_c, 9, 53, 47
4, 36363, Note_on_c, 9, 53, 0
4, 36388, Note_on_c, 9, 59, 58
4, 36399, Note_on_c, 9, 59, 0
4, 36430, Note_on_c, 9, 59, 53
4, 36443, Note_on_c, 9, 59, 0
4, 36476, Note_on_c, 9, 53, 34
4, 36485, Note_on_c, 9, 53, 0
4, 36513, Note_on_c, 9, 59, 56
4, 36558, Note_on_c, 9, 59, 0
4, 36696, Note_on_c, 9, 59, 24
4, 36708, Note_on_c, 9, 59, 0
4, 36734, Note_on_c, 9, 59, 54
4, 36765, Note_on_c, 9, 59, 0
4, 36921, Note_on_c, 9, 38, 20
4, 36935, Note_on_c, 9, 38, 0
4, 37046, Note_on_c, 9, 59, 38
4, 37062, Note_on_c, 9, 59, 0
4, 37088, Note_on_c, 9, 59, 41
4, 37124, Note_on_c, 9, 59, 0
4, 37169, Note_on_c, 9, 53, 27
4, 37177, Note_on_c, 9, 53, 0
4, 37203, Note_on_c, 9, 59, 61
4, 37223, Note_on_c, 9, 59, 0
4, 37247, Note_on_c, 9, 53, 51
4, 37256, Note_on_c, 9, 53, 0
4, 37326, Note_on_c, 9, 59, 62
4, 37331, Note_on_c, 9, 53, 56
4, 37343, Note_on_c, 9, 53, 0
4, 37346, Note_on_c, 9, 59, 0
4, 37454, Note_on_c, 9, 59, 25
4, 37471, Note_on_c, 9, 59, 0
4, 37643, Note_on_c, 9, 38, 33
4, 37653, Note_on_c, 9, 38, 0
4, 37654, Note_on_c, 9, 59, 54
4, 37665, Note_on_c, 9, 59, 0
4, 37689, Note_on_c, 9, 59, 49
4, 37689, Note_on_c, 9, 38, 42
4, 37703, Note_on_c, 9, 38, 0
4, 37722, Note_on_c, 9, 38, 27
4, 37734, Note_on_c, 9, 38, 0
4, 37739, Note_on_c, 9, 59, 0
4, 37764, Note_on_c, 9, 36, 35
4, 37783, Note_on_c, 9, 36, 0
4, 37889, Note_on_c, 9, 59, 43
4, 37900, Note_on_c, 9, 59, 0
4, 37926, Note_on_c, 9, 59, 54
4, 37966, Note_on_c, 9, 59, 0
4, 38002, Note_on_c, 9, 38, 30
4, 38014, Note_on_c, 9, 38, 0
4, 38052, Note_on_c, 9, 38, 26
4, 38071, Note_on_c, 9, 38, 0
4, 38121, Note_on_c, 9, 59, 55
4, 38128, Note_on_c, 9, 36, 24
4, 38138, Note_on_c, 9, 59, 0
4, 38143, Note_on_c, 9, 36, 0
4, 38164, Note_on_c, 9, 59, 44
4, 38175, Note_on_c, 9, 59, 0
4, 38244, Note_on_c, 9, 59, 88
4, 38246, Note_on_c, 9, 38, 28
4, 38258, Note_on_c, 9, 38, 0
4, 38262, Note_on_c, 9, 59, 0
4, 38288, Note_on_c, 9, 59, 72
4, 38309, Note_on_c, 9, 59, 0
4, 38360, Note_on_c, 9, 38, 51
4, 38369, Note_on_c, 9, 59, 50
4, 38378, Note_on_c, 9, 59, 0
4, 38378, Note_on_c, 9, 38, 0
4, 38405, Note_on_c, 9, 57, 40
4, 38409, Note_on_c, 9, 59, 57
4, 38415, Note_on_c, 9, 57, 0
4, 38418, Note_on_c, 9, 59, 0
4, 38488, Note_on_c, 9, 59, 74
4, 38496, Note_on_c, 9, 59, 0
4, 38528, Note_on_c, 9, 59, 90
4, 38589, Note_on_c, 9, 59, 0
4, 38646, Note_on_c, 9, 59, 43
4, 38655, Note_on_c, 9, 59, 0
4, 38718, Note_on_c, 9, 38, 21
4, 38726, Note_on_c, 9, 38, 0
4, 38729, Note_on_c, 9, 59, 71
4, 38739, Note_on_c, 9, 59, 0
4, 38766, Note_on_c, 9, 59, 80
4, 38769, Note_on_c, 9, 36, 18
4, 38778, Note_on_c, 9, 36, 0
4, 38828, Note_on_c, 9, 59, 0
4, 38834, Note_on_c, 9, 36, 49
4, 38857, Note_on_c, 9, 36, 0
4, 38887, Note_on_c, 9, 36, 26
4, 38890, Note_on_c, 9, 59, 38
4, 38901, Note_on_c, 9, 59, 0
4, 38904, Note_on_c, 9, 36, 0
4, 39006, Note_on_c, 9, 59, 84
4, 39045, Note_on_c, 9, 59, 0
4, 39127, Note_on_c, 9, 59, 29
4, 39137, Note_on_c, 9, 59, 0
4, 39166, Note_on_c, 9, 38, 39
4, 39174, Note_on_c, 9, 38, 0
4, 39207, Note_on_c, 9, 59, 45
4, 39226, Note_on_c, 9, 59, 0
4, 39245, Note_on_c, 9, 38, 45
4, 39250, Note_on_c, 9, 59, 67
4, 39256, Note_on_c, 9, 38, 0
4, 39322, Note_on_c, 9, 38, 43
4, 39324, Note_on_c, 9, 59, 0
4, 39331, Note_on_c, 9, 38, 0
4, 39367, Note_on_c, 9, 59, 45
4, 39377, Note_on_c, 9, 59, 0
4, 39449, Note_on_c, 9, 59, 52
4, 39460, Note_on_c, 9, 59, 0
4, 39493, Note_on_c, 9, 59, 47
4, 39513, Note_on_c, 9, 59, 0
4, 39570, Note_on_c, 9, 59, 95
4, 39600, Note_on_c, 9, 59, 0
4, 39670, Note_on_c, 9, 38, 39
4, 39683, Note_on_c, 9, 59, 60
4, 39689, Note_on_c, 9, 38, 0
4, 39692, Note_on_c, 9, 59, 0
4, 39720, Note_on_c, 9, 38, 22
4, 39734, Note_on_c, 9, 59, 44
4, 39736, Note_on_c, 9, 38, 0
4, 39743, Note_on_c, 9, 59, 0
4, 39790, Note_on_c, 9, 36, 43
4, 39808, Note_on_c, 9, 36, 0
4, 39811, Note_on_c, 9, 59, 83
4, 39828, Note_on_c, 9, 59, 0
4, 39835, Note_on_c, 9, 36, 35
4, 39856, Note_on_c, 9, 36, 0
4, 40036, Note_on_c, 9, 38, 36
4, 40042, Note_on_c, 9, 59, 66
4, 40044, Note_on_c, 9, 38, 0
4, 40060, Note_on_c, 9, 59, 0
4, 40085, Note_on_c, 9, 59, 64
4, 40120, Note_on_c, 9, 38, 30
4, 40144, Note_on_c, 9, 59, 0
4, 40148, Note_on_c, 9, 38, 0
4, 40206, Note_on_c, 9, 38, 42
4, 40218, Note_on_c, 9, 38, 0
4, 40287, Note_on_c, 9, 59, 44
4, 40301, Note_on_c, 9, 59, 0
4, 40328, Note_on_c, 9, 59, 67
4, 40387, Note_on_c, 9, 59, 0
4, 40527, Note_on_c, 9, 59, 50
4, 40538, Note_on_c, 9, 59, 0
4, 40569, Note_on_c, 9, 59, 71
4, 40597, Note_on_c, 9, 59, 0
4, 40647, Note_on_c, 9, 59, 103
4, 40689, Note_on_c, 9, 59, 0
4, 40753, Note_on_c, 9, 59, 59
4, 40765, Note_on_c, 9, 59, 0
4, 40787, Note_on_c, 9, 59, 67
4, 40804, Note_on_c, 9, 59, 0
4, 40827, Note_on_c, 9, 59, 80
4, 40853, Note_on_c, 9, 59, 0
4, 40994, Note_on_c, 9, 36, 32
4, 41008, Note_on_c, 9, 59, 68
4, 41013, Note_on_c, 9, 36, 0
4, 41026, Note_on_c, 9, 59, 0
4, 41231, Note_on_c, 9, 36, 47
4, 41245, Note_on_c, 9, 59, 46
4, 41248, Note_on_c, 9, 36, 0
4, 41256, Note_on_c, 9, 59, 0
4, 41277, Note_on_c, 9, 36, 26
4, 41284, Note_on_c, 9, 59, 57
4, 41318, Note_on_c, 9, 36, 0
4, 41322, Note_on_c, 9, 59, 0
4, 41370, Note_on_c, 9, 59, 88
4, 41387, Note_on_c, 9, 59, 0
4, 41449, Note_on_c, 9, 59, 85
4, 41474, Note_on_c, 9, 59, 0
4, 41534, Note_on_c, 9, 59, 88
4, 41562, Note_on_c, 9, 59, 0
4, 41597, Note_on_c, 9, 36, 27
4, 41608, Note_on_c, 9, 36, 0
4, 41659, Note_on_c, 9, 36, 31
4, 41683, Note_on_c, 9, 36, 0
4, 41719, Note_on_c, 9, 36, 33
4, 41740, Note_on_c, 9, 36, 0
4, 41811, Note_on_c, 9, 59, 60
4, 41825, Note_on_c, 9, 59, 0
4, 41843, Note_on_c, 9, 59, 65
4, 41857, Note_on_c, 9, 59, 0
4, 41888, Note_on_c, 9, 59, 76
4, 41910, Note_on_c, 9, 59, 0
4, 41958, Note_on_c, 9, 53, 65
4, 41975, Note_on_c, 9, 53, 0
4, 42032, Note_on_c, 9, 59, 61
4, 42054, Note_on_c, 9, 59, 0
4, 42089, Note_on_c, 9, 38, 24
4, 42108, Note_on_c, 9, 38, 0
4, 42126, Note_on_c, 9, 59, 73
4, 42146, Note_on_c, 9, 59, 0
4, 42202, Note_on_c, 9, 36, 49
4, 42207, Note_on_c, 9, 59, 53
4, 42218, Note_on_c, 9, 59, 0
4, 42223, Note_on_c, 9, 36, 0
4, 42243, Note_on_c, 9, 59, 62
4, 42247, Note_on_c, 9, 36, 36
4, 42270, Note_on_c, 9, 36, 0
4, 42307, Note_on_c, 9, 59, 0
4, 42443, Note_on_c, 9, 59, 45
4, 42454, Note_on_c, 9, 59, 0
4, 42481, Note_on_c, 9, 59, 55
4, 42543, Note_on_c, 9, 59, 0
4, 42564, Note_on_c, 9, 38, 42
4, 42572, Note_on_c, 9, 38, 0
4, 42603, Note_on_c, 9, 59, 66
4, 42606, Note_on_c, 9, 36, 20
4, 42624, Note_on_c, 9, 36, 0
4, 42654, Note_on_c, 9, 59, 0
4, 42683, Note_on_c, 9, 38, 42
4, 42691, Note_on_c, 9, 38, 0
4, 42722, Note_on_c, 9, 59, 57
4, 42727, Note_on_c, 9, 36, 36
4, 42745, Note_on_c, 9, 59, 0
4, 42754, Note_on_c, 9, 36, 0
4, 42808, Note_on_c, 9, 38, 39
4, 42819, Note_on_c, 9, 38, 0
4, 42855, Note_on_c, 9, 36, 14
4, 42882, Note_on_c, 9, 36, 0
4, 42929, Note_on_c, 9, 59, 45
4, 42931, Note_on_c, 9, 36, 38
4, 42940, Note_on_c, 9, 59, 0
4, 42942, Note_on_c, 9, 36, 0
4, 42968, Note_on_c, 9, 59, 57
4, 42975, Note_on_c, 9, 36, 36
4, 42989, Note_on_c, 9, 59, 0
4, 42991, Note_on_c, 9, 36, 0
4, 43048, Note_on_c, 9, 59, 94
4, 43064, Note_on_c, 9, 59, 0
4, 43089, Note_on_c, 9, 59, 75
4, 43149, Note_on_c, 9, 59, 0
4, 43206, Note_on_c, 9, 59, 42
4, 43217, Note_on_c, 9, 59, 0
4, 43278, Note_on_c, 9, 59, 84
4, 43293, Note_on_c, 9, 59, 0
4, 43359, Note_on_c, 9, 59, 82
4, 43382, Note_on_c, 9, 59, 0
4, 43452, Note_on_c, 9, 59, 74
4, 43478, Note_on_c, 9, 59, 0
4, 43534, Note_on_c, 9, 59, 64
4, 43552, Note_on_c, 9, 59, 0
4, 43617, Note_on_c, 9, 59, 65
4, 43628, Note_on_c, 9, 59, 0
4, 43642, Note_on_c, 9, 38, 35
4, 43650, Note_on_c, 9, 59, 66
4, 43652, Note_on_c, 9, 38, 0
4, 43669, Note_on_c, 9, 59, 0
4, 43696, Note_on_c, 9, 59, 83
4, 43733, Note_on_c, 9, 59, 0
4, 43760, Note_on_c, 9, 38, 24
4, 43787, Note_on_c, 9, 38, 0
4, 43799, Note_on_c, 9, 59, 34
4, 43812, Note_on_c, 9, 59, 0
4, 43835, Note_on_c, 9, 59, 49
4, 43851, Note_on_c, 9, 59, 0
4, 43878, Note_on_c, 9, 59, 77
4, 43921, Note_on_c, 9, 59, 0
4, 43999, Note_on_c, 9, 59, 64
4, 44007, Note_on_c, 9, 38, 35
4, 44008, Note_on_c, 9, 59, 0
4, 44016, Note_on_c, 9, 38, 0
4, 44043, Note_on_c, 9, 59, 94
4, 44104, Note_on_c, 9, 59, 0
4, 44133, Note_on_c, 9, 38, 42
4, 44142, Note_on_c, 9, 38, 0
4, 44248, Note_on_c, 9, 59, 62
4, 44263, Note_on_c, 9, 59, 0
4, 44285, Note_on_c, 9, 59, 61
4, 44330, Note_on_c, 9, 59, 0
4, 44527, Note_on_c, 9, 59, 76
4, 44538, Note_on_c, 9, 59, 0
4, 44629, Note_on_c, 9, 59, 44
4, 44639, Note_on_c, 9, 59, 0
4, 44653, Note_on_c, 9, 59, 71
4, 44711, Note_on_c, 9, 59, 0
4, 44841, Note_on_c, 9, 38, 24
4, 44849, Note_on_c, 9, 59, 53
4, 44851, Note_on_c, 9, 38, 0
4, 44859, Note_on_c, 9, 59, 0
4, 44886, Note_on_c, 9, 59, 57
4, 44939, Note_on_c, 9, 59, 0
4, 44960, Note_on_c, 9, 36, 24
4, 44972, Note_on_c, 9, 36, 0
4, 45082, Note_on_c, 9, 59, 58
4, 45084, Note_on_c, 9, 38, 34
4, 45093, Note_on_c, 9, 38, 0
4, 45098, Note_on_c, 9, 59, 0
4, 45123, Note_on_c, 9, 59, 57
4, 45131, Note_on_c, 9, 38, 29
4, 45140, Note_on_c, 9, 38, 0
4, 45172, Note_on_c, 9, 59, 0
4, 45208, Note_on_c, 9, 36, 16
4, 45219, Note_on_c, 9, 36, 0
4, 45365, Note_on_c, 9, 59, 84
4, 45420, Note_on_c, 9, 59, 0
4, 45488, Note_on_c, 9, 59, 101
4, 45551, Note_on_c, 9, 59, 0
4, 45614, Note_on_c, 9, 59, 55
4, 45643, Note_on_c, 9, 59, 0
4, 45687, Note_on_c, 9, 59, 51
4, 45704, Note_on_c, 9, 59, 0
4, 45728, Note_on_c, 9, 59, 83
4, 45804, Note_on_c, 9, 59, 0
4, 45843, Note_on_c, 9, 59, 74
4, 45912, Note_on_c, 9, 59, 0
4, 45931, Note_on_c, 9, 38, 33
4, 45941, Note_on_c, 9, 38, 0
4, 45967, Note_on_c, 9, 59, 80
4, 46033, Note_on_c, 9, 59, 0
4, 46049, Note_on_c, 9, 36, 43
4, 46058, Note_on_c, 9, 36, 0
4, 46090, Note_on_c, 9, 59, 48
4, 46124, Note_on_c, 9, 59, 0
4, 46210, Note_on_c, 9, 59, 96
4, 46305, Note_on_c, 9, 59, 0
4, 46330, Note_on_c, 9, 59, 42
4, 46364, Note_on_c, 9, 59, 0
4, 46448, Note_on_c, 9, 59, 69
4, 46504, Note_on_c, 9, 59, 0
4, 46564, Note_on_c, 9, 59, 45
4, 46584, Note_on_c, 9, 59, 0
4, 46764, Note_on_c, 9, 59, 50
4, 46776, Note_on_c, 9, 59, 0
4, 46805, Note_on_c, 9, 59, 51
4, 46838, Note_on_c, 9, 59, 0
4, 46917, Note_on_c, 9, 59, 65
4, 46933, Note_on_c, 9, 59, 0
4, 47004, Note_on_c, 9, 59, 47
4, 47015, Note_on_c, 9, 59, 0
4, 47038, Note_on_c, 9, 59, 62
4, 47095, Note_on_c, 9, 59, 0
4, 47153, Note_on_c, 9, 37, 28
4, 47158, Note_on_c, 9, 59, 71
4, 47161, Note_on_c, 9, 37, 0
4, 47219, Note_on_c, 9, 59, 0
4, 47222, Note_on_c, 9, 37, 47
4, 47242, Note_on_c, 9, 37, 0
4, 47286, Note_on_c, 9, 59, 58
4, 47297, Note_on_c, 9, 37, 33
4, 47316, Note_on_c, 9, 37, 0
4, 47344, Note_on_c, 9, 59, 0
4, 47411, Note_on_c, 9, 59, 57
4, 47434, Note_on_c, 9, 59, 0
4, 47483, Note_on_c, 9, 38, 24
4, 47496, Note_on_c, 9, 38, 0
4, 47613, Note_on_c, 9, 59, 54
4, 47624, Note_on_c, 9, 59, 0
4, 47652, Note_on_c, 9, 59, 54
4, 47705, Note_on_c, 9, 59, 0
4, 47720, Note_on_c, 9, 38, 39
4, 47729, Note_on_c, 9, 38, 0
4, 47769, Note_on_c, 9, 38, 39
4, 47779, Note_on_c, 9, 38, 0
4, 47800, Note_on_c, 9, 38, 27
4, 47810, Note_on_c, 9, 38, 0
4, 47855, Note_on_c, 9, 59, 30
4, 47865, Note_on_c, 9, 59, 0
4, 47886, Note_on_c, 9, 38, 43
4, 47890, Note_on_c, 9, 59, 52
4, 47902, Note_on_c, 9, 38, 0
4, 47915, Note_on_c, 9, 59, 0
4, 47921, Note_on_c, 9, 38, 32
4, 47933, Note_on_c, 9, 38, 0
4, 47974, Note_on_c, 9, 59, 87
4, 47990, Note_on_c, 9, 59, 0
4, 48005, Note_on_c, 9, 38, 35
4, 48013, Note_on_c, 9, 59, 70
4, 48023, Note_on_c, 9, 38, 0
4, 48042, Note_on_c, 9, 38, 24
4, 48055, Note_on_c, 9, 38, 0
4, 48084, Note_on_c, 9, 59, 0
4, 48127, Note_on_c, 9, 38, 39
4, 48139, Note_on_c, 9, 38, 0
4, 48444, Note_on_c, 9, 51, 67
4, 48459, Note_on_c, 9, 51, 0
4, 48687, Note_on_c, 9, 51, 65
4, 48690, Note_on_c, 9, 38, 19
4, 48699, Note_on_c, 9, 38, 0
4, 48701, Note_on_c, 9, 51, 0
4, 48731, Note_on_c, 9, 51, 43
4, 48735, Note_on_c, 9, 38, 21
4, 48759, Note_on_c, 9, 51, 0
4, 48789, Note_on_c, 9, 38, 0
4, 48809, Note_on_c, 9, 36, 27
4, 48822, Note_on_c, 9, 36, 0
4, 48855, Note_on_c, 9, 36, 30
4, 48890, Note_on_c, 9, 36, 0
4, 48924, Note_on_c, 9, 36, 45
4, 48927, Note_on_c, 9, 51, 49
4, 48935, Note_on_c, 9, 51, 0
4, 48951, Note_on_c, 9, 36, 0
4, 48967, Note_on_c, 9, 51, 55
4, 49003, Note_on_c, 9, 51, 0
4, 49084, Note_on_c, 9, 51, 60
4, 49106, Note_on_c, 9, 51, 0
4, 49162, Note_on_c, 9, 38, 18
4, 49182, Note_on_c, 9, 38, 0
4, 49208, Note_on_c, 9, 51, 69
4, 49232, Note_on_c, 9, 51, 0
4, 49403, Note_on_c, 9, 51, 57
4, 49408, Note_on_c, 9, 38, 31
4, 49416, Note_on_c, 9, 51, 0
4, 49417, Note_on_c, 9, 38, 0
4, 49448, Note_on_c, 9, 51, 77
4, 49509, Note_on_c, 9, 51, 0
4, 49527, Note_on_c, 9, 38, 25
4, 49537, Note_on_c, 9, 38, 0
4, 49582, Note_on_c, 9, 51, 18
4, 49593, Note_on_c, 9, 51, 0
4, 49641, Note_on_c, 9, 51, 59
4, 49641, Note_on_c, 9, 38, 54
4, 49655, Note_on_c, 9, 51, 0
4, 49664, Note_on_c, 9, 38, 0
4, 49687, Note_on_c, 9, 51, 71
4, 49733, Note_on_c, 9, 51, 0
4, 49763, Note_on_c, 9, 38, 58
4, 49790, Note_on_c, 9, 38, 0
4, 49879, Note_on_c, 9, 51, 49
4, 49899, Note_on_c, 9, 51, 0
4, 49925, Note_on_c, 9, 53, 63
4, 49929, Note_on_c, 9, 57, 60
4, 49930, Note_on_c, 9, 36, 57
4, 49930, Note_on_c, 9, 38, 54
4, 49939, Note_on_c, 9, 36, 0
4, 49944, Note_on_c, 9, 38, 0
4, 49944, Note_on_c, 9, 57, 0
4, 49954, Note_on_c, 9, 53, 0
4, 50003, Note_on_c, 9, 51, 47
4, 50019, Note_on_c, 9, 51, 0
4, 50047, Note_on_c, 9, 51, 35
4, 50092, Note_on_c, 9, 51, 0
4, 50130, Note_on_c, 9, 38, 43
4, 50159, Note_on_c, 9, 38, 0
4, 50159, Note_on_c, 9, 51, 74
4, 50195, Note_on_c, 9, 51, 0
4, 50279, Note_on_c, 9, 51, 60
4, 50299, Note_on_c, 9, 51, 0
4, 50367, Note_on_c, 9, 51, 58
4, 50385, Note_on_c, 9, 51, 0
4, 50400, Note_on_c, 9, 51, 55
4, 50418, Note_on_c, 9, 51, 0
4, 50516, Note_on_c, 9, 51, 62
4, 50530, Note_on_c, 9, 51, 0
4, 50592, Note_on_c, 9, 36, 33
4, 50605, Note_on_c, 9, 51, 69
4, 50614, Note_on_c, 9, 36, 0
4, 50629, Note_on_c, 9, 51, 0
4, 50654, Note_on_c, 9, 36, 8
4, 50674, Note_on_c, 9, 36, 0
4, 50727, Note_on_c, 9, 51, 54
4, 50736, Note_on_c, 9, 51, 0
4, 50770, Note_on_c, 9, 51, 83
4, 50832, Note_on_c, 9, 51, 0
4, 50880, Note_on_c, 9, 51, 37
4, 50904, Note_on_c, 9, 51, 0
4, 50961, Note_on_c, 9, 51, 87
4, 50982, Note_on_c, 9, 51, 0
4, 51002, Note_on_c, 9, 51, 62
4, 51030, Note_on_c, 9, 36, 24
4, 51040, Note_on_c, 9, 36, 0
4, 51067, Note_on_c, 9, 51, 0
4, 51117, Note_on_c, 9, 51, 76
4, 51179, Note_on_c, 9, 51, 0
4, 51237, Note_on_c, 9, 51, 80
4, 51290, Note_on_c, 9, 51, 0
4, 51291, Note_on_c, 9, 36, 42
4, 51301, Note_on_c, 9, 36, 0
4, 51326, Note_on_c, 9, 36, 27
4, 51330, Note_on_c, 9, 51, 49
4, 51336, Note_on_c, 9, 36, 0
4, 51346, Note_on_c, 9, 51, 0
4, 51360, Note_on_c, 9, 51, 69
4, 51376, Note_on_c, 9, 36, 39
4, 51390, Note_on_c, 9, 36, 0
4, 51424, Note_on_c, 9, 51, 0
4, 51453, Note_on_c, 9, 36, 36
4, 51462, Note_on_c, 9, 36, 0
4, 51473, Note_on_c, 9, 51, 82
4, 51530, Note_on_c, 9, 36, 30
4, 51537, Note_on_c, 9, 51, 0
4, 51557, Note_on_c, 9, 36, 0
4, 51597, Note_on_c, 9, 51, 78
4, 51613, Note_on_c, 9, 36, 24
4, 51633, Note_on_c, 9, 36, 0
4, 51639, Note_on_c, 9, 51, 0
4, 51690, Note_on_c, 9, 51, 48
4, 51700, Note_on_c, 9, 51, 0
4, 51718, Note_on_c, 9, 51, 75
4, 51794, Note_on_c, 9, 38, 32
4, 51801, Note_on_c, 9, 51, 0
4, 51810, Note_on_c, 9, 38, 0
4, 51841, Note_on_c, 9, 51, 84
4, 51841, Note_on_c, 9, 36, 27
4, 51892, Note_on_c, 9, 36, 0
4, 51912, Note_on_c, 9, 51, 0
4, 51965, Note_on_c, 9, 51, 86
4, 52015, Note_on_c, 9, 51, 0
4, 52052, Note_on_c, 9, 51, 49
4, 52063, Note_on_c, 9, 51, 0
4, 52083, Note_on_c, 9, 51, 62
4, 52117, Note_on_c, 9, 46, 34
4, 52128, Note_on_c, 9, 46, 0
4, 52148, Note_on_c, 9, 51, 0
4, 52200, Note_on_c, 9, 51, 77
4, 52202, Note_on_c, 9, 46, 42
4, 52220, Note_on_c, 9, 46, 0
4, 52245, Note_on_c, 9, 51, 0
4, 52281, Note_on_c, 9, 46, 47
4, 52284, Note_on_c, 9, 53, 87
4, 52300, Note_on_c, 9, 46, 0
4, 52364, Note_on_c, 9, 46, 37
4, 52390, Note_on_c, 9, 46, 0
4, 52391, Note_on_c, 9, 53, 0
4, 52406, Note_on_c, 9, 51, 53
4, 52422, Note_on_c, 9, 51, 0
4, 52446, Note_on_c, 9, 46, 33
4, 52452, Note_on_c, 9, 51, 45
4, 52466, Note_on_c, 9, 46, 0
4, 52490, Note_on_c, 9, 51, 0
4, 52522, Note_on_c, 9, 38, 33
4, 52524, Note_on_c, 9, 53, 92
4, 52536, Note_on_c, 9, 38, 0
4, 52602, Note_on_c, 9, 38, 31
4, 52626, Note_on_c, 9, 53, 0
4, 52630, Note_on_c, 9, 38, 0
4, 52653, Note_on_c, 9, 51, 44
4, 52664, Note_on_c, 9, 51, 0
4, 52691, Note_on_c, 9, 38, 24
4, 52697, Note_on_c, 9, 51, 57
4, 52709, Note_on_c, 9, 38, 0
4, 52740, Note_on_c, 9, 51, 0
4, 52764, Note_on_c, 9, 38, 39
4, 52773, Note_on_c, 9, 51, 74
4, 52783, Note_on_c, 9, 38, 0
4, 52796, Note_on_c, 9, 51, 0
4, 52814, Note_on_c, 9, 51, 44
4, 52880, Note_on_c, 9, 51, 0
4, 52924, Note_on_c, 9, 51, 68
4, 52994, Note_on_c, 9, 51, 0
4, 53122, Note_on_c, 9, 51, 63
4, 53137, Note_on_c, 9, 51, 0
4, 53160, Note_on_c, 9, 51, 77
4, 53235, Note_on_c, 9, 51, 0
4, 53278, Note_on_c, 9, 51, 83
4, 53350, Note_on_c, 9, 51, 0
4, 53400, Note_on_c, 9, 51, 80
4, 53422, Note_on_c, 9, 51, 0
4, 53434, Note_on_c, 9, 51, 77
4, 53449, Note_on_c, 9, 51, 0
4, 53531, Note_on_c, 9, 44, 42
4, 53533, Note_on_c, 9, 51, 83
4, 53543, Note_on_c, 9, 44, 0
4, 53567, Note_on_c, 9, 44, 37
4, 53575, Note_on_c, 9, 44, 0
4, 53610, Note_on_c, 9, 51, 0
4, 53611, Note_on_c, 9, 38, 18
4, 53626, Note_on_c, 9, 38, 0
4, 53643, Note_on_c, 9, 51, 54
4, 53643, Note_on_c, 9, 44, 39
4, 53652, Note_on_c, 9, 51, 0
4, 53653, Note_on_c, 9, 44, 0
4, 53677, Note_on_c, 9, 44, 39
4, 53681, Note_on_c, 9, 51, 86
4, 53692, Note_on_c, 9, 44, 0
4, 53724, Note_on_c, 9, 51, 0
4, 53729, Note_on_c, 9, 38, 38
4, 53741, Note_on_c, 9, 38, 0
4, 53845, Note_on_c, 9, 51, 60
4, 53855, Note_on_c, 9, 51, 0
4, 53880, Note_on_c, 9, 51, 75
4, 53939, Note_on_c, 9, 51, 0
4, 53962, Note_on_c, 9, 53, 71
4, 53999, Note_on_c, 9, 53, 0
4, 54032, Note_on_c, 9, 51, 53
4, 54068, Note_on_c, 9, 51, 0
4, 54081, Note_on_c, 9, 38, 27
4, 54093, Note_on_c, 9, 38, 0
4, 54131, Note_on_c, 9, 51, 76
4, 54154, Note_on_c, 9, 51, 0
4, 54197, Note_on_c, 9, 38, 30
4, 54206, Note_on_c, 9, 51, 76
4, 54208, Note_on_c, 9, 38, 0
4, 54230, Note_on_c, 9, 51, 0
4, 54285, Note_on_c, 9, 51, 73
4, 54319, Note_on_c, 9, 36, 30
4, 54325, Note_on_c, 9, 51, 0
4, 54330, Note_on_c, 9, 36, 0
4, 54376, Note_on_c, 9, 51, 74
4, 54396, Note_on_c, 9, 51, 0
4, 54442, Note_on_c, 9, 36, 21
4, 54452, Note_on_c, 9, 36, 0
4, 54454, Note_on_c, 9, 51, 80
4, 54476, Note_on_c, 9, 51, 0
4, 54481, Note_on_c, 9, 42, 42
4, 54492, Note_on_c, 9, 42, 0
4, 54518, Note_on_c, 9, 42, 36
4, 54528, Note_on_c, 9, 42, 0
4, 54541, Note_on_c, 9, 51, 67
4, 54557, Note_on_c, 9, 51, 0
4, 54574, Note_on_c, 9, 51, 53
4, 54593, Note_on_c, 9, 51, 0
4, 54613, Note_on_c, 9, 51, 64
4, 54655, Note_on_c, 9, 51, 0
4, 54694, Note_on_c, 9, 51, 69
4, 54711, Note_on_c, 9, 51, 0
4, 54728, Note_on_c, 9, 51, 64
4, 54781, Note_on_c, 9, 51, 0
4, 54848, Note_on_c, 9, 51, 78
4, 54894, Note_on_c, 9, 51, 0
4, 54930, Note_on_c, 9, 51, 51
4, 54945, Note_on_c, 9, 51, 0
4, 54963, Note_on_c, 9, 51, 64
4, 55022, Note_on_c, 9, 51, 0
4, 55081, Note_on_c, 9, 51, 82
4, 55156, Note_on_c, 9, 51, 0
4, 55280, Note_on_c, 9, 46, 37
4, 55286, Note_on_c, 9, 51, 59
4, 55293, Note_on_c, 9, 46, 0
4, 55299, Note_on_c, 9, 51, 0
4, 55327, Note_on_c, 9, 51, 80
4, 55327, Note_on_c, 9, 46, 34
4, 55340, Note_on_c, 9, 46, 0
4, 55390, Note_on_c, 9, 51, 0
4, 55405, Note_on_c, 9, 38, 21
4, 55418, Note_on_c, 9, 38, 0
4, 55445, Note_on_c, 9, 51, 60
4, 55453, Note_on_c, 9, 51, 0
4, 55457, Note_on_c, 9, 38, 27
4, 55468, Note_on_c, 9, 38, 0
4, 55520, Note_on_c, 9, 51, 86
4, 55525, Note_on_c, 9, 38, 39
4, 55537, Note_on_c, 9, 38, 0
4, 55590, Note_on_c, 9, 51, 0
4, 55645, Note_on_c, 9, 51, 57
4, 55666, Note_on_c, 9, 51, 0
4, 55689, Note_on_c, 9, 51, 82
4, 55744, Note_on_c, 9, 51, 0
4, 55805, Note_on_c, 9, 51, 44
4, 55813, Note_on_c, 9, 51, 0
4, 55877, Note_on_c, 9, 46, 34
4, 55881, Note_on_c, 9, 38, 34
4, 55883, Note_on_c, 9, 51, 83
4, 55885, Note_on_c, 9, 46, 0
4, 55892, Note_on_c, 9, 38, 0
4, 55904, Note_on_c, 9, 51, 0
4, 55924, Note_on_c, 9, 36, 37
4, 55931, Note_on_c, 9, 51, 44
4, 55975, Note_on_c, 9, 36, 0
4, 55994, Note_on_c, 9, 51, 0
4, 56048, Note_on_c, 9, 51, 77
4, 56087, Note_on_c, 9, 51, 0
4, 56136, Note_on_c, 9, 51, 39
4, 56145, Note_on_c, 9, 51, 0
4, 56168, Note_on_c, 9, 51, 59
4, 56233, Note_on_c, 9, 51, 0
4, 56287, Note_on_c, 9, 51, 76
4, 56325, Note_on_c, 9, 51, 0
4, 56380, Note_on_c, 9, 51, 28
4, 56389, Note_on_c, 9, 51, 0
4, 56406, Note_on_c, 9, 51, 59
4, 56440, Note_on_c, 9, 38, 36
4, 56448, Note_on_c, 9, 38, 0
4, 56458, Note_on_c, 9, 51, 0
4, 56474, Note_on_c, 9, 38, 31
4, 56486, Note_on_c, 9, 38, 0
4, 56518, Note_on_c, 9, 36, 31
4, 56526, Note_on_c, 9, 51, 70
4, 56533, Note_on_c, 9, 36, 0
4, 56543, Note_on_c, 9, 51, 0
4, 56608, Note_on_c, 9, 51, 50
4, 56628, Note_on_c, 9, 51, 0
4, 56644, Note_on_c, 9, 51, 73
4, 56693, Note_on_c, 9, 51, 0
4, 56829, Note_on_c, 9, 38, 48
4, 56841, Note_on_c, 9, 38, 0
4, 56848, Note_on_c, 9, 51, 53
4, 56858, Note_on_c, 9, 51, 0
4, 56873, Note_on_c, 9, 46, 48
4, 56877, Note_on_c, 9, 36, 49
4, 56886, Note_on_c, 9, 36, 0
4, 56886, Note_on_c, 9, 51, 76
4, 56887, Note_on_c, 9, 46, 0
4, 56944, Note_on_c, 9, 51, 0
4, 57000, Note_on_c, 9, 51, 88
4, 57071, Note_on_c, 9, 51, 0
4, 57201, Note_on_c, 9, 51, 55
4, 57216, Note_on_c, 9, 51, 0
4, 57242, Note_on_c, 9, 51, 82
4, 57306, Note_on_c, 9, 51, 0
4, 57313, Note_on_c, 9, 38, 36
4, 57322, Note_on_c, 9, 38, 0
4, 57360, Note_on_c, 9, 51, 93
4, 57420, Note_on_c, 9, 51, 0
4, 57444, Note_on_c, 9, 36, 21
4, 57452, Note_on_c, 9, 36, 0
4, 57482, Note_on_c, 9, 51, 85
4, 57511, Note_on_c, 9, 51, 0
4, 57569, Note_on_c, 9, 51, 61
4, 57585, Note_on_c, 9, 51, 0
4, 57606, Note_on_c, 9, 51, 60
4, 57617, Note_on_c, 9, 51, 0
4, 57636, Note_on_c, 9, 51, 81
4, 57653, Note_on_c, 9, 51, 0
4, 57655, Note_on_c, 9, 44, 25
4, 57663, Note_on_c, 9, 44, 0
4, 57689, Note_on_c, 9, 44, 31
4, 57701, Note_on_c, 9, 44, 0
4, 57722, Note_on_c, 9, 51, 90
4, 57740, Note_on_c, 9, 51, 0
4, 57793, Note_on_c, 9, 51, 84
4, 57809, Note_on_c, 9, 51, 0
4, 57853, Note_on_c, 9, 51, 93
4, 57883, Note_on_c, 9, 51, 0
4, 57888, Note_on_c, 9, 44, 42
4, 57905, Note_on_c, 9, 44, 0
4, 57928, Note_on_c, 9, 44, 20
4, 57949, Note_on_c, 9, 44, 0
4, 58034, Note_on_c, 9, 51, 67
4, 58047, Note_on_c, 9, 38, 36
4, 58050, Note_on_c, 9, 51, 0
4, 58056, Note_on_c, 9, 38, 0
4, 58089, Note_on_c, 9, 51, 83
4, 58108, Note_on_c, 9, 51, 0
4, 58146, Note_on_c, 9, 51, 85
4, 58161, Note_on_c, 9, 51, 0
4, 58207, Note_on_c, 9, 51, 94
4, 58235, Note_on_c, 9, 51, 0
4, 58327, Note_on_c, 9, 51, 48
4, 58335, Note_on_c, 9, 51, 0
4, 58387, Note_on_c, 9, 51, 73
4, 58392, Note_on_c, 9, 38, 39
4, 58401, Note_on_c, 9, 38, 0
4, 58402, Note_on_c, 9, 51, 0
4, 58432, Note_on_c, 9, 44, 33
4, 58444, Note_on_c, 9, 44, 0
4, 58446, Note_on_c, 9, 51, 80
4, 58461, Note_on_c, 9, 51, 0
4, 58468, Note_on_c, 9, 44, 38
4, 58486, Note_on_c, 9, 44, 0
4, 58506, Note_on_c, 9, 51, 94
4, 58515, Note_on_c, 9, 38, 33
4, 58524, Note_on_c, 9, 38, 0
4, 58525, Note_on_c, 9, 51, 0
4, 58553, Note_on_c, 9, 44, 25
4, 58566, Note_on_c, 9, 51, 79
4, 58576, Note_on_c, 9, 44, 0
4, 58587, Note_on_c, 9, 51, 0
4, 58594, Note_on_c, 9, 44, 30
4, 58608, Note_on_c, 9, 44, 0
4, 58627, Note_on_c, 9, 51, 77
4, 58629, Note_on_c, 9, 53, 75
4, 58640, Note_on_c, 9, 38, 33
4, 58650, Note_on_c, 9, 38, 0
4, 58666, Note_on_c, 9, 51, 0
4, 58670, Note_on_c, 9, 53, 0
4, 58745, Note_on_c, 9, 51, 72
4, 58766, Note_on_c, 9, 51, 0
4, 58816, Note_on_c, 9, 51, 84
4, 58821, Note_on_c, 9, 53, 76
4, 58851, Note_on_c, 9, 51, 0
4, 58868, Note_on_c, 9, 53, 0
4, 58881, Note_on_c, 9, 38, 27
4, 58894, Note_on_c, 9, 38, 0
4, 58918, Note_on_c, 9, 51, 61
4, 58918, Note_on_c, 9, 44, 29
4, 58933, Note_on_c, 9, 51, 0
4, 58934, Note_on_c, 9, 44, 0
4, 58952, Note_on_c, 9, 44, 46
4, 58968, Note_on_c, 9, 44, 0
4, 58990, Note_on_c, 9, 51, 86
4, 58995, Note_on_c, 9, 53, 76
4, 59000, Note_on_c, 9, 38, 37
4, 59011, Note_on_c, 9, 38, 0
4, 59020, Note_on_c, 9, 51, 0
4, 59034, Note_on_c, 9, 53, 0
4, 59080, Note_on_c, 9, 51, 62
4, 59096, Note_on_c, 9, 51, 0
4, 59155, Note_on_c, 9, 51, 86
4, 59161, Note_on_c, 9, 53, 71
4, 59187, Note_on_c, 9, 51, 0
4, 59203, Note_on_c, 9, 53, 0
4, 59343, Note_on_c, 9, 51, 71
4, 59358, Note_on_c, 9, 51, 0
4, 59363, Note_on_c, 9, 38, 24
4, 59373, Note_on_c, 9, 38, 0
4, 59405, Note_on_c, 9, 51, 72
4, 59406, Note_on_c, 9, 44, 18
4, 59414, Note_on_c, 9, 44, 0
4, 59430, Note_on_c, 9, 51, 0
4, 59465, Note_on_c, 9, 51, 82
4, 59471, Note_on_c, 9, 44, 55
4, 59483, Note_on_c, 9, 51, 0
4, 59486, Note_on_c, 9, 44, 0
4, 59527, Note_on_c, 9, 51, 95
4, 59569, Note_on_c, 9, 51, 0
4, 59601, Note_on_c, 9, 38, 19
4, 59610, Note_on_c, 9, 38, 0
4, 59636, Note_on_c, 9, 44, 39
4, 59646, Note_on_c, 9, 44, 0
4, 59712, Note_on_c, 9, 51, 62
4, 59714, Note_on_c, 9, 44, 53
4, 59726, Note_on_c, 9, 51, 0
4, 59730, Note_on_c, 9, 44, 0
4, 59771, Note_on_c, 9, 51, 81
4, 59788, Note_on_c, 9, 51, 0
4, 59833, Note_on_c, 9, 51, 86
4, 59846, Note_on_c, 9, 38, 32
4, 59849, Note_on_c, 9, 51, 0
4, 59856, Note_on_c, 9, 38, 0
4, 59890, Note_on_c, 9, 38, 49
4, 59893, Note_on_c, 9, 51, 94
4, 59931, Note_on_c, 9, 51, 0
4, 59938, Note_on_c, 9, 38, 0
4, 59963, Note_on_c, 9, 38, 48
4, 59985, Note_on_c, 9, 38, 0
4, 60192, Note_on_c, 9, 51, 78
4, 60213, Note_on_c, 9, 51, 0
4, 60253, Note_on_c, 9, 51, 86
4, 60297, Note_on_c, 9, 51, 0
4, 60316, Note_on_c, 9, 38, 36
4, 60326, Note_on_c, 9, 38, 0
4, 60360, Note_on_c, 9, 44, 35
4, 60365, Note_on_c, 9, 36, 45
4, 60375, Note_on_c, 9, 36, 0
4, 60383, Note_on_c, 9, 44, 0
4, 60420, Note_on_c, 9, 51, 79
4, 60437, Note_on_c, 9, 51, 0
4, 60480, Note_on_c, 9, 51, 83
4, 60526, Note_on_c, 9, 51, 0
4, 60606, Note_on_c, 9, 51, 53
4, 60627, Note_on_c, 9, 51, 0
4, 60670, Note_on_c, 9, 53, 83
4, 60670, Note_on_c, 9, 38, 48
4, 60687, Note_on_c, 9, 38, 0
4, 60697, Note_on_c, 9, 53, 0
4, 60723, Note_on_c, 9, 36, 23
4, 60736, Note_on_c, 9, 53, 81
4, 60738, Note_on_c, 9, 36, 0
4, 60774, Note_on_c, 9, 53, 0
4, 60796, Note_on_c, 9, 36, 23
4, 60802, Note_on_c, 9, 51, 59
4, 60806, Note_on_c, 9, 36, 0
4, 60824, Note_on_c, 9, 51, 0
4, 60862, Note_on_c, 9, 51, 34
4, 60873, Note_on_c, 9, 51, 0
4, 60920, Note_on_c, 9, 51, 80
4, 60941, Note_on_c, 9, 51, 0
4, 60954, Note_on_c, 9, 38, 36
4, 60965, Note_on_c, 9, 38, 0
4, 60982, Note_on_c, 9, 51, 79
4, 60988, Note_on_c, 9, 38, 45
4, 60996, Note_on_c, 9, 38, 0
4, 61024, Note_on_c, 9, 51, 0
4, 61031, Note_on_c, 9, 36, 21
4, 61039, Note_on_c, 9, 36, 0
4, 61080, Note_on_c, 9, 38, 32
4, 61092, Note_on_c, 9, 38, 0
4, 61116, Note_on_c, 9, 38, 36
4, 61129, Note_on_c, 9, 38, 0
4, 61152, Note_on_c, 9, 51, 65
4, 61169, Note_on_c, 9, 51, 0
4, 61214, Note_on_c, 9, 51, 71
4, 61255, Note_on_c, 9, 51, 0
4, 61286, Note_on_c, 9, 36, 20
4, 61294, Note_on_c, 9, 36, 0
4, 61323, Note_on_c, 9, 38, 35
4, 61340, Note_on_c, 9, 38, 0
4, 61361, Note_on_c, 9, 38, 46
4, 61369, Note_on_c, 9, 38, 0
4, 61393, Note_on_c, 9, 51, 55
4, 61395, Note_on_c, 9, 36, 55
4, 61404, Note_on_c, 9, 51, 0
4, 61419, Note_on_c, 9, 36, 0
4, 61440, Note_on_c, 9, 36, 45
4, 61458, Note_on_c, 9, 51, 77
4, 61484, Note_on_c, 9, 36, 0
4, 61494, Note_on_c, 9, 51, 0
4, 61573, Note_on_c, 9, 51, 83
4, 61632, Note_on_c, 9, 51, 0
4, 61637, Note_on_c, 9, 38, 39
4, 61652, Note_on_c, 9, 38, 0
4, 61682, Note_on_c, 9, 36, 31
4, 61728, Note_on_c, 9, 36, 0
4, 61752, Note_on_c, 9, 36, 36
4, 61763, Note_on_c, 9, 51, 75
4, 61766, Note_on_c, 9, 36, 0
4, 61781, Note_on_c, 9, 51, 0
4, 61848, Note_on_c, 9, 51, 73
4, 61877, Note_on_c, 9, 51, 0
4, 61935, Note_on_c, 9, 51, 70
4, 61958, Note_on_c, 9, 51, 0
4, 62009, Note_on_c, 9, 53, 70
4, 62029, Note_on_c, 9, 53, 0
4, 62084, Note_on_c, 9, 51, 64
4, 62117, Note_on_c, 9, 51, 0
4, 62130, Note_on_c, 9, 38, 29
4, 62141, Note_on_c, 9, 38, 0
4, 62170, Note_on_c, 9, 51, 62
4, 62211, Note_on_c, 9, 51, 0
4, 62355, Note_on_c, 9, 51, 62
4, 62373, Note_on_c, 9, 51, 0
4, 62394, Note_on_c, 9, 51, 52
4, 62448, Note_on_c, 9, 51, 0
4, 62519, Note_on_c, 9, 51, 67
4, 62527, Note_on_c, 9, 46, 22
4, 62538, Note_on_c, 9, 46, 0
4, 62572, Note_on_c, 9, 51, 0
4, 62733, Note_on_c, 9, 51, 50
4, 62742, Note_on_c, 9, 51, 0
4, 62765, Note_on_c, 9, 51, 69
4, 62819, Note_on_c, 9, 51, 0
4, 62877, Note_on_c, 9, 51, 81
4, 62939, Note_on_c, 9, 51, 0
4, 62999, Note_on_c, 9, 51, 82
4, 63001, Note_on_c, 9, 46, 57
4, 63037, Note_on_c, 9, 46, 0
4, 63063, Note_on_c, 9, 51, 0
4, 63122, Note_on_c, 9, 51, 76
4, 63159, Note_on_c, 9, 51, 0
4, 63209, Note_on_c, 9, 51, 51
4, 63219, Note_on_c, 9, 51, 0
4, 63237, Note_on_c, 9, 46, 62
4, 63244, Note_on_c, 9, 51, 75
4, 63303, Note_on_c, 9, 46, 0
4, 63312, Note_on_c, 9, 51, 0
4, 63442, Note_on_c, 9, 51, 65
4, 63460, Note_on_c, 9, 51, 0
4, 63479, Note_on_c, 9, 46, 54
4, 63482, Note_on_c, 9, 51, 76
4, 63504, Note_on_c, 9, 46, 0
4, 63553, Note_on_c, 9, 51, 0
4, 63566, Note_on_c, 9, 38, 33
4, 63575, Note_on_c, 9, 38, 0
4, 63602, Note_on_c, 9, 51, 83
4, 63608, Note_on_c, 9, 38, 45
4, 63659, Note_on_c, 9, 38, 0
4, 63677, Note_on_c, 9, 51, 0
4, 63683, Note_on_c, 9, 38, 45
4, 63702, Note_on_c, 9, 38, 0
4, 63727, Note_on_c, 9, 51, 80
4, 63769, Note_on_c, 9, 51, 0
4, 63814, Note_on_c, 9, 51, 52
4, 63827, Note_on_c, 9, 51, 0
4, 63845, Note_on_c, 9, 51, 76
4, 63916, Note_on_c, 9, 51, 0
4, 64051, Note_on_c, 9, 51, 52
4, 64061, Note_on_c, 9, 51, 0
4, 64084, Note_on_c, 9, 51, 74
4, 64135, Note_on_c, 9, 51, 0
4, 64200, Note_on_c, 9, 46, 64
4, 64248, Note_on_c, 9, 46, 0
4, 64288, Note_on_c, 9, 51, 50
4, 64296, Note_on_c, 9, 51, 0
4, 64332, Note_on_c, 9, 51, 71
4, 64354, Note_on_c, 9, 53, 40
4, 64371, Note_on_c, 9, 51, 0
4, 64382, Note_on_c, 9, 53, 0
4, 64400, Note_on_c, 9, 38, 30
4, 64409, Note_on_c, 9, 38, 0
4, 64442, Note_on_c, 9, 38, 33
4, 64487, Note_on_c, 9, 38, 0
4, 64502, Note_on_c, 9, 51, 67
4, 64518, Note_on_c, 9, 51, 0
4, 64520, Note_on_c, 9, 38, 45
4, 64541, Note_on_c, 9, 38, 0
4, 64562, Note_on_c, 9, 51, 77
4, 64577, Note_on_c, 9, 53, 39
4, 64594, Note_on_c, 9, 51, 0
4, 64603, Note_on_c, 9, 53, 0
4, 64648, Note_on_c, 9, 53, 70
4, 64667, Note_on_c, 9, 53, 0
4, 64707, Note_on_c, 9, 51, 72
4, 64724, Note_on_c, 9, 53, 64
4, 64739, Note_on_c, 9, 51, 0
4, 64749, Note_on_c, 9, 53, 0
4, 64821, Note_on_c, 9, 38, 41
4, 64833, Note_on_c, 9, 38, 0
4, 64858, Note_on_c, 9, 38, 37
4, 64868, Note_on_c, 9, 38, 0
4, 65004, Note_on_c, 9, 51, 64
4, 65024, Note_on_c, 9, 51, 0
4, 65041, Note_on_c, 9, 51, 69
4, 65093, Note_on_c, 9, 51, 0
4, 65112, Note_on_c, 9, 38, 29
4, 65121, Note_on_c, 9, 38, 0
4, 65150, Note_on_c, 9, 36, 26
4, 65157, Note_on_c, 9, 51, 86
4, 65165, Note_on_c, 9, 36, 0
4, 65206, Note_on_c, 9, 51, 0
4, 65236, Note_on_c, 9, 36, 48
4, 65243, Note_on_c, 9, 51, 40
4, 65255, Note_on_c, 9, 51, 0
4, 65260, Note_on_c, 9, 36, 0
4, 65271, Note_on_c, 9, 51, 71
4, 65281, Note_on_c, 9, 36, 42
4, 65309, Note_on_c, 9, 36, 0
4, 65346, Note_on_c, 9, 51, 0
4, 65400, Note_on_c, 9, 51, 81
4, 65471, Note_on_c, 9, 36, 27
4, 65473, Note_on_c, 9, 51, 0
4, 65482, Note_on_c, 9, 36, 0
4, 65519, Note_on_c, 9, 51, 83
4, 65611, Note_on_c, 9, 51, 0
4, 65644, Note_on_c, 9, 51, 76
4, 65733, Note_on_c, 9, 51, 0
4, 65846, Note_on_c, 9, 51, 42
4, 65855, Note_on_c, 9, 51, 0
4, 65878, Note_on_c, 9, 51, 73
4, 65952, Note_on_c, 9, 51, 0
4, 65966, Note_on_c, 9, 38, 34
4, 65984, Note_on_c, 9, 38, 0
4, 65999, Note_on_c, 9, 51, 85
4, 66074, Note_on_c, 9, 51, 0
4, 66078, Note_on_c, 9, 38, 35
4, 66092, Note_on_c, 9, 38, 0
4, 66124, Note_on_c, 9, 51, 85
4, 66195, Note_on_c, 9, 38, 36
4, 66201, Note_on_c, 9, 51, 0
4, 66220, Note_on_c, 9, 38, 0
4, 66247, Note_on_c, 9, 51, 81
4, 66324, Note_on_c, 9, 38, 24
4, 66326, Note_on_c, 9, 51, 0
4, 66339, Note_on_c, 9, 38, 0
4, 66370, Note_on_c, 9, 51, 81
4, 66446, Note_on_c, 9, 51, 0
4, 66566, Note_on_c, 9, 51, 50
4, 66572, Note_on_c, 9, 38, 21
4, 66577, Note_on_c, 9, 51, 0
4, 66592, Note_on_c, 9, 38, 0
4, 66606, Note_on_c, 9, 51, 67
4, 66662, Note_on_c, 9, 51, 0
4, 66729, Note_on_c, 9, 51, 74
4, 66789, Note_on_c, 9, 51, 0
4, 66846, Note_on_c, 9, 51, 74
4, 66894, Note_on_c, 9, 51, 0
4, 66930, Note_on_c, 9, 51, 36
4, 66931, Note_on_c, 9, 38, 27
4, 66942, Note_on_c, 9, 38, 0
4, 66943, Note_on_c, 9, 51, 0
4, 66962, Note_on_c, 9, 51, 55
4, 66988, Note_on_c, 9, 51, 0
4, 67084, Note_on_c, 9, 51, 56
4, 67140, Note_on_c, 9, 51, 0
4, 67169, Note_on_c, 9, 38, 19
4, 67179, Note_on_c, 9, 38, 0
4, 67205, Note_on_c, 9, 51, 59
4, 67218, Note_on_c, 9, 38, 24
4, 67242, Note_on_c, 9, 38, 0
4, 67264, Note_on_c, 9, 51, 0
4, 67390, Note_on_c, 9, 51, 46
4, 67411, Note_on_c, 9, 51, 0
4, 67439, Note_on_c, 9, 51, 50
4, 67491, Note_on_c, 9, 51, 0
4, 67656, Note_on_c, 9, 51, 56
4, 67671, Note_on_c, 9, 51, 0
4, 67693, Note_on_c, 9, 51, 62
4, 67744, Note_on_c, 9, 51, 0
4, 67799, Note_on_c, 9, 51, 62
4, 67860, Note_on_c, 9, 51, 0
4, 67886, Note_on_c, 9, 38, 24
4, 67910, Note_on_c, 9, 38, 0
4, 67924, Note_on_c, 9, 51, 63
4, 67937, Note_on_c, 9, 38, 31
4, 67972, Note_on_c, 9, 51, 0
4, 67986, Note_on_c, 9, 38, 0
4, 68009, Note_on_c, 9, 38, 37
4, 68022, Note_on_c, 9, 38, 0
4, 68118, Note_on_c, 9, 38, 30
4, 68123, Note_on_c, 9, 51, 58
4, 68133, Note_on_c, 9, 38, 0
4, 68138, Note_on_c, 9, 51, 0
4, 68163, Note_on_c, 9, 51, 84
4, 68165, Note_on_c, 9, 38, 36
4, 68231, Note_on_c, 9, 51, 0
4, 68290, Note_on_c, 9, 51, 59
4, 68292, Note_on_c, 9, 53, 84
4, 68294, Note_on_c, 9, 38, 0
4, 68354, Note_on_c, 9, 38, 33
4, 68368, Note_on_c, 9, 38, 0
4, 68406, Note_on_c, 9, 38, 32
4, 68415, Note_on_c, 9, 53, 0
4, 68417, Note_on_c, 9, 51, 0
4, 68521, Note_on_c, 9, 38, 0
4, 68524, Note_on_c, 9, 51, 70
4, 68530, Note_on_c, 9, 53, 81
4, 68635, Note_on_c, 9, 53, 0
4, 68637, Note_on_c, 9, 51, 0
4, 68649, Note_on_c, 9, 38, 24
4, 68741, Note_on_c, 9, 38, 0
4, 68758, Note_on_c, 9, 51, 69
4, 68765, Note_on_c, 9, 53, 80
4, 68845, Note_on_c, 9, 51, 0
4, 68852, Note_on_c, 9, 38, 18
4, 68857, Note_on_c, 9, 53, 0
4, 68867, Note_on_c, 9, 38, 0
4, 68867, End_track
5, 0, Start_track
5, 0, Title_t, "dougmck@pipeline.com.au"
5, 0, End_track
6, 0, Start_track
6, 0, Title_t, ""
6, 0, End_track
7, 0, Start_track
7, 0, Title_t, ""
7, 0, End_track
8, 0, Start_track
8, 0, Title_t, ""
8, 0, End_track
0, 0, End_of_file
