0, 0, Header, 1, 11, 120
1, 0, Start_track
1, 0, Title_t, "Two For the Road"
1, 0, Text_t, "dougmck@pipeline.com.au   By Henry Mancini. \012"
1, 0, Text_t, "In the style of Dudley Moore trio\012"
1, 0, Time_signature, 4, 2, 24, 8
1, 0, Key_signature, 0, "major"
1, 0, Tempo, 612245
1, 480, Marker_t, "The left hand plays chords (mostly rootless left hand voicings) in a sort of double time clave rhythm"
1, 2995, Marker_t, "The key chosen (C) makes it easy to make rhythmic figures out of chord tones, most of which have a lower neighbouring tone that is a black note."
1, 11520, Marker_t, "On this altered F#7 chord, a C Major triad is made into a rhythmic figure."
1, 13474, Marker_t, "On this Fmaj 7 chord, the fingers of the Right hand play a white note chord, and the same finger position is maintained as other chords from the key of C (i.e. white note chords) harmonize a descending nelody"
1, 15455, Marker_t, "Diminished scale"
1, 16114, Marker_t, "Chromatic connection of the melody notes  A and F "
1, 18240, Marker_t, "Slide off Black lower neighbouring tones onto white notes of a G Major triad"
1, 19291, Marker_t, "RH plays the top 5 notes alternating with the single note played with the LH in a kind of drumming style"
1, 19965, Marker_t, "Blues scale type lick on Am chord"
1, 24065, Marker_t, "Diminished scale (alternate 1/2 step whole step) on E7 b9 chord"
1, 24960, Marker_t, "On F Maj7 chord, chord tones played in descending sequence with passing note between each"
1, 27360, Marker_t, "Chords voiced as 4ths on this F Maj7 chord"
1, 30651, Marker_t, "Lh and Rhand play diminished scale a minor 3rd apart"
1, 31803, Marker_t, "The four notes of a diminished chord linked with chromatic connections"
1, 33830, Marker_t, "1/2 whole Dim scale on G7b9, crossing the bar to G7/C bass chord"
1, 35357, Marker_t, "Am blues scale figure."
1, 37611, Marker_t, "Altered scale on C7 chord"
1, 41293, Marker_t, "Lower neighbour tone chord (Gb) (black notes) under G chord  (white notes)"
1, 42115, Marker_t, "C altered scale descending and resolving on F"
1, 54720, Marker_t, "1/2 step whole step diminished scale on E7b9"
1, 65317, Marker_t, "C major scale played with thumb and forefinger"
1, 69170, Marker_t, "Figure played using Dm blues scale"
1, 72000, Marker_t, "Use thumb and forefinger - thumb plays C, forefinger D, then thumb plays D, forefinger E etc."
1, 73080, Marker_t, "On F#7(#11) chord a descending scale easy to finger C Bb Ab Gb E (Whole tones) then Eb D Db C (Chromatic) making 8 notes  back to C"
1, 80091, Marker_t, "Diminished scale used again but on a Gdim/C chord"
1, 81174, Marker_t, "On Am chord - several chord tones surrounded by lower chromatic neighbour, and upper diatonic neighbour"
1, 84965, Marker_t, "Descending glissando played with thumbnail"
1, 85440, Marker_t, "Descending glissando again"
1, 85440, End_track
2, 0, Start_track
2, 0, Title_t, "Two For The Road"
2, 0, End_track
3, 0, Start_track
3, 0, Title_t, "By Henry Mancini"
3, 0, End_track
4, 0, Start_track
4, 0, Title_t, "Track 3"
4, 0, End_track
5, 0, Start_track
5, 0, Title_t, "Piano was played in real time"
5, 0, Control_c, 0, 7, 100
5, 0, Control_c, 0, 10, 91
5, 306, Note_on_c, 0, 57, 68
5, 307, Note_on_c, 0, 81, 79
5, 321, Note_on_c, 0, 57, 0
5, 323, Note_on_c, 0, 81, 0
5, 338, Note_on_c, 0, 81, 62
5, 339, Note_on_c, 0, 57, 48
5, 358, Note_on_c, 0, 81, 0
5, 359, Note_on_c, 0, 57, 0
5, 369, Note_on_c, 0, 82, 61
5, 371, Note_on_c, 0, 58, 62
5, 405, Note_on_c, 0, 58, 0
5, 412, Note_on_c, 0, 82, 0
5, 427, Note_on_c, 0, 57, 57
5, 428, Note_on_c, 0, 81, 61
5, 451, Note_on_c, 0, 81, 0
5, 453, Note_on_c, 0, 57, 0
5, 480, Note_on_c, 0, 67, 1
5, 481, Note_on_c, 0, 67, 0
5, 488, Note_on_c, 0, 81, 66
5, 490, Note_on_c, 0, 62, 78
5, 490, Note_on_c, 0, 81, 105
5, 490, Note_on_c, 0, 65, 80
5, 491, Note_on_c, 0, 57, 62
5, 492, Note_on_c, 0, 57, 71
5, 497, Note_on_c, 0, 83, 38
5, 498, Note_on_c, 0, 57, 0
5, 498, Note_on_c, 0, 65, 0
5, 502, Note_on_c, 0, 62, 0
5, 504, Note_on_c, 0, 83, 0
5, 506, Note_on_c, 0, 81, 0
5, 506, Note_on_c, 0, 57, 0
5, 555, Note_on_c, 0, 80, 36
5, 565, Note_on_c, 0, 81, 0
5, 574, Note_on_c, 0, 80, 0
5, 582, Note_on_c, 0, 78, 62
5, 601, Note_on_c, 0, 78, 0
5, 603, Note_on_c, 0, 77, 60
5, 614, Note_on_c, 0, 57, 34
5, 615, Note_on_c, 0, 62, 31
5, 621, Note_on_c, 0, 77, 0
5, 628, Note_on_c, 0, 57, 0
5, 636, Note_on_c, 0, 62, 0
5, 701, Note_on_c, 0, 65, 60
5, 701, Note_on_c, 0, 62, 58
5, 703, Note_on_c, 0, 57, 48
5, 709, Note_on_c, 0, 65, 0
5, 711, Note_on_c, 0, 57, 0
5, 713, Note_on_c, 0, 62, 0
5, 773, Note_on_c, 0, 65, 54
5, 774, Note_on_c, 0, 57, 57
5, 775, Note_on_c, 0, 62, 50
5, 791, Note_on_c, 0, 57, 0
5, 793, Note_on_c, 0, 65, 0
5, 800, Note_on_c, 0, 62, 0
5, 874, Note_on_c, 0, 57, 55
5, 875, Note_on_c, 0, 62, 53
5, 876, Note_on_c, 0, 65, 47
5, 893, Note_on_c, 0, 65, 0
5, 897, Note_on_c, 0, 57, 0
5, 902, Note_on_c, 0, 62, 0
5, 957, Note_on_c, 0, 65, 53
5, 957, Note_on_c, 0, 62, 52
5, 958, Note_on_c, 0, 56, 44
5, 979, Note_on_c, 0, 65, 0
5, 985, Note_on_c, 0, 56, 0
5, 991, Note_on_c, 0, 62, 0
5, 1051, Note_on_c, 0, 62, 48
5, 1051, Note_on_c, 0, 65, 55
5, 1053, Note_on_c, 0, 56, 30
5, 1064, Note_on_c, 0, 65, 0
5, 1070, Note_on_c, 0, 62, 0
5, 1072, Note_on_c, 0, 56, 0
5, 1134, Note_on_c, 0, 56, 58
5, 1135, Note_on_c, 0, 65, 64
5, 1135, Note_on_c, 0, 62, 66
5, 1135, Note_on_c, 0, 76, 87
5, 1143, Note_on_c, 0, 65, 0
5, 1151, Note_on_c, 0, 56, 0
5, 1155, Note_on_c, 0, 76, 0
5, 1158, Note_on_c, 0, 62, 0
5, 1172, Note_on_c, 0, 76, 74
5, 1188, Note_on_c, 0, 76, 0
5, 1195, Note_on_c, 0, 80, 61
5, 1213, Note_on_c, 0, 80, 0
5, 1229, Note_on_c, 0, 80, 57
5, 1235, Note_on_c, 0, 62, 55
5, 1236, Note_on_c, 0, 65, 54
5, 1238, Note_on_c, 0, 56, 33
5, 1243, Note_on_c, 0, 65, 0
5, 1249, Note_on_c, 0, 80, 0
5, 1253, Note_on_c, 0, 56, 0
5, 1255, Note_on_c, 0, 83, 78
5, 1271, Note_on_c, 0, 62, 0
5, 1275, Note_on_c, 0, 83, 0
5, 1294, Note_on_c, 0, 83, 59
5, 1312, Note_on_c, 0, 83, 0
5, 1322, Note_on_c, 0, 62, 64
5, 1322, Note_on_c, 0, 56, 62
5, 1323, Note_on_c, 0, 65, 66
5, 1326, Note_on_c, 0, 86, 90
5, 1356, Note_on_c, 0, 86, 0
5, 1381, Note_on_c, 0, 62, 0
5, 1384, Note_on_c, 0, 65, 0
5, 1385, Note_on_c, 0, 86, 105
5, 1401, Note_on_c, 0, 56, 0
5, 1408, Note_on_c, 0, 86, 0
5, 1419, Note_on_c, 0, 84, 66
5, 1433, Note_on_c, 0, 84, 0
5, 1443, Note_on_c, 0, 64, 45
5, 1444, Note_on_c, 0, 60, 54
5, 1444, Note_on_c, 0, 59, 52
5, 1444, Note_on_c, 0, 86, 90
5, 1445, Note_on_c, 0, 57, 36
5, 1489, Note_on_c, 0, 86, 0
5, 1492, Note_on_c, 0, 59, 0
5, 1494, Note_on_c, 0, 60, 0
5, 1497, Note_on_c, 0, 64, 0
5, 1498, Note_on_c, 0, 57, 0
5, 1502, Note_on_c, 0, 84, 73
5, 1532, Note_on_c, 0, 84, 0
5, 1559, Note_on_c, 0, 64, 41
5, 1560, Note_on_c, 0, 82, 59
5, 1563, Note_on_c, 0, 57, 32
5, 1563, Note_on_c, 0, 60, 44
5, 1564, Note_on_c, 0, 59, 38
5, 1566, Note_on_c, 0, 83, 64
5, 1575, Note_on_c, 0, 82, 0
5, 1600, Note_on_c, 0, 83, 0
5, 1605, Note_on_c, 0, 60, 0
5, 1609, Note_on_c, 0, 59, 0
5, 1615, Note_on_c, 0, 64, 0
5, 1620, Note_on_c, 0, 76, 29
5, 1634, Note_on_c, 0, 57, 0
5, 1639, Note_on_c, 0, 76, 0
5, 1678, Note_on_c, 0, 55, 43
5, 1682, Note_on_c, 0, 81, 24
5, 1682, Note_on_c, 0, 60, 34
5, 1683, Note_on_c, 0, 57, 30
5, 1683, Note_on_c, 0, 64, 13
5, 1702, Note_on_c, 0, 81, 0
5, 1703, Note_on_c, 0, 55, 0
5, 1703, Note_on_c, 0, 60, 0
5, 1707, Note_on_c, 0, 64, 0
5, 1710, Note_on_c, 0, 57, 0
5, 1740, Note_on_c, 0, 81, 44
5, 1753, Note_on_c, 0, 81, 0
5, 1801, Note_on_c, 0, 55, 32
5, 1802, Note_on_c, 0, 64, 20
5, 1803, Note_on_c, 0, 60, 40
5, 1806, Note_on_c, 0, 57, 33
5, 1825, Note_on_c, 0, 57, 0
5, 1825, Note_on_c, 0, 60, 0
5, 1826, Note_on_c, 0, 55, 0
5, 1827, Note_on_c, 0, 64, 0
5, 1888, Note_on_c, 0, 80, 38
5, 1888, Note_on_c, 0, 53, 36
5, 1889, Note_on_c, 0, 64, 36
5, 1891, Note_on_c, 0, 60, 43
5, 1891, Note_on_c, 0, 76, 40
5, 1892, Note_on_c, 0, 84, 33
5, 1896, Note_on_c, 0, 57, 29
5, 1896, Note_on_c, 0, 88, 33
5, 1909, Note_on_c, 0, 60, 0
5, 1912, Note_on_c, 0, 64, 0
5, 1913, Note_on_c, 0, 80, 0
5, 1915, Note_on_c, 0, 57, 0
5, 1918, Note_on_c, 0, 76, 0
5, 1919, Note_on_c, 0, 53, 0
5, 1919, Note_on_c, 0, 81, 22
5, 1925, Note_on_c, 0, 88, 0
5, 1928, Note_on_c, 0, 84, 0
5, 1929, Note_on_c, 0, 81, 0
5, 1978, Note_on_c, 0, 64, 36
5, 1981, Note_on_c, 0, 53, 26
5, 1981, Note_on_c, 0, 60, 42
5, 1985, Note_on_c, 0, 57, 31
5, 2000, Note_on_c, 0, 64, 0
5, 2001, Note_on_c, 0, 60, 0
5, 2005, Note_on_c, 0, 57, 0
5, 2008, Note_on_c, 0, 53, 0
5, 2074, Note_on_c, 0, 64, 56
5, 2076, Note_on_c, 0, 60, 49
5, 2079, Note_on_c, 0, 57, 44
5, 2082, Note_on_c, 0, 53, 18
5, 2093, Note_on_c, 0, 64, 0
5, 2096, Note_on_c, 0, 60, 0
5, 2106, Note_on_c, 0, 57, 0
5, 2107, Note_on_c, 0, 53, 0
5, 2157, Note_on_c, 0, 64, 92
5, 2158, Note_on_c, 0, 57, 59
5, 2159, Note_on_c, 0, 53, 51
5, 2160, Note_on_c, 0, 60, 53
5, 2185, Note_on_c, 0, 64, 0
5, 2190, Note_on_c, 0, 65, 77
5, 2195, Note_on_c, 0, 60, 0
5, 2199, Note_on_c, 0, 53, 0
5, 2201, Note_on_c, 0, 57, 0
5, 2205, Note_on_c, 0, 65, 0
5, 2215, Note_on_c, 0, 69, 71
5, 2245, Note_on_c, 0, 69, 0
5, 2251, Note_on_c, 0, 72, 58
5, 2265, Note_on_c, 0, 72, 0
5, 2271, Note_on_c, 0, 53, 54
5, 2274, Note_on_c, 0, 60, 51
5, 2277, Note_on_c, 0, 57, 42
5, 2285, Note_on_c, 0, 77, 54
5, 2287, Note_on_c, 0, 75, 36
5, 2292, Note_on_c, 0, 76, 57
5, 2293, Note_on_c, 0, 77, 0
5, 2298, Note_on_c, 0, 60, 0
5, 2299, Note_on_c, 0, 75, 0
5, 2319, Note_on_c, 0, 76, 0
5, 2326, Note_on_c, 0, 57, 0
5, 2342, Note_on_c, 0, 74, 78
5, 2344, Note_on_c, 0, 60, 31
5, 2346, Note_on_c, 0, 75, 58
5, 2353, Note_on_c, 0, 60, 0
5, 2360, Note_on_c, 0, 76, 26
5, 2367, Note_on_c, 0, 75, 0
5, 2373, Note_on_c, 0, 74, 0
5, 2381, Note_on_c, 0, 53, 0
5, 2381, Note_on_c, 0, 76, 0
5, 2401, Note_on_c, 0, 74, 71
5, 2404, Note_on_c, 0, 75, 64
5, 2417, Note_on_c, 0, 60, 17
5, 2418, Note_on_c, 0, 64, 19
5, 2424, Note_on_c, 0, 57, 35
5, 2425, Note_on_c, 0, 76, 53
5, 2428, Note_on_c, 0, 74, 0
5, 2429, Note_on_c, 0, 75, 0
5, 2438, Note_on_c, 0, 57, 0
5, 2444, Note_on_c, 0, 64, 0
5, 2445, Note_on_c, 0, 60, 0
5, 2457, Note_on_c, 0, 76, 0
5, 2465, Note_on_c, 0, 72, 49
5, 2496, Note_on_c, 0, 72, 0
5, 2521, Note_on_c, 0, 60, 51
5, 2525, Note_on_c, 0, 74, 65
5, 2525, Note_on_c, 0, 53, 36
5, 2526, Note_on_c, 0, 57, 31
5, 2528, Note_on_c, 0, 60, 0
5, 2540, Note_on_c, 0, 57, 0
5, 2546, Note_on_c, 0, 53, 0
5, 2555, Note_on_c, 0, 74, 0
5, 2565, Note_on_c, 0, 69, 39
5, 2577, Note_on_c, 0, 69, 0
5, 2583, Note_on_c, 0, 71, 46
5, 2615, Note_on_c, 0, 71, 0
5, 2620, Note_on_c, 0, 74, 75
5, 2627, Note_on_c, 0, 60, 50
5, 2631, Note_on_c, 0, 57, 42
5, 2631, Note_on_c, 0, 53, 44
5, 2633, Note_on_c, 0, 60, 0
5, 2635, Note_on_c, 0, 74, 0
5, 2645, Note_on_c, 0, 57, 0
5, 2645, Note_on_c, 0, 74, 74
5, 2651, Note_on_c, 0, 53, 0
5, 2680, Note_on_c, 0, 74, 0
5, 2705, Note_on_c, 0, 74, 59
5, 2722, Note_on_c, 0, 74, 0
5, 2760, Note_on_c, 0, 48, 49
5, 2763, Note_on_c, 0, 57, 35
5, 2775, Note_on_c, 0, 48, 0
5, 2776, Note_on_c, 0, 57, 0
5, 2938, Note_on_c, 0, 53, 47
5, 2938, Note_on_c, 0, 62, 44
5, 2940, Note_on_c, 0, 59, 54
5, 2941, Note_on_c, 0, 57, 45
5, 2949, Note_on_c, 0, 57, 0
5, 2951, Note_on_c, 0, 59, 0
5, 2952, Note_on_c, 0, 62, 0
5, 2954, Note_on_c, 0, 53, 0
5, 3000, Note_on_c, 0, 78, 76
5, 3001, Note_on_c, 0, 66, 84
5, 3028, Note_on_c, 0, 66, 0
5, 3028, Note_on_c, 0, 78, 0
5, 3035, Note_on_c, 0, 67, 70
5, 3035, Note_on_c, 0, 79, 59
5, 3041, Note_on_c, 0, 77, 36
5, 3050, Note_on_c, 0, 67, 0
5, 3052, Note_on_c, 0, 77, 0
5, 3052, Note_on_c, 0, 62, 29
5, 3052, Note_on_c, 0, 59, 32
5, 3056, Note_on_c, 0, 79, 0
5, 3060, Note_on_c, 0, 62, 0
5, 3064, Note_on_c, 0, 59, 0
5, 3093, Note_on_c, 0, 82, 71
5, 3094, Note_on_c, 0, 70, 79
5, 3100, Note_on_c, 0, 80, 31
5, 3108, Note_on_c, 0, 80, 0
5, 3113, Note_on_c, 0, 70, 0
5, 3114, Note_on_c, 0, 82, 0
5, 3120, Note_on_c, 0, 53, 38
5, 3121, Note_on_c, 0, 83, 58
5, 3121, Note_on_c, 0, 71, 60
5, 3122, Note_on_c, 0, 62, 39
5, 3125, Note_on_c, 0, 59, 54
5, 3127, Note_on_c, 0, 57, 45
5, 3141, Note_on_c, 0, 71, 0
5, 3143, Note_on_c, 0, 53, 0
5, 3144, Note_on_c, 0, 83, 0
5, 3146, Note_on_c, 0, 62, 0
5, 3155, Note_on_c, 0, 57, 0
5, 3159, Note_on_c, 0, 59, 0
5, 3179, Note_on_c, 0, 85, 73
5, 3180, Note_on_c, 0, 73, 57
5, 3200, Note_on_c, 0, 85, 0
5, 3203, Note_on_c, 0, 73, 0
5, 3214, Note_on_c, 0, 74, 65
5, 3215, Note_on_c, 0, 86, 55
5, 3220, Note_on_c, 0, 80, 27
5, 3227, Note_on_c, 0, 80, 0
5, 3229, Note_on_c, 0, 74, 0
5, 3235, Note_on_c, 0, 86, 0
5, 3274, Note_on_c, 0, 53, 55
5, 3274, Note_on_c, 0, 59, 62
5, 3275, Note_on_c, 0, 62, 41
5, 3284, Note_on_c, 0, 62, 0
5, 3287, Note_on_c, 0, 53, 0
5, 3289, Note_on_c, 0, 59, 0
5, 3335, Note_on_c, 0, 86, 61
5, 3348, Note_on_c, 0, 86, 0
5, 3357, Note_on_c, 0, 89, 81
5, 3358, Note_on_c, 0, 77, 74
5, 3359, Note_on_c, 0, 62, 54
5, 3359, Note_on_c, 0, 56, 40
5, 3359, Note_on_c, 0, 53, 37
5, 3360, Note_on_c, 0, 59, 53
5, 3432, Note_on_c, 0, 89, 0
5, 3478, Note_on_c, 0, 77, 0
5, 3480, Note_on_c, 0, 86, 91
5, 3485, Note_on_c, 0, 62, 0
5, 3489, Note_on_c, 0, 59, 0
5, 3517, Note_on_c, 0, 86, 0
5, 3520, Note_on_c, 0, 77, 39
5, 3525, Note_on_c, 0, 62, 24
5, 3526, Note_on_c, 0, 59, 33
5, 3537, Note_on_c, 0, 77, 0
5, 3538, Note_on_c, 0, 62, 0
5, 3538, Note_on_c, 0, 59, 0
5, 3541, Note_on_c, 0, 80, 29
5, 3554, Note_on_c, 0, 56, 0
5, 3560, Note_on_c, 0, 53, 0
5, 3575, Note_on_c, 0, 80, 0
5, 3579, Note_on_c, 0, 83, 63
5, 3597, Note_on_c, 0, 83, 0
5, 3608, Note_on_c, 0, 86, 65
5, 3624, Note_on_c, 0, 86, 0
5, 3640, Note_on_c, 0, 75, 82
5, 3641, Note_on_c, 0, 87, 84
5, 3645, Note_on_c, 0, 64, 25
5, 3647, Note_on_c, 0, 60, 33
5, 3652, Note_on_c, 0, 64, 0
5, 3656, Note_on_c, 0, 60, 0
5, 3658, Note_on_c, 0, 75, 0
5, 3661, Note_on_c, 0, 87, 0
5, 3666, Note_on_c, 0, 87, 50
5, 3667, Note_on_c, 0, 75, 67
5, 3676, Note_on_c, 0, 88, 71
5, 3679, Note_on_c, 0, 81, 25
5, 3680, Note_on_c, 0, 75, 0
5, 3681, Note_on_c, 0, 87, 0
5, 3681, Note_on_c, 0, 86, 33
5, 3684, Note_on_c, 0, 76, 40
5, 3684, Note_on_c, 0, 84, 38
5, 3708, Note_on_c, 0, 88, 0
5, 3714, Note_on_c, 0, 76, 0
5, 3714, Note_on_c, 0, 86, 0
5, 3719, Note_on_c, 0, 81, 0
5, 3719, Note_on_c, 0, 84, 0
5, 3729, Note_on_c, 0, 88, 62
5, 3729, Note_on_c, 0, 76, 64
5, 3731, Note_on_c, 0, 81, 35
5, 3734, Note_on_c, 0, 84, 47
5, 3739, Note_on_c, 0, 86, 35
5, 3757, Note_on_c, 0, 84, 0
5, 3758, Note_on_c, 0, 76, 0
5, 3759, Note_on_c, 0, 88, 0
5, 3763, Note_on_c, 0, 86, 0
5, 3770, Note_on_c, 0, 81, 0
5, 3780, Note_on_c, 0, 75, 62
5, 3781, Note_on_c, 0, 87, 55
5, 3782, Note_on_c, 0, 64, 28
5, 3785, Note_on_c, 0, 60, 32
5, 3790, Note_on_c, 0, 64, 0
5, 3790, Note_on_c, 0, 81, 19
5, 3793, Note_on_c, 0, 60, 0
5, 3800, Note_on_c, 0, 81, 0
5, 3801, Note_on_c, 0, 87, 0
5, 3805, Note_on_c, 0, 75, 0
5, 3816, Note_on_c, 0, 88, 63
5, 3817, Note_on_c, 0, 76, 55
5, 3824, Note_on_c, 0, 81, 18
5, 3831, Note_on_c, 0, 81, 0
5, 3831, Note_on_c, 0, 76, 0
5, 3833, Note_on_c, 0, 88, 0
5, 3842, Note_on_c, 0, 76, 48
5, 3843, Note_on_c, 0, 88, 47
5, 3845, Note_on_c, 0, 62, 40
5, 3846, Note_on_c, 0, 65, 35
5, 3846, Note_on_c, 0, 57, 33
5, 3850, Note_on_c, 0, 81, 19
5, 3862, Note_on_c, 0, 81, 0
5, 3864, Note_on_c, 0, 65, 0
5, 3867, Note_on_c, 0, 57, 0
5, 3868, Note_on_c, 0, 76, 0
5, 3869, Note_on_c, 0, 88, 0
5, 3874, Note_on_c, 0, 62, 0
5, 3902, Note_on_c, 0, 88, 67
5, 3904, Note_on_c, 0, 76, 54
5, 3907, Note_on_c, 0, 81, 34
5, 3928, Note_on_c, 0, 88, 0
5, 3930, Note_on_c, 0, 76, 0
5, 3942, Note_on_c, 0, 81, 0
5, 3962, Note_on_c, 0, 87, 73
5, 3963, Note_on_c, 0, 75, 77
5, 3964, Note_on_c, 0, 65, 62
5, 3965, Note_on_c, 0, 81, 67
5, 3965, Note_on_c, 0, 57, 57
5, 3965, Note_on_c, 0, 62, 62
5, 3966, Note_on_c, 0, 84, 62
5, 3983, Note_on_c, 0, 65, 0
5, 3987, Note_on_c, 0, 75, 0
5, 3989, Note_on_c, 0, 57, 0
5, 3989, Note_on_c, 0, 81, 0
5, 3990, Note_on_c, 0, 87, 0
5, 3990, Note_on_c, 0, 84, 0
5, 3998, Note_on_c, 0, 62, 0
5, 4000, Note_on_c, 0, 76, 68
5, 4001, Note_on_c, 0, 88, 66
5, 4001, Note_on_c, 0, 81, 47
5, 4003, Note_on_c, 0, 84, 57
5, 4005, Note_on_c, 0, 86, 49
5, 4012, Note_on_c, 0, 86, 0
5, 4016, Note_on_c, 0, 84, 0
5, 4017, Note_on_c, 0, 76, 0
5, 4018, Note_on_c, 0, 88, 0
5, 4020, Note_on_c, 0, 81, 0
5, 4029, Note_on_c, 0, 76, 28
5, 4030, Note_on_c, 0, 88, 38
5, 4032, Note_on_c, 0, 81, 20
5, 4035, Note_on_c, 0, 84, 38
5, 4035, Note_on_c, 0, 86, 27
5, 4044, Note_on_c, 0, 86, 0
5, 4050, Note_on_c, 0, 76, 0
5, 4053, Note_on_c, 0, 84, 0
5, 4053, Note_on_c, 0, 81, 0
5, 4054, Note_on_c, 0, 88, 0
5, 4082, Note_on_c, 0, 62, 51
5, 4083, Note_on_c, 0, 65, 48
5, 4084, Note_on_c, 0, 88, 59
5, 4085, Note_on_c, 0, 56, 33
5, 4086, Note_on_c, 0, 81, 49
5, 4086, Note_on_c, 0, 76, 53
5, 4088, Note_on_c, 0, 84, 43
5, 4099, Note_on_c, 0, 65, 0
5, 4103, Note_on_c, 0, 56, 0
5, 4106, Note_on_c, 0, 62, 0
5, 4108, Note_on_c, 0, 81, 0
5, 4109, Note_on_c, 0, 88, 0
5, 4109, Note_on_c, 0, 84, 0
5, 4113, Note_on_c, 0, 76, 0
5, 4143, Note_on_c, 0, 87, 59
5, 4144, Note_on_c, 0, 75, 69
5, 4150, Note_on_c, 0, 81, 36
5, 4152, Note_on_c, 0, 84, 37
5, 4160, Note_on_c, 0, 84, 0
5, 4166, Note_on_c, 0, 81, 0
5, 4167, Note_on_c, 0, 75, 0
5, 4169, Note_on_c, 0, 87, 0
5, 4180, Note_on_c, 0, 76, 62
5, 4180, Note_on_c, 0, 81, 48
5, 4181, Note_on_c, 0, 88, 53
5, 4183, Note_on_c, 0, 84, 48
5, 4186, Note_on_c, 0, 86, 44
5, 4189, Note_on_c, 0, 88, 0
5, 4191, Note_on_c, 0, 84, 0
5, 4193, Note_on_c, 0, 86, 0
5, 4194, Note_on_c, 0, 76, 0
5, 4202, Note_on_c, 0, 76, 48
5, 4202, Note_on_c, 0, 88, 68
5, 4205, Note_on_c, 0, 62, 43
5, 4205, Note_on_c, 0, 56, 46
5, 4206, Note_on_c, 0, 65, 47
5, 4208, Note_on_c, 0, 84, 37
5, 4219, Note_on_c, 0, 65, 0
5, 4224, Note_on_c, 0, 84, 0
5, 4226, Note_on_c, 0, 81, 0
5, 4226, Note_on_c, 0, 76, 0
5, 4230, Note_on_c, 0, 62, 0
5, 4230, Note_on_c, 0, 88, 0
5, 4239, Note_on_c, 0, 56, 0
5, 4261, Note_on_c, 0, 88, 72
5, 4263, Note_on_c, 0, 76, 54
5, 4264, Note_on_c, 0, 81, 54
5, 4268, Note_on_c, 0, 84, 36
5, 4281, Note_on_c, 0, 84, 0
5, 4282, Note_on_c, 0, 76, 0
5, 4283, Note_on_c, 0, 88, 0
5, 4285, Note_on_c, 0, 81, 0
5, 4322, Note_on_c, 0, 87, 56
5, 4323, Note_on_c, 0, 64, 42
5, 4323, Note_on_c, 0, 75, 57
5, 4323, Note_on_c, 0, 57, 37
5, 4326, Note_on_c, 0, 60, 46
5, 4326, Note_on_c, 0, 81, 47
5, 4328, Note_on_c, 0, 87, 0
5, 4331, Note_on_c, 0, 88, 47
5, 4331, Note_on_c, 0, 84, 39
5, 4332, Note_on_c, 0, 75, 0
5, 4335, Note_on_c, 0, 76, 39
5, 4346, Note_on_c, 0, 60, 0
5, 4346, Note_on_c, 0, 64, 0
5, 4348, Note_on_c, 0, 76, 0
5, 4353, Note_on_c, 0, 84, 0
5, 4354, Note_on_c, 0, 81, 0
5, 4355, Note_on_c, 0, 57, 0
5, 4362, Note_on_c, 0, 88, 0
5, 4438, Note_on_c, 0, 64, 39
5, 4438, Note_on_c, 0, 60, 52
5, 4440, Note_on_c, 0, 57, 45
5, 4453, Note_on_c, 0, 64, 0
5, 4459, Note_on_c, 0, 60, 0
5, 4461, Note_on_c, 0, 57, 0
5, 4501, Note_on_c, 0, 93, 101
5, 4515, Note_on_c, 0, 93, 0
5, 4557, Note_on_c, 0, 86, 110
5, 4558, Note_on_c, 0, 64, 38
5, 4559, Note_on_c, 0, 60, 39
5, 4560, Note_on_c, 0, 57, 36
5, 4561, Note_on_c, 0, 95, 71
5, 4561, Note_on_c, 0, 93, 62
5, 4567, Note_on_c, 0, 95, 0
5, 4570, Note_on_c, 0, 86, 0
5, 4582, Note_on_c, 0, 87, 53
5, 4591, Note_on_c, 0, 90, 25
5, 4600, Note_on_c, 0, 93, 0
5, 4601, Note_on_c, 0, 86, 62
5, 4608, Note_on_c, 0, 90, 0
5, 4609, Note_on_c, 0, 87, 0
5, 4620, Note_on_c, 0, 64, 0
5, 4622, Note_on_c, 0, 84, 59
5, 4623, Note_on_c, 0, 86, 0
5, 4643, Note_on_c, 0, 60, 0
5, 4644, Note_on_c, 0, 83, 64
5, 4655, Note_on_c, 0, 84, 0
5, 4677, Note_on_c, 0, 83, 0
5, 4686, Note_on_c, 0, 86, 88
5, 4692, Note_on_c, 0, 64, 37
5, 4695, Note_on_c, 0, 60, 33
5, 4708, Note_on_c, 0, 83, 56
5, 4713, Note_on_c, 0, 86, 0
5, 4714, Note_on_c, 0, 64, 0
5, 4723, Note_on_c, 0, 83, 0
5, 4725, Note_on_c, 0, 60, 0
5, 4740, Note_on_c, 0, 84, 83
5, 4764, Note_on_c, 0, 84, 0
5, 4764, Note_on_c, 0, 81, 62
5, 4778, Note_on_c, 0, 57, 0
5, 4788, Note_on_c, 0, 81, 0
5, 4793, Note_on_c, 0, 76, 65
5, 4809, Note_on_c, 0, 76, 0
5, 4819, Note_on_c, 0, 74, 44
5, 4847, Note_on_c, 0, 74, 0
5, 4866, Note_on_c, 0, 74, 51
5, 4890, Note_on_c, 0, 74, 0
5, 4923, Note_on_c, 0, 74, 69
5, 4968, Note_on_c, 0, 74, 0
5, 4978, Note_on_c, 0, 72, 41
5, 4999, Note_on_c, 0, 72, 0
5, 5015, Note_on_c, 0, 74, 58
5, 5022, Note_on_c, 0, 54, 37
5, 5027, Note_on_c, 0, 60, 32
5, 5040, Note_on_c, 0, 74, 0
5, 5043, Note_on_c, 0, 60, 0
5, 5047, Note_on_c, 0, 54, 0
5, 5100, Note_on_c, 0, 54, 39
5, 5105, Note_on_c, 0, 64, 28
5, 5105, Note_on_c, 0, 60, 47
5, 5149, Note_on_c, 0, 64, 0
5, 5166, Note_on_c, 0, 66, 70
5, 5173, Note_on_c, 0, 54, 0
5, 5175, Note_on_c, 0, 60, 0
5, 5191, Note_on_c, 0, 66, 0
5, 5198, Note_on_c, 0, 67, 62
5, 5205, Note_on_c, 0, 54, 45
5, 5208, Note_on_c, 0, 62, 40
5, 5208, Note_on_c, 0, 60, 24
5, 5215, Note_on_c, 0, 67, 0
5, 5218, Note_on_c, 0, 60, 0
5, 5222, Note_on_c, 0, 62, 0
5, 5225, Note_on_c, 0, 69, 58
5, 5234, Note_on_c, 0, 54, 0
5, 5245, Note_on_c, 0, 69, 0
5, 5261, Note_on_c, 0, 70, 50
5, 5267, Note_on_c, 0, 70, 0
5, 5267, Note_on_c, 0, 71, 57
5, 5275, Note_on_c, 0, 71, 0
5, 5289, Note_on_c, 0, 62, 29
5, 5297, Note_on_c, 0, 71, 28
5, 5297, Note_on_c, 0, 59, 24
5, 5305, Note_on_c, 0, 71, 0
5, 5306, Note_on_c, 0, 59, 0
5, 5309, Note_on_c, 0, 62, 0
5, 5377, Note_on_c, 0, 62, 42
5, 5379, Note_on_c, 0, 55, 46
5, 5381, Note_on_c, 0, 58, 33
5, 5386, Note_on_c, 0, 62, 0
5, 5387, Note_on_c, 0, 55, 0
5, 5398, Note_on_c, 0, 58, 0
5, 5398, Note_on_c, 0, 74, 90
5, 5426, Note_on_c, 0, 74, 0
5, 5434, Note_on_c, 0, 70, 60
5, 5437, Note_on_c, 0, 58, 34
5, 5451, Note_on_c, 0, 58, 0
5, 5452, Note_on_c, 0, 70, 0
5, 5460, Note_on_c, 0, 69, 55
5, 5474, Note_on_c, 0, 69, 0
5, 5516, Note_on_c, 0, 63, 50
5, 5516, Note_on_c, 0, 70, 75
5, 5519, Note_on_c, 0, 55, 38
5, 5521, Note_on_c, 0, 58, 42
5, 5583, Note_on_c, 0, 63, 0
5, 5584, Note_on_c, 0, 55, 0
5, 5599, Note_on_c, 0, 58, 0
5, 5602, Note_on_c, 0, 70, 0
5, 5621, Note_on_c, 0, 69, 69
5, 5622, Note_on_c, 0, 71, 73
5, 5626, Note_on_c, 0, 63, 52
5, 5643, Note_on_c, 0, 71, 0
5, 5644, Note_on_c, 0, 69, 0
5, 5660, Note_on_c, 0, 70, 42
5, 5671, Note_on_c, 0, 69, 60
5, 5680, Note_on_c, 0, 70, 0
5, 5682, Note_on_c, 0, 63, 0
5, 5687, Note_on_c, 0, 67, 64
5, 5688, Note_on_c, 0, 69, 0
5, 5697, Note_on_c, 0, 67, 0
5, 5708, Note_on_c, 0, 69, 84
5, 5708, Note_on_c, 0, 64, 43
5, 5711, Note_on_c, 0, 55, 32
5, 5711, Note_on_c, 0, 58, 35
5, 5738, Note_on_c, 0, 69, 0
5, 5745, Note_on_c, 0, 70, 57
5, 5753, Note_on_c, 0, 69, 40
5, 5754, Note_on_c, 0, 64, 0
5, 5761, Note_on_c, 0, 70, 0
5, 5768, Note_on_c, 0, 67, 56
5, 5769, Note_on_c, 0, 58, 0
5, 5769, Note_on_c, 0, 55, 0
5, 5778, Note_on_c, 0, 69, 0
5, 5794, Note_on_c, 0, 67, 0
5, 5805, Note_on_c, 0, 66, 59
5, 5822, Note_on_c, 0, 66, 0
5, 5831, Note_on_c, 0, 69, 76
5, 5856, Note_on_c, 0, 69, 0
5, 5861, Note_on_c, 0, 66, 47
5, 5875, Note_on_c, 0, 66, 0
5, 5881, Note_on_c, 0, 58, 15
5, 5888, Note_on_c, 0, 67, 58
5, 5915, Note_on_c, 0, 67, 0
5, 5924, Note_on_c, 0, 62, 27
5, 5932, Note_on_c, 0, 62, 0
5, 5935, Note_on_c, 0, 58, 0
5, 6000, Note_on_c, 0, 62, 61
5, 6002, Note_on_c, 0, 58, 42
5, 6004, Note_on_c, 0, 52, 37
5, 6009, Note_on_c, 0, 62, 0
5, 6011, Note_on_c, 0, 52, 0
5, 6016, Note_on_c, 0, 58, 0
5, 6062, Note_on_c, 0, 67, 96
5, 6089, Note_on_c, 0, 67, 0
5, 6096, Note_on_c, 0, 66, 52
5, 6116, Note_on_c, 0, 66, 0
5, 6122, Note_on_c, 0, 62, 29
5, 6123, Note_on_c, 0, 67, 52
5, 6126, Note_on_c, 0, 58, 32
5, 6139, Note_on_c, 0, 62, 0
5, 6145, Note_on_c, 0, 67, 0
5, 6153, Note_on_c, 0, 58, 0
5, 6158, Note_on_c, 0, 69, 74
5, 6178, Note_on_c, 0, 69, 0
5, 6190, Note_on_c, 0, 70, 37
5, 6209, Note_on_c, 0, 70, 0
5, 6214, Note_on_c, 0, 71, 37
5, 6234, Note_on_c, 0, 71, 0
5, 6239, Note_on_c, 0, 63, 37
5, 6242, Note_on_c, 0, 72, 53
5, 6244, Note_on_c, 0, 60, 26
5, 6246, Note_on_c, 0, 55, 28
5, 6248, Note_on_c, 0, 57, 42
5, 6260, Note_on_c, 0, 55, 0
5, 6267, Note_on_c, 0, 63, 0
5, 6284, Note_on_c, 0, 60, 0
5, 6288, Note_on_c, 0, 57, 0
5, 6290, Note_on_c, 0, 72, 0
5, 6301, Note_on_c, 0, 69, 41
5, 6320, Note_on_c, 0, 69, 0
5, 6361, Note_on_c, 0, 63, 34
5, 6363, Note_on_c, 0, 67, 37
5, 6364, Note_on_c, 0, 55, 26
5, 6373, Note_on_c, 0, 55, 0
5, 6375, Note_on_c, 0, 67, 0
5, 6384, Note_on_c, 0, 63, 0
5, 6397, Note_on_c, 0, 72, 42
5, 6419, Note_on_c, 0, 72, 0
5, 6421, Note_on_c, 0, 75, 62
5, 6435, Note_on_c, 0, 75, 0
5, 6455, Note_on_c, 0, 79, 79
5, 6459, Note_on_c, 0, 64, 57
5, 6461, Note_on_c, 0, 54, 31
5, 6462, Note_on_c, 0, 60, 39
5, 6467, Note_on_c, 0, 64, 0
5, 6469, Note_on_c, 0, 79, 0
5, 6472, Note_on_c, 0, 60, 0
5, 6473, Note_on_c, 0, 54, 0
5, 6484, Note_on_c, 0, 84, 74
5, 6496, Note_on_c, 0, 84, 0
5, 6512, Note_on_c, 0, 87, 77
5, 6515, Note_on_c, 0, 85, 40
5, 6521, Note_on_c, 0, 85, 0
5, 6528, Note_on_c, 0, 87, 0
5, 6536, Note_on_c, 0, 64, 50
5, 6537, Note_on_c, 0, 60, 51
5, 6538, Note_on_c, 0, 54, 34
5, 6539, Note_on_c, 0, 89, 82
5, 6578, Note_on_c, 0, 89, 0
5, 6589, Note_on_c, 0, 64, 0
5, 6598, Note_on_c, 0, 85, 49
5, 6605, Note_on_c, 0, 85, 0
5, 6608, Note_on_c, 0, 54, 0
5, 6611, Note_on_c, 0, 86, 55
5, 6614, Note_on_c, 0, 60, 0
5, 6628, Note_on_c, 0, 86, 0
5, 6633, Note_on_c, 0, 60, 47
5, 6635, Note_on_c, 0, 54, 29
5, 6646, Note_on_c, 0, 87, 91
5, 6654, Note_on_c, 0, 60, 0
5, 6665, Note_on_c, 0, 54, 0
5, 6668, Note_on_c, 0, 87, 0
5, 6687, Note_on_c, 0, 86, 80
5, 6707, Note_on_c, 0, 86, 0
5, 6711, Note_on_c, 0, 84, 68
5, 6718, Note_on_c, 0, 58, 40
5, 6721, Note_on_c, 0, 62, 30
5, 6724, Note_on_c, 0, 53, 19
5, 6729, Note_on_c, 0, 55, 27
5, 6730, Note_on_c, 0, 84, 0
5, 6739, Note_on_c, 0, 82, 51
5, 6762, Note_on_c, 0, 82, 0
5, 6769, Note_on_c, 0, 53, 0
5, 6771, Note_on_c, 0, 55, 0
5, 6772, Note_on_c, 0, 62, 0
5, 6773, Note_on_c, 0, 58, 0
5, 6785, Note_on_c, 0, 82, 62
5, 6822, Note_on_c, 0, 82, 0
5, 6841, Note_on_c, 0, 61, 46
5, 6844, Note_on_c, 0, 53, 35
5, 6844, Note_on_c, 0, 82, 57
5, 6844, Note_on_c, 0, 55, 53
5, 6848, Note_on_c, 0, 58, 32
5, 6875, Note_on_c, 0, 82, 0
5, 6879, Note_on_c, 0, 55, 0
5, 6880, Note_on_c, 0, 53, 0
5, 6886, Note_on_c, 0, 61, 0
5, 6890, Note_on_c, 0, 58, 0
5, 6936, Note_on_c, 0, 60, 43
5, 6936, Note_on_c, 0, 58, 20
5, 6950, Note_on_c, 0, 60, 0
5, 6958, Note_on_c, 0, 58, 0
5, 6993, Note_on_c, 0, 60, 57
5, 6993, Note_on_c, 0, 58, 47
5, 6999, Note_on_c, 0, 60, 0
5, 6999, Note_on_c, 0, 52, 19
5, 7001, Note_on_c, 0, 58, 0
5, 7006, Note_on_c, 0, 52, 0
5, 7017, Note_on_c, 0, 85, 87
5, 7017, Note_on_c, 0, 73, 80
5, 7018, Note_on_c, 0, 82, 74
5, 7041, Note_on_c, 0, 73, 0
5, 7042, Note_on_c, 0, 85, 0
5, 7043, Note_on_c, 0, 82, 0
5, 7045, Note_on_c, 0, 58, 30
5, 7052, Note_on_c, 0, 85, 64
5, 7055, Note_on_c, 0, 73, 48
5, 7055, Note_on_c, 0, 82, 46
5, 7057, Note_on_c, 0, 58, 0
5, 7071, Note_on_c, 0, 73, 0
5, 7075, Note_on_c, 0, 85, 0
5, 7080, Note_on_c, 0, 84, 52
5, 7084, Note_on_c, 0, 72, 36
5, 7098, Note_on_c, 0, 84, 0
5, 7098, Note_on_c, 0, 82, 0
5, 7100, Note_on_c, 0, 72, 0
5, 7114, Note_on_c, 0, 84, 64
5, 7114, Note_on_c, 0, 72, 53
5, 7120, Note_on_c, 0, 58, 44
5, 7122, Note_on_c, 0, 60, 39
5, 7123, Note_on_c, 0, 72, 0
5, 7123, Note_on_c, 0, 84, 0
5, 7131, Note_on_c, 0, 60, 0
5, 7140, Note_on_c, 0, 70, 50
5, 7142, Note_on_c, 0, 58, 0
5, 7162, Note_on_c, 0, 70, 0
5, 7174, Note_on_c, 0, 82, 55
5, 7176, Note_on_c, 0, 70, 52
5, 7191, Note_on_c, 0, 70, 0
5, 7195, Note_on_c, 0, 82, 0
5, 7198, Note_on_c, 0, 57, 46
5, 7200, Note_on_c, 0, 60, 29
5, 7201, Note_on_c, 0, 81, 60
5, 7202, Note_on_c, 0, 53, 20
5, 7204, Note_on_c, 0, 69, 51
5, 7220, Note_on_c, 0, 69, 0
5, 7225, Note_on_c, 0, 81, 0
5, 7236, Note_on_c, 0, 60, 0
5, 7247, Note_on_c, 0, 57, 0
5, 7258, Note_on_c, 0, 81, 64
5, 7263, Note_on_c, 0, 69, 57
5, 7265, Note_on_c, 0, 53, 0
5, 7279, Note_on_c, 0, 69, 0
5, 7284, Note_on_c, 0, 81, 0
5, 7300, Note_on_c, 0, 80, 21
5, 7312, Note_on_c, 0, 80, 0
5, 7320, Note_on_c, 0, 53, 29
5, 7323, Note_on_c, 0, 57, 34
5, 7323, Note_on_c, 0, 81, 60
5, 7327, Note_on_c, 0, 60, 24
5, 7346, Note_on_c, 0, 60, 0
5, 7360, Note_on_c, 0, 57, 0
5, 7361, Note_on_c, 0, 81, 0
5, 7371, Note_on_c, 0, 53, 0
5, 7382, Note_on_c, 0, 79, 36
5, 7393, Note_on_c, 0, 79, 0
5, 7442, Note_on_c, 0, 52, 47
5, 7445, Note_on_c, 0, 60, 27
5, 7456, Note_on_c, 0, 60, 0
5, 7461, Note_on_c, 0, 52, 0
5, 7534, Note_on_c, 0, 81, 71
5, 7535, Note_on_c, 0, 69, 77
5, 7542, Note_on_c, 0, 52, 35
5, 7543, Note_on_c, 0, 60, 28
5, 7575, Note_on_c, 0, 81, 0
5, 7580, Note_on_c, 0, 69, 0
5, 7593, Note_on_c, 0, 80, 28
5, 7605, Note_on_c, 0, 80, 0
5, 7617, Note_on_c, 0, 81, 71
5, 7619, Note_on_c, 0, 69, 66
5, 7620, Note_on_c, 0, 60, 0
5, 7622, Note_on_c, 0, 52, 0
5, 7654, Note_on_c, 0, 69, 0
5, 7665, Note_on_c, 0, 81, 0
5, 7679, Note_on_c, 0, 50, 37
5, 7679, Note_on_c, 0, 60, 36
5, 7680, Note_on_c, 0, 69, 50
5, 7681, Note_on_c, 0, 77, 48
5, 7682, Note_on_c, 0, 57, 46
5, 7693, Note_on_c, 0, 69, 0
5, 7701, Note_on_c, 0, 77, 0
5, 7702, Note_on_c, 0, 60, 0
5, 7703, Note_on_c, 0, 57, 0
5, 7710, Note_on_c, 0, 50, 0
5, 7774, Note_on_c, 0, 50, 36
5, 7774, Note_on_c, 0, 60, 37
5, 7776, Note_on_c, 0, 57, 52
5, 7781, Note_on_c, 0, 60, 0
5, 7784, Note_on_c, 0, 50, 0
5, 7793, Note_on_c, 0, 57, 0
5, 7797, Note_on_c, 0, 81, 90
5, 7820, Note_on_c, 0, 81, 0
5, 7857, Note_on_c, 0, 81, 80
5, 7890, Note_on_c, 0, 81, 0
5, 7893, Note_on_c, 0, 80, 46
5, 7908, Note_on_c, 0, 80, 0
5, 7915, Note_on_c, 0, 48, 37
5, 7917, Note_on_c, 0, 57, 32
5, 7920, Note_on_c, 0, 81, 53
5, 7944, Note_on_c, 0, 81, 0
5, 7971, Note_on_c, 0, 48, 0
5, 7983, Note_on_c, 0, 82, 68
5, 7986, Note_on_c, 0, 57, 0
5, 7995, Note_on_c, 0, 82, 0
5, 8041, Note_on_c, 0, 81, 95
5, 8074, Note_on_c, 0, 81, 0
5, 8078, Note_on_c, 0, 82, 56
5, 8089, Note_on_c, 0, 81, 60
5, 8096, Note_on_c, 0, 82, 0
5, 8110, Note_on_c, 0, 80, 37
5, 8111, Note_on_c, 0, 81, 0
5, 8129, Note_on_c, 0, 80, 0
5, 8143, Note_on_c, 0, 81, 64
5, 8149, Note_on_c, 0, 65, 45
5, 8151, Note_on_c, 0, 62, 39
5, 8153, Note_on_c, 0, 57, 32
5, 8186, Note_on_c, 0, 81, 0
5, 8187, Note_on_c, 0, 57, 0
5, 8190, Note_on_c, 0, 65, 0
5, 8193, Note_on_c, 0, 62, 0
5, 8197, Note_on_c, 0, 77, 27
5, 8212, Note_on_c, 0, 77, 0
5, 8228, Note_on_c, 0, 77, 62
5, 8251, Note_on_c, 0, 77, 0
5, 8278, Note_on_c, 0, 65, 33
5, 8279, Note_on_c, 0, 77, 50
5, 8280, Note_on_c, 0, 62, 38
5, 8286, Note_on_c, 0, 57, 16
5, 8299, Note_on_c, 0, 65, 0
5, 8302, Note_on_c, 0, 57, 0
5, 8304, Note_on_c, 0, 62, 0
5, 8308, Note_on_c, 0, 77, 0
5, 8333, Note_on_c, 0, 74, 43
5, 8349, Note_on_c, 0, 74, 0
5, 8372, Note_on_c, 0, 65, 44
5, 8373, Note_on_c, 0, 57, 36
5, 8375, Note_on_c, 0, 62, 44
5, 8381, Note_on_c, 0, 65, 0
5, 8385, Note_on_c, 0, 62, 0
5, 8387, Note_on_c, 0, 57, 0
5, 8462, Note_on_c, 0, 57, 53
5, 8463, Note_on_c, 0, 65, 42
5, 8464, Note_on_c, 0, 62, 46
5, 8479, Note_on_c, 0, 65, 0
5, 8484, Note_on_c, 0, 62, 0
5, 8486, Note_on_c, 0, 57, 0
5, 8564, Note_on_c, 0, 56, 31
5, 8564, Note_on_c, 0, 62, 43
5, 8565, Note_on_c, 0, 65, 33
5, 8583, Note_on_c, 0, 65, 0
5, 8589, Note_on_c, 0, 62, 0
5, 8591, Note_on_c, 0, 56, 0
5, 8640, Note_on_c, 0, 65, 49
5, 8643, Note_on_c, 0, 62, 49
5, 8645, Note_on_c, 0, 56, 28
5, 8656, Note_on_c, 0, 65, 0
5, 8668, Note_on_c, 0, 56, 0
5, 8676, Note_on_c, 0, 62, 0
5, 8704, Note_on_c, 0, 75, 70
5, 8706, Note_on_c, 0, 63, 77
5, 8707, Note_on_c, 0, 70, 62
5, 8728, Note_on_c, 0, 63, 0
5, 8732, Note_on_c, 0, 70, 0
5, 8739, Note_on_c, 0, 75, 0
5, 8742, Note_on_c, 0, 64, 68
5, 8742, Note_on_c, 0, 76, 69
5, 8748, Note_on_c, 0, 73, 23
5, 8749, Note_on_c, 0, 56, 37
5, 8751, Note_on_c, 0, 62, 49
5, 8757, Note_on_c, 0, 64, 0
5, 8761, Note_on_c, 0, 76, 0
5, 8762, Note_on_c, 0, 62, 0
5, 8762, Note_on_c, 0, 73, 0
5, 8769, Note_on_c, 0, 56, 0
5, 8774, Note_on_c, 0, 64, 51
5, 8774, Note_on_c, 0, 76, 70
5, 8777, Note_on_c, 0, 71, 52
5, 8780, Note_on_c, 0, 73, 19
5, 8789, Note_on_c, 0, 64, 0
5, 8794, Note_on_c, 0, 73, 0
5, 8796, Note_on_c, 0, 71, 0
5, 8797, Note_on_c, 0, 76, 0
5, 8824, Note_on_c, 0, 68, 74
5, 8824, Note_on_c, 0, 80, 71
5, 8841, Note_on_c, 0, 68, 0
5, 8845, Note_on_c, 0, 80, 0
5, 8857, Note_on_c, 0, 80, 49
5, 8858, Note_on_c, 0, 68, 60
5, 8862, Note_on_c, 0, 56, 42
5, 8864, Note_on_c, 0, 62, 50
5, 8864, Note_on_c, 0, 65, 36
5, 8872, Note_on_c, 0, 65, 0
5, 8873, Note_on_c, 0, 68, 0
5, 8876, Note_on_c, 0, 80, 0
5, 8881, Note_on_c, 0, 56, 0
5, 8886, Note_on_c, 0, 62, 0
5, 8889, Note_on_c, 0, 80, 47
5, 8892, Note_on_c, 0, 68, 59
5, 8899, Note_on_c, 0, 75, 26
5, 8905, Note_on_c, 0, 68, 0
5, 8907, Note_on_c, 0, 75, 0
5, 8912, Note_on_c, 0, 80, 0
5, 8920, Note_on_c, 0, 62, 53
5, 8937, Note_on_c, 0, 62, 0
5, 8938, Note_on_c, 0, 82, 69
5, 8940, Note_on_c, 0, 70, 71
5, 8951, Note_on_c, 0, 82, 0
5, 8952, Note_on_c, 0, 70, 0
5, 8953, Note_on_c, 0, 83, 32
5, 8955, Note_on_c, 0, 71, 53
5, 8957, Note_on_c, 0, 79, 25
5, 8957, Note_on_c, 0, 76, 26
5, 8960, Note_on_c, 0, 83, 0
5, 8963, Note_on_c, 0, 71, 0
5, 8965, Note_on_c, 0, 76, 0
5, 8966, Note_on_c, 0, 79, 0
5, 8973, Note_on_c, 0, 62, 44
5, 8979, Note_on_c, 0, 71, 64
5, 8980, Note_on_c, 0, 76, 46
5, 8980, Note_on_c, 0, 83, 50
5, 8980, Note_on_c, 0, 79, 37
5, 8985, Note_on_c, 0, 81, 32
5, 8992, Note_on_c, 0, 83, 0
5, 8992, Note_on_c, 0, 62, 0
5, 8993, Note_on_c, 0, 76, 0
5, 8993, Note_on_c, 0, 81, 0
5, 8994, Note_on_c, 0, 71, 0
5, 8994, Note_on_c, 0, 79, 0
5, 9006, Note_on_c, 0, 83, 61
5, 9006, Note_on_c, 0, 71, 71
5, 9009, Note_on_c, 0, 76, 55
5, 9010, Note_on_c, 0, 81, 37
5, 9011, Note_on_c, 0, 79, 30
5, 9021, Note_on_c, 0, 81, 0
5, 9021, Note_on_c, 0, 71, 0
5, 9022, Note_on_c, 0, 76, 0
5, 9024, Note_on_c, 0, 79, 0
5, 9026, Note_on_c, 0, 83, 0
5, 9038, Note_on_c, 0, 62, 56
5, 9038, Note_on_c, 0, 56, 42
5, 9039, Note_on_c, 0, 65, 38
5, 9046, Note_on_c, 0, 65, 0
5, 9053, Note_on_c, 0, 56, 0
5, 9055, Note_on_c, 0, 62, 0
5, 9055, Note_on_c, 0, 86, 80
5, 9058, Note_on_c, 0, 74, 58
5, 9058, Note_on_c, 0, 79, 59
5, 9059, Note_on_c, 0, 83, 56
5, 9074, Note_on_c, 0, 74, 0
5, 9076, Note_on_c, 0, 86, 0
5, 9076, Note_on_c, 0, 79, 0
5, 9082, Note_on_c, 0, 83, 0
5, 9094, Note_on_c, 0, 86, 75
5, 9098, Note_on_c, 0, 74, 72
5, 9098, Note_on_c, 0, 83, 57
5, 9098, Note_on_c, 0, 79, 60
5, 9112, Note_on_c, 0, 79, 0
5, 9112, Note_on_c, 0, 74, 0
5, 9113, Note_on_c, 0, 86, 0
5, 9114, Note_on_c, 0, 64, 43
5, 9118, Note_on_c, 0, 60, 39
5, 9119, Note_on_c, 0, 83, 0
5, 9120, Note_on_c, 0, 59, 33
5, 9122, Note_on_c, 0, 57, 35
5, 9126, Note_on_c, 0, 86, 65
5, 9130, Note_on_c, 0, 74, 57
5, 9131, Note_on_c, 0, 79, 46
5, 9131, Note_on_c, 0, 83, 57
5, 9155, Note_on_c, 0, 83, 0
5, 9155, Note_on_c, 0, 59, 0
5, 9155, Note_on_c, 0, 64, 0
5, 9156, Note_on_c, 0, 60, 0
5, 9156, Note_on_c, 0, 57, 0
5, 9156, Note_on_c, 0, 86, 0
5, 9157, Note_on_c, 0, 74, 0
5, 9160, Note_on_c, 0, 79, 0
5, 9179, Note_on_c, 0, 84, 61
5, 9182, Note_on_c, 0, 79, 49
5, 9184, Note_on_c, 0, 72, 50
5, 9200, Note_on_c, 0, 79, 0
5, 9200, Note_on_c, 0, 84, 0
5, 9208, Note_on_c, 0, 72, 0
5, 9237, Note_on_c, 0, 78, 53
5, 9237, Note_on_c, 0, 64, 36
5, 9239, Note_on_c, 0, 71, 63
5, 9240, Note_on_c, 0, 83, 57
5, 9241, Note_on_c, 0, 57, 30
5, 9242, Note_on_c, 0, 59, 32
5, 9243, Note_on_c, 0, 60, 32
5, 9264, Note_on_c, 0, 79, 29
5, 9267, Note_on_c, 0, 78, 0
5, 9273, Note_on_c, 0, 71, 0
5, 9276, Note_on_c, 0, 83, 0
5, 9277, Note_on_c, 0, 79, 0
5, 9289, Note_on_c, 0, 64, 0
5, 9293, Note_on_c, 0, 59, 0
5, 9295, Note_on_c, 0, 60, 0
5, 9297, Note_on_c, 0, 81, 47
5, 9301, Note_on_c, 0, 69, 45
5, 9315, Note_on_c, 0, 57, 0
5, 9318, Note_on_c, 0, 69, 0
5, 9325, Note_on_c, 0, 81, 0
5, 9361, Note_on_c, 0, 72, 59
5, 9361, Note_on_c, 0, 55, 36
5, 9362, Note_on_c, 0, 84, 61
5, 9362, Note_on_c, 0, 64, 22
5, 9366, Note_on_c, 0, 60, 30
5, 9375, Note_on_c, 0, 57, 22
5, 9386, Note_on_c, 0, 72, 0
5, 9387, Note_on_c, 0, 84, 0
5, 9388, Note_on_c, 0, 60, 0
5, 9391, Note_on_c, 0, 55, 0
5, 9391, Note_on_c, 0, 64, 0
5, 9396, Note_on_c, 0, 57, 0
5, 9453, Note_on_c, 0, 55, 33
5, 9455, Note_on_c, 0, 57, 36
5, 9456, Note_on_c, 0, 60, 37
5, 9456, Note_on_c, 0, 64, 26
5, 9478, Note_on_c, 0, 60, 0
5, 9481, Note_on_c, 0, 55, 0
5, 9481, Note_on_c, 0, 57, 0
5, 9485, Note_on_c, 0, 64, 0
5, 9537, Note_on_c, 0, 64, 39
5, 9538, Note_on_c, 0, 60, 43
5, 9538, Note_on_c, 0, 53, 22
5, 9539, Note_on_c, 0, 57, 43
5, 9578, Note_on_c, 0, 60, 0
5, 9579, Note_on_c, 0, 64, 0
5, 9584, Note_on_c, 0, 57, 0
5, 9589, Note_on_c, 0, 53, 0
5, 9636, Note_on_c, 0, 64, 51
5, 9639, Note_on_c, 0, 57, 46
5, 9639, Note_on_c, 0, 60, 49
5, 9640, Note_on_c, 0, 53, 29
5, 9664, Note_on_c, 0, 60, 0
5, 9672, Note_on_c, 0, 64, 0
5, 9677, Note_on_c, 0, 57, 0
5, 9693, Note_on_c, 0, 57, 43
5, 9697, Note_on_c, 0, 60, 20
5, 9698, Note_on_c, 0, 75, 69
5, 9699, Note_on_c, 0, 63, 86
5, 9702, Note_on_c, 0, 69, 76
5, 9703, Note_on_c, 0, 60, 0
5, 9704, Note_on_c, 0, 53, 0
5, 9704, Note_on_c, 0, 72, 51
5, 9705, Note_on_c, 0, 57, 0
5, 9714, Note_on_c, 0, 63, 0
5, 9718, Note_on_c, 0, 69, 0
5, 9725, Note_on_c, 0, 75, 0
5, 9726, Note_on_c, 0, 69, 48
5, 9727, Note_on_c, 0, 76, 65
5, 9728, Note_on_c, 0, 64, 58
5, 9731, Note_on_c, 0, 74, 53
5, 9740, Note_on_c, 0, 74, 0
5, 9751, Note_on_c, 0, 64, 0
5, 9760, Note_on_c, 0, 69, 0
5, 9761, Note_on_c, 0, 76, 0
5, 9763, Note_on_c, 0, 72, 0
5, 9765, Note_on_c, 0, 60, 35
5, 9766, Note_on_c, 0, 57, 41
5, 9773, Note_on_c, 0, 60, 0
5, 9776, Note_on_c, 0, 57, 0
5, 9780, Note_on_c, 0, 76, 66
5, 9782, Note_on_c, 0, 69, 72
5, 9782, Note_on_c, 0, 64, 68
5, 9783, Note_on_c, 0, 72, 37
5, 9785, Note_on_c, 0, 74, 39
5, 9802, Note_on_c, 0, 64, 0
5, 9805, Note_on_c, 0, 69, 0
5, 9808, Note_on_c, 0, 74, 0
5, 9808, Note_on_c, 0, 72, 0
5, 9811, Note_on_c, 0, 76, 0
5, 9823, Note_on_c, 0, 57, 33
5, 9833, Note_on_c, 0, 57, 0
5, 9879, Note_on_c, 0, 62, 53
5, 9881, Note_on_c, 0, 60, 43
5, 9882, Note_on_c, 0, 57, 45
5, 9885, Note_on_c, 0, 62, 0
5, 9892, Note_on_c, 0, 60, 0
5, 9901, Note_on_c, 0, 57, 0
5, 9901, Note_on_c, 0, 72, 77
5, 9902, Note_on_c, 0, 77, 74
5, 9902, Note_on_c, 0, 65, 81
5, 9918, Note_on_c, 0, 65, 0
5, 9925, Note_on_c, 0, 72, 0
5, 9930, Note_on_c, 0, 77, 0
5, 9935, Note_on_c, 0, 60, 34
5, 9938, Note_on_c, 0, 57, 29
5, 9943, Note_on_c, 0, 60, 0
5, 9948, Note_on_c, 0, 57, 0
5, 9957, Note_on_c, 0, 77, 75
5, 9958, Note_on_c, 0, 74, 73
5, 9959, Note_on_c, 0, 69, 80
5, 9960, Note_on_c, 0, 81, 64
5, 9973, Note_on_c, 0, 69, 0
5, 9978, Note_on_c, 0, 74, 0
5, 9982, Note_on_c, 0, 81, 0
5, 9986, Note_on_c, 0, 77, 0
5, 10000, Note_on_c, 0, 57, 44
5, 10023, Note_on_c, 0, 57, 0
5, 10058, Note_on_c, 0, 88, 81
5, 10059, Note_on_c, 0, 83, 72
5, 10062, Note_on_c, 0, 76, 44
5, 10079, Note_on_c, 0, 76, 0
5, 10080, Note_on_c, 0, 88, 0
5, 10084, Note_on_c, 0, 83, 0
5, 10098, Note_on_c, 0, 88, 74
5, 10099, Note_on_c, 0, 83, 62
5, 10100, Note_on_c, 0, 76, 68
5, 10125, Note_on_c, 0, 88, 0
5, 10127, Note_on_c, 0, 76, 0
5, 10131, Note_on_c, 0, 83, 0
5, 10134, Note_on_c, 0, 57, 42
5, 10135, Note_on_c, 0, 53, 49
5, 10147, Note_on_c, 0, 57, 0
5, 10148, Note_on_c, 0, 86, 63
5, 10148, Note_on_c, 0, 88, 50
5, 10151, Note_on_c, 0, 81, 54
5, 10151, Note_on_c, 0, 74, 42
5, 10154, Note_on_c, 0, 53, 0
5, 10155, Note_on_c, 0, 76, 36
5, 10163, Note_on_c, 0, 76, 0
5, 10166, Note_on_c, 0, 88, 0
5, 10168, Note_on_c, 0, 74, 0
5, 10170, Note_on_c, 0, 86, 0
5, 10171, Note_on_c, 0, 81, 0
5, 10184, Note_on_c, 0, 86, 68
5, 10187, Note_on_c, 0, 81, 54
5, 10187, Note_on_c, 0, 74, 57
5, 10213, Note_on_c, 0, 74, 0
5, 10217, Note_on_c, 0, 81, 0
5, 10217, Note_on_c, 0, 86, 0
5, 10241, Note_on_c, 0, 60, 62
5, 10242, Note_on_c, 0, 57, 46
5, 10245, Note_on_c, 0, 53, 33
5, 10246, Note_on_c, 0, 50, 22
5, 10252, Note_on_c, 0, 50, 0
5, 10252, Note_on_c, 0, 57, 0
5, 10253, Note_on_c, 0, 60, 0
5, 10257, Note_on_c, 0, 53, 0
5, 10323, Note_on_c, 0, 53, 31
5, 10324, Note_on_c, 0, 64, 45
5, 10324, Note_on_c, 0, 60, 50
5, 10326, Note_on_c, 0, 57, 39
5, 10337, Note_on_c, 0, 64, 0
5, 10338, Note_on_c, 0, 60, 0
5, 10339, Note_on_c, 0, 53, 0
5, 10340, Note_on_c, 0, 57, 0
5, 10409, Note_on_c, 0, 64, 35
5, 10410, Note_on_c, 0, 53, 26
5, 10411, Note_on_c, 0, 60, 44
5, 10412, Note_on_c, 0, 57, 41
5, 10420, Note_on_c, 0, 53, 0
5, 10426, Note_on_c, 0, 57, 0
5, 10428, Note_on_c, 0, 64, 0
5, 10429, Note_on_c, 0, 60, 0
5, 10562, Note_on_c, 0, 62, 49
5, 10563, Note_on_c, 0, 53, 44
5, 10564, Note_on_c, 0, 59, 42
5, 10568, Note_on_c, 0, 55, 44
5, 10575, Note_on_c, 0, 59, 0
5, 10576, Note_on_c, 0, 62, 0
5, 10577, Note_on_c, 0, 53, 0
5, 10577, Note_on_c, 0, 55, 0
5, 10651, Note_on_c, 0, 62, 63
5, 10653, Note_on_c, 0, 59, 50
5, 10657, Note_on_c, 0, 62, 0
5, 10658, Note_on_c, 0, 55, 27
5, 10662, Note_on_c, 0, 59, 0
5, 10665, Note_on_c, 0, 55, 0
5, 10674, Note_on_c, 0, 78, 56
5, 10677, Note_on_c, 0, 66, 67
5, 10679, Note_on_c, 0, 73, 35
5, 10696, Note_on_c, 0, 66, 0
5, 10699, Note_on_c, 0, 78, 0
5, 10702, Note_on_c, 0, 73, 0
5, 10712, Note_on_c, 0, 79, 55
5, 10712, Note_on_c, 0, 67, 70
5, 10716, Note_on_c, 0, 77, 37
5, 10718, Note_on_c, 0, 74, 57
5, 10725, Note_on_c, 0, 74, 0
5, 10725, Note_on_c, 0, 67, 0
5, 10729, Note_on_c, 0, 77, 0
5, 10732, Note_on_c, 0, 79, 0
5, 10772, Note_on_c, 0, 62, 52
5, 10772, Note_on_c, 0, 59, 50
5, 10774, Note_on_c, 0, 53, 33
5, 10778, Note_on_c, 0, 62, 0
5, 10780, Note_on_c, 0, 59, 0
5, 10781, Note_on_c, 0, 53, 0
5, 10793, Note_on_c, 0, 82, 61
5, 10795, Note_on_c, 0, 70, 73
5, 10800, Note_on_c, 0, 76, 43
5, 10817, Note_on_c, 0, 76, 0
5, 10817, Note_on_c, 0, 70, 0
5, 10820, Note_on_c, 0, 82, 0
5, 10832, Note_on_c, 0, 76, 68
5, 10832, Note_on_c, 0, 83, 66
5, 10833, Note_on_c, 0, 71, 68
5, 10838, Note_on_c, 0, 79, 29
5, 10841, Note_on_c, 0, 71, 0
5, 10841, Note_on_c, 0, 81, 25
5, 10846, Note_on_c, 0, 79, 0
5, 10849, Note_on_c, 0, 76, 0
5, 10851, Note_on_c, 0, 81, 0
5, 10855, Note_on_c, 0, 83, 0
5, 10891, Note_on_c, 0, 62, 77
5, 10891, Note_on_c, 0, 56, 59
5, 10894, Note_on_c, 0, 53, 53
5, 10895, Note_on_c, 0, 59, 48
5, 10897, Note_on_c, 0, 62, 0
5, 10901, Note_on_c, 0, 59, 0
5, 10902, Note_on_c, 0, 53, 0
5, 10903, Note_on_c, 0, 56, 0
5, 10913, Note_on_c, 0, 85, 71
5, 10915, Note_on_c, 0, 73, 58
5, 10915, Note_on_c, 0, 80, 65
5, 10940, Note_on_c, 0, 80, 0
5, 10941, Note_on_c, 0, 73, 0
5, 10942, Note_on_c, 0, 85, 0
5, 10951, Note_on_c, 0, 80, 60
5, 10954, Note_on_c, 0, 86, 64
5, 10956, Note_on_c, 0, 74, 44
5, 10957, Note_on_c, 0, 82, 35
5, 10958, Note_on_c, 0, 84, 37
5, 10961, Note_on_c, 0, 81, 54
5, 10967, Note_on_c, 0, 84, 0
5, 10967, Note_on_c, 0, 80, 0
5, 10970, Note_on_c, 0, 74, 0
5, 10972, Note_on_c, 0, 82, 0
5, 10973, Note_on_c, 0, 81, 0
5, 10974, Note_on_c, 0, 86, 0
5, 11008, Note_on_c, 0, 87, 29
5, 11013, Note_on_c, 0, 56, 43
5, 11017, Note_on_c, 0, 87, 0
5, 11021, Note_on_c, 0, 56, 0
5, 11037, Note_on_c, 0, 59, 67
5, 11037, Note_on_c, 0, 77, 67
5, 11037, Note_on_c, 0, 89, 69
5, 11037, Note_on_c, 0, 62, 70
5, 11039, Note_on_c, 0, 53, 55
5, 11039, Note_on_c, 0, 86, 57
5, 11040, Note_on_c, 0, 56, 47
5, 11041, Note_on_c, 0, 83, 43
5, 11041, Note_on_c, 0, 84, 47
5, 11045, Note_on_c, 0, 53, 0
5, 11047, Note_on_c, 0, 84, 0
5, 11049, Note_on_c, 0, 83, 0
5, 11055, Note_on_c, 0, 77, 0
5, 11056, Note_on_c, 0, 86, 0
5, 11057, Note_on_c, 0, 62, 0
5, 11058, Note_on_c, 0, 59, 0
5, 11058, Note_on_c, 0, 89, 0
5, 11062, Note_on_c, 0, 56, 0
5, 11099, Note_on_c, 0, 62, 71
5, 11100, Note_on_c, 0, 56, 47
5, 11100, Note_on_c, 0, 77, 81
5, 11101, Note_on_c, 0, 89, 78
5, 11101, Note_on_c, 0, 83, 75
5, 11101, Note_on_c, 0, 86, 82
5, 11102, Note_on_c, 0, 59, 55
5, 11102, Note_on_c, 0, 53, 49
5, 11173, Note_on_c, 0, 59, 0
5, 11178, Note_on_c, 0, 86, 0
5, 11179, Note_on_c, 0, 53, 0
5, 11179, Note_on_c, 0, 56, 0
5, 11194, Note_on_c, 0, 89, 0
5, 11205, Note_on_c, 0, 62, 0
5, 11208, Note_on_c, 0, 77, 0
5, 11210, Note_on_c, 0, 83, 0
5, 11220, Note_on_c, 0, 84, 80
5, 11220, Note_on_c, 0, 55, 65
5, 11220, Note_on_c, 0, 64, 55
5, 11221, Note_on_c, 0, 88, 68
5, 11221, Note_on_c, 0, 76, 64
5, 11222, Note_on_c, 0, 57, 58
5, 11222, Note_on_c, 0, 60, 64
5, 11260, Control_c, 0, 64, 127
5, 11289, Note_on_c, 0, 55, 0
5, 11292, Note_on_c, 0, 76, 0
5, 11298, Note_on_c, 0, 60, 0
5, 11300, Note_on_c, 0, 57, 0
5, 11302, Note_on_c, 0, 64, 0
5, 11310, Note_on_c, 0, 84, 0
5, 11320, Note_on_c, 0, 88, 0
5, 11340, Note_on_c, 0, 64, 54
5, 11341, Note_on_c, 0, 55, 56
5, 11343, Note_on_c, 0, 60, 48
5, 11370, Control_c, 0, 64, 0
5, 11407, Note_on_c, 0, 60, 0
5, 11407, Note_on_c, 0, 55, 0
5, 11409, Note_on_c, 0, 64, 0
5, 11520, Note_on_c, 0, 79, 96
5, 11523, Note_on_c, 0, 54, 48
5, 11523, Note_on_c, 0, 64, 57
5, 11525, Note_on_c, 0, 60, 60
5, 11541, Note_on_c, 0, 79, 0
5, 11551, Note_on_c, 0, 84, 62
5, 11567, Note_on_c, 0, 79, 54
5, 11570, Note_on_c, 0, 64, 0
5, 11575, Note_on_c, 0, 54, 0
5, 11577, Note_on_c, 0, 84, 0
5, 11582, Note_on_c, 0, 60, 0
5, 11585, Note_on_c, 0, 76, 62
5, 11590, Note_on_c, 0, 79, 0
5, 11602, Note_on_c, 0, 76, 0
5, 11617, Note_on_c, 0, 76, 80
5, 11623, Note_on_c, 0, 64, 50
5, 11625, Note_on_c, 0, 60, 44
5, 11626, Note_on_c, 0, 54, 28
5, 11632, Note_on_c, 0, 60, 0
5, 11636, Note_on_c, 0, 64, 0
5, 11637, Note_on_c, 0, 54, 0
5, 11643, Note_on_c, 0, 79, 55
5, 11647, Note_on_c, 0, 76, 0
5, 11669, Note_on_c, 0, 76, 50
5, 11674, Note_on_c, 0, 79, 0
5, 11689, Note_on_c, 0, 76, 0
5, 11690, Note_on_c, 0, 72, 59
5, 11700, Note_on_c, 0, 72, 0
5, 11708, Note_on_c, 0, 54, 69
5, 11709, Note_on_c, 0, 64, 66
5, 11709, Note_on_c, 0, 60, 68
5, 11710, Note_on_c, 0, 72, 83
5, 11734, Note_on_c, 0, 76, 59
5, 11735, Note_on_c, 0, 72, 0
5, 11755, Note_on_c, 0, 72, 45
5, 11756, Note_on_c, 0, 64, 0
5, 11761, Note_on_c, 0, 54, 0
5, 11764, Note_on_c, 0, 60, 0
5, 11768, Note_on_c, 0, 76, 0
5, 11776, Note_on_c, 0, 72, 0
5, 11779, Note_on_c, 0, 67, 42
5, 11788, Note_on_c, 0, 67, 0
5, 11805, Note_on_c, 0, 67, 80
5, 11806, Note_on_c, 0, 64, 64
5, 11806, Note_on_c, 0, 54, 57
5, 11807, Note_on_c, 0, 60, 67
5, 11818, Note_on_c, 0, 64, 0
5, 11820, Note_on_c, 0, 72, 58
5, 11821, Note_on_c, 0, 67, 0
5, 11830, Note_on_c, 0, 60, 0
5, 11845, Note_on_c, 0, 67, 40
5, 11849, Note_on_c, 0, 54, 0
5, 11856, Note_on_c, 0, 72, 0
5, 11861, Note_on_c, 0, 67, 0
5, 11864, Note_on_c, 0, 64, 53
5, 11874, Note_on_c, 0, 64, 0
5, 11883, Note_on_c, 0, 54, 55
5, 11885, Note_on_c, 0, 60, 63
5, 11886, Note_on_c, 0, 64, 80
5, 11895, Note_on_c, 0, 60, 0
5, 11904, Note_on_c, 0, 54, 0
5, 11911, Note_on_c, 0, 64, 0
5, 11913, Note_on_c, 0, 67, 66
5, 11929, Note_on_c, 0, 64, 46
5, 11942, Note_on_c, 0, 67, 0
5, 11945, Note_on_c, 0, 60, 46
5, 11961, Note_on_c, 0, 64, 0
5, 11962, Note_on_c, 0, 60, 0
5, 11992, Note_on_c, 0, 41, 60
5, 12001, Note_on_c, 0, 79, 60
5, 12002, Note_on_c, 0, 72, 60
5, 12002, Note_on_c, 0, 67, 72
5, 12003, Note_on_c, 0, 64, 50
5, 12004, Note_on_c, 0, 57, 50
5, 12004, Note_on_c, 0, 77, 53
5, 12006, Note_on_c, 0, 53, 26
5, 12007, Note_on_c, 0, 41, 0
5, 12007, Note_on_c, 0, 60, 32
5, 12020, Note_on_c, 0, 64, 0
5, 12021, Note_on_c, 0, 60, 0
5, 12028, Note_on_c, 0, 67, 0
5, 12028, Note_on_c, 0, 72, 0
5, 12032, Note_on_c, 0, 57, 0
5, 12033, Note_on_c, 0, 53, 0
5, 12033, Note_on_c, 0, 79, 0
5, 12039, Note_on_c, 0, 77, 0
5, 12063, Note_on_c, 0, 79, 60
5, 12064, Note_on_c, 0, 67, 63
5, 12066, Note_on_c, 0, 76, 50
5, 12066, Note_on_c, 0, 72, 35
5, 12089, Note_on_c, 0, 67, 0
5, 12092, Note_on_c, 0, 79, 0
5, 12092, Note_on_c, 0, 72, 0
5, 12099, Note_on_c, 0, 76, 0
5, 12125, Note_on_c, 0, 79, 62
5, 12126, Note_on_c, 0, 67, 59
5, 12127, Note_on_c, 0, 57, 36
5, 12128, Note_on_c, 0, 72, 46
5, 12129, Note_on_c, 0, 76, 50
5, 12153, Note_on_c, 0, 57, 0
5, 12156, Note_on_c, 0, 67, 0
5, 12158, Note_on_c, 0, 79, 0
5, 12165, Note_on_c, 0, 72, 0
5, 12169, Note_on_c, 0, 76, 0
5, 12219, Note_on_c, 0, 62, 26
5, 12219, Note_on_c, 0, 57, 41
5, 12219, Note_on_c, 0, 60, 33
5, 12224, Note_on_c, 0, 53, 17
5, 12231, Note_on_c, 0, 60, 0
5, 12231, Note_on_c, 0, 62, 0
5, 12238, Note_on_c, 0, 57, 0
5, 12239, Note_on_c, 0, 53, 0
5, 12303, Note_on_c, 0, 62, 46
5, 12305, Note_on_c, 0, 57, 43
5, 12307, Note_on_c, 0, 53, 26
5, 12311, Note_on_c, 0, 60, 30
5, 12317, Note_on_c, 0, 62, 0
5, 12323, Note_on_c, 0, 53, 0
5, 12325, Note_on_c, 0, 60, 0
5, 12326, Note_on_c, 0, 57, 0
5, 12366, Note_on_c, 0, 84, 85
5, 12367, Note_on_c, 0, 79, 81
5, 12368, Note_on_c, 0, 72, 85
5, 12369, Note_on_c, 0, 81, 65
5, 12375, Note_on_c, 0, 81, 0
5, 12379, Note_on_c, 0, 72, 0
5, 12382, Note_on_c, 0, 79, 0
5, 12385, Note_on_c, 0, 84, 0
5, 12400, Note_on_c, 0, 84, 72
5, 12402, Note_on_c, 0, 79, 62
5, 12402, Note_on_c, 0, 72, 61
5, 12404, Note_on_c, 0, 62, 49
5, 12405, Note_on_c, 0, 81, 46
5, 12406, Note_on_c, 0, 60, 50
5, 12406, Note_on_c, 0, 57, 52
5, 12411, Note_on_c, 0, 62, 0
5, 12411, Note_on_c, 0, 72, 0
5, 12412, Note_on_c, 0, 81, 0
5, 12414, Note_on_c, 0, 84, 0
5, 12415, Note_on_c, 0, 60, 0
5, 12416, Note_on_c, 0, 79, 0
5, 12422, Note_on_c, 0, 57, 0
5, 12428, Note_on_c, 0, 83, 55
5, 12429, Note_on_c, 0, 71, 58
5, 12444, Note_on_c, 0, 71, 0
5, 12447, Note_on_c, 0, 83, 0
5, 12462, Note_on_c, 0, 83, 55
5, 12468, Note_on_c, 0, 79, 44
5, 12470, Note_on_c, 0, 83, 0
5, 12475, Note_on_c, 0, 79, 0
5, 12491, Note_on_c, 0, 86, 46
5, 12491, Note_on_c, 0, 67, 53
5, 12491, Note_on_c, 0, 56, 38
5, 12494, Note_on_c, 0, 84, 34
5, 12494, Note_on_c, 0, 62, 40
5, 12496, Note_on_c, 0, 60, 35
5, 12503, Note_on_c, 0, 67, 0
5, 12503, Note_on_c, 0, 86, 0
5, 12504, Note_on_c, 0, 60, 0
5, 12505, Note_on_c, 0, 84, 0
5, 12508, Note_on_c, 0, 56, 0
5, 12509, Note_on_c, 0, 62, 0
5, 12543, Note_on_c, 0, 87, 53
5, 12544, Note_on_c, 0, 75, 62
5, 12547, Note_on_c, 0, 56, 48
5, 12547, Note_on_c, 0, 67, 59
5, 12547, Note_on_c, 0, 62, 54
5, 12548, Note_on_c, 0, 81, 54
5, 12549, Note_on_c, 0, 84, 50
5, 12550, Note_on_c, 0, 60, 43
5, 12559, Note_on_c, 0, 88, 52
5, 12561, Note_on_c, 0, 75, 0
5, 12563, Note_on_c, 0, 87, 0
5, 12563, Note_on_c, 0, 76, 58
5, 12583, Note_on_c, 0, 62, 0
5, 12584, Note_on_c, 0, 76, 0
5, 12584, Note_on_c, 0, 81, 0
5, 12585, Note_on_c, 0, 67, 0
5, 12587, Note_on_c, 0, 60, 0
5, 12589, Note_on_c, 0, 88, 0
5, 12589, Note_on_c, 0, 84, 0
5, 12594, Note_on_c, 0, 56, 0
5, 12635, Note_on_c, 0, 88, 72
5, 12636, Note_on_c, 0, 64, 46
5, 12636, Note_on_c, 0, 67, 48
5, 12637, Note_on_c, 0, 76, 67
5, 12638, Note_on_c, 0, 84, 66
5, 12639, Note_on_c, 0, 56, 33
5, 12641, Note_on_c, 0, 60, 49
5, 12659, Note_on_c, 0, 76, 0
5, 12660, Note_on_c, 0, 60, 0
5, 12661, Note_on_c, 0, 67, 0
5, 12662, Note_on_c, 0, 64, 0
5, 12664, Note_on_c, 0, 88, 0
5, 12664, Note_on_c, 0, 84, 0
5, 12664, Note_on_c, 0, 56, 0
5, 12717, Note_on_c, 0, 64, 48
5, 12718, Note_on_c, 0, 88, 75
5, 12719, Note_on_c, 0, 56, 36
5, 12720, Note_on_c, 0, 84, 68
5, 12720, Note_on_c, 0, 67, 48
5, 12721, Note_on_c, 0, 76, 60
5, 12722, Note_on_c, 0, 60, 54
5, 12780, Control_c, 0, 64, 127
5, 12790, Note_on_c, 0, 60, 0
5, 12791, Note_on_c, 0, 67, 0
5, 12796, Note_on_c, 0, 64, 0
5, 12798, Note_on_c, 0, 84, 0
5, 12798, Note_on_c, 0, 56, 0
5, 12799, Note_on_c, 0, 88, 0
5, 12806, Note_on_c, 0, 76, 0
5, 12819, Note_on_c, 0, 83, 68
5, 12819, Note_on_c, 0, 86, 71
5, 12820, Note_on_c, 0, 74, 68
5, 12820, Note_on_c, 0, 64, 54
5, 12821, Note_on_c, 0, 56, 45
5, 12821, Note_on_c, 0, 67, 63
5, 12824, Note_on_c, 0, 60, 58
5, 12848, Note_on_c, 0, 64, 0
5, 12850, Note_on_c, 0, 60, 0
5, 12853, Note_on_c, 0, 67, 0
5, 12869, Note_on_c, 0, 56, 0
5, 12872, Note_on_c, 0, 74, 0
5, 12882, Note_on_c, 0, 86, 0
5, 12884, Note_on_c, 0, 83, 0
5, 12959, Note_on_c, 0, 90, 77
5, 12960, Note_on_c, 0, 78, 79
5, 12960, Note_on_c, 0, 85, 83
5, 12961, Control_c, 0, 64, 0
5, 12961, Note_on_c, 0, 59, 61
5, 12962, Note_on_c, 0, 62, 76
5, 12963, Note_on_c, 0, 52, 67
5, 12963, Note_on_c, 0, 55, 73
5, 12977, Note_on_c, 0, 85, 0
5, 12985, Note_on_c, 0, 62, 0
5, 12985, Note_on_c, 0, 78, 0
5, 12988, Note_on_c, 0, 90, 0
5, 12989, Note_on_c, 0, 59, 0
5, 12991, Note_on_c, 0, 55, 0
5, 12997, Note_on_c, 0, 85, 30
5, 12998, Note_on_c, 0, 91, 53
5, 12998, Note_on_c, 0, 87, 42
5, 12998, Note_on_c, 0, 89, 57
5, 12998, Note_on_c, 0, 62, 69
5, 12999, Note_on_c, 0, 55, 50
5, 13000, Note_on_c, 0, 59, 46
5, 13000, Note_on_c, 0, 77, 49
5, 13001, Note_on_c, 0, 79, 37
5, 13006, Note_on_c, 0, 88, 26
5, 13008, Note_on_c, 0, 79, 0
5, 13012, Note_on_c, 0, 88, 0
5, 13013, Note_on_c, 0, 77, 0
5, 13014, Note_on_c, 0, 85, 0
5, 13014, Note_on_c, 0, 87, 0
5, 13015, Note_on_c, 0, 89, 0
5, 13015, Note_on_c, 0, 91, 0
5, 13024, Note_on_c, 0, 85, 53
5, 13026, Note_on_c, 0, 91, 28
5, 13026, Note_on_c, 0, 87, 31
5, 13026, Note_on_c, 0, 89, 33
5, 13031, Note_on_c, 0, 77, 20
5, 13031, Note_on_c, 0, 88, 47
5, 13037, Note_on_c, 0, 88, 0
5, 13043, Note_on_c, 0, 77, 0
5, 13046, Note_on_c, 0, 89, 0
5, 13049, Note_on_c, 0, 91, 0
5, 13052, Note_on_c, 0, 85, 0
5, 13052, Note_on_c, 0, 87, 0
5, 13054, Note_on_c, 0, 52, 0
5, 13059, Note_on_c, 0, 62, 0
5, 13061, Note_on_c, 0, 59, 0
5, 13062, Note_on_c, 0, 55, 0
5, 13082, Note_on_c, 0, 62, 65
5, 13083, Note_on_c, 0, 55, 57
5, 13083, Note_on_c, 0, 59, 50
5, 13083, Note_on_c, 0, 91, 69
5, 13083, Note_on_c, 0, 52, 51
5, 13085, Note_on_c, 0, 79, 60
5, 13085, Note_on_c, 0, 86, 74
5, 13106, Note_on_c, 0, 86, 0
5, 13107, Note_on_c, 0, 62, 0
5, 13107, Note_on_c, 0, 91, 0
5, 13109, Note_on_c, 0, 79, 0
5, 13110, Note_on_c, 0, 52, 0
5, 13111, Note_on_c, 0, 59, 0
5, 13113, Note_on_c, 0, 55, 0
5, 13170, Note_on_c, 0, 72, 47
5, 13170, Note_on_c, 0, 84, 60
5, 13171, Note_on_c, 0, 79, 45
5, 13172, Note_on_c, 0, 59, 47
5, 13172, Note_on_c, 0, 62, 56
5, 13173, Note_on_c, 0, 55, 46
5, 13174, Note_on_c, 0, 52, 39
5, 13184, Note_on_c, 0, 72, 0
5, 13185, Note_on_c, 0, 84, 0
5, 13186, Note_on_c, 0, 79, 0
5, 13200, Note_on_c, 0, 72, 35
5, 13201, Note_on_c, 0, 84, 39
5, 13202, Note_on_c, 0, 55, 0
5, 13202, Note_on_c, 0, 79, 37
5, 13214, Note_on_c, 0, 52, 0
5, 13215, Note_on_c, 0, 59, 0
5, 13215, Note_on_c, 0, 72, 0
5, 13216, Note_on_c, 0, 79, 0
5, 13218, Note_on_c, 0, 62, 0
5, 13219, Note_on_c, 0, 84, 0
5, 13262, Note_on_c, 0, 62, 51
5, 13263, Note_on_c, 0, 84, 60
5, 13264, Note_on_c, 0, 72, 49
5, 13264, Note_on_c, 0, 59, 51
5, 13264, Note_on_c, 0, 79, 53
5, 13265, Note_on_c, 0, 52, 30
5, 13266, Note_on_c, 0, 55, 57
5, 13273, Note_on_c, 0, 79, 0
5, 13274, Note_on_c, 0, 72, 0
5, 13276, Note_on_c, 0, 84, 0
5, 13307, Note_on_c, 0, 55, 0
5, 13309, Note_on_c, 0, 62, 0
5, 13310, Note_on_c, 0, 59, 0
5, 13315, Note_on_c, 0, 52, 0
5, 13355, Note_on_c, 0, 59, 47
5, 13356, Note_on_c, 0, 62, 51
5, 13358, Note_on_c, 0, 52, 24
5, 13360, Note_on_c, 0, 55, 35
5, 13373, Note_on_c, 0, 52, 0
5, 13374, Note_on_c, 0, 55, 0
5, 13379, Note_on_c, 0, 59, 0
5, 13391, Note_on_c, 0, 62, 0
5, 13439, Note_on_c, 0, 64, 37
5, 13439, Note_on_c, 0, 53, 34
5, 13441, Note_on_c, 0, 60, 50
5, 13443, Note_on_c, 0, 57, 44
5, 13482, Note_on_c, 0, 64, 0
5, 13493, Note_on_c, 0, 60, 0
5, 13499, Note_on_c, 0, 57, 0
5, 13501, Note_on_c, 0, 53, 0
5, 13502, Note_on_c, 0, 79, 80
5, 13502, Note_on_c, 0, 84, 82
5, 13503, Note_on_c, 0, 81, 75
5, 13503, Note_on_c, 0, 76, 85
5, 13514, Note_on_c, 0, 76, 0
5, 13514, Note_on_c, 0, 79, 0
5, 13519, Note_on_c, 0, 81, 0
5, 13519, Note_on_c, 0, 84, 0
5, 13536, Note_on_c, 0, 84, 58
5, 13537, Note_on_c, 0, 76, 54
5, 13537, Note_on_c, 0, 79, 53
5, 13539, Note_on_c, 0, 81, 49
5, 13546, Note_on_c, 0, 76, 0
5, 13547, Note_on_c, 0, 79, 0
5, 13548, Note_on_c, 0, 81, 0
5, 13549, Note_on_c, 0, 84, 0
5, 13560, Note_on_c, 0, 64, 32
5, 13561, Note_on_c, 0, 86, 81
5, 13562, Note_on_c, 0, 77, 66
5, 13563, Note_on_c, 0, 81, 67
5, 13563, Note_on_c, 0, 83, 62
5, 13564, Note_on_c, 0, 60, 39
5, 13565, Note_on_c, 0, 53, 24
5, 13567, Note_on_c, 0, 57, 22
5, 13582, Note_on_c, 0, 64, 0
5, 13585, Note_on_c, 0, 60, 0
5, 13587, Note_on_c, 0, 57, 0
5, 13589, Note_on_c, 0, 53, 0
5, 13591, Note_on_c, 0, 81, 0
5, 13591, Note_on_c, 0, 83, 0
5, 13592, Note_on_c, 0, 77, 0
5, 13594, Note_on_c, 0, 86, 0
5, 13657, Note_on_c, 0, 76, 76
5, 13658, Note_on_c, 0, 79, 68
5, 13658, Note_on_c, 0, 84, 75
5, 13659, Note_on_c, 0, 64, 57
5, 13659, Note_on_c, 0, 81, 56
5, 13661, Note_on_c, 0, 53, 37
5, 13662, Note_on_c, 0, 60, 48
5, 13663, Note_on_c, 0, 57, 43
5, 13677, Note_on_c, 0, 64, 0
5, 13677, Note_on_c, 0, 84, 0
5, 13679, Note_on_c, 0, 81, 0
5, 13681, Note_on_c, 0, 79, 0
5, 13684, Note_on_c, 0, 76, 0
5, 13699, Note_on_c, 0, 60, 0
5, 13699, Note_on_c, 0, 83, 69
5, 13700, Note_on_c, 0, 53, 0
5, 13701, Note_on_c, 0, 74, 63
5, 13701, Note_on_c, 0, 77, 57
5, 13703, Note_on_c, 0, 79, 52
5, 13706, Note_on_c, 0, 57, 0
5, 13721, Note_on_c, 0, 74, 0
5, 13723, Note_on_c, 0, 79, 0
5, 13724, Note_on_c, 0, 83, 0
5, 13727, Note_on_c, 0, 77, 0
5, 13777, Note_on_c, 0, 72, 74
5, 13777, Note_on_c, 0, 81, 71
5, 13777, Note_on_c, 0, 76, 70
5, 13778, Note_on_c, 0, 77, 57
5, 13798, Note_on_c, 0, 77, 0
5, 13801, Note_on_c, 0, 76, 0
5, 13801, Note_on_c, 0, 81, 0
5, 13802, Note_on_c, 0, 72, 0
5, 13835, Note_on_c, 0, 59, 36
5, 13842, Note_on_c, 0, 59, 0
5, 13863, Note_on_c, 0, 59, 54
5, 13864, Note_on_c, 0, 73, 69
5, 13864, Note_on_c, 0, 52, 56
5, 13864, Note_on_c, 0, 62, 64
5, 13865, Note_on_c, 0, 55, 59
5, 13866, Note_on_c, 0, 75, 63
5, 13867, Note_on_c, 0, 79, 60
5, 13867, Note_on_c, 0, 71, 75
5, 13884, Note_on_c, 0, 62, 0
5, 13887, Note_on_c, 0, 73, 0
5, 13888, Note_on_c, 0, 74, 78
5, 13905, Note_on_c, 0, 74, 0
5, 13905, Note_on_c, 0, 52, 0
5, 13909, Note_on_c, 0, 59, 0
5, 13913, Note_on_c, 0, 55, 0
5, 13913, Note_on_c, 0, 71, 0
5, 13914, Note_on_c, 0, 75, 0
5, 13915, Note_on_c, 0, 79, 0
5, 13956, Note_on_c, 0, 71, 76
5, 13957, Note_on_c, 0, 79, 59
5, 13957, Note_on_c, 0, 75, 54
5, 13959, Note_on_c, 0, 74, 63
5, 13964, Note_on_c, 0, 62, 34
5, 13972, Note_on_c, 0, 55, 24
5, 13973, Note_on_c, 0, 62, 0
5, 13979, Note_on_c, 0, 55, 0
5, 13979, Note_on_c, 0, 76, 47
5, 13985, Note_on_c, 0, 75, 0
5, 13998, Note_on_c, 0, 71, 0
5, 14002, Note_on_c, 0, 74, 0
5, 14003, Note_on_c, 0, 76, 0
5, 14004, Note_on_c, 0, 79, 0
5, 14040, Note_on_c, 0, 79, 58
5, 14040, Note_on_c, 0, 71, 66
5, 14041, Note_on_c, 0, 75, 48
5, 14042, Note_on_c, 0, 62, 48
5, 14043, Note_on_c, 0, 55, 37
5, 14044, Note_on_c, 0, 59, 36
5, 14049, Note_on_c, 0, 74, 24
5, 14061, Note_on_c, 0, 62, 0
5, 14062, Note_on_c, 0, 75, 0
5, 14063, Note_on_c, 0, 76, 49
5, 14066, Note_on_c, 0, 59, 0
5, 14067, Note_on_c, 0, 55, 0
5, 14069, Note_on_c, 0, 71, 0
5, 14072, Note_on_c, 0, 74, 0
5, 14076, Note_on_c, 0, 79, 0
5, 14078, Note_on_c, 0, 76, 0
5, 14103, Note_on_c, 0, 82, 21
5, 14114, Note_on_c, 0, 82, 0
5, 14128, Note_on_c, 0, 84, 78
5, 14129, Note_on_c, 0, 81, 74
5, 14129, Note_on_c, 0, 72, 76
5, 14129, Note_on_c, 0, 77, 75
5, 14130, Note_on_c, 0, 61, 47
5, 14131, Note_on_c, 0, 60, 56
5, 14131, Note_on_c, 0, 65, 66
5, 14131, Note_on_c, 0, 55, 67
5, 14167, Note_on_c, 0, 72, 0
5, 14169, Note_on_c, 0, 77, 0
5, 14169, Note_on_c, 0, 60, 0
5, 14170, Note_on_c, 0, 84, 0
5, 14170, Note_on_c, 0, 65, 0
5, 14171, Note_on_c, 0, 55, 0
5, 14172, Note_on_c, 0, 61, 0
5, 14172, Note_on_c, 0, 81, 0
5, 14221, Note_on_c, 0, 60, 67
5, 14221, Note_on_c, 0, 65, 71
5, 14222, Note_on_c, 0, 61, 39
5, 14222, Note_on_c, 0, 55, 53
5, 14223, Note_on_c, 0, 84, 80
5, 14223, Note_on_c, 0, 72, 80
5, 14223, Note_on_c, 0, 81, 67
5, 14223, Note_on_c, 0, 77, 71
5, 14253, Control_c, 0, 64, 127
5, 14281, Note_on_c, 0, 65, 0
5, 14284, Note_on_c, 0, 55, 0
5, 14286, Note_on_c, 0, 72, 0
5, 14287, Note_on_c, 0, 60, 0
5, 14287, Note_on_c, 0, 61, 0
5, 14289, Note_on_c, 0, 77, 0
5, 14293, Note_on_c, 0, 84, 0
5, 14296, Note_on_c, 0, 81, 0
5, 14318, Note_on_c, 0, 61, 62
5, 14318, Note_on_c, 0, 84, 74
5, 14318, Note_on_c, 0, 60, 64
5, 14320, Note_on_c, 0, 81, 65
5, 14320, Note_on_c, 0, 77, 69
5, 14320, Note_on_c, 0, 72, 67
5, 14320, Note_on_c, 0, 55, 60
5, 14321, Note_on_c, 0, 65, 65
5, 14344, Note_on_c, 0, 81, 0
5, 14345, Note_on_c, 0, 84, 0
5, 14346, Note_on_c, 0, 77, 0
5, 14347, Note_on_c, 0, 60, 0
5, 14350, Note_on_c, 0, 65, 0
5, 14352, Note_on_c, 0, 72, 0
5, 14357, Note_on_c, 0, 55, 0
5, 14366, Note_on_c, 0, 61, 0
5, 14398, Control_c, 0, 64, 0
5, 14404, Note_on_c, 0, 67, 69
5, 14404, Note_on_c, 0, 79, 55
5, 14404, Note_on_c, 0, 53, 47
5, 14406, Note_on_c, 0, 76, 49
5, 14406, Note_on_c, 0, 64, 48
5, 14406, Note_on_c, 0, 72, 46
5, 14406, Note_on_c, 0, 57, 53
5, 14407, Note_on_c, 0, 60, 56
5, 14417, Note_on_c, 0, 72, 0
5, 14417, Note_on_c, 0, 67, 0
5, 14418, Note_on_c, 0, 60, 0
5, 14420, Note_on_c, 0, 64, 0
5, 14421, Note_on_c, 0, 79, 0
5, 14425, Note_on_c, 0, 76, 0
5, 14427, Note_on_c, 0, 57, 0
5, 14427, Note_on_c, 0, 53, 0
5, 14462, Note_on_c, 0, 53, 38
5, 14463, Note_on_c, 0, 64, 58
5, 14464, Note_on_c, 0, 67, 71
5, 14464, Note_on_c, 0, 79, 58
5, 14464, Note_on_c, 0, 72, 53
5, 14465, Note_on_c, 0, 57, 51
5, 14465, Note_on_c, 0, 76, 57
5, 14465, Note_on_c, 0, 60, 55
5, 14466, Note_on_c, 0, 75, 33
5, 14472, Note_on_c, 0, 60, 0
5, 14476, Note_on_c, 0, 72, 0
5, 14476, Note_on_c, 0, 67, 0
5, 14478, Note_on_c, 0, 64, 0
5, 14479, Note_on_c, 0, 75, 0
5, 14480, Note_on_c, 0, 79, 0
5, 14482, Note_on_c, 0, 76, 0
5, 14489, Note_on_c, 0, 53, 0
5, 14489, Note_on_c, 0, 57, 0
5, 14520, Note_on_c, 0, 53, 60
5, 14521, Control_c, 0, 64, 127
5, 14523, Note_on_c, 0, 64, 62
5, 14523, Note_on_c, 0, 60, 62
5, 14523, Note_on_c, 0, 76, 70
5, 14524, Note_on_c, 0, 79, 62
5, 14524, Note_on_c, 0, 72, 71
5, 14524, Note_on_c, 0, 67, 79
5, 14525, Note_on_c, 0, 57, 51
5, 14535, Note_on_c, 0, 67, 0
5, 14536, Note_on_c, 0, 72, 0
5, 14537, Note_on_c, 0, 64, 0
5, 14539, Note_on_c, 0, 79, 0
5, 14541, Note_on_c, 0, 60, 0
5, 14542, Note_on_c, 0, 76, 0
5, 14544, Note_on_c, 0, 53, 0
5, 14545, Note_on_c, 0, 57, 0
5, 14547, Control_c, 0, 64, 0
5, 14581, Control_c, 0, 64, 127
5, 14583, Note_on_c, 0, 67, 76
5, 14584, Note_on_c, 0, 60, 57
5, 14584, Note_on_c, 0, 79, 65
5, 14584, Note_on_c, 0, 64, 56
5, 14585, Note_on_c, 0, 72, 44
5, 14586, Note_on_c, 0, 53, 37
5, 14586, Note_on_c, 0, 76, 35
5, 14588, Note_on_c, 0, 57, 34
5, 14589, Note_on_c, 0, 67, 0
5, 14592, Note_on_c, 0, 64, 0
5, 14593, Note_on_c, 0, 72, 0
5, 14594, Note_on_c, 0, 60, 0
5, 14594, Note_on_c, 0, 76, 0
5, 14597, Note_on_c, 0, 53, 0
5, 14597, Note_on_c, 0, 79, 0
5, 14598, Note_on_c, 0, 57, 0
5, 14641, Control_c, 0, 64, 0
5, 14643, Note_on_c, 0, 76, 88
5, 14644, Note_on_c, 0, 83, 83
5, 14644, Note_on_c, 0, 59, 75
5, 14644, Note_on_c, 0, 64, 76
5, 14645, Note_on_c, 0, 88, 82
5, 14646, Note_on_c, 0, 53, 66
5, 14649, Note_on_c, 0, 86, 33
5, 14650, Note_on_c, 0, 83, 0
5, 14651, Note_on_c, 0, 64, 0
5, 14652, Note_on_c, 0, 76, 0
5, 14652, Note_on_c, 0, 88, 0
5, 14652, Note_on_c, 0, 53, 0
5, 14655, Note_on_c, 0, 86, 0
5, 14655, Note_on_c, 0, 59, 0
5, 14706, Note_on_c, 0, 76, 88
5, 14706, Note_on_c, 0, 59, 77
5, 14706, Note_on_c, 0, 56, 57
5, 14707, Note_on_c, 0, 64, 78
5, 14707, Note_on_c, 0, 88, 87
5, 14707, Note_on_c, 0, 83, 84
5, 14707, Note_on_c, 0, 53, 71
5, 14721, Control_c, 0, 64, 127
5, 14773, Note_on_c, 0, 64, 0
5, 14773, Note_on_c, 0, 59, 0
5, 14774, Note_on_c, 0, 53, 0
5, 14775, Note_on_c, 0, 56, 0
5, 14775, Note_on_c, 0, 76, 0
5, 14776, Note_on_c, 0, 88, 0
5, 14777, Note_on_c, 0, 83, 0
5, 14799, Note_on_c, 0, 88, 72
5, 14800, Note_on_c, 0, 83, 74
5, 14801, Note_on_c, 0, 64, 68
5, 14801, Note_on_c, 0, 53, 65
5, 14801, Note_on_c, 0, 56, 46
5, 14801, Note_on_c, 0, 76, 58
5, 14802, Note_on_c, 0, 59, 57
5, 14822, Note_on_c, 0, 88, 0
5, 14823, Note_on_c, 0, 83, 0
5, 14830, Note_on_c, 0, 64, 0
5, 14830, Note_on_c, 0, 76, 0
5, 14832, Note_on_c, 0, 53, 0
5, 14839, Note_on_c, 0, 56, 0
5, 14853, Note_on_c, 0, 59, 0
5, 14881, Note_on_c, 0, 79, 60
5, 14881, Note_on_c, 0, 62, 58
5, 14881, Note_on_c, 0, 59, 50
5, 14881, Note_on_c, 0, 72, 58
5, 14882, Note_on_c, 0, 84, 60
5, 14882, Control_c, 0, 64, 0
5, 14883, Note_on_c, 0, 52, 46
5, 14883, Note_on_c, 0, 55, 57
5, 14921, Control_c, 0, 64, 127
5, 14931, Note_on_c, 0, 84, 0
5, 14932, Note_on_c, 0, 79, 0
5, 14942, Note_on_c, 0, 72, 0
5, 14953, Note_on_c, 0, 52, 0
5, 14956, Note_on_c, 0, 62, 0
5, 14958, Note_on_c, 0, 55, 0
5, 14958, Note_on_c, 0, 59, 0
5, 15060, Note_on_c, 0, 79, 64
5, 15061, Note_on_c, 0, 67, 68
5, 15062, Note_on_c, 0, 74, 64
5, 15062, Note_on_c, 0, 62, 54
5, 15063, Note_on_c, 0, 59, 47
5, 15064, Note_on_c, 0, 55, 55
5, 15065, Note_on_c, 0, 52, 33
5, 15066, Control_c, 0, 64, 0
5, 15158, Note_on_c, 0, 52, 0
5, 15159, Note_on_c, 0, 62, 0
5, 15161, Note_on_c, 0, 59, 0
5, 15164, Note_on_c, 0, 55, 0
5, 15171, Note_on_c, 0, 67, 0
5, 15178, Note_on_c, 0, 74, 0
5, 15180, Note_on_c, 0, 62, 53
5, 15182, Note_on_c, 0, 59, 48
5, 15182, Note_on_c, 0, 55, 49
5, 15182, Note_on_c, 0, 52, 41
5, 15183, Note_on_c, 0, 79, 0
5, 15243, Note_on_c, 0, 92, 87
5, 15273, Note_on_c, 0, 92, 0
5, 15275, Note_on_c, 0, 52, 0
5, 15279, Note_on_c, 0, 96, 72
5, 15282, Note_on_c, 0, 55, 0
5, 15291, Note_on_c, 0, 59, 0
5, 15296, Note_on_c, 0, 62, 0
5, 15299, Note_on_c, 0, 96, 0
5, 15307, Note_on_c, 0, 92, 58
5, 15351, Note_on_c, 0, 92, 0
5, 15359, Note_on_c, 0, 54, 32
5, 15362, Note_on_c, 0, 61, 34
5, 15363, Note_on_c, 0, 58, 50
5, 15368, Note_on_c, 0, 65, 19
5, 15395, Note_on_c, 0, 65, 0
5, 15418, Note_on_c, 0, 58, 0
5, 15419, Note_on_c, 0, 61, 0
5, 15433, Note_on_c, 0, 54, 0
5, 15458, Note_on_c, 0, 94, 83
5, 15459, Note_on_c, 0, 54, 31
5, 15460, Note_on_c, 0, 64, 48
5, 15460, Note_on_c, 0, 61, 38
5, 15461, Note_on_c, 0, 58, 52
5, 15470, Note_on_c, 0, 64, 0
5, 15480, Note_on_c, 0, 61, 0
5, 15484, Note_on_c, 0, 54, 0
5, 15487, Note_on_c, 0, 94, 0
5, 15489, Note_on_c, 0, 58, 0
5, 15503, Note_on_c, 0, 96, 43
5, 15510, Note_on_c, 0, 94, 48
5, 15518, Note_on_c, 0, 96, 0
5, 15527, Note_on_c, 0, 93, 57
5, 15528, Note_on_c, 0, 94, 0
5, 15557, Note_on_c, 0, 93, 0
5, 15567, Note_on_c, 0, 91, 72
5, 15572, Note_on_c, 0, 54, 39
5, 15574, Note_on_c, 0, 61, 49
5, 15574, Note_on_c, 0, 64, 51
5, 15577, Note_on_c, 0, 58, 40
5, 15582, Note_on_c, 0, 64, 0
5, 15588, Note_on_c, 0, 91, 0
5, 15593, Note_on_c, 0, 54, 0
5, 15594, Note_on_c, 0, 61, 0
5, 15595, Note_on_c, 0, 58, 0
5, 15604, Note_on_c, 0, 90, 52
5, 15631, Note_on_c, 0, 90, 0
5, 15636, Note_on_c, 0, 88, 76
5, 15649, Note_on_c, 0, 88, 0
5, 15663, Note_on_c, 0, 87, 52
5, 15694, Note_on_c, 0, 85, 76
5, 15704, Note_on_c, 0, 87, 0
5, 15719, Note_on_c, 0, 85, 0
5, 15725, Note_on_c, 0, 84, 48
5, 15741, Note_on_c, 0, 84, 0
5, 15755, Note_on_c, 0, 82, 51
5, 15756, Note_on_c, 0, 54, 50
5, 15758, Note_on_c, 0, 64, 46
5, 15759, Note_on_c, 0, 61, 37
5, 15767, Note_on_c, 0, 58, 19
5, 15783, Note_on_c, 0, 82, 0
5, 15785, Note_on_c, 0, 80, 29
5, 15815, Note_on_c, 0, 80, 0
5, 15817, Note_on_c, 0, 64, 0
5, 15824, Note_on_c, 0, 54, 0
5, 15826, Note_on_c, 0, 79, 33
5, 15827, Note_on_c, 0, 61, 0
5, 15833, Note_on_c, 0, 79, 0
5, 15834, Note_on_c, 0, 58, 0
5, 15848, Note_on_c, 0, 81, 53
5, 15896, Note_on_c, 0, 81, 0
5, 15902, Note_on_c, 0, 77, 67
5, 15904, Note_on_c, 0, 65, 36
5, 15906, Note_on_c, 0, 57, 35
5, 15906, Note_on_c, 0, 62, 44
5, 15914, Note_on_c, 0, 65, 0
5, 15917, Note_on_c, 0, 57, 0
5, 15921, Note_on_c, 0, 62, 0
5, 15923, Note_on_c, 0, 77, 0
5, 15964, Note_on_c, 0, 77, 62
5, 15988, Note_on_c, 0, 77, 0
5, 16023, Note_on_c, 0, 65, 35
5, 16023, Note_on_c, 0, 62, 44
5, 16025, Note_on_c, 0, 57, 29
5, 16032, Note_on_c, 0, 65, 0
5, 16033, Note_on_c, 0, 57, 0
5, 16037, Note_on_c, 0, 62, 0
5, 16119, Note_on_c, 0, 81, 84
5, 16121, Note_on_c, 0, 65, 53
5, 16123, Note_on_c, 0, 62, 57
5, 16123, Note_on_c, 0, 57, 50
5, 16129, Note_on_c, 0, 65, 0
5, 16132, Note_on_c, 0, 57, 0
5, 16137, Note_on_c, 0, 62, 0
5, 16149, Note_on_c, 0, 80, 50
5, 16158, Note_on_c, 0, 81, 0
5, 16172, Note_on_c, 0, 80, 0
5, 16174, Note_on_c, 0, 79, 43
5, 16183, Note_on_c, 0, 79, 0
5, 16183, Note_on_c, 0, 78, 58
5, 16200, Note_on_c, 0, 78, 0
5, 16202, Note_on_c, 0, 77, 62
5, 16211, Note_on_c, 0, 62, 28
5, 16220, Note_on_c, 0, 77, 0
5, 16221, Note_on_c, 0, 62, 0
5, 16240, Note_on_c, 0, 81, 88
5, 16268, Note_on_c, 0, 80, 36
5, 16272, Note_on_c, 0, 81, 0
5, 16283, Note_on_c, 0, 80, 0
5, 16285, Note_on_c, 0, 79, 44
5, 16295, Note_on_c, 0, 79, 0
5, 16300, Note_on_c, 0, 78, 47
5, 16310, Note_on_c, 0, 78, 0
5, 16313, Note_on_c, 0, 77, 49
5, 16321, Note_on_c, 0, 77, 0
5, 16327, Note_on_c, 0, 62, 44
5, 16328, Note_on_c, 0, 65, 54
5, 16329, Note_on_c, 0, 56, 47
5, 16329, Note_on_c, 0, 81, 82
5, 16345, Note_on_c, 0, 65, 0
5, 16352, Note_on_c, 0, 56, 0
5, 16358, Note_on_c, 0, 80, 46
5, 16363, Note_on_c, 0, 62, 0
5, 16366, Note_on_c, 0, 81, 0
5, 16376, Note_on_c, 0, 80, 0
5, 16378, Note_on_c, 0, 79, 46
5, 16385, Note_on_c, 0, 79, 0
5, 16386, Note_on_c, 0, 78, 44
5, 16397, Note_on_c, 0, 78, 0
5, 16398, Note_on_c, 0, 77, 46
5, 16419, Note_on_c, 0, 77, 0
5, 16479, Note_on_c, 0, 65, 55
5, 16479, Note_on_c, 0, 62, 58
5, 16480, Note_on_c, 0, 56, 38
5, 16489, Note_on_c, 0, 65, 0
5, 16494, Note_on_c, 0, 56, 0
5, 16494, Note_on_c, 0, 62, 0
5, 16556, Note_on_c, 0, 65, 60
5, 16557, Note_on_c, 0, 56, 46
5, 16557, Note_on_c, 0, 62, 57
5, 16568, Note_on_c, 0, 65, 0
5, 16576, Note_on_c, 0, 56, 0
5, 16603, Note_on_c, 0, 62, 0
5, 16625, Note_on_c, 0, 89, 74
5, 16637, Note_on_c, 0, 89, 0
5, 16645, Note_on_c, 0, 92, 48
5, 16658, Note_on_c, 0, 89, 59
5, 16670, Note_on_c, 0, 92, 0
5, 16673, Note_on_c, 0, 62, 45
5, 16673, Note_on_c, 0, 65, 36
5, 16675, Note_on_c, 0, 56, 33
5, 16678, Note_on_c, 0, 86, 58
5, 16681, Note_on_c, 0, 89, 0
5, 16684, Note_on_c, 0, 65, 0
5, 16699, Note_on_c, 0, 86, 0
5, 16701, Note_on_c, 0, 62, 0
5, 16717, Note_on_c, 0, 56, 0
5, 16717, Note_on_c, 0, 85, 72
5, 16736, Note_on_c, 0, 85, 0
5, 16749, Note_on_c, 0, 84, 47
5, 16777, Note_on_c, 0, 84, 0
5, 16778, Note_on_c, 0, 83, 68
5, 16784, Note_on_c, 0, 64, 41
5, 16788, Note_on_c, 0, 60, 36
5, 16789, Note_on_c, 0, 57, 30
5, 16798, Note_on_c, 0, 64, 0
5, 16798, Note_on_c, 0, 83, 0
5, 16799, Note_on_c, 0, 60, 0
5, 16804, Note_on_c, 0, 57, 0
5, 16812, Note_on_c, 0, 80, 43
5, 16842, Note_on_c, 0, 80, 0
5, 16856, Note_on_c, 0, 83, 73
5, 16885, Note_on_c, 0, 83, 0
5, 16899, Note_on_c, 0, 80, 31
5, 16907, Note_on_c, 0, 80, 0
5, 16915, Note_on_c, 0, 64, 35
5, 16919, Note_on_c, 0, 60, 40
5, 16920, Note_on_c, 0, 57, 36
5, 16920, Note_on_c, 0, 81, 66
5, 16949, Note_on_c, 0, 81, 0
5, 16955, Note_on_c, 0, 64, 0
5, 16956, Note_on_c, 0, 76, 53
5, 16962, Note_on_c, 0, 60, 0
5, 16974, Note_on_c, 0, 76, 0
5, 16982, Note_on_c, 0, 57, 0
5, 16988, Note_on_c, 0, 74, 32
5, 17001, Note_on_c, 0, 74, 0
5, 17026, Note_on_c, 0, 72, 30
5, 17030, Note_on_c, 0, 64, 27
5, 17031, Note_on_c, 0, 60, 29
5, 17035, Note_on_c, 0, 57, 22
5, 17036, Note_on_c, 0, 72, 0
5, 17063, Note_on_c, 0, 74, 84
5, 17064, Note_on_c, 0, 64, 0
5, 17079, Note_on_c, 0, 74, 0
5, 17086, Note_on_c, 0, 75, 50
5, 17094, Note_on_c, 0, 60, 0
5, 17099, Note_on_c, 0, 74, 45
5, 17103, Note_on_c, 0, 75, 0
5, 17104, Note_on_c, 0, 57, 0
5, 17116, Note_on_c, 0, 72, 44
5, 17120, Note_on_c, 0, 74, 0
5, 17136, Note_on_c, 0, 72, 0
5, 17142, Note_on_c, 0, 71, 64
5, 17156, Note_on_c, 0, 71, 0
5, 17165, Note_on_c, 0, 74, 71
5, 17166, Note_on_c, 0, 60, 36
5, 17166, Note_on_c, 0, 64, 18
5, 17167, Note_on_c, 0, 57, 44
5, 17183, Note_on_c, 0, 64, 0
5, 17183, Note_on_c, 0, 60, 0
5, 17189, Note_on_c, 0, 74, 0
5, 17196, Note_on_c, 0, 71, 54
5, 17206, Note_on_c, 0, 71, 0
5, 17218, Note_on_c, 0, 57, 0
5, 17220, Note_on_c, 0, 72, 78
5, 17251, Note_on_c, 0, 72, 0
5, 17258, Note_on_c, 0, 69, 65
5, 17266, Note_on_c, 0, 60, 28
5, 17270, Note_on_c, 0, 57, 30
5, 17270, Note_on_c, 0, 53, 32
5, 17273, Note_on_c, 0, 69, 0
5, 17283, Note_on_c, 0, 64, 38
5, 17286, Note_on_c, 0, 53, 0
5, 17290, Note_on_c, 0, 60, 0
5, 17313, Note_on_c, 0, 57, 0
5, 17322, Note_on_c, 0, 64, 0
5, 17338, Note_on_c, 0, 64, 54
5, 17350, Note_on_c, 0, 64, 0
5, 17401, Note_on_c, 0, 64, 35
5, 17401, Note_on_c, 0, 60, 47
5, 17401, Note_on_c, 0, 57, 49
5, 17403, Note_on_c, 0, 53, 17
5, 17419, Note_on_c, 0, 64, 0
5, 17420, Note_on_c, 0, 53, 0
5, 17422, Note_on_c, 0, 60, 0
5, 17425, Note_on_c, 0, 57, 0
5, 17492, Note_on_c, 0, 62, 44
5, 17494, Note_on_c, 0, 60, 35
5, 17496, Note_on_c, 0, 57, 29
5, 17499, Note_on_c, 0, 53, 18
5, 17505, Note_on_c, 0, 62, 0
5, 17507, Note_on_c, 0, 60, 0
5, 17510, Note_on_c, 0, 53, 0
5, 17511, Note_on_c, 0, 57, 0
5, 17579, Note_on_c, 0, 62, 60
5, 17584, Note_on_c, 0, 57, 53
5, 17585, Note_on_c, 0, 60, 45
5, 17587, Note_on_c, 0, 62, 0
5, 17592, Note_on_c, 0, 60, 0
5, 17599, Note_on_c, 0, 57, 0
5, 17678, Note_on_c, 0, 57, 42
5, 17678, Note_on_c, 0, 60, 41
5, 17685, Note_on_c, 0, 60, 0
5, 17685, Note_on_c, 0, 53, 24
5, 17687, Note_on_c, 0, 57, 0
5, 17693, Note_on_c, 0, 53, 0
5, 17734, Note_on_c, 0, 57, 55
5, 17735, Note_on_c, 0, 60, 47
5, 17738, Note_on_c, 0, 53, 35
5, 17742, Note_on_c, 0, 60, 0
5, 17747, Note_on_c, 0, 57, 0
5, 17756, Note_on_c, 0, 86, 80
5, 17756, Note_on_c, 0, 80, 70
5, 17757, Note_on_c, 0, 53, 0
5, 17758, Note_on_c, 0, 77, 49
5, 17766, Note_on_c, 0, 77, 0
5, 17778, Note_on_c, 0, 80, 0
5, 17781, Note_on_c, 0, 81, 38
5, 17792, Note_on_c, 0, 86, 0
5, 17795, Note_on_c, 0, 57, 31
5, 17796, Note_on_c, 0, 81, 0
5, 17800, Note_on_c, 0, 53, 15
5, 17807, Note_on_c, 0, 57, 0
5, 17815, Note_on_c, 0, 86, 81
5, 17816, Note_on_c, 0, 80, 70
5, 17817, Note_on_c, 0, 53, 0
5, 17841, Note_on_c, 0, 80, 0
5, 17842, Note_on_c, 0, 81, 32
5, 17852, Note_on_c, 0, 60, 40
5, 17857, Note_on_c, 0, 57, 31
5, 17859, Note_on_c, 0, 60, 0
5, 17859, Note_on_c, 0, 86, 0
5, 17859, Note_on_c, 0, 53, 24
5, 17863, Note_on_c, 0, 81, 0
5, 17872, Note_on_c, 0, 74, 58
5, 17874, Note_on_c, 0, 57, 0
5, 17878, Note_on_c, 0, 53, 0
5, 17897, Note_on_c, 0, 74, 0
5, 17935, Note_on_c, 0, 74, 65
5, 17947, Note_on_c, 0, 74, 0
5, 18037, Note_on_c, 0, 57, 58
5, 18038, Note_on_c, 0, 48, 54
5, 18050, Note_on_c, 0, 57, 0
5, 18054, Note_on_c, 0, 48, 0
5, 18117, Note_on_c, 0, 48, 50
5, 18118, Note_on_c, 0, 57, 51
5, 18126, Note_on_c, 0, 57, 0
5, 18140, Note_on_c, 0, 48, 0
5, 18213, Note_on_c, 0, 79, 66
5, 18216, Note_on_c, 0, 55, 62
5, 18220, Note_on_c, 0, 47, 31
5, 18222, Note_on_c, 0, 55, 0
5, 18228, Note_on_c, 0, 47, 0
5, 18228, Note_on_c, 0, 79, 0
5, 18235, Note_on_c, 0, 82, 61
5, 18235, Note_on_c, 0, 85, 64
5, 18249, Note_on_c, 0, 85, 0
5, 18258, Note_on_c, 0, 82, 0
5, 18258, Note_on_c, 0, 86, 74
5, 18260, Note_on_c, 0, 83, 61
5, 18274, Note_on_c, 0, 83, 0
5, 18274, Note_on_c, 0, 86, 0
5, 18282, Note_on_c, 0, 79, 50
5, 18294, Note_on_c, 0, 79, 0
5, 18299, Note_on_c, 0, 78, 55
5, 18299, Note_on_c, 0, 82, 42
5, 18306, Note_on_c, 0, 82, 0
5, 18316, Note_on_c, 0, 78, 0
5, 18322, Note_on_c, 0, 79, 36
5, 18323, Note_on_c, 0, 83, 34
5, 18331, Note_on_c, 0, 83, 0
5, 18331, Note_on_c, 0, 79, 0
5, 18339, Note_on_c, 0, 74, 65
5, 18355, Note_on_c, 0, 74, 0
5, 18362, Note_on_c, 0, 73, 27
5, 18371, Note_on_c, 0, 79, 28
5, 18377, Note_on_c, 0, 73, 0
5, 18381, Note_on_c, 0, 74, 43
5, 18388, Note_on_c, 0, 79, 0
5, 18390, Note_on_c, 0, 74, 0
5, 18401, Note_on_c, 0, 69, 44
5, 18403, Note_on_c, 0, 55, 34
5, 18409, Note_on_c, 0, 55, 0
5, 18413, Note_on_c, 0, 69, 0
5, 18414, Note_on_c, 0, 70, 67
5, 18416, Note_on_c, 0, 73, 34
5, 18433, Note_on_c, 0, 73, 0
5, 18437, Note_on_c, 0, 70, 0
5, 18444, Note_on_c, 0, 74, 33
5, 18444, Note_on_c, 0, 71, 35
5, 18453, Note_on_c, 0, 74, 0
5, 18456, Note_on_c, 0, 71, 0
5, 18462, Note_on_c, 0, 67, 59
5, 18469, Note_on_c, 0, 47, 24
5, 18476, Note_on_c, 0, 47, 0
5, 18478, Note_on_c, 0, 67, 0
5, 18479, Note_on_c, 0, 66, 54
5, 18480, Note_on_c, 0, 70, 37
5, 18494, Note_on_c, 0, 66, 0
5, 18496, Note_on_c, 0, 70, 0
5, 18501, Note_on_c, 0, 71, 40
5, 18502, Note_on_c, 0, 67, 46
5, 18510, Note_on_c, 0, 71, 0
5, 18514, Note_on_c, 0, 67, 0
5, 18523, Note_on_c, 0, 62, 56
5, 18538, Note_on_c, 0, 62, 0
5, 18541, Note_on_c, 0, 61, 51
5, 18543, Note_on_c, 0, 67, 48
5, 18560, Note_on_c, 0, 61, 0
5, 18570, Note_on_c, 0, 67, 0
5, 18638, Note_on_c, 0, 55, 63
5, 18639, Note_on_c, 0, 47, 44
5, 18643, Note_on_c, 0, 55, 0
5, 18646, Note_on_c, 0, 47, 0
5, 18658, Note_on_c, 0, 59, 36
5, 18669, Note_on_c, 0, 59, 0
5, 18683, Note_on_c, 0, 62, 47
5, 18697, Note_on_c, 0, 62, 0
5, 18697, Note_on_c, 0, 67, 79
5, 18719, Note_on_c, 0, 65, 48
5, 18720, Note_on_c, 0, 67, 0
5, 18758, Note_on_c, 0, 56, 28
5, 18766, Note_on_c, 0, 65, 0
5, 18768, Note_on_c, 0, 56, 0
5, 18778, Note_on_c, 0, 62, 57
5, 18798, Note_on_c, 0, 62, 0
5, 18818, Note_on_c, 0, 56, 39
5, 18818, Note_on_c, 0, 62, 33
5, 18819, Note_on_c, 0, 59, 58
5, 18820, Note_on_c, 0, 53, 36
5, 18826, Note_on_c, 0, 62, 0
5, 18828, Note_on_c, 0, 53, 0
5, 18830, Note_on_c, 0, 59, 0
5, 18838, Note_on_c, 0, 56, 0
5, 18878, Note_on_c, 0, 56, 42
5, 18880, Note_on_c, 0, 65, 62
5, 18885, Note_on_c, 0, 56, 0
5, 18887, Note_on_c, 0, 65, 0
5, 18899, Note_on_c, 0, 68, 38
5, 18914, Note_on_c, 0, 68, 0
5, 18921, Note_on_c, 0, 71, 68
5, 18933, Note_on_c, 0, 71, 0
5, 18938, Note_on_c, 0, 74, 92
5, 18941, Note_on_c, 0, 62, 57
5, 18943, Note_on_c, 0, 56, 34
5, 18946, Note_on_c, 0, 59, 35
5, 18947, Note_on_c, 0, 62, 0
5, 18953, Note_on_c, 0, 59, 0
5, 18962, Note_on_c, 0, 56, 0
5, 18962, Note_on_c, 0, 72, 75
5, 18977, Note_on_c, 0, 74, 0
5, 18995, Note_on_c, 0, 72, 0
5, 19003, Note_on_c, 0, 67, 77
5, 19008, Note_on_c, 0, 55, 30
5, 19016, Note_on_c, 0, 55, 0
5, 19021, Note_on_c, 0, 67, 0
5, 19028, Note_on_c, 0, 64, 37
5, 19050, Note_on_c, 0, 64, 0
5, 19061, Note_on_c, 0, 62, 71
5, 19080, Note_on_c, 0, 62, 0
5, 19091, Note_on_c, 0, 60, 35
5, 19118, Note_on_c, 0, 55, 26
5, 19125, Note_on_c, 0, 55, 0
5, 19127, Note_on_c, 0, 60, 0
5, 19139, Note_on_c, 0, 62, 70
5, 19170, Note_on_c, 0, 62, 0
5, 19199, Note_on_c, 0, 47, 55
5, 19199, Note_on_c, 0, 57, 54
5, 19205, Note_on_c, 0, 47, 0
5, 19208, Note_on_c, 0, 57, 0
5, 19293, Note_on_c, 0, 63, 61
5, 19303, Note_on_c, 0, 63, 0
5, 19303, Note_on_c, 0, 62, 70
5, 19320, Note_on_c, 0, 62, 0
5, 19320, Note_on_c, 0, 76, 68
5, 19320, Note_on_c, 0, 69, 57
5, 19320, Note_on_c, 0, 65, 46
5, 19320, Note_on_c, 0, 71, 47
5, 19322, Note_on_c, 0, 64, 53
5, 19326, Note_on_c, 0, 69, 0
5, 19327, Note_on_c, 0, 71, 0
5, 19327, Note_on_c, 0, 65, 0
5, 19332, Note_on_c, 0, 76, 0
5, 19334, Note_on_c, 0, 64, 0
5, 19340, Note_on_c, 0, 62, 49
5, 19354, Note_on_c, 0, 62, 0
5, 19355, Note_on_c, 0, 76, 82
5, 19356, Note_on_c, 0, 65, 79
5, 19357, Note_on_c, 0, 69, 71
5, 19359, Note_on_c, 0, 71, 56
5, 19360, Note_on_c, 0, 64, 78
5, 19365, Note_on_c, 0, 71, 0
5, 19368, Note_on_c, 0, 65, 0
5, 19369, Note_on_c, 0, 69, 0
5, 19376, Note_on_c, 0, 64, 0
5, 19378, Note_on_c, 0, 76, 0
5, 19381, Note_on_c, 0, 62, 62
5, 19403, Note_on_c, 0, 62, 0
5, 19485, Note_on_c, 0, 68, 57
5, 19485, Note_on_c, 0, 65, 75
5, 19485, Note_on_c, 0, 76, 71
5, 19486, Note_on_c, 0, 70, 52
5, 19489, Note_on_c, 0, 64, 67
5, 19491, Note_on_c, 0, 65, 0
5, 19492, Note_on_c, 0, 70, 0
5, 19492, Note_on_c, 0, 68, 0
5, 19493, Note_on_c, 0, 76, 0
5, 19501, Note_on_c, 0, 64, 0
5, 19509, Note_on_c, 0, 62, 44
5, 19524, Note_on_c, 0, 76, 89
5, 19525, Note_on_c, 0, 62, 0
5, 19525, Note_on_c, 0, 65, 88
5, 19526, Note_on_c, 0, 68, 70
5, 19531, Note_on_c, 0, 64, 70
5, 19535, Note_on_c, 0, 68, 0
5, 19537, Note_on_c, 0, 65, 0
5, 19545, Note_on_c, 0, 76, 0
5, 19546, Note_on_c, 0, 64, 0
5, 19605, Note_on_c, 0, 76, 81
5, 19606, Note_on_c, 0, 68, 69
5, 19607, Note_on_c, 0, 65, 81
5, 19607, Note_on_c, 0, 70, 68
5, 19610, Note_on_c, 0, 64, 74
5, 19621, Note_on_c, 0, 70, 0
5, 19622, Note_on_c, 0, 65, 0
5, 19626, Note_on_c, 0, 64, 0
5, 19627, Note_on_c, 0, 68, 0
5, 19630, Note_on_c, 0, 62, 53
5, 19631, Note_on_c, 0, 76, 0
5, 19631, Note_on_c, 0, 74, 54
5, 19655, Note_on_c, 0, 74, 0
5, 19661, Note_on_c, 0, 62, 0
5, 19663, Note_on_c, 0, 76, 82
5, 19665, Note_on_c, 0, 65, 65
5, 19668, Note_on_c, 0, 64, 41
5, 19678, Note_on_c, 0, 64, 0
5, 19678, Note_on_c, 0, 65, 0
5, 19684, Note_on_c, 0, 76, 0
5, 19685, Note_on_c, 0, 74, 29
5, 19693, Note_on_c, 0, 57, 39
5, 19695, Note_on_c, 0, 60, 40
5, 19713, Note_on_c, 0, 60, 0
5, 19714, Note_on_c, 0, 74, 0
5, 19718, Note_on_c, 0, 57, 0
5, 19744, Note_on_c, 0, 74, 69
5, 19767, Note_on_c, 0, 74, 0
5, 19801, Note_on_c, 0, 64, 34
5, 19802, Note_on_c, 0, 74, 74
5, 19804, Note_on_c, 0, 57, 35
5, 19805, Note_on_c, 0, 60, 46
5, 19822, Note_on_c, 0, 64, 0
5, 19839, Note_on_c, 0, 60, 0
5, 19840, Note_on_c, 0, 74, 0
5, 19857, Note_on_c, 0, 57, 0
5, 19858, Note_on_c, 0, 72, 47
5, 19881, Note_on_c, 0, 72, 0
5, 19918, Note_on_c, 0, 64, 57
5, 19922, Note_on_c, 0, 60, 41
5, 19923, Note_on_c, 0, 74, 68
5, 19927, Note_on_c, 0, 56, 19
5, 19932, Note_on_c, 0, 60, 0
5, 19938, Note_on_c, 0, 64, 0
5, 19942, Note_on_c, 0, 74, 0
5, 19942, Note_on_c, 0, 56, 0
5, 20022, Note_on_c, 0, 72, 65
5, 20031, Note_on_c, 0, 72, 0
5, 20048, Note_on_c, 0, 74, 96
5, 20050, Note_on_c, 0, 81, 77
5, 20066, Note_on_c, 0, 81, 0
5, 20070, Note_on_c, 0, 74, 0
5, 20081, Note_on_c, 0, 75, 43
5, 20088, Note_on_c, 0, 74, 55
5, 20100, Note_on_c, 0, 75, 0
5, 20112, Note_on_c, 0, 72, 41
5, 20117, Note_on_c, 0, 74, 0
5, 20135, Note_on_c, 0, 72, 0
5, 20144, Note_on_c, 0, 71, 63
5, 20158, Note_on_c, 0, 71, 0
5, 20166, Note_on_c, 0, 74, 81
5, 20198, Note_on_c, 0, 74, 0
5, 20202, Note_on_c, 0, 71, 60
5, 20216, Note_on_c, 0, 71, 0
5, 20226, Note_on_c, 0, 72, 60
5, 20252, Note_on_c, 0, 72, 0
5, 20260, Note_on_c, 0, 69, 51
5, 20271, Note_on_c, 0, 69, 0
5, 20285, Note_on_c, 0, 64, 34
5, 20316, Note_on_c, 0, 64, 0
5, 20372, Note_on_c, 0, 54, 35
5, 20373, Note_on_c, 0, 64, 40
5, 20374, Note_on_c, 0, 60, 47
5, 20380, Note_on_c, 0, 64, 0
5, 20383, Note_on_c, 0, 60, 0
5, 20385, Note_on_c, 0, 54, 0
5, 20404, Note_on_c, 0, 93, 61
5, 20412, Note_on_c, 0, 93, 0
5, 20419, Note_on_c, 0, 94, 64
5, 20432, Note_on_c, 0, 93, 58
5, 20438, Note_on_c, 0, 94, 0
5, 20444, Note_on_c, 0, 93, 0
5, 20450, Note_on_c, 0, 91, 64
5, 20460, Note_on_c, 0, 91, 0
5, 20476, Note_on_c, 0, 90, 58
5, 20492, Note_on_c, 0, 90, 0
5, 20507, Note_on_c, 0, 87, 73
5, 20523, Note_on_c, 0, 87, 0
5, 20534, Note_on_c, 0, 86, 73
5, 20555, Note_on_c, 0, 86, 0
5, 20563, Note_on_c, 0, 84, 64
5, 20578, Note_on_c, 0, 84, 0
5, 20589, Note_on_c, 0, 82, 37
5, 20616, Note_on_c, 0, 82, 0
5, 20623, Note_on_c, 0, 81, 46
5, 20633, Note_on_c, 0, 62, 47
5, 20635, Note_on_c, 0, 55, 35
5, 20637, Note_on_c, 0, 58, 29
5, 20638, Note_on_c, 0, 81, 0
5, 20645, Note_on_c, 0, 84, 80
5, 20669, Note_on_c, 0, 62, 0
5, 20677, Note_on_c, 0, 84, 0
5, 20683, Note_on_c, 0, 81, 47
5, 20686, Note_on_c, 0, 58, 0
5, 20690, Note_on_c, 0, 55, 0
5, 20693, Note_on_c, 0, 81, 0
5, 20705, Note_on_c, 0, 82, 72
5, 20730, Note_on_c, 0, 82, 0
5, 20741, Note_on_c, 0, 78, 37
5, 20753, Note_on_c, 0, 78, 0
5, 20758, Note_on_c, 0, 62, 52
5, 20761, Note_on_c, 0, 58, 34
5, 20763, Note_on_c, 0, 81, 70
5, 20765, Note_on_c, 0, 55, 42
5, 20791, Note_on_c, 0, 55, 0
5, 20791, Note_on_c, 0, 62, 0
5, 20806, Note_on_c, 0, 58, 0
5, 20811, Note_on_c, 0, 81, 0
5, 20819, Note_on_c, 0, 74, 62
5, 20836, Note_on_c, 0, 74, 0
5, 20874, Note_on_c, 0, 63, 54
5, 20881, Note_on_c, 0, 55, 42
5, 20883, Note_on_c, 0, 58, 31
5, 20921, Note_on_c, 0, 63, 0
5, 20932, Note_on_c, 0, 55, 0
5, 20946, Note_on_c, 0, 58, 0
5, 20976, Note_on_c, 0, 94, 68
5, 20988, Note_on_c, 0, 94, 0
5, 20999, Note_on_c, 0, 63, 59
5, 21002, Note_on_c, 0, 99, 82
5, 21002, Note_on_c, 0, 55, 59
5, 21004, Note_on_c, 0, 58, 47
5, 21032, Note_on_c, 0, 99, 0
5, 21035, Note_on_c, 0, 94, 63
5, 21038, Note_on_c, 0, 55, 0
5, 21040, Note_on_c, 0, 63, 0
5, 21047, Note_on_c, 0, 94, 0
5, 21072, Note_on_c, 0, 58, 0
5, 21093, Note_on_c, 0, 62, 55
5, 21094, Note_on_c, 0, 96, 77
5, 21094, Note_on_c, 0, 58, 46
5, 21096, Note_on_c, 0, 97, 67
5, 21104, Note_on_c, 0, 96, 0
5, 21113, Note_on_c, 0, 58, 0
5, 21116, Note_on_c, 0, 62, 0
5, 21122, Note_on_c, 0, 97, 0
5, 21123, Note_on_c, 0, 98, 57
5, 21136, Note_on_c, 0, 98, 0
5, 21148, Note_on_c, 0, 89, 67
5, 21148, Note_on_c, 0, 101, 68
5, 21154, Note_on_c, 0, 62, 55
5, 21155, Note_on_c, 0, 58, 40
5, 21159, Note_on_c, 0, 57, 29
5, 21163, Note_on_c, 0, 101, 0
5, 21164, Note_on_c, 0, 89, 0
5, 21166, Note_on_c, 0, 57, 0
5, 21170, Note_on_c, 0, 62, 0
5, 21173, Note_on_c, 0, 58, 0
5, 21175, Note_on_c, 0, 101, 55
5, 21176, Note_on_c, 0, 89, 63
5, 21193, Note_on_c, 0, 101, 0
5, 21194, Note_on_c, 0, 89, 0
5, 21208, Note_on_c, 0, 101, 63
5, 21209, Note_on_c, 0, 89, 59
5, 21212, Note_on_c, 0, 62, 60
5, 21214, Note_on_c, 0, 58, 44
5, 21217, Note_on_c, 0, 57, 32
5, 21225, Note_on_c, 0, 57, 0
5, 21227, Note_on_c, 0, 101, 0
5, 21229, Note_on_c, 0, 62, 0
5, 21232, Note_on_c, 0, 58, 0
5, 21232, Note_on_c, 0, 96, 49
5, 21247, Note_on_c, 0, 97, 45
5, 21248, Note_on_c, 0, 89, 0
5, 21257, Note_on_c, 0, 97, 0
5, 21257, Note_on_c, 0, 98, 63
5, 21265, Note_on_c, 0, 98, 0
5, 21265, Note_on_c, 0, 96, 0
5, 21273, Note_on_c, 0, 62, 51
5, 21274, Note_on_c, 0, 58, 38
5, 21276, Note_on_c, 0, 101, 66
5, 21276, Note_on_c, 0, 89, 66
5, 21279, Note_on_c, 0, 62, 0
5, 21279, Note_on_c, 0, 57, 24
5, 21282, Note_on_c, 0, 58, 0
5, 21285, Note_on_c, 0, 55, 30
5, 21289, Note_on_c, 0, 89, 0
5, 21289, Note_on_c, 0, 101, 0
5, 21291, Note_on_c, 0, 57, 0
5, 21294, Note_on_c, 0, 55, 0
5, 21298, Note_on_c, 0, 101, 45
5, 21302, Note_on_c, 0, 89, 58
5, 21315, Note_on_c, 0, 89, 0
5, 21315, Note_on_c, 0, 101, 0
5, 21333, Note_on_c, 0, 101, 66
5, 21335, Note_on_c, 0, 89, 53
5, 21346, Note_on_c, 0, 89, 0
5, 21352, Note_on_c, 0, 101, 0
5, 21356, Note_on_c, 0, 64, 43
5, 21358, Note_on_c, 0, 60, 44
5, 21360, Note_on_c, 0, 58, 27
5, 21361, Note_on_c, 0, 96, 49
5, 21368, Note_on_c, 0, 97, 45
5, 21380, Note_on_c, 0, 97, 0
5, 21381, Note_on_c, 0, 60, 0
5, 21382, Note_on_c, 0, 98, 58
5, 21388, Note_on_c, 0, 96, 0
5, 21395, Note_on_c, 0, 58, 0
5, 21396, Note_on_c, 0, 64, 0
5, 21400, Note_on_c, 0, 98, 0
5, 21422, Note_on_c, 0, 89, 61
5, 21441, Note_on_c, 0, 89, 0
5, 21478, Note_on_c, 0, 64, 52
5, 21481, Note_on_c, 0, 58, 42
5, 21484, Note_on_c, 0, 60, 43
5, 21503, Note_on_c, 0, 60, 0
5, 21508, Note_on_c, 0, 64, 0
5, 21520, Note_on_c, 0, 58, 0
5, 21571, Note_on_c, 0, 63, 60
5, 21572, Note_on_c, 0, 60, 54
5, 21574, Note_on_c, 0, 98, 89
5, 21576, Note_on_c, 0, 57, 47
5, 21576, Note_on_c, 0, 55, 55
5, 21579, Note_on_c, 0, 105, 69
5, 21607, Note_on_c, 0, 98, 0
5, 21610, Note_on_c, 0, 105, 0
5, 21611, Note_on_c, 0, 55, 0
5, 21614, Note_on_c, 0, 60, 0
5, 21622, Note_on_c, 0, 99, 51
5, 21626, Note_on_c, 0, 63, 0
5, 21629, Note_on_c, 0, 98, 62
5, 21629, Note_on_c, 0, 60, 7
5, 21641, Note_on_c, 0, 99, 0
5, 21652, Note_on_c, 0, 98, 0
5, 21653, Note_on_c, 0, 96, 46
5, 21663, Note_on_c, 0, 57, 0
5, 21665, Note_on_c, 0, 96, 0
5, 21670, Note_on_c, 0, 95, 59
5, 21676, Note_on_c, 0, 60, 0
5, 21696, Note_on_c, 0, 95, 0
5, 21701, Note_on_c, 0, 98, 87
5, 21714, Note_on_c, 0, 63, 30
5, 21721, Note_on_c, 0, 55, 34
5, 21726, Note_on_c, 0, 96, 68
5, 21747, Note_on_c, 0, 96, 0
5, 21755, Note_on_c, 0, 98, 0
5, 21759, Note_on_c, 0, 93, 71
5, 21770, Note_on_c, 0, 63, 0
5, 21771, Note_on_c, 0, 60, 10
5, 21773, Note_on_c, 0, 55, 0
5, 21776, Note_on_c, 0, 93, 0
5, 21786, Note_on_c, 0, 60, 0
5, 21787, Note_on_c, 0, 88, 29
5, 21806, Note_on_c, 0, 88, 0
5, 21830, Note_on_c, 0, 60, 53
5, 21832, Note_on_c, 0, 54, 42
5, 21833, Note_on_c, 0, 64, 36
5, 21840, Note_on_c, 0, 86, 73
5, 21868, Note_on_c, 0, 86, 0
5, 21880, Note_on_c, 0, 87, 36
5, 21881, Note_on_c, 0, 64, 0
5, 21888, Note_on_c, 0, 86, 70
5, 21898, Note_on_c, 0, 87, 0
5, 21904, Note_on_c, 0, 54, 0
5, 21907, Note_on_c, 0, 60, 0
5, 21908, Note_on_c, 0, 86, 0
5, 21912, Note_on_c, 0, 84, 39
5, 21931, Note_on_c, 0, 84, 0
5, 21940, Note_on_c, 0, 60, 50
5, 21942, Note_on_c, 0, 54, 30
5, 21969, Note_on_c, 0, 60, 0
5, 21976, Note_on_c, 0, 54, 0
5, 21997, Note_on_c, 0, 54, 38
5, 22000, Note_on_c, 0, 62, 52
5, 22000, Note_on_c, 0, 60, 49
5, 22004, Note_on_c, 0, 81, 89
5, 22008, Note_on_c, 0, 60, 0
5, 22009, Note_on_c, 0, 58, 25
5, 22014, Note_on_c, 0, 62, 0
5, 22021, Note_on_c, 0, 58, 0
5, 22025, Note_on_c, 0, 81, 0
5, 22042, Note_on_c, 0, 54, 0
5, 22048, Note_on_c, 0, 82, 77
5, 22068, Note_on_c, 0, 82, 0
5, 22079, Note_on_c, 0, 62, 55
5, 22081, Note_on_c, 0, 58, 40
5, 22082, Note_on_c, 0, 84, 76
5, 22082, Note_on_c, 0, 57, 40
5, 22084, Note_on_c, 0, 55, 41
5, 22101, Note_on_c, 0, 84, 0
5, 22109, Note_on_c, 0, 57, 0
5, 22117, Note_on_c, 0, 62, 0
5, 22125, Note_on_c, 0, 58, 0
5, 22138, Note_on_c, 0, 77, 65
5, 22139, Note_on_c, 0, 55, 0
5, 22167, Note_on_c, 0, 77, 0
5, 22174, Note_on_c, 0, 73, 59
5, 22180, Note_on_c, 0, 58, 38
5, 22180, Note_on_c, 0, 62, 48
5, 22181, Note_on_c, 0, 55, 51
5, 22191, Note_on_c, 0, 73, 0
5, 22212, Note_on_c, 0, 62, 0
5, 22213, Note_on_c, 0, 72, 45
5, 22215, Note_on_c, 0, 58, 0
5, 22222, Note_on_c, 0, 55, 0
5, 22234, Note_on_c, 0, 72, 0
5, 22242, Note_on_c, 0, 58, 40
5, 22256, Note_on_c, 0, 70, 61
5, 22263, Note_on_c, 0, 58, 0
5, 22281, Note_on_c, 0, 70, 0
5, 22300, Note_on_c, 0, 68, 55
5, 22306, Note_on_c, 0, 60, 45
5, 22306, Note_on_c, 0, 58, 30
5, 22310, Note_on_c, 0, 52, 40
5, 22349, Note_on_c, 0, 68, 0
5, 22378, Note_on_c, 0, 60, 0
5, 22386, Note_on_c, 0, 52, 0
5, 22391, Note_on_c, 0, 58, 0
5, 22412, Note_on_c, 0, 67, 75
5, 22420, Note_on_c, 0, 60, 39
5, 22422, Note_on_c, 0, 52, 35
5, 22423, Note_on_c, 0, 58, 30
5, 22432, Note_on_c, 0, 60, 0
5, 22433, Note_on_c, 0, 67, 0
5, 22444, Note_on_c, 0, 58, 0
5, 22447, Note_on_c, 0, 64, 44
5, 22483, Note_on_c, 0, 64, 0
5, 22499, Note_on_c, 0, 61, 69
5, 22514, Note_on_c, 0, 52, 0
5, 22534, Note_on_c, 0, 61, 0
5, 22628, Note_on_c, 0, 60, 78
5, 22657, Note_on_c, 0, 60, 0
5, 22690, Note_on_c, 0, 60, 69
5, 22724, Note_on_c, 0, 48, 35
5, 22731, Note_on_c, 0, 60, 0
5, 22732, Note_on_c, 0, 48, 0
5, 22743, Note_on_c, 0, 57, 68
5, 22758, Note_on_c, 0, 57, 0
5, 22895, Note_on_c, 0, 72, 66
5, 22896, Note_on_c, 0, 62, 80
5, 22897, Note_on_c, 0, 67, 71
5, 22898, Note_on_c, 0, 57, 60
5, 22904, Note_on_c, 0, 67, 0
5, 22907, Note_on_c, 0, 62, 0
5, 22913, Note_on_c, 0, 72, 0
5, 22915, Note_on_c, 0, 57, 0
5, 22955, Note_on_c, 0, 72, 71
5, 22956, Note_on_c, 0, 67, 76
5, 22957, Note_on_c, 0, 62, 75
5, 22960, Note_on_c, 0, 57, 55
5, 22964, Note_on_c, 0, 62, 0
5, 22966, Note_on_c, 0, 67, 0
5, 22971, Note_on_c, 0, 57, 0
5, 22972, Note_on_c, 0, 72, 0
5, 23016, Note_on_c, 0, 56, 59
5, 23020, Note_on_c, 0, 72, 28
5, 23022, Note_on_c, 0, 71, 40
5, 23026, Note_on_c, 0, 72, 0
5, 23029, Note_on_c, 0, 71, 0
5, 23030, Note_on_c, 0, 56, 0
5, 23041, Note_on_c, 0, 69, 73
5, 23041, Note_on_c, 0, 76, 78
5, 23042, Note_on_c, 0, 65, 69
5, 23043, Note_on_c, 0, 64, 71
5, 23044, Note_on_c, 0, 72, 39
5, 23056, Note_on_c, 0, 65, 0
5, 23060, Note_on_c, 0, 69, 0
5, 23065, Note_on_c, 0, 72, 0
5, 23065, Note_on_c, 0, 76, 0
5, 23067, Note_on_c, 0, 64, 0
5, 23076, Note_on_c, 0, 76, 76
5, 23079, Note_on_c, 0, 69, 56
5, 23081, Note_on_c, 0, 65, 52
5, 23081, Note_on_c, 0, 64, 54
5, 23088, Note_on_c, 0, 65, 0
5, 23096, Note_on_c, 0, 69, 0
5, 23098, Note_on_c, 0, 76, 0
5, 23098, Note_on_c, 0, 74, 54
5, 23101, Note_on_c, 0, 64, 0
5, 23102, Note_on_c, 0, 62, 58
5, 23132, Note_on_c, 0, 74, 0
5, 23144, Note_on_c, 0, 62, 0
5, 23158, Note_on_c, 0, 76, 69
5, 23158, Note_on_c, 0, 64, 57
5, 23159, Note_on_c, 0, 65, 58
5, 23160, Note_on_c, 0, 69, 60
5, 23162, Note_on_c, 0, 72, 40
5, 23168, Note_on_c, 0, 65, 0
5, 23172, Note_on_c, 0, 69, 0
5, 23174, Note_on_c, 0, 64, 0
5, 23178, Note_on_c, 0, 72, 0
5, 23181, Note_on_c, 0, 76, 0
5, 23280, Note_on_c, 0, 65, 68
5, 23281, Note_on_c, 0, 62, 62
5, 23281, Note_on_c, 0, 57, 62
5, 23282, Note_on_c, 0, 74, 79
5, 23282, Note_on_c, 0, 77, 66
5, 23282, Note_on_c, 0, 81, 74
5, 23283, Note_on_c, 0, 69, 80
5, 23288, Note_on_c, 0, 69, 0
5, 23288, Note_on_c, 0, 65, 0
5, 23288, Note_on_c, 0, 57, 0
5, 23290, Note_on_c, 0, 62, 0
5, 23293, Note_on_c, 0, 74, 0
5, 23295, Note_on_c, 0, 77, 0
5, 23297, Note_on_c, 0, 81, 0
5, 23343, Note_on_c, 0, 77, 76
5, 23343, Note_on_c, 0, 74, 83
5, 23343, Note_on_c, 0, 81, 77
5, 23344, Note_on_c, 0, 69, 81
5, 23345, Note_on_c, 0, 57, 76
5, 23345, Note_on_c, 0, 65, 69
5, 23345, Note_on_c, 0, 62, 64
5, 23406, Control_c, 0, 64, 127
5, 23410, Note_on_c, 0, 57, 0
5, 23411, Note_on_c, 0, 65, 0
5, 23418, Note_on_c, 0, 62, 0
5, 23425, Note_on_c, 0, 81, 0
5, 23426, Note_on_c, 0, 69, 0
5, 23430, Note_on_c, 0, 77, 0
5, 23438, Note_on_c, 0, 79, 80
5, 23440, Note_on_c, 0, 65, 56
5, 23442, Note_on_c, 0, 57, 39
5, 23443, Note_on_c, 0, 62, 43
5, 23443, Note_on_c, 0, 77, 35
5, 23444, Note_on_c, 0, 74, 0
5, 23449, Control_c, 0, 64, 0
5, 23451, Note_on_c, 0, 77, 0
5, 23460, Control_c, 0, 64, 127
5, 23467, Control_c, 0, 64, 0
5, 23496, Note_on_c, 0, 65, 0
5, 23501, Note_on_c, 0, 79, 0
5, 23504, Note_on_c, 0, 57, 0
5, 23514, Note_on_c, 0, 62, 0
5, 23519, Note_on_c, 0, 77, 71
5, 23519, Note_on_c, 0, 76, 72
5, 23521, Note_on_c, 0, 62, 24
5, 23522, Note_on_c, 0, 57, 43
5, 23530, Note_on_c, 0, 76, 0
5, 23598, Note_on_c, 0, 57, 0
5, 23605, Note_on_c, 0, 62, 0
5, 23606, Note_on_c, 0, 77, 0
5, 23612, Note_on_c, 0, 79, 59
5, 23620, Note_on_c, 0, 77, 68
5, 23628, Note_on_c, 0, 62, 37
5, 23629, Note_on_c, 0, 65, 24
5, 23631, Note_on_c, 0, 79, 0
5, 23635, Note_on_c, 0, 65, 0
5, 23646, Note_on_c, 0, 74, 44
5, 23647, Note_on_c, 0, 77, 0
5, 23650, Note_on_c, 0, 62, 0
5, 23678, Note_on_c, 0, 74, 0
5, 23699, Note_on_c, 0, 77, 76
5, 23730, Note_on_c, 0, 77, 0
5, 23755, Note_on_c, 0, 69, 52
5, 23784, Note_on_c, 0, 69, 0
5, 23797, Note_on_c, 0, 69, 59
5, 23804, Note_on_c, 0, 69, 0
5, 23854, Note_on_c, 0, 65, 56
5, 23856, Note_on_c, 0, 62, 47
5, 23858, Note_on_c, 0, 57, 31
5, 23862, Note_on_c, 0, 65, 0
5, 23864, Note_on_c, 0, 62, 0
5, 23867, Note_on_c, 0, 57, 0
5, 23934, Note_on_c, 0, 65, 56
5, 23935, Note_on_c, 0, 57, 54
5, 23937, Note_on_c, 0, 62, 48
5, 23945, Note_on_c, 0, 62, 0
5, 23948, Note_on_c, 0, 65, 0
5, 23949, Note_on_c, 0, 57, 0
5, 24034, Note_on_c, 0, 62, 53
5, 24034, Note_on_c, 0, 56, 37
5, 24043, Note_on_c, 0, 62, 0
5, 24048, Note_on_c, 0, 56, 0
5, 24086, Note_on_c, 0, 55, 64
5, 24098, Note_on_c, 0, 55, 0
5, 24105, Note_on_c, 0, 56, 51
5, 24122, Note_on_c, 0, 56, 0
5, 24124, Note_on_c, 0, 58, 35
5, 24140, Note_on_c, 0, 58, 0
5, 24143, Note_on_c, 0, 59, 66
5, 24150, Note_on_c, 0, 59, 0
5, 24160, Note_on_c, 0, 61, 55
5, 24168, Note_on_c, 0, 61, 0
5, 24177, Note_on_c, 0, 62, 62
5, 24192, Note_on_c, 0, 62, 0
5, 24195, Note_on_c, 0, 64, 63
5, 24210, Note_on_c, 0, 64, 0
5, 24218, Note_on_c, 0, 65, 46
5, 24224, Note_on_c, 0, 65, 0
5, 24234, Note_on_c, 0, 67, 73
5, 24243, Note_on_c, 0, 56, 32
5, 24243, Note_on_c, 0, 62, 48
5, 24249, Note_on_c, 0, 67, 0
5, 24256, Note_on_c, 0, 68, 69
5, 24261, Note_on_c, 0, 56, 0
5, 24262, Note_on_c, 0, 62, 0
5, 24273, Note_on_c, 0, 68, 0
5, 24286, Note_on_c, 0, 70, 74
5, 24302, Note_on_c, 0, 70, 0
5, 24312, Note_on_c, 0, 71, 56
5, 24336, Note_on_c, 0, 71, 0
5, 24342, Note_on_c, 0, 73, 60
5, 24353, Note_on_c, 0, 62, 39
5, 24358, Note_on_c, 0, 73, 0
5, 24368, Note_on_c, 0, 74, 70
5, 24372, Note_on_c, 0, 62, 0
5, 24386, Note_on_c, 0, 74, 0
5, 24396, Note_on_c, 0, 75, 71
5, 24400, Note_on_c, 0, 62, 57
5, 24401, Note_on_c, 0, 56, 43
5, 24410, Note_on_c, 0, 62, 0
5, 24411, Note_on_c, 0, 75, 0
5, 24422, Note_on_c, 0, 76, 59
5, 24426, Note_on_c, 0, 56, 0
5, 24443, Note_on_c, 0, 76, 0
5, 24450, Note_on_c, 0, 79, 74
5, 24462, Note_on_c, 0, 64, 33
5, 24463, Note_on_c, 0, 60, 51
5, 24465, Note_on_c, 0, 57, 32
5, 24469, Note_on_c, 0, 64, 0
5, 24471, Note_on_c, 0, 60, 0
5, 24475, Note_on_c, 0, 57, 0
5, 24477, Note_on_c, 0, 83, 67
5, 24479, Note_on_c, 0, 79, 0
5, 24499, Note_on_c, 0, 83, 0
5, 24511, Note_on_c, 0, 86, 84
5, 24511, Note_on_c, 0, 74, 76
5, 24522, Note_on_c, 0, 60, 42
5, 24523, Note_on_c, 0, 86, 0
5, 24525, Note_on_c, 0, 74, 0
5, 24531, Note_on_c, 0, 60, 0
5, 24535, Note_on_c, 0, 86, 75
5, 24537, Note_on_c, 0, 74, 49
5, 24552, Note_on_c, 0, 86, 0
5, 24553, Note_on_c, 0, 74, 0
5, 24571, Note_on_c, 0, 86, 80
5, 24573, Note_on_c, 0, 74, 66
5, 24581, Note_on_c, 0, 60, 44
5, 24581, Note_on_c, 0, 64, 26
5, 24587, Note_on_c, 0, 64, 0
5, 24587, Note_on_c, 0, 74, 0
5, 24588, Note_on_c, 0, 57, 24
5, 24593, Note_on_c, 0, 86, 0
5, 24596, Note_on_c, 0, 60, 0
5, 24597, Note_on_c, 0, 57, 0
5, 24607, Note_on_c, 0, 82, 29
5, 24615, Note_on_c, 0, 83, 54
5, 24616, Note_on_c, 0, 82, 0
5, 24630, Note_on_c, 0, 83, 0
5, 24635, Note_on_c, 0, 86, 80
5, 24637, Note_on_c, 0, 74, 69
5, 24638, Note_on_c, 0, 60, 35
5, 24647, Note_on_c, 0, 86, 0
5, 24648, Note_on_c, 0, 74, 0
5, 24652, Note_on_c, 0, 60, 0
5, 24658, Note_on_c, 0, 86, 80
5, 24661, Note_on_c, 0, 74, 34
5, 24674, Note_on_c, 0, 74, 0
5, 24674, Note_on_c, 0, 86, 0
5, 24691, Note_on_c, 0, 86, 74
5, 24693, Note_on_c, 0, 74, 64
5, 24708, Note_on_c, 0, 74, 0
5, 24709, Note_on_c, 0, 86, 0
5, 24714, Note_on_c, 0, 55, 24
5, 24719, Note_on_c, 0, 60, 8
5, 24721, Note_on_c, 0, 82, 37
5, 24734, Note_on_c, 0, 82, 0
5, 24735, Note_on_c, 0, 83, 49
5, 24737, Note_on_c, 0, 60, 0
5, 24738, Note_on_c, 0, 55, 0
5, 24756, Note_on_c, 0, 83, 0
5, 24760, Note_on_c, 0, 60, 30
5, 24771, Note_on_c, 0, 60, 0
5, 24778, Note_on_c, 0, 74, 58
5, 24795, Note_on_c, 0, 74, 0
5, 24837, Note_on_c, 0, 64, 45
5, 24840, Note_on_c, 0, 55, 44
5, 24842, Note_on_c, 0, 60, 44
5, 24843, Note_on_c, 0, 57, 35
5, 24854, Note_on_c, 0, 60, 0
5, 24856, Note_on_c, 0, 55, 0
5, 24860, Note_on_c, 0, 64, 0
5, 24866, Note_on_c, 0, 57, 0
5, 24935, Note_on_c, 0, 60, 46
5, 24936, Note_on_c, 0, 57, 59
5, 24940, Note_on_c, 0, 53, 29
5, 24947, Note_on_c, 0, 60, 0
5, 24950, Note_on_c, 0, 53, 0
5, 24957, Note_on_c, 0, 57, 0
5, 24963, Note_on_c, 0, 88, 84
5, 24996, Note_on_c, 0, 89, 74
5, 25000, Note_on_c, 0, 88, 0
5, 25005, Note_on_c, 0, 57, 27
5, 25013, Note_on_c, 0, 89, 0
5, 25016, Note_on_c, 0, 57, 0
5, 25022, Note_on_c, 0, 91, 78
5, 25042, Note_on_c, 0, 91, 0
5, 25059, Note_on_c, 0, 84, 66
5, 25063, Note_on_c, 0, 57, 37
5, 25071, Note_on_c, 0, 57, 0
5, 25072, Note_on_c, 0, 84, 0
5, 25084, Note_on_c, 0, 86, 63
5, 25102, Note_on_c, 0, 86, 0
5, 25120, Note_on_c, 0, 88, 74
5, 25123, Note_on_c, 0, 57, 42
5, 25131, Note_on_c, 0, 57, 0
5, 25133, Note_on_c, 0, 88, 0
5, 25150, Note_on_c, 0, 81, 47
5, 25177, Note_on_c, 0, 82, 59
5, 25179, Note_on_c, 0, 81, 0
5, 25193, Note_on_c, 0, 82, 0
5, 25202, Note_on_c, 0, 84, 79
5, 25220, Note_on_c, 0, 84, 0
5, 25237, Note_on_c, 0, 77, 46
5, 25248, Note_on_c, 0, 77, 0
5, 25260, Note_on_c, 0, 79, 49
5, 25280, Note_on_c, 0, 79, 0
5, 25295, Note_on_c, 0, 64, 41
5, 25296, Note_on_c, 0, 81, 72
5, 25298, Note_on_c, 0, 60, 41
5, 25302, Note_on_c, 0, 64, 0
5, 25311, Note_on_c, 0, 81, 0
5, 25312, Note_on_c, 0, 60, 0
5, 25331, Note_on_c, 0, 74, 20
5, 25341, Note_on_c, 0, 74, 0
5, 25355, Note_on_c, 0, 77, 63
5, 25373, Note_on_c, 0, 77, 0
5, 25379, Note_on_c, 0, 79, 68
5, 25401, Note_on_c, 0, 79, 0
5, 25416, Note_on_c, 0, 74, 58
5, 25420, Note_on_c, 0, 60, 28
5, 25420, Note_on_c, 0, 53, 27
5, 25421, Note_on_c, 0, 57, 41
5, 25425, Note_on_c, 0, 60, 0
5, 25427, Note_on_c, 0, 74, 0
5, 25431, Note_on_c, 0, 57, 0
5, 25441, Note_on_c, 0, 53, 0
5, 25445, Note_on_c, 0, 76, 38
5, 25465, Note_on_c, 0, 76, 0
5, 25476, Note_on_c, 0, 77, 66
5, 25492, Note_on_c, 0, 77, 0
5, 25503, Note_on_c, 0, 69, 54
5, 25528, Note_on_c, 0, 69, 0
5, 25563, Note_on_c, 0, 69, 64
5, 25589, Note_on_c, 0, 69, 0
5, 25619, Note_on_c, 0, 69, 74
5, 25625, Note_on_c, 0, 57, 27
5, 25637, Note_on_c, 0, 57, 0
5, 25642, Note_on_c, 0, 69, 0
5, 25660, Note_on_c, 0, 67, 60
5, 25671, Note_on_c, 0, 67, 0
5, 25684, Note_on_c, 0, 69, 66
5, 25697, Note_on_c, 0, 69, 0
5, 25741, Note_on_c, 0, 69, 82
5, 25766, Note_on_c, 0, 69, 0
5, 25780, Note_on_c, 0, 67, 46
5, 25788, Note_on_c, 0, 67, 0
5, 25802, Note_on_c, 0, 69, 62
5, 25821, Note_on_c, 0, 69, 0
5, 25841, Note_on_c, 0, 67, 87
5, 25843, Note_on_c, 0, 57, 24
5, 25847, Note_on_c, 0, 74, 33
5, 25848, Note_on_c, 0, 57, 0
5, 25865, Note_on_c, 0, 67, 0
5, 25889, Note_on_c, 0, 67, 30
5, 25897, Note_on_c, 0, 74, 0
5, 25903, Note_on_c, 0, 65, 53
5, 25904, Note_on_c, 0, 67, 0
5, 25913, Note_on_c, 0, 65, 0
5, 25923, Note_on_c, 0, 67, 57
5, 25924, Note_on_c, 0, 74, 70
5, 25945, Note_on_c, 0, 74, 0
5, 25956, Note_on_c, 0, 67, 0
5, 25967, Note_on_c, 0, 62, 24
5, 25973, Note_on_c, 0, 62, 0
5, 25981, Note_on_c, 0, 65, 69
5, 26028, Note_on_c, 0, 65, 0
5, 26041, Note_on_c, 0, 62, 50
5, 26065, Note_on_c, 0, 62, 0
5, 26079, Note_on_c, 0, 62, 63
5, 26089, Note_on_c, 0, 62, 0
5, 26137, Note_on_c, 0, 55, 71
5, 26137, Note_on_c, 0, 47, 54
5, 26144, Note_on_c, 0, 47, 0
5, 26148, Note_on_c, 0, 55, 0
5, 26220, Note_on_c, 0, 62, 64
5, 26222, Note_on_c, 0, 59, 55
5, 26222, Note_on_c, 0, 56, 34
5, 26224, Note_on_c, 0, 53, 42
5, 26264, Note_on_c, 0, 62, 0
5, 26287, Note_on_c, 0, 59, 0
5, 26295, Note_on_c, 0, 56, 0
5, 26301, Note_on_c, 0, 80, 50
5, 26305, Note_on_c, 0, 53, 0
5, 26316, Note_on_c, 0, 77, 43
5, 26322, Note_on_c, 0, 53, 22
5, 26323, Note_on_c, 0, 56, 28
5, 26325, Note_on_c, 0, 59, 34
5, 26329, Note_on_c, 0, 80, 0
5, 26335, Note_on_c, 0, 59, 0
5, 26337, Note_on_c, 0, 77, 0
5, 26338, Note_on_c, 0, 56, 0
5, 26339, Note_on_c, 0, 53, 0
5, 26357, Note_on_c, 0, 74, 54
5, 26391, Note_on_c, 0, 74, 0
5, 26490, Note_on_c, 0, 56, 46
5, 26490, Note_on_c, 0, 62, 63
5, 26492, Note_on_c, 0, 59, 56
5, 26497, Note_on_c, 0, 62, 0
5, 26499, Note_on_c, 0, 59, 0
5, 26509, Note_on_c, 0, 56, 0
5, 26525, Note_on_c, 0, 77, 60
5, 26535, Note_on_c, 0, 77, 0
5, 26540, Note_on_c, 0, 80, 47
5, 26551, Note_on_c, 0, 77, 60
5, 26564, Note_on_c, 0, 80, 0
5, 26572, Note_on_c, 0, 77, 0
5, 26574, Note_on_c, 0, 74, 47
5, 26588, Note_on_c, 0, 74, 0
5, 26608, Note_on_c, 0, 73, 57
5, 26627, Note_on_c, 0, 59, 35
5, 26628, Note_on_c, 0, 73, 0
5, 26635, Note_on_c, 0, 59, 0
5, 26639, Note_on_c, 0, 72, 47
5, 26669, Note_on_c, 0, 72, 0
5, 26671, Note_on_c, 0, 71, 70
5, 26682, Note_on_c, 0, 56, 25
5, 26684, Note_on_c, 0, 59, 35
5, 26690, Note_on_c, 0, 71, 0
5, 26692, Note_on_c, 0, 59, 0
5, 26700, Note_on_c, 0, 56, 0
5, 26708, Note_on_c, 0, 68, 19
5, 26729, Note_on_c, 0, 68, 0
5, 26736, Note_on_c, 0, 71, 76
5, 26753, Note_on_c, 0, 71, 0
5, 26761, Note_on_c, 0, 74, 90
5, 26795, Note_on_c, 0, 74, 0
5, 26805, Note_on_c, 0, 71, 40
5, 26812, Note_on_c, 0, 71, 0
5, 26825, Note_on_c, 0, 72, 61
5, 26831, Note_on_c, 0, 71, 22
5, 26837, Note_on_c, 0, 71, 0
5, 26854, Note_on_c, 0, 72, 0
5, 26857, Note_on_c, 0, 67, 71
5, 26877, Note_on_c, 0, 67, 0
5, 26886, Note_on_c, 0, 64, 33
5, 26915, Note_on_c, 0, 64, 0
5, 26942, Note_on_c, 0, 64, 58
5, 26980, Note_on_c, 0, 64, 0
5, 26997, Note_on_c, 0, 63, 61
5, 26999, Note_on_c, 0, 72, 56
5, 26999, Note_on_c, 0, 68, 55
5, 27000, Note_on_c, 0, 64, 65
5, 27026, Note_on_c, 0, 64, 0
5, 27028, Note_on_c, 0, 68, 0
5, 27033, Note_on_c, 0, 72, 0
5, 27034, Note_on_c, 0, 63, 0
5, 27059, Note_on_c, 0, 63, 51
5, 27060, Note_on_c, 0, 72, 55
5, 27062, Note_on_c, 0, 68, 59
5, 27063, Note_on_c, 0, 58, 53
5, 27063, Note_on_c, 0, 64, 66
5, 27089, Note_on_c, 0, 64, 0
5, 27092, Note_on_c, 0, 68, 0
5, 27096, Note_on_c, 0, 63, 0
5, 27096, Note_on_c, 0, 72, 0
5, 27108, Note_on_c, 0, 58, 0
5, 27118, Note_on_c, 0, 52, 47
5, 27141, Note_on_c, 0, 52, 0
5, 27155, Note_on_c, 0, 72, 58
5, 27155, Note_on_c, 0, 68, 59
5, 27156, Note_on_c, 0, 63, 56
5, 27156, Note_on_c, 0, 64, 62
5, 27158, Note_on_c, 0, 58, 35
5, 27170, Note_on_c, 0, 64, 0
5, 27170, Note_on_c, 0, 68, 0
5, 27178, Note_on_c, 0, 63, 0
5, 27179, Note_on_c, 0, 72, 0
5, 27184, Note_on_c, 0, 72, 24
5, 27184, Note_on_c, 0, 68, 36
5, 27184, Note_on_c, 0, 64, 47
5, 27185, Note_on_c, 0, 63, 38
5, 27212, Note_on_c, 0, 64, 0
5, 27214, Note_on_c, 0, 68, 0
5, 27218, Note_on_c, 0, 72, 0
5, 27219, Note_on_c, 0, 63, 0
5, 27226, Note_on_c, 0, 58, 0
5, 27243, Note_on_c, 0, 72, 55
5, 27243, Note_on_c, 0, 68, 50
5, 27244, Note_on_c, 0, 64, 58
5, 27267, Note_on_c, 0, 64, 0
5, 27269, Note_on_c, 0, 68, 0
5, 27274, Note_on_c, 0, 72, 0
5, 27299, Note_on_c, 0, 63, 36
5, 27300, Note_on_c, 0, 72, 56
5, 27301, Note_on_c, 0, 68, 59
5, 27301, Note_on_c, 0, 58, 50
5, 27303, Note_on_c, 0, 64, 62
5, 27321, Note_on_c, 0, 63, 0
5, 27322, Note_on_c, 0, 72, 0
5, 27330, Note_on_c, 0, 64, 0
5, 27331, Note_on_c, 0, 68, 0
5, 27343, Note_on_c, 0, 58, 0
5, 27360, Note_on_c, 0, 72, 57
5, 27361, Note_on_c, 0, 57, 50
5, 27362, Note_on_c, 0, 67, 70
5, 27363, Note_on_c, 0, 62, 64
5, 27387, Note_on_c, 0, 62, 0
5, 27389, Note_on_c, 0, 67, 0
5, 27392, Note_on_c, 0, 72, 0
5, 27400, Note_on_c, 0, 57, 0
5, 27425, Note_on_c, 0, 56, 37
5, 27458, Note_on_c, 0, 72, 60
5, 27459, Note_on_c, 0, 67, 71
5, 27461, Note_on_c, 0, 62, 62
5, 27463, Note_on_c, 0, 56, 0
5, 27464, Note_on_c, 0, 57, 53
5, 27478, Note_on_c, 0, 72, 0
5, 27478, Note_on_c, 0, 67, 0
5, 27482, Note_on_c, 0, 62, 0
5, 27485, Note_on_c, 0, 57, 0
5, 27575, Note_on_c, 0, 67, 67
5, 27577, Note_on_c, 0, 62, 62
5, 27578, Note_on_c, 0, 57, 54
5, 27580, Note_on_c, 0, 52, 38
5, 27590, Note_on_c, 0, 57, 0
5, 27592, Note_on_c, 0, 67, 0
5, 27592, Note_on_c, 0, 62, 0
5, 27592, Note_on_c, 0, 52, 0
5, 27603, Note_on_c, 0, 51, 42
5, 27614, Note_on_c, 0, 66, 21
5, 27621, Note_on_c, 0, 66, 0
5, 27635, Note_on_c, 0, 67, 63
5, 27637, Note_on_c, 0, 57, 55
5, 27638, Note_on_c, 0, 51, 0
5, 27638, Note_on_c, 0, 62, 54
5, 27639, Note_on_c, 0, 52, 49
5, 27643, Note_on_c, 0, 57, 0
5, 27645, Note_on_c, 0, 62, 0
5, 27654, Note_on_c, 0, 52, 0
5, 27656, Note_on_c, 0, 67, 0
5, 27702, Note_on_c, 0, 51, 49
5, 27713, Note_on_c, 0, 51, 0
5, 27721, Note_on_c, 0, 72, 78
5, 27721, Note_on_c, 0, 79, 80
5, 27763, Note_on_c, 0, 72, 0
5, 27764, Note_on_c, 0, 79, 0
5, 27777, Note_on_c, 0, 76, 60
5, 27777, Note_on_c, 0, 67, 55
5, 27779, Note_on_c, 0, 72, 46
5, 27785, Note_on_c, 0, 67, 0
5, 27787, Note_on_c, 0, 72, 0
5, 27799, Note_on_c, 0, 76, 0
5, 27836, Note_on_c, 0, 46, 55
5, 27839, Note_on_c, 0, 56, 42
5, 27851, Note_on_c, 0, 46, 0
5, 27852, Note_on_c, 0, 56, 0
5, 27932, Note_on_c, 0, 56, 70
5, 27933, Note_on_c, 0, 62, 74
5, 27934, Note_on_c, 0, 67, 73
5, 27937, Note_on_c, 0, 65, 55
5, 27941, Note_on_c, 0, 67, 0
5, 27943, Note_on_c, 0, 65, 0
5, 27946, Note_on_c, 0, 56, 0
5, 27948, Note_on_c, 0, 62, 0
5, 27955, Note_on_c, 0, 87, 79
5, 27957, Note_on_c, 0, 75, 83
5, 27960, Note_on_c, 0, 81, 57
5, 27964, Note_on_c, 0, 84, 37
5, 27972, Note_on_c, 0, 84, 0
5, 27979, Note_on_c, 0, 81, 0
5, 27985, Note_on_c, 0, 75, 0
5, 27987, Note_on_c, 0, 87, 0
5, 27992, Note_on_c, 0, 88, 58
5, 27992, Note_on_c, 0, 81, 30
5, 27992, Note_on_c, 0, 76, 61
5, 27995, Note_on_c, 0, 84, 30
5, 27995, Note_on_c, 0, 86, 55
5, 28008, Note_on_c, 0, 76, 0
5, 28011, Note_on_c, 0, 84, 0
5, 28011, Note_on_c, 0, 81, 0
5, 28012, Note_on_c, 0, 86, 0
5, 28017, Note_on_c, 0, 88, 0
5, 28060, Note_on_c, 0, 67, 69
5, 28062, Note_on_c, 0, 62, 61
5, 28066, Note_on_c, 0, 67, 0
5, 28071, Note_on_c, 0, 60, 22
5, 28077, Note_on_c, 0, 60, 0
5, 28077, Note_on_c, 0, 62, 0
5, 28083, Note_on_c, 0, 90, 67
5, 28083, Note_on_c, 0, 78, 71
5, 28086, Note_on_c, 0, 87, 51
5, 28108, Note_on_c, 0, 87, 0
5, 28109, Note_on_c, 0, 78, 0
5, 28115, Note_on_c, 0, 90, 0
5, 28118, Note_on_c, 0, 91, 68
5, 28119, Note_on_c, 0, 87, 33
5, 28120, Note_on_c, 0, 79, 58
5, 28122, Note_on_c, 0, 84, 60
5, 28123, Note_on_c, 0, 89, 45
5, 28135, Note_on_c, 0, 79, 0
5, 28136, Note_on_c, 0, 84, 0
5, 28136, Note_on_c, 0, 91, 0
5, 28137, Note_on_c, 0, 87, 0
5, 28140, Note_on_c, 0, 89, 0
5, 28178, Note_on_c, 0, 67, 78
5, 28180, Note_on_c, 0, 62, 60
5, 28182, Note_on_c, 0, 60, 52
5, 28188, Note_on_c, 0, 60, 0
5, 28188, Note_on_c, 0, 67, 0
5, 28196, Note_on_c, 0, 62, 0
5, 28201, Note_on_c, 0, 87, 57
5, 28202, Note_on_c, 0, 75, 64
5, 28208, Note_on_c, 0, 81, 34
5, 28228, Note_on_c, 0, 75, 0
5, 28230, Note_on_c, 0, 87, 0
5, 28237, Note_on_c, 0, 88, 62
5, 28238, Note_on_c, 0, 76, 58
5, 28240, Note_on_c, 0, 62, 54
5, 28243, Note_on_c, 0, 84, 33
5, 28245, Note_on_c, 0, 86, 33
5, 28246, Note_on_c, 0, 62, 0
5, 28253, Note_on_c, 0, 76, 0
5, 28254, Note_on_c, 0, 84, 0
5, 28255, Note_on_c, 0, 86, 0
5, 28256, Note_on_c, 0, 81, 0
5, 28259, Note_on_c, 0, 88, 0
5, 28295, Note_on_c, 0, 62, 88
5, 28296, Note_on_c, 0, 55, 73
5, 28297, Note_on_c, 0, 59, 68
5, 28298, Note_on_c, 0, 52, 57
5, 28303, Note_on_c, 0, 59, 0
5, 28304, Note_on_c, 0, 52, 0
5, 28306, Note_on_c, 0, 62, 0
5, 28309, Note_on_c, 0, 55, 0
5, 28319, Note_on_c, 0, 90, 59
5, 28320, Note_on_c, 0, 78, 60
5, 28320, Note_on_c, 0, 85, 68
5, 28348, Note_on_c, 0, 78, 0
5, 28351, Note_on_c, 0, 90, 0
5, 28357, Note_on_c, 0, 85, 0
5, 28358, Note_on_c, 0, 91, 69
5, 28360, Note_on_c, 0, 86, 72
5, 28361, Note_on_c, 0, 79, 48
5, 28362, Note_on_c, 0, 89, 44
5, 28372, Note_on_c, 0, 86, 0
5, 28374, Note_on_c, 0, 91, 0
5, 28377, Note_on_c, 0, 89, 0
5, 28378, Note_on_c, 0, 79, 0
5, 28414, Note_on_c, 0, 62, 87
5, 28414, Note_on_c, 0, 52, 73
5, 28416, Note_on_c, 0, 59, 74
5, 28416, Note_on_c, 0, 55, 70
5, 28417, Note_on_c, 0, 60, 66
5, 28423, Note_on_c, 0, 60, 0
5, 28424, Note_on_c, 0, 59, 0
5, 28425, Note_on_c, 0, 62, 0
5, 28429, Note_on_c, 0, 52, 0
5, 28433, Note_on_c, 0, 55, 0
5, 28435, Note_on_c, 0, 85, 67
5, 28438, Note_on_c, 0, 73, 55
5, 28439, Note_on_c, 0, 78, 46
5, 28445, Note_on_c, 0, 78, 0
5, 28470, Note_on_c, 0, 85, 0
5, 28472, Note_on_c, 0, 73, 0
5, 28476, Note_on_c, 0, 74, 63
5, 28477, Note_on_c, 0, 86, 69
5, 28480, Note_on_c, 0, 81, 40
5, 28483, Note_on_c, 0, 84, 35
5, 28490, Note_on_c, 0, 84, 0
5, 28492, Note_on_c, 0, 81, 0
5, 28493, Note_on_c, 0, 86, 0
5, 28494, Note_on_c, 0, 74, 0
5, 28537, Note_on_c, 0, 62, 83
5, 28538, Note_on_c, 0, 59, 67
5, 28541, Note_on_c, 0, 55, 64
5, 28543, Note_on_c, 0, 52, 33
5, 28549, Note_on_c, 0, 62, 0
5, 28550, Note_on_c, 0, 52, 0
5, 28551, Note_on_c, 0, 59, 0
5, 28558, Note_on_c, 0, 55, 0
5, 28558, Note_on_c, 0, 82, 48
5, 28560, Note_on_c, 0, 70, 61
5, 28569, Note_on_c, 0, 76, 29
5, 28570, Note_on_c, 0, 79, 25
5, 28584, Note_on_c, 0, 79, 0
5, 28586, Note_on_c, 0, 76, 0
5, 28586, Note_on_c, 0, 82, 0
5, 28590, Note_on_c, 0, 70, 0
5, 28598, Note_on_c, 0, 76, 36
5, 28598, Note_on_c, 0, 83, 66
5, 28599, Note_on_c, 0, 71, 51
5, 28605, Note_on_c, 0, 79, 22
5, 28612, Note_on_c, 0, 79, 0
5, 28612, Note_on_c, 0, 71, 0
5, 28617, Note_on_c, 0, 76, 0
5, 28618, Note_on_c, 0, 83, 0
5, 28657, Note_on_c, 0, 62, 66
5, 28659, Note_on_c, 0, 59, 57
5, 28662, Note_on_c, 0, 62, 0
5, 28662, Note_on_c, 0, 55, 49
5, 28674, Note_on_c, 0, 59, 0
5, 28678, Note_on_c, 0, 79, 58
5, 28679, Note_on_c, 0, 55, 0
5, 28682, Note_on_c, 0, 67, 62
5, 28682, Note_on_c, 0, 74, 60
5, 28701, Note_on_c, 0, 79, 0
5, 28702, Note_on_c, 0, 67, 0
5, 28710, Note_on_c, 0, 74, 0
5, 28720, Note_on_c, 0, 62, 58
5, 28721, Note_on_c, 0, 52, 42
5, 28722, Note_on_c, 0, 59, 50
5, 28726, Note_on_c, 0, 55, 55
5, 28729, Note_on_c, 0, 62, 0
5, 28737, Note_on_c, 0, 80, 68
5, 28738, Note_on_c, 0, 74, 71
5, 28739, Note_on_c, 0, 68, 70
5, 28760, Note_on_c, 0, 55, 0
5, 28762, Note_on_c, 0, 52, 0
5, 28762, Note_on_c, 0, 59, 0
5, 28766, Note_on_c, 0, 74, 0
5, 28770, Note_on_c, 0, 68, 0
5, 28775, Note_on_c, 0, 80, 0
5, 28797, Note_on_c, 0, 53, 32
5, 28800, Note_on_c, 0, 64, 58
5, 28801, Note_on_c, 0, 74, 60
5, 28803, Note_on_c, 0, 81, 40
5, 28804, Note_on_c, 0, 69, 55
5, 28805, Note_on_c, 0, 57, 44
5, 28806, Note_on_c, 0, 77, 37
5, 28807, Note_on_c, 0, 60, 42
5, 28811, Note_on_c, 0, 69, 0
5, 28816, Note_on_c, 0, 74, 0
5, 28821, Note_on_c, 0, 77, 0
5, 28822, Note_on_c, 0, 64, 0
5, 28823, Note_on_c, 0, 81, 0
5, 28828, Note_on_c, 0, 60, 0
5, 28857, Note_on_c, 0, 57, 0
5, 28858, Note_on_c, 0, 53, 0
5, 28862, Note_on_c, 0, 72, 80
5, 28863, Note_on_c, 0, 84, 82
5, 28863, Note_on_c, 0, 79, 72
5, 28876, Note_on_c, 0, 72, 0
5, 28882, Note_on_c, 0, 79, 0
5, 28883, Note_on_c, 0, 84, 0
5, 28923, Note_on_c, 0, 64, 62
5, 28924, Note_on_c, 0, 86, 89
5, 28924, Note_on_c, 0, 53, 44
5, 28925, Note_on_c, 0, 74, 85
5, 28926, Note_on_c, 0, 60, 54
5, 28927, Note_on_c, 0, 57, 55
5, 28929, Note_on_c, 0, 81, 53
5, 28939, Note_on_c, 0, 64, 0
5, 28950, Note_on_c, 0, 53, 0
5, 28971, Note_on_c, 0, 60, 0
5, 28982, Note_on_c, 0, 57, 0
5, 28996, Note_on_c, 0, 86, 0
5, 28997, Note_on_c, 0, 74, 0
5, 29000, Note_on_c, 0, 81, 0
5, 29018, Note_on_c, 0, 84, 65
5, 29020, Note_on_c, 0, 64, 50
5, 29021, Note_on_c, 0, 79, 56
5, 29021, Note_on_c, 0, 60, 48
5, 29022, Note_on_c, 0, 72, 36
5, 29023, Note_on_c, 0, 57, 38
5, 29029, Note_on_c, 0, 64, 0
5, 29031, Note_on_c, 0, 60, 0
5, 29034, Note_on_c, 0, 72, 0
5, 29036, Note_on_c, 0, 79, 0
5, 29038, Note_on_c, 0, 57, 0
5, 29040, Note_on_c, 0, 84, 0
5, 29098, Note_on_c, 0, 64, 44
5, 29100, Note_on_c, 0, 53, 29
5, 29100, Note_on_c, 0, 60, 40
5, 29102, Note_on_c, 0, 57, 36
5, 29137, Note_on_c, 0, 57, 0
5, 29140, Note_on_c, 0, 64, 0
5, 29147, Note_on_c, 0, 60, 0
5, 29155, Note_on_c, 0, 53, 0
5, 29191, Note_on_c, 0, 53, 50
5, 29192, Note_on_c, 0, 60, 57
5, 29193, Note_on_c, 0, 64, 53
5, 29194, Note_on_c, 0, 57, 51
5, 29205, Note_on_c, 0, 64, 0
5, 29207, Note_on_c, 0, 60, 0
5, 29211, Note_on_c, 0, 57, 0
5, 29221, Note_on_c, 0, 53, 0
5, 29275, Note_on_c, 0, 93, 67
5, 29275, Note_on_c, 0, 62, 43
5, 29277, Note_on_c, 0, 52, 32
5, 29278, Note_on_c, 0, 55, 54
5, 29280, Note_on_c, 0, 59, 29
5, 29285, Note_on_c, 0, 94, 31
5, 29290, Note_on_c, 0, 62, 0
5, 29300, Note_on_c, 0, 93, 0
5, 29306, Note_on_c, 0, 95, 55
5, 29307, Note_on_c, 0, 94, 0
5, 29312, Note_on_c, 0, 52, 0
5, 29317, Note_on_c, 0, 95, 0
5, 29336, Note_on_c, 0, 59, 0
5, 29339, Note_on_c, 0, 55, 0
5, 29343, Note_on_c, 0, 100, 32
5, 29350, Note_on_c, 0, 100, 0
5, 29397, Note_on_c, 0, 62, 62
5, 29401, Note_on_c, 0, 59, 42
5, 29401, Note_on_c, 0, 55, 49
5, 29406, Note_on_c, 0, 52, 20
5, 29412, Note_on_c, 0, 52, 0
5, 29413, Note_on_c, 0, 62, 0
5, 29416, Note_on_c, 0, 55, 0
5, 29421, Note_on_c, 0, 59, 0
5, 29489, Note_on_c, 0, 65, 50
5, 29489, Note_on_c, 0, 61, 37
5, 29491, Note_on_c, 0, 55, 50
5, 29491, Note_on_c, 0, 60, 54
5, 29543, Note_on_c, 0, 65, 0
5, 29550, Note_on_c, 0, 61, 0
5, 29554, Note_on_c, 0, 72, 53
5, 29563, Note_on_c, 0, 55, 0
5, 29570, Note_on_c, 0, 72, 0
5, 29570, Note_on_c, 0, 60, 0
5, 29575, Note_on_c, 0, 73, 34
5, 29582, Note_on_c, 0, 73, 0
5, 29602, Note_on_c, 0, 77, 48
5, 29620, Note_on_c, 0, 82, 60
5, 29623, Note_on_c, 0, 77, 0
5, 29636, Note_on_c, 0, 82, 0
5, 29641, Note_on_c, 0, 84, 80
5, 29647, Note_on_c, 0, 65, 45
5, 29647, Note_on_c, 0, 61, 38
5, 29650, Note_on_c, 0, 60, 50
5, 29651, Note_on_c, 0, 55, 35
5, 29661, Note_on_c, 0, 82, 71
5, 29670, Note_on_c, 0, 84, 0
5, 29695, Note_on_c, 0, 82, 0
5, 29696, Note_on_c, 0, 61, 0
5, 29701, Note_on_c, 0, 65, 0
5, 29707, Note_on_c, 0, 60, 0
5, 29713, Note_on_c, 0, 77, 57
5, 29713, Note_on_c, 0, 61, 31
5, 29721, Note_on_c, 0, 61, 0
5, 29723, Note_on_c, 0, 55, 0
5, 29762, Note_on_c, 0, 53, 37
5, 29763, Note_on_c, 0, 57, 48
5, 29764, Note_on_c, 0, 60, 49
5, 29764, Note_on_c, 0, 64, 29
5, 29794, Note_on_c, 0, 64, 0
5, 29795, Note_on_c, 0, 60, 0
5, 29800, Note_on_c, 0, 57, 0
5, 29815, Note_on_c, 0, 53, 0
5, 29848, Note_on_c, 0, 77, 0
5, 29853, Note_on_c, 0, 64, 41
5, 29855, Note_on_c, 0, 60, 50
5, 29855, Note_on_c, 0, 53, 28
5, 29857, Note_on_c, 0, 76, 60
5, 29858, Note_on_c, 0, 57, 35
5, 29860, Note_on_c, 0, 64, 0
5, 29872, Note_on_c, 0, 76, 0
5, 29873, Note_on_c, 0, 60, 0
5, 29874, Note_on_c, 0, 53, 0
5, 29882, Note_on_c, 0, 57, 0
5, 29883, Note_on_c, 0, 79, 77
5, 29906, Note_on_c, 0, 79, 0
5, 29915, Note_on_c, 0, 78, 68
5, 29919, Note_on_c, 0, 60, 51
5, 29919, Note_on_c, 0, 53, 43
5, 29921, Note_on_c, 0, 64, 29
5, 29921, Note_on_c, 0, 57, 40
5, 29927, Note_on_c, 0, 64, 0
5, 29932, Note_on_c, 0, 78, 0
5, 29934, Note_on_c, 0, 60, 0
5, 29941, Note_on_c, 0, 53, 0
5, 29941, Note_on_c, 0, 77, 46
5, 29953, Note_on_c, 0, 57, 0
5, 29972, Note_on_c, 0, 77, 0
5, 29980, Note_on_c, 0, 72, 35
5, 29988, Note_on_c, 0, 72, 0
5, 29995, Note_on_c, 0, 53, 35
5, 29996, Note_on_c, 0, 64, 29
5, 29996, Note_on_c, 0, 59, 41
5, 29998, Note_on_c, 0, 76, 71
5, 30022, Note_on_c, 0, 64, 0
5, 30043, Note_on_c, 0, 76, 0
5, 30045, Note_on_c, 0, 72, 28
5, 30053, Note_on_c, 0, 72, 0
5, 30058, Note_on_c, 0, 53, 0
5, 30059, Note_on_c, 0, 75, 71
5, 30062, Note_on_c, 0, 59, 0
5, 30097, Note_on_c, 0, 59, 44
5, 30102, Note_on_c, 0, 75, 0
5, 30103, Note_on_c, 0, 53, 27
5, 30115, Note_on_c, 0, 53, 0
5, 30117, Note_on_c, 0, 59, 0
5, 30119, Note_on_c, 0, 74, 80
5, 30163, Note_on_c, 0, 74, 0
5, 30163, Note_on_c, 0, 53, 26
5, 30163, Note_on_c, 0, 59, 37
5, 30177, Note_on_c, 0, 59, 0
5, 30179, Note_on_c, 0, 53, 0
5, 30179, Note_on_c, 0, 72, 71
5, 30216, Note_on_c, 0, 62, 38
5, 30220, Note_on_c, 0, 67, 39
5, 30222, Note_on_c, 0, 72, 0
5, 30223, Note_on_c, 0, 59, 24
5, 30225, Note_on_c, 0, 62, 0
5, 30227, Note_on_c, 0, 55, 32
5, 30228, Note_on_c, 0, 67, 0
5, 30234, Note_on_c, 0, 59, 0
5, 30239, Note_on_c, 0, 55, 0
5, 30240, Note_on_c, 0, 71, 79
5, 30291, Note_on_c, 0, 71, 0
5, 30301, Note_on_c, 0, 67, 50
5, 30330, Note_on_c, 0, 67, 0
5, 30359, Note_on_c, 0, 67, 63
5, 30388, Note_on_c, 0, 67, 0
5, 30410, Note_on_c, 0, 59, 27
5, 30415, Note_on_c, 0, 55, 29
5, 30419, Note_on_c, 0, 67, 70
5, 30425, Note_on_c, 0, 59, 0
5, 30432, Note_on_c, 0, 55, 0
5, 30447, Note_on_c, 0, 67, 0
5, 30479, Note_on_c, 0, 67, 68
5, 30517, Note_on_c, 0, 62, 48
5, 30517, Note_on_c, 0, 59, 38
5, 30519, Note_on_c, 0, 52, 29
5, 30520, Note_on_c, 0, 55, 39
5, 30603, Note_on_c, 0, 59, 0
5, 30606, Note_on_c, 0, 62, 0
5, 30626, Note_on_c, 0, 67, 0
5, 30637, Note_on_c, 0, 55, 0
5, 30651, Note_on_c, 0, 52, 0
5, 30693, Note_on_c, 0, 51, 53
5, 30700, Note_on_c, 0, 48, 32
5, 30710, Note_on_c, 0, 51, 0
5, 30716, Note_on_c, 0, 48, 0
5, 30717, Note_on_c, 0, 52, 63
5, 30717, Note_on_c, 0, 49, 49
5, 30728, Note_on_c, 0, 52, 0
5, 30739, Note_on_c, 0, 54, 56
5, 30741, Note_on_c, 0, 49, 0
5, 30741, Note_on_c, 0, 51, 56
5, 30749, Note_on_c, 0, 54, 0
5, 30752, Note_on_c, 0, 51, 0
5, 30757, Note_on_c, 0, 55, 68
5, 30770, Note_on_c, 0, 55, 0
5, 30774, Note_on_c, 0, 54, 46
5, 30775, Note_on_c, 0, 57, 71
5, 30793, Note_on_c, 0, 57, 0
5, 30795, Note_on_c, 0, 58, 58
5, 30806, Note_on_c, 0, 54, 0
5, 30808, Note_on_c, 0, 58, 0
5, 30816, Note_on_c, 0, 60, 67
5, 30829, Note_on_c, 0, 60, 0
5, 30831, Note_on_c, 0, 61, 62
5, 30847, Note_on_c, 0, 61, 0
5, 30847, Note_on_c, 0, 63, 49
5, 30860, Note_on_c, 0, 63, 0
5, 30868, Note_on_c, 0, 64, 63
5, 30873, Note_on_c, 0, 62, 46
5, 30880, Note_on_c, 0, 62, 0
5, 30880, Note_on_c, 0, 61, 38
5, 30882, Note_on_c, 0, 64, 0
5, 30886, Note_on_c, 0, 66, 57
5, 30887, Note_on_c, 0, 61, 0
5, 30899, Note_on_c, 0, 66, 0
5, 30907, Note_on_c, 0, 67, 53
5, 30916, Note_on_c, 0, 67, 0
5, 30918, Note_on_c, 0, 68, 39
5, 30923, Note_on_c, 0, 68, 0
5, 30924, Note_on_c, 0, 69, 60
5, 30940, Note_on_c, 0, 69, 0
5, 30940, Note_on_c, 0, 70, 62
5, 30949, Note_on_c, 0, 70, 0
5, 30957, Note_on_c, 0, 72, 63
5, 30958, Note_on_c, 0, 63, 53
5, 30959, Note_on_c, 0, 58, 42
5, 30963, Note_on_c, 0, 52, 37
5, 30971, Note_on_c, 0, 72, 0
5, 30972, Note_on_c, 0, 73, 40
5, 30987, Note_on_c, 0, 73, 0
5, 30989, Note_on_c, 0, 75, 34
5, 30994, Note_on_c, 0, 63, 0
5, 30996, Note_on_c, 0, 75, 0
5, 31002, Note_on_c, 0, 76, 55
5, 31015, Note_on_c, 0, 76, 0
5, 31016, Note_on_c, 0, 78, 57
5, 31021, Note_on_c, 0, 52, 0
5, 31027, Note_on_c, 0, 78, 0
5, 31031, Note_on_c, 0, 58, 0
5, 31039, Note_on_c, 0, 79, 40
5, 31050, Note_on_c, 0, 79, 0
5, 31054, Note_on_c, 0, 81, 25
5, 31067, Note_on_c, 0, 81, 0
5, 31067, Note_on_c, 0, 82, 56
5, 31071, Note_on_c, 0, 58, 27
5, 31073, Note_on_c, 0, 82, 0
5, 31079, Note_on_c, 0, 58, 0
5, 31084, Note_on_c, 0, 84, 62
5, 31096, Note_on_c, 0, 84, 0
5, 31097, Note_on_c, 0, 85, 67
5, 31116, Note_on_c, 0, 85, 0
5, 31116, Note_on_c, 0, 87, 62
5, 31126, Note_on_c, 0, 87, 0
5, 31126, Note_on_c, 0, 63, 79
5, 31128, Note_on_c, 0, 58, 62
5, 31130, Note_on_c, 0, 52, 54
5, 31133, Note_on_c, 0, 86, 54
5, 31134, Note_on_c, 0, 88, 50
5, 31139, Note_on_c, 0, 86, 0
5, 31148, Note_on_c, 0, 88, 0
5, 31149, Note_on_c, 0, 89, 45
5, 31158, Note_on_c, 0, 90, 57
5, 31161, Note_on_c, 0, 89, 0
5, 31161, Note_on_c, 0, 52, 0
5, 31171, Note_on_c, 0, 63, 0
5, 31171, Note_on_c, 0, 58, 0
5, 31172, Note_on_c, 0, 90, 0
5, 31184, Note_on_c, 0, 93, 62
5, 31191, Note_on_c, 0, 93, 0
5, 31200, Note_on_c, 0, 95, 75
5, 31222, Note_on_c, 0, 95, 0
5, 31264, Note_on_c, 0, 57, 52
5, 31264, Note_on_c, 0, 65, 60
5, 31264, Note_on_c, 0, 62, 59
5, 31280, Note_on_c, 0, 65, 0
5, 31287, Note_on_c, 0, 57, 0
5, 31293, Note_on_c, 0, 62, 0
5, 31327, Note_on_c, 0, 93, 81
5, 31327, Note_on_c, 0, 81, 73
5, 31327, Note_on_c, 0, 86, 75
5, 31328, Note_on_c, 0, 89, 58
5, 31343, Note_on_c, 0, 86, 0
5, 31344, Note_on_c, 0, 81, 0
5, 31348, Note_on_c, 0, 89, 0
5, 31349, Note_on_c, 0, 93, 0
5, 31362, Note_on_c, 0, 93, 74
5, 31365, Note_on_c, 0, 81, 64
5, 31365, Note_on_c, 0, 89, 48
5, 31367, Note_on_c, 0, 86, 64
5, 31368, Note_on_c, 0, 65, 57
5, 31369, Note_on_c, 0, 62, 53
5, 31371, Note_on_c, 0, 57, 35
5, 31373, Note_on_c, 0, 65, 0
5, 31382, Note_on_c, 0, 57, 0
5, 31387, Note_on_c, 0, 93, 0
5, 31388, Note_on_c, 0, 81, 0
5, 31389, Note_on_c, 0, 86, 0
5, 31389, Note_on_c, 0, 89, 0
5, 31393, Note_on_c, 0, 62, 0
5, 31417, Note_on_c, 0, 91, 58
5, 31428, Note_on_c, 0, 86, 24
5, 31431, Note_on_c, 0, 91, 0
5, 31435, Note_on_c, 0, 86, 0
5, 31445, Note_on_c, 0, 65, 55
5, 31447, Note_on_c, 0, 80, 59
5, 31448, Note_on_c, 0, 86, 65
5, 31448, Note_on_c, 0, 62, 53
5, 31448, Note_on_c, 0, 57, 44
5, 31449, Note_on_c, 0, 92, 47
5, 31453, Note_on_c, 0, 89, 34
5, 31458, Note_on_c, 0, 93, 25
5, 31460, Note_on_c, 0, 65, 0
5, 31467, Note_on_c, 0, 80, 0
5, 31471, Note_on_c, 0, 57, 0
5, 31471, Note_on_c, 0, 92, 0
5, 31476, Note_on_c, 0, 93, 0
5, 31482, Note_on_c, 0, 89, 0
5, 31482, Note_on_c, 0, 86, 0
5, 31494, Note_on_c, 0, 62, 0
5, 31502, Note_on_c, 0, 89, 41
5, 31504, Note_on_c, 0, 77, 58
5, 31530, Note_on_c, 0, 77, 0
5, 31533, Note_on_c, 0, 89, 0
5, 31565, Note_on_c, 0, 57, 42
5, 31566, Note_on_c, 0, 65, 36
5, 31566, Note_on_c, 0, 77, 57
5, 31567, Note_on_c, 0, 62, 40
5, 31567, Note_on_c, 0, 89, 51
5, 31568, Note_on_c, 0, 84, 50
5, 31578, Note_on_c, 0, 84, 0
5, 31579, Note_on_c, 0, 77, 0
5, 31580, Note_on_c, 0, 89, 0
5, 31583, Note_on_c, 0, 65, 0
5, 31594, Note_on_c, 0, 62, 0
5, 31610, Note_on_c, 0, 57, 0
5, 31659, Note_on_c, 0, 62, 56
5, 31660, Note_on_c, 0, 56, 52
5, 31660, Note_on_c, 0, 65, 55
5, 31669, Note_on_c, 0, 65, 0
5, 31675, Note_on_c, 0, 62, 0
5, 31679, Note_on_c, 0, 56, 0
5, 31740, Note_on_c, 0, 56, 55
5, 31741, Note_on_c, 0, 65, 50
5, 31742, Note_on_c, 0, 62, 51
5, 31807, Note_on_c, 0, 65, 0
5, 31815, Note_on_c, 0, 56, 0
5, 31818, Note_on_c, 0, 62, 0
5, 31841, Note_on_c, 0, 98, 96
5, 31843, Note_on_c, 0, 62, 64
5, 31843, Note_on_c, 0, 65, 66
5, 31844, Note_on_c, 0, 56, 58
5, 31848, Note_on_c, 0, 96, 46
5, 31854, Note_on_c, 0, 96, 0
5, 31865, Note_on_c, 0, 65, 0
5, 31871, Note_on_c, 0, 62, 0
5, 31873, Note_on_c, 0, 99, 37
5, 31876, Note_on_c, 0, 56, 0
5, 31882, Note_on_c, 0, 98, 0
5, 31884, Note_on_c, 0, 100, 70
5, 31893, Note_on_c, 0, 99, 0
5, 31899, Note_on_c, 0, 100, 0
5, 31907, Note_on_c, 0, 62, 22
5, 31908, Note_on_c, 0, 101, 74
5, 31917, Note_on_c, 0, 95, 78
5, 31925, Note_on_c, 0, 101, 0
5, 31925, Note_on_c, 0, 62, 0
5, 31954, Note_on_c, 0, 96, 55
5, 31954, Note_on_c, 0, 62, 31
5, 31960, Note_on_c, 0, 95, 0
5, 31962, Note_on_c, 0, 97, 67
5, 31970, Note_on_c, 0, 96, 0
5, 31984, Note_on_c, 0, 98, 77
5, 31986, Note_on_c, 0, 97, 0
5, 31987, Note_on_c, 0, 62, 0
5, 32001, Note_on_c, 0, 98, 0
5, 32016, Note_on_c, 0, 92, 71
5, 32016, Note_on_c, 0, 62, 45
5, 32017, Note_on_c, 0, 67, 55
5, 32019, Note_on_c, 0, 56, 35
5, 32024, Note_on_c, 0, 67, 0
5, 32038, Note_on_c, 0, 56, 0
5, 32038, Note_on_c, 0, 93, 54
5, 32041, Note_on_c, 0, 92, 0
5, 32044, Note_on_c, 0, 62, 0
5, 32061, Note_on_c, 0, 94, 32
5, 32073, Note_on_c, 0, 93, 0
5, 32076, Note_on_c, 0, 95, 62
5, 32084, Note_on_c, 0, 62, 54
5, 32086, Note_on_c, 0, 56, 50
5, 32087, Note_on_c, 0, 94, 0
5, 32092, Note_on_c, 0, 95, 0
5, 32096, Note_on_c, 0, 89, 73
5, 32100, Note_on_c, 0, 62, 0
5, 32119, Note_on_c, 0, 56, 0
5, 32126, Note_on_c, 0, 90, 39
5, 32130, Note_on_c, 0, 89, 0
5, 32140, Note_on_c, 0, 91, 53
5, 32153, Note_on_c, 0, 64, 25
5, 32154, Note_on_c, 0, 91, 0
5, 32154, Note_on_c, 0, 90, 0
5, 32154, Note_on_c, 0, 60, 51
5, 32156, Note_on_c, 0, 92, 71
5, 32156, Note_on_c, 0, 59, 33
5, 32157, Note_on_c, 0, 57, 31
5, 32183, Note_on_c, 0, 92, 0
5, 32186, Note_on_c, 0, 59, 0
5, 32203, Note_on_c, 0, 91, 71
5, 32205, Note_on_c, 0, 64, 0
5, 32208, Note_on_c, 0, 57, 0
5, 32218, Note_on_c, 0, 60, 0
5, 32223, Note_on_c, 0, 91, 0
5, 32251, Note_on_c, 0, 89, 76
5, 32259, Note_on_c, 0, 64, 30
5, 32260, Note_on_c, 0, 60, 47
5, 32261, Note_on_c, 0, 59, 29
5, 32266, Note_on_c, 0, 57, 24
5, 32271, Note_on_c, 0, 89, 0
5, 32283, Note_on_c, 0, 87, 67
5, 32297, Note_on_c, 0, 59, 0
5, 32308, Note_on_c, 0, 87, 0
5, 32313, Note_on_c, 0, 64, 0
5, 32327, Note_on_c, 0, 57, 0
5, 32329, Note_on_c, 0, 88, 79
5, 32332, Note_on_c, 0, 60, 0
5, 32347, Note_on_c, 0, 88, 0
5, 32366, Note_on_c, 0, 84, 71
5, 32392, Note_on_c, 0, 84, 0
5, 32396, Note_on_c, 0, 64, 31
5, 32398, Note_on_c, 0, 57, 60
5, 32401, Note_on_c, 0, 60, 17
5, 32404, Note_on_c, 0, 81, 54
5, 32433, Note_on_c, 0, 60, 0
5, 32436, Note_on_c, 0, 81, 0
5, 32448, Note_on_c, 0, 64, 0
5, 32461, Note_on_c, 0, 81, 48
5, 32469, Note_on_c, 0, 57, 0
5, 32492, Note_on_c, 0, 81, 0
5, 32519, Note_on_c, 0, 64, 26
5, 32520, Note_on_c, 0, 60, 44
5, 32521, Note_on_c, 0, 55, 31
5, 32522, Note_on_c, 0, 57, 27
5, 32572, Note_on_c, 0, 57, 0
5, 32572, Note_on_c, 0, 55, 0
5, 32581, Note_on_c, 0, 64, 0
5, 32590, Note_on_c, 0, 60, 0
5, 32615, Note_on_c, 0, 60, 41
5, 32615, Note_on_c, 0, 64, 48
5, 32616, Note_on_c, 0, 57, 45
5, 32621, Note_on_c, 0, 53, 32
5, 32697, Note_on_c, 0, 64, 0
5, 32713, Note_on_c, 0, 60, 0
5, 32723, Note_on_c, 0, 57, 0
5, 32737, Note_on_c, 0, 57, 57
5, 32749, Note_on_c, 0, 57, 0
5, 32755, Note_on_c, 0, 53, 0
5, 32763, Note_on_c, 0, 60, 51
5, 32780, Note_on_c, 0, 60, 0
5, 32854, Note_on_c, 0, 72, 87
5, 32858, Note_on_c, 0, 57, 45
5, 32858, Note_on_c, 0, 60, 33
5, 32861, Note_on_c, 0, 53, 30
5, 32869, Note_on_c, 0, 60, 0
5, 32876, Note_on_c, 0, 53, 0
5, 32877, Note_on_c, 0, 57, 0
5, 32879, Note_on_c, 0, 64, 49
5, 32882, Note_on_c, 0, 72, 0
5, 32899, Note_on_c, 0, 64, 0
5, 32913, Note_on_c, 0, 65, 66
5, 32922, Note_on_c, 0, 57, 35
5, 32932, Note_on_c, 0, 65, 0
5, 32933, Note_on_c, 0, 57, 0
5, 32943, Note_on_c, 0, 72, 51
5, 32957, Note_on_c, 0, 72, 0
5, 32977, Note_on_c, 0, 60, 39
5, 32977, Note_on_c, 0, 76, 60
5, 32981, Note_on_c, 0, 57, 36
5, 32987, Note_on_c, 0, 60, 0
5, 32990, Note_on_c, 0, 57, 0
5, 32991, Note_on_c, 0, 76, 0
5, 33003, Note_on_c, 0, 79, 85
5, 33022, Note_on_c, 0, 79, 0
5, 33034, Note_on_c, 0, 78, 77
5, 33038, Note_on_c, 0, 60, 56
5, 33043, Note_on_c, 0, 57, 30
5, 33048, Note_on_c, 0, 60, 0
5, 33051, Note_on_c, 0, 78, 0
5, 33052, Note_on_c, 0, 57, 0
5, 33064, Note_on_c, 0, 77, 46
5, 33091, Note_on_c, 0, 77, 0
5, 33100, Note_on_c, 0, 73, 43
5, 33104, Note_on_c, 0, 57, 35
5, 33105, Note_on_c, 0, 50, 22
5, 33105, Note_on_c, 0, 60, 36
5, 33107, Note_on_c, 0, 53, 33
5, 33112, Note_on_c, 0, 60, 0
5, 33115, Note_on_c, 0, 73, 0
5, 33119, Note_on_c, 0, 57, 0
5, 33121, Note_on_c, 0, 50, 0
5, 33124, Note_on_c, 0, 76, 64
5, 33129, Note_on_c, 0, 53, 0
5, 33153, Note_on_c, 0, 76, 0
5, 33214, Note_on_c, 0, 60, 62
5, 33217, Note_on_c, 0, 57, 42
5, 33221, Note_on_c, 0, 53, 26
5, 33222, Note_on_c, 0, 60, 0
5, 33225, Note_on_c, 0, 57, 0
5, 33236, Note_on_c, 0, 53, 0
5, 33276, Note_on_c, 0, 57, 53
5, 33277, Note_on_c, 0, 53, 42
5, 33286, Note_on_c, 0, 57, 0
5, 33297, Note_on_c, 0, 75, 51
5, 33298, Note_on_c, 0, 53, 0
5, 33300, Note_on_c, 0, 68, 57
5, 33301, Note_on_c, 0, 63, 59
5, 33305, Note_on_c, 0, 72, 28
5, 33314, Note_on_c, 0, 68, 0
5, 33323, Note_on_c, 0, 75, 0
5, 33323, Note_on_c, 0, 63, 0
5, 33326, Note_on_c, 0, 72, 0
5, 33334, Note_on_c, 0, 72, 20
5, 33334, Note_on_c, 0, 64, 62
5, 33334, Note_on_c, 0, 76, 58
5, 33335, Note_on_c, 0, 69, 57
5, 33347, Note_on_c, 0, 64, 0
5, 33348, Note_on_c, 0, 69, 0
5, 33351, Note_on_c, 0, 76, 0
5, 33354, Note_on_c, 0, 72, 0
5, 33358, Note_on_c, 0, 76, 26
5, 33361, Note_on_c, 0, 64, 42
5, 33363, Note_on_c, 0, 69, 57
5, 33363, Note_on_c, 0, 72, 27
5, 33380, Note_on_c, 0, 69, 0
5, 33382, Note_on_c, 0, 64, 0
5, 33387, Note_on_c, 0, 72, 0
5, 33389, Note_on_c, 0, 76, 0
5, 33411, Note_on_c, 0, 57, 34
5, 33413, Note_on_c, 0, 50, 30
5, 33418, Note_on_c, 0, 57, 0
5, 33420, Note_on_c, 0, 76, 62
5, 33423, Note_on_c, 0, 69, 54
5, 33424, Note_on_c, 0, 72, 38
5, 33424, Note_on_c, 0, 64, 42
5, 33426, Note_on_c, 0, 50, 0
5, 33447, Note_on_c, 0, 69, 0
5, 33448, Note_on_c, 0, 64, 0
5, 33452, Note_on_c, 0, 72, 0
5, 33454, Note_on_c, 0, 76, 0
5, 33480, Note_on_c, 0, 76, 57
5, 33485, Note_on_c, 0, 69, 48
5, 33485, Note_on_c, 0, 64, 38
5, 33487, Note_on_c, 0, 72, 28
5, 33504, Note_on_c, 0, 64, 0
5, 33506, Note_on_c, 0, 72, 0
5, 33509, Note_on_c, 0, 69, 0
5, 33509, Note_on_c, 0, 76, 0
5, 33517, Note_on_c, 0, 74, 52
5, 33518, Note_on_c, 0, 50, 39
5, 33536, Note_on_c, 0, 50, 0
5, 33541, Note_on_c, 0, 74, 0
5, 33541, Note_on_c, 0, 72, 40
5, 33576, Note_on_c, 0, 72, 0
5, 33598, Note_on_c, 0, 71, 62
5, 33599, Note_on_c, 0, 47, 35
5, 33602, Note_on_c, 0, 55, 31
5, 33615, Note_on_c, 0, 55, 0
5, 33620, Note_on_c, 0, 47, 0
5, 33630, Note_on_c, 0, 71, 0
5, 33661, Note_on_c, 0, 71, 72
5, 33690, Note_on_c, 0, 71, 0
5, 33720, Note_on_c, 0, 71, 65
5, 33723, Note_on_c, 0, 55, 47
5, 33725, Note_on_c, 0, 47, 28
5, 33734, Note_on_c, 0, 47, 0
5, 33734, Note_on_c, 0, 55, 0
5, 33750, Note_on_c, 0, 71, 0
5, 33755, Note_on_c, 0, 67, 64
5, 33773, Note_on_c, 0, 67, 0
5, 33782, Note_on_c, 0, 62, 48
5, 33806, Note_on_c, 0, 62, 0
5, 33823, Note_on_c, 0, 62, 57
5, 33825, Note_on_c, 0, 56, 35
5, 33827, Note_on_c, 0, 59, 49
5, 33828, Note_on_c, 0, 53, 24
5, 33832, Note_on_c, 0, 62, 0
5, 33834, Note_on_c, 0, 59, 0
5, 33844, Note_on_c, 0, 56, 0
5, 33848, Note_on_c, 0, 53, 0
5, 33875, Note_on_c, 0, 55, 66
5, 33888, Note_on_c, 0, 55, 0
5, 33894, Note_on_c, 0, 56, 57
5, 33909, Note_on_c, 0, 56, 0
5, 33918, Note_on_c, 0, 58, 44
5, 33928, Note_on_c, 0, 58, 0
5, 33935, Note_on_c, 0, 59, 60
5, 33942, Note_on_c, 0, 59, 0
5, 33952, Note_on_c, 0, 61, 59
5, 33964, Note_on_c, 0, 61, 0
5, 33974, Note_on_c, 0, 62, 47
5, 33988, Note_on_c, 0, 62, 0
5, 33990, Note_on_c, 0, 64, 64
5, 34002, Note_on_c, 0, 56, 31
5, 34003, Note_on_c, 0, 59, 41
5, 34005, Note_on_c, 0, 64, 0
5, 34010, Note_on_c, 0, 59, 0
5, 34013, Note_on_c, 0, 65, 64
5, 34019, Note_on_c, 0, 56, 0
5, 34021, Note_on_c, 0, 65, 0
5, 34038, Note_on_c, 0, 67, 60
5, 34049, Note_on_c, 0, 67, 0
5, 34054, Note_on_c, 0, 68, 56
5, 34072, Note_on_c, 0, 68, 0
5, 34077, Note_on_c, 0, 70, 37
5, 34094, Note_on_c, 0, 70, 0
5, 34101, Note_on_c, 0, 71, 55
5, 34116, Note_on_c, 0, 71, 0
5, 34120, Note_on_c, 0, 72, 61
5, 34138, Note_on_c, 0, 72, 0
5, 34143, Note_on_c, 0, 74, 50
5, 34152, Note_on_c, 0, 74, 0
5, 34166, Note_on_c, 0, 74, 44
5, 34168, Note_on_c, 0, 76, 28
5, 34176, Note_on_c, 0, 76, 0
5, 34176, Note_on_c, 0, 74, 0
5, 34179, Note_on_c, 0, 59, 32
5, 34186, Note_on_c, 0, 59, 0
5, 34186, Note_on_c, 0, 75, 47
5, 34192, Note_on_c, 0, 75, 0
5, 34237, Note_on_c, 0, 62, 60
5, 34237, Note_on_c, 0, 59, 60
5, 34238, Note_on_c, 0, 56, 34
5, 34243, Note_on_c, 0, 62, 0
5, 34250, Note_on_c, 0, 59, 0
5, 34254, Note_on_c, 0, 56, 0
5, 34276, Note_on_c, 0, 80, 39
5, 34292, Note_on_c, 0, 80, 0
5, 34294, Note_on_c, 0, 83, 70
5, 34308, Note_on_c, 0, 83, 0
5, 34310, Note_on_c, 0, 86, 101
5, 34312, Note_on_c, 0, 62, 53
5, 34312, Note_on_c, 0, 56, 36
5, 34319, Note_on_c, 0, 62, 0
5, 34321, Note_on_c, 0, 59, 22
5, 34327, Note_on_c, 0, 59, 0
5, 34329, Note_on_c, 0, 83, 68
5, 34333, Note_on_c, 0, 86, 0
5, 34335, Note_on_c, 0, 56, 0
5, 34349, Note_on_c, 0, 84, 83
5, 34354, Note_on_c, 0, 83, 0
5, 34375, Note_on_c, 0, 84, 0
5, 34378, Note_on_c, 0, 79, 72
5, 34392, Note_on_c, 0, 79, 0
5, 34430, Note_on_c, 0, 79, 76
5, 34443, Note_on_c, 0, 79, 0
5, 34459, Note_on_c, 0, 79, 66
5, 34489, Note_on_c, 0, 79, 0
5, 34491, Note_on_c, 0, 60, 32
5, 34493, Note_on_c, 0, 59, 24
5, 34500, Note_on_c, 0, 60, 0
5, 34500, Note_on_c, 0, 77, 64
5, 34501, Note_on_c, 0, 59, 0
5, 34531, Note_on_c, 0, 77, 0
5, 34539, Note_on_c, 0, 76, 66
5, 34558, Note_on_c, 0, 76, 0
5, 34571, Note_on_c, 0, 74, 75
5, 34595, Note_on_c, 0, 74, 0
5, 34608, Note_on_c, 0, 62, 24
5, 34617, Note_on_c, 0, 62, 0
5, 34621, Note_on_c, 0, 74, 69
5, 34647, Note_on_c, 0, 74, 0
5, 34658, Note_on_c, 0, 62, 27
5, 34658, Note_on_c, 0, 69, 32
5, 34667, Note_on_c, 0, 69, 0
5, 34671, Note_on_c, 0, 62, 0
5, 34681, Note_on_c, 0, 74, 58
5, 34707, Note_on_c, 0, 74, 0
5, 34717, Note_on_c, 0, 77, 77
5, 34721, Note_on_c, 0, 65, 43
5, 34723, Note_on_c, 0, 57, 40
5, 34724, Note_on_c, 0, 62, 36
5, 34728, Note_on_c, 0, 65, 0
5, 34735, Note_on_c, 0, 77, 0
5, 34735, Note_on_c, 0, 57, 0
5, 34735, Note_on_c, 0, 62, 0
5, 34747, Note_on_c, 0, 76, 47
5, 34780, Note_on_c, 0, 76, 0
5, 34798, Note_on_c, 0, 65, 48
5, 34801, Note_on_c, 0, 56, 29
5, 34801, Note_on_c, 0, 62, 43
5, 34815, Note_on_c, 0, 65, 0
5, 34820, Note_on_c, 0, 56, 0
5, 34821, Note_on_c, 0, 62, 0
5, 34894, Note_on_c, 0, 56, 52
5, 34895, Note_on_c, 0, 62, 58
5, 34897, Note_on_c, 0, 65, 36
5, 34906, Note_on_c, 0, 65, 0
5, 34913, Note_on_c, 0, 62, 0
5, 34915, Note_on_c, 0, 56, 0
5, 34956, Note_on_c, 0, 62, 60
5, 34956, Note_on_c, 0, 56, 38
5, 34962, Note_on_c, 0, 62, 0
5, 34969, Note_on_c, 0, 56, 0
5, 34980, Note_on_c, 0, 83, 62
5, 34996, Note_on_c, 0, 83, 0
5, 35013, Note_on_c, 0, 86, 84
5, 35014, Note_on_c, 0, 74, 78
5, 35019, Note_on_c, 0, 83, 34
5, 35020, Note_on_c, 0, 64, 57
5, 35021, Note_on_c, 0, 60, 54
5, 35022, Note_on_c, 0, 59, 50
5, 35023, Note_on_c, 0, 57, 34
5, 35025, Note_on_c, 0, 64, 0
5, 35025, Note_on_c, 0, 86, 0
5, 35026, Note_on_c, 0, 74, 0
5, 35028, Note_on_c, 0, 83, 0
5, 35037, Note_on_c, 0, 60, 0
5, 35039, Note_on_c, 0, 74, 53
5, 35039, Note_on_c, 0, 86, 68
5, 35041, Note_on_c, 0, 59, 0
5, 35043, Note_on_c, 0, 83, 41
5, 35046, Note_on_c, 0, 57, 0
5, 35073, Note_on_c, 0, 86, 0
5, 35076, Note_on_c, 0, 74, 0
5, 35082, Note_on_c, 0, 83, 0
5, 35089, Note_on_c, 0, 60, 25
5, 35098, Note_on_c, 0, 60, 0
5, 35100, Note_on_c, 0, 84, 48
5, 35115, Note_on_c, 0, 84, 0
5, 35134, Note_on_c, 0, 86, 82
5, 35135, Note_on_c, 0, 74, 71
5, 35139, Note_on_c, 0, 64, 44
5, 35140, Note_on_c, 0, 60, 51
5, 35141, Note_on_c, 0, 83, 24
5, 35146, Note_on_c, 0, 64, 0
5, 35146, Note_on_c, 0, 57, 28
5, 35146, Note_on_c, 0, 59, 22
5, 35148, Note_on_c, 0, 86, 0
5, 35149, Note_on_c, 0, 74, 0
5, 35152, Note_on_c, 0, 83, 0
5, 35152, Note_on_c, 0, 59, 0
5, 35156, Note_on_c, 0, 57, 0
5, 35157, Note_on_c, 0, 60, 0
5, 35162, Note_on_c, 0, 86, 69
5, 35164, Note_on_c, 0, 74, 39
5, 35167, Note_on_c, 0, 81, 28
5, 35194, Note_on_c, 0, 86, 0
5, 35197, Note_on_c, 0, 74, 0
5, 35201, Note_on_c, 0, 81, 0
5, 35203, Note_on_c, 0, 57, 49
5, 35219, Note_on_c, 0, 84, 61
5, 35220, Note_on_c, 0, 72, 53
5, 35226, Note_on_c, 0, 57, 0
5, 35233, Note_on_c, 0, 72, 0
5, 35246, Note_on_c, 0, 84, 0
5, 35279, Note_on_c, 0, 64, 43
5, 35280, Note_on_c, 0, 55, 55
5, 35281, Note_on_c, 0, 60, 50
5, 35292, Note_on_c, 0, 64, 0
5, 35297, Note_on_c, 0, 60, 0
5, 35298, Note_on_c, 0, 55, 0
5, 35375, Note_on_c, 0, 86, 105
5, 35377, Note_on_c, 0, 64, 37
5, 35377, Note_on_c, 0, 93, 89
5, 35378, Note_on_c, 0, 60, 36
5, 35381, Note_on_c, 0, 55, 30
5, 35384, Note_on_c, 0, 64, 0
5, 35389, Note_on_c, 0, 55, 0
5, 35393, Note_on_c, 0, 60, 0
5, 35398, Note_on_c, 0, 86, 0
5, 35409, Note_on_c, 0, 87, 48
5, 35419, Note_on_c, 0, 86, 66
5, 35422, Note_on_c, 0, 93, 0
5, 35433, Note_on_c, 0, 87, 0
5, 35440, Note_on_c, 0, 86, 0
5, 35441, Note_on_c, 0, 84, 58
5, 35448, Note_on_c, 0, 84, 0
5, 35452, Note_on_c, 0, 60, 34
5, 35454, Note_on_c, 0, 55, 22
5, 35465, Note_on_c, 0, 55, 0
5, 35465, Note_on_c, 0, 83, 60
5, 35470, Note_on_c, 0, 60, 0
5, 35493, Note_on_c, 0, 83, 0
5, 35498, Note_on_c, 0, 86, 82
5, 35505, Note_on_c, 0, 64, 38
5, 35508, Note_on_c, 0, 60, 28
5, 35513, Note_on_c, 0, 64, 0
5, 35517, Note_on_c, 0, 60, 0
5, 35526, Note_on_c, 0, 84, 65
5, 35533, Note_on_c, 0, 86, 0
5, 35554, Note_on_c, 0, 84, 0
5, 35556, Note_on_c, 0, 81, 62
5, 35578, Note_on_c, 0, 81, 0
5, 35582, Note_on_c, 0, 76, 50
5, 35610, Note_on_c, 0, 76, 0
5, 35636, Note_on_c, 0, 64, 39
5, 35640, Note_on_c, 0, 76, 51
5, 35641, Note_on_c, 0, 57, 38
5, 35644, Note_on_c, 0, 60, 27
5, 35654, Note_on_c, 0, 60, 0
5, 35658, Note_on_c, 0, 76, 0
5, 35670, Note_on_c, 0, 64, 0
5, 35683, Note_on_c, 0, 57, 0
5, 35730, Note_on_c, 0, 54, 43
5, 35731, Note_on_c, 0, 64, 41
5, 35732, Note_on_c, 0, 60, 43
5, 35747, Note_on_c, 0, 64, 0
5, 35751, Note_on_c, 0, 60, 0
5, 35757, Note_on_c, 0, 54, 0
5, 35790, Note_on_c, 0, 54, 46
5, 35792, Note_on_c, 0, 60, 53
5, 35794, Note_on_c, 0, 64, 25
5, 35800, Note_on_c, 0, 64, 0
5, 35804, Note_on_c, 0, 60, 0
5, 35810, Note_on_c, 0, 54, 0
5, 35818, Note_on_c, 0, 90, 69
5, 35832, Note_on_c, 0, 90, 0
5, 35839, Note_on_c, 0, 93, 85
5, 35855, Note_on_c, 0, 93, 0
5, 35861, Note_on_c, 0, 60, 41
5, 35880, Note_on_c, 0, 87, 79
5, 35883, Note_on_c, 0, 60, 0
5, 35894, Note_on_c, 0, 87, 0
5, 35901, Note_on_c, 0, 90, 74
5, 35916, Note_on_c, 0, 90, 0
5, 35922, Note_on_c, 0, 63, 38
5, 35923, Note_on_c, 0, 60, 54
5, 35926, Note_on_c, 0, 54, 26
5, 35928, Note_on_c, 0, 63, 0
5, 35935, Note_on_c, 0, 60, 0
5, 35943, Note_on_c, 0, 84, 64
5, 35948, Note_on_c, 0, 83, 32
5, 35951, Note_on_c, 0, 54, 0
5, 35953, Note_on_c, 0, 84, 0
5, 35955, Note_on_c, 0, 83, 0
5, 35962, Note_on_c, 0, 87, 73
5, 35982, Note_on_c, 0, 62, 55
5, 35983, Note_on_c, 0, 87, 0
5, 35983, Note_on_c, 0, 58, 43
5, 35986, Note_on_c, 0, 57, 36
5, 35989, Note_on_c, 0, 62, 0
5, 35992, Note_on_c, 0, 58, 0
5, 35994, Note_on_c, 0, 57, 0
5, 35998, Note_on_c, 0, 82, 54
5, 36012, Note_on_c, 0, 82, 0
5, 36022, Note_on_c, 0, 86, 66
5, 36035, Note_on_c, 0, 86, 0
5, 36040, Note_on_c, 0, 62, 42
5, 36048, Note_on_c, 0, 62, 0
5, 36061, Note_on_c, 0, 81, 66
5, 36075, Note_on_c, 0, 81, 0
5, 36084, Note_on_c, 0, 84, 74
5, 36092, Note_on_c, 0, 62, 42
5, 36098, Note_on_c, 0, 84, 0
5, 36099, Note_on_c, 0, 62, 0
5, 36121, Note_on_c, 0, 78, 56
5, 36133, Note_on_c, 0, 78, 0
5, 36140, Note_on_c, 0, 82, 69
5, 36155, Note_on_c, 0, 82, 0
5, 36168, Note_on_c, 0, 58, 47
5, 36168, Note_on_c, 0, 62, 46
5, 36169, Note_on_c, 0, 77, 67
5, 36176, Note_on_c, 0, 77, 0
5, 36177, Note_on_c, 0, 62, 0
5, 36186, Note_on_c, 0, 58, 0
5, 36231, Note_on_c, 0, 63, 67
5, 36234, Note_on_c, 0, 58, 48
5, 36235, Note_on_c, 0, 55, 51
5, 36252, Note_on_c, 0, 63, 0
5, 36253, Note_on_c, 0, 55, 0
5, 36275, Note_on_c, 0, 58, 0
5, 36327, Note_on_c, 0, 63, 67
5, 36332, Note_on_c, 0, 58, 46
5, 36333, Note_on_c, 0, 55, 40
5, 36350, Note_on_c, 0, 55, 0
5, 36358, Note_on_c, 0, 63, 0
5, 36363, Note_on_c, 0, 58, 0
5, 36417, Note_on_c, 0, 64, 64
5, 36418, Note_on_c, 0, 58, 46
5, 36420, Note_on_c, 0, 55, 57
5, 36448, Note_on_c, 0, 64, 0
5, 36460, Note_on_c, 0, 55, 0
5, 36474, Note_on_c, 0, 58, 0
5, 36479, Note_on_c, 0, 77, 71
5, 36480, Note_on_c, 0, 70, 74
5, 36480, Note_on_c, 0, 65, 82
5, 36480, Note_on_c, 0, 74, 71
5, 36497, Note_on_c, 0, 65, 0
5, 36500, Note_on_c, 0, 77, 0
5, 36500, Note_on_c, 0, 70, 0
5, 36505, Note_on_c, 0, 74, 0
5, 36510, Note_on_c, 0, 77, 38
5, 36514, Note_on_c, 0, 70, 51
5, 36514, Note_on_c, 0, 65, 56
5, 36515, Note_on_c, 0, 74, 45
5, 36523, Note_on_c, 0, 58, 43
5, 36524, Note_on_c, 0, 64, 20
5, 36528, Note_on_c, 0, 65, 0
5, 36530, Note_on_c, 0, 70, 0
5, 36533, Note_on_c, 0, 64, 0
5, 36534, Note_on_c, 0, 74, 0
5, 36541, Note_on_c, 0, 70, 37
5, 36541, Note_on_c, 0, 65, 36
5, 36542, Note_on_c, 0, 74, 36
5, 36544, Note_on_c, 0, 58, 0
5, 36559, Note_on_c, 0, 65, 0
5, 36560, Note_on_c, 0, 70, 0
5, 36564, Note_on_c, 0, 77, 0
5, 36564, Note_on_c, 0, 74, 0
5, 36574, Note_on_c, 0, 77, 41
5, 36575, Note_on_c, 0, 65, 51
5, 36577, Note_on_c, 0, 70, 51
5, 36577, Note_on_c, 0, 74, 60
5, 36581, Note_on_c, 0, 58, 42
5, 36589, Note_on_c, 0, 65, 0
5, 36590, Note_on_c, 0, 77, 0
5, 36590, Note_on_c, 0, 70, 0
5, 36592, Note_on_c, 0, 74, 0
5, 36599, Note_on_c, 0, 77, 35
5, 36600, Note_on_c, 0, 58, 0
5, 36602, Note_on_c, 0, 70, 51
5, 36602, Note_on_c, 0, 65, 53
5, 36604, Note_on_c, 0, 74, 62
5, 36626, Note_on_c, 0, 65, 0
5, 36629, Note_on_c, 0, 70, 0
5, 36630, Note_on_c, 0, 77, 0
5, 36637, Note_on_c, 0, 74, 0
5, 36647, Note_on_c, 0, 58, 25
5, 36659, Note_on_c, 0, 76, 48
5, 36660, Note_on_c, 0, 70, 54
5, 36661, Note_on_c, 0, 64, 60
5, 36672, Note_on_c, 0, 58, 0
5, 36675, Note_on_c, 0, 64, 0
5, 36686, Note_on_c, 0, 70, 0
5, 36695, Note_on_c, 0, 76, 0
5, 36717, Note_on_c, 0, 76, 62
5, 36718, Note_on_c, 0, 70, 74
5, 36720, Note_on_c, 0, 64, 64
5, 36721, Note_on_c, 0, 58, 59
5, 36788, Control_c, 0, 64, 127
5, 36806, Note_on_c, 0, 70, 0
5, 36806, Note_on_c, 0, 76, 0
5, 36822, Note_on_c, 0, 64, 0
5, 36824, Note_on_c, 0, 58, 0
5, 36827, Control_c, 0, 64, 0
5, 36839, Note_on_c, 0, 74, 69
5, 36840, Note_on_c, 0, 70, 61
5, 36840, Note_on_c, 0, 68, 62
5, 36842, Note_on_c, 0, 62, 45
5, 36844, Note_on_c, 0, 58, 63
5, 36902, Control_c, 0, 64, 127
5, 36906, Note_on_c, 0, 74, 0
5, 36908, Note_on_c, 0, 62, 0
5, 36922, Note_on_c, 0, 70, 0
5, 36924, Control_c, 0, 64, 0
5, 36927, Note_on_c, 0, 68, 0
5, 36930, Note_on_c, 0, 58, 0
5, 36936, Note_on_c, 0, 72, 47
5, 36937, Note_on_c, 0, 67, 69
5, 36938, Note_on_c, 0, 60, 64
5, 36939, Note_on_c, 0, 57, 56
5, 36970, Control_c, 0, 64, 127
5, 36996, Note_on_c, 0, 60, 0
5, 37003, Note_on_c, 0, 57, 0
5, 37008, Note_on_c, 0, 67, 0
5, 37012, Note_on_c, 0, 72, 0
5, 37082, Note_on_c, 0, 63, 82
5, 37082, Note_on_c, 0, 84, 88
5, 37083, Note_on_c, 0, 72, 91
5, 37083, Note_on_c, 0, 79, 84
5, 37083, Note_on_c, 0, 55, 73
5, 37084, Note_on_c, 0, 60, 68
5, 37085, Note_on_c, 0, 57, 66
5, 37090, Control_c, 0, 64, 0
5, 37102, Note_on_c, 0, 72, 0
5, 37103, Note_on_c, 0, 84, 0
5, 37106, Note_on_c, 0, 55, 0
5, 37107, Note_on_c, 0, 63, 0
5, 37108, Note_on_c, 0, 79, 0
5, 37113, Note_on_c, 0, 57, 0
5, 37115, Note_on_c, 0, 60, 0
5, 37119, Note_on_c, 0, 79, 63
5, 37119, Note_on_c, 0, 86, 91
5, 37120, Note_on_c, 0, 63, 61
5, 37121, Note_on_c, 0, 74, 68
5, 37121, Note_on_c, 0, 55, 67
5, 37124, Note_on_c, 0, 57, 40
5, 37125, Note_on_c, 0, 60, 32
5, 37126, Note_on_c, 0, 74, 0
5, 37132, Note_on_c, 0, 86, 0
5, 37135, Note_on_c, 0, 79, 0
5, 37142, Note_on_c, 0, 72, 53
5, 37144, Note_on_c, 0, 79, 48
5, 37146, Note_on_c, 0, 84, 51
5, 37156, Note_on_c, 0, 72, 0
5, 37160, Note_on_c, 0, 84, 0
5, 37161, Note_on_c, 0, 55, 0
5, 37163, Note_on_c, 0, 79, 0
5, 37164, Note_on_c, 0, 57, 0
5, 37165, Note_on_c, 0, 60, 0
5, 37166, Note_on_c, 0, 63, 0
5, 37180, Note_on_c, 0, 87, 83
5, 37181, Note_on_c, 0, 75, 82
5, 37182, Note_on_c, 0, 65, 80
5, 37183, Note_on_c, 0, 82, 67
5, 37183, Note_on_c, 0, 54, 60
5, 37184, Note_on_c, 0, 60, 60
5, 37184, Note_on_c, 0, 58, 50
5, 37246, Note_on_c, 0, 54, 0
5, 37246, Note_on_c, 0, 75, 0
5, 37247, Note_on_c, 0, 82, 0
5, 37247, Note_on_c, 0, 65, 0
5, 37251, Note_on_c, 0, 87, 0
5, 37251, Note_on_c, 0, 60, 0
5, 37255, Note_on_c, 0, 58, 0
5, 37263, Note_on_c, 0, 89, 74
5, 37263, Note_on_c, 0, 65, 74
5, 37263, Note_on_c, 0, 54, 62
5, 37264, Note_on_c, 0, 58, 37
5, 37264, Note_on_c, 0, 84, 74
5, 37264, Note_on_c, 0, 60, 66
5, 37265, Note_on_c, 0, 77, 68
5, 37269, Note_on_c, 0, 88, 37
5, 37276, Note_on_c, 0, 88, 0
5, 37314, Note_on_c, 0, 89, 0
5, 37315, Note_on_c, 0, 84, 0
5, 37332, Note_on_c, 0, 77, 0
5, 37337, Note_on_c, 0, 65, 0
5, 37338, Note_on_c, 0, 85, 32
5, 37340, Note_on_c, 0, 54, 0
5, 37344, Note_on_c, 0, 60, 0
5, 37350, Note_on_c, 0, 85, 0
5, 37352, Note_on_c, 0, 58, 0
5, 37359, Note_on_c, 0, 86, 77
5, 37361, Note_on_c, 0, 80, 57
5, 37363, Note_on_c, 0, 74, 46
5, 37363, Note_on_c, 0, 76, 48
5, 37363, Note_on_c, 0, 65, 64
5, 37364, Note_on_c, 0, 58, 30
5, 37364, Note_on_c, 0, 54, 52
5, 37365, Note_on_c, 0, 60, 54
5, 37389, Note_on_c, 0, 76, 0
5, 37393, Note_on_c, 0, 60, 0
5, 37397, Note_on_c, 0, 65, 0
5, 37397, Note_on_c, 0, 81, 38
5, 37398, Note_on_c, 0, 80, 0
5, 37408, Note_on_c, 0, 86, 0
5, 37409, Note_on_c, 0, 74, 0
5, 37413, Note_on_c, 0, 58, 0
5, 37418, Note_on_c, 0, 54, 0
5, 37418, Note_on_c, 0, 81, 0
5, 37437, Note_on_c, 0, 62, 45
5, 37439, Note_on_c, 0, 82, 48
5, 37439, Note_on_c, 0, 53, 28
5, 37439, Note_on_c, 0, 58, 42
5, 37440, Note_on_c, 0, 70, 57
5, 37441, Note_on_c, 0, 55, 41
5, 37504, Note_on_c, 0, 62, 0
5, 37506, Note_on_c, 0, 53, 0
5, 37507, Note_on_c, 0, 55, 0
5, 37512, Note_on_c, 0, 58, 0
5, 37522, Note_on_c, 0, 70, 0
5, 37532, Note_on_c, 0, 62, 49
5, 37533, Note_on_c, 0, 58, 35
5, 37533, Note_on_c, 0, 53, 31
5, 37534, Note_on_c, 0, 55, 46
5, 37547, Note_on_c, 0, 82, 0
5, 37579, Note_on_c, 0, 58, 0
5, 37598, Note_on_c, 0, 58, 37
5, 37601, Note_on_c, 0, 62, 0
5, 37612, Note_on_c, 0, 53, 0
5, 37613, Note_on_c, 0, 55, 0
5, 37614, Note_on_c, 0, 87, 37
5, 37618, Note_on_c, 0, 58, 0
5, 37620, Note_on_c, 0, 87, 0
5, 37628, Note_on_c, 0, 88, 51
5, 37641, Note_on_c, 0, 87, 65
5, 37643, Note_on_c, 0, 88, 0
5, 37653, Note_on_c, 0, 85, 42
5, 37657, Note_on_c, 0, 87, 0
5, 37666, Note_on_c, 0, 85, 0
5, 37669, Note_on_c, 0, 84, 54
5, 37674, Note_on_c, 0, 84, 0
5, 37692, Note_on_c, 0, 82, 32
5, 37702, Note_on_c, 0, 80, 46
5, 37713, Note_on_c, 0, 82, 0
5, 37720, Note_on_c, 0, 80, 0
5, 37721, Note_on_c, 0, 78, 38
5, 37730, Note_on_c, 0, 78, 0
5, 37738, Note_on_c, 0, 76, 37
5, 37747, Note_on_c, 0, 76, 0
5, 37753, Note_on_c, 0, 75, 49
5, 37770, Note_on_c, 0, 75, 0
5, 37771, Note_on_c, 0, 73, 25
5, 37781, Note_on_c, 0, 73, 0
5, 37786, Note_on_c, 0, 72, 42
5, 37789, Note_on_c, 0, 58, 36
5, 37792, Note_on_c, 0, 61, 15
5, 37793, Note_on_c, 0, 52, 26
5, 37798, Note_on_c, 0, 72, 0
5, 37807, Note_on_c, 0, 70, 34
5, 37818, Note_on_c, 0, 61, 0
5, 37820, Note_on_c, 0, 68, 38
5, 37830, Note_on_c, 0, 66, 47
5, 37831, Note_on_c, 0, 70, 0
5, 37835, Note_on_c, 0, 68, 0
5, 37846, Note_on_c, 0, 66, 0
5, 37851, Note_on_c, 0, 64, 51
5, 37863, Note_on_c, 0, 58, 0
5, 37864, Note_on_c, 0, 64, 0
5, 37871, Note_on_c, 0, 52, 0
5, 37882, Note_on_c, 0, 62, 50
5, 37899, Note_on_c, 0, 62, 0
5, 37904, Note_on_c, 0, 61, 45
5, 37915, Note_on_c, 0, 61, 0
5, 37926, Note_on_c, 0, 60, 33
5, 37969, Note_on_c, 0, 60, 0
5, 37971, Note_on_c, 0, 48, 22
5, 37982, Note_on_c, 0, 57, 41
5, 37983, Note_on_c, 0, 48, 0
5, 38008, Note_on_c, 0, 57, 0
5, 38020, Note_on_c, 0, 48, 22
5, 38023, Note_on_c, 0, 57, 46
5, 38030, Note_on_c, 0, 57, 0
5, 38034, Note_on_c, 0, 48, 0
5, 38079, Note_on_c, 0, 48, 56
5, 38083, Note_on_c, 0, 41, 36
5, 38087, Note_on_c, 0, 48, 0
5, 38090, Note_on_c, 0, 41, 0
5, 38146, Note_on_c, 0, 48, 41
5, 38153, Note_on_c, 0, 48, 0
5, 38162, Note_on_c, 0, 60, 87
5, 38183, Note_on_c, 0, 60, 0
5, 38194, Note_on_c, 0, 62, 49
5, 38203, Note_on_c, 0, 60, 44
5, 38210, Note_on_c, 0, 62, 0
5, 38223, Note_on_c, 0, 60, 0
5, 38223, Note_on_c, 0, 57, 34
5, 38242, Note_on_c, 0, 57, 0
5, 38259, Note_on_c, 0, 57, 62
5, 38274, Note_on_c, 0, 57, 0
5, 38319, Note_on_c, 0, 41, 69
5, 38326, Note_on_c, 0, 41, 0
5, 38375, Note_on_c, 0, 69, 73
5, 38375, Note_on_c, 0, 60, 80
5, 38376, Note_on_c, 0, 64, 72
5, 38380, Note_on_c, 0, 57, 45
5, 38381, Note_on_c, 0, 60, 0
5, 38382, Note_on_c, 0, 64, 0
5, 38386, Note_on_c, 0, 57, 0
5, 38388, Note_on_c, 0, 69, 0
5, 38436, Note_on_c, 0, 69, 71
5, 38436, Note_on_c, 0, 64, 72
5, 38437, Note_on_c, 0, 60, 74
5, 38439, Note_on_c, 0, 57, 58
5, 38447, Note_on_c, 0, 60, 0
5, 38450, Note_on_c, 0, 64, 0
5, 38451, Note_on_c, 0, 57, 0
5, 38452, Note_on_c, 0, 69, 0
5, 38499, Note_on_c, 0, 55, 64
5, 38514, Note_on_c, 0, 55, 0
5, 38519, Note_on_c, 0, 69, 75
5, 38521, Note_on_c, 0, 64, 64
5, 38521, Note_on_c, 0, 60, 71
5, 38523, Note_on_c, 0, 57, 57
5, 38559, Note_on_c, 0, 60, 0
5, 38571, Note_on_c, 0, 69, 0
5, 38571, Note_on_c, 0, 64, 0
5, 38578, Note_on_c, 0, 60, 55
5, 38580, Note_on_c, 0, 53, 52
5, 38581, Note_on_c, 0, 65, 58
5, 38582, Note_on_c, 0, 57, 0
5, 38591, Note_on_c, 0, 60, 0
5, 38592, Note_on_c, 0, 65, 0
5, 38637, Note_on_c, 0, 53, 0
5, 38639, Note_on_c, 0, 57, 66
5, 38641, Note_on_c, 0, 69, 72
5, 38642, Note_on_c, 0, 60, 71
5, 38643, Note_on_c, 0, 65, 49
5, 38644, Note_on_c, 0, 64, 43
5, 38651, Note_on_c, 0, 64, 0
5, 38651, Note_on_c, 0, 60, 0
5, 38651, Note_on_c, 0, 65, 0
5, 38658, Note_on_c, 0, 69, 0
5, 38664, Note_on_c, 0, 57, 0
5, 38702, Note_on_c, 0, 57, 73
5, 38761, Note_on_c, 0, 69, 110
5, 38763, Note_on_c, 0, 74, 87
5, 38787, Note_on_c, 0, 57, 0
5, 38792, Note_on_c, 0, 69, 0
5, 38798, Note_on_c, 0, 70, 74
5, 38813, Note_on_c, 0, 74, 0
5, 38823, Note_on_c, 0, 74, 25
5, 38826, Note_on_c, 0, 70, 0
5, 38826, Note_on_c, 0, 69, 46
5, 38858, Note_on_c, 0, 69, 0
5, 38860, Note_on_c, 0, 65, 35
5, 38861, Note_on_c, 0, 74, 0
5, 38874, Note_on_c, 0, 65, 0
5, 38877, Note_on_c, 0, 57, 51
5, 38879, Note_on_c, 0, 47, 38
5, 38880, Note_on_c, 0, 69, 53
5, 38883, Note_on_c, 0, 74, 59
5, 38934, Note_on_c, 0, 69, 0
5, 38939, Note_on_c, 0, 74, 0
5, 38941, Note_on_c, 0, 57, 0
5, 38942, Note_on_c, 0, 47, 0
5, 38943, Note_on_c, 0, 65, 53
5, 38963, Note_on_c, 0, 65, 0
5, 38979, Note_on_c, 0, 65, 58
5, 38987, Note_on_c, 0, 65, 0
5, 39036, Note_on_c, 0, 47, 48
5, 39040, Note_on_c, 0, 57, 32
5, 39042, Note_on_c, 0, 47, 0
5, 39047, Note_on_c, 0, 57, 0
5, 39121, Note_on_c, 0, 65, 59
5, 39123, Note_on_c, 0, 57, 53
5, 39124, Note_on_c, 0, 62, 51
5, 39152, Note_on_c, 0, 65, 0
5, 39177, Note_on_c, 0, 57, 0
5, 39179, Note_on_c, 0, 81, 83
5, 39180, Note_on_c, 0, 62, 0
5, 39203, Note_on_c, 0, 80, 53
5, 39210, Note_on_c, 0, 81, 0
5, 39219, Note_on_c, 0, 80, 0
5, 39221, Note_on_c, 0, 79, 52
5, 39229, Note_on_c, 0, 79, 0
5, 39233, Note_on_c, 0, 78, 45
5, 39243, Note_on_c, 0, 78, 0
5, 39244, Note_on_c, 0, 77, 56
5, 39267, Note_on_c, 0, 77, 0
5, 39280, Note_on_c, 0, 81, 89
5, 39284, Note_on_c, 0, 62, 31
5, 39294, Note_on_c, 0, 62, 0
5, 39308, Note_on_c, 0, 80, 56
5, 39314, Note_on_c, 0, 81, 0
5, 39317, Note_on_c, 0, 80, 0
5, 39317, Note_on_c, 0, 79, 45
5, 39334, Note_on_c, 0, 79, 0
5, 39335, Note_on_c, 0, 78, 45
5, 39342, Note_on_c, 0, 78, 0
5, 39344, Note_on_c, 0, 77, 53
5, 39360, Note_on_c, 0, 77, 0
5, 39364, Note_on_c, 0, 81, 83
5, 39367, Note_on_c, 0, 65, 70
5, 39368, Note_on_c, 0, 62, 57
5, 39372, Note_on_c, 0, 56, 31
5, 39376, Note_on_c, 0, 65, 0
5, 39380, Note_on_c, 0, 62, 0
5, 39384, Note_on_c, 0, 56, 0
5, 39395, Note_on_c, 0, 80, 56
5, 39398, Note_on_c, 0, 81, 0
5, 39408, Note_on_c, 0, 80, 0
5, 39411, Note_on_c, 0, 79, 48
5, 39418, Note_on_c, 0, 79, 0
5, 39419, Note_on_c, 0, 78, 51
5, 39429, Note_on_c, 0, 78, 0
5, 39429, Note_on_c, 0, 77, 53
5, 39451, Note_on_c, 0, 77, 0
5, 39519, Note_on_c, 0, 65, 58
5, 39519, Note_on_c, 0, 56, 50
5, 39521, Note_on_c, 0, 62, 54
5, 39529, Note_on_c, 0, 62, 0
5, 39529, Note_on_c, 0, 65, 0
5, 39534, Note_on_c, 0, 56, 0
5, 39599, Note_on_c, 0, 56, 56
5, 39600, Note_on_c, 0, 65, 51
5, 39601, Note_on_c, 0, 62, 50
5, 39655, Note_on_c, 0, 65, 0
5, 39663, Note_on_c, 0, 76, 58
5, 39665, Note_on_c, 0, 56, 0
5, 39671, Note_on_c, 0, 62, 0
5, 39682, Note_on_c, 0, 76, 0
5, 39695, Note_on_c, 0, 80, 55
5, 39697, Note_on_c, 0, 62, 39
5, 39715, Note_on_c, 0, 80, 0
5, 39718, Note_on_c, 0, 62, 0
5, 39732, Note_on_c, 0, 83, 74
5, 39737, Note_on_c, 0, 83, 0
5, 39751, Note_on_c, 0, 86, 84
5, 39752, Note_on_c, 0, 74, 82
5, 39754, Note_on_c, 0, 62, 68
5, 39754, Note_on_c, 0, 56, 57
5, 39756, Note_on_c, 0, 65, 64
5, 39763, Note_on_c, 0, 86, 0
5, 39766, Note_on_c, 0, 74, 0
5, 39767, Note_on_c, 0, 65, 0
5, 39774, Note_on_c, 0, 62, 0
5, 39780, Note_on_c, 0, 74, 51
5, 39781, Note_on_c, 0, 86, 71
5, 39788, Note_on_c, 0, 84, 30
5, 39796, Note_on_c, 0, 84, 0
5, 39797, Note_on_c, 0, 86, 0
5, 39797, Note_on_c, 0, 56, 0
5, 39800, Note_on_c, 0, 74, 0
5, 39812, Note_on_c, 0, 86, 68
5, 39814, Note_on_c, 0, 74, 63
5, 39829, Note_on_c, 0, 74, 0
5, 39829, Note_on_c, 0, 86, 0
5, 39837, Note_on_c, 0, 64, 42
5, 39839, Note_on_c, 0, 59, 44
5, 39840, Note_on_c, 0, 60, 51
5, 39840, Note_on_c, 0, 57, 32
5, 39841, Note_on_c, 0, 86, 77
5, 39842, Note_on_c, 0, 74, 47
5, 39877, Note_on_c, 0, 86, 0
5, 39887, Note_on_c, 0, 74, 0
5, 39901, Note_on_c, 0, 84, 62
5, 39903, Note_on_c, 0, 72, 45
5, 39909, Note_on_c, 0, 64, 0
5, 39910, Note_on_c, 0, 59, 0
5, 39914, Note_on_c, 0, 60, 0
5, 39919, Note_on_c, 0, 57, 0
5, 39923, Note_on_c, 0, 84, 0
5, 39923, Note_on_c, 0, 72, 0
5, 39958, Note_on_c, 0, 84, 68
5, 39960, Note_on_c, 0, 64, 38
5, 39961, Note_on_c, 0, 72, 48
5, 39963, Note_on_c, 0, 60, 46
5, 39963, Note_on_c, 0, 57, 41
5, 39965, Note_on_c, 0, 59, 34
5, 39984, Note_on_c, 0, 84, 0
5, 39995, Note_on_c, 0, 72, 0
5, 40011, Note_on_c, 0, 59, 0
5, 40014, Note_on_c, 0, 64, 0
5, 40017, Note_on_c, 0, 83, 52
5, 40018, Note_on_c, 0, 71, 48
5, 40019, Note_on_c, 0, 60, 0
5, 40030, Note_on_c, 0, 57, 0
5, 40033, Note_on_c, 0, 71, 0
5, 40036, Note_on_c, 0, 83, 0
5, 40058, Note_on_c, 0, 72, 46
5, 40059, Note_on_c, 0, 84, 50
5, 40065, Note_on_c, 0, 64, 29
5, 40066, Note_on_c, 0, 55, 51
5, 40067, Note_on_c, 0, 84, 0
5, 40068, Note_on_c, 0, 60, 36
5, 40069, Note_on_c, 0, 72, 0
5, 40069, Note_on_c, 0, 57, 31
5, 40081, Note_on_c, 0, 60, 0
5, 40082, Note_on_c, 0, 55, 0
5, 40082, Note_on_c, 0, 64, 0
5, 40089, Note_on_c, 0, 57, 0
5, 40140, Note_on_c, 0, 64, 42
5, 40141, Note_on_c, 0, 60, 44
5, 40142, Note_on_c, 0, 55, 44
5, 40143, Note_on_c, 0, 57, 41
5, 40156, Note_on_c, 0, 55, 0
5, 40157, Note_on_c, 0, 64, 0
5, 40160, Note_on_c, 0, 60, 0
5, 40164, Note_on_c, 0, 57, 0
5, 40231, Note_on_c, 0, 55, 57
5, 40235, Note_on_c, 0, 64, 44
5, 40237, Note_on_c, 0, 60, 40
5, 40237, Note_on_c, 0, 57, 37
5, 40251, Note_on_c, 0, 60, 0
5, 40253, Note_on_c, 0, 57, 0
5, 40253, Note_on_c, 0, 64, 0
5, 40254, Note_on_c, 0, 55, 0
5, 40315, Note_on_c, 0, 64, 35
5, 40317, Note_on_c, 0, 53, 27
5, 40317, Note_on_c, 0, 60, 44
5, 40317, Note_on_c, 0, 57, 42
5, 40371, Note_on_c, 0, 64, 0
5, 40376, Note_on_c, 0, 60, 0
5, 40381, Note_on_c, 0, 57, 0
5, 40384, Note_on_c, 0, 53, 0
5, 40416, Note_on_c, 0, 60, 52
5, 40417, Note_on_c, 0, 57, 40
5, 40425, Note_on_c, 0, 60, 0
5, 40432, Note_on_c, 0, 57, 0
5, 40441, Note_on_c, 0, 76, 68
5, 40443, Note_on_c, 0, 69, 70
5, 40444, Note_on_c, 0, 72, 55
5, 40444, Note_on_c, 0, 64, 71
5, 40457, Note_on_c, 0, 64, 0
5, 40465, Note_on_c, 0, 69, 0
5, 40467, Note_on_c, 0, 72, 0
5, 40467, Note_on_c, 0, 76, 0
5, 40476, Note_on_c, 0, 76, 42
5, 40478, Note_on_c, 0, 64, 52
5, 40480, Note_on_c, 0, 69, 51
5, 40482, Note_on_c, 0, 72, 35
5, 40484, Note_on_c, 0, 64, 0
5, 40487, Note_on_c, 0, 69, 0
5, 40489, Note_on_c, 0, 76, 0
5, 40490, Note_on_c, 0, 72, 0
5, 40500, Note_on_c, 0, 65, 65
5, 40501, Note_on_c, 0, 77, 63
5, 40519, Note_on_c, 0, 65, 0
5, 40524, Note_on_c, 0, 77, 0
5, 40536, Note_on_c, 0, 77, 53
5, 40545, Note_on_c, 0, 53, 39
5, 40546, Note_on_c, 0, 60, 48
5, 40549, Note_on_c, 0, 57, 42
5, 40550, Note_on_c, 0, 77, 0
5, 40556, Note_on_c, 0, 60, 0
5, 40562, Note_on_c, 0, 69, 74
5, 40562, Note_on_c, 0, 81, 70
5, 40563, Note_on_c, 0, 53, 0
5, 40571, Note_on_c, 0, 57, 0
5, 40581, Note_on_c, 0, 69, 0
5, 40589, Note_on_c, 0, 81, 0
5, 40611, Note_on_c, 0, 57, 41
5, 40623, Note_on_c, 0, 57, 0
5, 40627, Note_on_c, 0, 84, 73
5, 40627, Note_on_c, 0, 72, 62
5, 40639, Note_on_c, 0, 72, 0
5, 40641, Note_on_c, 0, 84, 0
5, 40718, Note_on_c, 0, 64, 66
5, 40722, Note_on_c, 0, 53, 33
5, 40722, Note_on_c, 0, 60, 54
5, 40723, Note_on_c, 0, 88, 82
5, 40723, Note_on_c, 0, 57, 40
5, 40724, Note_on_c, 0, 82, 71
5, 40724, Note_on_c, 0, 76, 79
5, 40727, Note_on_c, 0, 85, 32
5, 40728, Note_on_c, 0, 64, 0
5, 40729, Note_on_c, 0, 60, 0
5, 40733, Note_on_c, 0, 85, 0
5, 40733, Note_on_c, 0, 57, 0
5, 40733, Note_on_c, 0, 53, 0
5, 40740, Note_on_c, 0, 82, 0
5, 40745, Note_on_c, 0, 83, 30
5, 40761, Note_on_c, 0, 76, 0
5, 40762, Note_on_c, 0, 88, 0
5, 40763, Note_on_c, 0, 83, 0
5, 40800, Note_on_c, 0, 60, 58
5, 40802, Note_on_c, 0, 57, 43
5, 40803, Note_on_c, 0, 88, 78
5, 40803, Note_on_c, 0, 50, 25
5, 40804, Note_on_c, 0, 53, 50
5, 40805, Note_on_c, 0, 76, 64
5, 40805, Note_on_c, 0, 83, 67
5, 40811, Note_on_c, 0, 60, 0
5, 40814, Note_on_c, 0, 57, 0
5, 40815, Note_on_c, 0, 50, 0
5, 40846, Note_on_c, 0, 53, 0
5, 40850, Note_on_c, 0, 88, 0
5, 40850, Note_on_c, 0, 83, 0
5, 40854, Note_on_c, 0, 76, 0
5, 40893, Note_on_c, 0, 60, 58
5, 40895, Note_on_c, 0, 83, 54
5, 40896, Note_on_c, 0, 71, 66
5, 40897, Note_on_c, 0, 57, 36
5, 40899, Note_on_c, 0, 60, 0
5, 40904, Note_on_c, 0, 71, 0
5, 40905, Note_on_c, 0, 57, 0
5, 40913, Note_on_c, 0, 83, 0
5, 40975, Note_on_c, 0, 74, 71
5, 40976, Note_on_c, 0, 86, 79
5, 40977, Note_on_c, 0, 60, 56
5, 40977, Note_on_c, 0, 81, 58
5, 40978, Note_on_c, 0, 57, 46
5, 40982, Note_on_c, 0, 53, 25
5, 40990, Note_on_c, 0, 60, 0
5, 40999, Note_on_c, 0, 57, 0
5, 41001, Note_on_c, 0, 53, 0
5, 41070, Note_on_c, 0, 57, 64
5, 41071, Note_on_c, 0, 48, 60
5, 41077, Note_on_c, 0, 57, 0
5, 41079, Note_on_c, 0, 48, 0
5, 41158, Note_on_c, 0, 57, 69
5, 41158, Note_on_c, 0, 48, 63
5, 41166, Note_on_c, 0, 57, 0
5, 41173, Note_on_c, 0, 48, 0
5, 41243, Note_on_c, 0, 86, 0
5, 41249, Note_on_c, 0, 47, 53
5, 41250, Note_on_c, 0, 81, 0
5, 41251, Note_on_c, 0, 55, 36
5, 41252, Note_on_c, 0, 74, 0
5, 41294, Note_on_c, 0, 55, 0
5, 41307, Note_on_c, 0, 55, 25
5, 41315, Note_on_c, 0, 55, 0
5, 41316, Note_on_c, 0, 53, 61
5, 41324, Note_on_c, 0, 53, 0
5, 41325, Note_on_c, 0, 47, 0
5, 41334, Note_on_c, 0, 78, 64
5, 41336, Note_on_c, 0, 66, 78
5, 41336, Note_on_c, 0, 73, 57
5, 41378, Note_on_c, 0, 73, 0
5, 41379, Note_on_c, 0, 66, 0
5, 41382, Note_on_c, 0, 78, 0
5, 41397, Note_on_c, 0, 79, 57
5, 41397, Note_on_c, 0, 67, 68
5, 41398, Note_on_c, 0, 74, 66
5, 41402, Note_on_c, 0, 77, 32
5, 41410, Note_on_c, 0, 67, 0
5, 41415, Note_on_c, 0, 77, 0
5, 41416, Note_on_c, 0, 74, 0
5, 41417, Note_on_c, 0, 79, 0
5, 41437, Note_on_c, 0, 59, 58
5, 41440, Note_on_c, 0, 55, 57
5, 41447, Note_on_c, 0, 55, 0
5, 41449, Note_on_c, 0, 59, 0
5, 41454, Note_on_c, 0, 82, 72
5, 41456, Note_on_c, 0, 75, 67
5, 41456, Note_on_c, 0, 70, 72
5, 41493, Note_on_c, 0, 59, 29
5, 41496, Note_on_c, 0, 75, 0
5, 41505, Note_on_c, 0, 70, 0
5, 41506, Note_on_c, 0, 82, 0
5, 41506, Note_on_c, 0, 59, 0
5, 41518, Note_on_c, 0, 83, 50
5, 41518, Note_on_c, 0, 71, 65
5, 41519, Note_on_c, 0, 76, 64
5, 41521, Note_on_c, 0, 79, 46
5, 41523, Note_on_c, 0, 81, 35
5, 41534, Note_on_c, 0, 71, 0
5, 41535, Note_on_c, 0, 81, 0
5, 41537, Note_on_c, 0, 79, 0
5, 41538, Note_on_c, 0, 76, 0
5, 41544, Note_on_c, 0, 83, 0
5, 41556, Note_on_c, 0, 62, 34
5, 41558, Note_on_c, 0, 59, 44
5, 41561, Note_on_c, 0, 55, 49
5, 41564, Note_on_c, 0, 62, 0
5, 41570, Note_on_c, 0, 59, 0
5, 41576, Note_on_c, 0, 55, 0
5, 41577, Note_on_c, 0, 85, 75
5, 41578, Note_on_c, 0, 73, 56
5, 41585, Note_on_c, 0, 80, 25
5, 41591, Note_on_c, 0, 80, 0
5, 41613, Note_on_c, 0, 59, 40
5, 41621, Note_on_c, 0, 73, 0
5, 41622, Note_on_c, 0, 85, 0
5, 41626, Note_on_c, 0, 59, 0
5, 41638, Note_on_c, 0, 86, 68
5, 41639, Note_on_c, 0, 74, 68
5, 41641, Note_on_c, 0, 81, 63
5, 41642, Note_on_c, 0, 84, 45
5, 41649, Note_on_c, 0, 84, 0
5, 41654, Note_on_c, 0, 74, 0
5, 41661, Note_on_c, 0, 81, 0
5, 41664, Note_on_c, 0, 86, 0
5, 41674, Note_on_c, 0, 62, 69
5, 41675, Note_on_c, 0, 59, 58
5, 41677, Note_on_c, 0, 56, 27
5, 41677, Note_on_c, 0, 53, 40
5, 41679, Note_on_c, 0, 62, 0
5, 41684, Note_on_c, 0, 56, 0
5, 41685, Note_on_c, 0, 59, 0
5, 41685, Note_on_c, 0, 53, 0
5, 41696, Note_on_c, 0, 77, 89
5, 41697, Note_on_c, 0, 85, 85
5, 41697, Note_on_c, 0, 89, 82
5, 41702, Note_on_c, 0, 88, 44
5, 41708, Note_on_c, 0, 88, 0
5, 41740, Note_on_c, 0, 77, 0
5, 41742, Note_on_c, 0, 59, 30
5, 41743, Note_on_c, 0, 89, 0
5, 41746, Note_on_c, 0, 85, 0
5, 41750, Note_on_c, 0, 59, 0
5, 41758, Note_on_c, 0, 89, 51
5, 41761, Note_on_c, 0, 77, 66
5, 41765, Note_on_c, 0, 86, 52
5, 41772, Note_on_c, 0, 86, 0
5, 41797, Note_on_c, 0, 77, 0
5, 41797, Note_on_c, 0, 89, 0
5, 41812, Note_on_c, 0, 62, 47
5, 41816, Note_on_c, 0, 56, 31
5, 41817, Note_on_c, 0, 89, 46
5, 41818, Note_on_c, 0, 77, 54
5, 41819, Note_on_c, 0, 59, 41
5, 41821, Note_on_c, 0, 86, 57
5, 41822, Note_on_c, 0, 53, 26
5, 41840, Note_on_c, 0, 86, 0
5, 41842, Note_on_c, 0, 59, 0
5, 41843, Note_on_c, 0, 77, 0
5, 41843, Note_on_c, 0, 62, 0
5, 41845, Note_on_c, 0, 89, 0
5, 41846, Note_on_c, 0, 53, 0
5, 41848, Note_on_c, 0, 56, 0
5, 41882, Note_on_c, 0, 89, 69
5, 41884, Note_on_c, 0, 77, 68
5, 41884, Note_on_c, 0, 86, 71
5, 41902, Note_on_c, 0, 86, 0
5, 41909, Note_on_c, 0, 89, 0
5, 41911, Note_on_c, 0, 77, 0
5, 41938, Note_on_c, 0, 55, 42
5, 41938, Note_on_c, 0, 64, 33
5, 41940, Note_on_c, 0, 88, 53
5, 41942, Note_on_c, 0, 84, 54
5, 41943, Note_on_c, 0, 76, 45
5, 41945, Note_on_c, 0, 60, 26
5, 41950, Note_on_c, 0, 57, 19
5, 41956, Note_on_c, 0, 60, 0
5, 41957, Note_on_c, 0, 76, 0
5, 41958, Note_on_c, 0, 84, 0
5, 41958, Note_on_c, 0, 64, 0
5, 41958, Note_on_c, 0, 57, 0
5, 41959, Note_on_c, 0, 55, 0
5, 41964, Note_on_c, 0, 88, 0
5, 42001, Note_on_c, 0, 55, 36
5, 42001, Note_on_c, 0, 88, 58
5, 42002, Note_on_c, 0, 64, 24
5, 42002, Note_on_c, 0, 57, 36
5, 42004, Note_on_c, 0, 60, 38
5, 42004, Note_on_c, 0, 76, 51
5, 42005, Note_on_c, 0, 84, 50
5, 42023, Note_on_c, 0, 76, 0
5, 42029, Note_on_c, 0, 84, 0
5, 42037, Note_on_c, 0, 88, 0
5, 42065, Note_on_c, 0, 60, 0
5, 42090, Note_on_c, 0, 60, 51
5, 42098, Note_on_c, 0, 64, 0
5, 42114, Note_on_c, 0, 55, 0
5, 42116, Note_on_c, 0, 60, 0
5, 42117, Note_on_c, 0, 57, 0
5, 42120, Note_on_c, 0, 94, 50
5, 42126, Note_on_c, 0, 94, 0
5, 42138, Note_on_c, 0, 96, 57
5, 42149, Note_on_c, 0, 94, 57
5, 42157, Note_on_c, 0, 92, 53
5, 42158, Note_on_c, 0, 96, 0
5, 42174, Note_on_c, 0, 90, 52
5, 42180, Note_on_c, 0, 94, 0
5, 42182, Note_on_c, 0, 92, 0
5, 42190, Note_on_c, 0, 90, 0
5, 42193, Note_on_c, 0, 88, 53
5, 42201, Note_on_c, 0, 88, 0
5, 42214, Note_on_c, 0, 87, 42
5, 42229, Note_on_c, 0, 85, 48
5, 42231, Note_on_c, 0, 87, 0
5, 42240, Note_on_c, 0, 85, 0
5, 42246, Note_on_c, 0, 84, 36
5, 42253, Note_on_c, 0, 84, 0
5, 42264, Note_on_c, 0, 82, 32
5, 42279, Note_on_c, 0, 80, 27
5, 42283, Note_on_c, 0, 82, 0
5, 42285, Note_on_c, 0, 78, 44
5, 42287, Note_on_c, 0, 80, 0
5, 42299, Note_on_c, 0, 78, 0
5, 42318, Note_on_c, 0, 75, 56
5, 42334, Note_on_c, 0, 73, 35
5, 42335, Note_on_c, 0, 75, 0
5, 42346, Note_on_c, 0, 73, 0
5, 42368, Note_on_c, 0, 70, 36
5, 42381, Note_on_c, 0, 68, 32
5, 42390, Note_on_c, 0, 66, 52
5, 42391, Note_on_c, 0, 70, 0
5, 42396, Note_on_c, 0, 68, 0
5, 42407, Note_on_c, 0, 66, 0
5, 42413, Note_on_c, 0, 64, 44
5, 42427, Note_on_c, 0, 64, 0
5, 42434, Note_on_c, 0, 63, 29
5, 42445, Note_on_c, 0, 61, 50
5, 42447, Note_on_c, 0, 63, 0
5, 42457, Note_on_c, 0, 61, 0
5, 42469, Note_on_c, 0, 60, 50
5, 42475, Note_on_c, 0, 60, 0
5, 42503, Note_on_c, 0, 58, 74
5, 42518, Note_on_c, 0, 58, 0
5, 42529, Note_on_c, 0, 56, 70
5, 42543, Note_on_c, 0, 56, 0
5, 42555, Note_on_c, 0, 54, 57
5, 42575, Note_on_c, 0, 54, 0
5, 42578, Note_on_c, 0, 52, 55
5, 42593, Note_on_c, 0, 52, 0
5, 42598, Note_on_c, 0, 51, 51
5, 42615, Note_on_c, 0, 49, 54
5, 42617, Note_on_c, 0, 51, 0
5, 42629, Note_on_c, 0, 49, 0
5, 42634, Note_on_c, 0, 47, 36
5, 42637, Note_on_c, 0, 48, 36
5, 42643, Note_on_c, 0, 47, 0
5, 42645, Note_on_c, 0, 48, 0
5, 42669, Note_on_c, 0, 47, 15
5, 42682, Note_on_c, 0, 47, 0
5, 42688, Note_on_c, 0, 36, 52
5, 42691, Note_on_c, 0, 45, 32
5, 42706, Note_on_c, 0, 45, 0
5, 42706, Note_on_c, 0, 36, 0
5, 42708, Note_on_c, 0, 29, 50
5, 42710, Note_on_c, 0, 41, 68
5, 42738, Note_on_c, 0, 41, 0
5, 42743, Note_on_c, 0, 29, 0
5, 42879, Note_on_c, 0, 79, 62
5, 42879, Note_on_c, 0, 67, 73
5, 42879, Note_on_c, 0, 72, 60
5, 42880, Note_on_c, 0, 76, 63
5, 42886, Note_on_c, 0, 72, 0
5, 42886, Note_on_c, 0, 67, 0
5, 42886, Note_on_c, 0, 64, 48
5, 42887, Note_on_c, 0, 60, 44
5, 42889, Note_on_c, 0, 76, 0
5, 42892, Note_on_c, 0, 79, 0
5, 42892, Note_on_c, 0, 64, 0
5, 42894, Note_on_c, 0, 60, 0
5, 42961, Note_on_c, 0, 64, 43
5, 42962, Note_on_c, 0, 79, 59
5, 42963, Note_on_c, 0, 53, 29
5, 42964, Note_on_c, 0, 67, 51
5, 42964, Note_on_c, 0, 76, 37
5, 42965, Note_on_c, 0, 57, 36
5, 42965, Note_on_c, 0, 60, 44
5, 42966, Note_on_c, 0, 72, 32
5, 43026, Note_on_c, 0, 67, 0
5, 43035, Note_on_c, 0, 60, 0
5, 43038, Note_on_c, 0, 79, 0
5, 43039, Note_on_c, 0, 72, 0
5, 43039, Note_on_c, 0, 76, 0
5, 43040, Note_on_c, 0, 64, 0
5, 43049, Note_on_c, 0, 57, 0
5, 43055, Note_on_c, 0, 72, 80
5, 43061, Note_on_c, 0, 64, 26
5, 43063, Note_on_c, 0, 60, 36
5, 43071, Note_on_c, 0, 57, 16
5, 43073, Note_on_c, 0, 64, 0
5, 43076, Note_on_c, 0, 60, 0
5, 43088, Note_on_c, 0, 57, 0
5, 43097, Note_on_c, 0, 72, 0
5, 43104, Note_on_c, 0, 74, 48
5, 43113, Note_on_c, 0, 72, 38
5, 43116, Note_on_c, 0, 57, 37
5, 43117, Note_on_c, 0, 60, 20
5, 43123, Note_on_c, 0, 74, 0
5, 43126, Note_on_c, 0, 71, 71
5, 43127, Note_on_c, 0, 53, 0
5, 43127, Note_on_c, 0, 60, 0
5, 43128, Note_on_c, 0, 72, 0
5, 43134, Note_on_c, 0, 57, 0
5, 43137, Note_on_c, 0, 71, 0
5, 43142, Note_on_c, 0, 72, 69
5, 43172, Note_on_c, 0, 72, 0
5, 43175, Note_on_c, 0, 74, 57
5, 43183, Note_on_c, 0, 72, 44
5, 43187, Note_on_c, 0, 62, 40
5, 43191, Note_on_c, 0, 74, 0
5, 43199, Note_on_c, 0, 71, 42
5, 43204, Note_on_c, 0, 72, 0
5, 43211, Note_on_c, 0, 62, 0
5, 43224, Note_on_c, 0, 71, 0
5, 43236, Note_on_c, 0, 72, 74
5, 43254, Note_on_c, 0, 72, 0
5, 43261, Note_on_c, 0, 74, 60
5, 43277, Note_on_c, 0, 74, 0
5, 43294, Note_on_c, 0, 74, 73
5, 43308, Note_on_c, 0, 74, 0
5, 43316, Note_on_c, 0, 67, 33
5, 43316, Note_on_c, 0, 56, 21
5, 43318, Note_on_c, 0, 62, 35
5, 43320, Note_on_c, 0, 75, 46
5, 43321, Note_on_c, 0, 74, 20
5, 43337, Note_on_c, 0, 75, 0
5, 43338, Note_on_c, 0, 76, 50
5, 43344, Note_on_c, 0, 74, 0
5, 43363, Note_on_c, 0, 67, 0
5, 43365, Note_on_c, 0, 76, 0
5, 43376, Note_on_c, 0, 56, 0
5, 43381, Note_on_c, 0, 62, 0
5, 43438, Note_on_c, 0, 67, 40
5, 43440, Note_on_c, 0, 56, 25
5, 43440, Note_on_c, 0, 62, 36
5, 43456, Note_on_c, 0, 67, 0
5, 43464, Note_on_c, 0, 56, 0
5, 43497, Note_on_c, 0, 62, 0
5, 43534, Note_on_c, 0, 56, 53
5, 43535, Note_on_c, 0, 67, 60
5, 43537, Note_on_c, 0, 62, 53
5, 43554, Note_on_c, 0, 67, 0
5, 43569, Note_on_c, 0, 56, 0
5, 43573, Note_on_c, 0, 62, 0
5, 43591, Note_on_c, 0, 74, 85
5, 43591, Note_on_c, 0, 56, 51
5, 43595, Note_on_c, 0, 62, 41
5, 43602, Note_on_c, 0, 62, 0
5, 43608, Note_on_c, 0, 56, 0
5, 43608, Note_on_c, 0, 74, 0
5, 43612, Note_on_c, 0, 76, 48
5, 43627, Note_on_c, 0, 74, 30
5, 43633, Note_on_c, 0, 76, 0
5, 43644, Note_on_c, 0, 74, 0
5, 43645, Note_on_c, 0, 73, 37
5, 43661, Note_on_c, 0, 73, 0
5, 43661, Note_on_c, 0, 74, 56
5, 43672, Note_on_c, 0, 62, 32
5, 43673, Note_on_c, 0, 52, 38
5, 43675, Note_on_c, 0, 55, 46
5, 43677, Note_on_c, 0, 74, 0
5, 43677, Note_on_c, 0, 59, 47
5, 43683, Note_on_c, 0, 79, 77
5, 43686, Note_on_c, 0, 67, 67
5, 43687, Note_on_c, 0, 69, 62
5, 43691, Note_on_c, 0, 62, 0
5, 43693, Note_on_c, 0, 69, 0
5, 43701, Note_on_c, 0, 52, 0
5, 43708, Note_on_c, 0, 59, 0
5, 43713, Note_on_c, 0, 79, 0
5, 43718, Note_on_c, 0, 67, 0
5, 43736, Note_on_c, 0, 79, 64
5, 43737, Note_on_c, 0, 55, 0
5, 43740, Note_on_c, 0, 67, 58
5, 43768, Note_on_c, 0, 79, 0
5, 43769, Note_on_c, 0, 67, 0
5, 43779, Note_on_c, 0, 79, 70
5, 43781, Note_on_c, 0, 67, 70
5, 43785, Note_on_c, 0, 62, 51
5, 43787, Note_on_c, 0, 59, 49
5, 43788, Note_on_c, 0, 55, 54
5, 43790, Note_on_c, 0, 52, 25
5, 43792, Note_on_c, 0, 62, 0
5, 43799, Note_on_c, 0, 67, 0
5, 43800, Note_on_c, 0, 79, 0
5, 43805, Note_on_c, 0, 52, 0
5, 43808, Note_on_c, 0, 59, 0
5, 43810, Note_on_c, 0, 79, 50
5, 43813, Note_on_c, 0, 55, 0
5, 43813, Note_on_c, 0, 67, 62
5, 43836, Note_on_c, 0, 67, 0
5, 43842, Note_on_c, 0, 79, 0
5, 43856, Note_on_c, 0, 72, 62
5, 43883, Note_on_c, 0, 72, 0
5, 43895, Note_on_c, 0, 72, 58
5, 43897, Note_on_c, 0, 62, 46
5, 43901, Note_on_c, 0, 55, 49
5, 43902, Note_on_c, 0, 59, 29
5, 43903, Note_on_c, 0, 52, 20
5, 43904, Note_on_c, 0, 62, 0
5, 43911, Note_on_c, 0, 72, 0
5, 43920, Note_on_c, 0, 52, 0
5, 43921, Note_on_c, 0, 59, 0
5, 43924, Note_on_c, 0, 55, 0
5, 43981, Note_on_c, 0, 59, 64
5, 43983, Note_on_c, 0, 52, 60
5, 43984, Note_on_c, 0, 55, 68
5, 44011, Note_on_c, 0, 59, 0
5, 44012, Note_on_c, 0, 55, 0
5, 44015, Note_on_c, 0, 52, 0
5, 44074, Note_on_c, 0, 62, 66
5, 44075, Note_on_c, 0, 52, 55
5, 44076, Note_on_c, 0, 59, 55
5, 44078, Note_on_c, 0, 55, 47
5, 44081, Note_on_c, 0, 54, 30
5, 44098, Note_on_c, 0, 55, 0
5, 44102, Note_on_c, 0, 54, 0
5, 44104, Note_on_c, 0, 59, 0
5, 44105, Note_on_c, 0, 52, 0
5, 44129, Note_on_c, 0, 62, 0
5, 44155, Note_on_c, 0, 64, 60
5, 44156, Note_on_c, 0, 53, 52
5, 44158, Note_on_c, 0, 60, 55
5, 44160, Note_on_c, 0, 57, 48
5, 44185, Note_on_c, 0, 64, 0
5, 44200, Note_on_c, 0, 53, 0
5, 44205, Note_on_c, 0, 60, 0
5, 44211, Note_on_c, 0, 57, 0
5, 44219, Note_on_c, 0, 84, 87
5, 44219, Note_on_c, 0, 72, 90
5, 44220, Note_on_c, 0, 79, 81
5, 44230, Note_on_c, 0, 72, 0
5, 44239, Note_on_c, 0, 79, 0
5, 44239, Note_on_c, 0, 84, 0
5, 44255, Note_on_c, 0, 84, 64
5, 44257, Note_on_c, 0, 72, 54
5, 44257, Note_on_c, 0, 79, 50
5, 44263, Note_on_c, 0, 72, 0
5, 44264, Note_on_c, 0, 84, 0
5, 44270, Note_on_c, 0, 79, 0
5, 44275, Note_on_c, 0, 64, 56
5, 44276, Note_on_c, 0, 53, 54
5, 44277, Note_on_c, 0, 60, 58
5, 44279, Note_on_c, 0, 57, 55
5, 44279, Note_on_c, 0, 79, 74
5, 44280, Note_on_c, 0, 86, 84
5, 44280, Note_on_c, 0, 74, 71
5, 44281, Note_on_c, 0, 82, 52
5, 44311, Note_on_c, 0, 86, 0
5, 44312, Note_on_c, 0, 74, 0
5, 44316, Note_on_c, 0, 64, 0
5, 44317, Note_on_c, 0, 79, 0
5, 44320, Note_on_c, 0, 82, 0
5, 44340, Note_on_c, 0, 84, 78
5, 44341, Note_on_c, 0, 79, 79
5, 44342, Note_on_c, 0, 72, 70
5, 44344, Note_on_c, 0, 60, 0
5, 44351, Note_on_c, 0, 57, 0
5, 44361, Note_on_c, 0, 53, 0
5, 44366, Note_on_c, 0, 84, 0
5, 44366, Note_on_c, 0, 79, 0
5, 44370, Note_on_c, 0, 72, 0
5, 44403, Note_on_c, 0, 78, 67
5, 44403, Note_on_c, 0, 71, 81
5, 44403, Note_on_c, 0, 83, 75
5, 44403, Note_on_c, 0, 64, 49
5, 44404, Note_on_c, 0, 53, 35
5, 44405, Note_on_c, 0, 60, 46
5, 44407, Note_on_c, 0, 57, 47
5, 44415, Note_on_c, 0, 78, 0
5, 44418, Note_on_c, 0, 79, 24
5, 44467, Note_on_c, 0, 79, 0
5, 44470, Note_on_c, 0, 83, 0
5, 44471, Note_on_c, 0, 64, 0
5, 44476, Note_on_c, 0, 53, 0
5, 44476, Note_on_c, 0, 57, 0
5, 44478, Note_on_c, 0, 71, 0
5, 44479, Note_on_c, 0, 60, 0
5, 44494, Note_on_c, 0, 81, 74
5, 44494, Note_on_c, 0, 69, 81
5, 44495, Note_on_c, 0, 77, 66
5, 44495, Note_on_c, 0, 53, 56
5, 44496, Control_c, 0, 64, 127
5, 44496, Note_on_c, 0, 64, 61
5, 44496, Note_on_c, 0, 60, 54
5, 44497, Note_on_c, 0, 57, 49
5, 44563, Note_on_c, 0, 60, 0
5, 44564, Note_on_c, 0, 64, 0
5, 44566, Note_on_c, 0, 57, 0
5, 44573, Note_on_c, 0, 81, 0
5, 44577, Note_on_c, 0, 77, 0
5, 44578, Note_on_c, 0, 53, 0
5, 44581, Note_on_c, 0, 69, 0
5, 44640, Note_on_c, 0, 52, 78
5, 44641, Note_on_c, 0, 59, 77
5, 44641, Note_on_c, 0, 74, 91
5, 44641, Note_on_c, 0, 55, 69
5, 44641, Note_on_c, 0, 79, 85
5, 44642, Note_on_c, 0, 67, 103
5, 44642, Note_on_c, 0, 62, 80
5, 44644, Control_c, 0, 64, 0
5, 44659, Note_on_c, 0, 67, 0
5, 44663, Note_on_c, 0, 74, 0
5, 44664, Note_on_c, 0, 79, 0
5, 44664, Note_on_c, 0, 62, 0
5, 44667, Note_on_c, 0, 59, 0
5, 44669, Note_on_c, 0, 55, 0
5, 44674, Note_on_c, 0, 74, 71
5, 44674, Note_on_c, 0, 79, 63
5, 44674, Note_on_c, 0, 67, 64
5, 44675, Note_on_c, 0, 62, 64
5, 44678, Note_on_c, 0, 59, 53
5, 44678, Note_on_c, 0, 55, 44
5, 44688, Note_on_c, 0, 67, 0
5, 44689, Note_on_c, 0, 59, 0
5, 44691, Note_on_c, 0, 62, 0
5, 44691, Note_on_c, 0, 74, 0
5, 44692, Note_on_c, 0, 79, 0
5, 44699, Note_on_c, 0, 79, 31
5, 44699, Note_on_c, 0, 62, 48
5, 44701, Note_on_c, 0, 67, 56
5, 44701, Note_on_c, 0, 74, 72
5, 44702, Note_on_c, 0, 59, 52
5, 44721, Note_on_c, 0, 67, 0
5, 44721, Note_on_c, 0, 79, 0
5, 44722, Note_on_c, 0, 52, 0
5, 44722, Note_on_c, 0, 74, 0
5, 44723, Note_on_c, 0, 59, 0
5, 44723, Note_on_c, 0, 62, 0
5, 44727, Note_on_c, 0, 55, 0
5, 44736, Note_on_c, 0, 79, 49
5, 44737, Note_on_c, 0, 74, 59
5, 44737, Note_on_c, 0, 67, 70
5, 44739, Note_on_c, 0, 62, 67
5, 44741, Note_on_c, 0, 59, 59
5, 44741, Note_on_c, 0, 55, 62
5, 44741, Note_on_c, 0, 52, 54
5, 44752, Note_on_c, 0, 59, 0
5, 44752, Note_on_c, 0, 62, 0
5, 44753, Note_on_c, 0, 67, 0
5, 44753, Note_on_c, 0, 74, 0
5, 44754, Note_on_c, 0, 79, 0
5, 44756, Note_on_c, 0, 52, 0
5, 44757, Note_on_c, 0, 55, 0
5, 44764, Note_on_c, 0, 79, 56
5, 44765, Note_on_c, 0, 74, 64
5, 44766, Note_on_c, 0, 67, 61
5, 44768, Note_on_c, 0, 59, 51
5, 44770, Note_on_c, 0, 62, 44
5, 44770, Note_on_c, 0, 55, 53
5, 44770, Note_on_c, 0, 52, 31
5, 44778, Note_on_c, 0, 52, 0
5, 44778, Note_on_c, 0, 62, 0
5, 44780, Note_on_c, 0, 67, 0
5, 44781, Note_on_c, 0, 74, 0
5, 44783, Note_on_c, 0, 79, 0
5, 44784, Note_on_c, 0, 59, 0
5, 44786, Note_on_c, 0, 55, 0
5, 44819, Note_on_c, 0, 55, 62
5, 44819, Note_on_c, 0, 59, 66
5, 44822, Note_on_c, 0, 62, 58
5, 44822, Note_on_c, 0, 74, 77
5, 44824, Note_on_c, 0, 79, 68
5, 44824, Note_on_c, 0, 67, 66
5, 44827, Note_on_c, 0, 62, 0
5, 44828, Note_on_c, 0, 55, 0
5, 44830, Note_on_c, 0, 67, 0
5, 44831, Note_on_c, 0, 59, 0
5, 44832, Note_on_c, 0, 74, 0
5, 44838, Note_on_c, 0, 79, 0
5, 44883, Note_on_c, 0, 84, 89
5, 44883, Note_on_c, 0, 77, 85
5, 44883, Note_on_c, 0, 72, 89
5, 44884, Note_on_c, 0, 81, 80
5, 44884, Note_on_c, 0, 55, 90
5, 44885, Note_on_c, 0, 61, 81
5, 44885, Note_on_c, 0, 65, 90
5, 44927, Control_c, 0, 64, 127
5, 44960, Note_on_c, 0, 72, 0
5, 44961, Note_on_c, 0, 65, 0
5, 44962, Note_on_c, 0, 55, 0
5, 44963, Note_on_c, 0, 84, 0
5, 44963, Note_on_c, 0, 77, 0
5, 44964, Note_on_c, 0, 81, 0
5, 44975, Note_on_c, 0, 61, 0
5, 45000, Note_on_c, 0, 61, 69
5, 45001, Note_on_c, 0, 55, 75
5, 45001, Note_on_c, 0, 77, 80
5, 45002, Note_on_c, 0, 84, 80
5, 45002, Note_on_c, 0, 81, 72
5, 45002, Note_on_c, 0, 65, 69
5, 45002, Note_on_c, 0, 72, 84
5, 45030, Note_on_c, 0, 84, 0
5, 45032, Note_on_c, 0, 65, 0
5, 45035, Note_on_c, 0, 81, 0
5, 45040, Note_on_c, 0, 77, 0
5, 45041, Note_on_c, 0, 72, 0
5, 45042, Note_on_c, 0, 61, 0
5, 45042, Note_on_c, 0, 55, 0
5, 45117, Control_c, 0, 64, 0
5, 45120, Note_on_c, 0, 57, 64
5, 45120, Note_on_c, 0, 53, 62
5, 45121, Note_on_c, 0, 79, 74
5, 45121, Note_on_c, 0, 50, 52
5, 45121, Note_on_c, 0, 76, 73
5, 45121, Note_on_c, 0, 72, 80
5, 45121, Note_on_c, 0, 60, 75
5, 45122, Note_on_c, 0, 67, 92
5, 45152, Control_c, 0, 64, 127
5, 45177, Note_on_c, 0, 60, 0
5, 45178, Note_on_c, 0, 50, 0
5, 45181, Note_on_c, 0, 67, 0
5, 45181, Note_on_c, 0, 57, 0
5, 45182, Note_on_c, 0, 72, 0
5, 45184, Note_on_c, 0, 79, 0
5, 45185, Note_on_c, 0, 53, 0
5, 45195, Note_on_c, 0, 76, 0
5, 45209, Note_on_c, 0, 67, 67
5, 45209, Note_on_c, 0, 79, 65
5, 45209, Note_on_c, 0, 72, 62
5, 45210, Note_on_c, 0, 50, 44
5, 45210, Note_on_c, 0, 60, 64
5, 45212, Note_on_c, 0, 76, 36
5, 45212, Note_on_c, 0, 57, 51
5, 45212, Note_on_c, 0, 53, 36
5, 45221, Note_on_c, 0, 67, 0
5, 45225, Note_on_c, 0, 72, 0
5, 45230, Note_on_c, 0, 76, 0
5, 45231, Note_on_c, 0, 79, 0
5, 45251, Note_on_c, 0, 50, 0
5, 45254, Note_on_c, 0, 53, 0
5, 45256, Note_on_c, 0, 57, 0
5, 45260, Note_on_c, 0, 60, 0
5, 45357, Note_on_c, 0, 80, 81
5, 45358, Note_on_c, 0, 88, 80
5, 45358, Note_on_c, 0, 83, 76
5, 45358, Note_on_c, 0, 53, 71
5, 45359, Note_on_c, 0, 76, 77
5, 45360, Note_on_c, 0, 56, 60
5, 45360, Note_on_c, 0, 64, 74
5, 45360, Note_on_c, 0, 59, 74
5, 45361, Control_c, 0, 64, 0
5, 45361, Note_on_c, 0, 86, 70
5, 45367, Note_on_c, 0, 86, 0
5, 45378, Control_c, 0, 64, 127
5, 45426, Note_on_c, 0, 88, 0
5, 45429, Note_on_c, 0, 64, 0
5, 45430, Note_on_c, 0, 59, 0
5, 45433, Note_on_c, 0, 83, 0
5, 45439, Note_on_c, 0, 80, 0
5, 45441, Note_on_c, 0, 76, 0
5, 45446, Note_on_c, 0, 53, 0
5, 45451, Note_on_c, 0, 56, 0
5, 45598, Note_on_c, 0, 62, 65
5, 45600, Note_on_c, 0, 57, 58
5, 45602, Note_on_c, 0, 55, 59
5, 45603, Note_on_c, 0, 74, 84
5, 45603, Note_on_c, 0, 79, 71
5, 45603, Note_on_c, 0, 81, 70
5, 45604, Note_on_c, 0, 84, 80
5, 45604, Note_on_c, 0, 52, 36
5, 45609, Note_on_c, 0, 55, 0
5, 45610, Note_on_c, 0, 79, 0
5, 45611, Note_on_c, 0, 74, 0
5, 45611, Note_on_c, 0, 81, 0
5, 45612, Note_on_c, 0, 52, 0
5, 45614, Note_on_c, 0, 62, 0
5, 45616, Note_on_c, 0, 84, 0
5, 45617, Note_on_c, 0, 57, 0
5, 45618, Control_c, 0, 64, 0
5, 45661, Note_on_c, 0, 81, 69
5, 45661, Note_on_c, 0, 79, 70
5, 45661, Note_on_c, 0, 74, 78
5, 45662, Note_on_c, 0, 84, 76
5, 45668, Note_on_c, 0, 74, 0
5, 45668, Note_on_c, 0, 79, 0
5, 45669, Note_on_c, 0, 81, 0
5, 45670, Note_on_c, 0, 84, 0
5, 45720, Note_on_c, 0, 62, 54
5, 45721, Note_on_c, 0, 74, 81
5, 45721, Note_on_c, 0, 81, 68
5, 45722, Note_on_c, 0, 79, 68
5, 45722, Note_on_c, 0, 84, 76
5, 45722, Note_on_c, 0, 57, 51
5, 45724, Note_on_c, 0, 52, 35
5, 45725, Note_on_c, 0, 55, 51
5, 45734, Note_on_c, 0, 79, 0
5, 45735, Note_on_c, 0, 74, 0
5, 45736, Note_on_c, 0, 84, 0
5, 45739, Note_on_c, 0, 81, 0
5, 45748, Note_on_c, 0, 52, 0
5, 45751, Note_on_c, 0, 55, 0
5, 45754, Note_on_c, 0, 74, 59
5, 45755, Note_on_c, 0, 84, 57
5, 45756, Note_on_c, 0, 79, 49
5, 45757, Note_on_c, 0, 57, 0
5, 45757, Note_on_c, 0, 62, 0
5, 45757, Note_on_c, 0, 81, 45
5, 45765, Note_on_c, 0, 81, 0
5, 45766, Note_on_c, 0, 79, 0
5, 45767, Note_on_c, 0, 84, 0
5, 45769, Note_on_c, 0, 74, 0
5, 45810, Note_on_c, 0, 62, 63
5, 45812, Note_on_c, 0, 57, 56
5, 45814, Note_on_c, 0, 55, 57
5, 45815, Note_on_c, 0, 52, 36
5, 45821, Note_on_c, 0, 55, 0
5, 45827, Note_on_c, 0, 62, 0
5, 45828, Note_on_c, 0, 52, 0
5, 45830, Note_on_c, 0, 57, 0
5, 45898, Note_on_c, 0, 62, 67
5, 45898, Note_on_c, 0, 57, 56
5, 45901, Note_on_c, 0, 55, 51
5, 45903, Note_on_c, 0, 52, 31
5, 45908, Note_on_c, 0, 55, 0
5, 45910, Note_on_c, 0, 62, 0
5, 45912, Note_on_c, 0, 52, 0
5, 45917, Note_on_c, 0, 57, 0
5, 45998, Note_on_c, 0, 57, 71
5, 45999, Note_on_c, 0, 62, 76
5, 46000, Note_on_c, 0, 55, 64
5, 46003, Note_on_c, 0, 52, 41
5, 46006, Note_on_c, 0, 62, 0
5, 46007, Note_on_c, 0, 55, 0
5, 46011, Note_on_c, 0, 52, 0
5, 46015, Note_on_c, 0, 57, 0
5, 46025, Note_on_c, 0, 81, 79
5, 46025, Note_on_c, 0, 79, 78
5, 46025, Note_on_c, 0, 74, 83
5, 46026, Note_on_c, 0, 84, 83
5, 46033, Note_on_c, 0, 74, 0
5, 46037, Note_on_c, 0, 79, 0
5, 46041, Note_on_c, 0, 81, 0
5, 46041, Note_on_c, 0, 84, 0
5, 46081, Note_on_c, 0, 54, 65
5, 46081, Note_on_c, 0, 80, 82
5, 46082, Note_on_c, 0, 64, 75
5, 46083, Note_on_c, 0, 76, 87
5, 46083, Note_on_c, 0, 58, 68
5, 46083, Note_on_c, 0, 84, 85
5, 46086, Note_on_c, 0, 78, 33
5, 46091, Note_on_c, 0, 76, 0
5, 46092, Note_on_c, 0, 78, 0
5, 46096, Note_on_c, 0, 80, 0
5, 46096, Note_on_c, 0, 84, 0
5, 46140, Note_on_c, 0, 80, 80
5, 46140, Note_on_c, 0, 76, 85
5, 46141, Note_on_c, 0, 58, 0
5, 46141, Note_on_c, 0, 84, 80
5, 46145, Note_on_c, 0, 54, 0
5, 46146, Note_on_c, 0, 64, 0
5, 46149, Note_on_c, 0, 84, 0
5, 46153, Note_on_c, 0, 80, 0
5, 46154, Note_on_c, 0, 76, 0
5, 46199, Note_on_c, 0, 64, 72
5, 46200, Note_on_c, 0, 54, 59
5, 46201, Note_on_c, 0, 80, 79
5, 46201, Note_on_c, 0, 58, 60
5, 46202, Note_on_c, 0, 76, 84
5, 46202, Note_on_c, 0, 84, 82
5, 46214, Note_on_c, 0, 76, 0
5, 46217, Note_on_c, 0, 84, 0
5, 46220, Note_on_c, 0, 80, 0
5, 46235, Note_on_c, 0, 80, 46
5, 46236, Note_on_c, 0, 76, 65
5, 46238, Note_on_c, 0, 84, 48
5, 46246, Note_on_c, 0, 84, 0
5, 46247, Note_on_c, 0, 76, 0
5, 46248, Note_on_c, 0, 58, 0
5, 46248, Note_on_c, 0, 64, 0
5, 46248, Note_on_c, 0, 54, 0
5, 46250, Note_on_c, 0, 80, 0
5, 46291, Note_on_c, 0, 54, 74
5, 46291, Note_on_c, 0, 64, 76
5, 46292, Note_on_c, 0, 58, 64
5, 46293, Note_on_c, 0, 80, 82
5, 46294, Note_on_c, 0, 76, 87
5, 46294, Note_on_c, 0, 84, 85
5, 46329, Note_on_c, 0, 76, 0
5, 46331, Note_on_c, 0, 84, 0
5, 46335, Note_on_c, 0, 80, 0
5, 46375, Note_on_c, 0, 81, 118
5, 46390, Note_on_c, 0, 81, 0
5, 46410, Note_on_c, 0, 81, 91
5, 46426, Note_on_c, 0, 81, 0
5, 46439, Note_on_c, 0, 82, 77
5, 46459, Note_on_c, 0, 82, 0
5, 46473, Note_on_c, 0, 82, 73
5, 46477, Note_on_c, 0, 64, 0
5, 46492, Note_on_c, 0, 58, 0
5, 46498, Note_on_c, 0, 82, 0
5, 46502, Note_on_c, 0, 81, 81
5, 46503, Note_on_c, 0, 64, 61
5, 46505, Note_on_c, 0, 58, 42
5, 46518, Note_on_c, 0, 64, 0
5, 46518, Note_on_c, 0, 54, 0
5, 46520, Note_on_c, 0, 58, 0
5, 46524, Note_on_c, 0, 81, 0
5, 46564, Note_on_c, 0, 81, 101
5, 46565, Note_on_c, 0, 65, 73
5, 46566, Note_on_c, 0, 57, 66
5, 46567, Note_on_c, 0, 62, 58
5, 46574, Note_on_c, 0, 62, 0
5, 46574, Note_on_c, 0, 57, 0
5, 46577, Note_on_c, 0, 65, 0
5, 46651, Note_on_c, 0, 80, 52
5, 46654, Note_on_c, 0, 81, 0
5, 46666, Note_on_c, 0, 80, 0
5, 46677, Note_on_c, 0, 78, 50
5, 46694, Note_on_c, 0, 57, 30
5, 46695, Note_on_c, 0, 65, 19
5, 46696, Note_on_c, 0, 78, 0
5, 46696, Note_on_c, 0, 62, 29
5, 46701, Note_on_c, 0, 77, 52
5, 46717, Note_on_c, 0, 57, 0
5, 46718, Note_on_c, 0, 77, 0
5, 46725, Note_on_c, 0, 65, 0
5, 46726, Note_on_c, 0, 62, 0
5, 46794, Note_on_c, 0, 65, 50
5, 46796, Note_on_c, 0, 62, 42
5, 46799, Note_on_c, 0, 57, 34
5, 46807, Note_on_c, 0, 57, 0
5, 46808, Note_on_c, 0, 65, 0
5, 46810, Note_on_c, 0, 62, 0
5, 46856, Note_on_c, 0, 65, 43
5, 46858, Note_on_c, 0, 57, 43
5, 46858, Note_on_c, 0, 62, 41
5, 46868, Note_on_c, 0, 65, 0
5, 46870, Note_on_c, 0, 57, 0
5, 46873, Note_on_c, 0, 62, 0
5, 46952, Note_on_c, 0, 65, 43
5, 46952, Note_on_c, 0, 57, 47
5, 46955, Note_on_c, 0, 62, 36
5, 46965, Note_on_c, 0, 65, 0
5, 46966, Note_on_c, 0, 62, 0
5, 46970, Note_on_c, 0, 57, 0
5, 47036, Note_on_c, 0, 65, 43
5, 47037, Note_on_c, 0, 62, 42
5, 47038, Note_on_c, 0, 56, 35
5, 47050, Note_on_c, 0, 65, 0
5, 47054, Note_on_c, 0, 56, 0
5, 47055, Note_on_c, 0, 62, 0
5, 47138, Note_on_c, 0, 75, 75
5, 47148, Note_on_c, 0, 65, 45
5, 47148, Note_on_c, 0, 56, 45
5, 47149, Note_on_c, 0, 62, 41
5, 47155, Note_on_c, 0, 75, 0
5, 47157, Note_on_c, 0, 65, 0
5, 47161, Note_on_c, 0, 62, 0
5, 47166, Note_on_c, 0, 56, 0
5, 47166, Note_on_c, 0, 76, 55
5, 47188, Note_on_c, 0, 76, 0
5, 47198, Note_on_c, 0, 76, 73
5, 47219, Note_on_c, 0, 76, 0
5, 47222, Note_on_c, 0, 80, 61
5, 47235, Note_on_c, 0, 80, 0
5, 47250, Note_on_c, 0, 80, 70
5, 47264, Note_on_c, 0, 65, 32
5, 47267, Note_on_c, 0, 62, 33
5, 47268, Note_on_c, 0, 80, 0
5, 47268, Note_on_c, 0, 56, 25
5, 47275, Note_on_c, 0, 83, 74
5, 47279, Note_on_c, 0, 65, 0
5, 47286, Note_on_c, 0, 56, 0
5, 47290, Note_on_c, 0, 83, 0
5, 47292, Note_on_c, 0, 62, 0
5, 47312, Note_on_c, 0, 83, 62
5, 47321, Note_on_c, 0, 62, 27
5, 47327, Note_on_c, 0, 83, 0
5, 47335, Note_on_c, 0, 74, 72
5, 47335, Note_on_c, 0, 86, 84
5, 47347, Note_on_c, 0, 62, 0
5, 47375, Note_on_c, 0, 86, 0
5, 47379, Note_on_c, 0, 74, 0
5, 47399, Note_on_c, 0, 86, 83
5, 47400, Note_on_c, 0, 74, 66
5, 47400, Note_on_c, 0, 62, 39
5, 47401, Note_on_c, 0, 65, 60
5, 47401, Note_on_c, 0, 56, 49
5, 47418, Note_on_c, 0, 65, 0
5, 47430, Note_on_c, 0, 62, 0
5, 47431, Note_on_c, 0, 74, 0
5, 47438, Note_on_c, 0, 86, 0
5, 47441, Note_on_c, 0, 56, 0
5, 47461, Note_on_c, 0, 84, 83
5, 47491, Note_on_c, 0, 84, 0
5, 47521, Note_on_c, 0, 64, 36
5, 47522, Note_on_c, 0, 57, 39
5, 47522, Note_on_c, 0, 81, 41
5, 47523, Note_on_c, 0, 82, 47
5, 47524, Note_on_c, 0, 60, 45
5, 47524, Note_on_c, 0, 59, 34
5, 47530, Note_on_c, 0, 81, 0
5, 47536, Note_on_c, 0, 83, 47
5, 47538, Note_on_c, 0, 82, 0
5, 47552, Note_on_c, 0, 59, 0
5, 47565, Note_on_c, 0, 57, 0
5, 47571, Note_on_c, 0, 60, 0
5, 47573, Note_on_c, 0, 64, 0
5, 47575, Note_on_c, 0, 83, 0
5, 47581, Note_on_c, 0, 81, 36
5, 47599, Note_on_c, 0, 81, 0
5, 47620, Note_on_c, 0, 84, 75
5, 47620, Note_on_c, 0, 64, 40
5, 47623, Note_on_c, 0, 57, 42
5, 47624, Note_on_c, 0, 60, 49
5, 47633, Note_on_c, 0, 84, 0
5, 47635, Note_on_c, 0, 60, 0
5, 47638, Note_on_c, 0, 64, 0
5, 47645, Note_on_c, 0, 57, 0
5, 47699, Note_on_c, 0, 64, 25
5, 47700, Note_on_c, 0, 57, 34
5, 47702, Note_on_c, 0, 60, 41
5, 47711, Note_on_c, 0, 60, 0
5, 47713, Note_on_c, 0, 64, 0
5, 47715, Note_on_c, 0, 57, 0
5, 47761, Note_on_c, 0, 64, 24
5, 47761, Note_on_c, 0, 55, 37
5, 47763, Note_on_c, 0, 60, 45
5, 47772, Note_on_c, 0, 60, 0
5, 47773, Note_on_c, 0, 55, 0
5, 47775, Note_on_c, 0, 64, 0
5, 47826, Note_on_c, 0, 55, 71
5, 47826, Note_on_c, 0, 64, 64
5, 47827, Note_on_c, 0, 60, 71
5, 47847, Note_on_c, 0, 64, 0
5, 47847, Note_on_c, 0, 55, 0
5, 47851, Note_on_c, 0, 60, 0
5, 47911, Note_on_c, 0, 55, 56
5, 47914, Note_on_c, 0, 60, 54
5, 47916, Note_on_c, 0, 64, 37
5, 47928, Note_on_c, 0, 64, 0
5, 47931, Note_on_c, 0, 55, 0
5, 47934, Note_on_c, 0, 60, 0
5, 47998, Note_on_c, 0, 64, 33
5, 48000, Note_on_c, 0, 60, 36
5, 48001, Note_on_c, 0, 57, 47
5, 48002, Note_on_c, 0, 53, 24
5, 48016, Note_on_c, 0, 60, 0
5, 48023, Note_on_c, 0, 64, 0
5, 48031, Note_on_c, 0, 57, 0
5, 48049, Note_on_c, 0, 53, 0
5, 48094, Note_on_c, 0, 60, 47
5, 48096, Note_on_c, 0, 57, 39
5, 48101, Note_on_c, 0, 60, 0
5, 48104, Note_on_c, 0, 57, 0
5, 48120, Note_on_c, 0, 75, 47
5, 48123, Note_on_c, 0, 63, 48
5, 48131, Note_on_c, 0, 69, 29
5, 48132, Note_on_c, 0, 72, 20
5, 48142, Note_on_c, 0, 69, 0
5, 48146, Note_on_c, 0, 63, 0
5, 48150, Note_on_c, 0, 75, 0
5, 48155, Note_on_c, 0, 69, 39
5, 48156, Note_on_c, 0, 76, 59
5, 48157, Note_on_c, 0, 64, 56
5, 48204, Note_on_c, 0, 64, 0
5, 48206, Note_on_c, 0, 69, 0
5, 48210, Note_on_c, 0, 72, 0
5, 48214, Note_on_c, 0, 62, 32
5, 48217, Note_on_c, 0, 76, 0
5, 48221, Note_on_c, 0, 62, 0
5, 48223, Note_on_c, 0, 57, 30
5, 48233, Note_on_c, 0, 57, 0
5, 48239, Note_on_c, 0, 77, 69
5, 48241, Note_on_c, 0, 65, 56
5, 48242, Note_on_c, 0, 72, 47
5, 48275, Note_on_c, 0, 65, 0
5, 48282, Note_on_c, 0, 72, 0
5, 48286, Note_on_c, 0, 77, 0
5, 48330, Note_on_c, 0, 62, 40
5, 48338, Note_on_c, 0, 62, 0
5, 48339, Note_on_c, 0, 57, 32
5, 48348, Note_on_c, 0, 57, 0
5, 48356, Note_on_c, 0, 69, 60
5, 48356, Note_on_c, 0, 81, 56
5, 48356, Note_on_c, 0, 74, 50
5, 48360, Note_on_c, 0, 77, 36
5, 48363, Note_on_c, 0, 69, 0
5, 48365, Note_on_c, 0, 74, 0
5, 48369, Note_on_c, 0, 77, 0
5, 48374, Note_on_c, 0, 81, 0
5, 48394, Note_on_c, 0, 72, 68
5, 48396, Note_on_c, 0, 84, 66
5, 48396, Note_on_c, 0, 62, 48
5, 48401, Note_on_c, 0, 72, 0
5, 48402, Note_on_c, 0, 62, 0
5, 48402, Note_on_c, 0, 60, 24
5, 48403, Note_on_c, 0, 84, 0
5, 48404, Note_on_c, 0, 57, 27
5, 48408, Note_on_c, 0, 60, 0
5, 48414, Note_on_c, 0, 57, 0
5, 48446, Note_on_c, 0, 88, 78
5, 48450, Note_on_c, 0, 76, 33
5, 48458, Note_on_c, 0, 76, 0
5, 48458, Note_on_c, 0, 88, 0
5, 48488, Note_on_c, 0, 88, 80
5, 48491, Note_on_c, 0, 76, 68
5, 48499, Note_on_c, 0, 76, 0
5, 48506, Note_on_c, 0, 88, 0
5, 48581, Note_on_c, 0, 60, 58
5, 48588, Note_on_c, 0, 60, 0
5, 48588, Note_on_c, 0, 53, 22
5, 48597, Note_on_c, 0, 53, 0
5, 48660, Note_on_c, 0, 72, 80
5, 48660, Note_on_c, 0, 84, 83
5, 48661, Note_on_c, 0, 81, 71
5, 48661, Note_on_c, 0, 60, 68
5, 48662, Note_on_c, 0, 57, 54
5, 48662, Note_on_c, 0, 77, 69
5, 48663, Note_on_c, 0, 53, 51
5, 48665, Note_on_c, 0, 50, 31
5, 48718, Control_c, 0, 64, 127
5, 48727, Note_on_c, 0, 84, 0
5, 48728, Note_on_c, 0, 72, 0
5, 48731, Note_on_c, 0, 81, 0
5, 48734, Note_on_c, 0, 60, 0
5, 48737, Note_on_c, 0, 57, 0
5, 48740, Note_on_c, 0, 77, 0
5, 48741, Note_on_c, 0, 50, 0
5, 48747, Note_on_c, 0, 53, 0
5, 48753, Note_on_c, 0, 81, 59
5, 48754, Note_on_c, 0, 69, 62
5, 48756, Note_on_c, 0, 50, 25
5, 48757, Note_on_c, 0, 53, 19
5, 48758, Note_on_c, 0, 60, 49
5, 48759, Note_on_c, 0, 57, 34
5, 48760, Note_on_c, 0, 80, 25
5, 48789, Note_on_c, 0, 57, 0
5, 48791, Note_on_c, 0, 50, 0
5, 48794, Note_on_c, 0, 53, 0
5, 48805, Note_on_c, 0, 69, 0
5, 48806, Note_on_c, 0, 60, 0
5, 48811, Note_on_c, 0, 81, 0
5, 48819, Note_on_c, 0, 80, 0
5, 48839, Control_c, 0, 64, 0
5, 48899, Note_on_c, 0, 60, 64
5, 48901, Note_on_c, 0, 74, 77
5, 48901, Note_on_c, 0, 86, 84
5, 48903, Note_on_c, 0, 57, 41
5, 48903, Note_on_c, 0, 53, 34
5, 48906, Note_on_c, 0, 60, 0
5, 48910, Note_on_c, 0, 57, 0
5, 48911, Note_on_c, 0, 74, 0
5, 48911, Note_on_c, 0, 53, 0
5, 48913, Note_on_c, 0, 86, 0
5, 49022, Note_on_c, 0, 78, 77
5, 49023, Note_on_c, 0, 53, 62
5, 49023, Note_on_c, 0, 71, 87
5, 49024, Note_on_c, 0, 83, 81
5, 49024, Note_on_c, 0, 64, 51
5, 49025, Note_on_c, 0, 59, 53
5, 49037, Note_on_c, 0, 78, 0
5, 49040, Note_on_c, 0, 79, 44
5, 49074, Control_c, 0, 64, 127
5, 49075, Note_on_c, 0, 83, 0
5, 49079, Note_on_c, 0, 79, 0
5, 49080, Note_on_c, 0, 71, 0
5, 49090, Note_on_c, 0, 64, 0
5, 49091, Note_on_c, 0, 53, 0
5, 49098, Note_on_c, 0, 59, 0
5, 49110, Note_on_c, 0, 79, 59
5, 49111, Note_on_c, 0, 67, 68
5, 49112, Note_on_c, 0, 59, 68
5, 49112, Note_on_c, 0, 53, 69
5, 49113, Note_on_c, 0, 64, 69
5, 49114, Note_on_c, 0, 77, 55
5, 49139, Note_on_c, 0, 77, 0
5, 49140, Note_on_c, 0, 67, 0
5, 49146, Note_on_c, 0, 79, 0
5, 49160, Note_on_c, 0, 59, 0
5, 49162, Note_on_c, 0, 64, 0
5, 49165, Note_on_c, 0, 53, 0
5, 49195, Note_on_c, 0, 83, 73
5, 49196, Note_on_c, 0, 77, 66
5, 49197, Note_on_c, 0, 62, 75
5, 49197, Note_on_c, 0, 56, 63
5, 49197, Note_on_c, 0, 71, 73
5, 49197, Note_on_c, 0, 59, 73
5, 49198, Note_on_c, 0, 53, 67
5, 49202, Control_c, 0, 64, 0
5, 49203, Note_on_c, 0, 80, 25
5, 49208, Note_on_c, 0, 80, 0
5, 49233, Control_c, 0, 64, 127
5, 49237, Note_on_c, 0, 71, 0
5, 49242, Note_on_c, 0, 77, 0
5, 49244, Note_on_c, 0, 83, 0
5, 49259, Note_on_c, 0, 59, 0
5, 49261, Note_on_c, 0, 62, 0
5, 49263, Note_on_c, 0, 56, 0
5, 49265, Note_on_c, 0, 53, 0
5, 49289, Note_on_c, 0, 86, 81
5, 49290, Note_on_c, 0, 80, 68
5, 49290, Note_on_c, 0, 74, 76
5, 49291, Note_on_c, 0, 56, 55
5, 49291, Note_on_c, 0, 83, 65
5, 49291, Note_on_c, 0, 53, 69
5, 49291, Note_on_c, 0, 59, 71
5, 49292, Note_on_c, 0, 62, 71
5, 49298, Control_c, 0, 64, 0
5, 49309, Control_c, 0, 64, 127
5, 49317, Note_on_c, 0, 74, 0
5, 49324, Note_on_c, 0, 80, 0
5, 49325, Note_on_c, 0, 83, 0
5, 49325, Note_on_c, 0, 86, 0
5, 49327, Note_on_c, 0, 59, 0
5, 49332, Note_on_c, 0, 62, 0
5, 49332, Note_on_c, 0, 56, 0
5, 49335, Note_on_c, 0, 53, 0
5, 49375, Control_c, 0, 64, 0
5, 49377, Note_on_c, 0, 77, 92
5, 49377, Note_on_c, 0, 89, 84
5, 49378, Note_on_c, 0, 53, 81
5, 49378, Note_on_c, 0, 62, 89
5, 49378, Note_on_c, 0, 86, 89
5, 49378, Note_on_c, 0, 83, 80
5, 49378, Note_on_c, 0, 59, 80
5, 49379, Note_on_c, 0, 56, 60
5, 49524, Note_on_c, 0, 59, 0
5, 49533, Note_on_c, 0, 62, 0
5, 49537, Note_on_c, 0, 89, 0
5, 49543, Note_on_c, 0, 53, 0
5, 49546, Note_on_c, 0, 77, 0
5, 49548, Note_on_c, 0, 86, 0
5, 49553, Note_on_c, 0, 83, 0
5, 49554, Note_on_c, 0, 56, 0
5, 49563, Note_on_c, 0, 60, 45
5, 49564, Note_on_c, 0, 88, 55
5, 49565, Note_on_c, 0, 55, 47
5, 49565, Note_on_c, 0, 83, 32
5, 49566, Note_on_c, 0, 76, 34
5, 49566, Note_on_c, 0, 57, 41
5, 49573, Note_on_c, 0, 52, 24
5, 49574, Note_on_c, 0, 57, 0
5, 49574, Note_on_c, 0, 60, 0
5, 49577, Note_on_c, 0, 76, 0
5, 49577, Note_on_c, 0, 83, 0
5, 49579, Note_on_c, 0, 55, 0
5, 49580, Note_on_c, 0, 52, 0
5, 49582, Note_on_c, 0, 88, 0
5, 49623, Note_on_c, 0, 60, 50
5, 49624, Note_on_c, 0, 83, 44
5, 49624, Note_on_c, 0, 76, 46
5, 49625, Note_on_c, 0, 88, 41
5, 49627, Note_on_c, 0, 57, 35
5, 49629, Note_on_c, 0, 55, 33
5, 49633, Note_on_c, 0, 88, 0
5, 49633, Note_on_c, 0, 83, 0
5, 49633, Note_on_c, 0, 52, 17
5, 49636, Note_on_c, 0, 57, 0
5, 49637, Note_on_c, 0, 60, 0
5, 49637, Note_on_c, 0, 55, 0
5, 49638, Note_on_c, 0, 76, 0
5, 49640, Note_on_c, 0, 52, 0
5, 49741, Note_on_c, 0, 60, 44
5, 49747, Note_on_c, 0, 57, 33
5, 49748, Note_on_c, 0, 52, 25
5, 49751, Note_on_c, 0, 55, 22
5, 49757, Note_on_c, 0, 57, 0
5, 49758, Note_on_c, 0, 52, 0
5, 49759, Note_on_c, 0, 60, 0
5, 49759, Note_on_c, 0, 55, 0
5, 49825, Note_on_c, 0, 69, 49
5, 49833, Note_on_c, 0, 69, 0
5, 49840, Note_on_c, 0, 76, 83
5, 49864, Note_on_c, 0, 74, 70
5, 49868, Note_on_c, 0, 57, 38
5, 49870, Note_on_c, 0, 62, 32
5, 49870, Note_on_c, 0, 64, 22
5, 49873, Note_on_c, 0, 76, 0
5, 49886, Note_on_c, 0, 64, 0
5, 49889, Note_on_c, 0, 62, 0
5, 49889, Note_on_c, 0, 57, 0
5, 49901, Note_on_c, 0, 74, 0
5, 49979, Note_on_c, 0, 71, 65
5, 50000, Note_on_c, 0, 71, 0
5, 50012, Note_on_c, 0, 72, 32
5, 50019, Note_on_c, 0, 71, 53
5, 50026, Note_on_c, 0, 72, 0
5, 50040, Note_on_c, 0, 69, 51
5, 50042, Note_on_c, 0, 71, 0
5, 50064, Note_on_c, 0, 69, 0
5, 50074, Note_on_c, 0, 68, 59
5, 50078, Note_on_c, 0, 64, 35
5, 50085, Note_on_c, 0, 64, 0
5, 50090, Note_on_c, 0, 68, 0
5, 50098, Note_on_c, 0, 74, 71
5, 50213, Note_on_c, 0, 56, 58
5, 50215, Note_on_c, 0, 65, 64
5, 50216, Note_on_c, 0, 62, 58
5, 50230, Note_on_c, 0, 65, 0
5, 50242, Note_on_c, 0, 56, 0
5, 50246, Note_on_c, 0, 62, 0
5, 50288, Note_on_c, 0, 74, 0
5, 50310, Note_on_c, 0, 56, 60
5, 50312, Note_on_c, 0, 62, 57
5, 50312, Note_on_c, 0, 65, 64
5, 50345, Note_on_c, 0, 62, 0
5, 50358, Note_on_c, 0, 65, 0
5, 50374, Note_on_c, 0, 56, 0
5, 50399, Note_on_c, 0, 57, 57
5, 50400, Note_on_c, 0, 64, 49
5, 50401, Note_on_c, 0, 81, 74
5, 50402, Note_on_c, 0, 74, 73
5, 50403, Note_on_c, 0, 76, 64
5, 50403, Note_on_c, 0, 60, 44
5, 50409, Note_on_c, 0, 76, 0
5, 50411, Note_on_c, 0, 60, 0
5, 50414, Note_on_c, 0, 64, 0
5, 50423, Note_on_c, 0, 57, 0
5, 50429, Note_on_c, 0, 81, 0
5, 50429, Note_on_c, 0, 74, 0
5, 50494, Note_on_c, 0, 74, 90
5, 50495, Note_on_c, 0, 64, 51
5, 50497, Note_on_c, 0, 81, 73
5, 50499, Note_on_c, 0, 60, 40
5, 50499, Note_on_c, 0, 57, 40
5, 50507, Note_on_c, 0, 60, 0
5, 50509, Note_on_c, 0, 64, 0
5, 50517, Note_on_c, 0, 57, 0
5, 50520, Note_on_c, 0, 74, 0
5, 50530, Note_on_c, 0, 81, 0
5, 50530, Note_on_c, 0, 75, 44
5, 50541, Note_on_c, 0, 74, 58
5, 50550, Note_on_c, 0, 75, 0
5, 50559, Note_on_c, 0, 72, 48
5, 50560, Note_on_c, 0, 74, 0
5, 50570, Note_on_c, 0, 72, 0
5, 50579, Note_on_c, 0, 57, 30
5, 50580, Note_on_c, 0, 71, 58
5, 50582, Note_on_c, 0, 64, 17
5, 50596, Note_on_c, 0, 64, 0
5, 50601, Note_on_c, 0, 57, 0
5, 50609, Note_on_c, 0, 71, 0
5, 50615, Note_on_c, 0, 74, 71
5, 50633, Note_on_c, 0, 57, 13
5, 50641, Note_on_c, 0, 72, 45
5, 50651, Note_on_c, 0, 74, 0
5, 50659, Note_on_c, 0, 57, 0
5, 50666, Note_on_c, 0, 72, 0
5, 50677, Note_on_c, 0, 64, 55
5, 50694, Note_on_c, 0, 64, 0
5, 50763, Note_on_c, 0, 55, 44
5, 50766, Note_on_c, 0, 57, 38
5, 50769, Note_on_c, 0, 64, 15
5, 50779, Note_on_c, 0, 64, 0
5, 50780, Note_on_c, 0, 55, 0
5, 50786, Note_on_c, 0, 57, 0
5, 50858, Note_on_c, 0, 64, 33
5, 50864, Note_on_c, 0, 60, 24
5, 50870, Note_on_c, 0, 64, 0
5, 50874, Note_on_c, 0, 60, 0
5, 50941, Note_on_c, 0, 64, 53
5, 50944, Note_on_c, 0, 60, 51
5, 50948, Note_on_c, 0, 57, 26
5, 50953, Note_on_c, 0, 64, 0
5, 50959, Note_on_c, 0, 57, 0
5, 50961, Note_on_c, 0, 60, 0
5, 51002, Note_on_c, 0, 87, 74
5, 51003, Note_on_c, 0, 75, 91
5, 51006, Note_on_c, 0, 81, 57
5, 51007, Note_on_c, 0, 84, 53
5, 51014, Note_on_c, 0, 81, 0
5, 51015, Note_on_c, 0, 84, 0
5, 51027, Note_on_c, 0, 87, 0
5, 51029, Note_on_c, 0, 75, 0
5, 51036, Note_on_c, 0, 84, 46
5, 51036, Note_on_c, 0, 81, 45
5, 51037, Note_on_c, 0, 88, 55
5, 51037, Note_on_c, 0, 76, 55
5, 51042, Note_on_c, 0, 86, 43
5, 51048, Note_on_c, 0, 86, 0
5, 51050, Note_on_c, 0, 88, 0
5, 51052, Note_on_c, 0, 76, 0
5, 51054, Note_on_c, 0, 81, 0
5, 51054, Note_on_c, 0, 84, 0
5, 51063, Note_on_c, 0, 88, 59
5, 51065, Note_on_c, 0, 76, 36
5, 51069, Note_on_c, 0, 84, 35
5, 51069, Note_on_c, 0, 81, 32
5, 51080, Note_on_c, 0, 88, 0
5, 51084, Note_on_c, 0, 84, 0
5, 51086, Note_on_c, 0, 81, 0
5, 51088, Note_on_c, 0, 76, 0
5, 51093, Note_on_c, 0, 76, 24
5, 51094, Note_on_c, 0, 88, 57
5, 51098, Note_on_c, 0, 86, 44
5, 51098, Note_on_c, 0, 81, 36
5, 51100, Note_on_c, 0, 84, 57
5, 51106, Note_on_c, 0, 86, 0
5, 51106, Note_on_c, 0, 88, 0
5, 51107, Note_on_c, 0, 76, 0
5, 51114, Note_on_c, 0, 54, 45
5, 51115, Note_on_c, 0, 64, 46
5, 51120, Note_on_c, 0, 87, 53
5, 51120, Note_on_c, 0, 60, 37
5, 51121, Note_on_c, 0, 75, 36
5, 51127, Note_on_c, 0, 64, 0
5, 51128, Note_on_c, 0, 60, 0
5, 51134, Note_on_c, 0, 54, 0
5, 51143, Note_on_c, 0, 87, 0
5, 51145, Note_on_c, 0, 75, 0
5, 51146, Note_on_c, 0, 84, 0
5, 51147, Note_on_c, 0, 81, 0
5, 51154, Note_on_c, 0, 88, 61
5, 51154, Note_on_c, 0, 81, 24
5, 51155, Note_on_c, 0, 84, 28
5, 51155, Note_on_c, 0, 76, 53
5, 51158, Note_on_c, 0, 86, 48
5, 51165, Note_on_c, 0, 86, 0
5, 51166, Note_on_c, 0, 88, 0
5, 51167, Note_on_c, 0, 76, 0
5, 51171, Note_on_c, 0, 81, 0
5, 51172, Note_on_c, 0, 84, 0
5, 51179, Note_on_c, 0, 88, 58
5, 51183, Note_on_c, 0, 84, 29
5, 51183, Note_on_c, 0, 81, 33
5, 51185, Note_on_c, 0, 76, 24
5, 51195, Note_on_c, 0, 88, 0
5, 51197, Note_on_c, 0, 76, 0
5, 51205, Note_on_c, 0, 84, 0
5, 51208, Note_on_c, 0, 81, 0
5, 51212, Note_on_c, 0, 88, 58
5, 51213, Note_on_c, 0, 81, 24
5, 51215, Note_on_c, 0, 76, 57
5, 51216, Note_on_c, 0, 86, 41
5, 51222, Note_on_c, 0, 54, 40
5, 51223, Note_on_c, 0, 86, 0
5, 51226, Note_on_c, 0, 88, 0
5, 51226, Note_on_c, 0, 64, 29
5, 51227, Note_on_c, 0, 76, 0
5, 51228, Note_on_c, 0, 60, 36
5, 51230, Note_on_c, 0, 81, 0
5, 51234, Note_on_c, 0, 64, 0
5, 51238, Note_on_c, 0, 60, 0
5, 51241, Note_on_c, 0, 54, 0
5, 51242, Note_on_c, 0, 84, 50
5, 51245, Note_on_c, 0, 72, 47
5, 51275, Note_on_c, 0, 72, 0
5, 51280, Note_on_c, 0, 84, 0
5, 51295, Note_on_c, 0, 54, 44
5, 51296, Note_on_c, 0, 81, 66
5, 51321, Note_on_c, 0, 81, 0
5, 51330, Note_on_c, 0, 54, 0
5, 51358, Note_on_c, 0, 62, 53
5, 51358, Note_on_c, 0, 84, 82
5, 51360, Note_on_c, 0, 55, 44
5, 51363, Note_on_c, 0, 58, 29
5, 51365, Note_on_c, 0, 57, 29
5, 51375, Note_on_c, 0, 57, 0
5, 51379, Note_on_c, 0, 62, 0
5, 51382, Note_on_c, 0, 55, 0
5, 51385, Note_on_c, 0, 58, 0
5, 51386, Note_on_c, 0, 84, 0
5, 51420, Note_on_c, 0, 82, 77
5, 51445, Note_on_c, 0, 82, 0
5, 51484, Note_on_c, 0, 62, 37
5, 51484, Note_on_c, 0, 81, 66
5, 51486, Note_on_c, 0, 58, 39
5, 51488, Note_on_c, 0, 55, 33
5, 51540, Note_on_c, 0, 62, 0
5, 51553, Note_on_c, 0, 55, 0
5, 51554, Note_on_c, 0, 58, 0
5, 51562, Note_on_c, 0, 81, 0
5, 51569, Note_on_c, 0, 82, 64
5, 51592, Note_on_c, 0, 54, 39
5, 51593, Note_on_c, 0, 82, 0
5, 51596, Note_on_c, 0, 58, 30
5, 51596, Note_on_c, 0, 81, 54
5, 51624, Note_on_c, 0, 58, 0
5, 51626, Note_on_c, 0, 81, 0
5, 51633, Note_on_c, 0, 54, 0
5, 51638, Note_on_c, 0, 79, 36
5, 51649, Note_on_c, 0, 79, 0
5, 51658, Note_on_c, 0, 75, 48
5, 51693, Note_on_c, 0, 75, 0
5, 51722, Note_on_c, 0, 75, 52
5, 51724, Note_on_c, 0, 62, 47
5, 51725, Note_on_c, 0, 54, 30
5, 51727, Note_on_c, 0, 58, 35
5, 51751, Note_on_c, 0, 75, 0
5, 51765, Note_on_c, 0, 58, 0
5, 51767, Note_on_c, 0, 62, 0
5, 51778, Note_on_c, 0, 54, 0
5, 51813, Note_on_c, 0, 62, 45
5, 51813, Note_on_c, 0, 53, 40
5, 51815, Note_on_c, 0, 58, 35
5, 51831, Note_on_c, 0, 62, 0
5, 51832, Note_on_c, 0, 53, 0
5, 51841, Note_on_c, 0, 58, 0
5, 51899, Note_on_c, 0, 62, 41
5, 51901, Note_on_c, 0, 53, 36
5, 51902, Note_on_c, 0, 58, 38
5, 51938, Note_on_c, 0, 62, 0
5, 51959, Note_on_c, 0, 58, 0
5, 51959, Note_on_c, 0, 53, 0
5, 51962, Note_on_c, 0, 79, 90
5, 51988, Note_on_c, 0, 79, 0
5, 51993, Note_on_c, 0, 81, 55
5, 52005, Note_on_c, 0, 79, 36
5, 52009, Note_on_c, 0, 81, 0
5, 52021, Note_on_c, 0, 78, 55
5, 52024, Note_on_c, 0, 79, 0
5, 52040, Note_on_c, 0, 78, 0
5, 52056, Note_on_c, 0, 79, 60
5, 52080, Note_on_c, 0, 79, 0
5, 52081, Note_on_c, 0, 81, 51
5, 52106, Note_on_c, 0, 81, 0
5, 52111, Note_on_c, 0, 82, 64
5, 52127, Note_on_c, 0, 82, 0
5, 52139, Note_on_c, 0, 84, 63
5, 52161, Note_on_c, 0, 84, 0
5, 52171, Note_on_c, 0, 85, 75
5, 52188, Note_on_c, 0, 52, 26
5, 52189, Note_on_c, 0, 58, 25
5, 52190, Note_on_c, 0, 60, 20
5, 52193, Note_on_c, 0, 85, 0
5, 52198, Note_on_c, 0, 87, 51
5, 52208, Note_on_c, 0, 52, 0
5, 52217, Note_on_c, 0, 87, 0
5, 52224, Note_on_c, 0, 60, 0
5, 52228, Note_on_c, 0, 88, 64
5, 52231, Note_on_c, 0, 58, 0
5, 52248, Note_on_c, 0, 88, 0
5, 52255, Note_on_c, 0, 91, 27
5, 52256, Note_on_c, 0, 89, 30
5, 52265, Note_on_c, 0, 89, 0
5, 52274, Note_on_c, 0, 91, 0
5, 52288, Note_on_c, 0, 96, 67
5, 52299, Note_on_c, 0, 96, 0
5, 52309, Note_on_c, 0, 63, 46
5, 52317, Note_on_c, 0, 55, 31
5, 52317, Note_on_c, 0, 99, 46
5, 52319, Note_on_c, 0, 57, 39
5, 52322, Note_on_c, 0, 100, 47
5, 52328, Note_on_c, 0, 55, 0
5, 52329, Note_on_c, 0, 100, 0
5, 52331, Note_on_c, 0, 63, 0
5, 52332, Note_on_c, 0, 99, 0
5, 52353, Note_on_c, 0, 105, 79
5, 52364, Note_on_c, 0, 57, 0
5, 52374, Note_on_c, 0, 105, 0
5, 52376, Note_on_c, 0, 99, 63
5, 52399, Note_on_c, 0, 99, 0
5, 52441, Note_on_c, 0, 63, 23
5, 52446, Note_on_c, 0, 60, 31
5, 52447, Note_on_c, 0, 57, 37
5, 52447, Note_on_c, 0, 55, 31
5, 52472, Note_on_c, 0, 55, 0
5, 52475, Note_on_c, 0, 60, 0
5, 52478, Note_on_c, 0, 57, 0
5, 52493, Note_on_c, 0, 63, 0
5, 52506, Note_on_c, 0, 98, 82
5, 52528, Note_on_c, 0, 98, 0
5, 52535, Note_on_c, 0, 63, 29
5, 52536, Note_on_c, 0, 99, 49
5, 52544, Note_on_c, 0, 98, 49
5, 52554, Note_on_c, 0, 99, 0
5, 52557, Note_on_c, 0, 63, 0
5, 52564, Note_on_c, 0, 98, 0
5, 52565, Note_on_c, 0, 96, 51
5, 52584, Note_on_c, 0, 96, 0
5, 52601, Note_on_c, 0, 62, 40
5, 52601, Note_on_c, 0, 94, 67
5, 52602, Note_on_c, 0, 54, 33
5, 52603, Note_on_c, 0, 60, 32
5, 52619, Note_on_c, 0, 62, 0
5, 52621, Note_on_c, 0, 60, 0
5, 52622, Note_on_c, 0, 54, 0
5, 52624, Note_on_c, 0, 94, 0
5, 52652, Note_on_c, 0, 93, 75
5, 52654, Note_on_c, 0, 54, 53
5, 52655, Note_on_c, 0, 62, 50
5, 52655, Note_on_c, 0, 60, 55
5, 52674, Note_on_c, 0, 62, 0
5, 52676, Note_on_c, 0, 93, 0
5, 52678, Note_on_c, 0, 60, 0
5, 52686, Note_on_c, 0, 91, 62
5, 52689, Note_on_c, 0, 62, 44
5, 52689, Note_on_c, 0, 60, 15
5, 52714, Note_on_c, 0, 62, 0
5, 52719, Note_on_c, 0, 91, 0
5, 52720, Note_on_c, 0, 54, 0
5, 52725, Note_on_c, 0, 60, 0
5, 52738, Note_on_c, 0, 54, 48
5, 52739, Note_on_c, 0, 90, 55
5, 52778, Note_on_c, 0, 54, 0
5, 52779, Note_on_c, 0, 90, 0
5, 52800, Note_on_c, 0, 61, 46
5, 52803, Note_on_c, 0, 94, 58
5, 52804, Note_on_c, 0, 58, 37
5, 52804, Note_on_c, 0, 53, 30
5, 52805, Note_on_c, 0, 82, 35
5, 52805, Note_on_c, 0, 55, 52
5, 52837, Note_on_c, 0, 55, 0
5, 52837, Note_on_c, 0, 61, 0
5, 52839, Note_on_c, 0, 53, 0
5, 52839, Note_on_c, 0, 94, 0
5, 52839, Note_on_c, 0, 82, 0
5, 52872, Note_on_c, 0, 58, 0
5, 52897, Note_on_c, 0, 61, 49
5, 52901, Note_on_c, 0, 53, 28
5, 52901, Note_on_c, 0, 94, 55
5, 52904, Note_on_c, 0, 82, 35
5, 52905, Note_on_c, 0, 55, 37
5, 52925, Note_on_c, 0, 94, 0
5, 52929, Note_on_c, 0, 55, 0
5, 52932, Note_on_c, 0, 53, 0
5, 52936, Note_on_c, 0, 82, 0
5, 52943, Note_on_c, 0, 61, 0
5, 52981, Note_on_c, 0, 63, 48
5, 52984, Note_on_c, 0, 52, 30
5, 52984, Note_on_c, 0, 58, 31
5, 52997, Note_on_c, 0, 63, 0
5, 52999, Note_on_c, 0, 52, 0
5, 53034, Note_on_c, 0, 58, 0
5, 53043, Note_on_c, 0, 85, 83
5, 53044, Note_on_c, 0, 73, 74
5, 53045, Note_on_c, 0, 80, 73
5, 53059, Note_on_c, 0, 73, 0
5, 53061, Note_on_c, 0, 85, 0
5, 53065, Note_on_c, 0, 80, 0
5, 53075, Note_on_c, 0, 85, 62
5, 53077, Note_on_c, 0, 73, 46
5, 53077, Note_on_c, 0, 80, 38
5, 53097, Note_on_c, 0, 73, 0
5, 53100, Note_on_c, 0, 80, 0
5, 53100, Note_on_c, 0, 85, 0
5, 53102, Note_on_c, 0, 84, 63
5, 53104, Note_on_c, 0, 72, 40
5, 53117, Note_on_c, 0, 84, 0
5, 53121, Note_on_c, 0, 72, 0
5, 53133, Note_on_c, 0, 84, 65
5, 53134, Note_on_c, 0, 72, 64
5, 53140, Note_on_c, 0, 83, 33
5, 53145, Note_on_c, 0, 63, 33
5, 53146, Note_on_c, 0, 72, 0
5, 53146, Note_on_c, 0, 84, 0
5, 53146, Note_on_c, 0, 52, 35
5, 53147, Note_on_c, 0, 83, 0
5, 53151, Note_on_c, 0, 58, 25
5, 53154, Note_on_c, 0, 63, 0
5, 53162, Note_on_c, 0, 70, 56
5, 53183, Note_on_c, 0, 70, 0
5, 53186, Note_on_c, 0, 52, 0
5, 53194, Note_on_c, 0, 82, 60
5, 53196, Note_on_c, 0, 70, 67
5, 53201, Note_on_c, 0, 58, 0
5, 53213, Note_on_c, 0, 70, 0
5, 53220, Note_on_c, 0, 82, 0
5, 53222, Note_on_c, 0, 81, 62
5, 53223, Note_on_c, 0, 69, 57
5, 53257, Note_on_c, 0, 69, 0
5, 53260, Note_on_c, 0, 81, 0
5, 53279, Note_on_c, 0, 81, 58
5, 53281, Note_on_c, 0, 64, 25
5, 53282, Note_on_c, 0, 69, 58
5, 53283, Note_on_c, 0, 57, 35
5, 53284, Note_on_c, 0, 60, 33
5, 53294, Note_on_c, 0, 64, 0
5, 53295, Note_on_c, 0, 60, 0
5, 53297, Note_on_c, 0, 69, 0
5, 53298, Note_on_c, 0, 57, 0
5, 53308, Note_on_c, 0, 81, 0
5, 53339, Note_on_c, 0, 81, 61
5, 53365, Note_on_c, 0, 81, 0
5, 53377, Note_on_c, 0, 80, 36
5, 53391, Note_on_c, 0, 80, 0
5, 53398, Note_on_c, 0, 57, 20
5, 53402, Note_on_c, 0, 81, 48
5, 53448, Note_on_c, 0, 81, 0
5, 53449, Note_on_c, 0, 57, 0
5, 53456, Note_on_c, 0, 77, 57
5, 53470, Note_on_c, 0, 77, 0
5, 53515, Note_on_c, 0, 81, 74
5, 53529, Note_on_c, 0, 81, 0
5, 53585, Note_on_c, 0, 81, 45
5, 53586, Note_on_c, 0, 83, 43
5, 53593, Note_on_c, 0, 83, 0
5, 53596, Note_on_c, 0, 81, 0
5, 53600, Note_on_c, 0, 82, 34
5, 53616, Note_on_c, 0, 81, 38
5, 53619, Note_on_c, 0, 82, 0
5, 53630, Note_on_c, 0, 77, 41
5, 53632, Note_on_c, 0, 81, 0
5, 53647, Note_on_c, 0, 77, 0
5, 53649, Note_on_c, 0, 81, 55
5, 53693, Note_on_c, 0, 81, 0
5, 53693, Note_on_c, 0, 57, 24
5, 53701, Note_on_c, 0, 57, 0
5, 53702, Note_on_c, 0, 77, 53
5, 53721, Note_on_c, 0, 77, 0
5, 53761, Note_on_c, 0, 60, 51
5, 53766, Note_on_c, 0, 57, 25
5, 53774, Note_on_c, 0, 60, 0
5, 53775, Note_on_c, 0, 57, 0
5, 53851, Note_on_c, 0, 81, 80
5, 53855, Note_on_c, 0, 53, 45
5, 53857, Note_on_c, 0, 57, 40
5, 53865, Note_on_c, 0, 57, 0
5, 53879, Note_on_c, 0, 53, 0
5, 53883, Note_on_c, 0, 81, 0
5, 53893, Note_on_c, 0, 82, 29
5, 53900, Note_on_c, 0, 81, 49
5, 53909, Note_on_c, 0, 82, 0
5, 53916, Note_on_c, 0, 80, 55
5, 53920, Note_on_c, 0, 81, 0
5, 53928, Note_on_c, 0, 80, 0
5, 53940, Note_on_c, 0, 81, 78
5, 53973, Note_on_c, 0, 81, 0
5, 54038, Note_on_c, 0, 60, 33
5, 54039, Note_on_c, 0, 53, 32
5, 54040, Note_on_c, 0, 57, 32
5, 54044, Note_on_c, 0, 60, 0
5, 54048, Note_on_c, 0, 57, 0
5, 54059, Note_on_c, 0, 53, 0
5, 54059, Note_on_c, 0, 81, 90
5, 54089, Note_on_c, 0, 81, 0
5, 54094, Note_on_c, 0, 82, 62
5, 54121, Note_on_c, 0, 82, 0
5, 54126, Note_on_c, 0, 81, 48
5, 54152, Note_on_c, 0, 81, 0
5, 54157, Note_on_c, 0, 80, 69
5, 54166, Note_on_c, 0, 65, 32
5, 54172, Note_on_c, 0, 65, 0
5, 54175, Note_on_c, 0, 80, 0
5, 54184, Note_on_c, 0, 79, 56
5, 54205, Note_on_c, 0, 79, 0
5, 54216, Note_on_c, 0, 78, 52
5, 54240, Note_on_c, 0, 78, 0
5, 54240, Note_on_c, 0, 65, 35
5, 54241, Note_on_c, 0, 62, 33
5, 54242, Note_on_c, 0, 77, 55
5, 54246, Note_on_c, 0, 57, 38
5, 54279, Note_on_c, 0, 77, 0
5, 54291, Note_on_c, 0, 65, 0
5, 54302, Note_on_c, 0, 74, 45
5, 54308, Note_on_c, 0, 62, 0
5, 54331, Note_on_c, 0, 74, 0
5, 54348, Note_on_c, 0, 57, 0
5, 54362, Note_on_c, 0, 74, 51
5, 54395, Note_on_c, 0, 74, 0
5, 54404, Note_on_c, 0, 65, 32
5, 54411, Note_on_c, 0, 65, 0
5, 54421, Note_on_c, 0, 69, 44
5, 54456, Note_on_c, 0, 69, 0
5, 54484, Note_on_c, 0, 69, 44
5, 54511, Note_on_c, 0, 69, 0
5, 54546, Note_on_c, 0, 57, 47
5, 54547, Note_on_c, 0, 65, 36
5, 54548, Note_on_c, 0, 62, 46
5, 54588, Note_on_c, 0, 65, 0
5, 54590, Note_on_c, 0, 62, 0
5, 54594, Note_on_c, 0, 57, 0
5, 54639, Note_on_c, 0, 62, 51
5, 54639, Note_on_c, 0, 65, 58
5, 54640, Note_on_c, 0, 56, 40
5, 54707, Note_on_c, 0, 65, 0
5, 54708, Note_on_c, 0, 56, 0
5, 54714, Note_on_c, 0, 43, 60
5, 54723, Note_on_c, 0, 62, 0
5, 54725, Note_on_c, 0, 43, 0
5, 54735, Note_on_c, 0, 44, 50
5, 54748, Note_on_c, 0, 46, 57
5, 54750, Note_on_c, 0, 44, 0
5, 54761, Note_on_c, 0, 46, 0
5, 54763, Note_on_c, 0, 47, 47
5, 54773, Note_on_c, 0, 47, 0
5, 54779, Note_on_c, 0, 49, 57
5, 54788, Note_on_c, 0, 49, 0
5, 54797, Note_on_c, 0, 50, 54
5, 54806, Note_on_c, 0, 51, 32
5, 54811, Note_on_c, 0, 50, 0
5, 54812, Note_on_c, 0, 51, 0
5, 54812, Note_on_c, 0, 52, 54
5, 54823, Note_on_c, 0, 52, 0
5, 54826, Note_on_c, 0, 53, 49
5, 54833, Note_on_c, 0, 53, 0
5, 54842, Note_on_c, 0, 55, 62
5, 54855, Note_on_c, 0, 55, 0
5, 54856, Note_on_c, 0, 56, 49
5, 54870, Note_on_c, 0, 56, 0
5, 54885, Note_on_c, 0, 59, 53
5, 54891, Note_on_c, 0, 59, 0
5, 54898, Note_on_c, 0, 61, 40
5, 54907, Note_on_c, 0, 61, 0
5, 54918, Note_on_c, 0, 62, 45
5, 54924, Note_on_c, 0, 63, 45
5, 54925, Note_on_c, 0, 62, 0
5, 54930, Note_on_c, 0, 63, 0
5, 54932, Note_on_c, 0, 64, 53
5, 54945, Note_on_c, 0, 64, 0
5, 54946, Note_on_c, 0, 65, 53
5, 54952, Note_on_c, 0, 65, 0
5, 54964, Note_on_c, 0, 65, 38
5, 54972, Note_on_c, 0, 65, 0
5, 55052, Note_on_c, 0, 67, 75
5, 55066, Note_on_c, 0, 67, 0
5, 55066, Note_on_c, 0, 56, 27
5, 55071, Note_on_c, 0, 68, 51
5, 55079, Note_on_c, 0, 56, 0
5, 55085, Note_on_c, 0, 68, 0
5, 55087, Note_on_c, 0, 70, 52
5, 55092, Note_on_c, 0, 70, 0
5, 55100, Note_on_c, 0, 71, 44
5, 55112, Note_on_c, 0, 56, 37
5, 55113, Note_on_c, 0, 62, 50
5, 55114, Note_on_c, 0, 67, 34
5, 55115, Note_on_c, 0, 71, 0
5, 55118, Note_on_c, 0, 72, 36
5, 55122, Note_on_c, 0, 67, 0
5, 55125, Note_on_c, 0, 73, 44
5, 55126, Note_on_c, 0, 72, 0
5, 55130, Note_on_c, 0, 62, 0
5, 55140, Note_on_c, 0, 73, 0
5, 55141, Note_on_c, 0, 56, 0
5, 55147, Note_on_c, 0, 74, 31
5, 55159, Note_on_c, 0, 76, 43
5, 55164, Note_on_c, 0, 74, 0
5, 55174, Note_on_c, 0, 77, 73
5, 55177, Note_on_c, 0, 76, 0
5, 55189, Note_on_c, 0, 64, 43
5, 55191, Note_on_c, 0, 60, 48
5, 55193, Note_on_c, 0, 57, 33
5, 55194, Note_on_c, 0, 76, 77
5, 55203, Note_on_c, 0, 77, 0
5, 55228, Note_on_c, 0, 76, 0
5, 55245, Note_on_c, 0, 64, 0
5, 55252, Note_on_c, 0, 72, 64
5, 55256, Note_on_c, 0, 57, 0
5, 55263, Note_on_c, 0, 60, 0
5, 55277, Note_on_c, 0, 72, 0
5, 55318, Note_on_c, 0, 71, 55
5, 55319, Note_on_c, 0, 60, 36
5, 55319, Note_on_c, 0, 64, 26
5, 55321, Note_on_c, 0, 57, 27
5, 55339, Note_on_c, 0, 71, 0
5, 55345, Note_on_c, 0, 64, 0
5, 55350, Note_on_c, 0, 72, 36
5, 55362, Note_on_c, 0, 71, 56
5, 55368, Note_on_c, 0, 72, 0
5, 55377, Note_on_c, 0, 60, 0
5, 55380, Note_on_c, 0, 71, 0
5, 55384, Note_on_c, 0, 57, 0
5, 55385, Note_on_c, 0, 70, 49
5, 55404, Note_on_c, 0, 70, 0
5, 55424, Note_on_c, 0, 74, 68
5, 55442, Note_on_c, 0, 74, 0
5, 55479, Note_on_c, 0, 71, 72
5, 55481, Note_on_c, 0, 56, 33
5, 55492, Note_on_c, 0, 71, 0
5, 55504, Note_on_c, 0, 72, 68
5, 55505, Note_on_c, 0, 56, 0
5, 55540, Note_on_c, 0, 72, 0
5, 55544, Note_on_c, 0, 69, 55
5, 55561, Note_on_c, 0, 69, 0
5, 55572, Note_on_c, 0, 64, 22
5, 55604, Note_on_c, 0, 64, 0
5, 55621, Note_on_c, 0, 64, 44
5, 55622, Note_on_c, 0, 55, 35
5, 55628, Note_on_c, 0, 60, 26
5, 55637, Note_on_c, 0, 64, 0
5, 55640, Note_on_c, 0, 55, 0
5, 55641, Note_on_c, 0, 60, 0
5, 55681, Note_on_c, 0, 60, 39
5, 55686, Note_on_c, 0, 57, 34
5, 55708, Note_on_c, 0, 60, 0
5, 55717, Note_on_c, 0, 57, 0
5, 55776, Note_on_c, 0, 64, 33
5, 55780, Note_on_c, 0, 60, 28
5, 55780, Note_on_c, 0, 57, 39
5, 55783, Note_on_c, 0, 64, 0
5, 55787, Note_on_c, 0, 60, 0
5, 55797, Note_on_c, 0, 57, 0
5, 55808, Note_on_c, 0, 76, 35
5, 55826, Note_on_c, 0, 76, 0
5, 55836, Note_on_c, 0, 77, 60
5, 55852, Note_on_c, 0, 77, 0
5, 55860, Note_on_c, 0, 81, 58
5, 55880, Note_on_c, 0, 81, 0
5, 55891, Note_on_c, 0, 84, 73
5, 55903, Note_on_c, 0, 84, 0
5, 55904, Note_on_c, 0, 64, 24
5, 55909, Note_on_c, 0, 60, 19
5, 55910, Note_on_c, 0, 64, 0
5, 55910, Note_on_c, 0, 57, 29
5, 55917, Note_on_c, 0, 60, 0
5, 55921, Note_on_c, 0, 57, 0
5, 55921, Note_on_c, 0, 87, 74
5, 55922, Note_on_c, 0, 75, 53
5, 55945, Note_on_c, 0, 87, 0
5, 55948, Note_on_c, 0, 88, 30
5, 55950, Note_on_c, 0, 84, 30
5, 55951, Note_on_c, 0, 75, 0
5, 55953, Note_on_c, 0, 81, 19
5, 55955, Note_on_c, 0, 86, 22
5, 55957, Note_on_c, 0, 76, 36
5, 55959, Note_on_c, 0, 88, 0
5, 55966, Note_on_c, 0, 86, 0
5, 55967, Note_on_c, 0, 76, 0
5, 55973, Note_on_c, 0, 81, 0
5, 55973, Note_on_c, 0, 84, 0
5, 55982, Note_on_c, 0, 76, 62
5, 55984, Note_on_c, 0, 84, 60
5, 55984, Note_on_c, 0, 81, 36
5, 55988, Note_on_c, 0, 86, 38
5, 56002, Note_on_c, 0, 76, 0
5, 56007, Note_on_c, 0, 86, 0
5, 56012, Note_on_c, 0, 84, 0
5, 56013, Note_on_c, 0, 81, 0
5, 56023, Note_on_c, 0, 86, 47
5, 56027, Note_on_c, 0, 81, 27
5, 56028, Note_on_c, 0, 76, 35
5, 56028, Note_on_c, 0, 88, 52
5, 56035, Note_on_c, 0, 88, 0
5, 56036, Note_on_c, 0, 76, 0
5, 56036, Note_on_c, 0, 86, 0
5, 56041, Note_on_c, 0, 81, 0
5, 56054, Note_on_c, 0, 75, 68
5, 56054, Note_on_c, 0, 87, 73
5, 56057, Note_on_c, 0, 85, 34
5, 56057, Note_on_c, 0, 60, 43
5, 56060, Note_on_c, 0, 81, 45
5, 56064, Note_on_c, 0, 60, 0
5, 56066, Note_on_c, 0, 84, 42
5, 56075, Note_on_c, 0, 86, 19
5, 56076, Note_on_c, 0, 87, 0
5, 56077, Note_on_c, 0, 88, 72
5, 56078, Note_on_c, 0, 75, 0
5, 56083, Note_on_c, 0, 76, 49
5, 56089, Note_on_c, 0, 88, 0
5, 56092, Note_on_c, 0, 85, 0
5, 56092, Note_on_c, 0, 76, 0
5, 56094, Note_on_c, 0, 86, 0
5, 56095, Note_on_c, 0, 84, 0
5, 56098, Note_on_c, 0, 81, 0
5, 56103, Note_on_c, 0, 88, 66
5, 56105, Note_on_c, 0, 76, 59
5, 56107, Note_on_c, 0, 81, 37
5, 56109, Note_on_c, 0, 84, 63
5, 56112, Note_on_c, 0, 86, 40
5, 56120, Note_on_c, 0, 86, 0
5, 56120, Note_on_c, 0, 88, 0
5, 56124, Note_on_c, 0, 76, 0
5, 56124, Note_on_c, 0, 81, 0
5, 56125, Note_on_c, 0, 84, 0
5, 56135, Note_on_c, 0, 88, 69
5, 56136, Note_on_c, 0, 76, 63
5, 56139, Note_on_c, 0, 86, 53
5, 56139, Note_on_c, 0, 81, 64
5, 56140, Note_on_c, 0, 84, 57
5, 56149, Note_on_c, 0, 76, 0
5, 56149, Note_on_c, 0, 88, 0
5, 56151, Note_on_c, 0, 86, 0
5, 56155, Note_on_c, 0, 60, 46
5, 56157, Note_on_c, 0, 84, 0
5, 56159, Note_on_c, 0, 57, 30
5, 56161, Note_on_c, 0, 81, 0
5, 56161, Note_on_c, 0, 53, 26
5, 56162, Note_on_c, 0, 60, 0
5, 56167, Note_on_c, 0, 87, 60
5, 56169, Note_on_c, 0, 57, 0
5, 56169, Note_on_c, 0, 75, 35
5, 56170, Note_on_c, 0, 81, 17
5, 56178, Note_on_c, 0, 84, 38
5, 56181, Note_on_c, 0, 53, 0
5, 56183, Note_on_c, 0, 87, 0
5, 56183, Note_on_c, 0, 88, 44
5, 56185, Note_on_c, 0, 75, 0
5, 56187, Note_on_c, 0, 86, 25
5, 56189, Note_on_c, 0, 76, 46
5, 56194, Note_on_c, 0, 88, 0
5, 56200, Note_on_c, 0, 86, 0
5, 56203, Note_on_c, 0, 84, 0
5, 56206, Note_on_c, 0, 76, 0
5, 56207, Note_on_c, 0, 81, 0
5, 56223, Note_on_c, 0, 84, 54
5, 56226, Note_on_c, 0, 72, 34
5, 56253, Note_on_c, 0, 84, 0
5, 56258, Note_on_c, 0, 72, 0
5, 56282, Note_on_c, 0, 84, 58
5, 56286, Note_on_c, 0, 72, 34
5, 56300, Note_on_c, 0, 72, 0
5, 56302, Note_on_c, 0, 84, 0
5, 56320, Note_on_c, 0, 81, 45
5, 56321, Note_on_c, 0, 60, 41
5, 56322, Note_on_c, 0, 57, 34
5, 56328, Note_on_c, 0, 81, 0
5, 56329, Note_on_c, 0, 60, 0
5, 56331, Note_on_c, 0, 57, 0
5, 56399, Note_on_c, 0, 57, 39
5, 56399, Note_on_c, 0, 48, 44
5, 56418, Note_on_c, 0, 48, 0
5, 56418, Note_on_c, 0, 57, 0
5, 56496, Note_on_c, 0, 57, 42
5, 56496, Note_on_c, 0, 48, 46
5, 56527, Note_on_c, 0, 57, 0
5, 56557, Note_on_c, 0, 55, 48
5, 56559, Note_on_c, 0, 48, 0
5, 56564, Note_on_c, 0, 55, 0
5, 56569, Note_on_c, 0, 97, 64
5, 56586, Note_on_c, 0, 97, 0
5, 56614, Note_on_c, 0, 98, 79
5, 56629, Note_on_c, 0, 98, 0
5, 56647, Note_on_c, 0, 94, 70
5, 56662, Note_on_c, 0, 94, 0
5, 56677, Note_on_c, 0, 95, 69
5, 56693, Note_on_c, 0, 95, 0
5, 56705, Note_on_c, 0, 90, 54
5, 56725, Note_on_c, 0, 90, 0
5, 56737, Note_on_c, 0, 91, 73
5, 56742, Note_on_c, 0, 59, 43
5, 56745, Note_on_c, 0, 53, 29
5, 56749, Note_on_c, 0, 91, 0
5, 56756, Note_on_c, 0, 53, 0
5, 56763, Note_on_c, 0, 59, 0
5, 56764, Note_on_c, 0, 86, 70
5, 56779, Note_on_c, 0, 86, 0
5, 56821, Note_on_c, 0, 86, 71
5, 56843, Note_on_c, 0, 86, 0
5, 56880, Note_on_c, 0, 64, 33
5, 56881, Note_on_c, 0, 59, 50
5, 56882, Note_on_c, 0, 53, 30
5, 56899, Note_on_c, 0, 64, 0
5, 56927, Note_on_c, 0, 59, 0
5, 56928, Note_on_c, 0, 86, 101
5, 56931, Note_on_c, 0, 53, 0
5, 56958, Note_on_c, 0, 86, 0
5, 56958, Note_on_c, 0, 85, 59
5, 56973, Note_on_c, 0, 84, 49
5, 56979, Note_on_c, 0, 85, 0
5, 56988, Note_on_c, 0, 84, 0
5, 56989, Note_on_c, 0, 83, 71
5, 57001, Note_on_c, 0, 83, 0
5, 57011, Note_on_c, 0, 80, 63
5, 57036, Note_on_c, 0, 80, 0
5, 57041, Note_on_c, 0, 77, 60
5, 57049, Note_on_c, 0, 59, 36
5, 57051, Note_on_c, 0, 62, 24
5, 57057, Note_on_c, 0, 62, 0
5, 57058, Note_on_c, 0, 77, 0
5, 57059, Note_on_c, 0, 59, 0
5, 57065, Note_on_c, 0, 74, 37
5, 57091, Note_on_c, 0, 74, 0
5, 57103, Note_on_c, 0, 69, 24
5, 57108, Note_on_c, 0, 59, 26
5, 57110, Note_on_c, 0, 69, 0
5, 57116, Note_on_c, 0, 59, 0
5, 57121, Note_on_c, 0, 77, 71
5, 57147, Note_on_c, 0, 77, 0
5, 57156, Note_on_c, 0, 59, 35
5, 57157, Note_on_c, 0, 74, 71
5, 57168, Note_on_c, 0, 59, 0
5, 57171, Note_on_c, 0, 74, 0
5, 57218, Note_on_c, 0, 68, 58
5, 57229, Note_on_c, 0, 59, 24
5, 57237, Note_on_c, 0, 59, 0
5, 57239, Note_on_c, 0, 68, 0
5, 57247, Note_on_c, 0, 65, 34
5, 57266, Note_on_c, 0, 65, 0
5, 57272, Note_on_c, 0, 74, 72
5, 57296, Note_on_c, 0, 74, 0
5, 57304, Note_on_c, 0, 71, 33
5, 57315, Note_on_c, 0, 71, 0
5, 57330, Note_on_c, 0, 72, 80
5, 57332, Note_on_c, 0, 56, 28
5, 57345, Note_on_c, 0, 56, 0
5, 57351, Note_on_c, 0, 72, 0
5, 57401, Note_on_c, 0, 64, 60
5, 57415, Note_on_c, 0, 64, 0
5, 57452, Note_on_c, 0, 66, 18
5, 57460, Note_on_c, 0, 60, 41
5, 57462, Note_on_c, 0, 66, 0
5, 57464, Note_on_c, 0, 55, 28
5, 57469, Note_on_c, 0, 60, 0
5, 57471, Note_on_c, 0, 55, 0
5, 57483, Note_on_c, 0, 62, 48
5, 57538, Note_on_c, 0, 64, 72
5, 57548, Note_on_c, 0, 62, 0
5, 57605, Note_on_c, 0, 64, 0
5, 57662, Note_on_c, 0, 72, 62
5, 57662, Note_on_c, 0, 68, 55
5, 57663, Note_on_c, 0, 64, 66
5, 57666, Note_on_c, 0, 58, 42
5, 57677, Note_on_c, 0, 64, 0
5, 57685, Note_on_c, 0, 72, 0
5, 57685, Note_on_c, 0, 68, 0
5, 57688, Note_on_c, 0, 58, 0
5, 57701, Note_on_c, 0, 68, 50
5, 57701, Note_on_c, 0, 72, 41
5, 57702, Note_on_c, 0, 64, 51
5, 57705, Note_on_c, 0, 58, 37
5, 57716, Note_on_c, 0, 64, 0
5, 57720, Note_on_c, 0, 68, 0
5, 57721, Note_on_c, 0, 72, 0
5, 57727, Note_on_c, 0, 58, 0
5, 57758, Note_on_c, 0, 75, 59
5, 57759, Note_on_c, 0, 64, 61
5, 57759, Note_on_c, 0, 68, 49
5, 57760, Note_on_c, 0, 72, 34
5, 57761, Note_on_c, 0, 58, 51
5, 57775, Note_on_c, 0, 68, 0
5, 57775, Note_on_c, 0, 64, 0
5, 57780, Note_on_c, 0, 72, 0
5, 57790, Note_on_c, 0, 68, 29
5, 57790, Note_on_c, 0, 64, 31
5, 57793, Note_on_c, 0, 72, 25
5, 57806, Note_on_c, 0, 64, 0
5, 57809, Note_on_c, 0, 68, 0
5, 57810, Note_on_c, 0, 72, 0
5, 57812, Note_on_c, 0, 75, 0
5, 57816, Note_on_c, 0, 58, 0
5, 57845, Note_on_c, 0, 68, 39
5, 57845, Note_on_c, 0, 72, 46
5, 57846, Note_on_c, 0, 58, 51
5, 57846, Note_on_c, 0, 64, 44
5, 57868, Note_on_c, 0, 64, 0
5, 57869, Note_on_c, 0, 68, 0
5, 57873, Note_on_c, 0, 58, 0
5, 57875, Note_on_c, 0, 72, 0
5, 57903, Note_on_c, 0, 72, 39
5, 57905, Note_on_c, 0, 58, 52
5, 57905, Note_on_c, 0, 68, 37
5, 57906, Note_on_c, 0, 64, 39
5, 57935, Note_on_c, 0, 64, 0
5, 57948, Note_on_c, 0, 68, 0
5, 57949, Note_on_c, 0, 58, 0
5, 57950, Note_on_c, 0, 72, 0
5, 57992, Note_on_c, 0, 58, 43
5, 57994, Note_on_c, 0, 64, 36
5, 57995, Note_on_c, 0, 61, 28
5, 58026, Note_on_c, 0, 64, 0
5, 58047, Note_on_c, 0, 61, 0
5, 58055, Note_on_c, 0, 58, 0
5, 58056, Note_on_c, 0, 90, 72
5, 58056, Note_on_c, 0, 85, 83
5, 58056, Note_on_c, 0, 78, 81
5, 58067, Note_on_c, 0, 64, 44
5, 58067, Note_on_c, 0, 60, 47
5, 58069, Note_on_c, 0, 57, 50
5, 58072, Note_on_c, 0, 53, 25
5, 58074, Note_on_c, 0, 64, 0
5, 58075, Note_on_c, 0, 85, 0
5, 58080, Note_on_c, 0, 53, 0
5, 58083, Note_on_c, 0, 90, 0
5, 58084, Note_on_c, 0, 78, 0
5, 58084, Note_on_c, 0, 60, 0
5, 58090, Note_on_c, 0, 91, 56
5, 58093, Note_on_c, 0, 79, 43
5, 58095, Note_on_c, 0, 86, 56
5, 58096, Note_on_c, 0, 89, 30
5, 58114, Note_on_c, 0, 91, 0
5, 58116, Note_on_c, 0, 86, 0
5, 58120, Note_on_c, 0, 57, 0
5, 58120, Note_on_c, 0, 79, 0
5, 58121, Note_on_c, 0, 89, 0
5, 58140, Note_on_c, 0, 91, 58
5, 58141, Note_on_c, 0, 79, 38
5, 58143, Note_on_c, 0, 86, 60
5, 58160, Note_on_c, 0, 86, 0
5, 58161, Note_on_c, 0, 91, 0
5, 58163, Note_on_c, 0, 79, 0
5, 58178, Note_on_c, 0, 91, 57
5, 58181, Note_on_c, 0, 86, 57
5, 58182, Note_on_c, 0, 79, 28
5, 58186, Note_on_c, 0, 86, 0
5, 58192, Note_on_c, 0, 79, 0
5, 58192, Note_on_c, 0, 91, 0
5, 58192, Note_on_c, 0, 57, 44
5, 58195, Note_on_c, 0, 60, 31
5, 58204, Note_on_c, 0, 60, 0
5, 58210, Note_on_c, 0, 88, 50
5, 58215, Note_on_c, 0, 76, 31
5, 58217, Note_on_c, 0, 57, 0
5, 58238, Note_on_c, 0, 88, 0
5, 58244, Note_on_c, 0, 76, 0
5, 58260, Note_on_c, 0, 88, 68
5, 58261, Note_on_c, 0, 76, 58
5, 58277, Note_on_c, 0, 88, 0
5, 58284, Note_on_c, 0, 76, 0
5, 58317, Note_on_c, 0, 64, 28
5, 58317, Note_on_c, 0, 84, 42
5, 58319, Note_on_c, 0, 57, 39
5, 58322, Note_on_c, 0, 60, 37
5, 58323, Note_on_c, 0, 72, 33
5, 58338, Note_on_c, 0, 72, 0
5, 58339, Note_on_c, 0, 57, 0
5, 58340, Note_on_c, 0, 60, 0
5, 58342, Note_on_c, 0, 84, 0
5, 58344, Note_on_c, 0, 64, 0
5, 58382, Note_on_c, 0, 84, 56
5, 58383, Note_on_c, 0, 72, 43
5, 58387, Note_on_c, 0, 79, 31
5, 58393, Note_on_c, 0, 72, 0
5, 58396, Note_on_c, 0, 79, 0
5, 58409, Note_on_c, 0, 84, 0
5, 58479, Note_on_c, 0, 60, 68
5, 58480, Note_on_c, 0, 57, 55
5, 58480, Note_on_c, 0, 64, 68
5, 58485, Note_on_c, 0, 64, 0
5, 58485, Note_on_c, 0, 60, 0
5, 58488, Note_on_c, 0, 57, 0
5, 58536, Note_on_c, 0, 90, 78
5, 58536, Note_on_c, 0, 78, 84
5, 58537, Note_on_c, 0, 87, 72
5, 58538, Note_on_c, 0, 85, 75
5, 58546, Note_on_c, 0, 78, 0
5, 58548, Note_on_c, 0, 90, 0
5, 58549, Note_on_c, 0, 85, 0
5, 58553, Note_on_c, 0, 87, 0
5, 58565, Note_on_c, 0, 90, 57
5, 58566, Note_on_c, 0, 78, 71
5, 58567, Note_on_c, 0, 87, 51
5, 58568, Note_on_c, 0, 62, 24
5, 58568, Note_on_c, 0, 67, 57
5, 58572, Note_on_c, 0, 60, 48
5, 58572, Note_on_c, 0, 56, 34
5, 58582, Note_on_c, 0, 91, 46
5, 58586, Note_on_c, 0, 78, 0
5, 58587, Note_on_c, 0, 89, 26
5, 58589, Note_on_c, 0, 79, 49
5, 58596, Note_on_c, 0, 88, 47
5, 58602, Note_on_c, 0, 88, 0
5, 58605, Note_on_c, 0, 87, 0
5, 58607, Note_on_c, 0, 91, 0
5, 58607, Note_on_c, 0, 79, 0
5, 58611, Note_on_c, 0, 89, 0
5, 58612, Note_on_c, 0, 90, 0
5, 58615, Note_on_c, 0, 67, 0
5, 58617, Note_on_c, 0, 56, 0
5, 58623, Note_on_c, 0, 91, 54
5, 58625, Note_on_c, 0, 88, 56
5, 58625, Note_on_c, 0, 79, 43
5, 58628, Note_on_c, 0, 89, 35
5, 58630, Note_on_c, 0, 62, 0
5, 58630, Note_on_c, 0, 60, 0
5, 58637, Note_on_c, 0, 89, 0
5, 58638, Note_on_c, 0, 79, 0
5, 58640, Note_on_c, 0, 91, 0
5, 58641, Note_on_c, 0, 88, 0
5, 58658, Note_on_c, 0, 91, 54
5, 58661, Note_on_c, 0, 79, 51
5, 58662, Note_on_c, 0, 88, 30
5, 58664, Note_on_c, 0, 91, 0
5, 58668, Note_on_c, 0, 79, 0
5, 58669, Note_on_c, 0, 88, 0
5, 58670, Note_on_c, 0, 67, 43
5, 58673, Note_on_c, 0, 62, 36
5, 58677, Note_on_c, 0, 67, 0
5, 58685, Note_on_c, 0, 62, 0
5, 58689, Note_on_c, 0, 87, 69
5, 58690, Note_on_c, 0, 75, 62
5, 58707, Note_on_c, 0, 87, 0
5, 58708, Note_on_c, 0, 75, 0
5, 58709, Note_on_c, 0, 88, 34
5, 58717, Note_on_c, 0, 88, 0
5, 58724, Note_on_c, 0, 62, 37
5, 58741, Note_on_c, 0, 88, 68
5, 58742, Note_on_c, 0, 62, 0
5, 58745, Note_on_c, 0, 86, 51
5, 58745, Note_on_c, 0, 81, 37
5, 58745, Note_on_c, 0, 76, 49
5, 58755, Note_on_c, 0, 86, 0
5, 58760, Note_on_c, 0, 88, 0
5, 58762, Note_on_c, 0, 76, 0
5, 58768, Note_on_c, 0, 81, 0
5, 58774, Note_on_c, 0, 88, 61
5, 58776, Note_on_c, 0, 76, 57
5, 58779, Note_on_c, 0, 81, 36
5, 58789, Note_on_c, 0, 88, 0
5, 58792, Note_on_c, 0, 81, 0
5, 58792, Note_on_c, 0, 76, 0
5, 58807, Note_on_c, 0, 84, 54
5, 58813, Note_on_c, 0, 72, 34
5, 58829, Note_on_c, 0, 72, 0
5, 58837, Note_on_c, 0, 84, 0
5, 58858, Note_on_c, 0, 84, 49
5, 58860, Note_on_c, 0, 72, 54
5, 58872, Note_on_c, 0, 72, 0
5, 58874, Note_on_c, 0, 84, 0
5, 58918, Note_on_c, 0, 56, 43
5, 58919, Note_on_c, 0, 67, 44
5, 58921, Note_on_c, 0, 62, 51
5, 58925, Note_on_c, 0, 60, 35
5, 58936, Note_on_c, 0, 60, 0
5, 58938, Note_on_c, 0, 67, 0
5, 58941, Note_on_c, 0, 62, 0
5, 58948, Note_on_c, 0, 56, 0
5, 59009, Note_on_c, 0, 90, 85
5, 59009, Note_on_c, 0, 78, 92
5, 59010, Note_on_c, 0, 85, 83
5, 59013, Note_on_c, 0, 59, 71
5, 59013, Note_on_c, 0, 62, 77
5, 59015, Note_on_c, 0, 52, 61
5, 59015, Note_on_c, 0, 55, 60
5, 59021, Note_on_c, 0, 52, 0
5, 59025, Note_on_c, 0, 62, 0
5, 59027, Note_on_c, 0, 59, 0
5, 59034, Note_on_c, 0, 85, 0
5, 59034, Note_on_c, 0, 78, 0
5, 59037, Note_on_c, 0, 90, 0
5, 59037, Note_on_c, 0, 55, 0
5, 59043, Note_on_c, 0, 91, 67
5, 59045, Note_on_c, 0, 79, 58
5, 59046, Note_on_c, 0, 86, 71
5, 59047, Note_on_c, 0, 89, 48
5, 59073, Note_on_c, 0, 91, 0
5, 59074, Note_on_c, 0, 86, 0
5, 59077, Note_on_c, 0, 79, 0
5, 59077, Note_on_c, 0, 89, 0
5, 59099, Note_on_c, 0, 91, 70
5, 59101, Note_on_c, 0, 79, 58
5, 59102, Note_on_c, 0, 86, 66
5, 59115, Note_on_c, 0, 86, 0
5, 59115, Note_on_c, 0, 91, 0
5, 59116, Note_on_c, 0, 79, 0
5, 59137, Note_on_c, 0, 91, 65
5, 59140, Note_on_c, 0, 79, 36
5, 59140, Note_on_c, 0, 86, 47
5, 59149, Note_on_c, 0, 86, 0
5, 59149, Note_on_c, 0, 79, 0
5, 59150, Note_on_c, 0, 62, 55
5, 59151, Note_on_c, 0, 91, 0
5, 59156, Note_on_c, 0, 62, 0
5, 59157, Note_on_c, 0, 55, 48
5, 59157, Note_on_c, 0, 59, 37
5, 59167, Note_on_c, 0, 59, 0
5, 59175, Note_on_c, 0, 55, 0
5, 59176, Note_on_c, 0, 88, 43
5, 59178, Note_on_c, 0, 76, 43
5, 59194, Note_on_c, 0, 88, 0
5, 59196, Note_on_c, 0, 76, 0
5, 59220, Note_on_c, 0, 88, 70
5, 59222, Note_on_c, 0, 76, 60
5, 59228, Note_on_c, 0, 86, 33
5, 59237, Note_on_c, 0, 86, 0
5, 59240, Note_on_c, 0, 76, 0
5, 59240, Note_on_c, 0, 88, 0
5, 59254, Note_on_c, 0, 88, 53
5, 59256, Note_on_c, 0, 76, 62
5, 59265, Note_on_c, 0, 62, 37
5, 59267, Note_on_c, 0, 88, 0
5, 59270, Note_on_c, 0, 76, 0
5, 59271, Note_on_c, 0, 59, 29
5, 59273, Note_on_c, 0, 62, 0
5, 59273, Note_on_c, 0, 55, 37
5, 59281, Note_on_c, 0, 59, 0
5, 59282, Note_on_c, 0, 55, 0
5, 59298, Note_on_c, 0, 83, 31
5, 59299, Note_on_c, 0, 71, 14
5, 59300, Note_on_c, 0, 84, 31
5, 59302, Note_on_c, 0, 82, 25
5, 59306, Note_on_c, 0, 84, 0
5, 59317, Note_on_c, 0, 83, 0
5, 59317, Note_on_c, 0, 71, 0
5, 59322, Note_on_c, 0, 82, 0
5, 59338, Note_on_c, 0, 83, 35
5, 59339, Note_on_c, 0, 71, 50
5, 59356, Note_on_c, 0, 83, 0
5, 59357, Note_on_c, 0, 71, 0
5, 59397, Note_on_c, 0, 62, 55
5, 59400, Note_on_c, 0, 52, 33
5, 59401, Note_on_c, 0, 59, 42
5, 59403, Note_on_c, 0, 55, 44
5, 59424, Note_on_c, 0, 55, 0
5, 59426, Note_on_c, 0, 52, 0
5, 59428, Note_on_c, 0, 59, 0
5, 59439, Note_on_c, 0, 62, 0
5, 59496, Note_on_c, 0, 53, 42
5, 59498, Note_on_c, 0, 60, 53
5, 59498, Note_on_c, 0, 64, 41
5, 59500, Note_on_c, 0, 57, 32
5, 59564, Note_on_c, 0, 64, 0
5, 59571, Note_on_c, 0, 81, 88
5, 59586, Note_on_c, 0, 53, 0
5, 59590, Note_on_c, 0, 60, 0
5, 59591, Note_on_c, 0, 57, 0
5, 59603, Note_on_c, 0, 82, 35
5, 59613, Note_on_c, 0, 81, 0
5, 59617, Note_on_c, 0, 83, 66
5, 59627, Note_on_c, 0, 82, 0
5, 59632, Note_on_c, 0, 83, 0
5, 59636, Note_on_c, 0, 84, 73
5, 59653, Note_on_c, 0, 76, 66
5, 59654, Note_on_c, 0, 84, 0
5, 59688, Note_on_c, 0, 77, 43
5, 59691, Note_on_c, 0, 76, 0
5, 59696, Note_on_c, 0, 78, 42
5, 59706, Note_on_c, 0, 77, 0
5, 59719, Note_on_c, 0, 79, 54
5, 59723, Note_on_c, 0, 78, 0
5, 59738, Note_on_c, 0, 79, 0
5, 59743, Note_on_c, 0, 72, 61
5, 59772, Note_on_c, 0, 72, 0
5, 59800, Note_on_c, 0, 64, 63
5, 59810, Note_on_c, 0, 64, 0
5, 59853, Note_on_c, 0, 69, 88
5, 59884, Note_on_c, 0, 70, 53
5, 59890, Note_on_c, 0, 69, 0
5, 59901, Note_on_c, 0, 71, 62
5, 59907, Note_on_c, 0, 70, 0
5, 59918, Note_on_c, 0, 71, 0
5, 59922, Note_on_c, 0, 72, 58
5, 59924, Note_on_c, 0, 73, 25
5, 59928, Note_on_c, 0, 53, 35
5, 59930, Note_on_c, 0, 60, 31
5, 59933, Note_on_c, 0, 73, 0
5, 59939, Note_on_c, 0, 60, 0
5, 59947, Note_on_c, 0, 71, 74
5, 59950, Note_on_c, 0, 53, 0
5, 59950, Note_on_c, 0, 72, 0
5, 59977, Note_on_c, 0, 71, 0
5, 59983, Note_on_c, 0, 69, 74
5, 59998, Note_on_c, 0, 55, 26
5, 60002, Note_on_c, 0, 69, 0
5, 60008, Note_on_c, 0, 55, 0
5, 60012, Note_on_c, 0, 67, 43
5, 60041, Note_on_c, 0, 67, 0
5, 60063, Note_on_c, 0, 67, 49
5, 60096, Note_on_c, 0, 67, 0
5, 60104, Note_on_c, 0, 62, 27
5, 60110, Note_on_c, 0, 62, 0
5, 60112, Note_on_c, 0, 55, 35
5, 60115, Note_on_c, 0, 67, 58
5, 60129, Note_on_c, 0, 55, 0
5, 60146, Note_on_c, 0, 67, 0
5, 60153, Note_on_c, 0, 66, 35
5, 60172, Note_on_c, 0, 66, 0
5, 60176, Note_on_c, 0, 67, 43
5, 60207, Note_on_c, 0, 67, 0
5, 60214, Note_on_c, 0, 72, 64
5, 60215, Note_on_c, 0, 65, 45
5, 60217, Note_on_c, 0, 55, 30
5, 60219, Note_on_c, 0, 60, 50
5, 60221, Note_on_c, 0, 61, 30
5, 60270, Note_on_c, 0, 60, 0
5, 60270, Note_on_c, 0, 55, 0
5, 60277, Note_on_c, 0, 65, 0
5, 60279, Note_on_c, 0, 72, 0
5, 60282, Note_on_c, 0, 61, 0
5, 60300, Note_on_c, 0, 61, 35
5, 60301, Note_on_c, 0, 65, 35
5, 60302, Note_on_c, 0, 72, 57
5, 60304, Note_on_c, 0, 60, 50
5, 60304, Note_on_c, 0, 55, 35
5, 60353, Control_c, 0, 64, 127
5, 60360, Note_on_c, 0, 65, 0
5, 60361, Note_on_c, 0, 60, 0
5, 60363, Note_on_c, 0, 61, 0
5, 60363, Note_on_c, 0, 55, 0
5, 60366, Note_on_c, 0, 72, 0
5, 60389, Control_c, 0, 64, 0
5, 60398, Note_on_c, 0, 61, 36
5, 60398, Note_on_c, 0, 69, 64
5, 60399, Note_on_c, 0, 65, 43
5, 60400, Note_on_c, 0, 55, 40
5, 60407, Note_on_c, 0, 65, 0
5, 60408, Note_on_c, 0, 69, 0
5, 60415, Note_on_c, 0, 55, 0
5, 60416, Note_on_c, 0, 61, 0
5, 60423, Note_on_c, 0, 72, 32
5, 60438, Note_on_c, 0, 72, 0
5, 60446, Note_on_c, 0, 76, 44
5, 60459, Note_on_c, 0, 76, 0
5, 60460, Note_on_c, 0, 79, 80
5, 60478, Note_on_c, 0, 64, 37
5, 60481, Note_on_c, 0, 57, 49
5, 60482, Note_on_c, 0, 60, 44
5, 60483, Note_on_c, 0, 53, 15
5, 60485, Note_on_c, 0, 77, 72
5, 60494, Note_on_c, 0, 79, 0
5, 60534, Note_on_c, 0, 77, 0
5, 60541, Note_on_c, 0, 64, 0
5, 60547, Note_on_c, 0, 73, 31
5, 60554, Note_on_c, 0, 60, 0
5, 60564, Note_on_c, 0, 57, 0
5, 60572, Note_on_c, 0, 73, 0
5, 60580, Note_on_c, 0, 76, 81
5, 60585, Note_on_c, 0, 64, 42
5, 60589, Note_on_c, 0, 60, 33
5, 60596, Note_on_c, 0, 64, 0
5, 60600, Note_on_c, 0, 60, 0
5, 60608, Note_on_c, 0, 76, 0
5, 60616, Note_on_c, 0, 53, 0
5, 60639, Note_on_c, 0, 74, 94
5, 60641, Note_on_c, 0, 53, 43
5, 60645, Note_on_c, 0, 60, 45
5, 60647, Note_on_c, 0, 57, 37
5, 60652, Note_on_c, 0, 60, 0
5, 60663, Note_on_c, 0, 57, 0
5, 60666, Note_on_c, 0, 53, 0
5, 60666, Note_on_c, 0, 74, 0
5, 60695, Note_on_c, 0, 74, 69
5, 60695, Note_on_c, 0, 72, 46
5, 60702, Note_on_c, 0, 72, 0
5, 60709, Note_on_c, 0, 72, 53
5, 60716, Note_on_c, 0, 74, 0
5, 60720, Note_on_c, 0, 59, 44
5, 60722, Note_on_c, 0, 53, 29
5, 60722, Note_on_c, 0, 64, 24
5, 60729, Note_on_c, 0, 69, 44
5, 60733, Note_on_c, 0, 72, 0
5, 60755, Note_on_c, 0, 64, 0
5, 60759, Note_on_c, 0, 69, 0
5, 60762, Note_on_c, 0, 70, 69
5, 60775, Note_on_c, 0, 70, 0
5, 60782, Note_on_c, 0, 53, 0
5, 60786, Note_on_c, 0, 59, 0
5, 60786, Note_on_c, 0, 71, 49
5, 60809, Note_on_c, 0, 71, 0
5, 60815, Note_on_c, 0, 74, 66
5, 60821, Note_on_c, 0, 59, 26
5, 60835, Note_on_c, 0, 74, 0
5, 60839, Note_on_c, 0, 59, 0
5, 60844, Note_on_c, 0, 77, 41
5, 60863, Note_on_c, 0, 77, 0
5, 60875, Note_on_c, 0, 80, 57
5, 60880, Note_on_c, 0, 59, 31
5, 60893, Note_on_c, 0, 59, 0
5, 60904, Note_on_c, 0, 80, 0
5, 60904, Note_on_c, 0, 83, 45
5, 60924, Note_on_c, 0, 83, 0
5, 60934, Note_on_c, 0, 86, 80
5, 60942, Note_on_c, 0, 62, 39
5, 60944, Note_on_c, 0, 59, 27
5, 60947, Note_on_c, 0, 55, 41
5, 60954, Note_on_c, 0, 86, 0
5, 60962, Note_on_c, 0, 62, 0
5, 60962, Note_on_c, 0, 84, 64
5, 60991, Note_on_c, 0, 84, 0
5, 60995, Note_on_c, 0, 59, 0
5, 61004, Note_on_c, 0, 55, 0
5, 61022, Note_on_c, 0, 79, 57
5, 61042, Note_on_c, 0, 79, 0
5, 61082, Note_on_c, 0, 79, 60
5, 61085, Note_on_c, 0, 59, 33
5, 61087, Note_on_c, 0, 62, 10
5, 61087, Note_on_c, 0, 55, 22
5, 61101, Note_on_c, 0, 62, 0
5, 61102, Note_on_c, 0, 79, 0
5, 61107, Note_on_c, 0, 59, 0
5, 61107, Note_on_c, 0, 55, 0
5, 61140, Note_on_c, 0, 79, 65
5, 61166, Note_on_c, 0, 79, 0
5, 61169, Note_on_c, 0, 78, 46
5, 61185, Note_on_c, 0, 78, 0
5, 61197, Note_on_c, 0, 62, 33
5, 61198, Note_on_c, 0, 79, 47
5, 61200, Note_on_c, 0, 52, 22
5, 61232, Note_on_c, 0, 79, 0
5, 61236, Note_on_c, 0, 52, 0
5, 61237, Note_on_c, 0, 84, 65
5, 61252, Note_on_c, 0, 84, 0
5, 61253, Note_on_c, 0, 62, 0
5, 61298, Note_on_c, 0, 62, 54
5, 61299, Note_on_c, 0, 59, 34
5, 61303, Note_on_c, 0, 55, 33
5, 61309, Note_on_c, 0, 62, 0
5, 61320, Note_on_c, 0, 59, 0
5, 61323, Note_on_c, 0, 55, 0
5, 61380, Note_on_c, 0, 87, 83
5, 61382, Note_on_c, 0, 80, 80
5, 61414, Note_on_c, 0, 87, 0
5, 61419, Note_on_c, 0, 84, 74
5, 61420, Note_on_c, 0, 76, 53
5, 61424, Note_on_c, 0, 63, 54
5, 61427, Note_on_c, 0, 58, 37
5, 61428, Note_on_c, 0, 52, 38
5, 61457, Note_on_c, 0, 52, 0
5, 61461, Note_on_c, 0, 63, 0
5, 61462, Note_on_c, 0, 80, 0
5, 61468, Note_on_c, 0, 76, 0
5, 61471, Note_on_c, 0, 84, 0
5, 61497, Note_on_c, 0, 58, 0
5, 61533, Note_on_c, 0, 63, 69
5, 61535, Note_on_c, 0, 58, 55
5, 61537, Note_on_c, 0, 52, 49
5, 61543, Note_on_c, 0, 52, 0
5, 61548, Note_on_c, 0, 63, 0
5, 61556, Control_c, 0, 64, 127
5, 61560, Note_on_c, 0, 58, 0
5, 61586, Control_c, 0, 64, 0
5, 61616, Note_on_c, 0, 85, 85
5, 61617, Note_on_c, 0, 87, 83
5, 61618, Note_on_c, 0, 76, 87
5, 61618, Note_on_c, 0, 80, 76
5, 61618, Note_on_c, 0, 63, 81
5, 61619, Note_on_c, 0, 58, 74
5, 61620, Note_on_c, 0, 52, 78
5, 61623, Note_on_c, 0, 77, 49
5, 61626, Note_on_c, 0, 52, 0
5, 61629, Note_on_c, 0, 77, 0
5, 61632, Note_on_c, 0, 52, 31
5, 61640, Note_on_c, 0, 85, 0
5, 61650, Control_c, 0, 64, 127
5, 61676, Note_on_c, 0, 87, 0
5, 61676, Note_on_c, 0, 52, 0
5, 61677, Note_on_c, 0, 80, 0
5, 61681, Note_on_c, 0, 63, 0
5, 61683, Note_on_c, 0, 76, 0
5, 61688, Note_on_c, 0, 58, 0
5, 61708, Note_on_c, 0, 63, 71
5, 61709, Control_c, 0, 64, 0
5, 61709, Note_on_c, 0, 84, 71
5, 61710, Note_on_c, 0, 80, 60
5, 61710, Note_on_c, 0, 58, 63
5, 61710, Note_on_c, 0, 72, 64
5, 61711, Note_on_c, 0, 52, 66
5, 61731, Control_c, 0, 64, 127
5, 61734, Note_on_c, 0, 84, 0
5, 61742, Note_on_c, 0, 80, 0
5, 61751, Note_on_c, 0, 72, 0
5, 61759, Note_on_c, 0, 52, 0
5, 61766, Note_on_c, 0, 63, 0
5, 61772, Note_on_c, 0, 58, 0
5, 61797, Note_on_c, 0, 63, 64
5, 61798, Note_on_c, 0, 80, 63
5, 61798, Control_c, 0, 64, 0
5, 61799, Note_on_c, 0, 68, 62
5, 61800, Note_on_c, 0, 58, 60
5, 61801, Note_on_c, 0, 76, 62
5, 61803, Note_on_c, 0, 52, 35
5, 61815, Note_on_c, 0, 52, 0
5, 61847, Note_on_c, 0, 76, 0
5, 61850, Note_on_c, 0, 80, 0
5, 61852, Note_on_c, 0, 63, 0
5, 61859, Note_on_c, 0, 68, 0
5, 61861, Note_on_c, 0, 52, 46
5, 61863, Control_c, 0, 64, 127
5, 61875, Note_on_c, 0, 52, 0
5, 61881, Note_on_c, 0, 58, 0
5, 61919, Control_c, 0, 64, 0
5, 61922, Note_on_c, 0, 65, 79
5, 61922, Note_on_c, 0, 77, 79
5, 61922, Note_on_c, 0, 57, 73
5, 61923, Note_on_c, 0, 74, 80
5, 61923, Note_on_c, 0, 62, 66
5, 61923, Note_on_c, 0, 81, 77
5, 61923, Note_on_c, 0, 69, 85
5, 62057, Note_on_c, 0, 81, 0
5, 62068, Note_on_c, 0, 77, 0
5, 62073, Note_on_c, 0, 69, 0
5, 62074, Note_on_c, 0, 74, 0
5, 62079, Note_on_c, 0, 65, 0
5, 62083, Note_on_c, 0, 57, 0
5, 62090, Note_on_c, 0, 62, 0
5, 62099, Note_on_c, 0, 74, 57
5, 62099, Note_on_c, 0, 62, 44
5, 62100, Note_on_c, 0, 77, 50
5, 62100, Note_on_c, 0, 72, 42
5, 62101, Note_on_c, 0, 65, 42
5, 62101, Note_on_c, 0, 57, 49
5, 62120, Note_on_c, 0, 65, 0
5, 62122, Note_on_c, 0, 72, 0
5, 62123, Note_on_c, 0, 57, 0
5, 62125, Note_on_c, 0, 74, 0
5, 62125, Note_on_c, 0, 77, 0
5, 62130, Note_on_c, 0, 62, 0
5, 62139, Note_on_c, 0, 77, 62
5, 62139, Note_on_c, 0, 65, 55
5, 62141, Note_on_c, 0, 72, 36
5, 62141, Note_on_c, 0, 62, 38
5, 62142, Note_on_c, 0, 74, 27
5, 62143, Note_on_c, 0, 57, 37
5, 62147, Note_on_c, 0, 65, 0
5, 62149, Note_on_c, 0, 72, 0
5, 62150, Note_on_c, 0, 74, 0
5, 62155, Note_on_c, 0, 57, 0
5, 62156, Note_on_c, 0, 62, 0
5, 62157, Note_on_c, 0, 77, 0
5, 62222, Note_on_c, 0, 65, 38
5, 62222, Note_on_c, 0, 57, 46
5, 62223, Note_on_c, 0, 62, 43
5, 62232, Note_on_c, 0, 65, 0
5, 62238, Note_on_c, 0, 57, 0
5, 62240, Note_on_c, 0, 62, 0
5, 62315, Note_on_c, 0, 57, 57
5, 62316, Note_on_c, 0, 65, 49
5, 62320, Note_on_c, 0, 62, 35
5, 62328, Note_on_c, 0, 65, 0
5, 62331, Note_on_c, 0, 62, 0
5, 62337, Note_on_c, 0, 57, 0
5, 62396, Note_on_c, 0, 65, 44
5, 62397, Note_on_c, 0, 56, 34
5, 62398, Note_on_c, 0, 62, 37
5, 62473, Note_on_c, 0, 65, 0
5, 62481, Note_on_c, 0, 56, 0
5, 62484, Note_on_c, 0, 62, 0
5, 62500, Note_on_c, 0, 62, 40
5, 62500, Note_on_c, 0, 65, 32
5, 62504, Note_on_c, 0, 56, 25
5, 62509, Note_on_c, 0, 65, 0
5, 62520, Note_on_c, 0, 56, 0
5, 62521, Note_on_c, 0, 62, 0
5, 62524, Note_on_c, 0, 91, 81
5, 62554, Note_on_c, 0, 92, 67
5, 62561, Note_on_c, 0, 91, 0
5, 62567, Note_on_c, 0, 94, 58
5, 62573, Note_on_c, 0, 92, 0
5, 62587, Note_on_c, 0, 95, 64
5, 62589, Note_on_c, 0, 94, 0
5, 62602, Note_on_c, 0, 95, 0
5, 62614, Note_on_c, 0, 88, 71
5, 62647, Note_on_c, 0, 89, 32
5, 62654, Note_on_c, 0, 88, 0
5, 62656, Note_on_c, 0, 90, 47
5, 62663, Note_on_c, 0, 89, 0
5, 62679, Note_on_c, 0, 91, 51
5, 62686, Note_on_c, 0, 91, 0
5, 62687, Note_on_c, 0, 90, 0
5, 62739, Note_on_c, 0, 65, 37
5, 62740, Note_on_c, 0, 56, 33
5, 62740, Note_on_c, 0, 62, 42
5, 62748, Note_on_c, 0, 65, 0
5, 62753, Note_on_c, 0, 62, 0
5, 62753, Note_on_c, 0, 56, 0
5, 62795, Note_on_c, 0, 56, 49
5, 62795, Note_on_c, 0, 83, 62
5, 62797, Note_on_c, 0, 62, 53
5, 62797, Note_on_c, 0, 65, 38
5, 62804, Note_on_c, 0, 65, 0
5, 62806, Note_on_c, 0, 62, 0
5, 62811, Note_on_c, 0, 83, 0
5, 62815, Note_on_c, 0, 56, 0
5, 62821, Note_on_c, 0, 85, 46
5, 62842, Note_on_c, 0, 85, 0
5, 62855, Note_on_c, 0, 86, 84
5, 62868, Note_on_c, 0, 64, 36
5, 62872, Note_on_c, 0, 60, 34
5, 62875, Note_on_c, 0, 86, 0
5, 62875, Note_on_c, 0, 59, 22
5, 62878, Note_on_c, 0, 57, 22
5, 62881, Note_on_c, 0, 84, 72
5, 62905, Note_on_c, 0, 59, 0
5, 62906, Note_on_c, 0, 84, 0
5, 62916, Note_on_c, 0, 57, 0
5, 62917, Note_on_c, 0, 86, 55
5, 62925, Note_on_c, 0, 64, 0
5, 62925, Note_on_c, 0, 84, 59
5, 62926, Note_on_c, 0, 86, 0
5, 62940, Note_on_c, 0, 60, 0
5, 62944, Note_on_c, 0, 83, 53
5, 62950, Note_on_c, 0, 84, 0
5, 62964, Note_on_c, 0, 83, 0
5, 62977, Note_on_c, 0, 80, 57
5, 62987, Note_on_c, 0, 64, 34
5, 62987, Note_on_c, 0, 60, 49
5, 62988, Note_on_c, 0, 57, 35
5, 62994, Note_on_c, 0, 80, 0
5, 63003, Note_on_c, 0, 83, 63
5, 63031, Note_on_c, 0, 83, 0
5, 63038, Note_on_c, 0, 64, 0
5, 63040, Note_on_c, 0, 80, 36
5, 63049, Note_on_c, 0, 80, 0
5, 63055, Note_on_c, 0, 60, 0
5, 63062, Note_on_c, 0, 57, 0
5, 63063, Note_on_c, 0, 81, 66
5, 63087, Note_on_c, 0, 81, 0
5, 63098, Note_on_c, 0, 76, 41
5, 63113, Note_on_c, 0, 60, 32
5, 63114, Note_on_c, 0, 76, 0
5, 63115, Note_on_c, 0, 55, 25
5, 63116, Note_on_c, 0, 64, 24
5, 63126, Note_on_c, 0, 74, 64
5, 63146, Note_on_c, 0, 74, 0
5, 63176, Note_on_c, 0, 64, 0
5, 63177, Note_on_c, 0, 55, 0
5, 63182, Note_on_c, 0, 74, 71
5, 63191, Note_on_c, 0, 60, 0
5, 63211, Note_on_c, 0, 74, 0
5, 63241, Note_on_c, 0, 74, 65
5, 63241, Note_on_c, 0, 55, 38
5, 63249, Note_on_c, 0, 60, 25
5, 63270, Note_on_c, 0, 74, 0
5, 63281, Note_on_c, 0, 55, 0
5, 63283, Note_on_c, 0, 72, 29
5, 63292, Note_on_c, 0, 72, 0
5, 63298, Note_on_c, 0, 74, 38
5, 63302, Note_on_c, 0, 60, 0
5, 63324, Note_on_c, 0, 74, 0
5, 63334, Note_on_c, 0, 81, 75
5, 63336, Note_on_c, 0, 64, 39
5, 63341, Note_on_c, 0, 60, 39
5, 63342, Note_on_c, 0, 57, 38
5, 63342, Note_on_c, 0, 53, 16
5, 63354, Note_on_c, 0, 60, 0
5, 63356, Note_on_c, 0, 64, 0
5, 63358, Note_on_c, 0, 81, 0
5, 63360, Note_on_c, 0, 74, 54
5, 63363, Note_on_c, 0, 53, 0
5, 63379, Note_on_c, 0, 74, 0
5, 63403, Note_on_c, 0, 57, 0
5, 63417, Note_on_c, 0, 74, 57
5, 63442, Note_on_c, 0, 74, 0
5, 63453, Note_on_c, 0, 72, 28
5, 63465, Note_on_c, 0, 72, 0
5, 63472, Note_on_c, 0, 57, 27
5, 63475, Note_on_c, 0, 74, 46
5, 63496, Note_on_c, 0, 57, 0
5, 63509, Note_on_c, 0, 74, 0
5, 63514, Note_on_c, 0, 81, 61
5, 63529, Note_on_c, 0, 81, 0
5, 63599, Note_on_c, 0, 64, 31
5, 63602, Note_on_c, 0, 57, 34
5, 63603, Note_on_c, 0, 60, 30
5, 63611, Note_on_c, 0, 64, 0
5, 63614, Note_on_c, 0, 60, 0
5, 63619, Note_on_c, 0, 57, 0
5, 63692, Note_on_c, 0, 64, 38
5, 63694, Note_on_c, 0, 57, 38
5, 63694, Note_on_c, 0, 60, 38
5, 63700, Note_on_c, 0, 64, 0
5, 63701, Note_on_c, 0, 60, 0
5, 63707, Note_on_c, 0, 57, 0
5, 63722, Note_on_c, 0, 77, 59
5, 63738, Note_on_c, 0, 77, 0
5, 63756, Note_on_c, 0, 81, 60
5, 63766, Note_on_c, 0, 81, 0
5, 63784, Note_on_c, 0, 84, 64
5, 63796, Note_on_c, 0, 84, 0
5, 63815, Note_on_c, 0, 76, 68
5, 63815, Note_on_c, 0, 88, 70
5, 63816, Note_on_c, 0, 81, 54
5, 63817, Note_on_c, 0, 84, 56
5, 63818, Note_on_c, 0, 60, 56
5, 63820, Note_on_c, 0, 57, 47
5, 63821, Note_on_c, 0, 53, 38
5, 63822, Note_on_c, 0, 50, 24
5, 63824, Note_on_c, 0, 60, 0
5, 63824, Note_on_c, 0, 84, 0
5, 63828, Note_on_c, 0, 81, 0
5, 63829, Note_on_c, 0, 76, 0
5, 63829, Note_on_c, 0, 88, 0
5, 63830, Note_on_c, 0, 50, 0
5, 63834, Note_on_c, 0, 57, 0
5, 63840, Note_on_c, 0, 88, 64
5, 63843, Note_on_c, 0, 53, 0
5, 63843, Note_on_c, 0, 76, 50
5, 63843, Note_on_c, 0, 81, 50
5, 63845, Note_on_c, 0, 84, 47
5, 63875, Note_on_c, 0, 88, 0
5, 63876, Note_on_c, 0, 76, 0
5, 63878, Note_on_c, 0, 84, 0
5, 63883, Note_on_c, 0, 81, 0
5, 63898, Note_on_c, 0, 86, 26
5, 63898, Note_on_c, 0, 72, 39
5, 63898, Note_on_c, 0, 84, 38
5, 63904, Note_on_c, 0, 86, 0
5, 63908, Note_on_c, 0, 72, 0
5, 63913, Note_on_c, 0, 84, 0
5, 63934, Note_on_c, 0, 88, 81
5, 63935, Note_on_c, 0, 76, 69
5, 63936, Note_on_c, 0, 81, 57
5, 63939, Note_on_c, 0, 84, 37
5, 63942, Note_on_c, 0, 60, 58
5, 63945, Note_on_c, 0, 84, 0
5, 63946, Note_on_c, 0, 57, 45
5, 63947, Note_on_c, 0, 60, 0
5, 63948, Note_on_c, 0, 76, 0
5, 63948, Note_on_c, 0, 88, 0
5, 63948, Note_on_c, 0, 53, 33
5, 63951, Note_on_c, 0, 81, 0
5, 63957, Note_on_c, 0, 57, 0
5, 63961, Note_on_c, 0, 88, 66
5, 63963, Note_on_c, 0, 76, 52
5, 63964, Note_on_c, 0, 81, 48
5, 63965, Note_on_c, 0, 53, 0
5, 63965, Note_on_c, 0, 84, 44
5, 63972, Note_on_c, 0, 86, 33
5, 63988, Note_on_c, 0, 88, 0
5, 63989, Note_on_c, 0, 86, 0
5, 63991, Note_on_c, 0, 84, 0
5, 63998, Note_on_c, 0, 76, 0
5, 64001, Note_on_c, 0, 81, 0
5, 64005, Note_on_c, 0, 57, 28
5, 64010, Note_on_c, 0, 53, 16
5, 64015, Note_on_c, 0, 84, 66
5, 64016, Note_on_c, 0, 57, 0
5, 64019, Note_on_c, 0, 72, 31
5, 64022, Note_on_c, 0, 53, 0
5, 64022, Note_on_c, 0, 74, 26
5, 64031, Note_on_c, 0, 74, 0
5, 64031, Note_on_c, 0, 72, 0
5, 64035, Note_on_c, 0, 84, 0
5, 64076, Note_on_c, 0, 57, 47
5, 64077, Note_on_c, 0, 48, 45
5, 64093, Note_on_c, 0, 57, 0
5, 64099, Note_on_c, 0, 48, 0
5, 64170, Note_on_c, 0, 57, 72
5, 64171, Note_on_c, 0, 48, 62
5, 64179, Note_on_c, 0, 57, 0
5, 64192, Note_on_c, 0, 48, 0
5, 64230, Note_on_c, 0, 85, 83
5, 64233, Note_on_c, 0, 73, 48
5, 64233, Note_on_c, 0, 82, 60
5, 64235, Note_on_c, 0, 74, 80
5, 64236, Note_on_c, 0, 75, 34
5, 64236, Note_on_c, 0, 79, 49
5, 64238, Note_on_c, 0, 73, 0
5, 64241, Note_on_c, 0, 74, 0
5, 64241, Note_on_c, 0, 55, 51
5, 64244, Note_on_c, 0, 79, 0
5, 64248, Note_on_c, 0, 75, 0
5, 64249, Note_on_c, 0, 55, 0
5, 64251, Note_on_c, 0, 85, 0
5, 64255, Note_on_c, 0, 82, 0
5, 64262, Note_on_c, 0, 86, 68
5, 64264, Note_on_c, 0, 74, 73
5, 64267, Note_on_c, 0, 84, 49
5, 64267, Note_on_c, 0, 82, 37
5, 64271, Note_on_c, 0, 79, 36
5, 64283, Note_on_c, 0, 84, 0
5, 64284, Note_on_c, 0, 79, 0
5, 64285, Note_on_c, 0, 82, 0
5, 64287, Note_on_c, 0, 86, 0
5, 64291, Note_on_c, 0, 74, 0
5, 64304, Note_on_c, 0, 55, 51
5, 64305, Note_on_c, 0, 47, 38
5, 64310, Note_on_c, 0, 55, 0
5, 64314, Note_on_c, 0, 47, 0
5, 64315, Note_on_c, 0, 82, 60
5, 64317, Note_on_c, 0, 70, 58
5, 64318, Note_on_c, 0, 75, 46
5, 64325, Note_on_c, 0, 75, 0
5, 64341, Note_on_c, 0, 82, 0
5, 64343, Note_on_c, 0, 70, 0
5, 64355, Note_on_c, 0, 83, 58
5, 64356, Note_on_c, 0, 71, 61
5, 64359, Note_on_c, 0, 76, 57
5, 64368, Note_on_c, 0, 83, 0
5, 64372, Note_on_c, 0, 76, 0
5, 64377, Note_on_c, 0, 71, 0
5, 64408, Note_on_c, 0, 78, 39
5, 64411, Note_on_c, 0, 66, 34
5, 64425, Note_on_c, 0, 78, 0
5, 64429, Note_on_c, 0, 66, 0
5, 64438, Note_on_c, 0, 79, 46
5, 64438, Note_on_c, 0, 67, 57
5, 64456, Note_on_c, 0, 67, 0
5, 64457, Note_on_c, 0, 79, 0
5, 64494, Note_on_c, 0, 47, 37
5, 64497, Note_on_c, 0, 55, 40
5, 64502, Note_on_c, 0, 47, 0
5, 64509, Note_on_c, 0, 55, 0
5, 64558, Note_on_c, 0, 62, 55
5, 64560, Note_on_c, 0, 59, 54
5, 64563, Note_on_c, 0, 56, 26
5, 64563, Note_on_c, 0, 53, 19
5, 64578, Note_on_c, 0, 62, 0
5, 64606, Note_on_c, 0, 56, 0
5, 64606, Note_on_c, 0, 67, 61
5, 64608, Note_on_c, 0, 59, 0
5, 64610, Note_on_c, 0, 53, 0
5, 64619, Note_on_c, 0, 67, 0
5, 64642, Note_on_c, 0, 70, 37
5, 64654, Note_on_c, 0, 70, 0
5, 64659, Note_on_c, 0, 71, 60
5, 64675, Note_on_c, 0, 71, 0
5, 64680, Note_on_c, 0, 73, 40
5, 64689, Note_on_c, 0, 73, 0
5, 64701, Note_on_c, 0, 74, 59
5, 64714, Note_on_c, 0, 74, 0
5, 64717, Note_on_c, 0, 76, 57
5, 64733, Note_on_c, 0, 76, 0
5, 64736, Note_on_c, 0, 77, 49
5, 64750, Note_on_c, 0, 77, 0
5, 64762, Note_on_c, 0, 79, 50
5, 64770, Note_on_c, 0, 79, 0
5, 64777, Note_on_c, 0, 80, 42
5, 64801, Note_on_c, 0, 80, 0
5, 64802, Note_on_c, 0, 82, 32
5, 64820, Note_on_c, 0, 82, 0
5, 64825, Note_on_c, 0, 83, 42
5, 64834, Note_on_c, 0, 83, 0
5, 64843, Note_on_c, 0, 86, 88
5, 64868, Note_on_c, 0, 84, 81
5, 64876, Note_on_c, 0, 86, 0
5, 64899, Note_on_c, 0, 84, 0
5, 64911, Note_on_c, 0, 83, 80
5, 64933, Note_on_c, 0, 83, 0
5, 64943, Note_on_c, 0, 80, 57
5, 64963, Note_on_c, 0, 80, 0
5, 64971, Note_on_c, 0, 77, 61
5, 64986, Note_on_c, 0, 77, 0
5, 64996, Note_on_c, 0, 74, 48
5, 65019, Note_on_c, 0, 74, 0
5, 65027, Note_on_c, 0, 71, 46
5, 65042, Note_on_c, 0, 71, 0
5, 65051, Note_on_c, 0, 77, 71
5, 65082, Note_on_c, 0, 77, 0
5, 65107, Note_on_c, 0, 76, 69
5, 65131, Note_on_c, 0, 76, 0
5, 65136, Note_on_c, 0, 77, 47
5, 65161, Note_on_c, 0, 76, 53
5, 65163, Note_on_c, 0, 77, 0
5, 65189, Note_on_c, 0, 76, 0
5, 65195, Note_on_c, 0, 72, 63
5, 65211, Note_on_c, 0, 72, 0
5, 65221, Note_on_c, 0, 67, 44
5, 65253, Note_on_c, 0, 67, 0
5, 65255, Note_on_c, 0, 65, 48
5, 65265, Note_on_c, 0, 65, 0
5, 65267, Note_on_c, 0, 48, 40
5, 65273, Note_on_c, 0, 48, 0
5, 65282, Note_on_c, 0, 77, 69
5, 65284, Note_on_c, 0, 76, 67
5, 65305, Note_on_c, 0, 77, 0
5, 65311, Note_on_c, 0, 76, 0
5, 65319, Note_on_c, 0, 65, 50
5, 65338, Note_on_c, 0, 65, 0
5, 65371, Note_on_c, 0, 64, 57
5, 65378, Note_on_c, 0, 64, 0
5, 65389, Note_on_c, 0, 65, 50
5, 65400, Note_on_c, 0, 65, 0
5, 65407, Note_on_c, 0, 67, 54
5, 65415, Note_on_c, 0, 67, 0
5, 65424, Note_on_c, 0, 67, 58
5, 65439, Note_on_c, 0, 67, 0
5, 65442, Note_on_c, 0, 69, 68
5, 65456, Note_on_c, 0, 69, 0
5, 65465, Note_on_c, 0, 69, 73
5, 65477, Note_on_c, 0, 62, 29
5, 65478, Note_on_c, 0, 71, 66
5, 65479, Note_on_c, 0, 69, 0
5, 65488, Note_on_c, 0, 62, 0
5, 65494, Note_on_c, 0, 71, 0
5, 65499, Note_on_c, 0, 71, 50
5, 65514, Note_on_c, 0, 71, 0
5, 65518, Note_on_c, 0, 72, 64
5, 65525, Note_on_c, 0, 72, 0
5, 65534, Note_on_c, 0, 56, 47
5, 65534, Note_on_c, 0, 67, 64
5, 65534, Note_on_c, 0, 62, 57
5, 65633, Note_on_c, 0, 67, 0
5, 65637, Note_on_c, 0, 56, 0
5, 65647, Note_on_c, 0, 71, 68
5, 65652, Note_on_c, 0, 56, 40
5, 65653, Note_on_c, 0, 65, 41
5, 65665, Note_on_c, 0, 71, 0
5, 65682, Note_on_c, 0, 72, 59
5, 65684, Note_on_c, 0, 62, 0
5, 65693, Note_on_c, 0, 65, 0
5, 65699, Note_on_c, 0, 72, 0
5, 65707, Note_on_c, 0, 56, 0
5, 65709, Note_on_c, 0, 74, 53
5, 65728, Note_on_c, 0, 74, 0
5, 65740, Note_on_c, 0, 76, 66
5, 65754, Note_on_c, 0, 64, 32
5, 65759, Note_on_c, 0, 60, 29
5, 65760, Note_on_c, 0, 57, 22
5, 65762, Note_on_c, 0, 59, 24
5, 65765, Note_on_c, 0, 71, 60
5, 65766, Note_on_c, 0, 76, 0
5, 65796, Note_on_c, 0, 71, 0
5, 65816, Note_on_c, 0, 59, 0
5, 65821, Note_on_c, 0, 71, 59
5, 65822, Note_on_c, 0, 57, 0
5, 65823, Note_on_c, 0, 64, 0
5, 65824, Note_on_c, 0, 60, 0
5, 65849, Note_on_c, 0, 71, 0
5, 65857, Note_on_c, 0, 69, 38
5, 65869, Note_on_c, 0, 69, 0
5, 65879, Note_on_c, 0, 71, 53
5, 65881, Note_on_c, 0, 60, 41
5, 65882, Note_on_c, 0, 64, 20
5, 65884, Note_on_c, 0, 57, 29
5, 65932, Note_on_c, 0, 60, 0
5, 65933, Note_on_c, 0, 57, 0
5, 65939, Note_on_c, 0, 64, 0
5, 65957, Note_on_c, 0, 71, 0
5, 65967, Note_on_c, 0, 69, 44
5, 65979, Note_on_c, 0, 69, 0
5, 65994, Note_on_c, 0, 71, 51
5, 65995, Note_on_c, 0, 65, 25
5, 65997, Note_on_c, 0, 60, 41
5, 65999, Note_on_c, 0, 57, 31
5, 66033, Note_on_c, 0, 71, 0
5, 66038, Note_on_c, 0, 72, 33
5, 66046, Note_on_c, 0, 71, 51
5, 66050, Note_on_c, 0, 65, 0
5, 66051, Note_on_c, 0, 72, 0
5, 66059, Note_on_c, 0, 57, 0
5, 66059, Note_on_c, 0, 60, 0
5, 66065, Note_on_c, 0, 69, 53
5, 66066, Note_on_c, 0, 71, 0
5, 66083, Note_on_c, 0, 69, 0
5, 66096, Note_on_c, 0, 71, 62
5, 66104, Note_on_c, 0, 65, 38
5, 66106, Note_on_c, 0, 60, 39
5, 66109, Note_on_c, 0, 57, 26
5, 66112, Note_on_c, 0, 71, 0
5, 66125, Note_on_c, 0, 60, 0
5, 66126, Note_on_c, 0, 65, 0
5, 66130, Note_on_c, 0, 57, 0
5, 66183, Note_on_c, 0, 65, 24
5, 66190, Note_on_c, 0, 65, 0
5, 66240, Note_on_c, 0, 64, 29
5, 66243, Note_on_c, 0, 60, 41
5, 66244, Note_on_c, 0, 55, 31
5, 66259, Note_on_c, 0, 60, 0
5, 66260, Note_on_c, 0, 64, 0
5, 66268, Note_on_c, 0, 55, 0
5, 66330, Note_on_c, 0, 64, 39
5, 66332, Note_on_c, 0, 55, 43
5, 66332, Note_on_c, 0, 60, 44
5, 66341, Note_on_c, 0, 60, 0
5, 66342, Note_on_c, 0, 55, 0
5, 66344, Note_on_c, 0, 64, 0
5, 66392, Note_on_c, 0, 60, 50
5, 66394, Note_on_c, 0, 55, 40
5, 66399, Note_on_c, 0, 60, 0
5, 66402, Note_on_c, 0, 55, 0
5, 66414, Note_on_c, 0, 92, 84
5, 66415, Note_on_c, 0, 80, 82
5, 66416, Note_on_c, 0, 87, 79
5, 66429, Note_on_c, 0, 80, 0
5, 66435, Note_on_c, 0, 87, 0
5, 66436, Note_on_c, 0, 92, 0
5, 66450, Note_on_c, 0, 93, 81
5, 66451, Note_on_c, 0, 88, 67
5, 66451, Note_on_c, 0, 90, 51
5, 66452, Note_on_c, 0, 81, 60
5, 66455, Note_on_c, 0, 91, 46
5, 66461, Note_on_c, 0, 88, 0
5, 66462, Note_on_c, 0, 91, 0
5, 66463, Note_on_c, 0, 81, 0
5, 66463, Note_on_c, 0, 90, 0
5, 66464, Note_on_c, 0, 93, 0
5, 66474, Note_on_c, 0, 93, 63
5, 66476, Note_on_c, 0, 64, 49
5, 66476, Note_on_c, 0, 60, 45
5, 66476, Note_on_c, 0, 90, 37
5, 66476, Note_on_c, 0, 88, 63
5, 66477, Note_on_c, 0, 54, 35
5, 66478, Note_on_c, 0, 81, 55
5, 66497, Note_on_c, 0, 88, 0
5, 66497, Note_on_c, 0, 90, 0
5, 66500, Note_on_c, 0, 93, 0
5, 66502, Note_on_c, 0, 81, 0
5, 66531, Note_on_c, 0, 64, 0
5, 66535, Note_on_c, 0, 93, 78
5, 66537, Note_on_c, 0, 88, 68
5, 66537, Note_on_c, 0, 81, 69
5, 66543, Note_on_c, 0, 88, 0
5, 66548, Note_on_c, 0, 54, 0
5, 66548, Note_on_c, 0, 60, 0
5, 66550, Note_on_c, 0, 93, 0
5, 66559, Note_on_c, 0, 81, 0
5, 66582, Note_on_c, 0, 54, 30
5, 66584, Note_on_c, 0, 60, 34
5, 66597, Note_on_c, 0, 87, 50
5, 66599, Note_on_c, 0, 54, 0
5, 66599, Note_on_c, 0, 75, 28
5, 66600, Note_on_c, 0, 60, 0
5, 66607, Note_on_c, 0, 85, 34
5, 66613, Note_on_c, 0, 85, 0
5, 66615, Note_on_c, 0, 87, 0
5, 66615, Note_on_c, 0, 88, 60
5, 66616, Note_on_c, 0, 75, 0
5, 66622, Note_on_c, 0, 88, 0
5, 66644, Note_on_c, 0, 54, 34
5, 66654, Note_on_c, 0, 84, 30
5, 66656, Note_on_c, 0, 72, 37
5, 66657, Note_on_c, 0, 83, 28
5, 66674, Note_on_c, 0, 83, 0
5, 66675, Note_on_c, 0, 84, 0
5, 66681, Note_on_c, 0, 72, 0
5, 66684, Note_on_c, 0, 54, 0
5, 66729, Note_on_c, 0, 70, 45
5, 66729, Note_on_c, 0, 62, 33
5, 66729, Note_on_c, 0, 55, 41
5, 66729, Note_on_c, 0, 58, 34
5, 66729, Note_on_c, 0, 82, 35
5, 66762, Note_on_c, 0, 70, 0
5, 66764, Note_on_c, 0, 82, 0
5, 66780, Note_on_c, 0, 62, 0
5, 66783, Note_on_c, 0, 81, 19
5, 66784, Note_on_c, 0, 55, 0
5, 66785, Note_on_c, 0, 69, 38
5, 66798, Note_on_c, 0, 58, 0
5, 66799, Note_on_c, 0, 81, 0
5, 66802, Note_on_c, 0, 69, 0
5, 66841, Note_on_c, 0, 62, 47
5, 66843, Note_on_c, 0, 58, 37
5, 66843, Note_on_c, 0, 82, 59
5, 66844, Note_on_c, 0, 70, 56
5, 66861, Note_on_c, 0, 70, 0
5, 66862, Note_on_c, 0, 82, 0
5, 66864, Note_on_c, 0, 62, 0
5, 66875, Note_on_c, 0, 58, 0
5, 66956, Note_on_c, 0, 63, 45
5, 66964, Note_on_c, 0, 55, 37
5, 66964, Note_on_c, 0, 58, 37
5, 66991, Note_on_c, 0, 55, 0
5, 66992, Note_on_c, 0, 63, 0
5, 66994, Note_on_c, 0, 58, 0
5, 67052, Note_on_c, 0, 63, 51
5, 67057, Note_on_c, 0, 55, 39
5, 67058, Note_on_c, 0, 58, 37
5, 67108, Note_on_c, 0, 58, 0
5, 67111, Note_on_c, 0, 55, 0
5, 67116, Note_on_c, 0, 63, 0
5, 67138, Note_on_c, 0, 84, 92
5, 67139, Note_on_c, 0, 83, 85
5, 67141, Note_on_c, 0, 55, 47
5, 67143, Note_on_c, 0, 58, 35
5, 67161, Note_on_c, 0, 84, 0
5, 67163, Note_on_c, 0, 83, 0
5, 67174, Note_on_c, 0, 85, 76
5, 67187, Note_on_c, 0, 55, 0
5, 67191, Note_on_c, 0, 85, 0
5, 67203, Note_on_c, 0, 84, 36
5, 67205, Note_on_c, 0, 58, 0
5, 67223, Note_on_c, 0, 84, 0
5, 67237, Note_on_c, 0, 82, 68
5, 67243, Note_on_c, 0, 58, 35
5, 67244, Note_on_c, 0, 55, 36
5, 67254, Note_on_c, 0, 82, 0
5, 67259, Note_on_c, 0, 55, 0
5, 67270, Note_on_c, 0, 58, 0
5, 67270, Note_on_c, 0, 77, 27
5, 67292, Note_on_c, 0, 77, 0
5, 67305, Note_on_c, 0, 58, 35
5, 67306, Note_on_c, 0, 74, 27
5, 67313, Note_on_c, 0, 74, 0
5, 67317, Note_on_c, 0, 58, 0
5, 67377, Note_on_c, 0, 58, 39
5, 67408, Note_on_c, 0, 58, 0
5, 67437, Note_on_c, 0, 75, 93
5, 67461, Note_on_c, 0, 75, 0
5, 67475, Note_on_c, 0, 76, 62
5, 67498, Note_on_c, 0, 76, 0
5, 67499, Note_on_c, 0, 75, 46
5, 67523, Note_on_c, 0, 75, 0
5, 67532, Note_on_c, 0, 73, 51
5, 67540, Note_on_c, 0, 61, 34
5, 67554, Note_on_c, 0, 73, 0
5, 67558, Note_on_c, 0, 61, 0
5, 67562, Note_on_c, 0, 72, 41
5, 67578, Note_on_c, 0, 72, 0
5, 67593, Note_on_c, 0, 70, 54
5, 67599, Note_on_c, 0, 61, 34
5, 67603, Note_on_c, 0, 58, 25
5, 67605, Note_on_c, 0, 61, 0
5, 67611, Note_on_c, 0, 70, 0
5, 67616, Note_on_c, 0, 58, 0
5, 67621, Note_on_c, 0, 69, 34
5, 67645, Note_on_c, 0, 69, 0
5, 67654, Note_on_c, 0, 67, 54
5, 67669, Note_on_c, 0, 67, 0
5, 67677, Note_on_c, 0, 55, 28
5, 67680, Note_on_c, 0, 45, 24
5, 67683, Note_on_c, 0, 63, 25
5, 67738, Note_on_c, 0, 55, 0
5, 67742, Note_on_c, 0, 60, 48
5, 67756, Note_on_c, 0, 63, 0
5, 67759, Note_on_c, 0, 60, 0
5, 67803, Note_on_c, 0, 62, 89
5, 67804, Note_on_c, 0, 69, 76
5, 67819, Note_on_c, 0, 62, 0
5, 67821, Note_on_c, 0, 45, 0
5, 67834, Note_on_c, 0, 63, 37
5, 67839, Note_on_c, 0, 69, 0
5, 67846, Note_on_c, 0, 62, 54
5, 67861, Note_on_c, 0, 63, 0
5, 67867, Note_on_c, 0, 62, 0
5, 67871, Note_on_c, 0, 60, 45
5, 67892, Note_on_c, 0, 60, 0
5, 67901, Note_on_c, 0, 58, 48
5, 67908, Note_on_c, 0, 50, 19
5, 67910, Note_on_c, 0, 38, 19
5, 67918, Note_on_c, 0, 58, 0
5, 67925, Note_on_c, 0, 57, 37
5, 67959, Note_on_c, 0, 57, 0
5, 67962, Note_on_c, 0, 58, 43
5, 67968, Note_on_c, 0, 45, 22
5, 67970, Note_on_c, 0, 50, 0
5, 67980, Note_on_c, 0, 58, 0
5, 67981, Note_on_c, 0, 45, 0
5, 67985, Note_on_c, 0, 60, 79
5, 68014, Note_on_c, 0, 50, 46
5, 68022, Note_on_c, 0, 50, 0
5, 68026, Note_on_c, 0, 60, 0
5, 68043, Note_on_c, 0, 57, 66
5, 68051, Note_on_c, 0, 38, 0
5, 68076, Note_on_c, 0, 38, 31
5, 68080, Note_on_c, 0, 57, 0
5, 68085, Note_on_c, 0, 54, 69
5, 68098, Note_on_c, 0, 38, 0
5, 68149, Note_on_c, 0, 54, 0
5, 68162, Note_on_c, 0, 43, 38
5, 68169, Note_on_c, 0, 43, 0
5, 68218, Note_on_c, 0, 70, 70
5, 68219, Note_on_c, 0, 55, 55
5, 68221, Note_on_c, 0, 60, 49
5, 68222, Note_on_c, 0, 65, 55
5, 68239, Note_on_c, 0, 60, 0
5, 68246, Note_on_c, 0, 70, 0
5, 68248, Note_on_c, 0, 55, 0
5, 68249, Note_on_c, 0, 65, 0
5, 68261, Note_on_c, 0, 54, 39
5, 68281, Note_on_c, 0, 70, 58
5, 68282, Note_on_c, 0, 65, 63
5, 68283, Note_on_c, 0, 60, 54
5, 68286, Note_on_c, 0, 54, 0
5, 68288, Note_on_c, 0, 55, 50
5, 68303, Note_on_c, 0, 60, 0
5, 68308, Note_on_c, 0, 55, 0
5, 68308, Note_on_c, 0, 65, 0
5, 68311, Note_on_c, 0, 70, 0
5, 68371, Note_on_c, 0, 61, 55
5, 68373, Note_on_c, 0, 64, 61
5, 68373, Note_on_c, 0, 48, 54
5, 68374, Note_on_c, 0, 67, 47
5, 68376, Note_on_c, 0, 58, 39
5, 68383, Note_on_c, 0, 61, 0
5, 68386, Note_on_c, 0, 64, 0
5, 68387, Note_on_c, 0, 48, 0
5, 68390, Note_on_c, 0, 67, 0
5, 68390, Note_on_c, 0, 58, 0
5, 68456, Note_on_c, 0, 63, 71
5, 68457, Note_on_c, 0, 75, 59
5, 68458, Note_on_c, 0, 68, 67
5, 68458, Note_on_c, 0, 72, 60
5, 68459, Note_on_c, 0, 64, 71
5, 68477, Note_on_c, 0, 63, 0
5, 68478, Note_on_c, 0, 64, 0
5, 68482, Note_on_c, 0, 68, 0
5, 68483, Note_on_c, 0, 72, 0
5, 68485, Note_on_c, 0, 75, 0
5, 68518, Note_on_c, 0, 73, 49
5, 68519, Note_on_c, 0, 68, 62
5, 68521, Note_on_c, 0, 64, 60
5, 68521, Note_on_c, 0, 61, 40
5, 68547, Note_on_c, 0, 61, 0
5, 68551, Note_on_c, 0, 64, 0
5, 68552, Note_on_c, 0, 73, 0
5, 68554, Note_on_c, 0, 68, 0
5, 68580, Note_on_c, 0, 58, 45
5, 68614, Note_on_c, 0, 72, 48
5, 68614, Note_on_c, 0, 67, 58
5, 68615, Note_on_c, 0, 58, 0
5, 68615, Note_on_c, 0, 62, 49
5, 68623, Note_on_c, 0, 57, 33
5, 68632, Note_on_c, 0, 62, 0
5, 68637, Note_on_c, 0, 67, 0
5, 68638, Note_on_c, 0, 72, 0
5, 68641, Note_on_c, 0, 57, 0
5, 68695, Note_on_c, 0, 72, 51
5, 68696, Note_on_c, 0, 67, 60
5, 68698, Note_on_c, 0, 62, 55
5, 68700, Note_on_c, 0, 57, 33
5, 68715, Note_on_c, 0, 62, 0
5, 68724, Note_on_c, 0, 67, 0
5, 68725, Note_on_c, 0, 72, 0
5, 68732, Note_on_c, 0, 57, 0
5, 68736, Note_on_c, 0, 71, 38
5, 68747, Note_on_c, 0, 56, 25
5, 68753, Note_on_c, 0, 71, 0
5, 68757, Note_on_c, 0, 56, 0
5, 68760, Note_on_c, 0, 72, 51
5, 68761, Note_on_c, 0, 62, 46
5, 68761, Note_on_c, 0, 67, 48
5, 68765, Note_on_c, 0, 57, 38
5, 68788, Note_on_c, 0, 67, 0
5, 68789, Note_on_c, 0, 62, 0
5, 68800, Note_on_c, 0, 57, 0
5, 68805, Note_on_c, 0, 72, 0
5, 68820, Note_on_c, 0, 62, 37
5, 68822, Note_on_c, 0, 69, 58
5, 68832, Note_on_c, 0, 62, 0
5, 68840, Note_on_c, 0, 69, 0
5, 69047, Note_on_c, 0, 57, 31
5, 69048, Note_on_c, 0, 60, 22
5, 69054, Note_on_c, 0, 60, 0
5, 69057, Note_on_c, 0, 57, 0
5, 69059, Note_on_c, 0, 79, 45
5, 69069, Note_on_c, 0, 80, 42
5, 69076, Note_on_c, 0, 79, 0
5, 69079, Note_on_c, 0, 80, 0
5, 69083, Note_on_c, 0, 81, 41
5, 69094, Note_on_c, 0, 81, 0
5, 69103, Note_on_c, 0, 86, 94
5, 69136, Note_on_c, 0, 86, 0
5, 69182, Note_on_c, 0, 79, 87
5, 69186, Note_on_c, 0, 86, 78
5, 69206, Note_on_c, 0, 79, 0
5, 69213, Note_on_c, 0, 80, 37
5, 69221, Note_on_c, 0, 86, 0
5, 69228, Note_on_c, 0, 79, 54
5, 69235, Note_on_c, 0, 80, 0
5, 69248, Note_on_c, 0, 77, 43
5, 69260, Note_on_c, 0, 79, 0
5, 69270, Note_on_c, 0, 77, 0
5, 69282, Note_on_c, 0, 76, 31
5, 69294, Note_on_c, 0, 76, 0
5, 69302, Note_on_c, 0, 79, 71
5, 69335, Note_on_c, 0, 79, 0
5, 69366, Note_on_c, 0, 77, 66
5, 69392, Note_on_c, 0, 77, 0
5, 69401, Note_on_c, 0, 69, 51
5, 69415, Note_on_c, 0, 69, 0
5, 69456, Note_on_c, 0, 48, 51
5, 69457, Note_on_c, 0, 57, 51
5, 69465, Note_on_c, 0, 57, 0
5, 69473, Note_on_c, 0, 48, 0
5, 69529, Note_on_c, 0, 57, 58
5, 69533, Note_on_c, 0, 47, 24
5, 69534, Note_on_c, 0, 57, 0
5, 69539, Note_on_c, 0, 47, 0
5, 69666, Note_on_c, 0, 57, 41
5, 69668, Note_on_c, 0, 65, 29
5, 69669, Note_on_c, 0, 93, 27
5, 69670, Note_on_c, 0, 95, 28
5, 69670, Note_on_c, 0, 62, 35
5, 69677, Note_on_c, 0, 95, 0
5, 69680, Note_on_c, 0, 93, 0
5, 69683, Note_on_c, 0, 65, 0
5, 69686, Note_on_c, 0, 57, 0
5, 69689, Note_on_c, 0, 62, 0
5, 69700, Note_on_c, 0, 93, 55
5, 69701, Note_on_c, 0, 89, 41
5, 69703, Note_on_c, 0, 81, 35
5, 69703, Note_on_c, 0, 57, 52
5, 69704, Note_on_c, 0, 65, 42
5, 69704, Note_on_c, 0, 86, 62
5, 69705, Note_on_c, 0, 62, 40
5, 69712, Note_on_c, 0, 86, 0
5, 69716, Note_on_c, 0, 93, 0
5, 69716, Note_on_c, 0, 89, 0
5, 69716, Note_on_c, 0, 81, 0
5, 69717, Note_on_c, 0, 65, 0
5, 69719, Note_on_c, 0, 57, 0
5, 69726, Note_on_c, 0, 93, 47
5, 69727, Note_on_c, 0, 65, 40
5, 69727, Note_on_c, 0, 57, 28
5, 69729, Note_on_c, 0, 89, 55
5, 69730, Note_on_c, 0, 81, 38
5, 69730, Note_on_c, 0, 86, 45
5, 69748, Note_on_c, 0, 86, 0
5, 69750, Note_on_c, 0, 93, 0
5, 69751, Note_on_c, 0, 65, 0
5, 69751, Note_on_c, 0, 57, 0
5, 69751, Note_on_c, 0, 89, 0
5, 69751, Note_on_c, 0, 81, 0
5, 69756, Note_on_c, 0, 62, 0
5, 69761, Note_on_c, 0, 93, 67
5, 69762, Note_on_c, 0, 86, 53
5, 69762, Note_on_c, 0, 81, 44
5, 69763, Note_on_c, 0, 89, 65
5, 69763, Note_on_c, 0, 57, 67
5, 69763, Note_on_c, 0, 65, 60
5, 69764, Note_on_c, 0, 62, 34
5, 69774, Note_on_c, 0, 86, 0
5, 69776, Note_on_c, 0, 65, 0
5, 69777, Note_on_c, 0, 93, 0
5, 69778, Note_on_c, 0, 57, 0
5, 69778, Note_on_c, 0, 89, 0
5, 69779, Note_on_c, 0, 81, 0
5, 69786, Note_on_c, 0, 93, 62
5, 69787, Note_on_c, 0, 86, 60
5, 69788, Note_on_c, 0, 57, 63
5, 69788, Note_on_c, 0, 65, 64
5, 69788, Note_on_c, 0, 81, 49
5, 69789, Note_on_c, 0, 89, 68
5, 69805, Note_on_c, 0, 86, 0
5, 69807, Note_on_c, 0, 65, 0
5, 69807, Note_on_c, 0, 93, 0
5, 69808, Note_on_c, 0, 81, 0
5, 69809, Note_on_c, 0, 89, 0
5, 69811, Note_on_c, 0, 57, 0
5, 69811, Note_on_c, 0, 62, 0
5, 69818, Note_on_c, 0, 57, 53
5, 69819, Note_on_c, 0, 93, 73
5, 69819, Note_on_c, 0, 62, 34
5, 69819, Note_on_c, 0, 65, 72
5, 69820, Note_on_c, 0, 86, 72
5, 69820, Note_on_c, 0, 89, 75
5, 69821, Note_on_c, 0, 81, 62
5, 69832, Note_on_c, 0, 65, 0
5, 69833, Note_on_c, 0, 86, 0
5, 69836, Note_on_c, 0, 93, 0
5, 69837, Note_on_c, 0, 81, 0
5, 69839, Note_on_c, 0, 89, 0
5, 69844, Note_on_c, 0, 65, 78
5, 69845, Note_on_c, 0, 93, 65
5, 69846, Note_on_c, 0, 86, 73
5, 69847, Note_on_c, 0, 89, 67
5, 69848, Note_on_c, 0, 81, 71
5, 69871, Note_on_c, 0, 93, 0
5, 69872, Note_on_c, 0, 86, 0
5, 69872, Note_on_c, 0, 89, 0
5, 69874, Note_on_c, 0, 65, 0
5, 69876, Note_on_c, 0, 57, 0
5, 69877, Note_on_c, 0, 81, 0
5, 69881, Note_on_c, 0, 62, 0
5, 69903, Note_on_c, 0, 89, 51
5, 69905, Note_on_c, 0, 84, 55
5, 69905, Note_on_c, 0, 77, 48
5, 69906, Note_on_c, 0, 57, 60
5, 69906, Note_on_c, 0, 65, 53
5, 69907, Note_on_c, 0, 62, 50
5, 69912, Note_on_c, 0, 84, 0
5, 69916, Note_on_c, 0, 62, 0
5, 69918, Note_on_c, 0, 89, 0
5, 69918, Note_on_c, 0, 77, 0
5, 69919, Note_on_c, 0, 65, 0
5, 69946, Note_on_c, 0, 57, 0
5, 70082, Note_on_c, 0, 56, 69
5, 70082, Note_on_c, 0, 84, 79
5, 70082, Note_on_c, 0, 96, 82
5, 70083, Note_on_c, 0, 67, 69
5, 70083, Note_on_c, 0, 91, 76
5, 70084, Note_on_c, 0, 62, 59
5, 70103, Note_on_c, 0, 84, 0
5, 70105, Note_on_c, 0, 91, 0
5, 70105, Note_on_c, 0, 96, 0
5, 70107, Note_on_c, 0, 56, 0
5, 70107, Note_on_c, 0, 67, 0
5, 70110, Note_on_c, 0, 62, 0
5, 70116, Note_on_c, 0, 96, 69
5, 70118, Note_on_c, 0, 91, 64
5, 70118, Note_on_c, 0, 84, 62
5, 70119, Note_on_c, 0, 67, 71
5, 70119, Note_on_c, 0, 56, 55
5, 70120, Note_on_c, 0, 62, 62
5, 70135, Note_on_c, 0, 67, 0
5, 70135, Note_on_c, 0, 84, 0
5, 70135, Note_on_c, 0, 96, 0
5, 70135, Note_on_c, 0, 91, 0
5, 70142, Note_on_c, 0, 96, 49
5, 70144, Note_on_c, 0, 67, 70
5, 70145, Note_on_c, 0, 84, 47
5, 70145, Note_on_c, 0, 91, 66
5, 70171, Note_on_c, 0, 91, 0
5, 70171, Note_on_c, 0, 84, 0
5, 70175, Note_on_c, 0, 96, 0
5, 70177, Note_on_c, 0, 56, 0
5, 70178, Note_on_c, 0, 67, 0
5, 70184, Note_on_c, 0, 62, 0
5, 70197, Note_on_c, 0, 56, 67
5, 70197, Note_on_c, 0, 67, 71
5, 70198, Note_on_c, 0, 96, 80
5, 70198, Note_on_c, 0, 62, 61
5, 70199, Note_on_c, 0, 91, 75
5, 70200, Note_on_c, 0, 84, 70
5, 70230, Note_on_c, 0, 96, 0
5, 70234, Note_on_c, 0, 91, 0
5, 70238, Note_on_c, 0, 84, 0
5, 70244, Note_on_c, 0, 56, 0
5, 70245, Note_on_c, 0, 67, 0
5, 70248, Note_on_c, 0, 62, 0
5, 70260, Note_on_c, 0, 67, 53
5, 70262, Note_on_c, 0, 56, 33
5, 70263, Note_on_c, 0, 62, 55
5, 70266, Note_on_c, 0, 76, 40
5, 70271, Note_on_c, 0, 62, 0
5, 70272, Note_on_c, 0, 67, 0
5, 70273, Note_on_c, 0, 56, 0
5, 70273, Note_on_c, 0, 76, 0
5, 70354, Note_on_c, 0, 56, 53
5, 70355, Note_on_c, 0, 67, 57
5, 70357, Note_on_c, 0, 62, 55
5, 70368, Note_on_c, 0, 67, 0
5, 70371, Note_on_c, 0, 62, 0
5, 70372, Note_on_c, 0, 56, 0
5, 70439, Note_on_c, 0, 67, 67
5, 70440, Note_on_c, 0, 62, 59
5, 70441, Note_on_c, 0, 56, 46
5, 70453, Note_on_c, 0, 67, 0
5, 70458, Note_on_c, 0, 62, 0
5, 70468, Note_on_c, 0, 56, 0
5, 70534, Note_on_c, 0, 64, 53
5, 70537, Note_on_c, 0, 59, 43
5, 70538, Note_on_c, 0, 60, 45
5, 70538, Note_on_c, 0, 57, 40
5, 70545, Note_on_c, 0, 59, 0
5, 70546, Note_on_c, 0, 60, 0
5, 70547, Note_on_c, 0, 57, 0
5, 70550, Note_on_c, 0, 64, 0
5, 70617, Note_on_c, 0, 64, 62
5, 70619, Note_on_c, 0, 60, 61
5, 70623, Note_on_c, 0, 57, 38
5, 70630, Note_on_c, 0, 64, 0
5, 70633, Note_on_c, 0, 57, 0
5, 70637, Note_on_c, 0, 60, 0
5, 70682, Note_on_c, 0, 98, 68
5, 70684, Note_on_c, 0, 99, 69
5, 70695, Note_on_c, 0, 98, 0
5, 70697, Note_on_c, 0, 99, 0
5, 70703, Note_on_c, 0, 100, 27
5, 70714, Note_on_c, 0, 100, 0
5, 70737, Note_on_c, 0, 64, 60
5, 70737, Note_on_c, 0, 91, 80
5, 70738, Note_on_c, 0, 103, 78
5, 70739, Note_on_c, 0, 60, 42
5, 70739, Note_on_c, 0, 57, 50
5, 70754, Note_on_c, 0, 60, 0
5, 70756, Note_on_c, 0, 64, 0
5, 70758, Note_on_c, 0, 91, 0
5, 70760, Note_on_c, 0, 57, 0
5, 70764, Note_on_c, 0, 103, 0
5, 70800, Note_on_c, 0, 64, 64
5, 70803, Note_on_c, 0, 60, 45
5, 70803, Note_on_c, 0, 103, 79
5, 70803, Note_on_c, 0, 91, 75
5, 70805, Note_on_c, 0, 55, 53
5, 70809, Note_on_c, 0, 57, 31
5, 70818, Note_on_c, 0, 55, 0
5, 70820, Note_on_c, 0, 91, 0
5, 70822, Note_on_c, 0, 60, 0
5, 70822, Note_on_c, 0, 57, 0
5, 70825, Note_on_c, 0, 103, 0
5, 70826, Note_on_c, 0, 64, 0
5, 70891, Note_on_c, 0, 55, 51
5, 70893, Note_on_c, 0, 64, 37
5, 70894, Note_on_c, 0, 60, 49
5, 70898, Note_on_c, 0, 57, 37
5, 70907, Note_on_c, 0, 57, 0
5, 70915, Note_on_c, 0, 60, 0
5, 70915, Note_on_c, 0, 55, 0
5, 70917, Note_on_c, 0, 64, 0
5, 70974, Note_on_c, 0, 64, 57
5, 70976, Note_on_c, 0, 60, 47
5, 70978, Note_on_c, 0, 57, 55
5, 70979, Note_on_c, 0, 53, 34
5, 71001, Note_on_c, 0, 53, 0
5, 71007, Note_on_c, 0, 64, 0
5, 71015, Note_on_c, 0, 60, 0
5, 71020, Note_on_c, 0, 57, 0
5, 71042, Note_on_c, 0, 103, 87
5, 71043, Note_on_c, 0, 91, 90
5, 71072, Note_on_c, 0, 103, 0
5, 71078, Note_on_c, 0, 91, 0
5, 71078, Note_on_c, 0, 100, 54
5, 71081, Note_on_c, 0, 64, 36
5, 71086, Note_on_c, 0, 60, 37
5, 71087, Note_on_c, 0, 100, 0
5, 71087, Note_on_c, 0, 57, 38
5, 71101, Note_on_c, 0, 64, 0
5, 71102, Note_on_c, 0, 103, 82
5, 71102, Note_on_c, 0, 91, 79
5, 71107, Note_on_c, 0, 60, 0
5, 71110, Note_on_c, 0, 57, 0
5, 71127, Note_on_c, 0, 91, 0
5, 71129, Note_on_c, 0, 103, 0
5, 71136, Note_on_c, 0, 100, 70
5, 71157, Note_on_c, 0, 100, 0
5, 71162, Note_on_c, 0, 96, 38
5, 71189, Note_on_c, 0, 96, 0
5, 71193, Note_on_c, 0, 64, 48
5, 71197, Note_on_c, 0, 60, 47
5, 71200, Note_on_c, 0, 53, 26
5, 71200, Note_on_c, 0, 57, 43
5, 71200, Note_on_c, 0, 89, 36
5, 71203, Note_on_c, 0, 91, 25
5, 71205, Note_on_c, 0, 64, 0
5, 71208, Note_on_c, 0, 89, 0
5, 71208, Note_on_c, 0, 91, 0
5, 71215, Note_on_c, 0, 60, 0
5, 71219, Note_on_c, 0, 57, 0
5, 71219, Note_on_c, 0, 100, 74
5, 71220, Note_on_c, 0, 88, 73
5, 71221, Note_on_c, 0, 98, 75
5, 71225, Note_on_c, 0, 53, 0
5, 71227, Note_on_c, 0, 98, 0
5, 71243, Note_on_c, 0, 88, 0
5, 71245, Note_on_c, 0, 100, 0
5, 71248, Note_on_c, 0, 64, 33
5, 71255, Note_on_c, 0, 60, 32
5, 71256, Note_on_c, 0, 64, 0
5, 71257, Note_on_c, 0, 57, 34
5, 71272, Note_on_c, 0, 57, 0
5, 71272, Note_on_c, 0, 60, 0
5, 71276, Note_on_c, 0, 100, 85
5, 71277, Note_on_c, 0, 88, 81
5, 71306, Note_on_c, 0, 88, 0
5, 71309, Note_on_c, 0, 100, 0
5, 71310, Note_on_c, 0, 96, 62
5, 71312, Note_on_c, 0, 64, 31
5, 71318, Note_on_c, 0, 60, 29
5, 71320, Note_on_c, 0, 64, 0
5, 71320, Note_on_c, 0, 57, 33
5, 71331, Note_on_c, 0, 60, 0
5, 71333, Note_on_c, 0, 57, 0
5, 71335, Note_on_c, 0, 93, 36
5, 71336, Note_on_c, 0, 96, 0
5, 71374, Note_on_c, 0, 88, 31
5, 71377, Note_on_c, 0, 57, 32
5, 71380, Note_on_c, 0, 93, 0
5, 71390, Note_on_c, 0, 88, 0
5, 71392, Note_on_c, 0, 57, 0
5, 71396, Note_on_c, 0, 96, 76
5, 71426, Note_on_c, 0, 96, 0
5, 71439, Note_on_c, 0, 53, 22
5, 71452, Note_on_c, 0, 53, 0
5, 71457, Note_on_c, 0, 84, 80
5, 71457, Note_on_c, 0, 96, 82
5, 71487, Note_on_c, 0, 84, 0
5, 71489, Note_on_c, 0, 96, 0
5, 71492, Note_on_c, 0, 93, 71
5, 71498, Note_on_c, 0, 60, 48
5, 71503, Note_on_c, 0, 50, 19
5, 71503, Note_on_c, 0, 53, 25
5, 71504, Note_on_c, 0, 57, 32
5, 71520, Note_on_c, 0, 93, 0
5, 71521, Note_on_c, 0, 57, 0
5, 71521, Note_on_c, 0, 89, 48
5, 71531, Note_on_c, 0, 50, 0
5, 71537, Note_on_c, 0, 53, 0
5, 71538, Note_on_c, 0, 60, 0
5, 71551, Note_on_c, 0, 89, 0
5, 71578, Note_on_c, 0, 93, 75
5, 71579, Note_on_c, 0, 81, 44
5, 71583, Note_on_c, 0, 83, 46
5, 71589, Note_on_c, 0, 83, 0
5, 71607, Note_on_c, 0, 81, 0
5, 71615, Note_on_c, 0, 93, 0
5, 71624, Note_on_c, 0, 89, 24
5, 71629, Note_on_c, 0, 53, 26
5, 71630, Note_on_c, 0, 89, 0
5, 71630, Note_on_c, 0, 50, 22
5, 71630, Note_on_c, 0, 57, 26
5, 71637, Note_on_c, 0, 93, 85
5, 71639, Note_on_c, 0, 81, 70
5, 71645, Note_on_c, 0, 57, 0
5, 71646, Note_on_c, 0, 50, 0
5, 71649, Note_on_c, 0, 53, 0
5, 71670, Note_on_c, 0, 81, 0
5, 71670, Note_on_c, 0, 93, 0
5, 71673, Note_on_c, 0, 89, 46
5, 71696, Note_on_c, 0, 89, 0
5, 71699, Note_on_c, 0, 86, 34
5, 71724, Note_on_c, 0, 86, 0
5, 71759, Note_on_c, 0, 60, 44
5, 71760, Note_on_c, 0, 50, 34
5, 71761, Note_on_c, 0, 53, 35
5, 71762, Note_on_c, 0, 57, 40
5, 71773, Note_on_c, 0, 60, 0
5, 71777, Note_on_c, 0, 50, 0
5, 71781, Note_on_c, 0, 57, 0
5, 71785, Note_on_c, 0, 53, 0
5, 71851, Note_on_c, 0, 60, 54
5, 71855, Note_on_c, 0, 57, 41
5, 71858, Note_on_c, 0, 53, 27
5, 71884, Note_on_c, 0, 57, 0
5, 71886, Note_on_c, 0, 60, 0
5, 71895, Note_on_c, 0, 53, 0
5, 71917, Note_on_c, 0, 69, 68
5, 71918, Note_on_c, 0, 57, 30
5, 71927, Note_on_c, 0, 57, 0
5, 71931, Note_on_c, 0, 69, 0
5, 71938, Note_on_c, 0, 71, 46
5, 71953, Note_on_c, 0, 71, 0
5, 71958, Note_on_c, 0, 71, 45
5, 71975, Note_on_c, 0, 71, 0
5, 71975, Note_on_c, 0, 72, 66
5, 71991, Note_on_c, 0, 72, 0
5, 71996, Note_on_c, 0, 72, 53
5, 72012, Note_on_c, 0, 72, 0
5, 72018, Note_on_c, 0, 74, 68
5, 72031, Note_on_c, 0, 74, 0
5, 72031, Note_on_c, 0, 65, 40
5, 72034, Note_on_c, 0, 62, 39
5, 72037, Note_on_c, 0, 74, 60
5, 72038, Note_on_c, 0, 65, 0
5, 72054, Note_on_c, 0, 76, 73
5, 72056, Note_on_c, 0, 74, 0
5, 72063, Note_on_c, 0, 62, 0
5, 72073, Note_on_c, 0, 76, 0
5, 72078, Note_on_c, 0, 76, 62
5, 72093, Note_on_c, 0, 62, 33
5, 72096, Note_on_c, 0, 77, 68
5, 72098, Note_on_c, 0, 76, 0
5, 72110, Note_on_c, 0, 77, 0
5, 72112, Note_on_c, 0, 62, 0
5, 72116, Note_on_c, 0, 77, 59
5, 72134, Note_on_c, 0, 77, 0
5, 72135, Note_on_c, 0, 79, 63
5, 72149, Note_on_c, 0, 79, 0
5, 72156, Note_on_c, 0, 79, 58
5, 72158, Note_on_c, 0, 65, 45
5, 72163, Note_on_c, 0, 62, 31
5, 72165, Note_on_c, 0, 65, 0
5, 72173, Note_on_c, 0, 62, 0
5, 72173, Note_on_c, 0, 79, 0
5, 72175, Note_on_c, 0, 81, 55
5, 72193, Note_on_c, 0, 81, 0
5, 72201, Note_on_c, 0, 81, 29
5, 72219, Note_on_c, 0, 81, 0
5, 72235, Note_on_c, 0, 62, 59
5, 72236, Note_on_c, 0, 65, 55
5, 72241, Note_on_c, 0, 56, 38
5, 72304, Note_on_c, 0, 65, 0
5, 72312, Note_on_c, 0, 56, 0
5, 72327, Note_on_c, 0, 77, 62
5, 72330, Note_on_c, 0, 65, 40
5, 72337, Note_on_c, 0, 65, 0
5, 72341, Note_on_c, 0, 80, 35
5, 72346, Note_on_c, 0, 62, 0
5, 72347, Note_on_c, 0, 77, 0
5, 72356, Note_on_c, 0, 80, 0
5, 72358, Note_on_c, 0, 83, 37
5, 72370, Note_on_c, 0, 83, 0
5, 72372, Note_on_c, 0, 86, 63
5, 72378, Note_on_c, 0, 86, 0
5, 72389, Note_on_c, 0, 62, 42
5, 72393, Note_on_c, 0, 89, 55
5, 72398, Note_on_c, 0, 56, 19
5, 72403, Note_on_c, 0, 92, 49
5, 72412, Note_on_c, 0, 56, 0
5, 72412, Note_on_c, 0, 62, 0
5, 72414, Note_on_c, 0, 89, 0
5, 72429, Note_on_c, 0, 92, 0
5, 72434, Note_on_c, 0, 95, 36
5, 72446, Note_on_c, 0, 95, 0
5, 72449, Note_on_c, 0, 98, 90
5, 72472, Note_on_c, 0, 96, 83
5, 72487, Note_on_c, 0, 98, 0
5, 72530, Note_on_c, 0, 96, 0
5, 72539, Note_on_c, 0, 95, 77
5, 72568, Note_on_c, 0, 95, 0
5, 72570, Note_on_c, 0, 92, 74
5, 72593, Note_on_c, 0, 92, 0
5, 72598, Note_on_c, 0, 89, 58
5, 72617, Note_on_c, 0, 89, 0
5, 72633, Note_on_c, 0, 86, 72
5, 72644, Note_on_c, 0, 59, 28
5, 72648, Note_on_c, 0, 86, 0
5, 72657, Note_on_c, 0, 59, 0
5, 72663, Note_on_c, 0, 83, 34
5, 72699, Note_on_c, 0, 83, 0
5, 72699, Note_on_c, 0, 81, 31
5, 72708, Note_on_c, 0, 81, 0
5, 72718, Note_on_c, 0, 89, 74
5, 72753, Note_on_c, 0, 89, 0
5, 72764, Note_on_c, 0, 86, 35
5, 72770, Note_on_c, 0, 86, 0
5, 72782, Note_on_c, 0, 88, 71
5, 72785, Note_on_c, 0, 89, 45
5, 72785, Note_on_c, 0, 64, 33
5, 72785, Note_on_c, 0, 60, 39
5, 72787, Note_on_c, 0, 55, 36
5, 72791, Note_on_c, 0, 89, 0
5, 72812, Note_on_c, 0, 64, 0
5, 72819, Note_on_c, 0, 84, 63
5, 72829, Note_on_c, 0, 88, 0
5, 72836, Note_on_c, 0, 84, 0
5, 72839, Note_on_c, 0, 55, 0
5, 72843, Note_on_c, 0, 60, 0
5, 72847, Note_on_c, 0, 79, 37
5, 72869, Note_on_c, 0, 79, 0
5, 72877, Note_on_c, 0, 77, 67
5, 72884, Note_on_c, 0, 60, 31
5, 72893, Note_on_c, 0, 60, 0
5, 72903, Note_on_c, 0, 77, 0
5, 72937, Note_on_c, 0, 58, 37
5, 72957, Note_on_c, 0, 64, 53
5, 72958, Note_on_c, 0, 84, 81
5, 72961, Note_on_c, 0, 76, 60
5, 72983, Note_on_c, 0, 84, 0
5, 72988, Note_on_c, 0, 76, 0
5, 73030, Note_on_c, 0, 64, 0
5, 73036, Note_on_c, 0, 58, 0
5, 73052, Note_on_c, 0, 64, 39
5, 73052, Note_on_c, 0, 58, 43
5, 73063, Note_on_c, 0, 64, 0
5, 73080, Note_on_c, 0, 58, 0
5, 73093, Note_on_c, 0, 82, 43
5, 73100, Note_on_c, 0, 80, 35
5, 73115, Note_on_c, 0, 82, 0
5, 73115, Note_on_c, 0, 78, 46
5, 73121, Note_on_c, 0, 80, 0
5, 73131, Note_on_c, 0, 78, 0
5, 73138, Note_on_c, 0, 76, 39
5, 73148, Note_on_c, 0, 76, 0
5, 73152, Note_on_c, 0, 75, 52
5, 73172, Note_on_c, 0, 74, 65
5, 73177, Note_on_c, 0, 75, 0
5, 73190, Note_on_c, 0, 74, 0
5, 73193, Note_on_c, 0, 73, 49
5, 73209, Note_on_c, 0, 73, 0
5, 73213, Note_on_c, 0, 72, 50
5, 73224, Note_on_c, 0, 72, 0
5, 73236, Note_on_c, 0, 70, 55
5, 73255, Note_on_c, 0, 68, 29
5, 73258, Note_on_c, 0, 70, 0
5, 73262, Note_on_c, 0, 66, 51
5, 73265, Note_on_c, 0, 68, 0
5, 73273, Note_on_c, 0, 66, 0
5, 73282, Note_on_c, 0, 64, 50
5, 73289, Note_on_c, 0, 64, 0
5, 73300, Note_on_c, 0, 63, 26
5, 73306, Note_on_c, 0, 63, 0
5, 73310, Note_on_c, 0, 62, 47
5, 73327, Note_on_c, 0, 62, 0
5, 73329, Note_on_c, 0, 61, 58
5, 73345, Note_on_c, 0, 61, 0
5, 73348, Note_on_c, 0, 60, 54
5, 73357, Note_on_c, 0, 60, 0
5, 73375, Note_on_c, 0, 56, 32
5, 73389, Note_on_c, 0, 54, 46
5, 73398, Note_on_c, 0, 56, 0
5, 73398, Note_on_c, 0, 44, 8
5, 73409, Note_on_c, 0, 52, 51
5, 73417, Note_on_c, 0, 54, 0
5, 73424, Note_on_c, 0, 51, 55
5, 73429, Note_on_c, 0, 52, 0
5, 73437, Note_on_c, 0, 44, 0
5, 73438, Note_on_c, 0, 51, 0
5, 73442, Note_on_c, 0, 45, 70
5, 73497, Note_on_c, 0, 45, 0
5, 73520, Note_on_c, 0, 66, 28
5, 73535, Note_on_c, 0, 66, 0
5, 73539, Note_on_c, 0, 50, 35
5, 73546, Note_on_c, 0, 62, 68
5, 73546, Note_on_c, 0, 67, 67
5, 73547, Note_on_c, 0, 50, 0
5, 73547, Note_on_c, 0, 57, 68
5, 73553, Note_on_c, 0, 57, 0
5, 73555, Note_on_c, 0, 53, 52
5, 73557, Note_on_c, 0, 62, 0
5, 73563, Note_on_c, 0, 67, 0
5, 73568, Note_on_c, 0, 53, 0
5, 73605, Note_on_c, 0, 52, 43
5, 73620, Note_on_c, 0, 52, 0
5, 73625, Note_on_c, 0, 67, 60
5, 73626, Note_on_c, 0, 62, 66
5, 73626, Note_on_c, 0, 57, 57
5, 73628, Note_on_c, 0, 53, 39
5, 73698, Note_on_c, 0, 53, 0
5, 73729, Note_on_c, 0, 57, 0
5, 73731, Note_on_c, 0, 50, 40
5, 73740, Note_on_c, 0, 50, 0
5, 73746, Note_on_c, 0, 57, 33
5, 73747, Note_on_c, 0, 52, 41
5, 73786, Note_on_c, 0, 57, 0
5, 73841, Note_on_c, 0, 62, 0
5, 73844, Note_on_c, 0, 52, 0
5, 73862, Note_on_c, 0, 62, 41
5, 73870, Note_on_c, 0, 67, 0
5, 73894, Note_on_c, 0, 62, 0
5, 73898, Note_on_c, 0, 67, 84
5, 73919, Note_on_c, 0, 56, 32
5, 73921, Note_on_c, 0, 62, 62
5, 73928, Note_on_c, 0, 67, 0
5, 73928, Note_on_c, 0, 46, 20
5, 73936, Note_on_c, 0, 63, 50
5, 73947, Note_on_c, 0, 63, 0
5, 73947, Note_on_c, 0, 62, 0
5, 73953, Note_on_c, 0, 64, 34
5, 73970, Note_on_c, 0, 64, 0
5, 73977, Note_on_c, 0, 53, 24
5, 73979, Note_on_c, 0, 60, 39
5, 73983, Note_on_c, 0, 56, 0
5, 73999, Note_on_c, 0, 46, 0
5, 74001, Note_on_c, 0, 60, 0
5, 74006, Note_on_c, 0, 53, 0
5, 74028, Note_on_c, 0, 62, 62
5, 74066, Note_on_c, 0, 62, 0
5, 74080, Note_on_c, 0, 57, 49
5, 74083, Note_on_c, 0, 53, 28
5, 74089, Note_on_c, 0, 57, 0
5, 74094, Note_on_c, 0, 53, 0
5, 74105, Note_on_c, 0, 60, 48
5, 74134, Note_on_c, 0, 60, 0
5, 74198, Note_on_c, 0, 56, 36
5, 74201, Note_on_c, 0, 46, 25
5, 74214, Note_on_c, 0, 56, 0
5, 74215, Note_on_c, 0, 46, 0
5, 74260, Note_on_c, 0, 56, 53
5, 74261, Note_on_c, 0, 46, 42
5, 74270, Note_on_c, 0, 56, 0
5, 74274, Note_on_c, 0, 46, 0
5, 74279, Note_on_c, 0, 90, 64
5, 74282, Note_on_c, 0, 85, 64
5, 74282, Note_on_c, 0, 78, 56
5, 74305, Note_on_c, 0, 85, 0
5, 74308, Note_on_c, 0, 78, 0
5, 74308, Note_on_c, 0, 90, 0
5, 74314, Note_on_c, 0, 91, 67
5, 74316, Note_on_c, 0, 79, 51
5, 74317, Note_on_c, 0, 86, 65
5, 74325, Note_on_c, 0, 86, 0
5, 74328, Note_on_c, 0, 79, 0
5, 74329, Note_on_c, 0, 91, 0
5, 74341, Note_on_c, 0, 91, 43
5, 74343, Note_on_c, 0, 86, 52
5, 74343, Note_on_c, 0, 79, 34
5, 74354, Note_on_c, 0, 86, 0
5, 74355, Note_on_c, 0, 91, 0
5, 74357, Note_on_c, 0, 79, 0
5, 74372, Note_on_c, 0, 91, 60
5, 74374, Note_on_c, 0, 79, 58
5, 74375, Note_on_c, 0, 86, 69
5, 74381, Note_on_c, 0, 62, 50
5, 74382, Note_on_c, 0, 79, 0
5, 74384, Note_on_c, 0, 59, 40
5, 74385, Note_on_c, 0, 91, 0
5, 74387, Note_on_c, 0, 55, 38
5, 74388, Note_on_c, 0, 62, 0
5, 74391, Note_on_c, 0, 86, 0
5, 74394, Note_on_c, 0, 59, 0
5, 74396, Note_on_c, 0, 55, 0
5, 74401, Note_on_c, 0, 78, 48
5, 74402, Note_on_c, 0, 90, 47
5, 74404, Note_on_c, 0, 86, 54
5, 74412, Note_on_c, 0, 86, 0
5, 74422, Note_on_c, 0, 90, 0
5, 74423, Note_on_c, 0, 78, 0
5, 74437, Note_on_c, 0, 79, 44
5, 74437, Note_on_c, 0, 91, 50
5, 74437, Note_on_c, 0, 86, 51
5, 74445, Note_on_c, 0, 91, 0
5, 74452, Note_on_c, 0, 86, 0
5, 74452, Note_on_c, 0, 79, 0
5, 74462, Note_on_c, 0, 91, 57
5, 74463, Note_on_c, 0, 79, 32
5, 74467, Note_on_c, 0, 86, 55
5, 74474, Note_on_c, 0, 86, 0
5, 74476, Note_on_c, 0, 79, 0
5, 74478, Note_on_c, 0, 91, 0
5, 74495, Note_on_c, 0, 91, 48
5, 74497, Note_on_c, 0, 79, 33
5, 74498, Note_on_c, 0, 86, 45
5, 74506, Note_on_c, 0, 86, 0
5, 74506, Note_on_c, 0, 91, 0
5, 74509, Note_on_c, 0, 79, 0
5, 74511, Note_on_c, 0, 62, 51
5, 74518, Note_on_c, 0, 55, 29
5, 74521, Note_on_c, 0, 91, 37
5, 74522, Note_on_c, 0, 59, 19
5, 74522, Note_on_c, 0, 79, 29
5, 74524, Note_on_c, 0, 86, 42
5, 74529, Note_on_c, 0, 55, 0
5, 74530, Note_on_c, 0, 62, 0
5, 74541, Note_on_c, 0, 59, 0
5, 74542, Note_on_c, 0, 91, 0
5, 74542, Note_on_c, 0, 86, 0
5, 74548, Note_on_c, 0, 79, 0
5, 74577, Note_on_c, 0, 91, 60
5, 74580, Note_on_c, 0, 79, 44
5, 74580, Note_on_c, 0, 86, 59
5, 74600, Note_on_c, 0, 79, 0
5, 74601, Note_on_c, 0, 86, 0
5, 74602, Note_on_c, 0, 91, 0
5, 74640, Note_on_c, 0, 90, 50
5, 74640, Note_on_c, 0, 62, 46
5, 74641, Note_on_c, 0, 78, 44
5, 74641, Note_on_c, 0, 86, 64
5, 74644, Note_on_c, 0, 55, 48
5, 74646, Note_on_c, 0, 59, 36
5, 74647, Note_on_c, 0, 62, 0
5, 74660, Note_on_c, 0, 78, 0
5, 74661, Note_on_c, 0, 59, 0
5, 74662, Note_on_c, 0, 86, 0
5, 74663, Note_on_c, 0, 90, 0
5, 74667, Note_on_c, 0, 55, 0
5, 74678, Note_on_c, 0, 86, 51
5, 74678, Note_on_c, 0, 91, 50
5, 74678, Note_on_c, 0, 79, 50
5, 74691, Note_on_c, 0, 79, 0
5, 74693, Note_on_c, 0, 86, 0
5, 74695, Note_on_c, 0, 91, 0
5, 74737, Note_on_c, 0, 62, 38
5, 74737, Note_on_c, 0, 59, 45
5, 74740, Note_on_c, 0, 55, 44
5, 74743, Note_on_c, 0, 52, 22
5, 74749, Note_on_c, 0, 62, 0
5, 74750, Note_on_c, 0, 59, 0
5, 74750, Note_on_c, 0, 52, 0
5, 74751, Note_on_c, 0, 55, 0
5, 74804, Note_on_c, 0, 59, 39
5, 74805, Note_on_c, 0, 55, 39
5, 74805, Note_on_c, 0, 62, 26
5, 74811, Note_on_c, 0, 62, 0
5, 74812, Note_on_c, 0, 55, 0
5, 74812, Note_on_c, 0, 59, 0
5, 74823, Note_on_c, 0, 100, 80
5, 74845, Note_on_c, 0, 100, 0
5, 74856, Note_on_c, 0, 91, 65
5, 74856, Note_on_c, 0, 100, 62
5, 74857, Note_on_c, 0, 103, 69
5, 74858, Note_on_c, 0, 96, 58
5, 74863, Note_on_c, 0, 64, 49
5, 74863, Note_on_c, 0, 53, 28
5, 74864, Note_on_c, 0, 96, 0
5, 74868, Note_on_c, 0, 57, 48
5, 74868, Note_on_c, 0, 60, 47
5, 74869, Note_on_c, 0, 91, 0
5, 74872, Note_on_c, 0, 100, 0
5, 74873, Note_on_c, 0, 103, 0
5, 74877, Note_on_c, 0, 64, 0
5, 74877, Note_on_c, 0, 53, 0
5, 74877, Note_on_c, 0, 57, 0
5, 74878, Note_on_c, 0, 60, 0
5, 74883, Note_on_c, 0, 91, 47
5, 74884, Note_on_c, 0, 103, 62
5, 74886, Note_on_c, 0, 100, 46
5, 74888, Note_on_c, 0, 96, 60
5, 74906, Note_on_c, 0, 96, 0
5, 74910, Note_on_c, 0, 91, 0
5, 74910, Note_on_c, 0, 103, 0
5, 74916, Note_on_c, 0, 100, 0
5, 74938, Note_on_c, 0, 100, 54
5, 74938, Note_on_c, 0, 103, 55
5, 74939, Note_on_c, 0, 91, 45
5, 74940, Note_on_c, 0, 96, 51
5, 74954, Note_on_c, 0, 96, 0
5, 74955, Note_on_c, 0, 91, 0
5, 74960, Note_on_c, 0, 103, 0
5, 74960, Note_on_c, 0, 100, 0
5, 74996, Note_on_c, 0, 64, 38
5, 74997, Note_on_c, 0, 93, 53
5, 74998, Note_on_c, 0, 100, 36
5, 74998, Note_on_c, 0, 88, 51
5, 75000, Note_on_c, 0, 60, 38
5, 75001, Note_on_c, 0, 57, 37
5, 75006, Note_on_c, 0, 88, 0
5, 75006, Note_on_c, 0, 93, 0
5, 75010, Note_on_c, 0, 60, 0
5, 75011, Note_on_c, 0, 64, 0
5, 75011, Note_on_c, 0, 57, 0
5, 75014, Note_on_c, 0, 100, 0
5, 75095, Note_on_c, 0, 64, 27
5, 75096, Note_on_c, 0, 53, 29
5, 75097, Note_on_c, 0, 57, 36
5, 75098, Note_on_c, 0, 60, 40
5, 75109, Note_on_c, 0, 53, 0
5, 75110, Note_on_c, 0, 64, 0
5, 75110, Note_on_c, 0, 60, 0
5, 75119, Note_on_c, 0, 57, 0
5, 75177, Note_on_c, 0, 64, 40
5, 75180, Note_on_c, 0, 60, 38
5, 75181, Note_on_c, 0, 57, 40
5, 75221, Note_on_c, 0, 64, 0
5, 75223, Note_on_c, 0, 60, 0
5, 75230, Note_on_c, 0, 57, 0
5, 75276, Note_on_c, 0, 64, 47
5, 75277, Note_on_c, 0, 53, 36
5, 75279, Note_on_c, 0, 60, 36
5, 75286, Note_on_c, 0, 64, 0
5, 75287, Note_on_c, 0, 60, 0
5, 75299, Note_on_c, 0, 53, 0
5, 75356, Note_on_c, 0, 62, 47
5, 75356, Note_on_c, 0, 74, 61
5, 75357, Note_on_c, 0, 67, 60
5, 75357, Note_on_c, 0, 59, 35
5, 75358, Note_on_c, 0, 79, 45
5, 75360, Note_on_c, 0, 55, 45
5, 75360, Note_on_c, 0, 52, 22
5, 75363, Note_on_c, 0, 67, 0
5, 75364, Note_on_c, 0, 62, 0
5, 75365, Note_on_c, 0, 74, 0
5, 75366, Note_on_c, 0, 79, 0
5, 75366, Note_on_c, 0, 59, 0
5, 75367, Note_on_c, 0, 55, 0
5, 75368, Note_on_c, 0, 52, 0
5, 75419, Note_on_c, 0, 74, 73
5, 75419, Note_on_c, 0, 59, 56
5, 75419, Note_on_c, 0, 79, 63
5, 75420, Note_on_c, 0, 62, 62
5, 75420, Note_on_c, 0, 67, 74
5, 75422, Note_on_c, 0, 52, 33
5, 75424, Note_on_c, 0, 55, 30
5, 75426, Note_on_c, 0, 67, 0
5, 75426, Note_on_c, 0, 62, 0
5, 75428, Note_on_c, 0, 74, 0
5, 75428, Note_on_c, 0, 59, 0
5, 75429, Note_on_c, 0, 52, 0
5, 75431, Note_on_c, 0, 55, 0
5, 75432, Note_on_c, 0, 79, 0
5, 75482, Note_on_c, 0, 79, 74
5, 75483, Note_on_c, 0, 59, 79
5, 75483, Note_on_c, 0, 74, 83
5, 75483, Note_on_c, 0, 67, 90
5, 75484, Note_on_c, 0, 62, 78
5, 75485, Note_on_c, 0, 52, 73
5, 75486, Note_on_c, 0, 55, 61
5, 75495, Note_on_c, 0, 67, 0
5, 75498, Note_on_c, 0, 62, 0
5, 75501, Note_on_c, 0, 79, 0
5, 75503, Note_on_c, 0, 74, 0
5, 75505, Note_on_c, 0, 59, 0
5, 75508, Note_on_c, 0, 55, 0
5, 75511, Note_on_c, 0, 52, 0
5, 75515, Note_on_c, 0, 74, 64
5, 75517, Note_on_c, 0, 79, 29
5, 75517, Note_on_c, 0, 67, 51
5, 75521, Note_on_c, 0, 52, 12
5, 75525, Note_on_c, 0, 79, 0
5, 75527, Note_on_c, 0, 67, 0
5, 75527, Note_on_c, 0, 59, 24
5, 75527, Note_on_c, 0, 55, 30
5, 75530, Note_on_c, 0, 74, 0
5, 75530, Note_on_c, 0, 62, 25
5, 75536, Note_on_c, 0, 67, 47
5, 75537, Note_on_c, 0, 79, 42
5, 75539, Note_on_c, 0, 74, 44
5, 75547, Note_on_c, 0, 59, 0
5, 75548, Note_on_c, 0, 55, 0
5, 75548, Note_on_c, 0, 52, 0
5, 75549, Note_on_c, 0, 67, 0
5, 75553, Note_on_c, 0, 74, 0
5, 75557, Note_on_c, 0, 79, 0
5, 75557, Note_on_c, 0, 62, 0
5, 75600, Note_on_c, 0, 65, 60
5, 75602, Note_on_c, 0, 77, 46
5, 75602, Note_on_c, 0, 72, 62
5, 75602, Note_on_c, 0, 61, 44
5, 75603, Note_on_c, 0, 55, 33
5, 75604, Note_on_c, 0, 84, 44
5, 75608, Note_on_c, 0, 72, 0
5, 75611, Note_on_c, 0, 55, 0
5, 75612, Note_on_c, 0, 65, 0
5, 75612, Note_on_c, 0, 77, 0
5, 75612, Note_on_c, 0, 84, 0
5, 75616, Note_on_c, 0, 61, 0
5, 75660, Note_on_c, 0, 65, 78
5, 75660, Note_on_c, 0, 61, 71
5, 75661, Note_on_c, 0, 55, 73
5, 75661, Note_on_c, 0, 77, 79
5, 75662, Note_on_c, 0, 81, 71
5, 75662, Note_on_c, 0, 84, 78
5, 75662, Note_on_c, 0, 72, 79
5, 75669, Note_on_c, 0, 55, 0
5, 75672, Note_on_c, 0, 72, 0
5, 75673, Note_on_c, 0, 65, 0
5, 75673, Note_on_c, 0, 84, 0
5, 75674, Note_on_c, 0, 77, 0
5, 75675, Note_on_c, 0, 81, 0
5, 75676, Note_on_c, 0, 61, 0
5, 75724, Note_on_c, 0, 61, 82
5, 75725, Note_on_c, 0, 77, 85
5, 75725, Note_on_c, 0, 55, 92
5, 75725, Note_on_c, 0, 81, 83
5, 75725, Note_on_c, 0, 72, 94
5, 75725, Note_on_c, 0, 84, 89
5, 75725, Note_on_c, 0, 65, 89
5, 75734, Note_on_c, 0, 72, 0
5, 75735, Note_on_c, 0, 65, 0
5, 75740, Note_on_c, 0, 55, 0
5, 75740, Note_on_c, 0, 77, 0
5, 75743, Note_on_c, 0, 84, 0
5, 75746, Note_on_c, 0, 81, 0
5, 75750, Note_on_c, 0, 61, 0
5, 75759, Note_on_c, 0, 81, 62
5, 75759, Note_on_c, 0, 84, 58
5, 75760, Note_on_c, 0, 55, 72
5, 75760, Note_on_c, 0, 77, 62
5, 75761, Note_on_c, 0, 65, 68
5, 75761, Note_on_c, 0, 72, 50
5, 75761, Note_on_c, 0, 61, 68
5, 75770, Note_on_c, 0, 65, 0
5, 75771, Note_on_c, 0, 72, 0
5, 75773, Note_on_c, 0, 84, 0
5, 75774, Note_on_c, 0, 77, 0
5, 75777, Note_on_c, 0, 81, 0
5, 75782, Note_on_c, 0, 84, 31
5, 75784, Note_on_c, 0, 77, 48
5, 75785, Note_on_c, 0, 72, 33
5, 75786, Note_on_c, 0, 65, 53
5, 75786, Note_on_c, 0, 81, 35
5, 75792, Note_on_c, 0, 72, 0
5, 75793, Note_on_c, 0, 65, 0
5, 75795, Note_on_c, 0, 77, 0
5, 75795, Note_on_c, 0, 81, 0
5, 75798, Note_on_c, 0, 55, 0
5, 75800, Note_on_c, 0, 84, 0
5, 75811, Note_on_c, 0, 61, 0
5, 75825, Note_on_c, 0, 91, 73
5, 75825, Note_on_c, 0, 79, 64
5, 75825, Note_on_c, 0, 60, 65
5, 75825, Note_on_c, 0, 84, 68
5, 75826, Note_on_c, 0, 64, 64
5, 75826, Note_on_c, 0, 53, 46
5, 75827, Note_on_c, 0, 57, 58
5, 75828, Note_on_c, 0, 88, 39
5, 75831, Note_on_c, 0, 84, 0
5, 75831, Note_on_c, 0, 79, 0
5, 75832, Note_on_c, 0, 64, 0
5, 75834, Note_on_c, 0, 60, 0
5, 75835, Note_on_c, 0, 88, 0
5, 75836, Note_on_c, 0, 91, 0
5, 75836, Note_on_c, 0, 53, 0
5, 75841, Note_on_c, 0, 57, 0
5, 75900, Note_on_c, 0, 60, 68
5, 75900, Note_on_c, 0, 53, 64
5, 75900, Note_on_c, 0, 64, 62
5, 75901, Note_on_c, 0, 91, 74
5, 75901, Note_on_c, 0, 79, 70
5, 75901, Note_on_c, 0, 84, 74
5, 75901, Note_on_c, 0, 57, 53
5, 75902, Note_on_c, 0, 88, 64
5, 75903, Note_on_c, 0, 62, 54
5, 75906, Note_on_c, 0, 79, 0
5, 75907, Note_on_c, 0, 53, 0
5, 75907, Note_on_c, 0, 84, 0
5, 75908, Note_on_c, 0, 57, 0
5, 75908, Note_on_c, 0, 88, 0
5, 75908, Note_on_c, 0, 60, 0
5, 75908, Note_on_c, 0, 64, 0
5, 75909, Note_on_c, 0, 62, 0
5, 75909, Note_on_c, 0, 91, 0
5, 75960, Note_on_c, 0, 53, 72
5, 75961, Note_on_c, 0, 60, 72
5, 75961, Note_on_c, 0, 64, 74
5, 75962, Note_on_c, 0, 91, 78
5, 75962, Note_on_c, 0, 57, 59
5, 75963, Note_on_c, 0, 79, 81
5, 75963, Note_on_c, 0, 88, 71
5, 75963, Note_on_c, 0, 84, 80
5, 75968, Note_on_c, 0, 84, 0
5, 75968, Note_on_c, 0, 57, 0
5, 75968, Note_on_c, 0, 64, 0
5, 75969, Note_on_c, 0, 60, 0
5, 75969, Note_on_c, 0, 88, 0
5, 75971, Note_on_c, 0, 79, 0
5, 75974, Note_on_c, 0, 53, 0
5, 75975, Note_on_c, 0, 91, 0
5, 75994, Note_on_c, 0, 64, 60
5, 75995, Note_on_c, 0, 60, 62
5, 75996, Note_on_c, 0, 57, 54
5, 75996, Note_on_c, 0, 53, 36
5, 75999, Note_on_c, 0, 79, 51
5, 76000, Note_on_c, 0, 91, 56
5, 76000, Note_on_c, 0, 84, 53
5, 76001, Note_on_c, 0, 64, 0
5, 76001, Note_on_c, 0, 88, 45
5, 76005, Note_on_c, 0, 53, 0
5, 76005, Note_on_c, 0, 60, 0
5, 76006, Note_on_c, 0, 91, 0
5, 76006, Note_on_c, 0, 79, 0
5, 76006, Note_on_c, 0, 84, 0
5, 76007, Note_on_c, 0, 57, 0
5, 76008, Note_on_c, 0, 88, 0
5, 76018, Note_on_c, 0, 64, 58
5, 76018, Note_on_c, 0, 60, 64
5, 76019, Note_on_c, 0, 91, 47
5, 76020, Note_on_c, 0, 79, 39
5, 76021, Note_on_c, 0, 57, 33
5, 76021, Note_on_c, 0, 88, 40
5, 76022, Note_on_c, 0, 53, 22
5, 76022, Note_on_c, 0, 84, 40
5, 76026, Control_c, 0, 64, 127
5, 76027, Note_on_c, 0, 84, 0
5, 76027, Note_on_c, 0, 79, 0
5, 76029, Note_on_c, 0, 88, 0
5, 76032, Note_on_c, 0, 64, 0
5, 76032, Note_on_c, 0, 60, 0
5, 76035, Note_on_c, 0, 91, 0
5, 76036, Note_on_c, 0, 53, 0
5, 76039, Note_on_c, 0, 57, 0
5, 76047, Control_c, 0, 64, 0
5, 76059, Note_on_c, 0, 87, 65
5, 76059, Note_on_c, 0, 64, 74
5, 76059, Note_on_c, 0, 99, 79
5, 76059, Note_on_c, 0, 53, 68
5, 76059, Note_on_c, 0, 59, 71
5, 76064, Note_on_c, 0, 64, 0
5, 76065, Note_on_c, 0, 87, 0
5, 76065, Note_on_c, 0, 59, 0
5, 76065, Note_on_c, 0, 99, 0
5, 76068, Note_on_c, 0, 53, 0
5, 76137, Note_on_c, 0, 64, 77
5, 76138, Note_on_c, 0, 53, 74
5, 76138, Note_on_c, 0, 99, 80
5, 76139, Note_on_c, 0, 87, 79
5, 76139, Note_on_c, 0, 59, 59
5, 76175, Control_c, 0, 64, 127
5, 76189, Note_on_c, 0, 99, 0
5, 76193, Note_on_c, 0, 87, 0
5, 76201, Note_on_c, 0, 64, 0
5, 76204, Note_on_c, 0, 53, 0
5, 76210, Note_on_c, 0, 59, 0
5, 76233, Control_c, 0, 64, 0
5, 76235, Note_on_c, 0, 83, 57
5, 76235, Note_on_c, 0, 95, 61
5, 76236, Note_on_c, 0, 63, 57
5, 76238, Note_on_c, 0, 59, 53
5, 76239, Note_on_c, 0, 53, 36
5, 76240, Note_on_c, 0, 56, 35
5, 76259, Control_c, 0, 64, 127
5, 76270, Note_on_c, 0, 83, 0
5, 76276, Note_on_c, 0, 95, 0
5, 76278, Note_on_c, 0, 53, 0
5, 76278, Note_on_c, 0, 63, 0
5, 76282, Note_on_c, 0, 56, 0
5, 76290, Note_on_c, 0, 59, 0
5, 76316, Control_c, 0, 64, 0
5, 76319, Note_on_c, 0, 98, 74
5, 76320, Note_on_c, 0, 86, 67
5, 76321, Note_on_c, 0, 52, 50
5, 76321, Note_on_c, 0, 62, 55
5, 76321, Note_on_c, 0, 59, 46
5, 76322, Note_on_c, 0, 55, 57
5, 76323, Note_on_c, 0, 93, 66
5, 76361, Control_c, 0, 64, 127
5, 76377, Note_on_c, 0, 98, 0
5, 76380, Note_on_c, 0, 93, 0
5, 76381, Note_on_c, 0, 62, 0
5, 76382, Note_on_c, 0, 52, 0
5, 76384, Note_on_c, 0, 86, 0
5, 76384, Note_on_c, 0, 55, 0
5, 76385, Note_on_c, 0, 59, 0
5, 76405, Control_c, 0, 64, 0
5, 76410, Note_on_c, 0, 96, 64
5, 76413, Note_on_c, 0, 62, 53
5, 76413, Note_on_c, 0, 84, 55
5, 76413, Note_on_c, 0, 52, 43
5, 76414, Note_on_c, 0, 59, 51
5, 76415, Control_c, 0, 64, 127
5, 76415, Note_on_c, 0, 55, 55
5, 76454, Note_on_c, 0, 55, 0
5, 76455, Note_on_c, 0, 62, 0
5, 76455, Note_on_c, 0, 59, 0
5, 76457, Note_on_c, 0, 52, 0
5, 76500, Note_on_c, 0, 62, 64
5, 76500, Note_on_c, 0, 59, 46
5, 76501, Note_on_c, 0, 52, 51
5, 76501, Note_on_c, 0, 55, 58
5, 76504, Note_on_c, 0, 84, 0
5, 76523, Note_on_c, 0, 96, 0
5, 76528, Control_c, 0, 64, 0
5, 76579, Note_on_c, 0, 59, 0
5, 76603, Note_on_c, 0, 59, 32
5, 76622, Note_on_c, 0, 62, 0
5, 76626, Note_on_c, 0, 96, 95
5, 76631, Note_on_c, 0, 59, 0
5, 76641, Note_on_c, 0, 52, 0
5, 76643, Note_on_c, 0, 55, 0
5, 76654, Note_on_c, 0, 96, 0
5, 76658, Note_on_c, 0, 99, 60
5, 76674, Note_on_c, 0, 96, 45
5, 76678, Note_on_c, 0, 99, 0
5, 76686, Note_on_c, 0, 92, 49
5, 76689, Note_on_c, 0, 96, 0
5, 76705, Note_on_c, 0, 92, 0
5, 76721, Note_on_c, 0, 92, 74
5, 76724, Note_on_c, 0, 63, 59
5, 76726, Note_on_c, 0, 58, 55
5, 76733, Note_on_c, 0, 63, 0
5, 76739, Note_on_c, 0, 58, 0
5, 76741, Note_on_c, 0, 92, 0
5, 76746, Note_on_c, 0, 96, 37
5, 76761, Note_on_c, 0, 92, 47
5, 76769, Note_on_c, 0, 96, 0
5, 76782, Note_on_c, 0, 92, 0
5, 76803, Note_on_c, 0, 63, 61
5, 76804, Note_on_c, 0, 58, 52
5, 76805, Note_on_c, 0, 92, 74
5, 76807, Note_on_c, 0, 87, 76
5, 76811, Note_on_c, 0, 52, 30
5, 76874, Note_on_c, 0, 52, 0
5, 76877, Note_on_c, 0, 63, 0
5, 76885, Note_on_c, 0, 58, 0
5, 76887, Note_on_c, 0, 92, 0
5, 76887, Note_on_c, 0, 87, 0
5, 76897, Note_on_c, 0, 84, 68
5, 76897, Note_on_c, 0, 63, 63
5, 76899, Note_on_c, 0, 58, 46
5, 76902, Note_on_c, 0, 52, 43
5, 76917, Note_on_c, 0, 84, 0
5, 76921, Note_on_c, 0, 52, 0
5, 76935, Note_on_c, 0, 58, 0
5, 76937, Note_on_c, 0, 63, 0
5, 76983, Note_on_c, 0, 63, 67
5, 76984, Note_on_c, 0, 84, 74
5, 76986, Note_on_c, 0, 80, 55
5, 76986, Note_on_c, 0, 58, 53
5, 76987, Note_on_c, 0, 52, 56
5, 76987, Note_on_c, 0, 75, 67
5, 77029, Note_on_c, 0, 84, 0
5, 77034, Control_c, 0, 64, 127
5, 77036, Note_on_c, 0, 80, 0
5, 77043, Note_on_c, 0, 75, 0
5, 77048, Note_on_c, 0, 52, 0
5, 77052, Note_on_c, 0, 63, 0
5, 77059, Note_on_c, 0, 58, 0
5, 77074, Note_on_c, 0, 80, 65
5, 77074, Note_on_c, 0, 75, 74
5, 77076, Note_on_c, 0, 63, 67
5, 77076, Note_on_c, 0, 72, 66
5, 77078, Note_on_c, 0, 58, 57
5, 77078, Note_on_c, 0, 52, 56
5, 77098, Note_on_c, 0, 80, 0
5, 77102, Note_on_c, 0, 75, 0
5, 77103, Note_on_c, 0, 72, 0
5, 77124, Note_on_c, 0, 52, 0
5, 77125, Note_on_c, 0, 63, 0
5, 77130, Note_on_c, 0, 58, 0
5, 77159, Note_on_c, 0, 75, 67
5, 77160, Note_on_c, 0, 72, 64
5, 77160, Note_on_c, 0, 68, 67
5, 77160, Note_on_c, 0, 63, 64
5, 77161, Note_on_c, 0, 58, 60
5, 77164, Control_c, 0, 64, 0
5, 77196, Note_on_c, 0, 63, 0
5, 77199, Note_on_c, 0, 72, 0
5, 77201, Control_c, 0, 64, 127
5, 77202, Note_on_c, 0, 75, 0
5, 77204, Note_on_c, 0, 68, 0
5, 77220, Note_on_c, 0, 52, 58
5, 77227, Note_on_c, 0, 58, 0
5, 77277, Note_on_c, 0, 52, 0
5, 77283, Note_on_c, 0, 69, 77
5, 77284, Note_on_c, 0, 57, 80
5, 77284, Note_on_c, 0, 62, 80
5, 77284, Note_on_c, 0, 65, 65
5, 77287, Note_on_c, 0, 59, 68
5, 77292, Note_on_c, 0, 59, 0
5, 77292, Control_c, 0, 64, 0
5, 77319, Note_on_c, 0, 59, 3
5, 77367, Note_on_c, 0, 59, 0
5, 77381, Note_on_c, 0, 62, 0
5, 77394, Note_on_c, 0, 62, 9
5, 77447, Note_on_c, 0, 62, 0
5, 77454, Note_on_c, 0, 65, 0
5, 77455, Note_on_c, 0, 57, 0
5, 77461, Note_on_c, 0, 65, 19
5, 77463, Note_on_c, 0, 62, 34
5, 77465, Note_on_c, 0, 53, 37
5, 77466, Note_on_c, 0, 57, 36
5, 77468, Note_on_c, 0, 69, 0
5, 77484, Note_on_c, 0, 57, 0
5, 77491, Note_on_c, 0, 62, 0
5, 77492, Note_on_c, 0, 65, 0
5, 77498, Note_on_c, 0, 53, 0
5, 77526, Note_on_c, 0, 65, 50
5, 77527, Note_on_c, 0, 62, 50
5, 77528, Note_on_c, 0, 57, 35
5, 77534, Note_on_c, 0, 53, 22
5, 77591, Note_on_c, 0, 53, 0
5, 77621, Note_on_c, 0, 53, 52
5, 77634, Note_on_c, 0, 53, 0
5, 77652, Note_on_c, 0, 57, 0
5, 77701, Note_on_c, 0, 56, 33
5, 77707, Note_on_c, 0, 52, 29
5, 77709, Note_on_c, 0, 59, 28
5, 77715, Note_on_c, 0, 62, 0
5, 77726, Note_on_c, 0, 65, 0
5, 77764, Note_on_c, 0, 59, 0
5, 77795, Note_on_c, 0, 56, 0
5, 77812, Note_on_c, 0, 52, 0
5, 77821, Note_on_c, 0, 71, 70
5, 77823, Note_on_c, 0, 67, 65
5, 77823, Note_on_c, 0, 62, 70
5, 77826, Note_on_c, 0, 56, 37
5, 77840, Note_on_c, 0, 62, 0
5, 77844, Note_on_c, 0, 71, 0
5, 77844, Note_on_c, 0, 67, 0
5, 77845, Note_on_c, 0, 56, 0
5, 77856, Note_on_c, 0, 62, 31
5, 77858, Note_on_c, 0, 67, 64
5, 77859, Note_on_c, 0, 71, 54
5, 77860, Note_on_c, 0, 56, 44
5, 77865, Note_on_c, 0, 62, 0
5, 77870, Note_on_c, 0, 67, 0
5, 77874, Note_on_c, 0, 71, 0
5, 77882, Note_on_c, 0, 74, 71
5, 77883, Note_on_c, 0, 65, 63
5, 77887, Note_on_c, 0, 70, 38
5, 77888, Note_on_c, 0, 59, 64
5, 77895, Note_on_c, 0, 70, 0
5, 77896, Note_on_c, 0, 65, 0
5, 77903, Note_on_c, 0, 74, 0
5, 77917, Note_on_c, 0, 74, 53
5, 77917, Note_on_c, 0, 70, 75
5, 77919, Note_on_c, 0, 73, 35
5, 77924, Note_on_c, 0, 74, 0
5, 77926, Note_on_c, 0, 73, 0
5, 77927, Note_on_c, 0, 70, 0
5, 77935, Note_on_c, 0, 59, 0
5, 77941, Note_on_c, 0, 77, 74
5, 77941, Note_on_c, 0, 70, 59
5, 77942, Note_on_c, 0, 62, 64
5, 77947, Note_on_c, 0, 56, 0
5, 77956, Note_on_c, 0, 70, 0
5, 77962, Note_on_c, 0, 77, 0
5, 77985, Note_on_c, 0, 62, 0
5, 77992, Note_on_c, 0, 65, 35
5, 77998, Note_on_c, 0, 70, 28
5, 77999, Note_on_c, 0, 80, 51
5, 78000, Note_on_c, 0, 71, 74
5, 78004, Note_on_c, 0, 70, 0
5, 78021, Note_on_c, 0, 71, 0
5, 78023, Note_on_c, 0, 80, 0
5, 78046, Note_on_c, 0, 65, 0
5, 78093, Note_on_c, 0, 83, 63
5, 78094, Note_on_c, 0, 74, 64
5, 78095, Note_on_c, 0, 77, 62
5, 78095, Note_on_c, 0, 68, 52
5, 78101, Note_on_c, 0, 74, 0
5, 78105, Note_on_c, 0, 77, 0
5, 78108, Note_on_c, 0, 83, 0
5, 78108, Note_on_c, 0, 68, 0
5, 78123, Note_on_c, 0, 86, 87
5, 78124, Note_on_c, 0, 80, 56
5, 78124, Note_on_c, 0, 77, 69
5, 78125, Note_on_c, 0, 71, 68
5, 78147, Note_on_c, 0, 80, 0
5, 78157, Note_on_c, 0, 86, 0
5, 78160, Note_on_c, 0, 71, 0
5, 78161, Note_on_c, 0, 77, 0
5, 78179, Note_on_c, 0, 86, 73
5, 78179, Note_on_c, 0, 71, 53
5, 78180, Note_on_c, 0, 80, 59
5, 78181, Note_on_c, 0, 77, 54
5, 78182, Note_on_c, 0, 83, 51
5, 78204, Note_on_c, 0, 86, 0
5, 78205, Note_on_c, 0, 77, 0
5, 78208, Note_on_c, 0, 83, 0
5, 78209, Note_on_c, 0, 80, 0
5, 78219, Note_on_c, 0, 71, 0
5, 78220, Note_on_c, 0, 68, 37
5, 78237, Note_on_c, 0, 68, 0
5, 78244, Note_on_c, 0, 83, 60
5, 78244, Note_on_c, 0, 86, 69
5, 78245, Note_on_c, 0, 80, 46
5, 78246, Note_on_c, 0, 76, 55
5, 78246, Note_on_c, 0, 71, 63
5, 78276, Note_on_c, 0, 83, 0
5, 78277, Note_on_c, 0, 86, 0
5, 78282, Note_on_c, 0, 80, 0
5, 78286, Note_on_c, 0, 76, 0
5, 78287, Note_on_c, 0, 71, 0
5, 78309, Note_on_c, 0, 68, 25
5, 78312, Note_on_c, 0, 76, 40
5, 78316, Note_on_c, 0, 68, 0
5, 78320, Note_on_c, 0, 76, 0
5, 78371, Note_on_c, 0, 69, 59
5, 78371, Note_on_c, 0, 84, 61
5, 78373, Note_on_c, 0, 79, 49
5, 78373, Note_on_c, 0, 81, 44
5, 78373, Note_on_c, 0, 76, 51
5, 78438, Note_on_c, 0, 79, 0
5, 78441, Note_on_c, 0, 84, 0
5, 78442, Note_on_c, 0, 81, 0
5, 78444, Note_on_c, 0, 76, 0
5, 78470, Note_on_c, 0, 69, 0
5, 78480, Note_on_c, 0, 83, 48
5, 78480, Note_on_c, 0, 80, 34
5, 78482, Note_on_c, 0, 72, 41
5, 78483, Note_on_c, 0, 68, 43
5, 78486, Note_on_c, 0, 76, 42
5, 78513, Note_on_c, 0, 76, 0
5, 78513, Note_on_c, 0, 72, 0
5, 78522, Note_on_c, 0, 68, 0
5, 78523, Note_on_c, 0, 83, 0
5, 78525, Note_on_c, 0, 80, 0
5, 78542, Note_on_c, 0, 83, 46
5, 78543, Note_on_c, 0, 68, 50
5, 78543, Note_on_c, 0, 80, 37
5, 78546, Note_on_c, 0, 72, 36
5, 78547, Note_on_c, 0, 76, 50
5, 78569, Note_on_c, 0, 76, 0
5, 78572, Note_on_c, 0, 72, 0
5, 78576, Note_on_c, 0, 80, 0
5, 78585, Note_on_c, 0, 83, 0
5, 78596, Note_on_c, 0, 68, 0
5, 78603, Note_on_c, 0, 67, 41
5, 78604, Note_on_c, 0, 72, 31
5, 78605, Note_on_c, 0, 81, 51
5, 78607, Note_on_c, 0, 76, 40
5, 78659, Note_on_c, 0, 67, 0
5, 78718, Note_on_c, 0, 53, 26
5, 78721, Note_on_c, 0, 64, 22
5, 78722, Note_on_c, 0, 57, 32
5, 78722, Note_on_c, 0, 60, 36
5, 78730, Note_on_c, 0, 81, 0
5, 78745, Note_on_c, 0, 72, 0
5, 78746, Note_on_c, 0, 60, 0
5, 78749, Note_on_c, 0, 76, 0
5, 78752, Note_on_c, 0, 57, 0
5, 78758, Note_on_c, 0, 64, 0
5, 78761, Note_on_c, 0, 53, 0
5, 78814, Note_on_c, 0, 64, 22
5, 78815, Note_on_c, 0, 53, 17
5, 78818, Note_on_c, 0, 60, 30
5, 78819, Note_on_c, 0, 57, 20
5, 78841, Note_on_c, 0, 60, 0
5, 78845, Note_on_c, 0, 57, 0
5, 78847, Note_on_c, 0, 64, 0
5, 78849, Note_on_c, 0, 53, 0
5, 78901, Note_on_c, 0, 64, 27
5, 78902, Note_on_c, 0, 53, 24
5, 78903, Note_on_c, 0, 60, 35
5, 78904, Note_on_c, 0, 57, 38
5, 78924, Note_on_c, 0, 60, 0
5, 78926, Note_on_c, 0, 64, 0
5, 78929, Note_on_c, 0, 57, 0
5, 78938, Note_on_c, 0, 53, 0
5, 78963, Note_on_c, 0, 74, 38
5, 78968, Note_on_c, 0, 75, 56
5, 78978, Note_on_c, 0, 74, 0
5, 78982, Note_on_c, 0, 75, 0
5, 78983, Note_on_c, 0, 76, 64
5, 79005, Note_on_c, 0, 76, 0
5, 79023, Note_on_c, 0, 81, 87
5, 79046, Note_on_c, 0, 81, 0
5, 79075, Note_on_c, 0, 74, 64
5, 79084, Note_on_c, 0, 81, 24
5, 79085, Note_on_c, 0, 74, 0
5, 79086, Note_on_c, 0, 75, 53
5, 79094, Note_on_c, 0, 81, 0
5, 79106, Note_on_c, 0, 75, 0
5, 79106, Note_on_c, 0, 74, 54
5, 79123, Note_on_c, 0, 74, 0
5, 79125, Note_on_c, 0, 72, 46
5, 79136, Note_on_c, 0, 53, 17
5, 79138, Note_on_c, 0, 72, 0
5, 79144, Note_on_c, 0, 69, 39
5, 79160, Note_on_c, 0, 53, 0
5, 79195, Note_on_c, 0, 69, 0
5, 79263, Note_on_c, 0, 60, 32
5, 79266, Note_on_c, 0, 57, 33
5, 79266, Note_on_c, 0, 50, 15
5, 79268, Note_on_c, 0, 53, 22
5, 79280, Note_on_c, 0, 57, 0
5, 79283, Note_on_c, 0, 60, 0
5, 79284, Note_on_c, 0, 50, 0
5, 79285, Note_on_c, 0, 53, 0
5, 79356, Note_on_c, 0, 50, 24
5, 79357, Note_on_c, 0, 60, 41
5, 79361, Note_on_c, 0, 57, 33
5, 79370, Note_on_c, 0, 60, 0
5, 79373, Note_on_c, 0, 50, 0
5, 79374, Note_on_c, 0, 57, 0
5, 79438, Note_on_c, 0, 48, 36
5, 79440, Note_on_c, 0, 57, 29
5, 79453, Note_on_c, 0, 48, 0
5, 79458, Note_on_c, 0, 57, 0
5, 79537, Note_on_c, 0, 48, 35
5, 79537, Note_on_c, 0, 57, 36
5, 79546, Note_on_c, 0, 57, 0
5, 79546, Note_on_c, 0, 48, 0
5, 79565, Note_on_c, 0, 68, 65
5, 79573, Note_on_c, 0, 69, 66
5, 79574, Note_on_c, 0, 68, 0
5, 79594, Note_on_c, 0, 69, 0
5, 79611, Note_on_c, 0, 57, 37
5, 79618, Note_on_c, 0, 74, 101
5, 79619, Note_on_c, 0, 57, 0
5, 79638, Note_on_c, 0, 74, 0
5, 79676, Note_on_c, 0, 67, 64
5, 79676, Note_on_c, 0, 47, 37
5, 79679, Note_on_c, 0, 57, 24
5, 79679, Note_on_c, 0, 68, 55
5, 79683, Note_on_c, 0, 67, 0
5, 79707, Note_on_c, 0, 67, 52
5, 79711, Note_on_c, 0, 68, 0
5, 79713, Note_on_c, 0, 57, 0
5, 79721, Note_on_c, 0, 67, 0
5, 79723, Note_on_c, 0, 65, 57
5, 79738, Note_on_c, 0, 65, 0
5, 79743, Note_on_c, 0, 62, 55
5, 79781, Note_on_c, 0, 62, 0
5, 79803, Note_on_c, 0, 47, 0
5, 79833, Note_on_c, 0, 57, 54
5, 79834, Note_on_c, 0, 47, 43
5, 79841, Note_on_c, 0, 57, 0
5, 79851, Note_on_c, 0, 47, 0
5, 79915, Note_on_c, 0, 56, 69
5, 79917, Note_on_c, 0, 47, 49
5, 79927, Note_on_c, 0, 47, 0
5, 79930, Note_on_c, 0, 56, 0
5, 79982, Note_on_c, 0, 59, 66
5, 79999, Note_on_c, 0, 59, 0
5, 80015, Note_on_c, 0, 62, 47
5, 80034, Note_on_c, 0, 56, 38
5, 80038, Note_on_c, 0, 62, 0
5, 80040, Note_on_c, 0, 47, 24
5, 80043, Note_on_c, 0, 65, 35
5, 80060, Note_on_c, 0, 65, 0
5, 80068, Note_on_c, 0, 47, 0
5, 80074, Note_on_c, 0, 56, 0
5, 80079, Note_on_c, 0, 68, 64
5, 80096, Note_on_c, 0, 68, 0
5, 80109, Note_on_c, 0, 71, 57
5, 80132, Note_on_c, 0, 71, 0
5, 80139, Note_on_c, 0, 74, 73
5, 80164, Note_on_c, 0, 74, 0
5, 80166, Note_on_c, 0, 67, 38
5, 80191, Note_on_c, 0, 67, 0
5, 80196, Note_on_c, 0, 68, 45
5, 80211, Note_on_c, 0, 68, 0
5, 80220, Note_on_c, 0, 70, 38
5, 80246, Note_on_c, 0, 70, 0
5, 80254, Note_on_c, 0, 71, 66
5, 80262, Note_on_c, 0, 59, 24
5, 80263, Note_on_c, 0, 56, 21
5, 80268, Note_on_c, 0, 59, 0
5, 80271, Note_on_c, 0, 56, 0
5, 80274, Note_on_c, 0, 71, 0
5, 80282, Note_on_c, 0, 73, 34
5, 80302, Note_on_c, 0, 73, 0
5, 80312, Note_on_c, 0, 74, 66
5, 80335, Note_on_c, 0, 74, 0
5, 80337, Note_on_c, 0, 76, 54
5, 80356, Note_on_c, 0, 76, 0
5, 80369, Note_on_c, 0, 77, 59
5, 80375, Note_on_c, 0, 59, 47
5, 80382, Note_on_c, 0, 59, 0
5, 80386, Note_on_c, 0, 77, 0
5, 80397, Note_on_c, 0, 78, 51
5, 80416, Note_on_c, 0, 78, 0
5, 80431, Note_on_c, 0, 79, 49
5, 80444, Note_on_c, 0, 79, 0
5, 80457, Note_on_c, 0, 81, 83
5, 80482, Note_on_c, 0, 81, 0
5, 80518, Note_on_c, 0, 79, 75
5, 80552, Note_on_c, 0, 79, 0
5, 80581, Note_on_c, 0, 72, 58
5, 80735, Note_on_c, 0, 72, 0
5, 80762, Note_on_c, 0, 74, 82
5, 80763, Note_on_c, 0, 57, 55
5, 80764, Note_on_c, 0, 65, 42
5, 80765, Note_on_c, 0, 62, 43
5, 80774, Note_on_c, 0, 65, 0
5, 80786, Note_on_c, 0, 74, 0
5, 80806, Note_on_c, 0, 62, 0
5, 80810, Note_on_c, 0, 57, 0
5, 80820, Note_on_c, 0, 74, 49
5, 80840, Note_on_c, 0, 74, 0
5, 80856, Note_on_c, 0, 75, 68
5, 80866, Note_on_c, 0, 62, 35
5, 80867, Note_on_c, 0, 56, 35
5, 80873, Note_on_c, 0, 75, 0
5, 80887, Note_on_c, 0, 76, 61
5, 80893, Note_on_c, 0, 62, 0
5, 80903, Note_on_c, 0, 76, 0
5, 80915, Note_on_c, 0, 77, 74
5, 80923, Note_on_c, 0, 62, 20
5, 80944, Note_on_c, 0, 77, 0
5, 80944, Note_on_c, 0, 76, 49
5, 80945, Note_on_c, 0, 56, 0
5, 80951, Note_on_c, 0, 62, 0
5, 80966, Note_on_c, 0, 76, 0
5, 80999, Note_on_c, 0, 71, 49
5, 81003, Note_on_c, 0, 56, 27
5, 81004, Note_on_c, 0, 62, 36
5, 81005, Note_on_c, 0, 65, 24
5, 81023, Note_on_c, 0, 71, 0
5, 81024, Note_on_c, 0, 65, 0
5, 81031, Note_on_c, 0, 62, 0
5, 81055, Note_on_c, 0, 56, 0
5, 81095, Note_on_c, 0, 59, 42
5, 81095, Note_on_c, 0, 64, 46
5, 81097, Note_on_c, 0, 57, 34
5, 81097, Note_on_c, 0, 60, 50
5, 81104, Note_on_c, 0, 60, 0
5, 81108, Note_on_c, 0, 64, 0
5, 81110, Note_on_c, 0, 59, 0
5, 81116, Note_on_c, 0, 57, 0
5, 81179, Note_on_c, 0, 88, 91
5, 81181, Note_on_c, 0, 64, 48
5, 81185, Note_on_c, 0, 60, 40
5, 81189, Note_on_c, 0, 57, 24
5, 81191, Note_on_c, 0, 59, 18
5, 81200, Note_on_c, 0, 59, 0
5, 81202, Note_on_c, 0, 60, 0
5, 81203, Note_on_c, 0, 64, 0
5, 81209, Note_on_c, 0, 88, 0
5, 81217, Note_on_c, 0, 83, 49
5, 81219, Note_on_c, 0, 57, 0
5, 81233, Note_on_c, 0, 83, 0
5, 81245, Note_on_c, 0, 86, 87
5, 81268, Note_on_c, 0, 86, 0
5, 81280, Note_on_c, 0, 84, 62
5, 81284, Note_on_c, 0, 60, 39
5, 81295, Note_on_c, 0, 60, 0
5, 81295, Note_on_c, 0, 84, 0
5, 81310, Note_on_c, 0, 80, 35
5, 81334, Note_on_c, 0, 80, 0
5, 81339, Note_on_c, 0, 83, 70
5, 81341, Note_on_c, 0, 60, 24
5, 81350, Note_on_c, 0, 60, 0
5, 81365, Note_on_c, 0, 83, 0
5, 81367, Note_on_c, 0, 81, 57
5, 81391, Note_on_c, 0, 81, 0
5, 81396, Note_on_c, 0, 76, 61
5, 81415, Note_on_c, 0, 76, 0
5, 81422, Note_on_c, 0, 74, 39
5, 81449, Note_on_c, 0, 74, 0
5, 81458, Note_on_c, 0, 71, 43
5, 81464, Note_on_c, 0, 57, 25
5, 81466, Note_on_c, 0, 71, 0
5, 81481, Note_on_c, 0, 74, 66
5, 81486, Note_on_c, 0, 57, 0
5, 81508, Note_on_c, 0, 74, 0
5, 81516, Note_on_c, 0, 76, 46
5, 81524, Note_on_c, 0, 74, 36
5, 81533, Note_on_c, 0, 76, 0
5, 81544, Note_on_c, 0, 72, 31
5, 81549, Note_on_c, 0, 74, 0
5, 81566, Note_on_c, 0, 72, 0
5, 81574, Note_on_c, 0, 71, 62
5, 81590, Note_on_c, 0, 71, 0
5, 81596, Note_on_c, 0, 74, 71
5, 81629, Note_on_c, 0, 74, 0
5, 81634, Note_on_c, 0, 71, 55
5, 81651, Note_on_c, 0, 71, 0
5, 81662, Note_on_c, 0, 72, 46
5, 81690, Note_on_c, 0, 72, 0
5, 81698, Note_on_c, 0, 64, 42
5, 81713, Note_on_c, 0, 64, 0
5, 81835, Note_on_c, 0, 54, 39
5, 81839, Note_on_c, 0, 60, 19
5, 81841, Note_on_c, 0, 93, 71
5, 81846, Note_on_c, 0, 60, 0
5, 81855, Note_on_c, 0, 93, 0
5, 81860, Note_on_c, 0, 54, 0
5, 81861, Note_on_c, 0, 94, 67
5, 81889, Note_on_c, 0, 94, 0
5, 81890, Note_on_c, 0, 91, 66
5, 81903, Note_on_c, 0, 91, 0
5, 81943, Note_on_c, 0, 90, 80
5, 81950, Note_on_c, 0, 60, 42
5, 81957, Note_on_c, 0, 90, 0
5, 81958, Note_on_c, 0, 60, 0
5, 81991, Note_on_c, 0, 85, 74
5, 81997, Note_on_c, 0, 86, 57
5, 81998, Note_on_c, 0, 54, 32
5, 81998, Note_on_c, 0, 60, 35
5, 82003, Note_on_c, 0, 86, 0
5, 82003, Note_on_c, 0, 85, 0
5, 82006, Note_on_c, 0, 60, 0
5, 82023, Note_on_c, 0, 54, 0
5, 82041, Note_on_c, 0, 86, 82
5, 82054, Note_on_c, 0, 86, 0
5, 82072, Note_on_c, 0, 84, 76
5, 82073, Note_on_c, 0, 58, 29
5, 82078, Note_on_c, 0, 55, 31
5, 82079, Note_on_c, 0, 62, 9
5, 82090, Note_on_c, 0, 84, 0
5, 82092, Note_on_c, 0, 62, 0
5, 82095, Note_on_c, 0, 55, 0
5, 82096, Note_on_c, 0, 58, 0
5, 82105, Note_on_c, 0, 82, 54
5, 82120, Note_on_c, 0, 82, 0
5, 82138, Note_on_c, 0, 81, 64
5, 82154, Note_on_c, 0, 81, 0
5, 82169, Note_on_c, 0, 82, 62
5, 82185, Note_on_c, 0, 82, 0
5, 82196, Note_on_c, 0, 84, 69
5, 82208, Note_on_c, 0, 58, 13
5, 82212, Note_on_c, 0, 84, 0
5, 82228, Note_on_c, 0, 81, 59
5, 82245, Note_on_c, 0, 81, 0
5, 82255, Note_on_c, 0, 58, 0
5, 82266, Note_on_c, 0, 78, 47
5, 82356, Note_on_c, 0, 63, 59
5, 82370, Note_on_c, 0, 63, 0
5, 82440, Note_on_c, 0, 63, 54
5, 82444, Note_on_c, 0, 55, 54
5, 82449, Note_on_c, 0, 58, 32
5, 82451, Note_on_c, 0, 78, 0
5, 82501, Note_on_c, 0, 75, 61
5, 82513, Note_on_c, 0, 55, 0
5, 82524, Note_on_c, 0, 75, 0
5, 82526, Note_on_c, 0, 63, 0
5, 82531, Note_on_c, 0, 58, 0
5, 82537, Note_on_c, 0, 75, 48
5, 82553, Note_on_c, 0, 75, 0
5, 82559, Note_on_c, 0, 58, 25
5, 82564, Note_on_c, 0, 64, 22
5, 82566, Note_on_c, 0, 55, 22
5, 82567, Note_on_c, 0, 74, 53
5, 82581, Note_on_c, 0, 74, 0
5, 82609, Note_on_c, 0, 64, 0
5, 82613, Note_on_c, 0, 55, 0
5, 82623, Note_on_c, 0, 67, 65
5, 82630, Note_on_c, 0, 58, 0
5, 82648, Note_on_c, 0, 67, 0
5, 82721, Note_on_c, 0, 58, 47
5, 82744, Note_on_c, 0, 58, 0
5, 82799, Note_on_c, 0, 58, 46
5, 82800, Note_on_c, 0, 52, 48
5, 82818, Note_on_c, 0, 52, 0
5, 82819, Note_on_c, 0, 58, 0
5, 82863, Note_on_c, 0, 82, 76
5, 82883, Note_on_c, 0, 82, 0
5, 82898, Note_on_c, 0, 79, 54
5, 82913, Note_on_c, 0, 79, 0
5, 82927, Note_on_c, 0, 76, 36
5, 82933, Note_on_c, 0, 52, 15
5, 82934, Note_on_c, 0, 58, 18
5, 82948, Note_on_c, 0, 76, 0
5, 82950, Note_on_c, 0, 52, 0
5, 82954, Note_on_c, 0, 75, 60
5, 82971, Note_on_c, 0, 75, 0
5, 82971, Note_on_c, 0, 58, 0
5, 82983, Note_on_c, 0, 74, 44
5, 83000, Note_on_c, 0, 74, 0
5, 83014, Note_on_c, 0, 73, 49
5, 83033, Note_on_c, 0, 73, 0
5, 83035, Note_on_c, 0, 63, 36
5, 83037, Note_on_c, 0, 55, 40
5, 83038, Note_on_c, 0, 57, 36
5, 83040, Note_on_c, 0, 72, 36
5, 83064, Note_on_c, 0, 55, 0
5, 83069, Note_on_c, 0, 72, 0
5, 83071, Note_on_c, 0, 63, 0
5, 83076, Note_on_c, 0, 57, 0
5, 83099, Note_on_c, 0, 72, 50
5, 83121, Note_on_c, 0, 72, 0
5, 83197, Note_on_c, 0, 63, 43
5, 83254, Note_on_c, 0, 63, 0
5, 83280, Note_on_c, 0, 54, 39
5, 83282, Note_on_c, 0, 60, 40
5, 83292, Note_on_c, 0, 60, 0
5, 83300, Note_on_c, 0, 54, 0
5, 83345, Note_on_c, 0, 75, 78
5, 83346, Note_on_c, 0, 87, 67
5, 83347, Note_on_c, 0, 82, 63
5, 83356, Note_on_c, 0, 75, 0
5, 83358, Note_on_c, 0, 87, 0
5, 83365, Note_on_c, 0, 82, 0
5, 83378, Note_on_c, 0, 87, 69
5, 83379, Note_on_c, 0, 82, 43
5, 83379, Note_on_c, 0, 75, 56
5, 83394, Note_on_c, 0, 63, 31
5, 83396, Note_on_c, 0, 82, 0
5, 83396, Note_on_c, 0, 87, 0
5, 83396, Note_on_c, 0, 54, 30
5, 83397, Note_on_c, 0, 75, 0
5, 83405, Note_on_c, 0, 63, 0
5, 83407, Note_on_c, 0, 86, 49
5, 83407, Note_on_c, 0, 74, 37
5, 83410, Note_on_c, 0, 85, 26
5, 83413, Note_on_c, 0, 54, 0
5, 83421, Note_on_c, 0, 86, 0
5, 83421, Note_on_c, 0, 85, 0
5, 83423, Note_on_c, 0, 74, 0
5, 83439, Note_on_c, 0, 86, 61
5, 83441, Note_on_c, 0, 74, 57
5, 83445, Note_on_c, 0, 81, 39
5, 83445, Note_on_c, 0, 54, 46
5, 83448, Note_on_c, 0, 63, 26
5, 83452, Note_on_c, 0, 86, 0
5, 83453, Note_on_c, 0, 74, 0
5, 83454, Note_on_c, 0, 81, 0
5, 83456, Note_on_c, 0, 63, 0
5, 83472, Note_on_c, 0, 72, 36
5, 83484, Note_on_c, 0, 72, 0
5, 83485, Note_on_c, 0, 54, 0
5, 83501, Note_on_c, 0, 84, 71
5, 83501, Note_on_c, 0, 72, 54
5, 83508, Note_on_c, 0, 83, 30
5, 83513, Note_on_c, 0, 72, 0
5, 83514, Note_on_c, 0, 83, 0
5, 83514, Note_on_c, 0, 84, 0
5, 83519, Note_on_c, 0, 62, 28
5, 83524, Note_on_c, 0, 55, 26
5, 83526, Note_on_c, 0, 62, 0
5, 83533, Note_on_c, 0, 82, 33
5, 83536, Note_on_c, 0, 70, 34
5, 83538, Note_on_c, 0, 55, 0
5, 83546, Note_on_c, 0, 70, 0
5, 83555, Note_on_c, 0, 82, 0
5, 83582, Note_on_c, 0, 82, 55
5, 83584, Note_on_c, 0, 70, 51
5, 83590, Note_on_c, 0, 75, 28
5, 83596, Note_on_c, 0, 75, 0
5, 83599, Note_on_c, 0, 70, 0
5, 83602, Note_on_c, 0, 82, 0
5, 83616, Note_on_c, 0, 82, 53
5, 83619, Note_on_c, 0, 70, 61
5, 83622, Note_on_c, 0, 75, 38
5, 83623, Note_on_c, 0, 61, 43
5, 83630, Note_on_c, 0, 75, 0
5, 83633, Note_on_c, 0, 70, 0
5, 83634, Note_on_c, 0, 61, 0
5, 83651, Note_on_c, 0, 70, 30
5, 83653, Note_on_c, 0, 75, 38
5, 83662, Note_on_c, 0, 55, 8
5, 83670, Note_on_c, 0, 75, 0
5, 83670, Note_on_c, 0, 70, 0
5, 83676, Note_on_c, 0, 82, 0
5, 83689, Note_on_c, 0, 55, 0
5, 83700, Note_on_c, 0, 82, 52
5, 83701, Note_on_c, 0, 70, 57
5, 83703, Note_on_c, 0, 75, 40
5, 83712, Note_on_c, 0, 75, 0
5, 83714, Note_on_c, 0, 70, 0
5, 83714, Note_on_c, 0, 82, 0
5, 83737, Note_on_c, 0, 75, 54
5, 83737, Note_on_c, 0, 82, 58
5, 83738, Note_on_c, 0, 70, 49
5, 83744, Note_on_c, 0, 63, 71
5, 83746, Note_on_c, 0, 70, 0
5, 83746, Note_on_c, 0, 52, 55
5, 83747, Note_on_c, 0, 58, 45
5, 83748, Note_on_c, 0, 75, 0
5, 83752, Note_on_c, 0, 82, 0
5, 83753, Note_on_c, 0, 52, 0
5, 83754, Note_on_c, 0, 63, 0
5, 83766, Note_on_c, 0, 58, 0
5, 83768, Note_on_c, 0, 85, 65
5, 83770, Note_on_c, 0, 73, 32
5, 83778, Note_on_c, 0, 73, 0
5, 83781, Note_on_c, 0, 85, 0
5, 83800, Note_on_c, 0, 73, 46
5, 83801, Note_on_c, 0, 85, 64
5, 83805, Note_on_c, 0, 82, 28
5, 83810, Note_on_c, 0, 85, 0
5, 83812, Note_on_c, 0, 73, 0
5, 83813, Note_on_c, 0, 82, 0
5, 83825, Note_on_c, 0, 85, 51
5, 83827, Note_on_c, 0, 73, 25
5, 83840, Note_on_c, 0, 85, 0
5, 83842, Note_on_c, 0, 73, 0
5, 83860, Note_on_c, 0, 73, 55
5, 83860, Note_on_c, 0, 85, 75
5, 83864, Note_on_c, 0, 80, 48
5, 83866, Note_on_c, 0, 63, 59
5, 83867, Note_on_c, 0, 82, 27
5, 83868, Note_on_c, 0, 52, 52
5, 83869, Note_on_c, 0, 58, 31
5, 83873, Note_on_c, 0, 63, 0
5, 83873, Note_on_c, 0, 85, 0
5, 83875, Note_on_c, 0, 52, 0
5, 83878, Note_on_c, 0, 82, 0
5, 83883, Note_on_c, 0, 73, 0
5, 83883, Note_on_c, 0, 80, 0
5, 83888, Note_on_c, 0, 84, 66
5, 83891, Note_on_c, 0, 72, 46
5, 83894, Note_on_c, 0, 58, 0
5, 83908, Note_on_c, 0, 84, 0
5, 83912, Note_on_c, 0, 72, 0
5, 83937, Note_on_c, 0, 52, 24
5, 83938, Note_on_c, 0, 82, 49
5, 83940, Note_on_c, 0, 58, 25
5, 83940, Note_on_c, 0, 70, 57
5, 83946, Note_on_c, 0, 52, 0
5, 83964, Note_on_c, 0, 58, 0
5, 83967, Note_on_c, 0, 82, 0
5, 83970, Note_on_c, 0, 70, 0
5, 83988, Note_on_c, 0, 60, 40
5, 83990, Note_on_c, 0, 57, 43
5, 83996, Note_on_c, 0, 60, 0
5, 83999, Note_on_c, 0, 80, 33
5, 84000, Note_on_c, 0, 57, 0
5, 84002, Note_on_c, 0, 68, 56
5, 84022, Note_on_c, 0, 68, 0
5, 84022, Note_on_c, 0, 76, 14
5, 84023, Note_on_c, 0, 80, 0
5, 84024, Note_on_c, 0, 81, 42
5, 84027, Note_on_c, 0, 69, 36
5, 84034, Note_on_c, 0, 69, 0
5, 84035, Note_on_c, 0, 76, 0
5, 84039, Note_on_c, 0, 81, 0
5, 84043, Note_on_c, 0, 60, 40
5, 84050, Note_on_c, 0, 57, 22
5, 84051, Note_on_c, 0, 60, 0
5, 84057, Note_on_c, 0, 57, 0
5, 84061, Note_on_c, 0, 69, 71
5, 84061, Note_on_c, 0, 81, 68
5, 84063, Note_on_c, 0, 76, 49
5, 84079, Note_on_c, 0, 69, 0
5, 84081, Note_on_c, 0, 81, 0
5, 84082, Note_on_c, 0, 76, 0
5, 84097, Note_on_c, 0, 81, 62
5, 84098, Note_on_c, 0, 69, 64
5, 84099, Note_on_c, 0, 76, 53
5, 84106, Note_on_c, 0, 69, 0
5, 84106, Note_on_c, 0, 79, 24
5, 84110, Note_on_c, 0, 81, 0
5, 84114, Note_on_c, 0, 79, 0
5, 84116, Note_on_c, 0, 76, 0
5, 84120, Note_on_c, 0, 57, 24
5, 84126, Note_on_c, 0, 80, 55
5, 84130, Note_on_c, 0, 57, 0
5, 84130, Note_on_c, 0, 76, 36
5, 84130, Note_on_c, 0, 68, 46
5, 84144, Note_on_c, 0, 68, 0
5, 84144, Note_on_c, 0, 80, 0
5, 84148, Note_on_c, 0, 69, 55
5, 84161, Note_on_c, 0, 69, 0
5, 84163, Note_on_c, 0, 76, 0
5, 84180, Note_on_c, 0, 81, 70
5, 84182, Note_on_c, 0, 76, 56
5, 84182, Note_on_c, 0, 69, 70
5, 84197, Note_on_c, 0, 69, 0
5, 84201, Note_on_c, 0, 81, 0
5, 84204, Note_on_c, 0, 76, 0
5, 84218, Note_on_c, 0, 81, 49
5, 84219, Note_on_c, 0, 76, 62
5, 84221, Note_on_c, 0, 69, 36
5, 84225, Note_on_c, 0, 81, 0
5, 84228, Note_on_c, 0, 69, 0
5, 84236, Note_on_c, 0, 76, 0
5, 84244, Note_on_c, 0, 80, 38
5, 84245, Note_on_c, 0, 68, 45
5, 84248, Note_on_c, 0, 76, 31
5, 84260, Note_on_c, 0, 68, 0
5, 84261, Note_on_c, 0, 80, 0
5, 84266, Note_on_c, 0, 69, 38
5, 84276, Note_on_c, 0, 69, 0
5, 84281, Note_on_c, 0, 76, 0
5, 84298, Note_on_c, 0, 81, 67
5, 84300, Note_on_c, 0, 76, 46
5, 84301, Note_on_c, 0, 69, 58
5, 84315, Note_on_c, 0, 69, 0
5, 84318, Note_on_c, 0, 76, 0
5, 84318, Note_on_c, 0, 81, 0
5, 84337, Note_on_c, 0, 76, 55
5, 84338, Note_on_c, 0, 81, 53
5, 84339, Note_on_c, 0, 69, 51
5, 84344, Note_on_c, 0, 57, 50
5, 84345, Note_on_c, 0, 69, 0
5, 84345, Note_on_c, 0, 81, 0
5, 84346, Note_on_c, 0, 60, 30
5, 84346, Note_on_c, 0, 53, 30
5, 84352, Note_on_c, 0, 60, 0
5, 84352, Note_on_c, 0, 76, 0
5, 84357, Note_on_c, 0, 53, 0
5, 84361, Note_on_c, 0, 57, 0
5, 84363, Note_on_c, 0, 68, 56
5, 84364, Note_on_c, 0, 80, 42
5, 84381, Note_on_c, 0, 68, 0
5, 84381, Note_on_c, 0, 81, 32
5, 84382, Note_on_c, 0, 77, 1
5, 84383, Note_on_c, 0, 80, 0
5, 84385, Note_on_c, 0, 69, 54
5, 84390, Note_on_c, 0, 79, 22
5, 84394, Note_on_c, 0, 69, 0
5, 84398, Note_on_c, 0, 79, 0
5, 84398, Note_on_c, 0, 81, 0
5, 84406, Note_on_c, 0, 77, 0
5, 84418, Note_on_c, 0, 81, 70
5, 84420, Note_on_c, 0, 77, 55
5, 84420, Note_on_c, 0, 57, 39
5, 84420, Note_on_c, 0, 69, 74
5, 84425, Note_on_c, 0, 53, 24
5, 84427, Note_on_c, 0, 57, 0
5, 84434, Note_on_c, 0, 53, 0
5, 84435, Note_on_c, 0, 69, 0
5, 84440, Note_on_c, 0, 81, 0
5, 84445, Note_on_c, 0, 77, 0
5, 84456, Note_on_c, 0, 81, 51
5, 84458, Note_on_c, 0, 69, 66
5, 84458, Note_on_c, 0, 77, 58
5, 84461, Note_on_c, 0, 79, 41
5, 84464, Note_on_c, 0, 69, 0
5, 84464, Note_on_c, 0, 81, 0
5, 84468, Note_on_c, 0, 79, 0
5, 84475, Note_on_c, 0, 50, 43
5, 84478, Note_on_c, 0, 77, 0
5, 84479, Note_on_c, 0, 53, 34
5, 84482, Note_on_c, 0, 68, 59
5, 84482, Note_on_c, 0, 80, 48
5, 84486, Note_on_c, 0, 77, 17
5, 84492, Note_on_c, 0, 50, 0
5, 84496, Note_on_c, 0, 81, 38
5, 84497, Note_on_c, 0, 80, 0
5, 84497, Note_on_c, 0, 68, 0
5, 84500, Note_on_c, 0, 53, 0
5, 84501, Note_on_c, 0, 74, 49
5, 84502, Note_on_c, 0, 69, 36
5, 84511, Note_on_c, 0, 69, 0
5, 84513, Note_on_c, 0, 74, 0
5, 84515, Note_on_c, 0, 81, 0
5, 84522, Note_on_c, 0, 77, 0
5, 84538, Note_on_c, 0, 81, 72
5, 84540, Note_on_c, 0, 69, 65
5, 84541, Note_on_c, 0, 74, 41
5, 84542, Note_on_c, 0, 77, 44
5, 84556, Note_on_c, 0, 74, 0
5, 84556, Note_on_c, 0, 69, 0
5, 84559, Note_on_c, 0, 81, 0
5, 84562, Note_on_c, 0, 77, 0
5, 84576, Note_on_c, 0, 81, 58
5, 84577, Note_on_c, 0, 69, 65
5, 84579, Note_on_c, 0, 77, 51
5, 84579, Note_on_c, 0, 74, 49
5, 84583, Note_on_c, 0, 69, 0
5, 84583, Note_on_c, 0, 81, 0
5, 84583, Note_on_c, 0, 79, 30
5, 84587, Note_on_c, 0, 60, 38
5, 84589, Note_on_c, 0, 57, 40
5, 84590, Note_on_c, 0, 79, 0
5, 84591, Note_on_c, 0, 53, 30
5, 84592, Note_on_c, 0, 74, 0
5, 84594, Note_on_c, 0, 60, 0
5, 84598, Note_on_c, 0, 57, 0
5, 84602, Note_on_c, 0, 80, 38
5, 84606, Note_on_c, 0, 68, 30
5, 84607, Note_on_c, 0, 74, 36
5, 84610, Note_on_c, 0, 53, 0
5, 84615, Note_on_c, 0, 80, 0
5, 84616, Note_on_c, 0, 68, 0
5, 84626, Note_on_c, 0, 79, 13
5, 84633, Note_on_c, 0, 74, 0
5, 84634, Note_on_c, 0, 79, 0
5, 84637, Note_on_c, 0, 77, 0
5, 84643, Note_on_c, 0, 81, 71
5, 84644, Note_on_c, 0, 74, 63
5, 84644, Note_on_c, 0, 69, 66
5, 84646, Note_on_c, 0, 57, 35
5, 84647, Note_on_c, 0, 77, 39
5, 84648, Note_on_c, 0, 79, 44
5, 84651, Note_on_c, 0, 53, 24
5, 84654, Note_on_c, 0, 57, 0
5, 84657, Note_on_c, 0, 79, 0
5, 84658, Note_on_c, 0, 69, 0
5, 84660, Note_on_c, 0, 74, 0
5, 84664, Note_on_c, 0, 53, 0
5, 84665, Note_on_c, 0, 77, 0
5, 84665, Note_on_c, 0, 81, 0
5, 84769, Note_on_c, 0, 48, 51
5, 84769, Note_on_c, 0, 57, 53
5, 84779, Note_on_c, 0, 57, 0
5, 84781, Note_on_c, 0, 48, 0
5, 84813, Note_on_c, 0, 57, 47
5, 84817, Note_on_c, 0, 48, 40
5, 84820, Note_on_c, 0, 57, 0
5, 84827, Note_on_c, 0, 48, 0
5, 84839, Note_on_c, 0, 80, 37
5, 84840, Note_on_c, 0, 68, 69
5, 84855, Note_on_c, 0, 80, 0
5, 84856, Note_on_c, 0, 68, 0
5, 84874, Note_on_c, 0, 74, 42
5, 84874, Note_on_c, 0, 69, 66
5, 84876, Note_on_c, 0, 81, 42
5, 84880, Note_on_c, 0, 69, 0
5, 84883, Note_on_c, 0, 74, 0
5, 84896, Note_on_c, 0, 81, 0
5, 84960, Note_on_c, 0, 88, 88
5, 84961, Note_on_c, 0, 81, 85
5, 84961, Note_on_c, 0, 77, 91
5, 84961, Note_on_c, 0, 83, 80
5, 84962, Note_on_c, 0, 76, 74
5, 84964, Note_on_c, 0, 86, 66
5, 84970, Note_on_c, 0, 86, 0
5, 84977, Note_on_c, 0, 76, 0
5, 84981, Note_on_c, 0, 88, 0
5, 84984, Note_on_c, 0, 81, 0
5, 84985, Note_on_c, 0, 83, 0
5, 85006, Note_on_c, 0, 77, 0
5, 85007, Note_on_c, 0, 76, 39
5, 85017, Note_on_c, 0, 76, 0
5, 85017, Note_on_c, 0, 74, 37
5, 85024, Note_on_c, 0, 74, 0
5, 85040, Note_on_c, 0, 71, 42
5, 85048, Note_on_c, 0, 71, 0
5, 85057, Note_on_c, 0, 69, 24
5, 85062, Note_on_c, 0, 69, 0
5, 85070, Note_on_c, 0, 67, 27
5, 85078, Note_on_c, 0, 67, 0
5, 85083, Note_on_c, 0, 65, 33
5, 85092, Note_on_c, 0, 65, 0
5, 85111, Note_on_c, 0, 62, 35
5, 85118, Note_on_c, 0, 62, 0
5, 85124, Note_on_c, 0, 60, 34
5, 85130, Note_on_c, 0, 60, 0
5, 85137, Note_on_c, 0, 59, 34
5, 85143, Note_on_c, 0, 59, 0
5, 85260, Note_on_c, 0, 76, 79
5, 85261, Note_on_c, 0, 65, 80
5, 85262, Note_on_c, 0, 64, 70
5, 85262, Note_on_c, 0, 69, 69
5, 85262, Note_on_c, 0, 71, 59
5, 85289, Note_on_c, 0, 69, 0
5, 85292, Note_on_c, 0, 65, 0
5, 85295, Note_on_c, 0, 76, 0
5, 85295, Note_on_c, 0, 71, 0
5, 85300, Note_on_c, 0, 64, 0
5, 85303, Note_on_c, 0, 62, 49
5, 85322, Note_on_c, 0, 62, 0
5, 85326, Note_on_c, 0, 65, 70
5, 85326, Note_on_c, 0, 76, 71
5, 85328, Note_on_c, 0, 69, 64
5, 85328, Note_on_c, 0, 71, 58
5, 85329, Note_on_c, 0, 64, 50
5, 85360, Note_on_c, 0, 69, 0
5, 85367, Note_on_c, 0, 65, 0
5, 85373, Note_on_c, 0, 76, 0
5, 85377, Note_on_c, 0, 71, 0
5, 85384, Note_on_c, 0, 65, 64
5, 85388, Note_on_c, 0, 64, 0
5, 85388, Note_on_c, 0, 74, 52
5, 85389, Note_on_c, 0, 62, 41
5, 85409, Note_on_c, 0, 65, 0
5, 85415, Note_on_c, 0, 74, 0
5, 85425, Note_on_c, 0, 76, 72
5, 85426, Note_on_c, 0, 65, 68
5, 85428, Note_on_c, 0, 68, 51
5, 85431, Note_on_c, 0, 56, 47
5, 85431, Note_on_c, 0, 70, 21
5, 85434, Note_on_c, 0, 71, 32
5, 85441, Note_on_c, 0, 71, 0
5, 85447, Note_on_c, 0, 62, 0
5, 85452, Note_on_c, 0, 76, 0
5, 85457, Note_on_c, 0, 70, 0
5, 85459, Note_on_c, 0, 68, 0
5, 85460, Note_on_c, 0, 56, 0
5, 85482, Note_on_c, 0, 65, 0
5, 85482, Note_on_c, 0, 64, 24
5, 85494, Note_on_c, 0, 64, 0
5, 85496, Note_on_c, 0, 62, 31
5, 85510, Note_on_c, 0, 62, 0
5, 85512, Note_on_c, 0, 60, 35
5, 85525, Note_on_c, 0, 60, 0
5, 85532, Note_on_c, 0, 59, 30
5, 85541, Note_on_c, 0, 59, 0
5, 85548, Note_on_c, 0, 57, 35
5, 85557, Note_on_c, 0, 57, 0
5, 85565, Note_on_c, 0, 55, 32
5, 85576, Note_on_c, 0, 55, 0
5, 85579, Note_on_c, 0, 53, 35
5, 85591, Note_on_c, 0, 53, 0
5, 85596, Note_on_c, 0, 52, 34
5, 85604, Note_on_c, 0, 52, 0
5, 85611, Note_on_c, 0, 50, 47
5, 85617, Note_on_c, 0, 50, 0
5, 85620, Note_on_c, 0, 48, 60
5, 85624, Note_on_c, 0, 34, 50
5, 85626, Note_on_c, 0, 48, 0
5, 85628, Note_on_c, 0, 47, 49
5, 85628, Note_on_c, 0, 22, 55
5, 85634, Note_on_c, 0, 47, 0
5, 85683, Note_on_c, 0, 22, 0
5, 85688, Note_on_c, 0, 34, 0
5, 85810, Note_on_c, 0, 64, 51
5, 85824, Note_on_c, 0, 64, 0
5, 85841, Note_on_c, 0, 68, 54
5, 85857, Note_on_c, 0, 68, 0
5, 85864, Note_on_c, 0, 71, 78
5, 85891, Note_on_c, 0, 71, 0
5, 85900, Note_on_c, 0, 74, 89
5, 85904, Note_on_c, 0, 64, 65
5, 85905, Note_on_c, 0, 60, 61
5, 85906, Note_on_c, 0, 73, 30
5, 85907, Note_on_c, 0, 59, 45
5, 85910, Note_on_c, 0, 64, 0
5, 85912, Note_on_c, 0, 73, 0
5, 85914, Note_on_c, 0, 59, 0
5, 85917, Note_on_c, 0, 60, 0
5, 85919, Note_on_c, 0, 74, 0
5, 85928, Note_on_c, 0, 71, 69
5, 85949, Note_on_c, 0, 71, 0
5, 85960, Note_on_c, 0, 72, 54
5, 85983, Note_on_c, 0, 72, 0
5, 85990, Note_on_c, 0, 76, 33
5, 86013, Note_on_c, 0, 76, 0
5, 86019, Note_on_c, 0, 79, 54
5, 86029, Note_on_c, 0, 64, 24
5, 86031, Note_on_c, 0, 79, 0
5, 86031, Note_on_c, 0, 60, 33
5, 86035, Note_on_c, 0, 64, 0
5, 86041, Note_on_c, 0, 60, 0
5, 86048, Note_on_c, 0, 83, 35
5, 86070, Note_on_c, 0, 83, 0
5, 86077, Note_on_c, 0, 86, 78
5, 86077, Note_on_c, 0, 74, 66
5, 86089, Note_on_c, 0, 86, 0
5, 86098, Note_on_c, 0, 86, 60
5, 86132, Note_on_c, 0, 86, 0
5, 86132, Note_on_c, 0, 74, 0
5, 86148, Note_on_c, 0, 55, 39
5, 86156, Note_on_c, 0, 60, 20
5, 86158, Note_on_c, 0, 86, 57
5, 86162, Note_on_c, 0, 74, 30
5, 86166, Note_on_c, 0, 55, 0
5, 86177, Note_on_c, 0, 60, 0
5, 86180, Note_on_c, 0, 74, 0
5, 86181, Note_on_c, 0, 86, 0
5, 86230, Note_on_c, 0, 84, 27
5, 86232, Note_on_c, 0, 86, 22
5, 86238, Note_on_c, 0, 86, 0
5, 86239, Note_on_c, 0, 84, 0
5, 86278, Note_on_c, 0, 55, 35
5, 86280, Note_on_c, 0, 60, 45
5, 86281, Note_on_c, 0, 64, 20
5, 86294, Note_on_c, 0, 64, 0
5, 86296, Note_on_c, 0, 60, 0
5, 86296, Note_on_c, 0, 55, 0
5, 86369, Note_on_c, 0, 64, 41
5, 86371, Note_on_c, 0, 60, 42
5, 86372, Note_on_c, 0, 57, 40
5, 86374, Note_on_c, 0, 53, 20
5, 86382, Note_on_c, 0, 60, 0
5, 86386, Note_on_c, 0, 64, 0
5, 86389, Note_on_c, 0, 57, 0
5, 86390, Note_on_c, 0, 53, 0
5, 86459, Note_on_c, 0, 64, 46
5, 86462, Note_on_c, 0, 53, 20
5, 86463, Note_on_c, 0, 57, 42
5, 86463, Note_on_c, 0, 60, 41
5, 86472, Note_on_c, 0, 60, 0
5, 86473, Note_on_c, 0, 64, 0
5, 86478, Note_on_c, 0, 53, 0
5, 86487, Note_on_c, 0, 57, 0
5, 86524, Note_on_c, 0, 84, 89
5, 86524, Note_on_c, 0, 72, 91
5, 86525, Note_on_c, 0, 79, 78
5, 86529, Note_on_c, 0, 81, 36
5, 86535, Note_on_c, 0, 72, 0
5, 86538, Note_on_c, 0, 81, 0
5, 86539, Note_on_c, 0, 79, 0
5, 86544, Note_on_c, 0, 84, 0
5, 86557, Note_on_c, 0, 84, 70
5, 86560, Note_on_c, 0, 72, 52
5, 86561, Note_on_c, 0, 79, 41
5, 86563, Note_on_c, 0, 81, 40
5, 86563, Note_on_c, 0, 64, 36
5, 86570, Note_on_c, 0, 64, 0
5, 86570, Note_on_c, 0, 57, 28
5, 86577, Note_on_c, 0, 79, 0
5, 86577, Note_on_c, 0, 72, 0
5, 86579, Note_on_c, 0, 84, 0
5, 86579, Note_on_c, 0, 81, 0
5, 86583, Note_on_c, 0, 57, 0
5, 86608, Note_on_c, 0, 84, 74
5, 86609, Note_on_c, 0, 72, 60
5, 86610, Note_on_c, 0, 81, 50
5, 86610, Note_on_c, 0, 79, 51
5, 86623, Note_on_c, 0, 84, 0
5, 86624, Note_on_c, 0, 72, 0
5, 86624, Note_on_c, 0, 79, 0
5, 86627, Note_on_c, 0, 81, 0
5, 86628, Note_on_c, 0, 62, 48
5, 86635, Note_on_c, 0, 62, 0
5, 86640, Note_on_c, 0, 84, 71
5, 86642, Note_on_c, 0, 79, 49
5, 86642, Note_on_c, 0, 72, 57
5, 86643, Note_on_c, 0, 57, 28
5, 86646, Note_on_c, 0, 81, 29
5, 86651, Note_on_c, 0, 83, 29
5, 86654, Note_on_c, 0, 57, 0
5, 86657, Note_on_c, 0, 81, 0
5, 86660, Note_on_c, 0, 84, 0
5, 86661, Note_on_c, 0, 79, 0
5, 86662, Note_on_c, 0, 83, 0
5, 86668, Note_on_c, 0, 72, 0
5, 86684, Note_on_c, 0, 57, 24
5, 86692, Note_on_c, 0, 57, 0
5, 86697, Note_on_c, 0, 81, 38
5, 86698, Note_on_c, 0, 79, 33
5, 86714, Note_on_c, 0, 79, 0
5, 86717, Note_on_c, 0, 81, 0
5, 86734, Note_on_c, 0, 81, 59
5, 86734, Note_on_c, 0, 77, 48
5, 86735, Note_on_c, 0, 69, 64
5, 86735, Note_on_c, 0, 74, 58
5, 86759, Note_on_c, 0, 69, 0
5, 86760, Note_on_c, 0, 74, 0
5, 86762, Note_on_c, 0, 81, 0
5, 86764, Note_on_c, 0, 77, 0
5, 86793, Note_on_c, 0, 69, 74
5, 86793, Note_on_c, 0, 77, 68
5, 86793, Note_on_c, 0, 74, 72
5, 86793, Note_on_c, 0, 81, 63
5, 86797, Note_on_c, 0, 62, 51
5, 86798, Note_on_c, 0, 53, 41
5, 86799, Note_on_c, 0, 60, 45
5, 86801, Note_on_c, 0, 57, 49
5, 86803, Note_on_c, 0, 62, 0
5, 86807, Note_on_c, 0, 69, 0
5, 86807, Note_on_c, 0, 60, 0
5, 86810, Note_on_c, 0, 57, 0
5, 86810, Note_on_c, 0, 81, 0
5, 86811, Note_on_c, 0, 74, 0
5, 86817, Note_on_c, 0, 77, 0
5, 86818, Note_on_c, 0, 53, 0
5, 86824, Note_on_c, 0, 81, 68
5, 86825, Note_on_c, 0, 74, 62
5, 86826, Note_on_c, 0, 77, 49
5, 86828, Note_on_c, 0, 69, 70
5, 86834, Note_on_c, 0, 79, 26
5, 86849, Note_on_c, 0, 81, 0
5, 86852, Note_on_c, 0, 74, 0
5, 86852, Note_on_c, 0, 79, 0
5, 86856, Note_on_c, 0, 77, 0
5, 86860, Note_on_c, 0, 69, 0
5, 86862, Note_on_c, 0, 53, 48
5, 86863, Note_on_c, 0, 57, 38
5, 86864, Note_on_c, 0, 50, 19
5, 86871, Note_on_c, 0, 57, 0
5, 86872, Note_on_c, 0, 50, 0
5, 86879, Note_on_c, 0, 77, 66
5, 86881, Note_on_c, 0, 53, 0
5, 86881, Note_on_c, 0, 65, 68
5, 86885, Note_on_c, 0, 74, 29
5, 86895, Note_on_c, 0, 74, 0
5, 86901, Note_on_c, 0, 65, 0
5, 86904, Note_on_c, 0, 77, 0
5, 86917, Note_on_c, 0, 77, 73
5, 86919, Note_on_c, 0, 65, 62
5, 86940, Note_on_c, 0, 65, 0
5, 86945, Note_on_c, 0, 77, 0
5, 86968, Note_on_c, 0, 76, 73
5, 86973, Note_on_c, 0, 60, 64
5, 86973, Note_on_c, 0, 65, 60
5, 86974, Note_on_c, 0, 69, 56
5, 86974, Note_on_c, 0, 72, 42
5, 86974, Note_on_c, 0, 57, 49
5, 86975, Note_on_c, 0, 50, 22
5, 86978, Note_on_c, 0, 53, 33
5, 86987, Note_on_c, 0, 60, 0
5, 86989, Note_on_c, 0, 69, 0
5, 86991, Note_on_c, 0, 65, 0
5, 86992, Note_on_c, 0, 50, 0
5, 86994, Note_on_c, 0, 72, 0
5, 86994, Note_on_c, 0, 57, 0
5, 86995, Note_on_c, 0, 76, 0
5, 87003, Note_on_c, 0, 76, 37
5, 87006, Note_on_c, 0, 53, 0
5, 87006, Note_on_c, 0, 65, 42
5, 87007, Note_on_c, 0, 72, 42
5, 87008, Note_on_c, 0, 69, 52
5, 87034, Note_on_c, 0, 69, 0
5, 87037, Note_on_c, 0, 57, 34
5, 87038, Note_on_c, 0, 65, 0
5, 87041, Note_on_c, 0, 53, 20
5, 87042, Note_on_c, 0, 72, 0
5, 87045, Note_on_c, 0, 76, 0
5, 87050, Note_on_c, 0, 57, 0
5, 87057, Note_on_c, 0, 65, 51
5, 87057, Note_on_c, 0, 74, 62
5, 87059, Note_on_c, 0, 69, 58
5, 87060, Note_on_c, 0, 53, 0
5, 87076, Note_on_c, 0, 65, 0
5, 87078, Note_on_c, 0, 69, 0
5, 87081, Note_on_c, 0, 74, 0
5, 87094, Note_on_c, 0, 74, 61
5, 87096, Note_on_c, 0, 65, 47
5, 87097, Note_on_c, 0, 60, 49
5, 87097, Note_on_c, 0, 69, 54
5, 87099, Note_on_c, 0, 57, 40
5, 87101, Note_on_c, 0, 53, 33
5, 87103, Note_on_c, 0, 60, 0
5, 87108, Note_on_c, 0, 57, 0
5, 87112, Note_on_c, 0, 69, 0
5, 87113, Note_on_c, 0, 65, 0
5, 87118, Note_on_c, 0, 53, 0
5, 87130, Note_on_c, 0, 74, 0
5, 87150, Note_on_c, 0, 72, 49
5, 87152, Note_on_c, 0, 69, 53
5, 87152, Note_on_c, 0, 65, 44
5, 87156, Note_on_c, 0, 60, 48
5, 87160, Note_on_c, 0, 57, 37
5, 87162, Note_on_c, 0, 53, 26
5, 87163, Note_on_c, 0, 65, 0
5, 87164, Note_on_c, 0, 60, 0
5, 87164, Note_on_c, 0, 69, 0
5, 87170, Note_on_c, 0, 72, 0
5, 87174, Note_on_c, 0, 57, 0
5, 87181, Note_on_c, 0, 65, 35
5, 87182, Note_on_c, 0, 72, 52
5, 87184, Note_on_c, 0, 53, 0
5, 87184, Note_on_c, 0, 69, 48
5, 87208, Note_on_c, 0, 69, 0
5, 87210, Note_on_c, 0, 65, 0
5, 87212, Note_on_c, 0, 72, 0
5, 87242, Note_on_c, 0, 72, 51
5, 87243, Note_on_c, 0, 69, 58
5, 87244, Note_on_c, 0, 65, 56
5, 87262, Note_on_c, 0, 65, 0
5, 87268, Note_on_c, 0, 69, 0
5, 87278, Note_on_c, 0, 72, 0
5, 87295, Note_on_c, 0, 60, 44
5, 87298, Note_on_c, 0, 57, 33
5, 87301, Note_on_c, 0, 53, 24
5, 87303, Note_on_c, 0, 60, 0
5, 87307, Note_on_c, 0, 57, 0
5, 87310, Note_on_c, 0, 53, 0
5, 87359, Note_on_c, 0, 59, 75
5, 87361, Note_on_c, 0, 74, 73
5, 87362, Note_on_c, 0, 68, 71
5, 87362, Note_on_c, 0, 65, 81
5, 87362, Note_on_c, 0, 71, 71
5, 87365, Note_on_c, 0, 72, 55
5, 87372, Note_on_c, 0, 72, 0
5, 87376, Note_on_c, 0, 71, 0
5, 87383, Note_on_c, 0, 68, 0
5, 87383, Note_on_c, 0, 74, 0
5, 87387, Note_on_c, 0, 65, 0
5, 87410, Note_on_c, 0, 59, 0
5, 87421, Note_on_c, 0, 71, 49
5, 87423, Note_on_c, 0, 56, 42
5, 87423, Note_on_c, 0, 68, 38
5, 87423, Note_on_c, 0, 65, 54
5, 87424, Note_on_c, 0, 62, 53
5, 87432, Note_on_c, 0, 65, 0
5, 87435, Note_on_c, 0, 68, 0
5, 87438, Note_on_c, 0, 71, 0
5, 87445, Note_on_c, 0, 62, 0
5, 87466, Note_on_c, 0, 56, 0
5, 87484, Note_on_c, 0, 53, 47
5, 87485, Note_on_c, 0, 68, 43
5, 87486, Note_on_c, 0, 65, 39
5, 87487, Note_on_c, 0, 62, 47
5, 87489, Note_on_c, 0, 59, 44
5, 87504, Note_on_c, 0, 62, 0
5, 87504, Note_on_c, 0, 65, 0
5, 87512, Note_on_c, 0, 68, 0
5, 87525, Note_on_c, 0, 59, 0
5, 87538, Note_on_c, 0, 53, 0
5, 87540, Note_on_c, 0, 50, 46
5, 87599, Note_on_c, 0, 56, 30
5, 87599, Note_on_c, 0, 62, 50
5, 87599, Note_on_c, 0, 47, 31
5, 87600, Note_on_c, 0, 59, 53
5, 87602, Note_on_c, 0, 50, 0
5, 87658, Note_on_c, 0, 59, 0
5, 87659, Note_on_c, 0, 56, 0
5, 87661, Note_on_c, 0, 62, 0
5, 87697, Note_on_c, 0, 50, 37
5, 87710, Note_on_c, 0, 50, 0
5, 87713, Note_on_c, 0, 47, 0
5, 87716, Note_on_c, 0, 53, 53
5, 87751, Note_on_c, 0, 56, 64
5, 87753, Note_on_c, 0, 64, 58
5, 87757, Note_on_c, 0, 53, 0
5, 87765, Note_on_c, 0, 64, 0
5, 87793, Note_on_c, 0, 59, 14
5, 87811, Note_on_c, 0, 56, 0
5, 87821, Note_on_c, 0, 59, 0
5, 87837, Note_on_c, 0, 64, 50
5, 87838, Note_on_c, 0, 62, 37
5, 87841, Note_on_c, 0, 76, 63
5, 87841, Note_on_c, 0, 68, 53
5, 87842, Note_on_c, 0, 71, 29
5, 87844, Note_on_c, 0, 65, 71
5, 87866, Note_on_c, 0, 65, 0
5, 87866, Note_on_c, 0, 76, 0
5, 87867, Note_on_c, 0, 68, 0
5, 87868, Note_on_c, 0, 62, 0
5, 87871, Note_on_c, 0, 64, 0
5, 87883, Note_on_c, 0, 71, 0
5, 87889, Note_on_c, 0, 63, 25
5, 87896, Note_on_c, 0, 75, 49
5, 87899, Note_on_c, 0, 71, 58
5, 87900, Note_on_c, 0, 68, 45
5, 87902, Note_on_c, 0, 65, 51
5, 87920, Note_on_c, 0, 65, 0
5, 87926, Note_on_c, 0, 75, 0
5, 87927, Note_on_c, 0, 68, 0
5, 87931, Note_on_c, 0, 71, 0
5, 87941, Note_on_c, 0, 63, 0
5, 87957, Note_on_c, 0, 62, 42
5, 87960, Note_on_c, 0, 68, 49
5, 87961, Note_on_c, 0, 74, 39
5, 87962, Note_on_c, 0, 65, 53
5, 87963, Note_on_c, 0, 71, 37
5, 87977, Note_on_c, 0, 74, 0
5, 87978, Note_on_c, 0, 65, 0
5, 87992, Note_on_c, 0, 62, 0
5, 87993, Note_on_c, 0, 68, 0
5, 87994, Note_on_c, 0, 71, 0
5, 87999, Note_on_c, 0, 59, 47
5, 88056, Note_on_c, 0, 59, 0
5, 88060, Note_on_c, 0, 74, 66
5, 88061, Note_on_c, 0, 64, 53
5, 88064, Note_on_c, 0, 60, 61
5, 88064, Note_on_c, 0, 67, 40
5, 88072, Note_on_c, 0, 67, 0
5, 88072, Note_on_c, 0, 64, 0
5, 88077, Note_on_c, 0, 60, 0
5, 88081, Note_on_c, 0, 74, 0
5, 88114, Note_on_c, 0, 72, 62
5, 88116, Note_on_c, 0, 64, 58
5, 88119, Note_on_c, 0, 67, 36
5, 88120, Note_on_c, 0, 60, 60
5, 88127, Note_on_c, 0, 67, 0
5, 88129, Note_on_c, 0, 60, 0
5, 88130, Note_on_c, 0, 64, 0
5, 88134, Note_on_c, 0, 72, 0
5, 88189, Note_on_c, 0, 59, 36
5, 88195, Note_on_c, 0, 64, 57
5, 88197, Note_on_c, 0, 67, 58
5, 88199, Note_on_c, 0, 59, 0
5, 88201, Note_on_c, 0, 60, 62
5, 88210, Note_on_c, 0, 64, 0
5, 88214, Note_on_c, 0, 67, 0
5, 88217, Note_on_c, 0, 60, 0
5, 88288, Note_on_c, 0, 84, 80
5, 88288, Note_on_c, 0, 76, 79
5, 88290, Note_on_c, 0, 73, 52
5, 88291, Note_on_c, 0, 72, 71
5, 88293, Note_on_c, 0, 79, 41
5, 88307, Note_on_c, 0, 72, 0
5, 88307, Note_on_c, 0, 73, 0
5, 88313, Note_on_c, 0, 84, 0
5, 88314, Note_on_c, 0, 79, 0
5, 88316, Note_on_c, 0, 76, 0
5, 88339, Note_on_c, 0, 76, 73
5, 88340, Note_on_c, 0, 84, 69
5, 88341, Note_on_c, 0, 72, 73
5, 88343, Note_on_c, 0, 73, 47
5, 88345, Note_on_c, 0, 82, 26
5, 88351, Note_on_c, 0, 84, 0
5, 88359, Note_on_c, 0, 76, 0
5, 88359, Note_on_c, 0, 72, 0
5, 88360, Note_on_c, 0, 82, 0
5, 88363, Note_on_c, 0, 73, 0
5, 88371, Note_on_c, 0, 71, 26
5, 88378, Note_on_c, 0, 70, 56
5, 88380, Note_on_c, 0, 71, 0
5, 88396, Note_on_c, 0, 70, 0
5, 88403, Note_on_c, 0, 69, 58
5, 88410, Note_on_c, 0, 73, 56
5, 88410, Note_on_c, 0, 81, 64
5, 88414, Note_on_c, 0, 76, 46
5, 88426, Note_on_c, 0, 69, 0
5, 88427, Note_on_c, 0, 76, 0
5, 88430, Note_on_c, 0, 81, 0
5, 88430, Note_on_c, 0, 73, 0
5, 88443, Note_on_c, 0, 73, 45
5, 88443, Note_on_c, 0, 81, 58
5, 88445, Note_on_c, 0, 69, 70
5, 88448, Note_on_c, 0, 76, 34
5, 88452, Note_on_c, 0, 68, 37
5, 88459, Note_on_c, 0, 76, 0
5, 88459, Note_on_c, 0, 69, 0
5, 88462, Note_on_c, 0, 81, 0
5, 88466, Note_on_c, 0, 73, 0
5, 88466, Note_on_c, 0, 68, 0
5, 88469, Note_on_c, 0, 67, 60
5, 88485, Note_on_c, 0, 67, 0
5, 88487, Note_on_c, 0, 78, 48
5, 88488, Note_on_c, 0, 70, 62
5, 88490, Note_on_c, 0, 73, 33
5, 88491, Note_on_c, 0, 66, 50
5, 88492, Note_on_c, 0, 67, 37
5, 88500, Note_on_c, 0, 67, 0
5, 88502, Note_on_c, 0, 66, 0
5, 88503, Note_on_c, 0, 70, 0
5, 88507, Note_on_c, 0, 73, 0
5, 88508, Note_on_c, 0, 78, 0
5, 88515, Note_on_c, 0, 66, 71
5, 88516, Note_on_c, 0, 78, 71
5, 88517, Note_on_c, 0, 73, 43
5, 88517, Note_on_c, 0, 70, 55
5, 88519, Note_on_c, 0, 67, 50
5, 88539, Note_on_c, 0, 67, 0
5, 88541, Note_on_c, 0, 70, 0
5, 88543, Note_on_c, 0, 66, 0
5, 88545, Note_on_c, 0, 73, 0
5, 88547, Note_on_c, 0, 78, 0
5, 88653, Note_on_c, 0, 75, 74
5, 88654, Note_on_c, 0, 70, 68
5, 88655, Note_on_c, 0, 67, 73
5, 88655, Note_on_c, 0, 63, 71
5, 88656, Note_on_c, 0, 64, 63
5, 88665, Note_on_c, 0, 64, 0
5, 88667, Note_on_c, 0, 67, 0
5, 88672, Note_on_c, 0, 75, 0
5, 88672, Note_on_c, 0, 70, 0
5, 88678, Note_on_c, 0, 63, 0
5, 88689, Note_on_c, 0, 60, 33
5, 88704, Note_on_c, 0, 60, 0
5, 88718, Note_on_c, 0, 58, 50
5, 88722, Note_on_c, 0, 67, 50
5, 88723, Note_on_c, 0, 72, 25
5, 88724, Note_on_c, 0, 64, 44
5, 88729, Note_on_c, 0, 72, 0
5, 88733, Note_on_c, 0, 61, 36
5, 88735, Note_on_c, 0, 64, 0
5, 88742, Note_on_c, 0, 67, 0
5, 88747, Note_on_c, 0, 58, 0
5, 88766, Note_on_c, 0, 61, 0
5, 88799, Note_on_c, 0, 72, 64
5, 88801, Note_on_c, 0, 57, 55
5, 88801, Note_on_c, 0, 67, 68
5, 88803, Note_on_c, 0, 62, 51
5, 88804, Note_on_c, 0, 64, 50
5, 88811, Note_on_c, 0, 64, 0
5, 88811, Note_on_c, 0, 62, 0
5, 88833, Note_on_c, 0, 62, 7
5, 88853, Note_on_c, 0, 72, 0
5, 88856, Note_on_c, 0, 67, 0
5, 88866, Note_on_c, 0, 62, 0
5, 88890, Note_on_c, 0, 57, 0
5, 88916, Note_on_c, 0, 52, 33
5, 88918, Note_on_c, 0, 64, 19
5, 88922, Note_on_c, 0, 57, 14
5, 88939, Note_on_c, 0, 57, 0
5, 88940, Note_on_c, 0, 64, 0
5, 88951, Note_on_c, 0, 67, 74
5, 88952, Note_on_c, 0, 52, 0
5, 88954, Note_on_c, 0, 57, 48
5, 88955, Note_on_c, 0, 60, 28
5, 88957, Note_on_c, 0, 55, 60
5, 88966, Note_on_c, 0, 60, 0
5, 88966, Note_on_c, 0, 57, 0
5, 88972, Note_on_c, 0, 67, 0
5, 88974, Note_on_c, 0, 55, 0
5, 88983, Note_on_c, 0, 53, 40
5, 89013, Note_on_c, 0, 53, 0
5, 89039, Note_on_c, 0, 52, 40
5, 89040, Note_on_c, 0, 55, 51
5, 89042, Note_on_c, 0, 64, 30
5, 89042, Note_on_c, 0, 60, 51
5, 89042, Note_on_c, 0, 57, 47
5, 89081, Note_on_c, 0, 60, 0
5, 89081, Note_on_c, 0, 55, 0
5, 89087, Note_on_c, 0, 57, 0
5, 89096, Note_on_c, 0, 64, 0
5, 89099, Note_on_c, 0, 60, 56
5, 89102, Note_on_c, 0, 48, 45
5, 89103, Note_on_c, 0, 52, 0
5, 89103, Note_on_c, 0, 55, 53
5, 89103, Note_on_c, 0, 57, 48
5, 89144, Note_on_c, 0, 55, 0
5, 89150, Control_c, 0, 64, 127
5, 89158, Note_on_c, 0, 57, 0
5, 89165, Note_on_c, 0, 60, 0
5, 89187, Note_on_c, 0, 48, 0
5, 89190, Note_on_c, 0, 41, 62
5, 89205, Note_on_c, 0, 41, 0
5, 89278, Note_on_c, 0, 76, 90
5, 89278, Note_on_c, 0, 72, 99
5, 89279, Note_on_c, 0, 67, 88
5, 89280, Note_on_c, 0, 56, 74
5, 89281, Note_on_c, 0, 62, 76
5, 89282, Control_c, 0, 64, 0
5, 89321, Control_c, 0, 64, 127
5, 89346, Note_on_c, 0, 67, 0
5, 89348, Note_on_c, 0, 72, 0
5, 89352, Note_on_c, 0, 56, 0
5, 89357, Note_on_c, 0, 62, 0
5, 89368, Note_on_c, 0, 72, 58
5, 89370, Note_on_c, 0, 67, 61
5, 89371, Note_on_c, 0, 56, 57
5, 89373, Note_on_c, 0, 62, 48
5, 89422, Note_on_c, 0, 67, 0
5, 89431, Note_on_c, 0, 56, 0
5, 89441, Note_on_c, 0, 62, 0
5, 89445, Note_on_c, 0, 72, 0
5, 89448, Note_on_c, 0, 76, 0
5, 89459, Note_on_c, 0, 72, 51
5, 89460, Note_on_c, 0, 76, 66
5, 89462, Note_on_c, 0, 56, 60
5, 89462, Note_on_c, 0, 67, 69
5, 89463, Note_on_c, 0, 62, 55
5, 89469, Control_c, 0, 64, 0
5, 89500, Control_c, 0, 64, 127
5, 89545, Note_on_c, 0, 72, 0
5, 89546, Note_on_c, 0, 62, 0
5, 89549, Note_on_c, 0, 67, 0
5, 89557, Note_on_c, 0, 56, 0
5, 89558, Note_on_c, 0, 76, 0
5, 89637, Note_on_c, 0, 67, 75
5, 89638, Note_on_c, 0, 56, 57
5, 89638, Note_on_c, 0, 86, 84
5, 89638, Note_on_c, 0, 74, 80
5, 89638, Note_on_c, 0, 62, 64
5, 89640, Note_on_c, 0, 81, 68
5, 89641, Note_on_c, 0, 60, 55
5, 89648, Note_on_c, 0, 60, 0
5, 89652, Note_on_c, 0, 67, 0
5, 89653, Note_on_c, 0, 74, 0
5, 89655, Control_c, 0, 64, 0
5, 89656, Note_on_c, 0, 86, 0
5, 89658, Note_on_c, 0, 56, 0
5, 89658, Note_on_c, 0, 81, 0
5, 89659, Note_on_c, 0, 62, 0
5, 89672, Note_on_c, 0, 67, 57
5, 89673, Note_on_c, 0, 76, 67
5, 89673, Note_on_c, 0, 88, 71
5, 89673, Note_on_c, 0, 56, 44
5, 89674, Note_on_c, 0, 62, 55
5, 89677, Note_on_c, 0, 60, 40
5, 89678, Note_on_c, 0, 67, 0
5, 89680, Control_c, 0, 64, 127
5, 89682, Note_on_c, 0, 76, 0
5, 89684, Note_on_c, 0, 88, 0
5, 89684, Note_on_c, 0, 60, 0
5, 89684, Control_c, 0, 64, 0
5, 89685, Note_on_c, 0, 62, 0
5, 89688, Note_on_c, 0, 56, 0
5, 89697, Note_on_c, 0, 56, 28
5, 89699, Note_on_c, 0, 89, 58
5, 89701, Note_on_c, 0, 62, 24
5, 89702, Note_on_c, 0, 77, 29
5, 89705, Note_on_c, 0, 89, 0
5, 89708, Note_on_c, 0, 62, 0
5, 89709, Note_on_c, 0, 77, 0
5, 89716, Note_on_c, 0, 56, 0
5, 89735, Note_on_c, 0, 90, 64
5, 89736, Note_on_c, 0, 78, 60
5, 89743, Note_on_c, 0, 78, 0
5, 89748, Note_on_c, 0, 90, 0
5, 89756, Note_on_c, 0, 62, 52
5, 89757, Note_on_c, 0, 52, 39
5, 89758, Note_on_c, 0, 78, 40
5, 89761, Note_on_c, 0, 55, 48
5, 89762, Note_on_c, 0, 91, 55
5, 89762, Note_on_c, 0, 59, 49
5, 89771, Note_on_c, 0, 78, 0
5, 89773, Note_on_c, 0, 86, 31
5, 89773, Note_on_c, 0, 79, 40
5, 89791, Note_on_c, 0, 59, 0
5, 89792, Note_on_c, 0, 91, 0
5, 89792, Note_on_c, 0, 86, 0
5, 89793, Note_on_c, 0, 55, 0
5, 89794, Note_on_c, 0, 79, 0
5, 89794, Note_on_c, 0, 52, 0
5, 89795, Note_on_c, 0, 62, 0
5, 89821, Note_on_c, 0, 62, 49
5, 89821, Note_on_c, 0, 52, 40
5, 89822, Note_on_c, 0, 79, 48
5, 89823, Note_on_c, 0, 91, 53
5, 89825, Note_on_c, 0, 86, 58
5, 89826, Note_on_c, 0, 59, 32
5, 89827, Note_on_c, 0, 55, 34
5, 89831, Note_on_c, 0, 86, 0
5, 89834, Note_on_c, 0, 59, 0
5, 89835, Note_on_c, 0, 62, 0
5, 89835, Note_on_c, 0, 55, 0
5, 89836, Note_on_c, 0, 91, 0
5, 89837, Note_on_c, 0, 79, 0
5, 89837, Note_on_c, 0, 52, 0
5, 89886, Note_on_c, 0, 52, 36
5, 89886, Note_on_c, 0, 62, 36
5, 89886, Note_on_c, 0, 55, 44
5, 89887, Note_on_c, 0, 59, 31
5, 89894, Note_on_c, 0, 62, 0
5, 89897, Note_on_c, 0, 59, 0
5, 89898, Note_on_c, 0, 55, 0
5, 89898, Note_on_c, 0, 52, 0
5, 89942, Note_on_c, 0, 84, 59
5, 89942, Note_on_c, 0, 52, 38
5, 89942, Note_on_c, 0, 62, 36
5, 89944, Note_on_c, 0, 72, 43
5, 89945, Note_on_c, 0, 55, 51
5, 89946, Note_on_c, 0, 79, 42
5, 89946, Note_on_c, 0, 59, 32
5, 89954, Note_on_c, 0, 79, 0
5, 89954, Note_on_c, 0, 72, 0
5, 89957, Note_on_c, 0, 84, 0
5, 89957, Note_on_c, 0, 59, 0
5, 89958, Note_on_c, 0, 62, 0
5, 89960, Note_on_c, 0, 55, 0
5, 89960, Note_on_c, 0, 52, 0
5, 90003, Note_on_c, 0, 52, 46
5, 90003, Note_on_c, 0, 84, 65
5, 90004, Note_on_c, 0, 79, 53
5, 90004, Note_on_c, 0, 72, 50
5, 90005, Note_on_c, 0, 62, 30
5, 90007, Note_on_c, 0, 55, 52
5, 90007, Note_on_c, 0, 59, 36
5, 90014, Note_on_c, 0, 79, 0
5, 90015, Note_on_c, 0, 72, 0
5, 90015, Note_on_c, 0, 59, 0
5, 90017, Note_on_c, 0, 84, 0
5, 90019, Note_on_c, 0, 62, 0
5, 90019, Note_on_c, 0, 55, 0
5, 90020, Note_on_c, 0, 52, 0
5, 90035, Note_on_c, 0, 62, 55
5, 90035, Note_on_c, 0, 84, 53
5, 90037, Note_on_c, 0, 79, 43
5, 90037, Note_on_c, 0, 52, 34
5, 90037, Note_on_c, 0, 72, 37
5, 90040, Note_on_c, 0, 55, 41
5, 90041, Note_on_c, 0, 59, 42
5, 90048, Note_on_c, 0, 59, 0
5, 90048, Note_on_c, 0, 72, 0
5, 90050, Note_on_c, 0, 79, 0
5, 90050, Note_on_c, 0, 84, 0
5, 90051, Note_on_c, 0, 55, 0
5, 90051, Note_on_c, 0, 62, 0
5, 90053, Note_on_c, 0, 52, 0
5, 90120, Note_on_c, 0, 84, 68
5, 90121, Note_on_c, 0, 72, 54
5, 90122, Note_on_c, 0, 79, 51
5, 90123, Note_on_c, 0, 52, 31
5, 90124, Note_on_c, 0, 59, 34
5, 90125, Note_on_c, 0, 62, 29
5, 90128, Note_on_c, 0, 55, 33
5, 90130, Note_on_c, 0, 79, 0
5, 90131, Note_on_c, 0, 72, 0
5, 90134, Note_on_c, 0, 84, 0
5, 90139, Note_on_c, 0, 62, 0
5, 90141, Note_on_c, 0, 55, 0
5, 90141, Note_on_c, 0, 59, 0
5, 90142, Note_on_c, 0, 52, 0
5, 90235, Note_on_c, 0, 53, 62
5, 90236, Note_on_c, 0, 64, 65
5, 90236, Note_on_c, 0, 60, 64
5, 90237, Note_on_c, 0, 79, 77
5, 90237, Note_on_c, 0, 84, 79
5, 90238, Note_on_c, 0, 72, 85
5, 90238, Note_on_c, 0, 57, 54
5, 90284, Control_c, 0, 64, 127
5, 90321, Note_on_c, 0, 72, 0
5, 90329, Note_on_c, 0, 79, 0
5, 90330, Note_on_c, 0, 84, 0
5, 90330, Note_on_c, 0, 64, 0
5, 90331, Note_on_c, 0, 53, 0
5, 90337, Note_on_c, 0, 60, 0
5, 90339, Note_on_c, 0, 57, 0
5, 90359, Note_on_c, 0, 86, 94
5, 90360, Note_on_c, 0, 64, 78
5, 90360, Note_on_c, 0, 81, 81
5, 90360, Note_on_c, 0, 53, 71
5, 90360, Note_on_c, 0, 60, 75
5, 90361, Note_on_c, 0, 57, 71
5, 90361, Note_on_c, 0, 74, 90
5, 90366, Control_c, 0, 64, 0
5, 90403, Note_on_c, 0, 86, 0
5, 90406, Note_on_c, 0, 74, 0
5, 90409, Note_on_c, 0, 53, 0
5, 90409, Note_on_c, 0, 64, 0
5, 90409, Note_on_c, 0, 81, 0
5, 90411, Note_on_c, 0, 60, 0
5, 90412, Note_on_c, 0, 57, 0
5, 90421, Note_on_c, 0, 84, 77
5, 90421, Note_on_c, 0, 53, 71
5, 90422, Note_on_c, 0, 64, 71
5, 90423, Note_on_c, 0, 79, 74
5, 90423, Note_on_c, 0, 60, 68
5, 90423, Note_on_c, 0, 57, 74
5, 90424, Note_on_c, 0, 72, 68
5, 90453, Note_on_c, 0, 84, 0
5, 90458, Note_on_c, 0, 79, 0
5, 90463, Control_c, 0, 64, 127
5, 90464, Note_on_c, 0, 64, 0
5, 90464, Note_on_c, 0, 53, 0
5, 90464, Note_on_c, 0, 72, 0
5, 90468, Note_on_c, 0, 57, 0
5, 90468, Note_on_c, 0, 60, 0
5, 90479, Note_on_c, 0, 83, 72
5, 90480, Note_on_c, 0, 53, 71
5, 90481, Note_on_c, 0, 77, 76
5, 90481, Note_on_c, 0, 60, 70
5, 90481, Note_on_c, 0, 57, 66
5, 90482, Note_on_c, 0, 64, 69
5, 90482, Note_on_c, 0, 71, 75
5, 90482, Control_c, 0, 64, 0
5, 90525, Control_c, 0, 64, 127
5, 90544, Note_on_c, 0, 83, 0
5, 90550, Note_on_c, 0, 77, 0
5, 90559, Note_on_c, 0, 71, 0
5, 90562, Note_on_c, 0, 57, 0
5, 90564, Note_on_c, 0, 64, 0
5, 90568, Note_on_c, 0, 53, 0
5, 90568, Note_on_c, 0, 60, 0
5, 90598, Control_c, 0, 64, 0
5, 90600, Note_on_c, 0, 53, 62
5, 90602, Note_on_c, 0, 76, 78
5, 90602, Note_on_c, 0, 81, 71
5, 90603, Note_on_c, 0, 60, 62
5, 90603, Note_on_c, 0, 64, 63
5, 90604, Note_on_c, 0, 57, 60
5, 90604, Note_on_c, 0, 69, 67
5, 90641, Control_c, 0, 64, 127
5, 90653, Note_on_c, 0, 81, 0
5, 90654, Note_on_c, 0, 60, 0
5, 90656, Note_on_c, 0, 64, 0
5, 90657, Note_on_c, 0, 57, 0
5, 90661, Note_on_c, 0, 76, 0
5, 90665, Note_on_c, 0, 69, 0
5, 90666, Note_on_c, 0, 53, 0
5, 90721, Note_on_c, 0, 74, 87
5, 90721, Note_on_c, 0, 79, 78
5, 90721, Note_on_c, 0, 59, 80
5, 90721, Note_on_c, 0, 67, 94
5, 90723, Note_on_c, 0, 55, 72
5, 90723, Note_on_c, 0, 52, 73
5, 90723, Control_c, 0, 64, 0
5, 90724, Note_on_c, 0, 62, 75
5, 90729, Note_on_c, 0, 62, 0
5, 90740, Note_on_c, 0, 67, 0
5, 90744, Note_on_c, 0, 79, 0
5, 90744, Note_on_c, 0, 74, 0
5, 90747, Note_on_c, 0, 59, 0
5, 90750, Note_on_c, 0, 55, 0
5, 90755, Note_on_c, 0, 74, 70
5, 90757, Note_on_c, 0, 67, 58
5, 90757, Note_on_c, 0, 79, 64
5, 90759, Note_on_c, 0, 59, 62
5, 90760, Note_on_c, 0, 62, 71
5, 90760, Note_on_c, 0, 55, 51
5, 90771, Note_on_c, 0, 67, 0
5, 90774, Note_on_c, 0, 79, 0
5, 90774, Note_on_c, 0, 74, 0
5, 90782, Note_on_c, 0, 79, 30
5, 90783, Note_on_c, 0, 74, 60
5, 90783, Note_on_c, 0, 67, 41
5, 90798, Note_on_c, 0, 67, 0
5, 90801, Note_on_c, 0, 79, 0
5, 90801, Note_on_c, 0, 74, 0
5, 90803, Note_on_c, 0, 52, 0
5, 90803, Note_on_c, 0, 59, 0
5, 90803, Note_on_c, 0, 62, 0
5, 90805, Note_on_c, 0, 55, 0
5, 90815, Note_on_c, 0, 79, 53
5, 90816, Note_on_c, 0, 74, 60
5, 90816, Note_on_c, 0, 62, 54
5, 90817, Note_on_c, 0, 52, 40
5, 90817, Note_on_c, 0, 67, 68
5, 90819, Note_on_c, 0, 59, 67
5, 90820, Note_on_c, 0, 55, 66
5, 90828, Note_on_c, 0, 59, 0
5, 90830, Note_on_c, 0, 62, 0
5, 90830, Note_on_c, 0, 67, 0
5, 90832, Note_on_c, 0, 74, 0
5, 90833, Note_on_c, 0, 79, 0
5, 90840, Note_on_c, 0, 79, 31
5, 90841, Note_on_c, 0, 62, 60
5, 90842, Note_on_c, 0, 59, 53
5, 90842, Note_on_c, 0, 74, 71
5, 90842, Note_on_c, 0, 67, 58
5, 90857, Note_on_c, 0, 67, 0
5, 90859, Note_on_c, 0, 62, 0
5, 90860, Note_on_c, 0, 74, 0
5, 90861, Note_on_c, 0, 79, 0
5, 90861, Note_on_c, 0, 59, 0
5, 90863, Note_on_c, 0, 55, 0
5, 90864, Note_on_c, 0, 52, 0
5, 90900, Note_on_c, 0, 74, 74
5, 90900, Note_on_c, 0, 62, 64
5, 90901, Note_on_c, 0, 67, 73
5, 90901, Note_on_c, 0, 79, 65
5, 90901, Note_on_c, 0, 52, 32
5, 90905, Note_on_c, 0, 55, 28
5, 90905, Note_on_c, 0, 59, 49
5, 90908, Note_on_c, 0, 67, 0
5, 90909, Note_on_c, 0, 52, 0
5, 90912, Note_on_c, 0, 59, 0
5, 90913, Note_on_c, 0, 55, 0
5, 90914, Note_on_c, 0, 74, 0
5, 90916, Note_on_c, 0, 62, 0
5, 90919, Note_on_c, 0, 79, 0
5, 90958, Note_on_c, 0, 55, 87
5, 90959, Note_on_c, 0, 72, 80
5, 90959, Note_on_c, 0, 77, 79
5, 90959, Note_on_c, 0, 65, 81
5, 90960, Note_on_c, 0, 81, 75
5, 90960, Note_on_c, 0, 61, 69
5, 90960, Note_on_c, 0, 84, 77
5, 90967, Note_on_c, 0, 72, 0
5, 90970, Note_on_c, 0, 65, 0
5, 90971, Note_on_c, 0, 77, 0
5, 90974, Note_on_c, 0, 81, 0
5, 90974, Note_on_c, 0, 84, 0
5, 90977, Note_on_c, 0, 55, 0
5, 90979, Note_on_c, 0, 61, 0
5, 91022, Note_on_c, 0, 72, 90
5, 91022, Note_on_c, 0, 77, 88
5, 91022, Note_on_c, 0, 84, 84
5, 91022, Note_on_c, 0, 81, 82
5, 91024, Note_on_c, 0, 55, 91
5, 91024, Note_on_c, 0, 61, 80
5, 91024, Note_on_c, 0, 65, 82
5, 91059, Control_c, 0, 64, 127
5, 91109, Note_on_c, 0, 84, 0
5, 91118, Note_on_c, 0, 65, 0
5, 91120, Note_on_c, 0, 81, 0
5, 91121, Note_on_c, 0, 72, 0
5, 91122, Note_on_c, 0, 77, 0
5, 91126, Note_on_c, 0, 55, 0
5, 91128, Note_on_c, 0, 61, 0
5, 91203, Note_on_c, 0, 50, 67
5, 91204, Note_on_c, 0, 57, 73
5, 91204, Note_on_c, 0, 72, 83
5, 91204, Note_on_c, 0, 79, 76
5, 91204, Note_on_c, 0, 67, 91
5, 91204, Note_on_c, 0, 76, 71
5, 91205, Note_on_c, 0, 53, 58
5, 91205, Note_on_c, 0, 60, 78
5, 91205, Control_c, 0, 64, 0
5, 91219, Note_on_c, 0, 67, 0
5, 91221, Note_on_c, 0, 72, 0
5, 91223, Note_on_c, 0, 60, 0
5, 91225, Note_on_c, 0, 79, 0
5, 91225, Note_on_c, 0, 76, 0
5, 91227, Note_on_c, 0, 57, 0
5, 91236, Note_on_c, 0, 60, 67
5, 91238, Note_on_c, 0, 79, 62
5, 91238, Note_on_c, 0, 57, 59
5, 91238, Note_on_c, 0, 76, 62
5, 91238, Note_on_c, 0, 67, 59
5, 91239, Note_on_c, 0, 72, 50
5, 91250, Note_on_c, 0, 67, 0
5, 91251, Note_on_c, 0, 60, 0
5, 91252, Note_on_c, 0, 72, 0
5, 91253, Note_on_c, 0, 57, 0
5, 91254, Note_on_c, 0, 79, 0
5, 91257, Note_on_c, 0, 76, 0
5, 91263, Note_on_c, 0, 79, 33
5, 91264, Note_on_c, 0, 67, 50
5, 91264, Note_on_c, 0, 60, 68
5, 91264, Note_on_c, 0, 72, 46
5, 91265, Note_on_c, 0, 76, 44
5, 91266, Note_on_c, 0, 57, 62
5, 91276, Note_on_c, 0, 57, 0
5, 91277, Note_on_c, 0, 60, 0
5, 91277, Note_on_c, 0, 67, 0
5, 91278, Note_on_c, 0, 72, 0
5, 91280, Note_on_c, 0, 79, 0
5, 91283, Note_on_c, 0, 53, 0
5, 91283, Note_on_c, 0, 50, 0
5, 91283, Note_on_c, 0, 76, 0
5, 91296, Note_on_c, 0, 79, 49
5, 91296, Note_on_c, 0, 76, 68
5, 91297, Note_on_c, 0, 67, 74
5, 91297, Note_on_c, 0, 72, 65
5, 91297, Note_on_c, 0, 60, 73
5, 91298, Note_on_c, 0, 50, 53
5, 91300, Note_on_c, 0, 53, 61
5, 91301, Note_on_c, 0, 57, 58
5, 91308, Note_on_c, 0, 57, 0
5, 91308, Note_on_c, 0, 67, 0
5, 91309, Note_on_c, 0, 60, 0
5, 91310, Note_on_c, 0, 72, 0
5, 91312, Note_on_c, 0, 79, 0
5, 91312, Note_on_c, 0, 50, 0
5, 91314, Note_on_c, 0, 76, 0
5, 91316, Note_on_c, 0, 53, 0
5, 91322, Note_on_c, 0, 60, 73
5, 91323, Note_on_c, 0, 57, 66
5, 91323, Note_on_c, 0, 50, 52
5, 91324, Note_on_c, 0, 67, 62
5, 91324, Note_on_c, 0, 79, 60
5, 91324, Note_on_c, 0, 72, 50
5, 91324, Note_on_c, 0, 53, 31
5, 91325, Note_on_c, 0, 76, 65
5, 91336, Note_on_c, 0, 60, 0
5, 91337, Note_on_c, 0, 67, 0
5, 91337, Note_on_c, 0, 72, 0
5, 91339, Note_on_c, 0, 57, 0
5, 91339, Note_on_c, 0, 50, 0
5, 91341, Note_on_c, 0, 79, 0
5, 91343, Note_on_c, 0, 76, 0
5, 91345, Note_on_c, 0, 53, 0
5, 91374, Note_on_c, 0, 79, 66
5, 91375, Note_on_c, 0, 67, 66
5, 91375, Note_on_c, 0, 57, 71
5, 91376, Note_on_c, 0, 76, 46
5, 91376, Note_on_c, 0, 60, 68
5, 91377, Note_on_c, 0, 72, 40
5, 91379, Note_on_c, 0, 53, 36
5, 91380, Note_on_c, 0, 50, 20
5, 91381, Note_on_c, 0, 67, 0
5, 91381, Note_on_c, 0, 77, 41
5, 91382, Note_on_c, 0, 60, 0
5, 91384, Note_on_c, 0, 76, 0
5, 91384, Note_on_c, 0, 72, 0
5, 91386, Note_on_c, 0, 50, 0
5, 91387, Note_on_c, 0, 53, 0
5, 91389, Note_on_c, 0, 77, 0
5, 91390, Note_on_c, 0, 57, 0
5, 91391, Note_on_c, 0, 79, 0
5, 91401, Control_c, 0, 64, 127
5, 91424, Control_c, 0, 64, 0
5, 91438, Note_on_c, 0, 88, 81
5, 91439, Note_on_c, 0, 76, 80
5, 91439, Note_on_c, 0, 80, 74
5, 91439, Note_on_c, 0, 53, 76
5, 91439, Note_on_c, 0, 83, 71
5, 91441, Note_on_c, 0, 64, 78
5, 91441, Note_on_c, 0, 59, 75
5, 91442, Note_on_c, 0, 86, 62
5, 91448, Note_on_c, 0, 86, 0
5, 91449, Note_on_c, 0, 80, 0
5, 91450, Note_on_c, 0, 76, 0
5, 91452, Note_on_c, 0, 83, 0
5, 91452, Note_on_c, 0, 88, 0
5, 91452, Note_on_c, 0, 64, 0
5, 91454, Note_on_c, 0, 53, 0
5, 91456, Note_on_c, 0, 59, 0
5, 91499, Note_on_c, 0, 88, 78
5, 91500, Note_on_c, 0, 83, 80
5, 91500, Note_on_c, 0, 76, 85
5, 91501, Note_on_c, 0, 80, 60
5, 91501, Note_on_c, 0, 53, 74
5, 91502, Note_on_c, 0, 59, 70
5, 91502, Note_on_c, 0, 64, 79
5, 91504, Note_on_c, 0, 86, 66
5, 91509, Control_c, 0, 64, 127
5, 91549, Note_on_c, 0, 64, 0
5, 91552, Note_on_c, 0, 59, 0
5, 91558, Note_on_c, 0, 88, 0
5, 91561, Note_on_c, 0, 86, 0
5, 91566, Note_on_c, 0, 80, 0
5, 91566, Note_on_c, 0, 53, 0
5, 91568, Note_on_c, 0, 83, 0
5, 91572, Note_on_c, 0, 76, 0
5, 91681, Note_on_c, 0, 44, 83
5, 91682, Note_on_c, 0, 51, 82
5, 91682, Note_on_c, 0, 67, 99
5, 91682, Note_on_c, 0, 72, 87
5, 91682, Note_on_c, 0, 60, 105
5, 91683, Control_c, 0, 64, 0
5, 91715, Control_c, 0, 64, 127
5, 91736, Note_on_c, 0, 60, 0
5, 91742, Note_on_c, 0, 44, 0
5, 91748, Note_on_c, 0, 51, 0
5, 91750, Note_on_c, 0, 67, 0
5, 91754, Note_on_c, 0, 72, 0
5, 91803, Note_on_c, 0, 77, 81
5, 91804, Note_on_c, 0, 84, 84
5, 91805, Note_on_c, 0, 72, 76
5, 91805, Note_on_c, 0, 53, 70
5, 91806, Note_on_c, 0, 63, 77
5, 91807, Note_on_c, 0, 58, 63
5, 91837, Note_on_c, 0, 72, 0
5, 91842, Note_on_c, 0, 53, 0
5, 91848, Note_on_c, 0, 77, 0
5, 91849, Note_on_c, 0, 63, 0
5, 91852, Note_on_c, 0, 84, 0
5, 91856, Note_on_c, 0, 58, 0
5, 91921, Note_on_c, 0, 92, 67
5, 91921, Note_on_c, 0, 55, 80
5, 91921, Note_on_c, 0, 96, 82
5, 91921, Note_on_c, 0, 89, 80
5, 91922, Note_on_c, 0, 65, 75
5, 91922, Note_on_c, 0, 84, 78
5, 91923, Note_on_c, 0, 60, 73
5, 91954, Note_on_c, 0, 96, 0
5, 91961, Note_on_c, 0, 92, 0
5, 91963, Note_on_c, 0, 89, 0
5, 91966, Note_on_c, 0, 65, 0
5, 91967, Note_on_c, 0, 84, 0
5, 91969, Note_on_c, 0, 55, 0
5, 91972, Note_on_c, 0, 60, 0
5, 92041, Note_on_c, 0, 53, 68
5, 92041, Note_on_c, 0, 72, 55
5, 92041, Note_on_c, 0, 63, 71
5, 92043, Note_on_c, 0, 65, 74
5, 92044, Note_on_c, 0, 58, 56
5, 92045, Control_c, 0, 64, 0
5, 92058, Control_c, 0, 64, 127
5, 92062, Note_on_c, 0, 63, 0
5, 92076, Note_on_c, 0, 53, 0
5, 92078, Note_on_c, 0, 58, 0
5, 92096, Note_on_c, 0, 65, 0
5, 92097, Note_on_c, 0, 72, 0
5, 92122, Note_on_c, 0, 66, 31
5, 92141, Note_on_c, 0, 66, 0
5, 92157, Note_on_c, 0, 70, 71
5, 92158, Note_on_c, 0, 60, 71
5, 92158, Note_on_c, 0, 65, 77
5, 92158, Note_on_c, 0, 44, 74
5, 92158, Note_on_c, 0, 37, 67
5, 92162, Control_c, 0, 64, 0
5, 92192, Note_on_c, 0, 60, 0
5, 92196, Control_c, 0, 64, 127
5, 92203, Note_on_c, 0, 65, 0
5, 92204, Note_on_c, 0, 37, 0
5, 92208, Note_on_c, 0, 70, 0
5, 92210, Note_on_c, 0, 44, 0
5, 92275, Note_on_c, 0, 75, 76
5, 92276, Note_on_c, 0, 68, 76
5, 92277, Note_on_c, 0, 63, 81
5, 92278, Note_on_c, 0, 72, 59
5, 92278, Note_on_c, 0, 65, 74
5, 92309, Note_on_c, 0, 65, 0
5, 92322, Note_on_c, 0, 68, 0
5, 92323, Note_on_c, 0, 72, 0
5, 92324, Note_on_c, 0, 63, 0
5, 92332, Note_on_c, 0, 75, 0
5, 92399, Note_on_c, 0, 63, 74
5, 92400, Note_on_c, 0, 77, 74
5, 92400, Note_on_c, 0, 80, 74
5, 92401, Note_on_c, 0, 72, 68
5, 92406, Note_on_c, 0, 58, 45
5, 92408, Control_c, 0, 64, 0
5, 92420, Control_c, 0, 64, 127
5, 92448, Note_on_c, 0, 80, 0
5, 92448, Note_on_c, 0, 77, 0
5, 92453, Note_on_c, 0, 63, 0
5, 92454, Note_on_c, 0, 72, 0
5, 92497, Note_on_c, 0, 58, 0
5, 92517, Note_on_c, 0, 75, 56
5, 92519, Note_on_c, 0, 53, 50
5, 92520, Note_on_c, 0, 68, 53
5, 92520, Note_on_c, 0, 72, 50
5, 92521, Note_on_c, 0, 65, 55
5, 92545, Note_on_c, 0, 53, 0
5, 92554, Note_on_c, 0, 72, 0
5, 92557, Note_on_c, 0, 75, 0
5, 92561, Note_on_c, 0, 65, 0
5, 92562, Note_on_c, 0, 68, 0
5, 92643, Control_c, 0, 64, 0
5, 92644, Note_on_c, 0, 63, 69
5, 92645, Note_on_c, 0, 58, 73
5, 92646, Note_on_c, 0, 30, 64
5, 92646, Note_on_c, 0, 52, 72
5, 92646, Note_on_c, 0, 42, 71
5, 92674, Control_c, 0, 64, 127
5, 92682, Note_on_c, 0, 52, 0
5, 92689, Note_on_c, 0, 30, 0
5, 92696, Note_on_c, 0, 58, 0
5, 92698, Note_on_c, 0, 63, 0
5, 92698, Note_on_c, 0, 42, 0
5, 92768, Note_on_c, 0, 75, 58
5, 92770, Note_on_c, 0, 68, 53
5, 92772, Note_on_c, 0, 64, 46
5, 92772, Note_on_c, 0, 63, 62
5, 92772, Note_on_c, 0, 72, 41
5, 92792, Note_on_c, 0, 64, 0
5, 92805, Note_on_c, 0, 63, 0
5, 92810, Note_on_c, 0, 68, 0
5, 92811, Note_on_c, 0, 72, 0
5, 92820, Note_on_c, 0, 75, 0
5, 92891, Note_on_c, 0, 87, 64
5, 92892, Note_on_c, 0, 75, 52
5, 92892, Note_on_c, 0, 80, 55
5, 92893, Note_on_c, 0, 84, 63
5, 92897, Note_on_c, 0, 76, 44
5, 92916, Note_on_c, 0, 75, 0
5, 92938, Note_on_c, 0, 84, 0
5, 92963, Note_on_c, 0, 80, 0
5, 92966, Note_on_c, 0, 76, 0
5, 92980, Note_on_c, 0, 87, 0
5, 93004, Note_on_c, 0, 85, 67
5, 93006, Note_on_c, 0, 80, 53
5, 93008, Note_on_c, 0, 76, 42
5, 93025, Note_on_c, 0, 85, 0
5, 93029, Note_on_c, 0, 80, 0
5, 93033, Note_on_c, 0, 76, 0
5, 93125, Note_on_c, 0, 70, 57
5, 93126, Note_on_c, 0, 63, 50
5, 93127, Note_on_c, 0, 66, 49
5, 93127, Note_on_c, 0, 59, 51
5, 93128, Note_on_c, 0, 56, 49
5, 93137, Control_c, 0, 64, 0
5, 93173, Control_c, 0, 64, 127
5, 93216, Note_on_c, 0, 59, 0
5, 93224, Note_on_c, 0, 63, 0
5, 93227, Note_on_c, 0, 66, 0
5, 93232, Note_on_c, 0, 70, 0
5, 93238, Note_on_c, 0, 56, 0
5, 93243, Note_on_c, 0, 54, 50
5, 93244, Note_on_c, 0, 59, 50
5, 93245, Note_on_c, 0, 63, 42
5, 93245, Note_on_c, 0, 68, 52
5, 93247, Note_on_c, 0, 66, 42
5, 93253, Control_c, 0, 64, 0
5, 93286, Control_c, 0, 64, 127
5, 93317, Note_on_c, 0, 66, 0
5, 93320, Note_on_c, 0, 59, 0
5, 93321, Note_on_c, 0, 63, 0
5, 93353, Note_on_c, 0, 68, 0
5, 93362, Note_on_c, 0, 47, 48
5, 93363, Note_on_c, 0, 63, 46
5, 93364, Control_c, 0, 64, 0
5, 93364, Note_on_c, 0, 66, 57
5, 93365, Note_on_c, 0, 59, 50
5, 93388, Control_c, 0, 64, 127
5, 93426, Note_on_c, 0, 54, 0
5, 93437, Note_on_c, 0, 59, 0
5, 93442, Note_on_c, 0, 63, 0
5, 93473, Note_on_c, 0, 66, 0
5, 93477, Note_on_c, 0, 54, 37
5, 93480, Note_on_c, 0, 63, 50
5, 93483, Note_on_c, 0, 59, 47
5, 93488, Note_on_c, 0, 54, 0
5, 93495, Note_on_c, 0, 47, 0
5, 93545, Note_on_c, 0, 59, 0
5, 93582, Note_on_c, 0, 63, 0
5, 93601, Note_on_c, 0, 24, 72
5, 93605, Note_on_c, 0, 62, 81
5, 93606, Note_on_c, 0, 66, 77
5, 93607, Note_on_c, 0, 36, 66
5, 93607, Note_on_c, 0, 57, 71
5, 93613, Control_c, 0, 64, 0
5, 93621, Note_on_c, 0, 57, 0
5, 93642, Control_c, 0, 64, 127
5, 93644, Note_on_c, 0, 62, 0
5, 93644, Note_on_c, 0, 57, 37
5, 93648, Note_on_c, 0, 36, 0
5, 93652, Note_on_c, 0, 66, 0
5, 93667, Note_on_c, 0, 57, 0
5, 93667, Note_on_c, 0, 62, 42
5, 93675, Note_on_c, 0, 66, 25
5, 93676, Note_on_c, 0, 36, 31
5, 93687, Note_on_c, 0, 24, 0
5, 93690, Note_on_c, 0, 62, 0
5, 93692, Note_on_c, 0, 66, 0
5, 93693, Note_on_c, 0, 57, 30
5, 93700, Note_on_c, 0, 36, 0
5, 93709, Note_on_c, 0, 57, 0
5, 93711, Note_on_c, 0, 62, 44
5, 93731, Note_on_c, 0, 62, 0
5, 93731, Note_on_c, 0, 57, 36
5, 93748, Note_on_c, 0, 57, 0
5, 93749, Note_on_c, 0, 62, 53
5, 93765, Note_on_c, 0, 48, 39
5, 93771, Note_on_c, 0, 62, 0
5, 93771, Note_on_c, 0, 57, 37
5, 93786, Note_on_c, 0, 57, 0
5, 93790, Note_on_c, 0, 62, 34
5, 93795, Note_on_c, 0, 64, 33
5, 93804, Note_on_c, 0, 62, 0
5, 93808, Note_on_c, 0, 57, 36
5, 93810, Note_on_c, 0, 64, 0
5, 93825, Note_on_c, 0, 57, 0
5, 93827, Note_on_c, 0, 62, 32
5, 93828, Note_on_c, 0, 64, 42
5, 93844, Note_on_c, 0, 62, 0
5, 93846, Note_on_c, 0, 57, 42
5, 93847, Note_on_c, 0, 64, 0
5, 93863, Note_on_c, 0, 57, 0
5, 93863, Note_on_c, 0, 62, 44
5, 93866, Note_on_c, 0, 64, 42
5, 93867, Note_on_c, 0, 52, 30
5, 93872, Note_on_c, 0, 48, 0
5, 93881, Note_on_c, 0, 62, 0
5, 93882, Note_on_c, 0, 64, 0
5, 93883, Note_on_c, 0, 57, 40
5, 93900, Note_on_c, 0, 57, 0
5, 93902, Note_on_c, 0, 62, 45
5, 93904, Note_on_c, 0, 64, 31
5, 93919, Note_on_c, 0, 64, 0
5, 93919, Note_on_c, 0, 62, 0
5, 93920, Note_on_c, 0, 57, 39
5, 93937, Note_on_c, 0, 57, 0
5, 93938, Note_on_c, 0, 62, 46
5, 93941, Note_on_c, 0, 64, 33
5, 93954, Note_on_c, 0, 64, 0
5, 93957, Note_on_c, 0, 62, 0
5, 93957, Note_on_c, 0, 57, 47
5, 93959, Note_on_c, 0, 52, 0
5, 93959, Note_on_c, 0, 54, 58
5, 93974, Note_on_c, 0, 57, 0
5, 93974, Note_on_c, 0, 62, 42
5, 93977, Note_on_c, 0, 64, 35
5, 93991, Note_on_c, 0, 64, 0
5, 93992, Note_on_c, 0, 62, 0
5, 93994, Note_on_c, 0, 57, 44
5, 94010, Note_on_c, 0, 57, 0
5, 94011, Note_on_c, 0, 62, 49
5, 94013, Note_on_c, 0, 64, 32
5, 94026, Note_on_c, 0, 64, 0
5, 94028, Note_on_c, 0, 62, 0
5, 94030, Note_on_c, 0, 57, 50
5, 94046, Note_on_c, 0, 57, 0
5, 94046, Note_on_c, 0, 62, 55
5, 94049, Note_on_c, 0, 64, 35
5, 94054, Note_on_c, 0, 54, 0
5, 94063, Note_on_c, 0, 55, 73
5, 94064, Note_on_c, 0, 64, 0
5, 94064, Note_on_c, 0, 57, 53
5, 94066, Note_on_c, 0, 62, 0
5, 94080, Note_on_c, 0, 62, 32
5, 94081, Note_on_c, 0, 57, 0
5, 94084, Note_on_c, 0, 64, 42
5, 94094, Note_on_c, 0, 64, 0
5, 94097, Note_on_c, 0, 57, 44
5, 94098, Note_on_c, 0, 62, 0
5, 94110, Note_on_c, 0, 54, 55
5, 94113, Note_on_c, 0, 55, 0
5, 94114, Note_on_c, 0, 62, 49
5, 94115, Note_on_c, 0, 57, 0
5, 94117, Note_on_c, 0, 64, 38
5, 94135, Note_on_c, 0, 64, 0
5, 94135, Note_on_c, 0, 62, 0
5, 94135, Note_on_c, 0, 57, 53
5, 94151, Note_on_c, 0, 62, 49
5, 94152, Note_on_c, 0, 57, 0
5, 94153, Note_on_c, 0, 64, 43
5, 94166, Note_on_c, 0, 54, 0
5, 94171, Note_on_c, 0, 52, 43
5, 94172, Note_on_c, 0, 57, 57
5, 94173, Note_on_c, 0, 64, 0
5, 94173, Note_on_c, 0, 62, 0
5, 94182, Control_c, 0, 64, 0
5, 94189, Note_on_c, 0, 62, 43
5, 94190, Note_on_c, 0, 57, 0
5, 94193, Note_on_c, 0, 64, 44
5, 94194, Control_c, 0, 64, 127
5, 94208, Note_on_c, 0, 57, 48
5, 94210, Note_on_c, 0, 62, 0
5, 94212, Note_on_c, 0, 64, 0
5, 94225, Note_on_c, 0, 47, 44
5, 94227, Note_on_c, 0, 52, 0
5, 94227, Note_on_c, 0, 62, 38
5, 94228, Note_on_c, 0, 57, 0
5, 94230, Note_on_c, 0, 64, 40
5, 94245, Note_on_c, 0, 57, 47
5, 94246, Note_on_c, 0, 62, 0
5, 94248, Note_on_c, 0, 64, 0
5, 94264, Note_on_c, 0, 57, 0
5, 94264, Note_on_c, 0, 62, 38
5, 94268, Note_on_c, 0, 64, 41
5, 94281, Note_on_c, 0, 47, 0
5, 94282, Note_on_c, 0, 50, 45
5, 94284, Note_on_c, 0, 57, 50
5, 94285, Note_on_c, 0, 64, 0
5, 94285, Note_on_c, 0, 62, 0
5, 94303, Note_on_c, 0, 62, 27
5, 94305, Note_on_c, 0, 57, 0
5, 94305, Note_on_c, 0, 64, 36
5, 94323, Note_on_c, 0, 64, 0
5, 94324, Note_on_c, 0, 62, 0
5, 94324, Note_on_c, 0, 57, 49
5, 94325, Note_on_c, 0, 50, 0
5, 94340, Note_on_c, 0, 48, 57
5, 94340, Note_on_c, 0, 62, 22
5, 94343, Note_on_c, 0, 64, 40
5, 94344, Note_on_c, 0, 57, 0
5, 94348, Control_c, 0, 64, 0
5, 94361, Note_on_c, 0, 57, 44
5, 94362, Note_on_c, 0, 64, 0
5, 94363, Note_on_c, 0, 62, 0
5, 94381, Note_on_c, 0, 57, 0
5, 94381, Note_on_c, 0, 62, 28
5, 94383, Note_on_c, 0, 64, 35
5, 94393, Note_on_c, 0, 43, 41
5, 94397, Note_on_c, 0, 64, 0
5, 94397, Note_on_c, 0, 62, 0
5, 94399, Note_on_c, 0, 57, 39
5, 94404, Control_c, 0, 64, 127
5, 94412, Note_on_c, 0, 48, 0
5, 94415, Note_on_c, 0, 57, 0
5, 94416, Note_on_c, 0, 62, 32
5, 94419, Note_on_c, 0, 64, 29
5, 94434, Note_on_c, 0, 62, 0
5, 94434, Note_on_c, 0, 57, 36
5, 94435, Note_on_c, 0, 64, 0
5, 94441, Note_on_c, 0, 43, 0
5, 94442, Note_on_c, 0, 36, 32
5, 94452, Note_on_c, 0, 57, 0
5, 94452, Note_on_c, 0, 62, 27
5, 94457, Note_on_c, 0, 36, 0
5, 94457, Note_on_c, 0, 64, 25
5, 94469, Note_on_c, 0, 64, 0
5, 94470, Note_on_c, 0, 62, 0
5, 94470, Note_on_c, 0, 57, 40
5, 94488, Note_on_c, 0, 62, 24
5, 94491, Note_on_c, 0, 57, 0
5, 94491, Note_on_c, 0, 64, 29
5, 94509, Note_on_c, 0, 57, 46
5, 94509, Note_on_c, 0, 24, 39
5, 94515, Note_on_c, 0, 36, 1
5, 94527, Control_c, 0, 64, 0
5, 94557, Control_c, 0, 64, 127
5, 94586, Note_on_c, 0, 57, 0
5, 94594, Note_on_c, 0, 62, 0
5, 94594, Note_on_c, 0, 64, 0
5, 94621, Note_on_c, 0, 24, 0
5, 94622, Note_on_c, 0, 36, 0
5, 94719, Control_c, 0, 64, 0
5, 94719, End_track
6, 0, Start_track
6, 0, Title_t, "dougmck@pipeline.com.au"
6, 0, Program_c, 1, 32
6, 0, Control_c, 1, 7, 115
6, 485, Note_on_c, 1, 35, 76
6, 656, Note_on_c, 1, 47, 90
6, 685, Note_on_c, 1, 47, 0
6, 718, Note_on_c, 1, 47, 77
6, 735, Note_on_c, 1, 35, 0
6, 756, Note_on_c, 1, 35, 13
6, 885, Note_on_c, 1, 35, 0
6, 890, Note_on_c, 1, 40, 74
6, 899, Note_on_c, 1, 47, 0
6, 943, Note_on_c, 1, 40, 0
6, 953, Note_on_c, 1, 40, 84
6, 1127, Note_on_c, 1, 40, 0
6, 1136, Note_on_c, 1, 40, 78
6, 1187, Note_on_c, 1, 40, 0
6, 1196, Note_on_c, 1, 40, 74
6, 1372, Note_on_c, 1, 33, 81
6, 1374, Note_on_c, 1, 40, 0
6, 1429, Note_on_c, 1, 33, 0
6, 1437, Note_on_c, 1, 33, 91
6, 1615, Note_on_c, 1, 31, 87
6, 1616, Note_on_c, 1, 33, 0
6, 1667, Note_on_c, 1, 31, 0
6, 1677, Note_on_c, 1, 31, 92
6, 1842, Note_on_c, 1, 31, 0
6, 1856, Note_on_c, 1, 31, 84
6, 1914, Note_on_c, 1, 31, 0
6, 1915, Note_on_c, 1, 29, 74
6, 2072, Note_on_c, 1, 29, 0
6, 2098, Note_on_c, 1, 29, 66
6, 2147, Note_on_c, 1, 29, 0
6, 2154, Note_on_c, 1, 28, 88
6, 2340, Note_on_c, 1, 40, 105
6, 2345, Note_on_c, 1, 34, 39
6, 2351, Note_on_c, 1, 34, 0
6, 2390, Note_on_c, 1, 40, 0
6, 2400, Note_on_c, 1, 28, 0
6, 2400, Note_on_c, 1, 38, 89
6, 2568, Note_on_c, 1, 38, 0
6, 2576, Note_on_c, 1, 38, 87
6, 2636, Note_on_c, 1, 36, 89
6, 2640, Note_on_c, 1, 38, 0
6, 2789, Note_on_c, 1, 36, 0
6, 2818, Note_on_c, 1, 36, 91
6, 2870, Note_on_c, 1, 36, 0
6, 2877, Note_on_c, 1, 35, 87
6, 3032, Note_on_c, 1, 35, 0
6, 3054, Note_on_c, 1, 35, 88
6, 3104, Note_on_c, 1, 35, 0
6, 3111, Note_on_c, 1, 31, 88
6, 3284, Note_on_c, 1, 31, 0
6, 3294, Note_on_c, 1, 35, 92
6, 3351, Note_on_c, 1, 35, 0
6, 3356, Note_on_c, 1, 36, 89
6, 3513, Note_on_c, 1, 36, 0
6, 3538, Note_on_c, 1, 36, 85
6, 3559, Note_on_c, 1, 36, 0
6, 3596, Note_on_c, 1, 36, 92
6, 3757, Note_on_c, 1, 36, 0
6, 3774, Note_on_c, 1, 36, 87
6, 3827, Note_on_c, 1, 36, 0
6, 3835, Note_on_c, 1, 35, 88
6, 3988, Note_on_c, 1, 35, 0
6, 4015, Note_on_c, 1, 35, 88
6, 4075, Note_on_c, 1, 35, 0
6, 4077, Note_on_c, 1, 40, 90
6, 4250, Note_on_c, 1, 40, 0
6, 4256, Note_on_c, 1, 35, 83
6, 4306, Note_on_c, 1, 35, 0
6, 4314, Note_on_c, 1, 33, 79
6, 4498, Note_on_c, 1, 45, 87
6, 4548, Note_on_c, 1, 45, 0
6, 4561, Note_on_c, 1, 45, 82
6, 4706, Note_on_c, 1, 33, 0
6, 4738, Note_on_c, 1, 33, 80
6, 4784, Note_on_c, 1, 33, 0
6, 4802, Note_on_c, 1, 33, 85
6, 4977, Note_on_c, 1, 38, 89
6, 4980, Note_on_c, 1, 33, 0
6, 4985, Note_on_c, 1, 45, 0
6, 5034, Note_on_c, 1, 38, 0
6, 5042, Note_on_c, 1, 38, 81
6, 5212, Note_on_c, 1, 31, 84
6, 5214, Note_on_c, 1, 38, 0
6, 5272, Note_on_c, 1, 31, 0
6, 5280, Note_on_c, 1, 31, 84
6, 5458, Note_on_c, 1, 43, 89
6, 5510, Note_on_c, 1, 43, 0
6, 5520, Note_on_c, 1, 43, 85
6, 5691, Note_on_c, 1, 31, 0
6, 5694, Note_on_c, 1, 38, 74
6, 5707, Note_on_c, 1, 43, 0
6, 5750, Note_on_c, 1, 38, 0
6, 5756, Note_on_c, 1, 36, 83
6, 5936, Note_on_c, 1, 48, 81
6, 5982, Note_on_c, 1, 48, 0
6, 5996, Note_on_c, 1, 48, 75
6, 6128, Note_on_c, 1, 36, 0
6, 6174, Note_on_c, 1, 48, 0
6, 6177, Note_on_c, 1, 36, 70
6, 6239, Note_on_c, 1, 36, 0
6, 6239, Note_on_c, 1, 45, 76
6, 6414, Note_on_c, 1, 33, 62
6, 6430, Note_on_c, 1, 45, 0
6, 6449, Note_on_c, 1, 45, 13
6, 6462, Note_on_c, 1, 45, 0
6, 6477, Note_on_c, 1, 33, 0
6, 6477, Note_on_c, 1, 38, 87
6, 6658, Note_on_c, 1, 43, 84
6, 6670, Note_on_c, 1, 38, 0
6, 6708, Note_on_c, 1, 43, 0
6, 6718, Note_on_c, 1, 43, 82
6, 6891, Note_on_c, 1, 36, 68
6, 6902, Note_on_c, 1, 43, 0
6, 6943, Note_on_c, 1, 36, 0
6, 6956, Note_on_c, 1, 36, 74
6, 7136, Note_on_c, 1, 41, 79
6, 7142, Note_on_c, 1, 36, 0
6, 7190, Note_on_c, 1, 41, 0
6, 7202, Note_on_c, 1, 41, 80
6, 7379, Note_on_c, 1, 40, 81
6, 7385, Note_on_c, 1, 41, 0
6, 7434, Note_on_c, 1, 40, 0
6, 7445, Note_on_c, 1, 40, 85
6, 7610, Note_on_c, 1, 40, 0
6, 7618, Note_on_c, 1, 38, 92
6, 7842, Note_on_c, 1, 38, 0
6, 7851, Note_on_c, 1, 38, 48
6, 7910, Note_on_c, 1, 38, 0
6, 7916, Note_on_c, 1, 36, 85
6, 8080, Note_on_c, 1, 36, 0
6, 8097, Note_on_c, 1, 36, 80
6, 8149, Note_on_c, 1, 36, 0
6, 8156, Note_on_c, 1, 35, 80
6, 8319, Note_on_c, 1, 35, 0
6, 8338, Note_on_c, 1, 35, 76
6, 8385, Note_on_c, 1, 35, 0
6, 8397, Note_on_c, 1, 35, 71
6, 8544, Note_on_c, 1, 35, 0
6, 8578, Note_on_c, 1, 35, 73
6, 8637, Note_on_c, 1, 35, 0
6, 8638, Note_on_c, 1, 40, 87
6, 8791, Note_on_c, 1, 40, 0
6, 8816, Note_on_c, 1, 40, 81
6, 8867, Note_on_c, 1, 40, 0
6, 8877, Note_on_c, 1, 40, 73
6, 9055, Note_on_c, 1, 35, 68
6, 9082, Note_on_c, 1, 40, 0
6, 9106, Note_on_c, 1, 35, 0
6, 9117, Note_on_c, 1, 33, 73
6, 9275, Note_on_c, 1, 33, 0
6, 9295, Note_on_c, 1, 33, 80
6, 9344, Note_on_c, 1, 33, 0
6, 9355, Note_on_c, 1, 31, 81
6, 9535, Note_on_c, 1, 43, 88
6, 9545, Note_on_c, 1, 31, 0
6, 9598, Note_on_c, 1, 41, 81
6, 9607, Note_on_c, 1, 43, 0
6, 9763, Note_on_c, 1, 41, 0
6, 9779, Note_on_c, 1, 41, 73
6, 9825, Note_on_c, 1, 41, 0
6, 9842, Note_on_c, 1, 40, 64
6, 9955, Note_on_c, 1, 28, 78
6, 10061, Note_on_c, 1, 40, 0
6, 10078, Note_on_c, 1, 28, 0
6, 10079, Note_on_c, 1, 38, 74
6, 10244, Note_on_c, 1, 38, 0
6, 10258, Note_on_c, 1, 38, 80
6, 10312, Note_on_c, 1, 38, 0
6, 10320, Note_on_c, 1, 36, 84
6, 10465, Note_on_c, 1, 36, 0
6, 10498, Note_on_c, 1, 36, 89
6, 10550, Note_on_c, 1, 36, 0
6, 10556, Note_on_c, 1, 35, 80
6, 10697, Note_on_c, 1, 35, 0
6, 10736, Note_on_c, 1, 35, 84
6, 10788, Note_on_c, 1, 35, 0
6, 10795, Note_on_c, 1, 31, 80
6, 10966, Note_on_c, 1, 31, 0
6, 10973, Note_on_c, 1, 35, 75
6, 11031, Note_on_c, 1, 35, 0
6, 11036, Note_on_c, 1, 36, 90
6, 11185, Note_on_c, 1, 36, 0
6, 11213, Note_on_c, 1, 36, 88
6, 11240, Note_on_c, 1, 36, 0
6, 11275, Note_on_c, 1, 36, 90
6, 11453, Note_on_c, 1, 30, 86
6, 11454, Note_on_c, 1, 36, 0
6, 11578, Note_on_c, 1, 42, 88
6, 11805, Note_on_c, 1, 42, 0
6, 11816, Note_on_c, 1, 30, 0
6, 11820, Note_on_c, 1, 42, 19
6, 11820, Note_on_c, 1, 37, 43
6, 11863, Note_on_c, 1, 37, 0
6, 11880, Note_on_c, 1, 30, 68
6, 11918, Note_on_c, 1, 30, 0
6, 11937, Note_on_c, 1, 42, 0
6, 11938, Note_on_c, 1, 30, 69
6, 11987, Note_on_c, 1, 30, 0
6, 11999, Note_on_c, 1, 29, 75
6, 12179, Note_on_c, 1, 41, 78
6, 12230, Note_on_c, 1, 41, 0
6, 12240, Note_on_c, 1, 41, 83
6, 12410, Note_on_c, 1, 29, 0
6, 12410, Note_on_c, 1, 34, 67
6, 12421, Note_on_c, 1, 41, 0
6, 12465, Note_on_c, 1, 34, 0
6, 12476, Note_on_c, 1, 34, 79
6, 12640, Note_on_c, 1, 34, 0
6, 12659, Note_on_c, 1, 34, 83
6, 12706, Note_on_c, 1, 34, 0
6, 12719, Note_on_c, 1, 34, 78
6, 12868, Note_on_c, 1, 34, 0
6, 12897, Note_on_c, 1, 34, 80
6, 12958, Note_on_c, 1, 40, 88
6, 12959, Note_on_c, 1, 34, 0
6, 13116, Note_on_c, 1, 40, 0
6, 13136, Note_on_c, 1, 40, 80
6, 13191, Note_on_c, 1, 40, 0
6, 13198, Note_on_c, 1, 40, 74
6, 13342, Note_on_c, 1, 40, 0
6, 13372, Note_on_c, 1, 40, 71
6, 13427, Note_on_c, 1, 40, 0
6, 13438, Note_on_c, 1, 41, 83
6, 13617, Note_on_c, 1, 29, 73
6, 13666, Note_on_c, 1, 29, 0
6, 13678, Note_on_c, 1, 29, 66
6, 13817, Note_on_c, 1, 41, 0
6, 13850, Note_on_c, 1, 41, 74
6, 13896, Note_on_c, 1, 41, 0
6, 13914, Note_on_c, 1, 40, 75
6, 13916, Note_on_c, 1, 29, 0
6, 14084, Note_on_c, 1, 40, 0
6, 14093, Note_on_c, 1, 39, 45
6, 14150, Note_on_c, 1, 39, 0
6, 14159, Note_on_c, 1, 39, 78
6, 14318, Note_on_c, 1, 39, 0
6, 14337, Note_on_c, 1, 39, 82
6, 14395, Note_on_c, 1, 39, 0
6, 14397, Note_on_c, 1, 38, 83
6, 14546, Note_on_c, 1, 38, 0
6, 14573, Note_on_c, 1, 38, 80
6, 14630, Note_on_c, 1, 38, 0
6, 14634, Note_on_c, 1, 31, 85
6, 14818, Note_on_c, 1, 38, 80
6, 14863, Note_on_c, 1, 31, 0
6, 14866, Note_on_c, 1, 38, 0
6, 14877, Note_on_c, 1, 36, 82
6, 15025, Note_on_c, 1, 36, 0
6, 15055, Note_on_c, 1, 36, 88
6, 15098, Note_on_c, 1, 36, 0
6, 15118, Note_on_c, 1, 36, 74
6, 15230, Note_on_c, 1, 50, 73
6, 15261, Note_on_c, 1, 36, 0
6, 15289, Note_on_c, 1, 48, 60
6, 15301, Note_on_c, 1, 50, 0
6, 15352, Note_on_c, 1, 48, 0
6, 15353, Note_on_c, 1, 42, 83
6, 15417, Note_on_c, 1, 37, 74
6, 15439, Note_on_c, 1, 42, 0
6, 15464, Note_on_c, 1, 37, 0
6, 15471, Note_on_c, 1, 30, 76
6, 15658, Note_on_c, 1, 42, 91
6, 15711, Note_on_c, 1, 30, 0
6, 15775, Note_on_c, 1, 30, 52
6, 15786, Note_on_c, 1, 42, 0
6, 15832, Note_on_c, 1, 30, 0
6, 15833, Note_on_c, 1, 35, 80
6, 16019, Note_on_c, 1, 47, 87
6, 16067, Note_on_c, 1, 47, 0
6, 16079, Note_on_c, 1, 47, 73
6, 16096, Note_on_c, 1, 35, 0
6, 16255, Note_on_c, 1, 40, 71
6, 16298, Note_on_c, 1, 47, 0
6, 16303, Note_on_c, 1, 40, 0
6, 16315, Note_on_c, 1, 40, 75
6, 16480, Note_on_c, 1, 40, 0
6, 16490, Note_on_c, 1, 40, 72
6, 16541, Note_on_c, 1, 40, 0
6, 16553, Note_on_c, 1, 40, 74
6, 16735, Note_on_c, 1, 33, 68
6, 16738, Note_on_c, 1, 40, 0
6, 16789, Note_on_c, 1, 33, 0
6, 16800, Note_on_c, 1, 33, 74
6, 16977, Note_on_c, 1, 45, 79
6, 17022, Note_on_c, 1, 45, 0
6, 17037, Note_on_c, 1, 43, 79
6, 17047, Note_on_c, 1, 33, 0
6, 17200, Note_on_c, 1, 43, 0
6, 17216, Note_on_c, 1, 43, 74
6, 17276, Note_on_c, 1, 41, 84
6, 17282, Note_on_c, 1, 43, 0
6, 17440, Note_on_c, 1, 41, 0
6, 17458, Note_on_c, 1, 41, 83
6, 17502, Note_on_c, 1, 41, 0
6, 17519, Note_on_c, 1, 40, 62
6, 17582, Note_on_c, 1, 35, 60
6, 17590, Note_on_c, 1, 35, 0
6, 17635, Note_on_c, 1, 28, 84
6, 17735, Note_on_c, 1, 40, 0
6, 17752, Note_on_c, 1, 38, 88
6, 17754, Note_on_c, 1, 28, 0
6, 17910, Note_on_c, 1, 38, 0
6, 17936, Note_on_c, 1, 38, 87
6, 17987, Note_on_c, 1, 38, 0
6, 17997, Note_on_c, 1, 36, 87
6, 18162, Note_on_c, 1, 36, 0
6, 18178, Note_on_c, 1, 36, 79
6, 18231, Note_on_c, 1, 36, 0
6, 18238, Note_on_c, 1, 35, 79
6, 18376, Note_on_c, 1, 35, 0
6, 18416, Note_on_c, 1, 35, 84
6, 18467, Note_on_c, 1, 35, 0
6, 18477, Note_on_c, 1, 31, 80
6, 18533, Note_on_c, 1, 43, 80
6, 18578, Note_on_c, 1, 43, 0
6, 18591, Note_on_c, 1, 43, 71
6, 18619, Note_on_c, 1, 31, 0
6, 18656, Note_on_c, 1, 31, 64
6, 18698, Note_on_c, 1, 31, 0
6, 18712, Note_on_c, 1, 43, 0
6, 18714, Note_on_c, 1, 36, 83
6, 18900, Note_on_c, 1, 48, 85
6, 19114, Note_on_c, 1, 36, 0
6, 19135, Note_on_c, 1, 36, 72
6, 19239, Note_on_c, 1, 36, 0
6, 19250, Note_on_c, 1, 48, 0
6, 19258, Note_on_c, 1, 35, 76
6, 19361, Note_on_c, 1, 35, 0
6, 19381, Note_on_c, 1, 35, 67
6, 19399, Note_on_c, 1, 35, 0
6, 19437, Note_on_c, 1, 35, 74
6, 19558, Note_on_c, 1, 40, 77
6, 19563, Note_on_c, 1, 35, 0
6, 19606, Note_on_c, 1, 40, 0
6, 19616, Note_on_c, 1, 35, 69
6, 19667, Note_on_c, 1, 35, 0
6, 19674, Note_on_c, 1, 33, 72
6, 19859, Note_on_c, 1, 45, 91
6, 19905, Note_on_c, 1, 45, 0
6, 19920, Note_on_c, 1, 43, 82
6, 19938, Note_on_c, 1, 33, 0
6, 20085, Note_on_c, 1, 43, 0
6, 20098, Note_on_c, 1, 45, 82
6, 20150, Note_on_c, 1, 45, 0
6, 20160, Note_on_c, 1, 45, 81
6, 20334, Note_on_c, 1, 38, 77
6, 20336, Note_on_c, 1, 45, 0
6, 20385, Note_on_c, 1, 38, 0
6, 20395, Note_on_c, 1, 38, 80
6, 20574, Note_on_c, 1, 43, 88
6, 20580, Note_on_c, 1, 38, 0
6, 20626, Note_on_c, 1, 43, 0
6, 20636, Note_on_c, 1, 43, 83
6, 20694, Note_on_c, 1, 38, 57
6, 20701, Note_on_c, 1, 38, 0
6, 20752, Note_on_c, 1, 31, 91
6, 20841, Note_on_c, 1, 43, 0
6, 20935, Note_on_c, 1, 39, 67
6, 20943, Note_on_c, 1, 31, 0
6, 20993, Note_on_c, 1, 39, 0
6, 20998, Note_on_c, 1, 43, 85
6, 21060, Note_on_c, 1, 31, 40
6, 21088, Note_on_c, 1, 31, 0
6, 21115, Note_on_c, 1, 36, 87
6, 21190, Note_on_c, 1, 43, 0
6, 21289, Note_on_c, 1, 36, 0
6, 21302, Note_on_c, 1, 36, 80
6, 21352, Note_on_c, 1, 36, 0
6, 21358, Note_on_c, 1, 34, 78
6, 21505, Note_on_c, 1, 34, 0
6, 21536, Note_on_c, 1, 34, 78
6, 21588, Note_on_c, 1, 34, 0
6, 21597, Note_on_c, 1, 33, 73
6, 21775, Note_on_c, 1, 33, 0
6, 21781, Note_on_c, 1, 39, 79
6, 21835, Note_on_c, 1, 39, 0
6, 21841, Note_on_c, 1, 38, 75
6, 21996, Note_on_c, 1, 38, 0
6, 22019, Note_on_c, 1, 38, 79
6, 22073, Note_on_c, 1, 38, 0
6, 22077, Note_on_c, 1, 31, 81
6, 22234, Note_on_c, 1, 31, 0
6, 22257, Note_on_c, 1, 31, 80
6, 22314, Note_on_c, 1, 31, 0
6, 22319, Note_on_c, 1, 36, 80
6, 22463, Note_on_c, 1, 36, 0
6, 22499, Note_on_c, 1, 36, 87
6, 22556, Note_on_c, 1, 36, 0
6, 22562, Note_on_c, 1, 29, 77
6, 22739, Note_on_c, 1, 41, 91
6, 22740, Note_on_c, 1, 29, 0
6, 22791, Note_on_c, 1, 41, 0
6, 22804, Note_on_c, 1, 40, 88
6, 22964, Note_on_c, 1, 40, 0
6, 22979, Note_on_c, 1, 40, 74
6, 23028, Note_on_c, 1, 40, 0
6, 23038, Note_on_c, 1, 38, 85
6, 23182, Note_on_c, 1, 38, 0
6, 23215, Note_on_c, 1, 38, 85
6, 23269, Note_on_c, 1, 38, 0
6, 23272, Note_on_c, 1, 36, 83
6, 23398, Note_on_c, 1, 36, 0
6, 23454, Note_on_c, 1, 36, 78
6, 23508, Note_on_c, 1, 36, 0
6, 23516, Note_on_c, 1, 35, 75
6, 23663, Note_on_c, 1, 35, 0
6, 23698, Note_on_c, 1, 35, 82
6, 23715, Note_on_c, 1, 35, 0
6, 23756, Note_on_c, 1, 35, 83
6, 23921, Note_on_c, 1, 35, 0
6, 23934, Note_on_c, 1, 35, 69
6, 23990, Note_on_c, 1, 35, 0
6, 23997, Note_on_c, 1, 40, 87
6, 24158, Note_on_c, 1, 40, 0
6, 24180, Note_on_c, 1, 40, 80
6, 24206, Note_on_c, 1, 40, 0
6, 24239, Note_on_c, 1, 40, 74
6, 24413, Note_on_c, 1, 35, 75
6, 24420, Note_on_c, 1, 40, 0
6, 24468, Note_on_c, 1, 35, 0
6, 24478, Note_on_c, 1, 33, 73
6, 24630, Note_on_c, 1, 33, 0
6, 24655, Note_on_c, 1, 33, 74
6, 24697, Note_on_c, 1, 33, 0
6, 24715, Note_on_c, 1, 31, 75
6, 24899, Note_on_c, 1, 43, 92
6, 24943, Note_on_c, 1, 43, 0
6, 24959, Note_on_c, 1, 31, 0
6, 24960, Note_on_c, 1, 41, 83
6, 25016, Note_on_c, 1, 36, 53
6, 25023, Note_on_c, 1, 36, 0
6, 25074, Note_on_c, 1, 29, 82
6, 25177, Note_on_c, 1, 29, 0
6, 25193, Note_on_c, 1, 41, 0
6, 25197, Note_on_c, 1, 28, 80
6, 25379, Note_on_c, 1, 40, 96
6, 25426, Note_on_c, 1, 40, 0
6, 25438, Note_on_c, 1, 28, 0
6, 25438, Note_on_c, 1, 38, 76
6, 25601, Note_on_c, 1, 38, 0
6, 25616, Note_on_c, 1, 38, 80
6, 25665, Note_on_c, 1, 38, 0
6, 25678, Note_on_c, 1, 36, 83
6, 25836, Note_on_c, 1, 36, 0
6, 25858, Note_on_c, 1, 36, 76
6, 25915, Note_on_c, 1, 36, 0
6, 25920, Note_on_c, 1, 35, 77
6, 26079, Note_on_c, 1, 35, 0
6, 26099, Note_on_c, 1, 35, 78
6, 26201, Note_on_c, 1, 35, 0
6, 26217, Note_on_c, 1, 35, 75
6, 26330, Note_on_c, 1, 35, 0
6, 26336, Note_on_c, 1, 31, 57
6, 26387, Note_on_c, 1, 31, 0
6, 26394, Note_on_c, 1, 36, 89
6, 26552, Note_on_c, 1, 36, 0
6, 26574, Note_on_c, 1, 36, 71
6, 26615, Note_on_c, 1, 36, 0
6, 26636, Note_on_c, 1, 36, 84
6, 26811, Note_on_c, 1, 36, 0
6, 26815, Note_on_c, 1, 30, 82
6, 26934, Note_on_c, 1, 42, 86
6, 27173, Note_on_c, 1, 30, 0
6, 27175, Note_on_c, 1, 37, 29
6, 27188, Note_on_c, 1, 37, 0
6, 27299, Note_on_c, 1, 42, 0
6, 27300, Note_on_c, 1, 37, 65
6, 27351, Note_on_c, 1, 37, 0
6, 27363, Note_on_c, 1, 29, 61
6, 27539, Note_on_c, 1, 41, 74
6, 27589, Note_on_c, 1, 41, 0
6, 27600, Note_on_c, 1, 41, 80
6, 27827, Note_on_c, 1, 29, 0
6, 27838, Note_on_c, 1, 34, 69
6, 27841, Note_on_c, 1, 41, 0
6, 28020, Note_on_c, 1, 46, 77
6, 28065, Note_on_c, 1, 46, 0
6, 28081, Note_on_c, 1, 46, 71
6, 28205, Note_on_c, 1, 34, 0
6, 28257, Note_on_c, 1, 34, 49
6, 28271, Note_on_c, 1, 46, 0
6, 28316, Note_on_c, 1, 40, 80
6, 28325, Note_on_c, 1, 34, 0
6, 28501, Note_on_c, 1, 35, 54
6, 28504, Note_on_c, 1, 40, 0
6, 28511, Note_on_c, 1, 35, 0
6, 28558, Note_on_c, 1, 35, 68
6, 28736, Note_on_c, 1, 29, 72
6, 28738, Note_on_c, 1, 35, 0
6, 28786, Note_on_c, 1, 29, 0
6, 28798, Note_on_c, 1, 29, 66
6, 28976, Note_on_c, 1, 41, 78
6, 29025, Note_on_c, 1, 41, 0
6, 29037, Note_on_c, 1, 41, 74
6, 29045, Note_on_c, 1, 29, 0
6, 29206, Note_on_c, 1, 41, 0
6, 29218, Note_on_c, 1, 41, 81
6, 29273, Note_on_c, 1, 41, 0
6, 29280, Note_on_c, 1, 40, 72
6, 29426, Note_on_c, 1, 40, 0
6, 29454, Note_on_c, 1, 40, 77
6, 29504, Note_on_c, 1, 40, 0
6, 29513, Note_on_c, 1, 39, 76
6, 29669, Note_on_c, 1, 39, 0
6, 29695, Note_on_c, 1, 39, 75
6, 29750, Note_on_c, 1, 39, 0
6, 29757, Note_on_c, 1, 38, 73
6, 29908, Note_on_c, 1, 38, 0
6, 29934, Note_on_c, 1, 38, 73
6, 29993, Note_on_c, 1, 38, 0
6, 29997, Note_on_c, 1, 43, 89
6, 30175, Note_on_c, 1, 38, 74
6, 30183, Note_on_c, 1, 43, 0
6, 30235, Note_on_c, 1, 38, 0
6, 30237, Note_on_c, 1, 36, 76
6, 30392, Note_on_c, 1, 36, 0
6, 30418, Note_on_c, 1, 36, 89
6, 30459, Note_on_c, 1, 36, 0
6, 30477, Note_on_c, 1, 36, 83
6, 30623, Note_on_c, 1, 36, 0
6, 30663, Note_on_c, 1, 36, 66
6, 30680, Note_on_c, 1, 36, 0
6, 30695, Note_on_c, 1, 34, 58
6, 30708, Note_on_c, 1, 34, 0
6, 30727, Note_on_c, 1, 29, 68
6, 30756, Note_on_c, 1, 29, 0
6, 30781, Note_on_c, 1, 30, 69
6, 30895, Note_on_c, 1, 42, 81
6, 31074, Note_on_c, 1, 30, 0
6, 31138, Note_on_c, 1, 34, 46
6, 31168, Note_on_c, 1, 34, 0
6, 31196, Note_on_c, 1, 35, 85
6, 31207, Note_on_c, 1, 42, 0
6, 31380, Note_on_c, 1, 47, 94
6, 31435, Note_on_c, 1, 47, 0
6, 31444, Note_on_c, 1, 47, 74
6, 31622, Note_on_c, 1, 40, 80
6, 31633, Note_on_c, 1, 47, 0
6, 31633, Note_on_c, 1, 35, 0
6, 31670, Note_on_c, 1, 40, 0
6, 31680, Note_on_c, 1, 40, 85
6, 31847, Note_on_c, 1, 40, 0
6, 31857, Note_on_c, 1, 40, 82
6, 31908, Note_on_c, 1, 40, 0
6, 31916, Note_on_c, 1, 40, 75
6, 32095, Note_on_c, 1, 33, 71
6, 32097, Note_on_c, 1, 40, 0
6, 32150, Note_on_c, 1, 33, 0
6, 32160, Note_on_c, 1, 33, 82
6, 32339, Note_on_c, 1, 45, 83
6, 32381, Note_on_c, 1, 45, 0
6, 32398, Note_on_c, 1, 43, 83
6, 32402, Note_on_c, 1, 33, 0
6, 32557, Note_on_c, 1, 43, 0
6, 32574, Note_on_c, 1, 43, 72
6, 32630, Note_on_c, 1, 43, 0
6, 32638, Note_on_c, 1, 41, 77
6, 32789, Note_on_c, 1, 41, 0
6, 32793, Note_on_c, 1, 39, 18
6, 32812, Note_on_c, 1, 39, 0
6, 32820, Note_on_c, 1, 41, 94
6, 32875, Note_on_c, 1, 41, 0
6, 32880, Note_on_c, 1, 40, 87
6, 33027, Note_on_c, 1, 40, 0
6, 33063, Note_on_c, 1, 40, 81
6, 33081, Note_on_c, 1, 40, 0
6, 33094, Note_on_c, 1, 40, 60
6, 33115, Note_on_c, 1, 40, 0
6, 33120, Note_on_c, 1, 38, 87
6, 33284, Note_on_c, 1, 38, 0
6, 33296, Note_on_c, 1, 38, 84
6, 33348, Note_on_c, 1, 38, 0
6, 33358, Note_on_c, 1, 38, 74
6, 33358, Note_on_c, 1, 36, 77
6, 33383, Note_on_c, 1, 38, 0
6, 33524, Note_on_c, 1, 36, 0
6, 33537, Note_on_c, 1, 36, 84
6, 33587, Note_on_c, 1, 36, 0
6, 33596, Note_on_c, 1, 35, 82
6, 33762, Note_on_c, 1, 35, 0
6, 33775, Note_on_c, 1, 35, 76
6, 33838, Note_on_c, 1, 35, 0
6, 33839, Note_on_c, 1, 31, 83
6, 34013, Note_on_c, 1, 31, 0
6, 34015, Note_on_c, 1, 35, 91
6, 34078, Note_on_c, 1, 36, 95
6, 34087, Note_on_c, 1, 35, 0
6, 34231, Note_on_c, 1, 36, 0
6, 34258, Note_on_c, 1, 36, 92
6, 34303, Note_on_c, 1, 36, 0
6, 34322, Note_on_c, 1, 36, 88
6, 34481, Note_on_c, 1, 36, 0
6, 34498, Note_on_c, 1, 36, 84
6, 34548, Note_on_c, 1, 36, 0
6, 34559, Note_on_c, 1, 35, 78
6, 34706, Note_on_c, 1, 35, 0
6, 34735, Note_on_c, 1, 35, 80
6, 34796, Note_on_c, 1, 40, 92
6, 34808, Note_on_c, 1, 35, 0
6, 34973, Note_on_c, 1, 35, 80
6, 34983, Note_on_c, 1, 40, 0
6, 35026, Note_on_c, 1, 35, 0
6, 35034, Note_on_c, 1, 33, 80
6, 35220, Note_on_c, 1, 45, 95
6, 35263, Note_on_c, 1, 45, 0
6, 35280, Note_on_c, 1, 43, 75
6, 35398, Note_on_c, 1, 43, 0
6, 35454, Note_on_c, 1, 45, 89
6, 35505, Note_on_c, 1, 45, 0
6, 35520, Note_on_c, 1, 45, 84
6, 35558, Note_on_c, 1, 33, 0
6, 35578, Note_on_c, 1, 33, 74
6, 35682, Note_on_c, 1, 33, 0
6, 35695, Note_on_c, 1, 33, 74
6, 35746, Note_on_c, 1, 45, 0
6, 35749, Note_on_c, 1, 33, 0
6, 35752, Note_on_c, 1, 38, 82
6, 35933, Note_on_c, 1, 38, 0
6, 35933, Note_on_c, 1, 31, 84
6, 35986, Note_on_c, 1, 31, 0
6, 35996, Note_on_c, 1, 31, 82
6, 36176, Note_on_c, 1, 43, 77
6, 36224, Note_on_c, 1, 43, 0
6, 36239, Note_on_c, 1, 43, 76
6, 36407, Note_on_c, 1, 31, 0
6, 36416, Note_on_c, 1, 36, 80
6, 36418, Note_on_c, 1, 43, 0
6, 36657, Note_on_c, 1, 36, 0
6, 36659, Note_on_c, 1, 48, 85
6, 36715, Note_on_c, 1, 48, 0
6, 36718, Note_on_c, 1, 46, 80
6, 36882, Note_on_c, 1, 46, 0
6, 36896, Note_on_c, 1, 46, 75
6, 36949, Note_on_c, 1, 46, 0
6, 36955, Note_on_c, 1, 45, 69
6, 37131, Note_on_c, 1, 45, 0
6, 37136, Note_on_c, 1, 33, 71
6, 37194, Note_on_c, 1, 33, 0
6, 37198, Note_on_c, 1, 38, 83
6, 37249, Note_on_c, 1, 38, 0
6, 37260, Note_on_c, 1, 38, 81
6, 37433, Note_on_c, 1, 38, 0
6, 37436, Note_on_c, 1, 31, 80
6, 37620, Note_on_c, 1, 38, 76
6, 37660, Note_on_c, 1, 31, 0
6, 37667, Note_on_c, 1, 38, 0
6, 37679, Note_on_c, 1, 36, 84
6, 37732, Note_on_c, 1, 36, 0
6, 37743, Note_on_c, 1, 36, 82
6, 37917, Note_on_c, 1, 41, 88
6, 37924, Note_on_c, 1, 36, 0
6, 38082, Note_on_c, 1, 41, 0
6, 38097, Note_on_c, 1, 41, 84
6, 38148, Note_on_c, 1, 41, 0
6, 38159, Note_on_c, 1, 40, 88
6, 38317, Note_on_c, 1, 40, 0
6, 38335, Note_on_c, 1, 40, 78
6, 38387, Note_on_c, 1, 40, 0
6, 38396, Note_on_c, 1, 38, 87
6, 38560, Note_on_c, 1, 38, 0
6, 38575, Note_on_c, 1, 38, 84
6, 38628, Note_on_c, 1, 38, 0
6, 38638, Note_on_c, 1, 36, 89
6, 38785, Note_on_c, 1, 36, 0
6, 38813, Note_on_c, 1, 36, 95
6, 38860, Note_on_c, 1, 36, 0
6, 38872, Note_on_c, 1, 35, 84
6, 39040, Note_on_c, 1, 35, 0
6, 39055, Note_on_c, 1, 35, 56
6, 39057, Note_on_c, 1, 47, 67
6, 39069, Note_on_c, 1, 35, 0
6, 39074, Note_on_c, 1, 47, 0
6, 39091, Note_on_c, 1, 47, 22
6, 39104, Note_on_c, 1, 47, 0
6, 39119, Note_on_c, 1, 47, 72
6, 39301, Note_on_c, 1, 38, 54
6, 39304, Note_on_c, 1, 47, 0
6, 39310, Note_on_c, 1, 38, 0
6, 39337, Note_on_c, 1, 39, 61
6, 39355, Note_on_c, 1, 39, 0
6, 39362, Note_on_c, 1, 40, 84
6, 39524, Note_on_c, 1, 40, 0
6, 39537, Note_on_c, 1, 40, 72
6, 39584, Note_on_c, 1, 40, 0
6, 39596, Note_on_c, 1, 40, 72
6, 39760, Note_on_c, 1, 40, 0
6, 39776, Note_on_c, 1, 40, 79
6, 39834, Note_on_c, 1, 40, 0
6, 39838, Note_on_c, 1, 33, 77
6, 40018, Note_on_c, 1, 45, 85
6, 40020, Note_on_c, 1, 33, 0
6, 40022, Note_on_c, 1, 43, 50
6, 40029, Note_on_c, 1, 43, 0
6, 40071, Note_on_c, 1, 45, 0
6, 40079, Note_on_c, 1, 43, 84
6, 40232, Note_on_c, 1, 43, 0
6, 40255, Note_on_c, 1, 43, 92
6, 40306, Note_on_c, 1, 43, 0
6, 40316, Note_on_c, 1, 41, 85
6, 40464, Note_on_c, 1, 41, 0
6, 40495, Note_on_c, 1, 41, 81
6, 40548, Note_on_c, 1, 41, 0
6, 40555, Note_on_c, 1, 40, 76
6, 40679, Note_on_c, 1, 40, 0
6, 40734, Note_on_c, 1, 40, 76
6, 40785, Note_on_c, 1, 40, 0
6, 40798, Note_on_c, 1, 38, 70
6, 40932, Note_on_c, 1, 38, 0
6, 40973, Note_on_c, 1, 38, 78
6, 41030, Note_on_c, 1, 38, 0
6, 41036, Note_on_c, 1, 36, 81
6, 41178, Note_on_c, 1, 36, 0
6, 41214, Note_on_c, 1, 36, 81
6, 41270, Note_on_c, 1, 36, 0
6, 41275, Note_on_c, 1, 35, 75
6, 41409, Note_on_c, 1, 35, 0
6, 41458, Note_on_c, 1, 35, 80
6, 41511, Note_on_c, 1, 35, 0
6, 41518, Note_on_c, 1, 31, 79
6, 41566, Note_on_c, 1, 31, 0
6, 41577, Note_on_c, 1, 31, 82
6, 41635, Note_on_c, 1, 35, 74
6, 41637, Note_on_c, 1, 31, 0
6, 41682, Note_on_c, 1, 35, 0
6, 41693, Note_on_c, 1, 35, 68
6, 41744, Note_on_c, 1, 35, 0
6, 41754, Note_on_c, 1, 36, 82
6, 41938, Note_on_c, 1, 48, 90
6, 41986, Note_on_c, 1, 48, 0
6, 41997, Note_on_c, 1, 48, 82
6, 42138, Note_on_c, 1, 36, 0
6, 42173, Note_on_c, 1, 36, 65
6, 42183, Note_on_c, 1, 48, 0
6, 42233, Note_on_c, 1, 36, 0
6, 42235, Note_on_c, 1, 42, 74
6, 42268, Note_on_c, 1, 42, 0
6, 42292, Note_on_c, 1, 37, 40
6, 42342, Note_on_c, 1, 37, 0
6, 42349, Note_on_c, 1, 30, 75
6, 42537, Note_on_c, 1, 36, 60
6, 42538, Note_on_c, 1, 30, 0
6, 42577, Note_on_c, 1, 36, 0
6, 42597, Note_on_c, 1, 42, 72
6, 42655, Note_on_c, 1, 30, 62
6, 42661, Note_on_c, 1, 42, 0
6, 42713, Note_on_c, 1, 30, 0
6, 42716, Note_on_c, 1, 29, 71
6, 42898, Note_on_c, 1, 41, 89
6, 42910, Note_on_c, 1, 29, 0
6, 42952, Note_on_c, 1, 41, 0
6, 42959, Note_on_c, 1, 41, 90
6, 43139, Note_on_c, 1, 33, 25
6, 43152, Note_on_c, 1, 33, 0
6, 43195, Note_on_c, 1, 34, 69
6, 43196, Note_on_c, 1, 41, 0
6, 43379, Note_on_c, 1, 46, 81
6, 43427, Note_on_c, 1, 46, 0
6, 43440, Note_on_c, 1, 46, 77
6, 43609, Note_on_c, 1, 34, 0
6, 43668, Note_on_c, 1, 46, 0
6, 43675, Note_on_c, 1, 40, 73
6, 43846, Note_on_c, 1, 40, 0
6, 43857, Note_on_c, 1, 40, 83
6, 43908, Note_on_c, 1, 40, 0
6, 43919, Note_on_c, 1, 40, 79
6, 44077, Note_on_c, 1, 40, 0
6, 44097, Note_on_c, 1, 40, 80
6, 44159, Note_on_c, 1, 41, 90
6, 44161, Note_on_c, 1, 40, 0
6, 44316, Note_on_c, 1, 41, 0
6, 44337, Note_on_c, 1, 41, 81
6, 44379, Note_on_c, 1, 41, 0
6, 44398, Note_on_c, 1, 41, 80
6, 44559, Note_on_c, 1, 41, 0
6, 44577, Note_on_c, 1, 41, 78
6, 44628, Note_on_c, 1, 41, 0
6, 44637, Note_on_c, 1, 40, 76
6, 44798, Note_on_c, 1, 40, 0
6, 44812, Note_on_c, 1, 40, 64
6, 44864, Note_on_c, 1, 40, 0
6, 44875, Note_on_c, 1, 39, 79
6, 45042, Note_on_c, 1, 39, 0
6, 45058, Note_on_c, 1, 39, 60
6, 45108, Note_on_c, 1, 39, 0
6, 45119, Note_on_c, 1, 38, 73
6, 45300, Note_on_c, 1, 43, 92
6, 45313, Note_on_c, 1, 38, 0
6, 45538, Note_on_c, 1, 38, 82
6, 45544, Note_on_c, 1, 43, 0
6, 45585, Note_on_c, 1, 38, 0
6, 45600, Note_on_c, 1, 36, 60
6, 45777, Note_on_c, 1, 36, 0
6, 45779, Note_on_c, 1, 43, 74
6, 45804, Note_on_c, 1, 43, 0
6, 45845, Note_on_c, 1, 43, 72
6, 45995, Note_on_c, 1, 43, 0
6, 46015, Note_on_c, 1, 43, 57
6, 46074, Note_on_c, 1, 43, 0
6, 46074, Note_on_c, 1, 42, 76
6, 46199, Note_on_c, 1, 30, 78
6, 46208, Note_on_c, 1, 42, 0
6, 46497, Note_on_c, 1, 30, 0
6, 46498, Note_on_c, 1, 36, 93
6, 46510, Note_on_c, 1, 36, 0
6, 46560, Note_on_c, 1, 35, 100
6, 46564, Note_on_c, 1, 35, 96
6, 46680, Note_on_c, 1, 35, 0
6, 46696, Note_on_c, 1, 35, 0
6, 46737, Note_on_c, 1, 35, 96
6, 46760, Note_on_c, 1, 35, 0
6, 46798, Note_on_c, 1, 35, 96
6, 46977, Note_on_c, 1, 40, 108
6, 46997, Note_on_c, 1, 40, 0
6, 47020, Note_on_c, 1, 35, 0
6, 47037, Note_on_c, 1, 40, 110
6, 47221, Note_on_c, 1, 35, 76
6, 47234, Note_on_c, 1, 35, 0
6, 47236, Note_on_c, 1, 40, 0
6, 47251, Note_on_c, 1, 35, 83
6, 47267, Note_on_c, 1, 35, 0
6, 47282, Note_on_c, 1, 28, 89
6, 47338, Note_on_c, 1, 28, 0
6, 47349, Note_on_c, 1, 28, 80
6, 47468, Note_on_c, 1, 35, 77
6, 47484, Note_on_c, 1, 35, 0
6, 47497, Note_on_c, 1, 28, 0
6, 47503, Note_on_c, 1, 35, 65
6, 47511, Note_on_c, 1, 35, 0
6, 47524, Note_on_c, 1, 33, 80
6, 47574, Note_on_c, 1, 33, 0
6, 47580, Note_on_c, 1, 33, 79
6, 47689, Note_on_c, 1, 33, 0
6, 47702, Note_on_c, 1, 33, 71
6, 47722, Note_on_c, 1, 33, 0
6, 47734, Note_on_c, 1, 33, 71
6, 47763, Note_on_c, 1, 43, 85
6, 47768, Note_on_c, 1, 33, 0
6, 47802, Note_on_c, 1, 43, 0
6, 47824, Note_on_c, 1, 43, 90
6, 47939, Note_on_c, 1, 33, 68
6, 47957, Note_on_c, 1, 43, 0
6, 48002, Note_on_c, 1, 41, 113
6, 48004, Note_on_c, 1, 33, 0
6, 48053, Note_on_c, 1, 41, 0
6, 48062, Note_on_c, 1, 41, 89
6, 48184, Note_on_c, 1, 33, 36
6, 48191, Note_on_c, 1, 33, 0
6, 48236, Note_on_c, 1, 41, 0
6, 48240, Note_on_c, 1, 40, 77
6, 48285, Note_on_c, 1, 40, 0
6, 48298, Note_on_c, 1, 40, 72
6, 48428, Note_on_c, 1, 37, 61
6, 48432, Note_on_c, 1, 40, 0
6, 48440, Note_on_c, 1, 37, 0
6, 48459, Note_on_c, 1, 37, 68
6, 48479, Note_on_c, 1, 37, 0
6, 48484, Note_on_c, 1, 38, 74
6, 48580, Note_on_c, 1, 37, 57
6, 48596, Note_on_c, 1, 37, 0
6, 48598, Note_on_c, 1, 38, 0
6, 48601, Note_on_c, 1, 52, 90
6, 48637, Note_on_c, 1, 52, 0
6, 48663, Note_on_c, 1, 50, 76
6, 48721, Note_on_c, 1, 38, 64
6, 48723, Note_on_c, 1, 50, 0
6, 48762, Note_on_c, 1, 38, 0
6, 48782, Note_on_c, 1, 38, 71
6, 48834, Note_on_c, 1, 38, 0
6, 48844, Note_on_c, 1, 36, 85
6, 48894, Note_on_c, 1, 36, 0
6, 48904, Note_on_c, 1, 36, 87
6, 48955, Note_on_c, 1, 36, 0
6, 48963, Note_on_c, 1, 35, 89
6, 49134, Note_on_c, 1, 35, 0
6, 49137, Note_on_c, 1, 31, 82
6, 49185, Note_on_c, 1, 31, 0
6, 49200, Note_on_c, 1, 31, 87
6, 49356, Note_on_c, 1, 31, 0
6, 49373, Note_on_c, 1, 36, 77
6, 49394, Note_on_c, 1, 36, 0
6, 49437, Note_on_c, 1, 36, 90
6, 49559, Note_on_c, 1, 48, 123
6, 49697, Note_on_c, 1, 36, 0
6, 49743, Note_on_c, 1, 36, 103
6, 49764, Note_on_c, 1, 48, 0
6, 49896, Note_on_c, 1, 48, 72
6, 49899, Note_on_c, 1, 36, 0
6, 49909, Note_on_c, 1, 48, 0
6, 49920, Note_on_c, 1, 47, 83
6, 50049, Note_on_c, 1, 35, 83
6, 50052, Note_on_c, 1, 47, 0
6, 50136, Note_on_c, 1, 35, 0
6, 50142, Note_on_c, 1, 35, 40
6, 50160, Note_on_c, 1, 35, 0
6, 50165, Note_on_c, 1, 40, 68
6, 50188, Note_on_c, 1, 40, 0
6, 50226, Note_on_c, 1, 40, 81
6, 50341, Note_on_c, 1, 40, 0
6, 50345, Note_on_c, 1, 35, 66
6, 50390, Note_on_c, 1, 35, 0
6, 50401, Note_on_c, 1, 33, 77
6, 50541, Note_on_c, 1, 33, 0
6, 50577, Note_on_c, 1, 33, 75
6, 50598, Note_on_c, 1, 33, 0
6, 50641, Note_on_c, 1, 33, 91
6, 50792, Note_on_c, 1, 33, 0
6, 50815, Note_on_c, 1, 33, 85
6, 50833, Note_on_c, 1, 33, 0
6, 50879, Note_on_c, 1, 33, 92
6, 51050, Note_on_c, 1, 33, 0
6, 51058, Note_on_c, 1, 38, 45
6, 51066, Note_on_c, 1, 38, 0
6, 51067, Note_on_c, 1, 33, 24
6, 51073, Note_on_c, 1, 33, 0
6, 51118, Note_on_c, 1, 38, 92
6, 51275, Note_on_c, 1, 38, 0
6, 51295, Note_on_c, 1, 38, 82
6, 51356, Note_on_c, 1, 38, 0
6, 51358, Note_on_c, 1, 43, 118
6, 51517, Note_on_c, 1, 43, 0
6, 51536, Note_on_c, 1, 43, 96
6, 51574, Note_on_c, 1, 43, 0
6, 51604, Note_on_c, 1, 43, 113
6, 51764, Note_on_c, 1, 43, 0
6, 51778, Note_on_c, 1, 43, 80
6, 51826, Note_on_c, 1, 43, 0
6, 51839, Note_on_c, 1, 48, 89
6, 52017, Note_on_c, 1, 36, 85
6, 52062, Note_on_c, 1, 48, 0
6, 52077, Note_on_c, 1, 46, 88
6, 52084, Note_on_c, 1, 36, 0
6, 52130, Note_on_c, 1, 46, 0
6, 52139, Note_on_c, 1, 46, 86
6, 52260, Note_on_c, 1, 36, 68
6, 52305, Note_on_c, 1, 36, 0
6, 52314, Note_on_c, 1, 46, 0
6, 52321, Note_on_c, 1, 33, 81
6, 52538, Note_on_c, 1, 33, 0
6, 52561, Note_on_c, 1, 38, 90
6, 52609, Note_on_c, 1, 38, 0
6, 52621, Note_on_c, 1, 38, 83
6, 52725, Note_on_c, 1, 38, 0
6, 52734, Note_on_c, 1, 32, 71
6, 52787, Note_on_c, 1, 32, 0
6, 52801, Note_on_c, 1, 31, 79
6, 52981, Note_on_c, 1, 37, 93
6, 52992, Note_on_c, 1, 31, 0
6, 53014, Note_on_c, 1, 37, 0
6, 53038, Note_on_c, 1, 36, 75
6, 53086, Note_on_c, 1, 36, 0
6, 53098, Note_on_c, 1, 36, 81
6, 53209, Note_on_c, 1, 36, 0
6, 53216, Note_on_c, 1, 31, 87
6, 53268, Note_on_c, 1, 31, 0
6, 53280, Note_on_c, 1, 29, 85
6, 53458, Note_on_c, 1, 36, 69
6, 53472, Note_on_c, 1, 36, 0
6, 53492, Note_on_c, 1, 36, 70
6, 53518, Note_on_c, 1, 36, 0
6, 53519, Note_on_c, 1, 45, 95
6, 53573, Note_on_c, 1, 45, 0
6, 53582, Note_on_c, 1, 45, 87
6, 53644, Note_on_c, 1, 29, 0
6, 53645, Note_on_c, 1, 45, 0
6, 53647, Note_on_c, 1, 36, 72
6, 53705, Note_on_c, 1, 36, 0
6, 53705, Note_on_c, 1, 40, 110
6, 53767, Note_on_c, 1, 38, 87
6, 53778, Note_on_c, 1, 40, 0
6, 53871, Note_on_c, 1, 38, 0
6, 53883, Note_on_c, 1, 38, 82
6, 53976, Note_on_c, 1, 38, 0
6, 53978, Note_on_c, 1, 35, 58
6, 53995, Note_on_c, 1, 35, 0
6, 54001, Note_on_c, 1, 36, 78
6, 54047, Note_on_c, 1, 36, 0
6, 54061, Note_on_c, 1, 36, 85
6, 54160, Note_on_c, 1, 36, 0
6, 54178, Note_on_c, 1, 36, 78
6, 54225, Note_on_c, 1, 36, 0
6, 54238, Note_on_c, 1, 35, 84
6, 54380, Note_on_c, 1, 35, 0
6, 54420, Note_on_c, 1, 35, 85
6, 54440, Note_on_c, 1, 35, 0
6, 54483, Note_on_c, 1, 35, 92
6, 54653, Note_on_c, 1, 40, 92
6, 54659, Note_on_c, 1, 35, 0
6, 54666, Note_on_c, 1, 40, 0
6, 54720, Note_on_c, 1, 40, 108
6, 54900, Note_on_c, 1, 28, 80
6, 54928, Note_on_c, 1, 28, 0
6, 54957, Note_on_c, 1, 28, 95
6, 54964, Note_on_c, 1, 40, 0
6, 55077, Note_on_c, 1, 32, 86
6, 55084, Note_on_c, 1, 28, 0
6, 55193, Note_on_c, 1, 32, 0
6, 55197, Note_on_c, 1, 33, 96
6, 55348, Note_on_c, 1, 33, 0
6, 55386, Note_on_c, 1, 33, 96
6, 55421, Note_on_c, 1, 33, 0
6, 55444, Note_on_c, 1, 31, 101
6, 55565, Note_on_c, 1, 43, 118
6, 55586, Note_on_c, 1, 31, 0
6, 55657, Note_on_c, 1, 31, 76
6, 55666, Note_on_c, 1, 43, 0
6, 55671, Note_on_c, 1, 31, 0
6, 55678, Note_on_c, 1, 41, 94
6, 55724, Note_on_c, 1, 41, 0
6, 55743, Note_on_c, 1, 41, 108
6, 55861, Note_on_c, 1, 29, 62
6, 55887, Note_on_c, 1, 29, 0
6, 55920, Note_on_c, 1, 41, 0
6, 55920, Note_on_c, 1, 28, 88
6, 55969, Note_on_c, 1, 28, 0
6, 55981, Note_on_c, 1, 28, 82
6, 56044, Note_on_c, 1, 40, 105
6, 56060, Note_on_c, 1, 28, 0
6, 56103, Note_on_c, 1, 28, 70
6, 56134, Note_on_c, 1, 28, 0
6, 56155, Note_on_c, 1, 40, 0
6, 56163, Note_on_c, 1, 38, 80
6, 56314, Note_on_c, 1, 38, 0
6, 56350, Note_on_c, 1, 38, 88
6, 56367, Note_on_c, 1, 38, 0
6, 56404, Note_on_c, 1, 36, 89
6, 56540, Note_on_c, 1, 36, 0
6, 56578, Note_on_c, 1, 36, 103
6, 56636, Note_on_c, 1, 36, 0
6, 56640, Note_on_c, 1, 35, 72
6, 56688, Note_on_c, 1, 35, 0
6, 56699, Note_on_c, 1, 35, 85
6, 56803, Note_on_c, 1, 35, 0
6, 56817, Note_on_c, 1, 31, 73
6, 56852, Note_on_c, 1, 31, 0
6, 56874, Note_on_c, 1, 31, 92
6, 57053, Note_on_c, 1, 31, 0
6, 57058, Note_on_c, 1, 35, 70
6, 57072, Note_on_c, 1, 35, 0
6, 57096, Note_on_c, 1, 35, 66
6, 57103, Note_on_c, 1, 35, 0
6, 57116, Note_on_c, 1, 36, 74
6, 57260, Note_on_c, 1, 36, 0
6, 57276, Note_on_c, 1, 36, 70
6, 57300, Note_on_c, 1, 50, 101
6, 57305, Note_on_c, 1, 36, 0
6, 57362, Note_on_c, 1, 48, 79
6, 57369, Note_on_c, 1, 50, 0
6, 57420, Note_on_c, 1, 36, 68
6, 57439, Note_on_c, 1, 36, 0
6, 57484, Note_on_c, 1, 36, 88
6, 57489, Note_on_c, 1, 48, 0
6, 57576, Note_on_c, 1, 34, 36
6, 57583, Note_on_c, 1, 34, 0
6, 57595, Note_on_c, 1, 36, 0
6, 57598, Note_on_c, 1, 42, 97
6, 57758, Note_on_c, 1, 37, 48
6, 57769, Note_on_c, 1, 37, 0
6, 57770, Note_on_c, 1, 42, 0
6, 57781, Note_on_c, 1, 30, 72
6, 57877, Note_on_c, 1, 37, 45
6, 57886, Note_on_c, 1, 37, 0
6, 57900, Note_on_c, 1, 42, 91
6, 57975, Note_on_c, 1, 30, 0
6, 58015, Note_on_c, 1, 30, 59
6, 58032, Note_on_c, 1, 30, 0
6, 58079, Note_on_c, 1, 29, 73
6, 58087, Note_on_c, 1, 42, 0
6, 58261, Note_on_c, 1, 41, 87
6, 58274, Note_on_c, 1, 41, 0
6, 58322, Note_on_c, 1, 41, 105
6, 58392, Note_on_c, 1, 29, 0
6, 58492, Note_on_c, 1, 29, 56
6, 58508, Note_on_c, 1, 29, 0
6, 58554, Note_on_c, 1, 34, 76
6, 58560, Note_on_c, 1, 41, 0
6, 58738, Note_on_c, 1, 46, 83
6, 58791, Note_on_c, 1, 46, 0
6, 58810, Note_on_c, 1, 34, 0
6, 58863, Note_on_c, 1, 34, 53
6, 58910, Note_on_c, 1, 34, 0
6, 58926, Note_on_c, 1, 34, 74
6, 58974, Note_on_c, 1, 34, 0
6, 58982, Note_on_c, 1, 34, 82
6, 59039, Note_on_c, 1, 34, 0
6, 59044, Note_on_c, 1, 40, 90
6, 59193, Note_on_c, 1, 40, 0
6, 59211, Note_on_c, 1, 40, 74
6, 59241, Note_on_c, 1, 40, 0
6, 59279, Note_on_c, 1, 40, 85
6, 59437, Note_on_c, 1, 40, 0
6, 59461, Note_on_c, 1, 40, 60
6, 59476, Note_on_c, 1, 40, 0
6, 59493, Note_on_c, 1, 40, 71
6, 59514, Note_on_c, 1, 40, 0
6, 59520, Note_on_c, 1, 41, 95
6, 59563, Note_on_c, 1, 41, 0
6, 59577, Note_on_c, 1, 41, 89
6, 59700, Note_on_c, 1, 29, 80
6, 59703, Note_on_c, 1, 41, 0
6, 59878, Note_on_c, 1, 41, 96
6, 59887, Note_on_c, 1, 29, 0
6, 59940, Note_on_c, 1, 29, 71
6, 59961, Note_on_c, 1, 29, 0
6, 59985, Note_on_c, 1, 41, 0
6, 60000, Note_on_c, 1, 28, 101
6, 60180, Note_on_c, 1, 40, 99
6, 60188, Note_on_c, 1, 28, 0
6, 60218, Note_on_c, 1, 28, 75
6, 60225, Note_on_c, 1, 40, 0
6, 60239, Note_on_c, 1, 39, 83
6, 60242, Note_on_c, 1, 28, 0
6, 60289, Note_on_c, 1, 39, 0
6, 60304, Note_on_c, 1, 39, 86
6, 60476, Note_on_c, 1, 39, 0
6, 60485, Note_on_c, 1, 38, 90
6, 60488, Note_on_c, 1, 39, 46
6, 60494, Note_on_c, 1, 39, 0
6, 60659, Note_on_c, 1, 31, 85
6, 60666, Note_on_c, 1, 38, 0
6, 60696, Note_on_c, 1, 31, 0
6, 60721, Note_on_c, 1, 31, 90
6, 60884, Note_on_c, 1, 31, 0
6, 60896, Note_on_c, 1, 31, 81
6, 60952, Note_on_c, 1, 31, 0
6, 60961, Note_on_c, 1, 36, 115
6, 60989, Note_on_c, 1, 36, 0
6, 60997, Note_on_c, 1, 36, 81
6, 61051, Note_on_c, 1, 36, 0
6, 61087, Note_on_c, 1, 36, 110
6, 61204, Note_on_c, 1, 31, 71
6, 61207, Note_on_c, 1, 36, 0
6, 61218, Note_on_c, 1, 31, 0
6, 61262, Note_on_c, 1, 31, 83
6, 61370, Note_on_c, 1, 31, 0
6, 61386, Note_on_c, 1, 36, 87
6, 61398, Note_on_c, 1, 36, 0
6, 61416, Note_on_c, 1, 31, 75
6, 61430, Note_on_c, 1, 31, 0
6, 61443, Note_on_c, 1, 30, 82
6, 61486, Note_on_c, 1, 30, 0
6, 61501, Note_on_c, 1, 30, 83
6, 61615, Note_on_c, 1, 42, 94
6, 61701, Note_on_c, 1, 30, 0
6, 61800, Note_on_c, 1, 30, 73
6, 61814, Note_on_c, 1, 30, 0
6, 61835, Note_on_c, 1, 30, 79
6, 61851, Note_on_c, 1, 30, 0
6, 61867, Note_on_c, 1, 34, 80
6, 61882, Note_on_c, 1, 34, 0
6, 61915, Note_on_c, 1, 42, 0
6, 61919, Note_on_c, 1, 35, 90
6, 62099, Note_on_c, 1, 41, 66
6, 62105, Note_on_c, 1, 41, 0
6, 62162, Note_on_c, 1, 41, 90
6, 62171, Note_on_c, 1, 35, 0
6, 62313, Note_on_c, 1, 35, 79
6, 62325, Note_on_c, 1, 35, 0
6, 62329, Note_on_c, 1, 41, 0
6, 62336, Note_on_c, 1, 35, 75
6, 62401, Note_on_c, 1, 40, 91
6, 62402, Note_on_c, 1, 35, 0
6, 62432, Note_on_c, 1, 40, 0
6, 62462, Note_on_c, 1, 40, 92
6, 62586, Note_on_c, 1, 40, 0
6, 62641, Note_on_c, 1, 40, 83
6, 62877, Note_on_c, 1, 33, 72
6, 62879, Note_on_c, 1, 40, 0
6, 63057, Note_on_c, 1, 45, 105
6, 63070, Note_on_c, 1, 33, 0
6, 63110, Note_on_c, 1, 45, 0
6, 63117, Note_on_c, 1, 43, 88
6, 63168, Note_on_c, 1, 43, 0
6, 63168, Note_on_c, 1, 33, 28
6, 63178, Note_on_c, 1, 43, 84
6, 63180, Note_on_c, 1, 33, 0
6, 63274, Note_on_c, 1, 43, 0
6, 63297, Note_on_c, 1, 43, 103
6, 63351, Note_on_c, 1, 43, 0
6, 63357, Note_on_c, 1, 41, 84
6, 63509, Note_on_c, 1, 41, 0
6, 63538, Note_on_c, 1, 41, 95
6, 63589, Note_on_c, 1, 41, 0
6, 63600, Note_on_c, 1, 40, 81
6, 63651, Note_on_c, 1, 40, 0
6, 63658, Note_on_c, 1, 40, 79
6, 63746, Note_on_c, 1, 40, 0
6, 63781, Note_on_c, 1, 40, 88
6, 63834, Note_on_c, 1, 40, 0
6, 63841, Note_on_c, 1, 38, 80
6, 63978, Note_on_c, 1, 38, 0
6, 64020, Note_on_c, 1, 38, 95
6, 64072, Note_on_c, 1, 38, 0
6, 64079, Note_on_c, 1, 36, 73
6, 64130, Note_on_c, 1, 36, 0
6, 64139, Note_on_c, 1, 36, 74
6, 64227, Note_on_c, 1, 36, 0
6, 64257, Note_on_c, 1, 36, 85
6, 64266, Note_on_c, 1, 44, 23
6, 64272, Note_on_c, 1, 44, 0
6, 64315, Note_on_c, 1, 36, 0
6, 64320, Note_on_c, 1, 35, 74
6, 64369, Note_on_c, 1, 35, 0
6, 64378, Note_on_c, 1, 35, 84
6, 64485, Note_on_c, 1, 35, 0
6, 64497, Note_on_c, 1, 32, 78
6, 64550, Note_on_c, 1, 32, 0
6, 64559, Note_on_c, 1, 31, 87
6, 64608, Note_on_c, 1, 31, 0
6, 64619, Note_on_c, 1, 31, 87
6, 64734, Note_on_c, 1, 31, 0
6, 64736, Note_on_c, 1, 43, 83
6, 64740, Note_on_c, 1, 45, 54
6, 64745, Note_on_c, 1, 45, 0
6, 64800, Note_on_c, 1, 36, 84
6, 64806, Note_on_c, 1, 43, 0
6, 64980, Note_on_c, 1, 48, 95
6, 64982, Note_on_c, 1, 47, 71
6, 64988, Note_on_c, 1, 47, 0
6, 65124, Note_on_c, 1, 36, 0
6, 65167, Note_on_c, 1, 36, 79
6, 65192, Note_on_c, 1, 36, 0
6, 65223, Note_on_c, 1, 36, 80
6, 65273, Note_on_c, 1, 36, 0
6, 65280, Note_on_c, 1, 35, 80
6, 65285, Note_on_c, 1, 48, 0
6, 65463, Note_on_c, 1, 35, 0
6, 65524, Note_on_c, 1, 40, 94
6, 65549, Note_on_c, 1, 40, 0
6, 65583, Note_on_c, 1, 40, 89
6, 65701, Note_on_c, 1, 40, 0
6, 65701, Note_on_c, 1, 35, 74
6, 65752, Note_on_c, 1, 35, 0
6, 65761, Note_on_c, 1, 33, 78
6, 65904, Note_on_c, 1, 33, 0
6, 65940, Note_on_c, 1, 33, 80
6, 65990, Note_on_c, 1, 33, 0
6, 66001, Note_on_c, 1, 31, 81
6, 66005, Note_on_c, 1, 33, 34
6, 66012, Note_on_c, 1, 33, 0
6, 66050, Note_on_c, 1, 31, 0
6, 66062, Note_on_c, 1, 31, 80
6, 66164, Note_on_c, 1, 31, 0
6, 66177, Note_on_c, 1, 33, 76
6, 66214, Note_on_c, 1, 33, 0
6, 66240, Note_on_c, 1, 33, 91
6, 66361, Note_on_c, 1, 45, 110
6, 66384, Note_on_c, 1, 33, 0
6, 66451, Note_on_c, 1, 33, 68
6, 66463, Note_on_c, 1, 45, 0
6, 66471, Note_on_c, 1, 33, 0
6, 66480, Note_on_c, 1, 38, 80
6, 66532, Note_on_c, 1, 38, 0
6, 66543, Note_on_c, 1, 38, 82
6, 66640, Note_on_c, 1, 34, 18
6, 66659, Note_on_c, 1, 45, 103
6, 66664, Note_on_c, 1, 34, 0
6, 66667, Note_on_c, 1, 38, 0
6, 66714, Note_on_c, 1, 45, 0
6, 66719, Note_on_c, 1, 43, 88
6, 66873, Note_on_c, 1, 43, 0
6, 66910, Note_on_c, 1, 43, 92
6, 66946, Note_on_c, 1, 43, 0
6, 66965, Note_on_c, 1, 43, 88
6, 67106, Note_on_c, 1, 43, 0
6, 67141, Note_on_c, 1, 43, 90
6, 67196, Note_on_c, 1, 43, 0
6, 67202, Note_on_c, 1, 36, 91
6, 67378, Note_on_c, 1, 36, 0
6, 67381, Note_on_c, 1, 43, 95
6, 67437, Note_on_c, 1, 43, 0
6, 67442, Note_on_c, 1, 34, 78
6, 67487, Note_on_c, 1, 34, 0
6, 67497, Note_on_c, 1, 34, 79
6, 67599, Note_on_c, 1, 34, 0
6, 67616, Note_on_c, 1, 43, 83
6, 67628, Note_on_c, 1, 43, 0
6, 67649, Note_on_c, 1, 34, 76
6, 67663, Note_on_c, 1, 34, 0
6, 67678, Note_on_c, 1, 33, 79
6, 67731, Note_on_c, 1, 33, 0
6, 67741, Note_on_c, 1, 33, 80
6, 67801, Note_on_c, 1, 39, 81
6, 67823, Note_on_c, 1, 33, 0
6, 67922, Note_on_c, 1, 33, 74
6, 67927, Note_on_c, 1, 39, 0
6, 67938, Note_on_c, 1, 33, 0
6, 67980, Note_on_c, 1, 33, 73
6, 68039, Note_on_c, 1, 33, 0
6, 68045, Note_on_c, 1, 38, 91
6, 68132, Note_on_c, 1, 32, 60
6, 68143, Note_on_c, 1, 38, 0
6, 68150, Note_on_c, 1, 32, 0
6, 68161, Note_on_c, 1, 31, 73
6, 68208, Note_on_c, 1, 31, 0
6, 68222, Note_on_c, 1, 31, 71
6, 68338, Note_on_c, 1, 37, 83
6, 68340, Note_on_c, 1, 31, 0
6, 68394, Note_on_c, 1, 37, 0
6, 68401, Note_on_c, 1, 36, 81
6, 68447, Note_on_c, 1, 36, 0
6, 68459, Note_on_c, 1, 36, 75
6, 68545, Note_on_c, 1, 36, 0
6, 68558, Note_on_c, 1, 36, 62
6, 68580, Note_on_c, 1, 36, 0
6, 68582, Note_on_c, 1, 40, 83
6, 68628, Note_on_c, 1, 36, 31
6, 68632, Note_on_c, 1, 40, 0
6, 68636, Note_on_c, 1, 36, 0
6, 68642, Note_on_c, 1, 41, 89
6, 68733, Note_on_c, 1, 41, 0
6, 68738, Note_on_c, 1, 36, 55
6, 68744, Note_on_c, 1, 36, 0
6, 68762, Note_on_c, 1, 41, 99
6, 68854, Note_on_c, 1, 36, 40
6, 68865, Note_on_c, 1, 36, 0
6, 68878, Note_on_c, 1, 29, 57
6, 68924, Note_on_c, 1, 29, 0
6, 68941, Note_on_c, 1, 29, 68
6, 68947, Note_on_c, 1, 41, 0
6, 69019, Note_on_c, 1, 29, 0
6, 69038, Note_on_c, 1, 29, 53
6, 69063, Note_on_c, 1, 41, 96
6, 69064, Note_on_c, 1, 29, 0
6, 69096, Note_on_c, 1, 41, 0
6, 69125, Note_on_c, 1, 38, 105
6, 69260, Note_on_c, 1, 38, 0
6, 69299, Note_on_c, 1, 38, 101
6, 69422, Note_on_c, 1, 36, 84
6, 69424, Note_on_c, 1, 38, 0
6, 69536, Note_on_c, 1, 36, 0
6, 69542, Note_on_c, 1, 34, 60
6, 69547, Note_on_c, 1, 33, 53
6, 69569, Note_on_c, 1, 33, 0
6, 69572, Note_on_c, 1, 34, 0
6, 69603, Note_on_c, 1, 35, 81
6, 69777, Note_on_c, 1, 47, 99
6, 69780, Note_on_c, 1, 35, 0
6, 69806, Note_on_c, 1, 47, 0
6, 69839, Note_on_c, 1, 47, 103
6, 70078, Note_on_c, 1, 40, 74
6, 70082, Note_on_c, 1, 47, 0
6, 70249, Note_on_c, 1, 40, 0
6, 70260, Note_on_c, 1, 40, 78
6, 70296, Note_on_c, 1, 40, 0
6, 70324, Note_on_c, 1, 40, 77
6, 70327, Note_on_c, 1, 38, 66
6, 70333, Note_on_c, 1, 38, 0
6, 70488, Note_on_c, 1, 40, 0
6, 70501, Note_on_c, 1, 40, 67
6, 70560, Note_on_c, 1, 45, 108
6, 70561, Note_on_c, 1, 40, 0
6, 70703, Note_on_c, 1, 45, 0
6, 70741, Note_on_c, 1, 45, 110
6, 70797, Note_on_c, 1, 45, 0
6, 70803, Note_on_c, 1, 43, 89
6, 70981, Note_on_c, 1, 33, 66
6, 70997, Note_on_c, 1, 33, 0
6, 71017, Note_on_c, 1, 31, 68
6, 71029, Note_on_c, 1, 31, 0
6, 71044, Note_on_c, 1, 29, 87
6, 71050, Note_on_c, 1, 43, 0
6, 71180, Note_on_c, 1, 29, 0
6, 71216, Note_on_c, 1, 29, 80
6, 71267, Note_on_c, 1, 29, 0
6, 71276, Note_on_c, 1, 28, 81
6, 71401, Note_on_c, 1, 28, 0
6, 71404, Note_on_c, 1, 40, 85
6, 71497, Note_on_c, 1, 28, 66
6, 71498, Note_on_c, 1, 40, 0
6, 71519, Note_on_c, 1, 28, 0
6, 71525, Note_on_c, 1, 38, 68
6, 71674, Note_on_c, 1, 38, 0
6, 71699, Note_on_c, 1, 38, 83
6, 71752, Note_on_c, 1, 38, 0
6, 71762, Note_on_c, 1, 36, 85
6, 71902, Note_on_c, 1, 36, 0
6, 71941, Note_on_c, 1, 36, 89
6, 71998, Note_on_c, 1, 36, 0
6, 72002, Note_on_c, 1, 35, 81
6, 72142, Note_on_c, 1, 35, 0
6, 72175, Note_on_c, 1, 35, 91
6, 72240, Note_on_c, 1, 43, 108
6, 72251, Note_on_c, 1, 35, 0
6, 72420, Note_on_c, 1, 35, 73
6, 72435, Note_on_c, 1, 35, 0
6, 72455, Note_on_c, 1, 43, 0
6, 72455, Note_on_c, 1, 35, 75
6, 72481, Note_on_c, 1, 35, 0
6, 72482, Note_on_c, 1, 36, 80
6, 72658, Note_on_c, 1, 48, 83
6, 72694, Note_on_c, 1, 48, 0
6, 72723, Note_on_c, 1, 48, 83
6, 72789, Note_on_c, 1, 36, 0
6, 72897, Note_on_c, 1, 36, 40
6, 72900, Note_on_c, 1, 48, 0
6, 72904, Note_on_c, 1, 36, 0
6, 72907, Note_on_c, 1, 45, 69
6, 72927, Note_on_c, 1, 45, 0
6, 72938, Note_on_c, 1, 43, 73
6, 72950, Note_on_c, 1, 43, 0
6, 72966, Note_on_c, 1, 42, 80
6, 73074, Note_on_c, 1, 30, 75
6, 73080, Note_on_c, 1, 42, 0
6, 73257, Note_on_c, 1, 42, 88
6, 73293, Note_on_c, 1, 30, 0
6, 73353, Note_on_c, 1, 30, 71
6, 73370, Note_on_c, 1, 42, 0
6, 73378, Note_on_c, 1, 30, 0
6, 73380, Note_on_c, 1, 40, 64
6, 73414, Note_on_c, 1, 40, 0
6, 73442, Note_on_c, 1, 41, 87
6, 73585, Note_on_c, 1, 41, 0
6, 73617, Note_on_c, 1, 41, 83
6, 73641, Note_on_c, 1, 41, 0
6, 73681, Note_on_c, 1, 41, 78
6, 73835, Note_on_c, 1, 41, 0
6, 73855, Note_on_c, 1, 45, 77
6, 73867, Note_on_c, 1, 45, 0
6, 73868, Pitch_bend_c, 1, 8192
6, 73870, Pitch_bend_c, 1, 8192
6, 73873, Pitch_bend_c, 1, 7680
6, 73874, Pitch_bend_c, 1, 7424
6, 73876, Pitch_bend_c, 1, 7296
6, 73877, Pitch_bend_c, 1, 6912
6, 73878, Pitch_bend_c, 1, 6656
6, 73879, Pitch_bend_c, 1, 6400
6, 73881, Pitch_bend_c, 1, 6016
6, 73882, Pitch_bend_c, 1, 5760
6, 73883, Pitch_bend_c, 1, 5376
6, 73884, Pitch_bend_c, 1, 4992
6, 73885, Pitch_bend_c, 1, 4736
6, 73887, Pitch_bend_c, 1, 4480
6, 73888, Pitch_bend_c, 1, 4224
6, 73889, Pitch_bend_c, 1, 3968
6, 73891, Pitch_bend_c, 1, 3712
6, 73892, Pitch_bend_c, 1, 3584
6, 73893, Pitch_bend_c, 1, 3456
6, 73894, Pitch_bend_c, 1, 3200
6, 73896, Pitch_bend_c, 1, 3072
6, 73897, Pitch_bend_c, 1, 2944
6, 73898, Pitch_bend_c, 1, 2816
6, 73901, Pitch_bend_c, 1, 2560
6, 73903, Pitch_bend_c, 1, 2304
6, 73904, Pitch_bend_c, 1, 2176
6, 73907, Pitch_bend_c, 1, 2048
6, 73909, Pitch_bend_c, 1, 1920
6, 73912, Note_on_c, 1, 46, 76
6, 73925, Pitch_bend_c, 1, 2048
6, 73926, Pitch_bend_c, 1, 2176
6, 73928, Pitch_bend_c, 1, 2432
6, 73931, Pitch_bend_c, 1, 2560
6, 73933, Pitch_bend_c, 1, 2688
6, 73936, Pitch_bend_c, 1, 2816
6, 73939, Pitch_bend_c, 1, 2944
6, 73940, Pitch_bend_c, 1, 3072
6, 73943, Pitch_bend_c, 1, 3328
6, 73944, Pitch_bend_c, 1, 3456
6, 73945, Pitch_bend_c, 1, 3584
6, 73948, Pitch_bend_c, 1, 3712
6, 73949, Pitch_bend_c, 1, 3840
6, 73950, Pitch_bend_c, 1, 3968
6, 73952, Pitch_bend_c, 1, 4224
6, 73954, Pitch_bend_c, 1, 4352
6, 73957, Pitch_bend_c, 1, 4480
6, 73960, Pitch_bend_c, 1, 4608
6, 73962, Pitch_bend_c, 1, 4736
6, 73964, Pitch_bend_c, 1, 4864
6, 73966, Pitch_bend_c, 1, 4992
6, 73967, Pitch_bend_c, 1, 5120
6, 73968, Pitch_bend_c, 1, 5376
6, 73971, Pitch_bend_c, 1, 5504
6, 73972, Pitch_bend_c, 1, 5632
6, 73973, Pitch_bend_c, 1, 5760
6, 73974, Pitch_bend_c, 1, 5888
6, 73976, Pitch_bend_c, 1, 6016
6, 73978, Pitch_bend_c, 1, 6272
6, 73979, Pitch_bend_c, 1, 6400
6, 73982, Pitch_bend_c, 1, 6528
6, 73984, Pitch_bend_c, 1, 6656
6, 73987, Pitch_bend_c, 1, 6784
6, 73989, Pitch_bend_c, 1, 6912
6, 73991, Pitch_bend_c, 1, 7040
6, 73992, Pitch_bend_c, 1, 7168
6, 73994, Pitch_bend_c, 1, 7296
6, 73996, Pitch_bend_c, 1, 7424
6, 73999, Pitch_bend_c, 1, 7680
6, 74002, Pitch_bend_c, 1, 8192
6, 74004, Pitch_bend_c, 1, 8192
6, 74006, Pitch_bend_c, 1, 8192
6, 74008, Pitch_bend_c, 1, 8192
6, 74009, Pitch_bend_c, 1, 8192
6, 74081, Note_on_c, 1, 46, 0
6, 74093, Note_on_c, 1, 46, 82
6, 74111, Note_on_c, 1, 46, 0
6, 74162, Note_on_c, 1, 46, 84
6, 74337, Note_on_c, 1, 39, 58
6, 74339, Note_on_c, 1, 46, 0
6, 74351, Note_on_c, 1, 39, 0
6, 74398, Note_on_c, 1, 40, 80
6, 74544, Note_on_c, 1, 40, 0
6, 74583, Note_on_c, 1, 40, 90
6, 74587, Note_on_c, 1, 41, 44
6, 74593, Note_on_c, 1, 41, 0
6, 74596, Note_on_c, 1, 40, 0
6, 74625, Pitch_bend_c, 1, 8192
6, 74626, Pitch_bend_c, 1, 8192
6, 74626, Pitch_bend_c, 1, 8192
6, 74628, Pitch_bend_c, 1, 7552
6, 74629, Pitch_bend_c, 1, 7296
6, 74630, Pitch_bend_c, 1, 6912
6, 74631, Pitch_bend_c, 1, 6528
6, 74633, Pitch_bend_c, 1, 6016
6, 74634, Pitch_bend_c, 1, 5632
6, 74635, Pitch_bend_c, 1, 5120
6, 74636, Pitch_bend_c, 1, 4736
6, 74638, Pitch_bend_c, 1, 4480
6, 74639, Pitch_bend_c, 1, 4096
6, 74640, Pitch_bend_c, 1, 3840
6, 74641, Pitch_bend_c, 1, 3712
6, 74643, Pitch_bend_c, 1, 3456
6, 74644, Pitch_bend_c, 1, 3328
6, 74645, Pitch_bend_c, 1, 3200
6, 74647, Pitch_bend_c, 1, 3072
6, 74649, Pitch_bend_c, 1, 2816
6, 74652, Note_on_c, 1, 40, 94
6, 74652, Pitch_bend_c, 1, 2688
6, 74667, Pitch_bend_c, 1, 2816
6, 74668, Pitch_bend_c, 1, 2944
6, 74671, Pitch_bend_c, 1, 3200
6, 74672, Pitch_bend_c, 1, 3328
6, 74673, Pitch_bend_c, 1, 3584
6, 74675, Pitch_bend_c, 1, 3840
6, 74676, Pitch_bend_c, 1, 4096
6, 74677, Pitch_bend_c, 1, 4608
6, 74678, Pitch_bend_c, 1, 4992
6, 74680, Pitch_bend_c, 1, 5376
6, 74681, Pitch_bend_c, 1, 5760
6, 74682, Pitch_bend_c, 1, 5888
6, 74684, Pitch_bend_c, 1, 6016
6, 74685, Pitch_bend_c, 1, 6144
6, 74686, Pitch_bend_c, 1, 6272
6, 74689, Pitch_bend_c, 1, 6400
6, 74695, Pitch_bend_c, 1, 6528
6, 74699, Pitch_bend_c, 1, 6656
6, 74702, Pitch_bend_c, 1, 6912
6, 74703, Pitch_bend_c, 1, 7040
6, 74705, Pitch_bend_c, 1, 7168
6, 74708, Pitch_bend_c, 1, 7424
6, 74710, Pitch_bend_c, 1, 7552
6, 74712, Pitch_bend_c, 1, 7680
6, 74713, Pitch_bend_c, 1, 8192
6, 74714, Pitch_bend_c, 1, 8192
6, 74715, Pitch_bend_c, 1, 8192
6, 74716, Pitch_bend_c, 1, 8192
6, 74872, Note_on_c, 1, 40, 0
6, 74881, Note_on_c, 1, 41, 90
6, 75023, Note_on_c, 1, 41, 0
6, 75065, Note_on_c, 1, 41, 92
6, 75079, Note_on_c, 1, 41, 0
6, 75126, Note_on_c, 1, 41, 105
6, 75300, Note_on_c, 1, 38, 52
6, 75311, Note_on_c, 1, 41, 0
6, 75315, Note_on_c, 1, 38, 0
6, 75336, Note_on_c, 1, 39, 75
6, 75353, Note_on_c, 1, 39, 0
6, 75363, Note_on_c, 1, 40, 80
6, 75510, Note_on_c, 1, 40, 0
6, 75535, Note_on_c, 1, 40, 74
6, 75587, Note_on_c, 1, 40, 0
6, 75599, Note_on_c, 1, 39, 77
6, 75718, Note_on_c, 1, 39, 0
6, 75727, Note_on_c, 1, 39, 83
6, 75821, Note_on_c, 1, 37, 19
6, 75836, Note_on_c, 1, 39, 0
6, 75840, Note_on_c, 1, 37, 0
6, 75841, Note_on_c, 1, 38, 76
6, 75992, Note_on_c, 1, 38, 0
6, 76017, Note_on_c, 1, 38, 80
6, 76077, Note_on_c, 1, 38, 0
6, 76077, Note_on_c, 1, 43, 79
6, 76201, Note_on_c, 1, 31, 83
6, 76308, Note_on_c, 1, 31, 0
6, 76320, Note_on_c, 1, 43, 0
6, 76320, Note_on_c, 1, 36, 79
6, 76338, Note_on_c, 1, 36, 0
6, 76353, Note_on_c, 1, 36, 78
6, 76386, Note_on_c, 1, 36, 0
6, 76443, Note_on_c, 1, 36, 89
6, 76557, Note_on_c, 1, 48, 110
6, 76692, Note_on_c, 1, 36, 0
6, 76714, Note_on_c, 1, 36, 79
6, 76725, Note_on_c, 1, 48, 0
6, 76733, Note_on_c, 1, 36, 0
6, 76741, Note_on_c, 1, 43, 81
6, 76768, Note_on_c, 1, 43, 0
6, 76801, Note_on_c, 1, 42, 83
6, 76825, Note_on_c, 1, 42, 0
6, 76862, Note_on_c, 1, 30, 86
6, 77044, Note_on_c, 1, 42, 88
6, 77062, Note_on_c, 1, 42, 0
6, 77077, Note_on_c, 1, 42, 81
6, 77088, Note_on_c, 1, 30, 0
6, 77094, Note_on_c, 1, 42, 0
6, 77098, Note_on_c, 1, 30, 59
6, 77153, Note_on_c, 1, 30, 0
6, 77164, Note_on_c, 1, 30, 71
6, 77213, Note_on_c, 1, 30, 0
6, 77220, Note_on_c, 1, 34, 78
6, 77225, Note_on_c, 1, 35, 70
6, 77254, Note_on_c, 1, 35, 0
6, 77277, Note_on_c, 1, 34, 0
6, 77284, Note_on_c, 1, 35, 82
6, 77442, Note_on_c, 1, 35, 0
6, 77462, Note_on_c, 1, 35, 94
6, 77503, Note_on_c, 1, 35, 0
6, 77524, Note_on_c, 1, 35, 85
6, 77691, Note_on_c, 1, 35, 0
6, 77699, Note_on_c, 1, 28, 89
6, 77704, Note_on_c, 1, 35, 32
6, 77711, Note_on_c, 1, 35, 0
6, 77749, Note_on_c, 1, 28, 0
6, 77765, Note_on_c, 1, 28, 85
6, 77918, Note_on_c, 1, 28, 0
6, 77937, Note_on_c, 1, 28, 82
6, 77975, Note_on_c, 1, 28, 0
6, 78001, Note_on_c, 1, 28, 80
6, 78138, Note_on_c, 1, 28, 0
6, 78174, Note_on_c, 1, 28, 85
6, 78238, Note_on_c, 1, 28, 0
6, 78242, Note_on_c, 1, 33, 94
6, 78387, Note_on_c, 1, 33, 0
6, 78417, Note_on_c, 1, 33, 90
6, 78472, Note_on_c, 1, 33, 0
6, 78481, Note_on_c, 1, 31, 88
6, 78647, Note_on_c, 1, 31, 0
6, 78656, Note_on_c, 1, 33, 80
6, 78671, Note_on_c, 1, 33, 0
6, 78693, Note_on_c, 1, 31, 75
6, 78708, Note_on_c, 1, 31, 0
6, 78721, Note_on_c, 1, 29, 84
6, 78896, Note_on_c, 1, 29, 0
6, 78901, Note_on_c, 1, 33, 66
6, 78936, Note_on_c, 1, 33, 0
6, 78938, Note_on_c, 1, 31, 79
6, 78951, Note_on_c, 1, 31, 0
6, 78963, Note_on_c, 1, 29, 76
6, 79001, Note_on_c, 1, 29, 0
6, 79026, Note_on_c, 1, 29, 81
6, 79075, Note_on_c, 1, 29, 0
6, 79082, Note_on_c, 1, 28, 80
6, 79087, Note_on_c, 1, 29, 34
6, 79094, Note_on_c, 1, 29, 0
6, 79127, Note_on_c, 1, 28, 0
6, 79141, Note_on_c, 1, 28, 75
6, 79188, Note_on_c, 1, 28, 0
6, 79200, Note_on_c, 1, 38, 87
6, 79310, Note_on_c, 1, 38, 0
6, 79322, Note_on_c, 1, 38, 90
6, 79420, Note_on_c, 1, 38, 0
6, 79420, Note_on_c, 1, 33, 57
6, 79435, Note_on_c, 1, 33, 0
6, 79440, Note_on_c, 1, 36, 80
6, 79489, Note_on_c, 1, 36, 0
6, 79501, Note_on_c, 1, 36, 83
6, 79668, Note_on_c, 1, 36, 0
6, 79684, Note_on_c, 1, 35, 82
6, 79831, Note_on_c, 1, 35, 0
6, 79860, Note_on_c, 1, 35, 83
6, 79919, Note_on_c, 1, 35, 0
6, 79923, Note_on_c, 1, 31, 85
6, 80078, Note_on_c, 1, 31, 0
6, 80099, Note_on_c, 1, 31, 81
6, 80154, Note_on_c, 1, 31, 0
6, 80161, Note_on_c, 1, 36, 88
6, 80319, Note_on_c, 1, 36, 0
6, 80338, Note_on_c, 1, 36, 88
6, 80357, Note_on_c, 1, 36, 0
6, 80400, Note_on_c, 1, 36, 87
6, 80582, Note_on_c, 1, 34, 67
6, 80586, Note_on_c, 1, 36, 0
6, 80596, Note_on_c, 1, 34, 0
6, 80618, Note_on_c, 1, 34, 67
6, 80638, Note_on_c, 1, 34, 0
6, 80641, Note_on_c, 1, 35, 81
6, 80802, Note_on_c, 1, 34, 60
6, 80814, Note_on_c, 1, 35, 0
6, 80822, Note_on_c, 1, 47, 88
6, 80830, Note_on_c, 1, 34, 0
6, 80923, Note_on_c, 1, 39, 48
6, 80937, Note_on_c, 1, 47, 0
6, 80941, Note_on_c, 1, 39, 0
6, 80948, Note_on_c, 1, 40, 80
6, 81040, Note_on_c, 1, 35, 65
6, 81044, Note_on_c, 1, 40, 0
6, 81056, Note_on_c, 1, 35, 0
6, 81061, Note_on_c, 1, 32, 74
6, 81122, Note_on_c, 1, 32, 0
6, 81124, Note_on_c, 1, 33, 81
6, 81272, Note_on_c, 1, 33, 0
6, 81285, Note_on_c, 1, 33, 75
6, 81303, Note_on_c, 1, 45, 105
6, 81306, Note_on_c, 1, 33, 0
6, 81337, Note_on_c, 1, 45, 0
6, 81367, Note_on_c, 1, 45, 113
6, 81538, Note_on_c, 1, 33, 80
6, 81588, Note_on_c, 1, 33, 0
6, 81602, Note_on_c, 1, 33, 82
6, 81606, Note_on_c, 1, 45, 0
6, 81725, Note_on_c, 1, 45, 110
6, 81730, Note_on_c, 1, 47, 31
6, 81736, Note_on_c, 1, 47, 0
6, 81738, Note_on_c, 1, 33, 0
6, 81752, Note_on_c, 1, 45, 0
6, 81762, Note_on_c, 1, 45, 84
6, 81779, Note_on_c, 1, 45, 0
6, 81786, Note_on_c, 1, 33, 76
6, 81845, Note_on_c, 1, 33, 0
6, 81847, Note_on_c, 1, 38, 89
6, 81894, Note_on_c, 1, 38, 0
6, 81905, Note_on_c, 1, 38, 88
6, 81997, Note_on_c, 1, 33, 72
6, 82005, Note_on_c, 1, 38, 0
6, 82021, Note_on_c, 1, 33, 0
6, 82021, Note_on_c, 1, 32, 75
6, 82071, Note_on_c, 1, 32, 0
6, 82080, Note_on_c, 1, 31, 83
6, 82203, Note_on_c, 1, 43, 108
6, 82263, Note_on_c, 1, 31, 0
6, 82310, Note_on_c, 1, 43, 0
6, 82320, Note_on_c, 1, 31, 83
6, 82366, Note_on_c, 1, 31, 0
6, 82380, Note_on_c, 1, 31, 78
6, 82459, Note_on_c, 1, 31, 0
6, 82472, Note_on_c, 1, 31, 66
6, 82502, Note_on_c, 1, 43, 103
6, 82504, Note_on_c, 1, 31, 0
6, 82560, Note_on_c, 1, 43, 0
6, 82564, Note_on_c, 1, 36, 87
6, 82607, Note_on_c, 1, 36, 0
6, 82622, Note_on_c, 1, 36, 82
6, 82715, Note_on_c, 1, 34, 55
6, 82737, Note_on_c, 1, 36, 0
6, 82741, Note_on_c, 1, 50, 103
6, 82748, Note_on_c, 1, 34, 0
6, 82838, Note_on_c, 1, 36, 66
6, 82848, Note_on_c, 1, 50, 0
6, 82850, Note_on_c, 1, 36, 0
6, 82860, Note_on_c, 1, 48, 84
6, 82953, Note_on_c, 1, 36, 62
6, 82962, Note_on_c, 1, 36, 0
6, 82963, Note_on_c, 1, 48, 0
6, 82975, Note_on_c, 1, 46, 74
6, 83033, Note_on_c, 1, 46, 0
6, 83038, Note_on_c, 1, 45, 77
6, 83221, Note_on_c, 1, 33, 79
6, 83241, Note_on_c, 1, 33, 0
6, 83281, Note_on_c, 1, 38, 91
6, 83327, Note_on_c, 1, 38, 0
6, 83339, Note_on_c, 1, 38, 83
6, 83341, Note_on_c, 1, 45, 0
6, 83451, Note_on_c, 1, 38, 0
6, 83464, Note_on_c, 1, 38, 30
6, 83511, Note_on_c, 1, 38, 0
6, 83520, Note_on_c, 1, 31, 81
6, 83655, Note_on_c, 1, 31, 0
6, 83705, Note_on_c, 1, 36, 58
6, 83706, Note_on_c, 1, 35, 64
6, 83712, Note_on_c, 1, 35, 0
6, 83727, Note_on_c, 1, 36, 0
6, 83760, Note_on_c, 1, 36, 74
6, 83802, Note_on_c, 1, 36, 0
6, 83823, Note_on_c, 1, 36, 77
6, 83918, Note_on_c, 1, 32, 51
6, 83936, Note_on_c, 1, 36, 0
6, 83939, Note_on_c, 1, 32, 0
6, 83940, Note_on_c, 1, 40, 69
6, 83987, Note_on_c, 1, 40, 0
6, 84003, Note_on_c, 1, 41, 84
6, 84092, Note_on_c, 1, 41, 0
6, 84104, Note_on_c, 1, 29, 52
6, 84111, Note_on_c, 1, 29, 0
6, 84121, Note_on_c, 1, 41, 91
6, 84218, Note_on_c, 1, 36, 60
6, 84224, Note_on_c, 1, 36, 0
6, 84233, Note_on_c, 1, 41, 0
6, 84239, Note_on_c, 1, 40, 85
6, 84349, Note_on_c, 1, 40, 0
6, 84364, Note_on_c, 1, 40, 83
6, 84474, Note_on_c, 1, 40, 0
6, 84479, Note_on_c, 1, 38, 78
6, 84631, Note_on_c, 1, 38, 0
6, 84662, Note_on_c, 1, 38, 94
6, 84692, Note_on_c, 1, 38, 0
6, 84721, Note_on_c, 1, 36, 82
6, 84861, Note_on_c, 1, 36, 0
6, 84898, Note_on_c, 1, 36, 96
6, 84954, Note_on_c, 1, 36, 0
6, 84961, Note_on_c, 1, 35, 79
6, 85127, Note_on_c, 1, 34, 29
6, 85138, Note_on_c, 1, 47, 103
6, 85146, Note_on_c, 1, 34, 0
6, 85146, Note_on_c, 1, 35, 0
6, 85323, Note_on_c, 1, 35, 71
6, 85338, Note_on_c, 1, 35, 0
6, 85353, Note_on_c, 1, 35, 60
6, 85377, Note_on_c, 1, 47, 0
6, 85378, Note_on_c, 1, 29, 71
6, 85379, Note_on_c, 1, 35, 0
6, 85432, Note_on_c, 1, 29, 0
6, 85439, Note_on_c, 1, 28, 79
6, 85605, Note_on_c, 1, 28, 0
6, 85620, Note_on_c, 1, 28, 77
6, 85655, Note_on_c, 1, 28, 0
6, 85683, Note_on_c, 1, 28, 88
6, 85837, Note_on_c, 1, 28, 0
6, 85853, Note_on_c, 1, 28, 71
6, 85914, Note_on_c, 1, 28, 0
6, 85917, Note_on_c, 1, 33, 83
6, 86095, Note_on_c, 1, 45, 103
6, 86107, Note_on_c, 1, 33, 0
6, 86114, Note_on_c, 1, 45, 0
6, 86132, Note_on_c, 1, 45, 87
6, 86159, Note_on_c, 1, 43, 81
6, 86167, Note_on_c, 1, 45, 0
6, 86282, Note_on_c, 1, 31, 81
6, 86299, Note_on_c, 1, 43, 0
6, 86305, Note_on_c, 1, 31, 0
6, 86317, Note_on_c, 1, 31, 80
6, 86341, Note_on_c, 1, 31, 0
6, 86344, Note_on_c, 1, 31, 55
6, 86393, Note_on_c, 1, 31, 0
6, 86401, Note_on_c, 1, 29, 71
6, 86563, Note_on_c, 1, 36, 61
6, 86572, Note_on_c, 1, 36, 0
6, 86572, Note_on_c, 1, 29, 0
6, 86578, Note_on_c, 1, 41, 108
6, 86638, Note_on_c, 1, 41, 0
6, 86641, Note_on_c, 1, 40, 85
6, 86685, Note_on_c, 1, 40, 0
6, 86697, Note_on_c, 1, 40, 78
6, 86795, Note_on_c, 1, 37, 58
6, 86805, Note_on_c, 1, 40, 0
6, 86815, Note_on_c, 1, 37, 0
6, 86820, Note_on_c, 1, 39, 73
6, 86876, Note_on_c, 1, 39, 0
6, 86881, Note_on_c, 1, 38, 72
6, 87058, Note_on_c, 1, 33, 69
6, 87067, Note_on_c, 1, 38, 0
6, 87072, Note_on_c, 1, 33, 0
6, 87092, Note_on_c, 1, 33, 65
6, 87108, Note_on_c, 1, 33, 0
6, 87122, Note_on_c, 1, 36, 88
6, 87308, Note_on_c, 1, 33, 67
6, 87314, Note_on_c, 1, 33, 0
6, 87354, Note_on_c, 1, 36, 0
6, 87364, Note_on_c, 1, 35, 88
6, 87507, Note_on_c, 1, 35, 0
6, 87518, Note_on_c, 1, 35, 67
6, 87541, Note_on_c, 1, 35, 0
6, 87541, Note_on_c, 1, 43, 110
6, 87582, Note_on_c, 1, 43, 0
6, 87602, Note_on_c, 1, 43, 96
6, 87694, Note_on_c, 1, 38, 62
6, 87709, Note_on_c, 1, 38, 0
6, 87721, Note_on_c, 1, 31, 76
6, 87759, Note_on_c, 1, 31, 0
6, 87776, Note_on_c, 1, 31, 74
6, 87781, Note_on_c, 1, 43, 0
6, 87834, Note_on_c, 1, 31, 0
6, 87840, Note_on_c, 1, 36, 85
6, 87967, Note_on_c, 1, 48, 105
6, 87985, Note_on_c, 1, 36, 0
6, 88142, Note_on_c, 1, 36, 88
6, 88283, Note_on_c, 1, 36, 0
6, 88292, Note_on_c, 1, 36, 36
6, 88311, Note_on_c, 1, 48, 0
6, 88318, Note_on_c, 1, 42, 87
6, 88320, Note_on_c, 1, 36, 0
6, 88498, Note_on_c, 1, 30, 80
6, 88508, Note_on_c, 1, 42, 0
6, 88654, Note_on_c, 1, 37, 33
6, 88670, Note_on_c, 1, 37, 0
6, 88682, Note_on_c, 1, 42, 83
6, 88692, Note_on_c, 1, 30, 0
6, 88703, Note_on_c, 1, 42, 0
6, 88741, Note_on_c, 1, 42, 80
6, 88798, Note_on_c, 1, 42, 0
6, 88800, Note_on_c, 1, 29, 76
6, 88973, Note_on_c, 1, 29, 0
6, 88981, Note_on_c, 1, 36, 62
6, 89041, Note_on_c, 1, 45, 94
6, 89087, Note_on_c, 1, 45, 0
6, 89099, Note_on_c, 1, 45, 74
6, 89129, Note_on_c, 1, 36, 0
6, 89146, Note_on_c, 1, 45, 0
6, 89195, Note_on_c, 1, 36, 80
6, 89215, Note_on_c, 1, 36, 0
6, 89222, Note_on_c, 1, 33, 59
6, 89284, Note_on_c, 1, 33, 0
6, 89284, Note_on_c, 1, 34, 80
6, 89402, Note_on_c, 1, 34, 0
6, 89456, Note_on_c, 1, 34, 84
6, 89485, Note_on_c, 1, 34, 0
6, 89519, Note_on_c, 1, 34, 83
6, 89665, Note_on_c, 1, 34, 0
6, 89696, Note_on_c, 1, 34, 83
6, 89758, Note_on_c, 1, 34, 0
6, 89760, Note_on_c, 1, 40, 89
6, 89905, Note_on_c, 1, 40, 0
6, 89932, Note_on_c, 1, 40, 81
6, 89952, Note_on_c, 1, 40, 0
6, 89998, Note_on_c, 1, 40, 82
6, 90121, Note_on_c, 1, 28, 94
6, 90219, Note_on_c, 1, 28, 0
6, 90232, Note_on_c, 1, 40, 0
6, 90234, Note_on_c, 1, 29, 78
6, 90383, Note_on_c, 1, 29, 0
6, 90416, Note_on_c, 1, 29, 84
6, 90448, Note_on_c, 1, 29, 0
6, 90476, Note_on_c, 1, 29, 85
6, 90635, Note_on_c, 1, 29, 0
6, 90655, Note_on_c, 1, 29, 74
6, 90690, Note_on_c, 1, 29, 0
6, 90717, Note_on_c, 1, 28, 89
6, 90880, Note_on_c, 1, 35, 68
6, 90891, Note_on_c, 1, 35, 0
6, 90896, Note_on_c, 1, 28, 0
6, 90901, Note_on_c, 1, 40, 91
6, 90954, Note_on_c, 1, 40, 0
6, 90964, Note_on_c, 1, 39, 90
6, 91064, Note_on_c, 1, 39, 0
6, 91082, Note_on_c, 1, 39, 84
6, 91196, Note_on_c, 1, 39, 0
6, 91205, Note_on_c, 1, 38, 91
6, 91209, Note_on_c, 1, 39, 31
6, 91215, Note_on_c, 1, 39, 0
6, 91305, Note_on_c, 1, 38, 0
6, 91320, Note_on_c, 1, 38, 89
6, 91415, Note_on_c, 1, 33, 67
6, 91421, Note_on_c, 1, 33, 0
6, 91436, Note_on_c, 1, 38, 0
6, 91441, Note_on_c, 1, 31, 84
6, 91533, Note_on_c, 1, 31, 0
6, 91625, Note_on_c, 1, 31, 85
6, 91659, Note_on_c, 1, 31, 0
6, 92159, Note_on_c, 1, 49, 102
6, 92640, Note_on_c, 1, 42, 87
6, 92663, Note_on_c, 1, 49, 0
6, 93121, Note_on_c, 1, 42, 0
6, 93127, Note_on_c, 1, 35, 83
6, 93594, Note_on_c, 1, 35, 0
6, 93605, Note_on_c, 1, 36, 103
6, 93610, Note_on_c, 1, 35, 68
6, 93616, Note_on_c, 1, 35, 0
6, 94442, Note_on_c, 1, 36, 0
6, 94442, End_track
7, 0, Start_track
7, 0, Title_t, "Track 6"
7, 0, Control_c, 0, 7, 95
7, 0, Control_c, 0, 10, 97
7, 0, End_track
8, 0, Start_track
8, 0, Title_t, "Track 7"
8, 0, Control_c, 6, 7, 69
8, 0, Control_c, 6, 10, 40
8, 0, End_track
9, 0, Start_track
9, 0, Title_t, "Track 8"
9, 0, Control_c, 7, 7, 47
9, 0, Control_c, 7, 10, 38
9, 0, End_track
10, 0, Start_track
10, 0, Title_t, "Track 9"
10, 0, Control_c, 9, 0, 0
10, 0, Control_c, 9, 7, 90
10, 0, Control_c, 9, 10, 64
10, 0, Control_c, 9, 32, 10
10, 0, Program_c, 9, 0
10, 480, Note_on_c, 9, 42, 64
10, 480, Note_on_c, 9, 35, 100
10, 480, Note_on_c, 9, 37, 90
10, 480, Note_on_c, 9, 49, 50
10, 480, Note_on_c, 9, 70, 80
10, 498, Note_on_c, 9, 42, 0
10, 505, Note_on_c, 9, 49, 0
10, 505, Note_on_c, 9, 35, 0
10, 505, Note_on_c, 9, 37, 0
10, 505, Note_on_c, 9, 70, 0
10, 540, Note_on_c, 9, 42, 59
10, 559, Note_on_c, 9, 42, 0
10, 600, Note_on_c, 9, 42, 52
10, 600, Note_on_c, 9, 70, 80
10, 617, Note_on_c, 9, 42, 0
10, 625, Note_on_c, 9, 70, 0
10, 660, Note_on_c, 9, 42, 56
10, 660, Note_on_c, 9, 35, 70
10, 660, Note_on_c, 9, 37, 90
10, 678, Note_on_c, 9, 42, 0
10, 685, Note_on_c, 9, 37, 0
10, 685, Note_on_c, 9, 35, 0
10, 720, Note_on_c, 9, 42, 63
10, 720, Note_on_c, 9, 35, 100
10, 720, Note_on_c, 9, 70, 80
10, 738, Note_on_c, 9, 42, 0
10, 745, Note_on_c, 9, 70, 0
10, 745, Note_on_c, 9, 35, 0
10, 780, Note_on_c, 9, 46, 63
10, 799, Note_on_c, 9, 46, 0
10, 840, Note_on_c, 9, 42, 47
10, 840, Note_on_c, 9, 37, 90
10, 840, Note_on_c, 9, 70, 80
10, 858, Note_on_c, 9, 42, 0
10, 865, Note_on_c, 9, 70, 0
10, 865, Note_on_c, 9, 37, 0
10, 900, Note_on_c, 9, 42, 45
10, 900, Note_on_c, 9, 35, 70
10, 917, Note_on_c, 9, 42, 0
10, 925, Note_on_c, 9, 35, 0
10, 960, Note_on_c, 9, 42, 45
10, 960, Note_on_c, 9, 35, 100
10, 960, Note_on_c, 9, 70, 80
10, 979, Note_on_c, 9, 42, 0
10, 985, Note_on_c, 9, 70, 0
10, 985, Note_on_c, 9, 35, 0
10, 1020, Note_on_c, 9, 42, 42
10, 1039, Note_on_c, 9, 42, 0
10, 1080, Note_on_c, 9, 42, 43
10, 1080, Note_on_c, 9, 37, 90
10, 1080, Note_on_c, 9, 70, 80
10, 1100, Note_on_c, 9, 42, 0
10, 1105, Note_on_c, 9, 70, 0
10, 1105, Note_on_c, 9, 37, 0
10, 1140, Note_on_c, 9, 42, 46
10, 1140, Note_on_c, 9, 35, 70
10, 1158, Note_on_c, 9, 42, 0
10, 1165, Note_on_c, 9, 35, 0
10, 1200, Note_on_c, 9, 42, 72
10, 1200, Note_on_c, 9, 35, 100
10, 1200, Note_on_c, 9, 70, 80
10, 1220, Note_on_c, 9, 42, 0
10, 1225, Note_on_c, 9, 70, 0
10, 1225, Note_on_c, 9, 35, 0
10, 1260, Note_on_c, 9, 46, 65
10, 1260, Note_on_c, 9, 37, 90
10, 1277, Note_on_c, 9, 46, 0
10, 1285, Note_on_c, 9, 37, 0
10, 1320, Note_on_c, 9, 42, 40
10, 1320, Note_on_c, 9, 70, 80
10, 1338, Note_on_c, 9, 42, 0
10, 1345, Note_on_c, 9, 70, 0
10, 1380, Note_on_c, 9, 42, 56
10, 1380, Note_on_c, 9, 35, 70
10, 1400, Note_on_c, 9, 42, 0
10, 1405, Note_on_c, 9, 35, 0
10, 1440, Note_on_c, 9, 42, 59
10, 1440, Note_on_c, 9, 35, 100
10, 1440, Note_on_c, 9, 37, 90
10, 1440, Note_on_c, 9, 70, 80
10, 1457, Note_on_c, 9, 42, 0
10, 1465, Note_on_c, 9, 35, 0
10, 1465, Note_on_c, 9, 37, 0
10, 1465, Note_on_c, 9, 70, 0
10, 1500, Note_on_c, 9, 42, 52
10, 1518, Note_on_c, 9, 42, 0
10, 1560, Note_on_c, 9, 42, 46
10, 1560, Note_on_c, 9, 70, 80
10, 1575, Note_on_c, 9, 42, 0
10, 1585, Note_on_c, 9, 70, 0
10, 1620, Note_on_c, 9, 42, 55
10, 1620, Note_on_c, 9, 35, 70
10, 1620, Note_on_c, 9, 37, 90
10, 1636, Note_on_c, 9, 42, 0
10, 1645, Note_on_c, 9, 37, 0
10, 1645, Note_on_c, 9, 35, 0
10, 1680, Note_on_c, 9, 42, 75
10, 1680, Note_on_c, 9, 35, 100
10, 1680, Note_on_c, 9, 70, 80
10, 1697, Note_on_c, 9, 42, 0
10, 1705, Note_on_c, 9, 70, 0
10, 1705, Note_on_c, 9, 35, 0
10, 1740, Note_on_c, 9, 46, 65
10, 1756, Note_on_c, 9, 46, 0
10, 1800, Note_on_c, 9, 42, 60
10, 1800, Note_on_c, 9, 37, 90
10, 1800, Note_on_c, 9, 70, 80
10, 1817, Note_on_c, 9, 42, 0
10, 1825, Note_on_c, 9, 70, 0
10, 1825, Note_on_c, 9, 37, 0
10, 1860, Note_on_c, 9, 42, 72
10, 1860, Note_on_c, 9, 35, 70
10, 1879, Note_on_c, 9, 42, 0
10, 1885, Note_on_c, 9, 35, 0
10, 1920, Note_on_c, 9, 42, 71
10, 1920, Note_on_c, 9, 35, 100
10, 1920, Note_on_c, 9, 70, 80
10, 1933, Note_on_c, 9, 42, 0
10, 1945, Note_on_c, 9, 70, 0
10, 1945, Note_on_c, 9, 35, 0
10, 1950, Note_on_c, 9, 42, 52
10, 1957, Note_on_c, 9, 42, 0
10, 1980, Note_on_c, 9, 42, 72
10, 1996, Note_on_c, 9, 42, 0
10, 2040, Note_on_c, 9, 46, 51
10, 2040, Note_on_c, 9, 37, 90
10, 2040, Note_on_c, 9, 70, 80
10, 2054, Note_on_c, 9, 46, 0
10, 2065, Note_on_c, 9, 70, 0
10, 2065, Note_on_c, 9, 37, 0
10, 2100, Note_on_c, 9, 42, 78
10, 2100, Note_on_c, 9, 35, 70
10, 2119, Note_on_c, 9, 42, 0
10, 2125, Note_on_c, 9, 35, 0
10, 2160, Note_on_c, 9, 42, 57
10, 2160, Note_on_c, 9, 35, 100
10, 2160, Note_on_c, 9, 70, 80
10, 2175, Note_on_c, 9, 42, 0
10, 2185, Note_on_c, 9, 70, 0
10, 2185, Note_on_c, 9, 35, 0
10, 2220, Note_on_c, 9, 42, 57
10, 2220, Note_on_c, 9, 37, 90
10, 2236, Note_on_c, 9, 42, 0
10, 2245, Note_on_c, 9, 37, 0
10, 2280, Note_on_c, 9, 42, 58
10, 2280, Note_on_c, 9, 70, 80
10, 2296, Note_on_c, 9, 42, 0
10, 2305, Note_on_c, 9, 70, 0
10, 2340, Note_on_c, 9, 42, 63
10, 2340, Note_on_c, 9, 35, 70
10, 2355, Note_on_c, 9, 42, 0
10, 2365, Note_on_c, 9, 35, 0
10, 2400, Note_on_c, 9, 42, 62
10, 2400, Note_on_c, 9, 35, 100
10, 2400, Note_on_c, 9, 37, 90
10, 2400, Note_on_c, 9, 70, 80
10, 2421, Note_on_c, 9, 42, 0
10, 2425, Note_on_c, 9, 35, 0
10, 2425, Note_on_c, 9, 37, 0
10, 2425, Note_on_c, 9, 70, 0
10, 2460, Note_on_c, 9, 42, 56
10, 2478, Note_on_c, 9, 42, 0
10, 2520, Note_on_c, 9, 42, 56
10, 2520, Note_on_c, 9, 70, 80
10, 2535, Note_on_c, 9, 42, 0
10, 2545, Note_on_c, 9, 70, 0
10, 2580, Note_on_c, 9, 42, 70
10, 2580, Note_on_c, 9, 35, 70
10, 2580, Note_on_c, 9, 37, 90
10, 2600, Note_on_c, 9, 42, 0
10, 2605, Note_on_c, 9, 37, 0
10, 2605, Note_on_c, 9, 35, 0
10, 2640, Note_on_c, 9, 42, 81
10, 2640, Note_on_c, 9, 35, 100
10, 2640, Note_on_c, 9, 70, 80
10, 2658, Note_on_c, 9, 42, 0
10, 2665, Note_on_c, 9, 70, 0
10, 2665, Note_on_c, 9, 35, 0
10, 2700, Note_on_c, 9, 46, 69
10, 2717, Note_on_c, 9, 46, 0
10, 2760, Note_on_c, 9, 42, 60
10, 2760, Note_on_c, 9, 37, 90
10, 2760, Note_on_c, 9, 70, 80
10, 2778, Note_on_c, 9, 42, 0
10, 2785, Note_on_c, 9, 70, 0
10, 2785, Note_on_c, 9, 37, 0
10, 2820, Note_on_c, 9, 42, 59
10, 2820, Note_on_c, 9, 35, 70
10, 2840, Note_on_c, 9, 42, 0
10, 2845, Note_on_c, 9, 35, 0
10, 2880, Note_on_c, 9, 42, 61
10, 2880, Note_on_c, 9, 35, 100
10, 2880, Note_on_c, 9, 70, 80
10, 2898, Note_on_c, 9, 42, 0
10, 2905, Note_on_c, 9, 70, 0
10, 2905, Note_on_c, 9, 35, 0
10, 2940, Note_on_c, 9, 42, 57
10, 2959, Note_on_c, 9, 42, 0
10, 3000, Note_on_c, 9, 42, 60
10, 3000, Note_on_c, 9, 37, 90
10, 3000, Note_on_c, 9, 70, 80
10, 3016, Note_on_c, 9, 42, 0
10, 3025, Note_on_c, 9, 70, 0
10, 3025, Note_on_c, 9, 37, 0
10, 3060, Note_on_c, 9, 42, 65
10, 3060, Note_on_c, 9, 35, 70
10, 3079, Note_on_c, 9, 42, 0
10, 3085, Note_on_c, 9, 35, 0
10, 3120, Note_on_c, 9, 42, 67
10, 3120, Note_on_c, 9, 35, 100
10, 3120, Note_on_c, 9, 70, 80
10, 3138, Note_on_c, 9, 42, 0
10, 3145, Note_on_c, 9, 70, 0
10, 3145, Note_on_c, 9, 35, 0
10, 3180, Note_on_c, 9, 46, 64
10, 3180, Note_on_c, 9, 37, 90
10, 3197, Note_on_c, 9, 46, 0
10, 3205, Note_on_c, 9, 37, 0
10, 3240, Note_on_c, 9, 42, 55
10, 3240, Note_on_c, 9, 70, 80
10, 3257, Note_on_c, 9, 42, 0
10, 3265, Note_on_c, 9, 70, 0
10, 3300, Note_on_c, 9, 42, 60
10, 3300, Note_on_c, 9, 35, 70
10, 3318, Note_on_c, 9, 42, 0
10, 3325, Note_on_c, 9, 35, 0
10, 3360, Note_on_c, 9, 42, 63
10, 3360, Note_on_c, 9, 35, 100
10, 3360, Note_on_c, 9, 37, 90
10, 3360, Note_on_c, 9, 70, 80
10, 3378, Note_on_c, 9, 42, 0
10, 3385, Note_on_c, 9, 35, 0
10, 3385, Note_on_c, 9, 37, 0
10, 3385, Note_on_c, 9, 70, 0
10, 3420, Note_on_c, 9, 42, 71
10, 3433, Note_on_c, 9, 42, 0
10, 3450, Note_on_c, 9, 42, 60
10, 3458, Note_on_c, 9, 42, 0
10, 3480, Note_on_c, 9, 42, 71
10, 3480, Note_on_c, 9, 70, 80
10, 3497, Note_on_c, 9, 42, 0
10, 3505, Note_on_c, 9, 70, 0
10, 3540, Note_on_c, 9, 42, 74
10, 3540, Note_on_c, 9, 35, 70
10, 3540, Note_on_c, 9, 37, 90
10, 3559, Note_on_c, 9, 42, 0
10, 3565, Note_on_c, 9, 37, 0
10, 3565, Note_on_c, 9, 35, 0
10, 3600, Note_on_c, 9, 42, 77
10, 3600, Note_on_c, 9, 35, 100
10, 3600, Note_on_c, 9, 70, 80
10, 3615, Note_on_c, 9, 42, 0
10, 3625, Note_on_c, 9, 70, 0
10, 3625, Note_on_c, 9, 35, 0
10, 3660, Note_on_c, 9, 46, 60
10, 3678, Note_on_c, 9, 46, 0
10, 3720, Note_on_c, 9, 42, 56
10, 3720, Note_on_c, 9, 37, 90
10, 3720, Note_on_c, 9, 70, 80
10, 3739, Note_on_c, 9, 42, 0
10, 3745, Note_on_c, 9, 70, 0
10, 3745, Note_on_c, 9, 37, 0
10, 3780, Note_on_c, 9, 42, 60
10, 3780, Note_on_c, 9, 35, 70
10, 3798, Note_on_c, 9, 42, 0
10, 3805, Note_on_c, 9, 35, 0
10, 3840, Note_on_c, 9, 42, 61
10, 3840, Note_on_c, 9, 35, 100
10, 3840, Note_on_c, 9, 70, 80
10, 3860, Note_on_c, 9, 42, 0
10, 3865, Note_on_c, 9, 70, 0
10, 3865, Note_on_c, 9, 35, 0
10, 3900, Note_on_c, 9, 42, 54
10, 3918, Note_on_c, 9, 42, 0
10, 3960, Note_on_c, 9, 42, 59
10, 3960, Note_on_c, 9, 37, 90
10, 3960, Note_on_c, 9, 70, 80
10, 3977, Note_on_c, 9, 42, 0
10, 3985, Note_on_c, 9, 70, 0
10, 3985, Note_on_c, 9, 37, 0
10, 4020, Note_on_c, 9, 42, 61
10, 4020, Note_on_c, 9, 35, 70
10, 4036, Note_on_c, 9, 42, 0
10, 4045, Note_on_c, 9, 35, 0
10, 4080, Note_on_c, 9, 42, 75
10, 4080, Note_on_c, 9, 35, 100
10, 4080, Note_on_c, 9, 70, 80
10, 4103, Note_on_c, 9, 42, 0
10, 4105, Note_on_c, 9, 70, 0
10, 4105, Note_on_c, 9, 35, 0
10, 4140, Note_on_c, 9, 46, 63
10, 4140, Note_on_c, 9, 37, 90
10, 4156, Note_on_c, 9, 46, 0
10, 4165, Note_on_c, 9, 37, 0
10, 4200, Note_on_c, 9, 42, 59
10, 4200, Note_on_c, 9, 70, 80
10, 4219, Note_on_c, 9, 42, 0
10, 4225, Note_on_c, 9, 70, 0
10, 4260, Note_on_c, 9, 42, 69
10, 4260, Note_on_c, 9, 35, 70
10, 4276, Note_on_c, 9, 42, 0
10, 4285, Note_on_c, 9, 35, 0
10, 4320, Note_on_c, 9, 42, 64
10, 4320, Note_on_c, 9, 35, 100
10, 4320, Note_on_c, 9, 37, 90
10, 4320, Note_on_c, 9, 70, 80
10, 4338, Note_on_c, 9, 42, 0
10, 4345, Note_on_c, 9, 35, 0
10, 4345, Note_on_c, 9, 37, 0
10, 4345, Note_on_c, 9, 70, 0
10, 4380, Note_on_c, 9, 42, 59
10, 4399, Note_on_c, 9, 42, 0
10, 4440, Note_on_c, 9, 42, 52
10, 4440, Note_on_c, 9, 70, 80
10, 4457, Note_on_c, 9, 42, 0
10, 4465, Note_on_c, 9, 70, 0
10, 4500, Note_on_c, 9, 42, 56
10, 4500, Note_on_c, 9, 35, 70
10, 4500, Note_on_c, 9, 37, 90
10, 4518, Note_on_c, 9, 42, 0
10, 4525, Note_on_c, 9, 37, 0
10, 4525, Note_on_c, 9, 35, 0
10, 4560, Note_on_c, 9, 42, 63
10, 4560, Note_on_c, 9, 35, 100
10, 4560, Note_on_c, 9, 70, 80
10, 4578, Note_on_c, 9, 42, 0
10, 4585, Note_on_c, 9, 70, 0
10, 4585, Note_on_c, 9, 35, 0
10, 4620, Note_on_c, 9, 46, 63
10, 4639, Note_on_c, 9, 46, 0
10, 4680, Note_on_c, 9, 42, 47
10, 4680, Note_on_c, 9, 37, 90
10, 4680, Note_on_c, 9, 70, 80
10, 4698, Note_on_c, 9, 42, 0
10, 4705, Note_on_c, 9, 70, 0
10, 4705, Note_on_c, 9, 37, 0
10, 4740, Note_on_c, 9, 42, 45
10, 4740, Note_on_c, 9, 35, 70
10, 4757, Note_on_c, 9, 42, 0
10, 4765, Note_on_c, 9, 35, 0
10, 4800, Note_on_c, 9, 42, 45
10, 4800, Note_on_c, 9, 35, 100
10, 4800, Note_on_c, 9, 70, 80
10, 4819, Note_on_c, 9, 42, 0
10, 4825, Note_on_c, 9, 70, 0
10, 4825, Note_on_c, 9, 35, 0
10, 4860, Note_on_c, 9, 42, 42
10, 4879, Note_on_c, 9, 42, 0
10, 4920, Note_on_c, 9, 42, 43
10, 4920, Note_on_c, 9, 37, 90
10, 4920, Note_on_c, 9, 70, 80
10, 4940, Note_on_c, 9, 42, 0
10, 4945, Note_on_c, 9, 70, 0
10, 4945, Note_on_c, 9, 37, 0
10, 4980, Note_on_c, 9, 42, 46
10, 4980, Note_on_c, 9, 35, 70
10, 4998, Note_on_c, 9, 42, 0
10, 5005, Note_on_c, 9, 35, 0
10, 5040, Note_on_c, 9, 42, 72
10, 5040, Note_on_c, 9, 35, 100
10, 5040, Note_on_c, 9, 70, 80
10, 5060, Note_on_c, 9, 42, 0
10, 5065, Note_on_c, 9, 70, 0
10, 5065, Note_on_c, 9, 35, 0
10, 5100, Note_on_c, 9, 46, 65
10, 5100, Note_on_c, 9, 37, 90
10, 5117, Note_on_c, 9, 46, 0
10, 5125, Note_on_c, 9, 37, 0
10, 5160, Note_on_c, 9, 42, 40
10, 5160, Note_on_c, 9, 70, 80
10, 5178, Note_on_c, 9, 42, 0
10, 5185, Note_on_c, 9, 70, 0
10, 5220, Note_on_c, 9, 42, 56
10, 5220, Note_on_c, 9, 35, 70
10, 5240, Note_on_c, 9, 42, 0
10, 5245, Note_on_c, 9, 35, 0
10, 5280, Note_on_c, 9, 42, 59
10, 5280, Note_on_c, 9, 35, 100
10, 5280, Note_on_c, 9, 37, 90
10, 5280, Note_on_c, 9, 70, 80
10, 5297, Note_on_c, 9, 42, 0
10, 5305, Note_on_c, 9, 35, 0
10, 5305, Note_on_c, 9, 37, 0
10, 5305, Note_on_c, 9, 70, 0
10, 5340, Note_on_c, 9, 42, 52
10, 5358, Note_on_c, 9, 42, 0
10, 5400, Note_on_c, 9, 42, 46
10, 5400, Note_on_c, 9, 70, 80
10, 5415, Note_on_c, 9, 42, 0
10, 5425, Note_on_c, 9, 70, 0
10, 5460, Note_on_c, 9, 42, 55
10, 5460, Note_on_c, 9, 35, 70
10, 5460, Note_on_c, 9, 37, 90
10, 5476, Note_on_c, 9, 42, 0
10, 5485, Note_on_c, 9, 37, 0
10, 5485, Note_on_c, 9, 35, 0
10, 5520, Note_on_c, 9, 42, 75
10, 5520, Note_on_c, 9, 35, 100
10, 5520, Note_on_c, 9, 70, 80
10, 5537, Note_on_c, 9, 42, 0
10, 5545, Note_on_c, 9, 70, 0
10, 5545, Note_on_c, 9, 35, 0
10, 5580, Note_on_c, 9, 46, 65
10, 5596, Note_on_c, 9, 46, 0
10, 5640, Note_on_c, 9, 42, 60
10, 5640, Note_on_c, 9, 37, 90
10, 5640, Note_on_c, 9, 70, 80
10, 5657, Note_on_c, 9, 42, 0
10, 5665, Note_on_c, 9, 70, 0
10, 5665, Note_on_c, 9, 37, 0
10, 5700, Note_on_c, 9, 42, 72
10, 5700, Note_on_c, 9, 35, 70
10, 5719, Note_on_c, 9, 42, 0
10, 5725, Note_on_c, 9, 35, 0
10, 5760, Note_on_c, 9, 42, 71
10, 5760, Note_on_c, 9, 35, 100
10, 5760, Note_on_c, 9, 70, 80
10, 5773, Note_on_c, 9, 42, 0
10, 5785, Note_on_c, 9, 70, 0
10, 5785, Note_on_c, 9, 35, 0
10, 5790, Note_on_c, 9, 42, 52
10, 5797, Note_on_c, 9, 42, 0
10, 5820, Note_on_c, 9, 42, 72
10, 5836, Note_on_c, 9, 42, 0
10, 5880, Note_on_c, 9, 46, 51
10, 5880, Note_on_c, 9, 37, 90
10, 5880, Note_on_c, 9, 70, 80
10, 5894, Note_on_c, 9, 46, 0
10, 5905, Note_on_c, 9, 70, 0
10, 5905, Note_on_c, 9, 37, 0
10, 5940, Note_on_c, 9, 42, 78
10, 5940, Note_on_c, 9, 35, 70
10, 5940, Note_on_c, 9, 48, 50
10, 5959, Note_on_c, 9, 42, 0
10, 5965, Note_on_c, 9, 48, 0
10, 5965, Note_on_c, 9, 35, 0
10, 6000, Note_on_c, 9, 42, 57
10, 6000, Note_on_c, 9, 35, 100
10, 6000, Note_on_c, 9, 70, 80
10, 6015, Note_on_c, 9, 42, 0
10, 6025, Note_on_c, 9, 70, 0
10, 6025, Note_on_c, 9, 35, 0
10, 6060, Note_on_c, 9, 42, 57
10, 6060, Note_on_c, 9, 37, 90
10, 6076, Note_on_c, 9, 42, 0
10, 6085, Note_on_c, 9, 37, 0
10, 6120, Note_on_c, 9, 42, 58
10, 6120, Note_on_c, 9, 70, 80
10, 6136, Note_on_c, 9, 42, 0
10, 6145, Note_on_c, 9, 70, 0
10, 6180, Note_on_c, 9, 42, 63
10, 6180, Note_on_c, 9, 35, 70
10, 6180, Note_on_c, 9, 45, 50
10, 6195, Note_on_c, 9, 42, 0
10, 6205, Note_on_c, 9, 45, 0
10, 6205, Note_on_c, 9, 35, 0
10, 6240, Note_on_c, 9, 42, 62
10, 6240, Note_on_c, 9, 35, 100
10, 6240, Note_on_c, 9, 37, 90
10, 6240, Note_on_c, 9, 70, 80
10, 6261, Note_on_c, 9, 42, 0
10, 6265, Note_on_c, 9, 35, 0
10, 6265, Note_on_c, 9, 37, 0
10, 6265, Note_on_c, 9, 70, 0
10, 6300, Note_on_c, 9, 42, 56
10, 6318, Note_on_c, 9, 42, 0
10, 6360, Note_on_c, 9, 42, 56
10, 6360, Note_on_c, 9, 70, 80
10, 6375, Note_on_c, 9, 42, 0
10, 6385, Note_on_c, 9, 70, 0
10, 6420, Note_on_c, 9, 42, 70
10, 6420, Note_on_c, 9, 35, 70
10, 6420, Note_on_c, 9, 37, 90
10, 6440, Note_on_c, 9, 42, 0
10, 6445, Note_on_c, 9, 37, 0
10, 6445, Note_on_c, 9, 35, 0
10, 6480, Note_on_c, 9, 42, 81
10, 6480, Note_on_c, 9, 35, 100
10, 6480, Note_on_c, 9, 70, 80
10, 6498, Note_on_c, 9, 42, 0
10, 6505, Note_on_c, 9, 70, 0
10, 6505, Note_on_c, 9, 35, 0
10, 6540, Note_on_c, 9, 46, 69
10, 6557, Note_on_c, 9, 46, 0
10, 6600, Note_on_c, 9, 42, 60
10, 6600, Note_on_c, 9, 37, 90
10, 6600, Note_on_c, 9, 70, 80
10, 6618, Note_on_c, 9, 42, 0
10, 6625, Note_on_c, 9, 70, 0
10, 6625, Note_on_c, 9, 37, 0
10, 6660, Note_on_c, 9, 42, 59
10, 6660, Note_on_c, 9, 35, 70
10, 6680, Note_on_c, 9, 42, 0
10, 6685, Note_on_c, 9, 35, 0
10, 6720, Note_on_c, 9, 42, 61
10, 6720, Note_on_c, 9, 35, 100
10, 6720, Note_on_c, 9, 70, 80
10, 6738, Note_on_c, 9, 42, 0
10, 6745, Note_on_c, 9, 70, 0
10, 6745, Note_on_c, 9, 35, 0
10, 6780, Note_on_c, 9, 42, 57
10, 6799, Note_on_c, 9, 42, 0
10, 6840, Note_on_c, 9, 42, 60
10, 6840, Note_on_c, 9, 37, 90
10, 6840, Note_on_c, 9, 70, 80
10, 6856, Note_on_c, 9, 42, 0
10, 6865, Note_on_c, 9, 70, 0
10, 6865, Note_on_c, 9, 37, 0
10, 6900, Note_on_c, 9, 42, 65
10, 6900, Note_on_c, 9, 35, 70
10, 6919, Note_on_c, 9, 42, 0
10, 6925, Note_on_c, 9, 35, 0
10, 6960, Note_on_c, 9, 42, 67
10, 6960, Note_on_c, 9, 35, 100
10, 6960, Note_on_c, 9, 70, 80
10, 6978, Note_on_c, 9, 42, 0
10, 6985, Note_on_c, 9, 70, 0
10, 6985, Note_on_c, 9, 35, 0
10, 7020, Note_on_c, 9, 46, 64
10, 7020, Note_on_c, 9, 37, 90
10, 7037, Note_on_c, 9, 46, 0
10, 7045, Note_on_c, 9, 37, 0
10, 7080, Note_on_c, 9, 42, 55
10, 7080, Note_on_c, 9, 70, 80
10, 7097, Note_on_c, 9, 42, 0
10, 7105, Note_on_c, 9, 70, 0
10, 7140, Note_on_c, 9, 42, 60
10, 7140, Note_on_c, 9, 35, 70
10, 7158, Note_on_c, 9, 42, 0
10, 7165, Note_on_c, 9, 35, 0
10, 7200, Note_on_c, 9, 42, 63
10, 7200, Note_on_c, 9, 35, 100
10, 7200, Note_on_c, 9, 37, 90
10, 7200, Note_on_c, 9, 70, 80
10, 7218, Note_on_c, 9, 42, 0
10, 7225, Note_on_c, 9, 35, 0
10, 7225, Note_on_c, 9, 37, 0
10, 7225, Note_on_c, 9, 70, 0
10, 7260, Note_on_c, 9, 42, 71
10, 7273, Note_on_c, 9, 42, 0
10, 7290, Note_on_c, 9, 42, 60
10, 7298, Note_on_c, 9, 42, 0
10, 7320, Note_on_c, 9, 42, 71
10, 7320, Note_on_c, 9, 70, 80
10, 7337, Note_on_c, 9, 42, 0
10, 7345, Note_on_c, 9, 70, 0
10, 7380, Note_on_c, 9, 42, 74
10, 7380, Note_on_c, 9, 35, 70
10, 7380, Note_on_c, 9, 37, 90
10, 7399, Note_on_c, 9, 42, 0
10, 7405, Note_on_c, 9, 37, 0
10, 7405, Note_on_c, 9, 35, 0
10, 7440, Note_on_c, 9, 42, 77
10, 7440, Note_on_c, 9, 35, 100
10, 7440, Note_on_c, 9, 70, 80
10, 7455, Note_on_c, 9, 42, 0
10, 7465, Note_on_c, 9, 70, 0
10, 7465, Note_on_c, 9, 35, 0
10, 7500, Note_on_c, 9, 46, 60
10, 7518, Note_on_c, 9, 46, 0
10, 7560, Note_on_c, 9, 42, 56
10, 7560, Note_on_c, 9, 37, 90
10, 7560, Note_on_c, 9, 70, 80
10, 7579, Note_on_c, 9, 42, 0
10, 7585, Note_on_c, 9, 70, 0
10, 7585, Note_on_c, 9, 37, 0
10, 7620, Note_on_c, 9, 42, 60
10, 7620, Note_on_c, 9, 35, 70
10, 7638, Note_on_c, 9, 42, 0
10, 7645, Note_on_c, 9, 35, 0
10, 7680, Note_on_c, 9, 42, 61
10, 7680, Note_on_c, 9, 35, 100
10, 7680, Note_on_c, 9, 70, 80
10, 7700, Note_on_c, 9, 42, 0
10, 7705, Note_on_c, 9, 70, 0
10, 7705, Note_on_c, 9, 35, 0
10, 7740, Note_on_c, 9, 42, 54
10, 7758, Note_on_c, 9, 42, 0
10, 7800, Note_on_c, 9, 42, 59
10, 7800, Note_on_c, 9, 37, 90
10, 7800, Note_on_c, 9, 70, 80
10, 7817, Note_on_c, 9, 42, 0
10, 7825, Note_on_c, 9, 70, 0
10, 7825, Note_on_c, 9, 37, 0
10, 7860, Note_on_c, 9, 42, 61
10, 7860, Note_on_c, 9, 35, 70
10, 7876, Note_on_c, 9, 42, 0
10, 7885, Note_on_c, 9, 35, 0
10, 7920, Note_on_c, 9, 42, 75
10, 7920, Note_on_c, 9, 35, 100
10, 7920, Note_on_c, 9, 70, 80
10, 7943, Note_on_c, 9, 42, 0
10, 7945, Note_on_c, 9, 70, 0
10, 7945, Note_on_c, 9, 35, 0
10, 7980, Note_on_c, 9, 46, 63
10, 7980, Note_on_c, 9, 37, 90
10, 7996, Note_on_c, 9, 46, 0
10, 8005, Note_on_c, 9, 37, 0
10, 8040, Note_on_c, 9, 42, 59
10, 8040, Note_on_c, 9, 70, 80
10, 8059, Note_on_c, 9, 42, 0
10, 8065, Note_on_c, 9, 70, 0
10, 8100, Note_on_c, 9, 42, 69
10, 8100, Note_on_c, 9, 35, 70
10, 8116, Note_on_c, 9, 42, 0
10, 8125, Note_on_c, 9, 35, 0
10, 8160, Note_on_c, 9, 42, 64
10, 8160, Note_on_c, 9, 35, 100
10, 8160, Note_on_c, 9, 37, 90
10, 8160, Note_on_c, 9, 70, 80
10, 8178, Note_on_c, 9, 42, 0
10, 8185, Note_on_c, 9, 35, 0
10, 8185, Note_on_c, 9, 37, 0
10, 8185, Note_on_c, 9, 70, 0
10, 8220, Note_on_c, 9, 42, 59
10, 8239, Note_on_c, 9, 42, 0
10, 8280, Note_on_c, 9, 42, 52
10, 8280, Note_on_c, 9, 70, 80
10, 8297, Note_on_c, 9, 42, 0
10, 8305, Note_on_c, 9, 70, 0
10, 8340, Note_on_c, 9, 42, 56
10, 8340, Note_on_c, 9, 35, 70
10, 8340, Note_on_c, 9, 37, 90
10, 8358, Note_on_c, 9, 42, 0
10, 8365, Note_on_c, 9, 37, 0
10, 8365, Note_on_c, 9, 35, 0
10, 8400, Note_on_c, 9, 42, 63
10, 8400, Note_on_c, 9, 35, 100
10, 8400, Note_on_c, 9, 70, 80
10, 8418, Note_on_c, 9, 42, 0
10, 8425, Note_on_c, 9, 70, 0
10, 8425, Note_on_c, 9, 35, 0
10, 8460, Note_on_c, 9, 46, 63
10, 8479, Note_on_c, 9, 46, 0
10, 8520, Note_on_c, 9, 42, 47
10, 8520, Note_on_c, 9, 37, 90
10, 8520, Note_on_c, 9, 70, 80
10, 8538, Note_on_c, 9, 42, 0
10, 8545, Note_on_c, 9, 70, 0
10, 8545, Note_on_c, 9, 37, 0
10, 8580, Note_on_c, 9, 42, 45
10, 8580, Note_on_c, 9, 35, 70
10, 8597, Note_on_c, 9, 42, 0
10, 8605, Note_on_c, 9, 35, 0
10, 8640, Note_on_c, 9, 42, 45
10, 8640, Note_on_c, 9, 35, 100
10, 8640, Note_on_c, 9, 70, 80
10, 8659, Note_on_c, 9, 42, 0
10, 8665, Note_on_c, 9, 70, 0
10, 8665, Note_on_c, 9, 35, 0
10, 8700, Note_on_c, 9, 42, 42
10, 8719, Note_on_c, 9, 42, 0
10, 8760, Note_on_c, 9, 42, 43
10, 8760, Note_on_c, 9, 37, 90
10, 8760, Note_on_c, 9, 70, 80
10, 8780, Note_on_c, 9, 42, 0
10, 8785, Note_on_c, 9, 70, 0
10, 8785, Note_on_c, 9, 37, 0
10, 8820, Note_on_c, 9, 42, 46
10, 8820, Note_on_c, 9, 35, 70
10, 8838, Note_on_c, 9, 42, 0
10, 8845, Note_on_c, 9, 35, 0
10, 8880, Note_on_c, 9, 42, 72
10, 8880, Note_on_c, 9, 35, 100
10, 8880, Note_on_c, 9, 70, 80
10, 8900, Note_on_c, 9, 42, 0
10, 8905, Note_on_c, 9, 70, 0
10, 8905, Note_on_c, 9, 35, 0
10, 8940, Note_on_c, 9, 46, 65
10, 8940, Note_on_c, 9, 37, 90
10, 8957, Note_on_c, 9, 46, 0
10, 8965, Note_on_c, 9, 37, 0
10, 9000, Note_on_c, 9, 42, 40
10, 9000, Note_on_c, 9, 70, 80
10, 9018, Note_on_c, 9, 42, 0
10, 9025, Note_on_c, 9, 70, 0
10, 9060, Note_on_c, 9, 42, 56
10, 9060, Note_on_c, 9, 35, 70
10, 9080, Note_on_c, 9, 42, 0
10, 9085, Note_on_c, 9, 35, 0
10, 9120, Note_on_c, 9, 42, 59
10, 9120, Note_on_c, 9, 35, 100
10, 9120, Note_on_c, 9, 37, 90
10, 9120, Note_on_c, 9, 70, 80
10, 9137, Note_on_c, 9, 42, 0
10, 9145, Note_on_c, 9, 35, 0
10, 9145, Note_on_c, 9, 37, 0
10, 9145, Note_on_c, 9, 70, 0
10, 9180, Note_on_c, 9, 42, 52
10, 9198, Note_on_c, 9, 42, 0
10, 9240, Note_on_c, 9, 42, 46
10, 9240, Note_on_c, 9, 70, 80
10, 9255, Note_on_c, 9, 42, 0
10, 9265, Note_on_c, 9, 70, 0
10, 9300, Note_on_c, 9, 42, 55
10, 9300, Note_on_c, 9, 35, 70
10, 9300, Note_on_c, 9, 37, 90
10, 9316, Note_on_c, 9, 42, 0
10, 9325, Note_on_c, 9, 37, 0
10, 9325, Note_on_c, 9, 35, 0
10, 9360, Note_on_c, 9, 42, 75
10, 9360, Note_on_c, 9, 35, 100
10, 9360, Note_on_c, 9, 70, 80
10, 9377, Note_on_c, 9, 42, 0
10, 9385, Note_on_c, 9, 70, 0
10, 9385, Note_on_c, 9, 35, 0
10, 9420, Note_on_c, 9, 46, 65
10, 9436, Note_on_c, 9, 46, 0
10, 9480, Note_on_c, 9, 42, 60
10, 9480, Note_on_c, 9, 37, 90
10, 9480, Note_on_c, 9, 70, 80
10, 9497, Note_on_c, 9, 42, 0
10, 9505, Note_on_c, 9, 70, 0
10, 9505, Note_on_c, 9, 37, 0
10, 9540, Note_on_c, 9, 42, 72
10, 9540, Note_on_c, 9, 35, 70
10, 9559, Note_on_c, 9, 42, 0
10, 9565, Note_on_c, 9, 35, 0
10, 9600, Note_on_c, 9, 42, 71
10, 9600, Note_on_c, 9, 35, 100
10, 9600, Note_on_c, 9, 70, 80
10, 9613, Note_on_c, 9, 42, 0
10, 9625, Note_on_c, 9, 70, 0
10, 9625, Note_on_c, 9, 35, 0
10, 9630, Note_on_c, 9, 42, 52
10, 9637, Note_on_c, 9, 42, 0
10, 9660, Note_on_c, 9, 42, 72
10, 9676, Note_on_c, 9, 42, 0
10, 9720, Note_on_c, 9, 46, 51
10, 9720, Note_on_c, 9, 37, 90
10, 9720, Note_on_c, 9, 70, 80
10, 9734, Note_on_c, 9, 46, 0
10, 9745, Note_on_c, 9, 70, 0
10, 9745, Note_on_c, 9, 37, 0
10, 9780, Note_on_c, 9, 42, 78
10, 9780, Note_on_c, 9, 35, 70
10, 9780, Note_on_c, 9, 48, 50
10, 9799, Note_on_c, 9, 42, 0
10, 9805, Note_on_c, 9, 48, 0
10, 9805, Note_on_c, 9, 35, 0
10, 9840, Note_on_c, 9, 42, 57
10, 9840, Note_on_c, 9, 35, 100
10, 9840, Note_on_c, 9, 70, 80
10, 9855, Note_on_c, 9, 42, 0
10, 9865, Note_on_c, 9, 70, 0
10, 9865, Note_on_c, 9, 35, 0
10, 9900, Note_on_c, 9, 42, 57
10, 9900, Note_on_c, 9, 37, 90
10, 9916, Note_on_c, 9, 42, 0
10, 9925, Note_on_c, 9, 37, 0
10, 9960, Note_on_c, 9, 42, 58
10, 9960, Note_on_c, 9, 45, 70
10, 9960, Note_on_c, 9, 70, 80
10, 9976, Note_on_c, 9, 42, 0
10, 9985, Note_on_c, 9, 70, 0
10, 9985, Note_on_c, 9, 45, 0
10, 10020, Note_on_c, 9, 42, 63
10, 10020, Note_on_c, 9, 35, 70
10, 10035, Note_on_c, 9, 42, 0
10, 10045, Note_on_c, 9, 35, 0
10, 10080, Note_on_c, 9, 42, 62
10, 10080, Note_on_c, 9, 35, 100
10, 10080, Note_on_c, 9, 37, 90
10, 10080, Note_on_c, 9, 70, 80
10, 10101, Note_on_c, 9, 42, 0
10, 10105, Note_on_c, 9, 35, 0
10, 10105, Note_on_c, 9, 37, 0
10, 10105, Note_on_c, 9, 70, 0
10, 10140, Note_on_c, 9, 42, 56
10, 10158, Note_on_c, 9, 42, 0
10, 10200, Note_on_c, 9, 42, 56
10, 10200, Note_on_c, 9, 70, 80
10, 10215, Note_on_c, 9, 42, 0
10, 10225, Note_on_c, 9, 70, 0
10, 10260, Note_on_c, 9, 42, 70
10, 10260, Note_on_c, 9, 35, 70
10, 10260, Note_on_c, 9, 37, 90
10, 10280, Note_on_c, 9, 42, 0
10, 10285, Note_on_c, 9, 37, 0
10, 10285, Note_on_c, 9, 35, 0
10, 10320, Note_on_c, 9, 42, 81
10, 10320, Note_on_c, 9, 35, 100
10, 10320, Note_on_c, 9, 70, 80
10, 10338, Note_on_c, 9, 42, 0
10, 10345, Note_on_c, 9, 70, 0
10, 10345, Note_on_c, 9, 35, 0
10, 10380, Note_on_c, 9, 46, 69
10, 10397, Note_on_c, 9, 46, 0
10, 10440, Note_on_c, 9, 42, 60
10, 10440, Note_on_c, 9, 37, 90
10, 10440, Note_on_c, 9, 70, 80
10, 10458, Note_on_c, 9, 42, 0
10, 10465, Note_on_c, 9, 70, 0
10, 10465, Note_on_c, 9, 37, 0
10, 10500, Note_on_c, 9, 42, 59
10, 10500, Note_on_c, 9, 35, 70
10, 10520, Note_on_c, 9, 42, 0
10, 10525, Note_on_c, 9, 35, 0
10, 10560, Note_on_c, 9, 42, 61
10, 10560, Note_on_c, 9, 35, 100
10, 10560, Note_on_c, 9, 37, 90
10, 10578, Note_on_c, 9, 42, 0
10, 10585, Note_on_c, 9, 37, 0
10, 10585, Note_on_c, 9, 35, 0
10, 10620, Note_on_c, 9, 42, 57
10, 10639, Note_on_c, 9, 42, 0
10, 10680, Note_on_c, 9, 42, 60
10, 10696, Note_on_c, 9, 42, 0
10, 10740, Note_on_c, 9, 42, 65
10, 10740, Note_on_c, 9, 35, 70
10, 10740, Note_on_c, 9, 37, 90
10, 10759, Note_on_c, 9, 42, 0
10, 10765, Note_on_c, 9, 37, 0
10, 10765, Note_on_c, 9, 35, 0
10, 10800, Note_on_c, 9, 42, 67
10, 10800, Note_on_c, 9, 35, 100
10, 10818, Note_on_c, 9, 42, 0
10, 10825, Note_on_c, 9, 35, 0
10, 10860, Note_on_c, 9, 46, 64
10, 10877, Note_on_c, 9, 46, 0
10, 10920, Note_on_c, 9, 42, 55
10, 10920, Note_on_c, 9, 37, 90
10, 10937, Note_on_c, 9, 42, 0
10, 10945, Note_on_c, 9, 37, 0
10, 10980, Note_on_c, 9, 42, 60
10, 10980, Note_on_c, 9, 35, 70
10, 10998, Note_on_c, 9, 42, 0
10, 11005, Note_on_c, 9, 35, 0
10, 11040, Note_on_c, 9, 42, 63
10, 11040, Note_on_c, 9, 35, 100
10, 11058, Note_on_c, 9, 42, 0
10, 11065, Note_on_c, 9, 35, 0
10, 11100, Note_on_c, 9, 42, 71
10, 11113, Note_on_c, 9, 42, 0
10, 11130, Note_on_c, 9, 42, 60
10, 11138, Note_on_c, 9, 42, 0
10, 11160, Note_on_c, 9, 42, 71
10, 11160, Note_on_c, 9, 37, 90
10, 11177, Note_on_c, 9, 42, 0
10, 11185, Note_on_c, 9, 37, 0
10, 11220, Note_on_c, 9, 42, 74
10, 11220, Note_on_c, 9, 35, 70
10, 11239, Note_on_c, 9, 42, 0
10, 11245, Note_on_c, 9, 35, 0
10, 11280, Note_on_c, 9, 42, 77
10, 11280, Note_on_c, 9, 35, 100
10, 11295, Note_on_c, 9, 42, 0
10, 11305, Note_on_c, 9, 35, 0
10, 11340, Note_on_c, 9, 46, 60
10, 11340, Note_on_c, 9, 37, 90
10, 11358, Note_on_c, 9, 46, 0
10, 11365, Note_on_c, 9, 37, 0
10, 11400, Note_on_c, 9, 42, 56
10, 11419, Note_on_c, 9, 42, 0
10, 11460, Note_on_c, 9, 42, 60
10, 11460, Note_on_c, 9, 35, 70
10, 11478, Note_on_c, 9, 42, 0
10, 11485, Note_on_c, 9, 35, 0
10, 11520, Note_on_c, 9, 42, 61
10, 11520, Note_on_c, 9, 35, 100
10, 11520, Note_on_c, 9, 37, 90
10, 11540, Note_on_c, 9, 42, 0
10, 11545, Note_on_c, 9, 37, 0
10, 11545, Note_on_c, 9, 35, 0
10, 11580, Note_on_c, 9, 42, 54
10, 11598, Note_on_c, 9, 42, 0
10, 11640, Note_on_c, 9, 42, 59
10, 11657, Note_on_c, 9, 42, 0
10, 11700, Note_on_c, 9, 42, 61
10, 11700, Note_on_c, 9, 35, 70
10, 11700, Note_on_c, 9, 37, 90
10, 11716, Note_on_c, 9, 42, 0
10, 11725, Note_on_c, 9, 37, 0
10, 11725, Note_on_c, 9, 35, 0
10, 11760, Note_on_c, 9, 42, 75
10, 11760, Note_on_c, 9, 35, 100
10, 11783, Note_on_c, 9, 42, 0
10, 11785, Note_on_c, 9, 35, 0
10, 11820, Note_on_c, 9, 46, 63
10, 11836, Note_on_c, 9, 46, 0
10, 11880, Note_on_c, 9, 42, 59
10, 11880, Note_on_c, 9, 37, 90
10, 11899, Note_on_c, 9, 42, 0
10, 11905, Note_on_c, 9, 37, 0
10, 11940, Note_on_c, 9, 42, 69
10, 11940, Note_on_c, 9, 35, 70
10, 11956, Note_on_c, 9, 42, 0
10, 11965, Note_on_c, 9, 35, 0
10, 12000, Note_on_c, 9, 42, 64
10, 12000, Note_on_c, 9, 35, 100
10, 12018, Note_on_c, 9, 42, 0
10, 12025, Note_on_c, 9, 35, 0
10, 12060, Note_on_c, 9, 42, 59
10, 12079, Note_on_c, 9, 42, 0
10, 12120, Note_on_c, 9, 42, 52
10, 12120, Note_on_c, 9, 37, 90
10, 12137, Note_on_c, 9, 42, 0
10, 12145, Note_on_c, 9, 37, 0
10, 12180, Note_on_c, 9, 42, 56
10, 12180, Note_on_c, 9, 35, 70
10, 12198, Note_on_c, 9, 42, 0
10, 12205, Note_on_c, 9, 35, 0
10, 12240, Note_on_c, 9, 42, 63
10, 12240, Note_on_c, 9, 35, 100
10, 12258, Note_on_c, 9, 42, 0
10, 12265, Note_on_c, 9, 35, 0
10, 12300, Note_on_c, 9, 46, 63
10, 12300, Note_on_c, 9, 37, 90
10, 12319, Note_on_c, 9, 46, 0
10, 12325, Note_on_c, 9, 37, 0
10, 12360, Note_on_c, 9, 42, 47
10, 12378, Note_on_c, 9, 42, 0
10, 12420, Note_on_c, 9, 42, 45
10, 12420, Note_on_c, 9, 35, 70
10, 12437, Note_on_c, 9, 42, 0
10, 12445, Note_on_c, 9, 35, 0
10, 12480, Note_on_c, 9, 42, 45
10, 12480, Note_on_c, 9, 35, 100
10, 12480, Note_on_c, 9, 37, 90
10, 12499, Note_on_c, 9, 42, 0
10, 12505, Note_on_c, 9, 37, 0
10, 12505, Note_on_c, 9, 35, 0
10, 12540, Note_on_c, 9, 42, 42
10, 12559, Note_on_c, 9, 42, 0
10, 12600, Note_on_c, 9, 42, 43
10, 12620, Note_on_c, 9, 42, 0
10, 12660, Note_on_c, 9, 42, 46
10, 12660, Note_on_c, 9, 35, 70
10, 12660, Note_on_c, 9, 37, 90
10, 12678, Note_on_c, 9, 42, 0
10, 12685, Note_on_c, 9, 37, 0
10, 12685, Note_on_c, 9, 35, 0
10, 12720, Note_on_c, 9, 42, 72
10, 12720, Note_on_c, 9, 35, 100
10, 12740, Note_on_c, 9, 42, 0
10, 12745, Note_on_c, 9, 35, 0
10, 12780, Note_on_c, 9, 46, 65
10, 12797, Note_on_c, 9, 46, 0
10, 12840, Note_on_c, 9, 42, 40
10, 12840, Note_on_c, 9, 37, 90
10, 12858, Note_on_c, 9, 42, 0
10, 12865, Note_on_c, 9, 37, 0
10, 12900, Note_on_c, 9, 42, 56
10, 12900, Note_on_c, 9, 35, 70
10, 12920, Note_on_c, 9, 42, 0
10, 12925, Note_on_c, 9, 35, 0
10, 12960, Note_on_c, 9, 42, 59
10, 12960, Note_on_c, 9, 35, 100
10, 12977, Note_on_c, 9, 42, 0
10, 12985, Note_on_c, 9, 35, 0
10, 13020, Note_on_c, 9, 42, 52
10, 13038, Note_on_c, 9, 42, 0
10, 13080, Note_on_c, 9, 42, 46
10, 13080, Note_on_c, 9, 37, 90
10, 13095, Note_on_c, 9, 42, 0
10, 13105, Note_on_c, 9, 37, 0
10, 13140, Note_on_c, 9, 42, 55
10, 13140, Note_on_c, 9, 35, 70
10, 13156, Note_on_c, 9, 42, 0
10, 13165, Note_on_c, 9, 35, 0
10, 13200, Note_on_c, 9, 42, 75
10, 13200, Note_on_c, 9, 35, 100
10, 13217, Note_on_c, 9, 42, 0
10, 13225, Note_on_c, 9, 35, 0
10, 13260, Note_on_c, 9, 46, 65
10, 13260, Note_on_c, 9, 37, 90
10, 13276, Note_on_c, 9, 46, 0
10, 13285, Note_on_c, 9, 37, 0
10, 13320, Note_on_c, 9, 42, 60
10, 13337, Note_on_c, 9, 42, 0
10, 13380, Note_on_c, 9, 42, 72
10, 13380, Note_on_c, 9, 35, 70
10, 13399, Note_on_c, 9, 42, 0
10, 13405, Note_on_c, 9, 35, 0
10, 13440, Note_on_c, 9, 42, 71
10, 13440, Note_on_c, 9, 35, 100
10, 13440, Note_on_c, 9, 37, 90
10, 13453, Note_on_c, 9, 42, 0
10, 13465, Note_on_c, 9, 37, 0
10, 13465, Note_on_c, 9, 35, 0
10, 13470, Note_on_c, 9, 42, 52
10, 13477, Note_on_c, 9, 42, 0
10, 13500, Note_on_c, 9, 42, 72
10, 13516, Note_on_c, 9, 42, 0
10, 13560, Note_on_c, 9, 46, 51
10, 13574, Note_on_c, 9, 46, 0
10, 13620, Note_on_c, 9, 42, 78
10, 13620, Note_on_c, 9, 35, 70
10, 13620, Note_on_c, 9, 37, 90
10, 13639, Note_on_c, 9, 42, 0
10, 13645, Note_on_c, 9, 37, 0
10, 13645, Note_on_c, 9, 35, 0
10, 13680, Note_on_c, 9, 42, 57
10, 13680, Note_on_c, 9, 35, 100
10, 13695, Note_on_c, 9, 42, 0
10, 13705, Note_on_c, 9, 35, 0
10, 13740, Note_on_c, 9, 42, 57
10, 13756, Note_on_c, 9, 42, 0
10, 13800, Note_on_c, 9, 42, 58
10, 13800, Note_on_c, 9, 37, 90
10, 13816, Note_on_c, 9, 42, 0
10, 13825, Note_on_c, 9, 37, 0
10, 13860, Note_on_c, 9, 42, 63
10, 13860, Note_on_c, 9, 35, 70
10, 13875, Note_on_c, 9, 42, 0
10, 13885, Note_on_c, 9, 35, 0
10, 13920, Note_on_c, 9, 42, 62
10, 13920, Note_on_c, 9, 35, 100
10, 13941, Note_on_c, 9, 42, 0
10, 13945, Note_on_c, 9, 35, 0
10, 13980, Note_on_c, 9, 42, 56
10, 13998, Note_on_c, 9, 42, 0
10, 14040, Note_on_c, 9, 42, 56
10, 14040, Note_on_c, 9, 37, 90
10, 14055, Note_on_c, 9, 42, 0
10, 14065, Note_on_c, 9, 37, 0
10, 14100, Note_on_c, 9, 42, 70
10, 14100, Note_on_c, 9, 35, 70
10, 14120, Note_on_c, 9, 42, 0
10, 14125, Note_on_c, 9, 35, 0
10, 14160, Note_on_c, 9, 42, 81
10, 14160, Note_on_c, 9, 35, 100
10, 14178, Note_on_c, 9, 42, 0
10, 14185, Note_on_c, 9, 35, 0
10, 14220, Note_on_c, 9, 46, 69
10, 14220, Note_on_c, 9, 37, 90
10, 14237, Note_on_c, 9, 46, 0
10, 14245, Note_on_c, 9, 37, 0
10, 14280, Note_on_c, 9, 42, 60
10, 14298, Note_on_c, 9, 42, 0
10, 14340, Note_on_c, 9, 42, 59
10, 14340, Note_on_c, 9, 35, 70
10, 14360, Note_on_c, 9, 42, 0
10, 14365, Note_on_c, 9, 35, 0
10, 14400, Note_on_c, 9, 42, 61
10, 14400, Note_on_c, 9, 35, 100
10, 14400, Note_on_c, 9, 37, 90
10, 14418, Note_on_c, 9, 42, 0
10, 14425, Note_on_c, 9, 37, 0
10, 14425, Note_on_c, 9, 35, 0
10, 14460, Note_on_c, 9, 42, 57
10, 14479, Note_on_c, 9, 42, 0
10, 14520, Note_on_c, 9, 42, 60
10, 14536, Note_on_c, 9, 42, 0
10, 14580, Note_on_c, 9, 42, 65
10, 14580, Note_on_c, 9, 35, 70
10, 14580, Note_on_c, 9, 37, 90
10, 14599, Note_on_c, 9, 42, 0
10, 14605, Note_on_c, 9, 37, 0
10, 14605, Note_on_c, 9, 35, 0
10, 14640, Note_on_c, 9, 42, 67
10, 14640, Note_on_c, 9, 35, 100
10, 14658, Note_on_c, 9, 42, 0
10, 14665, Note_on_c, 9, 35, 0
10, 14700, Note_on_c, 9, 46, 64
10, 14717, Note_on_c, 9, 46, 0
10, 14760, Note_on_c, 9, 42, 55
10, 14760, Note_on_c, 9, 37, 90
10, 14777, Note_on_c, 9, 42, 0
10, 14785, Note_on_c, 9, 37, 0
10, 14820, Note_on_c, 9, 42, 60
10, 14820, Note_on_c, 9, 35, 70
10, 14838, Note_on_c, 9, 42, 0
10, 14845, Note_on_c, 9, 35, 0
10, 14880, Note_on_c, 9, 42, 63
10, 14880, Note_on_c, 9, 35, 100
10, 14898, Note_on_c, 9, 42, 0
10, 14905, Note_on_c, 9, 35, 0
10, 14940, Note_on_c, 9, 42, 71
10, 14953, Note_on_c, 9, 42, 0
10, 14970, Note_on_c, 9, 42, 60
10, 14978, Note_on_c, 9, 42, 0
10, 15000, Note_on_c, 9, 42, 71
10, 15000, Note_on_c, 9, 37, 90
10, 15017, Note_on_c, 9, 42, 0
10, 15025, Note_on_c, 9, 37, 0
10, 15060, Note_on_c, 9, 42, 74
10, 15060, Note_on_c, 9, 35, 70
10, 15079, Note_on_c, 9, 42, 0
10, 15085, Note_on_c, 9, 35, 0
10, 15120, Note_on_c, 9, 42, 77
10, 15120, Note_on_c, 9, 35, 100
10, 15135, Note_on_c, 9, 42, 0
10, 15145, Note_on_c, 9, 35, 0
10, 15180, Note_on_c, 9, 46, 60
10, 15180, Note_on_c, 9, 37, 90
10, 15198, Note_on_c, 9, 46, 0
10, 15205, Note_on_c, 9, 37, 0
10, 15240, Note_on_c, 9, 42, 56
10, 15259, Note_on_c, 9, 42, 0
10, 15300, Note_on_c, 9, 42, 60
10, 15300, Note_on_c, 9, 35, 70
10, 15318, Note_on_c, 9, 42, 0
10, 15325, Note_on_c, 9, 35, 0
10, 15360, Note_on_c, 9, 42, 61
10, 15360, Note_on_c, 9, 35, 100
10, 15360, Note_on_c, 9, 70, 80
10, 15380, Note_on_c, 9, 42, 0
10, 15385, Note_on_c, 9, 70, 0
10, 15385, Note_on_c, 9, 35, 0
10, 15420, Note_on_c, 9, 42, 54
10, 15438, Note_on_c, 9, 42, 0
10, 15480, Note_on_c, 9, 42, 59
10, 15480, Note_on_c, 9, 48, 40
10, 15480, Note_on_c, 9, 70, 80
10, 15497, Note_on_c, 9, 42, 0
10, 15505, Note_on_c, 9, 70, 0
10, 15505, Note_on_c, 9, 48, 0
10, 15540, Note_on_c, 9, 42, 61
10, 15540, Note_on_c, 9, 48, 50
10, 15556, Note_on_c, 9, 42, 0
10, 15565, Note_on_c, 9, 48, 0
10, 15600, Note_on_c, 9, 42, 75
10, 15600, Note_on_c, 9, 48, 40
10, 15600, Note_on_c, 9, 70, 80
10, 15623, Note_on_c, 9, 42, 0
10, 15625, Note_on_c, 9, 70, 0
10, 15625, Note_on_c, 9, 48, 0
10, 15660, Note_on_c, 9, 46, 63
10, 15660, Note_on_c, 9, 48, 94
10, 15676, Note_on_c, 9, 46, 0
10, 15685, Note_on_c, 9, 48, 0
10, 15720, Note_on_c, 9, 42, 59
10, 15720, Note_on_c, 9, 48, 60
10, 15720, Note_on_c, 9, 70, 80
10, 15739, Note_on_c, 9, 42, 0
10, 15745, Note_on_c, 9, 70, 0
10, 15745, Note_on_c, 9, 48, 0
10, 15780, Note_on_c, 9, 42, 69
10, 15780, Note_on_c, 9, 48, 50
10, 15796, Note_on_c, 9, 42, 0
10, 15805, Note_on_c, 9, 48, 0
10, 15840, Note_on_c, 9, 42, 64
10, 15840, Note_on_c, 9, 35, 100
10, 15840, Note_on_c, 9, 37, 90
10, 15840, Note_on_c, 9, 49, 50
10, 15840, Note_on_c, 9, 70, 80
10, 15858, Note_on_c, 9, 42, 0
10, 15865, Note_on_c, 9, 49, 0
10, 15865, Note_on_c, 9, 35, 0
10, 15865, Note_on_c, 9, 37, 0
10, 15865, Note_on_c, 9, 70, 0
10, 15900, Note_on_c, 9, 42, 59
10, 15919, Note_on_c, 9, 42, 0
10, 15960, Note_on_c, 9, 42, 52
10, 15960, Note_on_c, 9, 70, 80
10, 15977, Note_on_c, 9, 42, 0
10, 15985, Note_on_c, 9, 70, 0
10, 16020, Note_on_c, 9, 42, 56
10, 16020, Note_on_c, 9, 35, 70
10, 16020, Note_on_c, 9, 37, 90
10, 16038, Note_on_c, 9, 42, 0
10, 16045, Note_on_c, 9, 37, 0
10, 16045, Note_on_c, 9, 35, 0
10, 16080, Note_on_c, 9, 42, 63
10, 16080, Note_on_c, 9, 35, 100
10, 16080, Note_on_c, 9, 70, 80
10, 16098, Note_on_c, 9, 42, 0
10, 16105, Note_on_c, 9, 70, 0
10, 16105, Note_on_c, 9, 35, 0
10, 16140, Note_on_c, 9, 46, 63
10, 16159, Note_on_c, 9, 46, 0
10, 16200, Note_on_c, 9, 42, 47
10, 16200, Note_on_c, 9, 37, 90
10, 16200, Note_on_c, 9, 70, 80
10, 16218, Note_on_c, 9, 42, 0
10, 16225, Note_on_c, 9, 70, 0
10, 16225, Note_on_c, 9, 37, 0
10, 16260, Note_on_c, 9, 42, 45
10, 16260, Note_on_c, 9, 35, 70
10, 16277, Note_on_c, 9, 42, 0
10, 16285, Note_on_c, 9, 35, 0
10, 16320, Note_on_c, 9, 42, 45
10, 16320, Note_on_c, 9, 35, 100
10, 16320, Note_on_c, 9, 70, 80
10, 16339, Note_on_c, 9, 42, 0
10, 16345, Note_on_c, 9, 70, 0
10, 16345, Note_on_c, 9, 35, 0
10, 16380, Note_on_c, 9, 42, 42
10, 16399, Note_on_c, 9, 42, 0
10, 16440, Note_on_c, 9, 42, 43
10, 16440, Note_on_c, 9, 37, 90
10, 16440, Note_on_c, 9, 70, 80
10, 16460, Note_on_c, 9, 42, 0
10, 16465, Note_on_c, 9, 70, 0
10, 16465, Note_on_c, 9, 37, 0
10, 16500, Note_on_c, 9, 42, 46
10, 16500, Note_on_c, 9, 35, 70
10, 16518, Note_on_c, 9, 42, 0
10, 16525, Note_on_c, 9, 35, 0
10, 16560, Note_on_c, 9, 42, 72
10, 16560, Note_on_c, 9, 35, 100
10, 16560, Note_on_c, 9, 70, 80
10, 16580, Note_on_c, 9, 42, 0
10, 16585, Note_on_c, 9, 70, 0
10, 16585, Note_on_c, 9, 35, 0
10, 16620, Note_on_c, 9, 46, 65
10, 16620, Note_on_c, 9, 37, 90
10, 16637, Note_on_c, 9, 46, 0
10, 16645, Note_on_c, 9, 37, 0
10, 16680, Note_on_c, 9, 42, 40
10, 16680, Note_on_c, 9, 70, 80
10, 16698, Note_on_c, 9, 42, 0
10, 16705, Note_on_c, 9, 70, 0
10, 16740, Note_on_c, 9, 42, 56
10, 16740, Note_on_c, 9, 35, 70
10, 16760, Note_on_c, 9, 42, 0
10, 16765, Note_on_c, 9, 35, 0
10, 16800, Note_on_c, 9, 42, 59
10, 16800, Note_on_c, 9, 35, 100
10, 16800, Note_on_c, 9, 37, 90
10, 16800, Note_on_c, 9, 70, 80
10, 16817, Note_on_c, 9, 42, 0
10, 16825, Note_on_c, 9, 35, 0
10, 16825, Note_on_c, 9, 37, 0
10, 16825, Note_on_c, 9, 70, 0
10, 16860, Note_on_c, 9, 42, 52
10, 16878, Note_on_c, 9, 42, 0
10, 16920, Note_on_c, 9, 42, 46
10, 16920, Note_on_c, 9, 70, 80
10, 16935, Note_on_c, 9, 42, 0
10, 16945, Note_on_c, 9, 70, 0
10, 16980, Note_on_c, 9, 42, 55
10, 16980, Note_on_c, 9, 35, 70
10, 16980, Note_on_c, 9, 37, 90
10, 16996, Note_on_c, 9, 42, 0
10, 17005, Note_on_c, 9, 37, 0
10, 17005, Note_on_c, 9, 35, 0
10, 17040, Note_on_c, 9, 42, 75
10, 17040, Note_on_c, 9, 35, 100
10, 17040, Note_on_c, 9, 70, 80
10, 17057, Note_on_c, 9, 42, 0
10, 17065, Note_on_c, 9, 70, 0
10, 17065, Note_on_c, 9, 35, 0
10, 17100, Note_on_c, 9, 46, 65
10, 17116, Note_on_c, 9, 46, 0
10, 17160, Note_on_c, 9, 42, 60
10, 17160, Note_on_c, 9, 37, 90
10, 17160, Note_on_c, 9, 70, 80
10, 17177, Note_on_c, 9, 42, 0
10, 17185, Note_on_c, 9, 70, 0
10, 17185, Note_on_c, 9, 37, 0
10, 17220, Note_on_c, 9, 42, 72
10, 17220, Note_on_c, 9, 35, 70
10, 17239, Note_on_c, 9, 42, 0
10, 17245, Note_on_c, 9, 35, 0
10, 17280, Note_on_c, 9, 42, 71
10, 17280, Note_on_c, 9, 35, 100
10, 17280, Note_on_c, 9, 70, 80
10, 17293, Note_on_c, 9, 42, 0
10, 17305, Note_on_c, 9, 70, 0
10, 17305, Note_on_c, 9, 35, 0
10, 17310, Note_on_c, 9, 42, 52
10, 17317, Note_on_c, 9, 42, 0
10, 17340, Note_on_c, 9, 42, 72
10, 17356, Note_on_c, 9, 42, 0
10, 17400, Note_on_c, 9, 46, 51
10, 17400, Note_on_c, 9, 37, 90
10, 17400, Note_on_c, 9, 70, 80
10, 17414, Note_on_c, 9, 46, 0
10, 17425, Note_on_c, 9, 70, 0
10, 17425, Note_on_c, 9, 37, 0
10, 17460, Note_on_c, 9, 42, 78
10, 17460, Note_on_c, 9, 35, 70
10, 17479, Note_on_c, 9, 42, 0
10, 17485, Note_on_c, 9, 35, 0
10, 17520, Note_on_c, 9, 42, 57
10, 17520, Note_on_c, 9, 35, 100
10, 17520, Note_on_c, 9, 70, 80
10, 17535, Note_on_c, 9, 42, 0
10, 17545, Note_on_c, 9, 70, 0
10, 17545, Note_on_c, 9, 35, 0
10, 17580, Note_on_c, 9, 42, 57
10, 17580, Note_on_c, 9, 37, 90
10, 17596, Note_on_c, 9, 42, 0
10, 17605, Note_on_c, 9, 37, 0
10, 17640, Note_on_c, 9, 42, 58
10, 17640, Note_on_c, 9, 45, 70
10, 17640, Note_on_c, 9, 70, 80
10, 17656, Note_on_c, 9, 42, 0
10, 17665, Note_on_c, 9, 70, 0
10, 17665, Note_on_c, 9, 45, 0
10, 17700, Note_on_c, 9, 42, 63
10, 17700, Note_on_c, 9, 35, 70
10, 17715, Note_on_c, 9, 42, 0
10, 17725, Note_on_c, 9, 35, 0
10, 17760, Note_on_c, 9, 42, 62
10, 17760, Note_on_c, 9, 35, 100
10, 17760, Note_on_c, 9, 37, 90
10, 17760, Note_on_c, 9, 70, 80
10, 17781, Note_on_c, 9, 42, 0
10, 17785, Note_on_c, 9, 35, 0
10, 17785, Note_on_c, 9, 37, 0
10, 17785, Note_on_c, 9, 70, 0
10, 17820, Note_on_c, 9, 42, 56
10, 17838, Note_on_c, 9, 42, 0
10, 17880, Note_on_c, 9, 42, 56
10, 17880, Note_on_c, 9, 70, 80
10, 17895, Note_on_c, 9, 42, 0
10, 17905, Note_on_c, 9, 70, 0
10, 17940, Note_on_c, 9, 42, 70
10, 17940, Note_on_c, 9, 35, 70
10, 17940, Note_on_c, 9, 37, 90
10, 17960, Note_on_c, 9, 42, 0
10, 17965, Note_on_c, 9, 37, 0
10, 17965, Note_on_c, 9, 35, 0
10, 18000, Note_on_c, 9, 42, 81
10, 18000, Note_on_c, 9, 35, 100
10, 18000, Note_on_c, 9, 70, 80
10, 18018, Note_on_c, 9, 42, 0
10, 18025, Note_on_c, 9, 70, 0
10, 18025, Note_on_c, 9, 35, 0
10, 18060, Note_on_c, 9, 46, 69
10, 18077, Note_on_c, 9, 46, 0
10, 18120, Note_on_c, 9, 42, 60
10, 18120, Note_on_c, 9, 37, 90
10, 18120, Note_on_c, 9, 70, 80
10, 18138, Note_on_c, 9, 42, 0
10, 18145, Note_on_c, 9, 70, 0
10, 18145, Note_on_c, 9, 37, 0
10, 18180, Note_on_c, 9, 42, 59
10, 18180, Note_on_c, 9, 35, 70
10, 18200, Note_on_c, 9, 42, 0
10, 18205, Note_on_c, 9, 35, 0
10, 18240, Note_on_c, 9, 42, 61
10, 18240, Note_on_c, 9, 35, 100
10, 18240, Note_on_c, 9, 70, 80
10, 18258, Note_on_c, 9, 42, 0
10, 18265, Note_on_c, 9, 70, 0
10, 18265, Note_on_c, 9, 35, 0
10, 18300, Note_on_c, 9, 42, 57
10, 18319, Note_on_c, 9, 42, 0
10, 18360, Note_on_c, 9, 42, 60
10, 18360, Note_on_c, 9, 37, 90
10, 18360, Note_on_c, 9, 70, 80
10, 18376, Note_on_c, 9, 42, 0
10, 18385, Note_on_c, 9, 70, 0
10, 18385, Note_on_c, 9, 37, 0
10, 18420, Note_on_c, 9, 42, 65
10, 18420, Note_on_c, 9, 35, 70
10, 18439, Note_on_c, 9, 42, 0
10, 18445, Note_on_c, 9, 35, 0
10, 18480, Note_on_c, 9, 42, 67
10, 18480, Note_on_c, 9, 35, 100
10, 18480, Note_on_c, 9, 70, 80
10, 18498, Note_on_c, 9, 42, 0
10, 18505, Note_on_c, 9, 70, 0
10, 18505, Note_on_c, 9, 35, 0
10, 18540, Note_on_c, 9, 46, 64
10, 18540, Note_on_c, 9, 37, 90
10, 18557, Note_on_c, 9, 46, 0
10, 18565, Note_on_c, 9, 37, 0
10, 18600, Note_on_c, 9, 42, 55
10, 18600, Note_on_c, 9, 70, 80
10, 18617, Note_on_c, 9, 42, 0
10, 18625, Note_on_c, 9, 70, 0
10, 18660, Note_on_c, 9, 42, 60
10, 18660, Note_on_c, 9, 35, 70
10, 18678, Note_on_c, 9, 42, 0
10, 18685, Note_on_c, 9, 35, 0
10, 18720, Note_on_c, 9, 42, 63
10, 18720, Note_on_c, 9, 35, 100
10, 18720, Note_on_c, 9, 37, 90
10, 18720, Note_on_c, 9, 70, 80
10, 18738, Note_on_c, 9, 42, 0
10, 18745, Note_on_c, 9, 35, 0
10, 18745, Note_on_c, 9, 37, 0
10, 18745, Note_on_c, 9, 70, 0
10, 18780, Note_on_c, 9, 42, 71
10, 18793, Note_on_c, 9, 42, 0
10, 18810, Note_on_c, 9, 42, 60
10, 18818, Note_on_c, 9, 42, 0
10, 18840, Note_on_c, 9, 42, 71
10, 18840, Note_on_c, 9, 70, 80
10, 18857, Note_on_c, 9, 42, 0
10, 18865, Note_on_c, 9, 70, 0
10, 18900, Note_on_c, 9, 42, 74
10, 18900, Note_on_c, 9, 35, 70
10, 18900, Note_on_c, 9, 37, 90
10, 18919, Note_on_c, 9, 42, 0
10, 18925, Note_on_c, 9, 37, 0
10, 18925, Note_on_c, 9, 35, 0
10, 18960, Note_on_c, 9, 42, 77
10, 18960, Note_on_c, 9, 35, 100
10, 18960, Note_on_c, 9, 70, 80
10, 18975, Note_on_c, 9, 42, 0
10, 18985, Note_on_c, 9, 70, 0
10, 18985, Note_on_c, 9, 35, 0
10, 19020, Note_on_c, 9, 46, 60
10, 19038, Note_on_c, 9, 46, 0
10, 19080, Note_on_c, 9, 42, 56
10, 19080, Note_on_c, 9, 37, 90
10, 19080, Note_on_c, 9, 70, 80
10, 19099, Note_on_c, 9, 42, 0
10, 19105, Note_on_c, 9, 70, 0
10, 19105, Note_on_c, 9, 37, 0
10, 19140, Note_on_c, 9, 42, 60
10, 19140, Note_on_c, 9, 35, 70
10, 19158, Note_on_c, 9, 42, 0
10, 19165, Note_on_c, 9, 35, 0
10, 19200, Note_on_c, 9, 42, 61
10, 19200, Note_on_c, 9, 35, 100
10, 19200, Note_on_c, 9, 70, 80
10, 19220, Note_on_c, 9, 42, 0
10, 19225, Note_on_c, 9, 70, 0
10, 19225, Note_on_c, 9, 35, 0
10, 19260, Note_on_c, 9, 42, 54
10, 19278, Note_on_c, 9, 42, 0
10, 19320, Note_on_c, 9, 42, 59
10, 19320, Note_on_c, 9, 37, 90
10, 19320, Note_on_c, 9, 70, 80
10, 19337, Note_on_c, 9, 42, 0
10, 19345, Note_on_c, 9, 70, 0
10, 19345, Note_on_c, 9, 37, 0
10, 19380, Note_on_c, 9, 42, 61
10, 19380, Note_on_c, 9, 35, 70
10, 19396, Note_on_c, 9, 42, 0
10, 19405, Note_on_c, 9, 35, 0
10, 19440, Note_on_c, 9, 42, 75
10, 19440, Note_on_c, 9, 35, 100
10, 19440, Note_on_c, 9, 70, 80
10, 19463, Note_on_c, 9, 42, 0
10, 19465, Note_on_c, 9, 70, 0
10, 19465, Note_on_c, 9, 35, 0
10, 19500, Note_on_c, 9, 46, 63
10, 19500, Note_on_c, 9, 37, 90
10, 19516, Note_on_c, 9, 46, 0
10, 19525, Note_on_c, 9, 37, 0
10, 19560, Note_on_c, 9, 42, 59
10, 19560, Note_on_c, 9, 70, 80
10, 19579, Note_on_c, 9, 42, 0
10, 19585, Note_on_c, 9, 70, 0
10, 19620, Note_on_c, 9, 42, 69
10, 19620, Note_on_c, 9, 35, 70
10, 19636, Note_on_c, 9, 42, 0
10, 19645, Note_on_c, 9, 35, 0
10, 19680, Note_on_c, 9, 42, 64
10, 19680, Note_on_c, 9, 35, 100
10, 19680, Note_on_c, 9, 37, 90
10, 19680, Note_on_c, 9, 70, 80
10, 19698, Note_on_c, 9, 42, 0
10, 19705, Note_on_c, 9, 35, 0
10, 19705, Note_on_c, 9, 37, 0
10, 19705, Note_on_c, 9, 70, 0
10, 19740, Note_on_c, 9, 42, 59
10, 19759, Note_on_c, 9, 42, 0
10, 19800, Note_on_c, 9, 42, 52
10, 19800, Note_on_c, 9, 70, 80
10, 19817, Note_on_c, 9, 42, 0
10, 19825, Note_on_c, 9, 70, 0
10, 19860, Note_on_c, 9, 42, 56
10, 19860, Note_on_c, 9, 35, 70
10, 19860, Note_on_c, 9, 37, 90
10, 19878, Note_on_c, 9, 42, 0
10, 19885, Note_on_c, 9, 37, 0
10, 19885, Note_on_c, 9, 35, 0
10, 19920, Note_on_c, 9, 42, 63
10, 19920, Note_on_c, 9, 35, 100
10, 19920, Note_on_c, 9, 70, 80
10, 19938, Note_on_c, 9, 42, 0
10, 19945, Note_on_c, 9, 70, 0
10, 19945, Note_on_c, 9, 35, 0
10, 19980, Note_on_c, 9, 46, 63
10, 19999, Note_on_c, 9, 46, 0
10, 20040, Note_on_c, 9, 42, 47
10, 20040, Note_on_c, 9, 37, 90
10, 20040, Note_on_c, 9, 70, 80
10, 20058, Note_on_c, 9, 42, 0
10, 20065, Note_on_c, 9, 70, 0
10, 20065, Note_on_c, 9, 37, 0
10, 20100, Note_on_c, 9, 42, 45
10, 20100, Note_on_c, 9, 35, 70
10, 20117, Note_on_c, 9, 42, 0
10, 20125, Note_on_c, 9, 35, 0
10, 20160, Note_on_c, 9, 42, 45
10, 20160, Note_on_c, 9, 35, 100
10, 20160, Note_on_c, 9, 70, 80
10, 20179, Note_on_c, 9, 42, 0
10, 20185, Note_on_c, 9, 70, 0
10, 20185, Note_on_c, 9, 35, 0
10, 20220, Note_on_c, 9, 42, 42
10, 20239, Note_on_c, 9, 42, 0
10, 20280, Note_on_c, 9, 42, 43
10, 20280, Note_on_c, 9, 37, 90
10, 20280, Note_on_c, 9, 70, 80
10, 20300, Note_on_c, 9, 42, 0
10, 20305, Note_on_c, 9, 70, 0
10, 20305, Note_on_c, 9, 37, 0
10, 20340, Note_on_c, 9, 42, 46
10, 20340, Note_on_c, 9, 35, 70
10, 20358, Note_on_c, 9, 42, 0
10, 20365, Note_on_c, 9, 35, 0
10, 20400, Note_on_c, 9, 42, 72
10, 20400, Note_on_c, 9, 35, 100
10, 20400, Note_on_c, 9, 70, 80
10, 20420, Note_on_c, 9, 42, 0
10, 20425, Note_on_c, 9, 70, 0
10, 20425, Note_on_c, 9, 35, 0
10, 20460, Note_on_c, 9, 46, 65
10, 20460, Note_on_c, 9, 37, 90
10, 20477, Note_on_c, 9, 46, 0
10, 20485, Note_on_c, 9, 37, 0
10, 20520, Note_on_c, 9, 42, 40
10, 20520, Note_on_c, 9, 45, 70
10, 20520, Note_on_c, 9, 70, 80
10, 20538, Note_on_c, 9, 42, 0
10, 20545, Note_on_c, 9, 70, 0
10, 20545, Note_on_c, 9, 45, 0
10, 20580, Note_on_c, 9, 42, 56
10, 20580, Note_on_c, 9, 35, 70
10, 20600, Note_on_c, 9, 42, 0
10, 20605, Note_on_c, 9, 35, 0
10, 20640, Note_on_c, 9, 42, 59
10, 20640, Note_on_c, 9, 35, 100
10, 20640, Note_on_c, 9, 37, 90
10, 20640, Note_on_c, 9, 70, 80
10, 20657, Note_on_c, 9, 42, 0
10, 20665, Note_on_c, 9, 35, 0
10, 20665, Note_on_c, 9, 37, 0
10, 20665, Note_on_c, 9, 70, 0
10, 20700, Note_on_c, 9, 42, 52
10, 20718, Note_on_c, 9, 42, 0
10, 20760, Note_on_c, 9, 42, 46
10, 20760, Note_on_c, 9, 70, 80
10, 20775, Note_on_c, 9, 42, 0
10, 20785, Note_on_c, 9, 70, 0
10, 20820, Note_on_c, 9, 42, 55
10, 20820, Note_on_c, 9, 35, 70
10, 20820, Note_on_c, 9, 37, 90
10, 20836, Note_on_c, 9, 42, 0
10, 20845, Note_on_c, 9, 37, 0
10, 20845, Note_on_c, 9, 35, 0
10, 20880, Note_on_c, 9, 42, 75
10, 20880, Note_on_c, 9, 35, 100
10, 20880, Note_on_c, 9, 70, 80
10, 20897, Note_on_c, 9, 42, 0
10, 20905, Note_on_c, 9, 70, 0
10, 20905, Note_on_c, 9, 35, 0
10, 20940, Note_on_c, 9, 46, 65
10, 20956, Note_on_c, 9, 46, 0
10, 21000, Note_on_c, 9, 42, 60
10, 21000, Note_on_c, 9, 37, 90
10, 21000, Note_on_c, 9, 70, 80
10, 21017, Note_on_c, 9, 42, 0
10, 21025, Note_on_c, 9, 70, 0
10, 21025, Note_on_c, 9, 37, 0
10, 21060, Note_on_c, 9, 42, 72
10, 21060, Note_on_c, 9, 35, 70
10, 21079, Note_on_c, 9, 42, 0
10, 21085, Note_on_c, 9, 35, 0
10, 21120, Note_on_c, 9, 42, 71
10, 21120, Note_on_c, 9, 35, 100
10, 21120, Note_on_c, 9, 70, 80
10, 21133, Note_on_c, 9, 42, 0
10, 21145, Note_on_c, 9, 70, 0
10, 21145, Note_on_c, 9, 35, 0
10, 21150, Note_on_c, 9, 42, 52
10, 21157, Note_on_c, 9, 42, 0
10, 21180, Note_on_c, 9, 42, 72
10, 21196, Note_on_c, 9, 42, 0
10, 21240, Note_on_c, 9, 46, 51
10, 21240, Note_on_c, 9, 37, 90
10, 21240, Note_on_c, 9, 70, 80
10, 21254, Note_on_c, 9, 46, 0
10, 21265, Note_on_c, 9, 70, 0
10, 21265, Note_on_c, 9, 37, 0
10, 21300, Note_on_c, 9, 42, 78
10, 21300, Note_on_c, 9, 35, 70
10, 21319, Note_on_c, 9, 42, 0
10, 21325, Note_on_c, 9, 35, 0
10, 21360, Note_on_c, 9, 42, 57
10, 21360, Note_on_c, 9, 35, 100
10, 21360, Note_on_c, 9, 70, 80
10, 21375, Note_on_c, 9, 42, 0
10, 21385, Note_on_c, 9, 70, 0
10, 21385, Note_on_c, 9, 35, 0
10, 21420, Note_on_c, 9, 42, 57
10, 21420, Note_on_c, 9, 37, 90
10, 21436, Note_on_c, 9, 42, 0
10, 21445, Note_on_c, 9, 37, 0
10, 21480, Note_on_c, 9, 42, 58
10, 21480, Note_on_c, 9, 70, 80
10, 21496, Note_on_c, 9, 42, 0
10, 21505, Note_on_c, 9, 70, 0
10, 21540, Note_on_c, 9, 42, 63
10, 21540, Note_on_c, 9, 35, 70
10, 21540, Note_on_c, 9, 45, 50
10, 21555, Note_on_c, 9, 42, 0
10, 21565, Note_on_c, 9, 45, 0
10, 21565, Note_on_c, 9, 35, 0
10, 21600, Note_on_c, 9, 42, 62
10, 21600, Note_on_c, 9, 35, 100
10, 21600, Note_on_c, 9, 37, 90
10, 21600, Note_on_c, 9, 70, 80
10, 21621, Note_on_c, 9, 42, 0
10, 21625, Note_on_c, 9, 35, 0
10, 21625, Note_on_c, 9, 37, 0
10, 21625, Note_on_c, 9, 70, 0
10, 21660, Note_on_c, 9, 42, 56
10, 21678, Note_on_c, 9, 42, 0
10, 21720, Note_on_c, 9, 42, 56
10, 21720, Note_on_c, 9, 70, 80
10, 21735, Note_on_c, 9, 42, 0
10, 21745, Note_on_c, 9, 70, 0
10, 21780, Note_on_c, 9, 42, 70
10, 21780, Note_on_c, 9, 35, 70
10, 21780, Note_on_c, 9, 37, 90
10, 21800, Note_on_c, 9, 42, 0
10, 21805, Note_on_c, 9, 37, 0
10, 21805, Note_on_c, 9, 35, 0
10, 21840, Note_on_c, 9, 42, 81
10, 21840, Note_on_c, 9, 35, 100
10, 21840, Note_on_c, 9, 70, 80
10, 21858, Note_on_c, 9, 42, 0
10, 21865, Note_on_c, 9, 70, 0
10, 21865, Note_on_c, 9, 35, 0
10, 21900, Note_on_c, 9, 46, 69
10, 21917, Note_on_c, 9, 46, 0
10, 21960, Note_on_c, 9, 42, 60
10, 21960, Note_on_c, 9, 37, 90
10, 21960, Note_on_c, 9, 70, 80
10, 21978, Note_on_c, 9, 42, 0
10, 21985, Note_on_c, 9, 70, 0
10, 21985, Note_on_c, 9, 37, 0
10, 22020, Note_on_c, 9, 42, 59
10, 22020, Note_on_c, 9, 35, 70
10, 22040, Note_on_c, 9, 42, 0
10, 22045, Note_on_c, 9, 35, 0
10, 22080, Note_on_c, 9, 42, 61
10, 22080, Note_on_c, 9, 35, 100
10, 22080, Note_on_c, 9, 70, 80
10, 22098, Note_on_c, 9, 42, 0
10, 22105, Note_on_c, 9, 70, 0
10, 22105, Note_on_c, 9, 35, 0
10, 22140, Note_on_c, 9, 42, 57
10, 22159, Note_on_c, 9, 42, 0
10, 22200, Note_on_c, 9, 42, 60
10, 22200, Note_on_c, 9, 37, 90
10, 22200, Note_on_c, 9, 70, 80
10, 22216, Note_on_c, 9, 42, 0
10, 22225, Note_on_c, 9, 70, 0
10, 22225, Note_on_c, 9, 37, 0
10, 22260, Note_on_c, 9, 42, 65
10, 22260, Note_on_c, 9, 35, 70
10, 22260, Note_on_c, 9, 48, 50
10, 22279, Note_on_c, 9, 42, 0
10, 22285, Note_on_c, 9, 48, 0
10, 22285, Note_on_c, 9, 35, 0
10, 22320, Note_on_c, 9, 42, 67
10, 22320, Note_on_c, 9, 35, 100
10, 22320, Note_on_c, 9, 70, 80
10, 22338, Note_on_c, 9, 42, 0
10, 22345, Note_on_c, 9, 70, 0
10, 22345, Note_on_c, 9, 35, 0
10, 22380, Note_on_c, 9, 46, 64
10, 22380, Note_on_c, 9, 37, 90
10, 22397, Note_on_c, 9, 46, 0
10, 22405, Note_on_c, 9, 37, 0
10, 22440, Note_on_c, 9, 42, 55
10, 22440, Note_on_c, 9, 70, 80
10, 22457, Note_on_c, 9, 42, 0
10, 22465, Note_on_c, 9, 70, 0
10, 22500, Note_on_c, 9, 42, 60
10, 22500, Note_on_c, 9, 35, 70
10, 22500, Note_on_c, 9, 45, 50
10, 22518, Note_on_c, 9, 42, 0
10, 22525, Note_on_c, 9, 45, 0
10, 22525, Note_on_c, 9, 35, 0
10, 22560, Note_on_c, 9, 42, 63
10, 22560, Note_on_c, 9, 35, 100
10, 22560, Note_on_c, 9, 37, 90
10, 22560, Note_on_c, 9, 70, 80
10, 22578, Note_on_c, 9, 42, 0
10, 22585, Note_on_c, 9, 35, 0
10, 22585, Note_on_c, 9, 37, 0
10, 22585, Note_on_c, 9, 70, 0
10, 22620, Note_on_c, 9, 42, 71
10, 22633, Note_on_c, 9, 42, 0
10, 22650, Note_on_c, 9, 42, 60
10, 22658, Note_on_c, 9, 42, 0
10, 22680, Note_on_c, 9, 42, 71
10, 22680, Note_on_c, 9, 70, 80
10, 22697, Note_on_c, 9, 42, 0
10, 22705, Note_on_c, 9, 70, 0
10, 22740, Note_on_c, 9, 42, 74
10, 22740, Note_on_c, 9, 35, 70
10, 22740, Note_on_c, 9, 37, 90
10, 22759, Note_on_c, 9, 42, 0
10, 22765, Note_on_c, 9, 37, 0
10, 22765, Note_on_c, 9, 35, 0
10, 22800, Note_on_c, 9, 42, 77
10, 22800, Note_on_c, 9, 35, 100
10, 22800, Note_on_c, 9, 70, 80
10, 22815, Note_on_c, 9, 42, 0
10, 22825, Note_on_c, 9, 70, 0
10, 22825, Note_on_c, 9, 35, 0
10, 22860, Note_on_c, 9, 46, 60
10, 22878, Note_on_c, 9, 46, 0
10, 22920, Note_on_c, 9, 42, 56
10, 22920, Note_on_c, 9, 37, 90
10, 22920, Note_on_c, 9, 70, 80
10, 22939, Note_on_c, 9, 42, 0
10, 22945, Note_on_c, 9, 70, 0
10, 22945, Note_on_c, 9, 37, 0
10, 22980, Note_on_c, 9, 42, 60
10, 22980, Note_on_c, 9, 35, 70
10, 22998, Note_on_c, 9, 42, 0
10, 23005, Note_on_c, 9, 35, 0
10, 23040, Note_on_c, 9, 42, 61
10, 23040, Note_on_c, 9, 35, 100
10, 23040, Note_on_c, 9, 70, 80
10, 23040, Note_on_c, 9, 38, 66
10, 23060, Note_on_c, 9, 42, 0
10, 23065, Note_on_c, 9, 35, 0
10, 23065, Note_on_c, 9, 70, 0
10, 23065, Note_on_c, 9, 38, 0
10, 23100, Note_on_c, 9, 42, 54
10, 23100, Note_on_c, 9, 38, 26
10, 23118, Note_on_c, 9, 42, 0
10, 23125, Note_on_c, 9, 38, 0
10, 23160, Note_on_c, 9, 42, 59
10, 23160, Note_on_c, 9, 70, 80
10, 23160, Note_on_c, 9, 38, 26
10, 23177, Note_on_c, 9, 42, 0
10, 23185, Note_on_c, 9, 38, 0
10, 23185, Note_on_c, 9, 70, 0
10, 23220, Note_on_c, 9, 42, 61
10, 23220, Note_on_c, 9, 35, 70
10, 23220, Note_on_c, 9, 38, 66
10, 23236, Note_on_c, 9, 42, 0
10, 23245, Note_on_c, 9, 38, 0
10, 23245, Note_on_c, 9, 35, 0
10, 23280, Note_on_c, 9, 42, 75
10, 23280, Note_on_c, 9, 35, 100
10, 23280, Note_on_c, 9, 70, 80
10, 23280, Note_on_c, 9, 38, 26
10, 23303, Note_on_c, 9, 42, 0
10, 23305, Note_on_c, 9, 35, 0
10, 23305, Note_on_c, 9, 70, 0
10, 23305, Note_on_c, 9, 38, 0
10, 23340, Note_on_c, 9, 46, 63
10, 23340, Note_on_c, 9, 38, 26
10, 23356, Note_on_c, 9, 46, 0
10, 23365, Note_on_c, 9, 38, 0
10, 23400, Note_on_c, 9, 42, 59
10, 23400, Note_on_c, 9, 70, 80
10, 23400, Note_on_c, 9, 38, 66
10, 23419, Note_on_c, 9, 42, 0
10, 23425, Note_on_c, 9, 38, 0
10, 23425, Note_on_c, 9, 70, 0
10, 23460, Note_on_c, 9, 42, 69
10, 23460, Note_on_c, 9, 35, 70
10, 23460, Note_on_c, 9, 41, 108
10, 23476, Note_on_c, 9, 42, 0
10, 23485, Note_on_c, 9, 41, 0
10, 23485, Note_on_c, 9, 35, 0
10, 23520, Note_on_c, 9, 42, 64
10, 23520, Note_on_c, 9, 35, 100
10, 23520, Note_on_c, 9, 37, 90
10, 23520, Note_on_c, 9, 49, 50
10, 23520, Note_on_c, 9, 70, 80
10, 23538, Note_on_c, 9, 42, 0
10, 23545, Note_on_c, 9, 49, 0
10, 23545, Note_on_c, 9, 35, 0
10, 23545, Note_on_c, 9, 37, 0
10, 23545, Note_on_c, 9, 70, 0
10, 23580, Note_on_c, 9, 42, 59
10, 23599, Note_on_c, 9, 42, 0
10, 23640, Note_on_c, 9, 42, 52
10, 23640, Note_on_c, 9, 70, 80
10, 23657, Note_on_c, 9, 42, 0
10, 23665, Note_on_c, 9, 70, 0
10, 23700, Note_on_c, 9, 42, 56
10, 23700, Note_on_c, 9, 35, 70
10, 23700, Note_on_c, 9, 37, 90
10, 23718, Note_on_c, 9, 42, 0
10, 23725, Note_on_c, 9, 37, 0
10, 23725, Note_on_c, 9, 35, 0
10, 23760, Note_on_c, 9, 42, 63
10, 23760, Note_on_c, 9, 35, 100
10, 23760, Note_on_c, 9, 70, 80
10, 23778, Note_on_c, 9, 42, 0
10, 23785, Note_on_c, 9, 70, 0
10, 23785, Note_on_c, 9, 35, 0
10, 23820, Note_on_c, 9, 46, 63
10, 23839, Note_on_c, 9, 46, 0
10, 23880, Note_on_c, 9, 42, 47
10, 23880, Note_on_c, 9, 37, 90
10, 23880, Note_on_c, 9, 70, 80
10, 23898, Note_on_c, 9, 42, 0
10, 23905, Note_on_c, 9, 70, 0
10, 23905, Note_on_c, 9, 37, 0
10, 23940, Note_on_c, 9, 42, 45
10, 23940, Note_on_c, 9, 35, 70
10, 23957, Note_on_c, 9, 42, 0
10, 23965, Note_on_c, 9, 35, 0
10, 24000, Note_on_c, 9, 42, 45
10, 24000, Note_on_c, 9, 35, 100
10, 24000, Note_on_c, 9, 70, 80
10, 24019, Note_on_c, 9, 42, 0
10, 24025, Note_on_c, 9, 70, 0
10, 24025, Note_on_c, 9, 35, 0
10, 24060, Note_on_c, 9, 42, 42
10, 24079, Note_on_c, 9, 42, 0
10, 24120, Note_on_c, 9, 42, 43
10, 24120, Note_on_c, 9, 37, 90
10, 24120, Note_on_c, 9, 70, 80
10, 24140, Note_on_c, 9, 42, 0
10, 24145, Note_on_c, 9, 70, 0
10, 24145, Note_on_c, 9, 37, 0
10, 24180, Note_on_c, 9, 42, 46
10, 24180, Note_on_c, 9, 35, 70
10, 24198, Note_on_c, 9, 42, 0
10, 24205, Note_on_c, 9, 35, 0
10, 24240, Note_on_c, 9, 42, 72
10, 24240, Note_on_c, 9, 35, 100
10, 24240, Note_on_c, 9, 70, 80
10, 24260, Note_on_c, 9, 42, 0
10, 24265, Note_on_c, 9, 70, 0
10, 24265, Note_on_c, 9, 35, 0
10, 24300, Note_on_c, 9, 46, 65
10, 24300, Note_on_c, 9, 37, 90
10, 24317, Note_on_c, 9, 46, 0
10, 24325, Note_on_c, 9, 37, 0
10, 24360, Note_on_c, 9, 42, 40
10, 24360, Note_on_c, 9, 70, 80
10, 24378, Note_on_c, 9, 42, 0
10, 24385, Note_on_c, 9, 70, 0
10, 24420, Note_on_c, 9, 42, 56
10, 24420, Note_on_c, 9, 35, 70
10, 24440, Note_on_c, 9, 42, 0
10, 24445, Note_on_c, 9, 35, 0
10, 24480, Note_on_c, 9, 42, 59
10, 24480, Note_on_c, 9, 35, 100
10, 24480, Note_on_c, 9, 37, 90
10, 24480, Note_on_c, 9, 70, 80
10, 24497, Note_on_c, 9, 42, 0
10, 24505, Note_on_c, 9, 35, 0
10, 24505, Note_on_c, 9, 37, 0
10, 24505, Note_on_c, 9, 70, 0
10, 24540, Note_on_c, 9, 42, 52
10, 24558, Note_on_c, 9, 42, 0
10, 24600, Note_on_c, 9, 42, 46
10, 24600, Note_on_c, 9, 70, 80
10, 24615, Note_on_c, 9, 42, 0
10, 24625, Note_on_c, 9, 70, 0
10, 24660, Note_on_c, 9, 42, 55
10, 24660, Note_on_c, 9, 35, 70
10, 24660, Note_on_c, 9, 37, 90
10, 24676, Note_on_c, 9, 42, 0
10, 24685, Note_on_c, 9, 37, 0
10, 24685, Note_on_c, 9, 35, 0
10, 24720, Note_on_c, 9, 42, 75
10, 24720, Note_on_c, 9, 35, 100
10, 24720, Note_on_c, 9, 70, 80
10, 24737, Note_on_c, 9, 42, 0
10, 24745, Note_on_c, 9, 70, 0
10, 24745, Note_on_c, 9, 35, 0
10, 24780, Note_on_c, 9, 46, 65
10, 24796, Note_on_c, 9, 46, 0
10, 24840, Note_on_c, 9, 42, 60
10, 24840, Note_on_c, 9, 37, 90
10, 24840, Note_on_c, 9, 70, 80
10, 24857, Note_on_c, 9, 42, 0
10, 24865, Note_on_c, 9, 70, 0
10, 24865, Note_on_c, 9, 37, 0
10, 24900, Note_on_c, 9, 42, 72
10, 24900, Note_on_c, 9, 35, 70
10, 24919, Note_on_c, 9, 42, 0
10, 24925, Note_on_c, 9, 35, 0
10, 24960, Note_on_c, 9, 42, 71
10, 24960, Note_on_c, 9, 35, 100
10, 24960, Note_on_c, 9, 70, 80
10, 24973, Note_on_c, 9, 42, 0
10, 24985, Note_on_c, 9, 70, 0
10, 24985, Note_on_c, 9, 35, 0
10, 24990, Note_on_c, 9, 42, 52
10, 24997, Note_on_c, 9, 42, 0
10, 25020, Note_on_c, 9, 42, 72
10, 25036, Note_on_c, 9, 42, 0
10, 25080, Note_on_c, 9, 46, 51
10, 25080, Note_on_c, 9, 37, 90
10, 25080, Note_on_c, 9, 70, 80
10, 25094, Note_on_c, 9, 46, 0
10, 25105, Note_on_c, 9, 70, 0
10, 25105, Note_on_c, 9, 37, 0
10, 25140, Note_on_c, 9, 42, 78
10, 25140, Note_on_c, 9, 35, 70
10, 25159, Note_on_c, 9, 42, 0
10, 25165, Note_on_c, 9, 35, 0
10, 25200, Note_on_c, 9, 42, 57
10, 25200, Note_on_c, 9, 35, 100
10, 25200, Note_on_c, 9, 70, 80
10, 25215, Note_on_c, 9, 42, 0
10, 25225, Note_on_c, 9, 70, 0
10, 25225, Note_on_c, 9, 35, 0
10, 25260, Note_on_c, 9, 42, 57
10, 25260, Note_on_c, 9, 37, 90
10, 25276, Note_on_c, 9, 42, 0
10, 25285, Note_on_c, 9, 37, 0
10, 25320, Note_on_c, 9, 42, 58
10, 25320, Note_on_c, 9, 70, 80
10, 25336, Note_on_c, 9, 42, 0
10, 25345, Note_on_c, 9, 70, 0
10, 25380, Note_on_c, 9, 42, 63
10, 25380, Note_on_c, 9, 35, 70
10, 25395, Note_on_c, 9, 42, 0
10, 25405, Note_on_c, 9, 35, 0
10, 25440, Note_on_c, 9, 42, 62
10, 25440, Note_on_c, 9, 35, 100
10, 25440, Note_on_c, 9, 37, 90
10, 25440, Note_on_c, 9, 70, 80
10, 25461, Note_on_c, 9, 42, 0
10, 25465, Note_on_c, 9, 35, 0
10, 25465, Note_on_c, 9, 37, 0
10, 25465, Note_on_c, 9, 70, 0
10, 25500, Note_on_c, 9, 42, 56
10, 25518, Note_on_c, 9, 42, 0
10, 25560, Note_on_c, 9, 42, 56
10, 25560, Note_on_c, 9, 70, 80
10, 25575, Note_on_c, 9, 42, 0
10, 25585, Note_on_c, 9, 70, 0
10, 25620, Note_on_c, 9, 42, 70
10, 25620, Note_on_c, 9, 35, 70
10, 25620, Note_on_c, 9, 37, 90
10, 25640, Note_on_c, 9, 42, 0
10, 25645, Note_on_c, 9, 37, 0
10, 25645, Note_on_c, 9, 35, 0
10, 25680, Note_on_c, 9, 42, 81
10, 25680, Note_on_c, 9, 35, 100
10, 25680, Note_on_c, 9, 70, 80
10, 25698, Note_on_c, 9, 42, 0
10, 25705, Note_on_c, 9, 70, 0
10, 25705, Note_on_c, 9, 35, 0
10, 25740, Note_on_c, 9, 46, 69
10, 25757, Note_on_c, 9, 46, 0
10, 25800, Note_on_c, 9, 42, 60
10, 25800, Note_on_c, 9, 37, 90
10, 25800, Note_on_c, 9, 70, 80
10, 25818, Note_on_c, 9, 42, 0
10, 25825, Note_on_c, 9, 70, 0
10, 25825, Note_on_c, 9, 37, 0
10, 25860, Note_on_c, 9, 42, 59
10, 25860, Note_on_c, 9, 35, 70
10, 25880, Note_on_c, 9, 42, 0
10, 25885, Note_on_c, 9, 35, 0
10, 25920, Note_on_c, 9, 42, 61
10, 25920, Note_on_c, 9, 35, 100
10, 25920, Note_on_c, 9, 70, 80
10, 25938, Note_on_c, 9, 42, 0
10, 25945, Note_on_c, 9, 70, 0
10, 25945, Note_on_c, 9, 35, 0
10, 25980, Note_on_c, 9, 42, 57
10, 25999, Note_on_c, 9, 42, 0
10, 26040, Note_on_c, 9, 42, 60
10, 26040, Note_on_c, 9, 37, 90
10, 26040, Note_on_c, 9, 70, 80
10, 26056, Note_on_c, 9, 42, 0
10, 26065, Note_on_c, 9, 70, 0
10, 26065, Note_on_c, 9, 37, 0
10, 26100, Note_on_c, 9, 42, 65
10, 26100, Note_on_c, 9, 35, 70
10, 26100, Note_on_c, 9, 48, 50
10, 26119, Note_on_c, 9, 42, 0
10, 26125, Note_on_c, 9, 48, 0
10, 26125, Note_on_c, 9, 35, 0
10, 26160, Note_on_c, 9, 42, 67
10, 26160, Note_on_c, 9, 35, 100
10, 26160, Note_on_c, 9, 70, 80
10, 26178, Note_on_c, 9, 42, 0
10, 26185, Note_on_c, 9, 70, 0
10, 26185, Note_on_c, 9, 35, 0
10, 26220, Note_on_c, 9, 46, 64
10, 26220, Note_on_c, 9, 37, 90
10, 26237, Note_on_c, 9, 46, 0
10, 26245, Note_on_c, 9, 37, 0
10, 26280, Note_on_c, 9, 42, 55
10, 26280, Note_on_c, 9, 70, 80
10, 26297, Note_on_c, 9, 42, 0
10, 26305, Note_on_c, 9, 70, 0
10, 26340, Note_on_c, 9, 42, 60
10, 26340, Note_on_c, 9, 35, 70
10, 26340, Note_on_c, 9, 45, 50
10, 26358, Note_on_c, 9, 42, 0
10, 26365, Note_on_c, 9, 45, 0
10, 26365, Note_on_c, 9, 35, 0
10, 26400, Note_on_c, 9, 42, 63
10, 26400, Note_on_c, 9, 35, 100
10, 26400, Note_on_c, 9, 37, 90
10, 26400, Note_on_c, 9, 70, 80
10, 26418, Note_on_c, 9, 42, 0
10, 26425, Note_on_c, 9, 35, 0
10, 26425, Note_on_c, 9, 37, 0
10, 26425, Note_on_c, 9, 70, 0
10, 26460, Note_on_c, 9, 42, 71
10, 26473, Note_on_c, 9, 42, 0
10, 26490, Note_on_c, 9, 42, 60
10, 26498, Note_on_c, 9, 42, 0
10, 26520, Note_on_c, 9, 42, 71
10, 26520, Note_on_c, 9, 70, 80
10, 26537, Note_on_c, 9, 42, 0
10, 26545, Note_on_c, 9, 70, 0
10, 26580, Note_on_c, 9, 42, 74
10, 26580, Note_on_c, 9, 35, 70
10, 26580, Note_on_c, 9, 37, 90
10, 26599, Note_on_c, 9, 42, 0
10, 26605, Note_on_c, 9, 37, 0
10, 26605, Note_on_c, 9, 35, 0
10, 26640, Note_on_c, 9, 42, 77
10, 26640, Note_on_c, 9, 35, 100
10, 26640, Note_on_c, 9, 70, 80
10, 26655, Note_on_c, 9, 42, 0
10, 26665, Note_on_c, 9, 70, 0
10, 26665, Note_on_c, 9, 35, 0
10, 26700, Note_on_c, 9, 46, 60
10, 26718, Note_on_c, 9, 46, 0
10, 26760, Note_on_c, 9, 42, 56
10, 26760, Note_on_c, 9, 37, 90
10, 26760, Note_on_c, 9, 70, 80
10, 26779, Note_on_c, 9, 42, 0
10, 26785, Note_on_c, 9, 70, 0
10, 26785, Note_on_c, 9, 37, 0
10, 26820, Note_on_c, 9, 42, 60
10, 26820, Note_on_c, 9, 35, 70
10, 26838, Note_on_c, 9, 42, 0
10, 26845, Note_on_c, 9, 35, 0
10, 26880, Note_on_c, 9, 42, 61
10, 26880, Note_on_c, 9, 35, 100
10, 26880, Note_on_c, 9, 70, 80
10, 26900, Note_on_c, 9, 42, 0
10, 26905, Note_on_c, 9, 70, 0
10, 26905, Note_on_c, 9, 35, 0
10, 26940, Note_on_c, 9, 42, 54
10, 26958, Note_on_c, 9, 42, 0
10, 27000, Note_on_c, 9, 42, 59
10, 27000, Note_on_c, 9, 37, 90
10, 27000, Note_on_c, 9, 70, 80
10, 27017, Note_on_c, 9, 42, 0
10, 27025, Note_on_c, 9, 70, 0
10, 27025, Note_on_c, 9, 37, 0
10, 27060, Note_on_c, 9, 42, 61
10, 27060, Note_on_c, 9, 35, 70
10, 27076, Note_on_c, 9, 42, 0
10, 27085, Note_on_c, 9, 35, 0
10, 27120, Note_on_c, 9, 42, 75
10, 27120, Note_on_c, 9, 35, 100
10, 27120, Note_on_c, 9, 70, 80
10, 27143, Note_on_c, 9, 42, 0
10, 27145, Note_on_c, 9, 70, 0
10, 27145, Note_on_c, 9, 35, 0
10, 27180, Note_on_c, 9, 46, 63
10, 27180, Note_on_c, 9, 37, 90
10, 27196, Note_on_c, 9, 46, 0
10, 27205, Note_on_c, 9, 37, 0
10, 27240, Note_on_c, 9, 42, 59
10, 27240, Note_on_c, 9, 70, 80
10, 27259, Note_on_c, 9, 42, 0
10, 27265, Note_on_c, 9, 70, 0
10, 27300, Note_on_c, 9, 42, 69
10, 27300, Note_on_c, 9, 35, 70
10, 27316, Note_on_c, 9, 42, 0
10, 27325, Note_on_c, 9, 35, 0
10, 27360, Note_on_c, 9, 42, 64
10, 27360, Note_on_c, 9, 35, 100
10, 27360, Note_on_c, 9, 37, 90
10, 27360, Note_on_c, 9, 70, 80
10, 27378, Note_on_c, 9, 42, 0
10, 27385, Note_on_c, 9, 35, 0
10, 27385, Note_on_c, 9, 37, 0
10, 27385, Note_on_c, 9, 70, 0
10, 27420, Note_on_c, 9, 42, 59
10, 27439, Note_on_c, 9, 42, 0
10, 27480, Note_on_c, 9, 42, 52
10, 27480, Note_on_c, 9, 70, 80
10, 27497, Note_on_c, 9, 42, 0
10, 27505, Note_on_c, 9, 70, 0
10, 27540, Note_on_c, 9, 42, 56
10, 27540, Note_on_c, 9, 35, 70
10, 27540, Note_on_c, 9, 37, 90
10, 27558, Note_on_c, 9, 42, 0
10, 27565, Note_on_c, 9, 37, 0
10, 27565, Note_on_c, 9, 35, 0
10, 27600, Note_on_c, 9, 42, 63
10, 27600, Note_on_c, 9, 35, 100
10, 27600, Note_on_c, 9, 70, 80
10, 27618, Note_on_c, 9, 42, 0
10, 27625, Note_on_c, 9, 70, 0
10, 27625, Note_on_c, 9, 35, 0
10, 27660, Note_on_c, 9, 46, 63
10, 27679, Note_on_c, 9, 46, 0
10, 27720, Note_on_c, 9, 42, 47
10, 27720, Note_on_c, 9, 37, 90
10, 27720, Note_on_c, 9, 70, 80
10, 27738, Note_on_c, 9, 42, 0
10, 27745, Note_on_c, 9, 70, 0
10, 27745, Note_on_c, 9, 37, 0
10, 27780, Note_on_c, 9, 42, 45
10, 27780, Note_on_c, 9, 35, 70
10, 27797, Note_on_c, 9, 42, 0
10, 27805, Note_on_c, 9, 35, 0
10, 27840, Note_on_c, 9, 42, 45
10, 27840, Note_on_c, 9, 35, 100
10, 27840, Note_on_c, 9, 70, 80
10, 27859, Note_on_c, 9, 42, 0
10, 27865, Note_on_c, 9, 70, 0
10, 27865, Note_on_c, 9, 35, 0
10, 27900, Note_on_c, 9, 42, 42
10, 27919, Note_on_c, 9, 42, 0
10, 27960, Note_on_c, 9, 42, 43
10, 27960, Note_on_c, 9, 37, 90
10, 27960, Note_on_c, 9, 70, 80
10, 27980, Note_on_c, 9, 42, 0
10, 27985, Note_on_c, 9, 70, 0
10, 27985, Note_on_c, 9, 37, 0
10, 28020, Note_on_c, 9, 42, 46
10, 28020, Note_on_c, 9, 35, 70
10, 28038, Note_on_c, 9, 42, 0
10, 28045, Note_on_c, 9, 35, 0
10, 28080, Note_on_c, 9, 42, 72
10, 28080, Note_on_c, 9, 35, 100
10, 28080, Note_on_c, 9, 70, 80
10, 28100, Note_on_c, 9, 42, 0
10, 28105, Note_on_c, 9, 70, 0
10, 28105, Note_on_c, 9, 35, 0
10, 28140, Note_on_c, 9, 46, 65
10, 28140, Note_on_c, 9, 37, 90
10, 28157, Note_on_c, 9, 46, 0
10, 28165, Note_on_c, 9, 37, 0
10, 28200, Note_on_c, 9, 42, 40
10, 28200, Note_on_c, 9, 70, 80
10, 28218, Note_on_c, 9, 42, 0
10, 28225, Note_on_c, 9, 70, 0
10, 28260, Note_on_c, 9, 42, 56
10, 28260, Note_on_c, 9, 35, 70
10, 28280, Note_on_c, 9, 42, 0
10, 28285, Note_on_c, 9, 35, 0
10, 28320, Note_on_c, 9, 42, 59
10, 28320, Note_on_c, 9, 35, 100
10, 28320, Note_on_c, 9, 37, 90
10, 28320, Note_on_c, 9, 70, 80
10, 28337, Note_on_c, 9, 42, 0
10, 28345, Note_on_c, 9, 35, 0
10, 28345, Note_on_c, 9, 37, 0
10, 28345, Note_on_c, 9, 70, 0
10, 28380, Note_on_c, 9, 42, 52
10, 28398, Note_on_c, 9, 42, 0
10, 28440, Note_on_c, 9, 42, 46
10, 28440, Note_on_c, 9, 70, 80
10, 28455, Note_on_c, 9, 42, 0
10, 28465, Note_on_c, 9, 70, 0
10, 28500, Note_on_c, 9, 42, 55
10, 28500, Note_on_c, 9, 35, 70
10, 28500, Note_on_c, 9, 37, 90
10, 28516, Note_on_c, 9, 42, 0
10, 28525, Note_on_c, 9, 37, 0
10, 28525, Note_on_c, 9, 35, 0
10, 28560, Note_on_c, 9, 42, 75
10, 28560, Note_on_c, 9, 35, 100
10, 28560, Note_on_c, 9, 70, 80
10, 28577, Note_on_c, 9, 42, 0
10, 28585, Note_on_c, 9, 70, 0
10, 28585, Note_on_c, 9, 35, 0
10, 28620, Note_on_c, 9, 46, 65
10, 28636, Note_on_c, 9, 46, 0
10, 28680, Note_on_c, 9, 42, 60
10, 28680, Note_on_c, 9, 37, 90
10, 28680, Note_on_c, 9, 70, 80
10, 28697, Note_on_c, 9, 42, 0
10, 28705, Note_on_c, 9, 70, 0
10, 28705, Note_on_c, 9, 37, 0
10, 28740, Note_on_c, 9, 42, 72
10, 28740, Note_on_c, 9, 35, 70
10, 28759, Note_on_c, 9, 42, 0
10, 28765, Note_on_c, 9, 35, 0
10, 28800, Note_on_c, 9, 42, 71
10, 28800, Note_on_c, 9, 35, 100
10, 28813, Note_on_c, 9, 42, 0
10, 28825, Note_on_c, 9, 35, 0
10, 28830, Note_on_c, 9, 42, 52
10, 28837, Note_on_c, 9, 42, 0
10, 28860, Note_on_c, 9, 42, 72
10, 28876, Note_on_c, 9, 42, 0
10, 28920, Note_on_c, 9, 46, 51
10, 28920, Note_on_c, 9, 37, 90
10, 28934, Note_on_c, 9, 46, 0
10, 28945, Note_on_c, 9, 37, 0
10, 28980, Note_on_c, 9, 42, 78
10, 28980, Note_on_c, 9, 35, 70
10, 28999, Note_on_c, 9, 42, 0
10, 29005, Note_on_c, 9, 35, 0
10, 29040, Note_on_c, 9, 42, 57
10, 29040, Note_on_c, 9, 35, 100
10, 29055, Note_on_c, 9, 42, 0
10, 29065, Note_on_c, 9, 35, 0
10, 29100, Note_on_c, 9, 42, 57
10, 29100, Note_on_c, 9, 37, 90
10, 29116, Note_on_c, 9, 42, 0
10, 29125, Note_on_c, 9, 37, 0
10, 29160, Note_on_c, 9, 42, 58
10, 29176, Note_on_c, 9, 42, 0
10, 29220, Note_on_c, 9, 42, 63
10, 29220, Note_on_c, 9, 35, 70
10, 29235, Note_on_c, 9, 42, 0
10, 29245, Note_on_c, 9, 35, 0
10, 29280, Note_on_c, 9, 42, 62
10, 29280, Note_on_c, 9, 35, 100
10, 29280, Note_on_c, 9, 37, 90
10, 29301, Note_on_c, 9, 42, 0
10, 29305, Note_on_c, 9, 37, 0
10, 29305, Note_on_c, 9, 35, 0
10, 29340, Note_on_c, 9, 42, 56
10, 29358, Note_on_c, 9, 42, 0
10, 29400, Note_on_c, 9, 42, 56
10, 29415, Note_on_c, 9, 42, 0
10, 29460, Note_on_c, 9, 42, 70
10, 29460, Note_on_c, 9, 35, 70
10, 29460, Note_on_c, 9, 37, 90
10, 29480, Note_on_c, 9, 42, 0
10, 29485, Note_on_c, 9, 37, 0
10, 29485, Note_on_c, 9, 35, 0
10, 29520, Note_on_c, 9, 42, 81
10, 29520, Note_on_c, 9, 35, 100
10, 29538, Note_on_c, 9, 42, 0
10, 29545, Note_on_c, 9, 35, 0
10, 29580, Note_on_c, 9, 46, 69
10, 29597, Note_on_c, 9, 46, 0
10, 29640, Note_on_c, 9, 42, 60
10, 29640, Note_on_c, 9, 37, 90
10, 29658, Note_on_c, 9, 42, 0
10, 29665, Note_on_c, 9, 37, 0
10, 29700, Note_on_c, 9, 42, 59
10, 29700, Note_on_c, 9, 35, 70
10, 29720, Note_on_c, 9, 42, 0
10, 29725, Note_on_c, 9, 35, 0
10, 29760, Note_on_c, 9, 42, 61
10, 29760, Note_on_c, 9, 35, 100
10, 29778, Note_on_c, 9, 42, 0
10, 29785, Note_on_c, 9, 35, 0
10, 29820, Note_on_c, 9, 42, 57
10, 29839, Note_on_c, 9, 42, 0
10, 29880, Note_on_c, 9, 42, 60
10, 29880, Note_on_c, 9, 37, 90
10, 29896, Note_on_c, 9, 42, 0
10, 29905, Note_on_c, 9, 37, 0
10, 29940, Note_on_c, 9, 42, 65
10, 29940, Note_on_c, 9, 35, 70
10, 29959, Note_on_c, 9, 42, 0
10, 29965, Note_on_c, 9, 35, 0
10, 30000, Note_on_c, 9, 42, 67
10, 30000, Note_on_c, 9, 35, 100
10, 30018, Note_on_c, 9, 42, 0
10, 30025, Note_on_c, 9, 35, 0
10, 30060, Note_on_c, 9, 46, 64
10, 30060, Note_on_c, 9, 37, 90
10, 30077, Note_on_c, 9, 46, 0
10, 30085, Note_on_c, 9, 37, 0
10, 30120, Note_on_c, 9, 42, 55
10, 30137, Note_on_c, 9, 42, 0
10, 30180, Note_on_c, 9, 42, 60
10, 30180, Note_on_c, 9, 35, 70
10, 30198, Note_on_c, 9, 42, 0
10, 30205, Note_on_c, 9, 35, 0
10, 30240, Note_on_c, 9, 42, 63
10, 30240, Note_on_c, 9, 35, 100
10, 30240, Note_on_c, 9, 37, 90
10, 30258, Note_on_c, 9, 42, 0
10, 30265, Note_on_c, 9, 37, 0
10, 30265, Note_on_c, 9, 35, 0
10, 30300, Note_on_c, 9, 42, 71
10, 30313, Note_on_c, 9, 42, 0
10, 30330, Note_on_c, 9, 42, 60
10, 30338, Note_on_c, 9, 42, 0
10, 30360, Note_on_c, 9, 42, 71
10, 30377, Note_on_c, 9, 42, 0
10, 30420, Note_on_c, 9, 42, 74
10, 30420, Note_on_c, 9, 35, 70
10, 30420, Note_on_c, 9, 37, 90
10, 30439, Note_on_c, 9, 42, 0
10, 30445, Note_on_c, 9, 37, 0
10, 30445, Note_on_c, 9, 35, 0
10, 30480, Note_on_c, 9, 42, 77
10, 30480, Note_on_c, 9, 35, 100
10, 30495, Note_on_c, 9, 42, 0
10, 30505, Note_on_c, 9, 35, 0
10, 30540, Note_on_c, 9, 46, 60
10, 30558, Note_on_c, 9, 46, 0
10, 30600, Note_on_c, 9, 42, 56
10, 30600, Note_on_c, 9, 37, 90
10, 30619, Note_on_c, 9, 42, 0
10, 30625, Note_on_c, 9, 37, 0
10, 30660, Note_on_c, 9, 42, 60
10, 30660, Note_on_c, 9, 35, 70
10, 30678, Note_on_c, 9, 42, 0
10, 30685, Note_on_c, 9, 35, 0
10, 30720, Note_on_c, 9, 42, 61
10, 30720, Note_on_c, 9, 35, 100
10, 30720, Note_on_c, 9, 70, 80
10, 30740, Note_on_c, 9, 42, 0
10, 30745, Note_on_c, 9, 70, 0
10, 30745, Note_on_c, 9, 35, 0
10, 30780, Note_on_c, 9, 42, 54
10, 30798, Note_on_c, 9, 42, 0
10, 30840, Note_on_c, 9, 42, 59
10, 30840, Note_on_c, 9, 41, 90
10, 30840, Note_on_c, 9, 70, 80
10, 30857, Note_on_c, 9, 42, 0
10, 30865, Note_on_c, 9, 70, 0
10, 30865, Note_on_c, 9, 41, 0
10, 30900, Note_on_c, 9, 42, 61
10, 30900, Note_on_c, 9, 35, 70
10, 30916, Note_on_c, 9, 42, 0
10, 30925, Note_on_c, 9, 35, 0
10, 30960, Note_on_c, 9, 42, 75
10, 30960, Note_on_c, 9, 35, 100
10, 30960, Note_on_c, 9, 38, 90
10, 30960, Note_on_c, 9, 48, 80
10, 30960, Note_on_c, 9, 70, 80
10, 30983, Note_on_c, 9, 42, 0
10, 30985, Note_on_c, 9, 48, 0
10, 30985, Note_on_c, 9, 35, 0
10, 30985, Note_on_c, 9, 38, 0
10, 30985, Note_on_c, 9, 70, 0
10, 31020, Note_on_c, 9, 46, 63
10, 31020, Note_on_c, 9, 45, 90
10, 31036, Note_on_c, 9, 46, 0
10, 31045, Note_on_c, 9, 45, 0
10, 31080, Note_on_c, 9, 42, 59
10, 31080, Note_on_c, 9, 70, 80
10, 31099, Note_on_c, 9, 42, 0
10, 31105, Note_on_c, 9, 70, 0
10, 31140, Note_on_c, 9, 42, 69
10, 31140, Note_on_c, 9, 35, 70
10, 31140, Note_on_c, 9, 41, 100
10, 31156, Note_on_c, 9, 42, 0
10, 31165, Note_on_c, 9, 41, 0
10, 31165, Note_on_c, 9, 35, 0
10, 31200, Note_on_c, 9, 42, 64
10, 31200, Note_on_c, 9, 35, 100
10, 31200, Note_on_c, 9, 37, 90
10, 31200, Note_on_c, 9, 49, 50
10, 31200, Note_on_c, 9, 70, 80
10, 31218, Note_on_c, 9, 42, 0
10, 31225, Note_on_c, 9, 49, 0
10, 31225, Note_on_c, 9, 35, 0
10, 31225, Note_on_c, 9, 37, 0
10, 31225, Note_on_c, 9, 70, 0
10, 31260, Note_on_c, 9, 42, 59
10, 31279, Note_on_c, 9, 42, 0
10, 31320, Note_on_c, 9, 42, 52
10, 31320, Note_on_c, 9, 70, 80
10, 31337, Note_on_c, 9, 42, 0
10, 31345, Note_on_c, 9, 70, 0
10, 31380, Note_on_c, 9, 42, 56
10, 31380, Note_on_c, 9, 35, 70
10, 31380, Note_on_c, 9, 37, 90
10, 31398, Note_on_c, 9, 42, 0
10, 31405, Note_on_c, 9, 37, 0
10, 31405, Note_on_c, 9, 35, 0
10, 31440, Note_on_c, 9, 42, 63
10, 31440, Note_on_c, 9, 35, 100
10, 31440, Note_on_c, 9, 70, 80
10, 31458, Note_on_c, 9, 42, 0
10, 31465, Note_on_c, 9, 70, 0
10, 31465, Note_on_c, 9, 35, 0
10, 31500, Note_on_c, 9, 46, 63
10, 31519, Note_on_c, 9, 46, 0
10, 31560, Note_on_c, 9, 42, 47
10, 31560, Note_on_c, 9, 37, 90
10, 31560, Note_on_c, 9, 70, 80
10, 31578, Note_on_c, 9, 42, 0
10, 31585, Note_on_c, 9, 70, 0
10, 31585, Note_on_c, 9, 37, 0
10, 31620, Note_on_c, 9, 42, 45
10, 31620, Note_on_c, 9, 35, 70
10, 31637, Note_on_c, 9, 42, 0
10, 31645, Note_on_c, 9, 35, 0
10, 31680, Note_on_c, 9, 42, 45
10, 31680, Note_on_c, 9, 35, 100
10, 31680, Note_on_c, 9, 70, 80
10, 31699, Note_on_c, 9, 42, 0
10, 31705, Note_on_c, 9, 70, 0
10, 31705, Note_on_c, 9, 35, 0
10, 31740, Note_on_c, 9, 42, 42
10, 31759, Note_on_c, 9, 42, 0
10, 31800, Note_on_c, 9, 42, 43
10, 31800, Note_on_c, 9, 37, 90
10, 31800, Note_on_c, 9, 70, 80
10, 31820, Note_on_c, 9, 42, 0
10, 31825, Note_on_c, 9, 70, 0
10, 31825, Note_on_c, 9, 37, 0
10, 31860, Note_on_c, 9, 42, 46
10, 31860, Note_on_c, 9, 35, 70
10, 31878, Note_on_c, 9, 42, 0
10, 31885, Note_on_c, 9, 35, 0
10, 31920, Note_on_c, 9, 42, 72
10, 31920, Note_on_c, 9, 35, 100
10, 31920, Note_on_c, 9, 70, 80
10, 31940, Note_on_c, 9, 42, 0
10, 31945, Note_on_c, 9, 70, 0
10, 31945, Note_on_c, 9, 35, 0
10, 31980, Note_on_c, 9, 46, 65
10, 31980, Note_on_c, 9, 37, 90
10, 31997, Note_on_c, 9, 46, 0
10, 32005, Note_on_c, 9, 37, 0
10, 32040, Note_on_c, 9, 42, 40
10, 32040, Note_on_c, 9, 45, 70
10, 32040, Note_on_c, 9, 70, 80
10, 32058, Note_on_c, 9, 42, 0
10, 32065, Note_on_c, 9, 70, 0
10, 32065, Note_on_c, 9, 45, 0
10, 32100, Note_on_c, 9, 42, 56
10, 32100, Note_on_c, 9, 35, 70
10, 32120, Note_on_c, 9, 42, 0
10, 32125, Note_on_c, 9, 35, 0
10, 32160, Note_on_c, 9, 42, 59
10, 32160, Note_on_c, 9, 35, 100
10, 32160, Note_on_c, 9, 37, 90
10, 32160, Note_on_c, 9, 70, 80
10, 32177, Note_on_c, 9, 42, 0
10, 32185, Note_on_c, 9, 35, 0
10, 32185, Note_on_c, 9, 37, 0
10, 32185, Note_on_c, 9, 70, 0
10, 32220, Note_on_c, 9, 42, 52
10, 32238, Note_on_c, 9, 42, 0
10, 32280, Note_on_c, 9, 42, 46
10, 32280, Note_on_c, 9, 70, 80
10, 32295, Note_on_c, 9, 42, 0
10, 32305, Note_on_c, 9, 70, 0
10, 32340, Note_on_c, 9, 42, 55
10, 32340, Note_on_c, 9, 35, 70
10, 32340, Note_on_c, 9, 37, 90
10, 32356, Note_on_c, 9, 42, 0
10, 32365, Note_on_c, 9, 37, 0
10, 32365, Note_on_c, 9, 35, 0
10, 32400, Note_on_c, 9, 42, 75
10, 32400, Note_on_c, 9, 35, 100
10, 32400, Note_on_c, 9, 70, 80
10, 32417, Note_on_c, 9, 42, 0
10, 32425, Note_on_c, 9, 70, 0
10, 32425, Note_on_c, 9, 35, 0
10, 32460, Note_on_c, 9, 46, 65
10, 32476, Note_on_c, 9, 46, 0
10, 32520, Note_on_c, 9, 42, 60
10, 32520, Note_on_c, 9, 37, 90
10, 32520, Note_on_c, 9, 70, 80
10, 32537, Note_on_c, 9, 42, 0
10, 32545, Note_on_c, 9, 70, 0
10, 32545, Note_on_c, 9, 37, 0
10, 32580, Note_on_c, 9, 42, 72
10, 32580, Note_on_c, 9, 35, 70
10, 32599, Note_on_c, 9, 42, 0
10, 32605, Note_on_c, 9, 35, 0
10, 32640, Note_on_c, 9, 42, 71
10, 32640, Note_on_c, 9, 35, 100
10, 32640, Note_on_c, 9, 70, 80
10, 32653, Note_on_c, 9, 42, 0
10, 32665, Note_on_c, 9, 70, 0
10, 32665, Note_on_c, 9, 35, 0
10, 32670, Note_on_c, 9, 42, 52
10, 32677, Note_on_c, 9, 42, 0
10, 32700, Note_on_c, 9, 42, 72
10, 32716, Note_on_c, 9, 42, 0
10, 32760, Note_on_c, 9, 46, 51
10, 32760, Note_on_c, 9, 37, 90
10, 32760, Note_on_c, 9, 70, 80
10, 32774, Note_on_c, 9, 46, 0
10, 32785, Note_on_c, 9, 70, 0
10, 32785, Note_on_c, 9, 37, 0
10, 32820, Note_on_c, 9, 42, 78
10, 32820, Note_on_c, 9, 35, 70
10, 32839, Note_on_c, 9, 42, 0
10, 32845, Note_on_c, 9, 35, 0
10, 32880, Note_on_c, 9, 42, 57
10, 32880, Note_on_c, 9, 35, 100
10, 32880, Note_on_c, 9, 70, 80
10, 32895, Note_on_c, 9, 42, 0
10, 32905, Note_on_c, 9, 70, 0
10, 32905, Note_on_c, 9, 35, 0
10, 32940, Note_on_c, 9, 42, 57
10, 32940, Note_on_c, 9, 37, 90
10, 32956, Note_on_c, 9, 42, 0
10, 32965, Note_on_c, 9, 37, 0
10, 33000, Note_on_c, 9, 42, 58
10, 33000, Note_on_c, 9, 45, 70
10, 33000, Note_on_c, 9, 70, 80
10, 33016, Note_on_c, 9, 42, 0
10, 33025, Note_on_c, 9, 70, 0
10, 33025, Note_on_c, 9, 45, 0
10, 33060, Note_on_c, 9, 42, 63
10, 33060, Note_on_c, 9, 35, 70
10, 33075, Note_on_c, 9, 42, 0
10, 33085, Note_on_c, 9, 35, 0
10, 33120, Note_on_c, 9, 42, 62
10, 33120, Note_on_c, 9, 35, 100
10, 33120, Note_on_c, 9, 37, 90
10, 33120, Note_on_c, 9, 70, 80
10, 33141, Note_on_c, 9, 42, 0
10, 33145, Note_on_c, 9, 35, 0
10, 33145, Note_on_c, 9, 37, 0
10, 33145, Note_on_c, 9, 70, 0
10, 33180, Note_on_c, 9, 42, 56
10, 33198, Note_on_c, 9, 42, 0
10, 33240, Note_on_c, 9, 42, 56
10, 33240, Note_on_c, 9, 70, 80
10, 33255, Note_on_c, 9, 42, 0
10, 33265, Note_on_c, 9, 70, 0
10, 33300, Note_on_c, 9, 42, 70
10, 33300, Note_on_c, 9, 35, 70
10, 33300, Note_on_c, 9, 37, 90
10, 33320, Note_on_c, 9, 42, 0
10, 33325, Note_on_c, 9, 37, 0
10, 33325, Note_on_c, 9, 35, 0
10, 33360, Note_on_c, 9, 42, 81
10, 33360, Note_on_c, 9, 35, 100
10, 33360, Note_on_c, 9, 70, 80
10, 33378, Note_on_c, 9, 42, 0
10, 33385, Note_on_c, 9, 70, 0
10, 33385, Note_on_c, 9, 35, 0
10, 33420, Note_on_c, 9, 46, 69
10, 33437, Note_on_c, 9, 46, 0
10, 33480, Note_on_c, 9, 42, 60
10, 33480, Note_on_c, 9, 37, 90
10, 33480, Note_on_c, 9, 70, 80
10, 33498, Note_on_c, 9, 42, 0
10, 33505, Note_on_c, 9, 70, 0
10, 33505, Note_on_c, 9, 37, 0
10, 33540, Note_on_c, 9, 42, 59
10, 33540, Note_on_c, 9, 35, 70
10, 33560, Note_on_c, 9, 42, 0
10, 33565, Note_on_c, 9, 35, 0
10, 33600, Note_on_c, 9, 42, 61
10, 33600, Note_on_c, 9, 35, 100
10, 33600, Note_on_c, 9, 70, 80
10, 33618, Note_on_c, 9, 42, 0
10, 33625, Note_on_c, 9, 70, 0
10, 33625, Note_on_c, 9, 35, 0
10, 33660, Note_on_c, 9, 42, 57
10, 33679, Note_on_c, 9, 42, 0
10, 33720, Note_on_c, 9, 42, 60
10, 33720, Note_on_c, 9, 37, 90
10, 33720, Note_on_c, 9, 70, 80
10, 33736, Note_on_c, 9, 42, 0
10, 33745, Note_on_c, 9, 70, 0
10, 33745, Note_on_c, 9, 37, 0
10, 33780, Note_on_c, 9, 42, 65
10, 33780, Note_on_c, 9, 35, 70
10, 33799, Note_on_c, 9, 42, 0
10, 33805, Note_on_c, 9, 35, 0
10, 33840, Note_on_c, 9, 42, 67
10, 33840, Note_on_c, 9, 35, 100
10, 33840, Note_on_c, 9, 70, 80
10, 33858, Note_on_c, 9, 42, 0
10, 33865, Note_on_c, 9, 70, 0
10, 33865, Note_on_c, 9, 35, 0
10, 33900, Note_on_c, 9, 46, 64
10, 33900, Note_on_c, 9, 37, 90
10, 33917, Note_on_c, 9, 46, 0
10, 33925, Note_on_c, 9, 37, 0
10, 33960, Note_on_c, 9, 42, 55
10, 33960, Note_on_c, 9, 70, 80
10, 33977, Note_on_c, 9, 42, 0
10, 33985, Note_on_c, 9, 70, 0
10, 34020, Note_on_c, 9, 42, 60
10, 34020, Note_on_c, 9, 35, 70
10, 34038, Note_on_c, 9, 42, 0
10, 34045, Note_on_c, 9, 35, 0
10, 34080, Note_on_c, 9, 42, 63
10, 34080, Note_on_c, 9, 35, 100
10, 34080, Note_on_c, 9, 37, 90
10, 34080, Note_on_c, 9, 70, 80
10, 34098, Note_on_c, 9, 42, 0
10, 34105, Note_on_c, 9, 35, 0
10, 34105, Note_on_c, 9, 37, 0
10, 34105, Note_on_c, 9, 70, 0
10, 34140, Note_on_c, 9, 42, 71
10, 34153, Note_on_c, 9, 42, 0
10, 34170, Note_on_c, 9, 42, 60
10, 34178, Note_on_c, 9, 42, 0
10, 34200, Note_on_c, 9, 42, 71
10, 34200, Note_on_c, 9, 70, 80
10, 34217, Note_on_c, 9, 42, 0
10, 34225, Note_on_c, 9, 70, 0
10, 34260, Note_on_c, 9, 42, 74
10, 34260, Note_on_c, 9, 35, 70
10, 34260, Note_on_c, 9, 37, 90
10, 34279, Note_on_c, 9, 42, 0
10, 34285, Note_on_c, 9, 37, 0
10, 34285, Note_on_c, 9, 35, 0
10, 34320, Note_on_c, 9, 42, 77
10, 34320, Note_on_c, 9, 35, 100
10, 34320, Note_on_c, 9, 70, 80
10, 34335, Note_on_c, 9, 42, 0
10, 34345, Note_on_c, 9, 70, 0
10, 34345, Note_on_c, 9, 35, 0
10, 34380, Note_on_c, 9, 46, 60
10, 34398, Note_on_c, 9, 46, 0
10, 34440, Note_on_c, 9, 42, 56
10, 34440, Note_on_c, 9, 37, 90
10, 34440, Note_on_c, 9, 70, 80
10, 34459, Note_on_c, 9, 42, 0
10, 34465, Note_on_c, 9, 70, 0
10, 34465, Note_on_c, 9, 37, 0
10, 34500, Note_on_c, 9, 42, 60
10, 34500, Note_on_c, 9, 35, 70
10, 34518, Note_on_c, 9, 42, 0
10, 34525, Note_on_c, 9, 35, 0
10, 34560, Note_on_c, 9, 42, 61
10, 34560, Note_on_c, 9, 35, 100
10, 34560, Note_on_c, 9, 70, 80
10, 34580, Note_on_c, 9, 42, 0
10, 34585, Note_on_c, 9, 70, 0
10, 34585, Note_on_c, 9, 35, 0
10, 34620, Note_on_c, 9, 42, 54
10, 34638, Note_on_c, 9, 42, 0
10, 34680, Note_on_c, 9, 42, 59
10, 34680, Note_on_c, 9, 37, 90
10, 34680, Note_on_c, 9, 70, 80
10, 34697, Note_on_c, 9, 42, 0
10, 34705, Note_on_c, 9, 70, 0
10, 34705, Note_on_c, 9, 37, 0
10, 34740, Note_on_c, 9, 42, 61
10, 34740, Note_on_c, 9, 35, 70
10, 34756, Note_on_c, 9, 42, 0
10, 34765, Note_on_c, 9, 35, 0
10, 34800, Note_on_c, 9, 42, 75
10, 34800, Note_on_c, 9, 35, 100
10, 34800, Note_on_c, 9, 70, 80
10, 34823, Note_on_c, 9, 42, 0
10, 34825, Note_on_c, 9, 70, 0
10, 34825, Note_on_c, 9, 35, 0
10, 34860, Note_on_c, 9, 46, 63
10, 34860, Note_on_c, 9, 37, 90
10, 34876, Note_on_c, 9, 46, 0
10, 34885, Note_on_c, 9, 37, 0
10, 34920, Note_on_c, 9, 42, 59
10, 34920, Note_on_c, 9, 70, 80
10, 34939, Note_on_c, 9, 42, 0
10, 34945, Note_on_c, 9, 70, 0
10, 34980, Note_on_c, 9, 42, 69
10, 34980, Note_on_c, 9, 35, 70
10, 34996, Note_on_c, 9, 42, 0
10, 35005, Note_on_c, 9, 35, 0
10, 35040, Note_on_c, 9, 42, 64
10, 35040, Note_on_c, 9, 35, 100
10, 35040, Note_on_c, 9, 37, 90
10, 35040, Note_on_c, 9, 70, 80
10, 35058, Note_on_c, 9, 42, 0
10, 35065, Note_on_c, 9, 35, 0
10, 35065, Note_on_c, 9, 37, 0
10, 35065, Note_on_c, 9, 70, 0
10, 35100, Note_on_c, 9, 42, 59
10, 35119, Note_on_c, 9, 42, 0
10, 35160, Note_on_c, 9, 42, 52
10, 35160, Note_on_c, 9, 70, 80
10, 35177, Note_on_c, 9, 42, 0
10, 35185, Note_on_c, 9, 70, 0
10, 35220, Note_on_c, 9, 42, 56
10, 35220, Note_on_c, 9, 35, 70
10, 35220, Note_on_c, 9, 37, 90
10, 35238, Note_on_c, 9, 42, 0
10, 35245, Note_on_c, 9, 37, 0
10, 35245, Note_on_c, 9, 35, 0
10, 35280, Note_on_c, 9, 42, 63
10, 35280, Note_on_c, 9, 35, 100
10, 35280, Note_on_c, 9, 70, 80
10, 35298, Note_on_c, 9, 42, 0
10, 35305, Note_on_c, 9, 70, 0
10, 35305, Note_on_c, 9, 35, 0
10, 35340, Note_on_c, 9, 46, 63
10, 35359, Note_on_c, 9, 46, 0
10, 35400, Note_on_c, 9, 42, 47
10, 35400, Note_on_c, 9, 37, 90
10, 35400, Note_on_c, 9, 70, 80
10, 35418, Note_on_c, 9, 42, 0
10, 35425, Note_on_c, 9, 70, 0
10, 35425, Note_on_c, 9, 37, 0
10, 35460, Note_on_c, 9, 42, 45
10, 35460, Note_on_c, 9, 35, 70
10, 35477, Note_on_c, 9, 42, 0
10, 35485, Note_on_c, 9, 35, 0
10, 35520, Note_on_c, 9, 42, 45
10, 35520, Note_on_c, 9, 35, 100
10, 35520, Note_on_c, 9, 70, 80
10, 35539, Note_on_c, 9, 42, 0
10, 35545, Note_on_c, 9, 70, 0
10, 35545, Note_on_c, 9, 35, 0
10, 35580, Note_on_c, 9, 42, 42
10, 35599, Note_on_c, 9, 42, 0
10, 35640, Note_on_c, 9, 42, 43
10, 35640, Note_on_c, 9, 37, 90
10, 35640, Note_on_c, 9, 70, 80
10, 35660, Note_on_c, 9, 42, 0
10, 35665, Note_on_c, 9, 70, 0
10, 35665, Note_on_c, 9, 37, 0
10, 35700, Note_on_c, 9, 42, 46
10, 35700, Note_on_c, 9, 35, 70
10, 35718, Note_on_c, 9, 42, 0
10, 35725, Note_on_c, 9, 35, 0
10, 35760, Note_on_c, 9, 42, 72
10, 35760, Note_on_c, 9, 35, 100
10, 35760, Note_on_c, 9, 70, 80
10, 35780, Note_on_c, 9, 42, 0
10, 35785, Note_on_c, 9, 70, 0
10, 35785, Note_on_c, 9, 35, 0
10, 35820, Note_on_c, 9, 46, 65
10, 35820, Note_on_c, 9, 37, 90
10, 35837, Note_on_c, 9, 46, 0
10, 35845, Note_on_c, 9, 37, 0
10, 35880, Note_on_c, 9, 42, 40
10, 35880, Note_on_c, 9, 70, 80
10, 35898, Note_on_c, 9, 42, 0
10, 35905, Note_on_c, 9, 70, 0
10, 35940, Note_on_c, 9, 42, 56
10, 35940, Note_on_c, 9, 35, 70
10, 35960, Note_on_c, 9, 42, 0
10, 35965, Note_on_c, 9, 35, 0
10, 36000, Note_on_c, 9, 42, 59
10, 36000, Note_on_c, 9, 35, 100
10, 36000, Note_on_c, 9, 37, 90
10, 36000, Note_on_c, 9, 70, 80
10, 36017, Note_on_c, 9, 42, 0
10, 36025, Note_on_c, 9, 35, 0
10, 36025, Note_on_c, 9, 37, 0
10, 36025, Note_on_c, 9, 70, 0
10, 36060, Note_on_c, 9, 42, 52
10, 36078, Note_on_c, 9, 42, 0
10, 36120, Note_on_c, 9, 42, 46
10, 36120, Note_on_c, 9, 70, 80
10, 36135, Note_on_c, 9, 42, 0
10, 36145, Note_on_c, 9, 70, 0
10, 36180, Note_on_c, 9, 42, 55
10, 36180, Note_on_c, 9, 35, 70
10, 36180, Note_on_c, 9, 37, 90
10, 36196, Note_on_c, 9, 42, 0
10, 36205, Note_on_c, 9, 37, 0
10, 36205, Note_on_c, 9, 35, 0
10, 36240, Note_on_c, 9, 42, 75
10, 36240, Note_on_c, 9, 35, 100
10, 36240, Note_on_c, 9, 70, 80
10, 36257, Note_on_c, 9, 42, 0
10, 36265, Note_on_c, 9, 70, 0
10, 36265, Note_on_c, 9, 35, 0
10, 36300, Note_on_c, 9, 46, 65
10, 36316, Note_on_c, 9, 46, 0
10, 36360, Note_on_c, 9, 42, 60
10, 36360, Note_on_c, 9, 37, 90
10, 36360, Note_on_c, 9, 70, 80
10, 36377, Note_on_c, 9, 42, 0
10, 36385, Note_on_c, 9, 70, 0
10, 36385, Note_on_c, 9, 37, 0
10, 36420, Note_on_c, 9, 42, 72
10, 36420, Note_on_c, 9, 35, 70
10, 36439, Note_on_c, 9, 42, 0
10, 36445, Note_on_c, 9, 35, 0
10, 36480, Note_on_c, 9, 42, 71
10, 36480, Note_on_c, 9, 35, 100
10, 36480, Note_on_c, 9, 70, 80
10, 36493, Note_on_c, 9, 42, 0
10, 36505, Note_on_c, 9, 70, 0
10, 36505, Note_on_c, 9, 35, 0
10, 36510, Note_on_c, 9, 42, 52
10, 36517, Note_on_c, 9, 42, 0
10, 36540, Note_on_c, 9, 42, 72
10, 36556, Note_on_c, 9, 42, 0
10, 36600, Note_on_c, 9, 46, 51
10, 36600, Note_on_c, 9, 37, 90
10, 36600, Note_on_c, 9, 70, 80
10, 36614, Note_on_c, 9, 46, 0
10, 36625, Note_on_c, 9, 70, 0
10, 36625, Note_on_c, 9, 37, 0
10, 36660, Note_on_c, 9, 42, 78
10, 36660, Note_on_c, 9, 35, 70
10, 36679, Note_on_c, 9, 42, 0
10, 36685, Note_on_c, 9, 35, 0
10, 36720, Note_on_c, 9, 42, 57
10, 36720, Note_on_c, 9, 35, 100
10, 36720, Note_on_c, 9, 70, 80
10, 36735, Note_on_c, 9, 42, 0
10, 36745, Note_on_c, 9, 70, 0
10, 36745, Note_on_c, 9, 35, 0
10, 36780, Note_on_c, 9, 42, 57
10, 36780, Note_on_c, 9, 37, 90
10, 36796, Note_on_c, 9, 42, 0
10, 36805, Note_on_c, 9, 37, 0
10, 36840, Note_on_c, 9, 42, 58
10, 36840, Note_on_c, 9, 70, 80
10, 36856, Note_on_c, 9, 42, 0
10, 36865, Note_on_c, 9, 70, 0
10, 36900, Note_on_c, 9, 42, 63
10, 36900, Note_on_c, 9, 35, 70
10, 36915, Note_on_c, 9, 42, 0
10, 36925, Note_on_c, 9, 35, 0
10, 36960, Note_on_c, 9, 42, 62
10, 36960, Note_on_c, 9, 35, 100
10, 36960, Note_on_c, 9, 37, 90
10, 36960, Note_on_c, 9, 70, 80
10, 36981, Note_on_c, 9, 42, 0
10, 36985, Note_on_c, 9, 35, 0
10, 36985, Note_on_c, 9, 37, 0
10, 36985, Note_on_c, 9, 70, 0
10, 37020, Note_on_c, 9, 42, 56
10, 37038, Note_on_c, 9, 42, 0
10, 37080, Note_on_c, 9, 42, 56
10, 37080, Note_on_c, 9, 70, 80
10, 37095, Note_on_c, 9, 42, 0
10, 37105, Note_on_c, 9, 70, 0
10, 37140, Note_on_c, 9, 42, 70
10, 37140, Note_on_c, 9, 35, 70
10, 37140, Note_on_c, 9, 37, 90
10, 37160, Note_on_c, 9, 42, 0
10, 37165, Note_on_c, 9, 37, 0
10, 37165, Note_on_c, 9, 35, 0
10, 37200, Note_on_c, 9, 42, 81
10, 37200, Note_on_c, 9, 35, 100
10, 37200, Note_on_c, 9, 70, 80
10, 37218, Note_on_c, 9, 42, 0
10, 37225, Note_on_c, 9, 70, 0
10, 37225, Note_on_c, 9, 35, 0
10, 37260, Note_on_c, 9, 46, 69
10, 37277, Note_on_c, 9, 46, 0
10, 37320, Note_on_c, 9, 42, 60
10, 37320, Note_on_c, 9, 37, 90
10, 37320, Note_on_c, 9, 70, 80
10, 37338, Note_on_c, 9, 42, 0
10, 37345, Note_on_c, 9, 70, 0
10, 37345, Note_on_c, 9, 37, 0
10, 37380, Note_on_c, 9, 42, 59
10, 37380, Note_on_c, 9, 35, 70
10, 37400, Note_on_c, 9, 42, 0
10, 37405, Note_on_c, 9, 35, 0
10, 37440, Note_on_c, 9, 42, 61
10, 37440, Note_on_c, 9, 35, 100
10, 37440, Note_on_c, 9, 70, 80
10, 37458, Note_on_c, 9, 42, 0
10, 37465, Note_on_c, 9, 70, 0
10, 37465, Note_on_c, 9, 35, 0
10, 37500, Note_on_c, 9, 42, 57
10, 37519, Note_on_c, 9, 42, 0
10, 37560, Note_on_c, 9, 42, 60
10, 37560, Note_on_c, 9, 37, 90
10, 37560, Note_on_c, 9, 70, 80
10, 37576, Note_on_c, 9, 42, 0
10, 37585, Note_on_c, 9, 70, 0
10, 37585, Note_on_c, 9, 37, 0
10, 37620, Note_on_c, 9, 42, 65
10, 37620, Note_on_c, 9, 35, 70
10, 37639, Note_on_c, 9, 42, 0
10, 37645, Note_on_c, 9, 35, 0
10, 37680, Note_on_c, 9, 42, 67
10, 37680, Note_on_c, 9, 35, 100
10, 37680, Note_on_c, 9, 70, 80
10, 37698, Note_on_c, 9, 42, 0
10, 37705, Note_on_c, 9, 70, 0
10, 37705, Note_on_c, 9, 35, 0
10, 37740, Note_on_c, 9, 46, 64
10, 37740, Note_on_c, 9, 37, 90
10, 37757, Note_on_c, 9, 46, 0
10, 37765, Note_on_c, 9, 37, 0
10, 37800, Note_on_c, 9, 42, 55
10, 37800, Note_on_c, 9, 70, 80
10, 37817, Note_on_c, 9, 42, 0
10, 37825, Note_on_c, 9, 70, 0
10, 37860, Note_on_c, 9, 42, 60
10, 37860, Note_on_c, 9, 35, 70
10, 37878, Note_on_c, 9, 42, 0
10, 37885, Note_on_c, 9, 35, 0
10, 37920, Note_on_c, 9, 42, 63
10, 37920, Note_on_c, 9, 35, 100
10, 37920, Note_on_c, 9, 37, 90
10, 37920, Note_on_c, 9, 70, 80
10, 37938, Note_on_c, 9, 42, 0
10, 37945, Note_on_c, 9, 35, 0
10, 37945, Note_on_c, 9, 37, 0
10, 37945, Note_on_c, 9, 70, 0
10, 37980, Note_on_c, 9, 42, 71
10, 37993, Note_on_c, 9, 42, 0
10, 38010, Note_on_c, 9, 42, 60
10, 38018, Note_on_c, 9, 42, 0
10, 38040, Note_on_c, 9, 42, 71
10, 38040, Note_on_c, 9, 70, 80
10, 38057, Note_on_c, 9, 42, 0
10, 38065, Note_on_c, 9, 70, 0
10, 38100, Note_on_c, 9, 42, 74
10, 38100, Note_on_c, 9, 35, 70
10, 38100, Note_on_c, 9, 37, 90
10, 38119, Note_on_c, 9, 42, 0
10, 38125, Note_on_c, 9, 37, 0
10, 38125, Note_on_c, 9, 35, 0
10, 38160, Note_on_c, 9, 42, 77
10, 38160, Note_on_c, 9, 35, 100
10, 38160, Note_on_c, 9, 70, 80
10, 38175, Note_on_c, 9, 42, 0
10, 38185, Note_on_c, 9, 70, 0
10, 38185, Note_on_c, 9, 35, 0
10, 38220, Note_on_c, 9, 46, 60
10, 38238, Note_on_c, 9, 46, 0
10, 38280, Note_on_c, 9, 42, 56
10, 38280, Note_on_c, 9, 37, 90
10, 38280, Note_on_c, 9, 70, 80
10, 38299, Note_on_c, 9, 42, 0
10, 38305, Note_on_c, 9, 70, 0
10, 38305, Note_on_c, 9, 37, 0
10, 38340, Note_on_c, 9, 42, 60
10, 38340, Note_on_c, 9, 35, 70
10, 38358, Note_on_c, 9, 42, 0
10, 38365, Note_on_c, 9, 35, 0
10, 38400, Note_on_c, 9, 42, 61
10, 38400, Note_on_c, 9, 35, 100
10, 38400, Note_on_c, 9, 70, 80
10, 38420, Note_on_c, 9, 42, 0
10, 38425, Note_on_c, 9, 70, 0
10, 38425, Note_on_c, 9, 35, 0
10, 38460, Note_on_c, 9, 42, 54
10, 38478, Note_on_c, 9, 42, 0
10, 38520, Note_on_c, 9, 42, 59
10, 38520, Note_on_c, 9, 37, 90
10, 38520, Note_on_c, 9, 70, 80
10, 38537, Note_on_c, 9, 42, 0
10, 38545, Note_on_c, 9, 70, 0
10, 38545, Note_on_c, 9, 37, 0
10, 38580, Note_on_c, 9, 42, 61
10, 38580, Note_on_c, 9, 35, 70
10, 38596, Note_on_c, 9, 42, 0
10, 38605, Note_on_c, 9, 35, 0
10, 38640, Note_on_c, 9, 42, 75
10, 38640, Note_on_c, 9, 35, 100
10, 38640, Note_on_c, 9, 70, 80
10, 38663, Note_on_c, 9, 42, 0
10, 38665, Note_on_c, 9, 70, 0
10, 38665, Note_on_c, 9, 35, 0
10, 38700, Note_on_c, 9, 46, 63
10, 38700, Note_on_c, 9, 37, 90
10, 38716, Note_on_c, 9, 46, 0
10, 38725, Note_on_c, 9, 37, 0
10, 38760, Note_on_c, 9, 42, 59
10, 38760, Note_on_c, 9, 70, 80
10, 38779, Note_on_c, 9, 42, 0
10, 38785, Note_on_c, 9, 70, 0
10, 38820, Note_on_c, 9, 42, 69
10, 38820, Note_on_c, 9, 35, 70
10, 38836, Note_on_c, 9, 42, 0
10, 38845, Note_on_c, 9, 35, 0
10, 38880, Note_on_c, 9, 42, 64
10, 38880, Note_on_c, 9, 35, 100
10, 38880, Note_on_c, 9, 37, 90
10, 38880, Note_on_c, 9, 70, 80
10, 38898, Note_on_c, 9, 42, 0
10, 38905, Note_on_c, 9, 35, 0
10, 38905, Note_on_c, 9, 37, 0
10, 38905, Note_on_c, 9, 70, 0
10, 38940, Note_on_c, 9, 42, 59
10, 38959, Note_on_c, 9, 42, 0
10, 39000, Note_on_c, 9, 42, 52
10, 39000, Note_on_c, 9, 70, 80
10, 39017, Note_on_c, 9, 42, 0
10, 39025, Note_on_c, 9, 70, 0
10, 39060, Note_on_c, 9, 42, 56
10, 39060, Note_on_c, 9, 35, 70
10, 39060, Note_on_c, 9, 37, 90
10, 39078, Note_on_c, 9, 42, 0
10, 39085, Note_on_c, 9, 37, 0
10, 39085, Note_on_c, 9, 35, 0
10, 39120, Note_on_c, 9, 42, 63
10, 39120, Note_on_c, 9, 35, 100
10, 39120, Note_on_c, 9, 70, 80
10, 39138, Note_on_c, 9, 42, 0
10, 39145, Note_on_c, 9, 70, 0
10, 39145, Note_on_c, 9, 35, 0
10, 39180, Note_on_c, 9, 46, 63
10, 39199, Note_on_c, 9, 46, 0
10, 39240, Note_on_c, 9, 42, 47
10, 39240, Note_on_c, 9, 37, 90
10, 39240, Note_on_c, 9, 70, 80
10, 39258, Note_on_c, 9, 42, 0
10, 39265, Note_on_c, 9, 70, 0
10, 39265, Note_on_c, 9, 37, 0
10, 39300, Note_on_c, 9, 42, 45
10, 39300, Note_on_c, 9, 35, 70
10, 39317, Note_on_c, 9, 42, 0
10, 39325, Note_on_c, 9, 35, 0
10, 39360, Note_on_c, 9, 42, 45
10, 39360, Note_on_c, 9, 35, 100
10, 39360, Note_on_c, 9, 70, 80
10, 39379, Note_on_c, 9, 42, 0
10, 39385, Note_on_c, 9, 70, 0
10, 39385, Note_on_c, 9, 35, 0
10, 39420, Note_on_c, 9, 42, 42
10, 39439, Note_on_c, 9, 42, 0
10, 39480, Note_on_c, 9, 42, 43
10, 39480, Note_on_c, 9, 37, 90
10, 39480, Note_on_c, 9, 70, 80
10, 39500, Note_on_c, 9, 42, 0
10, 39505, Note_on_c, 9, 70, 0
10, 39505, Note_on_c, 9, 37, 0
10, 39540, Note_on_c, 9, 42, 46
10, 39540, Note_on_c, 9, 35, 70
10, 39558, Note_on_c, 9, 42, 0
10, 39565, Note_on_c, 9, 35, 0
10, 39600, Note_on_c, 9, 42, 72
10, 39600, Note_on_c, 9, 35, 100
10, 39600, Note_on_c, 9, 70, 80
10, 39620, Note_on_c, 9, 42, 0
10, 39625, Note_on_c, 9, 70, 0
10, 39625, Note_on_c, 9, 35, 0
10, 39660, Note_on_c, 9, 46, 65
10, 39660, Note_on_c, 9, 37, 90
10, 39677, Note_on_c, 9, 46, 0
10, 39685, Note_on_c, 9, 37, 0
10, 39720, Note_on_c, 9, 42, 40
10, 39720, Note_on_c, 9, 45, 70
10, 39720, Note_on_c, 9, 70, 80
10, 39738, Note_on_c, 9, 42, 0
10, 39745, Note_on_c, 9, 70, 0
10, 39745, Note_on_c, 9, 45, 0
10, 39780, Note_on_c, 9, 42, 56
10, 39780, Note_on_c, 9, 35, 70
10, 39780, Note_on_c, 9, 45, 50
10, 39800, Note_on_c, 9, 42, 0
10, 39805, Note_on_c, 9, 45, 0
10, 39805, Note_on_c, 9, 35, 0
10, 39840, Note_on_c, 9, 42, 59
10, 39840, Note_on_c, 9, 35, 100
10, 39840, Note_on_c, 9, 37, 90
10, 39840, Note_on_c, 9, 70, 80
10, 39857, Note_on_c, 9, 42, 0
10, 39865, Note_on_c, 9, 35, 0
10, 39865, Note_on_c, 9, 37, 0
10, 39865, Note_on_c, 9, 70, 0
10, 39900, Note_on_c, 9, 42, 52
10, 39918, Note_on_c, 9, 42, 0
10, 39960, Note_on_c, 9, 42, 46
10, 39960, Note_on_c, 9, 70, 80
10, 39975, Note_on_c, 9, 42, 0
10, 39985, Note_on_c, 9, 70, 0
10, 40020, Note_on_c, 9, 42, 55
10, 40020, Note_on_c, 9, 35, 70
10, 40020, Note_on_c, 9, 37, 90
10, 40036, Note_on_c, 9, 42, 0
10, 40045, Note_on_c, 9, 37, 0
10, 40045, Note_on_c, 9, 35, 0
10, 40080, Note_on_c, 9, 42, 75
10, 40080, Note_on_c, 9, 35, 100
10, 40080, Note_on_c, 9, 70, 80
10, 40097, Note_on_c, 9, 42, 0
10, 40105, Note_on_c, 9, 70, 0
10, 40105, Note_on_c, 9, 35, 0
10, 40140, Note_on_c, 9, 46, 65
10, 40156, Note_on_c, 9, 46, 0
10, 40200, Note_on_c, 9, 42, 60
10, 40200, Note_on_c, 9, 37, 90
10, 40200, Note_on_c, 9, 70, 80
10, 40217, Note_on_c, 9, 42, 0
10, 40225, Note_on_c, 9, 70, 0
10, 40225, Note_on_c, 9, 37, 0
10, 40260, Note_on_c, 9, 42, 72
10, 40260, Note_on_c, 9, 35, 70
10, 40279, Note_on_c, 9, 42, 0
10, 40285, Note_on_c, 9, 35, 0
10, 40320, Note_on_c, 9, 42, 71
10, 40320, Note_on_c, 9, 35, 100
10, 40320, Note_on_c, 9, 70, 80
10, 40333, Note_on_c, 9, 42, 0
10, 40345, Note_on_c, 9, 70, 0
10, 40345, Note_on_c, 9, 35, 0
10, 40350, Note_on_c, 9, 42, 52
10, 40357, Note_on_c, 9, 42, 0
10, 40380, Note_on_c, 9, 42, 72
10, 40396, Note_on_c, 9, 42, 0
10, 40440, Note_on_c, 9, 46, 51
10, 40440, Note_on_c, 9, 37, 90
10, 40440, Note_on_c, 9, 70, 80
10, 40454, Note_on_c, 9, 46, 0
10, 40465, Note_on_c, 9, 70, 0
10, 40465, Note_on_c, 9, 37, 0
10, 40500, Note_on_c, 9, 42, 78
10, 40500, Note_on_c, 9, 35, 70
10, 40500, Note_on_c, 9, 48, 50
10, 40519, Note_on_c, 9, 42, 0
10, 40525, Note_on_c, 9, 48, 0
10, 40525, Note_on_c, 9, 35, 0
10, 40560, Note_on_c, 9, 42, 57
10, 40560, Note_on_c, 9, 35, 100
10, 40560, Note_on_c, 9, 70, 80
10, 40575, Note_on_c, 9, 42, 0
10, 40585, Note_on_c, 9, 70, 0
10, 40585, Note_on_c, 9, 35, 0
10, 40620, Note_on_c, 9, 42, 57
10, 40620, Note_on_c, 9, 37, 90
10, 40636, Note_on_c, 9, 42, 0
10, 40645, Note_on_c, 9, 37, 0
10, 40680, Note_on_c, 9, 42, 58
10, 40680, Note_on_c, 9, 70, 80
10, 40696, Note_on_c, 9, 42, 0
10, 40705, Note_on_c, 9, 70, 0
10, 40740, Note_on_c, 9, 42, 63
10, 40740, Note_on_c, 9, 35, 70
10, 40740, Note_on_c, 9, 45, 50
10, 40755, Note_on_c, 9, 42, 0
10, 40765, Note_on_c, 9, 45, 0
10, 40765, Note_on_c, 9, 35, 0
10, 40800, Note_on_c, 9, 42, 62
10, 40800, Note_on_c, 9, 35, 100
10, 40800, Note_on_c, 9, 37, 90
10, 40800, Note_on_c, 9, 70, 80
10, 40821, Note_on_c, 9, 42, 0
10, 40825, Note_on_c, 9, 35, 0
10, 40825, Note_on_c, 9, 37, 0
10, 40825, Note_on_c, 9, 70, 0
10, 40860, Note_on_c, 9, 42, 56
10, 40878, Note_on_c, 9, 42, 0
10, 40920, Note_on_c, 9, 42, 56
10, 40920, Note_on_c, 9, 70, 80
10, 40935, Note_on_c, 9, 42, 0
10, 40945, Note_on_c, 9, 70, 0
10, 40980, Note_on_c, 9, 42, 70
10, 40980, Note_on_c, 9, 35, 70
10, 40980, Note_on_c, 9, 37, 90
10, 41000, Note_on_c, 9, 42, 0
10, 41005, Note_on_c, 9, 37, 0
10, 41005, Note_on_c, 9, 35, 0
10, 41040, Note_on_c, 9, 42, 81
10, 41040, Note_on_c, 9, 35, 100
10, 41040, Note_on_c, 9, 70, 80
10, 41058, Note_on_c, 9, 42, 0
10, 41065, Note_on_c, 9, 70, 0
10, 41065, Note_on_c, 9, 35, 0
10, 41100, Note_on_c, 9, 46, 69
10, 41117, Note_on_c, 9, 46, 0
10, 41160, Note_on_c, 9, 42, 60
10, 41160, Note_on_c, 9, 37, 90
10, 41160, Note_on_c, 9, 70, 80
10, 41178, Note_on_c, 9, 42, 0
10, 41185, Note_on_c, 9, 70, 0
10, 41185, Note_on_c, 9, 37, 0
10, 41220, Note_on_c, 9, 42, 59
10, 41220, Note_on_c, 9, 35, 70
10, 41240, Note_on_c, 9, 42, 0
10, 41245, Note_on_c, 9, 35, 0
10, 41280, Note_on_c, 9, 42, 61
10, 41280, Note_on_c, 9, 35, 70
10, 41298, Note_on_c, 9, 42, 0
10, 41305, Note_on_c, 9, 35, 0
10, 41340, Note_on_c, 9, 42, 57
10, 41340, Note_on_c, 9, 35, 100
10, 41359, Note_on_c, 9, 42, 0
10, 41365, Note_on_c, 9, 35, 0
10, 41400, Note_on_c, 9, 42, 60
10, 41400, Note_on_c, 9, 38, 90
10, 41416, Note_on_c, 9, 42, 0
10, 41425, Note_on_c, 9, 38, 0
10, 41460, Note_on_c, 9, 42, 65
10, 41479, Note_on_c, 9, 42, 0
10, 41520, Note_on_c, 9, 42, 67
10, 41538, Note_on_c, 9, 42, 0
10, 41580, Note_on_c, 9, 46, 64
10, 41580, Note_on_c, 9, 35, 100
10, 41580, Note_on_c, 9, 37, 90
10, 41597, Note_on_c, 9, 46, 0
10, 41605, Note_on_c, 9, 37, 0
10, 41605, Note_on_c, 9, 35, 0
10, 41640, Note_on_c, 9, 42, 55
10, 41657, Note_on_c, 9, 42, 0
10, 41700, Note_on_c, 9, 42, 60
10, 41718, Note_on_c, 9, 42, 0
10, 41760, Note_on_c, 9, 42, 63
10, 41760, Note_on_c, 9, 35, 70
10, 41760, Note_on_c, 9, 37, 90
10, 41778, Note_on_c, 9, 42, 0
10, 41785, Note_on_c, 9, 37, 0
10, 41785, Note_on_c, 9, 35, 0
10, 41820, Note_on_c, 9, 42, 71
10, 41820, Note_on_c, 9, 35, 100
10, 41833, Note_on_c, 9, 42, 0
10, 41845, Note_on_c, 9, 35, 0
10, 41850, Note_on_c, 9, 42, 60
10, 41858, Note_on_c, 9, 42, 0
10, 41880, Note_on_c, 9, 42, 71
10, 41897, Note_on_c, 9, 42, 0
10, 41940, Note_on_c, 9, 42, 74
10, 41940, Note_on_c, 9, 37, 90
10, 41959, Note_on_c, 9, 42, 0
10, 41965, Note_on_c, 9, 37, 0
10, 42000, Note_on_c, 9, 42, 77
10, 42000, Note_on_c, 9, 35, 70
10, 42015, Note_on_c, 9, 42, 0
10, 42025, Note_on_c, 9, 35, 0
10, 42060, Note_on_c, 9, 46, 60
10, 42060, Note_on_c, 9, 35, 100
10, 42078, Note_on_c, 9, 46, 0
10, 42085, Note_on_c, 9, 35, 0
10, 42120, Note_on_c, 9, 42, 56
10, 42139, Note_on_c, 9, 42, 0
10, 42180, Note_on_c, 9, 42, 60
10, 42180, Note_on_c, 9, 37, 90
10, 42198, Note_on_c, 9, 42, 0
10, 42205, Note_on_c, 9, 37, 0
10, 42240, Note_on_c, 9, 42, 61
10, 42240, Note_on_c, 9, 35, 70
10, 42260, Note_on_c, 9, 42, 0
10, 42265, Note_on_c, 9, 35, 0
10, 42300, Note_on_c, 9, 42, 54
10, 42300, Note_on_c, 9, 35, 100
10, 42318, Note_on_c, 9, 42, 0
10, 42325, Note_on_c, 9, 35, 0
10, 42360, Note_on_c, 9, 42, 59
10, 42360, Note_on_c, 9, 37, 90
10, 42377, Note_on_c, 9, 42, 0
10, 42385, Note_on_c, 9, 37, 0
10, 42420, Note_on_c, 9, 42, 61
10, 42436, Note_on_c, 9, 42, 0
10, 42480, Note_on_c, 9, 42, 75
10, 42480, Note_on_c, 9, 35, 70
10, 42503, Note_on_c, 9, 42, 0
10, 42505, Note_on_c, 9, 35, 0
10, 42540, Note_on_c, 9, 46, 63
10, 42540, Note_on_c, 9, 35, 100
10, 42540, Note_on_c, 9, 37, 90
10, 42556, Note_on_c, 9, 46, 0
10, 42565, Note_on_c, 9, 37, 0
10, 42565, Note_on_c, 9, 35, 0
10, 42600, Note_on_c, 9, 42, 59
10, 42619, Note_on_c, 9, 42, 0
10, 42660, Note_on_c, 9, 42, 69
10, 42676, Note_on_c, 9, 42, 0
10, 42720, Note_on_c, 9, 42, 64
10, 42720, Note_on_c, 9, 35, 70
10, 42720, Note_on_c, 9, 37, 90
10, 42738, Note_on_c, 9, 42, 0
10, 42745, Note_on_c, 9, 37, 0
10, 42745, Note_on_c, 9, 35, 0
10, 42780, Note_on_c, 9, 42, 59
10, 42780, Note_on_c, 9, 35, 100
10, 42799, Note_on_c, 9, 42, 0
10, 42805, Note_on_c, 9, 35, 0
10, 42840, Note_on_c, 9, 42, 52
10, 42857, Note_on_c, 9, 42, 0
10, 42900, Note_on_c, 9, 42, 56
10, 42900, Note_on_c, 9, 37, 90
10, 42918, Note_on_c, 9, 42, 0
10, 42925, Note_on_c, 9, 37, 0
10, 42960, Note_on_c, 9, 42, 63
10, 42960, Note_on_c, 9, 35, 70
10, 42978, Note_on_c, 9, 42, 0
10, 42985, Note_on_c, 9, 35, 0
10, 43020, Note_on_c, 9, 46, 63
10, 43020, Note_on_c, 9, 35, 100
10, 43039, Note_on_c, 9, 46, 0
10, 43045, Note_on_c, 9, 35, 0
10, 43080, Note_on_c, 9, 42, 47
10, 43098, Note_on_c, 9, 42, 0
10, 43140, Note_on_c, 9, 42, 45
10, 43140, Note_on_c, 9, 37, 90
10, 43157, Note_on_c, 9, 42, 0
10, 43165, Note_on_c, 9, 37, 0
10, 43200, Note_on_c, 9, 42, 45
10, 43200, Note_on_c, 9, 35, 70
10, 43219, Note_on_c, 9, 42, 0
10, 43225, Note_on_c, 9, 35, 0
10, 43260, Note_on_c, 9, 42, 42
10, 43260, Note_on_c, 9, 35, 100
10, 43279, Note_on_c, 9, 42, 0
10, 43285, Note_on_c, 9, 35, 0
10, 43320, Note_on_c, 9, 42, 43
10, 43320, Note_on_c, 9, 37, 90
10, 43340, Note_on_c, 9, 42, 0
10, 43345, Note_on_c, 9, 37, 0
10, 43380, Note_on_c, 9, 42, 46
10, 43398, Note_on_c, 9, 42, 0
10, 43440, Note_on_c, 9, 42, 72
10, 43440, Note_on_c, 9, 35, 70
10, 43460, Note_on_c, 9, 42, 0
10, 43465, Note_on_c, 9, 35, 0
10, 43500, Note_on_c, 9, 46, 65
10, 43500, Note_on_c, 9, 35, 100
10, 43500, Note_on_c, 9, 37, 90
10, 43517, Note_on_c, 9, 46, 0
10, 43525, Note_on_c, 9, 37, 0
10, 43525, Note_on_c, 9, 35, 0
10, 43560, Note_on_c, 9, 42, 40
10, 43578, Note_on_c, 9, 42, 0
10, 43620, Note_on_c, 9, 42, 56
10, 43640, Note_on_c, 9, 42, 0
10, 43680, Note_on_c, 9, 42, 59
10, 43680, Note_on_c, 9, 35, 70
10, 43680, Note_on_c, 9, 37, 90
10, 43697, Note_on_c, 9, 42, 0
10, 43705, Note_on_c, 9, 37, 0
10, 43705, Note_on_c, 9, 35, 0
10, 43740, Note_on_c, 9, 42, 52
10, 43740, Note_on_c, 9, 35, 100
10, 43758, Note_on_c, 9, 42, 0
10, 43765, Note_on_c, 9, 35, 0
10, 43800, Note_on_c, 9, 42, 46
10, 43815, Note_on_c, 9, 42, 0
10, 43860, Note_on_c, 9, 42, 55
10, 43860, Note_on_c, 9, 37, 90
10, 43876, Note_on_c, 9, 42, 0
10, 43885, Note_on_c, 9, 37, 0
10, 43920, Note_on_c, 9, 42, 75
10, 43920, Note_on_c, 9, 35, 70
10, 43937, Note_on_c, 9, 42, 0
10, 43945, Note_on_c, 9, 35, 0
10, 43980, Note_on_c, 9, 46, 65
10, 43980, Note_on_c, 9, 35, 100
10, 43996, Note_on_c, 9, 46, 0
10, 44005, Note_on_c, 9, 35, 0
10, 44040, Note_on_c, 9, 42, 60
10, 44057, Note_on_c, 9, 42, 0
10, 44100, Note_on_c, 9, 42, 72
10, 44100, Note_on_c, 9, 37, 90
10, 44119, Note_on_c, 9, 42, 0
10, 44125, Note_on_c, 9, 37, 0
10, 44160, Note_on_c, 9, 42, 71
10, 44160, Note_on_c, 9, 35, 70
10, 44173, Note_on_c, 9, 42, 0
10, 44185, Note_on_c, 9, 35, 0
10, 44190, Note_on_c, 9, 42, 52
10, 44197, Note_on_c, 9, 42, 0
10, 44220, Note_on_c, 9, 42, 72
10, 44220, Note_on_c, 9, 35, 100
10, 44236, Note_on_c, 9, 42, 0
10, 44245, Note_on_c, 9, 35, 0
10, 44280, Note_on_c, 9, 46, 51
10, 44280, Note_on_c, 9, 37, 90
10, 44294, Note_on_c, 9, 46, 0
10, 44305, Note_on_c, 9, 37, 0
10, 44340, Note_on_c, 9, 42, 78
10, 44359, Note_on_c, 9, 42, 0
10, 44400, Note_on_c, 9, 42, 57
10, 44400, Note_on_c, 9, 35, 70
10, 44415, Note_on_c, 9, 42, 0
10, 44425, Note_on_c, 9, 35, 0
10, 44460, Note_on_c, 9, 42, 57
10, 44460, Note_on_c, 9, 35, 100
10, 44460, Note_on_c, 9, 37, 90
10, 44476, Note_on_c, 9, 42, 0
10, 44485, Note_on_c, 9, 37, 0
10, 44485, Note_on_c, 9, 35, 0
10, 44520, Note_on_c, 9, 42, 58
10, 44536, Note_on_c, 9, 42, 0
10, 44580, Note_on_c, 9, 42, 63
10, 44595, Note_on_c, 9, 42, 0
10, 44640, Note_on_c, 9, 42, 62
10, 44640, Note_on_c, 9, 35, 70
10, 44640, Note_on_c, 9, 37, 90
10, 44661, Note_on_c, 9, 42, 0
10, 44665, Note_on_c, 9, 37, 0
10, 44665, Note_on_c, 9, 35, 0
10, 44700, Note_on_c, 9, 42, 56
10, 44700, Note_on_c, 9, 35, 100
10, 44718, Note_on_c, 9, 42, 0
10, 44725, Note_on_c, 9, 35, 0
10, 44760, Note_on_c, 9, 42, 56
10, 44775, Note_on_c, 9, 42, 0
10, 44820, Note_on_c, 9, 42, 70
10, 44820, Note_on_c, 9, 37, 90
10, 44840, Note_on_c, 9, 42, 0
10, 44845, Note_on_c, 9, 37, 0
10, 44880, Note_on_c, 9, 42, 81
10, 44880, Note_on_c, 9, 35, 70
10, 44898, Note_on_c, 9, 42, 0
10, 44905, Note_on_c, 9, 35, 0
10, 44940, Note_on_c, 9, 46, 69
10, 44940, Note_on_c, 9, 35, 100
10, 44957, Note_on_c, 9, 46, 0
10, 44965, Note_on_c, 9, 35, 0
10, 45000, Note_on_c, 9, 42, 60
10, 45018, Note_on_c, 9, 42, 0
10, 45060, Note_on_c, 9, 42, 59
10, 45060, Note_on_c, 9, 37, 90
10, 45080, Note_on_c, 9, 42, 0
10, 45085, Note_on_c, 9, 37, 0
10, 45120, Note_on_c, 9, 42, 61
10, 45120, Note_on_c, 9, 35, 70
10, 45138, Note_on_c, 9, 42, 0
10, 45145, Note_on_c, 9, 35, 0
10, 45180, Note_on_c, 9, 42, 57
10, 45180, Note_on_c, 9, 35, 100
10, 45199, Note_on_c, 9, 42, 0
10, 45205, Note_on_c, 9, 35, 0
10, 45240, Note_on_c, 9, 42, 60
10, 45240, Note_on_c, 9, 37, 90
10, 45256, Note_on_c, 9, 42, 0
10, 45265, Note_on_c, 9, 37, 0
10, 45300, Note_on_c, 9, 42, 65
10, 45319, Note_on_c, 9, 42, 0
10, 45360, Note_on_c, 9, 42, 67
10, 45360, Note_on_c, 9, 35, 70
10, 45378, Note_on_c, 9, 42, 0
10, 45385, Note_on_c, 9, 35, 0
10, 45420, Note_on_c, 9, 46, 64
10, 45420, Note_on_c, 9, 35, 100
10, 45420, Note_on_c, 9, 37, 90
10, 45437, Note_on_c, 9, 46, 0
10, 45445, Note_on_c, 9, 37, 0
10, 45445, Note_on_c, 9, 35, 0
10, 45480, Note_on_c, 9, 42, 55
10, 45497, Note_on_c, 9, 42, 0
10, 45540, Note_on_c, 9, 42, 60
10, 45558, Note_on_c, 9, 42, 0
10, 45600, Note_on_c, 9, 42, 63
10, 45600, Note_on_c, 9, 35, 70
10, 45600, Note_on_c, 9, 37, 90
10, 45618, Note_on_c, 9, 42, 0
10, 45625, Note_on_c, 9, 37, 0
10, 45625, Note_on_c, 9, 35, 0
10, 45660, Note_on_c, 9, 42, 71
10, 45660, Note_on_c, 9, 35, 100
10, 45673, Note_on_c, 9, 42, 0
10, 45685, Note_on_c, 9, 35, 0
10, 45690, Note_on_c, 9, 42, 60
10, 45698, Note_on_c, 9, 42, 0
10, 45720, Note_on_c, 9, 42, 71
10, 45737, Note_on_c, 9, 42, 0
10, 45780, Note_on_c, 9, 42, 74
10, 45780, Note_on_c, 9, 37, 90
10, 45799, Note_on_c, 9, 42, 0
10, 45805, Note_on_c, 9, 37, 0
10, 45840, Note_on_c, 9, 42, 77
10, 45840, Note_on_c, 9, 35, 70
10, 45855, Note_on_c, 9, 42, 0
10, 45865, Note_on_c, 9, 35, 0
10, 45900, Note_on_c, 9, 46, 60
10, 45918, Note_on_c, 9, 46, 0
10, 45960, Note_on_c, 9, 42, 56
10, 45979, Note_on_c, 9, 42, 0
10, 46020, Note_on_c, 9, 42, 60
10, 46038, Note_on_c, 9, 42, 0
10, 46080, Note_on_c, 9, 42, 61
10, 46080, Note_on_c, 9, 35, 100
10, 46080, Note_on_c, 9, 45, 70
10, 46080, Note_on_c, 9, 70, 80
10, 46100, Note_on_c, 9, 42, 0
10, 46105, Note_on_c, 9, 35, 0
10, 46105, Note_on_c, 9, 45, 0
10, 46105, Note_on_c, 9, 70, 0
10, 46140, Note_on_c, 9, 42, 54
10, 46140, Note_on_c, 9, 45, 50
10, 46158, Note_on_c, 9, 42, 0
10, 46165, Note_on_c, 9, 45, 0
10, 46200, Note_on_c, 9, 42, 59
10, 46200, Note_on_c, 9, 48, 100
10, 46200, Note_on_c, 9, 70, 80
10, 46217, Note_on_c, 9, 42, 0
10, 46225, Note_on_c, 9, 70, 0
10, 46225, Note_on_c, 9, 48, 0
10, 46260, Note_on_c, 9, 42, 61
10, 46260, Note_on_c, 9, 35, 70
10, 46260, Note_on_c, 9, 45, 60
10, 46276, Note_on_c, 9, 42, 0
10, 46285, Note_on_c, 9, 45, 0
10, 46285, Note_on_c, 9, 35, 0
10, 46320, Note_on_c, 9, 42, 75
10, 46320, Note_on_c, 9, 35, 100
10, 46320, Note_on_c, 9, 45, 70
10, 46320, Note_on_c, 9, 70, 80
10, 46343, Note_on_c, 9, 42, 0
10, 46345, Note_on_c, 9, 35, 0
10, 46345, Note_on_c, 9, 45, 0
10, 46345, Note_on_c, 9, 70, 0
10, 46380, Note_on_c, 9, 46, 63
10, 46380, Note_on_c, 9, 38, 90
10, 46380, Note_on_c, 9, 45, 80
10, 46396, Note_on_c, 9, 46, 0
10, 46405, Note_on_c, 9, 45, 0
10, 46405, Note_on_c, 9, 38, 0
10, 46440, Note_on_c, 9, 42, 59
10, 46440, Note_on_c, 9, 41, 90
10, 46440, Note_on_c, 9, 70, 80
10, 46459, Note_on_c, 9, 42, 0
10, 46465, Note_on_c, 9, 70, 0
10, 46465, Note_on_c, 9, 41, 0
10, 46500, Note_on_c, 9, 42, 69
10, 46500, Note_on_c, 9, 41, 115
10, 46516, Note_on_c, 9, 42, 0
10, 46525, Note_on_c, 9, 41, 0
10, 46560, Note_on_c, 9, 42, 64
10, 46560, Note_on_c, 9, 35, 100
10, 46560, Note_on_c, 9, 37, 90
10, 46560, Note_on_c, 9, 49, 50
10, 46560, Note_on_c, 9, 70, 80
10, 46560, Control_c, 9, 93, 0
10, 46560, Control_c, 9, 91, 40
10, 46560, Control_c, 9, 121, 0
10, 46560, Control_c, 9, 123, 0
10, 46578, Note_on_c, 9, 42, 0
10, 46585, Note_on_c, 9, 49, 0
10, 46585, Note_on_c, 9, 35, 0
10, 46585, Note_on_c, 9, 37, 0
10, 46585, Note_on_c, 9, 70, 0
10, 46620, Note_on_c, 9, 42, 59
10, 46639, Note_on_c, 9, 42, 0
10, 46680, Note_on_c, 9, 42, 52
10, 46680, Note_on_c, 9, 70, 80
10, 46697, Note_on_c, 9, 42, 0
10, 46705, Note_on_c, 9, 70, 0
10, 46740, Note_on_c, 9, 42, 56
10, 46740, Note_on_c, 9, 35, 70
10, 46740, Note_on_c, 9, 37, 90
10, 46758, Note_on_c, 9, 42, 0
10, 46765, Note_on_c, 9, 37, 0
10, 46765, Note_on_c, 9, 35, 0
10, 46800, Note_on_c, 9, 42, 63
10, 46800, Note_on_c, 9, 35, 100
10, 46800, Note_on_c, 9, 70, 80
10, 46818, Note_on_c, 9, 42, 0
10, 46825, Note_on_c, 9, 70, 0
10, 46825, Note_on_c, 9, 35, 0
10, 46860, Note_on_c, 9, 46, 63
10, 46879, Note_on_c, 9, 46, 0
10, 46920, Note_on_c, 9, 42, 47
10, 46920, Note_on_c, 9, 37, 90
10, 46920, Note_on_c, 9, 70, 80
10, 46938, Note_on_c, 9, 42, 0
10, 46945, Note_on_c, 9, 70, 0
10, 46945, Note_on_c, 9, 37, 0
10, 46980, Note_on_c, 9, 42, 45
10, 46980, Note_on_c, 9, 35, 70
10, 46997, Note_on_c, 9, 42, 0
10, 47005, Note_on_c, 9, 35, 0
10, 47040, Note_on_c, 9, 42, 45
10, 47040, Note_on_c, 9, 35, 100
10, 47040, Note_on_c, 9, 70, 80
10, 47059, Note_on_c, 9, 42, 0
10, 47065, Note_on_c, 9, 70, 0
10, 47065, Note_on_c, 9, 35, 0
10, 47100, Note_on_c, 9, 42, 42
10, 47119, Note_on_c, 9, 42, 0
10, 47160, Note_on_c, 9, 42, 43
10, 47160, Note_on_c, 9, 37, 90
10, 47160, Note_on_c, 9, 70, 80
10, 47180, Note_on_c, 9, 42, 0
10, 47185, Note_on_c, 9, 70, 0
10, 47185, Note_on_c, 9, 37, 0
10, 47220, Note_on_c, 9, 42, 46
10, 47220, Note_on_c, 9, 35, 70
10, 47238, Note_on_c, 9, 42, 0
10, 47245, Note_on_c, 9, 35, 0
10, 47280, Note_on_c, 9, 42, 72
10, 47280, Note_on_c, 9, 35, 100
10, 47280, Note_on_c, 9, 70, 80
10, 47300, Note_on_c, 9, 42, 0
10, 47305, Note_on_c, 9, 70, 0
10, 47305, Note_on_c, 9, 35, 0
10, 47340, Note_on_c, 9, 46, 65
10, 47340, Note_on_c, 9, 37, 90
10, 47357, Note_on_c, 9, 46, 0
10, 47365, Note_on_c, 9, 37, 0
10, 47400, Note_on_c, 9, 42, 40
10, 47400, Note_on_c, 9, 70, 80
10, 47418, Note_on_c, 9, 42, 0
10, 47425, Note_on_c, 9, 70, 0
10, 47460, Note_on_c, 9, 42, 56
10, 47460, Note_on_c, 9, 35, 70
10, 47480, Note_on_c, 9, 42, 0
10, 47485, Note_on_c, 9, 35, 0
10, 47520, Note_on_c, 9, 42, 59
10, 47520, Note_on_c, 9, 35, 100
10, 47520, Note_on_c, 9, 37, 90
10, 47520, Note_on_c, 9, 70, 80
10, 47537, Note_on_c, 9, 42, 0
10, 47545, Note_on_c, 9, 35, 0
10, 47545, Note_on_c, 9, 37, 0
10, 47545, Note_on_c, 9, 70, 0
10, 47580, Note_on_c, 9, 42, 52
10, 47598, Note_on_c, 9, 42, 0
10, 47640, Note_on_c, 9, 42, 46
10, 47640, Note_on_c, 9, 70, 80
10, 47655, Note_on_c, 9, 42, 0
10, 47665, Note_on_c, 9, 70, 0
10, 47700, Note_on_c, 9, 42, 55
10, 47700, Note_on_c, 9, 35, 70
10, 47700, Note_on_c, 9, 37, 90
10, 47716, Note_on_c, 9, 42, 0
10, 47725, Note_on_c, 9, 37, 0
10, 47725, Note_on_c, 9, 35, 0
10, 47760, Note_on_c, 9, 42, 75
10, 47760, Note_on_c, 9, 35, 100
10, 47760, Note_on_c, 9, 70, 80
10, 47777, Note_on_c, 9, 42, 0
10, 47785, Note_on_c, 9, 70, 0
10, 47785, Note_on_c, 9, 35, 0
10, 47820, Note_on_c, 9, 46, 65
10, 47836, Note_on_c, 9, 46, 0
10, 47880, Note_on_c, 9, 42, 60
10, 47880, Note_on_c, 9, 37, 90
10, 47880, Note_on_c, 9, 70, 80
10, 47897, Note_on_c, 9, 42, 0
10, 47905, Note_on_c, 9, 70, 0
10, 47905, Note_on_c, 9, 37, 0
10, 47940, Note_on_c, 9, 42, 72
10, 47940, Note_on_c, 9, 35, 70
10, 47959, Note_on_c, 9, 42, 0
10, 47965, Note_on_c, 9, 35, 0
10, 48000, Note_on_c, 9, 42, 71
10, 48000, Note_on_c, 9, 35, 100
10, 48000, Note_on_c, 9, 70, 80
10, 48013, Note_on_c, 9, 42, 0
10, 48025, Note_on_c, 9, 70, 0
10, 48025, Note_on_c, 9, 35, 0
10, 48030, Note_on_c, 9, 42, 52
10, 48037, Note_on_c, 9, 42, 0
10, 48060, Note_on_c, 9, 42, 72
10, 48076, Note_on_c, 9, 42, 0
10, 48120, Note_on_c, 9, 46, 51
10, 48120, Note_on_c, 9, 37, 90
10, 48120, Note_on_c, 9, 70, 80
10, 48134, Note_on_c, 9, 46, 0
10, 48145, Note_on_c, 9, 70, 0
10, 48145, Note_on_c, 9, 37, 0
10, 48180, Note_on_c, 9, 42, 78
10, 48180, Note_on_c, 9, 35, 70
10, 48199, Note_on_c, 9, 42, 0
10, 48205, Note_on_c, 9, 35, 0
10, 48240, Note_on_c, 9, 42, 57
10, 48240, Note_on_c, 9, 35, 100
10, 48240, Note_on_c, 9, 70, 80
10, 48255, Note_on_c, 9, 42, 0
10, 48265, Note_on_c, 9, 70, 0
10, 48265, Note_on_c, 9, 35, 0
10, 48300, Note_on_c, 9, 42, 57
10, 48300, Note_on_c, 9, 37, 90
10, 48316, Note_on_c, 9, 42, 0
10, 48325, Note_on_c, 9, 37, 0
10, 48360, Note_on_c, 9, 42, 58
10, 48360, Note_on_c, 9, 70, 80
10, 48376, Note_on_c, 9, 42, 0
10, 48385, Note_on_c, 9, 70, 0
10, 48420, Note_on_c, 9, 42, 63
10, 48420, Note_on_c, 9, 35, 70
10, 48435, Note_on_c, 9, 42, 0
10, 48445, Note_on_c, 9, 35, 0
10, 48480, Note_on_c, 9, 42, 62
10, 48480, Note_on_c, 9, 35, 100
10, 48480, Note_on_c, 9, 37, 90
10, 48480, Note_on_c, 9, 70, 80
10, 48501, Note_on_c, 9, 42, 0
10, 48505, Note_on_c, 9, 35, 0
10, 48505, Note_on_c, 9, 37, 0
10, 48505, Note_on_c, 9, 70, 0
10, 48540, Note_on_c, 9, 42, 56
10, 48558, Note_on_c, 9, 42, 0
10, 48600, Note_on_c, 9, 42, 56
10, 48600, Note_on_c, 9, 70, 80
10, 48615, Note_on_c, 9, 42, 0
10, 48625, Note_on_c, 9, 70, 0
10, 48660, Note_on_c, 9, 42, 70
10, 48660, Note_on_c, 9, 35, 70
10, 48660, Note_on_c, 9, 37, 90
10, 48680, Note_on_c, 9, 42, 0
10, 48685, Note_on_c, 9, 37, 0
10, 48685, Note_on_c, 9, 35, 0
10, 48720, Note_on_c, 9, 42, 81
10, 48720, Note_on_c, 9, 35, 100
10, 48720, Note_on_c, 9, 70, 80
10, 48738, Note_on_c, 9, 42, 0
10, 48745, Note_on_c, 9, 70, 0
10, 48745, Note_on_c, 9, 35, 0
10, 48780, Note_on_c, 9, 46, 69
10, 48797, Note_on_c, 9, 46, 0
10, 48840, Note_on_c, 9, 42, 60
10, 48840, Note_on_c, 9, 37, 90
10, 48840, Note_on_c, 9, 70, 80
10, 48858, Note_on_c, 9, 42, 0
10, 48865, Note_on_c, 9, 70, 0
10, 48865, Note_on_c, 9, 37, 0
10, 48900, Note_on_c, 9, 42, 59
10, 48900, Note_on_c, 9, 35, 70
10, 48920, Note_on_c, 9, 42, 0
10, 48925, Note_on_c, 9, 35, 0
10, 48960, Note_on_c, 9, 42, 61
10, 48960, Note_on_c, 9, 35, 100
10, 48960, Note_on_c, 9, 70, 80
10, 48978, Note_on_c, 9, 42, 0
10, 48985, Note_on_c, 9, 70, 0
10, 48985, Note_on_c, 9, 35, 0
10, 49020, Note_on_c, 9, 42, 57
10, 49039, Note_on_c, 9, 42, 0
10, 49080, Note_on_c, 9, 42, 60
10, 49080, Note_on_c, 9, 37, 90
10, 49080, Note_on_c, 9, 70, 80
10, 49096, Note_on_c, 9, 42, 0
10, 49105, Note_on_c, 9, 70, 0
10, 49105, Note_on_c, 9, 37, 0
10, 49140, Note_on_c, 9, 42, 65
10, 49140, Note_on_c, 9, 35, 70
10, 49159, Note_on_c, 9, 42, 0
10, 49165, Note_on_c, 9, 35, 0
10, 49200, Note_on_c, 9, 42, 67
10, 49200, Note_on_c, 9, 35, 100
10, 49200, Note_on_c, 9, 70, 80
10, 49218, Note_on_c, 9, 42, 0
10, 49225, Note_on_c, 9, 70, 0
10, 49225, Note_on_c, 9, 35, 0
10, 49260, Note_on_c, 9, 46, 64
10, 49260, Note_on_c, 9, 37, 90
10, 49277, Note_on_c, 9, 46, 0
10, 49285, Note_on_c, 9, 37, 0
10, 49320, Note_on_c, 9, 42, 55
10, 49320, Note_on_c, 9, 70, 80
10, 49337, Note_on_c, 9, 42, 0
10, 49345, Note_on_c, 9, 70, 0
10, 49380, Note_on_c, 9, 42, 60
10, 49380, Note_on_c, 9, 35, 70
10, 49398, Note_on_c, 9, 42, 0
10, 49405, Note_on_c, 9, 35, 0
10, 49440, Note_on_c, 9, 42, 63
10, 49440, Note_on_c, 9, 35, 100
10, 49440, Note_on_c, 9, 37, 90
10, 49440, Note_on_c, 9, 70, 80
10, 49458, Note_on_c, 9, 42, 0
10, 49465, Note_on_c, 9, 35, 0
10, 49465, Note_on_c, 9, 37, 0
10, 49465, Note_on_c, 9, 70, 0
10, 49500, Note_on_c, 9, 42, 71
10, 49513, Note_on_c, 9, 42, 0
10, 49530, Note_on_c, 9, 42, 60
10, 49538, Note_on_c, 9, 42, 0
10, 49560, Note_on_c, 9, 42, 71
10, 49560, Note_on_c, 9, 70, 80
10, 49577, Note_on_c, 9, 42, 0
10, 49585, Note_on_c, 9, 70, 0
10, 49620, Note_on_c, 9, 42, 74
10, 49620, Note_on_c, 9, 35, 70
10, 49620, Note_on_c, 9, 37, 90
10, 49639, Note_on_c, 9, 42, 0
10, 49645, Note_on_c, 9, 37, 0
10, 49645, Note_on_c, 9, 35, 0
10, 49680, Note_on_c, 9, 42, 77
10, 49680, Note_on_c, 9, 35, 100
10, 49680, Note_on_c, 9, 70, 80
10, 49695, Note_on_c, 9, 42, 0
10, 49705, Note_on_c, 9, 70, 0
10, 49705, Note_on_c, 9, 35, 0
10, 49740, Note_on_c, 9, 46, 60
10, 49758, Note_on_c, 9, 46, 0
10, 49800, Note_on_c, 9, 42, 56
10, 49800, Note_on_c, 9, 37, 90
10, 49800, Note_on_c, 9, 70, 80
10, 49819, Note_on_c, 9, 42, 0
10, 49825, Note_on_c, 9, 70, 0
10, 49825, Note_on_c, 9, 37, 0
10, 49860, Note_on_c, 9, 42, 60
10, 49860, Note_on_c, 9, 35, 70
10, 49878, Note_on_c, 9, 42, 0
10, 49885, Note_on_c, 9, 35, 0
10, 49920, Note_on_c, 9, 42, 61
10, 49920, Note_on_c, 9, 35, 100
10, 49920, Note_on_c, 9, 70, 80
10, 49940, Note_on_c, 9, 42, 0
10, 49945, Note_on_c, 9, 70, 0
10, 49945, Note_on_c, 9, 35, 0
10, 49980, Note_on_c, 9, 42, 54
10, 49998, Note_on_c, 9, 42, 0
10, 50040, Note_on_c, 9, 42, 59
10, 50040, Note_on_c, 9, 37, 90
10, 50040, Note_on_c, 9, 70, 80
10, 50057, Note_on_c, 9, 42, 0
10, 50065, Note_on_c, 9, 70, 0
10, 50065, Note_on_c, 9, 37, 0
10, 50100, Note_on_c, 9, 42, 61
10, 50100, Note_on_c, 9, 35, 70
10, 50116, Note_on_c, 9, 42, 0
10, 50125, Note_on_c, 9, 35, 0
10, 50160, Note_on_c, 9, 42, 75
10, 50160, Note_on_c, 9, 35, 100
10, 50160, Note_on_c, 9, 70, 80
10, 50183, Note_on_c, 9, 42, 0
10, 50185, Note_on_c, 9, 70, 0
10, 50185, Note_on_c, 9, 35, 0
10, 50220, Note_on_c, 9, 46, 63
10, 50220, Note_on_c, 9, 37, 90
10, 50236, Note_on_c, 9, 46, 0
10, 50245, Note_on_c, 9, 37, 0
10, 50280, Note_on_c, 9, 42, 59
10, 50280, Note_on_c, 9, 70, 80
10, 50299, Note_on_c, 9, 42, 0
10, 50305, Note_on_c, 9, 70, 0
10, 50340, Note_on_c, 9, 42, 69
10, 50340, Note_on_c, 9, 35, 70
10, 50356, Note_on_c, 9, 42, 0
10, 50365, Note_on_c, 9, 35, 0
10, 50400, Note_on_c, 9, 42, 64
10, 50400, Note_on_c, 9, 35, 100
10, 50400, Note_on_c, 9, 37, 90
10, 50400, Note_on_c, 9, 70, 80
10, 50418, Note_on_c, 9, 42, 0
10, 50425, Note_on_c, 9, 35, 0
10, 50425, Note_on_c, 9, 37, 0
10, 50425, Note_on_c, 9, 70, 0
10, 50460, Note_on_c, 9, 42, 59
10, 50479, Note_on_c, 9, 42, 0
10, 50520, Note_on_c, 9, 42, 52
10, 50520, Note_on_c, 9, 70, 80
10, 50537, Note_on_c, 9, 42, 0
10, 50545, Note_on_c, 9, 70, 0
10, 50580, Note_on_c, 9, 42, 56
10, 50580, Note_on_c, 9, 35, 70
10, 50580, Note_on_c, 9, 37, 90
10, 50598, Note_on_c, 9, 42, 0
10, 50605, Note_on_c, 9, 37, 0
10, 50605, Note_on_c, 9, 35, 0
10, 50640, Note_on_c, 9, 42, 63
10, 50640, Note_on_c, 9, 35, 100
10, 50640, Note_on_c, 9, 70, 80
10, 50658, Note_on_c, 9, 42, 0
10, 50665, Note_on_c, 9, 70, 0
10, 50665, Note_on_c, 9, 35, 0
10, 50700, Note_on_c, 9, 46, 63
10, 50719, Note_on_c, 9, 46, 0
10, 50760, Note_on_c, 9, 42, 47
10, 50760, Note_on_c, 9, 37, 90
10, 50760, Note_on_c, 9, 70, 80
10, 50778, Note_on_c, 9, 42, 0
10, 50785, Note_on_c, 9, 70, 0
10, 50785, Note_on_c, 9, 37, 0
10, 50820, Note_on_c, 9, 42, 45
10, 50820, Note_on_c, 9, 35, 70
10, 50837, Note_on_c, 9, 42, 0
10, 50845, Note_on_c, 9, 35, 0
10, 50880, Note_on_c, 9, 42, 45
10, 50880, Note_on_c, 9, 35, 100
10, 50880, Note_on_c, 9, 70, 80
10, 50899, Note_on_c, 9, 42, 0
10, 50905, Note_on_c, 9, 70, 0
10, 50905, Note_on_c, 9, 35, 0
10, 50940, Note_on_c, 9, 42, 42
10, 50959, Note_on_c, 9, 42, 0
10, 51000, Note_on_c, 9, 42, 43
10, 51000, Note_on_c, 9, 37, 90
10, 51000, Note_on_c, 9, 70, 80
10, 51020, Note_on_c, 9, 42, 0
10, 51025, Note_on_c, 9, 70, 0
10, 51025, Note_on_c, 9, 37, 0
10, 51060, Note_on_c, 9, 42, 46
10, 51060, Note_on_c, 9, 35, 70
10, 51078, Note_on_c, 9, 42, 0
10, 51085, Note_on_c, 9, 35, 0
10, 51120, Note_on_c, 9, 42, 72
10, 51120, Note_on_c, 9, 35, 100
10, 51120, Note_on_c, 9, 70, 80
10, 51140, Note_on_c, 9, 42, 0
10, 51145, Note_on_c, 9, 70, 0
10, 51145, Note_on_c, 9, 35, 0
10, 51180, Note_on_c, 9, 46, 65
10, 51180, Note_on_c, 9, 37, 90
10, 51197, Note_on_c, 9, 46, 0
10, 51205, Note_on_c, 9, 37, 0
10, 51240, Note_on_c, 9, 42, 40
10, 51240, Note_on_c, 9, 70, 80
10, 51258, Note_on_c, 9, 42, 0
10, 51265, Note_on_c, 9, 70, 0
10, 51300, Note_on_c, 9, 42, 56
10, 51300, Note_on_c, 9, 35, 70
10, 51320, Note_on_c, 9, 42, 0
10, 51325, Note_on_c, 9, 35, 0
10, 51360, Note_on_c, 9, 42, 59
10, 51360, Note_on_c, 9, 35, 100
10, 51360, Note_on_c, 9, 37, 90
10, 51360, Note_on_c, 9, 70, 80
10, 51377, Note_on_c, 9, 42, 0
10, 51385, Note_on_c, 9, 35, 0
10, 51385, Note_on_c, 9, 37, 0
10, 51385, Note_on_c, 9, 70, 0
10, 51420, Note_on_c, 9, 42, 52
10, 51438, Note_on_c, 9, 42, 0
10, 51480, Note_on_c, 9, 42, 46
10, 51480, Note_on_c, 9, 70, 80
10, 51495, Note_on_c, 9, 42, 0
10, 51505, Note_on_c, 9, 70, 0
10, 51540, Note_on_c, 9, 42, 55
10, 51540, Note_on_c, 9, 35, 70
10, 51540, Note_on_c, 9, 37, 90
10, 51556, Note_on_c, 9, 42, 0
10, 51565, Note_on_c, 9, 37, 0
10, 51565, Note_on_c, 9, 35, 0
10, 51600, Note_on_c, 9, 42, 75
10, 51600, Note_on_c, 9, 35, 100
10, 51600, Note_on_c, 9, 70, 80
10, 51617, Note_on_c, 9, 42, 0
10, 51625, Note_on_c, 9, 70, 0
10, 51625, Note_on_c, 9, 35, 0
10, 51660, Note_on_c, 9, 46, 65
10, 51676, Note_on_c, 9, 46, 0
10, 51720, Note_on_c, 9, 42, 60
10, 51720, Note_on_c, 9, 37, 90
10, 51720, Note_on_c, 9, 70, 80
10, 51737, Note_on_c, 9, 42, 0
10, 51745, Note_on_c, 9, 70, 0
10, 51745, Note_on_c, 9, 37, 0
10, 51780, Note_on_c, 9, 42, 72
10, 51780, Note_on_c, 9, 35, 70
10, 51799, Note_on_c, 9, 42, 0
10, 51805, Note_on_c, 9, 35, 0
10, 51840, Note_on_c, 9, 42, 71
10, 51840, Note_on_c, 9, 35, 100
10, 51840, Note_on_c, 9, 70, 80
10, 51853, Note_on_c, 9, 42, 0
10, 51865, Note_on_c, 9, 70, 0
10, 51865, Note_on_c, 9, 35, 0
10, 51870, Note_on_c, 9, 42, 52
10, 51877, Note_on_c, 9, 42, 0
10, 51900, Note_on_c, 9, 42, 72
10, 51916, Note_on_c, 9, 42, 0
10, 51960, Note_on_c, 9, 46, 51
10, 51960, Note_on_c, 9, 37, 90
10, 51960, Note_on_c, 9, 70, 80
10, 51974, Note_on_c, 9, 46, 0
10, 51985, Note_on_c, 9, 70, 0
10, 51985, Note_on_c, 9, 37, 0
10, 52020, Note_on_c, 9, 42, 78
10, 52020, Note_on_c, 9, 35, 70
10, 52020, Note_on_c, 9, 48, 50
10, 52039, Note_on_c, 9, 42, 0
10, 52045, Note_on_c, 9, 48, 0
10, 52045, Note_on_c, 9, 35, 0
10, 52080, Note_on_c, 9, 42, 57
10, 52080, Note_on_c, 9, 35, 100
10, 52080, Note_on_c, 9, 70, 80
10, 52095, Note_on_c, 9, 42, 0
10, 52105, Note_on_c, 9, 70, 0
10, 52105, Note_on_c, 9, 35, 0
10, 52140, Note_on_c, 9, 42, 57
10, 52140, Note_on_c, 9, 37, 90
10, 52156, Note_on_c, 9, 42, 0
10, 52165, Note_on_c, 9, 37, 0
10, 52200, Note_on_c, 9, 42, 58
10, 52200, Note_on_c, 9, 70, 80
10, 52216, Note_on_c, 9, 42, 0
10, 52225, Note_on_c, 9, 70, 0
10, 52260, Note_on_c, 9, 42, 63
10, 52260, Note_on_c, 9, 35, 70
10, 52260, Note_on_c, 9, 45, 50
10, 52275, Note_on_c, 9, 42, 0
10, 52285, Note_on_c, 9, 45, 0
10, 52285, Note_on_c, 9, 35, 0
10, 52320, Note_on_c, 9, 42, 62
10, 52320, Note_on_c, 9, 35, 100
10, 52320, Note_on_c, 9, 37, 90
10, 52320, Note_on_c, 9, 70, 80
10, 52341, Note_on_c, 9, 42, 0
10, 52345, Note_on_c, 9, 35, 0
10, 52345, Note_on_c, 9, 37, 0
10, 52345, Note_on_c, 9, 70, 0
10, 52380, Note_on_c, 9, 42, 56
10, 52398, Note_on_c, 9, 42, 0
10, 52440, Note_on_c, 9, 42, 56
10, 52440, Note_on_c, 9, 70, 80
10, 52455, Note_on_c, 9, 42, 0
10, 52465, Note_on_c, 9, 70, 0
10, 52500, Note_on_c, 9, 42, 70
10, 52500, Note_on_c, 9, 35, 70
10, 52500, Note_on_c, 9, 37, 90
10, 52520, Note_on_c, 9, 42, 0
10, 52525, Note_on_c, 9, 37, 0
10, 52525, Note_on_c, 9, 35, 0
10, 52560, Note_on_c, 9, 42, 81
10, 52560, Note_on_c, 9, 35, 100
10, 52560, Note_on_c, 9, 70, 80
10, 52578, Note_on_c, 9, 42, 0
10, 52585, Note_on_c, 9, 70, 0
10, 52585, Note_on_c, 9, 35, 0
10, 52620, Note_on_c, 9, 46, 69
10, 52637, Note_on_c, 9, 46, 0
10, 52680, Note_on_c, 9, 42, 60
10, 52680, Note_on_c, 9, 37, 90
10, 52680, Note_on_c, 9, 70, 80
10, 52698, Note_on_c, 9, 42, 0
10, 52705, Note_on_c, 9, 70, 0
10, 52705, Note_on_c, 9, 37, 0
10, 52740, Note_on_c, 9, 42, 59
10, 52740, Note_on_c, 9, 35, 70
10, 52760, Note_on_c, 9, 42, 0
10, 52765, Note_on_c, 9, 35, 0
10, 52800, Note_on_c, 9, 42, 61
10, 52800, Note_on_c, 9, 35, 100
10, 52800, Note_on_c, 9, 70, 80
10, 52818, Note_on_c, 9, 42, 0
10, 52825, Note_on_c, 9, 70, 0
10, 52825, Note_on_c, 9, 35, 0
10, 52860, Note_on_c, 9, 42, 57
10, 52879, Note_on_c, 9, 42, 0
10, 52920, Note_on_c, 9, 42, 60
10, 52920, Note_on_c, 9, 37, 90
10, 52920, Note_on_c, 9, 70, 80
10, 52936, Note_on_c, 9, 42, 0
10, 52945, Note_on_c, 9, 70, 0
10, 52945, Note_on_c, 9, 37, 0
10, 52980, Note_on_c, 9, 42, 65
10, 52980, Note_on_c, 9, 35, 70
10, 52999, Note_on_c, 9, 42, 0
10, 53005, Note_on_c, 9, 35, 0
10, 53040, Note_on_c, 9, 42, 67
10, 53040, Note_on_c, 9, 35, 100
10, 53040, Note_on_c, 9, 70, 80
10, 53058, Note_on_c, 9, 42, 0
10, 53065, Note_on_c, 9, 70, 0
10, 53065, Note_on_c, 9, 35, 0
10, 53100, Note_on_c, 9, 46, 64
10, 53100, Note_on_c, 9, 37, 90
10, 53117, Note_on_c, 9, 46, 0
10, 53125, Note_on_c, 9, 37, 0
10, 53160, Note_on_c, 9, 42, 55
10, 53160, Note_on_c, 9, 70, 80
10, 53177, Note_on_c, 9, 42, 0
10, 53185, Note_on_c, 9, 70, 0
10, 53220, Note_on_c, 9, 42, 60
10, 53220, Note_on_c, 9, 35, 70
10, 53238, Note_on_c, 9, 42, 0
10, 53245, Note_on_c, 9, 35, 0
10, 53280, Note_on_c, 9, 42, 63
10, 53280, Note_on_c, 9, 35, 100
10, 53280, Note_on_c, 9, 37, 90
10, 53280, Note_on_c, 9, 70, 80
10, 53298, Note_on_c, 9, 42, 0
10, 53305, Note_on_c, 9, 35, 0
10, 53305, Note_on_c, 9, 37, 0
10, 53305, Note_on_c, 9, 70, 0
10, 53340, Note_on_c, 9, 42, 71
10, 53353, Note_on_c, 9, 42, 0
10, 53370, Note_on_c, 9, 42, 60
10, 53378, Note_on_c, 9, 42, 0
10, 53400, Note_on_c, 9, 42, 71
10, 53400, Note_on_c, 9, 70, 80
10, 53417, Note_on_c, 9, 42, 0
10, 53425, Note_on_c, 9, 70, 0
10, 53460, Note_on_c, 9, 42, 74
10, 53460, Note_on_c, 9, 35, 70
10, 53460, Note_on_c, 9, 37, 90
10, 53479, Note_on_c, 9, 42, 0
10, 53485, Note_on_c, 9, 37, 0
10, 53485, Note_on_c, 9, 35, 0
10, 53520, Note_on_c, 9, 42, 77
10, 53520, Note_on_c, 9, 35, 100
10, 53520, Note_on_c, 9, 70, 80
10, 53535, Note_on_c, 9, 42, 0
10, 53545, Note_on_c, 9, 70, 0
10, 53545, Note_on_c, 9, 35, 0
10, 53580, Note_on_c, 9, 46, 60
10, 53598, Note_on_c, 9, 46, 0
10, 53640, Note_on_c, 9, 42, 56
10, 53640, Note_on_c, 9, 37, 90
10, 53640, Note_on_c, 9, 70, 80
10, 53659, Note_on_c, 9, 42, 0
10, 53665, Note_on_c, 9, 70, 0
10, 53665, Note_on_c, 9, 37, 0
10, 53700, Note_on_c, 9, 42, 60
10, 53700, Note_on_c, 9, 35, 70
10, 53718, Note_on_c, 9, 42, 0
10, 53725, Note_on_c, 9, 35, 0
10, 53760, Note_on_c, 9, 42, 61
10, 53760, Note_on_c, 9, 35, 100
10, 53760, Note_on_c, 9, 70, 80
10, 53780, Note_on_c, 9, 42, 0
10, 53785, Note_on_c, 9, 70, 0
10, 53785, Note_on_c, 9, 35, 0
10, 53820, Note_on_c, 9, 42, 54
10, 53838, Note_on_c, 9, 42, 0
10, 53880, Note_on_c, 9, 42, 59
10, 53880, Note_on_c, 9, 37, 90
10, 53880, Note_on_c, 9, 70, 80
10, 53897, Note_on_c, 9, 42, 0
10, 53905, Note_on_c, 9, 70, 0
10, 53905, Note_on_c, 9, 37, 0
10, 53940, Note_on_c, 9, 42, 61
10, 53940, Note_on_c, 9, 35, 70
10, 53956, Note_on_c, 9, 42, 0
10, 53965, Note_on_c, 9, 35, 0
10, 54000, Note_on_c, 9, 42, 75
10, 54000, Note_on_c, 9, 35, 100
10, 54000, Note_on_c, 9, 70, 80
10, 54023, Note_on_c, 9, 42, 0
10, 54025, Note_on_c, 9, 70, 0
10, 54025, Note_on_c, 9, 35, 0
10, 54060, Note_on_c, 9, 46, 63
10, 54060, Note_on_c, 9, 37, 90
10, 54076, Note_on_c, 9, 46, 0
10, 54085, Note_on_c, 9, 37, 0
10, 54120, Note_on_c, 9, 42, 59
10, 54120, Note_on_c, 9, 70, 80
10, 54139, Note_on_c, 9, 42, 0
10, 54145, Note_on_c, 9, 70, 0
10, 54180, Note_on_c, 9, 42, 69
10, 54180, Note_on_c, 9, 35, 70
10, 54196, Note_on_c, 9, 42, 0
10, 54205, Note_on_c, 9, 35, 0
10, 54240, Note_on_c, 9, 42, 64
10, 54240, Note_on_c, 9, 35, 100
10, 54240, Note_on_c, 9, 37, 90
10, 54240, Note_on_c, 9, 70, 80
10, 54258, Note_on_c, 9, 42, 0
10, 54265, Note_on_c, 9, 35, 0
10, 54265, Note_on_c, 9, 37, 0
10, 54265, Note_on_c, 9, 70, 0
10, 54300, Note_on_c, 9, 42, 59
10, 54319, Note_on_c, 9, 42, 0
10, 54360, Note_on_c, 9, 42, 52
10, 54360, Note_on_c, 9, 70, 80
10, 54377, Note_on_c, 9, 42, 0
10, 54385, Note_on_c, 9, 70, 0
10, 54420, Note_on_c, 9, 42, 56
10, 54420, Note_on_c, 9, 35, 70
10, 54420, Note_on_c, 9, 37, 90
10, 54438, Note_on_c, 9, 42, 0
10, 54445, Note_on_c, 9, 37, 0
10, 54445, Note_on_c, 9, 35, 0
10, 54480, Note_on_c, 9, 42, 63
10, 54480, Note_on_c, 9, 35, 100
10, 54480, Note_on_c, 9, 70, 80
10, 54498, Note_on_c, 9, 42, 0
10, 54505, Note_on_c, 9, 70, 0
10, 54505, Note_on_c, 9, 35, 0
10, 54540, Note_on_c, 9, 46, 63
10, 54559, Note_on_c, 9, 46, 0
10, 54600, Note_on_c, 9, 42, 47
10, 54600, Note_on_c, 9, 37, 90
10, 54600, Note_on_c, 9, 70, 80
10, 54618, Note_on_c, 9, 42, 0
10, 54625, Note_on_c, 9, 70, 0
10, 54625, Note_on_c, 9, 37, 0
10, 54660, Note_on_c, 9, 42, 45
10, 54660, Note_on_c, 9, 35, 70
10, 54677, Note_on_c, 9, 42, 0
10, 54685, Note_on_c, 9, 35, 0
10, 54720, Note_on_c, 9, 42, 45
10, 54720, Note_on_c, 9, 35, 100
10, 54720, Note_on_c, 9, 70, 80
10, 54739, Note_on_c, 9, 42, 0
10, 54745, Note_on_c, 9, 70, 0
10, 54745, Note_on_c, 9, 35, 0
10, 54780, Note_on_c, 9, 42, 42
10, 54799, Note_on_c, 9, 42, 0
10, 54840, Note_on_c, 9, 42, 43
10, 54840, Note_on_c, 9, 37, 90
10, 54840, Note_on_c, 9, 70, 80
10, 54860, Note_on_c, 9, 42, 0
10, 54865, Note_on_c, 9, 70, 0
10, 54865, Note_on_c, 9, 37, 0
10, 54900, Note_on_c, 9, 42, 46
10, 54900, Note_on_c, 9, 35, 70
10, 54918, Note_on_c, 9, 42, 0
10, 54925, Note_on_c, 9, 35, 0
10, 54960, Note_on_c, 9, 42, 72
10, 54960, Note_on_c, 9, 35, 100
10, 54960, Note_on_c, 9, 70, 80
10, 54980, Note_on_c, 9, 42, 0
10, 54985, Note_on_c, 9, 70, 0
10, 54985, Note_on_c, 9, 35, 0
10, 55020, Note_on_c, 9, 46, 65
10, 55020, Note_on_c, 9, 37, 90
10, 55037, Note_on_c, 9, 46, 0
10, 55045, Note_on_c, 9, 37, 0
10, 55080, Note_on_c, 9, 42, 40
10, 55080, Note_on_c, 9, 70, 80
10, 55098, Note_on_c, 9, 42, 0
10, 55105, Note_on_c, 9, 70, 0
10, 55140, Note_on_c, 9, 42, 56
10, 55140, Note_on_c, 9, 35, 70
10, 55160, Note_on_c, 9, 42, 0
10, 55165, Note_on_c, 9, 35, 0
10, 55200, Note_on_c, 9, 42, 59
10, 55200, Note_on_c, 9, 35, 100
10, 55200, Note_on_c, 9, 37, 90
10, 55200, Note_on_c, 9, 70, 80
10, 55217, Note_on_c, 9, 42, 0
10, 55225, Note_on_c, 9, 35, 0
10, 55225, Note_on_c, 9, 37, 0
10, 55225, Note_on_c, 9, 70, 0
10, 55260, Note_on_c, 9, 42, 52
10, 55278, Note_on_c, 9, 42, 0
10, 55320, Note_on_c, 9, 42, 46
10, 55320, Note_on_c, 9, 70, 80
10, 55335, Note_on_c, 9, 42, 0
10, 55345, Note_on_c, 9, 70, 0
10, 55380, Note_on_c, 9, 42, 55
10, 55380, Note_on_c, 9, 35, 70
10, 55380, Note_on_c, 9, 37, 90
10, 55396, Note_on_c, 9, 42, 0
10, 55405, Note_on_c, 9, 37, 0
10, 55405, Note_on_c, 9, 35, 0
10, 55440, Note_on_c, 9, 42, 75
10, 55440, Note_on_c, 9, 35, 100
10, 55440, Note_on_c, 9, 70, 80
10, 55457, Note_on_c, 9, 42, 0
10, 55465, Note_on_c, 9, 70, 0
10, 55465, Note_on_c, 9, 35, 0
10, 55500, Note_on_c, 9, 46, 65
10, 55516, Note_on_c, 9, 46, 0
10, 55560, Note_on_c, 9, 42, 60
10, 55560, Note_on_c, 9, 37, 90
10, 55560, Note_on_c, 9, 70, 80
10, 55577, Note_on_c, 9, 42, 0
10, 55585, Note_on_c, 9, 70, 0
10, 55585, Note_on_c, 9, 37, 0
10, 55620, Note_on_c, 9, 42, 72
10, 55620, Note_on_c, 9, 35, 70
10, 55639, Note_on_c, 9, 42, 0
10, 55645, Note_on_c, 9, 35, 0
10, 55680, Note_on_c, 9, 42, 71
10, 55680, Note_on_c, 9, 35, 100
10, 55680, Note_on_c, 9, 70, 80
10, 55693, Note_on_c, 9, 42, 0
10, 55705, Note_on_c, 9, 70, 0
10, 55705, Note_on_c, 9, 35, 0
10, 55710, Note_on_c, 9, 42, 52
10, 55717, Note_on_c, 9, 42, 0
10, 55740, Note_on_c, 9, 42, 72
10, 55756, Note_on_c, 9, 42, 0
10, 55800, Note_on_c, 9, 46, 51
10, 55800, Note_on_c, 9, 37, 90
10, 55800, Note_on_c, 9, 70, 80
10, 55814, Note_on_c, 9, 46, 0
10, 55825, Note_on_c, 9, 70, 0
10, 55825, Note_on_c, 9, 37, 0
10, 55860, Note_on_c, 9, 42, 78
10, 55860, Note_on_c, 9, 35, 70
10, 55860, Note_on_c, 9, 48, 50
10, 55879, Note_on_c, 9, 42, 0
10, 55885, Note_on_c, 9, 48, 0
10, 55885, Note_on_c, 9, 35, 0
10, 55920, Note_on_c, 9, 42, 57
10, 55920, Note_on_c, 9, 35, 100
10, 55920, Note_on_c, 9, 70, 80
10, 55935, Note_on_c, 9, 42, 0
10, 55945, Note_on_c, 9, 70, 0
10, 55945, Note_on_c, 9, 35, 0
10, 55980, Note_on_c, 9, 42, 57
10, 55980, Note_on_c, 9, 37, 90
10, 55996, Note_on_c, 9, 42, 0
10, 56005, Note_on_c, 9, 37, 0
10, 56040, Note_on_c, 9, 42, 58
10, 56040, Note_on_c, 9, 45, 70
10, 56040, Note_on_c, 9, 70, 80
10, 56056, Note_on_c, 9, 42, 0
10, 56065, Note_on_c, 9, 70, 0
10, 56065, Note_on_c, 9, 45, 0
10, 56100, Note_on_c, 9, 42, 63
10, 56100, Note_on_c, 9, 35, 70
10, 56115, Note_on_c, 9, 42, 0
10, 56125, Note_on_c, 9, 35, 0
10, 56160, Note_on_c, 9, 42, 62
10, 56160, Note_on_c, 9, 35, 100
10, 56160, Note_on_c, 9, 37, 90
10, 56160, Note_on_c, 9, 70, 80
10, 56181, Note_on_c, 9, 42, 0
10, 56185, Note_on_c, 9, 35, 0
10, 56185, Note_on_c, 9, 37, 0
10, 56185, Note_on_c, 9, 70, 0
10, 56220, Note_on_c, 9, 42, 56
10, 56238, Note_on_c, 9, 42, 0
10, 56280, Note_on_c, 9, 42, 56
10, 56280, Note_on_c, 9, 70, 80
10, 56295, Note_on_c, 9, 42, 0
10, 56305, Note_on_c, 9, 70, 0
10, 56340, Note_on_c, 9, 42, 70
10, 56340, Note_on_c, 9, 35, 70
10, 56340, Note_on_c, 9, 37, 90
10, 56360, Note_on_c, 9, 42, 0
10, 56365, Note_on_c, 9, 37, 0
10, 56365, Note_on_c, 9, 35, 0
10, 56400, Note_on_c, 9, 42, 81
10, 56400, Note_on_c, 9, 35, 100
10, 56400, Note_on_c, 9, 70, 80
10, 56418, Note_on_c, 9, 42, 0
10, 56425, Note_on_c, 9, 70, 0
10, 56425, Note_on_c, 9, 35, 0
10, 56460, Note_on_c, 9, 46, 69
10, 56477, Note_on_c, 9, 46, 0
10, 56520, Note_on_c, 9, 42, 60
10, 56520, Note_on_c, 9, 37, 90
10, 56520, Note_on_c, 9, 70, 80
10, 56538, Note_on_c, 9, 42, 0
10, 56545, Note_on_c, 9, 70, 0
10, 56545, Note_on_c, 9, 37, 0
10, 56580, Note_on_c, 9, 42, 59
10, 56580, Note_on_c, 9, 35, 70
10, 56600, Note_on_c, 9, 42, 0
10, 56605, Note_on_c, 9, 35, 0
10, 56640, Note_on_c, 9, 42, 61
10, 56640, Note_on_c, 9, 35, 100
10, 56640, Note_on_c, 9, 37, 90
10, 56640, Note_on_c, 9, 49, 50
10, 56640, Note_on_c, 9, 70, 80
10, 56640, Control_c, 9, 93, 0
10, 56640, Control_c, 9, 91, 40
10, 56640, Control_c, 9, 121, 0
10, 56640, Control_c, 9, 123, 0
10, 56658, Note_on_c, 9, 42, 0
10, 56665, Note_on_c, 9, 49, 0
10, 56665, Note_on_c, 9, 35, 0
10, 56665, Note_on_c, 9, 37, 0
10, 56665, Note_on_c, 9, 70, 0
10, 56700, Note_on_c, 9, 42, 57
10, 56719, Note_on_c, 9, 42, 0
10, 56760, Note_on_c, 9, 42, 60
10, 56760, Note_on_c, 9, 70, 80
10, 56776, Note_on_c, 9, 42, 0
10, 56785, Note_on_c, 9, 70, 0
10, 56820, Note_on_c, 9, 42, 65
10, 56820, Note_on_c, 9, 35, 70
10, 56820, Note_on_c, 9, 37, 90
10, 56839, Note_on_c, 9, 42, 0
10, 56845, Note_on_c, 9, 37, 0
10, 56845, Note_on_c, 9, 35, 0
10, 56880, Note_on_c, 9, 42, 67
10, 56880, Note_on_c, 9, 35, 100
10, 56880, Note_on_c, 9, 70, 80
10, 56898, Note_on_c, 9, 42, 0
10, 56905, Note_on_c, 9, 70, 0
10, 56905, Note_on_c, 9, 35, 0
10, 56940, Note_on_c, 9, 46, 64
10, 56957, Note_on_c, 9, 46, 0
10, 57000, Note_on_c, 9, 42, 55
10, 57000, Note_on_c, 9, 37, 90
10, 57000, Note_on_c, 9, 70, 80
10, 57017, Note_on_c, 9, 42, 0
10, 57025, Note_on_c, 9, 70, 0
10, 57025, Note_on_c, 9, 37, 0
10, 57060, Note_on_c, 9, 42, 60
10, 57060, Note_on_c, 9, 35, 70
10, 57078, Note_on_c, 9, 42, 0
10, 57085, Note_on_c, 9, 35, 0
10, 57120, Note_on_c, 9, 42, 63
10, 57120, Note_on_c, 9, 35, 100
10, 57120, Note_on_c, 9, 70, 80
10, 57138, Note_on_c, 9, 42, 0
10, 57145, Note_on_c, 9, 70, 0
10, 57145, Note_on_c, 9, 35, 0
10, 57180, Note_on_c, 9, 42, 71
10, 57193, Note_on_c, 9, 42, 0
10, 57210, Note_on_c, 9, 42, 60
10, 57218, Note_on_c, 9, 42, 0
10, 57240, Note_on_c, 9, 42, 71
10, 57240, Note_on_c, 9, 37, 90
10, 57240, Note_on_c, 9, 70, 80
10, 57257, Note_on_c, 9, 42, 0
10, 57265, Note_on_c, 9, 70, 0
10, 57265, Note_on_c, 9, 37, 0
10, 57300, Note_on_c, 9, 42, 74
10, 57300, Note_on_c, 9, 35, 70
10, 57319, Note_on_c, 9, 42, 0
10, 57325, Note_on_c, 9, 35, 0
10, 57360, Note_on_c, 9, 42, 77
10, 57360, Note_on_c, 9, 35, 100
10, 57360, Note_on_c, 9, 70, 80
10, 57375, Note_on_c, 9, 42, 0
10, 57385, Note_on_c, 9, 70, 0
10, 57385, Note_on_c, 9, 35, 0
10, 57420, Note_on_c, 9, 46, 60
10, 57420, Note_on_c, 9, 37, 90
10, 57438, Note_on_c, 9, 46, 0
10, 57445, Note_on_c, 9, 37, 0
10, 57480, Note_on_c, 9, 42, 56
10, 57480, Note_on_c, 9, 70, 80
10, 57499, Note_on_c, 9, 42, 0
10, 57505, Note_on_c, 9, 70, 0
10, 57540, Note_on_c, 9, 42, 60
10, 57540, Note_on_c, 9, 35, 70
10, 57558, Note_on_c, 9, 42, 0
10, 57565, Note_on_c, 9, 35, 0
10, 57600, Note_on_c, 9, 42, 61
10, 57600, Note_on_c, 9, 35, 100
10, 57600, Note_on_c, 9, 37, 90
10, 57600, Note_on_c, 9, 70, 80
10, 57620, Note_on_c, 9, 42, 0
10, 57625, Note_on_c, 9, 35, 0
10, 57625, Note_on_c, 9, 37, 0
10, 57625, Note_on_c, 9, 70, 0
10, 57660, Note_on_c, 9, 42, 54
10, 57678, Note_on_c, 9, 42, 0
10, 57720, Note_on_c, 9, 42, 59
10, 57720, Note_on_c, 9, 70, 80
10, 57737, Note_on_c, 9, 42, 0
10, 57745, Note_on_c, 9, 70, 0
10, 57780, Note_on_c, 9, 42, 61
10, 57780, Note_on_c, 9, 35, 70
10, 57780, Note_on_c, 9, 37, 90
10, 57796, Note_on_c, 9, 42, 0
10, 57805, Note_on_c, 9, 37, 0
10, 57805, Note_on_c, 9, 35, 0
10, 57840, Note_on_c, 9, 42, 75
10, 57840, Note_on_c, 9, 35, 100
10, 57840, Note_on_c, 9, 70, 80
10, 57863, Note_on_c, 9, 42, 0
10, 57865, Note_on_c, 9, 70, 0
10, 57865, Note_on_c, 9, 35, 0
10, 57900, Note_on_c, 9, 46, 63
10, 57916, Note_on_c, 9, 46, 0
10, 57960, Note_on_c, 9, 42, 59
10, 57960, Note_on_c, 9, 37, 90
10, 57960, Note_on_c, 9, 70, 80
10, 57979, Note_on_c, 9, 42, 0
10, 57985, Note_on_c, 9, 70, 0
10, 57985, Note_on_c, 9, 37, 0
10, 58020, Note_on_c, 9, 42, 69
10, 58020, Note_on_c, 9, 35, 70
10, 58036, Note_on_c, 9, 42, 0
10, 58045, Note_on_c, 9, 35, 0
10, 58080, Note_on_c, 9, 42, 64
10, 58080, Note_on_c, 9, 35, 100
10, 58080, Note_on_c, 9, 70, 80
10, 58098, Note_on_c, 9, 42, 0
10, 58105, Note_on_c, 9, 70, 0
10, 58105, Note_on_c, 9, 35, 0
10, 58140, Note_on_c, 9, 42, 59
10, 58159, Note_on_c, 9, 42, 0
10, 58200, Note_on_c, 9, 42, 52
10, 58200, Note_on_c, 9, 37, 90
10, 58200, Note_on_c, 9, 70, 80
10, 58217, Note_on_c, 9, 42, 0
10, 58225, Note_on_c, 9, 70, 0
10, 58225, Note_on_c, 9, 37, 0
10, 58260, Note_on_c, 9, 42, 56
10, 58260, Note_on_c, 9, 35, 70
10, 58278, Note_on_c, 9, 42, 0
10, 58285, Note_on_c, 9, 35, 0
10, 58320, Note_on_c, 9, 42, 63
10, 58320, Note_on_c, 9, 35, 100
10, 58320, Note_on_c, 9, 70, 80
10, 58338, Note_on_c, 9, 42, 0
10, 58345, Note_on_c, 9, 70, 0
10, 58345, Note_on_c, 9, 35, 0
10, 58380, Note_on_c, 9, 46, 63
10, 58380, Note_on_c, 9, 37, 90
10, 58399, Note_on_c, 9, 46, 0
10, 58405, Note_on_c, 9, 37, 0
10, 58440, Note_on_c, 9, 42, 47
10, 58440, Note_on_c, 9, 70, 80
10, 58458, Note_on_c, 9, 42, 0
10, 58465, Note_on_c, 9, 70, 0
10, 58500, Note_on_c, 9, 42, 45
10, 58500, Note_on_c, 9, 35, 70
10, 58517, Note_on_c, 9, 42, 0
10, 58525, Note_on_c, 9, 35, 0
10, 58560, Note_on_c, 9, 42, 45
10, 58560, Note_on_c, 9, 35, 100
10, 58560, Note_on_c, 9, 37, 90
10, 58560, Note_on_c, 9, 70, 80
10, 58579, Note_on_c, 9, 42, 0
10, 58585, Note_on_c, 9, 35, 0
10, 58585, Note_on_c, 9, 37, 0
10, 58585, Note_on_c, 9, 70, 0
10, 58620, Note_on_c, 9, 42, 42
10, 58639, Note_on_c, 9, 42, 0
10, 58680, Note_on_c, 9, 42, 43
10, 58680, Note_on_c, 9, 70, 80
10, 58700, Note_on_c, 9, 42, 0
10, 58705, Note_on_c, 9, 70, 0
10, 58740, Note_on_c, 9, 42, 46
10, 58740, Note_on_c, 9, 35, 70
10, 58740, Note_on_c, 9, 37, 90
10, 58758, Note_on_c, 9, 42, 0
10, 58765, Note_on_c, 9, 37, 0
10, 58765, Note_on_c, 9, 35, 0
10, 58800, Note_on_c, 9, 42, 72
10, 58800, Note_on_c, 9, 35, 100
10, 58800, Note_on_c, 9, 70, 80
10, 58820, Note_on_c, 9, 42, 0
10, 58825, Note_on_c, 9, 70, 0
10, 58825, Note_on_c, 9, 35, 0
10, 58860, Note_on_c, 9, 46, 65
10, 58877, Note_on_c, 9, 46, 0
10, 58920, Note_on_c, 9, 42, 40
10, 58920, Note_on_c, 9, 37, 90
10, 58920, Note_on_c, 9, 70, 80
10, 58938, Note_on_c, 9, 42, 0
10, 58945, Note_on_c, 9, 70, 0
10, 58945, Note_on_c, 9, 37, 0
10, 58980, Note_on_c, 9, 42, 56
10, 58980, Note_on_c, 9, 35, 70
10, 59000, Note_on_c, 9, 42, 0
10, 59005, Note_on_c, 9, 35, 0
10, 59040, Note_on_c, 9, 42, 59
10, 59040, Note_on_c, 9, 35, 100
10, 59040, Note_on_c, 9, 70, 80
10, 59057, Note_on_c, 9, 42, 0
10, 59065, Note_on_c, 9, 70, 0
10, 59065, Note_on_c, 9, 35, 0
10, 59100, Note_on_c, 9, 42, 52
10, 59118, Note_on_c, 9, 42, 0
10, 59160, Note_on_c, 9, 42, 46
10, 59160, Note_on_c, 9, 37, 90
10, 59160, Note_on_c, 9, 70, 80
10, 59175, Note_on_c, 9, 42, 0
10, 59185, Note_on_c, 9, 70, 0
10, 59185, Note_on_c, 9, 37, 0
10, 59220, Note_on_c, 9, 42, 55
10, 59220, Note_on_c, 9, 35, 70
10, 59236, Note_on_c, 9, 42, 0
10, 59245, Note_on_c, 9, 35, 0
10, 59280, Note_on_c, 9, 42, 75
10, 59280, Note_on_c, 9, 35, 100
10, 59280, Note_on_c, 9, 70, 80
10, 59297, Note_on_c, 9, 42, 0
10, 59305, Note_on_c, 9, 70, 0
10, 59305, Note_on_c, 9, 35, 0
10, 59340, Note_on_c, 9, 46, 65
10, 59340, Note_on_c, 9, 37, 90
10, 59356, Note_on_c, 9, 46, 0
10, 59365, Note_on_c, 9, 37, 0
10, 59400, Note_on_c, 9, 42, 60
10, 59400, Note_on_c, 9, 70, 80
10, 59417, Note_on_c, 9, 42, 0
10, 59425, Note_on_c, 9, 70, 0
10, 59460, Note_on_c, 9, 42, 72
10, 59460, Note_on_c, 9, 35, 70
10, 59479, Note_on_c, 9, 42, 0
10, 59485, Note_on_c, 9, 35, 0
10, 59520, Note_on_c, 9, 42, 71
10, 59520, Note_on_c, 9, 35, 100
10, 59520, Note_on_c, 9, 37, 90
10, 59520, Note_on_c, 9, 70, 80
10, 59533, Note_on_c, 9, 42, 0
10, 59545, Note_on_c, 9, 35, 0
10, 59545, Note_on_c, 9, 37, 0
10, 59545, Note_on_c, 9, 70, 0
10, 59550, Note_on_c, 9, 42, 52
10, 59557, Note_on_c, 9, 42, 0
10, 59580, Note_on_c, 9, 42, 72
10, 59596, Note_on_c, 9, 42, 0
10, 59640, Note_on_c, 9, 46, 51
10, 59640, Note_on_c, 9, 70, 80
10, 59654, Note_on_c, 9, 46, 0
10, 59665, Note_on_c, 9, 70, 0
10, 59700, Note_on_c, 9, 42, 78
10, 59700, Note_on_c, 9, 35, 70
10, 59700, Note_on_c, 9, 37, 90
10, 59719, Note_on_c, 9, 42, 0
10, 59725, Note_on_c, 9, 37, 0
10, 59725, Note_on_c, 9, 35, 0
10, 59760, Note_on_c, 9, 42, 57
10, 59760, Note_on_c, 9, 35, 100
10, 59760, Note_on_c, 9, 70, 80
10, 59775, Note_on_c, 9, 42, 0
10, 59785, Note_on_c, 9, 70, 0
10, 59785, Note_on_c, 9, 35, 0
10, 59820, Note_on_c, 9, 42, 57
10, 59836, Note_on_c, 9, 42, 0
10, 59880, Note_on_c, 9, 42, 58
10, 59880, Note_on_c, 9, 37, 90
10, 59880, Note_on_c, 9, 70, 80
10, 59896, Note_on_c, 9, 42, 0
10, 59905, Note_on_c, 9, 70, 0
10, 59905, Note_on_c, 9, 37, 0
10, 59940, Note_on_c, 9, 42, 63
10, 59940, Note_on_c, 9, 35, 70
10, 59955, Note_on_c, 9, 42, 0
10, 59965, Note_on_c, 9, 35, 0
10, 60000, Note_on_c, 9, 42, 62
10, 60000, Note_on_c, 9, 35, 100
10, 60000, Note_on_c, 9, 70, 80
10, 60021, Note_on_c, 9, 42, 0
10, 60025, Note_on_c, 9, 70, 0
10, 60025, Note_on_c, 9, 35, 0
10, 60060, Note_on_c, 9, 42, 56
10, 60078, Note_on_c, 9, 42, 0
10, 60120, Note_on_c, 9, 42, 56
10, 60120, Note_on_c, 9, 37, 90
10, 60120, Note_on_c, 9, 70, 80
10, 60135, Note_on_c, 9, 42, 0
10, 60145, Note_on_c, 9, 70, 0
10, 60145, Note_on_c, 9, 37, 0
10, 60180, Note_on_c, 9, 42, 70
10, 60180, Note_on_c, 9, 35, 70
10, 60200, Note_on_c, 9, 42, 0
10, 60205, Note_on_c, 9, 35, 0
10, 60240, Note_on_c, 9, 42, 81
10, 60240, Note_on_c, 9, 35, 100
10, 60240, Note_on_c, 9, 70, 80
10, 60258, Note_on_c, 9, 42, 0
10, 60265, Note_on_c, 9, 70, 0
10, 60265, Note_on_c, 9, 35, 0
10, 60300, Note_on_c, 9, 46, 69
10, 60300, Note_on_c, 9, 37, 90
10, 60317, Note_on_c, 9, 46, 0
10, 60325, Note_on_c, 9, 37, 0
10, 60360, Note_on_c, 9, 42, 60
10, 60360, Note_on_c, 9, 70, 80
10, 60378, Note_on_c, 9, 42, 0
10, 60385, Note_on_c, 9, 70, 0
10, 60420, Note_on_c, 9, 42, 59
10, 60420, Note_on_c, 9, 35, 70
10, 60440, Note_on_c, 9, 42, 0
10, 60445, Note_on_c, 9, 35, 0
10, 60480, Note_on_c, 9, 42, 61
10, 60480, Note_on_c, 9, 35, 100
10, 60480, Note_on_c, 9, 37, 90
10, 60480, Note_on_c, 9, 70, 80
10, 60498, Note_on_c, 9, 42, 0
10, 60505, Note_on_c, 9, 35, 0
10, 60505, Note_on_c, 9, 37, 0
10, 60505, Note_on_c, 9, 70, 0
10, 60540, Note_on_c, 9, 42, 57
10, 60559, Note_on_c, 9, 42, 0
10, 60600, Note_on_c, 9, 42, 60
10, 60600, Note_on_c, 9, 70, 80
10, 60616, Note_on_c, 9, 42, 0
10, 60625, Note_on_c, 9, 70, 0
10, 60660, Note_on_c, 9, 42, 65
10, 60660, Note_on_c, 9, 35, 70
10, 60660, Note_on_c, 9, 37, 90
10, 60679, Note_on_c, 9, 42, 0
10, 60685, Note_on_c, 9, 37, 0
10, 60685, Note_on_c, 9, 35, 0
10, 60720, Note_on_c, 9, 42, 67
10, 60720, Note_on_c, 9, 35, 100
10, 60720, Note_on_c, 9, 70, 80
10, 60738, Note_on_c, 9, 42, 0
10, 60745, Note_on_c, 9, 70, 0
10, 60745, Note_on_c, 9, 35, 0
10, 60780, Note_on_c, 9, 46, 64
10, 60797, Note_on_c, 9, 46, 0
10, 60840, Note_on_c, 9, 42, 55
10, 60840, Note_on_c, 9, 37, 90
10, 60840, Note_on_c, 9, 70, 80
10, 60857, Note_on_c, 9, 42, 0
10, 60865, Note_on_c, 9, 70, 0
10, 60865, Note_on_c, 9, 37, 0
10, 60900, Note_on_c, 9, 42, 60
10, 60900, Note_on_c, 9, 35, 70
10, 60918, Note_on_c, 9, 42, 0
10, 60925, Note_on_c, 9, 35, 0
10, 60960, Note_on_c, 9, 42, 63
10, 60960, Note_on_c, 9, 35, 100
10, 60960, Note_on_c, 9, 70, 80
10, 60978, Note_on_c, 9, 42, 0
10, 60985, Note_on_c, 9, 70, 0
10, 60985, Note_on_c, 9, 35, 0
10, 61020, Note_on_c, 9, 42, 71
10, 61033, Note_on_c, 9, 42, 0
10, 61050, Note_on_c, 9, 42, 60
10, 61058, Note_on_c, 9, 42, 0
10, 61080, Note_on_c, 9, 42, 71
10, 61080, Note_on_c, 9, 37, 90
10, 61080, Note_on_c, 9, 70, 80
10, 61097, Note_on_c, 9, 42, 0
10, 61105, Note_on_c, 9, 70, 0
10, 61105, Note_on_c, 9, 37, 0
10, 61140, Note_on_c, 9, 42, 74
10, 61140, Note_on_c, 9, 35, 70
10, 61159, Note_on_c, 9, 42, 0
10, 61165, Note_on_c, 9, 35, 0
10, 61200, Note_on_c, 9, 42, 77
10, 61200, Note_on_c, 9, 35, 100
10, 61200, Note_on_c, 9, 70, 80
10, 61215, Note_on_c, 9, 42, 0
10, 61225, Note_on_c, 9, 70, 0
10, 61225, Note_on_c, 9, 35, 0
10, 61260, Note_on_c, 9, 46, 60
10, 61260, Note_on_c, 9, 37, 90
10, 61278, Note_on_c, 9, 46, 0
10, 61285, Note_on_c, 9, 37, 0
10, 61320, Note_on_c, 9, 42, 56
10, 61320, Note_on_c, 9, 70, 80
10, 61339, Note_on_c, 9, 42, 0
10, 61345, Note_on_c, 9, 70, 0
10, 61380, Note_on_c, 9, 42, 60
10, 61380, Note_on_c, 9, 35, 70
10, 61398, Note_on_c, 9, 42, 0
10, 61405, Note_on_c, 9, 35, 0
10, 61440, Note_on_c, 9, 42, 61
10, 61440, Note_on_c, 9, 35, 100
10, 61440, Note_on_c, 9, 70, 80
10, 61460, Note_on_c, 9, 42, 0
10, 61465, Note_on_c, 9, 70, 0
10, 61465, Note_on_c, 9, 35, 0
10, 61500, Note_on_c, 9, 42, 54
10, 61518, Note_on_c, 9, 42, 0
10, 61560, Note_on_c, 9, 42, 59
10, 61560, Note_on_c, 9, 48, 40
10, 61560, Note_on_c, 9, 70, 80
10, 61577, Note_on_c, 9, 42, 0
10, 61585, Note_on_c, 9, 70, 0
10, 61585, Note_on_c, 9, 48, 0
10, 61620, Note_on_c, 9, 42, 61
10, 61620, Note_on_c, 9, 48, 50
10, 61636, Note_on_c, 9, 42, 0
10, 61645, Note_on_c, 9, 48, 0
10, 61680, Note_on_c, 9, 42, 75
10, 61680, Note_on_c, 9, 48, 40
10, 61680, Note_on_c, 9, 70, 80
10, 61703, Note_on_c, 9, 42, 0
10, 61705, Note_on_c, 9, 70, 0
10, 61705, Note_on_c, 9, 48, 0
10, 61740, Note_on_c, 9, 46, 63
10, 61740, Note_on_c, 9, 48, 94
10, 61756, Note_on_c, 9, 46, 0
10, 61765, Note_on_c, 9, 48, 0
10, 61800, Note_on_c, 9, 42, 59
10, 61800, Note_on_c, 9, 48, 60
10, 61800, Note_on_c, 9, 70, 80
10, 61819, Note_on_c, 9, 42, 0
10, 61825, Note_on_c, 9, 70, 0
10, 61825, Note_on_c, 9, 48, 0
10, 61860, Note_on_c, 9, 42, 69
10, 61860, Note_on_c, 9, 48, 50
10, 61876, Note_on_c, 9, 42, 0
10, 61885, Note_on_c, 9, 48, 0
10, 61920, Note_on_c, 9, 42, 64
10, 61920, Note_on_c, 9, 35, 100
10, 61920, Note_on_c, 9, 37, 90
10, 61920, Note_on_c, 9, 49, 50
10, 61920, Note_on_c, 9, 70, 80
10, 61938, Note_on_c, 9, 42, 0
10, 61945, Note_on_c, 9, 49, 0
10, 61945, Note_on_c, 9, 35, 0
10, 61945, Note_on_c, 9, 37, 0
10, 61945, Note_on_c, 9, 70, 0
10, 61980, Note_on_c, 9, 42, 59
10, 61999, Note_on_c, 9, 42, 0
10, 62040, Note_on_c, 9, 42, 52
10, 62040, Note_on_c, 9, 70, 80
10, 62057, Note_on_c, 9, 42, 0
10, 62065, Note_on_c, 9, 70, 0
10, 62100, Note_on_c, 9, 42, 56
10, 62100, Note_on_c, 9, 35, 70
10, 62100, Note_on_c, 9, 37, 90
10, 62103, Note_on_c, 9, 49, 72
10, 62118, Note_on_c, 9, 49, 0
10, 62118, Note_on_c, 9, 42, 0
10, 62125, Note_on_c, 9, 37, 0
10, 62125, Note_on_c, 9, 35, 0
10, 62160, Note_on_c, 9, 42, 63
10, 62160, Note_on_c, 9, 35, 100
10, 62160, Note_on_c, 9, 70, 80
10, 62178, Note_on_c, 9, 42, 0
10, 62185, Note_on_c, 9, 70, 0
10, 62185, Note_on_c, 9, 35, 0
10, 62220, Note_on_c, 9, 46, 63
10, 62239, Note_on_c, 9, 46, 0
10, 62280, Note_on_c, 9, 42, 47
10, 62280, Note_on_c, 9, 70, 80
10, 62280, Note_on_c, 9, 37, 90
10, 62298, Note_on_c, 9, 42, 0
10, 62305, Note_on_c, 9, 37, 0
10, 62305, Note_on_c, 9, 70, 0
10, 62340, Note_on_c, 9, 42, 45
10, 62340, Note_on_c, 9, 35, 70
10, 62357, Note_on_c, 9, 42, 0
10, 62365, Note_on_c, 9, 35, 0
10, 62400, Note_on_c, 9, 35, 100
10, 62400, Note_on_c, 9, 70, 80
10, 62400, Note_on_c, 9, 42, 45
10, 62419, Note_on_c, 9, 42, 0
10, 62425, Note_on_c, 9, 70, 0
10, 62425, Note_on_c, 9, 35, 0
10, 62460, Note_on_c, 9, 42, 42
10, 62479, Note_on_c, 9, 42, 0
10, 62520, Note_on_c, 9, 42, 43
10, 62520, Note_on_c, 9, 37, 90
10, 62520, Note_on_c, 9, 70, 80
10, 62540, Note_on_c, 9, 42, 0
10, 62545, Note_on_c, 9, 70, 0
10, 62545, Note_on_c, 9, 37, 0
10, 62580, Note_on_c, 9, 42, 46
10, 62580, Note_on_c, 9, 35, 70
10, 62598, Note_on_c, 9, 42, 0
10, 62605, Note_on_c, 9, 35, 0
10, 62640, Note_on_c, 9, 35, 100
10, 62640, Note_on_c, 9, 70, 80
10, 62640, Note_on_c, 9, 42, 72
10, 62660, Note_on_c, 9, 42, 0
10, 62665, Note_on_c, 9, 70, 0
10, 62665, Note_on_c, 9, 35, 0
10, 62700, Note_on_c, 9, 37, 90
10, 62700, Note_on_c, 9, 46, 65
10, 62717, Note_on_c, 9, 46, 0
10, 62725, Note_on_c, 9, 37, 0
10, 62760, Note_on_c, 9, 42, 40
10, 62760, Note_on_c, 9, 70, 80
10, 62778, Note_on_c, 9, 42, 0
10, 62785, Note_on_c, 9, 70, 0
10, 62820, Note_on_c, 9, 35, 70
10, 62820, Note_on_c, 9, 42, 56
10, 62840, Note_on_c, 9, 42, 0
10, 62845, Note_on_c, 9, 35, 0
10, 62880, Note_on_c, 9, 42, 59
10, 62880, Note_on_c, 9, 37, 90
10, 62880, Note_on_c, 9, 70, 80
10, 62880, Note_on_c, 9, 35, 100
10, 62897, Note_on_c, 9, 42, 0
10, 62905, Note_on_c, 9, 37, 0
10, 62905, Note_on_c, 9, 70, 0
10, 62905, Note_on_c, 9, 35, 0
10, 62940, Note_on_c, 9, 42, 52
10, 62958, Note_on_c, 9, 42, 0
10, 63000, Note_on_c, 9, 42, 46
10, 63000, Note_on_c, 9, 70, 80
10, 63015, Note_on_c, 9, 42, 0
10, 63025, Note_on_c, 9, 70, 0
10, 63060, Note_on_c, 9, 35, 70
10, 63060, Note_on_c, 9, 37, 90
10, 63060, Note_on_c, 9, 42, 55
10, 63076, Note_on_c, 9, 42, 0
10, 63085, Note_on_c, 9, 37, 0
10, 63085, Note_on_c, 9, 35, 0
10, 63120, Note_on_c, 9, 42, 75
10, 63120, Note_on_c, 9, 70, 80
10, 63120, Note_on_c, 9, 35, 100
10, 63137, Note_on_c, 9, 42, 0
10, 63145, Note_on_c, 9, 35, 0
10, 63145, Note_on_c, 9, 70, 0
10, 63180, Note_on_c, 9, 46, 65
10, 63196, Note_on_c, 9, 46, 0
10, 63240, Note_on_c, 9, 37, 90
10, 63240, Note_on_c, 9, 70, 80
10, 63240, Note_on_c, 9, 42, 60
10, 63257, Note_on_c, 9, 42, 0
10, 63265, Note_on_c, 9, 70, 0
10, 63265, Note_on_c, 9, 37, 0
10, 63300, Note_on_c, 9, 35, 70
10, 63300, Note_on_c, 9, 42, 72
10, 63319, Note_on_c, 9, 42, 0
10, 63325, Note_on_c, 9, 35, 0
10, 63360, Note_on_c, 9, 42, 71
10, 63360, Note_on_c, 9, 70, 80
10, 63360, Note_on_c, 9, 35, 100
10, 63373, Note_on_c, 9, 42, 0
10, 63385, Note_on_c, 9, 35, 0
10, 63385, Note_on_c, 9, 70, 0
10, 63390, Note_on_c, 9, 42, 52
10, 63397, Note_on_c, 9, 42, 0
10, 63420, Note_on_c, 9, 42, 72
10, 63436, Note_on_c, 9, 42, 0
10, 63480, Note_on_c, 9, 46, 51
10, 63480, Note_on_c, 9, 37, 90
10, 63480, Note_on_c, 9, 70, 80
10, 63494, Note_on_c, 9, 46, 0
10, 63505, Note_on_c, 9, 70, 0
10, 63505, Note_on_c, 9, 37, 0
10, 63540, Note_on_c, 9, 42, 78
10, 63540, Note_on_c, 9, 35, 70
10, 63559, Note_on_c, 9, 42, 0
10, 63565, Note_on_c, 9, 35, 0
10, 63600, Note_on_c, 9, 35, 100
10, 63600, Note_on_c, 9, 70, 80
10, 63600, Note_on_c, 9, 42, 57
10, 63615, Note_on_c, 9, 42, 0
10, 63625, Note_on_c, 9, 70, 0
10, 63625, Note_on_c, 9, 35, 0
10, 63660, Note_on_c, 9, 37, 90
10, 63660, Note_on_c, 9, 42, 57
10, 63676, Note_on_c, 9, 42, 0
10, 63685, Note_on_c, 9, 37, 0
10, 63720, Note_on_c, 9, 42, 58
10, 63720, Note_on_c, 9, 70, 80
10, 63720, Note_on_c, 9, 45, 70
10, 63736, Note_on_c, 9, 42, 0
10, 63745, Note_on_c, 9, 45, 0
10, 63745, Note_on_c, 9, 70, 0
10, 63780, Note_on_c, 9, 42, 63
10, 63780, Note_on_c, 9, 35, 70
10, 63795, Note_on_c, 9, 42, 0
10, 63805, Note_on_c, 9, 35, 0
10, 63840, Note_on_c, 9, 35, 100
10, 63840, Note_on_c, 9, 37, 90
10, 63840, Note_on_c, 9, 42, 62
10, 63840, Note_on_c, 9, 70, 80
10, 63861, Note_on_c, 9, 42, 0
10, 63865, Note_on_c, 9, 35, 0
10, 63865, Note_on_c, 9, 37, 0
10, 63865, Note_on_c, 9, 70, 0
10, 63900, Note_on_c, 9, 42, 56
10, 63918, Note_on_c, 9, 42, 0
10, 63960, Note_on_c, 9, 42, 56
10, 63960, Note_on_c, 9, 70, 80
10, 63975, Note_on_c, 9, 42, 0
10, 63985, Note_on_c, 9, 70, 0
10, 64020, Note_on_c, 9, 42, 70
10, 64020, Note_on_c, 9, 35, 70
10, 64020, Note_on_c, 9, 37, 90
10, 64040, Note_on_c, 9, 42, 0
10, 64045, Note_on_c, 9, 37, 0
10, 64045, Note_on_c, 9, 35, 0
10, 64080, Note_on_c, 9, 35, 100
10, 64080, Note_on_c, 9, 70, 80
10, 64080, Note_on_c, 9, 42, 81
10, 64098, Note_on_c, 9, 42, 0
10, 64105, Note_on_c, 9, 70, 0
10, 64105, Note_on_c, 9, 35, 0
10, 64140, Note_on_c, 9, 46, 69
10, 64157, Note_on_c, 9, 46, 0
10, 64200, Note_on_c, 9, 42, 60
10, 64200, Note_on_c, 9, 37, 90
10, 64200, Note_on_c, 9, 70, 80
10, 64218, Note_on_c, 9, 42, 0
10, 64225, Note_on_c, 9, 70, 0
10, 64225, Note_on_c, 9, 37, 0
10, 64260, Note_on_c, 9, 42, 59
10, 64260, Note_on_c, 9, 35, 70
10, 64280, Note_on_c, 9, 42, 0
10, 64285, Note_on_c, 9, 35, 0
10, 64320, Note_on_c, 9, 35, 100
10, 64320, Note_on_c, 9, 70, 80
10, 64320, Note_on_c, 9, 42, 61
10, 64338, Note_on_c, 9, 42, 0
10, 64345, Note_on_c, 9, 70, 0
10, 64345, Note_on_c, 9, 35, 0
10, 64380, Note_on_c, 9, 42, 57
10, 64399, Note_on_c, 9, 42, 0
10, 64440, Note_on_c, 9, 37, 90
10, 64440, Note_on_c, 9, 70, 80
10, 64440, Note_on_c, 9, 42, 60
10, 64456, Note_on_c, 9, 42, 0
10, 64465, Note_on_c, 9, 70, 0
10, 64465, Note_on_c, 9, 37, 0
10, 64500, Note_on_c, 9, 35, 70
10, 64500, Note_on_c, 9, 42, 65
10, 64519, Note_on_c, 9, 42, 0
10, 64525, Note_on_c, 9, 35, 0
10, 64560, Note_on_c, 9, 42, 67
10, 64560, Note_on_c, 9, 70, 80
10, 64560, Note_on_c, 9, 35, 100
10, 64578, Note_on_c, 9, 42, 0
10, 64585, Note_on_c, 9, 35, 0
10, 64585, Note_on_c, 9, 70, 0
10, 64620, Note_on_c, 9, 46, 64
10, 64620, Note_on_c, 9, 37, 90
10, 64637, Note_on_c, 9, 46, 0
10, 64645, Note_on_c, 9, 37, 0
10, 64680, Note_on_c, 9, 42, 55
10, 64680, Note_on_c, 9, 70, 80
10, 64697, Note_on_c, 9, 42, 0
10, 64705, Note_on_c, 9, 70, 0
10, 64740, Note_on_c, 9, 35, 70
10, 64740, Note_on_c, 9, 42, 60
10, 64758, Note_on_c, 9, 42, 0
10, 64765, Note_on_c, 9, 35, 0
10, 64800, Note_on_c, 9, 35, 100
10, 64800, Note_on_c, 9, 37, 90
10, 64800, Note_on_c, 9, 70, 80
10, 64800, Note_on_c, 9, 42, 63
10, 64818, Note_on_c, 9, 42, 0
10, 64825, Note_on_c, 9, 35, 0
10, 64825, Note_on_c, 9, 37, 0
10, 64825, Note_on_c, 9, 70, 0
10, 64860, Note_on_c, 9, 42, 71
10, 64873, Note_on_c, 9, 42, 0
10, 64890, Note_on_c, 9, 42, 60
10, 64898, Note_on_c, 9, 42, 0
10, 64920, Note_on_c, 9, 70, 80
10, 64920, Note_on_c, 9, 42, 71
10, 64937, Note_on_c, 9, 42, 0
10, 64945, Note_on_c, 9, 70, 0
10, 64980, Note_on_c, 9, 42, 74
10, 64980, Note_on_c, 9, 37, 90
10, 64980, Note_on_c, 9, 35, 70
10, 64999, Note_on_c, 9, 42, 0
10, 65005, Note_on_c, 9, 35, 0
10, 65005, Note_on_c, 9, 37, 0
10, 65040, Note_on_c, 9, 42, 77
10, 65040, Note_on_c, 9, 70, 80
10, 65040, Note_on_c, 9, 35, 100
10, 65055, Note_on_c, 9, 42, 0
10, 65065, Note_on_c, 9, 35, 0
10, 65065, Note_on_c, 9, 70, 0
10, 65100, Note_on_c, 9, 46, 60
10, 65118, Note_on_c, 9, 46, 0
10, 65160, Note_on_c, 9, 42, 56
10, 65160, Note_on_c, 9, 70, 80
10, 65160, Note_on_c, 9, 37, 90
10, 65179, Note_on_c, 9, 42, 0
10, 65185, Note_on_c, 9, 37, 0
10, 65185, Note_on_c, 9, 70, 0
10, 65220, Note_on_c, 9, 42, 60
10, 65220, Note_on_c, 9, 35, 70
10, 65238, Note_on_c, 9, 42, 0
10, 65245, Note_on_c, 9, 35, 0
10, 65280, Note_on_c, 9, 42, 61
10, 65280, Note_on_c, 9, 35, 100
10, 65280, Note_on_c, 9, 70, 80
10, 65300, Note_on_c, 9, 42, 0
10, 65305, Note_on_c, 9, 70, 0
10, 65305, Note_on_c, 9, 35, 0
10, 65340, Note_on_c, 9, 42, 54
10, 65358, Note_on_c, 9, 42, 0
10, 65400, Note_on_c, 9, 42, 59
10, 65400, Note_on_c, 9, 70, 80
10, 65400, Note_on_c, 9, 37, 90
10, 65417, Note_on_c, 9, 42, 0
10, 65425, Note_on_c, 9, 37, 0
10, 65425, Note_on_c, 9, 70, 0
10, 65460, Note_on_c, 9, 42, 61
10, 65460, Note_on_c, 9, 35, 70
10, 65476, Note_on_c, 9, 42, 0
10, 65485, Note_on_c, 9, 35, 0
10, 65520, Note_on_c, 9, 35, 100
10, 65520, Note_on_c, 9, 70, 80
10, 65520, Note_on_c, 9, 42, 75
10, 65543, Note_on_c, 9, 42, 0
10, 65545, Note_on_c, 9, 70, 0
10, 65545, Note_on_c, 9, 35, 0
10, 65580, Note_on_c, 9, 37, 90
10, 65580, Note_on_c, 9, 46, 63
10, 65596, Note_on_c, 9, 46, 0
10, 65605, Note_on_c, 9, 37, 0
10, 65640, Note_on_c, 9, 42, 59
10, 65640, Note_on_c, 9, 70, 80
10, 65659, Note_on_c, 9, 42, 0
10, 65665, Note_on_c, 9, 70, 0
10, 65700, Note_on_c, 9, 42, 69
10, 65700, Note_on_c, 9, 35, 70
10, 65716, Note_on_c, 9, 42, 0
10, 65725, Note_on_c, 9, 35, 0
10, 65760, Note_on_c, 9, 35, 100
10, 65760, Note_on_c, 9, 37, 90
10, 65760, Note_on_c, 9, 70, 80
10, 65760, Note_on_c, 9, 42, 64
10, 65778, Note_on_c, 9, 42, 0
10, 65785, Note_on_c, 9, 35, 0
10, 65785, Note_on_c, 9, 37, 0
10, 65785, Note_on_c, 9, 70, 0
10, 65820, Note_on_c, 9, 42, 59
10, 65839, Note_on_c, 9, 42, 0
10, 65880, Note_on_c, 9, 42, 52
10, 65880, Note_on_c, 9, 70, 80
10, 65897, Note_on_c, 9, 42, 0
10, 65905, Note_on_c, 9, 70, 0
10, 65940, Note_on_c, 9, 35, 70
10, 65940, Note_on_c, 9, 37, 90
10, 65940, Note_on_c, 9, 42, 56
10, 65958, Note_on_c, 9, 42, 0
10, 65965, Note_on_c, 9, 37, 0
10, 65965, Note_on_c, 9, 35, 0
10, 66000, Note_on_c, 9, 35, 100
10, 66000, Note_on_c, 9, 70, 80
10, 66000, Note_on_c, 9, 42, 63
10, 66018, Note_on_c, 9, 42, 0
10, 66025, Note_on_c, 9, 70, 0
10, 66025, Note_on_c, 9, 35, 0
10, 66060, Note_on_c, 9, 46, 63
10, 66079, Note_on_c, 9, 46, 0
10, 66120, Note_on_c, 9, 37, 90
10, 66120, Note_on_c, 9, 70, 80
10, 66120, Note_on_c, 9, 42, 47
10, 66138, Note_on_c, 9, 42, 0
10, 66145, Note_on_c, 9, 70, 0
10, 66145, Note_on_c, 9, 37, 0
10, 66180, Note_on_c, 9, 42, 45
10, 66180, Note_on_c, 9, 35, 70
10, 66197, Note_on_c, 9, 42, 0
10, 66205, Note_on_c, 9, 35, 0
10, 66240, Note_on_c, 9, 35, 100
10, 66240, Note_on_c, 9, 70, 80
10, 66240, Note_on_c, 9, 42, 45
10, 66259, Note_on_c, 9, 42, 0
10, 66265, Note_on_c, 9, 70, 0
10, 66265, Note_on_c, 9, 35, 0
10, 66300, Note_on_c, 9, 42, 42
10, 66319, Note_on_c, 9, 42, 0
10, 66360, Note_on_c, 9, 42, 43
10, 66360, Note_on_c, 9, 37, 90
10, 66360, Note_on_c, 9, 70, 80
10, 66380, Note_on_c, 9, 42, 0
10, 66385, Note_on_c, 9, 70, 0
10, 66385, Note_on_c, 9, 37, 0
10, 66420, Note_on_c, 9, 42, 46
10, 66420, Note_on_c, 9, 35, 70
10, 66438, Note_on_c, 9, 42, 0
10, 66445, Note_on_c, 9, 35, 0
10, 66480, Note_on_c, 9, 35, 100
10, 66480, Note_on_c, 9, 70, 80
10, 66480, Note_on_c, 9, 42, 72
10, 66500, Note_on_c, 9, 42, 0
10, 66505, Note_on_c, 9, 70, 0
10, 66505, Note_on_c, 9, 35, 0
10, 66540, Note_on_c, 9, 46, 65
10, 66540, Note_on_c, 9, 37, 90
10, 66557, Note_on_c, 9, 46, 0
10, 66565, Note_on_c, 9, 37, 0
10, 66600, Note_on_c, 9, 42, 40
10, 66600, Note_on_c, 9, 45, 70
10, 66600, Note_on_c, 9, 70, 80
10, 66618, Note_on_c, 9, 42, 0
10, 66625, Note_on_c, 9, 70, 0
10, 66625, Note_on_c, 9, 45, 0
10, 66660, Note_on_c, 9, 42, 56
10, 66660, Note_on_c, 9, 35, 70
10, 66680, Note_on_c, 9, 42, 0
10, 66685, Note_on_c, 9, 35, 0
10, 66720, Note_on_c, 9, 35, 100
10, 66720, Note_on_c, 9, 37, 90
10, 66720, Note_on_c, 9, 42, 59
10, 66720, Note_on_c, 9, 70, 80
10, 66737, Note_on_c, 9, 42, 0
10, 66745, Note_on_c, 9, 35, 0
10, 66745, Note_on_c, 9, 37, 0
10, 66745, Note_on_c, 9, 70, 0
10, 66780, Note_on_c, 9, 42, 52
10, 66798, Note_on_c, 9, 42, 0
10, 66840, Note_on_c, 9, 42, 46
10, 66840, Note_on_c, 9, 70, 80
10, 66855, Note_on_c, 9, 42, 0
10, 66865, Note_on_c, 9, 70, 0
10, 66900, Note_on_c, 9, 35, 70
10, 66900, Note_on_c, 9, 37, 90
10, 66900, Note_on_c, 9, 42, 55
10, 66916, Note_on_c, 9, 42, 0
10, 66925, Note_on_c, 9, 37, 0
10, 66925, Note_on_c, 9, 35, 0
10, 66960, Note_on_c, 9, 35, 100
10, 66960, Note_on_c, 9, 70, 80
10, 66960, Note_on_c, 9, 42, 75
10, 66977, Note_on_c, 9, 42, 0
10, 66985, Note_on_c, 9, 70, 0
10, 66985, Note_on_c, 9, 35, 0
10, 67020, Note_on_c, 9, 46, 65
10, 67036, Note_on_c, 9, 46, 0
10, 67080, Note_on_c, 9, 42, 60
10, 67080, Note_on_c, 9, 37, 90
10, 67080, Note_on_c, 9, 70, 80
10, 67097, Note_on_c, 9, 42, 0
10, 67105, Note_on_c, 9, 70, 0
10, 67105, Note_on_c, 9, 37, 0
10, 67140, Note_on_c, 9, 35, 70
10, 67140, Note_on_c, 9, 42, 72
10, 67159, Note_on_c, 9, 42, 0
10, 67165, Note_on_c, 9, 35, 0
10, 67200, Note_on_c, 9, 42, 71
10, 67200, Note_on_c, 9, 70, 80
10, 67200, Note_on_c, 9, 35, 100
10, 67213, Note_on_c, 9, 42, 0
10, 67225, Note_on_c, 9, 35, 0
10, 67225, Note_on_c, 9, 70, 0
10, 67230, Note_on_c, 9, 42, 52
10, 67237, Note_on_c, 9, 42, 0
10, 67260, Note_on_c, 9, 42, 72
10, 67276, Note_on_c, 9, 42, 0
10, 67320, Note_on_c, 9, 46, 51
10, 67320, Note_on_c, 9, 37, 90
10, 67320, Note_on_c, 9, 70, 80
10, 67334, Note_on_c, 9, 46, 0
10, 67345, Note_on_c, 9, 70, 0
10, 67345, Note_on_c, 9, 37, 0
10, 67380, Note_on_c, 9, 42, 78
10, 67380, Note_on_c, 9, 35, 70
10, 67399, Note_on_c, 9, 42, 0
10, 67405, Note_on_c, 9, 35, 0
10, 67440, Note_on_c, 9, 35, 100
10, 67440, Note_on_c, 9, 70, 80
10, 67440, Note_on_c, 9, 42, 57
10, 67455, Note_on_c, 9, 42, 0
10, 67465, Note_on_c, 9, 70, 0
10, 67465, Note_on_c, 9, 35, 0
10, 67500, Note_on_c, 9, 42, 57
10, 67500, Note_on_c, 9, 37, 90
10, 67516, Note_on_c, 9, 42, 0
10, 67525, Note_on_c, 9, 37, 0
10, 67560, Note_on_c, 9, 70, 80
10, 67560, Note_on_c, 9, 42, 58
10, 67576, Note_on_c, 9, 42, 0
10, 67585, Note_on_c, 9, 70, 0
10, 67620, Note_on_c, 9, 42, 63
10, 67620, Note_on_c, 9, 45, 50
10, 67620, Note_on_c, 9, 35, 70
10, 67635, Note_on_c, 9, 42, 0
10, 67645, Note_on_c, 9, 35, 0
10, 67645, Note_on_c, 9, 45, 0
10, 67680, Note_on_c, 9, 42, 62
10, 67680, Note_on_c, 9, 37, 90
10, 67680, Note_on_c, 9, 70, 80
10, 67680, Note_on_c, 9, 35, 100
10, 67701, Note_on_c, 9, 42, 0
10, 67705, Note_on_c, 9, 37, 0
10, 67705, Note_on_c, 9, 70, 0
10, 67705, Note_on_c, 9, 35, 0
10, 67740, Note_on_c, 9, 42, 56
10, 67758, Note_on_c, 9, 42, 0
10, 67800, Note_on_c, 9, 70, 80
10, 67800, Note_on_c, 9, 42, 56
10, 67815, Note_on_c, 9, 42, 0
10, 67825, Note_on_c, 9, 70, 0
10, 67860, Note_on_c, 9, 42, 70
10, 67860, Note_on_c, 9, 37, 90
10, 67860, Note_on_c, 9, 35, 70
10, 67880, Note_on_c, 9, 42, 0
10, 67885, Note_on_c, 9, 35, 0
10, 67885, Note_on_c, 9, 37, 0
10, 67920, Note_on_c, 9, 42, 81
10, 67920, Note_on_c, 9, 70, 80
10, 67920, Note_on_c, 9, 35, 100
10, 67938, Note_on_c, 9, 42, 0
10, 67945, Note_on_c, 9, 35, 0
10, 67945, Note_on_c, 9, 70, 0
10, 67980, Note_on_c, 9, 46, 69
10, 67997, Note_on_c, 9, 46, 0
10, 68040, Note_on_c, 9, 37, 90
10, 68040, Note_on_c, 9, 70, 80
10, 68040, Note_on_c, 9, 42, 60
10, 68058, Note_on_c, 9, 42, 0
10, 68065, Note_on_c, 9, 70, 0
10, 68065, Note_on_c, 9, 37, 0
10, 68100, Note_on_c, 9, 35, 70
10, 68100, Note_on_c, 9, 42, 59
10, 68120, Note_on_c, 9, 42, 0
10, 68125, Note_on_c, 9, 35, 0
10, 68160, Note_on_c, 9, 42, 61
10, 68160, Note_on_c, 9, 35, 100
10, 68160, Note_on_c, 9, 70, 80
10, 68178, Note_on_c, 9, 42, 0
10, 68185, Note_on_c, 9, 70, 0
10, 68185, Note_on_c, 9, 35, 0
10, 68220, Note_on_c, 9, 42, 57
10, 68239, Note_on_c, 9, 42, 0
10, 68280, Note_on_c, 9, 42, 60
10, 68280, Note_on_c, 9, 70, 80
10, 68280, Note_on_c, 9, 37, 90
10, 68296, Note_on_c, 9, 42, 0
10, 68305, Note_on_c, 9, 37, 0
10, 68305, Note_on_c, 9, 70, 0
10, 68340, Note_on_c, 9, 42, 65
10, 68340, Note_on_c, 9, 48, 50
10, 68340, Note_on_c, 9, 35, 70
10, 68359, Note_on_c, 9, 42, 0
10, 68365, Note_on_c, 9, 35, 0
10, 68365, Note_on_c, 9, 48, 0
10, 68400, Note_on_c, 9, 42, 67
10, 68400, Note_on_c, 9, 70, 80
10, 68400, Note_on_c, 9, 35, 100
10, 68418, Note_on_c, 9, 42, 0
10, 68425, Note_on_c, 9, 35, 0
10, 68425, Note_on_c, 9, 70, 0
10, 68460, Note_on_c, 9, 46, 64
10, 68460, Note_on_c, 9, 37, 90
10, 68477, Note_on_c, 9, 46, 0
10, 68485, Note_on_c, 9, 37, 0
10, 68520, Note_on_c, 9, 70, 80
10, 68520, Note_on_c, 9, 42, 55
10, 68537, Note_on_c, 9, 42, 0
10, 68545, Note_on_c, 9, 70, 0
10, 68580, Note_on_c, 9, 42, 60
10, 68580, Note_on_c, 9, 45, 50
10, 68580, Note_on_c, 9, 35, 70
10, 68598, Note_on_c, 9, 42, 0
10, 68605, Note_on_c, 9, 35, 0
10, 68605, Note_on_c, 9, 45, 0
10, 68640, Note_on_c, 9, 42, 63
10, 68640, Note_on_c, 9, 37, 90
10, 68640, Note_on_c, 9, 70, 80
10, 68640, Note_on_c, 9, 35, 100
10, 68658, Note_on_c, 9, 42, 0
10, 68665, Note_on_c, 9, 37, 0
10, 68665, Note_on_c, 9, 70, 0
10, 68665, Note_on_c, 9, 35, 0
10, 68700, Note_on_c, 9, 42, 71
10, 68713, Note_on_c, 9, 42, 0
10, 68730, Note_on_c, 9, 42, 60
10, 68738, Note_on_c, 9, 42, 0
10, 68760, Note_on_c, 9, 70, 80
10, 68760, Note_on_c, 9, 42, 71
10, 68777, Note_on_c, 9, 42, 0
10, 68785, Note_on_c, 9, 70, 0
10, 68820, Note_on_c, 9, 42, 74
10, 68820, Note_on_c, 9, 35, 70
10, 68820, Note_on_c, 9, 37, 90
10, 68839, Note_on_c, 9, 42, 0
10, 68845, Note_on_c, 9, 37, 0
10, 68845, Note_on_c, 9, 35, 0
10, 68880, Note_on_c, 9, 42, 77
10, 68880, Note_on_c, 9, 35, 100
10, 68880, Note_on_c, 9, 70, 80
10, 68895, Note_on_c, 9, 42, 0
10, 68905, Note_on_c, 9, 70, 0
10, 68905, Note_on_c, 9, 35, 0
10, 68940, Note_on_c, 9, 46, 60
10, 68958, Note_on_c, 9, 46, 0
10, 69000, Note_on_c, 9, 42, 56
10, 69000, Note_on_c, 9, 70, 80
10, 69000, Note_on_c, 9, 37, 90
10, 69019, Note_on_c, 9, 42, 0
10, 69025, Note_on_c, 9, 37, 0
10, 69025, Note_on_c, 9, 70, 0
10, 69060, Note_on_c, 9, 42, 60
10, 69060, Note_on_c, 9, 35, 70
10, 69078, Note_on_c, 9, 42, 0
10, 69085, Note_on_c, 9, 35, 0
10, 69120, Note_on_c, 9, 35, 100
10, 69120, Note_on_c, 9, 70, 80
10, 69120, Note_on_c, 9, 42, 61
10, 69120, Note_on_c, 9, 38, 66
10, 69140, Note_on_c, 9, 42, 0
10, 69145, Note_on_c, 9, 35, 0
10, 69145, Note_on_c, 9, 70, 0
10, 69145, Note_on_c, 9, 38, 0
10, 69180, Note_on_c, 9, 42, 54
10, 69180, Note_on_c, 9, 38, 26
10, 69198, Note_on_c, 9, 42, 0
10, 69205, Note_on_c, 9, 38, 0
10, 69240, Note_on_c, 9, 70, 80
10, 69240, Note_on_c, 9, 42, 59
10, 69240, Note_on_c, 9, 38, 26
10, 69257, Note_on_c, 9, 42, 0
10, 69265, Note_on_c, 9, 38, 0
10, 69265, Note_on_c, 9, 70, 0
10, 69300, Note_on_c, 9, 35, 70
10, 69300, Note_on_c, 9, 42, 61
10, 69300, Note_on_c, 9, 38, 66
10, 69316, Note_on_c, 9, 42, 0
10, 69325, Note_on_c, 9, 38, 0
10, 69325, Note_on_c, 9, 35, 0
10, 69360, Note_on_c, 9, 35, 100
10, 69360, Note_on_c, 9, 70, 80
10, 69360, Note_on_c, 9, 42, 75
10, 69360, Note_on_c, 9, 38, 26
10, 69383, Note_on_c, 9, 42, 0
10, 69385, Note_on_c, 9, 35, 0
10, 69385, Note_on_c, 9, 70, 0
10, 69385, Note_on_c, 9, 38, 0
10, 69420, Note_on_c, 9, 46, 63
10, 69420, Note_on_c, 9, 38, 26
10, 69436, Note_on_c, 9, 46, 0
10, 69445, Note_on_c, 9, 38, 0
10, 69480, Note_on_c, 9, 42, 59
10, 69480, Note_on_c, 9, 70, 80
10, 69480, Note_on_c, 9, 38, 66
10, 69499, Note_on_c, 9, 42, 0
10, 69505, Note_on_c, 9, 38, 0
10, 69505, Note_on_c, 9, 70, 0
10, 69540, Note_on_c, 9, 42, 69
10, 69540, Note_on_c, 9, 41, 108
10, 69540, Note_on_c, 9, 35, 70
10, 69556, Note_on_c, 9, 42, 0
10, 69565, Note_on_c, 9, 35, 0
10, 69565, Note_on_c, 9, 41, 0
10, 69600, Note_on_c, 9, 42, 64
10, 69600, Note_on_c, 9, 37, 90
10, 69600, Note_on_c, 9, 49, 50
10, 69600, Note_on_c, 9, 70, 80
10, 69600, Note_on_c, 9, 35, 100
10, 69618, Note_on_c, 9, 42, 0
10, 69625, Note_on_c, 9, 70, 0
10, 69625, Note_on_c, 9, 37, 0
10, 69625, Note_on_c, 9, 49, 0
10, 69625, Note_on_c, 9, 35, 0
10, 69660, Note_on_c, 9, 42, 59
10, 69679, Note_on_c, 9, 42, 0
10, 69720, Note_on_c, 9, 42, 52
10, 69720, Note_on_c, 9, 70, 80
10, 69737, Note_on_c, 9, 42, 0
10, 69745, Note_on_c, 9, 70, 0
10, 69780, Note_on_c, 9, 35, 70
10, 69780, Note_on_c, 9, 37, 90
10, 69780, Note_on_c, 9, 42, 56
10, 69798, Note_on_c, 9, 42, 0
10, 69805, Note_on_c, 9, 37, 0
10, 69805, Note_on_c, 9, 35, 0
10, 69840, Note_on_c, 9, 35, 100
10, 69840, Note_on_c, 9, 70, 80
10, 69840, Note_on_c, 9, 42, 63
10, 69858, Note_on_c, 9, 42, 0
10, 69865, Note_on_c, 9, 70, 0
10, 69865, Note_on_c, 9, 35, 0
10, 69900, Note_on_c, 9, 46, 63
10, 69919, Note_on_c, 9, 46, 0
10, 69960, Note_on_c, 9, 37, 90
10, 69960, Note_on_c, 9, 70, 80
10, 69960, Note_on_c, 9, 42, 47
10, 69978, Note_on_c, 9, 42, 0
10, 69985, Note_on_c, 9, 70, 0
10, 69985, Note_on_c, 9, 37, 0
10, 70020, Note_on_c, 9, 42, 45
10, 70020, Note_on_c, 9, 35, 70
10, 70037, Note_on_c, 9, 42, 0
10, 70045, Note_on_c, 9, 35, 0
10, 70080, Note_on_c, 9, 42, 45
10, 70080, Note_on_c, 9, 35, 100
10, 70080, Note_on_c, 9, 70, 80
10, 70099, Note_on_c, 9, 42, 0
10, 70105, Note_on_c, 9, 70, 0
10, 70105, Note_on_c, 9, 35, 0
10, 70140, Note_on_c, 9, 42, 42
10, 70159, Note_on_c, 9, 42, 0
10, 70200, Note_on_c, 9, 42, 43
10, 70200, Note_on_c, 9, 70, 80
10, 70200, Note_on_c, 9, 37, 90
10, 70220, Note_on_c, 9, 42, 0
10, 70225, Note_on_c, 9, 37, 0
10, 70225, Note_on_c, 9, 70, 0
10, 70260, Note_on_c, 9, 42, 46
10, 70260, Note_on_c, 9, 35, 70
10, 70278, Note_on_c, 9, 42, 0
10, 70285, Note_on_c, 9, 35, 0
10, 70320, Note_on_c, 9, 35, 100
10, 70320, Note_on_c, 9, 70, 80
10, 70320, Note_on_c, 9, 42, 72
10, 70340, Note_on_c, 9, 42, 0
10, 70345, Note_on_c, 9, 70, 0
10, 70345, Note_on_c, 9, 35, 0
10, 70380, Note_on_c, 9, 37, 90
10, 70380, Note_on_c, 9, 46, 65
10, 70397, Note_on_c, 9, 46, 0
10, 70405, Note_on_c, 9, 37, 0
10, 70440, Note_on_c, 9, 42, 40
10, 70440, Note_on_c, 9, 70, 80
10, 70458, Note_on_c, 9, 42, 0
10, 70465, Note_on_c, 9, 70, 0
10, 70500, Note_on_c, 9, 42, 56
10, 70500, Note_on_c, 9, 35, 70
10, 70520, Note_on_c, 9, 42, 0
10, 70525, Note_on_c, 9, 35, 0
10, 70560, Note_on_c, 9, 35, 100
10, 70560, Note_on_c, 9, 37, 90
10, 70560, Note_on_c, 9, 42, 59
10, 70560, Note_on_c, 9, 70, 80
10, 70577, Note_on_c, 9, 42, 0
10, 70585, Note_on_c, 9, 35, 0
10, 70585, Note_on_c, 9, 37, 0
10, 70585, Note_on_c, 9, 70, 0
10, 70620, Note_on_c, 9, 42, 52
10, 70638, Note_on_c, 9, 42, 0
10, 70680, Note_on_c, 9, 42, 46
10, 70680, Note_on_c, 9, 70, 80
10, 70695, Note_on_c, 9, 42, 0
10, 70705, Note_on_c, 9, 70, 0
10, 70740, Note_on_c, 9, 35, 70
10, 70740, Note_on_c, 9, 37, 90
10, 70740, Note_on_c, 9, 42, 55
10, 70756, Note_on_c, 9, 42, 0
10, 70765, Note_on_c, 9, 37, 0
10, 70765, Note_on_c, 9, 35, 0
10, 70800, Note_on_c, 9, 35, 100
10, 70800, Note_on_c, 9, 70, 80
10, 70800, Note_on_c, 9, 42, 75
10, 70817, Note_on_c, 9, 42, 0
10, 70825, Note_on_c, 9, 70, 0
10, 70825, Note_on_c, 9, 35, 0
10, 70860, Note_on_c, 9, 46, 65
10, 70876, Note_on_c, 9, 46, 0
10, 70920, Note_on_c, 9, 42, 60
10, 70920, Note_on_c, 9, 37, 90
10, 70920, Note_on_c, 9, 70, 80
10, 70937, Note_on_c, 9, 42, 0
10, 70945, Note_on_c, 9, 70, 0
10, 70945, Note_on_c, 9, 37, 0
10, 70980, Note_on_c, 9, 35, 70
10, 70980, Note_on_c, 9, 42, 72
10, 70999, Note_on_c, 9, 42, 0
10, 71005, Note_on_c, 9, 35, 0
10, 71040, Note_on_c, 9, 42, 71
10, 71040, Note_on_c, 9, 70, 80
10, 71040, Note_on_c, 9, 35, 100
10, 71053, Note_on_c, 9, 42, 0
10, 71065, Note_on_c, 9, 35, 0
10, 71065, Note_on_c, 9, 70, 0
10, 71070, Note_on_c, 9, 42, 52
10, 71077, Note_on_c, 9, 42, 0
10, 71100, Note_on_c, 9, 42, 72
10, 71116, Note_on_c, 9, 42, 0
10, 71160, Note_on_c, 9, 46, 51
10, 71160, Note_on_c, 9, 37, 90
10, 71160, Note_on_c, 9, 70, 80
10, 71174, Note_on_c, 9, 46, 0
10, 71185, Note_on_c, 9, 70, 0
10, 71185, Note_on_c, 9, 37, 0
10, 71220, Note_on_c, 9, 42, 78
10, 71220, Note_on_c, 9, 35, 70
10, 71239, Note_on_c, 9, 42, 0
10, 71245, Note_on_c, 9, 35, 0
10, 71280, Note_on_c, 9, 35, 100
10, 71280, Note_on_c, 9, 70, 80
10, 71280, Note_on_c, 9, 42, 57
10, 71295, Note_on_c, 9, 42, 0
10, 71305, Note_on_c, 9, 70, 0
10, 71305, Note_on_c, 9, 35, 0
10, 71340, Note_on_c, 9, 37, 90
10, 71340, Note_on_c, 9, 42, 57
10, 71356, Note_on_c, 9, 42, 0
10, 71365, Note_on_c, 9, 37, 0
10, 71400, Note_on_c, 9, 42, 58
10, 71400, Note_on_c, 9, 70, 80
10, 71416, Note_on_c, 9, 42, 0
10, 71425, Note_on_c, 9, 70, 0
10, 71460, Note_on_c, 9, 35, 70
10, 71460, Note_on_c, 9, 42, 63
10, 71475, Note_on_c, 9, 42, 0
10, 71485, Note_on_c, 9, 35, 0
10, 71520, Note_on_c, 9, 42, 62
10, 71520, Note_on_c, 9, 37, 90
10, 71520, Note_on_c, 9, 70, 80
10, 71520, Note_on_c, 9, 35, 100
10, 71541, Note_on_c, 9, 42, 0
10, 71545, Note_on_c, 9, 37, 0
10, 71545, Note_on_c, 9, 70, 0
10, 71545, Note_on_c, 9, 35, 0
10, 71580, Note_on_c, 9, 42, 56
10, 71598, Note_on_c, 9, 42, 0
10, 71640, Note_on_c, 9, 42, 56
10, 71640, Note_on_c, 9, 70, 80
10, 71655, Note_on_c, 9, 42, 0
10, 71665, Note_on_c, 9, 70, 0
10, 71700, Note_on_c, 9, 35, 70
10, 71700, Note_on_c, 9, 37, 90
10, 71700, Note_on_c, 9, 42, 70
10, 71720, Note_on_c, 9, 42, 0
10, 71725, Note_on_c, 9, 37, 0
10, 71725, Note_on_c, 9, 35, 0
10, 71760, Note_on_c, 9, 42, 81
10, 71760, Note_on_c, 9, 70, 80
10, 71760, Note_on_c, 9, 35, 100
10, 71778, Note_on_c, 9, 42, 0
10, 71785, Note_on_c, 9, 35, 0
10, 71785, Note_on_c, 9, 70, 0
10, 71820, Note_on_c, 9, 46, 69
10, 71837, Note_on_c, 9, 46, 0
10, 71880, Note_on_c, 9, 37, 90
10, 71880, Note_on_c, 9, 70, 80
10, 71880, Note_on_c, 9, 42, 60
10, 71898, Note_on_c, 9, 42, 0
10, 71905, Note_on_c, 9, 70, 0
10, 71905, Note_on_c, 9, 37, 0
10, 71940, Note_on_c, 9, 35, 70
10, 71940, Note_on_c, 9, 42, 59
10, 71960, Note_on_c, 9, 42, 0
10, 71965, Note_on_c, 9, 35, 0
10, 72000, Note_on_c, 9, 42, 61
10, 72000, Note_on_c, 9, 70, 80
10, 72000, Note_on_c, 9, 35, 100
10, 72018, Note_on_c, 9, 42, 0
10, 72025, Note_on_c, 9, 35, 0
10, 72025, Note_on_c, 9, 70, 0
10, 72060, Note_on_c, 9, 42, 57
10, 72079, Note_on_c, 9, 42, 0
10, 72120, Note_on_c, 9, 42, 60
10, 72120, Note_on_c, 9, 70, 80
10, 72120, Note_on_c, 9, 37, 90
10, 72136, Note_on_c, 9, 42, 0
10, 72145, Note_on_c, 9, 37, 0
10, 72145, Note_on_c, 9, 70, 0
10, 72180, Note_on_c, 9, 42, 65
10, 72180, Note_on_c, 9, 48, 50
10, 72180, Note_on_c, 9, 35, 70
10, 72199, Note_on_c, 9, 42, 0
10, 72205, Note_on_c, 9, 35, 0
10, 72205, Note_on_c, 9, 48, 0
10, 72240, Note_on_c, 9, 42, 67
10, 72240, Note_on_c, 9, 70, 80
10, 72240, Note_on_c, 9, 35, 100
10, 72258, Note_on_c, 9, 42, 0
10, 72265, Note_on_c, 9, 35, 0
10, 72265, Note_on_c, 9, 70, 0
10, 72300, Note_on_c, 9, 46, 64
10, 72300, Note_on_c, 9, 37, 90
10, 72317, Note_on_c, 9, 46, 0
10, 72325, Note_on_c, 9, 37, 0
10, 72360, Note_on_c, 9, 70, 80
10, 72360, Note_on_c, 9, 42, 55
10, 72377, Note_on_c, 9, 42, 0
10, 72385, Note_on_c, 9, 70, 0
10, 72420, Note_on_c, 9, 42, 60
10, 72420, Note_on_c, 9, 45, 50
10, 72420, Note_on_c, 9, 35, 70
10, 72438, Note_on_c, 9, 42, 0
10, 72445, Note_on_c, 9, 35, 0
10, 72445, Note_on_c, 9, 45, 0
10, 72480, Note_on_c, 9, 42, 63
10, 72480, Note_on_c, 9, 37, 90
10, 72480, Note_on_c, 9, 70, 80
10, 72480, Note_on_c, 9, 35, 100
10, 72498, Note_on_c, 9, 42, 0
10, 72505, Note_on_c, 9, 37, 0
10, 72505, Note_on_c, 9, 70, 0
10, 72505, Note_on_c, 9, 35, 0
10, 72540, Note_on_c, 9, 42, 71
10, 72553, Note_on_c, 9, 42, 0
10, 72570, Note_on_c, 9, 42, 60
10, 72578, Note_on_c, 9, 42, 0
10, 72600, Note_on_c, 9, 42, 71
10, 72600, Note_on_c, 9, 70, 80
10, 72617, Note_on_c, 9, 42, 0
10, 72625, Note_on_c, 9, 70, 0
10, 72660, Note_on_c, 9, 35, 70
10, 72660, Note_on_c, 9, 37, 90
10, 72660, Note_on_c, 9, 42, 74
10, 72679, Note_on_c, 9, 42, 0
10, 72685, Note_on_c, 9, 37, 0
10, 72685, Note_on_c, 9, 35, 0
10, 72720, Note_on_c, 9, 42, 77
10, 72720, Note_on_c, 9, 70, 80
10, 72720, Note_on_c, 9, 35, 100
10, 72735, Note_on_c, 9, 42, 0
10, 72745, Note_on_c, 9, 35, 0
10, 72745, Note_on_c, 9, 70, 0
10, 72780, Note_on_c, 9, 46, 60
10, 72798, Note_on_c, 9, 46, 0
10, 72840, Note_on_c, 9, 37, 90
10, 72840, Note_on_c, 9, 70, 80
10, 72840, Note_on_c, 9, 42, 56
10, 72859, Note_on_c, 9, 42, 0
10, 72865, Note_on_c, 9, 70, 0
10, 72865, Note_on_c, 9, 37, 0
10, 72900, Note_on_c, 9, 35, 70
10, 72900, Note_on_c, 9, 42, 60
10, 72918, Note_on_c, 9, 42, 0
10, 72925, Note_on_c, 9, 35, 0
10, 72960, Note_on_c, 9, 42, 61
10, 72960, Note_on_c, 9, 70, 80
10, 72960, Note_on_c, 9, 35, 100
10, 72980, Note_on_c, 9, 42, 0
10, 72985, Note_on_c, 9, 35, 0
10, 72985, Note_on_c, 9, 70, 0
10, 73020, Note_on_c, 9, 42, 54
10, 73038, Note_on_c, 9, 42, 0
10, 73080, Note_on_c, 9, 42, 59
10, 73080, Note_on_c, 9, 70, 80
10, 73080, Note_on_c, 9, 37, 90
10, 73097, Note_on_c, 9, 42, 0
10, 73105, Note_on_c, 9, 37, 0
10, 73105, Note_on_c, 9, 70, 0
10, 73140, Note_on_c, 9, 42, 61
10, 73140, Note_on_c, 9, 35, 70
10, 73156, Note_on_c, 9, 42, 0
10, 73165, Note_on_c, 9, 35, 0
10, 73200, Note_on_c, 9, 42, 75
10, 73200, Note_on_c, 9, 35, 100
10, 73200, Note_on_c, 9, 70, 80
10, 73223, Note_on_c, 9, 42, 0
10, 73225, Note_on_c, 9, 70, 0
10, 73225, Note_on_c, 9, 35, 0
10, 73260, Note_on_c, 9, 46, 63
10, 73260, Note_on_c, 9, 37, 90
10, 73276, Note_on_c, 9, 46, 0
10, 73285, Note_on_c, 9, 37, 0
10, 73320, Note_on_c, 9, 70, 80
10, 73320, Note_on_c, 9, 42, 59
10, 73339, Note_on_c, 9, 42, 0
10, 73345, Note_on_c, 9, 70, 0
10, 73380, Note_on_c, 9, 42, 69
10, 73380, Note_on_c, 9, 35, 70
10, 73396, Note_on_c, 9, 42, 0
10, 73405, Note_on_c, 9, 35, 0
10, 73440, Note_on_c, 9, 35, 100
10, 73440, Note_on_c, 9, 37, 90
10, 73440, Note_on_c, 9, 42, 64
10, 73440, Note_on_c, 9, 70, 80
10, 73458, Note_on_c, 9, 42, 0
10, 73465, Note_on_c, 9, 35, 0
10, 73465, Note_on_c, 9, 37, 0
10, 73465, Note_on_c, 9, 70, 0
10, 73500, Note_on_c, 9, 42, 59
10, 73519, Note_on_c, 9, 42, 0
10, 73560, Note_on_c, 9, 42, 52
10, 73560, Note_on_c, 9, 70, 80
10, 73577, Note_on_c, 9, 42, 0
10, 73585, Note_on_c, 9, 70, 0
10, 73620, Note_on_c, 9, 42, 56
10, 73620, Note_on_c, 9, 35, 70
10, 73620, Note_on_c, 9, 37, 90
10, 73638, Note_on_c, 9, 42, 0
10, 73645, Note_on_c, 9, 37, 0
10, 73645, Note_on_c, 9, 35, 0
10, 73680, Note_on_c, 9, 35, 100
10, 73680, Note_on_c, 9, 70, 80
10, 73680, Note_on_c, 9, 42, 63
10, 73698, Note_on_c, 9, 42, 0
10, 73705, Note_on_c, 9, 70, 0
10, 73705, Note_on_c, 9, 35, 0
10, 73740, Note_on_c, 9, 46, 63
10, 73759, Note_on_c, 9, 46, 0
10, 73800, Note_on_c, 9, 42, 47
10, 73800, Note_on_c, 9, 37, 90
10, 73800, Note_on_c, 9, 70, 80
10, 73818, Note_on_c, 9, 42, 0
10, 73825, Note_on_c, 9, 70, 0
10, 73825, Note_on_c, 9, 37, 0
10, 73860, Note_on_c, 9, 42, 45
10, 73860, Note_on_c, 9, 35, 70
10, 73877, Note_on_c, 9, 42, 0
10, 73885, Note_on_c, 9, 35, 0
10, 73920, Note_on_c, 9, 35, 100
10, 73920, Note_on_c, 9, 70, 80
10, 73920, Note_on_c, 9, 42, 45
10, 73939, Note_on_c, 9, 42, 0
10, 73945, Note_on_c, 9, 70, 0
10, 73945, Note_on_c, 9, 35, 0
10, 73980, Note_on_c, 9, 42, 42
10, 73999, Note_on_c, 9, 42, 0
10, 74040, Note_on_c, 9, 37, 90
10, 74040, Note_on_c, 9, 70, 80
10, 74040, Note_on_c, 9, 42, 43
10, 74060, Note_on_c, 9, 42, 0
10, 74065, Note_on_c, 9, 70, 0
10, 74065, Note_on_c, 9, 37, 0
10, 74100, Note_on_c, 9, 42, 46
10, 74100, Note_on_c, 9, 35, 70
10, 74118, Note_on_c, 9, 42, 0
10, 74125, Note_on_c, 9, 35, 0
10, 74160, Note_on_c, 9, 35, 100
10, 74160, Note_on_c, 9, 70, 80
10, 74160, Note_on_c, 9, 42, 72
10, 74180, Note_on_c, 9, 42, 0
10, 74185, Note_on_c, 9, 70, 0
10, 74185, Note_on_c, 9, 35, 0
10, 74220, Note_on_c, 9, 37, 90
10, 74220, Note_on_c, 9, 46, 65
10, 74237, Note_on_c, 9, 46, 0
10, 74245, Note_on_c, 9, 37, 0
10, 74280, Note_on_c, 9, 42, 40
10, 74280, Note_on_c, 9, 70, 80
10, 74298, Note_on_c, 9, 42, 0
10, 74305, Note_on_c, 9, 70, 0
10, 74340, Note_on_c, 9, 42, 56
10, 74340, Note_on_c, 9, 35, 70
10, 74360, Note_on_c, 9, 42, 0
10, 74365, Note_on_c, 9, 35, 0
10, 74400, Note_on_c, 9, 35, 100
10, 74400, Note_on_c, 9, 37, 90
10, 74400, Note_on_c, 9, 70, 80
10, 74400, Note_on_c, 9, 42, 59
10, 74417, Note_on_c, 9, 42, 0
10, 74425, Note_on_c, 9, 35, 0
10, 74425, Note_on_c, 9, 37, 0
10, 74425, Note_on_c, 9, 70, 0
10, 74460, Note_on_c, 9, 42, 52
10, 74478, Note_on_c, 9, 42, 0
10, 74520, Note_on_c, 9, 42, 46
10, 74520, Note_on_c, 9, 70, 80
10, 74535, Note_on_c, 9, 42, 0
10, 74545, Note_on_c, 9, 70, 0
10, 74580, Note_on_c, 9, 35, 70
10, 74580, Note_on_c, 9, 37, 90
10, 74580, Note_on_c, 9, 42, 55
10, 74596, Note_on_c, 9, 42, 0
10, 74605, Note_on_c, 9, 37, 0
10, 74605, Note_on_c, 9, 35, 0
10, 74640, Note_on_c, 9, 35, 100
10, 74640, Note_on_c, 9, 70, 80
10, 74640, Note_on_c, 9, 42, 75
10, 74657, Note_on_c, 9, 42, 0
10, 74665, Note_on_c, 9, 70, 0
10, 74665, Note_on_c, 9, 35, 0
10, 74700, Note_on_c, 9, 46, 65
10, 74716, Note_on_c, 9, 46, 0
10, 74760, Note_on_c, 9, 37, 90
10, 74760, Note_on_c, 9, 70, 80
10, 74760, Note_on_c, 9, 42, 60
10, 74777, Note_on_c, 9, 42, 0
10, 74785, Note_on_c, 9, 70, 0
10, 74785, Note_on_c, 9, 37, 0
10, 74820, Note_on_c, 9, 35, 70
10, 74820, Note_on_c, 9, 42, 72
10, 74839, Note_on_c, 9, 42, 0
10, 74845, Note_on_c, 9, 35, 0
10, 74880, Note_on_c, 9, 42, 71
10, 74893, Note_on_c, 9, 42, 0
10, 74910, Note_on_c, 9, 42, 52
10, 74917, Note_on_c, 9, 42, 0
10, 74940, Note_on_c, 9, 42, 72
10, 74956, Note_on_c, 9, 42, 0
10, 74999, Note_on_c, 9, 70, 80
10, 75000, Note_on_c, 9, 46, 51
10, 75014, Note_on_c, 9, 46, 0
10, 75024, Note_on_c, 9, 70, 0
10, 75059, Note_on_c, 9, 35, 70
10, 75059, Note_on_c, 9, 37, 90
10, 75060, Note_on_c, 9, 42, 78
10, 75079, Note_on_c, 9, 42, 0
10, 75084, Note_on_c, 9, 37, 0
10, 75084, Note_on_c, 9, 35, 0
10, 75119, Note_on_c, 9, 35, 100
10, 75119, Note_on_c, 9, 70, 80
10, 75120, Note_on_c, 9, 42, 57
10, 75135, Note_on_c, 9, 42, 0
10, 75144, Note_on_c, 9, 70, 0
10, 75144, Note_on_c, 9, 35, 0
10, 75180, Note_on_c, 9, 42, 57
10, 75196, Note_on_c, 9, 42, 0
10, 75239, Note_on_c, 9, 37, 90
10, 75239, Note_on_c, 9, 70, 80
10, 75240, Note_on_c, 9, 42, 58
10, 75256, Note_on_c, 9, 42, 0
10, 75264, Note_on_c, 9, 70, 0
10, 75264, Note_on_c, 9, 37, 0
10, 75299, Note_on_c, 9, 35, 70
10, 75300, Note_on_c, 9, 42, 63
10, 75315, Note_on_c, 9, 42, 0
10, 75324, Note_on_c, 9, 35, 0
10, 75359, Note_on_c, 9, 35, 100
10, 75359, Note_on_c, 9, 70, 80
10, 75360, Note_on_c, 9, 42, 62
10, 75381, Note_on_c, 9, 42, 0
10, 75384, Note_on_c, 9, 70, 0
10, 75384, Note_on_c, 9, 35, 0
10, 75420, Note_on_c, 9, 42, 56
10, 75438, Note_on_c, 9, 42, 0
10, 75479, Note_on_c, 9, 37, 90
10, 75479, Note_on_c, 9, 70, 80
10, 75480, Note_on_c, 9, 42, 56
10, 75495, Note_on_c, 9, 42, 0
10, 75504, Note_on_c, 9, 70, 0
10, 75504, Note_on_c, 9, 37, 0
10, 75539, Note_on_c, 9, 35, 70
10, 75540, Note_on_c, 9, 42, 70
10, 75560, Note_on_c, 9, 42, 0
10, 75564, Note_on_c, 9, 35, 0
10, 75599, Note_on_c, 9, 35, 100
10, 75599, Note_on_c, 9, 70, 80
10, 75600, Note_on_c, 9, 42, 81
10, 75618, Note_on_c, 9, 42, 0
10, 75624, Note_on_c, 9, 70, 0
10, 75624, Note_on_c, 9, 35, 0
10, 75659, Note_on_c, 9, 37, 90
10, 75660, Note_on_c, 9, 46, 69
10, 75677, Note_on_c, 9, 46, 0
10, 75684, Note_on_c, 9, 37, 0
10, 75719, Note_on_c, 9, 45, 70
10, 75719, Note_on_c, 9, 70, 80
10, 75720, Note_on_c, 9, 42, 60
10, 75738, Note_on_c, 9, 42, 0
10, 75744, Note_on_c, 9, 70, 0
10, 75744, Note_on_c, 9, 45, 0
10, 75779, Note_on_c, 9, 35, 70
10, 75780, Note_on_c, 9, 42, 59
10, 75800, Note_on_c, 9, 42, 0
10, 75804, Note_on_c, 9, 35, 0
10, 75839, Note_on_c, 9, 35, 100
10, 75839, Note_on_c, 9, 37, 90
10, 75839, Note_on_c, 9, 70, 80
10, 75840, Note_on_c, 9, 42, 61
10, 75858, Note_on_c, 9, 42, 0
10, 75864, Note_on_c, 9, 35, 0
10, 75864, Note_on_c, 9, 37, 0
10, 75864, Note_on_c, 9, 70, 0
10, 75900, Note_on_c, 9, 42, 57
10, 75919, Note_on_c, 9, 42, 0
10, 75959, Note_on_c, 9, 70, 80
10, 75960, Note_on_c, 9, 42, 60
10, 75976, Note_on_c, 9, 42, 0
10, 75984, Note_on_c, 9, 70, 0
10, 76019, Note_on_c, 9, 35, 70
10, 76019, Note_on_c, 9, 37, 90
10, 76020, Note_on_c, 9, 42, 65
10, 76039, Note_on_c, 9, 42, 0
10, 76044, Note_on_c, 9, 37, 0
10, 76044, Note_on_c, 9, 35, 0
10, 76079, Note_on_c, 9, 35, 100
10, 76079, Note_on_c, 9, 70, 80
10, 76080, Note_on_c, 9, 42, 67
10, 76098, Note_on_c, 9, 42, 0
10, 76104, Note_on_c, 9, 70, 0
10, 76104, Note_on_c, 9, 35, 0
10, 76140, Note_on_c, 9, 46, 64
10, 76157, Note_on_c, 9, 46, 0
10, 76199, Note_on_c, 9, 37, 90
10, 76199, Note_on_c, 9, 70, 80
10, 76200, Note_on_c, 9, 42, 55
10, 76217, Note_on_c, 9, 42, 0
10, 76224, Note_on_c, 9, 70, 0
10, 76224, Note_on_c, 9, 37, 0
10, 76259, Note_on_c, 9, 35, 70
10, 76260, Note_on_c, 9, 42, 60
10, 76278, Note_on_c, 9, 42, 0
10, 76284, Note_on_c, 9, 35, 0
10, 76319, Note_on_c, 9, 35, 100
10, 76319, Note_on_c, 9, 70, 80
10, 76320, Note_on_c, 9, 42, 63
10, 76338, Note_on_c, 9, 42, 0
10, 76344, Note_on_c, 9, 70, 0
10, 76344, Note_on_c, 9, 35, 0
10, 76380, Note_on_c, 9, 42, 71
10, 76393, Note_on_c, 9, 42, 0
10, 76410, Note_on_c, 9, 42, 60
10, 76418, Note_on_c, 9, 42, 0
10, 76439, Note_on_c, 9, 37, 90
10, 76439, Note_on_c, 9, 70, 80
10, 76440, Note_on_c, 9, 42, 71
10, 76457, Note_on_c, 9, 42, 0
10, 76464, Note_on_c, 9, 70, 0
10, 76464, Note_on_c, 9, 37, 0
10, 76499, Note_on_c, 9, 35, 70
10, 76500, Note_on_c, 9, 42, 74
10, 76519, Note_on_c, 9, 42, 0
10, 76524, Note_on_c, 9, 35, 0
10, 76559, Note_on_c, 9, 35, 100
10, 76559, Note_on_c, 9, 70, 80
10, 76560, Note_on_c, 9, 42, 77
10, 76575, Note_on_c, 9, 42, 0
10, 76584, Note_on_c, 9, 70, 0
10, 76584, Note_on_c, 9, 35, 0
10, 76619, Note_on_c, 9, 37, 90
10, 76620, Note_on_c, 9, 46, 60
10, 76638, Note_on_c, 9, 46, 0
10, 76644, Note_on_c, 9, 37, 0
10, 76679, Note_on_c, 9, 45, 70
10, 76679, Note_on_c, 9, 70, 80
10, 76680, Note_on_c, 9, 42, 56
10, 76699, Note_on_c, 9, 42, 0
10, 76704, Note_on_c, 9, 70, 0
10, 76704, Note_on_c, 9, 45, 0
10, 76739, Note_on_c, 9, 35, 70
10, 76740, Note_on_c, 9, 42, 60
10, 76758, Note_on_c, 9, 42, 0
10, 76764, Note_on_c, 9, 35, 0
10, 76800, Note_on_c, 9, 35, 100
10, 76800, Note_on_c, 9, 70, 80
10, 76800, Note_on_c, 9, 42, 61
10, 76820, Note_on_c, 9, 42, 0
10, 76825, Note_on_c, 9, 70, 0
10, 76825, Note_on_c, 9, 35, 0
10, 76860, Note_on_c, 9, 42, 54
10, 76878, Note_on_c, 9, 42, 0
10, 76920, Note_on_c, 9, 41, 90
10, 76920, Note_on_c, 9, 70, 80
10, 76920, Note_on_c, 9, 42, 59
10, 76937, Note_on_c, 9, 42, 0
10, 76945, Note_on_c, 9, 70, 0
10, 76945, Note_on_c, 9, 41, 0
10, 76980, Note_on_c, 9, 35, 70
10, 76980, Note_on_c, 9, 42, 61
10, 76996, Note_on_c, 9, 42, 0
10, 77005, Note_on_c, 9, 35, 0
10, 77040, Note_on_c, 9, 42, 75
10, 77040, Note_on_c, 9, 38, 90
10, 77040, Note_on_c, 9, 48, 80
10, 77040, Note_on_c, 9, 35, 100
10, 77040, Note_on_c, 9, 70, 80
10, 77063, Note_on_c, 9, 42, 0
10, 77065, Note_on_c, 9, 35, 0
10, 77065, Note_on_c, 9, 38, 0
10, 77065, Note_on_c, 9, 48, 0
10, 77065, Note_on_c, 9, 70, 0
10, 77100, Note_on_c, 9, 45, 90
10, 77100, Note_on_c, 9, 46, 63
10, 77116, Note_on_c, 9, 46, 0
10, 77125, Note_on_c, 9, 45, 0
10, 77160, Note_on_c, 9, 42, 59
10, 77160, Note_on_c, 9, 70, 80
10, 77179, Note_on_c, 9, 42, 0
10, 77185, Note_on_c, 9, 70, 0
10, 77220, Note_on_c, 9, 42, 69
10, 77220, Note_on_c, 9, 35, 70
10, 77220, Note_on_c, 9, 41, 100
10, 77236, Note_on_c, 9, 42, 0
10, 77245, Note_on_c, 9, 41, 0
10, 77245, Note_on_c, 9, 35, 0
10, 77280, Note_on_c, 9, 42, 64
10, 77280, Note_on_c, 9, 35, 100
10, 77280, Note_on_c, 9, 49, 50
10, 77280, Note_on_c, 9, 70, 80
10, 77280, Note_on_c, 9, 37, 90
10, 77298, Note_on_c, 9, 42, 0
10, 77305, Note_on_c, 9, 70, 0
10, 77305, Note_on_c, 9, 35, 0
10, 77305, Note_on_c, 9, 49, 0
10, 77305, Note_on_c, 9, 37, 0
10, 77340, Note_on_c, 9, 42, 59
10, 77359, Note_on_c, 9, 42, 0
10, 77400, Note_on_c, 9, 70, 80
10, 77400, Note_on_c, 9, 42, 52
10, 77417, Note_on_c, 9, 42, 0
10, 77425, Note_on_c, 9, 70, 0
10, 77460, Note_on_c, 9, 42, 56
10, 77460, Note_on_c, 9, 37, 90
10, 77460, Note_on_c, 9, 35, 70
10, 77478, Note_on_c, 9, 42, 0
10, 77485, Note_on_c, 9, 35, 0
10, 77485, Note_on_c, 9, 37, 0
10, 77520, Note_on_c, 9, 42, 63
10, 77520, Note_on_c, 9, 70, 80
10, 77520, Note_on_c, 9, 35, 100
10, 77538, Note_on_c, 9, 42, 0
10, 77545, Note_on_c, 9, 35, 0
10, 77545, Note_on_c, 9, 70, 0
10, 77580, Note_on_c, 9, 46, 63
10, 77599, Note_on_c, 9, 46, 0
10, 77640, Note_on_c, 9, 37, 90
10, 77640, Note_on_c, 9, 70, 80
10, 77640, Note_on_c, 9, 42, 47
10, 77658, Note_on_c, 9, 42, 0
10, 77665, Note_on_c, 9, 70, 0
10, 77665, Note_on_c, 9, 37, 0
10, 77700, Note_on_c, 9, 35, 70
10, 77700, Note_on_c, 9, 42, 45
10, 77717, Note_on_c, 9, 42, 0
10, 77725, Note_on_c, 9, 35, 0
10, 77760, Note_on_c, 9, 35, 100
10, 77760, Note_on_c, 9, 70, 80
10, 77760, Note_on_c, 9, 42, 45
10, 77779, Note_on_c, 9, 42, 0
10, 77785, Note_on_c, 9, 70, 0
10, 77785, Note_on_c, 9, 35, 0
10, 77820, Note_on_c, 9, 42, 42
10, 77839, Note_on_c, 9, 42, 0
10, 77880, Note_on_c, 9, 37, 90
10, 77880, Note_on_c, 9, 70, 80
10, 77880, Note_on_c, 9, 42, 43
10, 77900, Note_on_c, 9, 42, 0
10, 77905, Note_on_c, 9, 70, 0
10, 77905, Note_on_c, 9, 37, 0
10, 77940, Note_on_c, 9, 35, 70
10, 77940, Note_on_c, 9, 42, 46
10, 77958, Note_on_c, 9, 42, 0
10, 77965, Note_on_c, 9, 35, 0
10, 78000, Note_on_c, 9, 42, 72
10, 78000, Note_on_c, 9, 70, 80
10, 78000, Note_on_c, 9, 35, 100
10, 78020, Note_on_c, 9, 42, 0
10, 78025, Note_on_c, 9, 35, 0
10, 78025, Note_on_c, 9, 70, 0
10, 78060, Note_on_c, 9, 46, 65
10, 78060, Note_on_c, 9, 37, 90
10, 78077, Note_on_c, 9, 46, 0
10, 78085, Note_on_c, 9, 37, 0
10, 78120, Note_on_c, 9, 45, 70
10, 78120, Note_on_c, 9, 70, 80
10, 78120, Note_on_c, 9, 42, 40
10, 78138, Note_on_c, 9, 42, 0
10, 78145, Note_on_c, 9, 70, 0
10, 78145, Note_on_c, 9, 45, 0
10, 78180, Note_on_c, 9, 35, 70
10, 78180, Note_on_c, 9, 42, 56
10, 78200, Note_on_c, 9, 42, 0
10, 78205, Note_on_c, 9, 35, 0
10, 78240, Note_on_c, 9, 42, 59
10, 78240, Note_on_c, 9, 37, 90
10, 78240, Note_on_c, 9, 70, 80
10, 78240, Note_on_c, 9, 35, 100
10, 78257, Note_on_c, 9, 42, 0
10, 78265, Note_on_c, 9, 37, 0
10, 78265, Note_on_c, 9, 70, 0
10, 78265, Note_on_c, 9, 35, 0
10, 78300, Note_on_c, 9, 42, 52
10, 78318, Note_on_c, 9, 42, 0
10, 78360, Note_on_c, 9, 42, 46
10, 78360, Note_on_c, 9, 70, 80
10, 78375, Note_on_c, 9, 42, 0
10, 78385, Note_on_c, 9, 70, 0
10, 78420, Note_on_c, 9, 35, 70
10, 78420, Note_on_c, 9, 37, 90
10, 78420, Note_on_c, 9, 42, 55
10, 78436, Note_on_c, 9, 42, 0
10, 78445, Note_on_c, 9, 37, 0
10, 78445, Note_on_c, 9, 35, 0
10, 78480, Note_on_c, 9, 42, 75
10, 78480, Note_on_c, 9, 70, 80
10, 78480, Note_on_c, 9, 35, 100
10, 78497, Note_on_c, 9, 42, 0
10, 78505, Note_on_c, 9, 35, 0
10, 78505, Note_on_c, 9, 70, 0
10, 78540, Note_on_c, 9, 46, 65
10, 78556, Note_on_c, 9, 46, 0
10, 78600, Note_on_c, 9, 37, 90
10, 78600, Note_on_c, 9, 70, 80
10, 78600, Note_on_c, 9, 42, 60
10, 78617, Note_on_c, 9, 42, 0
10, 78625, Note_on_c, 9, 70, 0
10, 78625, Note_on_c, 9, 37, 0
10, 78660, Note_on_c, 9, 35, 70
10, 78660, Note_on_c, 9, 42, 72
10, 78679, Note_on_c, 9, 42, 0
10, 78685, Note_on_c, 9, 35, 0
10, 78720, Note_on_c, 9, 42, 71
10, 78720, Note_on_c, 9, 70, 80
10, 78720, Note_on_c, 9, 35, 100
10, 78733, Note_on_c, 9, 42, 0
10, 78745, Note_on_c, 9, 35, 0
10, 78745, Note_on_c, 9, 70, 0
10, 78750, Note_on_c, 9, 42, 52
10, 78757, Note_on_c, 9, 42, 0
10, 78780, Note_on_c, 9, 42, 72
10, 78796, Note_on_c, 9, 42, 0
10, 78840, Note_on_c, 9, 37, 90
10, 78840, Note_on_c, 9, 70, 80
10, 78840, Note_on_c, 9, 46, 51
10, 78854, Note_on_c, 9, 46, 0
10, 78865, Note_on_c, 9, 70, 0
10, 78865, Note_on_c, 9, 37, 0
10, 78900, Note_on_c, 9, 35, 70
10, 78900, Note_on_c, 9, 42, 78
10, 78919, Note_on_c, 9, 42, 0
10, 78925, Note_on_c, 9, 35, 0
10, 78960, Note_on_c, 9, 42, 57
10, 78960, Note_on_c, 9, 70, 80
10, 78960, Note_on_c, 9, 35, 100
10, 78975, Note_on_c, 9, 42, 0
10, 78985, Note_on_c, 9, 35, 0
10, 78985, Note_on_c, 9, 70, 0
10, 79020, Note_on_c, 9, 42, 57
10, 79020, Note_on_c, 9, 37, 90
10, 79036, Note_on_c, 9, 42, 0
10, 79045, Note_on_c, 9, 37, 0
10, 79080, Note_on_c, 9, 45, 70
10, 79080, Note_on_c, 9, 70, 80
10, 79080, Note_on_c, 9, 42, 58
10, 79096, Note_on_c, 9, 42, 0
10, 79105, Note_on_c, 9, 70, 0
10, 79105, Note_on_c, 9, 45, 0
10, 79140, Note_on_c, 9, 42, 63
10, 79140, Note_on_c, 9, 35, 70
10, 79155, Note_on_c, 9, 42, 0
10, 79165, Note_on_c, 9, 35, 0
10, 79200, Note_on_c, 9, 42, 62
10, 79200, Note_on_c, 9, 35, 100
10, 79200, Note_on_c, 9, 70, 80
10, 79200, Note_on_c, 9, 37, 90
10, 79221, Note_on_c, 9, 42, 0
10, 79225, Note_on_c, 9, 35, 0
10, 79225, Note_on_c, 9, 70, 0
10, 79225, Note_on_c, 9, 37, 0
10, 79260, Note_on_c, 9, 42, 56
10, 79278, Note_on_c, 9, 42, 0
10, 79320, Note_on_c, 9, 70, 80
10, 79320, Note_on_c, 9, 42, 56
10, 79335, Note_on_c, 9, 42, 0
10, 79345, Note_on_c, 9, 70, 0
10, 79380, Note_on_c, 9, 42, 70
10, 79380, Note_on_c, 9, 37, 90
10, 79380, Note_on_c, 9, 35, 70
10, 79400, Note_on_c, 9, 42, 0
10, 79405, Note_on_c, 9, 35, 0
10, 79405, Note_on_c, 9, 37, 0
10, 79440, Note_on_c, 9, 42, 81
10, 79440, Note_on_c, 9, 35, 100
10, 79440, Note_on_c, 9, 70, 80
10, 79458, Note_on_c, 9, 42, 0
10, 79465, Note_on_c, 9, 70, 0
10, 79465, Note_on_c, 9, 35, 0
10, 79500, Note_on_c, 9, 46, 69
10, 79517, Note_on_c, 9, 46, 0
10, 79560, Note_on_c, 9, 42, 60
10, 79560, Note_on_c, 9, 70, 80
10, 79560, Note_on_c, 9, 37, 90
10, 79578, Note_on_c, 9, 42, 0
10, 79585, Note_on_c, 9, 37, 0
10, 79585, Note_on_c, 9, 70, 0
10, 79620, Note_on_c, 9, 42, 59
10, 79620, Note_on_c, 9, 35, 70
10, 79640, Note_on_c, 9, 42, 0
10, 79645, Note_on_c, 9, 35, 0
10, 79680, Note_on_c, 9, 42, 61
10, 79680, Note_on_c, 9, 35, 100
10, 79680, Note_on_c, 9, 70, 80
10, 79698, Note_on_c, 9, 42, 0
10, 79705, Note_on_c, 9, 70, 0
10, 79705, Note_on_c, 9, 35, 0
10, 79740, Note_on_c, 9, 42, 57
10, 79759, Note_on_c, 9, 42, 0
10, 79800, Note_on_c, 9, 42, 60
10, 79800, Note_on_c, 9, 37, 90
10, 79800, Note_on_c, 9, 70, 80
10, 79816, Note_on_c, 9, 42, 0
10, 79825, Note_on_c, 9, 70, 0
10, 79825, Note_on_c, 9, 37, 0
10, 79860, Note_on_c, 9, 42, 65
10, 79860, Note_on_c, 9, 35, 70
10, 79879, Note_on_c, 9, 42, 0
10, 79885, Note_on_c, 9, 35, 0
10, 79920, Note_on_c, 9, 35, 100
10, 79920, Note_on_c, 9, 70, 80
10, 79920, Note_on_c, 9, 42, 67
10, 79938, Note_on_c, 9, 42, 0
10, 79945, Note_on_c, 9, 70, 0
10, 79945, Note_on_c, 9, 35, 0
10, 79980, Note_on_c, 9, 37, 90
10, 79980, Note_on_c, 9, 46, 64
10, 79997, Note_on_c, 9, 46, 0
10, 80005, Note_on_c, 9, 37, 0
10, 80040, Note_on_c, 9, 42, 55
10, 80040, Note_on_c, 9, 70, 80
10, 80057, Note_on_c, 9, 42, 0
10, 80065, Note_on_c, 9, 70, 0
10, 80100, Note_on_c, 9, 35, 70
10, 80100, Note_on_c, 9, 42, 60
10, 80118, Note_on_c, 9, 42, 0
10, 80125, Note_on_c, 9, 35, 0
10, 80160, Note_on_c, 9, 42, 63
10, 80160, Note_on_c, 9, 37, 90
10, 80160, Note_on_c, 9, 70, 80
10, 80160, Note_on_c, 9, 35, 100
10, 80178, Note_on_c, 9, 42, 0
10, 80185, Note_on_c, 9, 37, 0
10, 80185, Note_on_c, 9, 70, 0
10, 80185, Note_on_c, 9, 35, 0
10, 80220, Note_on_c, 9, 42, 71
10, 80233, Note_on_c, 9, 42, 0
10, 80250, Note_on_c, 9, 42, 60
10, 80258, Note_on_c, 9, 42, 0
10, 80280, Note_on_c, 9, 42, 71
10, 80280, Note_on_c, 9, 70, 80
10, 80297, Note_on_c, 9, 42, 0
10, 80305, Note_on_c, 9, 70, 0
10, 80340, Note_on_c, 9, 42, 74
10, 80340, Note_on_c, 9, 35, 70
10, 80340, Note_on_c, 9, 37, 90
10, 80359, Note_on_c, 9, 42, 0
10, 80365, Note_on_c, 9, 37, 0
10, 80365, Note_on_c, 9, 35, 0
10, 80400, Note_on_c, 9, 35, 100
10, 80400, Note_on_c, 9, 70, 80
10, 80400, Note_on_c, 9, 42, 77
10, 80415, Note_on_c, 9, 42, 0
10, 80425, Note_on_c, 9, 70, 0
10, 80425, Note_on_c, 9, 35, 0
10, 80460, Note_on_c, 9, 46, 60
10, 80478, Note_on_c, 9, 46, 0
10, 80520, Note_on_c, 9, 42, 56
10, 80520, Note_on_c, 9, 70, 80
10, 80520, Note_on_c, 9, 37, 90
10, 80539, Note_on_c, 9, 42, 0
10, 80545, Note_on_c, 9, 37, 0
10, 80545, Note_on_c, 9, 70, 0
10, 80580, Note_on_c, 9, 42, 60
10, 80580, Note_on_c, 9, 35, 70
10, 80598, Note_on_c, 9, 42, 0
10, 80605, Note_on_c, 9, 35, 0
10, 80640, Note_on_c, 9, 42, 61
10, 80640, Note_on_c, 9, 35, 100
10, 80640, Note_on_c, 9, 70, 80
10, 80660, Note_on_c, 9, 42, 0
10, 80665, Note_on_c, 9, 70, 0
10, 80665, Note_on_c, 9, 35, 0
10, 80700, Note_on_c, 9, 42, 54
10, 80718, Note_on_c, 9, 42, 0
10, 80760, Note_on_c, 9, 42, 59
10, 80760, Note_on_c, 9, 70, 80
10, 80760, Note_on_c, 9, 37, 90
10, 80777, Note_on_c, 9, 42, 0
10, 80785, Note_on_c, 9, 37, 0
10, 80785, Note_on_c, 9, 70, 0
10, 80820, Note_on_c, 9, 42, 61
10, 80820, Note_on_c, 9, 35, 70
10, 80836, Note_on_c, 9, 42, 0
10, 80845, Note_on_c, 9, 35, 0
10, 80880, Note_on_c, 9, 35, 100
10, 80880, Note_on_c, 9, 70, 80
10, 80880, Note_on_c, 9, 42, 75
10, 80903, Note_on_c, 9, 42, 0
10, 80905, Note_on_c, 9, 70, 0
10, 80905, Note_on_c, 9, 35, 0
10, 80940, Note_on_c, 9, 37, 90
10, 80940, Note_on_c, 9, 46, 63
10, 80956, Note_on_c, 9, 46, 0
10, 80965, Note_on_c, 9, 37, 0
10, 81000, Note_on_c, 9, 42, 59
10, 81000, Note_on_c, 9, 70, 80
10, 81019, Note_on_c, 9, 42, 0
10, 81025, Note_on_c, 9, 70, 0
10, 81060, Note_on_c, 9, 42, 69
10, 81060, Note_on_c, 9, 35, 70
10, 81076, Note_on_c, 9, 42, 0
10, 81085, Note_on_c, 9, 35, 0
10, 81120, Note_on_c, 9, 35, 100
10, 81120, Note_on_c, 9, 37, 90
10, 81120, Note_on_c, 9, 70, 80
10, 81120, Note_on_c, 9, 42, 64
10, 81138, Note_on_c, 9, 42, 0
10, 81145, Note_on_c, 9, 35, 0
10, 81145, Note_on_c, 9, 37, 0
10, 81145, Note_on_c, 9, 70, 0
10, 81180, Note_on_c, 9, 42, 59
10, 81199, Note_on_c, 9, 42, 0
10, 81240, Note_on_c, 9, 42, 52
10, 81240, Note_on_c, 9, 70, 80
10, 81257, Note_on_c, 9, 42, 0
10, 81265, Note_on_c, 9, 70, 0
10, 81300, Note_on_c, 9, 35, 70
10, 81300, Note_on_c, 9, 37, 90
10, 81300, Note_on_c, 9, 42, 56
10, 81318, Note_on_c, 9, 42, 0
10, 81325, Note_on_c, 9, 37, 0
10, 81325, Note_on_c, 9, 35, 0
10, 81360, Note_on_c, 9, 35, 100
10, 81360, Note_on_c, 9, 70, 80
10, 81360, Note_on_c, 9, 42, 63
10, 81378, Note_on_c, 9, 42, 0
10, 81385, Note_on_c, 9, 70, 0
10, 81385, Note_on_c, 9, 35, 0
10, 81420, Note_on_c, 9, 46, 63
10, 81439, Note_on_c, 9, 46, 0
10, 81480, Note_on_c, 9, 37, 90
10, 81480, Note_on_c, 9, 70, 80
10, 81480, Note_on_c, 9, 42, 47
10, 81498, Note_on_c, 9, 42, 0
10, 81505, Note_on_c, 9, 70, 0
10, 81505, Note_on_c, 9, 37, 0
10, 81540, Note_on_c, 9, 35, 70
10, 81540, Note_on_c, 9, 42, 45
10, 81557, Note_on_c, 9, 42, 0
10, 81565, Note_on_c, 9, 35, 0
10, 81600, Note_on_c, 9, 42, 45
10, 81600, Note_on_c, 9, 70, 80
10, 81600, Note_on_c, 9, 35, 100
10, 81619, Note_on_c, 9, 42, 0
10, 81625, Note_on_c, 9, 35, 0
10, 81625, Note_on_c, 9, 70, 0
10, 81660, Note_on_c, 9, 42, 42
10, 81679, Note_on_c, 9, 42, 0
10, 81720, Note_on_c, 9, 37, 90
10, 81720, Note_on_c, 9, 70, 80
10, 81720, Note_on_c, 9, 42, 43
10, 81740, Note_on_c, 9, 42, 0
10, 81745, Note_on_c, 9, 70, 0
10, 81745, Note_on_c, 9, 37, 0
10, 81780, Note_on_c, 9, 35, 70
10, 81780, Note_on_c, 9, 42, 46
10, 81798, Note_on_c, 9, 42, 0
10, 81805, Note_on_c, 9, 35, 0
10, 81840, Note_on_c, 9, 35, 100
10, 81840, Note_on_c, 9, 70, 80
10, 81840, Note_on_c, 9, 42, 72
10, 81860, Note_on_c, 9, 42, 0
10, 81865, Note_on_c, 9, 70, 0
10, 81865, Note_on_c, 9, 35, 0
10, 81900, Note_on_c, 9, 37, 90
10, 81900, Note_on_c, 9, 46, 65
10, 81917, Note_on_c, 9, 46, 0
10, 81925, Note_on_c, 9, 37, 0
10, 81960, Note_on_c, 9, 42, 40
10, 81960, Note_on_c, 9, 70, 80
10, 81978, Note_on_c, 9, 42, 0
10, 81985, Note_on_c, 9, 70, 0
10, 82020, Note_on_c, 9, 42, 56
10, 82020, Note_on_c, 9, 35, 70
10, 82040, Note_on_c, 9, 42, 0
10, 82045, Note_on_c, 9, 35, 0
10, 82080, Note_on_c, 9, 35, 100
10, 82080, Note_on_c, 9, 37, 90
10, 82080, Note_on_c, 9, 42, 59
10, 82080, Note_on_c, 9, 70, 80
10, 82097, Note_on_c, 9, 42, 0
10, 82105, Note_on_c, 9, 35, 0
10, 82105, Note_on_c, 9, 37, 0
10, 82105, Note_on_c, 9, 70, 0
10, 82140, Note_on_c, 9, 42, 52
10, 82158, Note_on_c, 9, 42, 0
10, 82200, Note_on_c, 9, 42, 46
10, 82200, Note_on_c, 9, 70, 80
10, 82215, Note_on_c, 9, 42, 0
10, 82225, Note_on_c, 9, 70, 0
10, 82260, Note_on_c, 9, 35, 70
10, 82260, Note_on_c, 9, 37, 90
10, 82260, Note_on_c, 9, 42, 55
10, 82276, Note_on_c, 9, 42, 0
10, 82285, Note_on_c, 9, 37, 0
10, 82285, Note_on_c, 9, 35, 0
10, 82320, Note_on_c, 9, 35, 100
10, 82320, Note_on_c, 9, 70, 80
10, 82320, Note_on_c, 9, 42, 75
10, 82337, Note_on_c, 9, 42, 0
10, 82345, Note_on_c, 9, 70, 0
10, 82345, Note_on_c, 9, 35, 0
10, 82380, Note_on_c, 9, 46, 65
10, 82396, Note_on_c, 9, 46, 0
10, 82440, Note_on_c, 9, 42, 60
10, 82440, Note_on_c, 9, 37, 90
10, 82440, Note_on_c, 9, 70, 80
10, 82457, Note_on_c, 9, 42, 0
10, 82465, Note_on_c, 9, 70, 0
10, 82465, Note_on_c, 9, 37, 0
10, 82500, Note_on_c, 9, 35, 70
10, 82500, Note_on_c, 9, 42, 72
10, 82519, Note_on_c, 9, 42, 0
10, 82525, Note_on_c, 9, 35, 0
10, 82560, Note_on_c, 9, 42, 71
10, 82560, Note_on_c, 9, 70, 80
10, 82560, Note_on_c, 9, 35, 100
10, 82573, Note_on_c, 9, 42, 0
10, 82585, Note_on_c, 9, 35, 0
10, 82585, Note_on_c, 9, 70, 0
10, 82590, Note_on_c, 9, 42, 52
10, 82597, Note_on_c, 9, 42, 0
10, 82620, Note_on_c, 9, 42, 72
10, 82636, Note_on_c, 9, 42, 0
10, 82680, Note_on_c, 9, 46, 51
10, 82680, Note_on_c, 9, 37, 90
10, 82680, Note_on_c, 9, 70, 80
10, 82694, Note_on_c, 9, 46, 0
10, 82705, Note_on_c, 9, 70, 0
10, 82705, Note_on_c, 9, 37, 0
10, 82740, Note_on_c, 9, 42, 78
10, 82740, Note_on_c, 9, 35, 70
10, 82759, Note_on_c, 9, 42, 0
10, 82765, Note_on_c, 9, 35, 0
10, 82800, Note_on_c, 9, 35, 100
10, 82800, Note_on_c, 9, 70, 80
10, 82800, Note_on_c, 9, 42, 57
10, 82815, Note_on_c, 9, 42, 0
10, 82825, Note_on_c, 9, 70, 0
10, 82825, Note_on_c, 9, 35, 0
10, 82860, Note_on_c, 9, 42, 57
10, 82860, Note_on_c, 9, 37, 90
10, 82876, Note_on_c, 9, 42, 0
10, 82885, Note_on_c, 9, 37, 0
10, 82920, Note_on_c, 9, 42, 58
10, 82920, Note_on_c, 9, 70, 80
10, 82936, Note_on_c, 9, 42, 0
10, 82945, Note_on_c, 9, 70, 0
10, 82980, Note_on_c, 9, 35, 70
10, 82980, Note_on_c, 9, 42, 63
10, 82995, Note_on_c, 9, 42, 0
10, 83005, Note_on_c, 9, 35, 0
10, 83040, Note_on_c, 9, 42, 62
10, 83040, Note_on_c, 9, 37, 90
10, 83040, Note_on_c, 9, 70, 80
10, 83040, Note_on_c, 9, 35, 100
10, 83061, Note_on_c, 9, 42, 0
10, 83065, Note_on_c, 9, 37, 0
10, 83065, Note_on_c, 9, 70, 0
10, 83065, Note_on_c, 9, 35, 0
10, 83100, Note_on_c, 9, 42, 56
10, 83118, Note_on_c, 9, 42, 0
10, 83160, Note_on_c, 9, 70, 80
10, 83160, Note_on_c, 9, 42, 56
10, 83175, Note_on_c, 9, 42, 0
10, 83185, Note_on_c, 9, 70, 0
10, 83220, Note_on_c, 9, 35, 70
10, 83220, Note_on_c, 9, 37, 90
10, 83220, Note_on_c, 9, 42, 70
10, 83240, Note_on_c, 9, 42, 0
10, 83245, Note_on_c, 9, 37, 0
10, 83245, Note_on_c, 9, 35, 0
10, 83280, Note_on_c, 9, 35, 100
10, 83280, Note_on_c, 9, 70, 80
10, 83280, Note_on_c, 9, 42, 81
10, 83298, Note_on_c, 9, 42, 0
10, 83305, Note_on_c, 9, 70, 0
10, 83305, Note_on_c, 9, 35, 0
10, 83340, Note_on_c, 9, 46, 69
10, 83357, Note_on_c, 9, 46, 0
10, 83400, Note_on_c, 9, 42, 60
10, 83400, Note_on_c, 9, 37, 90
10, 83400, Note_on_c, 9, 70, 80
10, 83418, Note_on_c, 9, 42, 0
10, 83425, Note_on_c, 9, 70, 0
10, 83425, Note_on_c, 9, 37, 0
10, 83460, Note_on_c, 9, 42, 59
10, 83460, Note_on_c, 9, 35, 70
10, 83480, Note_on_c, 9, 42, 0
10, 83485, Note_on_c, 9, 35, 0
10, 83520, Note_on_c, 9, 35, 100
10, 83520, Note_on_c, 9, 70, 80
10, 83520, Note_on_c, 9, 42, 61
10, 83538, Note_on_c, 9, 42, 0
10, 83545, Note_on_c, 9, 70, 0
10, 83545, Note_on_c, 9, 35, 0
10, 83580, Note_on_c, 9, 42, 57
10, 83599, Note_on_c, 9, 42, 0
10, 83640, Note_on_c, 9, 37, 90
10, 83640, Note_on_c, 9, 70, 80
10, 83640, Note_on_c, 9, 42, 60
10, 83656, Note_on_c, 9, 42, 0
10, 83665, Note_on_c, 9, 70, 0
10, 83665, Note_on_c, 9, 37, 0
10, 83700, Note_on_c, 9, 35, 70
10, 83700, Note_on_c, 9, 42, 65
10, 83719, Note_on_c, 9, 42, 0
10, 83725, Note_on_c, 9, 35, 0
10, 83760, Note_on_c, 9, 42, 67
10, 83760, Note_on_c, 9, 70, 80
10, 83760, Note_on_c, 9, 35, 100
10, 83778, Note_on_c, 9, 42, 0
10, 83785, Note_on_c, 9, 35, 0
10, 83785, Note_on_c, 9, 70, 0
10, 83820, Note_on_c, 9, 46, 64
10, 83820, Note_on_c, 9, 37, 90
10, 83837, Note_on_c, 9, 46, 0
10, 83845, Note_on_c, 9, 37, 0
10, 83880, Note_on_c, 9, 70, 80
10, 83880, Note_on_c, 9, 42, 55
10, 83897, Note_on_c, 9, 42, 0
10, 83905, Note_on_c, 9, 70, 0
10, 83940, Note_on_c, 9, 42, 60
10, 83940, Note_on_c, 9, 35, 70
10, 83958, Note_on_c, 9, 42, 0
10, 83965, Note_on_c, 9, 35, 0
10, 84000, Note_on_c, 9, 42, 63
10, 84000, Note_on_c, 9, 35, 100
10, 84000, Note_on_c, 9, 70, 80
10, 84000, Note_on_c, 9, 37, 90
10, 84018, Note_on_c, 9, 42, 0
10, 84025, Note_on_c, 9, 35, 0
10, 84025, Note_on_c, 9, 70, 0
10, 84025, Note_on_c, 9, 37, 0
10, 84060, Note_on_c, 9, 42, 71
10, 84073, Note_on_c, 9, 42, 0
10, 84090, Note_on_c, 9, 42, 60
10, 84098, Note_on_c, 9, 42, 0
10, 84120, Note_on_c, 9, 42, 71
10, 84120, Note_on_c, 9, 70, 80
10, 84137, Note_on_c, 9, 42, 0
10, 84145, Note_on_c, 9, 70, 0
10, 84180, Note_on_c, 9, 35, 70
10, 84180, Note_on_c, 9, 37, 90
10, 84180, Note_on_c, 9, 42, 74
10, 84199, Note_on_c, 9, 42, 0
10, 84205, Note_on_c, 9, 37, 0
10, 84205, Note_on_c, 9, 35, 0
10, 84240, Note_on_c, 9, 42, 77
10, 84240, Note_on_c, 9, 70, 80
10, 84240, Note_on_c, 9, 35, 100
10, 84255, Note_on_c, 9, 42, 0
10, 84265, Note_on_c, 9, 35, 0
10, 84265, Note_on_c, 9, 70, 0
10, 84300, Note_on_c, 9, 46, 60
10, 84318, Note_on_c, 9, 46, 0
10, 84360, Note_on_c, 9, 37, 90
10, 84360, Note_on_c, 9, 70, 80
10, 84360, Note_on_c, 9, 42, 56
10, 84379, Note_on_c, 9, 42, 0
10, 84385, Note_on_c, 9, 70, 0
10, 84385, Note_on_c, 9, 37, 0
10, 84420, Note_on_c, 9, 35, 70
10, 84420, Note_on_c, 9, 42, 60
10, 84438, Note_on_c, 9, 42, 0
10, 84445, Note_on_c, 9, 35, 0
10, 84480, Note_on_c, 9, 42, 61
10, 84480, Note_on_c, 9, 70, 80
10, 84480, Note_on_c, 9, 35, 100
10, 84500, Note_on_c, 9, 42, 0
10, 84505, Note_on_c, 9, 35, 0
10, 84505, Note_on_c, 9, 70, 0
10, 84540, Note_on_c, 9, 42, 54
10, 84558, Note_on_c, 9, 42, 0
10, 84600, Note_on_c, 9, 42, 59
10, 84600, Note_on_c, 9, 37, 90
10, 84600, Note_on_c, 9, 70, 80
10, 84617, Note_on_c, 9, 42, 0
10, 84625, Note_on_c, 9, 70, 0
10, 84625, Note_on_c, 9, 37, 0
10, 84660, Note_on_c, 9, 42, 61
10, 84660, Note_on_c, 9, 35, 70
10, 84676, Note_on_c, 9, 42, 0
10, 84685, Note_on_c, 9, 35, 0
10, 84720, Note_on_c, 9, 35, 100
10, 84720, Note_on_c, 9, 70, 80
10, 84720, Note_on_c, 9, 42, 75
10, 84743, Note_on_c, 9, 42, 0
10, 84745, Note_on_c, 9, 70, 0
10, 84745, Note_on_c, 9, 35, 0
10, 84780, Note_on_c, 9, 37, 90
10, 84780, Note_on_c, 9, 46, 63
10, 84796, Note_on_c, 9, 46, 0
10, 84805, Note_on_c, 9, 37, 0
10, 84840, Note_on_c, 9, 42, 59
10, 84840, Note_on_c, 9, 70, 80
10, 84859, Note_on_c, 9, 42, 0
10, 84865, Note_on_c, 9, 70, 0
10, 84900, Note_on_c, 9, 35, 70
10, 84900, Note_on_c, 9, 42, 69
10, 84916, Note_on_c, 9, 42, 0
10, 84925, Note_on_c, 9, 35, 0
10, 84960, Note_on_c, 9, 42, 64
10, 84960, Note_on_c, 9, 37, 90
10, 84960, Note_on_c, 9, 70, 80
10, 84960, Note_on_c, 9, 35, 100
10, 84978, Note_on_c, 9, 42, 0
10, 84985, Note_on_c, 9, 37, 0
10, 84985, Note_on_c, 9, 70, 0
10, 84985, Note_on_c, 9, 35, 0
10, 85020, Note_on_c, 9, 42, 59
10, 85039, Note_on_c, 9, 42, 0
10, 85080, Note_on_c, 9, 42, 52
10, 85080, Note_on_c, 9, 70, 80
10, 85097, Note_on_c, 9, 42, 0
10, 85105, Note_on_c, 9, 70, 0
10, 85140, Note_on_c, 9, 35, 70
10, 85140, Note_on_c, 9, 37, 90
10, 85140, Note_on_c, 9, 42, 56
10, 85158, Note_on_c, 9, 42, 0
10, 85165, Note_on_c, 9, 37, 0
10, 85165, Note_on_c, 9, 35, 0
10, 85200, Note_on_c, 9, 35, 100
10, 85200, Note_on_c, 9, 70, 80
10, 85200, Note_on_c, 9, 42, 63
10, 85218, Note_on_c, 9, 42, 0
10, 85225, Note_on_c, 9, 70, 0
10, 85225, Note_on_c, 9, 35, 0
10, 85260, Note_on_c, 9, 46, 63
10, 85279, Note_on_c, 9, 46, 0
10, 85320, Note_on_c, 9, 37, 90
10, 85320, Note_on_c, 9, 70, 80
10, 85320, Note_on_c, 9, 42, 47
10, 85338, Note_on_c, 9, 42, 0
10, 85345, Note_on_c, 9, 70, 0
10, 85345, Note_on_c, 9, 37, 0
10, 85380, Note_on_c, 9, 35, 70
10, 85380, Note_on_c, 9, 42, 45
10, 85397, Note_on_c, 9, 42, 0
10, 85405, Note_on_c, 9, 35, 0
10, 85440, Note_on_c, 9, 42, 45
10, 85440, Note_on_c, 9, 70, 80
10, 85440, Note_on_c, 9, 35, 100
10, 85459, Note_on_c, 9, 42, 0
10, 85465, Note_on_c, 9, 35, 0
10, 85465, Note_on_c, 9, 70, 0
10, 85500, Note_on_c, 9, 42, 42
10, 85519, Note_on_c, 9, 42, 0
10, 85560, Note_on_c, 9, 37, 90
10, 85560, Note_on_c, 9, 70, 80
10, 85560, Note_on_c, 9, 42, 43
10, 85580, Note_on_c, 9, 42, 0
10, 85585, Note_on_c, 9, 70, 0
10, 85585, Note_on_c, 9, 37, 0
10, 85620, Note_on_c, 9, 42, 46
10, 85620, Note_on_c, 9, 35, 70
10, 85638, Note_on_c, 9, 42, 0
10, 85645, Note_on_c, 9, 35, 0
10, 85680, Note_on_c, 9, 42, 72
10, 85680, Note_on_c, 9, 35, 100
10, 85680, Note_on_c, 9, 70, 80
10, 85700, Note_on_c, 9, 42, 0
10, 85705, Note_on_c, 9, 70, 0
10, 85705, Note_on_c, 9, 35, 0
10, 85740, Note_on_c, 9, 46, 65
10, 85740, Note_on_c, 9, 37, 90
10, 85757, Note_on_c, 9, 46, 0
10, 85765, Note_on_c, 9, 37, 0
10, 85800, Note_on_c, 9, 45, 70
10, 85800, Note_on_c, 9, 70, 80
10, 85800, Note_on_c, 9, 42, 40
10, 85818, Note_on_c, 9, 42, 0
10, 85825, Note_on_c, 9, 70, 0
10, 85825, Note_on_c, 9, 45, 0
10, 85860, Note_on_c, 9, 35, 70
10, 85860, Note_on_c, 9, 45, 50
10, 85860, Note_on_c, 9, 42, 56
10, 85880, Note_on_c, 9, 42, 0
10, 85885, Note_on_c, 9, 45, 0
10, 85885, Note_on_c, 9, 35, 0
10, 85920, Note_on_c, 9, 35, 100
10, 85920, Note_on_c, 9, 37, 90
10, 85920, Note_on_c, 9, 70, 80
10, 85920, Note_on_c, 9, 42, 59
10, 85937, Note_on_c, 9, 42, 0
10, 85945, Note_on_c, 9, 35, 0
10, 85945, Note_on_c, 9, 37, 0
10, 85945, Note_on_c, 9, 70, 0
10, 85980, Note_on_c, 9, 42, 52
10, 85998, Note_on_c, 9, 42, 0
10, 86040, Note_on_c, 9, 42, 46
10, 86040, Note_on_c, 9, 70, 80
10, 86055, Note_on_c, 9, 42, 0
10, 86065, Note_on_c, 9, 70, 0
10, 86100, Note_on_c, 9, 42, 55
10, 86100, Note_on_c, 9, 35, 70
10, 86100, Note_on_c, 9, 37, 90
10, 86116, Note_on_c, 9, 42, 0
10, 86125, Note_on_c, 9, 37, 0
10, 86125, Note_on_c, 9, 35, 0
10, 86160, Note_on_c, 9, 42, 75
10, 86160, Note_on_c, 9, 35, 100
10, 86160, Note_on_c, 9, 70, 80
10, 86177, Note_on_c, 9, 42, 0
10, 86185, Note_on_c, 9, 70, 0
10, 86185, Note_on_c, 9, 35, 0
10, 86220, Note_on_c, 9, 46, 65
10, 86236, Note_on_c, 9, 46, 0
10, 86280, Note_on_c, 9, 42, 60
10, 86280, Note_on_c, 9, 37, 90
10, 86280, Note_on_c, 9, 70, 80
10, 86297, Note_on_c, 9, 42, 0
10, 86305, Note_on_c, 9, 70, 0
10, 86305, Note_on_c, 9, 37, 0
10, 86340, Note_on_c, 9, 42, 72
10, 86340, Note_on_c, 9, 35, 70
10, 86359, Note_on_c, 9, 42, 0
10, 86365, Note_on_c, 9, 35, 0
10, 86400, Note_on_c, 9, 35, 100
10, 86400, Note_on_c, 9, 70, 80
10, 86400, Note_on_c, 9, 42, 71
10, 86413, Note_on_c, 9, 42, 0
10, 86425, Note_on_c, 9, 70, 0
10, 86425, Note_on_c, 9, 35, 0
10, 86430, Note_on_c, 9, 42, 52
10, 86437, Note_on_c, 9, 42, 0
10, 86460, Note_on_c, 9, 42, 72
10, 86476, Note_on_c, 9, 42, 0
10, 86520, Note_on_c, 9, 46, 51
10, 86520, Note_on_c, 9, 70, 80
10, 86520, Note_on_c, 9, 37, 90
10, 86534, Note_on_c, 9, 46, 0
10, 86545, Note_on_c, 9, 37, 0
10, 86545, Note_on_c, 9, 70, 0
10, 86580, Note_on_c, 9, 42, 78
10, 86580, Note_on_c, 9, 35, 70
10, 86580, Note_on_c, 9, 48, 50
10, 86599, Note_on_c, 9, 42, 0
10, 86605, Note_on_c, 9, 48, 0
10, 86605, Note_on_c, 9, 35, 0
10, 86640, Note_on_c, 9, 42, 57
10, 86640, Note_on_c, 9, 35, 100
10, 86640, Note_on_c, 9, 70, 80
10, 86655, Note_on_c, 9, 42, 0
10, 86665, Note_on_c, 9, 70, 0
10, 86665, Note_on_c, 9, 35, 0
10, 86700, Note_on_c, 9, 42, 57
10, 86700, Note_on_c, 9, 37, 90
10, 86716, Note_on_c, 9, 42, 0
10, 86725, Note_on_c, 9, 37, 0
10, 86760, Note_on_c, 9, 70, 80
10, 86760, Note_on_c, 9, 42, 58
10, 86776, Note_on_c, 9, 42, 0
10, 86785, Note_on_c, 9, 70, 0
10, 86820, Note_on_c, 9, 42, 63
10, 86820, Note_on_c, 9, 45, 50
10, 86820, Note_on_c, 9, 35, 70
10, 86835, Note_on_c, 9, 42, 0
10, 86845, Note_on_c, 9, 35, 0
10, 86845, Note_on_c, 9, 45, 0
10, 86880, Note_on_c, 9, 42, 62
10, 86880, Note_on_c, 9, 35, 100
10, 86880, Note_on_c, 9, 70, 80
10, 86880, Note_on_c, 9, 37, 90
10, 86901, Note_on_c, 9, 42, 0
10, 86905, Note_on_c, 9, 35, 0
10, 86905, Note_on_c, 9, 70, 0
10, 86905, Note_on_c, 9, 37, 0
10, 86940, Note_on_c, 9, 42, 56
10, 86958, Note_on_c, 9, 42, 0
10, 87000, Note_on_c, 9, 70, 80
10, 87000, Note_on_c, 9, 42, 56
10, 87015, Note_on_c, 9, 42, 0
10, 87025, Note_on_c, 9, 70, 0
10, 87060, Note_on_c, 9, 42, 70
10, 87060, Note_on_c, 9, 37, 90
10, 87060, Note_on_c, 9, 35, 70
10, 87080, Note_on_c, 9, 42, 0
10, 87085, Note_on_c, 9, 35, 0
10, 87085, Note_on_c, 9, 37, 0
10, 87120, Note_on_c, 9, 42, 81
10, 87120, Note_on_c, 9, 70, 80
10, 87120, Note_on_c, 9, 35, 100
10, 87138, Note_on_c, 9, 42, 0
10, 87145, Note_on_c, 9, 35, 0
10, 87145, Note_on_c, 9, 70, 0
10, 87180, Note_on_c, 9, 46, 69
10, 87197, Note_on_c, 9, 46, 0
10, 87240, Note_on_c, 9, 42, 60
10, 87240, Note_on_c, 9, 37, 90
10, 87240, Note_on_c, 9, 70, 80
10, 87258, Note_on_c, 9, 42, 0
10, 87265, Note_on_c, 9, 70, 0
10, 87265, Note_on_c, 9, 37, 0
10, 87300, Note_on_c, 9, 42, 59
10, 87300, Note_on_c, 9, 35, 70
10, 87320, Note_on_c, 9, 42, 0
10, 87325, Note_on_c, 9, 35, 0
10, 87360, Note_on_c, 9, 42, 61
10, 87378, Note_on_c, 9, 42, 0
10, 87420, Note_on_c, 9, 42, 57
10, 87439, Note_on_c, 9, 42, 0
10, 87478, Note_on_c, 9, 70, 80
10, 87480, Note_on_c, 9, 42, 60
10, 87496, Note_on_c, 9, 42, 0
10, 87503, Note_on_c, 9, 70, 0
10, 87538, Note_on_c, 9, 35, 70
10, 87538, Note_on_c, 9, 37, 90
10, 87540, Note_on_c, 9, 42, 65
10, 87559, Note_on_c, 9, 42, 0
10, 87563, Note_on_c, 9, 37, 0
10, 87563, Note_on_c, 9, 35, 0
10, 87598, Note_on_c, 9, 70, 80
10, 87598, Note_on_c, 9, 35, 100
10, 87600, Note_on_c, 9, 42, 67
10, 87618, Note_on_c, 9, 42, 0
10, 87623, Note_on_c, 9, 35, 0
10, 87623, Note_on_c, 9, 70, 0
10, 87660, Note_on_c, 9, 46, 64
10, 87677, Note_on_c, 9, 46, 0
10, 87718, Note_on_c, 9, 37, 90
10, 87718, Note_on_c, 9, 70, 80
10, 87720, Note_on_c, 9, 42, 55
10, 87737, Note_on_c, 9, 42, 0
10, 87743, Note_on_c, 9, 70, 0
10, 87743, Note_on_c, 9, 37, 0
10, 87778, Note_on_c, 9, 35, 70
10, 87780, Note_on_c, 9, 42, 60
10, 87798, Note_on_c, 9, 42, 0
10, 87803, Note_on_c, 9, 35, 0
10, 87838, Note_on_c, 9, 70, 80
10, 87838, Note_on_c, 9, 35, 100
10, 87840, Note_on_c, 9, 42, 63
10, 87858, Note_on_c, 9, 42, 0
10, 87863, Note_on_c, 9, 35, 0
10, 87863, Note_on_c, 9, 70, 0
10, 87900, Note_on_c, 9, 42, 71
10, 87913, Note_on_c, 9, 42, 0
10, 87930, Note_on_c, 9, 42, 60
10, 87938, Note_on_c, 9, 42, 0
10, 87958, Note_on_c, 9, 37, 90
10, 87958, Note_on_c, 9, 70, 80
10, 87960, Note_on_c, 9, 42, 71
10, 87977, Note_on_c, 9, 42, 0
10, 87983, Note_on_c, 9, 70, 0
10, 87983, Note_on_c, 9, 37, 0
10, 88018, Note_on_c, 9, 35, 70
10, 88020, Note_on_c, 9, 42, 74
10, 88039, Note_on_c, 9, 42, 0
10, 88043, Note_on_c, 9, 35, 0
10, 88078, Note_on_c, 9, 70, 80
10, 88078, Note_on_c, 9, 35, 100
10, 88080, Note_on_c, 9, 42, 77
10, 88095, Note_on_c, 9, 42, 0
10, 88103, Note_on_c, 9, 35, 0
10, 88103, Note_on_c, 9, 70, 0
10, 88138, Note_on_c, 9, 37, 90
10, 88140, Note_on_c, 9, 46, 60
10, 88158, Note_on_c, 9, 46, 0
10, 88163, Note_on_c, 9, 37, 0
10, 88198, Note_on_c, 9, 70, 80
10, 88200, Note_on_c, 9, 42, 56
10, 88219, Note_on_c, 9, 42, 0
10, 88223, Note_on_c, 9, 70, 0
10, 88258, Note_on_c, 9, 45, 50
10, 88258, Note_on_c, 9, 35, 70
10, 88260, Note_on_c, 9, 42, 60
10, 88278, Note_on_c, 9, 42, 0
10, 88283, Note_on_c, 9, 35, 0
10, 88283, Note_on_c, 9, 45, 0
10, 88318, Note_on_c, 9, 37, 90
10, 88318, Note_on_c, 9, 70, 80
10, 88318, Note_on_c, 9, 35, 100
10, 88320, Note_on_c, 9, 42, 61
10, 88340, Note_on_c, 9, 42, 0
10, 88343, Note_on_c, 9, 37, 0
10, 88343, Note_on_c, 9, 70, 0
10, 88343, Note_on_c, 9, 35, 0
10, 88380, Note_on_c, 9, 42, 54
10, 88398, Note_on_c, 9, 42, 0
10, 88438, Note_on_c, 9, 70, 80
10, 88440, Note_on_c, 9, 42, 59
10, 88457, Note_on_c, 9, 42, 0
10, 88463, Note_on_c, 9, 70, 0
10, 88498, Note_on_c, 9, 35, 70
10, 88498, Note_on_c, 9, 37, 90
10, 88500, Note_on_c, 9, 42, 61
10, 88516, Note_on_c, 9, 42, 0
10, 88523, Note_on_c, 9, 37, 0
10, 88523, Note_on_c, 9, 35, 0
10, 88558, Note_on_c, 9, 70, 80
10, 88558, Note_on_c, 9, 35, 100
10, 88560, Note_on_c, 9, 42, 75
10, 88583, Note_on_c, 9, 42, 0
10, 88583, Note_on_c, 9, 35, 0
10, 88583, Note_on_c, 9, 70, 0
10, 88620, Note_on_c, 9, 46, 63
10, 88636, Note_on_c, 9, 46, 0
10, 88678, Note_on_c, 9, 37, 90
10, 88678, Note_on_c, 9, 70, 80
10, 88680, Note_on_c, 9, 42, 59
10, 88699, Note_on_c, 9, 42, 0
10, 88703, Note_on_c, 9, 70, 0
10, 88703, Note_on_c, 9, 37, 0
10, 88738, Note_on_c, 9, 35, 70
10, 88740, Note_on_c, 9, 42, 69
10, 88756, Note_on_c, 9, 42, 0
10, 88763, Note_on_c, 9, 35, 0
10, 88798, Note_on_c, 9, 35, 100
10, 88798, Note_on_c, 9, 70, 80
10, 88800, Note_on_c, 9, 42, 64
10, 88818, Note_on_c, 9, 42, 0
10, 88823, Note_on_c, 9, 70, 0
10, 88823, Note_on_c, 9, 35, 0
10, 88860, Note_on_c, 9, 42, 59
10, 88879, Note_on_c, 9, 42, 0
10, 88918, Note_on_c, 9, 37, 90
10, 88918, Note_on_c, 9, 70, 80
10, 88920, Note_on_c, 9, 42, 52
10, 88937, Note_on_c, 9, 42, 0
10, 88943, Note_on_c, 9, 70, 0
10, 88943, Note_on_c, 9, 37, 0
10, 88978, Note_on_c, 9, 35, 70
10, 88980, Note_on_c, 9, 42, 56
10, 88998, Note_on_c, 9, 42, 0
10, 89003, Note_on_c, 9, 35, 0
10, 89038, Note_on_c, 9, 70, 80
10, 89038, Note_on_c, 9, 35, 100
10, 89040, Note_on_c, 9, 42, 63
10, 89058, Note_on_c, 9, 42, 0
10, 89063, Note_on_c, 9, 35, 0
10, 89063, Note_on_c, 9, 70, 0
10, 89098, Note_on_c, 9, 37, 90
10, 89100, Note_on_c, 9, 46, 63
10, 89119, Note_on_c, 9, 46, 0
10, 89123, Note_on_c, 9, 37, 0
10, 89158, Note_on_c, 9, 70, 80
10, 89160, Note_on_c, 9, 42, 47
10, 89178, Note_on_c, 9, 42, 0
10, 89183, Note_on_c, 9, 70, 0
10, 89218, Note_on_c, 9, 35, 70
10, 89220, Note_on_c, 9, 42, 45
10, 89237, Note_on_c, 9, 42, 0
10, 89243, Note_on_c, 9, 35, 0
10, 89278, Note_on_c, 9, 37, 90
10, 89278, Note_on_c, 9, 70, 80
10, 89278, Note_on_c, 9, 35, 100
10, 89280, Note_on_c, 9, 42, 45
10, 89299, Note_on_c, 9, 42, 0
10, 89303, Note_on_c, 9, 37, 0
10, 89303, Note_on_c, 9, 70, 0
10, 89303, Note_on_c, 9, 35, 0
10, 89340, Note_on_c, 9, 42, 42
10, 89359, Note_on_c, 9, 42, 0
10, 89398, Note_on_c, 9, 70, 80
10, 89400, Note_on_c, 9, 42, 43
10, 89420, Note_on_c, 9, 42, 0
10, 89423, Note_on_c, 9, 70, 0
10, 89458, Note_on_c, 9, 37, 90
10, 89458, Note_on_c, 9, 35, 70
10, 89460, Note_on_c, 9, 42, 46
10, 89478, Note_on_c, 9, 42, 0
10, 89483, Note_on_c, 9, 35, 0
10, 89483, Note_on_c, 9, 37, 0
10, 89518, Note_on_c, 9, 70, 80
10, 89518, Note_on_c, 9, 35, 100
10, 89520, Note_on_c, 9, 42, 72
10, 89540, Note_on_c, 9, 42, 0
10, 89543, Note_on_c, 9, 35, 0
10, 89543, Note_on_c, 9, 70, 0
10, 89580, Note_on_c, 9, 46, 65
10, 89597, Note_on_c, 9, 46, 0
10, 89638, Note_on_c, 9, 70, 80
10, 89638, Note_on_c, 9, 37, 90
10, 89640, Note_on_c, 9, 42, 40
10, 89658, Note_on_c, 9, 42, 0
10, 89663, Note_on_c, 9, 37, 0
10, 89663, Note_on_c, 9, 70, 0
10, 89698, Note_on_c, 9, 35, 70
10, 89700, Note_on_c, 9, 42, 56
10, 89720, Note_on_c, 9, 42, 0
10, 89723, Note_on_c, 9, 35, 0
10, 89758, Note_on_c, 9, 35, 100
10, 89758, Note_on_c, 9, 70, 80
10, 89760, Note_on_c, 9, 42, 59
10, 89777, Note_on_c, 9, 42, 0
10, 89783, Note_on_c, 9, 70, 0
10, 89783, Note_on_c, 9, 35, 0
10, 89820, Note_on_c, 9, 42, 52
10, 89838, Note_on_c, 9, 42, 0
10, 89878, Note_on_c, 9, 70, 80
10, 89878, Note_on_c, 9, 37, 90
10, 89880, Note_on_c, 9, 42, 46
10, 89895, Note_on_c, 9, 42, 0
10, 89903, Note_on_c, 9, 37, 0
10, 89903, Note_on_c, 9, 70, 0
10, 89938, Note_on_c, 9, 48, 50
10, 89938, Note_on_c, 9, 35, 70
10, 89940, Note_on_c, 9, 42, 55
10, 89956, Note_on_c, 9, 42, 0
10, 89963, Note_on_c, 9, 35, 0
10, 89963, Note_on_c, 9, 48, 0
10, 89998, Note_on_c, 9, 35, 100
10, 89998, Note_on_c, 9, 70, 80
10, 90000, Note_on_c, 9, 42, 75
10, 90017, Note_on_c, 9, 42, 0
10, 90023, Note_on_c, 9, 70, 0
10, 90023, Note_on_c, 9, 35, 0
10, 90058, Note_on_c, 9, 37, 90
10, 90060, Note_on_c, 9, 46, 65
10, 90076, Note_on_c, 9, 46, 0
10, 90083, Note_on_c, 9, 37, 0
10, 90118, Note_on_c, 9, 70, 80
10, 90118, Note_on_c, 9, 45, 70
10, 90120, Note_on_c, 9, 42, 60
10, 90137, Note_on_c, 9, 42, 0
10, 90143, Note_on_c, 9, 45, 0
10, 90143, Note_on_c, 9, 70, 0
10, 90178, Note_on_c, 9, 45, 50
10, 90178, Note_on_c, 9, 35, 70
10, 90180, Note_on_c, 9, 42, 72
10, 90199, Note_on_c, 9, 42, 0
10, 90203, Note_on_c, 9, 35, 0
10, 90203, Note_on_c, 9, 45, 0
10, 90238, Note_on_c, 9, 37, 90
10, 90238, Note_on_c, 9, 70, 80
10, 90238, Note_on_c, 9, 35, 100
10, 90240, Note_on_c, 9, 42, 71
10, 90253, Note_on_c, 9, 42, 0
10, 90263, Note_on_c, 9, 37, 0
10, 90263, Note_on_c, 9, 70, 0
10, 90263, Note_on_c, 9, 35, 0
10, 90270, Note_on_c, 9, 42, 52
10, 90277, Note_on_c, 9, 42, 0
10, 90300, Note_on_c, 9, 42, 72
10, 90316, Note_on_c, 9, 42, 0
10, 90358, Note_on_c, 9, 70, 80
10, 90360, Note_on_c, 9, 46, 51
10, 90374, Note_on_c, 9, 46, 0
10, 90383, Note_on_c, 9, 70, 0
10, 90418, Note_on_c, 9, 35, 70
10, 90418, Note_on_c, 9, 37, 90
10, 90420, Note_on_c, 9, 42, 78
10, 90439, Note_on_c, 9, 42, 0
10, 90443, Note_on_c, 9, 37, 0
10, 90443, Note_on_c, 9, 35, 0
10, 90478, Note_on_c, 9, 35, 100
10, 90478, Note_on_c, 9, 70, 80
10, 90480, Note_on_c, 9, 42, 57
10, 90495, Note_on_c, 9, 42, 0
10, 90503, Note_on_c, 9, 70, 0
10, 90503, Note_on_c, 9, 35, 0
10, 90540, Note_on_c, 9, 42, 57
10, 90556, Note_on_c, 9, 42, 0
10, 90598, Note_on_c, 9, 37, 90
10, 90598, Note_on_c, 9, 70, 80
10, 90600, Note_on_c, 9, 42, 58
10, 90616, Note_on_c, 9, 42, 0
10, 90623, Note_on_c, 9, 70, 0
10, 90623, Note_on_c, 9, 37, 0
10, 90658, Note_on_c, 9, 35, 70
10, 90660, Note_on_c, 9, 42, 63
10, 90675, Note_on_c, 9, 42, 0
10, 90683, Note_on_c, 9, 35, 0
10, 90718, Note_on_c, 9, 70, 80
10, 90718, Note_on_c, 9, 35, 100
10, 90720, Note_on_c, 9, 42, 62
10, 90741, Note_on_c, 9, 42, 0
10, 90743, Note_on_c, 9, 35, 0
10, 90743, Note_on_c, 9, 70, 0
10, 90780, Note_on_c, 9, 42, 56
10, 90798, Note_on_c, 9, 42, 0
10, 90838, Note_on_c, 9, 37, 90
10, 90838, Note_on_c, 9, 70, 80
10, 90840, Note_on_c, 9, 42, 56
10, 90855, Note_on_c, 9, 42, 0
10, 90863, Note_on_c, 9, 70, 0
10, 90863, Note_on_c, 9, 37, 0
10, 90898, Note_on_c, 9, 35, 70
10, 90900, Note_on_c, 9, 42, 70
10, 90920, Note_on_c, 9, 42, 0
10, 90923, Note_on_c, 9, 35, 0
10, 90958, Note_on_c, 9, 35, 100
10, 90958, Note_on_c, 9, 70, 80
10, 90960, Note_on_c, 9, 42, 81
10, 90978, Note_on_c, 9, 42, 0
10, 90983, Note_on_c, 9, 70, 0
10, 90983, Note_on_c, 9, 35, 0
10, 91018, Note_on_c, 9, 37, 90
10, 91020, Note_on_c, 9, 46, 69
10, 91037, Note_on_c, 9, 46, 0
10, 91043, Note_on_c, 9, 37, 0
10, 91078, Note_on_c, 9, 70, 80
10, 91080, Note_on_c, 9, 42, 60
10, 91098, Note_on_c, 9, 42, 0
10, 91103, Note_on_c, 9, 70, 0
10, 91138, Note_on_c, 9, 35, 70
10, 91140, Note_on_c, 9, 42, 59
10, 91160, Note_on_c, 9, 42, 0
10, 91163, Note_on_c, 9, 35, 0
10, 91198, Note_on_c, 9, 35, 100
10, 91198, Note_on_c, 9, 70, 80
10, 91198, Note_on_c, 9, 37, 90
10, 91200, Note_on_c, 9, 42, 61
10, 91218, Note_on_c, 9, 42, 0
10, 91223, Note_on_c, 9, 35, 0
10, 91223, Note_on_c, 9, 70, 0
10, 91223, Note_on_c, 9, 37, 0
10, 91260, Note_on_c, 9, 42, 57
10, 91279, Note_on_c, 9, 42, 0
10, 91318, Note_on_c, 9, 70, 80
10, 91320, Note_on_c, 9, 42, 60
10, 91336, Note_on_c, 9, 42, 0
10, 91343, Note_on_c, 9, 70, 0
10, 91378, Note_on_c, 9, 37, 90
10, 91378, Note_on_c, 9, 35, 70
10, 91380, Note_on_c, 9, 42, 65
10, 91399, Note_on_c, 9, 42, 0
10, 91403, Note_on_c, 9, 35, 0
10, 91403, Note_on_c, 9, 37, 0
10, 91438, Note_on_c, 9, 70, 80
10, 91438, Note_on_c, 9, 35, 100
10, 91440, Note_on_c, 9, 42, 67
10, 91458, Note_on_c, 9, 42, 0
10, 91463, Note_on_c, 9, 35, 0
10, 91463, Note_on_c, 9, 70, 0
10, 91500, Note_on_c, 9, 46, 64
10, 91517, Note_on_c, 9, 46, 0
10, 91558, Note_on_c, 9, 37, 90
10, 91558, Note_on_c, 9, 70, 80
10, 91560, Note_on_c, 9, 42, 55
10, 91577, Note_on_c, 9, 42, 0
10, 91583, Note_on_c, 9, 70, 0
10, 91583, Note_on_c, 9, 37, 0
10, 91618, Note_on_c, 9, 35, 70
10, 91620, Note_on_c, 9, 42, 60
10, 91638, Note_on_c, 9, 42, 0
10, 91643, Note_on_c, 9, 35, 0
10, 91678, Note_on_c, 9, 35, 100
10, 91678, Note_on_c, 9, 70, 80
10, 91680, Note_on_c, 9, 42, 63
10, 91698, Note_on_c, 9, 42, 0
10, 91703, Note_on_c, 9, 70, 0
10, 91703, Note_on_c, 9, 35, 0
10, 91740, Note_on_c, 9, 42, 71
10, 91753, Note_on_c, 9, 42, 0
10, 91770, Note_on_c, 9, 42, 60
10, 91778, Note_on_c, 9, 42, 0
10, 91798, Note_on_c, 9, 37, 90
10, 91798, Note_on_c, 9, 70, 80
10, 91800, Note_on_c, 9, 42, 71
10, 91817, Note_on_c, 9, 42, 0
10, 91823, Note_on_c, 9, 70, 0
10, 91823, Note_on_c, 9, 37, 0
10, 91858, Note_on_c, 9, 35, 70
10, 91860, Note_on_c, 9, 42, 74
10, 91879, Note_on_c, 9, 42, 0
10, 91883, Note_on_c, 9, 35, 0
10, 91918, Note_on_c, 9, 70, 80
10, 91918, Note_on_c, 9, 35, 100
10, 91920, Note_on_c, 9, 42, 77
10, 91935, Note_on_c, 9, 42, 0
10, 91943, Note_on_c, 9, 35, 0
10, 91943, Note_on_c, 9, 70, 0
10, 91978, Note_on_c, 9, 37, 90
10, 91980, Note_on_c, 9, 46, 60
10, 91998, Note_on_c, 9, 46, 0
10, 92003, Note_on_c, 9, 37, 0
10, 92038, Note_on_c, 9, 70, 80
10, 92040, Note_on_c, 9, 42, 56
10, 92059, Note_on_c, 9, 42, 0
10, 92063, Note_on_c, 9, 70, 0
10, 92098, Note_on_c, 9, 35, 70
10, 92100, Note_on_c, 9, 42, 60
10, 92118, Note_on_c, 9, 42, 0
10, 92123, Note_on_c, 9, 35, 0
10, 92158, Note_on_c, 9, 35, 100
10, 92158, Note_on_c, 9, 70, 80
10, 92158, Note_on_c, 9, 37, 90
10, 92160, Note_on_c, 9, 42, 61
10, 92160, Note_on_c, 9, 45, 70
10, 92160, Note_on_c, 9, 70, 80
10, 92160, Note_on_c, 9, 35, 100
10, 92180, Note_on_c, 9, 42, 0
10, 92183, Note_on_c, 9, 37, 0
10, 92183, Note_on_c, 9, 35, 0
10, 92183, Note_on_c, 9, 70, 0
10, 92185, Note_on_c, 9, 35, 0
10, 92185, Note_on_c, 9, 45, 0
10, 92185, Note_on_c, 9, 70, 0
10, 92220, Note_on_c, 9, 42, 54
10, 92220, Note_on_c, 9, 45, 50
10, 92238, Note_on_c, 9, 42, 0
10, 92245, Note_on_c, 9, 45, 0
10, 92280, Note_on_c, 9, 42, 59
10, 92280, Note_on_c, 9, 48, 100
10, 92280, Note_on_c, 9, 70, 80
10, 92297, Note_on_c, 9, 42, 0
10, 92305, Note_on_c, 9, 70, 0
10, 92305, Note_on_c, 9, 48, 0
10, 92340, Note_on_c, 9, 42, 61
10, 92340, Note_on_c, 9, 35, 70
10, 92340, Note_on_c, 9, 45, 60
10, 92356, Note_on_c, 9, 42, 0
10, 92365, Note_on_c, 9, 45, 0
10, 92365, Note_on_c, 9, 35, 0
10, 92400, Note_on_c, 9, 42, 75
10, 92400, Note_on_c, 9, 35, 100
10, 92400, Note_on_c, 9, 70, 80
10, 92400, Note_on_c, 9, 45, 70
10, 92423, Note_on_c, 9, 42, 0
10, 92425, Note_on_c, 9, 35, 0
10, 92425, Note_on_c, 9, 70, 0
10, 92425, Note_on_c, 9, 45, 0
10, 92460, Note_on_c, 9, 38, 50
10, 92460, Note_on_c, 9, 45, 80
10, 92460, Note_on_c, 9, 46, 63
10, 92476, Note_on_c, 9, 46, 0
10, 92485, Note_on_c, 9, 45, 0
10, 92485, Note_on_c, 9, 38, 0
10, 92520, Note_on_c, 9, 41, 90
10, 92520, Note_on_c, 9, 70, 80
10, 92520, Note_on_c, 9, 42, 59
10, 92539, Note_on_c, 9, 42, 0
10, 92545, Note_on_c, 9, 70, 0
10, 92545, Note_on_c, 9, 41, 0
10, 92580, Note_on_c, 9, 41, 115
10, 92580, Note_on_c, 9, 42, 69
10, 92596, Note_on_c, 9, 42, 0
10, 92605, Note_on_c, 9, 41, 0
10, 92640, Note_on_c, 9, 42, 64
10, 92640, Note_on_c, 9, 37, 90
10, 92640, Note_on_c, 9, 49, 50
10, 92640, Note_on_c, 9, 35, 100
10, 92640, Note_on_c, 9, 70, 80
10, 92658, Note_on_c, 9, 42, 0
10, 92665, Note_on_c, 9, 35, 0
10, 92665, Note_on_c, 9, 37, 0
10, 92665, Note_on_c, 9, 49, 0
10, 92665, Note_on_c, 9, 70, 0
10, 92700, Note_on_c, 9, 42, 59
10, 92719, Note_on_c, 9, 42, 0
10, 92760, Note_on_c, 9, 42, 52
10, 92760, Note_on_c, 9, 70, 80
10, 92777, Note_on_c, 9, 42, 0
10, 92785, Note_on_c, 9, 70, 0
10, 92820, Note_on_c, 9, 35, 70
10, 92820, Note_on_c, 9, 37, 90
10, 92820, Note_on_c, 9, 42, 56
10, 92838, Note_on_c, 9, 42, 0
10, 92845, Note_on_c, 9, 37, 0
10, 92845, Note_on_c, 9, 35, 0
10, 92880, Note_on_c, 9, 35, 100
10, 92880, Note_on_c, 9, 70, 80
10, 92880, Note_on_c, 9, 42, 63
10, 92898, Note_on_c, 9, 42, 0
10, 92905, Note_on_c, 9, 70, 0
10, 92905, Note_on_c, 9, 35, 0
10, 92940, Note_on_c, 9, 46, 63
10, 92959, Note_on_c, 9, 46, 0
10, 93000, Note_on_c, 9, 42, 47
10, 93000, Note_on_c, 9, 37, 90
10, 93000, Note_on_c, 9, 70, 80
10, 93018, Note_on_c, 9, 42, 0
10, 93025, Note_on_c, 9, 70, 0
10, 93025, Note_on_c, 9, 37, 0
10, 93060, Note_on_c, 9, 35, 70
10, 93060, Note_on_c, 9, 42, 45
10, 93077, Note_on_c, 9, 42, 0
10, 93085, Note_on_c, 9, 35, 0
10, 93120, Note_on_c, 9, 42, 45
10, 93120, Note_on_c, 9, 70, 80
10, 93120, Note_on_c, 9, 35, 100
10, 93139, Note_on_c, 9, 42, 0
10, 93145, Note_on_c, 9, 35, 0
10, 93145, Note_on_c, 9, 70, 0
10, 93180, Note_on_c, 9, 42, 42
10, 93199, Note_on_c, 9, 42, 0
10, 93240, Note_on_c, 9, 37, 90
10, 93240, Note_on_c, 9, 70, 80
10, 93240, Note_on_c, 9, 42, 43
10, 93260, Note_on_c, 9, 42, 0
10, 93265, Note_on_c, 9, 70, 0
10, 93265, Note_on_c, 9, 37, 0
10, 93300, Note_on_c, 9, 35, 70
10, 93300, Note_on_c, 9, 42, 46
10, 93318, Note_on_c, 9, 42, 0
10, 93325, Note_on_c, 9, 35, 0
10, 93360, Note_on_c, 9, 42, 72
10, 93360, Note_on_c, 9, 70, 80
10, 93360, Note_on_c, 9, 35, 100
10, 93380, Note_on_c, 9, 42, 0
10, 93385, Note_on_c, 9, 35, 0
10, 93385, Note_on_c, 9, 70, 0
10, 93420, Note_on_c, 9, 46, 65
10, 93420, Note_on_c, 9, 37, 90
10, 93437, Note_on_c, 9, 46, 0
10, 93445, Note_on_c, 9, 37, 0
10, 93480, Note_on_c, 9, 70, 80
10, 93480, Note_on_c, 9, 42, 40
10, 93498, Note_on_c, 9, 42, 0
10, 93505, Note_on_c, 9, 70, 0
10, 93540, Note_on_c, 9, 42, 56
10, 93540, Note_on_c, 9, 45, 50
10, 93540, Note_on_c, 9, 35, 70
10, 93560, Note_on_c, 9, 42, 0
10, 93565, Note_on_c, 9, 35, 0
10, 93565, Note_on_c, 9, 45, 0
10, 93600, Note_on_c, 9, 35, 100
10, 93600, Note_on_c, 9, 70, 80
10, 93600, Note_on_c, 9, 37, 90
10, 93606, Note_on_c, 9, 49, 100
10, 93621, Note_on_c, 9, 49, 0
10, 93625, Note_on_c, 9, 35, 0
10, 93625, Note_on_c, 9, 70, 0
10, 93625, Note_on_c, 9, 37, 0
10, 94069, Note_on_c, 9, 40, 75
10, 94081, Note_on_c, 9, 40, 0
10, 94103, Note_on_c, 9, 40, 77
10, 94116, Note_on_c, 9, 40, 0
10, 94146, Note_on_c, 9, 36, 96
10, 94146, Note_on_c, 9, 57, 96
10, 94438, Note_on_c, 9, 57, 0
10, 94451, Note_on_c, 9, 36, 0
10, 94456, Note_on_c, 9, 40, 64
10, 94467, Note_on_c, 9, 40, 0
10, 94499, Note_on_c, 9, 36, 89
10, 94501, Note_on_c, 9, 57, 101
10, 94575, Note_on_c, 9, 57, 0
10, 94635, Note_on_c, 9, 36, 0
10, 94635, End_track
11, 0, Start_track
11, 0, Title_t, "Track 10"
11, 0, End_track
0, 0, End_of_file
