0, 0, Header, 1, 7, 120
1, 0, Start_track
1, 0, Title_t, "UpWithTheLark"
1, 0, Title_t, "Bill Evans style trio"
1, 0, Copyright_t, "Copyright © 1997 by Doug McKenzie"
1, 0, Text_t, "Doug McKenzie\012"
1, 0, Time_signature, 3, 2, 24, 8
1, 0, Key_signature, 0, "major"
1, 0, Tempo, 375000
1, 0, End_track
2, 0, Start_track
2, 0, MIDI_port, 0
2, 0, Title_t, "Piano"
2, 0, Program_c, 0, 0
2, 29, Note_on_c, 0, 67, 74
2, 29, Note_on_c, 0, 79, 94
2, 29, Note_on_c, 0, 64, 70
2, 31, Note_on_c, 0, 62, 65
2, 37, Note_on_c, 0, 78, 45
2, 45, Note_on_c, 0, 78, 0
2, 145, Control_c, 0, 64, 127
2, 166, Note_on_c, 0, 67, 0
2, 287, Note_on_c, 0, 64, 0
2, 288, Note_on_c, 0, 62, 0
2, 325, Note_on_c, 0, 79, 0
2, 331, Note_on_c, 0, 67, 32
2, 355, Note_on_c, 0, 67, 0
2, 370, Note_on_c, 0, 76, 71
2, 374, Note_on_c, 0, 55, 46
2, 376, Note_on_c, 0, 60, 42
2, 377, Note_on_c, 0, 65, 41
2, 378, Note_on_c, 0, 57, 41
2, 381, Control_c, 0, 64, 0
2, 453, Note_on_c, 0, 72, 54
2, 468, Control_c, 0, 64, 127
2, 476, Note_on_c, 0, 76, 0
2, 484, Note_on_c, 0, 72, 0
2, 505, Note_on_c, 0, 65, 0
2, 513, Note_on_c, 0, 60, 0
2, 519, Note_on_c, 0, 57, 0
2, 536, Note_on_c, 0, 55, 0
2, 573, Note_on_c, 0, 67, 56
2, 576, Note_on_c, 0, 60, 58
2, 633, Note_on_c, 0, 67, 0
2, 653, Note_on_c, 0, 60, 0
2, 696, Note_on_c, 0, 43, 60
2, 739, Note_on_c, 0, 65, 47
2, 739, Control_c, 0, 64, 0
2, 741, Note_on_c, 0, 57, 49
2, 743, Note_on_c, 0, 60, 50
2, 745, Note_on_c, 0, 55, 50
2, 808, Note_on_c, 0, 55, 0
2, 817, Control_c, 0, 64, 127
2, 859, Note_on_c, 0, 55, 24
2, 894, Note_on_c, 0, 43, 0
2, 906, Note_on_c, 0, 57, 0
2, 915, Note_on_c, 0, 60, 0
2, 917, Note_on_c, 0, 65, 0
2, 933, Note_on_c, 0, 43, 51
2, 973, Note_on_c, 0, 43, 0
2, 983, Note_on_c, 0, 55, 0
2, 1085, Note_on_c, 0, 74, 53
2, 1087, Note_on_c, 0, 64, 37
2, 1088, Note_on_c, 0, 71, 48
2, 1089, Control_c, 0, 64, 0
2, 1090, Note_on_c, 0, 65, 46
2, 1090, Note_on_c, 0, 68, 44
2, 1091, Note_on_c, 0, 56, 30
2, 1092, Note_on_c, 0, 59, 43
2, 1122, Control_c, 0, 64, 127
2, 1149, Note_on_c, 0, 64, 0
2, 1155, Note_on_c, 0, 71, 0
2, 1155, Note_on_c, 0, 59, 0
2, 1156, Note_on_c, 0, 74, 0
2, 1168, Note_on_c, 0, 65, 0
2, 1170, Note_on_c, 0, 56, 0
2, 1171, Note_on_c, 0, 68, 0
2, 1273, Note_on_c, 0, 68, 42
2, 1276, Note_on_c, 0, 71, 48
2, 1277, Note_on_c, 0, 59, 40
2, 1278, Note_on_c, 0, 62, 33
2, 1278, Note_on_c, 0, 65, 47
2, 1284, Control_c, 0, 64, 0
2, 1284, Note_on_c, 0, 56, 20
2, 1290, Note_on_c, 0, 59, 0
2, 1295, Note_on_c, 0, 56, 0
2, 1305, Control_c, 0, 64, 127
2, 1307, Note_on_c, 0, 68, 0
2, 1334, Note_on_c, 0, 65, 0
2, 1341, Note_on_c, 0, 62, 0
2, 1358, Note_on_c, 0, 71, 0
2, 1359, Note_on_c, 0, 68, 56
2, 1393, Note_on_c, 0, 68, 0
2, 1402, Note_on_c, 0, 62, 47
2, 1413, Note_on_c, 0, 62, 0
2, 1444, Note_on_c, 0, 52, 49
2, 1445, Note_on_c, 0, 67, 51
2, 1445, Note_on_c, 0, 43, 47
2, 1452, Control_c, 0, 64, 0
2, 1533, Note_on_c, 0, 55, 57
2, 1558, Control_c, 0, 64, 127
2, 1601, Note_on_c, 0, 43, 0
2, 1627, Note_on_c, 0, 67, 0
2, 1646, Note_on_c, 0, 43, 71
2, 1674, Note_on_c, 0, 55, 0
2, 1700, Note_on_c, 0, 55, 55
2, 1714, Note_on_c, 0, 55, 0
2, 1719, Note_on_c, 0, 43, 0
2, 1764, Note_on_c, 0, 43, 68
2, 1766, Note_on_c, 0, 52, 0
2, 1812, Note_on_c, 0, 72, 95
2, 1813, Note_on_c, 0, 64, 95
2, 1814, Note_on_c, 0, 55, 84
2, 1815, Control_c, 0, 64, 0
2, 1847, Control_c, 0, 64, 127
2, 1862, Note_on_c, 0, 72, 0
2, 1875, Note_on_c, 0, 64, 0
2, 1960, Note_on_c, 0, 55, 0
2, 1999, Note_on_c, 0, 67, 60
2, 2003, Note_on_c, 0, 55, 55
2, 2003, Note_on_c, 0, 60, 55
2, 2015, Control_c, 0, 64, 0
2, 2039, Control_c, 0, 64, 127
2, 2058, Note_on_c, 0, 60, 0
2, 2060, Note_on_c, 0, 43, 0
2, 2064, Note_on_c, 0, 67, 0
2, 2075, Note_on_c, 0, 60, 50
2, 2077, Note_on_c, 0, 64, 39
2, 2088, Note_on_c, 0, 60, 0
2, 2094, Note_on_c, 0, 64, 0
2, 2098, Note_on_c, 0, 55, 0
2, 2124, Note_on_c, 0, 43, 49
2, 2146, Note_on_c, 0, 43, 0
2, 2164, Control_c, 0, 64, 0
2, 2172, Note_on_c, 0, 43, 48
2, 2172, Note_on_c, 0, 53, 52
2, 2173, Note_on_c, 0, 62, 47
2, 2177, Note_on_c, 0, 57, 38
2, 2179, Note_on_c, 0, 60, 41
2, 2198, Control_c, 0, 64, 127
2, 2227, Note_on_c, 0, 53, 0
2, 2236, Note_on_c, 0, 43, 0
2, 2238, Note_on_c, 0, 57, 0
2, 2240, Note_on_c, 0, 60, 0
2, 2247, Note_on_c, 0, 62, 0
2, 2359, Note_on_c, 0, 72, 87
2, 2359, Note_on_c, 0, 65, 84
2, 2361, Note_on_c, 0, 60, 83
2, 2362, Note_on_c, 0, 54, 77
2, 2364, Note_on_c, 0, 44, 69
2, 2372, Control_c, 0, 64, 0
2, 2410, Control_c, 0, 64, 127
2, 2428, Note_on_c, 0, 72, 0
2, 2445, Note_on_c, 0, 65, 0
2, 2454, Note_on_c, 0, 60, 0
2, 2475, Note_on_c, 0, 54, 0
2, 2485, Note_on_c, 0, 44, 0
2, 2519, Control_c, 0, 64, 0
2, 2528, Note_on_c, 0, 71, 45
2, 2529, Note_on_c, 0, 67, 36
2, 2529, Note_on_c, 0, 43, 39
2, 2530, Note_on_c, 0, 63, 40
2, 2530, Note_on_c, 0, 59, 46
2, 2531, Note_on_c, 0, 53, 42
2, 2611, Note_on_c, 0, 67, 0
2, 2614, Control_c, 0, 64, 127
2, 2619, Note_on_c, 0, 71, 0
2, 2632, Note_on_c, 0, 53, 0
2, 2639, Note_on_c, 0, 59, 0
2, 2642, Note_on_c, 0, 63, 0
2, 2711, Note_on_c, 0, 63, 36
2, 2711, Control_c, 0, 64, 0
2, 2712, Note_on_c, 0, 69, 36
2, 2712, Note_on_c, 0, 53, 36
2, 2713, Note_on_c, 0, 65, 34
2, 2713, Note_on_c, 0, 59, 25
2, 2757, Control_c, 0, 64, 127
2, 2771, Note_on_c, 0, 69, 0
2, 2786, Note_on_c, 0, 65, 0
2, 2805, Note_on_c, 0, 59, 0
2, 2825, Note_on_c, 0, 63, 0
2, 2825, Note_on_c, 0, 53, 0
2, 2848, Note_on_c, 0, 50, 17
2, 2865, Note_on_c, 0, 50, 0
2, 2876, Note_on_c, 0, 62, 49
2, 2877, Control_c, 0, 64, 0
2, 2877, Note_on_c, 0, 57, 48
2, 2878, Note_on_c, 0, 67, 36
2, 2894, Note_on_c, 0, 43, 0
2, 2942, Control_c, 0, 64, 127
2, 2952, Control_c, 0, 64, 0
2, 2958, Note_on_c, 0, 43, 53
2, 3010, Note_on_c, 0, 31, 61
2, 3026, Control_c, 0, 64, 127
2, 3069, Note_on_c, 0, 31, 0
2, 3076, Note_on_c, 0, 57, 0
2, 3093, Note_on_c, 0, 43, 0
2, 3102, Note_on_c, 0, 62, 0
2, 3112, Note_on_c, 0, 67, 0
2, 3119, Note_on_c, 0, 57, 51
2, 3129, Note_on_c, 0, 57, 0
2, 3249, Note_on_c, 0, 76, 101
2, 3251, Note_on_c, 0, 67, 101
2, 3251, Note_on_c, 0, 72, 88
2, 3252, Note_on_c, 0, 69, 89
2, 3253, Note_on_c, 0, 64, 87
2, 3257, Note_on_c, 0, 74, 46
2, 3264, Note_on_c, 0, 74, 0
2, 3311, Note_on_c, 0, 72, 0
2, 3314, Note_on_c, 0, 76, 0
2, 3317, Note_on_c, 0, 69, 0
2, 3321, Note_on_c, 0, 67, 0
2, 3331, Note_on_c, 0, 64, 0
2, 3367, Note_on_c, 0, 72, 64
2, 3369, Note_on_c, 0, 67, 66
2, 3370, Note_on_c, 0, 64, 61
2, 3370, Note_on_c, 0, 60, 62
2, 3393, Note_on_c, 0, 60, 0
2, 3404, Note_on_c, 0, 72, 0
2, 3410, Note_on_c, 0, 67, 0
2, 3420, Note_on_c, 0, 64, 0
2, 3494, Note_on_c, 0, 57, 48
2, 3494, Note_on_c, 0, 60, 46
2, 3496, Note_on_c, 0, 64, 37
2, 3497, Note_on_c, 0, 67, 28
2, 3521, Note_on_c, 0, 64, 0
2, 3522, Note_on_c, 0, 60, 0
2, 3530, Note_on_c, 0, 67, 0
2, 3531, Note_on_c, 0, 57, 0
2, 3568, Note_on_c, 0, 50, 41
2, 3599, Note_on_c, 0, 50, 0
2, 3617, Note_on_c, 0, 62, 40
2, 3617, Note_on_c, 0, 57, 33
2, 3617, Note_on_c, 0, 60, 47
2, 3618, Note_on_c, 0, 65, 37
2, 3621, Control_c, 0, 64, 0
2, 3623, Note_on_c, 0, 55, 40
2, 3695, Note_on_c, 0, 43, 46
2, 3721, Control_c, 0, 64, 127
2, 3729, Note_on_c, 0, 57, 0
2, 3739, Note_on_c, 0, 55, 0
2, 3755, Note_on_c, 0, 62, 0
2, 3755, Note_on_c, 0, 60, 0
2, 3761, Note_on_c, 0, 65, 0
2, 3809, Note_on_c, 0, 57, 60
2, 3809, Note_on_c, 0, 60, 64
2, 3809, Note_on_c, 0, 65, 57
2, 3813, Note_on_c, 0, 55, 61
2, 3815, Note_on_c, 0, 62, 36
2, 3827, Note_on_c, 0, 57, 0
2, 3829, Note_on_c, 0, 43, 0
2, 3834, Note_on_c, 0, 60, 0
2, 3837, Note_on_c, 0, 62, 0
2, 3842, Note_on_c, 0, 55, 0
2, 3842, Note_on_c, 0, 65, 0
2, 3923, Note_on_c, 0, 74, 80
2, 3923, Note_on_c, 0, 68, 79
2, 3924, Note_on_c, 0, 60, 70
2, 3924, Note_on_c, 0, 71, 76
2, 3924, Note_on_c, 0, 65, 83
2, 3926, Note_on_c, 0, 59, 72
2, 3928, Control_c, 0, 64, 0
2, 3934, Note_on_c, 0, 59, 0
2, 3934, Note_on_c, 0, 72, 32
2, 3942, Note_on_c, 0, 72, 0
2, 3958, Note_on_c, 0, 60, 0
2, 3959, Note_on_c, 0, 65, 0
2, 3964, Note_on_c, 0, 74, 0
2, 3966, Note_on_c, 0, 71, 0
2, 3969, Note_on_c, 0, 68, 0
2, 3970, Control_c, 0, 64, 127
2, 3977, Note_on_c, 0, 68, 33
2, 3979, Note_on_c, 0, 74, 37
2, 3980, Note_on_c, 0, 59, 64
2, 3981, Note_on_c, 0, 65, 62
2, 3996, Note_on_c, 0, 74, 0
2, 4001, Note_on_c, 0, 68, 0
2, 4006, Note_on_c, 0, 65, 0
2, 4055, Note_on_c, 0, 62, 61
2, 4057, Note_on_c, 0, 59, 0
2, 4058, Note_on_c, 0, 65, 60
2, 4058, Control_c, 0, 64, 0
2, 4059, Note_on_c, 0, 71, 39
2, 4059, Note_on_c, 0, 56, 48
2, 4060, Note_on_c, 0, 68, 34
2, 4074, Note_on_c, 0, 68, 0
2, 4074, Note_on_c, 0, 62, 0
2, 4076, Note_on_c, 0, 65, 0
2, 4080, Note_on_c, 0, 71, 0
2, 4087, Control_c, 0, 64, 127
2, 4125, Note_on_c, 0, 61, 20
2, 4133, Note_on_c, 0, 61, 0
2, 4135, Note_on_c, 0, 56, 0
2, 4158, Note_on_c, 0, 53, 51
2, 4161, Note_on_c, 0, 62, 46
2, 4162, Note_on_c, 0, 68, 46
2, 4164, Note_on_c, 0, 59, 44
2, 4165, Note_on_c, 0, 65, 44
2, 4176, Control_c, 0, 64, 0
2, 4208, Control_c, 0, 64, 127
2, 4221, Note_on_c, 0, 65, 0
2, 4223, Note_on_c, 0, 68, 0
2, 4225, Note_on_c, 0, 62, 0
2, 4249, Note_on_c, 0, 59, 0
2, 4265, Note_on_c, 0, 53, 0
2, 4273, Note_on_c, 0, 50, 41
2, 4309, Note_on_c, 0, 50, 0
2, 4314, Control_c, 0, 64, 0
2, 4316, Note_on_c, 0, 55, 44
2, 4316, Note_on_c, 0, 60, 49
2, 4316, Note_on_c, 0, 64, 48
2, 4321, Note_on_c, 0, 52, 48
2, 4359, Control_c, 0, 64, 127
2, 4388, Note_on_c, 0, 55, 0
2, 4393, Control_c, 0, 64, 0
2, 4396, Note_on_c, 0, 43, 62
2, 4404, Note_on_c, 0, 60, 0
2, 4407, Control_c, 0, 64, 127
2, 4415, Note_on_c, 0, 64, 0
2, 4490, Note_on_c, 0, 52, 0
2, 4491, Note_on_c, 0, 43, 0
2, 4519, Note_on_c, 0, 67, 41
2, 4532, Note_on_c, 0, 67, 0
2, 4560, Note_on_c, 0, 72, 62
2, 4609, Note_on_c, 0, 72, 0
2, 4633, Note_on_c, 0, 39, 76
2, 4636, Note_on_c, 0, 75, 91
2, 4637, Note_on_c, 0, 46, 74
2, 4638, Control_c, 0, 64, 0
2, 4668, Note_on_c, 0, 46, 0
2, 4672, Note_on_c, 0, 39, 0
2, 4674, Control_c, 0, 64, 127
2, 4796, Note_on_c, 0, 61, 49
2, 4796, Note_on_c, 0, 60, 39
2, 4797, Note_on_c, 0, 65, 53
2, 4803, Note_on_c, 0, 55, 42
2, 4883, Note_on_c, 0, 65, 0
2, 4896, Note_on_c, 0, 60, 0
2, 4897, Note_on_c, 0, 55, 0
2, 4901, Note_on_c, 0, 61, 0
2, 4964, Note_on_c, 0, 75, 0
2, 4968, Note_on_c, 0, 72, 44
2, 4978, Note_on_c, 0, 72, 0
2, 5007, Note_on_c, 0, 75, 64
2, 5029, Note_on_c, 0, 75, 0
2, 5039, Control_c, 0, 64, 0
2, 5043, Note_on_c, 0, 44, 48
2, 5051, Note_on_c, 0, 79, 76
2, 5052, Note_on_c, 0, 67, 64
2, 5064, Note_on_c, 0, 44, 0
2, 5071, Control_c, 0, 64, 127
2, 5149, Note_on_c, 0, 65, 58
2, 5153, Note_on_c, 0, 60, 49
2, 5153, Note_on_c, 0, 58, 33
2, 5154, Note_on_c, 0, 79, 0
2, 5157, Note_on_c, 0, 54, 37
2, 5233, Note_on_c, 0, 67, 0
2, 5332, Note_on_c, 0, 65, 0
2, 5334, Note_on_c, 0, 75, 64
2, 5341, Note_on_c, 0, 60, 0
2, 5375, Note_on_c, 0, 72, 64
2, 5382, Note_on_c, 0, 54, 0
2, 5384, Note_on_c, 0, 75, 0
2, 5387, Note_on_c, 0, 58, 0
2, 5394, Note_on_c, 0, 72, 0
2, 5418, Control_c, 0, 64, 0
2, 5419, Note_on_c, 0, 64, 47
2, 5419, Note_on_c, 0, 70, 71
2, 5420, Note_on_c, 0, 59, 47
2, 5423, Note_on_c, 0, 53, 37
2, 5477, Note_on_c, 0, 70, 0
2, 5488, Note_on_c, 0, 68, 74
2, 5508, Control_c, 0, 64, 127
2, 5511, Note_on_c, 0, 64, 0
2, 5515, Note_on_c, 0, 59, 0
2, 5519, Note_on_c, 0, 68, 0
2, 5526, Note_on_c, 0, 53, 0
2, 5526, Control_c, 0, 64, 127
2, 5538, Note_on_c, 0, 67, 36
2, 5588, Note_on_c, 0, 67, 0
2, 5605, Note_on_c, 0, 65, 60
2, 5629, Note_on_c, 0, 65, 0
2, 5640, Note_on_c, 0, 43, 34
2, 5648, Note_on_c, 0, 53, 24
2, 5648, Control_c, 0, 64, 0
2, 5650, Note_on_c, 0, 63, 53
2, 5667, Note_on_c, 0, 53, 0
2, 5675, Note_on_c, 0, 43, 0
2, 5707, Note_on_c, 0, 63, 0
2, 5724, Note_on_c, 0, 61, 51
2, 5732, Note_on_c, 0, 61, 0
2, 5765, Note_on_c, 0, 72, 54
2, 5767, Note_on_c, 0, 62, 36
2, 5768, Note_on_c, 0, 64, 46
2, 5768, Note_on_c, 0, 67, 32
2, 5774, Control_c, 0, 64, 0
2, 5810, Control_c, 0, 64, 127
2, 5888, Note_on_c, 0, 67, 0
2, 5974, Note_on_c, 0, 64, 0
2, 5977, Note_on_c, 0, 72, 0
2, 5986, Note_on_c, 0, 62, 0
2, 6085, Note_on_c, 0, 72, 58
2, 6099, Note_on_c, 0, 74, 69
2, 6100, Note_on_c, 0, 72, 0
2, 6125, Note_on_c, 0, 72, 47
2, 6131, Note_on_c, 0, 74, 0
2, 6144, Note_on_c, 0, 72, 0
2, 6147, Control_c, 0, 64, 0
2, 6148, Note_on_c, 0, 71, 57
2, 6156, Note_on_c, 0, 60, 35
2, 6158, Note_on_c, 0, 55, 32
2, 6158, Note_on_c, 0, 57, 39
2, 6159, Note_on_c, 0, 65, 30
2, 6166, Note_on_c, 0, 71, 0
2, 6180, Note_on_c, 0, 72, 66
2, 6257, Control_c, 0, 64, 127
2, 6323, Note_on_c, 0, 72, 0
2, 6335, Note_on_c, 0, 76, 74
2, 6363, Note_on_c, 0, 65, 0
2, 6385, Note_on_c, 0, 60, 0
2, 6389, Note_on_c, 0, 76, 0
2, 6393, Note_on_c, 0, 57, 0
2, 6408, Note_on_c, 0, 79, 77
2, 6427, Note_on_c, 0, 79, 0
2, 6451, Note_on_c, 0, 83, 90
2, 6482, Note_on_c, 0, 83, 0
2, 6495, Note_on_c, 0, 62, 41
2, 6496, Control_c, 0, 64, 0
2, 6498, Note_on_c, 0, 67, 48
2, 6500, Note_on_c, 0, 81, 79
2, 6500, Note_on_c, 0, 64, 51
2, 6566, Control_c, 0, 64, 127
2, 6611, Note_on_c, 0, 67, 0
2, 6629, Note_on_c, 0, 55, 0
2, 6691, Note_on_c, 0, 55, 42
2, 6694, Note_on_c, 0, 81, 0
2, 6735, Note_on_c, 0, 62, 0
2, 6737, Note_on_c, 0, 64, 0
2, 6796, Note_on_c, 0, 76, 67
2, 6828, Note_on_c, 0, 76, 0
2, 6846, Note_on_c, 0, 65, 33
2, 6847, Note_on_c, 0, 57, 34
2, 6848, Note_on_c, 0, 74, 52
2, 6850, Note_on_c, 0, 60, 40
2, 6851, Note_on_c, 0, 69, 49
2, 6852, Control_c, 0, 64, 0
2, 6908, Control_c, 0, 64, 127
2, 6973, Note_on_c, 0, 69, 0
2, 6976, Note_on_c, 0, 60, 0
2, 6980, Note_on_c, 0, 65, 0
2, 6991, Note_on_c, 0, 57, 0
2, 6998, Note_on_c, 0, 55, 0
2, 7008, Note_on_c, 0, 74, 0
2, 7038, Note_on_c, 0, 56, 56
2, 7041, Note_on_c, 0, 76, 76
2, 7043, Note_on_c, 0, 64, 42
2, 7044, Note_on_c, 0, 68, 71
2, 7044, Note_on_c, 0, 72, 64
2, 7045, Note_on_c, 0, 65, 70
2, 7046, Note_on_c, 0, 60, 44
2, 7052, Control_c, 0, 64, 0
2, 7087, Note_on_c, 0, 72, 0
2, 7091, Control_c, 0, 64, 127
2, 7113, Note_on_c, 0, 65, 0
2, 7120, Note_on_c, 0, 76, 0
2, 7123, Note_on_c, 0, 68, 0
2, 7126, Note_on_c, 0, 64, 0
2, 7128, Note_on_c, 0, 60, 0
2, 7135, Note_on_c, 0, 72, 64
2, 7139, Note_on_c, 0, 68, 21
2, 7147, Note_on_c, 0, 68, 0
2, 7160, Note_on_c, 0, 72, 0
2, 7162, Note_on_c, 0, 56, 0
2, 7215, Note_on_c, 0, 52, 57
2, 7217, Note_on_c, 0, 81, 69
2, 7219, Note_on_c, 0, 74, 62
2, 7219, Note_on_c, 0, 69, 58
2, 7221, Control_c, 0, 64, 0
2, 7221, Note_on_c, 0, 62, 34
2, 7233, Note_on_c, 0, 59, 12
2, 7302, Control_c, 0, 64, 127
2, 7396, Note_on_c, 0, 74, 0
2, 7398, Note_on_c, 0, 81, 0
2, 7412, Note_on_c, 0, 52, 0
2, 7417, Note_on_c, 0, 69, 0
2, 7417, Note_on_c, 0, 59, 0
2, 7426, Note_on_c, 0, 62, 0
2, 7440, Note_on_c, 0, 75, 34
2, 7461, Note_on_c, 0, 75, 0
2, 7521, Note_on_c, 0, 74, 78
2, 7552, Note_on_c, 0, 74, 0
2, 7570, Note_on_c, 0, 74, 81
2, 7572, Note_on_c, 0, 62, 57
2, 7572, Note_on_c, 0, 60, 58
2, 7573, Note_on_c, 0, 67, 66
2, 7573, Note_on_c, 0, 64, 66
2, 7573, Note_on_c, 0, 71, 81
2, 7576, Control_c, 0, 64, 0
2, 7681, Note_on_c, 0, 74, 0
2, 7695, Note_on_c, 0, 76, 77
2, 7703, Note_on_c, 0, 74, 48
2, 7703, Control_c, 0, 64, 127
2, 7704, Note_on_c, 0, 67, 0
2, 7713, Note_on_c, 0, 74, 0
2, 7749, Note_on_c, 0, 71, 0
2, 7753, Note_on_c, 0, 64, 0
2, 7774, Note_on_c, 0, 60, 0
2, 7776, Note_on_c, 0, 62, 0
2, 7782, Note_on_c, 0, 76, 0
2, 7811, Note_on_c, 0, 64, 41
2, 7812, Note_on_c, 0, 67, 35
2, 7812, Note_on_c, 0, 72, 52
2, 7813, Note_on_c, 0, 62, 31
2, 7813, Note_on_c, 0, 60, 32
2, 7822, Note_on_c, 0, 64, 0
2, 7824, Note_on_c, 0, 62, 0
2, 7825, Note_on_c, 0, 60, 0
2, 7834, Note_on_c, 0, 72, 0
2, 7834, Note_on_c, 0, 67, 0
2, 7925, Control_c, 0, 64, 0
2, 7926, Note_on_c, 0, 74, 58
2, 7929, Note_on_c, 0, 64, 36
2, 7929, Note_on_c, 0, 67, 39
2, 7930, Note_on_c, 0, 69, 48
2, 8006, Note_on_c, 0, 50, 50
2, 8028, Note_on_c, 0, 62, 1
2, 8043, Control_c, 0, 64, 127
2, 8049, Note_on_c, 0, 64, 0
2, 8064, Note_on_c, 0, 67, 0
2, 8068, Note_on_c, 0, 69, 0
2, 8079, Note_on_c, 0, 74, 0
2, 8155, Note_on_c, 0, 50, 0
2, 8163, Note_on_c, 0, 86, 80
2, 8176, Note_on_c, 0, 62, 0
2, 8219, Note_on_c, 0, 86, 0
2, 8242, Note_on_c, 0, 83, 60
2, 8243, Note_on_c, 0, 76, 37
2, 8244, Note_on_c, 0, 80, 46
2, 8245, Note_on_c, 0, 60, 49
2, 8246, Note_on_c, 0, 64, 47
2, 8248, Control_c, 0, 64, 0
2, 8252, Note_on_c, 0, 54, 32
2, 8343, Control_c, 0, 64, 127
2, 8413, Note_on_c, 0, 83, 0
2, 8417, Note_on_c, 0, 80, 0
2, 8418, Note_on_c, 0, 76, 0
2, 8447, Note_on_c, 0, 64, 0
2, 8455, Note_on_c, 0, 60, 0
2, 8484, Note_on_c, 0, 54, 0
2, 8604, Note_on_c, 0, 64, 55
2, 8612, Note_on_c, 0, 64, 0
2, 8645, Note_on_c, 0, 55, 77
2, 8645, Note_on_c, 0, 64, 99
2, 8646, Note_on_c, 0, 53, 75
2, 8646, Note_on_c, 0, 67, 88
2, 8646, Note_on_c, 0, 57, 74
2, 8647, Note_on_c, 0, 60, 96
2, 8650, Control_c, 0, 64, 0
2, 8768, Control_c, 0, 64, 127
2, 8798, Note_on_c, 0, 60, 0
2, 8801, Note_on_c, 0, 57, 0
2, 8803, Note_on_c, 0, 55, 0
2, 8806, Note_on_c, 0, 53, 0
2, 8807, Note_on_c, 0, 64, 0
2, 8811, Note_on_c, 0, 67, 0
2, 8850, Note_on_c, 0, 67, 76
2, 8851, Note_on_c, 0, 64, 90
2, 8853, Note_on_c, 0, 60, 80
2, 8853, Note_on_c, 0, 57, 71
2, 8854, Note_on_c, 0, 53, 74
2, 8854, Note_on_c, 0, 55, 70
2, 8864, Control_c, 0, 64, 0
2, 8891, Control_c, 0, 64, 127
2, 8901, Note_on_c, 0, 55, 0
2, 8905, Note_on_c, 0, 57, 0
2, 8909, Note_on_c, 0, 53, 0
2, 8916, Note_on_c, 0, 60, 0
2, 8920, Note_on_c, 0, 64, 0
2, 8937, Note_on_c, 0, 67, 0
2, 9001, Control_c, 0, 64, 0
2, 9009, Note_on_c, 0, 66, 48
2, 9009, Note_on_c, 0, 64, 55
2, 9012, Note_on_c, 0, 59, 53
2, 9012, Note_on_c, 0, 53, 36
2, 9013, Note_on_c, 0, 43, 36
2, 9035, Control_c, 0, 64, 127
2, 9059, Note_on_c, 0, 53, 0
2, 9063, Note_on_c, 0, 64, 0
2, 9071, Note_on_c, 0, 59, 0
2, 9083, Note_on_c, 0, 66, 0
2, 9088, Control_c, 0, 64, 0
2, 9094, Note_on_c, 0, 59, 55
2, 9096, Note_on_c, 0, 67, 54
2, 9096, Note_on_c, 0, 64, 48
2, 9102, Note_on_c, 0, 53, 36
2, 9103, Note_on_c, 0, 66, 26
2, 9109, Note_on_c, 0, 59, 0
2, 9110, Note_on_c, 0, 43, 0
2, 9112, Control_c, 0, 64, 127
2, 9113, Note_on_c, 0, 66, 0
2, 9119, Note_on_c, 0, 64, 0
2, 9120, Note_on_c, 0, 53, 0
2, 9120, Note_on_c, 0, 67, 0
2, 9207, Note_on_c, 0, 68, 56
2, 9207, Note_on_c, 0, 65, 67
2, 9208, Note_on_c, 0, 71, 66
2, 9209, Note_on_c, 0, 62, 70
2, 9210, Control_c, 0, 64, 0
2, 9211, Note_on_c, 0, 56, 55
2, 9233, Note_on_c, 0, 62, 0
2, 9239, Note_on_c, 0, 65, 0
2, 9241, Control_c, 0, 64, 127
2, 9242, Note_on_c, 0, 71, 0
2, 9248, Note_on_c, 0, 68, 0
2, 9296, Note_on_c, 0, 56, 0
2, 9317, Note_on_c, 0, 61, 54
2, 9335, Note_on_c, 0, 61, 0
2, 9361, Note_on_c, 0, 76, 82
2, 9361, Note_on_c, 0, 69, 85
2, 9362, Note_on_c, 0, 65, 77
2, 9363, Note_on_c, 0, 60, 71
2, 9365, Control_c, 0, 64, 0
2, 9367, Note_on_c, 0, 50, 63
2, 9429, Control_c, 0, 64, 127
2, 9486, Note_on_c, 0, 60, 0
2, 9492, Note_on_c, 0, 69, 0
2, 9500, Note_on_c, 0, 65, 0
2, 9542, Note_on_c, 0, 76, 0
2, 9560, Note_on_c, 0, 71, 64
2, 9562, Note_on_c, 0, 65, 54
2, 9565, Note_on_c, 0, 60, 48
2, 9568, Note_on_c, 0, 57, 38
2, 9609, Note_on_c, 0, 65, 0
2, 9615, Note_on_c, 0, 57, 0
2, 9616, Note_on_c, 0, 50, 0
2, 9623, Note_on_c, 0, 71, 0
2, 9630, Note_on_c, 0, 60, 0
2, 9728, Control_c, 0, 64, 0
2, 9729, Note_on_c, 0, 81, 60
2, 9730, Note_on_c, 0, 73, 42
2, 9731, Note_on_c, 0, 69, 50
2, 9731, Note_on_c, 0, 76, 48
2, 9732, Note_on_c, 0, 64, 50
2, 9733, Note_on_c, 0, 59, 48
2, 9741, Note_on_c, 0, 79, 28
2, 9742, Note_on_c, 0, 53, 29
2, 9751, Note_on_c, 0, 79, 0
2, 9816, Control_c, 0, 64, 127
2, 9872, Note_on_c, 0, 69, 0
2, 9874, Note_on_c, 0, 76, 0
2, 9875, Note_on_c, 0, 73, 0
2, 9884, Note_on_c, 0, 81, 0
2, 9897, Note_on_c, 0, 53, 0
2, 9898, Note_on_c, 0, 64, 0
2, 9910, Note_on_c, 0, 59, 0
2, 9927, Note_on_c, 0, 83, 80
2, 9929, Note_on_c, 0, 59, 60
2, 9930, Note_on_c, 0, 64, 57
2, 9930, Note_on_c, 0, 71, 66
2, 9931, Control_c, 0, 64, 0
2, 9931, Note_on_c, 0, 76, 66
2, 9932, Note_on_c, 0, 53, 40
2, 9932, Note_on_c, 0, 79, 57
2, 9944, Note_on_c, 0, 79, 0
2, 9952, Note_on_c, 0, 76, 0
2, 9957, Note_on_c, 0, 71, 0
2, 9957, Note_on_c, 0, 53, 0
2, 9958, Note_on_c, 0, 83, 0
2, 9959, Control_c, 0, 64, 127
2, 9964, Note_on_c, 0, 64, 0
2, 9968, Note_on_c, 0, 59, 0
2, 10005, Note_on_c, 0, 79, 56
2, 10007, Note_on_c, 0, 74, 62
2, 10011, Note_on_c, 0, 59, 46
2, 10011, Note_on_c, 0, 67, 36
2, 10011, Note_on_c, 0, 53, 40
2, 10011, Note_on_c, 0, 64, 43
2, 10032, Note_on_c, 0, 64, 0
2, 10032, Note_on_c, 0, 67, 0
2, 10038, Note_on_c, 0, 53, 0
2, 10041, Note_on_c, 0, 59, 0
2, 10043, Note_on_c, 0, 74, 0
2, 10046, Note_on_c, 0, 79, 0
2, 10087, Note_on_c, 0, 84, 65
2, 10087, Control_c, 0, 64, 0
2, 10088, Note_on_c, 0, 72, 58
2, 10090, Note_on_c, 0, 59, 40
2, 10093, Note_on_c, 0, 55, 56
2, 10093, Note_on_c, 0, 62, 45
2, 10098, Note_on_c, 0, 52, 42
2, 10150, Control_c, 0, 64, 127
2, 10230, Note_on_c, 0, 84, 0
2, 10272, Note_on_c, 0, 72, 0
2, 10320, Note_on_c, 0, 55, 0
2, 10323, Note_on_c, 0, 52, 0
2, 10331, Note_on_c, 0, 59, 0
2, 10346, Note_on_c, 0, 62, 0
2, 10396, Note_on_c, 0, 77, 83
2, 10432, Note_on_c, 0, 77, 0
2, 10442, Note_on_c, 0, 61, 42
2, 10443, Note_on_c, 0, 60, 36
2, 10443, Note_on_c, 0, 65, 42
2, 10444, Control_c, 0, 64, 0
2, 10444, Note_on_c, 0, 75, 68
2, 10448, Note_on_c, 0, 55, 42
2, 10561, Control_c, 0, 64, 127
2, 10644, Note_on_c, 0, 75, 0
2, 10698, Note_on_c, 0, 65, 0
2, 10700, Note_on_c, 0, 60, 0
2, 10710, Note_on_c, 0, 61, 0
2, 10711, Note_on_c, 0, 55, 0
2, 10748, Note_on_c, 0, 77, 80
2, 10778, Note_on_c, 0, 77, 0
2, 10801, Note_on_c, 0, 60, 42
2, 10801, Note_on_c, 0, 65, 37
2, 10802, Note_on_c, 0, 54, 38
2, 10804, Note_on_c, 0, 80, 65
2, 10804, Control_c, 0, 64, 0
2, 10879, Control_c, 0, 64, 127
2, 10902, Note_on_c, 0, 60, 0
2, 10910, Note_on_c, 0, 65, 0
2, 10913, Note_on_c, 0, 54, 0
2, 10913, Note_on_c, 0, 80, 0
2, 11001, Note_on_c, 0, 92, 74
2, 11003, Note_on_c, 0, 80, 70
2, 11003, Note_on_c, 0, 87, 74
2, 11003, Note_on_c, 0, 65, 60
2, 11004, Note_on_c, 0, 60, 57
2, 11004, Note_on_c, 0, 58, 44
2, 11005, Note_on_c, 0, 54, 45
2, 11009, Control_c, 0, 64, 0
2, 11047, Control_c, 0, 64, 127
2, 11075, Note_on_c, 0, 87, 0
2, 11077, Note_on_c, 0, 92, 0
2, 11078, Note_on_c, 0, 60, 0
2, 11080, Note_on_c, 0, 80, 0
2, 11084, Note_on_c, 0, 65, 0
2, 11102, Note_on_c, 0, 58, 0
2, 11117, Note_on_c, 0, 54, 0
2, 11153, Control_c, 0, 64, 0
2, 11155, Note_on_c, 0, 87, 50
2, 11156, Note_on_c, 0, 79, 64
2, 11158, Note_on_c, 0, 91, 62
2, 11161, Note_on_c, 0, 83, 68
2, 11162, Note_on_c, 0, 59, 53
2, 11162, Note_on_c, 0, 64, 56
2, 11166, Note_on_c, 0, 53, 45
2, 11192, Control_c, 0, 64, 127
2, 11214, Note_on_c, 0, 91, 0
2, 11224, Note_on_c, 0, 83, 0
2, 11225, Note_on_c, 0, 87, 0
2, 11238, Note_on_c, 0, 79, 0
2, 11241, Note_on_c, 0, 64, 0
2, 11244, Note_on_c, 0, 59, 0
2, 11261, Note_on_c, 0, 53, 0
2, 11367, Note_on_c, 0, 67, 74
2, 11367, Note_on_c, 0, 58, 77
2, 11369, Note_on_c, 0, 63, 74
2, 11371, Note_on_c, 0, 53, 64
2, 11382, Control_c, 0, 64, 0
2, 11431, Control_c, 0, 64, 127
2, 11473, Note_on_c, 0, 58, 0
2, 11495, Note_on_c, 0, 67, 0
2, 11499, Note_on_c, 0, 53, 0
2, 11507, Note_on_c, 0, 63, 0
2, 11534, Note_on_c, 0, 67, 51
2, 11535, Note_on_c, 0, 52, 52
2, 11537, Note_on_c, 0, 57, 48
2, 11537, Note_on_c, 0, 62, 57
2, 11539, Control_c, 0, 64, 0
2, 11635, Control_c, 0, 64, 127
2, 11653, Note_on_c, 0, 57, 0
2, 11671, Note_on_c, 0, 62, 0
2, 11680, Note_on_c, 0, 67, 0
2, 11714, Note_on_c, 0, 52, 0
2, 11844, Note_on_c, 0, 72, 110
2, 11881, Note_on_c, 0, 72, 0
2, 11888, Control_c, 0, 64, 0
2, 11890, Note_on_c, 0, 55, 41
2, 11892, Note_on_c, 0, 60, 43
2, 11892, Note_on_c, 0, 65, 46
2, 11893, Note_on_c, 0, 57, 44
2, 11898, Note_on_c, 0, 71, 68
2, 12001, Note_on_c, 0, 71, 0
2, 12014, Note_on_c, 0, 72, 57
2, 12015, Control_c, 0, 64, 127
2, 12066, Note_on_c, 0, 72, 0
2, 12128, Note_on_c, 0, 60, 0
2, 12132, Note_on_c, 0, 76, 60
2, 12137, Note_on_c, 0, 65, 0
2, 12147, Note_on_c, 0, 57, 0
2, 12161, Note_on_c, 0, 76, 0
2, 12221, Note_on_c, 0, 62, 36
2, 12245, Note_on_c, 0, 81, 73
2, 12249, Control_c, 0, 64, 0
2, 12249, Note_on_c, 0, 74, 59
2, 12251, Note_on_c, 0, 69, 32
2, 12252, Note_on_c, 0, 62, 0
2, 12252, Note_on_c, 0, 71, 38
2, 12254, Note_on_c, 0, 64, 45
2, 12268, Note_on_c, 0, 71, 0
2, 12284, Note_on_c, 0, 55, 0
2, 12333, Note_on_c, 0, 55, 57
2, 12372, Control_c, 0, 64, 127
2, 12398, Note_on_c, 0, 81, 0
2, 12417, Note_on_c, 0, 74, 0
2, 12434, Note_on_c, 0, 69, 0
2, 12479, Note_on_c, 0, 64, 0
2, 12497, Note_on_c, 0, 76, 55
2, 12498, Note_on_c, 0, 55, 0
2, 12500, Note_on_c, 0, 69, 48
2, 12518, Note_on_c, 0, 69, 0
2, 12519, Note_on_c, 0, 76, 0
2, 12582, Note_on_c, 0, 74, 44
2, 12584, Note_on_c, 0, 65, 41
2, 12585, Note_on_c, 0, 55, 47
2, 12586, Note_on_c, 0, 62, 37
2, 12586, Note_on_c, 0, 70, 40
2, 12587, Control_c, 0, 64, 0
2, 12590, Note_on_c, 0, 58, 28
2, 12591, Note_on_c, 0, 53, 28
2, 12629, Control_c, 0, 64, 127
2, 12656, Note_on_c, 0, 65, 0
2, 12673, Note_on_c, 0, 70, 0
2, 12677, Note_on_c, 0, 74, 0
2, 12695, Note_on_c, 0, 62, 0
2, 12697, Note_on_c, 0, 53, 0
2, 12708, Note_on_c, 0, 55, 0
2, 12715, Note_on_c, 0, 58, 0
2, 12808, Note_on_c, 0, 88, 74
2, 12809, Note_on_c, 0, 76, 74
2, 12811, Note_on_c, 0, 62, 53
2, 12812, Control_c, 0, 64, 0
2, 12812, Note_on_c, 0, 58, 37
2, 12812, Note_on_c, 0, 84, 60
2, 12814, Note_on_c, 0, 52, 49
2, 12820, Note_on_c, 0, 84, 0
2, 12820, Note_on_c, 0, 62, 0
2, 12823, Note_on_c, 0, 52, 0
2, 12826, Note_on_c, 0, 76, 0
2, 12827, Note_on_c, 0, 58, 0
2, 12828, Note_on_c, 0, 88, 0
2, 12843, Control_c, 0, 64, 127
2, 12887, Note_on_c, 0, 58, 40
2, 12894, Note_on_c, 0, 84, 32
2, 12895, Note_on_c, 0, 71, 37
2, 12897, Note_on_c, 0, 83, 29
2, 12899, Note_on_c, 0, 72, 30
2, 12902, Note_on_c, 0, 84, 0
2, 12905, Note_on_c, 0, 71, 0
2, 12906, Note_on_c, 0, 72, 0
2, 12908, Note_on_c, 0, 83, 0
2, 12913, Note_on_c, 0, 58, 0
2, 13064, Control_c, 0, 64, 0
2, 13067, Note_on_c, 0, 71, 76
2, 13068, Note_on_c, 0, 68, 73
2, 13069, Note_on_c, 0, 61, 60
2, 13070, Note_on_c, 0, 64, 77
2, 13074, Note_on_c, 0, 59, 59
2, 13075, Note_on_c, 0, 57, 48
2, 13124, Control_c, 0, 64, 127
2, 13134, Note_on_c, 0, 71, 0
2, 13137, Note_on_c, 0, 61, 0
2, 13139, Note_on_c, 0, 57, 0
2, 13140, Note_on_c, 0, 59, 0
2, 13143, Note_on_c, 0, 68, 0
2, 13147, Note_on_c, 0, 64, 0
2, 13155, Note_on_c, 0, 71, 66
2, 13155, Note_on_c, 0, 61, 61
2, 13157, Note_on_c, 0, 64, 47
2, 13157, Note_on_c, 0, 68, 68
2, 13160, Note_on_c, 0, 59, 54
2, 13164, Note_on_c, 0, 57, 44
2, 13174, Control_c, 0, 64, 0
2, 13176, Note_on_c, 0, 57, 0
2, 13181, Note_on_c, 0, 61, 0
2, 13183, Note_on_c, 0, 71, 0
2, 13183, Note_on_c, 0, 64, 0
2, 13184, Note_on_c, 0, 68, 0
2, 13189, Note_on_c, 0, 59, 0
2, 13203, Note_on_c, 0, 61, 39
2, 13205, Note_on_c, 0, 71, 58
2, 13207, Note_on_c, 0, 68, 46
2, 13209, Note_on_c, 0, 59, 35
2, 13210, Note_on_c, 0, 64, 33
2, 13222, Note_on_c, 0, 64, 0
2, 13222, Note_on_c, 0, 61, 0
2, 13223, Note_on_c, 0, 59, 0
2, 13226, Note_on_c, 0, 71, 0
2, 13227, Note_on_c, 0, 68, 0
2, 13245, Control_c, 0, 64, 127
2, 13277, Note_on_c, 0, 68, 60
2, 13279, Note_on_c, 0, 71, 66
2, 13280, Note_on_c, 0, 64, 65
2, 13297, Note_on_c, 0, 64, 0
2, 13304, Note_on_c, 0, 68, 0
2, 13305, Note_on_c, 0, 71, 0
2, 13320, Control_c, 0, 64, 0
2, 13329, Note_on_c, 0, 57, 66
2, 13331, Note_on_c, 0, 47, 54
2, 13333, Note_on_c, 0, 62, 50
2, 13333, Note_on_c, 0, 67, 49
2, 13334, Note_on_c, 0, 71, 37
2, 13377, Control_c, 0, 64, 127
2, 13394, Control_c, 0, 64, 0
2, 13417, Note_on_c, 0, 62, 0
2, 13427, Note_on_c, 0, 57, 0
2, 13434, Note_on_c, 0, 67, 0
2, 13440, Note_on_c, 0, 71, 0
2, 13449, Note_on_c, 0, 65, 53
2, 13449, Note_on_c, 0, 69, 47
2, 13450, Note_on_c, 0, 60, 40
2, 13452, Note_on_c, 0, 57, 43
2, 13480, Control_c, 0, 64, 127
2, 13561, Note_on_c, 0, 57, 0
2, 13562, Note_on_c, 0, 69, 0
2, 13564, Note_on_c, 0, 65, 0
2, 13575, Note_on_c, 0, 60, 0
2, 13579, Note_on_c, 0, 47, 0
2, 13681, Note_on_c, 0, 52, 44
2, 13685, Note_on_c, 0, 68, 34
2, 13685, Control_c, 0, 64, 0
2, 13686, Note_on_c, 0, 58, 32
2, 13687, Note_on_c, 0, 63, 44
2, 13769, Note_on_c, 0, 40, 31
2, 13798, Control_c, 0, 64, 127
2, 13842, Note_on_c, 0, 40, 0
2, 13872, Note_on_c, 0, 52, 0
2, 13887, Note_on_c, 0, 58, 0
2, 13893, Note_on_c, 0, 63, 0
2, 13931, Note_on_c, 0, 58, 32
2, 13936, Note_on_c, 0, 63, 33
2, 13984, Note_on_c, 0, 58, 0
2, 13999, Note_on_c, 0, 63, 0
2, 14013, Note_on_c, 0, 59, 49
2, 14017, Note_on_c, 0, 64, 44
2, 14021, Note_on_c, 0, 49, 26
2, 14022, Note_on_c, 0, 56, 29
2, 14024, Control_c, 0, 64, 0
2, 14076, Control_c, 0, 64, 127
2, 14112, Note_on_c, 0, 59, 0
2, 14147, Note_on_c, 0, 68, 0
2, 14154, Note_on_c, 0, 49, 0
2, 14166, Note_on_c, 0, 56, 0
2, 14173, Note_on_c, 0, 64, 0
2, 14285, Note_on_c, 0, 61, 56
2, 14287, Note_on_c, 0, 68, 57
2, 14287, Note_on_c, 0, 71, 62
2, 14288, Note_on_c, 0, 64, 65
2, 14289, Note_on_c, 0, 59, 48
2, 14291, Control_c, 0, 64, 0
2, 14291, Note_on_c, 0, 57, 41
2, 14300, Note_on_c, 0, 59, 0
2, 14302, Note_on_c, 0, 68, 0
2, 14303, Note_on_c, 0, 61, 0
2, 14304, Note_on_c, 0, 64, 0
2, 14304, Note_on_c, 0, 57, 0
2, 14309, Note_on_c, 0, 71, 0
2, 14320, Note_on_c, 0, 68, 51
2, 14321, Note_on_c, 0, 64, 53
2, 14323, Note_on_c, 0, 61, 39
2, 14323, Note_on_c, 0, 71, 37
2, 14332, Note_on_c, 0, 64, 0
2, 14332, Note_on_c, 0, 59, 29
2, 14333, Note_on_c, 0, 61, 0
2, 14336, Note_on_c, 0, 68, 0
2, 14338, Note_on_c, 0, 71, 0
2, 14341, Note_on_c, 0, 59, 0
2, 14411, Note_on_c, 0, 68, 61
2, 14411, Note_on_c, 0, 71, 68
2, 14412, Note_on_c, 0, 61, 43
2, 14413, Note_on_c, 0, 64, 62
2, 14415, Note_on_c, 0, 59, 46
2, 14419, Note_on_c, 0, 57, 40
2, 14518, Control_c, 0, 64, 127
2, 14568, Note_on_c, 0, 57, 0
2, 14574, Note_on_c, 0, 64, 0
2, 14584, Note_on_c, 0, 59, 0
2, 14630, Note_on_c, 0, 61, 0
2, 14630, Note_on_c, 0, 68, 0
2, 14635, Note_on_c, 0, 71, 0
2, 14765, Note_on_c, 0, 81, 101
2, 14766, Note_on_c, 0, 62, 32
2, 14768, Control_c, 0, 64, 0
2, 14770, Note_on_c, 0, 57, 54
2, 14771, Note_on_c, 0, 77, 88
2, 14771, Note_on_c, 0, 63, 45
2, 14784, Note_on_c, 0, 67, 38
2, 14801, Note_on_c, 0, 72, 66
2, 14813, Control_c, 0, 64, 127
2, 14853, Note_on_c, 0, 57, 0
2, 14857, Note_on_c, 0, 81, 0
2, 14858, Note_on_c, 0, 77, 0
2, 14858, Note_on_c, 0, 62, 0
2, 14862, Note_on_c, 0, 72, 0
2, 14863, Note_on_c, 0, 63, 0
2, 14870, Note_on_c, 0, 67, 0
2, 14969, Note_on_c, 0, 83, 99
2, 14977, Note_on_c, 0, 79, 87
2, 14985, Note_on_c, 0, 62, 36
2, 14986, Note_on_c, 0, 63, 37
2, 14987, Control_c, 0, 64, 0
2, 14989, Note_on_c, 0, 57, 48
2, 14990, Note_on_c, 0, 67, 48
2, 15004, Note_on_c, 0, 74, 50
2, 15020, Control_c, 0, 64, 127
2, 15044, Note_on_c, 0, 62, 0
2, 15048, Note_on_c, 0, 67, 0
2, 15055, Note_on_c, 0, 63, 0
2, 15056, Note_on_c, 0, 79, 0
2, 15065, Note_on_c, 0, 74, 0
2, 15067, Note_on_c, 0, 57, 0
2, 15067, Note_on_c, 0, 83, 0
2, 15207, Note_on_c, 0, 80, 45
2, 15211, Note_on_c, 0, 75, 64
2, 15212, Note_on_c, 0, 56, 35
2, 15216, Note_on_c, 0, 68, 57
2, 15217, Note_on_c, 0, 62, 27
2, 15219, Note_on_c, 0, 52, 31
2, 15219, Control_c, 0, 64, 0
2, 15264, Control_c, 0, 64, 127
2, 15287, Note_on_c, 0, 75, 0
2, 15287, Note_on_c, 0, 80, 0
2, 15288, Note_on_c, 0, 68, 0
2, 15328, Note_on_c, 0, 62, 0
2, 15372, Note_on_c, 0, 64, 20
2, 15387, Note_on_c, 0, 64, 0
2, 15445, Note_on_c, 0, 73, 49
2, 15449, Note_on_c, 0, 68, 60
2, 15451, Note_on_c, 0, 64, 43
2, 15457, Note_on_c, 0, 63, 39
2, 15466, Control_c, 0, 64, 0
2, 15523, Control_c, 0, 64, 127
2, 15573, Note_on_c, 0, 68, 0
2, 15579, Note_on_c, 0, 63, 0
2, 15580, Note_on_c, 0, 64, 0
2, 15601, Note_on_c, 0, 68, 42
2, 15606, Note_on_c, 0, 64, 32
2, 15661, Note_on_c, 0, 56, 0
2, 15676, Note_on_c, 0, 64, 0
2, 15728, Note_on_c, 0, 64, 35
2, 15752, Note_on_c, 0, 64, 0
2, 15761, Note_on_c, 0, 68, 0
2, 15791, Note_on_c, 0, 73, 0
2, 15838, Note_on_c, 0, 52, 0
2, 15842, Note_on_c, 0, 70, 71
2, 15842, Note_on_c, 0, 56, 35
2, 15854, Note_on_c, 0, 67, 61
2, 15857, Note_on_c, 0, 58, 37
2, 15860, Control_c, 0, 64, 0
2, 15868, Note_on_c, 0, 60, 31
2, 15871, Note_on_c, 0, 63, 39
2, 15951, Control_c, 0, 64, 127
2, 15978, Note_on_c, 0, 63, 0
2, 15986, Note_on_c, 0, 67, 0
2, 15996, Note_on_c, 0, 70, 0
2, 16058, Note_on_c, 0, 58, 0
2, 16059, Note_on_c, 0, 60, 0
2, 16062, Note_on_c, 0, 56, 0
2, 16213, Note_on_c, 0, 62, 44
2, 16213, Note_on_c, 0, 66, 39
2, 16216, Control_c, 0, 64, 0
2, 16219, Note_on_c, 0, 56, 33
2, 16288, Control_c, 0, 64, 127
2, 16399, Note_on_c, 0, 82, 77
2, 16449, Note_on_c, 0, 82, 0
2, 16479, Note_on_c, 0, 80, 70
2, 16515, Note_on_c, 0, 62, 0
2, 16515, Note_on_c, 0, 66, 0
2, 16543, Note_on_c, 0, 56, 0
2, 16544, Note_on_c, 0, 80, 0
2, 16554, Note_on_c, 0, 78, 60
2, 16564, Note_on_c, 0, 60, 30
2, 16565, Note_on_c, 0, 62, 30
2, 16567, Note_on_c, 0, 65, 31
2, 16567, Note_on_c, 0, 55, 35
2, 16568, Control_c, 0, 64, 0
2, 16579, Note_on_c, 0, 79, 55
2, 16583, Note_on_c, 0, 78, 0
2, 16676, Control_c, 0, 64, 127
2, 16750, Note_on_c, 0, 65, 0
2, 16755, Note_on_c, 0, 74, 64
2, 16762, Note_on_c, 0, 79, 0
2, 16778, Note_on_c, 0, 74, 0
2, 16788, Note_on_c, 0, 67, 38
2, 16798, Note_on_c, 0, 67, 0
2, 16799, Control_c, 0, 64, 0
2, 16819, Note_on_c, 0, 67, 46
2, 16841, Note_on_c, 0, 67, 0
2, 16901, Note_on_c, 0, 67, 48
2, 16921, Note_on_c, 0, 67, 0
2, 16967, Note_on_c, 0, 67, 44
2, 16979, Note_on_c, 0, 67, 0
2, 17038, Note_on_c, 0, 67, 46
2, 17051, Note_on_c, 0, 67, 0
2, 17115, Note_on_c, 0, 67, 50
2, 17128, Note_on_c, 0, 67, 0
2, 17150, Control_c, 0, 64, 127
2, 17169, Note_on_c, 0, 62, 0
2, 17177, Note_on_c, 0, 60, 0
2, 17194, Note_on_c, 0, 67, 33
2, 17203, Note_on_c, 0, 55, 0
2, 17204, Note_on_c, 0, 67, 0
2, 17229, Note_on_c, 0, 67, 41
2, 17253, Note_on_c, 0, 67, 0
2, 17270, Note_on_c, 0, 73, 71
2, 17281, Control_c, 0, 64, 0
2, 17354, Note_on_c, 0, 66, 62
2, 17355, Note_on_c, 0, 61, 52
2, 17362, Note_on_c, 0, 66, 0
2, 17363, Note_on_c, 0, 55, 25
2, 17365, Note_on_c, 0, 61, 0
2, 17370, Note_on_c, 0, 55, 0
2, 17444, Note_on_c, 0, 66, 69
2, 17448, Note_on_c, 0, 61, 39
2, 17448, Note_on_c, 0, 55, 54
2, 17456, Note_on_c, 0, 55, 0
2, 17456, Note_on_c, 0, 61, 0
2, 17457, Note_on_c, 0, 66, 0
2, 17460, Control_c, 0, 64, 127
2, 17493, Control_c, 0, 64, 0
2, 17527, Note_on_c, 0, 66, 64
2, 17530, Control_c, 0, 64, 127
2, 17531, Note_on_c, 0, 61, 45
2, 17531, Note_on_c, 0, 55, 54
2, 17542, Note_on_c, 0, 55, 0
2, 17549, Note_on_c, 0, 66, 0
2, 17564, Note_on_c, 0, 61, 0
2, 17572, Note_on_c, 0, 73, 0
2, 17645, Note_on_c, 0, 72, 81
2, 17646, Note_on_c, 0, 65, 80
2, 17646, Note_on_c, 0, 69, 81
2, 17648, Note_on_c, 0, 61, 74
2, 17650, Note_on_c, 0, 55, 77
2, 17652, Control_c, 0, 64, 0
2, 17766, Control_c, 0, 64, 127
2, 17838, Note_on_c, 0, 72, 0
2, 17890, Note_on_c, 0, 55, 0
2, 17897, Note_on_c, 0, 71, 63
2, 17899, Note_on_c, 0, 69, 0
2, 17921, Note_on_c, 0, 65, 0
2, 17925, Note_on_c, 0, 71, 0
2, 17930, Note_on_c, 0, 73, 70
2, 17973, Note_on_c, 0, 73, 0
2, 17982, Note_on_c, 0, 69, 64
2, 17983, Note_on_c, 0, 64, 34
2, 17986, Note_on_c, 0, 54, 32
2, 17987, Control_c, 0, 64, 0
2, 17988, Note_on_c, 0, 59, 34
2, 18045, Control_c, 0, 64, 127
2, 18113, Note_on_c, 0, 69, 0
2, 18139, Note_on_c, 0, 64, 0
2, 18153, Note_on_c, 0, 59, 0
2, 18168, Note_on_c, 0, 61, 0
2, 18197, Note_on_c, 0, 81, 80
2, 18200, Note_on_c, 0, 61, 36
2, 18201, Control_c, 0, 64, 0
2, 18204, Note_on_c, 0, 64, 40
2, 18210, Note_on_c, 0, 59, 27
2, 18226, Note_on_c, 0, 64, 0
2, 18229, Control_c, 0, 64, 127
2, 18232, Note_on_c, 0, 81, 0
2, 18233, Note_on_c, 0, 59, 0
2, 18250, Note_on_c, 0, 69, 54
2, 18252, Note_on_c, 0, 64, 42
2, 18252, Note_on_c, 0, 78, 46
2, 18255, Note_on_c, 0, 59, 24
2, 18364, Note_on_c, 0, 59, 0
2, 18367, Note_on_c, 0, 64, 0
2, 18367, Note_on_c, 0, 78, 0
2, 18395, Note_on_c, 0, 69, 0
2, 18398, Note_on_c, 0, 61, 0
2, 18439, Note_on_c, 0, 73, 62
2, 18439, Note_on_c, 0, 61, 31
2, 18462, Note_on_c, 0, 61, 0
2, 18468, Control_c, 0, 64, 0
2, 18479, Note_on_c, 0, 73, 0
2, 18486, Note_on_c, 0, 69, 53
2, 18489, Note_on_c, 0, 64, 42
2, 18490, Note_on_c, 0, 61, 23
2, 18495, Note_on_c, 0, 59, 24
2, 18500, Control_c, 0, 64, 127
2, 18532, Note_on_c, 0, 54, 0
2, 18559, Note_on_c, 0, 64, 0
2, 18560, Note_on_c, 0, 69, 0
2, 18566, Note_on_c, 0, 59, 0
2, 18580, Note_on_c, 0, 61, 0
2, 18726, Note_on_c, 0, 71, 87
2, 18726, Note_on_c, 0, 66, 85
2, 18727, Note_on_c, 0, 63, 83
2, 18728, Note_on_c, 0, 59, 89
2, 18728, Note_on_c, 0, 55, 96
2, 18735, Control_c, 0, 64, 0
2, 18815, Control_c, 0, 64, 127
2, 18947, Note_on_c, 0, 59, 0
2, 18971, Note_on_c, 0, 71, 0
2, 18976, Note_on_c, 0, 59, 44
2, 19018, Note_on_c, 0, 66, 0
2, 19030, Note_on_c, 0, 63, 0
2, 19040, Note_on_c, 0, 59, 0
2, 19079, Note_on_c, 0, 55, 0
2, 19079, Note_on_c, 0, 51, 37
2, 19096, Note_on_c, 0, 61, 81
2, 19097, Note_on_c, 0, 69, 81
2, 19097, Note_on_c, 0, 64, 81
2, 19098, Note_on_c, 0, 57, 85
2, 19099, Note_on_c, 0, 51, 0
2, 19100, Note_on_c, 0, 53, 87
2, 19108, Control_c, 0, 64, 0
2, 19212, Control_c, 0, 64, 127
2, 19285, Note_on_c, 0, 57, 0
2, 19303, Note_on_c, 0, 64, 0
2, 19307, Note_on_c, 0, 61, 0
2, 19327, Note_on_c, 0, 69, 0
2, 19332, Note_on_c, 0, 57, 48
2, 19333, Note_on_c, 0, 61, 21
2, 19341, Note_on_c, 0, 64, 13
2, 19401, Note_on_c, 0, 64, 0
2, 19405, Note_on_c, 0, 57, 0
2, 19434, Note_on_c, 0, 61, 0
2, 19452, Note_on_c, 0, 53, 0
2, 19459, Note_on_c, 0, 51, 74
2, 19464, Note_on_c, 0, 59, 82
2, 19464, Note_on_c, 0, 67, 46
2, 19465, Note_on_c, 0, 65, 55
2, 19465, Note_on_c, 0, 61, 71
2, 19469, Control_c, 0, 64, 0
2, 19487, Note_on_c, 0, 65, 0
2, 19499, Note_on_c, 0, 61, 0
2, 19509, Note_on_c, 0, 62, 9
2, 19580, Control_c, 0, 64, 127
2, 19684, Note_on_c, 0, 55, 36
2, 19685, Note_on_c, 0, 67, 0
2, 19724, Note_on_c, 0, 59, 0
2, 19739, Note_on_c, 0, 55, 0
2, 19786, Note_on_c, 0, 62, 0
2, 19800, Note_on_c, 0, 57, 48
2, 19801, Note_on_c, 0, 65, 44
2, 19801, Note_on_c, 0, 60, 54
2, 19805, Note_on_c, 0, 51, 0
2, 19806, Note_on_c, 0, 49, 42
2, 19807, Control_c, 0, 64, 0
2, 19850, Control_c, 0, 64, 127
2, 19876, Control_c, 0, 64, 0
2, 19921, Note_on_c, 0, 65, 0
2, 19921, Control_c, 0, 64, 127
2, 19922, Note_on_c, 0, 64, 58
2, 20001, Note_on_c, 0, 49, 0
2, 20043, Note_on_c, 0, 57, 0
2, 20050, Note_on_c, 0, 60, 0
2, 20087, Note_on_c, 0, 64, 0
2, 20108, Note_on_c, 0, 62, 42
2, 20150, Note_on_c, 0, 62, 0
2, 20159, Note_on_c, 0, 60, 57
2, 20163, Control_c, 0, 64, 0
2, 20216, Control_c, 0, 64, 127
2, 20309, Note_on_c, 0, 60, 0
2, 20360, Note_on_c, 0, 64, 36
2, 20362, Note_on_c, 0, 60, 35
2, 20363, Note_on_c, 0, 59, 38
2, 20435, Note_on_c, 0, 64, 0
2, 20438, Note_on_c, 0, 60, 0
2, 20441, Note_on_c, 0, 59, 0
2, 20484, Note_on_c, 0, 72, 101
2, 20522, Note_on_c, 0, 72, 0
2, 20530, Note_on_c, 0, 55, 38
2, 20530, Note_on_c, 0, 60, 39
2, 20533, Note_on_c, 0, 65, 31
2, 20533, Note_on_c, 0, 57, 37
2, 20536, Control_c, 0, 64, 0
2, 20538, Note_on_c, 0, 71, 51
2, 20633, Note_on_c, 0, 71, 0
2, 20651, Note_on_c, 0, 72, 49
2, 20668, Control_c, 0, 64, 127
2, 20681, Note_on_c, 0, 72, 0
2, 20696, Note_on_c, 0, 65, 0
2, 20703, Note_on_c, 0, 60, 0
2, 20724, Note_on_c, 0, 55, 0
2, 20725, Note_on_c, 0, 57, 0
2, 20757, Control_c, 0, 64, 0
2, 20778, Note_on_c, 0, 67, 35
2, 20778, Note_on_c, 0, 64, 24
2, 20780, Note_on_c, 0, 59, 30
2, 20781, Note_on_c, 0, 53, 24
2, 20788, Note_on_c, 0, 67, 0
2, 20794, Note_on_c, 0, 59, 0
2, 20796, Note_on_c, 0, 64, 0
2, 20801, Note_on_c, 0, 53, 0
2, 20824, Control_c, 0, 64, 127
2, 20869, Control_c, 0, 64, 0
2, 20891, Note_on_c, 0, 81, 60
2, 20891, Note_on_c, 0, 62, 38
2, 20893, Note_on_c, 0, 69, 48
2, 20894, Note_on_c, 0, 74, 44
2, 20895, Note_on_c, 0, 57, 38
2, 20898, Note_on_c, 0, 52, 36
2, 20900, Note_on_c, 0, 76, 37
2, 20938, Control_c, 0, 64, 127
2, 20996, Note_on_c, 0, 81, 0
2, 21000, Note_on_c, 0, 76, 0
2, 21003, Note_on_c, 0, 74, 0
2, 21011, Note_on_c, 0, 69, 0
2, 21038, Note_on_c, 0, 62, 0
2, 21043, Note_on_c, 0, 57, 0
2, 21113, Note_on_c, 0, 76, 70
2, 21116, Note_on_c, 0, 69, 66
2, 21117, Note_on_c, 0, 65, 57
2, 21118, Note_on_c, 0, 62, 60
2, 21119, Note_on_c, 0, 72, 64
2, 21120, Control_c, 0, 64, 0
2, 21120, Note_on_c, 0, 57, 50
2, 21155, Note_on_c, 0, 57, 0
2, 21156, Control_c, 0, 64, 127
2, 21168, Note_on_c, 0, 52, 0
2, 21202, Note_on_c, 0, 69, 0
2, 21209, Note_on_c, 0, 65, 0
2, 21213, Note_on_c, 0, 62, 0
2, 21219, Note_on_c, 0, 72, 0
2, 21222, Note_on_c, 0, 76, 0
2, 21247, Note_on_c, 0, 74, 74
2, 21248, Note_on_c, 0, 64, 88
2, 21250, Note_on_c, 0, 68, 75
2, 21250, Note_on_c, 0, 72, 71
2, 21251, Note_on_c, 0, 65, 80
2, 21251, Control_c, 0, 64, 0
2, 21311, Control_c, 0, 64, 127
2, 21325, Control_c, 0, 64, 0
2, 21359, Control_c, 0, 64, 127
2, 21401, Note_on_c, 0, 72, 0
2, 21403, Note_on_c, 0, 65, 0
2, 21414, Note_on_c, 0, 74, 0
2, 21425, Note_on_c, 0, 68, 0
2, 21434, Note_on_c, 0, 68, 30
2, 21436, Note_on_c, 0, 76, 78
2, 21439, Note_on_c, 0, 65, 59
2, 21459, Note_on_c, 0, 64, 0
2, 21483, Note_on_c, 0, 68, 0
2, 21491, Note_on_c, 0, 65, 0
2, 21492, Note_on_c, 0, 76, 0
2, 21510, Note_on_c, 0, 72, 58
2, 21518, Note_on_c, 0, 72, 0
2, 21594, Note_on_c, 0, 81, 83
2, 21594, Note_on_c, 0, 57, 55
2, 21595, Control_c, 0, 64, 0
2, 21596, Note_on_c, 0, 58, 43
2, 21597, Note_on_c, 0, 74, 78
2, 21597, Note_on_c, 0, 62, 61
2, 21597, Note_on_c, 0, 69, 74
2, 21598, Note_on_c, 0, 52, 59
2, 21606, Note_on_c, 0, 79, 34
2, 21616, Note_on_c, 0, 79, 0
2, 21658, Control_c, 0, 64, 127
2, 21836, Note_on_c, 0, 81, 0
2, 21846, Note_on_c, 0, 52, 0
2, 21852, Note_on_c, 0, 57, 0
2, 21860, Note_on_c, 0, 58, 0
2, 21864, Note_on_c, 0, 74, 0
2, 21864, Note_on_c, 0, 62, 0
2, 21869, Note_on_c, 0, 69, 0
2, 21924, Note_on_c, 0, 76, 68
2, 21949, Note_on_c, 0, 76, 0
2, 21963, Control_c, 0, 64, 0
2, 21963, Note_on_c, 0, 64, 35
2, 21966, Note_on_c, 0, 60, 31
2, 21968, Note_on_c, 0, 59, 36
2, 21968, Note_on_c, 0, 74, 59
2, 21972, Note_on_c, 0, 55, 39
2, 21996, Note_on_c, 0, 74, 0
2, 21996, Note_on_c, 0, 76, 48
2, 22029, Note_on_c, 0, 76, 0
2, 22029, Note_on_c, 0, 74, 31
2, 22062, Note_on_c, 0, 74, 0
2, 22065, Note_on_c, 0, 72, 53
2, 22076, Note_on_c, 0, 72, 0
2, 22115, Note_on_c, 0, 64, 0
2, 22121, Note_on_c, 0, 60, 0
2, 22135, Note_on_c, 0, 59, 0
2, 22178, Note_on_c, 0, 72, 60
2, 22181, Note_on_c, 0, 64, 38
2, 22186, Note_on_c, 0, 72, 0
2, 22187, Note_on_c, 0, 60, 20
2, 22192, Note_on_c, 0, 64, 0
2, 22196, Note_on_c, 0, 60, 0
2, 22215, Note_on_c, 0, 74, 63
2, 22224, Note_on_c, 0, 74, 0
2, 22236, Note_on_c, 0, 55, 0
2, 22255, Note_on_c, 0, 76, 56
2, 22264, Note_on_c, 0, 76, 0
2, 22271, Control_c, 0, 64, 127
2, 22290, Note_on_c, 0, 79, 68
2, 22305, Note_on_c, 0, 79, 0
2, 22326, Control_c, 0, 64, 0
2, 22330, Note_on_c, 0, 84, 88
2, 22332, Note_on_c, 0, 64, 48
2, 22332, Note_on_c, 0, 60, 44
2, 22341, Note_on_c, 0, 54, 33
2, 22382, Note_on_c, 0, 84, 0
2, 22385, Note_on_c, 0, 64, 0
2, 22386, Note_on_c, 0, 54, 0
2, 22391, Note_on_c, 0, 60, 0
2, 22412, Note_on_c, 0, 84, 77
2, 22414, Note_on_c, 0, 72, 61
2, 22414, Note_on_c, 0, 64, 52
2, 22417, Note_on_c, 0, 60, 50
2, 22418, Note_on_c, 0, 54, 36
2, 22422, Note_on_c, 0, 72, 0
2, 22425, Note_on_c, 0, 60, 0
2, 22428, Note_on_c, 0, 64, 0
2, 22429, Note_on_c, 0, 84, 0
2, 22436, Note_on_c, 0, 54, 0
2, 22656, Note_on_c, 0, 84, 81
2, 22659, Note_on_c, 0, 58, 46
2, 22659, Note_on_c, 0, 60, 53
2, 22660, Note_on_c, 0, 72, 63
2, 22664, Note_on_c, 0, 65, 24
2, 22665, Note_on_c, 0, 54, 25
2, 22669, Note_on_c, 0, 72, 0
2, 22672, Note_on_c, 0, 65, 0
2, 22673, Note_on_c, 0, 54, 0
2, 22674, Note_on_c, 0, 84, 0
2, 22678, Note_on_c, 0, 60, 0
2, 22683, Note_on_c, 0, 58, 0
2, 22705, Note_on_c, 0, 65, 54
2, 22707, Note_on_c, 0, 84, 75
2, 22707, Note_on_c, 0, 58, 43
2, 22709, Note_on_c, 0, 60, 36
2, 22711, Note_on_c, 0, 54, 25
2, 22714, Note_on_c, 0, 72, 42
2, 22722, Note_on_c, 0, 60, 0
2, 22725, Note_on_c, 0, 72, 0
2, 22726, Note_on_c, 0, 65, 0
2, 22730, Note_on_c, 0, 84, 0
2, 22732, Note_on_c, 0, 54, 0
2, 22735, Note_on_c, 0, 58, 0
2, 22745, Control_c, 0, 64, 127
2, 22752, Control_c, 0, 64, 0
2, 22807, Note_on_c, 0, 84, 74
2, 22808, Note_on_c, 0, 65, 44
2, 22810, Note_on_c, 0, 60, 42
2, 22811, Note_on_c, 0, 58, 35
2, 22811, Note_on_c, 0, 72, 52
2, 22812, Note_on_c, 0, 54, 31
2, 22827, Control_c, 0, 64, 127
2, 22918, Note_on_c, 0, 84, 0
2, 22936, Note_on_c, 0, 72, 0
2, 22938, Note_on_c, 0, 54, 0
2, 22982, Note_on_c, 0, 65, 0
2, 22995, Note_on_c, 0, 60, 0
2, 22998, Note_on_c, 0, 54, 47
2, 23024, Note_on_c, 0, 54, 0
2, 23029, Note_on_c, 0, 58, 0
2, 23044, Note_on_c, 0, 79, 61
2, 23046, Note_on_c, 0, 67, 49
2, 23047, Note_on_c, 0, 76, 54
2, 23048, Note_on_c, 0, 72, 55
2, 23048, Control_c, 0, 64, 0
2, 23049, Note_on_c, 0, 64, 42
2, 23052, Note_on_c, 0, 60, 46
2, 23056, Note_on_c, 0, 55, 44
2, 23088, Control_c, 0, 64, 127
2, 23179, Note_on_c, 0, 64, 0
2, 23190, Note_on_c, 0, 55, 0
2, 23191, Note_on_c, 0, 60, 0
2, 23192, Note_on_c, 0, 67, 0
2, 23194, Note_on_c, 0, 72, 0
2, 23196, Note_on_c, 0, 79, 0
2, 23200, Note_on_c, 0, 76, 0
2, 23242, Note_on_c, 0, 79, 72
2, 23245, Note_on_c, 0, 76, 63
2, 23245, Note_on_c, 0, 67, 69
2, 23246, Note_on_c, 0, 72, 71
2, 23251, Note_on_c, 0, 64, 48
2, 23251, Note_on_c, 0, 55, 55
2, 23252, Note_on_c, 0, 60, 50
2, 23275, Note_on_c, 0, 67, 0
2, 23291, Note_on_c, 0, 72, 0
2, 23298, Note_on_c, 0, 76, 0
2, 23300, Note_on_c, 0, 79, 0
2, 23307, Note_on_c, 0, 64, 0
2, 23307, Note_on_c, 0, 55, 0
2, 23309, Note_on_c, 0, 60, 0
2, 23395, Control_c, 0, 64, 0
2, 23407, Note_on_c, 0, 88, 96
2, 23408, Note_on_c, 0, 79, 99
2, 23414, Note_on_c, 0, 64, 64
2, 23414, Note_on_c, 0, 55, 72
2, 23431, Control_c, 0, 64, 127
2, 23449, Note_on_c, 0, 88, 0
2, 23461, Note_on_c, 0, 79, 0
2, 23477, Note_on_c, 0, 64, 0
2, 23530, Note_on_c, 0, 84, 71
2, 23530, Note_on_c, 0, 76, 65
2, 23535, Note_on_c, 0, 64, 44
2, 23548, Note_on_c, 0, 84, 0
2, 23552, Note_on_c, 0, 76, 0
2, 23570, Note_on_c, 0, 64, 0
2, 23716, Note_on_c, 0, 67, 62
2, 23718, Note_on_c, 0, 76, 57
2, 23722, Note_on_c, 0, 72, 50
2, 23724, Note_on_c, 0, 69, 36
2, 23731, Note_on_c, 0, 69, 0
2, 23737, Note_on_c, 0, 67, 0
2, 23746, Note_on_c, 0, 72, 0
2, 23749, Note_on_c, 0, 76, 0
2, 23777, Control_c, 0, 64, 0
2, 23781, Note_on_c, 0, 67, 44
2, 23783, Note_on_c, 0, 69, 55
2, 23783, Note_on_c, 0, 72, 62
2, 23784, Note_on_c, 0, 77, 64
2, 23823, Control_c, 0, 64, 127
2, 23831, Note_on_c, 0, 55, 0
2, 23864, Note_on_c, 0, 55, 57
2, 23969, Note_on_c, 0, 69, 0
2, 23970, Note_on_c, 0, 72, 0
2, 23991, Note_on_c, 0, 67, 0
2, 23997, Note_on_c, 0, 77, 0
2, 24117, Control_c, 0, 64, 0
2, 24123, Note_on_c, 0, 55, 0
2, 24125, Note_on_c, 0, 74, 53
2, 24127, Note_on_c, 0, 62, 34
2, 24127, Note_on_c, 0, 71, 47
2, 24127, Note_on_c, 0, 67, 49
2, 24128, Note_on_c, 0, 64, 54
2, 24138, Note_on_c, 0, 62, 0
2, 24140, Note_on_c, 0, 71, 0
2, 24144, Note_on_c, 0, 67, 0
2, 24145, Control_c, 0, 64, 127
2, 24149, Note_on_c, 0, 64, 0
2, 24149, Note_on_c, 0, 74, 0
2, 24243, Note_on_c, 0, 59, 43
2, 24243, Note_on_c, 0, 71, 48
2, 24244, Control_c, 0, 64, 0
2, 24245, Note_on_c, 0, 62, 53
2, 24245, Note_on_c, 0, 68, 33
2, 24246, Note_on_c, 0, 65, 54
2, 24264, Control_c, 0, 64, 127
2, 24266, Note_on_c, 0, 65, 0
2, 24266, Note_on_c, 0, 68, 0
2, 24268, Note_on_c, 0, 59, 0
2, 24270, Note_on_c, 0, 71, 0
2, 24276, Note_on_c, 0, 62, 0
2, 24360, Control_c, 0, 64, 0
2, 24361, Note_on_c, 0, 55, 40
2, 24363, Note_on_c, 0, 59, 45
2, 24366, Note_on_c, 0, 62, 38
2, 24366, Note_on_c, 0, 65, 47
2, 24379, Control_c, 0, 64, 127
2, 24391, Note_on_c, 0, 59, 0
2, 24391, Note_on_c, 0, 55, 0
2, 24394, Note_on_c, 0, 62, 0
2, 24397, Note_on_c, 0, 65, 0
2, 24459, Note_on_c, 0, 50, 30
2, 24473, Note_on_c, 0, 50, 0
2, 24489, Note_on_c, 0, 67, 38
2, 24490, Control_c, 0, 64, 0
2, 24490, Note_on_c, 0, 64, 45
2, 24490, Note_on_c, 0, 72, 55
2, 24490, Note_on_c, 0, 62, 35
2, 24495, Note_on_c, 0, 52, 30
2, 24563, Note_on_c, 0, 43, 53
2, 24599, Control_c, 0, 64, 127
2, 24619, Note_on_c, 0, 62, 0
2, 24630, Note_on_c, 0, 64, 0
2, 24639, Note_on_c, 0, 67, 0
2, 24661, Note_on_c, 0, 72, 0
2, 24711, Note_on_c, 0, 52, 0
2, 24715, Note_on_c, 0, 43, 0
2, 24720, Note_on_c, 0, 60, 38
2, 24727, Note_on_c, 0, 60, 0
2, 24762, Note_on_c, 0, 65, 57
2, 24805, Note_on_c, 0, 70, 60
2, 24809, Note_on_c, 0, 65, 0
2, 24812, Control_c, 0, 64, 0
2, 24813, Note_on_c, 0, 71, 54
2, 24821, Note_on_c, 0, 71, 0
2, 24822, Note_on_c, 0, 70, 0
2, 24825, Note_on_c, 0, 39, 52
2, 24827, Note_on_c, 0, 46, 39
2, 24843, Control_c, 0, 64, 127
2, 24845, Note_on_c, 0, 39, 0
2, 24852, Note_on_c, 0, 46, 0
2, 24894, Note_on_c, 0, 77, 58
2, 24916, Note_on_c, 0, 77, 0
2, 24925, Note_on_c, 0, 82, 77
2, 24954, Note_on_c, 0, 82, 0
2, 24961, Control_c, 0, 64, 0
2, 24963, Note_on_c, 0, 61, 39
2, 24965, Note_on_c, 0, 65, 57
2, 24967, Note_on_c, 0, 72, 84
2, 24967, Note_on_c, 0, 84, 87
2, 24967, Note_on_c, 0, 60, 36
2, 24971, Note_on_c, 0, 55, 44
2, 24987, Note_on_c, 0, 72, 0
2, 24990, Note_on_c, 0, 84, 0
2, 25009, Note_on_c, 0, 82, 59
2, 25028, Note_on_c, 0, 82, 0
2, 25049, Note_on_c, 0, 84, 90
2, 25052, Note_on_c, 0, 72, 88
2, 25090, Note_on_c, 0, 82, 62
2, 25093, Note_on_c, 0, 72, 0
2, 25103, Note_on_c, 0, 84, 0
2, 25108, Note_on_c, 0, 65, 0
2, 25113, Note_on_c, 0, 60, 0
2, 25116, Note_on_c, 0, 61, 0
2, 25120, Control_c, 0, 64, 127
2, 25121, Note_on_c, 0, 55, 0
2, 25131, Note_on_c, 0, 77, 53
2, 25142, Note_on_c, 0, 82, 0
2, 25164, Note_on_c, 0, 77, 0
2, 25170, Note_on_c, 0, 72, 51
2, 25191, Note_on_c, 0, 72, 0
2, 25204, Control_c, 0, 64, 0
2, 25211, Note_on_c, 0, 79, 74
2, 25249, Note_on_c, 0, 79, 0
2, 25251, Note_on_c, 0, 75, 46
2, 25260, Note_on_c, 0, 75, 0
2, 25285, Note_on_c, 0, 79, 69
2, 25287, Note_on_c, 0, 63, 48
2, 25289, Note_on_c, 0, 60, 49
2, 25289, Note_on_c, 0, 58, 34
2, 25297, Note_on_c, 0, 53, 34
2, 25329, Note_on_c, 0, 75, 59
2, 25330, Note_on_c, 0, 79, 0
2, 25334, Control_c, 0, 64, 127
2, 25438, Note_on_c, 0, 53, 0
2, 25442, Note_on_c, 0, 72, 27
2, 25443, Note_on_c, 0, 60, 0
2, 25452, Note_on_c, 0, 63, 0
2, 25454, Note_on_c, 0, 72, 0
2, 25463, Note_on_c, 0, 75, 0
2, 25496, Note_on_c, 0, 58, 0
2, 25545, Control_c, 0, 64, 0
2, 25553, Note_on_c, 0, 94, 83
2, 25554, Note_on_c, 0, 59, 58
2, 25554, Note_on_c, 0, 64, 62
2, 25555, Note_on_c, 0, 82, 77
2, 25557, Note_on_c, 0, 53, 50
2, 25601, Control_c, 0, 64, 127
2, 25606, Note_on_c, 0, 53, 0
2, 25607, Note_on_c, 0, 94, 0
2, 25608, Note_on_c, 0, 82, 0
2, 25609, Note_on_c, 0, 64, 0
2, 25618, Note_on_c, 0, 59, 0
2, 25632, Control_c, 0, 64, 0
2, 25633, Note_on_c, 0, 59, 54
2, 25634, Note_on_c, 0, 92, 69
2, 25634, Note_on_c, 0, 80, 67
2, 25635, Note_on_c, 0, 64, 56
2, 25637, Note_on_c, 0, 53, 51
2, 25662, Note_on_c, 0, 64, 0
2, 25663, Note_on_c, 0, 53, 0
2, 25665, Note_on_c, 0, 92, 0
2, 25671, Note_on_c, 0, 80, 0
2, 25673, Note_on_c, 0, 64, 22
2, 25675, Note_on_c, 0, 53, 22
2, 25690, Note_on_c, 0, 91, 41
2, 25691, Note_on_c, 0, 79, 44
2, 25702, Note_on_c, 0, 91, 0
2, 25706, Note_on_c, 0, 53, 0
2, 25708, Note_on_c, 0, 64, 0
2, 25709, Note_on_c, 0, 79, 0
2, 25710, Note_on_c, 0, 59, 0
2, 25717, Control_c, 0, 64, 127
2, 25761, Note_on_c, 0, 77, 68
2, 25761, Note_on_c, 0, 89, 66
2, 25761, Note_on_c, 0, 59, 48
2, 25765, Note_on_c, 0, 64, 27
2, 25769, Note_on_c, 0, 89, 0
2, 25773, Note_on_c, 0, 64, 0
2, 25774, Note_on_c, 0, 59, 0
2, 25776, Note_on_c, 0, 77, 0
2, 25785, Control_c, 0, 64, 0
2, 25805, Note_on_c, 0, 59, 46
2, 25807, Note_on_c, 0, 53, 36
2, 25809, Note_on_c, 0, 75, 39
2, 25810, Note_on_c, 0, 87, 35
2, 25817, Note_on_c, 0, 75, 0
2, 25818, Note_on_c, 0, 87, 0
2, 25820, Note_on_c, 0, 53, 0
2, 25821, Note_on_c, 0, 59, 0
2, 25859, Control_c, 0, 64, 127
2, 25883, Note_on_c, 0, 86, 48
2, 25883, Note_on_c, 0, 74, 62
2, 25883, Note_on_c, 0, 59, 22
2, 25892, Note_on_c, 0, 86, 0
2, 25895, Note_on_c, 0, 74, 0
2, 25911, Control_c, 0, 64, 0
2, 25923, Note_on_c, 0, 62, 38
2, 25926, Note_on_c, 0, 55, 48
2, 25928, Note_on_c, 0, 52, 44
2, 26156, Note_on_c, 0, 52, 0
2, 26157, Note_on_c, 0, 55, 0
2, 26159, Note_on_c, 0, 59, 0
2, 26160, Note_on_c, 0, 62, 0
2, 26173, Note_on_c, 0, 67, 47
2, 26174, Note_on_c, 0, 62, 48
2, 26176, Note_on_c, 0, 64, 53
2, 26291, Note_on_c, 0, 88, 115
2, 26307, Note_on_c, 0, 67, 0
2, 26309, Note_on_c, 0, 64, 0
2, 26312, Note_on_c, 0, 62, 0
2, 26312, Control_c, 0, 64, 127
2, 26351, Note_on_c, 0, 88, 0
2, 26366, Note_on_c, 0, 91, 89
2, 26428, Note_on_c, 0, 91, 0
2, 26488, Note_on_c, 0, 89, 92
2, 26488, Note_on_c, 0, 91, 95
2, 26491, Note_on_c, 0, 55, 63
2, 26492, Control_c, 0, 64, 0
2, 26493, Note_on_c, 0, 65, 58
2, 26494, Note_on_c, 0, 60, 48
2, 26496, Note_on_c, 0, 57, 50
2, 26527, Note_on_c, 0, 60, 0
2, 26542, Note_on_c, 0, 91, 0
2, 26545, Note_on_c, 0, 57, 0
2, 26547, Control_c, 0, 64, 127
2, 26552, Note_on_c, 0, 65, 0
2, 26558, Note_on_c, 0, 55, 0
2, 26623, Note_on_c, 0, 89, 0
2, 26645, Note_on_c, 0, 67, 51
2, 26645, Note_on_c, 0, 88, 91
2, 26647, Control_c, 0, 64, 0
2, 26648, Note_on_c, 0, 62, 49
2, 26649, Note_on_c, 0, 64, 59
2, 26693, Note_on_c, 0, 67, 0
2, 26727, Note_on_c, 0, 83, 71
2, 26747, Note_on_c, 0, 55, 44
2, 26757, Note_on_c, 0, 88, 0
2, 26773, Note_on_c, 0, 83, 0
2, 26807, Control_c, 0, 64, 127
2, 26829, Control_c, 0, 64, 0
2, 26846, Note_on_c, 0, 86, 105
2, 26854, Note_on_c, 0, 84, 50
2, 26858, Note_on_c, 0, 62, 0
2, 26860, Note_on_c, 0, 64, 0
2, 26865, Note_on_c, 0, 84, 0
2, 26875, Control_c, 0, 64, 127
2, 26948, Note_on_c, 0, 86, 0
2, 26967, Note_on_c, 0, 60, 69
2, 26969, Note_on_c, 0, 65, 71
2, 26970, Control_c, 0, 64, 0
2, 26971, Note_on_c, 0, 84, 108
2, 26974, Note_on_c, 0, 57, 49
2, 27009, Note_on_c, 0, 84, 0
2, 27034, Control_c, 0, 64, 127
2, 27080, Control_c, 0, 64, 0
2, 27088, Note_on_c, 0, 81, 96
2, 27122, Control_c, 0, 64, 127
2, 27126, Note_on_c, 0, 57, 0
2, 27128, Note_on_c, 0, 65, 0
2, 27134, Note_on_c, 0, 81, 0
2, 27135, Note_on_c, 0, 55, 0
2, 27173, Note_on_c, 0, 60, 0
2, 27202, Note_on_c, 0, 60, 72
2, 27202, Note_on_c, 0, 80, 74
2, 27205, Note_on_c, 0, 53, 74
2, 27205, Note_on_c, 0, 56, 62
2, 27205, Note_on_c, 0, 64, 76
2, 27224, Control_c, 0, 64, 0
2, 27235, Note_on_c, 0, 80, 0
2, 27266, Note_on_c, 0, 79, 40
2, 27302, Note_on_c, 0, 53, 0
2, 27317, Note_on_c, 0, 64, 0
2, 27319, Note_on_c, 0, 79, 0
2, 27321, Note_on_c, 0, 60, 0
2, 27331, Note_on_c, 0, 78, 64
2, 27343, Note_on_c, 0, 56, 0
2, 27364, Note_on_c, 0, 78, 0
2, 27368, Note_on_c, 0, 62, 62
2, 27371, Note_on_c, 0, 59, 58
2, 27374, Note_on_c, 0, 55, 54
2, 27377, Note_on_c, 0, 52, 55
2, 27382, Note_on_c, 0, 81, 68
2, 27424, Note_on_c, 0, 81, 0
2, 27484, Note_on_c, 0, 74, 69
2, 27543, Note_on_c, 0, 74, 0
2, 27589, Note_on_c, 0, 55, 0
2, 27592, Note_on_c, 0, 52, 0
2, 27595, Note_on_c, 0, 59, 0
2, 27603, Note_on_c, 0, 74, 54
2, 27615, Note_on_c, 0, 62, 0
2, 27667, Note_on_c, 0, 74, 0
2, 27718, Note_on_c, 0, 64, 51
2, 27723, Note_on_c, 0, 55, 38
2, 27724, Note_on_c, 0, 60, 49
2, 27725, Note_on_c, 0, 59, 44
2, 27736, Note_on_c, 0, 60, 0
2, 27738, Note_on_c, 0, 59, 0
2, 27741, Note_on_c, 0, 55, 0
2, 27748, Note_on_c, 0, 64, 0
2, 27843, Note_on_c, 0, 69, 62
2, 27850, Note_on_c, 0, 70, 71
2, 27873, Note_on_c, 0, 69, 0
2, 27877, Note_on_c, 0, 70, 0
2, 27879, Note_on_c, 0, 71, 71
2, 27903, Note_on_c, 0, 71, 0
2, 27925, Note_on_c, 0, 74, 83
2, 27927, Note_on_c, 0, 62, 85
2, 27953, Note_on_c, 0, 62, 0
2, 27958, Note_on_c, 0, 74, 0
2, 27974, Note_on_c, 0, 74, 58
2, 27978, Note_on_c, 0, 62, 66
2, 28013, Note_on_c, 0, 74, 0
2, 28019, Note_on_c, 0, 62, 0
2, 28048, Note_on_c, 0, 74, 65
2, 28050, Note_on_c, 0, 62, 65
2, 28078, Note_on_c, 0, 62, 0
2, 28087, Note_on_c, 0, 74, 0
2, 28113, Note_on_c, 0, 72, 65
2, 28158, Note_on_c, 0, 72, 0
2, 28207, Note_on_c, 0, 68, 68
2, 28280, Note_on_c, 0, 68, 0
2, 28290, Note_on_c, 0, 64, 57
2, 28406, Note_on_c, 0, 64, 0
2, 28433, Note_on_c, 0, 54, 35
2, 28438, Note_on_c, 0, 60, 29
2, 28440, Note_on_c, 0, 64, 34
2, 28568, Note_on_c, 0, 64, 0
2, 28592, Note_on_c, 0, 60, 0
2, 28593, Note_on_c, 0, 54, 0
2, 28637, Note_on_c, 0, 54, 46
2, 28639, Note_on_c, 0, 60, 41
2, 28644, Note_on_c, 0, 64, 36
2, 28695, Note_on_c, 0, 64, 0
2, 28727, Note_on_c, 0, 60, 0
2, 28750, Note_on_c, 0, 54, 0
2, 28756, Note_on_c, 0, 67, 82
2, 28757, Note_on_c, 0, 79, 85
2, 28760, Note_on_c, 0, 60, 43
2, 28774, Note_on_c, 0, 60, 0
2, 28776, Note_on_c, 0, 57, 22
2, 28778, Note_on_c, 0, 67, 0
2, 28791, Note_on_c, 0, 79, 0
2, 28800, Note_on_c, 0, 76, 71
2, 28801, Note_on_c, 0, 57, 0
2, 28819, Note_on_c, 0, 76, 0
2, 28837, Note_on_c, 0, 79, 87
2, 28840, Note_on_c, 0, 67, 84
2, 28909, Note_on_c, 0, 60, 27
2, 28913, Note_on_c, 0, 67, 0
2, 28917, Note_on_c, 0, 79, 0
2, 28936, Note_on_c, 0, 60, 0
2, 28938, Note_on_c, 0, 76, 62
2, 28967, Note_on_c, 0, 76, 0
2, 29016, Note_on_c, 0, 67, 43
2, 29019, Note_on_c, 0, 76, 76
2, 29022, Note_on_c, 0, 60, 42
2, 29025, Note_on_c, 0, 64, 31
2, 29030, Note_on_c, 0, 57, 32
2, 29043, Note_on_c, 0, 64, 0
2, 29054, Note_on_c, 0, 60, 0
2, 29078, Note_on_c, 0, 57, 0
2, 29119, Note_on_c, 0, 67, 0
2, 29148, Note_on_c, 0, 76, 0
2, 29160, Note_on_c, 0, 64, 40
2, 29162, Note_on_c, 0, 59, 44
2, 29166, Note_on_c, 0, 53, 30
2, 29280, Control_c, 0, 64, 127
2, 29281, Note_on_c, 0, 64, 0
2, 29286, Note_on_c, 0, 59, 0
2, 29292, Note_on_c, 0, 53, 0
2, 29360, Note_on_c, 0, 62, 55
2, 29363, Note_on_c, 0, 53, 42
2, 29368, Note_on_c, 0, 60, 51
2, 29371, Note_on_c, 0, 57, 38
2, 29379, Note_on_c, 0, 60, 0
2, 29386, Note_on_c, 0, 62, 0
2, 29392, Note_on_c, 0, 57, 0
2, 29402, Note_on_c, 0, 53, 0
2, 29483, Control_c, 0, 64, 0
2, 29485, Note_on_c, 0, 91, 96
2, 29487, Note_on_c, 0, 84, 105
2, 29513, Note_on_c, 0, 60, 41
2, 29518, Note_on_c, 0, 57, 40
2, 29519, Note_on_c, 0, 64, 41
2, 29528, Note_on_c, 0, 91, 0
2, 29530, Note_on_c, 0, 53, 24
2, 29544, Note_on_c, 0, 88, 72
2, 29548, Note_on_c, 0, 79, 45
2, 29551, Note_on_c, 0, 81, 51
2, 29565, Note_on_c, 0, 84, 0
2, 29581, Note_on_c, 0, 81, 0
2, 29596, Note_on_c, 0, 88, 0
2, 29605, Note_on_c, 0, 79, 0
2, 29628, Note_on_c, 0, 64, 0
2, 29646, Note_on_c, 0, 57, 0
2, 29653, Note_on_c, 0, 60, 0
2, 29670, Note_on_c, 0, 53, 0
2, 29724, Note_on_c, 0, 64, 57
2, 29726, Note_on_c, 0, 57, 51
2, 29727, Note_on_c, 0, 60, 46
2, 29737, Note_on_c, 0, 64, 0
2, 29739, Note_on_c, 0, 60, 0
2, 29761, Note_on_c, 0, 57, 0
2, 29844, Note_on_c, 0, 84, 101
2, 29849, Note_on_c, 0, 64, 64
2, 29851, Note_on_c, 0, 59, 58
2, 29858, Note_on_c, 0, 53, 43
2, 29866, Note_on_c, 0, 64, 0
2, 29877, Note_on_c, 0, 84, 0
2, 29903, Note_on_c, 0, 83, 60
2, 29938, Note_on_c, 0, 59, 0
2, 29939, Note_on_c, 0, 83, 0
2, 29944, Note_on_c, 0, 53, 0
2, 29961, Note_on_c, 0, 59, 36
2, 29963, Note_on_c, 0, 82, 74
2, 29969, Note_on_c, 0, 53, 10
2, 29993, Note_on_c, 0, 82, 0
2, 29999, Note_on_c, 0, 53, 0
2, 30025, Note_on_c, 0, 80, 52
2, 30061, Note_on_c, 0, 59, 0
2, 30075, Note_on_c, 0, 80, 0
2, 30083, Note_on_c, 0, 59, 19
2, 30085, Note_on_c, 0, 79, 73
2, 30088, Note_on_c, 0, 64, 49
2, 30095, Note_on_c, 0, 53, 32
2, 30105, Note_on_c, 0, 64, 0
2, 30114, Note_on_c, 0, 79, 0
2, 30130, Note_on_c, 0, 53, 0
2, 30144, Note_on_c, 0, 78, 34
2, 30162, Note_on_c, 0, 59, 0
2, 30187, Note_on_c, 0, 78, 0
2, 30202, Note_on_c, 0, 59, 41
2, 30209, Note_on_c, 0, 77, 43
2, 30212, Note_on_c, 0, 62, 29
2, 30216, Note_on_c, 0, 55, 46
2, 30221, Note_on_c, 0, 52, 31
2, 30224, Note_on_c, 0, 62, 0
2, 30225, Note_on_c, 0, 77, 0
2, 30231, Note_on_c, 0, 55, 0
2, 30243, Note_on_c, 0, 59, 0
2, 30259, Note_on_c, 0, 77, 68
2, 30297, Note_on_c, 0, 77, 0
2, 30322, Note_on_c, 0, 59, 26
2, 30322, Note_on_c, 0, 75, 78
2, 30334, Note_on_c, 0, 55, 24
2, 30346, Note_on_c, 0, 59, 0
2, 30347, Note_on_c, 0, 75, 0
2, 30348, Note_on_c, 0, 55, 0
2, 30366, Note_on_c, 0, 76, 76
2, 30401, Note_on_c, 0, 76, 0
2, 30433, Note_on_c, 0, 72, 79
2, 30440, Note_on_c, 0, 59, 35
2, 30440, Note_on_c, 0, 62, 38
2, 30450, Note_on_c, 0, 52, 0
2, 30459, Note_on_c, 0, 62, 0
2, 30459, Note_on_c, 0, 59, 0
2, 30463, Note_on_c, 0, 72, 0
2, 30487, Note_on_c, 0, 67, 30
2, 30529, Note_on_c, 0, 67, 0
2, 30591, Note_on_c, 0, 60, 31
2, 30594, Note_on_c, 0, 70, 67
2, 30596, Note_on_c, 0, 55, 34
2, 30605, Note_on_c, 0, 60, 0
2, 30608, Control_c, 0, 64, 127
2, 30632, Note_on_c, 0, 70, 0
2, 30643, Note_on_c, 0, 60, 49
2, 30654, Note_on_c, 0, 60, 0
2, 30679, Note_on_c, 0, 65, 67
2, 30711, Note_on_c, 0, 70, 72
2, 30712, Note_on_c, 0, 65, 0
2, 30712, Control_c, 0, 64, 0
2, 30733, Note_on_c, 0, 70, 0
2, 30736, Note_on_c, 0, 60, 32
2, 30737, Note_on_c, 0, 61, 33
2, 30760, Note_on_c, 0, 72, 63
2, 30773, Note_on_c, 0, 60, 0
2, 30779, Note_on_c, 0, 72, 0
2, 30785, Note_on_c, 0, 61, 0
2, 30789, Note_on_c, 0, 55, 0
2, 30808, Note_on_c, 0, 77, 54
2, 30836, Note_on_c, 0, 77, 0
2, 30836, Note_on_c, 0, 82, 59
2, 30869, Note_on_c, 0, 82, 0
2, 30880, Note_on_c, 0, 84, 90
2, 30882, Note_on_c, 0, 72, 81
2, 30910, Note_on_c, 0, 72, 0
2, 30910, Note_on_c, 0, 84, 0
2, 30928, Note_on_c, 0, 82, 53
2, 30939, Note_on_c, 0, 82, 0
2, 30967, Note_on_c, 0, 84, 76
2, 30968, Note_on_c, 0, 72, 73
2, 30969, Note_on_c, 0, 83, 74
2, 30975, Note_on_c, 0, 58, 47
2, 30976, Note_on_c, 0, 60, 57
2, 30976, Note_on_c, 0, 54, 46
2, 30980, Note_on_c, 0, 65, 31
2, 30995, Note_on_c, 0, 65, 0
2, 30999, Note_on_c, 0, 83, 0
2, 31007, Note_on_c, 0, 84, 0
2, 31015, Note_on_c, 0, 72, 0
2, 31030, Note_on_c, 0, 60, 0
2, 31043, Note_on_c, 0, 58, 0
2, 31046, Note_on_c, 0, 54, 0
2, 31168, Note_on_c, 0, 65, 48
2, 31170, Note_on_c, 0, 58, 40
2, 31172, Note_on_c, 0, 54, 34
2, 31173, Note_on_c, 0, 60, 52
2, 31211, Note_on_c, 0, 60, 0
2, 31211, Note_on_c, 0, 65, 0
2, 31218, Control_c, 0, 64, 127
2, 31294, Note_on_c, 0, 54, 0
2, 31295, Note_on_c, 0, 58, 0
2, 31326, Note_on_c, 0, 64, 48
2, 31327, Note_on_c, 0, 59, 57
2, 31329, Note_on_c, 0, 53, 41
2, 31337, Control_c, 0, 64, 0
2, 31386, Note_on_c, 0, 94, 74
2, 31387, Note_on_c, 0, 82, 77
2, 31404, Note_on_c, 0, 94, 0
2, 31407, Note_on_c, 0, 82, 0
2, 31409, Note_on_c, 0, 64, 0
2, 31422, Note_on_c, 0, 92, 57
2, 31425, Note_on_c, 0, 53, 0
2, 31446, Note_on_c, 0, 92, 0
2, 31447, Note_on_c, 0, 59, 0
2, 31469, Note_on_c, 0, 94, 91
2, 31471, Note_on_c, 0, 82, 95
2, 31532, Note_on_c, 0, 82, 0
2, 31532, Note_on_c, 0, 94, 0
2, 31555, Control_c, 0, 64, 127
2, 31559, Note_on_c, 0, 63, 53
2, 31563, Note_on_c, 0, 92, 69
2, 31563, Note_on_c, 0, 59, 55
2, 31567, Note_on_c, 0, 80, 56
2, 31568, Note_on_c, 0, 56, 42
2, 31572, Note_on_c, 0, 53, 41
2, 31603, Note_on_c, 0, 53, 0
2, 31609, Note_on_c, 0, 56, 0
2, 31612, Note_on_c, 0, 92, 0
2, 31619, Note_on_c, 0, 63, 0
2, 31628, Note_on_c, 0, 59, 0
2, 31630, Note_on_c, 0, 80, 0
2, 31639, Control_c, 0, 64, 0
2, 31652, Note_on_c, 0, 79, 64
2, 31653, Note_on_c, 0, 59, 27
2, 31657, Note_on_c, 0, 62, 53
2, 31657, Note_on_c, 0, 91, 55
2, 31663, Note_on_c, 0, 52, 44
2, 31665, Note_on_c, 0, 55, 51
2, 31779, Control_c, 0, 64, 127
2, 31799, Note_on_c, 0, 91, 0
2, 31804, Note_on_c, 0, 59, 0
2, 31811, Note_on_c, 0, 55, 0
2, 31814, Note_on_c, 0, 62, 0
2, 31830, Note_on_c, 0, 79, 0
2, 31882, Note_on_c, 0, 62, 58
2, 31883, Note_on_c, 0, 59, 55
2, 31885, Note_on_c, 0, 55, 39
2, 31911, Note_on_c, 0, 55, 0
2, 31912, Note_on_c, 0, 52, 0
2, 31924, Note_on_c, 0, 59, 0
2, 31971, Note_on_c, 0, 62, 0
2, 32033, Control_c, 0, 64, 0
2, 32040, Note_on_c, 0, 74, 99
2, 32043, Note_on_c, 0, 65, 54
2, 32044, Note_on_c, 0, 60, 56
2, 32044, Note_on_c, 0, 55, 49
2, 32050, Note_on_c, 0, 57, 42
2, 32110, Note_on_c, 0, 73, 56
2, 32118, Note_on_c, 0, 74, 0
2, 32144, Note_on_c, 0, 65, 0
2, 32153, Note_on_c, 0, 72, 13
2, 32155, Note_on_c, 0, 73, 0
2, 32168, Note_on_c, 0, 71, 45
2, 32171, Note_on_c, 0, 72, 0
2, 32190, Note_on_c, 0, 60, 0
2, 32222, Note_on_c, 0, 71, 0
2, 32241, Note_on_c, 0, 77, 87
2, 32244, Note_on_c, 0, 65, 58
2, 32249, Note_on_c, 0, 60, 55
2, 32255, Note_on_c, 0, 65, 0
2, 32285, Note_on_c, 0, 60, 0
2, 32290, Note_on_c, 0, 57, 0
2, 32291, Note_on_c, 0, 55, 0
2, 32309, Note_on_c, 0, 76, 50
2, 32310, Note_on_c, 0, 77, 0
2, 32335, Note_on_c, 0, 75, 33
2, 32341, Note_on_c, 0, 76, 0
2, 32371, Note_on_c, 0, 74, 44
2, 32379, Note_on_c, 0, 75, 0
2, 32401, Note_on_c, 0, 74, 0
2, 32421, Note_on_c, 0, 80, 63
2, 32451, Note_on_c, 0, 80, 0
2, 32602, Note_on_c, 0, 62, 72
2, 32606, Note_on_c, 0, 59, 60
2, 32612, Note_on_c, 0, 55, 45
2, 32613, Note_on_c, 0, 62, 0
2, 32617, Note_on_c, 0, 59, 0
2, 32624, Note_on_c, 0, 55, 0
2, 32650, Note_on_c, 0, 83, 69
2, 32693, Note_on_c, 0, 83, 0
2, 32720, Note_on_c, 0, 86, 88
2, 32758, Note_on_c, 0, 86, 0
2, 32779, Note_on_c, 0, 84, 70
2, 32811, Note_on_c, 0, 84, 0
2, 32840, Note_on_c, 0, 82, 75
2, 32843, Note_on_c, 0, 57, 56
2, 32843, Note_on_c, 0, 62, 48
2, 32844, Note_on_c, 0, 58, 43
2, 32860, Note_on_c, 0, 62, 0
2, 32870, Note_on_c, 0, 82, 0
2, 32875, Note_on_c, 0, 58, 0
2, 32886, Note_on_c, 0, 57, 0
2, 32904, Note_on_c, 0, 78, 53
2, 32943, Note_on_c, 0, 78, 0
2, 32961, Note_on_c, 0, 81, 80
2, 32971, Note_on_c, 0, 58, 43
2, 32973, Note_on_c, 0, 62, 40
2, 32974, Note_on_c, 0, 57, 44
2, 32985, Note_on_c, 0, 62, 0
2, 32987, Note_on_c, 0, 57, 0
2, 32993, Note_on_c, 0, 58, 0
2, 33003, Note_on_c, 0, 81, 0
2, 33024, Note_on_c, 0, 79, 52
2, 33040, Control_c, 0, 64, 127
2, 33067, Note_on_c, 0, 79, 0
2, 33093, Note_on_c, 0, 76, 27
2, 33098, Control_c, 0, 64, 0
2, 33103, Note_on_c, 0, 76, 0
2, 33125, Note_on_c, 0, 54, 37
2, 33127, Note_on_c, 0, 64, 55
2, 33128, Note_on_c, 0, 61, 47
2, 33135, Note_on_c, 0, 83, 90
2, 33137, Control_c, 0, 64, 127
2, 33140, Note_on_c, 0, 57, 37
2, 33179, Control_c, 0, 64, 0
2, 33233, Note_on_c, 0, 71, 50
2, 33236, Note_on_c, 0, 64, 0
2, 33236, Control_c, 0, 64, 127
2, 33249, Note_on_c, 0, 54, 0
2, 33253, Note_on_c, 0, 57, 0
2, 33256, Note_on_c, 0, 61, 0
2, 33263, Note_on_c, 0, 83, 0
2, 33278, Note_on_c, 0, 71, 0
2, 33303, Control_c, 0, 64, 0
2, 33314, Note_on_c, 0, 61, 51
2, 33319, Note_on_c, 0, 64, 58
2, 33320, Note_on_c, 0, 76, 67
2, 33322, Note_on_c, 0, 57, 40
2, 33336, Note_on_c, 0, 64, 0
2, 33353, Note_on_c, 0, 76, 0
2, 33358, Control_c, 0, 64, 127
2, 33369, Note_on_c, 0, 61, 0
2, 33388, Note_on_c, 0, 57, 0
2, 33416, Note_on_c, 0, 83, 78
2, 33419, Note_on_c, 0, 71, 71
2, 33444, Note_on_c, 0, 71, 0
2, 33449, Note_on_c, 0, 83, 0
2, 33467, Control_c, 0, 64, 0
2, 33485, Note_on_c, 0, 63, 53
2, 33488, Note_on_c, 0, 81, 69
2, 33489, Note_on_c, 0, 59, 51
2, 33493, Note_on_c, 0, 69, 62
2, 33493, Note_on_c, 0, 54, 40
2, 33502, Note_on_c, 0, 57, 33
2, 33569, Control_c, 0, 64, 127
2, 33583, Note_on_c, 0, 57, 0
2, 33596, Note_on_c, 0, 63, 0
2, 33598, Note_on_c, 0, 54, 0
2, 33604, Note_on_c, 0, 59, 0
2, 33609, Note_on_c, 0, 81, 0
2, 33625, Note_on_c, 0, 69, 0
2, 33656, Note_on_c, 0, 63, 62
2, 33661, Note_on_c, 0, 54, 46
2, 33663, Control_c, 0, 64, 0
2, 33663, Note_on_c, 0, 59, 53
2, 33705, Control_c, 0, 64, 127
2, 33721, Note_on_c, 0, 63, 0
2, 33729, Note_on_c, 0, 59, 0
2, 33761, Note_on_c, 0, 54, 0
2, 33832, Control_c, 0, 64, 0
2, 33836, Note_on_c, 0, 68, 78
2, 33841, Note_on_c, 0, 61, 39
2, 33842, Note_on_c, 0, 58, 38
2, 33851, Note_on_c, 0, 56, 26
2, 33893, Note_on_c, 0, 68, 0
2, 33914, Note_on_c, 0, 64, 35
2, 33931, Note_on_c, 0, 64, 0
2, 33947, Note_on_c, 0, 61, 0
2, 33949, Control_c, 0, 64, 127
2, 33959, Note_on_c, 0, 66, 48
2, 33988, Note_on_c, 0, 58, 0
2, 33994, Note_on_c, 0, 56, 0
2, 33999, Note_on_c, 0, 66, 0
2, 34038, Control_c, 0, 64, 0
2, 34041, Note_on_c, 0, 68, 50
2, 34041, Note_on_c, 0, 61, 46
2, 34045, Note_on_c, 0, 58, 44
2, 34049, Note_on_c, 0, 56, 31
2, 34051, Note_on_c, 0, 68, 0
2, 34065, Note_on_c, 0, 61, 0
2, 34080, Note_on_c, 0, 58, 0
2, 34080, Note_on_c, 0, 56, 0
2, 34172, Note_on_c, 0, 61, 52
2, 34175, Note_on_c, 0, 58, 39
2, 34182, Note_on_c, 0, 56, 28
2, 34208, Control_c, 0, 64, 127
2, 34275, Control_c, 0, 64, 0
2, 34309, Note_on_c, 0, 61, 0
2, 34309, Note_on_c, 0, 64, 53
2, 34317, Control_c, 0, 64, 127
2, 34344, Note_on_c, 0, 56, 0
2, 34348, Note_on_c, 0, 64, 0
2, 34349, Note_on_c, 0, 58, 0
2, 34388, Control_c, 0, 64, 0
2, 34388, Note_on_c, 0, 66, 71
2, 34396, Note_on_c, 0, 61, 51
2, 34398, Note_on_c, 0, 58, 43
2, 34415, Note_on_c, 0, 66, 0
2, 34418, Note_on_c, 0, 61, 0
2, 34425, Note_on_c, 0, 58, 0
2, 34443, Control_c, 0, 64, 127
2, 34450, Note_on_c, 0, 68, 52
2, 34483, Note_on_c, 0, 68, 0
2, 34510, Note_on_c, 0, 69, 66
2, 34526, Control_c, 0, 64, 0
2, 34535, Note_on_c, 0, 64, 30
2, 34537, Note_on_c, 0, 61, 21
2, 34543, Note_on_c, 0, 57, 31
2, 34545, Note_on_c, 0, 54, 26
2, 34549, Note_on_c, 0, 69, 0
2, 34573, Note_on_c, 0, 71, 65
2, 34586, Note_on_c, 0, 61, 0
2, 34596, Control_c, 0, 64, 127
2, 34606, Control_c, 0, 64, 0
2, 34618, Note_on_c, 0, 71, 0
2, 34659, Note_on_c, 0, 64, 0
2, 34674, Control_c, 0, 64, 127
2, 34676, Note_on_c, 0, 54, 0
2, 34703, Note_on_c, 0, 57, 0
2, 34747, Control_c, 0, 64, 0
2, 34755, Note_on_c, 0, 61, 43
2, 34761, Note_on_c, 0, 54, 32
2, 34762, Note_on_c, 0, 64, 43
2, 34764, Note_on_c, 0, 57, 31
2, 34784, Note_on_c, 0, 64, 0
2, 34800, Note_on_c, 0, 54, 0
2, 34805, Control_c, 0, 64, 127
2, 34808, Note_on_c, 0, 57, 0
2, 34823, Note_on_c, 0, 61, 0
2, 34881, Note_on_c, 0, 71, 90
2, 34894, Control_c, 0, 64, 0
2, 34909, Note_on_c, 0, 71, 0
2, 34939, Note_on_c, 0, 72, 70
2, 34943, Control_c, 0, 64, 127
2, 34968, Note_on_c, 0, 72, 0
2, 34988, Control_c, 0, 64, 0
2, 34997, Note_on_c, 0, 74, 80
2, 35018, Note_on_c, 0, 74, 0
2, 35029, Note_on_c, 0, 47, 16
2, 35039, Control_c, 0, 64, 127
2, 35058, Note_on_c, 0, 47, 0
2, 35061, Note_on_c, 0, 75, 37
2, 35065, Note_on_c, 0, 76, 61
2, 35077, Note_on_c, 0, 76, 0
2, 35086, Note_on_c, 0, 75, 0
2, 35116, Control_c, 0, 64, 0
2, 35117, Note_on_c, 0, 57, 71
2, 35120, Note_on_c, 0, 47, 62
2, 35121, Note_on_c, 0, 77, 79
2, 35123, Note_on_c, 0, 65, 77
2, 35134, Note_on_c, 0, 65, 0
2, 35141, Note_on_c, 0, 77, 0
2, 35143, Note_on_c, 0, 57, 0
2, 35156, Note_on_c, 0, 47, 0
2, 35173, Note_on_c, 0, 66, 47
2, 35181, Note_on_c, 0, 78, 59
2, 35197, Control_c, 0, 64, 127
2, 35201, Note_on_c, 0, 66, 0
2, 35205, Note_on_c, 0, 78, 0
2, 35240, Note_on_c, 0, 67, 68
2, 35242, Note_on_c, 0, 79, 55
2, 35246, Note_on_c, 0, 77, 49
2, 35249, Note_on_c, 0, 73, 34
2, 35251, Note_on_c, 0, 67, 0
2, 35253, Note_on_c, 0, 79, 0
2, 35259, Note_on_c, 0, 77, 0
2, 35259, Note_on_c, 0, 73, 0
2, 35276, Control_c, 0, 64, 0
2, 35306, Note_on_c, 0, 80, 67
2, 35308, Note_on_c, 0, 68, 58
2, 35337, Note_on_c, 0, 68, 0
2, 35343, Note_on_c, 0, 80, 0
2, 35389, Control_c, 0, 64, 127
2, 35394, Note_on_c, 0, 80, 60
2, 35398, Note_on_c, 0, 68, 63
2, 35423, Note_on_c, 0, 68, 0
2, 35431, Note_on_c, 0, 80, 0
2, 35463, Control_c, 0, 64, 0
2, 35472, Note_on_c, 0, 78, 48
2, 35477, Note_on_c, 0, 61, 29
2, 35478, Note_on_c, 0, 66, 40
2, 35480, Note_on_c, 0, 56, 30
2, 35482, Note_on_c, 0, 58, 25
2, 35487, Note_on_c, 0, 61, 0
2, 35491, Note_on_c, 0, 66, 0
2, 35495, Note_on_c, 0, 58, 0
2, 35495, Note_on_c, 0, 56, 0
2, 35500, Note_on_c, 0, 78, 0
2, 35520, Control_c, 0, 64, 127
2, 35534, Note_on_c, 0, 61, 43
2, 35537, Note_on_c, 0, 80, 69
2, 35540, Note_on_c, 0, 68, 64
2, 35543, Note_on_c, 0, 58, 34
2, 35546, Note_on_c, 0, 56, 26
2, 35583, Note_on_c, 0, 68, 0
2, 35587, Note_on_c, 0, 58, 0
2, 35590, Note_on_c, 0, 61, 0
2, 35594, Note_on_c, 0, 80, 0
2, 35596, Note_on_c, 0, 56, 0
2, 35603, Control_c, 0, 64, 0
2, 35635, Control_c, 0, 64, 127
2, 35647, Note_on_c, 0, 61, 62
2, 35648, Note_on_c, 0, 75, 78
2, 35649, Note_on_c, 0, 87, 84
2, 35652, Note_on_c, 0, 56, 43
2, 35653, Note_on_c, 0, 58, 44
2, 35671, Note_on_c, 0, 61, 0
2, 35673, Note_on_c, 0, 75, 0
2, 35673, Note_on_c, 0, 58, 0
2, 35680, Note_on_c, 0, 56, 0
2, 35683, Note_on_c, 0, 87, 0
2, 35688, Control_c, 0, 64, 0
2, 35733, Note_on_c, 0, 61, 62
2, 35734, Note_on_c, 0, 87, 79
2, 35739, Note_on_c, 0, 56, 44
2, 35739, Note_on_c, 0, 75, 69
2, 35739, Note_on_c, 0, 58, 42
2, 35745, Control_c, 0, 64, 127
2, 35761, Note_on_c, 0, 75, 0
2, 35763, Note_on_c, 0, 87, 0
2, 35764, Note_on_c, 0, 61, 0
2, 35766, Note_on_c, 0, 58, 0
2, 35771, Note_on_c, 0, 56, 0
2, 35813, Note_on_c, 0, 61, 49
2, 35819, Note_on_c, 0, 58, 37
2, 35823, Note_on_c, 0, 56, 28
2, 35844, Note_on_c, 0, 61, 0
2, 35855, Note_on_c, 0, 58, 0
2, 35855, Control_c, 0, 64, 0
2, 35859, Note_on_c, 0, 56, 0
2, 35874, Control_c, 0, 64, 127
2, 35886, Note_on_c, 0, 61, 52
2, 35890, Note_on_c, 0, 58, 37
2, 35896, Note_on_c, 0, 56, 20
2, 35899, Note_on_c, 0, 70, 51
2, 35901, Note_on_c, 0, 82, 37
2, 35911, Note_on_c, 0, 70, 0
2, 35913, Note_on_c, 0, 82, 0
2, 35915, Note_on_c, 0, 56, 0
2, 35916, Note_on_c, 0, 61, 0
2, 35919, Note_on_c, 0, 58, 0
2, 35957, Control_c, 0, 64, 0
2, 35973, Note_on_c, 0, 63, 68
2, 35975, Note_on_c, 0, 56, 30
2, 35975, Note_on_c, 0, 60, 70
2, 35978, Note_on_c, 0, 53, 62
2, 36070, Note_on_c, 0, 60, 0
2, 36104, Note_on_c, 0, 63, 0
2, 36106, Note_on_c, 0, 60, 51
2, 36116, Note_on_c, 0, 70, 42
2, 36128, Note_on_c, 0, 70, 0
2, 36131, Note_on_c, 0, 68, 60
2, 36143, Note_on_c, 0, 60, 0
2, 36171, Note_on_c, 0, 68, 0
2, 36174, Note_on_c, 0, 67, 39
2, 36202, Note_on_c, 0, 67, 0
2, 36202, Note_on_c, 0, 60, 39
2, 36214, Note_on_c, 0, 68, 60
2, 36215, Note_on_c, 0, 53, 0
2, 36217, Note_on_c, 0, 60, 0
2, 36237, Note_on_c, 0, 56, 0
2, 36239, Note_on_c, 0, 68, 0
2, 36247, Note_on_c, 0, 70, 58
2, 36264, Note_on_c, 0, 70, 0
2, 36284, Note_on_c, 0, 72, 60
2, 36320, Note_on_c, 0, 74, 74
2, 36321, Note_on_c, 0, 72, 0
2, 36351, Note_on_c, 0, 74, 0
2, 36359, Note_on_c, 0, 75, 77
2, 36382, Note_on_c, 0, 75, 0
2, 36385, Note_on_c, 0, 62, 36
2, 36385, Note_on_c, 0, 66, 48
2, 36395, Note_on_c, 0, 56, 36
2, 36402, Note_on_c, 0, 77, 55
2, 36439, Note_on_c, 0, 77, 0
2, 36460, Note_on_c, 0, 66, 0
2, 36461, Note_on_c, 0, 79, 80
2, 36488, Note_on_c, 0, 79, 0
2, 36496, Note_on_c, 0, 56, 0
2, 36509, Note_on_c, 0, 80, 57
2, 36523, Note_on_c, 0, 62, 0
2, 36573, Note_on_c, 0, 82, 67
2, 36582, Note_on_c, 0, 62, 53
2, 36583, Note_on_c, 0, 66, 62
2, 36586, Note_on_c, 0, 80, 0
2, 36586, Note_on_c, 0, 56, 52
2, 36594, Note_on_c, 0, 82, 0
2, 36623, Note_on_c, 0, 84, 64
2, 36641, Note_on_c, 0, 66, 0
2, 36653, Note_on_c, 0, 84, 0
2, 36665, Note_on_c, 0, 62, 0
2, 36672, Note_on_c, 0, 56, 0
2, 36692, Note_on_c, 0, 86, 87
2, 36695, Note_on_c, 0, 62, 60
2, 36703, Note_on_c, 0, 65, 62
2, 36704, Note_on_c, 0, 60, 52
2, 36713, Note_on_c, 0, 55, 44
2, 36718, Note_on_c, 0, 86, 0
2, 36741, Note_on_c, 0, 89, 91
2, 36780, Note_on_c, 0, 62, 0
2, 36803, Note_on_c, 0, 62, 26
2, 36804, Note_on_c, 0, 88, 61
2, 36805, Note_on_c, 0, 65, 0
2, 36823, Note_on_c, 0, 87, 60
2, 36824, Note_on_c, 0, 89, 0
2, 36835, Note_on_c, 0, 88, 0
2, 36853, Note_on_c, 0, 86, 55
2, 36855, Note_on_c, 0, 62, 0
2, 36856, Note_on_c, 0, 60, 0
2, 36856, Note_on_c, 0, 87, 0
2, 36892, Note_on_c, 0, 86, 0
2, 36920, Note_on_c, 0, 62, 48
2, 36923, Note_on_c, 0, 82, 76
2, 36929, Note_on_c, 0, 60, 35
2, 36938, Note_on_c, 0, 62, 0
2, 36941, Note_on_c, 0, 60, 0
2, 36951, Note_on_c, 0, 82, 0
2, 36959, Note_on_c, 0, 55, 0
2, 36976, Note_on_c, 0, 79, 40
2, 37000, Control_c, 0, 64, 127
2, 37022, Note_on_c, 0, 79, 0
2, 37029, Control_c, 0, 64, 0
2, 37049, Note_on_c, 0, 77, 36
2, 37053, Note_on_c, 0, 62, 28
2, 37061, Note_on_c, 0, 77, 0
2, 37086, Note_on_c, 0, 62, 0
2, 37091, Note_on_c, 0, 81, 70
2, 37099, Control_c, 0, 64, 127
2, 37127, Note_on_c, 0, 81, 0
2, 37148, Control_c, 0, 64, 0
2, 37158, Note_on_c, 0, 62, 44
2, 37159, Note_on_c, 0, 79, 68
2, 37162, Note_on_c, 0, 65, 40
2, 37162, Note_on_c, 0, 60, 42
2, 37173, Note_on_c, 0, 65, 0
2, 37197, Note_on_c, 0, 79, 0
2, 37199, Note_on_c, 0, 60, 0
2, 37201, Note_on_c, 0, 62, 0
2, 37202, Control_c, 0, 64, 127
2, 37272, Control_c, 0, 64, 0
2, 37276, Note_on_c, 0, 62, 63
2, 37282, Note_on_c, 0, 60, 53
2, 37282, Note_on_c, 0, 65, 60
2, 37287, Note_on_c, 0, 72, 37
2, 37293, Note_on_c, 0, 65, 0
2, 37296, Note_on_c, 0, 55, 28
2, 37298, Note_on_c, 0, 72, 0
2, 37313, Note_on_c, 0, 60, 0
2, 37314, Note_on_c, 0, 62, 0
2, 37331, Note_on_c, 0, 55, 0
2, 37333, Note_on_c, 0, 84, 92
2, 37334, Control_c, 0, 64, 127
2, 37383, Note_on_c, 0, 84, 0
2, 37392, Control_c, 0, 64, 0
2, 37405, Note_on_c, 0, 84, 84
2, 37405, Note_on_c, 0, 65, 66
2, 37407, Note_on_c, 0, 54, 52
2, 37408, Note_on_c, 0, 58, 45
2, 37410, Note_on_c, 0, 60, 55
2, 37445, Note_on_c, 0, 84, 0
2, 37465, Note_on_c, 0, 82, 71
2, 37498, Note_on_c, 0, 82, 0
2, 37520, Note_on_c, 0, 65, 0
2, 37525, Note_on_c, 0, 60, 0
2, 37527, Note_on_c, 0, 54, 0
2, 37541, Note_on_c, 0, 58, 0
2, 37571, Control_c, 0, 64, 127
2, 37593, Control_c, 0, 64, 0
2, 37633, Note_on_c, 0, 61, 74
2, 37634, Note_on_c, 0, 66, 78
2, 37636, Note_on_c, 0, 55, 72
2, 37687, Control_c, 0, 64, 127
2, 37709, Control_c, 0, 64, 0
2, 37748, Note_on_c, 0, 84, 108
2, 37783, Control_c, 0, 64, 127
2, 37791, Note_on_c, 0, 84, 0
2, 37796, Note_on_c, 0, 55, 0
2, 37796, Note_on_c, 0, 66, 0
2, 37807, Note_on_c, 0, 61, 0
2, 37832, Note_on_c, 0, 65, 75
2, 37832, Note_on_c, 0, 61, 57
2, 37832, Note_on_c, 0, 55, 65
2, 37838, Note_on_c, 0, 81, 82
2, 37840, Control_c, 0, 64, 0
2, 37908, Note_on_c, 0, 81, 0
2, 37912, Control_c, 0, 64, 127
2, 37926, Note_on_c, 0, 77, 66
2, 37943, Note_on_c, 0, 65, 0
2, 37946, Note_on_c, 0, 55, 0
2, 37960, Note_on_c, 0, 77, 0
2, 37964, Note_on_c, 0, 61, 0
2, 37982, Control_c, 0, 64, 0
2, 38001, Note_on_c, 0, 61, 52
2, 38003, Note_on_c, 0, 55, 66
2, 38006, Note_on_c, 0, 73, 69
2, 38007, Note_on_c, 0, 65, 57
2, 38039, Note_on_c, 0, 73, 0
2, 38046, Control_c, 0, 64, 127
2, 38078, Note_on_c, 0, 72, 66
2, 38081, Note_on_c, 0, 55, 0
2, 38108, Note_on_c, 0, 65, 0
2, 38129, Note_on_c, 0, 72, 0
2, 38139, Control_c, 0, 64, 0
2, 38153, Note_on_c, 0, 81, 91
2, 38156, Note_on_c, 0, 54, 71
2, 38157, Note_on_c, 0, 64, 79
2, 38158, Note_on_c, 0, 59, 64
2, 38206, Note_on_c, 0, 81, 0
2, 38240, Note_on_c, 0, 78, 38
2, 38245, Control_c, 0, 64, 127
2, 38250, Note_on_c, 0, 79, 43
2, 38262, Note_on_c, 0, 79, 0
2, 38280, Note_on_c, 0, 64, 0
2, 38282, Note_on_c, 0, 78, 0
2, 38292, Note_on_c, 0, 59, 0
2, 38296, Control_c, 0, 64, 0
2, 38312, Note_on_c, 0, 64, 49
2, 38313, Note_on_c, 0, 73, 62
2, 38317, Note_on_c, 0, 59, 40
2, 38334, Control_c, 0, 64, 127
2, 38356, Note_on_c, 0, 64, 0
2, 38365, Note_on_c, 0, 59, 0
2, 38367, Note_on_c, 0, 61, 0
2, 38376, Note_on_c, 0, 73, 0
2, 38385, Note_on_c, 0, 69, 68
2, 38388, Note_on_c, 0, 61, 42
2, 38390, Control_c, 0, 64, 0
2, 38394, Note_on_c, 0, 64, 42
2, 38396, Note_on_c, 0, 59, 48
2, 38415, Note_on_c, 0, 64, 0
2, 38428, Note_on_c, 0, 59, 0
2, 38429, Note_on_c, 0, 61, 0
2, 38433, Note_on_c, 0, 69, 0
2, 38455, Note_on_c, 0, 61, 31
2, 38455, Note_on_c, 0, 64, 47
2, 38457, Note_on_c, 0, 66, 55
2, 38461, Note_on_c, 0, 59, 50
2, 38463, Control_c, 0, 64, 127
2, 38489, Control_c, 0, 64, 0
2, 38491, Note_on_c, 0, 64, 0
2, 38511, Note_on_c, 0, 59, 0
2, 38511, Note_on_c, 0, 61, 0
2, 38520, Note_on_c, 0, 66, 0
2, 38530, Note_on_c, 0, 64, 68
2, 38538, Note_on_c, 0, 61, 53
2, 38543, Note_on_c, 0, 59, 58
2, 38610, Note_on_c, 0, 61, 0
2, 38611, Note_on_c, 0, 64, 0
2, 38614, Note_on_c, 0, 59, 0
2, 38620, Note_on_c, 0, 66, 74
2, 38628, Note_on_c, 0, 61, 47
2, 38632, Note_on_c, 0, 59, 24
2, 38662, Control_c, 0, 64, 127
2, 38678, Note_on_c, 0, 59, 0
2, 38682, Note_on_c, 0, 61, 0
2, 38701, Note_on_c, 0, 54, 0
2, 38730, Note_on_c, 0, 64, 85
2, 38735, Note_on_c, 0, 61, 61
2, 38736, Note_on_c, 0, 54, 55
2, 38739, Note_on_c, 0, 59, 67
2, 38745, Control_c, 0, 64, 0
2, 38750, Note_on_c, 0, 66, 0
2, 38790, Control_c, 0, 64, 127
2, 38830, Note_on_c, 0, 59, 0
2, 38837, Note_on_c, 0, 61, 0
2, 38847, Control_c, 0, 64, 0
2, 38848, Note_on_c, 0, 54, 0
2, 38852, Note_on_c, 0, 64, 0
2, 38896, Control_c, 0, 64, 127
2, 38979, Control_c, 0, 64, 0
2, 38990, Note_on_c, 0, 54, 55
2, 38993, Note_on_c, 0, 59, 62
2, 38993, Note_on_c, 0, 62, 46
2, 39117, Note_on_c, 0, 71, 80
2, 39120, Control_c, 0, 64, 127
2, 39132, Note_on_c, 0, 59, 0
2, 39133, Note_on_c, 0, 54, 0
2, 39148, Note_on_c, 0, 62, 0
2, 39186, Note_on_c, 0, 71, 0
2, 39195, Note_on_c, 0, 66, 53
2, 39215, Note_on_c, 0, 66, 0
2, 39230, Control_c, 0, 64, 0
2, 39239, Note_on_c, 0, 60, 42
2, 39241, Note_on_c, 0, 64, 45
2, 39244, Note_on_c, 0, 53, 51
2, 39297, Note_on_c, 0, 64, 0
2, 39328, Note_on_c, 0, 69, 47
2, 39342, Control_c, 0, 64, 127
2, 39352, Note_on_c, 0, 69, 0
2, 39359, Note_on_c, 0, 60, 0
2, 39374, Note_on_c, 0, 53, 0
2, 39384, Note_on_c, 0, 72, 27
2, 39427, Note_on_c, 0, 72, 0
2, 39435, Control_c, 0, 64, 0
2, 39439, Note_on_c, 0, 76, 74
2, 39458, Note_on_c, 0, 60, 54
2, 39462, Note_on_c, 0, 53, 47
2, 39463, Note_on_c, 0, 76, 0
2, 39480, Control_c, 0, 64, 127
2, 39489, Note_on_c, 0, 60, 0
2, 39489, Note_on_c, 0, 79, 66
2, 39491, Note_on_c, 0, 53, 0
2, 39500, Note_on_c, 0, 77, 30
2, 39511, Note_on_c, 0, 77, 0
2, 39528, Note_on_c, 0, 79, 0
2, 39573, Control_c, 0, 64, 0
2, 39598, Note_on_c, 0, 82, 64
2, 39600, Note_on_c, 0, 72, 62
2, 39602, Note_on_c, 0, 77, 59
2, 39603, Note_on_c, 0, 60, 46
2, 39603, Note_on_c, 0, 62, 46
2, 39603, Note_on_c, 0, 65, 54
2, 39609, Note_on_c, 0, 55, 45
2, 39653, Note_on_c, 0, 72, 0
2, 39665, Note_on_c, 0, 77, 0
2, 39670, Note_on_c, 0, 82, 0
2, 39689, Note_on_c, 0, 84, 79
2, 39695, Note_on_c, 0, 77, 36
2, 39713, Note_on_c, 0, 77, 0
2, 39720, Note_on_c, 0, 60, 0
2, 39721, Note_on_c, 0, 65, 0
2, 39722, Note_on_c, 0, 84, 0
2, 39724, Note_on_c, 0, 55, 0
2, 39727, Note_on_c, 0, 62, 0
2, 39781, Note_on_c, 0, 82, 71
2, 39788, Note_on_c, 0, 78, 38
2, 39795, Note_on_c, 0, 72, 26
2, 39803, Note_on_c, 0, 78, 0
2, 39807, Note_on_c, 0, 72, 0
2, 39817, Note_on_c, 0, 82, 0
2, 39836, Control_c, 0, 64, 127
2, 39840, Note_on_c, 0, 62, 44
2, 39843, Note_on_c, 0, 84, 73
2, 39843, Note_on_c, 0, 65, 51
2, 39844, Note_on_c, 0, 72, 74
2, 39846, Note_on_c, 0, 60, 39
2, 39848, Note_on_c, 0, 55, 48
2, 39853, Note_on_c, 0, 82, 26
2, 39853, Note_on_c, 0, 83, 32
2, 39855, Note_on_c, 0, 65, 0
2, 39857, Note_on_c, 0, 60, 0
2, 39862, Note_on_c, 0, 62, 0
2, 39864, Note_on_c, 0, 83, 0
2, 39868, Note_on_c, 0, 82, 0
2, 39870, Note_on_c, 0, 84, 0
2, 39874, Note_on_c, 0, 72, 0
2, 39878, Note_on_c, 0, 55, 0
2, 39942, Control_c, 0, 64, 0
2, 39956, Note_on_c, 0, 80, 50
2, 39963, Note_on_c, 0, 58, 53
2, 39963, Note_on_c, 0, 63, 50
2, 39964, Note_on_c, 0, 75, 55
2, 39973, Note_on_c, 0, 53, 24
2, 40005, Note_on_c, 0, 80, 0
2, 40007, Note_on_c, 0, 53, 0
2, 40017, Note_on_c, 0, 63, 0
2, 40030, Note_on_c, 0, 75, 0
2, 40031, Note_on_c, 0, 58, 0
2, 40048, Note_on_c, 0, 82, 69
2, 40050, Note_on_c, 0, 63, 51
2, 40052, Note_on_c, 0, 70, 55
2, 40053, Note_on_c, 0, 75, 46
2, 40057, Note_on_c, 0, 58, 36
2, 40066, Note_on_c, 0, 75, 0
2, 40068, Note_on_c, 0, 70, 0
2, 40069, Note_on_c, 0, 63, 0
2, 40074, Note_on_c, 0, 82, 0
2, 40092, Note_on_c, 0, 58, 0
2, 40151, Note_on_c, 0, 80, 42
2, 40154, Note_on_c, 0, 68, 43
2, 40157, Note_on_c, 0, 75, 42
2, 40159, Note_on_c, 0, 58, 46
2, 40164, Note_on_c, 0, 80, 0
2, 40166, Note_on_c, 0, 68, 0
2, 40175, Note_on_c, 0, 75, 0
2, 40185, Note_on_c, 0, 58, 0
2, 40199, Control_c, 0, 64, 127
2, 40210, Note_on_c, 0, 82, 73
2, 40211, Note_on_c, 0, 63, 56
2, 40211, Note_on_c, 0, 75, 56
2, 40213, Note_on_c, 0, 53, 44
2, 40213, Note_on_c, 0, 58, 44
2, 40215, Note_on_c, 0, 70, 52
2, 40238, Note_on_c, 0, 82, 0
2, 40247, Note_on_c, 0, 53, 0
2, 40257, Note_on_c, 0, 70, 0
2, 40258, Note_on_c, 0, 63, 0
2, 40261, Note_on_c, 0, 75, 0
2, 40292, Note_on_c, 0, 58, 0
2, 40307, Control_c, 0, 64, 0
2, 40314, Note_on_c, 0, 79, 56
2, 40318, Note_on_c, 0, 62, 35
2, 40318, Note_on_c, 0, 69, 44
2, 40320, Note_on_c, 0, 74, 40
2, 40321, Note_on_c, 0, 52, 40
2, 40321, Note_on_c, 0, 57, 49
2, 40424, Control_c, 0, 64, 127
2, 40441, Note_on_c, 0, 69, 0
2, 40468, Note_on_c, 0, 62, 0
2, 40471, Note_on_c, 0, 52, 0
2, 40472, Note_on_c, 0, 74, 0
2, 40472, Note_on_c, 0, 57, 0
2, 40479, Note_on_c, 0, 79, 0
2, 40530, Note_on_c, 0, 62, 40
2, 40531, Note_on_c, 0, 57, 49
2, 40532, Note_on_c, 0, 52, 36
2, 40546, Note_on_c, 0, 52, 0
2, 40546, Note_on_c, 0, 57, 0
2, 40547, Note_on_c, 0, 62, 0
2, 40640, Note_on_c, 0, 86, 91
2, 40675, Note_on_c, 0, 86, 0
2, 40693, Control_c, 0, 64, 0
2, 40694, Note_on_c, 0, 60, 50
2, 40698, Note_on_c, 0, 65, 36
2, 40699, Note_on_c, 0, 57, 38
2, 40701, Note_on_c, 0, 55, 41
2, 40701, Note_on_c, 0, 84, 84
2, 40739, Note_on_c, 0, 84, 0
2, 40771, Note_on_c, 0, 84, 80
2, 40808, Note_on_c, 0, 84, 0
2, 40824, Note_on_c, 0, 81, 49
2, 40853, Control_c, 0, 64, 127
2, 40868, Note_on_c, 0, 81, 0
2, 40879, Note_on_c, 0, 60, 0
2, 40888, Control_c, 0, 64, 0
2, 40906, Note_on_c, 0, 57, 0
2, 40908, Note_on_c, 0, 65, 0
2, 40926, Note_on_c, 0, 83, 88
2, 40964, Note_on_c, 0, 83, 0
2, 41002, Note_on_c, 0, 83, 88
2, 41045, Note_on_c, 0, 67, 38
2, 41048, Note_on_c, 0, 64, 45
2, 41053, Note_on_c, 0, 62, 30
2, 41059, Note_on_c, 0, 83, 0
2, 41064, Note_on_c, 0, 79, 54
2, 41064, Control_c, 0, 64, 127
2, 41119, Control_c, 0, 64, 0
2, 41125, Note_on_c, 0, 67, 0
2, 41142, Note_on_c, 0, 55, 0
2, 41143, Note_on_c, 0, 79, 0
2, 41168, Control_c, 0, 64, 127
2, 41175, Note_on_c, 0, 81, 75
2, 41176, Note_on_c, 0, 55, 53
2, 41199, Note_on_c, 0, 81, 0
2, 41201, Note_on_c, 0, 55, 0
2, 41241, Control_c, 0, 64, 0
2, 41241, Note_on_c, 0, 81, 85
2, 41248, Note_on_c, 0, 55, 46
2, 41276, Note_on_c, 0, 81, 0
2, 41276, Note_on_c, 0, 62, 0
2, 41287, Note_on_c, 0, 64, 0
2, 41299, Control_c, 0, 64, 127
2, 41300, Note_on_c, 0, 55, 0
2, 41302, Note_on_c, 0, 76, 58
2, 41379, Control_c, 0, 64, 0
2, 41388, Note_on_c, 0, 76, 0
2, 41408, Note_on_c, 0, 60, 39
2, 41408, Note_on_c, 0, 56, 37
2, 41410, Note_on_c, 0, 64, 50
2, 41410, Note_on_c, 0, 79, 77
2, 41411, Note_on_c, 0, 53, 39
2, 41451, Note_on_c, 0, 79, 0
2, 41487, Note_on_c, 0, 77, 73
2, 41502, Note_on_c, 0, 64, 0
2, 41515, Note_on_c, 0, 77, 0
2, 41520, Control_c, 0, 64, 127
2, 41535, Note_on_c, 0, 60, 0
2, 41543, Note_on_c, 0, 72, 57
2, 41580, Note_on_c, 0, 56, 0
2, 41581, Note_on_c, 0, 72, 0
2, 41603, Control_c, 0, 64, 0
2, 41605, Note_on_c, 0, 60, 54
2, 41608, Note_on_c, 0, 56, 18
2, 41608, Note_on_c, 0, 68, 71
2, 41636, Note_on_c, 0, 68, 0
2, 41642, Note_on_c, 0, 60, 0
2, 41647, Note_on_c, 0, 67, 34
2, 41658, Control_c, 0, 64, 127
2, 41669, Note_on_c, 0, 53, 0
2, 41692, Note_on_c, 0, 56, 0
2, 41719, Note_on_c, 0, 67, 0
2, 41724, Note_on_c, 0, 65, 39
2, 41739, Note_on_c, 0, 65, 0
2, 41739, Control_c, 0, 64, 0
2, 41760, Note_on_c, 0, 62, 36
2, 41761, Note_on_c, 0, 59, 33
2, 41766, Note_on_c, 0, 69, 84
2, 41766, Note_on_c, 0, 52, 37
2, 41770, Note_on_c, 0, 55, 34
2, 41866, Control_c, 0, 64, 127
2, 41877, Note_on_c, 0, 62, 0
2, 41882, Note_on_c, 0, 59, 0
2, 41884, Note_on_c, 0, 55, 0
2, 41912, Note_on_c, 0, 52, 0
2, 41934, Note_on_c, 0, 69, 0
2, 41947, Control_c, 0, 64, 0
2, 41949, Note_on_c, 0, 52, 54
2, 41953, Note_on_c, 0, 59, 64
2, 41953, Note_on_c, 0, 67, 89
2, 41955, Note_on_c, 0, 62, 71
2, 41960, Note_on_c, 0, 55, 46
2, 41994, Note_on_c, 0, 55, 0
2, 41998, Control_c, 0, 64, 127
2, 41999, Note_on_c, 0, 52, 0
2, 42006, Note_on_c, 0, 59, 0
2, 42054, Note_on_c, 0, 62, 0
2, 42062, Note_on_c, 0, 67, 0
2, 42118, Note_on_c, 0, 69, 47
2, 42120, Control_c, 0, 64, 0
2, 42123, Note_on_c, 0, 64, 45
2, 42124, Note_on_c, 0, 60, 47
2, 42125, Note_on_c, 0, 55, 37
2, 42128, Note_on_c, 0, 59, 38
2, 42146, Note_on_c, 0, 70, 25
2, 42160, Note_on_c, 0, 70, 0
2, 42161, Note_on_c, 0, 69, 0
2, 42166, Note_on_c, 0, 64, 0
2, 42167, Note_on_c, 0, 60, 0
2, 42171, Note_on_c, 0, 71, 53
2, 42180, Note_on_c, 0, 59, 0
2, 42195, Note_on_c, 0, 71, 0
2, 42214, Note_on_c, 0, 74, 87
2, 42216, Note_on_c, 0, 62, 77
2, 42218, Note_on_c, 0, 64, 72
2, 42230, Note_on_c, 0, 64, 0
2, 42238, Note_on_c, 0, 62, 0
2, 42240, Note_on_c, 0, 74, 0
2, 42258, Note_on_c, 0, 74, 65
2, 42262, Note_on_c, 0, 62, 66
2, 42289, Note_on_c, 0, 74, 0
2, 42291, Note_on_c, 0, 62, 0
2, 42327, Note_on_c, 0, 74, 77
2, 42330, Note_on_c, 0, 62, 71
2, 42332, Note_on_c, 0, 59, 44
2, 42341, Note_on_c, 0, 60, 24
2, 42351, Note_on_c, 0, 62, 0
2, 42352, Note_on_c, 0, 60, 0
2, 42359, Note_on_c, 0, 74, 0
2, 42375, Note_on_c, 0, 74, 54
2, 42381, Note_on_c, 0, 62, 54
2, 42395, Note_on_c, 0, 59, 0
2, 42405, Note_on_c, 0, 62, 0
2, 42406, Note_on_c, 0, 74, 0
2, 42406, Control_c, 0, 64, 127
2, 42425, Note_on_c, 0, 55, 0
2, 42445, Note_on_c, 0, 74, 64
2, 42450, Note_on_c, 0, 62, 45
2, 42465, Note_on_c, 0, 62, 0
2, 42473, Control_c, 0, 64, 0
2, 42480, Note_on_c, 0, 74, 0
2, 42483, Note_on_c, 0, 60, 33
2, 42499, Note_on_c, 0, 54, 36
2, 42502, Note_on_c, 0, 72, 62
2, 42520, Note_on_c, 0, 60, 0
2, 42541, Note_on_c, 0, 72, 0
2, 42565, Note_on_c, 0, 60, 71
2, 42588, Control_c, 0, 64, 127
2, 42633, Control_c, 0, 64, 0
2, 42635, Note_on_c, 0, 60, 0
2, 42651, Note_on_c, 0, 65, 58
2, 42684, Note_on_c, 0, 65, 0
2, 42691, Note_on_c, 0, 70, 61
2, 42703, Note_on_c, 0, 70, 0
2, 42707, Note_on_c, 0, 54, 0
2, 42734, Note_on_c, 0, 72, 66
2, 42755, Note_on_c, 0, 72, 0
2, 42780, Note_on_c, 0, 77, 55
2, 42806, Note_on_c, 0, 77, 0
2, 42809, Note_on_c, 0, 82, 70
2, 42854, Note_on_c, 0, 84, 75
2, 42855, Note_on_c, 0, 72, 76
2, 42860, Note_on_c, 0, 83, 64
2, 42864, Note_on_c, 0, 82, 0
2, 42871, Note_on_c, 0, 83, 0
2, 42879, Note_on_c, 0, 84, 0
2, 42880, Note_on_c, 0, 72, 0
2, 42898, Note_on_c, 0, 82, 52
2, 42909, Note_on_c, 0, 82, 0
2, 42936, Note_on_c, 0, 84, 83
2, 42940, Note_on_c, 0, 72, 68
2, 42943, Note_on_c, 0, 83, 47
2, 42952, Note_on_c, 0, 60, 40
2, 42955, Note_on_c, 0, 83, 0
2, 42959, Note_on_c, 0, 64, 22
2, 42972, Note_on_c, 0, 64, 0
2, 42975, Note_on_c, 0, 82, 72
2, 42984, Note_on_c, 0, 60, 0
2, 42985, Note_on_c, 0, 72, 0
2, 42991, Note_on_c, 0, 84, 0
2, 43052, Note_on_c, 0, 82, 0
2, 43084, Note_on_c, 0, 77, 64
2, 43090, Note_on_c, 0, 72, 51
2, 43091, Note_on_c, 0, 60, 39
2, 43092, Note_on_c, 0, 54, 33
2, 43093, Note_on_c, 0, 64, 32
2, 43158, Note_on_c, 0, 54, 0
2, 43163, Note_on_c, 0, 64, 0
2, 43166, Note_on_c, 0, 60, 0
2, 43177, Note_on_c, 0, 77, 0
2, 43180, Note_on_c, 0, 72, 0
2, 43204, Note_on_c, 0, 76, 61
2, 43205, Note_on_c, 0, 72, 47
2, 43206, Note_on_c, 0, 64, 43
2, 43207, Note_on_c, 0, 60, 53
2, 43209, Note_on_c, 0, 55, 53
2, 43227, Control_c, 0, 64, 127
2, 43287, Note_on_c, 0, 72, 0
2, 43303, Note_on_c, 0, 76, 0
2, 43324, Note_on_c, 0, 64, 0
2, 43342, Note_on_c, 0, 55, 0
2, 43343, Note_on_c, 0, 60, 0
2, 43410, Note_on_c, 0, 64, 58
2, 43412, Note_on_c, 0, 60, 60
2, 43415, Note_on_c, 0, 55, 57
2, 43425, Control_c, 0, 64, 0
2, 43449, Control_c, 0, 64, 127
2, 43469, Note_on_c, 0, 64, 0
2, 43473, Note_on_c, 0, 55, 0
2, 43475, Note_on_c, 0, 60, 0
2, 43560, Control_c, 0, 64, 0
2, 43564, Note_on_c, 0, 91, 91
2, 43565, Note_on_c, 0, 64, 82
2, 43565, Note_on_c, 0, 79, 94
2, 43566, Note_on_c, 0, 55, 80
2, 43566, Note_on_c, 0, 60, 78
2, 43637, Control_c, 0, 64, 127
2, 43653, Note_on_c, 0, 79, 0
2, 43656, Note_on_c, 0, 91, 0
2, 43703, Note_on_c, 0, 64, 0
2, 43703, Note_on_c, 0, 55, 0
2, 43703, Note_on_c, 0, 60, 0
2, 43763, Note_on_c, 0, 96, 94
2, 43763, Note_on_c, 0, 60, 84
2, 43763, Note_on_c, 0, 64, 85
2, 43764, Note_on_c, 0, 55, 83
2, 43765, Note_on_c, 0, 84, 92
2, 43766, Control_c, 0, 64, 0
2, 43769, Note_on_c, 0, 86, 72
2, 43780, Note_on_c, 0, 86, 0
2, 43804, Control_c, 0, 64, 127
2, 43816, Note_on_c, 0, 60, 0
2, 43816, Note_on_c, 0, 64, 0
2, 43821, Note_on_c, 0, 55, 0
2, 43835, Note_on_c, 0, 96, 0
2, 43843, Note_on_c, 0, 84, 0
2, 43926, Note_on_c, 0, 81, 82
2, 43928, Note_on_c, 0, 93, 85
2, 43929, Note_on_c, 0, 88, 76
2, 43929, Note_on_c, 0, 65, 66
2, 43929, Note_on_c, 0, 60, 61
2, 43929, Note_on_c, 0, 55, 51
2, 43933, Note_on_c, 0, 90, 44
2, 43933, Note_on_c, 0, 57, 62
2, 43934, Control_c, 0, 64, 0
2, 43942, Note_on_c, 0, 90, 0
2, 44004, Control_c, 0, 64, 127
2, 44016, Note_on_c, 0, 88, 0
2, 44017, Note_on_c, 0, 93, 0
2, 44038, Note_on_c, 0, 81, 0
2, 44061, Note_on_c, 0, 55, 0
2, 44063, Note_on_c, 0, 57, 0
2, 44066, Note_on_c, 0, 65, 0
2, 44074, Note_on_c, 0, 60, 0
2, 44122, Note_on_c, 0, 89, 75
2, 44125, Note_on_c, 0, 77, 58
2, 44127, Note_on_c, 0, 84, 70
2, 44127, Note_on_c, 0, 65, 58
2, 44128, Note_on_c, 0, 60, 64
2, 44129, Note_on_c, 0, 55, 54
2, 44130, Note_on_c, 0, 57, 48
2, 44136, Control_c, 0, 64, 0
2, 44181, Control_c, 0, 64, 127
2, 44193, Note_on_c, 0, 89, 0
2, 44208, Note_on_c, 0, 84, 0
2, 44214, Note_on_c, 0, 77, 0
2, 44219, Note_on_c, 0, 60, 0
2, 44220, Note_on_c, 0, 65, 0
2, 44232, Note_on_c, 0, 57, 0
2, 44232, Note_on_c, 0, 55, 0
2, 44286, Control_c, 0, 64, 0
2, 44290, Note_on_c, 0, 88, 64
2, 44291, Note_on_c, 0, 64, 55
2, 44291, Note_on_c, 0, 76, 57
2, 44291, Note_on_c, 0, 59, 50
2, 44293, Note_on_c, 0, 83, 65
2, 44298, Note_on_c, 0, 53, 37
2, 44357, Control_c, 0, 64, 127
2, 44363, Note_on_c, 0, 83, 0
2, 44363, Note_on_c, 0, 88, 0
2, 44382, Note_on_c, 0, 76, 0
2, 44408, Note_on_c, 0, 53, 0
2, 44413, Note_on_c, 0, 59, 0
2, 44413, Note_on_c, 0, 64, 0
2, 44472, Note_on_c, 0, 86, 61
2, 44475, Note_on_c, 0, 53, 51
2, 44476, Control_c, 0, 64, 0
2, 44476, Note_on_c, 0, 74, 44
2, 44478, Note_on_c, 0, 81, 54
2, 44480, Note_on_c, 0, 64, 45
2, 44483, Note_on_c, 0, 59, 47
2, 44517, Control_c, 0, 64, 127
2, 44523, Note_on_c, 0, 59, 0
2, 44526, Note_on_c, 0, 64, 0
2, 44534, Note_on_c, 0, 86, 0
2, 44538, Note_on_c, 0, 81, 0
2, 44545, Note_on_c, 0, 53, 0
2, 44549, Note_on_c, 0, 74, 0
2, 44630, Control_c, 0, 64, 0
2, 44643, Note_on_c, 0, 84, 59
2, 44643, Note_on_c, 0, 74, 42
2, 44645, Note_on_c, 0, 62, 44
2, 44645, Note_on_c, 0, 79, 57
2, 44647, Note_on_c, 0, 57, 46
2, 44651, Note_on_c, 0, 52, 43
2, 44701, Control_c, 0, 64, 127
2, 44703, Note_on_c, 0, 84, 0
2, 44719, Note_on_c, 0, 79, 0
2, 44730, Note_on_c, 0, 74, 0
2, 44829, Note_on_c, 0, 67, 49
2, 44840, Note_on_c, 0, 67, 0
2, 44863, Note_on_c, 0, 52, 0
2, 44865, Note_on_c, 0, 57, 0
2, 44881, Note_on_c, 0, 72, 56
2, 44888, Note_on_c, 0, 62, 0
2, 44914, Note_on_c, 0, 72, 0
2, 44944, Note_on_c, 0, 76, 74
2, 44964, Note_on_c, 0, 76, 0
2, 44979, Control_c, 0, 64, 0
2, 45004, Note_on_c, 0, 84, 85
2, 45004, Note_on_c, 0, 60, 45
2, 45006, Note_on_c, 0, 65, 42
2, 45007, Note_on_c, 0, 61, 33
2, 45016, Note_on_c, 0, 55, 36
2, 45034, Note_on_c, 0, 84, 0
2, 45077, Note_on_c, 0, 84, 79
2, 45105, Note_on_c, 0, 84, 0
2, 45133, Note_on_c, 0, 82, 59
2, 45156, Note_on_c, 0, 82, 0
2, 45195, Note_on_c, 0, 82, 74
2, 45224, Note_on_c, 0, 65, 0
2, 45230, Note_on_c, 0, 60, 0
2, 45237, Note_on_c, 0, 55, 0
2, 45240, Note_on_c, 0, 61, 0
2, 45247, Note_on_c, 0, 77, 54
2, 45251, Note_on_c, 0, 82, 0
2, 45274, Note_on_c, 0, 77, 0
2, 45297, Control_c, 0, 64, 127
2, 45314, Note_on_c, 0, 77, 74
2, 45336, Note_on_c, 0, 77, 0
2, 45338, Control_c, 0, 64, 0
2, 45370, Note_on_c, 0, 60, 27
2, 45371, Note_on_c, 0, 75, 47
2, 45376, Note_on_c, 0, 54, 27
2, 45379, Note_on_c, 0, 65, 10
2, 45393, Note_on_c, 0, 75, 0
2, 45434, Note_on_c, 0, 75, 67
2, 45463, Note_on_c, 0, 65, 0
2, 45469, Note_on_c, 0, 75, 0
2, 45487, Note_on_c, 0, 72, 53
2, 45489, Control_c, 0, 64, 127
2, 45506, Note_on_c, 0, 72, 0
2, 45509, Note_on_c, 0, 60, 0
2, 45529, Note_on_c, 0, 54, 0
2, 45552, Note_on_c, 0, 72, 71
2, 45569, Control_c, 0, 64, 0
2, 45570, Note_on_c, 0, 60, 48
2, 45572, Note_on_c, 0, 54, 29
2, 45577, Note_on_c, 0, 72, 0
2, 45594, Note_on_c, 0, 60, 0
2, 45623, Note_on_c, 0, 54, 0
2, 45627, Control_c, 0, 64, 127
2, 45679, Note_on_c, 0, 70, 71
2, 45695, Control_c, 0, 64, 0
2, 45701, Note_on_c, 0, 59, 41
2, 45713, Note_on_c, 0, 53, 30
2, 45716, Note_on_c, 0, 70, 0
2, 45737, Note_on_c, 0, 68, 67
2, 45763, Note_on_c, 0, 59, 0
2, 45789, Note_on_c, 0, 68, 0
2, 45805, Note_on_c, 0, 59, 32
2, 45842, Control_c, 0, 64, 127
2, 45845, Note_on_c, 0, 67, 67
2, 45846, Note_on_c, 0, 59, 0
2, 45887, Note_on_c, 0, 67, 0
2, 45913, Control_c, 0, 64, 0
2, 45915, Note_on_c, 0, 59, 38
2, 45919, Note_on_c, 0, 65, 71
2, 45952, Note_on_c, 0, 53, 0
2, 45953, Note_on_c, 0, 59, 0
2, 45967, Note_on_c, 0, 65, 0
2, 45977, Control_c, 0, 64, 127
2, 45985, Note_on_c, 0, 64, 25
2, 46007, Note_on_c, 0, 64, 0
2, 46038, Note_on_c, 0, 65, 73
2, 46067, Note_on_c, 0, 59, 31
2, 46069, Note_on_c, 0, 62, 27
2, 46070, Control_c, 0, 64, 0
2, 46072, Note_on_c, 0, 65, 0
2, 46076, Note_on_c, 0, 55, 37
2, 46079, Note_on_c, 0, 52, 29
2, 46082, Note_on_c, 0, 62, 0
2, 46092, Note_on_c, 0, 67, 82
2, 46127, Note_on_c, 0, 59, 0
2, 46155, Note_on_c, 0, 55, 0
2, 46167, Note_on_c, 0, 67, 0
2, 46194, Note_on_c, 0, 64, 68
2, 46195, Control_c, 0, 64, 127
2, 46236, Note_on_c, 0, 64, 0
2, 46236, Note_on_c, 0, 52, 0
2, 46272, Control_c, 0, 64, 0
2, 46273, Note_on_c, 0, 55, 81
2, 46332, Note_on_c, 0, 55, 0
2, 46353, Note_on_c, 0, 55, 89
2, 46410, Note_on_c, 0, 55, 0
2, 46421, Note_on_c, 0, 50, 31
2, 46441, Note_on_c, 0, 50, 0
2, 46443, Note_on_c, 0, 55, 80
2, 46512, Note_on_c, 0, 55, 0
2, 46530, Note_on_c, 0, 55, 91
2, 46566, Note_on_c, 0, 55, 0
2, 46644, Note_on_c, 0, 43, 58
2, 46654, Note_on_c, 0, 43, 0
2, 46796, Note_on_c, 0, 62, 62
2, 46798, Note_on_c, 0, 57, 59
2, 46800, Note_on_c, 0, 52, 42
2, 46808, Note_on_c, 0, 62, 0
2, 46812, Note_on_c, 0, 57, 0
2, 46813, Note_on_c, 0, 52, 0
2, 46994, Note_on_c, 0, 67, 58
2, 46997, Note_on_c, 0, 64, 60
2, 46999, Note_on_c, 0, 62, 44
2, 47005, Note_on_c, 0, 67, 0
2, 47012, Note_on_c, 0, 64, 0
2, 47014, Note_on_c, 0, 62, 0
2, 47040, Note_on_c, 0, 74, 78
2, 47066, Note_on_c, 0, 74, 0
2, 47111, Note_on_c, 0, 79, 84
2, 47144, Note_on_c, 0, 79, 0
2, 47168, Note_on_c, 0, 77, 76
2, 47226, Note_on_c, 0, 77, 0
2, 47227, Note_on_c, 0, 65, 70
2, 47233, Note_on_c, 0, 60, 48
2, 47236, Note_on_c, 0, 57, 36
2, 47237, Note_on_c, 0, 65, 0
2, 47243, Note_on_c, 0, 72, 73
2, 47244, Note_on_c, 0, 60, 0
2, 47254, Note_on_c, 0, 57, 0
2, 47391, Note_on_c, 0, 72, 0
2, 47397, Note_on_c, 0, 64, 63
2, 47398, Note_on_c, 0, 56, 46
2, 47398, Note_on_c, 0, 60, 51
2, 47409, Note_on_c, 0, 64, 0
2, 47410, Note_on_c, 0, 60, 0
2, 47441, Note_on_c, 0, 56, 0
2, 47518, Note_on_c, 0, 59, 57
2, 47519, Note_on_c, 0, 62, 64
2, 47525, Note_on_c, 0, 55, 51
2, 47533, Note_on_c, 0, 62, 0
2, 47538, Note_on_c, 0, 59, 0
2, 47539, Note_on_c, 0, 55, 0
2, 47709, Note_on_c, 0, 79, 60
2, 47712, Note_on_c, 0, 67, 61
2, 47712, Note_on_c, 0, 74, 63
2, 47718, Note_on_c, 0, 62, 55
2, 47722, Note_on_c, 0, 59, 39
2, 47723, Note_on_c, 0, 67, 0
2, 47726, Note_on_c, 0, 74, 0
2, 47729, Note_on_c, 0, 62, 0
2, 47735, Note_on_c, 0, 59, 0
2, 47740, Note_on_c, 0, 79, 0
2, 47880, Note_on_c, 0, 65, 59
2, 47884, Note_on_c, 0, 60, 43
2, 47885, Note_on_c, 0, 61, 35
2, 47893, Note_on_c, 0, 65, 0
2, 47896, Note_on_c, 0, 60, 0
2, 47902, Note_on_c, 0, 61, 0
2, 48002, Note_on_c, 0, 95, 88
2, 48004, Note_on_c, 0, 83, 80
2, 48047, Note_on_c, 0, 83, 0
2, 48067, Note_on_c, 0, 95, 0
2, 48072, Note_on_c, 0, 61, 55
2, 48074, Note_on_c, 0, 65, 58
2, 48075, Note_on_c, 0, 60, 56
2, 48085, Note_on_c, 0, 60, 0
2, 48085, Note_on_c, 0, 65, 0
2, 48095, Note_on_c, 0, 61, 0
2, 48119, Note_on_c, 0, 98, 88
2, 48120, Note_on_c, 0, 86, 84
2, 48150, Note_on_c, 0, 86, 0
2, 48169, Note_on_c, 0, 98, 0
2, 48200, Note_on_c, 0, 98, 77
2, 48204, Note_on_c, 0, 86, 77
2, 48211, Note_on_c, 0, 60, 54
2, 48212, Note_on_c, 0, 64, 56
2, 48216, Note_on_c, 0, 59, 38
2, 48224, Note_on_c, 0, 64, 0
2, 48227, Note_on_c, 0, 86, 0
2, 48240, Note_on_c, 0, 98, 0
2, 48254, Note_on_c, 0, 60, 0
2, 48261, Note_on_c, 0, 59, 0
2, 48277, Note_on_c, 0, 96, 76
2, 48280, Note_on_c, 0, 84, 66
2, 48314, Note_on_c, 0, 96, 0
2, 48317, Note_on_c, 0, 84, 0
2, 48341, Note_on_c, 0, 64, 28
2, 48344, Note_on_c, 0, 60, 34
2, 48348, Note_on_c, 0, 59, 22
2, 48352, Note_on_c, 0, 64, 0
2, 48355, Note_on_c, 0, 60, 0
2, 48362, Note_on_c, 0, 59, 0
2, 48370, Note_on_c, 0, 94, 55
2, 48379, Note_on_c, 0, 82, 25
2, 48382, Note_on_c, 0, 87, 25
2, 48392, Note_on_c, 0, 92, 35
2, 48396, Note_on_c, 0, 90, 36
2, 48399, Note_on_c, 0, 94, 0
2, 48401, Note_on_c, 0, 82, 0
2, 48407, Note_on_c, 0, 95, 47
2, 48408, Note_on_c, 0, 90, 0
2, 48408, Note_on_c, 0, 83, 43
2, 48410, Note_on_c, 0, 87, 0
2, 48412, Note_on_c, 0, 92, 0
2, 48417, Note_on_c, 0, 88, 50
2, 48420, Note_on_c, 0, 95, 0
2, 48431, Note_on_c, 0, 88, 0
2, 48433, Note_on_c, 0, 83, 0
2, 48441, Note_on_c, 0, 64, 46
2, 48445, Note_on_c, 0, 60, 51
2, 48453, Note_on_c, 0, 64, 0
2, 48454, Note_on_c, 0, 59, 26
2, 48459, Note_on_c, 0, 60, 0
2, 48468, Note_on_c, 0, 59, 0
2, 48478, Note_on_c, 0, 91, 62
2, 48481, Note_on_c, 0, 79, 65
2, 48537, Note_on_c, 0, 79, 0
2, 48538, Note_on_c, 0, 91, 0
2, 48547, Note_on_c, 0, 64, 57
2, 48548, Note_on_c, 0, 60, 61
2, 48549, Note_on_c, 0, 59, 45
2, 48551, Note_on_c, 0, 55, 50
2, 48557, Note_on_c, 0, 64, 0
2, 48561, Note_on_c, 0, 59, 0
2, 48567, Note_on_c, 0, 60, 0
2, 48570, Note_on_c, 0, 55, 0
2, 48664, Note_on_c, 0, 92, 73
2, 48665, Note_on_c, 0, 60, 73
2, 48666, Note_on_c, 0, 80, 75
2, 48667, Note_on_c, 0, 64, 73
2, 48668, Note_on_c, 0, 54, 67
2, 48671, Note_on_c, 0, 87, 64
2, 48680, Note_on_c, 0, 87, 0
2, 48686, Control_c, 0, 64, 127
2, 48691, Note_on_c, 0, 80, 0
2, 48696, Note_on_c, 0, 64, 0
2, 48701, Note_on_c, 0, 92, 0
2, 48703, Note_on_c, 0, 60, 0
2, 48720, Note_on_c, 0, 64, 36
2, 48721, Note_on_c, 0, 60, 31
2, 48723, Note_on_c, 0, 93, 71
2, 48724, Note_on_c, 0, 81, 68
2, 48725, Note_on_c, 0, 87, 58
2, 48746, Note_on_c, 0, 93, 0
2, 48747, Note_on_c, 0, 64, 0
2, 48748, Note_on_c, 0, 81, 0
2, 48750, Note_on_c, 0, 54, 0
2, 48758, Note_on_c, 0, 60, 0
2, 48760, Note_on_c, 0, 87, 0
2, 48786, Note_on_c, 0, 94, 72
2, 48787, Note_on_c, 0, 82, 70
2, 48788, Note_on_c, 0, 64, 64
2, 48790, Note_on_c, 0, 60, 71
2, 48790, Note_on_c, 0, 54, 64
2, 48808, Note_on_c, 0, 82, 0
2, 48809, Note_on_c, 0, 94, 0
2, 48810, Note_on_c, 0, 64, 0
2, 48810, Control_c, 0, 64, 0
2, 48820, Note_on_c, 0, 60, 0
2, 48833, Control_c, 0, 64, 127
2, 48837, Note_on_c, 0, 95, 75
2, 48838, Note_on_c, 0, 60, 26
2, 48839, Note_on_c, 0, 64, 48
2, 48840, Note_on_c, 0, 83, 57
2, 48854, Note_on_c, 0, 83, 0
2, 48855, Note_on_c, 0, 64, 0
2, 48866, Note_on_c, 0, 95, 0
2, 48867, Note_on_c, 0, 54, 0
2, 48872, Note_on_c, 0, 60, 0
2, 48899, Note_on_c, 0, 54, 50
2, 48907, Note_on_c, 0, 64, 50
2, 48908, Note_on_c, 0, 60, 60
2, 48913, Note_on_c, 0, 96, 74
2, 48914, Note_on_c, 0, 84, 68
2, 48919, Note_on_c, 0, 64, 0
2, 48925, Note_on_c, 0, 96, 0
2, 48925, Note_on_c, 0, 84, 0
2, 48935, Note_on_c, 0, 54, 0
2, 48939, Note_on_c, 0, 60, 0
2, 48964, Note_on_c, 0, 80, 70
2, 48964, Note_on_c, 0, 92, 69
2, 48965, Note_on_c, 0, 60, 50
2, 48968, Note_on_c, 0, 53, 51
2, 48969, Note_on_c, 0, 64, 59
2, 48971, Control_c, 0, 64, 0
2, 48972, Note_on_c, 0, 57, 51
2, 48985, Note_on_c, 0, 93, 70
2, 48993, Note_on_c, 0, 80, 0
2, 48997, Note_on_c, 0, 81, 64
2, 49000, Note_on_c, 0, 92, 0
2, 49003, Note_on_c, 0, 86, 41
2, 49005, Note_on_c, 0, 89, 32
2, 49025, Note_on_c, 0, 89, 0
2, 49025, Note_on_c, 0, 81, 0
2, 49026, Note_on_c, 0, 93, 0
2, 49034, Note_on_c, 0, 86, 0
2, 49039, Note_on_c, 0, 53, 0
2, 49044, Note_on_c, 0, 64, 0
2, 49048, Control_c, 0, 64, 127
2, 49051, Note_on_c, 0, 57, 0
2, 49052, Note_on_c, 0, 60, 0
2, 49082, Note_on_c, 0, 74, 42
2, 49083, Note_on_c, 0, 64, 39
2, 49083, Note_on_c, 0, 57, 56
2, 49084, Note_on_c, 0, 60, 55
2, 49086, Note_on_c, 0, 86, 33
2, 49087, Note_on_c, 0, 53, 36
2, 49088, Note_on_c, 0, 88, 28
2, 49092, Note_on_c, 0, 76, 25
2, 49113, Note_on_c, 0, 88, 0
2, 49114, Note_on_c, 0, 76, 0
2, 49154, Control_c, 0, 64, 0
2, 49159, Note_on_c, 0, 74, 0
2, 49167, Note_on_c, 0, 86, 0
2, 49167, Control_c, 0, 64, 127
2, 49204, Note_on_c, 0, 64, 0
2, 49208, Note_on_c, 0, 60, 0
2, 49217, Note_on_c, 0, 53, 0
2, 49219, Note_on_c, 0, 57, 0
2, 49271, Note_on_c, 0, 91, 72
2, 49272, Note_on_c, 0, 53, 44
2, 49273, Note_on_c, 0, 64, 55
2, 49276, Note_on_c, 0, 79, 64
2, 49276, Note_on_c, 0, 57, 33
2, 49278, Note_on_c, 0, 86, 60
2, 49285, Note_on_c, 0, 64, 0
2, 49288, Note_on_c, 0, 53, 0
2, 49289, Note_on_c, 0, 86, 0
2, 49294, Note_on_c, 0, 79, 0
2, 49297, Note_on_c, 0, 91, 0
2, 49299, Note_on_c, 0, 57, 0
2, 49338, Note_on_c, 0, 64, 68
2, 49338, Note_on_c, 0, 89, 64
2, 49340, Control_c, 0, 64, 0
2, 49340, Note_on_c, 0, 77, 62
2, 49343, Note_on_c, 0, 59, 67
2, 49348, Note_on_c, 0, 53, 38
2, 49430, Control_c, 0, 64, 127
2, 49432, Note_on_c, 0, 57, 8
2, 49435, Note_on_c, 0, 89, 0
2, 49448, Note_on_c, 0, 77, 0
2, 49461, Note_on_c, 0, 64, 0
2, 49463, Note_on_c, 0, 57, 0
2, 49471, Note_on_c, 0, 53, 0
2, 49476, Note_on_c, 0, 59, 0
2, 49523, Control_c, 0, 64, 0
2, 49523, Note_on_c, 0, 86, 68
2, 49526, Note_on_c, 0, 74, 69
2, 49528, Note_on_c, 0, 59, 62
2, 49528, Note_on_c, 0, 64, 64
2, 49531, Note_on_c, 0, 53, 38
2, 49534, Note_on_c, 0, 57, 48
2, 49541, Note_on_c, 0, 84, 34
2, 49571, Control_c, 0, 64, 127
2, 49599, Note_on_c, 0, 57, 0
2, 49599, Note_on_c, 0, 64, 0
2, 49600, Note_on_c, 0, 86, 0
2, 49603, Note_on_c, 0, 84, 0
2, 49606, Note_on_c, 0, 59, 0
2, 49610, Note_on_c, 0, 74, 0
2, 49616, Note_on_c, 0, 53, 0
2, 49681, Note_on_c, 0, 64, 71
2, 49684, Note_on_c, 0, 60, 57
2, 49684, Note_on_c, 0, 53, 50
2, 49685, Note_on_c, 0, 88, 74
2, 49685, Note_on_c, 0, 84, 69
2, 49686, Note_on_c, 0, 81, 72
2, 49688, Control_c, 0, 64, 0
2, 49688, Note_on_c, 0, 57, 68
2, 49690, Note_on_c, 0, 76, 62
2, 49697, Note_on_c, 0, 86, 36
2, 49773, Control_c, 0, 64, 127
2, 49775, Note_on_c, 0, 84, 0
2, 49778, Note_on_c, 0, 88, 0
2, 49778, Note_on_c, 0, 81, 0
2, 49788, Note_on_c, 0, 86, 0
2, 49789, Note_on_c, 0, 76, 0
2, 49804, Note_on_c, 0, 64, 0
2, 49807, Note_on_c, 0, 57, 0
2, 49810, Note_on_c, 0, 60, 0
2, 49815, Note_on_c, 0, 53, 0
2, 49874, Note_on_c, 0, 84, 79
2, 49877, Note_on_c, 0, 81, 66
2, 49877, Note_on_c, 0, 72, 65
2, 49878, Note_on_c, 0, 77, 71
2, 49879, Note_on_c, 0, 57, 68
2, 49881, Note_on_c, 0, 60, 70
2, 49881, Note_on_c, 0, 53, 60
2, 49882, Note_on_c, 0, 64, 73
2, 49885, Control_c, 0, 64, 0
2, 49934, Control_c, 0, 64, 127
2, 49950, Note_on_c, 0, 84, 0
2, 49951, Note_on_c, 0, 81, 0
2, 49966, Note_on_c, 0, 77, 0
2, 49966, Note_on_c, 0, 72, 0
2, 49986, Note_on_c, 0, 60, 0
2, 49993, Note_on_c, 0, 53, 0
2, 50000, Note_on_c, 0, 64, 0
2, 50005, Note_on_c, 0, 57, 0
2, 50048, Note_on_c, 0, 81, 54
2, 50050, Control_c, 0, 64, 0
2, 50050, Note_on_c, 0, 76, 54
2, 50050, Note_on_c, 0, 69, 53
2, 50055, Note_on_c, 0, 64, 51
2, 50056, Note_on_c, 0, 59, 43
2, 50062, Note_on_c, 0, 53, 36
2, 50127, Note_on_c, 0, 81, 0
2, 50127, Control_c, 0, 64, 127
2, 50133, Note_on_c, 0, 76, 0
2, 50144, Note_on_c, 0, 69, 0
2, 50147, Note_on_c, 0, 64, 0
2, 50161, Note_on_c, 0, 53, 0
2, 50188, Note_on_c, 0, 59, 0
2, 50238, Control_c, 0, 64, 0
2, 50242, Note_on_c, 0, 53, 51
2, 50243, Note_on_c, 0, 79, 51
2, 50244, Note_on_c, 0, 73, 53
2, 50246, Note_on_c, 0, 63, 49
2, 50249, Note_on_c, 0, 59, 49
2, 50250, Note_on_c, 0, 67, 27
2, 50252, Note_on_c, 0, 56, 33
2, 50286, Control_c, 0, 64, 127
2, 50309, Note_on_c, 0, 67, 0
2, 50322, Note_on_c, 0, 53, 0
2, 50324, Note_on_c, 0, 63, 0
2, 50339, Note_on_c, 0, 56, 0
2, 50350, Note_on_c, 0, 59, 0
2, 50356, Note_on_c, 0, 73, 0
2, 50364, Note_on_c, 0, 79, 0
2, 50396, Control_c, 0, 64, 0
2, 50407, Note_on_c, 0, 59, 32
2, 50407, Note_on_c, 0, 62, 36
2, 50409, Note_on_c, 0, 55, 42
2, 50412, Note_on_c, 0, 52, 37
2, 50414, Note_on_c, 0, 74, 36
2, 50414, Note_on_c, 0, 69, 34
2, 50488, Control_c, 0, 64, 127
2, 50515, Note_on_c, 0, 74, 0
2, 50527, Note_on_c, 0, 69, 0
2, 50623, Note_on_c, 0, 55, 0
2, 50627, Note_on_c, 0, 52, 0
2, 50630, Note_on_c, 0, 59, 0
2, 50648, Note_on_c, 0, 62, 0
2, 50707, Note_on_c, 0, 65, 60
2, 50721, Note_on_c, 0, 65, 0
2, 50726, Control_c, 0, 64, 0
2, 50755, Note_on_c, 0, 70, 62
2, 50765, Note_on_c, 0, 60, 31
2, 50768, Note_on_c, 0, 65, 24
2, 50770, Note_on_c, 0, 61, 25
2, 50775, Note_on_c, 0, 55, 20
2, 50821, Note_on_c, 0, 70, 0
2, 50824, Note_on_c, 0, 75, 63
2, 50836, Note_on_c, 0, 75, 0
2, 50838, Note_on_c, 0, 65, 0
2, 50868, Note_on_c, 0, 55, 0
2, 50876, Note_on_c, 0, 60, 0
2, 50879, Note_on_c, 0, 61, 0
2, 50944, Note_on_c, 0, 84, 87
2, 50954, Note_on_c, 0, 60, 44
2, 50955, Note_on_c, 0, 61, 35
2, 50956, Note_on_c, 0, 65, 47
2, 50964, Note_on_c, 0, 55, 34
2, 50969, Note_on_c, 0, 65, 0
2, 50972, Note_on_c, 0, 84, 0
2, 50991, Note_on_c, 0, 60, 0
2, 50997, Note_on_c, 0, 82, 62
2, 50999, Note_on_c, 0, 61, 0
2, 51006, Note_on_c, 0, 55, 0
2, 51028, Note_on_c, 0, 82, 0
2, 51074, Note_on_c, 0, 84, 76
2, 51079, Note_on_c, 0, 72, 59
2, 51091, Note_on_c, 0, 72, 0
2, 51099, Note_on_c, 0, 84, 0
2, 51119, Note_on_c, 0, 65, 26
2, 51124, Note_on_c, 0, 54, 25
2, 51124, Note_on_c, 0, 60, 40
2, 51130, Note_on_c, 0, 58, 29
2, 51134, Note_on_c, 0, 82, 51
2, 51166, Note_on_c, 0, 82, 0
2, 51192, Note_on_c, 0, 60, 0
2, 51198, Note_on_c, 0, 84, 68
2, 51205, Note_on_c, 0, 72, 40
2, 51215, Note_on_c, 0, 84, 0
2, 51217, Note_on_c, 0, 72, 0
2, 51221, Note_on_c, 0, 54, 0
2, 51230, Note_on_c, 0, 65, 0
2, 51242, Note_on_c, 0, 58, 0
2, 51253, Note_on_c, 0, 82, 46
2, 51278, Note_on_c, 0, 82, 0
2, 51322, Note_on_c, 0, 84, 74
2, 51322, Note_on_c, 0, 65, 48
2, 51324, Note_on_c, 0, 54, 37
2, 51326, Note_on_c, 0, 60, 48
2, 51327, Note_on_c, 0, 72, 62
2, 51332, Note_on_c, 0, 58, 29
2, 51338, Note_on_c, 0, 72, 0
2, 51340, Note_on_c, 0, 65, 0
2, 51344, Note_on_c, 0, 84, 0
2, 51362, Note_on_c, 0, 60, 0
2, 51383, Note_on_c, 0, 82, 47
2, 51401, Note_on_c, 0, 58, 0
2, 51407, Note_on_c, 0, 82, 0
2, 51413, Control_c, 0, 64, 127
2, 51416, Note_on_c, 0, 54, 0
2, 51438, Note_on_c, 0, 84, 92
2, 51446, Note_on_c, 0, 72, 74
2, 51451, Note_on_c, 0, 74, 55
2, 51458, Control_c, 0, 64, 0
2, 51460, Note_on_c, 0, 64, 46
2, 51461, Note_on_c, 0, 74, 0
2, 51463, Note_on_c, 0, 59, 44
2, 51468, Note_on_c, 0, 72, 0
2, 51468, Note_on_c, 0, 53, 38
2, 51472, Note_on_c, 0, 84, 0
2, 51473, Note_on_c, 0, 64, 0
2, 51507, Note_on_c, 0, 53, 0
2, 51507, Note_on_c, 0, 82, 80
2, 51511, Note_on_c, 0, 70, 75
2, 51530, Note_on_c, 0, 59, 0
2, 51551, Note_on_c, 0, 82, 0
2, 51556, Note_on_c, 0, 70, 0
2, 51571, Note_on_c, 0, 59, 52
2, 51583, Note_on_c, 0, 56, 27
2, 51595, Note_on_c, 0, 80, 59
2, 51597, Note_on_c, 0, 68, 61
2, 51612, Note_on_c, 0, 59, 0
2, 51614, Control_c, 0, 64, 127
2, 51624, Note_on_c, 0, 56, 0
2, 51643, Note_on_c, 0, 80, 0
2, 51644, Note_on_c, 0, 68, 0
2, 51660, Control_c, 0, 64, 0
2, 51669, Note_on_c, 0, 79, 69
2, 51672, Note_on_c, 0, 67, 64
2, 51678, Note_on_c, 0, 63, 51
2, 51682, Note_on_c, 0, 59, 36
2, 51682, Note_on_c, 0, 53, 39
2, 51689, Note_on_c, 0, 56, 28
2, 51697, Note_on_c, 0, 67, 0
2, 51706, Note_on_c, 0, 63, 0
2, 51709, Note_on_c, 0, 79, 0
2, 51728, Note_on_c, 0, 77, 58
2, 51731, Note_on_c, 0, 53, 0
2, 51753, Note_on_c, 0, 56, 0
2, 51759, Control_c, 0, 64, 127
2, 51766, Note_on_c, 0, 77, 0
2, 51770, Note_on_c, 0, 59, 0
2, 51779, Control_c, 0, 64, 0
2, 51792, Note_on_c, 0, 59, 32
2, 51794, Note_on_c, 0, 75, 77
2, 51796, Note_on_c, 0, 62, 48
2, 51802, Note_on_c, 0, 52, 44
2, 51807, Note_on_c, 0, 55, 39
2, 51811, Note_on_c, 0, 62, 0
2, 51818, Note_on_c, 0, 75, 0
2, 51856, Note_on_c, 0, 59, 0
2, 51857, Note_on_c, 0, 75, 56
2, 51873, Note_on_c, 0, 76, 78
2, 51875, Note_on_c, 0, 55, 0
2, 51886, Note_on_c, 0, 75, 0
2, 51911, Note_on_c, 0, 76, 0
2, 51926, Note_on_c, 0, 59, 15
2, 51951, Note_on_c, 0, 72, 64
2, 51952, Note_on_c, 0, 59, 0
2, 51994, Note_on_c, 0, 72, 0
2, 52020, Note_on_c, 0, 67, 54
2, 52023, Note_on_c, 0, 59, 34
2, 52057, Note_on_c, 0, 67, 0
2, 52060, Note_on_c, 0, 52, 0
2, 52068, Note_on_c, 0, 59, 0
2, 52089, Note_on_c, 0, 67, 45
2, 52123, Control_c, 0, 64, 127
2, 52135, Note_on_c, 0, 67, 0
2, 52145, Control_c, 0, 64, 0
2, 52155, Note_on_c, 0, 67, 76
2, 52186, Note_on_c, 0, 55, 29
2, 52191, Note_on_c, 0, 67, 0
2, 52191, Note_on_c, 0, 65, 24
2, 52202, Note_on_c, 0, 60, 28
2, 52207, Note_on_c, 0, 57, 15
2, 52216, Note_on_c, 0, 65, 0
2, 52224, Note_on_c, 0, 67, 53
2, 52273, Note_on_c, 0, 67, 0
2, 52280, Note_on_c, 0, 60, 0
2, 52287, Note_on_c, 0, 55, 0
2, 52290, Note_on_c, 0, 57, 0
2, 52400, Note_on_c, 0, 59, 60
2, 52401, Note_on_c, 0, 64, 50
2, 52404, Note_on_c, 0, 53, 38
2, 52487, Note_on_c, 0, 53, 0
2, 52499, Note_on_c, 0, 64, 0
2, 52530, Note_on_c, 0, 59, 0
2, 52543, Note_on_c, 0, 59, 19
2, 52553, Note_on_c, 0, 62, 38
2, 52554, Note_on_c, 0, 55, 46
2, 52554, Note_on_c, 0, 52, 49
2, 52673, Note_on_c, 0, 52, 0
2, 52676, Note_on_c, 0, 55, 0
2, 52686, Note_on_c, 0, 62, 0
2, 52687, Note_on_c, 0, 59, 0
2, 52757, Note_on_c, 0, 71, 77
2, 52781, Note_on_c, 0, 71, 0
2, 52809, Note_on_c, 0, 74, 84
2, 52850, Note_on_c, 0, 74, 0
2, 52878, Note_on_c, 0, 72, 76
2, 52888, Note_on_c, 0, 62, 28
2, 52888, Note_on_c, 0, 58, 31
2, 52895, Note_on_c, 0, 57, 30
2, 52910, Note_on_c, 0, 62, 0
2, 52910, Note_on_c, 0, 72, 0
2, 52924, Note_on_c, 0, 58, 0
2, 52935, Note_on_c, 0, 70, 56
2, 52938, Note_on_c, 0, 57, 0
2, 52969, Note_on_c, 0, 69, 32
2, 52985, Note_on_c, 0, 69, 0
2, 52985, Note_on_c, 0, 70, 0
2, 53004, Note_on_c, 0, 66, 61
2, 53026, Note_on_c, 0, 66, 0
2, 53050, Note_on_c, 0, 69, 76
2, 53084, Control_c, 0, 64, 127
2, 53104, Control_c, 0, 64, 0
2, 53117, Note_on_c, 0, 66, 49
2, 53121, Note_on_c, 0, 69, 0
2, 53123, Note_on_c, 0, 57, 28
2, 53141, Note_on_c, 0, 66, 0
2, 53149, Note_on_c, 0, 57, 0
2, 53163, Note_on_c, 0, 67, 70
2, 53181, Control_c, 0, 64, 127
2, 53214, Note_on_c, 0, 67, 0
2, 53232, Note_on_c, 0, 64, 65
2, 53245, Control_c, 0, 64, 0
2, 53255, Note_on_c, 0, 64, 0
2, 53283, Note_on_c, 0, 71, 84
2, 53286, Note_on_c, 0, 64, 63
2, 53289, Note_on_c, 0, 65, 60
2, 53293, Control_c, 0, 64, 127
2, 53318, Note_on_c, 0, 65, 0
2, 53337, Note_on_c, 0, 64, 0
2, 53341, Control_c, 0, 64, 0
2, 53352, Note_on_c, 0, 59, 62
2, 53355, Note_on_c, 0, 68, 60
2, 53358, Note_on_c, 0, 71, 0
2, 53359, Note_on_c, 0, 64, 44
2, 53396, Control_c, 0, 64, 127
2, 53459, Note_on_c, 0, 42, 57
2, 53460, Control_c, 0, 64, 0
2, 53463, Note_on_c, 0, 52, 59
2, 53474, Note_on_c, 0, 52, 0
2, 53478, Note_on_c, 0, 42, 0
2, 53498, Control_c, 0, 64, 127
2, 53563, Note_on_c, 0, 59, 0
2, 53582, Note_on_c, 0, 64, 0
2, 53596, Note_on_c, 0, 68, 0
2, 53621, Control_c, 0, 64, 0
2, 53631, Note_on_c, 0, 51, 50
2, 53631, Note_on_c, 0, 71, 88
2, 53632, Note_on_c, 0, 62, 89
2, 53635, Note_on_c, 0, 57, 56
2, 53668, Note_on_c, 0, 47, 9
2, 53679, Note_on_c, 0, 62, 0
2, 53696, Note_on_c, 0, 71, 0
2, 53713, Note_on_c, 0, 57, 0
2, 53719, Note_on_c, 0, 67, 44
2, 53723, Note_on_c, 0, 59, 41
2, 53726, Control_c, 0, 64, 127
2, 53761, Note_on_c, 0, 59, 0
2, 53797, Note_on_c, 0, 67, 0
2, 53822, Note_on_c, 0, 57, 63
2, 53832, Control_c, 0, 64, 0
2, 53839, Note_on_c, 0, 57, 0
2, 53871, Control_c, 0, 64, 127
2, 53871, Note_on_c, 0, 74, 79
2, 53876, Note_on_c, 0, 67, 62
2, 53891, Note_on_c, 0, 67, 0
2, 53901, Note_on_c, 0, 74, 0
2, 53938, Note_on_c, 0, 51, 0
2, 53957, Note_on_c, 0, 73, 80
2, 53957, Note_on_c, 0, 63, 72
2, 53959, Note_on_c, 0, 68, 77
2, 53961, Control_c, 0, 64, 0
2, 53962, Note_on_c, 0, 56, 64
2, 54009, Control_c, 0, 64, 127
2, 54076, Note_on_c, 0, 47, 0
2, 54171, Note_on_c, 0, 68, 0
2, 54171, Note_on_c, 0, 56, 0
2, 54172, Note_on_c, 0, 63, 0
2, 54191, Note_on_c, 0, 73, 0
2, 54197, Note_on_c, 0, 68, 67
2, 54199, Note_on_c, 0, 63, 63
2, 54201, Note_on_c, 0, 56, 71
2, 54202, Control_c, 0, 64, 0
2, 54259, Control_c, 0, 64, 127
2, 54309, Note_on_c, 0, 56, 0
2, 54312, Control_c, 0, 64, 0
2, 54355, Note_on_c, 0, 56, 83
2, 54369, Control_c, 0, 64, 127
2, 54401, Control_c, 0, 64, 0
2, 54455, Control_c, 0, 64, 127
2, 54468, Note_on_c, 0, 63, 0
2, 54488, Note_on_c, 0, 56, 0
2, 54501, Note_on_c, 0, 68, 0
2, 54548, Note_on_c, 0, 56, 76
2, 54555, Control_c, 0, 64, 0
2, 54565, Note_on_c, 0, 56, 0
2, 54581, Control_c, 0, 64, 127
2, 54676, Note_on_c, 0, 83, 71
2, 54677, Note_on_c, 0, 71, 76
2, 54677, Note_on_c, 0, 61, 55
2, 54678, Note_on_c, 0, 80, 48
2, 54679, Note_on_c, 0, 64, 66
2, 54680, Note_on_c, 0, 57, 51
2, 54681, Control_c, 0, 64, 0
2, 54682, Note_on_c, 0, 76, 57
2, 54689, Note_on_c, 0, 64, 0
2, 54691, Note_on_c, 0, 71, 0
2, 54691, Note_on_c, 0, 54, 20
2, 54692, Note_on_c, 0, 76, 0
2, 54698, Note_on_c, 0, 83, 0
2, 54699, Note_on_c, 0, 61, 0
2, 54699, Note_on_c, 0, 80, 0
2, 54703, Note_on_c, 0, 54, 0
2, 54706, Note_on_c, 0, 57, 0
2, 54747, Note_on_c, 0, 54, 49
2, 54747, Note_on_c, 0, 57, 45
2, 54749, Note_on_c, 0, 64, 61
2, 54750, Note_on_c, 0, 61, 40
2, 54750, Note_on_c, 0, 83, 76
2, 54751, Note_on_c, 0, 71, 72
2, 54751, Note_on_c, 0, 76, 57
2, 54752, Note_on_c, 0, 80, 50
2, 54799, Note_on_c, 0, 71, 0
2, 54801, Note_on_c, 0, 80, 0
2, 54804, Note_on_c, 0, 76, 0
2, 54817, Note_on_c, 0, 83, 0
2, 54825, Note_on_c, 0, 57, 0
2, 54828, Control_c, 0, 64, 127
2, 54832, Note_on_c, 0, 54, 0
2, 54837, Note_on_c, 0, 64, 0
2, 54838, Note_on_c, 0, 80, 48
2, 54851, Note_on_c, 0, 80, 0
2, 54860, Note_on_c, 0, 61, 0
2, 54860, Control_c, 0, 64, 0
2, 54913, Note_on_c, 0, 83, 74
2, 54915, Note_on_c, 0, 64, 64
2, 54916, Note_on_c, 0, 71, 64
2, 54916, Note_on_c, 0, 57, 48
2, 54919, Note_on_c, 0, 54, 36
2, 54920, Note_on_c, 0, 61, 34
2, 54920, Note_on_c, 0, 76, 54
2, 54926, Note_on_c, 0, 64, 0
2, 54930, Note_on_c, 0, 76, 0
2, 54931, Note_on_c, 0, 71, 0
2, 54932, Note_on_c, 0, 61, 0
2, 54933, Note_on_c, 0, 57, 0
2, 54937, Note_on_c, 0, 54, 0
2, 54939, Note_on_c, 0, 83, 0
2, 54969, Control_c, 0, 64, 127
2, 54981, Note_on_c, 0, 64, 60
2, 54982, Note_on_c, 0, 61, 42
2, 54984, Note_on_c, 0, 83, 74
2, 54985, Note_on_c, 0, 54, 49
2, 54986, Note_on_c, 0, 57, 44
2, 54988, Note_on_c, 0, 80, 57
2, 54988, Note_on_c, 0, 76, 60
2, 54988, Note_on_c, 0, 71, 68
2, 55014, Note_on_c, 0, 64, 0
2, 55018, Note_on_c, 0, 61, 0
2, 55027, Note_on_c, 0, 57, 0
2, 55034, Note_on_c, 0, 76, 0
2, 55036, Note_on_c, 0, 71, 0
2, 55042, Note_on_c, 0, 54, 0
2, 55050, Note_on_c, 0, 83, 0
2, 55059, Note_on_c, 0, 80, 0
2, 55079, Control_c, 0, 64, 0
2, 55084, Note_on_c, 0, 62, 70
2, 55085, Note_on_c, 0, 51, 65
2, 55086, Note_on_c, 0, 84, 81
2, 55087, Note_on_c, 0, 72, 66
2, 55089, Note_on_c, 0, 77, 64
2, 55093, Note_on_c, 0, 81, 48
2, 55093, Note_on_c, 0, 57, 53
2, 55130, Note_on_c, 0, 81, 0
2, 55133, Note_on_c, 0, 72, 0
2, 55140, Note_on_c, 0, 77, 0
2, 55141, Note_on_c, 0, 84, 0
2, 55147, Note_on_c, 0, 62, 0
2, 55152, Note_on_c, 0, 57, 0
2, 55155, Note_on_c, 0, 51, 0
2, 55175, Note_on_c, 0, 62, 54
2, 55177, Note_on_c, 0, 51, 33
2, 55180, Note_on_c, 0, 57, 57
2, 55190, Note_on_c, 0, 62, 0
2, 55191, Note_on_c, 0, 81, 18
2, 55193, Note_on_c, 0, 57, 0
2, 55204, Note_on_c, 0, 51, 0
2, 55207, Note_on_c, 0, 81, 0
2, 55266, Note_on_c, 0, 84, 85
2, 55268, Note_on_c, 0, 72, 77
2, 55269, Note_on_c, 0, 51, 68
2, 55269, Note_on_c, 0, 62, 75
2, 55273, Note_on_c, 0, 81, 54
2, 55278, Note_on_c, 0, 57, 48
2, 55281, Note_on_c, 0, 77, 27
2, 55284, Note_on_c, 0, 81, 0
2, 55284, Note_on_c, 0, 72, 0
2, 55291, Note_on_c, 0, 57, 0
2, 55291, Note_on_c, 0, 77, 0
2, 55292, Note_on_c, 0, 62, 0
2, 55296, Note_on_c, 0, 51, 0
2, 55296, Note_on_c, 0, 84, 0
2, 55310, Control_c, 0, 64, 127
2, 55341, Note_on_c, 0, 51, 57
2, 55341, Note_on_c, 0, 84, 85
2, 55344, Note_on_c, 0, 62, 58
2, 55346, Note_on_c, 0, 57, 54
2, 55347, Note_on_c, 0, 72, 74
2, 55350, Note_on_c, 0, 77, 69
2, 55351, Note_on_c, 0, 81, 60
2, 55372, Note_on_c, 0, 62, 0
2, 55374, Note_on_c, 0, 81, 0
2, 55378, Note_on_c, 0, 57, 0
2, 55380, Note_on_c, 0, 72, 0
2, 55382, Note_on_c, 0, 77, 0
2, 55387, Note_on_c, 0, 51, 0
2, 55391, Note_on_c, 0, 84, 0
2, 55425, Control_c, 0, 64, 0
2, 55434, Note_on_c, 0, 61, 68
2, 55436, Note_on_c, 0, 83, 71
2, 55438, Note_on_c, 0, 71, 75
2, 55439, Note_on_c, 0, 56, 45
2, 55439, Note_on_c, 0, 58, 51
2, 55442, Note_on_c, 0, 80, 49
2, 55535, Control_c, 0, 64, 127
2, 55548, Note_on_c, 0, 71, 0
2, 55553, Note_on_c, 0, 61, 0
2, 55556, Note_on_c, 0, 83, 0
2, 55569, Note_on_c, 0, 80, 0
2, 55584, Note_on_c, 0, 58, 0
2, 55594, Note_on_c, 0, 56, 0
2, 55631, Note_on_c, 0, 80, 68
2, 55634, Note_on_c, 0, 70, 67
2, 55637, Note_on_c, 0, 75, 69
2, 55640, Control_c, 0, 64, 0
2, 55642, Note_on_c, 0, 61, 60
2, 55644, Note_on_c, 0, 58, 51
2, 55652, Note_on_c, 0, 56, 32
2, 55688, Control_c, 0, 64, 127
2, 55707, Note_on_c, 0, 70, 0
2, 55708, Note_on_c, 0, 80, 0
2, 55709, Note_on_c, 0, 75, 0
2, 55741, Note_on_c, 0, 58, 0
2, 55755, Note_on_c, 0, 61, 0
2, 55788, Note_on_c, 0, 73, 57
2, 55792, Note_on_c, 0, 68, 71
2, 55794, Note_on_c, 0, 63, 50
2, 55797, Note_on_c, 0, 61, 57
2, 55797, Control_c, 0, 64, 0
2, 55800, Note_on_c, 0, 58, 50
2, 55891, Note_on_c, 0, 61, 0
2, 55893, Control_c, 0, 64, 127
2, 55916, Note_on_c, 0, 68, 0
2, 55932, Note_on_c, 0, 58, 0
2, 55935, Note_on_c, 0, 63, 0
2, 55959, Note_on_c, 0, 56, 0
2, 55976, Note_on_c, 0, 73, 0
2, 55990, Note_on_c, 0, 68, 74
2, 55992, Note_on_c, 0, 61, 49
2, 55992, Note_on_c, 0, 58, 51
2, 55993, Note_on_c, 0, 56, 34
2, 55993, Note_on_c, 0, 63, 64
2, 56016, Note_on_c, 0, 61, 0
2, 56044, Note_on_c, 0, 56, 0
2, 56046, Note_on_c, 0, 58, 0
2, 56049, Note_on_c, 0, 68, 0
2, 56052, Note_on_c, 0, 63, 0
2, 56112, Note_on_c, 0, 56, 62
2, 56121, Note_on_c, 0, 54, 25
2, 56132, Note_on_c, 0, 54, 0
2, 56135, Note_on_c, 0, 57, 44
2, 56151, Control_c, 0, 64, 0
2, 56152, Note_on_c, 0, 58, 81
2, 56152, Note_on_c, 0, 67, 81
2, 56154, Note_on_c, 0, 70, 83
2, 56154, Note_on_c, 0, 63, 83
2, 56156, Note_on_c, 0, 57, 0
2, 56203, Note_on_c, 0, 67, 0
2, 56207, Note_on_c, 0, 70, 0
2, 56207, Note_on_c, 0, 63, 0
2, 56214, Note_on_c, 0, 58, 0
2, 56231, Note_on_c, 0, 56, 0
2, 56233, Note_on_c, 0, 72, 84
2, 56233, Note_on_c, 0, 63, 70
2, 56237, Note_on_c, 0, 67, 55
2, 56241, Note_on_c, 0, 60, 80
2, 56268, Note_on_c, 0, 67, 0
2, 56270, Note_on_c, 0, 72, 0
2, 56277, Note_on_c, 0, 63, 0
2, 56280, Note_on_c, 0, 60, 0
2, 56290, Note_on_c, 0, 58, 40
2, 56295, Note_on_c, 0, 70, 39
2, 56298, Note_on_c, 0, 63, 21
2, 56303, Note_on_c, 0, 67, 31
2, 56343, Note_on_c, 0, 63, 0
2, 56344, Note_on_c, 0, 67, 0
2, 56356, Note_on_c, 0, 70, 0
2, 56381, Note_on_c, 0, 58, 0
2, 56401, Control_c, 0, 64, 127
2, 56402, Note_on_c, 0, 67, 58
2, 56404, Note_on_c, 0, 63, 60
2, 56406, Note_on_c, 0, 70, 59
2, 56406, Note_on_c, 0, 58, 62
2, 56444, Note_on_c, 0, 67, 0
2, 56464, Note_on_c, 0, 63, 0
2, 56467, Note_on_c, 0, 70, 0
2, 56471, Note_on_c, 0, 58, 0
2, 56584, Control_c, 0, 64, 0
2, 56589, Note_on_c, 0, 70, 73
2, 56590, Note_on_c, 0, 63, 65
2, 56593, Note_on_c, 0, 60, 70
2, 56593, Note_on_c, 0, 58, 64
2, 56598, Note_on_c, 0, 65, 54
2, 56638, Control_c, 0, 64, 127
2, 56646, Note_on_c, 0, 60, 0
2, 56651, Note_on_c, 0, 65, 0
2, 56652, Note_on_c, 0, 70, 0
2, 56670, Note_on_c, 0, 63, 0
2, 56684, Note_on_c, 0, 63, 47
2, 56685, Note_on_c, 0, 68, 69
2, 56686, Note_on_c, 0, 60, 67
2, 56686, Note_on_c, 0, 56, 52
2, 56698, Note_on_c, 0, 58, 0
2, 56730, Note_on_c, 0, 60, 0
2, 56733, Note_on_c, 0, 63, 0
2, 56735, Control_c, 0, 64, 0
2, 56758, Note_on_c, 0, 68, 0
2, 56764, Note_on_c, 0, 56, 0
2, 56767, Control_c, 0, 64, 127
2, 56769, Note_on_c, 0, 63, 51
2, 56769, Note_on_c, 0, 60, 54
2, 56771, Note_on_c, 0, 54, 49
2, 56797, Note_on_c, 0, 60, 0
2, 56820, Note_on_c, 0, 54, 0
2, 56840, Note_on_c, 0, 54, 15
2, 56845, Note_on_c, 0, 51, 38
2, 56856, Note_on_c, 0, 63, 0
2, 56881, Note_on_c, 0, 54, 0
2, 56882, Control_c, 0, 64, 0
2, 56885, Note_on_c, 0, 51, 0
2, 56892, Note_on_c, 0, 67, 55
2, 56897, Note_on_c, 0, 58, 57
2, 56898, Note_on_c, 0, 62, 64
2, 56902, Note_on_c, 0, 55, 62
2, 56979, Control_c, 0, 64, 127
2, 56986, Note_on_c, 0, 67, 0
2, 56993, Note_on_c, 0, 62, 0
2, 57022, Note_on_c, 0, 58, 0
2, 57023, Note_on_c, 0, 55, 0
2, 57067, Note_on_c, 0, 58, 68
2, 57068, Note_on_c, 0, 65, 64
2, 57070, Note_on_c, 0, 55, 77
2, 57072, Note_on_c, 0, 62, 65
2, 57074, Note_on_c, 0, 53, 68
2, 57087, Control_c, 0, 64, 0
2, 57140, Note_on_c, 0, 62, 0
2, 57146, Note_on_c, 0, 53, 0
2, 57157, Note_on_c, 0, 55, 0
2, 57159, Note_on_c, 0, 52, 22
2, 57181, Note_on_c, 0, 58, 0
2, 57187, Note_on_c, 0, 51, 52
2, 57190, Note_on_c, 0, 52, 0
2, 57194, Note_on_c, 0, 65, 0
2, 57229, Note_on_c, 0, 51, 0
2, 57244, Note_on_c, 0, 50, 51
2, 57247, Note_on_c, 0, 62, 44
2, 57248, Note_on_c, 0, 55, 47
2, 57248, Note_on_c, 0, 58, 33
2, 57290, Note_on_c, 0, 55, 0
2, 57308, Note_on_c, 0, 58, 0
2, 57309, Note_on_c, 0, 62, 0
2, 57324, Note_on_c, 0, 50, 0
2, 57346, Note_on_c, 0, 58, 47
2, 57352, Note_on_c, 0, 53, 49
2, 57354, Control_c, 0, 64, 127
2, 57355, Note_on_c, 0, 65, 47
2, 57362, Note_on_c, 0, 58, 0
2, 57367, Note_on_c, 0, 65, 0
2, 57422, Note_on_c, 0, 53, 0
2, 57434, Control_c, 0, 64, 0
2, 57436, Note_on_c, 0, 60, 25
2, 57437, Note_on_c, 0, 65, 50
2, 57462, Note_on_c, 0, 60, 0
2, 57474, Note_on_c, 0, 65, 0
2, 57480, Control_c, 0, 64, 127
2, 57492, Note_on_c, 0, 70, 53
2, 57529, Note_on_c, 0, 70, 0
2, 57558, Note_on_c, 0, 72, 77
2, 57560, Note_on_c, 0, 73, 39
2, 57565, Note_on_c, 0, 66, 46
2, 57575, Note_on_c, 0, 66, 0
2, 57575, Note_on_c, 0, 73, 0
2, 57585, Control_c, 0, 64, 0
2, 57589, Note_on_c, 0, 72, 0
2, 57603, Note_on_c, 0, 45, 60
2, 57608, Note_on_c, 0, 69, 64
2, 57611, Note_on_c, 0, 65, 51
2, 57612, Note_on_c, 0, 61, 57
2, 57626, Control_c, 0, 64, 127
2, 57628, Note_on_c, 0, 45, 0
2, 57644, Note_on_c, 0, 61, 0
2, 57651, Note_on_c, 0, 65, 0
2, 57665, Note_on_c, 0, 69, 0
2, 57719, Note_on_c, 0, 60, 42
2, 57720, Note_on_c, 0, 65, 71
2, 57721, Note_on_c, 0, 84, 101
2, 57722, Note_on_c, 0, 55, 67
2, 57723, Note_on_c, 0, 61, 50
2, 57728, Note_on_c, 0, 58, 46
2, 57765, Control_c, 0, 64, 0
2, 57785, Note_on_c, 0, 84, 0
2, 57812, Note_on_c, 0, 84, 29
2, 57825, Control_c, 0, 64, 127
2, 57875, Note_on_c, 0, 84, 0
2, 57889, Note_on_c, 0, 55, 0
2, 57903, Note_on_c, 0, 65, 0
2, 57907, Note_on_c, 0, 82, 81
2, 57913, Note_on_c, 0, 60, 0
2, 57935, Note_on_c, 0, 58, 0
2, 57939, Note_on_c, 0, 61, 0
2, 57941, Note_on_c, 0, 82, 0
2, 57960, Control_c, 0, 64, 0
2, 57971, Note_on_c, 0, 61, 31
2, 57973, Note_on_c, 0, 81, 64
2, 57976, Note_on_c, 0, 66, 45
2, 57980, Note_on_c, 0, 55, 46
2, 57996, Note_on_c, 0, 81, 0
2, 58003, Note_on_c, 0, 82, 53
2, 58037, Note_on_c, 0, 81, 64
2, 58040, Note_on_c, 0, 66, 0
2, 58051, Note_on_c, 0, 82, 0
2, 58077, Note_on_c, 0, 81, 0
2, 58085, Note_on_c, 0, 79, 47
2, 58115, Note_on_c, 0, 55, 0
2, 58129, Note_on_c, 0, 79, 0
2, 58142, Note_on_c, 0, 61, 0
2, 58153, Note_on_c, 0, 78, 69
2, 58168, Note_on_c, 0, 61, 60
2, 58169, Note_on_c, 0, 66, 59
2, 58178, Note_on_c, 0, 55, 28
2, 58193, Note_on_c, 0, 66, 0
2, 58196, Note_on_c, 0, 78, 0
2, 58208, Note_on_c, 0, 55, 0
2, 58215, Note_on_c, 0, 77, 28
2, 58252, Note_on_c, 0, 77, 0
2, 58277, Note_on_c, 0, 75, 58
2, 58302, Note_on_c, 0, 64, 38
2, 58306, Note_on_c, 0, 54, 37
2, 58308, Note_on_c, 0, 75, 0
2, 58317, Note_on_c, 0, 59, 31
2, 58330, Note_on_c, 0, 76, 62
2, 58405, Note_on_c, 0, 76, 0
2, 58425, Note_on_c, 0, 73, 46
2, 58454, Note_on_c, 0, 64, 0
2, 58457, Note_on_c, 0, 54, 0
2, 58471, Note_on_c, 0, 59, 0
2, 58487, Note_on_c, 0, 73, 0
2, 58505, Note_on_c, 0, 64, 45
2, 58510, Note_on_c, 0, 69, 53
2, 58510, Note_on_c, 0, 59, 36
2, 58514, Note_on_c, 0, 54, 21
2, 58538, Note_on_c, 0, 64, 0
2, 58541, Control_c, 0, 64, 127
2, 58544, Note_on_c, 0, 54, 0
2, 58553, Note_on_c, 0, 59, 0
2, 58565, Note_on_c, 0, 69, 0
2, 58567, Note_on_c, 0, 61, 0
2, 58600, Note_on_c, 0, 61, 39
2, 58603, Note_on_c, 0, 66, 65
2, 58632, Note_on_c, 0, 61, 0
2, 58651, Note_on_c, 0, 66, 0
2, 58674, Note_on_c, 0, 62, 54
2, 58680, Note_on_c, 0, 54, 46
2, 58683, Note_on_c, 0, 61, 21
2, 58707, Control_c, 0, 64, 0
2, 58750, Note_on_c, 0, 62, 0
2, 58767, Note_on_c, 0, 64, 75
2, 58776, Note_on_c, 0, 54, 0
2, 58779, Control_c, 0, 64, 127
2, 58809, Note_on_c, 0, 64, 0
2, 58813, Note_on_c, 0, 61, 0
2, 58852, Note_on_c, 0, 66, 80
2, 58860, Note_on_c, 0, 61, 57
2, 58862, Note_on_c, 0, 54, 56
2, 58863, Note_on_c, 0, 64, 59
2, 58863, Note_on_c, 0, 59, 59
2, 58885, Note_on_c, 0, 64, 0
2, 58897, Control_c, 0, 64, 0
2, 58914, Note_on_c, 0, 66, 0
2, 58932, Control_c, 0, 64, 127
2, 58934, Note_on_c, 0, 67, 74
2, 58940, Note_on_c, 0, 59, 0
2, 58957, Note_on_c, 0, 54, 0
2, 58958, Note_on_c, 0, 61, 0
2, 58990, Note_on_c, 0, 67, 0
2, 59013, Note_on_c, 0, 69, 70
2, 59023, Control_c, 0, 64, 0
2, 59073, Note_on_c, 0, 69, 0
2, 59095, Note_on_c, 0, 71, 74
2, 59101, Note_on_c, 0, 62, 35
2, 59102, Note_on_c, 0, 59, 56
2, 59104, Note_on_c, 0, 54, 33
2, 59130, Note_on_c, 0, 62, 0
2, 59146, Note_on_c, 0, 54, 0
2, 59150, Control_c, 0, 64, 127
2, 59159, Note_on_c, 0, 71, 0
2, 59176, Note_on_c, 0, 59, 0
2, 59177, Note_on_c, 0, 74, 65
2, 59216, Note_on_c, 0, 74, 0
2, 59256, Note_on_c, 0, 78, 61
2, 59296, Note_on_c, 0, 78, 0
2, 59326, Note_on_c, 0, 81, 81
2, 59380, Note_on_c, 0, 81, 0
2, 59419, Note_on_c, 0, 79, 66
2, 59422, Note_on_c, 0, 76, 66
2, 59422, Note_on_c, 0, 71, 70
2, 59427, Note_on_c, 0, 59, 24
2, 59438, Note_on_c, 0, 59, 0
2, 59452, Control_c, 0, 64, 0
2, 59497, Note_on_c, 0, 76, 0
2, 59503, Control_c, 0, 64, 127
2, 59534, Note_on_c, 0, 71, 0
2, 59587, Control_c, 0, 64, 0
2, 59590, Note_on_c, 0, 74, 61
2, 59592, Note_on_c, 0, 69, 49
2, 59596, Note_on_c, 0, 60, 38
2, 59597, Note_on_c, 0, 64, 41
2, 59599, Note_on_c, 0, 57, 44
2, 59607, Note_on_c, 0, 53, 24
2, 59631, Control_c, 0, 64, 127
2, 59636, Note_on_c, 0, 60, 0
2, 59640, Note_on_c, 0, 64, 0
2, 59647, Note_on_c, 0, 57, 0
2, 59657, Note_on_c, 0, 79, 0
2, 59660, Note_on_c, 0, 53, 0
2, 59667, Note_on_c, 0, 74, 0
2, 59676, Note_on_c, 0, 69, 0
2, 59754, Control_c, 0, 64, 0
2, 59755, Note_on_c, 0, 70, 52
2, 59756, Note_on_c, 0, 65, 36
2, 59758, Note_on_c, 0, 58, 36
2, 59759, Note_on_c, 0, 62, 27
2, 59759, Note_on_c, 0, 51, 27
2, 59762, Note_on_c, 0, 55, 49
2, 59821, Control_c, 0, 64, 127
2, 59856, Note_on_c, 0, 65, 0
2, 59861, Note_on_c, 0, 51, 0
2, 59864, Note_on_c, 0, 55, 0
2, 59868, Note_on_c, 0, 62, 0
2, 59887, Note_on_c, 0, 70, 0
2, 59897, Note_on_c, 0, 58, 0
2, 59944, Note_on_c, 0, 58, 46
2, 59945, Note_on_c, 0, 77, 60
2, 59948, Note_on_c, 0, 51, 43
2, 59948, Note_on_c, 0, 70, 54
2, 59950, Note_on_c, 0, 67, 44
2, 59954, Note_on_c, 0, 62, 32
2, 59958, Note_on_c, 0, 55, 34
2, 59962, Control_c, 0, 64, 0
2, 59971, Note_on_c, 0, 62, 0
2, 59981, Control_c, 0, 64, 127
2, 59982, Note_on_c, 0, 55, 0
2, 59994, Note_on_c, 0, 51, 0
2, 59996, Note_on_c, 0, 77, 0
2, 60004, Note_on_c, 0, 70, 0
2, 60009, Note_on_c, 0, 58, 0
2, 60014, Note_on_c, 0, 67, 0
2, 60110, Control_c, 0, 64, 0
2, 60116, Note_on_c, 0, 75, 47
2, 60116, Note_on_c, 0, 63, 39
2, 60118, Note_on_c, 0, 58, 42
2, 60119, Note_on_c, 0, 68, 53
2, 60123, Note_on_c, 0, 72, 49
2, 60125, Note_on_c, 0, 65, 38
2, 60129, Note_on_c, 0, 53, 19
2, 60180, Control_c, 0, 64, 127
2, 60215, Note_on_c, 0, 63, 0
2, 60223, Note_on_c, 0, 53, 0
2, 60234, Note_on_c, 0, 65, 0
2, 60238, Note_on_c, 0, 75, 0
2, 60239, Note_on_c, 0, 72, 0
2, 60245, Note_on_c, 0, 68, 0
2, 60258, Note_on_c, 0, 58, 0
2, 60309, Note_on_c, 0, 72, 53
2, 60310, Note_on_c, 0, 63, 44
2, 60311, Note_on_c, 0, 68, 37
2, 60312, Note_on_c, 0, 65, 41
2, 60313, Note_on_c, 0, 58, 31
2, 60326, Note_on_c, 0, 65, 0
2, 60332, Note_on_c, 0, 58, 0
2, 60333, Note_on_c, 0, 68, 0
2, 60336, Note_on_c, 0, 63, 0
2, 60343, Note_on_c, 0, 72, 0
2, 60479, Note_on_c, 0, 74, 70
2, 60479, Note_on_c, 0, 67, 35
2, 60479, Note_on_c, 0, 86, 67
2, 60480, Note_on_c, 0, 62, 36
2, 60484, Note_on_c, 0, 64, 40
2, 60488, Control_c, 0, 64, 0
2, 60490, Note_on_c, 0, 86, 0
2, 60492, Note_on_c, 0, 74, 0
2, 60511, Note_on_c, 0, 67, 0
2, 60519, Note_on_c, 0, 86, 55
2, 60522, Note_on_c, 0, 74, 44
2, 60540, Note_on_c, 0, 74, 0
2, 60549, Note_on_c, 0, 86, 0
2, 60607, Note_on_c, 0, 55, 39
2, 60610, Note_on_c, 0, 74, 46
2, 60610, Note_on_c, 0, 83, 58
2, 60611, Control_c, 0, 64, 127
2, 60626, Control_c, 0, 64, 0
2, 60700, Control_c, 0, 64, 127
2, 60713, Note_on_c, 0, 62, 0
2, 60717, Note_on_c, 0, 64, 0
2, 60739, Note_on_c, 0, 74, 0
2, 60750, Note_on_c, 0, 83, 0
2, 60828, Note_on_c, 0, 84, 77
2, 60831, Note_on_c, 0, 65, 38
2, 60831, Note_on_c, 0, 72, 68
2, 60831, Note_on_c, 0, 57, 34
2, 60832, Control_c, 0, 64, 0
2, 60833, Note_on_c, 0, 60, 31
2, 60840, Note_on_c, 0, 84, 0
2, 60843, Note_on_c, 0, 72, 0
2, 60873, Note_on_c, 0, 84, 65
2, 60888, Note_on_c, 0, 72, 30
2, 60901, Note_on_c, 0, 72, 0
2, 60912, Note_on_c, 0, 55, 0
2, 60921, Note_on_c, 0, 84, 0
2, 60959, Note_on_c, 0, 55, 64
2, 60961, Control_c, 0, 64, 127
2, 60963, Note_on_c, 0, 72, 58
2, 60966, Note_on_c, 0, 81, 57
2, 61009, Note_on_c, 0, 81, 0
2, 61015, Note_on_c, 0, 72, 0
2, 61023, Note_on_c, 0, 65, 0
2, 61024, Note_on_c, 0, 60, 0
2, 61027, Note_on_c, 0, 57, 0
2, 61074, Note_on_c, 0, 83, 62
2, 61077, Note_on_c, 0, 71, 57
2, 61079, Control_c, 0, 64, 0
2, 61085, Note_on_c, 0, 83, 0
2, 61087, Note_on_c, 0, 71, 0
2, 61119, Note_on_c, 0, 83, 64
2, 61126, Note_on_c, 0, 71, 40
2, 61143, Note_on_c, 0, 71, 0
2, 61158, Note_on_c, 0, 83, 0
2, 61197, Note_on_c, 0, 67, 51
2, 61201, Note_on_c, 0, 62, 32
2, 61203, Note_on_c, 0, 79, 70
2, 61206, Note_on_c, 0, 64, 44
2, 61206, Note_on_c, 0, 71, 62
2, 61231, Control_c, 0, 64, 127
2, 61262, Note_on_c, 0, 67, 0
2, 61277, Note_on_c, 0, 55, 0
2, 61329, Note_on_c, 0, 55, 61
2, 61361, Control_c, 0, 64, 0
2, 61409, Control_c, 0, 64, 127
2, 61429, Note_on_c, 0, 62, 0
2, 61431, Note_on_c, 0, 64, 0
2, 61446, Note_on_c, 0, 55, 0
2, 61508, Note_on_c, 0, 71, 0
2, 61508, Note_on_c, 0, 79, 0
2, 61518, Note_on_c, 0, 56, 49
2, 61521, Note_on_c, 0, 60, 65
2, 61524, Note_on_c, 0, 64, 67
2, 61524, Note_on_c, 0, 53, 58
2, 61535, Control_c, 0, 64, 0
2, 61685, Note_on_c, 0, 80, 76
2, 61693, Note_on_c, 0, 68, 75
2, 61695, Control_c, 0, 64, 127
2, 61702, Note_on_c, 0, 64, 0
2, 61711, Note_on_c, 0, 60, 0
2, 61724, Note_on_c, 0, 68, 0
2, 61747, Control_c, 0, 64, 0
2, 61757, Note_on_c, 0, 77, 68
2, 61763, Note_on_c, 0, 60, 54
2, 61765, Note_on_c, 0, 64, 45
2, 61778, Note_on_c, 0, 80, 0
2, 61781, Note_on_c, 0, 64, 0
2, 61793, Note_on_c, 0, 60, 0
2, 61795, Note_on_c, 0, 77, 0
2, 61804, Note_on_c, 0, 53, 0
2, 61813, Note_on_c, 0, 73, 30
2, 61816, Note_on_c, 0, 56, 0
2, 61817, Control_c, 0, 64, 127
2, 61864, Note_on_c, 0, 73, 0
2, 61882, Note_on_c, 0, 67, 46
2, 61884, Control_c, 0, 64, 0
2, 61893, Note_on_c, 0, 62, 54
2, 61895, Note_on_c, 0, 67, 0
2, 61901, Note_on_c, 0, 59, 45
2, 61905, Note_on_c, 0, 52, 35
2, 61908, Note_on_c, 0, 55, 36
2, 61933, Note_on_c, 0, 79, 77
2, 61941, Note_on_c, 0, 78, 52
2, 61990, Note_on_c, 0, 78, 0
2, 62001, Note_on_c, 0, 62, 0
2, 62020, Control_c, 0, 64, 127
2, 62027, Note_on_c, 0, 74, 51
2, 62040, Note_on_c, 0, 59, 0
2, 62046, Note_on_c, 0, 55, 0
2, 62089, Note_on_c, 0, 79, 0
2, 62103, Control_c, 0, 64, 0
2, 62104, Note_on_c, 0, 74, 0
2, 62113, Note_on_c, 0, 59, 54
2, 62115, Note_on_c, 0, 62, 59
2, 62117, Note_on_c, 0, 67, 58
2, 62125, Note_on_c, 0, 55, 33
2, 62141, Control_c, 0, 64, 127
2, 62146, Note_on_c, 0, 55, 0
2, 62150, Note_on_c, 0, 52, 0
2, 62160, Note_on_c, 0, 59, 0
2, 62178, Note_on_c, 0, 62, 0
2, 62234, Note_on_c, 0, 67, 0
2, 62274, Note_on_c, 0, 74, 81
2, 62276, Note_on_c, 0, 71, 85
2, 62278, Note_on_c, 0, 67, 72
2, 62279, Note_on_c, 0, 64, 70
2, 62280, Note_on_c, 0, 60, 63
2, 62281, Note_on_c, 0, 59, 63
2, 62283, Control_c, 0, 64, 0
2, 62284, Note_on_c, 0, 55, 57
2, 62350, Control_c, 0, 64, 127
2, 62404, Note_on_c, 0, 64, 0
2, 62409, Note_on_c, 0, 55, 0
2, 62418, Note_on_c, 0, 74, 0
2, 62420, Note_on_c, 0, 60, 0
2, 62423, Note_on_c, 0, 71, 0
2, 62423, Note_on_c, 0, 67, 0
2, 62424, Note_on_c, 0, 59, 0
2, 62470, Note_on_c, 0, 72, 90
2, 62471, Note_on_c, 0, 67, 83
2, 62475, Control_c, 0, 64, 0
2, 62475, Note_on_c, 0, 64, 72
2, 62476, Note_on_c, 0, 60, 68
2, 62476, Note_on_c, 0, 59, 66
2, 62479, Note_on_c, 0, 55, 60
2, 62523, Control_c, 0, 64, 127
2, 62559, Note_on_c, 0, 72, 0
2, 62565, Note_on_c, 0, 67, 0
2, 62578, Note_on_c, 0, 64, 0
2, 62581, Note_on_c, 0, 60, 0
2, 62582, Note_on_c, 0, 55, 0
2, 62584, Note_on_c, 0, 59, 0
2, 62645, Note_on_c, 0, 70, 72
2, 62650, Note_on_c, 0, 64, 64
2, 62653, Note_on_c, 0, 68, 34
2, 62654, Note_on_c, 0, 60, 62
2, 62661, Control_c, 0, 64, 0
2, 62662, Note_on_c, 0, 54, 53
2, 62742, Control_c, 0, 64, 127
2, 62777, Note_on_c, 0, 64, 0
2, 62788, Note_on_c, 0, 68, 0
2, 62790, Note_on_c, 0, 54, 0
2, 62791, Note_on_c, 0, 60, 0
2, 62806, Note_on_c, 0, 70, 0
2, 62833, Note_on_c, 0, 68, 65
2, 62833, Note_on_c, 0, 71, 66
2, 62836, Note_on_c, 0, 64, 65
2, 62840, Control_c, 0, 64, 0
2, 62843, Note_on_c, 0, 60, 60
2, 62846, Note_on_c, 0, 54, 47
2, 62888, Control_c, 0, 64, 127
2, 62937, Note_on_c, 0, 64, 0
2, 62942, Note_on_c, 0, 60, 0
2, 62946, Note_on_c, 0, 54, 0
2, 62951, Note_on_c, 0, 68, 0
2, 62971, Note_on_c, 0, 71, 0
2, 63007, Note_on_c, 0, 68, 60
2, 63012, Note_on_c, 0, 72, 51
2, 63014, Control_c, 0, 64, 0
2, 63014, Note_on_c, 0, 64, 50
2, 63019, Note_on_c, 0, 54, 37
2, 63020, Note_on_c, 0, 60, 39
2, 63084, Control_c, 0, 64, 127
2, 63104, Note_on_c, 0, 68, 0
2, 63114, Note_on_c, 0, 60, 0
2, 63114, Note_on_c, 0, 64, 0
2, 63116, Note_on_c, 0, 72, 0
2, 63130, Note_on_c, 0, 54, 0
2, 63189, Note_on_c, 0, 70, 53
2, 63189, Note_on_c, 0, 54, 54
2, 63193, Note_on_c, 0, 65, 61
2, 63197, Note_on_c, 0, 60, 47
2, 63203, Control_c, 0, 64, 0
2, 63225, Note_on_c, 0, 54, 0
2, 63233, Note_on_c, 0, 70, 0
2, 63238, Control_c, 0, 64, 127
2, 63246, Note_on_c, 0, 65, 0
2, 63269, Note_on_c, 0, 60, 0
2, 63363, Note_on_c, 0, 64, 58
2, 63365, Note_on_c, 0, 67, 49
2, 63365, Note_on_c, 0, 60, 66
2, 63367, Control_c, 0, 64, 0
2, 63478, Note_on_c, 0, 55, 73
2, 63496, Control_c, 0, 64, 127
2, 63560, Note_on_c, 0, 60, 0
2, 63579, Note_on_c, 0, 64, 0
2, 63581, Note_on_c, 0, 67, 0
2, 63602, Note_on_c, 0, 43, 30
2, 63614, Note_on_c, 0, 43, 0
2, 63621, Note_on_c, 0, 55, 0
2, 63721, Note_on_c, 0, 57, 66
2, 63722, Note_on_c, 0, 65, 82
2, 63722, Note_on_c, 0, 55, 81
2, 63723, Note_on_c, 0, 60, 74
2, 63724, Note_on_c, 0, 76, 108
2, 63726, Control_c, 0, 64, 0
2, 63735, Note_on_c, 0, 75, 51
2, 63745, Note_on_c, 0, 75, 0
2, 63841, Control_c, 0, 64, 127
2, 63852, Note_on_c, 0, 72, 80
2, 63856, Note_on_c, 0, 65, 0
2, 63862, Note_on_c, 0, 76, 0
2, 63870, Note_on_c, 0, 74, 24
2, 63911, Note_on_c, 0, 60, 0
2, 63922, Note_on_c, 0, 74, 0
2, 63930, Note_on_c, 0, 55, 0
2, 63932, Note_on_c, 0, 57, 0
2, 63953, Note_on_c, 0, 72, 0
2, 63963, Note_on_c, 0, 64, 60
2, 63981, Note_on_c, 0, 64, 0
2, 64085, Note_on_c, 0, 65, 55
2, 64088, Note_on_c, 0, 57, 55
2, 64089, Note_on_c, 0, 60, 64
2, 64092, Control_c, 0, 64, 0
2, 64170, Note_on_c, 0, 55, 71
2, 64181, Note_on_c, 0, 55, 0
2, 64309, Note_on_c, 0, 57, 0
2, 64310, Control_c, 0, 64, 127
2, 64319, Note_on_c, 0, 43, 60
2, 64320, Note_on_c, 0, 60, 0
2, 64331, Note_on_c, 0, 43, 0
2, 64343, Note_on_c, 0, 65, 0
2, 64510, Note_on_c, 0, 86, 88
2, 64510, Note_on_c, 0, 82, 83
2, 64511, Note_on_c, 0, 74, 92
2, 64512, Control_c, 0, 64, 0
2, 64516, Note_on_c, 0, 59, 82
2, 64516, Note_on_c, 0, 64, 90
2, 64517, Note_on_c, 0, 80, 50
2, 64517, Note_on_c, 0, 53, 83
2, 64527, Note_on_c, 0, 80, 0
2, 64528, Note_on_c, 0, 84, 30
2, 64555, Note_on_c, 0, 83, 55
2, 64563, Control_c, 0, 64, 127
2, 64571, Note_on_c, 0, 82, 0
2, 64582, Note_on_c, 0, 83, 0
2, 64586, Note_on_c, 0, 84, 0
2, 64589, Note_on_c, 0, 86, 0
2, 64590, Note_on_c, 0, 74, 0
2, 64621, Note_on_c, 0, 64, 0
2, 64623, Note_on_c, 0, 53, 0
2, 64625, Note_on_c, 0, 59, 0
2, 64669, Control_c, 0, 64, 0
2, 64675, Note_on_c, 0, 78, 67
2, 64676, Note_on_c, 0, 71, 76
2, 64677, Note_on_c, 0, 83, 74
2, 64679, Note_on_c, 0, 75, 62
2, 64681, Note_on_c, 0, 59, 68
2, 64682, Note_on_c, 0, 53, 71
2, 64682, Note_on_c, 0, 64, 75
2, 64709, Note_on_c, 0, 75, 0
2, 64759, Note_on_c, 0, 79, 44
2, 64759, Control_c, 0, 64, 127
2, 64771, Note_on_c, 0, 78, 0
2, 64775, Note_on_c, 0, 79, 0
2, 64779, Note_on_c, 0, 83, 0
2, 64782, Note_on_c, 0, 71, 0
2, 64784, Note_on_c, 0, 53, 0
2, 64786, Note_on_c, 0, 64, 0
2, 64828, Note_on_c, 0, 59, 0
2, 64868, Control_c, 0, 64, 0
2, 64873, Note_on_c, 0, 79, 65
2, 64876, Note_on_c, 0, 67, 53
2, 64876, Note_on_c, 0, 74, 64
2, 64877, Note_on_c, 0, 59, 57
2, 64881, Note_on_c, 0, 62, 60
2, 64884, Note_on_c, 0, 55, 54
2, 64885, Note_on_c, 0, 52, 51
2, 64929, Control_c, 0, 64, 127
2, 64945, Note_on_c, 0, 79, 0
2, 64948, Note_on_c, 0, 74, 0
2, 64963, Note_on_c, 0, 67, 0
2, 64986, Note_on_c, 0, 62, 0
2, 65000, Note_on_c, 0, 52, 0
2, 65006, Note_on_c, 0, 55, 0
2, 65007, Note_on_c, 0, 59, 0
2, 65045, Control_c, 0, 64, 0
2, 65045, Note_on_c, 0, 76, 51
2, 65046, Note_on_c, 0, 59, 48
2, 65047, Note_on_c, 0, 55, 48
2, 65049, Note_on_c, 0, 69, 56
2, 65050, Note_on_c, 0, 64, 51
2, 65052, Note_on_c, 0, 52, 50
2, 65052, Note_on_c, 0, 72, 47
2, 65126, Note_on_c, 0, 52, 0
2, 65134, Note_on_c, 0, 55, 0
2, 65135, Note_on_c, 0, 64, 0
2, 65137, Control_c, 0, 64, 127
2, 65143, Note_on_c, 0, 69, 0
2, 65143, Note_on_c, 0, 59, 0
2, 65148, Note_on_c, 0, 72, 0
2, 65159, Note_on_c, 0, 76, 0
2, 65231, Control_c, 0, 64, 0
2, 65240, Note_on_c, 0, 77, 66
2, 65242, Note_on_c, 0, 72, 62
2, 65247, Note_on_c, 0, 67, 33
2, 65249, Note_on_c, 0, 61, 42
2, 65250, Note_on_c, 0, 55, 44
2, 65253, Note_on_c, 0, 65, 38
2, 65311, Control_c, 0, 64, 127
2, 65336, Note_on_c, 0, 65, 0
2, 65337, Note_on_c, 0, 67, 0
2, 65345, Note_on_c, 0, 55, 0
2, 65348, Note_on_c, 0, 72, 0
2, 65359, Note_on_c, 0, 77, 0
2, 65361, Note_on_c, 0, 61, 0
2, 65384, Note_on_c, 0, 61, 48
2, 65387, Note_on_c, 0, 75, 50
2, 65388, Note_on_c, 0, 55, 54
2, 65393, Note_on_c, 0, 72, 29
2, 65409, Note_on_c, 0, 72, 0
2, 65415, Note_on_c, 0, 55, 0
2, 65421, Note_on_c, 0, 75, 0
2, 65445, Note_on_c, 0, 61, 0
2, 65513, Control_c, 0, 64, 0
2, 65514, Note_on_c, 0, 84, 50
2, 65516, Note_on_c, 0, 65, 38
2, 65518, Note_on_c, 0, 72, 36
2, 65519, Note_on_c, 0, 77, 31
2, 65519, Note_on_c, 0, 60, 44
2, 65520, Note_on_c, 0, 54, 35
2, 65593, Control_c, 0, 64, 127
2, 65628, Note_on_c, 0, 77, 0
2, 65631, Note_on_c, 0, 65, 0
2, 65636, Note_on_c, 0, 72, 0
2, 65643, Note_on_c, 0, 60, 0
2, 65646, Note_on_c, 0, 54, 0
2, 65662, Note_on_c, 0, 84, 0
2, 65703, Note_on_c, 0, 82, 49
2, 65704, Note_on_c, 0, 72, 34
2, 65708, Note_on_c, 0, 54, 38
2, 65710, Note_on_c, 0, 60, 44
2, 65712, Note_on_c, 0, 77, 40
2, 65727, Note_on_c, 0, 72, 0
2, 65728, Note_on_c, 0, 77, 0
2, 65739, Note_on_c, 0, 82, 0
2, 65751, Note_on_c, 0, 60, 0
2, 65788, Note_on_c, 0, 54, 0
2, 65869, Control_c, 0, 64, 0
2, 65874, Note_on_c, 0, 91, 55
2, 65877, Note_on_c, 0, 79, 44
2, 65880, Note_on_c, 0, 59, 40
2, 65881, Note_on_c, 0, 64, 34
2, 65895, Note_on_c, 0, 53, 22
2, 65920, Control_c, 0, 64, 127
2, 65949, Note_on_c, 0, 79, 0
2, 65961, Note_on_c, 0, 64, 0
2, 65962, Note_on_c, 0, 53, 0
2, 65974, Note_on_c, 0, 91, 0
2, 65980, Note_on_c, 0, 59, 0
2, 66052, Control_c, 0, 64, 0
2, 66072, Control_c, 0, 64, 127
2, 66081, Note_on_c, 0, 63, 32
2, 66084, Note_on_c, 0, 53, 35
2, 66085, Note_on_c, 0, 59, 42
2, 66088, Note_on_c, 0, 56, 32
2, 66108, Control_c, 0, 64, 0
2, 66135, Note_on_c, 0, 59, 0
2, 66137, Note_on_c, 0, 53, 0
2, 66139, Note_on_c, 0, 63, 0
2, 66140, Note_on_c, 0, 56, 0
2, 66206, Note_on_c, 0, 74, 77
2, 66233, Note_on_c, 0, 74, 0
2, 66247, Note_on_c, 0, 72, 66
2, 66253, Note_on_c, 0, 67, 44
2, 66253, Note_on_c, 0, 64, 50
2, 66253, Note_on_c, 0, 62, 42
2, 66340, Control_c, 0, 64, 127
2, 66423, Note_on_c, 0, 72, 0
2, 66440, Note_on_c, 0, 67, 0
2, 66459, Note_on_c, 0, 62, 0
2, 66461, Note_on_c, 0, 64, 0
2, 66597, Control_c, 0, 64, 0
2, 66603, Note_on_c, 0, 65, 42
2, 66607, Note_on_c, 0, 60, 36
2, 66608, Note_on_c, 0, 71, 68
2, 66609, Note_on_c, 0, 55, 43
2, 66612, Note_on_c, 0, 57, 40
2, 66727, Control_c, 0, 64, 127
2, 66782, Note_on_c, 0, 71, 0
2, 66800, Note_on_c, 0, 72, 71
2, 66801, Note_on_c, 0, 65, 0
2, 66811, Note_on_c, 0, 60, 0
2, 66817, Note_on_c, 0, 57, 0
2, 66852, Note_on_c, 0, 72, 0
2, 66880, Note_on_c, 0, 76, 85
2, 66919, Note_on_c, 0, 76, 0
2, 66957, Note_on_c, 0, 62, 40
2, 66959, Control_c, 0, 64, 0
2, 66966, Note_on_c, 0, 64, 49
2, 66968, Note_on_c, 0, 81, 89
2, 66970, Note_on_c, 0, 74, 95
2, 66973, Note_on_c, 0, 67, 66
2, 67035, Control_c, 0, 64, 127
2, 67079, Note_on_c, 0, 74, 0
2, 67149, Note_on_c, 0, 81, 0
2, 67161, Note_on_c, 0, 67, 0
2, 67202, Note_on_c, 0, 62, 0
2, 67210, Note_on_c, 0, 64, 0
2, 67271, Note_on_c, 0, 76, 62
2, 67294, Note_on_c, 0, 76, 0
2, 67315, Control_c, 0, 64, 0
2, 67318, Note_on_c, 0, 65, 34
2, 67320, Note_on_c, 0, 74, 44
2, 67320, Note_on_c, 0, 69, 47
2, 67320, Note_on_c, 0, 60, 38
2, 67325, Note_on_c, 0, 57, 26
2, 67358, Control_c, 0, 64, 127
2, 67395, Note_on_c, 0, 65, 0
2, 67400, Note_on_c, 0, 57, 0
2, 67401, Note_on_c, 0, 60, 0
2, 67412, Note_on_c, 0, 69, 0
2, 67414, Note_on_c, 0, 55, 0
2, 67424, Note_on_c, 0, 74, 0
2, 67512, Note_on_c, 0, 76, 90
2, 67512, Note_on_c, 0, 68, 93
2, 67513, Note_on_c, 0, 60, 59
2, 67514, Control_c, 0, 64, 0
2, 67517, Note_on_c, 0, 64, 68
2, 67517, Note_on_c, 0, 53, 59
2, 67517, Note_on_c, 0, 56, 56
2, 67555, Control_c, 0, 64, 127
2, 67586, Note_on_c, 0, 53, 0
2, 67586, Note_on_c, 0, 60, 0
2, 67587, Note_on_c, 0, 76, 0
2, 67589, Note_on_c, 0, 68, 0
2, 67591, Note_on_c, 0, 64, 0
2, 67592, Note_on_c, 0, 72, 32
2, 67601, Note_on_c, 0, 72, 0
2, 67604, Note_on_c, 0, 56, 0
2, 67675, Note_on_c, 0, 81, 80
2, 67676, Control_c, 0, 64, 0
2, 67682, Note_on_c, 0, 78, 37
2, 67686, Note_on_c, 0, 77, 78
2, 67690, Note_on_c, 0, 62, 45
2, 67691, Note_on_c, 0, 78, 0
2, 67692, Note_on_c, 0, 52, 33
2, 67692, Note_on_c, 0, 59, 39
2, 67692, Note_on_c, 0, 55, 36
2, 67693, Note_on_c, 0, 74, 55
2, 67721, Note_on_c, 0, 69, 61
2, 67778, Control_c, 0, 64, 127
2, 67882, Note_on_c, 0, 55, 0
2, 67884, Note_on_c, 0, 52, 0
2, 67888, Note_on_c, 0, 77, 0
2, 67890, Note_on_c, 0, 59, 0
2, 67891, Note_on_c, 0, 81, 0
2, 67901, Note_on_c, 0, 74, 0
2, 67922, Note_on_c, 0, 62, 0
2, 67938, Note_on_c, 0, 69, 0
2, 68001, Note_on_c, 0, 74, 60
2, 68023, Note_on_c, 0, 74, 0
2, 68044, Control_c, 0, 64, 0
2, 68044, Note_on_c, 0, 74, 50
2, 68045, Note_on_c, 0, 60, 39
2, 68047, Note_on_c, 0, 67, 28
2, 68048, Note_on_c, 0, 62, 35
2, 68048, Note_on_c, 0, 64, 36
2, 68049, Note_on_c, 0, 71, 40
2, 68154, Control_c, 0, 64, 127
2, 68218, Note_on_c, 0, 74, 0
2, 68240, Note_on_c, 0, 76, 60
2, 68307, Note_on_c, 0, 62, 0
2, 68312, Note_on_c, 0, 64, 0
2, 68321, Note_on_c, 0, 60, 0
2, 68333, Note_on_c, 0, 71, 0
2, 68336, Note_on_c, 0, 76, 0
2, 68343, Note_on_c, 0, 67, 0
2, 68352, Note_on_c, 0, 72, 54
2, 68365, Note_on_c, 0, 72, 0
2, 68410, Control_c, 0, 64, 0
2, 68412, Note_on_c, 0, 74, 49
2, 68415, Note_on_c, 0, 69, 38
2, 68416, Note_on_c, 0, 62, 24
2, 68417, Note_on_c, 0, 67, 34
2, 68441, Note_on_c, 0, 62, 0
2, 68457, Note_on_c, 0, 67, 0
2, 68458, Control_c, 0, 64, 127
2, 68522, Note_on_c, 0, 69, 0
2, 68534, Note_on_c, 0, 74, 0
2, 68603, Note_on_c, 0, 88, 87
2, 68626, Note_on_c, 0, 88, 0
2, 68659, Note_on_c, 0, 80, 59
2, 68659, Note_on_c, 0, 83, 68
2, 68660, Note_on_c, 0, 76, 53
2, 68661, Note_on_c, 0, 64, 57
2, 68663, Note_on_c, 0, 54, 46
2, 68664, Control_c, 0, 64, 0
2, 68665, Note_on_c, 0, 60, 49
2, 68738, Control_c, 0, 64, 127
2, 68847, Note_on_c, 0, 83, 0
2, 68858, Note_on_c, 0, 80, 0
2, 68864, Note_on_c, 0, 76, 0
2, 68888, Note_on_c, 0, 60, 0
2, 68890, Note_on_c, 0, 54, 0
2, 68891, Note_on_c, 0, 64, 0
2, 68994, Control_c, 0, 64, 0
2, 68998, Note_on_c, 0, 76, 56
2, 69000, Note_on_c, 0, 64, 38
2, 69001, Note_on_c, 0, 71, 45
2, 69002, Note_on_c, 0, 60, 40
2, 69002, Note_on_c, 0, 54, 33
2, 69033, Control_c, 0, 64, 127
2, 69037, Note_on_c, 0, 76, 0
2, 69050, Note_on_c, 0, 71, 0
2, 69060, Note_on_c, 0, 54, 0
2, 69071, Note_on_c, 0, 60, 0
2, 69074, Note_on_c, 0, 64, 0
2, 69121, Note_on_c, 0, 79, 80
2, 69122, Control_c, 0, 64, 0
2, 69123, Note_on_c, 0, 76, 74
2, 69124, Note_on_c, 0, 67, 71
2, 69125, Note_on_c, 0, 60, 61
2, 69125, Note_on_c, 0, 55, 63
2, 69125, Note_on_c, 0, 64, 68
2, 69126, Note_on_c, 0, 72, 74
2, 69128, Note_on_c, 0, 57, 62
2, 69216, Control_c, 0, 64, 127
2, 69252, Note_on_c, 0, 64, 0
2, 69255, Note_on_c, 0, 67, 0
2, 69256, Note_on_c, 0, 57, 0
2, 69257, Note_on_c, 0, 55, 0
2, 69257, Note_on_c, 0, 72, 0
2, 69260, Note_on_c, 0, 60, 0
2, 69263, Note_on_c, 0, 76, 0
2, 69264, Note_on_c, 0, 79, 0
2, 69321, Note_on_c, 0, 79, 85
2, 69325, Note_on_c, 0, 76, 80
2, 69325, Note_on_c, 0, 64, 69
2, 69325, Control_c, 0, 64, 0
2, 69326, Note_on_c, 0, 55, 64
2, 69327, Note_on_c, 0, 60, 57
2, 69327, Note_on_c, 0, 72, 80
2, 69327, Note_on_c, 0, 67, 76
2, 69329, Note_on_c, 0, 57, 53
2, 69365, Control_c, 0, 64, 127
2, 69389, Note_on_c, 0, 76, 0
2, 69390, Note_on_c, 0, 79, 0
2, 69395, Note_on_c, 0, 60, 0
2, 69398, Note_on_c, 0, 67, 0
2, 69399, Note_on_c, 0, 64, 0
2, 69402, Note_on_c, 0, 72, 0
2, 69408, Note_on_c, 0, 57, 0
2, 69411, Note_on_c, 0, 55, 0
2, 69466, Control_c, 0, 64, 0
2, 69478, Note_on_c, 0, 78, 50
2, 69479, Note_on_c, 0, 66, 52
2, 69481, Note_on_c, 0, 59, 41
2, 69481, Note_on_c, 0, 64, 44
2, 69481, Note_on_c, 0, 75, 39
2, 69481, Note_on_c, 0, 72, 50
2, 69488, Note_on_c, 0, 53, 35
2, 69526, Note_on_c, 0, 72, 0
2, 69535, Note_on_c, 0, 75, 0
2, 69539, Note_on_c, 0, 53, 0
2, 69540, Note_on_c, 0, 64, 0
2, 69541, Note_on_c, 0, 78, 0
2, 69542, Note_on_c, 0, 66, 0
2, 69543, Note_on_c, 0, 59, 0
2, 69562, Note_on_c, 0, 64, 48
2, 69563, Note_on_c, 0, 67, 41
2, 69563, Note_on_c, 0, 75, 36
2, 69564, Note_on_c, 0, 72, 39
2, 69564, Note_on_c, 0, 79, 40
2, 69565, Note_on_c, 0, 59, 47
2, 69571, Note_on_c, 0, 64, 0
2, 69572, Note_on_c, 0, 67, 0
2, 69573, Note_on_c, 0, 72, 0
2, 69575, Note_on_c, 0, 59, 0
2, 69581, Note_on_c, 0, 75, 0
2, 69585, Note_on_c, 0, 79, 0
2, 69717, Control_c, 0, 64, 127
2, 69790, Note_on_c, 0, 80, 61
2, 69793, Note_on_c, 0, 71, 73
2, 69793, Note_on_c, 0, 76, 66
2, 69796, Note_on_c, 0, 59, 54
2, 69796, Note_on_c, 0, 83, 57
2, 69797, Note_on_c, 0, 64, 58
2, 69798, Note_on_c, 0, 56, 36
2, 69799, Note_on_c, 0, 53, 47
2, 69801, Note_on_c, 0, 71, 0
2, 69803, Note_on_c, 0, 76, 0
2, 69805, Note_on_c, 0, 80, 0
2, 69808, Note_on_c, 0, 53, 0
2, 69815, Note_on_c, 0, 56, 0
2, 69816, Note_on_c, 0, 59, 0
2, 69816, Note_on_c, 0, 64, 0
2, 69818, Note_on_c, 0, 83, 0
2, 69844, Control_c, 0, 64, 0
2, 69855, Note_on_c, 0, 60, 71
2, 69856, Note_on_c, 0, 64, 80
2, 69857, Note_on_c, 0, 88, 90
2, 69857, Note_on_c, 0, 57, 66
2, 69857, Note_on_c, 0, 76, 91
2, 69858, Note_on_c, 0, 53, 73
2, 69858, Note_on_c, 0, 81, 81
2, 69858, Note_on_c, 0, 84, 80
2, 69912, Note_on_c, 0, 53, 0
2, 69913, Note_on_c, 0, 88, 0
2, 69913, Note_on_c, 0, 76, 0
2, 69914, Note_on_c, 0, 64, 0
2, 69915, Note_on_c, 0, 81, 0
2, 69917, Note_on_c, 0, 57, 0
2, 69919, Note_on_c, 0, 60, 0
2, 69921, Note_on_c, 0, 84, 0
2, 69938, Note_on_c, 0, 88, 62
2, 69938, Note_on_c, 0, 53, 57
2, 69940, Note_on_c, 0, 76, 51
2, 69941, Note_on_c, 0, 81, 60
2, 69941, Note_on_c, 0, 64, 54
2, 69941, Note_on_c, 0, 57, 49
2, 69942, Note_on_c, 0, 84, 60
2, 69942, Note_on_c, 0, 60, 65
2, 69955, Note_on_c, 0, 76, 0
2, 69958, Note_on_c, 0, 81, 0
2, 69961, Note_on_c, 0, 64, 0
2, 69961, Note_on_c, 0, 84, 0
2, 69964, Note_on_c, 0, 88, 0
2, 69964, Note_on_c, 0, 60, 0
2, 69967, Note_on_c, 0, 57, 0
2, 69970, Note_on_c, 0, 53, 0
2, 70022, Note_on_c, 0, 64, 66
2, 70024, Note_on_c, 0, 88, 73
2, 70024, Note_on_c, 0, 60, 54
2, 70025, Note_on_c, 0, 76, 69
2, 70025, Note_on_c, 0, 84, 66
2, 70026, Note_on_c, 0, 57, 55
2, 70027, Note_on_c, 0, 81, 62
2, 70028, Note_on_c, 0, 53, 48
2, 70037, Note_on_c, 0, 81, 0
2, 70042, Note_on_c, 0, 76, 0
2, 70045, Note_on_c, 0, 84, 0
2, 70048, Note_on_c, 0, 88, 0
2, 70053, Note_on_c, 0, 60, 0
2, 70054, Note_on_c, 0, 64, 0
2, 70055, Note_on_c, 0, 53, 0
2, 70058, Note_on_c, 0, 57, 0
2, 70103, Note_on_c, 0, 88, 69
2, 70105, Note_on_c, 0, 64, 52
2, 70106, Note_on_c, 0, 76, 60
2, 70107, Note_on_c, 0, 81, 63
2, 70107, Note_on_c, 0, 53, 37
2, 70107, Note_on_c, 0, 60, 47
2, 70107, Note_on_c, 0, 57, 56
2, 70109, Note_on_c, 0, 84, 55
2, 70112, Control_c, 0, 64, 127
2, 70134, Note_on_c, 0, 84, 0
2, 70138, Note_on_c, 0, 88, 0
2, 70143, Note_on_c, 0, 81, 0
2, 70143, Note_on_c, 0, 76, 0
2, 70155, Note_on_c, 0, 53, 0
2, 70159, Note_on_c, 0, 64, 0
2, 70164, Note_on_c, 0, 60, 0
2, 70164, Note_on_c, 0, 57, 0
2, 70201, Control_c, 0, 64, 0
2, 70212, Note_on_c, 0, 83, 36
2, 70212, Note_on_c, 0, 59, 56
2, 70212, Note_on_c, 0, 77, 36
2, 70214, Note_on_c, 0, 64, 49
2, 70216, Note_on_c, 0, 71, 29
2, 70217, Note_on_c, 0, 76, 22
2, 70224, Note_on_c, 0, 64, 0
2, 70225, Note_on_c, 0, 76, 0
2, 70231, Note_on_c, 0, 71, 0
2, 70232, Note_on_c, 0, 59, 0
2, 70233, Note_on_c, 0, 77, 0
2, 70236, Note_on_c, 0, 83, 0
2, 70301, Note_on_c, 0, 75, 49
2, 70304, Note_on_c, 0, 81, 65
2, 70304, Note_on_c, 0, 69, 63
2, 70310, Note_on_c, 0, 64, 60
2, 70310, Note_on_c, 0, 59, 56
2, 70312, Note_on_c, 0, 57, 47
2, 70315, Note_on_c, 0, 53, 33
2, 70320, Note_on_c, 0, 75, 0
2, 70320, Note_on_c, 0, 76, 60
2, 70401, Control_c, 0, 64, 127
2, 70428, Control_c, 0, 64, 0
2, 70443, Note_on_c, 0, 81, 0
2, 70444, Note_on_c, 0, 69, 0
2, 70447, Control_c, 0, 64, 127
2, 70451, Note_on_c, 0, 76, 0
2, 70477, Note_on_c, 0, 64, 0
2, 70490, Note_on_c, 0, 57, 0
2, 70494, Note_on_c, 0, 59, 0
2, 70503, Note_on_c, 0, 83, 80
2, 70524, Note_on_c, 0, 53, 0
2, 70539, Note_on_c, 0, 83, 0
2, 70544, Note_on_c, 0, 79, 60
2, 70562, Control_c, 0, 64, 0
2, 70565, Note_on_c, 0, 79, 0
2, 70578, Note_on_c, 0, 59, 32
2, 70580, Note_on_c, 0, 62, 44
2, 70581, Note_on_c, 0, 52, 47
2, 70581, Note_on_c, 0, 55, 46
2, 70585, Note_on_c, 0, 84, 80
2, 70675, Control_c, 0, 64, 127
2, 70744, Note_on_c, 0, 84, 0
2, 70763, Note_on_c, 0, 52, 0
2, 70769, Note_on_c, 0, 55, 0
2, 70775, Note_on_c, 0, 59, 0
2, 70785, Note_on_c, 0, 62, 0
2, 70882, Note_on_c, 0, 79, 67
2, 70909, Note_on_c, 0, 79, 0
2, 70926, Control_c, 0, 64, 0
2, 70927, Note_on_c, 0, 61, 44
2, 70929, Note_on_c, 0, 75, 53
2, 70929, Note_on_c, 0, 65, 36
2, 70932, Note_on_c, 0, 55, 41
2, 70935, Note_on_c, 0, 60, 19
2, 70951, Note_on_c, 0, 75, 0
2, 70958, Note_on_c, 0, 77, 53
2, 70981, Note_on_c, 0, 75, 28
2, 70987, Note_on_c, 0, 77, 0
2, 71016, Note_on_c, 0, 74, 40
2, 71017, Note_on_c, 0, 75, 0
2, 71041, Note_on_c, 0, 74, 0
2, 71057, Note_on_c, 0, 75, 71
2, 71104, Control_c, 0, 64, 127
2, 71164, Note_on_c, 0, 65, 0
2, 71165, Note_on_c, 0, 72, 45
2, 71170, Note_on_c, 0, 60, 0
2, 71173, Note_on_c, 0, 75, 0
2, 71178, Note_on_c, 0, 61, 0
2, 71179, Note_on_c, 0, 55, 0
2, 71235, Note_on_c, 0, 72, 0
2, 71248, Note_on_c, 0, 80, 71
2, 71249, Note_on_c, 0, 65, 51
2, 71250, Note_on_c, 0, 54, 45
2, 71252, Note_on_c, 0, 60, 44
2, 71255, Control_c, 0, 64, 0
2, 71300, Note_on_c, 0, 80, 0
2, 71323, Note_on_c, 0, 75, 55
2, 71390, Note_on_c, 0, 75, 0
2, 71392, Control_c, 0, 64, 127
2, 71403, Note_on_c, 0, 72, 53
2, 71414, Note_on_c, 0, 72, 0
2, 71530, Note_on_c, 0, 65, 0
2, 71541, Note_on_c, 0, 60, 0
2, 71565, Note_on_c, 0, 54, 0
2, 71597, Note_on_c, 0, 68, 73
2, 71618, Note_on_c, 0, 68, 0
2, 71632, Control_c, 0, 64, 0
2, 71641, Note_on_c, 0, 59, 44
2, 71642, Note_on_c, 0, 64, 42
2, 71645, Note_on_c, 0, 67, 59
2, 71648, Note_on_c, 0, 53, 26
2, 71664, Note_on_c, 0, 67, 0
2, 71666, Note_on_c, 0, 68, 52
2, 71694, Note_on_c, 0, 67, 34
2, 71702, Note_on_c, 0, 68, 0
2, 71724, Note_on_c, 0, 67, 0
2, 71735, Note_on_c, 0, 65, 34
2, 71745, Note_on_c, 0, 65, 0
2, 71768, Note_on_c, 0, 64, 0
2, 71770, Note_on_c, 0, 67, 49
2, 71791, Note_on_c, 0, 67, 0
2, 71791, Note_on_c, 0, 68, 59
2, 71807, Note_on_c, 0, 59, 0
2, 71819, Note_on_c, 0, 67, 31
2, 71821, Note_on_c, 0, 68, 0
2, 71843, Note_on_c, 0, 67, 0
2, 71852, Note_on_c, 0, 65, 37
2, 71862, Note_on_c, 0, 59, 28
2, 71869, Note_on_c, 0, 65, 0
2, 71894, Note_on_c, 0, 67, 52
2, 71910, Note_on_c, 0, 67, 0
2, 71910, Note_on_c, 0, 59, 0
2, 71917, Note_on_c, 0, 68, 59
2, 71918, Note_on_c, 0, 53, 0
2, 71947, Note_on_c, 0, 67, 33
2, 71952, Note_on_c, 0, 68, 0
2, 71960, Control_c, 0, 64, 127
2, 71975, Note_on_c, 0, 67, 0
2, 71979, Note_on_c, 0, 65, 41
2, 72001, Note_on_c, 0, 65, 0
2, 72006, Control_c, 0, 64, 0
2, 72014, Note_on_c, 0, 62, 37
2, 72015, Note_on_c, 0, 59, 32
2, 72018, Note_on_c, 0, 52, 36
2, 72018, Note_on_c, 0, 72, 70
2, 72019, Note_on_c, 0, 55, 38
2, 72092, Note_on_c, 0, 62, 0
2, 72125, Note_on_c, 0, 62, 39
2, 72126, Control_c, 0, 64, 127
2, 72149, Note_on_c, 0, 59, 0
2, 72196, Note_on_c, 0, 62, 0
2, 72208, Note_on_c, 0, 59, 33
2, 72222, Note_on_c, 0, 55, 0
2, 72223, Note_on_c, 0, 72, 0
2, 72226, Note_on_c, 0, 52, 0
2, 72239, Note_on_c, 0, 59, 0
2, 72243, Note_on_c, 0, 67, 58
2, 72273, Note_on_c, 0, 67, 0
2, 72319, Note_on_c, 0, 72, 91
2, 72349, Note_on_c, 0, 72, 0
2, 72360, Control_c, 0, 64, 0
2, 72360, Note_on_c, 0, 64, 58
2, 72361, Note_on_c, 0, 59, 54
2, 72364, Note_on_c, 0, 53, 39
2, 72365, Note_on_c, 0, 71, 83
2, 72472, Note_on_c, 0, 71, 0
2, 72481, Note_on_c, 0, 72, 73
2, 72487, Control_c, 0, 64, 127
2, 72495, Note_on_c, 0, 71, 32
2, 72498, Note_on_c, 0, 64, 0
2, 72504, Note_on_c, 0, 71, 0
2, 72515, Note_on_c, 0, 72, 0
2, 72516, Note_on_c, 0, 59, 0
2, 72583, Control_c, 0, 64, 0
2, 72591, Note_on_c, 0, 76, 55
2, 72593, Note_on_c, 0, 71, 52
2, 72595, Note_on_c, 0, 65, 47
2, 72596, Note_on_c, 0, 68, 46
2, 72599, Note_on_c, 0, 64, 42
2, 72605, Control_c, 0, 64, 127
2, 72613, Note_on_c, 0, 65, 0
2, 72619, Note_on_c, 0, 68, 0
2, 72619, Note_on_c, 0, 71, 0
2, 72629, Note_on_c, 0, 76, 0
2, 72636, Note_on_c, 0, 53, 0
2, 72653, Note_on_c, 0, 64, 0
2, 72716, Control_c, 0, 64, 0
2, 72718, Note_on_c, 0, 71, 80
2, 72719, Note_on_c, 0, 81, 82
2, 72719, Note_on_c, 0, 74, 73
2, 72721, Note_on_c, 0, 76, 68
2, 72722, Note_on_c, 0, 64, 78
2, 72768, Control_c, 0, 64, 127
2, 72808, Note_on_c, 0, 81, 0
2, 72817, Note_on_c, 0, 76, 0
2, 72825, Note_on_c, 0, 74, 0
2, 72830, Note_on_c, 0, 71, 0
2, 72874, Note_on_c, 0, 64, 0
2, 72920, Note_on_c, 0, 76, 67
2, 72920, Note_on_c, 0, 67, 64
2, 72922, Note_on_c, 0, 69, 63
2, 72922, Note_on_c, 0, 72, 55
2, 72923, Note_on_c, 0, 60, 64
2, 72927, Control_c, 0, 64, 0
2, 72958, Control_c, 0, 64, 127
2, 72970, Note_on_c, 0, 60, 0
2, 72990, Note_on_c, 0, 76, 0
2, 72997, Note_on_c, 0, 72, 0
2, 73009, Note_on_c, 0, 67, 0
2, 73018, Note_on_c, 0, 69, 0
2, 73081, Control_c, 0, 64, 0
2, 73086, Note_on_c, 0, 70, 51
2, 73087, Note_on_c, 0, 57, 36
2, 73087, Note_on_c, 0, 62, 36
2, 73087, Note_on_c, 0, 65, 53
2, 73090, Note_on_c, 0, 58, 37
2, 73090, Note_on_c, 0, 74, 51
2, 73127, Control_c, 0, 64, 127
2, 73197, Note_on_c, 0, 57, 0
2, 73198, Note_on_c, 0, 65, 0
2, 73202, Note_on_c, 0, 62, 0
2, 73207, Note_on_c, 0, 74, 0
2, 73210, Note_on_c, 0, 58, 0
2, 73212, Note_on_c, 0, 70, 0
2, 73287, Note_on_c, 0, 76, 82
2, 73288, Note_on_c, 0, 69, 85
2, 73290, Note_on_c, 0, 54, 38
2, 73290, Note_on_c, 0, 64, 44
2, 73292, Note_on_c, 0, 60, 40
2, 73293, Control_c, 0, 64, 0
2, 73332, Control_c, 0, 64, 127
2, 73348, Note_on_c, 0, 60, 0
2, 73352, Note_on_c, 0, 64, 0
2, 73356, Note_on_c, 0, 76, 0
2, 73359, Note_on_c, 0, 72, 63
2, 73368, Note_on_c, 0, 69, 0
2, 73376, Note_on_c, 0, 54, 0
2, 73377, Note_on_c, 0, 72, 0
2, 73442, Control_c, 0, 64, 0
2, 73447, Note_on_c, 0, 83, 76
2, 73447, Note_on_c, 0, 76, 66
2, 73448, Note_on_c, 0, 64, 52
2, 73449, Note_on_c, 0, 71, 68
2, 73449, Note_on_c, 0, 61, 45
2, 73452, Note_on_c, 0, 57, 55
2, 73452, Note_on_c, 0, 54, 26
2, 73454, Note_on_c, 0, 80, 32
2, 73526, Control_c, 0, 64, 127
2, 73632, Note_on_c, 0, 64, 0
2, 73637, Note_on_c, 0, 57, 0
2, 73643, Note_on_c, 0, 83, 0
2, 73646, Note_on_c, 0, 61, 0
2, 73646, Note_on_c, 0, 76, 0
2, 73648, Note_on_c, 0, 80, 0
2, 73660, Note_on_c, 0, 71, 0
2, 73662, Note_on_c, 0, 54, 0
2, 73791, Control_c, 0, 64, 0
2, 73793, Note_on_c, 0, 65, 50
2, 73794, Note_on_c, 0, 60, 42
2, 73794, Note_on_c, 0, 69, 54
2, 73797, Note_on_c, 0, 51, 31
2, 73799, Note_on_c, 0, 47, 36
2, 73800, Note_on_c, 0, 57, 32
2, 73880, Control_c, 0, 64, 127
2, 73966, Note_on_c, 0, 60, 0
2, 74007, Note_on_c, 0, 57, 0
2, 74030, Note_on_c, 0, 51, 0
2, 74032, Note_on_c, 0, 65, 0
2, 74038, Note_on_c, 0, 60, 28
2, 74046, Note_on_c, 0, 69, 0
2, 74051, Note_on_c, 0, 60, 0
2, 74155, Control_c, 0, 64, 0
2, 74157, Note_on_c, 0, 59, 52
2, 74159, Note_on_c, 0, 68, 49
2, 74160, Note_on_c, 0, 56, 44
2, 74163, Note_on_c, 0, 63, 48
2, 74224, Note_on_c, 0, 56, 0
2, 74229, Note_on_c, 0, 47, 0
2, 74247, Note_on_c, 0, 47, 59
2, 74335, Control_c, 0, 64, 127
2, 74351, Note_on_c, 0, 59, 0
2, 74353, Note_on_c, 0, 63, 0
2, 74369, Control_c, 0, 64, 0
2, 74396, Note_on_c, 0, 63, 39
2, 74400, Note_on_c, 0, 59, 32
2, 74400, Control_c, 0, 64, 127
2, 74458, Note_on_c, 0, 59, 0
2, 74467, Note_on_c, 0, 63, 0
2, 74477, Note_on_c, 0, 56, 67
2, 74493, Control_c, 0, 64, 0
2, 74556, Control_c, 0, 64, 127
2, 74600, Control_c, 0, 64, 0
2, 74634, Note_on_c, 0, 59, 46
2, 74636, Note_on_c, 0, 64, 43
2, 74640, Control_c, 0, 64, 127
2, 74667, Note_on_c, 0, 56, 0
2, 74677, Note_on_c, 0, 47, 0
2, 74714, Note_on_c, 0, 47, 60
2, 74725, Note_on_c, 0, 59, 0
2, 74735, Control_c, 0, 64, 0
2, 74745, Note_on_c, 0, 47, 0
2, 74747, Control_c, 0, 64, 127
2, 74785, Note_on_c, 0, 64, 0
2, 74807, Note_on_c, 0, 68, 0
2, 74880, Control_c, 0, 64, 0
2, 75065, Note_on_c, 0, 64, 75
2, 75066, Note_on_c, 0, 68, 62
2, 75067, Note_on_c, 0, 61, 54
2, 75068, Note_on_c, 0, 71, 61
2, 75072, Note_on_c, 0, 59, 45
2, 75072, Note_on_c, 0, 57, 52
2, 75075, Note_on_c, 0, 64, 0
2, 75079, Note_on_c, 0, 71, 0
2, 75080, Note_on_c, 0, 61, 0
2, 75081, Note_on_c, 0, 68, 0
2, 75081, Note_on_c, 0, 59, 0
2, 75082, Note_on_c, 0, 57, 0
2, 75147, Note_on_c, 0, 61, 52
2, 75150, Note_on_c, 0, 68, 71
2, 75150, Note_on_c, 0, 71, 76
2, 75152, Note_on_c, 0, 64, 77
2, 75152, Note_on_c, 0, 59, 51
2, 75154, Control_c, 0, 64, 127
2, 75166, Note_on_c, 0, 59, 0
2, 75179, Note_on_c, 0, 61, 0
2, 75183, Note_on_c, 0, 64, 0
2, 75192, Note_on_c, 0, 71, 0
2, 75201, Note_on_c, 0, 68, 0
2, 75233, Control_c, 0, 64, 0
2, 75246, Note_on_c, 0, 57, 59
2, 75248, Note_on_c, 0, 47, 62
2, 75249, Note_on_c, 0, 71, 69
2, 75250, Note_on_c, 0, 62, 66
2, 75250, Note_on_c, 0, 67, 66
2, 75361, Control_c, 0, 64, 127
2, 75382, Note_on_c, 0, 62, 0
2, 75382, Note_on_c, 0, 57, 0
2, 75403, Note_on_c, 0, 71, 0
2, 75407, Note_on_c, 0, 67, 0
2, 75434, Note_on_c, 0, 69, 58
2, 75436, Note_on_c, 0, 65, 61
2, 75437, Note_on_c, 0, 60, 58
2, 75439, Control_c, 0, 64, 0
2, 75441, Note_on_c, 0, 57, 53
2, 75464, Note_on_c, 0, 60, 0
2, 75471, Note_on_c, 0, 57, 0
2, 75474, Note_on_c, 0, 65, 0
2, 75481, Control_c, 0, 64, 127
2, 75488, Note_on_c, 0, 69, 0
2, 75516, Note_on_c, 0, 71, 64
2, 75516, Note_on_c, 0, 62, 62
2, 75518, Note_on_c, 0, 57, 54
2, 75521, Note_on_c, 0, 67, 37
2, 75539, Note_on_c, 0, 67, 0
2, 75541, Note_on_c, 0, 57, 0
2, 75542, Note_on_c, 0, 62, 0
2, 75547, Note_on_c, 0, 71, 0
2, 75572, Note_on_c, 0, 47, 0
2, 75595, Control_c, 0, 64, 0
2, 75597, Note_on_c, 0, 68, 49
2, 75598, Note_on_c, 0, 59, 54
2, 75599, Note_on_c, 0, 63, 53
2, 75599, Note_on_c, 0, 47, 49
2, 75712, Control_c, 0, 64, 127
2, 75732, Note_on_c, 0, 59, 0
2, 75739, Note_on_c, 0, 63, 0
2, 75762, Note_on_c, 0, 68, 0
2, 75773, Note_on_c, 0, 47, 0
2, 75914, Note_on_c, 0, 56, 36
2, 75914, Note_on_c, 0, 58, 38
2, 75914, Note_on_c, 0, 61, 38
2, 75919, Note_on_c, 0, 51, 37
2, 75923, Control_c, 0, 64, 0
2, 75937, Note_on_c, 0, 61, 0
2, 75939, Note_on_c, 0, 56, 0
2, 75941, Note_on_c, 0, 58, 0
2, 75941, Note_on_c, 0, 51, 0
2, 75979, Note_on_c, 0, 61, 42
2, 75982, Note_on_c, 0, 58, 37
2, 75985, Note_on_c, 0, 51, 26
2, 75987, Note_on_c, 0, 56, 31
2, 76018, Note_on_c, 0, 51, 0
2, 76021, Note_on_c, 0, 56, 0
2, 76022, Note_on_c, 0, 61, 0
2, 76023, Note_on_c, 0, 58, 0
2, 76070, Note_on_c, 0, 61, 50
2, 76075, Note_on_c, 0, 51, 34
2, 76075, Note_on_c, 0, 58, 37
2, 76077, Note_on_c, 0, 56, 31
2, 76078, Control_c, 0, 64, 127
2, 76187, Note_on_c, 0, 51, 0
2, 76210, Note_on_c, 0, 61, 0
2, 76210, Note_on_c, 0, 56, 0
2, 76212, Note_on_c, 0, 58, 0
2, 76282, Note_on_c, 0, 67, 22
2, 76291, Note_on_c, 0, 67, 0
2, 76307, Control_c, 0, 64, 0
2, 76318, Note_on_c, 0, 70, 59
2, 76320, Note_on_c, 0, 67, 48
2, 76320, Note_on_c, 0, 60, 45
2, 76322, Note_on_c, 0, 63, 34
2, 76322, Note_on_c, 0, 53, 41
2, 76325, Note_on_c, 0, 56, 34
2, 76348, Control_c, 0, 64, 127
2, 76383, Note_on_c, 0, 67, 0
2, 76386, Note_on_c, 0, 53, 0
2, 76393, Note_on_c, 0, 70, 0
2, 76393, Note_on_c, 0, 60, 0
2, 76398, Note_on_c, 0, 63, 0
2, 76400, Note_on_c, 0, 56, 0
2, 76488, Note_on_c, 0, 63, 51
2, 76489, Note_on_c, 0, 60, 60
2, 76490, Note_on_c, 0, 94, 62
2, 76490, Note_on_c, 0, 67, 55
2, 76491, Note_on_c, 0, 82, 55
2, 76496, Note_on_c, 0, 91, 38
2, 76498, Note_on_c, 0, 94, 0
2, 76499, Note_on_c, 0, 82, 0
2, 76500, Note_on_c, 0, 67, 0
2, 76505, Note_on_c, 0, 91, 0
2, 76507, Note_on_c, 0, 63, 0
2, 76513, Note_on_c, 0, 60, 0
2, 76516, Control_c, 0, 64, 0
2, 76524, Note_on_c, 0, 94, 71
2, 76524, Note_on_c, 0, 82, 74
2, 76526, Note_on_c, 0, 87, 52
2, 76526, Note_on_c, 0, 63, 48
2, 76527, Note_on_c, 0, 67, 57
2, 76530, Note_on_c, 0, 60, 64
2, 76531, Note_on_c, 0, 91, 29
2, 76531, Note_on_c, 0, 56, 27
2, 76534, Note_on_c, 0, 87, 0
2, 76538, Note_on_c, 0, 82, 0
2, 76541, Note_on_c, 0, 56, 0
2, 76541, Note_on_c, 0, 94, 0
2, 76542, Note_on_c, 0, 91, 0
2, 76545, Note_on_c, 0, 67, 0
2, 76546, Note_on_c, 0, 63, 0
2, 76548, Note_on_c, 0, 60, 0
2, 76567, Note_on_c, 0, 94, 84
2, 76567, Note_on_c, 0, 67, 71
2, 76568, Note_on_c, 0, 63, 63
2, 76568, Note_on_c, 0, 82, 92
2, 76570, Note_on_c, 0, 60, 82
2, 76570, Note_on_c, 0, 56, 71
2, 76570, Note_on_c, 0, 87, 83
2, 76571, Note_on_c, 0, 91, 77
2, 76588, Control_c, 0, 64, 127
2, 76626, Note_on_c, 0, 87, 0
2, 76628, Note_on_c, 0, 82, 0
2, 76631, Note_on_c, 0, 91, 0
2, 76632, Note_on_c, 0, 67, 0
2, 76632, Note_on_c, 0, 63, 0
2, 76632, Note_on_c, 0, 94, 0
2, 76633, Note_on_c, 0, 56, 0
2, 76636, Note_on_c, 0, 60, 0
2, 76639, Control_c, 0, 64, 0
2, 76721, Note_on_c, 0, 94, 76
2, 76721, Note_on_c, 0, 82, 79
2, 76723, Note_on_c, 0, 67, 78
2, 76725, Note_on_c, 0, 56, 57
2, 76725, Note_on_c, 0, 89, 69
2, 76726, Note_on_c, 0, 62, 66
2, 76726, Note_on_c, 0, 60, 58
2, 76745, Note_on_c, 0, 89, 0
2, 76745, Note_on_c, 0, 82, 0
2, 76752, Note_on_c, 0, 94, 0
2, 76752, Note_on_c, 0, 67, 0
2, 76753, Note_on_c, 0, 60, 0
2, 76756, Note_on_c, 0, 56, 0
2, 76757, Note_on_c, 0, 62, 0
2, 76791, Control_c, 0, 64, 127
2, 76800, Note_on_c, 0, 67, 75
2, 76801, Note_on_c, 0, 94, 84
2, 76801, Note_on_c, 0, 62, 66
2, 76801, Note_on_c, 0, 56, 68
2, 76802, Note_on_c, 0, 82, 87
2, 76804, Note_on_c, 0, 60, 68
2, 76804, Note_on_c, 0, 89, 82
2, 76870, Note_on_c, 0, 94, 0
2, 76871, Note_on_c, 0, 67, 0
2, 76874, Note_on_c, 0, 89, 0
2, 76875, Note_on_c, 0, 60, 0
2, 76877, Note_on_c, 0, 56, 0
2, 76878, Note_on_c, 0, 82, 0
2, 76888, Note_on_c, 0, 62, 0
2, 76907, Control_c, 0, 64, 0
2, 76915, Note_on_c, 0, 92, 60
2, 76916, Note_on_c, 0, 80, 52
2, 76918, Note_on_c, 0, 87, 62
2, 76920, Note_on_c, 0, 62, 43
2, 76921, Note_on_c, 0, 56, 49
2, 76921, Note_on_c, 0, 66, 52
2, 76933, Control_c, 0, 64, 127
2, 76956, Note_on_c, 0, 92, 0
2, 76962, Note_on_c, 0, 62, 0
2, 76962, Note_on_c, 0, 66, 0
2, 76966, Note_on_c, 0, 87, 0
2, 76968, Note_on_c, 0, 80, 0
2, 76978, Note_on_c, 0, 56, 0
2, 77002, Note_on_c, 0, 62, 38
2, 77002, Note_on_c, 0, 65, 53
2, 77002, Note_on_c, 0, 91, 62
2, 77004, Note_on_c, 0, 86, 59
2, 77004, Note_on_c, 0, 79, 51
2, 77005, Note_on_c, 0, 55, 57
2, 77006, Note_on_c, 0, 60, 47
2, 77007, Control_c, 0, 64, 0
2, 77046, Control_c, 0, 64, 127
2, 77082, Note_on_c, 0, 86, 0
2, 77082, Note_on_c, 0, 91, 0
2, 77105, Note_on_c, 0, 79, 0
2, 77238, Note_on_c, 0, 84, 92
2, 77268, Note_on_c, 0, 84, 0
2, 77277, Control_c, 0, 64, 0
2, 77284, Note_on_c, 0, 82, 50
2, 77297, Note_on_c, 0, 65, 0
2, 77301, Note_on_c, 0, 82, 0
2, 77303, Note_on_c, 0, 62, 0
2, 77323, Note_on_c, 0, 84, 85
2, 77328, Note_on_c, 0, 60, 0
2, 77347, Control_c, 0, 64, 127
2, 77363, Note_on_c, 0, 82, 65
2, 77364, Control_c, 0, 64, 0
2, 77373, Note_on_c, 0, 84, 0
2, 77396, Note_on_c, 0, 62, 36
2, 77396, Note_on_c, 0, 60, 40
2, 77398, Note_on_c, 0, 65, 41
2, 77400, Note_on_c, 0, 79, 62
2, 77404, Note_on_c, 0, 82, 0
2, 77410, Control_c, 0, 64, 127
2, 77533, Note_on_c, 0, 60, 0
2, 77538, Note_on_c, 0, 65, 0
2, 77546, Note_on_c, 0, 62, 0
2, 77551, Note_on_c, 0, 55, 0
2, 77587, Note_on_c, 0, 79, 0
2, 77587, Note_on_c, 0, 74, 64
2, 77592, Note_on_c, 0, 62, 31
2, 77592, Note_on_c, 0, 60, 44
2, 77592, Note_on_c, 0, 55, 36
2, 77593, Note_on_c, 0, 65, 33
2, 77596, Control_c, 0, 64, 0
2, 77628, Control_c, 0, 64, 127
2, 77650, Note_on_c, 0, 65, 0
2, 77657, Note_on_c, 0, 55, 0
2, 77658, Note_on_c, 0, 62, 0
2, 77665, Note_on_c, 0, 60, 0
2, 77692, Note_on_c, 0, 74, 0
2, 77758, Note_on_c, 0, 73, 79
2, 77759, Control_c, 0, 64, 0
2, 77760, Note_on_c, 0, 66, 51
2, 77761, Note_on_c, 0, 61, 56
2, 77763, Note_on_c, 0, 55, 58
2, 77857, Control_c, 0, 64, 127
2, 77868, Note_on_c, 0, 55, 0
2, 77872, Note_on_c, 0, 66, 0
2, 77876, Note_on_c, 0, 73, 0
2, 77900, Note_on_c, 0, 61, 0
2, 77957, Note_on_c, 0, 85, 78
2, 77958, Note_on_c, 0, 73, 77
2, 77959, Note_on_c, 0, 66, 70
2, 77960, Note_on_c, 0, 61, 62
2, 77963, Note_on_c, 0, 55, 64
2, 77967, Control_c, 0, 64, 0
2, 78006, Control_c, 0, 64, 127
2, 78031, Note_on_c, 0, 55, 0
2, 78047, Note_on_c, 0, 73, 0
2, 78048, Note_on_c, 0, 85, 0
2, 78048, Note_on_c, 0, 66, 0
2, 78051, Note_on_c, 0, 61, 0
2, 78121, Control_c, 0, 64, 0
2, 78122, Note_on_c, 0, 84, 90
2, 78126, Note_on_c, 0, 61, 63
2, 78127, Note_on_c, 0, 65, 72
2, 78127, Note_on_c, 0, 81, 82
2, 78127, Note_on_c, 0, 60, 58
2, 78128, Note_on_c, 0, 77, 87
2, 78129, Note_on_c, 0, 55, 62
2, 78132, Note_on_c, 0, 72, 69
2, 78140, Note_on_c, 0, 72, 0
2, 78152, Note_on_c, 0, 72, 18
2, 78216, Control_c, 0, 64, 127
2, 78255, Note_on_c, 0, 60, 0
2, 78267, Note_on_c, 0, 72, 0
2, 78267, Note_on_c, 0, 55, 0
2, 78276, Note_on_c, 0, 65, 0
2, 78277, Note_on_c, 0, 77, 0
2, 78283, Note_on_c, 0, 61, 0
2, 78286, Note_on_c, 0, 81, 0
2, 78314, Note_on_c, 0, 84, 0
2, 78318, Note_on_c, 0, 65, 56
2, 78318, Note_on_c, 0, 61, 37
2, 78319, Note_on_c, 0, 60, 59
2, 78320, Note_on_c, 0, 55, 48
2, 78336, Control_c, 0, 64, 0
2, 78363, Control_c, 0, 64, 127
2, 78393, Note_on_c, 0, 65, 0
2, 78396, Note_on_c, 0, 60, 0
2, 78400, Note_on_c, 0, 55, 0
2, 78409, Note_on_c, 0, 61, 0
2, 78415, Note_on_c, 0, 83, 64
2, 78430, Note_on_c, 0, 83, 0
2, 78450, Note_on_c, 0, 84, 74
2, 78479, Note_on_c, 0, 84, 0
2, 78489, Note_on_c, 0, 64, 46
2, 78490, Note_on_c, 0, 61, 34
2, 78490, Control_c, 0, 64, 0
2, 78493, Note_on_c, 0, 57, 43
2, 78494, Note_on_c, 0, 81, 64
2, 78496, Note_on_c, 0, 54, 20
2, 78591, Control_c, 0, 64, 127
2, 78595, Note_on_c, 0, 57, 0
2, 78614, Note_on_c, 0, 54, 0
2, 78623, Note_on_c, 0, 64, 0
2, 78648, Note_on_c, 0, 61, 0
2, 78657, Note_on_c, 0, 81, 0
2, 78683, Note_on_c, 0, 78, 55
2, 78685, Note_on_c, 0, 61, 33
2, 78687, Note_on_c, 0, 64, 32
2, 78689, Note_on_c, 0, 54, 25
2, 78690, Note_on_c, 0, 57, 45
2, 78705, Control_c, 0, 64, 0
2, 78726, Control_c, 0, 64, 127
2, 78779, Note_on_c, 0, 64, 0
2, 78782, Note_on_c, 0, 57, 0
2, 78798, Note_on_c, 0, 61, 0
2, 78839, Control_c, 0, 64, 0
2, 78845, Note_on_c, 0, 61, 33
2, 78848, Note_on_c, 0, 69, 38
2, 78851, Note_on_c, 0, 64, 33
2, 78852, Note_on_c, 0, 57, 37
2, 78880, Control_c, 0, 64, 127
2, 78924, Note_on_c, 0, 78, 0
2, 78956, Note_on_c, 0, 69, 0
2, 78962, Note_on_c, 0, 64, 0
2, 78971, Note_on_c, 0, 54, 0
2, 78977, Note_on_c, 0, 57, 0
2, 78988, Note_on_c, 0, 61, 0
2, 79204, Control_c, 0, 64, 0
2, 79208, Note_on_c, 0, 63, 60
2, 79209, Note_on_c, 0, 55, 60
2, 79210, Note_on_c, 0, 71, 66
2, 79212, Note_on_c, 0, 66, 55
2, 79256, Control_c, 0, 64, 127
2, 79460, Note_on_c, 0, 71, 0
2, 79494, Note_on_c, 0, 63, 0
2, 79557, Note_on_c, 0, 66, 0
2, 79569, Note_on_c, 0, 61, 81
2, 79570, Note_on_c, 0, 65, 80
2, 79572, Note_on_c, 0, 69, 80
2, 79573, Note_on_c, 0, 53, 75
2, 79573, Control_c, 0, 64, 0
2, 79576, Note_on_c, 0, 55, 0
2, 79677, Control_c, 0, 64, 127
2, 79810, Note_on_c, 0, 69, 0
2, 79810, Note_on_c, 0, 53, 0
2, 79817, Note_on_c, 0, 65, 0
2, 79827, Note_on_c, 0, 61, 0
2, 79935, Note_on_c, 0, 67, 83
2, 79936, Note_on_c, 0, 39, 61
2, 79937, Note_on_c, 0, 51, 77
2, 79937, Note_on_c, 0, 62, 87
2, 79937, Note_on_c, 0, 59, 88
2, 79939, Control_c, 0, 64, 0
2, 80038, Control_c, 0, 64, 127
2, 80175, Note_on_c, 0, 62, 0
2, 80177, Note_on_c, 0, 51, 0
2, 80182, Note_on_c, 0, 67, 0
2, 80189, Note_on_c, 0, 39, 0
2, 80200, Note_on_c, 0, 59, 0
2, 80287, Note_on_c, 0, 65, 48
2, 80288, Control_c, 0, 64, 0
2, 80289, Note_on_c, 0, 37, 33
2, 80291, Note_on_c, 0, 57, 37
2, 80292, Note_on_c, 0, 60, 50
2, 80293, Note_on_c, 0, 49, 25
2, 80406, Control_c, 0, 64, 127
2, 80463, Note_on_c, 0, 65, 0
2, 80479, Note_on_c, 0, 37, 0
2, 80480, Note_on_c, 0, 64, 48
2, 80491, Note_on_c, 0, 49, 0
2, 80497, Note_on_c, 0, 60, 0
2, 80498, Note_on_c, 0, 57, 0
2, 80511, Control_c, 0, 64, 0
2, 80517, Note_on_c, 0, 64, 0
2, 80520, Note_on_c, 0, 62, 47
2, 80521, Control_c, 0, 64, 127
2, 80637, Note_on_c, 0, 62, 0
2, 80643, Note_on_c, 0, 60, 54
2, 80644, Control_c, 0, 64, 0
2, 80644, Note_on_c, 0, 48, 44
2, 80645, Note_on_c, 0, 55, 29
2, 80721, Control_c, 0, 64, 127
2, 80728, Note_on_c, 0, 48, 0
2, 80736, Note_on_c, 0, 60, 0
2, 80737, Note_on_c, 0, 55, 0
2, 80869, Note_on_c, 0, 64, 41
2, 80875, Note_on_c, 0, 60, 37
2, 80876, Note_on_c, 0, 59, 37
2, 80962, Note_on_c, 0, 60, 0
2, 80964, Note_on_c, 0, 72, 99
2, 80965, Note_on_c, 0, 59, 0
2, 80965, Note_on_c, 0, 64, 0
2, 80983, Control_c, 0, 64, 0
2, 81004, Note_on_c, 0, 72, 0
2, 81008, Note_on_c, 0, 55, 54
2, 81009, Note_on_c, 0, 60, 53
2, 81009, Note_on_c, 0, 65, 51
2, 81011, Note_on_c, 0, 57, 36
2, 81013, Note_on_c, 0, 71, 68
2, 81115, Control_c, 0, 64, 127
2, 81165, Note_on_c, 0, 71, 0
2, 81195, Note_on_c, 0, 72, 74
2, 81196, Note_on_c, 0, 65, 0
2, 81209, Note_on_c, 0, 60, 0
2, 81211, Note_on_c, 0, 57, 0
2, 81233, Note_on_c, 0, 72, 0
2, 81284, Note_on_c, 0, 81, 81
2, 81345, Note_on_c, 0, 81, 0
2, 81361, Control_c, 0, 64, 0
2, 81364, Note_on_c, 0, 67, 32
2, 81364, Note_on_c, 0, 62, 42
2, 81364, Note_on_c, 0, 81, 60
2, 81366, Note_on_c, 0, 64, 47
2, 81421, Control_c, 0, 64, 127
2, 81424, Note_on_c, 0, 67, 0
2, 81439, Note_on_c, 0, 55, 0
2, 81457, Note_on_c, 0, 55, 47
2, 81480, Note_on_c, 0, 81, 0
2, 81581, Note_on_c, 0, 64, 0
2, 81581, Note_on_c, 0, 62, 0
2, 81598, Note_on_c, 0, 55, 0
2, 81674, Note_on_c, 0, 76, 87
2, 81703, Note_on_c, 0, 76, 0
2, 81717, Control_c, 0, 64, 0
2, 81720, Note_on_c, 0, 74, 64
2, 81721, Note_on_c, 0, 56, 39
2, 81722, Note_on_c, 0, 68, 71
2, 81723, Note_on_c, 0, 65, 74
2, 81724, Note_on_c, 0, 60, 48
2, 81725, Note_on_c, 0, 64, 42
2, 81727, Note_on_c, 0, 53, 49
2, 81828, Control_c, 0, 64, 127
2, 81865, Note_on_c, 0, 64, 0
2, 81866, Note_on_c, 0, 60, 0
2, 81881, Note_on_c, 0, 65, 0
2, 81895, Note_on_c, 0, 74, 0
2, 81904, Note_on_c, 0, 68, 0
2, 81914, Note_on_c, 0, 76, 81
2, 81915, Note_on_c, 0, 68, 45
2, 81918, Note_on_c, 0, 64, 59
2, 81919, Note_on_c, 0, 60, 50
2, 81920, Note_on_c, 0, 65, 50
2, 81922, Note_on_c, 0, 74, 31
2, 81924, Control_c, 0, 64, 0
2, 81943, Control_c, 0, 64, 127
2, 81953, Note_on_c, 0, 74, 0
2, 81963, Note_on_c, 0, 65, 0
2, 81965, Note_on_c, 0, 53, 0
2, 81973, Note_on_c, 0, 68, 0
2, 81978, Note_on_c, 0, 76, 0
2, 81992, Note_on_c, 0, 56, 0
2, 82004, Note_on_c, 0, 56, 14
2, 82005, Note_on_c, 0, 72, 41
2, 82006, Note_on_c, 0, 53, 54
2, 82016, Note_on_c, 0, 72, 0
2, 82028, Note_on_c, 0, 60, 0
2, 82033, Note_on_c, 0, 64, 0
2, 82042, Note_on_c, 0, 53, 0
2, 82056, Note_on_c, 0, 56, 0
2, 82084, Note_on_c, 0, 52, 46
2, 82084, Note_on_c, 0, 62, 42
2, 82084, Note_on_c, 0, 59, 37
2, 82085, Note_on_c, 0, 81, 63
2, 82085, Control_c, 0, 64, 0
2, 82087, Note_on_c, 0, 69, 51
2, 82088, Note_on_c, 0, 55, 50
2, 82088, Note_on_c, 0, 74, 49
2, 82162, Control_c, 0, 64, 127
2, 82192, Note_on_c, 0, 62, 0
2, 82210, Note_on_c, 0, 69, 0
2, 82212, Note_on_c, 0, 74, 0
2, 82221, Note_on_c, 0, 55, 0
2, 82222, Note_on_c, 0, 59, 0
2, 82236, Note_on_c, 0, 81, 0
2, 82254, Note_on_c, 0, 52, 0
2, 82273, Note_on_c, 0, 52, 19
2, 82275, Note_on_c, 0, 76, 74
2, 82277, Note_on_c, 0, 59, 57
2, 82277, Note_on_c, 0, 69, 67
2, 82281, Note_on_c, 0, 55, 53
2, 82281, Note_on_c, 0, 62, 60
2, 82284, Control_c, 0, 64, 0
2, 82314, Control_c, 0, 64, 127
2, 82325, Note_on_c, 0, 55, 0
2, 82328, Note_on_c, 0, 52, 0
2, 82331, Note_on_c, 0, 76, 0
2, 82333, Note_on_c, 0, 59, 0
2, 82343, Note_on_c, 0, 62, 0
2, 82344, Note_on_c, 0, 69, 0
2, 82438, Control_c, 0, 64, 0
2, 82440, Note_on_c, 0, 64, 47
2, 82442, Note_on_c, 0, 59, 44
2, 82443, Note_on_c, 0, 74, 48
2, 82444, Note_on_c, 0, 67, 38
2, 82446, Note_on_c, 0, 60, 37
2, 82446, Note_on_c, 0, 71, 50
2, 82448, Note_on_c, 0, 55, 34
2, 82455, Note_on_c, 0, 60, 0
2, 82463, Note_on_c, 0, 67, 0
2, 82464, Note_on_c, 0, 71, 0
2, 82466, Note_on_c, 0, 59, 0
2, 82466, Note_on_c, 0, 64, 0
2, 82467, Note_on_c, 0, 55, 0
2, 82474, Note_on_c, 0, 74, 0
2, 82563, Note_on_c, 0, 64, 42
2, 82564, Note_on_c, 0, 59, 45
2, 82566, Note_on_c, 0, 67, 49
2, 82566, Note_on_c, 0, 76, 50
2, 82567, Note_on_c, 0, 55, 42
2, 82567, Note_on_c, 0, 72, 45
2, 82568, Note_on_c, 0, 60, 38
2, 82576, Note_on_c, 0, 60, 0
2, 82585, Note_on_c, 0, 64, 0
2, 82585, Note_on_c, 0, 67, 0
2, 82590, Note_on_c, 0, 59, 0
2, 82590, Note_on_c, 0, 72, 0
2, 82594, Note_on_c, 0, 76, 0
2, 82594, Note_on_c, 0, 55, 0
2, 82687, Control_c, 0, 64, 127
2, 82762, Note_on_c, 0, 67, 27
2, 82763, Note_on_c, 0, 71, 41
2, 82765, Note_on_c, 0, 55, 35
2, 82765, Note_on_c, 0, 64, 30
2, 82776, Note_on_c, 0, 67, 0
2, 82777, Note_on_c, 0, 64, 0
2, 82777, Note_on_c, 0, 55, 0
2, 82786, Note_on_c, 0, 71, 0
2, 82804, Control_c, 0, 64, 0
2, 82814, Note_on_c, 0, 60, 40
2, 82817, Note_on_c, 0, 69, 35
2, 82818, Note_on_c, 0, 72, 43
2, 82820, Note_on_c, 0, 54, 35
2, 82820, Note_on_c, 0, 64, 28
2, 82825, Note_on_c, 0, 65, 19
2, 82833, Note_on_c, 0, 65, 0
2, 82901, Control_c, 0, 64, 127
2, 82942, Note_on_c, 0, 60, 0
2, 83003, Note_on_c, 0, 64, 0
2, 83022, Note_on_c, 0, 69, 0
2, 83038, Note_on_c, 0, 64, 19
2, 83046, Note_on_c, 0, 64, 0
2, 83085, Note_on_c, 0, 54, 0
2, 83149, Note_on_c, 0, 60, 42
2, 83149, Note_on_c, 0, 54, 49
2, 83151, Control_c, 0, 64, 0
2, 83151, Note_on_c, 0, 65, 36
2, 83242, Control_c, 0, 64, 127
2, 83254, Note_on_c, 0, 65, 0
2, 83258, Note_on_c, 0, 60, 0
2, 83288, Note_on_c, 0, 54, 0
2, 83326, Note_on_c, 0, 72, 0
2, 83354, Note_on_c, 0, 54, 37
2, 83394, Note_on_c, 0, 54, 0
2, 83516, Note_on_c, 0, 79, 69
2, 83516, Control_c, 0, 64, 0
2, 83518, Note_on_c, 0, 64, 28
2, 83518, Note_on_c, 0, 55, 33
2, 83523, Note_on_c, 0, 60, 28
2, 83534, Note_on_c, 0, 79, 0
2, 83555, Note_on_c, 0, 79, 47
2, 83584, Note_on_c, 0, 79, 0
2, 83599, Note_on_c, 0, 67, 43
2, 83630, Note_on_c, 0, 67, 0
2, 83709, Control_c, 0, 64, 127
2, 83733, Control_c, 0, 64, 0
2, 83778, Note_on_c, 0, 67, 35
2, 83783, Control_c, 0, 64, 127
2, 83816, Note_on_c, 0, 67, 0
2, 83850, Note_on_c, 0, 67, 44
2, 83853, Note_on_c, 0, 64, 0
2, 83855, Note_on_c, 0, 60, 0
2, 83855, Note_on_c, 0, 55, 0
2, 83871, Note_on_c, 0, 67, 0
2, 83890, Control_c, 0, 64, 0
2, 83894, Note_on_c, 0, 76, 89
2, 83895, Note_on_c, 0, 64, 51
2, 83896, Note_on_c, 0, 60, 57
2, 83897, Note_on_c, 0, 55, 46
2, 83938, Control_c, 0, 64, 127
2, 84020, Note_on_c, 0, 60, 0
2, 84026, Note_on_c, 0, 64, 0
2, 84088, Note_on_c, 0, 72, 51
2, 84090, Note_on_c, 0, 64, 35
2, 84093, Note_on_c, 0, 60, 35
2, 84094, Control_c, 0, 64, 0
2, 84116, Control_c, 0, 64, 127
2, 84153, Note_on_c, 0, 55, 0
2, 84176, Note_on_c, 0, 72, 0
2, 84178, Note_on_c, 0, 67, 36
2, 84179, Note_on_c, 0, 76, 0
2, 84188, Note_on_c, 0, 64, 0
2, 84193, Note_on_c, 0, 60, 0
2, 84223, Note_on_c, 0, 67, 0
2, 84244, Note_on_c, 0, 65, 50
2, 84246, Control_c, 0, 64, 0
2, 84251, Note_on_c, 0, 57, 38
2, 84251, Note_on_c, 0, 60, 38
2, 84252, Note_on_c, 0, 55, 32
2, 84313, Control_c, 0, 64, 127
2, 84348, Note_on_c, 0, 65, 0
2, 84360, Note_on_c, 0, 57, 0
2, 84362, Note_on_c, 0, 60, 0
2, 84376, Note_on_c, 0, 55, 0
2, 84434, Note_on_c, 0, 55, 37
2, 84434, Note_on_c, 0, 60, 40
2, 84436, Note_on_c, 0, 65, 35
2, 84441, Note_on_c, 0, 57, 29
2, 84481, Note_on_c, 0, 65, 0
2, 84482, Note_on_c, 0, 60, 0
2, 84484, Note_on_c, 0, 57, 0
2, 84562, Note_on_c, 0, 77, 30
2, 84572, Note_on_c, 0, 77, 0
2, 84608, Note_on_c, 0, 86, 88
2, 84616, Control_c, 0, 64, 0
2, 84640, Control_c, 0, 64, 127
2, 84647, Note_on_c, 0, 86, 0
2, 84648, Note_on_c, 0, 55, 0
2, 84675, Note_on_c, 0, 55, 54
2, 84676, Note_on_c, 0, 86, 88
2, 84686, Control_c, 0, 64, 0
2, 84725, Note_on_c, 0, 81, 46
2, 84736, Note_on_c, 0, 82, 49
2, 84747, Note_on_c, 0, 86, 0
2, 84751, Note_on_c, 0, 81, 0
2, 84762, Note_on_c, 0, 82, 0
2, 84768, Control_c, 0, 64, 127
2, 84769, Note_on_c, 0, 83, 32
2, 84782, Note_on_c, 0, 83, 0
2, 84783, Note_on_c, 0, 55, 0
2, 84803, Note_on_c, 0, 86, 77
2, 84809, Note_on_c, 0, 55, 58
2, 84809, Note_on_c, 0, 83, 59
2, 84824, Note_on_c, 0, 83, 0
2, 84831, Note_on_c, 0, 86, 0
2, 84833, Control_c, 0, 64, 0
2, 84856, Note_on_c, 0, 86, 31
2, 84856, Note_on_c, 0, 79, 40
2, 84871, Control_c, 0, 64, 127
2, 84880, Note_on_c, 0, 86, 0
2, 84916, Note_on_c, 0, 79, 0
2, 84928, Note_on_c, 0, 76, 36
2, 84940, Note_on_c, 0, 76, 0
2, 84965, Control_c, 0, 64, 0
2, 84967, Note_on_c, 0, 76, 44
2, 84969, Note_on_c, 0, 62, 31
2, 84970, Note_on_c, 0, 64, 36
2, 84971, Note_on_c, 0, 67, 30
2, 85029, Note_on_c, 0, 67, 0
2, 85037, Note_on_c, 0, 55, 0
2, 85056, Note_on_c, 0, 55, 63
2, 85094, Control_c, 0, 64, 127
2, 85154, Note_on_c, 0, 76, 0
2, 85212, Note_on_c, 0, 55, 0
2, 85273, Note_on_c, 0, 62, 0
2, 85273, Note_on_c, 0, 55, 58
2, 85277, Note_on_c, 0, 64, 0
2, 85277, Note_on_c, 0, 76, 62
2, 85298, Note_on_c, 0, 76, 0
2, 85326, Control_c, 0, 64, 0
2, 85336, Note_on_c, 0, 84, 88
2, 85337, Note_on_c, 0, 76, 78
2, 85338, Note_on_c, 0, 64, 67
2, 85339, Note_on_c, 0, 72, 71
2, 85343, Note_on_c, 0, 60, 49
2, 85367, Control_c, 0, 64, 127
2, 85394, Note_on_c, 0, 55, 0
2, 85418, Note_on_c, 0, 84, 0
2, 85427, Note_on_c, 0, 55, 54
2, 85428, Note_on_c, 0, 76, 0
2, 85436, Note_on_c, 0, 72, 0
2, 85470, Note_on_c, 0, 64, 0
2, 85516, Note_on_c, 0, 79, 69
2, 85521, Note_on_c, 0, 64, 47
2, 85522, Note_on_c, 0, 67, 54
2, 85523, Note_on_c, 0, 72, 41
2, 85526, Control_c, 0, 64, 0
2, 85550, Note_on_c, 0, 72, 0
2, 85557, Control_c, 0, 64, 127
2, 85566, Note_on_c, 0, 55, 0
2, 85570, Note_on_c, 0, 67, 0
2, 85580, Note_on_c, 0, 79, 0
2, 85598, Note_on_c, 0, 76, 71
2, 85613, Note_on_c, 0, 55, 31
2, 85620, Note_on_c, 0, 76, 0
2, 85630, Note_on_c, 0, 55, 0
2, 85644, Note_on_c, 0, 64, 0
2, 85649, Note_on_c, 0, 60, 0
2, 85689, Control_c, 0, 64, 0
2, 85691, Note_on_c, 0, 62, 42
2, 85692, Note_on_c, 0, 74, 51
2, 85692, Note_on_c, 0, 65, 53
2, 85694, Note_on_c, 0, 69, 58
2, 85694, Note_on_c, 0, 72, 53
2, 85726, Control_c, 0, 64, 127
2, 85754, Note_on_c, 0, 65, 0
2, 85757, Note_on_c, 0, 69, 0
2, 85763, Note_on_c, 0, 72, 0
2, 85769, Note_on_c, 0, 74, 0
2, 85778, Note_on_c, 0, 62, 0
2, 85876, Note_on_c, 0, 84, 91
2, 85876, Note_on_c, 0, 80, 71
2, 85877, Note_on_c, 0, 77, 79
2, 85878, Note_on_c, 0, 72, 83
2, 85879, Note_on_c, 0, 65, 76
2, 85879, Note_on_c, 0, 60, 69
2, 85881, Note_on_c, 0, 58, 62
2, 85882, Note_on_c, 0, 54, 64
2, 85887, Control_c, 0, 64, 0
2, 85923, Control_c, 0, 64, 127
2, 85953, Note_on_c, 0, 60, 0
2, 85955, Note_on_c, 0, 84, 0
2, 85965, Note_on_c, 0, 65, 0
2, 85965, Note_on_c, 0, 77, 0
2, 85966, Note_on_c, 0, 72, 0
2, 85974, Note_on_c, 0, 80, 0
2, 85992, Note_on_c, 0, 58, 0
2, 85997, Note_on_c, 0, 54, 0
2, 86025, Control_c, 0, 64, 0
2, 86033, Note_on_c, 0, 83, 78
2, 86034, Note_on_c, 0, 64, 66
2, 86035, Note_on_c, 0, 71, 74
2, 86036, Note_on_c, 0, 59, 60
2, 86037, Note_on_c, 0, 53, 57
2, 86037, Note_on_c, 0, 76, 64
2, 86037, Note_on_c, 0, 79, 56
2, 86071, Control_c, 0, 64, 127
2, 86129, Note_on_c, 0, 79, 0
2, 86129, Note_on_c, 0, 83, 0
2, 86134, Note_on_c, 0, 59, 0
2, 86137, Note_on_c, 0, 53, 0
2, 86137, Note_on_c, 0, 76, 0
2, 86140, Note_on_c, 0, 71, 0
2, 86145, Note_on_c, 0, 64, 0
2, 86231, Note_on_c, 0, 81, 60
2, 86232, Note_on_c, 0, 73, 52
2, 86233, Note_on_c, 0, 69, 56
2, 86234, Note_on_c, 0, 76, 53
2, 86235, Note_on_c, 0, 59, 60
2, 86237, Note_on_c, 0, 56, 40
2, 86238, Control_c, 0, 64, 0
2, 86241, Note_on_c, 0, 79, 32
2, 86241, Note_on_c, 0, 53, 31
2, 86266, Control_c, 0, 64, 127
2, 86287, Note_on_c, 0, 59, 0
2, 86288, Note_on_c, 0, 53, 0
2, 86288, Note_on_c, 0, 56, 0
2, 86292, Note_on_c, 0, 79, 0
2, 86294, Note_on_c, 0, 81, 0
2, 86300, Note_on_c, 0, 69, 0
2, 86302, Note_on_c, 0, 76, 0
2, 86307, Note_on_c, 0, 73, 0
2, 86389, Control_c, 0, 64, 0
2, 86398, Note_on_c, 0, 79, 46
2, 86399, Note_on_c, 0, 67, 38
2, 86400, Note_on_c, 0, 74, 52
2, 86402, Note_on_c, 0, 59, 34
2, 86402, Note_on_c, 0, 55, 44
2, 86403, Note_on_c, 0, 62, 36
2, 86405, Note_on_c, 0, 52, 45
2, 86405, Note_on_c, 0, 79, 44
2, 86412, Note_on_c, 0, 55, 43
2, 86412, Note_on_c, 0, 72, 31
2, 86413, Note_on_c, 0, 67, 46
2, 86414, Note_on_c, 0, 64, 44
2, 86503, Control_c, 0, 64, 127
2, 86576, Note_on_c, 0, 67, 0
2, 86613, Note_on_c, 0, 79, 0
2, 86647, Note_on_c, 0, 67, 75
2, 86660, Note_on_c, 0, 72, 0
2, 86687, Note_on_c, 0, 67, 0
2, 86692, Note_on_c, 0, 74, 0
2, 86694, Note_on_c, 0, 79, 0
2, 86706, Note_on_c, 0, 64, 0
2, 86714, Note_on_c, 0, 67, 0
2, 86727, Note_on_c, 0, 52, 0
2, 86729, Note_on_c, 0, 55, 0
2, 86731, Note_on_c, 0, 62, 0
2, 86733, Note_on_c, 0, 59, 0
2, 86763, Control_c, 0, 64, 0
2, 86776, Note_on_c, 0, 76, 103
2, 86778, Note_on_c, 0, 67, 108
2, 86783, Note_on_c, 0, 75, 63
2, 86786, Note_on_c, 0, 64, 80
2, 86794, Note_on_c, 0, 75, 0
2, 86809, Control_c, 0, 64, 127
2, 86831, Note_on_c, 0, 76, 0
2, 86853, Note_on_c, 0, 55, 0
2, 86858, Note_on_c, 0, 67, 0
2, 86907, Note_on_c, 0, 55, 60
2, 86908, Note_on_c, 0, 72, 78
2, 86919, Note_on_c, 0, 64, 0
2, 86956, Note_on_c, 0, 55, 0
2, 87039, Note_on_c, 0, 64, 71
2, 87050, Note_on_c, 0, 72, 0
2, 87064, Note_on_c, 0, 64, 0
2, 87176, Note_on_c, 0, 65, 51
2, 87177, Control_c, 0, 64, 0
2, 87181, Note_on_c, 0, 60, 54
2, 87181, Note_on_c, 0, 57, 42
2, 87185, Note_on_c, 0, 43, 38
2, 87192, Note_on_c, 0, 53, 27
2, 87258, Control_c, 0, 64, 127
2, 87333, Note_on_c, 0, 53, 0
2, 87348, Note_on_c, 0, 60, 0
2, 87377, Note_on_c, 0, 57, 0
2, 87456, Note_on_c, 0, 65, 0
2, 87466, Note_on_c, 0, 60, 68
2, 87467, Note_on_c, 0, 57, 64
2, 87473, Note_on_c, 0, 53, 40
2, 87480, Note_on_c, 0, 57, 0
2, 87488, Note_on_c, 0, 43, 0
2, 87493, Note_on_c, 0, 60, 0
2, 87495, Note_on_c, 0, 53, 0
2, 87645, Note_on_c, 0, 74, 92
2, 87647, Note_on_c, 0, 65, 95
2, 87648, Note_on_c, 0, 62, 69
2, 87649, Note_on_c, 0, 69, 91
2, 87656, Control_c, 0, 64, 0
2, 87676, Control_c, 0, 64, 127
2, 87726, Note_on_c, 0, 62, 0
2, 87742, Note_on_c, 0, 69, 0
2, 87747, Note_on_c, 0, 74, 0
2, 87749, Note_on_c, 0, 65, 0
2, 87868, Note_on_c, 0, 60, 67
2, 87870, Note_on_c, 0, 65, 68
2, 87870, Note_on_c, 0, 69, 67
2, 87872, Note_on_c, 0, 53, 38
2, 87880, Control_c, 0, 64, 0
2, 87929, Control_c, 0, 64, 127
2, 87974, Note_on_c, 0, 53, 0
2, 87996, Note_on_c, 0, 65, 0
2, 87998, Note_on_c, 0, 60, 0
2, 88026, Note_on_c, 0, 69, 0
2, 88262, Control_c, 0, 64, 0
2, 88263, Note_on_c, 0, 71, 54
2, 88264, Note_on_c, 0, 63, 48
2, 88265, Note_on_c, 0, 68, 57
2, 88268, Note_on_c, 0, 59, 45
2, 88273, Note_on_c, 0, 43, 37
2, 88273, Note_on_c, 0, 53, 30
2, 88336, Control_c, 0, 64, 127
2, 88575, Note_on_c, 0, 43, 0
2, 88576, Note_on_c, 0, 53, 0
2, 88630, Note_on_c, 0, 59, 0
2, 88649, Note_on_c, 0, 71, 0
2, 88650, Note_on_c, 0, 68, 0
2, 88664, Note_on_c, 0, 63, 0
2, 89088, Note_on_c, 0, 36, 57
2, 89091, Note_on_c, 0, 72, 78
2, 89094, Note_on_c, 0, 64, 89
2, 89094, Note_on_c, 0, 67, 76
2, 89095, Note_on_c, 0, 62, 92
2, 89095, Note_on_c, 0, 52, 64
2, 89106, Control_c, 0, 64, 0
2, 89190, Control_c, 0, 64, 127
2, 89311, Note_on_c, 0, 43, 78
2, 89316, Note_on_c, 0, 52, 0
2, 89335, Note_on_c, 0, 36, 0
2, 89345, Note_on_c, 0, 62, 0
2, 89356, Note_on_c, 0, 43, 0
2, 89364, Note_on_c, 0, 64, 0
2, 89379, Note_on_c, 0, 67, 0
2, 89397, Note_on_c, 0, 72, 0
2, 89548, Note_on_c, 0, 72, 95
2, 89549, Note_on_c, 0, 69, 101
2, 89549, Note_on_c, 0, 65, 105
2, 89551, Note_on_c, 0, 58, 81
2, 89551, Note_on_c, 0, 60, 83
2, 89551, Note_on_c, 0, 62, 90
2, 89554, Note_on_c, 0, 68, 53
2, 89561, Control_c, 0, 64, 0
2, 89566, Note_on_c, 0, 68, 0
2, 89600, Control_c, 0, 64, 127
2, 89670, Note_on_c, 0, 60, 0
2, 89682, Note_on_c, 0, 62, 0
2, 89696, Note_on_c, 0, 58, 0
2, 89705, Note_on_c, 0, 65, 0
2, 89725, Note_on_c, 0, 72, 0
2, 89735, Note_on_c, 0, 69, 0
2, 89808, Note_on_c, 0, 71, 88
2, 89808, Note_on_c, 0, 68, 87
2, 89810, Note_on_c, 0, 64, 90
2, 89812, Note_on_c, 0, 61, 74
2, 89812, Note_on_c, 0, 59, 71
2, 89818, Note_on_c, 0, 57, 66
2, 89821, Control_c, 0, 64, 0
2, 89872, Control_c, 0, 64, 127
2, 89933, Note_on_c, 0, 57, 0
2, 89947, Note_on_c, 0, 59, 0
2, 89957, Note_on_c, 0, 61, 0
2, 89997, Note_on_c, 0, 64, 0
2, 90004, Note_on_c, 0, 71, 0
2, 90032, Note_on_c, 0, 68, 0
2, 90106, Note_on_c, 0, 72, 81
2, 90107, Control_c, 0, 64, 0
2, 90107, Note_on_c, 0, 68, 77
2, 90108, Note_on_c, 0, 63, 82
2, 90111, Note_on_c, 0, 56, 48
2, 90112, Note_on_c, 0, 53, 58
2, 90113, Note_on_c, 0, 60, 57
2, 90162, Control_c, 0, 64, 127
2, 90238, Note_on_c, 0, 53, 0
2, 90246, Note_on_c, 0, 63, 0
2, 90246, Note_on_c, 0, 60, 0
2, 90254, Note_on_c, 0, 56, 0
2, 90257, Note_on_c, 0, 68, 0
2, 90257, Note_on_c, 0, 72, 0
2, 90418, Note_on_c, 0, 76, 75
2, 90421, Note_on_c, 0, 68, 83
2, 90422, Note_on_c, 0, 72, 75
2, 90423, Note_on_c, 0, 52, 60
2, 90424, Note_on_c, 0, 60, 61
2, 90424, Note_on_c, 0, 64, 80
2, 90426, Note_on_c, 0, 56, 59
2, 90428, Control_c, 0, 64, 0
2, 90499, Control_c, 0, 64, 127
2, 90564, Note_on_c, 0, 64, 0
2, 90571, Note_on_c, 0, 60, 0
2, 90576, Note_on_c, 0, 72, 0
2, 90585, Note_on_c, 0, 68, 0
2, 90592, Note_on_c, 0, 52, 0
2, 90596, Note_on_c, 0, 56, 0
2, 90598, Note_on_c, 0, 76, 0
2, 90778, Note_on_c, 0, 74, 82
2, 90779, Note_on_c, 0, 52, 71
2, 90780, Note_on_c, 0, 81, 84
2, 90780, Note_on_c, 0, 67, 77
2, 90782, Note_on_c, 0, 62, 75
2, 90790, Control_c, 0, 64, 0
2, 90792, Note_on_c, 0, 79, 37
2, 90806, Note_on_c, 0, 79, 0
2, 90864, Control_c, 0, 64, 127
2, 90938, Note_on_c, 0, 62, 0
2, 90939, Note_on_c, 0, 81, 0
2, 90947, Note_on_c, 0, 74, 0
2, 90951, Note_on_c, 0, 58, 44
2, 90967, Note_on_c, 0, 67, 0
2, 91111, Note_on_c, 0, 67, 35
2, 91115, Note_on_c, 0, 62, 35
2, 91257, Note_on_c, 0, 52, 0
2, 91271, Note_on_c, 0, 58, 0
2, 91281, Note_on_c, 0, 62, 0
2, 91321, Note_on_c, 0, 67, 0
2, 91546, Note_on_c, 0, 76, 103
2, 91553, Note_on_c, 0, 72, 90
2, 91559, Note_on_c, 0, 56, 67
2, 91559, Note_on_c, 0, 62, 66
2, 91560, Control_c, 0, 64, 0
2, 91586, Note_on_c, 0, 67, 28
2, 91615, Control_c, 0, 64, 127
2, 91690, Note_on_c, 0, 62, 0
2, 91721, Note_on_c, 0, 56, 0
2, 91729, Note_on_c, 0, 67, 0
2, 91783, Note_on_c, 0, 76, 0
2, 91803, Note_on_c, 0, 72, 0
2, 91959, Control_c, 0, 64, 0
2, 91959, Note_on_c, 0, 74, 62
2, 91961, Note_on_c, 0, 71, 64
2, 91961, Note_on_c, 0, 67, 55
2, 91963, Note_on_c, 0, 64, 42
2, 91967, Note_on_c, 0, 59, 40
2, 91968, Note_on_c, 0, 60, 34
2, 92003, Control_c, 0, 64, 127
2, 92044, Note_on_c, 0, 74, 0
2, 92083, Note_on_c, 0, 74, 49
2, 92107, Note_on_c, 0, 64, 0
2, 92108, Note_on_c, 0, 67, 0
2, 92111, Note_on_c, 0, 60, 0
2, 92112, Note_on_c, 0, 71, 0
2, 92112, Note_on_c, 0, 59, 0
2, 92145, Note_on_c, 0, 74, 0
2, 92216, Note_on_c, 0, 76, 58
2, 92220, Note_on_c, 0, 68, 48
2, 92223, Note_on_c, 0, 64, 53
2, 92223, Note_on_c, 0, 54, 38
2, 92224, Note_on_c, 0, 71, 50
2, 92228, Control_c, 0, 64, 0
2, 92230, Note_on_c, 0, 60, 30
2, 92285, Control_c, 0, 64, 127
2, 92345, Note_on_c, 0, 76, 0
2, 92376, Note_on_c, 0, 71, 0
2, 92380, Note_on_c, 0, 60, 0
2, 92393, Note_on_c, 0, 76, 52
2, 92411, Note_on_c, 0, 54, 0
2, 92432, Note_on_c, 0, 76, 0
2, 92442, Note_on_c, 0, 68, 0
2, 92444, Note_on_c, 0, 64, 0
2, 92608, Note_on_c, 0, 72, 59
2, 92626, Note_on_c, 0, 67, 48
2, 92635, Note_on_c, 0, 65, 57
2, 92665, Note_on_c, 0, 49, 32
2, 92668, Note_on_c, 0, 60, 49
2, 92669, Note_on_c, 0, 56, 31
2, 92670, Control_c, 0, 64, 0
2, 92776, Control_c, 0, 64, 127
2, 93013, Note_on_c, 0, 56, 0
2, 93026, Note_on_c, 0, 49, 0
2, 93148, Note_on_c, 0, 72, 0
2, 93169, Note_on_c, 0, 67, 0
2, 93174, Note_on_c, 0, 65, 0
2, 93186, Note_on_c, 0, 60, 0
2, 93353, Note_on_c, 0, 36, 39
2, 93356, Note_on_c, 0, 62, 47
2, 93356, Note_on_c, 0, 69, 49
2, 93356, Note_on_c, 0, 66, 44
2, 93358, Note_on_c, 0, 57, 44
2, 93360, Control_c, 0, 64, 0
2, 93362, Note_on_c, 0, 52, 46
2, 93407, Note_on_c, 0, 57, 0
2, 93418, Control_c, 0, 64, 127
2, 93421, Note_on_c, 0, 62, 0
2, 93437, Note_on_c, 0, 66, 0
2, 93444, Note_on_c, 0, 69, 0
2, 93526, Note_on_c, 0, 81, 59
2, 93529, Note_on_c, 0, 74, 60
2, 93535, Note_on_c, 0, 43, 42
2, 93537, Note_on_c, 0, 52, 0
2, 93598, Note_on_c, 0, 74, 0
2, 93616, Note_on_c, 0, 81, 0
2, 93625, Note_on_c, 0, 36, 0
2, 93629, Note_on_c, 0, 78, 36
2, 93635, Note_on_c, 0, 69, 46
2, 93637, Note_on_c, 0, 43, 0
2, 93640, Note_on_c, 0, 74, 31
2, 93650, Note_on_c, 0, 52, 37
2, 93663, Note_on_c, 0, 52, 0
2, 93771, Note_on_c, 0, 58, 35
2, 94010, Note_on_c, 0, 58, 0
2, 94023, Note_on_c, 0, 74, 0
2, 94025, Note_on_c, 0, 69, 0
2, 94044, Note_on_c, 0, 62, 31
2, 94113, Note_on_c, 0, 78, 0
2, 94113, Note_on_c, 0, 69, 48
2, 94147, Note_on_c, 0, 69, 0
2, 94156, Note_on_c, 0, 62, 0
2, 94180, Note_on_c, 0, 74, 57
2, 94210, Note_on_c, 0, 74, 0
2, 94249, Note_on_c, 0, 81, 58
2, 94258, Note_on_c, 0, 74, 37
2, 94288, Note_on_c, 0, 74, 0
2, 94301, Note_on_c, 0, 81, 0
2, 94326, Note_on_c, 0, 78, 37
2, 94327, Note_on_c, 0, 69, 34
2, 94331, Note_on_c, 0, 74, 33
2, 94380, Note_on_c, 0, 69, 0
2, 94401, Note_on_c, 0, 74, 0
2, 94412, Note_on_c, 0, 78, 0
2, 94416, Note_on_c, 0, 69, 44
2, 94417, Note_on_c, 0, 81, 37
2, 94433, Note_on_c, 0, 81, 0
2, 94525, Note_on_c, 0, 86, 18
2, 94543, Note_on_c, 0, 86, 0
2, 94619, Note_on_c, 0, 93, 64
2, 94628, Note_on_c, 0, 86, 36
2, 94692, Note_on_c, 0, 86, 0
2, 94697, Note_on_c, 0, 93, 0
2, 94711, Note_on_c, 0, 90, 37
2, 94714, Note_on_c, 0, 81, 36
2, 94732, Note_on_c, 0, 81, 0
2, 94747, Note_on_c, 0, 90, 0
2, 94825, Note_on_c, 0, 105, 59
2, 94830, Note_on_c, 0, 98, 46
2, 94854, Note_on_c, 0, 69, 0
2, 94893, Note_on_c, 0, 98, 0
2, 94915, Note_on_c, 0, 105, 0
2, 94926, Note_on_c, 0, 102, 40
2, 94934, Note_on_c, 0, 93, 33
2, 94996, Note_on_c, 0, 93, 0
2, 95008, Note_on_c, 0, 102, 0
2, 95035, Note_on_c, 0, 105, 45
2, 95038, Note_on_c, 0, 98, 44
2, 95106, Note_on_c, 0, 98, 0
2, 95127, Note_on_c, 0, 105, 0
2, 95222, Note_on_c, 0, 24, 26
2, 95320, Note_on_c, 0, 24, 0
2, 95856, Control_c, 0, 64, 0
2, 95856, End_track
3, 0, Start_track
3, 0, MIDI_port, 0
3, 0, Title_t, "Bass"
3, 0, Program_c, 1, 35
3, 4283, Note_on_c, 1, 55, 77
3, 4442, Note_on_c, 1, 43, 54
3, 4676, Note_on_c, 1, 55, 0
3, 4876, Note_on_c, 1, 51, 75
3, 4878, Note_on_c, 1, 43, 0
3, 5002, Note_on_c, 1, 58, 73
3, 5036, Note_on_c, 1, 58, 0
3, 5036, Note_on_c, 1, 51, 0
3, 5048, Note_on_c, 1, 56, 72
3, 5256, Note_on_c, 1, 51, 41
3, 5269, Note_on_c, 1, 51, 0
3, 5275, Note_on_c, 1, 56, 0
3, 5300, Note_on_c, 1, 44, 59
3, 5485, Note_on_c, 1, 56, 58
3, 5495, Note_on_c, 1, 44, 0
3, 5512, Note_on_c, 1, 56, 0
3, 5532, Note_on_c, 1, 55, 64
3, 5540, Note_on_c, 1, 55, 0
3, 5611, Note_on_c, 1, 43, 56
3, 5635, Note_on_c, 1, 43, 0
3, 5657, Note_on_c, 1, 38, 50
3, 5695, Note_on_c, 1, 38, 0
3, 5734, Note_on_c, 1, 35, 53
3, 5751, Note_on_c, 1, 35, 0
3, 5779, Note_on_c, 1, 36, 54
3, 6048, Note_on_c, 1, 36, 0
3, 6087, Note_on_c, 1, 44, 50
3, 6112, Note_on_c, 1, 44, 0
3, 6128, Note_on_c, 1, 43, 37
3, 6323, Note_on_c, 1, 57, 57
3, 6347, Note_on_c, 1, 57, 0
3, 6351, Note_on_c, 1, 43, 0
3, 6361, Note_on_c, 1, 55, 56
3, 6596, Note_on_c, 1, 55, 0
3, 6596, Note_on_c, 1, 48, 75
3, 6795, Note_on_c, 1, 48, 0
3, 6809, Note_on_c, 1, 42, 42
3, 6839, Note_on_c, 1, 42, 0
3, 6847, Note_on_c, 1, 43, 63
3, 7046, Note_on_c, 1, 41, 82
3, 7058, Note_on_c, 1, 43, 0
3, 7192, Note_on_c, 1, 41, 0
3, 7209, Note_on_c, 1, 40, 52
3, 7522, Note_on_c, 1, 40, 0
3, 7525, Note_on_c, 1, 44, 39
3, 7556, Note_on_c, 1, 44, 0
3, 7566, Note_on_c, 1, 45, 44
3, 7644, Note_on_c, 1, 59, 54
3, 7666, Note_on_c, 1, 59, 0
3, 7673, Note_on_c, 1, 45, 0
3, 7688, Note_on_c, 1, 57, 56
3, 7883, Note_on_c, 1, 52, 43
3, 7892, Note_on_c, 1, 52, 0
3, 7898, Note_on_c, 1, 57, 0
3, 7999, Note_on_c, 1, 44, 43
3, 8028, Note_on_c, 1, 44, 0
3, 8043, Note_on_c, 1, 45, 43
3, 8160, Note_on_c, 1, 45, 0
3, 8162, Note_on_c, 1, 51, 61
3, 8252, Note_on_c, 1, 39, 23
3, 8259, Note_on_c, 1, 39, 0
3, 8270, Note_on_c, 1, 51, 0
3, 8285, Note_on_c, 1, 50, 55
3, 8403, Note_on_c, 1, 50, 0
3, 8404, Note_on_c, 1, 44, 70
3, 8604, Note_on_c, 1, 51, 60
3, 8621, Note_on_c, 1, 44, 0
3, 8637, Note_on_c, 1, 51, 0
3, 8648, Note_on_c, 1, 50, 47
3, 8842, Note_on_c, 1, 38, 41
3, 8867, Note_on_c, 1, 38, 0
3, 8884, Note_on_c, 1, 44, 58
3, 8889, Note_on_c, 1, 50, 0
3, 9084, Note_on_c, 1, 43, 54
3, 9088, Note_on_c, 1, 44, 0
3, 9104, Note_on_c, 1, 43, 0
3, 9125, Note_on_c, 1, 57, 61
3, 9126, Note_on_c, 1, 55, 70
3, 9173, Note_on_c, 1, 55, 0
3, 9234, Note_on_c, 1, 57, 0
3, 9238, Note_on_c, 1, 55, 56
3, 9312, Note_on_c, 1, 55, 0
3, 9317, Note_on_c, 1, 49, 34
3, 9352, Note_on_c, 1, 49, 0
3, 9362, Note_on_c, 1, 50, 47
3, 9557, Note_on_c, 1, 50, 0
3, 9559, Note_on_c, 1, 45, 38
3, 9581, Note_on_c, 1, 45, 0
3, 9608, Note_on_c, 1, 43, 61
3, 9613, Note_on_c, 1, 41, 58
3, 9620, Note_on_c, 1, 41, 0
3, 9719, Note_on_c, 1, 31, 60
3, 10034, Note_on_c, 1, 31, 0
3, 10044, Note_on_c, 1, 35, 26
3, 10047, Note_on_c, 1, 43, 0
3, 10065, Note_on_c, 1, 35, 0
3, 10083, Note_on_c, 1, 36, 52
3, 10443, Note_on_c, 1, 51, 58
3, 10458, Note_on_c, 1, 36, 0
3, 10553, Note_on_c, 1, 58, 66
3, 10561, Note_on_c, 1, 51, 0
3, 10665, Note_on_c, 1, 58, 0
3, 10679, Note_on_c, 1, 56, 62
3, 10918, Note_on_c, 1, 51, 37
3, 10988, Note_on_c, 1, 56, 0
3, 11003, Note_on_c, 1, 44, 46
3, 11006, Note_on_c, 1, 51, 0
3, 11026, Note_on_c, 1, 44, 0
3, 11046, Note_on_c, 1, 42, 42
3, 11153, Note_on_c, 1, 42, 0
3, 11167, Note_on_c, 1, 43, 47
3, 11279, Note_on_c, 1, 43, 0
3, 11283, Note_on_c, 1, 38, 50
3, 11378, Note_on_c, 1, 38, 0
3, 11399, Note_on_c, 1, 35, 40
3, 11508, Note_on_c, 1, 35, 0
3, 11522, Note_on_c, 1, 36, 37
3, 11604, Note_on_c, 1, 57, 58
3, 11616, Note_on_c, 1, 36, 0
3, 11628, Note_on_c, 1, 57, 0
3, 11652, Note_on_c, 1, 55, 55
3, 11767, Note_on_c, 1, 42, 67
3, 11803, Note_on_c, 1, 55, 0
3, 11845, Note_on_c, 1, 42, 0
3, 11889, Note_on_c, 1, 43, 70
3, 12010, Note_on_c, 1, 31, 60
3, 12237, Note_on_c, 1, 43, 0
3, 12245, Note_on_c, 1, 31, 0
3, 12252, Note_on_c, 1, 48, 44
3, 12317, Note_on_c, 1, 48, 0
3, 12332, Note_on_c, 1, 48, 61
3, 12349, Note_on_c, 1, 48, 0
3, 12495, Note_on_c, 1, 43, 60
3, 12559, Note_on_c, 1, 43, 0
3, 12575, Note_on_c, 1, 43, 70
3, 12794, Note_on_c, 1, 43, 0
3, 12801, Note_on_c, 1, 45, 58
3, 12821, Note_on_c, 1, 45, 0
3, 12845, Note_on_c, 1, 43, 52
3, 12943, Note_on_c, 1, 43, 0
3, 12955, Note_on_c, 1, 42, 54
3, 13321, Note_on_c, 1, 47, 44
3, 13327, Note_on_c, 1, 42, 0
3, 13436, Note_on_c, 1, 47, 0
3, 13445, Note_on_c, 1, 35, 51
3, 13680, Note_on_c, 1, 35, 0
3, 13684, Note_on_c, 1, 40, 42
3, 13805, Note_on_c, 1, 52, 44
3, 14183, Note_on_c, 1, 40, 0
3, 14240, Note_on_c, 1, 40, 31
3, 14261, Note_on_c, 1, 40, 0
3, 14280, Note_on_c, 1, 52, 0
3, 14281, Note_on_c, 1, 49, 37
3, 14387, Note_on_c, 1, 49, 0
3, 14404, Note_on_c, 1, 47, 52
3, 14517, Note_on_c, 1, 59, 57
3, 14788, Note_on_c, 1, 47, 0
3, 14845, Note_on_c, 1, 47, 69
3, 14876, Note_on_c, 1, 59, 0
3, 14969, Note_on_c, 1, 46, 16
3, 14993, Note_on_c, 1, 46, 0
3, 15015, Note_on_c, 1, 59, 78
3, 15087, Note_on_c, 1, 47, 0
3, 15124, Note_on_c, 1, 47, 79
3, 15133, Note_on_c, 1, 59, 0
3, 15324, Note_on_c, 1, 59, 84
3, 15561, Note_on_c, 1, 47, 0
3, 15611, Note_on_c, 1, 47, 52
3, 15662, Note_on_c, 1, 47, 0
3, 15728, Note_on_c, 1, 47, 45
3, 15766, Note_on_c, 1, 47, 0
3, 15803, Note_on_c, 1, 47, 39
3, 15827, Note_on_c, 1, 47, 0
3, 15843, Note_on_c, 1, 59, 0
3, 15846, Note_on_c, 1, 41, 45
3, 16157, Note_on_c, 1, 41, 0
3, 16164, Note_on_c, 1, 48, 54
3, 16181, Note_on_c, 1, 48, 0
3, 16202, Note_on_c, 1, 46, 39
3, 16323, Note_on_c, 1, 58, 64
3, 16365, Note_on_c, 1, 46, 0
3, 16398, Note_on_c, 1, 46, 33
3, 16415, Note_on_c, 1, 58, 0
3, 16420, Note_on_c, 1, 46, 0
3, 16440, Note_on_c, 1, 50, 45
3, 16548, Note_on_c, 1, 50, 0
3, 16556, Note_on_c, 1, 51, 58
3, 16636, Note_on_c, 1, 46, 29
3, 16639, Note_on_c, 1, 51, 0
3, 16668, Note_on_c, 1, 46, 0
3, 16677, Note_on_c, 1, 39, 46
3, 17039, Note_on_c, 1, 46, 47
3, 17058, Note_on_c, 1, 46, 0
3, 17119, Note_on_c, 1, 46, 50
3, 17130, Note_on_c, 1, 39, 0
3, 17150, Note_on_c, 1, 46, 0
3, 17157, Note_on_c, 1, 39, 50
3, 17275, Note_on_c, 1, 39, 0
3, 17282, Note_on_c, 1, 45, 50
3, 17293, Note_on_c, 1, 45, 0
3, 17356, Note_on_c, 1, 45, 45
3, 17399, Note_on_c, 1, 33, 47
3, 17402, Note_on_c, 1, 35, 43
3, 17412, Note_on_c, 1, 35, 0
3, 17555, Note_on_c, 1, 45, 0
3, 17639, Note_on_c, 1, 45, 49
3, 17652, Note_on_c, 1, 45, 0
3, 17722, Note_on_c, 1, 45, 64
3, 17733, Note_on_c, 1, 33, 0
3, 17765, Note_on_c, 1, 33, 64
3, 17867, Note_on_c, 1, 45, 0
3, 17878, Note_on_c, 1, 45, 10
3, 17892, Note_on_c, 1, 45, 0
3, 17959, Note_on_c, 1, 45, 75
3, 17973, Note_on_c, 1, 33, 0
3, 18005, Note_on_c, 1, 33, 68
3, 18150, Note_on_c, 1, 45, 0
3, 18241, Note_on_c, 1, 45, 64
3, 18257, Note_on_c, 1, 45, 0
3, 18325, Note_on_c, 1, 45, 78
3, 18366, Note_on_c, 1, 45, 0
3, 18438, Note_on_c, 1, 45, 62
3, 18452, Note_on_c, 1, 33, 0
3, 18484, Note_on_c, 1, 33, 66
3, 18518, Note_on_c, 1, 45, 0
3, 18601, Note_on_c, 1, 45, 68
3, 18629, Note_on_c, 1, 33, 0
3, 18705, Note_on_c, 1, 45, 0
3, 18726, Note_on_c, 1, 47, 75
3, 18745, Note_on_c, 1, 43, 45
3, 18751, Note_on_c, 1, 47, 0
3, 18754, Note_on_c, 1, 43, 0
3, 18813, Note_on_c, 1, 43, 89
3, 19048, Note_on_c, 1, 41, 86
3, 19064, Note_on_c, 1, 43, 0
3, 19380, Note_on_c, 1, 41, 0
3, 19394, Note_on_c, 1, 39, 66
3, 19557, Note_on_c, 1, 51, 73
3, 19739, Note_on_c, 1, 51, 0
3, 19756, Note_on_c, 1, 49, 75
3, 19759, Note_on_c, 1, 39, 0
3, 19921, Note_on_c, 1, 37, 64
3, 19959, Note_on_c, 1, 49, 0
3, 20142, Note_on_c, 1, 37, 0
3, 20158, Note_on_c, 1, 36, 46
3, 20276, Note_on_c, 1, 48, 54
3, 20394, Note_on_c, 1, 48, 0
3, 20401, Note_on_c, 1, 57, 48
3, 20418, Note_on_c, 1, 36, 0
3, 20488, Note_on_c, 1, 43, 22
3, 20500, Note_on_c, 1, 43, 0
3, 20515, Note_on_c, 1, 57, 0
3, 20521, Note_on_c, 1, 55, 52
3, 20644, Note_on_c, 1, 43, 67
3, 20653, Note_on_c, 1, 55, 0
3, 20979, Note_on_c, 1, 43, 0
3, 21004, Note_on_c, 1, 43, 68
3, 21328, Note_on_c, 1, 39, 43
3, 21330, Note_on_c, 1, 43, 0
3, 21354, Note_on_c, 1, 39, 0
3, 21363, Note_on_c, 1, 41, 67
3, 21466, Note_on_c, 1, 41, 0
3, 21481, Note_on_c, 1, 41, 70
3, 21592, Note_on_c, 1, 41, 0
3, 21603, Note_on_c, 1, 40, 58
3, 21725, Note_on_c, 1, 52, 82
3, 21730, Note_on_c, 1, 40, 0
3, 21888, Note_on_c, 1, 47, 40
3, 21901, Note_on_c, 1, 47, 0
3, 21908, Note_on_c, 1, 52, 0
3, 21927, Note_on_c, 1, 46, 46
3, 21951, Note_on_c, 1, 46, 0
3, 21968, Note_on_c, 1, 45, 68
3, 22164, Note_on_c, 1, 57, 66
3, 22210, Note_on_c, 1, 45, 0
3, 22285, Note_on_c, 1, 45, 37
3, 22294, Note_on_c, 1, 45, 0
3, 22305, Note_on_c, 1, 57, 0
3, 22326, Note_on_c, 1, 54, 60
3, 22425, Note_on_c, 1, 54, 0
3, 22442, Note_on_c, 1, 50, 48
3, 22562, Note_on_c, 1, 45, 64
3, 22621, Note_on_c, 1, 50, 0
3, 22684, Note_on_c, 1, 44, 70
3, 22694, Note_on_c, 1, 45, 0
3, 23015, Note_on_c, 1, 42, 22
3, 23032, Note_on_c, 1, 44, 0
3, 23041, Note_on_c, 1, 42, 0
3, 23046, Note_on_c, 1, 43, 47
3, 23164, Note_on_c, 1, 55, 49
3, 23174, Note_on_c, 1, 55, 0
3, 23242, Note_on_c, 1, 57, 50
3, 23262, Note_on_c, 1, 57, 0
3, 23286, Note_on_c, 1, 55, 52
3, 23305, Note_on_c, 1, 55, 0
3, 23357, Note_on_c, 1, 54, 36
3, 23379, Note_on_c, 1, 54, 0
3, 23403, Note_on_c, 1, 55, 44
3, 23408, Note_on_c, 1, 43, 0
3, 23503, Note_on_c, 1, 55, 0
3, 23518, Note_on_c, 1, 43, 86
3, 23699, Note_on_c, 1, 43, 0
3, 23720, Note_on_c, 1, 43, 73
3, 24087, Note_on_c, 1, 54, 37
3, 24102, Note_on_c, 1, 54, 0
3, 24126, Note_on_c, 1, 55, 74
3, 24174, Note_on_c, 1, 55, 0
3, 24208, Note_on_c, 1, 54, 38
3, 24223, Note_on_c, 1, 54, 0
3, 24247, Note_on_c, 1, 55, 64
3, 24394, Note_on_c, 1, 43, 0
3, 24441, Note_on_c, 1, 55, 0
3, 24448, Note_on_c, 1, 52, 24
3, 24457, Note_on_c, 1, 52, 0
3, 24489, Note_on_c, 1, 55, 47
3, 24566, Note_on_c, 1, 52, 57
3, 24580, Note_on_c, 1, 55, 0
3, 24586, Note_on_c, 1, 52, 0
3, 24604, Note_on_c, 1, 43, 68
3, 24711, Note_on_c, 1, 43, 0
3, 24727, Note_on_c, 1, 43, 58
3, 24837, Note_on_c, 1, 43, 0
3, 24846, Note_on_c, 1, 39, 53
3, 25041, Note_on_c, 1, 51, 57
3, 25212, Note_on_c, 1, 39, 0
3, 25212, Note_on_c, 1, 44, 57
3, 25220, Note_on_c, 1, 51, 0
3, 25404, Note_on_c, 1, 56, 67
3, 25485, Note_on_c, 1, 44, 0
3, 25560, Note_on_c, 1, 55, 48
3, 25566, Note_on_c, 1, 56, 0
3, 25643, Note_on_c, 1, 43, 41
3, 25661, Note_on_c, 1, 55, 0
3, 25667, Note_on_c, 1, 43, 0
3, 25678, Note_on_c, 1, 38, 51
3, 25784, Note_on_c, 1, 38, 0
3, 25797, Note_on_c, 1, 35, 44
3, 25908, Note_on_c, 1, 35, 0
3, 25920, Note_on_c, 1, 36, 54
3, 25925, Note_on_c, 1, 48, 73
3, 26042, Note_on_c, 1, 48, 0
3, 26043, Note_on_c, 1, 43, 39
3, 26052, Note_on_c, 1, 36, 0
3, 26151, Note_on_c, 1, 43, 0
3, 26155, Note_on_c, 1, 40, 48
3, 26227, Note_on_c, 1, 40, 0
3, 26237, Note_on_c, 1, 42, 59
3, 26261, Note_on_c, 1, 42, 0
3, 26272, Note_on_c, 1, 43, 65
3, 26355, Note_on_c, 1, 43, 0
3, 26356, Note_on_c, 1, 38, 47
3, 26373, Note_on_c, 1, 38, 0
3, 26390, Note_on_c, 1, 35, 56
3, 26511, Note_on_c, 1, 35, 0
3, 26516, Note_on_c, 1, 38, 56
3, 26599, Note_on_c, 1, 38, 0
3, 26600, Note_on_c, 1, 35, 40
3, 26626, Note_on_c, 1, 35, 0
3, 26639, Note_on_c, 1, 36, 53
3, 26762, Note_on_c, 1, 50, 74
3, 26769, Note_on_c, 1, 36, 0
3, 26877, Note_on_c, 1, 50, 0
3, 26877, Note_on_c, 1, 48, 55
3, 26958, Note_on_c, 1, 48, 0
3, 26958, Note_on_c, 1, 44, 52
3, 26992, Note_on_c, 1, 44, 0
3, 26995, Note_on_c, 1, 43, 54
3, 27109, Note_on_c, 1, 43, 0
3, 27117, Note_on_c, 1, 43, 51
3, 27197, Note_on_c, 1, 42, 58
3, 27199, Note_on_c, 1, 43, 0
3, 27225, Note_on_c, 1, 42, 0
3, 27235, Note_on_c, 1, 41, 60
3, 27303, Note_on_c, 1, 41, 0
3, 27316, Note_on_c, 1, 39, 52
3, 27339, Note_on_c, 1, 39, 0
3, 27352, Note_on_c, 1, 40, 59
3, 27445, Note_on_c, 1, 39, 13
3, 27467, Note_on_c, 1, 39, 0
3, 27467, Note_on_c, 1, 40, 0
3, 27476, Note_on_c, 1, 47, 98
3, 27638, Note_on_c, 1, 47, 0
3, 27647, Note_on_c, 1, 44, 30
3, 27666, Note_on_c, 1, 44, 0
3, 27682, Note_on_c, 1, 44, 64
3, 27700, Note_on_c, 1, 44, 0
3, 27719, Note_on_c, 1, 46, 57
3, 27770, Note_on_c, 1, 46, 0
3, 27794, Note_on_c, 1, 45, 77
3, 27811, Note_on_c, 1, 45, 0
3, 27832, Note_on_c, 1, 40, 50
3, 27942, Note_on_c, 1, 40, 0
3, 27957, Note_on_c, 1, 37, 25
3, 27959, Note_on_c, 1, 36, 54
3, 27982, Note_on_c, 1, 36, 0
3, 28001, Note_on_c, 1, 37, 0
3, 28036, Note_on_c, 1, 34, 51
3, 28057, Note_on_c, 1, 34, 0
3, 28068, Note_on_c, 1, 33, 58
3, 28190, Note_on_c, 1, 45, 70
3, 28196, Note_on_c, 1, 33, 0
3, 28272, Note_on_c, 1, 40, 48
3, 28274, Note_on_c, 1, 45, 0
3, 28290, Note_on_c, 1, 40, 0
3, 28306, Note_on_c, 1, 39, 61
3, 28428, Note_on_c, 1, 39, 0
3, 28437, Note_on_c, 1, 38, 51
3, 28559, Note_on_c, 1, 54, 50
3, 28625, Note_on_c, 1, 38, 0
3, 28761, Note_on_c, 1, 49, 24
3, 28777, Note_on_c, 1, 54, 0
3, 28778, Note_on_c, 1, 49, 0
3, 28794, Note_on_c, 1, 50, 43
3, 28874, Note_on_c, 1, 45, 56
3, 28880, Note_on_c, 1, 50, 0
3, 28895, Note_on_c, 1, 45, 0
3, 28914, Note_on_c, 1, 41, 38
3, 29030, Note_on_c, 1, 41, 0
3, 29037, Note_on_c, 1, 44, 43
3, 29144, Note_on_c, 1, 44, 0
3, 29156, Note_on_c, 1, 43, 44
3, 29175, Note_on_c, 1, 43, 0
3, 29189, Note_on_c, 1, 38, 38
3, 29202, Note_on_c, 1, 38, 0
3, 29232, Note_on_c, 1, 32, 48
3, 29345, Note_on_c, 1, 36, 52
3, 29347, Note_on_c, 1, 32, 0
3, 29425, Note_on_c, 1, 36, 0
3, 29431, Note_on_c, 1, 39, 50
3, 29450, Note_on_c, 1, 39, 0
3, 29467, Note_on_c, 1, 37, 43
3, 29504, Note_on_c, 1, 37, 0
3, 29510, Note_on_c, 1, 38, 33
3, 29596, Note_on_c, 1, 37, 24
3, 29616, Note_on_c, 1, 38, 0
3, 29632, Note_on_c, 1, 37, 0
3, 29638, Note_on_c, 1, 45, 70
3, 29744, Note_on_c, 1, 45, 0
3, 29757, Note_on_c, 1, 44, 43
3, 29870, Note_on_c, 1, 44, 0
3, 29881, Note_on_c, 1, 43, 38
3, 29987, Note_on_c, 1, 43, 0
3, 29992, Note_on_c, 1, 35, 53
3, 30079, Note_on_c, 1, 38, 36
3, 30100, Note_on_c, 1, 38, 0
3, 30104, Note_on_c, 1, 35, 0
3, 30111, Note_on_c, 1, 50, 75
3, 30223, Note_on_c, 1, 50, 0
3, 30232, Note_on_c, 1, 48, 38
3, 30354, Note_on_c, 1, 43, 33
3, 30360, Note_on_c, 1, 48, 0
3, 30436, Note_on_c, 1, 55, 61
3, 30464, Note_on_c, 1, 55, 0
3, 30476, Note_on_c, 1, 43, 0
3, 30481, Note_on_c, 1, 51, 45
3, 30585, Note_on_c, 1, 51, 0
3, 30595, Note_on_c, 1, 46, 39
3, 30713, Note_on_c, 1, 39, 40
3, 30714, Note_on_c, 1, 46, 0
3, 30833, Note_on_c, 1, 43, 43
3, 30842, Note_on_c, 1, 39, 0
3, 30956, Note_on_c, 1, 43, 0
3, 30958, Note_on_c, 1, 44, 49
3, 31077, Note_on_c, 1, 39, 45
3, 31088, Note_on_c, 1, 44, 0
3, 31200, Note_on_c, 1, 32, 47
3, 31203, Note_on_c, 1, 39, 0
3, 31275, Note_on_c, 1, 39, 21
3, 31283, Note_on_c, 1, 44, 68
3, 31293, Note_on_c, 1, 39, 0
3, 31295, Note_on_c, 1, 32, 0
3, 31309, Note_on_c, 1, 44, 0
3, 31320, Note_on_c, 1, 43, 47
3, 31333, Note_on_c, 1, 43, 0
3, 31362, Note_on_c, 1, 38, 47
3, 31379, Note_on_c, 1, 38, 0
3, 31397, Note_on_c, 1, 32, 57
3, 31427, Note_on_c, 1, 32, 0
3, 31440, Note_on_c, 1, 31, 61
3, 31551, Note_on_c, 1, 31, 0
3, 31553, Note_on_c, 1, 33, 46
3, 31574, Note_on_c, 1, 33, 0
3, 31590, Note_on_c, 1, 34, 44
3, 31605, Note_on_c, 1, 34, 0
3, 31627, Note_on_c, 1, 35, 68
3, 31664, Note_on_c, 1, 35, 0
3, 31672, Note_on_c, 1, 36, 64
3, 31793, Note_on_c, 1, 36, 0
3, 31798, Note_on_c, 1, 38, 39
3, 31814, Note_on_c, 1, 38, 0
3, 31838, Note_on_c, 1, 39, 32
3, 31858, Note_on_c, 1, 39, 0
3, 31875, Note_on_c, 1, 40, 47
3, 31899, Note_on_c, 1, 40, 0
3, 31913, Note_on_c, 1, 45, 65
3, 31947, Note_on_c, 1, 45, 0
3, 31954, Note_on_c, 1, 44, 30
3, 31985, Note_on_c, 1, 44, 0
3, 31993, Note_on_c, 1, 43, 63
3, 32160, Note_on_c, 1, 38, 35
3, 32172, Note_on_c, 1, 43, 0
3, 32269, Note_on_c, 1, 38, 0
3, 32277, Note_on_c, 1, 35, 44
3, 32386, Note_on_c, 1, 35, 0
3, 32397, Note_on_c, 1, 36, 39
3, 32516, Note_on_c, 1, 45, 68
3, 32520, Note_on_c, 1, 36, 0
3, 32601, Note_on_c, 1, 36, 26
3, 32612, Note_on_c, 1, 36, 0
3, 32620, Note_on_c, 1, 45, 0
3, 32634, Note_on_c, 1, 44, 45
3, 32751, Note_on_c, 1, 44, 0
3, 32754, Note_on_c, 1, 43, 48
3, 32837, Note_on_c, 1, 41, 28
3, 32848, Note_on_c, 1, 41, 0
3, 32857, Note_on_c, 1, 43, 0
3, 32870, Note_on_c, 1, 55, 58
3, 32966, Note_on_c, 1, 55, 0
3, 32988, Note_on_c, 1, 46, 45
3, 33069, Note_on_c, 1, 46, 0
3, 33071, Note_on_c, 1, 43, 44
3, 33087, Note_on_c, 1, 43, 0
3, 33109, Note_on_c, 1, 42, 58
3, 33229, Note_on_c, 1, 49, 41
3, 33250, Note_on_c, 1, 42, 0
3, 33306, Note_on_c, 1, 42, 49
3, 33313, Note_on_c, 1, 49, 0
3, 33352, Note_on_c, 1, 48, 61
3, 33358, Note_on_c, 1, 42, 0
3, 33422, Note_on_c, 1, 48, 0
3, 33429, Note_on_c, 1, 45, 40
3, 33451, Note_on_c, 1, 45, 0
3, 33469, Note_on_c, 1, 47, 63
3, 33553, Note_on_c, 1, 42, 46
3, 33564, Note_on_c, 1, 47, 0
3, 33571, Note_on_c, 1, 42, 0
3, 33590, Note_on_c, 1, 35, 58
3, 33675, Note_on_c, 1, 42, 17
3, 33699, Note_on_c, 1, 42, 0
3, 33714, Note_on_c, 1, 47, 70
3, 33725, Note_on_c, 1, 35, 0
3, 33834, Note_on_c, 1, 35, 58
3, 33849, Note_on_c, 1, 47, 0
3, 33916, Note_on_c, 1, 40, 38
3, 33926, Note_on_c, 1, 40, 0
3, 33952, Note_on_c, 1, 47, 75
3, 33955, Note_on_c, 1, 35, 0
3, 34066, Note_on_c, 1, 47, 0
3, 34066, Note_on_c, 1, 35, 71
3, 34155, Note_on_c, 1, 40, 41
3, 34183, Note_on_c, 1, 40, 0
3, 34190, Note_on_c, 1, 35, 0
3, 34193, Note_on_c, 1, 47, 75
3, 34314, Note_on_c, 1, 35, 61
3, 34316, Note_on_c, 1, 47, 0
3, 34431, Note_on_c, 1, 47, 73
3, 34435, Note_on_c, 1, 35, 0
3, 34516, Note_on_c, 1, 35, 61
3, 34517, Note_on_c, 1, 47, 0
3, 34552, Note_on_c, 1, 42, 67
3, 34557, Note_on_c, 1, 35, 0
3, 34677, Note_on_c, 1, 35, 66
3, 34680, Note_on_c, 1, 42, 0
3, 34754, Note_on_c, 1, 40, 46
3, 34777, Note_on_c, 1, 40, 0
3, 34787, Note_on_c, 1, 35, 0
3, 34791, Note_on_c, 1, 47, 77
3, 34901, Note_on_c, 1, 47, 0
3, 34911, Note_on_c, 1, 42, 50
3, 35035, Note_on_c, 1, 42, 0
3, 35037, Note_on_c, 1, 35, 50
3, 35115, Note_on_c, 1, 37, 38
3, 35120, Note_on_c, 1, 35, 0
3, 35124, Note_on_c, 1, 37, 0
3, 35151, Note_on_c, 1, 39, 57
3, 35245, Note_on_c, 1, 37, 8
3, 35263, Note_on_c, 1, 39, 0
3, 35265, Note_on_c, 1, 37, 0
3, 35270, Note_on_c, 1, 40, 47
3, 35362, Note_on_c, 1, 39, 26
3, 35382, Note_on_c, 1, 40, 0
3, 35391, Note_on_c, 1, 39, 0
3, 35393, Note_on_c, 1, 54, 62
3, 35516, Note_on_c, 1, 54, 0
3, 35516, Note_on_c, 1, 52, 47
3, 35624, Note_on_c, 1, 52, 0
3, 35631, Note_on_c, 1, 51, 44
3, 35750, Note_on_c, 1, 47, 43
3, 35956, Note_on_c, 1, 40, 50
3, 35965, Note_on_c, 1, 51, 0
3, 35969, Note_on_c, 1, 47, 0
3, 35990, Note_on_c, 1, 40, 0
3, 36000, Note_on_c, 1, 41, 39
3, 36092, Note_on_c, 1, 36, 17
3, 36103, Note_on_c, 1, 36, 0
3, 36108, Note_on_c, 1, 41, 0
3, 36115, Note_on_c, 1, 44, 26
3, 36142, Note_on_c, 1, 44, 0
3, 36156, Note_on_c, 1, 41, 45
3, 36168, Note_on_c, 1, 41, 0
3, 36191, Note_on_c, 1, 36, 48
3, 36210, Note_on_c, 1, 36, 0
3, 36232, Note_on_c, 1, 33, 50
3, 36352, Note_on_c, 1, 33, 0
3, 36354, Note_on_c, 1, 34, 49
3, 36477, Note_on_c, 1, 34, 0
3, 36477, Note_on_c, 1, 46, 51
3, 36557, Note_on_c, 1, 37, 34
3, 36567, Note_on_c, 1, 46, 0
3, 36578, Note_on_c, 1, 37, 0
3, 36591, Note_on_c, 1, 38, 53
3, 36699, Note_on_c, 1, 38, 0
3, 36709, Note_on_c, 1, 39, 47
3, 36827, Note_on_c, 1, 41, 46
3, 36839, Note_on_c, 1, 39, 0
3, 36911, Note_on_c, 1, 39, 27
3, 36929, Note_on_c, 1, 39, 0
3, 36942, Note_on_c, 1, 41, 0
3, 36952, Note_on_c, 1, 43, 48
3, 37073, Note_on_c, 1, 43, 0
3, 37074, Note_on_c, 1, 46, 26
3, 37195, Note_on_c, 1, 51, 52
3, 37208, Note_on_c, 1, 46, 0
3, 37312, Note_on_c, 1, 46, 38
3, 37317, Note_on_c, 1, 51, 0
3, 37397, Note_on_c, 1, 44, 27
3, 37400, Note_on_c, 1, 46, 0
3, 37421, Note_on_c, 1, 44, 0
3, 37434, Note_on_c, 1, 45, 41
3, 37512, Note_on_c, 1, 40, 20
3, 37520, Note_on_c, 1, 40, 0
3, 37555, Note_on_c, 1, 33, 61
3, 37632, Note_on_c, 1, 45, 0
3, 37677, Note_on_c, 1, 45, 51
3, 37694, Note_on_c, 1, 33, 0
3, 37697, Note_on_c, 1, 45, 0
3, 37751, Note_on_c, 1, 41, 58
3, 37784, Note_on_c, 1, 41, 0
3, 37795, Note_on_c, 1, 33, 50
3, 37916, Note_on_c, 1, 45, 58
3, 37930, Note_on_c, 1, 45, 0
3, 37990, Note_on_c, 1, 41, 48
3, 37991, Note_on_c, 1, 33, 0
3, 38015, Note_on_c, 1, 41, 0
3, 38031, Note_on_c, 1, 33, 58
3, 38143, Note_on_c, 1, 33, 0
3, 38154, Note_on_c, 1, 45, 57
3, 38186, Note_on_c, 1, 45, 0
3, 38229, Note_on_c, 1, 42, 52
3, 38264, Note_on_c, 1, 42, 0
3, 38272, Note_on_c, 1, 33, 60
3, 38395, Note_on_c, 1, 33, 0
3, 38395, Note_on_c, 1, 45, 69
3, 38437, Note_on_c, 1, 45, 0
3, 38472, Note_on_c, 1, 42, 65
3, 38503, Note_on_c, 1, 42, 0
3, 38512, Note_on_c, 1, 33, 66
3, 38634, Note_on_c, 1, 45, 70
3, 38635, Note_on_c, 1, 33, 0
3, 38679, Note_on_c, 1, 45, 0
3, 38713, Note_on_c, 1, 42, 45
3, 38735, Note_on_c, 1, 42, 0
3, 38750, Note_on_c, 1, 33, 59
3, 38805, Note_on_c, 1, 33, 0
3, 38828, Note_on_c, 1, 42, 57
3, 38864, Note_on_c, 1, 42, 0
3, 38873, Note_on_c, 1, 43, 54
3, 39063, Note_on_c, 1, 38, 50
3, 39075, Note_on_c, 1, 38, 0
3, 39107, Note_on_c, 1, 31, 49
3, 39160, Note_on_c, 1, 43, 0
3, 39183, Note_on_c, 1, 31, 0
3, 39188, Note_on_c, 1, 38, 42
3, 39215, Note_on_c, 1, 38, 0
3, 39228, Note_on_c, 1, 41, 71
3, 39522, Note_on_c, 1, 36, 44
3, 39530, Note_on_c, 1, 36, 0
3, 39534, Note_on_c, 1, 41, 0
3, 39590, Note_on_c, 1, 39, 49
3, 39842, Note_on_c, 1, 39, 0
3, 39845, Note_on_c, 1, 51, 67
3, 39857, Note_on_c, 1, 51, 0
3, 39916, Note_on_c, 1, 44, 36
3, 39929, Note_on_c, 1, 44, 0
3, 39956, Note_on_c, 1, 49, 50
3, 40059, Note_on_c, 1, 49, 0
3, 40069, Note_on_c, 1, 44, 35
3, 40181, Note_on_c, 1, 44, 0
3, 40190, Note_on_c, 1, 43, 43
3, 40276, Note_on_c, 1, 36, 70
3, 40283, Note_on_c, 1, 43, 0
3, 40307, Note_on_c, 1, 36, 0
3, 40310, Note_on_c, 1, 48, 70
3, 40437, Note_on_c, 1, 48, 0
3, 40437, Note_on_c, 1, 43, 45
3, 40548, Note_on_c, 1, 43, 0
3, 40552, Note_on_c, 1, 42, 49
3, 40671, Note_on_c, 1, 42, 0
3, 40678, Note_on_c, 1, 43, 52
3, 40793, Note_on_c, 1, 31, 62
3, 40816, Note_on_c, 1, 43, 0
3, 40910, Note_on_c, 1, 31, 0
3, 40913, Note_on_c, 1, 43, 62
3, 40992, Note_on_c, 1, 42, 43
3, 40996, Note_on_c, 1, 43, 0
3, 41023, Note_on_c, 1, 42, 0
3, 41032, Note_on_c, 1, 43, 56
3, 41156, Note_on_c, 1, 31, 65
3, 41176, Note_on_c, 1, 43, 0
3, 41280, Note_on_c, 1, 31, 0
3, 41281, Note_on_c, 1, 43, 64
3, 41355, Note_on_c, 1, 43, 0
3, 41357, Note_on_c, 1, 42, 54
3, 41391, Note_on_c, 1, 42, 0
3, 41398, Note_on_c, 1, 41, 59
3, 41513, Note_on_c, 1, 36, 54
3, 41515, Note_on_c, 1, 41, 0
3, 41630, Note_on_c, 1, 32, 53
3, 41631, Note_on_c, 1, 36, 0
3, 41707, Note_on_c, 1, 39, 57
3, 41734, Note_on_c, 1, 32, 0
3, 41746, Note_on_c, 1, 39, 0
3, 41747, Note_on_c, 1, 40, 65
3, 41874, Note_on_c, 1, 47, 64
3, 41880, Note_on_c, 1, 40, 0
3, 41953, Note_on_c, 1, 40, 35
3, 41970, Note_on_c, 1, 40, 0
3, 41988, Note_on_c, 1, 47, 0
3, 41993, Note_on_c, 1, 43, 47
3, 42062, Note_on_c, 1, 43, 0
3, 42071, Note_on_c, 1, 46, 59
3, 42074, Note_on_c, 1, 39, 20
3, 42092, Note_on_c, 1, 39, 0
3, 42100, Note_on_c, 1, 46, 0
3, 42112, Note_on_c, 1, 45, 40
3, 42128, Note_on_c, 1, 45, 0
3, 42150, Note_on_c, 1, 40, 45
3, 42169, Note_on_c, 1, 40, 0
3, 42188, Note_on_c, 1, 36, 51
3, 42216, Note_on_c, 1, 36, 0
3, 42230, Note_on_c, 1, 39, 64
3, 42346, Note_on_c, 1, 39, 0
3, 42351, Note_on_c, 1, 37, 55
3, 42474, Note_on_c, 1, 38, 57
3, 42476, Note_on_c, 1, 37, 0
3, 42591, Note_on_c, 1, 38, 0
3, 42593, Note_on_c, 1, 51, 57
3, 42713, Note_on_c, 1, 51, 0
3, 42716, Note_on_c, 1, 50, 38
3, 42834, Note_on_c, 1, 44, 29
3, 42836, Note_on_c, 1, 50, 0
3, 42954, Note_on_c, 1, 32, 54
3, 43042, Note_on_c, 1, 44, 0
3, 43076, Note_on_c, 1, 44, 54
3, 43181, Note_on_c, 1, 44, 0
3, 43190, Note_on_c, 1, 32, 0
3, 43192, Note_on_c, 1, 43, 58
3, 43311, Note_on_c, 1, 31, 74
3, 43371, Note_on_c, 1, 43, 0
3, 43435, Note_on_c, 1, 43, 79
3, 43532, Note_on_c, 1, 43, 0
3, 43551, Note_on_c, 1, 43, 66
3, 43600, Note_on_c, 1, 31, 0
3, 43680, Note_on_c, 1, 31, 50
3, 43687, Note_on_c, 1, 43, 0
3, 43756, Note_on_c, 1, 41, 41
3, 43778, Note_on_c, 1, 41, 0
3, 43795, Note_on_c, 1, 42, 61
3, 43830, Note_on_c, 1, 31, 0
3, 43881, Note_on_c, 1, 31, 25
3, 43891, Note_on_c, 1, 31, 0
3, 43903, Note_on_c, 1, 42, 0
3, 43916, Note_on_c, 1, 43, 54
3, 44036, Note_on_c, 1, 31, 60
3, 44044, Note_on_c, 1, 43, 0
3, 44116, Note_on_c, 1, 38, 37
3, 44125, Note_on_c, 1, 38, 0
3, 44153, Note_on_c, 1, 43, 70
3, 44168, Note_on_c, 1, 31, 0
3, 44239, Note_on_c, 1, 38, 26
3, 44254, Note_on_c, 1, 38, 0
3, 44256, Note_on_c, 1, 43, 0
3, 44278, Note_on_c, 1, 43, 64
3, 44395, Note_on_c, 1, 31, 44
3, 44406, Note_on_c, 1, 43, 0
3, 44470, Note_on_c, 1, 31, 0
3, 44474, Note_on_c, 1, 34, 39
3, 44516, Note_on_c, 1, 35, 59
3, 44520, Note_on_c, 1, 34, 0
3, 44606, Note_on_c, 1, 34, 20
3, 44619, Note_on_c, 1, 35, 0
3, 44633, Note_on_c, 1, 34, 0
3, 44634, Note_on_c, 1, 36, 52
3, 44729, Note_on_c, 1, 34, 9
3, 44753, Note_on_c, 1, 36, 0
3, 44759, Note_on_c, 1, 45, 64
3, 44770, Note_on_c, 1, 34, 0
3, 44871, Note_on_c, 1, 45, 0
3, 44875, Note_on_c, 1, 43, 49
3, 44955, Note_on_c, 1, 38, 33
3, 44959, Note_on_c, 1, 43, 0
3, 44979, Note_on_c, 1, 38, 0
3, 44991, Note_on_c, 1, 39, 52
3, 45112, Note_on_c, 1, 51, 74
3, 45119, Note_on_c, 1, 39, 0
3, 45234, Note_on_c, 1, 48, 39
3, 45235, Note_on_c, 1, 51, 0
3, 45321, Note_on_c, 1, 42, 27
3, 45343, Note_on_c, 1, 48, 0
3, 45344, Note_on_c, 1, 42, 0
3, 45354, Note_on_c, 1, 44, 27
3, 45470, Note_on_c, 1, 44, 0
3, 45472, Note_on_c, 1, 37, 37
3, 45590, Note_on_c, 1, 37, 0
3, 45593, Note_on_c, 1, 42, 64
3, 45707, Note_on_c, 1, 42, 0
3, 45714, Note_on_c, 1, 43, 50
3, 45782, Note_on_c, 1, 43, 0
3, 45793, Note_on_c, 1, 38, 53
3, 45812, Note_on_c, 1, 38, 0
3, 45831, Note_on_c, 1, 35, 58
3, 45946, Note_on_c, 1, 35, 0
3, 45950, Note_on_c, 1, 31, 46
3, 46006, Note_on_c, 1, 31, 0
3, 46080, Note_on_c, 1, 48, 73
3, 46197, Note_on_c, 1, 48, 0
3, 46198, Note_on_c, 1, 43, 39
3, 46306, Note_on_c, 1, 43, 0
3, 46310, Note_on_c, 1, 40, 48
3, 46382, Note_on_c, 1, 40, 0
3, 46392, Note_on_c, 1, 42, 59
3, 46416, Note_on_c, 1, 42, 0
3, 46427, Note_on_c, 1, 43, 65
3, 46510, Note_on_c, 1, 43, 0
3, 46511, Note_on_c, 1, 38, 47
3, 46528, Note_on_c, 1, 38, 0
3, 46545, Note_on_c, 1, 35, 56
3, 46666, Note_on_c, 1, 35, 0
3, 46671, Note_on_c, 1, 38, 56
3, 46754, Note_on_c, 1, 38, 0
3, 46755, Note_on_c, 1, 35, 40
3, 46781, Note_on_c, 1, 35, 0
3, 46794, Note_on_c, 1, 36, 53
3, 46917, Note_on_c, 1, 50, 74
3, 46924, Note_on_c, 1, 36, 0
3, 47032, Note_on_c, 1, 50, 0
3, 47032, Note_on_c, 1, 48, 55
3, 47113, Note_on_c, 1, 48, 0
3, 47113, Note_on_c, 1, 44, 52
3, 47147, Note_on_c, 1, 44, 0
3, 47150, Note_on_c, 1, 43, 54
3, 47264, Note_on_c, 1, 43, 0
3, 47272, Note_on_c, 1, 43, 51
3, 47352, Note_on_c, 1, 42, 58
3, 47354, Note_on_c, 1, 43, 0
3, 47380, Note_on_c, 1, 42, 0
3, 47390, Note_on_c, 1, 41, 60
3, 47458, Note_on_c, 1, 41, 0
3, 47471, Note_on_c, 1, 39, 52
3, 47494, Note_on_c, 1, 39, 0
3, 47507, Note_on_c, 1, 40, 59
3, 47600, Note_on_c, 1, 39, 13
3, 47622, Note_on_c, 1, 39, 0
3, 47622, Note_on_c, 1, 40, 0
3, 47631, Note_on_c, 1, 47, 98
3, 47793, Note_on_c, 1, 47, 0
3, 47802, Note_on_c, 1, 44, 30
3, 47821, Note_on_c, 1, 44, 0
3, 47837, Note_on_c, 1, 44, 64
3, 47855, Note_on_c, 1, 44, 0
3, 47874, Note_on_c, 1, 46, 57
3, 47925, Note_on_c, 1, 46, 0
3, 47949, Note_on_c, 1, 45, 77
3, 47966, Note_on_c, 1, 45, 0
3, 47987, Note_on_c, 1, 40, 50
3, 48097, Note_on_c, 1, 40, 0
3, 48112, Note_on_c, 1, 37, 25
3, 48114, Note_on_c, 1, 36, 54
3, 48137, Note_on_c, 1, 36, 0
3, 48156, Note_on_c, 1, 37, 0
3, 48191, Note_on_c, 1, 34, 51
3, 48212, Note_on_c, 1, 34, 0
3, 48223, Note_on_c, 1, 33, 58
3, 48345, Note_on_c, 1, 45, 70
3, 48351, Note_on_c, 1, 33, 0
3, 48427, Note_on_c, 1, 40, 48
3, 48429, Note_on_c, 1, 45, 0
3, 48445, Note_on_c, 1, 40, 0
3, 48461, Note_on_c, 1, 39, 61
3, 48583, Note_on_c, 1, 39, 0
3, 48592, Note_on_c, 1, 38, 51
3, 48714, Note_on_c, 1, 54, 50
3, 48780, Note_on_c, 1, 38, 0
3, 48916, Note_on_c, 1, 49, 24
3, 48932, Note_on_c, 1, 54, 0
3, 48933, Note_on_c, 1, 49, 0
3, 48949, Note_on_c, 1, 50, 43
3, 49029, Note_on_c, 1, 45, 56
3, 49035, Note_on_c, 1, 50, 0
3, 49050, Note_on_c, 1, 45, 0
3, 49069, Note_on_c, 1, 41, 38
3, 49185, Note_on_c, 1, 41, 0
3, 49192, Note_on_c, 1, 44, 43
3, 49299, Note_on_c, 1, 44, 0
3, 49311, Note_on_c, 1, 43, 44
3, 49330, Note_on_c, 1, 43, 0
3, 49344, Note_on_c, 1, 38, 38
3, 49357, Note_on_c, 1, 38, 0
3, 49387, Note_on_c, 1, 32, 48
3, 49500, Note_on_c, 1, 36, 52
3, 49502, Note_on_c, 1, 32, 0
3, 49580, Note_on_c, 1, 36, 0
3, 49586, Note_on_c, 1, 39, 50
3, 49605, Note_on_c, 1, 39, 0
3, 49622, Note_on_c, 1, 37, 43
3, 49659, Note_on_c, 1, 37, 0
3, 49665, Note_on_c, 1, 38, 33
3, 49751, Note_on_c, 1, 37, 24
3, 49771, Note_on_c, 1, 38, 0
3, 49787, Note_on_c, 1, 37, 0
3, 49793, Note_on_c, 1, 45, 70
3, 49899, Note_on_c, 1, 45, 0
3, 49912, Note_on_c, 1, 44, 43
3, 50025, Note_on_c, 1, 44, 0
3, 50036, Note_on_c, 1, 43, 38
3, 50142, Note_on_c, 1, 43, 0
3, 50147, Note_on_c, 1, 35, 53
3, 50234, Note_on_c, 1, 38, 36
3, 50255, Note_on_c, 1, 38, 0
3, 50259, Note_on_c, 1, 35, 0
3, 50266, Note_on_c, 1, 50, 75
3, 50378, Note_on_c, 1, 50, 0
3, 50387, Note_on_c, 1, 48, 38
3, 50509, Note_on_c, 1, 43, 33
3, 50515, Note_on_c, 1, 48, 0
3, 50591, Note_on_c, 1, 55, 61
3, 50619, Note_on_c, 1, 55, 0
3, 50631, Note_on_c, 1, 43, 0
3, 50636, Note_on_c, 1, 51, 45
3, 50740, Note_on_c, 1, 51, 0
3, 50750, Note_on_c, 1, 46, 39
3, 50868, Note_on_c, 1, 39, 40
3, 50869, Note_on_c, 1, 46, 0
3, 50988, Note_on_c, 1, 43, 43
3, 50997, Note_on_c, 1, 39, 0
3, 51111, Note_on_c, 1, 43, 0
3, 51113, Note_on_c, 1, 44, 49
3, 51232, Note_on_c, 1, 39, 45
3, 51243, Note_on_c, 1, 44, 0
3, 51355, Note_on_c, 1, 32, 47
3, 51358, Note_on_c, 1, 39, 0
3, 51430, Note_on_c, 1, 39, 21
3, 51438, Note_on_c, 1, 44, 68
3, 51448, Note_on_c, 1, 39, 0
3, 51450, Note_on_c, 1, 32, 0
3, 51464, Note_on_c, 1, 44, 0
3, 51475, Note_on_c, 1, 43, 47
3, 51488, Note_on_c, 1, 43, 0
3, 51517, Note_on_c, 1, 38, 47
3, 51534, Note_on_c, 1, 38, 0
3, 51552, Note_on_c, 1, 32, 57
3, 51582, Note_on_c, 1, 32, 0
3, 51595, Note_on_c, 1, 31, 61
3, 51706, Note_on_c, 1, 31, 0
3, 51708, Note_on_c, 1, 33, 46
3, 51729, Note_on_c, 1, 33, 0
3, 51745, Note_on_c, 1, 34, 44
3, 51760, Note_on_c, 1, 34, 0
3, 51782, Note_on_c, 1, 35, 68
3, 51819, Note_on_c, 1, 35, 0
3, 51827, Note_on_c, 1, 36, 64
3, 51948, Note_on_c, 1, 36, 0
3, 51953, Note_on_c, 1, 38, 39
3, 51969, Note_on_c, 1, 38, 0
3, 51993, Note_on_c, 1, 39, 32
3, 52013, Note_on_c, 1, 39, 0
3, 52030, Note_on_c, 1, 40, 47
3, 52054, Note_on_c, 1, 40, 0
3, 52068, Note_on_c, 1, 45, 65
3, 52102, Note_on_c, 1, 45, 0
3, 52109, Note_on_c, 1, 44, 30
3, 52140, Note_on_c, 1, 44, 0
3, 52148, Note_on_c, 1, 43, 63
3, 52315, Note_on_c, 1, 38, 35
3, 52327, Note_on_c, 1, 43, 0
3, 52424, Note_on_c, 1, 38, 0
3, 52432, Note_on_c, 1, 35, 44
3, 52541, Note_on_c, 1, 35, 0
3, 52552, Note_on_c, 1, 36, 39
3, 52671, Note_on_c, 1, 45, 68
3, 52675, Note_on_c, 1, 36, 0
3, 52756, Note_on_c, 1, 36, 26
3, 52767, Note_on_c, 1, 36, 0
3, 52775, Note_on_c, 1, 45, 0
3, 52789, Note_on_c, 1, 44, 45
3, 52906, Note_on_c, 1, 44, 0
3, 52909, Note_on_c, 1, 43, 48
3, 52992, Note_on_c, 1, 41, 28
3, 53003, Note_on_c, 1, 41, 0
3, 53012, Note_on_c, 1, 43, 0
3, 53025, Note_on_c, 1, 55, 58
3, 53121, Note_on_c, 1, 55, 0
3, 53143, Note_on_c, 1, 46, 45
3, 53224, Note_on_c, 1, 46, 0
3, 53226, Note_on_c, 1, 43, 44
3, 53242, Note_on_c, 1, 43, 0
3, 53264, Note_on_c, 1, 42, 58
3, 53384, Note_on_c, 1, 49, 41
3, 53405, Note_on_c, 1, 42, 0
3, 53461, Note_on_c, 1, 42, 49
3, 53468, Note_on_c, 1, 49, 0
3, 53507, Note_on_c, 1, 48, 61
3, 53513, Note_on_c, 1, 42, 0
3, 53577, Note_on_c, 1, 48, 0
3, 53584, Note_on_c, 1, 45, 40
3, 53606, Note_on_c, 1, 45, 0
3, 53624, Note_on_c, 1, 47, 63
3, 53708, Note_on_c, 1, 42, 46
3, 53719, Note_on_c, 1, 47, 0
3, 53726, Note_on_c, 1, 42, 0
3, 53745, Note_on_c, 1, 35, 58
3, 53830, Note_on_c, 1, 42, 17
3, 53854, Note_on_c, 1, 42, 0
3, 53869, Note_on_c, 1, 47, 70
3, 53880, Note_on_c, 1, 35, 0
3, 53989, Note_on_c, 1, 35, 58
3, 54004, Note_on_c, 1, 47, 0
3, 54071, Note_on_c, 1, 40, 38
3, 54081, Note_on_c, 1, 40, 0
3, 54107, Note_on_c, 1, 47, 75
3, 54110, Note_on_c, 1, 35, 0
3, 54221, Note_on_c, 1, 47, 0
3, 54221, Note_on_c, 1, 35, 71
3, 54310, Note_on_c, 1, 40, 41
3, 54338, Note_on_c, 1, 40, 0
3, 54345, Note_on_c, 1, 35, 0
3, 54348, Note_on_c, 1, 47, 75
3, 54469, Note_on_c, 1, 35, 61
3, 54471, Note_on_c, 1, 47, 0
3, 54586, Note_on_c, 1, 47, 73
3, 54590, Note_on_c, 1, 35, 0
3, 54671, Note_on_c, 1, 35, 61
3, 54672, Note_on_c, 1, 47, 0
3, 54707, Note_on_c, 1, 42, 67
3, 54712, Note_on_c, 1, 35, 0
3, 54832, Note_on_c, 1, 35, 66
3, 54835, Note_on_c, 1, 42, 0
3, 54909, Note_on_c, 1, 40, 46
3, 54932, Note_on_c, 1, 40, 0
3, 54942, Note_on_c, 1, 35, 0
3, 54946, Note_on_c, 1, 47, 77
3, 55056, Note_on_c, 1, 47, 0
3, 55066, Note_on_c, 1, 42, 50
3, 55190, Note_on_c, 1, 42, 0
3, 55192, Note_on_c, 1, 35, 50
3, 55270, Note_on_c, 1, 37, 38
3, 55275, Note_on_c, 1, 35, 0
3, 55279, Note_on_c, 1, 37, 0
3, 55306, Note_on_c, 1, 39, 57
3, 55400, Note_on_c, 1, 37, 8
3, 55418, Note_on_c, 1, 39, 0
3, 55420, Note_on_c, 1, 37, 0
3, 55425, Note_on_c, 1, 40, 47
3, 55517, Note_on_c, 1, 39, 26
3, 55537, Note_on_c, 1, 40, 0
3, 55546, Note_on_c, 1, 39, 0
3, 55548, Note_on_c, 1, 54, 62
3, 55671, Note_on_c, 1, 54, 0
3, 55671, Note_on_c, 1, 52, 47
3, 55779, Note_on_c, 1, 52, 0
3, 55786, Note_on_c, 1, 51, 44
3, 55905, Note_on_c, 1, 47, 43
3, 56111, Note_on_c, 1, 40, 50
3, 56120, Note_on_c, 1, 51, 0
3, 56124, Note_on_c, 1, 47, 0
3, 56145, Note_on_c, 1, 40, 0
3, 56155, Note_on_c, 1, 41, 39
3, 56247, Note_on_c, 1, 36, 17
3, 56258, Note_on_c, 1, 36, 0
3, 56263, Note_on_c, 1, 41, 0
3, 56270, Note_on_c, 1, 44, 26
3, 56297, Note_on_c, 1, 44, 0
3, 56311, Note_on_c, 1, 41, 45
3, 56323, Note_on_c, 1, 41, 0
3, 56346, Note_on_c, 1, 36, 48
3, 56365, Note_on_c, 1, 36, 0
3, 56387, Note_on_c, 1, 33, 50
3, 56507, Note_on_c, 1, 33, 0
3, 56509, Note_on_c, 1, 34, 49
3, 56632, Note_on_c, 1, 34, 0
3, 56632, Note_on_c, 1, 46, 51
3, 56712, Note_on_c, 1, 37, 34
3, 56722, Note_on_c, 1, 46, 0
3, 56733, Note_on_c, 1, 37, 0
3, 56746, Note_on_c, 1, 38, 53
3, 56854, Note_on_c, 1, 38, 0
3, 56864, Note_on_c, 1, 39, 47
3, 56982, Note_on_c, 1, 41, 46
3, 56994, Note_on_c, 1, 39, 0
3, 57066, Note_on_c, 1, 39, 27
3, 57084, Note_on_c, 1, 39, 0
3, 57097, Note_on_c, 1, 41, 0
3, 57107, Note_on_c, 1, 43, 48
3, 57228, Note_on_c, 1, 43, 0
3, 57229, Note_on_c, 1, 46, 26
3, 57350, Note_on_c, 1, 51, 52
3, 57363, Note_on_c, 1, 46, 0
3, 57467, Note_on_c, 1, 46, 38
3, 57472, Note_on_c, 1, 51, 0
3, 57552, Note_on_c, 1, 44, 27
3, 57555, Note_on_c, 1, 46, 0
3, 57576, Note_on_c, 1, 44, 0
3, 57589, Note_on_c, 1, 45, 41
3, 57667, Note_on_c, 1, 40, 20
3, 57675, Note_on_c, 1, 40, 0
3, 57710, Note_on_c, 1, 33, 61
3, 57787, Note_on_c, 1, 45, 0
3, 57832, Note_on_c, 1, 45, 51
3, 57849, Note_on_c, 1, 33, 0
3, 57852, Note_on_c, 1, 45, 0
3, 57906, Note_on_c, 1, 41, 58
3, 57939, Note_on_c, 1, 41, 0
3, 57950, Note_on_c, 1, 33, 50
3, 58071, Note_on_c, 1, 45, 58
3, 58085, Note_on_c, 1, 45, 0
3, 58145, Note_on_c, 1, 41, 48
3, 58146, Note_on_c, 1, 33, 0
3, 58170, Note_on_c, 1, 41, 0
3, 58186, Note_on_c, 1, 33, 58
3, 58298, Note_on_c, 1, 33, 0
3, 58309, Note_on_c, 1, 45, 57
3, 58341, Note_on_c, 1, 45, 0
3, 58384, Note_on_c, 1, 42, 52
3, 58419, Note_on_c, 1, 42, 0
3, 58427, Note_on_c, 1, 33, 60
3, 58550, Note_on_c, 1, 33, 0
3, 58550, Note_on_c, 1, 45, 69
3, 58592, Note_on_c, 1, 45, 0
3, 58627, Note_on_c, 1, 42, 65
3, 58658, Note_on_c, 1, 42, 0
3, 58667, Note_on_c, 1, 33, 66
3, 58789, Note_on_c, 1, 45, 70
3, 58790, Note_on_c, 1, 33, 0
3, 58834, Note_on_c, 1, 45, 0
3, 58868, Note_on_c, 1, 42, 45
3, 58890, Note_on_c, 1, 42, 0
3, 58905, Note_on_c, 1, 33, 59
3, 58960, Note_on_c, 1, 33, 0
3, 58983, Note_on_c, 1, 42, 57
3, 59019, Note_on_c, 1, 42, 0
3, 59028, Note_on_c, 1, 43, 54
3, 59218, Note_on_c, 1, 38, 50
3, 59230, Note_on_c, 1, 38, 0
3, 59262, Note_on_c, 1, 31, 49
3, 59315, Note_on_c, 1, 43, 0
3, 59338, Note_on_c, 1, 31, 0
3, 59343, Note_on_c, 1, 38, 42
3, 59370, Note_on_c, 1, 38, 0
3, 59383, Note_on_c, 1, 41, 71
3, 59677, Note_on_c, 1, 36, 44
3, 59685, Note_on_c, 1, 36, 0
3, 59689, Note_on_c, 1, 41, 0
3, 59745, Note_on_c, 1, 39, 49
3, 59997, Note_on_c, 1, 39, 0
3, 60000, Note_on_c, 1, 51, 67
3, 60012, Note_on_c, 1, 51, 0
3, 60071, Note_on_c, 1, 44, 36
3, 60084, Note_on_c, 1, 44, 0
3, 60111, Note_on_c, 1, 49, 50
3, 60214, Note_on_c, 1, 49, 0
3, 60224, Note_on_c, 1, 44, 35
3, 60336, Note_on_c, 1, 44, 0
3, 60345, Note_on_c, 1, 43, 43
3, 60431, Note_on_c, 1, 36, 70
3, 60438, Note_on_c, 1, 43, 0
3, 60462, Note_on_c, 1, 36, 0
3, 60465, Note_on_c, 1, 48, 70
3, 60592, Note_on_c, 1, 48, 0
3, 60592, Note_on_c, 1, 43, 45
3, 60703, Note_on_c, 1, 43, 0
3, 60707, Note_on_c, 1, 42, 49
3, 60826, Note_on_c, 1, 42, 0
3, 60833, Note_on_c, 1, 43, 52
3, 60948, Note_on_c, 1, 31, 62
3, 60971, Note_on_c, 1, 43, 0
3, 61065, Note_on_c, 1, 31, 0
3, 61068, Note_on_c, 1, 43, 62
3, 61147, Note_on_c, 1, 42, 43
3, 61151, Note_on_c, 1, 43, 0
3, 61178, Note_on_c, 1, 42, 0
3, 61187, Note_on_c, 1, 43, 56
3, 61311, Note_on_c, 1, 31, 65
3, 61331, Note_on_c, 1, 43, 0
3, 61435, Note_on_c, 1, 31, 0
3, 61436, Note_on_c, 1, 43, 64
3, 61510, Note_on_c, 1, 43, 0
3, 61512, Note_on_c, 1, 42, 54
3, 61546, Note_on_c, 1, 42, 0
3, 61553, Note_on_c, 1, 41, 59
3, 61668, Note_on_c, 1, 36, 54
3, 61670, Note_on_c, 1, 41, 0
3, 61785, Note_on_c, 1, 32, 53
3, 61786, Note_on_c, 1, 36, 0
3, 61862, Note_on_c, 1, 39, 57
3, 61889, Note_on_c, 1, 32, 0
3, 61901, Note_on_c, 1, 39, 0
3, 61902, Note_on_c, 1, 40, 65
3, 62029, Note_on_c, 1, 47, 64
3, 62035, Note_on_c, 1, 40, 0
3, 62108, Note_on_c, 1, 40, 35
3, 62125, Note_on_c, 1, 40, 0
3, 62143, Note_on_c, 1, 47, 0
3, 62148, Note_on_c, 1, 43, 47
3, 62217, Note_on_c, 1, 43, 0
3, 62226, Note_on_c, 1, 46, 59
3, 62229, Note_on_c, 1, 39, 20
3, 62247, Note_on_c, 1, 39, 0
3, 62255, Note_on_c, 1, 46, 0
3, 62267, Note_on_c, 1, 45, 40
3, 62283, Note_on_c, 1, 45, 0
3, 62305, Note_on_c, 1, 40, 45
3, 62324, Note_on_c, 1, 40, 0
3, 62343, Note_on_c, 1, 36, 51
3, 62371, Note_on_c, 1, 36, 0
3, 62385, Note_on_c, 1, 39, 64
3, 62501, Note_on_c, 1, 39, 0
3, 62506, Note_on_c, 1, 37, 55
3, 62629, Note_on_c, 1, 38, 57
3, 62631, Note_on_c, 1, 37, 0
3, 62746, Note_on_c, 1, 38, 0
3, 62748, Note_on_c, 1, 51, 57
3, 62868, Note_on_c, 1, 51, 0
3, 62871, Note_on_c, 1, 50, 38
3, 62989, Note_on_c, 1, 44, 29
3, 62991, Note_on_c, 1, 50, 0
3, 63109, Note_on_c, 1, 32, 54
3, 63197, Note_on_c, 1, 44, 0
3, 63231, Note_on_c, 1, 44, 54
3, 63336, Note_on_c, 1, 44, 0
3, 63345, Note_on_c, 1, 32, 0
3, 63347, Note_on_c, 1, 43, 58
3, 63466, Note_on_c, 1, 31, 74
3, 63526, Note_on_c, 1, 43, 0
3, 63590, Note_on_c, 1, 43, 79
3, 63687, Note_on_c, 1, 43, 0
3, 63706, Note_on_c, 1, 43, 66
3, 63755, Note_on_c, 1, 31, 0
3, 63835, Note_on_c, 1, 31, 50
3, 63842, Note_on_c, 1, 43, 0
3, 63911, Note_on_c, 1, 41, 41
3, 63933, Note_on_c, 1, 41, 0
3, 63950, Note_on_c, 1, 42, 61
3, 63985, Note_on_c, 1, 31, 0
3, 64036, Note_on_c, 1, 31, 25
3, 64046, Note_on_c, 1, 31, 0
3, 64058, Note_on_c, 1, 42, 0
3, 64071, Note_on_c, 1, 43, 54
3, 64191, Note_on_c, 1, 31, 60
3, 64199, Note_on_c, 1, 43, 0
3, 64271, Note_on_c, 1, 38, 37
3, 64280, Note_on_c, 1, 38, 0
3, 64308, Note_on_c, 1, 43, 70
3, 64323, Note_on_c, 1, 31, 0
3, 64394, Note_on_c, 1, 38, 26
3, 64409, Note_on_c, 1, 38, 0
3, 64411, Note_on_c, 1, 43, 0
3, 64433, Note_on_c, 1, 43, 64
3, 64550, Note_on_c, 1, 31, 44
3, 64561, Note_on_c, 1, 43, 0
3, 64625, Note_on_c, 1, 31, 0
3, 64629, Note_on_c, 1, 34, 39
3, 64671, Note_on_c, 1, 35, 59
3, 64675, Note_on_c, 1, 34, 0
3, 64761, Note_on_c, 1, 34, 20
3, 64774, Note_on_c, 1, 35, 0
3, 64788, Note_on_c, 1, 34, 0
3, 64789, Note_on_c, 1, 36, 52
3, 64884, Note_on_c, 1, 34, 9
3, 64908, Note_on_c, 1, 36, 0
3, 64914, Note_on_c, 1, 45, 64
3, 64925, Note_on_c, 1, 34, 0
3, 65026, Note_on_c, 1, 45, 0
3, 65030, Note_on_c, 1, 43, 49
3, 65110, Note_on_c, 1, 38, 33
3, 65114, Note_on_c, 1, 43, 0
3, 65134, Note_on_c, 1, 38, 0
3, 65146, Note_on_c, 1, 39, 52
3, 65267, Note_on_c, 1, 51, 74
3, 65274, Note_on_c, 1, 39, 0
3, 65389, Note_on_c, 1, 48, 39
3, 65390, Note_on_c, 1, 51, 0
3, 65476, Note_on_c, 1, 42, 27
3, 65498, Note_on_c, 1, 48, 0
3, 65499, Note_on_c, 1, 42, 0
3, 65509, Note_on_c, 1, 44, 27
3, 65625, Note_on_c, 1, 44, 0
3, 65627, Note_on_c, 1, 37, 37
3, 65745, Note_on_c, 1, 37, 0
3, 65748, Note_on_c, 1, 42, 64
3, 65862, Note_on_c, 1, 42, 0
3, 65869, Note_on_c, 1, 43, 50
3, 65937, Note_on_c, 1, 43, 0
3, 65948, Note_on_c, 1, 38, 53
3, 65967, Note_on_c, 1, 38, 0
3, 65986, Note_on_c, 1, 35, 58
3, 66101, Note_on_c, 1, 35, 0
3, 66105, Note_on_c, 1, 31, 46
3, 66161, Note_on_c, 1, 31, 0
3, 66197, Note_on_c, 1, 50, 64
3, 66225, Note_on_c, 1, 50, 0
3, 66242, Note_on_c, 1, 48, 71
3, 66600, Note_on_c, 1, 48, 0
3, 66603, Note_on_c, 1, 43, 66
3, 66820, Note_on_c, 1, 43, 0
3, 66841, Note_on_c, 1, 43, 55
3, 66923, Note_on_c, 1, 43, 0
3, 66925, Note_on_c, 1, 42, 50
3, 66949, Note_on_c, 1, 42, 0
3, 66963, Note_on_c, 1, 43, 31
3, 67041, Note_on_c, 1, 43, 0
3, 67044, Note_on_c, 1, 48, 57
3, 67066, Note_on_c, 1, 48, 0
3, 67082, Note_on_c, 1, 50, 74
3, 67190, Note_on_c, 1, 50, 0
3, 67199, Note_on_c, 1, 48, 71
3, 67309, Note_on_c, 1, 48, 0
3, 67321, Note_on_c, 1, 43, 59
3, 67514, Note_on_c, 1, 43, 0
3, 67520, Note_on_c, 1, 41, 87
3, 67528, Note_on_c, 1, 43, 28
3, 67537, Note_on_c, 1, 43, 0
3, 67670, Note_on_c, 1, 41, 0
3, 67682, Note_on_c, 1, 40, 48
3, 67803, Note_on_c, 1, 52, 84
3, 67810, Note_on_c, 1, 40, 0
3, 67946, Note_on_c, 1, 52, 0
3, 67998, Note_on_c, 1, 46, 62
3, 68031, Note_on_c, 1, 46, 0
3, 68049, Note_on_c, 1, 45, 70
3, 68085, Pitch_bend_c, 1, 8192
3, 68088, Pitch_bend_c, 1, 8712
3, 68090, Pitch_bend_c, 1, 8972
3, 68092, Pitch_bend_c, 1, 9232
3, 68094, Pitch_bend_c, 1, 9622
3, 68095, Pitch_bend_c, 1, 9882
3, 68098, Pitch_bend_c, 1, 10142
3, 68100, Pitch_bend_c, 1, 10402
3, 68100, Pitch_bend_c, 1, 10662
3, 68103, Pitch_bend_c, 1, 10792
3, 68112, Pitch_bend_c, 1, 10532
3, 68113, Pitch_bend_c, 1, 10272
3, 68116, Pitch_bend_c, 1, 9882
3, 68118, Pitch_bend_c, 1, 9492
3, 68120, Pitch_bend_c, 1, 8972
3, 68121, Pitch_bend_c, 1, 8192
3, 68123, Pitch_bend_c, 1, 8192
3, 68156, Pitch_bend_c, 1, 8192
3, 68158, Pitch_bend_c, 1, 8712
3, 68160, Pitch_bend_c, 1, 9232
3, 68161, Pitch_bend_c, 1, 9752
3, 68163, Pitch_bend_c, 1, 10142
3, 68164, Pitch_bend_c, 1, 10532
3, 68167, Pitch_bend_c, 1, 10922
3, 68169, Pitch_bend_c, 1, 11052
3, 68170, Pitch_bend_c, 1, 11442
3, 68174, Pitch_bend_c, 1, 11702
3, 68178, Pitch_bend_c, 1, 11832
3, 68185, Pitch_bend_c, 1, 11572
3, 68187, Pitch_bend_c, 1, 11442
3, 68189, Pitch_bend_c, 1, 11052
3, 68191, Pitch_bend_c, 1, 10792
3, 68193, Pitch_bend_c, 1, 10272
3, 68195, Pitch_bend_c, 1, 9882
3, 68196, Pitch_bend_c, 1, 9232
3, 68197, Pitch_bend_c, 1, 8712
3, 68200, Pitch_bend_c, 1, 8192
3, 68200, Pitch_bend_c, 1, 8192
3, 68604, Note_on_c, 1, 40, 60
3, 68628, Note_on_c, 1, 40, 0
3, 68629, Note_on_c, 1, 45, 0
3, 68645, Note_on_c, 1, 39, 50
3, 68728, Note_on_c, 1, 37, 36
3, 68734, Note_on_c, 1, 39, 0
3, 68754, Note_on_c, 1, 37, 0
3, 68762, Note_on_c, 1, 38, 53
3, 68848, Note_on_c, 1, 37, 28
3, 68882, Note_on_c, 1, 54, 50
3, 68891, Note_on_c, 1, 37, 0
3, 69084, Note_on_c, 1, 37, 28
3, 69094, Note_on_c, 1, 54, 0
3, 69103, Note_on_c, 1, 38, 0
3, 69114, Note_on_c, 1, 55, 62
3, 69122, Note_on_c, 1, 37, 0
3, 69226, Note_on_c, 1, 55, 0
3, 69237, Note_on_c, 1, 50, 57
3, 69352, Note_on_c, 1, 50, 0
3, 69359, Note_on_c, 1, 43, 58
3, 69598, Note_on_c, 1, 31, 55
3, 69697, Note_on_c, 1, 31, 0
3, 69705, Note_on_c, 1, 43, 0
3, 69717, Note_on_c, 1, 39, 70
3, 69831, Note_on_c, 1, 39, 0
3, 69838, Note_on_c, 1, 38, 61
3, 69958, Note_on_c, 1, 38, 0
3, 69962, Note_on_c, 1, 52, 99
3, 70160, Note_on_c, 1, 52, 0
3, 70163, Note_on_c, 1, 48, 49
3, 70186, Note_on_c, 1, 48, 0
3, 70205, Note_on_c, 1, 47, 45
3, 70314, Note_on_c, 1, 47, 0
3, 70321, Note_on_c, 1, 43, 49
3, 70525, Note_on_c, 1, 50, 69
3, 70528, Note_on_c, 1, 43, 0
3, 70551, Note_on_c, 1, 50, 0
3, 70567, Note_on_c, 1, 48, 63
3, 70595, Note_on_c, 1, 48, 0
3, 70648, Note_on_c, 1, 48, 51
3, 70671, Note_on_c, 1, 48, 0
3, 70691, Note_on_c, 1, 43, 44
3, 70801, Note_on_c, 1, 43, 0
3, 70806, Note_on_c, 1, 51, 64
3, 70824, Note_on_c, 1, 51, 0
3, 70886, Note_on_c, 1, 51, 60
3, 70923, Note_on_c, 1, 51, 0
3, 70931, Note_on_c, 1, 46, 56
3, 71164, Note_on_c, 1, 43, 54
3, 71174, Note_on_c, 1, 46, 0
3, 71263, Note_on_c, 1, 43, 0
3, 71274, Note_on_c, 1, 44, 59
3, 71389, Note_on_c, 1, 44, 0
3, 71395, Note_on_c, 1, 39, 62
3, 71515, Note_on_c, 1, 56, 60
3, 71540, Note_on_c, 1, 39, 0
3, 71624, Note_on_c, 1, 56, 0
3, 71640, Note_on_c, 1, 55, 38
3, 71757, Note_on_c, 1, 55, 0
3, 71763, Note_on_c, 1, 43, 77
3, 71886, Note_on_c, 1, 50, 81
3, 71892, Note_on_c, 1, 43, 0
3, 71929, Note_on_c, 1, 50, 0
3, 71964, Note_on_c, 1, 47, 58
3, 71976, Note_on_c, 1, 47, 0
3, 72007, Note_on_c, 1, 48, 68
3, 72192, Note_on_c, 1, 48, 0
3, 72202, Note_on_c, 1, 50, 60
3, 72236, Note_on_c, 1, 50, 0
3, 72252, Note_on_c, 1, 48, 48
3, 72288, Note_on_c, 1, 48, 0
3, 72324, Note_on_c, 1, 50, 62
3, 72353, Note_on_c, 1, 50, 0
3, 72368, Note_on_c, 1, 48, 58
3, 72455, Note_on_c, 1, 48, 0
3, 72480, Note_on_c, 1, 43, 64
3, 72603, Note_on_c, 1, 47, 53
3, 72621, Note_on_c, 1, 43, 0
3, 72688, Note_on_c, 1, 43, 24
3, 72696, Note_on_c, 1, 43, 0
3, 72701, Note_on_c, 1, 47, 0
3, 72724, Note_on_c, 1, 48, 72
3, 73011, Note_on_c, 1, 48, 0
3, 73012, Note_on_c, 1, 41, 57
3, 73031, Note_on_c, 1, 41, 0
3, 73046, Note_on_c, 1, 42, 53
3, 73072, Note_on_c, 1, 42, 0
3, 73082, Note_on_c, 1, 43, 60
3, 73349, Note_on_c, 1, 43, 0
3, 73357, Note_on_c, 1, 45, 58
3, 73377, Note_on_c, 1, 45, 0
3, 73392, Note_on_c, 1, 43, 51
3, 73418, Note_on_c, 1, 43, 0
3, 73440, Note_on_c, 1, 42, 72
3, 73674, Note_on_c, 1, 47, 57
3, 73725, Note_on_c, 1, 42, 0
3, 73756, Note_on_c, 1, 42, 27
3, 73765, Note_on_c, 1, 42, 0
3, 73783, Note_on_c, 1, 47, 0
3, 73798, Note_on_c, 1, 59, 71
3, 73882, Pitch_bend_c, 1, 8192
3, 73883, Pitch_bend_c, 1, 8192
3, 73883, Pitch_bend_c, 1, 8192
3, 73886, Pitch_bend_c, 1, 8712
3, 73888, Pitch_bend_c, 1, 9102
3, 73890, Pitch_bend_c, 1, 9492
3, 73891, Pitch_bend_c, 1, 9882
3, 73893, Pitch_bend_c, 1, 10142
3, 73895, Pitch_bend_c, 1, 10402
3, 73897, Pitch_bend_c, 1, 10792
3, 73899, Pitch_bend_c, 1, 11052
3, 73900, Pitch_bend_c, 1, 11312
3, 73902, Pitch_bend_c, 1, 11572
3, 73904, Pitch_bend_c, 1, 11702
3, 73906, Pitch_bend_c, 1, 11962
3, 73907, Pitch_bend_c, 1, 12092
3, 73922, Pitch_bend_c, 1, 11832
3, 73923, Pitch_bend_c, 1, 11702
3, 73926, Pitch_bend_c, 1, 11442
3, 73928, Pitch_bend_c, 1, 11052
3, 73930, Pitch_bend_c, 1, 10792
3, 73932, Pitch_bend_c, 1, 10532
3, 73932, Pitch_bend_c, 1, 10142
3, 73934, Pitch_bend_c, 1, 9752
3, 73937, Pitch_bend_c, 1, 9232
3, 73939, Pitch_bend_c, 1, 8842
3, 73941, Pitch_bend_c, 1, 8192
3, 73942, Pitch_bend_c, 1, 8192
3, 73943, Pitch_bend_c, 1, 8192
3, 73984, Pitch_bend_c, 1, 8192
3, 73987, Pitch_bend_c, 1, 8712
3, 73989, Pitch_bend_c, 1, 8842
3, 73991, Pitch_bend_c, 1, 9232
3, 73992, Pitch_bend_c, 1, 9492
3, 73994, Pitch_bend_c, 1, 9752
3, 73996, Pitch_bend_c, 1, 10012
3, 73998, Pitch_bend_c, 1, 10402
3, 73999, Pitch_bend_c, 1, 10662
3, 74002, Pitch_bend_c, 1, 10922
3, 74004, Pitch_bend_c, 1, 11312
3, 74005, Pitch_bend_c, 1, 11442
3, 74007, Pitch_bend_c, 1, 11702
3, 74009, Pitch_bend_c, 1, 11962
3, 74011, Pitch_bend_c, 1, 12092
3, 74013, Pitch_bend_c, 1, 12352
3, 74015, Pitch_bend_c, 1, 12612
3, 74016, Pitch_bend_c, 1, 12742
3, 74017, Pitch_bend_c, 1, 12872
3, 74020, Pitch_bend_c, 1, 13002
3, 74024, Pitch_bend_c, 1, 13132
3, 74037, Pitch_bend_c, 1, 12872
3, 74040, Pitch_bend_c, 1, 12742
3, 74041, Pitch_bend_c, 1, 12612
3, 74043, Pitch_bend_c, 1, 12352
3, 74044, Pitch_bend_c, 1, 12092
3, 74046, Pitch_bend_c, 1, 11702
3, 74049, Pitch_bend_c, 1, 11442
3, 74051, Pitch_bend_c, 1, 10922
3, 74052, Pitch_bend_c, 1, 10532
3, 74054, Pitch_bend_c, 1, 10012
3, 74056, Pitch_bend_c, 1, 9622
3, 74057, Pitch_bend_c, 1, 8972
3, 74060, Pitch_bend_c, 1, 8192
3, 74061, Pitch_bend_c, 1, 8192
3, 74284, Note_on_c, 1, 47, 37
3, 74315, Note_on_c, 1, 47, 0
3, 74400, Note_on_c, 1, 47, 46
3, 74450, Note_on_c, 1, 47, 0
3, 74501, Note_on_c, 1, 59, 0
3, 74525, Note_on_c, 1, 47, 41
3, 74803, Note_on_c, 1, 44, 60
3, 74808, Note_on_c, 1, 47, 0
3, 74820, Note_on_c, 1, 44, 0
3, 74848, Note_on_c, 1, 43, 64
3, 74868, Note_on_c, 1, 43, 0
3, 74892, Note_on_c, 1, 42, 71
3, 75056, Note_on_c, 1, 42, 0
3, 75073, Note_on_c, 1, 48, 65
3, 75099, Note_on_c, 1, 48, 0
3, 75118, Note_on_c, 1, 47, 61
3, 75350, Note_on_c, 1, 35, 61
3, 75383, Note_on_c, 1, 47, 0
3, 75466, Note_on_c, 1, 35, 0
3, 75469, Note_on_c, 1, 39, 59
3, 75584, Note_on_c, 1, 39, 0
3, 75593, Note_on_c, 1, 40, 60
3, 75721, Note_on_c, 1, 47, 74
3, 75832, Note_on_c, 1, 40, 0
3, 76080, Note_on_c, 1, 40, 68
3, 76096, Note_on_c, 1, 40, 0
3, 76157, Note_on_c, 1, 39, 51
3, 76177, Note_on_c, 1, 47, 0
3, 76183, Note_on_c, 1, 39, 0
3, 76197, Note_on_c, 1, 40, 63
3, 76304, Note_on_c, 1, 40, 0
3, 76311, Note_on_c, 1, 41, 61
3, 76549, Note_on_c, 1, 48, 71
3, 76552, Note_on_c, 1, 41, 0
3, 76633, Note_on_c, 1, 41, 50
3, 76642, Note_on_c, 1, 41, 0
3, 76651, Note_on_c, 1, 48, 0
3, 76672, Note_on_c, 1, 46, 60
3, 76792, Note_on_c, 1, 34, 73
3, 76800, Note_on_c, 1, 46, 0
3, 76904, Note_on_c, 1, 34, 0
3, 76909, Note_on_c, 1, 38, 67
3, 77017, Note_on_c, 1, 38, 0
3, 77027, Note_on_c, 1, 39, 64
3, 77270, Note_on_c, 1, 46, 62
3, 77314, Note_on_c, 1, 46, 0
3, 77392, Note_on_c, 1, 39, 0
3, 77392, Note_on_c, 1, 46, 73
3, 77608, Note_on_c, 1, 46, 0
3, 77637, Note_on_c, 1, 46, 71
3, 77750, Note_on_c, 1, 46, 0
3, 77756, Note_on_c, 1, 45, 56
3, 77996, Note_on_c, 1, 45, 0
3, 77996, Note_on_c, 1, 52, 72
3, 78236, Note_on_c, 1, 33, 57
3, 78251, Note_on_c, 1, 52, 0
3, 78444, Note_on_c, 1, 39, 51
3, 78447, Note_on_c, 1, 33, 0
3, 78469, Note_on_c, 1, 39, 0
3, 78484, Note_on_c, 1, 38, 53
3, 78605, Note_on_c, 1, 54, 58
3, 78612, Note_on_c, 1, 38, 0
3, 78808, Note_on_c, 1, 38, 27
3, 78817, Note_on_c, 1, 38, 0
3, 78844, Note_on_c, 1, 50, 35
3, 78848, Note_on_c, 1, 54, 0
3, 79081, Note_on_c, 1, 38, 41
3, 79086, Note_on_c, 1, 50, 0
3, 79200, Note_on_c, 1, 38, 0
3, 79202, Note_on_c, 1, 43, 78
3, 79561, Note_on_c, 1, 41, 90
3, 79576, Note_on_c, 1, 43, 0
3, 79915, Note_on_c, 1, 39, 83
3, 79933, Note_on_c, 1, 41, 0
3, 80279, Note_on_c, 1, 37, 80
3, 80291, Note_on_c, 1, 39, 0
3, 80402, Note_on_c, 1, 49, 85
3, 80431, Note_on_c, 1, 37, 0
3, 80630, Note_on_c, 1, 49, 0
3, 80633, Note_on_c, 1, 48, 68
3, 80650, Note_on_c, 1, 48, 0
3, 80760, Note_on_c, 1, 43, 55
3, 80822, Note_on_c, 1, 43, 0
3, 80840, Note_on_c, 1, 42, 39
3, 80874, Note_on_c, 1, 42, 0
3, 80883, Note_on_c, 1, 43, 47
3, 80955, Note_on_c, 1, 43, 0
3, 80964, Note_on_c, 1, 42, 37
3, 80991, Note_on_c, 1, 42, 0
3, 81001, Note_on_c, 1, 43, 56
3, 81089, Note_on_c, 1, 31, 60
3, 81290, Note_on_c, 1, 43, 0
3, 81368, Note_on_c, 1, 31, 0
3, 81368, Note_on_c, 1, 48, 68
3, 81648, Note_on_c, 1, 43, 50
3, 81682, Note_on_c, 1, 43, 0
3, 81684, Note_on_c, 1, 42, 55
3, 81688, Note_on_c, 1, 48, 0
3, 81713, Note_on_c, 1, 42, 0
3, 81731, Note_on_c, 1, 41, 78
3, 81909, Note_on_c, 1, 41, 0
3, 81926, Note_on_c, 1, 41, 76
3, 82079, Note_on_c, 1, 41, 0
3, 82092, Note_on_c, 1, 40, 61
3, 82282, Note_on_c, 1, 47, 75
3, 82320, Note_on_c, 1, 40, 0
3, 82401, Note_on_c, 1, 40, 60
3, 82412, Note_on_c, 1, 40, 0
3, 82435, Note_on_c, 1, 47, 0
3, 82442, Note_on_c, 1, 45, 62
3, 82551, Note_on_c, 1, 45, 0
3, 82558, Note_on_c, 1, 33, 74
3, 82675, Note_on_c, 1, 33, 0
3, 82675, Note_on_c, 1, 38, 83
3, 82800, Note_on_c, 1, 54, 76
3, 83156, Note_on_c, 1, 44, 83
3, 83160, Note_on_c, 1, 54, 0
3, 83166, Note_on_c, 1, 38, 0
3, 83522, Note_on_c, 1, 44, 0
3, 83525, Note_on_c, 1, 43, 64
3, 83651, Note_on_c, 1, 31, 56
3, 83806, Note_on_c, 1, 43, 0
3, 83893, Note_on_c, 1, 43, 46
3, 83904, Note_on_c, 1, 43, 0
3, 84018, Note_on_c, 1, 43, 67
3, 84035, Note_on_c, 1, 43, 0
3, 84132, Note_on_c, 1, 43, 73
3, 84154, Note_on_c, 1, 43, 0
3, 84156, Note_on_c, 1, 31, 0
3, 84249, Note_on_c, 1, 43, 71
3, 84485, Note_on_c, 1, 31, 63
3, 84487, Note_on_c, 1, 43, 0
3, 84573, Note_on_c, 1, 31, 0
3, 84599, Note_on_c, 1, 43, 78
3, 84627, Control_c, 1, 1, 4
3, 84627, Control_c, 1, 1, 5
3, 84628, Control_c, 1, 1, 7
3, 84630, Control_c, 1, 1, 9
3, 84631, Control_c, 1, 1, 11
3, 84632, Control_c, 1, 1, 12
3, 84633, Control_c, 1, 1, 13
3, 84634, Control_c, 1, 1, 15
3, 84635, Control_c, 1, 1, 16
3, 84636, Control_c, 1, 1, 17
3, 84637, Control_c, 1, 1, 19
3, 84637, Control_c, 1, 1, 20
3, 84639, Control_c, 1, 1, 21
3, 84639, Control_c, 1, 1, 23
3, 84641, Control_c, 1, 1, 25
3, 84641, Control_c, 1, 1, 27
3, 84643, Control_c, 1, 1, 29
3, 84644, Control_c, 1, 1, 30
3, 84645, Control_c, 1, 1, 32
3, 84646, Control_c, 1, 1, 34
3, 84647, Control_c, 1, 1, 36
3, 84648, Control_c, 1, 1, 39
3, 84649, Control_c, 1, 1, 41
3, 84650, Control_c, 1, 1, 42
3, 84651, Control_c, 1, 1, 45
3, 84652, Control_c, 1, 1, 47
3, 84653, Control_c, 1, 1, 49
3, 84654, Control_c, 1, 1, 52
3, 84654, Control_c, 1, 1, 54
3, 84656, Control_c, 1, 1, 56
3, 84657, Control_c, 1, 1, 59
3, 84658, Control_c, 1, 1, 61
3, 84659, Control_c, 1, 1, 62
3, 84660, Control_c, 1, 1, 65
3, 84661, Control_c, 1, 1, 67
3, 84662, Control_c, 1, 1, 68
3, 84663, Control_c, 1, 1, 70
3, 84664, Control_c, 1, 1, 72
3, 84665, Control_c, 1, 1, 73
3, 84666, Control_c, 1, 1, 75
3, 84666, Control_c, 1, 1, 76
3, 84668, Control_c, 1, 1, 78
3, 84668, Control_c, 1, 1, 79
3, 84669, Control_c, 1, 1, 80
3, 84670, Control_c, 1, 1, 81
3, 84672, Control_c, 1, 1, 82
3, 84673, Control_c, 1, 1, 83
3, 84676, Control_c, 1, 1, 86
3, 84676, Control_c, 1, 1, 87
3, 84679, Control_c, 1, 1, 89
3, 84682, Control_c, 1, 1, 90
3, 84684, Control_c, 1, 1, 92
3, 84685, Control_c, 1, 1, 93
3, 84688, Control_c, 1, 1, 94
3, 84692, Control_c, 1, 1, 96
3, 84696, Control_c, 1, 1, 97
3, 84709, Control_c, 1, 1, 96
3, 84713, Control_c, 1, 1, 94
3, 84719, Control_c, 1, 1, 93
3, 84721, Control_c, 1, 1, 91
3, 84725, Control_c, 1, 1, 90
3, 84729, Control_c, 1, 1, 89
3, 84732, Control_c, 1, 1, 87
3, 84736, Control_c, 1, 1, 86
3, 84738, Control_c, 1, 1, 85
3, 84743, Control_c, 1, 1, 84
3, 84746, Control_c, 1, 1, 82
3, 84749, Control_c, 1, 1, 81
3, 84753, Control_c, 1, 1, 80
3, 84757, Control_c, 1, 1, 79
3, 84761, Control_c, 1, 1, 78
3, 84765, Control_c, 1, 1, 77
3, 84768, Control_c, 1, 1, 75
3, 84771, Control_c, 1, 1, 74
3, 84774, Control_c, 1, 1, 72
3, 84777, Control_c, 1, 1, 71
3, 84780, Control_c, 1, 1, 69
3, 84781, Control_c, 1, 1, 67
3, 84782, Control_c, 1, 1, 66
3, 84786, Control_c, 1, 1, 63
3, 84787, Control_c, 1, 1, 62
3, 84788, Control_c, 1, 1, 61
3, 84791, Control_c, 1, 1, 59
3, 84792, Control_c, 1, 1, 57
3, 84794, Control_c, 1, 1, 54
3, 84794, Control_c, 1, 1, 53
3, 84796, Control_c, 1, 1, 52
3, 84796, Control_c, 1, 1, 50
3, 84797, Control_c, 1, 1, 49
3, 84798, Control_c, 1, 1, 48
3, 84799, Control_c, 1, 1, 47
3, 84801, Control_c, 1, 1, 45
3, 84802, Control_c, 1, 1, 43
3, 84803, Control_c, 1, 1, 42
3, 84804, Control_c, 1, 1, 40
3, 84805, Control_c, 1, 1, 38
3, 84806, Control_c, 1, 1, 36
3, 84807, Control_c, 1, 1, 34
3, 84808, Control_c, 1, 1, 33
3, 84809, Control_c, 1, 1, 30
3, 84810, Control_c, 1, 1, 28
3, 84811, Control_c, 1, 1, 26
3, 84811, Control_c, 1, 1, 23
3, 84812, Control_c, 1, 1, 21
3, 84813, Control_c, 1, 1, 18
3, 84815, Control_c, 1, 1, 16
3, 84816, Control_c, 1, 1, 13
3, 84817, Control_c, 1, 1, 10
3, 84818, Control_c, 1, 1, 6
3, 84819, Control_c, 1, 1, 3
3, 84820, Control_c, 1, 1, 1
3, 84879, Note_on_c, 1, 43, 0
3, 84885, Note_on_c, 1, 41, 54
3, 84911, Note_on_c, 1, 41, 0
3, 84921, Note_on_c, 1, 42, 50
3, 84949, Note_on_c, 1, 42, 0
3, 84964, Note_on_c, 1, 43, 66
3, 85045, Pitch_bend_c, 1, 8192
3, 85049, Pitch_bend_c, 1, 8192
3, 85053, Pitch_bend_c, 1, 8192
3, 85064, Pitch_bend_c, 1, 8192
3, 85066, Pitch_bend_c, 1, 8192
3, 85314, Note_on_c, 1, 31, 51
3, 85357, Note_on_c, 1, 43, 0
3, 85431, Note_on_c, 1, 31, 0
3, 85445, Note_on_c, 1, 31, 80
3, 85642, Note_on_c, 1, 41, 31
3, 85653, Note_on_c, 1, 41, 0
3, 85682, Note_on_c, 1, 43, 81
3, 85690, Note_on_c, 1, 31, 0
3, 85999, Note_on_c, 1, 43, 0
3, 86030, Note_on_c, 1, 43, 71
3, 86275, Note_on_c, 1, 42, 49
3, 86277, Note_on_c, 1, 43, 0
3, 86377, Note_on_c, 1, 42, 0
3, 86391, Note_on_c, 1, 43, 63
3, 86409, Note_on_c, 1, 55, 77
3, 86657, Note_on_c, 1, 43, 0
3, 86770, Note_on_c, 1, 43, 53
3, 86782, Note_on_c, 1, 55, 0
3, 87150, Note_on_c, 1, 50, 37
3, 87167, Note_on_c, 1, 50, 0
3, 87175, Note_on_c, 1, 55, 127
3, 87188, Note_on_c, 1, 43, 0
3, 87638, Note_on_c, 1, 55, 0
3, 87640, Note_on_c, 1, 43, 61
3, 88162, Note_on_c, 1, 55, 61
3, 88179, Note_on_c, 1, 43, 0
3, 88688, Note_on_c, 1, 55, 0
3, 92891, Note_on_c, 1, 37, 37
3, 93445, Note_on_c, 1, 36, 63
3, 93460, Note_on_c, 1, 37, 0
3, 94224, Control_c, 1, 1, 3
3, 94224, Control_c, 1, 1, 4
3, 94225, Control_c, 1, 1, 5
3, 94229, Control_c, 1, 1, 7
3, 94233, Control_c, 1, 1, 9
3, 94236, Control_c, 1, 1, 11
3, 94240, Control_c, 1, 1, 12
3, 94241, Control_c, 1, 1, 13
3, 94244, Control_c, 1, 1, 15
3, 94246, Control_c, 1, 1, 16
3, 94249, Control_c, 1, 1, 19
3, 94252, Control_c, 1, 1, 20
3, 94253, Control_c, 1, 1, 22
3, 94254, Control_c, 1, 1, 23
3, 94255, Control_c, 1, 1, 24
3, 94256, Control_c, 1, 1, 25
3, 94258, Control_c, 1, 1, 27
3, 94260, Control_c, 1, 1, 28
3, 94262, Control_c, 1, 1, 29
3, 94263, Control_c, 1, 1, 31
3, 94264, Control_c, 1, 1, 32
3, 94266, Control_c, 1, 1, 34
3, 94267, Control_c, 1, 1, 35
3, 94268, Control_c, 1, 1, 36
3, 94269, Control_c, 1, 1, 37
3, 94271, Control_c, 1, 1, 39
3, 94272, Control_c, 1, 1, 40
3, 94273, Control_c, 1, 1, 41
3, 94274, Control_c, 1, 1, 43
3, 94276, Control_c, 1, 1, 45
3, 94277, Control_c, 1, 1, 46
3, 94278, Control_c, 1, 1, 47
3, 94279, Control_c, 1, 1, 49
3, 94281, Control_c, 1, 1, 50
3, 94283, Control_c, 1, 1, 52
3, 94284, Control_c, 1, 1, 54
3, 94286, Control_c, 1, 1, 55
3, 94287, Control_c, 1, 1, 56
3, 94288, Control_c, 1, 1, 58
3, 94289, Control_c, 1, 1, 60
3, 94290, Control_c, 1, 1, 61
3, 94293, Control_c, 1, 1, 62
3, 94294, Control_c, 1, 1, 64
3, 94295, Control_c, 1, 1, 65
3, 94296, Control_c, 1, 1, 67
3, 94297, Control_c, 1, 1, 68
3, 94299, Control_c, 1, 1, 69
3, 94300, Control_c, 1, 1, 71
3, 94301, Control_c, 1, 1, 72
3, 94303, Control_c, 1, 1, 74
3, 94305, Control_c, 1, 1, 75
3, 94306, Control_c, 1, 1, 76
3, 94307, Control_c, 1, 1, 77
3, 94308, Control_c, 1, 1, 78
3, 94310, Control_c, 1, 1, 80
3, 94314, Control_c, 1, 1, 83
3, 94317, Control_c, 1, 1, 86
3, 94318, Control_c, 1, 1, 87
3, 94319, Control_c, 1, 1, 88
3, 94320, Control_c, 1, 1, 89
3, 94324, Control_c, 1, 1, 91
3, 94326, Control_c, 1, 1, 93
3, 94328, Control_c, 1, 1, 94
3, 94330, Control_c, 1, 1, 96
3, 94332, Control_c, 1, 1, 97
3, 94335, Control_c, 1, 1, 100
3, 94339, Control_c, 1, 1, 102
3, 94342, Control_c, 1, 1, 104
3, 94346, Control_c, 1, 1, 106
3, 94349, Control_c, 1, 1, 107
3, 94353, Control_c, 1, 1, 109
3, 94359, Control_c, 1, 1, 110
3, 94391, Control_c, 1, 1, 109
3, 94397, Control_c, 1, 1, 108
3, 94401, Control_c, 1, 1, 106
3, 94407, Control_c, 1, 1, 104
3, 94409, Control_c, 1, 1, 102
3, 94413, Control_c, 1, 1, 100
3, 94415, Control_c, 1, 1, 99
3, 94420, Control_c, 1, 1, 97
3, 94421, Control_c, 1, 1, 96
3, 94425, Control_c, 1, 1, 94
3, 94425, Control_c, 1, 1, 93
3, 94428, Control_c, 1, 1, 92
3, 94429, Control_c, 1, 1, 91
3, 94432, Control_c, 1, 1, 89
3, 94436, Control_c, 1, 1, 87
3, 94439, Control_c, 1, 1, 85
3, 94441, Control_c, 1, 1, 84
3, 94445, Control_c, 1, 1, 82
3, 94445, Control_c, 1, 1, 81
3, 94449, Control_c, 1, 1, 80
3, 94450, Control_c, 1, 1, 79
3, 94455, Control_c, 1, 1, 77
3, 94456, Control_c, 1, 1, 76
3, 94459, Control_c, 1, 1, 75
3, 94463, Control_c, 1, 1, 73
3, 94464, Control_c, 1, 1, 72
3, 94467, Control_c, 1, 1, 70
3, 94468, Control_c, 1, 1, 69
3, 94471, Control_c, 1, 1, 68
3, 94472, Control_c, 1, 1, 67
3, 94472, Control_c, 1, 1, 66
3, 94474, Control_c, 1, 1, 65
3, 94476, Control_c, 1, 1, 63
3, 94477, Control_c, 1, 1, 62
3, 94478, Control_c, 1, 1, 61
3, 94479, Control_c, 1, 1, 60
3, 94480, Control_c, 1, 1, 59
3, 94482, Control_c, 1, 1, 57
3, 94483, Control_c, 1, 1, 56
3, 94484, Control_c, 1, 1, 55
3, 94486, Control_c, 1, 1, 53
3, 94487, Control_c, 1, 1, 52
3, 94488, Control_c, 1, 1, 51
3, 94489, Control_c, 1, 1, 49
3, 94491, Control_c, 1, 1, 48
3, 94492, Control_c, 1, 1, 47
3, 94493, Control_c, 1, 1, 46
3, 94496, Control_c, 1, 1, 44
3, 94497, Control_c, 1, 1, 42
3, 94498, Control_c, 1, 1, 41
3, 94499, Control_c, 1, 1, 40
3, 94501, Control_c, 1, 1, 38
3, 94502, Control_c, 1, 1, 36
3, 94503, Control_c, 1, 1, 35
3, 94504, Control_c, 1, 1, 33
3, 94505, Control_c, 1, 1, 32
3, 94507, Control_c, 1, 1, 30
3, 94508, Control_c, 1, 1, 28
3, 94509, Control_c, 1, 1, 27
3, 94511, Control_c, 1, 1, 25
3, 94512, Control_c, 1, 1, 23
3, 94513, Control_c, 1, 1, 21
3, 94515, Control_c, 1, 1, 20
3, 94517, Control_c, 1, 1, 18
3, 94518, Control_c, 1, 1, 16
3, 94519, Control_c, 1, 1, 14
3, 94520, Control_c, 1, 1, 12
3, 94521, Control_c, 1, 1, 11
3, 94523, Control_c, 1, 1, 9
3, 94524, Control_c, 1, 1, 7
3, 94525, Control_c, 1, 1, 6
3, 94527, Control_c, 1, 1, 4
3, 94528, Control_c, 1, 1, 2
3, 94530, Control_c, 1, 1, 1
3, 95488, Note_on_c, 1, 36, 0
3, 95488, End_track
4, 0, Start_track
4, 0, MIDI_port, 0
4, 0, Title_t, "Cymbal"
4, 0, Program_c, 9, 32
4, 4643, Note_on_c, 9, 46, 28
4, 4653, Note_on_c, 9, 46, 0
4, 4686, Note_on_c, 9, 46, 37
4, 4883, Note_on_c, 9, 53, 49
4, 5119, Note_on_c, 9, 59, 41
4, 5130, Note_on_c, 9, 59, 0
4, 5142, Note_on_c, 9, 53, 0
4, 5166, Note_on_c, 9, 59, 47
4, 5170, Note_on_c, 9, 46, 0
4, 5185, Note_on_c, 9, 59, 0
4, 5240, Note_on_c, 9, 59, 59
4, 5251, Note_on_c, 9, 59, 0
4, 5369, Note_on_c, 9, 53, 51
4, 5385, Note_on_c, 9, 53, 0
4, 5413, Note_on_c, 9, 46, 42
4, 5434, Note_on_c, 9, 46, 0
4, 5612, Note_on_c, 9, 59, 71
4, 5620, Note_on_c, 9, 53, 57
4, 5634, Note_on_c, 9, 59, 0
4, 5650, Note_on_c, 9, 53, 0
4, 5660, Note_on_c, 9, 46, 43
4, 5687, Note_on_c, 9, 46, 0
4, 5729, Note_on_c, 9, 51, 43
4, 5746, Note_on_c, 9, 51, 0
4, 5770, Note_on_c, 9, 53, 64
4, 5779, Note_on_c, 9, 53, 0
4, 6085, Note_on_c, 9, 59, 45
4, 6097, Note_on_c, 9, 59, 0
4, 6137, Note_on_c, 9, 59, 15
4, 6161, Note_on_c, 9, 59, 0
4, 6561, Note_on_c, 9, 59, 49
4, 6572, Note_on_c, 9, 59, 0
4, 6602, Note_on_c, 9, 51, 43
4, 6647, Note_on_c, 9, 51, 0
4, 6809, Note_on_c, 9, 59, 39
4, 6823, Note_on_c, 9, 59, 0
4, 6851, Note_on_c, 9, 51, 38
4, 6886, Note_on_c, 9, 51, 0
4, 7036, Note_on_c, 9, 59, 58
4, 7047, Note_on_c, 9, 59, 0
4, 7074, Note_on_c, 9, 51, 34
4, 7106, Note_on_c, 9, 51, 0
4, 7195, Note_on_c, 9, 51, 37
4, 7233, Note_on_c, 9, 51, 0
4, 7399, Note_on_c, 9, 59, 53
4, 7418, Note_on_c, 9, 59, 0
4, 7441, Note_on_c, 9, 51, 41
4, 7479, Note_on_c, 9, 51, 0
4, 7560, Note_on_c, 9, 51, 27
4, 7600, Note_on_c, 9, 51, 0
4, 7681, Note_on_c, 9, 51, 25
4, 7711, Note_on_c, 9, 51, 0
4, 7808, Note_on_c, 9, 51, 18
4, 7841, Note_on_c, 9, 51, 0
4, 8136, Note_on_c, 9, 59, 46
4, 8147, Note_on_c, 9, 59, 0
4, 8169, Note_on_c, 9, 59, 59
4, 8204, Note_on_c, 9, 59, 0
4, 8284, Note_on_c, 9, 59, 69
4, 8321, Note_on_c, 9, 59, 0
4, 8406, Note_on_c, 9, 59, 72
4, 8449, Note_on_c, 9, 59, 0
4, 8524, Note_on_c, 9, 59, 70
4, 8561, Note_on_c, 9, 59, 0
4, 8602, Note_on_c, 9, 53, 62
4, 8630, Note_on_c, 9, 53, 0
4, 8656, Note_on_c, 9, 51, 48
4, 8715, Note_on_c, 9, 51, 0
4, 8837, Note_on_c, 9, 59, 59
4, 8848, Note_on_c, 9, 59, 0
4, 8882, Note_on_c, 9, 53, 49
4, 8916, Note_on_c, 9, 53, 0
4, 9127, Note_on_c, 9, 59, 34
4, 9141, Note_on_c, 9, 59, 0
4, 9242, Note_on_c, 9, 59, 50
4, 9257, Note_on_c, 9, 59, 0
4, 9576, Note_on_c, 9, 59, 30
4, 9590, Note_on_c, 9, 59, 0
4, 9619, Note_on_c, 9, 59, 35
4, 9642, Note_on_c, 9, 59, 0
4, 9724, Note_on_c, 9, 59, 44
4, 9786, Note_on_c, 9, 59, 0
4, 9845, Note_on_c, 9, 59, 38
4, 9901, Note_on_c, 9, 59, 0
4, 9965, Note_on_c, 9, 59, 45
4, 10010, Note_on_c, 9, 59, 0
4, 10091, Note_on_c, 9, 59, 25
4, 10125, Note_on_c, 9, 59, 0
4, 10214, Note_on_c, 9, 59, 87
4, 10284, Note_on_c, 9, 59, 0
4, 10334, Note_on_c, 9, 59, 27
4, 10358, Note_on_c, 9, 59, 0
4, 10411, Note_on_c, 9, 59, 42
4, 10423, Note_on_c, 9, 59, 0
4, 10455, Note_on_c, 9, 59, 78
4, 10528, Note_on_c, 9, 59, 0
4, 10578, Note_on_c, 9, 59, 42
4, 10589, Note_on_c, 9, 59, 0
4, 10638, Note_on_c, 9, 51, 68
4, 10704, Note_on_c, 9, 51, 0
4, 10759, Note_on_c, 9, 59, 49
4, 10775, Note_on_c, 9, 59, 0
4, 10817, Note_on_c, 9, 59, 73
4, 10832, Note_on_c, 9, 51, 47
4, 10857, Note_on_c, 9, 51, 0
4, 10902, Note_on_c, 9, 59, 0
4, 10927, Note_on_c, 9, 59, 41
4, 10939, Note_on_c, 9, 59, 0
4, 10997, Note_on_c, 9, 51, 65
4, 11044, Note_on_c, 9, 51, 0
4, 11116, Note_on_c, 9, 46, 60
4, 11149, Note_on_c, 9, 46, 0
4, 11192, Note_on_c, 9, 59, 72
4, 11249, Note_on_c, 9, 59, 0
4, 11287, Note_on_c, 9, 51, 51
4, 11313, Note_on_c, 9, 51, 0
4, 11360, Note_on_c, 9, 59, 76
4, 11400, Note_on_c, 9, 59, 0
4, 11478, Note_on_c, 9, 51, 60
4, 11535, Note_on_c, 9, 51, 0
4, 11535, Note_on_c, 9, 59, 62
4, 11605, Note_on_c, 9, 59, 0
4, 11649, Note_on_c, 9, 59, 33
4, 11664, Note_on_c, 9, 59, 0
4, 11760, Note_on_c, 9, 59, 35
4, 11772, Note_on_c, 9, 59, 0
4, 11890, Note_on_c, 9, 59, 52
4, 11915, Note_on_c, 9, 59, 0
4, 12258, Note_on_c, 9, 59, 35
4, 12271, Note_on_c, 9, 59, 0
4, 12325, Note_on_c, 9, 59, 55
4, 12336, Note_on_c, 9, 59, 0
4, 12378, Note_on_c, 9, 59, 43
4, 12405, Note_on_c, 9, 59, 0
4, 12443, Note_on_c, 9, 59, 48
4, 12470, Note_on_c, 9, 59, 0
4, 12495, Note_on_c, 9, 59, 57
4, 12544, Note_on_c, 9, 59, 0
4, 12613, Note_on_c, 9, 59, 44
4, 12638, Note_on_c, 9, 59, 0
4, 12675, Note_on_c, 9, 59, 39
4, 12689, Note_on_c, 9, 59, 0
4, 12732, Note_on_c, 9, 59, 76
4, 12808, Note_on_c, 9, 59, 0
4, 12853, Note_on_c, 9, 59, 24
4, 12867, Note_on_c, 9, 59, 0
4, 12926, Note_on_c, 9, 59, 37
4, 12939, Note_on_c, 9, 59, 0
4, 12974, Note_on_c, 9, 59, 78
4, 13056, Note_on_c, 9, 59, 0
4, 13089, Note_on_c, 9, 59, 25
4, 13103, Note_on_c, 9, 59, 0
4, 13164, Note_on_c, 9, 59, 60
4, 13191, Note_on_c, 9, 59, 0
4, 13210, Note_on_c, 9, 59, 75
4, 13285, Note_on_c, 9, 59, 0
4, 13445, Note_on_c, 9, 59, 23
4, 13458, Note_on_c, 9, 59, 0
4, 13515, Note_on_c, 9, 59, 71
4, 13539, Note_on_c, 9, 59, 0
4, 13641, Note_on_c, 9, 59, 37
4, 13655, Note_on_c, 9, 59, 0
4, 13687, Note_on_c, 9, 59, 59
4, 13751, Note_on_c, 9, 59, 0
4, 13803, Note_on_c, 9, 59, 28
4, 13818, Note_on_c, 9, 59, 0
4, 13866, Note_on_c, 9, 59, 52
4, 13901, Note_on_c, 9, 59, 0
4, 13996, Note_on_c, 9, 53, 35
4, 14006, Note_on_c, 9, 53, 0
4, 14037, Note_on_c, 9, 59, 44
4, 14108, Note_on_c, 9, 59, 0
4, 14167, Note_on_c, 9, 59, 34
4, 14192, Note_on_c, 9, 59, 0
4, 14283, Note_on_c, 9, 59, 46
4, 14329, Note_on_c, 9, 59, 0
4, 14361, Note_on_c, 9, 53, 60
4, 14382, Note_on_c, 9, 53, 0
4, 14406, Note_on_c, 9, 59, 38
4, 14468, Note_on_c, 9, 59, 0
4, 14525, Note_on_c, 9, 59, 36
4, 14589, Note_on_c, 9, 59, 0
4, 14640, Note_on_c, 9, 59, 46
4, 14678, Note_on_c, 9, 59, 0
4, 14716, Note_on_c, 9, 51, 66
4, 14742, Note_on_c, 9, 51, 0
4, 14765, Note_on_c, 9, 59, 43
4, 14836, Note_on_c, 9, 59, 0
4, 14880, Note_on_c, 9, 59, 38
4, 14940, Note_on_c, 9, 59, 0
4, 15000, Note_on_c, 9, 59, 26
4, 15065, Note_on_c, 9, 59, 0
4, 15360, Note_on_c, 9, 59, 45
4, 15387, Note_on_c, 9, 59, 0
4, 15440, Note_on_c, 9, 53, 35
4, 15459, Note_on_c, 9, 53, 0
4, 15555, Note_on_c, 9, 59, 60
4, 15576, Note_on_c, 9, 59, 0
4, 15615, Note_on_c, 9, 53, 54
4, 15682, Note_on_c, 9, 53, 0
4, 15727, Note_on_c, 9, 59, 46
4, 15741, Note_on_c, 9, 59, 0
4, 15798, Note_on_c, 9, 53, 59
4, 15847, Note_on_c, 9, 53, 0
4, 15916, Note_on_c, 9, 59, 48
4, 15928, Note_on_c, 9, 59, 0
4, 15982, Note_on_c, 9, 53, 36
4, 16019, Note_on_c, 9, 53, 0
4, 16155, Note_on_c, 9, 51, 51
4, 16166, Note_on_c, 9, 53, 33
4, 16181, Note_on_c, 9, 53, 0
4, 16194, Note_on_c, 9, 51, 0
4, 16263, Note_on_c, 9, 59, 37
4, 16278, Note_on_c, 9, 59, 0
4, 16326, Note_on_c, 9, 51, 64
4, 16330, Note_on_c, 9, 53, 66
4, 16392, Note_on_c, 9, 53, 0
4, 16395, Note_on_c, 9, 51, 0
4, 16423, Note_on_c, 9, 59, 30
4, 16453, Note_on_c, 9, 59, 0
4, 16507, Note_on_c, 9, 51, 58
4, 16509, Note_on_c, 9, 53, 67
4, 16543, Note_on_c, 9, 53, 0
4, 16560, Note_on_c, 9, 51, 0
4, 16631, Note_on_c, 9, 59, 39
4, 16646, Note_on_c, 9, 59, 0
4, 16693, Note_on_c, 9, 51, 55
4, 16695, Note_on_c, 9, 53, 62
4, 16756, Note_on_c, 9, 53, 0
4, 16767, Note_on_c, 9, 51, 0
4, 16803, Note_on_c, 9, 59, 34
4, 16820, Note_on_c, 9, 59, 0
4, 17038, Note_on_c, 9, 59, 39
4, 17051, Note_on_c, 9, 59, 0
4, 17161, Note_on_c, 9, 59, 44
4, 17180, Note_on_c, 9, 59, 0
4, 17398, Note_on_c, 9, 59, 37
4, 17420, Note_on_c, 9, 59, 0
4, 17482, Note_on_c, 9, 46, 55
4, 17616, Note_on_c, 9, 46, 0
4, 17648, Note_on_c, 9, 59, 55
4, 17729, Note_on_c, 9, 59, 0
4, 17742, Note_on_c, 9, 46, 60
4, 17781, Note_on_c, 9, 46, 0
4, 17890, Note_on_c, 9, 46, 58
4, 17963, Note_on_c, 9, 46, 0
4, 18135, Note_on_c, 9, 59, 36
4, 18148, Note_on_c, 9, 59, 0
4, 18203, Note_on_c, 9, 59, 55
4, 18216, Note_on_c, 9, 59, 0
4, 18323, Note_on_c, 9, 59, 65
4, 18344, Note_on_c, 9, 59, 0
4, 18375, Note_on_c, 9, 59, 61
4, 18422, Note_on_c, 9, 59, 0
4, 18566, Note_on_c, 9, 59, 40
4, 18579, Note_on_c, 9, 59, 0
4, 18613, Note_on_c, 9, 59, 52
4, 18652, Note_on_c, 9, 59, 0
4, 18855, Note_on_c, 9, 59, 53
4, 18872, Note_on_c, 9, 59, 0
4, 18974, Note_on_c, 9, 46, 54
4, 19021, Note_on_c, 9, 46, 0
4, 19091, Note_on_c, 9, 46, 59
4, 19147, Note_on_c, 9, 46, 0
4, 19293, Note_on_c, 9, 59, 41
4, 19305, Note_on_c, 9, 59, 0
4, 19340, Note_on_c, 9, 59, 57
4, 19412, Note_on_c, 9, 59, 0
4, 19524, Note_on_c, 9, 59, 33
4, 19538, Note_on_c, 9, 59, 0
4, 19574, Note_on_c, 9, 59, 48
4, 19632, Note_on_c, 9, 59, 0
4, 19696, Note_on_c, 9, 59, 56
4, 19742, Note_on_c, 9, 59, 0
4, 19814, Note_on_c, 9, 59, 45
4, 19848, Note_on_c, 9, 59, 0
4, 19929, Note_on_c, 9, 59, 53
4, 19956, Note_on_c, 9, 59, 0
4, 20040, Note_on_c, 9, 53, 65
4, 20103, Note_on_c, 9, 53, 0
4, 20159, Note_on_c, 9, 59, 41
4, 20198, Note_on_c, 9, 59, 0
4, 20276, Note_on_c, 9, 59, 17
4, 20327, Note_on_c, 9, 59, 0
4, 20398, Note_on_c, 9, 59, 40
4, 20452, Note_on_c, 9, 59, 0
4, 20518, Note_on_c, 9, 59, 38
4, 20568, Note_on_c, 9, 59, 0
4, 20596, Note_on_c, 9, 51, 60
4, 20626, Note_on_c, 9, 51, 0
4, 20641, Note_on_c, 9, 59, 44
4, 20706, Note_on_c, 9, 59, 0
4, 20720, Note_on_c, 9, 51, 70
4, 20763, Note_on_c, 9, 51, 0
4, 20779, Note_on_c, 9, 59, 44
4, 20839, Note_on_c, 9, 59, 0
4, 20896, Note_on_c, 9, 59, 22
4, 20954, Note_on_c, 9, 59, 0
4, 21012, Note_on_c, 9, 59, 36
4, 21072, Note_on_c, 9, 59, 0
4, 21130, Note_on_c, 9, 59, 55
4, 21177, Note_on_c, 9, 59, 0
4, 21258, Note_on_c, 9, 59, 17
4, 21319, Note_on_c, 9, 59, 0
4, 21369, Note_on_c, 9, 59, 62
4, 21434, Note_on_c, 9, 59, 0
4, 21495, Note_on_c, 9, 59, 23
4, 21535, Note_on_c, 9, 59, 0
4, 21607, Note_on_c, 9, 59, 64
4, 21679, Note_on_c, 9, 59, 0
4, 21726, Note_on_c, 9, 59, 28
4, 21769, Note_on_c, 9, 59, 0
4, 21841, Note_on_c, 9, 59, 80
4, 21905, Note_on_c, 9, 59, 0
4, 21957, Note_on_c, 9, 59, 29
4, 21996, Note_on_c, 9, 59, 0
4, 22034, Note_on_c, 9, 59, 62
4, 22059, Note_on_c, 9, 59, 0
4, 22082, Note_on_c, 9, 59, 63
4, 22162, Note_on_c, 9, 59, 0
4, 22204, Note_on_c, 9, 59, 36
4, 22279, Note_on_c, 9, 59, 0
4, 22319, Note_on_c, 9, 59, 69
4, 22388, Note_on_c, 9, 59, 0
4, 22434, Note_on_c, 9, 59, 38
4, 22508, Note_on_c, 9, 59, 0
4, 22555, Note_on_c, 9, 59, 66
4, 22619, Note_on_c, 9, 59, 0
4, 22647, Note_on_c, 9, 59, 55
4, 22666, Note_on_c, 9, 59, 0
4, 22686, Note_on_c, 9, 59, 65
4, 22784, Note_on_c, 9, 59, 0
4, 22810, Note_on_c, 9, 59, 53
4, 22870, Note_on_c, 9, 59, 0
4, 22931, Note_on_c, 9, 59, 50
4, 22996, Note_on_c, 9, 59, 0
4, 23048, Note_on_c, 9, 59, 58
4, 23103, Note_on_c, 9, 59, 0
4, 23168, Note_on_c, 9, 59, 44
4, 23198, Note_on_c, 9, 59, 0
4, 23286, Note_on_c, 9, 59, 51
4, 23338, Note_on_c, 9, 59, 0
4, 23405, Note_on_c, 9, 59, 28
4, 23476, Note_on_c, 9, 59, 0
4, 23522, Note_on_c, 9, 53, 78
4, 23639, Note_on_c, 9, 53, 0
4, 23650, Note_on_c, 9, 59, 42
4, 23679, Note_on_c, 9, 59, 0
4, 23762, Note_on_c, 9, 53, 86
4, 23870, Note_on_c, 9, 53, 0
4, 23898, Note_on_c, 9, 59, 31
4, 23975, Note_on_c, 9, 59, 0
4, 24004, Note_on_c, 9, 53, 92
4, 24113, Note_on_c, 9, 53, 0
4, 24135, Note_on_c, 9, 59, 23
4, 24235, Note_on_c, 9, 59, 0
4, 24241, Note_on_c, 9, 53, 96
4, 24360, Note_on_c, 9, 53, 0
4, 24372, Note_on_c, 9, 59, 26
4, 24474, Note_on_c, 9, 59, 0
4, 24485, Note_on_c, 9, 53, 99
4, 24602, Note_on_c, 9, 53, 0
4, 24610, Note_on_c, 9, 59, 25
4, 24720, Note_on_c, 9, 53, 96
4, 24721, Note_on_c, 9, 59, 0
4, 24851, Note_on_c, 9, 53, 0
4, 24855, Note_on_c, 9, 59, 34
4, 24948, Note_on_c, 9, 59, 0
4, 24958, Note_on_c, 9, 53, 96
4, 25068, Note_on_c, 9, 53, 0
4, 25084, Note_on_c, 9, 59, 45
4, 25163, Note_on_c, 9, 59, 0
4, 25205, Note_on_c, 9, 53, 72
4, 25222, Note_on_c, 9, 47, 17
4, 25233, Note_on_c, 9, 47, 0
4, 25310, Note_on_c, 9, 53, 0
4, 25320, Note_on_c, 9, 59, 48
4, 25402, Note_on_c, 9, 59, 0
4, 25438, Note_on_c, 9, 53, 82
4, 25439, Note_on_c, 9, 46, 78
4, 25564, Note_on_c, 9, 46, 0
4, 25565, Note_on_c, 9, 53, 0
4, 25565, Note_on_c, 9, 59, 42
4, 25643, Note_on_c, 9, 59, 0
4, 25678, Note_on_c, 9, 53, 80
4, 25680, Note_on_c, 9, 46, 75
4, 25783, Note_on_c, 9, 46, 0
4, 25786, Note_on_c, 9, 53, 0
4, 25800, Note_on_c, 9, 59, 51
4, 25855, Note_on_c, 9, 59, 0
4, 25889, Note_on_c, 9, 59, 39
4, 25900, Note_on_c, 9, 59, 0
4, 25921, Note_on_c, 9, 59, 59
4, 26008, Note_on_c, 9, 59, 0
4, 26031, Note_on_c, 9, 59, 61
4, 26133, Note_on_c, 9, 59, 0
4, 26156, Note_on_c, 9, 59, 61
4, 26228, Note_on_c, 9, 59, 0
4, 26248, Note_on_c, 9, 59, 49
4, 26259, Note_on_c, 9, 59, 0
4, 26281, Note_on_c, 9, 59, 66
4, 26375, Note_on_c, 9, 59, 0
4, 26397, Note_on_c, 9, 59, 67
4, 26471, Note_on_c, 9, 59, 0
4, 26493, Note_on_c, 9, 59, 67
4, 26518, Note_on_c, 9, 59, 0
4, 26529, Note_on_c, 9, 59, 59
4, 26620, Note_on_c, 9, 59, 0
4, 26640, Note_on_c, 9, 59, 74
4, 26740, Note_on_c, 9, 59, 0
4, 26763, Note_on_c, 9, 59, 64
4, 26855, Note_on_c, 9, 59, 0
4, 26888, Note_on_c, 9, 59, 65
4, 26972, Note_on_c, 9, 59, 0
4, 27009, Note_on_c, 9, 59, 62
4, 27082, Note_on_c, 9, 59, 0
4, 27086, Note_on_c, 9, 53, 75
4, 27115, Note_on_c, 9, 53, 0
4, 27130, Note_on_c, 9, 59, 42
4, 27194, Note_on_c, 9, 59, 0
4, 27217, Note_on_c, 9, 59, 58
4, 27237, Note_on_c, 9, 59, 0
4, 27255, Note_on_c, 9, 59, 71
4, 27340, Note_on_c, 9, 59, 0
4, 27362, Note_on_c, 9, 59, 63
4, 27454, Note_on_c, 9, 59, 0
4, 27479, Note_on_c, 9, 59, 62
4, 27564, Note_on_c, 9, 59, 0
4, 27605, Note_on_c, 9, 59, 65
4, 27680, Note_on_c, 9, 59, 0
4, 27716, Note_on_c, 9, 59, 53
4, 27793, Note_on_c, 9, 59, 0
4, 27802, Note_on_c, 9, 51, 53
4, 27835, Note_on_c, 9, 51, 0
4, 27841, Note_on_c, 9, 59, 48
4, 27911, Note_on_c, 9, 59, 0
4, 27924, Note_on_c, 9, 51, 29
4, 27951, Note_on_c, 9, 51, 0
4, 27958, Note_on_c, 9, 59, 50
4, 28031, Note_on_c, 9, 59, 0
4, 28052, Note_on_c, 9, 59, 48
4, 28063, Note_on_c, 9, 59, 0
4, 28084, Note_on_c, 9, 59, 69
4, 28180, Note_on_c, 9, 59, 0
4, 28203, Note_on_c, 9, 59, 58
4, 28285, Note_on_c, 9, 59, 0
4, 28322, Note_on_c, 9, 59, 59
4, 28393, Note_on_c, 9, 59, 0
4, 28444, Note_on_c, 9, 59, 61
4, 28506, Note_on_c, 9, 59, 0
4, 28530, Note_on_c, 9, 59, 48
4, 28542, Note_on_c, 9, 59, 0
4, 28566, Note_on_c, 9, 59, 64
4, 28654, Note_on_c, 9, 59, 0
4, 28691, Note_on_c, 9, 59, 66
4, 28759, Note_on_c, 9, 59, 0
4, 28783, Note_on_c, 9, 59, 47
4, 28794, Note_on_c, 9, 59, 0
4, 28816, Note_on_c, 9, 59, 70
4, 28900, Note_on_c, 9, 59, 0
4, 28927, Note_on_c, 9, 59, 64
4, 29012, Note_on_c, 9, 59, 0
4, 29048, Note_on_c, 9, 59, 57
4, 29131, Note_on_c, 9, 59, 0
4, 29168, Note_on_c, 9, 59, 57
4, 29229, Note_on_c, 9, 59, 0
4, 29255, Note_on_c, 9, 59, 46
4, 29265, Note_on_c, 9, 59, 0
4, 29287, Note_on_c, 9, 59, 70
4, 29375, Note_on_c, 9, 59, 0
4, 29404, Note_on_c, 9, 59, 60
4, 29483, Note_on_c, 9, 59, 0
4, 29517, Note_on_c, 9, 59, 59
4, 29588, Note_on_c, 9, 59, 0
4, 29639, Note_on_c, 9, 59, 71
4, 29707, Note_on_c, 9, 59, 0
4, 29763, Note_on_c, 9, 59, 69
4, 29816, Note_on_c, 9, 59, 0
4, 29853, Note_on_c, 9, 59, 41
4, 29865, Note_on_c, 9, 59, 0
4, 29884, Note_on_c, 9, 59, 64
4, 29970, Note_on_c, 9, 59, 0
4, 30000, Note_on_c, 9, 59, 67
4, 30075, Note_on_c, 9, 59, 0
4, 30125, Note_on_c, 9, 59, 68
4, 30185, Note_on_c, 9, 59, 0
4, 30242, Note_on_c, 9, 59, 36
4, 30256, Note_on_c, 9, 59, 0
4, 30325, Note_on_c, 9, 59, 67
4, 30348, Note_on_c, 9, 59, 0
4, 30368, Note_on_c, 9, 59, 71
4, 30453, Note_on_c, 9, 59, 0
4, 30490, Note_on_c, 9, 59, 26
4, 30530, Note_on_c, 9, 59, 0
4, 30560, Note_on_c, 9, 59, 52
4, 30582, Note_on_c, 9, 59, 0
4, 30605, Note_on_c, 9, 59, 79
4, 30683, Note_on_c, 9, 59, 0
4, 30723, Note_on_c, 9, 59, 26
4, 30741, Note_on_c, 9, 59, 0
4, 30797, Note_on_c, 9, 59, 79
4, 30861, Note_on_c, 9, 59, 0
4, 30922, Note_on_c, 9, 59, 27
4, 30937, Note_on_c, 9, 59, 0
4, 30973, Note_on_c, 9, 59, 74
4, 31042, Note_on_c, 9, 59, 0
4, 31083, Note_on_c, 9, 59, 31
4, 31098, Note_on_c, 9, 59, 0
4, 31156, Note_on_c, 9, 59, 82
4, 31215, Note_on_c, 9, 59, 0
4, 31277, Note_on_c, 9, 59, 43
4, 31289, Note_on_c, 9, 59, 0
4, 31324, Note_on_c, 9, 59, 62
4, 31380, Note_on_c, 9, 59, 0
4, 31400, Note_on_c, 9, 51, 30
4, 31405, Note_on_c, 9, 50, 55
4, 31417, Note_on_c, 9, 50, 0
4, 31417, Note_on_c, 9, 51, 0
4, 31440, Note_on_c, 9, 59, 59
4, 31501, Note_on_c, 9, 59, 0
4, 31508, Note_on_c, 9, 51, 75
4, 31544, Note_on_c, 9, 51, 0
4, 31554, Note_on_c, 9, 59, 51
4, 31607, Note_on_c, 9, 59, 0
4, 31629, Note_on_c, 9, 51, 79
4, 31657, Note_on_c, 9, 51, 0
4, 31682, Note_on_c, 9, 59, 59
4, 31754, Note_on_c, 9, 59, 0
4, 31797, Note_on_c, 9, 59, 49
4, 31832, Note_on_c, 9, 59, 0
4, 31915, Note_on_c, 9, 59, 61
4, 31956, Note_on_c, 9, 59, 0
4, 32035, Note_on_c, 9, 59, 62
4, 32084, Note_on_c, 9, 59, 0
4, 32154, Note_on_c, 9, 59, 64
4, 32187, Note_on_c, 9, 59, 0
4, 32244, Note_on_c, 9, 59, 63
4, 32256, Note_on_c, 9, 59, 0
4, 32280, Note_on_c, 9, 59, 56
4, 32319, Note_on_c, 9, 59, 0
4, 32397, Note_on_c, 9, 59, 62
4, 32449, Note_on_c, 9, 59, 0
4, 32522, Note_on_c, 9, 59, 65
4, 32555, Note_on_c, 9, 59, 0
4, 32615, Note_on_c, 9, 59, 32
4, 32629, Note_on_c, 9, 59, 0
4, 32646, Note_on_c, 9, 59, 60
4, 32700, Note_on_c, 9, 59, 0
4, 32758, Note_on_c, 9, 59, 66
4, 32812, Note_on_c, 9, 59, 0
4, 32855, Note_on_c, 9, 59, 30
4, 32870, Note_on_c, 9, 59, 0
4, 32889, Note_on_c, 9, 59, 73
4, 32952, Note_on_c, 9, 59, 0
4, 33002, Note_on_c, 9, 59, 71
4, 33049, Note_on_c, 9, 59, 0
4, 33093, Note_on_c, 9, 59, 18
4, 33104, Note_on_c, 9, 59, 0
4, 33123, Note_on_c, 9, 59, 65
4, 33181, Note_on_c, 9, 59, 0
4, 33239, Note_on_c, 9, 59, 74
4, 33278, Note_on_c, 9, 59, 0
4, 33358, Note_on_c, 9, 59, 71
4, 33386, Note_on_c, 9, 59, 0
4, 33445, Note_on_c, 9, 59, 47
4, 33457, Note_on_c, 9, 59, 0
4, 33479, Note_on_c, 9, 59, 64
4, 33536, Note_on_c, 9, 59, 0
4, 33598, Note_on_c, 9, 59, 71
4, 33632, Note_on_c, 9, 59, 0
4, 33685, Note_on_c, 9, 59, 39
4, 33697, Note_on_c, 9, 59, 0
4, 33720, Note_on_c, 9, 59, 59
4, 33768, Note_on_c, 9, 59, 0
4, 33841, Note_on_c, 9, 59, 70
4, 33894, Note_on_c, 9, 59, 0
4, 33964, Note_on_c, 9, 59, 64
4, 34011, Note_on_c, 9, 59, 0
4, 34089, Note_on_c, 9, 59, 48
4, 34121, Note_on_c, 9, 59, 0
4, 34200, Note_on_c, 9, 59, 71
4, 34237, Note_on_c, 9, 59, 0
4, 34316, Note_on_c, 9, 59, 54
4, 34339, Note_on_c, 9, 59, 0
4, 34402, Note_on_c, 9, 59, 45
4, 34413, Note_on_c, 9, 59, 0
4, 34438, Note_on_c, 9, 59, 72
4, 34527, Note_on_c, 9, 59, 0
4, 34555, Note_on_c, 9, 59, 49
4, 34568, Note_on_c, 9, 59, 0
4, 34648, Note_on_c, 9, 59, 49
4, 34659, Note_on_c, 9, 59, 0
4, 34685, Note_on_c, 9, 59, 76
4, 34761, Note_on_c, 9, 59, 0
4, 34801, Note_on_c, 9, 59, 41
4, 34816, Note_on_c, 9, 59, 0
4, 34886, Note_on_c, 9, 59, 47
4, 34897, Note_on_c, 9, 59, 0
4, 34925, Note_on_c, 9, 59, 72
4, 34999, Note_on_c, 9, 59, 0
4, 35044, Note_on_c, 9, 59, 55
4, 35056, Note_on_c, 9, 59, 0
4, 35160, Note_on_c, 9, 59, 94
4, 35233, Note_on_c, 9, 59, 0
4, 35279, Note_on_c, 9, 59, 45
4, 35291, Note_on_c, 9, 59, 0
4, 35360, Note_on_c, 9, 59, 41
4, 35373, Note_on_c, 9, 59, 0
4, 35400, Note_on_c, 9, 59, 61
4, 35459, Note_on_c, 9, 59, 0
4, 35522, Note_on_c, 9, 59, 65
4, 35574, Note_on_c, 9, 59, 0
4, 35641, Note_on_c, 9, 59, 57
4, 35702, Note_on_c, 9, 59, 0
4, 35719, Note_on_c, 9, 53, 70
4, 35751, Note_on_c, 9, 53, 0
4, 35763, Note_on_c, 9, 59, 33
4, 35807, Note_on_c, 9, 59, 0
4, 35831, Note_on_c, 9, 53, 73
4, 35869, Note_on_c, 9, 53, 0
4, 35881, Note_on_c, 9, 59, 42
4, 35926, Note_on_c, 9, 59, 0
4, 35954, Note_on_c, 9, 59, 44
4, 35974, Note_on_c, 9, 59, 0
4, 35999, Note_on_c, 9, 59, 69
4, 36069, Note_on_c, 9, 59, 0
4, 36117, Note_on_c, 9, 59, 62
4, 36170, Note_on_c, 9, 59, 0
4, 36235, Note_on_c, 9, 59, 57
4, 36280, Note_on_c, 9, 59, 0
4, 36359, Note_on_c, 9, 59, 57
4, 36407, Note_on_c, 9, 59, 0
4, 36481, Note_on_c, 9, 59, 57
4, 36518, Note_on_c, 9, 59, 0
4, 36605, Note_on_c, 9, 59, 54
4, 36641, Note_on_c, 9, 59, 0
4, 36726, Note_on_c, 9, 59, 51
4, 36772, Note_on_c, 9, 59, 0
4, 36839, Note_on_c, 9, 59, 48
4, 36887, Note_on_c, 9, 59, 0
4, 36958, Note_on_c, 9, 59, 48
4, 37008, Note_on_c, 9, 59, 0
4, 37073, Note_on_c, 9, 59, 51
4, 37120, Note_on_c, 9, 59, 0
4, 37193, Note_on_c, 9, 59, 53
4, 37197, Note_on_c, 9, 46, 31
4, 37239, Note_on_c, 9, 59, 0
4, 37248, Note_on_c, 9, 46, 0
4, 37314, Note_on_c, 9, 59, 47
4, 37315, Note_on_c, 9, 46, 34
4, 37371, Note_on_c, 9, 59, 0
4, 37376, Note_on_c, 9, 46, 0
4, 37431, Note_on_c, 9, 46, 39
4, 37435, Note_on_c, 9, 59, 51
4, 37458, Note_on_c, 9, 46, 0
4, 37487, Note_on_c, 9, 59, 0
4, 37552, Note_on_c, 9, 59, 57
4, 37592, Note_on_c, 9, 59, 0
4, 37645, Note_on_c, 9, 59, 44
4, 37660, Note_on_c, 9, 59, 0
4, 37685, Note_on_c, 9, 59, 62
4, 37775, Note_on_c, 9, 59, 0
4, 37800, Note_on_c, 9, 59, 51
4, 37850, Note_on_c, 9, 59, 0
4, 37882, Note_on_c, 9, 59, 44
4, 37896, Note_on_c, 9, 59, 0
4, 37922, Note_on_c, 9, 59, 71
4, 38007, Note_on_c, 9, 59, 0
4, 38034, Note_on_c, 9, 59, 37
4, 38067, Note_on_c, 9, 59, 0
4, 38120, Note_on_c, 9, 59, 37
4, 38135, Note_on_c, 9, 59, 0
4, 38157, Note_on_c, 9, 59, 74
4, 38229, Note_on_c, 9, 59, 0
4, 38281, Note_on_c, 9, 59, 57
4, 38340, Note_on_c, 9, 59, 0
4, 38404, Note_on_c, 9, 59, 41
4, 38435, Note_on_c, 9, 59, 0
4, 38523, Note_on_c, 9, 59, 86
4, 38583, Note_on_c, 9, 59, 0
4, 38622, Note_on_c, 9, 59, 37
4, 38634, Note_on_c, 9, 59, 0
4, 38722, Note_on_c, 9, 59, 74
4, 38748, Note_on_c, 9, 59, 0
4, 38845, Note_on_c, 9, 59, 52
4, 38857, Note_on_c, 9, 59, 0
4, 38886, Note_on_c, 9, 59, 79
4, 38947, Note_on_c, 9, 59, 0
4, 38996, Note_on_c, 9, 59, 44
4, 39017, Note_on_c, 9, 59, 0
4, 39067, Note_on_c, 9, 59, 82
4, 39119, Note_on_c, 9, 59, 0
4, 39195, Note_on_c, 9, 59, 30
4, 39209, Note_on_c, 9, 59, 0
4, 39241, Note_on_c, 9, 59, 79
4, 39301, Note_on_c, 9, 59, 0
4, 39353, Note_on_c, 9, 59, 39
4, 39366, Note_on_c, 9, 59, 0
4, 39428, Note_on_c, 9, 59, 69
4, 39447, Note_on_c, 9, 59, 0
4, 39554, Note_on_c, 9, 59, 87
4, 39578, Note_on_c, 9, 59, 0
4, 39677, Note_on_c, 9, 59, 86
4, 39700, Note_on_c, 9, 59, 0
4, 39786, Note_on_c, 9, 59, 66
4, 39808, Note_on_c, 9, 59, 0
4, 39831, Note_on_c, 9, 59, 82
4, 39876, Note_on_c, 9, 59, 0
4, 39949, Note_on_c, 9, 59, 86
4, 39982, Note_on_c, 9, 59, 0
4, 40069, Note_on_c, 9, 59, 83
4, 40103, Note_on_c, 9, 59, 0
4, 40192, Note_on_c, 9, 59, 79
4, 40219, Note_on_c, 9, 59, 0
4, 40285, Note_on_c, 9, 59, 56
4, 40296, Note_on_c, 9, 59, 0
4, 40321, Note_on_c, 9, 59, 73
4, 40386, Note_on_c, 9, 59, 0
4, 40434, Note_on_c, 9, 59, 53
4, 40454, Note_on_c, 9, 59, 0
4, 40555, Note_on_c, 9, 59, 65
4, 40578, Note_on_c, 9, 59, 0
4, 40683, Note_on_c, 9, 59, 55
4, 40694, Note_on_c, 9, 59, 0
4, 40761, Note_on_c, 9, 59, 59
4, 40780, Note_on_c, 9, 59, 0
4, 40804, Note_on_c, 9, 59, 72
4, 40873, Note_on_c, 9, 59, 0
4, 40930, Note_on_c, 9, 59, 66
4, 40977, Note_on_c, 9, 59, 0
4, 41044, Note_on_c, 9, 59, 68
4, 41082, Note_on_c, 9, 59, 0
4, 41168, Note_on_c, 9, 59, 70
4, 41202, Note_on_c, 9, 59, 0
4, 41252, Note_on_c, 9, 59, 48
4, 41264, Note_on_c, 9, 59, 0
4, 41289, Note_on_c, 9, 59, 62
4, 41347, Note_on_c, 9, 59, 0
4, 41409, Note_on_c, 9, 59, 68
4, 41455, Note_on_c, 9, 59, 0
4, 41529, Note_on_c, 9, 59, 65
4, 41563, Note_on_c, 9, 59, 0
4, 41647, Note_on_c, 9, 59, 71
4, 41687, Note_on_c, 9, 59, 0
4, 41732, Note_on_c, 9, 59, 35
4, 41746, Note_on_c, 9, 59, 0
4, 41767, Note_on_c, 9, 59, 71
4, 41822, Note_on_c, 9, 59, 0
4, 41884, Note_on_c, 9, 59, 69
4, 41924, Note_on_c, 9, 59, 0
4, 42001, Note_on_c, 9, 59, 65
4, 42039, Note_on_c, 9, 59, 0
4, 42087, Note_on_c, 9, 59, 58
4, 42099, Note_on_c, 9, 59, 0
4, 42120, Note_on_c, 9, 59, 62
4, 42184, Note_on_c, 9, 59, 0
4, 42233, Note_on_c, 9, 59, 65
4, 42288, Note_on_c, 9, 59, 0
4, 42357, Note_on_c, 9, 59, 66
4, 42403, Note_on_c, 9, 59, 0
4, 42476, Note_on_c, 9, 59, 67
4, 42522, Note_on_c, 9, 59, 0
4, 42599, Note_on_c, 9, 59, 67
4, 42642, Note_on_c, 9, 59, 0
4, 42692, Note_on_c, 9, 59, 46
4, 42703, Note_on_c, 9, 59, 0
4, 42787, Note_on_c, 9, 59, 68
4, 42787, Note_on_c, 9, 59, 0
4, 42845, Note_on_c, 9, 59, 67
4, 42896, Note_on_c, 9, 59, 0
4, 42956, Note_on_c, 9, 59, 65
4, 43005, Note_on_c, 9, 59, 0
4, 43081, Note_on_c, 9, 59, 65
4, 43119, Note_on_c, 9, 59, 0
4, 43171, Note_on_c, 9, 59, 33
4, 43184, Note_on_c, 9, 59, 0
4, 43206, Note_on_c, 9, 59, 64
4, 43257, Note_on_c, 9, 59, 0
4, 43322, Note_on_c, 9, 59, 71
4, 43365, Note_on_c, 9, 59, 0
4, 43440, Note_on_c, 9, 59, 69
4, 43482, Note_on_c, 9, 59, 0
4, 43526, Note_on_c, 9, 59, 59
4, 43537, Note_on_c, 9, 59, 0
4, 43560, Note_on_c, 9, 59, 59
4, 43610, Note_on_c, 9, 59, 0
4, 43680, Note_on_c, 9, 59, 69
4, 43720, Note_on_c, 9, 59, 0
4, 43771, Note_on_c, 9, 59, 49
4, 43786, Note_on_c, 9, 59, 0
4, 43810, Note_on_c, 9, 59, 71
4, 43854, Note_on_c, 9, 59, 0
4, 43924, Note_on_c, 9, 59, 71
4, 43975, Note_on_c, 9, 59, 0
4, 44044, Note_on_c, 9, 59, 71
4, 44086, Note_on_c, 9, 59, 0
4, 44167, Note_on_c, 9, 59, 69
4, 44201, Note_on_c, 9, 59, 0
4, 44250, Note_on_c, 9, 59, 53
4, 44262, Note_on_c, 9, 59, 0
4, 44287, Note_on_c, 9, 59, 65
4, 44327, Note_on_c, 9, 59, 0
4, 44403, Note_on_c, 9, 59, 68
4, 44434, Note_on_c, 9, 59, 0
4, 44519, Note_on_c, 9, 59, 61
4, 44535, Note_on_c, 9, 59, 0
4, 44644, Note_on_c, 9, 59, 81
4, 44701, Note_on_c, 9, 59, 0
4, 44764, Note_on_c, 9, 59, 42
4, 44786, Note_on_c, 9, 59, 0
4, 44855, Note_on_c, 9, 59, 57
4, 44864, Note_on_c, 9, 59, 0
4, 44893, Note_on_c, 9, 59, 66
4, 44978, Note_on_c, 9, 59, 0
4, 45011, Note_on_c, 9, 59, 45
4, 45034, Note_on_c, 9, 59, 0
4, 45092, Note_on_c, 9, 59, 70
4, 45103, Note_on_c, 9, 59, 0
4, 45129, Note_on_c, 9, 59, 79
4, 45196, Note_on_c, 9, 59, 0
4, 45322, Note_on_c, 9, 59, 82
4, 45377, Note_on_c, 9, 59, 0
4, 45445, Note_on_c, 9, 59, 52
4, 45456, Note_on_c, 9, 59, 0
4, 45497, Note_on_c, 9, 59, 86
4, 45556, Note_on_c, 9, 59, 0
4, 45609, Note_on_c, 9, 59, 23
4, 45622, Note_on_c, 9, 59, 0
4, 45680, Note_on_c, 9, 59, 80
4, 45714, Note_on_c, 9, 59, 0
4, 45795, Note_on_c, 9, 59, 52
4, 45805, Note_on_c, 9, 59, 0
4, 45840, Note_on_c, 9, 59, 79
4, 45883, Note_on_c, 9, 59, 0
4, 45964, Note_on_c, 9, 59, 73
4, 45997, Note_on_c, 9, 59, 0
4, 46085, Note_on_c, 9, 51, 48
4, 46112, Note_on_c, 9, 51, 0
4, 46206, Note_on_c, 9, 51, 50
4, 46237, Note_on_c, 9, 51, 0
4, 46331, Note_on_c, 9, 51, 50
4, 46374, Note_on_c, 9, 51, 0
4, 46423, Note_on_c, 9, 51, 20
4, 46434, Note_on_c, 9, 51, 0
4, 46449, Note_on_c, 9, 51, 44
4, 46498, Note_on_c, 9, 51, 0
4, 46558, Note_on_c, 9, 51, 60
4, 46604, Note_on_c, 9, 51, 0
4, 46652, Note_on_c, 9, 51, 35
4, 46663, Note_on_c, 9, 51, 0
4, 46683, Note_on_c, 9, 51, 54
4, 46738, Note_on_c, 9, 51, 0
4, 46800, Note_on_c, 9, 51, 67
4, 46860, Note_on_c, 9, 51, 0
4, 46919, Note_on_c, 9, 51, 62
4, 46967, Note_on_c, 9, 51, 0
4, 47044, Note_on_c, 9, 51, 62
4, 47086, Note_on_c, 9, 51, 0
4, 47161, Note_on_c, 9, 51, 49
4, 47218, Note_on_c, 9, 51, 0
4, 47279, Note_on_c, 9, 51, 60
4, 47320, Note_on_c, 9, 51, 0
4, 47398, Note_on_c, 9, 51, 60
4, 47439, Note_on_c, 9, 51, 0
4, 47494, Note_on_c, 9, 51, 63
4, 47507, Note_on_c, 9, 51, 0
4, 47528, Note_on_c, 9, 51, 61
4, 47576, Note_on_c, 9, 51, 0
4, 47639, Note_on_c, 9, 51, 67
4, 47688, Note_on_c, 9, 51, 0
4, 47758, Note_on_c, 9, 51, 62
4, 47798, Note_on_c, 9, 51, 0
4, 47847, Note_on_c, 9, 51, 34
4, 47858, Note_on_c, 9, 51, 0
4, 47879, Note_on_c, 9, 51, 55
4, 47935, Note_on_c, 9, 51, 0
4, 48002, Note_on_c, 9, 51, 65
4, 48036, Note_on_c, 9, 51, 0
4, 48118, Note_on_c, 9, 51, 62
4, 48179, Note_on_c, 9, 51, 0
4, 48195, Note_on_c, 9, 46, 37
4, 48217, Note_on_c, 9, 46, 0
4, 48242, Note_on_c, 9, 51, 44
4, 48303, Note_on_c, 9, 51, 0
4, 48351, Note_on_c, 9, 51, 40
4, 48390, Note_on_c, 9, 51, 0
4, 48473, Note_on_c, 9, 51, 48
4, 48512, Note_on_c, 9, 51, 0
4, 48598, Note_on_c, 9, 51, 58
4, 48632, Note_on_c, 9, 51, 0
4, 48720, Note_on_c, 9, 51, 67
4, 48752, Note_on_c, 9, 51, 0
4, 48808, Note_on_c, 9, 51, 43
4, 48821, Note_on_c, 9, 51, 0
4, 48841, Note_on_c, 9, 51, 59
4, 48893, Note_on_c, 9, 51, 0
4, 48961, Note_on_c, 9, 51, 68
4, 49006, Note_on_c, 9, 51, 0
4, 49075, Note_on_c, 9, 51, 43
4, 49106, Note_on_c, 9, 51, 0
4, 49199, Note_on_c, 9, 51, 69
4, 49242, Note_on_c, 9, 51, 0
4, 49320, Note_on_c, 9, 51, 27
4, 49348, Note_on_c, 9, 51, 0
4, 49439, Note_on_c, 9, 51, 77
4, 49492, Note_on_c, 9, 51, 0
4, 49560, Note_on_c, 9, 51, 24
4, 49574, Note_on_c, 9, 51, 0
4, 49636, Note_on_c, 9, 51, 29
4, 49649, Note_on_c, 9, 51, 0
4, 49673, Note_on_c, 9, 51, 56
4, 49746, Note_on_c, 9, 51, 0
4, 49796, Note_on_c, 9, 51, 68
4, 49845, Note_on_c, 9, 51, 0
4, 49918, Note_on_c, 9, 51, 33
4, 49946, Note_on_c, 9, 51, 0
4, 50004, Note_on_c, 9, 51, 27
4, 50016, Note_on_c, 9, 51, 0
4, 50038, Note_on_c, 9, 51, 60
4, 50112, Note_on_c, 9, 51, 0
4, 50163, Note_on_c, 9, 51, 55
4, 50208, Note_on_c, 9, 51, 0
4, 50252, Note_on_c, 9, 51, 20
4, 50264, Note_on_c, 9, 51, 0
4, 50285, Note_on_c, 9, 51, 62
4, 50337, Note_on_c, 9, 51, 0
4, 50400, Note_on_c, 9, 51, 62
4, 50451, Note_on_c, 9, 51, 0
4, 50517, Note_on_c, 9, 51, 55
4, 50560, Note_on_c, 9, 51, 0
4, 50635, Note_on_c, 9, 51, 58
4, 50670, Note_on_c, 9, 51, 0
4, 50732, Note_on_c, 9, 53, 66
4, 50763, Note_on_c, 9, 53, 0
4, 50868, Note_on_c, 9, 51, 46
4, 50900, Note_on_c, 9, 51, 0
4, 50994, Note_on_c, 9, 51, 50
4, 51029, Note_on_c, 9, 51, 0
4, 51114, Note_on_c, 9, 51, 46
4, 51142, Note_on_c, 9, 51, 0
4, 51241, Note_on_c, 9, 51, 71
4, 51278, Note_on_c, 9, 51, 0
4, 51322, Note_on_c, 9, 51, 39
4, 51338, Note_on_c, 9, 51, 0
4, 51359, Note_on_c, 9, 51, 63
4, 51402, Note_on_c, 9, 51, 0
4, 51478, Note_on_c, 9, 51, 72
4, 51527, Note_on_c, 9, 51, 0
4, 51597, Note_on_c, 9, 51, 37
4, 51614, Note_on_c, 9, 51, 0
4, 51686, Note_on_c, 9, 51, 27
4, 51698, Note_on_c, 9, 51, 0
4, 51724, Note_on_c, 9, 51, 53
4, 51778, Note_on_c, 9, 51, 0
4, 51842, Note_on_c, 9, 51, 68
4, 51901, Note_on_c, 9, 51, 0
4, 51966, Note_on_c, 9, 51, 41
4, 52003, Note_on_c, 9, 51, 0
4, 52082, Note_on_c, 9, 51, 70
4, 52140, Note_on_c, 9, 51, 0
4, 52198, Note_on_c, 9, 51, 14
4, 52228, Note_on_c, 9, 51, 0
4, 52318, Note_on_c, 9, 51, 70
4, 52369, Note_on_c, 9, 51, 0
4, 52446, Note_on_c, 9, 51, 34
4, 52476, Note_on_c, 9, 51, 0
4, 52527, Note_on_c, 9, 51, 37
4, 52542, Note_on_c, 9, 51, 0
4, 52565, Note_on_c, 9, 51, 53
4, 52629, Note_on_c, 9, 51, 0
4, 52683, Note_on_c, 9, 51, 51
4, 52719, Note_on_c, 9, 51, 0
4, 52764, Note_on_c, 9, 51, 37
4, 52785, Note_on_c, 9, 51, 0
4, 52804, Note_on_c, 9, 51, 43
4, 52869, Note_on_c, 9, 51, 0
4, 52919, Note_on_c, 9, 51, 62
4, 52964, Note_on_c, 9, 51, 0
4, 53040, Note_on_c, 9, 51, 52
4, 53083, Note_on_c, 9, 51, 0
4, 53127, Note_on_c, 9, 51, 25
4, 53139, Note_on_c, 9, 51, 0
4, 53156, Note_on_c, 9, 51, 49
4, 53207, Note_on_c, 9, 51, 0
4, 53277, Note_on_c, 9, 51, 67
4, 53314, Note_on_c, 9, 51, 0
4, 53392, Note_on_c, 9, 51, 59
4, 53438, Note_on_c, 9, 51, 0
4, 53519, Note_on_c, 9, 51, 67
4, 53553, Note_on_c, 9, 51, 0
4, 53603, Note_on_c, 9, 51, 29
4, 53615, Note_on_c, 9, 51, 0
4, 53636, Note_on_c, 9, 51, 53
4, 53682, Note_on_c, 9, 51, 0
4, 53753, Note_on_c, 9, 51, 68
4, 53793, Note_on_c, 9, 51, 0
4, 53837, Note_on_c, 9, 51, 43
4, 53851, Note_on_c, 9, 51, 0
4, 53875, Note_on_c, 9, 51, 51
4, 53918, Note_on_c, 9, 51, 0
4, 53992, Note_on_c, 9, 51, 65
4, 54027, Note_on_c, 9, 51, 0
4, 54112, Note_on_c, 9, 51, 55
4, 54149, Note_on_c, 9, 51, 0
4, 54212, Note_on_c, 9, 51, 45
4, 54223, Note_on_c, 9, 51, 0
4, 54244, Note_on_c, 9, 51, 42
4, 54267, Note_on_c, 9, 51, 0
4, 54351, Note_on_c, 9, 51, 68
4, 54396, Note_on_c, 9, 51, 0
4, 54472, Note_on_c, 9, 51, 38
4, 54489, Note_on_c, 9, 51, 0
4, 54556, Note_on_c, 9, 51, 40
4, 54568, Note_on_c, 9, 51, 0
4, 54596, Note_on_c, 9, 51, 68
4, 54652, Note_on_c, 9, 51, 0
4, 54791, Note_on_c, 9, 51, 30
4, 54806, Note_on_c, 9, 51, 0
4, 54836, Note_on_c, 9, 51, 66
4, 54901, Note_on_c, 9, 51, 0
4, 54959, Note_on_c, 9, 51, 46
4, 54994, Note_on_c, 9, 51, 0
4, 55037, Note_on_c, 9, 51, 27
4, 55051, Note_on_c, 9, 51, 0
4, 55076, Note_on_c, 9, 51, 60
4, 55148, Note_on_c, 9, 51, 0
4, 55199, Note_on_c, 9, 51, 65
4, 55250, Note_on_c, 9, 51, 0
4, 55315, Note_on_c, 9, 51, 65
4, 55370, Note_on_c, 9, 51, 0
4, 55431, Note_on_c, 9, 51, 62
4, 55477, Note_on_c, 9, 51, 0
4, 55552, Note_on_c, 9, 51, 60
4, 55591, Note_on_c, 9, 51, 0
4, 55640, Note_on_c, 9, 51, 37
4, 55654, Note_on_c, 9, 51, 0
4, 55676, Note_on_c, 9, 51, 60
4, 55716, Note_on_c, 9, 51, 0
4, 55794, Note_on_c, 9, 51, 62
4, 55837, Note_on_c, 9, 51, 0
4, 55910, Note_on_c, 9, 51, 46
4, 55934, Note_on_c, 9, 51, 0
4, 56002, Note_on_c, 9, 51, 48
4, 56013, Note_on_c, 9, 51, 0
4, 56037, Note_on_c, 9, 51, 50
4, 56066, Note_on_c, 9, 51, 0
4, 56154, Note_on_c, 9, 51, 68
4, 56187, Note_on_c, 9, 51, 0
4, 56275, Note_on_c, 9, 51, 54
4, 56302, Note_on_c, 9, 51, 0
4, 56393, Note_on_c, 9, 51, 65
4, 56421, Note_on_c, 9, 51, 0
4, 56515, Note_on_c, 9, 51, 65
4, 56552, Note_on_c, 9, 51, 0
4, 56638, Note_on_c, 9, 51, 64
4, 56672, Note_on_c, 9, 51, 0
4, 56762, Note_on_c, 9, 51, 63
4, 56792, Note_on_c, 9, 51, 0
4, 56883, Note_on_c, 9, 51, 62
4, 56911, Note_on_c, 9, 51, 0
4, 57005, Note_on_c, 9, 51, 61
4, 57034, Note_on_c, 9, 51, 0
4, 57086, Note_on_c, 9, 51, 38
4, 57099, Note_on_c, 9, 51, 0
4, 57120, Note_on_c, 9, 51, 60
4, 57158, Note_on_c, 9, 51, 0
4, 57234, Note_on_c, 9, 51, 64
4, 57273, Note_on_c, 9, 51, 0
4, 57357, Note_on_c, 9, 51, 48
4, 57377, Note_on_c, 9, 51, 0
4, 57479, Note_on_c, 9, 51, 68
4, 57512, Note_on_c, 9, 51, 0
4, 57571, Note_on_c, 9, 51, 34
4, 57586, Note_on_c, 9, 51, 0
4, 57617, Note_on_c, 9, 51, 30
4, 57628, Note_on_c, 9, 51, 0
4, 57725, Note_on_c, 9, 51, 71
4, 57757, Note_on_c, 9, 51, 0
4, 57809, Note_on_c, 9, 51, 36
4, 57825, Note_on_c, 9, 51, 0
4, 57848, Note_on_c, 9, 51, 58
4, 57885, Note_on_c, 9, 51, 0
4, 57967, Note_on_c, 9, 51, 74
4, 58014, Note_on_c, 9, 51, 0
4, 58052, Note_on_c, 9, 51, 22
4, 58065, Note_on_c, 9, 51, 0
4, 58087, Note_on_c, 9, 51, 50
4, 58125, Note_on_c, 9, 51, 0
4, 58212, Note_on_c, 9, 51, 74
4, 58253, Note_on_c, 9, 51, 0
4, 58288, Note_on_c, 9, 51, 33
4, 58310, Note_on_c, 9, 51, 0
4, 58333, Note_on_c, 9, 51, 50
4, 58353, Note_on_c, 9, 51, 0
4, 58443, Note_on_c, 9, 51, 76
4, 58474, Note_on_c, 9, 51, 0
4, 58556, Note_on_c, 9, 51, 70
4, 58590, Note_on_c, 9, 51, 0
4, 58683, Note_on_c, 9, 51, 59
4, 58703, Note_on_c, 9, 51, 0
4, 58769, Note_on_c, 9, 51, 64
4, 58782, Note_on_c, 9, 51, 0
4, 58802, Note_on_c, 9, 51, 68
4, 58848, Note_on_c, 9, 51, 0
4, 58918, Note_on_c, 9, 51, 76
4, 58970, Note_on_c, 9, 51, 0
4, 59113, Note_on_c, 9, 51, 60
4, 59197, Note_on_c, 9, 51, 0
4, 59280, Note_on_c, 9, 51, 70
4, 59323, Note_on_c, 9, 51, 0
4, 59469, Note_on_c, 9, 51, 72
4, 59502, Note_on_c, 9, 51, 0
4, 59523, Note_on_c, 9, 51, 40
4, 59551, Note_on_c, 9, 51, 0
4, 59638, Note_on_c, 9, 51, 71
4, 59671, Note_on_c, 9, 51, 0
4, 59830, Note_on_c, 9, 51, 71
4, 59861, Note_on_c, 9, 51, 0
4, 59881, Note_on_c, 9, 51, 43
4, 59894, Note_on_c, 9, 51, 0
4, 60004, Note_on_c, 9, 51, 74
4, 60034, Note_on_c, 9, 51, 0
4, 60119, Note_on_c, 9, 51, 34
4, 60132, Note_on_c, 9, 51, 0
4, 60194, Note_on_c, 9, 51, 74
4, 60229, Note_on_c, 9, 51, 0
4, 60311, Note_on_c, 9, 51, 74
4, 60343, Note_on_c, 9, 51, 0
4, 60428, Note_on_c, 9, 51, 39
4, 60441, Note_on_c, 9, 51, 0
4, 60475, Note_on_c, 9, 51, 65
4, 60521, Note_on_c, 9, 51, 0
4, 60589, Note_on_c, 9, 51, 68
4, 60634, Note_on_c, 9, 51, 0
4, 60715, Note_on_c, 9, 51, 64
4, 60746, Note_on_c, 9, 51, 0
4, 60800, Note_on_c, 9, 51, 47
4, 60816, Note_on_c, 9, 51, 0
4, 60837, Note_on_c, 9, 51, 66
4, 60889, Note_on_c, 9, 51, 0
4, 60954, Note_on_c, 9, 51, 71
4, 60997, Note_on_c, 9, 51, 0
4, 61079, Note_on_c, 9, 51, 56
4, 61100, Note_on_c, 9, 51, 0
4, 61173, Note_on_c, 9, 51, 40
4, 61184, Note_on_c, 9, 51, 0
4, 61214, Note_on_c, 9, 51, 75
4, 61270, Note_on_c, 9, 51, 0
4, 61319, Note_on_c, 9, 51, 42
4, 61331, Note_on_c, 9, 51, 0
4, 61404, Note_on_c, 9, 51, 76
4, 61436, Note_on_c, 9, 51, 0
4, 61520, Note_on_c, 9, 51, 38
4, 61535, Note_on_c, 9, 51, 0
4, 61568, Note_on_c, 9, 51, 75
4, 61624, Note_on_c, 9, 51, 0
4, 61672, Note_on_c, 9, 51, 37
4, 61693, Note_on_c, 9, 51, 0
4, 61749, Note_on_c, 9, 51, 76
4, 61786, Note_on_c, 9, 51, 0
4, 61872, Note_on_c, 9, 51, 41
4, 61887, Note_on_c, 9, 51, 0
4, 61920, Note_on_c, 9, 51, 73
4, 61961, Note_on_c, 9, 51, 0
4, 62037, Note_on_c, 9, 51, 68
4, 62078, Note_on_c, 9, 51, 0
4, 62161, Note_on_c, 9, 51, 70
4, 62200, Note_on_c, 9, 51, 0
4, 62241, Note_on_c, 9, 51, 40
4, 62252, Note_on_c, 9, 51, 0
4, 62274, Note_on_c, 9, 51, 55
4, 62316, Note_on_c, 9, 51, 0
4, 62391, Note_on_c, 9, 51, 73
4, 62428, Note_on_c, 9, 51, 0
4, 62511, Note_on_c, 9, 51, 67
4, 62546, Note_on_c, 9, 51, 0
4, 62608, Note_on_c, 9, 51, 39
4, 62618, Note_on_c, 9, 51, 0
4, 62634, Note_on_c, 9, 51, 55
4, 62664, Note_on_c, 9, 51, 0
4, 62755, Note_on_c, 9, 51, 72
4, 62784, Note_on_c, 9, 51, 0
4, 62877, Note_on_c, 9, 51, 67
4, 62904, Note_on_c, 9, 51, 0
4, 63002, Note_on_c, 9, 51, 66
4, 63028, Note_on_c, 9, 51, 0
4, 63125, Note_on_c, 9, 51, 65
4, 63154, Note_on_c, 9, 51, 0
4, 63210, Note_on_c, 9, 51, 38
4, 63221, Note_on_c, 9, 51, 0
4, 63244, Note_on_c, 9, 51, 50
4, 63276, Note_on_c, 9, 51, 0
4, 63364, Note_on_c, 9, 51, 55
4, 63409, Note_on_c, 9, 51, 0
4, 63485, Note_on_c, 9, 51, 60
4, 63529, Note_on_c, 9, 51, 0
4, 63601, Note_on_c, 9, 51, 55
4, 63647, Note_on_c, 9, 51, 0
4, 63724, Note_on_c, 9, 51, 47
4, 63783, Note_on_c, 9, 51, 0
4, 63803, Note_on_c, 9, 53, 62
4, 63905, Note_on_c, 9, 53, 0
4, 63922, Note_on_c, 9, 51, 38
4, 63946, Note_on_c, 9, 51, 0
4, 63970, Note_on_c, 9, 51, 50
4, 64042, Note_on_c, 9, 51, 0
4, 64082, Note_on_c, 9, 51, 58
4, 64131, Note_on_c, 9, 51, 0
4, 64153, Note_on_c, 9, 53, 57
4, 64240, Note_on_c, 9, 53, 0
4, 64278, Note_on_c, 9, 51, 37
4, 64288, Note_on_c, 9, 51, 0
4, 64319, Note_on_c, 9, 51, 44
4, 64363, Note_on_c, 9, 51, 0
4, 64428, Note_on_c, 9, 51, 41
4, 64481, Note_on_c, 9, 51, 0
4, 64501, Note_on_c, 9, 59, 61
4, 64535, Note_on_c, 9, 59, 0
4, 64638, Note_on_c, 9, 51, 36
4, 64652, Note_on_c, 9, 51, 0
4, 64678, Note_on_c, 9, 51, 53
4, 64750, Note_on_c, 9, 51, 0
4, 64793, Note_on_c, 9, 59, 56
4, 64829, Note_on_c, 9, 59, 0
4, 64914, Note_on_c, 9, 51, 50
4, 64937, Note_on_c, 9, 51, 0
4, 65038, Note_on_c, 9, 51, 42
4, 65076, Note_on_c, 9, 51, 0
4, 65163, Note_on_c, 9, 51, 82
4, 65208, Note_on_c, 9, 51, 0
4, 65281, Note_on_c, 9, 51, 26
4, 65295, Note_on_c, 9, 51, 0
4, 65359, Note_on_c, 9, 51, 38
4, 65373, Note_on_c, 9, 51, 0
4, 65406, Note_on_c, 9, 51, 48
4, 65428, Note_on_c, 9, 51, 0
4, 65477, Note_on_c, 9, 59, 70
4, 65520, Note_on_c, 9, 59, 0
4, 65526, Note_on_c, 9, 51, 21
4, 65540, Note_on_c, 9, 51, 0
4, 65641, Note_on_c, 9, 51, 52
4, 65664, Note_on_c, 9, 51, 0
4, 65718, Note_on_c, 9, 59, 69
4, 65751, Note_on_c, 9, 59, 0
4, 65763, Note_on_c, 9, 51, 51
4, 65818, Note_on_c, 9, 51, 0
4, 65877, Note_on_c, 9, 51, 48
4, 65903, Note_on_c, 9, 51, 0
4, 65953, Note_on_c, 9, 59, 74
4, 65986, Note_on_c, 9, 59, 0
4, 65996, Note_on_c, 9, 51, 50
4, 66049, Note_on_c, 9, 51, 0
4, 66111, Note_on_c, 9, 51, 62
4, 66141, Note_on_c, 9, 51, 0
4, 66235, Note_on_c, 9, 51, 54
4, 66254, Note_on_c, 9, 51, 0
4, 66560, Note_on_c, 9, 59, 45
4, 66572, Note_on_c, 9, 59, 0
4, 66612, Note_on_c, 9, 59, 15
4, 66636, Note_on_c, 9, 59, 0
4, 67036, Note_on_c, 9, 59, 49
4, 67047, Note_on_c, 9, 59, 0
4, 67077, Note_on_c, 9, 51, 43
4, 67122, Note_on_c, 9, 51, 0
4, 67284, Note_on_c, 9, 59, 39
4, 67298, Note_on_c, 9, 59, 0
4, 67326, Note_on_c, 9, 51, 38
4, 67361, Note_on_c, 9, 51, 0
4, 67511, Note_on_c, 9, 59, 58
4, 67522, Note_on_c, 9, 59, 0
4, 67549, Note_on_c, 9, 51, 34
4, 67581, Note_on_c, 9, 51, 0
4, 67670, Note_on_c, 9, 51, 37
4, 67708, Note_on_c, 9, 51, 0
4, 67874, Note_on_c, 9, 59, 53
4, 67893, Note_on_c, 9, 59, 0
4, 67916, Note_on_c, 9, 51, 41
4, 67954, Note_on_c, 9, 51, 0
4, 68035, Note_on_c, 9, 51, 27
4, 68075, Note_on_c, 9, 51, 0
4, 68156, Note_on_c, 9, 51, 25
4, 68186, Note_on_c, 9, 51, 0
4, 68283, Note_on_c, 9, 51, 18
4, 68316, Note_on_c, 9, 51, 0
4, 68611, Note_on_c, 9, 59, 46
4, 68622, Note_on_c, 9, 59, 0
4, 68644, Note_on_c, 9, 59, 59
4, 68679, Note_on_c, 9, 59, 0
4, 68759, Note_on_c, 9, 59, 69
4, 68796, Note_on_c, 9, 59, 0
4, 68881, Note_on_c, 9, 59, 72
4, 68924, Note_on_c, 9, 59, 0
4, 68999, Note_on_c, 9, 59, 70
4, 69036, Note_on_c, 9, 59, 0
4, 69077, Note_on_c, 9, 53, 62
4, 69105, Note_on_c, 9, 53, 0
4, 69131, Note_on_c, 9, 51, 48
4, 69190, Note_on_c, 9, 51, 0
4, 69312, Note_on_c, 9, 59, 59
4, 69323, Note_on_c, 9, 59, 0
4, 69357, Note_on_c, 9, 53, 49
4, 69391, Note_on_c, 9, 53, 0
4, 69602, Note_on_c, 9, 59, 34
4, 69616, Note_on_c, 9, 59, 0
4, 69717, Note_on_c, 9, 59, 50
4, 69732, Note_on_c, 9, 59, 0
4, 70051, Note_on_c, 9, 59, 30
4, 70065, Note_on_c, 9, 59, 0
4, 70094, Note_on_c, 9, 59, 35
4, 70117, Note_on_c, 9, 59, 0
4, 70199, Note_on_c, 9, 59, 44
4, 70261, Note_on_c, 9, 59, 0
4, 70320, Note_on_c, 9, 59, 38
4, 70376, Note_on_c, 9, 59, 0
4, 70440, Note_on_c, 9, 59, 45
4, 70485, Note_on_c, 9, 59, 0
4, 70566, Note_on_c, 9, 59, 25
4, 70600, Note_on_c, 9, 59, 0
4, 70689, Note_on_c, 9, 59, 87
4, 70759, Note_on_c, 9, 59, 0
4, 70809, Note_on_c, 9, 59, 27
4, 70833, Note_on_c, 9, 59, 0
4, 70886, Note_on_c, 9, 59, 42
4, 70898, Note_on_c, 9, 59, 0
4, 70930, Note_on_c, 9, 59, 78
4, 71003, Note_on_c, 9, 59, 0
4, 71053, Note_on_c, 9, 59, 42
4, 71064, Note_on_c, 9, 59, 0
4, 71113, Note_on_c, 9, 51, 68
4, 71179, Note_on_c, 9, 51, 0
4, 71234, Note_on_c, 9, 59, 49
4, 71250, Note_on_c, 9, 59, 0
4, 71292, Note_on_c, 9, 59, 73
4, 71307, Note_on_c, 9, 51, 47
4, 71332, Note_on_c, 9, 51, 0
4, 71377, Note_on_c, 9, 59, 0
4, 71402, Note_on_c, 9, 59, 41
4, 71414, Note_on_c, 9, 59, 0
4, 71472, Note_on_c, 9, 51, 65
4, 71519, Note_on_c, 9, 51, 0
4, 71591, Note_on_c, 9, 46, 60
4, 71624, Note_on_c, 9, 46, 0
4, 71667, Note_on_c, 9, 59, 72
4, 71724, Note_on_c, 9, 59, 0
4, 71762, Note_on_c, 9, 51, 51
4, 71788, Note_on_c, 9, 51, 0
4, 71835, Note_on_c, 9, 59, 76
4, 71875, Note_on_c, 9, 59, 0
4, 71953, Note_on_c, 9, 51, 60
4, 72010, Note_on_c, 9, 51, 0
4, 72010, Note_on_c, 9, 59, 62
4, 72080, Note_on_c, 9, 59, 0
4, 72124, Note_on_c, 9, 59, 33
4, 72139, Note_on_c, 9, 59, 0
4, 72235, Note_on_c, 9, 59, 35
4, 72247, Note_on_c, 9, 59, 0
4, 72365, Note_on_c, 9, 59, 52
4, 72390, Note_on_c, 9, 59, 0
4, 72733, Note_on_c, 9, 59, 35
4, 72746, Note_on_c, 9, 59, 0
4, 72800, Note_on_c, 9, 59, 55
4, 72811, Note_on_c, 9, 59, 0
4, 72853, Note_on_c, 9, 59, 43
4, 72880, Note_on_c, 9, 59, 0
4, 72918, Note_on_c, 9, 59, 48
4, 72945, Note_on_c, 9, 59, 0
4, 72970, Note_on_c, 9, 59, 57
4, 73019, Note_on_c, 9, 59, 0
4, 73088, Note_on_c, 9, 59, 44
4, 73113, Note_on_c, 9, 59, 0
4, 73150, Note_on_c, 9, 59, 39
4, 73164, Note_on_c, 9, 59, 0
4, 73207, Note_on_c, 9, 59, 76
4, 73283, Note_on_c, 9, 59, 0
4, 73328, Note_on_c, 9, 59, 24
4, 73342, Note_on_c, 9, 59, 0
4, 73401, Note_on_c, 9, 59, 37
4, 73414, Note_on_c, 9, 59, 0
4, 73449, Note_on_c, 9, 59, 78
4, 73531, Note_on_c, 9, 59, 0
4, 73564, Note_on_c, 9, 59, 25
4, 73578, Note_on_c, 9, 59, 0
4, 73639, Note_on_c, 9, 59, 60
4, 73666, Note_on_c, 9, 59, 0
4, 73685, Note_on_c, 9, 59, 75
4, 73760, Note_on_c, 9, 59, 0
4, 73920, Note_on_c, 9, 59, 23
4, 73933, Note_on_c, 9, 59, 0
4, 73990, Note_on_c, 9, 59, 71
4, 74014, Note_on_c, 9, 59, 0
4, 74116, Note_on_c, 9, 59, 37
4, 74130, Note_on_c, 9, 59, 0
4, 74162, Note_on_c, 9, 59, 59
4, 74226, Note_on_c, 9, 59, 0
4, 74278, Note_on_c, 9, 59, 28
4, 74293, Note_on_c, 9, 59, 0
4, 74341, Note_on_c, 9, 59, 52
4, 74376, Note_on_c, 9, 59, 0
4, 74471, Note_on_c, 9, 53, 35
4, 74481, Note_on_c, 9, 53, 0
4, 74512, Note_on_c, 9, 59, 44
4, 74583, Note_on_c, 9, 59, 0
4, 74642, Note_on_c, 9, 59, 34
4, 74667, Note_on_c, 9, 59, 0
4, 74758, Note_on_c, 9, 59, 46
4, 74804, Note_on_c, 9, 59, 0
4, 74836, Note_on_c, 9, 53, 60
4, 74857, Note_on_c, 9, 53, 0
4, 74881, Note_on_c, 9, 59, 38
4, 74943, Note_on_c, 9, 59, 0
4, 75000, Note_on_c, 9, 59, 36
4, 75064, Note_on_c, 9, 59, 0
4, 75115, Note_on_c, 9, 59, 46
4, 75153, Note_on_c, 9, 59, 0
4, 75191, Note_on_c, 9, 51, 66
4, 75217, Note_on_c, 9, 51, 0
4, 75240, Note_on_c, 9, 59, 43
4, 75311, Note_on_c, 9, 59, 0
4, 75355, Note_on_c, 9, 59, 38
4, 75415, Note_on_c, 9, 59, 0
4, 75475, Note_on_c, 9, 59, 26
4, 75540, Note_on_c, 9, 59, 0
4, 75835, Note_on_c, 9, 59, 45
4, 75862, Note_on_c, 9, 59, 0
4, 75915, Note_on_c, 9, 53, 35
4, 75934, Note_on_c, 9, 53, 0
4, 76030, Note_on_c, 9, 59, 60
4, 76051, Note_on_c, 9, 59, 0
4, 76090, Note_on_c, 9, 53, 54
4, 76157, Note_on_c, 9, 53, 0
4, 76202, Note_on_c, 9, 59, 46
4, 76216, Note_on_c, 9, 59, 0
4, 76273, Note_on_c, 9, 53, 59
4, 76322, Note_on_c, 9, 53, 0
4, 76391, Note_on_c, 9, 59, 48
4, 76403, Note_on_c, 9, 59, 0
4, 76457, Note_on_c, 9, 53, 36
4, 76494, Note_on_c, 9, 53, 0
4, 76630, Note_on_c, 9, 51, 51
4, 76641, Note_on_c, 9, 53, 33
4, 76656, Note_on_c, 9, 53, 0
4, 76669, Note_on_c, 9, 51, 0
4, 76738, Note_on_c, 9, 59, 37
4, 76753, Note_on_c, 9, 59, 0
4, 76801, Note_on_c, 9, 51, 64
4, 76805, Note_on_c, 9, 53, 66
4, 76867, Note_on_c, 9, 53, 0
4, 76870, Note_on_c, 9, 51, 0
4, 76898, Note_on_c, 9, 59, 30
4, 76928, Note_on_c, 9, 59, 0
4, 76982, Note_on_c, 9, 51, 58
4, 76984, Note_on_c, 9, 53, 67
4, 77018, Note_on_c, 9, 53, 0
4, 77035, Note_on_c, 9, 51, 0
4, 77106, Note_on_c, 9, 59, 39
4, 77121, Note_on_c, 9, 59, 0
4, 77168, Note_on_c, 9, 51, 55
4, 77170, Note_on_c, 9, 53, 62
4, 77231, Note_on_c, 9, 53, 0
4, 77242, Note_on_c, 9, 51, 0
4, 77278, Note_on_c, 9, 59, 34
4, 77295, Note_on_c, 9, 59, 0
4, 77513, Note_on_c, 9, 59, 39
4, 77526, Note_on_c, 9, 59, 0
4, 77636, Note_on_c, 9, 59, 44
4, 77655, Note_on_c, 9, 59, 0
4, 77873, Note_on_c, 9, 59, 37
4, 77895, Note_on_c, 9, 59, 0
4, 77957, Note_on_c, 9, 46, 55
4, 78091, Note_on_c, 9, 46, 0
4, 78123, Note_on_c, 9, 59, 55
4, 78204, Note_on_c, 9, 59, 0
4, 78217, Note_on_c, 9, 46, 60
4, 78256, Note_on_c, 9, 46, 0
4, 78365, Note_on_c, 9, 46, 58
4, 78438, Note_on_c, 9, 46, 0
4, 78610, Note_on_c, 9, 59, 36
4, 78623, Note_on_c, 9, 59, 0
4, 78678, Note_on_c, 9, 59, 55
4, 78691, Note_on_c, 9, 59, 0
4, 78798, Note_on_c, 9, 59, 65
4, 78819, Note_on_c, 9, 59, 0
4, 78850, Note_on_c, 9, 59, 61
4, 78897, Note_on_c, 9, 59, 0
4, 79041, Note_on_c, 9, 59, 40
4, 79054, Note_on_c, 9, 59, 0
4, 79088, Note_on_c, 9, 59, 52
4, 79127, Note_on_c, 9, 59, 0
4, 79330, Note_on_c, 9, 59, 53
4, 79347, Note_on_c, 9, 59, 0
4, 79449, Note_on_c, 9, 46, 54
4, 79496, Note_on_c, 9, 46, 0
4, 79566, Note_on_c, 9, 46, 59
4, 79622, Note_on_c, 9, 46, 0
4, 79768, Note_on_c, 9, 59, 41
4, 79780, Note_on_c, 9, 59, 0
4, 79815, Note_on_c, 9, 59, 57
4, 79887, Note_on_c, 9, 59, 0
4, 79999, Note_on_c, 9, 59, 33
4, 80013, Note_on_c, 9, 59, 0
4, 80049, Note_on_c, 9, 59, 48
4, 80107, Note_on_c, 9, 59, 0
4, 80171, Note_on_c, 9, 59, 56
4, 80217, Note_on_c, 9, 59, 0
4, 80289, Note_on_c, 9, 59, 45
4, 80323, Note_on_c, 9, 59, 0
4, 80404, Note_on_c, 9, 59, 53
4, 80431, Note_on_c, 9, 59, 0
4, 80515, Note_on_c, 9, 53, 65
4, 80578, Note_on_c, 9, 53, 0
4, 80634, Note_on_c, 9, 59, 41
4, 80673, Note_on_c, 9, 59, 0
4, 80751, Note_on_c, 9, 59, 17
4, 80802, Note_on_c, 9, 59, 0
4, 80873, Note_on_c, 9, 59, 40
4, 80927, Note_on_c, 9, 59, 0
4, 80993, Note_on_c, 9, 59, 38
4, 81043, Note_on_c, 9, 59, 0
4, 81071, Note_on_c, 9, 51, 60
4, 81101, Note_on_c, 9, 51, 0
4, 81116, Note_on_c, 9, 59, 44
4, 81181, Note_on_c, 9, 59, 0
4, 81195, Note_on_c, 9, 51, 70
4, 81238, Note_on_c, 9, 51, 0
4, 81254, Note_on_c, 9, 59, 44
4, 81314, Note_on_c, 9, 59, 0
4, 81371, Note_on_c, 9, 59, 22
4, 81429, Note_on_c, 9, 59, 0
4, 81487, Note_on_c, 9, 59, 36
4, 81547, Note_on_c, 9, 59, 0
4, 81605, Note_on_c, 9, 59, 55
4, 81652, Note_on_c, 9, 59, 0
4, 81733, Note_on_c, 9, 59, 17
4, 81794, Note_on_c, 9, 59, 0
4, 81844, Note_on_c, 9, 59, 62
4, 81909, Note_on_c, 9, 59, 0
4, 81970, Note_on_c, 9, 59, 23
4, 82010, Note_on_c, 9, 59, 0
4, 82082, Note_on_c, 9, 59, 64
4, 82154, Note_on_c, 9, 59, 0
4, 82201, Note_on_c, 9, 59, 28
4, 82244, Note_on_c, 9, 59, 0
4, 82316, Note_on_c, 9, 59, 80
4, 82380, Note_on_c, 9, 59, 0
4, 82432, Note_on_c, 9, 59, 29
4, 82471, Note_on_c, 9, 59, 0
4, 82509, Note_on_c, 9, 59, 62
4, 82534, Note_on_c, 9, 59, 0
4, 82557, Note_on_c, 9, 59, 63
4, 82637, Note_on_c, 9, 59, 0
4, 82679, Note_on_c, 9, 59, 36
4, 82754, Note_on_c, 9, 59, 0
4, 82794, Note_on_c, 9, 59, 69
4, 82863, Note_on_c, 9, 59, 0
4, 82909, Note_on_c, 9, 59, 38
4, 82983, Note_on_c, 9, 59, 0
4, 83030, Note_on_c, 9, 59, 66
4, 83094, Note_on_c, 9, 59, 0
4, 83122, Note_on_c, 9, 59, 55
4, 83141, Note_on_c, 9, 59, 0
4, 83161, Note_on_c, 9, 59, 65
4, 83259, Note_on_c, 9, 59, 0
4, 83285, Note_on_c, 9, 59, 53
4, 83345, Note_on_c, 9, 59, 0
4, 83406, Note_on_c, 9, 59, 50
4, 83471, Note_on_c, 9, 59, 0
4, 83523, Note_on_c, 9, 59, 58
4, 83578, Note_on_c, 9, 59, 0
4, 83643, Note_on_c, 9, 59, 44
4, 83673, Note_on_c, 9, 59, 0
4, 83761, Note_on_c, 9, 59, 51
4, 83813, Note_on_c, 9, 59, 0
4, 83880, Note_on_c, 9, 59, 28
4, 83951, Note_on_c, 9, 59, 0
4, 83997, Note_on_c, 9, 53, 78
4, 84114, Note_on_c, 9, 53, 0
4, 84125, Note_on_c, 9, 59, 42
4, 84154, Note_on_c, 9, 59, 0
4, 84237, Note_on_c, 9, 53, 86
4, 84345, Note_on_c, 9, 53, 0
4, 84373, Note_on_c, 9, 59, 31
4, 84450, Note_on_c, 9, 59, 0
4, 84479, Note_on_c, 9, 53, 92
4, 84588, Note_on_c, 9, 53, 0
4, 84610, Note_on_c, 9, 59, 23
4, 84710, Note_on_c, 9, 59, 0
4, 84716, Note_on_c, 9, 53, 96
4, 84835, Note_on_c, 9, 53, 0
4, 84847, Note_on_c, 9, 59, 26
4, 84949, Note_on_c, 9, 59, 0
4, 84960, Note_on_c, 9, 53, 99
4, 85077, Note_on_c, 9, 53, 0
4, 85085, Note_on_c, 9, 59, 25
4, 85195, Note_on_c, 9, 53, 96
4, 85196, Note_on_c, 9, 59, 0
4, 85326, Note_on_c, 9, 53, 0
4, 85330, Note_on_c, 9, 59, 34
4, 85423, Note_on_c, 9, 59, 0
4, 85433, Note_on_c, 9, 53, 96
4, 85543, Note_on_c, 9, 53, 0
4, 85559, Note_on_c, 9, 59, 45
4, 85638, Note_on_c, 9, 59, 0
4, 85680, Note_on_c, 9, 53, 72
4, 85697, Note_on_c, 9, 47, 17
4, 85708, Note_on_c, 9, 47, 0
4, 85785, Note_on_c, 9, 53, 0
4, 85795, Note_on_c, 9, 59, 48
4, 85877, Note_on_c, 9, 59, 0
4, 85913, Note_on_c, 9, 53, 82
4, 85914, Note_on_c, 9, 46, 78
4, 86039, Note_on_c, 9, 46, 0
4, 86040, Note_on_c, 9, 53, 0
4, 86040, Note_on_c, 9, 59, 42
4, 86118, Note_on_c, 9, 59, 0
4, 86153, Note_on_c, 9, 53, 80
4, 86155, Note_on_c, 9, 46, 75
4, 86258, Note_on_c, 9, 46, 0
4, 86261, Note_on_c, 9, 53, 0
4, 86275, Note_on_c, 9, 59, 51
4, 86330, Note_on_c, 9, 59, 0
4, 86330, End_track
5, 0, Start_track
5, 0, MIDI_port, 0
5, 0, Title_t, "HiHat"
5, 0, Program_c, 9, 32
5, 4804, Note_on_c, 9, 44, 55
5, 4832, Note_on_c, 9, 44, 0
5, 4919, Note_on_c, 9, 44, 46
5, 4962, Note_on_c, 9, 44, 0
5, 5162, Note_on_c, 9, 44, 38
5, 5205, Note_on_c, 9, 44, 0
5, 5530, Note_on_c, 9, 44, 40
5, 5570, Note_on_c, 9, 44, 0
5, 5645, Note_on_c, 9, 44, 37
5, 5693, Note_on_c, 9, 44, 0
5, 5897, Note_on_c, 9, 44, 37
5, 5933, Note_on_c, 9, 44, 0
5, 6612, Note_on_c, 9, 44, 28
5, 6635, Note_on_c, 9, 44, 0
5, 6729, Note_on_c, 9, 44, 36
5, 6756, Note_on_c, 9, 44, 0
5, 6975, Note_on_c, 9, 46, 37
5, 7019, Note_on_c, 9, 46, 0
5, 7332, Note_on_c, 9, 46, 54
5, 7387, Note_on_c, 9, 46, 0
5, 7689, Note_on_c, 9, 46, 56
5, 7761, Note_on_c, 9, 46, 0
5, 8052, Note_on_c, 9, 46, 44
5, 8122, Note_on_c, 9, 46, 0
5, 8401, Note_on_c, 9, 46, 45
5, 8456, Note_on_c, 9, 46, 0
5, 8775, Note_on_c, 9, 46, 37
5, 8815, Note_on_c, 9, 46, 0
5, 8820, Note_on_c, 9, 44, 53
5, 8836, Note_on_c, 9, 44, 0
5, 9124, Note_on_c, 9, 44, 35
5, 9149, Note_on_c, 9, 44, 0
5, 9235, Note_on_c, 9, 44, 36
5, 9270, Note_on_c, 9, 44, 0
5, 9479, Note_on_c, 9, 44, 83
5, 9551, Note_on_c, 9, 44, 0
5, 9603, Note_on_c, 9, 44, 84
5, 9692, Note_on_c, 9, 44, 0
5, 10288, Note_on_c, 9, 44, 59
5, 10305, Note_on_c, 9, 44, 0
5, 10334, Note_on_c, 9, 44, 65
5, 10390, Note_on_c, 9, 44, 0
5, 10685, Note_on_c, 9, 44, 56
5, 10717, Note_on_c, 9, 44, 0
5, 10751, Note_on_c, 9, 44, 39
5, 10762, Note_on_c, 9, 44, 0
5, 10815, Note_on_c, 9, 46, 53
5, 10852, Note_on_c, 9, 46, 0
5, 10945, Note_on_c, 9, 44, 42
5, 10969, Note_on_c, 9, 44, 0
5, 11006, Note_on_c, 9, 44, 74
5, 11032, Note_on_c, 9, 44, 0
5, 11066, Note_on_c, 9, 46, 71
5, 11133, Note_on_c, 9, 46, 0
5, 11170, Note_on_c, 9, 44, 54
5, 11188, Note_on_c, 9, 44, 0
5, 11241, Note_on_c, 9, 44, 65
5, 11264, Note_on_c, 9, 44, 0
5, 11291, Note_on_c, 9, 46, 73
5, 11369, Note_on_c, 9, 46, 0
5, 11408, Note_on_c, 9, 44, 60
5, 11440, Note_on_c, 9, 44, 0
5, 12732, Note_on_c, 9, 44, 77
5, 12773, Note_on_c, 9, 44, 0
5, 12846, Note_on_c, 9, 44, 83
5, 12909, Note_on_c, 9, 44, 0
5, 13080, Note_on_c, 9, 44, 67
5, 13143, Note_on_c, 9, 44, 0
5, 13441, Note_on_c, 9, 44, 77
5, 13509, Note_on_c, 9, 44, 0
5, 13565, Note_on_c, 9, 44, 83
5, 13644, Note_on_c, 9, 44, 0
5, 13807, Note_on_c, 9, 44, 64
5, 13851, Note_on_c, 9, 44, 0
5, 13928, Note_on_c, 9, 46, 65
5, 14006, Note_on_c, 9, 46, 0
5, 14284, Note_on_c, 9, 46, 69
5, 14369, Note_on_c, 9, 46, 0
5, 14887, Note_on_c, 9, 44, 65
5, 14922, Note_on_c, 9, 44, 0
5, 15005, Note_on_c, 9, 44, 70
5, 15052, Note_on_c, 9, 44, 0
5, 15246, Note_on_c, 9, 44, 59
5, 15285, Note_on_c, 9, 44, 0
5, 15370, Note_on_c, 9, 46, 59
5, 15415, Note_on_c, 9, 46, 0
5, 15608, Note_on_c, 9, 44, 45
5, 15634, Note_on_c, 9, 44, 0
5, 15730, Note_on_c, 9, 44, 48
5, 15765, Note_on_c, 9, 44, 0
5, 15973, Note_on_c, 9, 44, 38
5, 16002, Note_on_c, 9, 44, 0
5, 16328, Note_on_c, 9, 44, 48
5, 16354, Note_on_c, 9, 44, 0
5, 16439, Note_on_c, 9, 44, 68
5, 16470, Note_on_c, 9, 44, 0
5, 16626, Note_on_c, 9, 44, 64
5, 16653, Note_on_c, 9, 44, 0
5, 16694, Note_on_c, 9, 46, 64
5, 16743, Note_on_c, 9, 46, 0
5, 16813, Note_on_c, 9, 46, 39
5, 16824, Note_on_c, 9, 46, 0
5, 16883, Note_on_c, 9, 46, 74
5, 16928, Note_on_c, 9, 46, 0
5, 17055, Note_on_c, 9, 46, 73
5, 17105, Note_on_c, 9, 46, 0
5, 18132, Note_on_c, 9, 44, 38
5, 18155, Note_on_c, 9, 44, 0
5, 18491, Note_on_c, 9, 44, 30
5, 18523, Note_on_c, 9, 44, 0
5, 18602, Note_on_c, 9, 44, 34
5, 18640, Note_on_c, 9, 44, 0
5, 18855, Note_on_c, 9, 44, 52
5, 18886, Note_on_c, 9, 44, 0
5, 18971, Note_on_c, 9, 44, 86
5, 19031, Note_on_c, 9, 44, 0
5, 19217, Note_on_c, 9, 44, 69
5, 19252, Note_on_c, 9, 44, 0
5, 19577, Note_on_c, 9, 44, 57
5, 19603, Note_on_c, 9, 44, 0
5, 19693, Note_on_c, 9, 44, 62
5, 19725, Note_on_c, 9, 44, 0
5, 19927, Note_on_c, 9, 44, 51
5, 19955, Note_on_c, 9, 44, 0
5, 20050, Note_on_c, 9, 44, 53
5, 20082, Note_on_c, 9, 44, 0
5, 20283, Note_on_c, 9, 44, 29
5, 20300, Note_on_c, 9, 44, 0
5, 21008, Note_on_c, 9, 44, 53
5, 21043, Note_on_c, 9, 44, 0
5, 21130, Note_on_c, 9, 45, 77
5, 21160, Note_on_c, 9, 45, 0
5, 21368, Note_on_c, 9, 44, 48
5, 21401, Note_on_c, 9, 44, 0
5, 21728, Note_on_c, 9, 44, 48
5, 21755, Note_on_c, 9, 44, 0
5, 21845, Note_on_c, 9, 46, 62
5, 21881, Note_on_c, 9, 46, 0
5, 22085, Note_on_c, 9, 44, 28
5, 22105, Note_on_c, 9, 44, 0
5, 22446, Note_on_c, 9, 44, 40
5, 22480, Note_on_c, 9, 44, 0
5, 22558, Note_on_c, 9, 44, 64
5, 22596, Note_on_c, 9, 44, 0
5, 22814, Note_on_c, 9, 44, 52
5, 22845, Note_on_c, 9, 44, 0
5, 23168, Note_on_c, 9, 44, 59
5, 23198, Note_on_c, 9, 44, 0
5, 23289, Note_on_c, 9, 44, 63
5, 23342, Note_on_c, 9, 44, 0
5, 23530, Note_on_c, 9, 44, 57
5, 23564, Note_on_c, 9, 44, 0
5, 23886, Note_on_c, 9, 44, 53
5, 23920, Note_on_c, 9, 44, 0
5, 24000, Note_on_c, 9, 44, 68
5, 24049, Note_on_c, 9, 44, 0
5, 24247, Note_on_c, 9, 44, 69
5, 24285, Note_on_c, 9, 44, 0
5, 24368, Note_on_c, 9, 44, 65
5, 24420, Note_on_c, 9, 44, 0
5, 24614, Note_on_c, 9, 44, 67
5, 24661, Note_on_c, 9, 44, 0
5, 24961, Note_on_c, 9, 44, 71
5, 25003, Note_on_c, 9, 44, 0
5, 25078, Note_on_c, 9, 44, 76
5, 25131, Note_on_c, 9, 44, 0
5, 25323, Note_on_c, 9, 44, 68
5, 25359, Note_on_c, 9, 44, 0
5, 25439, Note_on_c, 9, 44, 72
5, 25479, Note_on_c, 9, 44, 0
5, 25673, Note_on_c, 9, 44, 52
5, 25702, Note_on_c, 9, 44, 0
5, 25794, Note_on_c, 9, 44, 67
5, 25821, Note_on_c, 9, 44, 0
5, 26045, Note_on_c, 9, 44, 70
5, 26067, Note_on_c, 9, 44, 0
5, 26160, Note_on_c, 9, 44, 74
5, 26266, Note_on_c, 9, 44, 0
5, 26394, Note_on_c, 9, 44, 74
5, 26554, Note_on_c, 9, 44, 0
5, 26759, Note_on_c, 9, 44, 81
5, 26791, Note_on_c, 9, 44, 0
5, 26886, Note_on_c, 9, 44, 80
5, 26955, Note_on_c, 9, 44, 0
5, 27125, Note_on_c, 9, 44, 74
5, 27157, Note_on_c, 9, 44, 0
5, 27242, Note_on_c, 9, 44, 77
5, 27292, Note_on_c, 9, 44, 0
5, 27484, Note_on_c, 9, 44, 72
5, 27516, Note_on_c, 9, 44, 0
5, 27603, Note_on_c, 9, 46, 73
5, 27655, Note_on_c, 9, 46, 0
5, 27840, Note_on_c, 9, 44, 51
5, 27866, Note_on_c, 9, 44, 0
5, 27961, Note_on_c, 9, 44, 60
5, 28002, Note_on_c, 9, 44, 0
5, 28212, Note_on_c, 9, 44, 53
5, 28243, Note_on_c, 9, 44, 0
5, 28565, Note_on_c, 9, 44, 73
5, 28612, Note_on_c, 9, 44, 0
5, 28685, Note_on_c, 9, 44, 64
5, 28728, Note_on_c, 9, 44, 0
5, 28761, Note_on_c, 9, 46, 67
5, 28783, Note_on_c, 9, 46, 0
5, 28812, Note_on_c, 9, 44, 55
5, 28865, Note_on_c, 9, 44, 0
5, 29281, Note_on_c, 9, 44, 59
5, 29316, Note_on_c, 9, 44, 0
5, 29405, Note_on_c, 9, 44, 61
5, 29453, Note_on_c, 9, 44, 0
5, 29641, Note_on_c, 9, 44, 77
5, 29691, Note_on_c, 9, 44, 0
5, 30001, Note_on_c, 9, 44, 80
5, 30056, Note_on_c, 9, 44, 0
5, 30124, Note_on_c, 9, 44, 82
5, 30200, Note_on_c, 9, 44, 0
5, 30358, Note_on_c, 9, 44, 79
5, 30413, Note_on_c, 9, 44, 0
5, 30719, Note_on_c, 9, 46, 69
5, 30768, Note_on_c, 9, 46, 0
5, 30922, Note_on_c, 9, 44, 58
5, 30946, Note_on_c, 9, 44, 0
5, 30971, Note_on_c, 9, 46, 71
5, 31053, Note_on_c, 9, 46, 0
5, 31117, Note_on_c, 9, 44, 47
5, 31143, Note_on_c, 9, 44, 0
5, 31173, Note_on_c, 9, 46, 76
5, 31216, Note_on_c, 9, 46, 0
5, 31287, Note_on_c, 9, 44, 59
5, 31313, Note_on_c, 9, 44, 0
5, 31338, Note_on_c, 9, 46, 81
5, 31414, Note_on_c, 9, 46, 0
5, 31441, Note_on_c, 9, 44, 50
5, 31473, Note_on_c, 9, 44, 0
5, 31510, Note_on_c, 9, 46, 72
5, 31543, Note_on_c, 9, 46, 0
5, 31617, Note_on_c, 9, 44, 58
5, 31640, Note_on_c, 9, 44, 0
5, 31680, Note_on_c, 9, 44, 64
5, 31719, Note_on_c, 9, 44, 0
5, 32153, Note_on_c, 9, 44, 49
5, 32190, Note_on_c, 9, 44, 0
5, 32273, Note_on_c, 9, 44, 50
5, 32319, Note_on_c, 9, 44, 0
5, 32517, Note_on_c, 9, 44, 57
5, 32564, Note_on_c, 9, 44, 0
5, 32646, Note_on_c, 9, 44, 58
5, 32699, Note_on_c, 9, 44, 0
5, 32878, Note_on_c, 9, 44, 54
5, 32928, Note_on_c, 9, 44, 0
5, 33236, Note_on_c, 9, 44, 53
5, 33273, Note_on_c, 9, 44, 0
5, 33352, Note_on_c, 9, 44, 59
5, 33402, Note_on_c, 9, 44, 0
5, 33592, Note_on_c, 9, 44, 82
5, 33647, Note_on_c, 9, 44, 0
5, 33957, Note_on_c, 9, 44, 88
5, 34013, Note_on_c, 9, 44, 0
5, 34072, Note_on_c, 9, 44, 85
5, 34146, Note_on_c, 9, 44, 0
5, 34314, Note_on_c, 9, 44, 83
5, 34399, Note_on_c, 9, 44, 0
5, 34679, Note_on_c, 9, 44, 67
5, 34712, Note_on_c, 9, 44, 0
5, 34792, Note_on_c, 9, 46, 76
5, 34874, Note_on_c, 9, 46, 0
5, 35029, Note_on_c, 9, 44, 62
5, 35080, Note_on_c, 9, 44, 0
5, 35402, Note_on_c, 9, 44, 42
5, 35428, Note_on_c, 9, 44, 0
5, 35514, Note_on_c, 9, 44, 74
5, 35578, Note_on_c, 9, 44, 0
5, 35763, Note_on_c, 9, 44, 52
5, 35800, Note_on_c, 9, 44, 0
5, 35875, Note_on_c, 9, 44, 74
5, 35924, Note_on_c, 9, 44, 0
5, 36120, Note_on_c, 9, 44, 60
5, 36143, Note_on_c, 9, 44, 0
5, 36202, Note_on_c, 9, 44, 62
5, 36215, Note_on_c, 9, 44, 0
5, 36240, Note_on_c, 9, 44, 71
5, 36288, Note_on_c, 9, 44, 0
5, 36795, Note_on_c, 9, 44, 53
5, 36819, Note_on_c, 9, 44, 0
5, 36841, Note_on_c, 9, 44, 67
5, 36907, Note_on_c, 9, 44, 0
5, 37145, Note_on_c, 9, 44, 57
5, 37170, Note_on_c, 9, 44, 0
5, 37268, Note_on_c, 9, 44, 64
5, 37293, Note_on_c, 9, 44, 0
5, 37392, Note_on_c, 9, 44, 68
5, 37416, Note_on_c, 9, 44, 0
5, 37557, Note_on_c, 9, 46, 52
5, 37576, Note_on_c, 9, 46, 0
5, 37914, Note_on_c, 9, 44, 59
5, 37943, Note_on_c, 9, 44, 0
5, 38035, Note_on_c, 9, 44, 53
5, 38076, Note_on_c, 9, 44, 0
5, 38279, Note_on_c, 9, 44, 79
5, 38325, Note_on_c, 9, 44, 0
5, 38399, Note_on_c, 9, 44, 85
5, 38474, Note_on_c, 9, 44, 0
5, 38638, Note_on_c, 9, 44, 83
5, 38681, Note_on_c, 9, 44, 0
5, 38763, Note_on_c, 9, 44, 85
5, 38831, Note_on_c, 9, 44, 0
5, 39000, Note_on_c, 9, 44, 83
5, 39045, Note_on_c, 9, 44, 0
5, 39119, Note_on_c, 9, 44, 77
5, 39165, Note_on_c, 9, 44, 0
5, 39350, Note_on_c, 9, 44, 72
5, 39397, Note_on_c, 9, 44, 0
5, 39469, Note_on_c, 9, 46, 67
5, 39510, Note_on_c, 9, 46, 0
5, 39709, Note_on_c, 9, 44, 67
5, 39747, Note_on_c, 9, 44, 0
5, 39827, Note_on_c, 9, 44, 64
5, 39875, Note_on_c, 9, 44, 0
5, 40071, Note_on_c, 9, 44, 64
5, 40105, Note_on_c, 9, 44, 0
5, 40191, Note_on_c, 9, 46, 68
5, 40232, Note_on_c, 9, 46, 0
5, 40432, Note_on_c, 9, 44, 61
5, 40469, Note_on_c, 9, 44, 0
5, 40802, Note_on_c, 9, 44, 62
5, 40837, Note_on_c, 9, 44, 0
5, 40922, Note_on_c, 9, 44, 63
5, 40961, Note_on_c, 9, 44, 0
5, 41166, Note_on_c, 9, 44, 59
5, 41194, Note_on_c, 9, 44, 0
5, 41286, Note_on_c, 9, 44, 53
5, 41319, Note_on_c, 9, 44, 0
5, 41521, Note_on_c, 9, 44, 62
5, 41550, Note_on_c, 9, 44, 0
5, 41646, Note_on_c, 9, 46, 67
5, 41679, Note_on_c, 9, 46, 0
5, 41880, Note_on_c, 9, 44, 47
5, 41907, Note_on_c, 9, 44, 0
5, 42003, Note_on_c, 9, 44, 58
5, 42033, Note_on_c, 9, 44, 0
5, 42234, Note_on_c, 9, 44, 51
5, 42260, Note_on_c, 9, 44, 0
5, 42355, Note_on_c, 9, 44, 62
5, 42391, Note_on_c, 9, 44, 0
5, 42598, Note_on_c, 9, 44, 59
5, 42625, Note_on_c, 9, 44, 0
5, 42720, Note_on_c, 9, 44, 65
5, 42755, Note_on_c, 9, 44, 0
5, 42958, Note_on_c, 9, 44, 60
5, 42989, Note_on_c, 9, 44, 0
5, 43079, Note_on_c, 9, 44, 62
5, 43118, Note_on_c, 9, 44, 0
5, 43319, Note_on_c, 9, 44, 67
5, 43349, Note_on_c, 9, 44, 0
5, 43676, Note_on_c, 9, 44, 63
5, 43706, Note_on_c, 9, 44, 0
5, 43795, Note_on_c, 9, 44, 69
5, 43833, Note_on_c, 9, 44, 0
5, 44034, Note_on_c, 9, 44, 64
5, 44065, Note_on_c, 9, 44, 0
5, 44157, Note_on_c, 9, 44, 70
5, 44190, Note_on_c, 9, 44, 0
5, 44393, Note_on_c, 9, 44, 64
5, 44428, Note_on_c, 9, 44, 0
5, 44758, Note_on_c, 9, 44, 67
5, 44788, Note_on_c, 9, 44, 0
5, 44883, Note_on_c, 9, 46, 67
5, 44912, Note_on_c, 9, 46, 0
5, 45115, Note_on_c, 9, 44, 56
5, 45144, Note_on_c, 9, 44, 0
5, 45234, Note_on_c, 9, 44, 62
5, 45265, Note_on_c, 9, 44, 0
5, 45484, Note_on_c, 9, 44, 64
5, 45517, Note_on_c, 9, 44, 0
5, 45604, Note_on_c, 9, 44, 65
5, 45645, Note_on_c, 9, 44, 0
5, 45814, Note_on_c, 9, 44, 72
5, 45844, Note_on_c, 9, 44, 0
5, 45962, Note_on_c, 9, 44, 69
5, 45991, Note_on_c, 9, 44, 0
5, 46080, Note_on_c, 9, 44, 70
5, 46102, Note_on_c, 9, 44, 0
5, 46195, Note_on_c, 9, 44, 74
5, 46301, Note_on_c, 9, 44, 0
5, 46429, Note_on_c, 9, 44, 74
5, 46589, Note_on_c, 9, 44, 0
5, 46794, Note_on_c, 9, 44, 81
5, 46826, Note_on_c, 9, 44, 0
5, 46921, Note_on_c, 9, 44, 80
5, 46990, Note_on_c, 9, 44, 0
5, 47160, Note_on_c, 9, 44, 74
5, 47192, Note_on_c, 9, 44, 0
5, 47277, Note_on_c, 9, 44, 77
5, 47327, Note_on_c, 9, 44, 0
5, 47519, Note_on_c, 9, 44, 72
5, 47551, Note_on_c, 9, 44, 0
5, 47638, Note_on_c, 9, 46, 73
5, 47690, Note_on_c, 9, 46, 0
5, 47875, Note_on_c, 9, 44, 51
5, 47901, Note_on_c, 9, 44, 0
5, 47996, Note_on_c, 9, 44, 60
5, 48037, Note_on_c, 9, 44, 0
5, 48247, Note_on_c, 9, 44, 53
5, 48278, Note_on_c, 9, 44, 0
5, 48600, Note_on_c, 9, 44, 73
5, 48647, Note_on_c, 9, 44, 0
5, 48720, Note_on_c, 9, 44, 64
5, 48763, Note_on_c, 9, 44, 0
5, 48796, Note_on_c, 9, 46, 67
5, 48818, Note_on_c, 9, 46, 0
5, 48847, Note_on_c, 9, 44, 55
5, 48900, Note_on_c, 9, 44, 0
5, 49316, Note_on_c, 9, 44, 59
5, 49351, Note_on_c, 9, 44, 0
5, 49440, Note_on_c, 9, 44, 61
5, 49488, Note_on_c, 9, 44, 0
5, 49676, Note_on_c, 9, 44, 77
5, 49726, Note_on_c, 9, 44, 0
5, 50036, Note_on_c, 9, 44, 80
5, 50091, Note_on_c, 9, 44, 0
5, 50159, Note_on_c, 9, 44, 82
5, 50235, Note_on_c, 9, 44, 0
5, 50393, Note_on_c, 9, 44, 79
5, 50448, Note_on_c, 9, 44, 0
5, 50754, Note_on_c, 9, 46, 69
5, 50803, Note_on_c, 9, 46, 0
5, 50957, Note_on_c, 9, 44, 58
5, 50981, Note_on_c, 9, 44, 0
5, 51006, Note_on_c, 9, 46, 71
5, 51088, Note_on_c, 9, 46, 0
5, 51152, Note_on_c, 9, 44, 47
5, 51178, Note_on_c, 9, 44, 0
5, 51208, Note_on_c, 9, 46, 76
5, 51251, Note_on_c, 9, 46, 0
5, 51322, Note_on_c, 9, 44, 59
5, 51348, Note_on_c, 9, 44, 0
5, 51373, Note_on_c, 9, 46, 81
5, 51449, Note_on_c, 9, 46, 0
5, 51476, Note_on_c, 9, 44, 50
5, 51508, Note_on_c, 9, 44, 0
5, 51545, Note_on_c, 9, 46, 72
5, 51578, Note_on_c, 9, 46, 0
5, 51652, Note_on_c, 9, 44, 58
5, 51675, Note_on_c, 9, 44, 0
5, 51715, Note_on_c, 9, 44, 64
5, 51754, Note_on_c, 9, 44, 0
5, 52188, Note_on_c, 9, 44, 49
5, 52225, Note_on_c, 9, 44, 0
5, 52308, Note_on_c, 9, 44, 50
5, 52354, Note_on_c, 9, 44, 0
5, 52552, Note_on_c, 9, 44, 57
5, 52599, Note_on_c, 9, 44, 0
5, 52681, Note_on_c, 9, 44, 58
5, 52734, Note_on_c, 9, 44, 0
5, 52913, Note_on_c, 9, 44, 54
5, 52963, Note_on_c, 9, 44, 0
5, 53271, Note_on_c, 9, 44, 53
5, 53308, Note_on_c, 9, 44, 0
5, 53387, Note_on_c, 9, 44, 59
5, 53437, Note_on_c, 9, 44, 0
5, 53627, Note_on_c, 9, 44, 82
5, 53682, Note_on_c, 9, 44, 0
5, 53992, Note_on_c, 9, 44, 88
5, 54048, Note_on_c, 9, 44, 0
5, 54107, Note_on_c, 9, 44, 85
5, 54181, Note_on_c, 9, 44, 0
5, 54349, Note_on_c, 9, 44, 83
5, 54434, Note_on_c, 9, 44, 0
5, 54714, Note_on_c, 9, 44, 67
5, 54747, Note_on_c, 9, 44, 0
5, 54827, Note_on_c, 9, 46, 76
5, 54909, Note_on_c, 9, 46, 0
5, 55064, Note_on_c, 9, 44, 62
5, 55115, Note_on_c, 9, 44, 0
5, 55437, Note_on_c, 9, 44, 42
5, 55463, Note_on_c, 9, 44, 0
5, 55549, Note_on_c, 9, 44, 74
5, 55613, Note_on_c, 9, 44, 0
5, 55798, Note_on_c, 9, 44, 52
5, 55835, Note_on_c, 9, 44, 0
5, 55910, Note_on_c, 9, 44, 74
5, 55959, Note_on_c, 9, 44, 0
5, 56155, Note_on_c, 9, 44, 60
5, 56178, Note_on_c, 9, 44, 0
5, 56237, Note_on_c, 9, 44, 62
5, 56250, Note_on_c, 9, 44, 0
5, 56275, Note_on_c, 9, 44, 71
5, 56323, Note_on_c, 9, 44, 0
5, 56830, Note_on_c, 9, 44, 53
5, 56854, Note_on_c, 9, 44, 0
5, 56876, Note_on_c, 9, 44, 67
5, 56942, Note_on_c, 9, 44, 0
5, 57180, Note_on_c, 9, 44, 57
5, 57205, Note_on_c, 9, 44, 0
5, 57303, Note_on_c, 9, 44, 64
5, 57328, Note_on_c, 9, 44, 0
5, 57427, Note_on_c, 9, 44, 68
5, 57451, Note_on_c, 9, 44, 0
5, 57592, Note_on_c, 9, 46, 52
5, 57611, Note_on_c, 9, 46, 0
5, 57949, Note_on_c, 9, 44, 59
5, 57978, Note_on_c, 9, 44, 0
5, 58070, Note_on_c, 9, 44, 53
5, 58111, Note_on_c, 9, 44, 0
5, 58314, Note_on_c, 9, 44, 79
5, 58360, Note_on_c, 9, 44, 0
5, 58434, Note_on_c, 9, 44, 85
5, 58509, Note_on_c, 9, 44, 0
5, 58673, Note_on_c, 9, 44, 83
5, 58716, Note_on_c, 9, 44, 0
5, 58798, Note_on_c, 9, 44, 85
5, 58866, Note_on_c, 9, 44, 0
5, 59035, Note_on_c, 9, 44, 83
5, 59080, Note_on_c, 9, 44, 0
5, 59154, Note_on_c, 9, 44, 77
5, 59200, Note_on_c, 9, 44, 0
5, 59385, Note_on_c, 9, 44, 72
5, 59432, Note_on_c, 9, 44, 0
5, 59504, Note_on_c, 9, 46, 67
5, 59545, Note_on_c, 9, 46, 0
5, 59744, Note_on_c, 9, 44, 67
5, 59782, Note_on_c, 9, 44, 0
5, 59862, Note_on_c, 9, 44, 64
5, 59910, Note_on_c, 9, 44, 0
5, 60106, Note_on_c, 9, 44, 64
5, 60140, Note_on_c, 9, 44, 0
5, 60226, Note_on_c, 9, 46, 68
5, 60267, Note_on_c, 9, 46, 0
5, 60467, Note_on_c, 9, 44, 61
5, 60504, Note_on_c, 9, 44, 0
5, 60837, Note_on_c, 9, 44, 62
5, 60872, Note_on_c, 9, 44, 0
5, 60957, Note_on_c, 9, 44, 63
5, 60996, Note_on_c, 9, 44, 0
5, 61201, Note_on_c, 9, 44, 59
5, 61229, Note_on_c, 9, 44, 0
5, 61321, Note_on_c, 9, 44, 53
5, 61354, Note_on_c, 9, 44, 0
5, 61556, Note_on_c, 9, 44, 62
5, 61585, Note_on_c, 9, 44, 0
5, 61681, Note_on_c, 9, 46, 67
5, 61714, Note_on_c, 9, 46, 0
5, 61915, Note_on_c, 9, 44, 47
5, 61942, Note_on_c, 9, 44, 0
5, 62038, Note_on_c, 9, 44, 58
5, 62068, Note_on_c, 9, 44, 0
5, 62269, Note_on_c, 9, 44, 51
5, 62295, Note_on_c, 9, 44, 0
5, 62390, Note_on_c, 9, 44, 62
5, 62426, Note_on_c, 9, 44, 0
5, 62633, Note_on_c, 9, 44, 59
5, 62660, Note_on_c, 9, 44, 0
5, 62755, Note_on_c, 9, 44, 65
5, 62790, Note_on_c, 9, 44, 0
5, 62993, Note_on_c, 9, 44, 60
5, 63024, Note_on_c, 9, 44, 0
5, 63114, Note_on_c, 9, 44, 62
5, 63153, Note_on_c, 9, 44, 0
5, 63354, Note_on_c, 9, 44, 67
5, 63384, Note_on_c, 9, 44, 0
5, 63711, Note_on_c, 9, 44, 63
5, 63741, Note_on_c, 9, 44, 0
5, 63830, Note_on_c, 9, 44, 69
5, 63868, Note_on_c, 9, 44, 0
5, 64069, Note_on_c, 9, 44, 64
5, 64100, Note_on_c, 9, 44, 0
5, 64192, Note_on_c, 9, 44, 70
5, 64225, Note_on_c, 9, 44, 0
5, 64428, Note_on_c, 9, 44, 64
5, 64463, Note_on_c, 9, 44, 0
5, 64793, Note_on_c, 9, 44, 67
5, 64823, Note_on_c, 9, 44, 0
5, 64918, Note_on_c, 9, 46, 67
5, 64947, Note_on_c, 9, 46, 0
5, 65150, Note_on_c, 9, 44, 56
5, 65179, Note_on_c, 9, 44, 0
5, 65269, Note_on_c, 9, 44, 62
5, 65300, Note_on_c, 9, 44, 0
5, 65519, Note_on_c, 9, 44, 64
5, 65552, Note_on_c, 9, 44, 0
5, 65639, Note_on_c, 9, 44, 65
5, 65680, Note_on_c, 9, 44, 0
5, 65849, Note_on_c, 9, 44, 72
5, 65879, Note_on_c, 9, 44, 0
5, 65997, Note_on_c, 9, 44, 69
5, 66026, Note_on_c, 9, 44, 0
5, 66372, Note_on_c, 9, 44, 37
5, 66408, Note_on_c, 9, 44, 0
5, 67087, Note_on_c, 9, 44, 28
5, 67110, Note_on_c, 9, 44, 0
5, 67204, Note_on_c, 9, 44, 36
5, 67231, Note_on_c, 9, 44, 0
5, 67450, Note_on_c, 9, 46, 37
5, 67494, Note_on_c, 9, 46, 0
5, 67807, Note_on_c, 9, 46, 54
5, 67862, Note_on_c, 9, 46, 0
5, 68164, Note_on_c, 9, 46, 56
5, 68236, Note_on_c, 9, 46, 0
5, 68527, Note_on_c, 9, 46, 44
5, 68597, Note_on_c, 9, 46, 0
5, 68876, Note_on_c, 9, 46, 45
5, 68931, Note_on_c, 9, 46, 0
5, 69250, Note_on_c, 9, 46, 37
5, 69290, Note_on_c, 9, 46, 0
5, 69295, Note_on_c, 9, 44, 53
5, 69311, Note_on_c, 9, 44, 0
5, 69599, Note_on_c, 9, 44, 35
5, 69624, Note_on_c, 9, 44, 0
5, 69710, Note_on_c, 9, 44, 36
5, 69745, Note_on_c, 9, 44, 0
5, 69954, Note_on_c, 9, 44, 83
5, 70026, Note_on_c, 9, 44, 0
5, 70078, Note_on_c, 9, 44, 84
5, 70167, Note_on_c, 9, 44, 0
5, 70763, Note_on_c, 9, 44, 59
5, 70780, Note_on_c, 9, 44, 0
5, 70809, Note_on_c, 9, 44, 65
5, 70865, Note_on_c, 9, 44, 0
5, 71160, Note_on_c, 9, 44, 56
5, 71192, Note_on_c, 9, 44, 0
5, 71226, Note_on_c, 9, 44, 39
5, 71237, Note_on_c, 9, 44, 0
5, 71290, Note_on_c, 9, 46, 53
5, 71327, Note_on_c, 9, 46, 0
5, 71420, Note_on_c, 9, 44, 42
5, 71444, Note_on_c, 9, 44, 0
5, 71481, Note_on_c, 9, 44, 74
5, 71507, Note_on_c, 9, 44, 0
5, 71541, Note_on_c, 9, 46, 71
5, 71608, Note_on_c, 9, 46, 0
5, 71645, Note_on_c, 9, 44, 54
5, 71663, Note_on_c, 9, 44, 0
5, 71716, Note_on_c, 9, 44, 65
5, 71739, Note_on_c, 9, 44, 0
5, 71766, Note_on_c, 9, 46, 73
5, 71844, Note_on_c, 9, 46, 0
5, 71883, Note_on_c, 9, 44, 60
5, 71915, Note_on_c, 9, 44, 0
5, 73207, Note_on_c, 9, 44, 77
5, 73248, Note_on_c, 9, 44, 0
5, 73321, Note_on_c, 9, 44, 83
5, 73384, Note_on_c, 9, 44, 0
5, 73555, Note_on_c, 9, 44, 67
5, 73618, Note_on_c, 9, 44, 0
5, 73916, Note_on_c, 9, 44, 77
5, 73984, Note_on_c, 9, 44, 0
5, 74040, Note_on_c, 9, 44, 83
5, 74119, Note_on_c, 9, 44, 0
5, 74282, Note_on_c, 9, 44, 64
5, 74326, Note_on_c, 9, 44, 0
5, 74403, Note_on_c, 9, 46, 65
5, 74481, Note_on_c, 9, 46, 0
5, 74759, Note_on_c, 9, 46, 69
5, 74844, Note_on_c, 9, 46, 0
5, 75362, Note_on_c, 9, 44, 65
5, 75397, Note_on_c, 9, 44, 0
5, 75480, Note_on_c, 9, 44, 70
5, 75527, Note_on_c, 9, 44, 0
5, 75721, Note_on_c, 9, 44, 59
5, 75760, Note_on_c, 9, 44, 0
5, 75845, Note_on_c, 9, 46, 59
5, 75890, Note_on_c, 9, 46, 0
5, 76083, Note_on_c, 9, 44, 45
5, 76109, Note_on_c, 9, 44, 0
5, 76205, Note_on_c, 9, 44, 48
5, 76240, Note_on_c, 9, 44, 0
5, 76448, Note_on_c, 9, 44, 38
5, 76477, Note_on_c, 9, 44, 0
5, 76803, Note_on_c, 9, 44, 48
5, 76829, Note_on_c, 9, 44, 0
5, 76914, Note_on_c, 9, 44, 68
5, 76945, Note_on_c, 9, 44, 0
5, 77101, Note_on_c, 9, 44, 64
5, 77128, Note_on_c, 9, 44, 0
5, 77169, Note_on_c, 9, 46, 64
5, 77218, Note_on_c, 9, 46, 0
5, 77288, Note_on_c, 9, 46, 39
5, 77299, Note_on_c, 9, 46, 0
5, 77358, Note_on_c, 9, 46, 74
5, 77403, Note_on_c, 9, 46, 0
5, 77530, Note_on_c, 9, 46, 73
5, 77580, Note_on_c, 9, 46, 0
5, 78607, Note_on_c, 9, 44, 38
5, 78630, Note_on_c, 9, 44, 0
5, 78966, Note_on_c, 9, 44, 30
5, 78998, Note_on_c, 9, 44, 0
5, 79077, Note_on_c, 9, 44, 34
5, 79115, Note_on_c, 9, 44, 0
5, 79330, Note_on_c, 9, 44, 52
5, 79361, Note_on_c, 9, 44, 0
5, 79446, Note_on_c, 9, 44, 86
5, 79506, Note_on_c, 9, 44, 0
5, 79692, Note_on_c, 9, 44, 69
5, 79727, Note_on_c, 9, 44, 0
5, 80052, Note_on_c, 9, 44, 57
5, 80078, Note_on_c, 9, 44, 0
5, 80168, Note_on_c, 9, 44, 62
5, 80200, Note_on_c, 9, 44, 0
5, 80402, Note_on_c, 9, 44, 51
5, 80430, Note_on_c, 9, 44, 0
5, 80525, Note_on_c, 9, 44, 53
5, 80557, Note_on_c, 9, 44, 0
5, 80758, Note_on_c, 9, 44, 29
5, 80775, Note_on_c, 9, 44, 0
5, 81483, Note_on_c, 9, 44, 53
5, 81518, Note_on_c, 9, 44, 0
5, 81605, Note_on_c, 9, 45, 77
5, 81635, Note_on_c, 9, 45, 0
5, 81843, Note_on_c, 9, 44, 48
5, 81876, Note_on_c, 9, 44, 0
5, 82203, Note_on_c, 9, 44, 48
5, 82230, Note_on_c, 9, 44, 0
5, 82320, Note_on_c, 9, 46, 62
5, 82356, Note_on_c, 9, 46, 0
5, 82560, Note_on_c, 9, 44, 28
5, 82580, Note_on_c, 9, 44, 0
5, 82921, Note_on_c, 9, 44, 40
5, 82955, Note_on_c, 9, 44, 0
5, 83033, Note_on_c, 9, 44, 64
5, 83071, Note_on_c, 9, 44, 0
5, 83289, Note_on_c, 9, 44, 52
5, 83320, Note_on_c, 9, 44, 0
5, 83643, Note_on_c, 9, 44, 59
5, 83673, Note_on_c, 9, 44, 0
5, 83764, Note_on_c, 9, 44, 63
5, 83817, Note_on_c, 9, 44, 0
5, 84005, Note_on_c, 9, 44, 57
5, 84039, Note_on_c, 9, 44, 0
5, 84361, Note_on_c, 9, 44, 53
5, 84395, Note_on_c, 9, 44, 0
5, 84475, Note_on_c, 9, 44, 68
5, 84524, Note_on_c, 9, 44, 0
5, 84722, Note_on_c, 9, 44, 69
5, 84760, Note_on_c, 9, 44, 0
5, 84843, Note_on_c, 9, 44, 65
5, 84895, Note_on_c, 9, 44, 0
5, 85089, Note_on_c, 9, 44, 67
5, 85136, Note_on_c, 9, 44, 0
5, 85436, Note_on_c, 9, 44, 71
5, 85478, Note_on_c, 9, 44, 0
5, 85553, Note_on_c, 9, 44, 76
5, 85606, Note_on_c, 9, 44, 0
5, 85798, Note_on_c, 9, 44, 68
5, 85834, Note_on_c, 9, 44, 0
5, 85914, Note_on_c, 9, 44, 72
5, 85954, Note_on_c, 9, 44, 0
5, 86148, Note_on_c, 9, 44, 52
5, 86177, Note_on_c, 9, 44, 0
5, 86269, Note_on_c, 9, 44, 67
5, 86296, Note_on_c, 9, 44, 0
5, 86296, End_track
6, 0, Start_track
6, 0, MIDI_port, 0
6, 0, Title_t, "Snare etc"
6, 0, Program_c, 9, 32
6, 5765, Note_on_c, 9, 35, 34
6, 5785, Note_on_c, 9, 35, 0
6, 5969, Note_on_c, 9, 35, 43
6, 5982, Note_on_c, 9, 35, 0
6, 6567, Note_on_c, 9, 40, 45
6, 6578, Note_on_c, 9, 40, 0
6, 7395, Note_on_c, 9, 40, 28
6, 7408, Note_on_c, 9, 40, 0
6, 8126, Note_on_c, 9, 40, 39
6, 8140, Note_on_c, 9, 40, 0
6, 8365, Note_on_c, 9, 40, 36
6, 8380, Note_on_c, 9, 40, 0
6, 8542, Note_on_c, 9, 40, 17
6, 8554, Note_on_c, 9, 40, 0
6, 9442, Note_on_c, 9, 40, 23
6, 9458, Note_on_c, 9, 40, 0
6, 9915, Note_on_c, 9, 40, 23
6, 9929, Note_on_c, 9, 40, 0
6, 9971, Note_on_c, 9, 40, 23
6, 10009, Note_on_c, 9, 40, 0
6, 10156, Note_on_c, 9, 40, 16
6, 10180, Note_on_c, 9, 40, 0
6, 10206, Note_on_c, 9, 40, 20
6, 10249, Note_on_c, 9, 40, 0
6, 10322, Note_on_c, 9, 40, 29
6, 10338, Note_on_c, 9, 40, 0
6, 10389, Note_on_c, 9, 40, 33
6, 10403, Note_on_c, 9, 40, 0
6, 10453, Note_on_c, 9, 40, 22
6, 10518, Note_on_c, 9, 40, 0
6, 10562, Note_on_c, 9, 40, 13
6, 10573, Note_on_c, 9, 40, 0
6, 10762, Note_on_c, 9, 40, 30
6, 10775, Note_on_c, 9, 40, 0
6, 10866, Note_on_c, 9, 35, 58
6, 10895, Note_on_c, 9, 35, 0
6, 11016, Note_on_c, 9, 35, 41
6, 11016, Note_on_c, 9, 35, 0
6, 11047, Note_on_c, 9, 40, 53
6, 11115, Note_on_c, 9, 40, 0
6, 11360, Note_on_c, 9, 40, 53
6, 11371, Note_on_c, 9, 40, 0
6, 11412, Note_on_c, 9, 35, 43
6, 11425, Note_on_c, 9, 35, 0
6, 11531, Note_on_c, 9, 35, 74
6, 11590, Note_on_c, 9, 35, 0
6, 11962, Note_on_c, 9, 40, 26
6, 11975, Note_on_c, 9, 40, 0
6, 12001, Note_on_c, 9, 35, 27
6, 12045, Note_on_c, 9, 35, 0
6, 12136, Note_on_c, 9, 35, 20
6, 12159, Note_on_c, 9, 35, 0
6, 12455, Note_on_c, 9, 35, 14
6, 12466, Note_on_c, 9, 35, 0
6, 12679, Note_on_c, 9, 35, 30
6, 12695, Note_on_c, 9, 35, 0
6, 12727, Note_on_c, 9, 35, 32
6, 12761, Note_on_c, 9, 35, 0
6, 12925, Note_on_c, 9, 35, 37
6, 12939, Note_on_c, 9, 35, 0
6, 12977, Note_on_c, 9, 35, 33
6, 13008, Note_on_c, 9, 35, 0
6, 13886, Note_on_c, 9, 35, 45
6, 13899, Note_on_c, 9, 35, 0
6, 13999, Note_on_c, 9, 35, 29
6, 14014, Note_on_c, 9, 35, 0
6, 14063, Note_on_c, 9, 35, 33
6, 14080, Note_on_c, 9, 35, 0
6, 14357, Note_on_c, 9, 40, 41
6, 14368, Note_on_c, 9, 40, 0
6, 14404, Note_on_c, 9, 35, 31
6, 14427, Note_on_c, 9, 35, 0
6, 14836, Note_on_c, 9, 29, 26
6, 14855, Note_on_c, 9, 29, 0
6, 14882, Note_on_c, 9, 35, 21
6, 14963, Note_on_c, 9, 35, 0
6, 15207, Note_on_c, 9, 35, 31
6, 15223, Note_on_c, 9, 35, 0
6, 15335, Note_on_c, 9, 35, 25
6, 15355, Note_on_c, 9, 35, 0
6, 15390, Note_on_c, 9, 35, 36
6, 15426, Note_on_c, 9, 35, 0
6, 16282, Note_on_c, 9, 37, 12
6, 16293, Note_on_c, 9, 37, 0
6, 16367, Note_on_c, 9, 37, 22
6, 16380, Note_on_c, 9, 37, 0
6, 16458, Note_on_c, 9, 37, 37
6, 16482, Note_on_c, 9, 37, 0
6, 16539, Note_on_c, 9, 37, 40
6, 16559, Note_on_c, 9, 37, 0
6, 16624, Note_on_c, 9, 37, 27
6, 16648, Note_on_c, 9, 37, 0
6, 16705, Note_on_c, 9, 37, 31
6, 16736, Note_on_c, 9, 37, 0
6, 16794, Note_on_c, 9, 37, 29
6, 16817, Note_on_c, 9, 37, 0
6, 16879, Note_on_c, 9, 37, 26
6, 16896, Note_on_c, 9, 37, 0
6, 16999, Note_on_c, 9, 35, 51
6, 17021, Note_on_c, 9, 35, 0
6, 17129, Note_on_c, 9, 35, 52
6, 17146, Note_on_c, 9, 35, 0
6, 17237, Note_on_c, 9, 35, 35
6, 17251, Note_on_c, 9, 35, 0
6, 17285, Note_on_c, 9, 35, 46
6, 17312, Note_on_c, 9, 35, 0
6, 17844, Note_on_c, 9, 37, 28
6, 17863, Note_on_c, 9, 37, 0
6, 17889, Note_on_c, 9, 35, 30
6, 17959, Note_on_c, 9, 35, 0
6, 18442, Note_on_c, 9, 40, 29
6, 18463, Note_on_c, 9, 40, 0
6, 18489, Note_on_c, 9, 35, 20
6, 18531, Note_on_c, 9, 35, 0
6, 18680, Note_on_c, 9, 40, 37
6, 18697, Note_on_c, 9, 40, 0
6, 18733, Note_on_c, 9, 35, 24
6, 18755, Note_on_c, 9, 35, 0
6, 18929, Note_on_c, 9, 40, 40
6, 18942, Note_on_c, 9, 40, 0
6, 18982, Note_on_c, 9, 35, 37
6, 19003, Note_on_c, 9, 35, 0
6, 19424, Note_on_c, 9, 40, 38
6, 19437, Note_on_c, 9, 40, 0
6, 19473, Note_on_c, 9, 35, 21
6, 19500, Note_on_c, 9, 35, 0
6, 20013, Note_on_c, 9, 40, 23
6, 20027, Note_on_c, 9, 40, 0
6, 20118, Note_on_c, 9, 35, 44
6, 20137, Note_on_c, 9, 35, 0
6, 20165, Note_on_c, 9, 57, 43
6, 20165, Note_on_c, 9, 40, 33
6, 20174, Note_on_c, 9, 57, 0
6, 20178, Note_on_c, 9, 40, 0
6, 20480, Note_on_c, 9, 40, 37
6, 20495, Note_on_c, 9, 40, 0
6, 20537, Note_on_c, 9, 35, 21
6, 20563, Note_on_c, 9, 35, 0
6, 21673, Note_on_c, 9, 34, 35
6, 21702, Note_on_c, 9, 34, 0
6, 21732, Note_on_c, 9, 35, 19
6, 21757, Note_on_c, 9, 35, 0
6, 21852, Note_on_c, 9, 35, 20
6, 21873, Note_on_c, 9, 35, 0
6, 22438, Note_on_c, 9, 37, 23
6, 22454, Note_on_c, 9, 37, 0
6, 22518, Note_on_c, 9, 37, 34
6, 22533, Note_on_c, 9, 37, 0
6, 22600, Note_on_c, 9, 37, 39
6, 22624, Note_on_c, 9, 37, 0
6, 22694, Note_on_c, 9, 37, 31
6, 22721, Note_on_c, 9, 37, 0
6, 22771, Note_on_c, 9, 35, 33
6, 22791, Note_on_c, 9, 35, 0
6, 22877, Note_on_c, 9, 35, 49
6, 22908, Note_on_c, 9, 35, 0
6, 22999, Note_on_c, 9, 35, 43
6, 23010, Note_on_c, 9, 35, 0
6, 23052, Note_on_c, 9, 35, 48
6, 23066, Note_on_c, 9, 35, 0
6, 23362, Note_on_c, 9, 37, 34
6, 23375, Note_on_c, 9, 37, 0
6, 23411, Note_on_c, 9, 35, 27
6, 23428, Note_on_c, 9, 35, 0
6, 23719, Note_on_c, 9, 37, 37
6, 23730, Note_on_c, 9, 37, 0
6, 23761, Note_on_c, 9, 35, 41
6, 23777, Note_on_c, 9, 35, 0
6, 23961, Note_on_c, 9, 34, 43
6, 23991, Note_on_c, 9, 34, 0
6, 24013, Note_on_c, 9, 35, 35
6, 24050, Note_on_c, 9, 35, 0
6, 24199, Note_on_c, 9, 34, 41
6, 24232, Note_on_c, 9, 34, 0
6, 24236, Note_on_c, 9, 37, 66
6, 24253, Note_on_c, 9, 35, 39
6, 24285, Note_on_c, 9, 37, 0
6, 24292, Note_on_c, 9, 35, 0
6, 24363, Note_on_c, 9, 37, 71
6, 24454, Note_on_c, 9, 37, 0
6, 24603, Note_on_c, 9, 35, 21
6, 24617, Note_on_c, 9, 35, 0
6, 24675, Note_on_c, 9, 35, 40
6, 24690, Note_on_c, 9, 35, 0
6, 25155, Note_on_c, 9, 40, 36
6, 25174, Note_on_c, 9, 40, 0
6, 25208, Note_on_c, 9, 40, 33
6, 25251, Note_on_c, 9, 40, 0
6, 25395, Note_on_c, 9, 40, 42
6, 25408, Note_on_c, 9, 40, 0
6, 25442, Note_on_c, 9, 40, 42
6, 25480, Note_on_c, 9, 40, 0
6, 25875, Note_on_c, 9, 34, 74
6, 25879, Note_on_c, 9, 35, 46
6, 25892, Note_on_c, 9, 35, 0
6, 25910, Note_on_c, 9, 34, 0
6, 25920, Note_on_c, 9, 35, 48
6, 25928, Note_on_c, 9, 35, 53
6, 25962, Note_on_c, 9, 35, 0
6, 25986, Note_on_c, 9, 35, 0
6, 26235, Note_on_c, 9, 35, 66
6, 26256, Note_on_c, 9, 35, 0
6, 26594, Note_on_c, 9, 35, 37
6, 26607, Note_on_c, 9, 35, 0
6, 26633, Note_on_c, 9, 35, 51
6, 26694, Note_on_c, 9, 35, 0
6, 26716, Note_on_c, 9, 35, 51
6, 26741, Note_on_c, 9, 35, 0
6, 27115, Note_on_c, 9, 37, 56
6, 27169, Note_on_c, 9, 37, 0
6, 27448, Note_on_c, 9, 35, 21
6, 27460, Note_on_c, 9, 35, 0
6, 27679, Note_on_c, 9, 35, 63
6, 27690, Note_on_c, 9, 35, 0
6, 27725, Note_on_c, 9, 35, 53
6, 27750, Note_on_c, 9, 35, 0
6, 28149, Note_on_c, 9, 34, 38
6, 28176, Note_on_c, 9, 34, 0
6, 28199, Note_on_c, 9, 35, 31
6, 28265, Note_on_c, 9, 35, 0
6, 28759, Note_on_c, 9, 40, 63
6, 28787, Note_on_c, 9, 40, 0
6, 28812, Note_on_c, 9, 35, 43
6, 28852, Note_on_c, 9, 35, 0
6, 29353, Note_on_c, 9, 40, 47
6, 29364, Note_on_c, 9, 40, 0
6, 29391, Note_on_c, 9, 40, 49
6, 29406, Note_on_c, 9, 40, 0
6, 29430, Note_on_c, 9, 35, 54
6, 29457, Note_on_c, 9, 35, 0
6, 29837, Note_on_c, 9, 40, 51
6, 29847, Note_on_c, 9, 40, 0
6, 29873, Note_on_c, 9, 35, 57
6, 29900, Note_on_c, 9, 35, 0
6, 29950, Note_on_c, 9, 40, 60
6, 29962, Note_on_c, 9, 40, 0
6, 30079, Note_on_c, 9, 40, 61
6, 30099, Note_on_c, 9, 40, 0
6, 30122, Note_on_c, 9, 35, 42
6, 30162, Note_on_c, 9, 35, 0
6, 30907, Note_on_c, 9, 40, 21
6, 30923, Note_on_c, 9, 40, 0
6, 30967, Note_on_c, 9, 40, 59
6, 31007, Note_on_c, 9, 40, 0
6, 31087, Note_on_c, 9, 40, 21
6, 31113, Note_on_c, 9, 40, 0
6, 31158, Note_on_c, 9, 40, 62
6, 31187, Note_on_c, 9, 40, 0
6, 31276, Note_on_c, 9, 40, 34
6, 31288, Note_on_c, 9, 40, 0
6, 31329, Note_on_c, 9, 40, 70
6, 31387, Note_on_c, 9, 40, 0
6, 31441, Note_on_c, 9, 40, 38
6, 31468, Note_on_c, 9, 40, 0
6, 31512, Note_on_c, 9, 40, 68
6, 31536, Note_on_c, 9, 40, 0
6, 31627, Note_on_c, 9, 34, 70
6, 31671, Note_on_c, 9, 35, 83
6, 31681, Note_on_c, 9, 40, 21
6, 31690, Note_on_c, 9, 34, 0
6, 31696, Note_on_c, 9, 40, 0
6, 31744, Note_on_c, 9, 35, 0
6, 32358, Note_on_c, 9, 40, 17
6, 32369, Note_on_c, 9, 40, 0
6, 32369, Note_on_c, 9, 34, 46
6, 32386, Note_on_c, 9, 34, 0
6, 32407, Note_on_c, 9, 35, 49
6, 32475, Note_on_c, 9, 35, 0
6, 32833, Note_on_c, 9, 34, 43
6, 32862, Note_on_c, 9, 34, 0
6, 32876, Note_on_c, 9, 35, 53
6, 32879, Note_on_c, 9, 57, 61
6, 32920, Note_on_c, 9, 57, 0
6, 32941, Note_on_c, 9, 35, 0
6, 33072, Note_on_c, 9, 34, 57
6, 33101, Note_on_c, 9, 34, 0
6, 33113, Note_on_c, 9, 35, 69
6, 33117, Note_on_c, 9, 57, 71
6, 33172, Note_on_c, 9, 57, 0
6, 33199, Note_on_c, 9, 35, 0
6, 33430, Note_on_c, 9, 35, 26
6, 33456, Note_on_c, 9, 35, 0
6, 33472, Note_on_c, 9, 35, 14
6, 33530, Note_on_c, 9, 35, 0
6, 33668, Note_on_c, 9, 35, 61
6, 33692, Note_on_c, 9, 35, 0
6, 33840, Note_on_c, 9, 35, 49
6, 33863, Note_on_c, 9, 35, 0
6, 34032, Note_on_c, 9, 35, 70
6, 34073, Note_on_c, 9, 35, 0
6, 34207, Note_on_c, 9, 35, 74
6, 34263, Note_on_c, 9, 35, 0
6, 34399, Note_on_c, 9, 35, 77
6, 34456, Note_on_c, 9, 35, 0
6, 34527, Note_on_c, 9, 34, 52
6, 34551, Note_on_c, 9, 34, 0
6, 34572, Note_on_c, 9, 35, 53
6, 34645, Note_on_c, 9, 35, 0
6, 34759, Note_on_c, 9, 35, 54
6, 34784, Note_on_c, 9, 35, 0
6, 34923, Note_on_c, 9, 35, 55
6, 34954, Note_on_c, 9, 35, 0
6, 35114, Note_on_c, 9, 40, 56
6, 35137, Note_on_c, 9, 40, 0
6, 35159, Note_on_c, 9, 35, 26
6, 35187, Note_on_c, 9, 35, 0
6, 35234, Note_on_c, 9, 40, 62
6, 35255, Note_on_c, 9, 40, 0
6, 35272, Note_on_c, 9, 35, 42
6, 35319, Note_on_c, 9, 35, 0
6, 35352, Note_on_c, 9, 40, 49
6, 35363, Note_on_c, 9, 40, 0
6, 35388, Note_on_c, 9, 35, 41
6, 35403, Note_on_c, 9, 35, 0
6, 35473, Note_on_c, 9, 40, 36
6, 35486, Note_on_c, 9, 40, 0
6, 35516, Note_on_c, 9, 35, 28
6, 35536, Note_on_c, 9, 35, 0
6, 36793, Note_on_c, 9, 57, 25
6, 36807, Note_on_c, 9, 57, 0
6, 37147, Note_on_c, 9, 57, 49
6, 37158, Note_on_c, 9, 57, 0
6, 37277, Note_on_c, 9, 57, 62
6, 37287, Note_on_c, 9, 57, 0
6, 37386, Note_on_c, 9, 57, 63
6, 37398, Note_on_c, 9, 57, 0
6, 37431, Note_on_c, 9, 35, 63
6, 37474, Note_on_c, 9, 35, 0
6, 37748, Note_on_c, 9, 40, 64
6, 37775, Note_on_c, 9, 40, 0
6, 37791, Note_on_c, 9, 35, 47
6, 37869, Note_on_c, 9, 35, 0
6, 38114, Note_on_c, 9, 35, 50
6, 38127, Note_on_c, 9, 35, 0
6, 38154, Note_on_c, 9, 35, 62
6, 38220, Note_on_c, 9, 35, 0
6, 38358, Note_on_c, 9, 35, 65
6, 38359, Note_on_c, 9, 40, 55
6, 38372, Note_on_c, 9, 40, 0
6, 38381, Note_on_c, 9, 35, 0
6, 38764, Note_on_c, 9, 40, 47
6, 38782, Note_on_c, 9, 40, 0
6, 39188, Note_on_c, 9, 40, 40
6, 39200, Note_on_c, 9, 38, 29
6, 39201, Note_on_c, 9, 40, 0
6, 39212, Note_on_c, 9, 38, 0
6, 39237, Note_on_c, 9, 35, 40
6, 39274, Note_on_c, 9, 35, 0
6, 39424, Note_on_c, 9, 40, 44
6, 39450, Note_on_c, 9, 38, 48
6, 39454, Note_on_c, 9, 40, 0
6, 39461, Note_on_c, 9, 38, 0
6, 39482, Note_on_c, 9, 35, 55
6, 39520, Note_on_c, 9, 35, 0
6, 40028, Note_on_c, 9, 53, 49
6, 40039, Note_on_c, 9, 53, 0
6, 40154, Note_on_c, 9, 35, 39
6, 40166, Note_on_c, 9, 35, 0
6, 40272, Note_on_c, 9, 35, 66
6, 40295, Note_on_c, 9, 35, 0
6, 40315, Note_on_c, 9, 35, 69
6, 40374, Note_on_c, 9, 35, 0
6, 40512, Note_on_c, 9, 35, 56
6, 40537, Note_on_c, 9, 35, 0
6, 41524, Note_on_c, 9, 37, 66
6, 41579, Note_on_c, 9, 37, 0
6, 41643, Note_on_c, 9, 37, 69
6, 41705, Note_on_c, 9, 37, 0
6, 41771, Note_on_c, 9, 35, 24
6, 41786, Note_on_c, 9, 35, 0
6, 41895, Note_on_c, 9, 35, 19
6, 41908, Note_on_c, 9, 35, 0
6, 41956, Note_on_c, 9, 35, 76
6, 41998, Note_on_c, 9, 35, 0
6, 42076, Note_on_c, 9, 35, 48
6, 42087, Note_on_c, 9, 35, 0
6, 42128, Note_on_c, 9, 35, 78
6, 42181, Note_on_c, 9, 35, 0
6, 42759, Note_on_c, 9, 37, 35
6, 42781, Note_on_c, 9, 37, 0
6, 42844, Note_on_c, 9, 37, 37
6, 42866, Note_on_c, 9, 37, 0
6, 42928, Note_on_c, 9, 37, 48
6, 42949, Note_on_c, 9, 37, 0
6, 43011, Note_on_c, 9, 37, 50
6, 43033, Note_on_c, 9, 37, 0
6, 43090, Note_on_c, 9, 37, 53
6, 43113, Note_on_c, 9, 37, 0
6, 43168, Note_on_c, 9, 34, 70
6, 43169, Note_on_c, 9, 35, 58
6, 43180, Note_on_c, 9, 35, 0
6, 43217, Note_on_c, 9, 34, 0
6, 43220, Note_on_c, 9, 35, 74
6, 43300, Note_on_c, 9, 35, 0
6, 43751, Note_on_c, 9, 37, 63
6, 43776, Note_on_c, 9, 37, 0
6, 43806, Note_on_c, 9, 35, 36
6, 43860, Note_on_c, 9, 35, 0
6, 44357, Note_on_c, 9, 34, 42
6, 44387, Note_on_c, 9, 34, 0
6, 44402, Note_on_c, 9, 57, 33
6, 44405, Note_on_c, 9, 35, 49
6, 44425, Note_on_c, 9, 57, 0
6, 44443, Note_on_c, 9, 35, 0
6, 44596, Note_on_c, 9, 34, 33
6, 44627, Note_on_c, 9, 34, 0
6, 44634, Note_on_c, 9, 35, 51
6, 44637, Note_on_c, 9, 57, 33
6, 44656, Note_on_c, 9, 57, 0
6, 44683, Note_on_c, 9, 35, 0
6, 45084, Note_on_c, 9, 34, 48
6, 45109, Note_on_c, 9, 34, 0
6, 45130, Note_on_c, 9, 35, 63
6, 45131, Note_on_c, 9, 57, 55
6, 45160, Note_on_c, 9, 57, 0
6, 45199, Note_on_c, 9, 35, 0
6, 45316, Note_on_c, 9, 34, 48
6, 45346, Note_on_c, 9, 34, 0
6, 45360, Note_on_c, 9, 35, 72
6, 45364, Note_on_c, 9, 57, 76
6, 45410, Note_on_c, 9, 57, 0
6, 45449, Note_on_c, 9, 35, 0
6, 45560, Note_on_c, 9, 34, 59
6, 45594, Note_on_c, 9, 34, 0
6, 45602, Note_on_c, 9, 35, 67
6, 45605, Note_on_c, 9, 57, 74
6, 45645, Note_on_c, 9, 57, 0
6, 45679, Note_on_c, 9, 35, 0
6, 45899, Note_on_c, 9, 34, 53
6, 45930, Note_on_c, 9, 34, 0
6, 45944, Note_on_c, 9, 57, 48
6, 45955, Note_on_c, 9, 57, 0
6, 45955, Note_on_c, 9, 35, 50
6, 45968, Note_on_c, 9, 35, 0
6, 46079, Note_on_c, 9, 35, 88
6, 46117, Note_on_c, 9, 35, 0
6, 46923, Note_on_c, 9, 40, 37
6, 46934, Note_on_c, 9, 40, 0
6, 47005, Note_on_c, 9, 40, 56
6, 47020, Note_on_c, 9, 40, 0
6, 47050, Note_on_c, 9, 40, 46
6, 47078, Note_on_c, 9, 40, 0
6, 47122, Note_on_c, 9, 35, 65
6, 47160, Note_on_c, 9, 35, 0
6, 47353, Note_on_c, 9, 40, 55
6, 47368, Note_on_c, 9, 40, 0
6, 47406, Note_on_c, 9, 35, 61
6, 47452, Note_on_c, 9, 35, 0
6, 48081, Note_on_c, 9, 35, 34
6, 48103, Note_on_c, 9, 35, 0
6, 48183, Note_on_c, 9, 35, 39
6, 48195, Note_on_c, 9, 35, 0
6, 48242, Note_on_c, 9, 35, 36
6, 48263, Note_on_c, 9, 35, 0
6, 48436, Note_on_c, 9, 35, 13
6, 48447, Note_on_c, 9, 35, 0
6, 48494, Note_on_c, 9, 35, 40
6, 48527, Note_on_c, 9, 35, 0
6, 48667, Note_on_c, 9, 35, 32
6, 48682, Note_on_c, 9, 35, 0
6, 48717, Note_on_c, 9, 35, 61
6, 48781, Note_on_c, 9, 35, 0
6, 48916, Note_on_c, 9, 35, 67
6, 48938, Note_on_c, 9, 35, 0
6, 48963, Note_on_c, 9, 35, 54
6, 49023, Note_on_c, 9, 35, 0
6, 50000, Note_on_c, 9, 35, 44
6, 50011, Note_on_c, 9, 35, 0
6, 50035, Note_on_c, 9, 35, 54
6, 50106, Note_on_c, 9, 35, 0
6, 50157, Note_on_c, 9, 35, 63
6, 50211, Note_on_c, 9, 35, 0
6, 50279, Note_on_c, 9, 35, 59
6, 50318, Note_on_c, 9, 35, 0
6, 50352, Note_on_c, 9, 35, 44
6, 50385, Note_on_c, 9, 35, 0
6, 50471, Note_on_c, 9, 40, 60
6, 50498, Note_on_c, 9, 40, 0
6, 50523, Note_on_c, 9, 35, 23
6, 50574, Note_on_c, 9, 35, 0
6, 50633, Note_on_c, 9, 35, 43
6, 50649, Note_on_c, 9, 35, 0
6, 50710, Note_on_c, 9, 40, 68
6, 50736, Note_on_c, 9, 40, 0
6, 50768, Note_on_c, 9, 35, 30
6, 50799, Note_on_c, 9, 35, 0
6, 51553, Note_on_c, 9, 40, 51
6, 51564, Note_on_c, 9, 40, 0
6, 51669, Note_on_c, 9, 40, 56
6, 51687, Note_on_c, 9, 40, 0
6, 51761, Note_on_c, 9, 40, 64
6, 51778, Note_on_c, 9, 40, 0
6, 51794, Note_on_c, 9, 34, 60
6, 51831, Note_on_c, 9, 34, 0
6, 51841, Note_on_c, 9, 35, 66
6, 51916, Note_on_c, 9, 35, 0
6, 52274, Note_on_c, 9, 34, 39
6, 52301, Note_on_c, 9, 34, 0
6, 52318, Note_on_c, 9, 35, 66
6, 52319, Note_on_c, 9, 57, 61
6, 52356, Note_on_c, 9, 57, 0
6, 52393, Note_on_c, 9, 35, 0
6, 52882, Note_on_c, 9, 35, 44
6, 52893, Note_on_c, 9, 35, 0
6, 52926, Note_on_c, 9, 35, 39
6, 52999, Note_on_c, 9, 35, 0
6, 53119, Note_on_c, 9, 35, 60
6, 53144, Note_on_c, 9, 35, 0
6, 53279, Note_on_c, 9, 35, 55
6, 53306, Note_on_c, 9, 35, 0
6, 53470, Note_on_c, 9, 35, 56
6, 53501, Note_on_c, 9, 35, 0
6, 54063, Note_on_c, 9, 40, 56
6, 54075, Note_on_c, 9, 40, 0
6, 54116, Note_on_c, 9, 35, 38
6, 54159, Note_on_c, 9, 35, 0
6, 54301, Note_on_c, 9, 40, 53
6, 54314, Note_on_c, 9, 40, 0
6, 54351, Note_on_c, 9, 35, 29
6, 54402, Note_on_c, 9, 35, 0
6, 54551, Note_on_c, 9, 40, 59
6, 54562, Note_on_c, 9, 40, 0
6, 54600, Note_on_c, 9, 35, 23
6, 54649, Note_on_c, 9, 35, 0
6, 54670, Note_on_c, 9, 40, 53
6, 54689, Note_on_c, 9, 40, 0
6, 54725, Note_on_c, 9, 35, 24
6, 54757, Note_on_c, 9, 35, 0
6, 54912, Note_on_c, 9, 35, 50
6, 54925, Note_on_c, 9, 35, 0
6, 54960, Note_on_c, 9, 35, 46
6, 55011, Note_on_c, 9, 35, 0
6, 55034, Note_on_c, 9, 35, 58
6, 55088, Note_on_c, 9, 35, 0
6, 55885, Note_on_c, 9, 29, 38
6, 56032, Note_on_c, 9, 34, 42
6, 56048, Note_on_c, 9, 29, 0
6, 56116, Note_on_c, 9, 57, 62
6, 56120, Note_on_c, 9, 35, 66
6, 56127, Note_on_c, 9, 57, 0
6, 56136, Note_on_c, 9, 34, 0
6, 56143, Note_on_c, 9, 35, 0
6, 56589, Note_on_c, 9, 29, 61
6, 56730, Note_on_c, 9, 34, 51
6, 56750, Note_on_c, 9, 29, 0
6, 56779, Note_on_c, 9, 57, 60
6, 56783, Note_on_c, 9, 35, 57
6, 56794, Note_on_c, 9, 35, 0
6, 56800, Note_on_c, 9, 57, 0
6, 56844, Note_on_c, 9, 35, 58
6, 56847, Note_on_c, 9, 57, 63
6, 56858, Note_on_c, 9, 57, 0
6, 56860, Note_on_c, 9, 34, 0
6, 56876, Note_on_c, 9, 35, 0
6, 57315, Note_on_c, 9, 35, 37
6, 57328, Note_on_c, 9, 35, 0
6, 57563, Note_on_c, 9, 35, 26
6, 57578, Note_on_c, 9, 35, 0
6, 57602, Note_on_c, 9, 35, 42
6, 57641, Note_on_c, 9, 35, 0
6, 58031, Note_on_c, 9, 35, 28
6, 58046, Note_on_c, 9, 35, 0
6, 58071, Note_on_c, 9, 35, 34
6, 58093, Note_on_c, 9, 35, 0
6, 58156, Note_on_c, 9, 35, 77
6, 58180, Note_on_c, 9, 35, 0
6, 58882, Note_on_c, 9, 35, 26
6, 58896, Note_on_c, 9, 35, 0
6, 59001, Note_on_c, 9, 35, 57
6, 59012, Note_on_c, 9, 35, 0
6, 59047, Note_on_c, 9, 35, 55
6, 59093, Note_on_c, 9, 35, 0
6, 59244, Note_on_c, 9, 35, 43
6, 59256, Note_on_c, 9, 35, 0
6, 59403, Note_on_c, 9, 35, 34
6, 59415, Note_on_c, 9, 35, 0
6, 59600, Note_on_c, 9, 35, 31
6, 59614, Note_on_c, 9, 35, 0
6, 59708, Note_on_c, 9, 40, 57
6, 59719, Note_on_c, 9, 40, 0
6, 59756, Note_on_c, 9, 35, 32
6, 59772, Note_on_c, 9, 35, 0
6, 59944, Note_on_c, 9, 40, 47
6, 59955, Note_on_c, 9, 40, 0
6, 59992, Note_on_c, 9, 35, 39
6, 60005, Note_on_c, 9, 35, 0
6, 60949, Note_on_c, 9, 40, 51
6, 61005, Note_on_c, 9, 40, 0
6, 61159, Note_on_c, 9, 40, 65
6, 61184, Note_on_c, 9, 40, 0
6, 61600, Note_on_c, 9, 40, 52
6, 61614, Note_on_c, 9, 40, 0
6, 61691, Note_on_c, 9, 40, 57
6, 61718, Note_on_c, 9, 40, 0
6, 61767, Note_on_c, 9, 34, 48
6, 61796, Note_on_c, 9, 34, 0
6, 61841, Note_on_c, 9, 34, 52
6, 61867, Note_on_c, 9, 34, 0
6, 61903, Note_on_c, 9, 34, 27
6, 61920, Note_on_c, 9, 34, 0
6, 61922, Note_on_c, 9, 35, 61
6, 61931, Note_on_c, 9, 40, 37
6, 61946, Note_on_c, 9, 40, 0
6, 61975, Note_on_c, 9, 35, 0
6, 63001, Note_on_c, 9, 40, 40
6, 63012, Note_on_c, 9, 40, 0
6, 63062, Note_on_c, 9, 40, 64
6, 63073, Note_on_c, 9, 40, 0
6, 63124, Note_on_c, 9, 40, 79
6, 63150, Note_on_c, 9, 40, 0
6, 63164, Note_on_c, 9, 40, 68
6, 63175, Note_on_c, 9, 40, 0
6, 63245, Note_on_c, 9, 40, 72
6, 63265, Note_on_c, 9, 40, 0
6, 63345, Note_on_c, 9, 35, 34
6, 63368, Note_on_c, 9, 35, 0
6, 63563, Note_on_c, 9, 35, 34
6, 63576, Note_on_c, 9, 35, 0
6, 63903, Note_on_c, 9, 34, 59
6, 63931, Note_on_c, 9, 34, 0
6, 63961, Note_on_c, 9, 35, 22
6, 63984, Note_on_c, 9, 35, 0
6, 64030, Note_on_c, 9, 35, 47
6, 64073, Note_on_c, 9, 35, 0
6, 64513, Note_on_c, 9, 34, 52
6, 64542, Note_on_c, 9, 34, 0
6, 64571, Note_on_c, 9, 35, 30
6, 64603, Note_on_c, 9, 35, 0
6, 64681, Note_on_c, 9, 35, 24
6, 64717, Note_on_c, 9, 35, 0
6, 64792, Note_on_c, 9, 35, 31
6, 64809, Note_on_c, 9, 35, 0
6, 65000, Note_on_c, 9, 35, 41
6, 65012, Note_on_c, 9, 35, 0
6, 65163, Note_on_c, 9, 35, 41
6, 65178, Note_on_c, 9, 35, 0
6, 65359, Note_on_c, 9, 35, 38
6, 65372, Note_on_c, 9, 35, 0
6, 65510, Note_on_c, 9, 35, 58
6, 65524, Note_on_c, 9, 35, 0
6, 65716, Note_on_c, 9, 35, 51
6, 65738, Note_on_c, 9, 35, 0
6, 65879, Note_on_c, 9, 35, 50
6, 65901, Note_on_c, 9, 35, 0
6, 66085, Note_on_c, 9, 35, 51
6, 66101, Note_on_c, 9, 35, 0
6, 66192, Note_on_c, 9, 34, 56
6, 66222, Note_on_c, 9, 34, 0
6, 66228, Note_on_c, 9, 57, 92
6, 66234, Note_on_c, 9, 35, 78
6, 66240, Note_on_c, 9, 35, 34
6, 66251, Note_on_c, 9, 57, 0
6, 66260, Note_on_c, 9, 35, 0
6, 66263, Note_on_c, 9, 35, 0
6, 66444, Note_on_c, 9, 35, 43
6, 66457, Note_on_c, 9, 35, 0
6, 67042, Note_on_c, 9, 40, 45
6, 67053, Note_on_c, 9, 40, 0
6, 67870, Note_on_c, 9, 40, 28
6, 67883, Note_on_c, 9, 40, 0
6, 68601, Note_on_c, 9, 40, 39
6, 68615, Note_on_c, 9, 40, 0
6, 68840, Note_on_c, 9, 40, 36
6, 68855, Note_on_c, 9, 40, 0
6, 69017, Note_on_c, 9, 40, 17
6, 69029, Note_on_c, 9, 40, 0
6, 69917, Note_on_c, 9, 40, 23
6, 69933, Note_on_c, 9, 40, 0
6, 70390, Note_on_c, 9, 40, 23
6, 70404, Note_on_c, 9, 40, 0
6, 70446, Note_on_c, 9, 40, 23
6, 70484, Note_on_c, 9, 40, 0
6, 70631, Note_on_c, 9, 40, 16
6, 70655, Note_on_c, 9, 40, 0
6, 70681, Note_on_c, 9, 40, 20
6, 70724, Note_on_c, 9, 40, 0
6, 70797, Note_on_c, 9, 40, 29
6, 70813, Note_on_c, 9, 40, 0
6, 70864, Note_on_c, 9, 40, 33
6, 70878, Note_on_c, 9, 40, 0
6, 70928, Note_on_c, 9, 40, 22
6, 70993, Note_on_c, 9, 40, 0
6, 71037, Note_on_c, 9, 40, 13
6, 71048, Note_on_c, 9, 40, 0
6, 71237, Note_on_c, 9, 40, 30
6, 71250, Note_on_c, 9, 40, 0
6, 71341, Note_on_c, 9, 35, 58
6, 71370, Note_on_c, 9, 35, 0
6, 71491, Note_on_c, 9, 35, 41
6, 71491, Note_on_c, 9, 35, 0
6, 71522, Note_on_c, 9, 40, 53
6, 71590, Note_on_c, 9, 40, 0
6, 71835, Note_on_c, 9, 40, 53
6, 71846, Note_on_c, 9, 40, 0
6, 71887, Note_on_c, 9, 35, 43
6, 71900, Note_on_c, 9, 35, 0
6, 72006, Note_on_c, 9, 35, 74
6, 72065, Note_on_c, 9, 35, 0
6, 72437, Note_on_c, 9, 40, 26
6, 72450, Note_on_c, 9, 40, 0
6, 72476, Note_on_c, 9, 35, 27
6, 72520, Note_on_c, 9, 35, 0
6, 72611, Note_on_c, 9, 35, 20
6, 72634, Note_on_c, 9, 35, 0
6, 72930, Note_on_c, 9, 35, 14
6, 72941, Note_on_c, 9, 35, 0
6, 73154, Note_on_c, 9, 35, 30
6, 73170, Note_on_c, 9, 35, 0
6, 73202, Note_on_c, 9, 35, 32
6, 73236, Note_on_c, 9, 35, 0
6, 73400, Note_on_c, 9, 35, 37
6, 73414, Note_on_c, 9, 35, 0
6, 73452, Note_on_c, 9, 35, 33
6, 73483, Note_on_c, 9, 35, 0
6, 74361, Note_on_c, 9, 35, 45
6, 74374, Note_on_c, 9, 35, 0
6, 74474, Note_on_c, 9, 35, 29
6, 74489, Note_on_c, 9, 35, 0
6, 74538, Note_on_c, 9, 35, 33
6, 74555, Note_on_c, 9, 35, 0
6, 74832, Note_on_c, 9, 40, 41
6, 74843, Note_on_c, 9, 40, 0
6, 74879, Note_on_c, 9, 35, 31
6, 74902, Note_on_c, 9, 35, 0
6, 75311, Note_on_c, 9, 29, 26
6, 75330, Note_on_c, 9, 29, 0
6, 75357, Note_on_c, 9, 35, 21
6, 75438, Note_on_c, 9, 35, 0
6, 75682, Note_on_c, 9, 35, 31
6, 75698, Note_on_c, 9, 35, 0
6, 75810, Note_on_c, 9, 35, 25
6, 75830, Note_on_c, 9, 35, 0
6, 75865, Note_on_c, 9, 35, 36
6, 75901, Note_on_c, 9, 35, 0
6, 76757, Note_on_c, 9, 37, 12
6, 76768, Note_on_c, 9, 37, 0
6, 76842, Note_on_c, 9, 37, 22
6, 76855, Note_on_c, 9, 37, 0
6, 76933, Note_on_c, 9, 37, 37
6, 76957, Note_on_c, 9, 37, 0
6, 77014, Note_on_c, 9, 37, 40
6, 77034, Note_on_c, 9, 37, 0
6, 77099, Note_on_c, 9, 37, 27
6, 77123, Note_on_c, 9, 37, 0
6, 77180, Note_on_c, 9, 37, 31
6, 77211, Note_on_c, 9, 37, 0
6, 77269, Note_on_c, 9, 37, 29
6, 77292, Note_on_c, 9, 37, 0
6, 77354, Note_on_c, 9, 37, 26
6, 77371, Note_on_c, 9, 37, 0
6, 77474, Note_on_c, 9, 35, 51
6, 77496, Note_on_c, 9, 35, 0
6, 77604, Note_on_c, 9, 35, 52
6, 77621, Note_on_c, 9, 35, 0
6, 77712, Note_on_c, 9, 35, 35
6, 77726, Note_on_c, 9, 35, 0
6, 77760, Note_on_c, 9, 35, 46
6, 77787, Note_on_c, 9, 35, 0
6, 78319, Note_on_c, 9, 37, 28
6, 78338, Note_on_c, 9, 37, 0
6, 78364, Note_on_c, 9, 35, 30
6, 78434, Note_on_c, 9, 35, 0
6, 78917, Note_on_c, 9, 40, 29
6, 78938, Note_on_c, 9, 40, 0
6, 78964, Note_on_c, 9, 35, 20
6, 79006, Note_on_c, 9, 35, 0
6, 79155, Note_on_c, 9, 40, 37
6, 79172, Note_on_c, 9, 40, 0
6, 79208, Note_on_c, 9, 35, 24
6, 79230, Note_on_c, 9, 35, 0
6, 79404, Note_on_c, 9, 40, 40
6, 79417, Note_on_c, 9, 40, 0
6, 79457, Note_on_c, 9, 35, 37
6, 79478, Note_on_c, 9, 35, 0
6, 79899, Note_on_c, 9, 40, 38
6, 79912, Note_on_c, 9, 40, 0
6, 79948, Note_on_c, 9, 35, 21
6, 79975, Note_on_c, 9, 35, 0
6, 80488, Note_on_c, 9, 40, 23
6, 80502, Note_on_c, 9, 40, 0
6, 80593, Note_on_c, 9, 35, 44
6, 80612, Note_on_c, 9, 35, 0
6, 80640, Note_on_c, 9, 57, 43
6, 80640, Note_on_c, 9, 40, 33
6, 80649, Note_on_c, 9, 57, 0
6, 80653, Note_on_c, 9, 40, 0
6, 80955, Note_on_c, 9, 40, 37
6, 80970, Note_on_c, 9, 40, 0
6, 81012, Note_on_c, 9, 35, 21
6, 81038, Note_on_c, 9, 35, 0
6, 82148, Note_on_c, 9, 34, 35
6, 82177, Note_on_c, 9, 34, 0
6, 82207, Note_on_c, 9, 35, 19
6, 82232, Note_on_c, 9, 35, 0
6, 82327, Note_on_c, 9, 35, 20
6, 82348, Note_on_c, 9, 35, 0
6, 82913, Note_on_c, 9, 37, 23
6, 82929, Note_on_c, 9, 37, 0
6, 82993, Note_on_c, 9, 37, 34
6, 83008, Note_on_c, 9, 37, 0
6, 83075, Note_on_c, 9, 37, 39
6, 83099, Note_on_c, 9, 37, 0
6, 83169, Note_on_c, 9, 37, 31
6, 83196, Note_on_c, 9, 37, 0
6, 83246, Note_on_c, 9, 35, 33
6, 83266, Note_on_c, 9, 35, 0
6, 83352, Note_on_c, 9, 35, 49
6, 83383, Note_on_c, 9, 35, 0
6, 83474, Note_on_c, 9, 35, 43
6, 83485, Note_on_c, 9, 35, 0
6, 83527, Note_on_c, 9, 35, 48
6, 83541, Note_on_c, 9, 35, 0
6, 83837, Note_on_c, 9, 37, 34
6, 83850, Note_on_c, 9, 37, 0
6, 83886, Note_on_c, 9, 35, 27
6, 83903, Note_on_c, 9, 35, 0
6, 84194, Note_on_c, 9, 37, 37
6, 84205, Note_on_c, 9, 37, 0
6, 84236, Note_on_c, 9, 35, 41
6, 84252, Note_on_c, 9, 35, 0
6, 84436, Note_on_c, 9, 34, 43
6, 84466, Note_on_c, 9, 34, 0
6, 84488, Note_on_c, 9, 35, 35
6, 84525, Note_on_c, 9, 35, 0
6, 84674, Note_on_c, 9, 34, 41
6, 84707, Note_on_c, 9, 34, 0
6, 84728, Note_on_c, 9, 35, 39
6, 84767, Note_on_c, 9, 35, 0
6, 85078, Note_on_c, 9, 35, 21
6, 85092, Note_on_c, 9, 35, 0
6, 85150, Note_on_c, 9, 35, 40
6, 85165, Note_on_c, 9, 35, 0
6, 85630, Note_on_c, 9, 40, 36
6, 85649, Note_on_c, 9, 40, 0
6, 85683, Note_on_c, 9, 40, 33
6, 85726, Note_on_c, 9, 40, 0
6, 85870, Note_on_c, 9, 40, 42
6, 85883, Note_on_c, 9, 40, 0
6, 85917, Note_on_c, 9, 40, 42
6, 85955, Note_on_c, 9, 40, 0
6, 86350, Note_on_c, 9, 34, 74
6, 86360, Note_on_c, 9, 59, 56
6, 86371, Note_on_c, 9, 59, 0
6, 86385, Note_on_c, 9, 34, 0
6, 86403, Note_on_c, 9, 35, 53
6, 86406, Note_on_c, 9, 59, 54
6, 86450, Note_on_c, 9, 59, 0
6, 86461, Note_on_c, 9, 35, 0
6, 86528, Note_on_c, 9, 59, 76
6, 86681, Note_on_c, 9, 59, 0
6, 86734, Note_on_c, 9, 59, 35
6, 86748, Note_on_c, 9, 59, 0
6, 86778, Note_on_c, 9, 59, 66
6, 86932, Note_on_c, 9, 59, 0
6, 87052, Note_on_c, 9, 59, 90
6, 87203, Note_on_c, 9, 59, 0
6, 87263, Note_on_c, 9, 59, 49
6, 87277, Note_on_c, 9, 59, 0
6, 87320, Note_on_c, 9, 59, 91
6, 87474, Note_on_c, 9, 59, 0
6, 87548, Note_on_c, 9, 59, 66
6, 87574, Note_on_c, 9, 59, 0
6, 87609, Note_on_c, 9, 59, 77
6, 87694, Note_on_c, 9, 59, 0
6, 87705, Note_on_c, 9, 53, 63
6, 87808, Note_on_c, 9, 53, 0
6, 87833, Note_on_c, 9, 59, 65
6, 87962, Note_on_c, 9, 59, 0
6, 87977, Note_on_c, 9, 53, 49
6, 88092, Note_on_c, 9, 53, 0
6, 88146, Note_on_c, 9, 59, 56
6, 88457, Note_on_c, 9, 53, 37
6, 89139, Note_on_c, 9, 53, 0
6, 89154, Note_on_c, 9, 57, 92
6, 89169, Note_on_c, 9, 59, 0
6, 90673, Note_on_c, 9, 57, 0
6, 95222, Note_on_c, 9, 40, 24
6, 95252, Note_on_c, 9, 40, 0
6, 95335, Note_on_c, 9, 40, 22
6, 95362, Note_on_c, 9, 40, 0
6, 95407, Note_on_c, 9, 34, 27
6, 95476, Note_on_c, 9, 34, 0
6, 95560, Note_on_c, 9, 35, 55
6, 95571, Note_on_c, 9, 57, 38
6, 95596, Note_on_c, 9, 57, 0
6, 95609, Note_on_c, 9, 35, 0
6, 95609, End_track
7, 0, Start_track
7, 0, MIDI_port, 0
7, 0, End_track
0, 0, End_of_file
