0, 0, Header, 1, 3, 960
1, 0, Start_track
1, 0, Title_t, "Very Early"
1, 0, Text_t, "Bill Evans\012"
1, 0, Text_t, "A very beautiful waltz  by Bill Evans -  quite difficult as it passes through quite a few keys - B,C,Db,D,Eb. and for singers has some difficult intervals. It has words - sung by Tierney Sutton on her tribute to Bill Evans CD 'Blue in Green'.\012"
1, 0, Text_t, "Lead sheet is in original (illegal) fake book, and also in Sher Music's 'New Real Book' volume 1.\012"
1, 0, Time_signature, 4, 2, 24, 8
1, 0, Key_signature, 0, "major"
1, 0, Tempo, 480000
1, 0, Marker_t, "Lead sheet is in original (illegal) fake book, and also in Sher Music's 'New Real Book' volume 1."
1, 0, End_track
2, 0, Start_track
2, 0, End_track
3, 0, Start_track
3, 0, Title_t, "MIDI 1"
3, 0, Control_c, 0, 0, 0
3, 0, Control_c, 0, 7, 100
3, 0, Control_c, 0, 91, 0
3, 1, Control_c, 0, 32, 0
3, 2, Program_c, 0, 0
3, 1920, Control_c, 0, 64, 0
3, 2247, Control_c, 0, 64, 127
3, 2831, Note_on_c, 0, 67, 36
3, 2842, Note_on_c, 0, 62, 33
3, 2844, Note_on_c, 0, 79, 58
3, 2856, Control_c, 0, 64, 0
3, 2871, Note_on_c, 0, 64, 35
3, 3210, Control_c, 0, 64, 127
3, 4628, Note_on_c, 0, 76, 49
3, 4644, Note_on_c, 0, 67, 0
3, 4691, Note_on_c, 0, 64, 0
3, 4728, Note_on_c, 0, 62, 0
3, 5374, Note_on_c, 0, 79, 0
3, 5385, Note_on_c, 0, 34, 50
3, 5413, Note_on_c, 0, 72, 35
3, 5423, Note_on_c, 0, 76, 0
3, 5439, Control_c, 0, 64, 0
3, 5647, Control_c, 0, 64, 127
3, 5757, Note_on_c, 0, 34, 0
3, 7809, Note_on_c, 0, 82, 71
3, 7886, Note_on_c, 0, 72, 0
3, 8848, Note_on_c, 0, 63, 46
3, 9867, Note_on_c, 0, 65, 45
3, 10600, Note_on_c, 0, 65, 0
3, 10637, Note_on_c, 0, 67, 48
3, 11315, Note_on_c, 0, 67, 0
3, 11368, Note_on_c, 0, 74, 57
3, 11426, Note_on_c, 0, 63, 0
3, 11868, Note_on_c, 0, 82, 0
3, 12038, Note_on_c, 0, 39, 37
3, 12041, Note_on_c, 0, 79, 64
3, 12046, Control_c, 0, 64, 0
3, 12068, Note_on_c, 0, 74, 0
3, 12271, Control_c, 0, 64, 127
3, 12556, Note_on_c, 0, 46, 48
3, 12560, Note_on_c, 0, 39, 0
3, 13009, Note_on_c, 0, 46, 0
3, 13075, Note_on_c, 0, 55, 57
3, 13519, Note_on_c, 0, 79, 0
3, 13624, Note_on_c, 0, 58, 53
3, 13630, Note_on_c, 0, 55, 0
3, 14288, Note_on_c, 0, 67, 40
3, 14326, Note_on_c, 0, 62, 48
3, 14760, Note_on_c, 0, 67, 0
3, 15016, Note_on_c, 0, 70, 60
3, 15029, Note_on_c, 0, 67, 36
3, 15121, Note_on_c, 0, 67, 0
3, 15192, Note_on_c, 0, 62, 0
3, 15266, Note_on_c, 0, 58, 0
3, 15717, Note_on_c, 0, 70, 0
3, 15766, Note_on_c, 0, 71, 55
3, 15781, Note_on_c, 0, 44, 44
3, 15833, Control_c, 0, 64, 0
3, 16153, Control_c, 0, 64, 127
3, 16351, Note_on_c, 0, 54, 38
3, 16459, Note_on_c, 0, 71, 0
3, 16472, Note_on_c, 0, 44, 0
3, 16549, Note_on_c, 0, 54, 0
3, 17227, Note_on_c, 0, 77, 71
3, 17231, Note_on_c, 0, 65, 60
3, 17234, Note_on_c, 0, 60, 48
3, 17240, Note_on_c, 0, 54, 44
3, 17243, Note_on_c, 0, 81, 62
3, 17249, Note_on_c, 0, 72, 50
3, 17620, Note_on_c, 0, 60, 0
3, 17629, Note_on_c, 0, 65, 0
3, 17659, Note_on_c, 0, 77, 0
3, 17660, Note_on_c, 0, 54, 0
3, 17691, Note_on_c, 0, 72, 0
3, 17707, Note_on_c, 0, 81, 0
3, 18090, Note_on_c, 0, 55, 45
3, 18096, Note_on_c, 0, 73, 49
3, 18097, Note_on_c, 0, 82, 50
3, 18109, Note_on_c, 0, 78, 43
3, 18115, Note_on_c, 0, 61, 30
3, 18117, Note_on_c, 0, 66, 32
3, 18142, Control_c, 0, 64, 0
3, 18383, Control_c, 0, 64, 127
3, 18459, Note_on_c, 0, 55, 0
3, 18557, Note_on_c, 0, 66, 0
3, 18613, Note_on_c, 0, 82, 0
3, 18627, Note_on_c, 0, 78, 0
3, 18664, Note_on_c, 0, 73, 0
3, 18699, Note_on_c, 0, 61, 0
3, 19211, Note_on_c, 0, 72, 26
3, 19213, Note_on_c, 0, 65, 36
3, 19216, Note_on_c, 0, 81, 42
3, 19217, Note_on_c, 0, 77, 37
3, 19219, Note_on_c, 0, 54, 38
3, 19235, Control_c, 0, 64, 0
3, 19239, Note_on_c, 0, 60, 36
3, 20021, Control_c, 0, 64, 127
3, 20524, Note_on_c, 0, 81, 0
3, 20716, Note_on_c, 0, 65, 0
3, 20849, Note_on_c, 0, 60, 0
3, 20892, Note_on_c, 0, 54, 0
3, 20905, Note_on_c, 0, 81, 60
3, 21329, Note_on_c, 0, 81, 0
3, 21574, Note_on_c, 0, 77, 0
3, 21637, Note_on_c, 0, 72, 0
3, 21640, Note_on_c, 0, 80, 69
3, 21658, Control_c, 0, 64, 0
3, 21678, Note_on_c, 0, 37, 55
3, 21979, Control_c, 0, 64, 127
3, 22058, Note_on_c, 0, 37, 0
3, 22147, Note_on_c, 0, 44, 51
3, 22782, Note_on_c, 0, 52, 62
3, 22863, Note_on_c, 0, 44, 0
3, 23356, Control_c, 0, 64, 0
3, 23375, Note_on_c, 0, 52, 0
3, 23386, Note_on_c, 0, 53, 74
3, 23413, Note_on_c, 0, 80, 0
3, 23564, Control_c, 0, 64, 127
3, 24034, Note_on_c, 0, 56, 81
3, 24111, Note_on_c, 0, 53, 0
3, 24816, Note_on_c, 0, 60, 79
3, 25514, Note_on_c, 0, 56, 0
3, 25563, Note_on_c, 0, 63, 64
3, 26298, Note_on_c, 0, 68, 55
3, 26990, Note_on_c, 0, 68, 0
3, 27058, Control_c, 0, 64, 0
3, 27061, Note_on_c, 0, 69, 64
3, 27108, Note_on_c, 0, 53, 35
3, 27121, Note_on_c, 0, 63, 0
3, 27511, Control_c, 0, 64, 127
3, 27714, Note_on_c, 0, 60, 0
3, 27769, Note_on_c, 0, 50, 38
3, 27838, Note_on_c, 0, 53, 0
3, 27876, Note_on_c, 0, 69, 0
3, 28373, Note_on_c, 0, 50, 0
3, 28492, Note_on_c, 0, 43, 38
3, 28514, Note_on_c, 0, 79, 63
3, 28556, Note_on_c, 0, 43, 0
3, 29379, Note_on_c, 0, 65, 44
3, 30113, Note_on_c, 0, 65, 0
3, 30264, Note_on_c, 0, 59, 30
3, 30999, Note_on_c, 0, 79, 0
3, 31228, Note_on_c, 0, 67, 32
3, 31443, Note_on_c, 0, 59, 0
3, 31933, Note_on_c, 0, 77, 69
3, 32522, Note_on_c, 0, 77, 0
3, 32522, Note_on_c, 0, 76, 67
3, 32528, Note_on_c, 0, 67, 0
3, 32560, Note_on_c, 0, 48, 46
3, 32579, Control_c, 0, 64, 0
3, 33104, Note_on_c, 0, 55, 41
3, 33123, Control_c, 0, 64, 127
3, 33776, Note_on_c, 0, 76, 0
3, 33822, Note_on_c, 0, 60, 54
3, 34369, Note_on_c, 0, 60, 0
3, 34534, Note_on_c, 0, 60, 40
3, 34885, Note_on_c, 0, 60, 0
3, 34888, Note_on_c, 0, 62, 76
3, 35164, Note_on_c, 0, 62, 0
3, 35240, Note_on_c, 0, 48, 0
3, 35247, Note_on_c, 0, 64, 81
3, 35279, Note_on_c, 0, 62, 34
3, 35334, Note_on_c, 0, 62, 0
3, 35420, Note_on_c, 0, 55, 0
3, 35525, Note_on_c, 0, 64, 0
3, 35589, Note_on_c, 0, 65, 77
3, 35882, Note_on_c, 0, 65, 0
3, 35941, Note_on_c, 0, 67, 79
3, 36273, Note_on_c, 0, 68, 77
3, 36348, Note_on_c, 0, 67, 0
3, 36555, Control_c, 0, 64, 0
3, 36594, Note_on_c, 0, 34, 60
3, 36606, Note_on_c, 0, 70, 73
3, 36717, Note_on_c, 0, 68, 0
3, 36812, Control_c, 0, 64, 127
3, 36847, Note_on_c, 0, 70, 0
3, 36923, Note_on_c, 0, 72, 57
3, 36928, Note_on_c, 0, 34, 0
3, 37161, Note_on_c, 0, 72, 0
3, 37201, Note_on_c, 0, 74, 66
3, 37378, Note_on_c, 0, 74, 0
3, 37380, Note_on_c, 0, 76, 61
3, 37502, Note_on_c, 0, 76, 0
3, 37554, Note_on_c, 0, 77, 62
3, 37750, Note_on_c, 0, 79, 62
3, 37797, Note_on_c, 0, 77, 0
3, 37901, Note_on_c, 0, 80, 62
3, 37949, Note_on_c, 0, 79, 0
3, 38065, Note_on_c, 0, 82, 54
3, 38090, Note_on_c, 0, 80, 0
3, 38119, Note_on_c, 0, 82, 0
3, 38217, Note_on_c, 0, 84, 60
3, 38412, Note_on_c, 0, 84, 0
3, 38418, Note_on_c, 0, 86, 59
3, 38580, Note_on_c, 0, 86, 0
3, 38618, Note_on_c, 0, 88, 58
3, 38681, Note_on_c, 0, 88, 0
3, 38764, Note_on_c, 0, 62, 20
3, 38780, Note_on_c, 0, 67, 33
3, 38816, Note_on_c, 0, 56, 27
3, 38833, Note_on_c, 0, 89, 60
3, 39120, Note_on_c, 0, 91, 59
3, 39125, Note_on_c, 0, 89, 0
3, 39372, Note_on_c, 0, 91, 0
3, 39384, Note_on_c, 0, 92, 56
3, 39582, Note_on_c, 0, 94, 51
3, 39652, Note_on_c, 0, 92, 0
3, 39733, Note_on_c, 0, 94, 0
3, 39854, Note_on_c, 0, 96, 62
3, 40006, Note_on_c, 0, 67, 0
3, 40100, Note_on_c, 0, 96, 0
3, 40107, Note_on_c, 0, 98, 55
3, 40362, Note_on_c, 0, 98, 0
3, 40556, Note_on_c, 0, 100, 42
3, 40611, Note_on_c, 0, 98, 22
3, 40675, Note_on_c, 0, 98, 0
3, 40760, Note_on_c, 0, 100, 0
3, 40930, Note_on_c, 0, 101, 36
3, 41082, Note_on_c, 0, 62, 0
3, 41144, Note_on_c, 0, 56, 0
3, 41262, Note_on_c, 0, 101, 0
3, 41355, Note_on_c, 0, 103, 44
3, 41729, Note_on_c, 0, 103, 0
3, 41783, Note_on_c, 0, 104, 56
3, 42293, Note_on_c, 0, 104, 0
3, 42506, Note_on_c, 0, 105, 61
3, 42527, Note_on_c, 0, 38, 41
3, 42540, Control_c, 0, 64, 0
3, 42812, Control_c, 0, 64, 127
3, 42947, Note_on_c, 0, 38, 0
3, 43340, Note_on_c, 0, 105, 0
3, 43618, Note_on_c, 0, 54, 28
3, 44495, Note_on_c, 0, 81, 59
3, 44530, Note_on_c, 0, 61, 28
3, 44534, Note_on_c, 0, 73, 33
3, 45384, Note_on_c, 0, 73, 0
3, 45583, Note_on_c, 0, 64, 30
3, 45877, Note_on_c, 0, 81, 0
3, 46048, Note_on_c, 0, 61, 0
3, 46592, Note_on_c, 0, 69, 44
3, 47068, Note_on_c, 0, 54, 0
3, 47099, Note_on_c, 0, 64, 0
3, 47252, Note_on_c, 0, 69, 0
3, 47338, Note_on_c, 0, 74, 74
3, 47852, Note_on_c, 0, 74, 0
3, 48051, Control_c, 0, 64, 0
3, 48054, Note_on_c, 0, 72, 51
3, 48085, Note_on_c, 0, 45, 55
3, 48377, Control_c, 0, 64, 127
3, 48679, Note_on_c, 0, 72, 0
3, 48680, Note_on_c, 0, 45, 0
3, 48725, Note_on_c, 0, 55, 58
3, 48787, Note_on_c, 0, 55, 0
3, 49443, Note_on_c, 0, 84, 91
3, 49470, Note_on_c, 0, 60, 60
3, 49529, Control_c, 0, 64, 0
3, 49625, Control_c, 0, 64, 127
3, 50158, Note_on_c, 0, 60, 0
3, 50223, Note_on_c, 0, 59, 28
3, 51049, Note_on_c, 0, 84, 0
3, 51072, Note_on_c, 0, 76, 38
3, 51092, Note_on_c, 0, 72, 33
3, 51693, Note_on_c, 0, 76, 0
3, 51788, Note_on_c, 0, 72, 0
3, 51941, Note_on_c, 0, 59, 0
3, 51963, Note_on_c, 0, 57, 46
3, 52073, Note_on_c, 0, 57, 0
3, 53438, Note_on_c, 0, 42, 45
3, 53570, Note_on_c, 0, 49, 37
3, 53637, Note_on_c, 0, 57, 44
3, 53712, Note_on_c, 0, 64, 63
3, 53716, Note_on_c, 0, 56, 28
3, 53859, Control_c, 0, 64, 0
3, 53871, Note_on_c, 0, 71, 61
3, 54615, Control_c, 0, 64, 127
3, 55193, Note_on_c, 0, 57, 0
3, 55436, Note_on_c, 0, 64, 0
3, 55658, Note_on_c, 0, 56, 0
3, 56407, Note_on_c, 0, 71, 0
3, 57753, Note_on_c, 0, 42, 0
3, 57887, Note_on_c, 0, 49, 0
3, 57892, Note_on_c, 0, 59, 63
3, 58783, Control_c, 0, 64, 0
3, 58791, Note_on_c, 0, 59, 0
3, 58804, Note_on_c, 0, 60, 62
3, 58829, Note_on_c, 0, 47, 49
3, 59311, Control_c, 0, 64, 127
3, 59461, Note_on_c, 0, 60, 0
3, 59881, Note_on_c, 0, 57, 47
3, 60020, Note_on_c, 0, 47, 0
3, 60161, Note_on_c, 0, 57, 0
3, 61038, Note_on_c, 0, 92, 56
3, 61061, Note_on_c, 0, 80, 38
3, 61067, Note_on_c, 0, 63, 49
3, 61068, Note_on_c, 0, 57, 62
3, 61075, Note_on_c, 0, 68, 43
3, 61082, Note_on_c, 0, 87, 47
3, 61801, Note_on_c, 0, 87, 0
3, 61801, Note_on_c, 0, 80, 0
3, 61801, Note_on_c, 0, 63, 0
3, 61801, Note_on_c, 0, 92, 0
3, 61801, Note_on_c, 0, 68, 0
3, 61801, Note_on_c, 0, 57, 0
3, 65813, Control_c, 0, 64, 127
3, 66182, Control_c, 0, 64, 0
3, 66648, Note_on_c, 0, 40, 55
3, 66864, Note_on_c, 0, 47, 61
3, 66910, Note_on_c, 0, 69, 62
3, 66919, Note_on_c, 0, 62, 71
3, 66942, Note_on_c, 0, 57, 56
3, 66947, Note_on_c, 0, 55, 65
3, 67094, Note_on_c, 0, 54, 52
3, 67118, Control_c, 0, 64, 127
3, 67892, Note_on_c, 0, 47, 0
3, 68035, Note_on_c, 0, 47, 46
3, 68046, Note_on_c, 0, 54, 0
3, 68068, Note_on_c, 0, 55, 0
3, 68084, Note_on_c, 0, 57, 0
3, 68274, Note_on_c, 0, 62, 0
3, 68893, Note_on_c, 0, 62, 46
3, 68940, Note_on_c, 0, 54, 31
3, 68941, Note_on_c, 0, 57, 37
3, 68944, Note_on_c, 0, 55, 49
3, 69347, Note_on_c, 0, 55, 0
3, 69402, Note_on_c, 0, 57, 0
3, 69892, Note_on_c, 0, 62, 0
3, 69946, Note_on_c, 0, 69, 0
3, 70416, Note_on_c, 0, 54, 0
3, 70541, Note_on_c, 0, 57, 87
3, 71047, Note_on_c, 0, 40, 0
3, 71335, Note_on_c, 0, 47, 0
3, 71453, Note_on_c, 0, 57, 0
3, 71469, Note_on_c, 0, 58, 56
3, 71676, Note_on_c, 0, 57, 56
3, 71790, Note_on_c, 0, 58, 0
3, 71935, Note_on_c, 0, 57, 0
3, 71978, Note_on_c, 0, 56, 56
3, 72504, Note_on_c, 0, 56, 0
3, 72539, Note_on_c, 0, 57, 58
3, 72983, Note_on_c, 0, 57, 0
3, 73030, Control_c, 0, 64, 0
3, 73111, Note_on_c, 0, 58, 50
3, 73112, Note_on_c, 0, 32, 53
3, 73383, Control_c, 0, 64, 127
3, 73589, Note_on_c, 0, 58, 0
3, 73768, Note_on_c, 0, 44, 40
3, 73783, Note_on_c, 0, 32, 0
3, 73873, Note_on_c, 0, 44, 0
3, 74512, Note_on_c, 0, 82, 49
3, 74530, Note_on_c, 0, 72, 34
3, 74546, Note_on_c, 0, 54, 25
3, 74557, Note_on_c, 0, 77, 51
3, 74560, Note_on_c, 0, 65, 35
3, 74586, Note_on_c, 0, 60, 36
3, 75087, Note_on_c, 0, 60, 0
3, 75613, Note_on_c, 0, 65, 0
3, 75628, Note_on_c, 0, 60, 31
3, 75677, Note_on_c, 0, 72, 0
3, 75776, Note_on_c, 0, 82, 0
3, 76403, Note_on_c, 0, 77, 0
3, 76494, Note_on_c, 0, 65, 31
3, 76622, Note_on_c, 0, 72, 24
3, 77084, Note_on_c, 0, 65, 0
3, 77272, Note_on_c, 0, 54, 0
3, 77294, Note_on_c, 0, 60, 0
3, 77386, Note_on_c, 0, 80, 56
3, 77634, Note_on_c, 0, 80, 0
3, 77927, Note_on_c, 0, 72, 0
3, 78242, Control_c, 0, 64, 0
3, 78261, Note_on_c, 0, 77, 48
3, 78296, Note_on_c, 0, 49, 34
3, 78420, Note_on_c, 0, 77, 0
3, 78479, Control_c, 0, 64, 127
3, 78974, Note_on_c, 0, 56, 30
3, 78986, Note_on_c, 0, 101, 76
3, 79081, Note_on_c, 0, 49, 0
3, 79137, Note_on_c, 0, 56, 0
3, 79399, Note_on_c, 0, 101, 0
3, 79475, Note_on_c, 0, 99, 84
3, 79826, Note_on_c, 0, 99, 0
3, 79877, Note_on_c, 0, 97, 83
3, 80217, Note_on_c, 0, 96, 76
3, 80218, Note_on_c, 0, 97, 0
3, 80276, Note_on_c, 0, 63, 37
3, 80315, Note_on_c, 0, 60, 32
3, 80363, Note_on_c, 0, 96, 0
3, 80585, Note_on_c, 0, 94, 71
3, 80912, Note_on_c, 0, 92, 62
3, 80954, Note_on_c, 0, 63, 0
3, 80969, Note_on_c, 0, 94, 0
3, 81163, Note_on_c, 0, 92, 0
3, 81220, Note_on_c, 0, 89, 50
3, 81400, Note_on_c, 0, 89, 0
3, 81532, Note_on_c, 0, 87, 68
3, 81784, Note_on_c, 0, 85, 59
3, 81833, Note_on_c, 0, 87, 0
3, 82017, Note_on_c, 0, 85, 0
3, 82056, Note_on_c, 0, 84, 61
3, 82094, Note_on_c, 0, 56, 34
3, 82147, Note_on_c, 0, 63, 17
3, 82182, Note_on_c, 0, 84, 0
3, 82328, Note_on_c, 0, 82, 51
3, 82540, Note_on_c, 0, 82, 0
3, 82555, Note_on_c, 0, 80, 52
3, 82734, Note_on_c, 0, 80, 0
3, 82741, Note_on_c, 0, 63, 0
3, 82810, Note_on_c, 0, 77, 40
3, 82940, Note_on_c, 0, 77, 0
3, 83047, Note_on_c, 0, 75, 60
3, 83204, Note_on_c, 0, 60, 0
3, 83228, Note_on_c, 0, 75, 0
3, 83318, Note_on_c, 0, 72, 38
3, 83326, Note_on_c, 0, 56, 0
3, 83445, Note_on_c, 0, 72, 0
3, 83589, Note_on_c, 0, 70, 55
3, 83761, Note_on_c, 0, 70, 0
3, 83810, Note_on_c, 0, 68, 47
3, 83973, Note_on_c, 0, 68, 0
3, 84069, Note_on_c, 0, 65, 44
3, 84158, Note_on_c, 0, 65, 0
3, 84363, Note_on_c, 0, 63, 46
3, 84551, Note_on_c, 0, 63, 0
3, 84634, Note_on_c, 0, 60, 35
3, 85004, Note_on_c, 0, 58, 58
3, 85016, Note_on_c, 0, 60, 0
3, 85397, Note_on_c, 0, 56, 36
3, 85596, Note_on_c, 0, 58, 0
3, 85759, Note_on_c, 0, 53, 47
3, 86109, Note_on_c, 0, 56, 0
3, 86257, Note_on_c, 0, 53, 0
3, 86343, Control_c, 0, 64, 0
3, 86370, Note_on_c, 0, 55, 52
3, 86375, Note_on_c, 0, 31, 35
3, 86385, Note_on_c, 0, 43, 28
3, 86697, Control_c, 0, 64, 127
3, 86924, Note_on_c, 0, 31, 0
3, 86968, Note_on_c, 0, 55, 0
3, 87059, Note_on_c, 0, 43, 0
3, 88244, Note_on_c, 0, 72, 55
3, 88247, Note_on_c, 0, 67, 65
3, 88255, Note_on_c, 0, 62, 70
3, 88281, Control_c, 0, 64, 0
3, 88282, Note_on_c, 0, 57, 55
3, 88587, Control_c, 0, 64, 127
3, 88798, Note_on_c, 0, 62, 0
3, 88867, Note_on_c, 0, 67, 0
3, 88928, Note_on_c, 0, 72, 0
3, 89196, Note_on_c, 0, 74, 59
3, 89204, Note_on_c, 0, 64, 52
3, 89219, Note_on_c, 0, 69, 66
3, 89228, Control_c, 0, 64, 0
3, 89237, Note_on_c, 0, 57, 0
3, 89240, Note_on_c, 0, 59, 48
3, 89534, Control_c, 0, 64, 127
3, 89659, Note_on_c, 0, 64, 0
3, 89735, Note_on_c, 0, 74, 0
3, 89800, Note_on_c, 0, 69, 0
3, 89978, Control_c, 0, 64, 0
3, 90078, Note_on_c, 0, 69, 64
3, 90083, Note_on_c, 0, 76, 63
3, 90085, Note_on_c, 0, 65, 51
3, 90126, Note_on_c, 0, 59, 0
3, 90143, Note_on_c, 0, 60, 40
3, 90286, Control_c, 0, 64, 127
3, 90417, Note_on_c, 0, 65, 0
3, 90451, Note_on_c, 0, 69, 0
3, 90506, Note_on_c, 0, 76, 0
3, 90875, Note_on_c, 0, 60, 0
3, 90892, Note_on_c, 0, 62, 54
3, 90916, Note_on_c, 0, 77, 60
3, 90924, Note_on_c, 0, 72, 44
3, 90931, Note_on_c, 0, 67, 47
3, 90958, Note_on_c, 0, 62, 0
3, 91107, Note_on_c, 0, 67, 0
3, 91251, Note_on_c, 0, 72, 0
3, 91299, Note_on_c, 0, 77, 0
3, 91728, Control_c, 0, 64, 0
3, 91760, Note_on_c, 0, 79, 56
3, 91774, Note_on_c, 0, 71, 47
3, 91777, Note_on_c, 0, 36, 46
3, 92184, Control_c, 0, 64, 127
3, 92219, Note_on_c, 0, 79, 0
3, 92316, Note_on_c, 0, 71, 0
3, 92419, Note_on_c, 0, 43, 48
3, 92543, Note_on_c, 0, 36, 0
3, 92907, Note_on_c, 0, 43, 0
3, 92977, Note_on_c, 0, 52, 44
3, 92980, Note_on_c, 0, 59, 58
3, 93057, Note_on_c, 0, 52, 0
3, 93411, Note_on_c, 0, 59, 0
3, 93507, Note_on_c, 0, 60, 67
3, 93550, Note_on_c, 0, 55, 66
3, 94058, Note_on_c, 0, 60, 0
3, 94150, Note_on_c, 0, 64, 74
3, 94181, Note_on_c, 0, 59, 54
3, 94298, Note_on_c, 0, 64, 0
3, 94749, Note_on_c, 0, 59, 0
3, 94780, Note_on_c, 0, 55, 0
3, 94798, Note_on_c, 0, 76, 87
3, 95337, Control_c, 0, 64, 0
3, 95368, Control_c, 0, 64, 127
3, 95458, Note_on_c, 0, 34, 60
3, 95470, Note_on_c, 0, 72, 62
3, 95512, Note_on_c, 0, 76, 0
3, 95651, Note_on_c, 0, 34, 0
3, 96515, Note_on_c, 0, 72, 0
3, 96868, Note_on_c, 0, 82, 61
3, 96907, Note_on_c, 0, 56, 35
3, 97569, Note_on_c, 0, 62, 38
3, 98386, Note_on_c, 0, 70, 31
3, 98430, Note_on_c, 0, 65, 24
3, 99454, Note_on_c, 0, 56, 0
3, 99637, Note_on_c, 0, 65, 0
3, 99653, Note_on_c, 0, 62, 0
3, 99693, Note_on_c, 0, 80, 54
3, 99694, Note_on_c, 0, 82, 0
3, 100111, Note_on_c, 0, 80, 0
3, 100425, Note_on_c, 0, 70, 0
3, 100497, Note_on_c, 0, 39, 32
3, 100540, Note_on_c, 0, 79, 48
3, 100549, Control_c, 0, 64, 0
3, 100885, Control_c, 0, 64, 127
3, 100949, Note_on_c, 0, 39, 0
3, 100992, Note_on_c, 0, 46, 32
3, 101398, Note_on_c, 0, 46, 0
3, 101491, Note_on_c, 0, 55, 57
3, 101961, Note_on_c, 0, 55, 0
3, 101975, Note_on_c, 0, 58, 67
3, 101989, Note_on_c, 0, 79, 0
3, 102535, Note_on_c, 0, 70, 84
3, 102621, Note_on_c, 0, 62, 36
3, 103043, Note_on_c, 0, 70, 0
3, 103060, Note_on_c, 0, 72, 36
3, 103170, Note_on_c, 0, 70, 46
3, 103238, Note_on_c, 0, 62, 0
3, 103244, Note_on_c, 0, 72, 0
3, 103336, Note_on_c, 0, 58, 0
3, 103393, Note_on_c, 0, 69, 62
3, 103481, Note_on_c, 0, 70, 0
3, 103674, Note_on_c, 0, 70, 80
3, 103721, Note_on_c, 0, 69, 0
3, 103940, Note_on_c, 0, 70, 0
3, 103950, Control_c, 0, 64, 0
3, 103974, Note_on_c, 0, 71, 74
3, 103983, Note_on_c, 0, 44, 62
3, 104319, Control_c, 0, 64, 127
3, 104443, Note_on_c, 0, 54, 46
3, 104476, Note_on_c, 0, 44, 0
3, 104536, Note_on_c, 0, 54, 0
3, 104888, Note_on_c, 0, 71, 0
3, 104991, Note_on_c, 0, 81, 77
3, 105049, Note_on_c, 0, 60, 60
3, 105746, Note_on_c, 0, 65, 55
3, 106601, Note_on_c, 0, 69, 50
3, 107334, Note_on_c, 0, 54, 47
3, 107420, Note_on_c, 0, 81, 0
3, 107517, Note_on_c, 0, 65, 0
3, 107539, Note_on_c, 0, 69, 0
3, 107579, Note_on_c, 0, 60, 0
3, 107709, Note_on_c, 0, 54, 0
3, 108530, Note_on_c, 0, 44, 55
3, 108539, Note_on_c, 0, 37, 50
3, 108552, Control_c, 0, 64, 0
3, 108558, Note_on_c, 0, 80, 65
3, 108580, Note_on_c, 0, 68, 69
3, 108582, Note_on_c, 0, 73, 53
3, 108584, Note_on_c, 0, 77, 63
3, 108830, Control_c, 0, 64, 127
3, 108887, Note_on_c, 0, 37, 0
3, 108939, Note_on_c, 0, 44, 0
3, 109419, Note_on_c, 0, 53, 58
3, 109525, Note_on_c, 0, 77, 0
3, 109560, Note_on_c, 0, 73, 0
3, 109571, Note_on_c, 0, 80, 0
3, 109625, Note_on_c, 0, 68, 0
3, 110254, Note_on_c, 0, 68, 67
3, 110273, Note_on_c, 0, 65, 64
3, 110280, Note_on_c, 0, 63, 48
3, 111062, Note_on_c, 0, 60, 73
3, 111089, Note_on_c, 0, 63, 0
3, 111146, Note_on_c, 0, 53, 0
3, 111434, Note_on_c, 0, 65, 0
3, 111589, Note_on_c, 0, 68, 0
3, 111876, Note_on_c, 0, 68, 91
3, 112578, Note_on_c, 0, 68, 0
3, 112679, Note_on_c, 0, 53, 50
3, 112697, Note_on_c, 0, 68, 65
3, 112715, Note_on_c, 0, 60, 0
3, 112849, Note_on_c, 0, 53, 0
3, 113445, Note_on_c, 0, 68, 0
3, 113563, Note_on_c, 0, 69, 80
3, 113564, Note_on_c, 0, 43, 60
3, 113568, Note_on_c, 0, 65, 66
3, 113639, Control_c, 0, 64, 0
3, 114405, Control_c, 0, 64, 127
3, 114455, Note_on_c, 0, 31, 74
3, 114491, Note_on_c, 0, 65, 0
3, 114559, Note_on_c, 0, 43, 0
3, 114585, Note_on_c, 0, 31, 0
3, 114587, Note_on_c, 0, 69, 0
3, 115487, Note_on_c, 0, 77, 76
3, 115490, Note_on_c, 0, 72, 76
3, 115492, Note_on_c, 0, 69, 95
3, 115493, Note_on_c, 0, 79, 79
3, 115512, Note_on_c, 0, 67, 81
3, 116446, Control_c, 0, 64, 0
3, 116509, Note_on_c, 0, 55, 66
3, 116623, Control_c, 0, 64, 127
3, 116827, Note_on_c, 0, 72, 0
3, 116850, Note_on_c, 0, 69, 0
3, 117037, Note_on_c, 0, 79, 0
3, 117048, Note_on_c, 0, 67, 0
3, 117633, Note_on_c, 0, 71, 55
3, 117634, Note_on_c, 0, 75, 51
3, 117638, Note_on_c, 0, 68, 37
3, 117656, Note_on_c, 0, 65, 42
3, 117696, Control_c, 0, 64, 0
3, 118193, Control_c, 0, 64, 127
3, 118461, Note_on_c, 0, 55, 0
3, 118751, Note_on_c, 0, 55, 49
3, 118894, Note_on_c, 0, 71, 0
3, 118904, Note_on_c, 0, 68, 0
3, 119195, Note_on_c, 0, 65, 0
3, 119267, Note_on_c, 0, 75, 0
3, 119429, Note_on_c, 0, 77, 0
3, 119808, Note_on_c, 0, 79, 44
3, 119827, Note_on_c, 0, 71, 42
3, 119829, Note_on_c, 0, 74, 35
3, 119832, Note_on_c, 0, 69, 45
3, 119870, Note_on_c, 0, 64, 34
3, 119874, Control_c, 0, 64, 0
3, 120422, Control_c, 0, 64, 127
3, 120501, Note_on_c, 0, 55, 0
3, 120857, Note_on_c, 0, 55, 38
3, 120929, Note_on_c, 0, 69, 0
3, 120948, Note_on_c, 0, 79, 0
3, 121097, Note_on_c, 0, 64, 0
3, 121364, Note_on_c, 0, 71, 0
3, 121392, Note_on_c, 0, 74, 0
3, 121580, Note_on_c, 0, 71, 47
3, 121587, Note_on_c, 0, 76, 55
3, 121604, Note_on_c, 0, 64, 33
3, 121610, Note_on_c, 0, 67, 36
3, 121792, Note_on_c, 0, 55, 0
3, 122150, Note_on_c, 0, 76, 0
3, 122197, Note_on_c, 0, 71, 0
3, 122242, Note_on_c, 0, 64, 0
3, 122255, Note_on_c, 0, 67, 0
3, 122309, Note_on_c, 0, 55, 55
3, 122556, Note_on_c, 0, 55, 0
3, 123020, Note_on_c, 0, 62, 59
3, 123024, Note_on_c, 0, 67, 58
3, 123038, Note_on_c, 0, 57, 52
3, 123744, Control_c, 0, 64, 0
3, 123767, Note_on_c, 0, 35, 60
3, 123855, Note_on_c, 0, 62, 0
3, 123889, Note_on_c, 0, 57, 0
3, 123902, Control_c, 0, 64, 127
3, 123967, Note_on_c, 0, 35, 0
3, 124156, Note_on_c, 0, 67, 0
3, 124528, Control_c, 0, 64, 0
3, 124617, Note_on_c, 0, 64, 60
3, 124629, Note_on_c, 0, 34, 56
3, 124636, Note_on_c, 0, 60, 60
3, 124650, Note_on_c, 0, 46, 36
3, 124653, Note_on_c, 0, 55, 52
3, 124781, Note_on_c, 0, 55, 0
3, 124802, Control_c, 0, 64, 127
3, 124831, Note_on_c, 0, 34, 0
3, 124889, Note_on_c, 0, 46, 0
3, 124891, Note_on_c, 0, 60, 0
3, 124944, Note_on_c, 0, 64, 0
3, 125526, Note_on_c, 0, 76, 70
3, 125534, Note_on_c, 0, 72, 60
3, 125538, Note_on_c, 0, 67, 74
3, 125565, Note_on_c, 0, 56, 71
3, 125578, Note_on_c, 0, 62, 62
3, 125995, Note_on_c, 0, 67, 0
3, 126042, Note_on_c, 0, 72, 0
3, 126043, Note_on_c, 0, 56, 0
3, 126060, Note_on_c, 0, 62, 0
3, 126111, Note_on_c, 0, 76, 0
3, 126409, Note_on_c, 0, 76, 73
3, 126421, Note_on_c, 0, 56, 70
3, 126424, Note_on_c, 0, 72, 64
3, 126429, Note_on_c, 0, 67, 71
3, 126436, Note_on_c, 0, 62, 78
3, 126870, Note_on_c, 0, 67, 0
3, 126897, Note_on_c, 0, 56, 0
3, 126913, Note_on_c, 0, 72, 0
3, 126927, Note_on_c, 0, 62, 0
3, 126986, Note_on_c, 0, 76, 0
3, 127267, Note_on_c, 0, 76, 66
3, 127287, Note_on_c, 0, 72, 50
3, 127290, Note_on_c, 0, 67, 57
3, 127304, Note_on_c, 0, 56, 57
3, 127306, Note_on_c, 0, 62, 70
3, 127319, Control_c, 0, 64, 0
3, 127753, Control_c, 0, 64, 127
3, 127903, Note_on_c, 0, 67, 0
3, 127927, Note_on_c, 0, 72, 0
3, 127976, Note_on_c, 0, 62, 0
3, 127979, Note_on_c, 0, 56, 0
3, 127991, Note_on_c, 0, 76, 0
3, 128221, Note_on_c, 0, 76, 53
3, 128233, Note_on_c, 0, 67, 49
3, 128244, Note_on_c, 0, 62, 57
3, 128244, Note_on_c, 0, 72, 40
3, 128249, Note_on_c, 0, 56, 38
3, 128721, Note_on_c, 0, 67, 0
3, 128735, Note_on_c, 0, 62, 0
3, 128737, Note_on_c, 0, 56, 0
3, 128750, Note_on_c, 0, 72, 0
3, 128801, Note_on_c, 0, 76, 0
3, 129261, Note_on_c, 0, 76, 47
3, 129283, Note_on_c, 0, 62, 51
3, 129288, Note_on_c, 0, 67, 36
3, 129290, Note_on_c, 0, 56, 36
3, 129307, Note_on_c, 0, 72, 27
3, 129444, Note_on_c, 0, 62, 0
3, 129508, Note_on_c, 0, 56, 0
3, 129595, Note_on_c, 0, 67, 0
3, 129627, Note_on_c, 0, 72, 0
3, 129707, Note_on_c, 0, 76, 0
3, 131390, Control_c, 0, 64, 0
3, 131397, Note_on_c, 0, 73, 31
3, 131401, Note_on_c, 0, 78, 42
3, 131404, Note_on_c, 0, 81, 48
3, 131408, Note_on_c, 0, 69, 38
3, 131425, Note_on_c, 0, 38, 38
3, 131431, Note_on_c, 0, 26, 43
3, 131825, Control_c, 0, 64, 127
3, 131917, Note_on_c, 0, 26, 0
3, 131928, Note_on_c, 0, 69, 0
3, 132012, Note_on_c, 0, 38, 0
3, 132017, Note_on_c, 0, 73, 0
3, 132116, Note_on_c, 0, 78, 0
3, 132157, Note_on_c, 0, 81, 0
3, 133182, Note_on_c, 0, 93, 69
3, 133197, Note_on_c, 0, 61, 36
3, 133200, Note_on_c, 0, 90, 55
3, 133204, Note_on_c, 0, 85, 65
3, 133209, Note_on_c, 0, 54, 36
3, 133234, Note_on_c, 0, 64, 42
3, 133241, Note_on_c, 0, 81, 47
3, 133244, Note_on_c, 0, 59, 34
3, 133710, Note_on_c, 0, 59, 0
3, 133805, Note_on_c, 0, 64, 0
3, 133993, Note_on_c, 0, 61, 0
3, 134060, Note_on_c, 0, 85, 0
3, 134102, Note_on_c, 0, 81, 0
3, 134541, Note_on_c, 0, 93, 0
3, 134702, Note_on_c, 0, 90, 0
3, 134761, Note_on_c, 0, 85, 35
3, 134775, Note_on_c, 0, 61, 27
3, 134807, Note_on_c, 0, 64, 40
3, 134825, Note_on_c, 0, 59, 19
3, 134864, Note_on_c, 0, 81, 33
3, 134924, Note_on_c, 0, 85, 0
3, 135020, Note_on_c, 0, 81, 0
3, 135325, Note_on_c, 0, 54, 0
3, 135457, Note_on_c, 0, 64, 0
3, 135481, Note_on_c, 0, 59, 0
3, 135521, Note_on_c, 0, 61, 0
3, 135670, Note_on_c, 0, 86, 95
3, 136076, Note_on_c, 0, 86, 0
3, 136410, Note_on_c, 0, 84, 63
3, 136507, Note_on_c, 0, 81, 56
3, 136553, Note_on_c, 0, 79, 55
3, 136589, Control_c, 0, 64, 0
3, 136672, Note_on_c, 0, 76, 60
3, 136710, Note_on_c, 0, 45, 45
3, 136729, Note_on_c, 0, 55, 34
3, 136962, Control_c, 0, 64, 127
3, 137062, Note_on_c, 0, 45, 0
3, 137141, Note_on_c, 0, 55, 0
3, 137858, Note_on_c, 0, 76, 0
3, 137864, Note_on_c, 0, 79, 0
3, 138035, Note_on_c, 0, 84, 0
3, 138046, Note_on_c, 0, 81, 0
3, 138161, Note_on_c, 0, 64, 35
3, 138182, Note_on_c, 0, 60, 42
3, 138195, Note_on_c, 0, 59, 35
3, 138941, Note_on_c, 0, 96, 69
3, 139050, Note_on_c, 0, 88, 53
3, 139189, Note_on_c, 0, 64, 0
3, 139289, Note_on_c, 0, 60, 0
3, 139943, Note_on_c, 0, 60, 36
3, 139948, Note_on_c, 0, 64, 24
3, 139964, Note_on_c, 0, 96, 0
3, 140286, Note_on_c, 0, 88, 0
3, 140852, Note_on_c, 0, 64, 0
3, 140867, Note_on_c, 0, 59, 0
3, 140907, Note_on_c, 0, 57, 36
3, 140952, Note_on_c, 0, 60, 0
3, 141062, Note_on_c, 0, 57, 0
3, 142697, Control_c, 0, 64, 0
3, 142707, Note_on_c, 0, 71, 68
3, 142714, Note_on_c, 0, 68, 49
3, 142726, Note_on_c, 0, 64, 60
3, 142730, Note_on_c, 0, 59, 49
3, 142731, Note_on_c, 0, 61, 37
3, 142762, Note_on_c, 0, 57, 49
3, 143149, Control_c, 0, 64, 127
3, 143368, Note_on_c, 0, 71, 0
3, 143639, Note_on_c, 0, 71, 70
3, 144120, Note_on_c, 0, 71, 0
3, 144462, Note_on_c, 0, 72, 54
3, 144505, Note_on_c, 0, 68, 0
3, 144840, Note_on_c, 0, 72, 0
3, 144915, Note_on_c, 0, 64, 0
3, 145214, Note_on_c, 0, 71, 57
3, 145218, Note_on_c, 0, 68, 44
3, 145245, Note_on_c, 0, 64, 42
3, 145569, Note_on_c, 0, 57, 0
3, 145570, Note_on_c, 0, 59, 0
3, 145574, Note_on_c, 0, 61, 0
3, 146803, Control_c, 0, 64, 0
3, 146889, Note_on_c, 0, 41, 54
3, 147060, Control_c, 0, 64, 127
3, 147061, Note_on_c, 0, 64, 0
3, 147072, Note_on_c, 0, 71, 0
3, 147105, Note_on_c, 0, 41, 0
3, 147156, Note_on_c, 0, 68, 0
3, 147810, Note_on_c, 0, 70, 80
3, 147821, Note_on_c, 0, 63, 77
3, 147823, Note_on_c, 0, 67, 81
3, 147840, Note_on_c, 0, 56, 52
3, 147865, Note_on_c, 0, 58, 53
3, 147870, Note_on_c, 0, 60, 58
3, 148421, Note_on_c, 0, 60, 0
3, 148431, Note_on_c, 0, 63, 0
3, 148441, Note_on_c, 0, 67, 0
3, 148446, Note_on_c, 0, 58, 0
3, 148458, Note_on_c, 0, 56, 0
3, 148491, Note_on_c, 0, 70, 0
3, 148647, Note_on_c, 0, 70, 71
3, 148649, Note_on_c, 0, 63, 73
3, 148652, Note_on_c, 0, 58, 54
3, 148653, Note_on_c, 0, 67, 80
3, 148657, Note_on_c, 0, 56, 52
3, 148658, Note_on_c, 0, 60, 58
3, 149323, Note_on_c, 0, 70, 0
3, 149386, Note_on_c, 0, 71, 69
3, 149459, Note_on_c, 0, 63, 0
3, 149558, Note_on_c, 0, 60, 0
3, 149706, Note_on_c, 0, 71, 0
3, 149743, Note_on_c, 0, 58, 0
3, 149826, Note_on_c, 0, 67, 0
3, 150031, Note_on_c, 0, 70, 67
3, 150045, Note_on_c, 0, 67, 72
3, 150049, Note_on_c, 0, 63, 57
3, 150061, Note_on_c, 0, 56, 0
3, 150700, Note_on_c, 0, 47, 70
3, 151121, Control_c, 0, 64, 0
3, 151123, Note_on_c, 0, 47, 0
3, 151235, Note_on_c, 0, 40, 74
3, 151426, Control_c, 0, 64, 127
3, 151564, Note_on_c, 0, 67, 0
3, 151645, Note_on_c, 0, 63, 0
3, 151673, Note_on_c, 0, 40, 0
3, 151730, Note_on_c, 0, 70, 0
3, 151768, Note_on_c, 0, 47, 71
3, 152326, Note_on_c, 0, 54, 73
3, 152329, Note_on_c, 0, 66, 77
3, 152332, Note_on_c, 0, 69, 81
3, 152349, Note_on_c, 0, 62, 85
3, 152406, Note_on_c, 0, 47, 0
3, 152583, Note_on_c, 0, 54, 0
3, 153057, Note_on_c, 0, 57, 70
3, 153474, Note_on_c, 0, 62, 0
3, 153666, Note_on_c, 0, 66, 0
3, 153735, Note_on_c, 0, 69, 0
3, 153912, Note_on_c, 0, 66, 52
3, 153922, Note_on_c, 0, 69, 54
3, 153930, Note_on_c, 0, 62, 62
3, 155466, Note_on_c, 0, 67, 71
3, 155582, Note_on_c, 0, 69, 0
3, 155668, Note_on_c, 0, 57, 0
3, 155889, Note_on_c, 0, 62, 0
3, 156231, Note_on_c, 0, 66, 0
3, 156232, Note_on_c, 0, 67, 0
3, 156374, Note_on_c, 0, 54, 45
3, 156388, Note_on_c, 0, 68, 53
3, 156388, Note_on_c, 0, 61, 52
3, 156388, Note_on_c, 0, 58, 39
3, 156395, Note_on_c, 0, 56, 42
3, 156398, Note_on_c, 0, 65, 60
3, 156429, Control_c, 0, 64, 0
3, 156911, Control_c, 0, 64, 127
3, 157237, Note_on_c, 0, 68, 0
3, 157339, Note_on_c, 0, 58, 0
3, 157402, Note_on_c, 0, 56, 0
3, 157418, Note_on_c, 0, 68, 54
3, 157438, Note_on_c, 0, 54, 0
3, 157885, Note_on_c, 0, 65, 0
3, 157899, Note_on_c, 0, 61, 0
3, 158168, Note_on_c, 0, 68, 0
3, 158481, Note_on_c, 0, 68, 39
3, 158483, Note_on_c, 0, 32, 45
3, 158513, Note_on_c, 0, 60, 37
3, 158525, Note_on_c, 0, 44, 26
3, 158546, Control_c, 0, 64, 0
3, 158948, Control_c, 0, 64, 127
3, 159142, Note_on_c, 0, 32, 0
3, 159238, Note_on_c, 0, 60, 0
3, 159255, Note_on_c, 0, 44, 0
3, 159539, Note_on_c, 0, 68, 0
3, 160402, Note_on_c, 0, 82, 39
3, 160460, Note_on_c, 0, 70, 51
3, 160477, Note_on_c, 0, 65, 32
3, 160501, Note_on_c, 0, 60, 28
3, 160987, Note_on_c, 0, 82, 0
3, 161089, Note_on_c, 0, 65, 0
3, 161111, Note_on_c, 0, 70, 0
3, 161306, Note_on_c, 0, 60, 0
3, 161408, Note_on_c, 0, 80, 36
3, 161463, Note_on_c, 0, 68, 30
3, 161652, Note_on_c, 0, 80, 0
3, 161895, Note_on_c, 0, 68, 0
3, 162762, Note_on_c, 0, 77, 49
3, 162798, Control_c, 0, 64, 0
3, 162800, Note_on_c, 0, 65, 32
3, 162853, Note_on_c, 0, 49, 23
3, 163653, Note_on_c, 0, 57, 53
3, 163824, Control_c, 0, 64, 127
3, 164207, Note_on_c, 0, 77, 0
3, 164343, Note_on_c, 0, 57, 0
3, 164351, Control_c, 0, 64, 0
3, 164378, Note_on_c, 0, 58, 60
3, 164385, Note_on_c, 0, 65, 0
3, 164640, Control_c, 0, 64, 127
3, 164965, Note_on_c, 0, 60, 70
3, 165554, Note_on_c, 0, 61, 82
3, 165602, Note_on_c, 0, 60, 0
3, 166082, Note_on_c, 0, 61, 0
3, 166134, Note_on_c, 0, 63, 80
3, 166850, Note_on_c, 0, 63, 0
3, 166905, Note_on_c, 0, 65, 71
3, 168479, Note_on_c, 0, 49, 0
3, 168635, Note_on_c, 0, 58, 0
3, 168771, Note_on_c, 0, 65, 0
3, 170325, Note_on_c, 0, 77, 52
3, 170360, Note_on_c, 0, 73, 50
3, 170365, Control_c, 0, 64, 0
3, 170414, Note_on_c, 0, 63, 38
3, 170423, Note_on_c, 0, 69, 46
3, 170794, Control_c, 0, 64, 127
3, 171135, Note_on_c, 0, 69, 0
3, 171166, Note_on_c, 0, 77, 0
3, 171167, Note_on_c, 0, 73, 0
3, 171446, Note_on_c, 0, 79, 64
3, 171472, Control_c, 0, 64, 0
3, 171482, Note_on_c, 0, 75, 62
3, 171518, Note_on_c, 0, 65, 38
3, 171534, Note_on_c, 0, 71, 54
3, 171644, Note_on_c, 0, 63, 0
3, 171746, Control_c, 0, 64, 127
3, 171880, Note_on_c, 0, 79, 0
3, 172093, Note_on_c, 0, 71, 0
3, 172221, Note_on_c, 0, 75, 0
3, 172542, Note_on_c, 0, 81, 63
3, 172548, Control_c, 0, 64, 0
3, 172554, Note_on_c, 0, 77, 62
3, 172590, Note_on_c, 0, 72, 53
3, 172605, Note_on_c, 0, 67, 40
3, 172670, Note_on_c, 0, 65, 0
3, 172852, Control_c, 0, 64, 127
3, 173067, Note_on_c, 0, 81, 0
3, 173073, Note_on_c, 0, 77, 0
3, 173115, Note_on_c, 0, 72, 0
3, 173784, Note_on_c, 0, 83, 52
3, 173818, Note_on_c, 0, 79, 55
3, 173828, Control_c, 0, 64, 0
3, 173851, Note_on_c, 0, 75, 36
3, 173894, Note_on_c, 0, 69, 28
3, 173896, Note_on_c, 0, 67, 0
3, 174117, Control_c, 0, 64, 127
3, 175536, Note_on_c, 0, 83, 0
3, 176915, Note_on_c, 0, 69, 0
3, 177178, Note_on_c, 0, 83, 49
3, 177506, Note_on_c, 0, 79, 0
3, 177595, Note_on_c, 0, 83, 0
3, 178837, Note_on_c, 0, 75, 0
3, 178908, Note_on_c, 0, 85, 45
3, 178912, Control_c, 0, 64, 0
3, 178928, Note_on_c, 0, 47, 36
3, 179314, Control_c, 0, 64, 127
3, 179650, Note_on_c, 0, 85, 0
3, 179707, Note_on_c, 0, 54, 42
3, 180343, Note_on_c, 0, 58, 46
3, 180986, Note_on_c, 0, 61, 47
3, 181702, Note_on_c, 0, 63, 40
3, 181854, Note_on_c, 0, 61, 0
3, 182393, Note_on_c, 0, 58, 0
3, 182462, Note_on_c, 0, 66, 56
3, 182539, Note_on_c, 0, 47, 0
3, 182658, Note_on_c, 0, 54, 0
3, 182755, Note_on_c, 0, 63, 0
3, 183181, Control_c, 0, 64, 0
3, 183212, Note_on_c, 0, 66, 0
3, 183255, Note_on_c, 0, 65, 51
3, 183317, Note_on_c, 0, 45, 39
3, 183501, Control_c, 0, 64, 127
3, 183676, Note_on_c, 0, 65, 0
3, 184447, Note_on_c, 0, 45, 0
3, 185810, Note_on_c, 0, 54, 38
3, 185936, Note_on_c, 0, 56, 51
3, 185982, Note_on_c, 0, 54, 0
3, 186057, Note_on_c, 0, 56, 0
3, 186096, Note_on_c, 0, 57, 58
3, 186130, Control_c, 0, 64, 0
3, 186209, Note_on_c, 0, 60, 53
3, 186284, Note_on_c, 0, 57, 0
3, 186333, Note_on_c, 0, 62, 58
3, 186444, Note_on_c, 0, 60, 0
3, 186482, Note_on_c, 0, 65, 55
3, 186504, Note_on_c, 0, 62, 0
3, 186536, Note_on_c, 0, 65, 0
3, 186582, Note_on_c, 0, 66, 60
3, 186631, Note_on_c, 0, 68, 40
3, 186719, Note_on_c, 0, 66, 0
3, 186738, Note_on_c, 0, 69, 62
3, 186774, Note_on_c, 0, 68, 0
3, 186884, Note_on_c, 0, 72, 37
3, 186908, Note_on_c, 0, 69, 0
3, 186948, Note_on_c, 0, 74, 47
3, 187078, Note_on_c, 0, 72, 0
3, 187082, Note_on_c, 0, 77, 45
3, 187102, Note_on_c, 0, 74, 0
3, 187196, Note_on_c, 0, 77, 0
3, 187221, Note_on_c, 0, 78, 53
3, 187286, Note_on_c, 0, 78, 0
3, 187413, Note_on_c, 0, 81, 24
3, 187508, Note_on_c, 0, 84, 48
3, 187580, Note_on_c, 0, 81, 0
3, 187598, Note_on_c, 0, 86, 51
3, 187684, Note_on_c, 0, 89, 38
3, 187686, Note_on_c, 0, 86, 0
3, 187688, Note_on_c, 0, 84, 0
3, 187753, Note_on_c, 0, 89, 0
3, 187811, Note_on_c, 0, 90, 45
3, 187897, Note_on_c, 0, 92, 38
3, 187955, Note_on_c, 0, 93, 31
3, 188127, Note_on_c, 0, 92, 0
3, 188132, Note_on_c, 0, 96, 27
3, 188134, Note_on_c, 0, 90, 0
3, 188193, Note_on_c, 0, 98, 49
3, 188253, Note_on_c, 0, 93, 0
3, 188329, Control_c, 0, 64, 127
3, 188338, Note_on_c, 0, 101, 59
3, 189204, Note_on_c, 0, 101, 0
3, 189255, Note_on_c, 0, 96, 0
3, 189293, Note_on_c, 0, 98, 0
3, 191360, Note_on_c, 0, 80, 44
3, 191373, Control_c, 0, 64, 0
3, 191394, Note_on_c, 0, 37, 33
3, 191662, Control_c, 0, 64, 127
3, 191846, Note_on_c, 0, 37, 0
3, 191921, Note_on_c, 0, 44, 43
3, 192393, Note_on_c, 0, 44, 0
3, 192530, Note_on_c, 0, 52, 34
3, 193032, Note_on_c, 0, 52, 0
3, 193163, Note_on_c, 0, 53, 54
3, 193219, Note_on_c, 0, 80, 0
3, 193853, Note_on_c, 0, 53, 0
3, 193859, Note_on_c, 0, 56, 44
3, 193868, Note_on_c, 0, 77, 90
3, 193998, Note_on_c, 0, 56, 0
3, 194414, Note_on_c, 0, 77, 0
3, 194496, Note_on_c, 0, 75, 79
3, 194556, Note_on_c, 0, 60, 55
3, 194699, Note_on_c, 0, 60, 0
3, 195006, Note_on_c, 0, 75, 0
3, 195093, Note_on_c, 0, 73, 68
3, 195318, Note_on_c, 0, 73, 0
3, 195735, Control_c, 0, 64, 0
3, 195800, Note_on_c, 0, 34, 68
3, 195806, Note_on_c, 0, 72, 71
3, 195993, Control_c, 0, 64, 127
3, 196013, Note_on_c, 0, 34, 0
3, 197193, Note_on_c, 0, 72, 0
3, 197217, Note_on_c, 0, 56, 60
3, 197555, Note_on_c, 0, 58, 79
3, 197643, Control_c, 0, 64, 0
3, 197839, Note_on_c, 0, 59, 74
3, 197898, Note_on_c, 0, 58, 0
3, 197902, Control_c, 0, 64, 127
3, 197926, Note_on_c, 0, 56, 0
3, 198026, Note_on_c, 0, 62, 75
3, 198064, Note_on_c, 0, 59, 0
3, 198185, Note_on_c, 0, 64, 66
3, 198283, Note_on_c, 0, 62, 0
3, 198356, Note_on_c, 0, 67, 57
3, 198367, Control_c, 0, 64, 0
3, 198383, Note_on_c, 0, 64, 0
3, 198409, Note_on_c, 0, 67, 0
3, 198480, Note_on_c, 0, 68, 60
3, 198532, Note_on_c, 0, 70, 51
3, 198677, Note_on_c, 0, 71, 62
3, 198732, Note_on_c, 0, 68, 0
3, 198740, Note_on_c, 0, 70, 0
3, 198801, Control_c, 0, 64, 127
3, 198823, Note_on_c, 0, 74, 54
3, 198910, Note_on_c, 0, 76, 54
3, 198911, Note_on_c, 0, 71, 0
3, 199038, Note_on_c, 0, 74, 0
3, 199053, Note_on_c, 0, 79, 42
3, 199096, Note_on_c, 0, 76, 0
3, 199117, Note_on_c, 0, 79, 0
3, 199174, Note_on_c, 0, 80, 59
3, 199261, Note_on_c, 0, 80, 0
3, 199307, Note_on_c, 0, 83, 53
3, 199438, Note_on_c, 0, 86, 66
3, 199503, Note_on_c, 0, 83, 0
3, 199527, Note_on_c, 0, 88, 53
3, 199615, Note_on_c, 0, 86, 0
3, 199633, Note_on_c, 0, 91, 36
3, 199663, Note_on_c, 0, 88, 0
3, 199695, Note_on_c, 0, 91, 0
3, 199808, Note_on_c, 0, 92, 49
3, 199897, Note_on_c, 0, 94, 31
3, 199961, Note_on_c, 0, 95, 16
3, 200022, Note_on_c, 0, 92, 0
3, 200025, Note_on_c, 0, 94, 0
3, 200135, Note_on_c, 0, 98, 37
3, 200144, Note_on_c, 0, 100, 42
3, 200156, Note_on_c, 0, 95, 0
3, 200231, Note_on_c, 0, 98, 0
3, 200281, Note_on_c, 0, 103, 89
3, 200338, Note_on_c, 0, 100, 0
3, 203055, Note_on_c, 0, 103, 0
3, 204511, Control_c, 0, 64, 0
3, 204551, Note_on_c, 0, 106, 53
3, 204570, Note_on_c, 0, 94, 38
3, 204600, Note_on_c, 0, 35, 35
3, 204603, Note_on_c, 0, 47, 28
3, 204805, Control_c, 0, 64, 127
3, 204903, Note_on_c, 0, 35, 0
3, 205043, Note_on_c, 0, 47, 0
3, 205097, Note_on_c, 0, 106, 0
3, 205165, Note_on_c, 0, 94, 0
3, 205804, Note_on_c, 0, 58, 35
3, 206829, Note_on_c, 0, 70, 49
3, 206842, Note_on_c, 0, 66, 42
3, 206865, Note_on_c, 0, 61, 26
3, 207449, Note_on_c, 0, 61, 0
3, 207825, Note_on_c, 0, 61, 36
3, 208261, Note_on_c, 0, 70, 0
3, 208354, Note_on_c, 0, 66, 0
3, 208378, Note_on_c, 0, 61, 0
3, 208675, Note_on_c, 0, 73, 51
3, 208726, Note_on_c, 0, 66, 72
3, 208728, Note_on_c, 0, 61, 34
3, 208893, Note_on_c, 0, 58, 0
3, 209449, Note_on_c, 0, 58, 56
3, 209464, Note_on_c, 0, 61, 0
3, 209543, Note_on_c, 0, 73, 0
3, 209653, Note_on_c, 0, 58, 0
3, 209726, Note_on_c, 0, 66, 0
3, 210251, Note_on_c, 0, 72, 47
3, 210265, Note_on_c, 0, 69, 64
3, 210266, Note_on_c, 0, 65, 72
3, 210395, Control_c, 0, 64, 0
3, 211014, Note_on_c, 0, 62, 68
3, 211166, Control_c, 0, 64, 127
3, 211651, Note_on_c, 0, 62, 0
3, 211709, Note_on_c, 0, 55, 60
3, 211829, Note_on_c, 0, 55, 0
3, 212660, Note_on_c, 0, 31, 65
3, 212665, Note_on_c, 0, 65, 0
3, 212710, Note_on_c, 0, 69, 0
3, 212790, Note_on_c, 0, 72, 0
3, 212851, Note_on_c, 0, 31, 0
3, 215264, Note_on_c, 0, 77, 78
3, 215271, Note_on_c, 0, 72, 71
3, 215278, Note_on_c, 0, 81, 69
3, 215281, Note_on_c, 0, 65, 54
3, 216191, Note_on_c, 0, 65, 0
3, 217264, Note_on_c, 0, 81, 0
3, 217421, Note_on_c, 0, 72, 0
3, 217439, Note_on_c, 0, 77, 0
3, 217562, Note_on_c, 0, 79, 57
3, 217698, Note_on_c, 0, 79, 0
3, 220090, Note_on_c, 0, 76, 55
3, 220130, Control_c, 0, 64, 0
3, 220133, Note_on_c, 0, 48, 38
3, 220670, Control_c, 0, 64, 127
3, 221236, Note_on_c, 0, 56, 26
3, 221843, Note_on_c, 0, 76, 0
3, 221912, Note_on_c, 0, 59, 46
3, 222601, Note_on_c, 0, 64, 43
3, 222974, Note_on_c, 0, 59, 0
3, 223242, Control_c, 0, 64, 0
3, 223336, Note_on_c, 0, 64, 0
3, 223340, Note_on_c, 0, 57, 35
3, 223346, Note_on_c, 0, 67, 54
3, 223520, Note_on_c, 0, 48, 0
3, 223529, Control_c, 0, 64, 127
3, 224140, Note_on_c, 0, 56, 0
3, 224352, Note_on_c, 0, 48, 37
3, 224362, Note_on_c, 0, 57, 0
3, 224538, Note_on_c, 0, 48, 0
3, 225102, Note_on_c, 0, 67, 0
3, 225230, Control_c, 0, 64, 0
3, 225279, Note_on_c, 0, 32, 62
3, 225486, Control_c, 0, 64, 127
3, 226006, Note_on_c, 0, 32, 0
3, 226074, Note_on_c, 0, 65, 56
3, 226384, Note_on_c, 0, 65, 0
3, 226402, Note_on_c, 0, 67, 64
3, 226607, Note_on_c, 0, 68, 67
3, 226656, Note_on_c, 0, 67, 0
3, 226816, Note_on_c, 0, 68, 0
3, 226816, Note_on_c, 0, 70, 64
3, 226936, Note_on_c, 0, 70, 0
3, 227014, Note_on_c, 0, 72, 59
3, 227163, Note_on_c, 0, 72, 0
3, 227175, Note_on_c, 0, 73, 44
3, 227330, Note_on_c, 0, 75, 69
3, 227348, Note_on_c, 0, 73, 0
3, 227456, Note_on_c, 0, 75, 0
3, 227509, Note_on_c, 0, 77, 61
3, 227706, Note_on_c, 0, 79, 57
3, 227727, Note_on_c, 0, 77, 0
3, 227816, Note_on_c, 0, 80, 39
3, 227887, Note_on_c, 0, 79, 0
3, 227940, Control_c, 0, 64, 0
3, 227963, Note_on_c, 0, 82, 55
3, 228033, Note_on_c, 0, 80, 0
3, 228060, Note_on_c, 0, 82, 0
3, 228081, Note_on_c, 0, 54, 25
3, 228086, Note_on_c, 0, 60, 33
3, 228089, Note_on_c, 0, 65, 31
3, 228144, Note_on_c, 0, 84, 44
3, 228284, Note_on_c, 0, 84, 0
3, 228330, Note_on_c, 0, 85, 51
3, 228359, Control_c, 0, 64, 127
3, 228479, Note_on_c, 0, 85, 0
3, 228530, Note_on_c, 0, 87, 46
3, 228597, Note_on_c, 0, 87, 0
3, 228698, Note_on_c, 0, 89, 52
3, 228753, Note_on_c, 0, 65, 0
3, 228890, Note_on_c, 0, 91, 47
3, 228905, Note_on_c, 0, 89, 0
3, 229032, Note_on_c, 0, 60, 0
3, 229036, Note_on_c, 0, 92, 51
3, 229099, Note_on_c, 0, 91, 0
3, 229130, Note_on_c, 0, 54, 0
3, 229206, Note_on_c, 0, 92, 0
3, 229214, Note_on_c, 0, 94, 54
3, 229299, Note_on_c, 0, 94, 0
3, 229430, Note_on_c, 0, 96, 49
3, 229631, Note_on_c, 0, 97, 59
3, 229632, Note_on_c, 0, 96, 0
3, 229853, Note_on_c, 0, 97, 0
3, 229937, Note_on_c, 0, 99, 55
3, 230103, Note_on_c, 0, 99, 0
3, 230125, Note_on_c, 0, 100, 47
3, 230290, Note_on_c, 0, 100, 0
3, 230363, Note_on_c, 0, 101, 66
3, 230672, Note_on_c, 0, 100, 71
3, 230734, Note_on_c, 0, 101, 0
3, 230964, Note_on_c, 0, 98, 61
3, 230970, Note_on_c, 0, 100, 0
3, 231277, Note_on_c, 0, 98, 0
3, 231314, Note_on_c, 0, 100, 73
3, 231742, Note_on_c, 0, 100, 0
3, 231775, Control_c, 0, 64, 0
3, 231778, Note_on_c, 0, 99, 70
3, 231796, Note_on_c, 0, 25, 46
3, 231806, Note_on_c, 0, 37, 39
3, 232142, Control_c, 0, 64, 127
3, 232251, Note_on_c, 0, 25, 0
3, 232325, Note_on_c, 0, 37, 0
3, 232345, Note_on_c, 0, 99, 0
3, 233620, Note_on_c, 0, 68, 44
3, 233643, Note_on_c, 0, 65, 55
3, 233652, Note_on_c, 0, 63, 35
3, 235227, Note_on_c, 0, 65, 0
3, 235375, Note_on_c, 0, 68, 0
3, 235772, Note_on_c, 0, 68, 94
3, 235795, Note_on_c, 0, 63, 0
3, 235853, Note_on_c, 0, 60, 33
3, 236186, Note_on_c, 0, 60, 0
3, 236985, Control_c, 0, 64, 0
3, 236996, Note_on_c, 0, 64, 76
3, 237002, Note_on_c, 0, 43, 60
3, 237104, Note_on_c, 0, 68, 0
3, 237369, Control_c, 0, 64, 127
3, 237483, Note_on_c, 0, 64, 0
3, 237544, Note_on_c, 0, 43, 0
3, 238465, Note_on_c, 0, 71, 64
3, 238474, Note_on_c, 0, 83, 57
3, 238510, Note_on_c, 0, 64, 36
3, 238513, Note_on_c, 0, 59, 37
3, 238524, Note_on_c, 0, 53, 31
3, 239855, Note_on_c, 0, 59, 0
3, 239950, Note_on_c, 0, 64, 0
3, 240283, Note_on_c, 0, 56, 47
3, 241249, Note_on_c, 0, 71, 0
3, 241364, Note_on_c, 0, 53, 0
3, 241409, Note_on_c, 0, 56, 0
3, 241417, Note_on_c, 0, 83, 0
3, 242037, Control_c, 0, 64, 0
3, 242079, Note_on_c, 0, 86, 71
3, 242108, Note_on_c, 0, 79, 62
3, 242124, Note_on_c, 0, 48, 44
3, 242136, Note_on_c, 0, 74, 57
3, 242199, Note_on_c, 0, 59, 31
3, 242373, Control_c, 0, 64, 127
3, 242554, Note_on_c, 0, 86, 0
3, 242698, Note_on_c, 0, 79, 0
3, 242779, Note_on_c, 0, 74, 0
3, 242809, Note_on_c, 0, 59, 0
3, 242855, Note_on_c, 0, 55, 43
3, 243550, Note_on_c, 0, 67, 58
3, 243576, Note_on_c, 0, 64, 45
3, 243585, Note_on_c, 0, 59, 25
3, 244165, Note_on_c, 0, 55, 0
3, 244352, Note_on_c, 0, 67, 0
3, 244374, Note_on_c, 0, 59, 0
3, 244405, Note_on_c, 0, 55, 31
3, 244427, Note_on_c, 0, 64, 0
3, 245142, Note_on_c, 0, 67, 61
3, 245170, Note_on_c, 0, 64, 47
3, 245172, Note_on_c, 0, 62, 49
3, 245236, Note_on_c, 0, 48, 0
3, 245944, Note_on_c, 0, 48, 48
3, 245957, Note_on_c, 0, 67, 0
3, 245962, Note_on_c, 0, 64, 0
3, 245987, Note_on_c, 0, 55, 0
3, 246070, Note_on_c, 0, 62, 0
3, 246144, Note_on_c, 0, 48, 0
3, 246975, Control_c, 0, 64, 0
3, 246978, Note_on_c, 0, 63, 42
3, 247013, Note_on_c, 0, 61, 29
3, 247017, Note_on_c, 0, 45, 32
3, 247025, Note_on_c, 0, 55, 34
3, 247058, Note_on_c, 0, 33, 34
3, 247375, Control_c, 0, 64, 127
3, 247621, Note_on_c, 0, 33, 0
3, 247689, Note_on_c, 0, 55, 0
3, 247963, Note_on_c, 0, 61, 0
3, 247982, Note_on_c, 0, 33, 39
3, 248022, Note_on_c, 0, 45, 0
3, 248041, Note_on_c, 0, 63, 0
3, 248061, Note_on_c, 0, 33, 0
3, 249222, Control_c, 0, 64, 0
3, 249258, Note_on_c, 0, 82, 46
3, 249262, Note_on_c, 0, 70, 49
3, 249266, Note_on_c, 0, 61, 31
3, 249274, Note_on_c, 0, 75, 52
3, 249298, Note_on_c, 0, 66, 23
3, 249306, Note_on_c, 0, 55, 30
3, 249606, Control_c, 0, 64, 127
3, 250664, Note_on_c, 0, 66, 0
3, 250870, Note_on_c, 0, 70, 0
3, 250960, Note_on_c, 0, 75, 0
3, 251062, Note_on_c, 0, 82, 0
3, 251427, Note_on_c, 0, 82, 34
3, 251456, Note_on_c, 0, 75, 36
3, 251458, Note_on_c, 0, 66, 28
3, 251491, Note_on_c, 0, 70, 19
3, 252085, Note_on_c, 0, 66, 0
3, 252124, Note_on_c, 0, 55, 0
3, 252269, Note_on_c, 0, 82, 0
3, 252325, Note_on_c, 0, 75, 0
3, 252341, Note_on_c, 0, 70, 0
3, 252416, Note_on_c, 0, 61, 0
3, 254858, Note_on_c, 0, 67, 71
3, 254874, Note_on_c, 0, 60, 74
3, 254881, Control_c, 0, 64, 0
3, 254896, Note_on_c, 0, 38, 56
3, 254901, Note_on_c, 0, 53, 52
3, 254920, Note_on_c, 0, 45, 53
3, 254943, Note_on_c, 0, 55, 38
3, 254995, Note_on_c, 0, 55, 0
3, 255299, Control_c, 0, 64, 127
3, 257130, Note_on_c, 0, 53, 0
3, 257389, Note_on_c, 0, 45, 0
3, 257412, Note_on_c, 0, 38, 0
3, 257517, Note_on_c, 0, 67, 0
3, 257554, Note_on_c, 0, 60, 0
3, 258281, Control_c, 0, 64, 0
3, 258370, Note_on_c, 0, 64, 59
3, 258385, Note_on_c, 0, 40, 58
3, 258388, Note_on_c, 0, 59, 55
3, 258399, Note_on_c, 0, 55, 48
3, 258401, Note_on_c, 0, 60, 53
3, 258651, Control_c, 0, 64, 127
3, 258878, Note_on_c, 0, 40, 0
3, 258943, Note_on_c, 0, 55, 0
3, 258994, Note_on_c, 0, 60, 0
3, 259017, Note_on_c, 0, 59, 0
3, 259232, Note_on_c, 0, 64, 0
3, 259532, Control_c, 0, 64, 0
3, 259587, Note_on_c, 0, 60, 60
3, 259596, Note_on_c, 0, 41, 50
3, 259601, Note_on_c, 0, 57, 54
3, 259608, Note_on_c, 0, 53, 40
3, 259902, Control_c, 0, 64, 127
3, 260444, Note_on_c, 0, 53, 0
3, 260595, Note_on_c, 0, 60, 0
3, 260641, Note_on_c, 0, 57, 0
3, 261198, Note_on_c, 0, 41, 0
3, 261279, Control_c, 0, 64, 0
3, 261319, Note_on_c, 0, 62, 46
3, 261324, Note_on_c, 0, 57, 40
3, 261326, Note_on_c, 0, 43, 38
3, 261328, Note_on_c, 0, 53, 31
3, 261329, Note_on_c, 0, 60, 42
3, 261653, Control_c, 0, 64, 127
3, 261782, Note_on_c, 0, 53, 0
3, 261823, Note_on_c, 0, 57, 0
3, 261889, Note_on_c, 0, 60, 0
3, 261947, Note_on_c, 0, 62, 0
3, 262028, Note_on_c, 0, 43, 0
3, 263261, Note_on_c, 0, 79, 39
3, 263341, Note_on_c, 0, 67, 34
3, 263346, Note_on_c, 0, 91, 46
3, 264413, Note_on_c, 0, 91, 0
3, 264604, Note_on_c, 0, 79, 0
3, 264753, Note_on_c, 0, 67, 0
3, 266784, Note_on_c, 0, 91, 55
3, 266833, Control_c, 0, 64, 0
3, 266836, Note_on_c, 0, 79, 34
3, 266865, Note_on_c, 0, 62, 33
3, 267123, Control_c, 0, 64, 127
3, 267443, Note_on_c, 0, 79, 0
3, 267491, Note_on_c, 0, 69, 37
3, 267985, Note_on_c, 0, 91, 0
3, 268145, Note_on_c, 0, 79, 40
3, 268175, Note_on_c, 0, 72, 24
3, 268423, Note_on_c, 0, 62, 0
3, 268899, Note_on_c, 0, 79, 0
3, 268906, Note_on_c, 0, 62, 28
3, 269127, Note_on_c, 0, 62, 0
3, 270221, Note_on_c, 0, 72, 0
3, 270269, Note_on_c, 0, 69, 0
3, 270473, Control_c, 0, 64, 0
3, 270504, Note_on_c, 0, 88, 46
3, 270509, Note_on_c, 0, 84, 46
3, 270532, Note_on_c, 0, 64, 44
3, 270537, Note_on_c, 0, 76, 29
3, 270795, Control_c, 0, 64, 127
3, 271044, Note_on_c, 0, 76, 0
3, 271340, Note_on_c, 0, 84, 0
3, 271507, Note_on_c, 0, 64, 0
3, 271829, Note_on_c, 0, 88, 0
3, 271963, Note_on_c, 0, 84, 47
3, 271993, Note_on_c, 0, 65, 45
3, 271998, Control_c, 0, 64, 0
3, 272009, Note_on_c, 0, 77, 20
3, 272023, Note_on_c, 0, 81, 35
3, 272302, Control_c, 0, 64, 127
3, 272650, Note_on_c, 0, 77, 0
3, 272762, Note_on_c, 0, 72, 24
3, 272902, Note_on_c, 0, 81, 0
3, 272922, Note_on_c, 0, 65, 0
3, 273106, Note_on_c, 0, 72, 0
3, 273273, Note_on_c, 0, 84, 0
3, 273521, Control_c, 0, 64, 0
3, 273636, Note_on_c, 0, 88, 35
3, 273647, Note_on_c, 0, 83, 38
3, 273662, Note_on_c, 0, 77, 28
3, 273713, Control_c, 0, 64, 127
3, 273732, Note_on_c, 0, 74, 11
3, 274035, Note_on_c, 0, 77, 0
3, 274156, Note_on_c, 0, 83, 0
3, 274179, Note_on_c, 0, 74, 0
3, 274193, Note_on_c, 0, 88, 0
3, 275430, Note_on_c, 0, 91, 36
3, 275436, Note_on_c, 0, 103, 35
3, 275783, Note_on_c, 0, 55, 1
3, 276194, Note_on_c, 0, 103, 0
3, 276339, Note_on_c, 0, 91, 0
3, 276839, Note_on_c, 0, 43, 36
3, 278698, Note_on_c, 0, 43, 0
3, 279102, Note_on_c, 0, 55, 0
3, 281209, Note_on_c, 0, 79, 72
3, 281233, Note_on_c, 0, 74, 69
3, 281245, Note_on_c, 0, 69, 66
3, 281247, Note_on_c, 0, 60, 54
3, 281268, Note_on_c, 0, 65, 51
3, 281316, Control_c, 0, 64, 0
3, 281779, Control_c, 0, 64, 127
3, 281971, Note_on_c, 0, 79, 0
3, 282106, Note_on_c, 0, 79, 62
3, 282563, Note_on_c, 0, 79, 0
3, 283024, Note_on_c, 0, 79, 52
3, 283536, Note_on_c, 0, 79, 0
3, 283689, Note_on_c, 0, 65, 0
3, 283900, Note_on_c, 0, 60, 0
3, 284118, Note_on_c, 0, 79, 47
3, 284411, Note_on_c, 0, 79, 0
3, 284455, Note_on_c, 0, 74, 0
3, 284592, Note_on_c, 0, 69, 0
3, 285338, Control_c, 0, 64, 0
3, 285340, Note_on_c, 0, 76, 68
3, 285356, Note_on_c, 0, 61, 40
3, 285361, Note_on_c, 0, 71, 58
3, 285377, Note_on_c, 0, 66, 33
3, 285381, Note_on_c, 0, 56, 37
3, 285695, Control_c, 0, 64, 127
3, 286071, Note_on_c, 0, 76, 0
3, 286409, Note_on_c, 0, 61, 0
3, 286409, Note_on_c, 0, 76, 51
3, 286609, Note_on_c, 0, 56, 0
3, 286702, Note_on_c, 0, 76, 0
3, 286817, Note_on_c, 0, 71, 0
3, 286923, Note_on_c, 0, 66, 0
3, 287667, Note_on_c, 0, 72, 36
3, 287713, Note_on_c, 0, 67, 45
3, 287731, Control_c, 0, 64, 0
3, 287771, Note_on_c, 0, 46, 29
3, 287773, Note_on_c, 0, 62, 20
3, 288159, Control_c, 0, 64, 127
3, 288535, Note_on_c, 0, 53, 44
3, 289267, Note_on_c, 0, 57, 51
3, 289302, Note_on_c, 0, 46, 0
3, 289340, Note_on_c, 0, 53, 0
3, 290066, Note_on_c, 0, 62, 0
3, 290094, Note_on_c, 0, 58, 51
3, 290100, Note_on_c, 0, 57, 0
3, 290202, Note_on_c, 0, 67, 0
3, 290204, Note_on_c, 0, 72, 0
3, 290981, Note_on_c, 0, 58, 0
3, 291049, Control_c, 0, 64, 0
3, 291055, Note_on_c, 0, 74, 66
3, 291067, Note_on_c, 0, 66, 49
3, 291071, Note_on_c, 0, 71, 62
3, 291119, Note_on_c, 0, 59, 53
3, 291176, Note_on_c, 0, 69, 19
3, 291401, Control_c, 0, 64, 127
3, 291613, Note_on_c, 0, 59, 0
3, 292384, Note_on_c, 0, 31, 41
3, 292553, Note_on_c, 0, 31, 0
3, 296485, Control_c, 0, 64, 0
3, 296557, Note_on_c, 0, 69, 0
3, 296580, Note_on_c, 0, 74, 0
3, 296605, Note_on_c, 0, 66, 0
3, 296628, Note_on_c, 0, 71, 0
3, 297568, Note_on_c, 0, 75, 52
3, 297583, Note_on_c, 0, 66, 43
3, 297609, Control_c, 0, 64, 127
3, 297622, Note_on_c, 0, 35, 37
3, 298350, Note_on_c, 0, 35, 0
3, 298435, Note_on_c, 0, 47, 38
3, 298524, Note_on_c, 0, 47, 0
3, 299095, Note_on_c, 0, 54, 37
3, 299661, Note_on_c, 0, 75, 0
3, 299676, Note_on_c, 0, 66, 0
3, 299684, Note_on_c, 0, 58, 39
3, 300230, Note_on_c, 0, 58, 0
3, 300280, Note_on_c, 0, 59, 49
3, 300818, Note_on_c, 0, 63, 43
3, 301000, Note_on_c, 0, 63, 0
3, 301392, Note_on_c, 0, 70, 57
3, 301860, Note_on_c, 0, 70, 0
3, 301912, Note_on_c, 0, 66, 44
3, 302133, Note_on_c, 0, 66, 0
3, 302422, Note_on_c, 0, 71, 60
3, 302826, Note_on_c, 0, 71, 0
3, 303424, Note_on_c, 0, 78, 55
3, 303856, Note_on_c, 0, 78, 0
3, 303884, Note_on_c, 0, 75, 55
3, 304020, Note_on_c, 0, 75, 0
3, 304473, Note_on_c, 0, 87, 57
3, 305038, Note_on_c, 0, 83, 42
3, 305042, Note_on_c, 0, 87, 0
3, 305560, Note_on_c, 0, 83, 0
3, 305620, Note_on_c, 0, 85, 45
3, 305744, Note_on_c, 0, 85, 0
3, 306230, Note_on_c, 0, 95, 48
3, 306525, Note_on_c, 0, 95, 0
3, 306893, Note_on_c, 0, 99, 46
3, 307149, Note_on_c, 0, 99, 0
3, 307596, Note_on_c, 0, 106, 49
3, 308874, Note_on_c, 0, 106, 0
3, 308973, Note_on_c, 0, 107, 58
3, 309695, Note_on_c, 0, 107, 0
3, 310093, Note_on_c, 0, 59, 0
3, 310163, Note_on_c, 0, 54, 0
3, 313109, Control_c, 0, 64, 0
3, 313109, End_track
0, 0, End_of_file
