0, 0, Header, 1, 9, 120
1, 0, Start_track
1, 0, Title_t, "Waltse For Dave"
1, 0, Text_t, "Chick Corea\012"
1, 0, Text_t, "Waltse For Dave. Chick Corea. from the 'Friends' Album. (Dedicated to Dave Brubeck) Lead sheet is in 'The New Real Book' Vol 2 (Sher Music) page 407. The original is played on Flute - I have changed this to Harmonica because my flute sound is less than c\012"
1, 0, Time_signature, 3, 2, 24, 8
1, 0, Key_signature, 0, "major"
1, 0, Tempo, 428571
1, 0, Marker_t, "'Waltse for Dave' by Chick Corea. dedicated to Dave Brubeck"
1, 25200, Marker_t, "Harmonica solo - on original recording was Joe Farrell playing Flute"
1, 75622, Marker_t, "Bass solo (Eddie Gomez is on original)"
1, 75622, End_track
2, 0, Start_track
2, 0, Title_t, "Try Acoustic piano or Rhodes sound"
2, 0, Control_c, 0, 64, 127
2, 4, Note_on_c, 0, 76, 75
2, 4, Note_on_c, 0, 72, 71
2, 6, Note_on_c, 0, 67, 69
2, 6, Note_on_c, 0, 56, 56
2, 7, Control_c, 0, 64, 0
2, 8, Note_on_c, 0, 62, 55
2, 43, Control_c, 0, 64, 127
2, 265, Note_on_c, 0, 67, 0
2, 267, Note_on_c, 0, 72, 0
2, 268, Note_on_c, 0, 76, 0
2, 269, Note_on_c, 0, 62, 0
2, 289, Note_on_c, 0, 56, 0
2, 366, Note_on_c, 0, 77, 40
2, 369, Note_on_c, 0, 69, 47
2, 372, Note_on_c, 0, 65, 29
2, 372, Note_on_c, 0, 72, 33
2, 372, Note_on_c, 0, 55, 54
2, 373, Note_on_c, 0, 61, 28
2, 378, Control_c, 0, 64, 0
2, 418, Control_c, 0, 64, 127
2, 583, Note_on_c, 0, 55, 0
2, 588, Note_on_c, 0, 61, 0
2, 598, Note_on_c, 0, 77, 0
2, 608, Note_on_c, 0, 65, 0
2, 620, Note_on_c, 0, 69, 0
2, 622, Note_on_c, 0, 72, 0
2, 719, Note_on_c, 0, 76, 37
2, 719, Note_on_c, 0, 69, 45
2, 720, Note_on_c, 0, 65, 28
2, 721, Control_c, 0, 64, 0
2, 721, Note_on_c, 0, 60, 31
2, 721, Note_on_c, 0, 57, 33
2, 727, Note_on_c, 0, 50, 30
2, 763, Control_c, 0, 64, 127
2, 813, Note_on_c, 0, 65, 0
2, 825, Note_on_c, 0, 69, 0
2, 833, Note_on_c, 0, 76, 0
2, 939, Note_on_c, 0, 50, 0
2, 945, Note_on_c, 0, 60, 0
2, 951, Note_on_c, 0, 57, 0
2, 999, Note_on_c, 0, 76, 80
2, 1000, Note_on_c, 0, 79, 68
2, 1020, Note_on_c, 0, 79, 0
2, 1023, Note_on_c, 0, 76, 0
2, 1035, Note_on_c, 0, 77, 66
2, 1038, Note_on_c, 0, 74, 61
2, 1053, Note_on_c, 0, 74, 0
2, 1058, Note_on_c, 0, 77, 0
2, 1082, Note_on_c, 0, 70, 69
2, 1083, Note_on_c, 0, 74, 67
2, 1085, Note_on_c, 0, 60, 44
2, 1086, Note_on_c, 0, 54, 46
2, 1090, Control_c, 0, 64, 0
2, 1128, Control_c, 0, 64, 127
2, 1204, Note_on_c, 0, 60, 0
2, 1208, Note_on_c, 0, 70, 0
2, 1235, Note_on_c, 0, 54, 0
2, 1275, Note_on_c, 0, 70, 40
2, 1278, Note_on_c, 0, 65, 40
2, 1280, Note_on_c, 0, 60, 44
2, 1282, Note_on_c, 0, 54, 32
2, 1299, Note_on_c, 0, 60, 0
2, 1310, Note_on_c, 0, 54, 0
2, 1314, Note_on_c, 0, 74, 0
2, 1320, Note_on_c, 0, 70, 0
2, 1326, Note_on_c, 0, 65, 0
2, 1439, Note_on_c, 0, 53, 32
2, 1443, Note_on_c, 0, 50, 28
2, 1443, Note_on_c, 0, 43, 34
2, 1444, Note_on_c, 0, 58, 35
2, 1445, Note_on_c, 0, 55, 22
2, 1453, Control_c, 0, 64, 0
2, 1495, Control_c, 0, 64, 127
2, 1630, Note_on_c, 0, 53, 0
2, 1631, Note_on_c, 0, 55, 0
2, 1642, Note_on_c, 0, 58, 0
2, 1678, Note_on_c, 0, 43, 0
2, 1687, Note_on_c, 0, 50, 0
2, 1715, Note_on_c, 0, 61, 62
2, 1735, Note_on_c, 0, 61, 0
2, 1753, Note_on_c, 0, 62, 58
2, 1767, Note_on_c, 0, 62, 0
2, 1802, Note_on_c, 0, 67, 89
2, 1803, Note_on_c, 0, 72, 74
2, 1804, Note_on_c, 0, 56, 64
2, 1805, Note_on_c, 0, 62, 66
2, 1812, Control_c, 0, 64, 0
2, 1852, Control_c, 0, 64, 127
2, 1897, Note_on_c, 0, 64, 53
2, 1911, Note_on_c, 0, 67, 0
2, 1937, Note_on_c, 0, 64, 0
2, 1956, Note_on_c, 0, 72, 0
2, 2039, Note_on_c, 0, 56, 0
2, 2055, Note_on_c, 0, 62, 0
2, 2082, Note_on_c, 0, 72, 50
2, 2103, Note_on_c, 0, 72, 0
2, 2119, Note_on_c, 0, 86, 68
2, 2147, Note_on_c, 0, 86, 0
2, 2160, Note_on_c, 0, 64, 37
2, 2162, Note_on_c, 0, 82, 59
2, 2166, Note_on_c, 0, 60, 39
2, 2167, Note_on_c, 0, 59, 37
2, 2173, Control_c, 0, 64, 0
2, 2178, Note_on_c, 0, 82, 0
2, 2181, Note_on_c, 0, 83, 44
2, 2289, Control_c, 0, 64, 127
2, 2347, Note_on_c, 0, 83, 0
2, 2368, Note_on_c, 0, 86, 96
2, 2373, Control_c, 0, 64, 0
2, 2403, Control_c, 0, 64, 127
2, 2419, Note_on_c, 0, 60, 0
2, 2422, Note_on_c, 0, 59, 0
2, 2426, Note_on_c, 0, 64, 0
2, 2467, Note_on_c, 0, 84, 50
2, 2471, Note_on_c, 0, 86, 0
2, 2487, Note_on_c, 0, 84, 0
2, 2489, Note_on_c, 0, 83, 51
2, 2511, Note_on_c, 0, 82, 53
2, 2519, Note_on_c, 0, 83, 0
2, 2532, Note_on_c, 0, 57, 29
2, 2533, Note_on_c, 0, 67, 36
2, 2534, Note_on_c, 0, 63, 35
2, 2535, Note_on_c, 0, 82, 0
2, 2536, Control_c, 0, 64, 0
2, 2540, Note_on_c, 0, 81, 44
2, 2628, Control_c, 0, 64, 127
2, 2723, Note_on_c, 0, 67, 0
2, 2731, Note_on_c, 0, 63, 0
2, 2731, Note_on_c, 0, 57, 0
2, 2864, Note_on_c, 0, 81, 0
2, 2881, Note_on_c, 0, 57, 37
2, 2881, Note_on_c, 0, 81, 57
2, 2882, Note_on_c, 0, 60, 39
2, 2882, Note_on_c, 0, 64, 20
2, 2885, Control_c, 0, 64, 0
2, 2886, Note_on_c, 0, 53, 19
2, 2925, Control_c, 0, 64, 127
2, 2968, Note_on_c, 0, 81, 0
2, 3007, Note_on_c, 0, 64, 0
2, 3013, Note_on_c, 0, 57, 0
2, 3016, Note_on_c, 0, 60, 0
2, 3031, Note_on_c, 0, 53, 0
2, 3072, Note_on_c, 0, 53, 26
2, 3073, Note_on_c, 0, 81, 54
2, 3075, Note_on_c, 0, 69, 50
2, 3075, Note_on_c, 0, 57, 34
2, 3077, Note_on_c, 0, 64, 24
2, 3077, Note_on_c, 0, 60, 31
2, 3083, Note_on_c, 0, 69, 0
2, 3091, Note_on_c, 0, 64, 0
2, 3091, Note_on_c, 0, 60, 0
2, 3093, Note_on_c, 0, 81, 0
2, 3100, Note_on_c, 0, 57, 0
2, 3104, Note_on_c, 0, 53, 0
2, 3154, Note_on_c, 0, 86, 88
2, 3156, Note_on_c, 0, 53, 51
2, 3156, Note_on_c, 0, 74, 80
2, 3159, Note_on_c, 0, 60, 50
2, 3159, Note_on_c, 0, 64, 52
2, 3160, Note_on_c, 0, 57, 45
2, 3178, Note_on_c, 0, 86, 0
2, 3182, Note_on_c, 0, 64, 0
2, 3182, Note_on_c, 0, 60, 0
2, 3185, Note_on_c, 0, 57, 0
2, 3188, Note_on_c, 0, 74, 0
2, 3192, Note_on_c, 0, 53, 0
2, 3242, Note_on_c, 0, 83, 66
2, 3244, Control_c, 0, 64, 0
2, 3244, Note_on_c, 0, 71, 57
2, 3245, Note_on_c, 0, 76, 53
2, 3246, Note_on_c, 0, 52, 41
2, 3247, Note_on_c, 0, 59, 39
2, 3247, Note_on_c, 0, 62, 43
2, 3248, Note_on_c, 0, 55, 47
2, 3290, Control_c, 0, 64, 127
2, 3412, Note_on_c, 0, 83, 0
2, 3429, Note_on_c, 0, 76, 0
2, 3446, Note_on_c, 0, 62, 0
2, 3454, Note_on_c, 0, 71, 0
2, 3460, Note_on_c, 0, 59, 0
2, 3481, Note_on_c, 0, 55, 0
2, 3484, Note_on_c, 0, 52, 0
2, 3600, Note_on_c, 0, 71, 56
2, 3601, Note_on_c, 0, 63, 35
2, 3601, Note_on_c, 0, 66, 49
2, 3602, Note_on_c, 0, 59, 40
2, 3603, Note_on_c, 0, 51, 35
2, 3603, Note_on_c, 0, 60, 44
2, 3609, Control_c, 0, 64, 0
2, 3661, Control_c, 0, 64, 127
2, 3704, Note_on_c, 0, 60, 0
2, 3711, Note_on_c, 0, 63, 0
2, 3713, Note_on_c, 0, 66, 0
2, 3719, Note_on_c, 0, 71, 0
2, 3719, Note_on_c, 0, 59, 0
2, 3788, Note_on_c, 0, 72, 85
2, 3791, Note_on_c, 0, 59, 42
2, 3801, Control_c, 0, 64, 0
2, 3829, Control_c, 0, 64, 127
2, 3845, Note_on_c, 0, 72, 0
2, 3875, Note_on_c, 0, 71, 68
2, 3887, Note_on_c, 0, 51, 0
2, 3890, Note_on_c, 0, 59, 0
2, 3911, Note_on_c, 0, 71, 0
2, 3962, Note_on_c, 0, 69, 54
2, 3963, Note_on_c, 0, 64, 46
2, 3964, Note_on_c, 0, 60, 39
2, 3965, Note_on_c, 0, 52, 48
2, 3968, Control_c, 0, 64, 0
2, 4006, Control_c, 0, 64, 127
2, 4056, Note_on_c, 0, 60, 0
2, 4062, Note_on_c, 0, 69, 0
2, 4064, Note_on_c, 0, 64, 0
2, 4099, Note_on_c, 0, 52, 0
2, 4150, Note_on_c, 0, 52, 52
2, 4151, Note_on_c, 0, 67, 50
2, 4151, Note_on_c, 0, 64, 43
2, 4153, Note_on_c, 0, 60, 36
2, 4156, Control_c, 0, 64, 0
2, 4178, Control_c, 0, 64, 127
2, 4179, Note_on_c, 0, 52, 0
2, 4193, Note_on_c, 0, 67, 0
2, 4196, Note_on_c, 0, 64, 0
2, 4206, Note_on_c, 0, 60, 0
2, 4303, Control_c, 0, 64, 0
2, 4313, Note_on_c, 0, 57, 38
2, 4313, Note_on_c, 0, 64, 37
2, 4315, Note_on_c, 0, 60, 38
2, 4317, Note_on_c, 0, 41, 38
2, 4325, Note_on_c, 0, 57, 0
2, 4327, Note_on_c, 0, 41, 0
2, 4327, Control_c, 0, 64, 127
2, 4329, Note_on_c, 0, 60, 0
2, 4336, Note_on_c, 0, 64, 0
2, 4440, Note_on_c, 0, 53, 57
2, 4440, Note_on_c, 0, 64, 64
2, 4441, Note_on_c, 0, 60, 59
2, 4441, Note_on_c, 0, 57, 67
2, 4442, Note_on_c, 0, 83, 78
2, 4442, Note_on_c, 0, 88, 80
2, 4443, Note_on_c, 0, 76, 71
2, 4464, Note_on_c, 0, 64, 0
2, 4471, Note_on_c, 0, 76, 0
2, 4476, Note_on_c, 0, 53, 0
2, 4477, Note_on_c, 0, 88, 0
2, 4478, Note_on_c, 0, 83, 0
2, 4483, Note_on_c, 0, 57, 0
2, 4493, Note_on_c, 0, 60, 0
2, 4559, Note_on_c, 0, 60, 62
2, 4559, Note_on_c, 0, 64, 64
2, 4559, Note_on_c, 0, 89, 80
2, 4560, Note_on_c, 0, 53, 57
2, 4560, Control_c, 0, 64, 0
2, 4560, Note_on_c, 0, 57, 60
2, 4560, Note_on_c, 0, 77, 80
2, 4561, Note_on_c, 0, 84, 83
2, 4572, Control_c, 0, 64, 127
2, 4573, Note_on_c, 0, 77, 0
2, 4574, Note_on_c, 0, 64, 0
2, 4574, Note_on_c, 0, 84, 0
2, 4575, Note_on_c, 0, 60, 0
2, 4575, Note_on_c, 0, 89, 0
2, 4581, Note_on_c, 0, 53, 0
2, 4584, Note_on_c, 0, 57, 0
2, 4633, Note_on_c, 0, 64, 50
2, 4635, Note_on_c, 0, 60, 34
2, 4637, Note_on_c, 0, 88, 68
2, 4637, Note_on_c, 0, 83, 71
2, 4638, Note_on_c, 0, 76, 74
2, 4639, Note_on_c, 0, 86, 65
2, 4643, Note_on_c, 0, 60, 0
2, 4645, Note_on_c, 0, 64, 0
2, 4647, Note_on_c, 0, 86, 0
2, 4652, Note_on_c, 0, 83, 0
2, 4652, Note_on_c, 0, 88, 0
2, 4656, Note_on_c, 0, 76, 0
2, 4687, Note_on_c, 0, 57, 70
2, 4690, Control_c, 0, 64, 0
2, 4691, Note_on_c, 0, 63, 56
2, 4691, Note_on_c, 0, 67, 58
2, 4691, Note_on_c, 0, 86, 74
2, 4691, Note_on_c, 0, 79, 61
2, 4693, Note_on_c, 0, 74, 49
2, 4722, Control_c, 0, 64, 127
2, 4831, Note_on_c, 0, 57, 0
2, 4839, Note_on_c, 0, 67, 0
2, 4844, Note_on_c, 0, 63, 0
2, 4876, Note_on_c, 0, 67, 50
2, 4880, Note_on_c, 0, 63, 33
2, 4884, Note_on_c, 0, 57, 38
2, 4957, Note_on_c, 0, 57, 0
2, 4962, Note_on_c, 0, 67, 0
2, 5004, Note_on_c, 0, 63, 0
2, 5041, Note_on_c, 0, 67, 51
2, 5044, Note_on_c, 0, 62, 40
2, 5045, Control_c, 0, 64, 0
2, 5047, Note_on_c, 0, 56, 31
2, 5079, Control_c, 0, 64, 127
2, 5132, Note_on_c, 0, 74, 0
2, 5135, Note_on_c, 0, 79, 0
2, 5147, Note_on_c, 0, 86, 0
2, 5148, Note_on_c, 0, 67, 0
2, 5148, Note_on_c, 0, 56, 0
2, 5178, Note_on_c, 0, 62, 0
2, 5232, Note_on_c, 0, 82, 50
2, 5234, Note_on_c, 0, 83, 76
2, 5239, Note_on_c, 0, 62, 52
2, 5240, Note_on_c, 0, 67, 62
2, 5241, Note_on_c, 0, 82, 0
2, 5243, Note_on_c, 0, 56, 44
2, 5250, Control_c, 0, 64, 0
2, 5253, Note_on_c, 0, 84, 81
2, 5261, Note_on_c, 0, 83, 0
2, 5282, Control_c, 0, 64, 127
2, 5321, Note_on_c, 0, 67, 0
2, 5322, Note_on_c, 0, 62, 0
2, 5343, Note_on_c, 0, 56, 0
2, 5350, Note_on_c, 0, 83, 61
2, 5358, Note_on_c, 0, 84, 0
2, 5373, Note_on_c, 0, 82, 57
2, 5376, Note_on_c, 0, 83, 0
2, 5400, Note_on_c, 0, 82, 0
2, 5404, Note_on_c, 0, 81, 51
2, 5420, Control_c, 0, 64, 0
2, 5462, Control_c, 0, 64, 127
2, 5468, Control_c, 0, 64, 0
2, 5475, Note_on_c, 0, 66, 59
2, 5479, Note_on_c, 0, 61, 46
2, 5480, Note_on_c, 0, 55, 52
2, 5486, Note_on_c, 0, 61, 0
2, 5487, Note_on_c, 0, 55, 0
2, 5489, Note_on_c, 0, 66, 0
2, 5555, Control_c, 0, 64, 127
2, 5557, Note_on_c, 0, 66, 47
2, 5557, Note_on_c, 0, 61, 38
2, 5564, Note_on_c, 0, 55, 29
2, 5575, Note_on_c, 0, 55, 0
2, 5575, Note_on_c, 0, 66, 0
2, 5580, Note_on_c, 0, 61, 0
2, 5637, Note_on_c, 0, 66, 49
2, 5638, Note_on_c, 0, 61, 44
2, 5651, Note_on_c, 0, 81, 0
2, 5655, Note_on_c, 0, 66, 0
2, 5659, Note_on_c, 0, 61, 0
2, 5757, Note_on_c, 0, 88, 49
2, 5758, Note_on_c, 0, 67, 49
2, 5758, Note_on_c, 0, 79, 38
2, 5759, Note_on_c, 0, 62, 40
2, 5760, Note_on_c, 0, 84, 52
2, 5760, Note_on_c, 0, 56, 37
2, 5761, Control_c, 0, 64, 0
2, 5776, Note_on_c, 0, 79, 0
2, 5788, Note_on_c, 0, 84, 0
2, 5791, Control_c, 0, 64, 127
2, 5793, Note_on_c, 0, 88, 0
2, 5802, Note_on_c, 0, 67, 0
2, 5809, Note_on_c, 0, 62, 0
2, 5819, Note_on_c, 0, 56, 0
2, 5902, Control_c, 0, 64, 0
2, 5952, Note_on_c, 0, 46, 50
2, 5952, Note_on_c, 0, 55, 67
2, 5952, Note_on_c, 0, 64, 63
2, 5952, Note_on_c, 0, 60, 66
2, 5954, Note_on_c, 0, 56, 40
2, 5959, Note_on_c, 0, 60, 0
2, 5959, Note_on_c, 0, 55, 0
2, 5962, Note_on_c, 0, 56, 0
2, 5963, Note_on_c, 0, 64, 0
2, 5970, Note_on_c, 0, 46, 0
2, 5997, Note_on_c, 0, 56, 52
2, 5999, Note_on_c, 0, 64, 69
2, 6000, Note_on_c, 0, 60, 71
2, 6001, Note_on_c, 0, 55, 63
2, 6007, Note_on_c, 0, 60, 0
2, 6007, Note_on_c, 0, 56, 0
2, 6008, Note_on_c, 0, 55, 0
2, 6011, Note_on_c, 0, 64, 0
2, 6062, Control_c, 0, 64, 127
2, 6075, Note_on_c, 0, 46, 52
2, 6076, Note_on_c, 0, 64, 57
2, 6076, Note_on_c, 0, 60, 63
2, 6079, Note_on_c, 0, 55, 51
2, 6084, Note_on_c, 0, 60, 0
2, 6089, Note_on_c, 0, 55, 0
2, 6094, Note_on_c, 0, 64, 0
2, 6099, Note_on_c, 0, 46, 0
2, 6116, Control_c, 0, 64, 0
2, 6125, Note_on_c, 0, 58, 60
2, 6126, Note_on_c, 0, 45, 55
2, 6127, Note_on_c, 0, 65, 55
2, 6127, Note_on_c, 0, 61, 53
2, 6142, Control_c, 0, 64, 127
2, 6147, Note_on_c, 0, 45, 0
2, 6150, Note_on_c, 0, 58, 0
2, 6157, Note_on_c, 0, 61, 0
2, 6163, Note_on_c, 0, 65, 0
2, 6318, Note_on_c, 0, 70, 75
2, 6318, Note_on_c, 0, 77, 76
2, 6318, Note_on_c, 0, 73, 52
2, 6319, Note_on_c, 0, 61, 71
2, 6319, Note_on_c, 0, 65, 74
2, 6320, Note_on_c, 0, 55, 73
2, 6325, Control_c, 0, 64, 0
2, 6354, Control_c, 0, 64, 127
2, 6391, Note_on_c, 0, 55, 0
2, 6392, Note_on_c, 0, 61, 0
2, 6399, Note_on_c, 0, 77, 0
2, 6418, Note_on_c, 0, 65, 0
2, 6425, Note_on_c, 0, 73, 0
2, 6425, Note_on_c, 0, 70, 0
2, 6474, Note_on_c, 0, 76, 53
2, 6475, Note_on_c, 0, 69, 55
2, 6476, Note_on_c, 0, 60, 47
2, 6476, Note_on_c, 0, 57, 36
2, 6477, Note_on_c, 0, 50, 36
2, 6478, Control_c, 0, 64, 0
2, 6478, Note_on_c, 0, 65, 40
2, 6514, Control_c, 0, 64, 127
2, 6557, Note_on_c, 0, 65, 0
2, 6567, Note_on_c, 0, 69, 0
2, 6577, Note_on_c, 0, 76, 0
2, 6600, Note_on_c, 0, 60, 0
2, 6614, Note_on_c, 0, 57, 0
2, 6667, Note_on_c, 0, 76, 80
2, 6668, Note_on_c, 0, 79, 68
2, 6668, Note_on_c, 0, 60, 45
2, 6673, Note_on_c, 0, 57, 31
2, 6701, Note_on_c, 0, 57, 0
2, 6704, Note_on_c, 0, 50, 0
2, 6709, Note_on_c, 0, 76, 0
2, 6716, Note_on_c, 0, 79, 0
2, 6717, Note_on_c, 0, 60, 0
2, 6741, Note_on_c, 0, 74, 58
2, 6741, Note_on_c, 0, 77, 55
2, 6759, Note_on_c, 0, 74, 0
2, 6763, Note_on_c, 0, 77, 0
2, 6830, Note_on_c, 0, 74, 47
2, 6831, Note_on_c, 0, 70, 33
2, 6834, Note_on_c, 0, 54, 37
2, 6835, Note_on_c, 0, 65, 32
2, 6837, Control_c, 0, 64, 0
2, 6839, Note_on_c, 0, 60, 28
2, 6875, Control_c, 0, 64, 127
2, 6956, Note_on_c, 0, 60, 0
2, 6977, Note_on_c, 0, 65, 0
2, 6982, Note_on_c, 0, 70, 0
2, 7006, Note_on_c, 0, 54, 0
2, 7202, Note_on_c, 0, 62, 28
2, 7206, Note_on_c, 0, 57, 33
2, 7207, Note_on_c, 0, 55, 33
2, 7209, Note_on_c, 0, 58, 32
2, 7210, Control_c, 0, 64, 0
2, 7246, Control_c, 0, 64, 127
2, 7307, Note_on_c, 0, 58, 0
2, 7307, Note_on_c, 0, 62, 0
2, 7310, Note_on_c, 0, 57, 0
2, 7316, Note_on_c, 0, 55, 0
2, 7387, Note_on_c, 0, 74, 0
2, 7396, Note_on_c, 0, 62, 38
2, 7398, Note_on_c, 0, 58, 33
2, 7401, Note_on_c, 0, 57, 34
2, 7403, Note_on_c, 0, 55, 28
2, 7476, Note_on_c, 0, 73, 38
2, 7479, Note_on_c, 0, 57, 0
2, 7484, Note_on_c, 0, 55, 0
2, 7489, Note_on_c, 0, 58, 0
2, 7490, Note_on_c, 0, 62, 0
2, 7494, Note_on_c, 0, 73, 0
2, 7513, Note_on_c, 0, 74, 66
2, 7530, Note_on_c, 0, 74, 0
2, 7563, Note_on_c, 0, 67, 52
2, 7564, Note_on_c, 0, 84, 71
2, 7565, Note_on_c, 0, 56, 37
2, 7568, Note_on_c, 0, 62, 39
2, 7569, Control_c, 0, 64, 0
2, 7599, Control_c, 0, 64, 127
2, 7686, Note_on_c, 0, 67, 0
2, 7698, Note_on_c, 0, 62, 0
2, 7701, Note_on_c, 0, 56, 0
2, 7757, Note_on_c, 0, 65, 40
2, 7760, Note_on_c, 0, 62, 36
2, 7762, Note_on_c, 0, 56, 26
2, 7818, Note_on_c, 0, 62, 0
2, 7831, Note_on_c, 0, 65, 0
2, 7839, Note_on_c, 0, 84, 0
2, 7847, Note_on_c, 0, 56, 0
2, 7918, Note_on_c, 0, 64, 24
2, 7922, Note_on_c, 0, 59, 32
2, 7924, Note_on_c, 0, 60, 40
2, 7924, Note_on_c, 0, 57, 39
2, 7928, Control_c, 0, 64, 0
2, 7970, Control_c, 0, 64, 127
2, 7992, Control_c, 0, 64, 0
2, 8011, Note_on_c, 0, 83, 77
2, 8023, Note_on_c, 0, 83, 0
2, 8075, Note_on_c, 0, 85, 70
2, 8084, Note_on_c, 0, 86, 72
2, 8088, Note_on_c, 0, 85, 0
2, 8102, Control_c, 0, 64, 127
2, 8111, Note_on_c, 0, 60, 0
2, 8114, Note_on_c, 0, 59, 0
2, 8117, Note_on_c, 0, 86, 0
2, 8121, Note_on_c, 0, 64, 0
2, 8132, Note_on_c, 0, 57, 0
2, 8145, Control_c, 0, 64, 0
2, 8158, Note_on_c, 0, 85, 58
2, 8164, Note_on_c, 0, 64, 26
2, 8165, Note_on_c, 0, 86, 74
2, 8168, Note_on_c, 0, 59, 27
2, 8169, Note_on_c, 0, 60, 28
2, 8170, Note_on_c, 0, 57, 24
2, 8172, Note_on_c, 0, 85, 0
2, 8182, Note_on_c, 0, 60, 0
2, 8188, Note_on_c, 0, 59, 0
2, 8190, Note_on_c, 0, 86, 0
2, 8190, Note_on_c, 0, 57, 0
2, 8195, Note_on_c, 0, 64, 0
2, 8240, Note_on_c, 0, 84, 72
2, 8256, Note_on_c, 0, 84, 0
2, 8320, Note_on_c, 0, 81, 72
2, 8331, Control_c, 0, 64, 127
2, 8334, Note_on_c, 0, 81, 0
2, 8399, Control_c, 0, 64, 0
2, 8401, Note_on_c, 0, 81, 71
2, 8406, Note_on_c, 0, 65, 49
2, 8411, Note_on_c, 0, 61, 33
2, 8413, Note_on_c, 0, 55, 36
2, 8437, Control_c, 0, 64, 127
2, 8495, Note_on_c, 0, 65, 0
2, 8512, Control_c, 0, 64, 0
2, 8518, Control_c, 0, 64, 127
2, 8521, Note_on_c, 0, 64, 46
2, 8569, Note_on_c, 0, 55, 0
2, 8593, Note_on_c, 0, 64, 0
2, 8599, Note_on_c, 0, 61, 0
2, 8635, Note_on_c, 0, 76, 49
2, 8635, Note_on_c, 0, 53, 24
2, 8639, Note_on_c, 0, 64, 26
2, 8640, Note_on_c, 0, 81, 0
2, 8640, Note_on_c, 0, 57, 33
2, 8641, Note_on_c, 0, 60, 33
2, 8644, Control_c, 0, 64, 0
2, 8690, Control_c, 0, 64, 127
2, 8730, Note_on_c, 0, 76, 0
2, 8765, Note_on_c, 0, 81, 51
2, 8766, Note_on_c, 0, 69, 41
2, 8774, Note_on_c, 0, 57, 0
2, 8774, Note_on_c, 0, 64, 0
2, 8775, Note_on_c, 0, 60, 0
2, 8775, Note_on_c, 0, 69, 0
2, 8784, Note_on_c, 0, 81, 0
2, 8814, Note_on_c, 0, 53, 0
2, 8954, Note_on_c, 0, 64, 72
2, 8957, Note_on_c, 0, 60, 57
2, 8957, Note_on_c, 0, 53, 50
2, 8959, Note_on_c, 0, 86, 82
2, 8961, Note_on_c, 0, 57, 37
2, 8962, Note_on_c, 0, 64, 0
2, 8962, Note_on_c, 0, 74, 40
2, 8964, Note_on_c, 0, 60, 0
2, 8965, Note_on_c, 0, 86, 0
2, 8968, Note_on_c, 0, 57, 0
2, 8968, Note_on_c, 0, 53, 0
2, 8971, Note_on_c, 0, 74, 0
2, 8991, Control_c, 0, 64, 0
2, 9036, Note_on_c, 0, 71, 63
2, 9037, Note_on_c, 0, 78, 50
2, 9037, Note_on_c, 0, 83, 56
2, 9038, Note_on_c, 0, 62, 55
2, 9041, Note_on_c, 0, 55, 56
2, 9042, Note_on_c, 0, 52, 34
2, 9042, Note_on_c, 0, 59, 36
2, 9069, Note_on_c, 0, 78, 0
2, 9073, Note_on_c, 0, 59, 0
2, 9074, Note_on_c, 0, 79, 33
2, 9075, Note_on_c, 0, 52, 0
2, 9078, Note_on_c, 0, 55, 0
2, 9078, Note_on_c, 0, 62, 0
2, 9080, Note_on_c, 0, 71, 0
2, 9083, Note_on_c, 0, 79, 0
2, 9084, Note_on_c, 0, 83, 0
2, 9131, Note_on_c, 0, 78, 52
2, 9133, Note_on_c, 0, 71, 57
2, 9134, Note_on_c, 0, 62, 53
2, 9135, Note_on_c, 0, 83, 37
2, 9138, Note_on_c, 0, 59, 33
2, 9138, Note_on_c, 0, 55, 45
2, 9141, Note_on_c, 0, 52, 31
2, 9179, Note_on_c, 0, 78, 0
2, 9181, Note_on_c, 0, 71, 0
2, 9186, Note_on_c, 0, 83, 0
2, 9190, Note_on_c, 0, 59, 0
2, 9191, Note_on_c, 0, 62, 0
2, 9191, Note_on_c, 0, 55, 0
2, 9192, Note_on_c, 0, 52, 0
2, 9258, Control_c, 0, 64, 127
2, 9338, Control_c, 0, 64, 0
2, 9364, Control_c, 0, 64, 127
2, 9438, Control_c, 0, 64, 0
2, 9439, Note_on_c, 0, 60, 67
2, 9439, Note_on_c, 0, 54, 50
2, 9439, Note_on_c, 0, 78, 63
2, 9440, Note_on_c, 0, 72, 74
2, 9440, Note_on_c, 0, 84, 74
2, 9441, Note_on_c, 0, 81, 60
2, 9444, Note_on_c, 0, 57, 37
2, 9462, Note_on_c, 0, 51, 4
2, 9474, Control_c, 0, 64, 127
2, 9521, Note_on_c, 0, 81, 0
2, 9530, Note_on_c, 0, 84, 0
2, 9541, Note_on_c, 0, 78, 0
2, 9541, Note_on_c, 0, 57, 0
2, 9556, Note_on_c, 0, 72, 0
2, 9559, Note_on_c, 0, 60, 0
2, 9576, Note_on_c, 0, 51, 0
2, 9582, Note_on_c, 0, 54, 0
2, 9599, Control_c, 0, 64, 0
2, 9601, Note_on_c, 0, 54, 30
2, 9603, Note_on_c, 0, 83, 60
2, 9604, Note_on_c, 0, 78, 49
2, 9604, Note_on_c, 0, 51, 29
2, 9605, Note_on_c, 0, 71, 60
2, 9606, Note_on_c, 0, 60, 37
2, 9629, Note_on_c, 0, 60, 0
2, 9635, Control_c, 0, 64, 127
2, 9636, Note_on_c, 0, 83, 0
2, 9643, Note_on_c, 0, 51, 0
2, 9647, Note_on_c, 0, 71, 0
2, 9649, Note_on_c, 0, 78, 0
2, 9656, Note_on_c, 0, 54, 0
2, 9719, Control_c, 0, 64, 0
2, 9723, Note_on_c, 0, 76, 50
2, 9723, Note_on_c, 0, 81, 57
2, 9726, Note_on_c, 0, 62, 32
2, 9727, Note_on_c, 0, 69, 33
2, 9728, Note_on_c, 0, 55, 42
2, 9728, Note_on_c, 0, 52, 31
2, 9729, Note_on_c, 0, 59, 30
2, 9761, Control_c, 0, 64, 127
2, 9824, Note_on_c, 0, 59, 0
2, 9825, Note_on_c, 0, 81, 0
2, 9825, Note_on_c, 0, 62, 0
2, 9833, Note_on_c, 0, 55, 0
2, 9838, Note_on_c, 0, 69, 0
2, 9862, Note_on_c, 0, 76, 0
2, 9912, Note_on_c, 0, 79, 51
2, 9913, Note_on_c, 0, 62, 47
2, 9915, Note_on_c, 0, 76, 47
2, 9916, Note_on_c, 0, 67, 41
2, 9917, Note_on_c, 0, 72, 35
2, 9918, Note_on_c, 0, 59, 32
2, 9918, Note_on_c, 0, 55, 33
2, 9922, Control_c, 0, 64, 0
2, 9942, Control_c, 0, 64, 127
2, 9945, Note_on_c, 0, 67, 0
2, 9953, Note_on_c, 0, 55, 0
2, 9962, Note_on_c, 0, 52, 0
2, 9964, Note_on_c, 0, 59, 0
2, 9967, Note_on_c, 0, 72, 0
2, 9979, Note_on_c, 0, 79, 0
2, 9980, Note_on_c, 0, 76, 0
2, 9988, Note_on_c, 0, 62, 0
2, 10071, Note_on_c, 0, 88, 84
2, 10077, Note_on_c, 0, 84, 75
2, 10081, Note_on_c, 0, 53, 42
2, 10082, Note_on_c, 0, 57, 45
2, 10083, Control_c, 0, 64, 0
2, 10083, Note_on_c, 0, 81, 64
2, 10084, Note_on_c, 0, 64, 35
2, 10087, Note_on_c, 0, 60, 40
2, 10095, Note_on_c, 0, 76, 49
2, 10115, Control_c, 0, 64, 127
2, 10168, Note_on_c, 0, 60, 0
2, 10169, Note_on_c, 0, 64, 0
2, 10173, Note_on_c, 0, 53, 0
2, 10173, Note_on_c, 0, 57, 0
2, 10174, Note_on_c, 0, 76, 0
2, 10181, Note_on_c, 0, 81, 0
2, 10181, Note_on_c, 0, 88, 0
2, 10186, Note_on_c, 0, 84, 0
2, 10268, Note_on_c, 0, 89, 79
2, 10272, Note_on_c, 0, 64, 55
2, 10273, Note_on_c, 0, 53, 42
2, 10274, Note_on_c, 0, 57, 53
2, 10274, Note_on_c, 0, 84, 76
2, 10275, Control_c, 0, 64, 0
2, 10275, Note_on_c, 0, 60, 46
2, 10276, Note_on_c, 0, 77, 63
2, 10301, Note_on_c, 0, 84, 0
2, 10303, Control_c, 0, 64, 127
2, 10304, Note_on_c, 0, 89, 0
2, 10311, Note_on_c, 0, 60, 0
2, 10312, Note_on_c, 0, 77, 0
2, 10313, Note_on_c, 0, 64, 0
2, 10314, Note_on_c, 0, 57, 0
2, 10320, Note_on_c, 0, 53, 0
2, 10350, Note_on_c, 0, 88, 43
2, 10354, Note_on_c, 0, 83, 70
2, 10356, Note_on_c, 0, 53, 36
2, 10356, Note_on_c, 0, 64, 45
2, 10357, Note_on_c, 0, 86, 27
2, 10359, Note_on_c, 0, 76, 55
2, 10359, Note_on_c, 0, 60, 43
2, 10360, Note_on_c, 0, 57, 37
2, 10369, Note_on_c, 0, 53, 0
2, 10370, Note_on_c, 0, 57, 0
2, 10370, Note_on_c, 0, 60, 0
2, 10375, Note_on_c, 0, 83, 0
2, 10376, Note_on_c, 0, 88, 0
2, 10376, Note_on_c, 0, 64, 0
2, 10376, Note_on_c, 0, 76, 0
2, 10381, Note_on_c, 0, 86, 0
2, 10433, Note_on_c, 0, 86, 80
2, 10436, Note_on_c, 0, 83, 62
2, 10438, Note_on_c, 0, 63, 56
2, 10439, Note_on_c, 0, 57, 58
2, 10439, Note_on_c, 0, 67, 65
2, 10440, Note_on_c, 0, 79, 57
2, 10441, Control_c, 0, 64, 0
2, 10443, Note_on_c, 0, 74, 50
2, 10480, Control_c, 0, 64, 127
2, 10559, Note_on_c, 0, 79, 0
2, 10560, Note_on_c, 0, 67, 0
2, 10566, Note_on_c, 0, 57, 0
2, 10567, Note_on_c, 0, 63, 0
2, 10593, Note_on_c, 0, 74, 0
2, 10641, Note_on_c, 0, 83, 0
2, 10663, Note_on_c, 0, 86, 0
2, 10677, Note_on_c, 0, 67, 34
2, 10677, Note_on_c, 0, 74, 40
2, 10677, Note_on_c, 0, 79, 32
2, 10678, Note_on_c, 0, 63, 31
2, 10678, Note_on_c, 0, 57, 34
2, 10712, Note_on_c, 0, 79, 0
2, 10724, Note_on_c, 0, 74, 0
2, 10737, Note_on_c, 0, 67, 0
2, 10742, Note_on_c, 0, 57, 0
2, 10772, Note_on_c, 0, 63, 0
2, 10802, Control_c, 0, 64, 0
2, 10805, Note_on_c, 0, 72, 36
2, 10807, Note_on_c, 0, 62, 35
2, 10807, Note_on_c, 0, 76, 43
2, 10809, Note_on_c, 0, 65, 32
2, 10810, Note_on_c, 0, 56, 30
2, 10837, Control_c, 0, 64, 127
2, 10880, Note_on_c, 0, 76, 0
2, 10888, Note_on_c, 0, 84, 73
2, 10947, Note_on_c, 0, 62, 0
2, 10955, Note_on_c, 0, 56, 0
2, 10964, Note_on_c, 0, 65, 0
2, 11004, Note_on_c, 0, 65, 54
2, 11009, Note_on_c, 0, 56, 26
2, 11011, Note_on_c, 0, 62, 29
2, 11014, Note_on_c, 0, 65, 0
2, 11020, Note_on_c, 0, 62, 0
2, 11023, Note_on_c, 0, 56, 0
2, 11072, Note_on_c, 0, 72, 0
2, 11079, Note_on_c, 0, 84, 0
2, 11096, Note_on_c, 0, 83, 83
2, 11149, Note_on_c, 0, 82, 34
2, 11158, Note_on_c, 0, 83, 0
2, 11167, Note_on_c, 0, 82, 0
2, 11178, Note_on_c, 0, 81, 34
2, 11180, Note_on_c, 0, 66, 39
2, 11181, Note_on_c, 0, 61, 43
2, 11184, Note_on_c, 0, 55, 38
2, 11194, Control_c, 0, 64, 0
2, 11232, Control_c, 0, 64, 127
2, 11278, Note_on_c, 0, 55, 0
2, 11289, Note_on_c, 0, 66, 0
2, 11295, Note_on_c, 0, 61, 0
2, 11357, Note_on_c, 0, 66, 38
2, 11358, Note_on_c, 0, 61, 35
2, 11358, Note_on_c, 0, 55, 40
2, 11360, Note_on_c, 0, 81, 0
2, 11405, Note_on_c, 0, 55, 0
2, 11410, Note_on_c, 0, 66, 0
2, 11459, Note_on_c, 0, 61, 0
2, 11511, Note_on_c, 0, 61, 33
2, 11514, Note_on_c, 0, 54, 31
2, 11517, Control_c, 0, 64, 0
2, 11517, Note_on_c, 0, 64, 30
2, 11523, Note_on_c, 0, 59, 20
2, 11563, Control_c, 0, 64, 127
2, 11632, Note_on_c, 0, 59, 0
2, 11640, Note_on_c, 0, 81, 79
2, 11643, Note_on_c, 0, 64, 0
2, 11652, Note_on_c, 0, 61, 0
2, 11655, Note_on_c, 0, 81, 0
2, 11659, Note_on_c, 0, 54, 0
2, 11717, Note_on_c, 0, 81, 80
2, 11731, Note_on_c, 0, 81, 0
2, 11751, Control_c, 0, 64, 0
2, 11755, Note_on_c, 0, 54, 43
2, 11756, Note_on_c, 0, 61, 36
2, 11757, Note_on_c, 0, 64, 41
2, 11757, Note_on_c, 0, 86, 96
2, 11758, Note_on_c, 0, 59, 63
2, 11771, Control_c, 0, 64, 127
2, 11778, Note_on_c, 0, 86, 0
2, 11784, Note_on_c, 0, 64, 0
2, 11794, Note_on_c, 0, 61, 0
2, 11798, Note_on_c, 0, 59, 0
2, 11805, Note_on_c, 0, 54, 0
2, 11833, Note_on_c, 0, 86, 95
2, 11836, Note_on_c, 0, 61, 36
2, 11837, Note_on_c, 0, 64, 36
2, 11840, Note_on_c, 0, 59, 34
2, 11849, Note_on_c, 0, 64, 0
2, 11852, Note_on_c, 0, 86, 0
2, 11853, Note_on_c, 0, 59, 0
2, 11862, Note_on_c, 0, 61, 0
2, 11875, Note_on_c, 0, 87, 75
2, 11877, Note_on_c, 0, 75, 74
2, 11879, Note_on_c, 0, 64, 60
2, 11881, Note_on_c, 0, 85, 36
2, 11882, Note_on_c, 0, 60, 56
2, 11882, Note_on_c, 0, 55, 45
2, 11883, Control_c, 0, 64, 0
2, 11891, Note_on_c, 0, 57, 26
2, 11908, Note_on_c, 0, 85, 0
2, 11910, Note_on_c, 0, 87, 0
2, 11914, Note_on_c, 0, 75, 0
2, 11914, Note_on_c, 0, 88, 29
2, 11922, Note_on_c, 0, 76, 22
2, 11961, Note_on_c, 0, 88, 0
2, 11963, Note_on_c, 0, 76, 0
2, 11964, Note_on_c, 0, 55, 0
2, 11966, Note_on_c, 0, 64, 0
2, 11966, Note_on_c, 0, 60, 0
2, 11968, Note_on_c, 0, 57, 0
2, 11996, Note_on_c, 0, 64, 33
2, 11998, Note_on_c, 0, 88, 60
2, 11998, Note_on_c, 0, 60, 44
2, 12000, Note_on_c, 0, 55, 36
2, 12000, Note_on_c, 0, 57, 33
2, 12000, Control_c, 0, 64, 127
2, 12002, Note_on_c, 0, 76, 44
2, 12027, Note_on_c, 0, 76, 0
2, 12037, Note_on_c, 0, 60, 0
2, 12039, Note_on_c, 0, 88, 0
2, 12042, Note_on_c, 0, 64, 0
2, 12044, Note_on_c, 0, 55, 0
2, 12047, Note_on_c, 0, 57, 0
2, 12086, Note_on_c, 0, 91, 74
2, 12086, Note_on_c, 0, 79, 61
2, 12087, Note_on_c, 0, 64, 55
2, 12088, Note_on_c, 0, 60, 50
2, 12090, Note_on_c, 0, 55, 37
2, 12091, Note_on_c, 0, 57, 39
2, 12092, Control_c, 0, 64, 0
2, 12093, Note_on_c, 0, 79, 0
2, 12096, Note_on_c, 0, 64, 0
2, 12098, Note_on_c, 0, 60, 0
2, 12099, Note_on_c, 0, 57, 0
2, 12100, Note_on_c, 0, 55, 0
2, 12102, Note_on_c, 0, 91, 0
2, 12110, Control_c, 0, 64, 127
2, 12155, Note_on_c, 0, 95, 75
2, 12157, Note_on_c, 0, 83, 62
2, 12158, Note_on_c, 0, 64, 48
2, 12158, Note_on_c, 0, 55, 50
2, 12159, Note_on_c, 0, 57, 40
2, 12161, Note_on_c, 0, 60, 33
2, 12164, Note_on_c, 0, 83, 0
2, 12166, Note_on_c, 0, 64, 0
2, 12167, Note_on_c, 0, 55, 0
2, 12167, Note_on_c, 0, 57, 0
2, 12169, Note_on_c, 0, 60, 0
2, 12169, Note_on_c, 0, 95, 0
2, 12194, Note_on_c, 0, 55, 55
2, 12196, Note_on_c, 0, 64, 44
2, 12198, Note_on_c, 0, 100, 87
2, 12198, Note_on_c, 0, 60, 40
2, 12199, Note_on_c, 0, 88, 77
2, 12204, Note_on_c, 0, 55, 0
2, 12206, Note_on_c, 0, 60, 0
2, 12206, Note_on_c, 0, 64, 0
2, 12206, Note_on_c, 0, 88, 0
2, 12210, Note_on_c, 0, 100, 0
2, 12243, Note_on_c, 0, 59, 72
2, 12243, Note_on_c, 0, 61, 65
2, 12243, Note_on_c, 0, 54, 70
2, 12245, Note_on_c, 0, 90, 82
2, 12245, Note_on_c, 0, 102, 87
2, 12245, Note_on_c, 0, 64, 55
2, 12246, Note_on_c, 0, 65, 51
2, 12249, Control_c, 0, 64, 0
2, 12253, Note_on_c, 0, 65, 0
2, 12273, Control_c, 0, 64, 127
2, 12288, Note_on_c, 0, 90, 0
2, 12291, Note_on_c, 0, 102, 0
2, 12300, Note_on_c, 0, 64, 0
2, 12301, Note_on_c, 0, 59, 0
2, 12301, Note_on_c, 0, 54, 0
2, 12306, Note_on_c, 0, 61, 0
2, 12321, Note_on_c, 0, 61, 60
2, 12323, Note_on_c, 0, 54, 49
2, 12323, Note_on_c, 0, 64, 60
2, 12323, Note_on_c, 0, 105, 81
2, 12325, Note_on_c, 0, 59, 59
2, 12326, Note_on_c, 0, 93, 57
2, 12343, Note_on_c, 0, 105, 0
2, 12349, Note_on_c, 0, 93, 0
2, 12350, Note_on_c, 0, 59, 0
2, 12352, Note_on_c, 0, 54, 0
2, 12358, Note_on_c, 0, 64, 0
2, 12360, Note_on_c, 0, 61, 0
2, 12407, Note_on_c, 0, 54, 45
2, 12407, Note_on_c, 0, 102, 62
2, 12409, Note_on_c, 0, 90, 50
2, 12409, Note_on_c, 0, 64, 33
2, 12410, Note_on_c, 0, 61, 30
2, 12412, Note_on_c, 0, 59, 47
2, 12432, Note_on_c, 0, 102, 0
2, 12433, Note_on_c, 0, 90, 0
2, 12440, Note_on_c, 0, 59, 0
2, 12441, Note_on_c, 0, 64, 0
2, 12443, Note_on_c, 0, 61, 0
2, 12454, Note_on_c, 0, 54, 0
2, 12480, Note_on_c, 0, 54, 44
2, 12483, Note_on_c, 0, 61, 44
2, 12484, Note_on_c, 0, 64, 44
2, 12487, Note_on_c, 0, 59, 50
2, 12540, Note_on_c, 0, 59, 0
2, 12542, Note_on_c, 0, 54, 0
2, 12543, Note_on_c, 0, 64, 0
2, 12557, Note_on_c, 0, 61, 0
2, 12572, Note_on_c, 0, 100, 69
2, 12573, Note_on_c, 0, 64, 44
2, 12575, Note_on_c, 0, 57, 44
2, 12575, Note_on_c, 0, 88, 54
2, 12577, Note_on_c, 0, 60, 55
2, 12578, Note_on_c, 0, 55, 54
2, 12584, Control_c, 0, 64, 0
2, 12604, Control_c, 0, 64, 127
2, 12623, Note_on_c, 0, 100, 0
2, 12640, Note_on_c, 0, 60, 0
2, 12650, Note_on_c, 0, 88, 0
2, 12652, Note_on_c, 0, 55, 0
2, 12653, Note_on_c, 0, 64, 0
2, 12655, Note_on_c, 0, 57, 0
2, 12723, Note_on_c, 0, 64, 32
2, 12727, Note_on_c, 0, 60, 33
2, 12728, Note_on_c, 0, 57, 34
2, 12750, Note_on_c, 0, 64, 0
2, 12756, Note_on_c, 0, 60, 0
2, 12773, Note_on_c, 0, 57, 0
2, 12804, Note_on_c, 0, 64, 58
2, 12807, Note_on_c, 0, 60, 56
2, 12807, Note_on_c, 0, 57, 49
2, 12808, Note_on_c, 0, 55, 47
2, 12820, Control_c, 0, 64, 0
2, 12844, Control_c, 0, 64, 127
2, 12860, Note_on_c, 0, 64, 0
2, 12864, Note_on_c, 0, 60, 0
2, 12865, Note_on_c, 0, 55, 0
2, 12873, Note_on_c, 0, 57, 0
2, 12881, Note_on_c, 0, 73, 61
2, 12888, Note_on_c, 0, 74, 81
2, 12889, Note_on_c, 0, 55, 33
2, 12890, Note_on_c, 0, 60, 48
2, 12890, Note_on_c, 0, 64, 41
2, 12893, Note_on_c, 0, 57, 24
2, 12903, Note_on_c, 0, 60, 0
2, 12904, Note_on_c, 0, 73, 0
2, 12905, Note_on_c, 0, 57, 0
2, 12906, Note_on_c, 0, 55, 0
2, 12913, Note_on_c, 0, 64, 0
2, 12938, Note_on_c, 0, 74, 0
2, 12963, Note_on_c, 0, 73, 78
2, 12964, Note_on_c, 0, 54, 49
2, 12964, Note_on_c, 0, 61, 46
2, 12964, Note_on_c, 0, 64, 56
2, 12964, Note_on_c, 0, 59, 62
2, 12971, Control_c, 0, 64, 0
2, 13007, Control_c, 0, 64, 127
2, 13113, Note_on_c, 0, 59, 0
2, 13117, Note_on_c, 0, 64, 0
2, 13123, Note_on_c, 0, 61, 0
2, 13135, Note_on_c, 0, 73, 0
2, 13152, Note_on_c, 0, 72, 67
2, 13156, Note_on_c, 0, 61, 33
2, 13157, Note_on_c, 0, 59, 50
2, 13157, Note_on_c, 0, 64, 34
2, 13166, Control_c, 0, 64, 0
2, 13192, Control_c, 0, 64, 127
2, 13197, Note_on_c, 0, 64, 0
2, 13205, Note_on_c, 0, 61, 0
2, 13206, Note_on_c, 0, 59, 0
2, 13224, Note_on_c, 0, 72, 0
2, 13237, Note_on_c, 0, 71, 64
2, 13238, Note_on_c, 0, 64, 36
2, 13253, Note_on_c, 0, 64, 0
2, 13260, Note_on_c, 0, 54, 0
2, 13284, Note_on_c, 0, 71, 0
2, 13320, Note_on_c, 0, 64, 50
2, 13323, Note_on_c, 0, 61, 33
2, 13324, Control_c, 0, 64, 0
2, 13325, Note_on_c, 0, 55, 32
2, 13364, Control_c, 0, 64, 127
2, 13388, Note_on_c, 0, 61, 0
2, 13403, Note_on_c, 0, 55, 0
2, 13422, Note_on_c, 0, 64, 0
2, 13515, Note_on_c, 0, 64, 54
2, 13518, Note_on_c, 0, 60, 31
2, 13519, Note_on_c, 0, 55, 36
2, 13521, Control_c, 0, 64, 0
2, 13521, Note_on_c, 0, 59, 42
2, 13551, Control_c, 0, 64, 127
2, 13571, Note_on_c, 0, 60, 0
2, 13577, Note_on_c, 0, 55, 0
2, 13580, Note_on_c, 0, 59, 0
2, 13627, Note_on_c, 0, 64, 0
2, 13669, Control_c, 0, 64, 0
2, 13677, Note_on_c, 0, 61, 28
2, 13677, Note_on_c, 0, 54, 31
2, 13678, Note_on_c, 0, 64, 31
2, 13681, Note_on_c, 0, 59, 44
2, 13701, Control_c, 0, 64, 127
2, 13761, Note_on_c, 0, 88, 56
2, 13761, Note_on_c, 0, 76, 49
2, 13770, Note_on_c, 0, 76, 0
2, 13772, Note_on_c, 0, 59, 0
2, 13773, Note_on_c, 0, 88, 0
2, 13776, Note_on_c, 0, 64, 0
2, 13780, Note_on_c, 0, 54, 0
2, 13782, Note_on_c, 0, 61, 0
2, 13801, Control_c, 0, 64, 0
2, 13854, Control_c, 0, 64, 127
2, 13860, Control_c, 0, 64, 0
2, 13876, Note_on_c, 0, 54, 36
2, 13878, Note_on_c, 0, 88, 50
2, 13880, Note_on_c, 0, 76, 45
2, 13880, Note_on_c, 0, 61, 26
2, 13881, Note_on_c, 0, 64, 26
2, 13882, Note_on_c, 0, 59, 36
2, 13902, Control_c, 0, 64, 127
2, 13937, Note_on_c, 0, 59, 0
2, 13937, Note_on_c, 0, 54, 0
2, 13947, Note_on_c, 0, 64, 0
2, 13951, Note_on_c, 0, 61, 0
2, 13997, Note_on_c, 0, 76, 0
2, 14006, Note_on_c, 0, 88, 0
2, 14038, Control_c, 0, 64, 0
2, 14045, Note_on_c, 0, 64, 24
2, 14047, Note_on_c, 0, 60, 46
2, 14048, Note_on_c, 0, 55, 26
2, 14049, Note_on_c, 0, 59, 31
2, 14062, Control_c, 0, 64, 127
2, 14161, Note_on_c, 0, 64, 0
2, 14169, Note_on_c, 0, 59, 0
2, 14173, Note_on_c, 0, 60, 0
2, 14177, Note_on_c, 0, 55, 0
2, 14241, Note_on_c, 0, 76, 91
2, 14243, Note_on_c, 0, 59, 53
2, 14243, Note_on_c, 0, 64, 48
2, 14244, Note_on_c, 0, 55, 53
2, 14245, Note_on_c, 0, 60, 55
2, 14249, Control_c, 0, 64, 0
2, 14261, Note_on_c, 0, 64, 0
2, 14273, Control_c, 0, 64, 127
2, 14275, Note_on_c, 0, 60, 0
2, 14280, Note_on_c, 0, 59, 0
2, 14282, Note_on_c, 0, 55, 0
2, 14318, Note_on_c, 0, 77, 31
2, 14336, Note_on_c, 0, 78, 62
2, 14339, Note_on_c, 0, 76, 0
2, 14358, Note_on_c, 0, 77, 0
2, 14359, Note_on_c, 0, 78, 0
2, 14363, Note_on_c, 0, 79, 75
2, 14395, Note_on_c, 0, 79, 0
2, 14399, Note_on_c, 0, 78, 80
2, 14400, Note_on_c, 0, 63, 56
2, 14403, Note_on_c, 0, 54, 44
2, 14404, Note_on_c, 0, 58, 55
2, 14406, Note_on_c, 0, 59, 57
2, 14413, Control_c, 0, 64, 0
2, 14463, Control_c, 0, 64, 127
2, 14513, Note_on_c, 0, 59, 0
2, 14515, Note_on_c, 0, 63, 0
2, 14523, Note_on_c, 0, 58, 0
2, 14538, Note_on_c, 0, 54, 0
2, 14567, Note_on_c, 0, 78, 0
2, 14593, Note_on_c, 0, 63, 38
2, 14597, Note_on_c, 0, 54, 29
2, 14598, Note_on_c, 0, 58, 39
2, 14598, Note_on_c, 0, 59, 44
2, 14671, Note_on_c, 0, 59, 0
2, 14673, Note_on_c, 0, 63, 0
2, 14693, Note_on_c, 0, 58, 0
2, 14707, Note_on_c, 0, 83, 68
2, 14713, Note_on_c, 0, 54, 0
2, 14740, Note_on_c, 0, 83, 0
2, 14760, Note_on_c, 0, 63, 33
2, 14762, Note_on_c, 0, 58, 31
2, 14765, Note_on_c, 0, 85, 67
2, 14765, Note_on_c, 0, 59, 47
2, 14766, Note_on_c, 0, 53, 27
2, 14771, Control_c, 0, 64, 0
2, 14809, Control_c, 0, 64, 127
2, 14843, Note_on_c, 0, 63, 0
2, 14868, Note_on_c, 0, 53, 0
2, 14872, Note_on_c, 0, 59, 0
2, 14887, Note_on_c, 0, 58, 0
2, 14953, Note_on_c, 0, 63, 53
2, 14957, Note_on_c, 0, 58, 37
2, 14960, Note_on_c, 0, 59, 33
2, 14971, Note_on_c, 0, 59, 0
2, 14974, Note_on_c, 0, 63, 0
2, 14981, Note_on_c, 0, 58, 0
2, 14989, Note_on_c, 0, 85, 0
2, 15072, Note_on_c, 0, 86, 108
2, 15104, Note_on_c, 0, 86, 0
2, 15123, Note_on_c, 0, 61, 50
2, 15126, Note_on_c, 0, 58, 50
2, 15127, Note_on_c, 0, 53, 36
2, 15129, Note_on_c, 0, 85, 87
2, 15129, Note_on_c, 0, 55, 51
2, 15134, Control_c, 0, 64, 0
2, 15178, Control_c, 0, 64, 127
2, 15219, Note_on_c, 0, 61, 0
2, 15220, Note_on_c, 0, 55, 0
2, 15233, Note_on_c, 0, 53, 0
2, 15261, Note_on_c, 0, 58, 0
2, 15308, Note_on_c, 0, 85, 0
2, 15315, Note_on_c, 0, 80, 84
2, 15319, Note_on_c, 0, 61, 47
2, 15319, Note_on_c, 0, 58, 48
2, 15320, Note_on_c, 0, 53, 41
2, 15321, Note_on_c, 0, 55, 54
2, 15334, Control_c, 0, 64, 0
2, 15346, Control_c, 0, 64, 127
2, 15379, Note_on_c, 0, 55, 0
2, 15381, Note_on_c, 0, 53, 0
2, 15382, Note_on_c, 0, 61, 0
2, 15395, Note_on_c, 0, 58, 0
2, 15403, Note_on_c, 0, 81, 33
2, 15414, Note_on_c, 0, 80, 0
2, 15425, Note_on_c, 0, 82, 44
2, 15437, Note_on_c, 0, 81, 0
2, 15445, Note_on_c, 0, 82, 0
2, 15446, Note_on_c, 0, 83, 66
2, 15468, Note_on_c, 0, 83, 0
2, 15474, Note_on_c, 0, 63, 48
2, 15476, Note_on_c, 0, 58, 48
2, 15479, Note_on_c, 0, 52, 45
2, 15480, Note_on_c, 0, 84, 72
2, 15487, Control_c, 0, 64, 0
2, 15521, Control_c, 0, 64, 127
2, 15581, Note_on_c, 0, 63, 0
2, 15598, Note_on_c, 0, 52, 0
2, 15613, Note_on_c, 0, 58, 0
2, 15663, Note_on_c, 0, 84, 0
2, 15670, Note_on_c, 0, 63, 46
2, 15674, Note_on_c, 0, 58, 36
2, 15678, Note_on_c, 0, 52, 25
2, 15734, Note_on_c, 0, 52, 0
2, 15744, Note_on_c, 0, 63, 0
2, 15750, Note_on_c, 0, 58, 0
2, 15757, Note_on_c, 0, 72, 49
2, 15782, Note_on_c, 0, 72, 0
2, 15795, Note_on_c, 0, 73, 39
2, 15813, Note_on_c, 0, 73, 0
2, 15839, Note_on_c, 0, 63, 43
2, 15843, Note_on_c, 0, 82, 60
2, 15846, Note_on_c, 0, 56, 33
2, 15847, Note_on_c, 0, 59, 44
2, 15850, Control_c, 0, 64, 0
2, 15851, Note_on_c, 0, 53, 24
2, 15892, Control_c, 0, 64, 127
2, 15930, Note_on_c, 0, 63, 0
2, 15932, Note_on_c, 0, 59, 0
2, 15949, Note_on_c, 0, 56, 0
2, 15995, Note_on_c, 0, 53, 0
2, 16046, Note_on_c, 0, 63, 33
2, 16051, Note_on_c, 0, 56, 35
2, 16054, Note_on_c, 0, 59, 36
2, 16064, Note_on_c, 0, 63, 0
2, 16065, Note_on_c, 0, 59, 0
2, 16070, Note_on_c, 0, 82, 0
2, 16076, Control_c, 0, 64, 0
2, 16085, Note_on_c, 0, 56, 0
2, 16085, Note_on_c, 0, 72, 50
2, 16098, Control_c, 0, 64, 127
2, 16109, Note_on_c, 0, 72, 0
2, 16123, Note_on_c, 0, 73, 42
2, 16146, Note_on_c, 0, 73, 0
2, 16159, Note_on_c, 0, 74, 47
2, 16185, Note_on_c, 0, 74, 0
2, 16203, Note_on_c, 0, 67, 46
2, 16204, Note_on_c, 0, 83, 60
2, 16207, Note_on_c, 0, 56, 30
2, 16208, Note_on_c, 0, 62, 50
2, 16209, Control_c, 0, 64, 0
2, 16209, Note_on_c, 0, 74, 40
2, 16243, Control_c, 0, 64, 127
2, 16270, Note_on_c, 0, 83, 0
2, 16280, Note_on_c, 0, 74, 0
2, 16310, Note_on_c, 0, 67, 0
2, 16400, Note_on_c, 0, 56, 0
2, 16436, Note_on_c, 0, 56, 35
2, 16439, Note_on_c, 0, 65, 33
2, 16440, Note_on_c, 0, 71, 67
2, 16445, Control_c, 0, 64, 0
2, 16451, Note_on_c, 0, 65, 0
2, 16459, Control_c, 0, 64, 127
2, 16461, Note_on_c, 0, 62, 0
2, 16471, Note_on_c, 0, 72, 71
2, 16475, Note_on_c, 0, 56, 0
2, 16478, Note_on_c, 0, 71, 0
2, 16494, Note_on_c, 0, 72, 0
2, 16501, Note_on_c, 0, 73, 39
2, 16524, Note_on_c, 0, 73, 0
2, 16535, Note_on_c, 0, 74, 68
2, 16557, Note_on_c, 0, 74, 0
2, 16568, Note_on_c, 0, 62, 48
2, 16568, Note_on_c, 0, 82, 67
2, 16571, Note_on_c, 0, 52, 44
2, 16571, Note_on_c, 0, 58, 45
2, 16578, Control_c, 0, 64, 0
2, 16630, Control_c, 0, 64, 127
2, 16666, Note_on_c, 0, 82, 0
2, 16729, Note_on_c, 0, 58, 0
2, 16792, Note_on_c, 0, 62, 0
2, 16797, Note_on_c, 0, 52, 0
2, 16798, Note_on_c, 0, 71, 49
2, 16811, Note_on_c, 0, 71, 0
2, 16838, Note_on_c, 0, 72, 34
2, 16852, Note_on_c, 0, 72, 0
2, 16874, Note_on_c, 0, 74, 53
2, 16884, Note_on_c, 0, 74, 0
2, 16920, Note_on_c, 0, 66, 36
2, 16922, Note_on_c, 0, 61, 38
2, 16923, Note_on_c, 0, 55, 49
2, 16925, Control_c, 0, 64, 0
2, 16927, Note_on_c, 0, 81, 25
2, 16967, Control_c, 0, 64, 127
2, 17033, Note_on_c, 0, 66, 0
2, 17037, Note_on_c, 0, 55, 0
2, 17073, Note_on_c, 0, 61, 0
2, 17114, Note_on_c, 0, 61, 30
2, 17116, Note_on_c, 0, 65, 32
2, 17120, Note_on_c, 0, 55, 30
2, 17132, Note_on_c, 0, 65, 0
2, 17134, Note_on_c, 0, 81, 0
2, 17136, Note_on_c, 0, 55, 0
2, 17198, Note_on_c, 0, 61, 0
2, 17229, Note_on_c, 0, 77, 68
2, 17273, Note_on_c, 0, 77, 0
2, 17281, Note_on_c, 0, 54, 28
2, 17282, Note_on_c, 0, 61, 25
2, 17286, Control_c, 0, 64, 0
2, 17287, Note_on_c, 0, 64, 25
2, 17290, Note_on_c, 0, 76, 44
2, 17293, Note_on_c, 0, 59, 15
2, 17338, Control_c, 0, 64, 127
2, 17348, Note_on_c, 0, 61, 0
2, 17352, Note_on_c, 0, 59, 0
2, 17358, Note_on_c, 0, 64, 0
2, 17367, Note_on_c, 0, 54, 0
2, 17372, Note_on_c, 0, 76, 0
2, 17380, Control_c, 0, 64, 0
2, 17400, Note_on_c, 0, 76, 69
2, 17401, Note_on_c, 0, 53, 55
2, 17404, Note_on_c, 0, 57, 57
2, 17405, Note_on_c, 0, 60, 54
2, 17406, Note_on_c, 0, 64, 33
2, 17448, Control_c, 0, 64, 127
2, 17512, Note_on_c, 0, 57, 0
2, 17513, Note_on_c, 0, 60, 0
2, 17515, Note_on_c, 0, 64, 0
2, 17527, Note_on_c, 0, 53, 0
2, 17557, Note_on_c, 0, 76, 0
2, 17639, Note_on_c, 0, 77, 73
2, 17639, Note_on_c, 0, 63, 62
2, 17640, Note_on_c, 0, 53, 58
2, 17641, Note_on_c, 0, 72, 68
2, 17642, Note_on_c, 0, 58, 57
2, 17642, Note_on_c, 0, 65, 68
2, 17643, Control_c, 0, 64, 0
2, 17679, Control_c, 0, 64, 127
2, 17734, Note_on_c, 0, 63, 0
2, 17736, Note_on_c, 0, 72, 0
2, 17744, Note_on_c, 0, 77, 0
2, 17756, Note_on_c, 0, 53, 0
2, 17757, Note_on_c, 0, 65, 0
2, 17765, Note_on_c, 0, 58, 0
2, 17840, Note_on_c, 0, 63, 54
2, 17841, Note_on_c, 0, 72, 51
2, 17841, Note_on_c, 0, 68, 48
2, 17843, Note_on_c, 0, 53, 40
2, 17844, Note_on_c, 0, 65, 54
2, 17846, Note_on_c, 0, 58, 40
2, 17907, Note_on_c, 0, 65, 0
2, 17908, Note_on_c, 0, 53, 0
2, 17911, Note_on_c, 0, 68, 0
2, 17911, Note_on_c, 0, 72, 0
2, 17917, Note_on_c, 0, 63, 0
2, 17931, Note_on_c, 0, 58, 0
2, 18004, Note_on_c, 0, 79, 71
2, 18004, Note_on_c, 0, 75, 77
2, 18007, Note_on_c, 0, 67, 80
2, 18007, Note_on_c, 0, 62, 71
2, 18008, Control_c, 0, 64, 0
2, 18008, Note_on_c, 0, 51, 57
2, 18008, Note_on_c, 0, 58, 53
2, 18009, Note_on_c, 0, 55, 68
2, 18044, Control_c, 0, 64, 127
2, 18081, Note_on_c, 0, 55, 0
2, 18082, Note_on_c, 0, 51, 0
2, 18085, Note_on_c, 0, 67, 0
2, 18092, Note_on_c, 0, 62, 0
2, 18100, Note_on_c, 0, 79, 0
2, 18100, Note_on_c, 0, 75, 0
2, 18108, Note_on_c, 0, 58, 0
2, 18198, Note_on_c, 0, 84, 80
2, 18199, Note_on_c, 0, 51, 60
2, 18200, Note_on_c, 0, 79, 74
2, 18200, Note_on_c, 0, 58, 57
2, 18200, Note_on_c, 0, 72, 76
2, 18201, Note_on_c, 0, 62, 72
2, 18203, Note_on_c, 0, 55, 51
2, 18227, Note_on_c, 0, 55, 0
2, 18235, Note_on_c, 0, 51, 0
2, 18245, Note_on_c, 0, 58, 0
2, 18246, Note_on_c, 0, 84, 0
2, 18249, Note_on_c, 0, 62, 0
2, 18251, Note_on_c, 0, 79, 0
2, 18265, Note_on_c, 0, 72, 0
2, 18363, Note_on_c, 0, 81, 70
2, 18363, Note_on_c, 0, 78, 51
2, 18364, Note_on_c, 0, 74, 75
2, 18365, Control_c, 0, 64, 0
2, 18365, Note_on_c, 0, 66, 60
2, 18366, Note_on_c, 0, 61, 54
2, 18366, Note_on_c, 0, 69, 64
2, 18368, Note_on_c, 0, 57, 50
2, 18368, Note_on_c, 0, 62, 56
2, 18409, Control_c, 0, 64, 127
2, 18448, Note_on_c, 0, 62, 0
2, 18450, Note_on_c, 0, 66, 0
2, 18468, Note_on_c, 0, 74, 0
2, 18468, Note_on_c, 0, 57, 0
2, 18474, Note_on_c, 0, 78, 0
2, 18479, Note_on_c, 0, 61, 0
2, 18479, Note_on_c, 0, 69, 0
2, 18551, Note_on_c, 0, 78, 35
2, 18553, Note_on_c, 0, 66, 48
2, 18553, Note_on_c, 0, 69, 47
2, 18555, Note_on_c, 0, 74, 50
2, 18555, Note_on_c, 0, 57, 38
2, 18558, Note_on_c, 0, 61, 28
2, 18562, Note_on_c, 0, 62, 31
2, 18603, Note_on_c, 0, 62, 0
2, 18604, Note_on_c, 0, 57, 0
2, 18611, Note_on_c, 0, 66, 0
2, 18628, Note_on_c, 0, 61, 0
2, 18660, Note_on_c, 0, 69, 0
2, 18660, Note_on_c, 0, 78, 0
2, 18674, Note_on_c, 0, 74, 0
2, 18720, Note_on_c, 0, 74, 46
2, 18721, Note_on_c, 0, 69, 49
2, 18722, Note_on_c, 0, 62, 30
2, 18725, Note_on_c, 0, 65, 37
2, 18728, Note_on_c, 0, 60, 29
2, 18730, Control_c, 0, 64, 0
2, 18732, Note_on_c, 0, 56, 20
2, 18778, Control_c, 0, 64, 127
2, 18785, Note_on_c, 0, 60, 0
2, 18798, Note_on_c, 0, 62, 0
2, 18805, Note_on_c, 0, 56, 0
2, 18813, Note_on_c, 0, 65, 0
2, 18843, Note_on_c, 0, 69, 0
2, 18850, Note_on_c, 0, 74, 0
2, 18912, Note_on_c, 0, 65, 43
2, 18914, Note_on_c, 0, 62, 41
2, 18917, Note_on_c, 0, 60, 35
2, 18917, Note_on_c, 0, 57, 32
2, 18941, Note_on_c, 0, 81, 0
2, 18957, Note_on_c, 0, 65, 0
2, 18958, Note_on_c, 0, 60, 0
2, 18963, Note_on_c, 0, 62, 0
2, 18969, Note_on_c, 0, 57, 0
2, 18991, Note_on_c, 0, 69, 65
2, 18992, Note_on_c, 0, 81, 58
2, 18997, Note_on_c, 0, 62, 31
2, 18998, Note_on_c, 0, 69, 0
2, 19009, Note_on_c, 0, 62, 0
2, 19009, Note_on_c, 0, 81, 0
2, 19031, Note_on_c, 0, 65, 47
2, 19032, Note_on_c, 0, 86, 71
2, 19032, Note_on_c, 0, 88, 74
2, 19032, Note_on_c, 0, 74, 49
2, 19034, Note_on_c, 0, 62, 32
2, 19039, Note_on_c, 0, 88, 0
2, 19039, Note_on_c, 0, 65, 0
2, 19039, Note_on_c, 0, 86, 0
2, 19041, Note_on_c, 0, 74, 0
2, 19043, Note_on_c, 0, 62, 0
2, 19081, Note_on_c, 0, 60, 64
2, 19082, Note_on_c, 0, 59, 57
2, 19082, Note_on_c, 0, 76, 80
2, 19083, Note_on_c, 0, 55, 53
2, 19083, Note_on_c, 0, 64, 50
2, 19084, Note_on_c, 0, 71, 74
2, 19085, Note_on_c, 0, 83, 51
2, 19086, Note_on_c, 0, 84, 62
2, 19087, Control_c, 0, 64, 0
2, 19088, Note_on_c, 0, 79, 41
2, 19092, Note_on_c, 0, 84, 0
2, 19129, Control_c, 0, 64, 127
2, 19184, Note_on_c, 0, 64, 0
2, 19199, Note_on_c, 0, 59, 0
2, 19199, Note_on_c, 0, 60, 0
2, 19200, Note_on_c, 0, 79, 0
2, 19206, Note_on_c, 0, 55, 0
2, 19208, Note_on_c, 0, 76, 0
2, 19213, Note_on_c, 0, 71, 0
2, 19216, Note_on_c, 0, 83, 0
2, 19270, Note_on_c, 0, 83, 52
2, 19271, Note_on_c, 0, 55, 46
2, 19271, Note_on_c, 0, 64, 33
2, 19271, Note_on_c, 0, 71, 53
2, 19272, Note_on_c, 0, 60, 45
2, 19273, Note_on_c, 0, 79, 40
2, 19274, Note_on_c, 0, 76, 43
2, 19274, Note_on_c, 0, 59, 39
2, 19324, Note_on_c, 0, 59, 0
2, 19327, Note_on_c, 0, 64, 0
2, 19329, Note_on_c, 0, 60, 0
2, 19340, Note_on_c, 0, 55, 0
2, 19356, Note_on_c, 0, 79, 0
2, 19358, Note_on_c, 0, 71, 0
2, 19361, Note_on_c, 0, 83, 0
2, 19367, Note_on_c, 0, 76, 0
2, 19639, Note_on_c, 0, 63, 65
2, 19639, Note_on_c, 0, 76, 71
2, 19640, Note_on_c, 0, 84, 76
2, 19641, Note_on_c, 0, 72, 64
2, 19641, Note_on_c, 0, 58, 58
2, 19642, Note_on_c, 0, 79, 53
2, 19644, Note_on_c, 0, 60, 58
2, 19649, Control_c, 0, 64, 0
2, 19685, Control_c, 0, 64, 127
2, 19707, Note_on_c, 0, 60, 0
2, 19715, Note_on_c, 0, 58, 0
2, 19719, Note_on_c, 0, 63, 0
2, 19748, Note_on_c, 0, 72, 0
2, 19748, Note_on_c, 0, 76, 0
2, 19753, Note_on_c, 0, 79, 0
2, 19760, Note_on_c, 0, 84, 0
2, 19789, Control_c, 0, 64, 0
2, 19809, Control_c, 0, 64, 127
2, 19879, Note_on_c, 0, 77, 87
2, 19880, Note_on_c, 0, 84, 85
2, 19880, Note_on_c, 0, 53, 71
2, 19880, Note_on_c, 0, 58, 65
2, 19881, Note_on_c, 0, 61, 71
2, 19881, Note_on_c, 0, 55, 71
2, 19881, Note_on_c, 0, 72, 78
2, 19888, Control_c, 0, 64, 0
2, 19918, Control_c, 0, 64, 127
2, 19959, Note_on_c, 0, 77, 0
2, 19960, Note_on_c, 0, 72, 0
2, 19965, Note_on_c, 0, 55, 0
2, 19966, Note_on_c, 0, 61, 0
2, 19968, Note_on_c, 0, 53, 0
2, 19971, Note_on_c, 0, 84, 0
2, 19972, Note_on_c, 0, 58, 0
2, 20044, Control_c, 0, 64, 0
2, 20045, Note_on_c, 0, 58, 64
2, 20046, Note_on_c, 0, 82, 70
2, 20047, Note_on_c, 0, 88, 69
2, 20048, Note_on_c, 0, 60, 60
2, 20049, Note_on_c, 0, 76, 62
2, 20050, Note_on_c, 0, 52, 31
2, 20054, Note_on_c, 0, 88, 0
2, 20055, Note_on_c, 0, 60, 0
2, 20057, Note_on_c, 0, 76, 0
2, 20058, Note_on_c, 0, 52, 0
2, 20060, Note_on_c, 0, 82, 0
2, 20063, Note_on_c, 0, 58, 0
2, 20098, Control_c, 0, 64, 127
2, 20163, Note_on_c, 0, 84, 67
2, 20165, Note_on_c, 0, 72, 56
2, 20166, Control_c, 0, 64, 0
2, 20167, Note_on_c, 0, 61, 45
2, 20168, Note_on_c, 0, 64, 62
2, 20169, Note_on_c, 0, 57, 56
2, 20170, Note_on_c, 0, 54, 37
2, 20206, Control_c, 0, 64, 127
2, 20300, Note_on_c, 0, 61, 0
2, 20302, Note_on_c, 0, 64, 0
2, 20313, Note_on_c, 0, 57, 0
2, 20356, Note_on_c, 0, 64, 49
2, 20356, Note_on_c, 0, 61, 39
2, 20357, Note_on_c, 0, 57, 48
2, 20365, Note_on_c, 0, 84, 0
2, 20382, Note_on_c, 0, 72, 0
2, 20401, Note_on_c, 0, 64, 0
2, 20408, Note_on_c, 0, 57, 0
2, 20425, Note_on_c, 0, 54, 0
2, 20432, Note_on_c, 0, 83, 44
2, 20434, Note_on_c, 0, 61, 0
2, 20434, Note_on_c, 0, 71, 49
2, 20445, Note_on_c, 0, 71, 0
2, 20449, Note_on_c, 0, 83, 0
2, 20472, Note_on_c, 0, 72, 62
2, 20473, Note_on_c, 0, 84, 64
2, 20492, Note_on_c, 0, 72, 0
2, 20496, Note_on_c, 0, 84, 0
2, 20518, Note_on_c, 0, 56, 42
2, 20519, Note_on_c, 0, 62, 44
2, 20521, Control_c, 0, 64, 0
2, 20522, Note_on_c, 0, 86, 81
2, 20523, Note_on_c, 0, 60, 50
2, 20524, Note_on_c, 0, 74, 63
2, 20525, Note_on_c, 0, 53, 33
2, 20560, Control_c, 0, 64, 127
2, 20623, Note_on_c, 0, 60, 0
2, 20628, Note_on_c, 0, 62, 0
2, 20631, Note_on_c, 0, 74, 0
2, 20638, Note_on_c, 0, 56, 0
2, 20654, Note_on_c, 0, 86, 0
2, 20661, Note_on_c, 0, 53, 0
2, 20710, Note_on_c, 0, 62, 36
2, 20712, Note_on_c, 0, 56, 30
2, 20715, Note_on_c, 0, 60, 45
2, 20716, Note_on_c, 0, 53, 33
2, 20778, Note_on_c, 0, 60, 0
2, 20779, Note_on_c, 0, 62, 0
2, 20794, Note_on_c, 0, 56, 0
2, 20794, Note_on_c, 0, 53, 0
2, 20795, Note_on_c, 0, 75, 45
2, 20796, Note_on_c, 0, 84, 48
2, 20804, Note_on_c, 0, 84, 0
2, 20812, Note_on_c, 0, 75, 0
2, 20830, Note_on_c, 0, 84, 68
2, 20836, Note_on_c, 0, 76, 33
2, 20844, Note_on_c, 0, 76, 0
2, 20848, Note_on_c, 0, 84, 0
2, 20874, Control_c, 0, 64, 0
2, 20875, Note_on_c, 0, 79, 68
2, 20877, Note_on_c, 0, 88, 68
2, 20879, Note_on_c, 0, 56, 57
2, 20881, Note_on_c, 0, 62, 64
2, 20882, Note_on_c, 0, 52, 59
2, 20910, Control_c, 0, 64, 127
2, 20965, Note_on_c, 0, 52, 0
2, 20973, Note_on_c, 0, 56, 0
2, 20978, Note_on_c, 0, 62, 0
2, 21070, Note_on_c, 0, 56, 48
2, 21070, Note_on_c, 0, 67, 49
2, 21072, Note_on_c, 0, 62, 51
2, 21086, Note_on_c, 0, 67, 0
2, 21093, Note_on_c, 0, 62, 0
2, 21102, Note_on_c, 0, 56, 0
2, 21119, Note_on_c, 0, 79, 0
2, 21137, Note_on_c, 0, 88, 0
2, 21245, Note_on_c, 0, 61, 67
2, 21245, Note_on_c, 0, 89, 94
2, 21246, Note_on_c, 0, 54, 46
2, 21246, Note_on_c, 0, 51, 46
2, 21248, Note_on_c, 0, 58, 54
2, 21256, Control_c, 0, 64, 0
2, 21286, Control_c, 0, 64, 127
2, 21352, Note_on_c, 0, 89, 0
2, 21394, Note_on_c, 0, 89, 27
2, 21401, Note_on_c, 0, 61, 0
2, 21404, Note_on_c, 0, 58, 0
2, 21412, Note_on_c, 0, 90, 48
2, 21420, Note_on_c, 0, 89, 0
2, 21430, Note_on_c, 0, 91, 69
2, 21449, Note_on_c, 0, 91, 0
2, 21449, Note_on_c, 0, 90, 0
2, 21462, Note_on_c, 0, 92, 85
2, 21468, Control_c, 0, 64, 0
2, 21468, Note_on_c, 0, 61, 49
2, 21472, Control_c, 0, 64, 127
2, 21477, Note_on_c, 0, 58, 23
2, 21485, Note_on_c, 0, 58, 0
2, 21492, Note_on_c, 0, 61, 0
2, 21506, Note_on_c, 0, 54, 0
2, 21520, Note_on_c, 0, 51, 0
2, 21550, Note_on_c, 0, 92, 0
2, 21595, Note_on_c, 0, 89, 38
2, 21607, Note_on_c, 0, 60, 38
2, 21607, Note_on_c, 0, 50, 37
2, 21607, Note_on_c, 0, 88, 64
2, 21609, Note_on_c, 0, 56, 33
2, 21615, Note_on_c, 0, 89, 0
2, 21616, Control_c, 0, 64, 0
2, 21675, Control_c, 0, 64, 127
2, 21721, Note_on_c, 0, 50, 0
2, 21723, Note_on_c, 0, 56, 0
2, 21726, Note_on_c, 0, 60, 0
2, 21794, Note_on_c, 0, 56, 33
2, 21798, Note_on_c, 0, 50, 26
2, 21798, Note_on_c, 0, 60, 28
2, 21813, Note_on_c, 0, 88, 0
2, 21819, Note_on_c, 0, 50, 0
2, 21832, Note_on_c, 0, 56, 0
2, 21840, Note_on_c, 0, 60, 0
2, 21957, Control_c, 0, 64, 0
2, 21958, Note_on_c, 0, 53, 33
2, 21959, Note_on_c, 0, 62, 34
2, 21959, Note_on_c, 0, 59, 33
2, 21959, Note_on_c, 0, 86, 61
2, 21961, Note_on_c, 0, 74, 45
2, 21990, Control_c, 0, 64, 127
2, 22068, Note_on_c, 0, 74, 0
2, 22074, Note_on_c, 0, 86, 0
2, 22087, Note_on_c, 0, 80, 37
2, 22184, Note_on_c, 0, 62, 0
2, 22189, Note_on_c, 0, 59, 0
2, 22208, Note_on_c, 0, 53, 0
2, 22271, Note_on_c, 0, 86, 57
2, 22284, Note_on_c, 0, 80, 0
2, 22299, Note_on_c, 0, 86, 0
2, 22316, Note_on_c, 0, 48, 40
2, 22316, Control_c, 0, 64, 0
2, 22320, Note_on_c, 0, 84, 43
2, 22340, Control_c, 0, 64, 127
2, 22342, Note_on_c, 0, 84, 0
2, 22406, Note_on_c, 0, 55, 41
2, 22518, Note_on_c, 0, 62, 38
2, 22580, Note_on_c, 0, 62, 0
2, 22590, Note_on_c, 0, 63, 55
2, 22593, Note_on_c, 0, 48, 0
2, 22605, Note_on_c, 0, 63, 0
2, 22606, Note_on_c, 0, 55, 0
2, 22629, Note_on_c, 0, 67, 70
2, 22647, Note_on_c, 0, 67, 0
2, 22673, Note_on_c, 0, 48, 44
2, 22679, Note_on_c, 0, 60, 36
2, 22679, Note_on_c, 0, 56, 40
2, 22680, Note_on_c, 0, 72, 70
2, 22689, Control_c, 0, 64, 0
2, 22707, Note_on_c, 0, 72, 0
2, 22720, Note_on_c, 0, 74, 78
2, 22741, Note_on_c, 0, 74, 0
2, 22761, Note_on_c, 0, 72, 68
2, 22785, Note_on_c, 0, 72, 0
2, 22803, Note_on_c, 0, 68, 47
2, 22822, Note_on_c, 0, 68, 0
2, 22839, Note_on_c, 0, 67, 43
2, 22855, Note_on_c, 0, 67, 0
2, 22875, Note_on_c, 0, 70, 70
2, 22906, Note_on_c, 0, 70, 0
2, 22917, Note_on_c, 0, 68, 55
2, 22942, Note_on_c, 0, 68, 0
2, 22954, Note_on_c, 0, 67, 54
2, 22969, Note_on_c, 0, 60, 0
2, 22979, Note_on_c, 0, 56, 0
2, 22990, Control_c, 0, 64, 127
2, 22993, Note_on_c, 0, 67, 0
2, 22994, Note_on_c, 0, 48, 0
2, 22995, Note_on_c, 0, 65, 55
2, 23021, Note_on_c, 0, 65, 0
2, 23035, Note_on_c, 0, 63, 40
2, 23038, Note_on_c, 0, 55, 39
2, 23039, Note_on_c, 0, 48, 33
2, 23042, Control_c, 0, 64, 0
2, 23069, Note_on_c, 0, 63, 0
2, 23079, Note_on_c, 0, 62, 51
2, 23113, Note_on_c, 0, 62, 0
2, 23115, Note_on_c, 0, 65, 49
2, 23142, Note_on_c, 0, 65, 0
2, 23161, Note_on_c, 0, 63, 28
2, 23167, Note_on_c, 0, 55, 0
2, 23211, Control_c, 0, 64, 127
2, 23242, Note_on_c, 0, 55, 54
2, 23252, Note_on_c, 0, 63, 0
2, 23261, Control_c, 0, 64, 0
2, 23269, Control_c, 0, 64, 127
2, 23311, Note_on_c, 0, 48, 0
2, 23345, Note_on_c, 0, 55, 0
2, 23353, Note_on_c, 0, 48, 40
2, 23367, Note_on_c, 0, 48, 0
2, 23400, Note_on_c, 0, 48, 31
2, 23403, Note_on_c, 0, 56, 33
2, 23411, Control_c, 0, 64, 0
2, 23446, Note_on_c, 0, 62, 54
2, 23452, Control_c, 0, 64, 127
2, 23471, Note_on_c, 0, 62, 0
2, 23476, Note_on_c, 0, 63, 53
2, 23488, Control_c, 0, 64, 0
2, 23494, Note_on_c, 0, 63, 0
2, 23508, Note_on_c, 0, 65, 62
2, 23523, Note_on_c, 0, 65, 0
2, 23538, Note_on_c, 0, 67, 58
2, 23552, Note_on_c, 0, 67, 0
2, 23568, Note_on_c, 0, 68, 73
2, 23582, Control_c, 0, 64, 127
2, 23584, Note_on_c, 0, 56, 0
2, 23590, Note_on_c, 0, 68, 0
2, 23600, Note_on_c, 0, 70, 62
2, 23610, Control_c, 0, 64, 0
2, 23613, Note_on_c, 0, 56, 27
2, 23616, Note_on_c, 0, 70, 0
2, 23632, Note_on_c, 0, 72, 65
2, 23644, Note_on_c, 0, 72, 0
2, 23672, Note_on_c, 0, 74, 33
2, 23675, Note_on_c, 0, 56, 0
2, 23677, Note_on_c, 0, 48, 0
2, 23680, Note_on_c, 0, 74, 0
2, 23696, Control_c, 0, 64, 127
2, 23701, Note_on_c, 0, 77, 75
2, 23728, Note_on_c, 0, 77, 0
2, 23734, Note_on_c, 0, 74, 72
2, 23747, Note_on_c, 0, 74, 0
2, 23748, Note_on_c, 0, 55, 43
2, 23748, Control_c, 0, 64, 0
2, 23749, Note_on_c, 0, 48, 33
2, 23751, Note_on_c, 0, 60, 20
2, 23770, Note_on_c, 0, 75, 69
2, 23794, Note_on_c, 0, 75, 0
2, 23805, Note_on_c, 0, 67, 45
2, 23815, Note_on_c, 0, 67, 0
2, 23837, Note_on_c, 0, 74, 57
2, 23856, Note_on_c, 0, 74, 0
2, 23880, Note_on_c, 0, 72, 62
2, 23894, Note_on_c, 0, 72, 0
2, 23922, Note_on_c, 0, 67, 55
2, 23930, Note_on_c, 0, 60, 0
2, 23934, Note_on_c, 0, 67, 0
2, 23957, Note_on_c, 0, 63, 46
2, 23961, Control_c, 0, 64, 127
2, 23979, Note_on_c, 0, 63, 0
2, 23988, Note_on_c, 0, 62, 47
2, 23998, Note_on_c, 0, 62, 0
2, 24001, Control_c, 0, 64, 0
2, 24020, Note_on_c, 0, 65, 58
2, 24039, Note_on_c, 0, 65, 0
2, 24053, Note_on_c, 0, 62, 36
2, 24066, Note_on_c, 0, 62, 0
2, 24069, Note_on_c, 0, 48, 0
2, 24071, Control_c, 0, 64, 127
2, 24078, Note_on_c, 0, 55, 0
2, 24080, Note_on_c, 0, 63, 52
2, 24109, Note_on_c, 0, 63, 0
2, 24120, Note_on_c, 0, 56, 32
2, 24121, Note_on_c, 0, 48, 27
2, 24122, Note_on_c, 0, 60, 36
2, 24130, Control_c, 0, 64, 0
2, 24166, Control_c, 0, 64, 127
2, 24211, Note_on_c, 0, 68, 56
2, 24269, Note_on_c, 0, 56, 0
2, 24318, Note_on_c, 0, 56, 27
2, 24354, Note_on_c, 0, 48, 0
2, 24416, Note_on_c, 0, 60, 0
2, 24429, Note_on_c, 0, 65, 50
2, 24433, Note_on_c, 0, 48, 33
2, 24448, Note_on_c, 0, 56, 0
2, 24450, Note_on_c, 0, 68, 0
2, 24452, Note_on_c, 0, 65, 0
2, 24453, Note_on_c, 0, 48, 0
2, 24475, Note_on_c, 0, 63, 35
2, 24476, Note_on_c, 0, 60, 41
2, 24478, Note_on_c, 0, 55, 44
2, 24478, Note_on_c, 0, 67, 44
2, 24479, Control_c, 0, 64, 0
2, 24479, Note_on_c, 0, 48, 32
2, 24519, Control_c, 0, 64, 127
2, 24563, Note_on_c, 0, 60, 0
2, 24578, Note_on_c, 0, 63, 0
2, 24598, Note_on_c, 0, 60, 42
2, 24717, Note_on_c, 0, 55, 0
2, 24742, Note_on_c, 0, 67, 0
2, 24752, Note_on_c, 0, 48, 0
2, 24764, Note_on_c, 0, 60, 0
2, 24841, Note_on_c, 0, 47, 52
2, 24847, Control_c, 0, 64, 0
2, 24886, Control_c, 0, 64, 127
2, 25029, Note_on_c, 0, 74, 59
2, 25030, Note_on_c, 0, 67, 68
2, 25034, Note_on_c, 0, 57, 41
2, 25036, Note_on_c, 0, 51, 35
2, 25040, Control_c, 0, 64, 0
2, 25068, Control_c, 0, 64, 127
2, 25085, Note_on_c, 0, 67, 0
2, 25101, Note_on_c, 0, 74, 0
2, 25110, Note_on_c, 0, 47, 0
2, 25110, Note_on_c, 0, 71, 48
2, 25118, Note_on_c, 0, 67, 41
2, 25118, Note_on_c, 0, 62, 40
2, 25118, Control_c, 0, 64, 0
2, 25122, Note_on_c, 0, 51, 0
2, 25138, Note_on_c, 0, 67, 0
2, 25138, Note_on_c, 0, 57, 0
2, 25138, Note_on_c, 0, 62, 0
2, 25139, Note_on_c, 0, 71, 0
2, 25203, Note_on_c, 0, 76, 58
2, 25204, Note_on_c, 0, 72, 48
2, 25204, Note_on_c, 0, 67, 55
2, 25204, Note_on_c, 0, 62, 48
2, 25211, Note_on_c, 0, 56, 45
2, 25301, Control_c, 0, 64, 127
2, 25387, Note_on_c, 0, 67, 0
2, 25416, Note_on_c, 0, 62, 0
2, 25416, Note_on_c, 0, 72, 0
2, 25432, Note_on_c, 0, 76, 0
2, 25443, Note_on_c, 0, 56, 0
2, 25561, Note_on_c, 0, 89, 68
2, 25569, Note_on_c, 0, 84, 68
2, 25569, Note_on_c, 0, 55, 53
2, 25573, Note_on_c, 0, 81, 64
2, 25573, Note_on_c, 0, 61, 49
2, 25579, Control_c, 0, 64, 0
2, 25580, Note_on_c, 0, 65, 58
2, 25581, Note_on_c, 0, 60, 24
2, 25583, Note_on_c, 0, 77, 46
2, 25635, Control_c, 0, 64, 127
2, 25784, Note_on_c, 0, 60, 0
2, 25790, Note_on_c, 0, 65, 0
2, 25800, Note_on_c, 0, 61, 0
2, 25801, Note_on_c, 0, 55, 0
2, 25802, Note_on_c, 0, 89, 0
2, 25810, Note_on_c, 0, 77, 0
2, 25816, Note_on_c, 0, 84, 0
2, 25818, Note_on_c, 0, 81, 0
2, 25919, Note_on_c, 0, 88, 49
2, 25924, Note_on_c, 0, 53, 33
2, 25926, Note_on_c, 0, 57, 40
2, 25927, Note_on_c, 0, 84, 43
2, 25927, Note_on_c, 0, 60, 38
2, 25929, Note_on_c, 0, 81, 30
2, 25930, Note_on_c, 0, 64, 28
2, 25931, Note_on_c, 0, 76, 29
2, 25933, Control_c, 0, 64, 0
2, 26023, Control_c, 0, 64, 127
2, 26060, Note_on_c, 0, 88, 0
2, 26070, Note_on_c, 0, 84, 0
2, 26091, Note_on_c, 0, 81, 0
2, 26106, Note_on_c, 0, 76, 0
2, 26125, Note_on_c, 0, 60, 0
2, 26127, Note_on_c, 0, 64, 0
2, 26143, Note_on_c, 0, 57, 0
2, 26145, Note_on_c, 0, 53, 0
2, 26320, Control_c, 0, 64, 0
2, 26341, Note_on_c, 0, 77, 73
2, 26343, Note_on_c, 0, 82, 62
2, 26343, Note_on_c, 0, 86, 76
2, 26344, Note_on_c, 0, 65, 70
2, 26346, Note_on_c, 0, 54, 48
2, 26348, Note_on_c, 0, 60, 55
2, 26352, Note_on_c, 0, 82, 0
2, 26352, Note_on_c, 0, 77, 0
2, 26353, Note_on_c, 0, 86, 0
2, 26354, Note_on_c, 0, 65, 0
2, 26358, Note_on_c, 0, 54, 0
2, 26358, Note_on_c, 0, 60, 0
2, 26442, Note_on_c, 0, 86, 83
2, 26443, Note_on_c, 0, 65, 72
2, 26443, Note_on_c, 0, 82, 64
2, 26443, Note_on_c, 0, 77, 73
2, 26444, Note_on_c, 0, 54, 54
2, 26448, Note_on_c, 0, 60, 36
2, 26452, Note_on_c, 0, 65, 0
2, 26453, Note_on_c, 0, 86, 0
2, 26454, Note_on_c, 0, 54, 0
2, 26454, Note_on_c, 0, 77, 0
2, 26456, Note_on_c, 0, 82, 0
2, 26460, Note_on_c, 0, 60, 0
2, 26535, Note_on_c, 0, 54, 63
2, 26536, Note_on_c, 0, 82, 70
2, 26537, Note_on_c, 0, 60, 65
2, 26537, Note_on_c, 0, 65, 69
2, 26538, Note_on_c, 0, 77, 71
2, 26538, Note_on_c, 0, 86, 78
2, 26545, Control_c, 0, 64, 127
2, 26582, Note_on_c, 0, 65, 0
2, 26592, Note_on_c, 0, 60, 0
2, 26616, Note_on_c, 0, 82, 0
2, 26618, Note_on_c, 0, 86, 0
2, 26619, Note_on_c, 0, 77, 0
2, 26626, Note_on_c, 0, 54, 0
2, 26647, Note_on_c, 0, 53, 41
2, 26651, Note_on_c, 0, 82, 55
2, 26651, Note_on_c, 0, 77, 44
2, 26653, Note_on_c, 0, 62, 52
2, 26656, Note_on_c, 0, 55, 54
2, 26658, Note_on_c, 0, 58, 39
2, 26663, Control_c, 0, 64, 0
2, 26764, Control_c, 0, 64, 127
2, 26880, Note_on_c, 0, 82, 0
2, 26883, Note_on_c, 0, 77, 0
2, 26907, Note_on_c, 0, 62, 0
2, 26912, Note_on_c, 0, 55, 0
2, 26919, Note_on_c, 0, 53, 0
2, 26920, Note_on_c, 0, 58, 0
2, 27091, Note_on_c, 0, 72, 66
2, 27092, Note_on_c, 0, 64, 64
2, 27093, Note_on_c, 0, 67, 60
2, 27094, Note_on_c, 0, 56, 55
2, 27094, Note_on_c, 0, 62, 65
2, 27102, Note_on_c, 0, 64, 0
2, 27103, Note_on_c, 0, 67, 0
2, 27104, Note_on_c, 0, 62, 0
2, 27107, Control_c, 0, 64, 0
2, 27109, Note_on_c, 0, 56, 0
2, 27111, Note_on_c, 0, 72, 0
2, 27178, Note_on_c, 0, 56, 62
2, 27179, Note_on_c, 0, 62, 72
2, 27180, Note_on_c, 0, 72, 70
2, 27181, Note_on_c, 0, 67, 72
2, 27182, Note_on_c, 0, 64, 60
2, 27190, Note_on_c, 0, 67, 0
2, 27190, Note_on_c, 0, 62, 0
2, 27192, Note_on_c, 0, 64, 0
2, 27198, Note_on_c, 0, 72, 0
2, 27200, Note_on_c, 0, 56, 0
2, 27267, Note_on_c, 0, 72, 68
2, 27267, Note_on_c, 0, 56, 59
2, 27268, Note_on_c, 0, 67, 69
2, 27268, Note_on_c, 0, 62, 70
2, 27269, Note_on_c, 0, 64, 62
2, 27278, Control_c, 0, 64, 127
2, 27308, Note_on_c, 0, 56, 0
2, 27319, Note_on_c, 0, 64, 0
2, 27328, Note_on_c, 0, 62, 0
2, 27337, Note_on_c, 0, 67, 0
2, 27344, Note_on_c, 0, 72, 0
2, 27364, Note_on_c, 0, 64, 66
2, 27365, Note_on_c, 0, 71, 74
2, 27367, Note_on_c, 0, 67, 71
2, 27368, Control_c, 0, 64, 0
2, 27368, Note_on_c, 0, 59, 39
2, 27369, Note_on_c, 0, 60, 57
2, 27444, Control_c, 0, 64, 127
2, 27537, Note_on_c, 0, 67, 0
2, 27556, Note_on_c, 0, 60, 0
2, 27560, Note_on_c, 0, 64, 0
2, 27561, Note_on_c, 0, 71, 0
2, 27564, Note_on_c, 0, 59, 0
2, 27724, Note_on_c, 0, 61, 68
2, 27725, Note_on_c, 0, 60, 69
2, 27725, Note_on_c, 0, 84, 103
2, 27725, Note_on_c, 0, 65, 78
2, 27726, Note_on_c, 0, 77, 96
2, 27728, Note_on_c, 0, 55, 74
2, 27732, Note_on_c, 0, 58, 42
2, 27736, Control_c, 0, 64, 0
2, 27789, Control_c, 0, 64, 127
2, 27806, Note_on_c, 0, 84, 0
2, 27817, Note_on_c, 0, 81, 73
2, 27818, Note_on_c, 0, 72, 68
2, 27841, Note_on_c, 0, 77, 0
2, 27956, Note_on_c, 0, 72, 0
2, 27977, Note_on_c, 0, 65, 0
2, 27983, Note_on_c, 0, 60, 0
2, 27998, Note_on_c, 0, 55, 0
2, 27999, Note_on_c, 0, 58, 0
2, 28003, Note_on_c, 0, 61, 0
2, 28026, Note_on_c, 0, 81, 0
2, 28033, Note_on_c, 0, 72, 61
2, 28058, Note_on_c, 0, 72, 0
2, 28088, Note_on_c, 0, 64, 58
2, 28090, Note_on_c, 0, 53, 35
2, 28090, Note_on_c, 0, 71, 73
2, 28091, Note_on_c, 0, 76, 66
2, 28092, Note_on_c, 0, 79, 65
2, 28093, Note_on_c, 0, 57, 54
2, 28093, Note_on_c, 0, 60, 54
2, 28101, Control_c, 0, 64, 0
2, 28163, Control_c, 0, 64, 127
2, 28195, Note_on_c, 0, 79, 0
2, 28195, Note_on_c, 0, 76, 0
2, 28208, Note_on_c, 0, 71, 0
2, 28226, Note_on_c, 0, 64, 0
2, 28227, Note_on_c, 0, 60, 0
2, 28243, Note_on_c, 0, 57, 0
2, 28279, Note_on_c, 0, 76, 60
2, 28280, Note_on_c, 0, 72, 55
2, 28283, Note_on_c, 0, 64, 57
2, 28284, Note_on_c, 0, 69, 64
2, 28289, Note_on_c, 0, 60, 37
2, 28289, Note_on_c, 0, 57, 32
2, 28298, Control_c, 0, 64, 0
2, 28309, Control_c, 0, 64, 127
2, 28334, Note_on_c, 0, 60, 0
2, 28334, Note_on_c, 0, 64, 0
2, 28341, Note_on_c, 0, 57, 0
2, 28351, Note_on_c, 0, 76, 0
2, 28363, Note_on_c, 0, 53, 0
2, 28377, Note_on_c, 0, 72, 0
2, 28397, Note_on_c, 0, 69, 0
2, 28447, Note_on_c, 0, 74, 67
2, 28451, Note_on_c, 0, 62, 51
2, 28451, Note_on_c, 0, 67, 61
2, 28453, Control_c, 0, 64, 0
2, 28453, Note_on_c, 0, 59, 46
2, 28454, Note_on_c, 0, 52, 42
2, 28456, Note_on_c, 0, 55, 55
2, 28531, Control_c, 0, 64, 127
2, 28568, Note_on_c, 0, 67, 0
2, 28579, Note_on_c, 0, 62, 0
2, 28581, Note_on_c, 0, 59, 0
2, 28586, Note_on_c, 0, 55, 0
2, 28607, Note_on_c, 0, 52, 0
2, 28622, Note_on_c, 0, 74, 0
2, 28636, Note_on_c, 0, 71, 44
2, 28641, Note_on_c, 0, 67, 49
2, 28644, Note_on_c, 0, 64, 41
2, 28644, Note_on_c, 0, 52, 33
2, 28647, Note_on_c, 0, 62, 40
2, 28648, Note_on_c, 0, 59, 35
2, 28651, Note_on_c, 0, 55, 37
2, 28694, Note_on_c, 0, 62, 0
2, 28695, Note_on_c, 0, 59, 0
2, 28702, Note_on_c, 0, 55, 0
2, 28704, Note_on_c, 0, 71, 0
2, 28717, Note_on_c, 0, 67, 0
2, 28719, Note_on_c, 0, 52, 0
2, 28730, Note_on_c, 0, 64, 0
2, 28808, Note_on_c, 0, 54, 21
2, 28811, Note_on_c, 0, 60, 49
2, 28813, Note_on_c, 0, 63, 46
2, 28814, Note_on_c, 0, 66, 49
2, 28814, Note_on_c, 0, 51, 36
2, 28815, Control_c, 0, 64, 0
2, 28819, Note_on_c, 0, 57, 42
2, 28865, Control_c, 0, 64, 127
2, 28875, Note_on_c, 0, 63, 0
2, 28889, Note_on_c, 0, 57, 0
2, 28895, Note_on_c, 0, 60, 0
2, 28898, Note_on_c, 0, 66, 0
2, 28907, Note_on_c, 0, 51, 0
2, 28912, Note_on_c, 0, 54, 0
2, 29120, Note_on_c, 0, 51, 62
2, 29122, Note_on_c, 0, 54, 50
2, 29123, Note_on_c, 0, 78, 78
2, 29124, Note_on_c, 0, 60, 64
2, 29124, Note_on_c, 0, 84, 90
2, 29125, Note_on_c, 0, 72, 80
2, 29130, Note_on_c, 0, 57, 42
2, 29143, Note_on_c, 0, 57, 0
2, 29148, Note_on_c, 0, 60, 0
2, 29150, Note_on_c, 0, 51, 0
2, 29153, Note_on_c, 0, 84, 0
2, 29153, Note_on_c, 0, 72, 0
2, 29159, Note_on_c, 0, 78, 0
2, 29160, Note_on_c, 0, 54, 0
2, 29188, Note_on_c, 0, 83, 78
2, 29189, Note_on_c, 0, 55, 68
2, 29190, Note_on_c, 0, 52, 68
2, 29191, Note_on_c, 0, 76, 74
2, 29191, Note_on_c, 0, 71, 72
2, 29192, Note_on_c, 0, 79, 64
2, 29192, Note_on_c, 0, 59, 66
2, 29192, Note_on_c, 0, 62, 70
2, 29193, Control_c, 0, 64, 0
2, 29244, Control_c, 0, 64, 127
2, 29273, Note_on_c, 0, 83, 0
2, 29278, Note_on_c, 0, 79, 0
2, 29287, Note_on_c, 0, 76, 0
2, 29289, Note_on_c, 0, 62, 0
2, 29293, Note_on_c, 0, 71, 0
2, 29297, Note_on_c, 0, 59, 0
2, 29299, Note_on_c, 0, 55, 0
2, 29306, Note_on_c, 0, 52, 0
2, 29368, Note_on_c, 0, 52, 59
2, 29369, Note_on_c, 0, 79, 61
2, 29369, Note_on_c, 0, 74, 68
2, 29370, Control_c, 0, 64, 0
2, 29371, Note_on_c, 0, 67, 58
2, 29373, Note_on_c, 0, 55, 45
2, 29374, Note_on_c, 0, 62, 55
2, 29377, Note_on_c, 0, 59, 53
2, 29411, Note_on_c, 0, 79, 0
2, 29412, Control_c, 0, 64, 127
2, 29413, Note_on_c, 0, 74, 0
2, 29429, Note_on_c, 0, 67, 0
2, 29431, Note_on_c, 0, 55, 0
2, 29436, Note_on_c, 0, 52, 0
2, 29440, Note_on_c, 0, 59, 0
2, 29456, Note_on_c, 0, 62, 0
2, 29535, Note_on_c, 0, 76, 62
2, 29536, Control_c, 0, 64, 0
2, 29537, Note_on_c, 0, 53, 42
2, 29538, Note_on_c, 0, 57, 50
2, 29539, Note_on_c, 0, 69, 49
2, 29539, Note_on_c, 0, 72, 35
2, 29539, Note_on_c, 0, 60, 51
2, 29540, Note_on_c, 0, 64, 49
2, 29604, Control_c, 0, 64, 127
2, 29750, Note_on_c, 0, 72, 0
2, 29752, Note_on_c, 0, 76, 0
2, 29753, Note_on_c, 0, 60, 0
2, 29754, Note_on_c, 0, 69, 0
2, 29760, Note_on_c, 0, 57, 0
2, 29770, Note_on_c, 0, 64, 0
2, 29780, Note_on_c, 0, 53, 0
2, 29881, Note_on_c, 0, 63, 86
2, 29881, Note_on_c, 0, 67, 88
2, 29882, Note_on_c, 0, 74, 89
2, 29884, Note_on_c, 0, 69, 74
2, 29885, Note_on_c, 0, 62, 99
2, 29891, Control_c, 0, 64, 0
2, 29950, Control_c, 0, 64, 127
2, 30021, Note_on_c, 0, 69, 0
2, 30027, Note_on_c, 0, 63, 0
2, 30029, Note_on_c, 0, 67, 0
2, 30036, Note_on_c, 0, 74, 0
2, 30050, Note_on_c, 0, 62, 0
2, 30076, Note_on_c, 0, 72, 68
2, 30078, Note_on_c, 0, 63, 65
2, 30078, Note_on_c, 0, 67, 76
2, 30080, Note_on_c, 0, 60, 69
2, 30134, Note_on_c, 0, 63, 0
2, 30150, Note_on_c, 0, 67, 0
2, 30159, Note_on_c, 0, 72, 0
2, 30168, Note_on_c, 0, 60, 0
2, 30252, Note_on_c, 0, 56, 76
2, 30253, Note_on_c, 0, 72, 88
2, 30253, Note_on_c, 0, 76, 89
2, 30254, Note_on_c, 0, 62, 83
2, 30254, Note_on_c, 0, 67, 95
2, 30256, Control_c, 0, 64, 0
2, 30318, Control_c, 0, 64, 127
2, 30448, Note_on_c, 0, 56, 0
2, 30458, Note_on_c, 0, 62, 0
2, 30466, Note_on_c, 0, 72, 0
2, 30520, Note_on_c, 0, 67, 0
2, 30534, Note_on_c, 0, 76, 0
2, 30547, Note_on_c, 0, 72, 60
2, 30599, Note_on_c, 0, 72, 0
2, 30605, Note_on_c, 0, 55, 50
2, 30606, Note_on_c, 0, 66, 38
2, 30606, Note_on_c, 0, 61, 46
2, 30607, Control_c, 0, 64, 0
2, 30610, Note_on_c, 0, 69, 43
2, 30635, Note_on_c, 0, 69, 0
2, 30638, Control_c, 0, 64, 127
2, 30646, Note_on_c, 0, 55, 0
2, 30660, Note_on_c, 0, 61, 0
2, 30662, Note_on_c, 0, 66, 0
2, 30729, Note_on_c, 0, 89, 80
2, 30730, Note_on_c, 0, 77, 82
2, 30731, Note_on_c, 0, 66, 77
2, 30732, Note_on_c, 0, 61, 69
2, 30733, Note_on_c, 0, 55, 78
2, 30770, Note_on_c, 0, 77, 0
2, 30772, Note_on_c, 0, 55, 0
2, 30777, Note_on_c, 0, 66, 0
2, 30782, Note_on_c, 0, 89, 0
2, 30786, Note_on_c, 0, 61, 0
2, 30812, Note_on_c, 0, 93, 88
2, 30812, Note_on_c, 0, 81, 82
2, 30814, Note_on_c, 0, 66, 77
2, 30815, Note_on_c, 0, 61, 62
2, 30817, Note_on_c, 0, 55, 76
2, 30831, Note_on_c, 0, 81, 0
2, 30840, Note_on_c, 0, 55, 0
2, 30841, Note_on_c, 0, 66, 0
2, 30843, Note_on_c, 0, 93, 0
2, 30854, Note_on_c, 0, 61, 0
2, 30888, Note_on_c, 0, 61, 54
2, 30889, Note_on_c, 0, 66, 69
2, 30892, Note_on_c, 0, 55, 61
2, 30894, Note_on_c, 0, 96, 81
2, 30894, Note_on_c, 0, 84, 82
2, 30914, Note_on_c, 0, 84, 0
2, 30916, Note_on_c, 0, 55, 0
2, 30916, Note_on_c, 0, 66, 0
2, 30926, Note_on_c, 0, 96, 0
2, 30937, Note_on_c, 0, 61, 0
2, 31001, Control_c, 0, 64, 0
2, 31052, Note_on_c, 0, 88, 66
2, 31053, Note_on_c, 0, 100, 66
2, 31054, Note_on_c, 0, 65, 64
2, 31054, Note_on_c, 0, 62, 57
2, 31054, Note_on_c, 0, 60, 64
2, 31057, Note_on_c, 0, 96, 49
2, 31062, Note_on_c, 0, 88, 0
2, 31063, Note_on_c, 0, 100, 0
2, 31063, Note_on_c, 0, 65, 0
2, 31064, Note_on_c, 0, 60, 0
2, 31066, Note_on_c, 0, 96, 0
2, 31066, Note_on_c, 0, 62, 0
2, 31133, Control_c, 0, 64, 127
2, 31149, Control_c, 0, 64, 0
2, 31197, Control_c, 0, 64, 127
2, 31210, Note_on_c, 0, 96, 62
2, 31210, Note_on_c, 0, 100, 62
2, 31211, Note_on_c, 0, 88, 58
2, 31211, Note_on_c, 0, 62, 58
2, 31212, Note_on_c, 0, 67, 43
2, 31213, Note_on_c, 0, 56, 37
2, 31219, Note_on_c, 0, 96, 0
2, 31220, Note_on_c, 0, 88, 0
2, 31221, Note_on_c, 0, 100, 0
2, 31225, Note_on_c, 0, 67, 0
2, 31226, Note_on_c, 0, 62, 0
2, 31242, Note_on_c, 0, 56, 0
2, 31293, Control_c, 0, 64, 0
2, 31330, Note_on_c, 0, 94, 56
2, 31331, Note_on_c, 0, 89, 60
2, 31332, Note_on_c, 0, 97, 52
2, 31332, Note_on_c, 0, 66, 64
2, 31332, Note_on_c, 0, 61, 55
2, 31332, Note_on_c, 0, 101, 59
2, 31335, Note_on_c, 0, 55, 68
2, 31336, Control_c, 0, 64, 127
2, 31407, Note_on_c, 0, 94, 0
2, 31410, Note_on_c, 0, 97, 0
2, 31411, Note_on_c, 0, 89, 0
2, 31414, Note_on_c, 0, 55, 0
2, 31417, Note_on_c, 0, 101, 0
2, 31426, Note_on_c, 0, 66, 0
2, 31434, Note_on_c, 0, 61, 0
2, 31522, Note_on_c, 0, 61, 53
2, 31524, Note_on_c, 0, 66, 53
2, 31524, Note_on_c, 0, 94, 53
2, 31525, Note_on_c, 0, 89, 52
2, 31525, Note_on_c, 0, 97, 52
2, 31526, Note_on_c, 0, 55, 57
2, 31528, Note_on_c, 0, 101, 55
2, 31574, Note_on_c, 0, 55, 0
2, 31579, Note_on_c, 0, 66, 0
2, 31586, Note_on_c, 0, 101, 0
2, 31592, Note_on_c, 0, 89, 0
2, 31605, Note_on_c, 0, 97, 0
2, 31607, Note_on_c, 0, 94, 0
2, 31617, Note_on_c, 0, 61, 0
2, 31681, Note_on_c, 0, 53, 38
2, 31682, Note_on_c, 0, 64, 51
2, 31685, Note_on_c, 0, 60, 53
2, 31686, Note_on_c, 0, 57, 53
2, 31687, Note_on_c, 0, 100, 62
2, 31687, Note_on_c, 0, 93, 55
2, 31687, Note_on_c, 0, 96, 49
2, 31691, Control_c, 0, 64, 0
2, 31691, Note_on_c, 0, 88, 36
2, 31744, Control_c, 0, 64, 127
2, 31774, Note_on_c, 0, 100, 0
2, 31786, Note_on_c, 0, 96, 0
2, 31791, Note_on_c, 0, 93, 0
2, 31809, Note_on_c, 0, 57, 0
2, 31810, Note_on_c, 0, 60, 0
2, 31812, Note_on_c, 0, 88, 0
2, 31812, Note_on_c, 0, 64, 0
2, 31819, Note_on_c, 0, 53, 0
2, 31869, Note_on_c, 0, 53, 48
2, 31873, Note_on_c, 0, 64, 47
2, 31875, Note_on_c, 0, 57, 51
2, 31878, Note_on_c, 0, 60, 46
2, 31911, Note_on_c, 0, 60, 0
2, 31928, Note_on_c, 0, 64, 0
2, 31954, Note_on_c, 0, 53, 0
2, 31966, Note_on_c, 0, 57, 0
2, 32046, Note_on_c, 0, 54, 67
2, 32047, Note_on_c, 0, 60, 71
2, 32048, Note_on_c, 0, 70, 68
2, 32048, Note_on_c, 0, 74, 74
2, 32049, Note_on_c, 0, 65, 75
2, 32050, Control_c, 0, 64, 0
2, 32057, Note_on_c, 0, 70, 0
2, 32058, Note_on_c, 0, 65, 0
2, 32059, Note_on_c, 0, 60, 0
2, 32060, Note_on_c, 0, 74, 0
2, 32069, Note_on_c, 0, 54, 0
2, 32120, Note_on_c, 0, 70, 69
2, 32121, Note_on_c, 0, 74, 71
2, 32121, Note_on_c, 0, 65, 76
2, 32123, Note_on_c, 0, 60, 71
2, 32124, Note_on_c, 0, 54, 55
2, 32130, Note_on_c, 0, 65, 0
2, 32133, Note_on_c, 0, 60, 0
2, 32134, Note_on_c, 0, 70, 0
2, 32134, Note_on_c, 0, 74, 0
2, 32137, Note_on_c, 0, 54, 0
2, 32175, Note_on_c, 0, 54, 62
2, 32176, Note_on_c, 0, 70, 70
2, 32177, Note_on_c, 0, 60, 68
2, 32177, Note_on_c, 0, 74, 64
2, 32177, Note_on_c, 0, 65, 72
2, 32244, Note_on_c, 0, 65, 0
2, 32250, Note_on_c, 0, 74, 0
2, 32251, Note_on_c, 0, 70, 0
2, 32256, Note_on_c, 0, 60, 0
2, 32257, Note_on_c, 0, 54, 0
2, 32272, Control_c, 0, 64, 127
2, 32282, Note_on_c, 0, 54, 52
2, 32282, Note_on_c, 0, 70, 68
2, 32284, Note_on_c, 0, 74, 61
2, 32284, Note_on_c, 0, 60, 61
2, 32286, Note_on_c, 0, 65, 63
2, 32328, Note_on_c, 0, 60, 0
2, 32351, Note_on_c, 0, 65, 0
2, 32364, Note_on_c, 0, 74, 0
2, 32366, Note_on_c, 0, 54, 0
2, 32372, Note_on_c, 0, 70, 0
2, 32405, Note_on_c, 0, 69, 66
2, 32406, Note_on_c, 0, 72, 48
2, 32407, Control_c, 0, 64, 0
2, 32407, Note_on_c, 0, 65, 53
2, 32408, Note_on_c, 0, 62, 55
2, 32408, Note_on_c, 0, 58, 45
2, 32411, Note_on_c, 0, 60, 50
2, 32477, Control_c, 0, 64, 127
2, 32521, Note_on_c, 0, 60, 0
2, 32530, Note_on_c, 0, 69, 0
2, 32533, Note_on_c, 0, 62, 0
2, 32534, Note_on_c, 0, 65, 0
2, 32538, Note_on_c, 0, 58, 0
2, 32584, Note_on_c, 0, 72, 0
2, 32604, Note_on_c, 0, 69, 48
2, 32606, Note_on_c, 0, 65, 37
2, 32608, Note_on_c, 0, 62, 45
2, 32610, Note_on_c, 0, 58, 37
2, 32614, Note_on_c, 0, 60, 47
2, 32642, Note_on_c, 0, 60, 0
2, 32648, Note_on_c, 0, 62, 0
2, 32657, Note_on_c, 0, 58, 0
2, 32696, Note_on_c, 0, 65, 0
2, 32704, Note_on_c, 0, 69, 0
2, 32767, Note_on_c, 0, 56, 36
2, 32767, Note_on_c, 0, 67, 53
2, 32768, Note_on_c, 0, 64, 36
2, 32770, Note_on_c, 0, 62, 48
2, 32770, Note_on_c, 0, 52, 47
2, 32778, Control_c, 0, 64, 0
2, 32845, Control_c, 0, 64, 127
2, 32883, Note_on_c, 0, 62, 0
2, 32897, Note_on_c, 0, 64, 0
2, 32897, Note_on_c, 0, 52, 0
2, 32902, Note_on_c, 0, 56, 0
2, 32903, Note_on_c, 0, 67, 0
2, 32963, Note_on_c, 0, 56, 46
2, 32964, Note_on_c, 0, 62, 45
2, 32968, Note_on_c, 0, 52, 29
2, 32977, Note_on_c, 0, 62, 0
2, 32980, Note_on_c, 0, 52, 0
2, 32987, Note_on_c, 0, 56, 0
2, 33122, Note_on_c, 0, 64, 79
2, 33123, Note_on_c, 0, 60, 70
2, 33124, Note_on_c, 0, 55, 74
2, 33125, Note_on_c, 0, 59, 62
2, 33125, Note_on_c, 0, 76, 75
2, 33126, Note_on_c, 0, 83, 73
2, 33126, Note_on_c, 0, 71, 74
2, 33126, Note_on_c, 0, 79, 61
2, 33127, Control_c, 0, 64, 0
2, 33133, Note_on_c, 0, 55, 0
2, 33134, Note_on_c, 0, 59, 0
2, 33135, Note_on_c, 0, 76, 0
2, 33135, Note_on_c, 0, 71, 0
2, 33136, Note_on_c, 0, 79, 0
2, 33137, Note_on_c, 0, 60, 0
2, 33139, Note_on_c, 0, 64, 0
2, 33147, Note_on_c, 0, 83, 0
2, 33264, Control_c, 0, 64, 127
2, 33317, Note_on_c, 0, 86, 77
2, 33318, Control_c, 0, 64, 0
2, 33320, Note_on_c, 0, 79, 71
2, 33320, Note_on_c, 0, 74, 72
2, 33320, Note_on_c, 0, 64, 85
2, 33322, Note_on_c, 0, 60, 76
2, 33322, Note_on_c, 0, 59, 71
2, 33323, Note_on_c, 0, 55, 83
2, 33325, Note_on_c, 0, 83, 57
2, 33325, Note_on_c, 0, 82, 25
2, 33360, Note_on_c, 0, 82, 0
2, 33366, Control_c, 0, 64, 127
2, 33392, Note_on_c, 0, 83, 0
2, 33392, Note_on_c, 0, 86, 0
2, 33399, Note_on_c, 0, 79, 0
2, 33400, Note_on_c, 0, 60, 0
2, 33401, Note_on_c, 0, 55, 0
2, 33402, Note_on_c, 0, 59, 0
2, 33404, Note_on_c, 0, 74, 0
2, 33407, Note_on_c, 0, 64, 0
2, 33485, Note_on_c, 0, 81, 71
2, 33485, Note_on_c, 0, 65, 62
2, 33486, Note_on_c, 0, 61, 48
2, 33488, Note_on_c, 0, 73, 45
2, 33488, Note_on_c, 0, 69, 66
2, 33489, Note_on_c, 0, 60, 50
2, 33490, Note_on_c, 0, 77, 54
2, 33490, Note_on_c, 0, 55, 64
2, 33495, Control_c, 0, 64, 0
2, 33565, Control_c, 0, 64, 127
2, 33613, Note_on_c, 0, 55, 0
2, 33614, Note_on_c, 0, 60, 0
2, 33615, Note_on_c, 0, 65, 0
2, 33619, Note_on_c, 0, 77, 0
2, 33622, Note_on_c, 0, 61, 0
2, 33624, Note_on_c, 0, 73, 0
2, 33625, Note_on_c, 0, 69, 0
2, 33651, Note_on_c, 0, 81, 0
2, 33673, Note_on_c, 0, 77, 58
2, 33674, Note_on_c, 0, 61, 46
2, 33675, Note_on_c, 0, 65, 58
2, 33679, Note_on_c, 0, 73, 27
2, 33679, Note_on_c, 0, 55, 53
2, 33681, Note_on_c, 0, 60, 36
2, 33681, Note_on_c, 0, 69, 37
2, 33717, Note_on_c, 0, 60, 0
2, 33720, Note_on_c, 0, 77, 0
2, 33726, Note_on_c, 0, 65, 0
2, 33731, Note_on_c, 0, 69, 0
2, 33738, Note_on_c, 0, 55, 0
2, 33776, Note_on_c, 0, 61, 0
2, 33796, Note_on_c, 0, 73, 0
2, 33840, Note_on_c, 0, 76, 55
2, 33841, Note_on_c, 0, 57, 47
2, 33843, Note_on_c, 0, 64, 43
2, 33843, Note_on_c, 0, 53, 33
2, 33843, Note_on_c, 0, 72, 37
2, 33844, Note_on_c, 0, 60, 51
2, 33846, Control_c, 0, 64, 0
2, 33875, Note_on_c, 0, 69, 4
2, 33908, Control_c, 0, 64, 127
2, 33960, Note_on_c, 0, 60, 0
2, 33965, Note_on_c, 0, 57, 0
2, 33967, Note_on_c, 0, 64, 0
2, 33970, Note_on_c, 0, 72, 0
2, 33976, Note_on_c, 0, 69, 0
2, 33984, Note_on_c, 0, 53, 0
2, 34031, Note_on_c, 0, 53, 35
2, 34034, Note_on_c, 0, 64, 42
2, 34037, Note_on_c, 0, 72, 34
2, 34038, Note_on_c, 0, 57, 37
2, 34039, Note_on_c, 0, 60, 45
2, 34040, Note_on_c, 0, 69, 37
2, 34074, Note_on_c, 0, 76, 0
2, 34082, Note_on_c, 0, 60, 0
2, 34087, Note_on_c, 0, 57, 0
2, 34087, Note_on_c, 0, 64, 0
2, 34094, Note_on_c, 0, 72, 0
2, 34098, Note_on_c, 0, 69, 0
2, 34104, Note_on_c, 0, 53, 0
2, 34204, Note_on_c, 0, 71, 51
2, 34204, Note_on_c, 0, 52, 35
2, 34204, Note_on_c, 0, 62, 38
2, 34205, Note_on_c, 0, 67, 54
2, 34206, Note_on_c, 0, 55, 56
2, 34206, Note_on_c, 0, 59, 42
2, 34209, Control_c, 0, 64, 0
2, 34273, Control_c, 0, 64, 127
2, 34342, Note_on_c, 0, 52, 0
2, 34354, Note_on_c, 0, 59, 0
2, 34357, Note_on_c, 0, 55, 0
2, 34357, Note_on_c, 0, 62, 0
2, 34364, Note_on_c, 0, 67, 0
2, 34397, Note_on_c, 0, 71, 0
2, 34399, Note_on_c, 0, 62, 29
2, 34400, Note_on_c, 0, 67, 14
2, 34400, Note_on_c, 0, 52, 35
2, 34405, Note_on_c, 0, 55, 36
2, 34409, Note_on_c, 0, 59, 25
2, 34415, Note_on_c, 0, 67, 0
2, 34421, Note_on_c, 0, 59, 0
2, 34424, Note_on_c, 0, 62, 0
2, 34425, Note_on_c, 0, 55, 0
2, 34445, Note_on_c, 0, 52, 0
2, 34569, Note_on_c, 0, 60, 88
2, 34570, Note_on_c, 0, 63, 91
2, 34570, Note_on_c, 0, 66, 83
2, 34570, Note_on_c, 0, 72, 85
2, 34573, Note_on_c, 0, 69, 68
2, 34574, Control_c, 0, 64, 0
2, 34641, Control_c, 0, 64, 127
2, 34668, Note_on_c, 0, 69, 0
2, 34671, Note_on_c, 0, 72, 0
2, 34679, Note_on_c, 0, 60, 0
2, 34680, Note_on_c, 0, 63, 0
2, 34688, Note_on_c, 0, 66, 0
2, 34758, Note_on_c, 0, 71, 74
2, 34760, Note_on_c, 0, 66, 67
2, 34761, Note_on_c, 0, 63, 59
2, 34761, Note_on_c, 0, 59, 76
2, 34764, Note_on_c, 0, 62, 64
2, 34768, Control_c, 0, 64, 0
2, 34813, Control_c, 0, 64, 127
2, 34854, Note_on_c, 0, 59, 0
2, 34854, Note_on_c, 0, 71, 0
2, 34870, Note_on_c, 0, 62, 0
2, 34879, Note_on_c, 0, 63, 0
2, 34894, Note_on_c, 0, 66, 0
2, 34919, Control_c, 0, 64, 0
2, 34921, Note_on_c, 0, 64, 66
2, 34921, Note_on_c, 0, 69, 70
2, 34923, Note_on_c, 0, 60, 64
2, 34924, Note_on_c, 0, 57, 60
2, 34967, Control_c, 0, 64, 127
2, 35002, Note_on_c, 0, 69, 0
2, 35008, Note_on_c, 0, 60, 0
2, 35011, Note_on_c, 0, 57, 0
2, 35016, Note_on_c, 0, 64, 0
2, 35113, Control_c, 0, 64, 0
2, 35114, Note_on_c, 0, 67, 62
2, 35117, Note_on_c, 0, 62, 62
2, 35119, Note_on_c, 0, 55, 50
2, 35119, Note_on_c, 0, 59, 51
2, 35147, Note_on_c, 0, 55, 0
2, 35152, Control_c, 0, 64, 127
2, 35168, Note_on_c, 0, 67, 0
2, 35173, Note_on_c, 0, 62, 0
2, 35187, Note_on_c, 0, 59, 0
2, 35267, Control_c, 0, 64, 0
2, 35278, Note_on_c, 0, 41, 48
2, 35280, Note_on_c, 0, 55, 55
2, 35281, Note_on_c, 0, 57, 51
2, 35282, Note_on_c, 0, 64, 43
2, 35285, Note_on_c, 0, 48, 37
2, 35285, Note_on_c, 0, 60, 51
2, 35299, Note_on_c, 0, 55, 0
2, 35307, Control_c, 0, 64, 127
2, 35308, Note_on_c, 0, 57, 0
2, 35310, Note_on_c, 0, 41, 0
2, 35313, Note_on_c, 0, 48, 0
2, 35319, Note_on_c, 0, 60, 0
2, 35331, Note_on_c, 0, 64, 0
2, 35480, Note_on_c, 0, 89, 80
2, 35482, Note_on_c, 0, 53, 69
2, 35482, Note_on_c, 0, 57, 67
2, 35483, Note_on_c, 0, 60, 69
2, 35483, Note_on_c, 0, 64, 76
2, 35483, Note_on_c, 0, 84, 85
2, 35484, Note_on_c, 0, 77, 76
2, 35487, Control_c, 0, 64, 0
2, 35529, Control_c, 0, 64, 127
2, 35561, Note_on_c, 0, 60, 0
2, 35566, Note_on_c, 0, 57, 0
2, 35566, Note_on_c, 0, 53, 0
2, 35568, Note_on_c, 0, 64, 0
2, 35568, Note_on_c, 0, 84, 0
2, 35570, Note_on_c, 0, 89, 0
2, 35581, Note_on_c, 0, 77, 0
2, 35642, Note_on_c, 0, 86, 88
2, 35645, Note_on_c, 0, 57, 71
2, 35645, Note_on_c, 0, 79, 71
2, 35645, Note_on_c, 0, 63, 64
2, 35646, Note_on_c, 0, 74, 74
2, 35646, Note_on_c, 0, 67, 81
2, 35647, Note_on_c, 0, 83, 69
2, 35647, Note_on_c, 0, 62, 76
2, 35653, Control_c, 0, 64, 0
2, 35717, Control_c, 0, 64, 127
2, 35782, Note_on_c, 0, 67, 0
2, 35782, Note_on_c, 0, 57, 0
2, 35784, Note_on_c, 0, 62, 0
2, 35785, Note_on_c, 0, 79, 0
2, 35787, Note_on_c, 0, 63, 0
2, 35787, Note_on_c, 0, 74, 0
2, 35794, Note_on_c, 0, 83, 0
2, 35795, Note_on_c, 0, 86, 0
2, 35845, Note_on_c, 0, 67, 71
2, 35846, Note_on_c, 0, 62, 55
2, 35846, Note_on_c, 0, 86, 75
2, 35847, Note_on_c, 0, 63, 50
2, 35847, Note_on_c, 0, 83, 54
2, 35847, Note_on_c, 0, 74, 58
2, 35850, Note_on_c, 0, 79, 55
2, 35850, Note_on_c, 0, 57, 54
2, 35917, Note_on_c, 0, 74, 0
2, 35918, Note_on_c, 0, 62, 0
2, 35921, Note_on_c, 0, 67, 0
2, 35925, Note_on_c, 0, 79, 0
2, 35931, Note_on_c, 0, 57, 0
2, 35938, Note_on_c, 0, 63, 0
2, 35942, Note_on_c, 0, 86, 0
2, 35942, Note_on_c, 0, 83, 0
2, 36015, Note_on_c, 0, 67, 79
2, 36015, Note_on_c, 0, 56, 74
2, 36016, Note_on_c, 0, 62, 70
2, 36018, Note_on_c, 0, 88, 74
2, 36019, Control_c, 0, 64, 0
2, 36021, Note_on_c, 0, 84, 65
2, 36022, Note_on_c, 0, 76, 60
2, 36073, Control_c, 0, 64, 127
2, 36083, Note_on_c, 0, 88, 0
2, 36089, Note_on_c, 0, 84, 0
2, 36101, Note_on_c, 0, 76, 0
2, 36111, Note_on_c, 0, 67, 0
2, 36118, Note_on_c, 0, 56, 0
2, 36131, Note_on_c, 0, 62, 0
2, 36200, Note_on_c, 0, 56, 70
2, 36200, Note_on_c, 0, 62, 64
2, 36202, Control_c, 0, 64, 0
2, 36202, Note_on_c, 0, 84, 67
2, 36203, Note_on_c, 0, 67, 47
2, 36206, Note_on_c, 0, 72, 37
2, 36207, Note_on_c, 0, 79, 42
2, 36210, Note_on_c, 0, 65, 44
2, 36222, Note_on_c, 0, 65, 0
2, 36229, Note_on_c, 0, 67, 0
2, 36238, Control_c, 0, 64, 127
2, 36239, Note_on_c, 0, 62, 0
2, 36248, Note_on_c, 0, 84, 0
2, 36255, Note_on_c, 0, 79, 0
2, 36270, Note_on_c, 0, 72, 0
2, 36274, Note_on_c, 0, 56, 0
2, 36364, Note_on_c, 0, 81, 55
2, 36365, Note_on_c, 0, 55, 64
2, 36366, Note_on_c, 0, 69, 48
2, 36367, Note_on_c, 0, 73, 30
2, 36367, Note_on_c, 0, 77, 44
2, 36368, Control_c, 0, 64, 0
2, 36368, Note_on_c, 0, 65, 48
2, 36371, Note_on_c, 0, 61, 32
2, 36418, Control_c, 0, 64, 127
2, 36456, Note_on_c, 0, 69, 0
2, 36467, Note_on_c, 0, 73, 0
2, 36478, Note_on_c, 0, 55, 0
2, 36478, Note_on_c, 0, 65, 0
2, 36486, Note_on_c, 0, 61, 0
2, 36490, Note_on_c, 0, 77, 0
2, 36502, Note_on_c, 0, 81, 0
2, 36545, Note_on_c, 0, 55, 62
2, 36547, Note_on_c, 0, 61, 42
2, 36547, Note_on_c, 0, 65, 46
2, 36570, Note_on_c, 0, 65, 0
2, 36578, Note_on_c, 0, 55, 0
2, 36628, Note_on_c, 0, 61, 0
2, 36719, Note_on_c, 0, 90, 49
2, 36720, Note_on_c, 0, 61, 35
2, 36724, Control_c, 0, 64, 0
2, 36724, Note_on_c, 0, 54, 30
2, 36725, Note_on_c, 0, 81, 24
2, 36725, Note_on_c, 0, 64, 31
2, 36727, Note_on_c, 0, 85, 32
2, 36729, Note_on_c, 0, 59, 37
2, 36755, Control_c, 0, 64, 127
2, 36832, Note_on_c, 0, 59, 0
2, 36832, Note_on_c, 0, 81, 0
2, 36838, Note_on_c, 0, 64, 0
2, 36838, Note_on_c, 0, 90, 0
2, 36838, Note_on_c, 0, 85, 0
2, 36847, Note_on_c, 0, 61, 0
2, 36850, Note_on_c, 0, 93, 88
2, 36888, Note_on_c, 0, 93, 0
2, 36888, Note_on_c, 0, 54, 0
2, 36918, Note_on_c, 0, 90, 78
2, 36946, Note_on_c, 0, 90, 0
2, 36974, Control_c, 0, 64, 0
2, 36975, Note_on_c, 0, 61, 33
2, 36975, Note_on_c, 0, 64, 39
2, 36977, Note_on_c, 0, 85, 55
2, 36977, Note_on_c, 0, 54, 26
2, 36982, Note_on_c, 0, 59, 35
2, 36999, Control_c, 0, 64, 127
2, 37042, Note_on_c, 0, 59, 0
2, 37044, Note_on_c, 0, 85, 0
2, 37050, Note_on_c, 0, 81, 55
2, 37055, Note_on_c, 0, 54, 0
2, 37059, Note_on_c, 0, 64, 0
2, 37070, Note_on_c, 0, 61, 0
2, 37073, Note_on_c, 0, 81, 0
2, 37104, Note_on_c, 0, 88, 78
2, 37106, Note_on_c, 0, 57, 48
2, 37107, Note_on_c, 0, 64, 44
2, 37108, Note_on_c, 0, 60, 56
2, 37108, Note_on_c, 0, 55, 50
2, 37117, Control_c, 0, 64, 0
2, 37165, Control_c, 0, 64, 127
2, 37196, Note_on_c, 0, 60, 0
2, 37206, Note_on_c, 0, 88, 0
2, 37214, Note_on_c, 0, 64, 0
2, 37216, Note_on_c, 0, 57, 0
2, 37216, Note_on_c, 0, 55, 0
2, 37288, Note_on_c, 0, 55, 52
2, 37288, Note_on_c, 0, 64, 46
2, 37289, Note_on_c, 0, 81, 44
2, 37289, Note_on_c, 0, 84, 53
2, 37291, Note_on_c, 0, 57, 45
2, 37292, Note_on_c, 0, 60, 49
2, 37293, Note_on_c, 0, 76, 35
2, 37297, Control_c, 0, 64, 0
2, 37339, Control_c, 0, 64, 127
2, 37350, Note_on_c, 0, 60, 0
2, 37350, Note_on_c, 0, 84, 0
2, 37357, Note_on_c, 0, 57, 0
2, 37360, Note_on_c, 0, 55, 0
2, 37363, Note_on_c, 0, 81, 0
2, 37371, Note_on_c, 0, 76, 0
2, 37383, Note_on_c, 0, 64, 0
2, 37452, Note_on_c, 0, 64, 58
2, 37452, Note_on_c, 0, 54, 46
2, 37453, Note_on_c, 0, 61, 40
2, 37455, Note_on_c, 0, 73, 29
2, 37455, Note_on_c, 0, 59, 52
2, 37457, Control_c, 0, 64, 0
2, 37462, Note_on_c, 0, 64, 0
2, 37466, Note_on_c, 0, 59, 0
2, 37469, Note_on_c, 0, 73, 0
2, 37469, Note_on_c, 0, 61, 0
2, 37472, Note_on_c, 0, 54, 0
2, 37520, Note_on_c, 0, 61, 61
2, 37521, Note_on_c, 0, 64, 68
2, 37522, Note_on_c, 0, 73, 53
2, 37523, Note_on_c, 0, 54, 48
2, 37524, Note_on_c, 0, 85, 61
2, 37524, Note_on_c, 0, 59, 50
2, 37531, Note_on_c, 0, 64, 0
2, 37533, Note_on_c, 0, 85, 0
2, 37533, Note_on_c, 0, 73, 0
2, 37534, Note_on_c, 0, 59, 0
2, 37538, Note_on_c, 0, 54, 0
2, 37540, Note_on_c, 0, 61, 0
2, 37581, Note_on_c, 0, 85, 70
2, 37581, Note_on_c, 0, 61, 46
2, 37581, Note_on_c, 0, 64, 65
2, 37582, Note_on_c, 0, 54, 56
2, 37582, Note_on_c, 0, 73, 44
2, 37582, Note_on_c, 0, 59, 58
2, 37608, Control_c, 0, 64, 127
2, 37641, Note_on_c, 0, 85, 0
2, 37642, Note_on_c, 0, 64, 0
2, 37643, Note_on_c, 0, 59, 0
2, 37646, Note_on_c, 0, 73, 0
2, 37646, Note_on_c, 0, 54, 0
2, 37650, Note_on_c, 0, 61, 0
2, 37665, Control_c, 0, 64, 0
2, 37683, Note_on_c, 0, 54, 57
2, 37686, Note_on_c, 0, 61, 58
2, 37688, Note_on_c, 0, 64, 64
2, 37688, Note_on_c, 0, 85, 73
2, 37689, Note_on_c, 0, 73, 55
2, 37692, Note_on_c, 0, 59, 60
2, 37695, Control_c, 0, 64, 127
2, 37720, Note_on_c, 0, 73, 0
2, 37721, Note_on_c, 0, 85, 0
2, 37733, Note_on_c, 0, 64, 0
2, 37733, Note_on_c, 0, 54, 0
2, 37735, Note_on_c, 0, 59, 0
2, 37755, Note_on_c, 0, 61, 0
2, 37776, Note_on_c, 0, 88, 66
2, 37776, Note_on_c, 0, 76, 67
2, 37776, Note_on_c, 0, 57, 62
2, 37777, Note_on_c, 0, 60, 68
2, 37777, Note_on_c, 0, 64, 63
2, 37780, Control_c, 0, 64, 0
2, 37784, Note_on_c, 0, 55, 37
2, 37785, Note_on_c, 0, 88, 0
2, 37789, Note_on_c, 0, 64, 0
2, 37789, Note_on_c, 0, 76, 0
2, 37794, Note_on_c, 0, 55, 0
2, 37797, Note_on_c, 0, 57, 0
2, 37798, Note_on_c, 0, 60, 0
2, 37849, Note_on_c, 0, 57, 55
2, 37850, Note_on_c, 0, 64, 56
2, 37850, Note_on_c, 0, 60, 58
2, 37851, Note_on_c, 0, 76, 72
2, 37852, Note_on_c, 0, 88, 76
2, 37861, Note_on_c, 0, 88, 0
2, 37862, Note_on_c, 0, 64, 0
2, 37864, Note_on_c, 0, 60, 0
2, 37865, Note_on_c, 0, 76, 0
2, 37867, Note_on_c, 0, 57, 0
2, 37923, Control_c, 0, 64, 127
2, 37928, Note_on_c, 0, 64, 75
2, 37928, Note_on_c, 0, 57, 66
2, 37929, Note_on_c, 0, 60, 72
2, 37930, Note_on_c, 0, 55, 73
2, 37931, Note_on_c, 0, 88, 72
2, 37933, Note_on_c, 0, 76, 74
2, 38060, Note_on_c, 0, 64, 0
2, 38064, Note_on_c, 0, 55, 0
2, 38064, Note_on_c, 0, 60, 0
2, 38072, Note_on_c, 0, 57, 0
2, 38081, Note_on_c, 0, 88, 0
2, 38100, Note_on_c, 0, 76, 0
2, 38168, Note_on_c, 0, 61, 47
2, 38169, Note_on_c, 0, 85, 60
2, 38169, Note_on_c, 0, 64, 57
2, 38171, Note_on_c, 0, 54, 36
2, 38171, Note_on_c, 0, 73, 38
2, 38173, Note_on_c, 0, 59, 57
2, 38176, Control_c, 0, 64, 0
2, 38243, Control_c, 0, 64, 127
2, 38267, Note_on_c, 0, 85, 0
2, 38275, Note_on_c, 0, 73, 0
2, 38275, Note_on_c, 0, 59, 0
2, 38290, Note_on_c, 0, 64, 0
2, 38297, Note_on_c, 0, 54, 0
2, 38309, Note_on_c, 0, 61, 0
2, 38359, Note_on_c, 0, 54, 44
2, 38362, Note_on_c, 0, 61, 37
2, 38362, Note_on_c, 0, 81, 56
2, 38363, Note_on_c, 0, 64, 45
2, 38365, Note_on_c, 0, 69, 51
2, 38367, Control_c, 0, 64, 0
2, 38368, Note_on_c, 0, 59, 48
2, 38406, Control_c, 0, 64, 127
2, 38416, Note_on_c, 0, 81, 0
2, 38428, Note_on_c, 0, 59, 0
2, 38434, Note_on_c, 0, 69, 0
2, 38437, Note_on_c, 0, 54, 0
2, 38444, Note_on_c, 0, 64, 0
2, 38464, Note_on_c, 0, 61, 0
2, 38526, Note_on_c, 0, 57, 65
2, 38527, Note_on_c, 0, 64, 68
2, 38528, Note_on_c, 0, 55, 69
2, 38529, Note_on_c, 0, 60, 64
2, 38529, Note_on_c, 0, 79, 77
2, 38530, Note_on_c, 0, 72, 84
2, 38530, Control_c, 0, 64, 0
2, 38589, Control_c, 0, 64, 127
2, 38628, Note_on_c, 0, 79, 0
2, 38633, Note_on_c, 0, 64, 0
2, 38634, Note_on_c, 0, 60, 0
2, 38637, Note_on_c, 0, 55, 0
2, 38643, Note_on_c, 0, 72, 0
2, 38647, Note_on_c, 0, 57, 0
2, 38714, Note_on_c, 0, 72, 49
2, 38715, Note_on_c, 0, 67, 53
2, 38716, Note_on_c, 0, 55, 54
2, 38716, Note_on_c, 0, 76, 47
2, 38719, Note_on_c, 0, 64, 38
2, 38721, Note_on_c, 0, 60, 45
2, 38730, Note_on_c, 0, 57, 24
2, 38765, Note_on_c, 0, 57, 0
2, 38770, Note_on_c, 0, 60, 0
2, 38774, Note_on_c, 0, 55, 0
2, 38776, Note_on_c, 0, 72, 0
2, 38784, Note_on_c, 0, 76, 0
2, 38787, Note_on_c, 0, 64, 0
2, 38806, Note_on_c, 0, 67, 0
2, 38879, Note_on_c, 0, 61, 36
2, 38880, Note_on_c, 0, 64, 48
2, 38882, Note_on_c, 0, 54, 33
2, 38885, Note_on_c, 0, 66, 38
2, 38886, Note_on_c, 0, 59, 40
2, 38887, Control_c, 0, 64, 0
2, 38889, Note_on_c, 0, 69, 44
2, 38948, Control_c, 0, 64, 127
2, 38975, Note_on_c, 0, 59, 0
2, 38984, Note_on_c, 0, 66, 0
2, 38994, Note_on_c, 0, 64, 0
2, 39005, Note_on_c, 0, 61, 0
2, 39007, Note_on_c, 0, 69, 0
2, 39008, Note_on_c, 0, 54, 0
2, 39067, Note_on_c, 0, 54, 37
2, 39067, Note_on_c, 0, 64, 47
2, 39068, Note_on_c, 0, 61, 35
2, 39072, Note_on_c, 0, 59, 44
2, 39108, Note_on_c, 0, 59, 0
2, 39109, Note_on_c, 0, 54, 0
2, 39116, Note_on_c, 0, 64, 0
2, 39128, Note_on_c, 0, 61, 0
2, 39186, Note_on_c, 0, 61, 54
2, 39191, Note_on_c, 0, 64, 42
2, 39192, Note_on_c, 0, 88, 77
2, 39192, Note_on_c, 0, 76, 68
2, 39202, Note_on_c, 0, 76, 0
2, 39203, Note_on_c, 0, 64, 0
2, 39209, Note_on_c, 0, 61, 0
2, 39215, Note_on_c, 0, 88, 0
2, 39250, Note_on_c, 0, 55, 88
2, 39252, Note_on_c, 0, 60, 82
2, 39252, Note_on_c, 0, 64, 79
2, 39253, Note_on_c, 0, 95, 91
2, 39254, Note_on_c, 0, 83, 85
2, 39255, Control_c, 0, 64, 0
2, 39258, Note_on_c, 0, 88, 62
2, 39267, Note_on_c, 0, 88, 0
2, 39273, Note_on_c, 0, 64, 0
2, 39274, Note_on_c, 0, 83, 0
2, 39274, Note_on_c, 0, 60, 0
2, 39279, Note_on_c, 0, 55, 0
2, 39279, Note_on_c, 0, 95, 0
2, 39343, Note_on_c, 0, 60, 80
2, 39346, Note_on_c, 0, 64, 72
2, 39346, Note_on_c, 0, 55, 76
2, 39347, Note_on_c, 0, 95, 82
2, 39349, Note_on_c, 0, 83, 80
2, 39355, Note_on_c, 0, 55, 0
2, 39355, Note_on_c, 0, 64, 0
2, 39361, Note_on_c, 0, 83, 0
2, 39364, Note_on_c, 0, 95, 0
2, 39364, Note_on_c, 0, 60, 0
2, 39381, Control_c, 0, 64, 127
2, 39436, Note_on_c, 0, 60, 73
2, 39437, Note_on_c, 0, 55, 76
2, 39437, Note_on_c, 0, 64, 69
2, 39438, Note_on_c, 0, 93, 80
2, 39440, Note_on_c, 0, 81, 76
2, 39456, Note_on_c, 0, 64, 0
2, 39466, Note_on_c, 0, 55, 0
2, 39469, Note_on_c, 0, 60, 0
2, 39473, Note_on_c, 0, 81, 0
2, 39474, Note_on_c, 0, 93, 0
2, 39511, Note_on_c, 0, 55, 68
2, 39512, Note_on_c, 0, 91, 74
2, 39513, Note_on_c, 0, 60, 57
2, 39515, Note_on_c, 0, 79, 64
2, 39517, Note_on_c, 0, 64, 33
2, 39528, Note_on_c, 0, 64, 0
2, 39528, Note_on_c, 0, 60, 0
2, 39532, Note_on_c, 0, 55, 0
2, 39540, Note_on_c, 0, 91, 0
2, 39541, Note_on_c, 0, 79, 0
2, 39606, Control_c, 0, 64, 0
2, 39610, Note_on_c, 0, 92, 91
2, 39611, Note_on_c, 0, 63, 80
2, 39611, Note_on_c, 0, 80, 82
2, 39612, Note_on_c, 0, 54, 69
2, 39612, Note_on_c, 0, 59, 75
2, 39613, Note_on_c, 0, 58, 59
2, 39660, Control_c, 0, 64, 127
2, 39726, Note_on_c, 0, 59, 0
2, 39736, Note_on_c, 0, 63, 0
2, 39739, Note_on_c, 0, 80, 0
2, 39744, Note_on_c, 0, 58, 0
2, 39746, Note_on_c, 0, 54, 0
2, 39751, Note_on_c, 0, 92, 0
2, 39799, Note_on_c, 0, 63, 68
2, 39799, Note_on_c, 0, 54, 60
2, 39801, Note_on_c, 0, 58, 60
2, 39801, Note_on_c, 0, 94, 81
2, 39802, Note_on_c, 0, 82, 74
2, 39802, Note_on_c, 0, 59, 66
2, 39808, Control_c, 0, 64, 0
2, 39837, Control_c, 0, 64, 127
2, 39880, Note_on_c, 0, 59, 0
2, 39894, Note_on_c, 0, 63, 0
2, 39905, Note_on_c, 0, 58, 0
2, 39910, Note_on_c, 0, 54, 0
2, 39927, Note_on_c, 0, 82, 0
2, 39932, Note_on_c, 0, 94, 0
2, 39966, Note_on_c, 0, 63, 58
2, 39969, Note_on_c, 0, 53, 54
2, 39970, Note_on_c, 0, 59, 58
2, 39972, Note_on_c, 0, 95, 53
2, 39972, Note_on_c, 0, 58, 34
2, 39973, Note_on_c, 0, 83, 52
2, 39977, Control_c, 0, 64, 0
2, 40039, Control_c, 0, 64, 127
2, 40046, Note_on_c, 0, 95, 0
2, 40069, Note_on_c, 0, 53, 0
2, 40071, Note_on_c, 0, 63, 0
2, 40075, Note_on_c, 0, 59, 0
2, 40075, Note_on_c, 0, 83, 0
2, 40081, Note_on_c, 0, 58, 0
2, 40154, Note_on_c, 0, 63, 65
2, 40163, Note_on_c, 0, 59, 54
2, 40164, Note_on_c, 0, 58, 33
2, 40167, Note_on_c, 0, 53, 28
2, 40185, Note_on_c, 0, 63, 0
2, 40191, Note_on_c, 0, 59, 0
2, 40199, Note_on_c, 0, 58, 0
2, 40201, Note_on_c, 0, 53, 0
2, 40282, Note_on_c, 0, 51, 28
2, 40293, Note_on_c, 0, 53, 39
2, 40310, Note_on_c, 0, 51, 0
2, 40338, Note_on_c, 0, 53, 0
2, 40338, Note_on_c, 0, 70, 88
2, 40338, Note_on_c, 0, 61, 92
2, 40338, Note_on_c, 0, 65, 91
2, 40338, Note_on_c, 0, 55, 91
2, 40338, Control_c, 0, 64, 0
2, 40390, Control_c, 0, 64, 127
2, 40441, Note_on_c, 0, 55, 0
2, 40444, Note_on_c, 0, 70, 0
2, 40461, Note_on_c, 0, 61, 0
2, 40473, Note_on_c, 0, 65, 0
2, 40518, Note_on_c, 0, 72, 81
2, 40520, Note_on_c, 0, 65, 80
2, 40521, Note_on_c, 0, 61, 74
2, 40523, Note_on_c, 0, 55, 77
2, 40589, Note_on_c, 0, 65, 0
2, 40590, Note_on_c, 0, 61, 0
2, 40592, Note_on_c, 0, 55, 0
2, 40629, Note_on_c, 0, 72, 0
2, 40688, Note_on_c, 0, 58, 64
2, 40688, Note_on_c, 0, 72, 65
2, 40689, Note_on_c, 0, 67, 69
2, 40689, Note_on_c, 0, 64, 64
2, 40689, Note_on_c, 0, 48, 61
2, 40693, Control_c, 0, 64, 0
2, 40749, Control_c, 0, 64, 127
2, 40763, Note_on_c, 0, 67, 0
2, 40786, Note_on_c, 0, 64, 0
2, 40799, Note_on_c, 0, 58, 0
2, 40813, Note_on_c, 0, 72, 0
2, 40877, Note_on_c, 0, 64, 64
2, 40877, Note_on_c, 0, 58, 53
2, 40880, Note_on_c, 0, 60, 59
2, 40908, Note_on_c, 0, 48, 0
2, 40928, Note_on_c, 0, 60, 0
2, 40935, Note_on_c, 0, 64, 0
2, 40944, Note_on_c, 0, 58, 0
2, 41046, Note_on_c, 0, 70, 77
2, 41046, Note_on_c, 0, 63, 77
2, 41048, Note_on_c, 0, 59, 83
2, 41048, Note_on_c, 0, 66, 69
2, 41048, Note_on_c, 0, 58, 77
2, 41055, Control_c, 0, 64, 0
2, 41139, Control_c, 0, 64, 127
2, 41189, Note_on_c, 0, 59, 0
2, 41192, Note_on_c, 0, 66, 0
2, 41197, Note_on_c, 0, 63, 0
2, 41217, Note_on_c, 0, 70, 0
2, 41230, Note_on_c, 0, 58, 0
2, 41243, Note_on_c, 0, 68, 68
2, 41243, Note_on_c, 0, 63, 71
2, 41246, Note_on_c, 0, 56, 62
2, 41247, Note_on_c, 0, 66, 57
2, 41247, Note_on_c, 0, 59, 64
2, 41300, Note_on_c, 0, 56, 0
2, 41302, Note_on_c, 0, 59, 0
2, 41338, Note_on_c, 0, 63, 0
2, 41356, Note_on_c, 0, 66, 0
2, 41367, Note_on_c, 0, 68, 0
2, 41416, Note_on_c, 0, 62, 77
2, 41417, Note_on_c, 0, 46, 56
2, 41417, Note_on_c, 0, 67, 71
2, 41420, Control_c, 0, 64, 0
2, 41421, Note_on_c, 0, 71, 55
2, 41427, Note_on_c, 0, 56, 47
2, 41485, Control_c, 0, 64, 127
2, 41496, Note_on_c, 0, 67, 0
2, 41501, Note_on_c, 0, 71, 0
2, 41512, Note_on_c, 0, 62, 0
2, 41537, Note_on_c, 0, 56, 0
2, 41566, Note_on_c, 0, 46, 0
2, 41603, Note_on_c, 0, 67, 58
2, 41603, Note_on_c, 0, 46, 39
2, 41604, Note_on_c, 0, 62, 62
2, 41606, Note_on_c, 0, 56, 47
2, 41606, Note_on_c, 0, 59, 51
2, 41611, Control_c, 0, 64, 0
2, 41639, Control_c, 0, 64, 127
2, 41647, Note_on_c, 0, 46, 0
2, 41649, Note_on_c, 0, 59, 0
2, 41657, Note_on_c, 0, 56, 0
2, 41663, Note_on_c, 0, 62, 0
2, 41667, Note_on_c, 0, 67, 0
2, 41764, Note_on_c, 0, 70, 74
2, 41768, Note_on_c, 0, 65, 66
2, 41768, Note_on_c, 0, 62, 69
2, 41768, Note_on_c, 0, 58, 65
2, 41769, Note_on_c, 0, 67, 61
2, 41775, Control_c, 0, 64, 0
2, 41778, Note_on_c, 0, 62, 0
2, 41778, Note_on_c, 0, 65, 0
2, 41783, Note_on_c, 0, 67, 0
2, 41788, Note_on_c, 0, 70, 0
2, 41789, Note_on_c, 0, 58, 0
2, 41892, Note_on_c, 0, 70, 64
2, 41895, Note_on_c, 0, 65, 63
2, 41896, Note_on_c, 0, 67, 62
2, 41896, Note_on_c, 0, 62, 56
2, 41896, Note_on_c, 0, 58, 64
2, 41924, Control_c, 0, 64, 127
2, 41972, Note_on_c, 0, 58, 0
2, 41977, Note_on_c, 0, 62, 0
2, 41980, Note_on_c, 0, 70, 0
2, 41983, Note_on_c, 0, 67, 0
2, 41983, Note_on_c, 0, 65, 0
2, 42126, Control_c, 0, 64, 0
2, 42134, Note_on_c, 0, 60, 57
2, 42135, Note_on_c, 0, 61, 50
2, 42137, Note_on_c, 0, 65, 64
2, 42138, Note_on_c, 0, 76, 71
2, 42139, Note_on_c, 0, 55, 64
2, 42139, Note_on_c, 0, 81, 72
2, 42139, Note_on_c, 0, 69, 70
2, 42142, Note_on_c, 0, 58, 38
2, 42159, Control_c, 0, 64, 127
2, 42202, Note_on_c, 0, 69, 0
2, 42216, Note_on_c, 0, 81, 0
2, 42216, Note_on_c, 0, 76, 0
2, 42224, Note_on_c, 0, 65, 0
2, 42231, Note_on_c, 0, 55, 0
2, 42232, Note_on_c, 0, 60, 0
2, 42244, Note_on_c, 0, 61, 0
2, 42248, Note_on_c, 0, 58, 0
2, 42319, Note_on_c, 0, 61, 68
2, 42320, Note_on_c, 0, 65, 74
2, 42322, Note_on_c, 0, 60, 60
2, 42322, Note_on_c, 0, 79, 64
2, 42322, Note_on_c, 0, 84, 78
2, 42323, Note_on_c, 0, 72, 71
2, 42327, Note_on_c, 0, 55, 50
2, 42330, Note_on_c, 0, 58, 32
2, 42345, Note_on_c, 0, 60, 0
2, 42348, Note_on_c, 0, 65, 0
2, 42357, Note_on_c, 0, 72, 0
2, 42361, Note_on_c, 0, 55, 0
2, 42363, Note_on_c, 0, 58, 0
2, 42363, Note_on_c, 0, 61, 0
2, 42369, Note_on_c, 0, 79, 0
2, 42373, Note_on_c, 0, 84, 0
2, 42483, Note_on_c, 0, 50, 68
2, 42483, Note_on_c, 0, 53, 58
2, 42484, Note_on_c, 0, 57, 68
2, 42485, Control_c, 0, 64, 0
2, 42486, Note_on_c, 0, 60, 75
2, 42487, Note_on_c, 0, 77, 88
2, 42487, Note_on_c, 0, 89, 87
2, 42487, Note_on_c, 0, 84, 89
2, 42539, Control_c, 0, 64, 127
2, 42569, Note_on_c, 0, 77, 0
2, 42575, Note_on_c, 0, 84, 0
2, 42580, Note_on_c, 0, 89, 0
2, 42583, Note_on_c, 0, 60, 0
2, 42590, Note_on_c, 0, 53, 0
2, 42592, Note_on_c, 0, 57, 0
2, 42593, Note_on_c, 0, 50, 0
2, 42672, Note_on_c, 0, 50, 54
2, 42674, Note_on_c, 0, 57, 59
2, 42676, Note_on_c, 0, 60, 66
2, 42676, Note_on_c, 0, 53, 51
2, 42676, Note_on_c, 0, 93, 76
2, 42679, Note_on_c, 0, 88, 70
2, 42679, Note_on_c, 0, 81, 63
2, 42700, Note_on_c, 0, 50, 0
2, 42704, Note_on_c, 0, 53, 0
2, 42704, Note_on_c, 0, 60, 0
2, 42711, Note_on_c, 0, 57, 0
2, 42732, Note_on_c, 0, 93, 0
2, 42733, Note_on_c, 0, 88, 0
2, 42747, Note_on_c, 0, 81, 0
2, 42851, Note_on_c, 0, 63, 83
2, 42853, Note_on_c, 0, 56, 51
2, 42854, Note_on_c, 0, 53, 66
2, 42854, Note_on_c, 0, 77, 71
2, 42854, Note_on_c, 0, 84, 80
2, 42855, Note_on_c, 0, 89, 75
2, 42859, Note_on_c, 0, 58, 62
2, 42870, Control_c, 0, 64, 0
2, 42882, Note_on_c, 0, 56, 0
2, 42917, Control_c, 0, 64, 127
2, 42945, Note_on_c, 0, 77, 0
2, 42947, Note_on_c, 0, 53, 0
2, 42952, Note_on_c, 0, 84, 0
2, 42953, Note_on_c, 0, 58, 0
2, 42957, Note_on_c, 0, 89, 0
2, 42959, Note_on_c, 0, 63, 0
2, 43036, Note_on_c, 0, 55, 80
2, 43037, Note_on_c, 0, 65, 79
2, 43039, Note_on_c, 0, 60, 70
2, 43106, Note_on_c, 0, 60, 0
2, 43107, Note_on_c, 0, 55, 0
2, 43125, Note_on_c, 0, 65, 0
2, 43214, Note_on_c, 0, 58, 80
2, 43214, Note_on_c, 0, 91, 74
2, 43215, Note_on_c, 0, 86, 83
2, 43215, Note_on_c, 0, 63, 70
2, 43215, Note_on_c, 0, 67, 81
2, 43216, Note_on_c, 0, 98, 77
2, 43220, Note_on_c, 0, 94, 43
2, 43221, Note_on_c, 0, 97, 38
2, 43229, Note_on_c, 0, 94, 0
2, 43230, Note_on_c, 0, 97, 0
2, 43230, Control_c, 0, 64, 0
2, 43269, Control_c, 0, 64, 127
2, 43295, Note_on_c, 0, 91, 0
2, 43300, Note_on_c, 0, 86, 0
2, 43304, Note_on_c, 0, 98, 0
2, 43315, Note_on_c, 0, 58, 0
2, 43318, Note_on_c, 0, 67, 0
2, 43323, Note_on_c, 0, 63, 0
2, 43396, Note_on_c, 0, 96, 56
2, 43398, Note_on_c, 0, 58, 64
2, 43400, Note_on_c, 0, 67, 57
2, 43401, Note_on_c, 0, 84, 47
2, 43401, Note_on_c, 0, 63, 52
2, 43420, Note_on_c, 0, 96, 0
2, 43432, Note_on_c, 0, 84, 0
2, 43433, Note_on_c, 0, 67, 0
2, 43486, Note_on_c, 0, 58, 0
2, 43501, Note_on_c, 0, 63, 0
2, 43561, Note_on_c, 0, 66, 52
2, 43565, Note_on_c, 0, 62, 50
2, 43567, Note_on_c, 0, 90, 34
2, 43567, Note_on_c, 0, 81, 38
2, 43568, Note_on_c, 0, 86, 46
2, 43568, Control_c, 0, 64, 0
2, 43569, Note_on_c, 0, 93, 53
2, 43571, Note_on_c, 0, 57, 39
2, 43616, Control_c, 0, 64, 127
2, 43651, Note_on_c, 0, 86, 0
2, 43652, Note_on_c, 0, 93, 0
2, 43656, Note_on_c, 0, 57, 0
2, 43662, Note_on_c, 0, 90, 0
2, 43674, Note_on_c, 0, 62, 0
2, 43677, Note_on_c, 0, 66, 0
2, 43683, Note_on_c, 0, 81, 0
2, 43740, Note_on_c, 0, 66, 52
2, 43751, Note_on_c, 0, 57, 37
2, 43752, Note_on_c, 0, 62, 33
2, 43787, Note_on_c, 0, 57, 0
2, 43791, Note_on_c, 0, 62, 0
2, 43803, Note_on_c, 0, 66, 0
2, 43923, Note_on_c, 0, 62, 33
2, 43924, Note_on_c, 0, 81, 50
2, 43926, Note_on_c, 0, 65, 38
2, 43926, Note_on_c, 0, 60, 40
2, 43928, Note_on_c, 0, 74, 42
2, 43929, Note_on_c, 0, 69, 32
2, 43929, Note_on_c, 0, 55, 37
2, 43930, Note_on_c, 0, 77, 40
2, 43936, Control_c, 0, 64, 0
2, 43995, Control_c, 0, 64, 127
2, 44019, Note_on_c, 0, 60, 0
2, 44023, Note_on_c, 0, 55, 0
2, 44027, Note_on_c, 0, 65, 0
2, 44033, Note_on_c, 0, 69, 0
2, 44034, Note_on_c, 0, 62, 0
2, 44038, Note_on_c, 0, 74, 0
2, 44039, Note_on_c, 0, 77, 0
2, 44054, Note_on_c, 0, 81, 0
2, 44112, Note_on_c, 0, 81, 50
2, 44113, Note_on_c, 0, 65, 45
2, 44115, Note_on_c, 0, 62, 36
2, 44116, Note_on_c, 0, 69, 36
2, 44117, Note_on_c, 0, 77, 37
2, 44118, Note_on_c, 0, 74, 35
2, 44118, Note_on_c, 0, 60, 45
2, 44119, Note_on_c, 0, 55, 35
2, 44162, Note_on_c, 0, 62, 0
2, 44163, Note_on_c, 0, 65, 0
2, 44165, Note_on_c, 0, 69, 0
2, 44165, Note_on_c, 0, 60, 0
2, 44179, Note_on_c, 0, 74, 0
2, 44180, Note_on_c, 0, 55, 0
2, 44184, Note_on_c, 0, 81, 0
2, 44186, Note_on_c, 0, 77, 0
2, 44296, Control_c, 0, 64, 0
2, 44364, Note_on_c, 0, 64, 58
2, 44365, Note_on_c, 0, 72, 62
2, 44365, Note_on_c, 0, 84, 63
2, 44367, Note_on_c, 0, 57, 49
2, 44369, Note_on_c, 0, 60, 47
2, 44370, Note_on_c, 0, 55, 41
2, 44374, Note_on_c, 0, 72, 0
2, 44375, Note_on_c, 0, 84, 0
2, 44377, Note_on_c, 0, 64, 0
2, 44379, Note_on_c, 0, 60, 0
2, 44380, Note_on_c, 0, 55, 0
2, 44381, Note_on_c, 0, 57, 0
2, 44531, Note_on_c, 0, 64, 61
2, 44532, Note_on_c, 0, 72, 46
2, 44533, Note_on_c, 0, 60, 53
2, 44534, Note_on_c, 0, 84, 52
2, 44534, Note_on_c, 0, 55, 49
2, 44535, Note_on_c, 0, 79, 33
2, 44540, Note_on_c, 0, 64, 0
2, 44543, Note_on_c, 0, 84, 0
2, 44543, Note_on_c, 0, 60, 0
2, 44544, Note_on_c, 0, 72, 0
2, 44545, Note_on_c, 0, 55, 0
2, 44546, Note_on_c, 0, 79, 0
2, 44650, Note_on_c, 0, 63, 72
2, 44653, Note_on_c, 0, 54, 55
2, 44655, Note_on_c, 0, 58, 56
2, 44655, Note_on_c, 0, 59, 63
2, 44678, Control_c, 0, 64, 127
2, 44766, Note_on_c, 0, 59, 0
2, 44776, Note_on_c, 0, 58, 0
2, 44782, Note_on_c, 0, 63, 0
2, 44783, Note_on_c, 0, 54, 0
2, 44851, Note_on_c, 0, 64, 72
2, 44851, Note_on_c, 0, 60, 74
2, 44852, Note_on_c, 0, 55, 69
2, 44857, Note_on_c, 0, 58, 52
2, 44861, Note_on_c, 0, 64, 0
2, 44861, Control_c, 0, 64, 0
2, 44868, Note_on_c, 0, 58, 0
2, 44873, Note_on_c, 0, 60, 0
2, 44876, Note_on_c, 0, 55, 0
2, 44908, Control_c, 0, 64, 127
2, 45007, Control_c, 0, 64, 0
2, 45032, Control_c, 0, 64, 127
2, 45131, Note_on_c, 0, 61, 77
2, 45132, Note_on_c, 0, 53, 71
2, 45132, Note_on_c, 0, 55, 75
2, 45133, Note_on_c, 0, 58, 64
2, 45133, Note_on_c, 0, 77, 90
2, 45133, Note_on_c, 0, 72, 92
2, 45134, Note_on_c, 0, 84, 92
2, 45137, Control_c, 0, 64, 0
2, 45185, Control_c, 0, 64, 127
2, 45264, Note_on_c, 0, 58, 0
2, 45266, Note_on_c, 0, 53, 0
2, 45267, Note_on_c, 0, 72, 0
2, 45271, Note_on_c, 0, 61, 0
2, 45271, Note_on_c, 0, 55, 0
2, 45274, Note_on_c, 0, 84, 0
2, 45276, Note_on_c, 0, 77, 0
2, 45302, Note_on_c, 0, 61, 30
2, 45320, Note_on_c, 0, 61, 0
2, 45371, Note_on_c, 0, 54, 56
2, 45371, Note_on_c, 0, 61, 57
2, 45373, Note_on_c, 0, 64, 68
2, 45374, Note_on_c, 0, 57, 58
2, 45374, Note_on_c, 0, 81, 65
2, 45378, Note_on_c, 0, 69, 58
2, 45390, Control_c, 0, 64, 0
2, 45446, Control_c, 0, 64, 127
2, 45504, Note_on_c, 0, 57, 0
2, 45505, Note_on_c, 0, 64, 0
2, 45507, Note_on_c, 0, 54, 0
2, 45513, Note_on_c, 0, 61, 0
2, 45558, Note_on_c, 0, 61, 48
2, 45558, Note_on_c, 0, 54, 49
2, 45558, Note_on_c, 0, 64, 62
2, 45560, Note_on_c, 0, 57, 53
2, 45594, Note_on_c, 0, 81, 0
2, 45605, Note_on_c, 0, 64, 0
2, 45611, Note_on_c, 0, 57, 0
2, 45617, Note_on_c, 0, 69, 0
2, 45619, Note_on_c, 0, 61, 0
2, 45644, Note_on_c, 0, 54, 0
2, 45731, Note_on_c, 0, 53, 73
2, 45733, Note_on_c, 0, 64, 80
2, 45734, Note_on_c, 0, 68, 69
2, 45734, Note_on_c, 0, 76, 75
2, 45735, Note_on_c, 0, 72, 55
2, 45736, Note_on_c, 0, 65, 72
2, 45747, Control_c, 0, 64, 0
2, 45809, Control_c, 0, 64, 127
2, 45858, Note_on_c, 0, 76, 0
2, 45861, Note_on_c, 0, 65, 0
2, 45862, Note_on_c, 0, 72, 0
2, 45865, Note_on_c, 0, 68, 0
2, 45866, Note_on_c, 0, 64, 0
2, 45890, Note_on_c, 0, 53, 0
2, 45917, Note_on_c, 0, 53, 66
2, 45918, Note_on_c, 0, 74, 64
2, 45919, Note_on_c, 0, 62, 64
2, 45920, Note_on_c, 0, 68, 64
2, 45922, Note_on_c, 0, 65, 65
2, 45927, Control_c, 0, 64, 0
2, 45928, Note_on_c, 0, 73, 26
2, 45955, Control_c, 0, 64, 127
2, 45983, Note_on_c, 0, 65, 0
2, 45985, Note_on_c, 0, 53, 0
2, 45991, Note_on_c, 0, 74, 0
2, 46002, Note_on_c, 0, 68, 0
2, 46008, Note_on_c, 0, 73, 0
2, 46020, Note_on_c, 0, 62, 0
2, 46079, Control_c, 0, 64, 0
2, 46080, Note_on_c, 0, 56, 69
2, 46080, Note_on_c, 0, 72, 82
2, 46081, Note_on_c, 0, 76, 79
2, 46081, Note_on_c, 0, 62, 74
2, 46083, Note_on_c, 0, 67, 82
2, 46085, Note_on_c, 0, 52, 63
2, 46135, Control_c, 0, 64, 127
2, 46195, Note_on_c, 0, 52, 0
2, 46197, Note_on_c, 0, 62, 0
2, 46201, Note_on_c, 0, 56, 0
2, 46260, Note_on_c, 0, 62, 66
2, 46263, Note_on_c, 0, 52, 57
2, 46264, Note_on_c, 0, 56, 43
2, 46290, Note_on_c, 0, 62, 0
2, 46299, Note_on_c, 0, 67, 0
2, 46300, Note_on_c, 0, 52, 0
2, 46306, Note_on_c, 0, 72, 0
2, 46308, Note_on_c, 0, 76, 0
2, 46313, Note_on_c, 0, 56, 0
2, 46435, Control_c, 0, 64, 0
2, 46436, Note_on_c, 0, 54, 56
2, 46436, Note_on_c, 0, 51, 60
2, 46437, Note_on_c, 0, 61, 64
2, 46440, Note_on_c, 0, 73, 50
2, 46440, Note_on_c, 0, 70, 71
2, 46441, Note_on_c, 0, 58, 51
2, 46441, Note_on_c, 0, 77, 68
2, 46442, Note_on_c, 0, 65, 74
2, 46486, Control_c, 0, 64, 127
2, 46522, Note_on_c, 0, 65, 0
2, 46524, Note_on_c, 0, 61, 0
2, 46532, Note_on_c, 0, 70, 0
2, 46537, Note_on_c, 0, 73, 0
2, 46542, Note_on_c, 0, 77, 0
2, 46548, Note_on_c, 0, 58, 0
2, 46551, Note_on_c, 0, 54, 0
2, 46559, Note_on_c, 0, 51, 0
2, 46638, Note_on_c, 0, 61, 67
2, 46638, Note_on_c, 0, 80, 60
2, 46639, Note_on_c, 0, 51, 53
2, 46639, Note_on_c, 0, 68, 65
2, 46642, Note_on_c, 0, 75, 61
2, 46643, Note_on_c, 0, 54, 39
2, 46650, Note_on_c, 0, 58, 25
2, 46657, Note_on_c, 0, 68, 0
2, 46658, Note_on_c, 0, 61, 0
2, 46662, Note_on_c, 0, 58, 0
2, 46665, Note_on_c, 0, 75, 0
2, 46669, Note_on_c, 0, 80, 0
2, 46675, Note_on_c, 0, 51, 0
2, 46676, Note_on_c, 0, 54, 0
2, 46816, Note_on_c, 0, 76, 71
2, 46820, Note_on_c, 0, 50, 65
2, 46822, Note_on_c, 0, 56, 47
2, 46822, Note_on_c, 0, 60, 55
2, 46832, Control_c, 0, 64, 0
2, 46869, Note_on_c, 0, 76, 0
2, 46885, Control_c, 0, 64, 127
2, 46936, Note_on_c, 0, 60, 0
2, 46937, Note_on_c, 0, 50, 0
2, 46938, Note_on_c, 0, 56, 0
2, 46998, Note_on_c, 0, 68, 26
2, 47000, Control_c, 0, 64, 0
2, 47001, Note_on_c, 0, 56, 44
2, 47002, Note_on_c, 0, 50, 45
2, 47002, Note_on_c, 0, 72, 34
2, 47002, Note_on_c, 0, 65, 35
2, 47004, Note_on_c, 0, 60, 44
2, 47034, Note_on_c, 0, 60, 0
2, 47037, Control_c, 0, 64, 127
2, 47041, Note_on_c, 0, 72, 0
2, 47056, Note_on_c, 0, 68, 0
2, 47064, Note_on_c, 0, 65, 0
2, 47072, Note_on_c, 0, 56, 0
2, 47093, Note_on_c, 0, 50, 0
2, 47166, Note_on_c, 0, 63, 45
2, 47167, Note_on_c, 0, 70, 47
2, 47167, Note_on_c, 0, 55, 51
2, 47168, Note_on_c, 0, 59, 51
2, 47171, Note_on_c, 0, 65, 43
2, 47180, Control_c, 0, 64, 0
2, 47247, Control_c, 0, 64, 127
2, 47291, Note_on_c, 0, 65, 0
2, 47293, Note_on_c, 0, 55, 0
2, 47295, Note_on_c, 0, 59, 0
2, 47302, Note_on_c, 0, 63, 0
2, 47317, Note_on_c, 0, 70, 0
2, 47352, Note_on_c, 0, 68, 43
2, 47353, Note_on_c, 0, 63, 40
2, 47353, Note_on_c, 0, 59, 48
2, 47356, Note_on_c, 0, 53, 44
2, 47357, Note_on_c, 0, 43, 38
2, 47365, Note_on_c, 0, 65, 33
2, 47376, Note_on_c, 0, 43, 0
2, 47396, Note_on_c, 0, 53, 0
2, 47399, Note_on_c, 0, 59, 0
2, 47408, Note_on_c, 0, 65, 0
2, 47420, Note_on_c, 0, 63, 0
2, 47424, Note_on_c, 0, 68, 0
2, 47520, Control_c, 0, 64, 0
2, 47523, Note_on_c, 0, 63, 50
2, 47526, Note_on_c, 0, 72, 49
2, 47527, Note_on_c, 0, 48, 44
2, 47529, Note_on_c, 0, 55, 54
2, 47565, Control_c, 0, 64, 127
2, 47584, Note_on_c, 0, 72, 0
2, 47597, Note_on_c, 0, 63, 0
2, 47612, Note_on_c, 0, 55, 0
2, 47664, Note_on_c, 0, 48, 0
2, 47711, Note_on_c, 0, 63, 29
2, 47715, Note_on_c, 0, 60, 33
2, 47716, Note_on_c, 0, 67, 37
2, 47718, Note_on_c, 0, 55, 50
2, 47720, Note_on_c, 0, 48, 33
2, 47734, Note_on_c, 0, 60, 0
2, 47749, Note_on_c, 0, 63, 0
2, 47749, Note_on_c, 0, 67, 0
2, 47755, Note_on_c, 0, 48, 0
2, 47766, Note_on_c, 0, 55, 0
2, 47827, Note_on_c, 0, 79, 78
2, 47864, Note_on_c, 0, 79, 0
2, 47884, Note_on_c, 0, 77, 68
2, 47888, Note_on_c, 0, 56, 46
2, 47891, Note_on_c, 0, 48, 40
2, 47894, Note_on_c, 0, 60, 48
2, 47896, Control_c, 0, 64, 0
2, 47949, Control_c, 0, 64, 127
2, 47972, Note_on_c, 0, 60, 0
2, 47976, Note_on_c, 0, 48, 0
2, 47999, Note_on_c, 0, 56, 0
2, 48056, Note_on_c, 0, 77, 0
2, 48071, Note_on_c, 0, 68, 61
2, 48074, Note_on_c, 0, 48, 57
2, 48074, Note_on_c, 0, 56, 39
2, 48076, Note_on_c, 0, 60, 50
2, 48090, Control_c, 0, 64, 0
2, 48104, Note_on_c, 0, 68, 0
2, 48129, Control_c, 0, 64, 127
2, 48132, Note_on_c, 0, 67, 51
2, 48167, Note_on_c, 0, 48, 0
2, 48169, Note_on_c, 0, 67, 0
2, 48176, Note_on_c, 0, 60, 0
2, 48184, Note_on_c, 0, 56, 0
2, 48198, Note_on_c, 0, 65, 70
2, 48224, Note_on_c, 0, 65, 0
2, 48250, Note_on_c, 0, 48, 44
2, 48254, Note_on_c, 0, 60, 48
2, 48256, Note_on_c, 0, 55, 53
2, 48259, Note_on_c, 0, 63, 57
2, 48261, Control_c, 0, 64, 0
2, 48264, Note_on_c, 0, 62, 29
2, 48323, Note_on_c, 0, 62, 0
2, 48335, Note_on_c, 0, 63, 0
2, 48345, Control_c, 0, 64, 127
2, 48359, Note_on_c, 0, 63, 57
2, 48365, Note_on_c, 0, 62, 64
2, 48392, Note_on_c, 0, 60, 0
2, 48394, Note_on_c, 0, 62, 0
2, 48400, Note_on_c, 0, 55, 0
2, 48401, Note_on_c, 0, 63, 0
2, 48419, Note_on_c, 0, 48, 0
2, 48445, Note_on_c, 0, 63, 59
2, 48446, Note_on_c, 0, 62, 54
2, 48447, Note_on_c, 0, 48, 45
2, 48450, Note_on_c, 0, 55, 54
2, 48453, Note_on_c, 0, 60, 40
2, 48457, Control_c, 0, 64, 0
2, 48467, Note_on_c, 0, 60, 0
2, 48468, Note_on_c, 0, 62, 0
2, 48481, Note_on_c, 0, 63, 0
2, 48483, Note_on_c, 0, 55, 0
2, 48489, Note_on_c, 0, 48, 0
2, 48511, Control_c, 0, 64, 127
2, 48531, Note_on_c, 0, 63, 67
2, 48534, Note_on_c, 0, 62, 70
2, 48537, Note_on_c, 0, 48, 50
2, 48538, Note_on_c, 0, 55, 51
2, 48544, Note_on_c, 0, 60, 33
2, 48557, Note_on_c, 0, 60, 0
2, 48562, Note_on_c, 0, 62, 0
2, 48572, Note_on_c, 0, 55, 0
2, 48573, Note_on_c, 0, 48, 0
2, 48589, Note_on_c, 0, 63, 0
2, 48616, Note_on_c, 0, 60, 71
2, 48616, Note_on_c, 0, 65, 69
2, 48618, Note_on_c, 0, 56, 57
2, 48620, Note_on_c, 0, 48, 50
2, 48623, Control_c, 0, 64, 0
2, 48682, Control_c, 0, 64, 127
2, 48709, Note_on_c, 0, 65, 0
2, 48709, Note_on_c, 0, 60, 0
2, 48731, Note_on_c, 0, 48, 0
2, 48740, Note_on_c, 0, 56, 0
2, 48799, Note_on_c, 0, 48, 62
2, 48800, Note_on_c, 0, 68, 67
2, 48802, Note_on_c, 0, 56, 48
2, 48803, Control_c, 0, 64, 0
2, 48803, Note_on_c, 0, 65, 71
2, 48806, Note_on_c, 0, 60, 51
2, 48839, Control_c, 0, 64, 127
2, 48854, Note_on_c, 0, 48, 0
2, 48859, Note_on_c, 0, 68, 0
2, 48869, Note_on_c, 0, 65, 0
2, 48880, Note_on_c, 0, 60, 0
2, 48885, Note_on_c, 0, 56, 0
2, 48926, Note_on_c, 0, 74, 81
2, 48927, Note_on_c, 0, 56, 55
2, 48933, Note_on_c, 0, 48, 51
2, 48946, Note_on_c, 0, 48, 0
2, 48958, Note_on_c, 0, 74, 0
2, 48970, Note_on_c, 0, 56, 0
2, 48983, Note_on_c, 0, 72, 68
2, 48991, Note_on_c, 0, 48, 58
2, 48994, Note_on_c, 0, 55, 64
2, 48997, Control_c, 0, 64, 0
2, 48997, Note_on_c, 0, 60, 54
2, 49058, Control_c, 0, 64, 127
2, 49086, Note_on_c, 0, 60, 0
2, 49090, Note_on_c, 0, 55, 0
2, 49158, Note_on_c, 0, 67, 57
2, 49159, Note_on_c, 0, 63, 40
2, 49165, Control_c, 0, 64, 0
2, 49167, Note_on_c, 0, 60, 49
2, 49169, Note_on_c, 0, 55, 48
2, 49193, Control_c, 0, 64, 127
2, 49204, Note_on_c, 0, 48, 0
2, 49217, Note_on_c, 0, 67, 0
2, 49222, Note_on_c, 0, 63, 0
2, 49229, Note_on_c, 0, 72, 0
2, 49257, Note_on_c, 0, 60, 0
2, 49271, Note_on_c, 0, 48, 66
2, 49276, Note_on_c, 0, 55, 0
2, 49296, Note_on_c, 0, 48, 0
2, 49311, Control_c, 0, 64, 0
2, 49320, Note_on_c, 0, 68, 59
2, 49323, Note_on_c, 0, 60, 57
2, 49324, Note_on_c, 0, 65, 60
2, 49325, Note_on_c, 0, 48, 64
2, 49329, Note_on_c, 0, 56, 59
2, 49342, Control_c, 0, 64, 127
2, 49367, Note_on_c, 0, 60, 0
2, 49380, Note_on_c, 0, 65, 0
2, 49390, Note_on_c, 0, 68, 0
2, 49440, Note_on_c, 0, 48, 0
2, 49457, Note_on_c, 0, 56, 0
2, 49513, Note_on_c, 0, 56, 64
2, 49514, Note_on_c, 0, 72, 75
2, 49515, Note_on_c, 0, 84, 80
2, 49517, Note_on_c, 0, 48, 50
2, 49518, Note_on_c, 0, 60, 65
2, 49528, Note_on_c, 0, 60, 0
2, 49535, Note_on_c, 0, 72, 0
2, 49541, Note_on_c, 0, 48, 0
2, 49544, Note_on_c, 0, 84, 0
2, 49555, Note_on_c, 0, 56, 0
2, 49590, Note_on_c, 0, 56, 57
2, 49596, Note_on_c, 0, 48, 52
2, 49596, Note_on_c, 0, 89, 75
2, 49597, Note_on_c, 0, 76, 61
2, 49599, Note_on_c, 0, 77, 62
2, 49601, Note_on_c, 0, 60, 28
2, 49605, Note_on_c, 0, 88, 28
2, 49611, Note_on_c, 0, 60, 0
2, 49616, Note_on_c, 0, 88, 0
2, 49619, Note_on_c, 0, 76, 0
2, 49625, Note_on_c, 0, 48, 0
2, 49625, Note_on_c, 0, 77, 0
2, 49631, Note_on_c, 0, 89, 0
2, 49636, Note_on_c, 0, 56, 0
2, 49680, Note_on_c, 0, 58, 74
2, 49681, Note_on_c, 0, 48, 67
2, 49683, Note_on_c, 0, 91, 79
2, 49684, Control_c, 0, 64, 0
2, 49685, Note_on_c, 0, 55, 65
2, 49685, Note_on_c, 0, 79, 75
2, 49688, Note_on_c, 0, 89, 62
2, 49697, Note_on_c, 0, 89, 0
2, 49724, Control_c, 0, 64, 127
2, 49743, Note_on_c, 0, 48, 0
2, 49749, Note_on_c, 0, 58, 0
2, 49750, Note_on_c, 0, 79, 0
2, 49750, Note_on_c, 0, 91, 0
2, 49756, Note_on_c, 0, 55, 0
2, 49857, Note_on_c, 0, 55, 70
2, 49859, Note_on_c, 0, 48, 68
2, 49860, Note_on_c, 0, 58, 69
2, 49863, Note_on_c, 0, 94, 79
2, 49866, Note_on_c, 0, 82, 75
2, 49895, Note_on_c, 0, 94, 0
2, 49895, Note_on_c, 0, 55, 0
2, 49902, Note_on_c, 0, 58, 0
2, 49903, Note_on_c, 0, 48, 0
2, 49905, Note_on_c, 0, 82, 0
2, 50037, Note_on_c, 0, 51, 80
2, 50038, Note_on_c, 0, 57, 92
2, 50040, Note_on_c, 0, 86, 99
2, 50040, Note_on_c, 0, 74, 99
2, 50040, Note_on_c, 0, 47, 78
2, 50040, Note_on_c, 0, 83, 82
2, 50041, Note_on_c, 0, 79, 88
2, 50050, Control_c, 0, 64, 0
2, 50100, Control_c, 0, 64, 127
2, 50269, Note_on_c, 0, 74, 0
2, 50273, Note_on_c, 0, 79, 0
2, 50278, Note_on_c, 0, 83, 0
2, 50279, Note_on_c, 0, 86, 0
2, 50307, Note_on_c, 0, 47, 0
2, 50313, Note_on_c, 0, 57, 0
2, 50316, Note_on_c, 0, 51, 0
2, 50344, Control_c, 0, 64, 0
2, 50405, Note_on_c, 0, 88, 99
2, 50407, Note_on_c, 0, 88, 95
2, 50408, Note_on_c, 0, 65, 52
2, 50409, Note_on_c, 0, 65, 39
2, 50409, Note_on_c, 0, 60, 46
2, 50409, Note_on_c, 0, 62, 42
2, 50410, Note_on_c, 0, 62, 41
2, 50411, Note_on_c, 0, 55, 45
2, 50412, Note_on_c, 0, 55, 45
2, 50412, Note_on_c, 0, 60, 50
2, 50478, Note_on_c, 0, 87, 58
2, 50487, Note_on_c, 0, 88, 0
2, 50488, Note_on_c, 0, 87, 60
2, 50496, Note_on_c, 0, 88, 0
2, 50499, Note_on_c, 0, 87, 0
2, 50502, Note_on_c, 0, 86, 62
2, 50504, Note_on_c, 0, 87, 0
2, 50509, Note_on_c, 0, 86, 49
2, 50515, Note_on_c, 0, 86, 0
2, 50516, Note_on_c, 0, 85, 65
2, 50522, Note_on_c, 0, 86, 0
2, 50524, Note_on_c, 0, 85, 57
2, 50535, Note_on_c, 0, 85, 0
2, 50539, Note_on_c, 0, 84, 60
2, 50547, Note_on_c, 0, 85, 0
2, 50552, Note_on_c, 0, 84, 49
2, 50583, Note_on_c, 0, 84, 0
2, 50612, Note_on_c, 0, 55, 0
2, 50612, Note_on_c, 0, 65, 0
2, 50617, Note_on_c, 0, 60, 0
2, 50618, Note_on_c, 0, 62, 0
2, 50632, Control_c, 0, 64, 127
2, 50674, Note_on_c, 0, 65, 0
2, 50675, Note_on_c, 0, 62, 0
2, 50677, Note_on_c, 0, 55, 0
2, 50684, Note_on_c, 0, 60, 0
2, 50723, Note_on_c, 0, 84, 0
2, 50755, Note_on_c, 0, 89, 44
2, 50763, Note_on_c, 0, 66, 28
2, 50764, Note_on_c, 0, 61, 35
2, 50765, Note_on_c, 0, 77, 34
2, 50766, Note_on_c, 0, 55, 33
2, 50769, Control_c, 0, 64, 0
2, 50881, Control_c, 0, 64, 127
2, 50967, Note_on_c, 0, 55, 0
2, 50969, Note_on_c, 0, 66, 0
2, 50972, Note_on_c, 0, 61, 0
2, 51004, Note_on_c, 0, 89, 0
2, 51029, Note_on_c, 0, 77, 0
2, 51133, Note_on_c, 0, 53, 33
2, 51135, Note_on_c, 0, 50, 22
2, 51135, Note_on_c, 0, 57, 33
2, 51137, Control_c, 0, 64, 0
2, 51138, Note_on_c, 0, 60, 17
2, 51176, Note_on_c, 0, 76, 55
2, 51191, Note_on_c, 0, 76, 0
2, 51211, Note_on_c, 0, 79, 89
2, 51242, Note_on_c, 0, 79, 0
2, 51254, Note_on_c, 0, 77, 71
2, 51263, Note_on_c, 0, 79, 24
2, 51273, Note_on_c, 0, 79, 0
2, 51281, Note_on_c, 0, 77, 0
2, 51389, Note_on_c, 0, 50, 0
2, 51391, Note_on_c, 0, 57, 0
2, 51392, Note_on_c, 0, 53, 0
2, 51397, Note_on_c, 0, 60, 0
2, 51414, Note_on_c, 0, 72, 49
2, 51447, Note_on_c, 0, 72, 0
2, 51458, Note_on_c, 0, 69, 24
2, 51470, Note_on_c, 0, 69, 0
2, 51489, Note_on_c, 0, 54, 28
2, 51493, Note_on_c, 0, 73, 46
2, 51497, Note_on_c, 0, 65, 24
2, 51498, Note_on_c, 0, 60, 42
2, 51508, Note_on_c, 0, 73, 0
2, 51511, Note_on_c, 0, 74, 48
2, 51548, Note_on_c, 0, 74, 0
2, 51561, Note_on_c, 0, 77, 64
2, 51584, Note_on_c, 0, 77, 0
2, 51623, Note_on_c, 0, 72, 28
2, 51630, Note_on_c, 0, 73, 38
2, 51642, Note_on_c, 0, 72, 0
2, 51648, Note_on_c, 0, 73, 0
2, 51651, Note_on_c, 0, 74, 44
2, 51668, Note_on_c, 0, 74, 0
2, 51682, Note_on_c, 0, 77, 71
2, 51709, Note_on_c, 0, 77, 0
2, 51717, Note_on_c, 0, 65, 0
2, 51728, Note_on_c, 0, 60, 0
2, 51738, Note_on_c, 0, 72, 28
2, 51762, Note_on_c, 0, 73, 25
2, 51771, Note_on_c, 0, 54, 0
2, 51774, Note_on_c, 0, 72, 0
2, 51780, Note_on_c, 0, 74, 60
2, 51781, Note_on_c, 0, 73, 0
2, 51800, Note_on_c, 0, 74, 0
2, 51810, Note_on_c, 0, 77, 70
2, 51830, Note_on_c, 0, 53, 24
2, 51832, Note_on_c, 0, 77, 0
2, 51835, Note_on_c, 0, 58, 40
2, 51839, Note_on_c, 0, 57, 31
2, 51840, Note_on_c, 0, 62, 30
2, 51846, Note_on_c, 0, 72, 51
2, 51938, Note_on_c, 0, 71, 60
2, 51944, Note_on_c, 0, 72, 0
2, 51947, Note_on_c, 0, 70, 56
2, 51957, Note_on_c, 0, 71, 0
2, 51974, Note_on_c, 0, 70, 0
2, 51979, Note_on_c, 0, 69, 51
2, 52041, Note_on_c, 0, 69, 0
2, 52046, Note_on_c, 0, 65, 53
2, 52064, Note_on_c, 0, 62, 0
2, 52088, Note_on_c, 0, 65, 0
2, 52102, Note_on_c, 0, 62, 45
2, 52170, Note_on_c, 0, 63, 64
2, 52174, Note_on_c, 0, 62, 0
2, 52197, Note_on_c, 0, 57, 0
2, 52198, Note_on_c, 0, 58, 0
2, 52199, Note_on_c, 0, 63, 0
2, 52203, Note_on_c, 0, 53, 0
2, 52223, Note_on_c, 0, 64, 30
2, 52265, Note_on_c, 0, 64, 0
2, 52277, Note_on_c, 0, 67, 61
2, 52305, Note_on_c, 0, 67, 0
2, 52320, Note_on_c, 0, 72, 51
2, 52342, Note_on_c, 0, 72, 0
2, 52361, Note_on_c, 0, 76, 66
2, 52378, Note_on_c, 0, 76, 0
2, 52395, Note_on_c, 0, 79, 83
2, 52434, Note_on_c, 0, 67, 22
2, 52436, Note_on_c, 0, 62, 31
2, 52437, Note_on_c, 0, 56, 19
2, 52441, Note_on_c, 0, 79, 0
2, 52447, Note_on_c, 0, 67, 0
2, 52447, Note_on_c, 0, 62, 0
2, 52456, Note_on_c, 0, 56, 0
2, 52636, Note_on_c, 0, 64, 40
2, 52647, Note_on_c, 0, 64, 0
2, 52675, Note_on_c, 0, 71, 64
2, 52677, Note_on_c, 0, 83, 57
2, 52694, Note_on_c, 0, 71, 0
2, 52701, Note_on_c, 0, 83, 0
2, 52724, Note_on_c, 0, 85, 34
2, 52736, Note_on_c, 0, 85, 0
2, 52757, Note_on_c, 0, 64, 55
2, 52757, Note_on_c, 0, 86, 79
2, 52758, Note_on_c, 0, 88, 78
2, 52759, Note_on_c, 0, 74, 71
2, 52759, Note_on_c, 0, 76, 57
2, 52759, Note_on_c, 0, 59, 50
2, 52760, Note_on_c, 0, 60, 54
2, 52765, Note_on_c, 0, 64, 0
2, 52769, Note_on_c, 0, 59, 0
2, 52769, Note_on_c, 0, 88, 0
2, 52769, Note_on_c, 0, 60, 0
2, 52771, Note_on_c, 0, 76, 0
2, 52772, Note_on_c, 0, 74, 0
2, 52775, Note_on_c, 0, 86, 0
2, 52797, Note_on_c, 0, 84, 75
2, 52799, Note_on_c, 0, 72, 50
2, 52814, Note_on_c, 0, 72, 0
2, 52814, Note_on_c, 0, 84, 0
2, 52912, Note_on_c, 0, 61, 31
2, 52916, Note_on_c, 0, 65, 34
2, 52920, Note_on_c, 0, 55, 29
2, 52923, Note_on_c, 0, 69, 50
2, 52951, Note_on_c, 0, 69, 0
2, 52957, Note_on_c, 0, 70, 55
2, 52966, Note_on_c, 0, 60, 1
2, 52978, Note_on_c, 0, 70, 0
2, 52996, Note_on_c, 0, 72, 54
2, 53019, Note_on_c, 0, 72, 0
2, 53036, Note_on_c, 0, 77, 38
2, 53038, Note_on_c, 0, 55, 0
2, 53040, Note_on_c, 0, 60, 0
2, 53043, Note_on_c, 0, 65, 0
2, 53044, Note_on_c, 0, 61, 0
2, 53063, Note_on_c, 0, 77, 0
2, 53072, Note_on_c, 0, 82, 67
2, 53097, Note_on_c, 0, 82, 0
2, 53115, Note_on_c, 0, 83, 65
2, 53120, Note_on_c, 0, 84, 48
2, 53127, Note_on_c, 0, 84, 0
2, 53127, Note_on_c, 0, 61, 38
2, 53127, Note_on_c, 0, 65, 50
2, 53129, Note_on_c, 0, 60, 45
2, 53140, Note_on_c, 0, 55, 27
2, 53145, Note_on_c, 0, 83, 0
2, 53161, Note_on_c, 0, 89, 67
2, 53181, Note_on_c, 0, 65, 0
2, 53183, Note_on_c, 0, 60, 0
2, 53192, Note_on_c, 0, 89, 0
2, 53194, Note_on_c, 0, 61, 0
2, 53197, Note_on_c, 0, 55, 0
2, 53199, Note_on_c, 0, 94, 77
2, 53227, Note_on_c, 0, 94, 0
2, 53240, Note_on_c, 0, 96, 89
2, 53273, Note_on_c, 0, 96, 0
2, 53275, Note_on_c, 0, 64, 29
2, 53278, Note_on_c, 0, 57, 38
2, 53280, Note_on_c, 0, 53, 33
2, 53282, Note_on_c, 0, 60, 35
2, 53284, Note_on_c, 0, 93, 68
2, 53305, Note_on_c, 0, 93, 0
2, 53329, Note_on_c, 0, 88, 37
2, 53349, Note_on_c, 0, 88, 0
2, 53361, Note_on_c, 0, 91, 83
2, 53399, Note_on_c, 0, 90, 62
2, 53411, Note_on_c, 0, 91, 0
2, 53419, Note_on_c, 0, 89, 60
2, 53423, Note_on_c, 0, 90, 0
2, 53445, Note_on_c, 0, 89, 0
2, 53450, Note_on_c, 0, 88, 49
2, 53474, Note_on_c, 0, 88, 0
2, 53475, Note_on_c, 0, 64, 0
2, 53483, Note_on_c, 0, 60, 0
2, 53499, Note_on_c, 0, 84, 71
2, 53532, Note_on_c, 0, 84, 0
2, 53540, Note_on_c, 0, 81, 51
2, 53555, Note_on_c, 0, 57, 0
2, 53572, Note_on_c, 0, 53, 0
2, 53593, Note_on_c, 0, 81, 0
2, 53657, Note_on_c, 0, 62, 33
2, 53659, Note_on_c, 0, 55, 45
2, 53660, Note_on_c, 0, 52, 30
2, 53664, Note_on_c, 0, 59, 27
2, 53670, Note_on_c, 0, 55, 0
2, 53671, Note_on_c, 0, 62, 0
2, 53671, Note_on_c, 0, 52, 0
2, 53672, Note_on_c, 0, 59, 0
2, 53721, Note_on_c, 0, 86, 105
2, 53813, Note_on_c, 0, 85, 57
2, 53817, Note_on_c, 0, 86, 0
2, 53835, Note_on_c, 0, 84, 32
2, 53844, Note_on_c, 0, 85, 0
2, 53855, Note_on_c, 0, 84, 0
2, 53860, Note_on_c, 0, 83, 36
2, 53879, Note_on_c, 0, 83, 0
2, 53899, Note_on_c, 0, 79, 49
2, 53921, Note_on_c, 0, 79, 0
2, 54079, Note_on_c, 0, 60, 41
2, 54081, Note_on_c, 0, 54, 42
2, 54088, Note_on_c, 0, 60, 0
2, 54097, Note_on_c, 0, 54, 0
2, 54196, Note_on_c, 0, 72, 51
2, 54207, Note_on_c, 0, 72, 0
2, 54241, Note_on_c, 0, 81, 61
2, 54249, Note_on_c, 0, 81, 0
2, 54312, Note_on_c, 0, 84, 90
2, 54333, Note_on_c, 0, 84, 0
2, 54364, Note_on_c, 0, 83, 52
2, 54376, Note_on_c, 0, 83, 0
2, 54433, Note_on_c, 0, 81, 69
2, 54452, Note_on_c, 0, 81, 0
2, 54486, Note_on_c, 0, 79, 41
2, 54501, Note_on_c, 0, 79, 0
2, 54554, Note_on_c, 0, 76, 64
2, 54584, Note_on_c, 0, 76, 0
2, 54611, Note_on_c, 0, 72, 29
2, 54681, Note_on_c, 0, 72, 0
2, 54723, Note_on_c, 0, 57, 32
2, 54725, Note_on_c, 0, 76, 65
2, 54768, Note_on_c, 0, 57, 0
2, 54790, Note_on_c, 0, 76, 0
2, 54800, Note_on_c, 0, 77, 78
2, 54833, Note_on_c, 0, 77, 0
2, 54843, Note_on_c, 0, 76, 65
2, 54871, Note_on_c, 0, 76, 0
2, 54882, Note_on_c, 0, 72, 34
2, 54907, Note_on_c, 0, 72, 0
2, 54919, Note_on_c, 0, 69, 47
2, 54942, Note_on_c, 0, 69, 0
2, 55044, Note_on_c, 0, 63, 44
2, 55045, Note_on_c, 0, 62, 49
2, 55047, Note_on_c, 0, 67, 36
2, 55055, Note_on_c, 0, 62, 0
2, 55056, Note_on_c, 0, 67, 0
2, 55060, Note_on_c, 0, 63, 0
2, 55088, Note_on_c, 0, 74, 103
2, 55117, Note_on_c, 0, 74, 0
2, 55124, Note_on_c, 0, 75, 56
2, 55157, Note_on_c, 0, 75, 0
2, 55164, Note_on_c, 0, 67, 50
2, 55166, Note_on_c, 0, 74, 67
2, 55167, Note_on_c, 0, 63, 37
2, 55168, Note_on_c, 0, 62, 42
2, 55179, Note_on_c, 0, 62, 0
2, 55180, Note_on_c, 0, 67, 0
2, 55184, Note_on_c, 0, 63, 0
2, 55195, Note_on_c, 0, 74, 0
2, 55205, Note_on_c, 0, 72, 38
2, 55226, Note_on_c, 0, 72, 0
2, 55247, Note_on_c, 0, 69, 33
2, 55273, Note_on_c, 0, 69, 0
2, 55413, Note_on_c, 0, 67, 40
2, 55422, Note_on_c, 0, 67, 0
2, 55444, Note_on_c, 0, 76, 118
2, 55477, Note_on_c, 0, 76, 0
2, 55482, Note_on_c, 0, 77, 71
2, 55511, Note_on_c, 0, 77, 0
2, 55520, Note_on_c, 0, 76, 69
2, 55529, Note_on_c, 0, 65, 41
2, 55531, Note_on_c, 0, 62, 37
2, 55534, Note_on_c, 0, 56, 29
2, 55555, Note_on_c, 0, 76, 0
2, 55565, Note_on_c, 0, 74, 42
2, 55575, Note_on_c, 0, 62, 0
2, 55591, Note_on_c, 0, 74, 0
2, 55593, Note_on_c, 0, 65, 0
2, 55601, Note_on_c, 0, 72, 36
2, 55630, Note_on_c, 0, 72, 0
2, 55638, Note_on_c, 0, 70, 57
2, 55674, Note_on_c, 0, 70, 0
2, 55686, Note_on_c, 0, 69, 34
2, 55697, Note_on_c, 0, 56, 0
2, 55721, Note_on_c, 0, 69, 0
2, 55723, Note_on_c, 0, 70, 51
2, 55749, Note_on_c, 0, 70, 0
2, 55761, Note_on_c, 0, 72, 62
2, 55793, Note_on_c, 0, 66, 33
2, 55797, Note_on_c, 0, 61, 36
2, 55797, Note_on_c, 0, 73, 50
2, 55802, Note_on_c, 0, 72, 0
2, 55806, Note_on_c, 0, 55, 24
2, 55836, Note_on_c, 0, 73, 0
2, 55841, Note_on_c, 0, 75, 52
2, 55863, Note_on_c, 0, 75, 0
2, 55878, Note_on_c, 0, 77, 36
2, 55907, Note_on_c, 0, 66, 0
2, 55910, Note_on_c, 0, 55, 0
2, 55912, Note_on_c, 0, 77, 0
2, 55916, Note_on_c, 0, 78, 47
2, 55937, Note_on_c, 0, 61, 0
2, 55941, Note_on_c, 0, 78, 0
2, 55956, Note_on_c, 0, 79, 66
2, 55983, Note_on_c, 0, 79, 0
2, 55993, Note_on_c, 0, 81, 78
2, 55999, Note_on_c, 0, 61, 60
2, 55999, Note_on_c, 0, 66, 62
2, 56004, Note_on_c, 0, 55, 58
2, 56034, Note_on_c, 0, 81, 0
2, 56035, Note_on_c, 0, 55, 0
2, 56035, Note_on_c, 0, 82, 68
2, 56040, Note_on_c, 0, 66, 0
2, 56058, Note_on_c, 0, 82, 0
2, 56072, Note_on_c, 0, 84, 64
2, 56078, Note_on_c, 0, 61, 0
2, 56093, Note_on_c, 0, 87, 39
2, 56096, Note_on_c, 0, 84, 0
2, 56125, Note_on_c, 0, 87, 0
2, 56127, Note_on_c, 0, 88, 70
2, 56150, Note_on_c, 0, 88, 0
2, 56154, Note_on_c, 0, 91, 83
2, 56160, Note_on_c, 0, 65, 25
2, 56160, Note_on_c, 0, 62, 31
2, 56162, Note_on_c, 0, 60, 47
2, 56249, Note_on_c, 0, 90, 64
2, 56257, Note_on_c, 0, 91, 0
2, 56262, Note_on_c, 0, 65, 0
2, 56265, Note_on_c, 0, 89, 60
2, 56266, Note_on_c, 0, 90, 0
2, 56287, Note_on_c, 0, 89, 0
2, 56290, Note_on_c, 0, 88, 50
2, 56313, Note_on_c, 0, 60, 0
2, 56321, Note_on_c, 0, 88, 0
2, 56324, Note_on_c, 0, 62, 0
2, 56352, Note_on_c, 0, 84, 55
2, 56375, Note_on_c, 0, 84, 0
2, 56404, Note_on_c, 0, 81, 35
2, 56449, Note_on_c, 0, 81, 0
2, 56526, Note_on_c, 0, 61, 35
2, 56532, Note_on_c, 0, 55, 35
2, 56533, Note_on_c, 0, 60, 36
2, 56535, Note_on_c, 0, 65, 20
2, 56557, Note_on_c, 0, 60, 0
2, 56561, Note_on_c, 0, 61, 0
2, 56567, Note_on_c, 0, 65, 0
2, 56568, Note_on_c, 0, 55, 0
2, 56611, Note_on_c, 0, 65, 35
2, 56615, Note_on_c, 0, 61, 30
2, 56616, Note_on_c, 0, 60, 39
2, 56619, Note_on_c, 0, 55, 30
2, 56638, Note_on_c, 0, 60, 0
2, 56641, Note_on_c, 0, 65, 0
2, 56643, Note_on_c, 0, 55, 0
2, 56647, Note_on_c, 0, 61, 0
2, 56723, Note_on_c, 0, 65, 42
2, 56724, Note_on_c, 0, 61, 34
2, 56729, Note_on_c, 0, 60, 31
2, 56738, Note_on_c, 0, 60, 0
2, 56740, Note_on_c, 0, 65, 0
2, 56745, Note_on_c, 0, 61, 0
2, 56818, Note_on_c, 0, 91, 84
2, 56855, Note_on_c, 0, 89, 71
2, 56865, Note_on_c, 0, 91, 0
2, 56880, Note_on_c, 0, 89, 0
2, 56885, Note_on_c, 0, 64, 30
2, 56885, Note_on_c, 0, 57, 39
2, 56889, Note_on_c, 0, 60, 34
2, 56894, Note_on_c, 0, 53, 22
2, 56903, Note_on_c, 0, 60, 0
2, 56906, Note_on_c, 0, 64, 0
2, 56910, Note_on_c, 0, 57, 0
2, 56911, Note_on_c, 0, 53, 0
2, 56911, Note_on_c, 0, 85, 35
2, 56936, Note_on_c, 0, 85, 0
2, 56949, Note_on_c, 0, 89, 70
2, 56977, Note_on_c, 0, 89, 0
2, 57017, Note_on_c, 0, 88, 81
2, 57044, Note_on_c, 0, 88, 0
2, 57087, Note_on_c, 0, 84, 72
2, 57105, Note_on_c, 0, 57, 31
2, 57116, Note_on_c, 0, 84, 0
2, 57128, Note_on_c, 0, 57, 0
2, 57139, Note_on_c, 0, 81, 36
2, 57190, Note_on_c, 0, 81, 0
2, 57212, Note_on_c, 0, 79, 53
2, 57234, Note_on_c, 0, 79, 0
2, 57283, Note_on_c, 0, 77, 58
2, 57321, Note_on_c, 0, 77, 0
2, 57361, Note_on_c, 0, 74, 45
2, 57363, Note_on_c, 0, 54, 26
2, 57364, Note_on_c, 0, 65, 34
2, 57367, Note_on_c, 0, 60, 36
2, 57444, Note_on_c, 0, 70, 42
2, 57447, Note_on_c, 0, 74, 0
2, 57502, Note_on_c, 0, 65, 0
2, 57517, Note_on_c, 0, 60, 0
2, 57546, Note_on_c, 0, 54, 0
2, 57552, Note_on_c, 0, 65, 44
2, 57582, Note_on_c, 0, 70, 0
2, 57589, Note_on_c, 0, 65, 0
2, 57599, Note_on_c, 0, 58, 30
2, 57601, Note_on_c, 0, 53, 17
2, 57601, Note_on_c, 0, 62, 24
2, 57603, Note_on_c, 0, 69, 62
2, 57603, Note_on_c, 0, 57, 25
2, 57635, Note_on_c, 0, 57, 0
2, 57635, Note_on_c, 0, 70, 34
2, 57642, Note_on_c, 0, 69, 0
2, 57652, Note_on_c, 0, 70, 0
2, 57656, Note_on_c, 0, 71, 56
2, 57677, Note_on_c, 0, 71, 0
2, 57684, Note_on_c, 0, 72, 60
2, 57709, Note_on_c, 0, 72, 0
2, 57736, Note_on_c, 0, 69, 58
2, 57756, Note_on_c, 0, 69, 0
2, 57762, Note_on_c, 0, 62, 0
2, 57808, Note_on_c, 0, 65, 34
2, 57836, Note_on_c, 0, 65, 0
2, 57855, Note_on_c, 0, 62, 35
2, 57857, Note_on_c, 0, 57, 1
2, 57883, Note_on_c, 0, 58, 0
2, 57907, Note_on_c, 0, 57, 0
2, 57920, Note_on_c, 0, 53, 0
2, 57968, Note_on_c, 0, 62, 0
2, 58103, Note_on_c, 0, 67, 42
2, 58129, Note_on_c, 0, 67, 0
2, 58136, Note_on_c, 0, 68, 56
2, 58162, Note_on_c, 0, 68, 0
2, 58166, Note_on_c, 0, 70, 69
2, 58188, Note_on_c, 0, 70, 0
2, 58191, Note_on_c, 0, 65, 26
2, 58192, Note_on_c, 0, 62, 25
2, 58195, Note_on_c, 0, 71, 69
2, 58199, Note_on_c, 0, 56, 21
2, 58209, Note_on_c, 0, 65, 0
2, 58215, Note_on_c, 0, 62, 0
2, 58216, Note_on_c, 0, 71, 0
2, 58225, Note_on_c, 0, 74, 71
2, 58243, Note_on_c, 0, 56, 0
2, 58256, Note_on_c, 0, 74, 0
2, 58259, Note_on_c, 0, 71, 58
2, 58276, Note_on_c, 0, 71, 0
2, 58287, Note_on_c, 0, 72, 57
2, 58305, Note_on_c, 0, 72, 0
2, 58323, Note_on_c, 0, 76, 34
2, 58326, Note_on_c, 0, 64, 10
2, 58326, Note_on_c, 0, 57, 25
2, 58328, Note_on_c, 0, 59, 24
2, 58329, Note_on_c, 0, 60, 24
2, 58338, Note_on_c, 0, 76, 0
2, 58343, Note_on_c, 0, 79, 58
2, 58356, Note_on_c, 0, 79, 0
2, 58380, Note_on_c, 0, 83, 53
2, 58392, Note_on_c, 0, 83, 0
2, 58402, Note_on_c, 0, 59, 0
2, 58402, Note_on_c, 0, 60, 0
2, 58407, Note_on_c, 0, 64, 0
2, 58407, Note_on_c, 0, 74, 60
2, 58409, Note_on_c, 0, 86, 82
2, 58412, Note_on_c, 0, 57, 0
2, 58428, Note_on_c, 0, 74, 0
2, 58431, Note_on_c, 0, 86, 0
2, 58444, Note_on_c, 0, 85, 71
2, 58464, Note_on_c, 0, 85, 0
2, 58475, Note_on_c, 0, 84, 41
2, 58495, Note_on_c, 0, 84, 0
2, 58510, Note_on_c, 0, 80, 28
2, 58521, Note_on_c, 0, 80, 0
2, 58532, Note_on_c, 0, 83, 66
2, 58562, Note_on_c, 0, 83, 0
2, 58563, Note_on_c, 0, 57, 28
2, 58570, Note_on_c, 0, 80, 31
2, 58578, Note_on_c, 0, 80, 0
2, 58594, Note_on_c, 0, 81, 60
2, 58596, Note_on_c, 0, 57, 0
2, 58617, Note_on_c, 0, 81, 0
2, 58629, Note_on_c, 0, 79, 49
2, 58646, Note_on_c, 0, 79, 0
2, 58654, Note_on_c, 0, 76, 37
2, 58677, Note_on_c, 0, 76, 0
2, 58686, Note_on_c, 0, 74, 63
2, 58706, Note_on_c, 0, 74, 0
2, 58718, Note_on_c, 0, 55, 24
2, 58718, Note_on_c, 0, 61, 25
2, 58720, Note_on_c, 0, 73, 31
2, 58723, Note_on_c, 0, 66, 11
2, 58796, Note_on_c, 0, 73, 0
2, 58807, Note_on_c, 0, 76, 54
2, 58829, Note_on_c, 0, 66, 0
2, 58838, Note_on_c, 0, 55, 0
2, 58849, Note_on_c, 0, 76, 0
2, 58862, Note_on_c, 0, 61, 0
2, 58876, Note_on_c, 0, 70, 59
2, 58886, Note_on_c, 0, 66, 25
2, 58886, Note_on_c, 0, 61, 32
2, 58911, Note_on_c, 0, 70, 0
2, 58920, Note_on_c, 0, 66, 0
2, 58930, Note_on_c, 0, 69, 37
2, 58967, Note_on_c, 0, 61, 0
2, 58988, Note_on_c, 0, 69, 0
2, 58997, Note_on_c, 0, 67, 64
2, 59022, Note_on_c, 0, 67, 0
2, 59046, Note_on_c, 0, 65, 29
2, 59104, Note_on_c, 0, 65, 0
2, 59118, Note_on_c, 0, 64, 38
2, 59128, Note_on_c, 0, 64, 0
2, 59155, Note_on_c, 0, 65, 47
2, 59196, Note_on_c, 0, 65, 0
2, 59236, Note_on_c, 0, 62, 40
2, 59245, Note_on_c, 0, 57, 28
2, 59246, Note_on_c, 0, 55, 26
2, 59254, Note_on_c, 0, 62, 0
2, 59256, Note_on_c, 0, 55, 0
2, 59256, Note_on_c, 0, 57, 0
2, 59401, Note_on_c, 0, 62, 24
2, 59403, Note_on_c, 0, 55, 35
2, 59405, Note_on_c, 0, 59, 31
2, 59415, Note_on_c, 0, 62, 0
2, 59416, Note_on_c, 0, 59, 0
2, 59417, Note_on_c, 0, 55, 0
2, 59519, Note_on_c, 0, 71, 68
2, 59520, Note_on_c, 0, 83, 71
2, 59527, Note_on_c, 0, 71, 0
2, 59539, Note_on_c, 0, 83, 0
2, 59602, Note_on_c, 0, 62, 55
2, 59602, Note_on_c, 0, 74, 68
2, 59603, Note_on_c, 0, 86, 77
2, 59606, Note_on_c, 0, 59, 33
2, 59606, Note_on_c, 0, 55, 37
2, 59610, Note_on_c, 0, 62, 0
2, 59611, Note_on_c, 0, 74, 0
2, 59615, Note_on_c, 0, 59, 0
2, 59617, Note_on_c, 0, 86, 0
2, 59617, Note_on_c, 0, 55, 0
2, 59694, Note_on_c, 0, 91, 69
2, 59694, Note_on_c, 0, 79, 62
2, 59710, Note_on_c, 0, 79, 0
2, 59713, Note_on_c, 0, 91, 0
2, 59763, Note_on_c, 0, 54, 39
2, 59765, Note_on_c, 0, 63, 55
2, 59770, Note_on_c, 0, 81, 64
2, 59770, Note_on_c, 0, 87, 55
2, 59772, Note_on_c, 0, 93, 58
2, 59772, Note_on_c, 0, 90, 37
2, 59773, Note_on_c, 0, 57, 38
2, 59778, Note_on_c, 0, 81, 0
2, 59780, Note_on_c, 0, 63, 0
2, 59784, Note_on_c, 0, 57, 0
2, 59785, Note_on_c, 0, 87, 0
2, 59786, Note_on_c, 0, 90, 0
2, 59790, Note_on_c, 0, 93, 0
2, 59793, Note_on_c, 0, 54, 0
2, 59856, Note_on_c, 0, 96, 74
2, 59857, Note_on_c, 0, 84, 63
2, 59863, Note_on_c, 0, 96, 0
2, 59864, Note_on_c, 0, 84, 0
2, 59958, Note_on_c, 0, 63, 60
2, 59963, Note_on_c, 0, 54, 32
2, 59966, Note_on_c, 0, 57, 43
2, 59970, Note_on_c, 0, 60, 22
2, 59973, Note_on_c, 0, 63, 0
2, 59975, Note_on_c, 0, 57, 0
2, 59978, Note_on_c, 0, 60, 0
2, 59988, Note_on_c, 0, 54, 0
2, 60075, Note_on_c, 0, 81, 83
2, 60076, Note_on_c, 0, 87, 76
2, 60076, Note_on_c, 0, 93, 84
2, 60078, Note_on_c, 0, 90, 51
2, 60090, Note_on_c, 0, 93, 0
2, 60092, Note_on_c, 0, 81, 0
2, 60100, Note_on_c, 0, 87, 0
2, 60100, Note_on_c, 0, 90, 0
2, 60122, Note_on_c, 0, 94, 68
2, 60127, Note_on_c, 0, 82, 62
2, 60137, Note_on_c, 0, 92, 18
2, 60148, Note_on_c, 0, 92, 0
2, 60151, Note_on_c, 0, 94, 0
2, 60155, Note_on_c, 0, 82, 0
2, 60157, Note_on_c, 0, 83, 55
2, 60178, Note_on_c, 0, 83, 0
2, 60194, Note_on_c, 0, 95, 44
2, 60198, Note_on_c, 0, 83, 30
2, 60201, Note_on_c, 0, 88, 53
2, 60214, Note_on_c, 0, 95, 0
2, 60215, Note_on_c, 0, 83, 0
2, 60222, Note_on_c, 0, 88, 0
2, 60233, Note_on_c, 0, 93, 29
2, 60239, Note_on_c, 0, 81, 57
2, 60312, Note_on_c, 0, 93, 0
2, 60329, Note_on_c, 0, 81, 0
2, 60354, Note_on_c, 0, 91, 59
2, 60358, Note_on_c, 0, 79, 44
2, 60386, Note_on_c, 0, 91, 0
2, 60406, Note_on_c, 0, 79, 0
2, 60473, Note_on_c, 0, 57, 39
2, 60481, Note_on_c, 0, 76, 68
2, 60481, Note_on_c, 0, 88, 74
2, 60486, Note_on_c, 0, 57, 0
2, 60501, Note_on_c, 0, 76, 0
2, 60505, Note_on_c, 0, 88, 0
2, 60519, Note_on_c, 0, 84, 59
2, 60538, Note_on_c, 0, 84, 0
2, 60555, Note_on_c, 0, 81, 55
2, 60579, Note_on_c, 0, 81, 0
2, 60594, Note_on_c, 0, 76, 35
2, 60618, Note_on_c, 0, 76, 0
2, 60635, Note_on_c, 0, 72, 34
2, 60662, Note_on_c, 0, 72, 0
2, 60676, Note_on_c, 0, 69, 46
2, 60687, Note_on_c, 0, 69, 0
2, 60795, Note_on_c, 0, 63, 57
2, 60795, Note_on_c, 0, 62, 62
2, 60796, Note_on_c, 0, 67, 66
2, 60805, Note_on_c, 0, 67, 0
2, 60806, Note_on_c, 0, 62, 0
2, 60813, Note_on_c, 0, 63, 0
2, 60842, Note_on_c, 0, 88, 87
2, 60843, Note_on_c, 0, 86, 92
2, 60865, Note_on_c, 0, 88, 0
2, 60866, Note_on_c, 0, 86, 0
2, 60882, Note_on_c, 0, 84, 75
2, 60905, Note_on_c, 0, 84, 0
2, 60927, Note_on_c, 0, 83, 38
2, 60936, Note_on_c, 0, 83, 0
2, 61043, Note_on_c, 0, 67, 57
2, 61046, Note_on_c, 0, 62, 40
2, 61049, Note_on_c, 0, 63, 25
2, 61053, Note_on_c, 0, 67, 0
2, 61057, Note_on_c, 0, 63, 0
2, 61057, Note_on_c, 0, 62, 0
2, 61096, Note_on_c, 0, 88, 90
2, 61131, Note_on_c, 0, 86, 82
2, 61142, Note_on_c, 0, 88, 0
2, 61154, Note_on_c, 0, 86, 0
2, 61172, Note_on_c, 0, 84, 74
2, 61176, Note_on_c, 0, 67, 51
2, 61176, Note_on_c, 0, 56, 35
2, 61180, Note_on_c, 0, 62, 38
2, 61201, Note_on_c, 0, 84, 0
2, 61208, Note_on_c, 0, 67, 0
2, 61210, Note_on_c, 0, 62, 0
2, 61213, Note_on_c, 0, 56, 0
2, 61260, Note_on_c, 0, 83, 75
2, 61293, Note_on_c, 0, 83, 0
2, 61297, Note_on_c, 0, 81, 60
2, 61326, Note_on_c, 0, 81, 0
2, 61343, Note_on_c, 0, 80, 49
2, 61379, Note_on_c, 0, 80, 0
2, 61409, Note_on_c, 0, 83, 91
2, 61441, Note_on_c, 0, 83, 0
2, 61459, Note_on_c, 0, 81, 54
2, 61512, Note_on_c, 0, 81, 0
2, 61523, Note_on_c, 0, 79, 38
2, 61554, Note_on_c, 0, 79, 0
2, 61578, Note_on_c, 0, 76, 31
2, 61625, Note_on_c, 0, 76, 0
2, 61638, Note_on_c, 0, 74, 61
2, 61647, Note_on_c, 0, 65, 25
2, 61648, Note_on_c, 0, 61, 29
2, 61649, Note_on_c, 0, 60, 27
2, 61660, Note_on_c, 0, 74, 0
2, 61662, Note_on_c, 0, 65, 0
2, 61664, Note_on_c, 0, 61, 0
2, 61668, Note_on_c, 0, 60, 0
2, 61684, Note_on_c, 0, 73, 33
2, 61751, Note_on_c, 0, 73, 0
2, 61758, Note_on_c, 0, 76, 62
2, 61767, Note_on_c, 0, 65, 36
2, 61769, Note_on_c, 0, 61, 32
2, 61777, Note_on_c, 0, 65, 0
2, 61784, Note_on_c, 0, 61, 0
2, 61790, Note_on_c, 0, 76, 0
2, 61813, Note_on_c, 0, 72, 22
2, 61873, Note_on_c, 0, 72, 0
2, 61884, Note_on_c, 0, 69, 33
2, 61913, Note_on_c, 0, 69, 0
2, 61915, Note_on_c, 0, 54, 15
2, 61915, Note_on_c, 0, 61, 29
2, 61921, Note_on_c, 0, 64, 26
2, 61923, Note_on_c, 0, 59, 28
2, 61926, Note_on_c, 0, 73, 31
2, 62003, Note_on_c, 0, 76, 71
2, 62008, Note_on_c, 0, 73, 0
2, 62043, Note_on_c, 0, 76, 0
2, 62060, Note_on_c, 0, 73, 23
2, 62081, Control_c, 0, 64, 127
2, 62087, Note_on_c, 0, 59, 0
2, 62089, Note_on_c, 0, 64, 0
2, 62093, Note_on_c, 0, 73, 0
2, 62102, Note_on_c, 0, 61, 0
2, 62125, Note_on_c, 0, 61, 31
2, 62125, Note_on_c, 0, 69, 53
2, 62129, Note_on_c, 0, 64, 25
2, 62135, Note_on_c, 0, 59, 20
2, 62147, Control_c, 0, 64, 0
2, 62159, Note_on_c, 0, 69, 0
2, 62165, Note_on_c, 0, 64, 0
2, 62174, Note_on_c, 0, 66, 40
2, 62175, Control_c, 0, 64, 127
2, 62189, Note_on_c, 0, 59, 0
2, 62207, Note_on_c, 0, 61, 0
2, 62220, Note_on_c, 0, 54, 0
2, 62233, Note_on_c, 0, 66, 0
2, 62246, Note_on_c, 0, 61, 42
2, 62246, Note_on_c, 0, 54, 30
2, 62255, Note_on_c, 0, 54, 0
2, 62273, Control_c, 0, 64, 0
2, 62282, Note_on_c, 0, 61, 0
2, 62285, Note_on_c, 0, 71, 66
2, 62289, Note_on_c, 0, 59, 22
2, 62289, Note_on_c, 0, 64, 43
2, 62298, Note_on_c, 0, 55, 34
2, 62298, Note_on_c, 0, 60, 51
2, 62315, Control_c, 0, 64, 127
2, 62347, Note_on_c, 0, 71, 0
2, 62360, Note_on_c, 0, 72, 62
2, 62390, Note_on_c, 0, 72, 0
2, 62392, Note_on_c, 0, 64, 0
2, 62399, Note_on_c, 0, 76, 55
2, 62403, Note_on_c, 0, 60, 0
2, 62406, Note_on_c, 0, 59, 0
2, 62410, Note_on_c, 0, 55, 0
2, 62430, Note_on_c, 0, 76, 0
2, 62439, Note_on_c, 0, 79, 58
2, 62455, Note_on_c, 0, 79, 0
2, 62477, Note_on_c, 0, 83, 72
2, 62498, Control_c, 0, 64, 0
2, 62502, Note_on_c, 0, 83, 0
2, 62516, Note_on_c, 0, 64, 36
2, 62518, Note_on_c, 0, 86, 90
2, 62518, Note_on_c, 0, 60, 47
2, 62519, Note_on_c, 0, 74, 59
2, 62521, Note_on_c, 0, 59, 26
2, 62525, Note_on_c, 0, 55, 35
2, 62539, Note_on_c, 0, 74, 0
2, 62540, Note_on_c, 0, 64, 0
2, 62541, Note_on_c, 0, 86, 0
2, 62541, Note_on_c, 0, 60, 0
2, 62543, Note_on_c, 0, 55, 0
2, 62546, Note_on_c, 0, 59, 0
2, 62555, Note_on_c, 0, 85, 69
2, 62581, Note_on_c, 0, 85, 0
2, 62598, Note_on_c, 0, 84, 69
2, 62624, Note_on_c, 0, 84, 0
2, 62639, Note_on_c, 0, 82, 51
2, 62642, Note_on_c, 0, 61, 19
2, 62642, Note_on_c, 0, 54, 18
2, 62644, Note_on_c, 0, 64, 20
2, 62644, Note_on_c, 0, 59, 38
2, 62665, Note_on_c, 0, 82, 0
2, 62684, Note_on_c, 0, 81, 43
2, 62706, Note_on_c, 0, 81, 0
2, 62722, Note_on_c, 0, 79, 38
2, 62745, Note_on_c, 0, 79, 0
2, 62763, Note_on_c, 0, 78, 34
2, 62797, Note_on_c, 0, 78, 0
2, 62809, Note_on_c, 0, 59, 0
2, 62815, Note_on_c, 0, 64, 0
2, 62819, Note_on_c, 0, 61, 0
2, 62903, Note_on_c, 0, 54, 0
2, 63008, Note_on_c, 0, 60, 31
2, 63011, Note_on_c, 0, 59, 28
2, 63011, Note_on_c, 0, 64, 17
2, 63012, Note_on_c, 0, 55, 32
2, 63060, Note_on_c, 0, 95, 74
2, 63086, Note_on_c, 0, 95, 0
2, 63098, Note_on_c, 0, 98, 90
2, 63127, Note_on_c, 0, 64, 0
2, 63128, Note_on_c, 0, 98, 0
2, 63141, Note_on_c, 0, 96, 79
2, 63147, Note_on_c, 0, 59, 0
2, 63148, Note_on_c, 0, 55, 0
2, 63150, Note_on_c, 0, 60, 0
2, 63169, Note_on_c, 0, 96, 0
2, 63178, Note_on_c, 0, 92, 76
2, 63203, Note_on_c, 0, 92, 0
2, 63214, Note_on_c, 0, 95, 78
2, 63225, Note_on_c, 0, 64, 25
2, 63227, Note_on_c, 0, 60, 45
2, 63231, Note_on_c, 0, 59, 32
2, 63232, Note_on_c, 0, 55, 27
2, 63243, Note_on_c, 0, 59, 0
2, 63244, Note_on_c, 0, 64, 0
2, 63247, Note_on_c, 0, 60, 0
2, 63248, Note_on_c, 0, 95, 0
2, 63248, Note_on_c, 0, 55, 0
2, 63257, Note_on_c, 0, 93, 64
2, 63297, Note_on_c, 0, 93, 0
2, 63324, Note_on_c, 0, 88, 59
2, 63350, Note_on_c, 0, 88, 0
2, 63368, Note_on_c, 0, 90, 65
2, 63372, Note_on_c, 0, 64, 29
2, 63373, Note_on_c, 0, 54, 25
2, 63373, Note_on_c, 0, 61, 25
2, 63378, Note_on_c, 0, 59, 35
2, 63400, Note_on_c, 0, 91, 55
2, 63410, Note_on_c, 0, 90, 0
2, 63429, Note_on_c, 0, 91, 0
2, 63439, Note_on_c, 0, 93, 74
2, 63461, Note_on_c, 0, 93, 0
2, 63558, Note_on_c, 0, 85, 81
2, 63585, Note_on_c, 0, 85, 0
2, 63594, Note_on_c, 0, 86, 77
2, 63620, Note_on_c, 0, 86, 0
2, 63632, Note_on_c, 0, 59, 0
2, 63634, Note_on_c, 0, 88, 77
2, 63637, Note_on_c, 0, 54, 0
2, 63645, Note_on_c, 0, 64, 0
2, 63658, Note_on_c, 0, 61, 0
2, 63663, Note_on_c, 0, 88, 0
2, 63701, Note_on_c, 0, 83, 77
2, 63727, Note_on_c, 0, 57, 24
2, 63730, Note_on_c, 0, 83, 0
2, 63742, Note_on_c, 0, 84, 74
2, 63755, Note_on_c, 0, 57, 0
2, 63764, Note_on_c, 0, 84, 0
2, 63779, Note_on_c, 0, 86, 85
2, 63811, Note_on_c, 0, 86, 0
2, 63852, Note_on_c, 0, 79, 51
2, 63878, Note_on_c, 0, 79, 0
2, 63889, Note_on_c, 0, 81, 59
2, 63915, Note_on_c, 0, 81, 0
2, 63926, Note_on_c, 0, 83, 57
2, 63931, Note_on_c, 0, 64, 30
2, 63934, Note_on_c, 0, 59, 33
2, 63936, Note_on_c, 0, 60, 32
2, 63942, Note_on_c, 0, 64, 0
2, 63945, Note_on_c, 0, 83, 0
2, 63946, Note_on_c, 0, 59, 0
2, 63946, Note_on_c, 0, 60, 0
2, 64001, Note_on_c, 0, 76, 41
2, 64016, Note_on_c, 0, 76, 0
2, 64028, Note_on_c, 0, 78, 52
2, 64058, Note_on_c, 0, 78, 0
2, 64071, Note_on_c, 0, 79, 64
2, 64073, Note_on_c, 0, 61, 30
2, 64089, Note_on_c, 0, 79, 0
2, 64098, Note_on_c, 0, 61, 0
2, 64149, Note_on_c, 0, 73, 26
2, 64160, Note_on_c, 0, 73, 0
2, 64174, Note_on_c, 0, 76, 47
2, 64196, Note_on_c, 0, 76, 0
2, 64211, Note_on_c, 0, 78, 48
2, 64230, Note_on_c, 0, 78, 0
2, 64272, Note_on_c, 0, 71, 63
2, 64296, Note_on_c, 0, 71, 0
2, 64296, Note_on_c, 0, 59, 26
2, 64299, Note_on_c, 0, 59, 0
2, 64443, Note_on_c, 0, 64, 17
2, 64445, Note_on_c, 0, 57, 34
2, 64446, Note_on_c, 0, 59, 29
2, 64448, Note_on_c, 0, 60, 36
2, 64635, Note_on_c, 0, 79, 88
2, 64674, Note_on_c, 0, 79, 0
2, 64675, Note_on_c, 0, 59, 0
2, 64675, Note_on_c, 0, 60, 0
2, 64677, Note_on_c, 0, 64, 0
2, 64687, Note_on_c, 0, 57, 0
2, 64690, Note_on_c, 0, 76, 54
2, 64732, Note_on_c, 0, 76, 0
2, 64760, Note_on_c, 0, 72, 75
2, 64796, Note_on_c, 0, 72, 0
2, 64805, Note_on_c, 0, 63, 25
2, 64807, Note_on_c, 0, 54, 23
2, 64808, Note_on_c, 0, 58, 39
2, 64811, Note_on_c, 0, 71, 51
2, 64811, Note_on_c, 0, 59, 46
2, 65050, Note_on_c, 0, 59, 0
2, 65076, Note_on_c, 0, 63, 0
2, 65078, Note_on_c, 0, 58, 0
2, 65081, Note_on_c, 0, 71, 0
2, 65082, Note_on_c, 0, 70, 57
2, 65088, Note_on_c, 0, 54, 0
2, 65113, Note_on_c, 0, 70, 0
2, 65117, Note_on_c, 0, 71, 64
2, 65147, Note_on_c, 0, 58, 20
2, 65152, Note_on_c, 0, 63, 27
2, 65153, Note_on_c, 0, 71, 0
2, 65153, Note_on_c, 0, 59, 46
2, 65162, Note_on_c, 0, 53, 19
2, 65163, Note_on_c, 0, 73, 46
2, 65182, Note_on_c, 0, 63, 0
2, 65183, Note_on_c, 0, 53, 0
2, 65184, Note_on_c, 0, 59, 0
2, 65188, Note_on_c, 0, 73, 0
2, 65196, Note_on_c, 0, 58, 0
2, 65236, Note_on_c, 0, 73, 51
2, 65253, Note_on_c, 0, 73, 0
2, 65282, Note_on_c, 0, 73, 38
2, 65302, Note_on_c, 0, 73, 0
2, 65356, Note_on_c, 0, 75, 72
2, 65363, Note_on_c, 0, 63, 46
2, 65365, Note_on_c, 0, 58, 32
2, 65368, Note_on_c, 0, 59, 34
2, 65378, Note_on_c, 0, 59, 0
2, 65378, Note_on_c, 0, 63, 0
2, 65379, Note_on_c, 0, 75, 0
2, 65388, Note_on_c, 0, 58, 0
2, 65405, Note_on_c, 0, 73, 52
2, 65429, Note_on_c, 0, 73, 0
2, 65519, Note_on_c, 0, 61, 33
2, 65522, Note_on_c, 0, 58, 39
2, 65533, Note_on_c, 0, 55, 26
2, 65539, Note_on_c, 0, 61, 0
2, 65544, Note_on_c, 0, 55, 0
2, 65544, Note_on_c, 0, 58, 0
2, 65648, Note_on_c, 0, 70, 77
2, 65669, Note_on_c, 0, 70, 0
2, 65688, Note_on_c, 0, 72, 73
2, 65711, Note_on_c, 0, 72, 0
2, 65726, Note_on_c, 0, 73, 69
2, 65757, Note_on_c, 0, 73, 0
2, 65768, Note_on_c, 0, 70, 43
2, 65800, Note_on_c, 0, 70, 0
2, 65813, Note_on_c, 0, 72, 34
2, 65851, Note_on_c, 0, 70, 76
2, 65857, Note_on_c, 0, 72, 0
2, 65874, Note_on_c, 0, 70, 0
2, 65887, Note_on_c, 0, 58, 25
2, 65893, Note_on_c, 0, 66, 62
2, 65900, Note_on_c, 0, 58, 0
2, 65957, Note_on_c, 0, 66, 0
2, 65968, Note_on_c, 0, 64, 39
2, 65988, Note_on_c, 0, 64, 0
2, 66005, Note_on_c, 0, 67, 79
2, 66037, Note_on_c, 0, 67, 0
2, 66044, Note_on_c, 0, 66, 65
2, 66075, Note_on_c, 0, 66, 0
2, 66080, Note_on_c, 0, 64, 60
2, 66107, Note_on_c, 0, 64, 0
2, 66116, Note_on_c, 0, 63, 40
2, 66151, Note_on_c, 0, 63, 0
2, 66153, Note_on_c, 0, 61, 36
2, 66186, Note_on_c, 0, 61, 0
2, 66190, Note_on_c, 0, 60, 39
2, 66218, Note_on_c, 0, 60, 0
2, 66228, Note_on_c, 0, 59, 58
2, 66244, Note_on_c, 0, 41, 19
2, 66250, Note_on_c, 0, 51, 9
2, 66284, Note_on_c, 0, 41, 0
2, 66322, Note_on_c, 0, 51, 0
2, 66404, Note_on_c, 0, 59, 0
2, 66410, Note_on_c, 0, 61, 53
2, 66442, Note_on_c, 0, 61, 0
2, 66446, Note_on_c, 0, 63, 67
2, 66483, Note_on_c, 0, 63, 0
2, 66491, Note_on_c, 0, 61, 34
2, 66522, Note_on_c, 0, 61, 0
2, 66529, Note_on_c, 0, 62, 62
2, 66561, Note_on_c, 0, 62, 0
2, 66566, Note_on_c, 0, 65, 56
2, 66574, Note_on_c, 0, 56, 40
2, 66580, Note_on_c, 0, 46, 23
2, 66588, Note_on_c, 0, 46, 0
2, 66589, Note_on_c, 0, 56, 0
2, 66601, Note_on_c, 0, 65, 0
2, 66607, Note_on_c, 0, 68, 48
2, 66628, Note_on_c, 0, 68, 0
2, 66642, Note_on_c, 0, 71, 67
2, 66670, Note_on_c, 0, 71, 0
2, 66679, Note_on_c, 0, 74, 73
2, 66707, Note_on_c, 0, 74, 0
2, 66716, Note_on_c, 0, 77, 49
2, 66736, Note_on_c, 0, 77, 0
2, 66757, Note_on_c, 0, 80, 52
2, 66780, Note_on_c, 0, 80, 0
2, 66794, Note_on_c, 0, 83, 68
2, 66810, Note_on_c, 0, 67, 19
2, 66813, Note_on_c, 0, 56, 21
2, 66813, Note_on_c, 0, 62, 30
2, 66819, Note_on_c, 0, 67, 0
2, 66824, Note_on_c, 0, 83, 0
2, 66826, Note_on_c, 0, 56, 0
2, 66829, Note_on_c, 0, 62, 0
2, 66835, Note_on_c, 0, 74, 68
2, 66835, Note_on_c, 0, 86, 83
2, 66901, Note_on_c, 0, 86, 0
2, 66916, Note_on_c, 0, 74, 0
2, 67033, Note_on_c, 0, 62, 40
2, 67034, Note_on_c, 0, 57, 38
2, 67037, Note_on_c, 0, 58, 37
2, 67053, Note_on_c, 0, 58, 0
2, 67054, Note_on_c, 0, 57, 0
2, 67054, Note_on_c, 0, 62, 0
2, 67079, Note_on_c, 0, 82, 77
2, 67109, Note_on_c, 0, 82, 0
2, 67117, Note_on_c, 0, 84, 76
2, 67144, Note_on_c, 0, 84, 0
2, 67159, Note_on_c, 0, 82, 74
2, 67161, Note_on_c, 0, 62, 46
2, 67164, Note_on_c, 0, 57, 40
2, 67164, Note_on_c, 0, 58, 40
2, 67174, Note_on_c, 0, 52, 20
2, 67183, Note_on_c, 0, 62, 0
2, 67184, Note_on_c, 0, 52, 0
2, 67188, Note_on_c, 0, 58, 0
2, 67191, Note_on_c, 0, 57, 0
2, 67223, Note_on_c, 0, 82, 0
2, 67244, Note_on_c, 0, 81, 66
2, 67275, Note_on_c, 0, 81, 0
2, 67283, Note_on_c, 0, 82, 65
2, 67314, Note_on_c, 0, 82, 0
2, 67320, Note_on_c, 0, 61, 25
2, 67320, Note_on_c, 0, 65, 28
2, 67321, Note_on_c, 0, 60, 31
2, 67323, Note_on_c, 0, 81, 58
2, 67325, Note_on_c, 0, 55, 34
2, 67380, Note_on_c, 0, 81, 0
2, 67386, Note_on_c, 0, 55, 0
2, 67397, Note_on_c, 0, 65, 0
2, 67423, Note_on_c, 0, 60, 0
2, 67439, Note_on_c, 0, 79, 81
2, 67442, Note_on_c, 0, 61, 0
2, 67464, Note_on_c, 0, 79, 0
2, 67475, Note_on_c, 0, 81, 68
2, 67506, Note_on_c, 0, 81, 0
2, 67513, Note_on_c, 0, 79, 64
2, 67526, Note_on_c, 0, 61, 37
2, 67528, Note_on_c, 0, 65, 32
2, 67531, Note_on_c, 0, 60, 28
2, 67533, Note_on_c, 0, 55, 32
2, 67554, Note_on_c, 0, 79, 0
2, 67558, Note_on_c, 0, 77, 50
2, 67575, Note_on_c, 0, 65, 0
2, 67576, Note_on_c, 0, 60, 0
2, 67588, Note_on_c, 0, 61, 0
2, 67593, Note_on_c, 0, 55, 0
2, 67631, Note_on_c, 0, 77, 0
2, 67640, Note_on_c, 0, 76, 51
2, 67674, Note_on_c, 0, 76, 0
2, 67680, Note_on_c, 0, 60, 38
2, 67680, Note_on_c, 0, 53, 45
2, 67684, Note_on_c, 0, 79, 62
2, 67687, Note_on_c, 0, 57, 26
2, 67689, Note_on_c, 0, 60, 0
2, 67695, Note_on_c, 0, 57, 0
2, 67702, Note_on_c, 0, 53, 0
2, 67745, Note_on_c, 0, 79, 0
2, 67768, Note_on_c, 0, 76, 32
2, 67791, Note_on_c, 0, 76, 0
2, 67805, Note_on_c, 0, 77, 51
2, 67876, Note_on_c, 0, 72, 41
2, 67901, Note_on_c, 0, 72, 0
2, 67921, Note_on_c, 0, 69, 41
2, 68105, Note_on_c, 0, 69, 0
2, 68123, Note_on_c, 0, 63, 56
2, 68124, Note_on_c, 0, 53, 61
2, 68124, Note_on_c, 0, 58, 62
2, 68128, Note_on_c, 0, 77, 0
2, 68292, Note_on_c, 0, 77, 44
2, 68311, Note_on_c, 0, 53, 0
2, 68317, Note_on_c, 0, 77, 0
2, 68320, Note_on_c, 0, 58, 0
2, 68332, Note_on_c, 0, 82, 67
2, 68333, Note_on_c, 0, 63, 0
2, 68354, Note_on_c, 0, 82, 0
2, 68368, Note_on_c, 0, 82, 30
2, 68369, Note_on_c, 0, 83, 83
2, 68397, Note_on_c, 0, 82, 0
2, 68398, Note_on_c, 0, 83, 0
2, 68410, Note_on_c, 0, 63, 33
2, 68410, Note_on_c, 0, 67, 45
2, 68411, Note_on_c, 0, 86, 88
2, 68412, Note_on_c, 0, 74, 68
2, 68414, Note_on_c, 0, 62, 40
2, 68415, Note_on_c, 0, 58, 25
2, 68440, Note_on_c, 0, 86, 0
2, 68450, Note_on_c, 0, 85, 68
2, 68462, Note_on_c, 0, 74, 0
2, 68477, Note_on_c, 0, 85, 0
2, 68488, Note_on_c, 0, 84, 62
2, 68509, Note_on_c, 0, 84, 0
2, 68526, Note_on_c, 0, 79, 48
2, 68538, Note_on_c, 0, 67, 0
2, 68548, Note_on_c, 0, 79, 0
2, 68555, Note_on_c, 0, 63, 0
2, 68558, Note_on_c, 0, 62, 0
2, 68561, Note_on_c, 0, 77, 47
2, 68582, Note_on_c, 0, 77, 0
2, 68597, Note_on_c, 0, 75, 46
2, 68611, Note_on_c, 0, 67, 31
2, 68613, Note_on_c, 0, 62, 14
2, 68613, Note_on_c, 0, 63, 25
2, 68631, Note_on_c, 0, 75, 0
2, 68635, Note_on_c, 0, 67, 0
2, 68641, Note_on_c, 0, 62, 0
2, 68646, Note_on_c, 0, 63, 0
2, 68672, Note_on_c, 0, 58, 0
2, 68753, Note_on_c, 0, 66, 19
2, 68755, Note_on_c, 0, 57, 28
2, 68757, Note_on_c, 0, 61, 25
2, 68759, Note_on_c, 0, 62, 31
2, 68804, Note_on_c, 0, 81, 70
2, 68806, Note_on_c, 0, 75, 31
2, 68809, Note_on_c, 0, 69, 50
2, 68817, Note_on_c, 0, 75, 0
2, 68826, Note_on_c, 0, 69, 0
2, 68827, Note_on_c, 0, 81, 0
2, 68842, Note_on_c, 0, 66, 0
2, 68882, Note_on_c, 0, 62, 0
2, 68882, Note_on_c, 0, 61, 0
2, 68887, Note_on_c, 0, 69, 77
2, 68889, Note_on_c, 0, 81, 71
2, 68890, Note_on_c, 0, 57, 0
2, 68922, Note_on_c, 0, 81, 0
2, 68922, Note_on_c, 0, 69, 0
2, 68978, Note_on_c, 0, 66, 35
2, 68988, Note_on_c, 0, 61, 25
2, 68988, Note_on_c, 0, 57, 19
2, 68991, Note_on_c, 0, 81, 67
2, 68992, Note_on_c, 0, 69, 63
2, 69000, Note_on_c, 0, 57, 0
2, 69011, Note_on_c, 0, 61, 0
2, 69012, Note_on_c, 0, 69, 0
2, 69012, Note_on_c, 0, 66, 0
2, 69013, Note_on_c, 0, 81, 0
2, 69039, Note_on_c, 0, 77, 33
2, 69053, Note_on_c, 0, 77, 0
2, 69076, Note_on_c, 0, 62, 34
2, 69077, Note_on_c, 0, 60, 46
2, 69078, Note_on_c, 0, 69, 62
2, 69078, Note_on_c, 0, 65, 35
2, 69079, Note_on_c, 0, 81, 58
2, 69080, Note_on_c, 0, 77, 32
2, 69081, Note_on_c, 0, 74, 46
2, 69087, Note_on_c, 0, 55, 26
2, 69100, Note_on_c, 0, 69, 0
2, 69102, Note_on_c, 0, 65, 0
2, 69103, Note_on_c, 0, 74, 0
2, 69108, Note_on_c, 0, 62, 0
2, 69108, Note_on_c, 0, 55, 0
2, 69108, Note_on_c, 0, 60, 0
2, 69112, Note_on_c, 0, 77, 0
2, 69112, Note_on_c, 0, 81, 0
2, 69266, Control_c, 0, 64, 127
2, 69293, Control_c, 0, 64, 0
2, 69316, Note_on_c, 0, 69, 64
2, 69316, Note_on_c, 0, 74, 57
2, 69316, Note_on_c, 0, 62, 45
2, 69317, Note_on_c, 0, 60, 47
2, 69318, Note_on_c, 0, 65, 35
2, 69319, Note_on_c, 0, 77, 42
2, 69319, Note_on_c, 0, 81, 40
2, 69323, Note_on_c, 0, 69, 0
2, 69327, Note_on_c, 0, 65, 0
2, 69328, Note_on_c, 0, 74, 0
2, 69328, Note_on_c, 0, 60, 0
2, 69330, Note_on_c, 0, 62, 0
2, 69331, Note_on_c, 0, 77, 0
2, 69339, Note_on_c, 0, 81, 0
2, 69363, Control_c, 0, 64, 127
2, 69374, Control_c, 0, 64, 0
2, 69400, Note_on_c, 0, 62, 62
2, 69400, Note_on_c, 0, 86, 89
2, 69402, Note_on_c, 0, 60, 57
2, 69402, Note_on_c, 0, 65, 68
2, 69402, Note_on_c, 0, 74, 81
2, 69404, Note_on_c, 0, 55, 53
2, 69408, Note_on_c, 0, 80, 32
2, 69414, Control_c, 0, 64, 127
2, 69415, Note_on_c, 0, 80, 0
2, 69430, Note_on_c, 0, 86, 0
2, 69438, Note_on_c, 0, 62, 0
2, 69442, Note_on_c, 0, 60, 0
2, 69448, Note_on_c, 0, 65, 0
2, 69449, Note_on_c, 0, 74, 0
2, 69462, Note_on_c, 0, 55, 0
2, 69491, Note_on_c, 0, 71, 60
2, 69491, Control_c, 0, 64, 0
2, 69492, Note_on_c, 0, 83, 50
2, 69493, Note_on_c, 0, 64, 43
2, 69494, Note_on_c, 0, 76, 58
2, 69494, Note_on_c, 0, 60, 45
2, 69495, Note_on_c, 0, 79, 44
2, 69495, Note_on_c, 0, 59, 50
2, 69500, Note_on_c, 0, 55, 30
2, 69584, Control_c, 0, 64, 127
2, 69630, Note_on_c, 0, 55, 0
2, 69632, Note_on_c, 0, 64, 0
2, 69634, Note_on_c, 0, 59, 0
2, 69638, Note_on_c, 0, 60, 0
2, 69689, Note_on_c, 0, 64, 51
2, 69692, Note_on_c, 0, 60, 51
2, 69697, Note_on_c, 0, 59, 28
2, 69701, Note_on_c, 0, 64, 0
2, 69705, Note_on_c, 0, 60, 0
2, 69706, Note_on_c, 0, 59, 0
2, 69709, Note_on_c, 0, 71, 0
2, 69719, Note_on_c, 0, 79, 0
2, 69719, Note_on_c, 0, 76, 0
2, 69735, Note_on_c, 0, 83, 0
2, 69908, Control_c, 0, 64, 0
2, 69966, Control_c, 0, 64, 127
2, 70035, Note_on_c, 0, 83, 72
2, 70035, Note_on_c, 0, 58, 64
2, 70035, Note_on_c, 0, 63, 64
2, 70036, Note_on_c, 0, 84, 80
2, 70037, Note_on_c, 0, 60, 66
2, 70038, Note_on_c, 0, 53, 29
2, 70040, Note_on_c, 0, 86, 68
2, 70043, Control_c, 0, 64, 0
2, 70047, Note_on_c, 0, 86, 0
2, 70055, Note_on_c, 0, 83, 0
2, 70084, Note_on_c, 0, 53, 0
2, 70089, Note_on_c, 0, 63, 0
2, 70092, Note_on_c, 0, 60, 0
2, 70093, Note_on_c, 0, 58, 0
2, 70096, Note_on_c, 0, 84, 0
2, 70117, Note_on_c, 0, 84, 68
2, 70118, Note_on_c, 0, 63, 67
2, 70119, Note_on_c, 0, 58, 51
2, 70120, Note_on_c, 0, 60, 58
2, 70122, Note_on_c, 0, 53, 54
2, 70144, Control_c, 0, 64, 127
2, 70158, Note_on_c, 0, 60, 0
2, 70169, Note_on_c, 0, 58, 0
2, 70172, Note_on_c, 0, 63, 0
2, 70181, Note_on_c, 0, 53, 0
2, 70185, Note_on_c, 0, 84, 0
2, 70203, Note_on_c, 0, 55, 69
2, 70203, Note_on_c, 0, 53, 29
2, 70204, Control_c, 0, 64, 0
2, 70205, Note_on_c, 0, 84, 73
2, 70205, Note_on_c, 0, 62, 66
2, 70207, Note_on_c, 0, 58, 52
2, 70369, Note_on_c, 0, 84, 0
2, 70392, Note_on_c, 0, 85, 82
2, 70407, Note_on_c, 0, 86, 52
2, 70455, Note_on_c, 0, 86, 0
2, 70469, Note_on_c, 0, 85, 0
2, 70482, Note_on_c, 0, 55, 0
2, 70484, Note_on_c, 0, 84, 51
2, 70487, Note_on_c, 0, 62, 0
2, 70488, Note_on_c, 0, 53, 0
2, 70493, Note_on_c, 0, 58, 0
2, 70510, Note_on_c, 0, 82, 39
2, 70514, Note_on_c, 0, 84, 0
2, 70542, Note_on_c, 0, 77, 43
2, 70546, Note_on_c, 0, 82, 0
2, 70566, Note_on_c, 0, 77, 0
2, 70579, Note_on_c, 0, 81, 60
2, 70647, Note_on_c, 0, 81, 0
2, 70760, Note_on_c, 0, 78, 53
2, 70768, Note_on_c, 0, 64, 36
2, 70771, Note_on_c, 0, 61, 25
2, 70773, Note_on_c, 0, 57, 34
2, 70783, Note_on_c, 0, 64, 0
2, 70789, Note_on_c, 0, 61, 0
2, 70790, Note_on_c, 0, 57, 0
2, 70791, Note_on_c, 0, 78, 0
2, 70812, Note_on_c, 0, 76, 42
2, 70881, Note_on_c, 0, 76, 0
2, 70890, Note_on_c, 0, 72, 56
2, 70920, Note_on_c, 0, 72, 0
2, 70948, Note_on_c, 0, 69, 39
2, 71002, Note_on_c, 0, 69, 0
2, 71013, Note_on_c, 0, 68, 46
2, 71014, Note_on_c, 0, 62, 26
2, 71018, Note_on_c, 0, 56, 25
2, 71022, Note_on_c, 0, 60, 31
2, 71022, Note_on_c, 0, 53, 24
2, 71037, Note_on_c, 0, 60, 0
2, 71038, Note_on_c, 0, 62, 0
2, 71042, Note_on_c, 0, 53, 0
2, 71049, Note_on_c, 0, 56, 0
2, 71052, Note_on_c, 0, 68, 0
2, 71077, Note_on_c, 0, 67, 27
2, 71138, Note_on_c, 0, 67, 0
2, 71239, Note_on_c, 0, 65, 60
2, 71271, Note_on_c, 0, 65, 0
2, 71296, Note_on_c, 0, 64, 31
2, 71353, Note_on_c, 0, 64, 0
2, 71355, Note_on_c, 0, 62, 51
2, 71356, Note_on_c, 0, 56, 45
2, 71363, Note_on_c, 0, 62, 0
2, 71374, Note_on_c, 0, 56, 0
2, 71478, Note_on_c, 0, 67, 52
2, 71483, Note_on_c, 0, 62, 35
2, 71496, Note_on_c, 0, 62, 0
2, 71501, Note_on_c, 0, 67, 0
2, 71533, Note_on_c, 0, 72, 29
2, 71546, Note_on_c, 0, 72, 0
2, 71601, Note_on_c, 0, 76, 69
2, 71621, Note_on_c, 0, 76, 0
2, 71643, Note_on_c, 0, 61, 55
2, 71645, Note_on_c, 0, 70, 59
2, 71646, Note_on_c, 0, 65, 68
2, 71646, Note_on_c, 0, 54, 37
2, 71647, Note_on_c, 0, 77, 54
2, 71648, Note_on_c, 0, 58, 38
2, 71653, Note_on_c, 0, 65, 0
2, 71656, Note_on_c, 0, 58, 0
2, 71657, Note_on_c, 0, 61, 0
2, 71658, Note_on_c, 0, 70, 0
2, 71666, Note_on_c, 0, 77, 0
2, 71671, Note_on_c, 0, 54, 0
2, 71770, Note_on_c, 0, 80, 72
2, 71770, Note_on_c, 0, 68, 81
2, 71771, Note_on_c, 0, 75, 68
2, 71771, Note_on_c, 0, 61, 71
2, 71772, Note_on_c, 0, 54, 59
2, 71774, Note_on_c, 0, 58, 55
2, 71797, Note_on_c, 0, 51, 8
2, 71913, Note_on_c, 0, 75, 0
2, 71920, Note_on_c, 0, 80, 0
2, 71922, Note_on_c, 0, 58, 0
2, 71946, Note_on_c, 0, 68, 0
2, 71954, Note_on_c, 0, 61, 0
2, 71983, Note_on_c, 0, 54, 0
2, 71986, Note_on_c, 0, 51, 0
2, 72001, Note_on_c, 0, 76, 79
2, 72001, Note_on_c, 0, 65, 80
2, 72002, Note_on_c, 0, 68, 64
2, 72003, Note_on_c, 0, 64, 56
2, 72004, Note_on_c, 0, 72, 57
2, 72007, Note_on_c, 0, 62, 34
2, 72016, Note_on_c, 0, 62, 0
2, 72133, Note_on_c, 0, 64, 0
2, 72173, Note_on_c, 0, 72, 0
2, 72180, Note_on_c, 0, 65, 0
2, 72185, Note_on_c, 0, 68, 0
2, 72196, Note_on_c, 0, 76, 0
2, 72198, Note_on_c, 0, 72, 43
2, 72199, Note_on_c, 0, 65, 60
2, 72199, Note_on_c, 0, 68, 52
2, 72199, Note_on_c, 0, 60, 52
2, 72240, Control_c, 0, 64, 127
2, 72262, Note_on_c, 0, 60, 0
2, 72263, Note_on_c, 0, 72, 0
2, 72275, Note_on_c, 0, 68, 0
2, 72281, Note_on_c, 0, 65, 0
2, 72346, Control_c, 0, 64, 0
2, 72357, Note_on_c, 0, 63, 49
2, 72357, Note_on_c, 0, 70, 50
2, 72358, Note_on_c, 0, 59, 50
2, 72359, Note_on_c, 0, 53, 48
2, 72359, Note_on_c, 0, 65, 44
2, 72470, Control_c, 0, 64, 127
2, 72501, Note_on_c, 0, 65, 0
2, 72503, Note_on_c, 0, 59, 0
2, 72505, Note_on_c, 0, 53, 0
2, 72511, Note_on_c, 0, 63, 0
2, 72517, Note_on_c, 0, 70, 0
2, 72558, Note_on_c, 0, 68, 46
2, 72560, Control_c, 0, 64, 0
2, 72562, Note_on_c, 0, 63, 39
2, 72563, Note_on_c, 0, 59, 45
2, 72566, Note_on_c, 0, 53, 44
2, 72570, Note_on_c, 0, 65, 33
2, 72582, Control_c, 0, 64, 127
2, 72591, Note_on_c, 0, 53, 0
2, 72628, Note_on_c, 0, 65, 0
2, 72631, Note_on_c, 0, 68, 0
2, 72632, Note_on_c, 0, 59, 0
2, 72648, Note_on_c, 0, 63, 0
2, 72710, Control_c, 0, 64, 0
2, 72720, Note_on_c, 0, 62, 47
2, 72722, Note_on_c, 0, 65, 48
2, 72724, Note_on_c, 0, 48, 32
2, 72727, Note_on_c, 0, 55, 33
2, 72745, Note_on_c, 0, 65, 0
2, 72753, Note_on_c, 0, 62, 0
2, 72762, Note_on_c, 0, 63, 37
2, 72763, Note_on_c, 0, 60, 31
2, 72788, Note_on_c, 0, 60, 0
2, 72791, Note_on_c, 0, 63, 0
2, 72804, Note_on_c, 0, 65, 48
2, 72806, Note_on_c, 0, 62, 44
2, 72833, Note_on_c, 0, 65, 0
2, 72836, Note_on_c, 0, 62, 0
2, 72854, Note_on_c, 0, 60, 24
2, 72856, Note_on_c, 0, 63, 18
2, 72924, Note_on_c, 0, 60, 0
2, 72933, Note_on_c, 0, 63, 0
2, 72958, Note_on_c, 0, 62, 45
2, 72959, Note_on_c, 0, 65, 51
2, 72975, Control_c, 0, 64, 127
2, 72980, Note_on_c, 0, 48, 0
2, 73018, Note_on_c, 0, 62, 0
2, 73020, Note_on_c, 0, 65, 0
2, 73043, Note_on_c, 0, 60, 18
2, 73046, Note_on_c, 0, 55, 0
2, 73050, Control_c, 0, 64, 0
2, 73057, Note_on_c, 0, 60, 0
2, 73069, Note_on_c, 0, 48, 2
2, 73079, Note_on_c, 0, 56, 37
2, 73081, Note_on_c, 0, 68, 38
2, 73081, Note_on_c, 0, 65, 46
2, 73150, Note_on_c, 0, 65, 0
2, 73156, Note_on_c, 0, 68, 0
2, 73165, Note_on_c, 0, 60, 46
2, 73175, Note_on_c, 0, 60, 0
2, 73204, Note_on_c, 0, 65, 44
2, 73236, Note_on_c, 0, 65, 0
2, 73241, Note_on_c, 0, 68, 56
2, 73255, Note_on_c, 0, 68, 0
2, 73283, Note_on_c, 0, 72, 30
2, 73310, Note_on_c, 0, 72, 0
2, 73318, Note_on_c, 0, 75, 50
2, 73346, Note_on_c, 0, 75, 0
2, 73355, Note_on_c, 0, 76, 56
2, 73378, Note_on_c, 0, 76, 0
2, 73396, Note_on_c, 0, 79, 88
2, 73411, Note_on_c, 0, 56, 0
2, 73422, Note_on_c, 0, 48, 0
2, 73426, Note_on_c, 0, 79, 0
2, 73439, Note_on_c, 0, 77, 52
2, 73472, Note_on_c, 0, 77, 0
2, 73477, Note_on_c, 0, 72, 57
2, 73499, Note_on_c, 0, 72, 0
2, 73523, Note_on_c, 0, 67, 36
2, 73550, Note_on_c, 0, 67, 0
2, 73565, Note_on_c, 0, 65, 46
2, 73589, Note_on_c, 0, 65, 0
2, 73603, Note_on_c, 0, 63, 37
2, 73622, Note_on_c, 0, 63, 0
2, 73643, Note_on_c, 0, 62, 42
2, 73650, Note_on_c, 0, 55, 35
2, 73655, Note_on_c, 0, 48, 19
2, 73665, Note_on_c, 0, 48, 0
2, 73670, Note_on_c, 0, 55, 0
2, 73799, Note_on_c, 0, 56, 32
2, 73800, Note_on_c, 0, 48, 32
2, 73817, Note_on_c, 0, 62, 0
2, 73921, Note_on_c, 0, 67, 96
2, 73922, Note_on_c, 0, 72, 74
2, 73957, Note_on_c, 0, 67, 0
2, 73958, Note_on_c, 0, 68, 62
2, 73978, Note_on_c, 0, 72, 0
2, 73988, Note_on_c, 0, 68, 0
2, 74005, Note_on_c, 0, 72, 77
2, 74005, Note_on_c, 0, 67, 96
2, 74038, Note_on_c, 0, 68, 70
2, 74039, Note_on_c, 0, 67, 0
2, 74067, Note_on_c, 0, 72, 0
2, 74071, Note_on_c, 0, 68, 0
2, 74085, Note_on_c, 0, 72, 64
2, 74085, Note_on_c, 0, 67, 92
2, 74111, Note_on_c, 0, 48, 0
2, 74114, Note_on_c, 0, 67, 0
2, 74117, Note_on_c, 0, 72, 0
2, 74122, Note_on_c, 0, 68, 74
2, 74124, Note_on_c, 0, 56, 0
2, 74125, Note_on_c, 0, 72, 29
2, 74144, Note_on_c, 0, 72, 0
2, 74153, Note_on_c, 0, 68, 0
2, 74161, Note_on_c, 0, 67, 50
2, 74164, Note_on_c, 0, 72, 43
2, 74166, Note_on_c, 0, 48, 34
2, 74173, Note_on_c, 0, 55, 24
2, 74198, Note_on_c, 0, 67, 0
2, 74199, Note_on_c, 0, 72, 0
2, 74204, Note_on_c, 0, 65, 55
2, 74228, Note_on_c, 0, 65, 0
2, 74244, Note_on_c, 0, 63, 30
2, 74277, Note_on_c, 0, 63, 0
2, 74282, Note_on_c, 0, 62, 46
2, 74427, Note_on_c, 0, 55, 0
2, 74461, Note_on_c, 0, 48, 0
2, 74508, Note_on_c, 0, 62, 0
2, 74517, Note_on_c, 0, 56, 33
2, 74518, Note_on_c, 0, 48, 24
2, 74710, Note_on_c, 0, 65, 46
2, 74726, Note_on_c, 0, 65, 0
2, 74728, Note_on_c, 0, 48, 0
2, 74737, Note_on_c, 0, 56, 0
2, 74753, Note_on_c, 0, 68, 36
2, 74772, Note_on_c, 0, 68, 0
2, 74832, Note_on_c, 0, 74, 81
2, 74860, Note_on_c, 0, 74, 0
2, 74887, Note_on_c, 0, 71, 44
2, 74920, Note_on_c, 0, 71, 0
2, 74958, Note_on_c, 0, 72, 70
2, 74978, Note_on_c, 0, 72, 0
2, 75009, Note_on_c, 0, 74, 61
2, 75053, Note_on_c, 0, 74, 0
2, 75080, Note_on_c, 0, 75, 64
2, 75110, Note_on_c, 0, 75, 0
2, 75134, Note_on_c, 0, 77, 36
2, 75196, Note_on_c, 0, 78, 59
2, 75206, Note_on_c, 0, 77, 0
2, 75211, Note_on_c, 0, 78, 0
2, 75357, Note_on_c, 0, 71, 79
2, 75358, Note_on_c, 0, 61, 60
2, 75359, Note_on_c, 0, 65, 74
2, 75359, Note_on_c, 0, 63, 58
2, 75360, Note_on_c, 0, 67, 71
2, 75361, Note_on_c, 0, 69, 66
2, 75482, Control_c, 0, 64, 127
2, 75502, Note_on_c, 0, 63, 0
2, 75509, Note_on_c, 0, 61, 0
2, 75523, Note_on_c, 0, 65, 0
2, 75527, Note_on_c, 0, 69, 0
2, 75527, Note_on_c, 0, 67, 0
2, 75532, Note_on_c, 0, 71, 0
2, 75594, Control_c, 0, 64, 0
2, 75598, Note_on_c, 0, 76, 74
2, 75714, Note_on_c, 0, 76, 0
2, 75911, Control_c, 0, 64, 127
2, 75969, Note_on_c, 0, 77, 54
2, 75973, Note_on_c, 0, 61, 25
2, 75973, Note_on_c, 0, 69, 41
2, 75975, Note_on_c, 0, 65, 24
2, 75976, Control_c, 0, 64, 0
2, 75976, Note_on_c, 0, 72, 30
2, 75976, Note_on_c, 0, 55, 47
2, 76211, Control_c, 0, 64, 127
2, 76243, Note_on_c, 0, 55, 0
2, 76260, Note_on_c, 0, 61, 0
2, 76271, Note_on_c, 0, 77, 0
2, 76276, Note_on_c, 0, 65, 0
2, 76281, Note_on_c, 0, 69, 0
2, 76284, Note_on_c, 0, 72, 0
2, 76302, Control_c, 0, 64, 0
2, 76325, Note_on_c, 0, 76, 71
2, 76326, Note_on_c, 0, 72, 57
2, 76327, Note_on_c, 0, 69, 60
2, 76327, Note_on_c, 0, 64, 58
2, 76327, Note_on_c, 0, 65, 56
2, 76359, Note_on_c, 0, 72, 0
2, 76361, Note_on_c, 0, 69, 0
2, 76362, Note_on_c, 0, 65, 0
2, 76366, Note_on_c, 0, 64, 0
2, 76371, Note_on_c, 0, 76, 0
2, 76409, Note_on_c, 0, 62, 49
2, 76409, Note_on_c, 0, 65, 36
2, 76409, Note_on_c, 0, 74, 46
2, 76411, Note_on_c, 0, 69, 48
2, 76613, Note_on_c, 0, 62, 0
2, 76621, Note_on_c, 0, 65, 0
2, 76623, Note_on_c, 0, 69, 0
2, 76630, Note_on_c, 0, 74, 0
2, 76860, Note_on_c, 0, 70, 40
2, 76860, Note_on_c, 0, 65, 49
2, 76861, Note_on_c, 0, 74, 43
2, 76862, Note_on_c, 0, 60, 48
2, 76862, Note_on_c, 0, 54, 32
2, 76868, Note_on_c, 0, 65, 0
2, 76870, Note_on_c, 0, 70, 0
2, 76871, Note_on_c, 0, 60, 0
2, 76872, Note_on_c, 0, 74, 0
2, 76875, Note_on_c, 0, 54, 0
2, 76939, Note_on_c, 0, 74, 49
2, 76939, Note_on_c, 0, 70, 39
2, 76939, Note_on_c, 0, 54, 46
2, 76940, Note_on_c, 0, 65, 42
2, 76944, Note_on_c, 0, 60, 43
2, 76965, Note_on_c, 0, 60, 0
2, 76992, Note_on_c, 0, 65, 0
2, 76993, Note_on_c, 0, 54, 0
2, 76993, Note_on_c, 0, 74, 0
2, 77003, Note_on_c, 0, 70, 0
2, 77031, Note_on_c, 0, 65, 26
2, 77032, Note_on_c, 0, 62, 33
2, 77033, Note_on_c, 0, 69, 37
2, 77034, Note_on_c, 0, 72, 35
2, 77036, Note_on_c, 0, 60, 34
2, 77040, Note_on_c, 0, 58, 28
2, 77312, Control_c, 0, 64, 127
2, 77324, Note_on_c, 0, 60, 0
2, 77335, Note_on_c, 0, 65, 0
2, 77340, Note_on_c, 0, 62, 0
2, 77343, Note_on_c, 0, 69, 0
2, 77350, Note_on_c, 0, 58, 0
2, 77357, Note_on_c, 0, 72, 0
2, 77511, Control_c, 0, 64, 0
2, 77516, Note_on_c, 0, 91, 81
2, 77517, Note_on_c, 0, 84, 82
2, 77518, Note_on_c, 0, 62, 46
2, 77518, Note_on_c, 0, 67, 54
2, 77520, Note_on_c, 0, 56, 38
2, 77587, Note_on_c, 0, 91, 0
2, 77605, Note_on_c, 0, 88, 39
2, 77606, Note_on_c, 0, 79, 40
2, 77624, Control_c, 0, 64, 127
2, 77677, Note_on_c, 0, 62, 0
2, 77678, Note_on_c, 0, 67, 0
2, 77685, Note_on_c, 0, 84, 0
2, 77687, Note_on_c, 0, 88, 0
2, 77700, Note_on_c, 0, 79, 0
2, 77708, Note_on_c, 0, 56, 0
2, 77765, Control_c, 0, 64, 0
2, 77768, Note_on_c, 0, 86, 60
2, 77768, Note_on_c, 0, 79, 39
2, 77769, Note_on_c, 0, 55, 27
2, 77780, Note_on_c, 0, 60, 28
2, 77781, Note_on_c, 0, 57, 34
2, 77782, Note_on_c, 0, 64, 12
2, 77824, Control_c, 0, 64, 127
2, 77826, Note_on_c, 0, 86, 0
2, 77844, Control_c, 0, 64, 0
2, 77846, Note_on_c, 0, 79, 0
2, 77852, Note_on_c, 0, 84, 56
2, 77854, Note_on_c, 0, 72, 35
2, 77895, Control_c, 0, 64, 127
2, 77966, Note_on_c, 0, 84, 0
2, 77978, Note_on_c, 0, 60, 0
2, 77978, Note_on_c, 0, 64, 0
2, 77988, Note_on_c, 0, 55, 0
2, 77996, Note_on_c, 0, 72, 0
2, 78001, Note_on_c, 0, 57, 0
2, 78102, Control_c, 0, 64, 0
2, 78195, Note_on_c, 0, 61, 43
2, 78195, Note_on_c, 0, 81, 51
2, 78196, Note_on_c, 0, 73, 25
2, 78197, Note_on_c, 0, 69, 38
2, 78198, Note_on_c, 0, 65, 43
2, 78201, Note_on_c, 0, 55, 33
2, 78202, Note_on_c, 0, 76, 28
2, 78208, Note_on_c, 0, 65, 0
2, 78208, Note_on_c, 0, 69, 0
2, 78208, Note_on_c, 0, 73, 0
2, 78209, Note_on_c, 0, 81, 0
2, 78210, Note_on_c, 0, 55, 0
2, 78212, Note_on_c, 0, 76, 0
2, 78213, Note_on_c, 0, 61, 0
2, 78286, Note_on_c, 0, 81, 36
2, 78286, Note_on_c, 0, 73, 25
2, 78288, Note_on_c, 0, 61, 34
2, 78288, Note_on_c, 0, 69, 30
2, 78290, Note_on_c, 0, 65, 31
2, 78290, Note_on_c, 0, 55, 32
2, 78294, Note_on_c, 0, 76, 32
2, 78303, Note_on_c, 0, 55, 0
2, 78303, Note_on_c, 0, 69, 0
2, 78304, Note_on_c, 0, 65, 0
2, 78306, Note_on_c, 0, 76, 0
2, 78307, Note_on_c, 0, 73, 0
2, 78308, Note_on_c, 0, 61, 0
2, 78310, Note_on_c, 0, 81, 0
2, 78372, Note_on_c, 0, 81, 40
2, 78375, Note_on_c, 0, 61, 34
2, 78376, Note_on_c, 0, 73, 19
2, 78378, Note_on_c, 0, 69, 28
2, 78378, Note_on_c, 0, 65, 31
2, 78378, Note_on_c, 0, 55, 35
2, 78379, Note_on_c, 0, 76, 34
2, 78380, Control_c, 0, 64, 127
2, 78418, Note_on_c, 0, 81, 0
2, 78425, Note_on_c, 0, 65, 0
2, 78438, Note_on_c, 0, 69, 0
2, 78453, Note_on_c, 0, 73, 0
2, 78463, Note_on_c, 0, 55, 0
2, 78465, Note_on_c, 0, 76, 0
2, 78488, Control_c, 0, 64, 0
2, 78494, Note_on_c, 0, 61, 0
2, 78498, Note_on_c, 0, 79, 33
2, 78500, Note_on_c, 0, 74, 30
2, 78502, Note_on_c, 0, 64, 40
2, 78506, Note_on_c, 0, 69, 22
2, 78548, Note_on_c, 0, 79, 0
2, 78551, Note_on_c, 0, 74, 0
2, 78553, Note_on_c, 0, 69, 0
2, 78575, Note_on_c, 0, 77, 46
2, 78577, Note_on_c, 0, 72, 30
2, 78579, Note_on_c, 0, 64, 0
2, 78584, Note_on_c, 0, 62, 30
2, 78589, Note_on_c, 0, 72, 0
2, 78593, Note_on_c, 0, 62, 0
2, 78593, Note_on_c, 0, 77, 0
2, 78918, Note_on_c, 0, 71, 46
2, 78918, Note_on_c, 0, 62, 47
2, 78918, Note_on_c, 0, 64, 40
2, 78920, Note_on_c, 0, 67, 42
2, 78920, Note_on_c, 0, 59, 39
2, 78926, Note_on_c, 0, 62, 0
2, 78927, Note_on_c, 0, 64, 0
2, 78929, Note_on_c, 0, 67, 0
2, 78930, Note_on_c, 0, 59, 0
2, 78933, Note_on_c, 0, 71, 0
2, 78996, Note_on_c, 0, 74, 60
2, 78997, Note_on_c, 0, 62, 49
2, 78997, Note_on_c, 0, 67, 57
2, 79002, Note_on_c, 0, 71, 32
2, 79003, Note_on_c, 0, 64, 20
2, 79009, Note_on_c, 0, 67, 0
2, 79011, Note_on_c, 0, 64, 0
2, 79011, Note_on_c, 0, 62, 0
2, 79013, Note_on_c, 0, 74, 0
2, 79013, Note_on_c, 0, 71, 0
2, 79074, Note_on_c, 0, 71, 47
2, 79078, Note_on_c, 0, 64, 39
2, 79079, Note_on_c, 0, 67, 42
2, 79080, Note_on_c, 0, 59, 33
2, 79088, Note_on_c, 0, 64, 0
2, 79090, Note_on_c, 0, 67, 0
2, 79093, Note_on_c, 0, 59, 0
2, 79095, Note_on_c, 0, 71, 0
2, 79158, Note_on_c, 0, 74, 59
2, 79159, Note_on_c, 0, 67, 58
2, 79163, Note_on_c, 0, 62, 37
2, 79166, Note_on_c, 0, 65, 31
2, 79169, Note_on_c, 0, 67, 0
2, 79172, Note_on_c, 0, 74, 0
2, 79173, Note_on_c, 0, 62, 0
2, 79174, Note_on_c, 0, 65, 0
2, 79233, Note_on_c, 0, 71, 49
2, 79236, Note_on_c, 0, 63, 38
2, 79238, Note_on_c, 0, 60, 39
2, 79238, Note_on_c, 0, 66, 48
2, 79240, Note_on_c, 0, 56, 26
2, 79254, Note_on_c, 0, 63, 0
2, 79256, Note_on_c, 0, 60, 0
2, 79258, Note_on_c, 0, 66, 0
2, 79263, Note_on_c, 0, 56, 0
2, 79266, Note_on_c, 0, 71, 0
2, 79321, Note_on_c, 0, 71, 52
2, 79325, Note_on_c, 0, 66, 35
2, 79326, Note_on_c, 0, 60, 31
2, 79327, Note_on_c, 0, 63, 28
2, 79329, Note_on_c, 0, 56, 21
2, 79399, Note_on_c, 0, 56, 0
2, 79405, Note_on_c, 0, 63, 0
2, 79407, Note_on_c, 0, 60, 0
2, 79412, Note_on_c, 0, 66, 0
2, 79415, Note_on_c, 0, 71, 0
2, 79817, Control_c, 0, 64, 127
2, 79924, Note_on_c, 0, 64, 26
2, 79925, Note_on_c, 0, 60, 44
2, 79925, Note_on_c, 0, 57, 31
2, 79927, Control_c, 0, 64, 0
2, 79927, Note_on_c, 0, 48, 24
2, 79927, Note_on_c, 0, 41, 32
2, 79932, Note_on_c, 0, 55, 19
2, 79989, Control_c, 0, 64, 127
2, 80077, Note_on_c, 0, 55, 0
2, 80099, Note_on_c, 0, 57, 0
2, 80102, Note_on_c, 0, 41, 0
2, 80103, Note_on_c, 0, 60, 0
2, 80104, Note_on_c, 0, 48, 0
2, 80127, Note_on_c, 0, 64, 0
2, 80398, Note_on_c, 0, 86, 90
2, 80404, Note_on_c, 0, 83, 68
2, 80407, Note_on_c, 0, 62, 45
2, 80408, Note_on_c, 0, 63, 45
2, 80409, Note_on_c, 0, 57, 44
2, 80410, Note_on_c, 0, 67, 55
2, 80410, Note_on_c, 0, 79, 58
2, 80412, Control_c, 0, 64, 0
2, 80416, Note_on_c, 0, 74, 58
2, 80461, Control_c, 0, 64, 127
2, 80515, Note_on_c, 0, 67, 0
2, 80518, Note_on_c, 0, 86, 0
2, 80518, Note_on_c, 0, 83, 0
2, 80522, Note_on_c, 0, 79, 0
2, 80523, Note_on_c, 0, 63, 0
2, 80524, Note_on_c, 0, 62, 0
2, 80531, Note_on_c, 0, 74, 0
2, 80538, Note_on_c, 0, 57, 0
2, 80637, Note_on_c, 0, 84, 66
2, 80639, Note_on_c, 0, 79, 53
2, 80644, Note_on_c, 0, 62, 40
2, 80646, Note_on_c, 0, 76, 46
2, 80647, Note_on_c, 0, 67, 42
2, 80648, Note_on_c, 0, 56, 35
2, 80650, Note_on_c, 0, 72, 42
2, 80650, Control_c, 0, 64, 0
2, 80730, Control_c, 0, 64, 127
2, 80828, Note_on_c, 0, 67, 0
2, 80830, Note_on_c, 0, 62, 0
2, 80833, Note_on_c, 0, 84, 0
2, 80861, Note_on_c, 0, 79, 0
2, 80871, Note_on_c, 0, 72, 0
2, 80873, Note_on_c, 0, 76, 0
2, 80875, Note_on_c, 0, 56, 0
2, 80988, Note_on_c, 0, 77, 24
2, 80991, Note_on_c, 0, 81, 48
2, 80997, Note_on_c, 0, 61, 28
2, 81001, Control_c, 0, 64, 0
2, 81002, Note_on_c, 0, 55, 27
2, 81003, Note_on_c, 0, 72, 18
2, 81004, Note_on_c, 0, 65, 24
2, 81005, Note_on_c, 0, 60, 29
2, 81005, Note_on_c, 0, 69, 25
2, 81005, Note_on_c, 0, 73, 12
2, 81085, Control_c, 0, 64, 127
2, 81178, Note_on_c, 0, 81, 0
2, 81193, Note_on_c, 0, 73, 0
2, 81200, Note_on_c, 0, 77, 0
2, 81231, Note_on_c, 0, 60, 0
2, 81235, Note_on_c, 0, 65, 0
2, 81252, Note_on_c, 0, 61, 0
2, 81266, Note_on_c, 0, 69, 0
2, 81266, Note_on_c, 0, 55, 0
2, 81275, Note_on_c, 0, 72, 0
2, 81320, Note_on_c, 0, 79, 63
2, 81371, Note_on_c, 0, 79, 0
2, 81379, Note_on_c, 0, 76, 46
2, 81380, Note_on_c, 0, 67, 34
2, 81385, Note_on_c, 0, 72, 33
2, 81385, Control_c, 0, 64, 0
2, 81391, Note_on_c, 0, 58, 23
2, 81410, Note_on_c, 0, 64, 4
2, 81504, Control_c, 0, 64, 127
2, 81550, Note_on_c, 0, 58, 0
2, 81553, Note_on_c, 0, 64, 0
2, 81588, Note_on_c, 0, 67, 0
2, 81607, Note_on_c, 0, 72, 0
2, 81622, Note_on_c, 0, 76, 0
2, 81679, Note_on_c, 0, 66, 55
2, 81681, Note_on_c, 0, 76, 57
2, 81681, Note_on_c, 0, 72, 61
2, 81683, Control_c, 0, 64, 0
2, 81683, Note_on_c, 0, 67, 58
2, 81684, Note_on_c, 0, 62, 36
2, 81687, Note_on_c, 0, 56, 25
2, 81691, Note_on_c, 0, 67, 0
2, 81694, Note_on_c, 0, 62, 0
2, 81698, Note_on_c, 0, 66, 0
2, 81699, Note_on_c, 0, 72, 0
2, 81702, Note_on_c, 0, 76, 0
2, 81718, Note_on_c, 0, 56, 0
2, 81762, Note_on_c, 0, 67, 58
2, 81764, Note_on_c, 0, 73, 33
2, 81764, Note_on_c, 0, 65, 49
2, 81765, Note_on_c, 0, 61, 35
2, 81772, Note_on_c, 0, 67, 0
2, 81773, Note_on_c, 0, 65, 0
2, 81776, Note_on_c, 0, 73, 0
2, 81777, Note_on_c, 0, 61, 0
2, 81849, Note_on_c, 0, 73, 35
2, 81850, Note_on_c, 0, 67, 43
2, 81852, Note_on_c, 0, 70, 37
2, 81853, Note_on_c, 0, 61, 35
2, 81854, Note_on_c, 0, 65, 39
2, 81854, Note_on_c, 0, 55, 40
2, 81919, Control_c, 0, 64, 127
2, 81975, Note_on_c, 0, 65, 0
2, 81990, Note_on_c, 0, 61, 0
2, 81997, Note_on_c, 0, 55, 0
2, 82032, Note_on_c, 0, 67, 0
2, 82058, Note_on_c, 0, 70, 0
2, 82059, Note_on_c, 0, 73, 0
2, 82096, Note_on_c, 0, 65, 40
2, 82098, Note_on_c, 0, 69, 46
2, 82100, Note_on_c, 0, 76, 33
2, 82100, Control_c, 0, 64, 0
2, 82101, Note_on_c, 0, 60, 35
2, 82103, Note_on_c, 0, 57, 34
2, 82105, Note_on_c, 0, 50, 29
2, 82206, Control_c, 0, 64, 127
2, 82292, Note_on_c, 0, 69, 0
2, 82293, Note_on_c, 0, 65, 0
2, 82296, Note_on_c, 0, 57, 0
2, 82297, Note_on_c, 0, 60, 0
2, 82298, Note_on_c, 0, 50, 0
2, 82298, Note_on_c, 0, 76, 0
2, 82323, Control_c, 0, 64, 0
2, 82556, Note_on_c, 0, 58, 43
2, 82556, Note_on_c, 0, 44, 34
2, 82557, Note_on_c, 0, 53, 36
2, 82557, Note_on_c, 0, 62, 44
2, 82563, Note_on_c, 0, 58, 0
2, 82567, Note_on_c, 0, 62, 0
2, 82567, Note_on_c, 0, 53, 0
2, 82609, Note_on_c, 0, 44, 0
2, 82683, Note_on_c, 0, 62, 50
2, 82684, Note_on_c, 0, 44, 36
2, 82685, Note_on_c, 0, 58, 46
2, 82685, Note_on_c, 0, 53, 43
2, 82697, Note_on_c, 0, 53, 0
2, 82697, Note_on_c, 0, 58, 0
2, 82701, Note_on_c, 0, 62, 0
2, 82703, Note_on_c, 0, 44, 0
2, 82718, Note_on_c, 0, 58, 31
2, 82720, Note_on_c, 0, 62, 25
2, 82733, Note_on_c, 0, 62, 0
2, 82734, Note_on_c, 0, 58, 0
2, 82807, Note_on_c, 0, 53, 32
2, 82808, Note_on_c, 0, 43, 42
2, 82808, Note_on_c, 0, 60, 52
2, 82808, Note_on_c, 0, 57, 40
2, 82818, Note_on_c, 0, 57, 0
2, 82821, Note_on_c, 0, 43, 0
2, 82822, Note_on_c, 0, 53, 0
2, 82824, Note_on_c, 0, 60, 0
2, 82883, Note_on_c, 0, 53, 31
2, 82884, Note_on_c, 0, 60, 44
2, 82887, Note_on_c, 0, 57, 38
2, 82891, Note_on_c, 0, 43, 22
2, 83036, Note_on_c, 0, 53, 0
2, 83038, Control_c, 0, 64, 127
2, 83047, Note_on_c, 0, 43, 0
2, 83048, Note_on_c, 0, 57, 0
2, 83059, Note_on_c, 0, 60, 0
2, 83172, Control_c, 0, 64, 0
2, 83276, Note_on_c, 0, 72, 57
2, 83277, Note_on_c, 0, 62, 52
2, 83278, Note_on_c, 0, 56, 44
2, 83279, Note_on_c, 0, 67, 49
2, 83281, Note_on_c, 0, 64, 34
2, 83304, Control_c, 0, 64, 127
2, 83374, Note_on_c, 0, 64, 0
2, 83378, Note_on_c, 0, 56, 0
2, 83389, Note_on_c, 0, 62, 0
2, 83396, Note_on_c, 0, 67, 0
2, 83401, Note_on_c, 0, 72, 0
2, 83524, Note_on_c, 0, 83, 76
2, 83532, Note_on_c, 0, 79, 67
2, 83534, Note_on_c, 0, 76, 66
2, 83535, Note_on_c, 0, 64, 53
2, 83536, Control_c, 0, 64, 0
2, 83536, Note_on_c, 0, 60, 51
2, 83538, Note_on_c, 0, 71, 53
2, 83539, Note_on_c, 0, 59, 39
2, 83540, Note_on_c, 0, 55, 34
2, 83624, Control_c, 0, 64, 127
2, 83733, Note_on_c, 0, 59, 0
2, 83735, Note_on_c, 0, 60, 0
2, 83738, Note_on_c, 0, 55, 0
2, 83739, Note_on_c, 0, 64, 0
2, 83778, Note_on_c, 0, 71, 0
2, 83787, Note_on_c, 0, 76, 0
2, 83790, Note_on_c, 0, 79, 0
2, 83796, Note_on_c, 0, 83, 0
2, 83888, Note_on_c, 0, 84, 61
2, 83895, Note_on_c, 0, 55, 44
2, 83896, Note_on_c, 0, 81, 48
2, 83897, Note_on_c, 0, 61, 33
2, 83899, Note_on_c, 0, 77, 42
2, 83900, Note_on_c, 0, 60, 37
2, 83900, Control_c, 0, 64, 0
2, 83901, Note_on_c, 0, 65, 30
2, 83902, Note_on_c, 0, 72, 39
2, 84013, Control_c, 0, 64, 127
2, 84120, Note_on_c, 0, 60, 0
2, 84131, Note_on_c, 0, 65, 0
2, 84133, Note_on_c, 0, 84, 0
2, 84135, Note_on_c, 0, 61, 0
2, 84142, Note_on_c, 0, 81, 0
2, 84144, Note_on_c, 0, 55, 0
2, 84158, Note_on_c, 0, 72, 0
2, 84159, Note_on_c, 0, 77, 0
2, 84227, Control_c, 0, 64, 0
2, 84310, Note_on_c, 0, 64, 36
2, 84310, Note_on_c, 0, 71, 45
2, 84311, Note_on_c, 0, 83, 45
2, 84311, Note_on_c, 0, 76, 43
2, 84313, Note_on_c, 0, 57, 32
2, 84314, Note_on_c, 0, 79, 31
2, 84321, Note_on_c, 0, 83, 0
2, 84322, Note_on_c, 0, 71, 0
2, 84323, Note_on_c, 0, 76, 0
2, 84323, Note_on_c, 0, 79, 0
2, 84324, Note_on_c, 0, 64, 0
2, 84324, Note_on_c, 0, 57, 0
2, 84408, Note_on_c, 0, 79, 43
2, 84409, Note_on_c, 0, 74, 44
2, 84410, Note_on_c, 0, 64, 27
2, 84411, Note_on_c, 0, 67, 32
2, 84412, Note_on_c, 0, 57, 35
2, 84413, Note_on_c, 0, 53, 24
2, 84415, Note_on_c, 0, 60, 37
2, 84430, Note_on_c, 0, 67, 0
2, 84448, Note_on_c, 0, 60, 0
2, 84454, Note_on_c, 0, 64, 0
2, 84456, Note_on_c, 0, 79, 0
2, 84457, Note_on_c, 0, 57, 0
2, 84463, Note_on_c, 0, 53, 0
2, 84465, Note_on_c, 0, 74, 0
2, 84482, Note_on_c, 0, 69, 45
2, 84484, Note_on_c, 0, 81, 37
2, 84485, Note_on_c, 0, 53, 29
2, 84486, Note_on_c, 0, 74, 47
2, 84486, Note_on_c, 0, 57, 44
2, 84487, Control_c, 0, 64, 127
2, 84489, Note_on_c, 0, 64, 26
2, 84489, Note_on_c, 0, 60, 41
2, 84521, Note_on_c, 0, 60, 0
2, 84523, Note_on_c, 0, 57, 0
2, 84523, Note_on_c, 0, 64, 0
2, 84527, Note_on_c, 0, 69, 0
2, 84532, Note_on_c, 0, 74, 0
2, 84536, Note_on_c, 0, 53, 0
2, 84548, Note_on_c, 0, 81, 0
2, 84589, Control_c, 0, 64, 0
2, 84597, Note_on_c, 0, 83, 57
2, 84602, Note_on_c, 0, 52, 35
2, 84603, Note_on_c, 0, 76, 44
2, 84604, Note_on_c, 0, 71, 20
2, 84604, Note_on_c, 0, 55, 49
2, 84604, Note_on_c, 0, 79, 32
2, 84606, Note_on_c, 0, 59, 32
2, 84607, Note_on_c, 0, 62, 30
2, 84712, Control_c, 0, 64, 127
2, 84795, Note_on_c, 0, 83, 0
2, 84807, Note_on_c, 0, 79, 0
2, 84810, Note_on_c, 0, 62, 0
2, 84823, Note_on_c, 0, 59, 0
2, 84826, Note_on_c, 0, 55, 0
2, 84828, Note_on_c, 0, 76, 0
2, 84840, Note_on_c, 0, 71, 0
2, 84845, Note_on_c, 0, 52, 0
2, 84965, Note_on_c, 0, 66, 76
2, 84966, Note_on_c, 0, 74, 76
2, 84966, Note_on_c, 0, 63, 74
2, 84969, Note_on_c, 0, 62, 84
2, 84970, Note_on_c, 0, 69, 62
2, 84973, Control_c, 0, 64, 0
2, 85052, Control_c, 0, 64, 127
2, 85116, Note_on_c, 0, 62, 0
2, 85117, Note_on_c, 0, 69, 0
2, 85129, Note_on_c, 0, 74, 0
2, 85133, Note_on_c, 0, 63, 0
2, 85136, Note_on_c, 0, 66, 0
2, 85162, Note_on_c, 0, 63, 49
2, 85163, Note_on_c, 0, 72, 49
2, 85165, Note_on_c, 0, 66, 50
2, 85169, Note_on_c, 0, 60, 54
2, 85172, Note_on_c, 0, 69, 36
2, 85173, Control_c, 0, 64, 0
2, 85215, Control_c, 0, 64, 127
2, 85231, Note_on_c, 0, 60, 0
2, 85234, Note_on_c, 0, 72, 0
2, 85241, Note_on_c, 0, 69, 0
2, 85248, Note_on_c, 0, 63, 0
2, 85278, Note_on_c, 0, 66, 0
2, 85321, Control_c, 0, 64, 0
2, 85323, Note_on_c, 0, 71, 44
2, 85326, Note_on_c, 0, 62, 42
2, 85327, Note_on_c, 0, 64, 43
2, 85329, Note_on_c, 0, 67, 37
2, 85331, Note_on_c, 0, 59, 34
2, 85367, Control_c, 0, 64, 127
2, 85399, Note_on_c, 0, 59, 0
2, 85418, Note_on_c, 0, 67, 0
2, 85420, Note_on_c, 0, 71, 0
2, 85427, Note_on_c, 0, 64, 0
2, 85433, Note_on_c, 0, 62, 0
2, 85513, Note_on_c, 0, 67, 33
2, 85515, Note_on_c, 0, 59, 30
2, 85515, Note_on_c, 0, 62, 30
2, 85516, Note_on_c, 0, 52, 30
2, 85517, Control_c, 0, 64, 0
2, 85519, Note_on_c, 0, 64, 29
2, 85557, Control_c, 0, 64, 127
2, 85560, Note_on_c, 0, 52, 0
2, 85575, Note_on_c, 0, 64, 0
2, 85582, Note_on_c, 0, 62, 0
2, 85584, Note_on_c, 0, 67, 0
2, 85593, Note_on_c, 0, 59, 0
2, 85676, Control_c, 0, 64, 0
2, 85685, Note_on_c, 0, 41, 35
2, 85685, Note_on_c, 0, 60, 39
2, 85686, Note_on_c, 0, 64, 24
2, 85687, Note_on_c, 0, 57, 33
2, 85687, Note_on_c, 0, 55, 24
2, 85687, Note_on_c, 0, 48, 31
2, 85820, Control_c, 0, 64, 127
2, 85865, Note_on_c, 0, 55, 0
2, 85882, Note_on_c, 0, 48, 0
2, 85883, Note_on_c, 0, 57, 0
2, 85889, Note_on_c, 0, 41, 0
2, 85891, Note_on_c, 0, 60, 0
2, 85911, Note_on_c, 0, 64, 0
2, 86026, Note_on_c, 0, 41, 40
2, 86035, Note_on_c, 0, 48, 43
2, 86047, Note_on_c, 0, 63, 44
2, 86054, Control_c, 0, 64, 0
2, 86056, Note_on_c, 0, 57, 52
2, 86057, Note_on_c, 0, 69, 66
2, 86063, Note_on_c, 0, 74, 74
2, 86170, Control_c, 0, 64, 127
2, 86223, Note_on_c, 0, 41, 0
2, 86238, Note_on_c, 0, 48, 0
2, 86245, Note_on_c, 0, 57, 0
2, 86290, Note_on_c, 0, 63, 0
2, 86311, Note_on_c, 0, 69, 0
2, 86320, Note_on_c, 0, 74, 0
2, 86417, Control_c, 0, 64, 0
2, 86418, Note_on_c, 0, 79, 59
2, 86419, Note_on_c, 0, 72, 56
2, 86421, Note_on_c, 0, 62, 33
2, 86424, Note_on_c, 0, 56, 42
2, 86492, Note_on_c, 0, 79, 0
2, 86497, Note_on_c, 0, 76, 37
2, 86501, Note_on_c, 0, 67, 46
2, 86539, Control_c, 0, 64, 127
2, 86593, Note_on_c, 0, 62, 0
2, 86628, Note_on_c, 0, 67, 0
2, 86642, Note_on_c, 0, 56, 0
2, 86642, Note_on_c, 0, 72, 0
2, 86652, Note_on_c, 0, 76, 0
2, 86753, Control_c, 0, 64, 0
2, 86757, Note_on_c, 0, 66, 38
2, 86758, Note_on_c, 0, 77, 47
2, 86758, Note_on_c, 0, 84, 62
2, 86759, Note_on_c, 0, 61, 37
2, 86762, Note_on_c, 0, 55, 36
2, 86808, Control_c, 0, 64, 127
2, 86885, Note_on_c, 0, 55, 0
2, 86894, Note_on_c, 0, 66, 0
2, 86912, Note_on_c, 0, 77, 0
2, 86923, Note_on_c, 0, 61, 0
2, 86931, Note_on_c, 0, 84, 0
2, 86956, Control_c, 0, 64, 0
2, 86960, Note_on_c, 0, 81, 53
2, 86963, Note_on_c, 0, 72, 30
2, 86964, Note_on_c, 0, 61, 32
2, 86965, Note_on_c, 0, 65, 37
2, 86965, Note_on_c, 0, 77, 42
2, 86967, Note_on_c, 0, 55, 35
2, 86985, Control_c, 0, 64, 127
2, 87008, Note_on_c, 0, 55, 0
2, 87016, Note_on_c, 0, 81, 0
2, 87024, Note_on_c, 0, 65, 0
2, 87024, Note_on_c, 0, 77, 0
2, 87042, Note_on_c, 0, 72, 0
2, 87060, Note_on_c, 0, 61, 0
2, 87121, Note_on_c, 0, 54, 34
2, 87122, Note_on_c, 0, 61, 25
2, 87122, Note_on_c, 0, 78, 35
2, 87124, Note_on_c, 0, 64, 33
2, 87124, Note_on_c, 0, 73, 29
2, 87124, Note_on_c, 0, 69, 38
2, 87128, Control_c, 0, 64, 0
2, 87130, Note_on_c, 0, 59, 31
2, 87258, Control_c, 0, 64, 127
2, 87398, Note_on_c, 0, 59, 0
2, 87405, Note_on_c, 0, 54, 0
2, 87411, Note_on_c, 0, 69, 0
2, 87417, Note_on_c, 0, 64, 0
2, 87422, Note_on_c, 0, 61, 0
2, 87451, Note_on_c, 0, 78, 0
2, 87476, Note_on_c, 0, 73, 0
2, 87505, Control_c, 0, 64, 0
2, 87616, Control_c, 0, 64, 127
2, 87679, Control_c, 0, 64, 0
2, 87686, Note_on_c, 0, 83, 57
2, 87687, Note_on_c, 0, 71, 54
2, 87688, Note_on_c, 0, 64, 33
2, 87688, Note_on_c, 0, 57, 30
2, 87696, Note_on_c, 0, 71, 0
2, 87697, Note_on_c, 0, 64, 0
2, 87699, Note_on_c, 0, 57, 0
2, 87704, Note_on_c, 0, 83, 0
2, 87764, Note_on_c, 0, 55, 49
2, 87765, Control_c, 0, 64, 127
2, 87766, Note_on_c, 0, 86, 74
2, 87768, Note_on_c, 0, 74, 40
2, 87772, Note_on_c, 0, 64, 30
2, 87774, Note_on_c, 0, 60, 32
2, 87785, Note_on_c, 0, 60, 0
2, 87790, Note_on_c, 0, 55, 0
2, 87790, Note_on_c, 0, 64, 0
2, 87808, Note_on_c, 0, 74, 0
2, 87814, Note_on_c, 0, 86, 0
2, 87856, Control_c, 0, 64, 0
2, 87858, Note_on_c, 0, 64, 33
2, 87859, Note_on_c, 0, 61, 27
2, 87859, Note_on_c, 0, 88, 48
2, 87860, Note_on_c, 0, 54, 28
2, 87863, Note_on_c, 0, 76, 30
2, 87863, Note_on_c, 0, 59, 32
2, 87964, Control_c, 0, 64, 127
2, 88065, Note_on_c, 0, 76, 0
2, 88084, Note_on_c, 0, 59, 0
2, 88085, Note_on_c, 0, 64, 0
2, 88091, Note_on_c, 0, 54, 0
2, 88092, Note_on_c, 0, 88, 0
2, 88096, Note_on_c, 0, 61, 0
2, 88247, Control_c, 0, 64, 0
2, 88274, Note_on_c, 0, 88, 45
2, 88276, Note_on_c, 0, 100, 40
2, 88276, Note_on_c, 0, 64, 44
2, 88281, Note_on_c, 0, 60, 29
2, 88282, Note_on_c, 0, 57, 29
2, 88284, Note_on_c, 0, 88, 0
2, 88289, Note_on_c, 0, 100, 0
2, 88289, Note_on_c, 0, 64, 0
2, 88290, Note_on_c, 0, 60, 0
2, 88293, Note_on_c, 0, 57, 0
2, 88355, Note_on_c, 0, 100, 58
2, 88356, Note_on_c, 0, 64, 40
2, 88357, Note_on_c, 0, 88, 44
2, 88359, Control_c, 0, 64, 127
2, 88359, Note_on_c, 0, 55, 36
2, 88360, Note_on_c, 0, 57, 29
2, 88361, Note_on_c, 0, 60, 35
2, 88373, Note_on_c, 0, 60, 0
2, 88374, Note_on_c, 0, 55, 0
2, 88376, Note_on_c, 0, 88, 0
2, 88378, Note_on_c, 0, 64, 0
2, 88380, Note_on_c, 0, 57, 0
2, 88381, Note_on_c, 0, 100, 0
2, 88392, Control_c, 0, 64, 0
2, 88438, Control_c, 0, 64, 127
2, 88447, Note_on_c, 0, 55, 39
2, 88447, Note_on_c, 0, 100, 54
2, 88449, Note_on_c, 0, 88, 42
2, 88451, Note_on_c, 0, 57, 30
2, 88453, Note_on_c, 0, 60, 30
2, 88455, Note_on_c, 0, 64, 13
2, 88467, Note_on_c, 0, 60, 0
2, 88470, Note_on_c, 0, 55, 0
2, 88472, Note_on_c, 0, 57, 0
2, 88474, Note_on_c, 0, 64, 0
2, 88482, Note_on_c, 0, 100, 0
2, 88487, Note_on_c, 0, 88, 0
2, 88531, Control_c, 0, 64, 0
2, 88532, Note_on_c, 0, 64, 42
2, 88533, Note_on_c, 0, 98, 47
2, 88533, Note_on_c, 0, 61, 33
2, 88534, Note_on_c, 0, 54, 33
2, 88534, Note_on_c, 0, 86, 51
2, 88534, Note_on_c, 0, 59, 45
2, 88555, Note_on_c, 0, 86, 0
2, 88555, Note_on_c, 0, 98, 0
2, 88561, Note_on_c, 0, 59, 0
2, 88563, Note_on_c, 0, 64, 0
2, 88563, Note_on_c, 0, 54, 0
2, 88571, Note_on_c, 0, 61, 0
2, 88602, Control_c, 0, 64, 127
2, 88606, Note_on_c, 0, 61, 35
2, 88607, Note_on_c, 0, 97, 51
2, 88608, Note_on_c, 0, 54, 35
2, 88609, Note_on_c, 0, 64, 36
2, 88611, Note_on_c, 0, 85, 35
2, 88614, Note_on_c, 0, 59, 39
2, 88641, Note_on_c, 0, 97, 0
2, 88643, Note_on_c, 0, 59, 0
2, 88646, Note_on_c, 0, 85, 0
2, 88650, Note_on_c, 0, 64, 0
2, 88655, Note_on_c, 0, 54, 0
2, 88660, Note_on_c, 0, 61, 0
2, 88688, Control_c, 0, 64, 0
2, 88692, Note_on_c, 0, 61, 34
2, 88693, Note_on_c, 0, 54, 33
2, 88696, Note_on_c, 0, 93, 37
2, 88697, Note_on_c, 0, 64, 30
2, 88699, Note_on_c, 0, 81, 17
2, 88700, Note_on_c, 0, 59, 33
2, 88729, Control_c, 0, 64, 127
2, 88741, Note_on_c, 0, 59, 0
2, 88741, Note_on_c, 0, 93, 0
2, 88742, Note_on_c, 0, 64, 0
2, 88745, Note_on_c, 0, 81, 0
2, 88750, Note_on_c, 0, 54, 0
2, 88750, Note_on_c, 0, 61, 0
2, 88775, Note_on_c, 0, 93, 45
2, 88776, Control_c, 0, 64, 0
2, 88777, Note_on_c, 0, 81, 30
2, 88777, Note_on_c, 0, 61, 26
2, 88777, Note_on_c, 0, 54, 28
2, 88779, Note_on_c, 0, 64, 36
2, 88784, Note_on_c, 0, 59, 33
2, 88807, Control_c, 0, 64, 127
2, 88839, Note_on_c, 0, 54, 0
2, 88856, Note_on_c, 0, 59, 0
2, 88871, Note_on_c, 0, 64, 0
2, 88875, Note_on_c, 0, 61, 0
2, 88881, Note_on_c, 0, 93, 0
2, 88891, Note_on_c, 0, 81, 0
2, 88904, Control_c, 0, 64, 0
2, 88998, Note_on_c, 0, 88, 31
2, 88999, Note_on_c, 0, 64, 20
2, 89000, Note_on_c, 0, 76, 29
2, 89000, Note_on_c, 0, 57, 37
2, 89001, Note_on_c, 0, 60, 37
2, 89003, Note_on_c, 0, 55, 32
2, 89004, Note_on_c, 0, 83, 16
2, 89087, Control_c, 0, 64, 127
2, 89167, Note_on_c, 0, 83, 0
2, 89172, Note_on_c, 0, 88, 0
2, 89194, Note_on_c, 0, 76, 0
2, 89201, Note_on_c, 0, 60, 0
2, 89204, Note_on_c, 0, 55, 0
2, 89208, Note_on_c, 0, 57, 0
2, 89212, Note_on_c, 0, 64, 0
2, 89285, Note_on_c, 0, 76, 28
2, 89286, Note_on_c, 0, 54, 31
2, 89286, Note_on_c, 0, 61, 28
2, 89287, Note_on_c, 0, 66, 25
2, 89292, Control_c, 0, 64, 0
2, 89293, Note_on_c, 0, 64, 24
2, 89294, Note_on_c, 0, 69, 24
2, 89297, Note_on_c, 0, 59, 19
2, 89398, Control_c, 0, 64, 127
2, 89498, Note_on_c, 0, 64, 0
2, 89500, Note_on_c, 0, 59, 0
2, 89504, Note_on_c, 0, 76, 0
2, 89505, Note_on_c, 0, 61, 0
2, 89508, Note_on_c, 0, 69, 0
2, 89528, Note_on_c, 0, 54, 0
2, 89531, Note_on_c, 0, 66, 0
2, 90001, Note_on_c, 0, 54, 37
2, 90009, Control_c, 0, 64, 0
2, 90011, Note_on_c, 0, 44, 33
2, 90104, Control_c, 0, 64, 127
2, 90215, Note_on_c, 0, 44, 0
2, 90310, Note_on_c, 0, 54, 0
2, 90340, Control_c, 0, 64, 0
2, 90439, Note_on_c, 0, 53, 53
2, 90442, Note_on_c, 0, 44, 35
2, 90447, Note_on_c, 0, 53, 0
2, 90455, Note_on_c, 0, 44, 0
2, 90538, Note_on_c, 0, 70, 53
2, 90541, Note_on_c, 0, 63, 44
2, 90542, Note_on_c, 0, 59, 48
2, 90544, Note_on_c, 0, 53, 39
2, 90544, Note_on_c, 0, 67, 36
2, 90550, Note_on_c, 0, 59, 0
2, 90550, Note_on_c, 0, 63, 0
2, 90554, Note_on_c, 0, 67, 0
2, 90554, Note_on_c, 0, 53, 0
2, 90556, Note_on_c, 0, 70, 0
2, 90612, Note_on_c, 0, 70, 53
2, 90617, Note_on_c, 0, 59, 42
2, 90619, Note_on_c, 0, 63, 30
2, 90619, Note_on_c, 0, 53, 36
2, 90660, Note_on_c, 0, 59, 0
2, 90666, Note_on_c, 0, 70, 0
2, 90685, Note_on_c, 0, 53, 0
2, 90686, Note_on_c, 0, 68, 39
2, 90686, Note_on_c, 0, 54, 39
2, 90693, Control_c, 0, 64, 127
2, 90701, Note_on_c, 0, 63, 0
2, 90709, Control_c, 0, 64, 0
2, 90729, Note_on_c, 0, 68, 0
2, 90735, Note_on_c, 0, 70, 46
2, 90736, Note_on_c, 0, 61, 34
2, 90738, Note_on_c, 0, 54, 0
2, 90741, Note_on_c, 0, 65, 48
2, 90742, Note_on_c, 0, 55, 47
2, 90899, Note_on_c, 0, 55, 0
2, 90905, Note_on_c, 0, 65, 0
2, 90911, Note_on_c, 0, 70, 0
2, 90923, Note_on_c, 0, 61, 0
2, 91157, Note_on_c, 0, 58, 51
2, 91158, Note_on_c, 0, 72, 57
2, 91158, Note_on_c, 0, 68, 43
2, 91159, Note_on_c, 0, 64, 51
2, 91168, Note_on_c, 0, 64, 0
2, 91169, Note_on_c, 0, 68, 0
2, 91172, Note_on_c, 0, 58, 0
2, 91173, Note_on_c, 0, 72, 0
2, 91236, Note_on_c, 0, 73, 46
2, 91239, Note_on_c, 0, 68, 57
2, 91239, Note_on_c, 0, 70, 56
2, 91240, Note_on_c, 0, 64, 60
2, 91241, Note_on_c, 0, 63, 63
2, 91288, Note_on_c, 0, 64, 0
2, 91291, Note_on_c, 0, 73, 0
2, 91293, Note_on_c, 0, 63, 0
2, 91294, Note_on_c, 0, 70, 0
2, 91295, Note_on_c, 0, 68, 0
2, 91317, Note_on_c, 0, 63, 61
2, 91317, Note_on_c, 0, 75, 68
2, 91319, Note_on_c, 0, 68, 55
2, 91321, Note_on_c, 0, 70, 53
2, 91322, Note_on_c, 0, 64, 47
2, 91355, Note_on_c, 0, 70, 0
2, 91359, Note_on_c, 0, 68, 0
2, 91365, Note_on_c, 0, 64, 0
2, 91376, Note_on_c, 0, 63, 0
2, 91378, Note_on_c, 0, 75, 0
2, 91399, Note_on_c, 0, 61, 59
2, 91400, Note_on_c, 0, 73, 37
2, 91400, Note_on_c, 0, 70, 51
2, 91400, Note_on_c, 0, 64, 63
2, 91402, Note_on_c, 0, 68, 40
2, 91408, Note_on_c, 0, 70, 0
2, 91410, Note_on_c, 0, 68, 0
2, 91412, Note_on_c, 0, 73, 0
2, 91415, Note_on_c, 0, 64, 0
2, 91416, Note_on_c, 0, 61, 0
2, 91474, Note_on_c, 0, 58, 50
2, 91478, Note_on_c, 0, 59, 33
2, 91479, Note_on_c, 0, 57, 28
2, 91487, Note_on_c, 0, 57, 0
2, 91488, Note_on_c, 0, 59, 0
2, 91493, Note_on_c, 0, 58, 0
2, 91551, Note_on_c, 0, 70, 46
2, 91552, Note_on_c, 0, 63, 42
2, 91554, Note_on_c, 0, 58, 47
2, 91555, Note_on_c, 0, 66, 43
2, 91555, Note_on_c, 0, 59, 38
2, 91602, Control_c, 0, 64, 127
2, 91651, Control_c, 0, 64, 0
2, 91686, Control_c, 0, 64, 127
2, 91720, Note_on_c, 0, 63, 0
2, 91728, Note_on_c, 0, 66, 0
2, 91731, Note_on_c, 0, 59, 0
2, 91741, Note_on_c, 0, 70, 0
2, 91758, Note_on_c, 0, 68, 45
2, 91759, Note_on_c, 0, 58, 0
2, 91760, Note_on_c, 0, 59, 44
2, 91760, Note_on_c, 0, 63, 36
2, 91766, Note_on_c, 0, 66, 27
2, 91785, Note_on_c, 0, 59, 0
2, 91794, Note_on_c, 0, 68, 0
2, 91795, Note_on_c, 0, 66, 0
2, 91799, Note_on_c, 0, 63, 0
2, 91813, Note_on_c, 0, 59, 35
2, 91814, Control_c, 0, 64, 0
2, 91814, Note_on_c, 0, 67, 54
2, 91816, Note_on_c, 0, 62, 42
2, 91816, Note_on_c, 0, 56, 30
2, 91819, Note_on_c, 0, 46, 33
2, 92019, Control_c, 0, 64, 127
2, 92058, Note_on_c, 0, 46, 0
2, 92058, Note_on_c, 0, 59, 0
2, 92063, Note_on_c, 0, 56, 0
2, 92063, Note_on_c, 0, 62, 0
2, 92078, Note_on_c, 0, 67, 0
2, 92163, Note_on_c, 0, 62, 38
2, 92164, Note_on_c, 0, 70, 32
2, 92165, Control_c, 0, 64, 0
2, 92165, Note_on_c, 0, 67, 36
2, 92166, Note_on_c, 0, 58, 30
2, 92171, Note_on_c, 0, 52, 32
2, 92227, Control_c, 0, 64, 127
2, 92272, Note_on_c, 0, 58, 0
2, 92293, Note_on_c, 0, 67, 0
2, 92308, Note_on_c, 0, 70, 0
2, 92316, Note_on_c, 0, 62, 0
2, 92352, Note_on_c, 0, 52, 0
2, 92401, Note_on_c, 0, 69, 85
2, 92402, Note_on_c, 0, 58, 60
2, 92402, Note_on_c, 0, 66, 81
2, 92403, Note_on_c, 0, 62, 77
2, 92405, Control_c, 0, 64, 0
2, 92406, Note_on_c, 0, 55, 62
2, 92407, Note_on_c, 0, 57, 51
2, 92434, Note_on_c, 0, 57, 0
2, 92445, Control_c, 0, 64, 127
2, 92449, Note_on_c, 0, 55, 0
2, 92455, Note_on_c, 0, 58, 0
2, 92458, Note_on_c, 0, 69, 0
2, 92464, Note_on_c, 0, 62, 0
2, 92484, Note_on_c, 0, 66, 0
2, 92513, Control_c, 0, 64, 0
2, 92522, Note_on_c, 0, 61, 70
2, 92522, Note_on_c, 0, 69, 71
2, 92523, Note_on_c, 0, 65, 74
2, 92526, Note_on_c, 0, 45, 53
2, 92528, Note_on_c, 0, 55, 58
2, 92564, Control_c, 0, 64, 127
2, 92659, Note_on_c, 0, 45, 0
2, 92662, Note_on_c, 0, 61, 0
2, 92672, Note_on_c, 0, 69, 0
2, 92673, Note_on_c, 0, 55, 0
2, 92681, Note_on_c, 0, 65, 0
2, 92823, Note_on_c, 0, 79, 70
2, 92847, Note_on_c, 0, 79, 0
2, 92877, Note_on_c, 0, 77, 60
2, 92880, Control_c, 0, 64, 0
2, 92881, Note_on_c, 0, 60, 36
2, 92881, Note_on_c, 0, 65, 39
2, 92886, Note_on_c, 0, 57, 37
2, 92887, Note_on_c, 0, 50, 22
2, 93003, Control_c, 0, 64, 127
2, 93098, Note_on_c, 0, 60, 0
2, 93099, Note_on_c, 0, 57, 0
2, 93110, Note_on_c, 0, 50, 0
2, 93146, Note_on_c, 0, 65, 0
2, 93156, Note_on_c, 0, 77, 0
2, 93245, Note_on_c, 0, 75, 49
2, 93248, Control_c, 0, 64, 0
2, 93248, Note_on_c, 0, 63, 35
2, 93248, Note_on_c, 0, 70, 38
2, 93248, Note_on_c, 0, 53, 36
2, 93250, Note_on_c, 0, 58, 42
2, 93251, Note_on_c, 0, 65, 33
2, 93288, Control_c, 0, 64, 127
2, 93347, Note_on_c, 0, 65, 0
2, 93356, Note_on_c, 0, 70, 0
2, 93358, Note_on_c, 0, 53, 0
2, 93367, Note_on_c, 0, 58, 0
2, 93368, Note_on_c, 0, 63, 0
2, 93368, Note_on_c, 0, 75, 0
2, 93446, Note_on_c, 0, 87, 73
2, 93448, Note_on_c, 0, 82, 62
2, 93450, Note_on_c, 0, 77, 47
2, 93454, Note_on_c, 0, 55, 35
2, 93455, Note_on_c, 0, 60, 45
2, 93457, Control_c, 0, 64, 0
2, 93459, Note_on_c, 0, 65, 15
2, 93482, Control_c, 0, 64, 127
2, 93500, Note_on_c, 0, 55, 0
2, 93504, Note_on_c, 0, 60, 0
2, 93521, Note_on_c, 0, 87, 0
2, 93523, Note_on_c, 0, 65, 0
2, 93524, Note_on_c, 0, 82, 0
2, 93528, Note_on_c, 0, 77, 0
2, 93612, Note_on_c, 0, 86, 64
2, 93615, Note_on_c, 0, 79, 49
2, 93617, Note_on_c, 0, 63, 29
2, 93619, Note_on_c, 0, 67, 36
2, 93619, Note_on_c, 0, 74, 42
2, 93622, Note_on_c, 0, 62, 47
2, 93622, Note_on_c, 0, 58, 29
2, 93623, Control_c, 0, 64, 0
2, 93709, Control_c, 0, 64, 127
2, 93822, Note_on_c, 0, 62, 0
2, 93825, Note_on_c, 0, 86, 0
2, 93833, Note_on_c, 0, 67, 0
2, 93848, Note_on_c, 0, 79, 0
2, 93853, Note_on_c, 0, 63, 0
2, 93859, Note_on_c, 0, 74, 0
2, 93876, Note_on_c, 0, 58, 0
2, 94043, Note_on_c, 0, 66, 55
2, 94045, Note_on_c, 0, 73, 36
2, 94048, Note_on_c, 0, 69, 42
2, 94048, Note_on_c, 0, 64, 51
2, 94049, Note_on_c, 0, 76, 43
2, 94051, Note_on_c, 0, 62, 41
2, 94051, Control_c, 0, 64, 0
2, 94055, Note_on_c, 0, 73, 0
2, 94057, Note_on_c, 0, 64, 0
2, 94057, Note_on_c, 0, 69, 0
2, 94058, Note_on_c, 0, 66, 0
2, 94060, Note_on_c, 0, 76, 0
2, 94060, Note_on_c, 0, 62, 0
2, 94141, Control_c, 0, 64, 127
2, 94203, Control_c, 0, 64, 0
2, 94214, Note_on_c, 0, 66, 38
2, 94214, Note_on_c, 0, 76, 48
2, 94216, Note_on_c, 0, 73, 30
2, 94218, Note_on_c, 0, 64, 34
2, 94219, Note_on_c, 0, 69, 35
2, 94220, Note_on_c, 0, 62, 34
2, 94241, Control_c, 0, 64, 127
2, 94253, Note_on_c, 0, 64, 0
2, 94258, Note_on_c, 0, 62, 0
2, 94274, Note_on_c, 0, 66, 0
2, 94285, Note_on_c, 0, 69, 0
2, 94309, Note_on_c, 0, 73, 0
2, 94312, Note_on_c, 0, 76, 0
2, 94328, Note_on_c, 0, 65, 41
2, 94330, Note_on_c, 0, 69, 37
2, 94330, Note_on_c, 0, 74, 46
2, 94331, Note_on_c, 0, 62, 31
2, 94335, Note_on_c, 0, 55, 29
2, 94335, Note_on_c, 0, 60, 37
2, 94336, Control_c, 0, 64, 0
2, 94395, Control_c, 0, 64, 127
2, 94445, Note_on_c, 0, 65, 0
2, 94446, Note_on_c, 0, 69, 0
2, 94475, Note_on_c, 0, 55, 0
2, 94478, Note_on_c, 0, 60, 0
2, 94490, Note_on_c, 0, 62, 0
2, 94525, Note_on_c, 0, 65, 44
2, 94526, Note_on_c, 0, 69, 48
2, 94531, Note_on_c, 0, 62, 30
2, 94532, Note_on_c, 0, 60, 40
2, 94532, Note_on_c, 0, 55, 41
2, 94534, Control_c, 0, 64, 0
2, 94561, Control_c, 0, 64, 127
2, 94579, Note_on_c, 0, 60, 0
2, 94579, Note_on_c, 0, 62, 0
2, 94603, Note_on_c, 0, 74, 0
2, 94608, Note_on_c, 0, 65, 0
2, 94621, Note_on_c, 0, 55, 0
2, 94640, Note_on_c, 0, 69, 0
2, 94697, Control_c, 0, 64, 0
2, 94767, Note_on_c, 0, 74, 57
2, 94768, Note_on_c, 0, 71, 62
2, 94769, Note_on_c, 0, 67, 47
2, 94770, Note_on_c, 0, 64, 44
2, 94771, Note_on_c, 0, 62, 45
2, 94773, Note_on_c, 0, 60, 38
2, 94778, Note_on_c, 0, 67, 0
2, 94780, Note_on_c, 0, 64, 0
2, 94782, Note_on_c, 0, 74, 0
2, 94783, Note_on_c, 0, 60, 0
2, 94783, Note_on_c, 0, 62, 0
2, 94785, Note_on_c, 0, 71, 0
2, 94847, Control_c, 0, 64, 127
2, 94887, Control_c, 0, 64, 0
2, 94891, Note_on_c, 0, 67, 47
2, 94892, Note_on_c, 0, 62, 44
2, 94892, Note_on_c, 0, 71, 45
2, 94894, Note_on_c, 0, 64, 43
2, 94897, Note_on_c, 0, 55, 41
2, 94899, Note_on_c, 0, 57, 29
2, 94900, Note_on_c, 0, 60, 18
2, 94932, Note_on_c, 0, 60, 0
2, 94936, Control_c, 0, 64, 127
2, 94937, Note_on_c, 0, 57, 0
2, 94948, Note_on_c, 0, 55, 0
2, 94989, Note_on_c, 0, 64, 0
2, 94990, Note_on_c, 0, 62, 0
2, 94999, Note_on_c, 0, 67, 0
2, 95030, Note_on_c, 0, 71, 0
2, 95048, Control_c, 0, 64, 0
2, 95052, Note_on_c, 0, 67, 48
2, 95052, Note_on_c, 0, 44, 35
2, 95052, Note_on_c, 0, 60, 41
2, 95054, Note_on_c, 0, 63, 34
2, 95055, Note_on_c, 0, 51, 29
2, 95057, Note_on_c, 0, 55, 30
2, 95163, Control_c, 0, 64, 127
2, 95278, Note_on_c, 0, 55, 0
2, 95290, Note_on_c, 0, 51, 0
2, 95304, Note_on_c, 0, 44, 0
2, 95329, Note_on_c, 0, 60, 0
2, 95337, Note_on_c, 0, 67, 0
2, 95356, Note_on_c, 0, 63, 0
2, 95384, Control_c, 0, 64, 0
2, 95399, Control_c, 0, 64, 127
2, 95400, Note_on_c, 0, 43, 47
2, 95410, Note_on_c, 0, 43, 0
2, 95483, Note_on_c, 0, 72, 75
2, 95484, Note_on_c, 0, 69, 81
2, 95484, Note_on_c, 0, 65, 83
2, 95488, Note_on_c, 0, 62, 59
2, 95489, Note_on_c, 0, 58, 46
2, 95489, Control_c, 0, 64, 0
2, 95490, Note_on_c, 0, 60, 60
2, 95529, Control_c, 0, 64, 127
2, 95602, Note_on_c, 0, 58, 0
2, 95604, Note_on_c, 0, 60, 0
2, 95606, Note_on_c, 0, 62, 0
2, 95612, Note_on_c, 0, 65, 0
2, 95615, Note_on_c, 0, 72, 0
2, 95616, Note_on_c, 0, 69, 0
2, 95650, Control_c, 0, 64, 0
2, 95654, Note_on_c, 0, 72, 49
2, 95654, Note_on_c, 0, 62, 47
2, 95654, Note_on_c, 0, 65, 57
2, 95657, Note_on_c, 0, 69, 49
2, 95657, Note_on_c, 0, 58, 34
2, 95688, Control_c, 0, 64, 127
2, 95721, Note_on_c, 0, 65, 0
2, 95725, Note_on_c, 0, 69, 0
2, 95725, Note_on_c, 0, 62, 0
2, 95731, Note_on_c, 0, 72, 0
2, 95749, Note_on_c, 0, 58, 0
2, 95770, Note_on_c, 0, 72, 48
2, 95771, Note_on_c, 0, 64, 53
2, 95772, Note_on_c, 0, 69, 55
2, 95775, Note_on_c, 0, 54, 42
2, 95776, Note_on_c, 0, 60, 44
2, 95781, Control_c, 0, 64, 0
2, 95898, Control_c, 0, 64, 127
2, 96027, Note_on_c, 0, 60, 0
2, 96046, Note_on_c, 0, 64, 0
2, 96047, Note_on_c, 0, 54, 0
2, 96085, Note_on_c, 0, 69, 0
2, 96118, Note_on_c, 0, 72, 0
2, 96127, Note_on_c, 0, 68, 38
2, 96128, Note_on_c, 0, 65, 42
2, 96133, Note_on_c, 0, 62, 36
2, 96135, Note_on_c, 0, 56, 31
2, 96135, Note_on_c, 0, 53, 31
2, 96136, Control_c, 0, 64, 0
2, 96138, Note_on_c, 0, 60, 39
2, 96193, Control_c, 0, 64, 127
2, 96217, Note_on_c, 0, 74, 75
2, 96382, Note_on_c, 0, 60, 0
2, 96400, Note_on_c, 0, 56, 0
2, 96409, Note_on_c, 0, 62, 0
2, 96411, Note_on_c, 0, 53, 0
2, 96441, Note_on_c, 0, 65, 0
2, 96443, Note_on_c, 0, 74, 0
2, 96455, Note_on_c, 0, 72, 24
2, 96456, Note_on_c, 0, 68, 0
2, 96470, Note_on_c, 0, 72, 0
2, 96493, Note_on_c, 0, 67, 36
2, 96495, Note_on_c, 0, 62, 33
2, 96497, Note_on_c, 0, 76, 32
2, 96499, Note_on_c, 0, 56, 25
2, 96500, Control_c, 0, 64, 0
2, 96500, Note_on_c, 0, 52, 35
2, 96601, Control_c, 0, 64, 127
2, 96709, Note_on_c, 0, 67, 0
2, 96728, Note_on_c, 0, 52, 0
2, 96730, Note_on_c, 0, 62, 0
2, 96733, Note_on_c, 0, 56, 0
2, 96739, Note_on_c, 0, 76, 0
2, 96845, Note_on_c, 0, 89, 50
2, 96851, Control_c, 0, 64, 0
2, 96851, Note_on_c, 0, 82, 59
2, 96852, Note_on_c, 0, 54, 39
2, 96853, Note_on_c, 0, 61, 38
2, 96853, Note_on_c, 0, 65, 51
2, 96854, Note_on_c, 0, 58, 40
2, 96856, Note_on_c, 0, 77, 44
2, 96908, Control_c, 0, 64, 127
2, 97095, Note_on_c, 0, 65, 0
2, 97096, Note_on_c, 0, 89, 0
2, 97103, Note_on_c, 0, 61, 0
2, 97103, Note_on_c, 0, 58, 0
2, 97110, Note_on_c, 0, 82, 0
2, 97115, Note_on_c, 0, 77, 0
2, 97117, Note_on_c, 0, 54, 0
2, 97207, Note_on_c, 0, 79, 59
2, 97213, Note_on_c, 0, 72, 56
2, 97215, Control_c, 0, 64, 0
2, 97216, Note_on_c, 0, 68, 37
2, 97218, Note_on_c, 0, 56, 31
2, 97219, Note_on_c, 0, 50, 36
2, 97220, Note_on_c, 0, 60, 40
2, 97307, Control_c, 0, 64, 127
2, 97386, Note_on_c, 0, 79, 0
2, 97404, Note_on_c, 0, 77, 51
2, 97464, Note_on_c, 0, 50, 0
2, 97469, Note_on_c, 0, 56, 0
2, 97469, Note_on_c, 0, 77, 0
2, 97473, Note_on_c, 0, 72, 0
2, 97473, Note_on_c, 0, 60, 0
2, 97487, Note_on_c, 0, 68, 0
2, 97564, Note_on_c, 0, 74, 44
2, 97564, Note_on_c, 0, 71, 40
2, 97565, Note_on_c, 0, 65, 36
2, 97565, Note_on_c, 0, 68, 29
2, 97570, Control_c, 0, 64, 0
2, 97570, Note_on_c, 0, 59, 27
2, 97572, Note_on_c, 0, 64, 26
2, 97572, Note_on_c, 0, 53, 22
2, 97630, Control_c, 0, 64, 127
2, 97694, Note_on_c, 0, 71, 0
2, 97700, Note_on_c, 0, 64, 0
2, 97712, Note_on_c, 0, 59, 0
2, 97717, Note_on_c, 0, 68, 0
2, 97717, Note_on_c, 0, 74, 0
2, 97722, Note_on_c, 0, 65, 0
2, 97754, Note_on_c, 0, 53, 0
2, 97806, Note_on_c, 0, 65, 40
2, 97810, Note_on_c, 0, 68, 27
2, 97838, Note_on_c, 0, 65, 0
2, 97843, Note_on_c, 0, 68, 0
2, 97928, Note_on_c, 0, 67, 40
2, 97931, Note_on_c, 0, 63, 32
2, 97932, Note_on_c, 0, 62, 27
2, 97934, Control_c, 0, 64, 0
2, 97936, Note_on_c, 0, 48, 33
2, 97939, Note_on_c, 0, 55, 34
2, 98040, Control_c, 0, 64, 127
2, 98087, Note_on_c, 0, 62, 0
2, 98230, Note_on_c, 0, 63, 0
2, 98231, Note_on_c, 0, 67, 0
2, 98232, Note_on_c, 0, 55, 0
2, 98251, Note_on_c, 0, 48, 0
2, 98371, Note_on_c, 0, 48, 29
2, 98373, Note_on_c, 0, 72, 51
2, 98373, Note_on_c, 0, 65, 55
2, 98375, Note_on_c, 0, 56, 33
2, 98380, Control_c, 0, 64, 0
2, 98380, Note_on_c, 0, 60, 35
2, 98408, Control_c, 0, 64, 127
2, 98414, Note_on_c, 0, 65, 0
2, 98417, Note_on_c, 0, 72, 0
2, 98453, Note_on_c, 0, 79, 74
2, 98483, Note_on_c, 0, 60, 0
2, 98503, Note_on_c, 0, 56, 0
2, 98509, Note_on_c, 0, 79, 0
2, 98534, Control_c, 0, 64, 0
2, 98538, Note_on_c, 0, 79, 77
2, 98540, Note_on_c, 0, 56, 30
2, 98546, Note_on_c, 0, 60, 26
2, 98554, Control_c, 0, 64, 127
2, 98581, Note_on_c, 0, 48, 0
2, 98586, Note_on_c, 0, 79, 0
2, 98602, Note_on_c, 0, 60, 0
2, 98613, Note_on_c, 0, 48, 37
2, 98630, Note_on_c, 0, 56, 0
2, 98645, Note_on_c, 0, 48, 0
2, 98662, Note_on_c, 0, 48, 29
2, 98664, Control_c, 0, 64, 0
2, 98668, Note_on_c, 0, 55, 39
2, 98668, Note_on_c, 0, 77, 61
2, 98675, Note_on_c, 0, 60, 26
2, 98676, Note_on_c, 0, 70, 36
2, 98696, Note_on_c, 0, 70, 0
2, 98699, Control_c, 0, 64, 127
2, 98705, Note_on_c, 0, 77, 0
2, 98725, Note_on_c, 0, 60, 0
2, 98744, Note_on_c, 0, 74, 58
2, 98755, Control_c, 0, 64, 0
2, 98774, Control_c, 0, 64, 127
2, 98793, Note_on_c, 0, 55, 0
2, 98821, Note_on_c, 0, 63, 34
2, 98823, Note_on_c, 0, 67, 43
2, 98829, Control_c, 0, 64, 0
2, 98830, Note_on_c, 0, 55, 19
2, 98831, Note_on_c, 0, 60, 24
2, 98851, Note_on_c, 0, 63, 0
2, 98864, Note_on_c, 0, 60, 0
2, 98865, Note_on_c, 0, 67, 0
2, 98869, Note_on_c, 0, 55, 0
2, 98869, Control_c, 0, 64, 127
2, 98891, Note_on_c, 0, 63, 30
2, 98894, Note_on_c, 0, 67, 38
2, 98898, Note_on_c, 0, 60, 24
2, 98899, Note_on_c, 0, 55, 32
2, 98942, Note_on_c, 0, 48, 0
2, 98955, Note_on_c, 0, 67, 0
2, 98958, Note_on_c, 0, 74, 0
2, 98965, Note_on_c, 0, 63, 0
2, 98991, Note_on_c, 0, 55, 0
2, 98991, Note_on_c, 0, 60, 0
2, 99076, Note_on_c, 0, 68, 43
2, 99077, Note_on_c, 0, 65, 44
2, 99077, Note_on_c, 0, 60, 41
2, 99078, Note_on_c, 0, 56, 35
2, 99079, Control_c, 0, 64, 0
2, 99081, Note_on_c, 0, 48, 24
2, 99086, Note_on_c, 0, 60, 0
2, 99086, Note_on_c, 0, 68, 0
2, 99086, Note_on_c, 0, 65, 0
2, 99088, Note_on_c, 0, 56, 0
2, 99090, Note_on_c, 0, 48, 0
2, 99162, Note_on_c, 0, 68, 37
2, 99163, Note_on_c, 0, 65, 45
2, 99164, Note_on_c, 0, 56, 32
2, 99164, Note_on_c, 0, 60, 34
2, 99167, Note_on_c, 0, 48, 24
2, 99173, Note_on_c, 0, 65, 0
2, 99174, Note_on_c, 0, 60, 0
2, 99177, Note_on_c, 0, 48, 0
2, 99179, Note_on_c, 0, 56, 0
2, 99179, Note_on_c, 0, 68, 0
2, 99242, Control_c, 0, 64, 127
2, 99243, Note_on_c, 0, 56, 37
2, 99244, Note_on_c, 0, 68, 32
2, 99245, Note_on_c, 0, 48, 37
2, 99245, Note_on_c, 0, 60, 34
2, 99245, Note_on_c, 0, 65, 38
2, 99285, Note_on_c, 0, 60, 0
2, 99296, Note_on_c, 0, 65, 0
2, 99302, Note_on_c, 0, 48, 0
2, 99319, Note_on_c, 0, 68, 0
2, 99332, Note_on_c, 0, 56, 0
2, 99363, Note_on_c, 0, 62, 36
2, 99366, Note_on_c, 0, 67, 45
2, 99366, Note_on_c, 0, 48, 32
2, 99366, Note_on_c, 0, 63, 32
2, 99368, Control_c, 0, 64, 0
2, 99369, Note_on_c, 0, 55, 40
2, 99485, Control_c, 0, 64, 127
2, 99660, Note_on_c, 0, 62, 0
2, 99664, Note_on_c, 0, 55, 0
2, 99672, Note_on_c, 0, 63, 0
2, 99677, Note_on_c, 0, 48, 0
2, 99684, Note_on_c, 0, 67, 0
2, 99730, Control_c, 0, 64, 0
2, 99761, Control_c, 0, 64, 127
2, 99792, Control_c, 0, 64, 0
2, 99809, Note_on_c, 0, 72, 49
2, 99809, Note_on_c, 0, 48, 47
2, 99810, Note_on_c, 0, 67, 59
2, 99810, Note_on_c, 0, 56, 34
2, 99812, Note_on_c, 0, 68, 29
2, 99813, Note_on_c, 0, 60, 26
2, 99818, Note_on_c, 0, 67, 0
2, 99819, Note_on_c, 0, 48, 0
2, 99821, Note_on_c, 0, 68, 0
2, 99821, Note_on_c, 0, 60, 0
2, 99822, Note_on_c, 0, 56, 0
2, 99826, Note_on_c, 0, 72, 0
2, 99891, Note_on_c, 0, 79, 74
2, 99893, Note_on_c, 0, 72, 63
2, 99894, Note_on_c, 0, 68, 53
2, 99895, Note_on_c, 0, 48, 57
2, 99896, Note_on_c, 0, 56, 39
2, 99898, Note_on_c, 0, 60, 52
2, 99933, Control_c, 0, 64, 127
2, 99940, Control_c, 0, 64, 0
2, 99942, Note_on_c, 0, 60, 0
2, 99953, Note_on_c, 0, 79, 0
2, 99967, Note_on_c, 0, 77, 68
2, 99970, Note_on_c, 0, 60, 54
2, 99970, Control_c, 0, 64, 127
2, 99978, Note_on_c, 0, 75, 23
2, 99985, Note_on_c, 0, 75, 0
2, 100006, Note_on_c, 0, 72, 0
2, 100012, Note_on_c, 0, 77, 0
2, 100025, Note_on_c, 0, 68, 0
2, 100046, Note_on_c, 0, 60, 0
2, 100046, Note_on_c, 0, 48, 0
2, 100063, Note_on_c, 0, 56, 0
2, 100092, Control_c, 0, 64, 0
2, 100092, Note_on_c, 0, 75, 36
2, 100092, Note_on_c, 0, 67, 47
2, 100094, Note_on_c, 0, 70, 39
2, 100096, Note_on_c, 0, 48, 35
2, 100097, Note_on_c, 0, 55, 41
2, 100101, Note_on_c, 0, 60, 30
2, 100173, Control_c, 0, 64, 127
2, 100267, Note_on_c, 0, 60, 0
2, 100281, Note_on_c, 0, 55, 0
2, 100303, Note_on_c, 0, 48, 0
2, 100309, Note_on_c, 0, 67, 0
2, 100319, Note_on_c, 0, 75, 0
2, 100320, Note_on_c, 0, 70, 0
2, 100437, Note_on_c, 0, 74, 57
2, 100438, Note_on_c, 0, 67, 50
2, 100444, Note_on_c, 0, 57, 51
2, 100446, Note_on_c, 0, 47, 36
2, 100456, Control_c, 0, 64, 0
2, 100557, Control_c, 0, 64, 127
2, 100645, Note_on_c, 0, 47, 0
2, 100660, Note_on_c, 0, 57, 0
2, 100662, Note_on_c, 0, 67, 0
2, 100663, Note_on_c, 0, 74, 0
2, 100678, Control_c, 0, 64, 0
2, 100683, Note_on_c, 0, 71, 62
2, 100683, Note_on_c, 0, 67, 60
2, 100684, Note_on_c, 0, 62, 63
2, 100685, Note_on_c, 0, 57, 55
2, 100687, Note_on_c, 0, 47, 34
2, 100692, Note_on_c, 0, 62, 0
2, 100695, Note_on_c, 0, 67, 0
2, 100697, Note_on_c, 0, 47, 0
2, 100697, Note_on_c, 0, 57, 0
2, 100702, Note_on_c, 0, 71, 0
2, 101013, Note_on_c, 0, 76, 89
2, 101016, Note_on_c, 0, 65, 47
2, 101017, Note_on_c, 0, 62, 48
2, 101019, Note_on_c, 0, 60, 48
2, 101084, Note_on_c, 0, 62, 0
2, 101126, Note_on_c, 0, 60, 0
2, 101131, Note_on_c, 0, 65, 0
2, 101171, Note_on_c, 0, 55, 66
2, 101172, Note_on_c, 0, 77, 70
2, 101176, Note_on_c, 0, 76, 0
2, 101177, Note_on_c, 0, 65, 32
2, 101177, Note_on_c, 0, 61, 40
2, 101267, Control_c, 0, 64, 127
2, 101393, Note_on_c, 0, 65, 0
2, 101400, Note_on_c, 0, 55, 0
2, 101403, Note_on_c, 0, 77, 0
2, 101411, Note_on_c, 0, 61, 0
2, 101521, Note_on_c, 0, 88, 78
2, 101530, Control_c, 0, 64, 0
2, 101530, Note_on_c, 0, 84, 64
2, 101533, Note_on_c, 0, 64, 27
2, 101535, Note_on_c, 0, 53, 19
2, 101538, Note_on_c, 0, 57, 32
2, 101538, Note_on_c, 0, 60, 37
2, 101542, Note_on_c, 0, 81, 61
2, 101551, Note_on_c, 0, 76, 61
2, 101596, Control_c, 0, 64, 127
2, 101642, Note_on_c, 0, 76, 0
2, 101650, Note_on_c, 0, 81, 0
2, 101651, Note_on_c, 0, 84, 0
2, 101654, Note_on_c, 0, 88, 0
2, 101724, Note_on_c, 0, 91, 70
2, 101730, Note_on_c, 0, 88, 71
2, 101736, Note_on_c, 0, 60, 0
2, 101738, Note_on_c, 0, 84, 58
2, 101741, Note_on_c, 0, 64, 0
2, 101742, Note_on_c, 0, 79, 49
2, 101744, Note_on_c, 0, 53, 0
2, 101744, Note_on_c, 0, 57, 0
2, 101764, Note_on_c, 0, 88, 0
2, 101769, Note_on_c, 0, 84, 0
2, 101770, Note_on_c, 0, 91, 0
2, 101782, Note_on_c, 0, 79, 0
2, 101803, Note_on_c, 0, 89, 62
2, 101811, Note_on_c, 0, 86, 55
2, 101814, Note_on_c, 0, 84, 67
2, 101826, Note_on_c, 0, 77, 34
2, 101835, Note_on_c, 0, 89, 0
2, 101838, Note_on_c, 0, 86, 0
2, 101839, Note_on_c, 0, 84, 0
2, 101854, Note_on_c, 0, 77, 0
2, 101889, Note_on_c, 0, 86, 63
2, 101891, Note_on_c, 0, 54, 39
2, 101894, Note_on_c, 0, 82, 53
2, 101898, Control_c, 0, 64, 0
2, 101899, Note_on_c, 0, 65, 22
2, 101900, Note_on_c, 0, 74, 49
2, 101901, Note_on_c, 0, 60, 40
2, 101962, Control_c, 0, 64, 127
2, 102073, Note_on_c, 0, 86, 0
2, 102089, Note_on_c, 0, 82, 0
2, 102101, Note_on_c, 0, 60, 0
2, 102102, Note_on_c, 0, 65, 0
2, 102103, Note_on_c, 0, 74, 0
2, 102151, Note_on_c, 0, 54, 0
2, 102181, Note_on_c, 0, 72, 50
2, 102202, Note_on_c, 0, 71, 47
2, 102218, Note_on_c, 0, 72, 0
2, 102219, Note_on_c, 0, 70, 56
2, 102227, Note_on_c, 0, 71, 0
2, 102236, Note_on_c, 0, 53, 14
2, 102238, Note_on_c, 0, 58, 32
2, 102242, Note_on_c, 0, 62, 34
2, 102243, Note_on_c, 0, 57, 19
2, 102245, Note_on_c, 0, 70, 0
2, 102245, Control_c, 0, 64, 0
2, 102251, Note_on_c, 0, 69, 46
2, 102335, Note_on_c, 0, 69, 0
2, 102351, Control_c, 0, 64, 127
2, 102363, Note_on_c, 0, 62, 0
2, 102437, Note_on_c, 0, 62, 46
2, 102513, Note_on_c, 0, 57, 0
2, 102515, Note_on_c, 0, 58, 0
2, 102533, Note_on_c, 0, 53, 0
2, 102667, Note_on_c, 0, 62, 0
2, 102681, Note_on_c, 0, 61, 67
2, 102684, Note_on_c, 0, 49, 50
2, 102697, Control_c, 0, 64, 0
2, 102711, Note_on_c, 0, 61, 0
2, 102726, Note_on_c, 0, 49, 0
2, 102730, Note_on_c, 0, 62, 66
2, 102761, Note_on_c, 0, 62, 0
2, 102805, Note_on_c, 0, 65, 60
2, 102820, Note_on_c, 0, 65, 0
2, 102823, Control_c, 0, 64, 127
2, 102832, Control_c, 0, 64, 0
2, 102877, Note_on_c, 0, 72, 60
2, 102878, Note_on_c, 0, 65, 74
2, 102878, Note_on_c, 0, 62, 60
2, 102882, Note_on_c, 0, 56, 37
2, 102892, Note_on_c, 0, 65, 0
2, 102898, Note_on_c, 0, 72, 0
2, 102898, Note_on_c, 0, 62, 0
2, 102902, Note_on_c, 0, 56, 0
2, 102946, Control_c, 0, 64, 127
2, 102952, Note_on_c, 0, 72, 66
2, 102952, Note_on_c, 0, 62, 60
2, 102954, Note_on_c, 0, 65, 64
2, 102955, Note_on_c, 0, 56, 38
2, 102964, Note_on_c, 0, 56, 0
2, 102966, Note_on_c, 0, 62, 0
2, 102968, Note_on_c, 0, 65, 0
2, 102984, Note_on_c, 0, 72, 0
2, 103017, Control_c, 0, 64, 0
2, 103018, Note_on_c, 0, 64, 51
2, 103021, Note_on_c, 0, 71, 52
2, 103021, Note_on_c, 0, 67, 55
2, 103022, Note_on_c, 0, 60, 47
2, 103024, Note_on_c, 0, 59, 32
2, 103066, Control_c, 0, 64, 127
2, 103108, Note_on_c, 0, 64, 0
2, 103109, Note_on_c, 0, 59, 0
2, 103115, Note_on_c, 0, 60, 0
2, 103122, Note_on_c, 0, 67, 0
2, 103133, Note_on_c, 0, 71, 0
2, 103191, Note_on_c, 0, 79, 71
2, 103192, Note_on_c, 0, 74, 70
2, 103192, Note_on_c, 0, 86, 83
2, 103194, Note_on_c, 0, 83, 64
2, 103198, Note_on_c, 0, 64, 57
2, 103198, Note_on_c, 0, 59, 57
2, 103200, Note_on_c, 0, 60, 66
2, 103200, Control_c, 0, 64, 0
2, 103203, Note_on_c, 0, 57, 41
2, 103223, Note_on_c, 0, 57, 0
2, 103223, Note_on_c, 0, 64, 0
2, 103227, Note_on_c, 0, 59, 0
2, 103228, Note_on_c, 0, 60, 0
2, 103231, Note_on_c, 0, 83, 0
2, 103232, Note_on_c, 0, 74, 0
2, 103235, Note_on_c, 0, 79, 0
2, 103236, Note_on_c, 0, 86, 0
2, 103275, Note_on_c, 0, 84, 73
2, 103275, Note_on_c, 0, 64, 64
2, 103276, Note_on_c, 0, 72, 74
2, 103277, Note_on_c, 0, 79, 57
2, 103279, Note_on_c, 0, 81, 44
2, 103279, Note_on_c, 0, 57, 46
2, 103280, Note_on_c, 0, 60, 52
2, 103285, Note_on_c, 0, 79, 0
2, 103287, Note_on_c, 0, 81, 0
2, 103288, Note_on_c, 0, 60, 0
2, 103289, Note_on_c, 0, 64, 0
2, 103291, Note_on_c, 0, 84, 0
2, 103291, Note_on_c, 0, 72, 0
2, 103295, Note_on_c, 0, 57, 0
2, 103372, Control_c, 0, 64, 127
2, 103396, Control_c, 0, 64, 0
2, 103414, Control_c, 0, 64, 127
2, 103518, Note_on_c, 0, 81, 71
2, 103519, Note_on_c, 0, 61, 67
2, 103519, Note_on_c, 0, 69, 80
2, 103520, Note_on_c, 0, 66, 74
2, 103521, Note_on_c, 0, 73, 37
2, 103522, Note_on_c, 0, 77, 64
2, 103522, Note_on_c, 0, 55, 74
2, 103522, Control_c, 0, 64, 0
2, 103526, Note_on_c, 0, 80, 33
2, 103527, Note_on_c, 0, 74, 50
2, 103535, Note_on_c, 0, 74, 0
2, 103539, Note_on_c, 0, 80, 0
2, 103555, Control_c, 0, 64, 127
2, 103566, Note_on_c, 0, 55, 0
2, 103566, Note_on_c, 0, 69, 0
2, 103568, Note_on_c, 0, 73, 0
2, 103570, Note_on_c, 0, 66, 0
2, 103575, Note_on_c, 0, 81, 0
2, 103577, Note_on_c, 0, 77, 0
2, 103578, Note_on_c, 0, 61, 0
2, 103599, Note_on_c, 0, 61, 48
2, 103600, Note_on_c, 0, 66, 69
2, 103601, Note_on_c, 0, 81, 53
2, 103601, Note_on_c, 0, 55, 74
2, 103602, Note_on_c, 0, 77, 58
2, 103603, Note_on_c, 0, 73, 51
2, 103604, Note_on_c, 0, 69, 71
2, 103610, Note_on_c, 0, 79, 27
2, 103652, Note_on_c, 0, 81, 0
2, 103653, Note_on_c, 0, 77, 0
2, 103658, Note_on_c, 0, 66, 0
2, 103660, Note_on_c, 0, 79, 0
2, 103662, Note_on_c, 0, 69, 0
2, 103663, Note_on_c, 0, 55, 0
2, 103666, Note_on_c, 0, 73, 0
2, 103672, Note_on_c, 0, 61, 0
2, 103691, Note_on_c, 0, 79, 72
2, 103691, Note_on_c, 0, 69, 80
2, 103692, Note_on_c, 0, 76, 64
2, 103692, Note_on_c, 0, 62, 41
2, 103693, Note_on_c, 0, 72, 64
2, 103694, Control_c, 0, 64, 0
2, 103695, Note_on_c, 0, 64, 67
2, 103702, Note_on_c, 0, 62, 0
2, 103734, Control_c, 0, 64, 127
2, 103773, Note_on_c, 0, 76, 0
2, 103783, Note_on_c, 0, 79, 0
2, 103788, Note_on_c, 0, 72, 0
2, 103798, Note_on_c, 0, 69, 0
2, 103817, Note_on_c, 0, 77, 61
2, 103817, Note_on_c, 0, 69, 55
2, 103818, Note_on_c, 0, 64, 0
2, 103820, Note_on_c, 0, 72, 59
2, 103822, Note_on_c, 0, 62, 53
2, 103822, Control_c, 0, 64, 0
2, 103842, Control_c, 0, 64, 127
2, 103844, Note_on_c, 0, 72, 0
2, 103851, Note_on_c, 0, 77, 0
2, 103855, Note_on_c, 0, 69, 0
2, 103871, Note_on_c, 0, 62, 0
2, 103894, Note_on_c, 0, 57, 55
2, 103897, Note_on_c, 0, 69, 59
2, 103897, Note_on_c, 0, 65, 42
2, 103940, Note_on_c, 0, 65, 0
2, 103944, Note_on_c, 0, 69, 0
2, 103944, Control_c, 0, 64, 0
2, 103968, Note_on_c, 0, 57, 0
2, 103973, Note_on_c, 0, 74, 74
2, 103973, Note_on_c, 0, 62, 68
2, 103975, Note_on_c, 0, 69, 74
2, 103976, Note_on_c, 0, 65, 68
2, 103979, Control_c, 0, 64, 127
2, 104004, Note_on_c, 0, 69, 0
2, 104010, Note_on_c, 0, 62, 0
2, 104013, Note_on_c, 0, 74, 0
2, 104017, Note_on_c, 0, 65, 0
2, 104057, Note_on_c, 0, 71, 62
2, 104058, Note_on_c, 0, 62, 66
2, 104060, Note_on_c, 0, 64, 62
2, 104061, Note_on_c, 0, 67, 63
2, 104063, Control_c, 0, 64, 0
2, 104066, Note_on_c, 0, 59, 42
2, 104067, Note_on_c, 0, 52, 34
2, 104116, Control_c, 0, 64, 127
2, 104196, Note_on_c, 0, 59, 0
2, 104200, Note_on_c, 0, 67, 0
2, 104204, Note_on_c, 0, 64, 0
2, 104206, Note_on_c, 0, 62, 0
2, 104206, Note_on_c, 0, 52, 0
2, 104242, Note_on_c, 0, 71, 0
2, 104403, Control_c, 0, 64, 0
2, 104405, Note_on_c, 0, 54, 38
2, 104406, Note_on_c, 0, 66, 43
2, 104408, Note_on_c, 0, 63, 35
2, 104410, Note_on_c, 0, 60, 45
2, 104411, Note_on_c, 0, 57, 33
2, 104414, Note_on_c, 0, 51, 33
2, 104436, Control_c, 0, 64, 127
2, 104439, Note_on_c, 0, 60, 0
2, 104448, Note_on_c, 0, 63, 0
2, 104448, Note_on_c, 0, 66, 0
2, 104455, Note_on_c, 0, 57, 0
2, 104530, Note_on_c, 0, 54, 0
2, 104533, Note_on_c, 0, 72, 84
2, 104533, Note_on_c, 0, 66, 83
2, 104533, Note_on_c, 0, 63, 83
2, 104536, Note_on_c, 0, 69, 68
2, 104537, Note_on_c, 0, 60, 80
2, 104539, Note_on_c, 0, 64, 73
2, 104539, Control_c, 0, 64, 0
2, 104546, Note_on_c, 0, 64, 0
2, 104579, Control_c, 0, 64, 127
2, 104605, Note_on_c, 0, 60, 0
2, 104612, Note_on_c, 0, 63, 0
2, 104622, Note_on_c, 0, 69, 0
2, 104630, Note_on_c, 0, 66, 0
2, 104637, Note_on_c, 0, 72, 0
2, 104655, Note_on_c, 0, 71, 73
2, 104655, Note_on_c, 0, 66, 75
2, 104657, Note_on_c, 0, 63, 69
2, 104659, Control_c, 0, 64, 0
2, 104659, Note_on_c, 0, 59, 56
2, 104679, Note_on_c, 0, 51, 0
2, 104682, Note_on_c, 0, 59, 0
2, 104683, Control_c, 0, 64, 127
2, 104692, Note_on_c, 0, 71, 0
2, 104699, Note_on_c, 0, 63, 0
2, 104717, Note_on_c, 0, 66, 0
2, 104773, Control_c, 0, 64, 0
2, 104775, Note_on_c, 0, 69, 60
2, 104775, Note_on_c, 0, 60, 53
2, 104777, Note_on_c, 0, 64, 51
2, 104777, Note_on_c, 0, 67, 53
2, 104779, Note_on_c, 0, 52, 44
2, 104820, Control_c, 0, 64, 127
2, 104880, Note_on_c, 0, 67, 0
2, 104882, Note_on_c, 0, 69, 0
2, 104895, Note_on_c, 0, 52, 0
2, 104897, Note_on_c, 0, 64, 0
2, 104897, Note_on_c, 0, 60, 0
2, 104967, Control_c, 0, 64, 0
2, 104970, Note_on_c, 0, 67, 54
2, 104971, Note_on_c, 0, 59, 52
2, 104971, Note_on_c, 0, 62, 55
2, 104972, Note_on_c, 0, 52, 50
2, 104976, Note_on_c, 0, 64, 51
2, 104993, Note_on_c, 0, 59, 0
2, 105003, Control_c, 0, 64, 127
2, 105005, Note_on_c, 0, 52, 0
2, 105009, Note_on_c, 0, 62, 0
2, 105014, Note_on_c, 0, 64, 0
2, 105027, Note_on_c, 0, 67, 0
2, 105119, Note_on_c, 0, 88, 81
2, 105126, Note_on_c, 0, 84, 71
2, 105126, Control_c, 0, 64, 0
2, 105127, Note_on_c, 0, 53, 42
2, 105130, Note_on_c, 0, 57, 50
2, 105130, Note_on_c, 0, 64, 43
2, 105131, Note_on_c, 0, 81, 56
2, 105132, Note_on_c, 0, 60, 37
2, 105138, Note_on_c, 0, 76, 47
2, 105168, Control_c, 0, 64, 127
2, 105191, Note_on_c, 0, 60, 0
2, 105196, Note_on_c, 0, 64, 0
2, 105203, Note_on_c, 0, 57, 0
2, 105203, Note_on_c, 0, 53, 0
2, 105207, Note_on_c, 0, 76, 0
2, 105213, Note_on_c, 0, 81, 0
2, 105215, Note_on_c, 0, 84, 0
2, 105224, Note_on_c, 0, 88, 0
2, 105312, Note_on_c, 0, 89, 78
2, 105318, Control_c, 0, 64, 0
2, 105319, Note_on_c, 0, 86, 70
2, 105321, Note_on_c, 0, 53, 44
2, 105321, Note_on_c, 0, 57, 55
2, 105322, Note_on_c, 0, 64, 53
2, 105322, Note_on_c, 0, 60, 48
2, 105322, Note_on_c, 0, 77, 62
2, 105322, Note_on_c, 0, 83, 53
2, 105347, Control_c, 0, 64, 127
2, 105351, Note_on_c, 0, 86, 0
2, 105356, Note_on_c, 0, 60, 0
2, 105357, Note_on_c, 0, 64, 0
2, 105359, Note_on_c, 0, 83, 0
2, 105359, Note_on_c, 0, 89, 0
2, 105362, Note_on_c, 0, 57, 0
2, 105368, Note_on_c, 0, 53, 0
2, 105374, Note_on_c, 0, 77, 0
2, 105391, Note_on_c, 0, 88, 47
2, 105400, Note_on_c, 0, 83, 57
2, 105402, Note_on_c, 0, 84, 60
2, 105404, Note_on_c, 0, 53, 51
2, 105407, Note_on_c, 0, 64, 49
2, 105407, Note_on_c, 0, 76, 55
2, 105408, Note_on_c, 0, 57, 46
2, 105408, Note_on_c, 0, 60, 46
2, 105416, Note_on_c, 0, 53, 0
2, 105417, Note_on_c, 0, 57, 0
2, 105419, Note_on_c, 0, 60, 0
2, 105420, Note_on_c, 0, 64, 0
2, 105425, Note_on_c, 0, 88, 0
2, 105427, Note_on_c, 0, 84, 0
2, 105429, Note_on_c, 0, 83, 0
2, 105443, Note_on_c, 0, 76, 0
2, 105485, Note_on_c, 0, 86, 66
2, 105491, Control_c, 0, 64, 0
2, 105491, Note_on_c, 0, 83, 54
2, 105494, Note_on_c, 0, 57, 36
2, 105495, Note_on_c, 0, 79, 49
2, 105496, Note_on_c, 0, 62, 31
2, 105496, Note_on_c, 0, 63, 42
2, 105498, Note_on_c, 0, 67, 50
2, 105500, Note_on_c, 0, 74, 40
2, 105548, Control_c, 0, 64, 127
2, 105631, Note_on_c, 0, 74, 0
2, 105643, Note_on_c, 0, 79, 0
2, 105657, Note_on_c, 0, 83, 0
2, 105664, Note_on_c, 0, 86, 0
2, 105711, Note_on_c, 0, 67, 0
2, 105713, Note_on_c, 0, 62, 0
2, 105720, Note_on_c, 0, 86, 61
2, 105722, Note_on_c, 0, 63, 0
2, 105725, Note_on_c, 0, 57, 0
2, 105745, Note_on_c, 0, 86, 0
2, 105763, Note_on_c, 0, 88, 64
2, 105784, Note_on_c, 0, 88, 0
2, 105793, Control_c, 0, 64, 0
2, 105803, Note_on_c, 0, 91, 85
2, 105836, Note_on_c, 0, 91, 0
2, 105845, Note_on_c, 0, 56, 31
2, 105846, Note_on_c, 0, 67, 24
2, 105848, Note_on_c, 0, 84, 69
2, 105852, Note_on_c, 0, 62, 39
2, 105924, Note_on_c, 0, 84, 0
2, 105966, Note_on_c, 0, 81, 39
2, 105985, Note_on_c, 0, 81, 0
2, 106002, Note_on_c, 0, 83, 49
2, 106026, Note_on_c, 0, 83, 0
2, 106041, Note_on_c, 0, 84, 82
2, 106072, Note_on_c, 0, 62, 0
2, 106076, Note_on_c, 0, 84, 0
2, 106077, Note_on_c, 0, 67, 0
2, 106100, Note_on_c, 0, 79, 29
2, 106131, Note_on_c, 0, 56, 0
2, 106147, Note_on_c, 0, 79, 0
2, 106280, Note_on_c, 0, 61, 30
2, 106282, Note_on_c, 0, 55, 36
2, 106283, Note_on_c, 0, 60, 35
2, 106283, Note_on_c, 0, 65, 31
2, 106325, Note_on_c, 0, 81, 53
2, 106343, Note_on_c, 0, 81, 0
2, 106368, Note_on_c, 0, 82, 55
2, 106388, Note_on_c, 0, 82, 0
2, 106404, Note_on_c, 0, 84, 83
2, 106431, Note_on_c, 0, 84, 0
2, 106447, Note_on_c, 0, 81, 54
2, 106459, Note_on_c, 0, 60, 0
2, 106460, Note_on_c, 0, 55, 0
2, 106468, Note_on_c, 0, 65, 0
2, 106472, Note_on_c, 0, 81, 0
2, 106473, Note_on_c, 0, 61, 0
2, 106486, Note_on_c, 0, 77, 46
2, 106518, Note_on_c, 0, 77, 0
2, 106523, Note_on_c, 0, 76, 46
2, 106543, Note_on_c, 0, 76, 0
2, 106574, Note_on_c, 0, 76, 33
2, 106577, Note_on_c, 0, 74, 33
2, 106586, Note_on_c, 0, 74, 0
2, 106654, Note_on_c, 0, 46, 38
2, 106657, Note_on_c, 0, 69, 33
2, 106666, Note_on_c, 0, 69, 0
2, 106666, Note_on_c, 0, 46, 0
2, 106668, Note_on_c, 0, 76, 0
2, 106701, Note_on_c, 0, 76, 40
2, 106706, Note_on_c, 0, 67, 30
2, 106714, Note_on_c, 0, 67, 0
2, 106715, Control_c, 0, 64, 127
2, 106719, Note_on_c, 0, 76, 0
2, 106719, Control_c, 0, 64, 0
2, 106772, Note_on_c, 0, 76, 62
2, 106774, Note_on_c, 0, 67, 62
2, 106774, Note_on_c, 0, 69, 58
2, 106774, Note_on_c, 0, 72, 47
2, 106775, Note_on_c, 0, 62, 42
2, 106776, Note_on_c, 0, 65, 33
2, 106779, Note_on_c, 0, 60, 34
2, 106781, Note_on_c, 0, 67, 0
2, 106782, Note_on_c, 0, 69, 0
2, 106785, Note_on_c, 0, 65, 0
2, 106786, Note_on_c, 0, 62, 0
2, 106787, Note_on_c, 0, 72, 0
2, 106787, Note_on_c, 0, 60, 0
2, 106789, Note_on_c, 0, 76, 0
2, 106818, Note_on_c, 0, 76, 75
2, 106820, Note_on_c, 0, 67, 76
2, 106821, Note_on_c, 0, 72, 55
2, 106822, Note_on_c, 0, 69, 64
2, 106822, Note_on_c, 0, 62, 59
2, 106824, Note_on_c, 0, 65, 54
2, 106826, Note_on_c, 0, 60, 42
2, 106828, Note_on_c, 0, 67, 0
2, 106829, Note_on_c, 0, 69, 0
2, 106830, Note_on_c, 0, 72, 0
2, 106831, Note_on_c, 0, 65, 0
2, 106833, Note_on_c, 0, 62, 0
2, 106835, Note_on_c, 0, 60, 0
2, 106836, Note_on_c, 0, 76, 0
2, 106890, Note_on_c, 0, 76, 84
2, 106891, Note_on_c, 0, 65, 77
2, 106891, Note_on_c, 0, 60, 76
2, 106892, Note_on_c, 0, 72, 70
2, 106892, Note_on_c, 0, 69, 79
2, 106892, Note_on_c, 0, 67, 87
2, 106898, Note_on_c, 0, 58, 28
2, 106899, Note_on_c, 0, 65, 0
2, 106901, Note_on_c, 0, 69, 0
2, 106903, Note_on_c, 0, 72, 0
2, 106903, Control_c, 0, 64, 127
2, 106905, Note_on_c, 0, 67, 0
2, 106905, Note_on_c, 0, 58, 0
2, 106907, Note_on_c, 0, 60, 0
2, 106912, Note_on_c, 0, 76, 0
2, 106927, Control_c, 0, 64, 0
2, 106938, Note_on_c, 0, 55, 80
2, 106939, Note_on_c, 0, 77, 77
2, 106939, Note_on_c, 0, 70, 75
2, 106940, Note_on_c, 0, 61, 70
2, 106941, Note_on_c, 0, 65, 68
2, 106943, Note_on_c, 0, 67, 59
2, 106950, Note_on_c, 0, 65, 0
2, 106951, Note_on_c, 0, 67, 0
2, 106963, Note_on_c, 0, 70, 0
2, 106972, Note_on_c, 0, 77, 0
2, 106975, Note_on_c, 0, 55, 0
2, 106978, Note_on_c, 0, 61, 0
2, 107057, Note_on_c, 0, 77, 72
2, 107057, Note_on_c, 0, 55, 66
2, 107058, Note_on_c, 0, 61, 59
2, 107060, Note_on_c, 0, 65, 60
2, 107065, Note_on_c, 0, 67, 33
2, 107072, Note_on_c, 0, 67, 0
2, 107117, Control_c, 0, 64, 127
2, 107133, Note_on_c, 0, 65, 0
2, 107137, Note_on_c, 0, 77, 0
2, 107137, Note_on_c, 0, 55, 0
2, 107138, Note_on_c, 0, 61, 0
2, 107150, Control_c, 0, 64, 0
2, 107174, Note_on_c, 0, 77, 59
2, 107176, Note_on_c, 0, 61, 51
2, 107176, Note_on_c, 0, 70, 48
2, 107177, Note_on_c, 0, 65, 55
2, 107177, Note_on_c, 0, 73, 31
2, 107179, Note_on_c, 0, 55, 45
2, 107183, Control_c, 0, 64, 127
2, 107227, Note_on_c, 0, 77, 0
2, 107244, Note_on_c, 0, 65, 0
2, 107249, Note_on_c, 0, 55, 0
2, 107251, Note_on_c, 0, 70, 0
2, 107253, Note_on_c, 0, 73, 0
2, 107254, Note_on_c, 0, 61, 0
2, 107288, Note_on_c, 0, 65, 70
2, 107288, Note_on_c, 0, 76, 62
2, 107289, Note_on_c, 0, 69, 67
2, 107289, Control_c, 0, 64, 0
2, 107291, Note_on_c, 0, 72, 40
2, 107291, Note_on_c, 0, 64, 66
2, 107303, Note_on_c, 0, 72, 0
2, 107303, Note_on_c, 0, 65, 0
2, 107304, Note_on_c, 0, 69, 0
2, 107313, Note_on_c, 0, 76, 0
2, 107331, Note_on_c, 0, 63, 59
2, 107332, Note_on_c, 0, 64, 0
2, 107363, Note_on_c, 0, 63, 0
2, 107373, Note_on_c, 0, 74, 59
2, 107374, Note_on_c, 0, 65, 50
2, 107375, Note_on_c, 0, 62, 58
2, 107376, Note_on_c, 0, 69, 61
2, 107439, Control_c, 0, 64, 127
2, 107476, Note_on_c, 0, 65, 0
2, 107482, Note_on_c, 0, 69, 0
2, 107489, Note_on_c, 0, 74, 0
2, 107542, Note_on_c, 0, 62, 0
2, 107564, Note_on_c, 0, 79, 62
2, 107597, Note_on_c, 0, 77, 65
2, 107605, Note_on_c, 0, 79, 0
2, 107622, Note_on_c, 0, 77, 0
2, 107644, Control_c, 0, 64, 0
2, 107644, Note_on_c, 0, 74, 60
2, 107646, Note_on_c, 0, 54, 50
2, 107648, Note_on_c, 0, 60, 44
2, 107649, Note_on_c, 0, 70, 28
2, 107652, Note_on_c, 0, 65, 24
2, 107665, Note_on_c, 0, 65, 0
2, 107666, Note_on_c, 0, 70, 0
2, 107669, Note_on_c, 0, 60, 0
2, 107670, Note_on_c, 0, 74, 0
2, 107673, Note_on_c, 0, 54, 0
2, 107719, Note_on_c, 0, 74, 53
2, 107720, Note_on_c, 0, 70, 42
2, 107720, Note_on_c, 0, 65, 38
2, 107721, Note_on_c, 0, 54, 37
2, 107724, Note_on_c, 0, 60, 39
2, 107734, Note_on_c, 0, 65, 0
2, 107734, Note_on_c, 0, 70, 0
2, 107736, Note_on_c, 0, 60, 0
2, 107739, Note_on_c, 0, 74, 0
2, 107742, Note_on_c, 0, 54, 0
2, 107772, Control_c, 0, 64, 127
2, 107773, Note_on_c, 0, 54, 38
2, 107773, Note_on_c, 0, 65, 40
2, 107774, Note_on_c, 0, 70, 33
2, 107774, Note_on_c, 0, 74, 49
2, 107790, Note_on_c, 0, 65, 0
2, 107793, Note_on_c, 0, 70, 0
2, 107795, Note_on_c, 0, 74, 0
2, 107799, Note_on_c, 0, 54, 0
2, 107847, Control_c, 0, 64, 0
2, 107849, Note_on_c, 0, 54, 59
2, 107849, Note_on_c, 0, 70, 55
2, 107849, Note_on_c, 0, 60, 62
2, 107850, Note_on_c, 0, 74, 63
2, 107850, Note_on_c, 0, 65, 62
2, 107893, Control_c, 0, 64, 127
2, 107924, Note_on_c, 0, 60, 0
2, 107933, Note_on_c, 0, 74, 0
2, 107949, Note_on_c, 0, 70, 0
2, 107950, Note_on_c, 0, 54, 0
2, 107951, Note_on_c, 0, 65, 0
2, 108001, Note_on_c, 0, 65, 37
2, 108002, Note_on_c, 0, 53, 24
2, 108003, Note_on_c, 0, 69, 36
2, 108004, Control_c, 0, 64, 0
2, 108004, Note_on_c, 0, 62, 32
2, 108004, Note_on_c, 0, 72, 32
2, 108004, Note_on_c, 0, 58, 35
2, 108007, Note_on_c, 0, 57, 30
2, 108053, Control_c, 0, 64, 127
2, 108123, Note_on_c, 0, 65, 0
2, 108131, Note_on_c, 0, 69, 0
2, 108141, Note_on_c, 0, 72, 0
2, 108150, Note_on_c, 0, 62, 0
2, 108152, Note_on_c, 0, 57, 0
2, 108155, Note_on_c, 0, 58, 0
2, 108164, Note_on_c, 0, 53, 0
2, 108210, Note_on_c, 0, 62, 52
2, 108215, Note_on_c, 0, 58, 42
2, 108217, Note_on_c, 0, 53, 24
2, 108218, Note_on_c, 0, 57, 35
2, 108229, Control_c, 0, 64, 0
2, 108254, Note_on_c, 0, 62, 0
2, 108255, Note_on_c, 0, 57, 0
2, 108259, Note_on_c, 0, 58, 0
2, 108261, Note_on_c, 0, 53, 0
2, 108266, Note_on_c, 0, 73, 46
2, 108267, Note_on_c, 0, 85, 62
2, 108269, Control_c, 0, 64, 127
2, 108286, Note_on_c, 0, 73, 0
2, 108288, Note_on_c, 0, 85, 0
2, 108311, Note_on_c, 0, 86, 63
2, 108314, Note_on_c, 0, 74, 34
2, 108318, Control_c, 0, 64, 0
2, 108323, Note_on_c, 0, 74, 0
2, 108324, Note_on_c, 0, 86, 0
2, 108386, Control_c, 0, 64, 127
2, 108421, Control_c, 0, 64, 0
2, 108463, Note_on_c, 0, 96, 78
2, 108465, Note_on_c, 0, 56, 56
2, 108465, Note_on_c, 0, 84, 68
2, 108467, Note_on_c, 0, 91, 45
2, 108467, Note_on_c, 0, 67, 59
2, 108467, Note_on_c, 0, 62, 53
2, 108470, Note_on_c, 0, 96, 0
2, 108472, Note_on_c, 0, 84, 0
2, 108475, Note_on_c, 0, 67, 0
2, 108476, Note_on_c, 0, 91, 0
2, 108479, Note_on_c, 0, 62, 0
2, 108482, Note_on_c, 0, 56, 0
2, 108544, Note_on_c, 0, 91, 67
2, 108545, Note_on_c, 0, 56, 55
2, 108546, Note_on_c, 0, 62, 54
2, 108547, Note_on_c, 0, 65, 50
2, 108547, Note_on_c, 0, 79, 51
2, 108548, Note_on_c, 0, 86, 63
2, 108556, Control_c, 0, 64, 127
2, 108568, Note_on_c, 0, 86, 0
2, 108572, Note_on_c, 0, 91, 0
2, 108583, Note_on_c, 0, 79, 0
2, 108595, Note_on_c, 0, 65, 0
2, 108598, Note_on_c, 0, 56, 0
2, 108611, Note_on_c, 0, 62, 0
2, 108617, Control_c, 0, 64, 0
2, 108626, Note_on_c, 0, 88, 53
2, 108626, Note_on_c, 0, 56, 56
2, 108628, Note_on_c, 0, 76, 60
2, 108629, Note_on_c, 0, 65, 46
2, 108635, Control_c, 0, 64, 127
2, 108639, Note_on_c, 0, 88, 0
2, 108643, Note_on_c, 0, 65, 0
2, 108646, Note_on_c, 0, 76, 0
2, 108662, Note_on_c, 0, 56, 0
2, 108704, Note_on_c, 0, 83, 57
2, 108705, Note_on_c, 0, 71, 53
2, 108708, Note_on_c, 0, 59, 35
2, 108708, Note_on_c, 0, 64, 37
2, 108708, Note_on_c, 0, 76, 43
2, 108709, Control_c, 0, 64, 0
2, 108710, Note_on_c, 0, 79, 32
2, 108710, Note_on_c, 0, 57, 43
2, 108715, Note_on_c, 0, 60, 33
2, 108719, Note_on_c, 0, 76, 0
2, 108722, Note_on_c, 0, 71, 0
2, 108722, Note_on_c, 0, 79, 0
2, 108723, Note_on_c, 0, 64, 0
2, 108723, Note_on_c, 0, 57, 0
2, 108724, Note_on_c, 0, 60, 0
2, 108724, Note_on_c, 0, 83, 0
2, 108725, Note_on_c, 0, 59, 0
2, 108776, Note_on_c, 0, 81, 32
2, 108778, Note_on_c, 0, 64, 30
2, 108778, Note_on_c, 0, 69, 50
2, 108779, Note_on_c, 0, 59, 42
2, 108782, Note_on_c, 0, 57, 32
2, 108787, Note_on_c, 0, 60, 31
2, 108788, Note_on_c, 0, 69, 0
2, 108788, Control_c, 0, 64, 127
2, 108796, Note_on_c, 0, 59, 0
2, 108796, Note_on_c, 0, 64, 0
2, 108797, Note_on_c, 0, 60, 0
2, 108800, Note_on_c, 0, 81, 0
2, 108803, Note_on_c, 0, 57, 0
2, 108841, Control_c, 0, 64, 0
2, 108857, Note_on_c, 0, 64, 63
2, 108857, Note_on_c, 0, 86, 71
2, 108858, Note_on_c, 0, 88, 69
2, 108859, Note_on_c, 0, 59, 58
2, 108860, Note_on_c, 0, 60, 64
2, 108860, Note_on_c, 0, 74, 50
2, 108862, Note_on_c, 0, 76, 53
2, 108862, Note_on_c, 0, 57, 54
2, 108874, Note_on_c, 0, 88, 0
2, 108876, Control_c, 0, 64, 127
2, 108885, Note_on_c, 0, 76, 0
2, 108890, Note_on_c, 0, 86, 0
2, 108906, Note_on_c, 0, 60, 0
2, 108908, Note_on_c, 0, 59, 0
2, 108908, Note_on_c, 0, 74, 0
2, 108916, Note_on_c, 0, 57, 0
2, 108917, Note_on_c, 0, 64, 0
2, 108942, Control_c, 0, 64, 0
2, 108943, Note_on_c, 0, 64, 53
2, 108943, Note_on_c, 0, 84, 66
2, 108943, Note_on_c, 0, 72, 66
2, 108947, Note_on_c, 0, 59, 42
2, 108950, Note_on_c, 0, 60, 37
2, 108951, Note_on_c, 0, 57, 36
2, 108959, Note_on_c, 0, 59, 0
2, 108960, Note_on_c, 0, 84, 0
2, 108961, Note_on_c, 0, 60, 0
2, 108962, Note_on_c, 0, 57, 0
2, 108964, Note_on_c, 0, 64, 0
2, 108966, Note_on_c, 0, 72, 0
2, 108971, Control_c, 0, 64, 127
2, 109008, Control_c, 0, 64, 0
2, 109009, Note_on_c, 0, 83, 55
2, 109010, Note_on_c, 0, 71, 64
2, 109010, Note_on_c, 0, 64, 57
2, 109013, Note_on_c, 0, 59, 53
2, 109016, Note_on_c, 0, 60, 57
2, 109017, Note_on_c, 0, 57, 45
2, 109022, Control_c, 0, 64, 127
2, 109024, Note_on_c, 0, 60, 0
2, 109026, Note_on_c, 0, 57, 0
2, 109034, Note_on_c, 0, 83, 0
2, 109035, Note_on_c, 0, 59, 0
2, 109035, Note_on_c, 0, 64, 0
2, 109041, Note_on_c, 0, 71, 0
2, 109088, Control_c, 0, 64, 0
2, 109091, Note_on_c, 0, 81, 53
2, 109091, Note_on_c, 0, 65, 48
2, 109092, Note_on_c, 0, 55, 51
2, 109093, Note_on_c, 0, 69, 51
2, 109093, Note_on_c, 0, 61, 43
2, 109093, Note_on_c, 0, 60, 51
2, 109097, Note_on_c, 0, 79, 28
2, 109099, Note_on_c, 0, 73, 18
2, 109100, Note_on_c, 0, 76, 35
2, 109126, Control_c, 0, 64, 127
2, 109235, Note_on_c, 0, 60, 0
2, 109236, Note_on_c, 0, 61, 0
2, 109237, Note_on_c, 0, 76, 0
2, 109240, Note_on_c, 0, 55, 0
2, 109242, Note_on_c, 0, 65, 0
2, 109247, Note_on_c, 0, 69, 0
2, 109248, Note_on_c, 0, 73, 0
2, 109264, Note_on_c, 0, 81, 0
2, 109265, Note_on_c, 0, 79, 0
2, 109284, Note_on_c, 0, 69, 47
2, 109285, Note_on_c, 0, 73, 25
2, 109285, Note_on_c, 0, 65, 46
2, 109285, Note_on_c, 0, 76, 46
2, 109286, Note_on_c, 0, 61, 39
2, 109287, Note_on_c, 0, 60, 47
2, 109290, Note_on_c, 0, 55, 41
2, 109291, Control_c, 0, 64, 0
2, 109315, Control_c, 0, 64, 127
2, 109324, Note_on_c, 0, 69, 0
2, 109326, Note_on_c, 0, 61, 0
2, 109326, Note_on_c, 0, 65, 0
2, 109327, Note_on_c, 0, 55, 0
2, 109328, Note_on_c, 0, 76, 0
2, 109328, Note_on_c, 0, 60, 0
2, 109330, Note_on_c, 0, 73, 0
2, 109367, Note_on_c, 0, 73, 59
2, 109369, Note_on_c, 0, 81, 61
2, 109369, Note_on_c, 0, 76, 66
2, 109370, Note_on_c, 0, 69, 77
2, 109371, Note_on_c, 0, 65, 65
2, 109371, Note_on_c, 0, 55, 66
2, 109371, Note_on_c, 0, 61, 52
2, 109372, Note_on_c, 0, 60, 50
2, 109373, Note_on_c, 0, 79, 53
2, 109405, Note_on_c, 0, 60, 0
2, 109410, Note_on_c, 0, 65, 0
2, 109411, Note_on_c, 0, 81, 0
2, 109413, Note_on_c, 0, 79, 0
2, 109414, Note_on_c, 0, 69, 0
2, 109414, Note_on_c, 0, 55, 0
2, 109424, Note_on_c, 0, 73, 0
2, 109426, Note_on_c, 0, 61, 0
2, 109427, Note_on_c, 0, 76, 0
2, 109443, Note_on_c, 0, 79, 72
2, 109444, Note_on_c, 0, 76, 70
2, 109445, Note_on_c, 0, 57, 55
2, 109445, Note_on_c, 0, 53, 57
2, 109445, Note_on_c, 0, 72, 64
2, 109446, Note_on_c, 0, 69, 68
2, 109446, Note_on_c, 0, 64, 61
2, 109447, Control_c, 0, 64, 0
2, 109447, Note_on_c, 0, 60, 49
2, 109486, Control_c, 0, 64, 127
2, 109534, Note_on_c, 0, 69, 0
2, 109552, Note_on_c, 0, 72, 0
2, 109555, Note_on_c, 0, 76, 0
2, 109564, Note_on_c, 0, 79, 0
2, 109578, Note_on_c, 0, 64, 0
2, 109581, Note_on_c, 0, 60, 0
2, 109591, Note_on_c, 0, 57, 0
2, 109637, Note_on_c, 0, 64, 43
2, 109642, Note_on_c, 0, 57, 36
2, 109644, Note_on_c, 0, 60, 32
2, 109662, Note_on_c, 0, 64, 0
2, 109665, Note_on_c, 0, 60, 0
2, 109700, Note_on_c, 0, 57, 0
2, 109713, Note_on_c, 0, 53, 0
2, 109722, Note_on_c, 0, 69, 48
2, 109733, Note_on_c, 0, 69, 0
2, 109760, Note_on_c, 0, 74, 73
2, 109798, Note_on_c, 0, 74, 0
2, 109801, Note_on_c, 0, 69, 48
2, 109802, Control_c, 0, 64, 0
2, 109802, Note_on_c, 0, 62, 30
2, 109804, Note_on_c, 0, 52, 26
2, 109805, Note_on_c, 0, 55, 40
2, 109806, Note_on_c, 0, 59, 29
2, 109810, Note_on_c, 0, 70, 45
2, 109824, Note_on_c, 0, 70, 0
2, 109831, Note_on_c, 0, 71, 44
2, 109841, Note_on_c, 0, 69, 0
2, 109856, Note_on_c, 0, 71, 0
2, 109891, Note_on_c, 0, 67, 62
2, 109899, Note_on_c, 0, 67, 0
2, 109942, Note_on_c, 0, 69, 60
2, 109951, Note_on_c, 0, 70, 42
2, 109964, Note_on_c, 0, 70, 0
2, 109968, Note_on_c, 0, 74, 19
2, 109972, Note_on_c, 0, 71, 36
2, 109977, Note_on_c, 0, 59, 0
2, 109979, Note_on_c, 0, 69, 0
2, 109985, Note_on_c, 0, 74, 0
2, 109985, Note_on_c, 0, 71, 0
2, 110014, Note_on_c, 0, 55, 0
2, 110015, Note_on_c, 0, 67, 39
2, 110034, Note_on_c, 0, 67, 0
2, 110048, Note_on_c, 0, 62, 0
2, 110060, Note_on_c, 0, 69, 52
2, 110064, Note_on_c, 0, 52, 0
2, 110065, Note_on_c, 0, 74, 54
2, 110067, Note_on_c, 0, 70, 71
2, 110089, Note_on_c, 0, 70, 0
2, 110108, Note_on_c, 0, 69, 0
2, 110120, Note_on_c, 0, 74, 0
2, 110136, Note_on_c, 0, 67, 39
2, 110145, Note_on_c, 0, 67, 0
2, 110169, Note_on_c, 0, 60, 39
2, 110171, Note_on_c, 0, 51, 33
2, 110171, Note_on_c, 0, 54, 21
2, 110196, Note_on_c, 0, 60, 0
2, 110206, Note_on_c, 0, 54, 0
2, 110208, Note_on_c, 0, 51, 0
2, 110294, Note_on_c, 0, 72, 88
2, 110327, Note_on_c, 0, 71, 60
2, 110333, Note_on_c, 0, 72, 0
2, 110346, Note_on_c, 0, 70, 36
2, 110351, Note_on_c, 0, 71, 0
2, 110376, Note_on_c, 0, 70, 0
2, 110376, Note_on_c, 0, 69, 49
2, 110392, Note_on_c, 0, 69, 0
2, 110419, Note_on_c, 0, 71, 75
2, 110487, Note_on_c, 0, 67, 38
2, 110508, Note_on_c, 0, 71, 0
2, 110511, Note_on_c, 0, 67, 0
2, 110526, Note_on_c, 0, 52, 22
2, 110527, Note_on_c, 0, 59, 24
2, 110529, Note_on_c, 0, 62, 19
2, 110529, Note_on_c, 0, 69, 59
2, 110600, Note_on_c, 0, 69, 0
2, 110607, Note_on_c, 0, 67, 48
2, 110643, Note_on_c, 0, 59, 0
2, 110649, Control_c, 0, 64, 127
2, 110655, Note_on_c, 0, 52, 0
2, 110659, Note_on_c, 0, 62, 0
2, 110711, Note_on_c, 0, 67, 0
2, 110717, Note_on_c, 0, 62, 49
2, 110720, Note_on_c, 0, 59, 42
2, 110725, Note_on_c, 0, 55, 38
2, 110737, Note_on_c, 0, 55, 0
2, 110740, Note_on_c, 0, 62, 0
2, 110743, Note_on_c, 0, 59, 0
2, 110877, Note_on_c, 0, 88, 85
2, 110878, Control_c, 0, 64, 0
2, 110879, Note_on_c, 0, 76, 83
2, 110879, Note_on_c, 0, 60, 74
2, 110879, Note_on_c, 0, 83, 73
2, 110880, Note_on_c, 0, 64, 77
2, 110880, Note_on_c, 0, 57, 64
2, 110880, Note_on_c, 0, 53, 71
2, 110914, Control_c, 0, 64, 127
2, 110945, Note_on_c, 0, 76, 0
2, 110956, Note_on_c, 0, 64, 0
2, 110962, Note_on_c, 0, 60, 0
2, 110963, Note_on_c, 0, 83, 0
2, 110968, Note_on_c, 0, 53, 0
2, 110971, Note_on_c, 0, 57, 0
2, 110983, Note_on_c, 0, 88, 0
2, 111074, Note_on_c, 0, 89, 69
2, 111075, Note_on_c, 0, 64, 64
2, 111075, Note_on_c, 0, 77, 69
2, 111075, Note_on_c, 0, 57, 55
2, 111076, Note_on_c, 0, 84, 67
2, 111077, Control_c, 0, 64, 0
2, 111077, Note_on_c, 0, 60, 42
2, 111077, Note_on_c, 0, 53, 44
2, 111082, Note_on_c, 0, 64, 0
2, 111083, Note_on_c, 0, 84, 0
2, 111084, Note_on_c, 0, 89, 0
2, 111085, Note_on_c, 0, 60, 0
2, 111086, Note_on_c, 0, 57, 0
2, 111086, Note_on_c, 0, 77, 0
2, 111087, Note_on_c, 0, 53, 0
2, 111150, Control_c, 0, 64, 127
2, 111152, Note_on_c, 0, 88, 72
2, 111154, Note_on_c, 0, 76, 62
2, 111154, Note_on_c, 0, 83, 61
2, 111156, Note_on_c, 0, 64, 58
2, 111156, Note_on_c, 0, 53, 48
2, 111157, Note_on_c, 0, 60, 48
2, 111159, Note_on_c, 0, 57, 39
2, 111167, Note_on_c, 0, 60, 0
2, 111167, Note_on_c, 0, 64, 0
2, 111168, Note_on_c, 0, 53, 0
2, 111168, Note_on_c, 0, 57, 0
2, 111170, Note_on_c, 0, 83, 0
2, 111171, Note_on_c, 0, 76, 0
2, 111172, Note_on_c, 0, 88, 0
2, 111237, Note_on_c, 0, 86, 79
2, 111238, Note_on_c, 0, 74, 71
2, 111238, Note_on_c, 0, 83, 62
2, 111238, Note_on_c, 0, 79, 65
2, 111240, Note_on_c, 0, 62, 55
2, 111240, Note_on_c, 0, 67, 67
2, 111242, Note_on_c, 0, 63, 51
2, 111242, Note_on_c, 0, 57, 50
2, 111243, Control_c, 0, 64, 0
2, 111287, Control_c, 0, 64, 127
2, 111487, Note_on_c, 0, 74, 0
2, 111488, Note_on_c, 0, 67, 0
2, 111494, Note_on_c, 0, 62, 0
2, 111495, Note_on_c, 0, 79, 0
2, 111498, Note_on_c, 0, 63, 0
2, 111499, Note_on_c, 0, 86, 0
2, 111502, Note_on_c, 0, 57, 0
2, 111504, Note_on_c, 0, 83, 0
2, 111601, Note_on_c, 0, 56, 44
2, 111602, Note_on_c, 0, 67, 52
2, 111604, Note_on_c, 0, 62, 48
2, 111609, Control_c, 0, 64, 0
2, 111651, Control_c, 0, 64, 127
2, 111708, Control_c, 0, 64, 0
2, 111723, Note_on_c, 0, 84, 85
2, 111724, Note_on_c, 0, 72, 83
2, 111730, Note_on_c, 0, 67, 0
2, 111739, Note_on_c, 0, 72, 0
2, 111747, Note_on_c, 0, 84, 0
2, 111755, Note_on_c, 0, 56, 0
2, 111764, Note_on_c, 0, 62, 0
2, 111770, Control_c, 0, 64, 127
2, 111792, Control_c, 0, 64, 0
2, 111806, Note_on_c, 0, 84, 81
2, 111807, Note_on_c, 0, 62, 45
2, 111808, Note_on_c, 0, 56, 57
2, 111808, Note_on_c, 0, 65, 60
2, 111809, Note_on_c, 0, 72, 79
2, 111843, Control_c, 0, 64, 127
2, 111866, Note_on_c, 0, 62, 0
2, 111881, Note_on_c, 0, 84, 0
2, 111887, Note_on_c, 0, 65, 0
2, 111894, Note_on_c, 0, 56, 0
2, 111898, Note_on_c, 0, 72, 0
2, 111968, Note_on_c, 0, 81, 63
2, 111969, Control_c, 0, 64, 0
2, 111969, Note_on_c, 0, 65, 49
2, 111970, Note_on_c, 0, 60, 49
2, 111970, Note_on_c, 0, 61, 37
2, 111972, Note_on_c, 0, 69, 54
2, 111978, Note_on_c, 0, 65, 0
2, 111980, Note_on_c, 0, 69, 0
2, 111982, Note_on_c, 0, 60, 0
2, 111984, Note_on_c, 0, 61, 0
2, 111985, Note_on_c, 0, 81, 0
2, 112018, Note_on_c, 0, 77, 43
2, 112022, Control_c, 0, 64, 127
2, 112031, Note_on_c, 0, 77, 0
2, 112035, Control_c, 0, 64, 0
2, 112051, Note_on_c, 0, 81, 71
2, 112052, Note_on_c, 0, 69, 66
2, 112055, Note_on_c, 0, 60, 44
2, 112055, Note_on_c, 0, 61, 37
2, 112056, Note_on_c, 0, 65, 50
2, 112060, Note_on_c, 0, 55, 37
2, 112086, Control_c, 0, 64, 127
2, 112142, Note_on_c, 0, 69, 0
2, 112147, Note_on_c, 0, 55, 0
2, 112150, Note_on_c, 0, 65, 0
2, 112152, Note_on_c, 0, 61, 0
2, 112153, Note_on_c, 0, 60, 0
2, 112182, Note_on_c, 0, 81, 0
2, 112315, Control_c, 0, 64, 0
2, 112320, Note_on_c, 0, 61, 28
2, 112320, Note_on_c, 0, 54, 36
2, 112322, Note_on_c, 0, 64, 33
2, 112323, Note_on_c, 0, 81, 49
2, 112324, Note_on_c, 0, 59, 44
2, 112384, Control_c, 0, 64, 127
2, 112448, Note_on_c, 0, 93, 74
2, 112477, Note_on_c, 0, 93, 0
2, 112525, Note_on_c, 0, 93, 66
2, 112545, Note_on_c, 0, 93, 0
2, 112559, Note_on_c, 0, 64, 0
2, 112561, Note_on_c, 0, 59, 0
2, 112562, Note_on_c, 0, 61, 0
2, 112567, Note_on_c, 0, 81, 0
2, 112577, Note_on_c, 0, 93, 54
2, 112587, Note_on_c, 0, 93, 0
2, 112597, Note_on_c, 0, 54, 0
2, 112650, Note_on_c, 0, 86, 62
2, 112652, Note_on_c, 0, 98, 47
2, 112653, Note_on_c, 0, 100, 54
2, 112656, Note_on_c, 0, 88, 38
2, 112661, Note_on_c, 0, 100, 0
2, 112664, Note_on_c, 0, 86, 0
2, 112665, Note_on_c, 0, 88, 0
2, 112669, Note_on_c, 0, 98, 0
2, 112686, Control_c, 0, 64, 0
2, 112697, Note_on_c, 0, 64, 43
2, 112698, Note_on_c, 0, 60, 44
2, 112699, Note_on_c, 0, 86, 63
2, 112699, Note_on_c, 0, 98, 68
2, 112706, Note_on_c, 0, 98, 0
2, 112707, Note_on_c, 0, 86, 0
2, 112707, Note_on_c, 0, 64, 0
2, 112709, Note_on_c, 0, 60, 0
2, 112802, Control_c, 0, 64, 127
2, 112806, Note_on_c, 0, 64, 58
2, 112809, Note_on_c, 0, 60, 53
2, 112809, Note_on_c, 0, 98, 67
2, 112809, Note_on_c, 0, 86, 79
2, 112811, Note_on_c, 0, 59, 36
2, 112811, Note_on_c, 0, 55, 45
2, 112859, Note_on_c, 0, 55, 0
2, 112859, Note_on_c, 0, 64, 0
2, 112859, Note_on_c, 0, 86, 0
2, 112864, Note_on_c, 0, 60, 0
2, 112864, Note_on_c, 0, 59, 0
2, 112864, Note_on_c, 0, 98, 0
2, 112883, Note_on_c, 0, 100, 82
2, 112885, Note_on_c, 0, 88, 74
2, 112886, Note_on_c, 0, 64, 80
2, 112886, Note_on_c, 0, 59, 68
2, 112887, Note_on_c, 0, 60, 70
2, 112887, Note_on_c, 0, 55, 73
2, 112906, Note_on_c, 0, 88, 0
2, 112909, Note_on_c, 0, 55, 0
2, 112911, Note_on_c, 0, 64, 0
2, 112912, Note_on_c, 0, 100, 0
2, 112913, Note_on_c, 0, 59, 0
2, 112917, Note_on_c, 0, 60, 0
2, 112929, Control_c, 0, 64, 0
2, 112931, Note_on_c, 0, 64, 70
2, 112932, Note_on_c, 0, 59, 62
2, 112932, Note_on_c, 0, 98, 74
2, 112933, Note_on_c, 0, 55, 76
2, 112933, Note_on_c, 0, 60, 80
2, 112935, Note_on_c, 0, 86, 80
2, 112960, Control_c, 0, 64, 127
2, 112990, Note_on_c, 0, 60, 0
2, 112993, Note_on_c, 0, 55, 0
2, 112996, Note_on_c, 0, 59, 0
2, 113003, Note_on_c, 0, 64, 0
2, 113004, Note_on_c, 0, 86, 0
2, 113011, Note_on_c, 0, 98, 0
2, 113042, Note_on_c, 0, 61, 73
2, 113042, Note_on_c, 0, 54, 70
2, 113044, Control_c, 0, 64, 0
2, 113044, Note_on_c, 0, 64, 77
2, 113044, Note_on_c, 0, 59, 75
2, 113045, Note_on_c, 0, 100, 87
2, 113047, Note_on_c, 0, 88, 85
2, 113072, Control_c, 0, 64, 127
2, 113099, Note_on_c, 0, 100, 0
2, 113112, Note_on_c, 0, 88, 0
2, 113114, Note_on_c, 0, 59, 0
2, 113122, Note_on_c, 0, 64, 0
2, 113129, Note_on_c, 0, 54, 0
2, 113130, Note_on_c, 0, 61, 0
2, 113165, Note_on_c, 0, 97, 50
2, 113167, Note_on_c, 0, 85, 43
2, 113171, Note_on_c, 0, 61, 35
2, 113171, Note_on_c, 0, 64, 42
2, 113175, Note_on_c, 0, 54, 28
2, 113185, Note_on_c, 0, 85, 0
2, 113187, Note_on_c, 0, 97, 0
2, 113202, Note_on_c, 0, 64, 0
2, 113210, Note_on_c, 0, 54, 0
2, 113218, Note_on_c, 0, 61, 0
2, 113248, Note_on_c, 0, 54, 32
2, 113249, Note_on_c, 0, 61, 39
2, 113250, Note_on_c, 0, 81, 46
2, 113251, Note_on_c, 0, 93, 40
2, 113251, Control_c, 0, 64, 0
2, 113251, Note_on_c, 0, 64, 41
2, 113253, Note_on_c, 0, 59, 55
2, 113280, Control_c, 0, 64, 127
2, 113315, Note_on_c, 0, 54, 0
2, 113317, Note_on_c, 0, 59, 0
2, 113337, Note_on_c, 0, 64, 0
2, 113338, Note_on_c, 0, 93, 0
2, 113347, Note_on_c, 0, 81, 0
2, 113351, Note_on_c, 0, 61, 0
2, 113407, Note_on_c, 0, 64, 44
2, 113411, Note_on_c, 0, 57, 43
2, 113412, Note_on_c, 0, 60, 44
2, 113412, Note_on_c, 0, 55, 35
2, 113419, Control_c, 0, 64, 0
2, 113516, Control_c, 0, 64, 127
2, 113528, Note_on_c, 0, 88, 55
2, 113533, Note_on_c, 0, 76, 44
2, 113550, Note_on_c, 0, 60, 0
2, 113567, Note_on_c, 0, 55, 0
2, 113569, Note_on_c, 0, 64, 0
2, 113572, Note_on_c, 0, 57, 0
2, 113599, Note_on_c, 0, 76, 0
2, 113603, Note_on_c, 0, 64, 36
2, 113616, Note_on_c, 0, 64, 0
2, 113618, Note_on_c, 0, 60, 17
2, 113622, Note_on_c, 0, 88, 0
2, 113633, Note_on_c, 0, 60, 0
2, 113711, Note_on_c, 0, 85, 69
2, 113713, Note_on_c, 0, 86, 92
2, 113719, Note_on_c, 0, 85, 0
2, 113765, Note_on_c, 0, 86, 0
2, 113773, Note_on_c, 0, 54, 36
2, 113776, Note_on_c, 0, 61, 37
2, 113778, Note_on_c, 0, 59, 46
2, 113779, Control_c, 0, 64, 0
2, 113779, Note_on_c, 0, 85, 67
2, 113780, Note_on_c, 0, 64, 28
2, 113878, Control_c, 0, 64, 127
2, 113910, Note_on_c, 0, 59, 0
2, 113919, Note_on_c, 0, 64, 0
2, 113925, Note_on_c, 0, 61, 0
2, 113930, Note_on_c, 0, 85, 0
2, 113931, Note_on_c, 0, 54, 0
2, 113954, Note_on_c, 0, 54, 34
2, 113954, Note_on_c, 0, 84, 70
2, 113956, Note_on_c, 0, 61, 38
2, 113956, Note_on_c, 0, 64, 38
2, 113959, Note_on_c, 0, 59, 46
2, 113961, Control_c, 0, 64, 0
2, 113995, Control_c, 0, 64, 127
2, 114010, Note_on_c, 0, 64, 0
2, 114014, Note_on_c, 0, 59, 0
2, 114015, Note_on_c, 0, 61, 0
2, 114020, Note_on_c, 0, 84, 0
2, 114023, Note_on_c, 0, 54, 0
2, 114036, Note_on_c, 0, 83, 55
2, 114041, Note_on_c, 0, 64, 30
2, 114064, Note_on_c, 0, 64, 0
2, 114119, Note_on_c, 0, 76, 47
2, 114120, Control_c, 0, 64, 0
2, 114121, Note_on_c, 0, 83, 0
2, 114123, Note_on_c, 0, 57, 29
2, 114123, Note_on_c, 0, 55, 44
2, 114125, Note_on_c, 0, 64, 20
2, 114128, Note_on_c, 0, 60, 40
2, 114208, Control_c, 0, 64, 127
2, 114211, Note_on_c, 0, 60, 0
2, 114231, Note_on_c, 0, 64, 0
2, 114235, Note_on_c, 0, 57, 0
2, 114244, Note_on_c, 0, 55, 0
2, 114300, Note_on_c, 0, 76, 0
2, 114315, Note_on_c, 0, 55, 40
2, 114318, Note_on_c, 0, 60, 37
2, 114323, Note_on_c, 0, 64, 19
2, 114353, Note_on_c, 0, 60, 0
2, 114371, Note_on_c, 0, 64, 0
2, 114385, Note_on_c, 0, 55, 0
2, 114425, Note_on_c, 0, 85, 74
2, 114445, Note_on_c, 0, 85, 0
2, 114456, Note_on_c, 0, 86, 72
2, 114474, Note_on_c, 0, 86, 0
2, 114484, Control_c, 0, 64, 0
2, 114487, Note_on_c, 0, 88, 71
2, 114494, Note_on_c, 0, 59, 46
2, 114494, Note_on_c, 0, 64, 24
2, 114496, Note_on_c, 0, 61, 18
2, 114497, Note_on_c, 0, 54, 20
2, 114510, Note_on_c, 0, 88, 0
2, 114551, Note_on_c, 0, 81, 31
2, 114563, Note_on_c, 0, 81, 0
2, 114587, Note_on_c, 0, 83, 44
2, 114597, Note_on_c, 0, 83, 0
2, 114613, Note_on_c, 0, 85, 71
2, 114629, Note_on_c, 0, 85, 0
2, 114681, Note_on_c, 0, 78, 37
2, 114709, Note_on_c, 0, 78, 0
2, 114713, Note_on_c, 0, 79, 38
2, 114735, Note_on_c, 0, 54, 0
2, 114736, Note_on_c, 0, 59, 0
2, 114742, Note_on_c, 0, 81, 57
2, 114743, Note_on_c, 0, 79, 0
2, 114747, Note_on_c, 0, 61, 0
2, 114754, Note_on_c, 0, 81, 0
2, 114763, Note_on_c, 0, 64, 0
2, 114811, Note_on_c, 0, 76, 27
2, 114834, Note_on_c, 0, 76, 0
2, 114843, Note_on_c, 0, 78, 38
2, 114851, Note_on_c, 0, 57, 28
2, 114852, Note_on_c, 0, 55, 32
2, 114854, Note_on_c, 0, 60, 32
2, 114854, Note_on_c, 0, 64, 18
2, 114857, Note_on_c, 0, 78, 0
2, 114870, Note_on_c, 0, 79, 52
2, 114889, Note_on_c, 0, 79, 0
2, 114972, Control_c, 0, 64, 127
2, 114982, Note_on_c, 0, 60, 0
2, 114999, Note_on_c, 0, 64, 0
2, 115000, Note_on_c, 0, 55, 0
2, 115010, Note_on_c, 0, 57, 0
2, 115040, Note_on_c, 0, 64, 41
2, 115045, Note_on_c, 0, 55, 30
2, 115046, Note_on_c, 0, 57, 35
2, 115047, Note_on_c, 0, 60, 33
2, 115080, Control_c, 0, 64, 0
2, 115094, Note_on_c, 0, 76, 94
2, 115102, Note_on_c, 0, 64, 0
2, 115111, Control_c, 0, 64, 127
2, 115115, Note_on_c, 0, 55, 0
2, 115116, Note_on_c, 0, 60, 0
2, 115119, Note_on_c, 0, 57, 0
2, 115138, Note_on_c, 0, 77, 34
2, 115151, Note_on_c, 0, 78, 54
2, 115155, Note_on_c, 0, 76, 0
2, 115174, Note_on_c, 0, 77, 0
2, 115179, Note_on_c, 0, 79, 71
2, 115180, Note_on_c, 0, 78, 0
2, 115209, Note_on_c, 0, 79, 0
2, 115210, Note_on_c, 0, 63, 37
2, 115211, Note_on_c, 0, 78, 68
2, 115214, Note_on_c, 0, 54, 28
2, 115215, Note_on_c, 0, 58, 47
2, 115219, Note_on_c, 0, 59, 44
2, 115221, Control_c, 0, 64, 0
2, 115254, Control_c, 0, 64, 127
2, 115284, Note_on_c, 0, 78, 0
2, 115420, Note_on_c, 0, 106, 83
2, 115431, Note_on_c, 0, 63, 0
2, 115433, Note_on_c, 0, 59, 0
2, 115442, Note_on_c, 0, 58, 0
2, 115459, Note_on_c, 0, 54, 0
2, 115459, Note_on_c, 0, 106, 0
2, 115479, Note_on_c, 0, 104, 78
2, 115504, Control_c, 0, 64, 0
2, 115512, Note_on_c, 0, 104, 0
2, 115519, Note_on_c, 0, 63, 33
2, 115523, Note_on_c, 0, 58, 33
2, 115524, Note_on_c, 0, 53, 36
2, 115524, Note_on_c, 0, 59, 44
2, 115525, Note_on_c, 0, 102, 74
2, 115560, Note_on_c, 0, 102, 0
2, 115570, Note_on_c, 0, 101, 66
2, 115591, Note_on_c, 0, 101, 0
2, 115616, Note_on_c, 0, 99, 71
2, 115635, Note_on_c, 0, 99, 0
2, 115676, Note_on_c, 0, 97, 67
2, 115694, Note_on_c, 0, 97, 0
2, 115734, Note_on_c, 0, 95, 52
2, 115751, Note_on_c, 0, 95, 0
2, 115836, Note_on_c, 0, 53, 0
2, 115845, Note_on_c, 0, 59, 0
2, 115857, Note_on_c, 0, 63, 0
2, 115868, Note_on_c, 0, 58, 0
2, 115871, Note_on_c, 0, 99, 77
2, 115897, Note_on_c, 0, 99, 0
2, 115913, Note_on_c, 0, 97, 53
2, 115929, Note_on_c, 0, 97, 0
2, 116045, Note_on_c, 0, 61, 69
2, 116047, Note_on_c, 0, 96, 62
2, 116048, Note_on_c, 0, 84, 74
2, 116049, Note_on_c, 0, 53, 43
2, 116050, Note_on_c, 0, 95, 54
2, 116051, Note_on_c, 0, 58, 42
2, 116052, Note_on_c, 0, 55, 60
2, 116062, Note_on_c, 0, 95, 0
2, 116062, Note_on_c, 0, 53, 0
2, 116065, Note_on_c, 0, 84, 0
2, 116066, Note_on_c, 0, 96, 0
2, 116073, Note_on_c, 0, 61, 0
2, 116076, Note_on_c, 0, 55, 0
2, 116085, Note_on_c, 0, 58, 0
2, 116121, Note_on_c, 0, 85, 77
2, 116121, Note_on_c, 0, 61, 76
2, 116121, Note_on_c, 0, 97, 78
2, 116124, Note_on_c, 0, 53, 63
2, 116125, Note_on_c, 0, 58, 65
2, 116126, Note_on_c, 0, 55, 73
2, 116145, Note_on_c, 0, 85, 0
2, 116146, Note_on_c, 0, 53, 0
2, 116147, Note_on_c, 0, 97, 0
2, 116149, Note_on_c, 0, 61, 0
2, 116152, Note_on_c, 0, 55, 0
2, 116156, Note_on_c, 0, 58, 0
2, 116161, Control_c, 0, 64, 127
2, 116166, Note_on_c, 0, 61, 75
2, 116167, Note_on_c, 0, 87, 84
2, 116167, Note_on_c, 0, 99, 87
2, 116168, Note_on_c, 0, 53, 77
2, 116170, Note_on_c, 0, 55, 69
2, 116170, Note_on_c, 0, 58, 77
2, 116176, Note_on_c, 0, 97, 31
2, 116201, Note_on_c, 0, 99, 0
2, 116202, Note_on_c, 0, 87, 0
2, 116203, Note_on_c, 0, 61, 0
2, 116208, Note_on_c, 0, 53, 0
2, 116209, Note_on_c, 0, 55, 0
2, 116211, Note_on_c, 0, 97, 0
2, 116212, Note_on_c, 0, 58, 0
2, 116235, Note_on_c, 0, 61, 69
2, 116238, Note_on_c, 0, 58, 70
2, 116240, Note_on_c, 0, 97, 78
2, 116241, Note_on_c, 0, 85, 80
2, 116260, Note_on_c, 0, 61, 0
2, 116267, Note_on_c, 0, 85, 0
2, 116268, Note_on_c, 0, 97, 0
2, 116268, Note_on_c, 0, 58, 0
2, 116285, Note_on_c, 0, 58, 57
2, 116287, Control_c, 0, 64, 0
2, 116287, Note_on_c, 0, 63, 67
2, 116288, Note_on_c, 0, 52, 71
2, 116289, Note_on_c, 0, 96, 68
2, 116291, Note_on_c, 0, 91, 60
2, 116293, Note_on_c, 0, 84, 61
2, 116322, Control_c, 0, 64, 127
2, 116355, Note_on_c, 0, 96, 0
2, 116357, Note_on_c, 0, 91, 0
2, 116372, Note_on_c, 0, 84, 0
2, 116375, Note_on_c, 0, 63, 0
2, 116379, Note_on_c, 0, 52, 0
2, 116387, Note_on_c, 0, 58, 0
2, 116405, Note_on_c, 0, 63, 57
2, 116407, Note_on_c, 0, 58, 51
2, 116412, Note_on_c, 0, 52, 43
2, 116436, Note_on_c, 0, 63, 0
2, 116453, Note_on_c, 0, 52, 0
2, 116467, Note_on_c, 0, 58, 0
2, 116486, Note_on_c, 0, 63, 65
2, 116488, Note_on_c, 0, 84, 69
2, 116488, Note_on_c, 0, 58, 49
2, 116488, Note_on_c, 0, 52, 63
2, 116489, Note_on_c, 0, 72, 68
2, 116492, Control_c, 0, 64, 0
2, 116519, Note_on_c, 0, 63, 0
2, 116521, Note_on_c, 0, 52, 0
2, 116524, Note_on_c, 0, 84, 0
2, 116527, Control_c, 0, 64, 127
2, 116531, Note_on_c, 0, 72, 0
2, 116532, Note_on_c, 0, 58, 0
2, 116564, Note_on_c, 0, 63, 52
2, 116565, Note_on_c, 0, 85, 63
2, 116566, Note_on_c, 0, 73, 39
2, 116568, Note_on_c, 0, 58, 48
2, 116582, Note_on_c, 0, 73, 0
2, 116591, Note_on_c, 0, 85, 0
2, 116592, Note_on_c, 0, 63, 0
2, 116596, Note_on_c, 0, 58, 0
2, 116653, Note_on_c, 0, 94, 75
2, 116654, Note_on_c, 0, 63, 62
2, 116655, Note_on_c, 0, 82, 62
2, 116659, Note_on_c, 0, 56, 50
2, 116659, Note_on_c, 0, 59, 63
2, 116659, Note_on_c, 0, 53, 45
2, 116660, Control_c, 0, 64, 0
2, 116672, Note_on_c, 0, 82, 0
2, 116680, Note_on_c, 0, 63, 0
2, 116683, Note_on_c, 0, 53, 0
2, 116687, Note_on_c, 0, 59, 0
2, 116687, Note_on_c, 0, 94, 0
2, 116693, Note_on_c, 0, 56, 0
2, 116742, Note_on_c, 0, 63, 59
2, 116745, Note_on_c, 0, 56, 52
2, 116745, Note_on_c, 0, 82, 60
2, 116745, Note_on_c, 0, 94, 73
2, 116748, Note_on_c, 0, 59, 54
2, 116748, Note_on_c, 0, 53, 39
2, 116783, Control_c, 0, 64, 127
2, 116790, Note_on_c, 0, 59, 0
2, 116794, Note_on_c, 0, 56, 0
2, 116794, Note_on_c, 0, 53, 0
2, 116795, Note_on_c, 0, 82, 0
2, 116796, Note_on_c, 0, 94, 0
2, 116800, Note_on_c, 0, 63, 0
2, 116808, Control_c, 0, 64, 0
2, 116830, Control_c, 0, 64, 127
2, 116832, Note_on_c, 0, 63, 58
2, 116834, Note_on_c, 0, 94, 55
2, 116836, Note_on_c, 0, 82, 44
2, 116839, Note_on_c, 0, 59, 48
2, 116839, Note_on_c, 0, 56, 34
2, 116850, Note_on_c, 0, 59, 0
2, 116851, Note_on_c, 0, 63, 0
2, 116854, Note_on_c, 0, 94, 0
2, 116854, Note_on_c, 0, 82, 0
2, 116858, Note_on_c, 0, 56, 0
2, 116874, Note_on_c, 0, 92, 42
2, 116876, Note_on_c, 0, 80, 37
2, 116881, Note_on_c, 0, 63, 33
2, 116883, Note_on_c, 0, 56, 27
2, 116888, Note_on_c, 0, 63, 0
2, 116889, Note_on_c, 0, 80, 0
2, 116892, Note_on_c, 0, 92, 0
2, 116896, Control_c, 0, 64, 0
2, 116901, Note_on_c, 0, 56, 0
2, 116914, Note_on_c, 0, 94, 72
2, 116915, Note_on_c, 0, 63, 56
2, 116917, Note_on_c, 0, 82, 44
2, 116920, Note_on_c, 0, 53, 39
2, 116921, Note_on_c, 0, 56, 28
2, 116923, Note_on_c, 0, 59, 31
2, 116931, Note_on_c, 0, 53, 0
2, 116931, Control_c, 0, 64, 127
2, 116935, Note_on_c, 0, 59, 0
2, 116937, Note_on_c, 0, 82, 0
2, 116938, Note_on_c, 0, 94, 0
2, 116945, Note_on_c, 0, 56, 0
2, 116951, Note_on_c, 0, 63, 0
2, 116976, Note_on_c, 0, 92, 62
2, 116978, Note_on_c, 0, 80, 47
2, 116992, Note_on_c, 0, 80, 0
2, 116998, Note_on_c, 0, 92, 0
2, 117024, Note_on_c, 0, 67, 49
2, 117026, Note_on_c, 0, 56, 35
2, 117028, Control_c, 0, 64, 0
2, 117029, Note_on_c, 0, 94, 71
2, 117029, Note_on_c, 0, 62, 50
2, 117030, Note_on_c, 0, 82, 59
2, 117067, Note_on_c, 0, 95, 13
2, 117072, Note_on_c, 0, 94, 0
2, 117074, Note_on_c, 0, 82, 0
2, 117077, Note_on_c, 0, 83, 24
2, 117081, Control_c, 0, 64, 127
2, 117092, Note_on_c, 0, 95, 0
2, 117095, Note_on_c, 0, 83, 0
2, 117096, Control_c, 0, 64, 0
2, 117100, Note_on_c, 0, 62, 0
2, 117101, Note_on_c, 0, 67, 0
2, 117106, Note_on_c, 0, 56, 0
2, 117141, Control_c, 0, 64, 127
2, 117209, Note_on_c, 0, 62, 48
2, 117211, Note_on_c, 0, 56, 37
2, 117211, Note_on_c, 0, 65, 44
2, 117220, Control_c, 0, 64, 0
2, 117249, Control_c, 0, 64, 127
2, 117285, Note_on_c, 0, 62, 0
2, 117286, Note_on_c, 0, 65, 0
2, 117300, Note_on_c, 0, 56, 0
2, 117359, Note_on_c, 0, 52, 44
2, 117361, Note_on_c, 0, 58, 43
2, 117361, Note_on_c, 0, 62, 39
2, 117370, Control_c, 0, 64, 0
2, 117386, Note_on_c, 0, 70, 36
2, 117395, Note_on_c, 0, 70, 0
2, 117404, Note_on_c, 0, 72, 32
2, 117419, Note_on_c, 0, 70, 35
2, 117426, Note_on_c, 0, 72, 0
2, 117452, Note_on_c, 0, 70, 0
2, 117454, Note_on_c, 0, 69, 40
2, 117472, Note_on_c, 0, 69, 0
2, 117492, Note_on_c, 0, 70, 55
2, 117494, Control_c, 0, 64, 127
2, 117534, Note_on_c, 0, 62, 0
2, 117546, Note_on_c, 0, 58, 0
2, 117548, Note_on_c, 0, 70, 0
2, 117571, Note_on_c, 0, 58, 31
2, 117571, Note_on_c, 0, 62, 48
2, 117590, Note_on_c, 0, 62, 0
2, 117593, Control_c, 0, 64, 0
2, 117598, Note_on_c, 0, 52, 0
2, 117610, Control_c, 0, 64, 127
2, 117613, Note_on_c, 0, 58, 0
2, 117613, Note_on_c, 0, 71, 66
2, 117633, Note_on_c, 0, 71, 0
2, 117642, Note_on_c, 0, 72, 52
2, 117667, Note_on_c, 0, 72, 0
2, 117669, Note_on_c, 0, 73, 26
2, 117687, Note_on_c, 0, 73, 0
2, 117728, Control_c, 0, 64, 0
2, 117730, Note_on_c, 0, 66, 52
2, 117732, Note_on_c, 0, 61, 51
2, 117733, Note_on_c, 0, 55, 59
2, 117734, Note_on_c, 0, 81, 72
2, 117778, Control_c, 0, 64, 127
2, 117802, Control_c, 0, 64, 0
2, 117833, Control_c, 0, 64, 127
2, 117857, Note_on_c, 0, 55, 0
2, 117865, Note_on_c, 0, 66, 0
2, 117876, Note_on_c, 0, 61, 0
2, 117923, Note_on_c, 0, 61, 39
2, 117926, Note_on_c, 0, 65, 36
2, 117930, Control_c, 0, 64, 0
2, 117931, Note_on_c, 0, 55, 32
2, 117948, Control_c, 0, 64, 127
2, 117957, Note_on_c, 0, 65, 0
2, 117969, Note_on_c, 0, 55, 0
2, 117977, Note_on_c, 0, 61, 0
2, 118007, Note_on_c, 0, 81, 0
2, 118026, Note_on_c, 0, 77, 55
2, 118038, Note_on_c, 0, 77, 0
2, 118093, Note_on_c, 0, 76, 60
2, 118094, Control_c, 0, 64, 0
2, 118094, Note_on_c, 0, 50, 37
2, 118096, Note_on_c, 0, 65, 54
2, 118099, Note_on_c, 0, 57, 37
2, 118099, Note_on_c, 0, 60, 40
2, 118102, Note_on_c, 0, 69, 36
2, 118151, Control_c, 0, 64, 127
2, 118192, Note_on_c, 0, 60, 0
2, 118199, Note_on_c, 0, 69, 0
2, 118205, Note_on_c, 0, 57, 0
2, 118213, Note_on_c, 0, 65, 0
2, 118213, Note_on_c, 0, 50, 0
2, 118277, Note_on_c, 0, 65, 38
2, 118277, Note_on_c, 0, 50, 36
2, 118280, Note_on_c, 0, 69, 42
2, 118282, Note_on_c, 0, 57, 32
2, 118282, Note_on_c, 0, 60, 28
2, 118303, Note_on_c, 0, 60, 0
2, 118306, Note_on_c, 0, 57, 0
2, 118316, Note_on_c, 0, 50, 0
2, 118322, Note_on_c, 0, 69, 0
2, 118328, Note_on_c, 0, 65, 0
2, 118348, Note_on_c, 0, 76, 0
2, 118427, Control_c, 0, 64, 0
2, 118435, Note_on_c, 0, 49, 70
2, 118437, Note_on_c, 0, 56, 68
2, 118437, Note_on_c, 0, 77, 77
2, 118438, Note_on_c, 0, 72, 80
2, 118438, Note_on_c, 0, 65, 83
2, 118464, Control_c, 0, 64, 127
2, 118482, Note_on_c, 0, 49, 0
2, 118496, Note_on_c, 0, 56, 0
2, 118509, Note_on_c, 0, 65, 0
2, 118523, Note_on_c, 0, 72, 0
2, 118536, Note_on_c, 0, 77, 0
2, 118647, Note_on_c, 0, 53, 75
2, 118647, Note_on_c, 0, 89, 88
2, 118648, Note_on_c, 0, 63, 84
2, 118648, Note_on_c, 0, 77, 95
2, 118648, Note_on_c, 0, 58, 76
2, 118649, Note_on_c, 0, 84, 91
2, 118658, Control_c, 0, 64, 0
2, 118693, Control_c, 0, 64, 127
2, 118726, Note_on_c, 0, 53, 0
2, 118739, Note_on_c, 0, 58, 0
2, 118739, Note_on_c, 0, 77, 0
2, 118739, Note_on_c, 0, 63, 0
2, 118740, Note_on_c, 0, 84, 0
2, 118750, Note_on_c, 0, 89, 0
2, 118802, Note_on_c, 0, 51, 62
2, 118803, Note_on_c, 0, 55, 81
2, 118803, Note_on_c, 0, 62, 79
2, 118804, Control_c, 0, 64, 0
2, 118805, Note_on_c, 0, 87, 84
2, 118806, Note_on_c, 0, 91, 83
2, 118806, Note_on_c, 0, 79, 81
2, 118813, Note_on_c, 0, 58, 32
2, 118850, Control_c, 0, 64, 127
2, 118891, Note_on_c, 0, 79, 0
2, 118893, Note_on_c, 0, 55, 0
2, 118900, Note_on_c, 0, 91, 0
2, 118901, Note_on_c, 0, 62, 0
2, 118903, Note_on_c, 0, 87, 0
2, 118906, Note_on_c, 0, 51, 0
2, 118917, Note_on_c, 0, 58, 0
2, 118993, Note_on_c, 0, 96, 66
2, 118996, Note_on_c, 0, 51, 37
2, 118996, Note_on_c, 0, 84, 45
2, 118997, Note_on_c, 0, 91, 46
2, 118997, Note_on_c, 0, 62, 48
2, 118998, Control_c, 0, 64, 0
2, 118998, Note_on_c, 0, 58, 39
2, 118999, Note_on_c, 0, 55, 53
2, 119029, Note_on_c, 0, 55, 0
2, 119031, Control_c, 0, 64, 127
2, 119036, Note_on_c, 0, 51, 0
2, 119039, Note_on_c, 0, 96, 0
2, 119040, Note_on_c, 0, 91, 0
2, 119042, Note_on_c, 0, 58, 0
2, 119048, Note_on_c, 0, 62, 0
2, 119054, Note_on_c, 0, 84, 0
2, 119150, Note_on_c, 0, 66, 52
2, 119152, Note_on_c, 0, 93, 64
2, 119153, Note_on_c, 0, 86, 62
2, 119154, Note_on_c, 0, 57, 49
2, 119155, Note_on_c, 0, 81, 43
2, 119156, Note_on_c, 0, 61, 53
2, 119156, Note_on_c, 0, 62, 50
2, 119157, Control_c, 0, 64, 0
2, 119207, Control_c, 0, 64, 127
2, 119232, Note_on_c, 0, 62, 0
2, 119235, Note_on_c, 0, 57, 0
2, 119243, Note_on_c, 0, 66, 0
2, 119261, Note_on_c, 0, 61, 0
2, 119342, Note_on_c, 0, 66, 49
2, 119347, Note_on_c, 0, 57, 35
2, 119350, Note_on_c, 0, 61, 34
2, 119353, Note_on_c, 0, 62, 33
2, 119378, Note_on_c, 0, 62, 0
2, 119380, Note_on_c, 0, 57, 0
2, 119389, Note_on_c, 0, 66, 0
2, 119391, Note_on_c, 0, 61, 0
2, 119482, Note_on_c, 0, 81, 0
2, 119485, Note_on_c, 0, 86, 0
2, 119490, Note_on_c, 0, 93, 0
2, 119514, Control_c, 0, 64, 0
2, 119518, Note_on_c, 0, 65, 44
2, 119522, Note_on_c, 0, 62, 38
2, 119522, Note_on_c, 0, 60, 43
2, 119527, Note_on_c, 0, 55, 44
2, 119549, Control_c, 0, 64, 127
2, 119574, Note_on_c, 0, 60, 0
2, 119576, Note_on_c, 0, 62, 0
2, 119580, Note_on_c, 0, 55, 0
2, 119583, Note_on_c, 0, 65, 0
2, 119717, Control_c, 0, 64, 0
2, 119717, Note_on_c, 0, 62, 44
2, 119718, Note_on_c, 0, 65, 51
2, 119718, Note_on_c, 0, 60, 49
2, 119721, Note_on_c, 0, 93, 58
2, 119721, Note_on_c, 0, 81, 51
2, 119723, Note_on_c, 0, 91, 60
2, 119725, Note_on_c, 0, 55, 30
2, 119726, Note_on_c, 0, 65, 0
2, 119730, Note_on_c, 0, 81, 0
2, 119730, Control_c, 0, 64, 127
2, 119731, Note_on_c, 0, 60, 0
2, 119731, Note_on_c, 0, 91, 0
2, 119735, Note_on_c, 0, 62, 0
2, 119736, Note_on_c, 0, 55, 0
2, 119738, Note_on_c, 0, 93, 0
2, 119803, Note_on_c, 0, 62, 78
2, 119804, Note_on_c, 0, 98, 83
2, 119804, Note_on_c, 0, 65, 79
2, 119805, Note_on_c, 0, 60, 77
2, 119806, Note_on_c, 0, 86, 88
2, 119806, Note_on_c, 0, 55, 78
2, 119813, Note_on_c, 0, 88, 34
2, 119822, Note_on_c, 0, 88, 0
2, 119838, Note_on_c, 0, 98, 0
2, 119845, Note_on_c, 0, 86, 0
2, 119847, Note_on_c, 0, 62, 0
2, 119850, Note_on_c, 0, 60, 0
2, 119850, Note_on_c, 0, 65, 0
2, 119860, Note_on_c, 0, 55, 0
2, 119886, Note_on_c, 0, 55, 84
2, 119886, Note_on_c, 0, 95, 79
2, 119886, Note_on_c, 0, 64, 81
2, 119887, Note_on_c, 0, 83, 77
2, 119888, Note_on_c, 0, 88, 76
2, 119888, Note_on_c, 0, 59, 74
2, 119888, Note_on_c, 0, 60, 74
2, 119889, Note_on_c, 0, 91, 71
2, 119889, Control_c, 0, 64, 0
2, 119955, Control_c, 0, 64, 127
2, 120111, Note_on_c, 0, 59, 0
2, 120112, Note_on_c, 0, 64, 0
2, 120116, Note_on_c, 0, 60, 0
2, 120120, Note_on_c, 0, 55, 0
2, 120127, Note_on_c, 0, 88, 0
2, 120131, Note_on_c, 0, 83, 0
2, 120133, Note_on_c, 0, 91, 0
2, 120143, Note_on_c, 0, 95, 0
2, 120244, Note_on_c, 0, 96, 63
2, 120246, Control_c, 0, 64, 0
2, 120251, Note_on_c, 0, 91, 66
2, 120251, Note_on_c, 0, 63, 48
2, 120254, Note_on_c, 0, 60, 50
2, 120255, Note_on_c, 0, 58, 38
2, 120255, Note_on_c, 0, 53, 43
2, 120256, Note_on_c, 0, 84, 52
2, 120293, Control_c, 0, 64, 127
2, 120353, Note_on_c, 0, 96, 0
2, 120359, Note_on_c, 0, 91, 0
2, 120383, Note_on_c, 0, 84, 0
2, 120534, Note_on_c, 0, 60, 0
2, 120545, Note_on_c, 0, 58, 0
2, 120546, Note_on_c, 0, 53, 0
2, 120559, Note_on_c, 0, 63, 0
2, 120682, Note_on_c, 0, 72, 84
2, 120683, Note_on_c, 0, 65, 84
2, 120684, Note_on_c, 0, 69, 81
2, 120684, Note_on_c, 0, 58, 64
2, 120685, Note_on_c, 0, 62, 74
2, 120686, Note_on_c, 0, 60, 61
2, 120690, Control_c, 0, 64, 0
2, 120732, Control_c, 0, 64, 127
2, 120797, Note_on_c, 0, 62, 0
2, 120806, Note_on_c, 0, 58, 0
2, 120806, Note_on_c, 0, 60, 0
2, 120810, Note_on_c, 0, 65, 0
2, 120814, Note_on_c, 0, 69, 0
2, 120814, Note_on_c, 0, 72, 0
2, 120845, Note_on_c, 0, 72, 71
2, 120845, Note_on_c, 0, 58, 62
2, 120845, Note_on_c, 0, 65, 74
2, 120846, Note_on_c, 0, 62, 64
2, 120846, Note_on_c, 0, 69, 78
2, 120847, Control_c, 0, 64, 0
2, 120851, Note_on_c, 0, 60, 49
2, 120859, Note_on_c, 0, 60, 0
2, 120869, Note_on_c, 0, 62, 0
2, 120874, Note_on_c, 0, 65, 0
2, 120876, Note_on_c, 0, 69, 0
2, 120877, Note_on_c, 0, 72, 0
2, 120880, Note_on_c, 0, 58, 0
2, 120972, Note_on_c, 0, 57, 70
2, 120973, Note_on_c, 0, 72, 80
2, 120973, Note_on_c, 0, 69, 84
2, 120974, Note_on_c, 0, 64, 82
2, 120976, Note_on_c, 0, 54, 56
2, 121041, Control_c, 0, 64, 127
2, 121239, Note_on_c, 0, 57, 0
2, 121243, Note_on_c, 0, 72, 0
2, 121249, Note_on_c, 0, 71, 75
2, 121251, Note_on_c, 0, 54, 0
2, 121281, Note_on_c, 0, 69, 0
2, 121285, Note_on_c, 0, 64, 0
2, 121296, Note_on_c, 0, 72, 80
2, 121312, Note_on_c, 0, 71, 0
2, 121340, Note_on_c, 0, 72, 0
2, 121355, Note_on_c, 0, 74, 70
2, 121356, Control_c, 0, 64, 0
2, 121356, Note_on_c, 0, 53, 44
2, 121357, Note_on_c, 0, 62, 42
2, 121358, Note_on_c, 0, 68, 51
2, 121359, Note_on_c, 0, 65, 52
2, 121405, Control_c, 0, 64, 127
2, 121479, Note_on_c, 0, 62, 0
2, 121492, Note_on_c, 0, 65, 0
2, 121493, Note_on_c, 0, 74, 0
2, 121507, Note_on_c, 0, 68, 0
2, 121514, Note_on_c, 0, 72, 64
2, 121519, Note_on_c, 0, 62, 49
2, 121563, Note_on_c, 0, 62, 0
2, 121581, Note_on_c, 0, 72, 0
2, 121585, Note_on_c, 0, 53, 0
2, 121597, Note_on_c, 0, 74, 80
2, 121598, Note_on_c, 0, 53, 15
2, 121601, Note_on_c, 0, 62, 55
2, 121609, Note_on_c, 0, 72, 27
2, 121637, Note_on_c, 0, 72, 0
2, 121637, Note_on_c, 0, 53, 0
2, 121639, Note_on_c, 0, 62, 0
2, 121645, Note_on_c, 0, 74, 0
2, 121679, Note_on_c, 0, 76, 82
2, 121683, Note_on_c, 0, 72, 74
2, 121684, Note_on_c, 0, 56, 50
2, 121685, Control_c, 0, 64, 0
2, 121686, Note_on_c, 0, 67, 73
2, 121686, Note_on_c, 0, 62, 59
2, 121691, Note_on_c, 0, 52, 42
2, 121731, Control_c, 0, 64, 127
2, 121809, Note_on_c, 0, 56, 0
2, 121818, Note_on_c, 0, 62, 0
2, 121868, Note_on_c, 0, 62, 47
2, 121872, Note_on_c, 0, 56, 34
2, 121893, Note_on_c, 0, 62, 0
2, 121908, Note_on_c, 0, 67, 0
2, 121909, Note_on_c, 0, 52, 0
2, 121910, Note_on_c, 0, 72, 0
2, 121911, Note_on_c, 0, 56, 0
2, 121921, Note_on_c, 0, 76, 0
2, 122033, Control_c, 0, 64, 0
2, 122039, Note_on_c, 0, 61, 61
2, 122040, Note_on_c, 0, 54, 39
2, 122042, Note_on_c, 0, 77, 57
2, 122042, Note_on_c, 0, 51, 39
2, 122044, Note_on_c, 0, 58, 39
2, 122044, Note_on_c, 0, 73, 37
2, 122045, Note_on_c, 0, 70, 48
2, 122047, Note_on_c, 0, 65, 46
2, 122069, Control_c, 0, 64, 127
2, 122075, Note_on_c, 0, 58, 0
2, 122075, Note_on_c, 0, 61, 0
2, 122078, Note_on_c, 0, 54, 0
2, 122084, Note_on_c, 0, 51, 0
2, 122088, Note_on_c, 0, 65, 0
2, 122100, Note_on_c, 0, 70, 0
2, 122104, Note_on_c, 0, 73, 0
2, 122104, Note_on_c, 0, 77, 0
2, 122225, Note_on_c, 0, 80, 64
2, 122227, Note_on_c, 0, 54, 58
2, 122227, Note_on_c, 0, 65, 69
2, 122227, Note_on_c, 0, 58, 56
2, 122228, Control_c, 0, 64, 0
2, 122228, Note_on_c, 0, 68, 57
2, 122228, Note_on_c, 0, 75, 64
2, 122229, Note_on_c, 0, 61, 50
2, 122270, Control_c, 0, 64, 127
2, 122280, Note_on_c, 0, 65, 0
2, 122293, Note_on_c, 0, 75, 0
2, 122293, Note_on_c, 0, 61, 0
2, 122294, Note_on_c, 0, 58, 0
2, 122294, Note_on_c, 0, 80, 0
2, 122300, Note_on_c, 0, 68, 0
2, 122301, Note_on_c, 0, 54, 0
2, 122396, Note_on_c, 0, 50, 50
2, 122398, Note_on_c, 0, 76, 64
2, 122400, Control_c, 0, 64, 0
2, 122400, Note_on_c, 0, 68, 52
2, 122401, Note_on_c, 0, 72, 54
2, 122402, Note_on_c, 0, 64, 53
2, 122403, Note_on_c, 0, 56, 34
2, 122404, Note_on_c, 0, 60, 37
2, 122461, Control_c, 0, 64, 127
2, 122473, Note_on_c, 0, 50, 0
2, 122479, Note_on_c, 0, 56, 0
2, 122488, Note_on_c, 0, 60, 0
2, 122491, Note_on_c, 0, 64, 0
2, 122597, Note_on_c, 0, 68, 0
2, 122598, Note_on_c, 0, 72, 0
2, 122625, Note_on_c, 0, 76, 0
2, 122755, Control_c, 0, 64, 0
2, 122755, Note_on_c, 0, 86, 84
2, 122756, Note_on_c, 0, 80, 73
2, 122756, Note_on_c, 0, 59, 61
2, 122757, Note_on_c, 0, 53, 64
2, 122757, Note_on_c, 0, 74, 71
2, 122758, Note_on_c, 0, 63, 63
2, 122794, Control_c, 0, 64, 127
2, 122815, Note_on_c, 0, 86, 0
2, 122827, Note_on_c, 0, 80, 0
2, 122827, Note_on_c, 0, 63, 0
2, 122830, Note_on_c, 0, 74, 0
2, 122831, Note_on_c, 0, 53, 0
2, 122892, Note_on_c, 0, 59, 0
2, 122945, Control_c, 0, 64, 0
2, 122948, Note_on_c, 0, 59, 54
2, 122948, Note_on_c, 0, 63, 54
2, 122950, Note_on_c, 0, 53, 51
2, 122952, Note_on_c, 0, 68, 50
2, 122952, Note_on_c, 0, 80, 49
2, 122964, Note_on_c, 0, 80, 0
2, 122965, Note_on_c, 0, 63, 0
2, 122966, Note_on_c, 0, 68, 0
2, 122971, Note_on_c, 0, 53, 0
2, 122973, Control_c, 0, 64, 127
2, 122992, Note_on_c, 0, 80, 19
2, 123002, Note_on_c, 0, 59, 0
2, 123014, Note_on_c, 0, 80, 0
2, 123034, Note_on_c, 0, 81, 63
2, 123036, Note_on_c, 0, 63, 42
2, 123038, Note_on_c, 0, 69, 53
2, 123040, Note_on_c, 0, 53, 30
2, 123045, Note_on_c, 0, 63, 0
2, 123047, Note_on_c, 0, 69, 0
2, 123054, Note_on_c, 0, 53, 0
2, 123060, Note_on_c, 0, 81, 0
2, 123119, Control_c, 0, 64, 0
2, 123124, Note_on_c, 0, 48, 50
2, 123129, Note_on_c, 0, 84, 49
2, 123132, Note_on_c, 0, 72, 36
2, 123152, Control_c, 0, 64, 127
2, 123154, Note_on_c, 0, 84, 0
2, 123179, Note_on_c, 0, 72, 0
2, 123212, Note_on_c, 0, 55, 43
2, 123319, Note_on_c, 0, 63, 39
2, 123321, Note_on_c, 0, 67, 43
2, 123321, Note_on_c, 0, 62, 43
2, 123384, Note_on_c, 0, 48, 0
2, 123398, Note_on_c, 0, 62, 0
2, 123400, Note_on_c, 0, 67, 0
2, 123401, Note_on_c, 0, 63, 0
2, 123438, Note_on_c, 0, 48, 56
2, 123449, Note_on_c, 0, 48, 0
2, 123461, Note_on_c, 0, 55, 0
2, 123480, Note_on_c, 0, 72, 65
2, 123481, Note_on_c, 0, 65, 66
2, 123483, Note_on_c, 0, 48, 58
2, 123489, Control_c, 0, 64, 0
2, 123540, Control_c, 0, 64, 127
2, 123569, Note_on_c, 0, 65, 0
2, 123579, Note_on_c, 0, 72, 0
2, 123582, Note_on_c, 0, 68, 35
2, 123588, Note_on_c, 0, 60, 39
2, 123589, Note_on_c, 0, 56, 35
2, 123608, Note_on_c, 0, 60, 0
2, 123673, Note_on_c, 0, 60, 57
2, 123685, Note_on_c, 0, 68, 0
2, 123724, Note_on_c, 0, 56, 0
2, 123790, Note_on_c, 0, 56, 40
2, 123813, Note_on_c, 0, 48, 0
2, 123815, Note_on_c, 0, 60, 0
2, 123834, Note_on_c, 0, 56, 0
2, 123843, Note_on_c, 0, 74, 79
2, 123844, Note_on_c, 0, 67, 80
2, 123849, Note_on_c, 0, 48, 68
2, 123851, Control_c, 0, 64, 0
2, 123893, Control_c, 0, 64, 127
2, 123932, Note_on_c, 0, 67, 0
2, 123941, Note_on_c, 0, 74, 0
2, 123954, Note_on_c, 0, 63, 40
2, 123957, Note_on_c, 0, 67, 48
2, 123957, Note_on_c, 0, 55, 46
2, 123964, Note_on_c, 0, 72, 35
2, 124030, Note_on_c, 0, 63, 0
2, 124041, Note_on_c, 0, 60, 55
2, 124049, Note_on_c, 0, 55, 0
2, 124118, Note_on_c, 0, 67, 0
2, 124125, Note_on_c, 0, 72, 0
2, 124151, Note_on_c, 0, 60, 0
2, 124154, Note_on_c, 0, 48, 0
2, 124154, Note_on_c, 0, 55, 51
2, 124189, Note_on_c, 0, 55, 0
2, 124206, Note_on_c, 0, 68, 79
2, 124207, Note_on_c, 0, 65, 78
2, 124208, Note_on_c, 0, 60, 80
2, 124208, Note_on_c, 0, 48, 71
2, 124213, Control_c, 0, 64, 0
2, 124282, Control_c, 0, 64, 127
2, 124322, Note_on_c, 0, 65, 0
2, 124332, Note_on_c, 0, 60, 0
2, 124466, Note_on_c, 0, 48, 0
2, 124534, Note_on_c, 0, 68, 0
2, 124551, Control_c, 0, 64, 0
2, 124575, Note_on_c, 0, 63, 38
2, 124575, Note_on_c, 0, 67, 60
2, 124577, Note_on_c, 0, 62, 50
2, 124578, Note_on_c, 0, 48, 54
2, 124615, Control_c, 0, 64, 127
2, 124680, Note_on_c, 0, 62, 0
2, 124717, Note_on_c, 0, 55, 42
2, 124718, Note_on_c, 0, 60, 51
2, 124721, Note_on_c, 0, 67, 0
2, 124738, Note_on_c, 0, 63, 0
2, 124781, Note_on_c, 0, 60, 0
2, 124790, Note_on_c, 0, 62, 74
2, 124847, Note_on_c, 0, 62, 0
2, 124858, Note_on_c, 0, 63, 69
2, 124885, Note_on_c, 0, 48, 0
2, 124892, Note_on_c, 0, 63, 0
2, 124926, Note_on_c, 0, 67, 62
2, 124958, Note_on_c, 0, 55, 0
2, 124974, Note_on_c, 0, 67, 0
2, 125008, Control_c, 0, 64, 0
2, 125010, Note_on_c, 0, 68, 67
2, 125010, Note_on_c, 0, 48, 51
2, 125037, Control_c, 0, 64, 127
2, 125047, Note_on_c, 0, 68, 0
2, 125090, Note_on_c, 0, 72, 60
2, 125091, Note_on_c, 0, 56, 44
2, 125150, Note_on_c, 0, 72, 0
2, 125185, Note_on_c, 0, 60, 40
2, 125187, Note_on_c, 0, 68, 36
2, 125187, Note_on_c, 0, 72, 42
2, 125188, Note_on_c, 0, 76, 57
2, 125248, Note_on_c, 0, 56, 0
2, 125266, Note_on_c, 0, 68, 0
2, 125267, Note_on_c, 0, 76, 0
2, 125269, Note_on_c, 0, 72, 0
2, 125276, Note_on_c, 0, 79, 58
2, 125283, Note_on_c, 0, 56, 30
2, 125300, Note_on_c, 0, 79, 0
2, 125320, Note_on_c, 0, 60, 0
2, 125375, Note_on_c, 0, 84, 63
2, 125378, Note_on_c, 0, 60, 36
2, 125407, Note_on_c, 0, 84, 0
2, 125431, Note_on_c, 0, 48, 0
2, 125482, Note_on_c, 0, 60, 0
2, 125484, Note_on_c, 0, 48, 35
2, 125487, Note_on_c, 0, 88, 38
2, 125503, Note_on_c, 0, 56, 0
2, 125512, Note_on_c, 0, 48, 0
2, 125558, Note_on_c, 0, 88, 0
2, 125788, Note_on_c, 0, 36, 43
2, 125789, Note_on_c, 0, 24, 35
2, 125790, Note_on_c, 0, 91, 29
2, 125791, Control_c, 0, 64, 0
2, 125792, Note_on_c, 0, 81, 31
2, 125795, Note_on_c, 0, 86, 36
2, 125829, Control_c, 0, 64, 127
2, 125854, Note_on_c, 0, 91, 0
2, 125856, Note_on_c, 0, 86, 0
2, 125859, Note_on_c, 0, 24, 0
2, 125872, Note_on_c, 0, 36, 0
2, 125876, Note_on_c, 0, 81, 0
2, 126418, Note_on_c, 0, 88, 35
2, 126449, Note_on_c, 0, 95, 41
2, 126454, Note_on_c, 0, 91, 26
2, 126467, Note_on_c, 0, 98, 32
2, 126472, Note_on_c, 0, 100, 54
2, 126476, Note_on_c, 0, 95, 0
2, 126490, Note_on_c, 0, 98, 0
2, 126492, Note_on_c, 0, 100, 0
2, 126494, Note_on_c, 0, 103, 68
2, 126505, Note_on_c, 0, 103, 0
2, 126523, Note_on_c, 0, 107, 65
2, 126617, Note_on_c, 0, 107, 0
2, 126630, Note_on_c, 0, 91, 0
2, 126630, Note_on_c, 0, 88, 0
2, 126910, Control_c, 0, 64, 0
2, 126910, End_track
3, 0, Start_track
3, 0, Title_t, "dougmck@pipeline.com.au"
3, 0, Program_c, 1, 32
3, 0, Control_c, 1, 7, 127
3, 7, Note_on_c, 1, 46, 90
3, 321, Note_on_c, 1, 41, 35
3, 333, Note_on_c, 1, 46, 0
3, 351, Note_on_c, 1, 41, 0
3, 357, Note_on_c, 1, 45, 82
3, 681, Note_on_c, 1, 45, 0
3, 681, Note_on_c, 1, 33, 35
3, 702, Note_on_c, 1, 33, 0
3, 712, Note_on_c, 1, 38, 87
3, 965, Note_on_c, 1, 45, 76
3, 982, Note_on_c, 1, 38, 0
3, 1037, Note_on_c, 1, 38, 54
3, 1050, Note_on_c, 1, 45, 0
3, 1077, Note_on_c, 1, 44, 68
3, 1083, Note_on_c, 1, 38, 0
3, 1434, Note_on_c, 1, 31, 92
3, 1448, Note_on_c, 1, 44, 0
3, 1674, Note_on_c, 1, 31, 0
3, 1678, Note_on_c, 1, 38, 88
3, 1778, Note_on_c, 1, 37, 30
3, 1788, Note_on_c, 1, 37, 0
3, 1792, Note_on_c, 1, 38, 0
3, 1796, Note_on_c, 1, 40, 89
3, 2080, Note_on_c, 1, 52, 69
3, 2089, Note_on_c, 1, 40, 0
3, 2097, Note_on_c, 1, 52, 0
3, 2117, Note_on_c, 1, 40, 53
3, 2156, Note_on_c, 1, 40, 0
3, 2157, Note_on_c, 1, 45, 73
3, 2356, Note_on_c, 1, 40, 53
3, 2375, Note_on_c, 1, 40, 0
3, 2385, Note_on_c, 1, 45, 0
3, 2394, Note_on_c, 1, 34, 74
3, 2514, Note_on_c, 1, 34, 0
3, 2521, Note_on_c, 1, 33, 64
3, 2610, Note_on_c, 1, 40, 55
3, 2617, Note_on_c, 1, 40, 0
3, 2641, Note_on_c, 1, 49, 72
3, 2776, Note_on_c, 1, 33, 0
3, 2833, Note_on_c, 1, 40, 64
3, 2856, Note_on_c, 1, 49, 0
3, 2867, Note_on_c, 1, 40, 0
3, 2875, Note_on_c, 1, 41, 92
3, 3160, Note_on_c, 1, 38, 44
3, 3168, Note_on_c, 1, 41, 0
3, 3184, Note_on_c, 1, 38, 0
3, 3194, Note_on_c, 1, 39, 61
3, 3225, Note_on_c, 1, 39, 0
3, 3233, Note_on_c, 1, 40, 76
3, 3361, Note_on_c, 1, 55, 63
3, 3553, Note_on_c, 1, 38, 58
3, 3560, Note_on_c, 1, 40, 0
3, 3581, Note_on_c, 1, 38, 0
3, 3595, Note_on_c, 1, 39, 81
3, 3777, Note_on_c, 1, 55, 0
3, 3794, Note_on_c, 1, 54, 61
3, 3885, Note_on_c, 1, 39, 0
3, 3910, Note_on_c, 1, 39, 48
3, 3949, Note_on_c, 1, 54, 0
3, 3951, Note_on_c, 1, 39, 0
3, 3955, Note_on_c, 1, 40, 74
3, 4158, Note_on_c, 1, 39, 26
3, 4183, Note_on_c, 1, 39, 0
3, 4236, Note_on_c, 1, 40, 0
3, 4276, Note_on_c, 1, 40, 73
3, 4313, Note_on_c, 1, 40, 0
3, 4318, Note_on_c, 1, 41, 87
3, 4400, Note_on_c, 1, 36, 48
3, 4407, Note_on_c, 1, 36, 0
3, 4440, Note_on_c, 1, 29, 63
3, 4635, Note_on_c, 1, 41, 0
3, 4640, Note_on_c, 1, 36, 43
3, 4669, Note_on_c, 1, 36, 0
3, 4675, Note_on_c, 1, 41, 105
3, 4687, Note_on_c, 1, 29, 0
3, 4866, Note_on_c, 1, 41, 0
3, 4884, Note_on_c, 1, 41, 99
3, 5004, Note_on_c, 1, 39, 60
3, 5017, Note_on_c, 1, 41, 0
3, 5039, Note_on_c, 1, 39, 0
3, 5043, Note_on_c, 1, 40, 82
3, 5242, Note_on_c, 1, 39, 33
3, 5249, Note_on_c, 1, 39, 0
3, 5323, Note_on_c, 1, 47, 53
3, 5329, Note_on_c, 1, 40, 0
3, 5341, Note_on_c, 1, 47, 0
3, 5355, Note_on_c, 1, 46, 71
3, 5390, Note_on_c, 1, 46, 0
3, 5399, Note_on_c, 1, 45, 88
3, 5592, Note_on_c, 1, 40, 53
3, 5612, Note_on_c, 1, 40, 0
3, 5631, Note_on_c, 1, 33, 76
3, 5640, Note_on_c, 1, 45, 0
3, 5754, Note_on_c, 1, 33, 0
3, 5760, Note_on_c, 1, 34, 74
3, 5957, Note_on_c, 1, 41, 40
3, 5988, Note_on_c, 1, 34, 0
3, 5996, Note_on_c, 1, 50, 63
3, 6078, Note_on_c, 1, 34, 37
3, 6083, Note_on_c, 1, 41, 0
3, 6109, Note_on_c, 1, 50, 0
3, 6111, Note_on_c, 1, 34, 0
3, 6117, Note_on_c, 1, 49, 57
3, 6189, Note_on_c, 1, 34, 55
3, 6198, Note_on_c, 1, 49, 0
3, 6206, Note_on_c, 1, 34, 0
3, 6232, Note_on_c, 1, 33, 65
3, 6431, Note_on_c, 1, 33, 0
3, 6436, Note_on_c, 1, 37, 85
3, 6475, Note_on_c, 1, 37, 0
3, 6479, Note_on_c, 1, 38, 91
3, 6682, Note_on_c, 1, 37, 27
3, 6713, Note_on_c, 1, 45, 72
3, 6715, Note_on_c, 1, 37, 0
3, 6717, Note_on_c, 1, 38, 0
3, 6794, Note_on_c, 1, 38, 50
3, 6811, Note_on_c, 1, 38, 0
3, 6831, Note_on_c, 1, 45, 0
3, 6834, Note_on_c, 1, 44, 68
3, 7063, Note_on_c, 1, 38, 20
3, 7064, Note_on_c, 1, 44, 0
3, 7073, Note_on_c, 1, 38, 0
3, 7083, Note_on_c, 1, 44, 61
3, 7115, Note_on_c, 1, 44, 0
3, 7123, Note_on_c, 1, 42, 51
3, 7147, Note_on_c, 1, 42, 0
3, 7160, Note_on_c, 1, 43, 75
3, 7255, Note_on_c, 1, 38, 63
3, 7267, Note_on_c, 1, 38, 0
3, 7273, Note_on_c, 1, 43, 0
3, 7287, Note_on_c, 1, 34, 63
3, 7310, Note_on_c, 1, 34, 0
3, 7325, Note_on_c, 1, 31, 79
3, 7544, Note_on_c, 1, 39, 35
3, 7549, Note_on_c, 1, 31, 0
3, 7562, Note_on_c, 1, 40, 88
3, 7565, Note_on_c, 1, 39, 0
3, 7845, Note_on_c, 1, 35, 52
3, 7851, Note_on_c, 1, 40, 0
3, 7863, Note_on_c, 1, 35, 0
3, 7881, Note_on_c, 1, 34, 69
3, 7919, Note_on_c, 1, 34, 0
3, 7926, Note_on_c, 1, 33, 74
3, 8236, Note_on_c, 1, 40, 33
3, 8245, Note_on_c, 1, 40, 0
3, 8280, Note_on_c, 1, 48, 67
3, 8303, Note_on_c, 1, 48, 0
3, 8358, Note_on_c, 1, 40, 33
3, 8372, Note_on_c, 1, 40, 0
3, 8393, Note_on_c, 1, 49, 83
3, 8468, Note_on_c, 1, 40, 41
3, 8477, Note_on_c, 1, 40, 0
3, 8516, Note_on_c, 1, 45, 55
3, 8517, Note_on_c, 1, 33, 0
3, 8526, Note_on_c, 1, 45, 0
3, 8537, Note_on_c, 1, 49, 0
3, 8562, Note_on_c, 1, 39, 65
3, 8586, Note_on_c, 1, 39, 0
3, 8597, Note_on_c, 1, 40, 60
3, 8639, Note_on_c, 1, 40, 0
3, 8639, Note_on_c, 1, 41, 84
3, 8762, Note_on_c, 1, 52, 75
3, 8929, Note_on_c, 1, 52, 0
3, 8955, Note_on_c, 1, 53, 69
3, 9002, Note_on_c, 1, 53, 0
3, 9013, Note_on_c, 1, 41, 0
3, 9013, Note_on_c, 1, 52, 65
3, 9111, Note_on_c, 1, 52, 0
3, 9117, Note_on_c, 1, 40, 55
3, 9346, Note_on_c, 1, 40, 0
3, 9353, Note_on_c, 1, 39, 64
3, 9555, Note_on_c, 1, 54, 68
3, 9626, Note_on_c, 1, 39, 0
3, 9639, Note_on_c, 1, 38, 62
3, 9662, Note_on_c, 1, 54, 0
3, 9665, Note_on_c, 1, 38, 0
3, 9676, Note_on_c, 1, 39, 62
3, 9714, Note_on_c, 1, 40, 76
3, 9717, Note_on_c, 1, 39, 0
3, 10006, Note_on_c, 1, 40, 0
3, 10032, Note_on_c, 1, 40, 74
3, 10071, Note_on_c, 1, 40, 0
3, 10075, Note_on_c, 1, 41, 85
3, 10397, Note_on_c, 1, 36, 34
3, 10410, Note_on_c, 1, 41, 0
3, 10433, Note_on_c, 1, 36, 0
3, 10439, Note_on_c, 1, 41, 85
3, 10762, Note_on_c, 1, 39, 57
3, 10769, Note_on_c, 1, 41, 0
3, 10794, Note_on_c, 1, 39, 0
3, 10801, Note_on_c, 1, 40, 79
3, 10910, Note_on_c, 1, 40, 0
3, 10922, Note_on_c, 1, 35, 68
3, 11108, Note_on_c, 1, 35, 0
3, 11120, Note_on_c, 1, 32, 61
3, 11141, Note_on_c, 1, 32, 0
3, 11159, Note_on_c, 1, 33, 62
3, 11353, Note_on_c, 1, 40, 61
3, 11363, Note_on_c, 1, 40, 0
3, 11367, Note_on_c, 1, 33, 0
3, 11396, Note_on_c, 1, 45, 62
3, 11411, Note_on_c, 1, 45, 0
3, 11474, Note_on_c, 1, 37, 51
3, 11498, Note_on_c, 1, 37, 0
3, 11515, Note_on_c, 1, 38, 59
3, 11635, Note_on_c, 1, 54, 64
3, 11764, Note_on_c, 1, 38, 0
3, 11805, Note_on_c, 1, 37, 38
3, 11822, Note_on_c, 1, 37, 0
3, 11840, Note_on_c, 1, 37, 49
3, 11850, Note_on_c, 1, 54, 0
3, 11855, Note_on_c, 1, 37, 0
3, 11879, Note_on_c, 1, 38, 64
3, 11998, Note_on_c, 1, 55, 85
3, 12107, Note_on_c, 1, 38, 0
3, 12115, Note_on_c, 1, 33, 62
3, 12187, Note_on_c, 1, 33, 0
3, 12195, Note_on_c, 1, 37, 59
3, 12197, Note_on_c, 1, 55, 0
3, 12226, Note_on_c, 1, 37, 0
3, 12236, Note_on_c, 1, 38, 80
3, 12435, Note_on_c, 1, 54, 67
3, 12532, Note_on_c, 1, 38, 0
3, 12558, Note_on_c, 1, 34, 40
3, 12585, Note_on_c, 1, 54, 0
3, 12586, Note_on_c, 1, 34, 0
3, 12597, Note_on_c, 1, 33, 68
3, 12722, Note_on_c, 1, 55, 69
3, 12911, Note_on_c, 1, 55, 0
3, 12915, Note_on_c, 1, 33, 0
3, 12919, Note_on_c, 1, 37, 50
3, 12946, Note_on_c, 1, 37, 0
3, 12958, Note_on_c, 1, 38, 77
3, 13151, Note_on_c, 1, 37, 25
3, 13164, Note_on_c, 1, 42, 76
3, 13174, Note_on_c, 1, 37, 0
3, 13205, Note_on_c, 1, 38, 0
3, 13273, Note_on_c, 1, 38, 47
3, 13299, Note_on_c, 1, 38, 0
3, 13312, Note_on_c, 1, 42, 0
3, 13320, Note_on_c, 1, 43, 66
3, 13441, Note_on_c, 1, 33, 60
3, 13447, Note_on_c, 1, 43, 0
3, 13549, Note_on_c, 1, 33, 0
3, 13558, Note_on_c, 1, 37, 85
3, 13667, Note_on_c, 1, 37, 0
3, 13679, Note_on_c, 1, 38, 75
3, 14157, Note_on_c, 1, 45, 103
3, 14171, Note_on_c, 1, 38, 0
3, 14356, Note_on_c, 1, 38, 68
3, 14373, Note_on_c, 1, 38, 0
3, 14388, Note_on_c, 1, 45, 0
3, 14397, Note_on_c, 1, 44, 87
3, 14629, Note_on_c, 1, 44, 0
3, 14644, Note_on_c, 1, 44, 69
3, 14756, Note_on_c, 1, 44, 0
3, 14764, Note_on_c, 1, 37, 69
3, 14944, Note_on_c, 1, 37, 0
3, 14956, Note_on_c, 1, 37, 35
3, 15000, Note_on_c, 1, 49, 76
3, 15004, Note_on_c, 1, 37, 0
3, 15022, Note_on_c, 1, 49, 0
3, 15039, Note_on_c, 1, 37, 52
3, 15061, Note_on_c, 1, 37, 0
3, 15073, Note_on_c, 1, 42, 71
3, 15110, Note_on_c, 1, 42, 0
3, 15119, Note_on_c, 1, 43, 68
3, 15230, Note_on_c, 1, 43, 0
3, 15236, Note_on_c, 1, 37, 82
3, 15423, Note_on_c, 1, 37, 0
3, 15436, Note_on_c, 1, 35, 64
3, 15473, Note_on_c, 1, 35, 0
3, 15479, Note_on_c, 1, 36, 72
3, 15558, Note_on_c, 1, 50, 80
3, 15579, Note_on_c, 1, 50, 0
3, 15597, Note_on_c, 1, 48, 83
3, 15636, Note_on_c, 1, 36, 0
3, 15798, Note_on_c, 1, 40, 67
3, 15800, Note_on_c, 1, 48, 0
3, 15839, Note_on_c, 1, 40, 0
3, 15840, Note_on_c, 1, 41, 71
3, 15933, Note_on_c, 1, 40, 31
3, 15944, Note_on_c, 1, 40, 0
3, 16041, Note_on_c, 1, 40, 34
3, 16063, Note_on_c, 1, 40, 0
3, 16160, Note_on_c, 1, 47, 84
3, 16214, Note_on_c, 1, 47, 0
3, 16221, Note_on_c, 1, 41, 0
3, 16222, Note_on_c, 1, 46, 65
3, 16297, Note_on_c, 1, 46, 0
3, 16313, Note_on_c, 1, 46, 74
3, 16514, Note_on_c, 1, 41, 55
3, 16523, Note_on_c, 1, 41, 0
3, 16555, Note_on_c, 1, 40, 88
3, 16559, Note_on_c, 1, 46, 0
3, 16920, Note_on_c, 1, 45, 110
3, 16970, Note_on_c, 1, 40, 0
3, 17235, Note_on_c, 1, 40, 66
3, 17242, Note_on_c, 1, 45, 0
3, 17266, Note_on_c, 1, 40, 0
3, 17277, Note_on_c, 1, 38, 64
3, 17398, Note_on_c, 1, 53, 71
3, 17523, Note_on_c, 1, 38, 0
3, 17593, Note_on_c, 1, 38, 54
3, 17616, Note_on_c, 1, 38, 0
3, 17636, Note_on_c, 1, 37, 82
3, 17644, Note_on_c, 1, 53, 0
3, 17762, Note_on_c, 1, 53, 77
3, 17926, Note_on_c, 1, 37, 0
3, 17958, Note_on_c, 1, 37, 64
3, 17971, Note_on_c, 1, 53, 0
3, 17983, Note_on_c, 1, 37, 0
3, 17995, Note_on_c, 1, 36, 84
3, 18233, Note_on_c, 1, 48, 103
3, 18243, Note_on_c, 1, 36, 0
3, 18320, Note_on_c, 1, 36, 69
3, 18340, Note_on_c, 1, 36, 0
3, 18348, Note_on_c, 1, 48, 0
3, 18358, Note_on_c, 1, 47, 91
3, 18561, Note_on_c, 1, 42, 56
3, 18574, Note_on_c, 1, 42, 0
3, 18684, Note_on_c, 1, 35, 57
3, 18699, Note_on_c, 1, 35, 0
3, 18721, Note_on_c, 1, 34, 70
3, 18733, Note_on_c, 1, 47, 0
3, 18921, Note_on_c, 1, 46, 77
3, 18953, Note_on_c, 1, 34, 0
3, 18998, Note_on_c, 1, 31, 40
3, 19006, Note_on_c, 1, 46, 0
3, 19018, Note_on_c, 1, 31, 0
3, 19033, Note_on_c, 1, 32, 68
3, 19061, Note_on_c, 1, 32, 0
3, 19075, Note_on_c, 1, 33, 79
3, 19197, Note_on_c, 1, 45, 108
3, 19430, Note_on_c, 1, 45, 0
3, 19442, Note_on_c, 1, 44, 93
3, 19458, Note_on_c, 1, 33, 0
3, 19875, Note_on_c, 1, 44, 0
3, 19875, Note_on_c, 1, 43, 87
3, 20035, Note_on_c, 1, 43, 0
3, 20050, Note_on_c, 1, 43, 74
3, 20154, Note_on_c, 1, 43, 0
3, 20163, Note_on_c, 1, 42, 85
3, 20446, Note_on_c, 1, 42, 0
3, 20477, Note_on_c, 1, 42, 91
3, 20519, Note_on_c, 1, 42, 0
3, 20530, Note_on_c, 1, 41, 76
3, 20701, Note_on_c, 1, 41, 0
3, 20714, Note_on_c, 1, 41, 80
3, 20778, Note_on_c, 1, 41, 0
3, 20798, Note_on_c, 1, 41, 68
3, 20867, Note_on_c, 1, 41, 0
3, 20873, Note_on_c, 1, 40, 74
3, 21081, Note_on_c, 1, 35, 36
3, 21090, Note_on_c, 1, 35, 0
3, 21106, Note_on_c, 1, 40, 0
3, 21118, Note_on_c, 1, 40, 80
3, 21240, Note_on_c, 1, 39, 86
3, 21245, Note_on_c, 1, 40, 0
3, 21441, Note_on_c, 1, 46, 79
3, 21519, Note_on_c, 1, 39, 0
3, 21558, Note_on_c, 1, 39, 62
3, 21581, Note_on_c, 1, 39, 0
3, 21606, Note_on_c, 1, 38, 95
3, 21614, Note_on_c, 1, 46, 0
3, 21885, Note_on_c, 1, 44, 81
3, 21898, Note_on_c, 1, 38, 0
3, 21924, Note_on_c, 1, 38, 68
3, 21953, Note_on_c, 1, 44, 0
3, 21958, Note_on_c, 1, 38, 0
3, 21961, Note_on_c, 1, 43, 83
3, 22157, Note_on_c, 1, 38, 49
3, 22171, Note_on_c, 1, 38, 0
3, 22198, Note_on_c, 1, 35, 62
3, 22206, Note_on_c, 1, 43, 0
3, 22314, Note_on_c, 1, 35, 0
3, 22319, Note_on_c, 1, 36, 71
3, 22441, Note_on_c, 1, 48, 66
3, 22609, Note_on_c, 1, 36, 0
3, 22633, Note_on_c, 1, 35, 46
3, 22667, Note_on_c, 1, 35, 0
3, 22671, Note_on_c, 1, 48, 0
3, 22677, Note_on_c, 1, 36, 62
3, 22875, Note_on_c, 1, 44, 74
3, 22962, Note_on_c, 1, 36, 0
3, 22996, Note_on_c, 1, 35, 46
3, 23027, Note_on_c, 1, 35, 0
3, 23039, Note_on_c, 1, 36, 64
3, 23040, Note_on_c, 1, 44, 0
3, 23117, Note_on_c, 1, 43, 47
3, 23157, Note_on_c, 1, 43, 0
3, 23162, Note_on_c, 1, 51, 59
3, 23309, Note_on_c, 1, 36, 0
3, 23309, Note_on_c, 1, 43, 51
3, 23325, Note_on_c, 1, 51, 0
3, 23330, Note_on_c, 1, 43, 0
3, 23348, Note_on_c, 1, 35, 74
3, 23382, Note_on_c, 1, 35, 0
3, 23394, Note_on_c, 1, 36, 82
3, 23467, Note_on_c, 1, 44, 35
3, 23512, Note_on_c, 1, 44, 0
3, 23543, Note_on_c, 1, 48, 67
3, 23607, Note_on_c, 1, 48, 0
3, 23630, Note_on_c, 1, 48, 61
3, 23689, Note_on_c, 1, 36, 0
3, 23718, Note_on_c, 1, 35, 62
3, 23726, Note_on_c, 1, 48, 0
3, 23755, Note_on_c, 1, 35, 0
3, 23762, Note_on_c, 1, 36, 82
3, 23838, Note_on_c, 1, 43, 53
3, 23864, Note_on_c, 1, 43, 0
3, 23886, Note_on_c, 1, 51, 71
3, 23955, Note_on_c, 1, 51, 0
3, 23967, Note_on_c, 1, 51, 68
3, 24068, Note_on_c, 1, 51, 0
3, 24073, Note_on_c, 1, 36, 0
3, 24076, Note_on_c, 1, 35, 59
3, 24115, Note_on_c, 1, 35, 0
3, 24122, Note_on_c, 1, 36, 71
3, 24321, Note_on_c, 1, 44, 48
3, 24436, Note_on_c, 1, 36, 0
3, 24438, Note_on_c, 1, 35, 51
3, 24470, Note_on_c, 1, 35, 0
3, 24479, Note_on_c, 1, 36, 68
3, 24486, Note_on_c, 1, 44, 0
3, 24826, Note_on_c, 1, 36, 0
3, 24840, Note_on_c, 1, 35, 92
3, 25077, Note_on_c, 1, 47, 99
3, 25084, Note_on_c, 1, 35, 0
3, 25146, Note_on_c, 1, 47, 0
3, 25235, Note_on_c, 1, 34, 17
3, 25338, Note_on_c, 1, 46, 87
3, 25357, Note_on_c, 1, 34, 0
3, 25566, Note_on_c, 1, 46, 0
3, 25569, Note_on_c, 1, 45, 66
3, 25765, Note_on_c, 1, 40, 78
3, 25784, Note_on_c, 1, 45, 0
3, 25792, Note_on_c, 1, 40, 0
3, 25812, Note_on_c, 1, 36, 88
3, 25917, Note_on_c, 1, 36, 0
3, 25933, Note_on_c, 1, 38, 91
3, 26050, Note_on_c, 1, 50, 127
3, 26059, Note_on_c, 1, 38, 0
3, 26232, Note_on_c, 1, 50, 0
3, 26235, Note_on_c, 1, 38, 60
3, 26259, Note_on_c, 1, 38, 0
3, 26276, Note_on_c, 1, 44, 83
3, 26469, Note_on_c, 1, 32, 87
3, 26487, Note_on_c, 1, 44, 0
3, 26631, Note_on_c, 1, 43, 110
3, 26649, Note_on_c, 1, 32, 0
3, 26999, Note_on_c, 1, 43, 0
3, 27003, Note_on_c, 1, 40, 83
3, 27217, Note_on_c, 1, 36, 47
3, 27230, Note_on_c, 1, 40, 0
3, 27232, Note_on_c, 1, 36, 0
3, 27242, Note_on_c, 1, 52, 78
3, 27450, Note_on_c, 1, 39, 46
3, 27459, Note_on_c, 1, 39, 0
3, 27472, Note_on_c, 1, 52, 0
3, 27482, Note_on_c, 1, 45, 78
3, 27803, Note_on_c, 1, 33, 84
3, 27813, Note_on_c, 1, 45, 0
3, 27847, Note_on_c, 1, 49, 79
3, 27954, Note_on_c, 1, 33, 0
3, 27957, Note_on_c, 1, 49, 0
3, 27970, Note_on_c, 1, 49, 82
3, 28086, Note_on_c, 1, 49, 0
3, 28091, Note_on_c, 1, 41, 79
3, 28290, Note_on_c, 1, 36, 58
3, 28298, Note_on_c, 1, 41, 0
3, 28315, Note_on_c, 1, 36, 0
3, 28333, Note_on_c, 1, 33, 68
3, 28443, Note_on_c, 1, 33, 0
3, 28451, Note_on_c, 1, 40, 79
3, 28793, Note_on_c, 1, 40, 0
3, 28803, Note_on_c, 1, 39, 84
3, 29017, Note_on_c, 1, 39, 0
3, 29090, Note_on_c, 1, 38, 55
3, 29116, Note_on_c, 1, 38, 0
3, 29132, Note_on_c, 1, 39, 53
3, 29157, Note_on_c, 1, 39, 0
3, 29174, Note_on_c, 1, 40, 85
3, 29230, Pitch_bend_c, 1, 8192
3, 29233, Pitch_bend_c, 1, 8192
3, 29237, Pitch_bend_c, 1, 7680
3, 29239, Pitch_bend_c, 1, 7424
3, 29241, Pitch_bend_c, 1, 7296
3, 29243, Pitch_bend_c, 1, 7168
3, 29245, Pitch_bend_c, 1, 6912
3, 29247, Pitch_bend_c, 1, 6656
3, 29249, Pitch_bend_c, 1, 6528
3, 29251, Pitch_bend_c, 1, 6272
3, 29253, Pitch_bend_c, 1, 6016
3, 29255, Pitch_bend_c, 1, 5760
3, 29257, Pitch_bend_c, 1, 5632
3, 29259, Pitch_bend_c, 1, 5376
3, 29261, Pitch_bend_c, 1, 5120
3, 29263, Pitch_bend_c, 1, 4992
3, 29265, Pitch_bend_c, 1, 4736
3, 29267, Pitch_bend_c, 1, 4608
3, 29269, Pitch_bend_c, 1, 4480
3, 29271, Pitch_bend_c, 1, 4224
3, 29273, Pitch_bend_c, 1, 4096
3, 29275, Pitch_bend_c, 1, 3968
3, 29277, Pitch_bend_c, 1, 3840
3, 29281, Pitch_bend_c, 1, 3584
3, 29286, Pitch_bend_c, 1, 3456
3, 29293, Pitch_bend_c, 1, 3840
3, 29295, Pitch_bend_c, 1, 4096
3, 29297, Pitch_bend_c, 1, 4608
3, 29299, Pitch_bend_c, 1, 4992
3, 29301, Pitch_bend_c, 1, 5504
3, 29303, Note_on_c, 1, 40, 0
3, 29303, Pitch_bend_c, 1, 5760
3, 29305, Pitch_bend_c, 1, 6016
3, 29307, Pitch_bend_c, 1, 6272
3, 29309, Pitch_bend_c, 1, 6528
3, 29311, Pitch_bend_c, 1, 6656
3, 29313, Pitch_bend_c, 1, 6912
3, 29315, Pitch_bend_c, 1, 7168
3, 29317, Pitch_bend_c, 1, 7552
3, 29319, Pitch_bend_c, 1, 8192
3, 29320, Pitch_bend_c, 1, 8192
3, 29530, Note_on_c, 1, 41, 108
3, 29720, Note_on_c, 1, 41, 0
3, 29724, Note_on_c, 1, 40, 52
3, 29757, Note_on_c, 1, 40, 0
3, 29766, Note_on_c, 1, 41, 64
3, 29851, Note_on_c, 1, 41, 0
3, 29882, Note_on_c, 1, 53, 83
3, 30194, Note_on_c, 1, 41, 61
3, 30199, Note_on_c, 1, 53, 0
3, 30206, Note_on_c, 1, 41, 0
3, 30232, Note_on_c, 1, 52, 92
3, 30360, Note_on_c, 1, 40, 95
3, 30366, Note_on_c, 1, 52, 0
3, 30595, Note_on_c, 1, 40, 0
3, 30605, Note_on_c, 1, 33, 88
3, 30808, Note_on_c, 1, 45, 105
3, 30822, Note_on_c, 1, 33, 0
3, 30934, Note_on_c, 1, 33, 62
3, 30953, Note_on_c, 1, 45, 0
3, 30955, Note_on_c, 1, 33, 0
3, 30979, Note_on_c, 1, 46, 90
3, 31291, Note_on_c, 1, 46, 0
3, 31328, Note_on_c, 1, 45, 105
3, 31368, Pitch_bend_c, 1, 8192
3, 31374, Pitch_bend_c, 1, 8192
3, 31377, Pitch_bend_c, 1, 8192
3, 31382, Pitch_bend_c, 1, 8192
3, 31387, Pitch_bend_c, 1, 7680
3, 31389, Pitch_bend_c, 1, 7552
3, 31393, Pitch_bend_c, 1, 7424
3, 31395, Pitch_bend_c, 1, 7296
3, 31397, Pitch_bend_c, 1, 7168
3, 31401, Pitch_bend_c, 1, 6912
3, 31403, Pitch_bend_c, 1, 6784
3, 31405, Pitch_bend_c, 1, 6656
3, 31407, Pitch_bend_c, 1, 6528
3, 31409, Pitch_bend_c, 1, 6272
3, 31411, Pitch_bend_c, 1, 6144
3, 31413, Pitch_bend_c, 1, 5888
3, 31415, Pitch_bend_c, 1, 5760
3, 31417, Pitch_bend_c, 1, 5632
3, 31419, Pitch_bend_c, 1, 5504
3, 31421, Pitch_bend_c, 1, 5120
3, 31423, Pitch_bend_c, 1, 4992
3, 31425, Pitch_bend_c, 1, 4864
3, 31427, Pitch_bend_c, 1, 4736
3, 31429, Pitch_bend_c, 1, 4608
3, 31431, Pitch_bend_c, 1, 4352
3, 31433, Pitch_bend_c, 1, 4224
3, 31435, Pitch_bend_c, 1, 4096
3, 31437, Pitch_bend_c, 1, 3968
3, 31439, Pitch_bend_c, 1, 3840
3, 31443, Pitch_bend_c, 1, 3584
3, 31447, Pitch_bend_c, 1, 3456
3, 31451, Pitch_bend_c, 1, 3200
3, 31453, Pitch_bend_c, 1, 3072
3, 31455, Pitch_bend_c, 1, 2944
3, 31457, Pitch_bend_c, 1, 2816
3, 31461, Pitch_bend_c, 1, 2560
3, 31463, Pitch_bend_c, 1, 2432
3, 31465, Pitch_bend_c, 1, 2304
3, 31467, Pitch_bend_c, 1, 2048
3, 31469, Pitch_bend_c, 1, 1920
3, 31471, Pitch_bend_c, 1, 1792
3, 31475, Pitch_bend_c, 1, 1536
3, 31477, Pitch_bend_c, 1, 1408
3, 31481, Pitch_bend_c, 1, 1152
3, 31485, Pitch_bend_c, 1, 1024
3, 31497, Pitch_bend_c, 1, 1152
3, 31499, Pitch_bend_c, 1, 1408
3, 31501, Note_on_c, 1, 45, 0
3, 31501, Pitch_bend_c, 1, 1536
3, 31503, Pitch_bend_c, 1, 1920
3, 31505, Pitch_bend_c, 1, 2944
3, 31507, Pitch_bend_c, 1, 3840
3, 31509, Pitch_bend_c, 1, 4992
3, 31511, Pitch_bend_c, 1, 6528
3, 31513, Pitch_bend_c, 1, 8192
3, 31514, Pitch_bend_c, 1, 8192
3, 31803, Note_on_c, 1, 38, 75
3, 31927, Note_on_c, 1, 45, 110
3, 31939, Note_on_c, 1, 38, 0
3, 32000, Note_on_c, 1, 38, 63
3, 32028, Note_on_c, 1, 45, 0
3, 32029, Note_on_c, 1, 38, 0
3, 32046, Note_on_c, 1, 44, 88
3, 32282, Note_on_c, 1, 46, 15
3, 32365, Note_on_c, 1, 38, 58
3, 32375, Note_on_c, 1, 38, 0
3, 32385, Note_on_c, 1, 46, 0
3, 32389, Note_on_c, 1, 44, 0
3, 32403, Note_on_c, 1, 43, 72
3, 32477, Note_on_c, 1, 43, 0
3, 32488, Note_on_c, 1, 38, 60
3, 32514, Note_on_c, 1, 38, 0
3, 32530, Note_on_c, 1, 34, 77
3, 32743, Note_on_c, 1, 34, 0
3, 32751, Note_on_c, 1, 38, 37
3, 32762, Note_on_c, 1, 38, 0
3, 32781, Note_on_c, 1, 40, 82
3, 32964, Note_on_c, 1, 52, 101
3, 33007, Note_on_c, 1, 40, 0
3, 33092, Note_on_c, 1, 40, 57
3, 33112, Note_on_c, 1, 40, 0
3, 33118, Note_on_c, 1, 52, 0
3, 33133, Note_on_c, 1, 48, 99
3, 33226, Note_on_c, 1, 39, 23
3, 33235, Note_on_c, 1, 39, 0
3, 33323, Note_on_c, 1, 45, 92
3, 33339, Note_on_c, 1, 48, 0
3, 33451, Note_on_c, 1, 40, 68
3, 33474, Note_on_c, 1, 40, 0
3, 33484, Note_on_c, 1, 45, 0
3, 33492, Note_on_c, 1, 33, 91
3, 33659, Note_on_c, 1, 33, 0
3, 33671, Note_on_c, 1, 40, 105
3, 33680, Note_on_c, 1, 33, 54
3, 33681, Note_on_c, 1, 35, 55
3, 33689, Note_on_c, 1, 33, 0
3, 33691, Note_on_c, 1, 35, 0
3, 33794, Note_on_c, 1, 39, 53
3, 33814, Note_on_c, 1, 40, 0
3, 33832, Note_on_c, 1, 39, 0
3, 33843, Note_on_c, 1, 41, 110
3, 34034, Note_on_c, 1, 45, 115
3, 34073, Note_on_c, 1, 41, 0
3, 34201, Note_on_c, 1, 45, 0
3, 34209, Note_on_c, 1, 40, 88
3, 34403, Note_on_c, 1, 43, 82
3, 34446, Note_on_c, 1, 40, 0
3, 34521, Note_on_c, 1, 40, 48
3, 34553, Note_on_c, 1, 40, 0
3, 34565, Note_on_c, 1, 43, 0
3, 34569, Note_on_c, 1, 39, 82
3, 34765, Note_on_c, 1, 42, 92
3, 34817, Note_on_c, 1, 39, 0
3, 34884, Note_on_c, 1, 39, 54
3, 34919, Note_on_c, 1, 39, 0
3, 34926, Note_on_c, 1, 42, 0
3, 34928, Note_on_c, 1, 40, 94
3, 35119, Note_on_c, 1, 43, 110
3, 35145, Note_on_c, 1, 40, 0
3, 35239, Note_on_c, 1, 40, 62
3, 35259, Note_on_c, 1, 40, 0
3, 35274, Note_on_c, 1, 43, 0
3, 35281, Note_on_c, 1, 41, 88
3, 35758, Note_on_c, 1, 53, 101
3, 35780, Note_on_c, 1, 41, 0
3, 35884, Note_on_c, 1, 53, 0
3, 36123, Note_on_c, 1, 52, 96
3, 36323, Note_on_c, 1, 52, 0
3, 36323, Note_on_c, 1, 40, 60
3, 36335, Note_on_c, 1, 40, 0
3, 36363, Note_on_c, 1, 45, 80
3, 36559, Note_on_c, 1, 40, 66
3, 36574, Note_on_c, 1, 45, 0
3, 36587, Note_on_c, 1, 40, 0
3, 36601, Note_on_c, 1, 39, 62
3, 36712, Note_on_c, 1, 39, 0
3, 36726, Note_on_c, 1, 38, 66
3, 36843, Note_on_c, 1, 54, 94
3, 36923, Note_on_c, 1, 54, 0
3, 36964, Note_on_c, 1, 54, 92
3, 37169, Note_on_c, 1, 38, 0
3, 37222, Note_on_c, 1, 38, 90
3, 37235, Note_on_c, 1, 54, 0
3, 37535, Note_on_c, 1, 45, 49
3, 37546, Note_on_c, 1, 45, 0
3, 37579, Note_on_c, 1, 55, 108
3, 37682, Note_on_c, 1, 55, 0
3, 37691, Note_on_c, 1, 54, 86
3, 37720, Note_on_c, 1, 38, 0
3, 37811, Note_on_c, 1, 38, 84
3, 37816, Note_on_c, 1, 54, 0
3, 37978, Note_on_c, 1, 38, 0
3, 38005, Note_on_c, 1, 45, 99
3, 38169, Note_on_c, 1, 54, 90
3, 38181, Note_on_c, 1, 45, 0
3, 38357, Note_on_c, 1, 54, 0
3, 38362, Note_on_c, 1, 50, 88
3, 38521, Note_on_c, 1, 50, 0
3, 38529, Note_on_c, 1, 45, 99
3, 38692, Note_on_c, 1, 45, 0
3, 38723, Note_on_c, 1, 45, 92
3, 38879, Note_on_c, 1, 45, 0
3, 38891, Note_on_c, 1, 38, 88
3, 39082, Note_on_c, 1, 38, 0
3, 39082, Note_on_c, 1, 45, 92
3, 39249, Note_on_c, 1, 57, 101
3, 39388, Note_on_c, 1, 45, 0
3, 39443, Note_on_c, 1, 45, 95
3, 39584, Note_on_c, 1, 45, 0
3, 39585, Note_on_c, 1, 57, 0
3, 39597, Note_on_c, 1, 44, 84
3, 39775, Note_on_c, 1, 44, 0
3, 39800, Note_on_c, 1, 44, 87
3, 39962, Note_on_c, 1, 49, 92
3, 39977, Note_on_c, 1, 44, 0
3, 40276, Note_on_c, 1, 44, 70
3, 40306, Note_on_c, 1, 44, 0
3, 40306, Note_on_c, 1, 49, 0
3, 40322, Note_on_c, 1, 43, 80
3, 40510, Note_on_c, 1, 43, 0
3, 40524, Note_on_c, 1, 37, 83
3, 40653, Note_on_c, 1, 34, 34
3, 40670, Note_on_c, 1, 37, 0
3, 40684, Note_on_c, 1, 34, 0
3, 40688, Note_on_c, 1, 36, 74
3, 40906, Note_on_c, 1, 36, 0
3, 40926, Note_on_c, 1, 39, 52
3, 40954, Note_on_c, 1, 39, 0
3, 41000, Note_on_c, 1, 40, 76
3, 41033, Note_on_c, 1, 40, 0
3, 41047, Note_on_c, 1, 41, 87
3, 41255, Note_on_c, 1, 39, 30
3, 41284, Note_on_c, 1, 47, 90
3, 41297, Note_on_c, 1, 41, 0
3, 41300, Note_on_c, 1, 39, 0
3, 41363, Note_on_c, 1, 41, 63
3, 41388, Note_on_c, 1, 41, 0
3, 41391, Note_on_c, 1, 47, 0
3, 41408, Note_on_c, 1, 46, 86
3, 41725, Note_on_c, 1, 44, 72
3, 41736, Note_on_c, 1, 46, 0
3, 41747, Note_on_c, 1, 44, 0
3, 41772, Note_on_c, 1, 40, 82
3, 41951, Note_on_c, 1, 34, 84
3, 41959, Note_on_c, 1, 40, 0
3, 42120, Note_on_c, 1, 34, 0
3, 42138, Note_on_c, 1, 33, 68
3, 42318, Note_on_c, 1, 33, 0
3, 42325, Note_on_c, 1, 39, 80
3, 42444, Note_on_c, 1, 37, 60
3, 42456, Note_on_c, 1, 39, 0
3, 42479, Note_on_c, 1, 37, 0
3, 42487, Note_on_c, 1, 38, 73
3, 42787, Note_on_c, 1, 53, 90
3, 42839, Note_on_c, 1, 53, 0
3, 42848, Note_on_c, 1, 38, 0
3, 42850, Note_on_c, 1, 52, 85
3, 42924, Note_on_c, 1, 52, 0
3, 42950, Note_on_c, 1, 37, 78
3, 43160, Note_on_c, 1, 34, 35
3, 43178, Note_on_c, 1, 37, 0
3, 43184, Note_on_c, 1, 34, 0
3, 43195, Note_on_c, 1, 36, 87
3, 43427, Note_on_c, 1, 48, 110
3, 43443, Note_on_c, 1, 36, 0
3, 43520, Note_on_c, 1, 36, 61
3, 43541, Note_on_c, 1, 36, 0
3, 43550, Note_on_c, 1, 48, 0
3, 43562, Note_on_c, 1, 47, 92
3, 43800, Note_on_c, 1, 35, 91
3, 43802, Note_on_c, 1, 47, 0
3, 43912, Note_on_c, 1, 35, 0
3, 43924, Note_on_c, 1, 34, 83
3, 44162, Note_on_c, 1, 46, 94
3, 44190, Note_on_c, 1, 34, 0
3, 44250, Note_on_c, 1, 34, 52
3, 44273, Note_on_c, 1, 46, 0
3, 44278, Note_on_c, 1, 34, 0
3, 44288, Note_on_c, 1, 45, 95
3, 44520, Note_on_c, 1, 33, 85
3, 44529, Note_on_c, 1, 45, 0
3, 44639, Note_on_c, 1, 33, 0
3, 44650, Note_on_c, 1, 32, 85
3, 44880, Note_on_c, 1, 44, 87
3, 44893, Note_on_c, 1, 32, 0
3, 44993, Note_on_c, 1, 44, 0
3, 45079, Note_on_c, 1, 43, 96
3, 45198, Note_on_c, 1, 43, 0
3, 45210, Note_on_c, 1, 31, 39
3, 45223, Note_on_c, 1, 31, 0
3, 45249, Note_on_c, 1, 43, 87
3, 45333, Note_on_c, 1, 43, 0
3, 45368, Note_on_c, 1, 42, 88
3, 45685, Note_on_c, 1, 36, 63
3, 45694, Note_on_c, 1, 36, 0
3, 45718, Note_on_c, 1, 42, 0
3, 45725, Note_on_c, 1, 41, 88
3, 46013, Note_on_c, 1, 38, 61
3, 46031, Note_on_c, 1, 38, 0
3, 46048, Note_on_c, 1, 39, 69
3, 46052, Note_on_c, 1, 41, 0
3, 46070, Note_on_c, 1, 39, 0
3, 46091, Note_on_c, 1, 40, 85
3, 46422, Note_on_c, 1, 40, 0
3, 46430, Note_on_c, 1, 39, 85
3, 46757, Note_on_c, 1, 37, 45
3, 46775, Note_on_c, 1, 39, 0
3, 46787, Note_on_c, 1, 37, 0
3, 46796, Note_on_c, 1, 38, 80
3, 46994, Note_on_c, 1, 44, 97
3, 47023, Note_on_c, 1, 38, 0
3, 47124, Note_on_c, 1, 38, 69
3, 47145, Note_on_c, 1, 38, 0
3, 47158, Note_on_c, 1, 44, 0
3, 47164, Note_on_c, 1, 43, 88
3, 47476, Note_on_c, 1, 38, 67
3, 47503, Note_on_c, 1, 38, 0
3, 47503, Note_on_c, 1, 43, 0
3, 47524, Note_on_c, 1, 36, 89
3, 47715, Note_on_c, 1, 48, 99
3, 47904, Note_on_c, 1, 36, 0
3, 48007, Note_on_c, 1, 36, 88
3, 48019, Note_on_c, 1, 48, 0
3, 48199, Note_on_c, 1, 44, 91
3, 48231, Note_on_c, 1, 36, 0
3, 48321, Note_on_c, 1, 36, 80
3, 48333, Note_on_c, 1, 44, 0
3, 48343, Note_on_c, 1, 36, 0
3, 48366, Note_on_c, 1, 36, 94
3, 48478, Note_on_c, 1, 48, 105
3, 48632, Note_on_c, 1, 36, 0
3, 48680, Note_on_c, 1, 36, 77
3, 48690, Note_on_c, 1, 48, 0
3, 48730, Note_on_c, 1, 44, 81
3, 48781, Note_on_c, 1, 44, 0
3, 48840, Note_on_c, 1, 44, 93
3, 48844, Note_on_c, 1, 36, 0
3, 48965, Note_on_c, 1, 44, 0
3, 48965, Note_on_c, 1, 36, 88
3, 49088, Note_on_c, 1, 48, 108
3, 49108, Note_on_c, 1, 36, 0
3, 49320, Note_on_c, 1, 48, 0
3, 49325, Note_on_c, 1, 36, 84
3, 49442, Note_on_c, 1, 44, 84
3, 49558, Note_on_c, 1, 36, 0
3, 49680, Note_on_c, 1, 36, 91
3, 49697, Note_on_c, 1, 44, 0
3, 49804, Note_on_c, 1, 48, 108
3, 49886, Note_on_c, 1, 36, 0
3, 50001, Note_on_c, 1, 36, 66
3, 50013, Note_on_c, 1, 36, 0
3, 50023, Note_on_c, 1, 48, 0
3, 50044, Note_on_c, 1, 47, 92
3, 50349, Note_on_c, 1, 47, 0
3, 50531, Note_on_c, 1, 34, 72
3, 50727, Note_on_c, 1, 40, 35
3, 50745, Note_on_c, 1, 34, 0
3, 50758, Note_on_c, 1, 40, 0
3, 50761, Note_on_c, 1, 45, 71
3, 50958, Note_on_c, 1, 40, 56
3, 50967, Note_on_c, 1, 45, 0
3, 50988, Note_on_c, 1, 40, 0
3, 50999, Note_on_c, 1, 39, 67
3, 51109, Note_on_c, 1, 39, 0
3, 51127, Note_on_c, 1, 38, 52
3, 51254, Note_on_c, 1, 50, 81
3, 51262, Note_on_c, 1, 38, 0
3, 51450, Note_on_c, 1, 50, 0
3, 51452, Note_on_c, 1, 45, 56
3, 51488, Note_on_c, 1, 45, 0
3, 51501, Note_on_c, 1, 44, 56
3, 51576, Note_on_c, 1, 39, 48
3, 51589, Note_on_c, 1, 44, 0
3, 51605, Note_on_c, 1, 39, 0
3, 51618, Note_on_c, 1, 39, 34
3, 51707, Note_on_c, 1, 39, 0
3, 51738, Note_on_c, 1, 32, 47
3, 51842, Note_on_c, 1, 32, 0
3, 51857, Note_on_c, 1, 31, 48
3, 52044, Note_on_c, 1, 38, 30
3, 52056, Note_on_c, 1, 38, 0
3, 52059, Note_on_c, 1, 31, 0
3, 52066, Note_on_c, 1, 43, 70
3, 52166, Note_on_c, 1, 38, 32
3, 52184, Note_on_c, 1, 43, 0
3, 52199, Note_on_c, 1, 38, 0
3, 52214, Note_on_c, 1, 40, 49
3, 52397, Note_on_c, 1, 39, 52
3, 52423, Note_on_c, 1, 40, 0
3, 52428, Note_on_c, 1, 39, 0
3, 52439, Note_on_c, 1, 52, 96
3, 52630, Note_on_c, 1, 44, 39
3, 52662, Note_on_c, 1, 52, 0
3, 52669, Note_on_c, 1, 44, 0
3, 52669, Note_on_c, 1, 45, 66
3, 52864, Note_on_c, 1, 45, 0
3, 52864, Note_on_c, 1, 44, 35
3, 52891, Note_on_c, 1, 44, 0
3, 52908, Note_on_c, 1, 45, 71
3, 53160, Note_on_c, 1, 49, 58
3, 53173, Note_on_c, 1, 45, 0
3, 53177, Note_on_c, 1, 49, 0
3, 53235, Note_on_c, 1, 40, 50
3, 53266, Note_on_c, 1, 40, 0
3, 53277, Note_on_c, 1, 41, 62
3, 53491, Note_on_c, 1, 41, 0
3, 53517, Note_on_c, 1, 41, 67
3, 53615, Note_on_c, 1, 39, 25
3, 53617, Note_on_c, 1, 41, 0
3, 53640, Note_on_c, 1, 39, 0
3, 53642, Note_on_c, 1, 40, 64
3, 53771, Note_on_c, 1, 52, 91
3, 53783, Note_on_c, 1, 40, 0
3, 53968, Note_on_c, 1, 40, 57
3, 53983, Note_on_c, 1, 40, 0
3, 53990, Note_on_c, 1, 52, 0
3, 54014, Note_on_c, 1, 51, 69
3, 54092, Note_on_c, 1, 48, 46
3, 54113, Note_on_c, 1, 48, 0
3, 54116, Note_on_c, 1, 51, 0
3, 54133, Note_on_c, 1, 45, 47
3, 54247, Note_on_c, 1, 45, 0
3, 54252, Note_on_c, 1, 39, 43
3, 54338, Note_on_c, 1, 37, 25
3, 54365, Note_on_c, 1, 37, 0
3, 54365, Note_on_c, 1, 40, 60
3, 54367, Note_on_c, 1, 39, 0
3, 54456, Note_on_c, 1, 39, 34
3, 54478, Note_on_c, 1, 39, 0
3, 54479, Note_on_c, 1, 40, 0
3, 54481, Note_on_c, 1, 52, 91
3, 54557, Note_on_c, 1, 39, 39
3, 54578, Note_on_c, 1, 39, 0
3, 54611, Note_on_c, 1, 41, 34
3, 54612, Note_on_c, 1, 43, 34
3, 54627, Note_on_c, 1, 43, 0
3, 54640, Note_on_c, 1, 41, 0
3, 54658, Note_on_c, 1, 52, 0
3, 54679, Note_on_c, 1, 40, 57
3, 54714, Note_on_c, 1, 40, 0
3, 54720, Note_on_c, 1, 41, 69
3, 54840, Note_on_c, 1, 41, 0
3, 54845, Note_on_c, 1, 45, 77
3, 54936, Note_on_c, 1, 40, 17
3, 54950, Note_on_c, 1, 40, 0
3, 55039, Note_on_c, 1, 40, 64
3, 55045, Note_on_c, 1, 45, 0
3, 55075, Note_on_c, 1, 40, 0
3, 55084, Note_on_c, 1, 41, 73
3, 55203, Note_on_c, 1, 53, 90
3, 55334, Note_on_c, 1, 41, 0
3, 55402, Note_on_c, 1, 41, 65
3, 55412, Note_on_c, 1, 41, 0
3, 55416, Note_on_c, 1, 53, 0
3, 55441, Note_on_c, 1, 52, 74
3, 55559, Note_on_c, 1, 47, 56
3, 55604, Note_on_c, 1, 52, 0
3, 55641, Note_on_c, 1, 40, 45
3, 55658, Note_on_c, 1, 40, 0
3, 55667, Note_on_c, 1, 47, 0
3, 55683, Note_on_c, 1, 44, 52
3, 55758, Note_on_c, 1, 40, 49
3, 55769, Note_on_c, 1, 40, 0
3, 55787, Note_on_c, 1, 44, 0
3, 55796, Note_on_c, 1, 45, 57
3, 55907, Note_on_c, 1, 45, 0
3, 55916, Note_on_c, 1, 40, 64
3, 56102, Note_on_c, 1, 36, 60
3, 56106, Note_on_c, 1, 40, 0
3, 56123, Note_on_c, 1, 36, 0
3, 56151, Note_on_c, 1, 34, 73
3, 56360, Note_on_c, 1, 50, 94
3, 56509, Note_on_c, 1, 50, 0
3, 56524, Note_on_c, 1, 49, 75
3, 56545, Note_on_c, 1, 34, 0
3, 56729, Note_on_c, 1, 33, 84
3, 56798, Note_on_c, 1, 49, 0
3, 56893, Note_on_c, 1, 33, 0
3, 56896, Note_on_c, 1, 38, 83
3, 57087, Note_on_c, 1, 53, 99
3, 57200, Note_on_c, 1, 38, 0
3, 57263, Note_on_c, 1, 44, 79
3, 57279, Note_on_c, 1, 53, 0
3, 57427, Note_on_c, 1, 44, 0
3, 57442, Note_on_c, 1, 44, 83
3, 57565, Note_on_c, 1, 42, 43
3, 57592, Note_on_c, 1, 44, 0
3, 57599, Note_on_c, 1, 42, 0
3, 57605, Note_on_c, 1, 43, 71
3, 57711, Note_on_c, 1, 43, 0
3, 57720, Note_on_c, 1, 38, 57
3, 57826, Note_on_c, 1, 38, 0
3, 57845, Note_on_c, 1, 34, 36
3, 57895, Note_on_c, 1, 34, 0
3, 57925, Note_on_c, 1, 39, 64
3, 57954, Note_on_c, 1, 39, 0
3, 57971, Note_on_c, 1, 40, 60
3, 58077, Note_on_c, 1, 40, 0
3, 58090, Note_on_c, 1, 35, 51
3, 58210, Note_on_c, 1, 35, 0
3, 58210, Note_on_c, 1, 47, 90
3, 58280, Note_on_c, 1, 47, 0
3, 58293, Note_on_c, 1, 46, 73
3, 58323, Note_on_c, 1, 46, 0
3, 58342, Note_on_c, 1, 45, 71
3, 58430, Note_on_c, 1, 45, 0
3, 58449, Note_on_c, 1, 40, 64
3, 58682, Note_on_c, 1, 32, 57
3, 58688, Note_on_c, 1, 40, 0
3, 58688, Note_on_c, 1, 33, 80
3, 58728, Note_on_c, 1, 32, 0
3, 58808, Note_on_c, 1, 45, 99
3, 58817, Note_on_c, 1, 33, 0
3, 59007, Note_on_c, 1, 40, 70
3, 59012, Note_on_c, 1, 45, 0
3, 59038, Note_on_c, 1, 40, 0
3, 59053, Note_on_c, 1, 41, 57
3, 59137, Note_on_c, 1, 39, 43
3, 59159, Note_on_c, 1, 41, 0
3, 59167, Note_on_c, 1, 50, 85
3, 59171, Note_on_c, 1, 39, 0
3, 59243, Note_on_c, 1, 41, 18
3, 59258, Note_on_c, 1, 41, 0
3, 59267, Note_on_c, 1, 50, 0
3, 59278, Note_on_c, 1, 48, 70
3, 59358, Note_on_c, 1, 41, 35
3, 59374, Note_on_c, 1, 41, 0
3, 59382, Note_on_c, 1, 48, 0
3, 59396, Note_on_c, 1, 47, 54
3, 59504, Note_on_c, 1, 47, 0
3, 59515, Note_on_c, 1, 43, 58
3, 59640, Note_on_c, 1, 40, 54
3, 59728, Note_on_c, 1, 43, 0
3, 59742, Note_on_c, 1, 40, 0
3, 59757, Note_on_c, 1, 39, 78
3, 59957, Note_on_c, 1, 45, 24
3, 59970, Note_on_c, 1, 45, 0
3, 59996, Note_on_c, 1, 48, 71
3, 60003, Note_on_c, 1, 39, 0
3, 60069, Note_on_c, 1, 48, 0
3, 60070, Note_on_c, 1, 39, 46
3, 60105, Note_on_c, 1, 39, 0
3, 60115, Note_on_c, 1, 40, 68
3, 60318, Note_on_c, 1, 52, 83
3, 60338, Note_on_c, 1, 40, 0
3, 60343, Note_on_c, 1, 52, 0
3, 60364, Note_on_c, 1, 48, 51
3, 60432, Note_on_c, 1, 48, 0
3, 60432, Note_on_c, 1, 40, 53
3, 60469, Note_on_c, 1, 40, 0
3, 60476, Note_on_c, 1, 41, 64
3, 60586, Note_on_c, 1, 41, 0
3, 60598, Note_on_c, 1, 43, 60
3, 60679, Note_on_c, 1, 40, 34
3, 60694, Note_on_c, 1, 40, 0
3, 60702, Note_on_c, 1, 43, 0
3, 60715, Note_on_c, 1, 45, 66
3, 60795, Note_on_c, 1, 40, 34
3, 60817, Note_on_c, 1, 45, 0
3, 60828, Note_on_c, 1, 40, 0
3, 60844, Note_on_c, 1, 41, 46
3, 60923, Note_on_c, 1, 39, 46
3, 60944, Note_on_c, 1, 41, 0
3, 60956, Note_on_c, 1, 50, 92
3, 60963, Note_on_c, 1, 39, 0
3, 61028, Note_on_c, 1, 39, 25
3, 61041, Note_on_c, 1, 39, 0
3, 61063, Note_on_c, 1, 50, 0
3, 61077, Note_on_c, 1, 48, 57
3, 61164, Note_on_c, 1, 41, 62
3, 61171, Note_on_c, 1, 48, 0
3, 61175, Note_on_c, 1, 41, 0
3, 61205, Note_on_c, 1, 40, 67
3, 61322, Note_on_c, 1, 52, 91
3, 61345, Note_on_c, 1, 40, 0
3, 61406, Note_on_c, 1, 40, 47
3, 61418, Note_on_c, 1, 40, 0
3, 61428, Note_on_c, 1, 52, 0
3, 61446, Note_on_c, 1, 50, 65
3, 61485, Note_on_c, 1, 50, 0
3, 61521, Note_on_c, 1, 40, 60
3, 61532, Note_on_c, 1, 40, 0
3, 61566, Note_on_c, 1, 45, 79
3, 61639, Note_on_c, 1, 45, 0
3, 61647, Note_on_c, 1, 40, 64
3, 61674, Note_on_c, 1, 40, 0
3, 61688, Note_on_c, 1, 33, 69
3, 61780, Note_on_c, 1, 33, 0
3, 61801, Note_on_c, 1, 36, 57
3, 61867, Note_on_c, 1, 36, 0
3, 61884, Note_on_c, 1, 37, 58
3, 61914, Note_on_c, 1, 37, 0
3, 61927, Note_on_c, 1, 38, 67
3, 62121, Note_on_c, 1, 37, 33
3, 62161, Note_on_c, 1, 54, 76
3, 62171, Note_on_c, 1, 37, 0
3, 62292, Note_on_c, 1, 38, 0
3, 62403, Note_on_c, 1, 45, 71
3, 62404, Note_on_c, 1, 54, 0
3, 62520, Note_on_c, 1, 57, 92
3, 62699, Note_on_c, 1, 45, 0
3, 62714, Note_on_c, 1, 45, 25
3, 62724, Note_on_c, 1, 39, 29
3, 62728, Note_on_c, 1, 57, 0
3, 62744, Note_on_c, 1, 39, 0
3, 62757, Note_on_c, 1, 45, 0
3, 62759, Note_on_c, 1, 54, 75
3, 62992, Note_on_c, 1, 54, 0
3, 63010, Note_on_c, 1, 45, 81
3, 63114, Note_on_c, 1, 45, 0
3, 63131, Note_on_c, 1, 45, 81
3, 63318, Note_on_c, 1, 45, 0
3, 63328, Note_on_c, 1, 38, 67
3, 63353, Note_on_c, 1, 38, 0
3, 63373, Note_on_c, 1, 38, 72
3, 63550, Note_on_c, 1, 38, 0
3, 63557, Note_on_c, 1, 45, 63
3, 63572, Note_on_c, 1, 45, 0
3, 63609, Note_on_c, 1, 45, 87
3, 63807, Note_on_c, 1, 45, 0
3, 63828, Note_on_c, 1, 45, 53
3, 63842, Note_on_c, 1, 45, 0
3, 63855, Note_on_c, 1, 45, 67
3, 64004, Note_on_c, 1, 45, 0
3, 64026, Note_on_c, 1, 45, 57
3, 64058, Note_on_c, 1, 45, 0
3, 64075, Note_on_c, 1, 38, 76
3, 64279, Note_on_c, 1, 38, 0
3, 64318, Note_on_c, 1, 38, 74
3, 64429, Note_on_c, 1, 38, 0
3, 64439, Note_on_c, 1, 45, 83
3, 64620, Note_on_c, 1, 45, 0
3, 64640, Note_on_c, 1, 45, 80
3, 64766, Note_on_c, 1, 38, 49
3, 64776, Note_on_c, 1, 45, 0
3, 64791, Note_on_c, 1, 38, 0
3, 64802, Note_on_c, 1, 44, 78
3, 65002, Note_on_c, 1, 41, 57
3, 65016, Note_on_c, 1, 41, 0
3, 65035, Note_on_c, 1, 44, 0
3, 65048, Note_on_c, 1, 38, 49
3, 65154, Note_on_c, 1, 38, 0
3, 65165, Note_on_c, 1, 37, 54
3, 65280, Note_on_c, 1, 44, 53
3, 65282, Note_on_c, 1, 37, 0
3, 65384, Note_on_c, 1, 39, 31
3, 65387, Note_on_c, 1, 39, 0
3, 65390, Note_on_c, 1, 44, 0
3, 65475, Note_on_c, 1, 42, 56
3, 65506, Note_on_c, 1, 42, 0
3, 65516, Note_on_c, 1, 43, 56
3, 65625, Note_on_c, 1, 43, 0
3, 65639, Note_on_c, 1, 37, 58
3, 65746, Note_on_c, 1, 37, 0
3, 65762, Note_on_c, 1, 35, 56
3, 65870, Note_on_c, 1, 35, 0
3, 65880, Note_on_c, 1, 36, 53
3, 66084, Note_on_c, 1, 36, 0
3, 66084, Note_on_c, 1, 50, 72
3, 66116, Note_on_c, 1, 50, 0
3, 66132, Note_on_c, 1, 48, 59
3, 66157, Note_on_c, 1, 48, 0
3, 66208, Note_on_c, 1, 40, 61
3, 66243, Note_on_c, 1, 40, 0
3, 66251, Note_on_c, 1, 41, 66
3, 66356, Note_on_c, 1, 41, 0
3, 66357, Note_on_c, 1, 47, 91
3, 66547, Note_on_c, 1, 41, 57
3, 66559, Note_on_c, 1, 41, 0
3, 66584, Note_on_c, 1, 47, 0
3, 66593, Note_on_c, 1, 46, 72
3, 66705, Note_on_c, 1, 46, 0
3, 66718, Note_on_c, 1, 41, 63
3, 66836, Note_on_c, 1, 41, 0
3, 66838, Note_on_c, 1, 34, 60
3, 66950, Note_on_c, 1, 34, 0
3, 66957, Note_on_c, 1, 40, 66
3, 67077, Note_on_c, 1, 46, 81
3, 67078, Note_on_c, 1, 40, 0
3, 67184, Note_on_c, 1, 46, 0
3, 67199, Note_on_c, 1, 44, 71
3, 67210, Note_on_c, 1, 46, 21
3, 67220, Note_on_c, 1, 46, 0
3, 67292, Note_on_c, 1, 37, 20
3, 67305, Note_on_c, 1, 37, 0
3, 67310, Note_on_c, 1, 44, 0
3, 67324, Note_on_c, 1, 45, 71
3, 67387, Note_on_c, 1, 45, 0
3, 67412, Note_on_c, 1, 40, 62
3, 67437, Note_on_c, 1, 40, 0
3, 67450, Note_on_c, 1, 37, 75
3, 67544, Note_on_c, 1, 37, 0
3, 67562, Note_on_c, 1, 37, 74
3, 67669, Note_on_c, 1, 37, 0
3, 67688, Note_on_c, 1, 38, 66
3, 67806, Note_on_c, 1, 50, 108
3, 67832, Note_on_c, 1, 38, 0
3, 67866, Note_on_c, 1, 38, 16
3, 67908, Note_on_c, 1, 50, 0
3, 67909, Note_on_c, 1, 38, 0
3, 67929, Note_on_c, 1, 50, 85
3, 68008, Note_on_c, 1, 38, 58
3, 68023, Note_on_c, 1, 38, 0
3, 68024, Note_on_c, 1, 50, 0
3, 68047, Note_on_c, 1, 49, 80
3, 68171, Note_on_c, 1, 37, 75
3, 68182, Note_on_c, 1, 49, 0
3, 68277, Note_on_c, 1, 37, 0
3, 68298, Note_on_c, 1, 37, 77
3, 68400, Note_on_c, 1, 37, 0
3, 68414, Note_on_c, 1, 36, 72
3, 68525, Note_on_c, 1, 36, 0
3, 68528, Note_on_c, 1, 48, 89
3, 68642, Note_on_c, 1, 48, 0
3, 68646, Note_on_c, 1, 43, 66
3, 68728, Note_on_c, 1, 39, 50
3, 68747, Note_on_c, 1, 43, 0
3, 68757, Note_on_c, 1, 39, 0
3, 68766, Note_on_c, 1, 47, 80
3, 68870, Note_on_c, 1, 47, 0
3, 68883, Note_on_c, 1, 42, 60
3, 68987, Note_on_c, 1, 42, 0
3, 69003, Note_on_c, 1, 35, 55
3, 69086, Note_on_c, 1, 35, 0
3, 69088, Note_on_c, 1, 41, 53
3, 69111, Note_on_c, 1, 41, 0
3, 69121, Note_on_c, 1, 34, 70
3, 69211, Note_on_c, 1, 41, 35
3, 69227, Note_on_c, 1, 41, 0
3, 69228, Note_on_c, 1, 34, 0
3, 69235, Note_on_c, 1, 46, 80
3, 69332, Note_on_c, 1, 41, 40
3, 69334, Note_on_c, 1, 46, 0
3, 69357, Note_on_c, 1, 41, 0
3, 69359, Note_on_c, 1, 46, 69
3, 69458, Note_on_c, 1, 46, 0
3, 69473, Note_on_c, 1, 45, 71
3, 69558, Note_on_c, 1, 45, 0
3, 69567, Note_on_c, 1, 40, 55
3, 69582, Note_on_c, 1, 40, 0
3, 69613, Note_on_c, 1, 33, 43
3, 69717, Note_on_c, 1, 40, 31
3, 69719, Note_on_c, 1, 33, 0
3, 69726, Note_on_c, 1, 45, 78
3, 69729, Note_on_c, 1, 40, 0
3, 69813, Note_on_c, 1, 40, 54
3, 69816, Note_on_c, 1, 45, 0
3, 69827, Note_on_c, 1, 40, 0
3, 69848, Note_on_c, 1, 44, 73
3, 69944, Note_on_c, 1, 44, 0
3, 69968, Note_on_c, 1, 44, 78
3, 70159, Note_on_c, 1, 44, 0
3, 70159, Note_on_c, 1, 42, 46
3, 70185, Note_on_c, 1, 42, 0
3, 70198, Note_on_c, 1, 43, 60
3, 70283, Note_on_c, 1, 42, 29
3, 70301, Note_on_c, 1, 42, 0
3, 70312, Note_on_c, 1, 43, 0
3, 70320, Note_on_c, 1, 50, 94
3, 70418, Note_on_c, 1, 42, 20
3, 70427, Note_on_c, 1, 42, 0
3, 70466, Note_on_c, 1, 50, 0
3, 70467, Note_on_c, 1, 46, 56
3, 70502, Note_on_c, 1, 46, 0
3, 70503, Note_on_c, 1, 45, 49
3, 70514, Note_on_c, 1, 45, 0
3, 70524, Note_on_c, 1, 43, 67
3, 70549, Note_on_c, 1, 43, 0
3, 70564, Note_on_c, 1, 42, 68
3, 70761, Note_on_c, 1, 54, 87
3, 70775, Note_on_c, 1, 42, 0
3, 70879, Note_on_c, 1, 42, 59
3, 70901, Note_on_c, 1, 54, 0
3, 70907, Note_on_c, 1, 42, 0
3, 70926, Note_on_c, 1, 53, 67
3, 71038, Note_on_c, 1, 53, 0
3, 71046, Note_on_c, 1, 48, 62
3, 71148, Note_on_c, 1, 48, 0
3, 71166, Note_on_c, 1, 41, 62
3, 71270, Note_on_c, 1, 41, 0
3, 71284, Note_on_c, 1, 40, 74
3, 71407, Note_on_c, 1, 52, 113
3, 71408, Note_on_c, 1, 40, 0
3, 71593, Note_on_c, 1, 40, 76
3, 71621, Note_on_c, 1, 40, 0
3, 71621, Note_on_c, 1, 52, 0
3, 71642, Note_on_c, 1, 51, 84
3, 71761, Note_on_c, 1, 39, 84
3, 71771, Note_on_c, 1, 51, 0
3, 71931, Note_on_c, 1, 39, 0
3, 71972, Note_on_c, 1, 39, 67
3, 71992, Note_on_c, 1, 39, 0
3, 72013, Note_on_c, 1, 38, 71
3, 72119, Note_on_c, 1, 38, 0
3, 72125, Note_on_c, 1, 50, 74
3, 72128, Note_on_c, 1, 52, 68
3, 72163, Note_on_c, 1, 52, 0
3, 72249, Note_on_c, 1, 44, 75
3, 72266, Note_on_c, 1, 50, 0
3, 72356, Note_on_c, 1, 44, 0
3, 72366, Note_on_c, 1, 43, 78
3, 72556, Note_on_c, 1, 47, 95
3, 72577, Note_on_c, 1, 43, 0
3, 72676, Note_on_c, 1, 43, 63
3, 72685, Note_on_c, 1, 43, 0
3, 72704, Note_on_c, 1, 47, 0
3, 72719, Note_on_c, 1, 48, 81
3, 72912, Note_on_c, 1, 36, 80
3, 72932, Note_on_c, 1, 48, 0
3, 73080, Note_on_c, 1, 44, 90
3, 73087, Note_on_c, 1, 36, 0
3, 73284, Note_on_c, 1, 36, 90
3, 73304, Note_on_c, 1, 44, 0
3, 73396, Note_on_c, 1, 43, 46
3, 73425, Note_on_c, 1, 43, 0
3, 73448, Note_on_c, 1, 51, 79
3, 73462, Note_on_c, 1, 36, 0
3, 73637, Note_on_c, 1, 48, 72
3, 73646, Note_on_c, 1, 51, 0
3, 73758, Note_on_c, 1, 43, 54
3, 73770, Note_on_c, 1, 43, 0
3, 73804, Note_on_c, 1, 48, 0
3, 73804, Note_on_c, 1, 36, 76
3, 73934, Note_on_c, 1, 44, 18
3, 73945, Note_on_c, 1, 44, 0
3, 73990, Note_on_c, 1, 44, 87
3, 74065, Note_on_c, 1, 36, 0
3, 74147, Note_on_c, 1, 44, 0
3, 74166, Note_on_c, 1, 36, 79
3, 74348, Note_on_c, 1, 43, 81
3, 74429, Note_on_c, 1, 36, 0
3, 74508, Note_on_c, 1, 43, 0
3, 74520, Note_on_c, 1, 36, 87
3, 74636, Note_on_c, 1, 44, 23
3, 74651, Note_on_c, 1, 44, 0
3, 74715, Note_on_c, 1, 44, 93
3, 74792, Note_on_c, 1, 36, 0
3, 74878, Note_on_c, 1, 44, 0
3, 74884, Note_on_c, 1, 36, 80
3, 75090, Note_on_c, 1, 43, 82
3, 75117, Note_on_c, 1, 36, 0
3, 75205, Note_on_c, 1, 36, 68
3, 75222, Note_on_c, 1, 43, 0
3, 75231, Note_on_c, 1, 36, 0
3, 75249, Note_on_c, 1, 47, 74
3, 75439, Note_on_c, 1, 41, 59
3, 75450, Note_on_c, 1, 41, 0
3, 75453, Note_on_c, 1, 47, 0
3, 75482, Note_on_c, 1, 47, 60
3, 75595, Note_on_c, 1, 47, 0
3, 75604, Note_on_c, 1, 52, 127
3, 75880, Note_on_c, 1, 52, 0
3, 75882, Note_on_c, 1, 51, 62
3, 75915, Note_on_c, 1, 52, 92
3, 75925, Note_on_c, 1, 51, 0
3, 75949, Note_on_c, 1, 52, 0
3, 75962, Note_on_c, 1, 53, 120
3, 76321, Note_on_c, 1, 53, 0
3, 76324, Note_on_c, 1, 52, 71
3, 76417, Note_on_c, 1, 54, 92
3, 76425, Note_on_c, 1, 55, 110
3, 76426, Note_on_c, 1, 52, 0
3, 76440, Note_on_c, 1, 54, 0
3, 76501, Note_on_c, 1, 55, 0
3, 76515, Note_on_c, 1, 55, 105
3, 76589, Note_on_c, 1, 55, 0
3, 76596, Note_on_c, 1, 53, 91
3, 76660, Note_on_c, 1, 53, 0
3, 76674, Note_on_c, 1, 50, 95
3, 76743, Pitch_bend_c, 1, 8192
3, 76744, Pitch_bend_c, 1, 8192
3, 76745, Pitch_bend_c, 1, 8192
3, 76748, Pitch_bend_c, 1, 7552
3, 76750, Pitch_bend_c, 1, 7424
3, 76751, Pitch_bend_c, 1, 7168
3, 76753, Pitch_bend_c, 1, 6912
3, 76755, Pitch_bend_c, 1, 6784
3, 76756, Pitch_bend_c, 1, 6656
3, 76757, Pitch_bend_c, 1, 6400
3, 76759, Pitch_bend_c, 1, 6272
3, 76761, Pitch_bend_c, 1, 6016
3, 76762, Pitch_bend_c, 1, 5888
3, 76764, Pitch_bend_c, 1, 5760
3, 76765, Pitch_bend_c, 1, 5632
3, 76767, Pitch_bend_c, 1, 5504
3, 76769, Pitch_bend_c, 1, 5376
3, 76770, Pitch_bend_c, 1, 5120
3, 76772, Pitch_bend_c, 1, 4992
3, 76773, Pitch_bend_c, 1, 4864
3, 76775, Pitch_bend_c, 1, 4736
3, 76777, Pitch_bend_c, 1, 4608
3, 76778, Pitch_bend_c, 1, 4480
3, 76780, Pitch_bend_c, 1, 4224
3, 76781, Pitch_bend_c, 1, 4096
3, 76783, Pitch_bend_c, 1, 3968
3, 76785, Pitch_bend_c, 1, 3712
3, 76786, Pitch_bend_c, 1, 3584
3, 76788, Pitch_bend_c, 1, 3456
3, 76789, Pitch_bend_c, 1, 3328
3, 76791, Pitch_bend_c, 1, 3072
3, 76792, Pitch_bend_c, 1, 2944
3, 76794, Pitch_bend_c, 1, 2688
3, 76796, Pitch_bend_c, 1, 2560
3, 76797, Pitch_bend_c, 1, 2432
3, 76799, Pitch_bend_c, 1, 2304
3, 76800, Pitch_bend_c, 1, 2048
3, 76802, Pitch_bend_c, 1, 1920
3, 76803, Pitch_bend_c, 1, 1792
3, 76807, Pitch_bend_c, 1, 1536
3, 76808, Pitch_bend_c, 1, 1408
3, 76810, Pitch_bend_c, 1, 1280
3, 76811, Pitch_bend_c, 1, 1152
3, 76813, Pitch_bend_c, 1, 1024
3, 76814, Pitch_bend_c, 1, 896
3, 76816, Pitch_bend_c, 1, 768
3, 76819, Pitch_bend_c, 1, 512
3, 76822, Pitch_bend_c, 1, 384
3, 76824, Pitch_bend_c, 1, 256
3, 76825, Note_on_c, 1, 50, 0
3, 76825, Pitch_bend_c, 1, 128
3, 76913, Pitch_bend_c, 1, 384
3, 76915, Pitch_bend_c, 1, 896
3, 76916, Pitch_bend_c, 1, 1664
3, 76918, Pitch_bend_c, 1, 2304
3, 76919, Pitch_bend_c, 1, 2688
3, 76921, Pitch_bend_c, 1, 2816
3, 76922, Pitch_bend_c, 1, 2944
3, 76926, Pitch_bend_c, 1, 3072
3, 76930, Pitch_bend_c, 1, 3200
3, 76933, Pitch_bend_c, 1, 3328
3, 76942, Pitch_bend_c, 1, 3456
3, 76947, Pitch_bend_c, 1, 3584
3, 76949, Pitch_bend_c, 1, 3840
3, 76951, Pitch_bend_c, 1, 3968
3, 76952, Pitch_bend_c, 1, 4352
3, 76954, Pitch_bend_c, 1, 4736
3, 76955, Pitch_bend_c, 1, 5504
3, 76957, Pitch_bend_c, 1, 6272
3, 76958, Pitch_bend_c, 1, 7296
3, 76960, Pitch_bend_c, 1, 8192
3, 76961, Pitch_bend_c, 1, 8192
3, 77329, Note_on_c, 1, 49, 66
3, 77350, Note_on_c, 1, 49, 0
3, 77366, Note_on_c, 1, 50, 91
3, 77386, Note_on_c, 1, 50, 0
3, 77424, Note_on_c, 1, 60, 120
3, 77450, Note_on_c, 1, 60, 0
3, 77494, Note_on_c, 1, 60, 127
3, 77526, Note_on_c, 1, 60, 0
3, 77562, Note_on_c, 1, 60, 115
3, 77758, Note_on_c, 1, 60, 0
3, 77768, Note_on_c, 1, 59, 91
3, 77883, Note_on_c, 1, 59, 0
3, 77901, Note_on_c, 1, 62, 106
3, 77901, Note_on_c, 1, 60, 106
3, 77909, Note_on_c, 1, 60, 0
3, 77936, Note_on_c, 1, 62, 0
3, 77972, Note_on_c, 1, 62, 126
3, 78014, Note_on_c, 1, 62, 0
3, 78029, Note_on_c, 1, 60, 112
3, 78067, Note_on_c, 1, 60, 0
3, 78085, Note_on_c, 1, 60, 98
3, 78121, Note_on_c, 1, 60, 0
3, 78139, Note_on_c, 1, 57, 82
3, 78588, Note_on_c, 1, 57, 0
3, 78683, Note_on_c, 1, 57, 127
3, 78737, Note_on_c, 1, 57, 0
3, 78751, Note_on_c, 1, 62, 113
3, 78835, Note_on_c, 1, 62, 0
3, 78845, Note_on_c, 1, 59, 106
3, 79195, Note_on_c, 1, 59, 0
3, 79205, Note_on_c, 1, 57, 71
3, 79261, Note_on_c, 1, 57, 0
3, 79275, Note_on_c, 1, 60, 102
3, 79505, Note_on_c, 1, 60, 0
3, 79512, Note_on_c, 1, 59, 87
3, 79569, Note_on_c, 1, 59, 0
3, 79582, Note_on_c, 1, 57, 80
3, 79793, Note_on_c, 1, 57, 0
3, 79803, Note_on_c, 1, 55, 71
3, 79907, Note_on_c, 1, 55, 0
3, 79916, Note_on_c, 1, 52, 72
3, 80099, Note_on_c, 1, 52, 0
3, 80112, Note_on_c, 1, 53, 110
3, 80181, Note_on_c, 1, 53, 0
3, 80196, Note_on_c, 1, 52, 108
3, 80273, Note_on_c, 1, 52, 0
3, 80288, Note_on_c, 1, 50, 105
3, 80361, Note_on_c, 1, 49, 56
3, 80372, Note_on_c, 1, 50, 0
3, 80396, Note_on_c, 1, 49, 0
3, 80406, Note_on_c, 1, 51, 93
3, 80487, Note_on_c, 1, 49, 45
3, 80501, Note_on_c, 1, 51, 0
3, 80516, Note_on_c, 1, 49, 0
3, 80523, Note_on_c, 1, 50, 83
3, 80752, Note_on_c, 1, 50, 0
3, 80833, Note_on_c, 1, 52, 76
3, 80841, Note_on_c, 1, 52, 0
3, 80890, Note_on_c, 1, 60, 127
3, 80919, Note_on_c, 1, 60, 0
3, 80963, Note_on_c, 1, 60, 126
3, 81002, Note_on_c, 1, 60, 0
3, 81022, Note_on_c, 1, 57, 123
3, 81075, Note_on_c, 1, 57, 0
3, 81086, Note_on_c, 1, 57, 110
3, 81116, Note_on_c, 1, 57, 0
3, 81132, Note_on_c, 1, 52, 86
3, 81308, Note_on_c, 1, 52, 0
3, 81318, Note_on_c, 1, 51, 77
3, 81350, Note_on_c, 1, 51, 0
3, 81362, Note_on_c, 1, 52, 71
3, 81419, Note_on_c, 1, 52, 0
3, 81442, Note_on_c, 1, 60, 68
3, 81463, Note_on_c, 1, 60, 0
3, 81484, Note_on_c, 1, 64, 113
3, 81555, Note_on_c, 1, 64, 0
3, 81567, Note_on_c, 1, 64, 115
3, 81874, Note_on_c, 1, 64, 0
3, 81925, Note_on_c, 1, 65, 127
3, 82067, Note_on_c, 1, 65, 0
3, 82083, Note_on_c, 1, 64, 120
3, 82273, Note_on_c, 1, 64, 0
3, 82276, Note_on_c, 1, 55, 117
3, 82347, Note_on_c, 1, 55, 0
3, 82359, Note_on_c, 1, 53, 105
3, 82436, Note_on_c, 1, 53, 0
3, 82445, Note_on_c, 1, 50, 81
3, 82791, Note_on_c, 1, 50, 0
3, 83010, Note_on_c, 1, 49, 108
3, 83034, Note_on_c, 1, 49, 0
3, 83081, Note_on_c, 1, 50, 106
3, 83105, Note_on_c, 1, 50, 0
3, 83169, Note_on_c, 1, 60, 120
3, 83200, Note_on_c, 1, 60, 0
3, 83251, Note_on_c, 1, 60, 118
3, 83316, Pitch_bend_c, 1, 8192
3, 83320, Pitch_bend_c, 1, 8192
3, 83324, Pitch_bend_c, 1, 8192
3, 83327, Pitch_bend_c, 1, 8192
3, 83331, Pitch_bend_c, 1, 7680
3, 83334, Pitch_bend_c, 1, 7424
3, 83338, Pitch_bend_c, 1, 7296
3, 83342, Pitch_bend_c, 1, 7040
3, 83345, Pitch_bend_c, 1, 6912
3, 83349, Pitch_bend_c, 1, 6656
3, 83352, Pitch_bend_c, 1, 6528
3, 83356, Pitch_bend_c, 1, 6400
3, 83357, Pitch_bend_c, 1, 6272
3, 83360, Pitch_bend_c, 1, 6144
3, 83363, Pitch_bend_c, 1, 5888
3, 83366, Pitch_bend_c, 1, 5760
3, 83368, Pitch_bend_c, 1, 5632
3, 83370, Pitch_bend_c, 1, 5504
3, 83371, Note_on_c, 1, 60, 0
3, 83373, Pitch_bend_c, 1, 5376
3, 83376, Pitch_bend_c, 1, 5120
3, 83378, Pitch_bend_c, 1, 4992
3, 83381, Pitch_bend_c, 1, 4736
3, 83386, Pitch_bend_c, 1, 4608
3, 83392, Pitch_bend_c, 1, 4480
3, 83394, Pitch_bend_c, 1, 4352
3, 83398, Pitch_bend_c, 1, 4224
3, 83401, Pitch_bend_c, 1, 4096
3, 83404, Pitch_bend_c, 1, 3968
3, 83408, Pitch_bend_c, 1, 3840
3, 83411, Pitch_bend_c, 1, 3712
3, 83431, Pitch_bend_c, 1, 3840
3, 83435, Pitch_bend_c, 1, 3968
3, 83438, Pitch_bend_c, 1, 4096
3, 83440, Pitch_bend_c, 1, 4224
3, 83443, Pitch_bend_c, 1, 4480
3, 83446, Pitch_bend_c, 1, 4608
3, 83449, Pitch_bend_c, 1, 4864
3, 83450, Pitch_bend_c, 1, 5120
3, 83452, Pitch_bend_c, 1, 5376
3, 83453, Pitch_bend_c, 1, 5632
3, 83455, Pitch_bend_c, 1, 5888
3, 83457, Pitch_bend_c, 1, 6272
3, 83458, Pitch_bend_c, 1, 6656
3, 83460, Pitch_bend_c, 1, 7168
3, 83461, Pitch_bend_c, 1, 7424
3, 83463, Pitch_bend_c, 1, 8192
3, 83464, Pitch_bend_c, 1, 8192
3, 83465, Pitch_bend_c, 1, 8192
3, 83467, Pitch_bend_c, 1, 8192
3, 83519, Note_on_c, 1, 59, 127
3, 83538, Note_on_c, 1, 59, 0
3, 83600, Note_on_c, 1, 62, 127
3, 83626, Note_on_c, 1, 62, 0
3, 83661, Note_on_c, 1, 62, 115
3, 83706, Note_on_c, 1, 62, 0
3, 83721, Note_on_c, 1, 60, 113
3, 83757, Note_on_c, 1, 60, 0
3, 83774, Note_on_c, 1, 60, 102
3, 83823, Note_on_c, 1, 60, 0
3, 83838, Note_on_c, 1, 57, 92
3, 83880, Note_on_c, 1, 57, 0
3, 83895, Note_on_c, 1, 57, 85
3, 83957, Note_on_c, 1, 57, 0
3, 83962, Note_on_c, 1, 56, 61
3, 83994, Note_on_c, 1, 56, 0
3, 84007, Note_on_c, 1, 57, 92
3, 84160, Note_on_c, 1, 57, 0
3, 84174, Note_on_c, 1, 57, 78
3, 84201, Note_on_c, 1, 57, 0
3, 84213, Note_on_c, 1, 59, 87
3, 84253, Note_on_c, 1, 59, 0
3, 84362, Note_on_c, 1, 57, 126
3, 84439, Note_on_c, 1, 59, 90
3, 84445, Note_on_c, 1, 57, 0
3, 84462, Note_on_c, 1, 59, 0
3, 84485, Note_on_c, 1, 62, 117
3, 84587, Note_on_c, 1, 62, 0
3, 84602, Note_on_c, 1, 59, 102
3, 84794, Note_on_c, 1, 59, 0
3, 84794, Note_on_c, 1, 55, 90
3, 84844, Note_on_c, 1, 55, 0
3, 84845, Note_on_c, 1, 52, 65
3, 85000, Note_on_c, 1, 52, 0
3, 85084, Note_on_c, 1, 60, 126
3, 85154, Note_on_c, 1, 60, 0
3, 85164, Note_on_c, 1, 54, 100
3, 85211, Note_on_c, 1, 54, 0
3, 85222, Note_on_c, 1, 51, 77
3, 85297, Note_on_c, 1, 51, 0
3, 85342, Note_on_c, 1, 57, 112
3, 85387, Note_on_c, 1, 57, 0
3, 85402, Note_on_c, 1, 55, 101
3, 85437, Note_on_c, 1, 55, 0
3, 85455, Note_on_c, 1, 52, 72
3, 85517, Note_on_c, 1, 52, 0
3, 85518, Note_on_c, 1, 48, 78
3, 85556, Note_on_c, 1, 48, 0
3, 85579, Note_on_c, 1, 43, 53
3, 85581, Note_on_c, 1, 45, 40
3, 85590, Note_on_c, 1, 43, 0
3, 85644, Note_on_c, 1, 45, 0
3, 85645, Note_on_c, 1, 41, 81
3, 85678, Note_on_c, 1, 41, 0
3, 85697, Note_on_c, 1, 40, 97
3, 85876, Note_on_c, 1, 40, 0
3, 85879, Note_on_c, 1, 41, 115
3, 85888, Note_on_c, 1, 42, 38
3, 85917, Note_on_c, 1, 42, 0
3, 86054, Note_on_c, 1, 40, 100
3, 86062, Note_on_c, 1, 41, 0
3, 86393, Note_on_c, 1, 40, 0
3, 86404, Note_on_c, 1, 38, 77
3, 86419, Note_on_c, 1, 38, 0
3, 86517, Note_on_c, 1, 59, 123
3, 86571, Note_on_c, 1, 59, 0
3, 86599, Note_on_c, 1, 62, 126
3, 86605, Note_on_c, 1, 61, 62
3, 86613, Note_on_c, 1, 61, 0
3, 86640, Note_on_c, 1, 62, 0
3, 86654, Note_on_c, 1, 60, 103
3, 86743, Note_on_c, 1, 60, 0
3, 86762, Note_on_c, 1, 57, 91
3, 86952, Note_on_c, 1, 57, 0
3, 86956, Note_on_c, 1, 56, 52
3, 86978, Note_on_c, 1, 56, 0
3, 86999, Note_on_c, 1, 57, 71
3, 87058, Note_on_c, 1, 57, 0
3, 87080, Note_on_c, 1, 64, 118
3, 87128, Note_on_c, 1, 64, 0
3, 87140, Note_on_c, 1, 61, 102
3, 87201, Note_on_c, 1, 61, 0
3, 87213, Note_on_c, 1, 61, 106
3, 87259, Note_on_c, 1, 61, 0
3, 87265, Note_on_c, 1, 57, 77
3, 87304, Note_on_c, 1, 57, 0
3, 87325, Note_on_c, 1, 57, 96
3, 87357, Note_on_c, 1, 57, 0
3, 87371, Note_on_c, 1, 54, 81
3, 87412, Note_on_c, 1, 54, 0
3, 87432, Note_on_c, 1, 54, 77
3, 87473, Note_on_c, 1, 54, 0
3, 87480, Note_on_c, 1, 50, 75
3, 87600, Note_on_c, 1, 50, 0
3, 87601, Note_on_c, 1, 52, 96
3, 87798, Note_on_c, 1, 52, 0
3, 87798, Note_on_c, 1, 48, 67
3, 87835, Note_on_c, 1, 48, 0
3, 87844, Note_on_c, 1, 49, 106
3, 87912, Note_on_c, 1, 49, 0
3, 87912, Note_on_c, 1, 52, 92
3, 87957, Note_on_c, 1, 52, 0
3, 87966, Note_on_c, 1, 50, 72
3, 88036, Note_on_c, 1, 50, 0
3, 88041, Note_on_c, 1, 45, 80
3, 88208, Note_on_c, 1, 45, 0
3, 88280, Note_on_c, 1, 47, 92
3, 88309, Note_on_c, 1, 47, 0
3, 88318, Note_on_c, 1, 48, 91
3, 88344, Note_on_c, 1, 48, 0
3, 88355, Note_on_c, 1, 52, 83
3, 88383, Note_on_c, 1, 52, 0
3, 88393, Note_on_c, 1, 55, 96
3, 88413, Note_on_c, 1, 55, 0
3, 88434, Note_on_c, 1, 59, 88
3, 88457, Note_on_c, 1, 59, 0
3, 88473, Note_on_c, 1, 60, 100
3, 88495, Note_on_c, 1, 60, 0
3, 88512, Note_on_c, 1, 64, 110
3, 88542, Note_on_c, 1, 64, 0
3, 88553, Note_on_c, 1, 67, 102
3, 88577, Note_on_c, 1, 67, 0
3, 88591, Note_on_c, 1, 66, 102
3, 88625, Note_on_c, 1, 66, 0
3, 88642, Note_on_c, 1, 61, 93
3, 88674, Note_on_c, 1, 61, 0
3, 88684, Note_on_c, 1, 57, 71
3, 88900, Note_on_c, 1, 57, 0
3, 88942, Note_on_c, 1, 59, 118
3, 88977, Note_on_c, 1, 60, 101
3, 88979, Note_on_c, 1, 59, 0
3, 89012, Note_on_c, 1, 60, 0
3, 89048, Note_on_c, 1, 59, 118
3, 89122, Note_on_c, 1, 55, 92
3, 89131, Note_on_c, 1, 59, 0
3, 89161, Note_on_c, 1, 55, 0
3, 89167, Note_on_c, 1, 52, 48
3, 89265, Note_on_c, 1, 52, 0
3, 89283, Note_on_c, 1, 54, 92
3, 89321, Note_on_c, 1, 55, 103
3, 89329, Note_on_c, 1, 54, 0
3, 89353, Note_on_c, 1, 55, 0
3, 89370, Note_on_c, 1, 54, 96
3, 89412, Note_on_c, 1, 54, 0
3, 89429, Note_on_c, 1, 50, 75
3, 89499, Note_on_c, 1, 50, 0
3, 89513, Note_on_c, 1, 49, 80
3, 89652, Note_on_c, 1, 49, 0
3, 89842, Note_on_c, 1, 48, 123
3, 89878, Note_on_c, 1, 48, 0
3, 89891, Note_on_c, 1, 45, 41
3, 89924, Note_on_c, 1, 45, 0
3, 89928, Note_on_c, 1, 46, 75
3, 89959, Note_on_c, 1, 46, 0
3, 89967, Note_on_c, 1, 47, 92
3, 90076, Note_on_c, 1, 49, 85
3, 90080, Note_on_c, 1, 47, 0
3, 90120, Note_on_c, 1, 49, 0
3, 90131, Note_on_c, 1, 51, 70
3, 90183, Note_on_c, 1, 51, 0
3, 90190, Note_on_c, 1, 53, 93
3, 90234, Note_on_c, 1, 53, 0
3, 90248, Note_on_c, 1, 55, 72
3, 90291, Note_on_c, 1, 55, 0
3, 90308, Note_on_c, 1, 56, 95
3, 90348, Note_on_c, 1, 56, 0
3, 90363, Note_on_c, 1, 58, 101
3, 90424, Note_on_c, 1, 59, 95
3, 90425, Note_on_c, 1, 58, 0
3, 90467, Note_on_c, 1, 59, 0
3, 90494, Note_on_c, 1, 56, 75
3, 90674, Note_on_c, 1, 54, 72
3, 90675, Note_on_c, 1, 56, 0
3, 90720, Note_on_c, 1, 54, 0
3, 90727, Note_on_c, 1, 55, 83
3, 90888, Note_on_c, 1, 56, 93
3, 90895, Note_on_c, 1, 55, 0
3, 90913, Note_on_c, 1, 56, 0
3, 90925, Note_on_c, 1, 58, 106
3, 90964, Note_on_c, 1, 58, 0
3, 90965, Note_on_c, 1, 60, 98
3, 90990, Note_on_c, 1, 60, 0
3, 91000, Note_on_c, 1, 61, 88
3, 91027, Note_on_c, 1, 61, 0
3, 91036, Note_on_c, 1, 63, 102
3, 91080, Note_on_c, 1, 63, 0
3, 91082, Note_on_c, 1, 64, 92
3, 91137, Note_on_c, 1, 64, 0
3, 91158, Note_on_c, 1, 63, 103
3, 91193, Note_on_c, 1, 63, 0
3, 91210, Note_on_c, 1, 61, 66
3, 91261, Note_on_c, 1, 61, 0
3, 91269, Note_on_c, 1, 60, 92
3, 91294, Note_on_c, 1, 60, 0
3, 91317, Note_on_c, 1, 58, 68
3, 91375, Note_on_c, 1, 58, 0
3, 91391, Note_on_c, 1, 56, 42
3, 91411, Note_on_c, 1, 56, 0
3, 91435, Note_on_c, 1, 59, 106
3, 91556, Note_on_c, 1, 58, 87
3, 91568, Note_on_c, 1, 59, 0
3, 91588, Note_on_c, 1, 58, 0
3, 91603, Note_on_c, 1, 56, 68
3, 91631, Note_on_c, 1, 56, 0
3, 91928, Note_on_c, 1, 55, 127
3, 91964, Note_on_c, 1, 56, 87
3, 91970, Note_on_c, 1, 55, 0
3, 91998, Note_on_c, 1, 56, 0
3, 92007, Note_on_c, 1, 55, 103
3, 92072, Note_on_c, 1, 55, 0
3, 92095, Note_on_c, 1, 53, 91
3, 92124, Note_on_c, 1, 53, 0
3, 92132, Note_on_c, 1, 55, 88
3, 92174, Note_on_c, 1, 55, 0
3, 92287, Note_on_c, 1, 55, 118
3, 92333, Note_on_c, 1, 55, 0
3, 92351, Note_on_c, 1, 50, 85
3, 92370, Note_on_c, 1, 50, 0
3, 92386, Note_on_c, 1, 55, 98
3, 92409, Note_on_c, 1, 55, 0
3, 92420, Note_on_c, 1, 58, 106
3, 92460, Note_on_c, 1, 58, 0
3, 92484, Note_on_c, 1, 60, 112
3, 92516, Note_on_c, 1, 60, 0
3, 92534, Note_on_c, 1, 58, 102
3, 92573, Note_on_c, 1, 58, 0
3, 92599, Note_on_c, 1, 57, 111
3, 92638, Note_on_c, 1, 57, 0
3, 92651, Note_on_c, 1, 55, 92
3, 92704, Note_on_c, 1, 55, 0
3, 92714, Note_on_c, 1, 53, 91
3, 92743, Note_on_c, 1, 53, 0
3, 92759, Note_on_c, 1, 52, 75
3, 92801, Note_on_c, 1, 52, 0
3, 92817, Note_on_c, 1, 51, 28
3, 92830, Note_on_c, 1, 49, 63
3, 92832, Note_on_c, 1, 51, 0
3, 92867, Note_on_c, 1, 49, 0
3, 92875, Note_on_c, 1, 38, 82
3, 93173, Note_on_c, 1, 45, 61
3, 93187, Note_on_c, 1, 38, 0
3, 93193, Note_on_c, 1, 45, 0
3, 93213, Note_on_c, 1, 53, 103
3, 93249, Note_on_c, 1, 53, 0
3, 93254, Note_on_c, 1, 49, 97
3, 93439, Note_on_c, 1, 49, 0
3, 93443, Note_on_c, 1, 48, 41
3, 93478, Note_on_c, 1, 48, 0
3, 93489, Note_on_c, 1, 49, 95
3, 93562, Note_on_c, 1, 47, 43
3, 93565, Note_on_c, 1, 49, 0
3, 93596, Note_on_c, 1, 47, 0
3, 93602, Note_on_c, 1, 48, 63
3, 94037, Note_on_c, 1, 43, 43
3, 94046, Note_on_c, 1, 43, 0
3, 94064, Note_on_c, 1, 48, 0
3, 94075, Note_on_c, 1, 45, 50
3, 94146, Note_on_c, 1, 45, 0
3, 94146, Pitch_bend_c, 1, 8192
3, 94150, Pitch_bend_c, 1, 8192
3, 94153, Pitch_bend_c, 1, 8192
3, 94157, Note_on_c, 1, 50, 58
3, 94158, Pitch_bend_c, 1, 7552
3, 94161, Pitch_bend_c, 1, 7424
3, 94163, Pitch_bend_c, 1, 7296
3, 94164, Pitch_bend_c, 1, 7168
3, 94166, Pitch_bend_c, 1, 7040
3, 94167, Pitch_bend_c, 1, 6912
3, 94169, Pitch_bend_c, 1, 6784
3, 94170, Pitch_bend_c, 1, 6656
3, 94174, Pitch_bend_c, 1, 6400
3, 94175, Pitch_bend_c, 1, 6272
3, 94176, Note_on_c, 1, 50, 0
3, 94177, Pitch_bend_c, 1, 6016
3, 94178, Pitch_bend_c, 1, 5888
3, 94180, Pitch_bend_c, 1, 5760
3, 94181, Pitch_bend_c, 1, 5632
3, 94183, Pitch_bend_c, 1, 5504
3, 94186, Pitch_bend_c, 1, 5376
3, 94188, Pitch_bend_c, 1, 5120
3, 94189, Pitch_bend_c, 1, 4992
3, 94191, Pitch_bend_c, 1, 4864
3, 94194, Pitch_bend_c, 1, 4608
3, 94196, Pitch_bend_c, 1, 4480
3, 94199, Note_on_c, 1, 54, 98
3, 94200, Pitch_bend_c, 1, 4352
3, 94201, Pitch_bend_c, 1, 4224
3, 94204, Pitch_bend_c, 1, 4096
3, 94207, Pitch_bend_c, 1, 3840
3, 94210, Pitch_bend_c, 1, 3712
3, 94214, Pitch_bend_c, 1, 3584
3, 94218, Pitch_bend_c, 1, 3328
3, 94220, Pitch_bend_c, 1, 3200
3, 94224, Pitch_bend_c, 1, 3072
3, 94227, Pitch_bend_c, 1, 2816
3, 94230, Pitch_bend_c, 1, 2688
3, 94231, Pitch_bend_c, 1, 2560
3, 94235, Pitch_bend_c, 1, 2432
3, 94238, Pitch_bend_c, 1, 2176
3, 94239, Pitch_bend_c, 1, 2048
3, 94241, Pitch_bend_c, 1, 1920
3, 94244, Pitch_bend_c, 1, 1792
3, 94248, Pitch_bend_c, 1, 1664
3, 94257, Note_on_c, 1, 54, 0
3, 94257, Pitch_bend_c, 1, 1536
3, 94263, Pitch_bend_c, 1, 1664
3, 94266, Pitch_bend_c, 1, 1920
3, 94268, Pitch_bend_c, 1, 2048
3, 94269, Pitch_bend_c, 1, 2304
3, 94271, Pitch_bend_c, 1, 2560
3, 94272, Note_on_c, 1, 57, 113
3, 94273, Pitch_bend_c, 1, 2816
3, 94274, Pitch_bend_c, 1, 3072
3, 94276, Pitch_bend_c, 1, 3456
3, 94277, Pitch_bend_c, 1, 3712
3, 94279, Pitch_bend_c, 1, 4096
3, 94280, Pitch_bend_c, 1, 4608
3, 94282, Pitch_bend_c, 1, 4992
3, 94284, Pitch_bend_c, 1, 5504
3, 94285, Pitch_bend_c, 1, 6016
3, 94287, Pitch_bend_c, 1, 6656
3, 94288, Pitch_bend_c, 1, 7040
3, 94290, Pitch_bend_c, 1, 7424
3, 94292, Pitch_bend_c, 1, 8192
3, 94292, Pitch_bend_c, 1, 8192
3, 94293, Pitch_bend_c, 1, 8192
3, 94318, Note_on_c, 1, 57, 0
3, 94331, Note_on_c, 1, 53, 63
3, 94383, Note_on_c, 1, 53, 0
3, 94390, Note_on_c, 1, 50, 66
3, 94430, Note_on_c, 1, 50, 0
3, 94447, Note_on_c, 1, 46, 42
3, 94599, Note_on_c, 1, 46, 0
3, 94609, Note_on_c, 1, 45, 42
3, 94638, Note_on_c, 1, 45, 0
3, 94652, Note_on_c, 1, 46, 47
3, 94674, Note_on_c, 1, 46, 0
3, 94695, Note_on_c, 1, 47, 88
3, 94788, Note_on_c, 1, 59, 123
3, 94794, Note_on_c, 1, 47, 0
3, 95000, Note_on_c, 1, 47, 50
3, 95010, Note_on_c, 1, 47, 0
3, 95020, Note_on_c, 1, 59, 0
3, 95041, Note_on_c, 1, 60, 108
3, 95400, Note_on_c, 1, 60, 0
3, 95406, Note_on_c, 1, 43, 55
3, 95758, Note_on_c, 1, 43, 0
3, 95760, Note_on_c, 1, 42, 60
3, 95886, Note_on_c, 1, 48, 127
3, 95888, Note_on_c, 1, 42, 0
3, 95963, Note_on_c, 1, 47, 68
3, 95967, Note_on_c, 1, 48, 0
3, 95989, Note_on_c, 1, 47, 0
3, 96003, Note_on_c, 1, 48, 95
3, 96077, Note_on_c, 1, 48, 0
3, 96088, Note_on_c, 1, 50, 117
3, 96394, Note_on_c, 1, 50, 0
3, 96400, Note_on_c, 1, 48, 68
3, 96426, Note_on_c, 1, 48, 0
3, 96440, Note_on_c, 1, 50, 90
3, 96470, Note_on_c, 1, 50, 0
3, 96482, Note_on_c, 1, 52, 106
3, 96755, Note_on_c, 1, 52, 0
3, 96763, Note_on_c, 1, 51, 57
3, 96795, Note_on_c, 1, 51, 0
3, 96800, Note_on_c, 1, 52, 71
3, 96843, Note_on_c, 1, 52, 0
3, 96849, Note_on_c, 1, 53, 98
3, 97033, Note_on_c, 1, 56, 93
3, 97044, Note_on_c, 1, 53, 0
3, 97201, Note_on_c, 1, 56, 0
3, 97205, Note_on_c, 1, 52, 80
3, 97518, Note_on_c, 1, 51, 96
3, 97535, Note_on_c, 1, 52, 0
3, 97550, Note_on_c, 1, 51, 0
3, 97566, Note_on_c, 1, 50, 80
3, 97688, Note_on_c, 1, 50, 0
3, 97690, Note_on_c, 1, 44, 81
3, 97883, Note_on_c, 1, 50, 81
3, 97901, Note_on_c, 1, 44, 0
3, 97915, Note_on_c, 1, 50, 0
3, 97928, Note_on_c, 1, 48, 66
3, 97963, Note_on_c, 1, 48, 0
3, 97998, Note_on_c, 1, 43, 55
3, 98032, Note_on_c, 1, 43, 0
3, 98048, Note_on_c, 1, 36, 67
3, 98159, Note_on_c, 1, 43, 70
3, 98194, Note_on_c, 1, 36, 0
3, 98221, Note_on_c, 1, 43, 0
3, 98237, Note_on_c, 1, 36, 47
3, 98249, Note_on_c, 1, 36, 0
3, 98283, Note_on_c, 1, 44, 77
3, 98401, Note_on_c, 1, 48, 33
3, 98417, Note_on_c, 1, 48, 0
3, 98444, Note_on_c, 1, 53, 73
3, 98468, Note_on_c, 1, 53, 0
3, 98483, Note_on_c, 1, 56, 106
3, 98568, Note_on_c, 1, 56, 0
3, 98570, Note_on_c, 1, 55, 91
3, 98580, Note_on_c, 1, 44, 0
3, 98595, Note_on_c, 1, 55, 0
3, 98607, Note_on_c, 1, 53, 78
3, 98641, Note_on_c, 1, 53, 0
3, 98648, Note_on_c, 1, 51, 58
3, 98681, Note_on_c, 1, 51, 0
3, 98687, Note_on_c, 1, 50, 77
3, 98713, Note_on_c, 1, 50, 0
3, 98725, Note_on_c, 1, 48, 88
3, 98960, Note_on_c, 1, 43, 52
3, 98965, Note_on_c, 1, 48, 0
3, 98969, Note_on_c, 1, 43, 0
3, 98992, Note_on_c, 1, 56, 65
3, 99018, Note_on_c, 1, 56, 0
3, 99038, Note_on_c, 1, 55, 81
3, 99058, Note_on_c, 1, 55, 0
3, 99076, Note_on_c, 1, 53, 95
3, 99294, Note_on_c, 1, 48, 27
3, 99302, Note_on_c, 1, 53, 0
3, 99317, Note_on_c, 1, 48, 0
3, 99328, Note_on_c, 1, 43, 42
3, 99342, Note_on_c, 1, 43, 0
3, 99364, Note_on_c, 1, 48, 80
3, 99436, Note_on_c, 1, 50, 100
3, 99445, Note_on_c, 1, 48, 0
3, 99469, Note_on_c, 1, 50, 0
3, 99480, Note_on_c, 1, 51, 97
3, 99542, Note_on_c, 1, 51, 0
3, 99552, Note_on_c, 1, 50, 78
3, 99585, Note_on_c, 1, 50, 0
3, 99597, Note_on_c, 1, 48, 60
3, 99709, Note_on_c, 1, 48, 0
3, 99722, Note_on_c, 1, 44, 63
3, 99982, Note_on_c, 1, 44, 0
3, 100001, Note_on_c, 1, 43, 60
3, 100024, Note_on_c, 1, 43, 0
3, 100039, Note_on_c, 1, 41, 68
3, 100057, Note_on_c, 1, 41, 0
3, 100082, Note_on_c, 1, 36, 56
3, 100325, Note_on_c, 1, 48, 127
3, 100332, Note_on_c, 1, 36, 0
3, 100442, Note_on_c, 1, 48, 0
3, 100450, Note_on_c, 1, 47, 126
3, 100640, Note_on_c, 1, 47, 0
3, 100641, Note_on_c, 1, 35, 118
3, 100748, Note_on_c, 1, 35, 0
3, 100807, Note_on_c, 1, 46, 63
3, 101005, Note_on_c, 1, 40, 39
3, 101032, Note_on_c, 1, 40, 0
3, 101054, Note_on_c, 1, 41, 54
3, 101057, Note_on_c, 1, 46, 0
3, 101161, Note_on_c, 1, 41, 0
3, 101173, Note_on_c, 1, 33, 58
3, 101337, Note_on_c, 1, 33, 0
3, 101365, Note_on_c, 1, 45, 74
3, 101385, Note_on_c, 1, 45, 0
3, 101488, Note_on_c, 1, 37, 38
3, 101530, Note_on_c, 1, 37, 0
3, 101535, Note_on_c, 1, 38, 47
3, 101595, Note_on_c, 1, 38, 0
3, 101650, Note_on_c, 1, 50, 127
3, 101832, Note_on_c, 1, 50, 0
3, 101835, Note_on_c, 1, 38, 60
3, 101859, Note_on_c, 1, 38, 0
3, 101876, Note_on_c, 1, 44, 83
3, 102069, Note_on_c, 1, 32, 87
3, 102087, Note_on_c, 1, 44, 0
3, 102231, Note_on_c, 1, 43, 110
3, 102249, Note_on_c, 1, 32, 0
3, 102599, Note_on_c, 1, 43, 0
3, 102603, Note_on_c, 1, 40, 83
3, 102817, Note_on_c, 1, 36, 47
3, 102830, Note_on_c, 1, 40, 0
3, 102832, Note_on_c, 1, 36, 0
3, 102842, Note_on_c, 1, 52, 78
3, 103050, Note_on_c, 1, 39, 46
3, 103059, Note_on_c, 1, 39, 0
3, 103072, Note_on_c, 1, 52, 0
3, 103082, Note_on_c, 1, 45, 78
3, 103403, Note_on_c, 1, 33, 84
3, 103413, Note_on_c, 1, 45, 0
3, 103447, Note_on_c, 1, 49, 79
3, 103554, Note_on_c, 1, 33, 0
3, 103557, Note_on_c, 1, 49, 0
3, 103570, Note_on_c, 1, 49, 82
3, 103686, Note_on_c, 1, 49, 0
3, 103691, Note_on_c, 1, 41, 79
3, 103890, Note_on_c, 1, 36, 58
3, 103898, Note_on_c, 1, 41, 0
3, 103915, Note_on_c, 1, 36, 0
3, 103933, Note_on_c, 1, 33, 68
3, 104043, Note_on_c, 1, 33, 0
3, 104051, Note_on_c, 1, 40, 79
3, 104393, Note_on_c, 1, 40, 0
3, 104403, Note_on_c, 1, 39, 84
3, 104617, Note_on_c, 1, 39, 0
3, 104690, Note_on_c, 1, 38, 55
3, 104716, Note_on_c, 1, 38, 0
3, 104732, Note_on_c, 1, 39, 53
3, 104757, Note_on_c, 1, 39, 0
3, 104774, Note_on_c, 1, 40, 85
3, 104830, Pitch_bend_c, 1, 8192
3, 104833, Pitch_bend_c, 1, 8192
3, 104837, Pitch_bend_c, 1, 7680
3, 104839, Pitch_bend_c, 1, 7424
3, 104841, Pitch_bend_c, 1, 7296
3, 104843, Pitch_bend_c, 1, 7168
3, 104845, Pitch_bend_c, 1, 6912
3, 104847, Pitch_bend_c, 1, 6656
3, 104849, Pitch_bend_c, 1, 6528
3, 104851, Pitch_bend_c, 1, 6272
3, 104853, Pitch_bend_c, 1, 6016
3, 104855, Pitch_bend_c, 1, 5760
3, 104857, Pitch_bend_c, 1, 5632
3, 104859, Pitch_bend_c, 1, 5376
3, 104861, Pitch_bend_c, 1, 5120
3, 104863, Pitch_bend_c, 1, 4992
3, 104865, Pitch_bend_c, 1, 4736
3, 104867, Pitch_bend_c, 1, 4608
3, 104869, Pitch_bend_c, 1, 4480
3, 104871, Pitch_bend_c, 1, 4224
3, 104873, Pitch_bend_c, 1, 4096
3, 104875, Pitch_bend_c, 1, 3968
3, 104877, Pitch_bend_c, 1, 3840
3, 104881, Pitch_bend_c, 1, 3584
3, 104886, Pitch_bend_c, 1, 3456
3, 104893, Pitch_bend_c, 1, 3840
3, 104895, Pitch_bend_c, 1, 4096
3, 104897, Pitch_bend_c, 1, 4608
3, 104899, Pitch_bend_c, 1, 4992
3, 104901, Pitch_bend_c, 1, 5504
3, 104903, Note_on_c, 1, 40, 0
3, 104903, Pitch_bend_c, 1, 5760
3, 104905, Pitch_bend_c, 1, 6016
3, 104907, Pitch_bend_c, 1, 6272
3, 104909, Pitch_bend_c, 1, 6528
3, 104911, Pitch_bend_c, 1, 6656
3, 104913, Pitch_bend_c, 1, 6912
3, 104915, Pitch_bend_c, 1, 7168
3, 104917, Pitch_bend_c, 1, 7552
3, 104919, Pitch_bend_c, 1, 8192
3, 104920, Pitch_bend_c, 1, 8192
3, 105130, Note_on_c, 1, 41, 108
3, 105320, Note_on_c, 1, 41, 0
3, 105324, Note_on_c, 1, 40, 52
3, 105357, Note_on_c, 1, 40, 0
3, 105366, Note_on_c, 1, 41, 64
3, 105451, Note_on_c, 1, 41, 0
3, 105482, Note_on_c, 1, 53, 83
3, 105794, Note_on_c, 1, 41, 61
3, 105799, Note_on_c, 1, 53, 0
3, 105806, Note_on_c, 1, 41, 0
3, 105832, Note_on_c, 1, 52, 92
3, 105960, Note_on_c, 1, 40, 95
3, 105966, Note_on_c, 1, 52, 0
3, 106195, Note_on_c, 1, 40, 0
3, 106205, Note_on_c, 1, 33, 88
3, 106408, Note_on_c, 1, 45, 105
3, 106422, Note_on_c, 1, 33, 0
3, 106534, Note_on_c, 1, 33, 62
3, 106553, Note_on_c, 1, 45, 0
3, 106555, Note_on_c, 1, 33, 0
3, 106579, Note_on_c, 1, 46, 90
3, 106891, Note_on_c, 1, 46, 0
3, 106928, Note_on_c, 1, 45, 105
3, 106968, Pitch_bend_c, 1, 8192
3, 106974, Pitch_bend_c, 1, 8192
3, 106977, Pitch_bend_c, 1, 8192
3, 106982, Pitch_bend_c, 1, 8192
3, 106987, Pitch_bend_c, 1, 7680
3, 106989, Pitch_bend_c, 1, 7552
3, 106993, Pitch_bend_c, 1, 7424
3, 106995, Pitch_bend_c, 1, 7296
3, 106997, Pitch_bend_c, 1, 7168
3, 107001, Pitch_bend_c, 1, 6912
3, 107003, Pitch_bend_c, 1, 6784
3, 107005, Pitch_bend_c, 1, 6656
3, 107007, Pitch_bend_c, 1, 6528
3, 107009, Pitch_bend_c, 1, 6272
3, 107011, Pitch_bend_c, 1, 6144
3, 107013, Pitch_bend_c, 1, 5888
3, 107015, Pitch_bend_c, 1, 5760
3, 107017, Pitch_bend_c, 1, 5632
3, 107019, Pitch_bend_c, 1, 5504
3, 107021, Pitch_bend_c, 1, 5120
3, 107023, Pitch_bend_c, 1, 4992
3, 107025, Pitch_bend_c, 1, 4864
3, 107027, Pitch_bend_c, 1, 4736
3, 107029, Pitch_bend_c, 1, 4608
3, 107031, Pitch_bend_c, 1, 4352
3, 107033, Pitch_bend_c, 1, 4224
3, 107035, Pitch_bend_c, 1, 4096
3, 107037, Pitch_bend_c, 1, 3968
3, 107039, Pitch_bend_c, 1, 3840
3, 107043, Pitch_bend_c, 1, 3584
3, 107047, Pitch_bend_c, 1, 3456
3, 107051, Pitch_bend_c, 1, 3200
3, 107053, Pitch_bend_c, 1, 3072
3, 107055, Pitch_bend_c, 1, 2944
3, 107057, Pitch_bend_c, 1, 2816
3, 107061, Pitch_bend_c, 1, 2560
3, 107063, Pitch_bend_c, 1, 2432
3, 107065, Pitch_bend_c, 1, 2304
3, 107067, Pitch_bend_c, 1, 2048
3, 107069, Pitch_bend_c, 1, 1920
3, 107071, Pitch_bend_c, 1, 1792
3, 107075, Pitch_bend_c, 1, 1536
3, 107077, Pitch_bend_c, 1, 1408
3, 107081, Pitch_bend_c, 1, 1152
3, 107085, Pitch_bend_c, 1, 1024
3, 107097, Pitch_bend_c, 1, 1152
3, 107099, Pitch_bend_c, 1, 1408
3, 107101, Note_on_c, 1, 45, 0
3, 107101, Pitch_bend_c, 1, 1536
3, 107103, Pitch_bend_c, 1, 1920
3, 107105, Pitch_bend_c, 1, 2944
3, 107107, Pitch_bend_c, 1, 3840
3, 107109, Pitch_bend_c, 1, 4992
3, 107111, Pitch_bend_c, 1, 6528
3, 107113, Pitch_bend_c, 1, 8192
3, 107114, Pitch_bend_c, 1, 8192
3, 107403, Note_on_c, 1, 38, 75
3, 107527, Note_on_c, 1, 45, 110
3, 107539, Note_on_c, 1, 38, 0
3, 107600, Note_on_c, 1, 38, 63
3, 107628, Note_on_c, 1, 45, 0
3, 107629, Note_on_c, 1, 38, 0
3, 107646, Note_on_c, 1, 44, 88
3, 107882, Note_on_c, 1, 46, 15
3, 107965, Note_on_c, 1, 38, 58
3, 107975, Note_on_c, 1, 38, 0
3, 107985, Note_on_c, 1, 46, 0
3, 107989, Note_on_c, 1, 44, 0
3, 108003, Note_on_c, 1, 43, 72
3, 108077, Note_on_c, 1, 43, 0
3, 108088, Note_on_c, 1, 38, 60
3, 108114, Note_on_c, 1, 38, 0
3, 108130, Note_on_c, 1, 34, 77
3, 108343, Note_on_c, 1, 34, 0
3, 108351, Note_on_c, 1, 38, 37
3, 108362, Note_on_c, 1, 38, 0
3, 108381, Note_on_c, 1, 40, 82
3, 108564, Note_on_c, 1, 52, 101
3, 108607, Note_on_c, 1, 40, 0
3, 108692, Note_on_c, 1, 40, 57
3, 108712, Note_on_c, 1, 40, 0
3, 108718, Note_on_c, 1, 52, 0
3, 108733, Note_on_c, 1, 48, 99
3, 108826, Note_on_c, 1, 39, 23
3, 108835, Note_on_c, 1, 39, 0
3, 108923, Note_on_c, 1, 45, 92
3, 108939, Note_on_c, 1, 48, 0
3, 109051, Note_on_c, 1, 40, 68
3, 109074, Note_on_c, 1, 40, 0
3, 109084, Note_on_c, 1, 45, 0
3, 109092, Note_on_c, 1, 33, 91
3, 109259, Note_on_c, 1, 33, 0
3, 109271, Note_on_c, 1, 40, 105
3, 109280, Note_on_c, 1, 33, 54
3, 109281, Note_on_c, 1, 35, 55
3, 109289, Note_on_c, 1, 33, 0
3, 109291, Note_on_c, 1, 35, 0
3, 109394, Note_on_c, 1, 39, 53
3, 109414, Note_on_c, 1, 40, 0
3, 109432, Note_on_c, 1, 39, 0
3, 109443, Note_on_c, 1, 41, 110
3, 109634, Note_on_c, 1, 45, 115
3, 109673, Note_on_c, 1, 41, 0
3, 109801, Note_on_c, 1, 45, 0
3, 109809, Note_on_c, 1, 40, 88
3, 110003, Note_on_c, 1, 43, 82
3, 110046, Note_on_c, 1, 40, 0
3, 110121, Note_on_c, 1, 40, 48
3, 110153, Note_on_c, 1, 40, 0
3, 110165, Note_on_c, 1, 43, 0
3, 110169, Note_on_c, 1, 39, 82
3, 110365, Note_on_c, 1, 42, 92
3, 110417, Note_on_c, 1, 39, 0
3, 110484, Note_on_c, 1, 39, 54
3, 110519, Note_on_c, 1, 39, 0
3, 110526, Note_on_c, 1, 42, 0
3, 110528, Note_on_c, 1, 40, 94
3, 110719, Note_on_c, 1, 43, 110
3, 110745, Note_on_c, 1, 40, 0
3, 110839, Note_on_c, 1, 40, 62
3, 110859, Note_on_c, 1, 40, 0
3, 110874, Note_on_c, 1, 43, 0
3, 110881, Note_on_c, 1, 41, 88
3, 111358, Note_on_c, 1, 53, 101
3, 111380, Note_on_c, 1, 41, 0
3, 111484, Note_on_c, 1, 53, 0
3, 111723, Note_on_c, 1, 52, 96
3, 111923, Note_on_c, 1, 52, 0
3, 111923, Note_on_c, 1, 40, 60
3, 111935, Note_on_c, 1, 40, 0
3, 111963, Note_on_c, 1, 45, 80
3, 112159, Note_on_c, 1, 40, 66
3, 112174, Note_on_c, 1, 45, 0
3, 112187, Note_on_c, 1, 40, 0
3, 112201, Note_on_c, 1, 39, 62
3, 112312, Note_on_c, 1, 39, 0
3, 112326, Note_on_c, 1, 38, 66
3, 112443, Note_on_c, 1, 54, 94
3, 112523, Note_on_c, 1, 54, 0
3, 112564, Note_on_c, 1, 54, 92
3, 112769, Note_on_c, 1, 38, 0
3, 112822, Note_on_c, 1, 38, 90
3, 112835, Note_on_c, 1, 54, 0
3, 113135, Note_on_c, 1, 45, 49
3, 113146, Note_on_c, 1, 45, 0
3, 113179, Note_on_c, 1, 55, 108
3, 113282, Note_on_c, 1, 55, 0
3, 113291, Note_on_c, 1, 54, 86
3, 113320, Note_on_c, 1, 38, 0
3, 113411, Note_on_c, 1, 38, 84
3, 113416, Note_on_c, 1, 54, 0
3, 113578, Note_on_c, 1, 38, 0
3, 113605, Note_on_c, 1, 45, 99
3, 113769, Note_on_c, 1, 54, 90
3, 113781, Note_on_c, 1, 45, 0
3, 113957, Note_on_c, 1, 54, 0
3, 113962, Note_on_c, 1, 50, 88
3, 114121, Note_on_c, 1, 50, 0
3, 114129, Note_on_c, 1, 45, 99
3, 114292, Note_on_c, 1, 45, 0
3, 114323, Note_on_c, 1, 45, 92
3, 114479, Note_on_c, 1, 45, 0
3, 114491, Note_on_c, 1, 38, 88
3, 114682, Note_on_c, 1, 38, 0
3, 114682, Note_on_c, 1, 45, 92
3, 114849, Note_on_c, 1, 57, 101
3, 114988, Note_on_c, 1, 45, 0
3, 115043, Note_on_c, 1, 45, 95
3, 115184, Note_on_c, 1, 45, 0
3, 115185, Note_on_c, 1, 57, 0
3, 115197, Note_on_c, 1, 44, 84
3, 115375, Note_on_c, 1, 44, 0
3, 115400, Note_on_c, 1, 44, 87
3, 115562, Note_on_c, 1, 49, 92
3, 115577, Note_on_c, 1, 44, 0
3, 115876, Note_on_c, 1, 44, 70
3, 115906, Note_on_c, 1, 44, 0
3, 115906, Note_on_c, 1, 49, 0
3, 115922, Note_on_c, 1, 43, 80
3, 116110, Note_on_c, 1, 43, 0
3, 116124, Note_on_c, 1, 37, 83
3, 116253, Note_on_c, 1, 34, 34
3, 116270, Note_on_c, 1, 37, 0
3, 116284, Note_on_c, 1, 34, 0
3, 116288, Note_on_c, 1, 36, 74
3, 116506, Note_on_c, 1, 36, 0
3, 116526, Note_on_c, 1, 39, 52
3, 116554, Note_on_c, 1, 39, 0
3, 116600, Note_on_c, 1, 40, 76
3, 116633, Note_on_c, 1, 40, 0
3, 116647, Note_on_c, 1, 41, 87
3, 116855, Note_on_c, 1, 39, 30
3, 116884, Note_on_c, 1, 47, 90
3, 116897, Note_on_c, 1, 41, 0
3, 116900, Note_on_c, 1, 39, 0
3, 116963, Note_on_c, 1, 41, 63
3, 116988, Note_on_c, 1, 41, 0
3, 116991, Note_on_c, 1, 47, 0
3, 117008, Note_on_c, 1, 46, 86
3, 117325, Note_on_c, 1, 44, 72
3, 117336, Note_on_c, 1, 46, 0
3, 117347, Note_on_c, 1, 44, 0
3, 117372, Note_on_c, 1, 40, 82
3, 117551, Note_on_c, 1, 34, 84
3, 117559, Note_on_c, 1, 40, 0
3, 117720, Note_on_c, 1, 34, 0
3, 117738, Note_on_c, 1, 33, 68
3, 117918, Note_on_c, 1, 33, 0
3, 117925, Note_on_c, 1, 39, 80
3, 118044, Note_on_c, 1, 37, 60
3, 118056, Note_on_c, 1, 39, 0
3, 118079, Note_on_c, 1, 37, 0
3, 118087, Note_on_c, 1, 38, 73
3, 118387, Note_on_c, 1, 53, 90
3, 118439, Note_on_c, 1, 53, 0
3, 118448, Note_on_c, 1, 38, 0
3, 118450, Note_on_c, 1, 52, 85
3, 118524, Note_on_c, 1, 52, 0
3, 118550, Note_on_c, 1, 37, 78
3, 118760, Note_on_c, 1, 34, 35
3, 118778, Note_on_c, 1, 37, 0
3, 118784, Note_on_c, 1, 34, 0
3, 118795, Note_on_c, 1, 36, 87
3, 119027, Note_on_c, 1, 48, 110
3, 119043, Note_on_c, 1, 36, 0
3, 119120, Note_on_c, 1, 36, 61
3, 119141, Note_on_c, 1, 36, 0
3, 119150, Note_on_c, 1, 48, 0
3, 119162, Note_on_c, 1, 47, 92
3, 119400, Note_on_c, 1, 35, 91
3, 119402, Note_on_c, 1, 47, 0
3, 119512, Note_on_c, 1, 35, 0
3, 119524, Note_on_c, 1, 34, 83
3, 119762, Note_on_c, 1, 46, 94
3, 119790, Note_on_c, 1, 34, 0
3, 119850, Note_on_c, 1, 34, 52
3, 119873, Note_on_c, 1, 46, 0
3, 119878, Note_on_c, 1, 34, 0
3, 119888, Note_on_c, 1, 45, 95
3, 120120, Note_on_c, 1, 33, 85
3, 120129, Note_on_c, 1, 45, 0
3, 120239, Note_on_c, 1, 33, 0
3, 120250, Note_on_c, 1, 32, 85
3, 120480, Note_on_c, 1, 44, 87
3, 120493, Note_on_c, 1, 32, 0
3, 120593, Note_on_c, 1, 44, 0
3, 120679, Note_on_c, 1, 43, 96
3, 120798, Note_on_c, 1, 43, 0
3, 120810, Note_on_c, 1, 31, 39
3, 120823, Note_on_c, 1, 31, 0
3, 120849, Note_on_c, 1, 43, 87
3, 120933, Note_on_c, 1, 43, 0
3, 120968, Note_on_c, 1, 42, 88
3, 121285, Note_on_c, 1, 36, 63
3, 121294, Note_on_c, 1, 36, 0
3, 121318, Note_on_c, 1, 42, 0
3, 121325, Note_on_c, 1, 41, 88
3, 121613, Note_on_c, 1, 38, 61
3, 121631, Note_on_c, 1, 38, 0
3, 121648, Note_on_c, 1, 39, 69
3, 121652, Note_on_c, 1, 41, 0
3, 121670, Note_on_c, 1, 39, 0
3, 121691, Note_on_c, 1, 40, 85
3, 122022, Note_on_c, 1, 40, 0
3, 122030, Note_on_c, 1, 39, 85
3, 122357, Note_on_c, 1, 37, 45
3, 122375, Note_on_c, 1, 39, 0
3, 122387, Note_on_c, 1, 37, 0
3, 122396, Note_on_c, 1, 38, 80
3, 122594, Note_on_c, 1, 44, 97
3, 122623, Note_on_c, 1, 38, 0
3, 122724, Note_on_c, 1, 38, 69
3, 122745, Note_on_c, 1, 38, 0
3, 122758, Note_on_c, 1, 44, 0
3, 122764, Note_on_c, 1, 43, 88
3, 123076, Note_on_c, 1, 38, 67
3, 123103, Note_on_c, 1, 38, 0
3, 123103, Note_on_c, 1, 43, 0
3, 123124, Note_on_c, 1, 36, 89
3, 123315, Note_on_c, 1, 48, 99
3, 123504, Note_on_c, 1, 36, 0
3, 123607, Note_on_c, 1, 36, 88
3, 123619, Note_on_c, 1, 48, 0
3, 123799, Note_on_c, 1, 44, 91
3, 123831, Note_on_c, 1, 36, 0
3, 123921, Note_on_c, 1, 36, 80
3, 123933, Note_on_c, 1, 44, 0
3, 123943, Note_on_c, 1, 36, 0
3, 123966, Note_on_c, 1, 36, 94
3, 124078, Note_on_c, 1, 48, 105
3, 124232, Note_on_c, 1, 36, 0
3, 124290, Note_on_c, 1, 48, 0
3, 124458, Note_on_c, 1, 43, 74
3, 124575, Note_on_c, 1, 36, 85
3, 124607, Note_on_c, 1, 43, 0
3, 125010, Note_on_c, 1, 48, 94
3, 125190, Note_on_c, 1, 36, 0
3, 125790, Note_on_c, 1, 36, 88
3, 125841, Note_on_c, 1, 48, 0
3, 126869, Note_on_c, 1, 36, 0
3, 126869, End_track
4, 0, Start_track
4, 0, Title_t, ""
4, 0, Program_c, 2, 22
4, 0, Control_c, 2, 7, 120
4, 0, End_track
5, 0, Start_track
5, 0, Title_t, ""
5, 0, Program_c, 9, 40
5, 0, Control_c, 9, 7, 100
5, 0, Note_on_c, 9, 38, 71
5, 0, Note_on_c, 9, 40, 49
5, 71, Note_on_c, 9, 40, 0
5, 74, Note_on_c, 9, 38, 0
5, 120, Note_on_c, 9, 38, 66
5, 120, Note_on_c, 9, 40, 35
5, 193, Note_on_c, 9, 38, 0
5, 198, Note_on_c, 9, 40, 0
5, 240, Note_on_c, 9, 40, 34
5, 240, Note_on_c, 9, 38, 59
5, 305, Note_on_c, 9, 38, 0
5, 320, Note_on_c, 9, 39, 70
5, 327, Note_on_c, 9, 40, 0
5, 354, Note_on_c, 9, 39, 0
5, 360, Note_on_c, 9, 38, 53
5, 360, Note_on_c, 9, 40, 41
5, 464, Note_on_c, 9, 40, 0
5, 472, Note_on_c, 9, 38, 0
5, 480, Note_on_c, 9, 40, 32
5, 480, Note_on_c, 9, 38, 59
5, 484, Note_on_c, 9, 44, 32
5, 513, Note_on_c, 9, 44, 0
5, 573, Note_on_c, 9, 40, 0
5, 583, Note_on_c, 9, 38, 0
5, 600, Note_on_c, 9, 40, 30
5, 600, Note_on_c, 9, 38, 57
5, 603, Note_on_c, 9, 44, 32
5, 651, Note_on_c, 9, 44, 0
5, 690, Note_on_c, 9, 40, 0
5, 697, Note_on_c, 9, 38, 0
5, 720, Note_on_c, 9, 40, 35
5, 720, Note_on_c, 9, 38, 46
5, 797, Note_on_c, 9, 38, 0
5, 800, Note_on_c, 9, 39, 65
5, 803, Note_on_c, 9, 40, 0
5, 832, Note_on_c, 9, 39, 0
5, 840, Note_on_c, 9, 40, 30
5, 840, Note_on_c, 9, 38, 24
5, 899, Note_on_c, 9, 40, 0
5, 920, Note_on_c, 9, 38, 0
5, 920, Note_on_c, 9, 39, 81
5, 920, Note_on_c, 9, 40, 28
5, 928, Note_on_c, 9, 40, 0
5, 959, Note_on_c, 9, 39, 0
5, 960, Note_on_c, 9, 40, 37
5, 960, Note_on_c, 9, 38, 48
5, 1020, Note_on_c, 9, 40, 0
5, 1025, Note_on_c, 9, 38, 0
5, 1040, Note_on_c, 9, 40, 35
5, 1040, Note_on_c, 9, 38, 64
5, 1054, Note_on_c, 9, 40, 0
5, 1059, Note_on_c, 9, 38, 0
5, 1080, Note_on_c, 9, 40, 23
5, 1080, Note_on_c, 9, 38, 51
5, 1174, Note_on_c, 9, 40, 0
5, 1176, Note_on_c, 9, 38, 0
5, 1200, Note_on_c, 9, 40, 32
5, 1200, Note_on_c, 9, 38, 47
5, 1268, Note_on_c, 9, 38, 0
5, 1280, Note_on_c, 9, 40, 0
5, 1280, Note_on_c, 9, 39, 72
5, 1308, Note_on_c, 9, 39, 0
5, 1320, Note_on_c, 9, 40, 26
5, 1320, Note_on_c, 9, 38, 38
5, 1368, Note_on_c, 9, 40, 0
5, 1371, Note_on_c, 9, 38, 0
5, 1398, Note_on_c, 9, 44, 26
5, 1400, Note_on_c, 9, 40, 23
5, 1400, Note_on_c, 9, 38, 48
5, 1413, Note_on_c, 9, 44, 0
5, 1415, Note_on_c, 9, 40, 0
5, 1416, Note_on_c, 9, 38, 0
5, 1440, Note_on_c, 9, 40, 25
5, 1440, Note_on_c, 9, 38, 40
5, 1535, Note_on_c, 9, 40, 0
5, 1543, Note_on_c, 9, 38, 0
5, 1560, Note_on_c, 9, 38, 40
5, 1560, Note_on_c, 9, 40, 26
5, 1644, Note_on_c, 9, 40, 0
5, 1653, Note_on_c, 9, 38, 0
5, 1680, Note_on_c, 9, 40, 21
5, 1680, Note_on_c, 9, 38, 42
5, 1744, Note_on_c, 9, 38, 0
5, 1756, Note_on_c, 9, 40, 0
5, 1760, Note_on_c, 9, 39, 55
5, 1792, Note_on_c, 9, 39, 0
5, 1800, Note_on_c, 9, 40, 25
5, 1800, Note_on_c, 9, 38, 39
5, 1852, Note_on_c, 9, 40, 0
5, 1861, Note_on_c, 9, 38, 0
5, 1863, Note_on_c, 9, 44, 29
5, 1880, Note_on_c, 9, 39, 64
5, 1887, Note_on_c, 9, 44, 0
5, 1913, Note_on_c, 9, 39, 0
5, 1920, Note_on_c, 9, 40, 20
5, 1920, Note_on_c, 9, 38, 43
5, 1923, Note_on_c, 9, 36, 11
5, 1941, Note_on_c, 9, 36, 0
5, 2005, Note_on_c, 9, 38, 0
5, 2013, Note_on_c, 9, 40, 0
5, 2038, Note_on_c, 9, 36, 9
5, 2040, Note_on_c, 9, 38, 34
5, 2040, Note_on_c, 9, 40, 21
5, 2071, Note_on_c, 9, 36, 0
5, 2133, Note_on_c, 9, 40, 0
5, 2139, Note_on_c, 9, 38, 0
5, 2160, Note_on_c, 9, 38, 39
5, 2160, Note_on_c, 9, 40, 23
5, 2244, Note_on_c, 9, 40, 0
5, 2251, Note_on_c, 9, 38, 0
5, 2280, Note_on_c, 9, 38, 38
5, 2280, Note_on_c, 9, 40, 28
5, 2311, Note_on_c, 9, 38, 0
5, 2313, Note_on_c, 9, 40, 0
5, 2320, Note_on_c, 9, 39, 59
5, 2360, Note_on_c, 9, 39, 0
5, 2360, Note_on_c, 9, 38, 63
5, 2360, Note_on_c, 9, 40, 24
5, 2369, Note_on_c, 9, 40, 0
5, 2380, Note_on_c, 9, 38, 0
5, 2400, Note_on_c, 9, 40, 25
5, 2400, Note_on_c, 9, 38, 52
5, 2473, Note_on_c, 9, 40, 0
5, 2480, Note_on_c, 9, 38, 38
5, 2480, Note_on_c, 9, 40, 22
5, 2481, Note_on_c, 9, 38, 0
5, 2489, Note_on_c, 9, 40, 0
5, 2498, Note_on_c, 9, 38, 0
5, 2520, Note_on_c, 9, 38, 38
5, 2520, Note_on_c, 9, 40, 30
5, 2586, Note_on_c, 9, 40, 0
5, 2591, Note_on_c, 9, 38, 0
5, 2600, Note_on_c, 9, 39, 45
5, 2635, Note_on_c, 9, 39, 0
5, 2640, Note_on_c, 9, 40, 27
5, 2640, Note_on_c, 9, 38, 39
5, 2729, Note_on_c, 9, 40, 0
5, 2739, Note_on_c, 9, 38, 0
5, 2760, Note_on_c, 9, 38, 36
5, 2760, Note_on_c, 9, 40, 23
5, 2835, Note_on_c, 9, 59, 31
5, 2844, Note_on_c, 9, 40, 0
5, 2849, Note_on_c, 9, 59, 0
5, 2852, Note_on_c, 9, 38, 0
5, 2872, Note_on_c, 9, 36, 10
5, 2880, Note_on_c, 9, 38, 36
5, 2880, Note_on_c, 9, 40, 28
5, 2902, Note_on_c, 9, 36, 0
5, 2940, Note_on_c, 9, 38, 0
5, 2954, Note_on_c, 9, 40, 0
5, 2960, Note_on_c, 9, 39, 52
5, 2983, Note_on_c, 9, 39, 0
5, 2996, Note_on_c, 9, 36, 11
5, 3000, Note_on_c, 9, 38, 38
5, 3000, Note_on_c, 9, 40, 15
5, 3035, Note_on_c, 9, 36, 0
5, 3052, Note_on_c, 9, 40, 0
5, 3056, Note_on_c, 9, 38, 0
5, 3080, Note_on_c, 9, 39, 58
5, 3112, Note_on_c, 9, 39, 0
5, 3120, Note_on_c, 9, 40, 32
5, 3120, Note_on_c, 9, 38, 36
5, 3221, Note_on_c, 9, 40, 0
5, 3222, Note_on_c, 9, 38, 0
5, 3240, Note_on_c, 9, 38, 37
5, 3240, Note_on_c, 9, 40, 28
5, 3330, Note_on_c, 9, 40, 0
5, 3343, Note_on_c, 9, 38, 0
5, 3360, Note_on_c, 9, 40, 27
5, 3360, Note_on_c, 9, 38, 45
5, 3445, Note_on_c, 9, 40, 0
5, 3453, Note_on_c, 9, 38, 0
5, 3480, Note_on_c, 9, 38, 44
5, 3480, Note_on_c, 9, 40, 29
5, 3545, Note_on_c, 9, 38, 0
5, 3554, Note_on_c, 9, 40, 0
5, 3560, Note_on_c, 9, 39, 57
5, 3588, Note_on_c, 9, 39, 0
5, 3600, Note_on_c, 9, 40, 23
5, 3600, Note_on_c, 9, 38, 42
5, 3651, Note_on_c, 9, 40, 0
5, 3657, Note_on_c, 9, 38, 0
5, 3680, Note_on_c, 9, 39, 60
5, 3709, Note_on_c, 9, 39, 0
5, 3720, Note_on_c, 9, 40, 33
5, 3720, Note_on_c, 9, 38, 26
5, 3817, Note_on_c, 9, 40, 0
5, 3823, Note_on_c, 9, 38, 0
5, 3840, Note_on_c, 9, 38, 44
5, 3840, Note_on_c, 9, 40, 25
5, 3928, Note_on_c, 9, 40, 0
5, 3933, Note_on_c, 9, 38, 0
5, 3960, Note_on_c, 9, 38, 46
5, 3960, Note_on_c, 9, 40, 30
5, 3998, Note_on_c, 9, 38, 0
5, 3999, Note_on_c, 9, 40, 0
5, 4000, Note_on_c, 9, 39, 52
5, 4023, Note_on_c, 9, 39, 0
5, 4040, Note_on_c, 9, 39, 46
5, 4075, Note_on_c, 9, 39, 0
5, 4077, Note_on_c, 9, 44, 28
5, 4080, Note_on_c, 9, 38, 37
5, 4080, Note_on_c, 9, 40, 30
5, 4097, Note_on_c, 9, 44, 0
5, 4153, Note_on_c, 9, 38, 0
5, 4160, Note_on_c, 9, 40, 0
5, 4160, Note_on_c, 9, 39, 67
5, 4194, Note_on_c, 9, 39, 0
5, 4200, Note_on_c, 9, 38, 52
5, 4200, Note_on_c, 9, 40, 9
5, 4249, Note_on_c, 9, 40, 0
5, 4256, Note_on_c, 9, 38, 0
5, 4280, Note_on_c, 9, 39, 55
5, 4314, Note_on_c, 9, 39, 0
5, 4320, Note_on_c, 9, 40, 32
5, 4320, Note_on_c, 9, 38, 37
5, 4367, Note_on_c, 9, 40, 0
5, 4369, Note_on_c, 9, 38, 0
5, 4400, Note_on_c, 9, 38, 49
5, 4400, Note_on_c, 9, 40, 34
5, 4417, Note_on_c, 9, 40, 0
5, 4425, Note_on_c, 9, 38, 0
5, 4440, Note_on_c, 9, 40, 29
5, 4440, Note_on_c, 9, 38, 49
5, 4506, Note_on_c, 9, 40, 0
5, 4509, Note_on_c, 9, 38, 0
5, 4520, Note_on_c, 9, 39, 55
5, 4557, Note_on_c, 9, 39, 0
5, 4560, Note_on_c, 9, 38, 40
5, 4560, Note_on_c, 9, 40, 32
5, 4601, Note_on_c, 9, 40, 0
5, 4606, Note_on_c, 9, 38, 0
5, 4640, Note_on_c, 9, 38, 61
5, 4640, Note_on_c, 9, 40, 33
5, 4663, Note_on_c, 9, 40, 0
5, 4664, Note_on_c, 9, 38, 0
5, 4680, Note_on_c, 9, 40, 29
5, 4680, Note_on_c, 9, 38, 47
5, 4737, Note_on_c, 9, 38, 0
5, 4739, Note_on_c, 9, 40, 0
5, 4760, Note_on_c, 9, 39, 60
5, 4799, Note_on_c, 9, 39, 0
5, 4800, Note_on_c, 9, 40, 30
5, 4800, Note_on_c, 9, 38, 43
5, 4844, Note_on_c, 9, 40, 0
5, 4845, Note_on_c, 9, 38, 0
5, 4880, Note_on_c, 9, 40, 32
5, 4880, Note_on_c, 9, 38, 63
5, 4906, Note_on_c, 9, 38, 0
5, 4907, Note_on_c, 9, 40, 0
5, 4920, Note_on_c, 9, 40, 23
5, 4920, Note_on_c, 9, 38, 47
5, 4921, Note_on_c, 9, 46, 11
5, 4945, Note_on_c, 9, 46, 0
5, 4969, Note_on_c, 9, 38, 0
5, 4977, Note_on_c, 9, 40, 0
5, 5000, Note_on_c, 9, 39, 57
5, 5033, Note_on_c, 9, 39, 0
5, 5040, Note_on_c, 9, 40, 23
5, 5040, Note_on_c, 9, 38, 44
5, 5141, Note_on_c, 9, 40, 0
5, 5144, Note_on_c, 9, 38, 0
5, 5151, Note_on_c, 9, 44, 30
5, 5160, Note_on_c, 9, 38, 45
5, 5160, Note_on_c, 9, 40, 30
5, 5172, Note_on_c, 9, 44, 0
5, 5251, Note_on_c, 9, 40, 0
5, 5259, Note_on_c, 9, 38, 0
5, 5280, Note_on_c, 9, 40, 28
5, 5280, Note_on_c, 9, 38, 46
5, 5280, Note_on_c, 9, 44, 32
5, 5327, Note_on_c, 9, 44, 0
5, 5343, Note_on_c, 9, 38, 0
5, 5348, Note_on_c, 9, 40, 0
5, 5360, Note_on_c, 9, 39, 57
5, 5393, Note_on_c, 9, 39, 0
5, 5400, Note_on_c, 9, 40, 26
5, 5400, Note_on_c, 9, 38, 43
5, 5472, Note_on_c, 9, 40, 0
5, 5477, Note_on_c, 9, 38, 0
5, 5480, Note_on_c, 9, 39, 60
5, 5510, Note_on_c, 9, 39, 0
5, 5520, Note_on_c, 9, 38, 45
5, 5520, Note_on_c, 9, 40, 32
5, 5529, Note_on_c, 9, 44, 26
5, 5555, Note_on_c, 9, 44, 0
5, 5614, Note_on_c, 9, 40, 0
5, 5625, Note_on_c, 9, 38, 0
5, 5640, Note_on_c, 9, 38, 46
5, 5640, Note_on_c, 9, 40, 35
5, 5644, Note_on_c, 9, 44, 25
5, 5673, Note_on_c, 9, 44, 0
5, 5711, Note_on_c, 9, 38, 0
5, 5717, Note_on_c, 9, 40, 0
5, 5720, Note_on_c, 9, 39, 63
5, 5753, Note_on_c, 9, 39, 0
5, 5760, Note_on_c, 9, 40, 32
5, 5760, Note_on_c, 9, 38, 43
5, 5849, Note_on_c, 9, 40, 0
5, 5856, Note_on_c, 9, 38, 0
5, 5880, Note_on_c, 9, 40, 32
5, 5880, Note_on_c, 9, 38, 50
5, 5967, Note_on_c, 9, 40, 0
5, 5973, Note_on_c, 9, 38, 0
5, 6000, Note_on_c, 9, 38, 51
5, 6000, Note_on_c, 9, 40, 30
5, 6073, Note_on_c, 9, 38, 0
5, 6079, Note_on_c, 9, 40, 0
5, 6080, Note_on_c, 9, 39, 59
5, 6116, Note_on_c, 9, 39, 0
5, 6120, Note_on_c, 9, 40, 31
5, 6120, Note_on_c, 9, 38, 38
5, 6178, Note_on_c, 9, 38, 0
5, 6178, Note_on_c, 9, 40, 0
5, 6200, Note_on_c, 9, 39, 65
5, 6238, Note_on_c, 9, 39, 0
5, 6240, Note_on_c, 9, 38, 38
5, 6240, Note_on_c, 9, 40, 23
5, 6249, Note_on_c, 9, 59, 30
5, 6263, Note_on_c, 9, 59, 0
5, 6325, Note_on_c, 9, 40, 0
5, 6334, Note_on_c, 9, 38, 0
5, 6360, Note_on_c, 9, 38, 49
5, 6360, Note_on_c, 9, 40, 31
5, 6366, Note_on_c, 9, 59, 51
5, 6379, Note_on_c, 9, 59, 0
5, 6429, Note_on_c, 9, 38, 0
5, 6436, Note_on_c, 9, 40, 0
5, 6440, Note_on_c, 9, 39, 52
5, 6462, Note_on_c, 9, 39, 0
5, 6480, Note_on_c, 9, 40, 25
5, 6480, Note_on_c, 9, 38, 39
5, 6534, Note_on_c, 9, 40, 0
5, 6535, Note_on_c, 9, 38, 0
5, 6560, Note_on_c, 9, 40, 32
5, 6560, Note_on_c, 9, 38, 54
5, 6629, Note_on_c, 9, 38, 0
5, 6636, Note_on_c, 9, 40, 0
5, 6640, Note_on_c, 9, 39, 60
5, 6665, Note_on_c, 9, 39, 0
5, 6680, Note_on_c, 9, 40, 43
5, 6680, Note_on_c, 9, 38, 50
5, 6699, Note_on_c, 9, 40, 0
5, 6702, Note_on_c, 9, 38, 0
5, 6720, Note_on_c, 9, 38, 63
5, 6720, Note_on_c, 9, 40, 33
5, 6773, Note_on_c, 9, 40, 0
5, 6778, Note_on_c, 9, 38, 0
5, 6800, Note_on_c, 9, 39, 54
5, 6838, Note_on_c, 9, 39, 0
5, 6840, Note_on_c, 9, 40, 30
5, 6840, Note_on_c, 9, 38, 48
5, 6900, Note_on_c, 9, 38, 0
5, 6906, Note_on_c, 9, 40, 0
5, 6920, Note_on_c, 9, 38, 62
5, 6920, Note_on_c, 9, 39, 59
5, 6929, Note_on_c, 9, 38, 0
5, 6960, Note_on_c, 9, 40, 30
5, 6960, Note_on_c, 9, 38, 50
5, 6973, Note_on_c, 9, 39, 0
5, 7015, Note_on_c, 9, 38, 0
5, 7020, Note_on_c, 9, 40, 0
5, 7033, Note_on_c, 9, 53, 41
5, 7047, Note_on_c, 9, 53, 0
5, 7080, Note_on_c, 9, 40, 24
5, 7080, Note_on_c, 9, 38, 54
5, 7086, Note_on_c, 9, 53, 40
5, 7108, Note_on_c, 9, 53, 0
5, 7146, Note_on_c, 9, 38, 0
5, 7151, Note_on_c, 9, 40, 0
5, 7160, Note_on_c, 9, 39, 59
5, 7166, Note_on_c, 9, 36, 9
5, 7180, Note_on_c, 9, 36, 0
5, 7200, Note_on_c, 9, 39, 0
5, 7200, Note_on_c, 9, 40, 26
5, 7200, Note_on_c, 9, 38, 36
5, 7279, Note_on_c, 9, 40, 0
5, 7286, Note_on_c, 9, 38, 0
5, 7320, Note_on_c, 9, 40, 28
5, 7320, Note_on_c, 9, 38, 48
5, 7406, Note_on_c, 9, 40, 0
5, 7407, Note_on_c, 9, 38, 0
5, 7440, Note_on_c, 9, 40, 25
5, 7440, Note_on_c, 9, 38, 45
5, 7533, Note_on_c, 9, 40, 0
5, 7539, Note_on_c, 9, 38, 0
5, 7560, Note_on_c, 9, 40, 28
5, 7560, Note_on_c, 9, 38, 42
5, 7650, Note_on_c, 9, 40, 0
5, 7656, Note_on_c, 9, 38, 0
5, 7680, Note_on_c, 9, 40, 27
5, 7680, Note_on_c, 9, 38, 47
5, 7731, Note_on_c, 9, 40, 0
5, 7736, Note_on_c, 9, 38, 0
5, 7760, Note_on_c, 9, 40, 37
5, 7760, Note_on_c, 9, 38, 60
5, 7778, Note_on_c, 9, 40, 0
5, 7782, Note_on_c, 9, 38, 0
5, 7800, Note_on_c, 9, 40, 21
5, 7800, Note_on_c, 9, 38, 46
5, 7850, Note_on_c, 9, 40, 0
5, 7853, Note_on_c, 9, 38, 0
5, 7874, Note_on_c, 9, 59, 45
5, 7880, Note_on_c, 9, 38, 61
5, 7880, Note_on_c, 9, 40, 32
5, 7885, Note_on_c, 9, 59, 0
5, 7896, Note_on_c, 9, 40, 0
5, 7904, Note_on_c, 9, 38, 0
5, 7917, Note_on_c, 9, 36, 10
5, 7920, Note_on_c, 9, 40, 25
5, 7920, Note_on_c, 9, 38, 51
5, 7932, Note_on_c, 9, 36, 0
5, 8008, Note_on_c, 9, 40, 0
5, 8017, Note_on_c, 9, 38, 0
5, 8040, Note_on_c, 9, 40, 31
5, 8040, Note_on_c, 9, 38, 44
5, 8106, Note_on_c, 9, 40, 0
5, 8115, Note_on_c, 9, 38, 0
5, 8120, Note_on_c, 9, 39, 67
5, 8136, Note_on_c, 9, 36, 13
5, 8143, Note_on_c, 9, 39, 0
5, 8148, Note_on_c, 9, 36, 0
5, 8160, Note_on_c, 9, 40, 28
5, 8160, Note_on_c, 9, 38, 47
5, 8220, Note_on_c, 9, 40, 0
5, 8224, Note_on_c, 9, 38, 0
5, 8240, Note_on_c, 9, 38, 57
5, 8240, Note_on_c, 9, 40, 37
5, 8257, Note_on_c, 9, 40, 0
5, 8262, Note_on_c, 9, 38, 0
5, 8280, Note_on_c, 9, 38, 50
5, 8280, Note_on_c, 9, 40, 25
5, 8361, Note_on_c, 9, 40, 0
5, 8369, Note_on_c, 9, 38, 0
5, 8400, Note_on_c, 9, 38, 48
5, 8400, Note_on_c, 9, 40, 35
5, 8483, Note_on_c, 9, 40, 0
5, 8490, Note_on_c, 9, 38, 0
5, 8520, Note_on_c, 9, 40, 32
5, 8520, Note_on_c, 9, 38, 52
5, 8594, Note_on_c, 9, 38, 0
5, 8600, Note_on_c, 9, 39, 67
5, 8605, Note_on_c, 9, 40, 0
5, 8631, Note_on_c, 9, 39, 0
5, 8640, Note_on_c, 9, 38, 46
5, 8640, Note_on_c, 9, 40, 30
5, 8709, Note_on_c, 9, 44, 32
5, 8722, Note_on_c, 9, 44, 0
5, 8729, Note_on_c, 9, 40, 0
5, 8739, Note_on_c, 9, 38, 0
5, 8760, Note_on_c, 9, 40, 32
5, 8760, Note_on_c, 9, 38, 50
5, 8806, Note_on_c, 9, 44, 31
5, 8826, Note_on_c, 9, 44, 0
5, 8832, Note_on_c, 9, 38, 0
5, 8840, Note_on_c, 9, 39, 64
5, 8843, Note_on_c, 9, 40, 0
5, 8867, Note_on_c, 9, 39, 0
5, 8880, Note_on_c, 9, 38, 46
5, 8880, Note_on_c, 9, 40, 33
5, 8898, Note_on_c, 9, 44, 32
5, 8925, Note_on_c, 9, 44, 0
5, 8964, Note_on_c, 9, 40, 0
5, 8973, Note_on_c, 9, 38, 0
5, 8979, Note_on_c, 9, 44, 32
5, 8990, Note_on_c, 9, 44, 0
5, 9000, Note_on_c, 9, 38, 48
5, 9000, Note_on_c, 9, 40, 28
5, 9020, Note_on_c, 9, 36, 15
5, 9031, Note_on_c, 9, 36, 0
5, 9079, Note_on_c, 9, 40, 0
5, 9092, Note_on_c, 9, 38, 0
5, 9120, Note_on_c, 9, 38, 46
5, 9120, Note_on_c, 9, 40, 26
5, 9142, Note_on_c, 9, 36, 9
5, 9188, Note_on_c, 9, 40, 0
5, 9194, Note_on_c, 9, 36, 0
5, 9194, Note_on_c, 9, 38, 0
5, 9240, Note_on_c, 9, 38, 47
5, 9240, Note_on_c, 9, 40, 23
5, 9261, Note_on_c, 9, 36, 9
5, 9299, Note_on_c, 9, 38, 0
5, 9302, Note_on_c, 9, 40, 0
5, 9308, Note_on_c, 9, 36, 0
5, 9320, Note_on_c, 9, 38, 29
5, 9320, Note_on_c, 9, 39, 74
5, 9328, Note_on_c, 9, 38, 0
5, 9336, Note_on_c, 9, 39, 0
5, 9360, Note_on_c, 9, 40, 31
5, 9360, Note_on_c, 9, 38, 57
5, 9449, Note_on_c, 9, 40, 0
5, 9457, Note_on_c, 9, 38, 0
5, 9480, Note_on_c, 9, 40, 26
5, 9480, Note_on_c, 9, 38, 44
5, 9565, Note_on_c, 9, 40, 0
5, 9571, Note_on_c, 9, 38, 0
5, 9600, Note_on_c, 9, 40, 23
5, 9600, Note_on_c, 9, 38, 60
5, 9644, Note_on_c, 9, 38, 0
5, 9644, Note_on_c, 9, 40, 0
5, 9680, Note_on_c, 9, 40, 39
5, 9680, Note_on_c, 9, 38, 68
5, 9699, Note_on_c, 9, 40, 0
5, 9701, Note_on_c, 9, 38, 0
5, 9720, Note_on_c, 9, 40, 17
5, 9720, Note_on_c, 9, 38, 42
5, 9767, Note_on_c, 9, 38, 0
5, 9769, Note_on_c, 9, 40, 0
5, 9800, Note_on_c, 9, 40, 35
5, 9800, Note_on_c, 9, 38, 60
5, 9823, Note_on_c, 9, 40, 0
5, 9824, Note_on_c, 9, 38, 0
5, 9840, Note_on_c, 9, 40, 18
5, 9840, Note_on_c, 9, 38, 50
5, 9917, Note_on_c, 9, 38, 0
5, 9920, Note_on_c, 9, 40, 0
5, 9920, Note_on_c, 9, 38, 72
5, 9920, Note_on_c, 9, 40, 39
5, 9936, Note_on_c, 9, 40, 0
5, 9939, Note_on_c, 9, 38, 0
5, 9960, Note_on_c, 9, 40, 24
5, 9960, Note_on_c, 9, 38, 35
5, 9986, Note_on_c, 9, 38, 0
5, 9998, Note_on_c, 9, 40, 0
5, 10040, Note_on_c, 9, 40, 34
5, 10040, Note_on_c, 9, 38, 55
5, 10058, Note_on_c, 9, 40, 0
5, 10061, Note_on_c, 9, 38, 0
5, 10080, Note_on_c, 9, 40, 25
5, 10080, Note_on_c, 9, 38, 51
5, 10168, Note_on_c, 9, 40, 0
5, 10173, Note_on_c, 9, 38, 0
5, 10200, Note_on_c, 9, 38, 54
5, 10200, Note_on_c, 9, 40, 26
5, 10204, Note_on_c, 9, 44, 25
5, 10238, Note_on_c, 9, 44, 0
5, 10276, Note_on_c, 9, 38, 0
5, 10280, Note_on_c, 9, 39, 62
5, 10282, Note_on_c, 9, 40, 0
5, 10316, Note_on_c, 9, 39, 0
5, 10320, Note_on_c, 9, 40, 28
5, 10320, Note_on_c, 9, 38, 46
5, 10380, Note_on_c, 9, 40, 0
5, 10384, Note_on_c, 9, 38, 0
5, 10400, Note_on_c, 9, 39, 64
5, 10429, Note_on_c, 9, 39, 0
5, 10440, Note_on_c, 9, 38, 46
5, 10440, Note_on_c, 9, 40, 29
5, 10523, Note_on_c, 9, 40, 0
5, 10532, Note_on_c, 9, 38, 0
5, 10558, Note_on_c, 9, 44, 21
5, 10560, Note_on_c, 9, 38, 52
5, 10560, Note_on_c, 9, 40, 28
5, 10612, Note_on_c, 9, 44, 0
5, 10648, Note_on_c, 9, 40, 0
5, 10649, Note_on_c, 9, 38, 0
5, 10676, Note_on_c, 9, 44, 27
5, 10680, Note_on_c, 9, 40, 32
5, 10680, Note_on_c, 9, 38, 48
5, 10731, Note_on_c, 9, 44, 0
5, 10739, Note_on_c, 9, 38, 0
5, 10760, Note_on_c, 9, 39, 55
5, 10761, Note_on_c, 9, 40, 0
5, 10795, Note_on_c, 9, 39, 0
5, 10800, Note_on_c, 9, 40, 32
5, 10800, Note_on_c, 9, 38, 52
5, 10883, Note_on_c, 9, 40, 0
5, 10886, Note_on_c, 9, 38, 0
5, 10919, Note_on_c, 9, 44, 27
5, 10920, Note_on_c, 9, 40, 27
5, 10920, Note_on_c, 9, 38, 47
5, 10956, Note_on_c, 9, 44, 0
5, 10998, Note_on_c, 9, 40, 0
5, 11003, Note_on_c, 9, 38, 0
5, 11040, Note_on_c, 9, 38, 54
5, 11040, Note_on_c, 9, 40, 35
5, 11114, Note_on_c, 9, 38, 0
5, 11120, Note_on_c, 9, 40, 0
5, 11120, Note_on_c, 9, 39, 56
5, 11148, Note_on_c, 9, 39, 0
5, 11160, Note_on_c, 9, 38, 45
5, 11160, Note_on_c, 9, 40, 28
5, 11220, Note_on_c, 9, 40, 0
5, 11224, Note_on_c, 9, 38, 0
5, 11240, Note_on_c, 9, 40, 30
5, 11240, Note_on_c, 9, 38, 53
5, 11258, Note_on_c, 9, 40, 0
5, 11260, Note_on_c, 9, 38, 0
5, 11280, Note_on_c, 9, 40, 28
5, 11280, Note_on_c, 9, 38, 52
5, 11325, Note_on_c, 9, 40, 0
5, 11326, Note_on_c, 9, 38, 0
5, 11360, Note_on_c, 9, 40, 27
5, 11360, Note_on_c, 9, 38, 55
5, 11380, Note_on_c, 9, 40, 0
5, 11386, Note_on_c, 9, 38, 0
5, 11400, Note_on_c, 9, 38, 45
5, 11400, Note_on_c, 9, 40, 22
5, 11412, Note_on_c, 9, 46, 9
5, 11435, Note_on_c, 9, 46, 0
5, 11438, Note_on_c, 9, 40, 0
5, 11441, Note_on_c, 9, 38, 0
5, 11480, Note_on_c, 9, 38, 53
5, 11480, Note_on_c, 9, 40, 35
5, 11499, Note_on_c, 9, 40, 0
5, 11506, Note_on_c, 9, 38, 0
5, 11520, Note_on_c, 9, 38, 46
5, 11520, Note_on_c, 9, 40, 35
5, 11580, Note_on_c, 9, 40, 0
5, 11581, Note_on_c, 9, 38, 0
5, 11640, Note_on_c, 9, 40, 29
5, 11640, Note_on_c, 9, 38, 50
5, 11728, Note_on_c, 9, 38, 0
5, 11728, Note_on_c, 9, 40, 0
5, 11760, Note_on_c, 9, 40, 34
5, 11760, Note_on_c, 9, 38, 51
5, 11858, Note_on_c, 9, 38, 0
5, 11858, Note_on_c, 9, 40, 0
5, 11880, Note_on_c, 9, 40, 32
5, 11880, Note_on_c, 9, 38, 49
5, 11955, Note_on_c, 9, 38, 0
5, 11960, Note_on_c, 9, 39, 69
5, 11963, Note_on_c, 9, 40, 0
5, 11991, Note_on_c, 9, 39, 0
5, 11997, Note_on_c, 9, 44, 25
5, 12000, Note_on_c, 9, 38, 51
5, 12000, Note_on_c, 9, 40, 25
5, 12032, Note_on_c, 9, 44, 0
5, 12058, Note_on_c, 9, 40, 0
5, 12061, Note_on_c, 9, 38, 0
5, 12080, Note_on_c, 9, 40, 30
5, 12080, Note_on_c, 9, 38, 54
5, 12098, Note_on_c, 9, 38, 0
5, 12099, Note_on_c, 9, 40, 0
5, 12115, Note_on_c, 9, 44, 28
5, 12120, Note_on_c, 9, 40, 30
5, 12120, Note_on_c, 9, 38, 53
5, 12154, Note_on_c, 9, 44, 0
5, 12187, Note_on_c, 9, 38, 0
5, 12200, Note_on_c, 9, 39, 67
5, 12205, Note_on_c, 9, 40, 0
5, 12231, Note_on_c, 9, 39, 0
5, 12240, Note_on_c, 9, 38, 51
5, 12240, Note_on_c, 9, 40, 28
5, 12328, Note_on_c, 9, 40, 0
5, 12343, Note_on_c, 9, 38, 0
5, 12360, Note_on_c, 9, 40, 32
5, 12360, Note_on_c, 9, 38, 47
5, 12449, Note_on_c, 9, 40, 0
5, 12453, Note_on_c, 9, 38, 0
5, 12468, Note_on_c, 9, 36, 11
5, 12480, Note_on_c, 9, 38, 48
5, 12480, Note_on_c, 9, 40, 29
5, 12489, Note_on_c, 9, 36, 0
5, 12552, Note_on_c, 9, 38, 0
5, 12560, Note_on_c, 9, 39, 62
5, 12564, Note_on_c, 9, 40, 0
5, 12582, Note_on_c, 9, 39, 0
5, 12600, Note_on_c, 9, 38, 36
5, 12600, Note_on_c, 9, 40, 22
5, 12691, Note_on_c, 9, 40, 0
5, 12699, Note_on_c, 9, 38, 0
5, 12720, Note_on_c, 9, 40, 32
5, 12720, Note_on_c, 9, 38, 51
5, 12813, Note_on_c, 9, 40, 0
5, 12820, Note_on_c, 9, 38, 0
5, 12840, Note_on_c, 9, 40, 32
5, 12840, Note_on_c, 9, 38, 46
5, 12915, Note_on_c, 9, 44, 33
5, 12927, Note_on_c, 9, 44, 0
5, 12938, Note_on_c, 9, 40, 0
5, 12942, Note_on_c, 9, 38, 0
5, 12960, Note_on_c, 9, 40, 27
5, 12960, Note_on_c, 9, 38, 48
5, 12966, Note_on_c, 9, 36, 7
5, 12985, Note_on_c, 9, 36, 0
5, 13049, Note_on_c, 9, 40, 0
5, 13053, Note_on_c, 9, 38, 0
5, 13080, Note_on_c, 9, 40, 27
5, 13080, Note_on_c, 9, 38, 57
5, 13118, Note_on_c, 9, 38, 0
5, 13120, Note_on_c, 9, 39, 42
5, 13123, Note_on_c, 9, 40, 0
5, 13130, Note_on_c, 9, 39, 0
5, 13160, Note_on_c, 9, 39, 56
5, 13190, Note_on_c, 9, 39, 0
5, 13197, Note_on_c, 9, 36, 8
5, 13200, Note_on_c, 9, 38, 32
5, 13200, Note_on_c, 9, 40, 38
5, 13229, Note_on_c, 9, 36, 0
5, 13270, Note_on_c, 9, 40, 0
5, 13271, Note_on_c, 9, 38, 0
5, 13320, Note_on_c, 9, 40, 32
5, 13320, Note_on_c, 9, 38, 40
5, 13406, Note_on_c, 9, 40, 0
5, 13410, Note_on_c, 9, 38, 0
5, 13440, Note_on_c, 9, 38, 51
5, 13440, Note_on_c, 9, 40, 23
5, 13508, Note_on_c, 9, 40, 0
5, 13520, Note_on_c, 9, 40, 27
5, 13533, Note_on_c, 9, 40, 0
5, 13537, Note_on_c, 9, 38, 0
5, 13560, Note_on_c, 9, 40, 38
5, 13560, Note_on_c, 9, 38, 57
5, 13650, Note_on_c, 9, 40, 0
5, 13656, Note_on_c, 9, 38, 0
5, 13680, Note_on_c, 9, 40, 30
5, 13680, Note_on_c, 9, 38, 51
5, 13749, Note_on_c, 9, 38, 0
5, 13754, Note_on_c, 9, 40, 0
5, 13760, Note_on_c, 9, 39, 67
5, 13794, Note_on_c, 9, 39, 0
5, 13800, Note_on_c, 9, 38, 48
5, 13800, Note_on_c, 9, 40, 23
5, 13885, Note_on_c, 9, 40, 0
5, 13897, Note_on_c, 9, 38, 0
5, 13920, Note_on_c, 9, 40, 32
5, 13920, Note_on_c, 9, 38, 50
5, 14008, Note_on_c, 9, 40, 0
5, 14010, Note_on_c, 9, 38, 0
5, 14040, Note_on_c, 9, 40, 30
5, 14040, Note_on_c, 9, 38, 57
5, 14109, Note_on_c, 9, 38, 0
5, 14119, Note_on_c, 9, 40, 0
5, 14120, Note_on_c, 9, 39, 64
5, 14122, Note_on_c, 9, 36, 11
5, 14135, Note_on_c, 9, 36, 0
5, 14156, Note_on_c, 9, 39, 0
5, 14160, Note_on_c, 9, 40, 24
5, 14160, Note_on_c, 9, 38, 46
5, 14168, Note_on_c, 9, 59, 50
5, 14188, Note_on_c, 9, 59, 0
5, 14240, Note_on_c, 9, 40, 0
5, 14243, Note_on_c, 9, 53, 64
5, 14249, Note_on_c, 9, 38, 0
5, 14253, Note_on_c, 9, 53, 0
5, 14280, Note_on_c, 9, 40, 26
5, 14280, Note_on_c, 9, 38, 50
5, 14357, Note_on_c, 9, 38, 0
5, 14360, Note_on_c, 9, 39, 63
5, 14365, Note_on_c, 9, 40, 0
5, 14394, Note_on_c, 9, 39, 0
5, 14400, Note_on_c, 9, 40, 31
5, 14400, Note_on_c, 9, 38, 46
5, 14491, Note_on_c, 9, 40, 0
5, 14492, Note_on_c, 9, 38, 0
5, 14497, Note_on_c, 9, 59, 39
5, 14509, Note_on_c, 9, 59, 0
5, 14520, Note_on_c, 9, 40, 32
5, 14520, Note_on_c, 9, 38, 65
5, 14590, Note_on_c, 9, 59, 61
5, 14611, Note_on_c, 9, 40, 0
5, 14612, Note_on_c, 9, 38, 0
5, 14615, Note_on_c, 9, 59, 0
5, 14640, Note_on_c, 9, 40, 30
5, 14640, Note_on_c, 9, 38, 51
5, 14651, Note_on_c, 9, 53, 52
5, 14663, Note_on_c, 9, 53, 0
5, 14716, Note_on_c, 9, 38, 0
5, 14720, Note_on_c, 9, 39, 64
5, 14723, Note_on_c, 9, 36, 14
5, 14724, Note_on_c, 9, 40, 0
5, 14737, Note_on_c, 9, 36, 0
5, 14746, Note_on_c, 9, 39, 0
5, 14760, Note_on_c, 9, 40, 28
5, 14760, Note_on_c, 9, 38, 50
5, 14852, Note_on_c, 9, 40, 0
5, 14860, Note_on_c, 9, 38, 0
5, 14880, Note_on_c, 9, 38, 55
5, 14880, Note_on_c, 9, 40, 29
5, 14966, Note_on_c, 9, 40, 0
5, 14975, Note_on_c, 9, 38, 0
5, 15000, Note_on_c, 9, 38, 45
5, 15000, Note_on_c, 9, 40, 22
5, 15045, Note_on_c, 9, 40, 0
5, 15049, Note_on_c, 9, 38, 0
5, 15080, Note_on_c, 9, 38, 60
5, 15080, Note_on_c, 9, 40, 35
5, 15093, Note_on_c, 9, 40, 0
5, 15097, Note_on_c, 9, 38, 0
5, 15120, Note_on_c, 9, 40, 24
5, 15120, Note_on_c, 9, 38, 54
5, 15213, Note_on_c, 9, 40, 0
5, 15222, Note_on_c, 9, 38, 0
5, 15240, Note_on_c, 9, 40, 31
5, 15240, Note_on_c, 9, 38, 46
5, 15290, Note_on_c, 9, 40, 0
5, 15291, Note_on_c, 9, 38, 0
5, 15320, Note_on_c, 9, 38, 48
5, 15320, Note_on_c, 9, 40, 23
5, 15331, Note_on_c, 9, 40, 0
5, 15333, Note_on_c, 9, 38, 0
5, 15360, Note_on_c, 9, 40, 39
5, 15360, Note_on_c, 9, 38, 58
5, 15450, Note_on_c, 9, 40, 0
5, 15454, Note_on_c, 9, 38, 0
5, 15480, Note_on_c, 9, 40, 25
5, 15480, Note_on_c, 9, 38, 53
5, 15517, Note_on_c, 9, 38, 0
5, 15520, Note_on_c, 9, 39, 44
5, 15526, Note_on_c, 9, 40, 0
5, 15540, Note_on_c, 9, 39, 0
5, 15560, Note_on_c, 9, 39, 44
5, 15584, Note_on_c, 9, 39, 0
5, 15600, Note_on_c, 9, 40, 40
5, 15600, Note_on_c, 9, 38, 49
5, 15686, Note_on_c, 9, 40, 0
5, 15691, Note_on_c, 9, 38, 0
5, 15720, Note_on_c, 9, 40, 25
5, 15720, Note_on_c, 9, 38, 49
5, 15744, Note_on_c, 9, 40, 0
5, 15752, Note_on_c, 9, 38, 0
5, 15760, Note_on_c, 9, 39, 64
5, 15782, Note_on_c, 9, 39, 0
5, 15800, Note_on_c, 9, 38, 55
5, 15800, Note_on_c, 9, 40, 35
5, 15821, Note_on_c, 9, 40, 0
5, 15827, Note_on_c, 9, 38, 0
5, 15840, Note_on_c, 9, 40, 42
5, 15840, Note_on_c, 9, 38, 66
5, 15893, Note_on_c, 9, 38, 0
5, 15894, Note_on_c, 9, 40, 0
5, 15920, Note_on_c, 9, 40, 33
5, 15920, Note_on_c, 9, 38, 54
5, 15937, Note_on_c, 9, 40, 0
5, 15938, Note_on_c, 9, 38, 0
5, 15960, Note_on_c, 9, 40, 34
5, 15960, Note_on_c, 9, 38, 48
5, 15962, Note_on_c, 9, 44, 25
5, 16004, Note_on_c, 9, 44, 0
5, 16020, Note_on_c, 9, 38, 0
5, 16024, Note_on_c, 9, 40, 0
5, 16040, Note_on_c, 9, 39, 68
5, 16070, Note_on_c, 9, 39, 0
5, 16080, Note_on_c, 9, 40, 24
5, 16080, Note_on_c, 9, 38, 49
5, 16087, Note_on_c, 9, 44, 25
5, 16118, Note_on_c, 9, 40, 0
5, 16127, Note_on_c, 9, 38, 0
5, 16137, Note_on_c, 9, 44, 0
5, 16160, Note_on_c, 9, 39, 71
5, 16192, Note_on_c, 9, 39, 0
5, 16200, Note_on_c, 9, 40, 30
5, 16200, Note_on_c, 9, 38, 51
5, 16288, Note_on_c, 9, 40, 0
5, 16292, Note_on_c, 9, 38, 0
5, 16320, Note_on_c, 9, 40, 28
5, 16320, Note_on_c, 9, 38, 46
5, 16407, Note_on_c, 9, 40, 0
5, 16408, Note_on_c, 9, 38, 0
5, 16440, Note_on_c, 9, 40, 29
5, 16440, Note_on_c, 9, 38, 51
5, 16499, Note_on_c, 9, 38, 0
5, 16507, Note_on_c, 9, 40, 0
5, 16520, Note_on_c, 9, 39, 68
5, 16555, Note_on_c, 9, 39, 0
5, 16560, Note_on_c, 9, 40, 28
5, 16560, Note_on_c, 9, 38, 55
5, 16641, Note_on_c, 9, 40, 0
5, 16652, Note_on_c, 9, 38, 0
5, 16680, Note_on_c, 9, 40, 28
5, 16680, Note_on_c, 9, 38, 49
5, 16767, Note_on_c, 9, 40, 0
5, 16768, Note_on_c, 9, 38, 0
5, 16800, Note_on_c, 9, 40, 30
5, 16800, Note_on_c, 9, 38, 53
5, 16837, Note_on_c, 9, 40, 0
5, 16841, Note_on_c, 9, 38, 0
5, 16880, Note_on_c, 9, 38, 49
5, 16880, Note_on_c, 9, 40, 21
5, 16892, Note_on_c, 9, 40, 0
5, 16899, Note_on_c, 9, 38, 0
5, 16920, Note_on_c, 9, 38, 58
5, 16920, Note_on_c, 9, 40, 32
5, 16920, Note_on_c, 9, 38, 71
5, 16920, Note_on_c, 9, 40, 49
5, 16988, Note_on_c, 9, 40, 0
5, 16990, Note_on_c, 9, 38, 0
5, 16990, Note_on_c, 9, 59, 27
5, 16991, Note_on_c, 9, 40, 0
5, 16994, Note_on_c, 9, 38, 0
5, 17007, Note_on_c, 9, 59, 0
5, 17040, Note_on_c, 9, 38, 66
5, 17040, Note_on_c, 9, 40, 35
5, 17040, Note_on_c, 9, 59, 32
5, 17056, Note_on_c, 9, 59, 0
5, 17113, Note_on_c, 9, 38, 0
5, 17118, Note_on_c, 9, 40, 0
5, 17119, Note_on_c, 9, 59, 49
5, 17130, Note_on_c, 9, 59, 0
5, 17160, Note_on_c, 9, 40, 34
5, 17160, Note_on_c, 9, 38, 59
5, 17225, Note_on_c, 9, 38, 0
5, 17231, Note_on_c, 9, 44, 46
5, 17240, Note_on_c, 9, 39, 70
5, 17247, Note_on_c, 9, 40, 0
5, 17258, Note_on_c, 9, 44, 0
5, 17274, Note_on_c, 9, 39, 0
5, 17280, Note_on_c, 9, 38, 53
5, 17280, Note_on_c, 9, 40, 41
5, 17286, Note_on_c, 9, 44, 30
5, 17310, Note_on_c, 9, 44, 0
5, 17384, Note_on_c, 9, 40, 0
5, 17392, Note_on_c, 9, 38, 0
5, 17400, Note_on_c, 9, 40, 32
5, 17400, Note_on_c, 9, 38, 59
5, 17493, Note_on_c, 9, 40, 0
5, 17503, Note_on_c, 9, 38, 0
5, 17520, Note_on_c, 9, 40, 30
5, 17520, Note_on_c, 9, 38, 57
5, 17610, Note_on_c, 9, 40, 0
5, 17617, Note_on_c, 9, 38, 0
5, 17640, Note_on_c, 9, 40, 35
5, 17640, Note_on_c, 9, 38, 46
5, 17717, Note_on_c, 9, 38, 0
5, 17720, Note_on_c, 9, 39, 65
5, 17723, Note_on_c, 9, 40, 0
5, 17752, Note_on_c, 9, 39, 0
5, 17760, Note_on_c, 9, 40, 30
5, 17760, Note_on_c, 9, 38, 24
5, 17819, Note_on_c, 9, 40, 0
5, 17840, Note_on_c, 9, 38, 0
5, 17840, Note_on_c, 9, 39, 81
5, 17840, Note_on_c, 9, 40, 28
5, 17848, Note_on_c, 9, 40, 0
5, 17879, Note_on_c, 9, 39, 0
5, 17880, Note_on_c, 9, 40, 37
5, 17880, Note_on_c, 9, 38, 48
5, 17940, Note_on_c, 9, 40, 0
5, 17945, Note_on_c, 9, 38, 0
5, 17960, Note_on_c, 9, 40, 35
5, 17960, Note_on_c, 9, 38, 64
5, 17965, Note_on_c, 9, 59, 34
5, 17974, Note_on_c, 9, 40, 0
5, 17977, Note_on_c, 9, 59, 0
5, 17979, Note_on_c, 9, 38, 0
5, 18000, Note_on_c, 9, 40, 23
5, 18000, Note_on_c, 9, 38, 51
5, 18008, Note_on_c, 9, 36, 8
5, 18039, Note_on_c, 9, 36, 0
5, 18086, Note_on_c, 9, 36, 11
5, 18094, Note_on_c, 9, 40, 0
5, 18096, Note_on_c, 9, 38, 0
5, 18103, Note_on_c, 9, 36, 0
5, 18120, Note_on_c, 9, 40, 32
5, 18120, Note_on_c, 9, 38, 47
5, 18188, Note_on_c, 9, 38, 0
5, 18200, Note_on_c, 9, 40, 0
5, 18200, Note_on_c, 9, 39, 72
5, 18228, Note_on_c, 9, 39, 0
5, 18240, Note_on_c, 9, 40, 26
5, 18240, Note_on_c, 9, 38, 38
5, 18288, Note_on_c, 9, 40, 0
5, 18291, Note_on_c, 9, 38, 0
5, 18320, Note_on_c, 9, 40, 23
5, 18320, Note_on_c, 9, 38, 48
5, 18335, Note_on_c, 9, 40, 0
5, 18336, Note_on_c, 9, 38, 0
5, 18360, Note_on_c, 9, 40, 25
5, 18360, Note_on_c, 9, 38, 40
5, 18455, Note_on_c, 9, 40, 0
5, 18463, Note_on_c, 9, 38, 0
5, 18474, Note_on_c, 9, 59, 60
5, 18480, Note_on_c, 9, 38, 40
5, 18480, Note_on_c, 9, 40, 26
5, 18485, Note_on_c, 9, 59, 0
5, 18564, Note_on_c, 9, 40, 0
5, 18564, Note_on_c, 9, 59, 69
5, 18573, Note_on_c, 9, 38, 0
5, 18575, Note_on_c, 9, 59, 0
5, 18600, Note_on_c, 9, 40, 21
5, 18600, Note_on_c, 9, 38, 42
5, 18664, Note_on_c, 9, 38, 0
5, 18669, Note_on_c, 9, 59, 66
5, 18676, Note_on_c, 9, 40, 0
5, 18679, Note_on_c, 9, 59, 0
5, 18680, Note_on_c, 9, 39, 55
5, 18712, Note_on_c, 9, 39, 0
5, 18716, Note_on_c, 9, 36, 13
5, 18720, Note_on_c, 9, 40, 25
5, 18720, Note_on_c, 9, 38, 39
5, 18769, Note_on_c, 9, 36, 0
5, 18772, Note_on_c, 9, 40, 0
5, 18781, Note_on_c, 9, 38, 0
5, 18800, Note_on_c, 9, 39, 64
5, 18833, Note_on_c, 9, 39, 0
5, 18839, Note_on_c, 9, 36, 13
5, 18840, Note_on_c, 9, 40, 20
5, 18840, Note_on_c, 9, 38, 43
5, 18871, Note_on_c, 9, 36, 0
5, 18925, Note_on_c, 9, 38, 0
5, 18933, Note_on_c, 9, 40, 0
5, 18960, Note_on_c, 9, 38, 34
5, 18960, Note_on_c, 9, 40, 21
5, 19053, Note_on_c, 9, 40, 0
5, 19059, Note_on_c, 9, 38, 0
5, 19080, Note_on_c, 9, 38, 39
5, 19080, Note_on_c, 9, 40, 23
5, 19164, Note_on_c, 9, 40, 0
5, 19171, Note_on_c, 9, 38, 0
5, 19200, Note_on_c, 9, 38, 38
5, 19200, Note_on_c, 9, 40, 28
5, 19231, Note_on_c, 9, 38, 0
5, 19233, Note_on_c, 9, 40, 0
5, 19240, Note_on_c, 9, 39, 59
5, 19280, Note_on_c, 9, 39, 0
5, 19280, Note_on_c, 9, 38, 63
5, 19280, Note_on_c, 9, 40, 24
5, 19289, Note_on_c, 9, 40, 0
5, 19300, Note_on_c, 9, 38, 0
5, 19320, Note_on_c, 9, 40, 25
5, 19320, Note_on_c, 9, 38, 52
5, 19393, Note_on_c, 9, 40, 0
5, 19400, Note_on_c, 9, 38, 38
5, 19400, Note_on_c, 9, 40, 22
5, 19401, Note_on_c, 9, 38, 0
5, 19409, Note_on_c, 9, 40, 0
5, 19418, Note_on_c, 9, 38, 0
5, 19440, Note_on_c, 9, 38, 38
5, 19440, Note_on_c, 9, 40, 30
5, 19506, Note_on_c, 9, 40, 0
5, 19511, Note_on_c, 9, 38, 0
5, 19520, Note_on_c, 9, 39, 45
5, 19555, Note_on_c, 9, 39, 0
5, 19560, Note_on_c, 9, 40, 27
5, 19560, Note_on_c, 9, 38, 39
5, 19649, Note_on_c, 9, 40, 0
5, 19659, Note_on_c, 9, 38, 0
5, 19680, Note_on_c, 9, 38, 36
5, 19680, Note_on_c, 9, 40, 23
5, 19764, Note_on_c, 9, 40, 0
5, 19772, Note_on_c, 9, 38, 0
5, 19800, Note_on_c, 9, 38, 36
5, 19800, Note_on_c, 9, 40, 28
5, 19860, Note_on_c, 9, 38, 0
5, 19874, Note_on_c, 9, 40, 0
5, 19880, Note_on_c, 9, 39, 52
5, 19903, Note_on_c, 9, 39, 0
5, 19911, Note_on_c, 9, 44, 29
5, 19920, Note_on_c, 9, 38, 38
5, 19920, Note_on_c, 9, 40, 15
5, 19942, Note_on_c, 9, 44, 0
5, 19972, Note_on_c, 9, 40, 0
5, 19976, Note_on_c, 9, 38, 0
5, 20000, Note_on_c, 9, 39, 58
5, 20031, Note_on_c, 9, 44, 20
5, 20032, Note_on_c, 9, 39, 0
5, 20040, Note_on_c, 9, 40, 32
5, 20040, Note_on_c, 9, 38, 36
5, 20079, Note_on_c, 9, 44, 0
5, 20141, Note_on_c, 9, 40, 0
5, 20142, Note_on_c, 9, 38, 0
5, 20160, Note_on_c, 9, 38, 37
5, 20160, Note_on_c, 9, 40, 28
5, 20250, Note_on_c, 9, 40, 0
5, 20263, Note_on_c, 9, 38, 0
5, 20275, Note_on_c, 9, 44, 31
5, 20280, Note_on_c, 9, 40, 27
5, 20280, Note_on_c, 9, 38, 45
5, 20297, Note_on_c, 9, 44, 0
5, 20365, Note_on_c, 9, 40, 0
5, 20373, Note_on_c, 9, 38, 0
5, 20400, Note_on_c, 9, 38, 44
5, 20400, Note_on_c, 9, 40, 29
5, 20402, Note_on_c, 9, 46, 7
5, 20438, Note_on_c, 9, 46, 0
5, 20465, Note_on_c, 9, 38, 0
5, 20474, Note_on_c, 9, 40, 0
5, 20480, Note_on_c, 9, 39, 57
5, 20508, Note_on_c, 9, 39, 0
5, 20520, Note_on_c, 9, 40, 23
5, 20520, Note_on_c, 9, 38, 42
5, 20571, Note_on_c, 9, 40, 0
5, 20577, Note_on_c, 9, 38, 0
5, 20600, Note_on_c, 9, 39, 60
5, 20629, Note_on_c, 9, 39, 0
5, 20640, Note_on_c, 9, 40, 33
5, 20640, Note_on_c, 9, 38, 26
5, 20737, Note_on_c, 9, 40, 0
5, 20743, Note_on_c, 9, 38, 0
5, 20760, Note_on_c, 9, 38, 44
5, 20760, Note_on_c, 9, 40, 25
5, 20848, Note_on_c, 9, 40, 0
5, 20853, Note_on_c, 9, 38, 0
5, 20880, Note_on_c, 9, 38, 46
5, 20880, Note_on_c, 9, 40, 30
5, 20918, Note_on_c, 9, 38, 0
5, 20919, Note_on_c, 9, 40, 0
5, 20920, Note_on_c, 9, 39, 52
5, 20943, Note_on_c, 9, 39, 0
5, 20960, Note_on_c, 9, 39, 46
5, 20995, Note_on_c, 9, 39, 0
5, 21000, Note_on_c, 9, 38, 37
5, 21000, Note_on_c, 9, 40, 30
5, 21073, Note_on_c, 9, 38, 0
5, 21080, Note_on_c, 9, 40, 0
5, 21080, Note_on_c, 9, 39, 67
5, 21114, Note_on_c, 9, 39, 0
5, 21120, Note_on_c, 9, 38, 52
5, 21120, Note_on_c, 9, 40, 9
5, 21169, Note_on_c, 9, 40, 0
5, 21176, Note_on_c, 9, 38, 0
5, 21200, Note_on_c, 9, 39, 55
5, 21234, Note_on_c, 9, 39, 0
5, 21240, Note_on_c, 9, 40, 32
5, 21240, Note_on_c, 9, 38, 37
5, 21287, Note_on_c, 9, 40, 0
5, 21289, Note_on_c, 9, 38, 0
5, 21320, Note_on_c, 9, 38, 49
5, 21320, Note_on_c, 9, 40, 34
5, 21337, Note_on_c, 9, 40, 0
5, 21345, Note_on_c, 9, 38, 0
5, 21360, Note_on_c, 9, 40, 29
5, 21360, Note_on_c, 9, 38, 49
5, 21426, Note_on_c, 9, 40, 0
5, 21429, Note_on_c, 9, 38, 0
5, 21440, Note_on_c, 9, 39, 55
5, 21477, Note_on_c, 9, 39, 0
5, 21479, Note_on_c, 9, 44, 28
5, 21480, Note_on_c, 9, 38, 40
5, 21480, Note_on_c, 9, 40, 32
5, 21495, Note_on_c, 9, 44, 0
5, 21521, Note_on_c, 9, 40, 0
5, 21526, Note_on_c, 9, 38, 0
5, 21560, Note_on_c, 9, 38, 61
5, 21560, Note_on_c, 9, 40, 33
5, 21583, Note_on_c, 9, 40, 0
5, 21584, Note_on_c, 9, 38, 0
5, 21600, Note_on_c, 9, 40, 29
5, 21600, Note_on_c, 9, 38, 47
5, 21657, Note_on_c, 9, 38, 0
5, 21659, Note_on_c, 9, 40, 0
5, 21680, Note_on_c, 9, 39, 60
5, 21719, Note_on_c, 9, 39, 0
5, 21720, Note_on_c, 9, 40, 30
5, 21720, Note_on_c, 9, 38, 43
5, 21764, Note_on_c, 9, 40, 0
5, 21765, Note_on_c, 9, 38, 0
5, 21800, Note_on_c, 9, 40, 32
5, 21800, Note_on_c, 9, 38, 63
5, 21826, Note_on_c, 9, 38, 0
5, 21827, Note_on_c, 9, 40, 0
5, 21840, Note_on_c, 9, 40, 23
5, 21840, Note_on_c, 9, 38, 47
5, 21889, Note_on_c, 9, 38, 0
5, 21897, Note_on_c, 9, 40, 0
5, 21920, Note_on_c, 9, 39, 57
5, 21953, Note_on_c, 9, 39, 0
5, 21960, Note_on_c, 9, 40, 23
5, 21960, Note_on_c, 9, 38, 44
5, 22061, Note_on_c, 9, 40, 0
5, 22064, Note_on_c, 9, 38, 0
5, 22080, Note_on_c, 9, 38, 45
5, 22080, Note_on_c, 9, 40, 30
5, 22082, Note_on_c, 9, 44, 29
5, 22108, Note_on_c, 9, 44, 0
5, 22171, Note_on_c, 9, 40, 0
5, 22179, Note_on_c, 9, 38, 0
5, 22200, Note_on_c, 9, 40, 28
5, 22200, Note_on_c, 9, 38, 46
5, 22263, Note_on_c, 9, 38, 0
5, 22268, Note_on_c, 9, 40, 0
5, 22280, Note_on_c, 9, 39, 57
5, 22313, Note_on_c, 9, 39, 0
5, 22320, Note_on_c, 9, 40, 26
5, 22320, Note_on_c, 9, 38, 43
5, 22392, Note_on_c, 9, 40, 0
5, 22397, Note_on_c, 9, 38, 0
5, 22400, Note_on_c, 9, 39, 60
5, 22430, Note_on_c, 9, 39, 0
5, 22440, Note_on_c, 9, 38, 45
5, 22440, Note_on_c, 9, 40, 32
5, 22442, Note_on_c, 9, 44, 37
5, 22474, Note_on_c, 9, 44, 0
5, 22534, Note_on_c, 9, 40, 0
5, 22545, Note_on_c, 9, 38, 0
5, 22560, Note_on_c, 9, 38, 46
5, 22560, Note_on_c, 9, 40, 35
5, 22631, Note_on_c, 9, 38, 0
5, 22637, Note_on_c, 9, 40, 0
5, 22640, Note_on_c, 9, 39, 63
5, 22673, Note_on_c, 9, 39, 0
5, 22680, Note_on_c, 9, 40, 32
5, 22680, Note_on_c, 9, 38, 43
5, 22769, Note_on_c, 9, 40, 0
5, 22776, Note_on_c, 9, 38, 0
5, 22795, Note_on_c, 9, 59, 50
5, 22796, Note_on_c, 9, 44, 35
5, 22800, Note_on_c, 9, 40, 32
5, 22800, Note_on_c, 9, 38, 50
5, 22814, Note_on_c, 9, 59, 0
5, 22833, Note_on_c, 9, 44, 0
5, 22887, Note_on_c, 9, 40, 0
5, 22893, Note_on_c, 9, 38, 0
5, 22920, Note_on_c, 9, 38, 51
5, 22920, Note_on_c, 9, 40, 30
5, 22993, Note_on_c, 9, 38, 0
5, 22999, Note_on_c, 9, 40, 0
5, 23000, Note_on_c, 9, 39, 59
5, 23036, Note_on_c, 9, 39, 0
5, 23040, Note_on_c, 9, 40, 31
5, 23040, Note_on_c, 9, 38, 38
5, 23098, Note_on_c, 9, 38, 0
5, 23098, Note_on_c, 9, 40, 0
5, 23120, Note_on_c, 9, 39, 65
5, 23158, Note_on_c, 9, 39, 0
5, 23158, Note_on_c, 9, 44, 37
5, 23158, Note_on_c, 9, 59, 61
5, 23160, Note_on_c, 9, 38, 38
5, 23160, Note_on_c, 9, 40, 23
5, 23174, Note_on_c, 9, 59, 0
5, 23184, Note_on_c, 9, 44, 0
5, 23245, Note_on_c, 9, 40, 0
5, 23254, Note_on_c, 9, 38, 0
5, 23280, Note_on_c, 9, 38, 49
5, 23280, Note_on_c, 9, 40, 31
5, 23349, Note_on_c, 9, 38, 0
5, 23356, Note_on_c, 9, 40, 0
5, 23360, Note_on_c, 9, 39, 52
5, 23382, Note_on_c, 9, 39, 0
5, 23400, Note_on_c, 9, 40, 25
5, 23400, Note_on_c, 9, 38, 39
5, 23454, Note_on_c, 9, 40, 0
5, 23455, Note_on_c, 9, 38, 0
5, 23480, Note_on_c, 9, 40, 32
5, 23480, Note_on_c, 9, 38, 54
5, 23521, Note_on_c, 9, 59, 56
5, 23522, Note_on_c, 9, 44, 30
5, 23533, Note_on_c, 9, 59, 0
5, 23541, Note_on_c, 9, 44, 0
5, 23549, Note_on_c, 9, 38, 0
5, 23556, Note_on_c, 9, 40, 0
5, 23560, Note_on_c, 9, 39, 60
5, 23585, Note_on_c, 9, 39, 0
5, 23600, Note_on_c, 9, 40, 43
5, 23600, Note_on_c, 9, 38, 50
5, 23619, Note_on_c, 9, 40, 0
5, 23622, Note_on_c, 9, 38, 0
5, 23640, Note_on_c, 9, 38, 63
5, 23640, Note_on_c, 9, 40, 33
5, 23693, Note_on_c, 9, 40, 0
5, 23698, Note_on_c, 9, 38, 0
5, 23720, Note_on_c, 9, 39, 54
5, 23758, Note_on_c, 9, 39, 0
5, 23760, Note_on_c, 9, 40, 30
5, 23760, Note_on_c, 9, 38, 48
5, 23820, Note_on_c, 9, 38, 0
5, 23826, Note_on_c, 9, 40, 0
5, 23840, Note_on_c, 9, 38, 62
5, 23840, Note_on_c, 9, 39, 59
5, 23849, Note_on_c, 9, 38, 0
5, 23870, Note_on_c, 9, 44, 34
5, 23874, Note_on_c, 9, 59, 58
5, 23880, Note_on_c, 9, 40, 30
5, 23880, Note_on_c, 9, 38, 50
5, 23885, Note_on_c, 9, 59, 0
5, 23893, Note_on_c, 9, 39, 0
5, 23895, Note_on_c, 9, 44, 0
5, 23935, Note_on_c, 9, 38, 0
5, 23940, Note_on_c, 9, 40, 0
5, 23988, Note_on_c, 9, 44, 45
5, 23993, Note_on_c, 9, 59, 45
5, 24000, Note_on_c, 9, 40, 24
5, 24000, Note_on_c, 9, 38, 54
5, 24010, Note_on_c, 9, 59, 0
5, 24019, Note_on_c, 9, 44, 0
5, 24066, Note_on_c, 9, 38, 0
5, 24071, Note_on_c, 9, 40, 0
5, 24080, Note_on_c, 9, 39, 59
5, 24120, Note_on_c, 9, 39, 0
5, 24120, Note_on_c, 9, 40, 26
5, 24120, Note_on_c, 9, 38, 36
5, 24199, Note_on_c, 9, 40, 0
5, 24206, Note_on_c, 9, 38, 0
5, 24239, Note_on_c, 9, 59, 42
5, 24240, Note_on_c, 9, 40, 28
5, 24240, Note_on_c, 9, 38, 48
5, 24240, Note_on_c, 9, 44, 42
5, 24264, Note_on_c, 9, 59, 0
5, 24273, Note_on_c, 9, 44, 0
5, 24326, Note_on_c, 9, 40, 0
5, 24327, Note_on_c, 9, 38, 0
5, 24360, Note_on_c, 9, 40, 25
5, 24360, Note_on_c, 9, 38, 45
5, 24453, Note_on_c, 9, 40, 0
5, 24459, Note_on_c, 9, 38, 0
5, 24480, Note_on_c, 9, 40, 28
5, 24480, Note_on_c, 9, 38, 42
5, 24570, Note_on_c, 9, 40, 0
5, 24576, Note_on_c, 9, 38, 0
5, 24600, Note_on_c, 9, 40, 27
5, 24600, Note_on_c, 9, 38, 47
5, 24608, Note_on_c, 9, 44, 32
5, 24609, Note_on_c, 9, 59, 35
5, 24621, Note_on_c, 9, 59, 0
5, 24630, Note_on_c, 9, 44, 0
5, 24651, Note_on_c, 9, 40, 0
5, 24656, Note_on_c, 9, 38, 0
5, 24680, Note_on_c, 9, 40, 37
5, 24680, Note_on_c, 9, 38, 60
5, 24698, Note_on_c, 9, 40, 0
5, 24702, Note_on_c, 9, 38, 0
5, 24720, Note_on_c, 9, 40, 21
5, 24720, Note_on_c, 9, 38, 46
5, 24770, Note_on_c, 9, 40, 0
5, 24773, Note_on_c, 9, 38, 0
5, 24800, Note_on_c, 9, 38, 61
5, 24800, Note_on_c, 9, 40, 32
5, 24816, Note_on_c, 9, 40, 0
5, 24824, Note_on_c, 9, 38, 0
5, 24840, Note_on_c, 9, 40, 25
5, 24840, Note_on_c, 9, 38, 51
5, 24928, Note_on_c, 9, 40, 0
5, 24937, Note_on_c, 9, 38, 0
5, 24960, Note_on_c, 9, 40, 31
5, 24960, Note_on_c, 9, 38, 44
5, 24965, Note_on_c, 9, 44, 35
5, 24984, Note_on_c, 9, 44, 0
5, 25026, Note_on_c, 9, 40, 0
5, 25035, Note_on_c, 9, 38, 0
5, 25040, Note_on_c, 9, 39, 67
5, 25063, Note_on_c, 9, 39, 0
5, 25080, Note_on_c, 9, 40, 28
5, 25080, Note_on_c, 9, 38, 47
5, 25140, Note_on_c, 9, 40, 0
5, 25144, Note_on_c, 9, 38, 0
5, 25160, Note_on_c, 9, 38, 57
5, 25160, Note_on_c, 9, 40, 37
5, 25177, Note_on_c, 9, 40, 0
5, 25182, Note_on_c, 9, 38, 0
5, 25200, Note_on_c, 9, 38, 71
5, 25200, Note_on_c, 9, 40, 49
5, 25205, Note_on_c, 9, 59, 52
5, 25206, Note_on_c, 9, 44, 57
5, 25209, Note_on_c, 9, 53, 43
5, 25211, Note_on_c, 9, 52, 46
5, 25213, Note_on_c, 9, 36, 13
5, 25221, Note_on_c, 9, 52, 0
5, 25224, Note_on_c, 9, 53, 0
5, 25229, Note_on_c, 9, 59, 0
5, 25234, Note_on_c, 9, 44, 0
5, 25236, Note_on_c, 9, 36, 0
5, 25271, Note_on_c, 9, 40, 0
5, 25274, Note_on_c, 9, 38, 0
5, 25320, Note_on_c, 9, 38, 66
5, 25320, Note_on_c, 9, 40, 35
5, 25393, Note_on_c, 9, 38, 0
5, 25398, Note_on_c, 9, 40, 0
5, 25440, Note_on_c, 9, 40, 34
5, 25440, Note_on_c, 9, 38, 59
5, 25505, Note_on_c, 9, 38, 0
5, 25520, Note_on_c, 9, 39, 70
5, 25527, Note_on_c, 9, 40, 0
5, 25554, Note_on_c, 9, 39, 0
5, 25560, Note_on_c, 9, 38, 53
5, 25560, Note_on_c, 9, 40, 41
5, 25664, Note_on_c, 9, 40, 0
5, 25672, Note_on_c, 9, 38, 0
5, 25680, Note_on_c, 9, 40, 32
5, 25680, Note_on_c, 9, 38, 59
5, 25686, Note_on_c, 9, 44, 33
5, 25716, Note_on_c, 9, 44, 0
5, 25773, Note_on_c, 9, 40, 0
5, 25783, Note_on_c, 9, 38, 0
5, 25800, Note_on_c, 9, 40, 30
5, 25800, Note_on_c, 9, 38, 57
5, 25803, Note_on_c, 9, 44, 33
5, 25845, Note_on_c, 9, 44, 0
5, 25890, Note_on_c, 9, 40, 0
5, 25897, Note_on_c, 9, 38, 0
5, 25920, Note_on_c, 9, 40, 35
5, 25920, Note_on_c, 9, 38, 46
5, 25997, Note_on_c, 9, 38, 0
5, 26000, Note_on_c, 9, 39, 65
5, 26003, Note_on_c, 9, 40, 0
5, 26032, Note_on_c, 9, 39, 0
5, 26040, Note_on_c, 9, 40, 30
5, 26040, Note_on_c, 9, 38, 24
5, 26099, Note_on_c, 9, 40, 0
5, 26120, Note_on_c, 9, 38, 0
5, 26120, Note_on_c, 9, 39, 81
5, 26120, Note_on_c, 9, 40, 28
5, 26128, Note_on_c, 9, 40, 0
5, 26159, Note_on_c, 9, 39, 0
5, 26160, Note_on_c, 9, 40, 37
5, 26160, Note_on_c, 9, 38, 48
5, 26220, Note_on_c, 9, 40, 0
5, 26225, Note_on_c, 9, 38, 0
5, 26240, Note_on_c, 9, 40, 35
5, 26240, Note_on_c, 9, 38, 64
5, 26254, Note_on_c, 9, 40, 0
5, 26259, Note_on_c, 9, 38, 0
5, 26280, Note_on_c, 9, 40, 23
5, 26280, Note_on_c, 9, 38, 51
5, 26374, Note_on_c, 9, 40, 0
5, 26376, Note_on_c, 9, 38, 0
5, 26400, Note_on_c, 9, 40, 32
5, 26400, Note_on_c, 9, 38, 47
5, 26468, Note_on_c, 9, 38, 0
5, 26480, Note_on_c, 9, 40, 0
5, 26480, Note_on_c, 9, 39, 72
5, 26508, Note_on_c, 9, 39, 0
5, 26520, Note_on_c, 9, 40, 26
5, 26520, Note_on_c, 9, 38, 38
5, 26568, Note_on_c, 9, 40, 0
5, 26571, Note_on_c, 9, 38, 0
5, 26600, Note_on_c, 9, 40, 23
5, 26600, Note_on_c, 9, 38, 48
5, 26615, Note_on_c, 9, 40, 0
5, 26616, Note_on_c, 9, 38, 0
5, 26640, Note_on_c, 9, 40, 25
5, 26640, Note_on_c, 9, 38, 40
5, 26735, Note_on_c, 9, 40, 0
5, 26743, Note_on_c, 9, 38, 0
5, 26760, Note_on_c, 9, 38, 40
5, 26760, Note_on_c, 9, 40, 26
5, 26844, Note_on_c, 9, 40, 0
5, 26853, Note_on_c, 9, 38, 0
5, 26875, Note_on_c, 9, 44, 33
5, 26880, Note_on_c, 9, 40, 21
5, 26880, Note_on_c, 9, 38, 42
5, 26903, Note_on_c, 9, 44, 0
5, 26944, Note_on_c, 9, 38, 0
5, 26956, Note_on_c, 9, 40, 0
5, 26960, Note_on_c, 9, 39, 55
5, 26992, Note_on_c, 9, 39, 0
5, 27000, Note_on_c, 9, 40, 25
5, 27000, Note_on_c, 9, 38, 39
5, 27052, Note_on_c, 9, 40, 0
5, 27061, Note_on_c, 9, 38, 0
5, 27080, Note_on_c, 9, 39, 64
5, 27113, Note_on_c, 9, 39, 0
5, 27120, Note_on_c, 9, 40, 20
5, 27120, Note_on_c, 9, 38, 43
5, 27205, Note_on_c, 9, 38, 0
5, 27213, Note_on_c, 9, 40, 0
5, 27240, Note_on_c, 9, 38, 34
5, 27240, Note_on_c, 9, 40, 21
5, 27333, Note_on_c, 9, 40, 0
5, 27339, Note_on_c, 9, 38, 0
5, 27360, Note_on_c, 9, 38, 39
5, 27360, Note_on_c, 9, 40, 23
5, 27444, Note_on_c, 9, 40, 0
5, 27451, Note_on_c, 9, 38, 0
5, 27480, Note_on_c, 9, 38, 38
5, 27480, Note_on_c, 9, 40, 28
5, 27511, Note_on_c, 9, 38, 0
5, 27513, Note_on_c, 9, 40, 0
5, 27520, Note_on_c, 9, 39, 59
5, 27560, Note_on_c, 9, 39, 0
5, 27560, Note_on_c, 9, 38, 63
5, 27560, Note_on_c, 9, 40, 24
5, 27569, Note_on_c, 9, 40, 0
5, 27580, Note_on_c, 9, 38, 0
5, 27600, Note_on_c, 9, 40, 25
5, 27600, Note_on_c, 9, 38, 52
5, 27673, Note_on_c, 9, 40, 0
5, 27680, Note_on_c, 9, 38, 38
5, 27680, Note_on_c, 9, 40, 22
5, 27681, Note_on_c, 9, 38, 0
5, 27689, Note_on_c, 9, 40, 0
5, 27698, Note_on_c, 9, 38, 0
5, 27720, Note_on_c, 9, 38, 38
5, 27720, Note_on_c, 9, 40, 30
5, 27786, Note_on_c, 9, 40, 0
5, 27791, Note_on_c, 9, 38, 0
5, 27796, Note_on_c, 9, 44, 20
5, 27800, Note_on_c, 9, 39, 45
5, 27816, Note_on_c, 9, 44, 0
5, 27835, Note_on_c, 9, 39, 0
5, 27840, Note_on_c, 9, 40, 27
5, 27840, Note_on_c, 9, 38, 39
5, 27901, Note_on_c, 9, 44, 35
5, 27922, Note_on_c, 9, 44, 0
5, 27929, Note_on_c, 9, 40, 0
5, 27939, Note_on_c, 9, 38, 0
5, 27960, Note_on_c, 9, 38, 36
5, 27960, Note_on_c, 9, 40, 23
5, 28037, Note_on_c, 9, 44, 27
5, 28044, Note_on_c, 9, 40, 0
5, 28051, Note_on_c, 9, 44, 0
5, 28052, Note_on_c, 9, 38, 0
5, 28080, Note_on_c, 9, 38, 36
5, 28080, Note_on_c, 9, 40, 28
5, 28140, Note_on_c, 9, 38, 0
5, 28154, Note_on_c, 9, 40, 0
5, 28160, Note_on_c, 9, 39, 52
5, 28170, Note_on_c, 9, 44, 33
5, 28183, Note_on_c, 9, 39, 0
5, 28186, Note_on_c, 9, 44, 0
5, 28200, Note_on_c, 9, 38, 38
5, 28200, Note_on_c, 9, 40, 15
5, 28252, Note_on_c, 9, 40, 0
5, 28256, Note_on_c, 9, 38, 0
5, 28280, Note_on_c, 9, 39, 58
5, 28281, Note_on_c, 9, 44, 34
5, 28298, Note_on_c, 9, 44, 0
5, 28312, Note_on_c, 9, 39, 0
5, 28320, Note_on_c, 9, 40, 32
5, 28320, Note_on_c, 9, 38, 36
5, 28398, Note_on_c, 9, 44, 36
5, 28421, Note_on_c, 9, 40, 0
5, 28422, Note_on_c, 9, 44, 0
5, 28422, Note_on_c, 9, 38, 0
5, 28440, Note_on_c, 9, 38, 37
5, 28440, Note_on_c, 9, 40, 28
5, 28530, Note_on_c, 9, 40, 0
5, 28543, Note_on_c, 9, 38, 0
5, 28560, Note_on_c, 9, 40, 27
5, 28560, Note_on_c, 9, 38, 45
5, 28645, Note_on_c, 9, 40, 0
5, 28653, Note_on_c, 9, 38, 0
5, 28680, Note_on_c, 9, 38, 44
5, 28680, Note_on_c, 9, 40, 29
5, 28745, Note_on_c, 9, 38, 0
5, 28754, Note_on_c, 9, 40, 0
5, 28760, Note_on_c, 9, 39, 57
5, 28788, Note_on_c, 9, 39, 0
5, 28800, Note_on_c, 9, 40, 23
5, 28800, Note_on_c, 9, 38, 42
5, 28851, Note_on_c, 9, 40, 0
5, 28857, Note_on_c, 9, 38, 0
5, 28880, Note_on_c, 9, 39, 60
5, 28909, Note_on_c, 9, 39, 0
5, 28920, Note_on_c, 9, 40, 33
5, 28920, Note_on_c, 9, 38, 26
5, 29017, Note_on_c, 9, 40, 0
5, 29023, Note_on_c, 9, 38, 0
5, 29040, Note_on_c, 9, 38, 44
5, 29040, Note_on_c, 9, 40, 25
5, 29128, Note_on_c, 9, 40, 0
5, 29133, Note_on_c, 9, 38, 0
5, 29160, Note_on_c, 9, 38, 46
5, 29160, Note_on_c, 9, 40, 30
5, 29198, Note_on_c, 9, 38, 0
5, 29199, Note_on_c, 9, 40, 0
5, 29200, Note_on_c, 9, 39, 52
5, 29223, Note_on_c, 9, 39, 0
5, 29240, Note_on_c, 9, 39, 46
5, 29275, Note_on_c, 9, 39, 0
5, 29280, Note_on_c, 9, 38, 37
5, 29280, Note_on_c, 9, 40, 30
5, 29353, Note_on_c, 9, 38, 0
5, 29360, Note_on_c, 9, 40, 0
5, 29360, Note_on_c, 9, 39, 67
5, 29394, Note_on_c, 9, 39, 0
5, 29400, Note_on_c, 9, 38, 52
5, 29400, Note_on_c, 9, 40, 9
5, 29449, Note_on_c, 9, 40, 0
5, 29456, Note_on_c, 9, 38, 0
5, 29480, Note_on_c, 9, 39, 55
5, 29514, Note_on_c, 9, 39, 0
5, 29520, Note_on_c, 9, 40, 32
5, 29520, Note_on_c, 9, 38, 37
5, 29567, Note_on_c, 9, 40, 0
5, 29569, Note_on_c, 9, 38, 0
5, 29600, Note_on_c, 9, 38, 49
5, 29600, Note_on_c, 9, 40, 34
5, 29617, Note_on_c, 9, 40, 0
5, 29625, Note_on_c, 9, 38, 0
5, 29640, Note_on_c, 9, 40, 29
5, 29640, Note_on_c, 9, 38, 49
5, 29706, Note_on_c, 9, 40, 0
5, 29709, Note_on_c, 9, 38, 0
5, 29720, Note_on_c, 9, 39, 55
5, 29757, Note_on_c, 9, 39, 0
5, 29760, Note_on_c, 9, 38, 40
5, 29760, Note_on_c, 9, 40, 32
5, 29801, Note_on_c, 9, 40, 0
5, 29806, Note_on_c, 9, 38, 0
5, 29840, Note_on_c, 9, 38, 61
5, 29840, Note_on_c, 9, 40, 33
5, 29863, Note_on_c, 9, 40, 0
5, 29864, Note_on_c, 9, 38, 0
5, 29880, Note_on_c, 9, 40, 29
5, 29880, Note_on_c, 9, 38, 47
5, 29937, Note_on_c, 9, 38, 0
5, 29939, Note_on_c, 9, 40, 0
5, 29960, Note_on_c, 9, 39, 60
5, 29999, Note_on_c, 9, 39, 0
5, 30000, Note_on_c, 9, 40, 30
5, 30000, Note_on_c, 9, 38, 43
5, 30004, Note_on_c, 9, 44, 25
5, 30024, Note_on_c, 9, 44, 0
5, 30044, Note_on_c, 9, 40, 0
5, 30045, Note_on_c, 9, 38, 0
5, 30080, Note_on_c, 9, 40, 32
5, 30080, Note_on_c, 9, 38, 63
5, 30106, Note_on_c, 9, 38, 0
5, 30107, Note_on_c, 9, 40, 0
5, 30114, Note_on_c, 9, 44, 27
5, 30120, Note_on_c, 9, 40, 23
5, 30120, Note_on_c, 9, 38, 47
5, 30147, Note_on_c, 9, 44, 0
5, 30169, Note_on_c, 9, 38, 0
5, 30177, Note_on_c, 9, 40, 0
5, 30200, Note_on_c, 9, 39, 57
5, 30233, Note_on_c, 9, 39, 0
5, 30240, Note_on_c, 9, 40, 23
5, 30240, Note_on_c, 9, 38, 44
5, 30341, Note_on_c, 9, 40, 0
5, 30344, Note_on_c, 9, 38, 0
5, 30360, Note_on_c, 9, 38, 45
5, 30360, Note_on_c, 9, 40, 30
5, 30435, Note_on_c, 9, 59, 34
5, 30449, Note_on_c, 9, 59, 0
5, 30451, Note_on_c, 9, 40, 0
5, 30459, Note_on_c, 9, 38, 0
5, 30480, Note_on_c, 9, 40, 28
5, 30480, Note_on_c, 9, 38, 46
5, 30491, Note_on_c, 9, 59, 25
5, 30502, Note_on_c, 9, 59, 0
5, 30543, Note_on_c, 9, 38, 0
5, 30548, Note_on_c, 9, 40, 0
5, 30560, Note_on_c, 9, 39, 57
5, 30593, Note_on_c, 9, 39, 0
5, 30600, Note_on_c, 9, 40, 26
5, 30600, Note_on_c, 9, 38, 43
5, 30672, Note_on_c, 9, 40, 0
5, 30677, Note_on_c, 9, 38, 0
5, 30680, Note_on_c, 9, 39, 60
5, 30710, Note_on_c, 9, 39, 0
5, 30720, Note_on_c, 9, 38, 45
5, 30720, Note_on_c, 9, 40, 32
5, 30814, Note_on_c, 9, 40, 0
5, 30825, Note_on_c, 9, 38, 0
5, 30840, Note_on_c, 9, 38, 46
5, 30840, Note_on_c, 9, 40, 35
5, 30911, Note_on_c, 9, 38, 0
5, 30917, Note_on_c, 9, 40, 0
5, 30920, Note_on_c, 9, 39, 63
5, 30925, Note_on_c, 9, 44, 21
5, 30934, Note_on_c, 9, 44, 0
5, 30953, Note_on_c, 9, 39, 0
5, 30960, Note_on_c, 9, 40, 32
5, 30960, Note_on_c, 9, 38, 43
5, 30963, Note_on_c, 9, 36, 10
5, 31032, Note_on_c, 9, 36, 0
5, 31049, Note_on_c, 9, 40, 0
5, 31056, Note_on_c, 9, 38, 0
5, 31080, Note_on_c, 9, 40, 32
5, 31080, Note_on_c, 9, 38, 50
5, 31088, Note_on_c, 9, 36, 11
5, 31123, Note_on_c, 9, 36, 0
5, 31167, Note_on_c, 9, 40, 0
5, 31173, Note_on_c, 9, 38, 0
5, 31200, Note_on_c, 9, 38, 51
5, 31200, Note_on_c, 9, 40, 30
5, 31273, Note_on_c, 9, 38, 0
5, 31275, Note_on_c, 9, 44, 32
5, 31279, Note_on_c, 9, 40, 0
5, 31280, Note_on_c, 9, 39, 59
5, 31286, Note_on_c, 9, 44, 0
5, 31316, Note_on_c, 9, 39, 0
5, 31319, Note_on_c, 9, 36, 11
5, 31320, Note_on_c, 9, 40, 31
5, 31320, Note_on_c, 9, 38, 38
5, 31333, Note_on_c, 9, 36, 0
5, 31378, Note_on_c, 9, 38, 0
5, 31378, Note_on_c, 9, 40, 0
5, 31400, Note_on_c, 9, 39, 65
5, 31406, Note_on_c, 9, 36, 13
5, 31419, Note_on_c, 9, 36, 0
5, 31438, Note_on_c, 9, 39, 0
5, 31440, Note_on_c, 9, 38, 38
5, 31440, Note_on_c, 9, 40, 23
5, 31525, Note_on_c, 9, 40, 0
5, 31534, Note_on_c, 9, 38, 0
5, 31560, Note_on_c, 9, 38, 49
5, 31560, Note_on_c, 9, 40, 31
5, 31629, Note_on_c, 9, 38, 0
5, 31636, Note_on_c, 9, 40, 0
5, 31640, Note_on_c, 9, 39, 52
5, 31662, Note_on_c, 9, 39, 0
5, 31680, Note_on_c, 9, 40, 25
5, 31680, Note_on_c, 9, 38, 39
5, 31734, Note_on_c, 9, 40, 0
5, 31735, Note_on_c, 9, 38, 0
5, 31760, Note_on_c, 9, 40, 32
5, 31760, Note_on_c, 9, 38, 54
5, 31829, Note_on_c, 9, 38, 0
5, 31836, Note_on_c, 9, 40, 0
5, 31840, Note_on_c, 9, 39, 60
5, 31865, Note_on_c, 9, 39, 0
5, 31880, Note_on_c, 9, 40, 43
5, 31880, Note_on_c, 9, 38, 50
5, 31899, Note_on_c, 9, 40, 0
5, 31902, Note_on_c, 9, 38, 0
5, 31920, Note_on_c, 9, 38, 63
5, 31920, Note_on_c, 9, 40, 33
5, 31973, Note_on_c, 9, 40, 0
5, 31978, Note_on_c, 9, 38, 0
5, 32000, Note_on_c, 9, 39, 54
5, 32038, Note_on_c, 9, 39, 0
5, 32040, Note_on_c, 9, 40, 30
5, 32040, Note_on_c, 9, 38, 48
5, 32100, Note_on_c, 9, 38, 0
5, 32106, Note_on_c, 9, 40, 0
5, 32120, Note_on_c, 9, 38, 62
5, 32120, Note_on_c, 9, 39, 59
5, 32129, Note_on_c, 9, 38, 0
5, 32160, Note_on_c, 9, 40, 30
5, 32160, Note_on_c, 9, 38, 50
5, 32173, Note_on_c, 9, 39, 0
5, 32215, Note_on_c, 9, 38, 0
5, 32220, Note_on_c, 9, 40, 0
5, 32280, Note_on_c, 9, 40, 24
5, 32280, Note_on_c, 9, 38, 54
5, 32346, Note_on_c, 9, 38, 0
5, 32351, Note_on_c, 9, 40, 0
5, 32360, Note_on_c, 9, 39, 59
5, 32400, Note_on_c, 9, 39, 0
5, 32400, Note_on_c, 9, 40, 26
5, 32400, Note_on_c, 9, 38, 36
5, 32479, Note_on_c, 9, 40, 0
5, 32486, Note_on_c, 9, 38, 0
5, 32520, Note_on_c, 9, 40, 28
5, 32520, Note_on_c, 9, 38, 48
5, 32606, Note_on_c, 9, 40, 0
5, 32607, Note_on_c, 9, 38, 0
5, 32640, Note_on_c, 9, 40, 25
5, 32640, Note_on_c, 9, 38, 45
5, 32733, Note_on_c, 9, 40, 0
5, 32739, Note_on_c, 9, 38, 0
5, 32760, Note_on_c, 9, 40, 28
5, 32760, Note_on_c, 9, 38, 42
5, 32850, Note_on_c, 9, 40, 0
5, 32856, Note_on_c, 9, 38, 0
5, 32880, Note_on_c, 9, 40, 27
5, 32880, Note_on_c, 9, 38, 47
5, 32931, Note_on_c, 9, 40, 0
5, 32936, Note_on_c, 9, 38, 0
5, 32960, Note_on_c, 9, 40, 37
5, 32960, Note_on_c, 9, 38, 60
5, 32960, Note_on_c, 9, 53, 32
5, 32971, Note_on_c, 9, 53, 0
5, 32978, Note_on_c, 9, 40, 0
5, 32982, Note_on_c, 9, 38, 0
5, 33000, Note_on_c, 9, 40, 21
5, 33000, Note_on_c, 9, 38, 46
5, 33050, Note_on_c, 9, 40, 0
5, 33053, Note_on_c, 9, 38, 0
5, 33080, Note_on_c, 9, 38, 61
5, 33080, Note_on_c, 9, 40, 32
5, 33096, Note_on_c, 9, 40, 0
5, 33104, Note_on_c, 9, 38, 0
5, 33120, Note_on_c, 9, 40, 25
5, 33120, Note_on_c, 9, 38, 51
5, 33128, Note_on_c, 9, 53, 40
5, 33167, Note_on_c, 9, 53, 0
5, 33208, Note_on_c, 9, 40, 0
5, 33217, Note_on_c, 9, 38, 0
5, 33240, Note_on_c, 9, 40, 31
5, 33240, Note_on_c, 9, 38, 44
5, 33244, Note_on_c, 9, 53, 42
5, 33258, Note_on_c, 9, 53, 0
5, 33306, Note_on_c, 9, 40, 0
5, 33315, Note_on_c, 9, 38, 0
5, 33318, Note_on_c, 9, 53, 76
5, 33320, Note_on_c, 9, 39, 67
5, 33343, Note_on_c, 9, 39, 0
5, 33346, Note_on_c, 9, 53, 0
5, 33360, Note_on_c, 9, 40, 28
5, 33360, Note_on_c, 9, 38, 47
5, 33420, Note_on_c, 9, 40, 0
5, 33424, Note_on_c, 9, 38, 0
5, 33434, Note_on_c, 9, 53, 34
5, 33440, Note_on_c, 9, 38, 57
5, 33440, Note_on_c, 9, 40, 37
5, 33454, Note_on_c, 9, 53, 0
5, 33457, Note_on_c, 9, 40, 0
5, 33462, Note_on_c, 9, 38, 0
5, 33480, Note_on_c, 9, 38, 50
5, 33480, Note_on_c, 9, 40, 25
5, 33495, Note_on_c, 9, 53, 80
5, 33545, Note_on_c, 9, 53, 0
5, 33561, Note_on_c, 9, 40, 0
5, 33569, Note_on_c, 9, 38, 0
5, 33600, Note_on_c, 9, 38, 48
5, 33600, Note_on_c, 9, 40, 35
5, 33604, Note_on_c, 9, 53, 36
5, 33623, Note_on_c, 9, 53, 0
5, 33676, Note_on_c, 9, 53, 82
5, 33683, Note_on_c, 9, 40, 0
5, 33690, Note_on_c, 9, 38, 0
5, 33720, Note_on_c, 9, 53, 0
5, 33720, Note_on_c, 9, 40, 32
5, 33720, Note_on_c, 9, 38, 52
5, 33794, Note_on_c, 9, 38, 0
5, 33797, Note_on_c, 9, 53, 36
5, 33797, Note_on_c, 9, 44, 27
5, 33800, Note_on_c, 9, 39, 67
5, 33805, Note_on_c, 9, 40, 0
5, 33814, Note_on_c, 9, 53, 0
5, 33816, Note_on_c, 9, 44, 0
5, 33831, Note_on_c, 9, 39, 0
5, 33840, Note_on_c, 9, 38, 46
5, 33840, Note_on_c, 9, 40, 30
5, 33842, Note_on_c, 9, 53, 60
5, 33846, Note_on_c, 9, 36, 13
5, 33911, Note_on_c, 9, 53, 0
5, 33923, Note_on_c, 9, 36, 0
5, 33929, Note_on_c, 9, 40, 0
5, 33939, Note_on_c, 9, 38, 0
5, 33960, Note_on_c, 9, 40, 32
5, 33960, Note_on_c, 9, 38, 50
5, 33961, Note_on_c, 9, 53, 45
5, 33961, Note_on_c, 9, 36, 15
5, 33984, Note_on_c, 9, 36, 0
5, 34017, Note_on_c, 9, 53, 0
5, 34032, Note_on_c, 9, 38, 0
5, 34040, Note_on_c, 9, 39, 64
5, 34043, Note_on_c, 9, 40, 0
5, 34067, Note_on_c, 9, 39, 0
5, 34080, Note_on_c, 9, 38, 46
5, 34080, Note_on_c, 9, 40, 33
5, 34164, Note_on_c, 9, 40, 0
5, 34173, Note_on_c, 9, 38, 0
5, 34200, Note_on_c, 9, 38, 48
5, 34200, Note_on_c, 9, 40, 28
5, 34279, Note_on_c, 9, 40, 0
5, 34292, Note_on_c, 9, 38, 0
5, 34320, Note_on_c, 9, 38, 46
5, 34320, Note_on_c, 9, 40, 26
5, 34388, Note_on_c, 9, 40, 0
5, 34394, Note_on_c, 9, 38, 0
5, 34440, Note_on_c, 9, 38, 47
5, 34440, Note_on_c, 9, 40, 23
5, 34499, Note_on_c, 9, 38, 0
5, 34502, Note_on_c, 9, 40, 0
5, 34520, Note_on_c, 9, 38, 29
5, 34520, Note_on_c, 9, 39, 74
5, 34528, Note_on_c, 9, 38, 0
5, 34536, Note_on_c, 9, 39, 0
5, 34560, Note_on_c, 9, 40, 31
5, 34560, Note_on_c, 9, 38, 57
5, 34649, Note_on_c, 9, 40, 0
5, 34657, Note_on_c, 9, 38, 0
5, 34680, Note_on_c, 9, 40, 26
5, 34680, Note_on_c, 9, 38, 44
5, 34765, Note_on_c, 9, 40, 0
5, 34771, Note_on_c, 9, 38, 0
5, 34800, Note_on_c, 9, 40, 23
5, 34800, Note_on_c, 9, 38, 60
5, 34844, Note_on_c, 9, 38, 0
5, 34844, Note_on_c, 9, 40, 0
5, 34880, Note_on_c, 9, 40, 39
5, 34880, Note_on_c, 9, 38, 68
5, 34899, Note_on_c, 9, 40, 0
5, 34901, Note_on_c, 9, 38, 0
5, 34920, Note_on_c, 9, 40, 17
5, 34920, Note_on_c, 9, 38, 42
5, 34967, Note_on_c, 9, 38, 0
5, 34969, Note_on_c, 9, 40, 0
5, 35000, Note_on_c, 9, 40, 35
5, 35000, Note_on_c, 9, 38, 60
5, 35023, Note_on_c, 9, 40, 0
5, 35024, Note_on_c, 9, 38, 0
5, 35036, Note_on_c, 9, 53, 35
5, 35040, Note_on_c, 9, 40, 18
5, 35040, Note_on_c, 9, 38, 50
5, 35050, Note_on_c, 9, 53, 0
5, 35109, Note_on_c, 9, 59, 68
5, 35115, Note_on_c, 9, 53, 64
5, 35117, Note_on_c, 9, 38, 0
5, 35120, Note_on_c, 9, 40, 0
5, 35120, Note_on_c, 9, 38, 72
5, 35120, Note_on_c, 9, 40, 39
5, 35136, Note_on_c, 9, 40, 0
5, 35139, Note_on_c, 9, 38, 0
5, 35160, Note_on_c, 9, 40, 24
5, 35160, Note_on_c, 9, 38, 35
5, 35162, Note_on_c, 9, 59, 0
5, 35163, Note_on_c, 9, 53, 0
5, 35186, Note_on_c, 9, 38, 0
5, 35198, Note_on_c, 9, 40, 0
5, 35224, Note_on_c, 9, 53, 29
5, 35235, Note_on_c, 9, 53, 0
5, 35240, Note_on_c, 9, 40, 34
5, 35240, Note_on_c, 9, 38, 55
5, 35258, Note_on_c, 9, 40, 0
5, 35261, Note_on_c, 9, 38, 0
5, 35280, Note_on_c, 9, 40, 25
5, 35280, Note_on_c, 9, 38, 51
5, 35284, Note_on_c, 9, 59, 63
5, 35297, Note_on_c, 9, 53, 44
5, 35326, Note_on_c, 9, 59, 0
5, 35342, Note_on_c, 9, 53, 0
5, 35368, Note_on_c, 9, 40, 0
5, 35373, Note_on_c, 9, 38, 0
5, 35400, Note_on_c, 9, 38, 54
5, 35400, Note_on_c, 9, 40, 26
5, 35476, Note_on_c, 9, 38, 0
5, 35480, Note_on_c, 9, 39, 62
5, 35482, Note_on_c, 9, 40, 0
5, 35516, Note_on_c, 9, 39, 0
5, 35520, Note_on_c, 9, 40, 28
5, 35520, Note_on_c, 9, 38, 46
5, 35580, Note_on_c, 9, 40, 0
5, 35584, Note_on_c, 9, 38, 0
5, 35600, Note_on_c, 9, 39, 64
5, 35629, Note_on_c, 9, 39, 0
5, 35640, Note_on_c, 9, 38, 46
5, 35640, Note_on_c, 9, 40, 29
5, 35722, Note_on_c, 9, 36, 9
5, 35723, Note_on_c, 9, 40, 0
5, 35732, Note_on_c, 9, 38, 0
5, 35739, Note_on_c, 9, 36, 0
5, 35760, Note_on_c, 9, 38, 52
5, 35760, Note_on_c, 9, 40, 28
5, 35848, Note_on_c, 9, 40, 0
5, 35849, Note_on_c, 9, 38, 0
5, 35880, Note_on_c, 9, 40, 32
5, 35880, Note_on_c, 9, 38, 48
5, 35939, Note_on_c, 9, 38, 0
5, 35960, Note_on_c, 9, 39, 55
5, 35961, Note_on_c, 9, 40, 0
5, 35995, Note_on_c, 9, 39, 0
5, 36000, Note_on_c, 9, 40, 32
5, 36000, Note_on_c, 9, 38, 52
5, 36083, Note_on_c, 9, 40, 0
5, 36086, Note_on_c, 9, 38, 0
5, 36120, Note_on_c, 9, 40, 27
5, 36120, Note_on_c, 9, 38, 47
5, 36198, Note_on_c, 9, 40, 0
5, 36203, Note_on_c, 9, 38, 0
5, 36240, Note_on_c, 9, 38, 54
5, 36240, Note_on_c, 9, 40, 35
5, 36314, Note_on_c, 9, 38, 0
5, 36320, Note_on_c, 9, 40, 0
5, 36320, Note_on_c, 9, 39, 56
5, 36348, Note_on_c, 9, 39, 0
5, 36360, Note_on_c, 9, 38, 45
5, 36360, Note_on_c, 9, 40, 28
5, 36420, Note_on_c, 9, 40, 0
5, 36424, Note_on_c, 9, 38, 0
5, 36440, Note_on_c, 9, 40, 30
5, 36440, Note_on_c, 9, 38, 53
5, 36458, Note_on_c, 9, 40, 0
5, 36460, Note_on_c, 9, 38, 0
5, 36480, Note_on_c, 9, 40, 28
5, 36480, Note_on_c, 9, 38, 52
5, 36481, Note_on_c, 9, 44, 29
5, 36525, Note_on_c, 9, 40, 0
5, 36526, Note_on_c, 9, 38, 0
5, 36536, Note_on_c, 9, 44, 0
5, 36560, Note_on_c, 9, 40, 27
5, 36560, Note_on_c, 9, 38, 55
5, 36580, Note_on_c, 9, 40, 0
5, 36586, Note_on_c, 9, 38, 0
5, 36600, Note_on_c, 9, 38, 45
5, 36600, Note_on_c, 9, 40, 22
5, 36601, Note_on_c, 9, 46, 16
5, 36622, Note_on_c, 9, 46, 0
5, 36638, Note_on_c, 9, 40, 0
5, 36641, Note_on_c, 9, 38, 0
5, 36680, Note_on_c, 9, 38, 53
5, 36680, Note_on_c, 9, 40, 35
5, 36699, Note_on_c, 9, 40, 0
5, 36706, Note_on_c, 9, 38, 0
5, 36720, Note_on_c, 9, 38, 46
5, 36720, Note_on_c, 9, 40, 35
5, 36780, Note_on_c, 9, 40, 0
5, 36781, Note_on_c, 9, 38, 0
5, 36840, Note_on_c, 9, 40, 29
5, 36840, Note_on_c, 9, 38, 50
5, 36928, Note_on_c, 9, 38, 0
5, 36928, Note_on_c, 9, 40, 0
5, 36960, Note_on_c, 9, 40, 34
5, 36960, Note_on_c, 9, 38, 51
5, 37058, Note_on_c, 9, 38, 0
5, 37058, Note_on_c, 9, 40, 0
5, 37080, Note_on_c, 9, 40, 32
5, 37080, Note_on_c, 9, 38, 49
5, 37155, Note_on_c, 9, 38, 0
5, 37160, Note_on_c, 9, 39, 69
5, 37163, Note_on_c, 9, 40, 0
5, 37191, Note_on_c, 9, 39, 0
5, 37200, Note_on_c, 9, 38, 51
5, 37200, Note_on_c, 9, 40, 25
5, 37258, Note_on_c, 9, 40, 0
5, 37261, Note_on_c, 9, 38, 0
5, 37277, Note_on_c, 9, 53, 45
5, 37277, Note_on_c, 9, 59, 43
5, 37280, Note_on_c, 9, 40, 30
5, 37280, Note_on_c, 9, 38, 54
5, 37289, Note_on_c, 9, 53, 0
5, 37290, Note_on_c, 9, 59, 0
5, 37298, Note_on_c, 9, 38, 0
5, 37299, Note_on_c, 9, 40, 0
5, 37320, Note_on_c, 9, 40, 30
5, 37320, Note_on_c, 9, 38, 53
5, 37387, Note_on_c, 9, 38, 0
5, 37400, Note_on_c, 9, 39, 67
5, 37405, Note_on_c, 9, 40, 0
5, 37431, Note_on_c, 9, 39, 0
5, 37440, Note_on_c, 9, 38, 51
5, 37440, Note_on_c, 9, 40, 28
5, 37528, Note_on_c, 9, 40, 0
5, 37543, Note_on_c, 9, 38, 0
5, 37560, Note_on_c, 9, 40, 32
5, 37560, Note_on_c, 9, 38, 47
5, 37636, Note_on_c, 9, 44, 31
5, 37649, Note_on_c, 9, 40, 0
5, 37653, Note_on_c, 9, 38, 0
5, 37661, Note_on_c, 9, 44, 0
5, 37680, Note_on_c, 9, 38, 48
5, 37680, Note_on_c, 9, 40, 29
5, 37685, Note_on_c, 9, 53, 36
5, 37687, Note_on_c, 9, 59, 38
5, 37714, Note_on_c, 9, 59, 0
5, 37724, Note_on_c, 9, 53, 0
5, 37752, Note_on_c, 9, 38, 0
5, 37759, Note_on_c, 9, 53, 49
5, 37760, Note_on_c, 9, 39, 62
5, 37760, Note_on_c, 9, 59, 45
5, 37764, Note_on_c, 9, 40, 0
5, 37772, Note_on_c, 9, 53, 0
5, 37773, Note_on_c, 9, 59, 0
5, 37782, Note_on_c, 9, 39, 0
5, 37800, Note_on_c, 9, 38, 36
5, 37800, Note_on_c, 9, 40, 22
5, 37891, Note_on_c, 9, 40, 0
5, 37899, Note_on_c, 9, 38, 0
5, 37920, Note_on_c, 9, 40, 32
5, 37920, Note_on_c, 9, 38, 51
5, 38003, Note_on_c, 9, 44, 20
5, 38013, Note_on_c, 9, 40, 0
5, 38016, Note_on_c, 9, 44, 0
5, 38020, Note_on_c, 9, 38, 0
5, 38040, Note_on_c, 9, 40, 32
5, 38040, Note_on_c, 9, 38, 46
5, 38041, Note_on_c, 9, 59, 50
5, 38045, Note_on_c, 9, 53, 30
5, 38082, Note_on_c, 9, 59, 0
5, 38094, Note_on_c, 9, 53, 0
5, 38120, Note_on_c, 9, 53, 59
5, 38124, Note_on_c, 9, 59, 33
5, 38130, Note_on_c, 9, 53, 0
5, 38136, Note_on_c, 9, 59, 0
5, 38138, Note_on_c, 9, 40, 0
5, 38142, Note_on_c, 9, 38, 0
5, 38160, Note_on_c, 9, 40, 27
5, 38160, Note_on_c, 9, 38, 48
5, 38231, Note_on_c, 9, 44, 28
5, 38244, Note_on_c, 9, 44, 0
5, 38249, Note_on_c, 9, 40, 0
5, 38253, Note_on_c, 9, 38, 0
5, 38280, Note_on_c, 9, 40, 27
5, 38280, Note_on_c, 9, 38, 57
5, 38282, Note_on_c, 9, 53, 29
5, 38283, Note_on_c, 9, 59, 28
5, 38301, Note_on_c, 9, 59, 0
5, 38303, Note_on_c, 9, 53, 0
5, 38318, Note_on_c, 9, 38, 0
5, 38320, Note_on_c, 9, 39, 42
5, 38323, Note_on_c, 9, 40, 0
5, 38330, Note_on_c, 9, 39, 0
5, 38360, Note_on_c, 9, 39, 56
5, 38390, Note_on_c, 9, 39, 0
5, 38400, Note_on_c, 9, 38, 32
5, 38400, Note_on_c, 9, 40, 38
5, 38470, Note_on_c, 9, 40, 0
5, 38471, Note_on_c, 9, 38, 0
5, 38520, Note_on_c, 9, 40, 32
5, 38520, Note_on_c, 9, 38, 40
5, 38596, Note_on_c, 9, 44, 35
5, 38606, Note_on_c, 9, 40, 0
5, 38610, Note_on_c, 9, 38, 0
5, 38618, Note_on_c, 9, 44, 0
5, 38640, Note_on_c, 9, 38, 51
5, 38640, Note_on_c, 9, 40, 23
5, 38651, Note_on_c, 9, 59, 20
5, 38666, Note_on_c, 9, 59, 0
5, 38708, Note_on_c, 9, 40, 0
5, 38712, Note_on_c, 9, 53, 58
5, 38715, Note_on_c, 9, 59, 51
5, 38720, Note_on_c, 9, 40, 27
5, 38730, Note_on_c, 9, 59, 0
5, 38733, Note_on_c, 9, 40, 0
5, 38737, Note_on_c, 9, 38, 0
5, 38739, Note_on_c, 9, 53, 0
5, 38760, Note_on_c, 9, 40, 38
5, 38760, Note_on_c, 9, 38, 57
5, 38765, Note_on_c, 9, 53, 58
5, 38768, Note_on_c, 9, 59, 48
5, 38815, Note_on_c, 9, 53, 0
5, 38817, Note_on_c, 9, 59, 0
5, 38850, Note_on_c, 9, 40, 0
5, 38856, Note_on_c, 9, 38, 0
5, 38880, Note_on_c, 9, 40, 30
5, 38880, Note_on_c, 9, 38, 51
5, 38949, Note_on_c, 9, 38, 0
5, 38954, Note_on_c, 9, 40, 0
5, 38959, Note_on_c, 9, 53, 32
5, 38960, Note_on_c, 9, 39, 67
5, 38973, Note_on_c, 9, 53, 0
5, 38994, Note_on_c, 9, 39, 0
5, 39000, Note_on_c, 9, 38, 48
5, 39000, Note_on_c, 9, 40, 23
5, 39085, Note_on_c, 9, 40, 0
5, 39097, Note_on_c, 9, 38, 0
5, 39120, Note_on_c, 9, 40, 32
5, 39120, Note_on_c, 9, 38, 50
5, 39122, Note_on_c, 9, 59, 60
5, 39123, Note_on_c, 9, 53, 50
5, 39156, Note_on_c, 9, 59, 0
5, 39175, Note_on_c, 9, 53, 0
5, 39196, Note_on_c, 9, 44, 30
5, 39208, Note_on_c, 9, 40, 0
5, 39209, Note_on_c, 9, 44, 0
5, 39210, Note_on_c, 9, 38, 0
5, 39240, Note_on_c, 9, 40, 30
5, 39240, Note_on_c, 9, 38, 57
5, 39257, Note_on_c, 9, 53, 24
5, 39272, Note_on_c, 9, 53, 0
5, 39309, Note_on_c, 9, 38, 0
5, 39316, Note_on_c, 9, 53, 62
5, 39318, Note_on_c, 9, 59, 62
5, 39319, Note_on_c, 9, 40, 0
5, 39320, Note_on_c, 9, 39, 64
5, 39340, Note_on_c, 9, 53, 0
5, 39341, Note_on_c, 9, 59, 0
5, 39356, Note_on_c, 9, 39, 0
5, 39360, Note_on_c, 9, 40, 24
5, 39360, Note_on_c, 9, 38, 46
5, 39364, Note_on_c, 9, 53, 60
5, 39366, Note_on_c, 9, 59, 55
5, 39394, Note_on_c, 9, 59, 0
5, 39405, Note_on_c, 9, 53, 0
5, 39431, Note_on_c, 9, 44, 46
5, 39440, Note_on_c, 9, 40, 0
5, 39449, Note_on_c, 9, 38, 0
5, 39456, Note_on_c, 9, 44, 0
5, 39480, Note_on_c, 9, 40, 26
5, 39480, Note_on_c, 9, 38, 50
5, 39481, Note_on_c, 9, 53, 52
5, 39483, Note_on_c, 9, 59, 34
5, 39497, Note_on_c, 9, 59, 0
5, 39509, Note_on_c, 9, 53, 0
5, 39551, Note_on_c, 9, 44, 62
5, 39557, Note_on_c, 9, 38, 0
5, 39558, Note_on_c, 9, 36, 18
5, 39560, Note_on_c, 9, 39, 63
5, 39565, Note_on_c, 9, 40, 0
5, 39579, Note_on_c, 9, 44, 0
5, 39582, Note_on_c, 9, 36, 0
5, 39594, Note_on_c, 9, 39, 0
5, 39599, Note_on_c, 9, 53, 47
5, 39600, Note_on_c, 9, 40, 31
5, 39600, Note_on_c, 9, 38, 46
5, 39604, Note_on_c, 9, 59, 35
5, 39637, Note_on_c, 9, 59, 0
5, 39660, Note_on_c, 9, 53, 0
5, 39691, Note_on_c, 9, 40, 0
5, 39692, Note_on_c, 9, 38, 0
5, 39720, Note_on_c, 9, 40, 32
5, 39720, Note_on_c, 9, 38, 65
5, 39727, Note_on_c, 9, 53, 28
5, 39728, Note_on_c, 9, 59, 27
5, 39745, Note_on_c, 9, 59, 0
5, 39753, Note_on_c, 9, 53, 0
5, 39811, Note_on_c, 9, 40, 0
5, 39812, Note_on_c, 9, 38, 0
5, 39840, Note_on_c, 9, 40, 30
5, 39840, Note_on_c, 9, 38, 51
5, 39840, Note_on_c, 9, 53, 37
5, 39841, Note_on_c, 9, 59, 36
5, 39857, Note_on_c, 9, 59, 0
5, 39867, Note_on_c, 9, 53, 0
5, 39916, Note_on_c, 9, 38, 0
5, 39920, Note_on_c, 9, 39, 64
5, 39924, Note_on_c, 9, 40, 0
5, 39946, Note_on_c, 9, 39, 0
5, 39960, Note_on_c, 9, 40, 28
5, 39960, Note_on_c, 9, 38, 50
5, 40052, Note_on_c, 9, 40, 0
5, 40060, Note_on_c, 9, 38, 0
5, 40080, Note_on_c, 9, 38, 55
5, 40080, Note_on_c, 9, 40, 29
5, 40166, Note_on_c, 9, 40, 0
5, 40175, Note_on_c, 9, 38, 0
5, 40200, Note_on_c, 9, 38, 45
5, 40200, Note_on_c, 9, 40, 22
5, 40245, Note_on_c, 9, 40, 0
5, 40249, Note_on_c, 9, 38, 0
5, 40280, Note_on_c, 9, 38, 60
5, 40280, Note_on_c, 9, 40, 35
5, 40293, Note_on_c, 9, 40, 0
5, 40297, Note_on_c, 9, 38, 0
5, 40320, Note_on_c, 9, 40, 24
5, 40320, Note_on_c, 9, 38, 54
5, 40413, Note_on_c, 9, 40, 0
5, 40422, Note_on_c, 9, 38, 0
5, 40440, Note_on_c, 9, 40, 31
5, 40440, Note_on_c, 9, 38, 46
5, 40490, Note_on_c, 9, 40, 0
5, 40491, Note_on_c, 9, 38, 0
5, 40512, Note_on_c, 9, 53, 35
5, 40520, Note_on_c, 9, 38, 48
5, 40520, Note_on_c, 9, 40, 23
5, 40529, Note_on_c, 9, 53, 0
5, 40531, Note_on_c, 9, 40, 0
5, 40533, Note_on_c, 9, 38, 0
5, 40560, Note_on_c, 9, 40, 39
5, 40560, Note_on_c, 9, 38, 58
5, 40569, Note_on_c, 9, 53, 44
5, 40571, Note_on_c, 9, 59, 31
5, 40604, Note_on_c, 9, 59, 0
5, 40605, Note_on_c, 9, 53, 0
5, 40637, Note_on_c, 9, 53, 57
5, 40639, Note_on_c, 9, 59, 53
5, 40650, Note_on_c, 9, 40, 0
5, 40654, Note_on_c, 9, 38, 0
5, 40664, Note_on_c, 9, 59, 0
5, 40668, Note_on_c, 9, 53, 0
5, 40680, Note_on_c, 9, 40, 25
5, 40680, Note_on_c, 9, 38, 53
5, 40717, Note_on_c, 9, 38, 0
5, 40720, Note_on_c, 9, 39, 44
5, 40726, Note_on_c, 9, 40, 0
5, 40740, Note_on_c, 9, 39, 0
5, 40760, Note_on_c, 9, 39, 44
5, 40784, Note_on_c, 9, 39, 0
5, 40800, Note_on_c, 9, 40, 40
5, 40800, Note_on_c, 9, 38, 49
5, 40877, Note_on_c, 9, 53, 80
5, 40878, Note_on_c, 9, 59, 72
5, 40886, Note_on_c, 9, 40, 0
5, 40891, Note_on_c, 9, 38, 0
5, 40914, Note_on_c, 9, 59, 0
5, 40919, Note_on_c, 9, 53, 0
5, 40920, Note_on_c, 9, 40, 25
5, 40920, Note_on_c, 9, 38, 49
5, 40944, Note_on_c, 9, 40, 0
5, 40952, Note_on_c, 9, 38, 0
5, 40960, Note_on_c, 9, 39, 64
5, 40982, Note_on_c, 9, 39, 0
5, 40993, Note_on_c, 9, 53, 36
5, 41000, Note_on_c, 9, 38, 55
5, 41000, Note_on_c, 9, 40, 35
5, 41009, Note_on_c, 9, 53, 0
5, 41021, Note_on_c, 9, 40, 0
5, 41027, Note_on_c, 9, 38, 0
5, 41040, Note_on_c, 9, 40, 42
5, 41040, Note_on_c, 9, 38, 66
5, 41047, Note_on_c, 9, 53, 28
5, 41081, Note_on_c, 9, 53, 0
5, 41093, Note_on_c, 9, 38, 0
5, 41094, Note_on_c, 9, 40, 0
5, 41120, Note_on_c, 9, 40, 33
5, 41120, Note_on_c, 9, 38, 54
5, 41120, Note_on_c, 9, 53, 75
5, 41123, Note_on_c, 9, 59, 66
5, 41137, Note_on_c, 9, 40, 0
5, 41138, Note_on_c, 9, 38, 0
5, 41160, Note_on_c, 9, 40, 34
5, 41160, Note_on_c, 9, 38, 48
5, 41175, Note_on_c, 9, 53, 0
5, 41176, Note_on_c, 9, 59, 0
5, 41220, Note_on_c, 9, 38, 0
5, 41224, Note_on_c, 9, 40, 0
5, 41233, Note_on_c, 9, 53, 54
5, 41240, Note_on_c, 9, 39, 68
5, 41247, Note_on_c, 9, 53, 0
5, 41270, Note_on_c, 9, 39, 0
5, 41280, Note_on_c, 9, 40, 24
5, 41280, Note_on_c, 9, 38, 49
5, 41290, Note_on_c, 9, 53, 39
5, 41304, Note_on_c, 9, 53, 0
5, 41318, Note_on_c, 9, 40, 0
5, 41327, Note_on_c, 9, 38, 0
5, 41360, Note_on_c, 9, 39, 71
5, 41360, Note_on_c, 9, 53, 75
5, 41361, Note_on_c, 9, 59, 67
5, 41392, Note_on_c, 9, 39, 0
5, 41400, Note_on_c, 9, 40, 30
5, 41400, Note_on_c, 9, 38, 51
5, 41420, Note_on_c, 9, 59, 0
5, 41427, Note_on_c, 9, 53, 0
5, 41474, Note_on_c, 9, 44, 37
5, 41488, Note_on_c, 9, 44, 0
5, 41488, Note_on_c, 9, 40, 0
5, 41492, Note_on_c, 9, 38, 0
5, 41519, Note_on_c, 9, 53, 36
5, 41520, Note_on_c, 9, 40, 28
5, 41520, Note_on_c, 9, 38, 46
5, 41542, Note_on_c, 9, 53, 0
5, 41607, Note_on_c, 9, 40, 0
5, 41608, Note_on_c, 9, 38, 0
5, 41640, Note_on_c, 9, 40, 29
5, 41640, Note_on_c, 9, 38, 51
5, 41699, Note_on_c, 9, 38, 0
5, 41707, Note_on_c, 9, 40, 0
5, 41720, Note_on_c, 9, 39, 68
5, 41755, Note_on_c, 9, 39, 0
5, 41760, Note_on_c, 9, 40, 28
5, 41760, Note_on_c, 9, 38, 55
5, 41841, Note_on_c, 9, 40, 0
5, 41852, Note_on_c, 9, 38, 0
5, 41880, Note_on_c, 9, 40, 28
5, 41880, Note_on_c, 9, 38, 49
5, 41967, Note_on_c, 9, 40, 0
5, 41968, Note_on_c, 9, 38, 0
5, 42000, Note_on_c, 9, 40, 30
5, 42000, Note_on_c, 9, 38, 53
5, 42037, Note_on_c, 9, 40, 0
5, 42041, Note_on_c, 9, 38, 0
5, 42080, Note_on_c, 9, 38, 49
5, 42080, Note_on_c, 9, 40, 21
5, 42092, Note_on_c, 9, 40, 0
5, 42099, Note_on_c, 9, 38, 0
5, 42120, Note_on_c, 9, 38, 58
5, 42120, Note_on_c, 9, 40, 32
5, 42120, Note_on_c, 9, 38, 71
5, 42120, Note_on_c, 9, 40, 49
5, 42188, Note_on_c, 9, 40, 0
5, 42190, Note_on_c, 9, 38, 0
5, 42191, Note_on_c, 9, 40, 0
5, 42194, Note_on_c, 9, 38, 0
5, 42240, Note_on_c, 9, 38, 66
5, 42240, Note_on_c, 9, 40, 35
5, 42244, Note_on_c, 9, 44, 26
5, 42293, Note_on_c, 9, 44, 0
5, 42313, Note_on_c, 9, 38, 0
5, 42318, Note_on_c, 9, 40, 0
5, 42360, Note_on_c, 9, 40, 34
5, 42360, Note_on_c, 9, 38, 59
5, 42363, Note_on_c, 9, 44, 32
5, 42405, Note_on_c, 9, 44, 0
5, 42425, Note_on_c, 9, 38, 0
5, 42440, Note_on_c, 9, 39, 70
5, 42447, Note_on_c, 9, 40, 0
5, 42474, Note_on_c, 9, 39, 0
5, 42480, Note_on_c, 9, 38, 53
5, 42480, Note_on_c, 9, 40, 41
5, 42584, Note_on_c, 9, 40, 0
5, 42592, Note_on_c, 9, 38, 0
5, 42596, Note_on_c, 9, 44, 28
5, 42600, Note_on_c, 9, 40, 32
5, 42600, Note_on_c, 9, 38, 59
5, 42641, Note_on_c, 9, 44, 0
5, 42693, Note_on_c, 9, 40, 0
5, 42703, Note_on_c, 9, 38, 0
5, 42720, Note_on_c, 9, 40, 30
5, 42720, Note_on_c, 9, 38, 57
5, 42810, Note_on_c, 9, 40, 0
5, 42817, Note_on_c, 9, 38, 0
5, 42840, Note_on_c, 9, 40, 35
5, 42840, Note_on_c, 9, 38, 46
5, 42917, Note_on_c, 9, 38, 0
5, 42920, Note_on_c, 9, 39, 65
5, 42923, Note_on_c, 9, 40, 0
5, 42952, Note_on_c, 9, 39, 0
5, 42960, Note_on_c, 9, 40, 30
5, 42960, Note_on_c, 9, 38, 24
5, 42966, Note_on_c, 9, 44, 20
5, 42999, Note_on_c, 9, 44, 0
5, 43019, Note_on_c, 9, 40, 0
5, 43040, Note_on_c, 9, 38, 0
5, 43040, Note_on_c, 9, 39, 81
5, 43040, Note_on_c, 9, 40, 28
5, 43048, Note_on_c, 9, 40, 0
5, 43079, Note_on_c, 9, 39, 0
5, 43080, Note_on_c, 9, 40, 37
5, 43080, Note_on_c, 9, 38, 48
5, 43140, Note_on_c, 9, 40, 0
5, 43145, Note_on_c, 9, 38, 0
5, 43160, Note_on_c, 9, 40, 35
5, 43160, Note_on_c, 9, 38, 64
5, 43174, Note_on_c, 9, 40, 0
5, 43179, Note_on_c, 9, 38, 0
5, 43200, Note_on_c, 9, 40, 23
5, 43200, Note_on_c, 9, 38, 51
5, 43294, Note_on_c, 9, 40, 0
5, 43296, Note_on_c, 9, 38, 0
5, 43307, Note_on_c, 9, 44, 25
5, 43320, Note_on_c, 9, 40, 32
5, 43320, Note_on_c, 9, 38, 47
5, 43336, Note_on_c, 9, 44, 0
5, 43388, Note_on_c, 9, 38, 0
5, 43400, Note_on_c, 9, 40, 0
5, 43400, Note_on_c, 9, 39, 72
5, 43428, Note_on_c, 9, 39, 0
5, 43438, Note_on_c, 9, 46, 7
5, 43440, Note_on_c, 9, 40, 26
5, 43440, Note_on_c, 9, 38, 38
5, 43480, Note_on_c, 9, 46, 0
5, 43488, Note_on_c, 9, 40, 0
5, 43491, Note_on_c, 9, 38, 0
5, 43520, Note_on_c, 9, 40, 23
5, 43520, Note_on_c, 9, 38, 48
5, 43535, Note_on_c, 9, 40, 0
5, 43536, Note_on_c, 9, 38, 0
5, 43560, Note_on_c, 9, 40, 25
5, 43560, Note_on_c, 9, 38, 40
5, 43655, Note_on_c, 9, 40, 0
5, 43663, Note_on_c, 9, 38, 0
5, 43680, Note_on_c, 9, 38, 40
5, 43680, Note_on_c, 9, 40, 26
5, 43764, Note_on_c, 9, 40, 0
5, 43773, Note_on_c, 9, 38, 0
5, 43800, Note_on_c, 9, 40, 21
5, 43800, Note_on_c, 9, 38, 42
5, 43864, Note_on_c, 9, 38, 0
5, 43876, Note_on_c, 9, 40, 0
5, 43880, Note_on_c, 9, 39, 55
5, 43912, Note_on_c, 9, 39, 0
5, 43920, Note_on_c, 9, 40, 25
5, 43920, Note_on_c, 9, 38, 39
5, 43972, Note_on_c, 9, 40, 0
5, 43981, Note_on_c, 9, 38, 0
5, 44000, Note_on_c, 9, 39, 64
5, 44033, Note_on_c, 9, 39, 0
5, 44040, Note_on_c, 9, 40, 20
5, 44040, Note_on_c, 9, 38, 43
5, 44125, Note_on_c, 9, 38, 0
5, 44133, Note_on_c, 9, 40, 0
5, 44160, Note_on_c, 9, 38, 34
5, 44160, Note_on_c, 9, 40, 21
5, 44253, Note_on_c, 9, 40, 0
5, 44259, Note_on_c, 9, 38, 0
5, 44280, Note_on_c, 9, 38, 39
5, 44280, Note_on_c, 9, 40, 23
5, 44364, Note_on_c, 9, 40, 0
5, 44371, Note_on_c, 9, 38, 0
5, 44400, Note_on_c, 9, 38, 38
5, 44400, Note_on_c, 9, 40, 28
5, 44431, Note_on_c, 9, 38, 0
5, 44433, Note_on_c, 9, 40, 0
5, 44440, Note_on_c, 9, 39, 59
5, 44480, Note_on_c, 9, 39, 0
5, 44480, Note_on_c, 9, 38, 63
5, 44480, Note_on_c, 9, 40, 24
5, 44489, Note_on_c, 9, 40, 0
5, 44500, Note_on_c, 9, 38, 0
5, 44520, Note_on_c, 9, 40, 25
5, 44520, Note_on_c, 9, 38, 52
5, 44593, Note_on_c, 9, 40, 0
5, 44600, Note_on_c, 9, 38, 38
5, 44600, Note_on_c, 9, 40, 22
5, 44601, Note_on_c, 9, 38, 0
5, 44603, Note_on_c, 9, 36, 11
5, 44609, Note_on_c, 9, 40, 0
5, 44617, Note_on_c, 9, 36, 0
5, 44618, Note_on_c, 9, 38, 0
5, 44640, Note_on_c, 9, 38, 38
5, 44640, Note_on_c, 9, 40, 30
5, 44657, Note_on_c, 9, 36, 5
5, 44680, Note_on_c, 9, 36, 0
5, 44706, Note_on_c, 9, 40, 0
5, 44711, Note_on_c, 9, 38, 0
5, 44720, Note_on_c, 9, 39, 45
5, 44746, Note_on_c, 9, 44, 42
5, 44755, Note_on_c, 9, 39, 0
5, 44760, Note_on_c, 9, 40, 27
5, 44760, Note_on_c, 9, 38, 39
5, 44769, Note_on_c, 9, 44, 0
5, 44849, Note_on_c, 9, 40, 0
5, 44859, Note_on_c, 9, 38, 0
5, 44879, Note_on_c, 9, 44, 39
5, 44880, Note_on_c, 9, 38, 36
5, 44880, Note_on_c, 9, 40, 23
5, 44911, Note_on_c, 9, 44, 0
5, 44964, Note_on_c, 9, 40, 0
5, 44972, Note_on_c, 9, 38, 0
5, 45000, Note_on_c, 9, 38, 36
5, 45000, Note_on_c, 9, 40, 28
5, 45060, Note_on_c, 9, 38, 0
5, 45074, Note_on_c, 9, 40, 0
5, 45080, Note_on_c, 9, 39, 52
5, 45103, Note_on_c, 9, 39, 0
5, 45120, Note_on_c, 9, 38, 38
5, 45120, Note_on_c, 9, 40, 15
5, 45172, Note_on_c, 9, 40, 0
5, 45176, Note_on_c, 9, 38, 0
5, 45200, Note_on_c, 9, 39, 58
5, 45232, Note_on_c, 9, 39, 0
5, 45240, Note_on_c, 9, 40, 32
5, 45240, Note_on_c, 9, 38, 36
5, 45341, Note_on_c, 9, 40, 0
5, 45342, Note_on_c, 9, 38, 0
5, 45360, Note_on_c, 9, 38, 37
5, 45360, Note_on_c, 9, 40, 28
5, 45450, Note_on_c, 9, 40, 0
5, 45463, Note_on_c, 9, 38, 0
5, 45480, Note_on_c, 9, 40, 27
5, 45480, Note_on_c, 9, 38, 45
5, 45565, Note_on_c, 9, 40, 0
5, 45573, Note_on_c, 9, 38, 0
5, 45600, Note_on_c, 9, 38, 44
5, 45600, Note_on_c, 9, 40, 29
5, 45665, Note_on_c, 9, 38, 0
5, 45674, Note_on_c, 9, 40, 0
5, 45680, Note_on_c, 9, 39, 57
5, 45708, Note_on_c, 9, 39, 0
5, 45720, Note_on_c, 9, 40, 23
5, 45720, Note_on_c, 9, 38, 42
5, 45771, Note_on_c, 9, 40, 0
5, 45777, Note_on_c, 9, 38, 0
5, 45800, Note_on_c, 9, 39, 60
5, 45829, Note_on_c, 9, 39, 0
5, 45840, Note_on_c, 9, 40, 33
5, 45840, Note_on_c, 9, 38, 26
5, 45842, Note_on_c, 9, 44, 30
5, 45879, Note_on_c, 9, 44, 0
5, 45937, Note_on_c, 9, 40, 0
5, 45943, Note_on_c, 9, 38, 0
5, 45960, Note_on_c, 9, 38, 44
5, 45960, Note_on_c, 9, 40, 25
5, 45968, Note_on_c, 9, 44, 29
5, 46006, Note_on_c, 9, 44, 0
5, 46048, Note_on_c, 9, 40, 0
5, 46053, Note_on_c, 9, 38, 0
5, 46080, Note_on_c, 9, 38, 46
5, 46080, Note_on_c, 9, 40, 30
5, 46118, Note_on_c, 9, 38, 0
5, 46119, Note_on_c, 9, 40, 0
5, 46120, Note_on_c, 9, 39, 52
5, 46143, Note_on_c, 9, 39, 0
5, 46160, Note_on_c, 9, 39, 46
5, 46195, Note_on_c, 9, 39, 0
5, 46199, Note_on_c, 9, 44, 33
5, 46200, Note_on_c, 9, 38, 37
5, 46200, Note_on_c, 9, 40, 30
5, 46232, Note_on_c, 9, 44, 0
5, 46273, Note_on_c, 9, 38, 0
5, 46280, Note_on_c, 9, 40, 0
5, 46280, Note_on_c, 9, 39, 67
5, 46288, Note_on_c, 9, 36, 6
5, 46298, Note_on_c, 9, 36, 0
5, 46314, Note_on_c, 9, 39, 0
5, 46320, Note_on_c, 9, 38, 52
5, 46320, Note_on_c, 9, 40, 9
5, 46369, Note_on_c, 9, 40, 0
5, 46376, Note_on_c, 9, 38, 0
5, 46400, Note_on_c, 9, 39, 55
5, 46434, Note_on_c, 9, 39, 0
5, 46440, Note_on_c, 9, 40, 32
5, 46440, Note_on_c, 9, 38, 37
5, 46487, Note_on_c, 9, 40, 0
5, 46489, Note_on_c, 9, 38, 0
5, 46520, Note_on_c, 9, 38, 49
5, 46520, Note_on_c, 9, 40, 34
5, 46537, Note_on_c, 9, 40, 0
5, 46545, Note_on_c, 9, 38, 0
5, 46560, Note_on_c, 9, 40, 29
5, 46560, Note_on_c, 9, 38, 49
5, 46626, Note_on_c, 9, 40, 0
5, 46629, Note_on_c, 9, 38, 0
5, 46640, Note_on_c, 9, 39, 55
5, 46677, Note_on_c, 9, 39, 0
5, 46680, Note_on_c, 9, 38, 40
5, 46680, Note_on_c, 9, 40, 32
5, 46684, Note_on_c, 9, 44, 30
5, 46721, Note_on_c, 9, 44, 0
5, 46721, Note_on_c, 9, 40, 0
5, 46726, Note_on_c, 9, 38, 0
5, 46760, Note_on_c, 9, 38, 61
5, 46760, Note_on_c, 9, 40, 33
5, 46783, Note_on_c, 9, 40, 0
5, 46784, Note_on_c, 9, 38, 0
5, 46800, Note_on_c, 9, 40, 29
5, 46800, Note_on_c, 9, 38, 47
5, 46857, Note_on_c, 9, 38, 0
5, 46859, Note_on_c, 9, 40, 0
5, 46880, Note_on_c, 9, 39, 60
5, 46919, Note_on_c, 9, 39, 0
5, 46920, Note_on_c, 9, 40, 30
5, 46920, Note_on_c, 9, 38, 43
5, 46964, Note_on_c, 9, 40, 0
5, 46965, Note_on_c, 9, 38, 0
5, 46989, Note_on_c, 9, 44, 28
5, 47000, Note_on_c, 9, 40, 32
5, 47000, Note_on_c, 9, 38, 63
5, 47012, Note_on_c, 9, 44, 0
5, 47026, Note_on_c, 9, 38, 0
5, 47027, Note_on_c, 9, 40, 0
5, 47039, Note_on_c, 9, 44, 17
5, 47040, Note_on_c, 9, 40, 23
5, 47040, Note_on_c, 9, 38, 47
5, 47088, Note_on_c, 9, 44, 0
5, 47089, Note_on_c, 9, 38, 0
5, 47097, Note_on_c, 9, 40, 0
5, 47119, Note_on_c, 9, 36, 9
5, 47120, Note_on_c, 9, 39, 57
5, 47140, Note_on_c, 9, 36, 0
5, 47153, Note_on_c, 9, 39, 0
5, 47160, Note_on_c, 9, 40, 23
5, 47160, Note_on_c, 9, 38, 44
5, 47261, Note_on_c, 9, 40, 0
5, 47264, Note_on_c, 9, 38, 0
5, 47280, Note_on_c, 9, 38, 45
5, 47280, Note_on_c, 9, 40, 30
5, 47371, Note_on_c, 9, 40, 0
5, 47379, Note_on_c, 9, 38, 0
5, 47400, Note_on_c, 9, 40, 28
5, 47400, Note_on_c, 9, 38, 46
5, 47463, Note_on_c, 9, 38, 0
5, 47468, Note_on_c, 9, 40, 0
5, 47480, Note_on_c, 9, 39, 57
5, 47513, Note_on_c, 9, 39, 0
5, 47520, Note_on_c, 9, 40, 26
5, 47520, Note_on_c, 9, 38, 43
5, 47592, Note_on_c, 9, 40, 0
5, 47597, Note_on_c, 9, 38, 0
5, 47600, Note_on_c, 9, 39, 60
5, 47615, Note_on_c, 9, 59, 43
5, 47625, Note_on_c, 9, 59, 0
5, 47630, Note_on_c, 9, 39, 0
5, 47640, Note_on_c, 9, 38, 45
5, 47640, Note_on_c, 9, 40, 32
5, 47708, Note_on_c, 9, 59, 46
5, 47727, Note_on_c, 9, 59, 0
5, 47734, Note_on_c, 9, 40, 0
5, 47745, Note_on_c, 9, 38, 0
5, 47759, Note_on_c, 9, 59, 42
5, 47760, Note_on_c, 9, 38, 46
5, 47760, Note_on_c, 9, 40, 35
5, 47776, Note_on_c, 9, 59, 0
5, 47831, Note_on_c, 9, 38, 0
5, 47832, Note_on_c, 9, 44, 29
5, 47837, Note_on_c, 9, 40, 0
5, 47840, Note_on_c, 9, 39, 63
5, 47870, Note_on_c, 9, 44, 0
5, 47873, Note_on_c, 9, 39, 0
5, 47880, Note_on_c, 9, 40, 32
5, 47880, Note_on_c, 9, 38, 43
5, 47954, Note_on_c, 9, 59, 43
5, 47966, Note_on_c, 9, 59, 0
5, 47969, Note_on_c, 9, 40, 0
5, 47976, Note_on_c, 9, 38, 0
5, 48000, Note_on_c, 9, 40, 32
5, 48000, Note_on_c, 9, 38, 50
5, 48074, Note_on_c, 9, 59, 60
5, 48087, Note_on_c, 9, 40, 0
5, 48090, Note_on_c, 9, 59, 0
5, 48093, Note_on_c, 9, 38, 0
5, 48120, Note_on_c, 9, 38, 51
5, 48120, Note_on_c, 9, 40, 30
5, 48191, Note_on_c, 9, 44, 25
5, 48193, Note_on_c, 9, 38, 0
5, 48199, Note_on_c, 9, 40, 0
5, 48200, Note_on_c, 9, 39, 59
5, 48207, Note_on_c, 9, 44, 0
5, 48236, Note_on_c, 9, 39, 0
5, 48240, Note_on_c, 9, 40, 31
5, 48240, Note_on_c, 9, 38, 38
5, 48298, Note_on_c, 9, 38, 0
5, 48298, Note_on_c, 9, 40, 0
5, 48320, Note_on_c, 9, 39, 65
5, 48358, Note_on_c, 9, 39, 0
5, 48360, Note_on_c, 9, 38, 38
5, 48360, Note_on_c, 9, 40, 23
5, 48371, Note_on_c, 9, 59, 31
5, 48412, Note_on_c, 9, 59, 0
5, 48436, Note_on_c, 9, 59, 47
5, 48445, Note_on_c, 9, 40, 0
5, 48452, Note_on_c, 9, 59, 0
5, 48454, Note_on_c, 9, 38, 0
5, 48480, Note_on_c, 9, 38, 49
5, 48480, Note_on_c, 9, 40, 31
5, 48549, Note_on_c, 9, 38, 0
5, 48554, Note_on_c, 9, 44, 34
5, 48556, Note_on_c, 9, 40, 0
5, 48560, Note_on_c, 9, 39, 52
5, 48578, Note_on_c, 9, 44, 0
5, 48582, Note_on_c, 9, 39, 0
5, 48600, Note_on_c, 9, 40, 25
5, 48600, Note_on_c, 9, 38, 39
5, 48610, Note_on_c, 9, 59, 45
5, 48625, Note_on_c, 9, 59, 0
5, 48654, Note_on_c, 9, 40, 0
5, 48655, Note_on_c, 9, 38, 0
5, 48680, Note_on_c, 9, 40, 32
5, 48680, Note_on_c, 9, 38, 54
5, 48680, Note_on_c, 9, 59, 30
5, 48695, Note_on_c, 9, 59, 0
5, 48749, Note_on_c, 9, 38, 0
5, 48756, Note_on_c, 9, 40, 0
5, 48760, Note_on_c, 9, 39, 60
5, 48785, Note_on_c, 9, 39, 0
5, 48785, Note_on_c, 9, 59, 45
5, 48800, Note_on_c, 9, 59, 0
5, 48800, Note_on_c, 9, 40, 43
5, 48800, Note_on_c, 9, 38, 50
5, 48819, Note_on_c, 9, 40, 0
5, 48822, Note_on_c, 9, 38, 0
5, 48840, Note_on_c, 9, 38, 63
5, 48840, Note_on_c, 9, 40, 33
5, 48840, Note_on_c, 9, 59, 31
5, 48857, Note_on_c, 9, 59, 0
5, 48893, Note_on_c, 9, 40, 0
5, 48898, Note_on_c, 9, 38, 0
5, 48908, Note_on_c, 9, 44, 26
5, 48920, Note_on_c, 9, 39, 54
5, 48932, Note_on_c, 9, 44, 0
5, 48958, Note_on_c, 9, 39, 0
5, 48960, Note_on_c, 9, 40, 30
5, 48960, Note_on_c, 9, 38, 48
5, 49020, Note_on_c, 9, 38, 0
5, 49026, Note_on_c, 9, 40, 0
5, 49040, Note_on_c, 9, 38, 62
5, 49040, Note_on_c, 9, 39, 59
5, 49049, Note_on_c, 9, 38, 0
5, 49080, Note_on_c, 9, 40, 30
5, 49080, Note_on_c, 9, 38, 50
5, 49093, Note_on_c, 9, 39, 0
5, 49135, Note_on_c, 9, 38, 0
5, 49140, Note_on_c, 9, 40, 0
5, 49146, Note_on_c, 9, 59, 40
5, 49161, Note_on_c, 9, 59, 0
5, 49200, Note_on_c, 9, 40, 24
5, 49200, Note_on_c, 9, 38, 54
5, 49266, Note_on_c, 9, 38, 0
5, 49270, Note_on_c, 9, 59, 49
5, 49271, Note_on_c, 9, 40, 0
5, 49280, Note_on_c, 9, 59, 0
5, 49280, Note_on_c, 9, 39, 59
5, 49320, Note_on_c, 9, 39, 0
5, 49320, Note_on_c, 9, 40, 26
5, 49320, Note_on_c, 9, 38, 36
5, 49399, Note_on_c, 9, 40, 0
5, 49406, Note_on_c, 9, 38, 0
5, 49440, Note_on_c, 9, 40, 28
5, 49440, Note_on_c, 9, 38, 48
5, 49526, Note_on_c, 9, 40, 0
5, 49527, Note_on_c, 9, 38, 0
5, 49560, Note_on_c, 9, 40, 25
5, 49560, Note_on_c, 9, 38, 45
5, 49631, Note_on_c, 9, 59, 29
5, 49644, Note_on_c, 9, 59, 0
5, 49653, Note_on_c, 9, 40, 0
5, 49659, Note_on_c, 9, 38, 0
5, 49678, Note_on_c, 9, 59, 29
5, 49680, Note_on_c, 9, 40, 28
5, 49680, Note_on_c, 9, 38, 42
5, 49694, Note_on_c, 9, 59, 0
5, 49770, Note_on_c, 9, 40, 0
5, 49776, Note_on_c, 9, 38, 0
5, 49800, Note_on_c, 9, 40, 27
5, 49800, Note_on_c, 9, 38, 47
5, 49851, Note_on_c, 9, 40, 0
5, 49856, Note_on_c, 9, 38, 0
5, 49874, Note_on_c, 9, 59, 22
5, 49880, Note_on_c, 9, 40, 37
5, 49880, Note_on_c, 9, 38, 60
5, 49889, Note_on_c, 9, 59, 0
5, 49898, Note_on_c, 9, 40, 0
5, 49902, Note_on_c, 9, 38, 0
5, 49920, Note_on_c, 9, 40, 21
5, 49920, Note_on_c, 9, 38, 46
5, 49970, Note_on_c, 9, 40, 0
5, 49973, Note_on_c, 9, 38, 0
5, 50000, Note_on_c, 9, 38, 61
5, 50000, Note_on_c, 9, 40, 32
5, 50016, Note_on_c, 9, 40, 0
5, 50024, Note_on_c, 9, 38, 0
5, 50040, Note_on_c, 9, 40, 25
5, 50040, Note_on_c, 9, 38, 51
5, 50128, Note_on_c, 9, 40, 0
5, 50137, Note_on_c, 9, 38, 0
5, 50160, Note_on_c, 9, 40, 31
5, 50160, Note_on_c, 9, 38, 44
5, 50226, Note_on_c, 9, 40, 0
5, 50235, Note_on_c, 9, 38, 0
5, 50240, Note_on_c, 9, 39, 67
5, 50263, Note_on_c, 9, 39, 0
5, 50280, Note_on_c, 9, 40, 28
5, 50280, Note_on_c, 9, 38, 47
5, 50340, Note_on_c, 9, 40, 0
5, 50344, Note_on_c, 9, 38, 0
5, 50353, Note_on_c, 9, 44, 38
5, 50360, Note_on_c, 9, 38, 57
5, 50360, Note_on_c, 9, 40, 37
5, 50369, Note_on_c, 9, 44, 0
5, 50377, Note_on_c, 9, 40, 0
5, 50382, Note_on_c, 9, 38, 0
5, 50400, Note_on_c, 9, 38, 71
5, 50400, Note_on_c, 9, 40, 49
5, 50404, Note_on_c, 9, 57, 34
5, 50408, Note_on_c, 9, 59, 29
5, 50425, Note_on_c, 9, 57, 0
5, 50426, Note_on_c, 9, 59, 0
5, 50471, Note_on_c, 9, 40, 0
5, 50474, Note_on_c, 9, 38, 0
5, 50520, Note_on_c, 9, 38, 66
5, 50520, Note_on_c, 9, 40, 35
5, 50593, Note_on_c, 9, 38, 0
5, 50598, Note_on_c, 9, 40, 0
5, 50640, Note_on_c, 9, 40, 34
5, 50640, Note_on_c, 9, 38, 59
5, 50705, Note_on_c, 9, 38, 0
5, 50720, Note_on_c, 9, 39, 70
5, 50727, Note_on_c, 9, 40, 0
5, 50754, Note_on_c, 9, 39, 0
5, 50760, Note_on_c, 9, 38, 53
5, 50760, Note_on_c, 9, 40, 41
5, 50864, Note_on_c, 9, 40, 0
5, 50872, Note_on_c, 9, 38, 0
5, 50880, Note_on_c, 9, 40, 32
5, 50880, Note_on_c, 9, 38, 59
5, 50884, Note_on_c, 9, 44, 32
5, 50913, Note_on_c, 9, 44, 0
5, 50973, Note_on_c, 9, 40, 0
5, 50983, Note_on_c, 9, 38, 0
5, 51000, Note_on_c, 9, 40, 30
5, 51000, Note_on_c, 9, 38, 57
5, 51003, Note_on_c, 9, 44, 32
5, 51051, Note_on_c, 9, 44, 0
5, 51090, Note_on_c, 9, 40, 0
5, 51097, Note_on_c, 9, 38, 0
5, 51120, Note_on_c, 9, 40, 35
5, 51120, Note_on_c, 9, 38, 46
5, 51197, Note_on_c, 9, 38, 0
5, 51200, Note_on_c, 9, 39, 65
5, 51203, Note_on_c, 9, 40, 0
5, 51232, Note_on_c, 9, 39, 0
5, 51240, Note_on_c, 9, 40, 30
5, 51240, Note_on_c, 9, 38, 24
5, 51299, Note_on_c, 9, 40, 0
5, 51320, Note_on_c, 9, 38, 0
5, 51320, Note_on_c, 9, 39, 81
5, 51320, Note_on_c, 9, 40, 28
5, 51328, Note_on_c, 9, 40, 0
5, 51359, Note_on_c, 9, 39, 0
5, 51360, Note_on_c, 9, 40, 37
5, 51360, Note_on_c, 9, 38, 48
5, 51420, Note_on_c, 9, 40, 0
5, 51425, Note_on_c, 9, 38, 0
5, 51440, Note_on_c, 9, 40, 35
5, 51440, Note_on_c, 9, 38, 64
5, 51454, Note_on_c, 9, 40, 0
5, 51459, Note_on_c, 9, 38, 0
5, 51480, Note_on_c, 9, 40, 23
5, 51480, Note_on_c, 9, 38, 51
5, 51574, Note_on_c, 9, 40, 0
5, 51576, Note_on_c, 9, 38, 0
5, 51600, Note_on_c, 9, 40, 32
5, 51600, Note_on_c, 9, 38, 47
5, 51668, Note_on_c, 9, 38, 0
5, 51680, Note_on_c, 9, 40, 0
5, 51680, Note_on_c, 9, 39, 72
5, 51708, Note_on_c, 9, 39, 0
5, 51720, Note_on_c, 9, 40, 26
5, 51720, Note_on_c, 9, 38, 38
5, 51768, Note_on_c, 9, 40, 0
5, 51771, Note_on_c, 9, 38, 0
5, 51798, Note_on_c, 9, 44, 26
5, 51800, Note_on_c, 9, 40, 23
5, 51800, Note_on_c, 9, 38, 48
5, 51813, Note_on_c, 9, 44, 0
5, 51815, Note_on_c, 9, 40, 0
5, 51816, Note_on_c, 9, 38, 0
5, 51840, Note_on_c, 9, 40, 25
5, 51840, Note_on_c, 9, 38, 40
5, 51935, Note_on_c, 9, 40, 0
5, 51943, Note_on_c, 9, 38, 0
5, 51960, Note_on_c, 9, 38, 40
5, 51960, Note_on_c, 9, 40, 26
5, 52044, Note_on_c, 9, 40, 0
5, 52053, Note_on_c, 9, 38, 0
5, 52080, Note_on_c, 9, 40, 21
5, 52080, Note_on_c, 9, 38, 42
5, 52144, Note_on_c, 9, 38, 0
5, 52156, Note_on_c, 9, 40, 0
5, 52160, Note_on_c, 9, 39, 55
5, 52192, Note_on_c, 9, 39, 0
5, 52200, Note_on_c, 9, 40, 25
5, 52200, Note_on_c, 9, 38, 39
5, 52252, Note_on_c, 9, 40, 0
5, 52261, Note_on_c, 9, 38, 0
5, 52263, Note_on_c, 9, 44, 29
5, 52280, Note_on_c, 9, 39, 64
5, 52287, Note_on_c, 9, 44, 0
5, 52313, Note_on_c, 9, 39, 0
5, 52320, Note_on_c, 9, 40, 20
5, 52320, Note_on_c, 9, 38, 43
5, 52323, Note_on_c, 9, 36, 11
5, 52341, Note_on_c, 9, 36, 0
5, 52405, Note_on_c, 9, 38, 0
5, 52413, Note_on_c, 9, 40, 0
5, 52438, Note_on_c, 9, 36, 9
5, 52440, Note_on_c, 9, 38, 34
5, 52440, Note_on_c, 9, 40, 21
5, 52471, Note_on_c, 9, 36, 0
5, 52533, Note_on_c, 9, 40, 0
5, 52539, Note_on_c, 9, 38, 0
5, 52560, Note_on_c, 9, 38, 39
5, 52560, Note_on_c, 9, 40, 23
5, 52644, Note_on_c, 9, 40, 0
5, 52651, Note_on_c, 9, 38, 0
5, 52680, Note_on_c, 9, 38, 38
5, 52680, Note_on_c, 9, 40, 28
5, 52711, Note_on_c, 9, 38, 0
5, 52713, Note_on_c, 9, 40, 0
5, 52720, Note_on_c, 9, 39, 59
5, 52760, Note_on_c, 9, 39, 0
5, 52760, Note_on_c, 9, 38, 63
5, 52760, Note_on_c, 9, 40, 24
5, 52769, Note_on_c, 9, 40, 0
5, 52780, Note_on_c, 9, 38, 0
5, 52800, Note_on_c, 9, 40, 25
5, 52800, Note_on_c, 9, 38, 52
5, 52873, Note_on_c, 9, 40, 0
5, 52880, Note_on_c, 9, 38, 38
5, 52880, Note_on_c, 9, 40, 22
5, 52881, Note_on_c, 9, 38, 0
5, 52889, Note_on_c, 9, 40, 0
5, 52898, Note_on_c, 9, 38, 0
5, 52920, Note_on_c, 9, 38, 38
5, 52920, Note_on_c, 9, 40, 30
5, 52986, Note_on_c, 9, 40, 0
5, 52991, Note_on_c, 9, 38, 0
5, 53000, Note_on_c, 9, 39, 45
5, 53035, Note_on_c, 9, 39, 0
5, 53040, Note_on_c, 9, 40, 27
5, 53040, Note_on_c, 9, 38, 39
5, 53129, Note_on_c, 9, 40, 0
5, 53139, Note_on_c, 9, 38, 0
5, 53160, Note_on_c, 9, 38, 36
5, 53160, Note_on_c, 9, 40, 23
5, 53235, Note_on_c, 9, 59, 31
5, 53244, Note_on_c, 9, 40, 0
5, 53249, Note_on_c, 9, 59, 0
5, 53252, Note_on_c, 9, 38, 0
5, 53272, Note_on_c, 9, 36, 10
5, 53280, Note_on_c, 9, 38, 36
5, 53280, Note_on_c, 9, 40, 28
5, 53302, Note_on_c, 9, 36, 0
5, 53340, Note_on_c, 9, 38, 0
5, 53354, Note_on_c, 9, 40, 0
5, 53360, Note_on_c, 9, 39, 52
5, 53383, Note_on_c, 9, 39, 0
5, 53396, Note_on_c, 9, 36, 11
5, 53400, Note_on_c, 9, 38, 38
5, 53400, Note_on_c, 9, 40, 15
5, 53435, Note_on_c, 9, 36, 0
5, 53452, Note_on_c, 9, 40, 0
5, 53456, Note_on_c, 9, 38, 0
5, 53480, Note_on_c, 9, 39, 58
5, 53512, Note_on_c, 9, 39, 0
5, 53520, Note_on_c, 9, 40, 32
5, 53520, Note_on_c, 9, 38, 36
5, 53621, Note_on_c, 9, 40, 0
5, 53622, Note_on_c, 9, 38, 0
5, 53640, Note_on_c, 9, 38, 37
5, 53640, Note_on_c, 9, 40, 28
5, 53730, Note_on_c, 9, 40, 0
5, 53743, Note_on_c, 9, 38, 0
5, 53760, Note_on_c, 9, 40, 27
5, 53760, Note_on_c, 9, 38, 45
5, 53845, Note_on_c, 9, 40, 0
5, 53853, Note_on_c, 9, 38, 0
5, 53880, Note_on_c, 9, 38, 44
5, 53880, Note_on_c, 9, 40, 29
5, 53945, Note_on_c, 9, 38, 0
5, 53954, Note_on_c, 9, 40, 0
5, 53960, Note_on_c, 9, 39, 57
5, 53988, Note_on_c, 9, 39, 0
5, 54000, Note_on_c, 9, 40, 23
5, 54000, Note_on_c, 9, 38, 42
5, 54051, Note_on_c, 9, 40, 0
5, 54057, Note_on_c, 9, 38, 0
5, 54080, Note_on_c, 9, 39, 60
5, 54109, Note_on_c, 9, 39, 0
5, 54120, Note_on_c, 9, 40, 33
5, 54120, Note_on_c, 9, 38, 26
5, 54217, Note_on_c, 9, 40, 0
5, 54223, Note_on_c, 9, 38, 0
5, 54240, Note_on_c, 9, 38, 44
5, 54240, Note_on_c, 9, 40, 25
5, 54328, Note_on_c, 9, 40, 0
5, 54333, Note_on_c, 9, 38, 0
5, 54360, Note_on_c, 9, 38, 46
5, 54360, Note_on_c, 9, 40, 30
5, 54398, Note_on_c, 9, 38, 0
5, 54399, Note_on_c, 9, 40, 0
5, 54400, Note_on_c, 9, 39, 52
5, 54423, Note_on_c, 9, 39, 0
5, 54440, Note_on_c, 9, 39, 46
5, 54475, Note_on_c, 9, 39, 0
5, 54477, Note_on_c, 9, 44, 28
5, 54480, Note_on_c, 9, 38, 37
5, 54480, Note_on_c, 9, 40, 30
5, 54497, Note_on_c, 9, 44, 0
5, 54553, Note_on_c, 9, 38, 0
5, 54560, Note_on_c, 9, 40, 0
5, 54560, Note_on_c, 9, 39, 67
5, 54594, Note_on_c, 9, 39, 0
5, 54600, Note_on_c, 9, 38, 52
5, 54600, Note_on_c, 9, 40, 9
5, 54649, Note_on_c, 9, 40, 0
5, 54656, Note_on_c, 9, 38, 0
5, 54680, Note_on_c, 9, 39, 55
5, 54714, Note_on_c, 9, 39, 0
5, 54720, Note_on_c, 9, 40, 32
5, 54720, Note_on_c, 9, 38, 37
5, 54767, Note_on_c, 9, 40, 0
5, 54769, Note_on_c, 9, 38, 0
5, 54800, Note_on_c, 9, 38, 49
5, 54800, Note_on_c, 9, 40, 34
5, 54817, Note_on_c, 9, 40, 0
5, 54825, Note_on_c, 9, 38, 0
5, 54840, Note_on_c, 9, 40, 29
5, 54840, Note_on_c, 9, 38, 49
5, 54906, Note_on_c, 9, 40, 0
5, 54909, Note_on_c, 9, 38, 0
5, 54920, Note_on_c, 9, 39, 55
5, 54957, Note_on_c, 9, 39, 0
5, 54960, Note_on_c, 9, 38, 40
5, 54960, Note_on_c, 9, 40, 32
5, 55001, Note_on_c, 9, 40, 0
5, 55006, Note_on_c, 9, 38, 0
5, 55040, Note_on_c, 9, 38, 61
5, 55040, Note_on_c, 9, 40, 33
5, 55063, Note_on_c, 9, 40, 0
5, 55064, Note_on_c, 9, 38, 0
5, 55080, Note_on_c, 9, 40, 29
5, 55080, Note_on_c, 9, 38, 47
5, 55137, Note_on_c, 9, 38, 0
5, 55139, Note_on_c, 9, 40, 0
5, 55160, Note_on_c, 9, 39, 60
5, 55199, Note_on_c, 9, 39, 0
5, 55200, Note_on_c, 9, 40, 30
5, 55200, Note_on_c, 9, 38, 43
5, 55244, Note_on_c, 9, 40, 0
5, 55245, Note_on_c, 9, 38, 0
5, 55280, Note_on_c, 9, 40, 32
5, 55280, Note_on_c, 9, 38, 63
5, 55306, Note_on_c, 9, 38, 0
5, 55307, Note_on_c, 9, 40, 0
5, 55320, Note_on_c, 9, 40, 23
5, 55320, Note_on_c, 9, 38, 47
5, 55321, Note_on_c, 9, 46, 11
5, 55345, Note_on_c, 9, 46, 0
5, 55369, Note_on_c, 9, 38, 0
5, 55377, Note_on_c, 9, 40, 0
5, 55400, Note_on_c, 9, 39, 57
5, 55433, Note_on_c, 9, 39, 0
5, 55440, Note_on_c, 9, 40, 23
5, 55440, Note_on_c, 9, 38, 44
5, 55541, Note_on_c, 9, 40, 0
5, 55544, Note_on_c, 9, 38, 0
5, 55551, Note_on_c, 9, 44, 30
5, 55560, Note_on_c, 9, 38, 45
5, 55560, Note_on_c, 9, 40, 30
5, 55572, Note_on_c, 9, 44, 0
5, 55651, Note_on_c, 9, 40, 0
5, 55659, Note_on_c, 9, 38, 0
5, 55680, Note_on_c, 9, 40, 28
5, 55680, Note_on_c, 9, 38, 46
5, 55680, Note_on_c, 9, 44, 32
5, 55727, Note_on_c, 9, 44, 0
5, 55743, Note_on_c, 9, 38, 0
5, 55748, Note_on_c, 9, 40, 0
5, 55760, Note_on_c, 9, 39, 57
5, 55793, Note_on_c, 9, 39, 0
5, 55800, Note_on_c, 9, 40, 26
5, 55800, Note_on_c, 9, 38, 43
5, 55872, Note_on_c, 9, 40, 0
5, 55877, Note_on_c, 9, 38, 0
5, 55880, Note_on_c, 9, 39, 60
5, 55910, Note_on_c, 9, 39, 0
5, 55920, Note_on_c, 9, 38, 45
5, 55920, Note_on_c, 9, 40, 32
5, 55929, Note_on_c, 9, 44, 26
5, 55955, Note_on_c, 9, 44, 0
5, 56014, Note_on_c, 9, 40, 0
5, 56025, Note_on_c, 9, 38, 0
5, 56040, Note_on_c, 9, 38, 46
5, 56040, Note_on_c, 9, 40, 35
5, 56044, Note_on_c, 9, 44, 25
5, 56073, Note_on_c, 9, 44, 0
5, 56111, Note_on_c, 9, 38, 0
5, 56117, Note_on_c, 9, 40, 0
5, 56120, Note_on_c, 9, 39, 63
5, 56153, Note_on_c, 9, 39, 0
5, 56160, Note_on_c, 9, 40, 32
5, 56160, Note_on_c, 9, 38, 43
5, 56249, Note_on_c, 9, 40, 0
5, 56256, Note_on_c, 9, 38, 0
5, 56280, Note_on_c, 9, 40, 32
5, 56280, Note_on_c, 9, 38, 50
5, 56367, Note_on_c, 9, 40, 0
5, 56373, Note_on_c, 9, 38, 0
5, 56400, Note_on_c, 9, 38, 51
5, 56400, Note_on_c, 9, 40, 30
5, 56473, Note_on_c, 9, 38, 0
5, 56479, Note_on_c, 9, 40, 0
5, 56480, Note_on_c, 9, 39, 59
5, 56516, Note_on_c, 9, 39, 0
5, 56520, Note_on_c, 9, 40, 31
5, 56520, Note_on_c, 9, 38, 38
5, 56578, Note_on_c, 9, 38, 0
5, 56578, Note_on_c, 9, 40, 0
5, 56600, Note_on_c, 9, 39, 65
5, 56638, Note_on_c, 9, 39, 0
5, 56640, Note_on_c, 9, 38, 38
5, 56640, Note_on_c, 9, 40, 23
5, 56649, Note_on_c, 9, 59, 30
5, 56663, Note_on_c, 9, 59, 0
5, 56725, Note_on_c, 9, 40, 0
5, 56734, Note_on_c, 9, 38, 0
5, 56760, Note_on_c, 9, 38, 49
5, 56760, Note_on_c, 9, 40, 31
5, 56766, Note_on_c, 9, 59, 51
5, 56779, Note_on_c, 9, 59, 0
5, 56829, Note_on_c, 9, 38, 0
5, 56836, Note_on_c, 9, 40, 0
5, 56840, Note_on_c, 9, 39, 52
5, 56862, Note_on_c, 9, 39, 0
5, 56880, Note_on_c, 9, 40, 25
5, 56880, Note_on_c, 9, 38, 39
5, 56934, Note_on_c, 9, 40, 0
5, 56935, Note_on_c, 9, 38, 0
5, 56960, Note_on_c, 9, 40, 32
5, 56960, Note_on_c, 9, 38, 54
5, 57029, Note_on_c, 9, 38, 0
5, 57036, Note_on_c, 9, 40, 0
5, 57040, Note_on_c, 9, 39, 60
5, 57065, Note_on_c, 9, 39, 0
5, 57080, Note_on_c, 9, 40, 43
5, 57080, Note_on_c, 9, 38, 50
5, 57099, Note_on_c, 9, 40, 0
5, 57102, Note_on_c, 9, 38, 0
5, 57120, Note_on_c, 9, 38, 63
5, 57120, Note_on_c, 9, 40, 33
5, 57173, Note_on_c, 9, 40, 0
5, 57178, Note_on_c, 9, 38, 0
5, 57200, Note_on_c, 9, 39, 54
5, 57238, Note_on_c, 9, 39, 0
5, 57240, Note_on_c, 9, 40, 30
5, 57240, Note_on_c, 9, 38, 48
5, 57300, Note_on_c, 9, 38, 0
5, 57306, Note_on_c, 9, 40, 0
5, 57320, Note_on_c, 9, 38, 62
5, 57320, Note_on_c, 9, 39, 59
5, 57329, Note_on_c, 9, 38, 0
5, 57360, Note_on_c, 9, 40, 30
5, 57360, Note_on_c, 9, 38, 50
5, 57373, Note_on_c, 9, 39, 0
5, 57415, Note_on_c, 9, 38, 0
5, 57420, Note_on_c, 9, 40, 0
5, 57433, Note_on_c, 9, 53, 41
5, 57447, Note_on_c, 9, 53, 0
5, 57480, Note_on_c, 9, 40, 24
5, 57480, Note_on_c, 9, 38, 54
5, 57486, Note_on_c, 9, 53, 40
5, 57508, Note_on_c, 9, 53, 0
5, 57546, Note_on_c, 9, 38, 0
5, 57551, Note_on_c, 9, 40, 0
5, 57560, Note_on_c, 9, 39, 59
5, 57566, Note_on_c, 9, 36, 9
5, 57580, Note_on_c, 9, 36, 0
5, 57600, Note_on_c, 9, 39, 0
5, 57600, Note_on_c, 9, 40, 26
5, 57600, Note_on_c, 9, 38, 36
5, 57679, Note_on_c, 9, 40, 0
5, 57686, Note_on_c, 9, 38, 0
5, 57720, Note_on_c, 9, 40, 28
5, 57720, Note_on_c, 9, 38, 48
5, 57806, Note_on_c, 9, 40, 0
5, 57807, Note_on_c, 9, 38, 0
5, 57840, Note_on_c, 9, 40, 25
5, 57840, Note_on_c, 9, 38, 45
5, 57933, Note_on_c, 9, 40, 0
5, 57939, Note_on_c, 9, 38, 0
5, 57960, Note_on_c, 9, 40, 28
5, 57960, Note_on_c, 9, 38, 42
5, 58050, Note_on_c, 9, 40, 0
5, 58056, Note_on_c, 9, 38, 0
5, 58080, Note_on_c, 9, 40, 27
5, 58080, Note_on_c, 9, 38, 47
5, 58131, Note_on_c, 9, 40, 0
5, 58136, Note_on_c, 9, 38, 0
5, 58160, Note_on_c, 9, 40, 37
5, 58160, Note_on_c, 9, 38, 60
5, 58178, Note_on_c, 9, 40, 0
5, 58182, Note_on_c, 9, 38, 0
5, 58200, Note_on_c, 9, 40, 21
5, 58200, Note_on_c, 9, 38, 46
5, 58250, Note_on_c, 9, 40, 0
5, 58253, Note_on_c, 9, 38, 0
5, 58274, Note_on_c, 9, 59, 45
5, 58280, Note_on_c, 9, 38, 61
5, 58280, Note_on_c, 9, 40, 32
5, 58285, Note_on_c, 9, 59, 0
5, 58296, Note_on_c, 9, 40, 0
5, 58304, Note_on_c, 9, 38, 0
5, 58317, Note_on_c, 9, 36, 10
5, 58320, Note_on_c, 9, 40, 25
5, 58320, Note_on_c, 9, 38, 51
5, 58332, Note_on_c, 9, 36, 0
5, 58408, Note_on_c, 9, 40, 0
5, 58417, Note_on_c, 9, 38, 0
5, 58440, Note_on_c, 9, 40, 31
5, 58440, Note_on_c, 9, 38, 44
5, 58506, Note_on_c, 9, 40, 0
5, 58515, Note_on_c, 9, 38, 0
5, 58520, Note_on_c, 9, 39, 67
5, 58536, Note_on_c, 9, 36, 13
5, 58543, Note_on_c, 9, 39, 0
5, 58548, Note_on_c, 9, 36, 0
5, 58560, Note_on_c, 9, 40, 28
5, 58560, Note_on_c, 9, 38, 47
5, 58620, Note_on_c, 9, 40, 0
5, 58624, Note_on_c, 9, 38, 0
5, 58640, Note_on_c, 9, 38, 57
5, 58640, Note_on_c, 9, 40, 37
5, 58657, Note_on_c, 9, 40, 0
5, 58662, Note_on_c, 9, 38, 0
5, 58680, Note_on_c, 9, 38, 50
5, 58680, Note_on_c, 9, 40, 25
5, 58761, Note_on_c, 9, 40, 0
5, 58769, Note_on_c, 9, 38, 0
5, 58800, Note_on_c, 9, 38, 48
5, 58800, Note_on_c, 9, 40, 35
5, 58883, Note_on_c, 9, 40, 0
5, 58890, Note_on_c, 9, 38, 0
5, 58920, Note_on_c, 9, 40, 32
5, 58920, Note_on_c, 9, 38, 52
5, 58994, Note_on_c, 9, 38, 0
5, 59000, Note_on_c, 9, 39, 67
5, 59005, Note_on_c, 9, 40, 0
5, 59031, Note_on_c, 9, 39, 0
5, 59040, Note_on_c, 9, 38, 46
5, 59040, Note_on_c, 9, 40, 30
5, 59109, Note_on_c, 9, 44, 32
5, 59122, Note_on_c, 9, 44, 0
5, 59129, Note_on_c, 9, 40, 0
5, 59139, Note_on_c, 9, 38, 0
5, 59160, Note_on_c, 9, 40, 32
5, 59160, Note_on_c, 9, 38, 50
5, 59206, Note_on_c, 9, 44, 31
5, 59226, Note_on_c, 9, 44, 0
5, 59232, Note_on_c, 9, 38, 0
5, 59240, Note_on_c, 9, 39, 64
5, 59243, Note_on_c, 9, 40, 0
5, 59267, Note_on_c, 9, 39, 0
5, 59280, Note_on_c, 9, 38, 46
5, 59280, Note_on_c, 9, 40, 33
5, 59298, Note_on_c, 9, 44, 32
5, 59325, Note_on_c, 9, 44, 0
5, 59364, Note_on_c, 9, 40, 0
5, 59373, Note_on_c, 9, 38, 0
5, 59379, Note_on_c, 9, 44, 32
5, 59390, Note_on_c, 9, 44, 0
5, 59400, Note_on_c, 9, 38, 48
5, 59400, Note_on_c, 9, 40, 28
5, 59420, Note_on_c, 9, 36, 15
5, 59431, Note_on_c, 9, 36, 0
5, 59479, Note_on_c, 9, 40, 0
5, 59492, Note_on_c, 9, 38, 0
5, 59520, Note_on_c, 9, 38, 46
5, 59520, Note_on_c, 9, 40, 26
5, 59542, Note_on_c, 9, 36, 9
5, 59588, Note_on_c, 9, 40, 0
5, 59594, Note_on_c, 9, 36, 0
5, 59594, Note_on_c, 9, 38, 0
5, 59640, Note_on_c, 9, 38, 47
5, 59640, Note_on_c, 9, 40, 23
5, 59661, Note_on_c, 9, 36, 9
5, 59699, Note_on_c, 9, 38, 0
5, 59702, Note_on_c, 9, 40, 0
5, 59708, Note_on_c, 9, 36, 0
5, 59720, Note_on_c, 9, 38, 29
5, 59720, Note_on_c, 9, 39, 74
5, 59728, Note_on_c, 9, 38, 0
5, 59736, Note_on_c, 9, 39, 0
5, 59760, Note_on_c, 9, 40, 31
5, 59760, Note_on_c, 9, 38, 57
5, 59849, Note_on_c, 9, 40, 0
5, 59857, Note_on_c, 9, 38, 0
5, 59880, Note_on_c, 9, 40, 26
5, 59880, Note_on_c, 9, 38, 44
5, 59965, Note_on_c, 9, 40, 0
5, 59971, Note_on_c, 9, 38, 0
5, 60000, Note_on_c, 9, 40, 23
5, 60000, Note_on_c, 9, 38, 60
5, 60044, Note_on_c, 9, 38, 0
5, 60044, Note_on_c, 9, 40, 0
5, 60080, Note_on_c, 9, 40, 39
5, 60080, Note_on_c, 9, 38, 68
5, 60099, Note_on_c, 9, 40, 0
5, 60101, Note_on_c, 9, 38, 0
5, 60120, Note_on_c, 9, 40, 17
5, 60120, Note_on_c, 9, 38, 42
5, 60167, Note_on_c, 9, 38, 0
5, 60169, Note_on_c, 9, 40, 0
5, 60200, Note_on_c, 9, 40, 35
5, 60200, Note_on_c, 9, 38, 60
5, 60223, Note_on_c, 9, 40, 0
5, 60224, Note_on_c, 9, 38, 0
5, 60240, Note_on_c, 9, 40, 18
5, 60240, Note_on_c, 9, 38, 50
5, 60317, Note_on_c, 9, 38, 0
5, 60320, Note_on_c, 9, 40, 0
5, 60320, Note_on_c, 9, 38, 72
5, 60320, Note_on_c, 9, 40, 39
5, 60336, Note_on_c, 9, 40, 0
5, 60339, Note_on_c, 9, 38, 0
5, 60360, Note_on_c, 9, 40, 24
5, 60360, Note_on_c, 9, 38, 35
5, 60386, Note_on_c, 9, 38, 0
5, 60398, Note_on_c, 9, 40, 0
5, 60440, Note_on_c, 9, 40, 34
5, 60440, Note_on_c, 9, 38, 55
5, 60458, Note_on_c, 9, 40, 0
5, 60461, Note_on_c, 9, 38, 0
5, 60480, Note_on_c, 9, 40, 25
5, 60480, Note_on_c, 9, 38, 51
5, 60568, Note_on_c, 9, 40, 0
5, 60573, Note_on_c, 9, 38, 0
5, 60600, Note_on_c, 9, 38, 54
5, 60600, Note_on_c, 9, 40, 26
5, 60604, Note_on_c, 9, 44, 25
5, 60638, Note_on_c, 9, 44, 0
5, 60676, Note_on_c, 9, 38, 0
5, 60680, Note_on_c, 9, 39, 62
5, 60682, Note_on_c, 9, 40, 0
5, 60716, Note_on_c, 9, 39, 0
5, 60720, Note_on_c, 9, 40, 28
5, 60720, Note_on_c, 9, 38, 46
5, 60780, Note_on_c, 9, 40, 0
5, 60784, Note_on_c, 9, 38, 0
5, 60800, Note_on_c, 9, 39, 64
5, 60829, Note_on_c, 9, 39, 0
5, 60840, Note_on_c, 9, 38, 46
5, 60840, Note_on_c, 9, 40, 29
5, 60923, Note_on_c, 9, 40, 0
5, 60932, Note_on_c, 9, 38, 0
5, 60958, Note_on_c, 9, 44, 21
5, 60960, Note_on_c, 9, 38, 52
5, 60960, Note_on_c, 9, 40, 28
5, 61012, Note_on_c, 9, 44, 0
5, 61048, Note_on_c, 9, 40, 0
5, 61049, Note_on_c, 9, 38, 0
5, 61076, Note_on_c, 9, 44, 27
5, 61080, Note_on_c, 9, 40, 32
5, 61080, Note_on_c, 9, 38, 48
5, 61131, Note_on_c, 9, 44, 0
5, 61139, Note_on_c, 9, 38, 0
5, 61160, Note_on_c, 9, 39, 55
5, 61161, Note_on_c, 9, 40, 0
5, 61195, Note_on_c, 9, 39, 0
5, 61200, Note_on_c, 9, 40, 32
5, 61200, Note_on_c, 9, 38, 52
5, 61283, Note_on_c, 9, 40, 0
5, 61286, Note_on_c, 9, 38, 0
5, 61319, Note_on_c, 9, 44, 27
5, 61320, Note_on_c, 9, 40, 27
5, 61320, Note_on_c, 9, 38, 47
5, 61356, Note_on_c, 9, 44, 0
5, 61398, Note_on_c, 9, 40, 0
5, 61403, Note_on_c, 9, 38, 0
5, 61440, Note_on_c, 9, 38, 54
5, 61440, Note_on_c, 9, 40, 35
5, 61514, Note_on_c, 9, 38, 0
5, 61520, Note_on_c, 9, 40, 0
5, 61520, Note_on_c, 9, 39, 56
5, 61548, Note_on_c, 9, 39, 0
5, 61560, Note_on_c, 9, 38, 45
5, 61560, Note_on_c, 9, 40, 28
5, 61620, Note_on_c, 9, 40, 0
5, 61624, Note_on_c, 9, 38, 0
5, 61640, Note_on_c, 9, 40, 30
5, 61640, Note_on_c, 9, 38, 53
5, 61658, Note_on_c, 9, 40, 0
5, 61660, Note_on_c, 9, 38, 0
5, 61680, Note_on_c, 9, 40, 28
5, 61680, Note_on_c, 9, 38, 52
5, 61725, Note_on_c, 9, 40, 0
5, 61726, Note_on_c, 9, 38, 0
5, 61760, Note_on_c, 9, 40, 27
5, 61760, Note_on_c, 9, 38, 55
5, 61780, Note_on_c, 9, 40, 0
5, 61786, Note_on_c, 9, 38, 0
5, 61800, Note_on_c, 9, 38, 45
5, 61800, Note_on_c, 9, 40, 22
5, 61812, Note_on_c, 9, 46, 9
5, 61835, Note_on_c, 9, 46, 0
5, 61838, Note_on_c, 9, 40, 0
5, 61841, Note_on_c, 9, 38, 0
5, 61880, Note_on_c, 9, 38, 53
5, 61880, Note_on_c, 9, 40, 35
5, 61899, Note_on_c, 9, 40, 0
5, 61906, Note_on_c, 9, 38, 0
5, 61920, Note_on_c, 9, 38, 46
5, 61920, Note_on_c, 9, 40, 35
5, 61980, Note_on_c, 9, 40, 0
5, 61981, Note_on_c, 9, 38, 0
5, 62040, Note_on_c, 9, 40, 29
5, 62040, Note_on_c, 9, 38, 50
5, 62128, Note_on_c, 9, 38, 0
5, 62128, Note_on_c, 9, 40, 0
5, 62160, Note_on_c, 9, 40, 34
5, 62160, Note_on_c, 9, 38, 51
5, 62258, Note_on_c, 9, 38, 0
5, 62258, Note_on_c, 9, 40, 0
5, 62280, Note_on_c, 9, 40, 32
5, 62280, Note_on_c, 9, 38, 49
5, 62355, Note_on_c, 9, 38, 0
5, 62360, Note_on_c, 9, 39, 69
5, 62363, Note_on_c, 9, 40, 0
5, 62391, Note_on_c, 9, 39, 0
5, 62397, Note_on_c, 9, 44, 25
5, 62400, Note_on_c, 9, 38, 51
5, 62400, Note_on_c, 9, 40, 25
5, 62432, Note_on_c, 9, 44, 0
5, 62458, Note_on_c, 9, 40, 0
5, 62461, Note_on_c, 9, 38, 0
5, 62480, Note_on_c, 9, 40, 30
5, 62480, Note_on_c, 9, 38, 54
5, 62498, Note_on_c, 9, 38, 0
5, 62499, Note_on_c, 9, 40, 0
5, 62515, Note_on_c, 9, 44, 28
5, 62520, Note_on_c, 9, 40, 30
5, 62520, Note_on_c, 9, 38, 53
5, 62554, Note_on_c, 9, 44, 0
5, 62587, Note_on_c, 9, 38, 0
5, 62600, Note_on_c, 9, 39, 67
5, 62605, Note_on_c, 9, 40, 0
5, 62631, Note_on_c, 9, 39, 0
5, 62640, Note_on_c, 9, 38, 51
5, 62640, Note_on_c, 9, 40, 28
5, 62728, Note_on_c, 9, 40, 0
5, 62743, Note_on_c, 9, 38, 0
5, 62760, Note_on_c, 9, 40, 32
5, 62760, Note_on_c, 9, 38, 47
5, 62849, Note_on_c, 9, 40, 0
5, 62853, Note_on_c, 9, 38, 0
5, 62868, Note_on_c, 9, 36, 11
5, 62880, Note_on_c, 9, 38, 48
5, 62880, Note_on_c, 9, 40, 29
5, 62889, Note_on_c, 9, 36, 0
5, 62952, Note_on_c, 9, 38, 0
5, 62960, Note_on_c, 9, 39, 62
5, 62964, Note_on_c, 9, 40, 0
5, 62982, Note_on_c, 9, 39, 0
5, 63000, Note_on_c, 9, 38, 36
5, 63000, Note_on_c, 9, 40, 22
5, 63091, Note_on_c, 9, 40, 0
5, 63099, Note_on_c, 9, 38, 0
5, 63120, Note_on_c, 9, 40, 32
5, 63120, Note_on_c, 9, 38, 51
5, 63213, Note_on_c, 9, 40, 0
5, 63220, Note_on_c, 9, 38, 0
5, 63240, Note_on_c, 9, 40, 32
5, 63240, Note_on_c, 9, 38, 46
5, 63315, Note_on_c, 9, 44, 33
5, 63327, Note_on_c, 9, 44, 0
5, 63338, Note_on_c, 9, 40, 0
5, 63342, Note_on_c, 9, 38, 0
5, 63360, Note_on_c, 9, 40, 27
5, 63360, Note_on_c, 9, 38, 48
5, 63366, Note_on_c, 9, 36, 7
5, 63385, Note_on_c, 9, 36, 0
5, 63449, Note_on_c, 9, 40, 0
5, 63453, Note_on_c, 9, 38, 0
5, 63480, Note_on_c, 9, 40, 27
5, 63480, Note_on_c, 9, 38, 57
5, 63518, Note_on_c, 9, 38, 0
5, 63520, Note_on_c, 9, 39, 42
5, 63523, Note_on_c, 9, 40, 0
5, 63530, Note_on_c, 9, 39, 0
5, 63560, Note_on_c, 9, 39, 56
5, 63590, Note_on_c, 9, 39, 0
5, 63597, Note_on_c, 9, 36, 8
5, 63600, Note_on_c, 9, 38, 32
5, 63600, Note_on_c, 9, 40, 38
5, 63629, Note_on_c, 9, 36, 0
5, 63670, Note_on_c, 9, 40, 0
5, 63671, Note_on_c, 9, 38, 0
5, 63720, Note_on_c, 9, 40, 32
5, 63720, Note_on_c, 9, 38, 40
5, 63806, Note_on_c, 9, 40, 0
5, 63810, Note_on_c, 9, 38, 0
5, 63840, Note_on_c, 9, 38, 51
5, 63840, Note_on_c, 9, 40, 23
5, 63908, Note_on_c, 9, 40, 0
5, 63920, Note_on_c, 9, 40, 27
5, 63933, Note_on_c, 9, 40, 0
5, 63937, Note_on_c, 9, 38, 0
5, 63960, Note_on_c, 9, 40, 38
5, 63960, Note_on_c, 9, 38, 57
5, 64050, Note_on_c, 9, 40, 0
5, 64056, Note_on_c, 9, 38, 0
5, 64080, Note_on_c, 9, 40, 30
5, 64080, Note_on_c, 9, 38, 51
5, 64149, Note_on_c, 9, 38, 0
5, 64154, Note_on_c, 9, 40, 0
5, 64160, Note_on_c, 9, 39, 67
5, 64194, Note_on_c, 9, 39, 0
5, 64200, Note_on_c, 9, 38, 48
5, 64200, Note_on_c, 9, 40, 23
5, 64285, Note_on_c, 9, 40, 0
5, 64297, Note_on_c, 9, 38, 0
5, 64320, Note_on_c, 9, 40, 32
5, 64320, Note_on_c, 9, 38, 50
5, 64408, Note_on_c, 9, 40, 0
5, 64410, Note_on_c, 9, 38, 0
5, 64440, Note_on_c, 9, 40, 30
5, 64440, Note_on_c, 9, 38, 57
5, 64509, Note_on_c, 9, 38, 0
5, 64519, Note_on_c, 9, 40, 0
5, 64520, Note_on_c, 9, 39, 64
5, 64522, Note_on_c, 9, 36, 11
5, 64535, Note_on_c, 9, 36, 0
5, 64556, Note_on_c, 9, 39, 0
5, 64560, Note_on_c, 9, 40, 24
5, 64560, Note_on_c, 9, 38, 46
5, 64568, Note_on_c, 9, 59, 50
5, 64588, Note_on_c, 9, 59, 0
5, 64640, Note_on_c, 9, 40, 0
5, 64643, Note_on_c, 9, 53, 64
5, 64649, Note_on_c, 9, 38, 0
5, 64653, Note_on_c, 9, 53, 0
5, 64680, Note_on_c, 9, 40, 26
5, 64680, Note_on_c, 9, 38, 50
5, 64757, Note_on_c, 9, 38, 0
5, 64760, Note_on_c, 9, 39, 63
5, 64765, Note_on_c, 9, 40, 0
5, 64794, Note_on_c, 9, 39, 0
5, 64800, Note_on_c, 9, 40, 31
5, 64800, Note_on_c, 9, 38, 46
5, 64891, Note_on_c, 9, 40, 0
5, 64892, Note_on_c, 9, 38, 0
5, 64897, Note_on_c, 9, 59, 39
5, 64909, Note_on_c, 9, 59, 0
5, 64920, Note_on_c, 9, 40, 32
5, 64920, Note_on_c, 9, 38, 65
5, 64990, Note_on_c, 9, 59, 61
5, 65011, Note_on_c, 9, 40, 0
5, 65012, Note_on_c, 9, 38, 0
5, 65015, Note_on_c, 9, 59, 0
5, 65040, Note_on_c, 9, 40, 30
5, 65040, Note_on_c, 9, 38, 51
5, 65051, Note_on_c, 9, 53, 52
5, 65063, Note_on_c, 9, 53, 0
5, 65116, Note_on_c, 9, 38, 0
5, 65120, Note_on_c, 9, 39, 64
5, 65123, Note_on_c, 9, 36, 14
5, 65124, Note_on_c, 9, 40, 0
5, 65137, Note_on_c, 9, 36, 0
5, 65146, Note_on_c, 9, 39, 0
5, 65160, Note_on_c, 9, 40, 28
5, 65160, Note_on_c, 9, 38, 50
5, 65252, Note_on_c, 9, 40, 0
5, 65260, Note_on_c, 9, 38, 0
5, 65280, Note_on_c, 9, 38, 55
5, 65280, Note_on_c, 9, 40, 29
5, 65285, Note_on_c, 9, 44, 32
5, 65342, Note_on_c, 9, 44, 0
5, 65366, Note_on_c, 9, 40, 0
5, 65375, Note_on_c, 9, 38, 0
5, 65400, Note_on_c, 9, 38, 45
5, 65400, Note_on_c, 9, 40, 22
5, 65404, Note_on_c, 9, 44, 35
5, 65445, Note_on_c, 9, 40, 0
5, 65449, Note_on_c, 9, 38, 0
5, 65476, Note_on_c, 9, 44, 0
5, 65480, Note_on_c, 9, 38, 60
5, 65480, Note_on_c, 9, 40, 35
5, 65493, Note_on_c, 9, 40, 0
5, 65497, Note_on_c, 9, 38, 0
5, 65520, Note_on_c, 9, 40, 24
5, 65520, Note_on_c, 9, 38, 54
5, 65613, Note_on_c, 9, 40, 0
5, 65622, Note_on_c, 9, 38, 0
5, 65637, Note_on_c, 9, 44, 29
5, 65640, Note_on_c, 9, 40, 31
5, 65640, Note_on_c, 9, 38, 46
5, 65687, Note_on_c, 9, 44, 0
5, 65690, Note_on_c, 9, 40, 0
5, 65691, Note_on_c, 9, 38, 0
5, 65720, Note_on_c, 9, 38, 48
5, 65720, Note_on_c, 9, 40, 23
5, 65731, Note_on_c, 9, 40, 0
5, 65733, Note_on_c, 9, 38, 0
5, 65760, Note_on_c, 9, 40, 39
5, 65760, Note_on_c, 9, 38, 58
5, 65850, Note_on_c, 9, 40, 0
5, 65854, Note_on_c, 9, 38, 0
5, 65880, Note_on_c, 9, 40, 25
5, 65880, Note_on_c, 9, 38, 53
5, 65917, Note_on_c, 9, 38, 0
5, 65920, Note_on_c, 9, 39, 44
5, 65926, Note_on_c, 9, 40, 0
5, 65940, Note_on_c, 9, 39, 0
5, 65960, Note_on_c, 9, 39, 44
5, 65984, Note_on_c, 9, 39, 0
5, 66000, Note_on_c, 9, 40, 40
5, 66000, Note_on_c, 9, 38, 49
5, 66006, Note_on_c, 9, 44, 30
5, 66057, Note_on_c, 9, 44, 0
5, 66086, Note_on_c, 9, 40, 0
5, 66091, Note_on_c, 9, 38, 0
5, 66120, Note_on_c, 9, 40, 25
5, 66120, Note_on_c, 9, 38, 49
5, 66144, Note_on_c, 9, 40, 0
5, 66152, Note_on_c, 9, 38, 0
5, 66160, Note_on_c, 9, 39, 64
5, 66182, Note_on_c, 9, 39, 0
5, 66200, Note_on_c, 9, 38, 55
5, 66200, Note_on_c, 9, 40, 35
5, 66221, Note_on_c, 9, 40, 0
5, 66227, Note_on_c, 9, 38, 0
5, 66240, Note_on_c, 9, 40, 42
5, 66240, Note_on_c, 9, 38, 66
5, 66293, Note_on_c, 9, 38, 0
5, 66294, Note_on_c, 9, 40, 0
5, 66320, Note_on_c, 9, 40, 33
5, 66320, Note_on_c, 9, 38, 54
5, 66337, Note_on_c, 9, 40, 0
5, 66338, Note_on_c, 9, 38, 0
5, 66360, Note_on_c, 9, 40, 34
5, 66360, Note_on_c, 9, 38, 48
5, 66362, Note_on_c, 9, 59, 44
5, 66399, Note_on_c, 9, 59, 0
5, 66420, Note_on_c, 9, 38, 0
5, 66424, Note_on_c, 9, 40, 0
5, 66440, Note_on_c, 9, 39, 68
5, 66470, Note_on_c, 9, 39, 0
5, 66480, Note_on_c, 9, 40, 24
5, 66480, Note_on_c, 9, 38, 49
5, 66518, Note_on_c, 9, 40, 0
5, 66527, Note_on_c, 9, 38, 0
5, 66560, Note_on_c, 9, 39, 71
5, 66567, Note_on_c, 9, 44, 20
5, 66579, Note_on_c, 9, 44, 0
5, 66592, Note_on_c, 9, 39, 0
5, 66600, Note_on_c, 9, 40, 30
5, 66600, Note_on_c, 9, 38, 51
5, 66611, Note_on_c, 9, 44, 28
5, 66634, Note_on_c, 9, 44, 0
5, 66688, Note_on_c, 9, 40, 0
5, 66692, Note_on_c, 9, 38, 0
5, 66720, Note_on_c, 9, 40, 28
5, 66720, Note_on_c, 9, 38, 46
5, 66726, Note_on_c, 9, 59, 40
5, 66751, Note_on_c, 9, 59, 0
5, 66807, Note_on_c, 9, 40, 0
5, 66808, Note_on_c, 9, 38, 0
5, 66840, Note_on_c, 9, 40, 29
5, 66840, Note_on_c, 9, 38, 51
5, 66899, Note_on_c, 9, 38, 0
5, 66907, Note_on_c, 9, 40, 0
5, 66920, Note_on_c, 9, 39, 68
5, 66955, Note_on_c, 9, 39, 0
5, 66960, Note_on_c, 9, 40, 28
5, 66960, Note_on_c, 9, 38, 55
5, 67041, Note_on_c, 9, 40, 0
5, 67052, Note_on_c, 9, 38, 0
5, 67080, Note_on_c, 9, 40, 28
5, 67080, Note_on_c, 9, 38, 49
5, 67083, Note_on_c, 9, 59, 45
5, 67097, Note_on_c, 9, 59, 0
5, 67167, Note_on_c, 9, 40, 0
5, 67168, Note_on_c, 9, 38, 0
5, 67200, Note_on_c, 9, 40, 30
5, 67200, Note_on_c, 9, 38, 53
5, 67204, Note_on_c, 9, 59, 60
5, 67223, Note_on_c, 9, 59, 0
5, 67237, Note_on_c, 9, 40, 0
5, 67241, Note_on_c, 9, 38, 0
5, 67280, Note_on_c, 9, 38, 49
5, 67280, Note_on_c, 9, 40, 21
5, 67292, Note_on_c, 9, 40, 0
5, 67299, Note_on_c, 9, 38, 0
5, 67320, Note_on_c, 9, 38, 58
5, 67320, Note_on_c, 9, 40, 32
5, 67320, Note_on_c, 9, 38, 71
5, 67320, Note_on_c, 9, 40, 49
5, 67388, Note_on_c, 9, 40, 0
5, 67390, Note_on_c, 9, 38, 0
5, 67391, Note_on_c, 9, 40, 0
5, 67394, Note_on_c, 9, 38, 0
5, 67440, Note_on_c, 9, 38, 66
5, 67440, Note_on_c, 9, 40, 35
5, 67513, Note_on_c, 9, 38, 0
5, 67518, Note_on_c, 9, 40, 0
5, 67560, Note_on_c, 9, 40, 34
5, 67560, Note_on_c, 9, 38, 59
5, 67625, Note_on_c, 9, 38, 0
5, 67640, Note_on_c, 9, 39, 70
5, 67642, Note_on_c, 9, 44, 42
5, 67647, Note_on_c, 9, 40, 0
5, 67666, Note_on_c, 9, 44, 0
5, 67674, Note_on_c, 9, 39, 0
5, 67675, Note_on_c, 9, 36, 17
5, 67680, Note_on_c, 9, 38, 53
5, 67680, Note_on_c, 9, 40, 41
5, 67740, Note_on_c, 9, 36, 0
5, 67784, Note_on_c, 9, 40, 0
5, 67792, Note_on_c, 9, 38, 0
5, 67800, Note_on_c, 9, 40, 32
5, 67800, Note_on_c, 9, 38, 59
5, 67806, Note_on_c, 9, 36, 26
5, 67833, Note_on_c, 9, 36, 0
5, 67893, Note_on_c, 9, 40, 0
5, 67903, Note_on_c, 9, 38, 0
5, 67920, Note_on_c, 9, 40, 30
5, 67920, Note_on_c, 9, 38, 57
5, 68010, Note_on_c, 9, 40, 0
5, 68017, Note_on_c, 9, 38, 0
5, 68040, Note_on_c, 9, 40, 35
5, 68040, Note_on_c, 9, 38, 46
5, 68117, Note_on_c, 9, 38, 0
5, 68120, Note_on_c, 9, 39, 65
5, 68123, Note_on_c, 9, 40, 0
5, 68152, Note_on_c, 9, 39, 0
5, 68160, Note_on_c, 9, 40, 30
5, 68160, Note_on_c, 9, 38, 24
5, 68219, Note_on_c, 9, 40, 0
5, 68240, Note_on_c, 9, 38, 0
5, 68240, Note_on_c, 9, 39, 81
5, 68240, Note_on_c, 9, 40, 28
5, 68248, Note_on_c, 9, 40, 0
5, 68279, Note_on_c, 9, 39, 0
5, 68280, Note_on_c, 9, 40, 37
5, 68280, Note_on_c, 9, 38, 48
5, 68340, Note_on_c, 9, 40, 0
5, 68345, Note_on_c, 9, 38, 0
5, 68360, Note_on_c, 9, 40, 35
5, 68360, Note_on_c, 9, 38, 64
5, 68374, Note_on_c, 9, 40, 0
5, 68379, Note_on_c, 9, 38, 0
5, 68400, Note_on_c, 9, 40, 23
5, 68400, Note_on_c, 9, 38, 51
5, 68494, Note_on_c, 9, 40, 0
5, 68496, Note_on_c, 9, 38, 0
5, 68520, Note_on_c, 9, 40, 32
5, 68520, Note_on_c, 9, 38, 47
5, 68588, Note_on_c, 9, 38, 0
5, 68595, Note_on_c, 9, 44, 35
5, 68600, Note_on_c, 9, 40, 0
5, 68600, Note_on_c, 9, 39, 72
5, 68606, Note_on_c, 9, 44, 0
5, 68628, Note_on_c, 9, 39, 0
5, 68640, Note_on_c, 9, 40, 26
5, 68640, Note_on_c, 9, 38, 38
5, 68688, Note_on_c, 9, 40, 0
5, 68691, Note_on_c, 9, 38, 0
5, 68716, Note_on_c, 9, 36, 20
5, 68720, Note_on_c, 9, 40, 23
5, 68720, Note_on_c, 9, 38, 48
5, 68733, Note_on_c, 9, 36, 0
5, 68735, Note_on_c, 9, 40, 0
5, 68736, Note_on_c, 9, 38, 0
5, 68760, Note_on_c, 9, 40, 25
5, 68760, Note_on_c, 9, 38, 40
5, 68765, Note_on_c, 9, 36, 23
5, 68797, Note_on_c, 9, 36, 0
5, 68855, Note_on_c, 9, 40, 0
5, 68863, Note_on_c, 9, 38, 0
5, 68880, Note_on_c, 9, 38, 40
5, 68880, Note_on_c, 9, 40, 26
5, 68960, Note_on_c, 9, 44, 25
5, 68964, Note_on_c, 9, 40, 0
5, 68971, Note_on_c, 9, 44, 0
5, 68973, Note_on_c, 9, 38, 0
5, 69000, Note_on_c, 9, 40, 21
5, 69000, Note_on_c, 9, 38, 42
5, 69000, Note_on_c, 9, 36, 17
5, 69028, Note_on_c, 9, 36, 0
5, 69064, Note_on_c, 9, 38, 0
5, 69076, Note_on_c, 9, 40, 0
5, 69080, Note_on_c, 9, 39, 55
5, 69081, Note_on_c, 9, 36, 32
5, 69109, Note_on_c, 9, 36, 0
5, 69112, Note_on_c, 9, 39, 0
5, 69120, Note_on_c, 9, 40, 25
5, 69120, Note_on_c, 9, 38, 39
5, 69172, Note_on_c, 9, 40, 0
5, 69181, Note_on_c, 9, 38, 0
5, 69200, Note_on_c, 9, 39, 64
5, 69233, Note_on_c, 9, 39, 0
5, 69240, Note_on_c, 9, 40, 20
5, 69240, Note_on_c, 9, 38, 43
5, 69325, Note_on_c, 9, 38, 0
5, 69333, Note_on_c, 9, 40, 0
5, 69360, Note_on_c, 9, 38, 34
5, 69360, Note_on_c, 9, 40, 21
5, 69453, Note_on_c, 9, 40, 0
5, 69459, Note_on_c, 9, 38, 0
5, 69480, Note_on_c, 9, 38, 39
5, 69480, Note_on_c, 9, 40, 23
5, 69564, Note_on_c, 9, 40, 0
5, 69571, Note_on_c, 9, 38, 0
5, 69600, Note_on_c, 9, 38, 38
5, 69600, Note_on_c, 9, 40, 28
5, 69631, Note_on_c, 9, 38, 0
5, 69633, Note_on_c, 9, 40, 0
5, 69640, Note_on_c, 9, 39, 59
5, 69680, Note_on_c, 9, 39, 0
5, 69680, Note_on_c, 9, 38, 63
5, 69680, Note_on_c, 9, 40, 24
5, 69681, Note_on_c, 9, 59, 45
5, 69689, Note_on_c, 9, 40, 0
5, 69692, Note_on_c, 9, 59, 0
5, 69700, Note_on_c, 9, 38, 0
5, 69720, Note_on_c, 9, 40, 25
5, 69720, Note_on_c, 9, 38, 52
5, 69727, Note_on_c, 9, 59, 50
5, 69748, Note_on_c, 9, 59, 0
5, 69793, Note_on_c, 9, 40, 0
5, 69800, Note_on_c, 9, 38, 38
5, 69800, Note_on_c, 9, 40, 22
5, 69801, Note_on_c, 9, 38, 0
5, 69801, Note_on_c, 9, 36, 20
5, 69809, Note_on_c, 9, 40, 0
5, 69812, Note_on_c, 9, 36, 0
5, 69818, Note_on_c, 9, 38, 0
5, 69840, Note_on_c, 9, 38, 38
5, 69840, Note_on_c, 9, 40, 30
5, 69906, Note_on_c, 9, 40, 0
5, 69911, Note_on_c, 9, 38, 0
5, 69920, Note_on_c, 9, 39, 45
5, 69955, Note_on_c, 9, 39, 0
5, 69960, Note_on_c, 9, 40, 27
5, 69960, Note_on_c, 9, 38, 39
5, 70049, Note_on_c, 9, 40, 0
5, 70059, Note_on_c, 9, 38, 0
5, 70080, Note_on_c, 9, 38, 36
5, 70080, Note_on_c, 9, 40, 23
5, 70164, Note_on_c, 9, 40, 0
5, 70172, Note_on_c, 9, 38, 0
5, 70200, Note_on_c, 9, 38, 36
5, 70200, Note_on_c, 9, 40, 28
5, 70260, Note_on_c, 9, 38, 0
5, 70274, Note_on_c, 9, 40, 0
5, 70280, Note_on_c, 9, 39, 52
5, 70303, Note_on_c, 9, 39, 0
5, 70320, Note_on_c, 9, 38, 38
5, 70320, Note_on_c, 9, 40, 15
5, 70372, Note_on_c, 9, 40, 0
5, 70376, Note_on_c, 9, 38, 0
5, 70400, Note_on_c, 9, 39, 58
5, 70432, Note_on_c, 9, 39, 0
5, 70440, Note_on_c, 9, 40, 32
5, 70440, Note_on_c, 9, 38, 36
5, 70541, Note_on_c, 9, 40, 0
5, 70542, Note_on_c, 9, 38, 0
5, 70560, Note_on_c, 9, 38, 37
5, 70560, Note_on_c, 9, 40, 28
5, 70650, Note_on_c, 9, 40, 0
5, 70663, Note_on_c, 9, 38, 0
5, 70680, Note_on_c, 9, 40, 27
5, 70680, Note_on_c, 9, 38, 45
5, 70765, Note_on_c, 9, 40, 0
5, 70773, Note_on_c, 9, 38, 0
5, 70800, Note_on_c, 9, 38, 44
5, 70800, Note_on_c, 9, 40, 29
5, 70865, Note_on_c, 9, 38, 0
5, 70874, Note_on_c, 9, 40, 0
5, 70880, Note_on_c, 9, 39, 57
5, 70908, Note_on_c, 9, 39, 0
5, 70920, Note_on_c, 9, 40, 23
5, 70920, Note_on_c, 9, 38, 42
5, 70971, Note_on_c, 9, 40, 0
5, 70977, Note_on_c, 9, 38, 0
5, 71000, Note_on_c, 9, 39, 60
5, 71029, Note_on_c, 9, 39, 0
5, 71040, Note_on_c, 9, 40, 33
5, 71040, Note_on_c, 9, 38, 26
5, 71127, Note_on_c, 9, 44, 39
5, 71137, Note_on_c, 9, 40, 0
5, 71139, Note_on_c, 9, 44, 0
5, 71143, Note_on_c, 9, 38, 0
5, 71160, Note_on_c, 9, 38, 44
5, 71160, Note_on_c, 9, 40, 25
5, 71248, Note_on_c, 9, 40, 0
5, 71253, Note_on_c, 9, 38, 0
5, 71280, Note_on_c, 9, 38, 46
5, 71280, Note_on_c, 9, 40, 30
5, 71318, Note_on_c, 9, 38, 0
5, 71319, Note_on_c, 9, 40, 0
5, 71320, Note_on_c, 9, 39, 52
5, 71343, Note_on_c, 9, 39, 0
5, 71360, Note_on_c, 9, 39, 46
5, 71395, Note_on_c, 9, 39, 0
5, 71400, Note_on_c, 9, 38, 37
5, 71400, Note_on_c, 9, 40, 30
5, 71473, Note_on_c, 9, 38, 0
5, 71478, Note_on_c, 9, 44, 34
5, 71480, Note_on_c, 9, 40, 0
5, 71480, Note_on_c, 9, 39, 67
5, 71490, Note_on_c, 9, 44, 0
5, 71514, Note_on_c, 9, 39, 0
5, 71520, Note_on_c, 9, 38, 52
5, 71520, Note_on_c, 9, 40, 9
5, 71569, Note_on_c, 9, 40, 0
5, 71576, Note_on_c, 9, 38, 0
5, 71600, Note_on_c, 9, 39, 55
5, 71634, Note_on_c, 9, 39, 0
5, 71640, Note_on_c, 9, 40, 32
5, 71640, Note_on_c, 9, 38, 37
5, 71687, Note_on_c, 9, 40, 0
5, 71689, Note_on_c, 9, 38, 0
5, 71714, Note_on_c, 9, 44, 46
5, 71720, Note_on_c, 9, 38, 49
5, 71720, Note_on_c, 9, 40, 34
5, 71726, Note_on_c, 9, 44, 0
5, 71737, Note_on_c, 9, 40, 0
5, 71745, Note_on_c, 9, 38, 0
5, 71760, Note_on_c, 9, 40, 29
5, 71760, Note_on_c, 9, 38, 49
5, 71826, Note_on_c, 9, 40, 0
5, 71829, Note_on_c, 9, 38, 0
5, 71837, Note_on_c, 9, 44, 46
5, 71840, Note_on_c, 9, 39, 55
5, 71854, Note_on_c, 9, 44, 0
5, 71877, Note_on_c, 9, 39, 0
5, 71880, Note_on_c, 9, 38, 40
5, 71880, Note_on_c, 9, 40, 32
5, 71921, Note_on_c, 9, 40, 0
5, 71926, Note_on_c, 9, 38, 0
5, 71957, Note_on_c, 9, 44, 51
5, 71960, Note_on_c, 9, 38, 61
5, 71960, Note_on_c, 9, 40, 33
5, 71975, Note_on_c, 9, 44, 0
5, 71983, Note_on_c, 9, 40, 0
5, 71984, Note_on_c, 9, 38, 0
5, 72000, Note_on_c, 9, 40, 29
5, 72000, Note_on_c, 9, 38, 47
5, 72009, Note_on_c, 9, 36, 14
5, 72047, Note_on_c, 9, 36, 0
5, 72057, Note_on_c, 9, 38, 0
5, 72059, Note_on_c, 9, 40, 0
5, 72080, Note_on_c, 9, 39, 60
5, 72119, Note_on_c, 9, 39, 0
5, 72120, Note_on_c, 9, 40, 30
5, 72120, Note_on_c, 9, 38, 43
5, 72123, Note_on_c, 9, 36, 12
5, 72164, Note_on_c, 9, 40, 0
5, 72165, Note_on_c, 9, 38, 0
5, 72176, Note_on_c, 9, 36, 0
5, 72200, Note_on_c, 9, 40, 32
5, 72200, Note_on_c, 9, 38, 63
5, 72226, Note_on_c, 9, 38, 0
5, 72227, Note_on_c, 9, 40, 0
5, 72240, Note_on_c, 9, 40, 23
5, 72240, Note_on_c, 9, 38, 47
5, 72289, Note_on_c, 9, 38, 0
5, 72297, Note_on_c, 9, 40, 0
5, 72320, Note_on_c, 9, 39, 57
5, 72353, Note_on_c, 9, 39, 0
5, 72360, Note_on_c, 9, 40, 23
5, 72360, Note_on_c, 9, 38, 44
5, 72461, Note_on_c, 9, 40, 0
5, 72464, Note_on_c, 9, 38, 0
5, 72480, Note_on_c, 9, 38, 45
5, 72480, Note_on_c, 9, 40, 30
5, 72550, Note_on_c, 9, 44, 25
5, 72560, Note_on_c, 9, 44, 0
5, 72571, Note_on_c, 9, 40, 0
5, 72579, Note_on_c, 9, 38, 0
5, 72600, Note_on_c, 9, 40, 28
5, 72600, Note_on_c, 9, 38, 46
5, 72663, Note_on_c, 9, 38, 0
5, 72665, Note_on_c, 9, 44, 35
5, 72668, Note_on_c, 9, 40, 0
5, 72680, Note_on_c, 9, 39, 57
5, 72686, Note_on_c, 9, 44, 0
5, 72713, Note_on_c, 9, 39, 0
5, 72720, Note_on_c, 9, 40, 26
5, 72720, Note_on_c, 9, 38, 43
5, 72792, Note_on_c, 9, 40, 0
5, 72797, Note_on_c, 9, 38, 0
5, 72800, Note_on_c, 9, 39, 60
5, 72830, Note_on_c, 9, 39, 0
5, 72839, Note_on_c, 9, 36, 14
5, 72840, Note_on_c, 9, 38, 45
5, 72840, Note_on_c, 9, 40, 32
5, 72864, Note_on_c, 9, 36, 0
5, 72934, Note_on_c, 9, 40, 0
5, 72945, Note_on_c, 9, 38, 0
5, 72960, Note_on_c, 9, 38, 46
5, 72960, Note_on_c, 9, 40, 35
5, 73031, Note_on_c, 9, 38, 0
5, 73037, Note_on_c, 9, 40, 0
5, 73040, Note_on_c, 9, 39, 63
5, 73073, Note_on_c, 9, 39, 0
5, 73073, Note_on_c, 9, 36, 15
5, 73080, Note_on_c, 9, 40, 32
5, 73080, Note_on_c, 9, 38, 43
5, 73091, Note_on_c, 9, 36, 0
5, 73169, Note_on_c, 9, 40, 0
5, 73176, Note_on_c, 9, 38, 0
5, 73200, Note_on_c, 9, 40, 32
5, 73200, Note_on_c, 9, 38, 50
5, 73287, Note_on_c, 9, 40, 0
5, 73293, Note_on_c, 9, 38, 0
5, 73320, Note_on_c, 9, 38, 51
5, 73320, Note_on_c, 9, 40, 30
5, 73393, Note_on_c, 9, 38, 0
5, 73398, Note_on_c, 9, 44, 39
5, 73399, Note_on_c, 9, 40, 0
5, 73400, Note_on_c, 9, 39, 59
5, 73415, Note_on_c, 9, 44, 0
5, 73436, Note_on_c, 9, 39, 0
5, 73440, Note_on_c, 9, 40, 31
5, 73440, Note_on_c, 9, 38, 38
5, 73498, Note_on_c, 9, 38, 0
5, 73498, Note_on_c, 9, 40, 0
5, 73520, Note_on_c, 9, 39, 65
5, 73558, Note_on_c, 9, 39, 0
5, 73560, Note_on_c, 9, 38, 38
5, 73560, Note_on_c, 9, 40, 23
5, 73567, Note_on_c, 9, 36, 14
5, 73583, Note_on_c, 9, 36, 0
5, 73645, Note_on_c, 9, 40, 0
5, 73654, Note_on_c, 9, 38, 0
5, 73680, Note_on_c, 9, 38, 49
5, 73680, Note_on_c, 9, 40, 31
5, 73749, Note_on_c, 9, 38, 0
5, 73751, Note_on_c, 9, 44, 29
5, 73756, Note_on_c, 9, 40, 0
5, 73760, Note_on_c, 9, 39, 52
5, 73780, Note_on_c, 9, 44, 0
5, 73782, Note_on_c, 9, 39, 0
5, 73798, Note_on_c, 9, 59, 50
5, 73800, Note_on_c, 9, 40, 25
5, 73800, Note_on_c, 9, 38, 39
5, 73806, Note_on_c, 9, 36, 25
5, 73821, Note_on_c, 9, 36, 0
5, 73843, Note_on_c, 9, 59, 0
5, 73854, Note_on_c, 9, 40, 0
5, 73855, Note_on_c, 9, 38, 0
5, 73880, Note_on_c, 9, 40, 32
5, 73880, Note_on_c, 9, 38, 54
5, 73949, Note_on_c, 9, 38, 0
5, 73956, Note_on_c, 9, 40, 0
5, 73960, Note_on_c, 9, 39, 60
5, 73985, Note_on_c, 9, 39, 0
5, 73992, Note_on_c, 9, 44, 45
5, 74000, Note_on_c, 9, 40, 43
5, 74000, Note_on_c, 9, 38, 50
5, 74014, Note_on_c, 9, 44, 0
5, 74019, Note_on_c, 9, 40, 0
5, 74022, Note_on_c, 9, 38, 0
5, 74038, Note_on_c, 9, 59, 51
5, 74040, Note_on_c, 9, 38, 63
5, 74040, Note_on_c, 9, 40, 33
5, 74044, Note_on_c, 9, 36, 17
5, 74061, Note_on_c, 9, 36, 0
5, 74073, Note_on_c, 9, 59, 0
5, 74093, Note_on_c, 9, 40, 0
5, 74098, Note_on_c, 9, 38, 0
5, 74120, Note_on_c, 9, 39, 54
5, 74158, Note_on_c, 9, 39, 0
5, 74160, Note_on_c, 9, 40, 30
5, 74160, Note_on_c, 9, 38, 48
5, 74220, Note_on_c, 9, 38, 0
5, 74226, Note_on_c, 9, 40, 0
5, 74233, Note_on_c, 9, 44, 36
5, 74240, Note_on_c, 9, 38, 62
5, 74240, Note_on_c, 9, 39, 59
5, 74249, Note_on_c, 9, 38, 0
5, 74254, Note_on_c, 9, 44, 0
5, 74276, Note_on_c, 9, 59, 47
5, 74280, Note_on_c, 9, 40, 30
5, 74280, Note_on_c, 9, 38, 50
5, 74288, Note_on_c, 9, 36, 13
5, 74293, Note_on_c, 9, 39, 0
5, 74304, Note_on_c, 9, 36, 0
5, 74309, Note_on_c, 9, 59, 0
5, 74335, Note_on_c, 9, 38, 0
5, 74340, Note_on_c, 9, 40, 0
5, 74400, Note_on_c, 9, 40, 24
5, 74400, Note_on_c, 9, 38, 54
5, 74466, Note_on_c, 9, 38, 0
5, 74471, Note_on_c, 9, 40, 0
5, 74480, Note_on_c, 9, 39, 59
5, 74482, Note_on_c, 9, 44, 32
5, 74496, Note_on_c, 9, 44, 0
5, 74520, Note_on_c, 9, 39, 0
5, 74520, Note_on_c, 9, 40, 26
5, 74520, Note_on_c, 9, 38, 36
5, 74524, Note_on_c, 9, 59, 55
5, 74524, Note_on_c, 9, 36, 20
5, 74540, Note_on_c, 9, 36, 0
5, 74556, Note_on_c, 9, 59, 0
5, 74599, Note_on_c, 9, 40, 0
5, 74606, Note_on_c, 9, 38, 0
5, 74640, Note_on_c, 9, 40, 28
5, 74640, Note_on_c, 9, 38, 48
5, 74713, Note_on_c, 9, 44, 45
5, 74726, Note_on_c, 9, 40, 0
5, 74727, Note_on_c, 9, 38, 0
5, 74734, Note_on_c, 9, 44, 0
5, 74760, Note_on_c, 9, 40, 25
5, 74760, Note_on_c, 9, 38, 45
5, 74760, Note_on_c, 9, 59, 53
5, 74768, Note_on_c, 9, 36, 18
5, 74774, Note_on_c, 9, 59, 0
5, 74782, Note_on_c, 9, 36, 0
5, 74853, Note_on_c, 9, 40, 0
5, 74859, Note_on_c, 9, 38, 0
5, 74880, Note_on_c, 9, 40, 28
5, 74880, Note_on_c, 9, 38, 42
5, 74970, Note_on_c, 9, 40, 0
5, 74976, Note_on_c, 9, 38, 0
5, 75000, Note_on_c, 9, 40, 27
5, 75000, Note_on_c, 9, 38, 47
5, 75051, Note_on_c, 9, 40, 0
5, 75056, Note_on_c, 9, 38, 0
5, 75080, Note_on_c, 9, 40, 37
5, 75080, Note_on_c, 9, 38, 60
5, 75098, Note_on_c, 9, 40, 0
5, 75102, Note_on_c, 9, 38, 0
5, 75120, Note_on_c, 9, 40, 21
5, 75120, Note_on_c, 9, 38, 46
5, 75170, Note_on_c, 9, 40, 0
5, 75173, Note_on_c, 9, 38, 0
5, 75200, Note_on_c, 9, 38, 61
5, 75200, Note_on_c, 9, 40, 32
5, 75200, Note_on_c, 9, 44, 36
5, 75216, Note_on_c, 9, 40, 0
5, 75217, Note_on_c, 9, 44, 0
5, 75224, Note_on_c, 9, 38, 0
5, 75240, Note_on_c, 9, 40, 25
5, 75240, Note_on_c, 9, 38, 51
5, 75247, Note_on_c, 9, 59, 48
5, 75249, Note_on_c, 9, 44, 33
5, 75259, Note_on_c, 9, 59, 0
5, 75262, Note_on_c, 9, 44, 0
5, 75328, Note_on_c, 9, 40, 0
5, 75337, Note_on_c, 9, 38, 0
5, 75360, Note_on_c, 9, 40, 31
5, 75360, Note_on_c, 9, 38, 44
5, 75365, Note_on_c, 9, 44, 22
5, 75371, Note_on_c, 9, 44, 44
5, 75372, Note_on_c, 9, 59, 79
5, 75394, Note_on_c, 9, 59, 0
5, 75396, Note_on_c, 9, 44, 0
5, 75408, Note_on_c, 9, 44, 0
5, 75426, Note_on_c, 9, 40, 0
5, 75435, Note_on_c, 9, 38, 0
5, 75440, Note_on_c, 9, 39, 67
5, 75463, Note_on_c, 9, 39, 0
5, 75480, Note_on_c, 9, 40, 28
5, 75480, Note_on_c, 9, 38, 47
5, 75488, Note_on_c, 9, 44, 19
5, 75526, Note_on_c, 9, 44, 0
5, 75540, Note_on_c, 9, 40, 0
5, 75544, Note_on_c, 9, 38, 0
5, 75560, Note_on_c, 9, 38, 57
5, 75560, Note_on_c, 9, 40, 37
5, 75570, Note_on_c, 9, 59, 57
5, 75574, Note_on_c, 9, 57, 33
5, 75577, Note_on_c, 9, 40, 0
5, 75579, Note_on_c, 9, 59, 0
5, 75582, Note_on_c, 9, 38, 0
5, 75585, Note_on_c, 9, 57, 0
5, 75600, Note_on_c, 9, 59, 31
5, 75600, Note_on_c, 9, 59, 0
5, 75607, Note_on_c, 9, 59, 41
5, 75668, Note_on_c, 9, 59, 0
5, 75794, Note_on_c, 9, 59, 42
5, 75809, Note_on_c, 9, 59, 0
5, 75843, Note_on_c, 9, 59, 56
5, 75908, Note_on_c, 9, 59, 0
5, 75955, Note_on_c, 9, 59, 50
5, 76004, Note_on_c, 9, 59, 0
5, 76077, Note_on_c, 9, 44, 22
5, 76078, Note_on_c, 9, 59, 39
5, 76127, Note_on_c, 9, 59, 0
5, 76128, Note_on_c, 9, 44, 0
5, 76293, Note_on_c, 9, 59, 27
5, 76307, Note_on_c, 9, 59, 0
5, 76330, Note_on_c, 9, 59, 37
5, 76401, Note_on_c, 9, 59, 0
5, 76443, Note_on_c, 9, 59, 43
5, 76443, Note_on_c, 9, 44, 16
5, 76470, Note_on_c, 9, 59, 0
5, 76491, Note_on_c, 9, 44, 0
5, 76513, Note_on_c, 9, 59, 40
5, 76523, Note_on_c, 9, 59, 0
5, 76565, Note_on_c, 9, 44, 18
5, 76598, Note_on_c, 9, 44, 0
5, 76784, Note_on_c, 9, 53, 43
5, 76796, Note_on_c, 9, 44, 20
5, 76815, Note_on_c, 9, 53, 0
5, 76852, Note_on_c, 9, 44, 0
5, 76873, Note_on_c, 9, 59, 38
5, 76875, Note_on_c, 9, 53, 24
5, 76896, Note_on_c, 9, 59, 0
5, 76905, Note_on_c, 9, 53, 0
5, 76956, Note_on_c, 9, 53, 40
5, 76984, Note_on_c, 9, 53, 0
5, 76999, Note_on_c, 9, 59, 46
5, 77015, Note_on_c, 9, 59, 0
5, 77044, Note_on_c, 9, 53, 37
5, 77045, Note_on_c, 9, 59, 45
5, 77080, Note_on_c, 9, 59, 0
5, 77091, Note_on_c, 9, 53, 0
5, 77158, Note_on_c, 9, 44, 18
5, 77161, Note_on_c, 9, 59, 35
5, 77165, Note_on_c, 9, 53, 27
5, 77191, Note_on_c, 9, 59, 0
5, 77218, Note_on_c, 9, 44, 0
5, 77257, Note_on_c, 9, 53, 0
5, 77280, Note_on_c, 9, 44, 14
5, 77345, Note_on_c, 9, 44, 0
5, 77360, Note_on_c, 9, 59, 19
5, 77362, Note_on_c, 9, 53, 29
5, 77383, Note_on_c, 9, 53, 0
5, 77383, Note_on_c, 9, 59, 0
5, 77522, Note_on_c, 9, 44, 24
5, 77598, Note_on_c, 9, 59, 28
5, 77609, Note_on_c, 9, 59, 0
5, 77615, Note_on_c, 9, 44, 0
5, 77642, Note_on_c, 9, 59, 45
5, 77645, Note_on_c, 9, 53, 36
5, 77702, Note_on_c, 9, 53, 0
5, 77702, Note_on_c, 9, 59, 0
5, 77837, Note_on_c, 9, 59, 47
5, 77841, Note_on_c, 9, 53, 34
5, 77864, Note_on_c, 9, 59, 0
5, 77865, Note_on_c, 9, 53, 0
5, 77948, Note_on_c, 9, 59, 24
5, 77957, Note_on_c, 9, 59, 0
5, 78004, Note_on_c, 9, 59, 39
5, 78005, Note_on_c, 9, 53, 36
5, 78049, Note_on_c, 9, 59, 0
5, 78102, Note_on_c, 9, 53, 0
5, 78199, Note_on_c, 9, 59, 36
5, 78211, Note_on_c, 9, 59, 0
5, 78236, Note_on_c, 9, 53, 27
5, 78240, Note_on_c, 9, 59, 24
5, 78241, Note_on_c, 9, 44, 24
5, 78273, Note_on_c, 9, 44, 0
5, 78274, Note_on_c, 9, 53, 0
5, 78288, Note_on_c, 9, 59, 0
5, 78308, Note_on_c, 9, 59, 52
5, 78311, Note_on_c, 9, 53, 43
5, 78369, Note_on_c, 9, 53, 0
5, 78376, Note_on_c, 9, 59, 0
5, 78435, Note_on_c, 9, 59, 16
5, 78450, Note_on_c, 9, 59, 0
5, 78483, Note_on_c, 9, 59, 36
5, 78485, Note_on_c, 9, 53, 28
5, 78528, Note_on_c, 9, 59, 0
5, 78553, Note_on_c, 9, 53, 0
5, 78609, Note_on_c, 9, 44, 18
5, 78641, Note_on_c, 9, 44, 0
5, 78792, Note_on_c, 9, 52, 34
5, 78817, Note_on_c, 9, 52, 0
5, 78841, Note_on_c, 9, 52, 30
5, 78881, Note_on_c, 9, 52, 0
5, 78965, Note_on_c, 9, 59, 26
5, 78967, Note_on_c, 9, 44, 17
5, 78988, Note_on_c, 9, 59, 0
5, 79007, Note_on_c, 9, 44, 0
5, 79032, Note_on_c, 9, 59, 60
5, 79036, Note_on_c, 9, 53, 56
5, 79073, Note_on_c, 9, 59, 0
5, 79077, Note_on_c, 9, 53, 0
5, 79082, Note_on_c, 9, 44, 17
5, 79090, Note_on_c, 9, 59, 54
5, 79094, Note_on_c, 9, 53, 48
5, 79114, Note_on_c, 9, 44, 0
5, 79138, Note_on_c, 9, 59, 0
5, 79144, Note_on_c, 9, 38, 21
5, 79148, Note_on_c, 9, 53, 0
5, 79168, Note_on_c, 9, 38, 0
5, 79192, Note_on_c, 9, 59, 19
5, 79206, Note_on_c, 9, 59, 0
5, 79275, Note_on_c, 9, 59, 40
5, 79281, Note_on_c, 9, 53, 39
5, 79315, Note_on_c, 9, 44, 23
5, 79316, Note_on_c, 9, 59, 0
5, 79325, Note_on_c, 9, 53, 0
5, 79338, Note_on_c, 9, 44, 0
5, 79387, Note_on_c, 9, 59, 31
5, 79400, Note_on_c, 9, 59, 0
5, 79429, Note_on_c, 9, 44, 22
5, 79444, Note_on_c, 9, 59, 49
5, 79447, Note_on_c, 9, 53, 40
5, 79456, Note_on_c, 9, 44, 0
5, 79494, Note_on_c, 9, 59, 0
5, 79510, Note_on_c, 9, 53, 0
5, 79560, Note_on_c, 9, 59, 26
5, 79570, Note_on_c, 9, 59, 0
5, 79633, Note_on_c, 9, 59, 31
5, 79638, Note_on_c, 9, 53, 25
5, 79663, Note_on_c, 9, 37, 35
5, 79669, Note_on_c, 9, 59, 0
5, 79685, Note_on_c, 9, 53, 0
5, 79691, Note_on_c, 9, 37, 0
5, 79758, Note_on_c, 9, 59, 24
5, 79768, Note_on_c, 9, 59, 0
5, 79803, Note_on_c, 9, 53, 27
5, 79805, Note_on_c, 9, 59, 24
5, 79827, Note_on_c, 9, 59, 0
5, 79834, Note_on_c, 9, 53, 0
5, 79876, Note_on_c, 9, 59, 30
5, 79888, Note_on_c, 9, 59, 0
5, 79921, Note_on_c, 9, 53, 28
5, 79922, Note_on_c, 9, 59, 24
5, 79958, Note_on_c, 9, 59, 0
5, 79963, Note_on_c, 9, 53, 0
5, 80038, Note_on_c, 9, 44, 22
5, 80041, Note_on_c, 9, 59, 26
5, 80050, Note_on_c, 9, 53, 12
5, 80069, Note_on_c, 9, 44, 0
5, 80074, Note_on_c, 9, 59, 0
5, 80094, Note_on_c, 9, 53, 0
5, 80160, Note_on_c, 9, 44, 18
5, 80187, Note_on_c, 9, 44, 0
5, 80226, Note_on_c, 9, 36, 11
5, 80233, Note_on_c, 9, 59, 29
5, 80246, Note_on_c, 9, 59, 0
5, 80248, Note_on_c, 9, 36, 0
5, 80272, Note_on_c, 9, 36, 22
5, 80278, Note_on_c, 9, 53, 24
5, 80282, Note_on_c, 9, 59, 23
5, 80312, Note_on_c, 9, 59, 0
5, 80322, Note_on_c, 9, 36, 0
5, 80325, Note_on_c, 9, 53, 0
5, 80395, Note_on_c, 9, 44, 16
5, 80402, Note_on_c, 9, 59, 23
5, 80403, Note_on_c, 9, 53, 25
5, 80431, Note_on_c, 9, 59, 0
5, 80434, Note_on_c, 9, 53, 0
5, 80436, Note_on_c, 9, 44, 0
5, 80600, Note_on_c, 9, 59, 26
5, 80612, Note_on_c, 9, 59, 0
5, 80646, Note_on_c, 9, 59, 28
5, 80649, Note_on_c, 9, 53, 29
5, 80687, Note_on_c, 9, 53, 0
5, 80687, Note_on_c, 9, 59, 0
5, 80835, Note_on_c, 9, 59, 25
5, 80849, Note_on_c, 9, 59, 0
5, 81079, Note_on_c, 9, 59, 21
5, 81086, Note_on_c, 9, 38, 22
5, 81091, Note_on_c, 9, 59, 0
5, 81096, Note_on_c, 9, 38, 0
5, 81114, Note_on_c, 9, 59, 30
5, 81165, Note_on_c, 9, 59, 0
5, 81198, Note_on_c, 9, 59, 58
5, 81199, Note_on_c, 9, 53, 46
5, 81200, Note_on_c, 9, 38, 40
5, 81221, Note_on_c, 9, 38, 0
5, 81242, Note_on_c, 9, 44, 20
5, 81247, Note_on_c, 9, 59, 0
5, 81248, Note_on_c, 9, 53, 0
5, 81276, Note_on_c, 9, 44, 0
5, 81318, Note_on_c, 9, 59, 36
5, 81321, Note_on_c, 9, 38, 16
5, 81328, Note_on_c, 9, 38, 0
5, 81329, Note_on_c, 9, 59, 0
5, 81366, Note_on_c, 9, 36, 15
5, 81375, Note_on_c, 9, 59, 59
5, 81376, Note_on_c, 9, 53, 45
5, 81386, Note_on_c, 9, 36, 0
5, 81427, Note_on_c, 9, 59, 0
5, 81428, Note_on_c, 9, 53, 0
5, 81487, Note_on_c, 9, 59, 30
5, 81497, Note_on_c, 9, 59, 0
5, 81556, Note_on_c, 9, 59, 44
5, 81559, Note_on_c, 9, 53, 36
5, 81592, Note_on_c, 9, 53, 0
5, 81592, Note_on_c, 9, 59, 0
5, 81930, Note_on_c, 9, 53, 22
5, 81945, Note_on_c, 9, 53, 0
5, 82010, Note_on_c, 9, 59, 26
5, 82020, Note_on_c, 9, 59, 0
5, 82040, Note_on_c, 9, 59, 30
5, 82056, Note_on_c, 9, 59, 0
5, 82078, Note_on_c, 9, 59, 44
5, 82082, Note_on_c, 9, 53, 40
5, 82105, Note_on_c, 9, 59, 0
5, 82122, Note_on_c, 9, 53, 0
5, 82200, Note_on_c, 9, 59, 24
5, 82204, Note_on_c, 9, 44, 24
5, 82215, Note_on_c, 9, 59, 0
5, 82233, Note_on_c, 9, 44, 0
5, 82280, Note_on_c, 9, 59, 32
5, 82284, Note_on_c, 9, 53, 32
5, 82308, Note_on_c, 9, 59, 0
5, 82309, Note_on_c, 9, 53, 0
5, 82519, Note_on_c, 9, 59, 23
5, 82529, Note_on_c, 9, 59, 0
5, 82558, Note_on_c, 9, 44, 16
5, 82615, Note_on_c, 9, 44, 0
5, 82635, Note_on_c, 9, 59, 32
5, 82644, Note_on_c, 9, 59, 0
5, 82677, Note_on_c, 9, 44, 20
5, 82683, Note_on_c, 9, 59, 26
5, 82695, Note_on_c, 9, 59, 0
5, 82708, Note_on_c, 9, 44, 0
5, 82752, Note_on_c, 9, 36, 20
5, 82759, Note_on_c, 9, 59, 32
5, 82762, Note_on_c, 9, 36, 0
5, 82771, Note_on_c, 9, 59, 0
5, 82804, Note_on_c, 9, 59, 34
5, 82825, Note_on_c, 9, 59, 0
5, 82922, Note_on_c, 9, 59, 33
5, 82953, Note_on_c, 9, 59, 0
5, 83044, Note_on_c, 9, 59, 28
5, 83065, Note_on_c, 9, 59, 0
5, 83120, Note_on_c, 9, 44, 24
5, 83141, Note_on_c, 9, 44, 0
5, 83157, Note_on_c, 9, 53, 28
5, 83160, Note_on_c, 9, 44, 24
5, 83161, Note_on_c, 9, 59, 26
5, 83184, Note_on_c, 9, 53, 0
5, 83186, Note_on_c, 9, 59, 0
5, 83192, Note_on_c, 9, 44, 0
5, 83234, Note_on_c, 9, 36, 29
5, 83246, Note_on_c, 9, 36, 0
5, 83283, Note_on_c, 9, 53, 28
5, 83284, Note_on_c, 9, 59, 40
5, 83311, Note_on_c, 9, 59, 0
5, 83323, Note_on_c, 9, 53, 0
5, 83404, Note_on_c, 9, 53, 36
5, 83406, Note_on_c, 9, 59, 39
5, 83425, Note_on_c, 9, 59, 0
5, 83444, Note_on_c, 9, 53, 0
5, 83473, Note_on_c, 9, 44, 30
5, 83488, Note_on_c, 9, 44, 0
5, 83643, Note_on_c, 9, 59, 29
5, 83643, Note_on_c, 9, 53, 27
5, 83644, Note_on_c, 9, 46, 28
5, 83704, Note_on_c, 9, 59, 0
5, 83722, Note_on_c, 9, 44, 14
5, 83726, Note_on_c, 9, 53, 0
5, 83731, Note_on_c, 9, 44, 0
5, 83732, Note_on_c, 9, 46, 0
5, 83832, Note_on_c, 9, 44, 27
5, 83834, Note_on_c, 9, 46, 28
5, 83836, Note_on_c, 9, 53, 31
5, 83839, Note_on_c, 9, 59, 30
5, 83841, Note_on_c, 9, 44, 0
5, 83868, Note_on_c, 9, 59, 0
5, 83884, Note_on_c, 9, 46, 0
5, 83889, Note_on_c, 9, 53, 0
5, 83952, Note_on_c, 9, 44, 29
5, 83958, Note_on_c, 9, 59, 38
5, 83964, Note_on_c, 9, 44, 0
5, 83968, Note_on_c, 9, 59, 0
5, 84010, Note_on_c, 9, 46, 23
5, 84010, Note_on_c, 9, 59, 45
5, 84011, Note_on_c, 9, 53, 30
5, 84066, Note_on_c, 9, 59, 0
5, 84067, Note_on_c, 9, 46, 0
5, 84071, Note_on_c, 9, 53, 0
5, 84076, Note_on_c, 9, 44, 35
5, 84091, Note_on_c, 9, 44, 0
5, 84129, Note_on_c, 9, 59, 22
5, 84140, Note_on_c, 9, 59, 0
5, 84190, Note_on_c, 9, 59, 34
5, 84192, Note_on_c, 9, 44, 40
5, 84194, Note_on_c, 9, 53, 28
5, 84209, Note_on_c, 9, 44, 0
5, 84224, Note_on_c, 9, 59, 0
5, 84226, Note_on_c, 9, 53, 0
5, 84239, Note_on_c, 9, 36, 24
5, 84260, Note_on_c, 9, 36, 0
5, 84354, Note_on_c, 9, 36, 20
5, 84360, Note_on_c, 9, 59, 32
5, 84362, Note_on_c, 9, 53, 28
5, 84389, Note_on_c, 9, 36, 0
5, 84400, Note_on_c, 9, 53, 0
5, 84401, Note_on_c, 9, 59, 0
5, 84715, Note_on_c, 9, 59, 36
5, 84718, Note_on_c, 9, 53, 24
5, 84792, Note_on_c, 9, 59, 0
5, 84793, Note_on_c, 9, 53, 0
5, 84839, Note_on_c, 9, 53, 23
5, 84842, Note_on_c, 9, 59, 24
5, 84891, Note_on_c, 9, 59, 0
5, 84900, Note_on_c, 9, 53, 0
5, 84914, Note_on_c, 9, 59, 35
5, 84930, Note_on_c, 9, 59, 0
5, 84963, Note_on_c, 9, 59, 37
5, 84964, Note_on_c, 9, 53, 28
5, 85006, Note_on_c, 9, 59, 0
5, 85020, Note_on_c, 9, 53, 0
5, 85072, Note_on_c, 9, 59, 29
5, 85081, Note_on_c, 9, 44, 26
5, 85084, Note_on_c, 9, 59, 0
5, 85103, Note_on_c, 9, 44, 0
5, 85158, Note_on_c, 9, 59, 42
5, 85160, Note_on_c, 9, 53, 38
5, 85189, Note_on_c, 9, 53, 0
5, 85191, Note_on_c, 9, 59, 0
5, 85272, Note_on_c, 9, 59, 28
5, 85286, Note_on_c, 9, 59, 0
5, 85334, Note_on_c, 9, 59, 40
5, 85339, Note_on_c, 9, 53, 40
5, 85375, Note_on_c, 9, 53, 0
5, 85377, Note_on_c, 9, 59, 0
5, 85443, Note_on_c, 9, 59, 21
5, 85448, Note_on_c, 9, 44, 20
5, 85450, Note_on_c, 9, 59, 0
5, 85469, Note_on_c, 9, 44, 0
5, 85512, Note_on_c, 9, 59, 44
5, 85518, Note_on_c, 9, 53, 21
5, 85530, Note_on_c, 9, 44, 23
5, 85538, Note_on_c, 9, 59, 0
5, 85543, Note_on_c, 9, 44, 0
5, 85553, Note_on_c, 9, 53, 0
5, 85631, Note_on_c, 9, 36, 15
5, 85635, Note_on_c, 9, 59, 26
5, 85641, Note_on_c, 9, 53, 20
5, 85649, Note_on_c, 9, 59, 0
5, 85653, Note_on_c, 9, 36, 0
5, 85664, Note_on_c, 9, 53, 0
5, 85679, Note_on_c, 9, 36, 20
5, 85686, Note_on_c, 9, 59, 36
5, 85691, Note_on_c, 9, 53, 28
5, 85734, Note_on_c, 9, 53, 0
5, 85735, Note_on_c, 9, 36, 0
5, 85737, Note_on_c, 9, 59, 0
5, 85762, Note_on_c, 9, 44, 22
5, 85777, Note_on_c, 9, 44, 0
5, 85804, Note_on_c, 9, 53, 38
5, 85805, Note_on_c, 9, 59, 28
5, 85855, Note_on_c, 9, 59, 0
5, 85862, Note_on_c, 9, 53, 0
5, 85876, Note_on_c, 9, 36, 26
5, 85896, Note_on_c, 9, 36, 0
5, 85919, Note_on_c, 9, 44, 22
5, 85947, Note_on_c, 9, 44, 0
5, 85988, Note_on_c, 9, 59, 40
5, 85993, Note_on_c, 9, 36, 19
5, 86001, Note_on_c, 9, 59, 0
5, 86010, Note_on_c, 9, 36, 0
5, 86038, Note_on_c, 9, 36, 27
5, 86041, Note_on_c, 9, 59, 44
5, 86042, Note_on_c, 9, 53, 36
5, 86065, Note_on_c, 9, 36, 0
5, 86083, Note_on_c, 9, 53, 0
5, 86095, Note_on_c, 9, 59, 0
5, 86120, Note_on_c, 9, 44, 18
5, 86143, Note_on_c, 9, 44, 0
5, 86169, Note_on_c, 9, 59, 21
5, 86180, Note_on_c, 9, 59, 0
5, 86233, Note_on_c, 9, 36, 25
5, 86239, Note_on_c, 9, 59, 46
5, 86239, Note_on_c, 9, 53, 37
5, 86251, Note_on_c, 9, 36, 0
5, 86252, Note_on_c, 9, 59, 0
5, 86258, Note_on_c, 9, 53, 0
5, 86284, Note_on_c, 9, 44, 19
5, 86304, Note_on_c, 9, 44, 0
5, 86353, Note_on_c, 9, 36, 25
5, 86370, Note_on_c, 9, 36, 0
5, 86402, Note_on_c, 9, 36, 24
5, 86416, Note_on_c, 9, 36, 0
5, 86482, Note_on_c, 9, 44, 22
5, 86498, Note_on_c, 9, 44, 0
5, 86526, Note_on_c, 9, 59, 36
5, 86535, Note_on_c, 9, 59, 0
5, 86599, Note_on_c, 9, 53, 51
5, 86600, Note_on_c, 9, 59, 65
5, 86614, Note_on_c, 9, 59, 0
5, 86617, Note_on_c, 9, 53, 0
5, 86710, Note_on_c, 9, 59, 44
5, 86719, Note_on_c, 9, 59, 0
5, 86778, Note_on_c, 9, 53, 48
5, 86779, Note_on_c, 9, 59, 65
5, 86796, Note_on_c, 9, 59, 0
5, 86804, Note_on_c, 9, 53, 0
5, 86951, Note_on_c, 9, 59, 28
5, 86955, Note_on_c, 9, 53, 23
5, 86962, Note_on_c, 9, 59, 0
5, 86968, Note_on_c, 9, 53, 0
5, 87003, Note_on_c, 9, 59, 27
5, 87004, Note_on_c, 9, 53, 28
5, 87022, Note_on_c, 9, 59, 0
5, 87028, Note_on_c, 9, 53, 0
5, 87060, Note_on_c, 9, 53, 32
5, 87061, Note_on_c, 9, 59, 32
5, 87088, Note_on_c, 9, 59, 0
5, 87098, Note_on_c, 9, 53, 0
5, 87117, Note_on_c, 9, 53, 30
5, 87119, Note_on_c, 9, 59, 42
5, 87144, Note_on_c, 9, 59, 0
5, 87146, Note_on_c, 9, 53, 0
5, 87174, Note_on_c, 9, 53, 35
5, 87177, Note_on_c, 9, 59, 36
5, 87198, Note_on_c, 9, 59, 0
5, 87200, Note_on_c, 9, 53, 0
5, 87236, Note_on_c, 9, 53, 55
5, 87237, Note_on_c, 9, 59, 63
5, 87237, Note_on_c, 9, 37, 20
5, 87272, Note_on_c, 9, 37, 0
5, 87299, Note_on_c, 9, 59, 0
5, 87309, Note_on_c, 9, 53, 0
5, 87357, Note_on_c, 9, 37, 19
5, 87364, Note_on_c, 9, 59, 48
5, 87364, Note_on_c, 9, 53, 44
5, 87385, Note_on_c, 9, 37, 0
5, 87418, Note_on_c, 9, 59, 0
5, 87426, Note_on_c, 9, 53, 0
5, 87670, Note_on_c, 9, 59, 36
5, 87674, Note_on_c, 9, 53, 17
5, 87687, Note_on_c, 9, 59, 0
5, 87698, Note_on_c, 9, 53, 0
5, 87724, Note_on_c, 9, 53, 32
5, 87728, Note_on_c, 9, 59, 30
5, 87759, Note_on_c, 9, 59, 0
5, 87761, Note_on_c, 9, 53, 0
5, 87784, Note_on_c, 9, 53, 60
5, 87785, Note_on_c, 9, 59, 60
5, 87819, Note_on_c, 9, 59, 0
5, 87827, Note_on_c, 9, 53, 0
5, 87843, Note_on_c, 9, 59, 66
5, 87844, Note_on_c, 9, 53, 65
5, 87903, Note_on_c, 9, 59, 0
5, 87907, Note_on_c, 9, 53, 0
5, 87958, Note_on_c, 9, 59, 38
5, 87959, Note_on_c, 9, 53, 40
5, 87962, Note_on_c, 9, 37, 16
5, 87984, Note_on_c, 9, 37, 0
5, 87993, Note_on_c, 9, 53, 0
5, 87999, Note_on_c, 9, 59, 0
5, 88074, Note_on_c, 9, 37, 20
5, 88080, Note_on_c, 9, 53, 40
5, 88081, Note_on_c, 9, 59, 40
5, 88101, Note_on_c, 9, 37, 0
5, 88112, Note_on_c, 9, 59, 0
5, 88120, Note_on_c, 9, 53, 0
5, 88152, Note_on_c, 9, 44, 31
5, 88170, Note_on_c, 9, 44, 0
5, 88233, Note_on_c, 9, 44, 23
5, 88257, Note_on_c, 9, 44, 0
5, 88321, Note_on_c, 9, 44, 24
5, 88341, Note_on_c, 9, 44, 0
5, 88389, Note_on_c, 9, 53, 39
5, 88389, Note_on_c, 9, 59, 45
5, 88398, Note_on_c, 9, 59, 0
5, 88400, Note_on_c, 9, 53, 0
5, 88514, Note_on_c, 9, 37, 13
5, 88523, Note_on_c, 9, 37, 0
5, 88553, Note_on_c, 9, 37, 22
5, 88561, Note_on_c, 9, 59, 46
5, 88561, Note_on_c, 9, 53, 38
5, 88578, Note_on_c, 9, 59, 0
5, 88584, Note_on_c, 9, 53, 0
5, 88608, Note_on_c, 9, 37, 0
5, 88674, Note_on_c, 9, 37, 24
5, 88700, Note_on_c, 9, 37, 0
5, 88754, Note_on_c, 9, 59, 38
5, 88755, Note_on_c, 9, 36, 19
5, 88769, Note_on_c, 9, 36, 0
5, 88773, Note_on_c, 9, 59, 0
5, 88801, Note_on_c, 9, 36, 22
5, 88804, Note_on_c, 9, 53, 35
5, 88807, Note_on_c, 9, 59, 49
5, 88831, Note_on_c, 9, 36, 0
5, 88839, Note_on_c, 9, 59, 0
5, 88846, Note_on_c, 9, 53, 0
5, 88990, Note_on_c, 9, 59, 43
5, 88992, Note_on_c, 9, 53, 37
5, 89003, Note_on_c, 9, 59, 0
5, 89004, Note_on_c, 9, 53, 0
5, 89039, Note_on_c, 9, 53, 37
5, 89040, Note_on_c, 9, 44, 22
5, 89044, Note_on_c, 9, 59, 45
5, 89066, Note_on_c, 9, 44, 0
5, 89070, Note_on_c, 9, 59, 0
5, 89072, Note_on_c, 9, 53, 0
5, 89163, Note_on_c, 9, 59, 52
5, 89164, Note_on_c, 9, 53, 40
5, 89184, Note_on_c, 9, 59, 0
5, 89192, Note_on_c, 9, 53, 0
5, 89359, Note_on_c, 9, 59, 28
5, 89377, Note_on_c, 9, 59, 0
5, 89397, Note_on_c, 9, 44, 21
5, 89401, Note_on_c, 9, 53, 28
5, 89404, Note_on_c, 9, 59, 32
5, 89417, Note_on_c, 9, 59, 0
5, 89426, Note_on_c, 9, 53, 0
5, 89447, Note_on_c, 9, 44, 0
5, 89482, Note_on_c, 9, 59, 52
5, 89484, Note_on_c, 9, 53, 42
5, 89497, Note_on_c, 9, 59, 0
5, 89505, Note_on_c, 9, 53, 0
5, 89514, Note_on_c, 9, 44, 23
5, 89541, Note_on_c, 9, 44, 0
5, 89575, Note_on_c, 9, 59, 23
5, 89588, Note_on_c, 9, 59, 0
5, 89591, Note_on_c, 9, 36, 22
5, 89603, Note_on_c, 9, 59, 40
5, 89607, Note_on_c, 9, 36, 0
5, 89613, Note_on_c, 9, 59, 0
5, 89637, Note_on_c, 9, 36, 26
5, 89645, Note_on_c, 9, 59, 58
5, 89647, Note_on_c, 9, 53, 44
5, 89682, Note_on_c, 9, 36, 0
5, 89694, Note_on_c, 9, 59, 0
5, 89697, Note_on_c, 9, 53, 0
5, 89758, Note_on_c, 9, 59, 35
5, 89761, Note_on_c, 9, 44, 26
5, 89768, Note_on_c, 9, 59, 0
5, 89795, Note_on_c, 9, 44, 0
5, 89797, Note_on_c, 9, 59, 24
5, 89807, Note_on_c, 9, 59, 0
5, 89831, Note_on_c, 9, 36, 37
5, 89834, Note_on_c, 9, 59, 59
5, 89837, Note_on_c, 9, 53, 47
5, 89853, Note_on_c, 9, 36, 0
5, 89884, Note_on_c, 9, 59, 0
5, 89889, Note_on_c, 9, 53, 0
5, 89927, Note_on_c, 9, 59, 36
5, 89941, Note_on_c, 9, 59, 0
5, 89953, Note_on_c, 9, 44, 22
5, 89960, Note_on_c, 9, 59, 39
5, 89973, Note_on_c, 9, 59, 0
5, 89977, Note_on_c, 9, 44, 0
5, 90003, Note_on_c, 9, 59, 51
5, 90006, Note_on_c, 9, 53, 48
5, 90011, Note_on_c, 9, 36, 18
5, 90038, Note_on_c, 9, 59, 0
5, 90044, Note_on_c, 9, 53, 0
5, 90055, Note_on_c, 9, 36, 0
5, 90167, Note_on_c, 9, 53, 40
5, 90177, Note_on_c, 9, 53, 0
5, 90203, Note_on_c, 9, 53, 35
5, 90221, Note_on_c, 9, 53, 0
5, 90244, Note_on_c, 9, 53, 42
5, 90245, Note_on_c, 9, 59, 46
5, 90275, Note_on_c, 9, 53, 0
5, 90285, Note_on_c, 9, 59, 0
5, 90360, Note_on_c, 9, 59, 42
5, 90362, Note_on_c, 9, 53, 32
5, 90383, Note_on_c, 9, 53, 0
5, 90386, Note_on_c, 9, 59, 0
5, 90473, Note_on_c, 9, 44, 32
5, 90479, Note_on_c, 9, 59, 40
5, 90504, Note_on_c, 9, 59, 0
5, 90506, Note_on_c, 9, 44, 0
5, 90593, Note_on_c, 9, 59, 39
5, 90606, Note_on_c, 9, 59, 0
5, 90674, Note_on_c, 9, 59, 40
5, 90685, Note_on_c, 9, 59, 0
5, 90733, Note_on_c, 9, 59, 36
5, 90734, Note_on_c, 9, 53, 26
5, 90757, Note_on_c, 9, 59, 0
5, 90760, Note_on_c, 9, 53, 0
5, 90836, Note_on_c, 9, 44, 30
5, 90846, Note_on_c, 9, 53, 29
5, 90849, Note_on_c, 9, 59, 33
5, 90868, Note_on_c, 9, 44, 0
5, 90871, Note_on_c, 9, 59, 0
5, 90877, Note_on_c, 9, 53, 0
5, 90952, Note_on_c, 9, 44, 28
5, 90958, Note_on_c, 9, 53, 34
5, 90962, Note_on_c, 9, 59, 35
5, 90979, Note_on_c, 9, 59, 0
5, 90981, Note_on_c, 9, 44, 0
5, 90990, Note_on_c, 9, 53, 0
5, 91195, Note_on_c, 9, 37, 33
5, 91196, Note_on_c, 9, 59, 45
5, 91197, Note_on_c, 9, 53, 24
5, 91197, Note_on_c, 9, 44, 26
5, 91217, Note_on_c, 9, 37, 0
5, 91226, Note_on_c, 9, 44, 0
5, 91231, Note_on_c, 9, 59, 0
5, 91239, Note_on_c, 9, 53, 0
5, 91282, Note_on_c, 9, 53, 44
5, 91286, Note_on_c, 9, 59, 43
5, 91318, Note_on_c, 9, 59, 0
5, 91328, Note_on_c, 9, 53, 0
5, 91372, Note_on_c, 9, 59, 45
5, 91381, Note_on_c, 9, 59, 0
5, 91393, Note_on_c, 9, 36, 27
5, 91415, Note_on_c, 9, 59, 40
5, 91416, Note_on_c, 9, 36, 0
5, 91425, Note_on_c, 9, 59, 0
5, 91432, Note_on_c, 9, 36, 15
5, 91452, Note_on_c, 9, 59, 56
5, 91453, Note_on_c, 9, 53, 49
5, 91476, Note_on_c, 9, 36, 0
5, 91505, Note_on_c, 9, 59, 0
5, 91507, Note_on_c, 9, 53, 0
5, 91558, Note_on_c, 9, 59, 36
5, 91567, Note_on_c, 9, 59, 0
5, 91636, Note_on_c, 9, 59, 44
5, 91641, Note_on_c, 9, 53, 42
5, 91667, Note_on_c, 9, 59, 0
5, 91670, Note_on_c, 9, 53, 0
5, 91923, Note_on_c, 9, 44, 35
5, 91924, Note_on_c, 9, 37, 26
5, 91973, Note_on_c, 9, 37, 0
5, 91981, Note_on_c, 9, 44, 0
5, 91999, Note_on_c, 9, 59, 44
5, 92007, Note_on_c, 9, 59, 0
5, 92044, Note_on_c, 9, 44, 32
5, 92045, Note_on_c, 9, 37, 25
5, 92046, Note_on_c, 9, 59, 68
5, 92047, Note_on_c, 9, 53, 52
5, 92072, Note_on_c, 9, 44, 0
5, 92084, Note_on_c, 9, 37, 0
5, 92107, Note_on_c, 9, 59, 0
5, 92113, Note_on_c, 9, 53, 0
5, 92116, Note_on_c, 9, 36, 61
5, 92141, Note_on_c, 9, 36, 0
5, 92155, Note_on_c, 9, 59, 43
5, 92163, Note_on_c, 9, 59, 0
5, 92165, Note_on_c, 9, 36, 35
5, 92204, Note_on_c, 9, 36, 0
5, 92239, Note_on_c, 9, 59, 67
5, 92241, Note_on_c, 9, 53, 57
5, 92272, Note_on_c, 9, 59, 0
5, 92278, Note_on_c, 9, 53, 0
5, 92285, Note_on_c, 9, 37, 23
5, 92287, Note_on_c, 9, 44, 25
5, 92321, Note_on_c, 9, 44, 0
5, 92326, Note_on_c, 9, 37, 0
5, 92362, Note_on_c, 9, 59, 36
5, 92372, Note_on_c, 9, 59, 0
5, 92417, Note_on_c, 9, 59, 64
5, 92419, Note_on_c, 9, 53, 58
5, 92475, Note_on_c, 9, 59, 0
5, 92488, Note_on_c, 9, 53, 0
5, 92528, Note_on_c, 9, 59, 44
5, 92536, Note_on_c, 9, 59, 0
5, 92602, Note_on_c, 9, 59, 69
5, 92603, Note_on_c, 9, 53, 64
5, 92662, Note_on_c, 9, 59, 0
5, 92679, Note_on_c, 9, 53, 0
5, 92720, Note_on_c, 9, 36, 41
5, 92726, Note_on_c, 9, 59, 32
5, 92730, Note_on_c, 9, 36, 0
5, 92736, Note_on_c, 9, 59, 0
5, 92773, Note_on_c, 9, 53, 44
5, 92775, Note_on_c, 9, 59, 51
5, 92800, Note_on_c, 9, 59, 0
5, 92800, Note_on_c, 9, 53, 0
5, 92842, Note_on_c, 9, 36, 32
5, 92853, Note_on_c, 9, 36, 0
5, 92882, Note_on_c, 9, 59, 38
5, 92883, Note_on_c, 9, 57, 38
5, 92884, Note_on_c, 9, 53, 40
5, 92897, Note_on_c, 9, 57, 0
5, 92902, Note_on_c, 9, 59, 0
5, 92909, Note_on_c, 9, 53, 0
5, 93004, Note_on_c, 9, 37, 31
5, 93010, Note_on_c, 9, 44, 25
5, 93031, Note_on_c, 9, 37, 0
5, 93035, Note_on_c, 9, 44, 0
5, 93124, Note_on_c, 9, 44, 37
5, 93125, Note_on_c, 9, 37, 33
5, 93151, Note_on_c, 9, 44, 0
5, 93152, Note_on_c, 9, 37, 0
5, 93188, Note_on_c, 9, 59, 40
5, 93199, Note_on_c, 9, 59, 0
5, 93236, Note_on_c, 9, 59, 37
5, 93261, Note_on_c, 9, 59, 0
5, 93362, Note_on_c, 9, 59, 38
5, 93364, Note_on_c, 9, 53, 32
5, 93378, Note_on_c, 9, 59, 0
5, 93390, Note_on_c, 9, 53, 0
5, 93482, Note_on_c, 9, 53, 36
5, 93485, Note_on_c, 9, 59, 39
5, 93490, Note_on_c, 9, 44, 33
5, 93507, Note_on_c, 9, 59, 0
5, 93510, Note_on_c, 9, 44, 0
5, 93510, Note_on_c, 9, 53, 0
5, 93726, Note_on_c, 9, 53, 26
5, 93727, Note_on_c, 9, 59, 28
5, 93727, Note_on_c, 9, 44, 31
5, 93730, Note_on_c, 9, 37, 34
5, 93753, Note_on_c, 9, 59, 0
5, 93755, Note_on_c, 9, 53, 0
5, 93762, Note_on_c, 9, 37, 0
5, 93768, Note_on_c, 9, 44, 0
5, 93794, Note_on_c, 9, 59, 42
5, 93798, Note_on_c, 9, 53, 32
5, 93808, Note_on_c, 9, 59, 0
5, 93815, Note_on_c, 9, 53, 0
5, 94032, Note_on_c, 9, 59, 41
5, 94043, Note_on_c, 9, 59, 0
5, 94077, Note_on_c, 9, 59, 39
5, 94078, Note_on_c, 9, 53, 25
5, 94083, Note_on_c, 9, 44, 28
5, 94086, Note_on_c, 9, 37, 32
5, 94101, Note_on_c, 9, 53, 0
5, 94104, Note_on_c, 9, 59, 0
5, 94113, Note_on_c, 9, 37, 0
5, 94118, Note_on_c, 9, 44, 0
5, 94196, Note_on_c, 9, 44, 35
5, 94200, Note_on_c, 9, 37, 34
5, 94234, Note_on_c, 9, 37, 0
5, 94249, Note_on_c, 9, 44, 0
5, 94270, Note_on_c, 9, 36, 39
5, 94284, Note_on_c, 9, 59, 35
5, 94287, Note_on_c, 9, 36, 0
5, 94287, Note_on_c, 9, 53, 28
5, 94296, Note_on_c, 9, 59, 0
5, 94301, Note_on_c, 9, 53, 0
5, 94320, Note_on_c, 9, 36, 24
5, 94329, Note_on_c, 9, 59, 41
5, 94331, Note_on_c, 9, 53, 39
5, 94340, Note_on_c, 9, 36, 0
5, 94373, Note_on_c, 9, 53, 0
5, 94384, Note_on_c, 9, 59, 0
5, 94446, Note_on_c, 9, 44, 23
5, 94447, Note_on_c, 9, 37, 34
5, 94449, Note_on_c, 9, 53, 32
5, 94449, Note_on_c, 9, 59, 29
5, 94475, Note_on_c, 9, 37, 0
5, 94493, Note_on_c, 9, 44, 0
5, 94496, Note_on_c, 9, 59, 0
5, 94499, Note_on_c, 9, 53, 0
5, 94637, Note_on_c, 9, 59, 20
5, 94653, Note_on_c, 9, 59, 0
5, 94684, Note_on_c, 9, 59, 40
5, 94691, Note_on_c, 9, 53, 28
5, 94727, Note_on_c, 9, 53, 0
5, 94729, Note_on_c, 9, 59, 0
5, 94805, Note_on_c, 9, 53, 26
5, 94807, Note_on_c, 9, 59, 35
5, 94809, Note_on_c, 9, 46, 33
5, 94835, Note_on_c, 9, 53, 0
5, 94838, Note_on_c, 9, 59, 0
5, 94844, Note_on_c, 9, 46, 0
5, 94999, Note_on_c, 9, 59, 22
5, 95026, Note_on_c, 9, 59, 0
5, 95046, Note_on_c, 9, 53, 32
5, 95047, Note_on_c, 9, 59, 34
5, 95097, Note_on_c, 9, 53, 0
5, 95104, Note_on_c, 9, 59, 0
5, 95159, Note_on_c, 9, 44, 29
5, 95162, Note_on_c, 9, 37, 36
5, 95188, Note_on_c, 9, 37, 0
5, 95207, Note_on_c, 9, 44, 0
5, 95248, Note_on_c, 9, 59, 32
5, 95250, Note_on_c, 9, 53, 28
5, 95262, Note_on_c, 9, 59, 0
5, 95265, Note_on_c, 9, 53, 0
5, 95277, Note_on_c, 9, 44, 30
5, 95281, Note_on_c, 9, 37, 35
5, 95326, Note_on_c, 9, 37, 0
5, 95331, Note_on_c, 9, 44, 0
5, 95354, Note_on_c, 9, 36, 35
5, 95369, Note_on_c, 9, 36, 0
5, 95414, Note_on_c, 9, 59, 32
5, 95418, Note_on_c, 9, 53, 24
5, 95433, Note_on_c, 9, 59, 0
5, 95452, Note_on_c, 9, 53, 0
5, 95596, Note_on_c, 9, 53, 35
5, 95597, Note_on_c, 9, 59, 28
5, 95598, Note_on_c, 9, 44, 35
5, 95601, Note_on_c, 9, 37, 37
5, 95610, Note_on_c, 9, 59, 0
5, 95614, Note_on_c, 9, 53, 0
5, 95622, Note_on_c, 9, 37, 0
5, 95623, Note_on_c, 9, 44, 0
5, 95710, Note_on_c, 9, 53, 20
5, 95721, Note_on_c, 9, 44, 42
5, 95723, Note_on_c, 9, 37, 48
5, 95731, Note_on_c, 9, 53, 0
5, 95748, Note_on_c, 9, 37, 0
5, 95757, Note_on_c, 9, 44, 0
5, 95760, Note_on_c, 9, 59, 37
5, 95762, Note_on_c, 9, 53, 28
5, 95784, Note_on_c, 9, 36, 30
5, 95805, Note_on_c, 9, 53, 0
5, 95817, Note_on_c, 9, 36, 0
5, 95823, Note_on_c, 9, 59, 0
5, 95880, Note_on_c, 9, 44, 35
5, 95884, Note_on_c, 9, 37, 30
5, 95906, Note_on_c, 9, 37, 0
5, 95911, Note_on_c, 9, 44, 0
5, 95962, Note_on_c, 9, 53, 40
5, 95964, Note_on_c, 9, 59, 35
5, 95990, Note_on_c, 9, 53, 0
5, 96001, Note_on_c, 9, 59, 0
5, 96084, Note_on_c, 9, 53, 13
5, 96103, Note_on_c, 9, 53, 0
5, 96132, Note_on_c, 9, 59, 25
5, 96132, Note_on_c, 9, 53, 36
5, 96171, Note_on_c, 9, 53, 0
5, 96185, Note_on_c, 9, 59, 0
5, 96244, Note_on_c, 9, 44, 25
5, 96247, Note_on_c, 9, 37, 33
5, 96274, Note_on_c, 9, 37, 0
5, 96291, Note_on_c, 9, 44, 0
5, 96320, Note_on_c, 9, 59, 27
5, 96341, Note_on_c, 9, 59, 0
5, 96369, Note_on_c, 9, 59, 31
5, 96395, Note_on_c, 9, 59, 0
5, 96488, Note_on_c, 9, 53, 27
5, 96490, Note_on_c, 9, 59, 24
5, 96509, Note_on_c, 9, 53, 0
5, 96511, Note_on_c, 9, 59, 0
5, 96600, Note_on_c, 9, 53, 37
5, 96604, Note_on_c, 9, 59, 26
5, 96610, Note_on_c, 9, 44, 21
5, 96631, Note_on_c, 9, 53, 0
5, 96634, Note_on_c, 9, 44, 0
5, 96635, Note_on_c, 9, 59, 0
5, 96722, Note_on_c, 9, 59, 26
5, 96723, Note_on_c, 9, 44, 23
5, 96726, Note_on_c, 9, 37, 25
5, 96740, Note_on_c, 9, 59, 0
5, 96750, Note_on_c, 9, 37, 0
5, 96800, Note_on_c, 9, 59, 36
5, 96800, Note_on_c, 9, 53, 37
5, 96803, Note_on_c, 9, 44, 0
5, 96815, Note_on_c, 9, 53, 0
5, 96825, Note_on_c, 9, 59, 0
5, 96926, Note_on_c, 9, 44, 42
5, 96941, Note_on_c, 9, 44, 0
5, 97029, Note_on_c, 9, 59, 30
5, 97041, Note_on_c, 9, 44, 35
5, 97050, Note_on_c, 9, 59, 0
5, 97060, Note_on_c, 9, 44, 0
5, 97074, Note_on_c, 9, 59, 24
5, 97082, Note_on_c, 9, 53, 20
5, 97097, Note_on_c, 9, 59, 0
5, 97098, Note_on_c, 9, 53, 0
5, 97152, Note_on_c, 9, 59, 27
5, 97152, Note_on_c, 9, 53, 28
5, 97160, Note_on_c, 9, 44, 35
5, 97173, Note_on_c, 9, 44, 0
5, 97180, Note_on_c, 9, 53, 0
5, 97182, Note_on_c, 9, 59, 0
5, 97205, Note_on_c, 9, 53, 29
5, 97207, Note_on_c, 9, 59, 29
5, 97232, Note_on_c, 9, 53, 0
5, 97242, Note_on_c, 9, 59, 0
5, 97280, Note_on_c, 9, 44, 32
5, 97290, Note_on_c, 9, 44, 0
5, 97385, Note_on_c, 9, 59, 42
5, 97395, Note_on_c, 9, 44, 31
5, 97403, Note_on_c, 9, 59, 0
5, 97407, Note_on_c, 9, 44, 0
5, 97436, Note_on_c, 9, 53, 24
5, 97437, Note_on_c, 9, 59, 23
5, 97469, Note_on_c, 9, 59, 0
5, 97469, Note_on_c, 9, 53, 0
5, 97505, Note_on_c, 9, 36, 33
5, 97520, Note_on_c, 9, 36, 0
5, 97553, Note_on_c, 9, 36, 30
5, 97566, Note_on_c, 9, 36, 0
5, 97572, Note_on_c, 9, 59, 24
5, 97589, Note_on_c, 9, 59, 0
5, 97642, Note_on_c, 9, 53, 39
5, 97645, Note_on_c, 9, 59, 26
5, 97671, Note_on_c, 9, 53, 0
5, 97672, Note_on_c, 9, 59, 0
5, 97678, Note_on_c, 9, 44, 36
5, 97697, Note_on_c, 9, 44, 0
5, 97757, Note_on_c, 9, 59, 28
5, 97773, Note_on_c, 9, 59, 0
5, 97814, Note_on_c, 9, 53, 36
5, 97814, Note_on_c, 9, 59, 27
5, 97840, Note_on_c, 9, 59, 0
5, 97842, Note_on_c, 9, 53, 0
5, 97922, Note_on_c, 9, 59, 32
5, 97946, Note_on_c, 9, 59, 0
5, 98005, Note_on_c, 9, 53, 37
5, 98005, Note_on_c, 9, 59, 38
5, 98029, Note_on_c, 9, 59, 0
5, 98029, Note_on_c, 9, 53, 0
5, 98040, Note_on_c, 9, 44, 36
5, 98048, Note_on_c, 9, 37, 27
5, 98068, Note_on_c, 9, 37, 0
5, 98071, Note_on_c, 9, 44, 0
5, 98119, Note_on_c, 9, 44, 39
5, 98120, Note_on_c, 9, 59, 29
5, 98123, Note_on_c, 9, 37, 39
5, 98132, Note_on_c, 9, 59, 0
5, 98150, Note_on_c, 9, 37, 0
5, 98157, Note_on_c, 9, 44, 0
5, 98173, Note_on_c, 9, 59, 35
5, 98174, Note_on_c, 9, 53, 42
5, 98209, Note_on_c, 9, 53, 0
5, 98214, Note_on_c, 9, 59, 0
5, 98235, Note_on_c, 9, 37, 37
5, 98245, Note_on_c, 9, 37, 0
5, 98282, Note_on_c, 9, 59, 30
5, 98292, Note_on_c, 9, 44, 40
5, 98296, Note_on_c, 9, 59, 0
5, 98301, Note_on_c, 9, 37, 34
5, 98323, Note_on_c, 9, 37, 0
5, 98343, Note_on_c, 9, 44, 0
5, 98360, Note_on_c, 9, 59, 30
5, 98363, Note_on_c, 9, 53, 34
5, 98386, Note_on_c, 9, 59, 0
5, 98386, Note_on_c, 9, 44, 32
5, 98389, Note_on_c, 9, 53, 0
5, 98405, Note_on_c, 9, 44, 0
5, 98462, Note_on_c, 9, 44, 36
5, 98496, Note_on_c, 9, 44, 0
5, 98609, Note_on_c, 9, 59, 44
5, 98621, Note_on_c, 9, 59, 0
5, 98653, Note_on_c, 9, 53, 28
5, 98657, Note_on_c, 9, 59, 32
5, 98704, Note_on_c, 9, 53, 0
5, 98706, Note_on_c, 9, 59, 0
5, 98751, Note_on_c, 9, 44, 32
5, 98777, Note_on_c, 9, 44, 0
5, 98833, Note_on_c, 9, 59, 35
5, 98843, Note_on_c, 9, 59, 0
5, 98877, Note_on_c, 9, 59, 41
5, 98879, Note_on_c, 9, 53, 37
5, 98946, Note_on_c, 9, 59, 0
5, 98955, Note_on_c, 9, 53, 0
5, 99072, Note_on_c, 9, 53, 30
5, 99076, Note_on_c, 9, 59, 24
5, 99097, Note_on_c, 9, 53, 0
5, 99098, Note_on_c, 9, 59, 0
5, 99112, Note_on_c, 9, 44, 29
5, 99138, Note_on_c, 9, 44, 0
5, 99187, Note_on_c, 9, 53, 23
5, 99205, Note_on_c, 9, 53, 0
5, 99225, Note_on_c, 9, 44, 29
5, 99234, Note_on_c, 9, 53, 29
5, 99245, Note_on_c, 9, 59, 17
5, 99252, Note_on_c, 9, 53, 0
5, 99254, Note_on_c, 9, 44, 0
5, 99264, Note_on_c, 9, 59, 0
5, 99309, Note_on_c, 9, 40, 38
5, 99317, Note_on_c, 9, 38, 22
5, 99329, Note_on_c, 9, 38, 0
5, 99343, Note_on_c, 9, 40, 0
5, 99367, Note_on_c, 9, 53, 19
5, 99370, Note_on_c, 9, 59, 16
5, 99400, Note_on_c, 9, 53, 0
5, 99420, Note_on_c, 9, 59, 0
5, 99490, Note_on_c, 9, 53, 24
5, 99495, Note_on_c, 9, 59, 25
5, 99512, Note_on_c, 9, 53, 0
5, 99514, Note_on_c, 9, 59, 0
5, 99607, Note_on_c, 9, 53, 20
5, 99613, Note_on_c, 9, 59, 24
5, 99627, Note_on_c, 9, 59, 0
5, 99628, Note_on_c, 9, 53, 0
5, 99671, Note_on_c, 9, 44, 33
5, 99676, Note_on_c, 9, 38, 30
5, 99685, Note_on_c, 9, 40, 20
5, 99687, Note_on_c, 9, 38, 0
5, 99695, Note_on_c, 9, 44, 0
5, 99698, Note_on_c, 9, 40, 0
5, 99719, Note_on_c, 9, 44, 23
5, 99727, Note_on_c, 9, 53, 24
5, 99730, Note_on_c, 9, 59, 26
5, 99743, Note_on_c, 9, 53, 0
5, 99746, Note_on_c, 9, 59, 0
5, 99763, Note_on_c, 9, 44, 0
5, 99796, Note_on_c, 9, 40, 28
5, 99802, Note_on_c, 9, 38, 24
5, 99812, Note_on_c, 9, 38, 0
5, 99820, Note_on_c, 9, 40, 0
5, 99841, Note_on_c, 9, 53, 17
5, 99844, Note_on_c, 9, 59, 24
5, 99870, Note_on_c, 9, 59, 0
5, 99871, Note_on_c, 9, 53, 0
5, 99908, Note_on_c, 9, 38, 48
5, 99929, Note_on_c, 9, 38, 0
5, 99950, Note_on_c, 9, 53, 20
5, 99954, Note_on_c, 9, 59, 21
5, 99954, Note_on_c, 9, 44, 30
5, 99969, Note_on_c, 9, 53, 0
5, 99970, Note_on_c, 9, 59, 0
5, 99999, Note_on_c, 9, 44, 0
5, 100037, Note_on_c, 9, 40, 27
5, 100045, Note_on_c, 9, 59, 17
5, 100050, Note_on_c, 9, 40, 0
5, 100055, Note_on_c, 9, 59, 0
5, 100080, Note_on_c, 9, 53, 31
5, 100082, Note_on_c, 9, 59, 28
5, 100085, Note_on_c, 9, 40, 20
5, 100095, Note_on_c, 9, 53, 0
5, 100097, Note_on_c, 9, 59, 0
5, 100102, Note_on_c, 9, 40, 0
5, 100200, Note_on_c, 9, 44, 21
5, 100203, Note_on_c, 9, 59, 26
5, 100207, Note_on_c, 9, 53, 13
5, 100231, Note_on_c, 9, 59, 0
5, 100240, Note_on_c, 9, 53, 0
5, 100245, Note_on_c, 9, 44, 0
5, 100316, Note_on_c, 9, 53, 25
5, 100322, Note_on_c, 9, 59, 23
5, 100351, Note_on_c, 9, 59, 0
5, 100356, Note_on_c, 9, 53, 0
5, 100391, Note_on_c, 9, 40, 34
5, 100399, Note_on_c, 9, 38, 20
5, 100405, Note_on_c, 9, 40, 0
5, 100411, Note_on_c, 9, 38, 0
5, 100440, Note_on_c, 9, 53, 15
5, 100441, Note_on_c, 9, 59, 22
5, 100461, Note_on_c, 9, 59, 0
5, 100476, Note_on_c, 9, 53, 0
5, 100511, Note_on_c, 9, 40, 20
5, 100520, Note_on_c, 9, 40, 0
5, 100561, Note_on_c, 9, 44, 33
5, 100569, Note_on_c, 9, 59, 24
5, 100578, Note_on_c, 9, 53, 6
5, 100583, Note_on_c, 9, 44, 0
5, 100611, Note_on_c, 9, 59, 0
5, 100616, Note_on_c, 9, 53, 0
5, 100643, Note_on_c, 9, 40, 20
5, 100651, Note_on_c, 9, 40, 0
5, 100683, Note_on_c, 9, 53, 32
5, 100685, Note_on_c, 9, 46, 29
5, 100687, Note_on_c, 9, 59, 30
5, 100704, Note_on_c, 9, 46, 0
5, 100731, Note_on_c, 9, 53, 0
5, 100736, Note_on_c, 9, 59, 0
5, 100758, Note_on_c, 9, 57, 42
5, 100771, Note_on_c, 9, 57, 0
5, 100800, Note_on_c, 9, 38, 71
5, 100800, Note_on_c, 9, 40, 49
5, 100871, Note_on_c, 9, 40, 0
5, 100874, Note_on_c, 9, 38, 0
5, 100920, Note_on_c, 9, 38, 66
5, 100920, Note_on_c, 9, 40, 35
5, 100993, Note_on_c, 9, 38, 0
5, 100998, Note_on_c, 9, 40, 0
5, 101040, Note_on_c, 9, 40, 34
5, 101040, Note_on_c, 9, 38, 59
5, 101105, Note_on_c, 9, 38, 0
5, 101120, Note_on_c, 9, 39, 70
5, 101127, Note_on_c, 9, 40, 0
5, 101132, Note_on_c, 9, 36, 12
5, 101143, Note_on_c, 9, 36, 0
5, 101154, Note_on_c, 9, 39, 0
5, 101160, Note_on_c, 9, 38, 53
5, 101160, Note_on_c, 9, 40, 41
5, 101171, Note_on_c, 9, 36, 16
5, 101194, Note_on_c, 9, 36, 0
5, 101264, Note_on_c, 9, 40, 0
5, 101272, Note_on_c, 9, 38, 0
5, 101280, Note_on_c, 9, 40, 32
5, 101280, Note_on_c, 9, 38, 59
5, 101373, Note_on_c, 9, 40, 0
5, 101383, Note_on_c, 9, 38, 0
5, 101400, Note_on_c, 9, 40, 30
5, 101400, Note_on_c, 9, 38, 57
5, 101407, Note_on_c, 9, 36, 20
5, 101428, Note_on_c, 9, 36, 0
5, 101490, Note_on_c, 9, 40, 0
5, 101497, Note_on_c, 9, 38, 0
5, 101520, Note_on_c, 9, 40, 35
5, 101520, Note_on_c, 9, 38, 46
5, 101597, Note_on_c, 9, 38, 0
5, 101600, Note_on_c, 9, 39, 65
5, 101603, Note_on_c, 9, 40, 0
5, 101632, Note_on_c, 9, 39, 0
5, 101640, Note_on_c, 9, 40, 30
5, 101640, Note_on_c, 9, 38, 24
5, 101699, Note_on_c, 9, 40, 0
5, 101720, Note_on_c, 9, 38, 0
5, 101720, Note_on_c, 9, 39, 81
5, 101720, Note_on_c, 9, 40, 28
5, 101728, Note_on_c, 9, 40, 0
5, 101759, Note_on_c, 9, 39, 0
5, 101760, Note_on_c, 9, 40, 37
5, 101760, Note_on_c, 9, 38, 48
5, 101820, Note_on_c, 9, 40, 0
5, 101825, Note_on_c, 9, 38, 0
5, 101840, Note_on_c, 9, 40, 35
5, 101840, Note_on_c, 9, 38, 64
5, 101854, Note_on_c, 9, 40, 0
5, 101859, Note_on_c, 9, 38, 0
5, 101880, Note_on_c, 9, 40, 23
5, 101880, Note_on_c, 9, 38, 51
5, 101974, Note_on_c, 9, 40, 0
5, 101976, Note_on_c, 9, 38, 0
5, 102000, Note_on_c, 9, 40, 32
5, 102000, Note_on_c, 9, 38, 47
5, 102006, Note_on_c, 9, 44, 39
5, 102023, Note_on_c, 9, 44, 0
5, 102068, Note_on_c, 9, 38, 0
5, 102080, Note_on_c, 9, 40, 0
5, 102080, Note_on_c, 9, 39, 72
5, 102108, Note_on_c, 9, 39, 0
5, 102120, Note_on_c, 9, 40, 26
5, 102120, Note_on_c, 9, 38, 38
5, 102123, Note_on_c, 9, 46, 25
5, 102146, Note_on_c, 9, 46, 0
5, 102168, Note_on_c, 9, 40, 0
5, 102171, Note_on_c, 9, 38, 0
5, 102200, Note_on_c, 9, 40, 23
5, 102200, Note_on_c, 9, 38, 48
5, 102215, Note_on_c, 9, 40, 0
5, 102216, Note_on_c, 9, 38, 0
5, 102240, Note_on_c, 9, 40, 25
5, 102240, Note_on_c, 9, 38, 40
5, 102335, Note_on_c, 9, 40, 0
5, 102343, Note_on_c, 9, 38, 0
5, 102353, Note_on_c, 9, 44, 33
5, 102360, Note_on_c, 9, 38, 40
5, 102360, Note_on_c, 9, 40, 26
5, 102373, Note_on_c, 9, 44, 0
5, 102444, Note_on_c, 9, 40, 0
5, 102453, Note_on_c, 9, 38, 0
5, 102480, Note_on_c, 9, 40, 21
5, 102480, Note_on_c, 9, 38, 42
5, 102544, Note_on_c, 9, 38, 0
5, 102556, Note_on_c, 9, 40, 0
5, 102560, Note_on_c, 9, 39, 55
5, 102592, Note_on_c, 9, 39, 0
5, 102600, Note_on_c, 9, 40, 25
5, 102600, Note_on_c, 9, 38, 39
5, 102652, Note_on_c, 9, 40, 0
5, 102661, Note_on_c, 9, 38, 0
5, 102680, Note_on_c, 9, 39, 64
5, 102713, Note_on_c, 9, 39, 0
5, 102720, Note_on_c, 9, 40, 20
5, 102720, Note_on_c, 9, 38, 43
5, 102723, Note_on_c, 9, 44, 28
5, 102739, Note_on_c, 9, 44, 0
5, 102805, Note_on_c, 9, 38, 0
5, 102813, Note_on_c, 9, 40, 0
5, 102838, Note_on_c, 9, 44, 34
5, 102840, Note_on_c, 9, 38, 34
5, 102840, Note_on_c, 9, 40, 21
5, 102866, Note_on_c, 9, 44, 0
5, 102933, Note_on_c, 9, 40, 0
5, 102939, Note_on_c, 9, 38, 0
5, 102960, Note_on_c, 9, 38, 39
5, 102960, Note_on_c, 9, 40, 23
5, 103044, Note_on_c, 9, 40, 0
5, 103051, Note_on_c, 9, 38, 0
5, 103080, Note_on_c, 9, 38, 38
5, 103080, Note_on_c, 9, 40, 28
5, 103111, Note_on_c, 9, 38, 0
5, 103113, Note_on_c, 9, 40, 0
5, 103120, Note_on_c, 9, 39, 59
5, 103160, Note_on_c, 9, 39, 0
5, 103160, Note_on_c, 9, 38, 63
5, 103160, Note_on_c, 9, 40, 24
5, 103169, Note_on_c, 9, 40, 0
5, 103180, Note_on_c, 9, 38, 0
5, 103200, Note_on_c, 9, 40, 25
5, 103200, Note_on_c, 9, 38, 52
5, 103273, Note_on_c, 9, 40, 0
5, 103280, Note_on_c, 9, 38, 38
5, 103280, Note_on_c, 9, 40, 22
5, 103281, Note_on_c, 9, 38, 0
5, 103289, Note_on_c, 9, 40, 0
5, 103298, Note_on_c, 9, 38, 0
5, 103320, Note_on_c, 9, 38, 38
5, 103320, Note_on_c, 9, 40, 30
5, 103386, Note_on_c, 9, 40, 0
5, 103391, Note_on_c, 9, 38, 0
5, 103400, Note_on_c, 9, 39, 45
5, 103435, Note_on_c, 9, 39, 0
5, 103440, Note_on_c, 9, 40, 27
5, 103440, Note_on_c, 9, 38, 39
5, 103529, Note_on_c, 9, 40, 0
5, 103539, Note_on_c, 9, 38, 0
5, 103560, Note_on_c, 9, 38, 36
5, 103560, Note_on_c, 9, 40, 23
5, 103644, Note_on_c, 9, 40, 0
5, 103652, Note_on_c, 9, 38, 0
5, 103680, Note_on_c, 9, 38, 36
5, 103680, Note_on_c, 9, 40, 28
5, 103740, Note_on_c, 9, 38, 0
5, 103754, Note_on_c, 9, 40, 0
5, 103760, Note_on_c, 9, 39, 52
5, 103783, Note_on_c, 9, 39, 0
5, 103800, Note_on_c, 9, 38, 38
5, 103800, Note_on_c, 9, 40, 15
5, 103814, Note_on_c, 9, 44, 51
5, 103831, Note_on_c, 9, 44, 0
5, 103852, Note_on_c, 9, 40, 0
5, 103856, Note_on_c, 9, 38, 0
5, 103880, Note_on_c, 9, 39, 58
5, 103912, Note_on_c, 9, 39, 0
5, 103920, Note_on_c, 9, 40, 32
5, 103920, Note_on_c, 9, 38, 36
5, 103936, Note_on_c, 9, 44, 45
5, 103959, Note_on_c, 9, 44, 0
5, 104021, Note_on_c, 9, 40, 0
5, 104022, Note_on_c, 9, 38, 0
5, 104040, Note_on_c, 9, 38, 37
5, 104040, Note_on_c, 9, 40, 28
5, 104130, Note_on_c, 9, 40, 0
5, 104143, Note_on_c, 9, 38, 0
5, 104160, Note_on_c, 9, 40, 27
5, 104160, Note_on_c, 9, 38, 45
5, 104174, Note_on_c, 9, 44, 37
5, 104198, Note_on_c, 9, 44, 0
5, 104245, Note_on_c, 9, 40, 0
5, 104253, Note_on_c, 9, 38, 0
5, 104280, Note_on_c, 9, 38, 44
5, 104280, Note_on_c, 9, 40, 29
5, 104291, Note_on_c, 9, 46, 17
5, 104316, Note_on_c, 9, 46, 0
5, 104345, Note_on_c, 9, 38, 0
5, 104354, Note_on_c, 9, 40, 0
5, 104360, Note_on_c, 9, 39, 57
5, 104388, Note_on_c, 9, 39, 0
5, 104400, Note_on_c, 9, 40, 23
5, 104400, Note_on_c, 9, 38, 42
5, 104451, Note_on_c, 9, 40, 0
5, 104457, Note_on_c, 9, 38, 0
5, 104480, Note_on_c, 9, 39, 60
5, 104509, Note_on_c, 9, 39, 0
5, 104520, Note_on_c, 9, 40, 33
5, 104520, Note_on_c, 9, 38, 26
5, 104529, Note_on_c, 9, 44, 25
5, 104549, Note_on_c, 9, 44, 0
5, 104617, Note_on_c, 9, 40, 0
5, 104623, Note_on_c, 9, 38, 0
5, 104640, Note_on_c, 9, 38, 44
5, 104640, Note_on_c, 9, 40, 25
5, 104728, Note_on_c, 9, 40, 0
5, 104733, Note_on_c, 9, 38, 0
5, 104760, Note_on_c, 9, 38, 46
5, 104760, Note_on_c, 9, 40, 30
5, 104798, Note_on_c, 9, 38, 0
5, 104799, Note_on_c, 9, 40, 0
5, 104800, Note_on_c, 9, 39, 52
5, 104823, Note_on_c, 9, 39, 0
5, 104840, Note_on_c, 9, 39, 46
5, 104875, Note_on_c, 9, 39, 0
5, 104880, Note_on_c, 9, 38, 37
5, 104880, Note_on_c, 9, 40, 30
5, 104901, Note_on_c, 9, 44, 33
5, 104921, Note_on_c, 9, 44, 0
5, 104953, Note_on_c, 9, 38, 0
5, 104960, Note_on_c, 9, 40, 0
5, 104960, Note_on_c, 9, 39, 67
5, 104994, Note_on_c, 9, 39, 0
5, 105000, Note_on_c, 9, 38, 52
5, 105000, Note_on_c, 9, 40, 9
5, 105049, Note_on_c, 9, 40, 0
5, 105056, Note_on_c, 9, 38, 0
5, 105080, Note_on_c, 9, 39, 55
5, 105114, Note_on_c, 9, 39, 0
5, 105120, Note_on_c, 9, 40, 32
5, 105120, Note_on_c, 9, 38, 37
5, 105167, Note_on_c, 9, 40, 0
5, 105169, Note_on_c, 9, 38, 0
5, 105200, Note_on_c, 9, 38, 49
5, 105200, Note_on_c, 9, 40, 34
5, 105217, Note_on_c, 9, 40, 0
5, 105225, Note_on_c, 9, 38, 0
5, 105240, Note_on_c, 9, 40, 29
5, 105240, Note_on_c, 9, 38, 49
5, 105256, Note_on_c, 9, 44, 25
5, 105278, Note_on_c, 9, 44, 0
5, 105306, Note_on_c, 9, 40, 0
5, 105309, Note_on_c, 9, 38, 0
5, 105320, Note_on_c, 9, 39, 55
5, 105357, Note_on_c, 9, 39, 0
5, 105360, Note_on_c, 9, 38, 40
5, 105360, Note_on_c, 9, 40, 32
5, 105401, Note_on_c, 9, 40, 0
5, 105406, Note_on_c, 9, 38, 0
5, 105440, Note_on_c, 9, 38, 61
5, 105440, Note_on_c, 9, 40, 33
5, 105463, Note_on_c, 9, 40, 0
5, 105464, Note_on_c, 9, 38, 0
5, 105480, Note_on_c, 9, 40, 29
5, 105480, Note_on_c, 9, 38, 47
5, 105484, Note_on_c, 9, 36, 26
5, 105520, Note_on_c, 9, 36, 0
5, 105537, Note_on_c, 9, 38, 0
5, 105539, Note_on_c, 9, 40, 0
5, 105560, Note_on_c, 9, 39, 60
5, 105599, Note_on_c, 9, 39, 0
5, 105600, Note_on_c, 9, 40, 30
5, 105600, Note_on_c, 9, 38, 43
5, 105644, Note_on_c, 9, 40, 0
5, 105645, Note_on_c, 9, 38, 0
5, 105678, Note_on_c, 9, 44, 28
5, 105680, Note_on_c, 9, 40, 32
5, 105680, Note_on_c, 9, 38, 63
5, 105696, Note_on_c, 9, 44, 0
5, 105706, Note_on_c, 9, 38, 0
5, 105707, Note_on_c, 9, 40, 0
5, 105720, Note_on_c, 9, 40, 23
5, 105720, Note_on_c, 9, 38, 47
5, 105728, Note_on_c, 9, 36, 21
5, 105753, Note_on_c, 9, 36, 0
5, 105769, Note_on_c, 9, 38, 0
5, 105777, Note_on_c, 9, 40, 0
5, 105800, Note_on_c, 9, 39, 57
5, 105833, Note_on_c, 9, 39, 0
5, 105840, Note_on_c, 9, 40, 23
5, 105840, Note_on_c, 9, 38, 44
5, 105941, Note_on_c, 9, 40, 0
5, 105944, Note_on_c, 9, 38, 0
5, 105960, Note_on_c, 9, 38, 45
5, 105960, Note_on_c, 9, 40, 30
5, 106051, Note_on_c, 9, 40, 0
5, 106059, Note_on_c, 9, 38, 0
5, 106080, Note_on_c, 9, 40, 28
5, 106080, Note_on_c, 9, 38, 46
5, 106143, Note_on_c, 9, 38, 0
5, 106148, Note_on_c, 9, 40, 0
5, 106160, Note_on_c, 9, 39, 57
5, 106193, Note_on_c, 9, 39, 0
5, 106200, Note_on_c, 9, 40, 26
5, 106200, Note_on_c, 9, 38, 43
5, 106272, Note_on_c, 9, 40, 0
5, 106277, Note_on_c, 9, 38, 0
5, 106280, Note_on_c, 9, 39, 60
5, 106310, Note_on_c, 9, 39, 0
5, 106319, Note_on_c, 9, 44, 36
5, 106320, Note_on_c, 9, 38, 45
5, 106320, Note_on_c, 9, 40, 32
5, 106357, Note_on_c, 9, 44, 0
5, 106414, Note_on_c, 9, 40, 0
5, 106425, Note_on_c, 9, 38, 0
5, 106440, Note_on_c, 9, 38, 46
5, 106440, Note_on_c, 9, 40, 35
5, 106511, Note_on_c, 9, 38, 0
5, 106517, Note_on_c, 9, 40, 0
5, 106520, Note_on_c, 9, 39, 63
5, 106553, Note_on_c, 9, 39, 0
5, 106560, Note_on_c, 9, 40, 32
5, 106560, Note_on_c, 9, 38, 43
5, 106649, Note_on_c, 9, 40, 0
5, 106656, Note_on_c, 9, 38, 0
5, 106680, Note_on_c, 9, 40, 32
5, 106680, Note_on_c, 9, 38, 50
5, 106686, Note_on_c, 9, 44, 32
5, 106711, Note_on_c, 9, 44, 0
5, 106767, Note_on_c, 9, 40, 0
5, 106773, Note_on_c, 9, 38, 0
5, 106800, Note_on_c, 9, 38, 51
5, 106800, Note_on_c, 9, 40, 30
5, 106804, Note_on_c, 9, 44, 34
5, 106843, Note_on_c, 9, 44, 0
5, 106873, Note_on_c, 9, 38, 0
5, 106879, Note_on_c, 9, 40, 0
5, 106880, Note_on_c, 9, 39, 59
5, 106916, Note_on_c, 9, 39, 0
5, 106920, Note_on_c, 9, 40, 31
5, 106920, Note_on_c, 9, 38, 38
5, 106978, Note_on_c, 9, 38, 0
5, 106978, Note_on_c, 9, 40, 0
5, 107000, Note_on_c, 9, 39, 65
5, 107038, Note_on_c, 9, 39, 0
5, 107040, Note_on_c, 9, 38, 38
5, 107040, Note_on_c, 9, 40, 23
5, 107051, Note_on_c, 9, 44, 44
5, 107079, Note_on_c, 9, 44, 0
5, 107125, Note_on_c, 9, 40, 0
5, 107134, Note_on_c, 9, 38, 0
5, 107160, Note_on_c, 9, 38, 49
5, 107160, Note_on_c, 9, 40, 31
5, 107229, Note_on_c, 9, 38, 0
5, 107236, Note_on_c, 9, 40, 0
5, 107240, Note_on_c, 9, 39, 52
5, 107262, Note_on_c, 9, 39, 0
5, 107280, Note_on_c, 9, 40, 25
5, 107280, Note_on_c, 9, 38, 39
5, 107334, Note_on_c, 9, 40, 0
5, 107335, Note_on_c, 9, 38, 0
5, 107360, Note_on_c, 9, 40, 32
5, 107360, Note_on_c, 9, 38, 54
5, 107403, Note_on_c, 9, 44, 34
5, 107410, Note_on_c, 9, 59, 43
5, 107425, Note_on_c, 9, 59, 0
5, 107429, Note_on_c, 9, 38, 0
5, 107436, Note_on_c, 9, 40, 0
5, 107440, Note_on_c, 9, 39, 60
5, 107441, Note_on_c, 9, 44, 0
5, 107465, Note_on_c, 9, 39, 0
5, 107480, Note_on_c, 9, 40, 43
5, 107480, Note_on_c, 9, 38, 50
5, 107499, Note_on_c, 9, 40, 0
5, 107502, Note_on_c, 9, 38, 0
5, 107520, Note_on_c, 9, 38, 63
5, 107520, Note_on_c, 9, 40, 33
5, 107573, Note_on_c, 9, 40, 0
5, 107578, Note_on_c, 9, 38, 0
5, 107600, Note_on_c, 9, 39, 54
5, 107638, Note_on_c, 9, 39, 0
5, 107640, Note_on_c, 9, 40, 30
5, 107640, Note_on_c, 9, 38, 48
5, 107700, Note_on_c, 9, 38, 0
5, 107706, Note_on_c, 9, 40, 0
5, 107720, Note_on_c, 9, 38, 62
5, 107720, Note_on_c, 9, 39, 59
5, 107722, Note_on_c, 9, 53, 43
5, 107726, Note_on_c, 9, 59, 57
5, 107729, Note_on_c, 9, 38, 0
5, 107746, Note_on_c, 9, 53, 0
5, 107753, Note_on_c, 9, 59, 0
5, 107760, Note_on_c, 9, 40, 30
5, 107760, Note_on_c, 9, 38, 50
5, 107773, Note_on_c, 9, 39, 0
5, 107815, Note_on_c, 9, 38, 0
5, 107820, Note_on_c, 9, 40, 0
5, 107880, Note_on_c, 9, 40, 24
5, 107880, Note_on_c, 9, 38, 54
5, 107897, Note_on_c, 9, 53, 57
5, 107907, Note_on_c, 9, 59, 66
5, 107921, Note_on_c, 9, 53, 0
5, 107941, Note_on_c, 9, 59, 0
5, 107946, Note_on_c, 9, 38, 0
5, 107951, Note_on_c, 9, 40, 0
5, 107960, Note_on_c, 9, 39, 59
5, 108000, Note_on_c, 9, 39, 0
5, 108000, Note_on_c, 9, 40, 26
5, 108000, Note_on_c, 9, 38, 36
5, 108079, Note_on_c, 9, 40, 0
5, 108086, Note_on_c, 9, 38, 0
5, 108088, Note_on_c, 9, 53, 59
5, 108096, Note_on_c, 9, 59, 53
5, 108113, Note_on_c, 9, 53, 0
5, 108118, Note_on_c, 9, 59, 0
5, 108120, Note_on_c, 9, 40, 28
5, 108120, Note_on_c, 9, 38, 48
5, 108206, Note_on_c, 9, 40, 0
5, 108207, Note_on_c, 9, 38, 0
5, 108240, Note_on_c, 9, 40, 25
5, 108240, Note_on_c, 9, 38, 45
5, 108266, Note_on_c, 9, 53, 47
5, 108271, Note_on_c, 9, 59, 53
5, 108299, Note_on_c, 9, 53, 0
5, 108301, Note_on_c, 9, 59, 0
5, 108333, Note_on_c, 9, 40, 0
5, 108339, Note_on_c, 9, 38, 0
5, 108360, Note_on_c, 9, 40, 28
5, 108360, Note_on_c, 9, 38, 42
5, 108450, Note_on_c, 9, 40, 0
5, 108456, Note_on_c, 9, 38, 0
5, 108480, Note_on_c, 9, 40, 27
5, 108480, Note_on_c, 9, 38, 47
5, 108531, Note_on_c, 9, 40, 0
5, 108536, Note_on_c, 9, 38, 0
5, 108560, Note_on_c, 9, 40, 37
5, 108560, Note_on_c, 9, 38, 60
5, 108560, Note_on_c, 9, 44, 43
5, 108578, Note_on_c, 9, 40, 0
5, 108582, Note_on_c, 9, 38, 0
5, 108583, Note_on_c, 9, 44, 0
5, 108600, Note_on_c, 9, 40, 21
5, 108600, Note_on_c, 9, 38, 46
5, 108650, Note_on_c, 9, 40, 0
5, 108653, Note_on_c, 9, 38, 0
5, 108680, Note_on_c, 9, 38, 61
5, 108680, Note_on_c, 9, 40, 32
5, 108696, Note_on_c, 9, 40, 0
5, 108704, Note_on_c, 9, 38, 0
5, 108720, Note_on_c, 9, 40, 25
5, 108720, Note_on_c, 9, 38, 51
5, 108808, Note_on_c, 9, 40, 0
5, 108817, Note_on_c, 9, 38, 0
5, 108840, Note_on_c, 9, 40, 31
5, 108840, Note_on_c, 9, 38, 44
5, 108906, Note_on_c, 9, 40, 0
5, 108915, Note_on_c, 9, 38, 0
5, 108920, Note_on_c, 9, 39, 67
5, 108943, Note_on_c, 9, 39, 0
5, 108960, Note_on_c, 9, 40, 28
5, 108960, Note_on_c, 9, 38, 47
5, 109020, Note_on_c, 9, 40, 0
5, 109024, Note_on_c, 9, 38, 0
5, 109040, Note_on_c, 9, 38, 57
5, 109040, Note_on_c, 9, 40, 37
5, 109057, Note_on_c, 9, 40, 0
5, 109062, Note_on_c, 9, 38, 0
5, 109080, Note_on_c, 9, 38, 50
5, 109080, Note_on_c, 9, 40, 25
5, 109161, Note_on_c, 9, 40, 0
5, 109169, Note_on_c, 9, 38, 0
5, 109200, Note_on_c, 9, 38, 48
5, 109200, Note_on_c, 9, 40, 35
5, 109283, Note_on_c, 9, 40, 0
5, 109290, Note_on_c, 9, 38, 0
5, 109320, Note_on_c, 9, 40, 32
5, 109320, Note_on_c, 9, 38, 52
5, 109394, Note_on_c, 9, 38, 0
5, 109400, Note_on_c, 9, 39, 67
5, 109405, Note_on_c, 9, 40, 0
5, 109431, Note_on_c, 9, 39, 0
5, 109440, Note_on_c, 9, 38, 46
5, 109440, Note_on_c, 9, 40, 30
5, 109510, Note_on_c, 9, 44, 36
5, 109527, Note_on_c, 9, 44, 0
5, 109529, Note_on_c, 9, 40, 0
5, 109539, Note_on_c, 9, 38, 0
5, 109560, Note_on_c, 9, 40, 32
5, 109560, Note_on_c, 9, 38, 50
5, 109631, Note_on_c, 9, 44, 34
5, 109632, Note_on_c, 9, 38, 0
5, 109640, Note_on_c, 9, 39, 64
5, 109643, Note_on_c, 9, 40, 0
5, 109661, Note_on_c, 9, 44, 0
5, 109667, Note_on_c, 9, 39, 0
5, 109680, Note_on_c, 9, 38, 46
5, 109680, Note_on_c, 9, 40, 33
5, 109751, Note_on_c, 9, 44, 23
5, 109764, Note_on_c, 9, 40, 0
5, 109773, Note_on_c, 9, 44, 0
5, 109773, Note_on_c, 9, 38, 0
5, 109800, Note_on_c, 9, 38, 48
5, 109800, Note_on_c, 9, 40, 28
5, 109876, Note_on_c, 9, 44, 25
5, 109879, Note_on_c, 9, 40, 0
5, 109892, Note_on_c, 9, 38, 0
5, 109893, Note_on_c, 9, 44, 0
5, 109920, Note_on_c, 9, 38, 46
5, 109920, Note_on_c, 9, 40, 26
5, 109988, Note_on_c, 9, 40, 0
5, 109994, Note_on_c, 9, 38, 0
5, 109995, Note_on_c, 9, 44, 31
5, 110028, Note_on_c, 9, 44, 0
5, 110040, Note_on_c, 9, 38, 47
5, 110040, Note_on_c, 9, 40, 23
5, 110099, Note_on_c, 9, 38, 0
5, 110102, Note_on_c, 9, 40, 0
5, 110113, Note_on_c, 9, 44, 45
5, 110120, Note_on_c, 9, 38, 29
5, 110120, Note_on_c, 9, 39, 74
5, 110128, Note_on_c, 9, 38, 0
5, 110131, Note_on_c, 9, 44, 0
5, 110136, Note_on_c, 9, 39, 0
5, 110160, Note_on_c, 9, 40, 31
5, 110160, Note_on_c, 9, 38, 57
5, 110249, Note_on_c, 9, 40, 0
5, 110257, Note_on_c, 9, 38, 0
5, 110280, Note_on_c, 9, 40, 26
5, 110280, Note_on_c, 9, 38, 44
5, 110365, Note_on_c, 9, 40, 0
5, 110367, Note_on_c, 9, 53, 35
5, 110371, Note_on_c, 9, 38, 0
5, 110379, Note_on_c, 9, 53, 0
5, 110400, Note_on_c, 9, 40, 23
5, 110400, Note_on_c, 9, 38, 60
5, 110444, Note_on_c, 9, 38, 0
5, 110444, Note_on_c, 9, 40, 0
5, 110480, Note_on_c, 9, 40, 39
5, 110480, Note_on_c, 9, 38, 68
5, 110499, Note_on_c, 9, 40, 0
5, 110501, Note_on_c, 9, 38, 0
5, 110520, Note_on_c, 9, 40, 17
5, 110520, Note_on_c, 9, 38, 42
5, 110567, Note_on_c, 9, 38, 0
5, 110569, Note_on_c, 9, 40, 0
5, 110600, Note_on_c, 9, 40, 35
5, 110600, Note_on_c, 9, 38, 60
5, 110623, Note_on_c, 9, 40, 0
5, 110624, Note_on_c, 9, 38, 0
5, 110640, Note_on_c, 9, 40, 18
5, 110640, Note_on_c, 9, 38, 50
5, 110717, Note_on_c, 9, 38, 0
5, 110717, Note_on_c, 9, 53, 39
5, 110720, Note_on_c, 9, 40, 0
5, 110720, Note_on_c, 9, 38, 72
5, 110720, Note_on_c, 9, 40, 39
5, 110720, Note_on_c, 9, 59, 37
5, 110734, Note_on_c, 9, 53, 0
5, 110736, Note_on_c, 9, 59, 0
5, 110736, Note_on_c, 9, 40, 0
5, 110739, Note_on_c, 9, 38, 0
5, 110760, Note_on_c, 9, 40, 24
5, 110760, Note_on_c, 9, 38, 35
5, 110768, Note_on_c, 9, 53, 32
5, 110773, Note_on_c, 9, 59, 32
5, 110786, Note_on_c, 9, 38, 0
5, 110793, Note_on_c, 9, 59, 0
5, 110796, Note_on_c, 9, 53, 0
5, 110798, Note_on_c, 9, 40, 0
5, 110832, Note_on_c, 9, 44, 37
5, 110840, Note_on_c, 9, 40, 34
5, 110840, Note_on_c, 9, 38, 55
5, 110853, Note_on_c, 9, 44, 0
5, 110858, Note_on_c, 9, 40, 0
5, 110861, Note_on_c, 9, 38, 0
5, 110880, Note_on_c, 9, 40, 25
5, 110880, Note_on_c, 9, 38, 51
5, 110968, Note_on_c, 9, 40, 0
5, 110973, Note_on_c, 9, 38, 0
5, 111000, Note_on_c, 9, 38, 54
5, 111000, Note_on_c, 9, 40, 26
5, 111076, Note_on_c, 9, 38, 0
5, 111080, Note_on_c, 9, 39, 62
5, 111082, Note_on_c, 9, 40, 0
5, 111116, Note_on_c, 9, 39, 0
5, 111120, Note_on_c, 9, 40, 28
5, 111120, Note_on_c, 9, 38, 46
5, 111180, Note_on_c, 9, 40, 0
5, 111184, Note_on_c, 9, 38, 0
5, 111200, Note_on_c, 9, 39, 64
5, 111229, Note_on_c, 9, 39, 0
5, 111240, Note_on_c, 9, 38, 46
5, 111240, Note_on_c, 9, 40, 29
5, 111323, Note_on_c, 9, 40, 0
5, 111332, Note_on_c, 9, 38, 0
5, 111360, Note_on_c, 9, 38, 52
5, 111360, Note_on_c, 9, 40, 28
5, 111448, Note_on_c, 9, 40, 0
5, 111449, Note_on_c, 9, 38, 0
5, 111480, Note_on_c, 9, 40, 32
5, 111480, Note_on_c, 9, 38, 48
5, 111539, Note_on_c, 9, 38, 0
5, 111560, Note_on_c, 9, 39, 55
5, 111561, Note_on_c, 9, 40, 0
5, 111595, Note_on_c, 9, 39, 0
5, 111600, Note_on_c, 9, 40, 32
5, 111600, Note_on_c, 9, 38, 52
5, 111683, Note_on_c, 9, 40, 0
5, 111686, Note_on_c, 9, 38, 0
5, 111716, Note_on_c, 9, 53, 53
5, 111720, Note_on_c, 9, 40, 27
5, 111720, Note_on_c, 9, 38, 47
5, 111733, Note_on_c, 9, 53, 0
5, 111796, Note_on_c, 9, 53, 55
5, 111798, Note_on_c, 9, 40, 0
5, 111803, Note_on_c, 9, 38, 0
5, 111818, Note_on_c, 9, 53, 0
5, 111840, Note_on_c, 9, 38, 54
5, 111840, Note_on_c, 9, 40, 35
5, 111847, Note_on_c, 9, 53, 41
5, 111860, Note_on_c, 9, 53, 0
5, 111914, Note_on_c, 9, 38, 0
5, 111915, Note_on_c, 9, 36, 26
5, 111920, Note_on_c, 9, 40, 0
5, 111920, Note_on_c, 9, 39, 56
5, 111938, Note_on_c, 9, 36, 0
5, 111948, Note_on_c, 9, 39, 0
5, 111960, Note_on_c, 9, 38, 45
5, 111960, Note_on_c, 9, 40, 28
5, 112020, Note_on_c, 9, 40, 0
5, 112024, Note_on_c, 9, 38, 0
5, 112039, Note_on_c, 9, 53, 36
5, 112040, Note_on_c, 9, 40, 30
5, 112040, Note_on_c, 9, 38, 53
5, 112052, Note_on_c, 9, 53, 0
5, 112058, Note_on_c, 9, 40, 0
5, 112060, Note_on_c, 9, 38, 0
5, 112080, Note_on_c, 9, 40, 28
5, 112080, Note_on_c, 9, 38, 52
5, 112091, Note_on_c, 9, 53, 40
5, 112115, Note_on_c, 9, 53, 0
5, 112125, Note_on_c, 9, 40, 0
5, 112126, Note_on_c, 9, 38, 0
5, 112160, Note_on_c, 9, 40, 27
5, 112160, Note_on_c, 9, 38, 55
5, 112161, Note_on_c, 9, 53, 55
5, 112175, Note_on_c, 9, 53, 0
5, 112180, Note_on_c, 9, 40, 0
5, 112186, Note_on_c, 9, 38, 0
5, 112200, Note_on_c, 9, 38, 45
5, 112200, Note_on_c, 9, 40, 22
5, 112238, Note_on_c, 9, 40, 0
5, 112241, Note_on_c, 9, 38, 0
5, 112280, Note_on_c, 9, 38, 53
5, 112280, Note_on_c, 9, 40, 35
5, 112287, Note_on_c, 9, 53, 35
5, 112299, Note_on_c, 9, 40, 0
5, 112300, Note_on_c, 9, 53, 0
5, 112306, Note_on_c, 9, 38, 0
5, 112320, Note_on_c, 9, 38, 46
5, 112320, Note_on_c, 9, 40, 35
5, 112333, Note_on_c, 9, 53, 44
5, 112379, Note_on_c, 9, 53, 0
5, 112380, Note_on_c, 9, 40, 0
5, 112381, Note_on_c, 9, 38, 0
5, 112407, Note_on_c, 9, 53, 54
5, 112420, Note_on_c, 9, 53, 0
5, 112440, Note_on_c, 9, 40, 29
5, 112440, Note_on_c, 9, 38, 50
5, 112528, Note_on_c, 9, 38, 0
5, 112528, Note_on_c, 9, 40, 0
5, 112528, Note_on_c, 9, 53, 38
5, 112541, Note_on_c, 9, 53, 0
5, 112560, Note_on_c, 9, 40, 34
5, 112560, Note_on_c, 9, 38, 51
5, 112658, Note_on_c, 9, 38, 0
5, 112658, Note_on_c, 9, 40, 0
5, 112680, Note_on_c, 9, 40, 32
5, 112680, Note_on_c, 9, 38, 49
5, 112755, Note_on_c, 9, 38, 0
5, 112760, Note_on_c, 9, 39, 69
5, 112763, Note_on_c, 9, 40, 0
5, 112791, Note_on_c, 9, 39, 0
5, 112800, Note_on_c, 9, 38, 51
5, 112800, Note_on_c, 9, 40, 25
5, 112858, Note_on_c, 9, 40, 0
5, 112861, Note_on_c, 9, 38, 0
5, 112880, Note_on_c, 9, 40, 30
5, 112880, Note_on_c, 9, 38, 54
5, 112880, Note_on_c, 9, 59, 52
5, 112882, Note_on_c, 9, 53, 40
5, 112891, Note_on_c, 9, 59, 0
5, 112895, Note_on_c, 9, 53, 0
5, 112898, Note_on_c, 9, 38, 0
5, 112899, Note_on_c, 9, 40, 0
5, 112920, Note_on_c, 9, 40, 30
5, 112920, Note_on_c, 9, 38, 53
5, 112987, Note_on_c, 9, 38, 0
5, 113000, Note_on_c, 9, 39, 67
5, 113005, Note_on_c, 9, 40, 0
5, 113031, Note_on_c, 9, 39, 0
5, 113040, Note_on_c, 9, 38, 51
5, 113040, Note_on_c, 9, 40, 28
5, 113045, Note_on_c, 9, 53, 53
5, 113048, Note_on_c, 9, 59, 55
5, 113068, Note_on_c, 9, 59, 0
5, 113070, Note_on_c, 9, 53, 0
5, 113128, Note_on_c, 9, 40, 0
5, 113143, Note_on_c, 9, 38, 0
5, 113160, Note_on_c, 9, 40, 32
5, 113160, Note_on_c, 9, 38, 47
5, 113240, Note_on_c, 9, 59, 50
5, 113240, Note_on_c, 9, 53, 42
5, 113249, Note_on_c, 9, 40, 0
5, 113253, Note_on_c, 9, 38, 0
5, 113254, Note_on_c, 9, 59, 0
5, 113255, Note_on_c, 9, 53, 0
5, 113280, Note_on_c, 9, 38, 48
5, 113280, Note_on_c, 9, 40, 29
5, 113352, Note_on_c, 9, 38, 0
5, 113360, Note_on_c, 9, 39, 62
5, 113364, Note_on_c, 9, 40, 0
5, 113382, Note_on_c, 9, 39, 0
5, 113400, Note_on_c, 9, 38, 36
5, 113400, Note_on_c, 9, 40, 22
5, 113405, Note_on_c, 9, 44, 49
5, 113417, Note_on_c, 9, 53, 50
5, 113420, Note_on_c, 9, 59, 35
5, 113423, Note_on_c, 9, 44, 0
5, 113428, Note_on_c, 9, 53, 0
5, 113432, Note_on_c, 9, 59, 0
5, 113491, Note_on_c, 9, 40, 0
5, 113499, Note_on_c, 9, 38, 0
5, 113520, Note_on_c, 9, 40, 32
5, 113520, Note_on_c, 9, 38, 51
5, 113605, Note_on_c, 9, 53, 51
5, 113608, Note_on_c, 9, 59, 44
5, 113609, Note_on_c, 9, 44, 39
5, 113613, Note_on_c, 9, 40, 0
5, 113616, Note_on_c, 9, 53, 0
5, 113620, Note_on_c, 9, 38, 0
5, 113622, Note_on_c, 9, 59, 0
5, 113640, Note_on_c, 9, 44, 0
5, 113640, Note_on_c, 9, 40, 32
5, 113640, Note_on_c, 9, 38, 46
5, 113738, Note_on_c, 9, 40, 0
5, 113742, Note_on_c, 9, 38, 0
5, 113760, Note_on_c, 9, 40, 27
5, 113760, Note_on_c, 9, 38, 48
5, 113849, Note_on_c, 9, 40, 0
5, 113853, Note_on_c, 9, 38, 0
5, 113880, Note_on_c, 9, 40, 27
5, 113880, Note_on_c, 9, 38, 57
5, 113918, Note_on_c, 9, 38, 0
5, 113920, Note_on_c, 9, 39, 42
5, 113923, Note_on_c, 9, 40, 0
5, 113930, Note_on_c, 9, 39, 0
5, 113960, Note_on_c, 9, 39, 56
5, 113990, Note_on_c, 9, 39, 0
5, 114000, Note_on_c, 9, 38, 32
5, 114000, Note_on_c, 9, 40, 38
5, 114070, Note_on_c, 9, 40, 0
5, 114071, Note_on_c, 9, 38, 0
5, 114120, Note_on_c, 9, 40, 32
5, 114120, Note_on_c, 9, 38, 40
5, 114206, Note_on_c, 9, 40, 0
5, 114210, Note_on_c, 9, 38, 0
5, 114240, Note_on_c, 9, 38, 51
5, 114240, Note_on_c, 9, 40, 23
5, 114308, Note_on_c, 9, 40, 0
5, 114320, Note_on_c, 9, 40, 27
5, 114323, Note_on_c, 9, 53, 42
5, 114333, Note_on_c, 9, 40, 0
5, 114336, Note_on_c, 9, 53, 0
5, 114337, Note_on_c, 9, 38, 0
5, 114360, Note_on_c, 9, 40, 38
5, 114360, Note_on_c, 9, 38, 57
5, 114450, Note_on_c, 9, 40, 0
5, 114456, Note_on_c, 9, 38, 0
5, 114480, Note_on_c, 9, 40, 30
5, 114480, Note_on_c, 9, 38, 51
5, 114492, Note_on_c, 9, 59, 53
5, 114492, Note_on_c, 9, 53, 46
5, 114507, Note_on_c, 9, 53, 0
5, 114512, Note_on_c, 9, 59, 0
5, 114549, Note_on_c, 9, 38, 0
5, 114554, Note_on_c, 9, 40, 0
5, 114560, Note_on_c, 9, 39, 67
5, 114594, Note_on_c, 9, 39, 0
5, 114600, Note_on_c, 9, 38, 48
5, 114600, Note_on_c, 9, 40, 23
5, 114685, Note_on_c, 9, 40, 0
5, 114690, Note_on_c, 9, 59, 37
5, 114690, Note_on_c, 9, 53, 33
5, 114697, Note_on_c, 9, 38, 0
5, 114702, Note_on_c, 9, 53, 0
5, 114702, Note_on_c, 9, 59, 0
5, 114720, Note_on_c, 9, 40, 32
5, 114720, Note_on_c, 9, 38, 50
5, 114808, Note_on_c, 9, 40, 0
5, 114810, Note_on_c, 9, 38, 0
5, 114840, Note_on_c, 9, 40, 30
5, 114840, Note_on_c, 9, 38, 57
5, 114861, Note_on_c, 9, 53, 59
5, 114865, Note_on_c, 9, 59, 30
5, 114873, Note_on_c, 9, 53, 0
5, 114881, Note_on_c, 9, 59, 0
5, 114909, Note_on_c, 9, 38, 0
5, 114919, Note_on_c, 9, 40, 0
5, 114920, Note_on_c, 9, 39, 64
5, 114956, Note_on_c, 9, 39, 0
5, 114960, Note_on_c, 9, 40, 24
5, 114960, Note_on_c, 9, 38, 46
5, 115040, Note_on_c, 9, 40, 0
5, 115049, Note_on_c, 9, 38, 0
5, 115056, Note_on_c, 9, 53, 58
5, 115059, Note_on_c, 9, 59, 50
5, 115066, Note_on_c, 9, 53, 0
5, 115071, Note_on_c, 9, 59, 0
5, 115080, Note_on_c, 9, 40, 26
5, 115080, Note_on_c, 9, 38, 50
5, 115157, Note_on_c, 9, 38, 0
5, 115160, Note_on_c, 9, 39, 63
5, 115164, Note_on_c, 9, 36, 29
5, 115165, Note_on_c, 9, 40, 0
5, 115177, Note_on_c, 9, 36, 0
5, 115194, Note_on_c, 9, 39, 0
5, 115200, Note_on_c, 9, 40, 31
5, 115200, Note_on_c, 9, 38, 46
5, 115214, Note_on_c, 9, 53, 34
5, 115218, Note_on_c, 9, 59, 28
5, 115240, Note_on_c, 9, 59, 0
5, 115264, Note_on_c, 9, 53, 0
5, 115291, Note_on_c, 9, 40, 0
5, 115292, Note_on_c, 9, 38, 0
5, 115320, Note_on_c, 9, 40, 32
5, 115320, Note_on_c, 9, 38, 65
5, 115333, Note_on_c, 9, 53, 38
5, 115337, Note_on_c, 9, 59, 36
5, 115356, Note_on_c, 9, 59, 0
5, 115358, Note_on_c, 9, 53, 0
5, 115411, Note_on_c, 9, 40, 0
5, 115412, Note_on_c, 9, 38, 0
5, 115440, Note_on_c, 9, 40, 30
5, 115440, Note_on_c, 9, 38, 51
5, 115516, Note_on_c, 9, 38, 0
5, 115520, Note_on_c, 9, 39, 64
5, 115524, Note_on_c, 9, 40, 0
5, 115546, Note_on_c, 9, 39, 0
5, 115560, Note_on_c, 9, 40, 28
5, 115560, Note_on_c, 9, 38, 50
5, 115652, Note_on_c, 9, 40, 0
5, 115660, Note_on_c, 9, 38, 0
5, 115680, Note_on_c, 9, 38, 55
5, 115680, Note_on_c, 9, 40, 29
5, 115766, Note_on_c, 9, 40, 0
5, 115775, Note_on_c, 9, 38, 0
5, 115800, Note_on_c, 9, 38, 45
5, 115800, Note_on_c, 9, 40, 22
5, 115845, Note_on_c, 9, 40, 0
5, 115849, Note_on_c, 9, 38, 0
5, 115880, Note_on_c, 9, 38, 60
5, 115880, Note_on_c, 9, 40, 35
5, 115893, Note_on_c, 9, 40, 0
5, 115897, Note_on_c, 9, 38, 0
5, 115920, Note_on_c, 9, 40, 24
5, 115920, Note_on_c, 9, 38, 54
5, 116013, Note_on_c, 9, 40, 0
5, 116022, Note_on_c, 9, 38, 0
5, 116034, Note_on_c, 9, 53, 43
5, 116035, Note_on_c, 9, 59, 35
5, 116040, Note_on_c, 9, 40, 31
5, 116040, Note_on_c, 9, 38, 46
5, 116053, Note_on_c, 9, 59, 0
5, 116062, Note_on_c, 9, 53, 0
5, 116090, Note_on_c, 9, 40, 0
5, 116091, Note_on_c, 9, 38, 0
5, 116120, Note_on_c, 9, 38, 48
5, 116120, Note_on_c, 9, 40, 23
5, 116131, Note_on_c, 9, 40, 0
5, 116133, Note_on_c, 9, 38, 0
5, 116160, Note_on_c, 9, 40, 39
5, 116160, Note_on_c, 9, 38, 58
5, 116163, Note_on_c, 9, 59, 50
5, 116166, Note_on_c, 9, 53, 36
5, 116183, Note_on_c, 9, 53, 0
5, 116194, Note_on_c, 9, 59, 0
5, 116250, Note_on_c, 9, 40, 0
5, 116254, Note_on_c, 9, 38, 0
5, 116280, Note_on_c, 9, 40, 25
5, 116280, Note_on_c, 9, 38, 53
5, 116317, Note_on_c, 9, 38, 0
5, 116320, Note_on_c, 9, 39, 44
5, 116326, Note_on_c, 9, 40, 0
5, 116340, Note_on_c, 9, 39, 0
5, 116360, Note_on_c, 9, 39, 44
5, 116384, Note_on_c, 9, 39, 0
5, 116400, Note_on_c, 9, 40, 40
5, 116400, Note_on_c, 9, 38, 49
5, 116486, Note_on_c, 9, 40, 0
5, 116491, Note_on_c, 9, 38, 0
5, 116520, Note_on_c, 9, 40, 25
5, 116520, Note_on_c, 9, 38, 49
5, 116544, Note_on_c, 9, 40, 0
5, 116552, Note_on_c, 9, 38, 0
5, 116560, Note_on_c, 9, 39, 64
5, 116582, Note_on_c, 9, 39, 0
5, 116600, Note_on_c, 9, 38, 55
5, 116600, Note_on_c, 9, 40, 35
5, 116621, Note_on_c, 9, 40, 0
5, 116627, Note_on_c, 9, 38, 0
5, 116640, Note_on_c, 9, 40, 42
5, 116640, Note_on_c, 9, 38, 66
5, 116693, Note_on_c, 9, 38, 0
5, 116694, Note_on_c, 9, 40, 0
5, 116720, Note_on_c, 9, 40, 33
5, 116720, Note_on_c, 9, 38, 54
5, 116737, Note_on_c, 9, 40, 0
5, 116738, Note_on_c, 9, 38, 0
5, 116760, Note_on_c, 9, 40, 34
5, 116760, Note_on_c, 9, 38, 48
5, 116772, Note_on_c, 9, 44, 25
5, 116790, Note_on_c, 9, 44, 0
5, 116820, Note_on_c, 9, 38, 0
5, 116824, Note_on_c, 9, 40, 0
5, 116840, Note_on_c, 9, 39, 68
5, 116870, Note_on_c, 9, 39, 0
5, 116876, Note_on_c, 9, 44, 37
5, 116880, Note_on_c, 9, 40, 24
5, 116880, Note_on_c, 9, 38, 49
5, 116916, Note_on_c, 9, 44, 0
5, 116918, Note_on_c, 9, 40, 0
5, 116927, Note_on_c, 9, 38, 0
5, 116960, Note_on_c, 9, 39, 71
5, 116992, Note_on_c, 9, 39, 0
5, 117000, Note_on_c, 9, 40, 30
5, 117000, Note_on_c, 9, 38, 51
5, 117088, Note_on_c, 9, 40, 0
5, 117092, Note_on_c, 9, 38, 0
5, 117120, Note_on_c, 9, 40, 28
5, 117120, Note_on_c, 9, 38, 46
5, 117122, Note_on_c, 9, 44, 36
5, 117159, Note_on_c, 9, 44, 0
5, 117207, Note_on_c, 9, 40, 0
5, 117208, Note_on_c, 9, 38, 0
5, 117240, Note_on_c, 9, 40, 29
5, 117240, Note_on_c, 9, 38, 51
5, 117250, Note_on_c, 9, 46, 15
5, 117278, Note_on_c, 9, 46, 0
5, 117299, Note_on_c, 9, 38, 0
5, 117307, Note_on_c, 9, 40, 0
5, 117320, Note_on_c, 9, 39, 68
5, 117355, Note_on_c, 9, 39, 0
5, 117360, Note_on_c, 9, 40, 28
5, 117360, Note_on_c, 9, 38, 55
5, 117441, Note_on_c, 9, 40, 0
5, 117452, Note_on_c, 9, 38, 0
5, 117480, Note_on_c, 9, 40, 28
5, 117480, Note_on_c, 9, 38, 49
5, 117567, Note_on_c, 9, 40, 0
5, 117568, Note_on_c, 9, 38, 0
5, 117600, Note_on_c, 9, 40, 30
5, 117600, Note_on_c, 9, 38, 53
5, 117637, Note_on_c, 9, 40, 0
5, 117641, Note_on_c, 9, 38, 0
5, 117680, Note_on_c, 9, 38, 49
5, 117680, Note_on_c, 9, 40, 21
5, 117692, Note_on_c, 9, 40, 0
5, 117699, Note_on_c, 9, 38, 0
5, 117720, Note_on_c, 9, 38, 58
5, 117720, Note_on_c, 9, 40, 32
5, 117720, Note_on_c, 9, 38, 71
5, 117720, Note_on_c, 9, 40, 49
5, 117788, Note_on_c, 9, 40, 0
5, 117790, Note_on_c, 9, 38, 0
5, 117791, Note_on_c, 9, 40, 0
5, 117794, Note_on_c, 9, 38, 0
5, 117840, Note_on_c, 9, 38, 66
5, 117840, Note_on_c, 9, 40, 35
5, 117913, Note_on_c, 9, 38, 0
5, 117918, Note_on_c, 9, 40, 0
5, 117960, Note_on_c, 9, 40, 34
5, 117960, Note_on_c, 9, 38, 59
5, 118025, Note_on_c, 9, 38, 0
5, 118040, Note_on_c, 9, 39, 70
5, 118043, Note_on_c, 9, 53, 49
5, 118047, Note_on_c, 9, 40, 0
5, 118048, Note_on_c, 9, 59, 33
5, 118055, Note_on_c, 9, 53, 0
5, 118060, Note_on_c, 9, 59, 0
5, 118074, Note_on_c, 9, 39, 0
5, 118080, Note_on_c, 9, 38, 53
5, 118080, Note_on_c, 9, 40, 41
5, 118088, Note_on_c, 9, 53, 36
5, 118091, Note_on_c, 9, 59, 30
5, 118112, Note_on_c, 9, 59, 0
5, 118112, Note_on_c, 9, 53, 0
5, 118184, Note_on_c, 9, 40, 0
5, 118192, Note_on_c, 9, 38, 0
5, 118200, Note_on_c, 9, 40, 32
5, 118200, Note_on_c, 9, 38, 59
5, 118283, Note_on_c, 9, 44, 36
5, 118293, Note_on_c, 9, 40, 0
5, 118298, Note_on_c, 9, 44, 0
5, 118303, Note_on_c, 9, 38, 0
5, 118320, Note_on_c, 9, 40, 30
5, 118320, Note_on_c, 9, 38, 57
5, 118410, Note_on_c, 9, 40, 0
5, 118417, Note_on_c, 9, 38, 0
5, 118440, Note_on_c, 9, 40, 35
5, 118440, Note_on_c, 9, 38, 46
5, 118517, Note_on_c, 9, 38, 0
5, 118520, Note_on_c, 9, 39, 65
5, 118523, Note_on_c, 9, 40, 0
5, 118552, Note_on_c, 9, 39, 0
5, 118560, Note_on_c, 9, 40, 30
5, 118560, Note_on_c, 9, 38, 24
5, 118618, Note_on_c, 9, 53, 40
5, 118619, Note_on_c, 9, 40, 0
5, 118626, Note_on_c, 9, 59, 31
5, 118636, Note_on_c, 9, 53, 0
5, 118640, Note_on_c, 9, 38, 0
5, 118640, Note_on_c, 9, 39, 81
5, 118640, Note_on_c, 9, 40, 28
5, 118642, Note_on_c, 9, 59, 0
5, 118648, Note_on_c, 9, 40, 0
5, 118674, Note_on_c, 9, 59, 35
5, 118679, Note_on_c, 9, 39, 0
5, 118680, Note_on_c, 9, 40, 37
5, 118680, Note_on_c, 9, 38, 48
5, 118696, Note_on_c, 9, 59, 0
5, 118740, Note_on_c, 9, 40, 0
5, 118745, Note_on_c, 9, 38, 0
5, 118747, Note_on_c, 9, 44, 30
5, 118760, Note_on_c, 9, 40, 35
5, 118760, Note_on_c, 9, 38, 64
5, 118765, Note_on_c, 9, 44, 0
5, 118774, Note_on_c, 9, 40, 0
5, 118779, Note_on_c, 9, 38, 0
5, 118800, Note_on_c, 9, 40, 23
5, 118800, Note_on_c, 9, 38, 51
5, 118803, Note_on_c, 9, 59, 33
5, 118837, Note_on_c, 9, 59, 0
5, 118894, Note_on_c, 9, 40, 0
5, 118896, Note_on_c, 9, 38, 0
5, 118920, Note_on_c, 9, 40, 32
5, 118920, Note_on_c, 9, 38, 47
5, 118988, Note_on_c, 9, 38, 0
5, 119000, Note_on_c, 9, 40, 0
5, 119000, Note_on_c, 9, 39, 72
5, 119028, Note_on_c, 9, 39, 0
5, 119040, Note_on_c, 9, 40, 26
5, 119040, Note_on_c, 9, 38, 38
5, 119088, Note_on_c, 9, 40, 0
5, 119091, Note_on_c, 9, 38, 0
5, 119120, Note_on_c, 9, 40, 23
5, 119120, Note_on_c, 9, 38, 48
5, 119135, Note_on_c, 9, 40, 0
5, 119136, Note_on_c, 9, 38, 0
5, 119160, Note_on_c, 9, 40, 25
5, 119160, Note_on_c, 9, 38, 40
5, 119255, Note_on_c, 9, 40, 0
5, 119263, Note_on_c, 9, 38, 0
5, 119280, Note_on_c, 9, 38, 40
5, 119280, Note_on_c, 9, 40, 26
5, 119348, Note_on_c, 9, 53, 48
5, 119359, Note_on_c, 9, 53, 0
5, 119364, Note_on_c, 9, 40, 0
5, 119373, Note_on_c, 9, 38, 0
5, 119400, Note_on_c, 9, 40, 21
5, 119400, Note_on_c, 9, 38, 42
5, 119464, Note_on_c, 9, 38, 0
5, 119468, Note_on_c, 9, 53, 48
5, 119473, Note_on_c, 9, 59, 38
5, 119476, Note_on_c, 9, 40, 0
5, 119480, Note_on_c, 9, 53, 0
5, 119480, Note_on_c, 9, 39, 55
5, 119485, Note_on_c, 9, 59, 0
5, 119512, Note_on_c, 9, 39, 0
5, 119520, Note_on_c, 9, 40, 25
5, 119520, Note_on_c, 9, 38, 39
5, 119521, Note_on_c, 9, 44, 23
5, 119558, Note_on_c, 9, 44, 0
5, 119572, Note_on_c, 9, 40, 0
5, 119581, Note_on_c, 9, 38, 0
5, 119600, Note_on_c, 9, 39, 64
5, 119633, Note_on_c, 9, 39, 0
5, 119640, Note_on_c, 9, 40, 20
5, 119640, Note_on_c, 9, 38, 43
5, 119641, Note_on_c, 9, 44, 25
5, 119674, Note_on_c, 9, 44, 0
5, 119725, Note_on_c, 9, 38, 0
5, 119733, Note_on_c, 9, 40, 0
5, 119760, Note_on_c, 9, 38, 34
5, 119760, Note_on_c, 9, 40, 21
5, 119853, Note_on_c, 9, 40, 0
5, 119859, Note_on_c, 9, 38, 0
5, 119880, Note_on_c, 9, 38, 39
5, 119880, Note_on_c, 9, 40, 23
5, 119964, Note_on_c, 9, 40, 0
5, 119971, Note_on_c, 9, 38, 0
5, 120000, Note_on_c, 9, 38, 38
5, 120000, Note_on_c, 9, 40, 28
5, 120031, Note_on_c, 9, 38, 0
5, 120033, Note_on_c, 9, 40, 0
5, 120040, Note_on_c, 9, 39, 59
5, 120080, Note_on_c, 9, 39, 0
5, 120080, Note_on_c, 9, 38, 63
5, 120080, Note_on_c, 9, 40, 24
5, 120089, Note_on_c, 9, 40, 0
5, 120100, Note_on_c, 9, 38, 0
5, 120120, Note_on_c, 9, 40, 25
5, 120120, Note_on_c, 9, 38, 52
5, 120193, Note_on_c, 9, 40, 0
5, 120200, Note_on_c, 9, 38, 38
5, 120200, Note_on_c, 9, 40, 22
5, 120201, Note_on_c, 9, 38, 0
5, 120203, Note_on_c, 9, 53, 40
5, 120209, Note_on_c, 9, 40, 0
5, 120209, Note_on_c, 9, 59, 33
5, 120216, Note_on_c, 9, 53, 0
5, 120218, Note_on_c, 9, 38, 0
5, 120220, Note_on_c, 9, 59, 0
5, 120240, Note_on_c, 9, 38, 38
5, 120240, Note_on_c, 9, 40, 30
5, 120257, Note_on_c, 9, 44, 20
5, 120292, Note_on_c, 9, 44, 0
5, 120306, Note_on_c, 9, 40, 0
5, 120311, Note_on_c, 9, 38, 0
5, 120320, Note_on_c, 9, 39, 45
5, 120355, Note_on_c, 9, 39, 0
5, 120360, Note_on_c, 9, 40, 27
5, 120360, Note_on_c, 9, 38, 39
5, 120440, Note_on_c, 9, 53, 45
5, 120449, Note_on_c, 9, 40, 0
5, 120452, Note_on_c, 9, 53, 0
5, 120459, Note_on_c, 9, 38, 0
5, 120480, Note_on_c, 9, 38, 36
5, 120480, Note_on_c, 9, 40, 23
5, 120490, Note_on_c, 9, 44, 25
5, 120537, Note_on_c, 9, 44, 0
5, 120564, Note_on_c, 9, 40, 0
5, 120572, Note_on_c, 9, 38, 0
5, 120600, Note_on_c, 9, 38, 36
5, 120600, Note_on_c, 9, 40, 28
5, 120660, Note_on_c, 9, 38, 0
5, 120674, Note_on_c, 9, 40, 0
5, 120680, Note_on_c, 9, 39, 52
5, 120683, Note_on_c, 9, 53, 42
5, 120696, Note_on_c, 9, 53, 0
5, 120703, Note_on_c, 9, 39, 0
5, 120720, Note_on_c, 9, 38, 38
5, 120720, Note_on_c, 9, 40, 15
5, 120772, Note_on_c, 9, 40, 0
5, 120776, Note_on_c, 9, 38, 0
5, 120800, Note_on_c, 9, 39, 58
5, 120832, Note_on_c, 9, 39, 0
5, 120840, Note_on_c, 9, 40, 32
5, 120840, Note_on_c, 9, 38, 36
5, 120925, Note_on_c, 9, 44, 25
5, 120941, Note_on_c, 9, 40, 0
5, 120942, Note_on_c, 9, 44, 0
5, 120942, Note_on_c, 9, 38, 0
5, 120960, Note_on_c, 9, 38, 37
5, 120960, Note_on_c, 9, 40, 28
5, 121050, Note_on_c, 9, 40, 0
5, 121063, Note_on_c, 9, 38, 0
5, 121080, Note_on_c, 9, 40, 27
5, 121080, Note_on_c, 9, 38, 45
5, 121165, Note_on_c, 9, 40, 0
5, 121173, Note_on_c, 9, 38, 0
5, 121200, Note_on_c, 9, 38, 44
5, 121200, Note_on_c, 9, 40, 29
5, 121265, Note_on_c, 9, 38, 0
5, 121274, Note_on_c, 9, 40, 0
5, 121280, Note_on_c, 9, 39, 57
5, 121308, Note_on_c, 9, 39, 0
5, 121320, Note_on_c, 9, 40, 23
5, 121320, Note_on_c, 9, 38, 42
5, 121371, Note_on_c, 9, 40, 0
5, 121377, Note_on_c, 9, 38, 0
5, 121400, Note_on_c, 9, 39, 60
5, 121429, Note_on_c, 9, 39, 0
5, 121440, Note_on_c, 9, 40, 33
5, 121440, Note_on_c, 9, 38, 26
5, 121537, Note_on_c, 9, 40, 0
5, 121543, Note_on_c, 9, 38, 0
5, 121560, Note_on_c, 9, 38, 44
5, 121560, Note_on_c, 9, 40, 25
5, 121648, Note_on_c, 9, 40, 0
5, 121653, Note_on_c, 9, 38, 0
5, 121680, Note_on_c, 9, 38, 46
5, 121680, Note_on_c, 9, 40, 30
5, 121718, Note_on_c, 9, 38, 0
5, 121719, Note_on_c, 9, 40, 0
5, 121720, Note_on_c, 9, 39, 52
5, 121743, Note_on_c, 9, 39, 0
5, 121760, Note_on_c, 9, 39, 46
5, 121790, Note_on_c, 9, 44, 25
5, 121795, Note_on_c, 9, 39, 0
5, 121800, Note_on_c, 9, 38, 37
5, 121800, Note_on_c, 9, 40, 30
5, 121827, Note_on_c, 9, 44, 0
5, 121873, Note_on_c, 9, 38, 0
5, 121880, Note_on_c, 9, 40, 0
5, 121880, Note_on_c, 9, 39, 67
5, 121914, Note_on_c, 9, 39, 0
5, 121919, Note_on_c, 9, 44, 25
5, 121920, Note_on_c, 9, 38, 52
5, 121920, Note_on_c, 9, 40, 9
5, 121964, Note_on_c, 9, 44, 0
5, 121969, Note_on_c, 9, 40, 0
5, 121976, Note_on_c, 9, 38, 0
5, 122000, Note_on_c, 9, 39, 55
5, 122034, Note_on_c, 9, 39, 0
5, 122040, Note_on_c, 9, 40, 32
5, 122040, Note_on_c, 9, 38, 37
5, 122087, Note_on_c, 9, 40, 0
5, 122089, Note_on_c, 9, 38, 0
5, 122120, Note_on_c, 9, 38, 49
5, 122120, Note_on_c, 9, 40, 34
5, 122137, Note_on_c, 9, 40, 0
5, 122145, Note_on_c, 9, 38, 0
5, 122160, Note_on_c, 9, 40, 29
5, 122160, Note_on_c, 9, 38, 49
5, 122164, Note_on_c, 9, 44, 25
5, 122184, Note_on_c, 9, 44, 0
5, 122226, Note_on_c, 9, 40, 0
5, 122229, Note_on_c, 9, 38, 0
5, 122240, Note_on_c, 9, 39, 55
5, 122277, Note_on_c, 9, 39, 0
5, 122280, Note_on_c, 9, 38, 40
5, 122280, Note_on_c, 9, 40, 32
5, 122321, Note_on_c, 9, 40, 0
5, 122326, Note_on_c, 9, 38, 0
5, 122360, Note_on_c, 9, 38, 61
5, 122360, Note_on_c, 9, 40, 33
5, 122383, Note_on_c, 9, 40, 0
5, 122384, Note_on_c, 9, 38, 0
5, 122400, Note_on_c, 9, 40, 29
5, 122400, Note_on_c, 9, 38, 47
5, 122457, Note_on_c, 9, 38, 0
5, 122459, Note_on_c, 9, 40, 0
5, 122480, Note_on_c, 9, 39, 60
5, 122510, Note_on_c, 9, 44, 26
5, 122519, Note_on_c, 9, 39, 0
5, 122520, Note_on_c, 9, 40, 30
5, 122520, Note_on_c, 9, 38, 43
5, 122523, Note_on_c, 9, 44, 0
5, 122564, Note_on_c, 9, 40, 0
5, 122565, Note_on_c, 9, 38, 0
5, 122600, Note_on_c, 9, 40, 32
5, 122600, Note_on_c, 9, 38, 63
5, 122626, Note_on_c, 9, 38, 0
5, 122627, Note_on_c, 9, 40, 0
5, 122632, Note_on_c, 9, 46, 18
5, 122640, Note_on_c, 9, 40, 23
5, 122640, Note_on_c, 9, 38, 47
5, 122651, Note_on_c, 9, 46, 0
5, 122689, Note_on_c, 9, 38, 0
5, 122697, Note_on_c, 9, 40, 0
5, 122720, Note_on_c, 9, 39, 57
5, 122753, Note_on_c, 9, 39, 0
5, 122760, Note_on_c, 9, 40, 23
5, 122760, Note_on_c, 9, 38, 44
5, 122861, Note_on_c, 9, 40, 0
5, 122864, Note_on_c, 9, 38, 0
5, 122866, Note_on_c, 9, 44, 28
5, 122880, Note_on_c, 9, 38, 45
5, 122880, Note_on_c, 9, 40, 30
5, 122890, Note_on_c, 9, 44, 0
5, 122971, Note_on_c, 9, 40, 0
5, 122979, Note_on_c, 9, 38, 0
5, 122990, Note_on_c, 9, 44, 32
5, 123000, Note_on_c, 9, 40, 28
5, 123000, Note_on_c, 9, 38, 46
5, 123020, Note_on_c, 9, 44, 0
5, 123063, Note_on_c, 9, 38, 0
5, 123068, Note_on_c, 9, 40, 0
5, 123080, Note_on_c, 9, 39, 57
5, 123113, Note_on_c, 9, 39, 0
5, 123120, Note_on_c, 9, 40, 26
5, 123120, Note_on_c, 9, 38, 43
5, 123192, Note_on_c, 9, 40, 0
5, 123197, Note_on_c, 9, 38, 0
5, 123200, Note_on_c, 9, 39, 60
5, 123230, Note_on_c, 9, 39, 0
5, 123239, Note_on_c, 9, 53, 35
5, 123239, Note_on_c, 9, 59, 36
5, 123240, Note_on_c, 9, 38, 45
5, 123240, Note_on_c, 9, 40, 32
5, 123262, Note_on_c, 9, 59, 0
5, 123266, Note_on_c, 9, 53, 0
5, 123334, Note_on_c, 9, 40, 0
5, 123345, Note_on_c, 9, 38, 0
5, 123360, Note_on_c, 9, 38, 46
5, 123360, Note_on_c, 9, 40, 35
5, 123365, Note_on_c, 9, 53, 47
5, 123365, Note_on_c, 9, 59, 43
5, 123391, Note_on_c, 9, 53, 0
5, 123393, Note_on_c, 9, 59, 0
5, 123431, Note_on_c, 9, 38, 0
5, 123437, Note_on_c, 9, 40, 0
5, 123440, Note_on_c, 9, 39, 63
5, 123473, Note_on_c, 9, 39, 0
5, 123480, Note_on_c, 9, 40, 32
5, 123480, Note_on_c, 9, 38, 43
5, 123569, Note_on_c, 9, 40, 0
5, 123576, Note_on_c, 9, 38, 0
5, 123600, Note_on_c, 9, 40, 32
5, 123600, Note_on_c, 9, 38, 50
5, 123606, Note_on_c, 9, 53, 45
5, 123609, Note_on_c, 9, 59, 35
5, 123630, Note_on_c, 9, 53, 0
5, 123631, Note_on_c, 9, 59, 0
5, 123687, Note_on_c, 9, 40, 0
5, 123693, Note_on_c, 9, 38, 0
5, 123720, Note_on_c, 9, 38, 51
5, 123720, Note_on_c, 9, 40, 30
5, 123793, Note_on_c, 9, 38, 0
5, 123799, Note_on_c, 9, 40, 0
5, 123800, Note_on_c, 9, 39, 59
5, 123836, Note_on_c, 9, 39, 0
5, 123840, Note_on_c, 9, 40, 31
5, 123840, Note_on_c, 9, 38, 38
5, 123898, Note_on_c, 9, 38, 0
5, 123898, Note_on_c, 9, 40, 0
5, 123920, Note_on_c, 9, 39, 65
5, 123958, Note_on_c, 9, 39, 0
5, 123960, Note_on_c, 9, 38, 38
5, 123960, Note_on_c, 9, 40, 23
5, 123965, Note_on_c, 9, 53, 32
5, 123970, Note_on_c, 9, 59, 27
5, 123979, Note_on_c, 9, 53, 0
5, 123986, Note_on_c, 9, 59, 0
5, 124045, Note_on_c, 9, 40, 0
5, 124054, Note_on_c, 9, 38, 0
5, 124080, Note_on_c, 9, 38, 49
5, 124080, Note_on_c, 9, 40, 31
5, 124084, Note_on_c, 9, 53, 28
5, 124089, Note_on_c, 9, 59, 26
5, 124108, Note_on_c, 9, 59, 0
5, 124108, Note_on_c, 9, 53, 0
5, 124149, Note_on_c, 9, 38, 0
5, 124156, Note_on_c, 9, 40, 0
5, 124160, Note_on_c, 9, 39, 52
5, 124182, Note_on_c, 9, 39, 0
5, 124200, Note_on_c, 9, 40, 25
5, 124200, Note_on_c, 9, 38, 39
5, 124208, Note_on_c, 9, 59, 79
5, 124254, Note_on_c, 9, 40, 0
5, 124255, Note_on_c, 9, 38, 0
5, 124325, Note_on_c, 9, 53, 37
5, 124330, Note_on_c, 9, 59, 32
5, 124342, Note_on_c, 9, 53, 0
5, 124347, Note_on_c, 9, 59, 0
5, 124453, Note_on_c, 9, 40, 43
5, 124502, Note_on_c, 9, 40, 0
5, 124587, Note_on_c, 9, 59, 0
5, 124596, Note_on_c, 9, 38, 32
5, 124598, Note_on_c, 9, 40, 40
5, 124839, Note_on_c, 9, 59, 48
5, 124839, Note_on_c, 9, 53, 17
5, 124841, Note_on_c, 9, 59, 24
5, 124860, Note_on_c, 9, 59, 0
5, 124871, Note_on_c, 9, 53, 0
5, 124883, Note_on_c, 9, 59, 0
5, 124984, Note_on_c, 9, 59, 60
5, 125191, Note_on_c, 9, 38, 0
5, 125194, Note_on_c, 9, 40, 0
5, 125337, Note_on_c, 9, 59, 0
5, 125387, Note_on_c, 9, 59, 60
5, 125628, Note_on_c, 9, 59, 0
5, 125791, Note_on_c, 9, 53, 64
5, 125793, Note_on_c, 9, 59, 60
5, 125795, Note_on_c, 9, 36, 52
5, 126190, Note_on_c, 9, 53, 0
5, 126200, Note_on_c, 9, 59, 0
5, 126271, Note_on_c, 9, 36, 0
5, 126271, End_track
6, 0, Start_track
6, 0, Title_t, ""
6, 0, Program_c, 9, 40
6, 0, End_track
7, 0, Start_track
7, 0, Title_t, ""
7, 0, Program_c, 2, 22
7, 0, Control_c, 2, 7, 127
7, 25208, Note_on_c, 2, 64, 79
7, 25560, Note_on_c, 2, 65, 74
7, 25570, Note_on_c, 2, 64, 0
7, 25907, Note_on_c, 2, 65, 0
7, 25915, Note_on_c, 2, 64, 85
7, 25973, Pitch_bend_c, 2, 8192
7, 25975, Pitch_bend_c, 2, 8192
7, 25977, Pitch_bend_c, 2, 8192
7, 25982, Pitch_bend_c, 2, 7552
7, 25985, Pitch_bend_c, 2, 7424
7, 25987, Pitch_bend_c, 2, 7296
7, 25990, Pitch_bend_c, 2, 7040
7, 25993, Pitch_bend_c, 2, 6784
7, 25995, Pitch_bend_c, 2, 6656
7, 25996, Pitch_bend_c, 2, 6528
7, 25999, Pitch_bend_c, 2, 6272
7, 26001, Pitch_bend_c, 2, 6144
7, 26002, Pitch_bend_c, 2, 6016
7, 26004, Pitch_bend_c, 2, 5888
7, 26006, Pitch_bend_c, 2, 5760
7, 26007, Pitch_bend_c, 2, 5632
7, 26010, Pitch_bend_c, 2, 5504
7, 26013, Pitch_bend_c, 2, 5376
7, 26016, Pitch_bend_c, 2, 5120
7, 26018, Pitch_bend_c, 2, 4992
7, 26026, Note_on_c, 2, 64, 0
7, 26031, Pitch_bend_c, 2, 5120
7, 26053, Pitch_bend_c, 2, 5376
7, 26059, Pitch_bend_c, 2, 5504
7, 26061, Pitch_bend_c, 2, 5760
7, 26062, Pitch_bend_c, 2, 6016
7, 26064, Pitch_bend_c, 2, 6400
7, 26065, Pitch_bend_c, 2, 6656
7, 26067, Pitch_bend_c, 2, 6912
7, 26068, Pitch_bend_c, 2, 7168
7, 26070, Pitch_bend_c, 2, 7424
7, 26072, Pitch_bend_c, 2, 7680
7, 26073, Pitch_bend_c, 2, 8192
7, 26074, Pitch_bend_c, 2, 8192
7, 26126, Note_on_c, 2, 67, 89
7, 26179, Note_on_c, 2, 67, 0
7, 26196, Note_on_c, 2, 65, 84
7, 26260, Note_on_c, 2, 65, 0
7, 26279, Note_on_c, 2, 62, 66
7, 26934, Note_on_c, 2, 61, 65
7, 26935, Note_on_c, 2, 62, 0
7, 26963, Note_on_c, 2, 61, 0
7, 26967, Note_on_c, 2, 62, 55
7, 27003, Note_on_c, 2, 62, 0
7, 27036, Note_on_c, 2, 71, 79
7, 27055, Note_on_c, 2, 72, 82
7, 27065, Note_on_c, 2, 71, 0
7, 27113, Note_on_c, 2, 72, 0
7, 27120, Note_on_c, 2, 71, 80
7, 27135, Note_on_c, 2, 72, 59
7, 27149, Note_on_c, 2, 71, 0
7, 27359, Note_on_c, 2, 72, 0
7, 27362, Note_on_c, 2, 71, 66
7, 27524, Note_on_c, 2, 71, 0
7, 27550, Note_on_c, 2, 73, 64
7, 27564, Note_on_c, 2, 74, 62
7, 27577, Note_on_c, 2, 73, 0
7, 27621, Note_on_c, 2, 74, 0
7, 27637, Note_on_c, 2, 72, 49
7, 27701, Note_on_c, 2, 72, 0
7, 27716, Note_on_c, 2, 69, 81
7, 27768, Pitch_bend_c, 2, 8192
7, 27772, Pitch_bend_c, 2, 8192
7, 27777, Pitch_bend_c, 2, 8192
7, 27781, Pitch_bend_c, 2, 8192
7, 27787, Pitch_bend_c, 2, 7680
7, 27791, Pitch_bend_c, 2, 7552
7, 27795, Pitch_bend_c, 2, 7424
7, 27799, Pitch_bend_c, 2, 7296
7, 27803, Pitch_bend_c, 2, 7168
7, 27806, Pitch_bend_c, 2, 7040
7, 27810, Pitch_bend_c, 2, 6912
7, 27814, Pitch_bend_c, 2, 6784
7, 27819, Pitch_bend_c, 2, 6656
7, 27822, Pitch_bend_c, 2, 6528
7, 27825, Pitch_bend_c, 2, 6400
7, 27828, Pitch_bend_c, 2, 6144
7, 27832, Pitch_bend_c, 2, 6016
7, 27835, Pitch_bend_c, 2, 5888
7, 27838, Pitch_bend_c, 2, 5760
7, 27840, Pitch_bend_c, 2, 5632
7, 27844, Pitch_bend_c, 2, 5504
7, 27847, Pitch_bend_c, 2, 5376
7, 27848, Pitch_bend_c, 2, 5120
7, 27852, Pitch_bend_c, 2, 4992
7, 27855, Pitch_bend_c, 2, 4736
7, 27858, Note_on_c, 2, 69, 0
7, 27859, Pitch_bend_c, 2, 4608
7, 27864, Pitch_bend_c, 2, 4352
7, 27867, Pitch_bend_c, 2, 4224
7, 27870, Pitch_bend_c, 2, 3968
7, 27873, Pitch_bend_c, 2, 3840
7, 27875, Pitch_bend_c, 2, 3712
7, 27879, Pitch_bend_c, 2, 3456
7, 27883, Pitch_bend_c, 2, 3328
7, 27884, Pitch_bend_c, 2, 3200
7, 27887, Pitch_bend_c, 2, 2944
7, 27891, Pitch_bend_c, 2, 2816
7, 27892, Pitch_bend_c, 2, 2688
7, 27895, Pitch_bend_c, 2, 2560
7, 27897, Pitch_bend_c, 2, 2432
7, 27900, Pitch_bend_c, 2, 2304
7, 27903, Pitch_bend_c, 2, 2048
7, 27906, Pitch_bend_c, 2, 1920
7, 27910, Pitch_bend_c, 2, 1792
7, 27912, Pitch_bend_c, 2, 1664
7, 27915, Pitch_bend_c, 2, 1408
7, 27916, Pitch_bend_c, 2, 1280
7, 27919, Pitch_bend_c, 2, 1152
7, 27921, Pitch_bend_c, 2, 1024
7, 27924, Pitch_bend_c, 2, 896
7, 27927, Pitch_bend_c, 2, 768
7, 27931, Pitch_bend_c, 2, 640
7, 27933, Pitch_bend_c, 2, 512
7, 27937, Pitch_bend_c, 2, 384
7, 27940, Pitch_bend_c, 2, 128
7, 27948, Pitch_bend_c, 2, 0
7, 27964, Pitch_bend_c, 2, 256
7, 27965, Pitch_bend_c, 2, 512
7, 27967, Pitch_bend_c, 2, 640
7, 27968, Pitch_bend_c, 2, 896
7, 27970, Pitch_bend_c, 2, 1152
7, 27971, Pitch_bend_c, 2, 1536
7, 27973, Pitch_bend_c, 2, 1792
7, 27975, Pitch_bend_c, 2, 2048
7, 27976, Pitch_bend_c, 2, 2176
7, 27979, Pitch_bend_c, 2, 2304
7, 27985, Pitch_bend_c, 2, 2432
7, 27989, Pitch_bend_c, 2, 2560
7, 27991, Pitch_bend_c, 2, 2688
7, 27993, Pitch_bend_c, 2, 2816
7, 27994, Pitch_bend_c, 2, 3072
7, 27996, Pitch_bend_c, 2, 3456
7, 27997, Pitch_bend_c, 2, 3712
7, 27999, Pitch_bend_c, 2, 4096
7, 28000, Pitch_bend_c, 2, 4480
7, 28002, Pitch_bend_c, 2, 4992
7, 28004, Pitch_bend_c, 2, 5504
7, 28005, Pitch_bend_c, 2, 5888
7, 28007, Pitch_bend_c, 2, 6272
7, 28008, Pitch_bend_c, 2, 6656
7, 28010, Pitch_bend_c, 2, 6912
7, 28012, Pitch_bend_c, 2, 7296
7, 28013, Pitch_bend_c, 2, 7552
7, 28015, Pitch_bend_c, 2, 8192
7, 28015, Pitch_bend_c, 2, 8192
7, 28016, Pitch_bend_c, 2, 8192
7, 28045, Note_on_c, 2, 69, 53
7, 28068, Note_on_c, 2, 69, 0
7, 28265, Note_on_c, 2, 69, 99
7, 28301, Note_on_c, 2, 69, 0
7, 28340, Note_on_c, 2, 74, 94
7, 28380, Note_on_c, 2, 74, 0
7, 28397, Note_on_c, 2, 74, 68
7, 28454, Note_on_c, 2, 74, 0
7, 28460, Note_on_c, 2, 70, 46
7, 28475, Note_on_c, 2, 71, 64
7, 28486, Note_on_c, 2, 70, 0
7, 28927, Note_on_c, 2, 72, 89
7, 28937, Note_on_c, 2, 71, 0
7, 29096, Note_on_c, 2, 71, 78
7, 29106, Note_on_c, 2, 72, 0
7, 29169, Note_on_c, 2, 71, 0
7, 29170, Note_on_c, 2, 68, 48
7, 29194, Note_on_c, 2, 69, 66
7, 29207, Note_on_c, 2, 68, 0
7, 29400, Note_on_c, 2, 69, 0
7, 29411, Note_on_c, 2, 67, 49
7, 29512, Note_on_c, 2, 67, 0
7, 29524, Note_on_c, 2, 76, 84
7, 29806, Note_on_c, 2, 77, 70
7, 29811, Note_on_c, 2, 76, 0
7, 29838, Note_on_c, 2, 77, 0
7, 29845, Note_on_c, 2, 76, 78
7, 29886, Note_on_c, 2, 76, 0
7, 29895, Note_on_c, 2, 74, 77
7, 30005, Pitch_bend_c, 2, 8192
7, 30010, Pitch_bend_c, 2, 8192
7, 30015, Pitch_bend_c, 2, 8192
7, 30023, Pitch_bend_c, 2, 8192
7, 30029, Pitch_bend_c, 2, 7680
7, 30034, Pitch_bend_c, 2, 7552
7, 30039, Pitch_bend_c, 2, 7424
7, 30045, Pitch_bend_c, 2, 7296
7, 30047, Pitch_bend_c, 2, 7168
7, 30052, Pitch_bend_c, 2, 7040
7, 30057, Pitch_bend_c, 2, 6912
7, 30061, Pitch_bend_c, 2, 6784
7, 30066, Pitch_bend_c, 2, 6656
7, 30072, Pitch_bend_c, 2, 6528
7, 30080, Pitch_bend_c, 2, 6400
7, 30085, Pitch_bend_c, 2, 6272
7, 30093, Pitch_bend_c, 2, 6144
7, 30098, Pitch_bend_c, 2, 6016
7, 30102, Pitch_bend_c, 2, 5888
7, 30107, Pitch_bend_c, 2, 5760
7, 30110, Pitch_bend_c, 2, 5632
7, 30115, Pitch_bend_c, 2, 5504
7, 30120, Note_on_c, 2, 74, 0
7, 30120, Pitch_bend_c, 2, 5376
7, 30124, Pitch_bend_c, 2, 5120
7, 30129, Pitch_bend_c, 2, 4992
7, 30133, Pitch_bend_c, 2, 4864
7, 30140, Pitch_bend_c, 2, 4736
7, 30144, Pitch_bend_c, 2, 4608
7, 30151, Pitch_bend_c, 2, 4480
7, 30179, Pitch_bend_c, 2, 4608
7, 30180, Pitch_bend_c, 2, 4736
7, 30183, Pitch_bend_c, 2, 4992
7, 30185, Pitch_bend_c, 2, 5120
7, 30186, Pitch_bend_c, 2, 5376
7, 30190, Pitch_bend_c, 2, 5504
7, 30191, Pitch_bend_c, 2, 5632
7, 30193, Pitch_bend_c, 2, 5760
7, 30196, Pitch_bend_c, 2, 6016
7, 30197, Pitch_bend_c, 2, 6144
7, 30199, Pitch_bend_c, 2, 6272
7, 30201, Pitch_bend_c, 2, 6400
7, 30202, Pitch_bend_c, 2, 6528
7, 30204, Pitch_bend_c, 2, 6784
7, 30205, Pitch_bend_c, 2, 6912
7, 30207, Pitch_bend_c, 2, 7168
7, 30208, Pitch_bend_c, 2, 7296
7, 30210, Pitch_bend_c, 2, 7552
7, 30212, Pitch_bend_c, 2, 7680
7, 30213, Pitch_bend_c, 2, 8192
7, 30214, Pitch_bend_c, 2, 8192
7, 30215, Pitch_bend_c, 2, 8192
7, 30468, Note_on_c, 2, 72, 110
7, 30553, Note_on_c, 2, 71, 58
7, 30566, Note_on_c, 2, 72, 0
7, 30571, Note_on_c, 2, 70, 67
7, 30580, Note_on_c, 2, 71, 0
7, 30600, Note_on_c, 2, 69, 68
7, 30605, Note_on_c, 2, 70, 0
7, 30861, Note_on_c, 2, 68, 37
7, 30867, Note_on_c, 2, 69, 0
7, 30877, Note_on_c, 2, 68, 0
7, 30880, Note_on_c, 2, 67, 58
7, 30898, Note_on_c, 2, 67, 0
7, 30901, Note_on_c, 2, 66, 65
7, 30922, Note_on_c, 2, 66, 0
7, 30926, Note_on_c, 2, 65, 50
7, 30957, Note_on_c, 2, 65, 0
7, 30957, Note_on_c, 2, 64, 78
7, 31329, Note_on_c, 2, 65, 79
7, 31334, Note_on_c, 2, 64, 0
7, 31670, Note_on_c, 2, 65, 0
7, 31674, Note_on_c, 2, 64, 71
7, 31866, Note_on_c, 2, 64, 0
7, 31866, Note_on_c, 2, 65, 73
7, 31879, Note_on_c, 2, 66, 70
7, 31891, Note_on_c, 2, 67, 53
7, 31900, Note_on_c, 2, 65, 0
7, 31902, Note_on_c, 2, 66, 0
7, 31928, Note_on_c, 2, 67, 0
7, 31952, Note_on_c, 2, 65, 49
7, 31962, Note_on_c, 2, 66, 50
7, 31970, Note_on_c, 2, 66, 0
7, 31973, Note_on_c, 2, 67, 49
7, 31986, Note_on_c, 2, 65, 0
7, 32019, Note_on_c, 2, 67, 0
7, 32021, Note_on_c, 2, 65, 67
7, 32070, Note_on_c, 2, 65, 0
7, 32078, Note_on_c, 2, 62, 55
7, 32139, Note_on_c, 2, 62, 0
7, 32155, Note_on_c, 2, 62, 58
7, 32694, Note_on_c, 2, 61, 65
7, 32696, Note_on_c, 2, 62, 0
7, 32722, Note_on_c, 2, 61, 0
7, 32731, Note_on_c, 2, 62, 57
7, 32769, Note_on_c, 2, 62, 0
7, 32821, Note_on_c, 2, 69, 55
7, 32832, Note_on_c, 2, 70, 51
7, 32846, Note_on_c, 2, 69, 0
7, 32848, Note_on_c, 2, 71, 72
7, 32857, Note_on_c, 2, 70, 0
7, 32872, Note_on_c, 2, 71, 0
7, 32876, Note_on_c, 2, 72, 79
7, 33116, Note_on_c, 2, 72, 0
7, 33121, Note_on_c, 2, 71, 74
7, 33328, Note_on_c, 2, 72, 36
7, 33335, Note_on_c, 2, 73, 37
7, 33342, Note_on_c, 2, 71, 0
7, 33350, Note_on_c, 2, 72, 0
7, 33362, Note_on_c, 2, 73, 0
7, 33368, Note_on_c, 2, 74, 57
7, 33521, Note_on_c, 2, 74, 0
7, 33548, Note_on_c, 2, 72, 35
7, 33575, Note_on_c, 2, 71, 41
7, 33589, Note_on_c, 2, 72, 0
7, 33589, Note_on_c, 2, 70, 51
7, 33600, Note_on_c, 2, 71, 0
7, 33616, Note_on_c, 2, 69, 63
7, 33626, Note_on_c, 2, 70, 0
7, 34126, Note_on_c, 2, 69, 0
7, 34126, Note_on_c, 2, 74, 61
7, 34134, Note_on_c, 2, 72, 28
7, 34141, Note_on_c, 2, 72, 0
7, 34159, Note_on_c, 2, 74, 0
7, 34162, Note_on_c, 2, 69, 57
7, 34197, Note_on_c, 2, 69, 0
7, 34205, Note_on_c, 2, 71, 77
7, 34680, Note_on_c, 2, 72, 88
7, 34693, Note_on_c, 2, 71, 0
7, 34858, Note_on_c, 2, 72, 0
7, 34862, Note_on_c, 2, 71, 80
7, 34911, Note_on_c, 2, 71, 0
7, 34933, Note_on_c, 2, 68, 49
7, 34936, Note_on_c, 2, 69, 87
7, 34942, Note_on_c, 2, 68, 0
7, 34978, Pitch_bend_c, 2, 8192
7, 34981, Pitch_bend_c, 2, 8192
7, 34984, Pitch_bend_c, 2, 8192
7, 34987, Pitch_bend_c, 2, 7552
7, 34990, Pitch_bend_c, 2, 7424
7, 34993, Pitch_bend_c, 2, 7296
7, 34997, Pitch_bend_c, 2, 7040
7, 35000, Pitch_bend_c, 2, 6912
7, 35003, Pitch_bend_c, 2, 6784
7, 35006, Pitch_bend_c, 2, 6656
7, 35009, Pitch_bend_c, 2, 6400
7, 35012, Pitch_bend_c, 2, 6272
7, 35015, Pitch_bend_c, 2, 6144
7, 35019, Pitch_bend_c, 2, 6016
7, 35023, Pitch_bend_c, 2, 5888
7, 35027, Pitch_bend_c, 2, 5760
7, 35032, Note_on_c, 2, 69, 0
7, 35043, Pitch_bend_c, 2, 5888
7, 35046, Pitch_bend_c, 2, 6144
7, 35048, Pitch_bend_c, 2, 6400
7, 35050, Pitch_bend_c, 2, 6656
7, 35051, Pitch_bend_c, 2, 6912
7, 35053, Pitch_bend_c, 2, 7296
7, 35054, Pitch_bend_c, 2, 8192
7, 35055, Pitch_bend_c, 2, 8192
7, 35056, Pitch_bend_c, 2, 8192
7, 35109, Note_on_c, 2, 67, 76
7, 35113, Pitch_bend_c, 2, 8192
7, 35116, Pitch_bend_c, 2, 8192
7, 35119, Pitch_bend_c, 2, 8192
7, 35123, Pitch_bend_c, 2, 7680
7, 35126, Pitch_bend_c, 2, 7552
7, 35129, Pitch_bend_c, 2, 7296
7, 35134, Pitch_bend_c, 2, 7168
7, 35138, Pitch_bend_c, 2, 7040
7, 35140, Pitch_bend_c, 2, 6912
7, 35145, Pitch_bend_c, 2, 6784
7, 35148, Pitch_bend_c, 2, 6656
7, 35154, Pitch_bend_c, 2, 6528
7, 35157, Pitch_bend_c, 2, 6400
7, 35161, Pitch_bend_c, 2, 6272
7, 35162, Pitch_bend_c, 2, 6144
7, 35165, Pitch_bend_c, 2, 6016
7, 35169, Pitch_bend_c, 2, 5760
7, 35173, Pitch_bend_c, 2, 5632
7, 35177, Pitch_bend_c, 2, 5504
7, 35182, Pitch_bend_c, 2, 5376
7, 35187, Pitch_bend_c, 2, 5120
7, 35197, Note_on_c, 2, 67, 0
7, 35203, Pitch_bend_c, 2, 5376
7, 35206, Pitch_bend_c, 2, 5632
7, 35208, Pitch_bend_c, 2, 5760
7, 35209, Pitch_bend_c, 2, 5888
7, 35211, Pitch_bend_c, 2, 6144
7, 35212, Pitch_bend_c, 2, 6400
7, 35214, Pitch_bend_c, 2, 6656
7, 35215, Pitch_bend_c, 2, 6912
7, 35217, Pitch_bend_c, 2, 7296
7, 35219, Pitch_bend_c, 2, 7680
7, 35220, Pitch_bend_c, 2, 8192
7, 35221, Pitch_bend_c, 2, 8192
7, 35222, Pitch_bend_c, 2, 8192
7, 35393, Note_on_c, 2, 76, 101
7, 35458, Note_on_c, 2, 76, 0
7, 35468, Note_on_c, 2, 77, 83
7, 35510, Note_on_c, 2, 77, 0
7, 35512, Note_on_c, 2, 76, 76
7, 35625, Note_on_c, 2, 76, 0
7, 35629, Note_on_c, 2, 73, 38
7, 35638, Note_on_c, 2, 74, 71
7, 35651, Note_on_c, 2, 73, 0
7, 35957, Note_on_c, 2, 72, 54
7, 35958, Note_on_c, 2, 74, 0
7, 36036, Note_on_c, 2, 72, 0
7, 36039, Note_on_c, 2, 69, 58
7, 36324, Note_on_c, 2, 69, 0
7, 36324, Note_on_c, 2, 67, 37
7, 36361, Note_on_c, 2, 67, 0
7, 36370, Note_on_c, 2, 69, 55
7, 37166, Note_on_c, 2, 74, 83
7, 37169, Note_on_c, 2, 69, 0
7, 37221, Note_on_c, 2, 74, 0
7, 37222, Note_on_c, 2, 76, 81
7, 38099, Note_on_c, 2, 73, 51
7, 38102, Note_on_c, 2, 76, 0
7, 38110, Note_on_c, 2, 74, 71
7, 38126, Note_on_c, 2, 73, 0
7, 38152, Note_on_c, 2, 74, 0
7, 38171, Note_on_c, 2, 73, 70
7, 38285, Note_on_c, 2, 73, 0
7, 38290, Note_on_c, 2, 72, 58
7, 38405, Note_on_c, 2, 72, 0
7, 38406, Note_on_c, 2, 71, 68
7, 38525, Note_on_c, 2, 64, 56
7, 38527, Note_on_c, 2, 71, 0
7, 39285, Note_on_c, 2, 64, 0
7, 39368, Note_on_c, 2, 64, 87
7, 39512, Note_on_c, 2, 65, 45
7, 39529, Note_on_c, 2, 66, 65
7, 39532, Note_on_c, 2, 64, 0
7, 39548, Note_on_c, 2, 65, 0
7, 39560, Note_on_c, 2, 67, 66
7, 39569, Note_on_c, 2, 66, 0
7, 39597, Note_on_c, 2, 68, 83
7, 39600, Note_on_c, 2, 67, 0
7, 39905, Note_on_c, 2, 71, 77
7, 39912, Note_on_c, 2, 68, 0
7, 39969, Note_on_c, 2, 73, 62
7, 39978, Note_on_c, 2, 71, 0
7, 40270, Note_on_c, 2, 73, 0
7, 40270, Note_on_c, 2, 74, 80
7, 40326, Note_on_c, 2, 74, 0
7, 40332, Note_on_c, 2, 73, 49
7, 40525, Note_on_c, 2, 68, 82
7, 40537, Note_on_c, 2, 73, 0
7, 40593, Note_on_c, 2, 69, 64
7, 40623, Note_on_c, 2, 70, 46
7, 40629, Note_on_c, 2, 68, 0
7, 40640, Note_on_c, 2, 69, 0
7, 40645, Note_on_c, 2, 71, 70
7, 40650, Note_on_c, 2, 70, 0
7, 40673, Note_on_c, 2, 71, 0
7, 40678, Note_on_c, 2, 72, 72
7, 40957, Note_on_c, 2, 72, 0
7, 40964, Note_on_c, 2, 60, 59
7, 41002, Note_on_c, 2, 60, 0
7, 41006, Note_on_c, 2, 61, 59
7, 41032, Note_on_c, 2, 61, 0
7, 41073, Note_on_c, 2, 71, 49
7, 41074, Note_on_c, 2, 72, 49
7, 41074, Note_on_c, 2, 70, 17
7, 41095, Note_on_c, 2, 72, 0
7, 41098, Note_on_c, 2, 71, 0
7, 41120, Note_on_c, 2, 70, 0
7, 41152, Note_on_c, 2, 70, 76
7, 41289, Note_on_c, 2, 70, 0
7, 41315, Note_on_c, 2, 60, 57
7, 41351, Note_on_c, 2, 60, 0
7, 41356, Note_on_c, 2, 61, 48
7, 41390, Note_on_c, 2, 61, 0
7, 41407, Note_on_c, 2, 71, 71
7, 41596, Note_on_c, 2, 71, 0
7, 41624, Note_on_c, 2, 59, 54
7, 41663, Note_on_c, 2, 59, 0
7, 41667, Note_on_c, 2, 60, 42
7, 41695, Note_on_c, 2, 60, 0
7, 41696, Note_on_c, 2, 61, 71
7, 41723, Note_on_c, 2, 61, 0
7, 41728, Note_on_c, 2, 62, 64
7, 41758, Note_on_c, 2, 62, 0
7, 41771, Note_on_c, 2, 70, 85
7, 42003, Note_on_c, 2, 70, 0
7, 42007, Note_on_c, 2, 59, 55
7, 42047, Note_on_c, 2, 60, 64
7, 42053, Note_on_c, 2, 59, 0
7, 42078, Note_on_c, 2, 60, 0
7, 42082, Note_on_c, 2, 61, 62
7, 42109, Note_on_c, 2, 61, 0
7, 42136, Note_on_c, 2, 69, 68
7, 42437, Note_on_c, 2, 65, 63
7, 42442, Note_on_c, 2, 69, 0
7, 42493, Note_on_c, 2, 65, 0
7, 42498, Note_on_c, 2, 64, 71
7, 42839, Note_on_c, 2, 65, 90
7, 42840, Note_on_c, 2, 64, 0
7, 43013, Pitch_bend_c, 2, 8192
7, 43015, Pitch_bend_c, 2, 8192
7, 43017, Pitch_bend_c, 2, 8192
7, 43020, Pitch_bend_c, 2, 7552
7, 43022, Pitch_bend_c, 2, 7424
7, 43023, Pitch_bend_c, 2, 7296
7, 43025, Pitch_bend_c, 2, 7168
7, 43027, Pitch_bend_c, 2, 7040
7, 43028, Pitch_bend_c, 2, 6912
7, 43030, Pitch_bend_c, 2, 6656
7, 43031, Pitch_bend_c, 2, 6528
7, 43033, Pitch_bend_c, 2, 6400
7, 43035, Pitch_bend_c, 2, 6144
7, 43036, Pitch_bend_c, 2, 6016
7, 43038, Pitch_bend_c, 2, 5888
7, 43039, Pitch_bend_c, 2, 5760
7, 43042, Pitch_bend_c, 2, 5504
7, 43045, Pitch_bend_c, 2, 5376
7, 43048, Pitch_bend_c, 2, 5120
7, 43053, Pitch_bend_c, 2, 4992
7, 43057, Pitch_bend_c, 2, 4864
7, 43065, Pitch_bend_c, 2, 4736
7, 43070, Pitch_bend_c, 2, 4608
7, 43076, Pitch_bend_c, 2, 4480
7, 43082, Pitch_bend_c, 2, 4352
7, 43084, Note_on_c, 2, 65, 0
7, 43087, Pitch_bend_c, 2, 4224
7, 43093, Pitch_bend_c, 2, 4480
7, 43094, Pitch_bend_c, 2, 4736
7, 43096, Pitch_bend_c, 2, 5120
7, 43098, Pitch_bend_c, 2, 5632
7, 43099, Pitch_bend_c, 2, 6144
7, 43101, Pitch_bend_c, 2, 6784
7, 43102, Pitch_bend_c, 2, 7296
7, 43104, Pitch_bend_c, 2, 8192
7, 43104, Pitch_bend_c, 2, 8192
7, 43213, Note_on_c, 2, 67, 85
7, 43387, Note_on_c, 2, 67, 0
7, 43393, Note_on_c, 2, 72, 90
7, 43478, Pitch_bend_c, 2, 8192
7, 43486, Pitch_bend_c, 2, 8192
7, 43491, Pitch_bend_c, 2, 8192
7, 43495, Pitch_bend_c, 2, 8192
7, 43499, Pitch_bend_c, 2, 7680
7, 43504, Pitch_bend_c, 2, 7424
7, 43508, Pitch_bend_c, 2, 7296
7, 43510, Pitch_bend_c, 2, 7168
7, 43513, Pitch_bend_c, 2, 7040
7, 43516, Pitch_bend_c, 2, 6912
7, 43521, Pitch_bend_c, 2, 6784
7, 43524, Pitch_bend_c, 2, 6656
7, 43527, Pitch_bend_c, 2, 6528
7, 43529, Pitch_bend_c, 2, 6400
7, 43532, Pitch_bend_c, 2, 6144
7, 43534, Pitch_bend_c, 2, 6016
7, 43540, Note_on_c, 2, 72, 0
7, 43548, Pitch_bend_c, 2, 6272
7, 43549, Pitch_bend_c, 2, 6400
7, 43551, Pitch_bend_c, 2, 6656
7, 43552, Pitch_bend_c, 2, 6912
7, 43554, Pitch_bend_c, 2, 7296
7, 43555, Pitch_bend_c, 2, 7552
7, 43557, Pitch_bend_c, 2, 8192
7, 43558, Pitch_bend_c, 2, 8192
7, 43559, Pitch_bend_c, 2, 8192
7, 43575, Note_on_c, 2, 69, 84
7, 43930, Note_on_c, 2, 69, 0
7, 44111, Note_on_c, 2, 69, 88
7, 44144, Note_on_c, 2, 69, 0
7, 44187, Note_on_c, 2, 74, 92
7, 44264, Note_on_c, 2, 74, 0
7, 44281, Note_on_c, 2, 71, 87
7, 44360, Pitch_bend_c, 2, 8192
7, 44367, Pitch_bend_c, 2, 8192
7, 44375, Pitch_bend_c, 2, 8192
7, 44384, Pitch_bend_c, 2, 8192
7, 44388, Pitch_bend_c, 2, 7680
7, 44392, Pitch_bend_c, 2, 7552
7, 44397, Pitch_bend_c, 2, 7424
7, 44402, Pitch_bend_c, 2, 7296
7, 44407, Pitch_bend_c, 2, 7168
7, 44411, Pitch_bend_c, 2, 7040
7, 44414, Pitch_bend_c, 2, 6912
7, 44418, Pitch_bend_c, 2, 6784
7, 44421, Pitch_bend_c, 2, 6656
7, 44428, Pitch_bend_c, 2, 6528
7, 44429, Pitch_bend_c, 2, 6400
7, 44440, Pitch_bend_c, 2, 6272
7, 44447, Pitch_bend_c, 2, 6144
7, 44452, Pitch_bend_c, 2, 6016
7, 44458, Pitch_bend_c, 2, 5888
7, 44459, Note_on_c, 2, 71, 0
7, 44461, Pitch_bend_c, 2, 5760
7, 44466, Pitch_bend_c, 2, 5632
7, 44481, Pitch_bend_c, 2, 5760
7, 44485, Pitch_bend_c, 2, 5888
7, 44489, Pitch_bend_c, 2, 6016
7, 44492, Pitch_bend_c, 2, 6272
7, 44494, Pitch_bend_c, 2, 6400
7, 44495, Pitch_bend_c, 2, 6528
7, 44497, Pitch_bend_c, 2, 6784
7, 44498, Pitch_bend_c, 2, 7168
7, 44500, Pitch_bend_c, 2, 8192
7, 44501, Pitch_bend_c, 2, 8192
7, 44643, Note_on_c, 2, 72, 94
7, 44646, Note_on_c, 2, 71, 71
7, 44653, Note_on_c, 2, 71, 0
7, 44777, Control_c, 2, 64, 127
7, 44985, Note_on_c, 2, 72, 0
7, 45068, Control_c, 2, 64, 0
7, 45071, Note_on_c, 2, 72, 88
7, 45274, Note_on_c, 2, 72, 0
7, 45312, Note_on_c, 2, 72, 82
7, 45361, Note_on_c, 2, 72, 0
7, 45383, Note_on_c, 2, 72, 68
7, 45655, Note_on_c, 2, 71, 75
7, 45659, Note_on_c, 2, 72, 0
7, 45695, Note_on_c, 2, 72, 68
7, 45702, Note_on_c, 2, 71, 0
7, 45741, Note_on_c, 2, 72, 0
7, 45754, Note_on_c, 2, 74, 81
7, 45941, Note_on_c, 2, 72, 79
7, 45950, Note_on_c, 2, 74, 0
7, 46016, Note_on_c, 2, 72, 0
7, 46022, Note_on_c, 2, 74, 84
7, 46026, Note_on_c, 2, 72, 41
7, 46034, Note_on_c, 2, 72, 0
7, 46102, Note_on_c, 2, 75, 84
7, 46106, Note_on_c, 2, 74, 0
7, 46111, Note_on_c, 2, 76, 81
7, 46114, Note_on_c, 2, 75, 0
7, 46394, Note_on_c, 2, 77, 74
7, 46401, Note_on_c, 2, 76, 0
7, 46598, Note_on_c, 2, 77, 0
7, 46628, Note_on_c, 2, 78, 47
7, 46652, Note_on_c, 2, 79, 53
7, 46661, Note_on_c, 2, 78, 0
7, 46680, Note_on_c, 2, 79, 0
7, 46682, Note_on_c, 2, 80, 54
7, 46802, Note_on_c, 2, 76, 71
7, 46811, Note_on_c, 2, 80, 0
7, 47149, Note_on_c, 2, 76, 0
7, 47159, Note_on_c, 2, 74, 78
7, 47364, Note_on_c, 2, 68, 75
7, 47365, Note_on_c, 2, 74, 0
7, 47448, Note_on_c, 2, 68, 0
7, 47451, Note_on_c, 2, 74, 71
7, 47539, Note_on_c, 2, 74, 0
7, 47541, Note_on_c, 2, 72, 56
7, 48367, Control_c, 2, 1, 2
7, 48369, Control_c, 2, 1, 4
7, 48372, Control_c, 2, 1, 6
7, 48374, Control_c, 2, 1, 8
7, 48375, Control_c, 2, 1, 9
7, 48376, Control_c, 2, 1, 10
7, 48377, Control_c, 2, 1, 11
7, 48379, Control_c, 2, 1, 13
7, 48380, Control_c, 2, 1, 14
7, 48381, Control_c, 2, 1, 15
7, 48384, Control_c, 2, 1, 17
7, 48385, Control_c, 2, 1, 18
7, 48387, Control_c, 2, 1, 20
7, 48390, Control_c, 2, 1, 21
7, 48393, Control_c, 2, 1, 23
7, 48395, Control_c, 2, 1, 24
7, 48398, Control_c, 2, 1, 25
7, 48401, Control_c, 2, 1, 27
7, 48403, Control_c, 2, 1, 29
7, 48406, Control_c, 2, 1, 30
7, 48406, Control_c, 2, 1, 31
7, 48407, Control_c, 2, 1, 32
7, 48410, Control_c, 2, 1, 34
7, 48411, Control_c, 2, 1, 35
7, 48414, Control_c, 2, 1, 36
7, 48415, Control_c, 2, 1, 37
7, 48418, Control_c, 2, 1, 39
7, 48421, Control_c, 2, 1, 40
7, 48424, Control_c, 2, 1, 41
7, 48442, Control_c, 2, 1, 42
7, 48451, Control_c, 2, 1, 43
7, 48468, Control_c, 2, 1, 42
7, 48470, Control_c, 2, 1, 40
7, 48471, Control_c, 2, 1, 39
7, 48472, Control_c, 2, 1, 38
7, 48475, Control_c, 2, 1, 36
7, 48478, Control_c, 2, 1, 34
7, 48478, Control_c, 2, 1, 35
7, 48482, Control_c, 2, 1, 32
7, 48485, Control_c, 2, 1, 30
7, 48487, Control_c, 2, 1, 28
7, 48490, Control_c, 2, 1, 27
7, 48491, Control_c, 2, 1, 26
7, 48493, Control_c, 2, 1, 24
7, 48496, Control_c, 2, 1, 22
7, 48497, Control_c, 2, 1, 21
7, 48499, Control_c, 2, 1, 19
7, 48500, Control_c, 2, 1, 18
7, 48503, Control_c, 2, 1, 16
7, 48505, Control_c, 2, 1, 15
7, 48507, Control_c, 2, 1, 14
7, 48509, Control_c, 2, 1, 12
7, 48512, Control_c, 2, 1, 11
7, 48515, Control_c, 2, 1, 9
7, 48519, Control_c, 2, 1, 8
7, 48523, Control_c, 2, 1, 6
7, 48526, Control_c, 2, 1, 4
7, 48526, Control_c, 2, 1, 5
7, 48529, Control_c, 2, 1, 3
7, 48531, Control_c, 2, 1, 2
7, 48532, Control_c, 2, 1, 1
7, 48991, Note_on_c, 2, 72, 0
7, 48991, End_track
8, 0, Start_track
8, 0, Title_t, ""
8, 0, End_track
9, 0, Start_track
9, 0, Title_t, ""
9, 0, End_track
0, 0, End_of_file
