0, 0, Header, 1, 2, 960
1, 0, Start_track
1, 0, Title_t, "untitled"
1, 0, Copyright_t, "Copyright © 2005 by Doug McKenzie"
1, 0, Text_t, "Doug McKenzie"
1, 0, Time_signature, 4, 2, 24, 8
1, 0, Key_signature, -2, "major"
1, 0, Tempo, 428571
1, 0, End_track
2, 0, Start_track
2, 0, Title_t, "Track 1"
2, 724, Control_c, 0, 64, 127
2, 984, Control_c, 0, 64, 0
2, 1593, Control_c, 0, 64, 127
2, 3572, Note_on_c, 0, 81, 55
2, 3689, Note_on_c, 0, 77, 34
2, 3694, Control_c, 0, 64, 0
2, 3697, Note_on_c, 0, 74, 40
2, 3753, Note_on_c, 0, 46, 23
2, 3918, Control_c, 0, 64, 127
2, 4094, Note_on_c, 0, 46, 0
2, 4563, Note_on_c, 0, 60, 31
2, 5136, Note_on_c, 0, 74, 0
2, 5187, Note_on_c, 0, 77, 0
2, 5211, Note_on_c, 0, 62, 34
2, 5236, Note_on_c, 0, 81, 0
2, 5844, Note_on_c, 0, 86, 39
2, 5849, Note_on_c, 0, 65, 34
2, 5862, Note_on_c, 0, 93, 35
2, 5960, Note_on_c, 0, 62, 0
2, 6396, Note_on_c, 0, 93, 0
2, 6494, Note_on_c, 0, 89, 40
2, 6510, Note_on_c, 0, 65, 0
2, 6513, Note_on_c, 0, 62, 30
2, 6537, Note_on_c, 0, 81, 25
2, 6694, Note_on_c, 0, 81, 0
2, 6713, Note_on_c, 0, 86, 0
2, 6816, Note_on_c, 0, 89, 0
2, 7228, Note_on_c, 0, 98, 51
2, 7238, Note_on_c, 0, 65, 30
2, 7248, Note_on_c, 0, 105, 41
2, 7316, Note_on_c, 0, 62, 0
2, 7835, Note_on_c, 0, 98, 0
2, 7955, Note_on_c, 0, 105, 0
2, 8040, Note_on_c, 0, 93, 26
2, 8054, Note_on_c, 0, 101, 28
2, 8057, Note_on_c, 0, 62, 24
2, 8062, Note_on_c, 0, 65, 0
2, 8094, Note_on_c, 0, 98, 24
2, 8694, Note_on_c, 0, 98, 0
2, 8718, Note_on_c, 0, 101, 0
2, 9096, Note_on_c, 0, 93, 0
2, 9732, Note_on_c, 0, 62, 0
2, 9851, Note_on_c, 0, 60, 0
2, 11174, Note_on_c, 0, 56, 50
2, 11262, Note_on_c, 0, 92, 53
2, 11313, Note_on_c, 0, 93, 66
2, 11328, Note_on_c, 0, 57, 57
2, 11380, Note_on_c, 0, 56, 0
2, 11425, Note_on_c, 0, 93, 0
2, 11473, Note_on_c, 0, 58, 72
2, 11476, Note_on_c, 0, 57, 0
2, 11481, Note_on_c, 0, 94, 77
2, 11536, Note_on_c, 0, 92, 0
2, 11598, Control_c, 0, 64, 0
2, 11808, Control_c, 0, 64, 127
2, 13060, Note_on_c, 0, 58, 0
2, 14145, Note_on_c, 0, 94, 0
2, 14184, Note_on_c, 0, 92, 53
2, 14251, Note_on_c, 0, 40, 34
2, 14276, Control_c, 0, 64, 0
2, 14582, Control_c, 0, 64, 127
2, 14971, Note_on_c, 0, 92, 0
2, 15099, Note_on_c, 0, 40, 0
2, 15188, Note_on_c, 0, 52, 41
2, 15390, Note_on_c, 0, 52, 0
2, 15968, Note_on_c, 0, 56, 48
2, 16588, Note_on_c, 0, 73, 39
2, 16601, Note_on_c, 0, 66, 57
2, 16604, Note_on_c, 0, 62, 32
2, 16664, Note_on_c, 0, 70, 42
2, 16838, Note_on_c, 0, 66, 0
2, 16923, Note_on_c, 0, 70, 0
2, 16960, Note_on_c, 0, 73, 0
2, 17235, Note_on_c, 0, 62, 0
2, 17708, Note_on_c, 0, 82, 44
2, 17771, Note_on_c, 0, 62, 32
2, 17785, Note_on_c, 0, 73, 54
2, 18083, Note_on_c, 0, 82, 0
2, 18139, Note_on_c, 0, 73, 0
2, 18233, Note_on_c, 0, 62, 0
2, 18651, Note_on_c, 0, 78, 37
2, 18676, Note_on_c, 0, 70, 35
2, 18696, Note_on_c, 0, 62, 27
2, 19219, Note_on_c, 0, 62, 0
2, 19521, Note_on_c, 0, 70, 0
2, 20068, Note_on_c, 0, 78, 0
2, 20292, Note_on_c, 0, 56, 0
2, 21204, Note_on_c, 0, 66, 30
2, 21235, Note_on_c, 0, 70, 38
2, 21236, Note_on_c, 0, 56, 36
2, 21256, Note_on_c, 0, 62, 29
2, 21579, Note_on_c, 0, 62, 0
2, 21627, Note_on_c, 0, 70, 0
2, 21640, Note_on_c, 0, 66, 0
2, 21742, Note_on_c, 0, 56, 0
2, 24568, Note_on_c, 0, 69, 84
2, 24942, Note_on_c, 0, 69, 0
2, 24993, Note_on_c, 0, 70, 71
2, 25449, Note_on_c, 0, 70, 0
2, 25452, Note_on_c, 0, 67, 75
2, 25468, Note_on_c, 0, 39, 60
2, 25520, Control_c, 0, 64, 0
2, 25857, Control_c, 0, 64, 127
2, 26110, Note_on_c, 0, 46, 62
2, 26137, Note_on_c, 0, 39, 0
2, 26148, Note_on_c, 0, 67, 0
2, 26616, Note_on_c, 0, 46, 0
2, 26665, Note_on_c, 0, 55, 51
2, 27224, Note_on_c, 0, 55, 0
2, 27267, Note_on_c, 0, 58, 52
2, 28056, Note_on_c, 0, 72, 46
2, 28073, Note_on_c, 0, 67, 27
2, 28080, Note_on_c, 0, 65, 43
2, 28854, Note_on_c, 0, 67, 0
2, 28889, Note_on_c, 0, 58, 0
2, 29216, Note_on_c, 0, 58, 45
2, 29240, Note_on_c, 0, 65, 0
2, 29302, Note_on_c, 0, 72, 0
2, 30836, Note_on_c, 0, 77, 54
2, 30844, Note_on_c, 0, 81, 60
2, 30854, Note_on_c, 0, 72, 58
2, 30865, Note_on_c, 0, 67, 40
2, 30876, Control_c, 0, 64, 0
2, 31052, Control_c, 0, 64, 127
2, 31286, Note_on_c, 0, 81, 0
2, 31313, Note_on_c, 0, 67, 0
2, 31321, Note_on_c, 0, 77, 0
2, 31324, Note_on_c, 0, 72, 0
2, 31667, Note_on_c, 0, 82, 60
2, 31668, Note_on_c, 0, 68, 42
2, 31675, Note_on_c, 0, 78, 56
2, 31676, Note_on_c, 0, 73, 49
2, 31755, Note_on_c, 0, 68, 0
2, 31900, Note_on_c, 0, 58, 0
2, 32008, Note_on_c, 0, 73, 0
2, 32083, Note_on_c, 0, 78, 0
2, 32104, Note_on_c, 0, 82, 0
2, 32531, Note_on_c, 0, 52, 29
2, 32539, Note_on_c, 0, 81, 45
2, 32548, Note_on_c, 0, 78, 36
2, 32555, Note_on_c, 0, 62, 34
2, 32558, Note_on_c, 0, 74, 50
2, 32608, Note_on_c, 0, 69, 17
2, 32624, Control_c, 0, 64, 0
2, 32977, Control_c, 0, 64, 127
2, 33230, Note_on_c, 0, 62, 0
2, 33284, Note_on_c, 0, 58, 36
2, 33483, Note_on_c, 0, 81, 0
2, 33488, Note_on_c, 0, 69, 0
2, 33955, Note_on_c, 0, 74, 0
2, 33988, Note_on_c, 0, 69, 32
2, 34043, Note_on_c, 0, 78, 0
2, 34046, Note_on_c, 0, 62, 20
2, 35121, Note_on_c, 0, 52, 0
2, 35198, Note_on_c, 0, 58, 0
2, 35328, Note_on_c, 0, 62, 0
2, 35468, Note_on_c, 0, 69, 0
2, 37270, Note_on_c, 0, 70, 44
2, 37272, Note_on_c, 0, 69, 33
2, 37281, Note_on_c, 0, 73, 35
2, 37299, Note_on_c, 0, 79, 40
2, 37355, Control_c, 0, 64, 0
2, 37628, Control_c, 0, 64, 127
2, 37880, Note_on_c, 0, 69, 0
2, 38084, Note_on_c, 0, 67, 36
2, 38222, Note_on_c, 0, 79, 0
2, 38281, Note_on_c, 0, 67, 0
2, 40179, Note_on_c, 0, 70, 0
2, 40227, Note_on_c, 0, 73, 0
2, 40625, Note_on_c, 0, 78, 45
2, 40636, Note_on_c, 0, 50, 32
2, 40652, Note_on_c, 0, 71, 36
2, 40656, Note_on_c, 0, 73, 38
2, 40691, Control_c, 0, 64, 0
2, 41044, Control_c, 0, 64, 127
2, 41467, Note_on_c, 0, 57, 33
2, 41628, Note_on_c, 0, 78, 0
2, 41654, Note_on_c, 0, 73, 0
2, 41683, Note_on_c, 0, 71, 0
2, 42280, Note_on_c, 0, 71, 56
2, 42665, Note_on_c, 0, 66, 49
2, 42702, Note_on_c, 0, 71, 0
2, 43012, Note_on_c, 0, 66, 0
2, 43088, Note_on_c, 0, 64, 38
2, 43404, Note_on_c, 0, 64, 0
2, 43518, Note_on_c, 0, 74, 44
2, 43520, Note_on_c, 0, 76, 42
2, 43651, Note_on_c, 0, 50, 0
2, 43700, Note_on_c, 0, 76, 0
2, 43787, Note_on_c, 0, 74, 0
2, 43956, Note_on_c, 0, 71, 31
2, 43964, Note_on_c, 0, 50, 30
2, 44027, Control_c, 0, 64, 0
2, 44118, Note_on_c, 0, 57, 0
2, 44316, Control_c, 0, 64, 127
2, 44419, Note_on_c, 0, 71, 0
2, 44422, Note_on_c, 0, 64, 48
2, 44851, Note_on_c, 0, 64, 0
2, 44944, Note_on_c, 0, 66, 42
2, 44958, Note_on_c, 0, 57, 34
2, 45408, Note_on_c, 0, 57, 0
2, 45484, Note_on_c, 0, 59, 29
2, 45833, Note_on_c, 0, 59, 0
2, 46080, Note_on_c, 0, 59, 41
2, 46412, Note_on_c, 0, 66, 0
2, 46656, Note_on_c, 0, 61, 42
2, 46657, Note_on_c, 0, 59, 0
2, 47188, Note_on_c, 0, 61, 0
2, 47352, Note_on_c, 0, 61, 53
2, 47408, Note_on_c, 0, 57, 22
2, 47876, Note_on_c, 0, 57, 0
2, 47920, Note_on_c, 0, 50, 0
2, 48091, Note_on_c, 0, 62, 60
2, 48784, Note_on_c, 0, 61, 0
2, 48864, Note_on_c, 0, 62, 0
2, 49128, Control_c, 0, 64, 0
2, 49153, Note_on_c, 0, 65, 58
2, 49155, Note_on_c, 0, 32, 56
2, 49164, Note_on_c, 0, 58, 48
2, 49193, Note_on_c, 0, 62, 52
2, 49368, Control_c, 0, 64, 127
2, 49451, Note_on_c, 0, 58, 0
2, 49460, Note_on_c, 0, 62, 0
2, 49502, Note_on_c, 0, 32, 0
2, 49516, Note_on_c, 0, 65, 0
2, 50028, Note_on_c, 0, 70, 67
2, 50033, Note_on_c, 0, 77, 59
2, 50044, Note_on_c, 0, 74, 58
2, 50049, Note_on_c, 0, 65, 66
2, 50052, Note_on_c, 0, 54, 45
2, 50185, Note_on_c, 0, 65, 0
2, 50248, Note_on_c, 0, 70, 0
2, 50273, Note_on_c, 0, 74, 0
2, 50308, Note_on_c, 0, 77, 0
2, 50907, Note_on_c, 0, 89, 71
2, 50921, Note_on_c, 0, 60, 62
2, 50923, Note_on_c, 0, 82, 72
2, 50924, Note_on_c, 0, 86, 74
2, 50929, Note_on_c, 0, 77, 72
2, 51124, Note_on_c, 0, 86, 0
2, 51128, Note_on_c, 0, 89, 0
2, 51171, Note_on_c, 0, 82, 0
2, 51180, Note_on_c, 0, 77, 0
2, 51348, Note_on_c, 0, 60, 0
2, 51587, Note_on_c, 0, 54, 0
2, 51896, Note_on_c, 0, 65, 60
2, 51912, Note_on_c, 0, 58, 69
2, 51920, Note_on_c, 0, 62, 62
2, 52528, Note_on_c, 0, 58, 0
2, 52587, Note_on_c, 0, 62, 0
2, 52696, Note_on_c, 0, 65, 0
2, 53134, Note_on_c, 0, 57, 45
2, 53137, Note_on_c, 0, 31, 38
2, 53139, Note_on_c, 0, 65, 41
2, 53144, Control_c, 0, 64, 0
2, 53152, Note_on_c, 0, 62, 49
2, 53155, Note_on_c, 0, 60, 46
2, 53171, Note_on_c, 0, 43, 24
2, 53625, Control_c, 0, 64, 127
2, 53976, Note_on_c, 0, 31, 0
2, 54064, Note_on_c, 0, 43, 0
2, 54158, Note_on_c, 0, 57, 0
2, 54339, Note_on_c, 0, 62, 0
2, 54340, Note_on_c, 0, 60, 0
2, 54521, Note_on_c, 0, 60, 45
2, 54539, Note_on_c, 0, 62, 51
2, 54544, Note_on_c, 0, 56, 45
2, 55521, Note_on_c, 0, 56, 0
2, 55536, Note_on_c, 0, 60, 0
2, 55716, Note_on_c, 0, 62, 0
2, 55878, Note_on_c, 0, 43, 32
2, 55894, Note_on_c, 0, 56, 34
2, 55908, Note_on_c, 0, 59, 34
2, 55936, Note_on_c, 0, 62, 9
2, 55940, Note_on_c, 0, 55, 29
2, 55966, Control_c, 0, 64, 0
2, 56272, Control_c, 0, 64, 127
2, 56510, Note_on_c, 0, 65, 0
2, 56512, Note_on_c, 0, 56, 0
2, 56892, Note_on_c, 0, 62, 0
2, 57387, Note_on_c, 0, 55, 0
2, 57390, Note_on_c, 0, 67, 57
2, 57635, Note_on_c, 0, 43, 0
2, 57729, Note_on_c, 0, 67, 0
2, 57830, Note_on_c, 0, 59, 0
2, 58724, Note_on_c, 0, 63, 37
2, 58742, Control_c, 0, 64, 0
2, 58755, Note_on_c, 0, 54, 32
2, 58795, Note_on_c, 0, 58, 38
2, 58798, Note_on_c, 0, 36, 36
2, 58804, Note_on_c, 0, 60, 31
2, 58811, Note_on_c, 0, 48, 27
2, 59078, Control_c, 0, 64, 127
2, 59100, Note_on_c, 0, 36, 0
2, 59401, Note_on_c, 0, 48, 0
2, 59638, Note_on_c, 0, 48, 82
2, 60379, Note_on_c, 0, 48, 0
2, 60496, Note_on_c, 0, 48, 80
2, 61403, Note_on_c, 0, 48, 0
2, 61497, Note_on_c, 0, 43, 56
2, 61644, Control_c, 0, 64, 0
2, 61836, Control_c, 0, 64, 127
2, 62097, Note_on_c, 0, 63, 0
2, 62099, Note_on_c, 0, 54, 0
2, 62147, Note_on_c, 0, 58, 0
2, 62244, Note_on_c, 0, 60, 0
2, 62595, Note_on_c, 0, 43, 0
2, 62641, Note_on_c, 0, 63, 44
2, 62672, Note_on_c, 0, 52, 29
2, 62675, Note_on_c, 0, 58, 53
2, 62686, Control_c, 0, 64, 0
2, 62702, Note_on_c, 0, 42, 37
2, 63024, Control_c, 0, 64, 127
2, 63702, Note_on_c, 0, 63, 0
2, 63902, Note_on_c, 0, 63, 40
2, 63982, Note_on_c, 0, 42, 0
2, 64302, Note_on_c, 0, 52, 0
2, 64782, Note_on_c, 0, 63, 0
2, 64790, Note_on_c, 0, 58, 0
2, 65265, Note_on_c, 0, 63, 40
2, 65318, Note_on_c, 0, 54, 25
2, 65328, Note_on_c, 0, 41, 34
2, 65337, Note_on_c, 0, 58, 35
2, 65352, Note_on_c, 0, 60, 34
2, 65380, Control_c, 0, 64, 0
2, 65403, Note_on_c, 0, 53, 17
2, 65766, Control_c, 0, 64, 127
2, 66120, Note_on_c, 0, 53, 0
2, 66320, Note_on_c, 0, 63, 0
2, 66574, Note_on_c, 0, 63, 51
2, 66937, Note_on_c, 0, 60, 0
2, 66958, Note_on_c, 0, 54, 0
2, 67131, Note_on_c, 0, 63, 0
2, 67384, Note_on_c, 0, 58, 0
2, 67798, Note_on_c, 0, 65, 34
2, 67808, Note_on_c, 0, 58, 42
2, 67819, Control_c, 0, 64, 0
2, 67824, Note_on_c, 0, 62, 43
2, 67843, Note_on_c, 0, 57, 49
2, 67848, Note_on_c, 0, 53, 25
2, 68060, Control_c, 0, 64, 127
2, 68158, Note_on_c, 0, 57, 0
2, 68246, Note_on_c, 0, 58, 0
2, 68268, Note_on_c, 0, 62, 0
2, 68336, Note_on_c, 0, 65, 0
2, 68619, Note_on_c, 0, 41, 0
2, 68710, Note_on_c, 0, 53, 0
2, 69491, Note_on_c, 0, 74, 64
2, 69508, Note_on_c, 0, 65, 37
2, 69539, Note_on_c, 0, 62, 36
2, 69577, Note_on_c, 0, 60, 36
2, 69987, Note_on_c, 0, 65, 0
2, 70177, Note_on_c, 0, 74, 0
2, 70566, Note_on_c, 0, 53, 48
2, 70582, Note_on_c, 0, 77, 66
2, 71027, Note_on_c, 0, 77, 0
2, 71289, Note_on_c, 0, 79, 89
2, 71555, Note_on_c, 0, 60, 0
2, 71584, Note_on_c, 0, 79, 0
2, 71619, Note_on_c, 0, 62, 0
2, 72035, Note_on_c, 0, 58, 34
2, 72096, Note_on_c, 0, 70, 49
2, 72099, Note_on_c, 0, 63, 37
2, 72134, Note_on_c, 0, 75, 57
2, 72140, Note_on_c, 0, 65, 55
2, 72164, Control_c, 0, 64, 0
2, 72224, Note_on_c, 0, 79, 53
2, 72280, Note_on_c, 0, 82, 57
2, 72484, Control_c, 0, 64, 127
2, 73046, Note_on_c, 0, 58, 0
2, 73054, Note_on_c, 0, 53, 0
2, 73145, Note_on_c, 0, 63, 0
2, 73328, Note_on_c, 0, 53, 31
2, 73995, Note_on_c, 0, 53, 0
2, 74352, Note_on_c, 0, 53, 36
2, 74424, Note_on_c, 0, 70, 0
2, 74667, Note_on_c, 0, 79, 0
2, 74732, Note_on_c, 0, 65, 0
2, 74745, Note_on_c, 0, 75, 0
2, 74878, Note_on_c, 0, 82, 0
2, 75491, Note_on_c, 0, 89, 69
2, 75513, Note_on_c, 0, 58, 33
2, 75550, Note_on_c, 0, 63, 35
2, 75582, Note_on_c, 0, 65, 46
2, 75611, Note_on_c, 0, 77, 49
2, 76060, Note_on_c, 0, 58, 0
2, 76155, Note_on_c, 0, 89, 0
2, 76190, Note_on_c, 0, 63, 0
2, 76404, Note_on_c, 0, 77, 0
2, 76480, Note_on_c, 0, 65, 0
2, 78896, Note_on_c, 0, 79, 62
2, 78939, Note_on_c, 0, 74, 64
2, 78940, Note_on_c, 0, 65, 31
2, 78961, Note_on_c, 0, 62, 32
2, 78964, Control_c, 0, 64, 0
2, 79016, Note_on_c, 0, 60, 24
2, 79284, Control_c, 0, 64, 127
2, 79372, Note_on_c, 0, 53, 0
2, 79862, Note_on_c, 0, 53, 31
2, 80163, Note_on_c, 0, 65, 0
2, 80336, Note_on_c, 0, 62, 0
2, 80377, Note_on_c, 0, 74, 0
2, 80422, Note_on_c, 0, 60, 0
2, 80787, Note_on_c, 0, 79, 0
2, 80836, Note_on_c, 0, 77, 38
2, 80904, Note_on_c, 0, 74, 29
2, 80915, Note_on_c, 0, 65, 24
2, 80921, Note_on_c, 0, 69, 24
2, 80924, Note_on_c, 0, 62, 26
2, 80940, Note_on_c, 0, 60, 20
2, 81073, Note_on_c, 0, 69, 0
2, 81176, Note_on_c, 0, 74, 0
2, 81201, Note_on_c, 0, 77, 0
2, 81422, Note_on_c, 0, 53, 0
2, 81918, Note_on_c, 0, 89, 83
2, 81923, Note_on_c, 0, 53, 43
2, 82160, Note_on_c, 0, 65, 0
2, 82177, Note_on_c, 0, 60, 0
2, 82273, Note_on_c, 0, 62, 0
2, 82438, Note_on_c, 0, 89, 0
2, 83001, Note_on_c, 0, 87, 52
2, 83056, Note_on_c, 0, 63, 33
2, 83060, Note_on_c, 0, 75, 48
2, 83070, Control_c, 0, 64, 0
2, 83072, Note_on_c, 0, 58, 28
2, 83080, Note_on_c, 0, 65, 33
2, 83084, Note_on_c, 0, 79, 32
2, 83328, Control_c, 0, 64, 127
2, 83796, Note_on_c, 0, 58, 0
2, 83856, Note_on_c, 0, 53, 0
2, 83905, Note_on_c, 0, 63, 0
2, 84160, Note_on_c, 0, 53, 24
2, 84321, Note_on_c, 0, 65, 0
2, 84553, Note_on_c, 0, 87, 0
2, 84568, Note_on_c, 0, 79, 0
2, 84694, Note_on_c, 0, 75, 0
2, 85390, Note_on_c, 0, 63, 21
2, 85401, Note_on_c, 0, 58, 29
2, 85416, Note_on_c, 0, 81, 32
2, 85420, Note_on_c, 0, 78, 30
2, 85451, Note_on_c, 0, 74, 27
2, 85465, Note_on_c, 0, 65, 22
2, 86348, Note_on_c, 0, 63, 0
2, 86587, Note_on_c, 0, 53, 0
2, 86648, Note_on_c, 0, 58, 0
2, 86936, Note_on_c, 0, 81, 0
2, 87008, Note_on_c, 0, 65, 0
2, 87036, Note_on_c, 0, 53, 30
2, 87094, Note_on_c, 0, 78, 0
2, 87132, Note_on_c, 0, 74, 0
2, 87696, Note_on_c, 0, 53, 0
2, 89452, Note_on_c, 0, 46, 33
2, 89715, Note_on_c, 0, 57, 53
2, 89732, Note_on_c, 0, 53, 32
2, 89772, Note_on_c, 0, 61, 43
2, 89862, Note_on_c, 0, 64, 40
2, 89982, Control_c, 0, 64, 0
2, 90001, Note_on_c, 0, 69, 68
2, 90352, Control_c, 0, 64, 127
2, 91854, Note_on_c, 0, 64, 0
2, 91883, Note_on_c, 0, 61, 0
2, 91899, Note_on_c, 0, 62, 55
2, 91987, Control_c, 0, 64, 0
2, 92164, Control_c, 0, 64, 127
2, 92652, Note_on_c, 0, 57, 0
2, 92665, Note_on_c, 0, 53, 0
2, 92878, Note_on_c, 0, 53, 30
2, 92928, Note_on_c, 0, 62, 0
2, 93060, Note_on_c, 0, 69, 0
2, 93868, Note_on_c, 0, 62, 37
2, 93884, Note_on_c, 0, 65, 38
2, 93921, Note_on_c, 0, 57, 29
2, 95150, Note_on_c, 0, 62, 0
2, 95291, Note_on_c, 0, 65, 0
2, 96782, Note_on_c, 0, 82, 53
2, 96902, Note_on_c, 0, 73, 53
2, 97057, Note_on_c, 0, 53, 0
2, 97240, Note_on_c, 0, 46, 0
2, 97281, Note_on_c, 0, 57, 0
2, 97769, Note_on_c, 0, 82, 0
2, 97923, Note_on_c, 0, 73, 0
2, 100936, Note_on_c, 0, 52, 31
2, 101187, Note_on_c, 0, 62, 15
2, 101230, Note_on_c, 0, 56, 33
2, 101236, Note_on_c, 0, 73, 32
2, 101254, Note_on_c, 0, 70, 25
2, 101294, Note_on_c, 0, 73, 0
2, 101308, Note_on_c, 0, 70, 0
2, 101321, Control_c, 0, 64, 0
2, 101440, Note_on_c, 0, 80, 59
2, 101801, Control_c, 0, 64, 127
2, 102201, Note_on_c, 0, 56, 0
2, 102356, Note_on_c, 0, 62, 0
2, 102422, Note_on_c, 0, 56, 44
2, 102433, Note_on_c, 0, 80, 0
2, 103097, Note_on_c, 0, 66, 37
2, 103120, Note_on_c, 0, 70, 39
2, 103123, Note_on_c, 0, 73, 32
2, 103131, Note_on_c, 0, 62, 31
2, 103304, Note_on_c, 0, 56, 0
2, 103822, Note_on_c, 0, 62, 0
2, 103843, Note_on_c, 0, 56, 40
2, 104360, Note_on_c, 0, 66, 0
2, 104414, Note_on_c, 0, 70, 0
2, 104662, Note_on_c, 0, 66, 29
2, 104665, Note_on_c, 0, 70, 32
2, 104697, Note_on_c, 0, 64, 43
2, 105228, Note_on_c, 0, 56, 0
2, 105515, Note_on_c, 0, 56, 36
2, 105846, Note_on_c, 0, 64, 0
2, 106043, Note_on_c, 0, 66, 0
2, 106065, Note_on_c, 0, 73, 0
2, 106076, Note_on_c, 0, 70, 0
2, 106315, Note_on_c, 0, 66, 37
2, 106347, Note_on_c, 0, 70, 37
2, 106355, Note_on_c, 0, 73, 20
2, 106356, Note_on_c, 0, 62, 28
2, 106632, Note_on_c, 0, 52, 0
2, 106852, Note_on_c, 0, 70, 0
2, 106860, Note_on_c, 0, 66, 0
2, 106915, Note_on_c, 0, 62, 0
2, 106931, Note_on_c, 0, 73, 0
2, 107033, Note_on_c, 0, 52, 48
2, 107248, Note_on_c, 0, 56, 0
2, 107324, Note_on_c, 0, 52, 0
2, 107912, Note_on_c, 0, 67, 50
2, 107916, Note_on_c, 0, 63, 53
2, 107929, Note_on_c, 0, 55, 31
2, 107977, Control_c, 0, 64, 0
2, 107984, Note_on_c, 0, 39, 51
2, 108281, Control_c, 0, 64, 127
2, 108624, Note_on_c, 0, 55, 0
2, 108644, Note_on_c, 0, 46, 59
2, 108696, Note_on_c, 0, 39, 0
2, 108921, Note_on_c, 0, 67, 0
2, 109075, Note_on_c, 0, 63, 0
2, 109328, Note_on_c, 0, 55, 59
2, 109350, Note_on_c, 0, 69, 69
2, 109360, Note_on_c, 0, 65, 71
2, 109366, Note_on_c, 0, 61, 72
2, 109625, Note_on_c, 0, 55, 0
2, 109723, Note_on_c, 0, 69, 0
2, 109884, Note_on_c, 0, 61, 0
2, 110012, Note_on_c, 0, 65, 0
2, 110076, Note_on_c, 0, 57, 51
2, 110108, Note_on_c, 0, 70, 73
2, 110182, Note_on_c, 0, 46, 0
2, 110305, Note_on_c, 0, 57, 0
2, 110489, Note_on_c, 0, 70, 0
2, 111971, Control_c, 0, 64, 0
2, 111998, Note_on_c, 0, 40, 48
2, 112129, Control_c, 0, 64, 127
2, 112308, Note_on_c, 0, 40, 0
2, 113260, Note_on_c, 0, 66, 37
2, 113264, Note_on_c, 0, 58, 38
2, 113267, Note_on_c, 0, 55, 24
2, 113270, Note_on_c, 0, 69, 42
2, 113272, Note_on_c, 0, 57, 51
2, 113273, Note_on_c, 0, 62, 37
2, 113288, Control_c, 0, 64, 0
2, 113449, Control_c, 0, 64, 127
2, 113812, Note_on_c, 0, 57, 0
2, 113825, Note_on_c, 0, 55, 0
2, 113843, Note_on_c, 0, 58, 0
2, 113875, Note_on_c, 0, 62, 0
2, 113944, Note_on_c, 0, 69, 0
2, 114012, Note_on_c, 0, 66, 0
2, 114646, Note_on_c, 0, 69, 36
2, 114667, Control_c, 0, 64, 0
2, 114672, Note_on_c, 0, 58, 27
2, 114673, Note_on_c, 0, 45, 44
2, 114678, Note_on_c, 0, 61, 34
2, 114681, Note_on_c, 0, 55, 28
2, 114683, Note_on_c, 0, 64, 45
2, 114974, Control_c, 0, 64, 127
2, 116017, Note_on_c, 0, 58, 0
2, 116371, Note_on_c, 0, 45, 0
2, 116515, Note_on_c, 0, 64, 0
2, 116572, Note_on_c, 0, 61, 0
2, 116732, Note_on_c, 0, 55, 0
2, 116824, Note_on_c, 0, 69, 0
2, 117563, Note_on_c, 0, 67, 57
2, 117880, Note_on_c, 0, 67, 0
2, 117934, Note_on_c, 0, 69, 48
2, 118273, Note_on_c, 0, 69, 0
2, 118388, Note_on_c, 0, 66, 49
2, 118403, Note_on_c, 0, 50, 25
2, 118420, Control_c, 0, 64, 0
2, 118758, Control_c, 0, 64, 127
2, 119112, Note_on_c, 0, 57, 36
2, 119745, Note_on_c, 0, 66, 0
2, 119804, Note_on_c, 0, 64, 45
2, 120080, Note_on_c, 0, 64, 0
2, 120094, Note_on_c, 0, 57, 0
2, 120124, Note_on_c, 0, 66, 55
2, 120395, Note_on_c, 0, 66, 0
2, 120494, Note_on_c, 0, 61, 59
2, 120499, Note_on_c, 0, 57, 35
2, 120587, Control_c, 0, 64, 0
2, 120697, Control_c, 0, 64, 127
2, 120755, Note_on_c, 0, 57, 0
2, 121068, Note_on_c, 0, 61, 0
2, 121072, Note_on_c, 0, 57, 46
2, 121273, Note_on_c, 0, 57, 0
2, 121400, Note_on_c, 0, 59, 46
2, 121473, Note_on_c, 0, 50, 0
2, 121748, Note_on_c, 0, 59, 0
2, 121809, Note_on_c, 0, 54, 50
2, 121820, Control_c, 0, 64, 0
2, 121868, Note_on_c, 0, 50, 16
2, 122046, Control_c, 0, 64, 127
2, 122160, Note_on_c, 0, 54, 0
2, 122404, Note_on_c, 0, 57, 50
2, 122606, Note_on_c, 0, 57, 0
2, 122732, Note_on_c, 0, 59, 42
2, 123017, Note_on_c, 0, 59, 0
2, 123113, Note_on_c, 0, 61, 46
2, 123128, Note_on_c, 0, 57, 37
2, 123411, Note_on_c, 0, 61, 0
2, 123556, Note_on_c, 0, 64, 48
2, 123862, Note_on_c, 0, 64, 0
2, 124008, Note_on_c, 0, 66, 36
2, 124302, Note_on_c, 0, 66, 0
2, 124512, Note_on_c, 0, 57, 0
2, 124520, Note_on_c, 0, 50, 0
2, 124587, Note_on_c, 0, 67, 25
2, 125091, Note_on_c, 0, 67, 0
2, 125156, Control_c, 0, 64, 0
2, 125160, Note_on_c, 0, 65, 37
2, 125171, Note_on_c, 0, 44, 26
2, 125396, Control_c, 0, 64, 127
2, 125606, Note_on_c, 0, 65, 0
2, 125627, Note_on_c, 0, 70, 52
2, 125683, Note_on_c, 0, 54, 28
2, 125688, Note_on_c, 0, 44, 0
2, 125742, Note_on_c, 0, 54, 0
2, 126075, Note_on_c, 0, 70, 0
2, 126108, Note_on_c, 0, 77, 59
2, 126123, Note_on_c, 0, 60, 36
2, 126240, Note_on_c, 0, 77, 0
2, 126603, Note_on_c, 0, 89, 77
2, 126662, Note_on_c, 0, 65, 38
2, 126984, Note_on_c, 0, 65, 0
2, 127057, Note_on_c, 0, 89, 0
2, 127193, Control_c, 0, 64, 0
2, 127200, Note_on_c, 0, 89, 38
2, 127246, Note_on_c, 0, 82, 54
2, 127248, Note_on_c, 0, 65, 39
2, 127268, Note_on_c, 0, 77, 57
2, 127401, Control_c, 0, 64, 127
2, 127595, Note_on_c, 0, 60, 0
2, 127768, Note_on_c, 0, 89, 0
2, 127822, Note_on_c, 0, 82, 0
2, 127836, Note_on_c, 0, 60, 40
2, 127838, Note_on_c, 0, 77, 0
2, 127963, Note_on_c, 0, 65, 0
2, 128380, Note_on_c, 0, 54, 37
2, 128385, Note_on_c, 0, 60, 0
2, 128465, Note_on_c, 0, 54, 0
2, 128977, Note_on_c, 0, 44, 30
2, 129260, Note_on_c, 0, 44, 0
2, 129667, Note_on_c, 0, 61, 38
2, 129688, Note_on_c, 0, 56, 25
2, 129728, Note_on_c, 0, 43, 24
2, 129734, Note_on_c, 0, 53, 22
2, 129740, Note_on_c, 0, 59, 24
2, 129745, Control_c, 0, 64, 0
2, 130064, Control_c, 0, 64, 127
2, 130576, Note_on_c, 0, 53, 0
2, 130696, Note_on_c, 0, 56, 0
2, 130828, Note_on_c, 0, 61, 0
2, 130976, Note_on_c, 0, 56, 44
2, 130988, Note_on_c, 0, 53, 33
2, 131003, Note_on_c, 0, 62, 48
2, 131379, Note_on_c, 0, 56, 0
2, 131630, Note_on_c, 0, 62, 0
2, 131729, Note_on_c, 0, 53, 0
2, 131780, Note_on_c, 0, 59, 0
2, 131940, Control_c, 0, 64, 0
2, 131952, Note_on_c, 0, 67, 64
2, 131960, Note_on_c, 0, 59, 62
2, 131966, Note_on_c, 0, 56, 62
2, 131980, Note_on_c, 0, 62, 50
2, 132016, Note_on_c, 0, 53, 33
2, 132182, Control_c, 0, 64, 127
2, 132216, Note_on_c, 0, 53, 0
2, 132409, Note_on_c, 0, 43, 0
2, 132779, Note_on_c, 0, 50, 91
2, 132790, Control_c, 0, 64, 0
2, 132984, Control_c, 0, 64, 127
2, 133691, Note_on_c, 0, 47, 57
2, 133760, Note_on_c, 0, 50, 0
2, 133808, Note_on_c, 0, 67, 0
2, 134020, Note_on_c, 0, 59, 0
2, 134048, Note_on_c, 0, 62, 0
2, 134147, Note_on_c, 0, 56, 0
2, 134491, Control_c, 0, 64, 0
2, 134534, Note_on_c, 0, 63, 52
2, 134539, Note_on_c, 0, 47, 0
2, 134544, Note_on_c, 0, 54, 42
2, 134574, Note_on_c, 0, 48, 51
2, 134579, Note_on_c, 0, 60, 45
2, 134582, Note_on_c, 0, 58, 53
2, 134795, Control_c, 0, 64, 127
2, 134987, Note_on_c, 0, 54, 0
2, 135190, Note_on_c, 0, 60, 0
2, 135230, Note_on_c, 0, 36, 62
2, 135248, Note_on_c, 0, 58, 0
2, 135280, Note_on_c, 0, 63, 0
2, 135360, Note_on_c, 0, 48, 0
2, 135371, Note_on_c, 0, 36, 0
2, 136060, Note_on_c, 0, 75, 73
2, 136068, Note_on_c, 0, 66, 77
2, 136072, Note_on_c, 0, 60, 66
2, 136075, Note_on_c, 0, 70, 73
2, 136083, Note_on_c, 0, 72, 67
2, 136265, Note_on_c, 0, 60, 0
2, 136904, Note_on_c, 0, 36, 76
2, 137124, Note_on_c, 0, 36, 0
2, 138440, Note_on_c, 0, 30, 67
2, 138483, Control_c, 0, 64, 0
2, 138708, Control_c, 0, 64, 127
2, 138960, Note_on_c, 0, 30, 0
2, 139409, Note_on_c, 0, 66, 0
2, 139462, Note_on_c, 0, 70, 0
2, 139478, Note_on_c, 0, 72, 0
2, 139512, Note_on_c, 0, 75, 0
2, 141284, Note_on_c, 0, 75, 34
2, 141308, Note_on_c, 0, 64, 34
2, 141328, Note_on_c, 0, 70, 43
2, 141371, Note_on_c, 0, 58, 33
2, 142710, Note_on_c, 0, 58, 0
2, 142798, Note_on_c, 0, 64, 0
2, 142852, Note_on_c, 0, 75, 0
2, 143129, Note_on_c, 0, 75, 39
2, 143534, Note_on_c, 0, 70, 0
2, 143772, Note_on_c, 0, 75, 0
2, 144704, Note_on_c, 0, 74, 46
2, 144710, Note_on_c, 0, 65, 22
2, 144723, Control_c, 0, 64, 0
2, 144747, Note_on_c, 0, 60, 29
2, 144764, Note_on_c, 0, 62, 28
2, 144979, Control_c, 0, 64, 127
2, 145412, Note_on_c, 0, 53, 29
2, 145425, Note_on_c, 0, 74, 0
2, 145769, Note_on_c, 0, 62, 0
2, 145798, Note_on_c, 0, 65, 0
2, 145902, Note_on_c, 0, 60, 0
2, 146051, Note_on_c, 0, 77, 62
2, 146076, Note_on_c, 0, 65, 24
2, 146107, Note_on_c, 0, 62, 26
2, 146475, Note_on_c, 0, 53, 0
2, 146691, Note_on_c, 0, 79, 67
2, 146707, Note_on_c, 0, 53, 38
2, 146769, Note_on_c, 0, 77, 0
2, 146972, Note_on_c, 0, 65, 0
2, 147030, Note_on_c, 0, 62, 0
2, 147254, Note_on_c, 0, 79, 0
2, 147360, Note_on_c, 0, 58, 33
2, 147363, Note_on_c, 0, 70, 52
2, 147412, Note_on_c, 0, 75, 58
2, 147451, Note_on_c, 0, 63, 35
2, 147470, Note_on_c, 0, 65, 50
2, 147504, Note_on_c, 0, 79, 53
2, 147558, Note_on_c, 0, 82, 46
2, 147608, Control_c, 0, 64, 0
2, 148134, Note_on_c, 0, 53, 0
2, 148200, Note_on_c, 0, 58, 0
2, 148227, Note_on_c, 0, 63, 0
2, 148297, Note_on_c, 0, 53, 44
2, 148969, Note_on_c, 0, 53, 0
2, 149193, Note_on_c, 0, 53, 47
2, 149756, Note_on_c, 0, 65, 0
2, 150056, Note_on_c, 0, 82, 0
2, 150220, Note_on_c, 0, 82, 42
2, 150257, Note_on_c, 0, 63, 25
2, 150265, Note_on_c, 0, 58, 35
2, 150289, Note_on_c, 0, 65, 27
2, 150352, Control_c, 0, 64, 127
2, 150660, Note_on_c, 0, 58, 0
2, 150769, Note_on_c, 0, 70, 0
2, 150896, Note_on_c, 0, 63, 0
2, 150920, Note_on_c, 0, 75, 0
2, 151016, Note_on_c, 0, 65, 0
2, 151132, Note_on_c, 0, 82, 0
2, 151188, Note_on_c, 0, 79, 0
2, 151380, Note_on_c, 0, 82, 47
2, 151408, Note_on_c, 0, 74, 46
2, 151416, Note_on_c, 0, 77, 44
2, 151425, Control_c, 0, 64, 0
2, 151440, Note_on_c, 0, 65, 28
2, 151452, Note_on_c, 0, 62, 30
2, 151481, Note_on_c, 0, 60, 17
2, 151763, Note_on_c, 0, 53, 0
2, 152019, Control_c, 0, 64, 127
2, 152145, Note_on_c, 0, 53, 60
2, 152736, Note_on_c, 0, 53, 0
2, 152849, Note_on_c, 0, 60, 0
2, 152961, Note_on_c, 0, 53, 65
2, 153000, Note_on_c, 0, 65, 0
2, 153411, Note_on_c, 0, 53, 0
2, 153700, Note_on_c, 0, 82, 0
2, 153715, Note_on_c, 0, 53, 70
2, 153718, Note_on_c, 0, 77, 0
2, 153734, Note_on_c, 0, 62, 0
2, 153780, Note_on_c, 0, 74, 0
2, 154696, Note_on_c, 0, 53, 0
2, 154771, Note_on_c, 0, 61, 60
2, 154777, Note_on_c, 0, 71, 70
2, 154780, Note_on_c, 0, 68, 69
2, 154787, Note_on_c, 0, 59, 63
2, 154788, Note_on_c, 0, 64, 72
2, 154803, Note_on_c, 0, 57, 67
2, 154891, Control_c, 0, 64, 0
2, 155260, Control_c, 0, 64, 127
2, 155800, Note_on_c, 0, 71, 0
2, 155956, Note_on_c, 0, 71, 54
2, 155988, Note_on_c, 0, 61, 0
2, 156006, Note_on_c, 0, 57, 0
2, 156040, Note_on_c, 0, 59, 0
2, 156424, Note_on_c, 0, 64, 0
2, 156612, Note_on_c, 0, 71, 0
2, 156667, Note_on_c, 0, 68, 0
2, 157222, Note_on_c, 0, 71, 44
2, 157224, Note_on_c, 0, 63, 42
2, 157230, Note_on_c, 0, 47, 42
2, 157251, Note_on_c, 0, 68, 39
2, 157262, Control_c, 0, 64, 0
2, 157281, Note_on_c, 0, 57, 28
2, 157777, Control_c, 0, 64, 127
2, 158219, Note_on_c, 0, 71, 0
2, 158390, Note_on_c, 0, 47, 0
2, 158488, Note_on_c, 0, 57, 0
2, 158736, Note_on_c, 0, 71, 42
2, 159161, Note_on_c, 0, 71, 0
2, 159496, Note_on_c, 0, 63, 0
2, 159899, Note_on_c, 0, 68, 0
2, 160198, Control_c, 0, 64, 0
2, 160257, Note_on_c, 0, 28, 44
2, 160276, Note_on_c, 0, 75, 71
2, 160449, Note_on_c, 0, 28, 0
2, 160470, Control_c, 0, 64, 127
2, 162150, Note_on_c, 0, 63, 38
2, 163147, Note_on_c, 0, 63, 0
2, 163289, Note_on_c, 0, 64, 38
2, 163305, Note_on_c, 0, 61, 31
2, 163312, Note_on_c, 0, 68, 37
2, 164179, Note_on_c, 0, 61, 0
2, 166430, Note_on_c, 0, 64, 0
2, 166456, Note_on_c, 0, 68, 0
2, 166660, Note_on_c, 0, 75, 0
2, 167222, Control_c, 0, 64, 0
2, 167249, Note_on_c, 0, 73, 48
2, 167260, Note_on_c, 0, 54, 58
2, 167260, Note_on_c, 0, 69, 64
2, 167264, Note_on_c, 0, 59, 55
2, 167268, Note_on_c, 0, 64, 67
2, 167398, Control_c, 0, 64, 127
2, 167574, Note_on_c, 0, 69, 0
2, 167646, Note_on_c, 0, 73, 0
2, 167657, Note_on_c, 0, 59, 0
2, 167697, Note_on_c, 0, 54, 0
2, 167745, Note_on_c, 0, 64, 0
2, 168200, Note_on_c, 0, 71, 64
2, 168217, Control_c, 0, 64, 0
2, 168224, Note_on_c, 0, 57, 39
2, 168227, Note_on_c, 0, 67, 59
2, 168228, Note_on_c, 0, 62, 47
2, 168256, Note_on_c, 0, 52, 28
2, 168409, Control_c, 0, 64, 127
2, 168692, Note_on_c, 0, 52, 0
2, 168702, Note_on_c, 0, 57, 0
2, 168705, Note_on_c, 0, 71, 0
2, 168742, Note_on_c, 0, 67, 0
2, 168876, Note_on_c, 0, 62, 0
2, 169408, Note_on_c, 0, 54, 30
2, 169430, Note_on_c, 0, 68, 48
2, 169433, Note_on_c, 0, 64, 53
2, 169446, Note_on_c, 0, 59, 32
2, 169467, Control_c, 0, 64, 0
2, 169489, Note_on_c, 0, 49, 32
2, 169665, Note_on_c, 0, 49, 0
2, 169675, Control_c, 0, 64, 127
2, 169888, Note_on_c, 0, 54, 0
2, 169955, Note_on_c, 0, 64, 0
2, 169979, Note_on_c, 0, 68, 0
2, 170110, Note_on_c, 0, 59, 0
2, 170660, Note_on_c, 0, 66, 47
2, 170660, Note_on_c, 0, 59, 29
2, 170672, Note_on_c, 0, 61, 44
2, 170700, Note_on_c, 0, 44, 35
2, 170720, Control_c, 0, 64, 0
2, 171296, Control_c, 0, 64, 127
2, 171523, Note_on_c, 0, 52, 31
2, 171600, Control_c, 0, 64, 0
2, 171633, Control_c, 0, 64, 127
2, 171998, Note_on_c, 0, 61, 0
2, 172086, Note_on_c, 0, 59, 0
2, 172264, Note_on_c, 0, 52, 0
2, 172283, Note_on_c, 0, 61, 30
2, 172297, Note_on_c, 0, 59, 30
2, 172344, Note_on_c, 0, 54, 30
2, 172451, Control_c, 0, 64, 0
2, 172579, Control_c, 0, 64, 127
2, 172846, Note_on_c, 0, 44, 0
2, 173080, Note_on_c, 0, 44, 40
2, 173184, Note_on_c, 0, 59, 0
2, 173361, Note_on_c, 0, 54, 0
2, 173684, Note_on_c, 0, 66, 0
2, 173763, Note_on_c, 0, 61, 0
2, 173838, Note_on_c, 0, 44, 0
2, 173974, Note_on_c, 0, 66, 39
2, 173982, Note_on_c, 0, 61, 33
2, 173990, Note_on_c, 0, 58, 34
2, 174000, Note_on_c, 0, 52, 36
2, 174006, Control_c, 0, 64, 0
2, 174008, Note_on_c, 0, 43, 31
2, 174456, Control_c, 0, 64, 127
2, 174776, Control_c, 0, 64, 0
2, 174785, Note_on_c, 0, 51, 80
2, 174787, Note_on_c, 0, 52, 0
2, 174985, Control_c, 0, 64, 127
2, 175585, Note_on_c, 0, 51, 0
2, 175619, Note_on_c, 0, 52, 75
2, 176272, Note_on_c, 0, 43, 0
2, 176275, Note_on_c, 0, 58, 0
2, 176420, Note_on_c, 0, 61, 0
2, 176460, Note_on_c, 0, 66, 0
2, 176580, Note_on_c, 0, 64, 66
2, 176590, Note_on_c, 0, 58, 62
2, 176596, Note_on_c, 0, 43, 36
2, 176603, Note_on_c, 0, 61, 51
2, 176734, Note_on_c, 0, 52, 0
2, 176838, Note_on_c, 0, 43, 0
2, 176944, Note_on_c, 0, 58, 0
2, 177011, Note_on_c, 0, 64, 0
2, 177014, Note_on_c, 0, 61, 0
2, 178012, Note_on_c, 0, 71, 72
2, 178022, Note_on_c, 0, 66, 77
2, 178033, Note_on_c, 0, 64, 81
2, 178035, Note_on_c, 0, 55, 74
2, 178043, Note_on_c, 0, 48, 71
2, 178064, Control_c, 0, 64, 0
2, 178817, Control_c, 0, 64, 127
2, 178985, Note_on_c, 0, 71, 0
2, 179196, Note_on_c, 0, 71, 49
2, 179201, Note_on_c, 0, 55, 35
2, 179603, Note_on_c, 0, 55, 0
2, 179782, Note_on_c, 0, 64, 0
2, 179854, Note_on_c, 0, 71, 0
2, 179929, Note_on_c, 0, 55, 0
2, 180302, Note_on_c, 0, 66, 0
2, 181800, Note_on_c, 0, 71, 45
2, 181804, Note_on_c, 0, 55, 24
2, 181817, Note_on_c, 0, 60, 32
2, 181820, Note_on_c, 0, 64, 49
2, 181830, Note_on_c, 0, 66, 37
2, 182395, Note_on_c, 0, 55, 0
2, 182472, Note_on_c, 0, 48, 0
2, 182598, Note_on_c, 0, 71, 0
2, 182924, Note_on_c, 0, 71, 45
2, 183246, Note_on_c, 0, 60, 0
2, 183296, Note_on_c, 0, 64, 0
2, 183347, Note_on_c, 0, 71, 0
2, 183422, Note_on_c, 0, 66, 0
2, 184014, Control_c, 0, 64, 0
2, 184044, Note_on_c, 0, 63, 35
2, 184049, Note_on_c, 0, 71, 33
2, 184068, Note_on_c, 0, 67, 40
2, 184070, Note_on_c, 0, 41, 33
2, 184084, Note_on_c, 0, 59, 24
2, 184304, Control_c, 0, 64, 127
2, 184427, Note_on_c, 0, 59, 0
2, 184470, Note_on_c, 0, 67, 0
2, 184532, Note_on_c, 0, 63, 0
2, 184649, Note_on_c, 0, 71, 0
2, 184817, Note_on_c, 0, 48, 40
2, 184843, Note_on_c, 0, 41, 0
2, 184899, Note_on_c, 0, 48, 0
2, 185656, Note_on_c, 0, 83, 42
2, 185660, Note_on_c, 0, 75, 30
2, 185696, Note_on_c, 0, 63, 29
2, 185699, Note_on_c, 0, 79, 35
2, 185712, Note_on_c, 0, 71, 20
2, 186544, Note_on_c, 0, 83, 0
2, 186803, Note_on_c, 0, 71, 0
2, 186872, Note_on_c, 0, 67, 30
2, 186876, Note_on_c, 0, 79, 0
2, 186923, Note_on_c, 0, 75, 0
2, 187427, Note_on_c, 0, 67, 0
2, 187532, Note_on_c, 0, 63, 0
2, 187563, Note_on_c, 0, 85, 51
2, 187860, Note_on_c, 0, 85, 0
2, 188249, Note_on_c, 0, 47, 34
2, 188257, Note_on_c, 0, 83, 57
2, 188280, Control_c, 0, 64, 0
2, 188521, Control_c, 0, 64, 127
2, 188811, Note_on_c, 0, 47, 0
2, 188844, Note_on_c, 0, 57, 41
2, 188918, Note_on_c, 0, 57, 0
2, 189288, Note_on_c, 0, 83, 0
2, 190756, Note_on_c, 0, 66, 38
2, 191425, Note_on_c, 0, 66, 0
2, 191451, Note_on_c, 0, 71, 66
2, 192128, Note_on_c, 0, 64, 51
2, 192156, Note_on_c, 0, 71, 0
2, 192777, Note_on_c, 0, 69, 54
2, 192862, Note_on_c, 0, 64, 0
2, 193400, Note_on_c, 0, 69, 0
2, 193467, Note_on_c, 0, 68, 43
2, 193483, Note_on_c, 0, 40, 28
2, 193524, Control_c, 0, 64, 0
2, 193974, Control_c, 0, 64, 127
2, 194052, Note_on_c, 0, 40, 0
2, 194209, Note_on_c, 0, 62, 38
2, 194840, Note_on_c, 0, 62, 0
2, 194884, Note_on_c, 0, 68, 0
2, 194968, Note_on_c, 0, 64, 49
2, 194984, Control_c, 0, 64, 0
2, 195022, Note_on_c, 0, 62, 32
2, 195160, Control_c, 0, 64, 127
2, 195345, Note_on_c, 0, 64, 0
2, 195742, Note_on_c, 0, 76, 58
2, 195782, Note_on_c, 0, 56, 34
2, 195947, Note_on_c, 0, 56, 0
2, 195950, Note_on_c, 0, 62, 0
2, 196556, Note_on_c, 0, 76, 0
2, 196595, Note_on_c, 0, 72, 47
2, 196630, Note_on_c, 0, 67, 28
2, 196652, Control_c, 0, 64, 0
2, 196675, Note_on_c, 0, 56, 38
2, 196811, Control_c, 0, 64, 127
2, 197006, Note_on_c, 0, 67, 0
2, 197110, Note_on_c, 0, 72, 0
2, 197544, Note_on_c, 0, 62, 31
2, 197558, Note_on_c, 0, 88, 59
2, 198260, Note_on_c, 0, 88, 0
2, 198604, Note_on_c, 0, 74, 34
2, 198657, Note_on_c, 0, 67, 29
2, 199532, Note_on_c, 0, 67, 0
2, 199627, Note_on_c, 0, 86, 66
2, 199657, Note_on_c, 0, 62, 0
2, 199724, Note_on_c, 0, 56, 0
2, 200624, Note_on_c, 0, 86, 0
2, 200732, Note_on_c, 0, 85, 62
2, 200747, Note_on_c, 0, 45, 39
2, 200756, Control_c, 0, 64, 0
2, 200950, Control_c, 0, 64, 127
2, 201065, Note_on_c, 0, 74, 0
2, 201400, Note_on_c, 0, 85, 0
2, 201480, Note_on_c, 0, 52, 41
2, 201929, Note_on_c, 0, 45, 0
2, 202177, Note_on_c, 0, 59, 71
2, 202185, Control_c, 0, 64, 0
2, 202361, Control_c, 0, 64, 127
2, 202800, Note_on_c, 0, 59, 0
2, 202891, Note_on_c, 0, 59, 68
2, 202953, Control_c, 0, 64, 0
2, 203099, Control_c, 0, 64, 127
2, 203564, Control_c, 0, 64, 0
2, 203641, Note_on_c, 0, 61, 60
2, 203724, Control_c, 0, 64, 127
2, 204441, Note_on_c, 0, 59, 0
2, 204446, Note_on_c, 0, 64, 58
2, 204942, Note_on_c, 0, 64, 0
2, 204990, Note_on_c, 0, 61, 0
2, 206142, Note_on_c, 0, 52, 0
2, 206611, Control_c, 0, 64, 0
2, 206640, Note_on_c, 0, 71, 58
2, 206646, Note_on_c, 0, 67, 58
2, 206652, Note_on_c, 0, 57, 51
2, 206657, Note_on_c, 0, 62, 55
2, 206667, Note_on_c, 0, 52, 36
2, 206819, Control_c, 0, 64, 127
2, 207112, Note_on_c, 0, 57, 0
2, 207148, Note_on_c, 0, 62, 0
2, 207256, Note_on_c, 0, 71, 0
2, 207315, Note_on_c, 0, 67, 0
2, 207489, Note_on_c, 0, 52, 0
2, 207494, Control_c, 0, 64, 0
2, 207504, Note_on_c, 0, 69, 59
2, 207528, Note_on_c, 0, 55, 34
2, 207532, Note_on_c, 0, 60, 40
2, 207542, Note_on_c, 0, 65, 51
2, 207604, Note_on_c, 0, 50, 24
2, 207766, Control_c, 0, 64, 127
2, 207988, Note_on_c, 0, 69, 0
2, 208003, Note_on_c, 0, 55, 0
2, 208019, Note_on_c, 0, 50, 0
2, 208096, Note_on_c, 0, 65, 0
2, 208156, Note_on_c, 0, 60, 0
2, 208744, Control_c, 0, 64, 0
2, 208752, Note_on_c, 0, 68, 47
2, 208766, Note_on_c, 0, 64, 42
2, 208769, Note_on_c, 0, 54, 27
2, 208777, Note_on_c, 0, 47, 32
2, 208779, Note_on_c, 0, 59, 33
2, 208921, Control_c, 0, 64, 127
2, 208985, Note_on_c, 0, 47, 0
2, 209132, Note_on_c, 0, 54, 0
2, 209268, Note_on_c, 0, 59, 0
2, 209344, Note_on_c, 0, 64, 0
2, 209390, Note_on_c, 0, 68, 0
2, 209486, Note_on_c, 0, 60, 45
2, 209489, Note_on_c, 0, 46, 37
2, 209499, Note_on_c, 0, 64, 34
2, 209504, Note_on_c, 0, 56, 34
2, 209508, Note_on_c, 0, 67, 54
2, 209515, Control_c, 0, 64, 0
2, 209787, Control_c, 0, 64, 127
2, 209883, Note_on_c, 0, 60, 0
2, 210024, Note_on_c, 0, 64, 0
2, 210056, Note_on_c, 0, 67, 0
2, 210057, Note_on_c, 0, 56, 0
2, 210108, Note_on_c, 0, 53, 37
2, 210612, Note_on_c, 0, 53, 0
2, 210654, Note_on_c, 0, 67, 44
2, 210656, Note_on_c, 0, 72, 37
2, 210660, Note_on_c, 0, 46, 0
2, 210660, Note_on_c, 0, 56, 34
2, 210662, Note_on_c, 0, 79, 44
2, 210668, Note_on_c, 0, 76, 44
2, 210721, Note_on_c, 0, 56, 0
2, 211328, Note_on_c, 0, 62, 37
2, 211596, Note_on_c, 0, 62, 0
2, 212232, Note_on_c, 0, 45, 55
2, 212288, Control_c, 0, 64, 0
2, 212480, Control_c, 0, 64, 127
2, 212507, Note_on_c, 0, 45, 0
2, 212889, Note_on_c, 0, 67, 0
2, 213080, Note_on_c, 0, 55, 30
2, 213214, Note_on_c, 0, 72, 0
2, 213292, Note_on_c, 0, 76, 0
2, 213324, Note_on_c, 0, 79, 0
2, 214056, Note_on_c, 0, 65, 47
2, 214075, Note_on_c, 0, 61, 33
2, 216028, Note_on_c, 0, 81, 49
2, 216057, Note_on_c, 0, 69, 44
2, 216537, Note_on_c, 0, 65, 0
2, 216632, Note_on_c, 0, 61, 0
2, 216656, Note_on_c, 0, 55, 0
2, 216728, Note_on_c, 0, 81, 0
2, 216868, Note_on_c, 0, 69, 0
2, 217628, Control_c, 0, 64, 0
2, 217656, Note_on_c, 0, 78, 50
2, 217664, Note_on_c, 0, 38, 38
2, 217732, Note_on_c, 0, 66, 25
2, 217852, Control_c, 0, 64, 127
2, 218195, Note_on_c, 0, 78, 0
2, 218294, Note_on_c, 0, 66, 0
2, 218307, Note_on_c, 0, 45, 48
2, 218308, Note_on_c, 0, 38, 0
2, 219001, Note_on_c, 0, 54, 53
2, 219702, Note_on_c, 0, 61, 56
2, 220344, Note_on_c, 0, 64, 71
2, 220446, Note_on_c, 0, 45, 0
2, 220788, Note_on_c, 0, 54, 0
2, 220838, Note_on_c, 0, 61, 0
2, 220873, Note_on_c, 0, 66, 77
2, 220995, Note_on_c, 0, 64, 0
2, 221324, Note_on_c, 0, 66, 0
2, 221515, Note_on_c, 0, 66, 64
2, 221520, Note_on_c, 0, 64, 60
2, 221523, Note_on_c, 0, 49, 43
2, 221524, Note_on_c, 0, 59, 55
2, 221556, Control_c, 0, 64, 0
2, 222086, Control_c, 0, 64, 127
2, 222089, Note_on_c, 0, 59, 0
2, 222129, Note_on_c, 0, 49, 0
2, 222203, Note_on_c, 0, 49, 18
2, 222292, Note_on_c, 0, 64, 0
2, 222748, Note_on_c, 0, 66, 0
2, 222993, Note_on_c, 0, 66, 46
2, 222998, Note_on_c, 0, 59, 37
2, 223000, Note_on_c, 0, 64, 49
2, 223264, Note_on_c, 0, 49, 0
2, 223728, Note_on_c, 0, 49, 53
2, 224110, Note_on_c, 0, 59, 0
2, 224195, Note_on_c, 0, 64, 0
2, 224396, Note_on_c, 0, 66, 0
2, 224428, Note_on_c, 0, 49, 0
2, 224576, Note_on_c, 0, 48, 69
2, 224582, Note_on_c, 0, 66, 74
2, 224588, Control_c, 0, 64, 0
2, 224595, Note_on_c, 0, 63, 71
2, 224596, Note_on_c, 0, 58, 75
2, 224924, Control_c, 0, 64, 127
2, 225324, Note_on_c, 0, 66, 0
2, 225508, Note_on_c, 0, 66, 74
2, 226041, Note_on_c, 0, 66, 0
2, 226424, Note_on_c, 0, 63, 0
2, 226425, Note_on_c, 0, 58, 0
2, 226510, Note_on_c, 0, 66, 56
2, 226542, Note_on_c, 0, 48, 0
2, 226942, Note_on_c, 0, 66, 0
2, 227528, Note_on_c, 0, 66, 46
2, 227774, Note_on_c, 0, 66, 0
2, 229158, Note_on_c, 0, 61, 28
2, 229166, Note_on_c, 0, 65, 35
2, 229187, Note_on_c, 0, 47, 35
2, 229190, Control_c, 0, 64, 0
2, 229195, Note_on_c, 0, 57, 26
2, 229209, Note_on_c, 0, 59, 40
2, 229576, Control_c, 0, 64, 127
2, 229617, Note_on_c, 0, 57, 0
2, 229683, Note_on_c, 0, 59, 0
2, 229723, Note_on_c, 0, 61, 0
2, 229734, Note_on_c, 0, 65, 0
2, 230358, Note_on_c, 0, 77, 41
2, 230840, Note_on_c, 0, 77, 0
2, 231480, Note_on_c, 0, 77, 32
2, 231505, Note_on_c, 0, 69, 24
2, 231507, Note_on_c, 0, 73, 29
2, 231528, Note_on_c, 0, 59, 24
2, 232468, Note_on_c, 0, 77, 0
2, 232484, Note_on_c, 0, 73, 0
2, 233060, Note_on_c, 0, 79, 49
2, 233184, Note_on_c, 0, 59, 0
2, 233344, Note_on_c, 0, 47, 0
2, 233388, Note_on_c, 0, 69, 0
2, 233480, Note_on_c, 0, 79, 0
2, 234019, Control_c, 0, 64, 0
2, 234036, Note_on_c, 0, 81, 37
2, 234044, Note_on_c, 0, 74, 42
2, 234073, Note_on_c, 0, 34, 34
2, 234084, Note_on_c, 0, 69, 18
2, 234243, Control_c, 0, 64, 127
2, 234278, Note_on_c, 0, 34, 0
2, 234964, Note_on_c, 0, 62, 22
2, 235448, Note_on_c, 0, 69, 0
2, 235456, Note_on_c, 0, 74, 0
2, 235745, Note_on_c, 0, 81, 0
2, 235790, Note_on_c, 0, 74, 40
2, 235811, Note_on_c, 0, 69, 24
2, 235846, Note_on_c, 0, 65, 25
2, 235993, Note_on_c, 0, 69, 0
2, 236060, Note_on_c, 0, 62, 0
2, 236110, Note_on_c, 0, 74, 0
2, 236419, Note_on_c, 0, 65, 0
2, 236732, Note_on_c, 0, 86, 68
2, 236756, Note_on_c, 0, 81, 59
2, 236780, Note_on_c, 0, 65, 29
2, 236984, Note_on_c, 0, 62, 25
2, 237033, Note_on_c, 0, 81, 0
2, 237075, Note_on_c, 0, 86, 0
2, 237179, Note_on_c, 0, 65, 0
2, 237585, Note_on_c, 0, 53, 38
2, 237595, Note_on_c, 0, 93, 66
2, 237600, Note_on_c, 0, 86, 44
2, 237627, Control_c, 0, 64, 0
2, 237724, Note_on_c, 0, 62, 0
2, 237836, Control_c, 0, 64, 127
2, 238120, Note_on_c, 0, 86, 0
2, 238451, Note_on_c, 0, 65, 36
2, 238465, Note_on_c, 0, 81, 35
2, 238620, Note_on_c, 0, 93, 0
2, 238900, Note_on_c, 0, 81, 0
2, 239676, Note_on_c, 0, 65, 0
2, 242004, Note_on_c, 0, 53, 0
2, 242664, Note_on_c, 0, 70, 42
2, 243004, Note_on_c, 0, 70, 0
2, 244217, Control_c, 0, 64, 0
2, 244220, Note_on_c, 0, 68, 36
2, 244236, Note_on_c, 0, 40, 36
2, 244411, Control_c, 0, 64, 127
2, 244713, Note_on_c, 0, 68, 0
2, 244848, Note_on_c, 0, 40, 0
2, 244872, Note_on_c, 0, 52, 39
2, 244942, Note_on_c, 0, 52, 0
2, 245486, Note_on_c, 0, 73, 35
2, 245489, Note_on_c, 0, 56, 53
2, 245491, Note_on_c, 0, 66, 33
2, 245513, Note_on_c, 0, 70, 40
2, 245944, Note_on_c, 0, 66, 0
2, 246057, Note_on_c, 0, 78, 58
2, 246060, Note_on_c, 0, 73, 0
2, 246086, Note_on_c, 0, 62, 39
2, 246099, Note_on_c, 0, 70, 0
2, 246168, Note_on_c, 0, 78, 0
2, 246512, Note_on_c, 0, 62, 0
2, 246763, Note_on_c, 0, 85, 28
2, 246768, Note_on_c, 0, 78, 45
2, 246795, Note_on_c, 0, 82, 37
2, 246803, Note_on_c, 0, 62, 36
2, 247088, Note_on_c, 0, 56, 0
2, 247387, Note_on_c, 0, 78, 0
2, 247420, Note_on_c, 0, 82, 0
2, 247440, Note_on_c, 0, 85, 0
2, 247531, Note_on_c, 0, 56, 34
2, 247793, Note_on_c, 0, 62, 0
2, 248393, Note_on_c, 0, 56, 0
2, 249110, Note_on_c, 0, 56, 46
2, 249257, Note_on_c, 0, 56, 0
2, 249980, Note_on_c, 0, 61, 40
2, 249984, Note_on_c, 0, 67, 44
2, 250003, Note_on_c, 0, 55, 25
2, 250024, Control_c, 0, 64, 0
2, 250043, Note_on_c, 0, 39, 37
2, 250280, Control_c, 0, 64, 127
2, 250609, Note_on_c, 0, 55, 0
2, 250676, Note_on_c, 0, 46, 52
2, 250689, Note_on_c, 0, 39, 0
2, 250718, Note_on_c, 0, 67, 0
2, 250787, Note_on_c, 0, 61, 0
2, 251280, Note_on_c, 0, 61, 60
2, 251283, Note_on_c, 0, 55, 46
2, 251292, Note_on_c, 0, 69, 52
2, 251296, Note_on_c, 0, 65, 65
2, 251324, Note_on_c, 0, 46, 0
2, 251528, Note_on_c, 0, 69, 0
2, 251684, Note_on_c, 0, 55, 0
2, 251854, Note_on_c, 0, 65, 0
2, 251857, Note_on_c, 0, 61, 0
2, 251910, Note_on_c, 0, 70, 70
2, 251939, Note_on_c, 0, 61, 45
2, 251947, Note_on_c, 0, 58, 51
2, 252057, Note_on_c, 0, 58, 0
2, 252084, Note_on_c, 0, 61, 0
2, 252251, Note_on_c, 0, 70, 0
2, 252678, Note_on_c, 0, 69, 69
2, 252686, Note_on_c, 0, 66, 61
2, 252694, Note_on_c, 0, 62, 66
2, 252699, Note_on_c, 0, 58, 62
2, 252716, Note_on_c, 0, 57, 62
2, 252750, Control_c, 0, 64, 0
2, 253328, Control_c, 0, 64, 127
2, 253403, Note_on_c, 0, 57, 0
2, 253521, Control_c, 0, 64, 0
2, 253524, Note_on_c, 0, 46, 49
2, 253728, Control_c, 0, 64, 127
2, 253875, Note_on_c, 0, 46, 0
2, 254052, Note_on_c, 0, 62, 0
2, 254148, Note_on_c, 0, 58, 0
2, 254187, Note_on_c, 0, 69, 0
2, 254195, Note_on_c, 0, 66, 0
2, 254483, Control_c, 0, 64, 0
2, 254497, Note_on_c, 0, 61, 43
2, 254499, Note_on_c, 0, 58, 40
2, 254500, Note_on_c, 0, 55, 39
2, 254504, Note_on_c, 0, 67, 51
2, 254540, Note_on_c, 0, 45, 39
2, 254542, Note_on_c, 0, 64, 42
2, 254707, Control_c, 0, 64, 127
2, 254832, Note_on_c, 0, 58, 0
2, 254961, Note_on_c, 0, 61, 0
2, 254974, Note_on_c, 0, 64, 0
2, 255003, Note_on_c, 0, 67, 0
2, 256145, Note_on_c, 0, 45, 0
2, 256371, Note_on_c, 0, 55, 0
2, 256454, Note_on_c, 0, 81, 91
2, 257331, Note_on_c, 0, 81, 0
2, 257427, Note_on_c, 0, 78, 67
2, 257440, Note_on_c, 0, 50, 32
2, 257449, Control_c, 0, 64, 0
2, 257689, Control_c, 0, 64, 127
2, 258172, Note_on_c, 0, 78, 0
2, 258235, Note_on_c, 0, 69, 34
2, 258265, Note_on_c, 0, 57, 28
2, 258390, Note_on_c, 0, 69, 0
2, 258835, Note_on_c, 0, 50, 0
2, 259118, Note_on_c, 0, 66, 28
2, 259702, Note_on_c, 0, 57, 0
2, 259945, Note_on_c, 0, 57, 38
2, 260052, Note_on_c, 0, 66, 0
2, 260865, Note_on_c, 0, 64, 50
2, 260873, Note_on_c, 0, 66, 36
2, 260883, Note_on_c, 0, 61, 37
2, 260928, Control_c, 0, 64, 0
2, 260958, Note_on_c, 0, 57, 0
2, 261153, Control_c, 0, 64, 127
2, 261908, Note_on_c, 0, 61, 0
2, 261921, Note_on_c, 0, 62, 63
2, 262052, Control_c, 0, 64, 0
2, 262228, Control_c, 0, 64, 127
2, 262614, Note_on_c, 0, 64, 0
2, 262636, Note_on_c, 0, 66, 0
2, 262835, Note_on_c, 0, 62, 0
2, 262843, Note_on_c, 0, 64, 51
2, 262846, Note_on_c, 0, 66, 45
2, 262873, Note_on_c, 0, 61, 42
2, 262918, Control_c, 0, 64, 0
2, 262996, Control_c, 0, 64, 127
2, 263211, Note_on_c, 0, 61, 0
2, 264212, Note_on_c, 0, 59, 60
2, 264756, Note_on_c, 0, 58, 58
2, 264782, Note_on_c, 0, 66, 0
2, 264803, Note_on_c, 0, 59, 0
2, 264862, Note_on_c, 0, 64, 0
2, 265214, Note_on_c, 0, 58, 0
2, 265225, Note_on_c, 0, 57, 65
2, 265467, Note_on_c, 0, 57, 0
2, 265771, Note_on_c, 0, 44, 51
2, 265790, Note_on_c, 0, 65, 60
2, 265808, Note_on_c, 0, 60, 53
2, 265820, Note_on_c, 0, 54, 35
2, 265836, Control_c, 0, 64, 0
2, 266124, Control_c, 0, 64, 127
2, 266200, Note_on_c, 0, 60, 0
2, 266244, Note_on_c, 0, 65, 0
2, 266488, Note_on_c, 0, 44, 0
2, 266561, Note_on_c, 0, 54, 0
2, 266870, Note_on_c, 0, 54, 58
2, 267585, Note_on_c, 0, 77, 66
2, 267590, Note_on_c, 0, 70, 72
2, 267595, Note_on_c, 0, 74, 68
2, 267601, Note_on_c, 0, 60, 55
2, 267603, Note_on_c, 0, 65, 74
2, 267796, Note_on_c, 0, 60, 0
2, 267808, Note_on_c, 0, 54, 0
2, 267864, Note_on_c, 0, 74, 0
2, 267873, Note_on_c, 0, 77, 0
2, 267952, Note_on_c, 0, 70, 0
2, 267990, Note_on_c, 0, 65, 0
2, 268484, Note_on_c, 0, 44, 52
2, 268492, Note_on_c, 0, 65, 71
2, 268513, Note_on_c, 0, 56, 51
2, 268528, Note_on_c, 0, 60, 57
2, 268838, Note_on_c, 0, 44, 0
2, 268990, Note_on_c, 0, 56, 0
2, 269163, Note_on_c, 0, 65, 0
2, 269209, Note_on_c, 0, 60, 0
2, 269480, Note_on_c, 0, 43, 41
2, 269486, Note_on_c, 0, 65, 77
2, 269496, Note_on_c, 0, 62, 66
2, 269497, Note_on_c, 0, 56, 80
2, 269502, Note_on_c, 0, 60, 64
2, 269520, Note_on_c, 0, 55, 55
2, 269524, Control_c, 0, 64, 0
2, 269830, Control_c, 0, 64, 127
2, 269940, Note_on_c, 0, 55, 0
2, 270056, Note_on_c, 0, 43, 0
2, 270560, Note_on_c, 0, 31, 46
2, 270651, Note_on_c, 0, 43, 30
2, 270715, Note_on_c, 0, 43, 0
2, 271108, Note_on_c, 0, 31, 0
2, 271566, Note_on_c, 0, 31, 58
2, 271960, Note_on_c, 0, 65, 0
2, 272188, Note_on_c, 0, 56, 0
2, 272216, Note_on_c, 0, 62, 0
2, 272480, Note_on_c, 0, 31, 0
2, 272824, Note_on_c, 0, 67, 69
2, 272860, Note_on_c, 0, 31, 33
2, 272955, Note_on_c, 0, 31, 0
2, 273190, Note_on_c, 0, 67, 0
2, 273400, Note_on_c, 0, 60, 0
2, 273998, Note_on_c, 0, 63, 68
2, 274040, Note_on_c, 0, 58, 71
2, 274041, Note_on_c, 0, 36, 57
2, 274046, Note_on_c, 0, 48, 57
2, 274049, Control_c, 0, 64, 0
2, 274057, Note_on_c, 0, 60, 59
2, 274128, Note_on_c, 0, 52, 17
2, 274321, Control_c, 0, 64, 127
2, 274371, Note_on_c, 0, 52, 0
2, 274763, Note_on_c, 0, 63, 0
2, 274953, Note_on_c, 0, 60, 0
2, 275025, Note_on_c, 0, 58, 0
2, 275032, Note_on_c, 0, 63, 74
2, 275190, Note_on_c, 0, 48, 0
2, 275531, Note_on_c, 0, 63, 0
2, 275844, Note_on_c, 0, 63, 60
2, 275878, Note_on_c, 0, 48, 34
2, 275892, Note_on_c, 0, 60, 53
2, 275900, Note_on_c, 0, 58, 56
2, 275928, Note_on_c, 0, 51, 37
2, 276448, Note_on_c, 0, 51, 0
2, 276507, Note_on_c, 0, 63, 0
2, 276596, Note_on_c, 0, 60, 0
2, 276630, Note_on_c, 0, 58, 0
2, 276755, Note_on_c, 0, 63, 74
2, 276763, Note_on_c, 0, 36, 0
2, 276865, Note_on_c, 0, 48, 0
2, 277492, Note_on_c, 0, 63, 0
2, 277753, Note_on_c, 0, 63, 71
2, 277776, Note_on_c, 0, 58, 75
2, 277777, Note_on_c, 0, 54, 78
2, 277790, Note_on_c, 0, 60, 66
2, 277801, Note_on_c, 0, 53, 70
2, 277816, Control_c, 0, 64, 0
2, 278217, Control_c, 0, 64, 127
2, 278780, Note_on_c, 0, 63, 0
2, 278977, Note_on_c, 0, 63, 60
2, 279739, Note_on_c, 0, 54, 0
2, 279747, Note_on_c, 0, 60, 0
2, 279768, Note_on_c, 0, 53, 0
2, 279872, Note_on_c, 0, 58, 0
2, 279988, Note_on_c, 0, 63, 0
2, 280128, Note_on_c, 0, 63, 40
2, 280185, Note_on_c, 0, 54, 28
2, 280198, Note_on_c, 0, 58, 35
2, 280212, Note_on_c, 0, 53, 32
2, 280252, Note_on_c, 0, 60, 29
2, 281480, Note_on_c, 0, 63, 0
2, 282617, Note_on_c, 0, 63, 45
2, 283212, Note_on_c, 0, 53, 0
2, 283432, Note_on_c, 0, 54, 0
2, 283710, Note_on_c, 0, 60, 0
2, 284068, Note_on_c, 0, 63, 0
2, 284070, Note_on_c, 0, 58, 0
2, 285529, Note_on_c, 0, 65, 32
2, 285531, Note_on_c, 0, 74, 42
2, 285563, Control_c, 0, 64, 0
2, 285587, Note_on_c, 0, 62, 29
2, 285595, Note_on_c, 0, 60, 28
2, 285819, Control_c, 0, 64, 127
2, 286206, Note_on_c, 0, 74, 0
2, 286224, Note_on_c, 0, 53, 37
2, 286436, Note_on_c, 0, 65, 0
2, 286924, Note_on_c, 0, 77, 65
2, 287004, Note_on_c, 0, 60, 0
2, 287019, Note_on_c, 0, 62, 0
2, 288574, Note_on_c, 0, 79, 51
2, 288630, Note_on_c, 0, 77, 0
2, 289281, Note_on_c, 0, 82, 58
2, 289288, Note_on_c, 0, 63, 34
2, 289300, Control_c, 0, 64, 0
2, 289312, Note_on_c, 0, 58, 35
2, 289324, Note_on_c, 0, 65, 26
2, 289332, Note_on_c, 0, 79, 0
2, 289555, Control_c, 0, 64, 127
2, 289843, Note_on_c, 0, 53, 0
2, 289891, Note_on_c, 0, 58, 0
2, 289942, Note_on_c, 0, 63, 0
2, 290084, Note_on_c, 0, 53, 27
2, 290315, Note_on_c, 0, 65, 0
2, 290985, Note_on_c, 0, 75, 37
2, 291032, Note_on_c, 0, 58, 28
2, 291051, Note_on_c, 0, 63, 15
2, 291067, Note_on_c, 0, 65, 18
2, 291748, Note_on_c, 0, 75, 0
2, 291857, Note_on_c, 0, 82, 0
2, 294025, Note_on_c, 0, 86, 72
2, 294313, Note_on_c, 0, 86, 0
2, 294336, Note_on_c, 0, 58, 0
2, 294457, Note_on_c, 0, 91, 83
2, 294545, Note_on_c, 0, 63, 0
2, 294638, Note_on_c, 0, 65, 0
2, 294976, Note_on_c, 0, 91, 0
2, 294985, Note_on_c, 0, 86, 59
2, 294993, Control_c, 0, 64, 0
2, 295008, Note_on_c, 0, 65, 36
2, 295019, Note_on_c, 0, 62, 33
2, 295043, Note_on_c, 0, 60, 31
2, 295377, Control_c, 0, 64, 127
2, 295465, Note_on_c, 0, 89, 60
2, 295504, Note_on_c, 0, 53, 0
2, 295542, Note_on_c, 0, 86, 0
2, 295894, Note_on_c, 0, 89, 0
2, 295979, Note_on_c, 0, 87, 52
2, 295984, Note_on_c, 0, 53, 29
2, 295987, Control_c, 0, 64, 0
2, 296260, Control_c, 0, 64, 127
2, 297200, Note_on_c, 0, 82, 55
2, 297566, Note_on_c, 0, 87, 0
2, 297635, Note_on_c, 0, 81, 60
2, 297766, Note_on_c, 0, 82, 0
2, 298014, Note_on_c, 0, 81, 0
2, 298036, Note_on_c, 0, 86, 68
2, 298476, Note_on_c, 0, 84, 55
2, 298710, Note_on_c, 0, 86, 0
2, 298881, Note_on_c, 0, 60, 0
2, 298899, Note_on_c, 0, 62, 0
2, 298932, Note_on_c, 0, 79, 36
2, 298964, Note_on_c, 0, 65, 0
2, 299448, Note_on_c, 0, 84, 0
2, 299467, Control_c, 0, 64, 0
2, 299468, Note_on_c, 0, 58, 33
2, 299481, Note_on_c, 0, 63, 18
2, 299489, Note_on_c, 0, 77, 40
2, 299492, Note_on_c, 0, 79, 0
2, 299521, Note_on_c, 0, 65, 33
2, 299803, Control_c, 0, 64, 127
2, 300041, Note_on_c, 0, 75, 47
2, 300043, Note_on_c, 0, 77, 0
2, 300500, Note_on_c, 0, 58, 0
2, 300534, Note_on_c, 0, 53, 0
2, 300545, Note_on_c, 0, 63, 0
2, 300609, Note_on_c, 0, 75, 0
2, 300684, Note_on_c, 0, 74, 44
2, 300723, Note_on_c, 0, 53, 24
2, 301590, Note_on_c, 0, 75, 47
2, 301672, Note_on_c, 0, 74, 0
2, 301864, Note_on_c, 0, 65, 0
2, 302395, Note_on_c, 0, 72, 43
2, 302398, Note_on_c, 0, 75, 0
2, 303212, Note_on_c, 0, 75, 36
2, 303310, Note_on_c, 0, 72, 0
2, 304244, Note_on_c, 0, 70, 35
2, 304270, Note_on_c, 0, 58, 27
2, 304294, Note_on_c, 0, 63, 19
2, 304320, Note_on_c, 0, 65, 22
2, 304600, Note_on_c, 0, 75, 0
2, 305036, Note_on_c, 0, 63, 0
2, 305056, Note_on_c, 0, 65, 0
2, 305070, Note_on_c, 0, 58, 0
2, 306244, Note_on_c, 0, 70, 0
2, 306323, Note_on_c, 0, 69, 46
2, 306328, Note_on_c, 0, 57, 40
2, 306331, Control_c, 0, 64, 0
2, 306352, Note_on_c, 0, 63, 20
2, 306368, Note_on_c, 0, 65, 24
2, 306844, Control_c, 0, 64, 127
2, 307118, Note_on_c, 0, 63, 0
2, 307147, Note_on_c, 0, 65, 0
2, 307216, Note_on_c, 0, 57, 0
2, 307305, Note_on_c, 0, 53, 0
2, 307534, Note_on_c, 0, 69, 0
2, 309507, Control_c, 0, 64, 0
2, 310320, Control_c, 0, 64, 127
2, 310364, Control_c, 0, 64, 0
2, 310658, Note_on_c, 0, 46, 47
2, 310687, Note_on_c, 0, 69, 68
2, 310859, Control_c, 0, 64, 127
2, 312669, Note_on_c, 0, 69, 0
2, 312795, Note_on_c, 0, 57, 49
2, 312833, Note_on_c, 0, 62, 36
2, 312860, Note_on_c, 0, 65, 30
2, 312916, Note_on_c, 0, 53, 18
2, 313012, Note_on_c, 0, 57, 0
2, 313061, Note_on_c, 0, 46, 0
2, 313120, Note_on_c, 0, 62, 0
2, 313138, Note_on_c, 0, 53, 0
2, 313254, Note_on_c, 0, 65, 0
2, 314213, Note_on_c, 0, 81, 66
2, 314954, Note_on_c, 0, 69, 25
2, 314956, Note_on_c, 0, 74, 42
2, 314999, Note_on_c, 0, 77, 32
2, 315006, Note_on_c, 0, 65, 24
2, 315051, Note_on_c, 0, 62, 16
2, 315098, Note_on_c, 0, 60, 20
2, 315331, Note_on_c, 0, 62, 0
2, 315360, Note_on_c, 0, 65, 0
2, 315380, Note_on_c, 0, 81, 0
2, 315418, Note_on_c, 0, 60, 0
2, 315463, Note_on_c, 0, 77, 0
2, 315512, Note_on_c, 0, 74, 0
2, 315651, Note_on_c, 0, 69, 0
2, 317089, Note_on_c, 0, 65, 32
2, 317091, Note_on_c, 0, 62, 32
2, 317093, Note_on_c, 0, 46, 23
2, 317120, Note_on_c, 0, 60, 30
2, 317161, Note_on_c, 0, 57, 19
2, 317380, Note_on_c, 0, 46, 0
2, 317434, Note_on_c, 0, 57, 0
2, 317629, Note_on_c, 0, 60, 0
2, 317669, Note_on_c, 0, 65, 0
2, 317691, Note_on_c, 0, 62, 0
2, 318603, Note_on_c, 0, 70, 62
2, 318861, Note_on_c, 0, 70, 0
2, 319450, Note_on_c, 0, 66, 47
2, 319557, Note_on_c, 0, 40, 34
2, 319616, Control_c, 0, 64, 0
2, 320261, Note_on_c, 0, 66, 0
2, 320422, Control_c, 0, 64, 127
2, 320767, Note_on_c, 0, 68, 43
2, 320998, Note_on_c, 0, 40, 0
2, 321690, Note_on_c, 0, 68, 0
2, 322346, Note_on_c, 0, 61, 35
2, 322375, Note_on_c, 0, 66, 51
2, 322449, Note_on_c, 0, 56, 21
2, 322458, Note_on_c, 0, 62, 26
2, 322895, Note_on_c, 0, 61, 0
2, 322967, Note_on_c, 0, 70, 51
2, 323027, Note_on_c, 0, 66, 0
2, 323144, Note_on_c, 0, 70, 0
2, 324839, Note_on_c, 0, 90, 54
2, 324884, Note_on_c, 0, 78, 36
2, 324969, Note_on_c, 0, 78, 0
2, 325081, Note_on_c, 0, 90, 0
2, 325682, Note_on_c, 0, 94, 53
2, 325720, Note_on_c, 0, 82, 34
2, 325807, Note_on_c, 0, 82, 0
2, 325850, Note_on_c, 0, 94, 0
2, 326716, Note_on_c, 0, 99, 55
2, 326784, Note_on_c, 0, 87, 31
2, 326909, Note_on_c, 0, 87, 0
2, 326925, Note_on_c, 0, 99, 0
2, 327400, Note_on_c, 0, 62, 0
2, 327606, Note_on_c, 0, 56, 0
2, 328611, Note_on_c, 0, 67, 53
2, 328645, Note_on_c, 0, 39, 37
2, 328665, Note_on_c, 0, 55, 34
2, 328667, Note_on_c, 0, 61, 43
2, 328701, Note_on_c, 0, 46, 27
2, 328708, Control_c, 0, 64, 0
2, 329201, Control_c, 0, 64, 127
2, 329326, Note_on_c, 0, 55, 0
2, 329483, Note_on_c, 0, 61, 0
2, 329512, Note_on_c, 0, 67, 0
2, 329714, Note_on_c, 0, 39, 0
2, 329796, Note_on_c, 0, 46, 0
2, 330269, Note_on_c, 0, 69, 61
2, 330587, Note_on_c, 0, 69, 0
2, 330784, Note_on_c, 0, 70, 78
2, 331293, Note_on_c, 0, 70, 0
2, 331338, Note_on_c, 0, 47, 32
2, 331398, Note_on_c, 0, 40, 39
2, 331425, Control_c, 0, 64, 0
2, 331432, Note_on_c, 0, 55, 30
2, 331438, Note_on_c, 0, 69, 52
2, 331739, Control_c, 0, 64, 127
2, 332086, Note_on_c, 0, 40, 0
2, 332160, Note_on_c, 0, 47, 0
2, 332292, Note_on_c, 0, 69, 0
2, 332328, Note_on_c, 0, 55, 0
2, 333430, Note_on_c, 0, 61, 34
2, 333483, Note_on_c, 0, 55, 24
2, 333504, Note_on_c, 0, 58, 29
2, 333508, Note_on_c, 0, 45, 29
2, 333535, Control_c, 0, 64, 0
2, 333871, Control_c, 0, 64, 127
2, 334099, Note_on_c, 0, 45, 0
2, 334124, Note_on_c, 0, 58, 0
2, 334310, Note_on_c, 0, 55, 0
2, 334807, Note_on_c, 0, 67, 50
2, 335329, Note_on_c, 0, 61, 0
2, 335358, Note_on_c, 0, 67, 0
2, 335466, Control_c, 0, 64, 0
2, 335594, Note_on_c, 0, 61, 19
2, 335598, Note_on_c, 0, 50, 32
2, 335616, Note_on_c, 0, 66, 34
2, 335847, Control_c, 0, 64, 127
2, 336051, Note_on_c, 0, 61, 0
2, 336124, Note_on_c, 0, 66, 0
2, 336906, Note_on_c, 0, 50, 0
2, 336958, Note_on_c, 0, 57, 37
2, 337695, Note_on_c, 0, 66, 33
2, 337757, Note_on_c, 0, 64, 31
2, 337764, Note_on_c, 0, 73, 25
2, 337771, Note_on_c, 0, 76, 22
2, 337787, Note_on_c, 0, 69, 22
2, 337881, Note_on_c, 0, 66, 0
2, 337892, Note_on_c, 0, 69, 0
2, 338044, Note_on_c, 0, 73, 0
2, 338078, Note_on_c, 0, 76, 0
2, 338470, Note_on_c, 0, 83, 77
2, 339088, Note_on_c, 0, 64, 0
2, 339097, Note_on_c, 0, 76, 54
2, 339413, Note_on_c, 0, 83, 0
2, 339711, Note_on_c, 0, 76, 0
2, 339816, Note_on_c, 0, 78, 67
2, 339879, Note_on_c, 0, 64, 27
2, 340300, Note_on_c, 0, 64, 0
2, 340403, Note_on_c, 0, 78, 0
2, 340470, Note_on_c, 0, 71, 44
2, 341039, Note_on_c, 0, 71, 0
2, 341138, Note_on_c, 0, 76, 68
2, 341698, Note_on_c, 0, 76, 0
2, 341731, Note_on_c, 0, 50, 29
2, 341754, Control_c, 0, 64, 0
2, 341792, Note_on_c, 0, 73, 45
2, 342000, Control_c, 0, 64, 127
2, 342488, Note_on_c, 0, 66, 38
2, 342632, Note_on_c, 0, 73, 0
2, 343165, Note_on_c, 0, 64, 45
2, 343185, Note_on_c, 0, 57, 0
2, 343611, Note_on_c, 0, 64, 0
2, 343738, Note_on_c, 0, 66, 0
2, 343915, Note_on_c, 0, 50, 0
2, 343982, Note_on_c, 0, 65, 40
2, 344009, Note_on_c, 0, 56, 18
2, 344065, Control_c, 0, 64, 0
2, 344072, Note_on_c, 0, 60, 16
2, 344361, Note_on_c, 0, 56, 0
2, 344403, Control_c, 0, 64, 127
2, 344751, Note_on_c, 0, 65, 0
2, 344890, Note_on_c, 0, 60, 0
2, 345338, Note_on_c, 0, 32, 42
2, 345367, Control_c, 0, 64, 0
2, 345394, Note_on_c, 0, 65, 44
2, 345414, Note_on_c, 0, 44, 18
2, 345447, Note_on_c, 0, 58, 21
2, 345450, Note_on_c, 0, 62, 36
2, 345593, Note_on_c, 0, 44, 0
2, 345618, Note_on_c, 0, 58, 0
2, 345638, Note_on_c, 0, 32, 0
2, 345640, Note_on_c, 0, 62, 0
2, 345689, Note_on_c, 0, 65, 0
2, 347452, Note_on_c, 0, 58, 31
2, 347477, Note_on_c, 0, 53, 19
2, 347479, Note_on_c, 0, 32, 28
2, 347483, Note_on_c, 0, 62, 29
2, 347504, Note_on_c, 0, 44, 19
2, 347927, Control_c, 0, 64, 127
2, 347965, Note_on_c, 0, 53, 0
2, 348026, Note_on_c, 0, 44, 0
2, 348046, Note_on_c, 0, 32, 0
2, 348070, Note_on_c, 0, 58, 0
2, 348075, Note_on_c, 0, 62, 0
2, 348281, Note_on_c, 0, 32, 29
2, 348292, Note_on_c, 0, 44, 31
2, 348299, Note_on_c, 0, 58, 26
2, 348323, Note_on_c, 0, 53, 27
2, 348326, Note_on_c, 0, 62, 31
2, 348597, Note_on_c, 0, 65, 1
2, 348879, Note_on_c, 0, 62, 0
2, 349011, Note_on_c, 0, 32, 0
2, 349016, Note_on_c, 0, 44, 0
2, 349085, Note_on_c, 0, 53, 0
2, 349175, Note_on_c, 0, 58, 0
2, 349298, Note_on_c, 0, 65, 0
2, 349721, Note_on_c, 0, 61, 36
2, 349726, Control_c, 0, 64, 0
2, 349735, Note_on_c, 0, 65, 47
2, 349744, Note_on_c, 0, 31, 33
2, 349753, Note_on_c, 0, 59, 50
2, 349768, Note_on_c, 0, 53, 32
2, 349773, Note_on_c, 0, 43, 26
2, 350194, Control_c, 0, 64, 127
2, 350429, Note_on_c, 0, 53, 0
2, 350481, Note_on_c, 0, 65, 0
2, 350575, Note_on_c, 0, 31, 0
2, 350676, Note_on_c, 0, 61, 0
2, 350814, Note_on_c, 0, 43, 0
2, 351068, Note_on_c, 0, 59, 0
2, 351240, Note_on_c, 0, 67, 77
2, 351692, Note_on_c, 0, 67, 0
2, 352535, Note_on_c, 0, 63, 53
2, 352553, Control_c, 0, 64, 0
2, 352577, Note_on_c, 0, 54, 35
2, 352584, Note_on_c, 0, 48, 46
2, 352602, Note_on_c, 0, 60, 48
2, 352627, Note_on_c, 0, 58, 39
2, 353048, Control_c, 0, 64, 127
2, 353063, Note_on_c, 0, 60, 0
2, 353204, Note_on_c, 0, 58, 0
2, 353370, Note_on_c, 0, 54, 0
2, 353628, Note_on_c, 0, 54, 28
2, 353868, Note_on_c, 0, 54, 0
2, 353926, Note_on_c, 0, 58, 23
2, 353955, Note_on_c, 0, 60, 25
2, 354094, Note_on_c, 0, 60, 0
2, 354103, Note_on_c, 0, 54, 36
2, 354168, Note_on_c, 0, 58, 0
2, 354338, Note_on_c, 0, 54, 0
2, 354367, Note_on_c, 0, 58, 44
2, 354557, Note_on_c, 0, 54, 44
2, 354620, Note_on_c, 0, 58, 0
2, 354779, Note_on_c, 0, 54, 0
2, 354795, Note_on_c, 0, 58, 52
2, 354802, Note_on_c, 0, 60, 41
2, 354967, Note_on_c, 0, 54, 46
2, 355021, Note_on_c, 0, 60, 0
2, 355064, Note_on_c, 0, 58, 0
2, 355189, Note_on_c, 0, 48, 0
2, 355191, Note_on_c, 0, 58, 51
2, 355207, Note_on_c, 0, 54, 0
2, 355225, Note_on_c, 0, 60, 57
2, 355384, Note_on_c, 0, 54, 43
2, 355418, Note_on_c, 0, 60, 0
2, 355478, Note_on_c, 0, 58, 0
2, 355608, Note_on_c, 0, 58, 46
2, 355610, Note_on_c, 0, 54, 0
2, 355644, Note_on_c, 0, 60, 54
2, 355758, Note_on_c, 0, 60, 0
2, 355794, Note_on_c, 0, 54, 38
2, 355884, Note_on_c, 0, 58, 0
2, 356011, Note_on_c, 0, 54, 0
2, 356036, Note_on_c, 0, 58, 31
2, 356108, Note_on_c, 0, 60, 32
2, 356208, Note_on_c, 0, 54, 39
2, 356220, Note_on_c, 0, 60, 0
2, 356291, Note_on_c, 0, 58, 0
2, 356437, Note_on_c, 0, 54, 0
2, 356455, Note_on_c, 0, 60, 35
2, 356470, Note_on_c, 0, 58, 31
2, 356603, Note_on_c, 0, 51, 33
2, 356638, Note_on_c, 0, 54, 39
2, 356708, Note_on_c, 0, 60, 0
2, 356750, Note_on_c, 0, 58, 0
2, 356797, Note_on_c, 0, 52, 37
2, 356802, Note_on_c, 0, 51, 0
2, 356889, Note_on_c, 0, 52, 0
2, 356898, Note_on_c, 0, 58, 35
2, 356903, Note_on_c, 0, 53, 58
2, 356905, Note_on_c, 0, 54, 0
2, 356923, Note_on_c, 0, 60, 50
2, 356930, Control_c, 0, 64, 0
2, 357084, Note_on_c, 0, 54, 35
2, 357156, Note_on_c, 0, 60, 0
2, 357210, Note_on_c, 0, 58, 0
2, 357348, Note_on_c, 0, 58, 32
2, 357351, Note_on_c, 0, 54, 0
2, 357389, Note_on_c, 0, 60, 40
2, 357496, Note_on_c, 0, 60, 0
2, 357539, Note_on_c, 0, 54, 34
2, 357664, Note_on_c, 0, 58, 0
2, 357765, Note_on_c, 0, 54, 0
2, 357790, Note_on_c, 0, 58, 15
2, 357996, Note_on_c, 0, 54, 37
2, 358166, Control_c, 0, 64, 127
2, 358204, Note_on_c, 0, 54, 0
2, 358430, Note_on_c, 0, 54, 36
2, 358516, Note_on_c, 0, 58, 0
2, 358663, Note_on_c, 0, 54, 0
2, 358684, Note_on_c, 0, 58, 18
2, 358872, Note_on_c, 0, 54, 29
2, 358903, Note_on_c, 0, 58, 0
2, 359096, Note_on_c, 0, 41, 44
2, 359100, Note_on_c, 0, 54, 0
2, 359109, Control_c, 0, 64, 0
2, 359111, Note_on_c, 0, 58, 27
2, 359317, Note_on_c, 0, 58, 0
2, 359324, Note_on_c, 0, 54, 36
2, 359532, Note_on_c, 0, 54, 0
2, 359604, Control_c, 0, 64, 127
2, 359741, Note_on_c, 0, 54, 27
2, 359992, Note_on_c, 0, 54, 0
2, 360088, Note_on_c, 0, 60, 17
2, 360343, Note_on_c, 0, 54, 19
2, 360361, Note_on_c, 0, 53, 0
2, 360388, Note_on_c, 0, 58, 21
2, 360413, Note_on_c, 0, 60, 0
2, 360635, Note_on_c, 0, 54, 0
2, 360946, Note_on_c, 0, 46, 23
2, 361065, Note_on_c, 0, 58, 0
2, 361109, Note_on_c, 0, 63, 0
2, 361354, Control_c, 0, 64, 0
2, 361421, Note_on_c, 0, 46, 0
2, 361551, Note_on_c, 0, 57, 40
2, 361575, Note_on_c, 0, 53, 28
2, 361578, Note_on_c, 0, 62, 38
2, 361582, Note_on_c, 0, 58, 33
2, 361808, Control_c, 0, 64, 127
2, 361970, Note_on_c, 0, 41, 0
2, 362061, Note_on_c, 0, 57, 0
2, 362173, Note_on_c, 0, 58, 0
2, 362232, Note_on_c, 0, 62, 0
2, 362279, Note_on_c, 0, 53, 0
2, 363918, Note_on_c, 0, 65, 28
2, 363995, Note_on_c, 0, 62, 22
2, 364030, Note_on_c, 0, 60, 17
2, 364525, Note_on_c, 0, 74, 58
2, 364830, Note_on_c, 0, 65, 0
2, 364886, Note_on_c, 0, 62, 0
2, 364967, Note_on_c, 0, 60, 0
2, 365150, Note_on_c, 0, 74, 0
2, 365350, Note_on_c, 0, 77, 51
2, 365657, Note_on_c, 0, 77, 0
2, 365813, Note_on_c, 0, 81, 70
2, 366058, Note_on_c, 0, 81, 0
2, 366313, Note_on_c, 0, 82, 69
2, 366329, Note_on_c, 0, 70, 52
2, 366342, Control_c, 0, 64, 0
2, 366347, Note_on_c, 0, 75, 53
2, 366356, Note_on_c, 0, 53, 34
2, 366364, Note_on_c, 0, 63, 25
2, 366754, Note_on_c, 0, 63, 0
2, 366815, Control_c, 0, 64, 127
2, 368040, Note_on_c, 0, 70, 0
2, 368098, Note_on_c, 0, 75, 0
2, 368495, Note_on_c, 0, 63, 23
2, 368504, Note_on_c, 0, 58, 34
2, 368557, Note_on_c, 0, 65, 35
2, 369543, Note_on_c, 0, 82, 0
2, 369866, Note_on_c, 0, 58, 0
2, 370244, Note_on_c, 0, 86, 77
2, 370367, Note_on_c, 0, 63, 0
2, 370385, Note_on_c, 0, 65, 0
2, 370618, Note_on_c, 0, 81, 69
2, 370717, Note_on_c, 0, 86, 0
2, 371001, Note_on_c, 0, 81, 0
2, 371012, Control_c, 0, 64, 0
2, 371044, Note_on_c, 0, 65, 32
2, 371048, Note_on_c, 0, 62, 32
2, 371062, Note_on_c, 0, 60, 22
2, 371113, Note_on_c, 0, 84, 64
2, 371776, Control_c, 0, 64, 127
2, 371837, Note_on_c, 0, 82, 44
2, 371904, Note_on_c, 0, 53, 0
2, 371994, Note_on_c, 0, 84, 0
2, 372276, Note_on_c, 0, 82, 0
2, 372377, Note_on_c, 0, 81, 55
2, 372764, Note_on_c, 0, 77, 46
2, 372881, Note_on_c, 0, 81, 0
2, 372986, Note_on_c, 0, 77, 0
2, 373176, Note_on_c, 0, 74, 42
2, 373244, Note_on_c, 0, 53, 24
2, 373304, Control_c, 0, 64, 0
2, 373622, Note_on_c, 0, 74, 0
2, 373640, Control_c, 0, 64, 127
2, 373712, Note_on_c, 0, 70, 34
2, 374198, Note_on_c, 0, 69, 40
2, 374252, Note_on_c, 0, 70, 0
2, 374415, Note_on_c, 0, 65, 0
2, 374549, Note_on_c, 0, 60, 0
2, 374693, Note_on_c, 0, 62, 0
2, 375324, Control_c, 0, 64, 0
2, 375333, Note_on_c, 0, 58, 33
2, 375340, Note_on_c, 0, 63, 23
2, 375360, Note_on_c, 0, 65, 31
2, 375683, Control_c, 0, 64, 127
2, 376550, Note_on_c, 0, 63, 0
2, 376577, Note_on_c, 0, 58, 0
2, 376948, Note_on_c, 0, 69, 0
2, 377092, Note_on_c, 0, 53, 0
2, 377721, Note_on_c, 0, 53, 29
2, 378508, Note_on_c, 0, 93, 76
2, 379139, Note_on_c, 0, 65, 0
2, 379361, Note_on_c, 0, 94, 46
2, 379513, Note_on_c, 0, 93, 0
2, 379583, Note_on_c, 0, 95, 62
2, 379607, Note_on_c, 0, 94, 0
2, 379677, Note_on_c, 0, 95, 0
2, 379827, Note_on_c, 0, 96, 81
2, 380129, Control_c, 0, 64, 0
2, 380196, Note_on_c, 0, 96, 0
2, 380264, Note_on_c, 0, 93, 71
2, 380270, Note_on_c, 0, 65, 44
2, 380304, Note_on_c, 0, 62, 35
2, 380315, Note_on_c, 0, 60, 31
2, 380445, Note_on_c, 0, 65, 0
2, 380465, Control_c, 0, 64, 127
2, 380479, Note_on_c, 0, 62, 0
2, 380528, Note_on_c, 0, 60, 0
2, 380593, Note_on_c, 0, 53, 0
2, 380987, Note_on_c, 0, 93, 0
2, 381310, Note_on_c, 0, 46, 50
2, 382445, Note_on_c, 0, 65, 54
2, 382450, Note_on_c, 0, 57, 57
2, 382452, Note_on_c, 0, 62, 57
2, 382475, Note_on_c, 0, 53, 30
2, 382781, Note_on_c, 0, 57, 0
2, 383023, Note_on_c, 0, 62, 0
2, 383070, Note_on_c, 0, 65, 0
2, 383563, Note_on_c, 0, 57, 66
2, 383583, Note_on_c, 0, 46, 0
2, 383586, Note_on_c, 0, 53, 0
2, 383913, Note_on_c, 0, 57, 0
2, 384674, Note_on_c, 0, 81, 78
2, 384679, Note_on_c, 0, 74, 81
2, 384724, Note_on_c, 0, 62, 55
2, 385458, Note_on_c, 0, 74, 0
2, 385633, Note_on_c, 0, 81, 0
2, 385767, Note_on_c, 0, 77, 48
2, 385783, Note_on_c, 0, 74, 53
2, 385785, Note_on_c, 0, 65, 43
2, 385808, Note_on_c, 0, 69, 41
2, 385938, Note_on_c, 0, 62, 0
2, 385967, Note_on_c, 0, 65, 0
2, 385989, Note_on_c, 0, 77, 0
2, 386009, Note_on_c, 0, 74, 0
2, 386128, Note_on_c, 0, 69, 0
2, 386887, Note_on_c, 0, 74, 36
2, 386894, Note_on_c, 0, 67, 43
2, 386950, Note_on_c, 0, 57, 32
2, 387394, Note_on_c, 0, 67, 0
2, 387568, Note_on_c, 0, 74, 0
2, 387904, Note_on_c, 0, 57, 0
2, 388036, Note_on_c, 0, 53, 29
2, 388182, Note_on_c, 0, 53, 0
2, 388807, Note_on_c, 0, 70, 59
2, 389197, Note_on_c, 0, 70, 0
2, 389421, Note_on_c, 0, 28, 28
2, 389448, Control_c, 0, 64, 0
2, 389490, Note_on_c, 0, 68, 42
2, 389851, Control_c, 0, 64, 127
2, 389938, Note_on_c, 0, 28, 0
2, 390165, Note_on_c, 0, 68, 0
2, 391058, Note_on_c, 0, 82, 58
2, 391164, Note_on_c, 0, 78, 48
2, 391258, Note_on_c, 0, 73, 27
2, 391408, Note_on_c, 0, 82, 0
2, 391446, Note_on_c, 0, 78, 0
2, 391524, Note_on_c, 0, 73, 0
2, 391876, Note_on_c, 0, 78, 33
2, 391941, Note_on_c, 0, 68, 39
2, 391990, Note_on_c, 0, 56, 40
2, 392021, Note_on_c, 0, 62, 30
2, 393045, Note_on_c, 0, 68, 0
2, 393162, Note_on_c, 0, 78, 0
2, 393189, Note_on_c, 0, 62, 0
2, 393560, Note_on_c, 0, 56, 0
2, 394452, Note_on_c, 0, 61, 27
2, 394459, Note_on_c, 0, 56, 35
2, 394506, Note_on_c, 0, 70, 30
2, 394508, Note_on_c, 0, 66, 33
2, 394559, Note_on_c, 0, 62, 32
2, 395644, Note_on_c, 0, 62, 0
2, 395816, Note_on_c, 0, 56, 0
2, 396165, Note_on_c, 0, 66, 0
2, 396999, Note_on_c, 0, 66, 36
2, 397978, Note_on_c, 0, 61, 0
2, 398022, Note_on_c, 0, 66, 0
2, 398087, Note_on_c, 0, 70, 0
2, 399353, Note_on_c, 0, 61, 34
2, 399373, Control_c, 0, 64, 0
2, 399375, Note_on_c, 0, 39, 30
2, 399396, Note_on_c, 0, 55, 17
2, 399743, Note_on_c, 0, 46, 1
2, 399774, Control_c, 0, 64, 127
2, 400128, Note_on_c, 0, 39, 0
2, 400283, Note_on_c, 0, 55, 0
2, 401008, Note_on_c, 0, 61, 0
2, 401801, Note_on_c, 0, 67, 64
2, 402032, Note_on_c, 0, 46, 0
2, 402122, Note_on_c, 0, 67, 0
2, 403345, Note_on_c, 0, 69, 56
2, 403537, Note_on_c, 0, 69, 0
2, 403600, Note_on_c, 0, 70, 58
2, 403885, Note_on_c, 0, 69, 56
2, 403963, Note_on_c, 0, 70, 0
2, 404138, Note_on_c, 0, 69, 0
2, 404180, Note_on_c, 0, 67, 43
2, 404243, Control_c, 0, 64, 0
2, 404303, Note_on_c, 0, 62, 29
2, 404317, Note_on_c, 0, 57, 22
2, 404321, Note_on_c, 0, 52, 25
2, 404326, Note_on_c, 0, 58, 36
2, 404330, Note_on_c, 0, 67, 0
2, 404458, Note_on_c, 0, 69, 51
2, 404850, Control_c, 0, 64, 127
2, 405482, Note_on_c, 0, 52, 0
2, 405609, Note_on_c, 0, 57, 0
2, 405665, Note_on_c, 0, 58, 0
2, 405715, Note_on_c, 0, 62, 0
2, 406725, Note_on_c, 0, 61, 32
2, 406734, Note_on_c, 0, 65, 38
2, 406763, Note_on_c, 0, 55, 30
2, 406826, Control_c, 0, 64, 0
2, 407139, Control_c, 0, 64, 127
2, 407578, Note_on_c, 0, 69, 0
2, 407984, Note_on_c, 0, 65, 0
2, 408082, Note_on_c, 0, 61, 0
2, 408138, Note_on_c, 0, 55, 0
2, 408501, Note_on_c, 0, 79, 56
2, 408806, Note_on_c, 0, 79, 0
2, 408864, Note_on_c, 0, 76, 43
2, 409068, Note_on_c, 0, 76, 0
2, 409093, Control_c, 0, 64, 0
2, 409240, Note_on_c, 0, 38, 34
2, 409281, Note_on_c, 0, 78, 51
2, 409476, Control_c, 0, 64, 127
2, 409543, Note_on_c, 0, 38, 0
2, 410510, Note_on_c, 0, 61, 33
2, 410553, Note_on_c, 0, 64, 28
2, 410562, Note_on_c, 0, 59, 34
2, 410591, Note_on_c, 0, 54, 27
2, 410705, Note_on_c, 0, 78, 0
2, 411754, Note_on_c, 0, 73, 58
2, 411772, Note_on_c, 0, 71, 66
2, 412233, Note_on_c, 0, 73, 0
2, 412235, Note_on_c, 0, 71, 0
2, 412405, Note_on_c, 0, 73, 44
2, 412444, Note_on_c, 0, 71, 40
2, 412515, Note_on_c, 0, 64, 0
2, 412780, Note_on_c, 0, 71, 0
2, 412871, Note_on_c, 0, 73, 0
2, 413004, Note_on_c, 0, 69, 45
2, 413073, Note_on_c, 0, 59, 0
2, 413297, Note_on_c, 0, 61, 0
2, 413848, Note_on_c, 0, 69, 0
2, 414171, Note_on_c, 0, 76, 68
2, 414191, Note_on_c, 0, 64, 31
2, 414200, Note_on_c, 0, 73, 46
2, 414215, Note_on_c, 0, 71, 53
2, 414516, Note_on_c, 0, 76, 0
2, 414612, Note_on_c, 0, 71, 0
2, 414648, Note_on_c, 0, 73, 0
2, 414778, Note_on_c, 0, 64, 0
2, 414811, Note_on_c, 0, 76, 66
2, 415248, Note_on_c, 0, 76, 0
2, 415450, Note_on_c, 0, 71, 40
2, 415452, Note_on_c, 0, 73, 26
2, 415463, Note_on_c, 0, 69, 35
2, 416019, Note_on_c, 0, 71, 0
2, 416202, Note_on_c, 0, 69, 0
2, 416355, Note_on_c, 0, 73, 0
2, 416558, Note_on_c, 0, 61, 30
2, 416576, Note_on_c, 0, 64, 39
2, 416599, Note_on_c, 0, 71, 61
2, 416962, Note_on_c, 0, 71, 0
2, 417040, Note_on_c, 0, 64, 0
2, 417226, Note_on_c, 0, 54, 0
2, 417269, Note_on_c, 0, 71, 56
2, 417298, Note_on_c, 0, 66, 34
2, 417367, Note_on_c, 0, 61, 0
2, 417490, Note_on_c, 0, 66, 0
2, 417739, Note_on_c, 0, 71, 0
2, 417871, Note_on_c, 0, 66, 35
2, 418030, Note_on_c, 0, 66, 0
2, 419217, Note_on_c, 0, 65, 46
2, 419222, Note_on_c, 0, 54, 25
2, 419229, Note_on_c, 0, 32, 31
2, 419231, Note_on_c, 0, 60, 42
2, 419242, Control_c, 0, 64, 0
2, 419255, Note_on_c, 0, 44, 18
2, 419258, Note_on_c, 0, 58, 47
2, 420140, Control_c, 0, 64, 127
2, 420776, Note_on_c, 0, 54, 0
2, 420846, Note_on_c, 0, 60, 0
2, 420942, Note_on_c, 0, 58, 0
2, 421825, Note_on_c, 0, 54, 37
2, 421829, Note_on_c, 0, 32, 0
2, 421874, Note_on_c, 0, 44, 0
2, 421876, Note_on_c, 0, 58, 37
2, 421912, Note_on_c, 0, 60, 29
2, 422622, Note_on_c, 0, 45, 38
2, 422743, Control_c, 0, 64, 0
2, 423274, Note_on_c, 0, 45, 0
2, 423283, Control_c, 0, 64, 127
2, 423312, Note_on_c, 0, 44, 46
2, 423440, Note_on_c, 0, 65, 0
2, 423601, Note_on_c, 0, 60, 0
2, 423897, Note_on_c, 0, 54, 0
2, 423957, Note_on_c, 0, 58, 0
2, 424118, Note_on_c, 0, 44, 0
2, 424136, Control_c, 0, 64, 0
2, 424141, Note_on_c, 0, 59, 44
2, 424170, Note_on_c, 0, 43, 32
2, 424177, Note_on_c, 0, 53, 33
2, 424564, Control_c, 0, 64, 127
2, 424970, Note_on_c, 0, 31, 53
2, 425196, Note_on_c, 0, 31, 0
2, 425218, Note_on_c, 0, 53, 0
2, 425359, Note_on_c, 0, 43, 0
2, 425436, Note_on_c, 0, 59, 0
2, 426668, Note_on_c, 0, 56, 77
2, 426670, Note_on_c, 0, 67, 68
2, 426674, Note_on_c, 0, 59, 66
2, 426690, Note_on_c, 0, 62, 57
2, 426815, Control_c, 0, 64, 0
2, 427570, Note_on_c, 0, 53, 73
2, 427953, Note_on_c, 0, 53, 0
2, 428298, Note_on_c, 0, 67, 0
2, 428361, Note_on_c, 0, 47, 66
2, 428406, Control_c, 0, 64, 127
2, 428453, Note_on_c, 0, 62, 0
2, 428504, Note_on_c, 0, 59, 0
2, 428852, Note_on_c, 0, 56, 0
2, 429190, Note_on_c, 0, 63, 60
2, 429197, Control_c, 0, 64, 0
2, 429199, Note_on_c, 0, 54, 70
2, 429203, Note_on_c, 0, 47, 0
2, 429217, Note_on_c, 0, 58, 69
2, 429219, Note_on_c, 0, 60, 63
2, 429244, Note_on_c, 0, 48, 62
2, 430001, Control_c, 0, 64, 127
2, 430411, Note_on_c, 0, 36, 71
2, 430657, Note_on_c, 0, 36, 0
2, 430695, Note_on_c, 0, 48, 0
2, 431419, Note_on_c, 0, 54, 0
2, 431497, Note_on_c, 0, 63, 0
2, 431663, Note_on_c, 0, 53, 87
2, 431775, Control_c, 0, 64, 0
2, 432068, Control_c, 0, 64, 127
2, 432964, Note_on_c, 0, 41, 57
2, 433076, Control_c, 0, 64, 0
2, 433370, Control_c, 0, 64, 127
2, 433813, Note_on_c, 0, 58, 0
2, 433833, Note_on_c, 0, 53, 0
2, 433896, Note_on_c, 0, 60, 0
2, 434178, Control_c, 0, 64, 0
2, 434243, Note_on_c, 0, 63, 35
2, 434246, Note_on_c, 0, 54, 36
2, 434277, Note_on_c, 0, 60, 40
2, 434279, Note_on_c, 0, 53, 28
2, 434284, Note_on_c, 0, 58, 50
2, 434543, Control_c, 0, 64, 127
2, 435133, Note_on_c, 0, 53, 0
2, 435554, Note_on_c, 0, 53, 38
2, 436214, Note_on_c, 0, 53, 0
2, 436284, Note_on_c, 0, 54, 0
2, 436322, Note_on_c, 0, 63, 0
2, 436344, Note_on_c, 0, 60, 0
2, 436365, Note_on_c, 0, 58, 0
2, 436795, Note_on_c, 0, 63, 35
2, 436804, Note_on_c, 0, 54, 34
2, 436891, Note_on_c, 0, 53, 26
2, 436898, Note_on_c, 0, 58, 33
2, 436918, Note_on_c, 0, 60, 31
2, 437267, Note_on_c, 0, 54, 0
2, 437413, Note_on_c, 0, 41, 0
2, 437460, Note_on_c, 0, 60, 0
2, 437570, Note_on_c, 0, 58, 0
2, 437767, Note_on_c, 0, 63, 0
2, 438103, Note_on_c, 0, 41, 41
2, 438338, Note_on_c, 0, 41, 0
2, 438448, Note_on_c, 0, 53, 0
2, 439247, Note_on_c, 0, 77, 53
2, 439324, Note_on_c, 0, 74, 55
2, 439371, Control_c, 0, 64, 0
2, 439391, Note_on_c, 0, 70, 44
2, 439536, Note_on_c, 0, 65, 10
2, 439597, Note_on_c, 0, 62, 17
2, 439604, Note_on_c, 0, 69, 31
2, 439684, Control_c, 0, 64, 127
2, 439888, Note_on_c, 0, 60, 1
2, 440547, Note_on_c, 0, 69, 0
2, 440591, Note_on_c, 0, 53, 31
2, 440609, Note_on_c, 0, 70, 0
2, 440710, Note_on_c, 0, 65, 0
2, 440715, Note_on_c, 0, 74, 0
2, 440898, Note_on_c, 0, 77, 0
2, 441243, Note_on_c, 0, 62, 0
2, 441306, Note_on_c, 0, 60, 0
2, 441799, Note_on_c, 0, 62, 24
2, 441801, Note_on_c, 0, 74, 51
2, 441837, Note_on_c, 0, 65, 19
2, 442292, Note_on_c, 0, 74, 0
2, 442513, Note_on_c, 0, 77, 76
2, 443179, Note_on_c, 0, 77, 0
2, 443286, Note_on_c, 0, 79, 76
2, 443349, Note_on_c, 0, 65, 0
2, 443391, Note_on_c, 0, 62, 0
2, 443864, Note_on_c, 0, 79, 0
2, 444093, Note_on_c, 0, 58, 36
2, 444122, Note_on_c, 0, 70, 48
2, 444191, Note_on_c, 0, 63, 43
2, 444200, Note_on_c, 0, 75, 56
2, 444265, Control_c, 0, 64, 0
2, 444270, Note_on_c, 0, 65, 48
2, 444368, Note_on_c, 0, 79, 59
2, 444471, Note_on_c, 0, 82, 54
2, 444623, Control_c, 0, 64, 127
2, 445363, Note_on_c, 0, 58, 0
2, 445419, Note_on_c, 0, 63, 0
2, 445430, Note_on_c, 0, 53, 0
2, 445645, Note_on_c, 0, 53, 36
2, 446384, Note_on_c, 0, 53, 0
2, 446796, Note_on_c, 0, 53, 37
2, 447735, Note_on_c, 0, 53, 0
2, 448008, Note_on_c, 0, 53, 38
2, 448102, Note_on_c, 0, 70, 0
2, 448687, Note_on_c, 0, 65, 0
2, 449218, Note_on_c, 0, 65, 53
2, 449240, Note_on_c, 0, 62, 46
2, 449256, Note_on_c, 0, 60, 38
2, 449258, Note_on_c, 0, 75, 0
2, 449657, Note_on_c, 0, 79, 0
2, 449659, Note_on_c, 0, 82, 0
2, 449858, Note_on_c, 0, 53, 0
2, 450477, Note_on_c, 0, 82, 80
2, 450497, Note_on_c, 0, 53, 51
2, 450515, Note_on_c, 0, 74, 80
2, 451021, Note_on_c, 0, 65, 0
2, 451050, Note_on_c, 0, 62, 0
2, 451146, Note_on_c, 0, 60, 0
2, 451386, Note_on_c, 0, 74, 0
2, 451507, Note_on_c, 0, 82, 0
2, 451686, Note_on_c, 0, 82, 74
2, 451718, Note_on_c, 0, 62, 49
2, 451720, Note_on_c, 0, 74, 71
2, 451749, Note_on_c, 0, 65, 36
2, 451774, Note_on_c, 0, 60, 33
2, 452047, Note_on_c, 0, 65, 0
2, 452060, Note_on_c, 0, 53, 0
2, 452535, Note_on_c, 0, 82, 0
2, 452714, Note_on_c, 0, 74, 0
2, 452829, Note_on_c, 0, 60, 0
2, 452849, Note_on_c, 0, 53, 57
2, 452909, Note_on_c, 0, 62, 0
2, 453651, Note_on_c, 0, 53, 0
2, 454056, Note_on_c, 0, 71, 74
2, 454058, Note_on_c, 0, 61, 60
2, 454074, Note_on_c, 0, 68, 70
2, 454083, Note_on_c, 0, 64, 76
2, 454094, Note_on_c, 0, 59, 60
2, 454099, Note_on_c, 0, 57, 62
2, 454108, Control_c, 0, 64, 0
2, 454444, Control_c, 0, 64, 127
2, 455095, Note_on_c, 0, 57, 0
2, 455120, Note_on_c, 0, 61, 0
2, 455142, Note_on_c, 0, 59, 0
2, 455438, Note_on_c, 0, 64, 0
2, 455844, Note_on_c, 0, 71, 0
2, 455911, Note_on_c, 0, 68, 0
2, 456699, Note_on_c, 0, 63, 46
2, 456702, Note_on_c, 0, 71, 50
2, 456717, Note_on_c, 0, 68, 44
2, 458247, Note_on_c, 0, 71, 0
2, 458460, Note_on_c, 0, 63, 0
2, 458693, Note_on_c, 0, 68, 0
2, 459190, Note_on_c, 0, 75, 50
2, 459204, Control_c, 0, 64, 0
2, 459278, Note_on_c, 0, 40, 28
2, 459515, Control_c, 0, 64, 127
2, 459645, Note_on_c, 0, 40, 0
2, 461777, Note_on_c, 0, 71, 35
2, 461791, Note_on_c, 0, 68, 37
2, 461793, Note_on_c, 0, 64, 33
2, 464320, Control_c, 0, 64, 0
2, 464409, Note_on_c, 0, 57, 45
2, 464613, Control_c, 0, 64, 127
2, 465899, Note_on_c, 0, 64, 0
2, 466085, Note_on_c, 0, 68, 0
2, 466134, Note_on_c, 0, 71, 0
2, 466170, Note_on_c, 0, 75, 0
2, 466302, Note_on_c, 0, 73, 37
2, 466320, Note_on_c, 0, 69, 71
2, 466327, Note_on_c, 0, 64, 73
2, 467082, Note_on_c, 0, 73, 0
2, 467086, Note_on_c, 0, 63, 50
2, 467097, Note_on_c, 0, 69, 0
2, 467243, Note_on_c, 0, 63, 0
2, 467427, Note_on_c, 0, 57, 0
2, 467796, Note_on_c, 0, 64, 0
2, 467928, Note_on_c, 0, 71, 60
2, 468202, Note_on_c, 0, 71, 0
2, 468710, Note_on_c, 0, 68, 47
2, 469008, Note_on_c, 0, 68, 0
2, 469673, Note_on_c, 0, 66, 46
2, 469682, Note_on_c, 0, 59, 36
2, 469694, Note_on_c, 0, 64, 49
2, 469776, Control_c, 0, 64, 0
2, 470558, Note_on_c, 0, 44, 33
2, 470921, Control_c, 0, 64, 127
2, 471537, Note_on_c, 0, 59, 0
2, 471553, Note_on_c, 0, 64, 0
2, 472030, Note_on_c, 0, 66, 0
2, 472149, Note_on_c, 0, 64, 39
2, 472207, Note_on_c, 0, 59, 33
2, 472388, Note_on_c, 0, 56, 18
2, 472572, Note_on_c, 0, 56, 0
2, 473056, Note_on_c, 0, 56, 42
2, 473163, Note_on_c, 0, 44, 0
2, 473502, Control_c, 0, 64, 0
2, 473549, Control_c, 0, 64, 127
2, 473584, Note_on_c, 0, 64, 0
2, 473670, Note_on_c, 0, 56, 0
2, 473768, Note_on_c, 0, 59, 0
2, 473775, Note_on_c, 0, 44, 33
2, 474454, Note_on_c, 0, 44, 0
2, 474581, Control_c, 0, 64, 0
2, 474604, Note_on_c, 0, 66, 35
2, 474608, Note_on_c, 0, 61, 36
2, 474624, Note_on_c, 0, 58, 39
2, 474635, Note_on_c, 0, 43, 36
2, 474653, Note_on_c, 0, 55, 35
2, 474964, Control_c, 0, 64, 127
2, 475600, Note_on_c, 0, 55, 0
2, 476010, Note_on_c, 0, 58, 0
2, 477249, Note_on_c, 0, 55, 34
2, 477263, Note_on_c, 0, 64, 62
2, 477265, Note_on_c, 0, 58, 48
2, 477319, Control_c, 0, 64, 0
2, 477522, Control_c, 0, 64, 127
2, 477867, Note_on_c, 0, 43, 0
2, 477879, Note_on_c, 0, 55, 0
2, 478098, Note_on_c, 0, 58, 0
2, 478172, Note_on_c, 0, 64, 0
2, 478197, Note_on_c, 0, 61, 0
2, 478349, Note_on_c, 0, 66, 0
2, 479859, Note_on_c, 0, 66, 46
2, 479865, Note_on_c, 0, 71, 51
2, 479888, Note_on_c, 0, 64, 55
2, 479908, Note_on_c, 0, 60, 33
2, 479910, Note_on_c, 0, 48, 32
2, 479946, Control_c, 0, 64, 0
2, 480419, Control_c, 0, 64, 127
2, 481180, Note_on_c, 0, 55, 25
2, 481590, Note_on_c, 0, 60, 0
2, 482072, Note_on_c, 0, 64, 0
2, 482406, Note_on_c, 0, 64, 47
2, 482410, Note_on_c, 0, 71, 0
2, 482448, Note_on_c, 0, 60, 37
2, 482506, Note_on_c, 0, 66, 0
2, 482748, Note_on_c, 0, 55, 0
2, 482858, Note_on_c, 0, 48, 0
2, 483678, Note_on_c, 0, 71, 68
2, 484296, Note_on_c, 0, 64, 0
2, 484316, Note_on_c, 0, 60, 0
2, 484424, Note_on_c, 0, 71, 0
2, 484574, Note_on_c, 0, 41, 51
2, 484740, Note_on_c, 0, 48, 31
2, 484773, Note_on_c, 0, 59, 45
2, 484849, Note_on_c, 0, 63, 49
2, 484917, Note_on_c, 0, 57, 42
2, 484930, Note_on_c, 0, 67, 61
2, 484955, Control_c, 0, 64, 0
2, 484997, Note_on_c, 0, 71, 67
2, 485427, Control_c, 0, 64, 127
2, 485965, Note_on_c, 0, 71, 0
2, 486303, Note_on_c, 0, 71, 64
2, 486467, Note_on_c, 0, 59, 0
2, 486747, Note_on_c, 0, 57, 0
2, 487085, Note_on_c, 0, 67, 0
2, 487098, Note_on_c, 0, 71, 0
2, 487145, Note_on_c, 0, 63, 0
2, 487481, Note_on_c, 0, 71, 40
2, 487484, Note_on_c, 0, 59, 35
2, 487499, Note_on_c, 0, 63, 44
2, 487526, Note_on_c, 0, 57, 35
2, 487591, Note_on_c, 0, 67, 33
2, 487918, Note_on_c, 0, 59, 0
2, 487967, Note_on_c, 0, 71, 0
2, 488015, Note_on_c, 0, 67, 0
2, 488091, Note_on_c, 0, 63, 0
2, 488268, Note_on_c, 0, 41, 0
2, 488382, Note_on_c, 0, 48, 0
2, 488532, Note_on_c, 0, 57, 0
2, 488756, Note_on_c, 0, 73, 42
2, 489535, Note_on_c, 0, 73, 0
2, 490006, Control_c, 0, 64, 0
2, 490026, Note_on_c, 0, 71, 36
2, 490031, Note_on_c, 0, 47, 34
2, 490062, Note_on_c, 0, 66, 32
2, 490073, Note_on_c, 0, 62, 27
2, 490109, Note_on_c, 0, 57, 27
2, 490319, Control_c, 0, 64, 127
2, 490503, Note_on_c, 0, 47, 0
2, 490541, Note_on_c, 0, 62, 0
2, 490680, Note_on_c, 0, 57, 0
2, 490897, Note_on_c, 0, 66, 0
2, 491014, Note_on_c, 0, 71, 0
2, 492743, Note_on_c, 0, 57, 36
2, 492766, Note_on_c, 0, 62, 27
2, 492768, Note_on_c, 0, 65, 25
2, 493538, Note_on_c, 0, 88, 95
2, 494383, Note_on_c, 0, 81, 57
2, 494533, Note_on_c, 0, 88, 0
2, 494578, Note_on_c, 0, 57, 0
2, 494799, Note_on_c, 0, 65, 0
2, 494999, Note_on_c, 0, 62, 0
2, 495283, Control_c, 0, 64, 0
2, 495303, Note_on_c, 0, 81, 0
2, 495328, Note_on_c, 0, 84, 54
2, 495371, Note_on_c, 0, 67, 24
2, 495375, Note_on_c, 0, 62, 32
2, 495398, Note_on_c, 0, 56, 25
2, 495597, Control_c, 0, 64, 127
2, 496583, Note_on_c, 0, 67, 0
2, 496630, Note_on_c, 0, 62, 0
2, 496784, Note_on_c, 0, 56, 0
2, 498016, Note_on_c, 0, 56, 31
2, 498086, Note_on_c, 0, 62, 20
2, 498110, Note_on_c, 0, 52, 20
2, 499100, Note_on_c, 0, 83, 49
2, 499154, Note_on_c, 0, 62, 0
2, 499217, Note_on_c, 0, 84, 0
2, 499353, Note_on_c, 0, 56, 0
2, 499396, Note_on_c, 0, 52, 0
2, 500671, Control_c, 0, 64, 0
2, 500675, Note_on_c, 0, 45, 36
2, 500695, Note_on_c, 0, 83, 0
2, 500704, Note_on_c, 0, 85, 48
2, 500919, Control_c, 0, 64, 127
2, 500993, Note_on_c, 0, 45, 0
2, 501932, Note_on_c, 0, 61, 34
2, 501965, Note_on_c, 0, 64, 33
2, 502030, Note_on_c, 0, 59, 22
2, 502604, Note_on_c, 0, 64, 0
2, 502642, Note_on_c, 0, 59, 0
2, 502727, Note_on_c, 0, 61, 0
2, 503110, Note_on_c, 0, 61, 39
2, 503139, Note_on_c, 0, 85, 0
2, 503143, Note_on_c, 0, 64, 42
2, 503168, Note_on_c, 0, 59, 44
2, 503858, Note_on_c, 0, 59, 0
2, 503910, Note_on_c, 0, 64, 0
2, 504008, Note_on_c, 0, 61, 0
2, 504279, Note_on_c, 0, 61, 45
2, 504304, Note_on_c, 0, 64, 60
2, 504324, Note_on_c, 0, 59, 59
2, 504996, Note_on_c, 0, 64, 0
2, 505009, Note_on_c, 0, 59, 0
2, 505471, Note_on_c, 0, 64, 66
2, 505489, Note_on_c, 0, 59, 61
2, 505670, Note_on_c, 0, 64, 0
2, 505814, Note_on_c, 0, 61, 0
2, 505816, Note_on_c, 0, 59, 0
2, 506752, Note_on_c, 0, 57, 74
2, 506772, Note_on_c, 0, 67, 74
2, 506786, Note_on_c, 0, 71, 70
2, 506795, Note_on_c, 0, 62, 74
2, 506891, Control_c, 0, 64, 0
2, 507339, Control_c, 0, 64, 127
2, 507724, Note_on_c, 0, 62, 0
2, 507859, Note_on_c, 0, 71, 0
2, 507870, Note_on_c, 0, 67, 0
2, 507924, Control_c, 0, 64, 0
2, 507937, Note_on_c, 0, 69, 57
2, 507980, Note_on_c, 0, 57, 0
2, 507984, Note_on_c, 0, 55, 42
2, 508000, Note_on_c, 0, 65, 59
2, 508002, Note_on_c, 0, 60, 57
2, 508170, Control_c, 0, 64, 127
2, 508515, Note_on_c, 0, 69, 0
2, 508605, Note_on_c, 0, 65, 0
2, 508719, Note_on_c, 0, 60, 0
2, 509068, Control_c, 0, 64, 0
2, 509129, Note_on_c, 0, 64, 49
2, 509133, Note_on_c, 0, 68, 46
2, 509138, Note_on_c, 0, 54, 51
2, 509162, Note_on_c, 0, 55, 0
2, 509180, Note_on_c, 0, 59, 37
2, 509270, Control_c, 0, 64, 127
2, 509608, Note_on_c, 0, 54, 0
2, 509810, Note_on_c, 0, 59, 0
2, 509996, Note_on_c, 0, 64, 0
2, 510099, Note_on_c, 0, 68, 0
2, 510327, Note_on_c, 0, 67, 51
2, 510332, Note_on_c, 0, 46, 36
2, 510334, Note_on_c, 0, 64, 39
2, 510338, Note_on_c, 0, 60, 32
2, 510352, Note_on_c, 0, 56, 33
2, 510439, Control_c, 0, 64, 0
2, 511550, Note_on_c, 0, 53, 36
2, 512126, Note_on_c, 0, 64, 0
2, 512345, Note_on_c, 0, 60, 0
2, 512686, Note_on_c, 0, 64, 40
2, 512740, Note_on_c, 0, 60, 25
2, 512885, Control_c, 0, 64, 127
2, 513246, Note_on_c, 0, 46, 0
2, 513580, Note_on_c, 0, 53, 0
2, 513624, Control_c, 0, 64, 0
2, 513703, Note_on_c, 0, 53, 32
2, 513913, Note_on_c, 0, 56, 0
2, 514164, Control_c, 0, 64, 127
2, 514214, Note_on_c, 0, 64, 0
2, 514258, Note_on_c, 0, 67, 0
2, 514451, Note_on_c, 0, 46, 34
2, 514453, Note_on_c, 0, 60, 0
2, 514827, Note_on_c, 0, 53, 0
2, 515163, Note_on_c, 0, 63, 44
2, 515166, Note_on_c, 0, 61, 39
2, 515184, Note_on_c, 0, 46, 0
2, 515188, Note_on_c, 0, 55, 29
2, 515242, Control_c, 0, 64, 0
2, 515296, Note_on_c, 0, 45, 34
2, 515782, Control_c, 0, 64, 127
2, 516655, Note_on_c, 0, 55, 0
2, 517009, Note_on_c, 0, 61, 0
2, 517045, Note_on_c, 0, 63, 0
2, 517710, Control_c, 0, 64, 0
2, 517762, Note_on_c, 0, 64, 40
2, 517782, Note_on_c, 0, 61, 29
2, 517786, Note_on_c, 0, 52, 25
2, 517820, Note_on_c, 0, 55, 22
2, 518026, Control_c, 0, 64, 127
2, 518364, Note_on_c, 0, 55, 0
2, 518373, Note_on_c, 0, 61, 0
2, 518499, Note_on_c, 0, 64, 0
2, 518595, Note_on_c, 0, 52, 0
2, 518736, Note_on_c, 0, 45, 0
2, 519587, Note_on_c, 0, 67, 44
2, 519874, Note_on_c, 0, 67, 0
2, 520318, Control_c, 0, 64, 0
2, 520340, Note_on_c, 0, 66, 36
2, 520358, Note_on_c, 0, 38, 24
2, 520360, Note_on_c, 0, 26, 24
2, 520362, Note_on_c, 0, 57, 34
2, 520365, Note_on_c, 0, 61, 30
2, 520638, Control_c, 0, 64, 127
2, 520698, Note_on_c, 0, 57, 0
2, 520788, Note_on_c, 0, 61, 0
2, 520817, Note_on_c, 0, 26, 0
2, 520833, Note_on_c, 0, 66, 0
2, 521048, Note_on_c, 0, 38, 0
2, 523037, Note_on_c, 0, 61, 20
2, 523066, Note_on_c, 0, 64, 26
2, 523068, Note_on_c, 0, 54, 25
2, 523071, Note_on_c, 0, 66, 31
2, 523075, Note_on_c, 0, 73, 29
2, 523122, Note_on_c, 0, 59, 32
2, 523162, Note_on_c, 0, 69, 26
2, 524282, Note_on_c, 0, 54, 0
2, 524291, Note_on_c, 0, 69, 0
2, 524303, Note_on_c, 0, 64, 0
2, 524350, Note_on_c, 0, 66, 0
2, 524354, Note_on_c, 0, 59, 0
2, 524356, Note_on_c, 0, 73, 0
2, 524424, Note_on_c, 0, 61, 0
2, 525053, Note_on_c, 0, 79, 56
2, 525391, Note_on_c, 0, 79, 0
2, 525774, Note_on_c, 0, 78, 32
2, 525799, Note_on_c, 0, 49, 23
2, 525826, Control_c, 0, 64, 0
2, 526095, Control_c, 0, 64, 127
2, 526384, Note_on_c, 0, 78, 0
2, 527006, Note_on_c, 0, 56, 39
2, 528227, Note_on_c, 0, 66, 27
2, 528234, Note_on_c, 0, 59, 35
2, 528238, Note_on_c, 0, 64, 50
2, 528989, Note_on_c, 0, 49, 0
2, 529432, Note_on_c, 0, 49, 53
2, 529795, Note_on_c, 0, 64, 0
2, 529813, Note_on_c, 0, 59, 0
2, 529938, Note_on_c, 0, 56, 0
2, 530129, Note_on_c, 0, 49, 0
2, 530189, Note_on_c, 0, 66, 0
2, 530700, Note_on_c, 0, 48, 62
2, 530718, Control_c, 0, 64, 0
2, 530736, Note_on_c, 0, 66, 70
2, 530754, Note_on_c, 0, 58, 70
2, 530756, Note_on_c, 0, 63, 69
2, 531099, Control_c, 0, 64, 127
2, 531816, Note_on_c, 0, 66, 0
2, 532084, Note_on_c, 0, 66, 74
2, 532956, Note_on_c, 0, 48, 0
2, 533007, Note_on_c, 0, 66, 0
2, 533390, Note_on_c, 0, 66, 56
2, 533890, Note_on_c, 0, 66, 0
2, 534109, Note_on_c, 0, 63, 0
2, 534524, Note_on_c, 0, 58, 0
2, 534672, Note_on_c, 0, 66, 42
2, 535205, Note_on_c, 0, 66, 0
2, 536024, Note_on_c, 0, 57, 38
2, 536029, Note_on_c, 0, 51, 30
2, 536040, Note_on_c, 0, 63, 32
2, 536047, Note_on_c, 0, 65, 39
2, 536054, Note_on_c, 0, 41, 36
2, 536063, Control_c, 0, 64, 0
2, 536623, Control_c, 0, 64, 127
2, 537617, Note_on_c, 0, 51, 0
2, 537700, Note_on_c, 0, 57, 0
2, 537964, Note_on_c, 0, 65, 0
2, 538202, Note_on_c, 0, 63, 0
2, 538596, Note_on_c, 0, 67, 66
2, 538639, Note_on_c, 0, 63, 56
2, 538668, Note_on_c, 0, 62, 68
2, 538755, Control_c, 0, 64, 0
2, 538760, Note_on_c, 0, 57, 30
2, 539116, Control_c, 0, 64, 127
2, 539449, Note_on_c, 0, 41, 0
2, 539868, Note_on_c, 0, 41, 50
2, 540283, Note_on_c, 0, 57, 0
2, 540350, Note_on_c, 0, 67, 0
2, 540435, Note_on_c, 0, 63, 0
2, 540437, Note_on_c, 0, 62, 0
2, 541179, Note_on_c, 0, 69, 71
2, 541226, Note_on_c, 0, 65, 72
2, 541259, Note_on_c, 0, 62, 66
2, 541322, Note_on_c, 0, 57, 46
2, 541383, Control_c, 0, 64, 0
2, 542326, Control_c, 0, 64, 127
2, 542527, Note_on_c, 0, 53, 48
2, 542547, Note_on_c, 0, 57, 0
2, 542585, Note_on_c, 0, 41, 0
2, 542740, Note_on_c, 0, 53, 0
2, 542825, Note_on_c, 0, 62, 0
2, 542957, Note_on_c, 0, 65, 0
2, 542966, Note_on_c, 0, 69, 0
2, 543779, Note_on_c, 0, 74, 79
2, 543788, Note_on_c, 0, 81, 78
2, 543822, Note_on_c, 0, 65, 47
2, 543889, Note_on_c, 0, 62, 35
2, 544093, Note_on_c, 0, 62, 0
2, 544698, Note_on_c, 0, 74, 0
2, 544711, Note_on_c, 0, 65, 0
2, 544749, Note_on_c, 0, 81, 0
2, 544816, Note_on_c, 0, 62, 32
2, 544821, Note_on_c, 0, 77, 53
2, 544861, Note_on_c, 0, 74, 40
2, 544881, Note_on_c, 0, 69, 38
2, 544899, Note_on_c, 0, 62, 0
2, 545096, Note_on_c, 0, 77, 0
2, 545099, Note_on_c, 0, 74, 0
2, 545213, Note_on_c, 0, 69, 0
2, 546185, Note_on_c, 0, 65, 39
2, 546199, Note_on_c, 0, 46, 30
2, 546208, Note_on_c, 0, 62, 33
2, 546225, Note_on_c, 0, 60, 30
2, 546293, Note_on_c, 0, 57, 18
2, 546344, Control_c, 0, 64, 0
2, 546360, Note_on_c, 0, 53, 17
2, 546680, Control_c, 0, 64, 127
2, 547070, Note_on_c, 0, 53, 0
2, 547296, Note_on_c, 0, 60, 0
2, 547310, Note_on_c, 0, 57, 0
2, 547451, Note_on_c, 0, 46, 0
2, 547592, Note_on_c, 0, 62, 0
2, 547697, Note_on_c, 0, 65, 0
2, 550475, Note_on_c, 0, 70, 48
2, 550721, Note_on_c, 0, 70, 0
2, 551299, Note_on_c, 0, 68, 37
2, 551335, Note_on_c, 0, 40, 35
2, 551418, Control_c, 0, 64, 0
2, 551734, Control_c, 0, 64, 127
2, 551969, Note_on_c, 0, 40, 0
2, 552766, Note_on_c, 0, 68, 0
2, 553873, Note_on_c, 0, 56, 36
2, 553900, Note_on_c, 0, 62, 27
2, 554702, Note_on_c, 0, 66, 33
2, 554722, Note_on_c, 0, 73, 33
2, 554782, Note_on_c, 0, 70, 34
2, 555712, Note_on_c, 0, 70, 0
2, 555716, Note_on_c, 0, 66, 0
2, 555730, Note_on_c, 0, 73, 0
2, 556017, Note_on_c, 0, 62, 0
2, 556675, Note_on_c, 0, 56, 0
2, 557517, Note_on_c, 0, 56, 37
2, 557551, Note_on_c, 0, 62, 29
2, 559052, Note_on_c, 0, 62, 0
2, 559630, Note_on_c, 0, 56, 0
2, 559916, Note_on_c, 0, 52, 24
2, 560194, Note_on_c, 0, 52, 0
2, 561202, Note_on_c, 0, 27, 40
2, 561204, Note_on_c, 0, 61, 32
2, 561216, Note_on_c, 0, 39, 23
2, 561218, Note_on_c, 0, 67, 41
2, 561236, Note_on_c, 0, 55, 29
2, 561390, Control_c, 0, 64, 0
2, 561749, Control_c, 0, 64, 127
2, 561832, Note_on_c, 0, 27, 0
2, 561959, Note_on_c, 0, 39, 0
2, 562022, Note_on_c, 0, 55, 0
2, 562486, Note_on_c, 0, 61, 0
2, 562808, Note_on_c, 0, 67, 0
2, 563601, Note_on_c, 0, 61, 32
2, 563639, Note_on_c, 0, 65, 30
2, 563787, Note_on_c, 0, 65, 0
2, 563850, Note_on_c, 0, 61, 0
2, 564475, Note_on_c, 0, 69, 94
2, 564907, Note_on_c, 0, 69, 0
2, 565250, Note_on_c, 0, 70, 77
2, 565978, Note_on_c, 0, 70, 0
2, 566079, Note_on_c, 0, 47, 35
2, 566099, Note_on_c, 0, 40, 33
2, 566114, Note_on_c, 0, 69, 47
2, 566150, Control_c, 0, 64, 0
2, 566164, Note_on_c, 0, 55, 31
2, 566551, Control_c, 0, 64, 127
2, 566764, Note_on_c, 0, 40, 0
2, 566874, Note_on_c, 0, 47, 0
2, 567035, Note_on_c, 0, 55, 0
2, 567586, Note_on_c, 0, 69, 0
2, 568695, Note_on_c, 0, 61, 31
2, 568740, Note_on_c, 0, 45, 34
2, 568778, Note_on_c, 0, 55, 20
2, 568818, Control_c, 0, 64, 0
2, 569089, Control_c, 0, 64, 127
2, 569627, Note_on_c, 0, 45, 0
2, 569909, Note_on_c, 0, 55, 0
2, 570536, Note_on_c, 0, 61, 0
2, 570792, Note_on_c, 0, 67, 39
2, 571199, Note_on_c, 0, 67, 0
2, 571387, Note_on_c, 0, 61, 42
2, 571448, Control_c, 0, 64, 0
2, 571459, Note_on_c, 0, 66, 42
2, 571481, Note_on_c, 0, 57, 28
2, 571504, Note_on_c, 0, 50, 22
2, 571739, Control_c, 0, 64, 127
2, 572030, Note_on_c, 0, 61, 0
2, 572059, Note_on_c, 0, 50, 0
2, 572138, Note_on_c, 0, 57, 0
2, 572413, Note_on_c, 0, 66, 0
2, 573439, Note_on_c, 0, 83, 55
2, 573674, Note_on_c, 0, 76, 41
2, 573695, Note_on_c, 0, 83, 0
2, 573919, Note_on_c, 0, 76, 0
2, 574022, Note_on_c, 0, 78, 59
2, 574111, Note_on_c, 0, 61, 25
2, 574143, Note_on_c, 0, 64, 33
2, 574165, Control_c, 0, 64, 0
2, 574192, Note_on_c, 0, 54, 28
2, 574214, Note_on_c, 0, 59, 33
2, 574409, Control_c, 0, 64, 127
2, 575160, Note_on_c, 0, 71, 34
2, 575278, Note_on_c, 0, 78, 0
2, 575491, Note_on_c, 0, 71, 0
2, 575525, Note_on_c, 0, 64, 0
2, 575789, Note_on_c, 0, 61, 0
2, 575809, Note_on_c, 0, 59, 0
2, 576504, Note_on_c, 0, 71, 60
2, 576535, Note_on_c, 0, 61, 25
2, 576636, Note_on_c, 0, 61, 0
2, 576745, Note_on_c, 0, 54, 0
2, 576810, Note_on_c, 0, 71, 0
2, 576853, Note_on_c, 0, 64, 28
2, 577124, Note_on_c, 0, 64, 0
2, 577160, Note_on_c, 0, 66, 43
2, 577650, Note_on_c, 0, 62, 32
2, 578903, Note_on_c, 0, 62, 0
2, 578999, Note_on_c, 0, 64, 43
2, 579048, Note_on_c, 0, 57, 31
2, 579071, Note_on_c, 0, 50, 16
2, 579080, Control_c, 0, 64, 0
2, 579351, Control_c, 0, 64, 127
2, 579743, Note_on_c, 0, 64, 0
2, 579790, Note_on_c, 0, 59, 40
2, 580305, Note_on_c, 0, 66, 0
2, 580307, Note_on_c, 0, 57, 0
2, 580531, Note_on_c, 0, 50, 0
2, 580567, Note_on_c, 0, 61, 46
2, 580601, Note_on_c, 0, 59, 0
2, 581378, Note_on_c, 0, 61, 0
2, 581548, Note_on_c, 0, 38, 33
2, 581550, Note_on_c, 0, 57, 37
2, 581564, Note_on_c, 0, 60, 35
2, 581593, Note_on_c, 0, 50, 24
2, 581617, Control_c, 0, 64, 0
2, 581976, Control_c, 0, 64, 127
2, 582552, Note_on_c, 0, 57, 0
2, 582563, Note_on_c, 0, 50, 0
2, 582854, Note_on_c, 0, 56, 56
2, 583163, Note_on_c, 0, 38, 0
2, 583734, Note_on_c, 0, 56, 0
2, 583795, Note_on_c, 0, 60, 0
2, 584185, Note_on_c, 0, 56, 51
2, 584205, Note_on_c, 0, 60, 51
2, 585412, Note_on_c, 0, 50, 58
2, 585676, Note_on_c, 0, 50, 0
2, 585963, Note_on_c, 0, 60, 0
2, 585999, Note_on_c, 0, 56, 0
2, 586758, Note_on_c, 0, 55, 67
2, 586761, Note_on_c, 0, 60, 70
2, 586778, Note_on_c, 0, 56, 71
2, 586794, Note_on_c, 0, 43, 51
2, 586801, Note_on_c, 0, 31, 58
2, 586982, Control_c, 0, 64, 0
2, 587435, Control_c, 0, 64, 127
2, 588080, Note_on_c, 0, 31, 0
2, 588234, Note_on_c, 0, 43, 0
2, 588718, Note_on_c, 0, 55, 0
2, 588770, Note_on_c, 0, 56, 0
2, 588828, Note_on_c, 0, 60, 0
2, 589543, Note_on_c, 0, 62, 55
2, 589545, Note_on_c, 0, 67, 70
2, 589552, Note_on_c, 0, 59, 60
2, 589554, Note_on_c, 0, 56, 64
2, 589587, Note_on_c, 0, 55, 47
2, 589632, Control_c, 0, 64, 0
2, 589968, Control_c, 0, 64, 127
2, 590891, Note_on_c, 0, 43, 45
2, 590947, Note_on_c, 0, 67, 0
2, 591026, Note_on_c, 0, 55, 0
2, 591205, Note_on_c, 0, 62, 0
2, 591308, Note_on_c, 0, 43, 0
2, 591332, Note_on_c, 0, 59, 0
2, 591635, Note_on_c, 0, 56, 0
2, 592233, Note_on_c, 0, 63, 74
2, 592253, Note_on_c, 0, 58, 77
2, 592255, Note_on_c, 0, 60, 71
2, 592258, Note_on_c, 0, 54, 81
2, 592266, Note_on_c, 0, 53, 77
2, 592327, Control_c, 0, 64, 0
2, 592822, Control_c, 0, 64, 127
2, 593516, Note_on_c, 0, 53, 0
2, 593796, Note_on_c, 0, 53, 73
2, 594845, Note_on_c, 0, 53, 0
2, 595203, Note_on_c, 0, 53, 40
2, 596032, Note_on_c, 0, 53, 0
2, 596469, Note_on_c, 0, 53, 32
2, 597295, Note_on_c, 0, 54, 0
2, 597313, Note_on_c, 0, 60, 0
2, 597367, Note_on_c, 0, 58, 0
2, 597414, Note_on_c, 0, 63, 0
2, 597797, Note_on_c, 0, 63, 34
2, 597799, Note_on_c, 0, 41, 35
2, 597813, Note_on_c, 0, 54, 32
2, 597846, Note_on_c, 0, 58, 43
2, 597896, Note_on_c, 0, 60, 34
2, 598097, Note_on_c, 0, 53, 0
2, 598438, Note_on_c, 0, 41, 0
2, 598823, Note_on_c, 0, 54, 0
2, 599551, Note_on_c, 0, 60, 0
2, 599898, Note_on_c, 0, 58, 0
2, 600122, Note_on_c, 0, 63, 0
2, 600530, Note_on_c, 0, 63, 36
2, 600568, Control_c, 0, 64, 0
2, 600590, Note_on_c, 0, 52, 25
2, 600595, Note_on_c, 0, 30, 33
2, 600613, Note_on_c, 0, 42, 21
2, 600615, Note_on_c, 0, 58, 36
2, 600837, Control_c, 0, 64, 127
2, 601058, Note_on_c, 0, 52, 0
2, 601083, Note_on_c, 0, 30, 0
2, 601106, Note_on_c, 0, 42, 0
2, 601446, Note_on_c, 0, 63, 0
2, 601513, Note_on_c, 0, 58, 0
2, 601939, Note_on_c, 0, 63, 33
2, 601972, Note_on_c, 0, 54, 29
2, 601981, Control_c, 0, 64, 0
2, 602008, Note_on_c, 0, 41, 24
2, 602033, Note_on_c, 0, 58, 39
2, 602116, Control_c, 0, 64, 127
2, 602324, Note_on_c, 0, 41, 0
2, 602441, Note_on_c, 0, 54, 0
2, 602595, Note_on_c, 0, 63, 0
2, 602626, Note_on_c, 0, 58, 0
2, 603402, Note_on_c, 0, 57, 33
2, 603417, Control_c, 0, 64, 0
2, 603431, Note_on_c, 0, 58, 28
2, 603440, Note_on_c, 0, 62, 43
2, 603455, Note_on_c, 0, 65, 35
2, 603505, Note_on_c, 0, 46, 26
2, 603688, Control_c, 0, 64, 127
2, 604678, Note_on_c, 0, 55, 65
2, 604880, Control_c, 0, 64, 0
2, 604902, Note_on_c, 0, 65, 0
2, 605037, Control_c, 0, 64, 127
2, 605169, Note_on_c, 0, 58, 0
2, 605171, Note_on_c, 0, 62, 0
2, 605303, Note_on_c, 0, 57, 0
2, 606121, Note_on_c, 0, 67, 56
2, 606137, Note_on_c, 0, 58, 48
2, 606157, Note_on_c, 0, 53, 42
2, 606168, Note_on_c, 0, 62, 49
2, 606175, Note_on_c, 0, 55, 0
2, 606271, Control_c, 0, 64, 0
2, 606719, Control_c, 0, 64, 127
2, 608345, Note_on_c, 0, 67, 0
2, 608354, Note_on_c, 0, 62, 0
2, 608724, Note_on_c, 0, 58, 0
2, 608912, Note_on_c, 0, 53, 0
2, 608912, Note_on_c, 0, 46, 0
2, 610404, Control_c, 0, 64, 0
2, 610419, Note_on_c, 0, 70, 39
2, 610475, Note_on_c, 0, 63, 40
2, 610489, Note_on_c, 0, 53, 24
2, 610498, Note_on_c, 0, 67, 37
2, 610525, Note_on_c, 0, 58, 25
2, 610740, Control_c, 0, 64, 127
2, 611020, Note_on_c, 0, 67, 0
2, 611163, Note_on_c, 0, 58, 0
2, 611194, Note_on_c, 0, 63, 0
2, 611215, Note_on_c, 0, 53, 0
2, 611401, Note_on_c, 0, 70, 0
2, 611790, Note_on_c, 0, 70, 42
2, 611815, Control_c, 0, 64, 0
2, 611831, Note_on_c, 0, 63, 43
2, 611844, Note_on_c, 0, 67, 43
2, 611849, Note_on_c, 0, 58, 28
2, 611884, Note_on_c, 0, 53, 19
2, 612041, Control_c, 0, 64, 127
2, 612465, Note_on_c, 0, 53, 0
2, 613199, Note_on_c, 0, 53, 31
2, 613457, Note_on_c, 0, 58, 0
2, 613938, Note_on_c, 0, 63, 0
2, 614787, Note_on_c, 0, 53, 0
2, 614884, Note_on_c, 0, 70, 0
2, 614960, Note_on_c, 0, 67, 0
2, 615784, Note_on_c, 0, 70, 33
2, 615786, Note_on_c, 0, 53, 27
2, 615834, Control_c, 0, 64, 0
2, 615838, Note_on_c, 0, 62, 26
2, 615869, Note_on_c, 0, 65, 32
2, 616060, Control_c, 0, 64, 127
2, 616465, Note_on_c, 0, 53, 0
2, 617110, Note_on_c, 0, 53, 26
2, 617702, Note_on_c, 0, 53, 0
2, 618394, Note_on_c, 0, 53, 27
2, 618911, Note_on_c, 0, 53, 0
2, 619359, Note_on_c, 0, 62, 0
2, 619397, Note_on_c, 0, 65, 0
2, 619572, Note_on_c, 0, 70, 0
2, 620925, Note_on_c, 0, 70, 26
2, 620988, Note_on_c, 0, 67, 33
2, 620990, Note_on_c, 0, 63, 32
2, 620999, Note_on_c, 0, 53, 26
2, 621017, Note_on_c, 0, 58, 29
2, 621066, Control_c, 0, 64, 0
2, 621357, Control_c, 0, 64, 127
2, 621485, Note_on_c, 0, 53, 0
2, 622435, Note_on_c, 0, 53, 28
2, 622921, Note_on_c, 0, 53, 0
2, 623873, Note_on_c, 0, 53, 18
2, 624599, Note_on_c, 0, 53, 0
2, 625132, Note_on_c, 0, 58, 0
2, 625336, Note_on_c, 0, 63, 0
2, 625380, Note_on_c, 0, 67, 0
2, 625884, Note_on_c, 0, 70, 0
2, 626460, Note_on_c, 0, 70, 30
2, 626487, Note_on_c, 0, 62, 30
2, 626516, Note_on_c, 0, 53, 28
2, 626552, Note_on_c, 0, 65, 33
2, 627121, Note_on_c, 0, 53, 0
2, 627860, Note_on_c, 0, 53, 24
2, 628342, Note_on_c, 0, 53, 0
2, 629363, Note_on_c, 0, 53, 26
2, 629959, Note_on_c, 0, 53, 0
2, 630564, Note_on_c, 0, 62, 0
2, 630683, Note_on_c, 0, 70, 0
2, 630696, Note_on_c, 0, 65, 0
2, 632100, Note_on_c, 0, 70, 26
2, 632163, Note_on_c, 0, 63, 33
2, 632186, Note_on_c, 0, 58, 25
2, 632190, Note_on_c, 0, 53, 24
2, 632199, Note_on_c, 0, 67, 20
2, 632672, Note_on_c, 0, 53, 0
2, 633713, Note_on_c, 0, 53, 24
2, 634222, Note_on_c, 0, 53, 0
2, 635465, Note_on_c, 0, 53, 19
2, 635779, Note_on_c, 0, 53, 0
2, 636108, Note_on_c, 0, 58, 0
2, 636323, Note_on_c, 0, 63, 0
2, 636397, Note_on_c, 0, 67, 0
2, 637270, Note_on_c, 0, 70, 0
2, 638426, Note_on_c, 0, 70, 30
2, 638462, Note_on_c, 0, 22, 30
2, 638473, Note_on_c, 0, 62, 24
2, 638493, Note_on_c, 0, 34, 25
2, 638579, Control_c, 0, 64, 0
2, 639342, Control_c, 0, 64, 127
2, 639864, Note_on_c, 0, 62, 0
2, 639927, Note_on_c, 0, 70, 0
2, 640028, Note_on_c, 0, 22, 0
2, 640041, Note_on_c, 0, 34, 0
2, 648482, Control_c, 0, 64, 0
2, 648482, End_track
0, 0, End_of_file
